<svg version="1.1" id="Layer_1" xmlns="http://www.w3.org/2000/svg" x="0" y="0" viewBox="0 0 120 120" style="enable-background:new 0 0 120 120" xml:space="preserve"><style>.st1{stroke:#000;stroke-width:.65;stroke-miterlimit:10}</style><path class="st1" d="M41.6 47.5h38c1.4.1 2.8.7 3.8 1.8s1.5 2.5 1.4 3.9c.1 1.4-.4 2.9-1.4 3.9-1 1.1-2.3 1.7-3.8 1.8h-38c-1.4-.1-2.8-.7-3.8-1.8s-1.5-2.5-1.4-3.9c-.1-1.4.4-2.9 1.4-3.9 1-1.1 2.3-1.7 3.8-1.8zm0 10.3h38v-.3.3c1.1-.1 2.1-.6 2.8-1.5.7-.8 1.1-1.9 1-3 .1-1.1-.3-2.2-1-3-.7-.8-1.7-1.4-2.8-1.4h-38c-1.1.1-2.1.6-2.8 1.4-.7.8-1.1 1.9-1 3-.1 1.1.3 2.2 1 3 .6.8 1.7 1.4 2.8 1.5zM41.6 65.8h38c1.4.2 2.7.8 3.7 1.9 1 1.1 1.5 2.5 1.5 3.9s-.5 2.8-1.5 3.9-2.3 1.7-3.7 1.9h-38c-1.4-.2-2.7-.8-3.7-1.9-1-1.1-1.5-2.5-1.5-3.9s.5-2.8 1.5-3.9c1-1 2.3-1.7 3.7-1.9zm-.1 10.3h38.1v-.3l.1.3c1.1-.2 2-.7 2.7-1.5.7-.8 1.1-1.8 1.1-2.9s-.4-2.1-1.1-2.9c-.7-.8-1.7-1.4-2.7-1.5h-38c-1.1.2-2 .7-2.7 1.5-.7.8-1.1 1.8-1.1 2.9s.4 2.1 1.1 2.9c.5.8 1.5 1.4 2.5 1.5zM56.1 41.4c0 .1.1.3.1.3.1.1.2.1.3.1H65l.1-.2V37c0-.1-.1-.3-.1-.3-.1-.1-.2-.1-.3-.1h-8c-.1 0-.3.1-.3.1-.1.1-.1.2-.1.3l-.2 4.4zm0 0h.3m-.3 0h.3m.1 0V37l8 4.6H56.6c-.1-.1-.1-.1-.1-.2zm.1 1.8c-.3 0-.5 0-.7-.1-.2-.1-.4-.2-.6-.4-.2-.2-.3-.4-.4-.6-.1-.2-.1-.5-.1-.7V37c0-.2 0-.5.1-.7.1-.2.2-.4.4-.6.2-.2.4-.3.6-.4.2-.1.5-.1.7-.1h8c.5 0 .9.2 1.3.5.2.2.3.4.4.6.1.2.1.4.1.7v4.4c0 .5-.2.9-.5 1.2-.3.3-.8.5-1.3.5h-8z"/><path class="st1" d="M30.3 45.5c0-2 .4-4 1.2-5.8.8-1.8 1.9-3.5 3.3-4.9 1.4-1.4 3.1-2.5 4.9-3.3s3.8-1.2 5.8-1.2h29.3c4 0 7.9 1.6 10.7 4.5 2.9 2.9 4.5 6.7 4.5 10.7v28.9c0 4-1.6 7.9-4.5 10.7-2.9 2.9-6.7 4.5-10.7 4.5H45.5c-2 0-4-.4-5.8-1.2s-3.5-1.9-4.9-3.3c-1.4-1.4-2.5-3.1-3.3-4.9-.8-1.8-1.2-3.8-1.2-5.8V45.5zm58.3 29v-29c0-3.7-1.5-7.2-4.1-9.8-2.6-2.6-6.1-4.1-9.8-4.1H45.5c-3.7 0-7.2 1.5-9.8 4.1-2.6 2.6-4.1 6.1-4.1 9.8v28.9c0 3.7 1.5 7.2 4.1 9.8 2.6 2.6 6.1 4.1 9.8 4.1h29.3c3.7 0 7.2-1.5 9.8-4.1 2.6-2.5 4-6.1 4-9.7z"/></svg>