<svg version="1.1" id="Layer_1" xmlns="http://www.w3.org/2000/svg" x="0" y="0" viewBox="0 0 120 120" style="enable-background:new 0 0 120 120" xml:space="preserve"><style>.st1{fill:none;stroke:#000;stroke-width:2;stroke-linecap:round;stroke-linejoin:round}</style><path class="st1" d="M84.1 40s5.6 2.8 5.6 11.2c0 11.2-15.4 14-29.5 14-14 0-29.5-2.8-29.5-14 0-8.4 5.6-11.2 5.6-11.2"/><path class="st1" d="M84.1 40s8.5-.5 11.2 11.2c2.6 11.4.6 24.3-2.8 29.4 0 0-7.9.1-8.4 0s-1.4-3.8-5.6-4.2c-4.2-.4-32.3-.4-36.5 0-4.2.4-5.1 4-5.6 4.2-.5.2-8.4 0-8.4 0-3.4-5.1-5.4-18-2.8-29.4C27.9 39.5 36.4 40 36.4 40h47.7z"/></svg>