<?xml version="1.0" encoding="utf-8"?>
<!-- Generator: Adobe Illustrator 27.1.1, SVG Export Plug-In . SVG Version: 6.00 Build 0)  -->
<svg version="1.1" id="Layer_1" xmlns="http://www.w3.org/2000/svg" xmlns:xlink="http://www.w3.org/1999/xlink" x="0px" y="0px"
	 viewBox="0 0 150 150" style="enable-background:new 0 0 150 150;" xml:space="preserve">
<style type="text/css">
	.st0{fill:none;stroke:#231F20;stroke-width:2.5;stroke-linecap:round;stroke-linejoin:round;}
</style>
<g>
	<path class="st0" d="M125.1,50c0,0,10.2-0.7,13.5,13.8c3.2,14,0.7,29.9-3.4,36.1c0,0-9.5,0.1-10.1,0c-0.6-0.2-1.7-4.6-6.7-5.1
		c-5-0.4-81.7-0.4-86.8,0c-5,0.4-6.1,4.9-6.7,5.1c-0.6,0.2-10.1,0-10.1,0c-4.1-6.2-6.5-22.1-3.4-36.1C14.7,49.4,24.9,50,24.9,50
		H125.1z"/>
	<path class="st0" d="M125.7,50c0,0,6.8,3.3,6.8,13.1c0,18.8-40.3,16.8-57.3,16.8h-0.5c-17,0-57.3,1.9-57.3-16.8
		c0-9.8,6.8-13.1,6.8-13.1"/>
</g>
</svg>
