<svg version="1.1" id="Layer_1" xmlns="http://www.w3.org/2000/svg" x="0" y="0" viewBox="0 0 120 120" style="enable-background:new 0 0 120 120" xml:space="preserve"><style>.st1,.st2{fill:none;stroke:#000;stroke-width:2}.st1{stroke-miterlimit:10}.st2{stroke-linecap:round;stroke-linejoin:round}</style><path class="st1" d="M103.1 42.6c4.2 4.9 5.9 13.1 5.9 18.9 0 5.8-.8 11.5-4.2 16.4h-9.2c0-1.6-2.5-3-5.6-3H29.3c-3.3 0-5.8 1.4-5.8 3h-9.2C10.8 73.1 10 67.4 10 61.6c0-5 1.3-11.9 4.3-16.8 1-1.5 2.2-3.3 4-3.5 2.6-.3 13.5-.3 13.5-.3"/><path class="st2" d="M28.8 52.5v15.3M89.1 52.5v15.3M10.8 68.1h97.3"/><path class="st1" d="M98.9 41H31c-3.2 0-5.9 2.6-5.9 5.8 0 3.2 2.6 5.8 5.9 5.8h68c3.2 0 5.9-2.6 5.9-5.8-.1-3.2-2.7-5.8-6-5.8z"/></svg>