<svg width="150" height="150" viewBox="0 0 150 150" fill="none" xmlns="http://www.w3.org/2000/svg">
<path d="M44.4666 35.625H105.461C114.274 35.625 114.274 36.9017 114.274 46.1578V120.717C114.274 126.462 115.973 131.25 105.461 131.25H44.4666C34.647 131.25 35.6542 126.462 35.6542 120.717V46.1578C35.6542 35.625 35.9689 35.625 44.4666 35.625Z" stroke="black" stroke-width="2" stroke-linecap="round" stroke-linejoin="round"/>
<path d="M39.375 35.625C39.375 35.625 91.8784 22.152 105.539 18.7838C106.987 18.4776 108.75 20.3148 108.75 21.8458V34.094" stroke="black" stroke-width="2" stroke-linecap="round" stroke-linejoin="round"/>
<path d="M90.9574 72.2569C87.2339 68.4144 81.0282 68.4144 76.9324 72.2569L75.0706 74.1781L73.2089 72.2569C69.4855 68.4144 63.2797 68.4144 59.1839 72.2569C55.0881 76.0994 55.4604 82.5036 59.1839 86.7303L61.0456 88.6516L75.0706 103.125L89.0957 88.6516L90.9574 86.7303C94.6809 82.8878 94.6809 76.4836 90.9574 72.2569Z" stroke="black" stroke-width="2" stroke-linecap="round" stroke-linejoin="round"/>
<path d="M45 56.25C45.2961 45.1389 43.5197 46.9907 50.625 46.9907" stroke="black" stroke-width="2" stroke-linecap="round" stroke-linejoin="round"/>
<path d="M50.625 120C43.9099 120 45.0778 120 45.0778 112.5" stroke="black" stroke-width="2" stroke-linecap="round" stroke-linejoin="round"/>
<path d="M104.922 112.5C104.922 119.7 106.09 120 99.375 120" stroke="black" stroke-width="2" stroke-linecap="round" stroke-linejoin="round"/>
<path d="M97.5 46.9649C104.605 46.5935 102.829 46.9649 103.125 56.25" stroke="black" stroke-width="2" stroke-linecap="round" stroke-linejoin="round"/>
</svg>
