<svg xmlns="http://www.w3.org/2000/svg" xmlns:xlink="http://www.w3.org/1999/xlink" fill="#fff" fill-rule="evenodd" stroke="#000" stroke-linecap="round" stroke-linejoin="round" viewBox="0 0 74.375 85"><style>.B{stroke:none}.C{fill:#692f56}.D{fill:#ad688b}.E{fill:#875078}.F{fill:#cfb2c1}.G{fill:#512843}</style><use xlink:href="#A" x="2.188" y="2.5"/><symbol id="A" overflow="visible"><path d="m65.512 42.802-24.541-.823L0 42.583v12.518l12.929 16.558L29.421 80v-7.988L35 70.024v7.488L40.579 80l24.932-37.199zm0-5.603-24.006.812L0 37.417V24.9L12.929 8.342 29.421 0v7.988L35 9.977V2.489L40.579 0l24.932 37.199z" class="B C"/><path d="M29.421 58.923 35 46.082l35-3.499v12.518L57.071 71.659 40.58 80v-7.987L35 70.024v7.488L29.421 80V58.923zm0-37.512L35 34.96l35 2.458V24.9L57.071 8.342 40.58 0v7.988L35 9.977V2.489L29.421 0v21.411z" class="B D"/><path d="M23.759 42.437 65.44 50.32 70 42.583l-28.031-.625-18.21.479z" class="B F"/><path d="m67.756 51.549-24.644-1.458-1.606 14.621 9.213 6.155 13.434-9.362 3.603-9.956z" class="B E"/><path d="m44.522 42.281 20.99.521V53.06l-20.99-2.406v-8.373z" class="B C"/><path d="m2.244 50.695 25.993-1.177 4.396 14.423L17.51 70.44 7.288 61.504l-5.044-10.81z" class="B D"/><path d="m45.181 42.072-11.19-.25L0 42.582l4.488 7.519 40.693-8.029z" class="B F"/><path d="m24.819 42.291-20.331.51v10.258l20.331-2.322v-8.446z" class="B E"/><path d="m23.759 37.573 41.753-10.622L70 37.427l-28.031.625-18.21-.479z" class="B G"/><path d="m67.756 28.462-24.644 1.447-1.606-14.611 9.213-6.155 13.434 9.362 3.603 9.956z" class="B E"/><path d="m44.522 37.729 20.99-.531V26.951l-20.99 2.395v8.383z" class="B C"/><path d="m2.244 29.315 25.993 1.166 4.396-14.413L17.51 9.57 7.288 18.505l-5.044 10.81z" class="B D"/><path d="m45.181 37.928-11.19.26L0 37.428l4.344-9.904 40.837 10.404z" class="B G"/><path d="m24.819 37.709-20.331-.51V26.951l20.331 2.322v8.435z" class="B E"/><g class="F"><path d="M48.156 65.337 35 61.911l-18.591 4.843 12.971 5.28 18.777-6.696z" class="B"/><path d="M53.55 66.743 35 61.911l-13.156 3.426 18.735 6.675 12.971-5.269z" class="B"/></g><g class="G"><path d="M48.197 14.643 35 18.058l-18.591-4.811 13.012-5.259 18.776 6.655z" class="B"/><path d="M53.591 13.247 35 18.058l-13.197-3.416 18.776-6.654 13.012 5.259zM20.804 37.199l32.787-6.467 6.547 6.165L35 37.595l-14.196-.396z" class="B"/><path d="M51.543 37.136 35 37.595l-25.138-.698 8.946-11.466 32.735 11.705z" class="B"/></g><path d="M14.834 31.523 35 32.908v-8.789L21.309 19.86l-6.475 11.664z" class="B D"/><path d="M46.704 19.318 35 24.119v8.269l19.116-1.698-7.412-11.372z" class="B E"/><path d="M19.796 60.099 35 55.86v-8.935l-23.069 1.333 7.865 11.841z" class="B D"/><path d="M54.343 47.789 35 46.925v8.935l9.172 3.634 9.759-1.625.412-10.081z" class="B E"/><path d="m36.524 32.252 17.068-1.52v5.832l-17.068.552v-4.863z" class="B C"/><path d="m32.633 32.211-16.224-1.448v5.801l16.224.531v-4.884z" class="B E"/><path d="m36.091 42.812 17.572 6.061 6.475-5.769-17.644-.51-6.403.219z" class="B F"/><path d="m36.524 42.853 17.068.583v5.853l-17.068-1.354v-5.082z" class="B C"/><path d="m27.763 43.052-6.701-.271-11.2.323 6.547 6.186 11.354-6.238z" class="B F"/><path d="m32.633 42.885-16.224.552v5.853l16.224-1.479v-4.926z" class="B E"/><g class="C"><path d="m35 48.467-10.418-1.052V32.429L35 31.367v17.1zM12.929 8.342 29.42 0v7.988l-16.491 6.675V8.342zm7.278 8.175 9.213-3.093v7.988l-9.213 2.156v-7.05zM9.862 27.91l6.547-1.323v9.977l-6.547.333V27.91zM0 24.9l4.488-1.364v13.663L0 37.418V24.9z" class="B"/><path d="M16.409 13.247 3.994 27.525 0 24.9 12.929 8.342l3.479 4.905zm9.059 9.091-9.81 9.071-5.826-3.489 10.377-11.403 5.26 5.821z" class="B"/></g><g class="D"><path d="M57.07 8.342 40.579 0v7.988l16.491 6.675V8.342zm-7.288 8.175-9.203-3.093v7.988l9.203 2.156v-7.05zM60.138 27.91l-6.547-1.323v9.977l6.547.333V27.91zM70 24.9l-4.488-1.364v13.663l4.488.219V24.9z" class="B"/><path d="m53.591 13.247 12.425 14.278L70 24.9 57.07 8.342l-3.479 4.905zm-9.059 9.091 9.81 9.071 5.827-3.489-10.387-11.403-5.25 5.821z" class="B"/></g><g class="C"><path d="M12.929 71.658 29.42 80v-7.987l-16.491-6.675v6.321zm7.278-8.175 9.213 3.093v-7.987l-9.213-2.156v7.05zM9.862 52.09l6.547 1.323v-9.977l-6.547-.333v8.987zM0 55.101l4.488 1.364V42.802L0 42.583v12.518z" class="B"/><path d="M16.409 66.754 3.994 52.476 0 55.1l12.929 16.558 3.479-4.905zm9.059-9.092-9.81-9.07-5.826 3.489 10.377 11.403 5.26-5.821z" class="B"/></g><g class="D"><path d="M57.07 71.658 40.579 80v-7.987l16.491-6.675v6.321zm-7.288-8.175-9.203 3.093v-7.987l9.203-2.156v7.05zM60.138 52.09l-6.547 1.323v-9.977l6.547-.333v8.987zM70 55.101l-4.488 1.364V42.802L70 42.583v12.518z" class="B"/><path d="m53.591 66.754 12.425-14.278L70 55.1 57.07 71.659l-3.479-4.905zm-9.059-9.092 9.81-9.07 5.827 3.489-10.387 11.403-5.25-5.821zm.937-10.257L35 48.467v-17.1l10.469 1.062v14.975z" class="B"/></g><path d="m35 22.557 5.579-1.145v-7.988L35 15.069v7.488zm0 42.364 5.579 1.656V58.59L35 57.433v7.488zm0 12.59L40.579 80v-7.988L35 70.023v7.488zm0-67.545 5.579-1.979V0L35 2.479v7.488z" class="B C"/><path d="M29.421 21.412 35 22.557v-7.488l-5.579-1.645v7.988zm0 45.165L35 64.921v-7.488l-5.579 1.156v7.987zm0 13.423L35 77.511v-7.488l-5.579 1.989V80zm0-71.929L35 10.039v-7.56L29.421 0v8.071z" class="B D"/><g class="F"><path d="M38.964 56.611 35 55.861l-9.532 1.802 3.932.937 9.563-1.989z" class="B"/><path d="M44.522 57.663 35 55.861l-3.963.75 9.543 1.979 3.943-.927z" class="B"/></g><g class="G"><path d="m38.984 23.369-3.984.75-9.532-1.781 3.953-.927 9.563 1.958z" class="B"/><path d="M44.532 22.338 35 24.119l-3.984-.75 9.563-1.958 3.953.927z" class="B"/></g></symbol></svg>