<svg xmlns="http://www.w3.org/2000/svg" xmlns:xlink="http://www.w3.org/1999/xlink" fill="#fff" fill-rule="evenodd" stroke="#000" stroke-linecap="round" stroke-linejoin="round" viewBox="0 0 85 85"><use xlink:href="#a" x="2.5" y="2.5"/><symbol id="a" overflow="visible"><g stroke="none"><path fill="#512843" d="m0 27.374 65-15.046-.024 13.406-56.988 3.36L0 27.374z"/><path fill="#cfb2c1" d="m32.706 45.585 40.847 18.039 6.424-14.209-39.518-4.782-7.753.952z"/><path fill="#692f56" d="m32.706 45.585 40.847 5.803v12.236L32.706 53.98v-8.394z"/><path fill="#cfb2c1" d="m19.047 47.248 41.482 22.729 8.953-17.5-41.047-6.376-9.388 1.147z"/><path fill="#ad688b" d="m69.482 52.477-8.953 2.649v14.851l8.953-4.369V52.477zm10.495-3.062-6.424 1.972v12.236l6.424-3.142V49.415z"/><path fill="#692f56" d="m19.047 47.248 41.482 7.878v14.851L19.047 56.835v-9.587z"/><path fill="#cfb2c1" d="M0 49.415 40 80l14.365-23.131-41.635-8.991L0 49.415z"/><path fill="#875078" d="m0 16.502 52.035-12.11L51.977 0 1.282 15.367 0 16.502zm61.565-3.635L80 9.748V5.321L61.565 9.037v3.83z"/><path fill="#ad688b" d="M80 32.89H40L4.376 37.557 40 51.48l40-7.695V32.89z"/><path fill="#692f56" d="M0 32.89h40v18.59L0 43.773V32.89zm0-5.516 40-3.773 16.659-13.177L40 4.897 0 16.502v10.872z"/><path fill="#ad688b" d="M54.365 56.892 40 61.089V80l14.365-7.007V56.892z"/><path fill="#692f56" d="m0 49.415 40 11.674V80L0 60.482V49.415z"/><path fill="#ad688b" d="M40 23.601V4.897L51.977 0l13 11.801L80 5.321v11.124l-15.024 9.289-13.129-9.656L40 23.601z"/></g></symbol></svg>