<svg xmlns="http://www.w3.org/2000/svg" viewBox="0 0 64 64"><g fill="#e00" data-name="Bank safe"><path d="M62.543 0H1.457A1.457 1.457 0 0 0 0 1.457v61.086A1.457 1.457 0 0 0 1.457 64h61.086A1.457 1.457 0 0 0 64 62.543V1.457A1.457 1.457 0 0 0 62.543 0Zm-1.456 61.087H2.913V2.913h58.174Z" data-name="Path 1410"/><path d="M10.855 14.661a1.457 1.457 0 0 0 1.457-1.457v-.893h39.377v39.378H12.311v-.893a1.457 1.457 0 0 0-2.913 0v2.349a1.457 1.457 0 0 0 1.457 1.457h42.29a1.457 1.457 0 0 0 1.457-1.457v-42.29a1.457 1.457 0 0 0-1.457-1.457h-42.29a1.457 1.457 0 0 0-1.457 1.457v2.349a1.457 1.457 0 0 0 1.457 1.457Z" data-name="Path 1411"/><path d="M8.505 28.757h4.7a1.457 1.457 0 0 0 1.457-1.457v-9.4a1.457 1.457 0 0 0-1.457-1.457h-4.7a1.457 1.457 0 0 0-1.457 1.46v9.4a1.457 1.457 0 0 0 1.457 1.457Zm1.457-9.4h1.786v6.485H9.961Z" data-name="Path 1412"/><path d="M8.505 47.553h4.7a1.457 1.457 0 0 0 1.457-1.457v-9.4a1.457 1.457 0 0 0-1.457-1.457h-4.7a1.457 1.457 0 0 0-1.457 1.46v9.4a1.457 1.457 0 0 0 1.457 1.454Zm1.457-9.4h1.786v6.485H9.961Z" data-name="Path 1413"/><path d="M26.267 42.431a1.433 1.433 0 0 0 2.068 0l3.477-3.383a8.552 8.552 0 0 0 9.774 0l3.477 3.477a1.462 1.462 0 0 0 2.063-2.067l-3.383-3.571a8.552 8.552 0 0 0 0-9.774l3.483-3.477c1.363-1.316-.752-3.43-2.068-2.068l-3.572 3.383a8.552 8.552 0 0 0-9.774 0l-3.477-3.477c-1.316-1.363-3.43.752-2.068 2.068l3.383 3.571a8.552 8.552 0 0 0 0 9.774l-3.477 3.477a1.433 1.433 0 0 0 .094 2.068Zm16.024-10.43a5.592 5.592 0 0 1-11.16 0 5.592 5.592 0 0 1 11.16 0Z" data-name="Path 1414"/><circle cx="1.457" cy="1.457" r="1.457" data-name="Ellipse 11" transform="translate(35.242 30.543)"/></g></svg>