<svg xmlns="http://www.w3.org/2000/svg" viewBox="0 0 63.993 64"><path fill="#e00" d="M35.521 21.462c-1.31-1.357-3.416.749-2.059 2.059l7.018 7.018a1.456 1.456 0 1 0 2.059-2.059Z" data-name="Path 1557"/><path fill="#e00" d="M63.991 13.25a1.614 1.614 0 0 0-.4-1.146l-4.679-4.679a1.427 1.427 0 0 0-2.059 0L43.844 20.432 32.48 9.039l8.843-5.732L45.3 7.284l-4.82 4.82a1.456 1.456 0 0 0 2.059 2.059l5.848-5.849a1.427 1.427 0 0 0 0-2.059L42.539.407A1.544 1.544 0 0 0 40.831.15c-.117 0-11.346 7.392-11.463 7.416a1.544 1.544 0 0 0-.421 2.035s1.614 1.684 1.755 1.8a15.463 15.463 0 0 0-3.7 16.516L1.88 53.043a6.418 6.418 0 0 0 9.077 9.077l25.125-25.125a14.715 14.715 0 0 0 13.779-1.614l13.92-21.452a1.754 1.754 0 0 0 .211-.678ZM36.344 33.954a1.567 1.567 0 0 0-1.638.3L8.969 59.991a3.509 3.509 0 0 1-4.96-4.96l25.735-25.732a1.521 1.521 0 0 0 .4-.8 1.731 1.731 0 0 0 0-.842 12.609 12.609 0 0 1 2.714-14.2L42.913 23.52a1.427 1.427 0 0 0 2.059 0l12.913-13.006 2.807 2.807-13.077 20.142a12.68 12.68 0 0 1-11.271.491Z" data-name="Path 1558"/><path fill="#e00" d="M6.418 56.131a1.474 1.474 0 1 0 1.45 1.474 1.474 1.474 0 0 0-1.45-1.474Z" data-name="Path 1559"/></svg>