<svg xmlns="http://www.w3.org/2000/svg" viewBox="0 0 64 61.734"><path fill="#e00" d="M58.062 56.657a1.382 1.382 0 0 0-1.405 1.405v.858h-15.32V45.688a5.938 5.938 0 1 0-2.81 0V58.92H20.94v-7.068l6.391-6.391a1.36 1.36 0 0 0 .408-1V34.357a5.938 5.938 0 1 0-2.81 0v9.518l-6.391 6.391a1.36 1.36 0 0 0-.408 1v7.654H2.81V2.81h15.32v9.337l-6.391 6.391a1.36 1.36 0 0 0-.408 1v14.64a5.938 5.938 0 1 0 2.81 0V20.12l6.391-6.391a1.36 1.36 0 0 0 .408-1V2.81h17.587v8.7a5.938 5.938 0 1 0 2.81 0v-8.7h15.32v6.255H53.53a1.382 1.382 0 0 0-1.41 1.405v13.6a1.382 1.382 0 0 0 1.405 1.405h3.127v3.127a1.405 1.405 0 1 0 2.81 0v-4.534a1.382 1.382 0 0 0-1.405-1.405h-3.122V11.875h3.127a1.382 1.382 0 0 0 1.405-1.405V1.405A1.382 1.382 0 0 0 58.062 0H1.405A1.382 1.382 0 0 0 0 1.405v58.923a1.382 1.382 0 0 0 1.405 1.405h56.657a1.382 1.382 0 0 0 1.405-1.405v-2.266a1.382 1.382 0 0 0-1.405-1.405ZM36.804 39.932a3.127 3.127 0 1 1 3.127 3.127 3.127 3.127 0 0 1-3.127-3.127Zm-13.6-11.331a3.127 3.127 0 1 1 3.127 3.127 3.127 3.127 0 0 1-3.127-3.127Zm-7.34 11.331a3.127 3.127 0 1 1-3.127-3.127 3.127 3.127 0 0 1 3.127 3.127Zm27.2-22.663a3.127 3.127 0 1 1-3.127-3.127 3.127 3.127 0 0 1 3.127 3.127Z" data-name="Path 76"/><path fill="#e00" d="M62.594 33.994h-9.065a1.382 1.382 0 0 0-1.405 1.405v15.864a1.382 1.382 0 0 0 1.405 1.405h9.065a1.382 1.382 0 0 0 1.405-1.405V35.399a1.382 1.382 0 0 0-1.405-1.405Zm-1.405 15.864h-6.255V36.804h6.255Z" data-name="Path 77"/></svg>