<svg xmlns="http://www.w3.org/2000/svg" data-name="Fighter jet" viewBox="0 0 63.92 64"><path fill="#e00" d="M1.455 35.101A1.431 1.431 0 0 0 0 36.556v16.426a1.455 1.455 0 0 0 2.91 0V36.556a1.431 1.431 0 0 0-1.455-1.455Z" data-name="Path 1213"/><path fill="#e00" d="M62.465 35.101a1.431 1.431 0 0 0-1.455 1.455v16.426a1.455 1.455 0 0 0 2.91 0V36.556a1.431 1.431 0 0 0-1.455-1.455Z" data-name="Path 1214"/><path fill="#e00" d="M40.454 25.316v-8.26a22.2 22.2 0 0 0-6.547-15.7c-.774-.868-1.854-1.995-2.98-.915a22.456 22.456 0 0 0-7.462 16.731v8.26L5.233 40.217a1.455 1.455 0 0 0-.54 1.15v9.386a1.455 1.455 0 0 0 1.854 1.408l14.572-4.153v2.347l-4.458 6.664a1.455 1.455 0 0 0 .188 1.854l4.693 4.693a1.455 1.455 0 0 0 1.69.282l4.693-2.347a1.478 1.478 0 0 0-1.312-2.629l-3.758 1.877-3.1-3.262c.211-.469 4.693-6.429 4.294-6.852v-4.693a1.455 1.455 0 0 0-1.854-1.408L7.603 48.688v-6.735L25.835 27.17a1.384 1.384 0 0 0 .54-1.126v-8.988A19.359 19.359 0 0 1 31.96 3.423a19.359 19.359 0 0 1 5.585 13.633v8.964a1.384 1.384 0 0 0 .54 1.126l18.228 14.807v6.735l-14.568-4.154a1.455 1.455 0 0 0-1.854 1.408v4.693c-.329.4 4.083 6.429 4.271 6.852l-3.1 3.1-3.749-1.88a1.478 1.478 0 0 0-1.314 2.628l4.69 2.344a1.455 1.455 0 0 0 1.689-.282l4.693-4.693a1.455 1.455 0 0 0 .188-1.854l-4.458-6.664v-2.343l14.572 4.153a1.455 1.455 0 0 0 1.854-1.408v-9.339a1.455 1.455 0 0 0-.54-1.15Z" data-name="Path 1215"/><path fill="#e00" d="M31.96 13.982a1.431 1.431 0 0 0-1.455 1.455v9.386a1.455 1.455 0 0 0 2.91 0v-9.386a1.431 1.431 0 0 0-1.455-1.455Z" data-name="Path 1216"/><path fill="#e00" d="M31.96 49.18a1.431 1.431 0 0 0-1.455 1.455v11.733a1.455 1.455 0 1 0 2.91 0V50.635a1.431 1.431 0 0 0-1.455-1.455Z" data-name="Path 1217"/></svg>