<svg xmlns="http://www.w3.org/2000/svg" width="1024" height="1024" viewBox="0 0 1024 1024"><path id="path" style="text-indent:0;text-decoration-line:none;text-decoration-style:solid;text-decoration-color:#000;text-transform:none;block-progression:tb;white-space:normal;isolation:auto;mix-blend-mode:normal;solid-color:#000" fill="#0082c9" d="M512.681 296.07c-93.351.01-171.736 63.929-195.686 149.918-20.904-45.993-66.917-78.588-120.378-78.594-72.773.008-132.608 59.849-132.617 132.628-.014 72.793 59.829 132.645 132.617 132.654 53.467-.007 99.45-32.621 120.35-78.62C340.91 640.058 419.322 703.99 512.685 704c92.84.007 170.84-63.23 195.277-148.5 21.243 45.149 66.55 77.167 119.395 77.173 72.803.013 132.656-59.846 132.644-132.654-.007-72.794-59.856-132.64-132.644-132.628-52.849.006-98.18 32.018-119.422 77.172-24.437-85.266-102.41-148.505-195.25-148.499zm0 77.856c70.106-.005 126.109 55.987 126.115 126.099.004 70.12-56 126.13-126.115 126.125-70.106-.007-126.094-56.014-126.088-126.125.007-70.103 55.99-126.09 126.088-126.099zM196.602 445.25c30.712.004 54.764 24.059 54.767 54.772.005 30.719-24.05 54.795-54.767 54.798-30.718-.004-54.772-24.08-54.766-54.798.004-30.713 24.056-54.769 54.766-54.772zm630.754 0c30.718-.005 54.79 24.052 54.794 54.772.007 30.728-24.07 54.804-54.794 54.798-30.718-.004-54.772-24.08-54.77-54.798.005-30.713 24.058-54.769 54.77-54.772z" color="#000"/></svg>