<?xml version="1.0" encoding="UTF-8"?>
<svg width="512" height="512" viewBox="0 0 512 512" version="1.1" xmlns="http://www.w3.org/2000/svg" xmlns:xlink="http://www.w3.org/1999/xlink"><defs><filter id="a" width="1.097" height="1.477" x="-.048" y="-.238" color-interpolation-filters="sRGB"><feGaussianBlur stdDeviation="4.17"/></filter></defs><g transform="matrix(.9107 .09984 -.09984 .9107 9.33 -19.073)"><path style="marker:none" fill="#555753" d="M102.13 125.793c-.298 0-.59.004-.888.013-11.512-.11-21.506 9.554-23.09 20.747-2.702 14.234 4.43 28.929 15.895 37.27 6.815 5.744 17.148 8.579 25.328 4.042a26.38 26.38 0 0 0 1.184-.67c7.834 15.58 17.511 30.585 31.712 40.837 5.668 3.81 12.85 7.145 19.807 5.148 5.481-2.502 7.432-8.96 7.837-14.517-9.836.643-17.476-6.87-24.002-13.205-9.395-9.558-16.891-20.83-23.05-32.74 2.17-5.017 5.173-10.8 5.056-16.177-.239-7.507.139-19.18-6.171-23.369-5.914-6.871-20.405-7.349-29.618-7.379z" color="#000" enable-background="accumulate" overflow="visible"/><path style="marker:none" fill="#b4b4b4" d="M101.049 130.671c-11.128.021-19.82 8.412-20.515 21.017-.824 14.939 9.894 30.156 23.925 33.976 6.447 1.755 12.34-.12 16.924-4.105 4.592 9.782 23.265 46.498 45.971 49.021 7.28.971 8.74-8.738 8.74-8.738-11.352-.531-31.297-19.083-45.707-46.725-.294-.565-3.933 3.929-4.222 3.356 1.929-5.68 6.755-11.956 7.295-18.015.824-14.94 1.058-23.033-12.974-26.853-2.192-.596-17.377-2.938-19.437-2.934z" color="#000" enable-background="accumulate" overflow="visible"/><path d="M119.438 7.906c-6.525.014-11.512 6.45-10.419 12.772-8.311 61.038-17.271 122.062-24.988 183.135 2.556 10.21 18.508 14.169 24.906 5.593 3.612-12.856 3.513-26.363 6.083-39.504 6.732-50.735 14.652-101.455 20.543-152.214-1.824-6.837-9.69-9.876-16.125-9.782z" style="marker:none" fill="#8f5902" color="#000" enable-background="accumulate" overflow="visible"/><rect style="marker:none" width="18.479" height="199.239" x="115.024" y="-12.858" fill="#fcaf3e" color="#000" enable-background="accumulate" overflow="visible" rx="17.946" ry="6.019" transform="matrix(.97947 .20157 -.1368 .9906 0 0)"/><path style="marker:none" fill="#555753" d="M88.243 117.956c-6.547.155-13.197 6.299-12.784 12.78-.12 3.065 2.305 6.271 3.26 8.88-5.956 1.94-10.638 9.044-8.847 15.068 1.013 4.206 4.839 7.49 7.766 10.517-2.53 6.724 1.164 14.765 7.189 17.73 8.899 5.038 22.384 4.152 29.98-3.238 4.555-4.608 4.2-12.612-.348-17.092-1.31-1.678-3.533-2.695-4.865-4.118.066-2.252-1.176-4.5-1.724-6.396 5.423-3.93 6.232-11.795 3.565-17.594-3.591-9.328-12.925-16.802-23.192-16.537z" color="#000" enable-background="accumulate" overflow="visible"/><path style="marker:none" fill="#b4b4b4" d="M95.948 123.653c-4.427-2.343-11.441-2.527-14.064 2.498-4.574 14.415 6.567 16.626 15.901 22.881-5.706-.507-10.859-5.216-14.007-5.81-4.591-.868-8.436.798-9.196 8.515 2.002 12.06 14.946 12.477 27.17 13.3-5.732 3.992-19.702.154-20.008.825-1.872 4.1.576 9.442 4.36 11.74 7.656 5.157 19.187 5.722 26.047-1.099 4.766-4.484-1.695-17.479-7.282-13.595 2.202-5.272.81-10.728-4.783-12.812 6.693.535 10.301-8.073 7.83-13.2-1.908-5.804-6.37-10.704-11.968-13.243z" color="#000" enable-background="accumulate" overflow="visible"/><g stroke="#555753" stroke-width="8.4"><path fill="#b4b4b4" d="M-1580.833 326c0 24.393-13.805 44.167-30.834 44.167-17.028 0-30.833-19.774-30.833-44.167s13.805-44.167 30.833-44.167c17.03 0 30.834 19.774 30.834 44.167z" color="#000" enable-background="accumulate" transform="matrix(.43141 .12001 -.14644 .4544 864.62 182.001)" style="marker:none" overflow="visible"/></g><path style="marker:none" fill="#555753" d="M108.793 20.898c4.635-3.887 19.574-3.24 26.406 2.448l137.197 14.816-12.273 84.675-137.952-15.65c-6.056-3.424-18.343-4.153-25.412-3.288 2.842-27.642 6.665-54.096 12.034-83.001z" color="#000" enable-background="accumulate" overflow="visible"/><path style="marker:none" fill="#fff" d="M134.593 28.329l131.211 14.595-10.409 74.193c-43.184-5.427-87.055-9.135-130.24-14.562l9.438-74.226zM112.177 26.266c-5.616 26.09-6.47 46.944-9.611 71.385 0-1.854 17.848 1.036 17.848 2.402 1.564.67 11.37-73.248 9.73-73.95 0 0-12.133-5.672-17.967.163z" color="#000" enable-background="accumulate" overflow="visible"/></g><path style="marker:none" fill="#8f5902" d="M312.405 275.942c-5.95.298-13.212.022-17.368 5.023-4.469 6.772-2.841 15.45-2.229 23.075.132 2.477 1.22 5.162.935 7.48-7.802 9.375-12.331 14.365-19.898 23.927 7.535 10.199 19.447 22.676 31.78 27.017.986-9.112 1.988-18.223 2.9-27.343 10.272 14.891 26.459 24.452 42.942 31.156 11.72 4.49 24.793 7.474 37.26 4.44 7.078-2.105 12.995-8.795 12.582-16.448.015-9.016-3.95-17.342-6.992-25.645-9.606-22.33-28.703-40.619-52.042-47.96-9.588-3.217-19.725-4.903-29.87-4.722z" color="#000" enable-background="accumulate" overflow="visible"/><path style="marker:none" fill="#e9b96e" d="M280.27 333.214l17.787-20.95s-5.533-24.507.79-30.04c6.325-5.534 80.637-9.092 98.424 67.592 6.325 39.132-81.822 9.486-91.308-28.856.79-4.348-3.162 32.413-3.162 32.413s-14.23-20.159-22.531-20.159z" color="#000" enable-background="accumulate" overflow="visible"/><path style="marker:none" fill="#555753" d="M433.451 130.583c-21.241.32-40.755 13.048-52.674 30.067-26.47 2.773-34.203 10.75-41.1 31.033-11.39 4.354-25.313 11.707-21.282 25.728-.383 4.181.679 8.548-1.127 12.488-8.447 33.572-7.096 70.157 6.512 102.179 2.515 5.31 5.98 11.678 12.336 12.735 9.14 1.721 17.945-3.114 24.69-8.833 4.558-3.856 9.437-7.577 15.302-9.11 8.536-3.302 19.012-11.725 21.801-20.928 2.827-13.408-4.234-17.626-16.107-19.53-14.763-1.563-30.433 9.687-43.646-8.878 5.802-10.66 15.167-27.436 21.703-37.677 2.765 4.256 5.39 8.959 10.16 9.744 1.544 16.253 20.18 15.595 25.29 12.705 15.398 17.163 55.274 15.67 75.7 13.195 17.138-3.21 35.778-10.95 45.35-26.01 23.844-60.681 1.083-79.734-40.295-106.469-12.844-7.508-27.505-12.769-42.613-12.44z" color="#000" enable-background="accumulate" overflow="visible"/><path style="marker:none" fill="#f8eda6" d="M434.088 134.344c-26.178.37-38.568 15.684-45.096 24.25 0 0 16.986-.165 35.545 6.23-47.716-11.915-83.558 14.892-78.681 25.032 11.507-4.756 41.47.585 39.417 1.497-19.015-.083-67.887-1.72-62.763 33.616-17.33 58.137 3.354 112.351 12.298 115.705 31.942 7.41 32.458-35.717 54.215-42.79 5.875 2.125-10.388 23.382-15.364 25.953-1.549.8 4.052 2.835 9.845-5.188 18.034-17.598 11.902-31.584-10.505-28.51-6.795.975-20.844 1.71-26.178.557-.887 1.238 13.522 4.75 9.707 7.698 0 0-10.09-3.146-12.157-8.068 0 0-.637-.451-.943-.691 2.904 10.838 14.618 17.773 14.618 17.773-13.162-1.315-23.67-24.607-24.347-29.898 0 0 25.834-47.28 25.834-43.367 3.33 11.397 18.234 16.365 32.26 9.562.065-.012-4.028 6.732-17.674 6.415 4.994 17.025 23.81 11.148 37.79-4.858 0 0-1.93 7.984-13.524 15.34 14.91 12.27 84.624 26.276 111.707-10.577-7.524 1.074-57.458 7.894-55.712-.837 11.32-17.608-11.32-75.462-11.32-75.462-4.92-7.425 32.511-17.675 51.056-13.253a181.171 181.171 0 0 0-3.101-2.524c-22.411-17.841-41.39-23.825-56.927-23.605zm62.999 28.676c11.238 13.76 15.232 68.804 14.633 84.659 7.535-11.62 11.103-27.852 8.124-50.1-1.876-14-13.625-26.523-22.757-34.56z" color="#000" enable-background="accumulate" overflow="visible"/><path style="marker:none" fill="#555753" d="M183.234 118.532c-18.46.423-34.812 13.49-42.341 29.843-5.276 10.853-6.319 23.6-4.469 35.326-14.699 5.101-26.682 17.582-30.668 32.685-17.634-1.97-35.774-2.909-53.213.884-6.899 1.462-13.498 4.032-19.797 7.11-4.592 1.332-9.864.687-13.784 3.903-3.74 2.53-5.164 7.285-4.339 11.602 1.361 8.336 7.994 14.495 14.244 19.585 10.712 8.242 24.796 11.726 38.203 9.657 19.874-2.287 37.525-12.667 55.948-19.62 7.74-2.342 16.112-.218 23.901-2.53 3.546-.85 6.991-2.254 10.033-4.31 23.09 18.49 21.128 45.655 14.08 71.745-7.004-5.377-13.607-16.424-22.086-19.133-15.818 4.509-20.855 23.49-30.498 38.219 4.325 3.333 6.526 1.235 10.808 4.622 6.706-8.644 12.973-18.216 19.715-26.858 7.116 5.065 15.368 15.375 21.124 21.92 7.44 46.396 47.347 42.303 84.535 29.33 6.55 5.869 15.659 11.577 24.857 11.53 8.491-1.122 9.949-14.411 12.395-26.411-3.625-4.796-3.423-5.49-8.119-8.416-4.976 8.962-3.905 12.327-8.951 21.25-.974-.73-9.49-8.87-7.97-10.484 20.538-43.328 8.289-74.538-26.822-103.61 17.601-9.513 38.994-8.927 57.747-3.51 1.052.523 3.545.65 3.599 1.559-3.078 4.12-5.907 10-3.122 14.967 3.803 5.818 10.133 9.248 15.576 13.336 11.242 7.395 23.262 13.897 36.15 17.899 19.029-.64 18.737-10.956 10.813-22.167 3.865-1.955 7.88-7.41 2.67-18.105 6.231-15.26-14.16-27.132-27.442-28.534-7.968-.41-15.657 2.247-23.239 4.119-13.758-1.601-27.438-3.592-41.188-5.352 17.105-11.63 31.044-29.407 34.241-50.253 2.297-15.281-2.924-32.494-16.015-41.448-13.16-9.162-30.692-9.082-45.527-4.338-9.689 2.835-18.835 7.407-27.456 12.512-7.552-10.796-20.04-18.937-33.593-18.524z" color="#000" enable-background="accumulate" overflow="visible"/><path style="marker:none" fill="#b4b4b4" d="M183.258 122.317c-25.773.354-50.874 29.857-42.176 63.93-22.205 5.553-32.323 26.977-32.119 34.254-58.695-7.267-70.983 7.277-77.69 8.395-1.678 0-19.545-.562-10.6 16.767 35.216 46.397 89.87-1.827 108.995-1.132 16.428.597 21.408-4.304 24.313-6.214 11.632-12.704 9.588-14.63 14.385-21.943l12.074-15.824c3.052.94-4.18 16.95-9.916 20.186-1.676 4.624-12.944 17.624-12.345 18.218 30.851 24.934 18.943 57.27 14.141 89.662-.396-.336-.869-10.077-1.258-10.4-12.888-10.703-21.81-19.187-21.81-19.187-8.389-1.873-18.821 20.102-26.52 33.297l4.91 2.097 21.242-28.278s17.12 17.78 24.387 26.724c11.726 54.203 65.43 31.525 78.069 26.775.978-.368-7.488-10.3-7.535-12.707 9.268 10.26 19.053 21.383 34.476 24.827 7.97 0 11.409-26.901 11.409-26.901-1.006-2.24-2.49-3.714-4.254-4.742l-9.138 25.294c-5.207-2.392-20.563-20.264-23.33-25.285.231-.419 11.005 8.764 11.227 8.347 27.176-51.074-13.564-89.24-27.063-99.537-.509-.388-10.205 5.156-10.631 4.848-1.366-.987 6.944-7.451 6.645-7.583 31.858-22.277 76.529-3.907 74.295-3.349 0 0-9.691 10.489-5.707 15.175 10.616 12.489 43.201 28.193 49.298 29.006 12.757.038 12.797-7.008 9.084-13.288-2.135-3.613-6.1-6.136-8.538-8.697 16.287 2.377 12.915-12.17 4.13-16.358.056-.611 5.45.429 5.483-.173-.835-25.517-29.343-25.25-47.053-18.493l-53.531-7.134c68.65-37.868 47.397-120.296-23.44-91.875-26.73 7.592-37.668 39.88-39.676 66.987-.455-1.95-1.887-10.077-2.113-11.932-25.241-15.154-35.013-7.406-52.02 5.15 19.517-27.827 40.65-17.047 53.07-7.841-.944-16.587 6.99-29.698 17.322-44.075-1.902-8.143-19.616-17.14-30.492-16.99zm84.317 29.513c9.239.05 16.646 4.678 17.852 17.439-8.737-27.847-54.702-2.972-60.83 20.61 18.178-8.263 16.513 21.618-.637 15.6 1.738 6.735 8.524 7.2 20.458 2.193-34.097 19.034-31.504-18.224-15.505-37.766 7.74-8.43 25.16-18.149 38.662-18.076zm-61.89 72.573c15.851 5.21 20.154 7.369 43.98 0-12.827 5.521-30.084 10.156-36.283 17.003l3.295-7.756-10.993-9.247z" color="#000" enable-background="accumulate" overflow="visible"/><path style="marker:none" fill="#8f5902" d="M52.472 299.264c-6.436.58-13.522.15-19.137 3.772-12.02 9.633-15.555 27.931-9.008 41.777 5.887 13.275 18.123 22.305 30.397 29.354 16.079 8.829 33.735 14.48 51.409 19.236 9.468 2.31 19.191 4.412 28.994 3.927 4.619-.42 9.968-3.198 10.412-8.324.698-6.077-2.974-11.367-4.693-16.968-3.029-7.675-6.34-15.235-9.574-22.827 4.312-3.603 8.621-7.21 12.934-10.812-5.83-7.45-12.277-15.76-22.025-17.852-4.018-1.225-8.528 1.851-8.914 6.014-.664 1.802-1.148 3.661-1.651 5.518-12.745-19.711-35.15-33.815-59.144-32.815z" color="#000" enable-background="accumulate" overflow="visible"/><path style="marker:none" fill="#555753" d="M107.43 218.956c1.958 3.946 6.59 7.078 11.06 5.424 7.54 16.84 30.996 4.487 34.88-10.007 3.83-14.292 5.398-33.065-13.277-27.914-12.742-17.221-39.75 13.043-32.663 32.497z" color="#000" enable-background="accumulate" overflow="visible"/><path style="marker:none" fill="#fff" d="M109.674 196.874c-6.473 7.17-1.849 31.208 10.355 24.429 3.749 19.009 26.14 5.477 29.502-7.072 6.753-25.205-3.414-27.46-10.43-23.577-6.683 3.698-12.487 10.837-18.13 26.697 1.548-10.5 8.727-25.736 16.215-28.887-4.392-8.65-22.807.972-27.512 8.41z" color="#000" enable-background="accumulate" overflow="visible"/><path style="marker:none" d="M138.534 212.694c-1.863-.095-3.584 2.089-3.865 4.863-.281 2.775.971 5.104 2.834 5.2 1.863.094 3.585-2.09 3.866-4.864.009-.087-.006-.166 0-.252-.362.399-.886.671-1.546.671-1.1 0-2.01-.71-2.01-1.593 0-.884.91-1.593 2.01-1.593.549 0 1.03.171 1.391.461-.396-1.65-1.373-2.826-2.68-2.893zM119.214 206.165c-1.517-.069-2.88 2.139-3.061 4.917-.182 2.778.877 5.089 2.394 5.158 1.516.07 2.88-2.138 3.06-4.916.006-.086-.006-.166-.004-.251-.287.403-.709.683-1.246.692-.893.015-1.647-.682-1.662-1.565-.015-.884.714-1.606 1.608-1.621.447-.007.842.157 1.14.442-.35-1.644-1.165-2.807-2.23-2.856z" color="#000" enable-background="accumulate" overflow="visible"/><path style="marker:none" fill="#a40000" d="M170.463 220.816c-1.2 2.053-2.858 5.707-4.358 6.692 14.591 15.838 16.447 50.522 37.655 30.222 16.354-20.042-14.708-39.264-28.882-42.09-3.258 1.494-2.18 2.23-4.415 5.176z" color="#000" enable-background="accumulate" overflow="visible"/><path style="marker:none" fill="#ef2929" d="M173.601 216.605c-.673.11-1.31 1.181-3.219 4.367 11.764-2.284 17.289 11.652 15.8 11.838l-16.133-11.424c-2.215 2.878-3.965 5.983-4.193 5.983 13.523 6.325 18.465 37.028 27.247 32.667 13.238-6.574 16.495-29.066-18.582-43.32-.04-.013-.87-.12-.92-.111z" color="#000" enable-background="accumulate" overflow="visible"/><path style="marker:none" d="M39.864 213.438c3.01 16.665-3.307 31.171-14.108 32.402C14.955 247.07 3.759 234.558.75 217.894c-3.01-16.665 3.307-31.172 14.108-32.402 10.801-1.23 21.997 11.281 25.006 27.946z" color="#000" enable-background="accumulate" overflow="visible"/><path style="marker:none" fill="#e9b96e" d="M111.137 338.39s-20.011-44.787-72.583-33.72c-6.72-1.185-50.682 53.138 65.22 84.194 36.354 9.741 39.133 2.767 37.947-3.162s-15.02-37.55-15.02-37.55l12.253-10.278s-11.463-15.811-20.554-13.44c-1.16 1.16-3.282 8.052-4.46 12.636-.16.629 4.687 11.24 4.542 11.809-.6 2.354-7.345-10.489-7.345-10.489z" color="#000" enable-background="accumulate" overflow="visible"/><path style="marker:none" fill="#c17d11" d="M35.875 313.017c15.523-8.01 34.328 31.997 58.482 48.738 19.674 13.634 40.836 20.984 39.933 27.982-17.04 6.895-137.482-28.584-98.415-76.72z" color="#000" enable-background="accumulate" opacity=".6" overflow="visible"/><path style="marker:none" fill="#fff" d="M22.9 208.866c0 8.242-4.178 14.924-9.33 14.924-5.153 0-9.33-6.682-9.33-14.924 0-8.242 4.177-14.924 9.33-14.924 5.152 0 9.33 6.682 9.33 14.924z" color="#000" enable-background="accumulate" opacity=".4" overflow="visible"/><path style="marker:none" fill="#fff" d="M-1473.705 625.611c-.76.652-3.193 20.95-.882 20.025 39.272-15.714 100.123-28.411 173.185-30.94-14.473-3.62-111.652-18.66-172.303 10.915z" color="#000" enable-background="accumulate" filter="url(#a)" opacity=".4" overflow="visible" transform="translate(598.383 -9.648) scale(.37731)"/><path style="marker:none" fill="#555753" d="M104.377 194.537s-10.694 11.605-.227 20.48c-2.73-7.51-2.276-15.702.227-20.48z" color="#000" enable-background="accumulate" overflow="visible"/><path style="marker:none" fill="#fff" d="M490.885 162.76c-14.845.224-30.037 2.505-43.155 9.704-.793.436-2.003 1.518-1.038 2.464 7.216 20.264 14.034 41.22 13.82 62.976a37.992 37.992 0 0 1-2.583 11.39c3.885 1.353 8.15.905 12.204 1.191 12.956.04 25.951-1.77 38.698-3.372-.273-1.76-.217-3.551-.16-5.365-.438-21.338-2.717-42.772-8.011-63.424-1.6-5.204-3.278-10.844-7.299-14.738-.712-.52-1.583-.879-2.476-.826z" color="#000" enable-background="accumulate" overflow="visible"/><path style="text-align:center;line-height:100%" fill="#555753" d="M470.96 240.825c-.64-2.441-.337-6.908-.337-6.908s14.494-3.801 11.286-4.413l-12.463-3.13c-1.184-2.623.54-6.824.54-6.824s19.57-.045 26.527-.444c1.724 2.866-.574 4.753-.574 4.753-4.522.26-15.452.331-19.974.59l13.855 3.472c.419 6.086-8.467 5.028-12.082 7.988 5.874-.337 13.437 2.003 20.826 2.003 3.666.734 1.065 5.204.027 4.996-6.51.374-21.875-1.325-27.63-2.083zm19.362-37.304c.567 2.36-.275 5.168 1.433 7.153 2.044.565 5.171 1.146 4.36 4.232-2.825 2.8-28.275-3.858-28.275-3.858-3.698-2.3.037-5.674 3.613-7.095 0 0 16.128-4.352 22.778-6.623 1.429 2.956-.406 6.572-3.91 6.191zm-4.527 6.693c.865-2.941.076-5.418.076-5.418-1.216.431-12.066 2.275-10.997 3.37 2.887.557 8.035 1.491 10.921 2.048zm-21.401-13.131c-1.975-3.037 4.522-5.036 4.522-5.036 6.617-.38 15.12-1.702 21.737-2.081 1.975 3.036-3.204 5.412-3.204 5.412-6.617.38-16.438 1.325-23.055 1.705zm-.61-10.363c-3.364-7.492 16.102-5.517 21.034-5.896.474-2.805-5.59-12.144-1.996-13.73 4.27-.11 6.583 17.238 5.805 18.287-7.779.446-17.065.893-24.844 1.34z" font-family="Bitstream Vera Sans" font-size="65.092" font-weight="400" text-anchor="middle"/><path d="M-1047.084 507.76c-.76.652-1.855 22.315-.882 20.024 40.45-95.263 103.07-157.163 184.087-161.755-71.927 2.57-150.25 9.626-183.205 141.731z" style="marker:none" fill="#fff" color="#000" enable-background="accumulate" filter="url(#a)" opacity=".2" overflow="visible" transform="translate(598.383 -9.648) scale(.37731)"/></svg>