<svg xmlns="http://www.w3.org/2000/svg" width="682.667" height="682.667" version="1.0" viewBox="0 0 512 512"><path fill="#FF6600" d="M196 .9c-19.9 6.5-38.3 36.6-51.9 84.8-6.4 22.7-12 55.4-10 57.9 1.2 1.4 21.8 3.9 22.9 2.8.5-.5 1.8-3.4 3-6.4 3.9-10.1 14-28.3 23.5-42.5 12-17.9 23.8-32.6 38.3-47.6l11.5-12-.6-7.8c-.9-13.5-6.1-21.8-16.8-26.6C209.5.7 200.4-.6 196 .9z"/><path fill="#FF6600" d="M273.5 23C261 25.6 246.9 35.1 229 53c-27.9 27.7-52.5 63.9-64 93.6-1.6 4.3-3.5 8.1-4.1 8.4-.6.4-3.8.1-7.2-.7-9.4-2-31.9-2.8-41.7-1.4-30.1 4.4-54.7 20.7-72.7 48.2-11 16.9-20.6 40.7-21.9 54.5-2.2 24.2 16.9 46.6 48.1 56 8.1 2.4 10.6 2.7 24 2.7s16-.3 24-2.7c10.5-3.1 21.8-8.3 27.9-12.7 2.4-1.7 5.2-2.9 6.2-2.7 2.3.4 3 3.4 1.2 5.5-2.3 2.9-12.7 9.1-20 11.9-8.1 3.2-8.5 3.8-12 18.2-2.7 11.2-2.9 31.8-.3 43.7 3.7 17.7 8.5 29.2 20.7 49.7 7.3 12.1 10.1 19.5 11.3 29 1.2 9.3.7 9.8-8.4 9.8-9.7 0-17.1 1.4-22.7 4.1-8.4 4.3-15.7 14.1-18.4 25.2-1.5 5.9-.9 16.5 1.1 17.8.8.5 19 .8 42.4.6l41-.2.6-10c.7-11.3 2-16.8 5.6-23.8 5.4-10.7 14.4-17.3 26.7-19.6 3.3-.6 14.7-1.1 25.3-1.1 23.4 0 23.9-.3 14.5-8.6-11.1-9.9-20.2-24.3-23.8-37.5-3.6-13.4-1.8-32.3 4.3-44.3 5.7-11.3 18.9-21.7 31.9-25.1 8.3-2.2 24.1-2.3 26.2-.1 1.3 1.3 1.4 2 .6 3.4-.9 1.4-3.2 1.8-12.5 2.3-15.8.9-22.1 3.3-31.1 11.7-8.1 7.5-12.1 15.8-13.9 28.7-3.3 23.8 10.6 48.9 36.4 65.9 7.1 4.6 8.8 6.2 8.5 7.9-.3 2.2-.4 2.2-33.3 2.7-31.2.5-33.3.7-38.7 2.8-5.9 2.4-12.2 8.2-15.3 14.2-2.2 4.3-4.5 15.3-4.5 22.2 0 9.7-7.9 8.9 83.4 8.6 78.1-.3 80.3-.4 87.6-2.5 26.5-7.5 41.2-23.1 48.4-51.5 7.7-30.2 5.7-82-4.4-112.9-10.8-33-32.3-59.5-63.7-78.3-30.1-18-77.2-31.7-124-36.2-4-.3-7.7-1.2-8.1-1.8-.5-.6-1.2-6.1-1.5-12.1-.8-15.2-4.1-25.5-11.5-36.7-1.3-2.1-2.2-4.4-1.9-5.2.3-.8 3.2-2.8 6.5-4.6l6-3.2 6.8-15c15-33.2 29.5-56.1 45.8-72.3 8.9-8.9 12.7-11.9 19.2-15.3 9.5-4.9 19.2-7.6 23.5-6.7 4 .9 5.9-.9 5.9-5.4 0-14.2-12.4-27.9-26.5-29.4-2.7-.3-6.8-.2-9 .3zM107.3 199c3 2.4 5.1 8 4.2 11.2-2 6.6-9.7 10.3-15.3 7.4-4.3-2.2-6.2-5.4-6.2-10.4 0-6.2 4-10.2 10.3-10.2 2.9 0 5.3.7 7 2z"/><path fill="#FF6600" d="M294 65.6c-10.8 2.9-24.6 12.6-34.6 24.4-7.8 9.1-20.9 29.8-29.5 46.5-7.2 14-7.9 15.9-6.6 17.3 1.8 1.8 3.1 1 18.2-11.3 25.7-21 47.8-45.4 59-65.1 4.7-8.3 5.5-11.8 2.9-12.8-2.1-.8-3-.7-9.4 1zM467.5 386.4c-11.3 2.8-25.1 12.7-37.8 27l-7.4 8.3-.6 10.7c-.4 5.9-1.7 15.3-2.8 20.9-1.2 5.6-2.2 11.1-2.3 12.2-.3 4.9 24.6 9.3 37.4 6.6 22.2-4.8 38.3-26 40.6-53.6 1.4-15.8-4.9-29.7-14.7-32.5-4.2-1.2-6.1-1.2-12.4.4z"/></svg>