<?xml version="1.0" encoding="UTF-8"?>
<svg width="60px" height="93px" viewBox="0 0 60 93" version="1.1" xmlns="http://www.w3.org/2000/svg" xmlns:xlink="http://www.w3.org/1999/xlink">
    <g stroke="none" stroke-width="1" fill="none" fill-rule="evenodd">
        <g fill-rule="nonzero">
            <path d="M17.6,92.3 C11.2,87.3 10.3,80 9.5,72.8 C9.2,70.1 9.3,67.4 9.4,64.7 C9.5,62.3 10.4,59.8 7.7,58.1 C7.2,57.8 6.9,56.6 7.1,56.1 C8.4,53.1 6,52.2 4.3,50.8 C0.8,47.9 0,44.7 1.7,40.5 C2.4,38.8 2.7,37.2 3,35.4 C3.8,28.8 7.2,23.7 12.7,20 C14.2,19 14.9,17.9 15.3,16.1 C17.1,5.1 25.2,-0.7 35.2,1.3 C39.5,2.2 42.4,5 44.4,8.7 C45.5,10.6 46.1,12.7 46.6,14.9 C48.2,21.2 49.7,27.3 55.1,31.8 C59.2,35.2 60,40.1 58.6,45.3 C57.3,50.2 57.5,55.2 58,60.2 C58.8,69.6 56.2,78.2 51.7,86.2 C49.4,90.4 45.9,90.8 42.2,87.6 C37.1,83.3 37.1,83.3 31.3,86.3 C27.2,88.4 23.4,91 18.9,92.5 C18.4,92.3 18,92.3 17.6,92.3 L17.6,92.3 Z" fill="#08272C"></path>
            <path d="M46.9,78.1 C45.8,77.3 45,78 44.1,78.3 C37,81.2 29.9,84.2 23.2,88.1 C18.5,90.9 16.8,90.3 14.4,85.3 C10.7,77.7 10.7,69.6 11.3,61.4 C11.4,60.2 12.1,60.3 12.9,60.1 C20.3,58.5 22.8,54.8 21.6,47.3 C21.4,46.5 21.7,45.9 22,45.3 C25.2,37.7 23.6,30.5 17.5,25.2 C16.6,24.5 16.5,23.7 16.4,22.8 C16.2,18.7 16.6,14.6 18.3,10.9 C20.8,5.4 25,2.2 31.3,2.3 C37.6,2.3 42.1,5.4 43.6,11.1 C47,24.7 54,37.1 55.6,51.2 C56.9,62.4 56.6,73.3 50.9,83.5 C49.9,85.4 49,87.7 46.2,87.4 C43.3,87 42,84.5 40.3,82.7 C39.5,81.8 40.8,81.7 41.3,81.3 C43.1,80.2 45.4,80 46.9,78.1 L46.9,78.1 Z" fill="#FFFFFF"></path>
            <path d="M15.1,41.9 C15.8,43.8 17.2,44.4 18.2,45.4 C20.8,48.2 21.3,50.8 19.6,54 C18.2,56.6 14.2,58.9 11.6,58.5 C10.3,58.3 9.3,57.8 9,56.6 C8.7,55.7 8.4,54.6 9.8,54 C11.2,53.4 10.2,52.7 9.5,52.3 C8.1,51.3 6.6,50.5 5.4,49.5 C1.7,46.5 1.4,42.2 4.8,38.9 C7.1,36.6 9.9,34.6 12.4,32.3 C13.8,31 14.5,31.6 15.1,33 C15.9,35 16.8,37 17.4,39.1 C17.8,40.6 19.1,43.1 15.1,41.9 Z" fill="#FFFFFF"></path>
            <path d="M4.6,35.7 C5.9,29.5 8.6,24.7 13.9,21.4 C16.1,27.5 14.1,29.1 4.6,35.7 Z" fill="#23A0BC"></path>
            <path d="M20.3,44.7 C19.4,44.2 19.4,43.6 19.5,43 C20.1,38.6 18.4,34.8 16.2,31.2 C15.4,29.9 14.8,28.8 16.4,27.8 C18.2,26.6 18.4,28.7 19,29.5 C22.5,34.4 22.9,40.2 20.3,44.7 Z" fill="#229EBB"></path>
            <path d="M52.9,32.3 C57.2,35.8 58.7,40 56.6,45.4 C55.3,40.9 54.1,36.6 52.9,32.3 Z" fill="#F1F2F2"></path>
            <path d="M42.8,11.6 C41.2,11.7 40,11.8 38.8,11.9 C40.2,9.4 40.5,9.4 42.8,11.6 Z" fill="#3F595E"></path>
            <path d="M27.3,14 C28.6,11.8 29.9,11.9 31.7,13.2 C30.1,13.4 29,13.7 27.3,14 Z" fill="#09282E"></path>
        </g>
    </g>
</svg>