<?xml version="1.0" encoding="UTF-8"?>
<svg width="136px" height="137px" viewBox="0 0 136 137" version="1.1" xmlns="http://www.w3.org/2000/svg" xmlns:xlink="http://www.w3.org/1999/xlink">
    <g stroke="none" stroke-width="1" fill="none" fill-rule="evenodd">
        <g transform="translate(0.421875, 0.226562)" fill="#FFFFFF" fill-rule="nonzero">
            <path d="M6.76757813,53.0644531 L61.6523438,82.6171875 C63.5019531,83.6132812 65.5410156,84.1113281 67.578125,84.1113281 C69.6152344,84.1113281 71.6542969,83.6132812 73.5039062,82.6171875 L128.388672,53.0644531 C137.154297,48.3457031 137.154297,35.7714844 128.388672,31.0527344 L73.5039062,1.5 C71.6542969,0.50390625 69.6152344,0.005859375 67.578125,0.005859375 C65.5410156,0.005859375 63.5019531,0.50390625 61.6523438,1.5 L6.76757813,31.0527344 C-1.99804687,35.7734375 -1.99804687,48.3457031 6.76757813,53.0644531 Z"></path>
            <path d="M128.388672,65.4316406 L67.578125,98.1757812 L6.76757813,65.4316406 C4.88476562,64.4179688 3.40625,63.0410156 2.33203125,61.4570312 C-1.59179688,67.2421875 -0.115234375,75.7890625 6.76757813,79.4941406 L61.6523437,109.046875 C65.3517123,111.039042 69.8045377,111.039042 73.5039062,109.046875 L128.388672,79.4941406 C135.269531,75.7890625 136.748047,67.2421875 132.824219,61.4570312 C131.75,63.0390625 130.271484,64.4160156 128.388672,65.4316406 L128.388672,65.4316406 Z"></path>
            <path d="M128.388672,90.4316406 L67.578125,123.175781 L6.76757813,90.4316406 C4.88476562,89.4179688 3.40625,88.0410156 2.33203125,86.4570312 C-1.59179688,92.2421875 -0.115234375,100.789062 6.76757813,104.494141 L61.6523437,134.046875 C65.3517123,136.039042 69.8045377,136.039042 73.5039062,134.046875 L128.388672,104.494141 C135.269531,100.789062 136.748047,92.2421875 132.824219,86.4570312 C131.75,88.0390625 130.271484,89.4160156 128.388672,90.4316406 L128.388672,90.4316406 Z"></path>
        </g>
    </g>
</svg>