<svg xmlns="http://www.w3.org/2000/svg" viewBox="0 0 48 48"><path fill="#01A88D" fill-rule="evenodd" d="M33.49 42.03c.409-.607.691-1.119.846-1.537.155-.418.232-.82.232-1.208 0-.757-.198-1.354-.594-1.789-.396-.434-.938-.652-1.628-.652a3.66 3.66 0 0 0-1.213.207 5.593 5.593 0 0 0-1.253.646v1.485c.818-.543 1.503-.814 2.053-.814.259 0 .456.086.594.26.138.171.207.421.207.748 0 .396-.09.805-.271 1.227-.181.422-.485.947-.91 1.575a54.349 54.349 0 0 1-1.854 2.52v1.291h5.141V44.53h-3.216c.835-1.06 1.457-1.893 1.866-2.5Zm-5.632-.394c-.263-.24-.618-.482-1.065-.723l-.698-.375c-.378-.206-.635-.396-.768-.568-.134-.172-.2-.392-.2-.659 0-.319.103-.568.309-.749.207-.18.492-.27.853-.27.534 0 1.149.128 1.847.386V37.31a4.799 4.799 0 0 0-2.028-.465c-.543 0-1.022.105-1.44.316a2.428 2.428 0 0 0-.989.905c-.241.392-.361.85-.361 1.375 0 .57.138 1.051.413 1.447.276.396.733.767 1.369 1.111l.699.374c.352.19.604.377.754.562.151.185.227.411.227.68 0 .36-.108.638-.323.832-.215.193-.529.29-.943.29-.284 0-.627-.04-1.027-.123-.4-.082-.76-.183-1.078-.303v1.356c.275.155.615.28 1.02.375.405.094.809.142 1.214.142.93 0 1.66-.239 2.19-.717.529-.478.794-1.126.794-1.944 0-.422-.063-.782-.188-1.078a2.298 2.298 0 0 0-.581-.808Zm-7.859.93-.814-3.707-.788 3.707h1.602Zm.259-5.528 2.466 8.951h-1.989l-.465-2.13h-2.143l-.452 2.13h-1.9l2.481-8.95h2.002Zm25.351-26.146-8.611-8.61a1.03 1.03 0 0 0-1.414 0l-8.611 8.61a.998.998 0 0 0-.216 1.09.998.998 0 0 0 .923.617h4.382v11.917a1 1 0 0 0 1 1h2.968l-6.197 6.197-6.197-6.197h2.968a1 1 0 0 0 1-1v-7.535h-2v6.535h-4.383a.998.998 0 0 0-.923.617.998.998 0 0 0 .216 1.09l8.612 8.611a.997.997 0 0 0 1.414 0l8.611-8.61a1 1 0 0 0-.707-1.708h-4.382V11.6a1 1 0 0 0-1-1h-2.968l6.197-6.197 6.197 6.197H39.52a1 1 0 0 0-1 1v7.611h-2.229v2h5.459v22.757h-2.294v2h3.294a1 1 0 0 0 1-1V20.21a1 1 0 0 0-1-1h-2.23V12.6h4.382a.999.999 0 0 0 .707-1.708ZM9.08 43.967h2.455v2H6.152A3.156 3.156 0 0 1 3 42.814V12.676a1 1 0 0 1 1-1h11.922c.309 0 .602.143.792.388l2.192 2.841h4.469v2h-4.96c-.31 0-.603-.144-.792-.389l-2.193-2.84H5v29.138a1.153 1.153 0 0 0 2.305 0V20.21a1 1 0 0 1 1-1h15.07v2H9.305v21.604c0 .408-.083.795-.225 1.153Z"/></svg>