<svg xmlns="http://www.w3.org/2000/svg" viewBox="0 0 48 48"><path fill="#01A88D" fill-rule="evenodd" d="M30.278 39.832c0-.482-.088-.848-.265-1.098-.176-.249-.432-.374-.767-.374h-.839v2.944h.84c.334 0 .59-.125.766-.375.177-.249.265-.616.265-1.097Zm1.078-2.059c.47.503.703 1.19.703 2.059 0 .869-.234 1.555-.703 2.059-.47.503-1.099.754-1.89.754h-1.059v3.318h-1.769v-8.945h2.827c.792 0 1.421.251 1.891.755Zm-11.83.677h2.142v7.513h1.807V38.45h2.143v-1.432h-6.093v1.432Zm-5.408 7.513h1.806v-3.769h2.234v-1.382h-2.234v-2.413h2.853v-1.381h-4.659v8.945Zm31.464-35.065-8.606-8.605a.999.999 0 0 0-1.414 0l-8.605 8.605a1 1 0 0 0 .707 1.707h4.38V24.513a1 1 0 0 0 1 1h2.963l-6.192 6.191-6.19-6.191h2.964a1 1 0 0 0 1-1v-7.53h-2v6.53h-4.378a.998.998 0 0 0-.707 1.707l8.604 8.605a.997.997 0 0 0 1.414 0l8.606-8.605a.998.998 0 0 0 .216-1.09.998.998 0 0 0-.923-.617h-4.378V11.605a1 1 0 0 0-1-1h-2.965l6.191-6.191 6.192 6.191h-2.965a1 1 0 0 0-1 1v7.605H36.27v2h5.454v22.74h-8.376v2h9.376a1 1 0 0 0 1-1V20.21a1 1 0 0 0-1-1h-2.227v-6.605h4.38a1 1 0 0 0 .706-1.707ZM9.077 43.95h2.453v2H6.151a3.155 3.155 0 0 1-3.15-3.151V12.681a1 1 0 0 1 1-1h11.913c.31 0 .602.143.792.388l2.19 2.839h4.465v2h-4.956a1 1 0 0 1-.792-.388l-2.19-2.839H5v29.118a1.152 1.152 0 0 0 2.302 0V20.21a1 1 0 0 1 1-1h15.06v2H9.301v21.589c0 .407-.084.794-.225 1.151Z"/></svg>