<svg xmlns="http://www.w3.org/2000/svg" viewBox="0 0 18 18"><defs><linearGradient id="a" x1="9" x2="9" y1="16.686" y2="13.377" gradientUnits="userSpaceOnUse"><stop offset=".001" stop-color="#37c2b1"/><stop offset="1" stop-color="#3cd4c2"/></linearGradient><linearGradient id="b" x1="8.985" x2="8.985" y1="779.158" y2="791.108" gradientTransform="matrix(1 0 0 -1 0 791.516)" gradientUnits="userSpaceOnUse"><stop offset="0" stop-color="#0078d4"/><stop offset=".156" stop-color="#1380da"/><stop offset=".528" stop-color="#3c91e5"/><stop offset=".822" stop-color="#559cec"/><stop offset="1" stop-color="#5ea0ef"/></linearGradient></defs><path fill="url(#a)" d="M18 16.686H0l3.332-3.149a.583.583 0 0 1 .4-.16H14.68a.583.583 0 0 1 .438.2L18 16.686Z"/><path fill="#3cd4c2" d="M0 16.686h18v.41a.584.584 0 0 1-.586.586H.586A.586.586 0 0 1 0 17.096v-.41Z"/><path fill="url(#b)" d="M17.43 8.618a3.78 3.78 0 0 0-3.29-3.64A4.772 4.772 0 0 0 9.22.408a4.908 4.908 0 0 0-4.68 3.19 4.525 4.525 0 0 0-4 4.35A4.593 4.593 0 0 0 2 11.175a4.597 4.597 0 0 0 3.321 1.233h8.309a3.84 3.84 0 0 0 3.8-3.79Z"/><path fill="#f2f2f2" d="M6.36 6.868 9 4.278a.295.295 0 0 1 .332-.067.3.3 0 0 1 .098.067L12 6.868a.135.135 0 0 1 .045.07.131.131 0 0 1-.063.145.13.13 0 0 1-.082.015h-1.62a.153.153 0 0 0-.14.14l-.021 5.072a.11.11 0 0 1-.11.11h-1.74a.11.11 0 0 1-.11-.11l.021-5.072a.142.142 0 0 0-.037-.096.137.137 0 0 0-.093-.044h-1.6a.131.131 0 0 1-.128-.082.129.129 0 0 1-.005-.08.137.137 0 0 1 .043-.068Z"/></svg>