<svg xmlns="http://www.w3.org/2000/svg" fill="none" viewBox="0 0 18 18"><g clip-path="url(#a)"><path fill="#83B9F9" d="M10.381 9.7a4.89 4.89 0 0 0-1.8 3.629v.007c-.207.005-.415.006-.625.006-4.311 0-7.819-.81-7.927-1.817a.4.4 0 0 1 0-.048.716.716 0 0 1 .331-.536c.976-.769 4.008-1.331 7.6-1.331.84.001 1.657.032 2.421.09ZM.005 6.681c0 1.03 3.55 1.865 7.929 1.865 4.379 0 7.929-.835 7.929-1.865s-3.55-1.866-7.929-1.866c-4.379 0-7.929.835-7.929 1.866Zm0-4.815c0 1.03 3.55 1.865 7.929 1.865 4.379 0 7.929-.835 7.929-1.865S12.313 0 7.934 0C3.555 0 .005.835.005 1.866Z"/><path fill="#0078D4" d="M9.739 16.671a.236.236 0 0 1-.169.388h-.005c-.206.01-.412.015-.623.023-.324.01-.652.014-.985.014C3.579 17.1.03 16.262.03 15.229v-3.757c0 .03.003.062.01.092.205.966 3.543 1.739 7.678 1.768h.487l.377-.005V13.5a4.893 4.893 0 0 0 1.157 3.171Zm6.123-10.013C15.813 7.68 12.282 8.5 7.935 8.5 3.588 8.5.089 7.692.013 6.673V10.4a.725.725 0 0 0 .345.544c.99.764 4.01 1.32 7.583 1.32.27 0 .535 0 .8-.01a4.92 4.92 0 0 1 1.64-2.554 4.906 4.906 0 0 1 5.142-.681.237.237 0 0 0 .339-.214V6.658ZM7.934 3.689C3.6 3.689.089 2.877.013 1.858v3.724c0 1.031 3.549 1.866 7.929 1.866 4.287 0 7.776-.8 7.921-1.8V1.823c-.002 1.031-3.551 1.866-7.929 1.866Z"/><path fill="#fff" d="M18 13.5a4.5 4.5 0 1 1-9 0v-.18c.013-.366.072-.73.176-1.081A4.5 4.5 0 0 1 18 13.5Z"/><path fill="#F78D1E" d="M13.125 18c2.831 0 5.126-2.239 5.126-5s-2.295-5-5.126-5C10.295 8 8 10.239 8 13s2.295 5 5.125 5Z"/><path fill="#fff" d="M13.146 17.354c2.464 0 4.462-1.95 4.462-4.354 0-2.405-1.998-4.354-4.462-4.354-2.465 0-4.463 1.95-4.463 4.354s1.998 4.354 4.463 4.354Z"/><path fill="#B3B3B3" d="m14.988 14.335-1.297-1.264a.307.307 0 0 0-.233-.085.288.288 0 0 0 .06-.142V9.623a.305.305 0 0 0-.092-.217.32.32 0 0 0-.222-.09h-.059a.32.32 0 0 0-.221.09.304.304 0 0 0-.093.217v3.221c0 .081.034.159.093.216.059.057.138.09.221.09h.044a.296.296 0 0 0 .017.394l1.297 1.265a.317.317 0 0 0 .443 0l.042-.04a.303.303 0 0 0 0-.434Z"/><path fill="#666" d="M13.148 13.701a.718.718 0 0 0 .727-.708.718.718 0 0 0-.727-.71.718.718 0 0 0-.727.71c0 .391.326.708.727.708Z"/></g><defs><clipPath id="a"><path fill="#fff" d="M0 0h18v18H0z"/></clipPath></defs></svg>