<svg xmlns="http://www.w3.org/2000/svg" fill="none" viewBox="0 0 18 18"><path fill="url(#a)" d="M.02 5.557c.095.177.28.32.517.402l8.705 3.413c.332.13.702.203 1.08.21.378.009.753-.047 1.096-.163l6.124-2.635a.67.67 0 0 0 .245-.147.431.431 0 0 0 .125-.212.24.24 0 0 0 0-.08.627.627 0 0 0-.191-.283.966.966 0 0 0-.347-.19l-8.689-3.41a3.16 3.16 0 0 0-1.08-.211 3.223 3.223 0 0 0-1.096.163L.366 5.046a.56.56 0 0 0-.305.208.327.327 0 0 0-.04.303Z"/><path fill="#003067" d="m12.05 15.146-.02.022-.503.215-.022.01a3.222 3.222 0 0 1-1.096.165 3.161 3.161 0 0 1-1.08-.211L.624 11.935c-.426-.173-.606-.41-.52-.617l-.092-5.76c.094.176.279.32.516.4l8.705 3.414c.332.13.702.203 1.08.21.378.009.753-.047 1.096-.163l.025-.01 6.1-2.627a.665.665 0 0 0 .243-.147.428.428 0 0 0 .123-.212l.097 5.896a.24.24 0 0 1 0 .08.441.441 0 0 1-.127.212.68.68 0 0 1-.244.147l-.223.095-5.354 2.293Z"/><path fill="#32B0E7" fill-rule="evenodd" d="M4.317 8.737 1.44 7.531v.464l2.878 1.207v-.465Zm0 1.183L1.452 8.72v.464l2.865 1.201V9.92Zm.48.666v-.465l3.494 1.465v.465l-3.494-1.465Zm-.48.524-2.865-1.2v.463l2.865 1.202v-.465Zm.48.666v-.464l3.494 1.465v.464l-3.494-1.465Zm0-2.373v-.465l3.482 1.46v.465l-3.482-1.46Z" clip-rule="evenodd"/><path fill="#50E6FF" d="M15.615 9.604c-.23-.097-.23-.41 0-.701.23-.29.622-.451.84-.345.217.106.226.41 0 .699-.228.288-.62.444-.84.347Z"/><defs><linearGradient id="a" x1="8.958" x2="8.958" y1="2.25" y2="9.583" gradientUnits="userSpaceOnUse"><stop stop-color="#5EA0EF"/><stop offset=".18" stop-color="#559CEC"/><stop offset=".47" stop-color="#3C91E5"/><stop offset=".84" stop-color="#1380DA"/><stop offset="1" stop-color="#0078D4"/></linearGradient></defs></svg>