<svg xmlns="http://www.w3.org/2000/svg" fill="none" viewBox="0 0 18 20"><path fill="url(#a)" d="m12.752 8 1.096-.09c.251-.021.47.166.49.416.02.251-.167.471-.418.492l-1.283.105a.46.46 0 0 1-.332-.106l-1.386-1.179a.497.497 0 0 1-.147-.455l.421-1.706-1.172-.997a.455.455 0 0 1 .591-.695l1.172.997 1.616-.69a.484.484 0 0 1 .473.071l1.386 1.179c.09.076.15.19.159.31l.102 1.284c.02.251-.167.471-.418.492a.454.454 0 0 1-.49-.417l-.087-1.096-1.029-.875-1.406.601-.366 1.484L12.752 8Z"/><path fill="url(#b)" d="m11.59 12.333-.01-.011c-.482-.43-2.175-1.74-2.83-1.74L6.137 12.72l1.018 1.429c-.01.064-.01.129-.01.193v2.221c0 .301.235.538.535.538h4.287c.3 0 .536-.237.536-.538v-2.22a2.63 2.63 0 0 0-.911-2.01Z"/><path fill="url(#c)" d="M10.22 5.154 7.21 8.348a.532.532 0 0 1-.684.08l-1.6-1.053a1.082 1.082 0 0 0-1.373.17.536.536 0 0 1-.778-.74l4.701-5.009h.001a.536.536 0 0 1 .757-.021c.551.52-.363.873-.254 1.644.084.586.627.996 1.212.913l.563-.08a.538.538 0 0 1 .465.901Z"/><path fill="url(#d)" d="M13.036 16.026h-6.43a2.686 2.686 0 0 0-2.679 2.687c0 .297.24.537.536.537H15.18c.296 0 .536-.24.536-.537a2.686 2.686 0 0 0-2.68-2.687Z"/><path fill="url(#e)" d="M11.683 12.603a2.631 2.631 0 0 0-1.76-.671c-1.329 0-2.57 1.012-2.697 2.568l-4.69-4.218C1.49 9.287 1.6 7.7 2.612 6.883a2.153 2.153 0 0 1 2.784.056l6.287 5.664.017.015-.017-.015Z"/><path fill="url(#f)" d="M9.206 5.916 7.913 4.767a2.312 2.312 0 0 1-.189-3.26 2.307 2.307 0 0 1 3.26-.198l1.294 1.148c.238.212.26.577.047.816l-2.304 2.594a.577.577 0 0 1-.815.049Z"/><defs><linearGradient id="a" x1="9.62" x2="14.797" y1="3.54" y2="7.942" gradientUnits="userSpaceOnUse"><stop stop-color="#005BA1"/><stop offset=".07" stop-color="#0060A9"/><stop offset=".36" stop-color="#0071C8"/><stop offset=".52" stop-color="#0078D4"/><stop offset=".64" stop-color="#0074CD"/><stop offset=".82" stop-color="#006ABB"/><stop offset="1" stop-color="#005BA1"/></linearGradient><linearGradient id="b" x1="6.105" x2="12.471" y1="13.841" y2="13.841" gradientUnits="userSpaceOnUse"><stop stop-color="#005BA1"/><stop offset=".07" stop-color="#0060A9"/><stop offset=".36" stop-color="#0071C8"/><stop offset=".52" stop-color="#0078D4"/><stop offset=".64" stop-color="#0074CD"/><stop offset=".82" stop-color="#006ABB"/><stop offset="1" stop-color="#005BA1"/></linearGradient><linearGradient id="c" x1="2.385" x2="10.81" y1="5.776" y2="4.58" gradientUnits="userSpaceOnUse"><stop stop-color="#005BA1"/><stop offset=".07" stop-color="#0060A9"/><stop offset=".36" stop-color="#0071C8"/><stop offset=".52" stop-color="#0078D4"/><stop offset=".64" stop-color="#0074CD"/><stop offset=".82" stop-color="#006ABB"/><stop offset="1" stop-color="#005BA1"/></linearGradient><linearGradient id="d" x1="9.828" x2="9.828" y1="20.201" y2="15.293" gradientUnits="userSpaceOnUse"><stop stop-color="#0078D4"/><stop offset=".16" stop-color="#1380DA"/><stop offset=".53" stop-color="#3C91E5"/><stop offset=".82" stop-color="#559CEC"/><stop offset="1" stop-color="#5EA0EF"/></linearGradient><linearGradient id="e" x1="6.756" x2="6.756" y1="16.89" y2="4.558" gradientUnits="userSpaceOnUse"><stop stop-color="#0078D4"/><stop offset=".16" stop-color="#1380DA"/><stop offset=".53" stop-color="#3C91E5"/><stop offset=".82" stop-color="#559CEC"/><stop offset="1" stop-color="#5EA0EF"/></linearGradient><linearGradient id="f" x1="7.009" x2="11.685" y1="5.79" y2=".524" gradientUnits="userSpaceOnUse"><stop stop-color="#0078D4"/><stop offset=".16" stop-color="#1380DA"/><stop offset=".53" stop-color="#3C91E5"/><stop offset=".82" stop-color="#559CEC"/><stop offset="1" stop-color="#5EA0EF"/></linearGradient></defs></svg>