<svg xmlns="http://www.w3.org/2000/svg" fill="none" viewBox="0 0 18 18"><rect width="4.286" height="18" fill="url(#a)" rx="1"/><path fill="#fff" d="M1.522 2.462h1.32A.158.158 0 0 0 3 2.304V.977a.16.16 0 0 0-.158-.159h-1.32a.158.158 0 0 0-.158.159v1.322a.158.158 0 0 0 .158.163Zm0 8.17h1.32A.157.157 0 0 0 3 10.475V3.898a.16.16 0 0 0-.158-.157h-1.32a.156.156 0 0 0-.158.157v6.576a.16.16 0 0 0 .096.15c.02.008.04.012.062.012v-.003Z"/><path fill="#00188F" fill-rule="evenodd" d="M6.939 18h-.01a.436.436 0 0 1-.429-.439v-.46h.439v.46h.464V18H6.94Zm2.275 0v-.439h-.928V18h.928ZM11 15.544h-.439v.921H11v-.921Zm0-1.557h-.439v.921H11v-.92Zm0-1.556h-.439v.921H11v-.921Zm0-1.557h-.439v.921H11v-.92Zm0-1.556h-.439v.92H11v-.92Zm0-1.557h-.439v.921H11v-.92Zm0-1.556h-.439v.92H11v-.92Zm0-1.557h-.439v.921H11v-.921Zm0-1.557h-.439v.922H11V3.09Zm0-1.556h-.439v.921H11v-.921ZM8.286 0v.439h.928V0h-.928ZM6.5.9h.439V.439h.464V0H6.94a.448.448 0 0 0-.228.064.441.441 0 0 0-.211.375v.46Zm0 .635h.439v.921H6.5v-.921Zm0 1.556h.439v.922H6.5V3.09Zm0 1.557h.439v.921H6.5v-.921Zm0 1.557h.439v.92H6.5v-.92Zm0 1.556h.439v.921H6.5v-.92Zm0 1.557h.439v.92H6.5v-.92Zm0 1.556h.439v.921H6.5v-.92Zm0 1.557h.439v.921H6.5v-.921Zm0 1.556h.439v.921H6.5v-.92Zm0 1.557h.439v.921H6.5v-.921ZM10.097 0h.464a.448.448 0 0 1 .228.064.441.441 0 0 1 .211.375v.46h-.439V.44h-.464V0ZM11 17.1V17.571a.436.436 0 0 1-.43.429H10.098v-.439h.464v-.46H11ZM13.939 18h-.01a.436.436 0 0 1-.429-.43V17.102h.439v.46h.464V18h-.464Zm2.275 0v-.439h-.928V18h.928ZM18 15.544h-.439v.921H18v-.921Zm0-1.557h-.439v.921H18v-.92Zm0-1.556h-.439v.921H18v-.921Zm0-1.557h-.439v.921H18v-.92Zm0-1.556h-.439v.92H18v-.92Zm0-1.557h-.439v.921H18v-.92Zm0-1.556h-.439v.92H18v-.92Zm0-1.557h-.439v.921H18v-.921Zm0-1.557h-.439v.922H18V3.09Zm0-1.556h-.439v.921H18v-.921ZM15.286 0v.439h.928V0h-.928ZM13.5.9h.439V.439h.464V0h-.464a.448.448 0 0 0-.228.064.441.441 0 0 0-.21.365L13.5.44v.46Zm0 .635h.439v.921H13.5v-.921Zm0 1.556h.439v.922H13.5V3.09Zm0 1.557h.439v.921H13.5v-.921Zm0 1.557h.439v.92H13.5v-.92Zm0 1.556h.439v.921H13.5v-.92Zm0 1.557h.439v.92H13.5v-.92Zm0 1.556h.439v.921H13.5v-.92Zm0 1.557h.439v.921H13.5v-.921Zm0 1.556h.439v.921H13.5v-.92Zm0 1.557h.439v.921H13.5v-.921ZM17.097 0h.464a.448.448 0 0 1 .228.064.441.441 0 0 1 .211.375v.46h-.439V.44h-.464V0ZM18 17.1V17.571a.436.436 0 0 1-.43.429H17.098v-.439h.464v-.46H18Z" clip-rule="evenodd"/><defs><linearGradient id="a" x1="2.143" x2="2.143" y1="18" y2="0" gradientUnits="userSpaceOnUse"><stop stop-color="#0078D4"/><stop offset=".156" stop-color="#1380DA"/><stop offset=".528" stop-color="#3C91E5"/><stop offset=".822" stop-color="#559CEC"/><stop offset="1" stop-color="#5EA0EF"/></linearGradient></defs></svg>