<svg xmlns="http://www.w3.org/2000/svg" fill="none" viewBox="0 0 18 18"><path fill="url(#a)" stroke="#fff" stroke-width=".25" d="M15.75 13.446h-.125v2.224c0 .168-.032.323-.095.467a1.231 1.231 0 0 1-.631.642 1.1 1.1 0 0 1-.459.096H1.31c-.167 0-.32-.03-.462-.089a1.053 1.053 0 0 1-.37-.255 1.376 1.376 0 0 1-.258-.394 1.153 1.153 0 0 1-.095-.467V5.759c0-.17.03-.326.088-.471.058-.145.142-.27.252-.377A1.35 1.35 0 0 1 .85 4.65a1.1 1.1 0 0 1 .459-.096h1.065V2.33c0-.17.03-.326.088-.471.058-.145.142-.27.252-.376A1.35 1.35 0 0 1 3.1 1.22a1.1 1.1 0 0 1 .459-.096h13.13a1.1 1.1 0 0 1 .459.096 1.231 1.231 0 0 1 .631.642c.063.144.095.3.095.467v9.911c0 .168-.032.324-.095.468a1.233 1.233 0 0 1-.631.642 1.1 1.1 0 0 1-.459.095h-.94ZM17 12.255V2.33a.297.297 0 0 0-.089-.213.337.337 0 0 0-.207-.1H3.56a.292.292 0 0 0-.213.09.344.344 0 0 0-.096.209H3.25v2.237h4.453L2.375 10.58V5.446H1.31a.292.292 0 0 0-.213.091.344.344 0 0 0-.096.208H1v9.924c0 .083.032.156.089.213.056.058.127.09.207.1H14.44a.293.293 0 0 0 .213-.09.344.344 0 0 0 .096-.209h.001v-2.237h-4.453l5.328-6.027v5.135h1.065a.293.293 0 0 0 .213-.091.344.344 0 0 0 .096-.208Zm-2.375-7.701c.147 0 .285.029.415.087a.89.89 0 0 1 .27.19l-7.614 8.615H3.375c-.147 0-.285-.029-.415-.087a.887.887 0 0 1-.27-.19l7.614-8.615h4.321Z"/><defs><linearGradient id="a" x1="9" x2="9" y1="17" y2="1" gradientUnits="userSpaceOnUse"><stop stop-color="#0078D4"/><stop offset=".156" stop-color="#1380DA"/><stop offset=".528" stop-color="#3C91E5"/><stop offset=".822" stop-color="#559CEC"/><stop offset="1" stop-color="#5EA0EF"/></linearGradient></defs></svg>