<svg xmlns="http://www.w3.org/2000/svg" xmlns:xlink="http://www.w3.org/1999/xlink" viewBox="0 0 101 101" fill="#fff" fill-rule="evenodd" stroke="#000" stroke-linecap="round" stroke-linejoin="round"><use xlink:href="#A" x=".5" y=".5"/><symbol id="A"><g stroke="none"><path d="M100 50c0 27.614-22.386 50-50 50h0C22.386 100 0 77.614 0 50h0C0 22.386 22.386 0 50 0h0c27.614 0 50 22.386 50 50h0z" fill="#003359"/><path d="M83.755 59.827v9.399l4.808-4.7 4.808-4.699-4.808-4.703-4.808-4.7v9.403zm-11.931 2.819v-6.462h-3.369v6.462h3.369zm5.612 0v-6.462h-3.364v6.462h3.364zm5.612 0v-6.462H79.68v6.462h3.369zM71.256 40.727l4.989 4.986.056-5.044.058-5.044-5.041.058-5.044.059 4.981 4.984zm-.66 3.655l1.786-1.786-3.427-3.427-1.784 1.786 3.425 3.427zm-2.976 2.977l1.784-1.784-3.425-3.427-1.787 1.786 3.428 3.425zm-2.98 2.977l1.789-1.786-3.425-3.427-1.788 1.786 3.423 3.427zM53.903 77.679a16.87 16.87 0 0 0 12.956-16.411h0c0-9.314-7.547-16.862-16.862-16.862h0c-9.314 0-16.864 7.55-16.864 16.862h0c0 8.131 5.75 14.915 13.405 16.511h0v4.463h-7.852v5.728h22.683v-5.728h-7.466v-4.562zm.195-49.195v-.372h11.473l-7.859-8.041-7.858-8.041-7.856 8.041-7.855 8.041h11.341v.372h8.614zm0 5.214v-3.13h-8.614v3.13h8.614zm0 5.216v-3.13h-8.614v3.13h8.614zm0 5.217V41h-8.614v3.13h8.614zm-4.102 30.041c-7.127 0-12.902-5.777-12.902-12.903h0c0-7.125 5.775-12.902 12.902-12.902h0c7.13 0 12.901 5.778 12.901 12.902h0c0 7.126-5.772 12.903-12.901 12.903h0zM27.403 42.596l1.786 1.786 3.425-3.427-1.784-1.786-3.427 3.427zm2.977 2.978l1.786 1.784 3.426-3.425-1.786-1.786-3.427 3.427zm2.977 2.975l1.786 1.786 3.427-3.427-1.788-1.786-3.425 3.427zm-4.83-7.822l4.983-4.984-5.041-.059-5.044-.058.058 5.044.056 5.044 4.988-4.986zm-8.209 22.875v-6.461H16.95v6.461h3.367zm5.611 0v-6.461h-3.367v6.461h3.367zm5.612 0v-6.461h-3.367v6.461h3.367zm-15.295-3.641V50.56l-9.617 9.402 4.809 4.698 4.808 4.7v-9.398z"/></g></symbol></svg>