<svg xmlns="http://www.w3.org/2000/svg" xmlns:xlink="http://www.w3.org/1999/xlink" viewBox="0 0 161 101" fill="#fff" fill-rule="evenodd" stroke="#000" stroke-linecap="round" stroke-linejoin="round"><use xlink:href="#A" x=".5" y=".5"/><symbol id="A"><path d="M133.705 45.149c.741-2.984 1.109-6.342 1.109-9.328h0C134.813 16.045 118.889 0 99.259 0h0c-16.295 0-30.37 11.194-34.444 26.494h0c-4.074-2.24-8.89-3.36-13.704-3.36h0c-17.038 0-31.113 14.18-31.113 31.343h0c0 1.121 0 2.612.371 3.735h0-.371C8.888 58.212 0 67.91 0 79.104h0C0 90.299 8.888 100 19.999 100h0 113.335C148.148 100 160 87.313 160 72.389h0c0-14.554-11.852-27.239-26.295-27.239h0z" fill="#002855" stroke="none"/></symbol></svg>