<svg xmlns="http://www.w3.org/2000/svg" xmlns:xlink="http://www.w3.org/1999/xlink" viewBox="0 0 71 101" fill="#fff" fill-rule="evenodd" stroke="#000" stroke-linecap="round" stroke-linejoin="round"><use xlink:href="#A" x=".5" y=".5"/><symbol id="A"><path d="M69.999 35.818V10.013c-8.393 3.725-24.017 4.974-35.082 4.777h0C5.623 14.269 0 10.013 0 10.013h0v25.819c37.062 10.868 67.06 1.012 69.999-.015h0zM0 39.666v27.248c36.986 10.843 67.048 1.011 69.999-.016h0V39.735c-4.544 1.451-17.148 4.896-34.422 4.896h0c-10.408 0-22.517-1.274-35.576-4.964h0zm35.579 36.046c-10.409 0-22.52-1.276-35.578-4.967h0v23.468c3.175 3.802 24.539 5.952 34.916 5.776h0C66.14 99.458 70 94.061 70 94.061h0V70.817c-4.544 1.452-17.148 4.896-34.421 4.896h0zM34.915 0C13.155 0 .711 3.642.141 5.593h0c.551 1.905 12.979 5.549 34.775 5.549h0c21.801 0 34.225-3.644 34.775-5.599h0C69.126 3.642 56.681 0 34.915 0h0z" fill="#002855" stroke="none"/></symbol></svg>