<svg xmlns="http://www.w3.org/2000/svg" xmlns:xlink="http://www.w3.org/1999/xlink" viewBox="0 0 111 101" fill="#fff" fill-rule="evenodd" stroke="#000" stroke-linecap="round" stroke-linejoin="round"><use xlink:href="#A" x=".5" y=".5"/><symbol id="A"><path d="M64.21 92.791l-.528-.738-.175-.739.177-1.112.528-.37.351-.552 1.052-.187h28.594l.882.187.524.552.527.37.175 1.112-.175.739-.527.738-.524.554h-.882-28.594-1.052l-.352-.554h0zm-48.071.739l-1.052-.554-.351-.739-.351-.923.351-1.112.351-.922 1.052-.555.878-.182h1.229l.877.182 1.052.555.352.922.351 1.112-.351.921-.352.739-1.052.554-.877.182h-1.229l-.878-.18h0zM8.246 82.252l-1.58.375-1.755.368-1.403.739-1.054 1.291-1.054 1.295-.875 1.479L0 89.28v2.034 1.661l.527 1.479.875 1.48 1.054 1.295L3.51 98.52l1.403.739 1.755.553 1.58.188h93.505l1.581-.187 1.751-.553 1.406-.739 1.227-1.291.877-1.295.703-1.48.526-1.479.177-1.661-.177-2.034-.526-1.482-.703-1.479-.877-1.295-1.227-1.291-1.406-.739-1.751-.368-1.581-.375H8.246h0zm5.263-19.221l-1.229-.739-.877-.923-1.052-.923-.703-1.293-.351-1.48v-1.482-41.957-1.477l.351-1.479.703-1.293 1.052-1.295.877-.739 1.229-.739 1.404-.371 1.403-.368h77.195l1.579.368 1.226.371 1.402.739.878.739 1.052 1.295.701 1.293.528 1.479v1.479 41.957 1.482l-.528 1.48-.701 1.293-1.052.923-.878.923-1.402.739-1.226.554h-1.579-77.195-1.403l-1.404-.555h0zM16.316 0l-2.631.37-2.456.927-2.456 1.293-1.93 1.663-1.58 2.032-1.227 2.404-.876 2.771-.352 2.773v41.957l.352 2.591.876 2.773 1.227 2.587 1.58 2.034 1.93 1.663 2.456 1.295 2.456.923 2.631.368h12.806v5.363h51.752v-5.363h12.636l2.805-.368 2.631-.923 2.105-1.295 2.107-1.663 1.578-2.034 1.231-2.587.698-2.773.529-2.591V14.232l-.531-2.773-.698-2.771-1.231-2.404-1.578-2.032-2.107-1.662-2.106-1.293-2.632-.925-2.805-.37H16.316V0z" fill="#002855" stroke="none"/></symbol></svg>