<svg xmlns="http://www.w3.org/2000/svg" xmlns:xlink="http://www.w3.org/1999/xlink" viewBox="0 0 71 101" fill="#fff" fill-rule="evenodd" stroke="#000" stroke-linecap="round" stroke-linejoin="round"><use xlink:href="#A" x=".5" y=".5"/><symbol id="A"><g fill="#002855" stroke="#fff"><path d="M26.25 100H70V83.333H26.25V100z"/><path d="M0 100h26.25V83.333H0V100z"/><path d="M0 83.333h43.75V66.666H0v16.667z"/><path d="M43.75 83.333H70V66.666H43.75v16.667z"/><path d="M26.25 66.665H70V49.999H26.25v16.666z"/><path d="M0 66.665h26.25V49.999H0v16.666z"/><path d="M0 50h43.75V33.333H0V50z"/><path d="M43.75 50H70V33.333H43.75V50z"/><path d="M26.25 33.334H70V16.667H26.25v16.667z"/><path d="M0 33.334h26.25V16.667H0v16.667z"/><path d="M0 16.667h43.75V0H0v16.667z"/><path d="M43.75 16.667H70V0H43.75v16.667z"/></g></symbol></svg>