<svg xmlns="http://www.w3.org/2000/svg" xmlns:xlink="http://www.w3.org/1999/xlink" viewBox="0 0 101 101" fill="#fff" fill-rule="evenodd" stroke="#000" stroke-linecap="round" stroke-linejoin="round"><use xlink:href="#A" x=".5" y=".5"/><symbol id="A"><g stroke="none"><path d="M100 50c0 27.614-22.386 50-50 50h0C22.386 100 0 77.614 0 50h0C0 22.386 22.386 0 50 0h0c27.614 0 50 22.386 50 50h0z" fill="#123458"/><path d="M74.636 63.791c-1.583 0-3.059.441-4.328 1.195h0l-9.336-7.181a12.25 12.25 0 0 0 1.298-5.481h0c0-5.845-4.072-10.727-9.534-11.991h0V27.266h8.786l-5.734-7-5.742-6.992-5.742 6.992-5.733 7h8.785v13.022c-5.555 1.192-9.72 6.125-9.72 12.037h0c0 2.466.731 4.756 1.979 6.681h0l-9.011 6.603c-1.446-1.136-3.261-1.817-5.239-1.817h0c-4.692 0-8.495 3.803-8.495 8.497h0c0 4.692 3.803 8.494 8.495 8.494h0c4.691 0 8.495-3.802 8.495-8.494h0c0-1.356-.327-2.633-.891-3.769h0l9.141-6.695c1.709 1.412 3.812 2.359 6.114 2.684h0v5.408a8.5 8.5 0 0 0-6.766 8.317h0a8.5 8.5 0 0 0 8.497 8.497h0a8.5 8.5 0 0 0 8.494-8.497h0c0-4.067-2.859-7.458-6.673-8.294h0v-5.445c2.87-.427 5.409-1.837 7.273-3.881h0l8.711 6.7c-1.014 1.4-1.619 3.114-1.619 4.977h0c0 4.692 3.805 8.494 8.495 8.494h0c4.691 0 8.495-3.802 8.495-8.494h0a8.5 8.5 0 0 0-8.495-8.5h0zM50.349 42.208c5.352 0 9.689 4.339 9.689 9.692h0-19.381c0-5.353 4.339-9.692 9.692-9.692h0z"/></g></symbol></svg>