<svg xmlns="http://www.w3.org/2000/svg" xmlns:xlink="http://www.w3.org/1999/xlink" viewBox="0 0 101 101" fill="#fff" fill-rule="evenodd" stroke="#000" stroke-linecap="round" stroke-linejoin="round"><use xlink:href="#A" x=".5" y=".5"/><symbol id="A"><g stroke="none"><path d="M100 50c0 27.614-22.384 50-50 50h0C22.386 100 0 77.614 0 50h0C0 22.386 22.386 0 50 0h0c27.614 0 50 22.386 50 50h0z" fill="#002855"/><path d="M66.496 67.122h23.903v-9.548H66.408v.416a17.12 17.12 0 0 0-12.692-11.947h0V33.386h12.206l-7.972-9.717-7.97-9.717-7.97 9.717-7.969 9.717h12.203v12.658c-6.055 1.35-10.894 5.898-12.65 11.788h0v-.256H9.602v9.548h23.863c1.942 7.316 8.589 12.712 16.516 12.712h0c7.928-.002 14.575-5.398 16.516-12.714h0zm-29.603-4.394A13.09 13.09 0 0 1 49.98 49.643h0a13.09 13.09 0 0 1 13.088 13.086h0A13.09 13.09 0 0 1 49.98 75.815h0a13.09 13.09 0 0 1-13.087-13.086h0z"/></g></symbol></svg>