<svg xmlns="http://www.w3.org/2000/svg" xmlns:xlink="http://www.w3.org/1999/xlink" viewBox="0 0 101 101" fill="#fff" fill-rule="evenodd" stroke="#000" stroke-linecap="round" stroke-linejoin="round"><use xlink:href="#A" x=".5" y=".5"/><symbol id="A"><g stroke="none"><path d="M100 50c0 27.614-22.384 50-50 50h0C22.386 100 0 77.614 0 50h0C0 22.386 22.386 0 50 0h0c27.614 0 50 22.386 50 50h0z" fill="#002855"/><path d="M81.428 26.937c-1.078-1.083-2.369-1.62-3.892-1.62h0-55.073a5.29 5.29 0 0 0-3.887 1.62h0c-1.077 1.076-1.619 2.37-1.619 3.887h0v41.855c0 1.517.542 2.811 1.619 3.888h0a5.29 5.29 0 0 0 3.887 1.62h0 55.072c1.525 0 2.814-.537 3.892-1.62h0c1.088-1.077 1.616-2.372 1.616-3.888h0V30.825c.002-1.517-.527-2.811-1.614-3.887h0zm-2.786 45.742a1.02 1.02 0 0 1-.333.775h0c-.216.216-.474.325-.773.325h0-55.073c-.297 0-.555-.109-.775-.325h0c-.214-.214-.322-.472-.322-.775h0V30.825c0-.294.108-.552.322-.775h0c.22-.217.478-.333.775-.333h0 55.072c.3 0 .558.116.773.333h0c.227.223.333.481.333.775h0v41.855h.002zm-53.177-3.206h2.88v-4.325h-2.88v4.325zm.855-21.583a1.06 1.06 0 0 0 .541.146h0 13.056c.194 0 .375-.048.542-.146h0c.166-.095.298-.226.395-.39h0a1.01 1.01 0 0 0 .017-1.07h0l-6.53-11.97c-.097-.176-.231-.316-.4-.417h0a1.04 1.04 0 0 0-.552-.153h0c-.198 0-.384.05-.553.153h0a1.08 1.08 0 0 0-.4.417h0l-6.53 11.97a1.01 1.01 0 0 0 .019 1.07h0a1.03 1.03 0 0 0 .394.39h0zm8.158-2.311c0 .078-.028.145-.081.198h0c-.055.055-.117.081-.191.081h0-1.633c-.073 0-.136-.026-.192-.081h0c-.052-.053-.08-.12-.08-.198h0v-1.616c0-.08.028-.147.08-.2h0c.056-.055.119-.081.192-.081h0 1.633c.073 0 .136.026.191.081h0c.053.053.081.12.081.2h0v1.616zm-2.227-7.242c.072-.062.141-.095.203-.095h0 1.87c.063 0 .131.033.203.095h0c.056.038.086.094.086.161h0l-.153 3.901c-.005.056-.034.105-.091.142h0a.36.36 0 0 1-.198.055h0H32.6a.39.39 0 0 1-.205-.055h0c-.056-.038-.086-.086-.086-.142h0l-.144-3.885c0-.079.028-.14.086-.178h0zm-2.466 31.134h2.884V54.384h-2.884v15.087zm4.325 0h2.88v-7.203h-2.88v7.203zm4.32 0h2.883V57.947h-2.883v11.525zm8.191 0h5.688v-3.387h-5.687v3.387zm0-6.247h5.688v-3.388h-5.687v3.388zm0-6.43h5.688v-3.388h-5.687v3.388zm19.012-14.934l-1.342-8.112-4.855 11.411-4.422-3.956-7.3 3.772.57 1.999 6.533-3.373 5.155 4.615 3.655-8.592.788 4.748 5.909-1.588 4.083 1.37.388-2.077-4.43-1.487-4.731 1.27zM55.195 69.472h19.264v-3.387H55.195v3.387zm0-6.247h19.264v-3.388H55.195v3.388zm0-6.43h19.264v-3.388H55.195v3.388z"/></g></symbol></svg>