<svg xmlns="http://www.w3.org/2000/svg" xmlns:xlink="http://www.w3.org/1999/xlink" viewBox="0 0 71 101" fill="#fff" fill-rule="evenodd" stroke="#000" stroke-linecap="round" stroke-linejoin="round"><use xlink:href="#A" x=".5" y=".5"/><symbol id="A"><g stroke="none"><path d="M70 100H.252L0 0h70v100z" fill="#002855"/><path d="M5.872 20.463h56.794V7.202H5.872v13.261zm0 18.83h56.794V26.032H5.872v13.261zm0 18.565h56.794V44.598H5.872v13.261zm0 18.565h56.794V63.163H5.872v13.261zm.834 7.198h56.794v-1.886H6.706v1.886zm54.008 7.146c0-1.25-.956-2.262-2.138-2.262h0c-1.18 0-2.137 1.013-2.137 2.262h0c0 1.248.957 2.264 2.137 2.264h0c1.181 0 2.138-1.016 2.138-2.264h0zm-7.457 0c0-1.25-.956-2.262-2.139-2.262h0c-1.18 0-2.137 1.013-2.137 2.262h0c0 1.248.957 2.264 2.137 2.264h0c1.181 0 2.139-1.016 2.139-2.264h0z"/><path d="M49.47 15.497h9.604v-3.77H49.47v3.77zm0 19.361h9.604v-3.771H49.47v3.771zm0 18.83h9.604v-3.771H49.47v3.771zm0 18.301h9.604v-3.773H49.47v3.773z" fill="#002855"/></g></symbol></svg>