<svg xmlns="http://www.w3.org/2000/svg" xmlns:xlink="http://www.w3.org/1999/xlink" viewBox="0 0 71 101" fill="#fff" fill-rule="evenodd" stroke="#000" stroke-linecap="round" stroke-linejoin="round"><use xlink:href="#A" x=".5" y=".5"/><symbol id="A"><path d="M34.916 14.604C5.624 14.081 0 9.817 0 9.817h0v84.385c3.176 3.811 24.54 5.966 34.916 5.787h0C66.139 99.456 70 94.05 70 94.05h0V9.817c-8.392 3.732-24.017 4.985-35.084 4.787h0zM35 0C13.326 0 .93 3.635.362 5.583h0C.911 7.485 13.29 11.123 35 11.123h0c21.715 0 34.09-3.637 34.638-5.59h0C69.075 3.635 56.68 0 35 0h0z" fill="#002855" stroke="none"/><path d="M11.903 72.298c.557.293 1.16.44 1.807.44h0 43.638a3.83 3.83 0 0 0 1.808-.44h0c.555-.29 1-.688 1.319-1.188h0c.704-1.08.72-2.164.058-3.243h0L38.711 31.56c-.323-.531-.769-.952-1.337-1.262h0a3.78 3.78 0 0 0-1.85-.462h0a3.78 3.78 0 0 0-1.846.462h0c-.567.31-1.012.73-1.337 1.262h0l-21.82 36.308c-.662 1.078-.646 2.163.058 3.243h0c.32.5.759.897 1.322 1.188h0zm26.426-7.675a.72.72 0 0 1-.245.556h0a.85.85 0 0 1-.591.23h0-5.055c-.225 0-.421-.075-.591-.23h0c-.164-.149-.248-.336-.248-.556h0v-4.532a.73.73 0 0 1 .248-.562h0a.85.85 0 0 1 .591-.228h0 5.055c.225 0 .421.074.591.23h0c.164.149.245.338.245.562h0v4.531h0zm-6.674-22.132c.246-.19.479-.291.693-.291h0 6.362c.211 0 .445.099.693.291h0a.56.56 0 0 1 .289.497h0l-.521 12.04c-.016.175-.117.324-.306.436h0a1.28 1.28 0 0 1-.676.172h0-5.351c-.271 0-.506-.061-.697-.171h0c-.192-.114-.289-.263-.289-.436h0l-.489-11.986c.001-.247.097-.434.291-.552h0z" stroke="none"/></symbol></svg>