<svg xmlns="http://www.w3.org/2000/svg" xmlns:xlink="http://www.w3.org/1999/xlink" viewBox="0 0 101 101" fill="#fff" fill-rule="evenodd" stroke="#000" stroke-linecap="round" stroke-linejoin="round"><use xlink:href="#A" x=".5" y=".5"/><symbol id="A"><path d="M86.932 100h-6.154v-3.118h6.106l.047 3.118h0zm-12.261 0h-6.106v-3.118h6.106V100h0zm-12.214 0h-6.106v-3.118h6.106V100h0zm-12.214 0h-6.107v-3.118h6.107V100h0zm-12.212 0h-6.107v-3.118h6.107V100h0zm-12.213 0h-6.106v-3.118h6.106V100h0zm-12.213 0h-.487c-2.128 0-4.245-.531-6.124-1.537h0l1.455-2.752a9.93 9.93 0 0 0 4.669 1.171h0 .487V100h0zm79.933-1.833l-1.579-2.684c1.526-.908 2.792-2.211 3.663-3.766h0l2.698 1.531c-1.137 2.029-2.79 3.73-4.782 4.918h0zM1.991 93.772C.758 91.79.072 89.509.006 87.179h0l3.097-.089a10.06 10.06 0 0 0 1.514 5.028h0l-2.626 1.655h0zM100 86.596h-3.098V80.45H100v6.146h0zM3.098 80.987H0v-6.147h3.098v6.147h0zM100 74.304h-3.098v-6.147H100v6.147h0zM3.098 68.695H0v-6.147h3.098v6.147h0zM100 62.012h-3.098v-6.147H100v6.147h0zM3.098 56.403H0v-6.147h3.098v6.147h0zM100 49.719h-3.098v-6.147H100v6.147h0zM3.098 44.11H0v-6.147h3.098v6.147h0zM100 37.427h-3.098V31.28H100v6.147h0zM3.098 31.818H0v-6.147h3.098v6.147h0zM100 25.135h-3.098v-6.147H100v6.147h0zM3.098 19.527H0V13.38h3.098v6.147h0zm93.8-6.637a10.07 10.07 0 0 0-1.525-5.025h0l2.622-1.661a13.21 13.21 0 0 1 1.999 6.591h0l-3.096.096h0zM4.391 8.265L1.695 6.729a13.3 13.3 0 0 1 4.792-4.908h0l1.575 2.686c-1.528.907-2.798 2.206-3.67 3.758h0zm87.145-3.986a9.93 9.93 0 0 0-4.652-1.161h0-.51V0h.51c2.12 0 4.23.527 6.1 1.524h0l-1.448 2.755h0zM80.267 3.118h-6.106V0h6.106v3.118h0zm-12.215 0h-6.106V0h6.106v3.118h0zm-12.214 0h-6.106V0h6.106v3.118h0zm-12.211 0h-6.107V0h6.107v3.118h0zm-12.213 0h-6.107V0h6.107v3.118h0zm-12.213 0h-6.084L13.092 0H19.2v3.118h0z" fill="#172a53" stroke="none"/></symbol></svg>