<svg xmlns="http://www.w3.org/2000/svg" xmlns:xlink="http://www.w3.org/1999/xlink" viewBox="0 0 101 101" fill="#fff" fill-rule="evenodd" stroke="#000" stroke-linecap="round" stroke-linejoin="round"><use xlink:href="#A" x=".5" y=".5"/><symbol id="A"><g stroke="none"><path d="M100 100H31.01L30.762 0H100v100z" fill="#002855"/><path d="M30.579 9.186H100v-2.33H30.579v2.33zm6.773 11.699h55.825V15.1H37.352v5.786zm-6.773 55.452H100v-2.332H30.579v2.332zm0 7.87H100v-2.332H30.579v2.332zm0 6.943H100V88.82H30.579v2.331z"/><path d="M75.131 49.376c0 19.595-15.929 35.481-35.578 35.481S3.975 68.971 3.975 49.376s15.929-35.481 35.578-35.481c9.436 0 18.485 3.738 25.158 10.392s10.42 15.679 10.42 25.089z"/><path d="M19.7 15.222c6.061-3.527 12.681-5.291 19.858-5.291h0c7.167 0 13.786 1.764 19.848 5.291h0a39.34 39.34 0 0 1 14.4 14.355h0c3.531 6.045 5.3 12.642 5.3 19.8h0c0 7.156-1.77 13.753-5.3 19.798h0a39.35 39.35 0 0 1-14.4 14.354h0c-6.062 3.526-12.681 5.291-19.848 5.291h0c-7.178 0-13.797-1.765-19.858-5.291h0c-6.063-3.524-10.859-8.314-14.39-14.354h0C1.77 63.129 0 56.532 0 49.376h0c0-7.158 1.77-13.755 5.31-19.8h0c3.533-6.042 8.327-10.83 14.39-14.355h0zm36.177 20.853c-.579-.171-1.318.034-2.209.616h0c-.076.031-.236.198-.494.488h0c-.258.289-.483.453-.698.486h0c.075 0 .15-.087.236-.257h0a8.92 8.92 0 0 0 .258-.562h0c.086-.208.152-.325.181-.364h0c.205-.235.58-.491 1.126-.77h0c.483-.203 1.374-.405 2.684-.615h0c1.169-.274 2.037-.085 2.628.567h0c-.075-.069.096-.293.483-.669h0c.398-.374.644-.583.75-.616h0c.108-.067.364-.142.774-.23h0c.407-.084.664-.212.773-.384h0l.107-1.132c-.419.036-.719-.087-.9-.359h0c-.195-.272-.301-.633-.345-1.076h0c0 .064-.094.204-.298.405h0c0-.235-.087-.374-.237-.405h0c-.15-.037-.353-.021-.59.048h0c-.247.07-.397.085-.462.054h0c-.344-.102-.602-.23-.774-.386h0c-.171-.154-.311-.438-.417-.85h0c-.096-.407-.171-.666-.204-.77h0c-.064-.171-.234-.349-.495-.534h0c-.256-.195-.417-.37-.481-.543h0l-.129-.281h0a7.02 7.02 0 0 0-.161-.334h0c-.042-.106-.117-.199-.204-.283h0c-.086-.085-.182-.129-.279-.129h0c-.108 0-.225.085-.364.257h0c-.141.172-.269.343-.387.513h0c-.118.172-.193.256-.225.256h0c-.106-.069-.214-.096-.311-.079h0a2.54 2.54 0 0 0-.237.054h0a.74.74 0 0 0-.224.154h0c-.108.087-.193.145-.258.177h0a1.2 1.2 0 0 1-.441.156h0a4.89 4.89 0 0 0-.44.102h0c.516-.17.494-.358-.053-.562h0c-.343-.138-.612-.187-.826-.154h0c.31-.139.439-.343.387-.615h0c-.044-.274-.194-.513-.431-.724h0 .258c-.042-.133-.183-.277-.44-.432h0a6.5 6.5 0 0 0-.901-.438h0c-.343-.135-.57-.241-.676-.305h0c-.269-.17-.858-.337-1.747-.492h0c-.893-.151-1.459-.16-1.697-.022h0c-.171.205-.246.386-.235.535h0c.019.156.086.397.202.723h0c.129.326.181.541.181.643h0c.033.203-.053.426-.277.667h0c-.227.236-.335.444-.335.615h0c0 .241.238.503.72.799h0c.483.289.655.658.516 1.102h0c-.108.272-.377.545-.825.824h0c-.451.271-.72.474-.826.613h0c-.171.272-.194.588-.075.949h0c.117.363.298.64.537.85h0c.074.069.096.135.084.203h0c-.021.07-.084.144-.182.229h0a3.1 3.1 0 0 1-.289.211h0c-.087.048-.193.111-.333.175h0l-.15.108c-.375.171-.731.063-1.062-.311h0c-.323-.374-.56-.824-.687-1.336h0c-.249-.859-.516-1.37-.827-1.542h0c-.795-.272-1.288-.257-1.491.052h0c-.172-.441-.879-.886-2.115-1.336h0c-.857-.305-1.855-.374-2.992-.203h0c.216-.031.216-.289 0-.77h0c-.237-.513-.558-.717-.976-.616h0c.108-.206.172-.507.204-.898h0a7.86 7.86 0 0 0 .054-.696h0c.108-.444.311-.841.622-1.182h0c.031-.033.149-.177.354-.434h0c.214-.257.375-.486.493-.696h0c.117-.205.128-.305.021-.305h0c1.202.135 2.06-.052 2.576-.567h0c.171-.171.375-.461.6-.872h0c.214-.411.397-.701.537-.872h0c.31-.209.547-.299.718-.283h0c.171.015.417.112.751.283h0c.321.171.569.257.74.257h0c.482.032.751-.156.804-.567h0a1.1 1.1 0 0 0-.385-1.028h0c.408.033.462-.256.152-.872h0c-.172-.241-.312-.396-.408-.465h0c-.419-.133-.879-.048-1.395.257h0c-.269.139-.236.277.106.411h0c-.031-.031-.204.145-.493.54h0c-.288.396-.569.696-.846.899h0c-.28.204-.549.117-.826-.257h0c-.033-.031-.129-.268-.281-.696h0c-.159-.428-.322-.657-.493-.69h0c-.267 0-.546.256-.826.77h0c.11-.274-.084-.53-.558-.77h0c-.482-.241-.9-.378-1.244-.411h0c.655-.411.515-.872-.408-1.387h0c-.236-.138-.59-.224-1.051-.256h0c-.473-.039-.804.031-1.008.202h0c-.171.241-.268.44-.279.595h0c-.021.15.064.289.258.405h0c.183.124.364.215.537.284h0c.171.069.364.139.59.208h0c.225.064.375.118.44.151h0c.483.341.622.582.408.721h0c-.064.033-.214.091-.429.177h0l-.601.236h0c-.171.064-.269.132-.3.202h0c-.107.141-.107.375 0 .718h0c.096.342.064.582-.107.721h0c-.172-.171-.323-.47-.462-.898h0c-.139-.428-.258-.712-.364-.851h0c.246.31-.183.413-1.289.31h0l-.514-.052c-.141 0-.408.037-.827.106h0c-.408.064-.762.087-1.051.049h0c-.29-.033-.525-.173-.697-.413h0c-.138-.272-.138-.615 0-1.026h0c.033-.135.108-.171.204-.103h0a7.13 7.13 0 0 1-.558-.486h0c-.246-.224-.418-.369-.515-.438h0c-1.588.513-3.198 1.22-4.851 2.108h0c.216.033.42.015.624-.054h0c.171-.064.396-.176.664-.33h0l.515-.284h0c1.17-.476 1.888-.6 2.168-.359h0l.258-.256c.483.544.825.972 1.03 1.283h0c-.237-.138-.751-.155-1.546-.054h0c-.687.209-1.061.413-1.137.621h0c.247.407.333.717.258.922h0c-.129-.103-.333-.274-.591-.515h0c-.257-.235-.502-.428-.74-.561h0a2.02 2.02 0 0 0-.771-.257h0c-.558 0-.934.017-1.138.048h0c-5.012 2.739-9.045 6.543-12.102 11.404h0c.236.236.45.376.623.408h0c.127.037.213.193.257.464h0c.033.274.075.461.129.563h0c.043.106.246.054.59-.15h0c.312.272.354.6.151.974h0c.032-.033.793.428 2.264 1.385h0c.654.583 1.018.942 1.083 1.082h0c.108.374-.064.684-.514.926h0c-.033-.07-.181-.226-.461-.465h0c-.28-.241-.43-.307-.462-.205h0c-.108.172-.097.486.021.947h0c.119.467.3.681.546.643h0c-.246 0-.406.277-.492.824h0c-.086.544-.129 1.155-.129 1.822h0c0 .672-.022 1.071-.054 1.206h0l.108.052c-.108.413-.011 1.001.279 1.771h0c.288.77.665 1.108 1.106 1.001h0c-.441.108-.098.839 1.029 2.209h0c.214.274.343.428.419.465h0c.097.064.31.193.612.386h0a8.71 8.71 0 0 1 .773.513h0c.214.151.385.332.515.536h0c.138.171.312.556.514 1.155h0c.216.598.45 1.007.729 1.209h0c-.074.205.085.546.484 1.029h0c.396.48.579.872.546 1.182h0c-.042 0-.086.016-.128.048h0c-.054.037-.097.054-.13.054h0c.097.239.366.48.795.716h0c.429.241.698.467.795.67h0c.042.1.074.272.107.513h0c.033.241.086.428.15.567h0c.075.135.214.171.419.1h0c.064-.684-.344-1.741-1.235-3.183h0l-.879-1.491h0c-.108-.171-.193-.432-.279-.791h0c-.087-.363-.173-.61-.237-.749h0c.065 0 .173.027.312.081h0c.14.048.277.112.44.176h0c.15.069.279.139.387.208h0c.096.07.129.118.096.156h0c-.096.236-.064.534.108.899h0c.171.357.375.675.612.948h0l.879.977h0l.623.664h0c.203.208.44.54.718 1.005h0c.269.461.269.69 0 .69h0c.311 0 .655.172 1.031.515h0c.375.343.665.685.868 1.028h0c.171.274.312.723.418 1.339h0c.096.615.183 1.028.258 1.23h0c.064.241.213.47.44.696h0a2.35 2.35 0 0 0 .643.488h0l.814.411h0c.344.17.57.287.678.358h0c.171.069.481.245.954.54h0c.462.287.826.486 1.105.589h0c.342.139.611.208.825.208h0c.204 0 .452-.042.741-.129h0c.289-.085.526-.15.698-.181h0c.515-.067 1.008.187 1.492.77h0c.482.585.846.942 1.082 1.082h0c1.234.648 2.178.835 2.833.561h0c-.064.037-.064.166.023.387h0c.084.223.225.485.419.796h0c.181.311.342.557.459.743h0l.279.44h0c.172.204.483.459.934.77h0c.44.305.752.561.923.771h0c.204-.139.333-.295.364-.465h0c-.108.278.011.619.354 1.026h0c.344.411.654.585.935.515h0c.482-.102.718-.648.718-1.642h0c-1.064.513-1.91.209-2.522-.926h0c0-.031-.043-.129-.129-.278h0c-.086-.156-.162-.299-.204-.44h0c-.053-.139-.096-.283-.129-.437h0c-.042-.151-.042-.28 0-.387h0c.033-.1.119-.15.26-.15h0c.299 0 .47-.064.513-.182h0c.033-.117 0-.331-.106-.642h0a6.81 6.81 0 0 1-.204-.669h0c-.033-.274-.225-.615-.568-1.028h0a22.24 22.24 0 0 1-.623-.77h0c-.171.308-.44.443-.815.41h0c-.387-.031-.655-.187-.826-.461h0c0 .031-.031.129-.075.28h0c-.054.154-.087.268-.087.337h0c-.44 0-.696-.016-.773-.054h0c.042-.1.087-.401.13-.899h0c.053-.497.117-.883.181-1.155h0c.031-.135.129-.343.288-.615h0c.152-.274.28-.525.387-.743h0c.097-.224.171-.438.204-.643h0a.44.44 0 0 0-.235-.485h0c-.183-.124-.483-.168-.901-.129h0c-.654.031-1.094.372-1.341 1.026h0c-.033.102-.086.28-.15.534h0c-.064.259-.152.456-.258.594h0c-.106.133-.258.257-.462.359h0c-.246.1-.652.138-1.233.1h0c-.59-.031-.998-.117-1.243-.257h0c-.441-.272-.826-.77-1.16-1.485h0c-.322-.722-.484-1.355-.484-1.901h0c0-.343.045-.796.131-1.364h0c.085-.562.139-.989.148-1.283h0c.023-.289-.074-.712-.279-1.257h0c.097-.07.259-.23.462-.488h0c.206-.256.377-.438.516-.54h0a.99.99 0 0 1 .236-.075h0c.087-.022.16-.022.225 0h0c.075.016.141-.01.205-.079h0c.074-.07.129-.172.16-.307h0c-.032-.036-.108-.085-.204-.154h0c-.107-.102-.173-.156-.214-.156h0c.246.102.729.075 1.47-.075h0c.739-.155 1.212-.129 1.416.075h0c.515.376.891.343 1.137-.102h0c0-.036-.042-.198-.129-.486h0c-.085-.293-.097-.525-.033-.696h0c.172.926.678 1.082 1.503.461h0c.098.108.366.193.795.257h0c.427.07.729.156.9.257h0c.108.069.226.165.364.283h0a2.02 2.02 0 0 0 .279.23h0c.054.036.141.027.258-.022h0c.119-.052.269-.166.441-.338h0c.342.482.546.895.611 1.236h0c.387 1.369.708 2.118.987 2.257h0c.235.102.427.141.558.102h0c.139-.032.214-.199.235-.488h0c.021-.287.021-.529 0-.717h0l-.073-.643h0l-.054-.411v-.925l-.056-.411c-.513-.1-.825-.305-.954-.615h0c-.117-.31-.086-.625.085-.953h0c.173-.322.431-.642.774-.947h0c.031-.037.171-.096.406-.182h0c.237-.085.504-.197.795-.331h0c.3-.139.515-.272.642-.413h0c.731-.652.988-1.252.773-1.798h0c.247 0 .43-.152.57-.461h0c-.031 0-.117-.052-.258-.153h0a4.99 4.99 0 0 0-.387-.259h0c-.117-.069-.193-.1-.224-.1h0c.299-.172.344-.45.096-.824h0c.171-.1.298-.288.385-.567h0c.086-.274.216-.444.387-.515h0c.311.413.675.45 1.083.109h0c.237-.28.26-.553.054-.824h0c.171-.241.527-.419 1.052-.541h0c.535-.118.847-.283.956-.488h0c.235.07.375.034.407-.1h0c.042-.139.054-.344.054-.615h0c0-.28.054-.483.161-.621h0c.129-.173.386-.322.773-.461h0c.376-.139.6-.225.665-.257h0l.88-.567c.096-.133.096-.202 0-.202h0a1.84 1.84 0 0 0 1.587-.567h0c.344-.375.247-.718-.299-1.029h0c.096-.202.042-.363-.162-.486h0c-.202-.118-.46-.214-.773-.283h0c.108-.033.302-.043.591-.021h0c.3.015.471-.012.546-.082h0c.516-.34.399-.612-.365-.817h0zM45.169 80.906c0 .211.031.482.096.826h0c7.081-1.23 13.101-4.467 18.078-9.704h0c-.096-.108-.311-.182-.642-.236h0c-.324-.048-.537-.106-.646-.175h0c-.611-.241-1.029-.382-1.233-.411h0a1.03 1.03 0 0 0-.129-.67h0c-.117-.203-.257-.358-.406-.459h0l-.644-.411h0c-.281-.172-.472-.289-.567-.359h0a11.51 11.51 0 0 0-.366-.31h0l-.354-.284h0a7.35 7.35 0 0 0-.387-.229h0c-.193-.1-.343-.135-.439-.1h0c-.106.031-.28.052-.516.052h0l-.161.048c-.096.037-.193.081-.277.129h0c-.089.052-.185.1-.282.156h0c-.106.054-.171.102-.214.156h0c-.031.048-.031.091 0 .127h0c-.718-.583-1.331-.957-1.845-1.128h0c-.171-.037-.364-.129-.569-.283h0c-.204-.156-.387-.274-.546-.359h0a.76.76 0 0 0-.516-.079h0c-.183.036-.387.154-.591.357h0c-.171.171-.268.426-.31.77h0c-.033.343-.064.567-.096.669h0c-.247-.171-.247-.471 0-.899h0c.235-.429.269-.745.096-.947h0c-.096-.211-.28-.284-.537-.235h0c-.257.052-.462.127-.621.235h0c-.152.1-.343.245-.591.432h0a5.63 5.63 0 0 1-.462.338h0c-.064.031-.214.129-.441.278h0c-.225.156-.365.283-.44.386h0c-.096.14-.204.342-.3.621h0c-.106.274-.193.461-.258.561h0c-.075-.135-.269-.245-.6-.332h0c-.321-.087-.481-.181-.481-.283h0c.065.343.14.941.204 1.796h0c.064.857.148 1.51.258 1.955h0c.236 1.058.03 1.882-.624 2.465h0c-.923.856-1.417 1.539-1.491 2.054h0c-.139.748.074 1.198.623 1.331h0c0 .241-.139.594-.418 1.055h0c-.267.455-.384.824-.353 1.097h0z" fill="#002855"/></g></symbol></svg>