<svg xmlns="http://www.w3.org/2000/svg" xmlns:xlink="http://www.w3.org/1999/xlink" viewBox="0 0 101 101" fill="#fff" fill-rule="evenodd" stroke="#000" stroke-linecap="round" stroke-linejoin="round"><use xlink:href="#A" x=".5" y=".5"/><symbol id="A"><g stroke="none"><path d="M50 100C22.428 100 0 77.572 0 50h0C0 22.431 22.428 0 50 0h0c27.572 0 50 22.431 50 50h0c0 27.572-22.43 50-50 50h0z" fill="#002855"/><path d="M44.02 70.676a6.4 6.4 0 0 0 1.936 4.933h0a6.34 6.34 0 0 0 4.555 1.805h0a6.36 6.36 0 0 0 4.497-1.942h0c1.078-1.111 1.717-2.573 1.797-4.12h0a6.41 6.41 0 0 0-1.934-4.933h0c-2.534-2.458-6.595-2.394-9.053.139h0a6.4 6.4 0 0 0-1.797 4.119h0zm31.061-15.903c.108-.113.166-.228.172-.342h0l-.002-.064c-.016-.27-.098-.434-.258-.569h0c-6.977-5.764-15.862-8.866-24.97-8.694h0a38.18 38.18 0 0 0-24.686 9.438h0l-.084.087c-.125.128-.172.263-.175.324h0l.002.087-.005.098c-.003.058-.009.216.18.4h0l4.369 4.234c.227.222.575.225.828.008h0c11.321-9.652 27.958-9.908 39.566-.609h0c.269.216.608.2.833-.033h0l4.231-4.365zm16.061-16.559c.139-.142.163-.259.166-.353h0v-.074c-.005-.248-.066-.38-.178-.477h0C79.659 27.276 64.94 21.905 49.668 22.167h0c-15.28.205-29.827 6.025-40.975 16.395h0c-.069.075-.165.2-.175.37h0c-.005.295.045.417.177.544h0l4.627 4.486c.223.217.591.216.834-.008h0C34.32 25.458 65.12 25 85.797 42.892h0c.255.217.619.197.862-.055h0l4.483-4.623z"/></g></symbol></svg>