<svg xmlns="http://www.w3.org/2000/svg" xmlns:xlink="http://www.w3.org/1999/xlink" viewBox="0 0 91 101" fill="#fff" fill-rule="evenodd" stroke="#000" stroke-linecap="round" stroke-linejoin="round"><use xlink:href="#A" x=".5" y=".5"/><symbol id="A"><path d="M89.822 16.056c.149-.142.177-.259.178-.353h0v-.073c-.005-.248-.071-.38-.195-.478h0C77.337 5.118 61.334-.253 44.733.009h0C28.124.212 12.309 6.034.19 16.404h0c-.075.075-.182.2-.19.37h0c-.005.295.049.417.19.544h0l5.03 4.486c.245.217.644.214.909-.008h0C28.05 3.3 61.533 2.842 84.009 20.734h0c.279.217.674.197.939-.055h0l4.873-4.623zM38.595 48.519c-.105 1.85.661 3.647 2.105 4.933h0c1.333 1.192 3.093 1.831 4.95 1.805h0c1.862-.026 3.598-.715 4.89-1.942h0c1.172-1.112 1.867-2.573 1.953-4.12h0c.105-1.849-.662-3.647-2.103-4.933h0c-2.755-2.458-7.17-2.394-9.842.138h0c-1.172 1.112-1.867 2.576-1.953 4.12h0zm33.769-15.904c.116-.111.177-.228.183-.341h0v-.066c-.017-.27-.107-.433-.28-.569h0c-7.584-5.762-17.243-8.864-27.146-8.694h0c-9.888.108-19.409 3.458-26.838 9.437h0l-.09.086c-.137.128-.187.263-.19.323h0l.002.089-.007.095c-.003.059-.01.216.197.4h0l4.748 4.234c.248.222.627.225.902.009h0c12.305-9.653 30.395-9.908 43.013-.611h0c.292.216.659.202.905-.031h0l4.602-4.364zm5.847 53.202H54.176c-.389 1.466-1.194 2.82-2.349 3.919h0c-1.722 1.631-4.033 2.55-6.507 2.583h0c-2.473.036-4.814-.817-6.59-2.4h0c-1.265-1.131-2.13-2.558-2.54-4.102h0-22.836v-3.011h22.634c.236-1.852 1.119-3.589 2.541-4.937h0c3.555-3.37 9.431-3.455 13.1-.183h0c1.539 1.373 2.487 3.188 2.735 5.12h0H78.21v3.011zm11.6-18.061l-89.412.148L.462 100l89.408-.148-.061-32.095z" fill="#172a53" stroke="none"/></symbol></svg>