<svg width="582" height="583" xmlns="http://www.w3.org/2000/svg" xmlns:xlink="http://www.w3.org/1999/xlink" xml:space="preserve" overflow="hidden"><g transform="translate(-2502 -242)"><g><path d="M2503 534.5C2503 374.061 2633.06 244 2793.5 244 2953.94 244 3084 374.061 3084 534.5 3084 694.939 2953.94 825 2793.5 825 2633.06 825 2503 694.939 2503 534.5Z" fill="#C00000" fill-rule="evenodd" fill-opacity="1"/><g><g><g><path d="M2747.2 528.488 2683.45 464.738C2679.58 460.865 2673.3 460.865 2669.43 464.738 2665.55 468.611 2665.55 474.89 2669.43 478.763L2716.12 525.459 2580.81 525.459C2575.27 525.459 2570.77 529.955 2570.77 535.5 2570.86 540.983 2575.33 545.382 2580.81 545.381L2716.12 545.381 2669.43 592.238C2665.55 595.956 2665.43 602.111 2669.15 605.984 2669.24 606.078 2669.33 606.172 2669.43 606.263 2673.33 610.068 2679.55 610.068 2683.45 606.263L2747.2 542.513C2751.07 538.794 2751.2 532.639 2747.48 528.767 2747.39 528.672 2747.3 528.579 2747.2 528.488Z" fill="#FFFFFF" fill-rule="nonzero" fill-opacity="1"/></g></g></g><g><g><g><path d="M2860.64 540.985 2924.14 604.485C2928 608.343 2934.25 608.343 2938.11 604.485 2941.97 600.627 2941.97 594.373 2938.11 590.515L2891.6 544.001 3026.38 544.001C3031.9 544.001 3036.38 539.524 3036.38 534 3036.29 528.539 3031.84 524.157 3026.38 524.158L2891.6 524.158 2938.11 477.485C2941.97 473.781 2942.09 467.65 2938.39 463.793 2938.3 463.699 2938.2 463.606 2938.11 463.515 2934.23 459.724 2928.03 459.724 2924.14 463.515L2860.64 527.015C2856.78 530.719 2856.66 536.849 2860.36 540.707 2860.45 540.802 2860.54 540.894 2860.64 540.985Z" fill="#FFFFFF" fill-rule="nonzero" fill-opacity="1"/></g></g></g><g><g><g><path d="M213.36 120.015 149.86 56.515C146.002 52.6572 139.748 52.6572 135.89 56.515 132.032 60.3728 132.032 66.6272 135.89 70.485L182.404 116.999 47.625 116.999C42.1015 116.999 37.6238 121.476 37.6238 127 37.7104 132.462 42.1629 136.843 47.625 136.843L182.404 136.843 135.89 183.515C132.032 187.219 131.908 193.35 135.612 197.207 135.703 197.301 135.796 197.395 135.89 197.485 139.775 201.276 145.975 201.276 149.86 197.485L213.36 133.985C217.218 130.281 217.341 124.151 213.638 120.293 213.547 120.198 213.455 120.106 213.36 120.015Z" fill="#FFFFFF" fill-rule="nonzero" fill-opacity="1" transform="matrix(-1.8442e-16 -1.00394 1 -1.83697e-16 2672 518)"/></g></g></g><g><g><g><path d="M2805.99 752.36 2869.49 688.86C2873.34 685.002 2873.34 678.748 2869.49 674.89 2865.63 671.032 2859.37 671.032 2855.51 674.89L2809 721.404 2809 586.625C2809 581.101 2804.52 576.624 2799 576.624 2793.54 576.71 2789.16 581.163 2789.16 586.625L2789.16 721.404 2742.48 674.89C2738.78 671.032 2732.65 670.908 2728.79 674.612 2728.7 674.703 2728.61 674.796 2728.51 674.89 2724.72 678.775 2724.72 684.975 2728.51 688.86L2792.01 752.36C2795.72 756.218 2801.85 756.341 2805.71 752.638 2805.8 752.547 2805.89 752.455 2805.99 752.36Z" fill="#FFFFFF" fill-rule="nonzero" fill-opacity="1"/></g></g></g></g></g></svg>