<svg xmlns="http://www.w3.org/2000/svg" viewBox="0 0 38 38"><defs><style>.a{fill:#fff}.b{fill:#e00}</style></defs><path d="M28 1H10a9 9 0 0 0-9 9v18a9 9 0 0 0 9 9h18a9 9 0 0 0 9-9V10a9 9 0 0 0-9-9Z"/><path d="M10.0986 22.19a.625.625 0 0 1-.2548-1.1959l2.7407-1.2202a.625.625 0 1 1 .5088 1.1416l-2.7408 1.2202a.619.619 0 0 1-.2539.0542ZM8.832 25.4907a.625.625 0 0 1-.2549-1.1958l2.7403-1.2202a.625.625 0 1 1 .5087 1.1416L9.086 25.4365a.6173.6173 0 0 1-.2539.0542ZM26.4277 14.9194a.6247.6247 0 0 1-.2539-1.1958l2.7412-1.2202a.6247.6247 0 1 1 .5078 1.1416l-2.7412 1.2202a.6156.6156 0 0 1-.2539.0542ZM25.1611 18.2202a.6247.6247 0 0 1-.2539-1.1958l2.7403-1.2202a.6247.6247 0 1 1 .5078 1.1416L25.415 18.166a.6158.6158 0 0 1-.2539.0542Z" class="a"/><path d="M18.9517 28.6338a9.593 9.593 0 0 1-6.1226-2.2173.625.625 0 0 1 .7959-.9639 8.3794 8.3794 0 0 0 13.7129-6.1045.61.61 0 0 1 .6504-.5981.6249.6249 0 0 1 .5976.6509 9.6552 9.6552 0 0 1-9.6342 9.2329ZM9.9746 19.226l-.0288-.0004a.6254.6254 0 0 1-.5962-.6528 9.6291 9.6291 0 0 1 15.7559-6.9893.6253.6253 0 0 1-.797.9639 8.3781 8.3781 0 0 0-13.71 6.082.6253.6253 0 0 1-.6239.5967Z" class="b"/></svg>