<svg xmlns="http://www.w3.org/2000/svg" viewBox="0 0 80 80"><g fill="none" fill-rule="evenodd"><path fill="#ED7100" d="M0 0h80v80H0z"/><path fill="#FFF" d="M63 52.917 41 65.295v-11.33l10.833-5.98 4.237 2.447 1-1.732L53 46.35V34.06l10-5.386v24.243Zm-34 5.388V47.047l7-3.818v1.77a1 1 0 0 0 1.447.895L39 45.118v7.667l-10 5.52Zm-12-6.99v-24.72l22-11.917V25.904l-11.019 5.968-4.534-2.267-.894 1.789L27 33.618V45.86l-10 5.455Zm26.447-8.421a1 1 0 0 0 .553-.905v-3.063l7-3.788V46.16l-10 5.52v-7.563l2.447-1.224ZM38 38.608l4-2.038v4.815l-4 1.996v-4.773Zm-1.459-1.497A1 1 0 0 0 36 38v2.952l-7 3.818V33.595l10-5.417v7.662l-2.459 1.27ZM51 21.678v11.188l-7 3.8v-1.741c-.004-.347-.263-.667-.56-.846a.994.994 0 0 0-.974-.031L41 34.806v-7.711l10-5.417Zm13.513 4.463-.01-.004.001-.001-5.141-3-1.008 1.727 3.601 2.1L53 31.79v-11.79a1 1 0 0 0-1.477-.88L41 24.82V14.728l3.376 1.949 1-1.733-4.876-2.815-.003.006a1 1 0 0 0-.974-.014l-24 13A1 1 0 0 0 15 26v27c0 .353.187.679.489.859.002.002.005.002.007.003l5.143 3 1.007-1.726-3.612-2.107L27 48.138V60a1 1 0 0 0 1.483.875L39 55.07V65.258l-3.639-2.122-1.007 1.727 5.113 2.983c.01.007.017.016.028.022a1 1 0 0 0 .995.008l24-13.502c.315-.178.51-.511.51-.872V27c0-.353-.186-.68-.487-.86Z"/></g></svg>