<svg xmlns="http://www.w3.org/2000/svg" viewBox="0 0 80 80"><g fill="none" fill-rule="evenodd"><path fill="#ED7100" d="M0 0h80v80H0z"/><path fill="#FFF" d="m53.75 41.158-4.916 2.878 8.673 5.102A1 1 0 0 1 58 50v6.277l5-2.857v-6.847l-9.25-5.415Zm-13.245 6.028L56 56.256v-5.684l-9.648-5.676a.998.998 0 0 1 .002-1.725l15.649-9.16-4.996-2.855-33.5 19.706a.996.996 0 0 1-1.003.006L17 47.723v5.697l5.994 3.425 16.501-9.659a.998.998 0 0 1 1.01 0ZM26.25 38.841l4.916-2.878-8.673-5.101A1.002 1.002 0 0 1 22 30v-6.277l-5 2.857v6.847l9.25 5.414Zm13.25-6.024L24 23.744v5.684l9.507 5.592c.147.087.27.211.357.359l.073.124a1 1 0 0 1-.36 1.366l-15.58 9.12 4.996 2.855 33.5-19.706a.999.999 0 0 1 1.003-.006L63 32.277V26.58l-5.994-3.425-16.45 9.629c-.31.203-.719.231-1.056.033Zm25.005 2.046L55.729 40l8.776 5.137A.999.999 0 0 1 65 46v8c0 .359-.192.69-.504.868l-7 4a.996.996 0 0 1-1.001-.005L40 49.207l-16.495 9.656a.998.998 0 0 1-1.001.005l-7-4A.999.999 0 0 1 15 54v-8c0-.355.188-.684.495-.863L24.271 40l-8.776-5.137A1 1 0 0 1 15 34v-8c0-.359.192-.691.504-.868l7-4a.995.995 0 0 1 1.001.005L40 30.792l16.495-9.655a1 1 0 0 1 1.001-.005l7 4A.997.997 0 0 1 65 26v8a1 1 0 0 1-.495.863ZM46 62.42l-6 3.428L35.016 63l5.48-3.132A.999.999 0 0 0 41 59v-4h-2v3.42l-5 2.857V58h-2v5c0 .359.192.69.504.868l7 4a.996.996 0 0 0 .992 0l7-4A.999.999 0 0 0 48 63v-5h-2v4.42ZM34 22h-2v-5c0-.359.192-.691.504-.868l7-4a.998.998 0 0 1 .992 0l7 4A.997.997 0 0 1 48 17v5h-2v-3.277l-5 2.857V25h-2v-4c0-.359.192-.691.504-.868L44.984 17 40 14.152l-6 3.428V22Z"/></g></svg>