<svg xmlns="http://www.w3.org/2000/svg" viewBox="0 0 80 80"><g fill="none" fill-rule="evenodd"><path fill="#ED7100" d="M0 0h80v80H0z"/><path fill="#FFF" d="M37 68h6v-2h-6v2Zm26-28h2v-5h-2v5Zm-48 0h2v-5h-2v5Zm25 16.158L31.699 61h16.602L40 56.158ZM65 27v5h-2v-3.852c-12.668 1.952-21.451 9.836-22 19.88v6.398l3 1.75V51c.281-6.467 5.068-10.755 11.687-10.466a9.637 9.637 0 0 1 6.727 3.136 9.633 9.633 0 0 1 2.539 6.975 7.907 7.907 0 0 1-2.573 5.52 7.915 7.915 0 0 1-5.724 2.084 6.525 6.525 0 0 1-4.554-2.124 6.524 6.524 0 0 1-1.719-4.722 5.415 5.415 0 0 1 1.763-3.783 5.388 5.388 0 0 1 3.922-1.428l-.088 1.998a3.421 3.421 0 0 0-2.483.905 3.427 3.427 0 0 0-1.116 2.395 4.57 4.57 0 0 0 4.363 4.76 5.948 5.948 0 0 0 4.284-1.56 5.914 5.914 0 0 0 1.927-4.132 7.643 7.643 0 0 0-2.016-5.536 7.645 7.645 0 0 0-5.339-2.49c-5.511-.24-9.369 3.181-9.601 8.511l.001 6.3 6.504 3.793A1.001 1.001 0 0 1 52 63H28a1 1 0 0 1-.504-1.864L34 57.342V51c-.231-5.289-4.118-8.7-9.637-8.468a7.654 7.654 0 0 0-5.341 2.49 7.647 7.647 0 0 0-2.014 5.535 5.914 5.914 0 0 0 1.927 4.133 5.914 5.914 0 0 0 4.284 1.56 4.571 4.571 0 0 0 4.363-4.76 3.427 3.427 0 0 0-1.116-2.395 3.424 3.424 0 0 0-2.484-.905l-.087-1.998a5.371 5.371 0 0 1 3.921 1.428 5.412 5.412 0 0 1 1.764 3.783 6.524 6.524 0 0 1-1.719 4.722 6.525 6.525 0 0 1-4.554 2.124 7.9 7.9 0 0 1-5.724-2.084 7.907 7.907 0 0 1-2.573-5.52 9.628 9.628 0 0 1 2.538-6.974 9.634 9.634 0 0 1 6.727-3.137c.211-.009.42-.013.626-.013 6.299 0 10.827 4.214 11.098 10.436l.001 5.22 3-1.75v-6.428c-.533-10.003-9.32-17.897-22-19.85V32h-2v-5a1 1 0 0 1 .489-.859l4.996-2.998 1.03 1.714-2.646 1.588c9.5 1.856 16.779 6.96 20.131 13.806v-3.25c0-7.066-4.126-13.63-10.319-16.507l-2.148 1.352-1.066-1.692 2.599-1.637a1 1 0 0 1 .926-.074c5.248 2.241 9.237 6.825 11.006 12.265 1.763-5.446 5.743-10.03 10.98-12.266a.996.996 0 0 1 .92.072l2.63 1.637-1.056 1.698-2.18-1.357C45.115 23.36 41 29.926 41 37v3.27c3.353-6.864 10.632-11.969 20.131-13.825l-2.646-1.588 1.03-1.714 4.996 2.997A1 1 0 0 1 65 27ZM35.515 16.857l-1.03-1.714 5-3a.997.997 0 0 1 1.03 0l5 3-1.03 1.714L41 14.767V19h-2v-4.234l-3.485 2.091Z"/></g></svg>