<svg xmlns="http://www.w3.org/2000/svg" viewBox="0 0 68.28 68.89"><defs><style>.cls-1{fill:none;stroke:#fff;stroke-linecap:round;stroke-linejoin:round;stroke-width:3px}</style></defs><g id="Layer_2" data-name="Layer 2"><g id="Layer_1-2" data-name="Layer 1"><path d="m61.62 56.84 5.16-1.88V1.5L45.02 9.46 23.26 1.5 1.5 9.46v53.45l21.76-7.95 21.76 7.95 9.43-3.43" class="cls-1"/><circle cx="44.55" cy="35.87" r="12.41" class="cls-1"/><path d="m51.43 47.33 2.71 4.53M51.543 54.1l5.788-3.473 7.981 13.299-5.788 3.473zM8.15 8.63h2.87v2.39H8.15zM30.32 16.24h2.87v2.39h-2.87zM56.76 13.06h2.87v2.39h-2.87zM7.83 42.52h2.87v2.39H7.83z" class="cls-1"/><path d="M40.1 32h5v4.16h-5z" style="fill:#fff;stroke:#fff;stroke-linecap:round;stroke-linejoin:round;stroke-width:3px"/><path d="M2.24 36.8c3.44-.66 4.46-6.55 7.86-9 2.94-2.13 6.71-.66 8.34-5.08 1.06-2.85-2-7.64.17-9.82 1.69-1.74 7.85 1.8 8.51-3.11.46-3.44 9 1.64 8-.33a15.08 15.08 0 0 1-.82-3.76M15.19 57c3.54-3.08 4-10.43 7.91-9.8 1.87.3 3.93 3.51 7 1.28 1.26-.91 4.65 2.74 7.34 4.53 2.08 1.39 3.78 7.3 3.78 7.3" class="cls-1"/></g></g></svg>