<svg xmlns="http://www.w3.org/2000/svg" viewBox="0 0 64 64" fill="#fff" fill-rule="nonzero" stroke="none" stroke-linecap="round" stroke-linejoin="round"><path d="M40.834 19.86C38.359 18.06 35.308 17 32 17V2c6.62 0 12.725 2.122 17.676 5.727z" fill="#ffebee"/><path d="M46.274 27.359a14.97 14.97 0 0 0-5.44-7.498l8.842-12.133a29.94 29.94 0 0 1 10.871 14.991z" fill="#ffcdd2"/><path d="M46.277 36.633c.47-1.458.724-3.015.724-4.633s-.255-3.181-.726-4.641l14.274-4.641A30.15 30.15 0 0 1 62 32c0 3.233-.506 6.343-1.444 9.256z" fill="#ef9a9a"/><path d="M46.274 36.641a14.97 14.97 0 0 1-5.436 7.495l8.838 12.137a29.94 29.94 0 0 0 10.871-14.99z" fill="#e57373"/><path d="M40.834 44.14C38.359 45.94 35.308 47 32 47v15c6.62 0 12.725-2.122 17.676-5.727z" fill="#ef5350"/><path d="M23.166 44.14C25.641 45.94 28.692 47 32 47v15c-6.62 0-12.725-2.122-17.676-5.727z" fill="#f44336"/><path d="M17.727 36.641a14.97 14.97 0 0 0 5.436 7.495l-8.838 12.137a29.94 29.94 0 0 1-10.871-14.99z" fill="#e53935"/><path d="M17.724 36.633C17.254 35.175 17 33.618 17 32s.255-3.181.726-4.641L3.453 22.717A30.15 30.15 0 0 0 2 32c0 3.233.506 6.343 1.444 9.256z" fill="#d32f2f"/><path d="M17.727 27.359a14.97 14.97 0 0 1 5.44-7.498L14.324 7.727A29.94 29.94 0 0 0 3.453 22.718z" fill="#c62828"/><path d="M23.166 19.86C25.641 18.06 28.692 17 32 17V2c-6.62 0-12.725 2.122-17.676 5.727z" fill="#b71c1c"/><path d="M43.25 32c0-6.233-5.018-11.25-11.25-11.25V32z" fill="#ff8a80"/><path d="M43.25 32c0 6.233-5.018 11.25-11.25 11.25V32z" fill="#ff5252"/><path d="M20.75 32c0 6.233 5.018 11.25 11.25 11.25V32z" fill="#ff1744"/><path d="M20.75 32c0-6.233 5.018-11.25 11.25-11.25V32z" fill="#d50000"/></svg>