<svg xmlns="http://www.w3.org/2000/svg" preserveAspectRatio="xMidYMid" viewBox="0 0 120 60"><g fill="#231f20"><path d="M14.89035682 8.62725803c-.56504602-.577622-1.34959248-.93333024-2.22353-.93333024-.87196211 0-1.65008848.35570824-2.20805668.93333024h-.01459792c-.5632906.57321053-.91289816 1.3733043-.91289816 2.257382 0 .8893279.34960756 1.68439604.91289816 2.25196563l.01459792.01574377c.5579682.57259637 1.33609457.92333513 2.20805667.92333513.87393753 0 1.658484-.35073876 2.22353001-.92333513l.00641667-.01574377c.56586987-.56756959.91081388-1.36263772.91081388-2.25196563 0-.8840777-.344944-1.68417147-.91081388-2.257382h-.00641667zm-2.22353 43.67874097c.87393752 0 1.65848398-.36229794 2.22353-.9292545l.00641667-.01636252c.56586987-.56600668.91081388-1.36615544.91081388-2.2454321 0-.88910447-.344944-1.68567938-.91081388-2.26179345h-.00641667c-.56504602-.58303836-1.34959248-.93550848-2.22353-.93550848-.87196211 0-1.65008848.35247012-2.20805668.93550848h-.01459792c-.5632906.57611407-.91289816 1.37268898-.91289816 2.26179346 0 .87927665.34960756 1.67942541.91289816 2.24543209l.01459792.01636251c.5579682.56695657 1.33609457.92925451 2.20805667.92925451zm17.08387102-9.66773827c.7766448-.20789675 1.47992073-.71504764 1.9090434-1.48219409l.05788751-.11213135c.38176537-.72638338.45183996-1.5664026.24759629-2.31149288-.20578139-.79596074-.7097522-1.50207317-1.46214199-1.94115347l-.04411459-.03031878c-.73312833-.40987528-1.56761137-.49910943-2.33432294-.28641048-.77982793.19806894-1.4807996.72660682-1.90756184 1.48721972-.4323585.75581185-.52262841 1.62464537-.31596932 2.4245157.2139019.78702666.71381302 1.4976617 1.46148313 1.94176764h.00469792c.74915167.43868842 1.59652992.51697756 2.38338066.310198zM15.88304394 26.7300402c-.82312324-.83521817-1.95903382-1.35872928-3.21621713-1.35872928-1.25548289 0-2.3881015.52351111-3.20952317 1.35872928-.81928241.83437943-1.32407592 1.98521196-1.32407592 3.26453492s.5047935 2.43517997 1.32407592 3.27938836c.82142168.8301914 1.95404028 1.34890147 3.20952317 1.34890147 1.25718331 0 2.3930939-.51871007 3.21621714-1.34890147.82076397-.84420839 1.32555748-2.0000654 1.32555748-3.27938836s-.50479351-2.4301555-1.32555748-3.26453492zm-1.8085664-5.43798797c1.82458974.30584268 3.46359342 1.19517059 4.71605818 2.47929574h.009625c.19930628.20197738.39312402.42444915.57316884.64697592l3.13088691-1.84276068c-.42121985-1.29417641-.44053517-2.6472659-.10228855-3.91676104.44629756-1.69880148 1.52903345-3.22025185 3.15190379-4.17323889l.05317813-.03445524c1.60531044-.92422888 3.42990019-1.11643458 5.07697053-.66250082 1.66792222.4548275 3.17270182 1.56160041 4.10919726 3.21064861v.0048125c.93243347 1.640113 1.12131267 3.5223534.67671667 5.21635382-.4437183 1.69902606-1.53051616 3.23030426-3.1518488 4.17832066l-.4276411.25670243h-.04334688c-1.50000605.72660568-3.14861181.84024266-4.66304964.4345004-1.24346424-.33543843-2.38403951-1.04222118-3.2772935-2.04429232l-3.12594837 1.83728932c.35926693.96767319.55774936 2.00989322.55774936 3.11164164 0 1.09610748-.19848243 2.15379628-.55774936 3.12621552l3.12594837 1.83254212c.89325399-1.01781834 2.03382926-1.70885388 3.2772935-2.04496149 1.66874608-.46398501 3.51753583-.26680983 5.13404106.691872l.1037094.04908755v.0048125c1.56113626.9637086 2.6093562 2.45003458 3.04813596 4.12923656.444596 1.6843949.2557168 3.5672506-.67671667 5.21065787l-.05635209.11452615-.00653125-.00985418c-.93627545 1.58449418-2.41230035 2.65770789-4.0416458 3.1116405-1.67110534.44823781-3.52077394.25670243-5.13486376-.6880197v-.01306252c-1.62287034-.95454995-2.70560623-2.47923845-3.1519038-4.17502638-.3382489-1.26357462-.31893358-2.6166641.10228856-3.91084052l-3.13088691-1.83795848c-.18004482.22252677-.37386256.43517072-.57316883.6371481l-.009625.00985417c-1.25246477 1.27932296-2.89146845 2.16865087-4.7160582 2.46466459v3.68094374c1.30053478.2765815 2.4644862.93841201 3.37678165 1.86677277l.00492708.0097396c1.22272236 1.23833532 1.9798307 2.96355057 1.9798307 4.86036598 0 1.89056145-.75710834 3.60594888-1.9798307 4.85081774l-.00492708.01937606c-1.2315029 1.2441997-2.92016814 2.01486386-4.78443237 2.01486386-1.85438829 0-3.54799208-.77066416-4.77625684-2.01486386h-.00492708v-.01937606c-1.22414893-1.24486886-1.98295883-2.9602563-1.98295883-4.85081774 0-1.89681541.7588099-3.62203066 1.98295883-4.86036598v-.0097396h.00492708c.91141774-.92836076 2.07772843-1.59019127 3.37376351-1.86677277v-3.68094374C9.43947676 38.4011049 7.8037112 37.511777 6.552948 36.23245404l-.01284479-.00985418c-1.56179397-1.59493731-2.54010318-3.79284936-2.54010318-6.22802934 0-2.43015549.9783092-4.62828982 2.54010318-6.22322714h.0128448c1.2507632-1.28412516 2.88652875-2.17345307 4.7113385-2.47929575V17.6266288c-1.29598811-.28618245-2.4622988-.94801296-3.37371654-1.87157039H7.8856429v-.00985417c-1.22414893-1.24983835-1.98295883-2.96349443-1.98295883-4.86058942 0-1.8870426.7588099-3.6156644 1.98295883-4.86036541l.00492708-.00503021c1.22826476-1.24916862 2.92186855-2.0192194 4.77625684-2.0192194 1.86426423 0 3.55292948.77005078 4.78443236 2.0192194v.0050302h.00492709c1.22272236 1.24470101 1.9798307 2.97332283 1.9798307 4.86036542 0 1.897095-.75710834 3.61075107-1.9798307 4.86058942l-.00492709.00985417c-.91229544.92355743-2.07624686 1.58538794-3.37678163 1.87157498v3.66541883zm17.5852637-2.44500895-.02634271-.04015004c-.4317008-.7400635-1.12065496-1.23414729-1.88270298-1.44706968-.78685074-.2124205-1.634229-.1234648-2.38810035.31673155h.00469792c-.7523898.43433311-1.2554829 1.14519273-1.46620282 1.94093004-.2066591.7902648-.11638918 1.66390165.31596932 2.42473798l.0143802.01965106c.43340122.75078508 1.12295923 1.25464054 1.89318393 1.45751167.77313167.22247177 1.63571055.12849043 2.37844211-.31170591l.04033334-.01965106c.73137292-.44410594 1.21860654-1.1458069 1.42180865-1.91647106.2074818-.79506813.12451085-1.66390165-.30548838-2.4245157M45.55082628 19.92355125h3.49333582v10.85151698l5.0376799-5.67028757h4.18860124l-6.08178516 6.56916372 6.10702672 8.32710171h-3.9998309l-5.2516918-7.43799724v7.43799724h-3.49333582V19.92355125M62.32844122 32.6171586c0 1.8477863 1.30602217 4.53403005 4.45254857 4.53403005 1.94696132 0 3.22829078-1.03239336 3.89282494-2.38525941.34790713-.65674874.50814164-1.35872814.56191904-2.0892434.02414271-.7067266-.1070094-1.44204406-.40223225-2.09466091-.61240446-1.40719923-1.97165518-2.62738683-4.07830215-2.62738683-2.82495968 0-4.42675815 2.33114853-4.42675815 4.63789422v.02462398zm12.37264253 7.38388749h-3.49498238v-2.1430747c-.9301292 1.73325557-2.87763938 2.6027044-4.93160666 2.6027044-4.69344974 0-7.43884045-3.71936242-7.43884045-7.92202977 0-4.6928427 3.33255246-7.8937185 7.43884045-7.8937185 2.66637175 0 4.29231407 1.43791218 4.93160666 2.63308277v-2.17322963h3.49498238v14.89626543M78.65646662 27.84580332h-1.81032297v-2.74102266h1.81032297v-.8394062c0-4.42603172 3.30730975-4.69284155 5.8150924-4.72227002v2.73622046c-.88184033 0-2.32011116 0-2.32011116 2.09404675v.73140901h2.32011117v2.74102266h-2.32011117v12.15524277h-3.49498124V27.84580332M86.84709302 19.92355125h3.49223811v10.85151698l5.0386126-5.67028757h4.18860124l-6.08178515 6.56916372 6.10593016 8.32710171h-3.99983204l-5.2515268-7.43799724v7.43799724h-3.49223812V19.92355125M103.62454296 32.6171586c0 1.8477863 1.30547331 4.53403005 4.452552 4.53403005 1.9442159 0 3.22554422-1.03239336 3.89117036-2.38525941.34900942-.65674874.50979278-1.35872814.5624782-2.0892434.0241771-.7067266-.10702084-1.44204406-.40278339-2.09466091-.61131363-1.40719923-1.97055862-2.62738683-4.07665788-2.62738683-2.82550968 0-4.4267593 2.33114853-4.4267593 4.63789422v.02462398zm12.37154482 7.38388749h-3.49388697v-2.1430747c-.93286888 1.73325557-2.8787348 2.6027044-4.93159863 2.6027044-4.69345548 0-7.43665077-3.71936242-7.43665077-7.92202977 0-4.6928427 3.33145476-7.8937185 7.43665077-7.8937185 2.66471601 0 4.29230375 1.43791218 4.93159863 2.63308277v-2.17322963h3.49388697v14.89626543"/></g></svg>