<svg xmlns="http://www.w3.org/2000/svg" xml:space="preserve" viewBox="0 0 527.219 140.828"><path fill="#FFF" d="m67.269 38.855-18.768-8.359-18.764 8.353 18.764 10.84v21.669L65.124 59.28z"/><path fill="#68C28D" d="m16.102 30.976 13.635 7.873 18.764-8.353 18.768 8.359-2.145 20.425-16.623 12.078v15.745l28.7-20.851 3.706-35.275L48.501 16.55z"/><path fill="#243A4C" d="M48.501 2.72 2.575 23.168l5.256 50.003L48.5 102.72l40.674-29.549 5.255-50L48.501 2.72zM77.2 66.254 48.501 87.103V49.689L16.102 30.976 48.501 16.55l32.406 14.427L77.2 66.254z"/><g fill="#243A4C"><path d="M127.581 29.967h-19.48V16.548h54.757v13.419h-19.371v57.138h-15.906V29.967zM166.666 16.548h44.259v13.419h-28.244v14.177h24.023v13.311h-24.023v16.233h29.327v13.417h-45.342V16.548z"/><path d="M244.896 15.251c8.766 0 16.125 4.328 20.885 9.2l-8.766 9.845c-3.571-3.247-6.926-5.303-11.903-5.303-9.848 0-17.53 8.549-17.53 22.725 0 14.501 6.816 22.942 17.097 22.942 5.843 0 9.956-2.489 13.419-6.277l8.766 9.633c-5.844 6.816-13.638 10.387-22.4 10.387-18.289 0-33.222-12.443-33.222-36.143 0-23.376 15.473-37.009 33.654-37.009zM286.662 29.967h-19.478V16.548h54.754v13.419h-19.37v57.138h-15.907V29.967z"/><path d="M318.072 51.503c0-23.052 13.095-36.252 32.032-36.252 19.045 0 32.031 13.308 32.031 36.252 0 23.048-12.985 36.899-32.031 36.899-18.937 0-32.032-13.851-32.032-36.899zm47.723 0c0-14.068-6.061-22.51-15.691-22.51-9.524 0-15.691 8.441-15.691 22.51 0 14.176 6.167 23.157 15.691 23.157 9.63 0 15.691-8.981 15.691-23.157zM446.852 16.548h16.017v70.557h-16.017V16.548zM500.401 15.251c8.765 0 16.123 4.328 20.884 9.2l-8.765 9.845c-3.571-3.247-6.925-5.303-11.905-5.303-9.846 0-17.529 8.549-17.529 22.725 0 14.501 6.817 22.942 17.098 22.942 5.843 0 9.954-2.489 13.417-6.277l8.767 9.633c-5.845 6.816-13.636 10.387-22.401 10.387-18.29 0-33.222-12.443-33.222-36.143 0-23.376 15.474-37.009 33.656-37.009zM426.464 16.548v45.259l-23.807-45.259h-16.342v70.557h15.259V41.961l23.698 45.144h16.341V16.548z"/></g><g fill="#243A4C"><path d="M385.591 106.379h1.474v6.966l-.066 3.148c1.641-1.373 3.583-2.512 5.559-2.512 4.287 0 6.432 3.215 6.432 8.206 0 5.459-3.316 8.675-7.102 8.675-1.54 0-3.315-.737-4.822-1.909H387l-.168 1.507h-1.239v-24.081zm6.23 23.177c3.249 0 5.594-3.015 5.594-7.368 0-3.952-1.407-6.899-5.092-6.899-1.607 0-3.349.938-5.258 2.646v9.546c1.775 1.505 3.516 2.075 4.756 2.075zM403.178 136.422c1.977 0 3.316-1.809 4.119-4.254l.436-1.406-6.598-16.379h1.607l3.886 10.115c.502 1.34 1.139 3.081 1.741 4.488h.135c.502-1.407 1.037-3.148 1.473-4.488l3.45-10.115h1.507l-6.363 18.087c-.904 2.68-2.512 5.325-5.393 5.325-.603 0-1.205-.134-1.641-.335l.334-1.307a3.75 3.75 0 0 0 1.307.269zM433.158 107.986c2.578 0 4.555 1.272 5.727 2.646l-.904 1.005c-1.205-1.34-2.812-2.244-4.822-2.244-4.823 0-7.838 3.852-7.838 9.981s2.981 10.081 7.703 10.081c2.278 0 3.986-.904 5.594-2.713l.904.972c-1.674 1.942-3.684 3.148-6.564 3.148-5.426 0-9.244-4.455-9.244-11.488-.001-7 3.817-11.388 9.444-11.388zM449.608 113.981c3.885 0 7.234 3.081 7.234 8.474 0 5.325-3.35 8.407-7.234 8.407-3.853 0-7.201-3.082-7.201-8.407-.001-5.392 3.348-8.474 7.201-8.474zm0 15.575c3.248 0 5.693-2.881 5.693-7.101 0-4.254-2.445-7.167-5.693-7.167-3.25 0-5.661 2.913-5.661 7.167 0 4.22 2.411 7.101 5.661 7.101zM461.668 114.383h1.271l.135 2.981h.1c1.072-1.977 2.646-3.383 4.556-3.383.603 0 1.071.067 1.608.335l-.336 1.34c-.535-.201-.837-.269-1.473-.269-1.441 0-3.148 1.105-4.389 4.12v10.952h-1.473v-16.076zM477.612 113.981c3.818 0 6.163 2.713 6.163 7.436 0 .401 0 .804-.067 1.206H472.12c.066 4.052 2.445 6.966 6.062 6.966 1.741 0 3.114-.569 4.32-1.439l.603 1.139c-1.272.77-2.713 1.574-5.058 1.574-4.119 0-7.436-3.148-7.436-8.407s3.417-8.475 7.001-8.475zm4.755 7.502c0-4.119-1.842-6.229-4.722-6.229-2.747 0-5.191 2.378-5.526 6.229h10.248zM486.758 119.34c0-6.966 3.785-11.354 9.111-11.354 5.291 0 9.076 4.388 9.076 11.354 0 7-3.785 11.522-9.076 11.522-5.326 0-9.111-4.522-9.111-11.522zm16.58 0c0-6.096-3.015-9.947-7.469-9.947-4.488 0-7.503 3.852-7.503 9.947 0 6.13 3.015 10.115 7.503 10.115 4.454 0 7.469-3.985 7.469-10.115zM509.069 126.475c1.607 1.809 3.919 2.98 6.498 2.98 3.35 0 5.492-1.809 5.492-4.421 0-2.746-1.809-3.65-3.984-4.622l-3.35-1.507c-1.91-.838-4.455-2.211-4.455-5.493 0-3.182 2.746-5.426 6.397-5.426a8.401 8.401 0 0 1 6.163 2.646l-.904 1.038c-1.273-1.373-3.049-2.277-5.259-2.277-2.914 0-4.856 1.541-4.856 3.952 0 2.546 2.211 3.517 3.818 4.254l3.35 1.474c2.444 1.105 4.621 2.479 4.621 5.861 0 3.383-2.779 5.929-7.066 5.929-3.216 0-5.694-1.374-7.436-3.316l.971-1.072z"/></g></svg>