<svg width="461" height="460" viewBox="0 0 461 460" fill="none" xmlns="http://www.w3.org/2000/svg">
<path fill-rule="evenodd" clip-rule="evenodd" d="M350.478 330.396C358.544 330.396 365.082 323.858 365.082 315.793C365.082 307.728 358.544 301.189 350.478 301.189C342.413 301.189 335.875 307.728 335.875 315.793C335.875 323.858 342.413 330.396 350.478 330.396ZM0 313.967H30.117L61.926 389.908H63.2795L95.0885 313.967H125.205V426.996H101.518V353.427H100.559L70.6678 426.444H54.5377L24.6463 353.152H23.6875V426.996H0V313.967ZM170.973 428.596C162.701 428.596 155.839 426.481 150.388 422.249C144.936 418.018 142.21 411.708 142.21 403.319C142.21 396.991 143.733 392.024 146.778 388.418C149.824 384.812 153.809 382.181 158.735 380.526C163.698 378.833 169.037 377.729 174.752 377.214C182.272 376.479 187.648 375.706 190.882 374.896C194.116 374.087 195.732 372.321 195.732 369.598V369.267C195.732 365.772 194.604 363.067 192.348 361.154C190.13 359.241 186.972 358.284 182.873 358.284C178.549 358.284 175.109 359.204 172.552 361.044C169.996 362.883 168.304 365.22 167.476 368.053L145.255 366.287C146.91 358.56 151.008 352.434 157.55 347.908C164.13 343.383 172.609 341.12 182.986 341.12C189.416 341.12 195.431 342.114 201.034 344.1C206.636 346.087 211.148 349.196 214.569 353.427C218.029 357.622 219.758 363.086 219.758 369.819V426.996H196.973V415.24H196.296C194.191 419.177 191.032 422.397 186.821 424.899C182.648 427.364 177.365 428.596 170.973 428.596ZM177.854 412.37C183.118 412.37 187.442 410.88 190.826 407.9C194.21 404.883 195.901 401.148 195.901 396.696V387.7C194.962 388.326 193.495 388.878 191.502 389.356C189.547 389.834 187.442 390.258 185.186 390.626C182.967 390.957 180.975 391.251 179.207 391.509C174.996 392.097 171.594 393.256 168.999 394.986C166.442 396.715 165.164 399.235 165.164 402.547C165.164 405.784 166.348 408.231 168.717 409.887C171.124 411.543 174.169 412.37 177.854 412.37ZM249.96 453.266C256.615 457.755 265.77 459.999 277.426 459.999C285.698 459.999 293.011 458.785 299.365 456.357C305.719 453.928 310.701 450.323 314.311 445.54C317.958 440.756 319.781 434.851 319.781 427.824V342.224H295.925V356.463H295.022C293.97 354.145 292.428 351.809 290.398 349.454C288.367 347.099 285.717 345.131 282.445 343.548C279.174 341.93 275.114 341.12 270.263 341.12C263.947 341.12 258.119 342.739 252.78 345.977C247.478 349.178 243.211 353.979 239.977 360.381C236.781 366.783 235.183 374.804 235.183 384.444C235.183 393.827 236.744 401.572 239.864 407.679C243.023 413.787 247.253 418.331 252.554 421.311C257.893 424.291 263.815 425.782 270.32 425.782C277.238 425.782 282.69 424.365 286.675 421.532C290.661 418.662 293.443 415.479 295.022 411.984H296.038V427.492C296.038 433.048 294.327 437.04 290.905 439.469C287.521 441.897 283.216 443.111 277.99 443.111C272.689 443.111 268.609 442.155 265.751 440.241C262.932 438.365 261.033 436.286 260.055 434.005L237.834 436.93C239.263 443.332 243.305 448.777 249.96 453.266ZM291.357 401.829C288.198 406.024 283.724 408.121 277.934 408.121C272.031 408.121 267.519 405.987 264.398 401.719C261.277 397.451 259.717 391.656 259.717 384.334C259.717 377.122 261.258 371.235 264.342 366.673C267.462 362.111 271.993 359.83 277.934 359.83C283.762 359.83 288.255 362.056 291.413 366.508C294.571 370.96 296.151 376.902 296.151 384.334C296.151 391.803 294.553 397.635 291.357 401.829ZM338.901 426.996V342.224H362.927V426.996H338.901ZM398.416 423.132C404.807 426.812 412.44 428.651 421.313 428.651C429.021 428.651 435.695 427.29 441.335 424.567C446.975 421.808 451.393 417.963 454.589 413.033C457.822 408.102 459.627 402.399 460.003 395.924H437.331C436.616 400.449 434.849 403.945 432.029 406.41C429.209 408.838 425.731 410.052 421.595 410.052C415.993 410.052 411.5 407.845 408.116 403.43C404.77 398.978 403.097 392.704 403.097 384.61C403.097 376.589 404.789 370.389 408.172 366.011C411.556 361.632 416.031 359.443 421.595 359.443C425.995 359.443 429.548 360.749 432.255 363.362C435 365.937 436.692 369.341 437.331 373.572H460.003C459.665 367.023 457.841 361.32 454.532 356.463C451.261 351.606 446.768 347.835 441.053 345.149C435.376 342.463 428.758 341.12 421.201 341.12C412.44 341.12 404.883 342.978 398.528 346.694C392.174 350.374 387.267 355.506 383.808 362.092C380.387 368.642 378.676 376.258 378.676 384.941C378.676 393.514 380.368 401.093 383.752 407.679C387.173 414.265 392.061 419.416 398.416 423.132Z" fill="white"/>
<path fill-rule="evenodd" clip-rule="evenodd" d="M231.09 1.11569e-05C242.978 14.5599 256.089 28.0813 270.268 40.4071C260.822 71.0468 255.736 103.599 255.736 137.339C255.736 171.079 260.822 203.63 270.268 234.27C256.089 246.595 242.977 260.117 231.09 274.676C219.203 260.118 206.093 246.598 191.915 234.273C201.362 203.633 206.448 171.08 206.448 137.339C206.448 103.598 201.362 71.0445 191.915 40.4038C206.092 28.0789 219.203 14.5586 231.09 1.11569e-05ZM164.817 213.089C149.809 202.57 133.881 193.273 117.178 185.345C121.811 170.159 124.303 154.04 124.303 137.338C124.303 120.637 121.811 104.518 117.178 89.3319C133.881 81.4031 149.809 72.1068 164.816 61.5877C170.555 85.906 173.591 111.268 173.591 137.339C173.591 163.41 170.555 188.771 164.817 213.089ZM288.593 137.339C288.593 163.408 291.629 188.769 297.367 213.086C312.374 202.568 328.3 193.272 345.002 185.344C340.369 170.159 337.877 154.04 337.877 137.338C337.877 120.637 340.369 104.518 345.002 89.3323C328.3 81.4042 312.374 72.1087 297.367 61.5905C291.629 85.908 288.593 111.269 288.593 137.339Z" fill="white"/>
</svg>
