<svg xmlns="http://www.w3.org/2000/svg" viewBox="0 0 28 28"><path fill="#232F3E" fill-rule="evenodd" d="M20.052 21 20 7.948 7 8v13.052L20.052 21ZM21 8h2v1h-2v2h2v1h-2v2h2v1h-2v2h2v1h-2v2h2v1h-2v.052a.95.95 0 0 1-.948.948H20v2h-1v-2h-2v2h-1v-2h-2v2h-1v-2h-2v2h-1v-2H8v2H7v-2h-.052A.95.95 0 0 1 6 21.052V21H4v-1h2v-2H4v-1h2v-2H4v-1h2v-2H4v-1h2V9H4V8h2v-.052A.95.95 0 0 1 6.948 7H7V5h1v2h2V5h1v2h2V5h1v2h2V5h1v2h2V5h1v2h.052a.95.95 0 0 1 .948.948V8Zm-6 19H1V13h2v-1H1.062C.477 12 0 12.477 0 13.062v13.876C0 27.523.477 28 1.062 28h13.877c.585 0 1.061-.477 1.061-1.062V25h-1v2ZM28 1.062v13.876c0 .585-.476 1.062-1.061 1.062H24v-1h3V1H13v3h-1V1.062C12 .477 12.477 0 13.062 0h13.877C27.524 0 28 .477 28 1.062Z"/></svg>