<svg xmlns="http://www.w3.org/2000/svg" viewBox="0 0 32 32"><path fill="#232F3E" fill-rule="evenodd" d="m13.133 9.812-2.476-3.095.782-.625L13.764 9h8.529l-1.146-1.147.707-.707 2 2a.5.5 0 0 1 0 .707l-2 2-.707-.707 1.146-1.147h-8.769a.498.498 0 0 1-.391-.187Zm10.721 12.334a.5.5 0 0 1 0 .707l-2 2-.707-.707L22.293 23h-8.529l-2.325 2.907-.782-.625 2.476-3.095a.498.498 0 0 1 .391-.187h8.769l-1.146-1.147.707-.707 2 2Zm6-5.793-2 2-.707-.707 1.146-1.147H17v-1h11.293l-1.146-1.146.707-.707 2 2a.5.5 0 0 1 0 .707ZM5 28.999c-1.102 0-2-.896-2-2a2.001 2.001 0 0 1 4 0c0 1.104-.897 2-2 2Zm7-15c1.103 0 2 .897 2 2A2.002 2.002 0 0 1 12 18c-1.102 0-2-.897-2-2.001 0-1.103.898-2 2-2ZM3 5c0-1.104.898-2 2-2 1.103 0 2 .896 2 2a2.001 2.001 0 0 1-4 0Zm3.947 19.737 4.392-5.817c.214.049.434.08.661.08 1.654 0 3-1.346 3-3.001A3.003 3.003 0 0 0 12 13c-.227 0-.447.03-.661.079L6.947 7.262A2.979 2.979 0 0 0 8 5c0-1.655-1.346-3-3-3S2 3.345 2 5c0 1.654 1.346 3 3 3a2.98 2.98 0 0 0 1.139-.228l-.038.029 4.286 5.677A2.996 2.996 0 0 0 9 15.999c0 1.06.556 1.988 1.387 2.522l-4.286 5.677.038.029A2.979 2.979 0 0 0 5 24c-1.654 0-3 1.345-3 2.999 0 1.655 1.346 3 3 3s3-1.345 3-3c0-.907-.414-1.712-1.053-2.262Z"/></svg>