<svg xmlns="http://www.w3.org/2000/svg" fill="#fff" fill-rule="evenodd" stroke="#000" stroke-linecap="round" stroke-linejoin="round" viewBox="0 0 64 64"><g fill="none" stroke="#464646" stroke-linejoin="miter"><path d="M20.5 52.5h25"/><rect width="36" height="52" x="14.5" y="6.5" rx="5"/></g><g stroke="none"><path fill="#4f4f4f" d="M24.342 2.853c.242 0 .439.191.439.427l1.72 6.399v.395a.433.433 0 0 1-.439.427H20.94a.445.445 0 0 1-.31-.125.42.42 0 0 1-.129-.302v-.357l1.93-6.436c0-.236.197-.427.439-.427z"/><path fill="#7d7c7c" d="M26.061 2.5c.242 0 .439.191.439.427v6.79a.433.433 0 0 1-.439.427h-5.122a.445.445 0 0 1-.31-.125.42.42 0 0 1-.129-.302V2.928c0-.236.197-.427.439-.427z"/><path d="M24.545 3.468h1.215v.474h-1.215zm-1.665 0h1.215v.474H22.88zm-1.664 0h1.215v.474h-1.215zm0 .819h1.215v.475h-1.215zm.007.818h1.215v.475h-1.215zm1.218.819v.475h-1.215v-.475zm-1.215.819h1.215v.469h-1.215zm1.222 1.294h-1.215V7.56h1.215zm.432-3.748h1.215v.475H22.88zm.007.818h1.215v.475h-1.215zm1.218.819V6.4H22.89v-.476zm-1.215.819h1.215v.468H22.89zm1.224 1.294h-1.215V7.56h1.215zm.439-3.748h1.215v.475h-1.215zm.007.818h1.215v.475H24.56zm1.218.819v.475h-1.215v-.478zm-1.215.819h1.215v.466h-1.215zm1.223 1.294h-1.223V7.56h1.216z"/></g></svg>