<svg xmlns="http://www.w3.org/2000/svg" fill="#fff" fill-rule="evenodd" stroke="#000" stroke-linecap="round" stroke-linejoin="round" viewBox="0 0 64 64"><g fill="none" stroke="#464646" stroke-linejoin="miter"><path d="M20.5 52.5h25"/><rect width="36" height="52" x="14.5" y="6.5" rx="5"/></g><g stroke="none"><path fill="#9d5025" d="M20 4.277c0-.774.614-1.397 1.377-1.397h5.247c.763 0 1.377.623 1.377 1.397v5.326c0 .774-.614 1.397-1.377 1.397h-5.247A1.384 1.384 0 0 1 20 9.603z"/><path fill="#f58536" d="M20 3.897c0-.774.614-1.397 1.377-1.397h5.247c.763 0 1.377.623 1.377 1.397v5.326c0 .774-.614 1.397-1.377 1.397h-5.247A1.384 1.384 0 0 1 20 9.223z"/></g></svg>