<svg xmlns="http://www.w3.org/2000/svg" fill="#fff" fill-rule="evenodd" stroke="#000" stroke-linecap="round" stroke-linejoin="round" viewBox="0 0 64 64"><g fill="none" stroke="#464646" stroke-linejoin="miter"><path d="M20.5 52.5h25"/><rect width="36" height="52" x="14.5" y="6.5" rx="5"/></g><g stroke="none"><path fill="#9d5025" d="M20.464 2.12V6.5h-.531v4.125l1.817.875 1.093-5-1.093-5-1.286.619z"/><path fill="#f58536" d="M21.75 1.5v10l1.286-.62V6.5h.531V2.375L21.75 1.5z"/><path fill="#6b3a19" d="m25.5 5.222-2.299.209-.755-.091 2.396-2.351.658 2.233z"/><path fill="#f58536" d="m24.842 2.989.658.317v1.916l-.658-.126V2.989z"/><path fill="#9d5025" d="m22.446 5.34 2.396-.244V2.989l-2.396.624V5.34z"/><path fill="#fbbf93" d="m18 7.778 2.299-.209.755.091-2.396 2.351L18 7.778z"/><path fill="#9d5025" d="M18.658 10.011 18 9.694V7.778l.658.134v2.099z"/><path fill="#f58536" d="m21.054 7.66-2.396.252v2.099l2.396-.624V7.66z"/></g></svg>