<svg xmlns="http://www.w3.org/2000/svg" fill="#fff" fill-rule="evenodd" stroke="#000" stroke-linecap="round" stroke-linejoin="round" viewBox="0 0 64 64"><g fill="none" stroke="#464646" stroke-linejoin="miter"><path d="M20.5 52.5h25"/><rect width="36" height="52" x="14.5" y="6.5" rx="5"/></g><g stroke="none"><path fill="#9d5025" d="M19.5 4.173a1.3 1.3 0 0 1 1.291-1.315h4.919A1.3 1.3 0 0 1 27 4.173v5.012a1.3 1.3 0 0 1-1.291 1.315H20.79a1.3 1.3 0 0 1-1.29-1.315z"/><path fill="#f58536" d="M19.5 3.815A1.3 1.3 0 0 1 20.791 2.5h4.919A1.3 1.3 0 0 1 27 3.815v5.012a1.3 1.3 0 0 1-1.291 1.315H20.79a1.3 1.3 0 0 1-1.29-1.315z"/><path d="M23.176 8.424c-1.073 0-1.709-.92-1.709-2.019 0-1.267.708-2.097 1.709-2.097v-.673h.318v.679c.822 0 1.51.535 1.576 1.41h-.849c-.052-.433-.341-.731-.733-.731v2.751c.451-.075.707-.392.763-.89h.849c-.17.95-.688 1.569-1.606 1.569v.679h-.318zm0-3.432c-.651.061-.866.792-.866 1.417 0 .604.245 1.237.866 1.335z"/></g></svg>