<svg xmlns="http://www.w3.org/2000/svg" fill="#fff" fill-rule="evenodd" stroke="#000" stroke-linecap="round" stroke-linejoin="round" viewBox="0 0 64 64"><g fill="none" stroke="#464646" stroke-linejoin="miter"><path d="M20.5 52.5h25"/><rect width="36" height="52" x="14.5" y="6.5" rx="5"/></g><g stroke="none"><path fill="#9d5125" d="M28.5 7.722v.484c0 .882-.905 1.793-2.019 1.793h-5.96c-1.114 0-2.019-.911-2.019-1.793v-.484z"/><path fill="#f58535" d="M22.35 3c1.004-.002 1.915.626 2.33 1.604.39-.285.893-.321 1.314-.094s.695.68.714 1.185c1.008.09 1.792 1.13 1.792 1.956v.179c0 .888-.905 1.789-2.024 1.789H20.52c-1.115 0-2.021-.9-2.021-1.789v-.178c0-.685.538-1.626 1.294-1.86v-.077c.003-.723.273-1.414.753-1.923s1.128-.793 1.803-.79z"/><path d="M20.924 6.175h.396l.397 2.003.426-1.998h.396l-.589 2.498h-.475zm1.854 0h.741c.448 0 .646.304.646.729s-.246.739-.684.739h-.329v1.034h-.373zm.373 1.168h.265c.2 0 .373-.115.373-.431 0-.27-.101-.434-.4-.434h-.238zm2.762.437v.053c0 .456-.17.894-.721.894-.59 0-.773-.407-.773-1.3s.183-1.3.776-1.3c.664 0 .71.525.71.785v.05h-.372V6.92c0-.231-.065-.498-.334-.487s-.4.182-.4.989.121 1.004.404 1.004c.311 0 .348-.372.348-.607v-.042z"/></g></svg>