<svg xmlns="http://www.w3.org/2000/svg" viewBox="0 0 9.523 5.556"><path fill="#8fa4b1" fill-rule="evenodd" d="M.132 1.257c0 .621 2.073 1.125 4.63 1.125 2.556 0 4.629-.504 4.629-1.125v3.042c0 .621-2.073 1.125-4.63 1.125-2.556 0-4.629-.504-4.629-1.125z"/><path fill="#8fa4b1" fill-rule="evenodd" d="M.132 1.257C.132.636 2.205.132 4.762.132c2.556 0 4.629.504 4.629 1.125S7.318 2.382 4.76 2.382c-2.556 0-4.629-.504-4.629-1.125z"/><path fill="none" stroke="#fff" stroke-linejoin="round" stroke-miterlimit="10" stroke-width=".265" d="M9.39 1.257c0 .621-2.072 1.125-4.629 1.125-2.556 0-4.629-.504-4.629-1.125S2.205.132 4.762.132c2.556 0 4.629.504 4.629 1.125v3.042c0 .621-2.073 1.125-4.63 1.125-2.556 0-4.629-.504-4.629-1.125V1.257"/></svg>