<svg xmlns="http://www.w3.org/2000/svg" viewBox="0 0 48 48"><path fill="#232F3D" fill-rule="evenodd" d="M13 18h11v-2H13v2Zm0-7h22V9H13v2Zm17.083 26.532A7.456 7.456 0 0 1 27.5 38a7.475 7.475 0 0 1-2.417-.407v5.247l2.021-1.714a1 1 0 0 1 1.329.032l1.65 1.541v-5.167ZM27.5 36c3.032 0 5.5-2.467 5.5-5.5S30.532 25 27.5 25a5.506 5.506 0 0 0-5.5 5.5c0 3.033 2.468 5.5 5.5 5.5Zm4.583.424V45a1 1 0 0 1-1.683.731l-2.681-2.504-2.99 2.536A1.001 1.001 0 0 1 23.083 45v-8.452A7.488 7.488 0 0 1 20 30.5c0-4.136 3.364-7.5 7.5-7.5s7.5 3.364 7.5 7.5a7.485 7.485 0 0 1-2.917 5.924ZM40 3v37a1 1 0 0 1-1 1h-5v-2h4V4H10v35h11v2H9a1 1 0 0 1-1-1V3a1 1 0 0 1 1-1h30a1 1 0 0 1 1 1Z"/></svg>