<svg xmlns="http://www.w3.org/2000/svg" viewBox="0 0 48 48"><path fill="#232F3D" fill-rule="evenodd" d="M25 22.512a1 1 0 1 1-2 0 1 1 0 0 1 2 0Zm-.057 5.418-.998 2.829a1 1 0 1 1-1.886-.665l.998-2.829a.998.998 0 0 1 1.276-.61.998.998 0 0 1 .61 1.275Zm7.611-2.098h.294v1.54h-.294c-.318 0-.546.068-.686.203s-.21.357-.21.665v2.086c0 .831-.224 1.484-.672 1.96-.448.476-1.059.714-1.834.714-.495 0-.915-.079-1.26-.238V31.39c.28.046.56.07.84.07.55 0 .826-.313.826-.938v-2.24c0-.467.11-.831.329-1.092.219-.261.576-.457 1.071-.588-.495-.131-.852-.327-1.071-.588-.219-.261-.329-.626-.329-1.092v-2.24c0-.626-.276-.938-.826-.938-.28 0-.56.023-.84.07v-1.372c.345-.159.765-.238 1.26-.238.775 0 1.386.238 1.834.714.448.476.672 1.129.672 1.96v2.086c0 .308.07.529.21.665.14.135.368.203.686.203Zm-13.706-5.628c.495 0 .915.079 1.26.238v1.372c-.28-.047-.56-.07-.839-.07-.552 0-.827.312-.827.938v2.24c0 .457-.11.819-.329 1.085-.219.266-.576.464-1.071.595.495.131.852.329 1.071.595.219.266.329.627.329 1.085v2.24c0 .625.275.938.827.938.279 0 .559-.024.839-.07v1.372c-.345.159-.765.238-1.26.238-.775 0-1.386-.238-1.834-.714-.448-.476-.672-1.129-.672-1.96V28.24c0-.308-.07-.53-.21-.665-.14-.135-.368-.203-.686-.203h-.294v-1.54h.294c.318 0 .546-.068.686-.203.14-.136.21-.357.21-.665v-2.086c0-.831.224-1.484.672-1.96.448-.476 1.059-.714 1.834-.714ZM10 44l.007-40H28v9a1 1 0 0 0 1 1h9v30H10ZM30 5.414 36.586 12H30V5.414Zm9.707 6.879-10-10A.996.996 0 0 0 29 2H10c-1.178 0-2 .822-2 2v40c0 1.14.859 2 2 2h28c1.141 0 2-.86 2-2V13a.997.997 0 0 0-.293-.707Z"/></svg>