<svg xmlns="http://www.w3.org/2000/svg" viewBox="0 0 48 48"><path fill="#232F3D" fill-rule="evenodd" d="M28 41h7v-2h-7v2Zm-15 0h13v-2H13v2Zm9-5h13v-2H22v2Zm-9 0h7v-2h-7v2Zm9.948-5.683-1.896-.632 4-12 1.896.632-4 12Zm11.677-7.097a1 1 0 0 1 0 1.562l-5 4-1.25-1.562 4.024-3.219-4.024-3.219 1.25-1.562 5 4Zm-21.25 1.562a1 1 0 0 1 0-1.562l5-4 1.25 1.562-4.024 3.219 4.024 3.219-1.25 1.562-5-4ZM10 44l.007-40H28v9a1 1 0 0 0 1 1h9v30H10ZM30 5.414 36.586 12H30V5.414Zm9.707 6.879-10-10A.996.996 0 0 0 29 2H10c-1.178 0-2 .822-2 2v40c0 1.14.859 2 2 2h28c1.141 0 2-.86 2-2V13a.997.997 0 0 0-.293-.707Z"/></svg>