<svg xmlns="http://www.w3.org/2000/svg" width="60" height="60" viewBox="0 0 60 60">
  <g id="Envoy" transform="translate(0)">
    <rect id="Rectangle_9786" data-name="Rectangle 9786" width="60" height="60" fill="#fff" opacity="0"/>
    <g id="envoy-logo-large" transform="translate(0 7.617)">
      <path id="Fill-6" d="M56.279,81.853l.086,3.612,3.8,2.358-.085-3.614-3.8-2.356" transform="translate(-41.329 -60.237)" fill="#953984" fill-rule="evenodd"/>
      <g id="Group-10" transform="translate(0 21.509)">
        <path id="Fill-7" d="M81.386,41.6,81.3,38.059,77.97,35.993c-.049-.031-.093-.067-.141-.1l.084,3.549L81.386,41.6" transform="translate(-57.153 -26.478)" fill="#953984" fill-rule="evenodd"/>
        <path id="Fill-9" d="M12.358,20.329l-8.7-5.388L3.451,5.9,7.714,4.061,7.628.449.825,3.382A1.328,1.328,0,0,0,0,4.65L.255,15.5a1.8,1.8,0,0,0,.89,1.443L11.573,23.4a1.926,1.926,0,0,0,1.566.227c.052-.016.1-.035.147-.054l6.4-2.759-3.471-2.152-3.857,1.664" transform="translate(0 -0.449)" fill="#953984" fill-rule="evenodd"/>
      </g>
      <path id="Fill-11" d="M113.335,54.735a2.1,2.1,0,0,0-1.038-1.682l-12.66-7.847-.391.169.09,3.8,10.025,6.211.24,10.159,3.834,2.376.209-.09-.308-13.092" transform="translate(-72.88 -33.326)" fill="#ac6199" fill-rule="evenodd"/>
      <g id="Group-15" transform="translate(9.217)">
        <path id="Fill-12" d="M16.77,76.194,5.008,68.9,4.719,56.669l5.359-2.308-.1-4.214L1.658,53.733A1.551,1.551,0,0,0,.7,55.212l.339,14.344a2.083,2.083,0,0,0,1.037,1.679l13.786,8.546a2.245,2.245,0,0,0,1.827.265,1.57,1.57,0,0,0,.172-.065L26,76.47l-4.05-2.509L16.77,76.194" transform="translate(-0.695 -36.953)" fill="#ac6199" fill-rule="evenodd"/>
        <path id="Fill-14" d="M61.9,36.948,46.54,27.428l-.378-15.979L61.148,4.99l15.361,9.517.378,15.979Zm17.965-25.1L62.191.889A2.56,2.56,0,0,0,60.1.589Q60,.62,59.9.66L42.662,8.1a1.765,1.765,0,0,0-1.1,1.688L42,28.172a2.4,2.4,0,0,0,1.187,1.92L60.858,41.046a2.559,2.559,0,0,0,2.088.3c.065-.021.133-.045.2-.074l17.244-7.432a1.768,1.768,0,0,0,1.1-1.691l-.432-18.386a2.4,2.4,0,0,0-1.187-1.92Z" transform="translate(-30.705 -0.484)" fill="#c04589" fill-rule="evenodd"/>
      </g>
    </g>
  </g>
</svg>
