<svg xmlns="http://www.w3.org/2000/svg" xmlns:xlink="http://www.w3.org/1999/xlink" viewBox="0 0 16 16"><defs><path id="a" d="M.275.141h12.486V5.63H.275z"/><path id="c" d="M.275.141h12.486V5.63H.275z"/></defs><g fill="none" fill-rule="evenodd"><g transform="translate(1.481 10.37)"><mask id="b" fill="#fff"><use xlink:href="#a"/></mask><path fill="#1BA9F5" fill-rule="nonzero" d="M9.635.26a1.478 1.478 0 0 0-1.37.11 3.23 3.23 0 0 1-1.747.51A3.23 3.23 0 0 1 4.773.37a1.478 1.478 0 0 0-1.37-.11A8.03 8.03 0 0 0 .274 2.63a7.984 7.984 0 0 0 6.243 3 7.984 7.984 0 0 0 6.244-3A8.031 8.031 0 0 0 9.635.26" mask="url(#b)"/></g><g transform="translate(1.481 10.37)"><mask id="d" fill="#fff"><use xlink:href="#c"/></mask><path fill="#1BA9F5" fill-rule="nonzero" d="M9.635.26a1.478 1.478 0 0 0-1.37.11 3.23 3.23 0 0 1-1.747.51A3.23 3.23 0 0 1 4.773.37a1.478 1.478 0 0 0-1.37-.11A8.03 8.03 0 0 0 .274 2.63a7.984 7.984 0 0 0 6.243 3 7.984 7.984 0 0 0 6.244-3A8.031 8.031 0 0 0 9.635.26" mask="url(#d)"/></g><path fill="#07C" fill-rule="nonzero" d="M8 0a7.984 7.984 0 0 0-6.243 3 8.03 8.03 0 0 0 3.127 2.37c.446.189.962.151 1.37-.11A3.232 3.232 0 0 1 8 4.75c.643 0 1.241.187 1.746.51.408.261.924.299 1.37.11A8.03 8.03 0 0 0 14.243 3 7.984 7.984 0 0 0 8 0"/><path fill="#343741" fill-rule="nonzero" d="M9.75 8a1.75 1.75 0 1 1-3.5 0 1.75 1.75 0 0 1 3.5 0M4.884 5.37A8.031 8.031 0 0 1 1.757 3 7.96 7.96 0 0 0 0 8c0 1.339.33 2.6.912 3.71a9.531 9.531 0 0 1 3.394-2.444c.204-.086.416-.147.632-.186-.12-.338-.188-.7-.188-1.08 0-1.202.655-2.25 1.625-2.812-.04.024-.082.047-.121.072a1.478 1.478 0 0 1-1.37.11"/></g></svg>