<svg xmlns="http://www.w3.org/2000/svg" xmlns:xlink="http://www.w3.org/1999/xlink" viewBox="0 0 80 80"><defs><path id="a" d="M40 72C22.4 72 8 57.6 8 40S22.4 8 40 8s32 14.4 32 32-14.4 32-32 32zm0-40.5c-4.7 0-8.5 3.8-8.5 8.5s3.8 8.5 8.5 8.5 8.5-3.8 8.5-8.5-3.8-8.5-8.5-8.5z"/></defs><clipPath id="b"><use xlink:href="#a" overflow="visible"/></clipPath><circle cx="9.2" cy="39.9" r="32" style="clip-path:url(#b);fill:#353535"/><defs><path id="c" d="M40 72C22.4 72 8 57.6 8 40S22.4 8 40 8s32 14.4 32 32-14.4 32-32 32zm0-40.5c-4.7 0-8.5 3.8-8.5 8.5s3.8 8.5 8.5 8.5 8.5-3.8 8.5-8.5-3.8-8.5-8.5-8.5z"/></defs><clipPath id="d"><use xlink:href="#c" overflow="visible"/></clipPath><circle cx="40" cy="5" r="26.5" style="clip-path:url(#d);fill:#07a5de"/><defs><path id="e" d="M40 72C22.4 72 8 57.6 8 40S22.4 8 40 8s32 14.4 32 32-14.4 32-32 32zm0-40.5c-4.7 0-8.5 3.8-8.5 8.5s3.8 8.5 8.5 8.5 8.5-3.8 8.5-8.5-3.8-8.5-8.5-8.5z"/></defs><clipPath id="f"><use xlink:href="#e" overflow="visible"/></clipPath><circle cx="40" cy="75" r="26.5" style="clip-path:url(#f);fill:#93c90e"/><path d="M40 31.5c-2.3-8.4-7.9-15.4-15.4-19.5-2.9 1.6-5.5 3.7-7.8 6C21.4 26.1 30 31.5 40 31.5z" style="fill:#0078a0"/><path d="M40 48.5c-10 0-18.6 5.5-23.2 13.6 2.2 2.3 4.8 4.4 7.7 5.9C32 63.9 37.7 56.9 40 48.5z" style="fill:#74a300"/><path d="M0 0h80v80H0z" style="fill:none"/></svg>