<svg xmlns="http://www.w3.org/2000/svg" xmlns:xlink="http://www.w3.org/1999/xlink" viewBox="0 0 32 32"><defs><path id="a" d="M0 0h24v32H0z"/></defs><g fill="none" fill-rule="evenodd"><path fill="#FEC514" d="M8 24h2.222A12.996 12.996 0 0 0 13 16c0-2.936-1.012-5.744-2.778-8H8a8 8 0 1 0 0 16"/><g transform="translate(8)"><mask id="b" fill="#fff"><use xlink:href="#a"/></mask><path fill="#00BFB3" d="M8 0C5.082 0 2.355.793 0 2.157A16.116 16.116 0 0 1 5.848 8H8a8 8 0 1 1 0 16H5.848A16.12 16.12 0 0 1 0 29.842 15.907 15.907 0 0 0 8 32c8.837 0 16-7.164 16-16C24 7.163 16.837 0 8 0" mask="url(#b)"/></g><path fill="#343741" d="M16 8h-2.152A15.874 15.874 0 0 1 16 16a15.88 15.88 0 0 1-2.152 8H16a8 8 0 0 0 0-16"/></g></svg>