<svg xmlns="http://www.w3.org/2000/svg" height="14" viewBox="0 0 496.21 306.59"><path d="M329.26,24.64" fill="#FFF" stroke="#FFF" stroke-miterlimit="10" stroke-width="0.25"/><path d="M398.7,254a26.3,26.3,0,1,0,26.3,26.3A26.33,26.33,0,0,0,398.7,254Zm0,41.74a15.44,15.44,0,1,1,15.44-15.44A15.46,15.46,0,0,1,398.7,295.73Z" fill="#FFF"/><rect x="417.14" y="156.01" width="14.7" height="39.21" fill="#FFF"/><polygon points="463.2 65.88 248.06 13.22 33 65.88 248.26 123.28 463.2 65.88" fill="#40AA1D"/><path d="M492.58,59.76,248.75.08a2.84,2.84,0,0,0-1.36,0L3.62,59.76C1.52,60.28,0,63.06,0,66.3s1.59,6,3.7,6.45L122.26,98.62l-2.91,50.27-3.19,47.25,131.91,93.53,126.82-89.91,2.38-1.71c1.66-1.18,2.64-3.83,2.46-6.61l-2.86-42.33L374,98.61l46.24-10.09v54.36h-7.35c-2.38,0-4.31,2.94-4.31,6.57v52.34c0,3.63,1.93,6.57,4.31,6.57h23.31c2.37,0,4.3-2.94,4.3-6.57V149.45c0-3.63-1.93-6.57-4.3-6.57H428.8V86.64l63.71-13.89c2.11-.46,3.68-3.2,3.7-6.45S494.68,60.28,492.58,59.76ZM248.07,275.86l-123-83.31,2.86-42.41,5-44.64,114.42,30.85.29.07a3.26,3.26,0,0,0,.62.06,3.05,3.05,0,0,0,.52,0s0,0,0,0L363.27,105.5l5,44.86,3,44.86ZM431.84,156v39.21h-14.7V156ZM248.27,123.28,33,65.88,248.07,13.22,463.2,65.88Z" fill="#FFF"/><path d="M396.39,221.35" fill="#FFF" stroke="#FFF" stroke-miterlimit="10" stroke-width="0.25"/><polygon points="248.46 298.34 108.9 202.24 115.81 95.79 124.06 97.03 117.73 194.56 248.43 287.54 379.04 194.62 370.74 95.12 378.98 93.52 388.03 202.18 248.46 298.34" fill="#40AA1D"/></svg>