<?xml version="1.0" encoding="UTF-8"?><svg id="uuid-e1071f5c-0dd0-4f99-8f59-db1eb1f2307f" xmlns="http://www.w3.org/2000/svg" width="200" height="28.68" viewBox="0 0 200 28.68"><path d="m52.21,1.75c-.33-.67-1.22-1.22-1.97-1.22h-1.52c-.75,0-1.62.55-1.95,1.22l-12.07,25.21c-.33.67.03,1.14.78,1.14h2.79c1.1,0,1.61-.5,1.9-1.12.3-.61.97-1.95,1.09-2.22.17-.37.7-.59,1.45-.59h12.99c.75,0,1.23.16,1.45.59.15.29.81,1.49,1.14,2.14.33.65.88,1.19,1.95,1.19h4.05c.75,0,1.07-.57.81-1.1-.27-.53-12.89-25.28-12.89-25.28h0Zm-7.62,18.55c-.75,0-1.1-.56-.79-1.23l4.76-10.19c.32-.68.83-.67,1.14,0l4.63,10.19c.31.68-.05,1.24-.8,1.24h-8.94,0ZM145.47,1.95v25.02c0,.69.61,1.16,1.36,1.16h3.3c.75,0,1.36-.48,1.36-1.22V1.89c0-.75-.49-1.36-1.23-1.36h-3.43c-.75,0-1.36.46-1.36,1.41h0Zm-55.27,15.67c-.43-.61-.19-1.29.52-1.5,0,0,2.85-.85,4.22-2.08,1.37-1.22,2.05-3,2.05-5.31,0-1.51-.26-2.78-.79-3.81s-1.28-1.87-2.26-2.52c-.98-.65-2.15-1.13-3.52-1.42-1.37-.3-3.21-.38-3.21-.38-.75-.03-1.97-.06-2.72-.06h-13.7c-.75,0-1.36.61-1.36,1.36v25c0,.75.61,1.22,1.36,1.22h3.24c.75,0,1.36-.48,1.36-1.22,0,0,0-9.95,0-9.95,0,0,0,0,0-.01s6.15-.01,6.15-.01c.75,0,1.71.5,2.14,1.11l6.38,8.98c.59.8,1.16,1.11,1.9,1.11h4.24c.75,0,.87-.71.61-1.07-.26-.36-6.63-9.44-6.63-9.44h0Zm-2.58-5.08c-.84.19-1.78.23-1.78.23-.75.03-1.97.06-2.72.06h-6.35c-.75,0-1.36-.61-1.36-1.36v-5.07c0-.75.61-1.36,1.36-1.36h6.35c.75,0,1.97.03,2.72.06,0,0,.95.04,1.78.23s1.51.47,1.99.81c.49.35.84.76,1.05,1.24.21.48.32.99.32,1.55s-.11,1.08-.32,1.55c-.21.47-.56.89-1.05,1.24-.49.35-1.15.63-1.99.81h0ZM185.97.53c-.75,0-1.35.49-1.35,1.22,0,.34,0,15.99,0,15.99,0,.75-.42.92-.94.38L167.67,1.51c-.52-.54-1.28-.98-2.31-.98h-3.01c-.95,0-1.36.5-1.36,1.02v25.57c0,.51.49,1,1.23,1h3.01c.74,0,1.27-.41,1.27-1.1,0-.34.01-16.85.01-16.85,0-.75.42-.92.94-.38l16.7,17.36c.53.53,1.17.97,2.32.97h2.27c.75,0,1.36-.61,1.36-1.36V1.89c0-.75-.61-1.36-1.36-1.36h-2.78,0Zm-65.29,15.59c-.36.65-.96.65-1.32,0l-7.83-14.37c-.33-.67-1.02-1.22-1.96-1.22h-4.24c-.75,0-1.36.61-1.36,1.36v24.97c0,.75.49,1.26,1.36,1.26h2.64c.75,0,1.29-.47,1.29-1.19,0-.34,0-18.16.04-18.16s9.77,18.16,9.77,18.16c.35.66,1.22.66,1.58,0,0,0,9.82-18.11,9.85-18.11.03,0,.02,17.59.02,18.11,0,.72.57,1.19,1.33,1.19h3.04c.75,0,1.36-.37,1.36-1.36V1.89c0-.75-.61-1.36-1.36-1.36h-4.07c-1.04,0-1.66.53-2.03,1.18l-8.09,14.41h0ZM0,14.3c0,13.47,13.78,14.16,16.54,14.16,9.15,0,13.01-2.47,13.17-2.58.57-.32,1.27-.97,1.27-2.2v-9.3c0-.86-.7-1.55-1.55-1.55h-11.49c-.86,0-1.42.7-1.42,1.55v.96c0,.86.57,1.56,1.42,1.56h6.65c.64,0,1.16.52,1.16,1.16,0,0,0,4.07,0,4.33-1.31.54-7.29,2.28-12.09,1.13-6.97-1.67-7.51-7.42-7.51-9.14,0-1.45.43-8.68,8.99-9.42,6.93-.59,11.49,2.2,11.53,2.23.81.42,1.66.12,2.11-.74,0,0,.86-1.75.86-1.75.36-.72.24-1.46-.64-2.06C28.93,2.63,24.07,0,16.54,0,.46,0,0,12.84,0,14.3Zm196.85,8.08c1.73,0,3.15,1.41,3.15,3.15s-1.41,3.15-3.15,3.15-3.15-1.41-3.15-3.15,1.41-3.15,3.15-3.15Zm0,5.82c1.45,0,2.54-1.17,2.54-2.68s-1.09-2.68-2.54-2.68-2.55,1.17-2.55,2.68,1.09,2.68,2.55,2.68Zm-1.21-4.52h1.41c.85,0,1.26.34,1.26,1.04,0,.59-.38,1.02-.95,1.02l1.05,1.63h-.64l-1.03-1.63h-.5v1.63h-.6v-3.69Zm.6,1.59h.72c.46,0,.76-.09.76-.57,0-.42-.38-.54-.76-.54h-.72v1.12Z"/></svg>