<svg viewBox="0 0 385.44 385.44" xmlns="http://www.w3.org/2000/svg" width="12"><path xmlns="http://www.w3.org/2000/svg" d="M193,7.5c102.09.17,184.91,83.09,184.91,185.22S295,377.94,192.72,377.94,7.5,295,7.5,192.72,90.34,7.67,192.43,7.5Zm57,247H135.41c9.86,65.85,34.61,108,57.31,108s47.46-42.2,57.33-108m100.86,0H265.67c-6.58,46.07-20.39,83.38-38.36,104.51a170.17,170.17,0,0,0,123.6-104.51m-231.12,0H34.53A170.21,170.21,0,0,0,158.15,359c-18-21.13-31.78-58.44-38.36-104.51m-1.9-108H29.36a170.41,170.41,0,0,0,0,92.61h88.53a460.31,460.31,0,0,1,0-92.61m134.15,0H133.42a441.89,441.89,0,0,0,0,92.61H252a442.62,442.62,0,0,0,0-92.61m104.06,0H267.56a456.48,456.48,0,0,1,0,92.61H356.1a170.4,170.4,0,0,0,0-92.61m-198-119.95A170.21,170.21,0,0,0,34.53,131h85.26c6.58-46.07,20.39-83.4,38.36-104.51M250.05,131c-9.87-65.85-34.61-108-57.33-108s-47.45,42.19-57.31,108ZM227.31,26.47c18,21.11,31.78,58.44,38.36,104.51h85.24A170.17,170.17,0,0,0,227.31,26.47" stroke-miterlimit="10" stroke-width="15" fill-rule="evenodd" stroke="#40AA1D" fill="#40AA1D"/></svg>