<svg fill="none" height="67" viewBox="0 0 60 67" width="60" xmlns="http://www.w3.org/2000/svg" xmlns:xlink="http://www.w3.org/1999/xlink"><filter id="a" color-interpolation-filters="sRGB" filterUnits="userSpaceOnUse" height="66" width="60" x=".000977" y=".004883"><feFlood flood-opacity="0" result="BackgroundImageFix"/><feColorMatrix in="SourceAlpha" type="matrix" values="0 0 0 0 0 0 0 0 0 0 0 0 0 0 0 0 0 0 127 0"/><feOffset dy="3"/><feGaussianBlur stdDeviation="5"/><feColorMatrix type="matrix" values="0 0 0 0 0 0 0 0 0 0 0 0 0 0 0 0 0 0 0.25 0"/><feBlend in2="BackgroundImageFix" mode="normal" result="effect1_dropShadow"/><feBlend in="SourceGraphic" in2="effect1_dropShadow" mode="normal" result="shape"/></filter><g filter="url(#a)"><path d="m50.001 41.5049-20 11.5-20-11.5v-23l20-11.50002 20 11.50002z" fill="#1a1a1a"/></g><path d="m30.456 53.4249 15.242-8.8c.0549.0281.1154.0432.177.044.1022-.0018.1999-.0418.274-.1121.074-.0704.119-.166.126-.2679l1.8-1.041c.0685.0541.1528.0843.24.086.1089-.0003.2131-.0437.29-.1207.0769-.0771.12-.1815.12-.2903 0-.016-.007-.029-.009-.045l1.868-1.078v-23.253l-5.871-3.39c.0038-.0138.0067-.0278.009-.042 0-.109-.0433-.2135-.1203-.2906-.0771-.0771-.1817-.1204-.2907-.1204-.0859.0018-.169.0312-.237.084l-13.625-7.867-20.128 11.626v23.25l4.228 2.441v.017c0 .1088.0432.2132.1201.2903.0768.077.1811.1204.2899.1207.0765-.0021.1508-.026.214-.069zm-19.774-11.834v-22.832l19.774-11.416 13.453 7.767v.01c.0003.1088.0437.2131.1208.29.077.0768.1814.12.2902.12.0736-.0019.1452-.024.207-.064l5.705 3.293v22.833l-1.7.984c-.0598-.0384-.1289-.0598-.2-.062-.0539-.0001-.1073.0104-.1572.0309-.0498.0206-.0951.0507-.1333.0888s-.0685.0834-.0892.1332c-.0206.0498-.0313.1032-.0313.1571v.007l-1.771 1.022c-.074-.0645-.1688-.1-.267-.1-.109 0-.2135.0433-.2906.1204s-.1204.1816-.1204.2906c.0028.0257.0078.0512.015.076l-15.024 8.674-15.1-8.715c0-.012.007-.022.007-.034 0-.109-.0433-.2135-.1203-.2906-.0771-.0771-.1817-.1204-.2907-.1204-.0831.0021-.1635.0301-.23.08z" fill="#6cc04a" opacity=".5"/><path d="m24.3831 39.1179h-4.221v-13.556h4.221zm-2.225-15.25h-.03c-.3081.023-.6176-.0149-.911-.1115-.2934-.0967-.5649-.2502-.7989-.4518s-.426-.4474-.5651-.7232c-.139-.2759-.2222-.5764-.245-.8845-.005-.06-.007-.121-.007-.181.0014-.3287.0711-.6536.2048-.9539.1336-.3003.3283-.5696.5716-.7906.2432-.2211.5298-.3892.8415-.4936s.6417-.1429.9691-.1129c.625-.0497 1.2441.1509 1.7212.5576.4771.4068.773.9864.8228 1.6114 0 .061.007.121.007.182-.0014.3281-.0708.6524-.204.9522-.1332.2999-.3272.5689-.5697.7899s-.5283.3892-.8392.494c-.311.1049-.6403.144-.9671.1149zm19.151 15.25h-4.826v-7.014c0-1.809-.748-3.087-2.412-3.087-.5079-.0001-1.0029.1602-1.4145.4579-.4115.2977-.7186.7177-.8775 1.2001-.0992.3577-.1331.7303-.1 1.1v7.339h-4.716s.061-12.422 0-13.55h4.752v2.147c.283-.929 1.809-2.255 4.221-2.255 3.015 0 5.372 1.948 5.372 6.145z" fill="#fff"/></svg>