<svg fill="none" height="67" viewBox="0 0 61 67" width="61" xmlns="http://www.w3.org/2000/svg" xmlns:xlink="http://www.w3.org/1999/xlink"><filter id="a" color-interpolation-filters="sRGB" filterUnits="userSpaceOnUse" height="66" width="60" x=".00293" y=".004883"><feFlood flood-opacity="0" result="BackgroundImageFix"/><feColorMatrix in="SourceAlpha" type="matrix" values="0 0 0 0 0 0 0 0 0 0 0 0 0 0 0 0 0 0 127 0"/><feOffset dy="3"/><feGaussianBlur stdDeviation="5"/><feColorMatrix type="matrix" values="0 0 0 0 0 0 0 0 0 0 0 0 0 0 0 0 0 0 0.25 0"/><feBlend in2="BackgroundImageFix" mode="normal" result="effect1_dropShadow"/><feBlend in="SourceGraphic" in2="effect1_dropShadow" mode="normal" result="shape"/></filter><g filter="url(#a)"><path d="m50.0029 41.5049-20 11.5-20-11.5v-23l20-11.50002 20 11.50002z" fill="#1a1a1a"/></g><path d="m29.5281 53.4249 15.242-8.8c.0548.0281.1154.0432.177.044.1022-.0015.2-.0415.2742-.1119.0741-.0704.119-.1661.1257-.2681l1.8001-1.041c.0682.0539.1521.0841.2389.086.1091 0 .2136-.0433.2907-.1204.077-.0771.1204-.1816.1204-.2906-.002-.0152-.005-.0302-.009-.045l1.8679-1.078v-23.253l-5.8709-3.39c0-.015.0089-.027.0089-.042 0-.109-.0432-.2135-.1203-.2906s-.1816-.1204-.2906-.1204c-.0857.002-.1684.0314-.236.084l-13.6251-7.867-20.12893 11.626v23.25l4.22793 2.441c-.0004.0057-.0004.0113 0 .017 0 .109.0434.2135.1205.2906.077.0771.1815.1204.2905.1204.0765-.0021.1508-.026.214-.069zm-19.77407-11.834v-22.832l19.77407-11.416 13.4529 7.767v.01c0 .1087.0432.213.1201.2899s.1812.1201.29.1201c.0738-.002.1457-.0241.208-.064l5.6999 3.293v22.833l-1.6999.984c-.06-.0381-.1291-.0595-.2001-.062-.1088 0-.2132.0432-.2902.12-.0771.0769-.1205.1812-.1208.29v.007l-1.771 1.022c-.0737-.065-.1687-.1006-.267-.1-.1088.0003-.2131.0437-.2899.1207-.0769.0771-.1201.1815-.1201.2903.0024.0258.0075.0512.0151.076l-15.024 8.674-15.1001-8.715c0-.012.007-.022.007-.034 0-.1088-.0431-.2132-.1199-.2903-.0769-.077-.1812-.1204-.29-.1207-.0831.0021-.1636.0301-.2301.08z" fill="#6cc04a" opacity=".5"/><path d="m38.5451 25.4699c-.0961-.398-.3002-.7618-.5897-1.0513s-.6533-.4936-1.0513-.5897c-1.477-.41-7.386-.41-7.386-.41-2.4375-.0244-4.8745.0851-7.3.328-.4057.1184-.7792.3277-1.0919.6121-.3128.2843-.5567.6362-.7131 1.0289-.2696 1.4887-.3796 3.0019-.328 4.514-.0079 1.5109.1018 3.0201.328 4.514.1303.4079.3658.7743.6826 1.0623.3169.2881.704.4877 1.1224.5787 1.477.41 7.3.328 7.3.328 2.4375.0244 4.8745-.0851 7.3-.328.4058-.1185.7792-.3278 1.092-.6121.3127-.2844.5566-.6363.713-1.0289.2823-1.4879.4197-2.9997.41-4.514-.0323-1.4888-.1956-2.9719-.488-4.432zm-10.915 7.386v-5.827l4.76 2.872z" fill="#fff"/></svg>