<svg fill="none" height="67" viewBox="0 0 60 67" width="60" xmlns="http://www.w3.org/2000/svg" xmlns:xlink="http://www.w3.org/1999/xlink"><filter id="a" color-interpolation-filters="sRGB" filterUnits="userSpaceOnUse" height="66" width="60" x=".000977" y=".004883"><feFlood flood-opacity="0" result="BackgroundImageFix"/><feColorMatrix in="SourceAlpha" type="matrix" values="0 0 0 0 0 0 0 0 0 0 0 0 0 0 0 0 0 0 127 0"/><feOffset dy="3"/><feGaussianBlur stdDeviation="5"/><feColorMatrix type="matrix" values="0 0 0 0 0 0 0 0 0 0 0 0 0 0 0 0 0 0 0.25 0"/><feBlend in2="BackgroundImageFix" mode="normal" result="effect1_dropShadow"/><feBlend in="SourceGraphic" in2="effect1_dropShadow" mode="normal" result="shape"/></filter><g filter="url(#a)"><path d="m50.001 41.5049-20 11.5-20-11.5v-23l20-11.50002 20 11.50002z" fill="#1a1a1a"/></g><path d="m29.8459 53.4249 15.242-8.8c.0548.0281.1154.0432.177.044.1022-.0018.1999-.0418.274-.1121.074-.0704.119-.166.126-.2679l1.8-1.041c.0685.0541.1528.0843.24.086.1089-.0003.2131-.0437.29-.1207.0769-.0771.12-.1815.12-.2903 0-.016-.007-.029-.009-.045l1.868-1.078v-23.253l-5.871-3.39c.0037-.0138.0068-.0278.009-.042 0-.109-.0433-.2135-.1204-.2906-.077-.0771-.1816-.1204-.2906-.1204-.0859.0018-.1691.0312-.237.084l-13.625-7.867-20.12796 11.626v23.25l4.22796 2.441v.017c0 .1088.0432.2132.1201.2903.0768.077.1811.1204.2899.1207.0765-.0021.1508-.026.214-.069zm-19.774-11.834v-22.832l19.774-11.416 13.453 7.767v.01c.0003.1088.0437.2131.1207.29.0771.0768.1815.12.2903.12.0736-.0019.1452-.024.207-.064l5.705 3.293v22.833l-1.7.984c-.0598-.0384-.1289-.0598-.2-.062-.0539-.0001-.1073.0104-.1572.0309-.0498.0206-.0952.0507-.1333.0888-.0382.0381-.0685.0834-.0892.1332-.0206.0498-.0313.1032-.0313.1571v.007l-1.771 1.022c-.074-.0645-.1688-.1-.267-.1-.109 0-.2135.0433-.2906.1204s-.1204.1816-.1204.2906c.0024.0258.0075.0512.015.076l-15.024 8.674-15.1-8.715c0-.012.007-.022.007-.034 0-.109-.0433-.2135-.1203-.2906-.0771-.0771-.1817-.1204-.2907-.1204-.0831.0021-.1635.0301-.23.08z" fill="#6cc04a" opacity=".5"/><path d="m22.715 40.6028c-.9106-.001-1.7836-.3633-2.4274-1.0073s-1.0058-1.5171-1.0066-2.4277v-14.258c.0011-.9104.3632-1.7832 1.007-2.427.6437-.6438 1.5166-1.0059 2.427-1.007h14.258c.9104.0011 1.7833.3632 2.427 1.007.6438.6438 1.0059 1.5166 1.007 2.427v14.258c-.0008.9106-.3628 1.7837-1.0066 2.4277s-1.5168 1.0063-2.4274 1.0073zm-1.874-17.693v14.258c.0003.4971.1978.9737.5491 1.3252.3514.3516.8279.5493 1.3249.5498h14.258c.497-.0005.9735-.1982 1.3249-.5498.3513-.3515.5488-.8281.5491-1.3252v-14.258c-.0005-.4967-.1982-.973-.5495-1.3241-.3514-.3512-.8277-.5486-1.3245-.5489h-14.258c-.4971.0003-.9738.198-1.3252.5496s-.5488.8283-.5488 1.3254zm3.348 7.13c.0016-1.4993.5979-2.9367 1.6581-3.9969 1.0601-1.0602 2.4976-1.6565 3.9969-1.6581 1.4993.0016 2.9368.5979 3.9969 1.6581 1.0602 1.0602 1.6565 2.4976 1.6581 3.9969-.0018 1.4992-.5983 2.9364-1.6584 3.9963-1.0602 1.06-2.4975 1.6561-3.9966 1.6577-1.4984-.0021-2.9349-.5982-3.9946-1.6577-1.0596-1.0594-1.656-2.4958-1.6584-3.9943zm1.562 0c.0019 1.085.4337 2.125 1.2009 2.8922.7671.7672 1.8071 1.199 2.8921 1.2008 1.085-.0018 2.125-.4336 2.8922-1.2008.7671-.7672 1.199-1.8072 1.2008-2.8922-.0018-1.0849-.4337-2.1249-1.2008-2.8921-.7672-.7672-1.8072-1.199-2.8922-1.2009-1.0853.0019-2.1256.434-2.8928 1.2016-.7673.7676-1.1989 1.8081-1.2002 2.8934zm9.045-6.2c-.0001-.1743.0341-.347.1007-.5081.0667-.1611.1644-.3075.2876-.4308.1233-.1234.2696-.2212.4307-.288.161-.0667.3337-.1011.508-.1011.1743.0002.3468.0346.5078.1014.1609.0668.3071.1647.4302.288.1232.1233.2208.2697.2874.4307.0665.1611.1007.3337.1006.5079 0 .3518-.1397.6892-.3883.938-.2487.2488-.5859.3888-.9377.389-.1746.0007-.3476-.0331-.5091-.0994-.1615-.0664-.3084-.1639-.4321-.2871s-.222-.2696-.289-.4308c-.0671-.1612-.1017-.3341-.1018-.5087z" fill="#fff"/></svg>