<svg width="1946" height="1450" viewBox="0 0 1946 1450" fill="none" xmlns="http://www.w3.org/2000/svg">
<g clip-path="url(#clip0_10300_40)">
<rect width="1946" height="1450" fill="white"/>
<path fill-rule="evenodd" clip-rule="evenodd" d="M0 0H1946V1450H0V0Z" fill="url(#paint0_linear_10300_40)"/>
<g opacity="0.472728">
<path opacity="0.8" d="M1954.27 557.211C1716.95 656.573 1470.33 694.397 1219 665.37C1215.43 665.495 1210.54 662.229 1206.97 662.353C1132.8 654.633 1062.9 632.713 988.242 611.263C903.884 584.997 826.549 555.048 741.3 537.405C639.263 516.91 542.288 504.831 442.161 504.891C370.668 505.669 299.294 509.88 226.969 520.997C192.623 527.352 159.467 533.665 125.121 540.02C99.108 546.084 74.2859 552.106 47.1427 559.926C-14.1672 579.251 -71.9652 596.735 -130.654 622.842" stroke="#F38800" stroke-dasharray="8"/>
<path opacity="0.9" d="M1960.24 441.86C1722.93 541.222 1476.31 579.046 1224.97 550.019C1221.4 550.144 1216.52 546.878 1212.95 547.003C1138.77 539.282 1068.87 517.363 994.217 495.912C909.859 469.646 832.524 439.697 747.275 422.054C645.238 401.559 548.264 389.48 448.136 389.54C376.643 390.318 305.269 394.529 232.944 405.646C198.598 412.001 165.442 418.314 131.096 424.669C105.083 430.733 80.261 436.755 53.1178 444.576C-8.19211 463.9 -65.9901 481.384 -124.679 507.492" stroke="#F38800" stroke-dasharray="10"/>
<mask id="mask0_10300_40" style="mask-type:alpha" maskUnits="userSpaceOnUse" x="-157" y="-115" width="2163" height="987">
<path fill-rule="evenodd" clip-rule="evenodd" d="M-46.3979 -115L2005.35 246.778L1895.16 871.689L-156.587 509.911L-46.3979 -115Z" fill="white"/>
</mask>
<g mask="url(#mask0_10300_40)">
<path d="M1966.84 345.438C1729.53 444.8 1482.91 482.624 1231.57 453.597C1228 453.722 1223.12 450.456 1219.55 450.58C1145.37 442.86 1075.47 420.94 1000.82 399.489C916.458 373.224 839.123 343.275 753.874 325.632C651.837 305.137 554.862 293.058 454.735 293.118C383.242 293.895 311.868 298.107 239.543 309.224C205.197 315.579 172.041 321.892 137.694 328.247C111.682 334.31 86.8596 340.332 59.7165 348.153C-1.59348 367.478 -59.3914 384.962 -118.08 411.069" stroke="#F38800" stroke-dasharray="8"/>
</g>
<path opacity="0.7" d="M1946.36 712.644C1709.04 812.006 1462.42 849.83 1211.08 820.803C1207.51 820.928 1202.63 817.662 1199.06 817.787C1124.88 810.066 1054.98 788.146 980.328 766.696C895.97 740.43 818.635 710.481 733.386 692.838C631.349 672.343 534.374 660.264 434.247 660.324C362.754 661.102 291.38 665.313 219.055 676.43C184.709 682.785 151.553 689.098 117.206 695.453C91.194 701.517 66.3718 707.539 39.2287 715.36C-22.0813 734.684 -79.8792 752.168 -138.568 778.276" stroke="#F38800" stroke-dasharray="16 19"/>
<path opacity="0.6" d="M1946.36 929.644C1709.04 1029.01 1462.42 1066.83 1211.08 1037.8C1207.51 1037.93 1202.63 1034.66 1199.06 1034.79C1124.88 1027.07 1054.98 1005.15 980.328 983.695C895.97 957.429 818.635 927.48 733.386 909.837C631.349 889.343 534.374 877.263 434.247 877.323C362.753 878.101 291.379 882.313 219.055 893.43C184.708 899.785 151.553 906.098 117.206 912.452C91.1935 918.516 66.3713 924.538 39.2282 932.359C-22.0818 951.684 -79.8797 969.168 -138.569 995.275" stroke="#F38800" stroke-dasharray="16 19"/>
</g>
</g>
<defs>
<linearGradient id="paint0_linear_10300_40" x1="1163.67" y1="1156.62" x2="1157.93" y2="84.4117" gradientUnits="userSpaceOnUse">
<stop stop-color="#0C569F" stop-opacity="0.25098"/>
<stop offset="1" stop-color="#90B3D6" stop-opacity="0"/>
</linearGradient>
<clipPath id="clip0_10300_40">
<rect width="1946" height="1450" fill="white"/>
</clipPath>
</defs>
</svg>
