<svg xmlns="http://www.w3.org/2000/svg" viewBox="0 0 48 48"><path fill="#C925D1" fill-rule="evenodd" d="M35.375 40.5a2.065 2.065 0 0 1-2.063-2.063c0-1.137.925-2.062 2.063-2.062 1.138 0 2.063.925 2.063 2.062a2.065 2.065 0 0 1-2.063 2.063Zm0-6.125a4.066 4.066 0 0 0-4.062 4.062 4.067 4.067 0 0 0 4.062 4.063 4.067 4.067 0 0 0 4.062-4.063 4.066 4.066 0 0 0-4.062-4.062Zm0-8.75a2.065 2.065 0 0 1-2.063-2.062c0-1.138.925-2.063 2.063-2.063 1.138 0 2.063.925 2.063 2.063a2.065 2.065 0 0 1-2.063 2.062Zm0-6.125a4.067 4.067 0 0 0-4.062 4.063 4.066 4.066 0 0 0 4.062 4.062 4.066 4.066 0 0 0 4.062-4.062 4.067 4.067 0 0 0-4.062-4.063Zm0-12.875c1.138 0 2.063.925 2.063 2.063a2.065 2.065 0 0 1-2.063 2.062 2.065 2.065 0 0 1-2.063-2.062c0-1.138.925-2.063 2.063-2.063Zm0 6.125a4.066 4.066 0 0 0 4.062-4.062 4.067 4.067 0 0 0-4.062-4.063 4.067 4.067 0 0 0-4.062 4.063 4.066 4.066 0 0 0 4.062 4.062ZM4 43.125h17.25V33.75H4v9.375Zm-2 2h21.25V31.75H2v13.375ZM4 28.25h17.25v-9.375H4v9.375Zm-2 2h21.25V16.875H2V30.25Zm2-16.875h17.25V4H4v9.375Zm-2 2h21.25V2H2v13.375Zm24.75 27.75H44V33.75H26.75v9.375Zm-2 2H46V31.75H24.75v13.375Zm2-16.875H44v-9.375H26.75v9.375Zm-2 2H46V16.875H24.75V30.25Zm2-16.875H44V4H26.75v9.375Zm-2 2H46V2H24.75v13.375Z"/></svg>