<svg xmlns="http://www.w3.org/2000/svg" viewBox="0 0 48 48"><path fill="#C925D1" fill-rule="evenodd" d="M26.033 30h9v-2h-9v2Zm-5.62-4.673c-1.349 0-2.022-.952-2.022-2.856 0-.941.167-1.637.501-2.091.334-.453.847-.68 1.539-.68.668 0 1.297.204 1.886.612v4.352c-.6.442-1.235.663-1.904.663Zm1.326 3.239c-.385.391-1.003.586-1.852.586-.839 0-1.785-.176-2.84-.527v1.428a6.582 6.582 0 0 0 2.973.697c1.376 0 2.439-.374 3.184-1.122.746-.748 1.119-1.808 1.119-3.179v-8.058h-1.7l-.17.782c-.725-.691-1.581-1.037-2.566-1.037-.726 0-1.355.187-1.888.561-.532.374-.94.892-1.224 1.556-.283.663-.424 1.425-.424 2.286 0 1.315.314 2.366.943 3.154.629.788 1.471 1.181 2.524 1.181.929 0 1.762-.317 2.499-.952v.731c0 .884-.192 1.521-.578 1.913ZM9.007 20.363a3.51 3.51 0 0 1 2.039-.646c.725 0 1.261.241 1.607.723.345.482.518 1.221.518 2.218 0 1.009-.176 1.76-.526 2.253-.352.492-.89.739-1.616.739-.714 0-1.388-.221-2.022-.663v-4.624Zm0 5.933c.328.295.714.524 1.155.688.442.165.901.247 1.377.247.748 0 1.399-.198 1.955-.595.556-.397.981-.943 1.276-1.64.293-.698.441-1.499.441-2.406 0-1.36-.32-2.442-.96-3.247-.641-.804-1.499-1.207-2.575-1.207-.522 0-1.024.097-1.505.289a4.322 4.322 0 0 0-1.317.833l-.188-.867H7v12.155h2.007v-4.25ZM32.033 4.65 36.88 9h-4.847V4.65Zm7.668 4.194-7.342-6.588A.999.999 0 0 0 31.691 2H8.033a1 1 0 0 0-1 1v12h2V4h21v6a1 1 0 0 0 1 1h7v33h-29V34h-2v11a1 1 0 0 0 1 1h31a1 1 0 0 0 1-1V9.588c0-.284-.121-.554-.332-.744Z"/></svg>