<svg xmlns="http://www.w3.org/2000/svg" viewBox="0 0 48 48"><path fill="#C925D1" fill-rule="evenodd" d="M2 4h44V2H2v2Zm0 42h44v-2H2v2Zm28.887-12.384 7.724 2.08 5.202-19.312-7.725-2.08-5.201 19.312Zm8.43 4.306a.99.99 0 0 1-.259-.034l-9.657-2.601a1.002 1.002 0 0 1-.706-1.226l5.722-21.243a1.003 1.003 0 0 1 1.226-.706l9.655 2.601c.533.144.849.692.706 1.226l-5.721 21.243a1.003 1.003 0 0 1-.966.74ZM17 34h8V14h-8v20Zm9 2H16a1 1 0 0 1-1-1V13a1 1 0 0 1 1-1h10a1 1 0 0 1 1 1v22a1 1 0 0 1-1 1ZM4 34h8V14H4v20Zm9 2H3a1 1 0 0 1-1-1V13a1 1 0 0 1 1-1h10a1 1 0 0 1 1 1v22a1 1 0 0 1-1 1Z"/></svg>