<svg xmlns="http://www.w3.org/2000/svg" viewBox="0 0 48 48"><path fill="#C925D1" fill-rule="evenodd" d="M30.18 12.6a5.115 5.115 0 0 1 5.11-5.109 5.115 5.115 0 0 1 5.109 5.108 5.115 5.115 0 0 1-5.11 5.11 5.115 5.115 0 0 1-5.108-5.11Zm-2 0a7.117 7.117 0 0 0 7.11 7.108 7.117 7.117 0 0 0 7.109-7.109c0-3.92-3.19-7.108-7.11-7.108-3.92 0-7.108 3.188-7.108 7.108ZM4 43.89h17.2v-17.2H4v17.2Zm-2 2h21.2v-21.2H2v21.2Zm24.69-2h17.2v-17.2h-17.2v17.2Zm-2 2h21.2v-21.2h-21.2v21.2ZM4 21.197h17.199V4h-17.2v17.2ZM2 23.2h21.199V2h-21.2v21.2Zm24.69-2h17.2V4h-17.2v17.2Zm-2 2h21.2v-21.2h-21.2v21.2Z"/></svg>