<svg xmlns="http://www.w3.org/2000/svg" viewBox="0 0 56 56"><g fill="none" fill-rule="evenodd" stroke="#2088ff" stroke-width="2"><g transform="translate(7 14)"><circle cx="42" cy="35" r="3"/><path stroke-linecap="round" d="M0 0v29a6 6 0 0 0 6 6h32"/></g><g opacity=".5" transform="translate(4 4)"><circle cx="3" cy="3" r="3"/><path stroke-linecap="round" d="M45 38V9a6 6 0 0 0-6-6H6"/></g><g stroke-linecap="round"><path stroke-linejoin="round" d="M42 16.715V26.79c0 3.123-.457 6.954-3.695 10.633-4.501 4.598-9.968 6.439-10.3 6.442-.332.003-6.152-2.052-10.284-6.442C14.558 34.06 14 29.904 14 26.789V16.715a2 2 0 0 1 1.566-1.952L28 12l12.434 2.763A2 2 0 0 1 42 16.715z"/><path d="M12.5 31h3M14 52h6.994M35.029 52h7M12.5 20h3"/></g><g transform="translate(19 18)"><circle cx="9" cy="9" r="6.5"/><g stroke-linecap="round" stroke-linejoin="round"><path d="M9 0v2.5zm0 15.5V18zM15.364 2.636 14 4zM4 14l-1.364 1.364zM18 9h-2.5zM2.5 9H0zM15.364 15.364 14 14zM4 4 2.636 2.636z"/></g></g><path stroke-linecap="round" stroke-linejoin="round" d="m30 26-2.998 2.994L25.5 27.5" opacity=".5"/></g></svg>