<svg xmlns="http://www.w3.org/2000/svg" fill="none" viewBox="0 0 34 34"><g stroke="#fff" stroke-linecap="round" stroke-width="2"><g opacity=".5"><path d="M14.22 10.737V23.26"/><path d="M14.216 6.565a2.087 2.087 0 1 1 0 4.174 2.087 2.087 0 0 1 0-4.174zM14.216 23.262a2.087 2.087 0 1 1 0 4.175 2.087 2.087 0 0 1 0-4.175z" clip-rule="evenodd"/><path d="M14.227 21.872c-.013-.668.633-2.742 1.757-3.482.713-.47 1.71-.877 3.107-1.229 1.49-.375 2.247-1.24 2.574-2.048"/><path d="M21.868 10.738a2.087 2.087 0 1 1 0 4.174 2.087 2.087 0 0 1 0-4.174z" clip-rule="evenodd"/><path stroke-linejoin="round" d="M20.315 32.656c-1.07.226-2.178.344-3.315.344-8.837 0-16-7.163-16-16S8.163 1 17 1s16 7.163 16 16c0 .956-.084 1.892-.244 2.801"/></g><g stroke-linejoin="round"><path d="M22.5 24h9M25 24v-1a1 1 0 0 1 1-1h2a1 1 0 0 1 1 1v1m1.5 0v7a1 1 0 0 1-1 1h-5a1 1 0 0 1-1-1v-7z"/></g></g></svg>