<svg xmlns="http://www.w3.org/2000/svg" viewBox="0 0 56 56"><g fill="none" fill-rule="evenodd"><path stroke="#2088ff" stroke-linecap="round" stroke-linejoin="round" stroke-width="2" d="M12 20a8 8 0 1 1 0 16 8 8 0 0 1 0-16zM30 22a6 6 0 1 1 0 12 6 6 0 0 1 0-12z"/><path stroke="#79b8ff" stroke-linecap="round" stroke-linejoin="round" stroke-width="2" d="M46 5a5 5 0 1 1 0 10 5 5 0 0 1 0-10z"/><g fill="#79b8ff"><path d="M46 40a1 1 0 1 1 0 2 1 1 0 0 1 0-2M43.441 42.48a1 1 0 1 1-2 .001 1 1 0 0 1 2 0zM50.554 42.483a1 1 0 1 1-2 0 1 1 0 0 1 2 0zM43.44 49.51a1 1 0 1 1-2 0 1 1 0 0 1 2 0zM50.465 49.601a1 1 0 1 1-2 0 1 1 0 0 1 2 0zM46 50a1 1 0 1 1 0 2 1 1 0 0 1 0-2M51 45a1 1 0 1 1 0 2 1 1 0 0 1 0-2M41 45a1 1 0 1 1 0 2 1 1 0 0 1 0-2"/></g><g stroke-width="2"><path stroke="#79b8ff" stroke-linecap="round" stroke-linejoin="round" d="M30 41a5 5 0 1 1 0 10 5 5 0 0 1 0-10z"/><path stroke="#2088ff" stroke-linecap="round" stroke-linejoin="round" d="m32.036 26.607-3.07 3.065-1.49-1.485M46 22a6 6 0 1 1 0 12 6 6 0 0 1 0-12zM11.093 24.749l3.846 2.396a1 1 0 0 1-.006 1.7l-3.846 2.36a1 1 0 0 1-1.522-.853v-4.755a1 1 0 0 1 1.528-.848z"/><path stroke="#2088ff" d="M20 28h4M36 28h4"/><path stroke="#79b8ff" stroke-linecap="round" d="M46 15v3.051M30 38v3"/></g><path fill="#79b8ff" d="M44 27a1 1 0 1 1-.001 2.001A1 1 0 0 1 44 27M48 27a1 1 0 1 1-.001 2.001A1 1 0 0 1 48 27"/><path stroke="#79b8ff" stroke-linecap="round" stroke-linejoin="round" stroke-width="2" d="M25 46.027H14a2 2 0 0 1-2-2v-4M25 10.027H14a2 2 0 0 0-2 2v4"/><g fill="#79b8ff"><path d="M30 4a1 1 0 1 1 0 2 1 1 0 0 1 0-2M27.441 6.48a1 1 0 1 1-2 .001 1 1 0 0 1 2 0zM34.554 6.483a1 1 0 1 1-2 0 1 1 0 0 1 2 0zM27.44 13.51a1 1 0 1 1-2 0 1 1 0 0 1 2 0zM34.465 13.601a1 1 0 1 1-2 0 1 1 0 0 1 2 0zM30 14a1 1 0 1 1 0 2 1 1 0 0 1 0-2"/></g><g stroke="#79b8ff" stroke-linecap="round" stroke-width="2"><path d="M35 10.027h6M36 46.027h5"/></g></g></svg>