<svg xmlns="http://www.w3.org/2000/svg" xmlns:xlink="http://www.w3.org/1999/xlink" fill="#fff" fill-rule="evenodd" stroke="#000" stroke-linecap="round" stroke-linejoin="round" viewBox="0 0 74.375 85"><use xlink:href="#a" x="2.188" y="2.5"/><symbol id="a" overflow="visible"><g stroke="none"><path fill="#6b3a19" d="m8.696 33.269 9.912-14.049 12.168 13.844-10.468.907-11.612-.703z"/><path fill="#fbbf93" d="m31.878 46.731-10.499-.868-12.683.751 9.912 14.029 13.27-13.912z"/><path fill="#9d5025" d="m18.608 60.644-9.912-3.005V46.615l9.912 1.132L39.75 51.62l-21.142 9.024z"/><path fill="#f58536" d="m57.07 44.79-38.462 2.956v12.898L57.07 52.77v-7.98z"/><path fill="#fbbf93" d="m70 54.039-13.281-1.561-36.576 7.278L35 80l35-25.961z"/><path fill="#9d5025" d="m18.608 32.118-9.912 1.151V22.245l9.912-3.024 25.634 10.224-25.634 2.673zM7.006 45.347 0 44.683v-9.366l7.006-.663L31.579 40 7.006 45.347z"/><path fill="#f58536" d="M39.059 43.825 7.006 45.347V34.654l32.053 1.522v7.649zm21.833-8.4-42.284-3.307V19.22l42.284 8.712v7.493z"/><g fill="#6b3a19"><path d="m70 25.941-13.281 1.561-36.576-7.278L35 0l35 25.941z"/><path d="m70 38.586-13.281.156-36.576-.732L35 21.581l35 17.005z"/></g><path fill="#fbbf93" d="m70 41.395-13.281-.156-36.576.722L35 58.38l35-16.985z"/><path fill="#9d5025" d="m35 16-14.857 4.224V7.034L35 0l28.746 17.688L35 16z"/><path fill="#f58536" d="M70 16.566 35 0v16l35 9.941v-9.376z"/><path fill="#9d5025" d="m35 37.581-14.857.429V24.82L35 21.581l28.746 11.688L35 37.581z"/><path fill="#f58536" d="m70 38.586-35-1.005v-16l35 7.629v9.376z"/><path fill="#9d5025" d="m35 58.381-14.857-3.229v-13.19L35 42.38l28.746 5.766L35 58.381z"/><path fill="#f58536" d="m35 42.38 35-.985v9.376l-35 7.61v-16z"/><path fill="#9d5025" d="m35 79.971-14.857-7.034v-13.18L35 63.961l30.415-2.293L35 79.971z"/><path fill="#f58536" d="M70 63.434 35 80V63.961l35-9.922v9.395z"/></g></symbol></svg>