<svg xmlns="http://www.w3.org/2000/svg" xmlns:xlink="http://www.w3.org/1999/xlink" fill="#fff" fill-rule="evenodd" stroke="#000" stroke-linecap="round" stroke-linejoin="round" viewBox="0 0 79.688 85"><use xlink:href="#a" x="2.344" y="2.5"/><symbol id="a" overflow="visible"><g stroke="none"><path fill="#9d5025" d="M0 16.727C0 9.441 5.756 3.576 12.906 3.576h49.189C69.244 3.576 75 9.441 75 16.727V66.85C75 74.135 69.244 80 62.094 80H12.906C5.756 80 0 74.135 0 66.849z"/><path fill="#f58536" d="M0 13.151C0 5.865 5.756 0 12.906 0h49.189C69.244 0 75 5.865 75 13.151v50.123c0 7.286-5.756 13.151-12.906 13.151H12.906C5.756 76.424 0 70.559 0 63.273z"/></g><path fill="none" stroke="#fff" stroke-miterlimit="10" stroke-width="3" d="M18.043 18.385h38.915v39.654H18.043z"/><path stroke="none" d="M24.141 26.878h4.868l2.83 7.296 2.83-7.296h4.868L34.4 38.024l5.519 11.392h-4.967l-3.184-7.642-3.156 7.642h-4.896l5.519-11.392zm21.666 22.538V33.627h-4.373v-2.956h.396c2.915 0 4.712-1.139 5.137-3.605h3.269v22.35z"/></symbol></svg>