<svg xmlns="http://www.w3.org/2000/svg" xmlns:xlink="http://www.w3.org/1999/xlink" fill="#fff" fill-rule="evenodd" stroke="#000" stroke-linecap="round" stroke-linejoin="round" viewBox="0 0 79.688 85"><use xlink:href="#a" x="2.344" y="2.5"/><symbol id="a" overflow="visible"><g stroke="none"><path fill="#9d5025" d="M0 16.727C0 9.441 5.756 3.576 12.906 3.576h49.189C69.244 3.576 75 9.441 75 16.727V66.85C75 74.135 69.244 80 62.094 80H12.906C5.756 80 0 74.135 0 66.849z"/><path fill="#f58536" d="M0 13.151C0 5.865 5.756 0 12.906 0h49.189C69.244 0 75 5.865 75 13.151v50.123c0 7.285-5.756 13.151-12.906 13.151H12.906C5.756 76.424 0 70.559 0 63.273z"/><path d="M36.764 59.236c-10.726 0-17.094-9.2-17.094-20.187 0-12.675 7.075-20.966 17.094-20.966v-6.734h3.184v6.792c8.222 0 15.099 5.35 15.764 14.102h-8.491c-.523-4.326-3.41-7.311-7.33-7.311v27.513c4.514-.75 7.075-3.922 7.627-8.897h8.491c-1.698 9.503-6.877 15.689-16.061 15.689v6.792h-3.184zm0-34.319c-6.509.606-8.66 7.916-8.66 14.175 0 6.042 2.448 12.372 8.66 13.353z"/></g></symbol></svg>