<svg xmlns="http://www.w3.org/2000/svg" xmlns:xlink="http://www.w3.org/1999/xlink" fill="#fff" fill-rule="evenodd" stroke="#000" stroke-linecap="round" stroke-linejoin="round" viewBox="0 0 85 85"><use xlink:href="#a" x="2.5" y="2.5"/><symbol id="a" overflow="visible"><path fill="#9d5025" stroke="none" d="M34.772 41.038c0-2.396 2.016-4.326 4.52-4.326H75.48c2.504 0 4.52 1.929 4.52 4.326v34.636C80 78.07 77.984 80 75.48 80H39.292c-2.504 0-4.52-1.929-4.52-4.326zm5.906-37.462H4.52C2.024 3.576 0 5.513 0 7.902v34.607c0 2.389 2.024 4.326 4.52 4.326h8.347V24.47c0-4.778 4.047-8.652 9.04-8.652h23.292V7.902c0-2.389-2.023-4.326-4.52-4.326zm17.386 16.568H21.906c-2.496 0-4.52 1.937-4.52 4.326v34.607c0 1.147.476 2.248 1.324 3.059s1.997 1.267 3.196 1.267h8.362V41.038c0-4.778 4.047-8.652 9.04-8.652h23.277V24.47c0-2.389-2.024-4.326-4.52-4.326z"/><path fill="#f58536" stroke="none" d="M34.772 37.462c0-2.396 2.016-4.326 4.52-4.326H75.48c2.504 0 4.52 1.929 4.52 4.326v34.636c0 2.397-2.016 4.326-4.52 4.326H39.292c-2.504 0-4.52-1.929-4.52-4.326zM40.678 0H4.52C2.024 0 0 1.937 0 4.326v34.607c0 2.389 2.024 4.326 4.52 4.326h8.347V20.894c0-4.778 4.047-8.652 9.04-8.652h23.292V4.326c0-2.389-2.023-4.326-4.52-4.326zm17.386 16.568H21.906c-2.496 0-4.52 1.937-4.52 4.326v34.607c0 2.389 2.024 4.326 4.52 4.326h8.362V37.462c0-4.778 4.047-8.652 9.04-8.652h23.277v-7.916c0-2.389-2.024-4.326-4.52-4.326z"/></symbol></svg>