<svg xmlns="http://www.w3.org/2000/svg" xmlns:xlink="http://www.w3.org/1999/xlink" fill="#fff" fill-rule="evenodd" stroke="#000" stroke-linecap="round" stroke-linejoin="round" viewBox="0 0 85 85"><use xlink:href="#a" x="2.5" y="2.5"/><symbol id="a" overflow="visible"><g stroke="none"><path fill="#9d5025" d="M0 41.579C0 20.293 17.84 3.157 40 3.157s40 17.136 40 38.422S62.16 80 40 80 0 62.864 0 41.579z"/><path fill="#f58536" d="M0 38.422C0 17.136 17.84 0 40 0s40 17.136 40 38.422-17.84 38.422-40 38.422S0 59.707 0 38.422z"/><path d="M6.375 27.21H20.9v22.424H6.375zM52.79 11.894h12.961v12.449H52.79zm0 20.303h12.961v12.45H52.79zm0 20.316h12.961v12.45H52.79z"/><path d="m49.215 40.064 2.156-1.023 1.42-.669-1.42-.682-1.919-.909-5.784-2.74v2.74H26.303l19.731-12.134 1.564 2.323 3.273-5.303.96-1.566.959-1.54-1.84.215-2.09.227-6.178.695 1.485 2.197-24.2 14.886-2.668 1.642 3.181 1.944L44.167 54.95l-1.485 2.197 6.178.694 2.09.227 1.84.215-.959-1.54-.96-1.566-3.273-5.303-1.564 2.323-19.731-12.134h17.364v2.639l5.547-2.639z"/></g></symbol></svg>