<svg xmlns="http://www.w3.org/2000/svg" xmlns:xlink="http://www.w3.org/1999/xlink" fill="#fff" fill-rule="evenodd" stroke="#000" stroke-linecap="round" stroke-linejoin="round" viewBox="0 0 85 85"><use xlink:href="#a" x="2.5" y="2.5"/><symbol id="a" overflow="visible"><g fill="#9d5025" stroke="none"><path d="M0 41.579C0 20.293 17.84 3.157 40 3.157s40 17.136 40 38.422S62.16 80 40 80 0 62.864 0 41.579z"/><path d="M0 38.422h80v3.157H0z"/></g><path fill="#f58536" stroke="none" d="M0 38.422C0 17.136 17.84 0 40 0s40 17.136 40 38.422-17.84 38.422-40 38.422S0 59.707 0 38.422z"/><path stroke="none" d="M12.724 22.008v2.841h3.641v30.303h-3.641v2.841h7.046V22.008h-7.046zm54.552 3.926H22.951v23.775h4.325v4.785h18.863v-4.785h6.809v4.785h8.189v-4.785h6.139V25.934z"/><path fill="#d9a741" stroke="none" d="M27.723 29.432h34.098v16.566H27.723V29.432z"/><path stroke="none" d="M31.364 32.045h11.817v11.111H31.364V32.045zm15.458 0h11.817v11.111H46.822V32.045z"/></symbol></svg>