<svg xmlns="http://www.w3.org/2000/svg" xmlns:xlink="http://www.w3.org/1999/xlink" fill="#fff" fill-rule="evenodd" stroke="#000" stroke-linecap="round" stroke-linejoin="round" viewBox="0 0 74.375 85"><use xlink:href="#a" x="2.188" y="2.5"/><symbol id="a" overflow="visible"><g stroke="none"><path fill="#9d5025" d="M70 38.752 42.105 14.595 29.474 2.516v12.079H9.6c-5.302 0-9.6 4.11-9.6 9.18v34.967c0 5.07 4.298 9.18 9.6 9.18h19.874V80l12.632-12.078L55.79 54.837 70 41.248z"/><path fill="#f58536" d="M55.789 25.164 42.105 12.079 29.474 0v12.079H9.6c-5.302 0-9.6 4.11-9.6 9.18v34.987c0 2.435 1.011 4.769 2.812 6.491s4.242 2.689 6.788 2.689h19.874v12.079l12.632-12.079L55.789 52.34 70 38.752z"/><path d="M6.053 25.657v2.265h2.916v24.157H6.053v2.265h5.642V25.657H6.053zm43.684 3.13H14.242V47.74h3.463v3.815H32.81V47.74h5.453v3.815h6.558V47.74h4.916V28.787z"/><path fill="#d9a741" d="M18.063 31.575h27.305v13.206H18.063V31.575z"/><path d="M20.979 33.659h9.463v8.858h-9.463v-8.858zm12.379 0h9.463v8.858h-9.463v-8.858z"/></g></symbol></svg>