<svg xmlns="http://www.w3.org/2000/svg" xmlns:xlink="http://www.w3.org/1999/xlink" fill="#fff" fill-rule="evenodd" stroke="#000" stroke-linecap="round" stroke-linejoin="round" viewBox="0 0 85 85"><use xlink:href="#a" x="2.5" y="2.5"/><symbol id="a" overflow="visible"><g stroke="none"><path fill="#9d5025" d="M0 41.579C0 20.293 17.84 3.157 40 3.157s40 17.136 40 38.422S62.16 80 40 80 0 62.864 0 41.579z"/><path fill="#f58536" d="M0 38.422C0 17.136 17.84 0 40 0s40 17.136 40 38.422-17.84 38.422-40 38.422S0 59.707 0 38.422z"/><path d="M50.726 38.244v-7.753c-.656-5.17-5.226-9.056-10.647-9.056s-9.991 3.886-10.647 9.056v7.753h-5.508v17.184h32.152V38.244zm-5.258 0h-10.91v-7.753c.016-1.345.618-2.623 1.659-3.523s2.428-1.339 3.822-1.212c2.866-.122 5.305 1.985 5.481 4.735z"/></g></symbol></svg>