<svg xmlns="http://www.w3.org/2000/svg" xmlns:xlink="http://www.w3.org/1999/xlink" fill="#fff" fill-rule="evenodd" stroke="#000" stroke-linecap="round" stroke-linejoin="round" viewBox="0 0 85 85"><use xlink:href="#a" x="2.5" y="2.5"/><symbol id="a" overflow="visible"><g stroke="none"><path fill="#9d5025" d="M0 41.579C0 20.293 17.84 3.157 40 3.157s40 17.136 40 38.422S62.16 80 40 80 0 62.864 0 41.579z"/><path fill="#f58536" d="M0 38.422C0 17.136 17.84 0 40 0s40 17.136 40 38.422-17.84 38.422-40 38.422S0 59.707 0 38.422z"/><path d="M50.832 20.581h4.22V56.25h-4.22zm11.856 9.028 11.042 8.636-11.042 8.99V29.609z"/><path d="m23.661 36.402 2.406 1.869-2.668 2.172h41.157v-4.04H23.661zm-.263-13.788h31.653v-4.053h-31.39l2.406 1.881-2.668 2.172zm2.668 33.497-2.668 2.172h31.653V54.23h-31.39l2.406 1.881zM14.604 31.364l8.833 6.906-8.833 7.21V31.364zM14.604 13.535l8.833 6.907-8.833 7.197V13.535zm0 35.67 8.833 6.907-8.833 7.197V49.205z"/></g></symbol></svg>