<svg xmlns="http://www.w3.org/2000/svg" viewBox="0 0 48 48"><path fill="#7AA116" fill-rule="evenodd" d="M7 44h2v-2H7v2Zm3-4H6a1 1 0 0 0-1 1v4a1 1 0 0 0 1 1h4a1 1 0 0 0 1-1v-4a1 1 0 0 0-1-1Zm-5-4h2v-2H5v2Zm4 1v-4a1 1 0 0 0-1-1H4a1 1 0 0 0-1 1v4a1 1 0 0 0 1 1h4a1 1 0 0 0 1-1Zm6 3h5v-5h-5v5Zm6-7h-7a1 1 0 0 0-1 1v7a1 1 0 0 0 1 1h7a1 1 0 0 0 1-1v-7a1 1 0 0 0-1-1Zm10.5 3a.5.5 0 1 1 0-1 .5.5 0 0 1 0 1Zm0-2c-.827 0-1.5.673-1.5 1.5s.673 1.5 1.5 1.5 1.5-.673 1.5-1.5-.673-1.5-1.5-1.5ZM25 44h19v-2H25v2Zm3.179-8.254a2.852 2.852 0 0 1 1.303-3.077 2.874 2.874 0 0 1 3.572.494L39.696 40H29.149l-.97-4.254Zm10.594-12.992a4.301 4.301 0 0 0 2.239.901l-5.024 9.657-1.489-1.532a4.812 4.812 0 0 0-2.188-1.322l6.189-7.891.273.187ZM22 5.818l20.754 11.571c.541.355.904.902 1.019 1.539a2.317 2.317 0 0 1-.41 1.799c-.298.409-.71.698-1.181.848l-.069-.036-.032.06c-.097.026-.193.057-.295.071-.638.089-1.266-.085-1.828-.525L22 8.842V5.818Zm2 17.577v5.876a3.985 3.985 0 0 1-.474-1.099l-.295-3.262a.994.994 0 0 0-.101-.357l-1-2a1 1 0 0 0-1.634-.226c-.365.401-1.213.652-2.27.673h-.207c-1.061-.02-1.914-.271-2.28-.673a1 1 0 0 0-1.634.226l-1 2c-.055.112-.09.233-.101.357l-.295 3.262c-.18.643-.447 1.088-.709 1.39v-6.148l3.361-3.36a.996.996 0 0 0 .23-.358 2.755 2.755 0 0 1 2.516-1.791h.021a2.757 2.757 0 0 1 2.517 1.791.981.981 0 0 0 .207.334L24 23.395ZM17 5.5c0-.827.673-1.5 1.5-1.5s1.5.673 1.5 1.5v10.829a4.698 4.698 0 0 0-1.834-.424h-.097a4.732 4.732 0 0 0-1.069.156V5.5ZM45 40h-2.516l-5.028-5.176 6.067-11.663a4.301 4.301 0 0 0 2.218-4.592c-.215-1.18-.886-2.194-1.951-2.89L21.112 3.033l-.054.096A3.477 3.477 0 0 0 18.5 2C16.57 2 15 3.57 15 5.5v11.625a4.724 4.724 0 0 0-1.198 1.66l-3.509 3.508A.998.998 0 0 0 10 23v7.981c-.01.569.415 1.041 1.011 1.124.067.01.137.014.21.014 1.087 0 2.793-1.043 3.444-3.515.014-.054.023-.109.029-.165l.285-3.161.403-.807c.912.42 1.949.517 2.618.529h.254c.656-.012 1.688-.109 2.599-.529l.403.807.286 3.161c.005.056.014.111.028.165.581 2.204 1.949 3.234 2.945 3.447.717.152 1.097-.166 1.26-.369.15-.185.227-.436.224-.682L26 23a1 1 0 0 0-.27-.683l-3.29-3.516a4.71 4.71 0 0 0-.44-.79v-6.744l14.847 10.168-7.039 8.974a4.8 4.8 0 0 0-1.364.55 4.85 4.85 0 0 0-2.215 5.231l.868 3.81H24a1 1 0 0 0-1 1v4a1 1 0 0 0 1 1h21a1 1 0 0 0 1-1v-4a1 1 0 0 0-1-1Z"/></svg>