<svg xmlns="http://www.w3.org/2000/svg" viewBox="0 0 48 48"><path fill="#7AA116" fill-rule="evenodd" d="M20.443 21.396a.99.99 0 0 0 .988.99.99.99 0 0 0 0-1.977.989.989 0 0 0-.988.988Zm7.323 6.116a.99.99 0 0 0-1.977 0 .99.99 0 0 0 1.977 0Zm2.92 3.51v-8.616h-6.454a2.985 2.985 0 0 1-2.801 1.98 2.992 2.992 0 0 1-2.988-2.99 2.992 2.992 0 0 1 2.988-2.988c1.299 0 2.395.838 2.807 1.997h6.448v-2.517H17.532v8.633h6.44a2.984 2.984 0 0 1 2.806-1.997 2.992 2.992 0 0 1 2.988 2.988 2.992 2.992 0 0 1-2.988 2.99 2.984 2.984 0 0 1-2.801-1.98h-6.445v2.5h13.154Zm-14.154 2a1 1 0 0 1-1-1V16.89a1 1 0 0 1 1-1h15.154a1 1 0 0 1 1 1v15.134a1 1 0 0 1-1 1H16.532Zm27.61-18.24L36.89 7.436v34.502l7.253-4.352V14.783Zm2 23.37c0 .352-.184.678-.484.858l-9.253 5.552a1.004 1.004 0 0 1-1.008.013 1 1 0 0 1-.507-.87v-4.106h-2.74v-2h2.74V11.198h-2.74v-2h2.74V5a1 1 0 0 1 1.712-.702l9.253 9.371a1 1 0 0 1 .288.702v23.782ZM11.253 7.437 4 14.781v22.805l7.253 4.352V7.435Zm2 30.163h2.78v2h-2.78v4.106a1 1 0 0 1-1.513.857L2.486 39.01A1.001 1.001 0 0 1 2 38.153V14.37a1 1 0 0 1 .288-.702L11.54 4.3A1 1 0 0 1 13.253 5v4.197h2.78v2h-2.78V37.6Zm5.72 2h3.702v-2h-3.701v2Zm6.537 0h3.779v-2h-3.78v2Zm-6.536-28.401h3.7v-2h-3.7v2Zm6.536 0h3.779v-2h-3.78v2Z"/></svg>