<svg xmlns="http://www.w3.org/2000/svg" viewBox="0 0 48 48"><path fill="#7AA116" fill-rule="evenodd" d="M24 32.977a1.001 1.001 0 0 1 0-2 1.001 1.001 0 0 1 0 2Zm1-3.815V18h-2v11.162a2.997 2.997 0 0 0-2 2.816c0 1.654 1.346 3 3 3s3-1.346 3-3a2.997 2.997 0 0 0-2-2.817Zm1.522 5.92c-.953.776-2.158 1.06-3.39.806-1.544-.322-2.776-1.59-3.063-3.157-.279-1.526.294-2.997 1.534-3.934l.397-.3V14c0-1.103.897-2 2-2s2 .897 2 2v14.5l.397.299c1.019.77 1.603 1.929 1.603 3.18 0 1.209-.538 2.34-1.478 3.103ZM28 27.528v-13.53c0-2.205-1.794-4-4-4s-4 1.795-4 4v13.53a5.985 5.985 0 0 0-1.897 5.564c.432 2.358 2.29 4.268 4.623 4.752.421.089.845.132 1.265.132a5.989 5.989 0 0 0 3.794-1.344A5.98 5.98 0 0 0 30 31.977a5.929 5.929 0 0 0-2-4.448Zm-9.796-2.107-1.566 1.244-1.148-1.445.396-2.805-1.352-1.916 1.352-1.916-.396-2.804 1.148-1.445 1.566 1.243-.614.774.388 2.738-.997 1.41.997 1.41-.388 2.738.614.774Zm-4.404.94 1.946 1.928-1.406 1.42-2.685-2.655.662-3.936-2.201-2.62 2.201-2.617-.662-3.937 2.685-2.655 1.406 1.42-1.946 1.927.642 3.825-1.713 2.038 1.713 2.038-.642 3.825ZM30 27h4v-2h-4v2Zm0-4h5v-2h-5v2Zm0-4h4v-2h-4v2Zm0-4h5v-2h-5v2Zm9 22.865C39 38.49 38.491 39 37.865 39h-27.73A1.136 1.136 0 0 1 9 37.865v-27.73c0-.626.509-1.136 1.135-1.136h27.73C38.491 9 39 9.51 39 10.134v27.731ZM46 15v-2h-5v-2.865A3.139 3.139 0 0 0 37.865 7H35V2h-2v5h-3V2h-2v5h-3V2h-2v5h-3V2h-2v5h-3V2h-2v5h-2.865A3.139 3.139 0 0 0 7 10.134V13H2v2h5v3H2v2h5v3H2v2h5v3H2v2h5v3H2v2h5v2.866A3.138 3.138 0 0 0 10.135 41H13v5h2v-5h3v5h2v-5h3v5h2v-5h3v5h2v-5h3v5h2v-5h2.865A3.138 3.138 0 0 0 41 37.865V35h5v-2h-5v-3h5v-2h-5v-3h5v-2h-5v-3h5v-2h-5v-3h5Z"/></svg>