<?xml version="1.0" encoding="utf-8"?>
<!-- Generator: Adobe Illustrator 24.1.1, SVG Export Plug-In . SVG Version: 6.00 Build 0)  -->
<svg version="1.1" id="Layer_1" xmlns="http://www.w3.org/2000/svg" xmlns:xlink="http://www.w3.org/1999/xlink" x="0px" y="0px"
	 viewBox="0 0 512 512" style="enable-background:new 0 0 512 512;" xml:space="preserve">
<style type="text/css">
	.st0{fill-rule:evenodd;clip-rule:evenodd;fill:#D15F3E;}
</style>
<g>
	<path class="st0" d="M386.2,453.7c-60.3,34.8-143.2,38.4-226.7,2.7C92,427.6,35.9,377.3,0,319.8c17.2,14.4,37.4,25.9,58.9,35.9
		c86.2,40.4,172.3,37.6,232.9,0.1l-0.1-0.1C205.5,289.6,132.2,203.4,77.6,133c-11.5-11.5-20.1-25.9-28.7-38.8
		c66.1,60.4,171,136.5,208.4,158.1c-79-83.4-149.5-186.8-146.6-184c125,126.5,241.5,198.3,241.5,198.3c3.9,2.2,6.8,4,9.2,5.6
		c2.5-6.4,4.7-13.1,6.6-20C388,179,365.1,95.6,314.8,26.6C431.2,97,500.2,229.2,471.4,339.9c-0.8,3-1.6,5.9-2.4,8.8l1,1.2
		c57.5,71.9,41.7,148,34.5,133.7C473.3,422.6,415.5,441.3,386.2,453.7z"/>
</g>
</svg>
