<svg xmlns="http://www.w3.org/2000/svg" id="Layer_1" viewBox="0 0 608 410.42"><defs><clipPath id="clippath"><path d="M48.68 74.41h95v42.14h-95z" class="cls-7"/></clipPath><style>.cls-2{fill:#f9b110}.cls-3,.cls-4{fill:#00bfb3}.cls-6{fill:#ecf0f6}.cls-7{fill:#fec514}.cls-9{fill:#c5cede}.cls-11{fill:#1c1e23}.cls-13{fill:#535766}.cls-14{stroke:#343741;stroke-miterlimit:10;stroke-width:2.3px;fill:none}.cls-13,.cls-16,.cls-4{fill-rule:evenodd}.cls-16{fill:#535966}</style></defs><path d="M569.75 396.27H38.25c-11.59 0-20.99-9.4-20.99-20.99V49.33c0-11.59 9.4-20.99 20.99-20.99h531.5c11.59 0 20.99 9.4 20.99 20.99v325.95c0 11.59-9.4 20.99-20.99 20.99 0 0 11.59 0 0 0Z" style="stroke:#dce2ea;stroke-dasharray:0 0 5.96 5.96;stroke-linecap:round;stroke-linejoin:round;fill:none"/><rect width="311.19" height="31.05" x="148.4" y="14.03" class="cls-6" rx="15.53" ry="15.53"/><circle cx="170.32" cy="28.15" r="5.81" class="cls-14"/><path d="m166.21 32.26-4.52 4.53" class="cls-14"/><rect width="87.81" height="7.36" x="187.88" y="25.88" class="cls-9" rx="3.68" ry="3.68"/><rect width="55.28" height="7.36" x="283.98" y="25.88" class="cls-9" rx="3.68" ry="3.68"/><rect width="70.29" height="7.36" x="347.62" y="25.88" class="cls-9" rx="3.68" ry="3.68"/><path d="M48.68 124.19h510.56v42.14H48.68z" style="fill:#f04e98"/><path d="M48.68 74.41h95v42.14h-95z" class="cls-7"/><g style="clip-path:url(#clippath)"><path d="M449.29 397.06c1.16-.1 1.99-1.43 1.66-2.74-.12-.49.04-.65.27-.94.33-.42.15-1.1-.28-1.4-.45-.3-.75-.11-1.01.25-.19.27-.39.58-.66.72-.63.31-1.32.53-2.02.8-1.2-1.28-1.79-1.3-2.63.02-.45.71-.17 1.61.68 1.83.63.16 1.29.07 2.14.09.39.68.92 1.43 1.85 1.35ZM474.32 359.16c-.66.58-.74 1.82-.15 2.47.51.56 1.78.57 2.4.02.63-.56.53-1.59-.24-2.41-.54-.58-1.4-.62-2.01-.08ZM457.06 361.06c-.58.63-.6 1.75-.03 2.25.7.62 1.74.63 2.35.02.63-.64.58-1.51-.13-2.17-.76-.71-1.59-.75-2.18-.1ZM433.99 383.01c.35-.19.86-.39.72-.89-.19-.66.04-1.15.33-1.68.25-.44.12-.81-.33-1.04-.47-.24-1.19-.06-1.22.41-.06.73-.47 1.06-.94 1.28-.45.44-.59 1.16-.35 1.53.25.38 1.3.64 1.78.39ZM443.59 403.55c.64-.61.81-1.61.34-2.12-.53-.59-1.99-.68-2.49-.16-.54.57-.54 1.62 0 2.16.58.58 1.59.64 2.14.12ZM449.81 339.63c.68.67 1.69.66 2.3-.01.54-.59.58-1.34.09-1.81-.65-.62-2-.7-2.47-.14-.48.57-.45 1.44.08 1.96ZM470.85 400.78c-.62.65-.57 1.62.13 2.21.53.45 1.46.39 1.96-.14s.33-1.56-.38-2.21c-.5-.47-1.18-.41-1.71.14ZM453.52 382.34c-1-.59-1.22-.45-1.26.67-.46.38-.91.58-1.08.93-.17.37-.15.88-.07 1.3.1.52.72.69 1.29.36.34-.2.78-.51.84-.83.07-.4-.2-.87-.34-1.37.35-.2.79-.45.61-1.06ZM474.62 378.4c-.69-.06-1.35.28-1.52.9-.08.27-.01.68.15.91.53.72 1.25.92 2.25.46.04-.34.15-.71.13-1.07-.04-.62-.53-1.15-1.01-1.19ZM478.19 358.47c.59.48 1.66.44 2.18-.09.33-.33.22-1.16-.19-1.54-.63-.58-1.36-.57-1.88.02-.45.51-.5 1.28-.1 1.61ZM467.95 350.57c.44.46 1.11.51 1.5.11.5-.51.59-1.47.16-1.84-.5-.44-1.42-.45-1.88-.01-.35.33-.23 1.27.22 1.75ZM430.64 396.97c-.5-.45-1.09-.34-1.65.3-.31.36-.29 1.13.05 1.44.4.37 1.7.43 1.99.09.36-.43.17-1.32-.39-1.82ZM418.86 371.5c-.52.58-.52 1.24-.01 1.71.47.43 1.22.51 1.53.16.46-.52.4-1.58-.11-2.09-.32-.32-1.03-.22-1.41.21ZM458.85 400.11c-.44-.41-1.01-.32-1.58.27-.46.48-.53 1.06-.16 1.39.35.31 1.63.4 1.9.13.49-.47.42-1.24-.16-1.79ZM475.49 374.75c-.51-.54-.93-.52-1.53.07-.53.53-.62 1.11-.23 1.48.35.34 1.59.37 1.89.05.42-.46.38-1.06-.13-1.59ZM429.5 383.07c.69.62 1.22.68 1.67.19.33-.35.25-1.34-.13-1.64-.35-.28-1.32-.13-1.68.26-.32.35-.27.83.13 1.19ZM485.09 372.01c.41.37.89.42 1.2.13.37-.35.45-1.55.13-1.86-.47-.45-1.02-.38-1.56.2-.44.48-.36 1.01.22 1.54ZM482.91 365.83c.37.38 1.16.23 1.69-.32.33-.34.26-.68-.03-.99-.42-.46-1.19-.57-1.52-.24-.36.37-.44 1.24-.14 1.55ZM458.15 391.45a.9.9 0 0 0 1.3-.08c.3-.37.27-1.05-.06-1.35-.27-.24-1.21-.12-1.46.19-.2.24-.06.98.22 1.24ZM428.58 380.87c.1-.39 0-.73-.36-.97-.38-.26-.95-.28-1.23.05-.43.52-.15 1.03.06 1.52 1 .08 1.38-.06 1.52-.6ZM450.07 356.32c-.39-.33-.97-.31-1.31.05-.33.36-.3 1.01.05 1.3.35.29 1.03.22 1.31-.14.31-.38.28-.92-.05-1.21ZM448.17 346.26c-.32.31-.3.87.05 1.21.37.36.9.4 1.21.1.34-.33.37-.89.07-1.22-.32-.36-1-.4-1.32-.08ZM433.32 394.79c.49-.28 1.05-.42.93-1.06-.08-.44-.4-.7-.87-.74-.39-.03-.65.12-.77.5-.19.63.2.96.71 1.3ZM446.11 343.75c.13.21.45.39.7.4.51.03.71-.31.86-1.24-.41-.26-.8-.72-1.36-.27-.36.29-.46.72-.21 1.11ZM434.53 357.79c-.35.32-.37.93-.05 1.23.33.31.91.31 1.24 0 .34-.32.35-.74.02-1.11-.34-.39-.86-.44-1.21-.12ZM415.63 393.11c-.32-.34-.82-.34-1.21.01-.37.33-.39.72-.05 1.07.34.36.86.37 1.2.04.29-.28.32-.84.06-1.12ZM424.91 381.22c.2-.09.44-.5.38-.68-.09-.31-.35-.7-.64-.8-.63-.23-.78.37-1.09.82.37.54.74.94 1.34.67ZM457.92 341.93c.36.11 1.22-.72.99-1.17-.18-.35-.75-.55-1.06-.36-.45.26-.29 1.42.07 1.53ZM464.94 341.46c.37-.1.79-.99.5-1.33-.41-.47-.84-.64-1.29 0s.42 1.42.79 1.32ZM450.97 389.41c-.47-.3-.98-.34-1.43.08-.4.38-.31 1.08.18 1.51.34.29.87.21 1.24-.19s.4-1.15.01-1.4ZM420.77 390.98c-.22-.22-.75-.07-1.08.28-.25.27-.25.54.02.77.3.25.65.4 1 .08.28-.25.3-.89.06-1.13ZM414.91 356.51c-.12-.22-.42-.48-.63-.46-.57.04-.72.72-.63 1s.75.52 1.15.13c.14-.13.2-.51.11-.67ZM428.04 359.83c-.33-.14-.85.05-.96.35-.17.43.62 1.18.95 1.02s.44-1.18 0-1.37ZM415.28 375.36c-.25-.29-1.14-.13-1.24.14-.1.27.09.59.28.84.21.27.58.37.86.02.24-.3.42-.64.1-1ZM428.19 363.84c-.52-.47-1.38-.55-1.75-.16-.37.39-.31 1.5.1 1.88.61.56 1.3.55 1.77-.03.47-.56.42-1.2-.13-1.69ZM445.19 372.61c.41.15 1.01-.55 1.1-.78s-.06-.57-.22-.68-.57-.28-.95-.02-.34 1.34.07 1.49ZM421.44 365.74c-.22.17-.04.77.07.99.17.32.82.32.96 0 .09-.2.03-.6-.12-.76-.14-.16-.7-.4-.92-.23ZM458.45 336.43c.21.35.66.3.87.05.15-.18.46-.73.08-1.07s-.8.09-.92.26c-.13.17-.14.57-.02.76ZM449.76 333.92c.16.02.48-.24.51-.41.03-.17-.18-.48-.36-.55-.13-.05-.63.09-.71.33s.39.62.56.63ZM486.17 353.54c.15.16.45.09.58 0 .12-.09.31-.53.16-.68s-.59 0-.69.1c-.1.12-.2.42-.05.58ZM458.21 344.62c.16-.06.37-.27.36-.47s-.35-.31-.51-.3c-.13 0-.49.27-.46.51s.48.3.61.26ZM421.02 350.28c.36.09.82.29 1.15 0 .33-.28 0-.7-.15-.79-.3-.16-1.08-.45-1.32-.23s.19.98.32 1.01ZM469.51 338.8c.28.23.54-.05.65-.18.08-.09.03-.45-.07-.52-.14-.09-.46-.09-.56.02-.1.1-.29.45-.01.68ZM490.18 376.78c.07-.16.16-.39-.03-.57s-.41-.05-.46.03c-.09.14-.28.44-.09.67s.55-.05.58-.13ZM425.37 388.17c-.02.32.37.44.71.28.28-.13.62-.5.67-.79.07-.4-.26-.51-.38-.51-.26 0-.44.2-.62.41-.17.19-.37.33-.39.61ZM432.69 390.17c-.11-.9-.63-1.34-1.24-1.48-.61-.13-1.22.67-1.43 1.52-.15.62.57 1.57 1.2 1.6.63.03 1.58-.75 1.47-1.65ZM461.8 371.51c.59-.84.07-2.4-.52-2.84s-1.08-.73-1.69-.68c-.73.05-1.64.63-1.78 1.39s.41 1.81.22 2.05c-.19.24-1.55.07-2.07.96-.32.56-.27 1.13-.02 1.61-.09-.13-.19-.26-.32-.38-.51-.47-1.08-.43-1.58.11-.52.55-.52 1.41 0 1.94.49.51 1.46.48 1.93-.04.34-.38.35-.96.06-1.49.15.23.34.44.57.61.72.54 2.64.15 3.14-.52s-.12-1.49 0-1.7 1.47-.17 2.06-1.01ZM466.43 360.24c-.14-.22-.19-.83-.66-.91-.48-.07-1.26 1.15-1.28 1.39-.02.24.21.89-.28 1s-1.07-.14-1.43.24-1.26 1.23-.95 2.02c.29.74.9.33 1.35.49s1.09.03 1.36-.53.25-1.24.48-1.45.58-.38.87 0c.29.38 1.05.54 1.8-.11s.59-1.93-.12-2.11c-.7-.18-.99.18-1.13-.04ZM449.17 350.37c-.22-.06-.46-.2-.59-.37-.56-.71-1.2-.76-1.85-.14a.586.586 0 0 0-.18-.27c-.3-.24-.88-.12-1.22.27-.42.46-.45 1.1-.07 1.43.36.31.88.25 1.21-.13.12.22.31.43.59.61.36.23.67.42.81.86.22.64.84.84 1.41 1.01.53.16 1.23-.22 1.54-.71.03-.05.05-.1.08-.14.02.38.16.76.42.99.4.36 1.04.23 1.57-.32.41-.42.5-1.21.19-1.52-.45-.44-1.48-.49-1.88-.1-.06.06-.11.13-.15.2-.03-.22-.13-.44-.29-.67-.41-.57-.96-.8-1.58-.99ZM477.29 368.93c.2.32.62.37.97.11.57-.42.81-.88.63-1.17-.2-.32-1.11-.49-1.45-.28-.29.18-.38.97-.15 1.34ZM486.11 387.18c.14.1.34.29.56.1.21-.19.1-.4.02-.47-.12-.12-.46-.38-.64-.22s-.02.53.06.59ZM459.28 376.5c-.27-.4-.71-.46-1.16-.41-.47.06-.5.48-.61.8-.23.63.04 1.12.55 1.63l1.32-.34c-.05.18-.09.35-.14.51-.21.73-.57.84-1.08.25-.56-.64-1.16-.62-1.85-.32-.62.27-.98.88-.9 1.56.09.77.45 1.19 1.24 1.22.48.02 1-.11 1.44-.3.37-.16.67-.26 1-.02.49.35.86.14 1.15-.33.6 1.15 1.39 1.48 2.41 1.08.81-.31.96-.85.65-1.91.31-.47.63-.82.77-1.23.18-.53-.1-1.12-.56-1.25-.61-.17-1.25-.25-1.9-.38-.32-.8-.38-.82-1.3-.5-.22.3.19.96-.51.98-.17-.36-.3-.73-.51-1.05ZM456.19 399.27c1.71-.5 1.99-.94 1.75-2.68v-.14h.01c.05.23.17.5.25.63.19.3.53.42.87.13.35-.29.41-.73.13-.99-.13-.12-.49-.27-.79-.3.27-.41.26-.76-.03-1.05-.4-.39-1.1-.32-1.42.28-.28.52-.69.49-1.17.58-.3-1.29-1.02-1.65-2.03-1.1-.1.05-.2.12-.29.18-.62.47-.67.95-.14 1.51.45.48.92.91 1.83.41-.14.44-.17.71-.3.89-.29.4-.28.77.03 1.13.33.38.71.68 1.28.51ZM463.07 387.99c.89.03 1.42-.55 1.28-1.44-.04-.26-.16-.5-.32-1 .41 0 .74-.1.94.01.66.39 1.14.2 1.58-.34.11-.14.3-.22.45-.32.52-.35.69-.76.47-1.1-.31-.46-.83-.45-1.36.03-.05.05-.06.15-.11.2-.29.22-.55.23-.69-.16-.05-.14-.04-.31-.1-.44-.23-.57-.81-.93-1.44-.92-.71.01-1.05.28-1.3 1.03-.26.78-.02 1.47.45 2.08-.27.28-.55.49-.72.77-.56.86-.16 1.57.87 1.61ZM459.2 386.82c-.53-.37-1.05-.87-1.84-.54-.39.16-.81.21-1.29-.03-.56-.29-1.38.05-1.62.47-.22.39.08 2.05.61 2.54.7.1 1.6.24 2.52.34.12.01.32-.21.38-.36.19-.45.48-.71.93-.91.6-.26.77-1.18.3-1.5ZM435.75 365.59c.13-.45-.24-1.01-.87-1.3-.2-.09-.41-.17-.63-.25-.08-.55-.09-1.15-.44-1.53.09-.1.17-.21.24-.32.34-.54-.04-1.67-.63-1.9-.59-.23-1.74.2-1.92 1.09-.11.53-.02.95.18 1.27-.06.05-.11.1-.17.15-.67.62-.48 1.28-.09 1.95-.39.3-.98.44-.73 1.11.16.42.48.6.88.56.7-.08.68-.66.71-1.19l.89-.18.29 1.14c.33.09.61.22.9.24.47.04 1.29-.49 1.39-.84ZM453.38 366.99c.08.47.37.81.84.7.48-.11.86 0 1.3.15.98.36 1.86-.1 2.23-1.1.08-.23.22-.43.25-.5.58-.31.66-.68.55-1.06-.12-.43-.5-.52-.9-.53-.44 0-.88-.03-1.32-.03-.49 0-.99-.01-1.28.52-.07.13-.27.22-.43.25-1.21.21-1.42.48-1.24 1.59ZM483.56 391.38c-.59-.42-1.28-.44-1.93-.18-.21.08-.43.33-.51.55-.3.87.04 1.63.87 2.04.17.08.33.16.51.24-.16.33-.34.62-.46.93-.23.6-.11.91.44 1.22.51.28 1.03.25 1.49-.1.45-.34.48-.86.33-1.34-.11-.35-.35-.65-.54-1 .08-.16.17-.32.23-.5.23-.65.07-1.51-.42-1.86ZM439.7 391.79c.61.14.54.59.74.96.18.33.54.58.87.81.2.14.48.18.74.24s.52.08.78.1c.86.08 1.34-.2 1.5-.86.17-.74-.22-1.37-1-1.63-.8-.27-1.65-.48-2.39-.88-.6-.33-1.55-.27-1.74.16s.27 1.06.49 1.11ZM438.93 383.61c.3-.29.52-.66 1.14-.47.07.25.07.6.24.73.27.21.67.4.98.36.43-.05.53-.46.47-.88-.05-.32-.07-.65-.11-.97-.09-.79-1.8-1.77-2.5-1.42-.07.03-.15.08-.17.14-.19.71-.82.65-1.35.78-.67.16-.89.67-.63 1.29.02.06.05.12.08.17-.14.03-.27.09-.37.19-.23.22-.32.57-.48.86l-.04-.04c.29.28.57.57.89.88.26-.16.51-.26.7-.42.27-.23.37-.55.32-.84.28 0 .57-.11.82-.36ZM456.37 345.7c-.45.39-.83.88-1.17 1.38-.35.53-.07 1.53.43 1.95.3.25.64.33.93.09.73-.63 1.4-1.34 1.67-2.31.05-.17 0-.37 0-.46-.24-.99-1.14-1.28-1.87-.64ZM424.62 362.68c.86-.54.86-1.48.03-1.98-.51-.3-1.09-.52-1.67-.68-.61-.17-1.48.41-1.72 1.02-.14.37-.15 1.24.65 1.35 1.26-.49 1.27.48 2.28.43.18 0 .36-.11.44-.14ZM446.72 382.72c-.1-.11-.22-.21-.3-.34-.35-.58-.8-.56-1.31-.36-.49.19-.63.58-.68 1.13-.13 1.34.23 1.82 1.44 1.91.91.06 1.82.17 2.71.26.03 1.87.18 2.01 1.58 1.68.34-.89.03-1.48-.76-1.9.4-2.27-.57-3.09-2.67-2.37ZM467.92 407.31c-.44-.54-.85-1.11-1.27-1.65.95-.86.94-1.01.05-1.65-.63.2-.77.65-.59 1.28-1.38.8-1.3 1.71.16 2.58 0 .1 0 .22-.02.32-.12.46.13.71.49.9.35.19.62.1.94-.12.76-.53.82-.95.24-1.67ZM469.9 397.59c.55-.54.5-1.41-.13-2.01-.82-.79-1.59-.8-2.39-.02-.61.59-.55 1.75.12 2.34.53.47 1.75.31 2.4-.32ZM441.23 336.38c.54.56 1.66.47 2.24-.17.52-.57.5-1.78-.03-2.27-.67-.62-1.76-.68-2.25-.11-.48.55-.46 2.04.03 2.55ZM427.02 391.02c-.6-.62-1.47-.63-2.08-.03-.6.59-.6 1.78 0 2.36.54.52 1.7.5 2.29-.04.62-.56.54-1.52-.2-2.29ZM435.71 376.76c.67.71 1.82.7 2.54-.02.66-.66.61-1.49-.13-2.28-.87-.92-1.87-1.06-2.58-.35-.71.71-.63 1.78.17 2.64ZM429.28 373.87c.4-.43.39-1.68-.02-2.07-.44-.42-1.28-.37-1.76.09-.46.45-.49 1.42-.06 1.84.51.49 1.44.56 1.84.13ZM466.71 370.56c-.71.76-.72 1.8-.02 2.42.53.47 1.11.52 1.67.16.04.05.08.1.13.14.52.45 1.54.34 2.08-.21.51-.52.51-1.69 0-2.18-.49-.48-1.24-.62-1.78-.39-.61-.46-1.6-.44-2.08.06ZM469.15 391.04c-.63-.62-1.64-.69-2.15-.15-.49.52-.52 2.05-.05 2.57.49.53 1.57.47 2.16-.13.54-.55.56-1.78.04-2.29ZM449.52 374.08c-.08-.25-.12-.51-.23-.74-.25-.54-.62-.97-1.29-.91-.69.07-1.33.24-1.66.97-.36.79.02 1.61.87 1.82 1.06.26 1.73-.03 2.33-1.04v-.1ZM441 400.21c.44-.13.72-.43.71-.9 0-.17-.09-.43-.21-.49-.38-.19-.79-.29-1.23-.44-.37-.99-1.02-1.52-1.61-1.3-.59.21-1.03 1.27-.81 1.92.24.69.64.77 2.04.34.22.53.38 1.1 1.11.88ZM439.84 407.32c-.44-.41-1.38-.3-1.85.22-.49.55-.4 1.23.25 1.78.63.53 1.29.5 1.79-.08.48-.56.4-1.36-.19-1.92ZM432.07 373c-.66.66-.59 1.57.16 2.3.5.49 1.48.43 2.06-.12.64-.61.59-1.37-.13-2.08s-1.44-.75-2.09-.1ZM461.9 373.52c-.55.58-.62 1.56-.16 2.06.5.54 2.02.51 2.51-.05.19-.22.27-.52.27-.83.29.04.61-.07.84-.32.32-.35.3-.91-.04-1.2-.35-.29-1.03-.21-1.31.16-.03.04-.06.09-.09.14-.59-.46-1.56-.46-2.03.04ZM460.53 403.73c-.59-.57-1.33-.58-1.89-.02-.6.61-.55 1.78.11 2.35.5.43 1.59.36 2.08-.15.56-.57.43-1.48-.31-2.19ZM467.71 375.68c-.49.54-.29 1.66.41 2.31.51.48 1.33.43 1.79-.16.76-.99.59-1.34-.18-2.26-.48-.57-1.48-.46-2.01.12ZM479.77 362.57c-.46-.52-1.59-.39-2.24.27-.51.51-.5 1.17.02 1.7.64.65 1.42.64 2.1-.02.53-.51.58-1.43.12-1.95ZM431.09 385.13c-.4-.15-1.04-.46-1.72-.64-.42-.11-.86.1-.97.58-.1.42.02.82.5 1.01.23.09.46.24.65.4.56.47 1.05.53 1.63.17.55-.34.6-.86-.09-1.52ZM476.85 392.39c-.51.45-.71 1.45-.37 1.83.46.52 1.43.6 1.97.15.5-.43.46-1.46-.09-2.06-.36-.4-1.01-.36-1.51.08ZM467.05 366.24c.39.34 1.11.18 1.57-.35.54-.63.49-1.15-.16-1.74-.5-.46-1.28-.54-1.61-.17-.47.52-.36 1.76.2 2.27ZM445.58 385.87c-.44-.41-1.29-.43-1.73-.02-.31.29-.41 1.02-.1 1.23.48.33.92.76 1.6.71.93-.07 1.01-.12 1.13-1.16-.34-.29-.63-.52-.9-.77ZM423.23 353.89c-.54-.5-1.25-.55-1.61-.12-.47.56-.42 1.56.1 2.1.35.37 1.2.22 1.62-.27.48-.57.44-1.2-.12-1.71ZM450.12 376.77c.08.17.43.3.65.28.63-.04 1.21-.68 1.36-1.32.11-.49-.08-.79-.49-1.01-.59-.32-1.15-.22-1.73.31-.08.08-.13.18-.2.27v.1c.13.46.2.94.4 1.36ZM441.53 369.74c.48.5 1.67.48 2.16-.04.28-.29.21-.98-.13-1.34-.56-.59-1.27-.65-1.78-.14-.45.45-.57 1.18-.25 1.52ZM458.83 351.73c-.57-.5-1.17-.46-1.68.11-.47.53-.52 1.16-.11 1.5.55.45 1.7.41 2.08-.08.29-.37.14-1.15-.3-1.53ZM441.39 352.46c-.41.47-.3 1.58.2 2.07.42.41.99.36 1.47-.12.58-.57.55-1.16-.06-1.74-.51-.48-1.28-.58-1.61-.21ZM448.93 401.05c-.61-.58-1.12-.64-1.57-.2-.46.46-.51 1.44-.1 1.85.42.41 1.44.39 1.88-.03.36-.35.25-1.17-.21-1.61ZM480.42 371.93c-.31.36-.29 1.13.05 1.44.4.37 1.7.43 1.99.09.36-.43.17-1.32-.39-1.82-.5-.45-1.09-.34-1.65.3ZM476.18 399.85c.41.42 1.27.41 1.75-.02s.43-.96-.13-1.56c-.38-.41-1.21-.56-1.53-.28-.46.4-.51 1.44-.09 1.87ZM463.06 398.9c.54.49 1.44.57 1.85.15.32-.33.09-1.56-.35-1.94-.31-.27-1.05-.22-1.36.09-.53.53-.59 1.28-.14 1.7ZM440.51 387.73c.36.4 1.17.28 1.72-.27.5-.51.46-.97-.15-1.55-.44-.42-1.14-.42-1.5 0-.3.34-.34 1.52-.07 1.82ZM424.43 373.71c-.39-.37-1.45-.3-1.87.13-.32.33-.24 1.27.13 1.67.31.32 1.04.37 1.33.08.65-.65.83-1.47.4-1.87ZM473.19 393.2c.04-.31-.13-.6-.4-.77-.5-.32-.91.04-1.35.37.12.53.14 1.13.83 1.17.06 0 .12 0 .18-.03-.03.49.18 1.17.52 1.46.35.3.85.24 1.19-.14.52-.57.58-1.32.15-1.7-.34-.3-.76-.42-1.12-.37ZM456.36 412.35c.38.34 1.23.22 1.64-.24.39-.42.32-1.16-.15-1.61-.45-.43-.89-.46-1.27-.08-.55.54-.66 1.53-.22 1.93ZM441.21 396.17c.38.41 1.27.43 1.78.03.41-.32.42-1.18.03-1.65-.29-.35-1.02-.43-1.34-.15-.65.58-.85 1.36-.47 1.77ZM462.36 389.67c-.41-.39-1.14-.2-1.75.47-.27.3-.2 1.05.13 1.34.35.3 1.3.33 1.59.06.42-.4.43-1.48.03-1.87ZM423.03 368.09c-.44-.42-.97-.48-1.32-.15-.38.36-.46 1.55-.13 1.88.48.48 1.13.42 1.69-.15.43-.44.33-1.03-.24-1.58ZM421.13 381.62c.31-.32.24-1.04-.12-1.33-.5-.4-1.22-.43-1.55-.06-.4.45-.44 1.45-.07 1.79.32.3 1.27.08 1.74-.4ZM455.53 383.15c-.28-.32-1-.34-1.33-.03-.4.37-.52 1.21-.22 1.55.42.49 1.45.6 1.85.2.37-.37.25-1.09-.29-1.72ZM473.67 355.06c-.39-.36-1.38-.29-1.78.12-.33.33-.22 1.3.19 1.66.32.28.99.29 1.26.02.6-.6.75-1.41.33-1.8ZM442.49 372.92c.36.35.85.29 1.27-.16.53-.56.6-1.2.17-1.58-.53-.47-1.31-.48-1.7-.02-.25.3-.09 1.42.26 1.76ZM445.05 345.06c-.37-.4-1.03-.31-1.59.22-.43.41-.48.94-.12 1.28.38.36 1.45.48 1.76.21.48-.43.46-1.14-.05-1.7ZM478.73 372.16c-.66-.57-1.35-.68-1.7-.27-.35.4-.22 1.42.22 1.76.33.26 1.28.1 1.57-.26.27-.33.22-.98-.08-1.24ZM450.5 357.42c-.64.65-.79 1.35-.37 1.77.32.33 1.35.33 1.67.01.32-.33.19-1.33-.23-1.76-.32-.34-.76-.35-1.08-.02ZM458.59 383.03c-.35-.14-1.52.59-1.57 1.12-.05.52.23.86.67 1.06.4.18.8.18 1.12-.21.4-.5.13-1.84-.22-1.97ZM438.83 403.07c-.38-.45-1.31-.52-1.77-.14-.37.31-.4.95-.07 1.33.36.42 1.19.43 1.65.01.41-.38.49-.85.2-1.2ZM436.98 393.62c-.33-.36-.79-.28-1.26.22-.52.55-.58.99-.19 1.36.54.51 1.21.56 1.6.1.25-.29.15-1.36-.15-1.68ZM479.2 404.22c.37.43 1.18.54 1.53.22.44-.41.57-1.26.25-1.66-.33-.41-1.13-.32-1.73.2-.31.27-.34.92-.05 1.24ZM431.55 368.48c-.35-.37-1.27-.34-1.67.05-.31.3-.3.75.03 1.11.4.44 1.11.51 1.53.16.38-.32.44-.96.11-1.31ZM430.74 378.08c.58.53 1.07.66 1.39.36.36-.34.34-1.28-.03-1.68-.3-.32-1.16-.19-1.52.23-.28.33-.22.73.16 1.09ZM454.28 406.9c-.54-.44-1.4-.04-1.56.18-.17.22.04 1.18.67 1.4.39.14.82-.02 1.05-.46.22-.42.2-.83-.16-1.13ZM464.04 394.38c-.39.36-.4.92 0 1.29.33.32.96.36 1.23.07.28-.29.36-1.14.13-1.37-.28-.29-1.04-.28-1.35 0Z" class="cls-2"/><path d="M448.23 389.01c.41.09.8-.05.9-.46.08-.32.1-.79-.08-1.02-.46-.6-.99-.14-1.57.05 0 .7.03 1.27.74 1.43ZM485.5 368.51c.3.28 1.14.34 1.36.09.3-.35.25-1.16-.09-1.45-.34-.29-.88-.24-1.21.13-.31.35-.34.96-.06 1.24ZM431.13 355.38c.27-.33.17-1.03-.19-1.31-.35-.27-.92-.2-1.22.15-.31.36-.25.83.13 1.2.4.38.96.36 1.28-.03ZM415.59 361.39c-.37-.34-.93-.31-1.3.07-.37.37-.34.91.06 1.29.31.29.89.26 1.21-.07.39-.41.41-.95.03-1.29ZM478.32 352.98c.34.47 1.07.56 1.41.25.34-.3.38-1.03.07-1.34-.3-.29-1.02-.19-1.59.36.02.17-.04.53.11.73ZM426.9 377.03c-.23.33-.5.69-.19.98.55.49 1.09.53 1.41.21.4-.41.38-1.05-.05-1.38-.37-.29-.88-.22-1.17.19ZM483.14 367.91c-.02-.19-.43-.44-.68-.45-.25-.01-.59.18-.74.39-.1.14-.02.52.11.7.25.36.57.67.89.99.27.27.54.21.81-.11 0-.11.05-.31-.02-.39-.31-.33-.31-.72-.37-1.13ZM473 369.94c-.22.3-.03 1.21.29 1.44.28.2 1.04-.01 1.3-.37.22-.31.11-.71-.27-.94-.61-.37-1.12-.42-1.32-.14ZM478.37 346.94c.24.22 1.04.08 1.35-.23.34-.34.31-.85-.07-1.19-.36-.33-.79-.34-1.09-.02-.37.4-.48 1.19-.19 1.44ZM433.55 399.95c-.34-.32-1.01-.27-1.32.08-.29.33-.27.79.05 1.11.4.41.95.42 1.29.04.3-.33.29-.95-.02-1.23ZM418.86 375.11c-.34-.32-1.01-.27-1.32.08-.29.33-.27.79.05 1.11.4.41.95.42 1.29.04.3-.33.29-.95-.02-1.23ZM462.78 366.85c-.2.27-.39.72-.3.99.21.63.9.75 1.36.5-.16.29-.33.54-.6.77-.17.15-.21.57-.15.83.11.41.14.81.18 1.23.06.57.55.98 1.06.94.74-.06 1.09-.36 1.06-1.06-.02-.37-.2-.74-.33-1.17l.54-.38c.35-.25.46-.62.35-.99-.15-.5-.59-.69-1.07-.79-.29-.06-.54-.02-.73.13.07-.36-.05-.81-.37-1.08s-.76-.28-1.02.07ZM411.75 368.85c-.29.31-.26.96.06 1.23s.94.23 1.24-.07c.31-.32.32-.79.01-1.1-.37-.38-.99-.4-1.31-.05ZM452.87 398.2c-.32-.31-.67-.28-1.01-.02-.38.29-.51.7-.35 1.1.25.62 1.06.7 1.39.48s.5-1.05-.03-1.56ZM442.4 364.14c.42-.02.77-.24.73-.68-.02-.33-.16-.79-.4-.94-.29-.18-.53-.14-.75 0-.11-.61-.63-1.12-1.22-1.49-.37-.23-.76-.3-1.15-.27-.52.05-.94.37-1.31.86-.37.5-1 .59-1.13 1.19-.18.82-.07 2.16 1.2 2.87.77.43 1.42.44 1.99.18.66-.31.52-1.23 1.04-1.79.09-.1.17-.2.24-.31.15.24.38.39.75.37ZM451.09 346.57c-.24.02-.6.37-.65.63-.14.65.55 1.19 1.05 1.13.5-.06.93-.73.54-1.35-.16-.25-.63-.44-.94-.41ZM415.99 384.2c-.31-.3-.89-.23-1.21.14-.31.36-.26.83.14 1.2.41.38.85.44 1.09.15.28-.35.27-1.21-.02-1.49ZM452.49 404.58c.27-.34.22-.97-.25-1.37-.24.05-.67.04-.96.23-.4.27-.29.94.11 1.29.33.27.82.21 1.1-.14ZM454.2 404.03c.35.32.92.31 1.2-.03.32-.37.26-1-.11-1.29-.35-.27-.93-.23-1.21.1-.27.31-.21.93.11 1.23ZM452.57 389.63c.26.14.69.21.92.09.64-.36.46-.93.22-1.51-.53-.09-1.09-.21-1.41.33-.22.37-.15.86.27 1.09ZM427.59 353.6c-.29-.34-.85-.33-1.2.01-.38.37-.4.86-.07 1.19.35.35.88.36 1.2.04.3-.3.33-.94.07-1.24ZM465.96 381.24c.17.31.46.49.6.53.47.15.76-.11 1.07-.38.28-.25.64-.4.64-.9 0-.58-.7-1.04-1.29-.95-.26.04-.55.2-.77.41-.41-.37-.97-.37-1.29 0-.27.31-.25.86.03 1.13.25.23.68.28 1.02.16ZM446.81 390.94c.23.06.61-.06.78-.23.32-.33.3-.82 0-1.14-.43-.46-1.09-.17-1.35.06-.27.23-.07 1.13.58 1.32ZM476.71 389.18c-.47.16-.94.36-.92.95.02.46.35.79.81.77.28-.02.69-.22.78-.45.23-.58-.15-.98-.67-1.27ZM470.29 359.45c-.28.32-.24.8.08 1.12.35.35.77.37 1.11.06.36-.34.38-.89.04-1.2-.33-.31-.95-.3-1.23.02ZM417.72 369.84c.35-.3.38-.84.07-1.21-.32-.39-.71-.42-1.07-.08-.39.36-.44.84-.12 1.2.28.31.81.36 1.12.09ZM474.84 406.99c-.31-.59-.84-.53-1.47-.25-.04.54-.22 1.07.37 1.35.38.18.79.09 1-.28.13-.23.21-.61.1-.82ZM423.85 387.91c-.31-.29-.68-.29-1.02-.05-.29.21-.24 1.14.09 1.26.32.12.59.01.85-.14.38-.22.38-.77.07-1.07ZM472.87 368.24c.2-.49.36-1-.22-1.27-.55-.25-.89.11-1.1.57.22.63.59.89 1.32.7ZM492.41 377.81c.5.04.85-1.1.49-1.51s-1.14-.5-1.39-.14.4 1.61.9 1.65ZM445.67 397.18c-.03-.18-.33-.43-.52-.44-.55-.02-.78.36-.82.92.34.29.69.67 1.16.31.17-.13.23-.54.18-.79ZM462.03 347.92c-.1-.22-.88-.46-1.15-.18-.29.3-.26.81.06 1.11.29.28.77.28.97-.09.15-.27.22-.62.13-.84ZM465.09 401.95c-.37-.37-.94.06-1.24.2-.33.16-.29.65.01.97.33.35.7.39.95 0 .17-.27.65-.81.28-1.18ZM445.98 409.31c-.27-.16-1.01-.45-1.21-.21-.2.24.11.93.28 1.21.17.29.74.2.98-.11.23-.3.3-.68-.04-.88ZM461.58 346.45c.29.14.72.19 1 .07.31-.13.27-.84-.07-1.05-.22-.14-.55-.09-.71-.11-.46.44-.53.94-.21 1.1ZM488.73 369.07c.29.32.82.35 1.09.05.31-.34.23-.71-.05-1-.26-.26-.59-.28-.9-.02-.33.27-.4.69-.14.97ZM474.63 382.98c.06.24.07.62.24.87.22.33.6.27.87 0 .23-.24.43-.54.15-.88-.25-.3-.83-.35-1.26.01ZM430.99 360.68c.18-.05.45-.36.43-.51-.05-.28-.23-.67-.46-.77-.47-.2-.71.22-.92.57.12.52.41.85.95.71ZM428.02 389.84c.15.12.55.13.69.01.2-.16.39-.51.35-.73-.11-.59-.62-.53-1.07-.5-.31.44-.41.87.03 1.21ZM472.92 347.42c.36-.29.06-.96.09-1.36l-.24-.13c-.52-.03-.63.1-.87.41s-.27.58-.27.7c.38.11.92.67 1.29.38ZM476.21 354.88c.26.31.62.11.86-.15.28-.31.28-.82-.06-.96-.25-.11-.81-.44-1.07-.03s.08.91.27 1.14ZM434.08 347.95c-.42-.25-.81-.57-1.21-.85-.32-.48-.77-.52-1.14-.22-.39.32-.43.8-.13 1.3.16.27.35.56.39.85.06.59.31 1.02.86 1.19.42.13 1.35-.5 1.5-.99.14-.46.32-.94-.26-1.29ZM438.33 351.44c-.39.35-.41.82-.06 1.18.37.38.97.41 1.31.06.3-.31.24-.85-.14-1.21a.798.798 0 0 0-1.11-.03ZM440.31 347.25c-.31-.31-.76-.3-.94.05-.13.26-.11.59-.15.79.43.36.96.26 1.23-.07.25-.32.08-.55-.14-.77ZM422.79 385.03c-.31-.31-.76-.3-.94.05-.13.26-.28.55-.15.79s.96.26 1.23-.07c.25-.32.08-.55-.14-.77ZM436.94 344.94c.43.36.96.26 1.23-.07.25-.32.08-.55-.14-.77-.31-.31-.76-.3-.94.05-.13.26-.11.59-.15.79ZM430.84 402.35c-.26-.16-.99-.42-1.23-.19-.24.24.2.94.39 1.17.24.28.59.25.85-.11.22-.31.33-.67-.01-.88ZM467.96 410.17c-.18-.19-.61-.16-.83-.2-.45.45-.33.79-.1 1.03.24.25.64.41.87.06.15-.23.2-.74.06-.89ZM490.65 364.14c.25 0 .52-.53.74-.85.06-.09.21-.29-.05-.51s-1.05-.17-1.3.24.04 1.12.6 1.12ZM452.75 359.83a1.5 1.5 0 0 0-.3.59c-.13-.2-.35-.32-.64-.35-.48-.05-.85.19-1 .58-.23.61.29.93.7 1.35.4-.17.75-.33.93-.6.06.24.17.46.33.62.54.52 1.73.5 2.28-.04.53-.53.54-1.4 0-1.9-.76-.73-1.78-.83-2.31-.24ZM462.29 358.74c.42-.43.51-1.29.18-1.68-.42-.49-1.53-.51-1.97-.04-.3.32-.15 1.07.29 1.53.45.46 1.15.55 1.51.19ZM467.68 358.13c.58.71 1.46.34 1.91.12.45-.21.23-1.33-.42-1.76-.42-.28-.79-.2-1.13.1-.45.4-.66 1.18-.37 1.53ZM444.13 365.53c-.56.5-.56 1.35 0 1.89.47.46.89.75 1.27.86-.28.54-.21 1.34.41 1.89.48.43 1.01.39 1.53.01.59-.42.77-1.05.5-1.63-.23-.49-.67-.77-1.12-.85.29-.65.2-1.75-.25-2.22-.44-.46-1.8-.43-2.33.05ZM447.82 366.39c.34.32.84.34 1.12.06.29-.3.21-1.05-.13-1.34-.33-.27-.84-.24-1.12.08-.31.34-.26.84.13 1.2ZM471.47 364.56c.39.29.95.25 1.22-.1.29-.37.18-.71-.14-1-.38-.35-.92-.34-1.21 0-.29.33-.23.83.13 1.1ZM428.58 351.37c.25.33.87.46 1.06.14.16-.26.48-.91.16-1.19-.32-.28-.82.05-1.04.19-.28.18-.45.5-.18.86ZM461.94 360.37c-.11-.34-.66-.31-.94-.06-.39.33-.32.71-.05.92.22.17.64.44.91.17.27-.26.18-.73.08-1.04ZM451.27 365.22c-.44-.16-1.07.47-.84.92.23.45.94.43 1.31-.03.19-.23-.12-.76-.47-.88ZM470.92 352.73c.32.22.98-.05 1.18-.24.28-.27.21-.7-.13-1-.35-.31-.69-.13-.87.15-.15.23-.5.87-.18 1.09ZM423.29 404c-.22-.17-.9-.41-1.06-.24-.16.18 0 .84.13 1.1.17.35.61.3.96 0 .36-.31.24-.66-.03-.86ZM475.05 352.99c.23.1.6.1.8-.03.31-.19.22-.89-.13-1.06-.21-.1-.51-.03-.65-.03-.38.46-.36.97-.02 1.12ZM454.12 342.39c-.34 0-.6 1.46-.35 1.74s1.01-.08 1.24-.7-.55-1.03-.89-1.04ZM482.94 388.87c.43-.02.55-.3.46-1.19-.53-.46-1.21.1-1.21.5 0 .33.41.71.75.69ZM487.2 393.86c.43-.02.91-.65.46-1.19-.53-.46-1.21.1-1.21.5 0 .33.41.71.75.69ZM432.79 396.25c-.15-.14-.8-.24-.96-.06-.15.18.06.88.18.92.26.09.81.14.91-.07.1-.2.02-.65-.13-.79ZM446.65 403.65c-.24-.21-.9.19-1.06.38-.11.13 0 .56.15.76.19.25.56.31.74-.03.13-.24.42-.89.17-1.11ZM415.29 398.51c-.19-.14-.61-.28-.76-.16-.16.12-.17.6-.06.77.1.16.72.4.89.24s.05-.76-.07-.85ZM409.87 374.05c-.14-.21-1.1-.51-1.41-.21-.31.31.19 1.22.46 1.47.2.19.82.29 1.13 0 .3-.3.04-.95-.17-1.26ZM465.78 342.55c-.15.11-.46.52-.22.83s.72 0 .84-.13c.13-.14.31-.46.08-.69s-.54-.11-.69 0ZM413.31 387.87c-.07-.11-.55-.25-.65-.15-.1.1.03.53.13.68.06.08.41.09.45.02.09-.16.15-.42.07-.56ZM425.16 346.95c.06.08.34.15.45.02.11-.13.15-.42.07-.56-.07-.11-.49-.3-.65-.15-.16.15.03.53.13.68ZM417.42 386.39c-.17-.13-.52-.01-.6.08-.12.15-.33.45-.16.58.16.13.47.11.59.02s.34-.55.17-.68ZM410.88 380.91c-.2-.16-.57-.03-.67.07-.1.1-.1.43 0 .55.08.1.43.12.53.04.12-.1.35-.51.15-.66ZM485.13 354.99c-.08.05-.25.41-.08.59s.52-.05.65-.16c.08-.07.12-.37 0-.48s-.42-.03-.57.06ZM429.08 407.91c.15.16.45.09.58 0 .12-.09.31-.53.16-.68s-.59 0-.69.1c-.1.12-.2.42-.05.58ZM439.04 341.9c.15.16.45.09.58 0 .12-.09.31-.53.16-.68s-.59 0-.69.1c-.1.12-.2.42-.05.58ZM432.62 338.9c-.08.05-.25.41-.08.59s.52-.05.65-.16c.08-.07.12-.37 0-.48s-.42-.03-.57.06ZM470.75 347.19c-.05.1-.15.25-.07.35s.19 0 .31.01c0-.13.05-.25 0-.32-.02-.05-.24-.06-.25-.03ZM413.57 385.58c-.12-.1-.29-.02-.35.04s0 .27.05.31c.06.05.22.09.3.01s.12-.26 0-.36ZM434.31 403.44c-.12-.1-.29-.02-.35.04s0 .27.05.31c.06.05.22.09.3.01.08-.08.12-.26 0-.36ZM419.6 357.89c.06.05.22.09.3.01.08-.08.12-.26 0-.36-.12-.1-.29-.02-.35.04s0 .27.05.31ZM423.61 394.8c-.07-.11-.37-.36-.65-.15s.03.53.13.68c.06.08.41.09.45.02.09-.16.15-.42.07-.56ZM477.86 379.92c.21-.15.22-.31.06-.51-.14-.18-.29-.22-.49-.07-.19.15-.24.3-.09.51.15.2.31.23.51.07ZM474.59 384.43c-.4-.16-.8-.16-1.18-.06-.51.14-.86.53-1.13 1.08-.27.56-.88.76-.9 1.38-.03.84.32 2.14 1.69 2.61.83.28 1.48.18 1.99-.18.59-.42.29-1.3.7-1.95.96-1.52-.04-2.43-1.17-2.89ZM468.49 385.15c-.62-.12-1.67.51-1.69 1.42-.02.9.43 1.42 1.02 1.64.58.22 1.3-.49 1.63-1.3.24-.59-.34-1.64-.96-1.76ZM470.69 380.59c-.56.26-1.31 1.2-.61 2.12.7.92 1.62 1.08 2.22.68.6-.4.87-1.76.38-2.39-.62-.8-1.43-.66-1.99-.41ZM446.55 379.08c-.08.72.97 1.89 1.64 1.97.67.07.99-.69 1.18-.7s.72.95 1.55 1.02 1.69-.93 1.76-1.52c.07-.59.06-1.05-.21-1.45-.33-.49-1.1-.88-1.69-.67-.59.21-1.09 1.02-1.33.99-.24-.03-.68-1.05-1.51-1.04-.84 0-1.29.68-1.37 1.41ZM436.26 352.07c-.49-.02-1.16.36-1.31.84-.21.67.29 1.17.49 1.28-.47.61-.46 1.55.04 2.03.52.49 1.14.63 1.69.44-.11.3-.11.64.08 1.02.52 1.03 1.4 1.35 2.06 1.06.44-.19.82-.83.9-1.45.34.22.75.21 1.02-.07.29-.3.26-.87-.06-1.21-.33-.34-.88-.36-1.21-.04-.04.04-.08.08-.11.13-.48-.53-1.13-.52-1.63-.39-.03 0-.07.02-.11.03.19-.5.02-1.04-.5-1.56-.2-.2-.4-.33-.6-.42.16-.11.29-.25.34-.51.11-.57-.5-1.15-1.1-1.17ZM435.37 372.29c.8.24 1.36-.63 1.59-.59.23.04.67 1.32 1.66 1.59s2.27-.76 2.49-1.46c.22-.7.31-1.26.06-1.82-.16-.35-.47-.7-.84-.93.1-.29.04-.62-.19-.84-.31-.29-.97-.28-1.24 0-.19.2-.23.49-.15.75-.58.29-1.11.8-1.34.73-.29-.09-.59-1.43-1.62-1.61s-1.73.55-1.99 1.41.77 2.53 1.57 2.77ZM462.89 351.54c.36 1.2 1.51.62 1.44 1.44s-.79.41-.79 1.57.99 1.86 1.68 1.42.61-1.16.79-1.21 1.07-.05 1.06-.71c-.01-1.38-1.24-1.05-1.37-1.45s.13-1.23 0-1.85c-.2-.86-.86-1.53-1.75-1.22-1.03.36-1.31 1.17-1.06 2ZM434.14 391.63c.43.72 1.32 1.15 1.79.56s.49-1.19.52-1.92c.03-.55-.64-.76-.13-1.15s1.47-1.33.63-2.18c-.41-.42-1.27-.43-1.75-.08h-.02c.05-.46-.13-1-.53-1.35-.54-.48-1.67-.35-2.15.24-.46.57-.44 1.44.04 1.85.46.39 1.46.41 2.07.1-.07.24-.08.48.02.67.24.44-.91.68-.62 1.31.27.6-.32 1.21.12 1.93ZM442.88 375.08c-1 .54-.86 1.19-1.54 1.48-.68.29-.74.77-.61 1.55.02.11.04.23.06.36-.28-.13-.62-.11-.75.12-.11.21-.07.62.07.82.22.3.59.38.88 0 .02-.03.05-.06.08-.09.21.39.54.65 1.09.54 1.08-.21 1.08-.95.98-1.27-.09-.32.24-.92.46-.62s.68.38 1.45-.15c.78-.52 1.01-1.12.6-1.98-.45-.94-1.77-1.29-2.78-.75ZM483.65 377c-.27-.27-.46-.29-.69-.29-.24 0-.48-.11-.81.07s-.88.69-.91 1.27c-.04.58.2 1.01.6 1.27.4.26.87.16 1.16 0s.76-.56.76-1.04.19-1.01-.1-1.3ZM478.15 375.61c-.22-.05-.44.05-.51.23s.07.54.24.63.45-.13.52-.32c.06-.15-.03-.49-.25-.54ZM480.12 383.91c.08.5.23 1.24.92 1.11s.69-.6.63-.81c-.06-.2.16-.59.29-.39.14.2.43.24.93-.09s.64-.72.38-1.27c-.29-.6-1.13-.82-1.78-.48-.64.34-.55.76-.98.95-.43.18-.47.49-.39.99ZM487.55 379.94c.3.51.48 1.17 1.17 1.42l.78-.31c.68.41 1.44.48 1.72.12.24-.3.25-.65.02-.99-.41-.59-.71-.65-1.51-.36-.54-.24-1-.51-1.49-.67-.5-.15-.95.35-.69.78ZM443.35 356.17c-.15.64.08 1.03.62 1.12 0 .66-.07 1.15.03 1.61.1.44.65.91 1.16 1.12-.31.09-.62.3-.9.64-.76.95-.74 1.46-.02 2.18.72.66 1.64.56 2.4-.24.05-.05.09-.11.13-.17-.04.48.09 1 .39 1.32.33.35 1.06.26 1.51-.18.54-.52.52-1.18-.06-1.79-.42-.44-1.19-.55-1.5-.21-.04.05-.08.1-.12.16.02-.49-.17-1.01-.56-1.36-.15-.13-.31-.23-.48-.29.61-.27 1.23-1.14 1.22-1.75-.02-.61-.65-1.27-1.45-1.37-.53-.07-.99-.05-1.28-.66-.21-.44-.69-.34-1.1-.1ZM456.99 356.39c-.7-.67-1.86-.83-2.37-.31-.56.56-.54 1.87.02 2.4.55.51 1.73.43 2.27-.15.54-.57.57-1.46.08-1.94ZM424.57 369.25c-.28.34-.26.92.06 1.22.3.29.93.23 1.21-.12.29-.35.2-.87-.19-1.19-.36-.3-.78-.27-1.08.09ZM470.05 367.01a.75.75 0 0 0-1.1 0c-.35.34-.37.75-.05 1.09.33.36.87.41 1.21.11.33-.29.3-.84-.06-1.2ZM450.27 369.45c.06.21-1.33.45-1.01 1.61.32 1.16 1.06 1.53 2.06 1.13.31-.13.74-.09 1.2-.05 0 0 0 .01.02.02.24.23.68.25.93.06.73.02 1.4-.15 1.69-1.01.4-1.2-.36-1.9-.89-1.96-.53-.06-1.09.33-1.41.16s.48-.18-.37-1.02c-.84-.84-2.62-.3-2.22 1.06ZM430.04 342.25c.05.51-.03.35-.46.65-.43.3-.83.99-.08 1.54s1.73.14 2.27-.46c.54-.6.24-2.22-.63-2.67-.63-.32-1.15.44-1.1.95Z" class="cls-2"/></g><path d="M152.57 74.41h95v42.14h-95zM256.47 74.41h95v42.14h-95zM360.36 74.41h95v42.14h-95zM464.25 74.41h95v42.14h-95z" class="cls-7"/><path d="M48.68 174.25h510.56v42.14H48.68z" style="fill:#7de2d1"/><path d="M48.72 224.3h510.56v42.14H48.72z" style="fill:#1ba9f5"/><path d="M156.27 141.71v5.26c0 1.68-1.26 2.87-3.18 2.87s-3.18-1.19-3.18-2.87v-5.26h1.21v5.16c0 1.09.75 1.87 1.97 1.87s1.97-.78 1.97-1.87v-5.16h1.21ZM159.22 149.71h-1.17v-6h1.12v.98h.07c.28-.64.87-1.05 1.77-1.05 1.23 0 2.04.78 2.04 2.26v3.82h-1.17v-3.68c0-.87-.48-1.39-1.27-1.39s-1.4.55-1.4 1.5v3.56ZM164.58 142.09c0-.38.33-.7.74-.7s.74.32.74.7-.34.7-.74.7-.74-.31-.74-.7Zm.15 1.62h1.17v6h-1.17v-6ZM170.38 144.65h-1.23v3.3c0 .68.34.8.72.8.19 0 .33-.04.41-.05l.21.96c-.14.05-.39.12-.76.12-.92.02-1.75-.51-1.75-1.6v-3.54h-.88v-.94h.88v-1.44h1.17v1.44h1.23v.94ZM171.45 146.75c0-1.84 1.1-3.12 2.77-3.12 1.36 0 2.66.85 2.66 3.02v.41h-4.27c.03 1.16.7 1.8 1.7 1.8.66 0 1.17-.29 1.38-.86l1.11.2c-.27.98-1.19 1.62-2.5 1.62-1.77 0-2.86-1.22-2.86-3.08Zm4.29-.56c0-.92-.6-1.59-1.5-1.59s-1.57.74-1.61 1.59h3.12ZM178.02 146.72c0-1.95 1.07-3.09 2.52-3.09 1.12 0 1.52.68 1.73 1.05h.07v-2.97h1.17v8h-1.14v-.93h-.1c-.21.38-.64 1.05-1.73 1.05-1.46 0-2.51-1.16-2.51-3.11Zm4.33-.01c0-1.25-.55-2.09-1.57-2.09s-1.59.89-1.59 2.09.54 2.12 1.59 2.12 1.57-.86 1.57-2.12ZM189.6 149.71h-1.21v-8h1.21v8ZM192.55 149.71h-1.17v-6h1.12v.98h.07c.28-.64.87-1.05 1.77-1.05 1.23 0 2.04.78 2.04 2.26v3.82h-1.17v-3.68c0-.87-.48-1.39-1.27-1.39s-1.4.55-1.4 1.5v3.56ZM200.86 144.65h-1.23v3.3c0 .68.34.8.72.8.19 0 .33-.04.41-.05l.21.96c-.14.05-.39.12-.76.12-.92.02-1.75-.51-1.75-1.6v-3.54h-.88v-.94h.88v-1.44h1.17v1.44h1.23v.94ZM201.93 146.75c0-1.84 1.1-3.12 2.77-3.12 1.36 0 2.66.85 2.66 3.02v.41h-4.27c.03 1.16.7 1.8 1.7 1.8.66 0 1.17-.29 1.38-.86l1.11.2c-.27.98-1.19 1.62-2.5 1.62-1.77 0-2.86-1.22-2.86-3.08Zm4.29-.56c0-.92-.6-1.59-1.5-1.59s-1.57.74-1.61 1.59h3.12ZM208.77 143.71h1.13v.95h.06c.22-.64.82-1.04 1.52-1.04.15 0 .38.01.5.03v1.12c-.09-.03-.37-.07-.61-.07-.83 0-1.43.57-1.43 1.35v3.66h-1.17v-6ZM216.31 144.65h-1.29v5.06h-1.17v-5.06h-.93v-.94h.93v-.7c0-1.12.83-1.68 1.78-1.68.47 0 .81.1.98.16l-.27.95c-.11-.04-.28-.09-.52-.09-.57 0-.79.29-.79.82v.54h1.29v.94ZM217.15 148.01c0-1.36 1.16-1.66 2.3-1.79 1.08-.12 1.52-.12 1.52-.54v-.03c0-.68-.39-1.07-1.14-1.07s-1.22.41-1.39.84l-1.1-.25c.39-1.09 1.39-1.53 2.48-1.53.95 0 2.33.35 2.33 2.09v3.98h-1.14v-.82h-.05c-.22.45-.78.95-1.77.95-1.14 0-2.03-.65-2.03-1.83Zm3.82-.47v-.77c-.17.17-1.07.27-1.45.32-.68.09-1.23.31-1.23.94 0 .58.48.88 1.14.88.97 0 1.54-.65 1.54-1.36ZM223.54 146.74c0-1.83 1.09-3.11 2.79-3.11 1.36 0 2.35.8 2.48 2.02h-1.14c-.12-.56-.58-1.03-1.32-1.03-.98 0-1.62.81-1.62 2.09s.64 2.13 1.62 2.13c.67 0 1.17-.38 1.32-1.03h1.14c-.13 1.17-1.05 2.02-2.46 2.02-1.74 0-2.8-1.29-2.8-3.09ZM229.89 146.75c0-1.84 1.1-3.12 2.77-3.12 1.36 0 2.66.85 2.66 3.02v.41h-4.27c.03 1.16.7 1.8 1.7 1.8.66 0 1.17-.29 1.38-.86l1.11.2c-.27.98-1.19 1.62-2.5 1.62-1.77 0-2.86-1.22-2.86-3.08Zm4.29-.56c0-.92-.6-1.59-1.5-1.59s-1.57.74-1.61 1.59h3.12ZM242.61 144.65h-1.29v5.06h-1.17v-5.06h-.93v-.94h.93v-.7c0-1.12.83-1.68 1.78-1.68.47 0 .81.1.98.16l-.27.95c-.11-.04-.28-.09-.52-.09-.57 0-.79.29-.79.82v.54h1.29v.94ZM243.42 146.74c0-1.87 1.11-3.11 2.8-3.11s2.8 1.24 2.8 3.11-1.11 3.09-2.8 3.09-2.8-1.24-2.8-3.09Zm4.41 0c0-1.15-.52-2.12-1.61-2.12s-1.62.98-1.62 2.12.52 2.12 1.62 2.12 1.61-.96 1.61-2.12ZM250.42 143.71h1.13v.95h.06c.22-.64.82-1.04 1.52-1.04.15 0 .38.01.5.03v1.12c-.09-.03-.37-.07-.61-.07-.83 0-1.43.57-1.43 1.35v3.66h-1.17v-6ZM257.88 149.71v-8h2.67c2.36 0 3.77 1.5 3.77 3.99s-1.41 4.01-3.85 4.01h-2.59Zm2.52-1.05c1.82 0 2.73-1.06 2.73-2.96s-.9-2.93-2.65-2.93h-1.39v5.89h1.32ZM265.56 146.75c0-1.84 1.1-3.12 2.77-3.12 1.36 0 2.66.85 2.66 3.02v.41h-4.27c.03 1.16.7 1.8 1.7 1.8.66 0 1.17-.29 1.38-.86l1.11.2c-.27.98-1.19 1.62-2.5 1.62-1.77 0-2.86-1.22-2.86-3.08Zm4.29-.56c0-.92-.6-1.59-1.5-1.59s-1.57.74-1.61 1.59h3.12ZM275.18 149.71h-1.25l-2.18-6H273l1.52 4.62h.06l1.52-4.62h1.25l-2.18 6ZM278.08 146.75c0-1.84 1.1-3.12 2.77-3.12 1.36 0 2.66.85 2.66 3.02v.41h-4.27c.03 1.16.7 1.8 1.7 1.8.66 0 1.17-.29 1.38-.86l1.11.2c-.27.98-1.19 1.62-2.5 1.62-1.77 0-2.86-1.22-2.86-3.08Zm4.29-.56c0-.92-.6-1.59-1.5-1.59s-1.57.74-1.61 1.59h3.12ZM286.09 149.71h-1.17v-8h1.17v8ZM287.5 146.74c0-1.87 1.11-3.11 2.8-3.11s2.8 1.24 2.8 3.11-1.11 3.09-2.8 3.09-2.8-1.24-2.8-3.09Zm4.41 0c0-1.15-.52-2.12-1.61-2.12s-1.62.98-1.62 2.12.52 2.12 1.62 2.12 1.61-.96 1.61-2.12ZM294.51 143.71h1.14v.97h.1c.21-.37.61-1.05 1.72-1.05 1.45 0 2.52 1.14 2.52 3.09s-1.05 3.11-2.51 3.11c-1.09 0-1.52-.67-1.73-1.05h-.07v3.18h-1.17v-8.25Zm2.71 5.12c1.04 0 1.59-.92 1.59-2.12s-.53-2.09-1.59-2.09-1.57.83-1.57 2.09.56 2.12 1.57 2.12ZM301.14 146.75c0-1.84 1.1-3.12 2.77-3.12 1.36 0 2.66.85 2.66 3.02v.41h-4.27c.03 1.16.7 1.8 1.7 1.8.66 0 1.17-.29 1.38-.86l1.11.2c-.27.98-1.19 1.62-2.5 1.62-1.77 0-2.86-1.22-2.86-3.08Zm4.29-.56c0-.92-.6-1.59-1.5-1.59s-1.57.74-1.61 1.59h3.12ZM307.98 143.71h1.13v.95h.06c.22-.64.82-1.04 1.52-1.04.15 0 .38.01.5.03v1.12c-.09-.03-.37-.07-.61-.07-.83 0-1.43.57-1.43 1.35v3.66h-1.17v-6ZM315.75 145.36c-.14-.4-.47-.8-1.2-.8-.66 0-1.16.33-1.16.79 0 .41.28.63.94.79l.95.22c1.1.25 1.64.78 1.64 1.62 0 1.09-1 1.86-2.45 1.86-1.35 0-2.23-.6-2.43-1.66l1.13-.17c.14.59.59.89 1.29.89.77 0 1.26-.36 1.26-.83 0-.38-.27-.63-.85-.76l-1.02-.22c-1.12-.25-1.64-.82-1.64-1.67 0-1.06.96-1.78 2.32-1.78s2.03.61 2.27 1.54l-1.06.19ZM319.78 149.04c-.12.94-.54 2.11-.72 2.62h-.83c.11-.48.36-1.55.45-2.61l.04-.44h1.12l-.06.43ZM327.29 142.64c-.98 0-1.61.5-1.61 1.18 0 .77.83 1.06 1.45 1.22l.78.2c1.02.25 2.3.81 2.3 2.25 0 1.36-1.08 2.34-2.96 2.34s-2.91-.89-2.99-2.34h1.21c.07.87.84 1.29 1.77 1.29 1.03 0 1.77-.52 1.77-1.3 0-.71-.66-.99-1.52-1.22l-.95-.26c-1.29-.35-2.08-1-2.08-2.11 0-1.38 1.23-2.3 2.84-2.3s2.76.93 2.79 2.21h-1.16c-.09-.74-.74-1.17-1.66-1.17ZM331.77 141.71h2.85c1.86 0 2.77 1.04 2.77 2.51 0 1.07-.49 1.89-1.47 2.25l1.77 3.24h-1.38l-1.62-3.03h-1.72v3.03h-1.21v-8Zm2.74 3.93c1.18 0 1.67-.52 1.67-1.43s-.49-1.47-1.68-1.47h-1.52v2.9h1.53ZM338.98 141.71H344v1.04h-3.81v2.44h3.55v1.04h-3.55v2.45h3.86v1.04h-5.06v-8ZM349.06 145.36c-.14-.4-.47-.8-1.2-.8-.66 0-1.16.33-1.16.79 0 .41.28.63.94.79l.95.22c1.1.25 1.64.78 1.64 1.62 0 1.09-1 1.86-2.45 1.86-1.35 0-2.23-.6-2.43-1.66l1.13-.17c.14.59.59.89 1.29.89.77 0 1.26-.36 1.26-.83 0-.38-.27-.63-.85-.76l-1.02-.22c-1.12-.25-1.64-.82-1.64-1.67 0-1.06.96-1.78 2.32-1.78s2.03.61 2.27 1.54l-1.06.19ZM353.09 149.04c-.12.94-.54 2.11-.72 2.62h-.83c.11-.48.36-1.55.45-2.61l.04-.44h1.12l-.06.43ZM357.9 149.71v-8h2.67c2.36 0 3.77 1.5 3.77 3.99s-1.41 4.01-3.85 4.01h-2.59Zm2.52-1.05c1.82 0 2.73-1.06 2.73-2.96s-.9-2.93-2.65-2.93h-1.39v5.89h1.32ZM365.58 146.75c0-1.84 1.1-3.12 2.77-3.12 1.36 0 2.66.85 2.66 3.02v.41h-4.27c.03 1.16.7 1.8 1.7 1.8.66 0 1.17-.29 1.38-.86l1.11.2c-.27.98-1.19 1.62-2.5 1.62-1.77 0-2.86-1.22-2.86-3.08Zm4.29-.56c0-.92-.6-1.59-1.5-1.59s-1.57.74-1.61 1.59h3.12ZM375.2 149.71h-1.25l-2.18-6h1.25l1.52 4.62h.06l1.52-4.62h1.25l-2.18 6ZM382.02 149.82c-2.08 0-3.61-1.55-3.61-4.11s1.53-4.11 3.61-4.11 3.6 1.55 3.6 4.11-1.53 4.11-3.6 4.11Zm0-7.12c-1.38 0-2.41 1.06-2.41 3.01s1.03 3.01 2.41 3.01 2.41-1.06 2.41-3.01-1.03-3.01-2.41-3.01ZM387.14 143.71h1.14v.97h.1c.21-.37.61-1.05 1.72-1.05 1.45 0 2.52 1.14 2.52 3.09s-1.05 3.11-2.51 3.11c-1.09 0-1.52-.67-1.73-1.05h-.07v3.18h-1.17v-8.25Zm2.71 5.12c1.04 0 1.59-.92 1.59-2.12s-.53-2.09-1.59-2.09-1.57.83-1.57 2.09.56 2.12 1.57 2.12ZM397.48 145.36c-.14-.4-.47-.8-1.2-.8-.66 0-1.16.33-1.16.79 0 .41.28.63.94.79l.95.22c1.1.25 1.64.78 1.64 1.62 0 1.09-1 1.86-2.45 1.86-1.35 0-2.23-.6-2.43-1.66l1.13-.17c.14.59.59.89 1.29.89.77 0 1.26-.36 1.26-.83 0-.38-.27-.63-.85-.76l-1.02-.22c-1.12-.25-1.64-.82-1.64-1.67 0-1.06.96-1.78 2.32-1.78s2.03.61 2.27 1.54l-1.06.19ZM401.51 149.04c-.12.94-.54 2.11-.72 2.62h-.83c.11-.48.36-1.55.45-2.61l.04-.44h1.12l-.06.43ZM407.52 149.71h-1.21v-8h1.21v8ZM408.99 141.71h6.19v1.04h-2.5v6.96h-1.2v-6.96h-2.49v-1.04ZM419.08 149.71l2.88-8h1.39l2.88 8h-1.28l-.73-2.12h-3.12l-.73 2.12h-1.28Zm4.79-3.13-1.18-3.41h-.06l-1.18 3.41h2.42ZM427.04 146.72c0-1.95 1.07-3.09 2.52-3.09 1.12 0 1.52.68 1.73 1.05h.07v-2.97h1.17v8h-1.14v-.93h-.1c-.21.38-.64 1.05-1.73 1.05-1.46 0-2.51-1.16-2.51-3.11Zm4.33-.01c0-1.25-.55-2.09-1.57-2.09s-1.59.89-1.59 2.09.54 2.12 1.59 2.12 1.57-.86 1.57-2.12ZM434.3 143.71h1.12v.98h.07c.25-.66.84-1.05 1.63-1.05s1.35.4 1.61 1.05h.06c.29-.64.94-1.05 1.8-1.05 1.09 0 1.85.68 1.85 2.05v4.02h-1.17v-3.91c0-.81-.51-1.16-1.12-1.16-.76 0-1.2.52-1.2 1.25v3.82h-1.16v-3.99c0-.65-.45-1.08-1.1-1.08s-1.23.56-1.23 1.37v3.7h-1.17v-6ZM443.98 142.09c0-.38.33-.7.74-.7s.74.32.74.7-.34.7-.74.7-.74-.31-.74-.7Zm.15 1.62h1.17v6h-1.17v-6ZM448.14 149.71h-1.17v-6h1.12v.98h.07c.28-.64.87-1.05 1.77-1.05 1.23 0 2.04.78 2.04 2.26v3.82h-1.17v-3.68c0-.87-.48-1.39-1.27-1.39s-1.4.55-1.4 1.5v3.56ZM457.09 145.36c-.14-.4-.47-.8-1.2-.8-.66 0-1.16.33-1.16.79 0 .41.28.63.94.79l.95.22c1.1.25 1.64.78 1.64 1.62 0 1.09-1 1.86-2.45 1.86-1.35 0-2.23-.6-2.43-1.66l1.13-.17c.14.59.59.89 1.29.89.77 0 1.26-.36 1.26-.83 0-.38-.27-.63-.85-.76l-1.02-.22c-1.12-.25-1.64-.82-1.64-1.67 0-1.06.96-1.78 2.32-1.78s2.03.61 2.27 1.54l-1.06.19ZM128.67 192.04l2.55 6.22h.09l2.55-6.22h1.46v8h-1.15v-5.79h-.07l-2.36 5.78h-.95l-2.36-5.78h-.07v5.79h-1.15v-8h1.46ZM136.81 198.35c0-1.36 1.16-1.66 2.3-1.79 1.08-.12 1.52-.12 1.52-.54v-.03c0-.68-.39-1.07-1.14-1.07s-1.22.41-1.39.84l-1.1-.25c.39-1.09 1.39-1.53 2.48-1.53.95 0 2.33.35 2.33 2.09v3.98h-1.14v-.82h-.05c-.22.45-.78.95-1.77.95-1.14 0-2.03-.65-2.03-1.83Zm3.82-.47v-.77c-.17.17-1.07.27-1.45.32-.68.09-1.23.31-1.23.94 0 .58.48.88 1.14.88.97 0 1.54-.65 1.54-1.36ZM143.2 197.07c0-1.83 1.09-3.11 2.79-3.11 1.36 0 2.35.8 2.48 2.02h-1.14c-.12-.56-.58-1.03-1.32-1.03-.98 0-1.62.81-1.62 2.09s.64 2.13 1.62 2.13c.67 0 1.17-.38 1.32-1.03h1.14c-.13 1.17-1.05 2.02-2.46 2.02-1.74 0-2.8-1.29-2.8-3.09ZM150.99 200.04h-1.17v-8h1.15v2.98h.07c.28-.65.84-1.05 1.78-1.05 1.23 0 2.05.77 2.05 2.26v3.82h-1.17v-3.68c0-.88-.48-1.39-1.29-1.39s-1.44.55-1.44 1.5v3.56ZM156.4 192.42c0-.38.33-.7.74-.7s.74.32.74.7-.34.7-.74.7-.74-.31-.74-.7Zm.15 1.62h1.17v6h-1.17v-6ZM160.57 200.04h-1.17v-6h1.12v.98h.07c.28-.64.87-1.05 1.77-1.05 1.23 0 2.04.78 2.04 2.26v3.82h-1.17v-3.68c0-.87-.48-1.39-1.27-1.39s-1.4.55-1.4 1.5v3.56ZM165.81 197.08c0-1.84 1.1-3.12 2.77-3.12 1.36 0 2.66.85 2.66 3.02v.41h-4.27c.03 1.16.7 1.8 1.7 1.8.66 0 1.17-.29 1.38-.86l1.11.2c-.27.98-1.19 1.62-2.5 1.62-1.77 0-2.86-1.22-2.86-3.08Zm4.29-.56c0-.92-.6-1.59-1.5-1.59s-1.57.74-1.61 1.59h3.12ZM175.77 192.04h1.21V199h3.62v1.04h-4.83v-8ZM181.72 197.08c0-1.84 1.1-3.12 2.77-3.12 1.36 0 2.66.85 2.66 3.02v.41h-4.27c.03 1.16.7 1.8 1.7 1.8.66 0 1.17-.29 1.38-.86l1.11.2c-.27.98-1.19 1.62-2.5 1.62-1.77 0-2.86-1.22-2.86-3.08Zm4.29-.56c0-.92-.6-1.59-1.5-1.59s-1.57.74-1.61 1.59h3.12ZM188.28 198.35c0-1.36 1.16-1.66 2.3-1.79 1.08-.12 1.52-.12 1.52-.54v-.03c0-.68-.39-1.07-1.14-1.07s-1.22.41-1.39.84l-1.1-.25c.39-1.09 1.39-1.53 2.48-1.53.95 0 2.33.35 2.33 2.09v3.98h-1.14v-.82h-.05c-.22.45-.78.95-1.77.95-1.14 0-2.03-.65-2.03-1.83Zm3.82-.47v-.77c-.17.17-1.07.27-1.45.32-.68.09-1.23.31-1.23.94 0 .58.48.88 1.14.88.97 0 1.54-.65 1.54-1.36ZM194.94 194.04h1.13v.95h.06c.22-.64.82-1.04 1.52-1.04.15 0 .38.01.5.03v1.12c-.09-.03-.37-.07-.61-.07-.83 0-1.43.57-1.43 1.35v3.66h-1.17v-6ZM200.44 200.04h-1.17v-6h1.12v.98h.07c.28-.64.87-1.05 1.77-1.05 1.23 0 2.04.78 2.04 2.26v3.82h-1.17v-3.68c0-.87-.48-1.39-1.27-1.39s-1.4.55-1.4 1.5v3.56ZM205.8 192.42c0-.38.33-.7.74-.7s.74.32.74.7-.34.7-.74.7-.74-.31-.74-.7Zm.15 1.62h1.17v6h-1.17v-6ZM209.97 200.04h-1.17v-6h1.12v.98h.07c.28-.64.87-1.05 1.77-1.05 1.23 0 2.04.78 2.04 2.26v3.82h-1.17v-3.68c0-.87-.48-1.39-1.27-1.39s-1.4.55-1.4 1.5v3.56ZM215.45 201.06l1-.41c.21.33.59.82 1.56.82.89 0 1.53-.41 1.53-1.34v-1.18h-.07c-.21.38-.64 1-1.74 1-1.42 0-2.51-1.02-2.51-2.93s1.07-3.05 2.52-3.05c1.12 0 1.53.68 1.74 1.05h.09v-.97h1.14v6.13c0 1.53-1.18 2.23-2.71 2.23-1.43 0-2.23-.62-2.55-1.35Zm4.11-4.05c0-1.21-.55-2.05-1.57-2.05s-1.59.89-1.59 2.05.54 1.98 1.59 1.98 1.57-.74 1.57-1.98ZM225.12 198.35c0-1.36 1.16-1.66 2.3-1.79 1.08-.12 1.52-.12 1.52-.54v-.03c0-.68-.39-1.07-1.14-1.07s-1.22.41-1.39.84l-1.1-.25c.39-1.09 1.39-1.53 2.48-1.53.95 0 2.33.35 2.33 2.09v3.98h-1.14v-.82h-.05c-.22.45-.78.95-1.77.95-1.14 0-2.03-.65-2.03-1.83Zm3.82-.47v-.77c-.17.17-1.07.27-1.45.32-.68.09-1.23.31-1.23.94 0 .58.48.88 1.14.88.97 0 1.54-.65 1.54-1.36ZM232.94 200.04h-1.17v-6h1.12v.98h.07c.28-.64.87-1.05 1.77-1.05 1.23 0 2.04.78 2.04 2.26v3.82h-1.17v-3.68c0-.87-.48-1.39-1.27-1.39s-1.4.55-1.4 1.5v3.56ZM238.19 197.05c0-1.95 1.07-3.09 2.52-3.09 1.12 0 1.52.68 1.73 1.05h.07v-2.97h1.17v8h-1.14v-.93h-.1c-.21.38-.64 1.05-1.73 1.05-1.46 0-2.51-1.16-2.51-3.11Zm4.33-.01c0-1.25-.55-2.09-1.57-2.09s-1.59.89-1.59 2.09.54 2.12 1.59 2.12 1.57-.86 1.57-2.12ZM247.96 200.04l2.88-8h1.39l2.88 8h-1.28l-.73-2.12h-3.12l-.73 2.12h-1.28Zm4.79-3.13-1.18-3.41h-.06l-1.18 3.41h2.42ZM257.45 200.04h-1.17v-6h1.12v.98h.07c.28-.64.87-1.05 1.77-1.05 1.23 0 2.04.78 2.04 2.26v3.82h-1.17v-3.68c0-.87-.48-1.39-1.27-1.39s-1.4.55-1.4 1.5v3.56ZM262.68 198.35c0-1.36 1.16-1.66 2.3-1.79 1.08-.12 1.52-.12 1.52-.54v-.03c0-.68-.39-1.07-1.14-1.07s-1.22.41-1.39.84l-1.1-.25c.39-1.09 1.39-1.53 2.48-1.53.95 0 2.33.35 2.33 2.09v3.98h-1.14v-.82h-.05c-.22.45-.78.95-1.77.95-1.14 0-2.03-.65-2.03-1.83Zm3.82-.47v-.77c-.17.17-1.07.27-1.45.32-.68.09-1.23.31-1.23.94 0 .58.48.88 1.14.88.97 0 1.54-.65 1.54-1.36ZM270.5 200.04h-1.17v-8h1.17v8ZM272.12 202.15l.28-.96c.64.18 1.06.11 1.36-.67l.14-.4-2.2-6.08h1.25l1.52 4.66h.06l1.52-4.66h1.26l-2.48 6.8c-.34.93-.96 1.43-1.92 1.43-.35 0-.66-.06-.8-.13ZM281.33 194.98h-1.23v3.3c0 .68.34.8.72.8.19 0 .33-.04.41-.05l.21.96c-.14.05-.39.12-.76.12-.92.02-1.75-.51-1.75-1.6v-3.54h-.88v-.94h.88v-1.44h1.17v1.44h1.23v.94ZM282.58 192.42c0-.38.33-.7.74-.7s.74.32.74.7-.34.7-.74.7-.74-.31-.74-.7Zm.15 1.62h1.17v6h-1.17v-6ZM285.31 197.07c0-1.83 1.09-3.11 2.79-3.11 1.36 0 2.35.8 2.48 2.02h-1.14c-.12-.56-.58-1.03-1.32-1.03-.98 0-1.62.81-1.62 2.09s.64 2.13 1.62 2.13c.67 0 1.17-.38 1.32-1.03h1.14c-.13 1.17-1.05 2.02-2.46 2.02-1.74 0-2.8-1.29-2.8-3.09ZM295.37 195.69c-.14-.4-.47-.8-1.2-.8-.66 0-1.16.33-1.16.79 0 .41.28.63.94.79l.95.22c1.1.25 1.64.78 1.64 1.62 0 1.09-1 1.86-2.45 1.86-1.35 0-2.23-.6-2.43-1.66l1.13-.17c.14.59.59.89 1.29.89.77 0 1.26-.36 1.26-.83 0-.38-.27-.63-.85-.76l-1.02-.22c-1.12-.25-1.64-.82-1.64-1.67 0-1.06.96-1.78 2.32-1.78s2.03.61 2.27 1.54l-1.06.19ZM303.82 194.98h-1.29v5.06h-1.17v-5.06h-.93v-.94h.93v-.7c0-1.12.83-1.68 1.78-1.68.47 0 .81.1.98.16l-.27.95c-.11-.04-.28-.09-.52-.09-.57 0-.79.29-.79.82v.54h1.29v.94ZM304.62 197.07c0-1.87 1.11-3.11 2.8-3.11s2.8 1.24 2.8 3.11-1.11 3.09-2.8 3.09-2.8-1.24-2.8-3.09Zm4.41 0c0-1.15-.52-2.12-1.61-2.12s-1.62.98-1.62 2.12.52 2.12 1.62 2.12 1.61-.96 1.61-2.12ZM311.63 194.04h1.13v.95h.06c.22-.64.82-1.04 1.52-1.04.15 0 .38.01.5.03v1.12c-.09-.03-.37-.07-.61-.07-.83 0-1.43.57-1.43 1.35v3.66h-1.17v-6ZM321.79 192.97c-.98 0-1.61.5-1.61 1.18 0 .77.83 1.06 1.45 1.22l.78.2c1.02.25 2.3.81 2.3 2.25 0 1.36-1.08 2.34-2.96 2.34s-2.91-.89-2.99-2.34h1.21c.07.87.84 1.29 1.77 1.29 1.03 0 1.77-.52 1.77-1.3 0-.71-.66-.99-1.52-1.22l-.95-.26c-1.29-.35-2.08-1-2.08-2.11 0-1.38 1.23-2.3 2.84-2.3s2.76.93 2.79 2.21h-1.16c-.09-.74-.74-1.17-1.66-1.17ZM325.91 197.08c0-1.84 1.1-3.12 2.77-3.12 1.36 0 2.66.85 2.66 3.02v.41h-4.27c.03 1.16.7 1.8 1.7 1.8.66 0 1.17-.29 1.38-.86l1.11.2c-.27.98-1.19 1.62-2.5 1.62-1.77 0-2.86-1.22-2.86-3.08Zm4.29-.56c0-.92-.6-1.59-1.5-1.59s-1.57.74-1.61 1.59h3.12ZM332.47 198.35c0-1.36 1.16-1.66 2.3-1.79 1.08-.12 1.52-.12 1.52-.54v-.03c0-.68-.39-1.07-1.14-1.07s-1.22.41-1.39.84l-1.1-.25c.39-1.09 1.39-1.53 2.48-1.53.95 0 2.33.35 2.33 2.09v3.98h-1.14v-.82h-.05c-.22.45-.78.95-1.77.95-1.14 0-2.03-.65-2.03-1.83Zm3.82-.47v-.77c-.17.17-1.07.27-1.45.32-.68.09-1.23.31-1.23.94 0 .58.48.88 1.14.88.97 0 1.54-.65 1.54-1.36ZM339.12 194.04h1.13v.95h.06c.22-.64.82-1.04 1.52-1.04.15 0 .38.01.5.03v1.12c-.09-.03-.37-.07-.61-.07-.83 0-1.43.57-1.43 1.35v3.66h-1.17v-6ZM342.97 197.07c0-1.83 1.09-3.11 2.79-3.11 1.36 0 2.35.8 2.48 2.02h-1.14c-.12-.56-.58-1.03-1.32-1.03-.98 0-1.62.81-1.62 2.09s.64 2.13 1.62 2.13c.67 0 1.17-.38 1.32-1.03h1.14c-.13 1.17-1.05 2.02-2.46 2.02-1.74 0-2.8-1.29-2.8-3.09ZM350.76 200.04h-1.17v-8h1.15v2.98h.07c.28-.65.84-1.05 1.78-1.05 1.23 0 2.05.77 2.05 2.26v3.82h-1.17v-3.68c0-.88-.48-1.39-1.29-1.39s-1.44.55-1.44 1.5v3.56ZM357.79 199.37c-.12.94-.54 2.11-.72 2.62h-.83c.11-.48.36-1.55.45-2.61l.04-.44h1.12l-.06.43ZM368.02 194.64c-.2-1.04-1.05-1.61-2.07-1.61-1.38 0-2.41 1.07-2.41 3.01s1.04 3.01 2.41 3.01c1.01 0 1.87-.56 2.08-1.59h1.22c-.26 1.59-1.55 2.69-3.3 2.69-2.08 0-3.6-1.55-3.6-4.11s1.53-4.11 3.6-4.11c1.69 0 3.03 1 3.3 2.71h-1.22ZM370.43 197.07c0-1.87 1.11-3.11 2.8-3.11s2.8 1.24 2.8 3.11-1.11 3.09-2.8 3.09-2.8-1.24-2.8-3.09Zm4.41 0c0-1.15-.52-2.12-1.61-2.12s-1.62.98-1.62 2.12.52 2.12 1.62 2.12 1.61-.96 1.61-2.12ZM377.43 194.04h1.13v.95h.06c.22-.64.82-1.04 1.52-1.04.15 0 .38.01.5.03v1.12c-.09-.03-.37-.07-.61-.07-.83 0-1.43.57-1.43 1.35v3.66h-1.17v-6ZM381.77 194.04h1.13v.95h.06c.22-.64.82-1.04 1.52-1.04.15 0 .38.01.5.03v1.12c-.09-.03-.37-.07-.61-.07-.83 0-1.43.57-1.43 1.35v3.66h-1.17v-6ZM385.62 197.08c0-1.84 1.1-3.12 2.77-3.12 1.36 0 2.66.85 2.66 3.02v.41h-4.27c.03 1.16.7 1.8 1.7 1.8.66 0 1.17-.29 1.38-.86l1.11.2c-.27.98-1.19 1.62-2.5 1.62-1.77 0-2.86-1.22-2.86-3.08Zm4.29-.56c0-.92-.6-1.59-1.5-1.59s-1.57.74-1.61 1.59h3.12ZM393.63 200.04h-1.17v-8h1.17v8ZM395.03 198.35c0-1.36 1.16-1.66 2.3-1.79 1.08-.12 1.52-.12 1.52-.54v-.03c0-.68-.39-1.07-1.14-1.07s-1.22.41-1.39.84l-1.1-.25c.39-1.09 1.39-1.53 2.48-1.53.95 0 2.33.35 2.33 2.09v3.98h-1.14v-.82h-.05c-.22.45-.78.95-1.77.95-1.14 0-2.03-.65-2.03-1.83Zm3.82-.47v-.77c-.17.17-1.07.27-1.45.32-.68.09-1.23.31-1.23.94 0 .58.48.88 1.14.88.97 0 1.54-.65 1.54-1.36ZM404.48 194.98h-1.23v3.3c0 .68.34.8.72.8.19 0 .33-.04.41-.05l.21.96c-.14.05-.39.12-.76.12-.92.02-1.75-.51-1.75-1.6v-3.54h-.88v-.94h.88v-1.44h1.17v1.44h1.23v.94ZM405.73 192.42c0-.38.33-.7.74-.7s.74.32.74.7-.34.7-.74.7-.74-.31-.74-.7Zm.15 1.62h1.17v6h-1.17v-6ZM408.46 197.07c0-1.87 1.11-3.11 2.8-3.11s2.8 1.24 2.8 3.11-1.11 3.09-2.8 3.09-2.8-1.24-2.8-3.09Zm4.41 0c0-1.15-.52-2.12-1.61-2.12s-1.62.98-1.62 2.12.52 2.12 1.62 2.12 1.61-.96 1.61-2.12ZM416.63 200.04h-1.17v-6h1.12v.98h.07c.28-.64.87-1.05 1.77-1.05 1.23 0 2.04.78 2.04 2.26v3.82h-1.17v-3.68c0-.87-.48-1.39-1.27-1.39s-1.4.55-1.4 1.5v3.56ZM423.6 199.37c-.12.94-.54 2.11-.72 2.62h-.83c.11-.48.36-1.55.45-2.61l.04-.44h1.12l-.06.43ZM433.84 194.64c-.2-1.04-1.05-1.61-2.07-1.61-1.38 0-2.41 1.07-2.41 3.01s1.04 3.01 2.41 3.01c1.01 0 1.87-.56 2.08-1.59h1.22c-.26 1.59-1.55 2.69-3.3 2.69-2.08 0-3.6-1.55-3.6-4.11s1.53-4.11 3.6-4.11c1.69 0 3.03 1 3.3 2.71h-1.22ZM436.23 198.35c0-1.36 1.16-1.66 2.3-1.79 1.08-.12 1.52-.12 1.52-.54v-.03c0-.68-.39-1.07-1.14-1.07s-1.22.41-1.39.84l-1.1-.25c.39-1.09 1.39-1.53 2.48-1.53.95 0 2.33.35 2.33 2.09v3.98h-1.14v-.82h-.05c-.22.45-.78.95-1.77.95-1.14 0-2.03-.65-2.03-1.83Zm3.82-.47v-.77c-.17.17-1.07.27-1.45.32-.68.09-1.23.31-1.23.94 0 .58.48.88 1.14.88.97 0 1.54-.65 1.54-1.36ZM446.69 194.04h1.17v6h-1.15V199h-.06c-.28.64-.89 1.12-1.79 1.12-1.15 0-1.97-.77-1.97-2.26v-3.82h1.17v3.68c0 .82.5 1.34 1.22 1.34.66 0 1.41-.48 1.41-1.5v-3.51ZM452.97 195.69c-.14-.4-.47-.8-1.2-.8-.66 0-1.16.33-1.16.79 0 .41.28.63.94.79l.95.22c1.1.25 1.64.78 1.64 1.62 0 1.09-1 1.86-2.45 1.86-1.35 0-2.23-.6-2.43-1.66l1.13-.17c.14.59.59.89 1.29.89.77 0 1.26-.36 1.26-.83 0-.38-.27-.63-.85-.76l-1.02-.22c-1.12-.25-1.64-.82-1.64-1.67 0-1.06.96-1.78 2.32-1.78s2.03.61 2.27 1.54l-1.06.19ZM455.26 198.35c0-1.36 1.16-1.66 2.3-1.79 1.08-.12 1.52-.12 1.52-.54v-.03c0-.68-.39-1.07-1.14-1.07s-1.22.41-1.39.84l-1.1-.25c.39-1.09 1.39-1.53 2.48-1.53.95 0 2.33.35 2.33 2.09v3.98h-1.14v-.82h-.05c-.22.45-.78.95-1.77.95-1.14 0-2.03-.65-2.03-1.83Zm3.82-.47v-.77c-.17.17-1.07.27-1.45.32-.68.09-1.23.31-1.23.94 0 .58.48.88 1.14.88.97 0 1.54-.65 1.54-1.36ZM464.71 194.98h-1.23v3.3c0 .68.34.8.72.8.19 0 .33-.04.41-.05l.21.96c-.14.05-.39.12-.76.12-.92.02-1.75-.51-1.75-1.6v-3.54h-.88v-.94h.88v-1.44h1.17v1.44h1.23v.94ZM465.96 192.42c0-.38.33-.7.74-.7s.74.32.74.7-.34.7-.74.7-.74-.31-.74-.7Zm.15 1.62h1.17v6h-1.17v-6ZM468.69 197.07c0-1.87 1.11-3.11 2.8-3.11s2.8 1.24 2.8 3.11-1.11 3.09-2.8 3.09-2.8-1.24-2.8-3.09Zm4.41 0c0-1.15-.52-2.12-1.61-2.12s-1.62.98-1.62 2.12.52 2.12 1.62 2.12 1.61-.96 1.61-2.12ZM476.86 200.04h-1.17v-6h1.12v.98h.07c.28-.64.87-1.05 1.77-1.05 1.23 0 2.04.78 2.04 2.26v3.82h-1.17v-3.68c0-.87-.48-1.39-1.27-1.39s-1.4.55-1.4 1.5v3.56ZM151.82 241.26h6.19v1.04h-2.5v6.96h-1.2v-6.96h-2.49v-1.04ZM158.24 246.3c0-1.84 1.1-3.12 2.77-3.12 1.36 0 2.66.85 2.66 3.02v.41h-4.27c.03 1.16.7 1.8 1.7 1.8.66 0 1.17-.29 1.38-.86l1.11.2c-.27.98-1.19 1.62-2.5 1.62-1.77 0-2.86-1.22-2.86-3.08Zm4.29-.56c0-.92-.6-1.59-1.5-1.59s-1.57.74-1.61 1.59h3.12ZM166.25 249.26h-1.17v-8h1.17v8ZM167.66 246.3c0-1.84 1.1-3.12 2.77-3.12 1.36 0 2.66.85 2.66 3.02v.41h-4.27c.03 1.16.7 1.8 1.7 1.8.66 0 1.17-.29 1.38-.86l1.11.2c-.27.98-1.19 1.62-2.5 1.62-1.77 0-2.86-1.22-2.86-3.08Zm4.29-.56c0-.92-.6-1.59-1.5-1.59s-1.57.74-1.61 1.59h3.12ZM174.5 243.26h1.12v.98h.07c.25-.66.84-1.05 1.63-1.05s1.35.4 1.61 1.05h.06c.29-.64.94-1.05 1.8-1.05 1.09 0 1.85.68 1.85 2.05v4.02h-1.17v-3.91c0-.81-.51-1.16-1.12-1.16-.76 0-1.2.52-1.2 1.25v3.82h-1.16v-3.99c0-.65-.45-1.08-1.1-1.08s-1.23.56-1.23 1.37v3.7h-1.17v-6ZM184.06 246.3c0-1.84 1.1-3.12 2.77-3.12 1.36 0 2.66.85 2.66 3.02v.41h-4.27c.03 1.16.7 1.8 1.7 1.8.66 0 1.17-.29 1.38-.86l1.11.2c-.27.98-1.19 1.62-2.5 1.62-1.77 0-2.86-1.22-2.86-3.08Zm4.29-.56c0-.92-.6-1.59-1.5-1.59s-1.57.74-1.61 1.59h3.12ZM193.7 244.2h-1.23v3.3c0 .68.34.8.72.8.19 0 .33-.04.41-.05l.21.96c-.14.05-.39.12-.76.12-.92.02-1.75-.51-1.75-1.6v-3.54h-.88v-.94h.88v-1.44h1.17v1.44h1.23v.94ZM195.1 243.26h1.13v.95h.06c.22-.64.82-1.04 1.52-1.04.15 0 .38.01.5.03v1.12c-.09-.03-.37-.07-.61-.07-.83 0-1.43.57-1.43 1.35v3.66h-1.17v-6ZM199.57 251.37l.28-.96c.64.18 1.06.11 1.36-.67l.14-.4-2.2-6.08h1.25l1.52 4.66h.06l1.52-4.66h1.26l-2.48 6.8c-.34.93-.96 1.43-1.92 1.43-.35 0-.66-.06-.8-.13ZM210.85 240.96h1.07c-.77 1.03-1.38 3.12-1.38 4.98s.61 3.95 1.38 4.98h-1.07c-.99-1.39-1.52-3.02-1.52-4.98s.52-3.59 1.52-4.98ZM214.82 241.26l2.55 6.22h.09l2.55-6.22h1.46v8h-1.15v-5.79h-.07l-2.36 5.78h-.95l-2.36-5.78h-.07v5.79h-1.15v-8h1.46ZM222.98 246.3c0-1.84 1.1-3.12 2.77-3.12 1.36 0 2.66.85 2.66 3.02v.41h-4.27c.03 1.16.7 1.8 1.7 1.8.66 0 1.17-.29 1.38-.86l1.11.2c-.27.98-1.19 1.62-2.5 1.62-1.77 0-2.86-1.22-2.86-3.08Zm4.29-.56c0-.92-.6-1.59-1.5-1.59s-1.57.74-1.61 1.59h3.12ZM232.62 244.2h-1.23v3.3c0 .68.34.8.72.8.19 0 .33-.04.41-.05l.21.96c-.14.05-.39.12-.76.12-.92.02-1.75-.51-1.75-1.6v-3.54h-.88v-.94h.88v-1.44h1.17v1.44h1.23v.94ZM234.02 243.26h1.13v.95h.06c.22-.64.82-1.04 1.52-1.04.15 0 .38.01.5.03v1.12c-.09-.03-.37-.07-.61-.07-.83 0-1.43.57-1.43 1.35v3.66h-1.17v-6ZM238.21 241.64c0-.38.33-.7.74-.7s.74.32.74.7-.34.7-.74.7-.74-.31-.74-.7Zm.15 1.62h1.17v6h-1.17v-6ZM240.93 246.29c0-1.83 1.09-3.11 2.79-3.11 1.36 0 2.35.8 2.48 2.02h-1.14c-.12-.56-.58-1.03-1.32-1.03-.98 0-1.62.81-1.62 2.09s.64 2.13 1.62 2.13c.67 0 1.17-.38 1.32-1.03h1.14c-.13 1.17-1.05 2.02-2.46 2.02-1.74 0-2.8-1.29-2.8-3.09ZM251 244.92c-.14-.4-.47-.8-1.2-.8-.66 0-1.16.33-1.16.79 0 .41.28.63.94.79l.95.22c1.1.25 1.64.78 1.64 1.62 0 1.09-1 1.86-2.45 1.86-1.35 0-2.23-.6-2.43-1.66l1.13-.17c.14.59.59.89 1.29.89.77 0 1.26-.36 1.26-.83 0-.38-.27-.63-.85-.76l-1.02-.22c-1.12-.25-1.64-.82-1.64-1.67 0-1.06.96-1.78 2.32-1.78s2.03.61 2.27 1.54l-1.06.19ZM255.03 248.6c-.12.94-.54 2.11-.72 2.62h-.83c.11-.48.36-1.55.45-2.61l.04-.44h1.12l-.06.43ZM259.83 241.26h1.21v6.96h3.62v1.04h-4.83v-8ZM265.79 246.29c0-1.87 1.11-3.11 2.8-3.11s2.8 1.24 2.8 3.11-1.11 3.09-2.8 3.09-2.8-1.24-2.8-3.09Zm4.41 0c0-1.15-.52-2.12-1.61-2.12s-1.62.98-1.62 2.12.52 2.12 1.62 2.12 1.61-.96 1.61-2.12ZM272.76 250.28l1-.41c.21.33.59.82 1.56.82.89 0 1.53-.41 1.53-1.34v-1.18h-.07c-.21.38-.64 1-1.74 1-1.42 0-2.51-1.02-2.51-2.93s1.07-3.05 2.52-3.05c1.12 0 1.53.68 1.74 1.05h.09v-.97h1.14v6.13c0 1.53-1.18 2.23-2.71 2.23-1.43 0-2.23-.62-2.55-1.35Zm4.11-4.05c0-1.21-.55-2.05-1.57-2.05s-1.59.89-1.59 2.05.54 1.98 1.59 1.98 1.57-.74 1.57-1.98ZM283.13 244.92c-.14-.4-.47-.8-1.2-.8-.66 0-1.16.33-1.16.79 0 .41.28.63.94.79l.95.22c1.1.25 1.64.78 1.64 1.62 0 1.09-1 1.86-2.45 1.86-1.35 0-2.23-.6-2.43-1.66l1.13-.17c.14.59.59.89 1.29.89.77 0 1.26-.36 1.26-.83 0-.38-.27-.63-.85-.76l-1.02-.22c-1.12-.25-1.64-.82-1.64-1.67 0-1.06.96-1.78 2.32-1.78s2.03.61 2.27 1.54l-1.06.19ZM287.15 248.6c-.12.94-.54 2.11-.72 2.62h-.83c.11-.48.36-1.55.45-2.61l.04-.44h1.12l-.06.43ZM291.57 241.26h6.19v1.04h-2.5v6.96h-1.2v-6.96h-2.49v-1.04ZM298.51 243.26h1.13v.95h.06c.22-.64.82-1.04 1.52-1.04.15 0 .38.01.5.03v1.12c-.09-.03-.37-.07-.61-.07-.83 0-1.43.57-1.43 1.35v3.66h-1.17v-6ZM302.51 247.57c0-1.36 1.16-1.66 2.3-1.79 1.08-.12 1.52-.12 1.52-.54v-.03c0-.68-.39-1.07-1.14-1.07s-1.22.41-1.39.84l-1.1-.25c.39-1.09 1.39-1.53 2.48-1.53.95 0 2.33.35 2.33 2.09v3.98h-1.14v-.82h-.05c-.22.45-.78.95-1.77.95-1.14 0-2.03-.65-2.03-1.83Zm3.82-.47v-.77c-.17.17-1.07.27-1.45.32-.68.09-1.23.31-1.23.94 0 .58.48.88 1.14.88.97 0 1.54-.65 1.54-1.36ZM308.9 246.29c0-1.83 1.09-3.11 2.79-3.11 1.36 0 2.35.8 2.48 2.02h-1.14c-.12-.56-.58-1.03-1.32-1.03-.98 0-1.62.81-1.62 2.09s.64 2.13 1.62 2.13c.67 0 1.17-.38 1.32-1.03h1.14c-.13 1.17-1.05 2.02-2.46 2.02-1.74 0-2.8-1.29-2.8-3.09ZM315.25 246.3c0-1.84 1.1-3.12 2.77-3.12 1.36 0 2.66.85 2.66 3.02v.41h-4.27c.03 1.16.7 1.8 1.7 1.8.66 0 1.17-.29 1.38-.86l1.11.2c-.27.98-1.19 1.62-2.5 1.62-1.77 0-2.86-1.22-2.86-3.08Zm4.29-.56c0-.92-.6-1.59-1.5-1.59s-1.57.74-1.61 1.59h3.12ZM325.53 244.92c-.14-.4-.47-.8-1.2-.8-.66 0-1.16.33-1.16.79 0 .41.28.63.94.79l.95.22c1.1.25 1.64.78 1.64 1.62 0 1.09-1 1.86-2.45 1.86-1.35 0-2.23-.6-2.43-1.66l1.13-.17c.14.59.59.89 1.29.89.77 0 1.26-.36 1.26-.83 0-.38-.27-.63-.85-.76l-1.02-.22c-1.12-.25-1.64-.82-1.64-1.67 0-1.06.96-1.78 2.32-1.78s2.03.61 2.27 1.54l-1.06.19ZM328.83 250.93h-1.07c.77-1.03 1.38-3.12 1.38-4.98s-.61-3.95-1.38-4.98h1.07c.99 1.39 1.52 3.02 1.52 4.98s-.52 3.59-1.52 4.98ZM338.92 246.39h-3.55v-1.01h3.55v1.01ZM343.1 249.26l2.88-8h1.39l2.88 8h-1.28l-.73-2.12h-3.12l-.73 2.12h-1.28Zm4.79-3.13-1.18-3.41h-.06l-1.18 3.41h2.42ZM352.59 249.26h-1.17v-6h1.12v.98h.07c.28-.64.87-1.05 1.77-1.05 1.23 0 2.04.78 2.04 2.26v3.82h-1.17v-3.68c0-.87-.48-1.39-1.27-1.39s-1.4.55-1.4 1.5v3.56ZM357.83 251.37l.28-.96c.64.18 1.06.11 1.36-.67l.14-.4-2.2-6.08h1.25l1.52 4.66h.06l1.52-4.66h1.26l-2.48 6.8c-.34.93-.96 1.43-1.92 1.43-.35 0-.66-.06-.8-.13ZM370.7 244.92c-.14-.4-.47-.8-1.2-.8-.66 0-1.16.33-1.16.79 0 .41.28.63.94.79l.95.22c1.1.25 1.64.78 1.64 1.62 0 1.09-1 1.86-2.45 1.86-1.35 0-2.23-.6-2.43-1.66l1.13-.17c.14.59.59.89 1.29.89.77 0 1.26-.36 1.26-.83 0-.38-.27-.63-.85-.76l-1.02-.22c-1.12-.25-1.64-.82-1.64-1.67 0-1.06.96-1.78 2.32-1.78s2.03.61 2.27 1.54l-1.06.19ZM372.99 246.29c0-1.87 1.11-3.11 2.8-3.11s2.8 1.24 2.8 3.11-1.11 3.09-2.8 3.09-2.8-1.24-2.8-3.09Zm4.41 0c0-1.15-.52-2.12-1.61-2.12s-1.62.98-1.62 2.12.52 2.12 1.62 2.12 1.61-.96 1.61-2.12ZM383.8 243.26h1.17v6h-1.15v-1.04h-.06c-.28.64-.89 1.12-1.79 1.12-1.15 0-1.97-.77-1.97-2.26v-3.82h1.17v3.68c0 .82.5 1.34 1.22 1.34.66 0 1.41-.48 1.41-1.5v-3.51ZM386.65 243.26h1.13v.95h.06c.22-.64.82-1.04 1.52-1.04.15 0 .38.01.5.03v1.12c-.09-.03-.37-.07-.61-.07-.83 0-1.43.57-1.43 1.35v3.66h-1.17v-6ZM390.5 246.29c0-1.83 1.09-3.11 2.79-3.11 1.36 0 2.35.8 2.48 2.02h-1.14c-.12-.56-.58-1.03-1.32-1.03-.98 0-1.62.81-1.62 2.09s.64 2.13 1.62 2.13c.67 0 1.17-.38 1.32-1.03h1.14c-.13 1.17-1.05 2.02-2.46 2.02-1.74 0-2.8-1.29-2.8-3.09ZM396.85 246.3c0-1.84 1.1-3.12 2.77-3.12 1.36 0 2.66.85 2.66 3.02v.41h-4.27c.03 1.16.7 1.8 1.7 1.8.66 0 1.17-.29 1.38-.86l1.11.2c-.27.98-1.19 1.62-2.5 1.62-1.77 0-2.86-1.22-2.86-3.08Zm4.29-.56c0-.92-.6-1.59-1.5-1.59s-1.57.74-1.61 1.59h3.12ZM405.15 248.6c-.12.94-.54 2.11-.72 2.62h-.83c.11-.48.36-1.55.45-2.61l.04-.44h1.12l-.06.43ZM409.35 249.26l2.88-8h1.39l2.88 8h-1.28l-.73-2.12h-3.12l-.73 2.12h-1.28Zm4.79-3.13-1.18-3.41h-.06l-1.18 3.41h2.42ZM418.84 249.26h-1.17v-6h1.12v.98h.07c.28-.64.87-1.05 1.77-1.05 1.23 0 2.04.78 2.04 2.26v3.82h-1.17v-3.68c0-.87-.48-1.39-1.27-1.39s-1.4.55-1.4 1.5v3.56ZM424.08 251.37l.28-.96c.64.18 1.06.11 1.36-.67l.14-.4-2.2-6.08h1.25l1.52 4.66h.06l1.52-4.66h1.26l-2.48 6.8c-.34.93-.96 1.43-1.92 1.43-.35 0-.66-.06-.8-.13ZM433.25 246.27c0-1.95 1.07-3.09 2.52-3.09 1.12 0 1.52.68 1.73 1.05h.07v-2.97h1.17v8h-1.14v-.93h-.1c-.21.38-.64 1.05-1.73 1.05-1.46 0-2.51-1.16-2.51-3.11Zm4.33-.01c0-1.25-.55-2.09-1.57-2.09s-1.59.89-1.59 2.09.54 2.12 1.59 2.12 1.57-.86 1.57-2.12ZM440.22 247.57c0-1.36 1.16-1.66 2.3-1.79 1.08-.12 1.52-.12 1.52-.54v-.03c0-.68-.39-1.07-1.14-1.07s-1.22.41-1.39.84l-1.1-.25c.39-1.09 1.39-1.53 2.48-1.53.95 0 2.33.35 2.33 2.09v3.98h-1.14v-.82h-.05c-.22.45-.78.95-1.77.95-1.14 0-2.03-.65-2.03-1.83Zm3.82-.47v-.77c-.17.17-1.07.27-1.45.32-.68.09-1.23.31-1.23.94 0 .58.48.88 1.14.88.97 0 1.54-.65 1.54-1.36ZM449.67 244.2h-1.23v3.3c0 .68.34.8.72.8.19 0 .33-.04.41-.05l.21.96c-.14.05-.39.12-.76.12-.92.02-1.75-.51-1.75-1.6v-3.54h-.88v-.94h.88v-1.44h1.17v1.44h1.23v.94ZM450.79 247.57c0-1.36 1.16-1.66 2.3-1.79 1.08-.12 1.52-.12 1.52-.54v-.03c0-.68-.39-1.07-1.14-1.07s-1.22.41-1.39.84l-1.1-.25c.39-1.09 1.39-1.53 2.48-1.53.95 0 2.33.35 2.33 2.09v3.98h-1.14v-.82h-.05c-.22.45-.78.95-1.77.95-1.14 0-2.03-.65-2.03-1.83Zm3.82-.47v-.77c-.17.17-1.07.27-1.45.32-.68.09-1.23.31-1.23.94 0 .58.48.88 1.14.88.97 0 1.54-.65 1.54-1.36ZM83.05 100.54l2.88-8h1.39l2.88 8h-1.28l-.73-2.12h-3.12l-.73 2.12h-1.28Zm4.79-3.13L86.66 94h-.06l-1.18 3.41h2.42ZM91.47 92.54h2.85c1.86 0 2.77 1.12 2.77 2.59s-.92 2.6-2.77 2.6h-1.64v2.81h-1.21v-8Zm2.74 4.16c1.18 0 1.67-.67 1.67-1.57s-.49-1.55-1.68-1.55h-1.52v3.13h1.53ZM100.07 92.54l2.55 6.22h.09l2.55-6.22h1.46v8h-1.15v-5.79h-.07l-2.36 5.78h-.95l-2.36-5.78h-.07v5.79h-1.15v-8h1.46ZM165.65 94.89h-1.21v-8h1.21v8ZM168.59 94.89h-1.17v-6h1.12v.98h.07c.28-.64.87-1.05 1.77-1.05 1.23 0 2.04.78 2.04 2.26v3.82h-1.17v-3.68c0-.87-.48-1.39-1.27-1.39s-1.4.55-1.4 1.5v3.56ZM176.96 89.83h-1.29v5.06h-1.17v-5.06h-.93v-.94h.93v-.7c0-1.12.83-1.68 1.78-1.68.47 0 .81.1.98.16l-.27.95c-.11-.04-.28-.09-.52-.09-.57 0-.79.29-.79.82v.54h1.29v.94ZM178.27 88.89h1.13v.95h.06c.22-.64.82-1.04 1.52-1.04.15 0 .38.01.5.03v1.12c-.09-.03-.37-.07-.61-.07-.83 0-1.43.57-1.43 1.35v3.66h-1.17v-6ZM182.27 93.2c0-1.36 1.16-1.66 2.3-1.79 1.08-.12 1.52-.12 1.52-.54v-.03c0-.68-.39-1.07-1.14-1.07s-1.22.41-1.39.84l-1.1-.25c.39-1.09 1.39-1.53 2.48-1.53.95 0 2.33.35 2.33 2.09v3.98h-1.14v-.82h-.05c-.22.45-.78.95-1.77.95-1.14 0-2.03-.65-2.03-1.83Zm3.82-.47v-.77c-.17.17-1.07.27-1.45.32-.68.09-1.23.31-1.23.94 0 .58.48.88 1.14.88.97 0 1.54-.65 1.54-1.36ZM192.36 90.55c-.14-.4-.47-.8-1.2-.8-.66 0-1.16.33-1.16.79 0 .41.28.63.94.79l.95.22c1.1.25 1.64.78 1.64 1.62 0 1.09-1 1.86-2.45 1.86-1.35 0-2.23-.6-2.43-1.66l1.13-.17c.14.59.59.89 1.29.89.77 0 1.26-.36 1.26-.83 0-.38-.27-.63-.85-.76l-1.02-.22c-1.12-.25-1.64-.82-1.64-1.67 0-1.06.96-1.78 2.32-1.78s2.03.61 2.27 1.54l-1.06.19ZM197.73 89.83h-1.23v3.3c0 .68.34.8.72.8.19 0 .33-.04.41-.05l.21.96c-.14.05-.39.12-.76.12-.92.02-1.75-.51-1.75-1.6v-3.54h-.88v-.94h.88v-1.44h1.17v1.44h1.23v.94ZM199.13 88.89h1.13v.95h.06c.22-.64.82-1.04 1.52-1.04.15 0 .38.01.5.03v1.12c-.09-.03-.37-.07-.61-.07-.83 0-1.43.57-1.43 1.35v3.66h-1.17v-6ZM207.27 88.89h1.17v6h-1.15v-1.04h-.06c-.28.64-.89 1.12-1.79 1.12-1.15 0-1.97-.77-1.97-2.26v-3.82h1.17v3.68c0 .82.5 1.34 1.22 1.34.66 0 1.41-.48 1.41-1.5V88.9ZM209.85 91.92c0-1.83 1.09-3.11 2.79-3.11 1.36 0 2.35.8 2.48 2.02h-1.14c-.12-.56-.58-1.03-1.32-1.03-.98 0-1.62.81-1.62 2.09s.64 2.13 1.62 2.13c.67 0 1.17-.38 1.32-1.03h1.14c-.13 1.17-1.05 2.02-2.46 2.02-1.74 0-2.8-1.29-2.8-3.09ZM219.27 89.83h-1.23v3.3c0 .68.34.8.72.8.19 0 .33-.04.41-.05l.21.96c-.14.05-.39.12-.76.12-.92.02-1.75-.51-1.75-1.6v-3.54h-.88v-.94h.88v-1.44h1.17v1.44h1.23v.94ZM224.47 88.89h1.17v6h-1.15v-1.04h-.06c-.28.64-.89 1.12-1.79 1.12-1.15 0-1.97-.77-1.97-2.26v-3.82h1.17v3.68c0 .82.5 1.34 1.22 1.34.66 0 1.41-.48 1.41-1.5V88.9ZM227.32 88.89h1.13v.95h.06c.22-.64.82-1.04 1.52-1.04.15 0 .38.01.5.03v1.12c-.09-.03-.37-.07-.61-.07-.83 0-1.43.57-1.43 1.35v3.66h-1.17v-6ZM231.17 91.93c0-1.84 1.1-3.12 2.77-3.12 1.36 0 2.66.85 2.66 3.02v.41h-4.27c.03 1.16.7 1.8 1.7 1.8.66 0 1.17-.29 1.38-.86l1.11.2c-.27.98-1.19 1.62-2.5 1.62-1.77 0-2.86-1.22-2.86-3.08Zm4.29-.56c0-.92-.6-1.59-1.5-1.59s-1.57.74-1.61 1.59h3.12ZM173.8 99.74l2.55 6.22h.09l2.55-6.22h1.46v8h-1.15v-5.79h-.07l-2.36 5.78h-.95l-2.36-5.78h-.07v5.79h-1.15v-8h1.46ZM181.95 104.77c0-1.87 1.11-3.11 2.8-3.11s2.8 1.24 2.8 3.11-1.11 3.09-2.8 3.09-2.8-1.24-2.8-3.09Zm4.41 0c0-1.15-.52-2.12-1.61-2.12s-1.62.98-1.62 2.12.52 2.12 1.62 2.12 1.61-.96 1.61-2.12ZM190.12 107.74h-1.17v-6h1.12v.98h.07c.28-.64.87-1.05 1.77-1.05 1.23 0 2.04.78 2.04 2.26v3.82h-1.17v-3.68c0-.87-.48-1.39-1.27-1.39s-1.4.55-1.4 1.5v3.56ZM195.49 100.12c0-.38.33-.7.74-.7s.74.32.74.7-.34.7-.74.7-.74-.31-.74-.7Zm.15 1.62h1.17v6h-1.17v-6ZM201.29 102.68h-1.23v3.3c0 .68.34.8.72.8.19 0 .33-.04.41-.05l.21.96c-.14.05-.39.12-.76.12-.92.02-1.75-.51-1.75-1.6v-3.54h-.88v-.94h.88v-1.44h1.17v1.44h1.23v.94ZM202.35 104.77c0-1.87 1.11-3.11 2.8-3.11s2.8 1.24 2.8 3.11-1.11 3.09-2.8 3.09-2.8-1.24-2.8-3.09Zm4.41 0c0-1.15-.52-2.12-1.61-2.12s-1.62.98-1.62 2.12.52 2.12 1.62 2.12 1.61-.96 1.61-2.12ZM209.36 101.74h1.13v.95h.06c.22-.64.82-1.04 1.52-1.04.15 0 .38.01.5.03v1.12c-.09-.03-.37-.07-.61-.07-.83 0-1.43.57-1.43 1.35v3.66h-1.17v-6ZM213.55 100.12c0-.38.33-.7.74-.7s.74.32.74.7-.34.7-.74.7-.74-.31-.74-.7Zm.15 1.62h1.17v6h-1.17v-6ZM217.71 107.74h-1.17v-6h1.12v.98h.07c.28-.64.87-1.05 1.77-1.05 1.23 0 2.04.78 2.04 2.26v3.82h-1.17v-3.68c0-.87-.48-1.39-1.27-1.39s-1.4.55-1.4 1.5v3.56ZM223.19 108.76l1-.41c.21.33.59.82 1.56.82.89 0 1.53-.41 1.53-1.34v-1.18h-.07c-.21.38-.64 1-1.74 1-1.42 0-2.51-1.02-2.51-2.93s1.07-3.05 2.52-3.05c1.12 0 1.53.68 1.74 1.05h.09v-.97h1.14v6.13c0 1.53-1.18 2.23-2.71 2.23-1.43 0-2.23-.62-2.55-1.35Zm4.11-4.05c0-1.21-.55-2.05-1.57-2.05s-1.59.89-1.59 2.05.54 1.98 1.59 1.98 1.57-.74 1.57-1.98ZM281.01 92.54h1.21v6.96h3.62v1.04h-4.83v-8ZM286.96 97.57c0-1.87 1.11-3.11 2.8-3.11s2.8 1.24 2.8 3.11-1.11 3.09-2.8 3.09-2.8-1.24-2.8-3.09Zm4.41 0c0-1.15-.52-2.12-1.61-2.12s-1.62.98-1.62 2.12.52 2.12 1.62 2.12 1.61-.96 1.61-2.12ZM293.93 101.55l1-.41c.21.33.59.82 1.56.82.89 0 1.53-.41 1.53-1.34v-1.18h-.07c-.21.38-.64 1-1.74 1-1.42 0-2.51-1.02-2.51-2.93s1.07-3.05 2.52-3.05c1.12 0 1.53.68 1.74 1.05h.09v-.97h1.14v6.13c0 1.53-1.18 2.23-2.71 2.23-1.43 0-2.23-.62-2.55-1.35Zm4.11-4.05c0-1.21-.55-2.05-1.57-2.05s-1.59.89-1.59 2.05.54 1.98 1.59 1.98 1.57-.74 1.57-1.98ZM300.83 101.55l1-.41c.21.33.59.82 1.56.82.89 0 1.53-.41 1.53-1.34v-1.18h-.07c-.21.38-.64 1-1.74 1-1.42 0-2.51-1.02-2.51-2.93s1.07-3.05 2.52-3.05c1.12 0 1.53.68 1.74 1.05h.09v-.97h1.14v6.13c0 1.53-1.18 2.23-2.71 2.23-1.43 0-2.23-.62-2.55-1.35Zm4.11-4.05c0-1.21-.55-2.05-1.57-2.05s-1.59.89-1.59 2.05.54 1.98 1.59 1.98 1.57-.74 1.57-1.98ZM307.62 92.92c0-.38.33-.7.74-.7s.74.32.74.7-.34.7-.74.7-.74-.31-.74-.7Zm.15 1.62h1.17v6h-1.17v-6ZM311.78 100.54h-1.17v-6h1.12v.98h.07c.28-.64.87-1.05 1.77-1.05 1.23 0 2.04.78 2.04 2.26v3.82h-1.17v-3.68c0-.87-.48-1.39-1.27-1.39s-1.4.55-1.4 1.5v3.56ZM317.26 101.55l1-.41c.21.33.59.82 1.56.82.89 0 1.53-.41 1.53-1.34v-1.18h-.07c-.21.38-.64 1-1.74 1-1.42 0-2.51-1.02-2.51-2.93s1.07-3.05 2.52-3.05c1.12 0 1.53.68 1.74 1.05h.09v-.97h1.14v6.13c0 1.53-1.18 2.23-2.71 2.23-1.43 0-2.23-.62-2.55-1.35Zm4.11-4.05c0-1.21-.55-2.05-1.57-2.05s-1.59.89-1.59 2.05.54 1.98 1.59 1.98 1.57-.74 1.57-1.98ZM382.37 93.47c-.98 0-1.61.5-1.61 1.18 0 .77.83 1.06 1.45 1.22l.78.2c1.02.25 2.3.81 2.3 2.25 0 1.36-1.08 2.34-2.96 2.34s-2.91-.89-2.99-2.34h1.21c.07.87.84 1.29 1.77 1.29 1.03 0 1.77-.52 1.77-1.3 0-.71-.66-.99-1.52-1.22l-.95-.26c-1.29-.35-2.08-1-2.08-2.11 0-1.38 1.23-2.3 2.84-2.3s2.76.93 2.79 2.21h-1.16c-.09-.74-.74-1.17-1.66-1.17ZM386.7 102.64l.28-.96c.64.18 1.06.11 1.36-.67l.14-.4-2.2-6.08h1.25l1.52 4.66h.06l1.52-4.66h1.26l-2.48 6.8c-.34.93-.96 1.43-1.92 1.43-.35 0-.66-.06-.8-.13ZM394.28 100.54h-1.17v-6h1.12v.98h.07c.28-.64.87-1.05 1.77-1.05 1.23 0 2.04.78 2.04 2.26v3.82h-1.17v-3.68c0-.87-.48-1.39-1.27-1.39s-1.4.55-1.4 1.5v3.56ZM402.59 95.48h-1.23v3.3c0 .68.34.8.72.8.19 0 .33-.04.41-.05l.21.96c-.14.05-.39.12-.76.12-.92.02-1.75-.51-1.75-1.6v-3.54h-.88v-.94h.88v-1.44h1.17v1.44h1.23v.94ZM405.28 100.54h-1.17v-8h1.15v2.98h.07c.28-.65.84-1.05 1.78-1.05 1.23 0 2.05.77 2.05 2.26v3.82h-1.17v-3.68c0-.88-.48-1.39-1.29-1.39s-1.44.55-1.44 1.5v3.56ZM410.58 97.58c0-1.84 1.1-3.12 2.77-3.12 1.36 0 2.66.85 2.66 3.02v.41h-4.27c.03 1.16.7 1.8 1.7 1.8.66 0 1.17-.29 1.38-.86l1.11.2c-.27.98-1.19 1.62-2.5 1.62-1.77 0-2.86-1.22-2.86-3.08Zm4.29-.56c0-.92-.6-1.59-1.5-1.59s-1.57.74-1.61 1.59h3.12ZM420.22 95.48h-1.23v3.3c0 .68.34.8.72.8.19 0 .33-.04.41-.05l.21.96c-.14.05-.39.12-.76.12-.92.02-1.75-.51-1.75-1.6v-3.54h-.88v-.94h.88v-1.44h1.17v1.44h1.23v.94ZM421.47 92.92c0-.38.33-.7.74-.7s.74.32.74.7-.34.7-.74.7-.74-.31-.74-.7Zm.15 1.62h1.17v6h-1.17v-6ZM424.19 97.57c0-1.83 1.09-3.11 2.79-3.11 1.36 0 2.35.8 2.48 2.02h-1.14c-.12-.56-.58-1.03-1.32-1.03-.98 0-1.62.81-1.62 2.09s.64 2.13 1.62 2.13c.67 0 1.17-.38 1.32-1.03h1.14c-.13 1.17-1.05 2.02-2.46 2.02-1.74 0-2.8-1.29-2.8-3.09ZM434.26 96.19c-.14-.4-.47-.8-1.2-.8-.66 0-1.16.33-1.16.79 0 .41.28.63.94.79l.95.22c1.1.25 1.64.78 1.64 1.62 0 1.09-1 1.86-2.45 1.86-1.35 0-2.23-.6-2.43-1.66l1.13-.17c.14.59.59.89 1.29.89.77 0 1.26-.36 1.26-.83 0-.38-.27-.63-.85-.76l-1.02-.22c-1.12-.25-1.64-.82-1.64-1.67 0-1.06.96-1.78 2.32-1.78s2.03.61 2.27 1.54l-1.06.19ZM475.63 92.54h2.85c1.86 0 2.77 1.04 2.77 2.51 0 1.07-.49 1.89-1.47 2.25l1.77 3.24h-1.38l-1.62-3.03h-1.72v3.03h-1.21v-8Zm2.74 3.93c1.18 0 1.67-.52 1.67-1.43s-.49-1.47-1.68-1.47h-1.52v2.9h1.53ZM489.19 92.54v5.26c0 1.68-1.26 2.87-3.18 2.87s-3.18-1.19-3.18-2.87v-5.26h1.21v5.16c0 1.09.75 1.87 1.97 1.87s1.97-.78 1.97-1.87v-5.16h1.21ZM492.52 92.54l2.55 6.22h.09l2.55-6.22h1.46v8h-1.15v-5.79h-.07l-2.36 5.78h-.95l-2.36-5.78h-.07v5.79h-1.15v-8h1.46ZM506.32 97.08h-2.11v-1.05h2.11v-2.11h1.05v2.11h2.12v1.05h-2.12v2.12h-1.05v-2.12ZM515.99 92.54l2.55 6.22h.09l2.55-6.22h1.46v8h-1.15v-5.79h-.07l-2.36 5.78h-.95l-2.36-5.78h-.07v5.79h-1.15v-8h1.46ZM524.14 97.57c0-1.87 1.11-3.11 2.8-3.11s2.8 1.24 2.8 3.11-1.11 3.09-2.8 3.09-2.8-1.24-2.8-3.09Zm4.41 0c0-1.15-.52-2.12-1.61-2.12s-1.62.98-1.62 2.12.52 2.12 1.62 2.12 1.61-.96 1.61-2.12ZM531.24 92.54h1.17v2.97h.07c.21-.37.61-1.05 1.72-1.05 1.45 0 2.52 1.14 2.52 3.09s-1.05 3.11-2.51 3.11c-1.09 0-1.52-.67-1.73-1.05h-.1v.93h-1.14v-8Zm2.71 7.12c1.04 0 1.59-.92 1.59-2.12s-.53-2.09-1.59-2.09-1.57.83-1.57 2.09.56 2.12 1.57 2.12ZM537.99 92.92c0-.38.33-.7.74-.7s.74.32.74.7-.34.7-.74.7-.74-.31-.74-.7Zm.15 1.62h1.17v6h-1.17v-6ZM542.16 100.54h-1.17v-8h1.17v8ZM543.57 97.58c0-1.84 1.1-3.12 2.77-3.12 1.36 0 2.66.85 2.66 3.02v.41h-4.27c.03 1.16.7 1.8 1.7 1.8.66 0 1.17-.29 1.38-.86l1.11.2c-.27.98-1.19 1.62-2.5 1.62-1.77 0-2.86-1.22-2.86-3.08Zm4.29-.56c0-.92-.6-1.59-1.5-1.59s-1.57.74-1.61 1.59h3.12Z"/><rect width="81.29" height="16.87" x="147.7" y="349.34" class="cls-6" rx="8.43" ry="8.43"/><path d="M157.97 353.9h2.56c1.67 0 2.49 1 2.49 2.33s-.83 2.33-2.49 2.33h-1.47v2.53h-1.08v-7.19Zm2.46 3.74c1.06 0 1.5-.6 1.5-1.41s-.44-1.4-1.51-1.4h-1.36v2.81h1.38ZM167.93 355.69h1.05v5.39h-1.03v-.93h-.06c-.25.58-.8 1-1.61 1-1.04 0-1.77-.7-1.77-2.03v-3.43h1.05v3.3c0 .73.45 1.2 1.1 1.2.59 0 1.27-.43 1.27-1.35v-3.16ZM170.79 353.9h1.05v2.67h.06c.19-.33.55-.94 1.55-.94 1.3 0 2.26 1.03 2.26 2.78s-.95 2.79-2.25 2.79c-.98 0-1.37-.6-1.56-.94h-.09v.84h-1.02v-7.19Zm2.44 6.4c.94 0 1.43-.82 1.43-1.91s-.48-1.87-1.43-1.87-1.41.75-1.41 1.87.5 1.91 1.41 1.91ZM178.25 361.09h-1.05v-7.19h1.05v7.19ZM179.83 354.24c0-.34.3-.63.66-.63s.66.28.66.63-.3.62-.66.62-.66-.28-.66-.62Zm.13 1.46h1.05v5.39h-1.05v-5.39ZM182.48 358.41c0-1.65.98-2.79 2.5-2.79 1.22 0 2.11.72 2.22 1.81h-1.02c-.11-.5-.52-.93-1.19-.93-.88 0-1.46.73-1.46 1.88s.57 1.92 1.46 1.92c.6 0 1.05-.34 1.19-.93h1.02c-.12 1.05-.94 1.81-2.21 1.81-1.56 0-2.51-1.15-2.51-2.78ZM191.32 358.41c0-1.65.98-2.79 2.5-2.79 1.22 0 2.11.72 2.22 1.81h-1.02c-.11-.5-.52-.93-1.19-.93-.88 0-1.46.73-1.46 1.88s.57 1.92 1.46 1.92c.6 0 1.05-.34 1.19-.93h1.02c-.12 1.05-.94 1.81-2.21 1.81-1.57 0-2.51-1.15-2.51-2.78ZM198.54 361.09h-1.05v-7.19h1.05v7.19ZM200.01 358.41c0-1.68.99-2.79 2.51-2.79s2.51 1.11 2.51 2.79-.99 2.78-2.51 2.78-2.51-1.11-2.51-2.78Zm3.97 0c0-1.03-.46-1.91-1.45-1.91s-1.46.88-1.46 1.91.46 1.9 1.46 1.9 1.45-.87 1.45-1.9ZM209.93 355.69h1.05v5.39h-1.03v-.93h-.06c-.25.58-.8 1-1.61 1-1.04 0-1.77-.7-1.77-2.03v-3.43h1.05v3.3c0 .73.45 1.2 1.1 1.2.59 0 1.27-.43 1.27-1.35v-3.16ZM212.46 358.4c0-1.75.96-2.78 2.26-2.78 1 0 1.36.61 1.55.94h.06v-2.67h1.05v7.19h-1.03v-.84h-.09c-.19.34-.58.94-1.56.94-1.31 0-2.25-1.05-2.25-2.79Zm3.89-.01c0-1.13-.49-1.87-1.41-1.87s-1.42.8-1.42 1.87.49 1.91 1.42 1.91 1.41-.77 1.41-1.91Z" class="cls-11"/><g id="_2x32_Color_icon-multi-cloud-32-color"><path id="Subtract" d="M188.75 323.73c.3-1.67 1.7-2.89 3.32-2.89s2.91 1.13 3.28 2.71l.12.51.52.05c1.47.15 2.62 1.39 2.62 2.9 0 1.38-.86 2.51-2.07 2.84v1.51c2.09-.35 3.55-2.21 3.55-4.35s-1.47-3.85-3.44-4.29c-.66-1.94-2.45-3.36-4.58-3.36-2.49 0-4.49 1.93-4.81 4.37h1.49Z" class="cls-16"/><path id="Subtract_2" d="M180.84 327.39a3.017 3.017 0 0 1 3.02-2.92c1.13 0 2.12.62 2.64 1.55h1.61a4.493 4.493 0 0 0-4.25-3.02c-2.22 0-4.07 1.61-4.43 3.74-1.64.4-2.83 1.94-2.83 3.72 0 2.08 1.62 3.82 3.68 3.82h.01v-1.48h-.01c-1.18 0-2.2-1.02-2.2-2.35s.95-2.28 2.08-2.34l.67-.04.02-.67Z" class="cls-4"/><path id="Union__Stroke_" d="M190.2 329.09c-2.09 0-3.8 1.63-3.92 3.7l-.04.7h-.71c-1.71 0-3.1 1.39-3.1 3.1s1.39 3.1 3.1 3.1h9.33c1.71 0 3.1-1.39 3.1-3.1s-1.39-3.1-3.1-3.1h-.71l-.04-.7a3.932 3.932 0 0 0-3.92-3.7Zm-5.32 2.96c.46-2.52 2.66-4.44 5.32-4.44s4.86 1.91 5.32 4.44a4.59 4.59 0 0 1 3.93 4.54 4.58 4.58 0 0 1-4.58 4.58h-9.33a4.58 4.58 0 0 1-4.58-4.58 4.59 4.59 0 0 1 3.93-4.54Z" class="cls-16"/></g><rect width="80.29" height="16.87" x="263.85" y="349.34" class="cls-6" rx="8.43" ry="8.43"/><path d="M288.07 353.9h1.08v3.12h3.58v-3.12h1.09v7.19h-1.09v-3.13h-3.58v3.13h-1.08v-7.19ZM295.58 362.98l.25-.86c.58.16.95.09 1.22-.6l.13-.36-1.97-5.46h1.12l1.37 4.18h.06l1.37-4.18h1.13l-2.23 6.11c-.31.83-.86 1.29-1.73 1.29-.32 0-.59-.06-.72-.12ZM301.63 353.9h1.05v2.67h.06c.19-.33.55-.94 1.55-.94 1.3 0 2.26 1.03 2.26 2.78s-.95 2.79-2.25 2.79c-.98 0-1.37-.6-1.56-.94h-.09v.84h-1.02v-7.19Zm2.44 6.4c.94 0 1.43-.82 1.43-1.91s-.48-1.87-1.43-1.87-1.41.75-1.41 1.87.5 1.91 1.41 1.91ZM308.04 355.69h1.01v.86h.06c.2-.58.74-.94 1.37-.94.13 0 .34.01.45.02v1c-.08-.02-.33-.06-.55-.06-.74 0-1.29.51-1.29 1.21v3.29h-1.05v-5.39ZM312.01 354.24c0-.34.3-.63.66-.63s.66.28.66.63-.3.62-.66.62-.66-.28-.66-.62Zm.13 1.46h1.05v5.39h-1.05v-5.39ZM314.68 358.4c0-1.75.96-2.78 2.26-2.78 1 0 1.36.61 1.55.94h.06v-2.67h1.05v7.19h-1.03v-.84h-.09c-.19.34-.58.94-1.56.94-1.31 0-2.25-1.05-2.25-2.79Zm3.89-.01c0-1.13-.49-1.87-1.41-1.87s-1.42.8-1.42 1.87.49 1.91 1.42 1.91 1.41-.77 1.41-1.91Z" class="cls-11"/><g id="_2x32_Color_icon-hybrid-32-color"><path id="Subtract__Stroke_" d="M297.75 324.67c.79-3.1 3.59-5.39 6.93-5.39s6.37 2.48 7.02 5.77l.17.88h-4.43c-.41 0-.74.33-.74.74v11.08h-7.41a6.632 6.632 0 0 1-1.55-13.08Zm6.93-3.91c-2.79 0-5.11 2.01-5.59 4.67l-.09.52-.52.08a5.146 5.146 0 0 0-4.33 5.09 5.16 5.16 0 0 0 5.16 5.16h5.92v-9.6c0-1.22.99-2.22 2.22-2.22H310a5.664 5.664 0 0 0-5.32-3.69Z" class="cls-16"/><path id="Oval_Copy_5__Stroke_" d="M300.81 325.94c0-2.04 1.65-3.69 3.69-3.69v1.48c-1.22 0-2.22.99-2.22 2.22h-1.48Z" class="cls-4"/><path id="Rectangle__Stroke_" d="M305.24 326.67c0-1.22.99-2.22 2.22-2.22h6.65c1.22 0 2.22.99 2.22 2.22v11.82c0 1.22-.99 2.22-2.22 2.22h-6.65c-1.22 0-2.22-.99-2.22-2.22v-11.82Zm2.22-.74c-.41 0-.74.33-.74.74v11.82c0 .41.33.74.74.74h6.65c.41 0 .74-.33.74-.74v-11.82c0-.41-.33-.74-.74-.74h-6.65Z" class="cls-16"/><path id="Path_138__Stroke_" d="M313.37 328.89h-5.17v-1.48h5.17v1.48Z" class="cls-4"/><path id="Path_139__Stroke_" d="M313.37 331.85h-5.17v-1.48h5.17v1.48Z" class="cls-4"/><path id="Path_140__Stroke_" d="M313.37 334.8h-5.17v-1.48h5.17v1.48Z" class="cls-4"/><path id="Path_141__Stroke_" d="M311.89 337.76h-2.22v-1.48h2.22v1.48Z" class="cls-16"/></g><rect width="81.29" height="16.87" x="379.01" y="349.34" class="cls-6" rx="8.43" ry="8.43"/><path d="M391.57 361.18c-1.87 0-3.24-1.4-3.24-3.69s1.37-3.69 3.24-3.69 3.24 1.39 3.24 3.69-1.38 3.69-3.24 3.69Zm0-6.39c-1.24 0-2.16.95-2.16 2.7s.92 2.7 2.16 2.7 2.16-.95 2.16-2.7-.93-2.7-2.16-2.7ZM397.44 361.09h-1.05v-5.39h1.01v.88h.07c.25-.57.78-.95 1.59-.95 1.1 0 1.84.7 1.84 2.03v3.43h-1.05v-3.3c0-.78-.43-1.25-1.14-1.25s-1.26.49-1.26 1.35v3.2ZM405.78 358.5h-3.19v-.91h3.19v.91ZM407.48 355.69h1.03v.87h.09c.19-.33.55-.94 1.55-.94 1.3 0 2.26 1.03 2.26 2.78s-.95 2.79-2.25 2.79c-.98 0-1.37-.6-1.56-.94h-.06v2.86h-1.05v-7.41Zm2.44 4.6c.94 0 1.43-.82 1.43-1.91s-.48-1.87-1.43-1.87-1.41.75-1.41 1.87.51 1.91 1.41 1.91ZM413.89 355.69h1.01v.86h.06c.2-.58.74-.94 1.37-.94.13 0 .34.01.45.02v1c-.08-.02-.33-.06-.55-.06-.74 0-1.29.51-1.29 1.21v3.29h-1.05v-5.39ZM417.56 358.43c0-1.66.99-2.8 2.49-2.8 1.22 0 2.39.76 2.39 2.71v.37h-3.83c.03 1.04.63 1.62 1.53 1.62.6 0 1.05-.26 1.24-.77l.99.18c-.24.88-1.07 1.46-2.25 1.46-1.59 0-2.57-1.09-2.57-2.77Zm3.85-.51c0-.82-.54-1.43-1.35-1.43s-1.41.66-1.45 1.43h2.8ZM423.91 355.69h1.01v.88h.07c.22-.59.75-.95 1.47-.95s1.21.36 1.45.95h.06c.26-.58.84-.95 1.62-.95.98 0 1.66.61 1.66 1.85v3.62h-1.05v-3.52c0-.73-.46-1.04-1.01-1.04-.68 0-1.08.47-1.08 1.12v3.44h-1.05v-3.58c0-.59-.4-.97-.99-.97s-1.11.51-1.11 1.23v3.32h-1.05v-5.39ZM432.83 354.24c0-.34.3-.63.66-.63s.66.28.66.63-.3.62-.66.62-.66-.28-.66-.62Zm.13 1.46h1.05v5.39h-1.05v-5.39ZM438.81 357.18c-.12-.36-.42-.72-1.08-.72-.6 0-1.05.29-1.04.71 0 .37.25.56.85.71l.86.2c.99.23 1.47.7 1.47 1.46 0 .98-.9 1.67-2.2 1.67-1.21 0-2-.54-2.18-1.49l1.01-.15c.13.53.53.8 1.16.8.69 0 1.13-.33 1.13-.74 0-.34-.24-.57-.76-.68l-.91-.2c-1.01-.22-1.47-.73-1.47-1.5 0-.95.86-1.6 2.08-1.6s1.82.55 2.04 1.39l-.95.17ZM441.09 358.43c0-1.66.99-2.8 2.49-2.8 1.22 0 2.39.76 2.39 2.71v.37h-3.83c.03 1.04.63 1.62 1.53 1.62.6 0 1.05-.26 1.24-.77l.99.18c-.24.88-1.07 1.46-2.25 1.46-1.59 0-2.57-1.09-2.57-2.77Zm3.85-.51c0-.82-.54-1.43-1.35-1.43s-1.41.66-1.45 1.43h2.8ZM450.53 357.18c-.12-.36-.42-.72-1.08-.72-.6 0-1.05.29-1.04.71 0 .37.25.56.85.71l.86.2c.99.23 1.47.7 1.47 1.46 0 .98-.9 1.67-2.2 1.67-1.21 0-2-.54-2.18-1.49l1.01-.15c.13.53.53.8 1.16.8.69 0 1.13-.33 1.13-.74 0-.34-.24-.57-.76-.68l-.91-.2c-1.01-.22-1.47-.73-1.47-1.5 0-.95.86-1.6 2.08-1.6s1.82.55 2.04 1.39l-.95.17Z" class="cls-11"/><path d="M419.63 331.83a4.165 4.165 0 0 1 0-5.88 4.146 4.146 0 0 1 5.88 0 4.146 4.146 0 0 1 0 5.88 4.146 4.146 0 0 1-5.88 0Zm.84-.84a2.97 2.97 0 1 0 4.2-4.199 2.97 2.97 0 0 0-4.2 4.199Z" class="cls-13"/><path d="m424.7 331.71 1.93 1.93.84-.84-1.93-1.93-.84.84Z" style="fill:#535766"/><path d="M428.91 320.77h-18.62c-.77 0-1.39.62-1.39 1.39v14.07h21.4v-14.07c0-.77-.62-1.39-1.39-1.39Zm0 1.19c.11 0 .2.09.2.2v12.88h-19.02v-12.88c0-.11.09-.2.2-.2h18.62Z" class="cls-13"/><path d="m406.88 341.38 2.19-6.34h21.06l2.19 6.34h-25.44Zm22.4-5.15h-19.36l-1.37 3.96h22.11l-1.37-3.96Z" class="cls-13"/><path d="M411.87 325.13h4.95v-1.19h-4.95v1.19ZM411.87 327.9h4.95v-1.19h-4.95v1.19ZM411.87 330.68h4.95v-1.19h-4.95v1.19ZM411.87 333.45h4.95v-1.19h-4.95v1.19Z" class="cls-3"/><path d="m253.42 289.74 2.88-3.15c1.01-1.1 1.48-1.7 1.48-2.5 0-.92-.72-1.5-1.67-1.5-1.01 0-1.65.66-1.65 1.65h-1c0-1.53 1.16-2.57 2.69-2.57s2.62 1.07 2.62 2.42c0 .97-.44 1.72-1.94 3.32l-1.96 2.09v.07h4.05v.94h-5.5v-.77ZM260.61 286.15c0-2.83 1.12-4.48 3.03-4.48s3.03 1.65 3.03 4.48-1.11 4.48-3.03 4.48-3.03-1.63-3.03-4.48Zm5.04 0c0-2.26-.75-3.56-2.01-3.56s-2.01 1.29-2.01 3.56.74 3.54 2.01 3.54 2.01-1.27 2.01-3.54ZM268.23 286.15c0-2.83 1.12-4.48 3.03-4.48s3.03 1.65 3.03 4.48-1.11 4.48-3.03 4.48-3.03-1.63-3.03-4.48Zm5.04 0c0-2.26-.75-3.56-2.01-3.56s-2.01 1.29-2.01 3.56.74 3.54 2.01 3.54 2.01-1.27 2.01-3.54ZM278.61 286.64h-2.33v-.95h2.33v-2.33h.95v2.33h2.33v.95h-2.33v2.33h-.95v-2.33ZM287.38 282.2c0-.38.32-.68.72-.68s.71.31.71.68-.32.68-.71.68-.72-.31-.72-.68Zm.21 1.77h1v6.54h-1v-6.54ZM291.55 290.51h-1v-6.54h.97v1.02h.08c.31-.66.92-1.11 1.91-1.11 1.32 0 2.21.8 2.21 2.47v4.16h-1v-4.09c0-1.03-.57-1.63-1.5-1.63s-1.67.65-1.67 1.79v3.93ZM300.53 284.82h-1.4v3.81c0 .85.43.99.87.99.22 0 .36-.03.44-.05l.21.9c-.14.05-.38.12-.75.12-.85 0-1.77-.54-1.77-1.69v-4.09h-.99v-.85h.99v-1.57h1v1.57h1.4v.85ZM301.8 287.29c0-2.01 1.17-3.41 2.95-3.41 1.36 0 2.81.83 2.81 3.27v.43h-4.75c.05 1.4.86 2.16 2.04 2.16.79 0 1.38-.34 1.63-1.02l.97.27c-.31.99-1.28 1.65-2.61 1.65-1.89 0-3.05-1.34-3.05-3.35Zm4.73-.58c0-1.11-.7-1.92-1.79-1.92-1.15 0-1.87.91-1.94 1.92h3.72ZM309.18 291.78l.8-.56c.27.36.69.99 1.87.99 1.06 0 1.82-.49 1.82-1.58v-1.33h-.08c-.22.36-.63 1.11-1.91 1.11-1.58 0-2.78-1.16-2.78-3.2s1.14-3.32 2.79-3.32c1.28 0 1.69.78 1.91 1.12h.1v-1.04h.97v6.73c0 1.69-1.26 2.4-2.83 2.4-1.46 0-2.26-.63-2.67-1.31Zm4.51-4.6c0-1.41-.65-2.4-1.87-2.4s-1.91 1.07-1.91 2.4.65 2.32 1.91 2.32 1.87-.87 1.87-2.32ZM316.65 283.97h.97v.99h.07c.24-.65.92-1.09 1.7-1.09.15 0 .41 0 .53.02v1.02c-.07-.02-.34-.07-.61-.07-.95 0-1.65.65-1.65 1.53v4.14h-1v-6.54ZM320.93 288.65c0-1.5 1.32-1.77 2.54-1.92 1.19-.15 1.69-.11 1.69-.6v-.03c0-.84-.46-1.33-1.38-1.33s-1.48.51-1.7.99l-.95-.34c.51-1.19 1.63-1.53 2.62-1.53.83 0 2.42.24 2.42 2.32v4.31h-1v-.89h-.05c-.2.43-.8 1.04-1.94 1.04-1.24 0-2.23-.73-2.23-2.01Zm4.22-.51v-.92c-.17.2-1.31.32-1.74.37-.78.1-1.48.34-1.48 1.11 0 .7.58 1.06 1.38 1.06 1.19 0 1.84-.8 1.84-1.62ZM330.96 284.82h-1.4v3.81c0 .85.43.99.87.99.22 0 .36-.03.44-.05l.2.9c-.14.05-.38.12-.75.12-.85 0-1.77-.54-1.77-1.69v-4.09h-.99v-.85h.99v-1.57h1v1.57h1.4v.85ZM332.4 282.2c0-.38.32-.68.72-.68s.71.31.71.68-.32.68-.71.68-.72-.31-.72-.68Zm.21 1.77h1v6.54h-1v-6.54ZM335.26 287.27c0-2.04 1.19-3.39 2.96-3.39s2.96 1.34 2.96 3.39-1.19 3.37-2.96 3.37-2.96-1.34-2.96-3.37Zm4.92 0c0-1.31-.61-2.49-1.96-2.49s-1.96 1.17-1.96 2.49.61 2.47 1.96 2.47 1.96-1.16 1.96-2.47ZM343.85 290.51h-1v-6.54h.97v1.02h.08c.31-.66.92-1.11 1.91-1.11 1.32 0 2.21.8 2.21 2.47v4.16h-1v-4.09c0-1.03-.57-1.63-1.5-1.63s-1.67.65-1.67 1.79v3.93ZM353.72 285.69c-.17-.45-.54-.94-1.41-.94-.8 0-1.4.41-1.4.97 0 .5.35.76 1.12.95l.97.24c1.17.29 1.74.86 1.74 1.77 0 1.13-1.04 1.96-2.55 1.96-1.34 0-2.25-.59-2.49-1.7l.95-.24c.18.7.69 1.06 1.52 1.06.94 0 1.53-.46 1.53-1.02 0-.45-.31-.77-.97-.92l-1.09-.26c-1.2-.28-1.74-.88-1.74-1.79 0-1.11 1.02-1.89 2.4-1.89 1.29 0 2 .62 2.32 1.55l-.9.25Z"/></svg>