<svg xmlns="http://www.w3.org/2000/svg" viewBox="0 0 142 46"><g fill="none" fill-rule="evenodd"><g fill="#0031E2"><path fill-rule="nonzero" d="M66.937 12.42v2.53a5.101 5.101 0 0 0-2.069-2.155c-.94-.562-1.88-.843-3.009-.843-1.034 0-1.974.188-2.82.656-.846.468-1.598 1.03-2.257 1.78-.658.749-1.128 1.686-1.504 2.716-.376 1.03-.564 2.154-.564 3.372 0 1.217.188 2.341.564 3.372.376 1.03.846 1.966 1.504 2.716.659.75 1.505 1.405 2.35 1.78.941.468 1.975.655 3.01.655 1.128 0 1.974-.281 2.82-.75a5.04 5.04 0 0 0 1.88-2.06v2.435h4.89V12.327h-4.795v.094Zm0 10.116c-.377.75-.847 1.312-1.41 1.686-.565.375-1.223.656-1.975.656-.564 0-1.034-.094-1.505-.375-.47-.187-.846-.562-1.222-.936-.376-.375-.564-.843-.752-1.312-.188-.468-.282-1.03-.282-1.686 0-.562.094-1.124.282-1.592.188-.562.376-1.03.752-1.405.282-.375.658-.75 1.128-.936.47-.281.94-.375 1.41-.375.753 0 1.505.28 2.163.75.658.561 1.128 1.217 1.505 2.06v3.465h-.094Zm24.35 1.78a3.256 3.256 0 0 1-1.692.468c-.47 0-.94-.093-1.41-.28a2.566 2.566 0 0 1-1.128-.844 4.958 4.958 0 0 1-.752-1.405 5.434 5.434 0 0 1-.282-1.78c0-1.31.376-2.34 1.034-3.09s1.504-1.218 2.538-1.218c1.223 0 2.069.562 2.727 1.592l4.701-1.498c-.658-1.311-1.504-2.342-2.82-3.185-1.223-.843-2.727-1.217-4.608-1.217-1.316 0-2.538.187-3.572.655-1.035.469-1.975 1.124-2.633 1.874-.752.749-1.316 1.686-1.692 2.716a9.614 9.614 0 0 0-.564 3.278c0 1.124.188 2.248.564 3.278.376 1.03.94 1.967 1.692 2.716.752.75 1.598 1.405 2.633 1.874a8.69 8.69 0 0 0 3.572.749c1.787 0 3.385-.375 4.607-1.218 1.317-.843 2.163-1.873 2.821-3.184l-4.701-1.499c-.188.562-.564.937-1.034 1.218M74.364 6.895v22.198h4.89V6.895h-4.89Zm28.958 4.308V6.801h-4.889v4.402h4.89Zm37.138 5.9a8.654 8.654 0 0 0-1.598-2.715c-.752-.75-1.598-1.405-2.633-1.874-1.034-.468-2.256-.655-3.572-.655-1.317 0-2.539.187-3.573.655-1.034.469-1.975 1.124-2.633 1.874-.752.843-1.316 1.686-1.692 2.81-.376 1.03-.564 2.154-.564 3.371a9.09 9.09 0 0 0 .564 3.185c.376 1.03.94 1.873 1.692 2.716.752.75 1.599 1.405 2.633 1.873 1.034.469 2.256.656 3.573.656 1.786 0 3.384-.375 4.7-1.218 1.317-.843 2.257-1.873 2.915-3.184l-4.043-1.218a2.405 2.405 0 0 1-1.316 1.405 4.038 4.038 0 0 1-2.068.562 3.62 3.62 0 0 1-2.35-.843c-.659-.562-1.035-1.405-1.13-2.529h11.66c0-.187.093-.468.093-.749v-.843c-.094-1.124-.282-2.248-.658-3.278m-11.282 1.78c.094-1.03.47-1.874 1.034-2.436.564-.655 1.41-.936 2.35-.936.94 0 1.693.28 2.351.936.658.562.94 1.405 1.034 2.53l-6.77-.095Zm-30.745-5.808V29h4.89V13.076h-4.89Zm19.18-6.275v8.71a5.452 5.452 0 0 0-2.068-2.06c-.94-.562-1.88-.75-3.009-.75-1.034 0-1.974.188-2.82.656-.846.375-1.599 1.03-2.257 1.686-.658.75-1.128 1.593-1.504 2.623a9.09 9.09 0 0 0-.564 3.184c0 1.218.188 2.248.564 3.279.376 1.03.94 1.873 1.598 2.622.658.75 1.505 1.311 2.445 1.686s1.974.656 3.008.656c2.163 0 3.667-.843 4.701-2.623v2.248h4.89V6.801h-4.984Zm-1.316 17.609c-.564.374-1.316.562-1.974.562a3.91 3.91 0 0 1-1.505-.281c-.47-.188-.846-.469-1.222-.843-.376-.375-.564-.75-.752-1.312-.188-.468-.282-1.03-.282-1.592s.094-1.03.282-1.592c.188-.469.47-.937.752-1.312.282-.374.658-.655 1.128-.936.47-.188.94-.375 1.41-.375.753 0 1.411.281 2.163.75.658.468 1.222 1.123 1.504 1.966v3.279c-.47.749-.94 1.31-1.504 1.686M24.133 0 0 25.278l1.784 1.785c.376.376 10.048 9.397 22.256 9.397 12.207 0 21.88-9.02 22.255-9.397l1.878-1.785L24.133 0Zm0 31.386c-7.23 0-13.616-4.04-16.715-6.39L24.133 7.424l16.715 17.478c-3.098 2.35-9.484 6.484-16.715 6.484Z"/><path d="m19.08 21.506 4.983 5.058 5.077-5.058-5.077-4.964z"/></g><g fill-rule="nonzero"><path fill="#242B2E" d="M90.035 37.974H87.71l.504-2.278h2.149c.707 0 1.123.38 1.123.936 0 .733-.537 1.342-1.452 1.342m3.834-1.566c0-1.565-1.207-2.713-3.316-2.713h-4.294l-2.101 9.57h2.392l.724-3.288h1.4l1.392 3.287h2.386L90.97 39.82c1.779-.278 2.9-1.706 2.9-3.411M97.996 39.682l2.051-3.528.776 3.528h-2.827Zm1.082-5.987-5.559 9.57h2.386l.93-1.588h4.427l.35 1.587h2.386l-2.095-9.57h-2.825Zm11.77 4.28h-2.122l.5-2.279h1.847c.728 0 1.175.348 1.175.936 0 .733-.551 1.342-1.398 1.342m.466-4.28h-4.046l-2.101 9.57h2.388l.728-3.29h2.667c2.28 0 3.661-1.72 3.661-3.531 0-1.614-1.258-2.746-3.299-2.746M119.236 33.695h-2.392l-2.106 9.569h2.393z"/><path fill="#E85E26" d="M136.37 33.695h-7.544c.114.116.229.237.333.364.844 1.023 1.29 2.31 1.29 3.724 0 2.184-.92 4.154-2.397 5.481h4.618l2.195-5.454h-2.746l.458-2.116h5.454l-2.864 7.57h1.123c2.615.017 4.383-2.155 4.383-4.793 0-2.638-1.685-4.776-4.306-4.776"/><path fill="#242B2E" d="M123.051 41.267h-1.32l1.226-5.57h1.249c1.368 0 2.136 1.025 2.136 2.308 0 1.727-1.231 3.262-3.287 3.262m4.79-6.012c-.82-.998-2.175-1.56-3.772-1.56h-3.067l-2.107 9.57h3.859c1.498 0 2.65-.334 3.53-.864 1.79-1.086 2.424-2.996 2.424-4.618 0-1.011-.317-1.868-.866-2.528"/></g><path fill="#242B2E" fill-rule="nonzero" d="M74.257 43.4c.543 0 .967-.197 1.273-.593.305-.396.458-.949.458-1.66 0-.707-.15-1.257-.452-1.648-.302-.392-.723-.588-1.264-.588-.569 0-1 .216-1.292.647h-.04l.003-.036.007-.108.014-.26c.01-.211.016-.37.016-.478v-1.45h-.92v6.096h.689l.168-.513h.063c.303.394.728.591 1.277.591Zm-.208-.752c-.378 0-.651-.118-.818-.354-.168-.237-.251-.619-.251-1.146v-.063c.005-.512.09-.877.252-1.095.164-.218.43-.327.802-.327.673 0 1.01.493 1.01 1.477 0 .488-.084.862-.252 1.12-.169.259-.416.388-.743.388Zm3.07 2.601c.786 0 1.347-.45 1.684-1.351l1.853-4.908h-.995c-.6 1.741-.932 2.715-.995 2.92-.063.205-.106.38-.13.523h-.03a4.66 4.66 0 0 0-.267-.987l-.881-2.456h-1.003l1.739 4.332-.16.407c-.18.515-.493.772-.937.772-.177 0-.335-.016-.474-.047v.729c.193.044.392.066.596.066Z"/></g></svg>