<svg xmlns="http://www.w3.org/2000/svg" xml:space="preserve" viewBox="0 0 647.795 94.818"><defs><clipPath id="a"><path d="M0 0h5102v678.547H0V0z"/></clipPath></defs><g clip-path="url(#a)" transform="matrix(.13 0 0 -.13 5 89.818)"><path d="M3208 31.105S3320.15 0 3463.39 0c152.66 0 223.32 16.965 223.32 16.965v113.094s-76.32-15.086-182.81-15.086c-93.28 0-150.78 12.261-150.78 12.261v160.2h289.34v113.093h-289.34v152.664s56.54 10.375 141.37 10.375c95.19 0 180.93-15.082 180.93-15.082V662.52s-75.39 16.027-197.91 16.027c-163.02 0-269.51-29.238-269.51-29.238V31.106zM1140.33 288.392c-3.78-9.438-8.47-27.344-11.3-37.715-2.82 10.371-7.54 28.277-11.3 37.715L989.543 617.277c-21.672 54.657-55.582 61.27-117.785 61.27-21.684 0-65.988-2.832-65.988-2.832L739.809 9.425h146.086l32.031 446.696 138.534-338.316c10.38-26.387 31.1-36.758 72.57-36.758 41.45 0 62.2 10.371 72.56 36.758l138.53 338.316 32.05-446.695h146.06l-65.96 666.289s-44.3 2.832-65.96 2.832c-62.2 0-96.12-6.613-117.81-61.27l-128.17-328.886zM409.027 151.73c-31.101-12.257-106.507-36.757-162.097-36.757-60.321 0-105.551 20.73-105.551 86.707 0 57.48 31.082 90.461 114.043 93.293l153.605 5.652V151.73zM322.32 678.547c-130.054 0-231.836-32.051-271.422-51.848l31.106-109.316s99.91 35.808 197.902 35.808c83.879 0 127.223-23.55 127.223-106.48v-47.133H279.906C64.098 399.578 0 300.625 0 191.301 0 46.184 113.102 0 215.824 0 335.508 0 405.258 49.941 413.73 49.941c6.606 0 31.106-26.375 140.411-26.375v461.778c0 138.523-85.746 193.203-231.821 193.203zM2071.45 151.73c-31.11-12.257-106.5-36.757-162.09-36.757-60.33 0-105.57 20.73-105.57 86.707 0 57.48 31.11 90.461 114.04 93.293l153.62 5.652V151.73zm-86.72 526.817c-130.06 0-231.83-32.051-271.41-51.848l31.1-109.316s99.91 35.808 197.9 35.808c83.88 0 127.23-23.55 127.23-106.48v-47.133h-127.23c-215.8 0-279.9-98.953-279.9-208.277C1662.42 46.184 1775.52 0 1878.25 0c119.68 0 189.42 49.941 197.9 49.941 6.6 0 31.1-26.375 140.42-26.375v461.778c0 138.523-85.76 193.203-231.84 193.203zm2311.75-503.254c-34.86-16.953-110.25-45.234-179.04-45.234-99.93 0-116.88 45.234-116.88 148.894v393.938h-21.68c-32.97 0-106.48-5.653-124.39-9.434V260.105C3854.49 83.867 3897.85 0 4076.89 0c136.66 0 216.76 52.766 222.4 52.766 1.9 0 49.03-29.2 143.3-29.2v639.891c-10.37 1.887-81.09 9.434-116.91 9.434h-29.2V175.293zm318.65-151.727S4705.6 0 4831.89 0c119.69 0 270.47 40.52 270.47 202.605 0 105.571-78.22 150.801-205.45 196.973-68.79 25.449-127.23 48.07-127.23 95.195 0 22.61 16.98 66.899 104.61 66.899 81.99 0 165.88-37.688 165.88-37.688l36.76 108.371c-24.53 12.254-104.63 46.192-215.82 46.192-120.63 0-238.44-64.094-238.44-193.203 0-132.895 120.63-173.41 214.86-204.516 64.11-21.668 117.82-44.297 117.82-86.695 0-41.445-22.62-77.278-131-77.278-88.59 0-182.83 19.786-182.83 19.786l-26.39-113.075zM2574.68 552.258c23.56 4.707 69.75 11.308 115.92 11.308 105.55 0 188.5-59.375 188.5-219.601 0-155.496-40.55-228.992-201.68-228.992-51.84 0-102.74 7.539-102.74 7.539v429.746zm122.52 126.289c-82.93 0-197.91-14.141-268.59-39.582V19.797C2487.05 7.527 2596.38 0 2672.71 0c260.1 0 360.94 101.785 360.94 343.965 0 209.226-128.19 334.582-336.45 334.582" style="fill:#1b69bc;fill-opacity:1;fill-rule:nonzero;stroke:none"/></g></svg>