<svg xmlns="http://www.w3.org/2000/svg" id="Layer_1" data-name="Layer 1" viewBox="0 0 360 166.755"><defs><style>.cls-1{fill:none}.cls-3{fill:#fefefe}</style></defs><g id="g984"><g id="g948"><path id="path4" d="M288.507 69.539a14.699 14.699 0 1 0-14.546 14.778 14.615 14.615 0 0 0 14.546-14.778Z" class="cls-1"/><path id="path6" d="M187.278 55.315a15.169 15.169 0 0 0-15.03 14.456c-.214 7.936 6.324 14.439 14.672 14.546 8.294.108 14.492-5.822 14.581-13.99a14.51 14.51 0 0 0-14.223-15.012Z" class="cls-1"/><path id="path8" d="M330.532 55.244a14.54 14.54 0 1 0 14.85 14.527 14.61 14.61 0 0 0-14.85-14.527Z" class="cls-1"/><path id="path16" d="M280.41 44.639a26.227 26.227 0 0 0-28.93 11.626 26.047 26.047 0 0 0 33.605 36.92c1.04-.484 1.917-1.56 3.278-1.093.287 5.57-.448 8.634-2.83 11.75-6.503 8.51-18.505 7.632-24.613-1.808q-3.6-5.563-8.204-3.01c-3.243 1.81-3.852 4.998-1.613 8.885a26.2 26.2 0 0 0 13.92 11.68c1.056.394.913.394 2.525 1.003 1.845.716 7.524.895 10.157.412a24.403 24.403 0 0 0 3.35-.95 26.11 26.11 0 0 0 18.916-24.38c.197-8.939.233-17.877-.017-26.816a25.975 25.975 0 0 0-19.544-24.22Zm-21.317 25.168a14.699 14.699 0 1 1 14.85 14.528 14.668 14.668 0 0 1-14.85-14.528Z"/><path id="path18" d="M355.628 62.087c-3.94-12.182-16.068-19.92-28.482-18.093a26.036 26.036 0 1 0 28.16 34.573 23.779 23.779 0 0 0 1.594-5.571 28.412 28.412 0 0 0-.322-7.578 34.355 34.355 0 0 0-.95-3.331Zm-25.096 22.248a14.54 14.54 0 1 1 14.832-14.546 14.657 14.657 0 0 1-14.832 14.546Z"/><path id="path24" d="M212.231 64.236a25.472 25.472 0 0 0-32.87-19.06 26.029 26.029 0 0 0-16.553 34.699c5.607 13.65 22.589 19.901 35.97 13.22 1.577-.788 2.759-1.935 4.282.43a4.837 4.837 0 0 0 6.233 1.737 5.346 5.346 0 0 0 3.53-5.481c-.018-3.708 0-7.416 0-12.074-.233-3.87.483-8.724-.592-13.47ZM186.92 84.335c-8.348-.107-14.904-6.61-14.671-14.546a15.181 15.181 0 0 1 15.029-14.456A14.51 14.51 0 0 1 201.5 70.345c-.09 8.15-6.287 14.098-14.581 13.99Z"/><path id="path26" d="M249.384 49.1c-.287-3.745-3.44-5.661-8.33-5.124a26.127 26.127 0 0 0-23.108 21.317c-.86 4.478-.197 9.046-.394 12.808 0 4.049-.018 7.345 0 10.64.035 4.533 2.042 7.04 5.624 7.077 3.583.053 5.769-2.49 5.822-6.95.054-6.306-.053-12.63.036-18.935.108-7.882 5.571-14.152 13.364-14.474 4.621-.197 7.219-3.26 6.986-6.36Z" style="fill:#010101"/></g><g id="g939"><path id="path10" d="M56.487 132.748c.014 0 .028.042.028.125l.042 1.739c.083-.445.167-.89.264-1.35-.07-.848-.737-.417-.334-.514Z" class="cls-3"/><path id="path12" d="M92.982 85.182c-.014.014-.041.014-.055.028.014.014.041.028.055.042-.014-.014 0-.042 0-.07Z" class="cls-3"/><path id="path14" d="M69.992 26.796v.014h.042c-.014 0-.028-.014-.042-.014Z" class="cls-3"/><path id="path20" d="M89.533 144.055c.18-2.016.084-4.06.334-6.064.556-4.409.028-8.915 1.182-13.268.57-2.253-1.252-4.896 1.085-6.87l-.584-1.92a3.466 3.466 0 0 1 .07-3.199 60.666 60.666 0 0 1 .695-11.557c.208-5.313.43-10.626.64-15.953-.014-.014-.042-.028-.056-.042-11.363 5.216-22.072-2.086-23.894-10.848-1.196-5.758-.557-11.196 3.936-15.591.75-.737 1.39-1.586 2.086-2.392 1.836-11.002.556-21.099-8.846-28.971 1.405-.807 2.67-.348 3.811-.556v-.014c-11.53-2.893-25.521 4.993-30.153 17.037a26.515 26.515 0 0 0-1.905 11.224c11.432-5.299 21.683 1.03 24.506 10.668 2.935 10.028-4.882 20.64-15.271 20.792a29.167 29.167 0 0 1-8.776-1.307q.313 8.303.64 16.606a68.127 68.127 0 0 1 .653 10.904l.084 2.587-.084 1.725a64.683 64.683 0 0 1 1.294 10.612 1.968 1.968 0 0 1-.056-.278c.014.097.042.18.056.278.278 6.05.445 12.114.876 18.164.18 2.503-.723 3.755-3.032 4.395-2.726.765-5.41 1.683-8.108 2.545a66.363 66.363 0 0 0 10.737.473c3.852-.084 5.605-1.794 5.98-5.619.237-2.434.445-4.868.668-7.302l.75-13.24h.543v12.587c.07 1.905.098 3.824.223 5.73.556 8.887.82 8.831-8.04 10.626a3.08 3.08 0 0 0-.583.25c.528.348 1.057.695 1.585 1.057a.557.557 0 0 1 .39.264c2.114.014 4.242.195 6.328 0 3.797-.361 5.59-2.392 5.87-6.161.166-2.42.416-4.84.625-7.26a32.792 32.792 0 0 1 .75-9.527l-.04-1.739c0-.083-.029-.139-.029-.125-.403.097.265-.334.334.515.07-.376.153-.751.223-1.127v14.576c.041 1.71.097 3.407.125 5.118.07 6.19-.32 6.745-6.217 8.512-1.627.487-3.324.779-4.937 1.321-1.169.403-2.657.18-3.756 1.558 4.799-.181 9.291.361 13.756-.362 4.617-.75 6.453-2.615 7.399-7.12.695-3.311.987-6.718 2.253-10.07a4.222 4.222 0 0 1 .361.723c.64 3.13 1.28 6.272 1.892 9.402.862 4.38 2.642 6.245 7.093 7.023 4.604.793 9.263.25 14.033.362-.681-1.168-1.752-.974-2.614-1.224-2.963-.862-5.98-1.6-8.888-2.6-2.114-.738-3.63-2.087-3.602-4.688.07-7.12.028-14.242.028-21.363h.862c.306 4.465.668 8.915.904 13.38.543 10.32 1.767 11.446 12.128 10.876.584-.973 2.017-.208 2.56-1.252-2.49-.013-4.66-1.21-6.941-1.975a2.94 2.94 0 0 1-1.975-3.004c.111-7.315-.167-14.659.82-21.947.599 6.12 1.072 12.253 1.544 18.373.223 2.865 1.516 5.104 4.52 5.299 4.062.278 8.137.07 12.212.07a43.026 43.026 0 0 0-6.565-2.42c-4.979-1.6-4.951-1.614-4.492-6.676ZM58.212 39.703a3.734 3.734 0 0 1-3.7 3.7c-2.183.04-3.824-1.21-3.866-4.048a3.596 3.596 0 0 1 3.839-3.519c2.6-.042 3.769 1.71 3.727 3.867Zm16.718 60.834c.013 5.633-4.298 10.542-9.222 10.528-4.645-.014-9.388-5.494-9.22-10.667-.251-1.53-.515-3.074-.863-5.216 3.324 2.267 6.12 4.59 9.86 4.673 3.826.07 6.83-1.891 9.96-4.186.667 1.836-1.016 3.268-.515 4.868Z" style="fill:#fe733e"/><path id="path22" d="M39.7 112.72c-.278-.097-.542-.222-.806-.32a37.078 37.078 0 0 1-10.167-6.606C17.684 96.253 10.396 84.306 8.63 69.814c-2.003-16.468 1.682-31.67 12.67-44.729C31.328 13.18 44.11 6.24 59.366 4.64 76.32 2.874 91.55 7.617 104.373 19.327a56.067 56.067 0 0 1 18.54 36.092 54.778 54.778 0 0 1-7.052 34.464c-5.66 9.666-13.199 17.51-23.393 22.476-.278.139-.557.278-.835.403a3.426 3.426 0 0 0-.07 3.199 4.409 4.409 0 0 1 .724-.626c15.396-8.15 26.078-20.264 31.07-37.12.432-1.433 1.1-2.143 2.699-1.976 2.17.223 2.754-1.224 2.754-3.032q.02-10.41.013-20.806c0-1.488-.361-3.13-1.905-3.297-2.837-.333-3.185-2.406-3.755-4.422a55.243 55.243 0 0 0-19.305-28.999C84.248.287 62.718-2.495 40.131 7.91 23.344 15.628 12.65 29.02 7.81 46.949c-.306 1.112-.167 2.434-2.059 2.044-2.698-.556-3.713 1.03-3.727 3.422-.042 6.94-.014 13.866-.014 20.806 0 2.309 1.168 3.533 3.394 2.99 2.044-.5 2.531.515 2.948 2.073a54.912 54.912 0 0 0 8.915 18.275c5.98 8.108 13.269 14.617 22.531 18.762-.027-.862-.055-1.738-.097-2.6Z" style="fill:#b5d2f3"/><path id="path28" d="M39.714 117.032c-2.058 5.772-7.538 5.633-12.197 7.079 3.505.904 7.065 1.947 10.57 1.35 2.086-.362 2.49.389 2.795 1.626.028.098.042.195.07.292.014.084.042.181.056.279a64.852 64.852 0 0 0-1.294-10.626Z" style="fill:#fe684b"/><path id="path30" d="M91.05 124.737c4.45 2.017 8.65-.014 12.948-.598-4.2-1.78-9.639-.862-11.85-6.273-2.35 1.975-.529 4.618-1.099 6.87Z" style="fill:#fe6446"/><path id="path32" d="M57.044 132.136c-.07.376-.153.751-.223 1.127-.083.445-.18.89-.264 1.349a32.793 32.793 0 0 0-.751 9.527c1.043.542.278 1.975 1.238 2.559Z" style="fill:#fed6c8"/><path id="path34" d="m48.88 127.046-.751 13.24c.43-.222.862-.431 1.293-.654v-12.586Z" style="fill:#feebe3"/><path id="path36" d="M35.806 157.56h7.177c-.126-.083-.265-.167-.39-.264-.528-.348-1.057-.696-1.585-1.057a10.03 10.03 0 0 0-5.202 1.321Z" style="fill:#fe9166"/><path id="path38" d="M87.85 157.56h6.982a6.624 6.624 0 0 0-4.423-1.252c-.542 1.057-1.989.278-2.559 1.252Z" style="fill:#fe8f64"/><path id="path40" d="M92.482 112.345c10.194-4.952 17.719-12.796 23.393-22.476a54.778 54.778 0 0 0 7.051-34.464 55.939 55.939 0 0 0-18.539-36.092C91.564 7.617 76.334 2.86 59.38 4.64c-15.243 1.586-28.039 8.54-38.066 20.445C10.312 38.145 6.64 53.346 8.644 69.814c1.766 14.506 9.054 26.439 20.097 35.98a37.175 37.175 0 0 0 10.167 6.606c.264.112.528.223.806.32a68.13 68.13 0 0 0-.653-10.904 31.06 31.06 0 0 1-.835-.598 62.341 62.341 0 0 1-7.677-7.037c-.737-.751-1.655-1.391-1.655-2.615-1.641 1.182-2.824.362-3.783-.946a44.272 44.272 0 0 1-8.999-24.464c-.39-8.04.334-15.855 3.714-23.38a49.152 49.152 0 0 1 19.777-22.28c1.502-.918 2.364-.098 3.407.584a3.506 3.506 0 0 0 2.573-1.28l-.125-.292c-.89-1.878-.932-4.006 1.21-4.506 2.156-.515 3.38 1.238 3.394 3.505 16.092-5.285 31.057-3.144 44.561 7.162 10.098 7.705 15.884 18.04 17.65 30.64 2.28 16.203-3.199 29.638-14.492 41.001a19.353 19.353 0 0 1-4.534 3.45c-.292.152-.585.291-.877.43a60.665 60.665 0 0 0-.695 11.558c.25-.125.515-.264.807-.403Z" style="fill:#e2f5fc"/><path id="path42" d="M97.753 97.324c11.28-11.363 16.76-24.798 14.492-41.001-1.766-12.615-7.552-22.949-17.65-30.64-13.504-10.306-28.483-12.434-44.561-7.162-.028.013-.056.041-.083.055-1.266.807-2.254 2.545-4.076 1.46-.11-.07-.208-.125-.32-.208a3.482 3.482 0 0 1-2.572 1.28c-.042.166-.098.32-.153.486-1.155 3.24-4.618 4.09-6.94 6.036a44.41 44.41 0 0 0-13.728 19.235c-4.423 12.323-3.519 24.395 2.406 36.05a38.285 38.285 0 0 0 3.408 5.396 4.544 4.544 0 0 1 .89 3.241v.042c0 1.21.918 1.863 1.655 2.614a63.365 63.365 0 0 0 7.677 7.038c.278.195.556.403.835.598q-.313-8.303-.64-16.606c-.014 0-.014-.014-.028-.014-4.812-3.157-8.345-7.19-8.957-13.199-.765-7.413 2.35-12.893 8.415-16.884.027-.014.055-.042.083-.056a26.442 26.442 0 0 1 1.906-11.224c4.63-12.03 18.623-19.93 30.152-17.037a.052.052 0 0 1 .042.013c7.65 1.238 13.936 4.73 18.442 11.14a26.277 26.277 0 0 1 5.077 17.108c4.339 3.296 7.844 7.162 8.414 12.879.765 7.69-2.517 13.31-8.985 17.232v.07c-.208 5.312-.43 10.625-.64 15.952.307-.14.599-.278.877-.431a18.645 18.645 0 0 0 4.562-3.463Z" style="fill:#cdecf6"/><path id="path44" d="M79.019 54.46c4.77-2.351 9.401-1.086 14.005.43.167.056.348.112.515.167a26.23 26.23 0 0 0-5.077-17.107C83.956 31.54 77.67 28.048 70.02 26.81h-.042c-1.14.222-2.406-.25-3.81.556 9.401 7.872 10.695 17.97 8.845 28.97.292-.138.57-.264.862-.403 1.071-.486 2.114-.96 3.144-1.474Z" style="fill:#fe6b3c"/><path id="path46" d="M101.967 67.95c-.57-5.716-4.075-9.583-8.414-12.879-.167-.056-.348-.111-.515-.167-4.618-1.516-9.235-2.781-14.006-.431-1.029.515-2.086 1.001-3.129 1.488-.292.14-.57.264-.862.404-.696.792-1.335 1.655-2.086 2.392-4.507 4.395-5.132 9.833-3.936 15.59 1.822 8.777 12.53 16.079 23.908 10.877.014-.014.041-.014.055-.028 6.468-3.936 9.764-9.569 8.985-17.246Zm-17.01 15.368a13.186 13.186 0 1 1 13.324-13.004A12.928 12.928 0 0 1 84.957 83.32Z" style="fill:#fe6142"/><path id="path48" d="M37.837 55.113c-6.064 3.991-9.18 9.471-8.415 16.884.612 6.009 4.145 10.042 8.957 13.2.014 0 .014.013.028.013a29.101 29.101 0 0 0 8.776 1.307c10.375-.153 18.206-10.75 15.27-20.792-2.822-9.639-13.087-15.967-24.505-10.668a.406.406 0 0 0-.111.056Zm8.289 28.206a13.248 13.248 0 1 1-.195-26.496 13.249 13.249 0 1 1 .195 26.495Z" style="fill:#fe6143"/><path id="path50" d="M58.24 101.622c-.515-.515-.89-1.21-1.753-1.224-.167 5.173 4.562 10.653 9.221 10.667 4.938.014 9.235-4.895 9.222-10.528-1.864.96-3.046 2.934-5.188 3.518-4.27 1.169-8.192.877-11.502-2.433Z" style="fill:#070909"/><path id="path52" d="M75.444 95.669c-3.13 2.295-6.12 4.256-9.958 4.186-3.755-.07-6.537-2.406-9.86-4.673.36 2.142.611 3.672.861 5.216.863.027 1.238.709 1.753 1.224 3.296 3.31 7.232 3.602 11.502 2.434 2.142-.585 3.324-2.546 5.188-3.52-.501-1.599 1.182-3.031.514-4.867Z" style="fill:#fdfcfb"/><path id="path54" d="M54.485 35.85a3.564 3.564 0 0 0-3.839 3.519c.042 2.837 1.683 4.075 3.866 4.047a3.734 3.734 0 0 0 3.7-3.7c.042-2.17-1.127-3.922-3.727-3.866Z" style="fill:#fea777"/><path id="path56" d="M28.866 91.538a4.544 4.544 0 0 0-.89-3.24 39.59 39.59 0 0 1-3.408-5.397c-5.925-11.655-6.843-23.727-2.406-36.05A44.41 44.41 0 0 1 35.89 27.616c2.323-1.947 5.786-2.781 6.94-6.036a4.983 4.983 0 0 0 .154-.486c-1.044-.682-1.906-1.503-3.408-.585A49.152 49.152 0 0 0 19.798 42.79c-3.38 7.525-4.103 15.34-3.714 23.38a44.417 44.417 0 0 0 8.999 24.464c.96 1.308 2.156 2.128 3.783.946Z" style="fill:#fdfefe"/><path id="path58" d="M49.937 18.576c.027-.014.055-.042.083-.055-.028-2.267-1.238-4.02-3.393-3.505-2.142.514-2.1 2.642-1.21 4.506l.125.292a3.088 3.088 0 0 0 .32.209c1.822 1.098 2.81-.654 4.075-1.447Z" style="fill:#fbfdfe"/><path id="path60" d="M98.281 70.328a13.006 13.006 0 0 0-13.004-13.365 13.186 13.186 0 1 0-.32 26.37 12.945 12.945 0 0 0 13.324-13.005Zm-12.67 1.447a3.81 3.81 0 0 1-4.186-3.839 4.036 4.036 0 0 1 4.13-4.284c2.448.181 3.825 1.614 4.117 4.173-.334 2.28-1.502 3.908-4.061 3.95Z" class="cls-3"/><path id="path62" d="M45.931 56.837a13.248 13.248 0 1 0 .195 26.495 13.249 13.249 0 1 0-.195-26.495Zm.014 14.938a3.812 3.812 0 0 1-4.159-3.88 4.02 4.02 0 0 1 4.187-4.229 4.118 4.118 0 0 1 4.061 4.173c-.306 2.35-1.586 3.908-4.089 3.936Z" class="cls-3"/><path id="path64" d="M85.555 63.652a4.02 4.02 0 0 0-4.13 4.284 3.803 3.803 0 0 0 4.186 3.839c2.545-.042 3.727-1.67 4.061-3.95-.292-2.56-1.669-3.992-4.117-4.173Z" style="fill:#090b0b"/><path id="path66" d="M45.973 63.666a4.02 4.02 0 0 0-4.187 4.228 3.812 3.812 0 0 0 4.159 3.88c2.503-.027 3.783-1.585 4.089-3.935-.236-2.573-1.655-3.978-4.061-4.173Z" style="fill:#090c0c"/></g></g></svg>