<svg xmlns="http://www.w3.org/2000/svg" data-name="Layer 1" viewBox="0 0 1503.96 425.2"><path d="M1011.31 157.74h56.09v205.42h-56.09zM931.86 157.74l-54.89 149.45-54.89-149.45h-56.06l75.49 205.42h70.92l75.47-205.42h-56.04zM1265.35 202.96v-45.22h-67.14v-56.66h-56v56.66h-44.38v45.22h44.34v88.37c0 45.6 22.83 76 81 76 22.5 0 42.21-8.2 42.21-8.2l-6.79-44.38a96.43 96.43 0 0 1-24.61 3.27c-16.63 0-35.74-7.13-35.74-30.17v-84.89ZM724.29 363.16h59.67L673.43 62.28h-43.26L519.64 363.16h59.68l21.08-57.41h102.74ZM617.03 260.41l34.79-94.57 34.74 94.57ZM1393.9 152.48c-60.74 0-110 48.23-110 107.63s49.28 107.62 110 107.62 110.05-48.2 110.05-107.62-49.34-107.63-110.05-107.63m0 163.71c-31.22 0-56.56-24.78-56.56-55.32s25.34-55.35 56.56-55.35 56.56 24.79 56.56 55.35-25.28 55.32-56.56 55.32M1075.53 97.57a36.15 36.15 0 1 1-36.13-36.13 36.14 36.14 0 0 1 36.13 36.13"/><path d="M299.85 180.47A94.44 94.44 0 1 1 205.42 86a94.45 94.45 0 0 1 94.43 94.43" style="fill:#0af" transform="translate(-110.97 -86.04)"/><path d="M536.18 396.35a114.89 114.89 0 1 1-114.92-114.9 114.91 114.91 0 0 1 114.92 114.9" style="fill:#97cf26" transform="translate(-110.97 -86.04)"/><path d="M495.24 180.47a74 74 0 1 1-74-73.94 74 74 0 0 1 74 73.94" style="fill:#ff6163" transform="translate(-110.97 -86.04)"/><path d="M258.93 396.35a53.51 53.51 0 1 1-53.51-53.46 53.48 53.48 0 0 1 53.51 53.46" style="fill:#a169f7" transform="translate(-110.97 -86.04)"/></svg>