<svg xmlns="http://www.w3.org/2000/svg" xml:space="preserve" id="Layer_1" x="0" y="0" style="enable-background:new 0 0 700 302.88" version="1.1" viewBox="0 0 700 302.88"><style>.st0{fill-rule:evenodd;clip-rule:evenodd;fill:#5fa9e2}.st1{fill:#732281}</style><path d="M76.6 144.8c-.19-1.14-.28-2.29-.28-3.44s.1-2.31.28-3.44c1.67-10.05 10.4-17.42 20.58-17.42 5.55 0 10.83 2.18 14.75 6.11l1.59 1.59c.27.27.71.27.98 0l8.72-8.72c.27-.27.27-.71 0-.98l-1.59-1.59a34.466 34.466 0 0 0-24.45-10.13c-17.43 0-32.18 13-34.32 30.3a34.03 34.03 0 0 0-.26 4.28c0 1.43.09 2.86.26 4.28 2.14 17.3 16.9 30.3 34.32 30.3 9.2 0 17.95-3.62 24.45-10.13l1.59-1.59c.27-.27.27-.71 0-.98l-8.72-8.72a.694.694 0 0 0-.98 0l-1.59 1.59c-3.93 3.93-9.2 6.11-14.75 6.11-10.18.01-18.92-7.37-20.58-17.42zM387.1 160.91l34.62-50.87a.67.67 0 0 0 .04-.72.663.663 0 0 0-.61-.37h-58.5c-.38 0-.7.31-.7.7v12.39c0 .38.31.7.7.7h32.24c.31 0 .57.16.72.43.14.27.13.58-.05.83l-34.62 50.87a.67.67 0 0 0-.04.72c.13.24.34.37.62.37h58.5c.38 0 .7-.31.7-.7v-12.39c0-.38-.31-.7-.7-.7h-32.24c-.31 0-.57-.16-.72-.43a.778.778 0 0 1 .04-.83zM178.14 107.04c-17.3 2.14-30.3 16.9-30.3 34.32s13 32.18 30.3 34.32c1.42.18 2.85.26 4.28.26 1.43 0 2.86-.09 4.28-.26 17.3-2.14 30.3-16.9 30.3-34.32s-13-32.18-30.3-34.32a34.03 34.03 0 0 0-4.28-.26c-1.43 0-2.86.09-4.28.26zm7.99 13.79c9.92 1.77 17.15 10.46 17.15 20.53 0 10.18-7.37 18.91-17.42 20.58-1.14.19-2.29.28-3.44.28s-2.31-.1-3.44-.28l-.29-.05c-9.92-1.78-17.13-10.47-17.13-20.53 0-10.18 7.37-18.91 17.42-20.58 1.14-.19 2.29-.28 3.44-.28s2.3.09 3.44.28l.27.05zM454.3 107.04c-17.3 2.14-30.3 16.9-30.3 34.32s13 32.18 30.3 34.32c1.42.18 2.85.26 4.28.26 1.43 0 2.86-.09 4.28-.26 17.3-2.14 30.3-16.9 30.3-34.32s-13-32.18-30.3-34.32a34.03 34.03 0 0 0-4.28-.26c-1.43 0-2.86.09-4.28.26zm8 13.79c9.92 1.77 17.15 10.46 17.15 20.53 0 10.18-7.37 18.91-17.42 20.58-1.14.19-2.29.28-3.44.28s-2.31-.1-3.44-.28l-.29-.05c-9.92-1.78-17.13-10.47-17.13-20.53 0-10.18 7.37-18.91 17.42-20.58 1.14-.19 2.29-.28 3.44-.28s2.3.09 3.44.28l.27.05zM534.33 123.03c6.82 1.53 11.73 7.65 11.73 14.64v37.58c0 .38.31.7.7.7h12.33c.38 0 .7-.31.7-.7v-37.57c0-14.12-10.41-26.24-24.36-28.39a29.124 29.124 0 0 0-8.74 0c-13.95 2.15-24.36 14.27-24.36 28.39v37.57c0 .38.31.7.7.7h12.33c.38 0 .7-.31.7-.7v-37.58c0-6.99 4.91-13.11 11.73-14.64 1.08-.24 2.18-.36 3.28-.36s2.18.12 3.26.36zM129.08 89.6c-.38 0-.7.31-.7.7v84.95c0 .38.31.7.7.7h12.33c.38 0 .7-.31.7-.7V90.3c0-.38-.31-.7-.7-.7h-12.33zM617.58 156.12c-2.27 2.27-5 3.96-7.96 4.98-.06.02-.13.04-.19.06-2.07.69-4.29 1.06-6.6 1.06-4.82 0-9.38-1.67-13-4.55-2.72-2.16-4.91-5-6.28-8.34a.689.689 0 0 0-.03-.08c-1-2.44-1.55-5.1-1.55-7.9 0-2.8.55-5.46 1.55-7.9.01-.03.02-.05.03-.08 1.37-3.31 3.54-6.14 6.23-8.29 0 0 .01 0 .01-.01a20.76 20.76 0 0 1 13.05-4.59c4.84 0 9.42 1.68 13.05 4.59a20.77 20.77 0 0 1 6.24 8.3c.01.03.02.05.03.08.14.34.27.69.39 1.04H589.22c-.75 2.15-1.15 4.46-1.15 6.86 0 2.4.41 4.71 1.15 6.86h47c.36 0 .65-.26.69-.61l.24-1.97c.18-1.42.26-2.85.26-4.28s-.09-2.86-.26-4.28c-2.14-17.3-16.9-30.3-34.32-30.3-17.43 0-32.18 13-34.32 30.3-.18 1.42-.26 2.85-.26 4.28s.09 2.86.26 4.28c2.14 17.3 16.9 30.3 34.32 30.3 9.2 0 17.95-3.62 24.45-10.13l1.59-1.59c.27-.27.27-.71 0-.98l-8.72-8.72a.694.694 0 0 0-.98 0l-1.59 1.61z" class="st0"/><path d="M86.89 208.69c0 1.84-.26 3.49-.78 4.96-.52 1.47-1.22 2.7-2.09 3.7-.93 1.03-1.96 1.81-3.07 2.33-1.11.51-2.34.77-3.68.77-1.25 0-2.33-.15-3.27-.44-.93-.29-1.85-.69-2.76-1.19l-.23 1.02h-3.46v-30.62h3.7v10.94c1.04-.85 2.14-1.55 3.31-2.09 1.17-.55 2.48-.82 3.93-.82 2.6 0 4.65 1 6.15 2.99 1.49 2 2.25 4.82 2.25 8.45m-3.82.1c0-2.62-.43-4.61-1.3-5.97-.87-1.36-2.26-2.04-4.19-2.04-1.08 0-2.17.24-3.27.7-1.1.47-2.13 1.07-3.07 1.8v12.59c1.05.47 1.95.8 2.71.98.75.18 1.61.28 2.57.28 2.05 0 3.65-.67 4.81-2.02 1.16-1.34 1.74-3.45 1.74-6.32M111.96 197.87l-12.83 30.09h-3.95l4.09-9.17-8.76-20.92h4.02l6.75 16.29 6.81-16.29zM158.44 203.09c0 .41-.03.84-.09 1.31-.06.47-.15.97-.26 1.48l-3.34 14.38h-7.19l2.57-11.03c.17-.76.33-1.49.47-2.19.14-.7.21-1.26.21-1.69 0-.76-.21-1.31-.63-1.67-.42-.35-1.16-.53-2.23-.53-.51 0-1.09.12-1.73.37-.65.24-1.43.6-2.34 1.09l-3.61 15.66h-7.19l2.57-11.03c.15-.64.29-1.34.43-2.09.15-.75.22-1.32.22-1.71 0-.8-.2-1.38-.6-1.74-.4-.36-1.14-.54-2.23-.54-.57 0-1.18.13-1.85.39-.67.27-1.42.62-2.26 1.06l-3.61 15.66h-7.13l5.12-22.09h7.13l-.57 2.44c1.44-.96 2.74-1.71 3.9-2.25 1.16-.54 2.41-.81 3.76-.81 1.45 0 2.68.32 3.67.97 1 .65 1.69 1.61 2.08 2.87 1.76-1.27 3.33-2.23 4.72-2.88 1.39-.64 2.73-.97 4.03-.97 1.94 0 3.42.48 4.44 1.44 1.03.97 1.54 2.33 1.54 4.1M175.6 217.93c-.45.29-.98.64-1.61 1.05-.63.41-1.21.73-1.75.97-.73.31-1.43.53-2.07.69-.64.16-1.53.24-2.68.24-1.84 0-3.34-.52-4.5-1.55-1.16-1.03-1.74-2.37-1.74-4.03 0-1.75.41-3.23 1.23-4.44.83-1.21 2.05-2.18 3.68-2.91 1.52-.68 3.33-1.18 5.43-1.48s4.38-.52 6.83-.67c.02-.08.04-.21.09-.39.04-.18.06-.38.06-.6 0-.93-.43-1.58-1.3-1.96-.87-.37-2.15-.56-3.87-.56-1.17 0-2.45.2-3.87.59-1.41.39-2.47.72-3.18.98h-.65l1.04-5.23c.82-.21 2.11-.45 3.84-.71 1.73-.26 3.46-.39 5.18-.39 3.46 0 6 .45 7.62 1.36 1.62.91 2.43 2.31 2.43 4.21 0 .26-.02.6-.07 1.02-.05.42-.11.79-.18 1.1l-3.46 15.03h-7.05l.55-2.32zm1.88-8.09c-1.26.11-2.45.23-3.56.38-1.11.15-2.05.35-2.83.63-.81.29-1.42.69-1.84 1.22-.42.52-.63 1.22-.63 2.08 0 .76.28 1.29.84 1.6.56.31 1.38.47 2.45.47.7 0 1.45-.16 2.25-.48.8-.32 1.55-.73 2.24-1.23l1.08-4.67zM197.46 220.7c-2.46 0-4.2-.4-5.25-1.21-1.05-.81-1.57-2.01-1.57-3.59 0-.42.03-.82.1-1.22s.15-.85.26-1.38l2.42-10.47h-2.93l1.09-4.66h2.92l1.46-6.32h7.11l-1.45 6.32h6.63l-1.08 4.66h-6.62l-1.85 7.97c-.13.55-.26 1.11-.38 1.66-.12.56-.18 1.03-.18 1.42 0 .79.22 1.34.66 1.65.44.31 1.12.46 2.03.46.37 0 .85-.07 1.45-.21.6-.14 1.07-.29 1.42-.46h.59l-1.1 4.74c-.8.2-1.64.35-2.53.47-.91.11-1.97.17-3.2.17M227.34 204.92h-.63c-.31-.11-.76-.18-1.34-.24-.58-.05-1.14-.08-1.71-.08-.93 0-1.83.07-2.69.21s-1.75.35-2.67.66l-3.43 14.8h-7.13l5.13-22.09H220l-.76 3.24c1.34-.98 2.67-1.78 4-2.4 1.33-.62 2.67-.92 4.02-.92.25 0 .53 0 .83.02.3.01.58.03.82.06l-1.57 6.74zM240.43 198.17l-5.13 22.09h-7.13l5.13-22.09h7.13zm2.16-8.52-1.24 5.37h-7.51l1.24-5.37h7.51zM250.98 209.03l-6.21-10.86h7.63l3.52 6.74 6.35-6.74h8.2l-11.32 11.08 6.3 11.01h-7.64l-3.55-6.79-6.58 6.79h-8.17z" class="st1"/><path d="M341.36 96.04v45.32c0 10.18-7.37 18.91-17.42 20.58-1.14.19-2.29.28-3.44.28s-2.31-.1-3.44-.28l-.29-.05c-9.92-1.78-17.13-10.47-17.13-20.53 0-10.18 7.37-18.91 17.42-20.58 1.14-.19 2.29-.28 3.44-.28s2.3.09 3.44.28l.27.05c3.23.58 6.27 1.92 8.89 3.9.22.17.48.19.73.07s.39-.34.39-.62v-14.11c0-.29-.16-.53-.43-.64-2.88-1.2-5.91-2-9-2.38a34.03 34.03 0 0 0-4.28-.26c-1.43 0-2.86.09-4.28.26-17.3 2.14-30.3 16.9-30.3 34.32s13 32.18 30.3 34.32c1.42.18 2.85.26 4.28.26 1.43 0 2.86-.09 4.28-.26 17.3-2.14 30.3-16.9 30.3-34.32V96.04h-13.73zM355.09 91.02v-16.1h-7.64a6.51 6.51 0 0 0-6.51 6.51v9.59h14.15zM247.26 175.65c.04 0 .08 0 .12.01 1.35.2 2.72.29 4.09.29 1.46 0 2.93-.11 4.37-.33 13.95-2.15 24.36-14.27 24.36-28.39v-37.57c0-.38-.31-.7-.7-.7h-12.33c-.38 0-.7.31-.7.7v37.58c0 6.99-4.91 13.11-11.73 14.64-.69.16-1.4.24-2.1.3-.1.01-.2.01-.3.02-.29.02-.58.05-.87.05h-.17c-.04 0-.08-.01-.12-.01-.13 0-.25 0-.38-.01-.02 0-.03-.01-.05-.01a13.94 13.94 0 0 1-5.32-1.25c-.02-.01-.03-.01-.05-.02-.17-.08-.34-.16-.5-.25-5.04-2.49-8.42-7.68-8.42-13.46v-37.58c0-.38-.31-.7-.7-.7h-12.33c-.38 0-.7.31-.7.7v37.57c0 13.04 8.92 24.54 21.53 27.81.01-.01 1.07.29 3 .61z" class="st0"/></svg>