<svg xmlns="http://www.w3.org/2000/svg" fill="none" class="inline-block align-middle h-auto" viewBox="0 0 160 26"><path fill="#19B99A" d="M21.088 7.595a13.276 13.276 0 0 1 2.936 11.235c4.162-1.66 5.776-4.443 6.268-7.227 0 0 1.418-5.274 3.624-7.467-4.358.684-4.798-1.026-12.828 3.463"/><path fill="#19B99A" d="M14.421 12.986a17.733 17.733 0 0 0-4.382-7.127s6.06 1.593 9.55 12.904c-3.292-.994-4.697-4.243-5.174-5.777h.006Zm7.498 7.402c.098-.541 1.704-6.013-1.478-10.456C15.114 4.028 7.084 3.199 7.084 3.199c1.567 3.03 1.617 5.859 3.329 11.627 2.074 5.971 9.728 6.373 10.296 6.384.514.812 1.692 1.905 4.39 2.47l.299-1.422c-2.328-.487-3.18-1.383-3.472-1.877"/><path fill="#0A2540" d="M7.943 1.46C4.557 3.057 3.2 6.95 3.2 12.903c0 5.843 1.356 9.76 4.744 11.47l-.38 1.462C2.36 24.009 0 19.953 0 12.925 0 5.844 2.36 1.785 7.563 0l.38 1.46ZM33.02 0c5.208 1.783 7.561 5.844 7.561 12.923 0 7.034-2.359 11.086-7.563 12.895l-.406-1.458c3.39-1.704 4.744-5.628 4.744-11.471 0-5.952-1.355-9.842-4.744-11.437L33.02 0ZM56.095 19.163c-1.57.603-3.243.892-4.924.85-4.141 0-6.131-1.794-5.49-6.326.59-4.274 2.224-6.021 6.557-6.021 1.703-.028 3.395.26 4.992.85l-.588 2.62-3.858-.024c-1.752 0-2.344.59-2.629 2.714-.308 2.337.096 2.761 1.8 2.761 1.28.008 2.56-.055 3.834-.188l.306 2.764ZM63.01 14.04c-.332 2.409-.12 2.974 1.421 2.974 1.491 0 1.966-.636 2.344-3.305.378-2.454.12-3.03-1.327-3.03-1.561 0-2.035.588-2.439 3.354v.007Zm8.212.002c-.65 4.415-2.437 5.972-6.944 5.972-4.508 0-6.407-1.7-5.746-6.303.62-4.46 2.416-6.045 6.987-6.045 4.52 0 6.367 1.749 5.705 6.376M80.43 10.423c-1.8 0-2.225.377-2.58 3.093-.284 2.126-.332 2.974.733 2.905a4.424 4.424 0 0 0 2.653-1.227l.637-4.762-1.443-.009Zm4.473 9.307h-3.385l-.047-1.983a7.076 7.076 0 0 1-4.615 2.267c-2.745 0-3.976-1.938-3.386-6.422.65-4.91 2.58-5.926 5.113-5.926 1.27 0 2.538.114 3.788.342-.012-.806.043-1.612.166-2.409l.402-2.38h4.304l-2.34 16.511ZM94.988 12.742c1.066-.096 1.632-.26 1.731-1.275.072-.78-.237-.922-1.422-.898-1.445.023-1.918.448-2.296 2.361l1.987-.188ZM99.7 19.07c-1.72.67-3.555.99-5.4.944-5.017 0-6.384-2.195-5.942-6.303.541-4.885 2.772-6.043 7.007-6.043 4.641 0 5.86 1.535 5.491 4.22-.332 2.198-1.823 2.825-4.932 3.07l-3.197.236c.05 1.253.663 1.489 1.99 1.489 1.04 0 3.255-.12 4.685-.284l.297 2.671Z"/><path fill="#19B99A" d="M110.114 4.677c-1.446 0-2.036.331-2.249 1.84l-.259 1.707h3.571l-.239 1.76h-3.572l-1.562 11.073a3.497 3.497 0 0 1-3.763 3.374 24.112 24.112 0 0 1-2.862-.19l.356-1.702h1.774c1.422 0 2.012-.33 2.228-1.84l1.515-10.713h-2.056l.216-1.653 2.107-.117.285-2.056a3.46 3.46 0 0 1 3.774-3.346 27.84 27.84 0 0 1 3.384.164l-.378 1.71-2.27-.011ZM120.909 10.051h-.65c-1.298 0-2.556.866-4.557 2.338l-1.018 7.341h-2.297l1.632-11.52h1.753l-.119 2.644c1.839-1.887 3.643-2.952 5.208-2.952h.616l-.568 2.149ZM128.886 13.261c1.421-.093 2.035-.493 2.224-1.818.216-1.582-.59-1.623-2.437-1.623-2.341 0-3.147.636-3.644 3.8l3.857-.359Zm3.313 6.093a15.252 15.252 0 0 1-4.761.662c-4.004 0-5.373-2.056-4.807-6.35.617-4.487 2.201-5.762 6.385-5.762 3.787 0 4.711 1.418 4.379 3.732-.378 2.29-1.703 3.116-4.52 3.328l-4.004.355c-.024 2.314 1.065 2.784 2.91 2.784 1.28 0 2.936-.141 4.263-.284l.155 1.535ZM138.542 14.016c-1.656-.779-2.437-1.675-2.225-3.354.261-2.195 1.847-2.814 4.877-2.762 1.656.028 3.307.162 4.946.402l-.285 1.624c-1.466-.046-2.841-.095-4.592-.12-1.895 0-2.604.048-2.723 1.016-.117.866.432 1.11 1.375 1.534l3.125 1.418c1.798.827 2.534 1.558 2.294 3.329-.353 2.62-2.224 2.88-5.469 2.88a29.514 29.514 0 0 1-4.472-.33l.26-1.7c1.066.093 2.556.12 3.622.12 2.913 0 3.67-.237 3.811-1.182.141-.849-.433-.992-1.445-1.463l-3.099-1.412ZM152.369 7.737a24.61 24.61 0 0 1-.568 2.833c2.008-1.77 3.685-2.67 5.345-2.67a2.529 2.529 0 0 1 2.748 3.233l-1.231 8.593h-2.272l1.112-8.026c.19-1.441-.071-1.865-1.065-1.865-1.422 0-2.793.967-4.774 2.525l-1.018 7.36h-2.302l2.343-16.526h2.272l-.59 4.543Z"/></svg>