<svg xmlns="http://www.w3.org/2000/svg" xml:space="preserve" id="Layer_1" x="0" y="0" style="enable-background:new 0 0 332 57" version="1.1" viewBox="0 0 332 57"><style>.st0,.st1{fill-rule:evenodd;clip-rule:evenodd;fill:#1856ed}.st1{fill:#ff9e1a}</style><path d="M230.3 35c-.5-.7-1.1-.9-2-.4-1.3.7-2.9 1.2-4.5 1.2-4.5 0-7.6-3.1-7.6-7.5s3.1-7.5 7.6-7.5c1.5 0 3.2.4 4.5 1.2.9.5 1.5.4 2-.4l.5-.7c.5-.8.4-1.5-.3-2-2-1.3-4.1-1.9-6.6-1.9-3.5 0-6.6 1.2-8.8 3.4-2.1 2.1-3.2 4.9-3.2 8 0 3.1 1.1 5.9 3.2 8 2.2 2.2 5.2 3.4 8.8 3.4 2.6 0 4.7-.6 6.8-2 .6-.5.7-1.1.2-1.9l-.6-.9zM240.9 22.9c-4.8 0-8.6 3.7-8.6 8.3 0 4.7 3.8 8.4 8.6 8.4 4.9 0 8.7-3.7 8.7-8.4-.1-4.6-4-8.3-8.7-8.3zm0 13.1c-2.6 0-4.6-2.1-4.6-4.7 0-2.7 2-4.8 4.6-4.8 2.6 0 4.6 2.1 4.6 4.8-.1 2.6-2.1 4.7-4.6 4.7zM261.3 22.9c-2.3 0-4.1 1-4.9 2.7v-.9c0-.9-.5-1.4-1.4-1.4h-1.4c-.9 0-1.4.5-1.4 1.4v13.2c0 .9.5 1.4 1.4 1.4h1.4c.9 0 1.4-.5 1.4-1.4v-6.4c0-1.7.8-5 4-5 1.7 0 2.7 1.4 2.7 3.8v7.5c0 .9.5 1.4 1.4 1.4h1.4c.9 0 1.4-.5 1.4-1.4v-7.7c0-4.5-2.3-7.2-6-7.2zM298.5 23.2h-1.4c-.9 0-1.4.5-1.4 1.4v.7c-1.2-1.6-3.1-2.5-5.2-2.5-4.5 0-7.8 3.5-7.8 8.3 0 4.8 3.3 8.4 7.8 8.4 2.2 0 4-.9 5.2-2.5v.7c0 .9.5 1.4 1.4 1.4h1.4c.9 0 1.4-.5 1.4-1.4v-13c.1-.9-.5-1.5-1.4-1.5zM291.3 36c-2.6 0-4.4-2-4.4-4.8s1.8-4.8 4.4-4.8c2.6 0 4.5 2 4.5 4.8 0 2.9-1.9 4.8-4.5 4.8zM312 26.5c.5 0 1.6.1 2.7.6.9.4 1.5.3 2-.4l.4-.5c.3-.4.4-.8.3-1.1-.1-.3-.3-.6-.7-.9-1.9-1.1-3.7-1.4-4.9-1.4-5.4 0-9.1 3.5-9.1 8.5 0 4.8 3.8 8.2 9.1 8.2 1.1 0 2.8-.2 4.5-1.1.5-.3.9-.7 1-1.1.1-.4 0-.7-.3-1.1l-.4-.5c-.5-.7-1.1-.8-2-.3-1.2.6-2.5.6-2.7.6-3 0-5.1-2-5.1-4.8 0-2.7 2.2-4.7 5.2-4.7zM331.2 36.5l-1-1.3c-.2-.2-.3-.3-.5-.3s-.4.1-.6.3l-.1.1c-.1.2-.6.6-1.2.7-.2 0-.4.1-.6 0-.9-.1-1.4-.7-1.4-1.9v-7.7h3.8c.5 0 .8-.3.8-.8V24c0-.5-.3-.8-.8-.8h-3.8v-3c0-.9-.5-1.4-1.4-1.4h-1.3c-.9 0-1.4.5-1.4 1.4v2.9h-1.6c-.5 0-.8.3-.8.8v1.6c0 .5.3.8.8.8h1.6V34c0 4.9 3.4 5.6 5.4 5.6.7 0 1.3-.1 1.9-.2.3-.1.6-.2.9-.4.5-.2.8-.5 1.2-.9.2-.2.4-.4.5-.6 0-.3-.1-.7-.4-1zM280.2 35.2c-.2-.2-.3-.3-.5-.3s-.4.1-.6.3l-.1.1c-.1.2-.6.6-1.2.7-.2 0-.4.1-.6 0-.9-.1-1.4-.7-1.4-1.9v-7.7h3.8c.5 0 .8-.3.8-.8V24c0-.5-.3-.8-.8-.8h-3.8v-3c0-.9-.5-1.4-1.4-1.4H273c-.9 0-1.4.5-1.4 1.4v2.9H270c-.5 0-.8.3-.8.8v1.6c0 .5.3.8.8.8h1.6V34c0 4.9 3.4 5.6 5.4 5.6.7 0 1.3-.1 1.9-.2.3-.1.6-.2.9-.4.5-.2.8-.5 1.2-.9.2-.2.4-.4.5-.6.3-.3.2-.7-.1-1.1l-1.2-1.2zM85.9 34.9c-.5-.7-1.1-.9-2-.4-1.3.7-2.9 1.2-4.5 1.2-4.5 0-7.6-3.1-7.6-7.5s3.1-7.5 7.6-7.5c1.5 0 3.2.4 4.5 1.2.9.5 1.5.4 2-.4l.5-.7c.5-.8.4-1.5-.3-2-2-1.3-4.1-1.9-6.6-1.9-3.5 0-6.6 1.2-8.8 3.4-2.1 2.1-3.2 4.9-3.2 8 0 3.1 1.1 5.9 3.2 8 2.2 2.2 5.2 3.4 8.8 3.4 2.6 0 4.7-.6 6.8-2 .6-.5.7-1.1.2-1.9l-.6-.9zM96.5 22.9c-4.8 0-8.6 3.7-8.6 8.3 0 4.7 3.8 8.4 8.6 8.4 4.9 0 8.7-3.7 8.7-8.4-.1-4.6-4-8.3-8.7-8.3zm0 13.1c-2.6 0-4.6-2.1-4.6-4.7 0-2.7 2-4.8 4.6-4.8 2.6 0 4.6 2.1 4.6 4.8-.1 2.6-2.1 4.7-4.6 4.7zM116.9 22.9c-2.3 0-4.1 1-4.9 2.7v-.9c0-.9-.5-1.4-1.4-1.4h-1.4c-.9 0-1.4.5-1.4 1.4v13.2c0 .9.5 1.4 1.4 1.4h1.4c.9 0 1.4-.5 1.4-1.4v-6.4c0-1.7.8-5 4-5 1.7 0 2.7 1.4 2.7 3.8v7.5c0 .9.5 1.4 1.4 1.4h1.4c.9 0 1.4-.5 1.4-1.4v-7.7c0-4.5-2.3-7.2-6-7.2zM133.4 29.9l-2.1-.7c-1.1-.3-1.5-.8-1.5-1.5 0-.9.8-1.5 1.8-1.5.7 0 1.2.2 1.6.7.5.6 1 .8 1.8.7l.7-.2c.5-.1.9-.4 1-.8.1-.3.1-.7-.2-1.1-1-1.7-2.7-2.6-5-2.6-3.3 0-5.7 2.1-5.7 5 0 2.1 1.4 3.7 4.3 4.5l2 .7c1.2.4 1.6.9 1.6 1.5 0 .9-.9 1.6-2.2 1.6-1 0-2-.4-2.5-1.1-.5-.6-.9-1-1.8-.8l-.8.2c-.5.1-.9.4-1 .7-.1.3-.1.7.1 1.1 1 2 3.2 3.2 6 3.2 4.2 0 6.1-2.5 6.1-5 0-1.5-.8-3.5-4.2-4.6zM167.9 23.2h-1.4c-.9 0-1.4.5-1.4 1.4v.7c-1.2-1.6-3.1-2.5-5.2-2.5-4.5 0-7.8 3.5-7.8 8.3 0 4.8 3.3 8.4 7.8 8.4 2.2 0 4-.9 5.2-2.5v.7c0 .9.5 1.4 1.4 1.4h1.4c.9 0 1.4-.5 1.4-1.4V24.6c.1-.9-.5-1.4-1.4-1.4zM160.7 36c-2.6 0-4.4-2-4.4-4.8s1.8-4.8 4.4-4.8c2.6 0 4.5 2 4.5 4.8s-1.9 4.8-4.5 4.8zM182.2 22.9c-2.3 0-4.1 1-4.9 2.7v-.9c0-.9-.5-1.4-1.4-1.4h-1.4c-.9 0-1.4.5-1.4 1.4v13.2c0 .9.5 1.4 1.4 1.4h1.4c.9 0 1.4-.5 1.4-1.4v-6.4c0-1.7.8-5 4-5 1.7 0 2.7 1.4 2.7 3.8v7.5c0 .9.5 1.4 1.4 1.4h1.4c.9 0 1.4-.5 1.4-1.4v-7.7c0-4.5-2.3-7.2-6-7.2zM200.9 35.1c-.2-.2-.3-.3-.5-.3s-.4.1-.6.3l-.1.1c-.1.2-.6.6-1.2.7-.2 0-.4.1-.6 0-.9-.1-1.4-.7-1.4-1.9v-7.7h3.8c.5 0 .8-.3.8-.8V24c0-.5-.3-.8-.8-.8h-3.8v-3c0-.9-.5-1.4-1.4-1.4h-1.3c-.9 0-1.4.5-1.4 1.4v2.9h-1.6c-.5 0-.8.3-.8.8v1.6c0 .5.3.8.8.8h1.6V34c0 4.9 3.4 5.6 5.4 5.6.7 0 1.3-.1 1.9-.2.3-.1.6-.2.9-.4.5-.2.8-.5 1.2-.9.2-.2.4-.4.5-.6.3-.3.2-.7-.1-1.1l-1.3-1.3zM149.9 35.1c-.2-.2-.3-.3-.5-.3s-.4.1-.6.3l-.1.1c-.1.2-.6.6-1.2.7-.2 0-.4.1-.6 0-.9-.1-1.4-.7-1.4-1.9v-7.7h3.8c.5 0 .8-.3.8-.8V24c0-.5-.3-.8-.8-.8h-3.8v-3c0-.9-.5-1.4-1.4-1.4h-1.3c-.9 0-1.4.5-1.4 1.4v2.9h-1.6c-.5 0-.8.3-.8.8v1.6c0 .5.3.8.8.8h1.6V34c0 4.9 3.4 5.6 5.4 5.6.7 0 1.3-.1 1.9-.2.3-.1.6-.2.9-.4.5-.2.8-.5 1.2-.9.2-.2.4-.4.5-.6.3-.3.2-.7-.1-1.1l-1.3-1.3z" class="st0"/><path d="M36.3 23.1c.5 1.5 1.9 2.4 3.5 2.4.4 0 .8-.1 1.2-.2 1.9-.7 2.9-2.8 2.2-4.7-1.2-3.3-3.7-5.9-7.2-7.5-1.8-.8-4 0-4.9 1.8-.8 1.8 0 4 1.8 4.9 1.8.8 2.9 1.9 3.4 3.3zM35.1.1c-2-.4-3.9.9-4.3 2.9-.4 2 .9 3.9 2.9 4.3C42 8.9 47.6 14.5 49 22.6c.3 1.8 1.9 3 3.6 3 .2 0 .4 0 .6-.1 2-.4 3.3-2.3 3-4.2-1.9-11-9.8-19-21.1-21.2z" class="st1"/><path d="M25.8 36.7c-3.3 0-6.1-2.7-6.1-6.1 0-3.3 2.7-6.1 6.1-6.1 2 0 3.7-1.6 3.7-3.7s-1.6-3.7-3.7-3.7c-7.4 0-13.4 6-13.4 13.4s6 13.4 13.4 13.4 13.4-6 13.4-13.4c0-2-1.6-3.7-3.7-3.7-2 0-3.7 1.6-3.7 3.7.1 3.5-2.7 6.2-6 6.2z" class="st0"/><path d="M47.9 27c-2 0-3.7 1.6-3.7 3.7 0 10.2-8.3 18.5-18.5 18.5S7.2 40.9 7.2 30.7s8.3-18.5 18.5-18.5c2 0 3.7-1.6 3.7-3.7 0-2-1.6-3.7-3.7-3.7C11.6 4.8 0 16.4 0 30.6c0 14.2 11.6 25.8 25.8 25.8s25.8-11.6 25.8-25.8c0-2-1.6-3.6-3.7-3.6z" class="st0"/></svg>