<svg xmlns="http://www.w3.org/2000/svg" xml:space="preserve" version="1.0" viewBox="0 0 900 321.7"><defs><clipPath id="a"><path d="M25.502 709.23h92.25v53.25h-92.25v-53.25z"/></clipPath></defs><path d="M0 0v5.339h-17.797v-24.914h5.34v8.898h10.678v5.338h-10.678V0H0z" style="fill:#003f5f;fill-opacity:1;fill-rule:nonzero;stroke:none" transform="matrix(12.49981 0 0 -12.49981 222.463 73.876)"/><path d="M60.803 717.626h-5.339v24.914h5.339v-24.914z" style="fill:#003f5f;fill-opacity:1;fill-rule:nonzero;stroke:none" transform="matrix(12.49981 0 0 -12.49981 -450.019 9288.736)"/><g clip-path="url(#a)" transform="matrix(12.49981 0 0 -12.49981 -450.019 9288.736)"><path d="M0 0a7.605 7.605 0 0 0-5.254-2.1 7.636 7.636 0 0 0 0 15.271c2.01 0 3.836-.777 5.201-2.047a15.445 15.445 0 0 0 2.707 4.548 12.802 12.802 0 0 1-7.908 2.724c-7.103 0-12.859-5.758-12.859-12.859 0-7.102 5.756-12.859 12.859-12.859 3.029 0 5.811 1.049 8.008 2.8A15.487 15.487 0 0 0 0 0" style="fill:#003f5f;fill-opacity:1;fill-rule:nonzero;stroke:none" transform="translate(80.815 724.712)"/><path d="M0 0a7.636 7.636 0 0 0-7.637 7.635 7.636 7.636 0 0 0 15.272 0A7.635 7.635 0 0 0 0 0m0 20.494c-7.105 0-12.859-5.758-12.859-12.859C-12.859.533-7.105-5.225 0-5.225c7.104 0 12.86 5.758 12.86 12.86 0 7.101-5.756 12.859-12.86 12.859" style="fill:#003f5f;fill-opacity:1;fill-rule:nonzero;stroke:none" transform="translate(95.143 722.6)"/><path d="M0 0v.396h1.756V0h-.642v-1.746H.643V0H0z" style="fill:#003f5f;fill-opacity:1;fill-rule:nonzero;stroke:none" transform="translate(103.71 719.36)"/><path d="m0 0 .501-1.473h.006L.982 0h.661v-2.142h-.44v1.519h-.007L.672-2.142H.309L-.216-.639h-.005v-1.503h-.442V0H0z" style="fill:#003f5f;fill-opacity:1;fill-rule:nonzero;stroke:none" transform="translate(106.359 719.755)"/></g></svg>