<svg xmlns="http://www.w3.org/2000/svg" style="shape-rendering:geometricPrecision;text-rendering:geometricPrecision;image-rendering:optimizeQuality;fill-rule:evenodd;clip-rule:evenodd" viewBox="0 0 394 65"><path fill="#fefffe" d="M162.5.5c4.877-.688 9.21.48 13 3.5L170 9.5c-6.503-2.326-10.003.008-10.5 7h10v7h-10v27h-7c-.167-13.67 0-27.337.5-41 2.406-3.908 5.572-6.908 9.5-9Z" style="opacity:.915"/><path fill="#fefffe" d="M393.5.5v50h-8V.5h8Z" style="opacity:.831"/><path fill="#4997f3" d="M337.5 5.5c6.385-1.286 8.385 1.047 6 7-6.272 1.61-8.272-.723-6-7Z" style="opacity:.934"/><path fill="#4996f3" d="M25.5 64.5h-18C.922 61.68-.911 57.013 2 50.5c6.426 7.148 13.927 8.648 22.5 4.5 1.832-1.489 2.665-3.322 2.5-5.5-12.306 5.066-21.472 1.733-27.5-10v-12c6.357-11.73 15.523-14.73 27.5-9 2.456-1.821 5.29-2.488 8.5-2a40.936 40.936 0 0 0 .5 9c6.578-10.184 15.411-12.684 26.5-7.5a34.692 34.692 0 0 1 6.5 7.5c.5-5.657.666-11.324.5-17h7v8h15v8h-15c-.477 5.242.356 10.242 2.5 15a6.975 6.975 0 0 0 3.5 2.5c5.576 1.472 10.409.305 14.5-3.5 1.136-17.828 10.303-24.995 27.5-21.5 8.785 5.076 11.952 12.576 9.5 22.5-4.57 10.523-12.404 14.356-23.5 11.5a22.94 22.94 0 0 1-8.5-5.5c-8.214 7.913-17.047 8.747-26.5 2.5a23.165 23.165 0 0 1-5.5-8.5C64.396 51.036 55.562 54.536 43.5 50c-3.558-1.892-6.058-4.725-7.5-8.5 1.182 10.009-2.318 17.676-10.5 23Zm-13-40c11.71-2.122 16.543 2.545 14.5 14-4.091 3.805-8.924 4.972-14.5 3.5-7.92-5.827-7.92-11.66 0-17.5Zm35 0c8.454-2.115 13.787.885 16 9-2.216 8.28-7.55 11.112-16 8.5-7.92-5.827-7.92-11.66 0-17.5Zm64 0c8.454-2.115 13.787.885 16 9-2.216 8.28-7.549 11.112-16 8.5-7.699-5.77-7.699-11.603 0-17.5Z" style="opacity:.954"/><path fill="#fefffe" d="M364.5 14.5a41.861 41.861 0 0 1 10 3 23.842 23.842 0 0 1 9-1v34c-3.211.488-6.044-.179-8.5-2-10.383 5.363-19.05 3.363-26-6-4.955-15.098.211-24.432 15.5-28Zm-5 10a60.94 60.94 0 0 1 11 .5c4.655 2.897 6.155 7.063 4.5 12.5-6.047 6.228-12.38 6.562-19 1-2.733-5.778-1.566-10.445 3.5-14Z" style="opacity:.876"/><path fill="#fefffe" d="M194.5 15.5c11.01-1.913 18.844 2.087 23.5 12 .308 7.692.808 15.358 1.5 23h-8c.166-6.675 0-13.342-.5-20-2.071-4.453-5.571-6.453-10.5-6-4.397-.553-7.563 1.114-9.5 5a83.518 83.518 0 0 0-1.5 21h-7v-34c3.079-.24 6.079.093 9 1 1.239-.442 2.239-1.11 3-2Z" style="opacity:.902"/><path fill="#fefffe" d="M234.5 15.5c5.561-.698 10.727.302 15.5 3 2.456-1.821 5.289-2.488 8.5-2v34a23.842 23.842 0 0 1-9-1c-9.97 4.57-18.47 2.57-25.5-6-5.053-12.686-1.553-22.02 10.5-28Zm0 9a60.94 60.94 0 0 1 11 .5c6.165 4.985 6.498 10.318 1 16-6.527 2.911-12.027 1.745-16.5-3.5-1.621-5.577-.121-9.91 4.5-13Z" style="opacity:.869"/><path fill="#fefffe" d="M274.5 15.5c12.247-1.64 20.08 3.36 23.5 15 .5 6.658.666 13.325.5 20h-8c.166-7.008 0-14.008-.5-21-2.075-4.038-5.408-5.704-10-5-4.836-.497-8.169 1.503-10 6-.5 6.658-.666 13.325-.5 20h-8v-34c3.211-.488 6.044.179 8.5 2 1.409-1.281 2.909-2.281 4.5-3Z" style="opacity:.855"/><path fill="#fefffe" d="M313.5 15.5c8.523-1.55 15.523.95 21 7.5l-5.5 5.5c-4.892-4.276-10.392-5.11-16.5-2.5-5.333 5-5.333 10 0 15 5.642 2.336 10.976 1.836 16-1.5 2.599 1.399 4.099 3.399 4.5 6-7.262 7.52-15.429 8.686-24.5 3.5-10.096-9.702-10.429-19.702-1-30 2.227-.941 4.227-2.108 6-3.5Z" style="opacity:.863"/><path fill="#fefffe" d="M172.5 16.5h7v34h-7v-34Z" style="opacity:.943"/><path fill="#fefffe" d="M336.5 16.5h8v34h-8v-34Z" style="opacity:.826"/><path fill="#4996f3" d="M173.5 53.5c6.568-.308 8.234 2.192 5 7.5-6.755.756-8.422-1.744-5-7.5Z" style="opacity:.945"/></svg>