<svg xmlns="http://www.w3.org/2000/svg" xml:space="preserve" viewBox="0 0 188.086 32.215"><path d="m19.374 1.062 1.121 3.526-.008.01a1.441 1.441 0 0 0-.269.27l-.01.009-2.783-.881v4.107l2.789-1.463.006.006c.082.109.178.204.287.285l-1.6 4.83c-.001.007-.004.013-.006.018l-.002.006a2.599 2.599 0 0 0 2.104 3.332c.019.003.037.008.056.01.107.014.215.024.327.024.11 0 .221-.01.328-.024.018-.002.036-.006.054-.01a2.6 2.6 0 0 0 2.106-3.332l-.002-.006a.05.05 0 0 0-.006-.017l-1.6-4.83a1.47 1.47 0 0 0 .288-.286l.007-.006 2.788 1.463V3.996l-2.786.88-.007-.007a1.417 1.417 0 0 0-.27-.272l-.008-.01 1.121-3.525h-4.025zm49.01 4.06c-1.834 0-3.488.337-4.965 1.009a11.32 11.32 0 0 0-3.783 2.75c-1.046 1.162-1.85 2.527-2.416 4.098-.567 1.57-.85 3.255-.85 5.052 0 1.81.254 3.497.762 5.06.508 1.566 1.249 2.93 2.224 4.099a10.317 10.317 0 0 0 3.598 2.75c1.424.665 3.054.998 4.887.998.782 0 1.52-.081 2.215-.244a9.115 9.115 0 0 0 1.918-.676 7.424 7.424 0 0 0 1.576-1.033c.466-.403.858-.85 1.174-1.34v2.943h4.447V16.822H67.806v3.87h6.427v.246c0 .537-.09 1.12-.271 1.752a4.85 4.85 0 0 1-.947 1.759c-.45.543-1.05.996-1.803 1.358s-1.696.543-2.828.543c-1.18 0-2.195-.23-3.047-.692a6.18 6.18 0 0 1-2.102-1.83c-.549-.758-.958-1.634-1.226-2.627a11.804 11.804 0 0 1-.403-3.101v-.174c0-1.062.134-2.094.403-3.092.268-.998.677-1.875 1.226-2.635a6.202 6.202 0 0 1 2.102-1.83c.852-.461 1.867-.693 3.047-.693.747 0 1.424.096 2.031.289.607.193 1.148.456 1.621.789s.888.73 1.25 1.192c.362.46.678.958.947 1.496l4.448-2.504a9.402 9.402 0 0 0-1.645-2.391 10.166 10.166 0 0 0-2.34-1.838c-.881-.508-1.855-.9-2.924-1.174a13.57 13.57 0 0 0-3.388-.412zm25.97 0c-1.879 0-3.556.337-5.033 1.009-1.477.671-2.732 1.588-3.765 2.75-1.034 1.162-1.823 2.527-2.366 4.098-.543 1.57-.814 3.255-.814 5.052 0 1.81.271 3.497.814 5.06.543 1.566 1.332 2.93 2.366 4.099a10.996 10.996 0 0 0 3.765 2.75c1.477.665 3.154.998 5.033.998 1.869 0 3.545-.333 5.028-.998 1.483-.666 2.743-1.583 3.773-2.75 1.03-1.168 1.82-2.533 2.37-4.098.54-1.564.81-3.251.81-5.061 0-1.797-.27-3.482-.81-5.052-.55-1.571-1.34-2.936-2.37-4.098s-2.29-2.079-3.773-2.75c-1.483-.672-3.159-1.008-5.028-1.008zm46.171.317v16.322c0 1.401.25 2.667.76 3.8a8.153 8.153 0 0 0 2.12 2.89c.91.793 1.99 1.406 3.24 1.837 1.25.432 2.61.65 4.09.65 1.49 0 2.85-.218 4.1-.65 1.25-.43 2.32-1.044 3.23-1.838a8.402 8.402 0 0 0 2.12-2.89c.5-1.132.76-2.398.76-3.799V5.44h-4.99v15.568c0 .91-.14 1.702-.41 2.373-.27.672-.63 1.226-1.09 1.664s-1.01.765-1.65.98-1.32.325-2.06.325a6.31 6.31 0 0 1-2.05-.324c-.64-.216-1.19-.543-1.65-.981s-.83-.992-1.09-1.664c-.27-.671-.41-1.462-.41-2.373V5.439h-5.02zm-32.25.033 7.1 25.115h6.9l7.09-25.115h-5.62l-4.75 18.881h-.17l-4.86-18.88-5.69-.001zm57.66 0v25.115h5.08V22.95l3.24-3.625 6.63 11.262h5.9l-9.28-15.133 8.72-9.982h-6.25l-8.96 10.877V5.472h-5.08zm-156.59.873a2.224 2.224 0 0 0-2.016 1.373 2.191 2.191 0 0 0 1.186 2.862 2.201 2.201 0 0 0 2.882-1.19 2.205 2.205 0 0 0-1.2-2.882 2.144 2.144 0 0 0-.852-.163zm24.101 0a2.153 2.153 0 0 0-.853.163 2.203 2.203 0 1 0 1.683 4.072 2.192 2.192 0 0 0 1.186-2.862 2.224 2.224 0 0 0-2.016-1.373zm-18.529 1.76a2.225 2.225 0 0 0-2.016 1.373 2.19 2.19 0 0 0 1.186 2.86 2.202 2.202 0 0 0 2.883-1.187 2.21 2.21 0 0 0-1.201-2.886 2.149 2.149 0 0 0-.852-.16zm12.957 0a2.146 2.146 0 0 0-.852.16 2.212 2.212 0 0 0-1.203 2.886 2.204 2.204 0 0 0 2.885 1.187 2.191 2.191 0 0 0 1.186-2.86 2.224 2.224 0 0 0-2.016-1.373zM4.351 9.271a2.225 2.225 0 0 0-2.016 1.374 2.192 2.192 0 0 0 1.186 2.86 2.204 2.204 0 0 0 2.885-1.188 2.207 2.207 0 0 0-1.204-2.884 2.148 2.148 0 0 0-.851-.162zm34.087 0a2.148 2.148 0 0 0-.851.162 2.202 2.202 0 1 0 1.682 4.072 2.194 2.194 0 0 0 1.187-2.86 2.227 2.227 0 0 0-2.018-1.374zm55.92.44c1.098 0 2.064.209 2.899.623a6.057 6.057 0 0 1 2.111 1.725c.572.735 1.001 1.607 1.291 2.617.3 1.01.44 2.106.44 3.285v.139c0 1.19-.14 2.289-.44 3.293-.29 1.004-.719 1.874-1.291 2.609s-1.277 1.312-2.111 1.727c-.835.414-1.801.62-2.899.62-1.097 0-2.065-.206-2.906-.62a5.95 5.95 0 0 1-2.109-1.727c-.567-.735-.997-1.605-1.289-2.61s-.438-2.101-.438-3.292v-.14c0-1.178.146-2.274.438-3.284s.722-1.882 1.289-2.617a5.935 5.935 0 0 1 2.109-1.725c.841-.414 1.809-.623 2.906-.623zM2.89 14.82a2.225 2.225 0 0 0-2.016 1.375 2.192 2.192 0 0 0 1.186 2.86 2.203 2.203 0 1 0 .83-4.234zm37.011 0a2.208 2.208 0 0 0-2.054 3.047 2.202 2.202 0 0 0 2.884 1.189 2.19 2.19 0 0 0 1.184-2.861 2.221 2.221 0 0 0-2.014-1.374zm-29.045.587c-1.817 2.416-1.56 4.41.692 6.657-1.466-.811-3.743.042-2.4 2.78.701-1.703 2.205-1.32 2.519.145.212 1.034-.417 2.252-1.783 2.502-1.119.207-2.846-.56-4.229-3.54.78.02 1.46.414 2.344 1.023l-1.453-4.838c-.366 1.359-.833 2.247-1.328 2.73-.334-.98-.286-1.686.012-3.21L2.23 20.726c1.592 2.173 3.134 5.225 4.4 10.55 4.463-.637 9.47-.996 14.76-.996 5.292 0 10.3.359 14.764.999 1.267-5.328 2.81-8.38 4.403-10.553l-2.998-1.067c.298 1.523.345 2.23.01 3.209-.493-.483-.963-1.371-1.33-2.73l-1.45 4.838c.883-.61 1.566-1.003 2.346-1.022-1.383 2.979-3.111 3.746-4.231 3.539-1.366-.25-1.995-1.468-1.783-2.502.315-1.464 1.818-1.848 2.52-.144 1.342-2.74-.935-3.592-2.401-2.781 2.252-2.246 2.509-4.241.692-6.657-2.533 1.936-2.562 3.852-1.422 6.549-1.48-1.692-3.781-.785-2.95 1.949 1.066-1.65 2.48-.611 2.258.957-.187 1.367-1.991 2.469-4.238 2.274-3.22-.292-3.412-2.512-3.492-4.352.79-.146 2.216.587 3.43 2.293l.449-5.131c-1.322 1.379-2.523 1.64-3.858 1.682.444-1.386 2.487-3.656 2.487-3.656H18.192s2.042 2.27 2.487 3.656c-1.335-.042-2.536-.303-3.858-1.682l.448 5.13c1.216-1.705 2.64-2.438 3.43-2.292-.078 1.84-.271 4.06-3.491 4.352-2.247.195-4.05-.907-4.236-2.274-.222-1.568 1.189-2.607 2.256-.957.83-2.734-1.472-3.641-2.95-1.95 1.14-2.696 1.11-4.612-1.422-6.548zm122.43 9.19c-.43 0-.84.085-1.23.254s-.73.398-1.03.683c-.29.287-.52.619-.69.998-.17.38-.25.786-.25 1.217 0 .444.08.859.25 1.244.17.386.4.724.69 1.016.3.292.64.52 1.03.684.39.163.8.244 1.23.244s.84-.081 1.23-.244c.38-.164.72-.392 1.01-.684s.53-.63.7-1.016c.17-.385.25-.8.25-1.244 0-.431-.08-.837-.25-1.217a3.307 3.307 0 0 0-.7-.998 3.41 3.41 0 0 0-1.01-.683c-.39-.17-.8-.254-1.23-.254z"/></svg>