<svg xmlns="http://www.w3.org/2000/svg" viewBox="0 0 28.487 5.727"><path d="M92.004 183.755a.047.047 0 0 1-.047-.047v-.318h-.09a.042.042 0 0 1-.042-.041c0-.023.02-.042.042-.042h.274a.042.042 0 0 1 0 .083h-.09v.318c0 .025-.021.047-.047.047m.68 0a.047.047 0 0 1-.047-.047v-.277l-.118.307a.027.027 0 0 1-.025.017.027.027 0 0 1-.025-.017l-.118-.307v.277c0 .025-.02.047-.046.047a.048.048 0 0 1-.047-.047v-.328c0-.043.034-.078.076-.078.033 0 .06.021.071.05l.089.232.09-.232c.01-.029.038-.05.07-.05.042 0 .076.035.076.078v.328c0 .025-.02.047-.047.047M67.846 183.168c0-.16.05-.306.133-.428a.605.605 0 0 0-.436.58v.485l.303.015zM67.543 186.506c0 .275.184.505.436.58a.752.752 0 0 1-.133-.429v-.91h-.303zM68.301 185.747h-.303v.91c0 .276.185.506.436.58a.755.755 0 0 1-.133-.428zM68.301 183.016c0-.159.05-.306.133-.428a.605.605 0 0 0-.436.58v.66l.303.015zM64.88 182.821a.756.756 0 0 0-.372.65v2.883c0 .277.15.517.372.65a.903.903 0 0 1-.069-.347v-3.49c0-.122.025-.239.07-.345M65.267 182.864c0-.122.024-.239.068-.346a.755.755 0 0 0-.372.65v3.49c0 .326.207.601.496.708a.904.904 0 0 1-.192-.557z" style="fill:#ee2841;fill-opacity:1;fill-rule:nonzero;stroke:none;stroke-width:.35277778" transform="translate(-64.376 -181.973)"/><path d="M69.06 182.409a.607.607 0 0 0-.607.607v.986l-1.517-.076v-1.062a.759.759 0 0 0-1.518 0v3.945a.758.758 0 1 0 1.518 0v-1.214h1.517v1.214a.607.607 0 1 0 1.214 0v-3.793a.607.607 0 0 0-.607-.607M74.299 186.104v-1.123h-1.64v1.123c0 .12-.097.222-.217.222a.227.227 0 0 1-.226-.222v-2.563c0-.12.102-.222.222-.222.124 0 .222.102.222.222v1.044h1.639v-1.044a.223.223 0 0 1 .444 0v2.563a.223.223 0 0 1-.444 0M75.057 185.23c0-.618.417-1.125 1.083-1.125.671 0 1.084.507 1.084 1.124 0 .622-.413 1.128-1.084 1.128-.666 0-1.083-.506-1.083-1.128m1.75 0c0-.404-.236-.768-.667-.768-.426 0-.666.364-.666.768 0 .409.24.773.666.773.431 0 .667-.364.667-.773M79.548 184.105c.644 0 1.044.502 1.044 1.067 0 .12-.085.19-.236.19h-1.461a.704.704 0 0 0 .728.667.918.918 0 0 0 .533-.174c.023-.017.054-.022.09-.022.088 0 .159.071.159.16a.158.158 0 0 1-.07.133c-.214.156-.468.231-.752.231-.64 0-1.11-.453-1.11-1.128 0-.622.449-1.124 1.075-1.124m-.657.969h1.31c-.01-.285-.2-.64-.653-.64-.431 0-.636.347-.657.64M80.846 186.126v-2.607a.2.2 0 0 1 .2-.2c.107 0 .2.09.2.2v2.607c0 .111-.093.2-.2.2a.2.2 0 0 1-.2-.2M81.503 185.975a.17.17 0 0 1 .173-.173c.036 0 .07.013.098.031.164.12.377.204.604.204.302 0 .461-.124.461-.306 0-.213-.244-.284-.52-.346-.363-.085-.79-.183-.79-.644 0-.342.293-.635.818-.635.297 0 .533.088.715.221.04.031.07.076.07.134a.167.167 0 0 1-.163.164.153.153 0 0 1-.09-.031.892.892 0 0 0-.528-.164c-.27 0-.44.106-.44.28 0 .186.231.248.498.31.373.085.817.187.817.68 0 .368-.302.657-.866.657-.298 0-.564-.075-.782-.24a.176.176 0 0 1-.075-.142M83.75 185.798a.28.28 0 0 1 .28.275c0 .151-.129.28-.28.28a.277.277 0 0 1 0-.555M86.105 185.23c0-.618.418-1.125 1.084-1.125.67 0 1.084.507 1.084 1.124 0 .622-.413 1.128-1.084 1.128-.666 0-1.084-.506-1.084-1.128m1.75 0c0-.404-.235-.768-.666-.768-.426 0-.666.364-.666.768 0 .409.24.773.666.773.431 0 .667-.364.667-.773M91.58 184.754v1.373c0 .11-.093.2-.204.2a.198.198 0 0 1-.196-.2v-1.253c0-.249-.11-.369-.373-.369-.217 0-.43.245-.533.4v1.221c0 .111-.088.2-.2.2a.202.202 0 0 1-.2-.2v-1.252c0-.249-.106-.369-.377-.369-.209 0-.417.26-.524.415v1.206c0 .111-.093.2-.2.2a.2.2 0 0 1-.2-.2v-1.79c0-.11.089-.2.196-.2.11 0 .204.09.204.2v.125a.929.929 0 0 1 .693-.356c.324 0 .515.17.582.4a.91.91 0 0 1 .73-.4c.395 0 .602.218.602.649" style="fill:#ee2841;fill-opacity:1;fill-rule:nonzero;stroke:none;stroke-width:.35277778" transform="translate(-64.376 -181.973)"/><path d="M85.228 184.105c.307 0 .52.098.684.25a.18.18 0 1 1-.236.27.596.596 0 0 0-.43-.164c-.422 0-.693.324-.693.768s.271.759.693.773c.285.01.571-.197.802-.561.028-.045.07-.13.105-.173.065-.082.112-.043.15-.003.07.074.07.249.024.335a1.72 1.72 0 0 1-.362.475 1.05 1.05 0 0 1-.737.282c-.648 0-1.092-.484-1.092-1.128 0-.644.444-1.124 1.092-1.124M78.758 185.975c0 .076-.216.245-.371.32a.657.657 0 0 1-.307.062c-.338 0-.51-.19-.51-.528v-1.32h-.205a.181.181 0 0 1-.178-.177.18.18 0 0 1 .178-.173h.204v-.409a.2.2 0 0 1 .2-.2c.107 0 .2.089.2.2v.409h.28c.097 0 .177.08.177.173 0 .098-.08.178-.177.178h-.28v1.23c0 .15.071.262.209.262.244 0 .436-.38.545-.38.102 0 .035.255.035.353" style="fill:#ee2841;fill-opacity:1;fill-rule:nonzero;stroke:none;stroke-width:.35277778" transform="translate(-64.376 -181.973)"/></svg>