<svg xmlns="http://www.w3.org/2000/svg" viewBox="0 0 530.5 221.5"><path d="M-375.9 299.5h-55.2v-10.23h55.2zm3.944-14.18h-63.09v18.12h63.09z" style="fill:#00b188" transform="matrix(2.8771 0 0 2.8771 1251.952 -820.79)"/><path d="M0 0h-3.155v14.5H0V8.772h5.637V14.5h3.155V0H5.637v6.007H0V0" style="fill:#040404" transform="matrix(3.5964 0 0 -3.5964 11.62 138.447)"/><path d="M0 0h3.758c-.07 1.066-.51 1.809-1.74 1.809C1.09 1.809.278 1.414 0 0zm2.389-6.587c-3.201 0-5.381 2.018-5.381 5.333 0 3.225 2.134 5.451 4.964 5.451 3.085 0 4.616-2.064 4.616-5.149v-1.16H0c.372-1.599 1.624-2.016 2.877-2.016 1.09 0 1.878.231 2.852.835h.117v-2.389c-.835-.604-2.019-.905-3.457-.905" style="fill:#040404" transform="matrix(3.5964 0 0 -3.5964 60.53 115.43)"/><path d="m0 0-1.624-6.076h-2.76l-3.155 10.2v.116h3.016l1.716-6.1 1.624 6.1h2.459l1.647-6.1 1.74 6.1h2.9v-.116l-3.155-10.2H1.647L0 0" style="fill:#040404" transform="matrix(3.5964 0 0 -3.5964 113.758 116.58)"/><path d="M0 0c-2.505 0-3.526.997-3.526 3.339v11.39h3.062V3.549c0-.719.278-.974.881-.974.209 0 .511.069.696.139h.047V.186A3.684 3.684 0 0 0 0 .001" style="fill:#040404" transform="matrix(3.5964 0 0 -3.5964 159.216 139.022)"/><path d="M0 0h3.758c-.07 1.066-.51 1.809-1.74 1.809C1.091 1.809.278 1.414 0 0zm2.389-6.587c-3.201 0-5.381 2.018-5.381 5.333 0 3.225 2.134 5.451 4.964 5.451 3.085 0 4.616-2.064 4.616-5.149v-1.16H0c.371-1.599 1.624-2.016 2.876-2.016 1.091 0 1.879.231 2.854.835h.116v-2.389c-.835-.604-2.018-.905-3.457-.905" style="fill:#040404" transform="matrix(3.5964 0 0 -3.5964 177.342 115.43)"/><path d="M0 0h2.273v-2.458H0v-4.198c0-.905.348-1.323 1.276-1.323.255 0 .58.024.928.14h.069v-2.412c-.394-.14-.997-.301-1.878-.301-2.483 0-3.457 1.136-3.457 3.757v4.337h-3.92v-4.198c0-.905.348-1.323 1.275-1.323.256 0 .581.024.929.14h.069v-2.412c-.394-.14-.998-.301-1.878-.301-2.483 0-3.457 1.136-3.457 3.757v4.337h-1.578V0h1.578v2.829h3.062V0h3.92v2.829H0V0" style="fill:#040404" transform="matrix(3.5964 0 0 -3.5964 246.394 101.332)"/><path d="M0 0c1.602 0 2.366.904 2.366 2.203 0 1.346-.764 2.25-2.366 2.25h-1.995V0zm5.568 2.203c0-3.155-2.111-4.87-5.313-4.87h-2.25v-4.708h-3.153v14.5H.255c3.202 0 5.313-1.716 5.313-4.917" style="fill:#040404" transform="matrix(3.5964 0 0 -3.5964 291.565 111.69)"/><path d="M0 0v.881c-.464.254-1.066.347-1.693.347-.997 0-1.6-.37-1.6-1.205 0-.859.603-1.23 1.507-1.23C-.928-1.207-.278-.766 0 0zm.093-2.227c-.673-.812-1.669-1.206-2.738-1.206-2.017 0-3.665 1.228-3.665 3.41 0 2.017 1.648 3.362 4.013 3.362.742 0 1.509-.116 2.297-.347v.184c0 1.114-.626 1.6-2.272 1.6-1.045 0-2.042-.3-2.901-.788h-.115v2.459c.788.463 2.181.858 3.548.858 3.109 0 4.802-1.484 4.802-4.082v-6.47H.093v1.02" style="fill:#040404" transform="matrix(3.5964 0 0 -3.5964 335.872 126.65)"/><path d="M0 0c0 3.317 2.344 5.404 5.406 5.404 1.09 0 2.11-.232 2.876-.788V1.995h-.117c-.673.51-1.461.812-2.365.812-1.531 0-2.691-1.045-2.691-2.807S4.269-2.783 5.8-2.783c.904 0 1.692.302 2.365.813h.117v-2.621c-.766-.557-1.786-.789-2.876-.789C2.344-5.38 0-3.317 0 0" style="fill:#040404" transform="matrix(3.5964 0 0 -3.5964 352.272 119.746)"/><path d="M0 0v-4.684h-3.061v14.5H0V1.56l3.086 4.082h3.479v-.116L2.854.841l3.711-5.404v-.116H3.062L0 .005" style="fill:#040404" transform="matrix(3.5964 0 0 -3.5964 400.033 121.472)"/><path d="M0 0v.881c-.463.254-1.067.347-1.693.347-.997 0-1.6-.37-1.6-1.205 0-.859.603-1.23 1.506-1.23C-.927-1.207-.278-.766 0 0zm.093-2.227c-.673-.812-1.671-1.206-2.737-1.206-2.019 0-3.665 1.228-3.665 3.41 0 2.017 1.646 3.362 4.014 3.362.742 0 1.506-.116 2.295-.347v.184c0 1.114-.626 1.6-2.273 1.6-1.043 0-2.042-.3-2.9-.788h-.116v2.459c.789.463 2.181.858 3.549.858 3.11 0 4.803-1.484 4.803-4.082v-6.47H.093v1.02" style="fill:#040404" transform="matrix(3.5964 0 0 -3.5964 448.368 126.65)"/><path d="M0 0c.556 1.137 1.369 1.786 2.506 1.786.417 0 .834-.093.995-.186v-2.922h-.115c-.348.14-.765.232-1.345.232-.951 0-1.693-.557-1.949-1.623v-5.938h-3.061v10.32H0v-1.67" style="fill:#040404" transform="matrix(3.5964 0 0 -3.5964 478.003 107.086)"/><path d="M0 0v3.317c-.51.742-1.182 1.066-1.949 1.066-1.344 0-2.249-.975-2.249-2.737s.905-2.713 2.249-2.713C-1.182-1.067-.51-.742 0 0zm.092-2.436c-.649-.835-1.67-1.298-3.061-1.298-2.645 0-4.338 2.411-4.338 5.38S-5.614 7.05-2.969 7.05C-1.624 7.05-.65 6.632 0 5.867v5.125h3.062v-14.49H.092v1.066" style="fill:#040404" transform="matrix(3.5964 0 0 -3.5964 519.721 125.788)"/><path d="M0 0h8.954v-1.762H2.018v-4.429h6.286v-1.717H2.018v-4.824h6.936v-1.762H0v14.49" style="fill:#040404" transform="matrix(3.5964 0 0 -3.5964 .399 155.422)"/><path d="M0 0c2.296 0 3.572-1.508 3.572-3.988v-6.425H1.647v6.378c0 1.322-.673 2.273-2.134 2.273a2.683 2.683 0 0 1-2.575-1.855v-6.796h-1.925v10.2h1.925v-1.484C-2.459-.746-1.438-.004 0-.004" style="fill:#040404" transform="matrix(3.5964 0 0 -3.5964 59.092 170.095)"/><path d="M0 0h2.621v-1.647H0v-5.496c0-1.159.603-1.554 1.693-1.554.301 0 .626.046.858.139h.07v-1.646c-.278-.116-.673-.209-1.206-.209-2.39 0-3.34 1.091-3.34 3.084v5.682h-1.763V0h1.763v2.712H0V0" style="fill:#040404" transform="matrix(3.5964 0 0 -3.5964 90.453 170.67)"/><path d="M0 0h5.08c-.069 1.507-.812 2.666-2.389 2.666C1.23 2.666.278 1.576 0 0zm3.039-6.309c-2.993 0-5.034 1.995-5.034 5.195 0 3.201 1.902 5.427 4.663 5.427 2.807 0 4.268-2.018 4.268-5.009v-.882H-.07c.209-2.064 1.532-3.061 3.364-3.061 1.137 0 1.948.255 2.853.928h.07v-1.694c-.835-.649-1.926-.904-3.178-.904" style="fill:#040404" transform="matrix(3.5964 0 0 -3.5964 111.456 185.632)"/><path d="M0 0c.441 1.09 1.416 1.739 2.528 1.739.442 0 .836-.069.998-.162V-.324h-.069c-.279.138-.743.208-1.207.208C1.207-.116.325-.811 0-1.971v-6.656h-1.925v10.2H0V-.004" style="fill:#040404" transform="matrix(3.5964 0 0 -3.5964 151.736 176.425)"/><path d="M0 0c1.902 0 3.016 1.507 3.016 3.572 0 2.04-1.114 3.57-3.016 3.57-1.044 0-2.018-.626-2.528-1.622V1.599C-2.018.603-1.044 0 0 0zm.325 8.882c3.038 0 4.662-2.482 4.662-5.31C4.987.741 3.363-1.74.325-1.74c-1.253 0-2.32.649-2.853 1.346v-5.057h-1.926v14.12h1.926V7.51c.533.719 1.6 1.368 2.853 1.368" style="fill:#040404" transform="matrix(3.5964 0 0 -3.5964 186.55 202.032)"/><path d="M0 0c.44 1.09 1.415 1.739 2.528 1.739.441 0 .835-.069.997-.162V-.324h-.069c-.278.138-.742.208-1.206.208C1.206-.116.325-.811 0-1.971v-6.656h-1.925v10.2H0V-.004" style="fill:#040404" transform="matrix(3.5964 0 0 -3.5964 219.636 176.425)"/><path d="M0 0c.673 0 1.229-.533 1.229-1.206S.673-2.412 0-2.412c-.649 0-1.23.533-1.23 1.206S-.649 0 0 0" style="fill:#040404" transform="matrix(3.5964 0 0 -3.5964 242.366 155.998)"/><path d="M-352.1 357.4h2.408v-12.76h-2.408z" style="fill:#040404" transform="matrix(2.8771 0 0 2.8771 1251.952 -820.79)"/><path d="M0 0c1.461-.463 3.084-1.066 3.084-3.014 0-2.088-1.716-3.155-3.919-3.155-1.346 0-2.691.325-3.457.928v1.832h.093c.859-.788 2.134-1.136 3.34-1.136 1.09 0 2.065.418 2.065 1.299 0 .904-.811 1.113-2.413 1.646-1.438.464-3.038.998-3.038 2.922 0 1.972 1.623 3.131 3.688 3.131 1.206 0 2.273-.255 3.131-.835V1.762h-.069C1.671 2.435.695 2.83-.511 2.83S-2.39 2.296-2.39 1.577C-2.39.765-1.648.534 0 0" style="fill:#040404" transform="matrix(3.5964 0 0 -3.5964 270.561 185.92)"/><path d="M0 0h5.079C5.01 1.507 4.268 2.666 2.69 2.666 1.229 2.666.278 1.576 0 0zm3.038-6.309c-2.992 0-5.033 1.995-5.033 5.195 0 3.201 1.902 5.427 4.662 5.427 2.808 0 4.268-2.018 4.268-5.009v-.882H-.07c.209-2.064 1.531-3.061 3.363-3.061 1.138 0 1.949.255 2.853.928h.07v-1.694c-.834-.649-1.925-.904-3.178-.904" style="fill:#040404" transform="matrix(3.5964 0 0 -3.5964 294.73 185.632)"/></svg>