<svg xmlns="http://www.w3.org/2000/svg" id="Ebene_1" data-name="Ebene 1" viewBox="0 0 250 250"><defs><style>.cls-1{fill:#051c59;fill-rule:evenodd}</style></defs><path d="m85.67 96.27 38.51-38.51 6.56 27.78-45.07 10.73zM164.42 101.27l-38.43 38.51-6.56-27.7 44.99-10.81zM127.54 59.4l38.51 38.51-27.69 6.56-10.82-45.07zM122.55 138.14 84.12 99.71l27.69-6.55 10.74 44.98zM26.11 158.87l3.11 3.2 3.6-3.2v33.51h-6.71v-33.51z" class="cls-1"/><path d="M26.11 158.87h6.71l-3.6 7.54-3.11-7.54zM25.45 148.38v-.16l.08-.16V147.65l.08-.17v-.24l.09-.17.08-.16v-.16l.08-.17.08-.16.17-.17.08-.16.08-.16.16-.17.08-.16.17-.08.16-.17.17-.16.16-.08.16-.09.17-.08.16-.16h.16l.17-.08.24-.09.17-.08H28.81l.24-.08H30.04l.24.08h.17l.16.08.16.09h.17l.16.08.25.08.16.08.08.08.17.17.16.08.17.16.16.09.08.16.17.16.16.17.08.16.08.17.09.16.16.16v.17l.08.16.08.25.08.16v.16l.09.25v1.23l-.09.24v.17l-.08.16-.08.17-.08.24v.17l-.16.16-.09.16-.08.17-.08.16-.16.17-.17.08-.08.16-.16.16-.17.17-.16.08-.17.08-.16.17-.16.08-.17.08-.16.08-.17.09h-.16l-.24.08h-.17l-.16.08h-1.23l-.17-.08h-.24l-.17-.08h-.16l-.16-.09-.17-.08-.16-.08-.25-.08-.16-.17-.08-.08-.17-.08-.16-.17-.16-.16-.09-.16-.16-.08-.08-.17-.16-.16-.09-.17-.08-.16-.08-.16-.08-.25-.08-.16-.09-.17v-.16l-.08-.25V148.79l-.08-.16v-.25zM42.25 192.38v-33.51h6.63v4.59l.25-.33.25-.32.24-.33.33-.25.24-.33.25-.24.25-.25.32-.24.25-.25.33-.25.32-.24.25-.17.33-.24.33-.17.24-.16.33-.16.33-.17.33-.16.32-.17.41-.08.33-.16.33-.08.33-.08.41-.09.32-.08.41-.08.41-.08h.33l.41-.08h.41l.41-.09H59.53l.42.09H60.52l.33.08h.32l.25.08h.33l.33.08.24.08.33.09.25.08.24.08.33.08.24.08.25.17.25.08.24.16.25.08.24.17.25.16.25.17.24.16.25.16.24.17.17.16.24.17.17.24.24.17.17.24.24.17.16.24.17.25.24.24.17.25.16.25.17.24.16.25.16.24.09.33.16.25.16.24.09.33.16.25.08.32.17.33.08.25.08.32.08.33.08.33.09.33.08.32.08.33.08.33v.33l.08.33v.41l.09.32v.41l.08.33V192.38h-6.64v-21.63l-.08-.41-.08-.41v-.41l-.09-.41-.08-.41-.08-.41-.16-.32-.09-.41-.16-.33-.16-.33-.17-.33-.16-.32-.17-.25-.24-.33-.16-.24-.25-.25-.25-.24-.24-.17-.25-.24-.33-.17-.24-.16-.33-.17-.33-.08-.33-.16-.32-.08-.33-.09-.33-.08h-.74l-.4-.08-.25.08H56.34l-.25.08-.32.09h-.25l-.25.08-.32.08-.25.08-.25.08-.24.17-.33.08-.24.16-.25.17-.25.08-.32.16-.25.17-.24.16-.25.16-.33.25-.24.16-.25.25-.25.25-.24.24-.33.17-.25.32-.24.25-.25.24-.24.25-.33.33-.25.33v24h-6.63zM93.95 189.52l1.72-2.54H97.06l.33-.09h.33l.24-.08h.33l.33-.08.33-.08h.24l.33-.08.25-.08.32-.09.25-.08.25-.16.24-.09.33-.08.25-.16.24-.08.25-.17.24-.08.25-.16.16-.17.25-.16.24-.16.17-.17.24-.16.17-.17.24-.16.17-.16.24-.25.17-.16.16-.25.17-.16.16-.25.16-.24.17-.17.16-.24.16-.25.09-.25.16-.24.08-.25.17-.24.08-.25.16-.24.08-.25.09-.25.08-.32.08-.25.08-.25.08-.32.08-.25.09-.24v-.33l.08-.33.08-.57.08-.58v-2.46l-.08-.32v-.25l-.08-.33v-.24l-.08-.33-.09-.25-.08-.24v-.33l-.08-.25-.08-.24-.16-.25-.09-.24-.08-.25-.16-.24-.08-.25-.17-.25-.08-.24-.16-.25-.17-.16-.16-.25-.17-.24-.16-.17-.16-.24-.17-.25-.16-.16-.16-.25-.25-.16-.16-.25-.25-.16-.25-.17-.16-.16-.25-.16-.16-.17-.24-.16-.25-.17-.25-.16-.24-.16-.17-.17-.24-.08-.25-.16-.24-.09-.25-.08-.25-.16-.32-.08-.25-.08-.24-.09-.25-.08-.25-.08-.32-.08-.25-.08-.25-.09h-.32l-.25-.08h-.33l-.24-.08h-.9l-.33-.08h-.33l-1.64-3.44 1.8-2.63h.5l.49.09H97.72l.49.08.49.08h.41l.49.08.41.08.49.09.41.08.41.16.41.08.41.17.41.08.41.16.41.17.41.16.41.16.41.25.33.16.41.17.41.24.33.25.32.25.41.24.33.25.33.24.41.25.33.33.32.24.33.33.33.25.25.32.32.33.33.33.25.33.24.33.25.32.24.33.25.33.25.41.24.33.17.4.24.33.17.33.16.41.16.41.17.41.16.33.16.41.09.41.16.41.08.41.08.41.09.41.08.49.08.41.08.41v.49l.08.41v2.87l-.08.49v.49l-.08.49-.08.49-.08.41-.09.49-.08.41-.08.41-.16.5-.09.4-.16.41-.16.41-.17.41-.16.41-.16.41-.17.41-.16.33-.25.41-.24.33-.17.41-.24.32-.25.33-.33.33-.24.33-.25.33-.33.32-.24.33-.33.33-.33.33-.33.24-.32.33-.33.25-.33.24-.33.33-.41.25-.32.24-.33.17-.41.24-.33.25-.41.16-.41.17-.33.16-.41.24-.41.17-.41.16-.4.08-.42.17-.41.08-.4.16-.5.09-.41.08-.41.08-.49.08-.41.08-.49.09-.49.08h-.41l-.49.08h-1.48l-1.88-3.52z" class="cls-1"/><path d="m97.56 189.52-1.73 3.52h-1.47l-.41-.08-.49-.08h-.49l-.41-.09-.5-.08-.4-.08-.41-.08-.5-.08-.41-.09-.41-.16-.4-.08-.42-.17-.41-.16-.4-.16-.41-.17-.41-.16-.33-.25-.41-.16-.33-.25-.41-.16-.33-.25-.41-.24-.32-.25-.33-.24-.33-.25-.33-.33-.41-.24-.24-.33-.33-.25-.33-.32-.33-.33-.24-.33-.33-.33-.24-.32-.25-.33-.25-.41-.24-.33-.25-.33-.24-.41-.17-.33-.24-.41-.17-.32-.16-.41-.17-.41-.16-.41-.16-.41-.17-.41-.16-.41-.08-.41-.08-.41-.17-.41-.08-.41-.08-.49-.08-.41v-.49l-.09-.41-.08-.49V176.32l-.08-.49V174.93l.08-.49v-.82l.08-.49.09-.41v-.41l.08-.41.08-.41.08-.41.17-.41.08-.41.16-.41.08-.41.17-.41.16-.33.16-.41.17-.32.16-.41.25-.33.16-.41.25-.33.16-.33.25-.41.24-.32.25-.33.33-.33.24-.33.25-.32.33-.33.32-.33.33-.33.25-.24.33-.33.32-.33.41-.24.33-.25.33-.25.33-.24.4-.25.33-.24.41-.25.33-.16.41-.25.33-.16.41-.17.41-.16.41-.17.41-.16.41-.16.41-.09.41-.16.41-.08.41-.08.49-.17.41-.08.41-.08h.49l.41-.08.49-.08H94.85l.49-.09h.49l1.81 3.12-1.97 2.95-.57.08H94.19l-.24.08h-.33l-.24.08h-.33l-.25.09-.24.08-.25.08-.33.08-.24.08-.25.09-.24.08-.25.08-.25.16-.24.08-.25.09-.16.16-.25.16-.24.09-.25.16-.16.16-.25.17-.25.16-.16.17-.24.16-.17.16-.16.25-.25.16-.16.17-.17.24-.16.17-.16.24-.17.17-.16.24-.16.25-.17.16-.16.25-.08.24-.17.25-.08.16-.17.25-.08.25-.08.24-.16.25-.08.24-.09.25-.08.24-.08.25-.08.33v.24l-.08.25-.09.25v.32l-.08.25V174.36l-.08.33V175.91l.08.33v.9l.08.33v.33l.09.33.08.24v.33l.08.25.08.32.08.25.09.33.08.24.16.25.08.25.08.24.17.33.08.24.17.25.08.25.16.16.17.25.16.24.16.25.17.16.16.25.16.24.17.17.16.24.25.17.16.16.17.16.24.25.16.16.25.17.25.16.16.08.25.17.24.16.25.16.16.09.25.16.24.08.25.08.25.17.24.08.25.08.24.09.33.08.25.08h.24l.25.08.33.08h.24l.33.08h.24l.33.09H95.67l1.89 2.54zM133.03 179.44l8.77-20.57h7.05l-14.67 34.17h-2.29l-15.24-34.17h7.29l9.09 20.57zM157.21 174.28l2.04-2.05h16.8v-.82l-.08-.41-.08-.33-.08-.41-.09-.41-.08-.33-.08-.32-.16-.41-.17-.33-.16-.33-.17-.33-.24-.33-.25-.32-.16-.25-.33-.33-.24-.24-.25-.33-.33-.25-.25-.16-.32-.25-.33-.16-.41-.16-.33-.17-.33-.16-.41-.08-.41-.17-.32-.08-.41-.08H168.68l-.41-.08-1.81-3.61 1.73-2.46h.4l.41.09H169.91l.4.08.41.08h.33l.41.08.41.08.33.09.41.08.33.16.41.08.33.17.32.08.41.16.25.17.41.16.24.16.33.25.33.16.33.17.24.24.33.25.25.25.24.24.33.25.25.24.24.25.25.33.24.24.25.33.24.25.17.32.24.33.17.33.24.33.17.41.16.32.25.33.16.41.16.33.09.41.16.41.16.41.17.33.08.49.17.41.08.41.08.41.16.49.08.41.09.49.08.49v.41l.08.49.08.5v.49l.08.57v.49l.09.49V176.65h-23.44l-1.96-2.37z" class="cls-1"/><path d="M159.17 174.52v2.13l.08.66.17.57.16.58.17.57.16.57.16.58.25.49.24.49.25.49.25.41.24.49.25.41.33.41.32.33.33.41.33.24.33.33.41.33.41.25.41.24.32.25.5.24.41.17.49.16.49.17.41.16.49.08.57.08.49.08.58.09h2.13l.41-.09h.33l.32-.08.41-.08h.33l.41-.08.33-.08.33-.08.41-.17.32-.08.41-.08.33-.17.33-.16.41-.08.33-.17.41-.16.32-.16.41-.25.33-.16.41-.17.33-.24.41-.17.41-.24.33-.25.41-.25.4-.24.33-.25.41-.32.33-.25v6.56l-.66.4-.65.41-.66.33-.73.41-.66.33-.74.33-.73.32-.82.33-.33.08-.41.17-.41.16-.41.08-.41.09-.41.08-.49.08-.41.08-.49.08-.49.09-.5.08h-.49l-.49.08h-2.46l-.49-.08h-.41l-.41-.08h-.49l-.41-.09-.41-.08-.41-.08-.41-.08-.41-.08-.41-.17-.41-.08-.33-.16-.41-.17-.41-.16-.32-.17-.41-.16-.33-.16-.33-.17-.33-.24-.4-.17-.33-.24-.33-.25-.33-.24-.33-.25-.24-.25-.33-.32-.33-.25-.24-.33-.33-.24-.25-.33-.32-.33-.25-.33-.25-.32-.24-.33-.25-.41-.24-.33-.25-.33-.16-.32-.25-.41-.16-.33-.25-.41-.16-.41-.17-.33-.16-.41-.16-.41-.17-.33-.08-.41-.16-.41-.09-.4-.16-.41-.08-.41-.08-.5-.09-.41-.08-.41-.08-.49-.08-.41v-.41l-.08-.49v-1.39l-.09-.49.09-.41v-1.39l.08-.41v-.5l.08-.41.08-.41.08-.41.09-.41.08-.4.08-.42.08-.41.17-.4.08-.41.16-.33.08-.41.17-.41.16-.33.16-.33.17-.41.16-.32.17-.33.24-.41.17-.33.24-.33.25-.32.24-.33.17-.33.24-.25.33-.32.25-.33.24-.25.33-.32.25-.25.33-.33.24-.24.33-.25.24-.25.33-.16.33-.25.33-.24.33-.17.32-.24.33-.17.33-.16.33-.16.41-.17.32-.16.33-.08.41-.17.33-.08.41-.16.41-.08.33-.09.4-.08.42-.08h.41l.4-.08.41-.08h.82l.41-.09h.5l1.8 2.46-1.72 3.61h-.49l-.5.08h-.41l-.49.08-.41.08-.41.09-.41.08-.33.08-.4.16-.33.17-.33.16-.41.16-.33.25-.24.16-.33.25-.33.25-.24.24-.25.25-.25.32-.24.33-.25.33-.16.33-.25.33-.16.32-.16.41-.17.41-.16.41-.17.41-.08.49-.16.41-.08.5-.09.49-.08 2.29zM185.47 192.38l14.1-17.04-14.1-16.47H194l9.83 11.39 9.5-11.39h8.52l-13.76 16.47 14.75 17.04h-8.44l-10.65-12.04-9.75 12.04h-8.53z" class="cls-1"/></svg>