<svg xmlns="http://www.w3.org/2000/svg" data-name="Layer 1" viewBox="0 0 576.9 94.19"><path d="M18.76 0H0v93.78h88.91V75.03H18.76V0zM135.84 0 98.33 93.78h21.39l25.5-65.64 18.17 46.89h-31.17l-7 18.75h66.89L154.59 0h-18.75zM218.58 32.83 195.14 0h-23.45l37.51 56.27v37.51h18.76V56.27L265.47 0h-23.15l-23.74 32.83zM273.56 14.77v79.01h88.9V75.03h-70.14V56.27h53.89V37.51h-53.89V18.76h70.14V0h-88.9v14.77zM392.92 17.88H441v19.51h-42.88l.18 17.88h12.87l34 38.51h23.16l-34-38.51h13.27a14.56 14.56 0 0 0 14.57-14.56V14.57A14.57 14.57 0 0 0 447.59 0h-73v93.78h18.76Z" style="fill:#3c494f"/><path d="M536.61.4h36.93v17.79h-36.93zM576.9 60.33V53c0-8.49-7.14-15.37-15.94-15.37h-59.6v-4.89h-21.82v21h75.54v6.57Z" data-name="&lt;Path&gt;" style="fill:#00b39f"/><path d="M501.36 26.93v-8.74h29.22V.4h-51.04v26.53h21.82zM555.08 66.05V76.4h-29.22v17.79h36a14.77 14.77 0 0 0 15-14.49V66.05Z" data-name="&lt;Path&gt;" style="fill:#00d3a9"/><path d="M499.61 67v9.4h20.22v17.79h-26a14.77 14.77 0 0 1-15-14.49V67Z" data-name="&lt;Path&gt;" style="fill:#00b39f"/></svg>