<svg xmlns="http://www.w3.org/2000/svg" viewBox="0 0 1996 162"><path d="M1058.89 0h6.657c.664.25 1.34.52 2.031.762-3.258-.18-6.52-.121-9.773-.149.27-.148.816-.457 1.086-.613Zm0 0" style="stroke:none;fill-rule:nonzero;fill:#fcf4c9;fill-opacity:1"/><path d="M32.918 14.707C43.211 7.152 55.484 2.461 68.109.785 75.582.38 83.09.45 90.566.691c15.422 1.23 30.38 7.102 42.625 16.54 3.246 2.874 3.832 8.164 1.332 11.703-1.843 2.707-5.308 4.336-8.566 3.753-2.008-.476-3.789-1.597-5.406-2.843-6.11-4.543-12.906-8.184-20.184-10.469-14.363-4.102-30.27-4.574-44.21 1.34-12.102 4.902-22.169 14.281-28.56 25.61-8.011 14.07-10.433 30.968-7.808 46.862 1.566 10.876 5.727 21.442 12.426 30.188 6.297 8.188 14.887 14.586 24.555 18.219 22.703 8.531 49.484 3.75 68.5-11.078.91-.485.683-1.598.738-2.446-.086-12.297.09-24.593-.094-36.882-14.2.003-28.41.011-42.617-.004-4.64-.016-8.414-5.024-7.277-9.493.855-3.695 4.492-6.511 8.3-6.355 16.485-.02 32.973-.004 49.453 0 4.618-.16 8.95 3.844 8.957 8.5.024 15.61-.02 31.21.024 46.816.246 3.79-.871 7.809-3.797 10.375-14.629 11.414-32.48 18.918-51.043 20.336-3.98-.015-7.969.04-11.95-.02-1.105-.113-2.081.552-3.171.548-5.969-1.446-12.207-1.692-18.047-3.723a73.588 73.588 0 0 1-29.926-16.914c-11.394-10.64-18.984-25-22.289-40.172-.824-4.5-1.722-9.02-1.894-13.605C.559 82.285.402 77.074.84 71.895c.758-5.715 1.664-11.47 3.547-16.938 4.933-15.973 14.968-30.418 28.531-40.25ZM691.746.605c6.207-.078 12.434-.242 18.633.188 12.215 1.559 24.133 5.828 34.328 12.785 19.824 13.258 32.438 36.14 34.129 59.82.355 6.434.34 12.926-.524 19.325-2.605 18.25-11.32 35.695-24.914 48.234-11.128 10.36-25.41 17.305-40.433 19.606-7.004 1.386-14.184.613-21.266.777-20.738-1.418-40.777-11.613-53.906-27.79-13.984-16.84-20.246-39.48-17.977-61.155 1.836-20.91 12.157-41.051 28.414-54.399 7.997-6.637 17.383-11.543 27.325-14.512 5.304-1.386 10.68-2.746 16.191-2.879m1.734 15.934c-3.52.281-6.976 1.016-10.398 1.832C665.5 22.645 650.59 35.79 643.508 52.36c-5.196 11.594-6.68 24.649-5.168 37.211 2.226 19.532 13.664 38.145 30.96 47.813 19.79 11.312 46.063 10.308 64.766-2.82 15.7-10.797 25.286-29.286 26.508-48.149.285-7.508.219-15.144-1.836-22.422-4.242-18.14-16.847-34.273-33.843-42.094-9.786-4.402-20.711-6.355-31.415-5.359ZM1555.305.848c6.14-.5 12.32-.305 18.48-.285 4.988 0 9.863 1.125 14.684 2.304 17.574 4.457 33.36 15.492 43.652 30.422 12.68 18.082 17.164 41.418 13.027 63.027-3.398 19.094-13.89 36.922-29.218 48.871-10.645 8.333-23.532 13.774-36.922 15.61-2.106.2-4.164.957-6.278.652-6.714-.383-13.523.524-20.148-.902-18.348-2.793-35.523-12.582-47.27-26.965-10.523-12.66-16.738-28.684-18.152-45.039-.012-3.484-.664-6.953-.234-10.434.453-20.71 9.082-41.21 23.914-55.734 11.953-11.8 27.863-19.277 44.465-21.527m5.25 15.722c-12.254 1.239-24.25 5.985-33.551 14.153-14.344 12.23-22.059 31.277-21.723 49.976-.218 19.504 8.371 39.254 23.778 51.453 8.605 6.895 19.171 11.332 30.14 12.555 10.84 1.238 22.067-.035 32.121-4.402 8.852-3.754 16.707-9.79 22.727-17.285 18.691-23.274 18.976-59.254.86-82.93-5.731-7.504-13.192-13.688-21.704-17.785-10.098-4.797-21.52-6.809-32.648-5.735ZM329.098 1.828c5.562-2.121 11.941 2.758 11.922 8.578.058 27.922 0 55.856.027 83.781-.024 11.223 2.52 22.739 8.726 32.208 4.993 7.644 12.743 13.382 21.434 16.125 4.766 1.707 9.844 2.363 14.887 2.566 10.441.48 21.32-1.39 30.16-7.234 7.574-4.926 13.11-12.645 15.988-21.153 3.086-8.496 3.727-17.656 3.613-26.625.016-26.558-.027-53.125.02-79.683-.02-4.825 4.254-9.121 9.086-9.04 4.746-.054 8.684 4.422 8.625 9.055.016 27.95.016 55.899 0 83.848-.234 7.105-.719 14.273-2.649 21.148-2.609 10.774-7.843 21.078-15.8 28.887-5.586 5.633-12.528 9.805-19.907 12.629-14.355 5.156-30.156 5.695-45.023 2.605-8.687-1.996-17.078-5.609-24.102-11.148-7.94-6.145-13.89-14.648-17.57-23.953-3.547-9.274-5.348-19.23-5.226-29.16-.004-27.407.003-54.809-.004-82.211.054-1.926-.22-3.93.425-5.79.97-2.425 2.926-4.472 5.368-5.433ZM1660.828 2.27c4.207-2.282 9.7-.16 11.985 3.867 1.914 3.61 3.167 7.523 4.89 11.222 16.621 40.012 33.402 79.965 50.004 119.989 1.93-3.614 3.242-7.52 4.914-11.258 16.2-38.453 32.363-76.926 48.598-115.371 1.285-3.801 3.644-7.688 7.652-9.043 5.863-1.89 12.54 4.273 10.8 10.285-19.276 44.719-38.64 89.41-57.937 134.121-1.765 3.606-2.816 7.621-5.347 10.8-4.496 5.864-15.242 5.196-18.516-1.612-20.336-46.836-40.648-93.68-61.008-140.508-2.761-4.246-.547-10.461 3.965-12.492ZM1834.688 1.75c4.87-1.715 10.367 2.113 11.171 7.059.38 2.421.239 4.882.266 7.328 0 43.554-.008 87.113 0 130.668-.031 2.922.285 6.097-1.297 8.703-1.52 2.719-4.46 4.781-7.656 4.613-4.106.215-7.442-3.266-8.442-7-.343-1.742-.183-3.531-.203-5.289.012-45.812-.004-91.621.004-137.437-.008-3.786 2.578-7.403 6.157-8.645ZM1892.691 7.215c1.254-3.621 5.114-6.328 8.993-5.809 4.39.567 8.078 4.528 8.136 8.996.032 43.973-.02 87.95.028 131.922 26.773.035 53.558.008 80.34.016 1.542-.043 3.374.285 4.261 1.73 1.852 2.828.285 6.36 1.13 9.438.706 1.277-.395 2.426-.911 3.543-.613 1.324-2.094 2.004-3.488 1.91-30.168.016-60.344-.008-90.52.008-4.762.078-8.8-4.344-8.578-9.055 0-45.285.008-90.562 0-135.848.012-2.285-.219-4.66.61-6.851ZM1306.105 8.266c.961-3.301 4.047-5.891 7.497-6.188 2.726-.226 5.671-.203 8.113 1.223 1.816.972 2.773 2.875 3.902 4.508 18.43 27.53 36.809 55.105 55.23 82.644 2.81-3.574 5.09-7.547 7.692-11.285 16.008-24.082 32.004-48.18 48.008-72.266 1.48-2.347 3.773-4.304 6.598-4.726 2.894-.371 6.078-.406 8.644 1.207 2.469 1.64 4.168 4.515 4.059 7.523-.016 45.465-.004 90.938-.004 136.403-.043 2.097.191 4.254-.41 6.293-.95 3.003-3.41 5.644-6.54 6.351-5.44 1.453-11.21-3.465-10.808-9.016-.016-30.347.02-60.707.004-91.058-.05-8.195.105-16.402-.078-24.602-1.567 1.313-2.496 3.153-3.653 4.785-15.039 22.063-30.082 44.13-45.129 66.192-1.503 2.262-3.199 4.61-5.738 5.777-4.441 2.07-9.086-1.316-11.277-5.074-15.746-23.14-31.504-46.273-47.238-69.426-.493-.601-.868-1.476-1.7-1.601.035 37.468-.007 74.941.02 112.41-.016 1.375.031 2.75-.09 4.125-.52 4.148-4.3 7.797-8.582 7.656-4.645.344-9.012-3.973-8.723-8.617.012-45.29 0-90.578.008-135.871.07-2.453-.219-4.934.195-7.367ZM175.602 5.418c1.824-2.258 4.832-2.945 7.609-2.91 19.086.012 38.176.012 57.266 0 5.73.324 11.523.445 17.136 1.75 12.637 2.629 25.227 8.93 32.465 19.984 5.7 8.574 8.004 19.184 7.074 29.387-.55 7.664-3.035 15.258-7.527 21.523-5.27 7.41-13.031 12.785-21.438 16.07-4.027 1.817-8.398 2.594-12.597 3.891 12.715 16.309 25.351 32.676 38.05 49 1.567 1.867 3.376 3.79 3.657 6.332.437 5.293-4.719 10.254-9.996 9.649-2.988-.164-5.426-2.262-7.235-4.48-13.46-17.434-26.906-34.876-40.367-52.31-1.36-1.644-2.492-3.468-3.98-4.995-8.13-.246-16.285-.032-24.418-.106-6.735.063-13.477-.129-20.203.102.023 17.379.007 34.761.007 52.144.211 5.059-4.277 10.016-9.457 9.672-3.328.078-6.191-2.348-7.55-5.238-1.188-2.524-.907-5.387-.926-8.09-.004-44.066.012-88.129-.012-132.195-.097-3.184.031-6.786 2.442-9.18m15.511 13.457c.016 21.23-.039 42.465.02 63.691 12.965-.043 25.933-.004 38.898-.02 7.38-.01 14.895.29 22.098-1.605 7-1.476 13.746-4.746 18.824-9.851 10.961-10.965 11.266-30.934.14-41.89-7.14-6.958-17.308-9.602-26.991-10.294-17.665-.078-35.325-.02-52.989-.031ZM492.785 2.867c1.215-.265 2.457-.344 3.707-.36 13.543.016 27.09 0 40.637.009 9.285.015 18.75-.075 27.781 2.418 10.758 2.53 21.067 8.066 28.207 16.636 4.465 5.305 7.477 11.73 9.117 18.45 1.68 8.097 1.75 16.539.036 24.64-1.993 8.543-6.407 16.547-12.817 22.567-9.726 9.378-23.015 14.191-36.219 15.902-3.113.219-6.214.7-9.336.625-13.37-.012-26.738.02-40.109-.016-.226 15.926-.016 31.86-.105 47.782-.157 4.484-4.133 8.77-8.75 8.601-3.497.234-6.524-2.344-7.926-5.367-1-1.988-.68-4.27-.727-6.41.004-44.774.004-89.54 0-134.309.024-1.59-.12-3.195.18-4.77.824-2.992 3.203-5.734 6.324-6.398m10.996 16c-.203 9.86-.031 19.723-.086 29.582.04 13.055-.09 26.114.067 39.168 12.836.125 25.668 0 38.508.063 8.203-.09 16.535-1.407 24.007-4.938 6.88-3.199 12.93-8.57 16.141-15.539 3.156-6.246 3.508-13.531 2.586-20.363-1.043-8.278-5.84-15.93-12.762-20.555-6.969-4.734-15.41-6.71-23.703-7.367-14.918-.11-29.84-.012-44.758-.05Zm0 0" style="stroke:none;fill-rule:nonzero;fill:#929397;fill-opacity:1"/><path d="M1044.805 7.543c3.28-3.805 8.011-6.305 13-6.93 3.254.028 6.515-.031 9.773.149 3.95.883 7.781 2.691 10.559 5.703 3.25 3.176 4.863 7.5 6.668 11.566 16.582 37.242 33.148 74.492 49.734 111.735 1.258 3.03 2.777 5.945 3.945 9.011 2.778 7.043-.765 15.649-7.308 19.235-3.645 2.234-8.149 2.496-12.262 1.765-5.586-1.129-10.043-5.523-12.258-10.644-2.496-5.742-4.847-11.543-7.308-17.301-1.184-2.559-1.985-5.344-3.45-7.738-16.949-.305-33.89-.059-50.843-.09-6.035.14-12.055-.531-18.07.062-3.712 8.743-7.481 17.454-11.223 26.18-2.258 5.149-7.239 9.113-12.875 9.738-3.41.352-7.043.168-10.086-1.554-4.477-2.293-7.766-6.817-8.352-11.832-.62-3.75.633-7.461 2.309-10.766 17.527-39.543 35.012-79.105 52.527-118.652 1.41-3.43 3.02-6.852 5.52-9.637m-4.832 85.793c14.375-.004 28.754.062 43.136-.031a13662.454 13662.454 0 0 0-21.57-51.243c-7.207 17.086-14.418 34.165-21.566 51.274ZM1200.406.902c5.969-.48 11.969-.343 17.953-.125 13.309 1.153 26.473 4.95 38.032 11.727 2.445 1.445 5.074 2.797 6.851 5.101 3.727 4.645 4.746 11.426 2.125 16.844-3.129 7.387-12.336 11.172-19.836 8.574-2.93-1.03-5.433-2.925-8.215-4.246-9.043-4.773-19.039-8.351-29.386-8.105-3.805.297-7.739.594-11.157 2.426-3.726 1.648-6.964 4.933-7.628 9.066-.45 2.957-.25 6.14 1.074 8.856 2.375 4.18 6.965 6.23 11.218 7.988 15.13 5.66 31.489 7.683 46.047 14.933 6.504 3.149 12.664 7.356 17.133 13.114 4.34 5.59 6.735 12.539 7.36 19.55.906 8.7-.059 17.68-3.493 25.766-2.664 6.215-6.808 11.805-12.078 16.047-7.031 5.785-15.715 9.234-24.554 11.082-24.098 4.395-49.747-.55-70.582-13.395-3.11-2.011-6.497-3.855-8.668-6.957-4.438-6.003-4.188-15.175 1.093-20.601 3.086-3.258 7.578-5.246 12.102-4.95 4.055-.261 7.926 1.481 11.055 3.946 12.425 9.18 28.023 14.664 43.574 13.11 5.148-.715 10.57-2.184 14.25-6.09 4.87-5.11 4.629-14.665-1.426-18.77-7.098-4.984-15.785-6.793-23.965-9.227-8.379-2.129-16.754-4.382-24.812-7.539-9.059-3.554-18.141-8.59-23.586-16.949-5.082-7.52-6.367-16.863-6.219-25.754.168-9.988 3.504-20.015 10.035-27.656 8.79-10.594 22.29-16.145 35.703-17.766ZM813.883 5.168c3.508-2.82 8.176-3.727 12.586-3.629 4.761-.035 9.746 1.125 13.41 4.328 3.242 2.64 5.023 6.516 7.246 9.957 12.734 20.727 25.45 41.465 38.184 62.188 14.238-22.57 28.078-45.414 42.222-68.055 2.383-3.703 6.024-6.793 10.426-7.707 5.242-1.156 10.934-1.078 15.945 1.008 6.168 2.707 10.176 9.312 10.047 16.008 0 41.12.004 82.238 0 123.359.008 4.762-1.879 9.566-5.398 12.828-5.762 5.594-15.578 6.324-22.063 1.574-4.328-2.988-7.015-8.109-7.191-13.347-.043-26.051.047-52.114-.043-78.168-8.848 13.199-17.203 26.742-25.875 40.062-2.477 3.692-4.512 7.793-7.969 10.711-3.16 2.817-7.484 4.324-11.71 3.961-5.278-.363-9.934-3.695-12.72-8.086-8.71-13.305-17.34-26.664-26.03-39.98-1.376-1.957-2.427-4.149-4.075-5.903-.18 24.414-.027 48.836-.078 73.25.023 3.743.187 7.7-1.606 11.118-2.242 4.746-6.843 8.292-11.988 9.257-3.89.52-8.058.254-11.5-1.797-5.394-2.84-8.644-8.894-8.633-14.925-.015-41.305 0-82.618-.004-123.93-.023-5.39 2.418-10.86 6.817-14.082Zm0 0" style="stroke:none;fill-rule:nonzero;fill:#f4d628;fill-opacity:1"/></svg>