<svg xmlns="http://www.w3.org/2000/svg" viewBox="0 0 105 24"><g fill="#5E6DF2"><path d="M29.895 23.181v-2.839h-7.167v-2.636h6.836v-2.8h-6.836v-2.764h7.167v-2.84H19.668v13.88h10.227Z"/><path fill-rule="evenodd" d="M44.667 8.106c1.002.81 1.508 1.936 1.508 3.35a4.723 4.723 0 0 1-2.65 4.324l3.049 4.993h-3.477L40.41 16.37h-2.196v4.403h-3.06V6.896h5.723c1.538 0 2.814.407 3.79 1.21Zm-4.292 1.627h-2.16v3.818h2.16c1.865 0 2.767-.656 2.767-1.938s-.879-1.88-2.767-1.88Z" clip-rule="evenodd"/><path d="M61.112 18.632c-.92 1.25-2.143 1.886-3.639 1.886a4.034 4.034 0 0 1-2.925-1.153c-.786-.77-1.184-1.83-1.184-3.154 0-1.323.398-2.343 1.184-3.094a3.854 3.854 0 0 1 2.77-1.153 4.257 4.257 0 0 1 3.56 1.825l.054.078 2.062-2.114-.044-.055c-1.392-1.733-3.24-2.613-5.495-2.613-2.058 0-3.793.659-5.158 1.977-1.366 1.318-2.07 3.055-2.07 5.212 0 2.127.697 3.865 2.071 5.167 1.374 1.302 3.158 1.958 5.247 1.958 2.313 0 4.202-.879 5.613-2.612l.043-.054-2.04-2.174-.049.073Z"/><path fill-rule="evenodd" d="M71.38 6.896h2.873l.012.049 5.378 13.828h-3.166l-1.005-2.487h-5.345l-.983 2.487h-3.168l.04-.107 5.364-13.77Zm-.224 8.648h3.324l-1.663-4.396-1.661 4.396ZM93.146 10.514c1.001.809 1.51 1.936 1.51 3.35A4.723 4.723 0 0 1 92 18.182l3.049 5h-3.477l-2.687-4.405h-2.196v4.405h-3.06V9.302h5.728c1.539 0 2.79.403 3.79 1.212Zm-4.295 1.628h-2.162v3.816h2.162c1.86 0 2.764-.656 2.764-1.938s-.877-1.878-2.764-1.878Z" clip-rule="evenodd"/><path d="M99.624 8.098h3.04v12.674h-3.04V8.098ZM99.318 3.958l1.406-3.332 3.347 1.413-1.406 3.331-3.347-1.412ZM7.212 14.407l3.913-7.511h3.115v13.877h-3.074v-7.924h-.036l-2.963 5.356h-1.99l-2.964-5.348h-.038v7.909H.097V6.896h3.116l3.935 7.511h.064Z"/></g></svg>