<svg xmlns="http://www.w3.org/2000/svg" viewBox="0 0 600 177"><path fill="#00a1df" d="M89.3 170c-44.8 0-81.1-36.3-81.1-81.1C8.1 44.1 44.5 7.7 89.3 7.7s81.1 36.3 81.1 81.1S134.1 170 89.3 170ZM89.2-.2C40.2-.2.3 39.5.3 88.3s39.9 88.5 88.9 88.5c49 0 88.9-39.7 88.9-88.5.1-48.8-39.8-88.5-88.9-88.5Z"/><path fill="#00a1df" d="M66.7 128.1c-13.4-6.3-22.7-20.5-22.7-37 0-8.7 2.6-16.8 7-23.3l29.2 43.6h17.7l29.2-43.6c4.4 6.6 7 14.7 7 23.3 0 15.4-8.1 28.7-20 35.6l5.6 21.6c21.5-11.1 36.1-33.4 36.1-59.2 0-24.4-13.1-45.6-32.6-57.2l-34 52.4-33.6-52.6c-19.7 11.6-33 33-33 57.4 0 26.7 15.7 49.8 38.4 60.3l5.7-21.3ZM245.2 97.6 223.4 51H212v74.8h11.4v-50l17.6 36.5h8.5l17.1-36.5v50H278V51h-11.4ZM320.6 105c0 8.2-5 11.9-11 11.9s-10.7-3.6-10.7-11.9V72.5h-10.7v34.1c0 6 1.3 11.1 5.4 15.1 3.2 3 7.7 4.8 13.1 4.8 5.4 0 10.5-2 14.2-6v5.4h10.5V72.6h-10.7V105h-.1ZM352.3 110.5V51h-10.7v60.1c0 7.9 4.4 14.7 14.6 14.7h6.6v-9.1h-4.7c-4.3 0-5.8-2.1-5.8-6.2ZM376.7 94.8c.1-3.2.3-4.8 1.4-7.2 1.7-4 5.6-6.7 10.6-6.7s8.8 2.7 10.5 6.7c1 2.4 1.4 4 1.5 7.2h-24Zm11.9-22.9c-13.6 0-22.6 10-22.6 27.2 0 20.3 10.6 27.3 24 27.3 9.4 0 14.5-2.8 19.9-8.3l-6.9-6.4c-3.8 3.8-7 5.5-12.9 5.5-8.7 0-13.6-5.7-13.6-14.9h34.6v-4.7c.1-15.1-8.2-25.7-22.5-25.7ZM464.1 89.1c-3.2-2.8-7.1-4.5-14-5.6l-8.5-1.3c-3.4-.5-6.5-1.8-8.4-3.4-2-1.8-2.8-4.2-2.8-7 0-6.6 4.8-11.7 13.6-11.7 6.3 0 11.7 1.4 16.3 5.7l7.2-7.1c-6.4-5.9-13.3-8.5-23.2-8.5-15.6 0-25 8.9-25 22 0 6.1 1.8 10.8 5.5 14.3 3.2 3.1 8.1 5.1 14.2 6l8.8 1.3c4.4.6 6.3 1.4 8.2 3.2 2 1.8 3 4.5 3 7.8 0 7.2-5.7 11.4-15.4 11.4-7.7 0-13.6-1.7-19.1-7.1l-7.6 7.4c7.1 7.2 15.2 9.9 26.5 9.9 15.7 0 26.9-8.2 26.9-22-.1-6.3-2.1-11.6-6.2-15.3ZM506.4 113.8c-2 2-4.7 3.1-7.9 3.1s-5.8-1.1-7.8-3.1c-3.3-3.2-3.7-8.8-3.7-14.6 0-5.8.4-11.3 3.7-14.6 2-2 4.6-3.1 7.8-3.1 3.1 0 5.9 1 7.9 3.1 3.2 3.2 3.7 8.8 3.7 14.6 0 5.7-.5 11.3-3.7 14.6Zm-7.9-41.9c-7.2 0-12.4 2.7-15.9 6.3-5 5.3-6.3 12-6.3 20.9 0 9 1.3 15.8 6.3 21 3.4 3.6 8.6 6.3 15.9 6.3 7.2 0 12.5-2.7 16-6.3 5-5.3 6.3-12 6.3-21 0-8.9-1.3-15.7-6.3-20.9-3.5-3.5-8.8-6.3-16-6.3ZM531.6 65.3v8.2h-6.1v8.2h6.1v44.1h10.7V81.7h10.6v-8.2h-10.6v-7.7c0-3.9 1.9-6.2 5.9-6.2h4.7v-9.2h-6.7c-10 .1-14.6 7.3-14.6 14.9ZM576.4 57.3h-10.7v16.2h-6.1v8.2h6.1V111c0 7.7 4.6 14.8 14.6 14.8h6.4v-9.1h-4.4c-4 0-5.9-2.3-5.9-6.2V81.7h10.3v-8.2h-10.3V57.3ZM599 69.8c-.2.6-.5 1.1-1 1.5-.5.4-.9.8-1.5 1-.5.3-1.2.4-1.9.4s-1.3-.1-1.9-.4c-.6-.3-1.1-.6-1.5-1-.4-.4-.8-1-1-1.5-.2-.6-.4-1.3-.4-2s.1-1.3.4-1.9c.2-.6.5-1.1 1-1.5.5-.4.9-.8 1.5-1 .6-.3 1.2-.4 1.9-.4s1.3.1 1.9.4c.5.3 1.1.6 1.5 1 .4.4.8.9 1 1.5.2.6.4 1.3.4 1.9-.1.8-.2 1.4-.4 2Zm.9-4.2c-.3-.7-.7-1.3-1.3-1.8-.5-.5-1.1-.9-1.8-1.2-.7-.3-1.4-.4-2.2-.4-.8 0-1.5.2-2.2.4-.7.3-1.3.7-1.9 1.2-.5.5-.9 1.1-1.3 1.8-.3.7-.4 1.4-.4 2.2 0 .8.2 1.6.4 2.3.3.7.7 1.3 1.3 1.8.5.5 1.1.9 1.9 1.2.7.3 1.4.4 2.2.4.8 0 1.5-.2 2.2-.4.7-.3 1.3-.7 1.8-1.2s.9-1.1 1.3-1.8c.3-.7.4-1.5.4-2.3 0-.8-.1-1.5-.4-2.2Z"/><path fill="#00a1df" d="M594.5 67.5h-1.1v-2.1h1.4c.2 0 .3 0 .5.1.2 0 .3.1.5.2s.3.2.3.3c.1.1.1.3.1.5 0 .3-.1.5-.2.6-.1.2-.2.3-.4.3-.2.1-.3.1-.5.1h-.6Zm2.3.3c.3-.3.5-.7.5-1.3 0-.7-.2-1.1-.6-1.4-.4-.3-1-.5-1.8-.5h-2.6v6.7h1v-2.9h1.1l1.8 2.9h1.1l-1.9-3c.7-.1 1.1-.2 1.4-.5Z"/></svg>