<svg xmlns="http://www.w3.org/2000/svg" xml:space="preserve" viewBox="0 0 841.89 595.275"><path fill="#016D53" d="M768.72 468.166c3.764.531 5.75 1.137 7.157 1.701 10.076 4.166 8.933 13.463 17.796 17.93-9.995.711-25.39-9.793-24.953-19.631"/><path fill="none" stroke="#016D53" stroke-miterlimit="3.864" stroke-width=".271" d="M775.877 469.867c-1.407-.564-3.394-1.17-7.157-1.701-.437 9.838 14.958 20.342 24.953 19.631-8.863-4.467-7.72-13.764-17.796-17.93z"/><path fill="#016D53" d="M743.027 467.557c5.677.072 8.452 4.482 12.391 8.15 3.904 3.43 5.859 9.268 8.929 13.764-5.296-1.127-11.747-4.174-15.13-8.211-1.131-1.57-.553-4.383-1.39-6.066-1.169-2.569-3.358-5.085-4.8-7.637"/><path fill="none" stroke="#016D53" stroke-miterlimit="3.864" stroke-width=".271" d="M743.027 467.557c5.677.072 8.452 4.482 12.391 8.15 3.904 3.43 5.859 9.268 8.929 13.764-5.296-1.127-11.747-4.174-15.13-8.211-1.131-1.57-.553-4.383-1.39-6.066-1.169-2.569-3.358-5.085-4.8-7.637z"/><path fill="#016D53" d="M807.508 466.361zM801.58 458.639c.298 0 6.184 2.209 9.792 3.943-3.594-1.732-9.49-3.943-9.792-3.943zM785.405 462.852c3.6-1.941 11.426-4.225 16.175-4.213-4.751-.012-12.582 2.263-16.175 4.213zM807.394 466.434c-2.993 1.102-5.756 1.512-8.971 1.471-2.642-.008-4.918-.527-7.107-1.191 2.188.666 4.465 1.188 7.107 1.197 3.218.038 5.983-.376 8.971-1.477z"/><path fill="#016D53" d="M807.394 466.434c.01-.004.021-.006.039-.023a.35.35 0 0 1 .075-.049 71.435 71.435 0 0 0 5.842-2.68 52.689 52.689 0 0 0-1.978-1.1c-3.608-1.734-9.494-3.943-9.792-3.943-4.749-.012-12.575 2.271-16.175 4.213-.306.227-.598.32-.861.541 2.217 1.287 4.441 2.482 6.771 3.32 2.189.664 4.466 1.184 7.107 1.191 3.216.041 5.978-.369 8.972-1.47z"/><path fill="none" stroke="#016D53" stroke-miterlimit="3.864" stroke-width=".271" d="M801.58 458.639c.298 0 6.184 2.209 9.792 3.943-3.594-1.732-9.49-3.943-9.792-3.943zM785.405 462.852c3.6-1.941 11.426-4.225 16.175-4.213-4.751-.012-12.582 2.263-16.175 4.213zM807.394 466.434c-2.993 1.102-5.756 1.512-8.971 1.471-2.642-.008-4.918-.527-7.107-1.191 2.188.666 4.465 1.188 7.107 1.197 3.218.038 5.983-.376 8.971-1.477zM807.508 466.361z"/><path fill="none" stroke="#016D53" stroke-miterlimit="3.864" stroke-width=".271" d="M807.394 466.434c.01-.004.021-.006.039-.023a.35.35 0 0 1 .075-.049 71.435 71.435 0 0 0 5.842-2.68 52.689 52.689 0 0 0-1.978-1.1c-3.608-1.734-9.494-3.943-9.792-3.943-4.749-.012-12.575 2.271-16.175 4.213-.306.227-.598.32-.861.541 2.217 1.287 4.441 2.482 6.771 3.32 2.189.664 4.466 1.184 7.107 1.191 3.216.041 5.978-.369 8.972-1.47z"/><path fill="#016D53" d="m68.158 460.629 1.806.164-.063 4.861c-1.033 1.086-1.846 3.088-2.8 4.154-1.576 1.697-3.387 2.852-5.756 5.08 0 0-.524.195-.86 0-1.243 1.137-7.584 5.307-11.471 5.066l-3.782-.012c4.597-2.848 7.845-7.934 9.967-11.75.811-1.42 3.348-2.021 4.602-3.094 2.553-1.977 5.867-3.368 8.357-4.469"/><path fill="none" stroke="#016D53" stroke-miterlimit="3.864" stroke-width=".271" d="m68.158 460.629 1.806.164-.063 4.861c-1.033 1.086-1.846 3.088-2.8 4.154-1.576 1.697-3.387 2.852-5.756 5.08 0 0-.524.195-.86 0-1.243 1.137-7.584 5.307-11.471 5.066l-3.782-.012c4.597-2.848 7.845-7.934 9.967-11.75.811-1.42 3.348-2.021 4.602-3.094 2.553-1.977 5.867-3.368 8.357-4.469z"/><path fill="#016D53" d="M95.599 460.045c-.966 3.076-3.044 5.299-4.464 8.148-.633 1.361-.359 3.371-.847 4.49-2.745 5.32-10.062 7.553-15.713 10.018 2.036-3.602 3.689-7.824 6.326-11.438 3.459-4.743 9.692-8.413 14.698-11.218"/><path fill="none" stroke="#016D53" stroke-miterlimit="3.864" stroke-width=".271" d="M95.599 460.045c-.966 3.076-3.044 5.299-4.464 8.148-.633 1.361-.359 3.371-.847 4.49-2.745 5.32-10.062 7.553-15.713 10.018 2.036-3.602 3.689-7.824 6.326-11.438 3.459-4.743 9.692-8.413 14.698-11.218z"/><path fill="#016D53" d="M47.786 452.799zM31.065 458.072c-.964-.342-1.907-.828-2.841-1.234.936.406 1.876.894 2.841 1.234zM25.886 455.834c.182.041.405.203.579.26-.176-.061-.38-.223-.574-.264l-.005.004zM51.091 454.1zM49.409 453.365c.449.223.897.441 1.372.539-.478-.097-.923-.316-1.372-.539zM36.814 460.088c.008.191.148.234.648.234-.488-.004-.634-.045-.648-.234zM37.462 460.322l6.039.018h.001l-3.023-.008z"/><path fill="#016D53" d="M51.091 454.1c-.113-.07-.23-.174-.31-.195-.475-.098-.923-.316-1.372-.539-.411-.08-.822-.289-1.235-.365a.849.849 0 0 1-.388-.201c-2.945-.938-5.602-1.736-6.316-1.744l-2.245-.006-2.244-.006c-1.408 0-10.21 3.662-11.09 4.787.194.041.398.203.574.264.6.262 1.196.525 1.76.744.934.406 1.877.893 2.841 1.234 1.696.633 3.506 1.188 5.753 1.408.27.234-.024.51-.005.607.014.189.16.23.648.234l3.017.01 3.024.008c1.422.006 9.733-3.963 11.122-4.771a22.397 22.397 0 0 0-3.534-1.469z"/><path fill="none" stroke="#016D53" stroke-miterlimit="3.864" stroke-width=".271" d="M47.786 452.799zM49.409 453.365c.449.223.897.441 1.372.539-.478-.097-.923-.316-1.372-.539zM31.065 458.072c-.964-.342-1.907-.828-2.841-1.234.936.406 1.876.894 2.841 1.234zM25.886 455.834c.182.041.405.203.579.26-.176-.061-.38-.223-.574-.264l-.005.004zM51.091 454.1zM37.462 460.322l6.039.018h.001l-3.023-.008zM36.814 460.088c.008.191.148.234.648.234-.488-.004-.634-.045-.648-.234z"/><path fill="none" stroke="#016D53" stroke-miterlimit="3.864" stroke-width=".271" d="M51.091 454.1c-.113-.07-.23-.174-.31-.195-.475-.098-.923-.316-1.372-.539-.411-.08-.822-.289-1.235-.365a.849.849 0 0 1-.388-.201c-2.945-.938-5.602-1.736-6.316-1.744l-2.245-.006-2.244-.006c-1.408 0-10.21 3.662-11.09 4.787.194.041.398.203.574.264.6.262 1.196.525 1.76.744.934.406 1.877.893 2.841 1.234 1.696.633 3.506 1.188 5.753 1.408.27.234-.024.51-.005.607.014.189.16.23.648.234l3.017.01 3.024.008c1.422.006 9.733-3.963 11.122-4.771a22.397 22.397 0 0 0-3.534-1.469z"/><path fill="#070909" d="M455.223 72.991c.565 0 .831.271 3.104.277 2.482.71 5.263 1.692 7.819 2.31 1.65.359 3.642.374 5.349 1.185 2.217.862 4.727 2.305 6.718 3.799 1.933 1.315 3.652 3.44 5.874 5.462.577.566 1.408 1.541 2.204 2.571.854 1.342 1.154 3.177 1.961 4.718.064.418.843.842.901 1.261 1.074 2.233 2.745 6.983 2.745 7.553-.006.571-.54 2.402-.54 3.007 0 .631 1.748 4.985 1.73 5.554 0 .56-.611 2.685-.912 4.062-.253.135-.514.33-.561.553-.489 1.319-.778 1.957-1.343 3.238-.301.957.23 2.125-.054 3.274-.247.779-.572 1.631-.801 2.326-.022.537-.324 1.162-.618 1.523-2.21 1.965-3.848 4.132-5.003 6.74-.553.006-1.136.268-1.65.424-.012.159-.012.692-.034.967-.859.701-2.216 1.125-3.069 1.955-.865.729-1.696 1.978-2.563 2.557-.807.55-1.92.823-2.774 1.236 2.244 3.01 5.855 3.226 8.72 5.182 0 0 .265-.121.53 0 1.95 1.322 4.177 1.965 5.62 3.358 1.928 1.688 2.528 2.973 4.738 3.948v1.535c-.837 1.128-1.127.987-1.922 2.109-1.443 2.372-3.936 4.476-5.314 6.172-.606.975-2.269.864-3.347 1.549-.642.664-2.269 1.385-2.269 1.951 0 .572.796 1.237.802 1.55 2.239.541 2.822 3.219 5.026 5.04.289.276.312 1.09.842 1.668 1.743 2.44 2.586 4.757 2.852 7.135.266 2.268-.276 2.675-.276 3.243 0 1.942-3.676 3.829-4.213 3.829-.577 0-2.827-1.038-3.924-1.742-1.108-.704-1.674-2.086-2.245-2.784-.248 1.116-.316 3.082-.316 3.644 0 .566.587 4.045.587 4.613 0 .566-.807 3.5-.807 4.074 0 .576.53 1.667.53 2.372 0 .297 0 4.65-.012 5.185-.265 1.526-1.096 4.492-1.938 5.612-.022 1.832-.295 5.167-.295 5.736-.012 3.947-1.678 3.2-1.684 6.044 0 .825.294.973.83.973.565 0 3.947-.858 4.519-.858.565 0 5.037.716 5.608.716.566 0 .831-.43 1.403-.43.564 0 3.375.975 5.062 1.272.27.153.795.686 1.061.83 3.115 1.391 5.943 2.663 8.413 5.736.244.023.589.291.865.317 1.668 2.357 3.035 3.924 3.889 6.152.566 1.529 2.586 2.51 3.423 4.063 1.332 2.116 1.607 5.862 3.618 7.718-.012 6.837.253 6.43.253 8.528 0 .142-.529 1.948-1.072 2.367 1.084.424.277 1.696.543 2.539.235.698.576 1.982.576 2.652 0 .568-.079 1.139-.288 4.498-1.455.545-1.148 2.684-1.702 3.503-.549.71-1.657 1.402-1.962 2.101-.837 1.411-1.166 3.228-2.01 4.781-1.366.842-1.965 2.499-2.197 3.765-.254.136-.59.548-.831.984-.024.424.023 1.382-.318 1.944-1.889 2.072-3.052 6.336-4.501 8.88-.755 1.095-1.626 2.531-2.468 3.64-.82 1.082-1.993 1.407-2.776 2.458-.611.888-1.408 2.319-2.251 3.676-1.107 1.441-2.257 3.063-3.344 4.449 0 0 .216.063.21.352-1.897.208-3.106 3.059-3.905 3.866-.555.347-1.397.605-1.975.86 0 .248-.013.524-.23.582-.854.555-1.19 1.696-2.026 2.539-.854.483-1.685 1.396-2.817 2.193-.811.334-1.619.854-2.473 1.396-.283.046-.865.023-1.368.313-1.183 1.113-2.545 2.77-3.924 3.9-.018 1.99-.9 5.922-.9 6.5 0 .758.329 3.322 1.137 4.764.254.52.595.549.595 1.119-.006.762-.341.496-.549 1.063 0 .564 1.073 2.008 1.062 2.58 0 .766-.265 1.898-.265 2.469s-.271 1.404-.307 2.004c-.778.564-.835 1.139-.835 1.902 0 .566.063.578.034.623 2.544 1.662 5.62 3.313 8.124 5.305 1.374 1.102 2.565 2.811 3.913 4.158.588.885 7.257 8.703 7.257 9.545 0 .566-1.071 1.107-1.105 1.434-.52.293-.837.299-1.409.299-.566 0-4.997-1.686-7.559-2.516-.52-.033-1.097.248-1.928-.012-1.142-.277-3.063-.842-3.623-.842-1.131-.012-1.974 1.396-2.856 1.385-.565 0-3.901-.879-4.473-.879-.565-.008-1.367.336-1.934.336-.57-.012-8.949-1.963-9.527-1.963-2.261-.018.25.537-5.643.508-1.42 0-3.641 1.396-4.213 1.396-1.119 0-1.615-.807-3.335-.807-.572 0-.034-.537-.601-.537-.767 0-1.938.814-2.806.838-1.337.221-2.48-.301-3.605-.012-2.55.824-7.022 2.814-7.6 2.814-.564 0-1.662-1.146-1.662-1.713 0-.572 1.42-3.088 2.228-4.232 2.008-1.936 4.201-4.412 6.775-6.715.501-.289 1.13-.555 1.662-.842.53-.496.859-1.34 1.407-1.627.589-.303 1.368-.303 1.927-.838 2.251-1.713 5.621-4.289 5.621-5.037 0-.572-.525-3.646-.52-4.213 0-.564.543-4.213.543-4.777 0-.572-.595-5.92-.589-6.48 0-.809 1.126-5.627 1.42-6.406-1.414-.549-1.363-1.725-2.217-2.799-1.984-2.267-5.332-4.2-7.553-6.191-.641-.813-1.195-2.21-2.245-3.323-1.737-2.037-3.399-4.27-5.644-6.214-1.939-1.662-4.159-2.823-5.846-5.007-3.134-3.708-5.854-7.565-9.498-11.826-1.207-1.639-.93-3.913-1.74-5.725-.577-1.529-1.898-2.672-2.758-4.219-.402-.819-1.528-1.941-2.087-3.185-.202-.15.065-.727-.214-1.122-.489-.575-1.059-1.146-1.326-1.858-.645-2.342-3.433-11.46-3.421-15.825 0-.563-.012-2.649.324-4.046.433-1.13 1.362-2.792 1.399-3.364 0-.569-.638-1.841-.638-2.406.006-.665 1.69-5.718 2.754-8.522.082-.274.351-.274.558-.439.053-.958.933-2.254.933-2.922.038-1.273-2.813-2.407-3.104-2.678-2.025-1.685-5.336-1.814-7.913-2.245-1.691-.283-4.223-1.8-4.887-1.8-1.225 0-2.993 1.541-4.285 2.231-1.58.851-3.813 1.552-5.324 3.081-.862.849-1.408 2.377-2.251 3.667-.291.534-1.003 1.106-1.539 1.922-.409.595-1.687 3.809-1.694 5.329-.006.571-1.242 3.231-1.242 3.802 0 .671.687 3.91.687 4.487 0 .562-.441 2.498-.441 3.073 0 .559 1.271 1.419 1.439 2.227.251.696-.142 1.691.145 2.539.236.574 1.089 1.382 1.682 1.685.126.253.395.54.395 1.105-.006 1.428-1.829 1.835-2.51 1.829-.566 0-.555-.297-.979-.418-1.83-.424-4.074-.133-5.879-.698a146.267 146.267 0 0 0-7.875-2.39c-1.261-.294-2.737-1.246-4.051-1.95-2.116-1.14-4.492-2.115-6.189-3.632-2.233-1.824-4.183-3.382-6.566-5.05-1.529-.989-4.042-2.663-5.058-4.622-.139-.168-.344-.156-.563-.283-.705-.583-1.376-1.679-1.794-2.257-.715-.999-1.85-2.085-2.663-3.353-.728-1.272-1.703-3.534-1.971-5.468-.018-.43-.848-.86-1.261-1.558-.822-1.523-.721-3.65-1.267-5.464-.831-2.91-2.527-5.869-2.952-8.699-.257-1.388.012-3.072.012-4.475 0-.54-.574-1.096-.775-1.662-.486-1.55-.754-4.357-.754-4.928 0-.63.294-1.249.413-1.939.401-2.515.837-3.776.837-5.906.006-.57.141-3.618.693-5.158 1.817-5.058 5.06-10.944 7.592-13.751.114-.257.114-.424.138-.69.692-.978 1.649-1.546 1.967-2.366 1.445-2.559 3.203-5.879 5.442-8.147.274-.012.704-.285.964-.297.602-.678 1.546-1.754 2.389-2.492 2.383-1.983 5.641-3.954 8.853-6.458 1.95-1.491 4.315-2.242 6.265-3.229 2.513-1.269 6.061-2.668 9.298-4.157 2.642-1.16 6-1.033 8.796-1.451 1.581-.269 3.498-.418 5.348-.716.451-.12 1.214.28 1.581.156 1.766-.402 4.48-.919 5.055-.919.624.065 2.398.964 2.971 1.043.689 0 1.256-.534 1.86-.526.568 0 1.208.526 1.977.556.897.132 2.225-.303 3.347.052 2.243.767 4.202 1.604 6.481 3.004 1.595.86 3.639.577 5.373 1.296 1.059.434 2.164 1.149 3.042 1.511.268.152.268.424.527.557 1.402.566 3.099 1.14 4.475 1.864 1.986 1.138 2.274 2.77 3.647 4.055.034.671.034 1.375.046 1.983.849.682 1.661 1.381 2.504 2.061 2.764 1.951 6.187 4.377 7.525 6.491 1.177 2.342 2.02 7.388 2.02 7.951-.012.568-.611 1.266-.611 1.941 0 .563 1.996 3.509 1.996 4.074-.006.575-.808 2.375-.808 2.94-.006 1.284.773 3.37 1.362 3.916.282.721-.325 1.965.553 2.521l-.011 5.361c0 .593-.524.406-.53.969 0 .568.53 1.375.519 1.941 0 .156-.23.866-.855 1.679.561 3.818-1.896 6.316-1.902 9.236 0 .467-.012.712.507 1.015.867.127 2.297.563 2.862.569.572 0 2.471-.43 3.041-.424.571 0 1.992.274 2.834.711l.508-.316c-.773-1.224-.536-3.19-.814-4.625-.294-1.662-1.367-4.325-1.367-4.887 0-.572.537-2.504.542-3.076 0-.569-.254-3.65-.542-5.222-.046-.809-.589-1.386-.894-2.089-.227-.26.063-.811.028-1.194-.808-2.159-2.828-10.163-2.816-13.654l.006-3.358c0-.568-.52-1.117-.52-1.662-.017-2.539-1.119-5.197-1.713-7.718-.249-.688.253-1.685-.035-2.266-.808-1.516-.837-3.051-.837-4.188 0-.571.306-2.245.56-3.477.623-4.377 1.42-9.134 2.308-13.768.25-.975 1.617-1.817 1.969-2.799.26-.424.271-1.267.784-1.834 1.16-1.798 2.527-3.14 3.688-4.473a655.715 655.715 0 0 0 8.656-3.927c.283-1.82 1.166-5.459 1.166-6.021 0-.568-.866-4.207-1.409-6.311-.046-.262-.576-.692-.831-.972-.08-2.654-4.529-5.874-6.75-5.879-.577 0-.612.332-1.155.612-.519.213-1.35-.061-1.673.138-1.085.5-1.95 1.914-2.771 2.178-.571.167-1.685.461-2.516 1.013-.854.678-1.697 1.725-2.517 2.511-.899 1.107-2.03 4.887-2.03 6.71 0 1.279.899 1.826 1.726 4.057 0 0-.266.162-.282.552l-2.21-.083c-3.383-.021-7.329-2.688-9.563-5.23-.541-.563-.588-1.812-1.112-2.375-2.28-3.307-5.408-8.549-6.11-12.765-.062-.689.218-1.545.218-2.171.006-.601-.358-2.706-.358-3.283.006-.563-.144-1.778.327-2.649 1.151-2.946.314-5.557 1.419-7.956 1.42-3.257 3.656-6.196 5.371-8.816.561-.837 1.897-1.592 2.74-2.284 1.73-1.423 2.833-2.777 4.824-4.162 1.05-.601 1.649-1.612 2.492-2.161 4.212-2.647 10.053-5.19 14.311-5.043 1.928.049 5.004-1.682 5.581-1.682"/><path fill="#DA1F31" d="M393.286 155.249c.604 0 3.912 1.105 5.813 1.394.892.147 2.025.554 2.938.588.768.122 1.593-.152 2.181.037 1.884.647 3.129 2.241 5.374 3.287 8 3.382 13.661 11.501 17.62 18.577 3.064 5.279 4.986 11.695 5.84 17.454.035.854-.242 2.695-.242 3.353l-.011 2.952c0 .571.795 2.085.593 2.648 0 .577-.57 6.348-1.182 9.66-.26.883-1.085 2.256-1.686 3.092-.797.725-1.674 2.098-3.07 2.42-1.119.385-2.747-.317-3.878-.14-.623.248-1.679 1.404-2.871 2.219-2.772 1.543-5.833 3.938-7.601 6.583-2.113-.117-1.962-1.552-3.63-2.365-1.335-.563-3.021-.861-4.166-1.146-3.056-.693-8.446-1.11-9.012-1.11-.567 0-4.647.159-5.211.159-.604 0-2.961.115-4.276.533-1.644.442-3.073 1.703-4.735 2.819-1.004.692-3.941.987-4.323 3.214-1.035.837-2.686 1.134-3.383 2.395-2.673 5.032-3.091 3.789-3.105 6.722 0 .563-1.113 2.377-1.267 3.512-.276 1.653-.952 4.339-.957 4.911l-.012 4.722c-.006 2.545 1.393 3.371 2.521 6.458-3.903-1.244-7.582-2.383-11.353-3.76-3.082-2.96-7-5.753-9.798-8.984-.43-.548-.669-1.423-1.414-2.079-.831-.573-2.092-1.008-2.79-1.851a137.625 137.625 0 0 1-5.33-6.698c-.563-.723-.695-1.856-.842-2.825-.012-.28-.575-.699-.825-1.243.25-.97.257-2.095.113-2.958-.548-.433-1.105-1.27-1.409-2.118-1.09-2.504-.969-5.303-1.52-7.828-.304-1.679-1.264-3.388-1.953-5.199-.43-1.267-.441-3.901-.441-4.463 0-.571.998-5.626 1.399-8.422.138-1.394.144-3.783.715-5.188.308-.848.831-2.085.831-2.657 0-.568-.698-.842-.698-1.405 0-.571.854-1.69.989-2.51.133-.698.175-1.515.175-2.097.084-.571.788-.721.927-.984.297-.436.292-1.122.321-1.835.25-.274.801-.28 1.225-.571.436-.401.699-.831.914-1.261.512-.116 1.264-.413 1.544-.964a24.236 24.236 0 0 1 1.774-3.226c.4-.543 1.527-.849 2.1-1.278.836-.692 1.233-1.535 1.812-2.233.115-.424-.154-1.277.144-1.674.983-1.119 2.366-.831 3.5-1.486.259-.337.424-1.307.981-1.472 3.625-1.515 5.051-3.765 8.967-5.736.692-.283 1.123-1.215 1.134-1.964 1.089-.006 1.788-.54 2.642-.563.431-.394.861-.987 1.255-1.685.729-.268 1.546-.975 2.104-1.111.548.13 1.133.13 1.558.006.963-.831 2.232-1.128 3.346-1.622.554-.202.957-.779 1.68-1.463 1.954-.011 4.378-.499 6.755-.854 3.061-.542 8.658-.263 9.232-.263.569.006 1.4-.424 1.974-.424"/><path fill="#221F20" d="M290.88 436.773c1.339.006 7.953 1.967 11.653 3.076.071 1.107 1.606 2.238 1.606 3.381 0 1.125-2.079 4.178-2.39 6.463-.657 3.285-.799 7.004-1.387 10.646-.292 1.943-.301 3.908-.996 5.604-.843 2.137-2.224 4.998-4.189 6.416-4.899 3.676-9.542 5.627-14.986 5.592-1.261 0-6.128-1.107-8.841-2.221-1.104-.527-5.334-8.137-5.334-10.895 0-1.131.704-2.637.842-4.043.563-6.898 1.833-14.793 11.489-20.367 1.851-1.113 5.078-1.734 8.154-2.766 1.535-.325 3.118-.891 4.379-.886m-8.326-8.455c1.267.025 2.542.301 8.131.59 3.533.258 7.746 1.174 11.224 2.02 1.993.541 4.758 2.793 6.025 2.793 1.26 0 4.342-4.514 5.603-4.508 3.364.02 5.875 1.428 5.868 4.232 0 1.275 4.343 3.352 5.335 5.014.975 1.65 1.248 4.199 1.248 5.336 0 1.133-1.081 2.264-1.081 3.561 0 1.162 1.081.9 1.081 2.037 0 1.131-1.666 2.771-2.497 3.082-.124 1.373-1.116 3.047-1.116 4.172l-.006 5.904c0 2.527-4.905 12.92-4.905 13.445v2.008c2.969-1.715 5.591-3.971 9.247-5.891l1.249.564c.476 1.615 1.552 3.307 1.552 4.443 0 1.125-3.625 4.188-4.342 6.434-1.405.588-2.801 1.73-4.475 2.74-3.364 1.76-10.246 3.193-11.512 3.188-2.371-.018-8.682-7.289-9.524-8.443l-1.365-.016c-1.425 1.182-3.26 3.143-5.219 3.924-8.91 2.867-12.458 5.064-19.201 4.852-1.267-.023-5.68-1.195-7.707-1.756-1.517-.498-3.509-.018-5.587-.498-.992-.043-2.695-.592-4.161-1.434-4.137-2.516-8.744-5.088-12.612-9.273-2.537-2.781-3.708-8.945-3.708-11.727.006-6.779 4.219-15.121 8.543-19.654.992-1.125 1.848-3.381 2.826-4.477 2.53-2.561 6.776-5.615 10.625-7.826 1.699-.875 4.264-.887 6.165-1.494 4.221-1.578 10.369-3.537 14.296-3.342zM474.583 441.209c1.367 0 5.88 1.432 9.179 1.461 0 0 .025.543.585 1.102l-5.604 20.781c.877 1.904 1.438 4.482 1.432 5.816l-.006 5.943c-4.749 3.541-9.013 6.457-14.271 6.43-1.166 0-5.078-1.148-7.352-2.584-1.686-1.082-1.95-3.828-2.81-6.102-.797-1.934-2.471-6.416-2.471-7.547 0-1.137 1.426-4.195 1.386-5.928-.526-6.146 5.625-14.623 13.716-17.967 1.709-.792 5.056-1.598 6.216-1.405m41.985-43.953 3.694.02c.571 1.09 1.667 2.445 1.667 3.58 0 1.139-4.225 6.732-5.569 10.129-1.729 5.32-1.194 11.74-2.278 17.104-.53 2.465-2.821 6.717-2.821 7.854v10.623c0 1.133-2.534 4.203-3.042 5.945-.564 2.781-.053 6.162-.837 8.928-.559 2.502-2.821 9.551-2.821 13.428 0 1.137 1.627 3.109 2.263 4.813 1.367-1.703 3.911-4.502 6.693-6.439 1.373 1.125 1.708 1.898 1.708 2.691 0 1.18-.866.908-.866 1.779 0 5.01-9.279 14.537-15.13 14.316-1.167 0-2.504-.842-3.612-.854-1.442 0-3.429.266-5.066.23-3.069-.281-6.197-6.381-7.571-7.848-1.384 1.176-2.81 3.416-5.031 4.254-3.381 1.383-6.999 1.857-10.652 3.08-2.273.844-5.09.561-7.617.549-.542 0-1.085.994-2.25.865-1.362-.012-1.91-.354-6.43-.564-4.5.23-14.535-5.633-14.535-8.996 0-1.125-2.579-2.834-3.919-4.779-.836-1.367-.034-3.053-.836-4.205-1.453-3.037-1.737-5.898-1.737-8.363 0-1.135.295-4.807.589-7.084.254-1.381 1.916-3.285 2.793-4.729 1.432-2.527 2.827-6.396 5.354-9.209 1.963-2.02 4.71-4.49 7.808-5.908 4.507-2.215 14.011-5.043 15.183-5.033l16.215.277c1.166 0 6.718 1.963 10.099 2.518 1.95-3.625 3.116-7.318 5.056-10.898.577-1.119 2.77-2.248 3.335-3.164 4.249-8.076 11.545-16.742 20.163-24.91zM574.06 437.66c1.353.199 3.021 1.395 4.201 2.449.819.354 1.944.887 2.493 1.709 1.413 1.988 3.139 6.771 3.127 8.088v16.225s-.554.389-.854.904c.525 6.168-8.419 16.775-14.311 16.564-1.362-.01-5.32-.898-7.865-.668-3.37-2.701-9.475-10.871-9.475-15.066 0-1.154 1.367-2.295 1.379-3.33.312-3.658-.601-7.594.295-11.201.523-1.436 1.13-2.811 1.632-4.189 1.153-3.676 6.787-7.621 10.664-9.307.842-.289 1.442-1.418 2.556-1.639 1.981-.277 4.993-.539 6.158-.539m-14.275-7.592c1.36.006 2.527 1.074 3.623 1.08 11.2.564 13.722.6 14.901.6 1.347.012 11.446 3.949 16.743 6.98 6.48 3.648 10.631 12.072 11.457 16.861.067 1.375 1.357 3.613 1.357 4.744 0 14.818-9.975 22.436-21.493 29.418-1.69 1.08-4.755 1.096-6.705 1.119-.369.289-.878.82-1.442 1.109-3.624.57-10.329 1.928-11.495 1.928-1.362-.186-3.86-1.33-5.886-1.387-3.612-.496-7.801.041-11.206-.535-9.505-1.691-17.093-9.5-21.506-17.121-.846-1.639-2.038-4.773-2.038-6.1v-7.9c0-1.131.848-4.449 1.686-6.121 1.166-2.57 3.063-5.328 4.512-7.318.549-.814 2.258-1.656 2.781-2.256 3.947-5.893 11.537-10.146 17.104-11.719 2.769-.612 6.44-3.393 7.607-3.382zM158.68 393.027c5.059.023 6.627.035 13.745.254 2.091.021 4.613 1.701 7.205 2.604 3.162 1.344 8.771.52 10.589 4.195 1.546 3.088 1.673 6.738 3.367 9.268.871 1.383 2.99 1.648 3.771 3.01 2.253 3.713 3.43 9.258 5.886 12.957 4.201 6.691 6.723 13.938 13.753 18.754l8.539-38.148v-4.145c-1.62-.324-8.139-1.465-8.134-5.342 0-1.133 1.532-2.523 2.791-2.523 1.269.006.278 1.072 1.543 1.072 1.256.006 4.069-.859 5.335-.836 1.261.006 7.309.9 8.578.906 1.284.184 6.41-.834 7.677-.631 2.291.012 5.049.344 5.049 3.418 0 6.43-4.766 3.877-9.541 6.453-.673 2.773-1.523 5.885-2.033 8.695-.462 2.244-.139 6.711-.139 7.855 0 1.303-2.158 3.6-2.942 5.594-1.731 4.479-3.142 13.17-3.142 14.482l-.006 6.246c0 1.137-4.617 12.004-4.617 13.135v7.293c0 1.137-1.962 8.979-3.229 13.121-.839 2.777-1.676 6.488-1.953 8.783l-2.109-.01c-1.267.01-8.676-5.967-11.85-9.58-1.861-1.98-2.926-4.467-4.55-6.965-.837-1.193-1.391-3.395-1.902-5.115-.438-1.607-2.148-3.264-3.185-4.961-2.427-3.686-4.299-8.455-7.394-12.365-1.392-1.686-4.193-3.635-5.815-6.158-1.407-2.209-1.032-4.771-1.867-7.021-.131-.525-1.071-1.357-1.675-2.256-.812-1.375-.571-3.598-1.287-4.732-1.806-2.775-4.42-4.75-6.147-7.564-.242-.313-.833-.873-1.063-1.697-.291 2.537-.349 5.867-1.011 8.666-.301 1.186-1.81 3.09-2.771 5.066-.571 1.16.346 3.383-.299 4.531-2.296 4.436-2.584 8.383-2.017 12.318-4.062 4.168-1.657 8.98-2.584 13.695-.34.549-.851 1.412-1.192 1.73-.135 1.91-.646 3.629-.292 5.586-.376.549-.836.584-.836 1.91 0 1.453 4.068 5.955 5.323 6.984 1.123.656 1.691 2.594 3.284 4.256-1.605 1.107-3.278 1.113-4.544 1.107-1.261-.006-5.684-1.09-6.951-1.102l-12.052-.26c-1.302 0-7.487 1.367-8.756 1.367-1.252-.006-2.611-.074-3.837-.57l-.114.318v-1.959c1.71-2.838 5.706-3.068 8.458-4.477 1.086-.553 1.323-2.225 2.65-3.354 1.691-1.447 3.413-3.143 4.135-5.055.19-.316-.294-1.172-.195-2.25.41-2.34 1.813-5.031 2.027-7.854.21-1.932.28-4.189.536-5.943.276-1.91 1.544-3.947 2.242-6.105 2.75-8.137 3.032-17.705 7.153-26.359.969-1.963 2.737-11.508 2.743-16.211 0-1.133-1.541-3.674-1.679-5.371-2.794-1.396-5.827-2.805-8.909-4.465-.476-.289-.488-.83-1.119-1.42 2.166-1.43 4.836-1.971 7.359-2.825M393.369 427.777c1.308.006 2.367.346 3.561.541 2.17 0 16.786 9.551 17.861 10.141 1.184 3.305 3.65 6.426 5.096 9.797.546 1.176.023 3.348.292 4.723.276 1.422 1.95 3.107 1.95 4.246 0 1.125-2.504 8.436-4.261 12.584-.747 1.387-2.725 3.123-4.397 5.068-.29.299-.023.887-.023 2.203 0 1.137-9.543 8.664-15.4 11.818-3.365 1.709-7.104 2.811-10.677 4.686l-2.239-.162c-.563-.43-1.201-.609-1.201-1.736 0-1.102 4.318-6.467 5.428-10.426.886-3.268 2.853-6.395 3.618-9.73 1.195-5.887 1.694-12.604 3.458-19.037.746-2.244 2.231-5.904 2.231-7.035s-1.393-3.605-1.686-4.994c-.563-2.311-5.123-4.838-7.362-4.838-1.289-.041-2.904.299-3.645.865-4.009 3.094-7.66 7.055-11.045 10.676-.135 2.25-1.264 5.008-1.533 7.836-.161 2.268.675 4.762.251 7.012-.551 2.469-1.812 4.727-2.242 6.977-1.007 4.523-2.668 9.256-4.749 14.066 1.941.967 3.912 1.908 6.033 2.473.109.57-.006 1.389.556 1.979-.563.57-.574 1.119-1.151 1.402a20.919 20.919 0 0 0-5.152-.271c-4.517.564-13.198 1.625-14.465 1.625-1.261 0-2.074-1.066-3.34-1.072-1.261-.006-1.807.861-3.062.855-1.275-.006-5.628-1.426-8.174-1.98-.565-.541-.683-.258-.683-1.389 0-3.348 6.171-3.375 7.438-5.727.837-1.814.85-4.127 1.376-6.385.448-2.465.854-5.566.86-6.701 0-4.207 2.239-10.889 2.814-12.863 1.522-4.5 1.941-11.23 4.869-15.666-.418-.301-.966-.645-1.243-1.16-.995 2.82-3.604 3.299-5.895 3.115-1.266-.012-4.351-.559-6.454-.928l-1.226-1.111c.551-1.088 1.09-1.93 1.238-2.813 2.838-1.623 13.878-8.375 18.364-8.352 1.267 0 1.107.881 1.556 1.096 2.08.32 5.161.578 7.259 1.988 1.708 1.141 2.539 4.176 4.917 6.438 5.032-5.023 13.572-10.064 20.279-9.834M621.967 399.225c1.167.014 2.556 1.133 3.896 1.373 9.849 1.373 11.269 6.221 11.269 11.83-.006 8.367-10.122 24.375-19.643 23.811-.566-.541-1.132-.855-1.132-2.004.006-2.533 6.5-3.629 6.5-9.75 0-1.137.233-1.201-.061-2.244-1.685-4.244-10.052-4.77-10.052-8.98v-6.498c0-1.137 1.103-1.08 1.385-1.396-.018-2.746 3.67-4.191 5.581-5.9.317-.248.895-.248 2.257-.242M663.468 428.92c1.351.012 1.625-.023 8.674.572 4.184.305 8.152 3.375 12.065 4.795.854-1.178 2.505-3.121 4.179-3.988 1.962.6 3.329 2.551 3.329 4.213 0 1.137-1.091 6.23-1.848 8.996-.316 1.432-2.346 1.961-3.986 2.828l-1.708-.012c-.575-1.975-1.65-3.906-2.188-5.615-.865-.318-2.365.012-3.37-.246-.871-.061-2.567-1.18-4.013-2.576l-6.397-.027c-.941 1.176-3.041 2.867-3.041 3.986 0 2.26 15.685 17.08 19.591 20.432 1.702 1.428 3.056 4.242 3.642 6.17.294.855-.289 1.42-.289 2.559 0 1.301 1.986 3.072 1.986 4.197 0 1.316-1.392 4.209-2.251 5.883-.555 1.096-2.251 1.938-3.37 3.035-1.096.854-1.085 2.814-2.25 3.904-3.324 2.57-10.329 5.041-15.691 5.674-5.431.82-26.883-2.008-32.752-4.557-1.709-.82-3.14-2.771-3.954-3.902-.818-1.217-1.69-3.926-1.69-5.082 0-3.025 3.882-9.736 6.769-11.162 2.747-1.355 7.783-.916 8.944-.885 3.054.037 6.729.867 6.669 3.672-.54.547-.522.033-1.878.033-1.179-.012-.884.525-1.253.543-1.021 1.686-3.013 3.947-4.945 5.658-.034.516-.022.504-.034 1.629 0 5.883 8.11 7.043 11.275 7.049 1.367.006 3.041-1.428 4.484-1.998 4.143-1.686 8.083-3.924 8.083-8.135 0-5.35-17.669-24.398-19.835-22.674-1.458 1.391-2.912-3.982-4.374-6.457-.165-.541-.165-.82-.165-1.963-.001-9.821 12.082-16.791 21.592-16.549"/><path fill="#DA1F31" d="M285.927 425.271c1.267.006 2.528.289 8.128.578 3.626.266 7.833 1.369 11.224 2.215 2.08.527 4.758 2.732 6.019 2.793 1.27 0 4.348-4.713 5.603-4.707 3.364.047 5.875 1.615 5.875 4.432 0 1.125 4.342 3.154 5.329 4.813.983 1.648 1.255 4.201 1.255 5.348 0 1.313-.987 2.453-1.089 3.578 0 1.137 1.089.873 1.089 2.004 0 1.137-1.668 2.781-2.505 3.092-.023 1.369-1.113 3.043-1.113 4.166v5.898c0 2.539-4.912 12.926-4.912 13.463v2.193c3.062-1.91 5.589-4.162 9.245-5.936l1.249.576c.557 1.457 1.552 3.143 1.552 4.279 0 1.131-3.523 4.201-4.336 6.434-1.405.596-2.798 1.727-4.459 2.789-3.377 1.725-10.264 3.301-11.528 3.137-2.369-.012-8.682-7.279-9.524-8.441l-1.278-.006c-1.507 1.379-3.346 3.326-5.312 3.924-8.844 3.055-12.458 5.061-19.201 5.031-1.261-.006-5.617-1.373-7.698-1.938-1.478-.301-3.511-.012-5.594-.301-.99-.242-2.695-.795-4.094-1.639-4.195-2.516-8.802-5.078-12.678-9.271-2.521-2.775-3.705-8.939-3.705-11.52.006-6.977 4.221-15.137 8.543-19.855.986-1.131 1.887-3.393 2.83-4.49 2.521-2.551 6.773-5.609 10.625-7.646 1.696-1.051 4.333-1.057 6.166-1.633 4.21-1.412 10.365-3.375 14.294-3.36"/><path fill="#FFF" d="M294.323 433.709c1.261.012 7.874 1.975 11.633 3.076.012 1.113 1.552 2.25 1.552 3.381 0 1.309-2.084 4.184-2.454 6.641-.598 3.129-.739 6.822-1.334 10.473-.286 1.947-.292 3.908-1.067 5.77-.759 2.006-2.147 4.832-4.112 6.254-4.905 3.854-9.536 5.619-14.977 5.586-1.27 0-6.137-1.107-8.844-2.217-1.113-.33-5.334-8.137-5.334-10.699 0-1.18.698-2.797.836-4.201.566-6.807 1.827-14.83 11.495-20.408 1.847-.924 5.121-1.715 8.148-2.57 1.536-.527 3.197-1.098 4.458-1.086"/><path fill="#DA1F31" d="m519.933 394.193 3.693.018c.584 1.102 1.668 2.463 1.668 3.594s-4.23 6.729-5.375 10.123c-1.924 5.32-1.383 11.734-2.467 17.092-.33 2.48-2.821 6.729-2.821 7.859l-.006 10.623c0 1.137-2.527 4.207-3.036 6.146-.564 2.738-.059 6.162-.636 8.723-.771 2.506-3.022 9.551-3.022 13.422 0 1.145 1.627 3.117 2.448 4.814 1.182-1.697 3.727-4.494 6.496-6.238 1.384 1.109 1.714 1.715 1.714 2.545 0 1.131-.86.867-.86 1.73 0 5.008-9.279 14.541-15.13 14.518-1.167-.02-2.505-.885-3.43-.885-1.625-.176-3.622.104-5.249.066-3.076-.289-6.197-6.186-7.583-7.854-1.378 1.365-2.804 3.611-5.021 4.385-3.381 1.254-7.005 1.773-10.651 3.15-2.286.771-5.09.561-7.617.355-.542 0-1.091 1.061-2.256 1.051-1.356-.033-1.91-.533-6.423-.561-4.507.039-14.541-5.824-14.541-9.193 0-1.127-2.574-2.822-3.913-4.777-.836-1.184-.047-2.891-.836-4.203-1.461-2.838-1.738-5.902-1.738-8.176 0-1.15.294-4.99.589-7.254.254-1.396 1.91-3.104 2.787-4.744 1.446-2.525 2.833-6.209 5.36-9.014 1.963-2.221 4.71-4.514 7.803-6.104 4.512-2.014 10.387-4.246 15.189-4.854l16.213.088c1.36.156 6.717 1.967 10.099 2.527 1.944-3.43 3.304-7.33 5.062-10.711.559-1.115 2.757-2.24 3.323-3.348 4.258-7.879 11.726-16.551 20.167-24.913"/><path fill="#FFF" d="M477.947 438.152c1.367.012 5.874 1.432 9.186 1.455 0 0 .013.543.578 1.113l-5.609 20.957c.889 1.715 1.443 4.494 1.438 5.633l-.006 5.939c-4.743 3.574-9.014 6.658-14.064 6.439-1.366-.012-5.278-1.156-7.552-2.563-1.697-1.107-1.962-3.66-2.811-6.121-.802-1.738-2.476-6.238-2.476-7.568 0-1.129 1.42-3.998 1.386-5.918-.531-6.146 5.631-14.6 13.722-17.959 1.712-.795 5.048-1.407 6.208-1.407"/><path fill="#DA1F31" d="M563.149 427.006c1.354.17 2.527 1.07 3.616 1.082 11.201.566 13.728.596 14.891.596 1.359.213 11.458 4.15 16.767 6.988 6.47 3.641 10.624 12.072 11.454 17.037.063 1.197 1.402 3.424 1.402 4.561-.195 14.82-10.029 22.639-21.547 29.42-1.686 1.09-4.743 1.096-6.705 1.125-.328.287-.877.818-1.431 1.107-3.636.576-10.336 1.938-11.517 1.932-1.353-.006-3.844-1.137-5.87-1.395-3.618-.316-7.808.207-11.201-.537-9.51-1.686-17.092-9.324-21.522-17.117-.843-1.635-2.032-4.77-2.032-5.906l.006-8.092c0-1.131.843-4.248 1.679-5.967 1.167-2.723 3.082-5.287 4.513-7.479.548-.617 2.263-1.463 2.787-2.252 3.948-5.896 11.536-10.119 17.099-11.516 2.775-.808 6.439-3.595 7.611-3.587"/><path fill="#FFF" d="M577.418 434.793c1.352.012 3.047 1.393 4.201 2.25.82.549 1.95.893 2.493 1.709 1.419 2.168 3.139 6.961 3.139 8.098v16.26s-.56.549-.865.854c.531 6.182-8.419 16.799-14.305 16.568-1.368 0-5.326-.891-7.865-.623-3.364-2.734-9.48-10.912-9.475-15.113 0-1.125 1.36-2.273 1.372-3.322.313-3.666-.588-7.596.301-11.068.53-1.564 1.132-2.943 1.639-4.127 1.143-3.871 6.781-7.818 10.658-9.498.837-.301 1.437-1.414 2.55-1.643 2.171-.085 4.973-.355 6.157-.345"/><path fill="#DA1F31" d="M162.053 389.969c5.086.023 6.621.029 13.736.26 2.104.012 4.619 1.691 7.205 2.781 3.173 1.154 8.771.336 10.603 4 1.533 3.096 1.662 6.945 3.353 9.469.887 1.381 2.99 1.455 3.777 2.822 2.262 3.9 3.487 9.254 5.886 13.137 4.195 6.518 6.726 13.76 13.779 18.564l8.51-38.143v-3.953c-1.576-.518-8.137-1.656-8.137-5.539 0-1.131 1.532-2.525 2.801-2.512 1.267.191.271 1.064 1.532 1.064 1.267.012 4.074-.844 5.335-.844 1.261.014 7.311 1.107 8.606 1.119 1.3 0 6.388-.842 7.649-.842 2.372.012 5.055.535 5.055 3.617-.006 6.238-4.764 3.689-9.548 6.465-.635 2.566-1.522 5.863-2.033 8.684-.431 2.244-.136 6.699-.136 7.854 0 1.137-2.162 3.412-2.88 5.609-1.778 4.457-3.208 13.162-3.208 14.293v6.412c0 1.146-4.613 11.822-4.613 12.959v7.289c0 1.137-1.965 8.979-3.232 13.146-.842 2.793-1.672 6.461-1.952 8.955l-2.122-.057c-1.261 0-8.636-6.102-11.842-9.73-1.825-1.973-2.873-4.467-4.546-6.971-.843-1.172-1.364-3.387-1.899-5.09-.427-1.639-2.147-3.1-3.157-4.789-2.45-3.891-4.33-8.645-7.424-12.557-1.399-1.691-4.2-3.637-5.823-6.164-1.396-2.002-1.02-4.766-1.833-7.018-.127-.525-1.037-1.152-1.707-2.26-.805-1.361-.574-3.594-1.29-4.732-1.805-2.586-4.42-4.754-6.142-7.559-.247-.318-.8-.873-1.069-1.703-.29 2.547-.349 5.869-.998 8.674-.314 1.371-1.813 3.08-2.72 5.061-.608 1.35.291 3.381-.361 4.725-2.29 4.242-2.573 8.184-2.017 12.318-4.056 3.979-1.644 8.986-2.528 13.506-.394.535-.905 1.414-1.239 1.922-.119 1.709-.655 3.428-.295 5.396-.38.553-.837.771-.842 1.908 0 1.447 4.075 6.107 5.323 7 1.123.83 1.699 2.574 3.292 4.236-1.607 1.113-3.28 1.113-4.548 1.113-1.267-.012-5.672-1.098-6.949-1.107l-12.052-.09c-1.267 0-7.485 1.197-8.76 1.197-1.255 0-2.617-.029-3.778-.576l-.174.326v-1.797c1.721-2.996 5.715-3.031 8.457-4.449 1.109-.58 1.365-2.219 2.656-3.35 1.686-1.639 3.409-3.342 4.195-5.078.131-.484-.354-1.338-.219-2.424.402-2.295 1.771-4.842 2.045-7.715.178-1.863.276-4.33.482-6.064.277-1.928 1.541-3.936 2.242-6.121 2.749-8.137 3.028-17.699 7.15-26.361.974-1.955 2.74-11.5 2.74-16.012 0-1.143-1.531-3.867-1.672-5.563-2.766-1.396-5.834-2.811-8.845-4.473-.549-.289-.561-.648-1.189-1.414 2.179-1.439 4.841-1.963 7.37-2.824M396.848 424.713c1.193.006 2.252.543 3.452.549 2.164.01 12.255 3.393 17.858 10.133 1.189 3.322 3.683 6.428 5.096 9.811.543 1.359.023 3.336.295 4.736.271 1.402 1.944 3.082 1.944 4.219 0 1.131-2.493 8.438-4.229 12.592-.771 1.396-2.747 3.115-4.427 5.064-.291.297-.017 1.086-.017 2.217 0 1.137-9.552 8.691-15.409 11.801-3.358 1.865-7.064 2.811-10.677 4.738l-2.232-.012c-.568-.555-1.132-.809-1.132-1.939 0-1.096 4.241-6.463 5.354-10.387.886-3.15 2.857-6.43 3.62-9.764 1.202-5.896 1.697-12.602 3.588-19.039.62-2.246 2.106-5.9 2.106-7.037 0-1.125-1.264-3.414-1.694-4.791-.556-2.516-5.122-5.037-7.355-5.043-1.317-.006-2.892.301-3.642.865-3.936 3.1-7.662 7.244-11.033 10.861-.055 2.252-1.281 4.818-1.47 7.658-.235 2.455.595 4.752.168 6.998-.546 2.477-1.807 4.744-2.243 6.979-.992 4.721-2.668 9.266-4.745 14.268 1.944.844 3.915 1.715 6.031 2.279.114.578-.013 1.398.56 1.975-.573.756-.579 1.119-1.153 1.408-1.662-.289-3.367-.334-5.063-.277-4.602.566-13.284 1.639-14.55 1.639-1.261-.01-2.08-1.078-3.341-1.084-1.267-.006-1.715 1.045-3.059.855-1.284-.008-5.634-1.422-8.177-1.975-.563-.426-.688-.135-.688-1.404 0-3.162 6.177-3.357 7.438-5.654.837-1.678.952-4.188 1.376-6.439.448-2.311.86-5.58.86-6.711 0-4.207 2.239-10.686 2.916-12.855 1.426-4.508 1.845-11.23 4.773-15.479-.424-.486-.969-.83-1.25-1.35-.992 3.018-3.523 3.324-5.892 3.313-1.27-.029-4.354-.561-6.451-1.107l-1.13-1.125c.455-1.092.998-1.941 1.142-2.799 2.819-1.639 13.872-8.391 18.365-8.367 1.267 0 1.107 1.068 1.552 1.102 2.08.482 5.164.561 7.262 1.979 1.709 1.328 2.534 4.18 4.912 6.441 5.036-4.852 13.557-10.071 20.391-9.842M625.336 396.154c1.33.014 2.557 1.139 3.901 1.369 9.833 1.4 11.265 6.426 11.265 12.025 0 8.176-10.127 24.393-19.644 23.619-.565-.365-1.13-.867-1.13-1.996 0-2.535 6.492-3.631 6.639-9.557 0-1.33.095-1.398-.193-2.256-1.703-4.426-10.058-4.756-10.058-9.166v-6.502c0-1.131 1.102-1.072 1.384-1.398-.022-2.537 3.817-4.18 5.574-5.906.323-.232.901-.232 2.262-.232M666.826 425.861c1.367.006 1.651-.035 8.685.576 4.185.496 8.148 3.375 12.056 4.986.865-1.373 2.516-3.313 4.177-4.189 1.969.602 3.364 2.551 3.364 4.213 0 1.137-1.113 6.422-1.744 9.002-.441 1.627-2.463 1.963-4.112 3.01l-1.708-.027c-.565-2.141-1.65-3.895-2.16-5.793-.893-.316-2.346.021-3.403-.035-.871-.258-2.563-1.377-3.977-2.775l-6.428-.023c-.934 1.176-3.039 2.855-3.039 4.176 0 2.254 15.683 16.889 19.595 20.234 1.696 1.578 3.054 4.443 3.637 6.174.288.848-.289 1.582-.289 2.748 0 1.131 1.985 3.059 1.985 4.205 0 1.125-1.396 4.209-2.257 5.875-.561.906-2.245 1.75-3.37 2.846-1.091.859-.954 2.816-2.245 3.902-3.329 2.566-10.192 5.047-15.695 5.814-5.561.68-15.372.906-16.545.896-5.69-.227-10.335-3.049-16.208-5.588-1.708-.826-3.14-2.775-3.959-3.906-.82-1.143-1.686-3.924-1.686-5.061 0-3.043 3.881-9.771 6.938-11.189 2.577-1.148 7.615-.865 8.78-.865 3.054.023 6.734.855 6.683 3.664-.554.549-.537.035-1.904.023-1.16-.006-.871.525-1.203.549-1.059 1.672-3.055 3.947-4.982 5.85-.034.318-.034.307-.034 1.432 0 5.885 8.124 7.033 11.4 7.248 1.242.006 2.915-1.627 4.353-2.191 4.148-1.686 8.09-3.926 8.09-8.139 0-5.348-17.674-24.402-19.708-22.678-1.578 1.396-3.042-3.975-4.502-6.451-.164-.363-.164-.828-.164-1.955-.002-9.831 12.075-16.605 21.579-16.558"/><path fill="#221F20" d="M811.672 457.553c-3.146-.877-8.615-3.98-9.804-3.994-1.356 0-2.585.336-3.591.289-.403-.289-.022-.824-1.39-.83-1.239-.012-7.981 1.383-11.375 2.744-.686-3.021 2.113-3.053 2.482-4.955.727-2.787.166-5.637.923-7.875.725-2.189 1.476-4.191 2.36-6.734-3.358.846-7.401 2.297-10.475 2.844-1.978.295-4.775.254-6.664.797-3.31.844-6.808 2.563-10.099 4.813.606-4.469 1.16-8.67 1.593-12.943-3.778 2.029-7.42 2.549-10.507 4.211-4.193 2.217-8.69 4.197-12.344 6.783-1.968 1.385-4.322 3.6-4.322 4.736-.135 2.48-1.822 2.543-2.959 4.98-2.245-2.459-1.207-6.371-2.511-9.223-1.408-.777-3.497-2.199-4.796-2.199-1.366-.006-6.716 1.059-10.051 1.945-1.259.32-3.089 1.133-3.677 1.943-.854 1.115-1.696 2.281-1.696 3.145-.016 6.137.877 8.406.877 9.742 0 1.131-.966 5.666-.966 7.006-.009 1.133.55 4.471.943 10.953.012.865.541 1.945.576 2.758 1.283 2.262 4.749 1.189 6.717 1.76 2.021.791 5.765 1.922 7.006 1.934 1.371 0 3.936-1.408 5.892-1.992.825-1.908 1.833-3.594 1.932-5.105.319-6.625-.54-8.344-.27-9.705-.271 2.77 1.317.824 1.297 8.678-.137 1.426.982 2.232 1.254 2.979 3.236 7.357 11.488 12.107 18.926 14.979 2.914 1.27 8.498.979 11.074 1.93 1.934.588 3.059 1.695 3.9 2.248v-4.166c-3.069-2.561-4.482-3.936-4.477-7.594 0-1.129-.024-.91.275-1.396 8.131 5.621 14.265 8.641 22.673 8.662l8.368.035v-1.68c-1.058-1.951-2.581-4.502-3.41-6.492-.734-1.904-.464-4.148-1.306-5.633-1.223-2.254-5.423-5.58-5.387-6.732.026-1.316-.187-.543.314-1.051 2.856 1.078 6.757 3.363 10.127 3.375 1.353 0 10.319-1.189 14.299-2.822 3.376-1.154 9.239-5.902 12.707-8.146v-1.674c-4.842-.58-9.954-1.926-14.438-3.328z"/><path fill="#221F20" d="M727.9 475.488c-.652.186-1.071-.006-1.672.547-.952-.609-1.975-1.43-4.231-1.43 0 0-.645.012-.629-1.127 0-1.148 1.501-2.527 1.513-3.701 0-1.137-1.463-1.035-1.438-2.172 0-1.137.481-1.662.555-7.807 0-.867 1.449-2.004 1.449-3.129 0-1.137-1.431-5.078-1.967-8.117 1.137-.555 2.81-1.434 4.16-1.422 2.507 0 1.985 5.598 1.985 6.746-.267 19.643.877 10.646.877 14.889 0 .784-.023 5.829-.602 6.723zM741.958 458.039v-2.211c2.188-1.945 3.217-4.738 4.479-6.469.253-.52.253-1.346-.263-2.26 4.753-4.463 9.482-5.865 13.695-9.473.227 2.27-3.411 9.264-3.411 10.402-.062 1.945-9.8 8.9-12.056 10.027l-2.444-.016zM758.214 465.328c.162.594.29.857 1.09.881v1.695c-.8.018-1.09-.006-1.686.543-.552-.254-3.068-1.695-4.759-2.537a52.879 52.879 0 0 0-5.857-2.482c1.68-1.131 2.756-1.455 4.35-2.857l2.355.012c-.542 1.148-.542 2.016-.964 2.846.939 1.637 3.429 2.196 5.471 1.899zM749.217 481.26c-1.147-1.57-.553-4.383-1.39-6.066-1.169-2.568-3.358-5.084-4.818-7.637 5.695.072 8.459 4.482 12.396 8.15 3.912 3.43 5.873 9.268 8.937 13.764-5.291-1.127-11.742-4.18-15.125-8.211zM761.549 461.932c1.426-3.572 3.075-6.73 4.213-10.033 1.967-1.951 4.25-3.924 5.763-5.574 1.201-1.148 3.752-2.518 5.726-3.148 1.78-.787 3.936-1.076 6.412-1.918-2.477 3.67-3.859 12.082-10.134 15.439-3.677 1.941-8.076 3.896-11.98 5.234zM793.673 487.797c-9.995.711-25.39-9.779-24.94-19.631 3.751.531 5.737 1.148 7.145 1.701 10.075 4.166 8.937 13.463 17.795 17.93zM798.423 467.904c-5.482-.018-9.695-2.049-13.885-4.512 2.974-1.979 11.798-4.766 17.042-4.754.333 0 9.023 3.293 11.793 5.049-5.862 3.024-9.764 4.393-14.95 4.217z"/><path fill="#016D53" d="M775.877 469.867c-1.407-.553-3.394-1.17-7.145-1.701-.449 9.852 14.945 20.342 24.94 19.631-8.857-4.467-7.719-13.764-17.795-17.93zM743.009 467.557c1.46 2.553 3.649 5.068 4.818 7.637.837 1.684.242 4.496 1.39 6.066 3.383 4.031 9.834 7.084 15.124 8.211-3.063-4.496-5.024-10.334-8.937-13.764-3.936-3.668-6.7-8.078-12.395-8.15z"/><path fill="#221F20" d="M751.352 460.57c-1.594 1.402-2.67 1.727-4.35 2.857a53.263 53.263 0 0 1 5.857 2.482c1.69.842 4.207 2.283 4.759 2.537.596-.549.886-.525 1.686-.543v-1.695c-.8-.023-.928-.287-1.09-.881-2.042.297-4.532-.262-5.471-1.9.422-.83.422-1.697.964-2.846l-2.355-.011zM727.625 453.877c0-1.148.521-6.746-1.985-6.746-1.351-.012-3.023.867-4.16 1.422.536 3.039 1.967 6.98 1.967 8.117 0 1.125-1.449 2.262-1.449 3.129-.073 6.145-.555 6.67-.555 7.807-.024 1.137 1.438 1.035 1.438 2.172-.012 1.174-1.513 2.553-1.513 3.701-.016 1.139.629 1.127.629 1.127 2.257 0 3.279.82 4.231 1.43.601-.553 1.02-.361 1.672-.547.578-.895.602-5.939.602-6.723 0-4.243-1.144 4.754-.877-14.889zM783.662 441.258c-2.477.842-4.632 1.131-6.412 1.918-1.974.631-4.524 2-5.726 3.148-1.513 1.65-3.796 3.623-5.763 5.574-1.138 3.303-2.787 6.461-4.213 10.033 3.904-1.338 8.303-3.293 11.979-5.234 6.276-3.357 7.659-11.769 10.135-15.439zM756.458 448.029c0-1.139 3.638-8.133 3.411-10.402-4.213 3.607-8.942 5.01-13.695 9.473.516.914.516 1.74.263 2.26-1.262 1.73-2.291 4.523-4.479 6.469v2.211l2.444.018c2.256-1.128 11.994-8.083 12.056-10.029z"/><path fill="#016D53" d="M784.538 463.393c4.189 2.463 8.402 4.494 13.885 4.512 5.187.176 9.088-1.193 14.95-4.217-2.77-1.756-11.46-5.049-11.793-5.049-5.244-.012-14.068 2.775-17.042 4.754zM725.64 447.131c2.507.012 1.985 5.598 1.985 6.746-.267 19.643.877 10.646.877 14.889 0 .783-.023 5.828-.602 6.723-.652.186-1.071-.006-1.672.547-.952-.609-1.975-1.43-4.231-1.43 0 0-.645.012-.645-1.127.016-1.137 1.528-2.527 1.528-3.701 0-1.137-1.513-1.035-1.513-2.172.05-1.137.416-1.662.556-7.807 0-.867 1.522-2.004 1.522-3.135s-1.431-5.061-1.967-8.111c1.126-.555 2.811-1.434 4.162-1.422"/><path fill="none" stroke="#016D53" stroke-miterlimit="3.864" stroke-width=".271" d="M725.64 447.131c2.507.012 1.985 5.598 1.985 6.746-.267 19.643.877 10.646.877 14.889 0 .783-.023 5.828-.602 6.723-.652.186-1.071-.006-1.672.547-.952-.609-1.975-1.43-4.231-1.43 0 0-.645.012-.645-1.127.016-1.137 1.528-2.527 1.528-3.701 0-1.137-1.513-1.035-1.513-2.172.05-1.137.416-1.662.556-7.807 0-.867 1.522-2.004 1.522-3.135s-1.431-5.061-1.967-8.111c1.126-.555 2.811-1.434 4.162-1.422z"/><path fill="#016D53" d="M783.662 441.258c-2.477 3.676-3.859 12.098-10.134 15.439-3.684 1.941-8.075 3.896-11.979 5.234 1.426-3.572 3.075-6.73 4.213-10.033 1.967-1.951 4.25-3.924 5.763-5.574 1.134-1.143 3.752-2.529 5.726-3.148 1.846-.781 3.935-1.076 6.411-1.918"/><path fill="none" stroke="#016D53" stroke-miterlimit="3.864" stroke-width=".271" d="M783.662 441.258c-2.477 3.676-3.859 12.098-10.134 15.439-3.684 1.941-8.075 3.896-11.979 5.234 1.426-3.572 3.075-6.73 4.213-10.033 1.967-1.951 4.25-3.924 5.763-5.574 1.134-1.143 3.752-2.529 5.726-3.148 1.846-.781 3.935-1.076 6.411-1.918z"/><path fill="#016D53" d="M759.882 437.627c.214 2.27-3.424 9.264-3.424 10.393 0 1.949-9.8 8.883-12.11 10.031l-2.396-.012.006-2.217c2.188-1.945 3.217-4.732 4.479-6.463.241-.52.241-1.346-.135-2.26 4.625-4.462 9.354-5.89 13.58-9.472"/><path fill="none" stroke="#016D53" stroke-miterlimit="3.864" stroke-width=".271" d="M759.882 437.627c.214 2.27-3.424 9.264-3.424 10.393 0 1.949-9.8 8.883-12.11 10.031l-2.396-.012.006-2.217c2.188-1.945 3.217-4.732 4.479-6.463.241-.52.241-1.346-.135-2.26 4.625-4.462 9.354-5.89 13.58-9.472z"/><path fill="#070909" d="M126.596 440.742c-1.125-.57-2.045-1.734-2.242-2.607-.496-.26-10.248-3.611-13.599-3.623-1.291-.006-3.455.871-4.979 1.441-.153.525-.431 1.332-1.179 1.357l-.008 6.74c-.081 1.143-.508 1.143-.827 1.457-1.84-2.588-4.116-6.744-7.186-9.068-5.515-4.674-11.137-7.52-18.334-9.477-1.879-.549-3.582-1.701-5.392-2.223.415 2.529.038 5.021.549 6.684.54 1.668 1.906 4.248 1.906 5.385-.021 1.326.05.561-.271 1.061-8.239-6.959-17.61-5.602-27.859-9.197 1.642 2.227 1.932 7.555 2.543 10.08.698 2.781 2.261 6.092 4.48 8.709-1.771-.029-8.823-2.004-11.065-2.004-1.272-.012-4.348.023-5.615.549-7.845 2.584-18.085 5.619-24.949 7.246.989 2.801 4.91 3.125 6.18 4.027.804.76 1.95 2.514 2.668 3.066 1.247.836 3.356 2.205 4.747 2.48 4.283 1.119 12.209 3.105 13.525 3.105 4.008.012 5.348-1.449 10.714-3.105.854 2.264-2.239 2.787-3.905 4.418-2.732 4.879-6.417 14.094-6.333 15.225l-.034 1.68 8.334.023c1.294.143 6.466-.051 8.712-.893 2.344-.863 4.744-2.471 6.536-3.371.697-.508 5.894-2.283 7.577-4.201v2.527c-.315.842-.149 1.924-.478 2.209-1.186.918-3.498 3.098-3.446 4.242l-.033 3.941c1.834-.35 2.582-1.719 3.893-2.211 1.901-.559 4.058-.012 5.618-.08 2.024-.248 4.395-.818 5.523-1.371 3.904-1.941 11.296-5.287 14.516-8.381 5.397-5.133 6.224-12.066 6.916-17.934l-.045 6.404c-.373 2.256.12 4.547.203 6.785.498.797 4.691 3.313 6.806 3.324 1.29 0 8.268-1.383 12.25-1.961 2.396-2.799 3.49-9.211 3.496-14.283.006-1.137-.469-5.004-.705-7.277-.426-.264-.786.537-.786-.6 0-1.16 1.57-2.48 1.57-3.617l.008-6.681z"/><path fill="#070909" d="M49.09 458.309c-2.444 1.105-4.855 2.035-5.559 2.031l-3.053-.008-3.017-.01c-.642-.006-.692-.125-.644-.301.029-.221.187-.365-.012-.541-2.236-.221-4.042-.77-5.734-1.406-1.694-.676-3.334-1.488-5.187-2.246.434-.561 2.848-1.729 5.344-2.818 2.505-1.092 5.046-1.977 5.751-1.967l2.244.006 2.245.006c.67 0 2.901.594 5.468 1.455 2.622.859 5.577 1.988 7.687 3.059-.693.423-3.099 1.63-5.533 2.74zM69.916 465.648c-1.016 1.063-1.85 3.082-2.799 4.129-1.572 1.729-3.393 2.883-5.764 5.111 0 0-.53.195-.855 0-1.254 1.131-7.596 5.289-11.477 5.066l-3.788-.012c4.597-2.848 7.851-7.904 9.967-11.762.818-1.408 3.357-2.002 4.609-3.092 2.544-1.975 5.859-3.359 8.349-4.461l1.828.006-.07 5.015zM61.557 445.77c-3.042-3.211-4.225-7.848-6.787-11.807h1.747c1.287-.01 1.883 1.377 2.72 1.686 1.305.578 3.518 1.395 5.175 2.486 1.86 1.143 6.908 3.074 8.564 6.254 1.125 2.449 2.33 5.248 4.056 7.533.242.305.159 1.412.681 2.754-4.755-1.342-12.29-4.686-16.156-8.906zM91.144 468.182c-.618 1.367-.368 3.371-.855 4.49-2.745 5.332-10.062 7.559-15.713 10.029 2.045-3.613 3.689-7.824 6.343-11.443 3.495-4.738 9.675-8.414 14.681-11.213-.967 3.07-3.045 5.283-4.456 8.137zM85.49 453.34l1.721.016c1.269-.021 3.191 2.455 4.912 3.066-2.184.508-4.095 1.869-5.834 2.383-.756.139-3.349.982-4.068 2.377-.675.006-1.68-.332-2.383-.547l.005-1.691c1.608-.881 4.204-1.412 6.656-2.234-.496-.624-.496-2.019-1.009-3.37zM97.228 451.09l-2.178-.012c-1.317 0-7.936-4.801-10.87-8.125-2.149-2.49-3.479-5.59-5.12-8.16-.377-.586-.658-2.178-.658-3.311.036-2.25 5.509 2.799 6.566 3.57 2.55 1.438 5.319 1.438 7.052 3.977.599.867.371 2.504.814 3.342 1.042 1.973 2.888 4.729 4.413 6.5l-.019 2.219zM117.267 452.453c-.007 7.043.505 7.305.505 8.447 0 1.137-1.542.795-1.548 1.926 0 1.131 1.541 1.922 1.541 3.084 0 1.131-1.099 1.695-1.402 2-1.492-.281-2.94.762-5.194 1.102-.123-.609-1.125-.863-1.11-2.016 0-1.318 1.541-2.449 1.548-3.58 0-1.139-1.049-1.938-1.049-3.07.053-1.143 1.078-.588 1.078-1.719l.063-12.861c0-1.139-.241-.037-1.014-.273 1.059-1.482 1.053-3.383 1.676-5.365 2.242.543 3.733.875 4.899.889 0 0 .643-.008.643 1.309 0 1.154-2.104 6.217-2.104 7.352-.001 1.135.338 2.209 1.468 2.775z"/><path fill="#016D53" d="M59.809 465.09c-1.252 1.09-3.792 1.684-4.609 3.092-2.116 3.857-5.37 8.914-9.967 11.762l3.788.012c3.881.223 10.223-3.936 11.477-5.066.325.195.855 0 .855 0 2.371-2.229 4.191-3.383 5.764-5.111.95-1.047 1.784-3.066 2.799-4.129l.071-5.014-1.828-.006c-2.491 1.1-5.805 2.485-8.35 4.46zM80.918 471.258c-2.653 3.619-4.298 7.83-6.343 11.443 5.651-2.471 12.968-4.697 15.713-10.029.487-1.119.238-3.123.855-4.49 1.411-2.854 3.489-5.066 4.455-8.137-5.005 2.799-11.185 6.475-14.68 11.213z"/><path fill="#070909" d="M79.838 460.635c.703.215 1.708.553 2.383.547.719-1.395 3.312-2.238 4.068-2.377 1.739-.514 3.65-1.875 5.834-2.383-1.721-.611-3.643-3.088-4.912-3.066l-1.721-.016c.513 1.352.513 2.746 1.01 3.369-2.453.822-5.048 1.354-6.656 2.234l-.006 1.692zM117.259 441.016c-1.167-.014-2.657-.346-4.899-.889-.623 1.982-.617 3.883-1.676 5.365.772.236 1.014-.865 1.014.273l-.063 12.861c0 1.131-1.025.576-1.078 1.719 0 1.133 1.049 1.932 1.049 3.07-.007 1.131-1.548 2.262-1.548 3.58-.015 1.152.987 1.406 1.11 2.016 2.254-.34 3.702-1.383 5.194-1.102.304-.305 1.402-.869 1.402-2 0-1.162-1.541-1.953-1.541-3.084.007-1.131 1.548-.789 1.548-1.926 0-1.143-.512-1.404-.505-8.447-1.13-.566-1.469-1.641-1.469-2.777 0-1.135 2.104-6.197 2.104-7.352.001-1.315-.642-1.307-.642-1.307zM77.032 451.922c-1.726-2.285-2.931-5.084-4.056-7.533-1.656-3.18-6.704-5.111-8.564-6.254-1.657-1.092-3.87-1.908-5.175-2.486-.836-.309-1.433-1.695-2.72-1.686H54.77c2.563 3.959 3.745 8.596 6.787 11.807 3.866 4.221 11.401 7.564 16.156 8.906-.522-1.342-.439-2.449-.681-2.754zM92.021 439.029c-1.732-2.539-4.502-2.539-7.052-3.977-1.058-.771-6.531-5.82-6.566-3.57 0 1.133.28 2.725.658 3.311 1.64 2.57 2.971 5.67 5.12 8.16 2.934 3.324 9.553 8.125 10.87 8.125l2.178.012.02-2.219c-1.525-1.771-3.372-4.527-4.413-6.5-.444-.838-.217-2.475-.815-3.342z"/><path fill="#016D53" d="M46.938 452.51c-2.566-.861-4.798-1.455-5.468-1.455l-2.245-.006-2.244-.006c-.705-.01-3.246.875-5.751 1.967-2.496 1.09-4.91 2.258-5.344 2.818 1.852.758 3.492 1.57 5.187 2.246 1.692.637 3.498 1.186 5.734 1.406.198.176.041.32.012.541-.048.176.002.295.644.301l3.017.01 3.053.008c.704.004 3.115-.926 5.559-2.031 2.434-1.109 4.839-2.316 5.534-2.74-2.111-1.071-5.067-2.2-7.688-3.059zM112.36 440.139c2.242.531 3.733.863 4.899 1.07 0 0 .643-.193.643 1.115 0 1.154-2.097 6.217-2.104 7.363 0 1.125.345 2.211 1.469 2.766 0 7.049.534 7.311.505 8.447 0 1.137-1.542.795-1.548 1.926 0 1.137 1.541 1.941 1.541 3.084 0 1.131-1.099 1.695-1.402 2.006-1.492-.287-2.929.756-5.194 1.096-.123-.609-1.125-.863-1.125-1.994.015-1.162 1.563-2.465 1.563-3.602 0-1.133-1.049-1.77-1.049-3.07 0-1.131 1.078-.582 1.078-1.719l.063-12.857c0-1.143-.241-.041-.965-.277 1.038-1.483 1.003-3.384 1.626-5.354"/><path fill="none" stroke="#016D53" stroke-miterlimit="3.864" stroke-width=".271" d="M112.36 440.139c2.242.531 3.733.863 4.899 1.07 0 0 .643-.193.643 1.115 0 1.154-2.097 6.217-2.104 7.363 0 1.125.345 2.211 1.469 2.766 0 7.049.534 7.311.505 8.447 0 1.137-1.542.795-1.548 1.926 0 1.137 1.541 1.941 1.541 3.084 0 1.131-1.099 1.695-1.402 2.006-1.492-.287-2.929.756-5.194 1.096-.123-.609-1.125-.863-1.125-1.994.015-1.162 1.563-2.465 1.563-3.602 0-1.133-1.049-1.77-1.049-3.07 0-1.131 1.078-.582 1.078-1.719l.063-12.857c0-1.143-.241-.041-.965-.277 1.038-1.483 1.003-3.384 1.626-5.354z"/><path fill="#016D53" d="M54.762 433.963h1.687c1.336-.01 1.945 1.385 2.779 1.686 1.314.578 3.527 1.406 5.152 2.486 1.878 1.143 6.918 3.074 8.591 6.254 1.125 2.449 2.314 5.248 4.023 7.545.265.484.197 1.4.68 2.742-4.746-1.342-12.26-4.686-16.117-8.9-3.078-3.161-4.224-7.854-6.795-11.813"/><path fill="none" stroke="#016D53" stroke-miterlimit="3.864" stroke-width=".271" d="M76.994 451.934c-1.709-2.297-2.899-5.096-4.023-7.545-1.673-3.18-6.712-5.111-8.591-6.254-1.625-1.08-3.838-1.908-5.152-2.486-.834-.301-1.442-1.695-2.779-1.686h-1.687c2.57 3.959 3.717 8.652 6.795 11.813 3.857 4.215 11.371 7.559 16.117 8.9-.483-1.342-.415-2.258-.68-2.742z"/><path fill="#016D53" d="m97.228 449.055-.007 2.035-2.171-.012c-1.328.012-7.936-4.789-10.87-8.125-2.177-2.283-3.494-5.584-5.164-8.148-.333-.598-.613-2.002-.613-3.322.026-2.25 5.503 2.799 6.506 3.584 2.589 1.424 5.379 1.436 7.078 3.963.616 1.039.354 2.51.834 3.348 1.055 1.972 2.867 4.741 4.407 6.677"/><path fill="none" stroke="#016D53" stroke-miterlimit="3.864" stroke-width=".271" d="m97.228 449.055-.007 2.035-2.171-.012c-1.328.012-7.936-4.789-10.87-8.125-2.177-2.283-3.494-5.584-5.164-8.148-.333-.598-.613-2.002-.613-3.322.026-2.25 5.503 2.799 6.506 3.584 2.589 1.424 5.379 1.436 7.078 3.963.616 1.039.354 2.51.834 3.348 1.055 1.972 2.867 4.741 4.407 6.677z"/><path fill="#DA1F31" d="M393.286 155.249c.604 0 3.912 1.105 5.813 1.394.892.147 2.025.554 2.938.588.768.122 1.593-.152 2.181.037 1.884.647 3.129 2.241 5.374 3.287 8 3.382 13.661 11.501 17.62 18.577 3.064 5.279 4.986 11.695 5.84 17.454.035.854-.242 2.695-.242 3.353l-.011 2.952c0 .571.795 2.085.593 2.648 0 .577-.57 6.348-1.182 9.66-.26.883-1.085 2.256-1.686 3.092-.797.725-1.674 2.098-3.07 2.42-1.119.385-2.747-.323-3.878-.14-.623.248-1.679 1.404-2.871 2.219-2.772 1.543-5.833 3.938-7.601 6.583-2.113-.117-1.962-1.552-3.63-2.365-1.335-.563-3.021-.861-4.166-1.146-3.056-.693-8.446-1.11-9.012-1.11-.579 0-4.647.159-5.211.159-.604 0-2.961.115-4.276.533-1.644.442-3.073 1.703-4.735 2.819-1.004.692-3.941.987-4.323 3.214-1.035.837-2.686 1.134-3.383 2.395-2.673 5.032-3.091 3.789-3.105 6.722 0 .563-1.113 2.372-1.267 3.512-.276 1.653-.952 4.339-.957 4.911l-.012 4.722c-.006 2.545 1.393 3.371 2.521 6.458-3.903-1.244-7.582-2.383-11.353-3.76-3.082-2.96-7-5.753-9.798-8.984-.43-.548-.669-1.423-1.414-2.079-.831-.573-2.092-1.008-2.79-1.851a137.625 137.625 0 0 1-5.33-6.698c-.563-.723-.695-1.856-.842-2.825-.012-.28-.575-.699-.825-1.243.25-.97.257-2.095.113-2.958-.548-.433-1.105-1.27-1.409-2.118-1.09-2.504-.969-5.303-1.52-7.828-.304-1.679-1.264-3.388-1.953-5.199-.43-1.267-.441-3.901-.441-4.463 0-.571.998-5.626 1.399-8.422.138-1.394.144-3.783.715-5.188.308-.848.831-2.085.831-2.657 0-.568-.698-.842-.698-1.405 0-.571.854-1.69.989-2.51.133-.698.175-1.515.175-2.097.084-.571.788-.721.927-.984.297-.436.292-1.122.321-1.835.25-.274.801-.28 1.225-.571.436-.401.699-.831.914-1.261.512-.116 1.264-.413 1.544-.964a24.236 24.236 0 0 1 1.774-3.226c.4-.543 1.527-.849 2.1-1.278.836-.692 1.233-1.535 1.812-2.233.115-.424-.154-1.277.144-1.674.983-1.119 2.366-.831 3.5-1.486.259-.337.424-1.307.981-1.472 3.625-1.515 5.051-3.765 8.967-5.736.692-.283 1.123-1.215 1.134-1.964 1.089-.006 1.788-.54 2.642-.563.431-.394.861-.987 1.255-1.685.729-.268 1.546-.975 2.104-1.111.548.13 1.133.13 1.558.006.963-.831 2.232-1.128 3.346-1.622.554-.202.957-.779 1.68-1.463 1.954-.011 4.378-.499 6.755-.854 3.061-.542 8.658-.263 9.232-.263.569.006 1.4-.424 1.974-.424"/><path fill="none" stroke="#DA1F31" stroke-miterlimit="3.864" stroke-width=".123" d="M393.286 155.249c.604 0 3.912 1.105 5.813 1.394.892.147 2.025.554 2.938.588.768.122 1.593-.152 2.181.037 1.884.647 3.129 2.241 5.374 3.287 8 3.382 13.661 11.501 17.62 18.577 3.064 5.279 4.986 11.695 5.84 17.454.035.854-.242 2.695-.242 3.353l-.011 2.952c0 .571.795 2.085.593 2.648 0 .577-.57 6.348-1.182 9.66-.26.883-1.085 2.256-1.686 3.092-.797.725-1.674 2.098-3.07 2.42-1.119.385-2.747-.323-3.878-.14-.623.248-1.679 1.404-2.871 2.219-2.772 1.543-5.833 3.938-7.601 6.583-2.113-.117-1.962-1.552-3.63-2.365-1.335-.563-3.021-.861-4.166-1.146-3.056-.693-8.446-1.11-9.012-1.11-.579 0-4.647.159-5.211.159-.604 0-2.961.115-4.276.533-1.644.442-3.073 1.703-4.735 2.819-1.004.692-3.941.987-4.323 3.214-1.035.837-2.686 1.134-3.383 2.395-2.673 5.032-3.091 3.789-3.105 6.722 0 .563-1.113 2.372-1.267 3.512-.276 1.653-.952 4.339-.957 4.911l-.012 4.722c-.006 2.545 1.393 3.371 2.521 6.458-3.903-1.244-7.582-2.383-11.353-3.76-3.082-2.96-7-5.753-9.798-8.984-.43-.548-.669-1.423-1.414-2.079-.831-.573-2.092-1.008-2.79-1.851a137.625 137.625 0 0 1-5.33-6.698c-.563-.723-.695-1.856-.842-2.825-.012-.28-.575-.699-.825-1.243.25-.97.257-2.095.113-2.958-.548-.433-1.105-1.27-1.409-2.118-1.09-2.504-.969-5.303-1.52-7.828-.304-1.679-1.264-3.388-1.953-5.199-.43-1.267-.441-3.901-.441-4.463 0-.571.998-5.626 1.399-8.422.138-1.394.144-3.783.715-5.188.308-.848.831-2.085.831-2.657 0-.568-.698-.842-.698-1.405 0-.571.854-1.69.989-2.51.133-.698.175-1.515.175-2.097.084-.571.788-.721.927-.984.297-.436.292-1.122.321-1.835.25-.274.801-.28 1.225-.571.436-.401.699-.831.914-1.261.512-.116 1.264-.413 1.544-.964a24.236 24.236 0 0 1 1.774-3.226c.4-.543 1.527-.849 2.1-1.278.836-.692 1.233-1.535 1.812-2.233.115-.424-.154-1.277.144-1.674.983-1.119 2.366-.831 3.5-1.486.259-.337.424-1.307.981-1.472 3.625-1.515 5.051-3.765 8.967-5.736.692-.283 1.123-1.215 1.134-1.964 1.089-.006 1.788-.54 2.642-.563.431-.394.861-.987 1.255-1.685.729-.268 1.546-.975 2.104-1.111.548.13 1.133.13 1.558.006.963-.831 2.232-1.128 3.346-1.622.554-.202.957-.779 1.68-1.463 1.954-.011 4.378-.499 6.755-.854 3.061-.542 8.658-.263 9.232-.263.569.006 1.4-.424 1.974-.424z"/><path fill="#DA1F31" d="M458.882 77.474c.57 0 4.2.626 6.116 1.167.611.149 1.454.781 2.273.939 1.65.471 3.646.603 5.286 1.394 1.962 1.064 3.947 2.442 5.055 4.068 2.522 3.789 4.484 7.897 5.39 11.104.819 2.357.796 13.129.796 13.845 0 .593.524 2.609.324 3.199 0 .572-.83 3.379-1.403 5.053-.56 1.823-.854 4.219-2.001 6.095-1.674 2.604-4.189 5.389-6.43 7.698-.848.938-2.249 1.77-3.623 2.479-.56.318-2.02.54-2.25 1.725-.566-.204-1.12-.735-1.686-.735s-.9.697-1.66.697c-.579 0-2.299-.978-3.448-1.435.076-1.086.861-1.781.896-2.228.294-1.117.514-2.917.514-3.5.006-.568-.26-.413-.502-.693-.022-1.142.242-3.078.254-3.646 0-.571-.601-2.194-.854-3.163-.577-3.569-4.212-4.771-6.393-6.241-.883-.771-2.545-1.061-3.659-1.378-1.743-.517-4.547-1.559-6.475-1.565-.577 0-5.863 2.308-6.14 2.389-4.512 3.777-7.282 8.682-6.774 13.442-.508-.274-1.062-.826-1.097-1.255-1.65-4.486-5.286-6.373-5.28-9.512.202-.572-1.194-5.301-1.194-5.886.012-.566 1.432-6.446 1.432-7.011 0-.568-.601-4.478-.601-5.049.012-1.673 1.748-3.65 2.527-5.548.589-1.74.843-3.71 1.466-5.39.785-.702 1.374-1.593 1.956-2.092 1.69-1.279 3.583-2.66 5.292-3.927.531-.286 2.268-.571 2.527-1.552 2.273-.503 7.329-3.353 10.347-3.347.56 0 3.14.75 3.711.75.758.011 4.741-.896 5.308-.891"/><path fill="none" stroke="#DA1F31" stroke-miterlimit="3.864" stroke-width=".123" d="M458.882 77.474c.57 0 4.2.626 6.116 1.167.611.149 1.454.781 2.273.939 1.65.471 3.646.603 5.286 1.394 1.962 1.064 3.947 2.442 5.055 4.068 2.522 3.789 4.484 7.897 5.39 11.104.819 2.357.796 13.129.796 13.845 0 .593.524 2.609.324 3.199 0 .572-.83 3.379-1.403 5.053-.56 1.823-.854 4.219-2.001 6.095-1.674 2.604-4.189 5.389-6.43 7.698-.848.938-2.249 1.77-3.623 2.479-.56.318-2.02.54-2.25 1.725-.566-.204-1.12-.735-1.686-.735s-.9.697-1.66.697c-.579 0-2.299-.978-3.448-1.435.076-1.086.861-1.781.896-2.228.294-1.117.514-2.917.514-3.5.006-.568-.26-.413-.502-.693-.022-1.142.242-3.078.254-3.646 0-.571-.601-2.194-.854-3.163-.577-3.569-4.212-4.771-6.393-6.241-.883-.771-2.545-1.061-3.659-1.378-1.743-.517-4.547-1.559-6.475-1.565-.577 0-5.863 2.308-6.14 2.389-4.512 3.777-7.282 8.682-6.774 13.442-.508-.274-1.062-.826-1.097-1.255-1.65-4.486-5.286-6.373-5.28-9.512.202-.572-1.194-5.301-1.194-5.886.012-.566 1.432-6.446 1.432-7.011 0-.568-.601-4.478-.601-5.049.012-1.673 1.748-3.65 2.527-5.548.589-1.74.843-3.71 1.466-5.39.785-.702 1.374-1.593 1.956-2.092 1.69-1.279 3.583-2.66 5.292-3.927.531-.286 2.268-.571 2.527-1.552 2.273-.503 7.329-3.353 10.347-3.347.56 0 3.14.75 3.711.75.758.011 4.741-.896 5.308-.891z"/><path fill="#070909" d="M463.024 150.064c.565 0 1.408 1.178 2.009 1.541.022.698.819 1.541.819 2.109 0 .605-.531 1.674-.819 2.929-1.662-.632-1.929.973-3.358.904-1.455 0-3.642-2.165-3.636-3.426.006-2.802 3.059-4.069 4.985-4.057M390.299 158.751c.644 0 3.037.543 4.743.572.265.465.835.958 1.109 1.673.28.843-1.129 2.27.553 3.073-.411.996-.645 1.959-1.116 2.943-.616.271-1.207 1.351-2.027 1.543-.848.199-2.251.56-2.819.56-3.627-.012-6.172-2.76-6.166-5.736.004-3.454 3.913-4.633 5.723-4.628M371.549 162.113c.566 0 2.675.021 3.93.563.832.311 1.393 1.117 2.502 1.403.006.745.17 1.823.17 2.406-.006 1.376-1.962 3.766-2.513 5.159-.589.396-1.408.837-1.973.831-.574 0-1.004-.144-4.081-.28-1.973-.121-3.887-3.214-3.794-5.019 0-.57.188-1.836.188-2.408 0-.568.267-.689.546-.975 2.103-2.104 3.049-1.686 5.025-1.68M403.648 164.069c3.577.009 3.649.268 4.221.274.594 0 2.852 1.685 4.237 2.675.162.981.521 2.521.521 3.084-.006 2.521-3.656 4.336-5.318 4.336-1.082-.005-5.563-1.667-5.887-2.097-.574-.795-.519-2.106-.519-2.675.007-.563.238-2.934.238-3.506.04-.652 1.728-1.651 2.507-2.091M356.558 172.491c3.238.025 5.766 3.93 5.76 5.916 0 2.494-1.553 2.766-2.413 5.016-.413.396-1.111.551-1.391.97-.712.127-1.817.297-2.386.292-.572 0-2.79-1.287-4.044-2.25-.571-.436-1.291-1.638-1.57-2.533-.245-.424-.115-.843-.115-1.494 0-.587.401-1.658.678-2.569.152-.693.303-1.674.866-2.372 1.401-.018 4.037-.976 4.615-.976M420.498 177.111c2.779.012 4.735 3.93 4.729 5.76 0 1.086-.854 1.935-1.131 2.486-1.097 1.987-3.315 3.012-4.495 2.978-.606 0-2.802-.558-4.184-1.008-.58-.265-2.534-1.685-2.809-2.881-.254-.89-.545-2.276-.545-2.843.006-1.284 1.128-2.802 2.021-3.954 1.394-.12 4.141-.108 4.709-.108.604 0 1.135-.43 1.705-.43M347.04 186.502c.571 0 3.078 1.117 4.328 1.954.15.133.303.842.155 1.14.395.265.56.695 1.104.975.006.309-.43.551-.43 1.131 0 .567.436.525.43 1.103 0 .854-2.23 5.747-4.183 5.897-2.089.145-2.274.26-2.938.26-.573-.005-1.845-.43-2.688-.842-1.135-.551-3.084-3.359-3.084-5.026.006-3.347 4.063-6.603 7.306-6.592M424.138 192.656c.57 0 .825.268 1.096.139 1.125.153 1.68 2.383 2.533 3.076.231.15.243.309.231.873 0 4.055-2.188 6.009-5.82 5.998-4.789-.105-5.576-4.051-5.566-7.395.138-2.278 7.185-2.691 7.526-2.691M424.98 205.55c1.956.015 3.063 1.667 4.171 3.763.029.334.289 1.13.289 1.702 0 .424-.283.132-.283 1.697v.274c.012.568-.606 1.261-1.379 1.679 0 0 .254-.153.254.424-.012.568-2.539 1.525-3.116 1.525-3.581-.023-6.475-2.66-6.437-5.467.006-1.514 1.981-5.049 3.116-5.049 1.942-.12 2.202-.548 3.385-.548M342.559 206.236l2.521.013c1.123 0 2.923 1.964 3.347 2.674.309.568.557 1.806.557 2.377 0 .569-.271 3.206-.271 3.776-.006.563-.549.722-.842 1.135-.687.38-1.282 1.243-2.101 1.405-.854.262-2.115.28-2.685.28-2.509 0-6.306-1.821-6.301-5.323.016-2.801 1.99-6.446 5.775-6.337M399.501 212.143c1.397 0 3.016.722 4.212 2.08.153 1.132.792 2.805.792 3.377 0 .568-.021 1.829-.304 2.677-.218.56-.854.978-1.183 1.656-.219.042-.479.578-1.045.571l-3.022-.014c-.568 0-.848.438-1.41.432-2.663-.005-5.189-3.776-5.189-6.286.024-1.535 2.888-3.786 3.934-3.955.857-.266 2.616-.544 3.215-.538M383.576 213.13c1.74.006 2.591 1.679 3.527 2.498.022 1.42.953 4.092.953 4.766 0 .569-.674 1.141-.769 1.854-.716.542-1.307 1.511-2.132 1.82-1.021.545-3.211.551-3.78.551-1.85-.006-5.757-1.267-5.745-4.36 0-.568.268-2.242.273-2.822 0-.548.976-2.077 1.954-2.816.409-.363 1.244-.381 1.685-.516.438-.034 1.114-.43 1.68-.696.574-.164 1.703-.279 2.354-.279M411.216 214.622c.575.026 2.522.301 3.433.75 1.679.955 3.009 4.063 3 5.735 0 .566-.271 1.68-.606 2.365-1.079.734-3.577 2.664-4.146 2.664-.563 0-1.976-.418-2.873-.663-.503-.017-1.334-.592-1.674-.978-1.001-.869-1.687-4.218-1.681-5.491 0-.963.277-2.781 1.461-3.475.824-.44 2.52-.907 3.086-.907M368.471 220.975c.569 0 .569.268 1.135.268.666 0 .545.689.843.98.527.436 1.381.704 2.229 1.415.122.271.127.713.138.969.407.156.681.692 1.261 1.255.13.698.56 1.844.56 2.413-.006.564-1.241 2.79-1.959 4.171-3.37.993-2.795 1.261-4.899 1.25-2.807-.104-6.051-1.497-6.045-4.629.006-2.506.578-4.603 3.639-6.551.17-.144.17-.583.436-.831.709-.286 2.091-.716 2.662-.71M348.719 224.596c.568 0 2.224.177 3.205.728-.283 1.532.572 2.357 1.535 3.34.024.448.298 1.29.298 1.959-.006.563-.975 1.962-1.273 2.816-.129.257-.813.153-1.122.554-.395.292-.693.999-1.249 1.267-1.123.437-3.093.993-3.657.993-2.659-.011-5.437-2.798-5.39-5.461.067-3.496 1.486-5.197 4.845-5.626.97-.141 2.242-.671 2.808-.57M359.916 237.351c.575.006.698.269 1.148.15.95.704 3.059 1.111 3.763 2.521.127.166-.147.687-.147 1.258 0 .563.699.41.846.586.289 1.243 1.255 3.061 1.255 3.626 0 .568-.269 1.244-.395 1.69-.565.431-1.273 1.556-1.558 1.818-.418.286-2.539 1.264-3.912 1.258l-3.782-.02c-.163-.407-3.783-3.341-3.783-4.339l.109-4.602c2.269-1.7 3.511-1.11 3.511-2.548.006-1.106 2.306-1.398 2.945-1.398"/><path fill="#070909" d="M461.697 153.134c.22.569-.058 1.267-.068 2.027-.491.077-.555.239-.849.227v-1.547c.294-.011.6-.497.917-.707"/><path fill="#DA1F31" d="M458.882 77.474c.57 0 4.2.626 6.116 1.167.611.149 1.454.781 2.273.939 1.65.539 3.646.603 5.286 1.394 1.962 1.064 3.947 2.442 5.055 4.068 2.522 3.789 4.484 7.897 5.39 11.104.819 2.357.796 13.129.796 13.845 0 .593.524 2.609.324 3.199 0 .572-.83 3.379-1.403 5.059-.56 1.817-.854 4.213-2.001 6.089-1.674 2.604-4.189 5.389-6.43 7.698-.848.938-2.249 1.77-3.623 2.479-.56.318-2.02.54-2.25 1.725-.566-.204-1.12-.735-1.686-.735s-.9.697-1.66.697c-.579 0-2.299-.978-3.448-1.435.076-1.086.861-1.781.896-2.228.294-1.117.514-2.917.514-3.5.006-.568-.26-.413-.502-.693-.022-1.142.242-3.078.254-3.646 0-.571-.601-2.194-.854-3.163-.577-3.569-4.212-4.771-6.393-6.241-.883-.771-2.545-1.061-3.659-1.378-1.743-.517-4.547-1.559-6.475-1.565-.577 0-5.863 2.308-6.14 2.389-4.512 3.777-7.282 8.682-6.774 13.442-.508-.274-1.062-.826-1.097-1.255-1.65-4.486-5.286-6.373-5.28-9.512.202-.572-1.194-5.301-1.194-5.886.012-.566 1.432-6.446 1.432-7.011 0-.568-.601-4.478-.601-5.049.012-1.673 1.748-3.65 2.527-5.548.589-1.74.843-3.71 1.466-5.39.785-.702 1.374-1.593 1.956-2.092 1.69-1.279 3.583-2.66 5.292-3.927.531-.286 2.268-.571 2.527-1.552 2.273-.503 7.329-3.353 10.347-3.347.56.008 3.14.75 3.711.75.758.011 4.741-.896 5.308-.891"/><path fill="#070909" d="M463.643 144.663c.571.061.494.226.859.226.773 0 1.119.563 1.627.83.905.702 1.985 1.806 2.781 2.862 1.166 2.038.889 4.285.889 6.111-.011 2.395-.294 4.911-3.646 6.287-1.662.586-4.225 1.278-4.796 1.272-1.379 0-3.618-.704-4.726-1.546-.26-.145-1.113-1.691-1.374-2.362-.011-.171-.61-.38-.888-.941-.312-.847-.277-2.583-.277-3.154.006-3.611 1.928-7.4 4.79-8.263.843-.271 1.385-1.062 2.216-1.042 3.128.061 1.43-.3 2.545-.28M478.235 146.276c4.709 1.691 7.282 5.173 11.483 6.988-2.833 2.136-5.909 4.698-8.766 7.303-.213-.569-.479-.837-.479-1.406 0-.628.809-4.475.82-5.04.001-1.971-1.925-6.578-3.058-7.845M391.775 161.129c.576 0 1.444.71 2.132 1.267-.264.56-.057 1.135-.342 1.529-.639.848-2.333 1.855-2.908 1.855-.568-.011-.926-.271-1.133-.57l.012-3.376c.757-.013 1.574-.705 2.239-.705M373.079 163.976c.568 0 2.969.653 2.969 1.221-.006 1.698-1.14 3.771-2.551 3.771-1.534-.006-2.765-1.818-2.801-2.074.15-.592.974-1.698.715-2.667.563-.011.999-.251 1.668-.251M407.226 166.882c.418.542 1.408.972 2.093 1.25-.006 1.552-1.674 4.198-3.14 4.188-1.408 0-1.705-1.926-1.699-2.509-.001-.969 1.952-2.23 2.746-2.929M462.494 171.219c1.153 0 1.419.17 1.708.28-.831 3.045-.318 5.606-2.245 8.287-.883 1.514-2.521 2.82-3.9 3.771-.018-.831-.012-1.838-.012-2.401s-.341-.661-.329-1.238c0-.568.271-2.248.577-3.084.825-1.564 1.656-3.361 3.075-4.899.537-.09.843-.27 1.126-.716M481.022 172.062c1.137 1.25 6.157 5.906 6.146 7.978l-.012 3.78c-.537.447-1.131 1.158-1.697 1.158-.565-.01-1.102-1.294-1.385-1.695-2.759-3.096-.576-6.601-3.053-9.674v-1.547M356.134 175.299l1.405.012c1.134 0 2.25 2.91 2.25 2.973-.006 1.266-1.387 2.464-2.118 2.458-.836 0-1.806-.28-2.103-1.267 0-.274.258-.534.012-2.377 0-.527.268-1.248.554-1.799M419.625 179.482c.842.005 1.1.721 1.437 1.965.225.164.831.599.831 1.249-.006.563-.889 1.954-1.696 2.539-.525.127-1.14.122-1.703.286-.548-.983-1.451-2.669-1.413-3.237-.001-1.547 1.964-2.802 2.544-2.802M346.462 189.572c2.136.006 2.676.999 2.669 2.381 0 1.139-1.249 2.536-2.524 2.53l-1.412-.006c-.279-1.085-.975-2.372-.969-2.943.001-.843.69-1.968 2.236-1.962M423.231 194.928c1.188.1 2.031 1.511 2.025 2.387 0 1.781-2.269 3.319-2.269 3.319-1.696-.094-1.938-3.466-1.933-3.596.002-.732.553-2.11 2.177-2.11M423.509 208.638c1.43-.127 2.861 1.812 2.85 3.192 0 .882-.843 2.143-1.673 2.143-.82-.005-2.002-.86-2.002-1.534l.011-2.832c.277-.271.594-.419.814-.969M345.195 208.62c.448.979 1.161 2.103 1.161 2.681-.014 1.272-1.543 4.065-2.39 4.065-1.26-.006-1.997-2.94-1.997-3.079 0-.568.705-2.242.716-3.231.546-.274 1.256-.274 2.51-.436M398.622 215.209c.83 0 3.074 1.382 3.069 2.116-.006 1.414-1.414 2.802-2.511 2.796-1.442 0-3.104-2.123-3.104-3.082.006-1.549 1.893-1.83 2.546-1.83M381.388 215.665c1.065.539 1.958.806 2.923 1.253.007 1.08.269 2.634.269 3.197 0 .992-2.4 1.964-2.778 1.964-1.135-.006-2.144-.836-2.138-1.803l.006-2.839c.542-.537 1.254-1.225 1.718-1.772M412.686 218.15c1.275.006 1.674 1.432 1.674 2.109-.006 1.402-.837 2.542-1.953 2.537-1.96-.009-2.301-1.821-2.295-2.56 0-.655.038-.94.317-1.39.787-.1 1.691-.696 2.257-.696M367.36 224.215c.669.101 1.4.672 1.821.829.694.286 1.678 2.245 1.678 3.352 0 1.267-2.25 3.37-3.213 3.37-1.431-.006-1.437-1.411-1.437-1.847.005-.669-.419-.533-.672-.669-.026-.15-.026-.436-.026-.993 0-.831.571-4.042 1.849-4.042M348.439 226.699l1.095.006c.194.986.979 2.239.979 2.807-.103 1.53-1.954 3.232-3.027 3.232-.738-.006-2.158-2.78-2.158-2.813.006-1.517 2.7-3.061 3.111-3.232M359.911 241.128c.562 0 .993.286 1.405.728.024.98.722 2.522.722 3.093 0 1.261-1.284 2.934-2.109 2.934-.571 0-1.11-.716-1.832-.996-.006-.276.253-.276.253-.848 0-.671-1.216-1.947-1.216-2.51 0-.568.268-1.111.55-2.23.818-.007 1.593-.171 2.227-.171M471.727 245.644c.565.006 2.263 1.094 3.387 1.535.561.268.572 1.099 1.084 1.399 2.552 2.245 3.925 6.997 3.712 9.654 0 .568-.589 3.656-.899 5.318-.49 1.145-1.127 2.544-1.904 3.672-.019.26.253.127.242.699 0 .557-4.461 8.104-6.74 11.918-1.408 2.381-3.641 4.603-5.286 6.449-1.166 1.64-2.815 3.347-4.201 4.469-.565.54-1.731 1.1-2.498 1.094-1.419 0-6.221-6.119-7.588-7.949-.878-1.414-2.285-2.663-3.417-3.808-1.661-1.668-2.526-3.893-3.912-5.869-.265-.303-1.073-.836-1.355-1.14-.583-.836-1.432-1.817-1.738-2.917-2.198-5.759-3.009-5.049-2.804-9.683.011-4.923 3.104-14.155 10.122-14.131 6.439.114 8.979 4.869 11.253 4.875.767 0 1.037-.407 1.061-.837.601-.391 1.696-.268 2.539-.687 1.443-.71 3.323-2.378 4.768-3.078.532-.17 3.343-.983 4.174-.983"/><path fill="#FEE6D3" d="M359.911 241.128c.562 0 .993.286 1.405.728.024.98.722 2.522.722 3.093 0 1.261-1.284 2.934-2.109 2.934-.571 0-1.11-.716-1.832-.996-.006-.276.253-.276.253-.848 0-.671-1.216-1.947-1.216-2.51 0-.568.268-1.111.55-2.23.818-.007 1.593-.171 2.227-.171M348.439 226.699l1.095.006c.194.986.979 2.239.979 2.807-.103 1.53-1.954 3.232-3.027 3.232-.738-.006-2.158-2.78-2.158-2.813.006-1.517 2.7-3.061 3.111-3.232M367.36 224.215c.669 0 1.4.672 1.821.829.694.286 1.678 2.245 1.678 3.352 0 1.267-2.25 3.37-3.213 3.37-1.431-.006-1.437-1.411-1.437-1.847.005-.669-.419-.533-.672-.669-.026-.15-.026-.436-.026-.993 0-.831.571-4.042 1.849-4.042M412.686 218.15c1.275.006 1.674 1.432 1.674 2.109-.006 1.402-.837 2.542-1.953 2.537-1.96-.009-2.301-1.821-2.295-2.56 0-.655.038-.94.317-1.39.787-.1 1.691-.696 2.257-.696M381.388 215.665c1.065.539 1.958.806 2.923 1.253.007 1.08.269 2.634.269 3.197 0 .992-2.4 1.964-2.778 1.964-1.135-.006-2.144-.836-2.138-1.803l.006-2.839c.542-.537 1.254-1.234 1.718-1.772M398.622 215.209c.83 0 3.074 1.382 3.069 2.116-.006 1.414-1.414 2.802-2.511 2.796-1.442 0-3.104-2.123-3.104-3.082.006-1.549 1.893-1.83 2.546-1.83M345.195 208.62c.448.979 1.161 2.103 1.161 2.681-.014 1.272-1.543 4.065-2.39 4.065-1.26-.006-1.997-2.94-1.997-3.079 0-.568.705-2.242.716-3.231.546-.274 1.256-.274 2.51-.436M423.308 208.638c1.631-.127 3.063 1.812 3.051 3.192 0 .882-.843 2.143-1.673 2.143-.82-.005-2.002-.86-2.002-1.534l.011-2.832c.277-.271.594-.419.613-.969M423.231 194.928c1.188.1 2.031 1.511 2.025 2.387 0 1.781-2.269 3.319-2.269 3.319-1.696-.094-1.938-3.466-1.938-3.596.007-.732.558-2.11 2.182-2.11M346.462 189.572c2.136.006 2.676.999 2.669 2.381 0 1.139-1.249 2.536-2.524 2.53l-1.412-.006c-.279-1.085-.975-2.372-.969-2.943.001-.843.69-1.968 2.236-1.962M419.625 179.482c.842.005 1.1.721 1.437 1.965.225.164.831.599.825 1.249 0 .563-.883 1.954-1.69 2.539-.525.127-1.14.122-1.703.286-.548-.983-1.451-2.669-1.413-3.243-.001-1.541 1.964-2.796 2.544-2.796M356.134 175.299l1.405.012c1.134 0 2.25 2.91 2.25 2.973-.006 1.266-1.387 2.464-2.118 2.458-.836-.006-1.806-.28-2.103-1.267 0-.274.258-.534.012-2.377 0-.527.268-1.248.554-1.799M407.226 166.882c.418.542 1.408.972 2.093 1.25-.006 1.552-1.674 4.198-3.14 4.188-1.408-.103-1.705-1.926-1.699-2.509-.001-.969 1.952-2.23 2.746-2.929M373.079 163.976c.568 0 2.969.653 2.969 1.221-.006 1.698-1.14 3.771-2.551 3.771-1.534-.006-2.765-1.818-2.801-2.074.15-.592.974-1.698.715-2.667.563-.011.999-.251 1.668-.251M391.685 161.129c.667 0 1.535.71 2.223 1.267-.264.56-.057 1.135-.342 1.529-.639.848-2.333 1.855-2.908 1.855-.644-.011-.926-.271-1.133-.57l.012-3.376c.756-.013 1.573-.705 2.148-.705"/><path fill="#FFE6CB" d="M462.494 171.219c1.153 0 1.419.17 1.708.28-.831 3.045-.318 5.606-2.245 8.287-.883 1.514-2.521 2.82-3.9 3.771-.018-.831-.012-1.838-.012-2.401s-.341-.661-.329-1.238c0-.568.271-2.248.577-3.084.825-1.564 1.656-3.361 3.075-4.899.537-.09.843-.27 1.126-.716"/><path fill="none" stroke="#FFE6CB" stroke-miterlimit="3.864" stroke-width=".123" d="M462.494 171.219c1.153 0 1.419.17 1.708.28-.831 3.045-.318 5.606-2.245 8.287-.883 1.514-2.521 2.82-3.9 3.771-.018-.831-.012-1.838-.012-2.401s-.341-.661-.329-1.238c0-.568.271-2.248.577-3.084.825-1.564 1.656-3.361 3.075-4.899.537-.09.843-.176 1.126-.716z"/><path fill="#FFE6CB" d="M478.235 146.276c4.709 1.691 7.282 5.173 11.483 6.988-2.833 2.136-5.909 4.698-8.766 7.303-.213-.569-.479-.837-.479-1.406 0-.628.809-4.475.82-5.04.001-1.971-1.925-6.578-3.058-7.845"/><path fill="none" stroke="#FFE6CB" stroke-miterlimit="3.864" stroke-width=".123" d="M478.235 146.276c4.709 1.691 7.282 5.173 11.483 6.988-2.833 2.136-5.909 4.698-8.766 7.303-.213-.569-.479-.837-.479-1.406 0-.628.809-4.475.82-5.04.001-1.971-1.925-6.578-3.058-7.845z"/><path fill="#FFE6CB" d="M463.643 144.663c.571.061.494.226.859.226.773 0 1.119.563 1.622.83.91.702 1.99 1.806 2.786 2.862 1.166 2.038.889 4.285.889 6.111-.011 2.395-.299 4.911-3.646 6.287-1.662.586-4.225 1.278-4.796 1.272-1.379 0-3.618-.704-4.726-1.546-.26-.145-1.113-1.691-1.374-2.362-.011-.171-.61-.38-.888-.941-.312-.847-.277-2.583-.277-3.154.006-3.611 1.928-7.4 4.79-8.263.843-.271 1.385-1.062 2.216-1.042 3.128.061 1.43-.3 2.545-.28"/><path fill="none" stroke="#FFE6CB" stroke-miterlimit="3.864" stroke-width=".123" d="M463.643 144.663c.571.061.494.226.859.226.773 0 1.119.563 1.622.83.91.702 1.99 1.806 2.786 2.862 1.166 2.038.889 4.285.889 6.111-.011 2.395-.299 4.911-3.646 6.287-1.662.586-4.225 1.278-4.796 1.272-1.379 0-3.618-.704-4.726-1.546-.26-.145-1.113-1.691-1.374-2.362-.011-.171-.61-.38-.888-.941-.312-.847-.277-2.583-.277-3.154.006-3.611 1.928-7.4 4.79-8.263.843-.271 1.385-1.062 2.216-1.042 3.128.061 1.43-.3 2.545-.28z"/><path fill="#DA1F31" d="M471.727 245.644c.565 0 2.263 1.094 3.381 1.535.555.268.578 1.099 1.09 1.399 2.552 2.245 3.925 6.997 3.712 9.654 0 .568-.589 3.656-.899 5.318-.49 1.145-1.127 2.544-1.904 3.672-.019.26.253.127.242.699 0 .557-4.461 8.104-6.74 11.918-1.408 2.381-3.641 4.603-5.286 6.449-1.166 1.64-2.815 3.347-4.201 4.469-.565.54-1.731 1.1-2.498 1.094-1.419 0-6.221-6.119-7.588-7.949-.878-1.414-2.285-2.669-3.417-3.808-1.661-1.668-2.526-3.893-3.912-5.869-.265-.303-1.073-.836-1.355-1.14-.583-.836-1.432-1.817-1.738-2.917-2.198-5.759-3.009-5.049-2.804-9.683.011-4.923 3.104-14.155 10.122-14.131 6.439.114 8.979 4.869 11.253 4.875.767 0 1.037-.407 1.061-.837.601-.391 1.696-.268 2.539-.687 1.443-.71 3.323-2.378 4.768-3.084.532-.164 3.343-.977 4.174-.977"/><path fill="none" stroke="#DA1F31" stroke-miterlimit="3.864" stroke-width=".123" d="M471.727 245.644c.565 0 2.263 1.094 3.381 1.535.555.268.578 1.099 1.09 1.399 2.552 2.245 3.925 6.997 3.712 9.654 0 .568-.589 3.656-.899 5.318-.49 1.145-1.127 2.544-1.904 3.672-.019.26.253.127.242.699 0 .557-4.461 8.104-6.74 11.918-1.408 2.381-3.641 4.603-5.286 6.449-1.166 1.64-2.815 3.347-4.201 4.469-.565.54-1.731 1.1-2.498 1.094-1.419 0-6.221-6.119-7.588-7.949-.878-1.414-2.285-2.669-3.417-3.808-1.661-1.668-2.526-3.893-3.912-5.869-.265-.303-1.073-.836-1.355-1.14-.583-.836-1.432-1.817-1.738-2.917-2.198-5.759-3.009-5.049-2.804-9.683.011-4.923 3.104-14.155 10.122-14.131 6.439.114 8.979 4.869 11.253 4.875.767 0 1.037-.407 1.061-.837.601-.391 1.696-.268 2.539-.687 1.443-.71 3.323-2.378 4.768-3.084.532-.164 3.343-.977 4.174-.977z"/><path fill="#DA1F31" d="M481.022 172.062c1.137 1.25 6.157 5.906 6.146 7.978l-.012 3.78c-.537.447-1.131 1.158-1.697 1.158-.565-.01-1.102-1.294-1.385-1.695-2.759-3.096-.576-6.601-3.053-9.674v-1.547"/><path fill="none" stroke="#DA1F31" stroke-miterlimit="3.864" stroke-width=".123" d="M481.022 172.062c1.137 1.25 6.157 5.906 6.146 7.978l-.012 3.78c-.537.447-1.131 1.158-1.697 1.158-.565-.01-1.102-1.294-1.385-1.695-2.759-3.096-.576-6.601-3.053-9.674v-1.547z"/><path fill="#221F20" d="M463.024 150.064c.565 0 1.408 1.178 2.009 1.541.022.698.819 1.541.819 2.109 0 .605-.531 1.674-.819 2.929-1.662-.632-1.929.973-3.358.904-1.455 0-3.642-2.165-3.636-3.426.006-2.802 3.059-4.069 4.985-4.057"/><path fill="#FFE6CB" d="M461.697 153.134c.22.569-.058 1.267-.068 2.027-.491.077-.555.239-.849.227v-1.547c.294-.011.6-.497.917-.707"/></svg>