<svg xmlns="http://www.w3.org/2000/svg" viewBox="0 0 271.33 70"><defs><clipPath id="a"><path d="M243 17h28.328v35H243Zm0 0"/></clipPath></defs><path d="M83.75 32.258c1.41-3.305 4.031-5.926 7.34-7.297a14.082 14.082 0 0 1 10.722 0c1.657.684 3.106 1.691 4.399 2.941 1.25 1.25 2.297 2.743 2.98 4.356a13.56 13.56 0 0 1 1.09 5.363v13.79h-5.441V37.62c0-1.09-.203-2.219-.649-3.226-1.328-3.063-4.351-5.079-7.738-5.04-1.09 0-2.219.2-3.226.645a7.886 7.886 0 0 0-2.66 1.773 8.139 8.139 0 0 0-1.778 2.622c-.441 1.007-.644 2.136-.644 3.226v13.79H82.66V37.62c0-1.855.363-3.668 1.09-5.363M120.805 31.773a8.235 8.235 0 0 0-1.614 9.516l2.22-2.258 3.226-3.183a246.487 246.487 0 0 1 3.265-3.227c1.051-1.008 1.856-1.816 2.418-2.379a8.385 8.385 0 0 0-4.918-.808 7.908 7.908 0 0 0-4.597 2.34Zm13.672 9.88 3.87 3.87-1.894 1.895c-5.363 5.406-14.074 5.406-19.437.043l-.04-.043c-1.331-1.29-2.34-2.863-3.023-4.555a14.22 14.22 0 0 1-.969-5.16c0-1.777.32-3.508.97-5.164.683-1.691 1.69-3.266 2.984-4.555 1.289-1.332 2.859-2.34 4.554-3.023a13.937 13.937 0 0 1 10.363 0c1.735.684 3.266 1.734 4.555 3.023l1.938 1.895-15.243 15.281a8.222 8.222 0 0 0 9.516-1.613l1.856-1.895M161.371 45.887v-8.348c0-1.086-.203-2.215-.644-3.223a8.245 8.245 0 0 0-4.438-4.437c-1.008-.445-2.137-.645-3.223-.645-1.129 0-2.218.2-3.27.645a8.238 8.238 0 0 0-4.433 4.437c-.445 1.008-.644 2.137-.644 3.223-.043 4.598 3.668 8.309 8.265 8.348h.082Zm-8.266-22.055c1.856 0 3.668.363 5.364 1.086a14.04 14.04 0 0 1 7.297 7.3 13.547 13.547 0 0 1 1.09 5.364v13.79h-13.75c-1.817 0-3.63-.364-5.325-1.09a14.05 14.05 0 0 1-7.379-7.38c-1.449-3.425-1.449-7.297 0-10.683a13.376 13.376 0 0 1 2.985-4.356 14.523 14.523 0 0 1 4.394-2.945 13.3 13.3 0 0 1 5.324-1.086M185.887 23.832v5.441h-2.742c-1.09 0-2.22.204-3.227.645a8.25 8.25 0 0 0-4.434 4.437c-.445 1.008-.644 2.137-.644 3.227v13.79h-5.524V37.538c0-1.855.36-3.668 1.086-5.363a13.401 13.401 0 0 1 2.985-4.352 14.202 14.202 0 0 1 4.437-2.945 13.494 13.494 0 0 1 5.32-1.09h2.743v.043M207.418 40.848c-.402.968-1.008 1.894-1.773 2.62a8.046 8.046 0 0 1-2.7 1.774 8.715 8.715 0 0 1-6.535 0 7.886 7.886 0 0 1-2.66-1.773 8.127 8.127 0 0 1-1.773-2.621c-.446-1.008-.645-2.137-.645-3.227 0-4.598 3.707-8.348 8.305-8.348h.082a8.31 8.31 0 0 1 3.265.645c3.063 1.293 5.121 4.355 5.082 7.703 0 1.129-.203 2.219-.648 3.227Zm4.96-8.551a13.552 13.552 0 0 0-2.94-4.395c-3.954-3.949-9.961-5.16-15.122-2.984a14.05 14.05 0 0 0-7.379 7.379 13.513 13.513 0 0 0-1.09 5.324c0 .445.04.887.079 1.332v18.508h5.324v-8.953a14.555 14.555 0 0 0 3.066 1.816 14.118 14.118 0 0 0 10.723 0c3.309-1.37 5.93-3.992 7.34-7.3a13.742 13.742 0 0 0 0-10.727M237.016 37.621c.039-3.387-1.977-6.41-5.121-7.703a8.743 8.743 0 0 0-6.532 0c-1.008.406-1.894 1.008-2.703 1.777-1.57 1.57-2.418 3.707-2.418 5.926 0 1.09.203 2.219.645 3.227a8.334 8.334 0 0 0 1.773 2.62 8.062 8.062 0 0 0 2.703 1.774 8.705 8.705 0 0 0 6.532 0c2.015-.847 3.628-2.418 4.476-4.437.445-.965.645-2.055.645-3.184Zm5.402 0c0 1.856-.363 3.668-1.086 5.363-1.414 3.305-4.035 5.926-7.34 7.297a14.092 14.092 0 0 1-10.726 0 13.552 13.552 0 0 1-4.395-2.941c-1.25-1.25-2.297-2.703-2.984-4.356a13.68 13.68 0 0 1 0-10.687 13.917 13.917 0 0 1 7.379-7.379c5.16-2.176 11.172-1.008 15.12 2.984a14.57 14.57 0 0 1 2.946 4.395 13.578 13.578 0 0 1 1.086 5.324" style="stroke:none;fill-rule:nonzero;fill:#00acec;fill-opacity:1"/><g clip-path="url(#a)"><path d="M265.281 40.848c-.402.968-1.008 1.894-1.773 2.62a8.023 8.023 0 0 1-2.703 1.774 8.705 8.705 0 0 1-6.532 0c-1.007-.402-1.894-1.008-2.699-1.773a8.139 8.139 0 0 1-1.777-2.621c-.442-1.008-.645-2.137-.645-3.227 0-4.598 3.711-8.348 8.309-8.348h.078a8.31 8.31 0 0 1 3.266.645 8.317 8.317 0 0 1 5.12 7.703c0 1.129-.198 2.219-.644 3.227Zm6.008-22.985h-5.32v8.871c-.93-.726-1.977-1.37-3.067-1.816a14.128 14.128 0 0 0-10.726 0 14.077 14.077 0 0 0-7.38 7.379 13.68 13.68 0 0 0 0 10.687c.688 1.614 1.735 3.106 2.985 4.356a13.552 13.552 0 0 0 4.395 2.941 14.092 14.092 0 0 0 10.726 0c3.309-1.37 5.93-3.992 7.34-7.297a13.56 13.56 0 0 0 1.09-5.363c0-.203 0-.402-.043-.605h.043l-.043-19.153" style="stroke:none;fill-rule:nonzero;fill:#00acec;fill-opacity:1"/></g><path d="M35 0C15.684 0 0 15.684 0 35c0 19.316 15.684 35 35 35 19.316 0 35-15.684 35-35C69.96 15.684 54.316.04 35 0" style="stroke:none;fill-rule:nonzero;fill:#00acec;fill-opacity:1"/><path d="m22.379 20.242 1.492-3.023c1.008-2.059 2.984-3.227 5.805-3.227h15.648c.723-.039 1.492.16 2.094.606.445.32.687.847.687 1.41 0 .402-.12.847-.28 1.21H29.757c-1.13 0-1.977.079-2.903 1.813l-.605 1.211L14.918 43.79h-3.95l11.41-23.547M10.805 49.477c-.442-.325-.684-.848-.684-1.41 0-.446.121-.848.324-1.25h4.758c.04 0 .078.038.121.038h20.442c1.129 0 1.976-.082 2.902-1.816l.605-1.207 5.97-12.379.038-.121.645-1.371 1.937-4.074h3.953l-9.8 20.281c-.082.121-.121.285-.243.406l-.078.2C40.684 48.831 38.711 50 35.887 50H12.902c-.765.121-1.492-.082-2.097-.523" style="stroke:none;fill-rule:nonzero;fill:#fff;fill-opacity:1"/><path d="M46.21 52.137c-.081.12-.163.281-.241.402l-.082.203c-1.008 2.055-2.985 3.227-5.805 3.227H24.434a3.297 3.297 0 0 1-2.094-.606c-.445-.324-.688-.847-.688-1.41 0-.445.121-.848.325-1.25h4.757c.04 0 .082.04.121.04H40.16c1.008 0 1.817-.161 2.703-1.774l.606-1.211 11.37-23.668h3.95L46.211 52.137M59.555 22.824H34.637c-1.29 0-2.137.281-2.942 1.653l-7.14 14.796-2.297 4.637h-3.871l10.16-21.047c1.008-2.058 2.984-3.226 5.808-3.226h22.743c.726-.04 1.492.16 2.097.605.442.324.684.848.684 1.41-.04.364-.16.809-.324 1.172" style="stroke:none;fill-rule:nonzero;fill:#fff;fill-opacity:1"/></svg>