<svg xmlns="http://www.w3.org/2000/svg" viewBox="0 0 379 49"><g fill="none" fill-rule="evenodd"><path fill="#A8CB3A" d="M323.217 48.069a1.08 1.08 0 0 1-.704.257h-13.75c-.435 0-.859-.23-1.038-.627a1.097 1.097 0 0 1 .287-1.299l25.092-21.132a1.183 1.183 0 0 0 .003-1.806L308.05 2.187c-.304-.259-.481-.655-.412-1.048.094-.541.558-.91 1.082-.91h13.232c.254 0 .501.09.704.256l27.306 22.97.247.211a.918.918 0 0 1 .024 1.376l-.27.247-26.746 22.78"/><path fill="#174489" d="M55.097.565h-8.39c-1.006 0-1.83.824-1.83 1.831v27.118c0 .637-.75.979-1.231.56L12.592 3.039C10.475 1.197 8.174.259 5.746.259 3.603.259 0 1.134 0 6.986v39.233a1.83 1.83 0 0 0 1.83 1.83h8.385a1.83 1.83 0 0 0 1.829-1.829V18.989a.743.743 0 0 1 1.232-.559l31.382 27.444c1.945 1.726 4.06 2.601 6.287 2.601 2.234 0 5.98-.914 5.98-7.035V2.394A1.834 1.834 0 0 0 55.097.565M116.47.565h-9.752c-.596 0-1.086.486-1.086 1.086V33.41c0 2.616-3.248 3.943-9.659 3.943H82.71c-6.531 0-9.847-1.327-9.847-3.943V1.651c0-.6-.486-1.086-1.087-1.086h-9.872c-.602 0-1.089.486-1.089 1.086v32.247c0 2.237.379 4.167 1.115 5.739.733 1.554 1.731 2.891 2.97 3.974a13.727 13.727 0 0 0 4.226 2.494 26.6 26.6 0 0 0 4.818 1.31c1.645.297 3.357.475 5.089.541 1.687.062 3.273.093 4.759.093h10.792c7.922 0 13.56-1.096 17.241-3.347 3.804-2.328 5.734-5.96 5.734-10.804V1.651c0-.6-.49-1.086-1.089-1.086M173.485 8.946v-6.25c0-1.21-.98-2.19-2.19-2.19h-47.697c-1.21 0-2.191.981-2.191 2.191v6.249c0 1.21.981 2.192 2.192 2.192h16.685c.61 0 1.105.494 1.105 1.104v33.616c0 1.21.981 2.191 2.191 2.191h7.665a2.193 2.193 0 0 0 2.193-2.192V12.242c0-.61.494-1.104 1.104-1.104h16.751a2.191 2.191 0 0 0 2.192-2.192M185.986 24.19l6.11-8.782a.706.706 0 0 1 1.157-.005l6.183 8.72a.612.612 0 0 1-.499.966h-12.481a.572.572 0 0 1-.47-.899Zm13.445-20.412c-1.643-2.294-3.818-3.459-6.465-3.459-2.611 0-4.765 1.187-6.412 3.535l-29.422 42.485c-.281.404-.261.954.079 1.342.221.251.558.368.892.368h11.566c.368 0 .714-.188.914-.497l7.389-11.368a.876.876 0 0 1 .735-.399s24.635-.006 28.364-.001c.296 0 .569.148.732.395l7.556 11.382c.2.305.541.488.906.488h11.1c.399 0 .77-.222.957-.581.19-.355.167-.784-.058-1.117L199.431 3.778ZM286.224.565h-8.621c-.945 0-1.712.767-1.712 1.713v27.491a.627.627 0 0 1-1.039.473L243.607 3.039c-2.116-1.842-4.421-2.78-6.852-2.78-2.143 0-5.744.875-5.744 6.727v39.349c0 .943.771 1.714 1.714 1.714h8.618c.947 0 1.715-.768 1.715-1.715V18.733a.627.627 0 0 1 1.04-.472l31.574 27.613c1.943 1.726 4.06 2.601 6.287 2.601 2.232 0 5.98-.914 5.98-7.035V2.28c0-.947-.768-1.715-1.715-1.715M302.734.565h-9.868c-.601 0-1.087.486-1.087 1.086v45.311c0 .599.486 1.087 1.087 1.087h9.868c.6 0 1.089-.488 1.089-1.087V1.651c0-.6-.489-1.086-1.089-1.086M354.178 20.388a1.175 1.175 0 0 0 1.521.001l21.902-18.202c.304-.259.48-.655.412-1.048a1.095 1.095 0 0 0-1.082-.91h-13.232c-.254 0-.501.09-.704.256l-15.369 12.529a1.175 1.175 0 0 0-.005 1.794l6.557 5.58M354.104 28.346a1.175 1.175 0 0 1 1.522-.001l22.228 18.154c.304.258.48.655.412 1.048-.094.54-.559.91-1.082.91h-13.233c-.253 0-.5-.09-.703-.256l-15.273-12.717a1.175 1.175 0 0 1-.005-1.794l6.134-5.344"/></g></svg>