<svg xmlns="http://www.w3.org/2000/svg" xml:space="preserve" id="logo_diap" x="0" y="0" style="enable-background:new 0 0 570.3 80.9" version="1.1" viewBox="0 0 570.3 80.9"><style>.st1{fill:#0b373c}</style><path d="M17.4 13.9c-1.9 0-3.5 1.6-3.5 3.5v23.4c0 14.8 12 26.9 26.9 26.9h23.4c1.9 0 3.5-1.6 3.5-3.5V17.4c0-1.9-1.6-3.5-3.5-3.5H17.4zM5.2 0h70.5c2.9 0 5.2 2.3 5.2 5.2v70.5c0 2.9-2.3 5.2-5.2 5.2H40.5C18.1 80.9 0 62.8 0 40.5V5.2C0 2.3 2.3 0 5.2 0z" style="fill-rule:evenodd;clip-rule:evenodd;fill:#d53b27"/><path d="M510.3 14.9c4.3 0 7.9 3.5 7.9 7.9v5c0 1.9-1.5 3.5-3.4 3.6h-14.2c-1.2 0-1.6.6-1.6 1.5s.5 1.3 1.6 1.3l14.8-.1c1.4 0 2.6 1.1 2.6 2.6v8.1c0 1.4-1.2 2.6-2.6 2.6h-14.8c-.9 0-1.7.8-1.7 1.7.1 1 1.3 1.4 1.7 1.4h14.5c1.7 0 3.1 1.2 3.3 2.9v4.1c0 4.4-3.5 7.9-7.9 7.9h-27.8c-6.1 0-11.1-5-11.1-11.1V16.6c0-.7.6-1.7 1.3-1.7h37.4zM152.3 14.9c4.4 0 7.9 3.5 7.9 7.9v13.4c0 3.1-.3 5.8-1.6 6.7-2.2 1.5-3.1 1.9-3.1 3.3 0 1.2 1 1.8 2 3.8.2.4.4.8.7 1.2 1.3 2.1 4.9 8 4.9 11.3 0 1.5-1.2 2.8-2.8 2.8H140.4c-2.4 0-3-.5-3.5-1.5-.9-1.7-3.1-6-3.1-6-.7-1.1-1.1-1.5-2.3-1.1-.6.3-1 .4-1 1.5 0 2.4.1 2.6.1 4.3s-.4 2.7-1.9 2.7H116c-6.1 0-11.1-4.9-11.1-11 0-12.9.1-33.1.1-38.1 0-.7.6-1.3 1.3-1.3l46 .1zm-22.6 22.9c-.1.9-.1 1.8.1 2.8.1 1 .6 1.6 1.4 1.4 1.4-.3 2.8-.8 4.1-1.4 1.1-.6 1.5-.7 1.5-2.5 0-.7-.5-1.3-1.2-1.3h-4c-.9-.1-1.8.1-1.9 1zM204.1 14.9c4.3 0 7.9 3.5 7.9 7.9v5c0 1.9-1.5 3.5-3.4 3.6h-14.2c-1.2 0-1.6.6-1.6 1.5s.5 1.3 1.6 1.3l14.8-.1c1.4 0 2.6 1.1 2.6 2.6v8.1c0 1.5-1.2 2.6-2.6 2.6h-14.9c-.9 0-1.7.8-1.7 1.7 0 1 1.3 1.4 1.7 1.4h14.5c1.7 0 3.1 1.2 3.3 2.9v4.1c0 4.4-3.5 7.9-7.9 7.9h-27.8c-6.1 0-11.1-5-11.1-11.1V16.6c0-.7.6-1.7 1.3-1.7h37.5zM254.7 14.9c8.7 0 15.8 7 15.9 15.7v19c0 8.7-7.1 15.8-15.8 15.8h-27.3c-6.1 0-11.1-5-11.1-11.1l.1-37.8c0-.7.6-1.6 1.3-1.6 4.1.1 22.9.1 36.9 0zM240.9 42c-.1 1.7 1.6 1.9 2.7 1.9 1.5 0 4-1.4 4-2.7v-1.6c0-2-2.3-3-3.9-3-2.8 0-2.8.9-2.8 3.5V42zM312.2 15c1.8 0 2.3 1.7 2.3 3.3v4.1c0 1.8.1 2.1 1.2 2.3s1.7.2 2.6-1.7c1.2-2.7 1.6-4.2 2.3-5.6.5-1.2 1-2.4 2.6-2.3s17.1-.1 20.8 0c1.7.1 3.1 1.7 3.1 4-.1 3-7.1 15-8.2 16.8s-1.6 2.5-1.6 4.2c0 1.3.7 2.1 1.9 4.3 1.5 2.8 3.9 7.2 6.2 11.6.1.1.1.3.2.4.8 2.5 1.6 2.5 1.6 5.1 0 1.7-1.3 4-3 4h-20.4c-2.4 0-4-5-5.5-8-1-1.9-1.7-1.7-2.4-1.4s-1.1.9-1.1 2v4.7c0 1.5-.9 2.7-2.1 2.7h-12.8c-6.1 0-11.1-5-11.1-11.1V16.5c0-.8.5-1.4 1.3-1.6l22.1.1zM466.8 22.9v8.8s-.3 3.6-4.2 6.9l-.1.1c-1.3.9-1.5 1.2-1.5 1.7s.1.8 1.7 1.5c4.4 1.9 4.4 2.7 4.4 5.5v10.2c0 4.4-3.5 7.9-7.9 7.9h-35.3c-6.1 0-11.1-5-11.1-11.1v-38c0-.7.6-1.3 1.3-1.3H459c4.2-.1 7.8 3.4 7.8 7.8zm-27 27.3h1.4c.9-.1 1.5-.8 1.5-1.6 0-1.4-.5-2.1-3.6-2.8-1.3-.3-1.4.2-1.4 1.7 0 2.1.6 2.7 2.1 2.7zm-.4-15.1c2.9-.8 3.3-1.7 3.3-3.1 0-.8-.6-1.4-1.3-1.4h-2.2c-1.3 0-1.5.8-1.5 2.1-.1 1.8.2 2.7 1.7 2.4zM562.3 14.9c4.4 0 7.9 3.5 7.9 7.9V34c.1 1.3-.8 2.9-3.4 2.4-.5-.1-9-2.4-9-2.4-1.1-.3-2-.6-2.4.1s-.3 1.3.7 2c0 0 9.8 6.9 11.6 8.2s2.4 3 2.5 5.5v7.8c0 4.4-3.5 7.9-7.9 7.9h-29.2c-6.1 0-11-4.9-11.1-11 0-3.4 0-6.5-.1-7.6-.1-1.2 1.6-2.4 2.7-2.4l8.1 2.2c1.5.7 2.2.7 2.6 0s.4-.7-1.1-2.4l-8.6-8c-3.4-3-3.5-4.9-3.5-10.2v-9.4c0-.7.6-1.7 1.3-1.7l38.9-.1zM374.1 15.1c2 0 3.3 2 3.3 3.8v20.6c0 1.5 1.2 2.7 2.6 2.7h.6c1.5 0 2.6-1.2 2.6-2.6 0-5.8-.1-19.1-.1-23.1 0-.7.6-1.3 1.3-1.3h18.4c4.2 0 5.3 2.9 5.3 7.3v35.3c0 4.4-3.5 7.9-7.9 7.9h-37.7c-6.1 0-11-4.9-11-11v-38c0-.7.6-1.6 1.3-1.6h21.3z" class="st1"/></svg>