<svg xmlns="http://www.w3.org/2000/svg" fill="none" viewBox="0 0 3496 770"><circle cx="385" cy="385" r="385" fill="#1D66FF"/><path fill="#fff" fill-rule="evenodd" d="M604 332.364C604 367.509 575.51 396 540.363 396H517v70h23.363C575.51 466 604 494.491 604 529.636a6.364 6.364 0 0 1-6.363 6.364H404c-5.523 0-10-4.477-10-10V336c0-5.523 4.477-10 10-10h193.637a6.364 6.364 0 0 1 6.363 6.364ZM367.637 326a6.364 6.364 0 0 1 6.363 6.364V532a4 4 0 0 1-4 4H170.363a6.364 6.364 0 0 1-6.363-6.364C164 494.491 192.49 466 227.637 466H231c40.316 0 73-32.683 73-73v-3.364C304 354.491 332.49 326 367.637 326Z" clip-rule="evenodd"/><path fill="#fff" fill-rule="evenodd" d="M425 240.364C425 275.509 396.51 304 361.363 304H358c-40.297 0-72.969 32.651-73 72.941v3.423C285 415.509 256.51 444 221.363 444a6.364 6.364 0 0 1-6.363-6.364V244c0-5.523 4.477-10 10-10h193.637a6.364 6.364 0 0 1 6.363 6.364Z" clip-rule="evenodd"/><path fill="#1D66FF" d="M467 431c0-19.33 15.67-35 35-35h36v70h-36c-19.33 0-35-15.67-35-35ZM1154.46 455.064c0-12.451-4.4-21.972-13.19-28.564-8.78-6.738-24.6-13.77-47.46-21.094-22.85-7.47-40.94-14.795-54.27-21.972-36.33-19.629-54.491-46.07-54.491-79.322 0-17.285 4.834-32.666 14.502-46.142 9.819-13.623 23.799-24.243 41.969-31.861 18.31-7.617 38.82-11.425 61.52-11.425 22.85 0 43.21 4.174 61.09 12.524 17.87 8.203 31.71 19.849 41.52 34.937 9.97 15.087 14.95 32.226 14.95 51.416h-65.92c0-14.649-4.62-26.001-13.85-34.058-9.22-8.203-22.19-12.305-38.89-12.305-16.11 0-28.63 3.443-37.57 10.327-8.94 6.739-13.4 15.674-13.4 26.807 0 10.4 5.2 19.116 15.6 26.147 10.54 7.032 26 13.624 46.36 19.776 37.5 11.279 64.82 25.268 81.96 41.968 17.14 16.699 25.71 37.5 25.71 62.402 0 27.686-10.48 49.438-31.43 65.259-20.94 15.674-49.14 23.511-84.59 23.511-24.61 0-47.02-4.468-67.24-13.404-20.21-9.082-35.67-21.46-46.359-37.134-10.546-15.673-15.82-33.837-15.82-54.492h66.139c0 35.303 21.09 52.954 63.28 52.954 15.67 0 27.91-3.149 36.69-9.448 8.79-6.445 13.19-15.381 13.19-26.807Zm320.8-32.739c0 36.621-8.35 65.991-25.05 88.111-16.55 21.972-38.96 32.959-67.24 32.959-24.02 0-43.43-8.35-58.22-25.049v112.06h-63.5v-329.15h58.88l2.2 23.291c15.38-18.457 35.45-27.686 60.2-27.686 29.3 0 52.08 10.84 68.34 32.52 16.26 21.68 24.39 51.562 24.39 89.648v3.296Zm-63.5-4.614c0-22.119-3.96-39.185-11.87-51.196-7.76-12.012-19.11-18.018-34.06-18.018-19.92 0-33.61 7.617-41.08 22.852v97.339c7.76 15.673 21.6 23.51 41.52 23.51 30.33 0 45.49-24.829 45.49-74.487ZM1652.58 539c-2.93-5.713-5.06-12.817-6.37-21.313-15.38 17.138-35.38 25.708-59.99 25.708-23.29 0-42.63-6.739-58.01-20.215-15.23-13.477-22.85-30.469-22.85-50.977 0-25.195 9.3-44.531 27.91-58.008 18.75-13.476 45.77-20.288 81.08-20.434h29.22v-13.623c0-10.987-2.86-19.776-8.57-26.367-5.57-6.592-14.43-9.888-26.59-9.888-10.69 0-19.11 2.563-25.27 7.69-6 5.127-9 12.158-9 21.094h-63.51c0-13.77 4.25-26.514 12.75-38.232 8.5-11.719 20.51-20.874 36.03-27.466 15.53-6.739 32.96-10.108 52.3-10.108 29.3 0 52.51 7.398 69.65 22.193 17.29 14.648 25.93 35.302 25.93 61.963v103.051c.15 22.559 3.3 39.624 9.45 51.197V539h-64.16Zm-52.52-44.165c9.38 0 18.02-2.051 25.93-6.152 7.91-4.248 13.77-9.888 17.58-16.919v-40.869h-23.73c-31.79 0-48.71 10.986-50.76 32.959l-.22 3.735c0 7.91 2.79 14.429 8.35 19.556 5.57 5.126 13.19 7.69 22.85 7.69Zm254.89-2.637c11.72 0 21.24-3.222 28.56-9.668 7.32-6.445 11.13-15.014 11.43-25.708h59.54c-.14 16.114-4.54 30.908-13.18 44.385-8.64 13.33-20.51 23.731-35.6 31.201-14.94 7.324-31.49 10.987-49.66 10.987-33.98 0-60.79-10.767-80.42-32.3-19.62-21.68-29.44-51.563-29.44-89.649v-4.175c0-36.621 9.74-65.844 29.23-87.67 19.48-21.827 46.21-32.74 80.2-32.74 29.73 0 53.54 8.496 71.41 25.489 18.01 16.845 27.17 39.331 27.46 67.456h-59.54c-.3-12.305-4.11-22.266-11.43-29.883-7.32-7.764-16.99-11.646-29-11.646-14.8 0-26 5.42-33.62 16.26-7.47 10.693-11.21 28.125-11.21 52.295v6.592c0 24.463 3.74 42.041 11.21 52.734 7.47 10.694 18.82 16.04 34.06 16.04Zm245.21 51.197c-34.86 0-63.28-10.694-85.25-32.081-21.83-21.386-32.74-49.877-32.74-85.473v-6.153c0-23.876 4.61-45.19 13.84-63.94 9.23-18.896 22.27-33.398 39.11-43.506 16.99-10.254 36.33-15.381 58.01-15.381 32.52 0 58.08 10.254 76.68 30.762 18.75 20.508 28.13 49.585 28.13 87.231v25.928h-151.39c2.05 15.528 8.2 27.979 18.45 37.354 10.41 9.375 23.52 14.062 39.34 14.062 24.46 0 43.58-8.862 57.34-26.587l31.21 34.937c-9.53 13.476-22.42 24.023-38.68 31.64-16.26 7.471-34.27 11.207-54.05 11.207Zm-7.25-195.118c-12.6 0-22.85 4.248-30.76 12.744-7.77 8.497-12.75 20.655-14.94 36.475h88.33v-5.054c-.3-14.062-4.1-24.902-11.43-32.519-7.32-7.764-17.72-11.646-31.2-11.646Zm508.67 84.156c-2.49 34.423-15.24 61.523-38.24 81.298-22.85 19.776-53.02 29.664-90.52 29.664-41.02 0-73.32-13.77-96.9-41.309-23.44-27.686-35.16-65.625-35.16-113.818v-19.556c0-30.762 5.42-57.861 16.26-81.299 10.84-23.437 26.3-41.382 46.36-53.833 20.22-12.598 43.66-18.896 70.32-18.896 36.91 0 66.65 9.887 89.21 29.663 22.55 19.775 35.59 47.534 39.11 83.276h-65.92c-1.61-20.654-7.4-35.596-17.36-44.824-9.81-9.375-24.83-14.063-45.04-14.063-21.98 0-38.46 7.91-49.44 23.731-10.84 15.674-16.41 40.063-16.7 73.169v24.17c0 34.57 5.2 59.839 15.6 75.805 10.55 15.967 27.1 23.951 49.66 23.951 20.36 0 35.52-4.615 45.48-13.843 10.11-9.375 15.89-23.804 17.36-43.286h65.92ZM2707.71 539h-63.73V201.5h63.73V539Zm42.62-121.069c0-23.584 4.54-44.605 13.63-63.062 9.08-18.457 22.11-32.739 39.11-42.847 17.14-10.107 36.98-15.161 59.54-15.161 32.08 0 58.23 9.815 78.44 29.444 20.37 19.629 31.72 46.289 34.06 79.98l.44 16.26c0 36.475-10.18 65.771-30.54 87.891-20.36 21.972-47.68 32.959-81.96 32.959-34.28 0-61.67-10.987-82.18-32.959-20.36-21.973-30.54-51.856-30.54-89.649v-2.856Zm63.5 4.614c0 22.559 4.25 39.844 12.75 51.855 8.49 11.866 20.65 17.798 36.47 17.798 15.38 0 27.39-5.859 36.04-17.578 8.64-11.865 12.96-30.762 12.96-56.689 0-22.119-4.32-39.258-12.96-51.416-8.65-12.159-20.8-18.238-36.48-18.238-15.53 0-27.54 6.079-36.03 18.238-8.5 12.011-12.75 30.688-12.75 56.03Zm343.22 92.285c-15.68 19.043-37.36 28.565-65.04 28.565-25.49 0-44.97-7.325-58.45-21.973-13.33-14.649-20.14-36.109-20.44-64.38V301.256h63.51v153.589c0 24.756 11.28 37.134 33.83 37.134 21.54 0 36.33-7.471 44.39-22.413v-168.31h63.72V539h-59.77l-1.75-24.17Zm99.53-96.46c0-37.06 8.28-66.577 24.83-88.55 16.7-21.972 39.48-32.959 68.34-32.959 23.14 0 42.26 8.643 57.34 25.928V201.5h63.73V539h-57.35l-3.08-25.269c-15.82 19.776-36.18 29.664-61.08 29.664-27.98 0-50.47-10.987-67.46-32.959-16.85-22.12-25.27-52.808-25.27-92.066Zm63.5 4.614c0 22.266 3.88 39.331 11.65 51.197 7.76 11.865 19.04 17.798 33.84 17.798 19.63 0 33.47-8.277 41.52-24.83v-93.823c-7.91-16.553-21.6-24.829-41.08-24.829-30.62 0-45.93 24.829-45.93 74.487Z"/></svg>