<svg xmlns="http://www.w3.org/2000/svg" fill="none" viewBox="0 0 1280 295"><path fill="#1D2751" fill-rule="evenodd" d="M118.087 252.718c-.169-.175-.318-.357-.493-.526a23.642 23.642 0 0 0-14.28-6.608v-40.9a23.748 23.748 0 0 0 15.175-7.486c7.153-7.669 8.446-18.823 4.063-27.772l36.798-24.856a24.273 24.273 0 0 0 7.269 6.154l-48.532 101.994Zm-75.51-107.931 36.837 24.879c-4.442 9.348-2.717 20.911 5.081 28.436a23.786 23.786 0 0 0 14.3 6.586v40.896c-5.422.516-10.681 2.893-14.783 7.111L35.49 150.73a24.101 24.101 0 0 0 7.088-5.943Zm130.514-39.557c-5.551 1.19-10.236 4.247-13.582 8.388l-37.282-25.184c3.762-7.153 3.836-15.878.004-23.151l37.291-25.184c4.027 4.951 9.876 8.17 16.267 8.787v55.935c-.895.088-1.793.214-2.698.409Zm-55.497 57.345a23.655 23.655 0 0 0-14.28-6.605v-24.516h50.799c.088.924.211 1.852.402 2.782a24.8 24.8 0 0 0 2.361 6.55l-36.685 24.779a24.462 24.462 0 0 0-2.597-2.99Zm-69.586-31.121h50.786v24.516a23.707 23.707 0 0 0-15.168 7.487 24.04 24.04 0 0 0-1.89 2.325l-36.65-24.753a24.708 24.708 0 0 0 2.922-9.575ZM29.014 48.471c5.545-1.196 10.22-4.254 13.563-8.378l37.308 25.196c-3.765 7.16-3.843 15.882-.01 23.151l-37.269 25.171c-4.033-4.967-9.889-8.197-16.29-8.809V48.873a25.087 25.087 0 0 0 2.698-.402Zm18.978 78.463a24.736 24.736 0 0 0-.402-2.808 24.779 24.779 0 0 0-2.468-6.763l37.23-25.142c.191.243.363.5.57.74 4.222 4.918 9.949 7.693 15.872 8.261v25.712H47.992Zm106.105 0h-50.783v-25.712a23.665 23.665 0 0 0 13.547-5.895 23.962 23.962 0 0 0 2.902-3.103l37.239 25.155a24.745 24.745 0 0 0-2.905 9.555Zm.418-97.392a24.736 24.736 0 0 0 2.484 6.805l-37.242 25.155c-.195-.243-.367-.496-.571-.733-8.732-10.197-23.92-11.247-33.932-2.38a24.49 24.49 0 0 0-2.905 3.11L45.087 36.334a24.744 24.744 0 0 0 2.921-9.578h106.105c.088.928.211 1.855.402 2.786ZM183.01 48.47c13.005-2.808 21.312-15.794 18.576-29.036-2.73-13.22-15.509-21.702-28.495-18.9-10.573 2.263-18.05 11.29-18.994 21.701H47.992a24.707 24.707 0 0 0-.402-2.801C44.86 6.215 32.081-2.267 19.099.535c-13 2.782-21.32 15.78-18.576 29.007 2.218 10.755 11.06 18.361 21.274 19.344v55.935c-.895.088-1.797.214-2.698.409-13 2.782-21.32 15.777-18.576 29.006 2.73 13.236 15.492 21.702 28.491 18.93a24.39 24.39 0 0 0 2.743-.782l49.415 103.839c-6.498 9.756-5.353 23.121 3.323 31.493a23.781 23.781 0 0 0 33.994-.901c7.924-8.502 8.68-21.29 2.454-30.602l49.415-103.842a23.514 23.514 0 0 0 12.652.795c13.005-2.808 21.312-15.794 18.576-29.04-2.221-10.739-11.07-18.345-21.277-19.324V48.873a25.173 25.173 0 0 0 2.701-.402Z" clip-rule="evenodd"/><path fill="#1D2751" d="M1021.36 151.048v-.002c-.02-.466-.05-.947-.07-1.453h-22.667v4.309c0 3.196-.011 6.393-.022 9.59-.03 8.707-.06 17.415.132 26.119.068 3.346-1.174 4.429-4.011 4.996-10.113 1.952-20.236 2.27-30.381.743-12.925-1.969-21.789-9.663-24.536-22.117-2.915-13.213-3.038-26.63-.045-39.895 2.526-11.089 9.319-18.611 20.262-21.435 5.431-1.404 11.125-2.066 16.747-2.335 13.385-.642 26.451 1.731 39.491 6.041.26-2.028.51-4.011.75-5.962v-.045c.58-4.626 1.13-9.072 1.73-13.51.29-2.114-.22-3.132-2.42-3.806-20.985-6.371-42.252-7.613-63.6-2.626-19.108 4.468-32.661 15.946-38.601 35.348-5.146 16.809-5.204 34.01-1.514 51.127 3.038 14.156 10.074 25.819 22.564 33.426 9.208 5.597 19.35 8.126 29.969 9.144 17.98 1.705 35.562.24 52.792-5.486 2.73-.899 3.61-2.238 3.59-5.156-.08-11.996-.07-23.991-.07-35.987.01-6.177.01-12.355 0-18.534 0-.819-.04-1.63-.09-2.494ZM381.545 143.045c4.781 1.486 9.567 2.974 14.093 5.067 18.186 8.405 24.944 25.262 18.083 44.418-4.617 12.85-14.4 20.152-26.828 23.566-22.684 6.239-44.716 3.515-65.945-6.605-.201-.094-.387-.242-.59-.404-.112-.089-.229-.183-.356-.273.802-5.59 1.624-11.153 2.487-16.991l.004-.026.754-5.109c.527.23 1.023.445 1.499.651.807.348 1.556.672 2.298 1.009 15.399 7.172 31.397 10.57 48.293 7.814 5.133-.856 9.948-2.772 13.265-7.234 4.691-6.297 3.715-14.105-3.158-17.642-4.764-2.454-9.919-4.152-15.061-5.845-1.528-.503-3.057-1.006-4.572-1.528-2.888-.991-5.813-1.884-8.737-2.776-4.988-1.522-9.974-3.044-14.768-5.051-13.553-5.697-21.902-15.626-21.542-31.345.347-15.778 9.14-27.96 24.114-33.65 12.311-4.669 25.145-5.013 37.923-3.508 6.542.768 12.998 2.363 19.446 3.956 2.076.513 4.151 1.026 6.227 1.51 1.009.23 2.614 1.729 2.526 2.474-.544 5.119-1.292 10.206-1.998 14.999-.214 1.458-.425 2.891-.625 4.287-3.168-.536-6.283-1.089-9.362-1.636-7.018-1.247-13.854-2.462-20.727-3.363-8.275-1.08-16.608-.61-24.445 2.769-6.099 2.613-9.533 8.2-7.555 13.585 1.106 3.022 3.855 6.407 6.689 7.562 5.207 2.13 10.6 3.759 15.998 5.39 2.753.832 5.508 1.664 8.239 2.563 1.439.467 2.885.916 4.331 1.366ZM590.499 89.328h-25.901V216.58h25.901V89.328ZM750.998 89.367H725.03v127.317h25.968V89.367ZM612.861 89.328h25.557v104.406h65.604v22.986h-91.161V89.328ZM433.422 112.483h41.334v104.305h26.29V112.324h41.172V89.367H433.422v23.116ZM1133.98 89.328h25.95V93.7c0 6.545.01 13.091.03 19.638v.02c.03 16.859.07 33.72-.14 50.567-.11 7.227-.86 14.594-2.53 21.591-3.79 15.849-14.2 25.972-29.4 30.349-18.39 5.34-37 5.389-55.13-1.352-17.35-6.43-26.96-20.045-27.85-38.261-.9-18.692-.9-37.429-.89-56.171 0-7.744 0-15.489-.06-23.233-.03-1.764-.02-3.525-.02-5.39v-2.08h26.14v4.718c.01 6.847.01 13.695.01 20.544-.01 18.361-.02 36.724.19 55.079.17 14.912 8.86 24.389 23.56 25.647 6.78.564 13.84.438 20.52-.807 12.11-2.231 19.15-10.859 19.31-23.349.24-18.091.25-36.196.27-54.303.01-7.488.02-14.976.04-22.464v-5.114ZM1208.18 194.435v-33.458h58.35v-20.168h-58.24v-29.192h68.62V89.446h-94.6v127.33H1280v-22.341h-71.82ZM863.737 173.592c.339.361.708.753 1.115 1.197V89.384h22.807v127.521c-1.372 0-2.745.006-4.118.011-4.121.016-8.243.033-12.353-.098-.889-.02-1.897-1.051-2.559-1.875-17.045-20.646-34.066-41.309-51.089-61.974-6.626-8.044-13.253-16.088-19.881-24.131-.099-.118-.221-.202-.485-.385-.152-.106-.352-.244-.621-.439v88.606H773.37V89.089c1.745 0 3.493.014 5.244.028 4.196.035 8.407.07 12.622-.093 3.093-.12 4.971 1.031 6.916 3.443 16.688 20.832 33.468 41.594 50.243 62.348 4.528 5.602 9.056 11.204 13.581 16.806.506.637 1.072 1.238 1.761 1.971Z"/></svg>