<svg xmlns="http://www.w3.org/2000/svg" viewBox="0 0 478 176"><g fill="none" fill-rule="nonzero"><path fill="#0B3850" d="M436.35 38.792c11.806 0 21.523 4.381 29.151 13.144 7.774 8.73 11.612 19.715 11.612 33.005 0 12.996-3.838 23.785-11.515 32.466-7.628 8.582-17.264 12.882-28.908 12.898-10.058 0-19.046-4.054-26.965-12.162v56.447l-19.775.245V45.952l19.823.344v4.315c7.822-7.895 16.681-11.835 26.577-11.819ZM228.354 0l-18.755 41.146-44.893 93.082-23.856-55.76-24.147 55.76-44.845-93.082 18.269-8.827 26.48 58.262 24.243-57.33 24.39 57.33 24.925-55.516L228.354 0ZM46.983 0C62.627 0 75.89 7.062 84.685 21.137L67 30.26c-3.11-5.002-6.073-8.24-8.891-9.76-2.915-1.716-6.705-2.599-11.37-2.599-5.684 0-10.445 1.472-14.186 4.463-3.742 2.992-5.636 6.62-5.636 11.035 0 6.13 4.955 11.034 14.818 14.81l13.556 5.1c11.029 4.12 19.094 9.123 24.244 15.106 5.15 5.983 7.677 13.192 7.677 21.824 0 11.524-4.163 21.071-12.487 28.64-8.405 7.602-18.803 11.378-31.29 11.378-11.806 0-21.555-3.22-29.248-9.661C6.607 114.12 1.88 105.032 0 93.327l20.795-4.217c.923 7.356 2.575 12.456 4.956 15.3 4.226 5.444 10.397 8.142 18.51 8.142 6.414 0 11.71-1.962 15.937-5.934 4.227-3.973 6.365-8.975 6.365-15.056a19.872 19.872 0 0 0-1.118-6.72 16.449 16.449 0 0 0-3.45-5.59 27.2 27.2 0 0 0-6.024-4.806 64.688 64.688 0 0 0-8.794-4.267l-13.118-5.051C15.45 57.87 6.138 47.244 6.122 33.251c0-9.417 3.903-17.296 11.709-23.639C25.653 3.237 35.371 0 46.983 0Zm196.626 38.792c12.73 0 23.662 4.414 32.602 13.242 8.794 8.827 13.199 19.682 13.215 32.564 0 12.996-4.421 23.834-13.313 32.613-8.89 8.778-19.871 13.045-32.844 13.045-12.875 0-23.612-4.463-32.31-13.34-8.696-8.778-13.053-19.796-13.069-33.054 0-12.506 4.438-23.148 13.313-31.926 8.842-8.779 19.677-13.144 32.406-13.144Zm95.715 0c12.73 0 23.66 4.414 32.6 13.242 8.795 8.827 13.2 19.682 13.216 32.564 0 12.996-4.421 23.834-13.312 32.613-8.892 8.778-19.872 13.045-32.844 13.045-12.876 0-23.613-4.463-32.31-13.34-8.746-8.778-13.07-19.813-13.07-33.054 0-12.506 4.438-23.148 13.313-31.926 8.842-8.779 19.677-13.144 32.407-13.144Zm93.77 18.048c-7.288 0-13.166 2.55-17.685 7.65-4.518 5.1-6.802 11.82-6.802 20.108 0 8.14 2.284 14.81 6.802 20.107 4.47 5.15 10.349 7.749 17.637 7.749 6.85 0 12.535-2.6 17.005-7.847 4.567-5.248 6.85-11.77 6.85-19.617 0-8.288-2.235-15.056-6.704-20.254-4.519-5.297-10.203-7.896-17.103-7.896Zm-189.485-.05c-7.579 0-13.7 2.551-18.414 7.651-4.712 5.1-7.044 11.672-7.044 19.764 0 8.632 2.283 15.498 6.85 20.549 4.713 5.1 10.883 7.65 18.608 7.65 7.726 0 13.945-2.5 18.609-7.552 4.664-5.051 6.948-11.77 6.948-20.205 0-8.436-2.332-15.154-6.948-20.206-4.713-5.1-10.883-7.65-18.609-7.65Zm95.715 0c-7.58 0-13.702 2.551-18.414 7.651-4.713 5.1-7.045 11.672-7.045 19.764 0 8.632 2.283 15.498 6.85 20.549 4.713 5.1 10.883 7.65 18.609 7.65 7.725 0 13.944-2.5 18.608-7.552 4.664-5.051 6.948-11.77 6.948-20.205 0-8.436-2.332-15.154-6.948-20.206-4.713-5.1-10.883-7.65-18.608-7.65Z"/><path fill="#96D3E1" d="M225.924 22.756 210.717 40.46l-20.552-5.395z"/><path fill="#082330" d="m222.426 34.477-13.75 8.778-18.511-8.19z"/></g></svg>