<svg xmlns="http://www.w3.org/2000/svg" viewBox="0 0 205 143"><path d="M142 137.1c0-.1-.1-.2-.3-.1-1.8 2.1-4.7 3.7-8.1 3.7-5.2 0-8.6-3.6-8.6-9.2 0-5.7 3.2-9.2 8.4-9.2 3 0 6.1 1.4 8 3.4.1.1.3 0 .3-.1v-2.9c-2.1-1.9-5.2-3.1-8.3-3.1-3.2 0-6.1 1.2-8 3.3-1.9 2.1-3 5.1-3 8.6 0 7.1 4.5 11.9 11.1 11.9 3.2 0 6.3-1.2 8.4-3.2v-3.1h.1ZM-.5 120.2v2.5h7.8v20.1H10v-20.1h7.9v-2.5ZM202 127.9c-1.4-1.5-3.8-2.1-5.4-2.1-2.3 0-4.3.8-5.7 2.4-1.5 1.5-2.2 3.8-2.2 6.3 0 6 4 8.7 8 8.7 2.3 0 4.2-.8 5.4-2.3v1.9h2.7v-22.7H202v7.8Zm0 6.6c0 3.1-1.8 6.2-5.2 6.2-2.6 0-5.4-1.9-5.4-6.1 0-3.1 1.6-6.4 5.2-6.4 4 .1 5.4 3.4 5.4 6.3ZM145.6 120.3h2.7v22.6h-2.7ZM66.6 138.6c0-.1-.1-.2-.3-.1-1.8 1.6-4.4 2.2-5.5 2.2-3.6 0-6-2.4-6-6.2 0-3.8 2.4-6.2 6-6.2 1.1 0 3.6.3 5.5 1.9.1.1.2 0 .2-.1v-2.5c-1.1-.7-3.5-1.8-5.9-1.8-5 0-8.4 3.5-8.4 8.7 0 5.2 3.4 8.7 8.4 8.7 2.1 0 4.1-.6 5.9-1.8l.1-2.8ZM31.1 138.1c0-.1-.2-.2-.3-.1-1.2 1.5-4.1 2.9-5.8 2.9-1.7 0-3.3-.5-4.1-1.5-1-1.1-1.6-2.6-1.6-4.1H32v-.2c0-3.6-.6-5.6-2.2-7.2-1.3-1.3-3.1-2.1-5.3-2.1-4.7 0-7.8 3.4-7.8 8.6.1 5.4 3.3 8.7 8.3 8.7 2.4 0 4.4-.8 6.3-2.4l-.2-2.6Zm-1.8-5.1H19.2v-.1c.1-1.4.7-2.6 1.8-3.6.9-.7 2.1-1.1 3.2-1.1 3.1 0 5 1.8 5.1 4.8ZM182.9 134.7c0 4.5-2.6 6.1-4.9 6.1-2.1 0-4.5-1.5-4.5-4.3v-10.2H171v10.2c0 4 2.8 6.8 6.9 6.8 2.3 0 4-.7 5.2-2.2v1.8h2.4v-16.6H183l-.1 8.4ZM42.6 125.8c-2.1 0-3.8.7-5 2v-1.5H35v16.5h2.6v-9.5c0-1.5.5-2.9 1.3-3.8 1-.9 2.1-1.3 3.5-1.3 2.1.1 4.1 1.4 4.1 4.3v10.1h2.7v-10.1c0-2.1-.7-3.8-1.9-4.9-1.1-1.2-2.8-1.8-4.7-1.8ZM83.7 138.1c0-.1-.2-.2-.3-.1-1.2 1.5-4.1 2.9-5.8 2.9-1.7 0-3.3-.5-4.1-1.5-1-1.1-1.6-2.6-1.6-4.1h12.7v-.2c0-3.6-.6-5.6-2.2-7.2-1.4-1.3-3.2-2.1-5.4-2.1-4.7 0-7.8 3.4-7.8 8.6.1 5.4 3.3 8.7 8.3 8.7 2.4 0 4.4-.8 6.3-2.4l-.1-2.6Zm-1.8-5.1H71.8v-.1c.1-1.4.7-2.6 1.8-3.6.9-.7 2.1-1.1 3.2-1.1 3 0 4.9 1.8 5.1 4.8ZM95.1 125.8c-2.1 0-3.8.7-5 2v-1.5h-2.6v16.5H90v-9.5c0-1.5.5-2.9 1.3-3.8 1-.9 2.1-1.3 3.5-1.3 2.1.1 4.1 1.4 4.1 4.3v10.1h2.6v-10.1c0-2.1-.7-3.8-1.9-4.9-.9-1.2-2.5-1.8-4.5-1.8ZM110.3 143c1.6-.1 3.4-.7 3.4-.7v-2.5c0-.1-.1-.2-.2-.1-.7.2-2.1.7-2.8.7-.3.1-.5.1-.7-.1-.1-.1-.1-.2-.1-.5v-11.1h4.8v-2.4h-4.8v-4.5h-2.7v4.4h-2.7v2.4h2.7V140c0 1 .3 1.8.9 2.3.5.5 1.3.7 2.2.7ZM160 125.8c-4.8 0-8 3.5-8 8.7 0 5.1 3.2 8.7 8 8.7s8-3.5 8-8.7c.1-5.1-3.2-8.7-8-8.7Zm-5.6 8.7c0-3.7 2.2-6.1 5.5-6.1s5.5 2.5 5.5 6.2-2.2 6.2-5.5 6.2c-3.2-.1-5.5-2.6-5.5-6.3Z"/><path fill="#00a1ff" d="M164.3 47.5c-6-6.1-14.3-10-23.6-10-8 0-14.9 2.8-21 7.7-2.7 2.1-5.4 4.6-8.9 8-1.8 1.6-51.7 50.2-51.7 50.2 2.7.4 6.2.4 9.5.5h62.9c4.8 0 8 0 11.4-.2 7.8-.6 15.1-3.4 21-9.2 13.1-12.9 13.3-33.9.4-47m-9.6 37.7c-2.6 2.5-7.1 5.4-14.5 5.7-3.5.1-7.5.1-9.4.1H90.7c14.5-14.1 27.3-26.5 28.7-27.9 1.3-1.3 4.3-4.1 6.9-6.4 5.7-5 10.7-6.1 14.3-6 5.6.1 10.7 2.4 14.4 6 7.8 7.9 7.7 20.7-.3 28.5"/><path fill="#00c4d6" d="M83.7 44.4c-5.9-4.4-12.5-6.9-19.9-6.9-9.3 0-17.6 3.8-23.6 10-12.8 13.1-12.7 34.1.5 47 5.3 5.2 11.7 8 18.5 9L72 91c-2.1 0-5-.1-7.7-.1-7.5-.2-12-3.1-14.5-5.7-8-7.8-8.2-20.6-.4-28.5 3.6-3.7 8.8-6 14.4-6 3.5 0 8.3 1 13.7 5.5 2.6 2.1 8.3 7.2 10.8 9.4.1.1.3.1.4 0l8.9-8.7c.1-.1.1-.4 0-.4-4.3-4.1-10.3-9.4-13.9-12.1"/><path fill="#006eff" d="M144.2 30.1C138 12.8 121.5.4 102.2.4c-22.3 0-40.7 16.3-44 37.5 1.8-.3 3.6-.4 5.5-.4 2.7 0 5.2.3 7.5.9h.1c3-14.3 15.7-25 30.8-25 12.6 0 23.6 7.6 28.6 18.3.1.1.2.2.4.2 3.8-1 8.2-1.6 12.6-1.3.4.1.5-.1.5-.5"/></svg>