<svg xmlns="http://www.w3.org/2000/svg" xml:space="preserve" style="enable-background:new 0 0 984.2 696.7" viewBox="0 0 984.2 696.7"><path d="M877.8 408.7c11.7-8.4 22.1-18.7 31.6-30.9 7.9-10.7 15.1-24.4 21.8-40.7 6.5-16.4 9.8-36.3 9.8-59.7 0-29.5-5.3-55.6-15.7-78.2-10.6-22.6-25.2-41.7-43.9-57.2s-40.8-27.2-66.3-35.1C789.6 98.9 762 95 731.9 95H571.3v467.8l.4.2H720V444.4l133.7 226 104.5 26.3 26.1-103.5-106.5-184.5zm-104.9-95.5c-12.4 8-27.4 11.9-45.3 11.9h-7.8V221.3h7.8c17.7 0 32.8 3.9 45.3 11.9 12.4 8 18.6 21.3 18.6 40-.1 18.7-6.2 32.2-18.6 40z" style="fill:#4d4d4d"/><path d="M570.5 295.3v-2.5L481.3 563H364.9l-47-141.8L270.8 563H154.4L0 95.1 48 0l95 47.9 69.6 210.6 54-163.4h102.5l54 163.4 54-163.4h159.6z" style="fill:#ff4758"/></svg>