<svg xmlns="http://www.w3.org/2000/svg" fill="none" viewBox="0 0 1010 157"><g clip-path="url(#a)"><path fill="#212529" d="M893.274 11.929h-27.011V80.89h-15.834V11.93h-26.833V.179h69.678v11.75ZM645.694 68.961c.681-1.97 1.075-4.729 1.075-8.383h-.108V.322h-15.834v58.322c0 4.12-1.075 6.806-3.296 8.275-2.221 1.433-6.162 2.15-11.786 2.15h-16.264c-5.696 0-9.637-.681-11.822-2.186-2.185-1.504-3.26-4.334-3.26-8.49V.358h-15.834v60.149c0 3.869.358 6.663.967 8.382 1.039 2.472 3.009 4.873 6.054 7.165 2.687 2.078 5.768 3.403 9.135 4.048 2.293.538 5.84.753 10.568.753h24.719c4.98 0 8.562-.18 10.747-.574 3.189-.644 6.234-2.006 9.064-4.155 2.902-2.15 4.8-4.55 5.839-7.165h.036ZM268.251 61.366c0 6.234-2.006 10.927-6.054 14.115-4.335 3.582-10.21 5.374-17.59 5.374H217.13c-8.562 0-15.082-1.505-19.524-4.55-3.045-2.006-5.016-4.514-6.054-7.416-.502-1.683-.789-4.55-.789-8.67V19.38c0-3.761.394-6.663 1.254-8.597 1.182-2.544 3.475-4.73 6.843-6.7 4.227-2.471 10.353-3.69 18.27-3.69h45.425v11.572H220.39c-4.98 0-8.455.645-10.389 1.863-2.293 1.397-3.439 3.869-3.439 7.38v38.439c0 3.582 1.254 6.197 3.726 7.738 1.934 1.146 5.194 1.79 9.78 1.79h20.491c7.989 0 12.001-3.008 12.001-9.027V36.325h15.655v25.077h.072l-.036-.036ZM363.114 80.89h-19.775l-38.726-30.844c-1.325-1.039-2.006-2.723-2.006-5.087 0-4.514 3.26-6.77 9.78-6.77l23.143-.18c7.702 0 11.535-2.65 11.535-8.024v-9.243c0-5.589-4.335-8.455-13.04-8.455h-32.672v68.604h-15.834V.537h53.127c16.157 0 24.217 5.732 24.217 17.124v13.936c0 4.98-2.113 9.027-6.269 12.072-4.155 3.081-9.708 4.55-16.515 4.55h-18.234l41.233 32.672h.036Z"/><path fill="#212529" fill-rule="evenodd" d="M447.873 80.89h16.981L429.567 7.775c-2.4-4.8-6.556-7.237-12.574-7.237-6.019 0-10.174 2.436-12.574 7.237L369.132 80.89h16.909l9.493-19.704h42.882l9.493 19.704h-.036Zm-31.704-66.525 17.267 35.788H400.55l15.655-35.788h-.036Z" clip-rule="evenodd"/><path fill="#212529" d="M551.37 71.218c0 3.08-1.075 5.553-3.26 7.559-2.401 2.257-5.589 3.367-9.601 3.367-3.762 0-6.699-.86-8.741-2.615-.896-.752-2.508-2.938-4.729-6.52L488.247 16.3v64.663h-15.081V12.144c0-7.81 4.298-11.715 12.86-11.715 3.941 0 6.914.824 8.921 2.472 1.074.932 2.758 3.081 4.907 6.52l36.505 56.638V1.182h15.082v70.036h-.071ZM734.681 80.855h-42.022c-9.207 0-16.264-1.433-21.244-4.263-4.908-2.902-7.38-7.846-7.38-15.01V.357h15.835v58.357c0 4.12 1.325 6.986 3.869 8.598 1.934 1.218 6.161 1.863 12.574 1.863h38.368v11.679Z"/><path fill="#212529" fill-rule="evenodd" d="M814.139 80.89h16.909L795.797 7.775c-2.4-4.8-6.556-7.237-12.574-7.237-6.019 0-10.174 2.436-12.574 7.237L735.362 80.89h16.909l9.493-19.704h42.882l9.493 19.704Zm-31.74-66.525 17.267 35.788H766.78l15.655-35.788h-.036Z" clip-rule="evenodd"/><path fill="#212529" d="M918.638 46.5h51.587V34.891h-51.587V21.136c0-5.911 4.514-8.849 13.649-8.849h41.019V.537H926.77c-7.487 0-13.362 1.612-17.589 4.8-4.228 3.225-6.341 7.631-6.341 13.184v45.246c0 5.552 2.4 9.887 7.129 12.932 4.334 2.723 10.46 4.12 18.234 4.12h45.139V69.104h-40.84c-9.207 0-13.828-3.009-13.828-9.027V46.499h-.036Z"/><path fill="url(#b)" d="M56.746 12.753h8.884c1.182 0 2.15-.931 2.15-2.078V2.113c0-1.146-.968-2.077-2.15-2.077h-8.884c-1.183 0-2.15.931-2.15 2.077v8.562c0 1.147.967 2.078 2.15 2.078Zm0 23.322h8.884c1.182 0 2.15-.932 2.15-2.078v-8.562c0-1.146-.968-2.078-2.15-2.078h-8.884c-1.183 0-2.15.931-2.15 2.078v8.562c0 1.146.967 2.078 2.15 2.078Zm32.779-12.718H80.64c-1.182 0-2.15.931-2.15 2.078v8.562c0 1.146.968 2.078 2.15 2.078h8.885c1.182 0 2.15-.932 2.15-2.078v-8.562c0-1.146-.968-2.078-2.15-2.078Zm23.93 0h-8.884c-1.182 0-2.15.931-2.15 2.078v8.562c0 1.146.968 2.078 2.15 2.078h8.884c1.182 0 2.15-.932 2.15-2.078v-8.562c0-1.146-.968-2.078-2.15-2.078Zm23.931 0h-8.885c-1.182 0-2.149.931-2.149 2.078v8.562c0 1.146.967 2.078 2.149 2.078h8.885c1.182 0 2.149-.932 2.149-2.078v-8.562c0-1.146-.967-2.078-2.149-2.078ZM89.525 0H80.64c-1.182 0-2.15.931-2.15 2.078v8.562c0 1.146.968 2.077 2.15 2.077h8.885c1.182 0 2.15-.931 2.15-2.078V2.114c0-1.146-.968-2.077-2.15-2.077V0Zm23.93 0h-8.884c-1.182 0-2.15.931-2.15 2.078v8.562c0 1.146.968 2.077 2.15 2.077h8.884c1.182 0 2.15-.931 2.15-2.078V2.114c0-1.146-.968-2.077-2.15-2.077V0Zm47.79 0h-8.885c-1.182 0-2.149.931-2.149 2.078v8.562c0 1.146.967 2.077 2.149 2.077h8.885c1.182 0 2.149-.931 2.149-2.078V2.114c0-1.146-.967-2.077-2.149-2.077V0ZM137.35 0h-8.884c-1.183 0-2.15.931-2.15 2.078v8.562c0 1.146.967 2.077 2.15 2.077h8.884c1.182 0 2.149-.931 2.149-2.078V2.114c0-1.146-.967-2.077-2.149-2.077V0ZM89.525 46.93H80.64c-1.182 0-2.15.93-2.15 2.077v8.562c0 1.146.968 2.078 2.15 2.078h8.885c1.182 0 2.15-.931 2.15-2.078v-8.562c0-1.146-.968-2.078-2.15-2.078Zm24.002.035h-8.885c-1.182 0-2.149.932-2.149 2.078v8.562c0 1.146.967 2.078 2.149 2.078h8.885c1.182 0 2.149-.932 2.149-2.078v-8.562c0-1.146-.967-2.078-2.149-2.078ZM89.525 71.54H80.64c-1.182 0-2.15.932-2.15 2.078v8.562c0 1.147.968 2.078 2.15 2.078h8.885c1.182 0 2.15-.931 2.15-2.078v-8.562c0-1.146-.968-2.078-2.15-2.078ZM43.813 56.28v1.253c0 2.329-1.361 2.83-3.51 2.4-8.85-1.719-15.62-9.385-15.656-17.768 0-9.064 6.377-16.659 15.512-18.485a7.173 7.173 0 0 1 1.433-.144h.108c.393 0 1.826.143 2.113 1.72v9.816s0 1.074-1.827 1.827l-.215.107-1.612.788s-.036 0-.072.036c-3.439 1.612-3.152 6.52.43 8.204.43.215.824.43 1.147.645 2.257.895 2.185 2.4 2.185 2.4v7.129l-.036.072Zm-3.332 27.656c-1.54-.072-4.872-.359-9.17-1.648-9.458-2.472-18.414-8.777-24.29-17.518C4.085 60.4 1.936 55.456.86 50.082c-2.651-13.542.931-25.614 10.174-36.04C18.593 5.625 28.516 1.47 39.872.073c2.365-.287 3.834.393 3.69 3.044-.107 2.114-.143 4.228 0 6.341.18 2.436-.68 3.511-3.403 3.833-14.652 1.72-23.5 11.07-26.26 23.25-3.33 14.867 7.345 31.633 23.86 33.89h6.018l9.243.036c.43-.036 1.29-.251 1.576-1.182V61.367v.358-12.109c0-.215 0-.43.036-.609.072-1.075 1.039-1.934 2.15-1.934h8.884c1.182 0 2.15.931 2.15 2.078v31.99c-.108 1.47-.61 2.329-1.756 2.723-.215.072-.43.143-.645.18h-5.732c-5.875-.037-11.714 0-17.59 0h-1.612v-.108Z"/><path fill="#212529" d="m554.557 146.843 16.873-38.009h4.55l16.837 38.009h-4.944l-5.051-11.464h-18.414l-4.979 11.464h-4.872Zm26.51-15.583-7.452-16.838-7.344 16.838h14.796ZM600.806 124.668c1.97-2.866 5.158-4.729 9.386-4.729 7.236 0 11.069 5.159 11.069 12.61v14.294h-4.406v-14.007c0-5.266-2.651-8.92-7.702-8.92s-8.311 3.976-8.311 9.171v13.72h-4.407v-26.223h4.335v4.084h.036ZM642.47 108.834v38.009h-4.657v-38.009h4.657ZM653.574 124.668c1.971-2.866 5.159-4.729 9.386-4.729 7.237 0 11.07 5.159 11.07 12.61v14.294h-4.407v-14.007c0-5.266-2.65-8.92-7.702-8.92-5.051 0-8.311 3.976-8.311 9.171v13.72h-4.406v-26.223h4.334v4.084h.036ZM680.944 124.525h-3.583v-3.905h3.583v-8.025h4.406v8.025h6.09v3.905h-6.09v14.938c0 2.508 1.182 3.439 3.188 3.439h2.866v3.977h-3.546c-4.872 0-6.95-2.185-6.95-6.986v-15.297l.036-.071ZM716.949 139.392l2.651 2.436c-2.938 3.797-6.843 5.803-11.894 5.803-7.81 0-13.47-5.696-13.47-13.864 0-8.168 5.875-13.828 13.363-13.828 7.487 0 12.932 5.338 12.932 13.506 0 .716-.107 1.576-.179 1.863h-21.566c.609 5.338 4.549 8.562 9.278 8.562 3.296 0 6.305-1.362 8.849-4.514l.036.036Zm-18.127-7.488h17.267c-.645-5.087-3.977-8.203-8.419-8.203s-8.096 2.973-8.848 8.203ZM729.916 146.843h-4.443v-38.009h4.443v38.009ZM776.989 135.917l3.582 2.077c-2.937 5.589-8.311 9.709-16.3 9.709-11.033 0-18.95-8.311-18.95-19.811 0-11.499 8.311-19.918 19.452-19.918 7.272 0 12.718 3.654 15.619 9.493l-3.761 2.221c-2.974-5.373-6.878-7.559-12.001-7.559-8.419 0-14.545 6.735-14.545 15.656 0 8.92 6.09 15.726 14.294 15.726 5.445 0 9.601-2.436 12.61-7.594ZM784.225 133.803c0-7.809 5.911-13.9 13.72-13.9 7.81 0 13.578 6.019 13.578 13.864 0 7.846-5.911 13.9-13.721 13.9-7.81 0-13.577-6.018-13.577-13.864Zm22.82-.036c0-5.552-3.977-9.995-9.171-9.995-5.195 0-9.135 4.335-9.135 10.031 0 5.696 3.976 9.995 9.171 9.995 5.194 0 9.135-4.335 9.135-10.031ZM820.443 123.772c1.791-2.328 4.227-3.797 7.559-3.797 3.869 0 6.627 1.719 8.203 4.442 1.863-2.723 4.837-4.442 8.777-4.442 6.556 0 10.103 4.872 10.103 10.747v16.121h-4.442v-15.87c0-4.192-2.114-7.057-6.305-7.057-4.192 0-6.556 3.188-6.556 7.343v15.584h-4.407v-15.87c0-4.192-2.113-7.057-6.305-7.057-4.191 0-6.556 3.188-6.556 7.343v15.584h-4.406V120.62h4.335v3.152ZM860.53 120.62h4.335v4.227c2.293-2.973 5.768-4.836 9.708-4.836 6.95 0 12.933 5.266 12.933 13.613s-6.305 13.792-13.255 13.792a12.338 12.338 0 0 1-9.35-4.299v13.47h-4.406v-36.003l.035.036Zm13.399 22.963c5.158 0 9.063-3.69 9.063-9.816 0-6.126-3.869-9.816-8.92-9.816s-9.35 4.192-9.35 9.924c0 5.732 4.084 9.708 9.171 9.708h.036ZM910.291 142.544c-2.186 3.081-5.983 4.836-10.031 4.836-5.768 0-9.78-3.152-9.78-7.988 0-4.837 3.511-8.025 12.037-8.025h7.702c-.072-4.944-2.651-7.702-7.272-7.702-2.938 0-5.589 1.29-8.025 3.511l-2.329-2.938c2.723-2.615 6.305-4.406 10.819-4.406 7.344 0 11.177 4.764 11.177 11.714v15.261h-4.298v-4.299.036Zm-15.476-3.26c0 2.4 2.185 4.55 5.911 4.55 4.836 0 9.242-3.368 9.493-9.064h-7.666c-5.696 0-7.774 1.612-7.774 4.514h.036ZM924.368 124.668c1.971-2.866 5.159-4.729 9.386-4.729 7.237 0 11.07 5.159 11.07 12.61v14.294h-4.406v-14.007c0-5.266-2.651-8.92-7.703-8.92-5.051 0-8.311 3.976-8.311 9.171v13.72h-4.406v-26.223h4.334v4.084h.036ZM951.846 120.62l8.454 20.85 8.455-20.85h4.621l-15.261 36.003h-4.55l4.514-9.995-11.069-26.008h4.836ZM984.805.824h10.783v1.898h-4.299v9.888h-2.15V2.722h-4.298V.824h-.036ZM1009.49 12.61h-2.15V3.224l-3.33 6.305h-1.76l-3.294-6.27v9.35h-2.15V.825h3.081l3.223 6.233 3.26-6.233h3.08V12.61h.04Z"/></g><defs><linearGradient id="b" x1="7.649" x2="152.141" y1="84.258" y2="85.668" gradientUnits="userSpaceOnUse"><stop stop-color="#FFC21E"/><stop offset=".963" stop-color="#F3851C"/></linearGradient><clipPath id="a"><path fill="#fff" d="M0 0h1009.49v156.623H0z"/></clipPath></defs></svg>