<?xml version="1.0" encoding="UTF-8"?>
<svg id="Layer_2" data-name="Layer 2" xmlns="http://www.w3.org/2000/svg" viewBox="0 0 332.86 458.69">
  <defs>
    <style>
      .cls-1 {
        isolation: isolate;
      }

      .cls-2 {
        fill: #393939;
      }

      .cls-2, .cls-3, .cls-4, .cls-5, .cls-6, .cls-7, .cls-8, .cls-9, .cls-10, .cls-11 {
        stroke-width: 0px;
      }

      .cls-3 {
        fill: #dee4e7;
      }

      .cls-4 {
        fill: #dcdcdb;
      }

      .cls-5 {
        fill: #dcdcdc;
      }

      .cls-6 {
        fill: #939393;
      }

      .cls-7 {
        fill: #b8b9b9;
      }

      .cls-8 {
        fill: #969696;
      }

      .cls-9 {
        fill: #e00;
      }

      .cls-10 {
        fill: #ebecec;
      }

      .cls-11 {
        fill: #ebeceb;
      }
    </style>
  </defs>
  <g id="Red_Hat_3Scale_API_Management" data-name="Red Hat 3Scale API Management">
    <g>
      <g>
        <g>
          <g>
            <g>
              <polygon class="cls-7" points="271.75 280.52 271.75 294.12 259.97 300.91 259.97 287.32 271.75 280.52"/>
              <polygon class="cls-11" points="139.58 204.35 127.81 211.14 259.97 287.37 271.75 280.57 139.58 204.35"/>
              <polygon class="cls-4" points="127.81 224.74 259.97 300.96 259.97 287.37 127.81 211.14 127.81 224.74"/>
            </g>
            <g>
              <polygon class="cls-11" points="330.01 314.78 279.25 285.45 267.48 292.25 318.24 321.58 330.01 314.78"/>
              <polygon class="cls-4" points="318.24 335.17 267.48 305.8 267.48 292.2 318.24 321.58 318.24 335.17"/>
              <polygon class="cls-7" points="330.01 328.38 330.01 314.78 318.24 321.58 318.24 335.17 330.01 328.38"/>
            </g>
            <g>
              <polygon class="cls-7" points="285.14 238.38 285.14 251.98 273.37 258.78 273.37 245.18 285.14 238.38"/>
              <polygon class="cls-11" points="139.65 154.76 127.88 161.56 273.37 245.18 285.14 238.38 139.65 154.76"/>
              <polygon class="cls-4" points="127.88 175.15 127.88 161.56 273.37 245.18 273.37 258.78 127.88 175.15"/>
            </g>
            <g>
              <polygon class="cls-11" points="318.13 258.25 293.8 244.19 282.02 250.99 306.35 265.05 318.13 258.25"/>
              <polygon class="cls-7" points="318.13 271.84 318.13 258.25 306.35 265.05 306.35 278.64 318.13 271.84"/>
              <polygon class="cls-4" points="282.02 250.99 282.02 264.59 306.35 278.64 306.35 265.05 282.02 250.99"/>
            </g>
            <g>
              <polygon class="cls-7" points="285.14 190.56 285.14 204.16 273.37 210.96 273.37 197.36 285.14 190.56"/>
              <polygon class="cls-11" points="139.58 106.46 127.81 113.26 273.37 197.25 285.14 190.45 139.58 106.46"/>
              <polygon class="cls-4" points="127.81 126.85 127.81 113.26 273.37 197.25 273.37 210.84 127.81 126.85"/>
            </g>
            <g>
              <polygon class="cls-11" points="312.74 206.05 295.3 195.85 283.52 202.65 300.97 212.84 312.74 206.05"/>
              <polygon class="cls-7" points="312.74 219.64 300.97 226.44 300.97 212.84 312.74 206.05 312.74 219.64"/>
              <polygon class="cls-4" points="283.52 216.36 283.52 202.76 300.97 212.84 300.97 226.44 283.52 216.36"/>
            </g>
            <g>
              <polygon class="cls-7" points="283.52 145.43 283.52 159.03 271.75 165.82 271.75 152.23 283.52 145.43"/>
              <polygon class="cls-11" points="139.58 62.41 127.81 69.21 271.75 152.23 283.52 145.43 139.58 62.41"/>
              <polygon class="cls-5" points="127.81 82.8 271.75 165.91 271.75 152.31 127.81 69.21 127.81 82.8"/>
            </g>
            <g>
              <polygon class="cls-11" points="332.86 173.58 292.34 150.13 280.56 156.93 321.09 180.38 332.86 173.58"/>
              <polygon class="cls-4" points="321.09 193.98 280.56 170.48 280.56 156.88 321.09 180.38 321.09 193.98"/>
              <polygon class="cls-7" points="332.86 187.18 332.86 173.58 321.09 180.38 321.09 193.98 332.86 187.18"/>
            </g>
            <g>
              <polygon class="cls-7" points="256.73 100.55 256.73 114.15 268.51 107.35 268.51 93.75 256.73 100.55"/>
              <polygon class="cls-4" points="170.3 50.49 170.3 64.09 256.73 114.12 256.73 100.52 170.3 50.49"/>
              <polygon class="cls-11" points="182.08 43.77 268.51 93.72 256.73 100.52 170.3 50.56 182.08 43.77"/>
            </g>
            <g>
              <polygon class="cls-7" points="313.6 120.25 313.6 133.85 301.83 140.65 301.83 127.05 313.6 120.25"/>
              <polygon class="cls-11" points="278.28 99.86 266.5 106.65 301.83 127.05 313.6 120.25 278.28 99.86"/>
              <polygon class="cls-4" points="266.5 120.25 266.5 106.65 301.83 127.05 301.83 140.65 266.5 120.25"/>
            </g>
          </g>
          <g class="cls-1">
            <polygon class="cls-5" points="136.44 3.88 156.37 42.61 131.57 55.32 129.04 49.91 148.66 39.85 131.58 6.65 136.44 3.88"/>
            <polygon class="cls-10" points="136.44 3.88 154.84 0 174.76 38.73 156.37 42.61 136.44 3.88"/>
            <polygon class="cls-8" points="156.37 42.61 174.76 38.73 149.96 51.44 131.57 55.32 156.37 42.61"/>
          </g>
        </g>
        <g>
          <polygon class="cls-3" points="136.52 260.15 115.95 272.18 305.37 383 325.94 370.97 136.52 260.15"/>
          <polygon class="cls-3" points="167.95 458.69 47.77 389.36 82.49 369.32 202.66 438.65 167.95 458.69"/>
          <g>
            <g>
              <polygon class="cls-11" points="166.05 425.58 46.78 356.71 76.6 339.5 195.87 408.36 166.05 425.58"/>
              <polygon class="cls-5" points="46.78 364.83 46.78 356.71 166.05 425.58 166.05 433.7 46.78 364.83"/>
              <polygon class="cls-7" points="225.69 399.27 166.05 433.7 166.05 425.58 225.97 390.98 225.69 399.27"/>
              <polygon class="cls-4" points="166.05 391.14 166.05 408.04 76.6 356.39 76.6 339.5 166.05 391.14"/>
              <polygon class="cls-7" points="195.87 390.82 166.05 408.04 166.05 391.14 195.87 373.93 195.87 390.82"/>
              <polygon class="cls-6" points="166.05 391.14 166.05 392.25 76.6 340.6 76.6 339.5 166.05 391.14"/>
            </g>
            <g>
              <polygon class="cls-11" points="264.33 213.82 250.79 221.63 7.16 80.97 20.7 73.16 264.33 213.82"/>
              <polygon class="cls-7" points="250.79 440.44 250.79 221.63 264.33 213.82 264.33 432.63 250.79 440.44"/>
              <polygon class="cls-5" points="7.16 299.78 250.79 440.44 250.79 221.63 7.16 80.97 7.16 299.78"/>
              <polygon class="cls-2" points="13.77 295 243.39 427.57 243.39 226.13 13.77 93.57 13.77 295"/>
            </g>
          </g>
        </g>
      </g>
      <g>
        <polygon class="cls-2" points="195.48 222.23 90.08 161.47 90.08 283.08 195.4 343.89 195.48 222.23"/>
        <polygon class="cls-2" points="90.08 150.39 90.08 161.47 195.48 222.23 195.48 210.95 90.08 150.39"/>
        <polygon class="cls-11" points="191.14 223.44 85.75 162.68 85.75 284.29 191.07 345.1 191.14 223.44"/>
        <polygon class="cls-9" points="85.75 151.6 85.75 162.68 191.14 223.44 191.15 212.16 85.75 151.6"/>
      </g>
      <polygon class="cls-2" points="108.76 195.89 7.27 137.12 7.27 270.75 108.76 329.34 108.76 195.89"/>
      <g>
        <polygon class="cls-11" points="105.39 208.49 0 147.73 0 269.34 105.32 330.14 105.39 208.49"/>
        <polygon class="cls-9" points="0 136.65 0 147.73 105.39 208.49 105.4 197.21 0 136.65"/>
      </g>
      <polygon class="cls-2" points="255.76 284.45 154.27 225.67 154.27 359.3 255.76 417.9 255.76 284.45"/>
      <g>
        <polygon class="cls-11" points="253.33 298.98 147.94 238.22 147.94 359.83 253.25 420.64 253.33 298.98"/>
        <polygon class="cls-9" points="147.94 227.14 147.94 238.22 253.33 298.98 253.34 287.7 147.94 227.14"/>
      </g>
    </g>
  </g>
</svg>