<svg xmlns="http://www.w3.org/2000/svg" xmlns:xlink="http://www.w3.org/1999/xlink" width="555" height="283" viewBox="0 0 555 283"><defs><clipPath id="a"><path d="M0,0H294.378V216.36H0Z" fill="none"/></clipPath><clipPath id="b"><path d="M521.012,158.677v17.267l14.954,8.634,14.954-8.634V158.677l-14.954-8.634Z" transform="translate(-521.012 -150.043)" fill="none"/></clipPath><clipPath id="c"><rect width="294.378" height="216.36" fill="none"/></clipPath><clipPath id="d"><path d="M207.864,23.771V41.039l14.955,8.634,14.954-8.634V23.771l-14.954-8.634Z" transform="translate(-207.864 -15.137)" fill="none"/></clipPath><clipPath id="f"><path d="M428.33,72.533V84.162L438.4,89.977l10.071-5.815V72.533L438.4,66.718Z" transform="translate(-428.33 -66.718)" fill="none"/></clipPath><clipPath id="h"><path d="M327.624,143.469V155.1l10.072,5.815,10.071-5.815v-11.63L337.7,137.654Z" transform="translate(-327.624 -137.654)" fill="none"/></clipPath></defs><g transform="translate(-832 -4885)"><g transform="translate(832 4885)" fill="#f5f5f5" stroke="#d2d2d2" stroke-width="1"><rect width="555" height="283" stroke="none"/><rect x="0.5" y="0.5" width="554" height="282" fill="none"/></g><g transform="translate(962 4918)"><g clip-path="url(#a)"><path d="M88.484,143.1A101.624,101.624,0,1,1,190.108,244.726,101.624,101.624,0,0,1,88.484,143.1" transform="translate(-60.513 -28.366)" fill="#e6e6e6"/><path d="M0,0H155.886V89.941H0Z" transform="translate(49.336 87.638)" fill="#fff"/><path d="M0,0H144.9V80.936H0Z" transform="translate(52.941 94.929)"/><path d="M0,0H144.9V80.936H0Z" transform="translate(55.006 92.864)" fill="#fff"/><path d="M318.642,374.448H173.3V293.061H318.642ZM173.746,374H318.191V293.512H173.746Z" transform="translate(-118.515 -200.422)" fill="#e00"/><path d="M251.511,371.916v-16.3L237.4,347.468l-14.115,8.149v16.3l14.115,8.149Z" transform="translate(-152.7 -237.63)" fill="#fff"/><path d="M308.921,422.617a.226.226,0,0,1-.113-.421l.891-.515v-1.029a.226.226,0,0,1,.451,0v1.289l-1.117.645a.224.224,0,0,1-.113.03" transform="translate(-211.114 -287.527)" fill="#e00"/><path d="M312.1,392.957a.225.225,0,0,1-.226-.225v-2a.226.226,0,1,1,.451,0v2a.225.225,0,0,1-.226.225m0-3.994a.226.226,0,0,1-.226-.226v-2a.226.226,0,1,1,.451,0v2a.226.226,0,0,1-.226.226m0-3.994a.225.225,0,0,1-.226-.226v-2a.226.226,0,1,1,.451,0v2a.225.225,0,0,1-.226.226" transform="translate(-213.287 -261.602)" fill="#e00"/><path d="M309.926,372.89a.225.225,0,0,1-.226-.226v-1.029l-.891-.515a.226.226,0,0,1,.226-.391l1.117.645v1.289a.225.225,0,0,1-.226.226" transform="translate(-211.115 -253.519)" fill="#e00"/><path d="M284.741,357.191a.223.223,0,0,1-.112-.03l-1.73-1a.226.226,0,0,1,.226-.391l1.73,1a.226.226,0,0,1-.113.421m-3.459-2a.224.224,0,0,1-.113-.03l-1.73-1a.226.226,0,1,1,.226-.391l1.73,1a.226.226,0,0,1-.113.421m-3.459-2a.224.224,0,0,1-.113-.03l-1.73-1a.226.226,0,0,1,.226-.391l1.729,1a.226.226,0,0,1-.113.421" transform="translate(-188.663 -240.556)" fill="#e00"/><path d="M266.277,347.709a.224.224,0,0,1-.113-.03l-.891-.515-.891.515a.226.226,0,1,1-.226-.391l1.117-.645,1.117.645a.226.226,0,0,1-.113.421" transform="translate(-180.577 -237.066)" fill="#e00"/><path d="M231.44,357.191a.226.226,0,0,1-.113-.421l1.73-1a.226.226,0,1,1,.225.391l-1.729,1a.226.226,0,0,1-.113.03m3.459-2a.226.226,0,0,1-.113-.421l1.729-1a.226.226,0,1,1,.226.391l-1.729,1a.226.226,0,0,1-.113.03m3.459-2a.226.226,0,0,1-.113-.421l1.729-1a.226.226,0,1,1,.226.391l-1.73,1a.224.224,0,0,1-.113.03" transform="translate(-158.125 -240.556)" fill="#e00"/><path d="M222.792,372.89a.226.226,0,0,1-.226-.226v-1.289l1.117-.645a.226.226,0,0,1,.226.391l-.891.515v1.029a.225.225,0,0,1-.225.226" transform="translate(-152.211 -253.519)" fill="#e00"/><path d="M222.792,392.956a.226.226,0,0,1-.226-.226v-2a.226.226,0,0,1,.451,0v2a.225.225,0,0,1-.225.226m0-3.994a.226.226,0,0,1-.226-.226v-2a.226.226,0,1,1,.451,0v2a.226.226,0,0,1-.225.226m0-3.994a.226.226,0,0,1-.226-.226v-2a.226.226,0,1,1,.451,0v2a.225.225,0,0,1-.225.226" transform="translate(-152.211 -261.602)" fill="#e00"/><path d="M223.8,422.617a.224.224,0,0,1-.113-.03l-1.117-.645v-1.289a.226.226,0,0,1,.451,0v1.029l.891.515a.226.226,0,0,1-.113.421" transform="translate(-152.211 -287.527)" fill="#e00"/><path d="M240.087,434.532a.226.226,0,0,1-.113-.03l-1.729-1a.226.226,0,0,1,.226-.391l1.729,1a.226.226,0,0,1-.113.421m-3.459-2a.226.226,0,0,1-.113-.03l-1.729-1a.226.226,0,1,1,.226-.391l1.729,1a.226.226,0,0,1-.113.421m-3.459-2a.224.224,0,0,1-.113-.03l-1.73-1a.226.226,0,0,1,.226-.391l1.729,1a.226.226,0,0,1-.113.421" transform="translate(-158.125 -293.45)" fill="#e00"/><path d="M265.272,449.107l-1.117-.645a.226.226,0,0,1,.226-.391l.891.515.891-.515a.226.226,0,0,1,.226.391Z" transform="translate(-180.577 -306.411)" fill="#e00"/><path d="M276.093,434.533a.226.226,0,0,1-.113-.421l1.73-1a.226.226,0,1,1,.225.391l-1.729,1a.226.226,0,0,1-.113.03m3.459-2a.226.226,0,0,1-.113-.421l1.729-1a.226.226,0,0,1,.226.391l-1.729,1a.226.226,0,0,1-.113.03m3.459-2a.226.226,0,0,1-.113-.421l1.729-1a.226.226,0,0,1,.226.391l-1.73,1a.224.224,0,0,1-.113.03" transform="translate(-188.663 -293.45)" fill="#e00"/><path d="M525.547,388.192v-16.3l-14.115-8.149-14.115,8.149v16.3l14.115,8.149Z" transform="translate(-340.11 -248.762)" fill="#fff"/><path d="M582.957,438.894a.226.226,0,0,1-.113-.421l.891-.515v-1.029a.226.226,0,0,1,.451,0v1.29l-1.117.645a.224.224,0,0,1-.113.03" transform="translate(-398.525 -298.658)" fill="#e00"/><path d="M586.134,409.233a.225.225,0,0,1-.226-.225v-2a.226.226,0,1,1,.451,0v2a.225.225,0,0,1-.226.225m0-3.994a.226.226,0,0,1-.226-.225v-2a.226.226,0,1,1,.451,0v2a.226.226,0,0,1-.226.225m0-3.994a.225.225,0,0,1-.226-.226v-2a.226.226,0,0,1,.451,0v2a.225.225,0,0,1-.226.226" transform="translate(-400.698 -272.733)" fill="#e00"/><path d="M583.961,389.167a.225.225,0,0,1-.226-.226v-1.029l-.891-.515a.226.226,0,1,1,.226-.391l1.117.645v1.29a.225.225,0,0,1-.226.226" transform="translate(-398.525 -264.65)" fill="#e00"/><path d="M558.776,373.467a.226.226,0,0,1-.113-.03l-1.729-1a.226.226,0,1,1,.225-.391l1.73,1a.226.226,0,0,1-.113.421m-3.459-2a.226.226,0,0,1-.113-.03l-1.73-1a.226.226,0,0,1,.226-.391l1.729,1a.226.226,0,0,1-.113.421m-3.459-2a.224.224,0,0,1-.113-.03l-1.73-1a.226.226,0,1,1,.226-.391l1.729,1a.226.226,0,0,1-.113.421" transform="translate(-376.074 -251.687)" fill="#e00"/><path d="M540.313,363.985a.224.224,0,0,1-.113-.03l-.891-.514-.891.514a.226.226,0,1,1-.226-.391l1.117-.645,1.117.645a.226.226,0,0,1-.113.421" transform="translate(-367.988 -248.197)" fill="#e00"/><path d="M505.476,373.467a.226.226,0,0,1-.113-.421l1.73-1a.226.226,0,1,1,.225.391l-1.729,1a.226.226,0,0,1-.113.03m3.459-2a.226.226,0,0,1-.113-.421l1.729-1a.226.226,0,0,1,.226.391l-1.729,1a.226.226,0,0,1-.113.03m3.459-2a.226.226,0,0,1-.113-.421l1.729-1a.226.226,0,0,1,.226.391l-1.73,1a.224.224,0,0,1-.112.03" transform="translate(-345.536 -251.687)" fill="#e00"/><path d="M496.828,389.167a.225.225,0,0,1-.226-.226v-1.29l1.117-.645a.226.226,0,0,1,.226.391l-.891.515v1.029a.225.225,0,0,1-.226.226" transform="translate(-339.622 -264.65)" fill="#e00"/><path d="M496.828,409.233a.225.225,0,0,1-.226-.226v-2a.226.226,0,1,1,.451,0v2a.225.225,0,0,1-.226.226m0-3.994a.226.226,0,0,1-.226-.225v-2a.226.226,0,1,1,.451,0v2a.226.226,0,0,1-.226.225m0-3.994a.225.225,0,0,1-.226-.226v-2a.226.226,0,0,1,.451,0v2a.225.225,0,0,1-.226.226" transform="translate(-339.622 -272.733)" fill="#e00"/><path d="M497.832,438.894a.224.224,0,0,1-.113-.03l-1.117-.645v-1.29a.226.226,0,0,1,.451,0v1.029l.891.515a.226.226,0,0,1-.113.421" transform="translate(-339.622 -298.658)" fill="#e00"/><path d="M514.123,450.808a.226.226,0,0,1-.113-.03l-1.729-1a.226.226,0,1,1,.225-.391l1.73,1a.226.226,0,0,1-.113.421m-3.459-2a.226.226,0,0,1-.113-.03l-1.729-1a.226.226,0,1,1,.226-.391l1.729,1a.226.226,0,0,1-.113.421m-3.459-2a.224.224,0,0,1-.113-.03l-1.73-1a.226.226,0,0,1,.226-.391l1.729,1a.226.226,0,0,1-.113.421" transform="translate(-345.536 -304.581)" fill="#e00"/><path d="M539.308,465.383l-1.117-.645a.226.226,0,0,1,.226-.391l.891.515.891-.515a.226.226,0,1,1,.226.391Z" transform="translate(-367.988 -317.543)" fill="#e00"/><path d="M550.129,450.808a.226.226,0,0,1-.113-.421l1.73-1a.226.226,0,1,1,.225.391l-1.729,1a.226.226,0,0,1-.113.03m3.459-2a.226.226,0,0,1-.113-.421l1.73-1a.226.226,0,0,1,.226.391l-1.729,1a.226.226,0,0,1-.113.03m3.459-2a.226.226,0,0,1-.113-.421l1.729-1a.226.226,0,0,1,.226.391l-1.73,1a.224.224,0,0,1-.113.03" transform="translate(-376.074 -304.581)" fill="#e00"/><path d="M271.107,449.449l6.508-8.692h15.627a.044.044,0,0,1,.038.067l-5.042,8.625Z" transform="translate(-185.408 -301.43)" fill="#e6e6e6"/><path d="M289.765,446.792l2.022-2.84h5.276l-1.7,2.84Z" transform="translate(-198.168 -303.616)" fill="#fff"/><path d="M330.383,441.038v34.826l-5.081-2.351V449.621l5.026-8.6a.029.029,0,0,1,.055.015" transform="translate(-222.471 -301.602)" fill="#fff"/><path d="M0,0H17.132V24.48H0Z" transform="translate(85.699 148.019)" fill="#e00"/><path d="M288.107,492.6H270.75V467.9h17.357Zm-17.132-.226h16.906V468.121H270.976Z" transform="translate(-185.164 -319.99)" fill="#e00"/><path d="M288.869,462.176l-7.464,1.984a16.67,16.67,0,0,0-4.22,8.753,24.628,24.628,0,0,0-.469,7.447l-2.679.049-1.292-12.726h.693s-.9-3.39-1.1-3.742l2.848.157s0,.367,2.191.219a68.8,68.8,0,0,0,7.644-1.559,21.717,21.717,0,0,0,3.851-.581" transform="translate(-186.248 -316.078)"/><path d="M304.527,359.423H148.573v-89.6H304.527Zm3.837-93.437H144.736V363.26H308.364Z" transform="translate(-98.984 -181.906)"/><path d="M0,0H144.9V12.318H0Z" transform="translate(55.006 92.864)" fill="#e00"/><path d="M246.024,313.071H194.341a.339.339,0,1,1,0-.677h51.684a.339.339,0,0,1,0,.677" transform="translate(-132.676 -213.644)" fill="#fff"/><path d="M576.692,308.843a1.884,1.884,0,1,1,1.884,1.884,1.884,1.884,0,0,1-1.884-1.884" transform="translate(-394.395 -209.927)" fill="#fff"/><path d="M600.828,309.141a1.884,1.884,0,1,1,1.884,1.884,1.884,1.884,0,0,1-1.884-1.884" transform="translate(-410.901 -210.131)" fill="#fff"/><path d="M375.969,386.337V375.732l-9.185-5.3-9.185,5.3v10.605l9.185,5.3Z" transform="translate(-244.559 -253.333)" fill="#fff"/><path d="M413.155,419.238a.226.226,0,0,1-.113-.421l.54-.312v-.624a.226.226,0,1,1,.451,0v.884l-.766.442a.224.224,0,0,1-.113.03" transform="translate(-282.399 -285.631)" fill="#e00"/><path d="M415.222,401a.226.226,0,0,1-.226-.226V399.54a.226.226,0,0,1,.451,0v1.232a.226.226,0,0,1-.226.226m0-3.443a.226.226,0,0,1-.226-.226V396.1a.226.226,0,0,1,.451,0v1.232a.226.226,0,0,1-.226.226" transform="translate(-283.812 -270.734)" fill="#e00"/><path d="M413.808,386.881a.225.225,0,0,1-.226-.226v-.624l-.54-.312a.226.226,0,1,1,.226-.391l.766.443v.884a.225.225,0,0,1-.226.226" transform="translate(-282.399 -263.502)" fill="#e00"/><path d="M398.339,377.195a.224.224,0,0,1-.113-.03l-1.067-.616a.226.226,0,1,1,.226-.391l1.067.616a.226.226,0,0,1-.113.421m-2.981-1.722a.225.225,0,0,1-.113-.03l-1.067-.616a.226.226,0,1,1,.225-.391l1.067.616a.226.226,0,0,1-.113.421" transform="translate(-269.498 -256.053)" fill="#e00"/><path d="M384.1,370.468a.226.226,0,0,1-.113-.421l.766-.442.766.442a.226.226,0,1,1-.226.391l-.541-.312-.541.312a.223.223,0,0,1-.113.03" transform="translate(-262.529 -252.77)" fill="#e00"/><path d="M365.235,377.195a.226.226,0,0,1-.113-.421l1.067-.616a.226.226,0,0,1,.226.391l-1.067.616a.224.224,0,0,1-.113.03m2.982-1.722a.226.226,0,0,1-.113-.421l1.067-.616a.226.226,0,1,1,.226.391l-1.067.616a.224.224,0,0,1-.113.03" transform="translate(-249.627 -256.053)" fill="#e00"/><path d="M357.111,386.881a.225.225,0,0,1-.226-.226v-.884l.766-.443a.226.226,0,1,1,.226.391l-.54.312v.624a.225.225,0,0,1-.226.226" transform="translate(-244.071 -263.502)" fill="#e00"/><path d="M357.111,401a.226.226,0,0,1-.226-.226V399.54a.226.226,0,1,1,.451,0v1.232a.226.226,0,0,1-.226.226m0-3.443a.225.225,0,0,1-.226-.226V396.1a.226.226,0,1,1,.451,0v1.232a.225.225,0,0,1-.226.226" transform="translate(-244.071 -270.734)" fill="#e00"/><path d="M357.764,419.238a.224.224,0,0,1-.113-.03l-.766-.442v-.884a.226.226,0,1,1,.451,0v.624l.54.312a.226.226,0,0,1-.113.421" transform="translate(-244.071 -285.631)" fill="#e00"/><path d="M369.283,427.52a.224.224,0,0,1-.113-.03l-1.067-.616a.226.226,0,1,1,.226-.391l1.067.616a.226.226,0,0,1-.113.421M366.3,425.8a.224.224,0,0,1-.113-.03l-1.067-.616a.226.226,0,0,1,.226-.391l1.067.616a.226.226,0,0,1-.113.421" transform="translate(-249.627 -290.47)" fill="#e00"/><path d="M384.753,436.486l-.766-.442a.226.226,0,1,1,.225-.391l.541.312.541-.312a.226.226,0,1,1,.225.391Z" transform="translate(-262.528 -297.919)" fill="#e00"/><path d="M394.291,427.52a.226.226,0,0,1-.113-.421l1.067-.616a.226.226,0,1,1,.226.391l-1.067.616a.224.224,0,0,1-.113.03m2.982-1.722a.226.226,0,0,1-.113-.421l1.067-.616a.226.226,0,1,1,.225.391l-1.067.616a.224.224,0,0,1-.113.03" transform="translate(-269.498 -290.47)" fill="#e00"/><path d="M464.518,479.072V468.467l-9.185-5.3-9.185,5.3v10.605l9.185,5.3Z" transform="translate(-305.117 -316.754)" fill="#fff"/><path d="M501.705,511.973a.226.226,0,0,1-.113-.421l.54-.312v-.624a.226.226,0,1,1,.451,0v.884l-.766.442a.224.224,0,0,1-.112.03" transform="translate(-342.958 -349.051)" fill="#e00"/><path d="M503.771,493.733a.226.226,0,0,1-.226-.226v-1.232a.226.226,0,0,1,.451,0v1.232a.226.226,0,0,1-.226.226m0-3.443a.225.225,0,0,1-.226-.226v-1.232a.226.226,0,0,1,.451,0v1.232a.225.225,0,0,1-.226.226" transform="translate(-344.37 -334.154)" fill="#e00"/><path d="M502.357,479.615a.225.225,0,0,1-.226-.226v-.624l-.54-.312a.226.226,0,1,1,.226-.391l.766.442v.885a.225.225,0,0,1-.226.226" transform="translate(-342.957 -326.922)" fill="#e00"/><path d="M486.889,469.929a.224.224,0,0,1-.113-.03l-1.067-.616a.226.226,0,0,1,.226-.391l1.067.616a.226.226,0,0,1-.113.421m-2.982-1.722a.225.225,0,0,1-.113-.03l-1.067-.616a.226.226,0,0,1,.226-.391l1.067.616a.226.226,0,0,1-.113.421" transform="translate(-330.057 -319.474)" fill="#e00"/><path d="M473.956,463.2a.223.223,0,0,1-.113-.03l-.541-.312-.541.312a.226.226,0,1,1-.226-.391l.766-.442.766.442a.226.226,0,0,1-.113.421" transform="translate(-323.087 -316.19)" fill="#e00"/><path d="M453.785,469.929a.226.226,0,0,1-.113-.421l1.067-.616a.226.226,0,0,1,.226.391l-1.067.616a.225.225,0,0,1-.113.03m2.982-1.722a.226.226,0,0,1-.113-.421l1.067-.616a.226.226,0,0,1,.226.391l-1.067.616a.224.224,0,0,1-.113.03" transform="translate(-310.185 -319.474)" fill="#e00"/><path d="M445.661,479.615a.225.225,0,0,1-.226-.226V478.5l.766-.442a.226.226,0,0,1,.226.391l-.541.312v.624a.225.225,0,0,1-.226.226" transform="translate(-304.629 -326.922)" fill="#e00"/><path d="M445.661,493.733a.225.225,0,0,1-.226-.226v-1.232a.226.226,0,1,1,.451,0v1.232a.225.225,0,0,1-.226.226m0-3.443a.225.225,0,0,1-.226-.226v-1.232a.226.226,0,0,1,.451,0v1.232a.225.225,0,0,1-.226.226" transform="translate(-304.629 -334.154)" fill="#e00"/><path d="M446.314,511.973a.224.224,0,0,1-.113-.03l-.766-.442v-.884a.226.226,0,1,1,.451,0v.624l.541.312a.226.226,0,0,1-.113.421" transform="translate(-304.629 -349.051)" fill="#e00"/><path d="M457.833,520.255a.225.225,0,0,1-.113-.03l-1.067-.616a.226.226,0,1,1,.226-.391l1.067.616a.226.226,0,0,1-.113.421m-2.982-1.721a.224.224,0,0,1-.113-.03l-1.067-.616a.226.226,0,1,1,.226-.391l1.067.616a.226.226,0,0,1-.113.421" transform="translate(-310.185 -353.891)" fill="#e00"/><path d="M473.3,529.221l-.766-.442a.226.226,0,0,1,.226-.391l.541.312.541-.312a.226.226,0,0,1,.226.391Z" transform="translate(-323.086 -361.339)" fill="#e00"/><path d="M482.84,520.255a.226.226,0,0,1-.113-.421l1.067-.616a.226.226,0,1,1,.226.391l-1.067.616a.224.224,0,0,1-.113.03m2.982-1.721a.226.226,0,0,1-.113-.421l1.067-.616a.226.226,0,1,1,.226.391l-1.067.616a.224.224,0,0,1-.112.03" transform="translate(-330.056 -353.891)" fill="#e00"/><path d="M584.5,199.3a.337.337,0,0,1-.167-.044l-7.76-4.412a.338.338,0,0,1,.334-.589l7.76,4.412a.339.339,0,0,1-.168.633" transform="translate(-394.194 -132.817)" fill="#fff"/><path d="M565.654,211.066a.283.283,0,0,1-.284-.284v-9.119a.284.284,0,1,1,.567,0v9.119a.283.283,0,0,1-.284.284" transform="translate(-386.653 -137.722)" fill="#fff"/><path d="M565.654,216.559a.283.283,0,0,1-.284-.284V201.664a.284.284,0,1,1,.567,0v14.611a.283.283,0,0,1-.284.284" transform="translate(-386.653 -137.722)" fill="#fff"/><path d="M549.6,158.295v16.5l-14.294,8.253L521.012,174.8v-16.5l14.294-8.253Z" transform="translate(-356.316 -102.613)" fill="#e00"/></g><g transform="translate(163.878 47.035)"><g clip-path="url(#b)"><line x2="14.967" y2="8.641" transform="translate(0 8.634)" fill="#e00"/><path d="M535.337,184.466a.319.319,0,0,1-.158-.042l-14.967-8.641a.317.317,0,0,1,.317-.549l14.967,8.641a.317.317,0,0,1-.159.592" transform="translate(-520.371 -166.874)" fill="#fff"/><path d="M565.627,221.989a.317.317,0,0,1-.317-.317V201.637a.317.317,0,1,1,.634,0v20.035a.317.317,0,0,1-.317.317" transform="translate(-550.66 -184.362)" fill="#fff"/><line x1="14.942" y2="8.641" transform="translate(14.967 8.634)" fill="#e00"/><path d="M565.627,184.465a.317.317,0,0,1-.159-.591l14.942-8.641a.317.317,0,0,1,.317.549l-14.942,8.641a.317.317,0,0,1-.158.043" transform="translate(-550.66 -166.874)" fill="#fff"/><path d="M508.508,135.013c-.9.965-1.3,2.892-1.692,4.1a27.182,27.182,0,0,0-1.52,7.88c-.047,3.687,2.352,7.165,4.7,9.864,2.251,2.592,5.2,4.511,7.262,7.276a13,13,0,0,1,1.011,1.572,19.309,19.309,0,0,1,1.983,10.959c-.017.18-.043,1.3-.344,1.307l-20.276.706-1.549-43.245s10.8-.81,10.43-.417" transform="translate(-505.662 -139.912)"/></g></g><g clip-path="url(#c)"><path d="M252.507,76.162a.283.283,0,0,1-.284-.284V66.759a.284.284,0,1,1,.567,0v9.119a.283.283,0,0,1-.284.284" transform="translate(-172.493 -45.462)" fill="#fff"/><path d="M252.507,81.654a.283.283,0,0,1-.284-.284V66.759a.284.284,0,1,1,.567,0V81.37a.283.283,0,0,1-.284.284" transform="translate(-172.493 -45.462)" fill="#fff"/><path d="M236.452,23.39v16.5l-14.294,8.253-14.294-8.253V23.39l14.294-8.253Z" transform="translate(-142.157 -10.352)" fill="#e00"/></g><g transform="translate(65.381 5.006)"><g clip-path="url(#d)"><line x2="14.967" y2="8.641" transform="translate(0 8.634)" fill="#e00"/><path d="M222.189,49.561a.319.319,0,0,1-.158-.042l-14.967-8.641a.317.317,0,0,1,.317-.549l14.967,8.641a.317.317,0,0,1-.159.592" transform="translate(-207.223 -31.969)" fill="#fff"/><path d="M252.479,87.084a.317.317,0,0,1-.317-.317V66.732a.317.317,0,0,1,.634,0V86.767a.317.317,0,0,1-.317.317" transform="translate(-237.512 -49.456)" fill="#fff"/><line x1="14.942" y2="8.641" transform="translate(14.967 8.634)" fill="#e00"/><path d="M252.479,49.561a.317.317,0,0,1-.159-.591l14.942-8.641a.317.317,0,0,1,.317.549l-14.942,8.641a.317.317,0,0,1-.158.043" transform="translate(-237.512 -31.969)" fill="#fff"/><path d="M195.359.107c-.9.965-1.3,2.892-1.692,4.1a27.182,27.182,0,0,0-1.52,7.88c-.047,3.687,2.352,7.165,4.7,9.864,2.251,2.592,5.2,4.511,7.262,7.276a13,13,0,0,1,1.011,1.572A19.308,19.308,0,0,1,207.1,41.756c-.017.18-.043,1.3-.344,1.307l-20.276.706L184.929.524s10.8-.81,10.431-.417" transform="translate(-192.514 -5.006)"/></g></g><g clip-path="url(#c)"><path d="M458.395,107.817a.191.191,0,0,1-.191-.191v-6.142a.191.191,0,0,1,.382,0v6.142a.191.191,0,0,1-.191.191" transform="translate(-313.362 -69.273)" fill="#fff"/><path d="M458.395,111.515a.191.191,0,0,1-.191-.191v-9.84a.191.191,0,0,1,.382,0v9.84a.191.191,0,0,1-.191.191" transform="translate(-313.362 -69.273)" fill="#fff"/><path d="M447.583,72.276V83.391l-9.626,5.558-9.626-5.558V72.276l9.626-5.558Z" transform="translate(-292.931 -45.628)" fill="#e00"/></g><g transform="translate(134.961 22.065)"><g clip-path="url(#f)"><line x2="10.08" y2="5.82" transform="translate(0 5.815)" fill="#e00"/><path d="M437.978,89.9a.214.214,0,0,1-.107-.028l-10.08-5.82a.214.214,0,0,1,.214-.37l10.08,5.82a.213.213,0,0,1-.107.4" transform="translate(-427.898 -78.053)" fill="#fff"/><path d="M458.376,115.171a.214.214,0,0,1-.214-.214V101.465a.214.214,0,1,1,.427,0v13.493a.214.214,0,0,1-.214.214" transform="translate(-448.296 -89.83)" fill="#fff"/><line x1="10.063" y2="5.82" transform="translate(10.08 5.815)" fill="#e00"/><path d="M458.377,89.9a.213.213,0,0,1-.107-.4l10.063-5.82a.213.213,0,1,1,.214.369l-10.063,5.82a.212.212,0,0,1-.107.029" transform="translate(-448.297 -78.053)" fill="#fff"/><path d="M419.908,56.6a7.906,7.906,0,0,0-1.139,2.761,18.317,18.317,0,0,0-1.024,5.307c-.031,2.483,1.584,4.826,3.162,6.643,1.516,1.746,3.5,3.038,4.89,4.9a8.739,8.739,0,0,1,.681,1.059,13,13,0,0,1,1.335,7.381c-.011.121-.029.873-.232.88L413.926,86l-1.043-29.124s7.271-.545,7.025-.281" transform="translate(-417.992 -59.895)"/></g></g><g clip-path="url(#c)"><path d="M139.39,450.758s-15.746,2.208-30.358-12.908-26.752-5.417-36.4-7.684c-14.113-3.315-20.665-44.143-41.7-34.872-14.55,6.414-.347,27.489-10.959,23.536-9.637-3.59-21.037,6.172-19.021,18.9s8.188,17.761,12.471,20.218H45.1l-10.959-7.184Z" transform="translate(-0.49 -269.404)" fill="#fff"/><path d="M357.69,178.753a.191.191,0,0,1-.191-.191V172.42a.191.191,0,0,1,.382,0v6.142a.191.191,0,0,1-.191.191" transform="translate(-244.491 -117.786)" fill="#fff"/><path d="M357.69,182.451a.191.191,0,0,1-.191-.191v-9.84a.191.191,0,0,1,.382,0v9.84a.191.191,0,0,1-.191.191" transform="translate(-244.491 -117.786)" fill="#fff"/><path d="M346.878,143.212v11.116l-9.626,5.558-9.626-5.558V143.212l9.626-5.558Z" transform="translate(-224.06 -94.141)" fill="#e00"/></g><g transform="translate(103.23 43.283)"><g clip-path="url(#h)"><line x2="10.08" y2="5.82" transform="translate(0 5.815)" fill="#e00"/><path d="M337.273,160.837a.214.214,0,0,1-.107-.028l-10.08-5.82a.214.214,0,0,1,.214-.37l10.08,5.82a.214.214,0,0,1-.107.4" transform="translate(-327.193 -148.989)" fill="#fff"/><path d="M357.671,186.108a.214.214,0,0,1-.214-.214V172.4a.214.214,0,1,1,.427,0v13.493a.214.214,0,0,1-.214.214" transform="translate(-347.591 -160.767)" fill="#fff"/><line x1="10.063" y2="5.82" transform="translate(10.08 5.815)" fill="#e00"/><path d="M357.672,160.837a.213.213,0,0,1-.107-.4l10.063-5.82a.213.213,0,1,1,.214.369l-10.063,5.82a.213.213,0,0,1-.107.029" transform="translate(-347.591 -148.989)" fill="#fff"/><path d="M319.2,127.532a7.91,7.91,0,0,0-1.139,2.76,18.315,18.315,0,0,0-1.024,5.307c-.031,2.483,1.584,4.826,3.162,6.643,1.516,1.746,3.5,3.038,4.89,4.9a8.731,8.731,0,0,1,.681,1.059,13,13,0,0,1,1.335,7.381c-.011.121-.029.873-.232.88l-13.656.476-1.043-29.124s7.271-.545,7.025-.281" transform="translate(-317.286 -130.831)"/></g></g><g clip-path="url(#c)"><path d="M227.609,128.953a.564.564,0,0,1-.564-.564V118.211a.564.564,0,1,1,1.129,0v10.178a.564.564,0,0,1-.564.564" transform="translate(-155.274 -80.457)"/><path d="M275.176,138.241a.564.564,0,0,1-.564-.564V118.246a.564.564,0,1,1,1.129,0v19.431a.564.564,0,0,1-.564.564" transform="translate(-187.805 -80.481)"/><path d="M46.243,397.845c-4.23-3.682-9.15-5.267-15.312-2.551-14.55,6.414-.347,27.489-10.959,23.535-9.637-3.59-21.037,6.172-19.022,18.9s8.188,17.762,12.471,20.218H45.1l-10.959-7.184H139.39s-15.746,2.209-30.358-12.908-26.752-5.416-36.4-7.684c-9.978-2.344-16.176-23.437-26.383-32.322" transform="translate(-0.49 -269.404)" fill="#fff"/><path d="M45.368,457.687h-32.5l-.052-.03C5.9,453.687,1.781,447.021.237,437.279a17.523,17.523,0,0,1,6.078-16.528,13.459,13.459,0,0,1,13.244-2.614c1.541.574,2.587.628,3.2.166,1.078-.817.868-3.339.626-6.26-.485-5.849-1.15-13.859,6.966-17.437,5.619-2.477,10.706-1.631,15.551,2.587,4.415,3.843,8.071,9.933,11.606,15.822,4.672,7.783,9.086,15.136,14.681,16.45,3,.706,6.3.229,9.8-.276,7.8-1.128,16.637-2.405,26.718,8.023a41.782,41.782,0,0,0,20.548,12.06,34.772,34.772,0,0,0,4.9.78H138.9l.031.449a24.121,24.121,0,0,1-4.783,0H34.409Zm-32.377-.451H43.856L32.9,450.052h97.886q-.79-.146-1.634-.34a42.232,42.232,0,0,1-20.77-12.186c-9.921-10.263-18.638-9-26.329-7.89-3.537.511-6.877.994-9.965.269-5.781-1.358-10.242-8.79-14.965-16.657C53.6,407.389,49.966,401.33,45.6,397.534c-4.7-4.091-9.63-4.914-15.073-2.515-7.821,3.448-7.172,11.273-6.7,16.987.264,3.179.472,5.69-.8,6.657-.743.563-1.93.53-3.627-.1A13.014,13.014,0,0,0,6.6,421.1,17.077,17.077,0,0,0,.683,437.208c1.517,9.574,5.543,16.126,12.308,20.028" transform="translate(0 -268.923)" fill="#e6e6e6"/><path d="M227.558,185.824a.564.564,0,0,1-.565-.564V160.866a.564.564,0,0,1,1.129,0V185.26a.564.564,0,0,1-.564.564" transform="translate(-155.239 -109.629)"/><path d="M213.458,512.664s6.643,3.492,13.777,1.854,8.436-1.921,13.013-.709" transform="translate(-145.982 -350.607)" fill="#fff"/><path d="M222.809,514.688a23.876,23.876,0,0,1-9.944-2.313.226.226,0,0,1,.21-.4c.066.035,6.656,3.433,13.621,1.834,7-1.607,8.459-1.942,13.121-.707a.226.226,0,0,1-.115.436c-4.554-1.206-5.829-.914-12.9.711a17.819,17.819,0,0,1-3.988.438" transform="translate(-145.494 -350.118)" fill="#e00"/><path d="M437.338,211.395a.564.564,0,0,1-.564-.564V199.3a.564.564,0,1,1,1.128,0v11.526a.564.564,0,0,1-.564.564" transform="translate(-298.706 -135.917)"/><path d="M437.338,155.69a.564.564,0,0,1-.564-.564v-14.95a.564.564,0,1,1,1.128,0v14.95a.564.564,0,0,1-.564.564" transform="translate(-298.706 -95.479)"/><path d="M477.514,174.379a.564.564,0,0,1-.564-.564V139.528a.564.564,0,1,1,1.128,0v34.287a.564.564,0,0,1-.564.564" transform="translate(-326.182 -95.036)"/><path d="M533.6,265.9a.564.564,0,0,1-.564-.564V253.806a.564.564,0,0,1,1.129,0v11.526a.564.564,0,0,1-.564.564" transform="translate(-364.542 -173.19)"/><path d="M596.106,266.2a.564.564,0,0,1-.564-.564V254.255a.564.564,0,1,1,1.128,0V265.64a.564.564,0,0,1-.564.564" transform="translate(-407.286 -173.497)"/><path d="M533.6,307.182a.564.564,0,0,1-.564-.564v-5.581a.564.564,0,1,1,1.129,0v5.581a.564.564,0,0,1-.564.564" transform="translate(-364.542 -205.491)"/><path d="M336.322,223.688a.564.564,0,0,1-.564-.564v-15.4a.564.564,0,1,1,1.128,0v15.4a.564.564,0,0,1-.564.564" transform="translate(-229.622 -141.674)"/><path d="M376.69,218.271a.564.564,0,0,1-.564-.564v-9.984a.564.564,0,1,1,1.128,0v9.984a.564.564,0,0,1-.564.564" transform="translate(-257.229 -141.674)"/><path d="M560.726,494.743s13.423-1.319,25.138-13.79,23.241-4.968,31.177-5.507,13.6-15.772,33.445-17.131,38.924,16.591,18.139,43.612H598.712l12.093-7.184Z" transform="translate(-383.476 -313.389)" fill="#fff"/><path d="M668.688,501.667H597.843l12.093-7.184H560.678l-.022-.45c.133-.013,13.479-1.46,25-13.719,8.641-9.2,17.294-7.615,24.247-6.343a30.2,30.2,0,0,0,7.079.765c3-.2,5.659-2.553,9.027-5.527,5.43-4.8,12.189-10.765,24.417-11.6,10.68-.731,20.732,4.158,25.022,12.166,4.707,8.787,2.331,20.084-6.688,31.809Zm-69.2-.451h68.98c8.848-11.544,11.186-22.633,6.58-31.232-4.207-7.854-14.091-12.65-24.593-11.929-12.075.827-18.77,6.74-24.149,11.491-3.432,3.031-6.143,5.426-9.295,5.64a30.558,30.558,0,0,1-7.191-.772c-6.846-1.252-15.365-2.811-23.837,6.208a46,46,0,0,1-22.816,13.409h48.415Z" transform="translate(-383.428 -312.902)" fill="#e6e6e6"/><path d="M106.461,573.709H300.138l-12.093,7.184H117.42Z" transform="translate(-72.808 -392.355)"/><path d="M274.093,464.209l-1.97-1.869-1.381,1.869Z" transform="translate(-185.158 -316.19)"/><line x2="0.006" y2="28.415" transform="translate(107.873 139.394)" fill="#fff"/><path d="M341.014,469.252a.113.113,0,0,1-.113-.113l-.006-28.415a.113.113,0,1,1,.226,0l.006,28.415a.113.113,0,0,1-.113.113" transform="translate(-233.135 -301.33)" fill="#e00"/><path d="M652.2,523.942s5.039-6.558,15.242-4.728,10.317,2.208,14.291,1.7" transform="translate(-446.036 -354.866)" fill="#fff"/><path d="M651.715,523.688a.226.226,0,0,1-.179-.363c.051-.066,5.243-6.645,15.461-4.812,2.255.4,4.021.739,5.439,1.007,4.961.939,5.724,1.084,8.784.7a.226.226,0,0,1,.057.448c-3.131.4-3.9.251-8.925-.7-1.417-.268-3.181-.6-5.434-1.006a16.737,16.737,0,0,0-11.279,1.642,13.107,13.107,0,0,0-3.745,3,.225.225,0,0,1-.179.088" transform="translate(-445.548 -354.386)" fill="#e00"/><path d="M840.61,470.665s13.1-2.359,21.289,8.044" transform="translate(-574.886 -321.727)" fill="#fff"/><path d="M861.411,478.478a.226.226,0,0,1-.178-.086c-8.006-10.173-20.941-7.985-21.071-7.962a.226.226,0,0,1-.08-.444c.133-.024,13.329-2.264,21.507,8.127a.226.226,0,0,1-.178.365" transform="translate(-574.398 -321.27)" fill="#e00"/><path d="M108.036,412.192s-6.424-9.17-12.849-8.13-7.558,7.435-7.558,7.435" transform="translate(-59.929 -276.278)" fill="#fff"/><path d="M107.548,411.934a.225.225,0,0,1-.185-.1c-.064-.09-6.42-9.039-12.628-8.036-6.186,1-7.361,7.189-7.372,7.252a.226.226,0,0,1-.444-.079c.012-.066,1.237-6.564,7.744-7.618,2.7-.437,5.816.853,9.02,3.729a29.993,29.993,0,0,1,4.049,4.493.226.226,0,0,1-.185.355" transform="translate(-59.44 -275.795)" fill="#e00"/><path d="M25.017,481.246s-9.089-.016-11.734,8.811" transform="translate(-9.084 -329.12)" fill="#fff"/><path d="M12.794,489.794a.235.235,0,0,1-.065-.009.226.226,0,0,1-.151-.281c2.661-8.877,11.841-8.972,11.95-8.972h0a.226.226,0,0,1,0,.451h0c-.1,0-8.953.1-11.517,8.65a.226.226,0,0,1-.216.161" transform="translate(-8.595 -328.632)" fill="#e00"/><path d="M323.308,444.5c.724,0,1.229.28,1.229.681,0,.495-.742,1.155-1.847,1.351a3.1,3.1,0,0,1-.539.049c-.724,0-1.229-.28-1.229-.681,0-.495.742-1.155,1.847-1.351a3.107,3.107,0,0,1,.539-.049m0-.226a3.32,3.32,0,0,0-.579.052c-1.123.2-2.033.9-2.033,1.573,0,.55.614.906,1.455.906a3.31,3.31,0,0,0,.578-.052c1.123-.2,2.034-.9,2.034-1.573,0-.55-.614-.906-1.455-.906" transform="translate(-219.321 -303.837)" fill="#fff"/><path d="M314.823,460.213a7.015,7.015,0,0,0,2.977-.562c1.2-.63.913-1.551.913-1.551" transform="translate(-215.305 -313.29)"/><path d="M318.331,456.138c0,.67-.91,1.374-2.034,1.573s-2.033-.184-2.033-.854.91-1.374,2.033-1.573,2.034.184,2.034.854" transform="translate(-214.923 -311.329)" fill="#e00"/><path d="M248.076,560.2a2.746,2.746,0,0,1,.042,2.391c-.394.814-.61,1.365-.252,1.911,0,0,.43.367,2.4.157a12.193,12.193,0,0,1,3.744.225l-1.781-2.8s-.324.542-1.078-.383a1.7,1.7,0,0,1-.3-1.8Z" transform="translate(-169.389 -382.916)" fill="#fbc6c8"/><path d="M256.235,553.8a10.035,10.035,0,0,1-1.121,2.274c-.516.586-1.418,1.109-1.433,2.049s2.343,1.447,3.427,2.05a7.968,7.968,0,0,0,3.635.538c.844-.009.687-.908-1.053-1.618-2.379-.97-1.59-3.291-.994-4.3Z" transform="translate(-173.49 -378.737)" fill="#fbc6c8"/><path d="M255.14,560.844s-.438,1.359,1.363,2.26c1.425.713,2.126,1.194,3.182.807,0,0,3.573,1.319,1.137,1.747h-1.071a4.925,4.925,0,0,1-1.855-.277,9.209,9.209,0,0,1-1.374-.669c-.816-.512-2.492-.9-2.782-1.549-.435-.977,1.4-2.318,1.4-2.318" transform="translate(-173.486 -383.557)" fill="#e00"/><path d="M248.02,566.7s.175,1.729,2.932,1.24l2.466,1.306,1.83.409s-3.912-.258-5.019-.254-2.272.28-2.819-.308.611-2.393.611-2.393" transform="translate(-169.1 -387.562)" fill="#e00"/><path d="M238.272,482.482c.771.54,3.049,1.514,4.477,1a17.5,17.5,0,0,0,4.161-2.779,5,5,0,0,1,2.268-1.107s.572,7.025,1.159,14.08a8.911,8.911,0,0,1-.2,2.776c-.594,2.527-1.848,7.7-2.344,8.489l-3.149-1.176c-.378-.231,1.584-7.474,1.1-8.761-.2-.53-1.742-5.67-1.858-5.715-.974-.375.034,14.313.25,15.987l-3.147.336s-1.89-2.372-2.1-11.127c-.725-4.171-1.891-6.592-.86-12.176" transform="translate(-162.509 -327.99)"/><path d="M310.2,456.294c-1.858-.567-2.362.756-3.842.976a4.164,4.164,0,0,1-.482.037,9.836,9.836,0,0,1,.46,1.737,10.539,10.539,0,0,1,2.08-.42,12.192,12.192,0,0,0,3.2-.511.277.277,0,0,0,.2-.288c-.028-.376-.265-1.12-1.614-1.532" transform="translate(-209.189 -311.96)" fill="#fab6b6"/><path d="M247.136,388.381a8.676,8.676,0,0,1,.922,2.492c-.02.706-.078.529.137,1.02a3.439,3.439,0,0,0,.395.653.3.3,0,0,1-.1.448l-.4.213a6.461,6.461,0,0,1-.1,1.177c-.1.353-.039,1.53-.863,1.569a5.55,5.55,0,0,1-1.746-.275v.393a3.3,3.3,0,0,0,.417,2.585c.824,1.118-3.988,1.633-3.988,1.633l-1.481-1.372s.938-.722.938-3.371-1.556-3.046-1.537-4.812a3.883,3.883,0,0,1,2.669-3.826c1.589-.392,4.016-.117,4.728,1.471" transform="translate(-163.955 -264.495)" fill="#fab6b6"/><path d="M252.091,431.7a.933.933,0,0,1-.693-.474c-.737-1.334-3.046-5.528-3.521-6.595a5.372,5.372,0,0,0-3.369-2.7c-1.26-.284-1.724-2.11-1.724-2.11-2.569.477-4.468-.782-4.532-.231s-1,1.26-1.743,3.061c-.658,1.6.378,4.634.724,9.673a17.719,17.719,0,0,1-1.582,8.7s.441,0,2.929,1.669,5.2-.674,6.463-2.28a6,6,0,0,1,3.086-2.015,12.136,12.136,0,0,0-1.013-3.87,31.608,31.608,0,0,1-1.541-5.091c1.071,2.362,4.728,5.622,4.728,5.622,2.126.343,5.678-.592,8.008-1.166a9.407,9.407,0,0,0-.46-1.695,48.065,48.065,0,0,1-5.76-.507" transform="translate(-161.16 -286.859)" fill="#e6e6e6"/><path d="M243.591,391.109a3.356,3.356,0,0,0,1.955-3.025s-.987-2.876-5.07-1.83c-5.048,1.293-3.2,8.422-1.7,9.86a5.015,5.015,0,0,0,.063,4.472,3.539,3.539,0,0,0-.063,3.59,5.309,5.309,0,0,0,.567,4.364s-1.449,4.233,1.149,6.075c0,0,.977-4.351-.6-6.044a5.218,5.218,0,0,0-.19-4.364s1.215-2.39-.047-3.653a6.635,6.635,0,0,0,.787-3.779s2.394-1.931,2.582-3.752c0,0-1.742-.972-.777-2.358,0,0,.708-.784,1.341.443" transform="translate(-162.198 -263.999)"/><path d="M253.3,402.526h-.006a1.729,1.729,0,0,1-1.3-1.215,1.144,1.144,0,0,1,.284-1.292.77.77,0,0,1,.691-.206c.571.131.938.957.953.992a.085.085,0,0,1-.155.067c0-.008-.348-.783-.836-.9a.606.606,0,0,0-.543.17.993.993,0,0,0-.233,1.11,1.576,1.576,0,0,0,1.149,1.1.084.084,0,0,1-.005.169" transform="translate(-172.281 -273.417)" fill="#f56d6d"/><path d="M257.145,414.077a3.84,3.84,0,0,1-2.278-.8.085.085,0,0,1,.1-.137,3.4,3.4,0,0,0,2.734.706.085.085,0,1,1,.046.163,2.372,2.372,0,0,1-.6.067" transform="translate(-174.278 -282.533)" fill="#f56d6d"/><path d="M260.529,445.249a6.58,6.58,0,0,1,1.112,2.131c.525,1.986,1.106,3.749,1.262,4.133a16.653,16.653,0,0,1,1.37,4.593s-4.38,3.241-5.338,4.183a19.134,19.134,0,0,0,1.6-15.04" transform="translate(-177.083 -304.502)"/><path d="M269.625,452.625a.112.112,0,0,1-.072-.026c-.043-.035-4.3-3.57-5.924-7.863a.113.113,0,0,1,.211-.08c1.6,4.236,5.814,7.733,5.856,7.768a.113.113,0,0,1-.072.2" transform="translate(-180.289 -304.047)"/><path d="M243.607,456.7a.976.976,0,0,1-.431-.093.226.226,0,0,1,.209-.4.625.625,0,0,0,.523-.03.226.226,0,1,1,.2.407,1.141,1.141,0,0,1-.5.116" transform="translate(-166.224 -311.961)" fill="#e00"/><path d="M289.4,454.142c-1.165,0-3.9-.33-5.127-.486-.9-.114-1.052-.478-1.078-.586l-.894-1.625.2-.109.915,1.68s.072.312.888.415a43.749,43.749,0,0,0,5.438.468l.031.223a2.879,2.879,0,0,1-.37.018" transform="translate(-193.062 -308.665)" fill="#fff"/><path d="M254.491,517.478h-.018a.113.113,0,0,1-.094-.129l1.241-7.785c-.106-.406-1.571-6.009-2.255-7.128a11.536,11.536,0,0,1-1.209-2.47.113.113,0,1,1,.217-.064,11.6,11.6,0,0,0,1.185,2.416c.724,1.184,2.223,6.966,2.287,7.212l.006.023-1.249,7.832a.113.113,0,0,1-.111.1" transform="translate(-172.444 -341.822)" fill="#e00"/><path d="M240.718,512.173a.112.112,0,0,1-.093-.049c-2.1-3.06-2.039-9.976-2.035-10.269a34.229,34.229,0,0,0-.94-5.684,16,16,0,0,1-.062-7.065.113.113,0,0,1,.218.06,15.755,15.755,0,0,0,.065,6.955,34.252,34.252,0,0,1,.945,5.733c0,.075-.059,7.142,2,10.142a.113.113,0,0,1-.093.177" transform="translate(-162.241 -334.439)" fill="#e00"/><path d="M253.681,567.475a3.176,3.176,0,0,0,.848,1.786c.733.683.756.8.756.8l3.5.127a9.389,9.389,0,0,1-2.733-1.13c-.628-.416-2.11-.746-2.375-1.585" transform="translate(-173.49 -388.091)"/><path d="M257.049,394.141a.113.113,0,0,1-.071-.2,3,3,0,0,0,1.316-2.109.113.113,0,0,1,.111-.114.114.114,0,0,1,.114.111,3.17,3.17,0,0,1-1.4,2.288.11.11,0,0,1-.07.025" transform="translate(-175.716 -267.892)" fill="#e00"/></g></g></g></svg>