<svg xmlns="http://www.w3.org/2000/svg" viewBox="0 0 105 144"><g fill="none" fill-rule="nonzero"><path fill="#ACB8BF" d="M.403 113.907 52 84.156l52.195 30.264L52.085 144z"/><path fill="#B8B9B9" d="m.488 30.912-.085 59.79 51.428-29.64V2.805z" opacity=".5"/><path fill="#DDDDDB" d="m104.195 89.766-.086-58.881-52.278-28.08v58.201zM.403 91.042l51.64-29.328L104.195 90.2l-52.152 30.423z" opacity=".75"/><g fill="#FFF"><path d="m2.186 31.645 48.01 27.55v58.407L1.761 89.628V33.51m-1.53-2.628v59.34l51.495 29.67V57.923l-48.01-27.38-3.484.338Z"/><path d="M52.066 2.738 100.5 30.882 51.64 58.348 3.547 30.798l48.52-28.06m0-1.865L.656 30.713l50.985 29.245 52.003-29.245-51.578-29.67v-.17Z"/></g></g></svg>