<svg xmlns="http://www.w3.org/2000/svg" fill="none" viewBox="0 0 440 228"><path stroke="url(#a)" stroke-linecap="round" stroke-linejoin="round" stroke-width="2.5" d="M177.5 214h-56.854c-6.011 0-10.884-4.873-10.884-10.884v0c0-6.011-4.873-10.883-10.884-10.883H50c-5.523 0-10-4.478-10-10V166"/><path fill="#fff" d="M222 201.6c12.813 0 23.2-10.387 23.2-23.2 0-12.813-10.387-23.2-23.2-23.2-12.813 0-23.2 10.387-23.2 23.2 0 12.813 10.387 23.2 23.2 23.2Z"/><path stroke="#52CDB7" stroke-linecap="round" stroke-linejoin="round" stroke-miterlimit="10" stroke-width="2.5" d="M177.5 214.2v-48.8c0-2.7 2.1-4.8 4.8-4.8h11.6M266.5 211.2v-46.8c0-2.7-2.1-4.8-4.8-4.8h-12.1M168.8 226.2c-2.7 0-4.8-2.211-4.8-5.053V214.2h116v6.947c0 2.842-2.1 5.053-4.8 5.053H168.8Z"/><path fill="#52CDB7" d="M210.3 218.2c-.731 0-1.3-.553-1.3-1.263V215.2h26v1.737c0 .71-.569 1.263-1.3 1.263h-23.4Z"/><path stroke="url(#b)" stroke-linecap="round" stroke-linejoin="round" stroke-width="2.5" d="M266.5 214h56.339c6.011 0 10.883-4.873 10.883-10.884v0c0-6.011 4.873-10.883 10.884-10.883H393c5.523 0 10-4.478 10-10V162"/><path fill="#2F80ED" d="m388.489 151.865 1.532-6.709c1.604-7.073-2.844-12.031-2.844-11.958-2.406-2.917-2.26-6.198-2.188-6.125-.072-9.625-8.604-7.292-12.833-15.386l-2.187-3.208c4.229-13.344 16.406-19.25 16.406-19.25 1.312 1.021 1.896 2.406 1.823 2.334 1.823 4.01 10.135 2.624 10.062 2.624 4.667 0 5.105 5.323 4.959 4.959 0 1.458-.657 2.771-1.75 3.719l-9.334 8.02c-4.01 3.428-2.552 8.24-2.552 8.094 2.406 9.552 19.177 5.688 19.177 16.261-1.239 6.781-7.583 10.281-13.927 18.885l-6.344-2.26ZM427.938 95.427l-2.844 2.552c-2.99 2.698-7.875 1.24-8.823-2.77l-1.969-8.313s9.115 3.208 13.636 8.531ZM427.792 144.573v-6.927c0-5.688-4.594-3.865-6.271-9.844 0 .073-1.75-7.073-1.75-7.073-1.75-4.594 1.604-9.552 6.562-9.552h10.282s5.395 18.958-8.823 33.396Z"/><path stroke="#2F80ED" stroke-linecap="round" stroke-linejoin="round" stroke-miterlimit="10" stroke-width="2.5" d="M369.969 108.479C374.708 94.771 387.687 85 403 85c9.698 0 18.448 3.938 24.719 10.281M422.469 149.094C416.854 152.813 410.219 155 403 155c-19.323 0-35-15.677-35-35 0-1.094.073-2.26.146-3.354M432.531 101.188A35.09 35.09 0 0 1 438 120c0 9.552-3.865 18.229-10.062 24.573"/><g clip-path="url(#c)"><path fill="#FA6E26" d="m201.87 41.106-4.42-13.484-8.58-26.575c-.39-1.309-2.34-1.309-2.86 0l-8.71 26.706h-28.73l-8.58-26.706c-.39-1.309-2.34-1.309-2.86 0l-8.58 26.706-4.42 13.353c-.39 1.178 0 2.618 1.04 3.272L163 72l37.7-27.49c1.17-.786 1.56-2.095 1.17-3.404Z"/><path fill="#E04229" d="M148.7 27.753 163 72l14.43-44.247H148.7Z"/><path fill="#FA6E26" d="M128.55 27.753 163 72l-14.43-44.247h-20.02Z"/><path fill="#FAA126" d="m128.55 27.753-4.42 13.352c-.39 1.179 0 2.619 1.04 3.273L163 72l-34.45-44.247Z"/><path fill="#E04229" d="M128.55 27.754h20.15l-8.71-26.706c-.39-1.309-2.34-1.309-2.86 0l-8.58 26.706Z"/><path fill="#FA6E26" d="M177.43 27.753 163 72l34.45-44.247h-20.02Z"/><path fill="#FAA126" d="m197.45 27.753 4.42 13.483c.39 1.179 0 2.619-1.04 3.273L163 72l34.45-44.247Z"/><path fill="#E04229" d="M197.45 27.754h-20.02l8.71-26.706c.39-1.309 2.34-1.309 2.86 0l8.45 26.706Z"/></g><path stroke="url(#d)" stroke-linecap="round" stroke-width="2.5" d="M236 120h125"/><path fill="#2F80ED" d="M235.037 115.381a1 1 0 0 1 1.538.843v7.68a1 1 0 0 1-1.538.843l-6.013-3.84a1.001 1.001 0 0 1 0-1.686l6.013-3.84Z"/><path fill="#fff" d="m76.472 114.228-6.399-2.262c-3.16-1.17-4.74-4.836-3.318-7.878l2.844-6.084a37.322 37.322 0 0 0-8.295-8.19l-6.162 2.808c-3.081 1.404-6.794-.078-7.979-3.276l-2.291-6.318a37.24 37.24 0 0 0-11.771 0l-2.291 6.318c-1.185 3.12-4.898 4.68-7.979 3.276l-6.162-2.808a37.322 37.322 0 0 0-8.295 8.19l2.844 6.084c1.422 3.042-.079 6.708-3.318 7.878l-6.32 2.262c-.632 3.978-.553 7.878 0 11.622l6.399 2.262c3.239 1.17 4.74 4.836 3.318 7.878l-2.844 6.084a37.322 37.322 0 0 0 8.295 8.19l6.162-2.808c3.081-1.404 6.794.078 7.979 3.276l2.291 6.318c3.95.624 7.9.624 11.771 0l2.291-6.318c1.185-3.12 4.898-4.68 7.979-3.276l6.162 2.808a37.322 37.322 0 0 0 8.295-8.19l-2.844-6.084c-1.422-3.042.079-6.708 3.318-7.878l6.399-2.262c.553-3.9.553-7.8-.079-11.622Zm-22.752 1.326L38.552 130.53a3.416 3.416 0 0 1-4.819 0l-8.453-8.268c-.869-.858-.869-2.184 0-2.964l3.555-3.51c.869-.858 2.212-.858 3.002 0l4.187 4.134 11.06-10.842c.869-.858 2.212-.858 3.002 0l3.555 3.51c.869.858.869 2.184.079 2.964Z"/><path stroke="#9B51E0" stroke-linecap="round" stroke-linejoin="round" stroke-miterlimit="10" stroke-width="2.5" d="M33.654 83.028a37.24 37.24 0 0 1 11.771 0l2.291 6.318c1.185 3.12 4.898 4.68 7.98 3.276l6.161-2.808a37.322 37.322 0 0 1 8.295 8.19l-2.844 6.084c-1.422 3.042.08 6.708 3.318 7.878l6.4 2.262a35.856 35.856 0 0 1 0 11.622l-6.4 2.262c-3.16 1.17-4.74 4.836-3.318 7.878l2.844 6.084a37.322 37.322 0 0 1-8.295 8.19l-6.162-2.808c-3.08-1.404-6.794.078-7.979 3.276l-.79 2.184M45.346 156.972a37.24 37.24 0 0 1-11.771 0l-2.291-6.318c-1.185-3.12-4.898-4.68-7.979-3.276l-6.162 2.808a37.322 37.322 0 0 1-8.295-8.19l2.844-6.084c1.422-3.042-.079-6.708-3.318-7.878l-6.399-2.262c-.553-3.744-.632-7.644 0-11.622l6.399-2.262c3.16-1.17 4.74-4.836 3.318-7.878l-2.844-6.084a37.322 37.322 0 0 1 8.295-8.19l6.162 2.808c3.081 1.404 6.794-.078 7.979-3.276l.711-1.872"/><path fill="#9B51E0" d="m53.72 112.59-3.634-3.51c-.869-.858-2.212-.858-3.002 0l-10.981 10.842-4.187-4.134c-.869-.858-2.212-.858-3.002 0l-3.634 3.51c-.869.858-.869 2.184 0 2.964l8.374 8.268a3.416 3.416 0 0 0 4.819 0l15.247-14.976c.79-.78.79-2.106 0-2.964Z"/><path fill="url(#e)" d="M86 118.75a1.25 1.25 0 0 0 0 2.5v-2.5ZM164.741 80a1.25 1.25 0 1 0-2.5 0h2.5Zm117.509 0a1.25 1.25 0 0 0-2.5 0h2.5Zm-12.336 17.222v1.25-1.25Zm-36.583 0v-1.25 1.25ZM86 121.25h124.606v-2.5H86v2.5ZM162.241 80v6.111h2.5V80h-2.5Zm12.336 18.472h36.583v-2.5h-36.583v2.5Zm36.583 0c5.429 0 9.836 4.412 9.836 9.861h2.5c0-6.824-5.52-12.36-12.336-12.36v2.5Zm-48.919-12.36c0 6.823 5.521 12.36 12.336 12.36v-2.5c-5.429 0-9.836-4.412-9.836-9.86h-2.5Zm48.365 35.138c7.121 0 12.89-5.786 12.89-12.917h-2.5c0 5.756-4.655 10.417-10.39 10.417v2.5ZM279.75 80v6.111h2.5V80h-2.5Zm-9.836 15.972h-36.583v2.5h36.583v-2.5Zm-36.583 0c-6.815 0-12.335 5.537-12.335 12.361h2.5c0-5.449 4.406-9.86 9.835-9.86v-2.5Zm46.419-9.86c0 5.448-4.406 9.86-9.836 9.86v2.5c6.816 0 12.336-5.537 12.336-12.36h-2.5Z"/><g clip-path="url(#f)"><path stroke="#52CDB7" stroke-linecap="round" stroke-linejoin="round" stroke-miterlimit="10" stroke-width="2.5" d="M243.722 191.401a27.156 27.156 0 0 1-5.886 6.097l-4.373-2.091c-2.186-1.045-4.82.058-5.661 2.439l-1.626 4.703a25.23 25.23 0 0 1-8.352 0l-1.626-4.703c-.841-2.322-3.475-3.484-5.662-2.439l-4.372 2.091a27.156 27.156 0 0 1-5.886-6.097l2.018-4.528c1.009-2.264-.056-4.993-2.354-5.864l-4.541-1.684c-.392-2.786-.448-5.689 0-8.65l4.541-1.684c2.242-.871 3.363-3.6 2.354-5.864l-.56-1.277M200.278 158.599a26.563 26.563 0 0 1 5.662-5.922c.168-.116.336-.116.56-.058l4.093 1.974c2.186 1.045 4.82-.058 5.661-2.439l1.626-4.703a25.23 25.23 0 0 1 8.352 0l1.626 4.703c.841 2.381 3.475 3.484 5.661 2.439l4.373-2.091a27.156 27.156 0 0 1 5.886 6.097l-2.018 4.528c-1.009 2.264.056 4.993 2.354 5.864l4.541 1.684a28.003 28.003 0 0 1 0 8.65l-4.541 1.684c-2.242.871-3.363 3.6-2.354 5.864l.672 1.393"/><path fill="#52CDB7" d="M237.001 175.652c0-8.285-6.716-15.047-15-15.104a14.877 14.877 0 0 0-15 14.897c0 8.284 6.716 15.046 15 15.103 8.284.057 15-6.612 15-14.896Z"/><path stroke="#fff" stroke-linecap="round" stroke-linejoin="round" stroke-miterlimit="10" stroke-width="2.5" d="M216.139 178.244 213 174.993l3.139-3.251M228 171.742l3.195 3.251-3.195 3.251M223.987 170l-3.307 10.044"/></g><path fill="#2F80ED" d="M120.035 93.128a1 1 0 0 1 .043 1.705l-10.847 7.012a1 1 0 0 1-1.543-.815l-.335-13.475a1 1 0 0 1 1.5-.89l11.182 6.463Z"/><rect width="11.36" height="11.36" x="149.919" y="162" fill="#EB5757" rx="1" transform="rotate(55.855 149.919 162)"/><circle cx="330" cy="93" r="6" fill="#52CDB7"/><path fill="#FCA326" d="M298.971 149.923c.202-.489-.393-.916-.791-.568l-10.878 9.494a.5.5 0 0 0 .134.838l4.438 1.875a.5.5 0 0 1 .267.653l-3.694 8.835c-.205.489.394.919.792.568l12.031-10.6a.5.5 0 0 0-.134-.835l-4.99-2.144a.5.5 0 0 1-.264-.65l3.089-7.466Z"/><path fill="#FC0D16" d="M295.7 44.9c5.6 0 13.7-1.2 13.7-7.8 0-.5 0-1-.1-1.5L306 21.2c-.8-3.2-1.4-4.6-7-7.4-4.5-2.2-13.9-5.8-16.7-5.8-2.6 0-3.4 3.4-6.4 3.4-3 0-5.2-2.5-8-2.5-2.7 0-4.4 1.8-5.8 5.6 0 0-3.8 10.5-4.2 12.1-.1.3-.1.6-.1.9 0 3.9 16.2 17.4 37.9 17.4Zm14.5-5.1c.8 3.6.8 4 .8 4.5 0 6.2-7 9.7-16.3 9.7-20.9 0-39.2-12.2-39.2-20.2 0-1.2.3-2.4.7-3.3-7.5.4-17.2 1.7-17.2 10.3 0 14 33.3 31.2 59.7 31.2 20.2 0 25.3-9.1 25.3-16.3 0-5.6-4.9-12.1-13.8-15.9Z"/><path fill="#070606" d="M310.2 39.8c.8 3.6.8 4 .8 4.5 0 6.2-7 9.7-16.3 9.7-20.9 0-39.2-12.2-39.2-20.2 0-1.2.3-2.4.7-3.3l1.6-4c-.1.3-.1.6-.1.9 0 4.1 16.2 17.5 37.9 17.5 5.6 0 13.7-1.2 13.7-7.8 0-.5 0-1-.1-1.5l1 4.2Z"/><defs><linearGradient id="a" x1="164" x2="56.716" y1="202.837" y2="202.837" gradientUnits="userSpaceOnUse"><stop stop-color="#52CDB7"/><stop offset="1" stop-color="#9B51E0"/></linearGradient><linearGradient id="b" x1="280" x2="386.4" y1="202.837" y2="202.837" gradientUnits="userSpaceOnUse"><stop stop-color="#52CDB7"/><stop offset="1" stop-color="#2F80ED"/></linearGradient><linearGradient id="d" x1="355" x2="229.912" y1="120" y2="120" gradientUnits="userSpaceOnUse"><stop stop-color="#2F80ED"/><stop offset="1" stop-color="#2F80ED"/></linearGradient><linearGradient id="e" x1="222.246" x2="222.246" y1="120" y2="80" gradientUnits="userSpaceOnUse"><stop stop-color="#9B51E0"/><stop offset="1" stop-color="#FCA326"/></linearGradient><clipPath id="c"><path fill="#fff" d="M124 0h78v72h-78z"/></clipPath><clipPath id="f"><path fill="#fff" d="M194 146h56v58h-56z"/></clipPath></defs></svg>