<svg xmlns="http://www.w3.org/2000/svg" xmlns:xlink="http://www.w3.org/1999/xlink" width="1069.81" height="625.809" viewBox="0 0 1069.81 625.809"><defs><clipPath id="a"><rect width="915.517" height="549.69" fill="none"/></clipPath><clipPath id="b"><path d="M282.644,362.972,147.657,423.99a19.34,19.34,0,1,0,15.933,35.247l134.987-61.017a19.34,19.34,0,1,0-15.933-35.247" transform="translate(-136.279 -361.251)" fill="none"/></clipPath><clipPath id="d"><path d="M1133.624,518.846,998.637,579.863a19.34,19.34,0,1,0,15.933,35.247l134.987-61.017a19.34,19.34,0,1,0-15.933-35.247" transform="translate(-987.259 -517.125)" fill="none"/></clipPath><clipPath id="f"><path d="M446.644,598.257,311.656,659.273A19.34,19.34,0,1,0,327.59,694.52L462.576,633.5a19.34,19.34,0,1,0-15.932-35.246" transform="translate(-300.278 -596.535)" fill="none"/></clipPath><clipPath id="g"><rect width="1034.032" height="549.69" fill="none"/></clipPath><clipPath id="h"><path d="M1173.9,267.437l-134.986,61.017a19.34,19.34,0,1,0,15.933,35.247l134.986-61.017a19.34,19.34,0,1,0-15.932-35.247" transform="translate(-1027.539 -265.716)" fill="none"/></clipPath><clipPath id="i"><rect width="1038.504" height="625.809" transform="translate(0 0)" fill="none"/></clipPath></defs><g opacity="0.175"><g transform="translate(35.778 76.119)" clip-path="url(#a)"><path d="M155.635,460.957a19.344,19.344,0,0,1-7.977-36.969l134.987-61.017a19.34,19.34,0,1,1,15.933,35.247L163.59,459.235a19.279,19.279,0,0,1-7.955,1.722" transform="translate(-56.353 -149.381)" fill="#dedede"/><path d="M1006.615,616.832a19.344,19.344,0,0,1-7.977-36.969l134.987-61.017a19.34,19.34,0,0,1,15.933,35.247L1014.571,615.11a19.282,19.282,0,0,1-7.955,1.722" transform="translate(-408.243 -213.837)" fill="#dedede"/><path d="M155.635,460.957a19.344,19.344,0,0,1-7.977-36.969l134.987-61.017a19.34,19.34,0,1,1,15.933,35.247L163.59,459.235a19.279,19.279,0,0,1-7.955,1.722" transform="translate(-56.353 -149.381)" fill="#dedede"/></g><g transform="translate(35.778 76.119)" clip-path="url(#a)"><path d="M1006.615,616.832a19.344,19.344,0,0,1-7.977-36.969l134.987-61.017a19.34,19.34,0,0,1,15.933,35.247L1014.571,615.11a19.282,19.282,0,0,1-7.955,1.722" transform="translate(-408.243 -213.837)" fill="#dedede"/></g><g transform="translate(35.778 76.119)" clip-path="url(#a)"><path d="M319.635,696.242a19.344,19.344,0,0,1-7.977-36.969l134.987-61.017A19.34,19.34,0,0,1,462.576,633.5L327.59,694.52a19.277,19.277,0,0,1-7.955,1.722" transform="translate(-124.169 -246.674)" fill="#dedede"/><path d="M319.635,696.242a19.344,19.344,0,0,1-7.977-36.969l134.987-61.017A19.34,19.34,0,0,1,462.576,633.5L327.59,694.52a19.277,19.277,0,0,1-7.955,1.722" transform="translate(-124.169 -246.674)" fill="#dedede"/><path d="M319.635,696.242a19.344,19.344,0,0,1-7.977-36.969l134.987-61.017A19.34,19.34,0,0,1,462.576,633.5L327.59,694.52a19.277,19.277,0,0,1-7.955,1.722" transform="translate(-124.169 -246.674)" fill="#dedede"/></g><g transform="translate(223.068 403.618)" clip-path="url(#f)"><path d="M381.162,631.917a19.344,19.344,0,0,1-7.977-36.969L508.17,533.932A19.34,19.34,0,1,1,524.1,569.179L389.117,630.2a19.273,19.273,0,0,1-7.955,1.722" transform="translate(-325.72 -569.936)" fill="#efefef"/></g><g transform="translate(35.778 76.119)" clip-path="url(#g)"><path d="M403.773,594.564a19.344,19.344,0,0,1-7.978-36.969l134.987-61.016a19.34,19.34,0,1,1,15.933,35.247L411.728,592.842a19.274,19.274,0,0,1-7.954,1.722" transform="translate(-158.961 -235.245)" fill="#dedede"/><path d="M10.323,687.3a10.316,10.316,0,0,1-4.254-19.716l114.738-52.06a10.314,10.314,0,0,1,8.5,18.8L14.565,686.382a10.279,10.279,0,0,1-4.243.918" transform="translate(0 -254.147)" fill="#dedede"/><path d="M1340.519,348.477a10.316,10.316,0,0,1-4.255-19.716L1451,276.7a10.314,10.314,0,0,1,8.5,18.8l-114.739,52.06a10.271,10.271,0,0,1-4.242.918" transform="translate(-465.934 -211.098)" fill="#dedede"/><path d="M169.692,800.688a10.316,10.316,0,0,1-4.254-19.716l29.456-13.249a10.314,10.314,0,0,1,8.5,18.8L173.934,799.77a10.278,10.278,0,0,1-4.243.918" transform="translate(-65.901 -317.083)" fill="#dedede"/><path d="M910.083,461.865a10.316,10.316,0,0,1-4.254-19.716L935.285,428.9a10.314,10.314,0,0,1,8.5,18.8l-29.456,13.249a10.28,10.28,0,0,1-4.243.918" transform="translate(-34.334 -415.092)" fill="#dedede"/><path d="M1046.9,365.423a19.344,19.344,0,0,1-7.977-36.969L1173.9,267.438a19.34,19.34,0,1,1,15.932,35.247L1054.851,363.7a19.28,19.28,0,0,1-7.955,1.722" transform="translate(-424.9 -109.877)" fill="#dedede"/><path d="M1046.9,365.423a19.344,19.344,0,0,1-7.977-36.969L1173.9,267.438a19.34,19.34,0,1,1,15.932,35.247L1054.851,363.7a19.28,19.28,0,0,1-7.955,1.722" transform="translate(-424.9 -109.877)" fill="#dedede"/><path d="M1046.9,365.423a19.344,19.344,0,0,1-7.977-36.969L1173.9,267.438a19.34,19.34,0,1,1,15.932,35.247L1054.851,363.7a19.28,19.28,0,0,1-7.955,1.722" transform="translate(-319.505 -81.406)" fill="#dedede"/></g><g clip-path="url(#i)"><path d="M1131.034,263.744a19.344,19.344,0,0,1-7.977-36.969l134.987-61.016a19.34,19.34,0,0,1,15.932,35.247L1138.99,262.022a19.279,19.279,0,0,1-7.956,1.722" transform="translate(-405.796 -38.3)" fill="#dedede"/><path d="M261.053,860.355a19.344,19.344,0,0,1-7.977-36.969l95.477-43.531A19.34,19.34,0,1,1,364.484,815.1l-95.477,43.531a19.269,19.269,0,0,1-7.955,1.722" transform="translate(-64.166 -245.647)" fill="#dedede"/><path d="M856.678,306.158a19.344,19.344,0,0,1-7.977-36.969l95.478-43.532A19.34,19.34,0,1,1,960.111,260.9l-95.477,43.532a19.276,19.276,0,0,1-7.956,1.722" transform="translate(-57.639 -210.229)" fill="#dedede"/></g></g></svg>