<?xml version="1.0" encoding="UTF-8"?>
<svg id="uuid-c86667cc-6a04-4712-b8ec-a5636c0e1812" data-name="Gray-20" xmlns="http://www.w3.org/2000/svg" xmlns:xlink="http://www.w3.org/1999/xlink" viewBox="0 0 1080 1080">
  <defs>
    <style>
      .uuid-ea78dbb7-3e58-4628-8285-62d0b7effc4e {
        clip-path: url(#uuid-338b2e54-eb83-4711-ad35-31d317f17bc0);
      }

      .uuid-3890cd4c-8bfb-43a3-84d6-be5bc1b0815a, .uuid-dfafa772-db25-41f7-aaa4-d660f6b2ea94, .uuid-7176738b-f0e6-4f74-bf95-4e426e410b45, .uuid-82dfbd6f-87e0-4732-9d70-76b97b007637, .uuid-27497a1e-3e44-402f-88bb-e08b1e48c148, .uuid-8f700ddf-cccd-434c-8e06-d052332db339, .uuid-f780597d-ca38-4ac5-85e1-2ec6723db55d, .uuid-12626b5e-71f0-4228-b210-cbf6759bb541, .uuid-96cbc8a3-a8db-4ccf-97e6-27f9e143ce23, .uuid-04df9de1-c9f1-49f9-b5fc-9b8459c21e70, .uuid-aed22838-5149-42e6-a7d1-2cdc39485256, .uuid-600477b1-c100-49b7-83c1-ec8ad907a928, .uuid-5fc6a959-6dfb-439f-9c76-f9455e820552, .uuid-e95d1662-8b8f-4178-a6b9-f5e7363ab86e, .uuid-3ca75068-4971-4e4d-9a12-5a42223ae679, .uuid-103646ee-5fce-4b72-b3d1-3d650d5bca6a {
        fill: none;
      }

      .uuid-3890cd4c-8bfb-43a3-84d6-be5bc1b0815a, .uuid-3bc850bb-8c07-4f35-b01a-08ad155bad04, .uuid-4925c2b9-dbd6-4f47-9867-91c6c3e87dd3, .uuid-7dbb240b-4b84-46b4-8e85-a83c6bd890c9, .uuid-01fa0b4f-42dd-4846-a600-b9660955d430, .uuid-87e72d33-4f01-45a0-a38f-ae23186094a9, .uuid-797047c9-3a6f-41c6-a952-48a9477c83fd, .uuid-e32a1c84-7e30-447f-a44d-47267334f234 {
        stroke-width: 0px;
      }

      .uuid-dfafa772-db25-41f7-aaa4-d660f6b2ea94 {
        stroke-dasharray: 0 0 22.9 17.18;
      }

      .uuid-dfafa772-db25-41f7-aaa4-d660f6b2ea94, .uuid-7176738b-f0e6-4f74-bf95-4e426e410b45, .uuid-82dfbd6f-87e0-4732-9d70-76b97b007637, .uuid-8d1d4c03-c1ca-4b43-a901-501542979727, .uuid-1aba3ee7-13c7-4fc8-90f7-a454ce4e9f01, .uuid-8ab0fe4a-c97b-4298-ba56-4f71a4f82e6e, .uuid-27497a1e-3e44-402f-88bb-e08b1e48c148, .uuid-8f700ddf-cccd-434c-8e06-d052332db339, .uuid-f780597d-ca38-4ac5-85e1-2ec6723db55d, .uuid-96cbc8a3-a8db-4ccf-97e6-27f9e143ce23, .uuid-600477b1-c100-49b7-83c1-ec8ad907a928, .uuid-3ca75068-4971-4e4d-9a12-5a42223ae679, .uuid-103646ee-5fce-4b72-b3d1-3d650d5bca6a {
        stroke: #e00;
      }

      .uuid-dfafa772-db25-41f7-aaa4-d660f6b2ea94, .uuid-7176738b-f0e6-4f74-bf95-4e426e410b45, .uuid-82dfbd6f-87e0-4732-9d70-76b97b007637, .uuid-df61a253-432a-43da-ad49-680d66942650, .uuid-1aba3ee7-13c7-4fc8-90f7-a454ce4e9f01, .uuid-8ab0fe4a-c97b-4298-ba56-4f71a4f82e6e, .uuid-9df0456d-dded-467d-bc64-3dc8dc1ced73, .uuid-27497a1e-3e44-402f-88bb-e08b1e48c148, .uuid-8f700ddf-cccd-434c-8e06-d052332db339, .uuid-f780597d-ca38-4ac5-85e1-2ec6723db55d, .uuid-12626b5e-71f0-4228-b210-cbf6759bb541, .uuid-96cbc8a3-a8db-4ccf-97e6-27f9e143ce23, .uuid-04df9de1-c9f1-49f9-b5fc-9b8459c21e70, .uuid-aed22838-5149-42e6-a7d1-2cdc39485256, .uuid-600477b1-c100-49b7-83c1-ec8ad907a928, .uuid-5fc6a959-6dfb-439f-9c76-f9455e820552, .uuid-e95d1662-8b8f-4178-a6b9-f5e7363ab86e, .uuid-00a045b8-3acb-4f00-9b35-5cdc334446d6, .uuid-70e83adb-f364-42d1-8591-3cc56ef83adf, .uuid-c00d05a4-4f2b-47f2-aa87-859594e64e04, .uuid-3ca75068-4971-4e4d-9a12-5a42223ae679, .uuid-103646ee-5fce-4b72-b3d1-3d650d5bca6a {
        stroke-linecap: round;
        stroke-linejoin: round;
      }

      .uuid-dfafa772-db25-41f7-aaa4-d660f6b2ea94, .uuid-7176738b-f0e6-4f74-bf95-4e426e410b45, .uuid-82dfbd6f-87e0-4732-9d70-76b97b007637, .uuid-27497a1e-3e44-402f-88bb-e08b1e48c148, .uuid-8f700ddf-cccd-434c-8e06-d052332db339, .uuid-f780597d-ca38-4ac5-85e1-2ec6723db55d, .uuid-96cbc8a3-a8db-4ccf-97e6-27f9e143ce23, .uuid-3ca75068-4971-4e4d-9a12-5a42223ae679, .uuid-103646ee-5fce-4b72-b3d1-3d650d5bca6a {
        stroke-width: 3px;
      }

      .uuid-7176738b-f0e6-4f74-bf95-4e426e410b45 {
        stroke-dasharray: 0 0 19.38 14.53;
      }

      .uuid-82dfbd6f-87e0-4732-9d70-76b97b007637 {
        stroke-dasharray: 0 0 21.33 16;
      }

      .uuid-8d1d4c03-c1ca-4b43-a901-501542979727, .uuid-f543b145-4cb3-4c22-aab8-c039cbcce2d1, .uuid-5669b940-c86d-4df7-93b3-293558a0110f, .uuid-df61a253-432a-43da-ad49-680d66942650, .uuid-1aba3ee7-13c7-4fc8-90f7-a454ce4e9f01, .uuid-8ab0fe4a-c97b-4298-ba56-4f71a4f82e6e, .uuid-9df0456d-dded-467d-bc64-3dc8dc1ced73, .uuid-12626b5e-71f0-4228-b210-cbf6759bb541, .uuid-aed22838-5149-42e6-a7d1-2cdc39485256, .uuid-600477b1-c100-49b7-83c1-ec8ad907a928, .uuid-5fc6a959-6dfb-439f-9c76-f9455e820552, .uuid-e95d1662-8b8f-4178-a6b9-f5e7363ab86e, .uuid-00a045b8-3acb-4f00-9b35-5cdc334446d6, .uuid-0a66d888-7bc6-49df-9ab4-e5583f9b0397, .uuid-c00d05a4-4f2b-47f2-aa87-859594e64e04 {
        stroke-width: 2px;
      }

      .uuid-8d1d4c03-c1ca-4b43-a901-501542979727, .uuid-f543b145-4cb3-4c22-aab8-c039cbcce2d1, .uuid-5669b940-c86d-4df7-93b3-293558a0110f, .uuid-0a66d888-7bc6-49df-9ab4-e5583f9b0397 {
        stroke-miterlimit: 10;
      }

      .uuid-8d1d4c03-c1ca-4b43-a901-501542979727, .uuid-8ab0fe4a-c97b-4298-ba56-4f71a4f82e6e, .uuid-9df0456d-dded-467d-bc64-3dc8dc1ced73, .uuid-01fa0b4f-42dd-4846-a600-b9660955d430 {
        fill: #fff;
      }

      .uuid-f543b145-4cb3-4c22-aab8-c039cbcce2d1, .uuid-aed22838-5149-42e6-a7d1-2cdc39485256 {
        stroke: #e8a997;
      }

      .uuid-f543b145-4cb3-4c22-aab8-c039cbcce2d1, .uuid-797047c9-3a6f-41c6-a952-48a9477c83fd {
        fill: #e8a997;
      }

      .uuid-5669b940-c86d-4df7-93b3-293558a0110f, .uuid-df61a253-432a-43da-ad49-680d66942650, .uuid-9df0456d-dded-467d-bc64-3dc8dc1ced73, .uuid-e95d1662-8b8f-4178-a6b9-f5e7363ab86e {
        stroke: #e0e0e0;
      }

      .uuid-5669b940-c86d-4df7-93b3-293558a0110f, .uuid-1aba3ee7-13c7-4fc8-90f7-a454ce4e9f01, .uuid-87e72d33-4f01-45a0-a38f-ae23186094a9 {
        fill: #e00;
      }

      .uuid-df61a253-432a-43da-ad49-680d66942650, .uuid-7dbb240b-4b84-46b4-8e85-a83c6bd890c9 {
        fill: #e0e0e0;
      }

      .uuid-27497a1e-3e44-402f-88bb-e08b1e48c148 {
        stroke-dasharray: 0 0 22.73 17.05;
      }

      .uuid-8f700ddf-cccd-434c-8e06-d052332db339 {
        stroke-dasharray: 0 0 20.73 15.55;
      }

      .uuid-f780597d-ca38-4ac5-85e1-2ec6723db55d {
        stroke-dasharray: 0 0 18.61 13.95;
      }

      .uuid-12626b5e-71f0-4228-b210-cbf6759bb541, .uuid-04df9de1-c9f1-49f9-b5fc-9b8459c21e70, .uuid-0a66d888-7bc6-49df-9ab4-e5583f9b0397, .uuid-70e83adb-f364-42d1-8591-3cc56ef83adf, .uuid-c00d05a4-4f2b-47f2-aa87-859594e64e04 {
        stroke: #000;
      }

      .uuid-96cbc8a3-a8db-4ccf-97e6-27f9e143ce23 {
        stroke-dasharray: 0 0 22.48 16.86;
      }

      .uuid-04df9de1-c9f1-49f9-b5fc-9b8459c21e70, .uuid-70e83adb-f364-42d1-8591-3cc56ef83adf {
        stroke-width: 2.69px;
      }

      .uuid-5fc6a959-6dfb-439f-9c76-f9455e820552 {
        stroke: #f7c8bb;
      }

      .uuid-00a045b8-3acb-4f00-9b35-5cdc334446d6 {
        fill: #f56e6e;
        stroke: #f56e6e;
      }

      .uuid-b77e4a43-4704-455b-8363-74e4164c07fa {
        clip-path: url(#uuid-98ef9eb6-4051-40b8-8847-996377c6c28f);
      }

      .uuid-3ca75068-4971-4e4d-9a12-5a42223ae679 {
        stroke-dasharray: 0 0 18.6 13.95;
      }

      .uuid-4925c2b9-dbd6-4f47-9867-91c6c3e87dd3 {
        fill: #f7c8bb;
      }

      .uuid-e32a1c84-7e30-447f-a44d-47267334f234 {
        fill: #00ac00;
      }
    </style>
    <clipPath id="uuid-98ef9eb6-4051-40b8-8847-996377c6c28f">
      <path class="uuid-3890cd4c-8bfb-43a3-84d6-be5bc1b0815a" d="M154.68,554.8c-4.97-39-6.36-80.54-22.13-116.94-6.75-15.57-15.19-30.07-23.93-44.38-29.85-48.85-63.79-111.03-51.35-169.84h275.29v331.16h-177.87Z"/>
    </clipPath>
    <clipPath id="uuid-338b2e54-eb83-4711-ad35-31d317f17bc0">
      <path class="uuid-3890cd4c-8bfb-43a3-84d6-be5bc1b0815a" d="M226.71,548.27l5.85.29s-.24-5.92,2.51-10.48l-10.58-.89-.29,1.16,2.51,9.91Z"/>
    </clipPath>
  </defs>
  <path class="uuid-7dbb240b-4b84-46b4-8e85-a83c6bd890c9" d="M108.62,393.48c-35.47-58.04-76.71-134.91-39.07-202.58,28.24-50.78,90.12-71.96,144.79-77.03,19.21-1.78,38.64-1.7,57.82.43,63.94,7.1,121.44,47.02,186.83,43.7,66.59-3.37,122.84-44.15,182.74-69.65,57.1-24.31,120.41-29.58,180.57-13.54,47.99,12.8,95.67,40.13,124.64,81.32,34.36,48.85,25.03,110.98,2.54,162.65-25.29,58.1-42.38,116.91-14.57,178.04,33.73,74.15,70.1,153.51,68.72,235.55-2.53,150.44-166.44,222.27-285.47,247.76-80.75,17.29-164.96,17.34-245.53-1.08-69.18-15.81-140.49-45.39-194.22-94.98-49.88-46.04-81.74-111.63-99.61-177.85-6.09-22.55-10.63-45.56-13.59-68.79-3.51-27.55-7.02-55.09-10.53-82.64-4.97-39-6.36-80.54-22.13-116.94-6.75-15.57-15.19-30.07-23.93-44.38Z"/>
  <g class="uuid-b77e4a43-4704-455b-8363-74e4164c07fa">
    <g>
      <g>
        <line class="uuid-103646ee-5fce-4b72-b3d1-3d650d5bca6a" x1="73.3" y1="496.79" x2="73.3" y2="486.82"/>
        <line class="uuid-f780597d-ca38-4ac5-85e1-2ec6723db55d" x1="73.3" y1="472.86" x2="73.3" y2="284.48"/>
        <polyline class="uuid-103646ee-5fce-4b72-b3d1-3d650d5bca6a" points="73.3 277.5 73.3 267.53 83.27 267.53"/>
        <line class="uuid-82dfbd6f-87e0-4732-9d70-76b97b007637" x1="99.27" y1="267.53" x2="277.94" y2="267.53"/>
        <polyline class="uuid-103646ee-5fce-4b72-b3d1-3d650d5bca6a" points="285.94 267.53 295.91 267.53 295.91 277.5"/>
        <line class="uuid-3ca75068-4971-4e4d-9a12-5a42223ae679" x1="295.91" y1="291.45" x2="295.91" y2="479.81"/>
        <polyline class="uuid-103646ee-5fce-4b72-b3d1-3d650d5bca6a" points="295.91 486.79 295.91 496.76 285.94 496.76"/>
        <line class="uuid-7176738b-f0e6-4f74-bf95-4e426e410b45" x1="271.4" y1="496.76" x2="109.12" y2="496.76"/>
        <line class="uuid-103646ee-5fce-4b72-b3d1-3d650d5bca6a" x1="101.85" y1="496.76" x2="91.88" y2="496.76"/>
      </g>
      <g>
        <rect class="uuid-8d1d4c03-c1ca-4b43-a901-501542979727" x="91.88" y="286.16" width="185.37" height="63.96"/>
        <rect class="uuid-8d1d4c03-c1ca-4b43-a901-501542979727" x="91.88" y="350.12" width="185.37" height="63.96"/>
        <g>
          <rect class="uuid-87e72d33-4f01-45a0-a38f-ae23186094a9" x="111.74" y="313.53" width="101.78" height="11.72"/>
          <circle class="uuid-87e72d33-4f01-45a0-a38f-ae23186094a9" cx="250.78" cy="319.39" r="5.86"/>
        </g>
        <g>
          <rect class="uuid-87e72d33-4f01-45a0-a38f-ae23186094a9" x="111.74" y="376.24" width="101.78" height="11.72"/>
          <circle class="uuid-87e72d33-4f01-45a0-a38f-ae23186094a9" cx="250.78" cy="382.1" r="5.86"/>
        </g>
        <rect class="uuid-8d1d4c03-c1ca-4b43-a901-501542979727" x="91.88" y="414.14" width="185.37" height="63.96"/>
      </g>
      <g>
        <circle class="uuid-87e72d33-4f01-45a0-a38f-ae23186094a9" cx="250.78" cy="446.12" r="5.86"/>
        <g>
          <rect class="uuid-01fa0b4f-42dd-4846-a600-b9660955d430" x="100.36" y="440.52" width="34.47" height="11.72" transform="translate(-328.78 563.98) rotate(-90)"/>
          <rect class="uuid-01fa0b4f-42dd-4846-a600-b9660955d430" x="122.04" y="440.52" width="34.47" height="11.72" transform="translate(-307.11 585.65) rotate(-90)"/>
        </g>
      </g>
      <rect class="uuid-e32a1c84-7e30-447f-a44d-47267334f234" x="195.76" y="486.79" width="46.5" height="20.01"/>
    </g>
  </g>
  <g>
    <polyline class="uuid-103646ee-5fce-4b72-b3d1-3d650d5bca6a" points="1038.5 718.27 1038.5 728.24 1028.53 728.24"/>
    <line class="uuid-82dfbd6f-87e0-4732-9d70-76b97b007637" x1="1012.53" y1="728.24" x2="833.86" y2="728.24"/>
    <polyline class="uuid-103646ee-5fce-4b72-b3d1-3d650d5bca6a" points="825.86 728.24 815.89 728.24 815.89 718.27"/>
    <line class="uuid-3ca75068-4971-4e4d-9a12-5a42223ae679" x1="815.89" y1="704.31" x2="815.89" y2="515.96"/>
    <polyline class="uuid-103646ee-5fce-4b72-b3d1-3d650d5bca6a" points="815.89 508.98 815.89 499.01 825.86 499.01"/>
    <line class="uuid-82dfbd6f-87e0-4732-9d70-76b97b007637" x1="841.86" y1="499.01" x2="1020.53" y2="499.01"/>
    <polyline class="uuid-103646ee-5fce-4b72-b3d1-3d650d5bca6a" points="1028.53 499.01 1038.5 499.01 1038.5 508.98"/>
    <line class="uuid-3ca75068-4971-4e4d-9a12-5a42223ae679" x1="1038.5" y1="522.93" x2="1038.5" y2="711.29"/>
  </g>
  <g>
    <rect class="uuid-8ab0fe4a-c97b-4298-ba56-4f71a4f82e6e" x="834.47" y="517.64" width="185.37" height="63.96"/>
    <rect class="uuid-8ab0fe4a-c97b-4298-ba56-4f71a4f82e6e" x="834.47" y="581.6" width="185.37" height="63.96"/>
    <g>
      <rect class="uuid-87e72d33-4f01-45a0-a38f-ae23186094a9" x="854.33" y="545.01" width="101.78" height="11.72"/>
      <circle class="uuid-87e72d33-4f01-45a0-a38f-ae23186094a9" cx="993.37" cy="550.87" r="5.86"/>
    </g>
    <g>
      <circle class="uuid-87e72d33-4f01-45a0-a38f-ae23186094a9" cx="993.37" cy="613.58" r="5.86"/>
      <g>
        <rect class="uuid-87e72d33-4f01-45a0-a38f-ae23186094a9" x="842.95" y="607.98" width="34.47" height="11.72" transform="translate(246.35 1474.03) rotate(-90)"/>
        <rect class="uuid-87e72d33-4f01-45a0-a38f-ae23186094a9" x="864.63" y="607.98" width="34.47" height="11.72" transform="translate(268.02 1495.71) rotate(-90)"/>
      </g>
    </g>
    <rect class="uuid-8ab0fe4a-c97b-4298-ba56-4f71a4f82e6e" x="834.47" y="645.62" width="185.37" height="63.96"/>
    <g>
      <rect class="uuid-87e72d33-4f01-45a0-a38f-ae23186094a9" x="854.33" y="671.74" width="101.78" height="11.72"/>
      <circle class="uuid-87e72d33-4f01-45a0-a38f-ae23186094a9" cx="993.37" cy="677.6" r="5.86"/>
    </g>
  </g>
  <g>
    <line class="uuid-04df9de1-c9f1-49f9-b5fc-9b8459c21e70" x1="834.47" y1="771.78" x2="1019.85" y2="771.78"/>
    <circle class="uuid-3bc850bb-8c07-4f35-b01a-08ad155bad04" cx="927.16" cy="771.78" r="10.66"/>
  </g>
  <g>
    <line class="uuid-103646ee-5fce-4b72-b3d1-3d650d5bca6a" x1="716.05" y1="380.73" x2="716.05" y2="391.59"/>
    <line class="uuid-96cbc8a3-a8db-4ccf-97e6-27f9e143ce23" x1="716.05" y1="408.45" x2="716.05" y2="754.04"/>
    <polyline class="uuid-103646ee-5fce-4b72-b3d1-3d650d5bca6a" points="716.05 762.47 716.05 773.33 705.19 773.33"/>
    <line class="uuid-8f700ddf-cccd-434c-8e06-d052332db339" x1="689.64" y1="773.33" x2="407.2" y2="773.33"/>
    <polyline class="uuid-103646ee-5fce-4b72-b3d1-3d650d5bca6a" points="399.42 773.33 388.56 773.33 388.56 762.47"/>
    <line class="uuid-27497a1e-3e44-402f-88bb-e08b1e48c148" x1="388.56" y1="745.42" x2="388.56" y2="356.21"/>
    <polyline class="uuid-103646ee-5fce-4b72-b3d1-3d650d5bca6a" points="388.56 347.68 388.56 336.82 399.42 336.82"/>
    <line class="uuid-dfafa772-db25-41f7-aaa4-d660f6b2ea94" x1="416.6" y1="336.82" x2="488.17" y2="336.82"/>
    <line class="uuid-103646ee-5fce-4b72-b3d1-3d650d5bca6a" x1="496.75" y1="336.82" x2="507.61" y2="336.82"/>
  </g>
  <g>
    <rect class="uuid-5669b940-c86d-4df7-93b3-293558a0110f" x="408.88" y="357.14" width="286.83" height="98.97"/>
    <rect class="uuid-5669b940-c86d-4df7-93b3-293558a0110f" x="408.88" y="456.11" width="286.83" height="98.97"/>
    <rect class="uuid-5669b940-c86d-4df7-93b3-293558a0110f" x="408.88" y="555.07" width="286.83" height="98.97"/>
    <rect class="uuid-5669b940-c86d-4df7-93b3-293558a0110f" x="408.88" y="654.04" width="286.83" height="98.97"/>
    <g>
      <rect class="uuid-01fa0b4f-42dd-4846-a600-b9660955d430" x="439.61" y="399.5" width="157.49" height="18.13"/>
      <circle class="uuid-3bc850bb-8c07-4f35-b01a-08ad155bad04" cx="654.74" cy="408.56" r="9.07"/>
    </g>
    <circle class="uuid-3bc850bb-8c07-4f35-b01a-08ad155bad04" cx="654.74" cy="604.56" r="9.07"/>
    <circle class="uuid-3bc850bb-8c07-4f35-b01a-08ad155bad04" cx="654.74" cy="703.53" r="9.07"/>
    <circle class="uuid-3bc850bb-8c07-4f35-b01a-08ad155bad04" cx="654.74" cy="505.82" r="9.07"/>
    <g>
      <rect class="uuid-01fa0b4f-42dd-4846-a600-b9660955d430" x="422" y="496.53" width="53.34" height="18.13" transform="translate(-56.92 954.26) rotate(-90)"/>
      <rect class="uuid-01fa0b4f-42dd-4846-a600-b9660955d430" x="455.54" y="496.53" width="53.34" height="18.13" transform="translate(-23.38 987.8) rotate(-90)"/>
    </g>
  </g>
  <line class="uuid-04df9de1-c9f1-49f9-b5fc-9b8459c21e70" x1="358.41" y1="829.22" x2="745.11" y2="829.22"/>
  <circle class="uuid-3bc850bb-8c07-4f35-b01a-08ad155bad04" cx="551.76" cy="829.22" r="15.08"/>
  <rect class="uuid-01fa0b4f-42dd-4846-a600-b9660955d430" x="439.61" y="595.52" width="157.49" height="18.13"/>
  <rect class="uuid-01fa0b4f-42dd-4846-a600-b9660955d430" x="439.61" y="694.91" width="157.49" height="18.13"/>
  <path class="uuid-9df0456d-dded-467d-bc64-3dc8dc1ced73" d="M370.69,234.35c0,16.22,13.2,29.42,29.42,29.42h216.15c16.22,0,29.42-13.2,29.42-29.42,0-16.22-13.2-29.42-29.42-29.42-2.5,0-5.02.33-7.49.98-6.31-16.89-22.54-28.18-40.62-28.18-3.54,0-7.08.44-10.53,1.3-4.2-14.72-14.18-28.05-28.19-37.61-14.44-9.86-32.64-15.29-51.23-15.29-45.06,0-81.71,31.03-81.71,69.16,0,3.27.27,6.56.82,9.79-15,1.42-26.62,14.1-26.62,29.25Z"/>
  <rect class="uuid-7dbb240b-4b84-46b4-8e85-a83c6bd890c9" x="704.64" y="370.67" width="30.4" height="24.36"/>
  <path class="uuid-9df0456d-dded-467d-bc64-3dc8dc1ced73" d="M962.47,278.13c.95-5.66,1.43-11.41,1.43-17.13,0-66.69-64.1-120.95-142.9-120.95-32.51,0-64.33,9.49-89.59,26.73-24.49,16.72-41.95,40.03-49.29,65.77-6.03-1.51-12.22-2.27-18.42-2.27-31.62,0-59.99,19.74-71.03,49.27-4.32-1.14-8.72-1.72-13.1-1.72-28.37,0-51.45,23.08-51.45,51.45s23.08,51.45,51.45,51.45h377.98c28.37,0,51.45-23.08,51.45-51.45,0-26.5-20.32-48.66-46.54-51.16Z"/>
  <path class="uuid-3bc850bb-8c07-4f35-b01a-08ad155bad04" d="M192.18,599.1c5.04,1.8,7.92,1.25,11.09.94,6.02-.58,7.66-3.58,8.42-4.99s5-4.83,5.43-7.3c.43-2.47,6.4-11.8,6.4-11.8-8.38,23.72-5.51,41.02.11,55.12,0,0-14.19-1.41-24.77-4.88l-9.75-4.26-3.31-1.79s-.29-8.73,6.31-20.85"/>
  <path class="uuid-df61a253-432a-43da-ad49-680d66942650" d="M87.8,938.5s-7.49,33.84-7.78,74.52h11.4s-1.12-46.36,15.42-74.52c16.54-28.16,0,0,0,0h-19.04"/>
  <path class="uuid-e95d1662-8b8f-4178-a6b9-f5e7363ab86e" d="M190.1,992.51s-1.02,8.77-2.92,20.51"/>
  <path class="uuid-e95d1662-8b8f-4178-a6b9-f5e7363ab86e" d="M264.02,925.01s13.06,45.15,23.37,88.01"/>
  <path class="uuid-4925c2b9-dbd6-4f47-9867-91c6c3e87dd3" d="M198.87,626.19s-11.23-4.5-13.06-6.05c0,0,1.93-12.21,6.31-20.85,0,0,8.06,3.95,12.73,3.02,4.66-.93,10.55-3.04,11.97-10.32,0,0,.32-5.98,4.13-11.97l10.28-16.14s3.99-5.29,1.47-13.79l7.87-20.03-4.01-34.96-36.07-11.33-35,23.47h-29.35l-4.92,20.83,2.99,40.41,2.37,22.82-2.37,26.38-11.85,2.09s.56,1.84,3.26,3.34c2.7,1.5,25.94,12.43,44.94,12.78,19,.35,26.43-.33,28.31-9.72Z"/>
  <path class="uuid-797047c9-3a6f-41c6-a952-48a9477c83fd" d="M175.34,591.99c-2.27-1.08-4.53-2.19-6.63-3.59-4.4-2.94-7.95-7.09-10.39-11.79-1.65-3.16-2.8-6.58-3.43-10.09,0,0-2.88,17.87,19.92,33.74l-9.33,39.24s25.79,7.62,35-8.43l-.56-4.88c-9.02-2.9-14.12-6.05-14.12-6.05.76-4.81,1.7-8.72,2.62-11.79"/>
  <path class="uuid-87e72d33-4f01-45a0-a38f-ae23186094a9" d="M274.1,917.69s-27.29-80.06-29.83-102.21c0,0,1.43-30.34-.56-40.55,0,0,28.95-35.84,6.03-91.73,0,0,7.05-16.44-6.89-44.21,0,0-2.14-6.58-25.33-8.53l-18.65-4.27s.81,10.48-19.44,9.47c0,0-37.24,1.95-57.07-15.87l-9.4.35-47.26,9.75s-18.17,1.23-20.93,13.76c0,0-5.9,21.46-3.04,33.78,2.86,12.32,7.34,24.12,7.34,24.12,0,0,2.57-38.37,3.12-47.51.55-9.14,8.94-17.59,16.37-18.13,0,0,25.02,23.6,33.96,53.7l2.44,7.07,3.73,92.88-15.84,72.34s-10.98,41.73-11.68,75.86c0,0,54.52,5.01,100.03,0,0,0,67.66-5.86,86.74-14.18,0,0,7.48-1.94,6.15-5.89Z"/>
  <path class="uuid-4925c2b9-dbd6-4f47-9867-91c6c3e87dd3" d="M244.27,815.49l10.55,9.98s5.54.23,9.81-2.07c4.27-2.29,21.68-14.8,34.2-26.19,12.52-11.4,35.84-32.78,35.84-32.78,0,0,5.73-6.28,16.04-7.27,10.3-.99,20.8-1.64,20.8-1.64,0,0,4.42-.12,5.35-3.8s11.47-12.47,11.47-12.47c0,0,8.41-3.64,9.22-5.69.81-2.05,1.57-4.5-.93-5.3l-62.86,9.41-12.46.89s-2.52,3.89-2.3,7.02c0,0-25.19,18.34-46.91,26.5l-12.92-44.91s-.21,31.31-15.46,47.77c0,0,1.61,34.45.56,40.55Z"/>
  <path class="uuid-5fc6a959-6dfb-439f-9c76-f9455e820552" d="M244.27,815.49s8.04,9.62,11.77,10.48c3.73.86,16.05-6.02,24.37-12.61,8.31-6.59,37.84-33.83,45.87-41.28"/>
  <path class="uuid-600477b1-c100-49b7-83c1-ec8ad907a928" d="M198.87,626.19c5.37,1.98,11.92,3.8,18.65,4.27,16.44,1.15,24.47,5.16,27.34,11.75,0,0,10.06,24.37,4.88,40.99,0,0,23.21,55.33-6.03,91.73.6,9.43,1.31,18.87.94,28.33-.18,4.42-.92,8.79-.46,13.21.46,4.44,1.64,8.77,2.83,13.06,1.2,4.31,2.41,8.62,3.62,12.92,3.56,12.63,7.19,25.23,10.95,37.8,3.27,10.91,6.47,21.92,10.48,32.59.62,1.64,1.24,3.28,2.02,4.85,6.31,12.61-127.56,28.38-192.92,20.07,0,0-.01-37.13,13.17-80.99"/>
  <path class="uuid-c00d05a4-4f2b-47f2-aa87-859594e64e04" d="M112.66,801.24c-.16-7.17,4.62-35.98,1.91-71.45-1.43-18.67-7.8-26.77-9.6-33.11,0,0,8.59,117.97-8.85,153.74l-1.77,6.35c-13.19,43.86-13.17,80.99-13.17,80.99,5.14.65,10.69,1.16,16.57,1.53,0,0-3.24-49.96,10.98-98.7l3.93-39.35Z"/>
  <path class="uuid-4925c2b9-dbd6-4f47-9867-91c6c3e87dd3" d="M68.56,635.91s26.7,26.18,36.41,60.77c0,0,.55,52.54,1.88,67.12l1.85,25.76s11.1-2.42,15.88-4.71c4.78-2.29,28.98-16.44,37.87-22.49,8.89-6.05,34.67-23.16,34.67-23.16l13.37,21.53s-11.42,12.02-21.53,23.49c0,0-19.53,21.93-27.7,28.71,0,0-16.62,13.83-25.44,18.28,0,0-17.96,8.7-22.79,12.05,0,0-8.41,6.21-13.86,10.92,0,0-8.3,8.08-18.31-2.2,0,0-11.39-11.71-17.07-40.66,0,0-11.01-50.4-12.56-76.53,0,0-3.31-33.34-.99-57.86,0,0-1.21-28.76,9.59-36.85,0,0,4.65-3.64,8.73-4.19Z"/>
  <path class="uuid-5fc6a959-6dfb-439f-9c76-f9455e820552" d="M326.27,772.07c8.03-7.45,13.76-12.9,18.92-14.05"/>
  <path class="uuid-3bc850bb-8c07-4f35-b01a-08ad155bad04" d="M244.27,487.04c-3.48-8.8-7.85-13.57-12.46-15.67,0,0-40.69-26.37-63.03-19.88,0,0-2.51,1.91-8.98,4.97,0,0-15.27.38-21.76,7.26-6.5,6.88-35.06,27.65-50.4,161.17l33.09-4.92c-.63-1.98,0,0,0,0,8.95-.97,14.6-1.3,14.6-1.3,4-9.11,7.26-18.55,9.74-28.18,1.11-4.31,2.07-8.68,2.46-13.11.79-8.91-1.14-26.19-2.64-35.03-5.38-3.59-11.43-11.68-10.67-21.54.2-2.65,1.6-5.29,3.75-6.84,2.18-1.58,5.23-1.58,7.71-.52,2.47,1.06,4.45,3.04,6.06,5.2.48.63.96,1.31,1.67,1.66.61.3,1.32.31,2,.27,2.1-.11,4.81-.96,6.72-1.85l3.36-2.2c1.28-1.18,2.73-2.97,3.57-4.49,2.29-4.13,2.82-9.22,5.89-12.82,2.09-2.44,5.1-3.88,8.1-5.05,10.05-3.92,20.96-5.62,31.73-4.93,2.22.14,4.46.4,6.63.87l.14-.25c4.34.89,8.71,2.65,11.01,6.07,0,.01.02.03.03.04,1.14,1.22,1.21,1.17,1.86,2.71l.65,1.35c2.12,4.71,1.04,10.15,1.08,15.31.03,3.9.74,7.8,2.08,11.47.58,1.58,1.29,3.25.94,4.9-.32,1.55-1.5,2.75-2.49,3.98-.71.89-1.33,1.85-1.86,2.85-.13,2.58-2.07,5.82-2.21,7.94-.35,5.37,1.13,8.07,1.13,8.07,0,0,25.01-30.8,10.5-67.49Z"/>
  <path class="uuid-12626b5e-71f0-4228-b210-cbf6759bb541" d="M162.12,518.72c-1.9.89-4.62,1.74-6.72,1.85-.68.04-1.39.03-2-.27-.71-.35-1.19-1.02-1.67-1.66-1.62-2.15-3.59-4.14-6.06-5.2-2.47-1.06-5.52-1.06-7.71.52-2.15,1.56-3.55,4.19-3.75,6.84-1.14,14.86,13.17,25.7,17.36,23.19"/>
  <path class="uuid-600477b1-c100-49b7-83c1-ec8ad907a928" d="M120.72,619.97c-13.5,1.47-34.51,4.4-55.03,9.92,0,0-17.77.29-20.93,13.76-3.15,13.47-8.31,29.53,4.3,57.91"/>
  <path class="uuid-aed22838-5149-42e6-a7d1-2cdc39485256" d="M135.31,618.67s-5.64.32-14.59,1.3"/>
  <path class="uuid-12626b5e-71f0-4228-b210-cbf6759bb541" d="M144.87,542.32c1.5,8.82,3.43,26.14,2.64,35.06-.39,4.44-1.35,8.8-2.46,13.11-2.48,9.64-5.74,19.07-9.74,28.18"/>
  <path class="uuid-3bc850bb-8c07-4f35-b01a-08ad155bad04" d="M233.7,554.35c-3.14-6.53-1.6-15.04,3.23-20.46,1.58-1.83,1.67-3.47.78-5.66-1.73-4.44-2.63-9.43-2.31-14.22.12-2.4.43-4.73.51-7.06.1-2.33-.05-4.67-.82-6.93,1.18,2.08,1.63,4.53,1.8,6.91.16,2.4.05,4.78.07,7.11.02,4.65.9,9.17,2.63,13.52.39,1.14.8,2.46.62,3.92-.2,1.49-1.03,2.67-1.8,3.59-4.78,5.13-6.54,12.4-4.7,19.28h0Z"/>
  <g class="uuid-ea78dbb7-3e58-4628-8285-62d0b7effc4e">
    <g>
      <path class="uuid-0a66d888-7bc6-49df-9ab4-e5583f9b0397" d="M239.02,542.03c-9.68,2.92-15.01-2.29-15.24-2.52-.18-.18-.18-.48,0-.66.18-.18.48-.18.66,0,.05.05,5.54,5.38,15.27,1.97.24-.08.51.04.6.29s-.04.51-.29.6c-.34.12-.67.23-1,.33Z"/>
      <path class="uuid-0a66d888-7bc6-49df-9ab4-e5583f9b0397" d="M228.52,541.85c-.17.53-.19,1.12-.01,1.7.46,1.52,2.07,2.39,3.59,1.93,1.31-.4,2.13-1.64,2.04-2.96-2.26.17-4.14-.17-5.62-.67Z"/>
    </g>
  </g>
  <path class="uuid-aed22838-5149-42e6-a7d1-2cdc39485256" d="M211.32,557.9c.05,1.35.22,2.74.88,3.92s1.9,2.12,3.25,2.07"/>
  <path class="uuid-12626b5e-71f0-4228-b210-cbf6759bb541" d="M228.56,552.34c2.9.7,5.87,1.4,8.84,1.09,2.97-.3,5.99-1.81,7.31-4.49.59-1.21.83-2.63,1.72-3.64.99-1.13,2.71-1.68,3.19-3.1.61-1.82-1.27-3.49-3.01-4.31-6.49-3.03-14-2.51-21.12-1.79"/>
  <g>
    <path class="uuid-3bc850bb-8c07-4f35-b01a-08ad155bad04" d="M239.42,528.78c-.21-.37-.75-.96-.81-1.02-.12-.13-.29-.18-.46-.15-2.79.53-5.59,1.2-8.31,2-.23.07-.38.28-.36.52.04.5.25,2.14,1.2,2.39.11.03.21.04.31.04.19,0,.35-.04.49-.07l6.63-1.45c.1-.02.18-.07.25-.14,1.42-1.47,1.16-1.93,1.05-2.12Z"/>
    <path class="uuid-3bc850bb-8c07-4f35-b01a-08ad155bad04" d="M221.78,526.09c-7.77-3.27-16.57-4.04-24.79-2.16-.16.04-.3.16-.36.31-.06.16-.03.34.07.47.78,1.04,2.28.96,3.18.91,7.7-.42,15.46,2.26,22.3,4.62.05.02.11.03.16.03.09,0,.17-.02.25-.07.12-.07.21-.19.24-.33l.07-.34c.33-.89.6-2.01-.12-2.8-.3-.34-.71-.51-1-.63Z"/>
  </g>
  <path class="uuid-00a045b8-3acb-4f00-9b35-5cdc334446d6" d="M194.3,568.5c2.58,4.51,6.39,8.2,10.78,10.99,1.58,1,3.3,1.88,5.16,2.06,1.86.18,6.28-.08,6.57-4.15,0,0-8.86,1.91-16.68-3.46l-5.83-5.44Z"/>
  <path class="uuid-1aba3ee7-13c7-4fc8-90f7-a454ce4e9f01" d="M194.3,568.5c2.38,2.39,5.66,3.88,9.03,4.11,2.63.18,5.34-.38,7.87.34.91.26,1.8.68,2.74.71.83.03,1.65-.26,2.47-.37s1.77-.01,2.32.61c.6.64.48,1.45.03,2.14-.94,1.43-2.38,1.42-3.91,1.44-.88.01-1.77-.01-2.65-.07s-1.77-.15-2.66-.26c-.81-.1-1.65-.23-2.45-.47-.86-.25-1.66-.66-2.47-1.02-1.03-.45-2.05-.92-3.06-1.42-.82-.41-1.67-.83-2.41-1.38l-4.85-4.37Z"/>
  <g>
    <path class="uuid-0a66d888-7bc6-49df-9ab4-e5583f9b0397" d="M211.1,538.47c-9.68,2.92-15.01-2.29-15.24-2.52-.18-.18-.18-.48,0-.66.18-.18.48-.18.66,0,.05.05,5.54,5.38,15.27,1.97.24-.08.51.04.6.29s-.04.51-.29.6c-.34.12-.67.23-1,.33Z"/>
    <path class="uuid-0a66d888-7bc6-49df-9ab4-e5583f9b0397" d="M200.61,538.29c-.17.53-.19,1.12-.01,1.7.46,1.52,2.07,2.39,3.59,1.93,1.31-.4,2.13-1.64,2.04-2.96-2.26.17-4.14-.17-5.62-.67Z"/>
  </g>
  <path class="uuid-600477b1-c100-49b7-83c1-ec8ad907a928" d="M120.71,619.97s17.56,13.36,44.76,15.37c27.21,2.01,33.55-1.95,33.39-9.14"/>
  <path class="uuid-70e83adb-f364-42d1-8591-3cc56ef83adf" d="M209.12,489.09s-8.98,21-40.07,22.93c0,0-4.06-14.69,4.04-19.74,8.1-5.05,23.19-4.32,36.03-3.19Z"/>
  <path class="uuid-4925c2b9-dbd6-4f47-9867-91c6c3e87dd3" d="M191.25,743.12s8.29-5.47,10.69-8.34c2.4-2.86,18.63-24.13,21.69-28.46,3.06-4.34,6.26-6.64,10.24-7.07,3.98-.43,22.87-1.62,24.55-1.42,1.68.19,6.21,2.2,6.21,2.2,0,0,3.98-1.35,4.57-.39s0,4.5,0,4.5c0,0,5.19,2.15,6.72,4.2s3.92,5.91,3.92,5.91c0,0,9.13,3.21,8.98,4.73-.15,1.51-.53,4.98-8.98,4.95,0,0,5.65,4.79,3.85,7.63l-5.82,1.05s-6.17-5.92-9.01-9.22c-2.84-3.3-9.32-5.76-9.32-5.76,0,0-5.71,2.83-8.37,5.76-2.66,2.93-6.89,14.19-6.89,14.19l-17.14,2.95,9.83,2.59s-4.2,6.7-12.83,10.5c0,0-14.39,4.96-19.29,11.69l-13.58-22.2Z"/>
  <path class="uuid-5fc6a959-6dfb-439f-9c76-f9455e820552" d="M220.34,755.16c8.47-2.87,21.65-11.47,26.24-24.37.89-2.51,1.87-4.53,2.86-6.15,0,0,8.89-6.46,9.94-7.23,1.17-.85,5.25,2.47,6.1,3.07"/>
  <path class="uuid-5fc6a959-6dfb-439f-9c76-f9455e820552" d="M104.97,696.68c-12.9-40.42-36.41-60.77-36.41-60.77,0,0-14.91,1.72-16.91,21.79-2.01,20.07-1.43,28.38-2.01,36.12-.57,7.74.57,39.85,4.01,61.92,3.44,22.07,10.89,65.36,16.63,79.12,5.73,13.76,17.2,30.39,30.39,18.06,13.19-12.33,25.8-16.63,32.68-20.35"/>
  <path class="uuid-5fc6a959-6dfb-439f-9c76-f9455e820552" d="M104.97,696.68s.64,39.56,1.47,56.47c.83,16.91,2.55,31.53,2.26,36.41"/>
  <path class="uuid-5fc6a959-6dfb-439f-9c76-f9455e820552" d="M235.3,728.48s5.35-4.66,5.92-7.62c0,0,8.41-4.2,9.94-5.35,1.53-1.15,6.21-3.34,7.26-4.01s13-5.06,11.37-10.89c0,0-.29-2.68-5.16-.57-4.87,2.1-10.51,5.16-13,6.02-2.48.86-8.7,2.77-10.89,4.49"/>
  <path class="uuid-5fc6a959-6dfb-439f-9c76-f9455e820552" d="M252.21,715.7s10.22,0,17.2,2.96c6.98,2.96,12.97,5.35,16.18,4.59,3.21-.76,4.36-4.68,1.88-5.73-2.48-1.05-9.75-4.27-12.52-5.15-2.77-.87-10.4-4.03-10.4-4.03"/>
  <path class="uuid-5fc6a959-6dfb-439f-9c76-f9455e820552" d="M279.83,714.25s-3.16-5.72-5.74-7.82c-2.58-2.1-4.89-2.29-4.89-2.29"/>
  <path class="uuid-5fc6a959-6dfb-439f-9c76-f9455e820552" d="M229.47,707.67s19.49-1.05,22.17-1.62"/>
  <path class="uuid-3bc850bb-8c07-4f35-b01a-08ad155bad04" d="M235.09,500.01c-3.39-6.59-10.78-9-17.71-9.5-10.57-.78-21.28.54-31.33,3.9-3.35,1.12-6.71,2.31-9.27,4.42-2.57,2.09-3.84,5.45-5.15,8.8-1.26,3.38-3.24,6.67-6.15,8.89,3.98-3.98,4.65-9.48,6.66-14.52,2.09-5.51,7.89-8.18,13.07-9.99,3.44-1.24,6.98-2.2,10.57-2.91,12.19-2.09,34.21-3.32,39.31,10.91h0Z"/>
  <path class="uuid-aed22838-5149-42e6-a7d1-2cdc39485256" d="M224.71,539.8c1.38,5.86,2.77,11.72,4.15,17.58.36,1.52.71,3.16.1,4.59-.58,1.36-1.97,2.27-3.43,2.5-1.46.24-2.97-.13-4.29-.78"/>
  <path class="uuid-12626b5e-71f0-4228-b210-cbf6759bb541" d="M197.62,529.66c-1.28,3.98-2.31,7.69-3.59,11.67-.24.75-.48,1.55-.28,2.31.19.69.72,1.23,1.27,1.7,5.57,4.81,13.68,5.52,20.91,4.16.88-.16,1.76-.36,2.54-.79,1.89-1.04,2.81-3.22,3.59-5.23.88-2.27,1.76-4.54,2.64-6.81.14-.36.28-.76.16-1.13-.15-.43-.6-.66-1.02-.84-8.23-3.56-17.25-5.29-26.22-5.03"/>
  <polyline class="uuid-c00d05a4-4f2b-47f2-aa87-859594e64e04" points="213.04 741.71 280.4 732.8 337.41 725.41 334.67 732.8"/>
  <path class="uuid-5fc6a959-6dfb-439f-9c76-f9455e820552" d="M265.48,720.48c2.65,1.88,4.78,4.35,6.98,6.71,2.15,2.3,4.15,4.38,7.38,5.03,2.05.41,5.26-.26,4.52-3.03-.36-1.37-1.96-2.74-2.91-3.71-1.36-1.39-2.54-2.45-4.07-3.65"/>
  <polygon class="uuid-c00d05a4-4f2b-47f2-aa87-859594e64e04" points="213.04 746.85 332.86 737.67 334.68 731.56 213.04 741.71 213.04 746.85"/>
  <polyline class="uuid-70e83adb-f364-42d1-8591-3cc56ef83adf" points="332.86 737.67 383.03 602.32 469.31 604.95 421.15 724.64 332.86 737.67"/>
  <path class="uuid-4925c2b9-dbd6-4f47-9867-91c6c3e87dd3" d="M369.68,756.16c.23,0,5.61.1,7.71-4.26,1.47-3.04,6.25-7.5,9.12-10.17,1.03-.96,1.84-1.71,2.28-2.19.24-.26.55-.52.9-.82.09-.08.19-.16.29-.25.97-.31,8.95-2.99,8.95-6.96,0-.06,0-1.5-1.02-2.51-.53-.53-1.22-.81-2.07-.91.54-1.86,1.05-4.06,1.51-6.69.03-.15,2.73-15.39,3.16-19.23.02-.15-.04-.29-.16-.38-.07-.06-1.72-1.36-3.98-.17.06-.96.06-1.79-.02-2.42-.02-.16-.12-.29-.27-.35-.12-.05-2.91-1.12-5.46.1-1.54.74-2.65,2.15-3.28,4.18l-1.86,5.45c-.05.15,0,.31.09.42-1.51-.19-3.37.15-5.4,1.82-.05.04-.09.09-.11.14-.03.06-3.04,6.17-4.88,10.95l-2.01,4.69c-.03.08-.03.16-.02.24-1.09.15-2.29.54-3.6,1.33l-6.1,5.53-8.03,2.68"/>
  <path class="uuid-5fc6a959-6dfb-439f-9c76-f9455e820552" d="M385.75,708.72l1.86-5.45c2.01-6.45,8.17-4.01,8.17-4.01.72,5.59-4.87,26.66-4.87,26.66"/>
  <path class="uuid-5fc6a959-6dfb-439f-9c76-f9455e820552" d="M373.42,726.78l2.01-4.69c1.86-4.83,4.87-10.93,4.87-10.93,3.21-2.64,5.92-1.8,7.4-.92.75.45,1.05,1.38.73,2.19-2.01,5.19-9.28,22.38-9.28,22.38"/>
  <path class="uuid-5fc6a959-6dfb-439f-9c76-f9455e820552" d="M352.78,737.67l10.75-3.58,6.16-5.59c5.73-3.44,9.32.86,9.32.86-.29,1.72-14.48,13.04-14.48,13.04"/>
  <path class="uuid-5fc6a959-6dfb-439f-9c76-f9455e820552" d="M345.19,758.03c5.16-1.15,20.07-2.29,24.37-2.29,0,0,5.3.14,7.31-4.01,2.01-4.16,9.75-10.61,11.47-12.47,1.72-1.86,5.88-3.15,8.46-17.92,0,0,2.72-15.34,3.15-19.21,0,0-1.58-1.29-3.73,0"/>
  <path class="uuid-5fc6a959-6dfb-439f-9c76-f9455e820552" d="M389.62,738.09s8.74-2.71,8.74-6.58c0,0,0-3.05-3.22-3.03"/>
  <g>
    <path class="uuid-5fc6a959-6dfb-439f-9c76-f9455e820552" d="M195.73,775.91c1.91-2.42,3.86-4.94,5.84-7.57,0,0,10.3-10.32,18.77-13.19"/>
    <path class="uuid-5fc6a959-6dfb-439f-9c76-f9455e820552" d="M133.34,832.56c5.53-2.99,23.07-11.91,48.34-39.96"/>
    <path class="uuid-5fc6a959-6dfb-439f-9c76-f9455e820552" d="M181.68,792.6c4.45-4.94,9.14-10.48,14.05-16.69"/>
  </g>
  <path class="uuid-797047c9-3a6f-41c6-a952-48a9477c83fd" d="M272.09,772.07s-11.88,12.33-12.78,20.53c0,0,19.67-21.2,54.88-43.67,0,0-23.63,16.1-42.11,23.14Z"/>
  <path class="uuid-797047c9-3a6f-41c6-a952-48a9477c83fd" d="M110.1,789.24c-.77.19-1.84,1.45-2.42,1.94-2.02,1.71-3.95,3.54-5.77,5.47-4.53,4.8-8.4,10.24-10.25,16.65.86-2.96,4.71-6.28,6.9-8.3,2.77-2.54,5.85-4.72,9.05-6.68,6.76-4.16,35.13-21.21,41.99-26.34,5.04-3.78,10.02-7.73,15.25-11.25,0,0-27.46,17.39-38.1,22.61-.36.17-.7.32-1.07.46-2.38.92-11.78,4.53-15.59,5.44Z"/>
  <path class="uuid-f543b145-4cb3-4c22-aab8-c039cbcce2d1" d="M51.65,657.69c2.01-20.07,16.91-21.79,16.91-21.79,0,0,23.51,20.35,36.41,60.77,0,0,.04,2.59.12,6.74,0,0-19.39-50.84-49.45-47.71-1.52.16-2.93.88-3.98,1.99h0Z"/>
  <path class="uuid-797047c9-3a6f-41c6-a952-48a9477c83fd" d="M185.8,622.84c1.04-11.62,6.31-23.55,6.31-23.55-5.67-2.25-11.27-4.69-16.77-7.3"/>
  <path class="uuid-70e83adb-f364-42d1-8591-3cc56ef83adf" d="M195.86,534.18c-1.9-.97-3.83-1.87-5.76-2.78-7.65-3.6-15.29-7.21-22.94-10.81-5.04-2.38-11.1-4.36-16.58-3.34l-1.93-1.92c3.38-1.67,6.8-1.32,9.95-.78,13.56,2.34,26.46,9.13,38.94,14.92"/>
</svg>