<?xml version="1.0" encoding="utf-8"?>
<!-- Generator: Adobe Illustrator 25.0.0, SVG Export Plug-In . SVG Version: 6.00 Build 0)  -->
<svg version="1.1" id="Layer_1" xmlns="http://www.w3.org/2000/svg" xmlns:xlink="http://www.w3.org/1999/xlink" x="0px" y="0px"
	 width="1080px" height="737px" viewBox="0 0 1080 737" style="enable-background:new 0 0 1080 737;" xml:space="preserve">
<style type="text/css">
	.st0{fill:none;}
	.st1{fill:#E80000;}
	.st2{fill:none;stroke:#EA1E25;stroke-width:28;stroke-miterlimit:10;}
	.st3{fill:url(#SVGID_1_);}
	.st4{fill:url(#SVGID_2_);}
	.st5{fill:url(#SVGID_3_);}
	.st6{fill:url(#SVGID_4_);}
	.st7{fill:url(#SVGID_5_);}
	.st8{fill:url(#SVGID_6_);}
	.st9{fill:url(#SVGID_7_);}
	.st10{fill:url(#SVGID_8_);}
	.st11{fill:url(#SVGID_9_);}
	.st12{fill:url(#SVGID_10_);}
	.st13{fill:url(#SVGID_11_);}
	.st14{fill:url(#SVGID_12_);}
	.st15{fill:url(#SVGID_13_);}
	.st16{fill:#EE0000;}
	.st17{fill:#FFFFFF;}
	.st18{fill:none;stroke:#EE0000;stroke-width:2;stroke-linecap:round;stroke-linejoin:round;}
	.st19{fill:#EE0000;stroke:#EE0000;stroke-width:2;stroke-linecap:round;stroke-linejoin:round;}
	.st20{fill:#FFFFFF;stroke:#EE0000;stroke-width:2;stroke-linecap:round;stroke-linejoin:round;}
	.st21{fill:url(#SVGID_14_);}
	.st22{fill:url(#SVGID_15_);}
	.st23{fill:#EE0000;stroke:#EE0000;stroke-width:2;stroke-miterlimit:10;}
	.st24{fill:none;stroke:#FFFFFF;stroke-width:2;stroke-linecap:round;stroke-linejoin:round;}
</style>
<pattern  y="894" width="28.8" height="28.8" patternUnits="userSpaceOnUse" id="_10_dpi_20_" viewBox="1.4 -30.2 28.8 28.8" style="overflow:visible;">
	<g>
		<rect x="1.4" y="-30.2" class="st0" width="28.8" height="28.8"/>
		<rect x="1.4" y="-30.2" class="st0" width="28.8" height="28.8"/>
		<path class="st1" d="M30.2-31.7c0.8,0,1.4,0.6,1.4,1.4c0,0.8-0.6,1.4-1.4,1.4c-0.8,0-1.4-0.6-1.4-1.4S29.4-31.7,30.2-31.7
			C30.2-31.7,30.2-31.7,30.2-31.7z"/>
		<path class="st1" d="M15.8-31.7c0.8,0,1.5,0.6,1.5,1.4s-0.6,1.5-1.4,1.5c-0.8,0-1.5-0.6-1.5-1.4c0,0,0,0,0,0
			C14.4-31,15.1-31.7,15.8-31.7z"/>
		<path class="st1" d="M30.2-17.3c0.8,0,1.4,0.6,1.4,1.4c0,0.8-0.6,1.4-1.4,1.4c-0.8,0-1.4-0.6-1.4-1.4S29.4-17.3,30.2-17.3
			C30.2-17.3,30.2-17.3,30.2-17.3z"/>
		<path class="st1" d="M15.8-17.3c0.8,0,1.5,0.6,1.5,1.4s-0.6,1.5-1.4,1.5c-0.8,0-1.5-0.6-1.5-1.4c0,0,0,0,0,0
			C14.4-16.6,15.1-17.3,15.8-17.3z"/>
		<path class="st1" d="M8.6-24.4c0.8,0,1.4,0.6,1.4,1.4c0,0.8-0.6,1.4-1.4,1.4c-0.8,0-1.4-0.6-1.4-1.4c0,0,0,0,0,0
			C7.2-23.8,7.9-24.4,8.6-24.4z"/>
		<path class="st1" d="M23-24.4c0.8,0,1.4,0.6,1.4,1.4c0,0.8-0.6,1.4-1.4,1.4c-0.8,0-1.4-0.6-1.4-1.4S22.2-24.4,23-24.4
			C23-24.4,23-24.4,23-24.4z"/>
		<path class="st1" d="M8.6-10.1c0.8,0,1.4,0.6,1.4,1.4S9.4-7.2,8.6-7.2c-0.8,0-1.4-0.6-1.4-1.4S7.8-10.1,8.6-10.1L8.6-10.1z"/>
		<path class="st1" d="M23-10.1c0.8,0,1.4,0.6,1.4,1.4c0,0.8-0.6,1.4-1.4,1.4c-0.8,0-1.4-0.6-1.4-1.4C21.6-9.4,22.2-10.1,23-10.1
			C23-10.1,23-10.1,23-10.1z"/>
		<path class="st1" d="M1.4-31.7c0.8,0,1.4,0.6,1.4,1.4l0,0c0,0.8-0.6,1.4-1.4,1.4c-0.8,0-1.4-0.6-1.4-1.4C0-31,0.6-31.7,1.4-31.7
			C1.4-31.7,1.4-31.7,1.4-31.7z"/>
		<path class="st1" d="M1.4-17.3c0.8,0,1.4,0.6,1.4,1.4c0,0,0,0,0,0c0,0.8-0.7,1.4-1.4,1.4c-0.8,0-1.4-0.6-1.4-1.4
			C0-16.6,0.6-17.3,1.4-17.3C1.4-17.3,1.4-17.3,1.4-17.3z"/>
		<path class="st1" d="M30.2-2.9c0.8,0,1.4,0.6,1.4,1.4c0,0,0,0,0,0C31.7-0.6,31,0,30.2,0c-0.8,0-1.4-0.6-1.4-1.4
			C28.8-2.2,29.4-2.9,30.2-2.9C30.2-2.9,30.2-2.9,30.2-2.9z"/>
		<path class="st1" d="M15.8-2.9c0.8,0,1.4,0.6,1.4,1.4c0,0,0,0,0,0c0,0.8-0.6,1.4-1.4,1.4c-0.8,0-1.4-0.7-1.4-1.4
			C14.4-2.2,15.1-2.9,15.8-2.9z"/>
		<path class="st1" d="M1.4-2.9c0.8,0,1.4,0.6,1.4,1.4c0,0,0,0,0,0C2.9-0.6,2.2,0,1.4,0C0.6,0,0-0.6,0-1.4c0,0,0,0,0,0
			C0-2.2,0.6-2.9,1.4-2.9C1.4-2.9,1.4-2.9,1.4-2.9z"/>
	</g>
</pattern>
<pattern  y="894" width="201.7" height="201.7" patternUnits="userSpaceOnUse" id="New_Pattern_Swatch_7" viewBox="211.8 -413.6 201.7 201.7" style="overflow:visible;">
	<g>
		<rect x="211.8" y="-413.6" class="st0" width="201.7" height="201.7"/>
		<rect x="211.8" y="-413.6" class="st0" width="201.7" height="201.7"/>
		<line class="st2" x1="615.5" y1="-413.4" x2="413.4" y2="-615.5"/>
		<line class="st2" x1="413.7" y1="-413.4" x2="211.6" y2="-615.5"/>
		<line class="st2" x1="212" y1="-413.4" x2="9.9" y2="-615.5"/>
		<line class="st2" x1="615.5" y1="-211.6" x2="413.4" y2="-413.7"/>
		<line class="st2" x1="413.7" y1="-211.6" x2="211.6" y2="-413.7"/>
		<line class="st2" x1="212" y1="-211.6" x2="9.9" y2="-413.7"/>
		<line class="st2" x1="615.5" y1="-9.9" x2="413.4" y2="-212"/>
		<line class="st2" x1="413.7" y1="-9.9" x2="211.6" y2="-212"/>
		<line class="st2" x1="212" y1="-9.9" x2="9.9" y2="-212"/>
	</g>
</pattern>
<g id="API_Container">
	<pattern  id="SVGID_1_" xlink:href="#_10_dpi_20_" patternTransform="matrix(-0.65 0 0 -0.65 -13175.2041 -15064.5654)">
	</pattern>
	<path class="st3" d="M548.5,409.5v13.9c37.3-3,66.9-32.6,69.9-69.9h-14C601.6,383.1,578.1,406.5,548.5,409.5z"/>
	<pattern  id="SVGID_2_" xlink:href="#_10_dpi_20_" patternTransform="matrix(-0.65 0 0 -0.65 -13175.2041 -15064.5654)">
	</pattern>
	<path class="st4" d="M318.5,148c-0.1-0.1-0.1-0.3-0.2-0.4c-0.2-0.1-0.4-0.1-0.6-0.1c-0.3,0-0.6,0-0.8,0.1c0,0-0.1,0.1-0.2,0.4
		c-0.4,1-0.6,2-0.7,3c-0.2,2-0.3,4-0.3,6.1c0,2,0.1,4,0.3,6c0.1,1.1,0.3,2.1,0.7,3.1c0.1,0.2,0.2,0.3,0.3,0.5l0,0c0.2,0,0.4,0,0.6,0
		c0.2,0,0.4,0,0.6-0.1c0.1-0.2,0.2-0.3,0.3-0.5c0.4-1,0.6-2,0.7-3l0,0c0.2-2,0.3-4,0.3-6c0-2-0.1-4.1-0.3-6.1
		C319.1,150,318.9,149,318.5,148z"/>
	<pattern  id="SVGID_3_" xlink:href="#_10_dpi_20_" patternTransform="matrix(-0.65 0 0 -0.65 -13175.2041 -15064.5654)">
	</pattern>
	<path class="st5" d="M267.1,102.2c0,2,0.1,4,0.3,6c0.1,1.1,0.3,2.1,0.7,3.1c0.1,0.2,0.2,0.3,0.3,0.5l0,0c0.2,0,0.4,0.1,0.6,0.1
		c0.2,0,0.4,0,0.6-0.1c0.1-0.2,0.2-0.3,0.3-0.5c0.4-1,0.6-2,0.7-3.1c0.2-2,0.3-4,0.3-5.9c0-2.2-0.1-4-0.2-5.5
		c-1.2,1.1-2.4,2.2-3.5,3.4C267.1,100.7,267.1,101.4,267.1,102.2z"/>
	<pattern  id="SVGID_4_" xlink:href="#_10_dpi_20_" patternTransform="matrix(-0.65 0 0 -0.65 -13175.2041 -15064.5654)">
	</pattern>
	<path class="st6" d="M548.5,271.6v14c29.6,2.9,53,26.3,55.9,55.9h14C615.4,304.2,585.8,274.6,548.5,271.6z"/>
	<pattern  id="SVGID_5_" xlink:href="#_10_dpi_20_" patternTransform="matrix(-0.65 0 0 -0.65 -13175.2041 -15064.5654)">
	</pattern>
	<path class="st7" d="M627.9,325.6c1.3,5.2,2.2,10.6,2.6,15.9h10.3c-0.3-5.2-1-10.3-2.2-15.4h-7.5
		C630,326.1,628.9,325.9,627.9,325.6z"/>
	<pattern  id="SVGID_6_" xlink:href="#_10_dpi_20_" patternTransform="matrix(-0.65 0 0 -0.65 -13175.2041 -15064.5654)">
	</pattern>
	<path class="st8" d="M591.5,175.4c0,5.8-4.7,10.4-10.5,10.4c0,0,0,0,0,0h-34.8c9.6,2,15.7,11.4,13.7,21c-1.3,6-5.5,10.9-11.3,13
		v17.9c19.2,1,37.8,7.1,53.9,17.5c2.8,1.8,3.6,5.5,1.8,8.3c-1.8,2.8-5.5,3.6-8.3,1.8c-14.2-9.2-30.5-14.6-47.4-15.6v10
		c31.6,2.2,59.6,21.2,73.4,49.8v-2.6c0-5,4.1-9.1,9.1-9.1h20V180.8c0-7.1,5.8-12.9,12.9-12.9c0,0,0,0,0,0h178.7
		c7.1,0,12.9,5.8,12.9,12.9V221h75.2c14.1-36.1,13.4-81.7-12.7-110.9c-42.4-47.3-128-43.2-180-15.8c-34,17.9-65.2,38.6-102.6,49.6
		c-14.3,4.1-29.3,5.5-44.2,4L591.5,175.4z"/>
	<pattern  id="SVGID_7_" xlink:href="#_10_dpi_20_" patternTransform="matrix(-0.65 0 0 -0.65 -13175.2041 -15064.5654)">
	</pattern>
	<path class="st9" d="M652.8,341.5h48.7v-15.4h-50.6C651.8,331.2,652.5,336.4,652.8,341.5z"/>
	<pattern  id="SVGID_8_" xlink:href="#_10_dpi_20_" patternTransform="matrix(-0.65 0 0 -0.65 -13175.2041 -15064.5654)">
	</pattern>
	<path class="st10" d="M761.8,474.3h-60.4V353.5h-48.7c-0.2,4.4-0.7,8.8-1.5,13.1c-0.5,2.9-3,5-5.9,5c-0.3,0-0.7,0-1-0.1
		c-3.3-0.6-5.4-3.7-4.9-6.9c0.6-3.6,1.1-7.3,1.3-11h-10.3c-3.1,43.9-38,78.9-81.9,81.9v9.9c31.2-1.9,59.7-18.5,76.5-44.9
		c1.6-2.9,5.2-4,8.1-2.5c2.9,1.6,4,5.2,2.5,8.1c-0.1,0.3-0.3,0.5-0.5,0.8c-19.1,29.8-51.3,48.5-86.6,50.4v17.9
		c9.2,3.3,14,13.4,10.7,22.6c-2.1,5.8-7,10.1-13,11.3H581c5.8,0,10.4,4.7,10.4,10.4v135.5c0,5.8-4.7,10.4-10.4,10.4h-77
		c-5.8,0-10.4-4.7-10.5-10.4V519.7c0-5.8,4.7-10.4,10.5-10.4h34.8c-9.6-2-15.7-11.4-13.7-20.9c1.3-6,5.5-10.9,11.3-13v-17.9
		c-6.2-0.3-12.4-1.2-18.4-2.5c-3.2-0.7-5.3-3.9-4.5-7.2c0.7-3.2,3.9-5.3,7.2-4.5c5.2,1.2,10.5,1.9,15.8,2.2v-9.9
		c-43.9-3.1-78.9-38-81.9-81.9h-10c1,16.7,6.3,32.9,15.3,47c1.5,3,0.3,6.6-2.7,8.1c-2.5,1.3-5.6,0.6-7.4-1.6
		c-10.3-16-16.3-34.5-17.3-53.5h-51.1v49.8h40.4c7.1,0,12.9,5.8,12.9,12.9v122.2c0,7.1-5.8,12.9-12.9,12.9h-45.4
		c2.3,1.8,3.7,4.6,3.8,7.5h45.4c5,0.2,9,4.4,8.8,9.4c-0.2,4.8-4,8.7-8.8,8.8h-95.4c52.7,54.3,123.5,93.8,191.9,119.5
		c35.1,13.2,76.1,22.5,113.2,12.6c74.1-19.8,74.6-86.3,86.2-148c-1.2-0.2-2.4-0.5-3.6-1c-2.4-1-4.4-2.6-6-4.7
		c-1.7-2.3-2.9-4.8-3.6-7.6c-0.8-3.4-1.2-6.9-1.2-10.3c-0.1-3.6,0.3-7.1,1.2-10.6c0.7-2.8,1.9-5.4,3.6-7.6c1.6-2,3.8-3.6,6.2-4.5
		c2.3-0.8,4.7-1.2,7.1-1.2c2.3,0,4.7,0.4,6.9,1.2c0.6,0.2,1.2,0.5,1.8,0.8c4.4-11.2,10.5-21.7,18.1-31
		C755.1,481,758.4,477.5,761.8,474.3z"/>
	<pattern  id="SVGID_9_" xlink:href="#_10_dpi_20_" patternTransform="matrix(-0.65 0 0 -0.65 -13175.2041 -15064.5654)">
	</pattern>
	<path class="st11" d="M480.6,353.5h-13.9c3,37.3,32.6,66.9,69.9,69.9v-13.9C506.9,406.5,483.5,383.1,480.6,353.5z"/>
	<pattern  id="SVGID_10_" xlink:href="#_10_dpi_20_" patternTransform="matrix(-0.65 0 0 -0.65 -13175.2041 -15064.5654)">
	</pattern>
	<path class="st12" d="M536.5,271.6c-37.3,3-66.9,32.6-69.9,69.9h14c2.9-29.6,26.3-53,55.9-55.9V271.6z"/>
	<pattern  id="SVGID_11_" xlink:href="#_10_dpi_20_" patternTransform="matrix(-0.65 0 0 -0.65 -13175.2041 -15064.5654)">
	</pattern>
	<path class="st13" d="M726.7,531.5c-0.1-1-0.3-2.1-0.7-3.1c-0.1-0.1-0.1-0.3-0.2-0.4c-0.2,0-0.4-0.1-0.6-0.1c-0.3,0-0.6,0-0.8,0.1
		c-0.1,0.1-0.1,0.3-0.2,0.4c-0.4,1-0.6,2-0.7,3c-0.2,2-0.3,4-0.3,6.1c0,2,0.1,4,0.3,6c0.1,1.1,0.3,2.1,0.7,3.1
		c0.1,0.1,0.1,0.3,0.2,0.4c0.8-3.5,1.6-7,2.6-10.4C726.9,534.8,726.9,533.2,726.7,531.5z"/>
	<pattern  id="SVGID_12_" xlink:href="#_10_dpi_20_" patternTransform="matrix(-0.65 0 0 -0.65 -13175.2041 -15064.5654)">
	</pattern>
	<path class="st14" d="M227.6,221h145.9c4.4,0,8,3.6,8,8v112.5h73.1c3.1-43.9,38-78.9,81.9-81.9v-10c-37.2,2.2-69.9,25.4-84.4,59.7
		c-0.9,2.2-3.1,3.7-5.5,3.7c-0.8,0-1.6-0.2-2.3-0.5c-3.1-1.3-4.5-4.8-3.2-7.9c16.3-38.8,53.4-64.8,95.4-67.1v-17.9
		c-9.2-3.3-14-13.5-10.6-22.6c2.1-5.8,7-10,13-11.3H504c-5.8,0-10.4-4.7-10.5-10.4v-69.7C473,90.8,453,75,428.3,67
		c-26.9-8.8-55.9-9.6-83.6-5.1c-22,3.6-43.2,11.6-61.1,24.3c0.9,1.7,1.7,3.5,2.2,5.4c0.9,3.5,1.3,7.1,1.2,10.6
		c0.1,3.5-0.3,7-1.2,10.3c-0.7,2.7-1.9,5.3-3.6,7.6c-1.6,2-3.7,3.6-6,4.6c-2.3,0.9-4.7,1.4-7.1,1.4c-2.4,0-4.8-0.4-7.1-1.4
		c-2.4-1-4.4-2.6-6-4.6c-0.9-1.1-1.6-2.3-2.1-3.6c-0.9,1.4-1.8,2.8-2.7,4.2C233.5,149,225.5,186.5,227.6,221z M334.4,167.5
		c-0.7,2.7-1.9,5.3-3.7,7.6c-1.6,2-3.6,3.6-6,4.6c-4.6,1.8-9.7,1.8-14.2,0c-2.4-1-4.4-2.6-6-4.7c-1.7-2.3-2.9-4.8-3.6-7.6
		c-0.8-3.4-1.2-6.9-1.2-10.4c-0.1-3.6,0.3-7.1,1.1-10.6c0.7-2.8,1.9-5.4,3.6-7.6c1.6-2,3.8-3.6,6.2-4.5c2.3-0.8,4.7-1.2,7.1-1.2
		c2.3,0,4.7,0.4,6.9,1.2c2.4,0.9,4.5,2.4,6.1,4.5c1.7,2.3,3,4.8,3.6,7.6c0.9,3.5,1.3,7.1,1.2,10.6
		C335.7,160.6,335.2,164.1,334.4,167.5L334.4,167.5z M298.4,86h4c1,0,2-0.1,2.9-0.4c0.8-0.2,1.6-0.6,2.4-1c0.7-0.4,1.3-0.8,1.8-1.4
		c0.5-0.5,0.9-1.1,1.2-1.7l1.1-2.1h14v32.7h9.2v14h-36.5v-14h11.1V98.7c-0.9,0.4-1.8,0.7-2.8,0.9c-1.5,0.4-3.1,0.6-4.7,0.6h-4
		L298.4,86z M252.2,146.6c0.7-2.8,1.9-5.4,3.6-7.6c1.6-2,3.8-3.6,6.2-4.5c2.3-0.8,4.7-1.2,7.1-1.2c2.3,0,4.7,0.4,6.9,1.2
		c2.4,0.9,4.5,2.4,6.1,4.5c1.7,2.3,3,4.8,3.6,7.6c0.9,3.5,1.3,7.1,1.2,10.6c0.1,3.5-0.3,7-1.2,10.3c-0.7,2.7-1.9,5.3-3.6,7.6
		c-1.6,2-3.7,3.6-6,4.6c-4.6,1.8-9.7,1.8-14.2,0c-2.4-1-4.4-2.6-6-4.7c-1.7-2.3-2.9-4.8-3.6-7.6c-0.9-3.4-1.3-6.9-1.2-10.4
		C250.9,153.6,251.3,150,252.2,146.6L252.2,146.6z"/>
	<pattern  id="SVGID_13_" xlink:href="#_10_dpi_20_" patternTransform="matrix(-0.65 0 0 -0.65 -13175.2041 -15064.5654)">
	</pattern>
	<path class="st15" d="M268,166.2c0.1,0.2,0.2,0.3,0.3,0.5l0,0c0.2,0,0.4,0.1,0.6,0.1c0.2,0,0.4,0,0.6-0.1c0.1-0.2,0.2-0.3,0.3-0.5
		c0.4-1,0.6-2,0.7-3c0.2-2,0.3-4,0.3-6c0-2-0.1-4.1-0.3-6.1c-0.1-1-0.3-2.1-0.7-3.1c-0.1-0.1-0.1-0.3-0.2-0.4
		c-0.2-0.1-0.4-0.1-0.6-0.1c-0.3,0-0.6,0-0.8,0.1c0,0-0.1,0.1-0.2,0.4c-0.4,1-0.6,2-0.7,3c-0.2,2-0.3,4-0.3,6.1c0,2,0.1,4,0.3,6
		C267.4,164.2,267.6,165.2,268,166.2z"/>
</g>
<g id="_01_API">
	<path class="st16" d="M229,83.5h-7.6c-0.5,1-1.1,1.9-1.9,2.6c-0.8,0.8-1.7,1.5-2.7,2.1c-1,0.6-2.2,1.1-3.4,1.4
		c-1.3,0.3-2.6,0.5-3.9,0.5v6.1c1.2,0,2.5-0.1,3.7-0.4c1.2-0.3,2.3-0.7,3.4-1.2c1-0.5,1.9-1.1,2.7-1.8c0.7-0.6,1.3-1.3,1.7-2.2v25.5
		h-11.2v6h28.4v-6H229V83.5z"/>
	<path class="st16" d="M302.6,116.1v6h28.5v-6h-9.2V83.5h-7.6c-0.5,1-1.1,1.9-1.9,2.6c-0.8,0.8-1.7,1.5-2.7,2.1
		c-1,0.6-2.2,1.1-3.4,1.4c-1.3,0.3-2.6,0.5-4,0.5v6.1c1.2,0,2.5-0.1,3.7-0.4c1.2-0.3,2.3-0.7,3.4-1.2c1-0.5,1.9-1.1,2.7-1.8
		c0.7-0.6,1.3-1.3,1.7-2.2v25.5H302.6z"/>
	<path class="st16" d="M279,86.5c-1.1-1.5-2.7-2.6-4.4-3.2c-1.8-0.6-3.6-1-5.5-0.9c-2,0-3.9,0.3-5.7,0.9c-1.8,0.6-3.3,1.8-4.5,3.2
		c-1.4,1.8-2.4,3.9-2.9,6.1c-0.7,3.1-1.1,6.4-1,9.6c-0.1,3.1,0.3,6.3,1,9.3c0.5,2.2,1.5,4.3,2.9,6.2c1.1,1.5,2.6,2.7,4.4,3.4
		c3.6,1.4,7.6,1.4,11.2,0c1.7-0.7,3.3-1.9,4.4-3.4c1.4-1.8,2.4-3.9,2.9-6.2c0.8-3,1.1-6.1,1.1-9.3c0.1-3.2-0.3-6.5-1-9.6
		C281.3,90.4,280.4,88.3,279,86.5z M274.5,108.6c-0.1,1.4-0.5,2.9-1,4.2c-0.4,0.9-1,1.7-1.8,2.3c-0.8,0.5-1.7,0.7-2.7,0.7
		c-1,0-1.9-0.2-2.8-0.7c-0.8-0.5-1.5-1.3-1.8-2.3c-0.5-1.3-0.9-2.8-1-4.2c-0.2-2.1-0.3-4.3-0.3-6.4c0-2.2,0.1-4.4,0.3-6.5
		c0.1-1.4,0.5-2.9,1-4.2c0.4-0.9,1-1.7,1.9-2.2c0.9-0.5,1.8-0.7,2.8-0.7c0.9,0,1.9,0.2,2.7,0.6c0.8,0.5,1.4,1.3,1.8,2.2
		c0.5,1.3,0.9,2.8,1,4.2c0.2,2.2,0.3,4.4,0.3,6.6C274.9,104.3,274.8,106.5,274.5,108.6L274.5,108.6z"/>
	<path class="st16" d="M279,141.4c-1.1-1.5-2.7-2.6-4.4-3.2c-1.8-0.6-3.6-1-5.5-0.9c-2,0-3.9,0.3-5.7,0.9c-1.8,0.6-3.3,1.8-4.5,3.2
		c-1.4,1.8-2.4,3.9-2.9,6.1c-0.7,3.1-1.1,6.4-1,9.6c-0.1,3.1,0.3,6.3,1,9.3c0.5,2.2,1.5,4.3,2.9,6.2c1.1,1.5,2.6,2.7,4.4,3.4
		c1.8,0.7,3.7,1,5.6,1c1.9,0,3.8-0.3,5.6-1.1c1.8-0.7,3.3-1.9,4.4-3.4c1.4-1.8,2.4-3.9,2.9-6.2c0.8-3,1.1-6.1,1.1-9.3
		c0.1-3.2-0.3-6.5-1-9.6C281.3,145.3,280.4,143.2,279,141.4z M274.5,163.6c-0.1,1.4-0.5,2.8-1,4.2c-0.4,0.9-1,1.7-1.8,2.3
		c-0.8,0.5-1.7,0.7-2.7,0.7c-1,0-1.9-0.2-2.8-0.7c-0.8-0.5-1.5-1.3-1.8-2.3c-0.5-1.3-0.9-2.8-1-4.2c-0.2-2.1-0.3-4.3-0.3-6.5
		c0-2.2,0.1-4.4,0.3-6.5c0.1-1.4,0.5-2.9,1-4.2c0.4-0.9,1-1.7,1.9-2.2c0.9-0.5,1.8-0.7,2.8-0.7c0.9,0,1.9,0.2,2.7,0.6
		c0.8,0.5,1.4,1.3,1.8,2.2c0.5,1.3,0.9,2.7,1,4.2c0.2,2.2,0.3,4.4,0.3,6.6C274.9,159.3,274.8,161.4,274.5,163.6L274.5,163.6z"/>
	<path class="st16" d="M330.5,147.5c-0.5-2.2-1.5-4.3-2.9-6.1c-1.1-1.5-2.7-2.6-4.4-3.2c-1.8-0.6-3.6-1-5.5-0.9
		c-2,0-3.9,0.3-5.8,0.9c-1.8,0.6-3.3,1.8-4.5,3.2c-1.4,1.8-2.4,3.9-2.9,6.1c-0.7,3.1-1.1,6.4-1,9.6c-0.1,3.1,0.3,6.3,1,9.3
		c0.5,2.2,1.5,4.3,2.9,6.2c1.1,1.5,2.6,2.7,4.4,3.4c1.8,0.7,3.7,1,5.6,1c1.9,0,3.8-0.3,5.6-1.1c1.8-0.7,3.3-1.9,4.4-3.4
		c1.4-1.8,2.4-3.9,2.9-6.2c0.8-3,1.1-6.1,1.1-9.3C331.6,153.9,331.3,150.7,330.5,147.5z M323.2,163.5c-0.1,1.4-0.5,2.9-1,4.2
		c-0.4,0.9-1,1.7-1.8,2.3c-0.8,0.5-1.7,0.7-2.7,0.7c-1,0-1.9-0.2-2.8-0.7c-0.8-0.5-1.5-1.3-1.8-2.3c-0.5-1.3-0.9-2.8-1-4.2
		c-0.2-2.1-0.3-4.3-0.3-6.5c0-2.2,0.1-4.4,0.3-6.5c0.1-1.4,0.5-2.9,1-4.2c0.4-0.9,1-1.7,1.8-2.2c0.9-0.5,1.9-0.7,2.8-0.7
		c0.9,0,1.9,0.2,2.7,0.6c0.8,0.5,1.4,1.3,1.8,2.2c0.5,1.3,0.9,2.7,1,4.2c0.2,2.2,0.3,4.4,0.3,6.6
		C323.5,159.3,323.4,161.4,323.2,163.5L323.2,163.5z"/>
	<path class="st16" d="M758.8,557.5v-6h11.1v-25.5c-0.4,0.8-1,1.6-1.7,2.2c-0.8,0.7-1.7,1.3-2.7,1.8c-1.1,0.5-2.2,0.9-3.4,1.2
		c-1.2,0.3-2.5,0.5-3.7,0.5v-6.1c1.3,0,2.7-0.2,4-0.5c1.2-0.3,2.3-0.8,3.3-1.4c1-0.6,1.9-1.3,2.7-2.1c0.8-0.8,1.4-1.7,1.9-2.6h7.6
		v32.7h9.3v6L758.8,557.5z"/>
	<path class="st16" d="M758.8,611.8v-6h11.1v-25.5c-0.4,0.8-1,1.6-1.7,2.2c-0.8,0.7-1.7,1.3-2.7,1.8c-1.1,0.5-2.2,0.9-3.4,1.2
		c-1.2,0.3-2.5,0.4-3.7,0.4v-6.1c1.3,0,2.7-0.1,4-0.5c1.2-0.3,2.3-0.8,3.3-1.4c1-0.6,1.9-1.3,2.7-2.1c0.8-0.8,1.4-1.7,1.9-2.6h7.6
		v32.7h9.3v6L758.8,611.8z"/>
	<path class="st16" d="M802.6,611.8v-6h11.1v-25.5c-0.4,0.8-1,1.6-1.7,2.2c-0.8,0.7-1.7,1.3-2.7,1.8c-1.1,0.5-2.2,0.9-3.3,1.2
		c-1.2,0.3-2.5,0.4-3.7,0.4v-6.1c1.3,0,2.7-0.1,4-0.5c1.2-0.3,2.3-0.8,3.4-1.4c1-0.6,1.9-1.3,2.7-2.1c0.8-0.8,1.4-1.7,1.9-2.6h7.6
		v32.7h9.3v6L802.6,611.8z"/>
	<path class="st16" d="M739,537.5c0.1,3.1-0.3,6.2-1.1,9.3c-0.6,2.2-1.6,4.3-2.9,6.2c-1.2,1.5-2.7,2.7-4.4,3.4
		c-1.8,0.7-3.7,1.1-5.6,1.1c-1.9,0-3.8-0.3-5.6-1c-1.7-0.7-3.2-1.9-4.4-3.4c-1.3-1.8-2.3-3.9-2.9-6.2c-0.7-3-1.1-6.2-1-9.3
		c-0.1-3.2,0.3-6.4,1-9.6c0.5-2.2,1.5-4.3,2.9-6.1c1.2-1.5,2.7-2.6,4.5-3.2c1.8-0.7,3.8-1,5.7-1c1.9,0,3.7,0.3,5.5,1
		c1.7,0.7,3.2,1.8,4.4,3.2c1.4,1.8,2.4,3.9,2.9,6.2C738.7,531.1,739.1,534.3,739,537.5z M730.9,537.5c0-2.2-0.1-4.4-0.3-6.6
		c-0.1-1.4-0.5-2.8-1-4.2c-0.3-0.9-1-1.7-1.8-2.2c-0.8-0.5-1.7-0.7-2.7-0.7c-1,0-2,0.2-2.8,0.7c-0.8,0.5-1.5,1.3-1.8,2.2
		c-0.5,1.3-0.9,2.8-1,4.2c-0.2,2.2-0.3,4.3-0.3,6.5c0,2.2,0.1,4.3,0.3,6.5c0.1,1.4,0.5,2.9,1,4.2c0.3,0.9,1,1.7,1.8,2.3
		c0.8,0.5,1.8,0.7,2.8,0.7c0.9,0,1.9-0.2,2.7-0.7c0.8-0.6,1.5-1.3,1.8-2.3c0.5-1.3,0.9-2.8,1-4.2C730.8,541.9,731,539.7,730.9,537.5
		L730.9,537.5z"/>
	<path class="st16" d="M830.6,537.5c0.1,3.1-0.3,6.2-1.1,9.3c-0.6,2.2-1.6,4.3-2.9,6.2c-1.2,1.5-2.7,2.7-4.4,3.4
		c-3.6,1.4-7.6,1.4-11.2,0c-1.7-0.7-3.3-1.9-4.4-3.4c-1.4-1.8-2.3-3.9-2.9-6.2c-0.7-3-1.1-6.2-1-9.3c-0.1-3.2,0.3-6.4,1-9.6
		c0.5-2.2,1.5-4.3,2.9-6.1c1.2-1.5,2.7-2.6,4.5-3.2c1.8-0.7,3.8-1,5.8-1c1.9,0,3.7,0.3,5.5,1c1.7,0.7,3.2,1.8,4.4,3.2
		c1.4,1.8,2.4,3.9,2.9,6.1C830.3,531.1,830.7,534.3,830.6,537.5z M822.5,537.5c0-2.2-0.1-4.4-0.3-6.6c-0.1-1.4-0.5-2.8-1-4.2
		c-0.3-0.9-1-1.7-1.8-2.2c-0.8-0.5-1.7-0.7-2.7-0.7c-1,0-2,0.2-2.8,0.7c-0.8,0.5-1.5,1.3-1.8,2.2c-0.5,1.3-0.9,2.8-1,4.2
		c-0.2,2.2-0.3,4.3-0.3,6.5c0,2.2,0.1,4.3,0.3,6.5c0.1,1.4,0.5,2.9,1,4.2c0.3,0.9,1,1.7,1.8,2.3c0.8,0.5,1.8,0.7,2.8,0.7
		c0.9,0,1.9-0.2,2.7-0.7c0.8-0.6,1.5-1.3,1.8-2.3c0.6-1.3,0.9-2.8,1-4.2C822.5,541.8,822.6,539.7,822.5,537.5z"/>
	<path class="st17" d="M504,37.4h77c1.3,0,2.4,1.1,2.4,2.4v135.5c0,1.3-1.1,2.4-2.4,2.4h-77c-1.3,0-2.4-1.1-2.4-2.4V39.9
		C501.6,38.5,502.7,37.4,504,37.4z"/>
	<path class="st18" d="M504,37.4h77c1.3,0,2.4,1.1,2.4,2.4v135.5c0,1.3-1.1,2.4-2.4,2.4h-77c-1.3,0-2.4-1.1-2.4-2.4V39.9
		C501.6,38.5,502.7,37.4,504,37.4z"/>
	<circle class="st16" cx="542.5" cy="49.9" r="3"/>
	<rect x="507.1" y="59.7" class="st18" width="70.8" height="95.9"/>
	<path class="st18" d="M552.9,169.5h-20.8c-1.6,0-2.8-1.3-2.8-2.8c0-1.6,1.3-2.8,2.8-2.8c0,0,0,0,0,0h20.8c1.6,0,2.8,1.3,2.8,2.8
		C555.8,168.2,554.5,169.5,552.9,169.5z"/>
	<line class="st18" x1="536.5" y1="88.2" x2="566.7" y2="88.2"/>
	<line class="st18" x1="518.3" y1="88.2" x2="527.8" y2="88.2"/>
	<line class="st18" x1="518.3" y1="127" x2="566.7" y2="127"/>
	<rect x="518.3" y="101.4" class="st19" width="48.4" height="12.4"/>
	<path class="st19" d="M243.2,412.5h178.7c2.1,0,3.8,1.7,3.8,3.8v122.2c0,2.1-1.7,3.8-3.8,3.8H243.2c-2.1,0-3.8-1.7-3.8-3.8V416.2
		C239.4,414.1,241.1,412.5,243.2,412.5z"/>
	<rect x="247.5" y="420.1" class="st20" width="170.1" height="113.5"/>
	<rect x="313.8" y="537.3" class="st19" width="37.6" height="25.3"/>
	<path class="st19" d="M294.6,558.3h75.8c0.4,0,0.7,0.3,0.7,0.7v7.1c0,0.4-0.3,0.7-0.7,0.7h-75.8c-0.4,0-0.7-0.3-0.7-0.7V559
		C293.9,558.7,294.3,558.3,294.6,558.3z"/>
	<line class="st18" x1="239.4" y1="568" x2="425.7" y2="568"/>
	<rect x="367.3" y="401.2" class="st17" width="10.1" height="56.3"/>
	
		<pattern  id="SVGID_14_" xlink:href="#New_Pattern_Swatch_7" patternTransform="matrix(-3.000000e-02 0 0 3.000000e-02 -8051.4561 -9151.8125)">
	</pattern>
	<rect x="244.2" y="463.8" class="st21" width="118" height="11"/>
	<rect x="137.9" y="229" class="st20" width="235.6" height="235.6"/>
	<rect x="137.9" y="229" class="st19" width="235.6" height="44"/>
	<circle class="st17" cx="329.9" cy="251.3" r="6"/>
	<circle class="st17" cx="353.2" cy="251.3" r="6"/>
	<rect x="174.5" y="315.5" class="st19" width="161.5" height="67.4"/>
	<line class="st18" x1="158.4" y1="291.3" x2="158.4" y2="430.7"/>
	<line class="st18" x1="174.5" y1="292.2" x2="210.3" y2="292.2"/>
	<line class="st18" x1="222.7" y1="292.2" x2="258.5" y2="292.2"/>
	<line class="st18" x1="174.5" y1="429.3" x2="210.3" y2="429.3"/>
	<line class="st18" x1="222.7" y1="429.3" x2="258.5" y2="429.3"/>
	<line class="st18" x1="174.5" y1="406" x2="274.8" y2="406"/>
	<line class="st18" x1="286.7" y1="406" x2="312.2" y2="406"/>
	<path class="st19" d="M664,177h178.7c2.1,0,3.8,1.7,3.8,3.8v122.2c0,2.1-1.7,3.8-3.8,3.8H664c-2.1,0-3.8-1.7-3.8-3.8V180.8
		C660.3,178.7,661.9,177,664,177z"/>
	<rect x="668.3" y="184.7" class="st20" width="170.1" height="113.6"/>
	<rect x="631.1" y="306.7" class="st19" width="244.6" height="10.3"/>
	
		<pattern  id="SVGID_15_" xlink:href="#New_Pattern_Swatch_7" patternTransform="matrix(-3.000000e-02 0 0 3.000000e-02 -8051.4561 -9151.8125)">
	</pattern>
	<rect x="701.4" y="238.4" class="st22" width="225.1" height="76.7"/>
	<rect x="711.9" y="229" class="st20" width="235.6" height="235.6"/>
	<rect x="711.9" y="229" class="st23" width="235.6" height="44"/>
	<circle class="st17" cx="904" cy="251.3" r="6"/>
	<circle class="st17" cx="927.3" cy="251.3" r="6"/>
	<rect x="757.1" y="315.5" class="st19" width="161.5" height="67.4"/>
	<line class="st18" x1="741" y1="291.3" x2="741" y2="430.7"/>
	<line class="st18" x1="757.1" y1="292.2" x2="778.1" y2="292.2"/>
	<line class="st18" x1="790.3" y1="292.2" x2="857.4" y2="292.2"/>
	<line class="st18" x1="757.1" y1="429.3" x2="792.9" y2="429.3"/>
	<line class="st18" x1="805.2" y1="429.3" x2="842.2" y2="429.3"/>
	<line class="st18" x1="757.1" y1="406" x2="918.5" y2="406"/>
	<rect x="685.3" y="346.8" class="st17" width="36.7" height="4.5"/>
	<line class="st24" x1="741" y1="251.3" x2="871.5" y2="251.3"/>
	<line class="st24" x1="158.7" y1="251.3" x2="289.2" y2="251.3"/>
	<line class="st18" x1="599.2" y1="347.5" x2="733.5" y2="347.5"/>
	<circle class="st20" cx="749.5" cy="347.5" r="16"/>
	<line class="st18" x1="486.3" y1="347.5" x2="352" y2="347.5"/>
	<circle class="st20" cx="335.9" cy="347.5" r="16"/>
	<circle class="st20" cx="542.5" cy="347.5" r="56.2"/>
	<circle class="st18" cx="542.5" cy="347.5" r="82.1"/>
	<path class="st18" d="M645.4,365.6c3.2-18.3,1.5-37.1-5-54.5"/>
	<path class="st18" d="M438.5,347.5c0,19.9,5.7,39.5,16.5,56.2"/>
	<path class="st18" d="M542.5,243.4c-41.8,0-79.6,25-95.9,63.6"/>
	<line class="st18" x1="542.5" y1="291.3" x2="542.5" y2="214.8"/>
	<circle class="st19" cx="542.5" cy="203.1" r="11.7"/>
	<line class="st18" x1="542.5" y1="403.7" x2="542.5" y2="480.2"/>
	<circle class="st19" cx="542.5" cy="491.9" r="11.7"/>
	<line class="st18" x1="542.7" y1="321.3" x2="542.7" y2="374.5"/>
	<line class="st18" x1="524.6" y1="321.3" x2="524.6" y2="374.5"/>
	<rect x="519.5" y="311.1" class="st20" width="10.4" height="10.4"/>
	<rect x="519.5" y="374.5" class="st20" width="10.4" height="10.4"/>
	<polygon class="st20" points="542.7,311.3 536.8,321.5 548.6,321.5 	"/>
	<polygon class="st18" points="542.7,384.7 536.8,374.5 548.6,374.5 	"/>
	<line class="st18" x1="560.8" y1="321.3" x2="560.8" y2="374.5"/>
	<circle class="st20" cx="560.8" cy="316.4" r="5.4"/>
	<circle class="st20" cx="560.8" cy="379.6" r="5.4"/>
	<path class="st18" d="M599.2,260.2c-16.9-10.9-36.5-16.8-56.6-16.7"/>
	<path class="st18" d="M519.5,449c42.7,9.7,86.9-8.4,110.6-45.2"/>
	<rect x="515" y="336.8" class="st19" width="55.5" height="21.1"/>
	<path class="st17" d="M504,517.2h77c1.3,0,2.4,1.1,2.4,2.4v135.5c0,1.3-1.1,2.4-2.4,2.4h-77c-1.3,0-2.4-1.1-2.4-2.4V519.7
		C501.6,518.3,502.7,517.2,504,517.2z"/>
	<path class="st18" d="M504,517.2h77c1.3,0,2.4,1.1,2.4,2.4v135.5c0,1.3-1.1,2.4-2.4,2.4h-77c-1.3,0-2.4-1.1-2.4-2.4V519.7
		C501.6,518.3,502.7,517.2,504,517.2z"/>
	<circle class="st16" cx="542.5" cy="529.7" r="3"/>
	<rect x="507.1" y="539.5" class="st18" width="70.8" height="95.8"/>
	<path class="st18" d="M552.9,649.3h-20.8c-1.6,0-2.8-1.3-2.8-2.8c0-1.6,1.3-2.8,2.8-2.8c0,0,0,0,0,0h20.8c1.6,0,2.8,1.3,2.8,2.8
		C555.8,648,554.5,649.3,552.9,649.3z"/>
	<line class="st18" x1="536.5" y1="606.5" x2="566.7" y2="606.5"/>
	<line class="st18" x1="518.3" y1="606.5" x2="527.8" y2="606.5"/>
	<line class="st18" x1="518.3" y1="567.7" x2="566.7" y2="567.7"/>
	<rect x="518.3" y="580.9" class="st19" width="48.4" height="12.4"/>
</g>
</svg>
