<svg xmlns="http://www.w3.org/2000/svg" viewBox="0 0 555 283"><defs><clipPath id="a"><path fill="none" d="M0 0h251.397v216.063H0z"/></clipPath></defs><g fill="#f5f5f5" stroke="#d2d2d2"><path stroke="none" d="M0 0h555v283H0z"/><path fill="none" d="M.5.5h554v282H.5z"/></g><g clip-path="url(#a)" transform="translate(152.004 32.119)"><path fill="#dedede" d="m215.984 106.869-.537-.336a42.969 42.969 0 0 1-20.06-32.8 49.587 49.587 0 0 0-.449-5.261.455.455 0 0 0 0-.062 48.694 48.694 0 0 0-92.927-12.385l-7.774 17.052a42.97 42.97 0 0 1-29.228 24l-13.666 3.228a48.689 48.689 0 0 0 10.118 96.138c7.743.119 15.232-2.3 22.836-3.364a262.8 262.8 0 0 1 51.863-2.262 224.4 224.4 0 0 1 26.257 3.11c8.416 1.51 16.625 4.13 25.1 5.233a60.974 60.974 0 0 0 7.915.565 48.688 48.688 0 0 0 20.552-92.856"/><path d="M212.498 97.467a.354.354 0 0 1-.353-.353V71.262H78.363v9.422a.354.354 0 0 1-.707 0v-9.775a.353.353 0 0 1 .353-.353h134.489a.353.353 0 0 1 .353.353v26.205a.354.354 0 0 1-.353.353"/><path fill="#fff" d="M172.324 96.752h78.719v70.196h-78.719z"/><path fill="#e00" d="M251.396 167.298h-79.425v-70.9h79.425Zm-78.719-.707h78.012V97.105h-78.011Z"/><path fill="#dedede" d="M179.086 116.574h47.201v43.673h-47.201zM232.518 116.574h11.884v12.518h-11.884zM232.518 135.325h11.884v24.925h-11.884z"/><path fill="#e00" d="M172.324 96.752h78.719v13.49h-78.719z"/><path fill="#fff" d="M214.171 103.817h-35.088a.354.354 0 0 1 0-.707h35.085a.354.354 0 0 1 0 .707M234.63 101.49a1.973 1.973 0 1 1-1.973 1.973 1.973 1.973 0 0 1 1.973-1.973M242.429 101.49a1.973 1.973 0 1 1-1.973 1.973 1.973 1.973 0 0 1 1.973-1.973M182.188 119.876h35.848v2.228h-35.848zM182.188 125.96h16.523v2.228h-16.523zM182.188 132.043h27.26v2.228h-27.26zM182.188 144.21h27.26v2.228h-27.26zM182.188 138.127h10.081v2.228h-10.081zM194.374 138.127h10.081v2.228h-10.081zM182.188 150.294h10.081v2.228h-10.081zM194.374 150.294h23.661v2.228h-23.661z"/><path d="M33.932 151.821h44.075v.707H33.932zM148.693 71.262a.354.354 0 0 1-.353-.353V35.396a.354.354 0 1 1 .707 0v35.512a.353.353 0 0 1-.353.353"/><path fill="#be0000" d="M117.312 207.423s2.934-3.675 2.861-6.14c-.113-3.794 1.606-19.67 4.085-23.989l20.088 2.638s-4.585 11.59-12.614 28.86l-14.417-1.368"/><path fill="#be0000" d="M130.099 208.854c-2.827 6.129-18.3 3.039-18.3 3.039l-2.293-8.249c6.14-2.708 17.623-1.428 17.623-1.428s2.694-15.712.24-21.767h3.717s3.836 23.181-.992 28.4"/><path fill="#5f0000" d="M109.51 203.907a.263.263 0 0 1-.106-.5c3.917-1.727 9.893-1.874 14.217-1.7a.263.263 0 0 1 .252.274.266.266 0 0 1-.274.252c-3.493-.145-9.958-.123-13.984 1.651a.262.262 0 0 1-.106.023"/><path fill="#5f0000" d="M130.218 209.77c-2.827 6.129-18.3 3.039-18.3 3.039l1.854-2.544c3.881-1.71 8.481-4.031 11.322-5.507a5.36 5.36 0 0 0 3.076-4.546c.088-15.39-3.392-16.221-5.436-18.564l8.481-.283s3.836 23.181-.992 28.405"/><path fill="#fff" d="M129.424 216.035c.17-1.758 1.956-20.849.661-27.257-3.274-16.207-.673-24.512-.673-24.512l32.137 1.312 4.633-2.488s5.792 2.349 5.792 3.432-.155 46.169 2.544 49.471"/><path fill="#dedede" d="M162.632 172.596s-4.492 12.863-3.59 22.423-19.66 14.137-19.66 14.137h25.386l3.22-10.539-3.7-24.77Z"/><path d="M77.653 115.364h.707v61.576h-.707z"/><path fill="#fff" d="m163.213 166.665-22.03-19.144c-.243.235-.079.24-2.089 1.368-.7.393-5.736 4.24-6.46 4.585-.67.331-1.281.913-1.917 1.312-.752.469-1.532.891-2.3 1.329a14.843 14.843 0 0 0-4.181 3.11c-2.013 2.375-2.324 5.464-3.172 8.334q-1.238 4.2-2.507 8.371c-.373 1.227-.744 2.451-1.131 3.675l15.627 5.979c3.884-3.754 9.015-10.915 13.4-12.314a86.609 86.609 0 0 1 16.4-3.579c.119-.987.235-2 .367-3.025"/><path fill="#dedede" d="M129.694 215.939h-.028a.283.283 0 0 1-.254-.309c.02-.206 2-20.7.674-27.307a73.439 73.439 0 0 1-1.574-18.146.283.283 0 1 1 .565.03 72.853 72.853 0 0 0 1.564 18c1.341 6.687-.583 26.627-.666 27.474a.283.283 0 0 1-.281.255"/><path d="M174.784 215.821h-45.09v-.323h44.62c-.646-.985-1.654-5.154-2.178-23.522-.315-11.039-.319-22.534-.314-25.794v-.169c0-.375-1.518-1.586-5.585-3.251l-4.536 2.449-.153-.284 4.669-2.521.07.029c.978.4 5.856 2.445 5.856 3.578v.17c-.006 3.259 0 14.75.314 25.785.6 20.977 1.842 23.446 2.349 23.533Z"/><path fill="#fff" d="M148.696.353a28.691 28.691 0 1 1-28.69 28.691A28.691 28.691 0 0 1 148.696.353"/><path fill="#e00" d="M148.693 58.088a29.044 29.044 0 1 1 29.044-29.044 29.077 29.077 0 0 1-29.044 29.044m0-57.381a28.337 28.337 0 1 0 28.337 28.337A28.369 28.369 0 0 0 148.693.707"/><path fill="#fff" d="M21.872 130.655a21.519 21.519 0 1 1-21.519 21.52 21.519 21.519 0 0 1 21.519-21.52"/><path fill="#e00" d="M21.872 174.046a21.872 21.872 0 1 1 21.872-21.874 21.9 21.9 0 0 1-21.872 21.872m0-43.037a21.165 21.165 0 1 0 21.165 21.165 21.189 21.189 0 0 0-21.165-21.165"/><path fill="#8f0000" d="M133.064 208.447s-12.851-2.734-14.242-2.544a6.366 6.366 0 0 0-2.394.848 3.567 3.567 0 0 0-3.709.712s-1.789-.475-3.831 1.563l-5.267 5.267 4.868.073s15.246.435 18.533.218a18.342 18.342 0 0 1 6.041.65Z"/><path fill="#be0000" d="M140.948 210.528s-12.413-4.806-13.832-5.089a7.264 7.264 0 0 0-2.587-.062 4.225 4.225 0 0 0-3.842-.608 4.892 4.892 0 0 0-4.192.065l-6.618 2.674.322 1.272 5.937-.362-4.334 3.33 2.779.916 1.433.475 5.47 1.8s8.009-.472 11.308.41a16.739 16.739 0 0 0 6.194.441Z"/><path fill="#5f0000" d="M117.804 213.991a.263.263 0 0 1-.1-.508c.055-.021 5.54-2.158 8.482-3.658a6.4 6.4 0 0 1 5.7-.148.263.263 0 1 1-.223.477 5.876 5.876 0 0 0-5.234.138c-2.97 1.515-8.48 3.661-8.535 3.683a.27.27 0 0 1-.1.018M116.015 213.405a.263.263 0 0 1-.139-.486c.049-.03 4.931-3.059 7.871-5.082a6.712 6.712 0 0 1 5.795-1.162.265.265 0 0 1-.176.5 6.313 6.313 0 0 0-5.321 1.1c-2.951 2.029-7.843 5.065-7.892 5.1a.261.261 0 0 1-.138.04"/><path fill="#5f0000" d="M115.196 213.476a2.385 2.385 0 0 1-.712-.107 2.919 2.919 0 0 1-1.665-1.538l-.092-.219.208-.114c.07-.039 7-3.86 10.012-5.595a5.484 5.484 0 0 1 5.559-.312l12.536 4.689a.263.263 0 1 1-.184.492l-12.61-4.723a4.943 4.943 0 0 0-5.039.309c-2.708 1.559-8.57 4.8-9.794 5.475a2.3 2.3 0 0 0 1.23 1.035 2.738 2.738 0 0 0 2.264-.514.263.263 0 1 1 .282.444 3.767 3.767 0 0 1-1.995.678"/><path fill="#5f0000" d="M111.803 212.011a.263.263 0 0 1-.156-.475c.052-.038 5.221-3.836 7.441-5.987 2.377-2.3 5.546-.417 5.578-.4a.263.263 0 0 1-.273.449 5.483 5.483 0 0 0-1.707-.608 3.535 3.535 0 0 0-3.231.934c-2.246 2.175-7.444 5.995-7.5 6.033a.262.262 0 0 1-.155.051"/><path fill="#5f0000" d="M109.866 207.782a.263.263 0 0 1-.1-.507c.057-.023 5.707-2.309 7.627-3.138a3.15 3.15 0 0 1 3.478.445.263.263 0 0 1-.369.374 2.64 2.64 0 0 0-2.9-.336c-1.925.832-7.581 3.12-7.638 3.144a.263.263 0 0 1-.1.019"/><path fill="#be0000" d="M163.405 179.461c-1.433 5.221.721 17.81 1.476 21.258-5.555.8-7.915 2.852-12.826 3.958-5.315 1.2-16.62 4.045-16.62 4.045l-.961 7.045h44.1c4.062-21.369 5.625-36.318 5.625-36.318Z"/><path fill="#5f0000" d="M130.828 213.586s4.916-2.985 7.517-3.022 7.819 4.153 9.312 3.712Z"/><path fill="#e00" d="m178.847 215.833-.556-.106c3.961-20.913 5.606-36.143 5.623-36.295l.562.06c-.016.152-1.664 15.4-5.629 36.34"/><path fill="#5f0000" d="M183.172 185.459c-3.675-1.507-12.258-.763-16.113-.325a18.9 18.9 0 0 1 .322-5.677h-3.958c-1.433 5.221.721 17.81 1.476 21.258-5.555.8-7.915 2.852-12.826 3.958-5.315 1.2-17.485 3.74-17.485 3.74l1 .362s15.133-2.881 20.439-4.093c4.919-1.117 8.094-2.8 13.648-3.6-.449-2.044-1.676-7.424-2.3-12.557 5-2.765 15.8-3.07 15.8-3.07"/><path fill="#fff" d="M185.8 165.308a14.332 14.332 0 0 0-2.1-6.219 10.835 10.835 0 0 0-4.034-3.336c-1.676-.916-3.432-1.7-5.072-2.674-1.885-1.131-3.675-2.445-5.467-3.715-3.771-2.66-7.6-5.275-12.051-6.64a1.28 1.28 0 0 1-.155-.065c-5.753-.526-11.308.876-16.936 3.146-.975.4 0 0-.6.153l23.831 20.71a131.006 131.006 0 0 0-.964 20.5c7.231-3.2 23.3-1.51 23.3-1.51.175-4.594.509-9.185.5-13.784a51.938 51.938 0 0 0-.249-6.57"/><path fill="#be0000" d="M157.59 119.099a14.81 14.81 0 1 1-15.933-13.595 14.808 14.808 0 0 1 15.932 13.59"/><path fill="#dedede" d="M147.349 157.335h-.62c-4.74-.245-7.494-2.356-8.434-6.453a.283.283 0 1 1 .551-.126c.876 3.817 3.459 5.784 7.9 6.014h.6a10.06 10.06 0 0 0 5.808-1.834 19.5 19.5 0 0 0 7.509-9.533.283.283 0 1 1 .533.187 20.046 20.046 0 0 1-7.717 9.809 10.619 10.619 0 0 1-6.132 1.937"/><path fill="#be0000" d="M138.036 140.852c.4 1.436.891 2.85 1.278 4.288.466 1.739.565 3.525.961 5.275.8 3.469 3.11 4.7 6.55 4.876h.031a8.727 8.727 0 0 0 5.459-1.558 18.135 18.135 0 0 0 6.966-8.817 1.445 1.445 0 0 0-.037-1.026c-.848-2.035-3.853-10.041-2.982-18.675Z"/><path fill="#5f0000" d="m154.622 133.624-15.8 9.841c.172.565.342 1.114.492 1.676.466 1.739.565 3.525.961 5.275a7.531 7.531 0 0 0 .636 1.778c13.318-8.54 13.711-18.57 13.711-18.57"/><path fill="#be0000" d="M129.098 114.709s-1.131 2.4-1.521 7.743a8.427 8.427 0 0 0 .565 3.675l.78 1.979a6.427 6.427 0 0 1 .435 2.728v.184a8.335 8.335 0 0 0 .874 4.24l1.866 3.712a59.4 59.4 0 0 1 2.688 6.44 3.63 3.63 0 0 0 3.958 2.522s14.819-5.937 15.461-11.93a14.992 14.992 0 0 0-.848-6.129"/><path fill="#5f0000" d="M134.831 139.196a8.6 8.6 0 0 1-2.12-.265.263.263 0 1 1 .13-.51 8.093 8.093 0 0 0 5.448-.526.263.263 0 1 1 .225.476 8.616 8.616 0 0 1-3.682.825"/><path d="m152.72 127.828-.254-7.378-2.513-.814-.048 6.691a2.018 2.018 0 0 1-.348 1.117l-3.641 5.433-2.352 3.488a1.673 1.673 0 0 1-2.544.26 5.436 5.436 0 0 0-2.561-1.56 13.812 13.812 0 0 0-4.826-.54 2.676 2.676 0 0 0-2.12.964 2.275 2.275 0 0 0-.283 2.1l1.555 4.24a5.021 5.021 0 0 1 .3 2.106 4.387 4.387 0 0 0 4.068 4.619c.136 0 .308.017.509.017a7.35 7.35 0 0 0 4.6-1.6 24.4 24.4 0 0 1 2.57-1.9c2.8-1.73 6.146-3.254 8.1-6.01 1.238-1.744 1.32-3.517 1.713-5.521l-1.281-3a7.591 7.591 0 0 1-.636-2.72m-16.7 13.247a3.169 3.169 0 0 1-2.666-.749 2.487 2.487 0 0 1-.944-2.544 2.546 2.546 0 0 1 2.544-1.3 8.832 8.832 0 0 1 1.835.283 6.4 6.4 0 0 1 1.979.656.8.8 0 0 1 .235 1.1c-.721 1.125-1.642 2.363-2.982 2.556"/><path fill="#be0000" d="M132.402 125.912a3.084 3.084 0 0 1 .209 1.58l-1.371 5.057a1.755 1.755 0 0 0 2.341 2.168 4.263 4.263 0 0 0 1.493-.534"/><path fill="#5f0000" d="M132.94 135.065a1.933 1.933 0 0 1-1.761-.89 2.163 2.163 0 0 1-.209-1.707l1.36-5.018a3.054 3.054 0 0 0-.169-1.391.288.288 0 0 1 .1-.387.28.28 0 0 1 .384.085 3.239 3.239 0 0 1 .255 1.743l-.01.066-1.371 5.057a1.6 1.6 0 0 0 .149 1.258 1.65 1.65 0 0 0 1.866.557 3.8 3.8 0 0 0 1.359-.47.284.284 0 0 1 .37.431 4.33 4.33 0 0 1-1.628.6 3.819 3.819 0 0 1-.691.068m-.327-7.573ZM137.007 133.884a.263.263 0 0 1-.227-.4 1.937 1.937 0 0 0-.142-2.4.263.263 0 0 1 .369-.375 2.486 2.486 0 0 1 .227 3.043.263.263 0 0 1-.227.13"/><path d="M135.291 124.001a.332.332 0 0 0 .042-.045l.042-.059.017-.031a.652.652 0 0 0 .074-.441.679.679 0 0 0-.464-.526l-.1-.023a.611.611 0 0 0-.215 0c-.161.04-.1.034-.116.034l.116-.048.254-.11c.175-.073.351-.144.529-.212.353-.133.712-.252 1.077-.351a10.571 10.571 0 0 1 2.242-.376 7.941 7.941 0 0 1 2.262.189 6.885 6.885 0 0 1 2.086.868.276.276 0 0 1-.271.481 6.1 6.1 0 0 0-1.951-.611 7.136 7.136 0 0 0-2.038.017 9.6 9.6 0 0 0-1.979.526 11.276 11.276 0 0 0-1.402.642l-.229.124-.1.065-.048.023a.59.59 0 0 1-.178.059.74.74 0 0 1-.223 0l-.1-.023a.684.684 0 0 1-.464-.529.66.66 0 0 1 .073-.444l.023-.034a.382.382 0 0 1 .048-.068c0-.017.042-.048.045-.054l.023-.023.054-.048a.676.676 0 0 1 .9 1l-.045.037ZM136.149 126.84a.353.353 0 0 1-.185-.654 8.877 8.877 0 0 1 6.471-1.121.354.354 0 1 1-.145.692 8.171 8.171 0 0 0-5.962 1.035.351.351 0 0 1-.184.052"/><path d="M138.751 125.372a1.119 1.119 0 1 1-1.119 1.119 1.119 1.119 0 0 1 1.119-1.119M129.835 124.962a2.937 2.937 0 0 0-.461-.175 3.46 3.46 0 0 0-.5-.116 1.9 1.9 0 0 0-.956.057h-.031a.308.308 0 0 1-.308-.526 2.625 2.625 0 0 1 1.261-.543 4.845 4.845 0 0 1 1.346-.048h.062a.712.712 0 1 1-.17 1.413.779.779 0 0 1-.246-.062M128.86 127.875a.318.318 0 0 1-.191-.573 4.055 4.055 0 0 1 3.016-.387.318.318 0 0 1-.156.617 3.477 3.477 0 0 0-2.479.28.317.317 0 0 1-.19.063"/><path d="M130.197 126.941a.891.891 0 1 1-.89.89.89.89 0 0 1 .89-.89M152.247 123.913a1.73 1.73 0 0 1-1.979-1.052 10.018 10.018 0 0 0-1.018-2.211c-.58-.582-.475-1.413-.616-1.744-.565-1.391-1.668-.961-2.53-1.727s-.509-2.329-1.724-2.621a11.328 11.328 0 0 1-3.316-1.114c-1.054-.619-1.467-.339-2.677-.249s-2.694-1.08-3.907-.283-2.5.732-3.768 1.063-.947 2.177-2.491 1.753-2.988-3.316-2.279-4.78.068-2.1.69-3.293 1.009-2.57 2.021-3.322 1.917 0 2.934-.37 1.2-1.713 2.211-2.058 2.146.382 3.11.175 1.269-1.17 2.18-1.337 1.614.616 2.519.447a6.776 6.776 0 0 1 2.776-.393 7.5 7.5 0 0 0 2.262.6c.882-.023 1.413-.622 2.363-.24s1.2 1.589 2.324 1.979 2.762.512 3.712 1.413.732 2.262 1.826 3.11a6.556 6.556 0 0 1 2.895 3.958 37.225 37.225 0 0 0 .7 4.419 8.037 8.037 0 0 1 .619 2.957 15.19 15.19 0 0 1-.786 3.163 124.374 124.374 0 0 0-1.193 4.614c-.384 1.625-1.744 2.858-2.406 4.6a.552.552 0 0 1-1.063.037c-.294-.6-.661-1.436-.93-2.095 1.7-2.807 2.315-4.337.93-7.455-.814.622-1.623 1.244-2.442 1.866a18.87 18.87 0 0 0-.944.2"/><path fill="#be0000" d="M153.511 130.823s2.785-.755 4.125-4.625-3.177-8.071-5.154-2.338"/><path d="M73.319 212.772h76.8v.743a2.262 2.262 0 0 1-2.262 2.262H75.581a2.262 2.262 0 0 1-2.262-2.262Z"/><path fill="#e00" d="M150.116 213.08h-37.27a.302.302 0 0 1 0-.605h37.27a.302.302 0 0 1 0 .605"/><path d="M113.123 214.9h-38.5a1.235 1.235 0 0 1-1.131-.78l-16.258-39.86a1.269 1.269 0 0 1 1.131-1.764h38.5a1.235 1.235 0 0 1 1.131.78l16.26 39.86a1.272 1.272 0 0 1-1.131 1.764"/><path fill="#e00" d="M57.226 174.563a.3.3 0 0 1-.279-.185 1.571 1.571 0 0 1 1.4-2.184h38.518a.302.302 0 0 1 0 .605H58.354a.951.951 0 0 0-.34.076.968.968 0 0 0-.513 1.268.3.3 0 0 1-.161.4.3.3 0 0 1-.118.024M21.872 137.024l-12.676 3.6v13.934a14.051 14.051 0 0 0 1.182 5.654c4.009 9.1 11.494 8.783 11.494 8.783s7.579.322 11.571-8.956a13.816 13.816 0 0 0 1.108-5.459v-13.957Z"/><path fill="#fff" d="M21.872 166.874c-.608 0-4.978.048-8.238-4.729a13.853 13.853 0 0 1-2.369-7.8v-11.836l10.607-3.011 10.609 3.011v11.836a13.852 13.852 0 0 1-2.372 7.8 9.889 9.889 0 0 1-8.238 4.729"/><path fill="#dedede" d="M21.448 166.442a9.6 9.6 0 0 1-7.463-4.537 13.355 13.355 0 0 1-2.3-7.559v-11.518l9.759-2.77Z"/><path fill="#fff" d="M21.024 140.62v25.36a9.282 9.282 0 0 1-6.689-4.314 12.935 12.935 0 0 1-2.222-7.322v-11.2Zm.848-1.131L11.266 142.5v11.836a13.853 13.853 0 0 0 2.369 7.8 9.9 9.9 0 0 0 8.2 4.729h.04v-27.376Z"/><path fill="#5f0000" d="M144.671 149.486a4.492 4.492 0 0 0-1.413 5 5.068 5.068 0 0 1-2.485-2.606l1.849-2.31Z"/><path fill="#fff" d="M48.485 79.134h59.041v52.646H48.485z"/><path fill="#e00" d="M107.878 132.134H48.131V78.781h59.747Zm-59.041-.707h58.334V79.488H48.838Z"/><path fill="#dedede" d="M53.559 94.001h35.402v32.756H53.559zM93.631 94.001h8.913v9.388h-8.913zM93.631 108.062h8.913v18.695h-8.913z"/><path fill="#e00" d="M48.485 79.134h59.041v10.118H48.485z"/><path fill="#fff" d="M79.869 84.526H53.556a.354.354 0 1 1 0-.707h26.313a.354.354 0 1 1 0 .707M95.214 82.691a1.479 1.479 0 1 1-1.478 1.478 1.479 1.479 0 0 1 1.478-1.478M101.066 82.691a1.479 1.479 0 1 1-1.479 1.478 1.479 1.479 0 0 1 1.479-1.478"/><path d="M134.313 26.717h3.028a1.707 1.707 0 0 1 1.707 1.707v11.1a1.707 1.707 0 0 1-1.707 1.707h-3.028a1.707 1.707 0 0 1-1.708-1.707v-11.1a1.707 1.707 0 0 1 1.708-1.707"/><path fill="#e00" d="M129.931 29.098h2.671v9.841h-2.671a1.023 1.023 0 0 1-1.023-1.024v-7.791a1.023 1.023 0 0 1 1.021-1.026Z"/><path d="M163.083 41.236h-3.028a1.707 1.707 0 0 1-1.708-1.707v-11.1a1.707 1.707 0 0 1 1.708-1.707h3.028a1.707 1.707 0 0 1 1.707 1.707v11.1a1.707 1.707 0 0 1-1.707 1.707"/><path fill="#e00" d="M167.461 38.854h-2.67v-9.841h2.67a1.023 1.023 0 0 1 1.023 1.023v7.794a1.023 1.023 0 0 1-1.023 1.023"/><path fill="#e00" d="M166.979 29.098h-.684v-2.872a17.6 17.6 0 0 0-35.2 0v2.872h-.684v-2.872a18.282 18.282 0 0 1 36.564 0Z"/><path fill="#e00" d="M137.153 13.911a1.413 1.413 0 0 1-.906-2.5 19.311 19.311 0 0 1 24.919.006 1.413 1.413 0 1 1-1.825 2.159 16.414 16.414 0 0 0-4.248-2.6 16.635 16.635 0 0 0-17.036 2.609 1.406 1.406 0 0 1-.9.328M145.867 47.755h-3.862a6.53 6.53 0 0 1-6.522-6.519h.684a5.845 5.845 0 0 0 5.838 5.835h3.862Z"/><path fill="#e00" d="M145.667 44.601h3.545a2.813 2.813 0 0 1 2.813 2.813 2.813 2.813 0 0 1-2.813 2.813h-3.545a2.813 2.813 0 0 1-2.813-2.813 2.813 2.813 0 0 1 2.813-2.813"/><path fill="#fff" d="m61.345 111.144-2.616-4.532-2.618 4.532ZM81.172 109.611l2.618 4.534 2.618-4.534Z"/><path fill="#fff" d="M58.727 110.802a.424.424 0 0 1-.424-.424 12.971 12.971 0 0 1 12.96-12.953.424.424 0 1 1 0 .848 12.122 12.122 0 0 0-12.108 12.1.424.424 0 0 1-.424.424"/><path fill="#dedede" d="m58.727 106.613 2.618 4.523H56.11l2.618-4.523m0-2.262-.978 1.7-2.621 4.523-.978 1.7H63.3l-.981-1.7-2.618-4.523Z"/><path fill="#fff" d="M71.263 123.334a12.97 12.97 0 0 1-12.956-12.956.424.424 0 1 1 .848 0 12.121 12.121 0 0 0 12.108 12.108.424.424 0 1 1 0 .848"/><path fill="#fff" d="M71.259 123.334a.424.424 0 1 1 0-.848 12.121 12.121 0 0 0 12.106-12.108.424.424 0 1 1 .848 0 12.97 12.97 0 0 1-12.956 12.956"/><path fill="#dedede" d="m86.404 109.612-2.618 4.523-2.618-4.523Zm1.959-1.131h-9.149l.978 1.7 2.618 4.523.981 1.7.978-1.7 2.618-4.523Z"/><path fill="#fff" d="M83.791 110.802a.424.424 0 0 1-.424-.424 12.122 12.122 0 0 0-12.108-12.1.424.424 0 1 1 0-.848 12.971 12.971 0 0 1 12.956 12.953.424.424 0 0 1-.424.419Z"/><path fill="#e00" d="M30.644 216.062H13.533a.283.283 0 0 1 0-.565h17.111a.283.283 0 0 1 0 .565M9.694 216.062h-8.56a.283.283 0 0 1 0-.565h8.56a.283.283 0 0 1 0 .565M221.053 216.062h-17.109a.283.283 0 1 1 0-.565h17.109a.283.283 0 0 1 0 .565M232.049 216.062h-7.155a.283.283 0 1 1 0-.565h7.155a.283.283 0 0 1 0 .565M199.296 216.062H42.746a.283.283 0 0 1 0-.565h156.55a.283.283 0 0 1 0 .565"/></g></svg>