<svg xmlns="http://www.w3.org/2000/svg" fill="none" viewBox="0 0 44 31"><g clip-path="url(#a)"><rect width="44" height="31" fill="#fff" rx="3"/><path fill="#0071CE" d="m38.369 23.901 1.952 2.177H44V31H0V0h44v4.604h-4.58l-1.051 2.928-1.052-2.928h-6.006V8.51l-1.727-3.905h-4.806l-4.955 11.338h3.98v10.136h12.539l2.027-2.177Z"/><path fill="#0071CE" d="M40.846 24.877H44l-4.13-4.43L44 16.092h-3.078l-2.628 2.853-2.553-2.853h-3.154l4.205 4.43-4.205 4.355h3.079l2.628-2.853 2.553 2.853ZM27.556 22.85v-1.352h4.956v-2.027h-4.956v-1.352h5.031v-2.027h-7.433v8.785h7.433V22.85h-5.03ZM41.672 14.816h2.253v-8.86l-3.604.075-1.952 5.481-2.028-5.481h-3.754v8.785h2.403V8.659l2.252 6.157h2.103l2.328-6.157v6.157Z"/><path fill="#0071CE" d="M28.758 6.03h-3.079l-3.904 8.786h2.628l.75-1.727h4.055l.751 1.727h2.703L28.758 6.03Zm-2.778 5.032 1.201-2.854 1.201 2.854H25.98ZM41.822 20.222 44 22.625v-4.806l-2.178 2.403Z"/></g><defs><clipPath id="a"><rect width="44" height="31" fill="#fff" rx="3"/></clipPath></defs></svg>