<svg xmlns="http://www.w3.org/2000/svg" fill="none" viewBox="0 0 98 98"><path fill="#ef6122" d="M38.697 21.129c-8.413-5.866-19.178-7.182-21.072-5.077-1.536 1.706 4.266 11.049 3.326 13.78-.937 2.73-9.168.963-10.069 4.435-.426 1.65 5.888 5.63 5.718 7.934-.17 2.305-5.045 1.653-5.402 4.635-.241 2.005 4.208 2.447 4.038 4.836-.17 2.389-3.382 1.952-3.241 4.266.114 1.878 3.625.641 4.565 3.798.938 3.157 22.14-38.607 22.14-38.607h-.003z"/><path fill="#fac20c" d="M20.782 77.013c9.997 10.97 38.707 18.4 57.465 3.896 3.082-3.072 23.122-27.1 4.95-51.703-13.994-18.94-56.139-12.285-63.136 8.192-5.392 15.778-5.42 32.875.723 39.615h-.002z"/><path stroke="#000" stroke-linecap="round" stroke-miterlimit="10" stroke-width="2.666" d="M74.817 95.755H25.44"/><path fill="#fac20c" d="M16.653 54.095c-1.589 12.934 3.464 27.105-4.669 27.987-8.133.882-9.274-8.644-5.538-9.761 3.737-1.118 4.609 2.131 3.968 3.967-.56 1.194.707 1.705 1.909.392 1.335-1.46 1.194-6.113-2.72-7.431-3.911-1.32-9.343.042-9.597 7.764-.217 6.534 5.66 13.056 15.741 11.007 10.082-2.05 9.855-4.479 18.215.468 2.506 1.483-17.309-34.393-17.309-34.393z"/><path fill="#fac20c" d="M78.247 80.909c-9.603 7.452-8.046 14.195-14.926 14.642-6.88.448-5.919-6.936-11.04-6.6-5.12.337-6.081 6.712-13.761 6.6-7.68-.11-1.84-9.295-11.91-9.92-5.495-.342 30.149-7.977 30.149-7.977l21.485 3.255h.003z"/><path fill="url(#a)" d="M78.247 80.909c-9.603 7.452-8.046 14.195-14.926 14.642-6.88.448-5.919-6.936-11.04-6.6-5.12.337-6.081 6.712-13.761 6.6-7.68-.11-1.84-9.295-11.91-9.92-5.495-.342 30.149-7.977 30.149-7.977l21.485 3.255h.003z" opacity=".5"/><path fill="#ef6122" d="M28.12 26.717c14.333-10.154 31.014-4.608 33.146-3.2 2.132 1.41 5.154-.264 3.456-4.493C59.034 4.86 43.72-.828 40.406.096c-2.9.81 1.138 14.894-1.748 17.747-2.318 2.288-3.896.54-7.837-.782-3.559-1.194-2.7 9.656-2.7 9.656z"/><path stroke="#c15833" stroke-linecap="round" stroke-miterlimit="10" stroke-width="1.809" d="M68.053 59.695c-3.584 2.175-7.66 1.454-10.48-2.284"/><path fill="#e83878" d="M79.24 57.744a1.451 1.451 0 1 0 0-2.902 1.451 1.451 0 0 0 0 2.902zM51.68 57.683a1.451 1.451 0 1 0 0-2.902 1.451 1.451 0 0 0 0 2.902z" opacity=".3"/><path fill="#2d2dea" d="M49.94 53.242h39.268a8.543 8.543 0 0 0 8.544-8.543v-.003a8.543 8.543 0 0 0-8.544-8.543H49.94a8.543 8.543 0 0 0-8.543 8.543v.003a8.543 8.543 0 0 0 8.543 8.543z"/><path fill="#02021c" d="M58.875 51.235h30.04a6.536 6.536 0 1 0 0-13.072h-30.04a6.536 6.536 0 1 0 0 13.072z"/><path fill="#2a93f2" d="M81.065 51.198a3.72 3.72 0 1 0 0-7.442 3.72 3.72 0 0 0 0 7.442zM70.38 51.2a3.72 3.72 0 1 0-.001-7.441 3.72 3.72 0 0 0 0 7.441z"/><path fill="#02021c" d="M64.74 51.177h22v-2.3h-22v2.3z"/><path fill="#f99f10" d="M85.082 72.087c3.543.39 4.19 4.712 3.149 7.42-1.216 3.16-3.774 4.302-7.344 3.984"/><path fill="#fff" stroke="#aeaeb5" stroke-width=".889" d="m71 78.35 13.923-7.325.01-.058a2.545 2.545 0 0 0-2.03-2.969l-2.458-.46-1.663-.313-12.959-2.428-1.33-.25-2.782-.521a2.545 2.545 0 0 0-2.97 2.031l-.007.045L69.06 77.985c.479.546 1.297.7 1.94.363v.003z"/><path fill="#f1f2f2" stroke="#aeaeb5" stroke-width=".889" d="m58.734 66.105-2.46 13.127c-.003.016-.003.032-.005.048l9.486-5.095-7.02-8.08zM82.468 84.14l2.37-12.898L75.48 76l6.984 8.178s-.29-.34.008-.035l-.003-.002z"/><path fill="#dedede" stroke="#aeaeb5" stroke-width=".889" d="m75.476 75.996-4.475 2.355a1.62 1.62 0 0 1-1.941-.363l-3.303-3.8-9.486 5.095a2.541 2.541 0 0 0 2.04 2.92l21.19 3.97a2.543 2.543 0 0 0 2.962-1.996l-6.984-8.178-.003-.003z"/><path fill="#f99f10" d="M54.127 69c4.92.85 8.185 4.11 7.584 7.775-.598 3.666-5.166 3.668-9.711 2.895M85.308 72.174c-2.215-.265-4.598 1.423-4.761 4.358-.163 2.933 2.146 4.255 3.116 4.339"/><defs><linearGradient id="a" x1="52.143" x2="52.143" y1="95.032" y2="85.202" gradientUnits="userSpaceOnUse"><stop stop-color="#f49314"/><stop offset=".59" stop-color="#f49314" stop-opacity=".4"/><stop offset="1" stop-color="#f49314" stop-opacity="0"/></linearGradient></defs></svg>