<svg xmlns="http://www.w3.org/2000/svg" fill="none" viewBox="0 0 161 19"><path fill="#EF5B3E" fill-rule="evenodd" d="M11.509 3.65c-1.371.802-2.367 2.23-2.367 4.265v1.62L7.67 8.81c-1.922-.946-4.133-.185-5.171 1.604-.621 1.069-.654 2.7.11 4.08.732 1.32 2.213 2.433 4.702 2.433h12.612c1.644 0 2.707-.448 3.345-1.002a2.615 2.615 0 0 0 .928-2.002c0-.754-.313-1.595-.923-2.196-.583-.574-1.488-.98-2.817-.816l-1.432.176.313-1.387c.373-1.652.257-3.019-.235-4.07-.485-1.032-1.381-1.865-2.79-2.385-1.588-.586-3.402-.414-4.803.405ZM10.47 1.928C12.403.8 14.86.571 17.026 1.37c1.845.681 3.186 1.85 3.922 3.422.572 1.218.749 2.613.585 4.1 1.312.109 2.386.64 3.178 1.419a5.14 5.14 0 0 1 1.52 3.612 4.604 4.604 0 0 1-1.617 3.504c-1.091.948-2.673 1.502-4.69 1.502H7.31c-3.207 0-5.387-1.49-6.487-3.476C-.242 13.53-.275 11.155.732 9.421 2.035 7.176 4.655 5.959 7.23 6.54c.38-2.085 1.618-3.663 3.241-4.612Z" clip-rule="evenodd"/><path fill="#EF5B3E" d="M109.759 10.612c0-4.232 3.36-7.8 7.634-7.8 2.365 0 4.439 1.037 5.767 2.696l-1.659 1.328a5.35 5.35 0 0 0-4.108-1.95c-3.029 0-5.394 2.614-5.394 5.684 0 3.07 2.324 5.643 5.394 5.643 1.66 0 3.153-.747 4.108-1.95l1.659 1.328c-1.328 1.66-3.402 2.697-5.767 2.697-4.232.041-7.634-3.444-7.634-7.676ZM124.114 2.397h2.116V18.08h-2.116V2.397ZM127.558 12.977c0-3.236 2.448-5.352 5.353-5.352 2.904 0 5.352 2.116 5.352 5.352s-2.448 5.352-5.352 5.352c-2.905 0-5.353-2.116-5.353-5.352Zm8.589 0c0-1.95-1.494-3.32-3.236-3.32-1.743 0-3.195 1.37-3.195 3.32 0 1.991 1.452 3.36 3.195 3.36 1.742 0 3.236-1.369 3.236-3.36ZM148.968 7.915V18.08h-2.158v-1.535c-.581 1.244-2.24 1.825-3.278 1.825-2.572 0-4.107-1.7-4.107-4.605V7.956h2.116v5.767c0 1.66.996 2.697 2.323 2.697 1.328 0 2.946-.788 2.946-2.904V7.915h2.158ZM161 2.397V18.08h-2.116v-1.535c-.664 1.162-2.116 1.784-3.485 1.784-2.78 0-5.062-2.116-5.062-5.352s2.282-5.353 5.02-5.353c1.453 0 2.863.623 3.527 1.785V2.397H161Zm-2.157 10.58c0-2.033-1.66-3.32-3.237-3.32-1.742 0-3.153 1.411-3.153 3.32 0 1.908 1.411 3.36 3.153 3.36 1.701 0 3.237-1.327 3.237-3.36ZM47.024 10.778c-.166 4.066-3.36 7.26-7.385 7.26-4.232 0-7.344-3.402-7.344-7.55 0-4.15 3.402-7.594 7.551-7.594 1.867 0 3.693.789 5.27 2.24L43.911 6.63c-1.203-1.038-2.614-1.743-4.024-1.743-3.03 0-5.519 2.49-5.519 5.56 0 3.112 2.365 5.518 5.353 5.518 2.697 0 4.813-1.95 5.228-4.522h-6.1V9.657h8.257l-.083 1.12ZM54.036 9.782h-1.12c-1.245 0-2.24.995-2.24 2.24v5.892h-1.992V7.873h1.66v.83c.539-.54 1.41-.83 2.364-.83h2.158l-.83 1.909ZM64.99 17.914h-1.701v-1.286c-1.328 1.286-3.403 1.908-5.519.995-1.576-.705-2.738-2.116-3.028-3.817-.581-3.236 1.908-6.14 5.103-6.14 1.328 0 2.572.539 3.444 1.41V7.79h1.742l-.041 10.124Zm-2.033-4.315c.456-2.033-1.079-3.9-3.07-3.9a3.152 3.152 0 0 0-3.154 3.153c0 1.95 1.701 3.485 3.734 3.112 1.162-.166 2.2-1.12 2.49-2.365ZM69.056 7.292v.581h3.195v1.784h-3.195v8.299h-1.992V7.416c0-2.198 1.577-3.526 3.569-3.526h2.406l-.788 1.909h-1.618c-.872-.083-1.577.622-1.577 1.493ZM82.914 17.914h-1.701v-1.286c-1.328 1.286-3.403 1.908-5.519.995-1.576-.705-2.738-2.116-3.029-3.817-.58-3.236 1.91-6.14 5.104-6.14 1.328 0 2.572.539 3.444 1.41V7.79h1.742l-.041 10.124Zm-2.075-4.315c.457-2.033-1.079-3.9-3.07-3.9a3.152 3.152 0 0 0-3.153 3.153c0 1.95 1.7 3.485 3.734 3.112 1.203-.166 2.199-1.12 2.49-2.365ZM93.66 11.98v5.934h-2.033v-5.933c0-1.245-1.037-2.24-2.24-2.24-1.287 0-2.282.995-2.282 2.24v5.933h-1.992V7.874h1.66v.87c.705-.663 1.7-1.037 2.697-1.037 2.323 0 4.19 1.909 4.19 4.274ZM105.485 17.914h-1.701v-1.286c-1.328 1.286-3.402 1.908-5.518.995-1.577-.705-2.739-2.116-3.029-3.817-.58-3.236 1.909-6.14 5.103-6.14 1.328 0 2.573.539 3.444 1.41V7.79h1.743l-.042 10.124Zm-2.074-4.315c.456-2.033-1.079-3.9-3.071-3.9a3.152 3.152 0 0 0-3.153 3.153c0 1.95 1.701 3.485 3.734 3.112 1.204-.166 2.199-1.12 2.49-2.365Z"/></svg>