<svg width="1440" height="499" viewBox="0 0 1440 499" fill="none" xmlns="http://www.w3.org/2000/svg">
<mask id="mask0_1183_540" style="mask-type:alpha" maskUnits="userSpaceOnUse" x="0" y="0" width="1440" height="499">
<path opacity="0.3" d="M0 30C0 13.4315 13.4315 0 30 0H1410C1426.57 0 1440 13.4315 1440 30V499H0V30Z" fill="url(#paint0_linear_1183_540)"/>
</mask>
<g mask="url(#mask0_1183_540)">
<path opacity="0.2" d="M1285.79 248.936C1301.75 248.92 1317.48 245.081 1331.71 237.727C1345.95 230.373 1358.29 219.71 1367.75 206.596C1377.21 193.483 1383.52 178.286 1386.17 162.228C1388.83 146.171 1387.75 129.702 1383.02 114.149C1398.26 118.982 1414.41 120.092 1430.15 117.389C1445.89 114.687 1460.79 108.248 1473.64 98.5907C1486.5 88.9336 1496.95 76.329 1504.15 61.7931C1511.36 47.2572 1515.12 31.1968 1515.12 14.9066L1515.12 -89L1413.33 -89C1397.38 -88.9878 1381.65 -85.1513 1367.41 -77.7993C1353.17 -70.4473 1340.83 -59.7855 1331.37 -46.6726C1321.9 -33.5597 1315.59 -18.3624 1312.94 -2.30469C1310.29 13.753 1311.37 30.2221 1316.09 45.7761C1300.85 40.9525 1284.71 39.8495 1268.97 42.5559C1253.24 45.2624 1238.34 51.7027 1225.49 61.3581C1212.64 71.0136 1202.19 83.6142 1194.98 98.1453C1187.78 112.676 1184.02 128.732 1184 145.018L1184 248.936L1285.79 248.936ZM1339.1 14.9176C1339.09 4.97098 1341.01 -4.87857 1344.74 -14.0682C1348.47 -23.2579 1353.94 -31.6076 1360.83 -38.6404C1367.72 -45.6733 1375.9 -51.2514 1384.91 -55.0561C1393.91 -58.8609 1403.57 -60.8177 1413.31 -60.8149L1487.52 -60.8149L1487.52 14.9286C1487.64 24.9515 1485.8 34.8986 1482.13 44.1935C1478.45 53.4884 1473 61.9462 1466.1 69.0765C1459.2 76.2068 1450.98 81.8679 1441.91 85.7316C1432.85 89.5954 1423.13 91.5849 1413.31 91.5849C1403.49 91.5849 1393.76 89.5954 1384.7 85.7316C1375.64 81.8679 1367.42 76.2068 1360.51 69.0765C1353.61 61.9461 1348.16 53.4884 1344.49 44.1935C1340.81 34.8986 1338.98 24.9514 1339.1 14.9286L1339.1 14.9176ZM1211.56 145.007C1211.57 130.025 1215.92 115.38 1224.08 102.923C1232.24 90.4669 1243.83 80.759 1257.39 75.027C1270.96 69.295 1285.88 67.7964 1300.28 70.7206C1314.68 73.6449 1327.9 80.8607 1338.28 91.4556C1348.66 102.05 1355.73 115.549 1358.59 130.243C1361.46 144.938 1359.99 160.169 1354.37 174.011C1348.75 187.852 1339.23 199.683 1327.03 208.006C1314.82 216.33 1300.47 220.773 1285.79 220.773L1211.56 220.773L1211.56 145.007Z" fill="#020A47"/>
</g>
<path opacity="0.3" d="M0 30C0 13.4315 13.4315 0 30 0H1410C1426.57 0 1440 13.4315 1440 30V485H0V30Z" fill="url(#paint1_linear_1183_540)"/>
<path opacity="0.2" d="M1343.74 280C1334.1 280.002 1324.68 282.921 1316.66 288.389C1308.65 293.857 1302.4 301.628 1298.71 310.719C1295.02 319.81 1294.06 329.813 1295.94 339.464C1297.82 349.114 1302.46 357.979 1309.28 364.937C1316.1 371.894 1324.78 376.633 1334.24 378.553C1343.69 380.473 1353.5 379.489 1362.4 375.724C1371.31 371.959 1378.93 365.584 1384.28 357.403C1389.64 349.222 1392.5 339.604 1392.5 329.764C1392.5 323.229 1391.24 316.757 1388.79 310.719C1386.34 304.681 1382.75 299.194 1378.22 294.573C1373.7 289.952 1368.32 286.286 1362.4 283.785C1356.49 281.285 1350.15 279.999 1343.74 280V280ZM1343.74 354.632C1338.92 354.63 1334.21 353.169 1330.2 350.434C1326.19 347.699 1323.07 343.812 1321.23 339.266C1319.38 334.719 1318.9 329.717 1319.85 324.892C1320.79 320.067 1323.11 315.635 1326.52 312.157C1329.93 308.679 1334.28 306.311 1339.01 305.353C1343.73 304.395 1348.64 304.89 1353.09 306.775C1357.54 308.659 1361.35 311.85 1364.02 315.942C1366.7 320.034 1368.13 324.844 1368.13 329.764C1368.12 336.362 1365.55 342.687 1360.98 347.35C1356.41 352.013 1350.21 354.632 1343.74 354.632V354.632Z" fill="#CCEEF1"/>
<path opacity="0.05" d="M117.683 115C110.823 115.001 104.117 117.079 98.4131 120.97C92.7094 124.86 88.2641 130.39 85.6393 136.859C83.0146 143.327 82.3282 150.445 83.6669 157.312C85.0057 164.179 88.3094 170.487 93.1605 175.438C98.0116 180.389 104.192 183.761 110.921 185.127C117.649 186.493 124.624 185.793 130.962 183.114C137.301 180.435 142.719 175.898 146.531 170.077C150.343 164.256 152.379 157.412 152.38 150.411C152.381 145.76 151.484 141.155 149.741 136.859C147.998 132.562 145.442 128.658 142.22 125.37C138.998 122.081 135.172 119.473 130.962 117.694C126.752 115.914 122.24 114.999 117.683 115V115ZM117.683 168.106C114.253 168.104 110.9 167.065 108.048 165.119C105.196 163.172 102.974 160.407 101.663 157.172C100.351 153.936 100.009 150.377 100.68 146.944C101.35 143.51 103.003 140.356 105.43 137.882C107.857 135.407 110.948 133.722 114.313 133.041C117.678 132.359 121.165 132.711 124.334 134.052C127.503 135.393 130.211 137.663 132.116 140.575C134.021 143.487 135.037 146.91 135.035 150.411C135.032 155.105 133.202 159.606 129.948 162.924C126.694 166.242 122.283 168.106 117.683 168.106V168.106Z" fill="#020A47"/>
<path opacity="0.05" d="M162.996 232C159.041 232.001 155.175 233.204 151.886 235.457C148.598 237.709 146.035 240.911 144.522 244.657C143.008 248.403 142.613 252.524 143.384 256.5C144.156 260.477 146.061 264.129 148.858 266.996C151.655 269.862 155.218 271.815 159.097 272.606C162.976 273.397 166.998 272.991 170.652 271.44C174.306 269.889 177.43 267.262 179.628 263.892C181.826 260.521 182.999 256.558 183 252.504C183.001 249.811 182.483 247.145 181.478 244.657C180.473 242.169 179 239.908 177.142 238.004C175.285 236.1 173.079 234.59 170.652 233.56C168.225 232.529 165.623 231.999 162.996 232V232ZM162.996 262.75C161.018 262.749 159.085 262.147 157.441 261.02C155.797 259.893 154.516 258.292 153.76 256.419C153.004 254.546 152.806 252.485 153.193 250.496C153.58 248.508 154.533 246.682 155.932 245.249C157.331 243.816 159.113 242.841 161.053 242.446C162.993 242.051 165.003 242.255 166.83 243.032C168.657 243.808 170.219 245.123 171.317 246.809C172.415 248.495 173.001 250.477 173 252.504C172.998 255.222 171.943 257.828 170.067 259.75C168.191 261.671 165.648 262.75 162.996 262.75V262.75Z" fill="#020A47"/>
<defs>
<linearGradient id="paint0_linear_1183_540" x1="720" y1="0" x2="720" y2="499" gradientUnits="userSpaceOnUse">
<stop stop-color="#5EE4E4"/>
<stop offset="1" stop-color="white" stop-opacity="0"/>
</linearGradient>
<linearGradient id="paint1_linear_1183_540" x1="720" y1="0" x2="720" y2="485" gradientUnits="userSpaceOnUse">
<stop stop-color="#5EE4E4"/>
<stop offset="1" stop-color="white" stop-opacity="0"/>
</linearGradient>
</defs>
</svg>
