<?xml version="1.0" encoding="UTF-8"?> <!-- Generator: Adobe Illustrator 26.0.2, SVG Export Plug-In . SVG Version: 6.00 Build 0) --> <svg xmlns="http://www.w3.org/2000/svg" xmlns:xlink="http://www.w3.org/1999/xlink" version="1.1" id="Layer_1" x="0px" y="0px" viewBox="0 0 512 512" style="enable-background:new 0 0 512 512;" xml:space="preserve"> <style type="text/css"> .st0{fill:#020A47;} .st1{fill:none;stroke:#020A47;stroke-width:35;stroke-linecap:round;stroke-linejoin:round;stroke-miterlimit:10;} .st2{fill:none;stroke:#020A47;stroke-width:20;stroke-linecap:round;stroke-linejoin:round;stroke-miterlimit:10;} .st3{fill:#5EE4E4;stroke:#020A47;stroke-width:20;stroke-linecap:round;stroke-linejoin:round;stroke-miterlimit:10;} </style> <g> <circle class="st0" cx="280.8" cy="144.6" r="21.6"></circle> <circle class="st0" cx="332.5" cy="144.6" r="21.6"></circle> <circle class="st0" cx="384.2" cy="144.6" r="21.6"></circle> <path class="st1" d="M414,415.4H98c-10.7,0-19.4-8.7-19.4-19.4V116c0-10.7,8.7-19.4,19.4-19.4H414c10.7,0,19.4,8.7,19.4,19.4v280 C433.4,406.7,424.7,415.4,414,415.4z"></path> </g> <g> <g> <path class="st2" d="M168.8,406.1c-3.6-6.7-6.7-14.3-9-21.9l-26-5.4c-2.7-0.9-4.5-1.8-4.5-4.5v-35.8c0-2.7,1.3-3.6,4.5-4.5 l26.4-5.8c2.2-7.6,5.4-14.8,9-21.9l-14.3-22.8c-1.3-2.7-1.8-4.5,0-6.3l25.5-25.5c1.8-1.8,3.6-1.8,6.3,0l22.8,14.3 c6.7-4,14.3-6.7,21.9-9l5.4-26c0.9-2.7,1.8-4.5,4.5-4.5h35.8c2.7,0,3.6,1.3,4.5,4.5l5.8,26.4c7.6,2.2,14.8,5.4,21.9,9l22.8-14.3 c2.7-1.3,4.5-1.8,6.3,0l25.5,25.5c1.8,1.8,1.8,3.6,0,6.3l-14.3,22.8c4,6.7,6.7,14.3,9,21.9l26,5.4c2.7,0.9,4.5,1.8,4.5,4.5v35.8 c0,2.7-1.3,3.6-4.5,4.5l-26.4,5.8c-2.2,7.6-5.4,14.8-9,21.9"></path> </g> </g> <circle class="st3" cx="259.2" cy="356.4" r="51.5"></circle> </svg> 