<?xml version="1.0" encoding="utf-8"?>
<!-- Generator: Adobe Illustrator 26.0.2, SVG Export Plug-In . SVG Version: 6.00 Build 0)  -->
<svg version="1.1" id="Layer_1" xmlns="http://www.w3.org/2000/svg" xmlns:xlink="http://www.w3.org/1999/xlink" x="0px" y="0px"
	 viewBox="0 0 512 512" style="enable-background:new 0 0 512 512;" xml:space="preserve">
<style type="text/css">
	
		.st0{fill-rule:evenodd;clip-rule:evenodd;fill:none;stroke:#020A47;stroke-width:20;stroke-linecap:round;stroke-linejoin:round;stroke-miterlimit:10;}
	.st1{fill:none;stroke:#020A47;stroke-width:20;stroke-linecap:round;stroke-linejoin:round;stroke-miterlimit:10;}
	.st2{fill:none;stroke:#5EE4E4;stroke-width:35;stroke-linecap:round;stroke-linejoin:round;stroke-miterlimit:10;}
</style>
<g>
	<polyline class="st0" points="442.7,258.9 442.7,408.1 79.2,408.1 79.2,258.9 	"/>
	<g>
		<line class="st1" x1="127.5" y1="258.9" x2="127.5" y2="398.9"/>
		<line class="st1" x1="180.9" y1="206.9" x2="180.9" y2="398.9"/>
		<line class="st1" x1="234.3" y1="258.9" x2="234.3" y2="398.9"/>
		<line class="st1" x1="287.7" y1="249.7" x2="287.7" y2="398.9"/>
		<line class="st1" x1="341" y1="161.4" x2="341" y2="398.9"/>
		<line class="st1" x1="394.4" y1="240.2" x2="394.4" y2="398.9"/>
	</g>
	<path class="st2" d="M46.5,222H82c0,0,21.3,0.9,30.7-5c9.4-5.9,16.3-10.2,30.4-36.6c9.9-21,21.6-27.2,37.8-27.2
		c11.9,0,20.8,4.7,28.2,14.3c4.8,6.2,7.1,13.6,9.7,21c3.7,10.5,13.2,29.5,33.7,29.5c0,0,30.5,4.3,35.8-54c0.4-4.6,1.1-9.2,2.2-13.6
		c9.4-38.2,35.4-48.4,50.7-48.4c19.6,0,36.7,9.3,49.4,36.1c4.3,9.1,7.4,18.7,9.3,28.6c3.3,17.1,11.2,45.1,41.8,55.6
		c11.6,4,24,3,24,3"/>
</g>
</svg>
