<svg xmlns="http://www.w3.org/2000/svg" xmlns:xlink="http://www.w3.org/1999/xlink" viewBox="0 0 125.33 17.871">
  <defs>
    <path id="b" fill="#f25022" d="M0 0h8.494v8.494H0z" data-name="Rectangle 2790"/>
    <path id="c" fill="#7fba00" d="M9.378 0h8.494v8.494H9.378z" data-name="Rectangle 2791"/>
    <path id="d" fill="#00a4ef" d="M0 9.378h8.494v8.494H0z" data-name="Rectangle 2792"/>
    <path id="e" fill="#ffb900" d="M9.378 9.378h8.494v8.494H9.378z" data-name="Rectangle 2793"/>
  </defs>
  <defs>
    <clipPath id="a">
      <path fill="none" d="M0 0h125.33v17.871H0z" data-name="Rectangle 2798"/>
    </clipPath>
  </defs>
  <g data-name="Microsoft Azure">
    <path fill="#fff" d="m93.192 3.733 4.214 10.412h-2.138l-.991-2.585h-4.409l-.952 2.585h-2.124l4.212-10.412Zm-1.155 1.931-1.655 4.386h3.356l-1.646-4.39Z" data-name="Path 16007"/>
    <path fill="#fff" d="M97.975 6.392h6.22v.735l-4.083 5.6h4.106v1.454h-6.53v-.871l4.023-5.462h-3.735Z" data-name="Path 16008"/>
    <g data-name="Group 2941">
      <g clip-path="url(#a)" data-name="Group 2940">
        <path fill="#fff" d="M112.066 6.61v7.688h-1.825v-1.01h-.03a2.447 2.447 0 0 1-.961.819 3.024 3.024 0 0 1-1.35.3 2.632 2.632 0 0 1-2.038-.759 3.393 3.393 0 0 1-.7-2.359V6.61h1.836v4.457a2.338 2.338 0 0 0 .385 1.462 1.388 1.388 0 0 0 1.163.49 1.543 1.543 0 0 0 1.234-.542 2.105 2.105 0 0 0 .463-1.417V6.61Z" data-name="Path 16009"/>
        <path fill="#fff" d="M117.514 6.483a2.292 2.292 0 0 1 .389.03 1.667 1.667 0 0 1 .292.075V8.42a1.573 1.573 0 0 0-.415-.2 2.056 2.056 0 0 0-.662-.093 1.4 1.4 0 0 0-1.125.561 2.7 2.7 0 0 0-.46 1.728v3.881h-1.81V6.61h1.81v1.212h.03a2.122 2.122 0 0 1 .748-.983 2.028 2.028 0 0 1 1.2-.355" data-name="Path 16010"/>
        <path fill="#fff" d="M124.709 12.357v1.488a3.928 3.928 0 0 1-1.174.46 6.556 6.556 0 0 1-1.548.176 3.566 3.566 0 0 1-2.733-1.04 4.062 4.062 0 0 1-.976-2.894 4.224 4.224 0 0 1 1.043-2.943 3.406 3.406 0 0 1 2.644-1.147 3.179 3.179 0 0 1 2.479.976 3.864 3.864 0 0 1 .886 2.7v.875h-5.265a2.18 2.18 0 0 0 .744 1.619 2.65 2.65 0 0 0 1.612.46 3.88 3.88 0 0 0 1.241-.2 4.037 4.037 0 0 0 1.047-.52m-1.159-2.685a2.01 2.01 0 0 0-.415-1.368 1.478 1.478 0 0 0-1.17-.471 1.692 1.692 0 0 0-1.167.467 2.389 2.389 0 0 0-.688 1.372Z" data-name="Path 16011"/>
        <path fill="#fff" d="M34.836 3.576v10.721h-1.862V5.892h-.03l-3.328 8.405h-1.231l-3.41-8.405h-.022v8.405h-1.717V3.576h2.67l3.081 7.949h.045l3.249-7.949Zm1.557.815a.985.985 0 0 1 .325-.752 1.1 1.1 0 0 1 .774-.3 1.082 1.082 0 0 1 .793.31 1.009 1.009 0 0 1 .314.744.971.971 0 0 1-.322.74 1.11 1.11 0 0 1-.785.3 1.089 1.089 0 0 1-.781-.3.98.98 0 0 1-.318-.737m2 9.908h-1.81V6.61h1.81Zm5.489-1.316a2.5 2.5 0 0 0 .89-.187 3.738 3.738 0 0 0 .9-.493v1.682a3.625 3.625 0 0 1-.983.374 5.351 5.351 0 0 1-1.208.127 3.657 3.657 0 0 1-3.821-3.813 4.383 4.383 0 0 1 1.084-3.055 3.928 3.928 0 0 1 3.073-1.2 4.2 4.2 0 0 1 1.028.131 3.441 3.441 0 0 1 .826.3v1.735a3.7 3.7 0 0 0-.856-.475 2.474 2.474 0 0 0-.893-.168 2.268 2.268 0 0 0-1.727.7 2.619 2.619 0 0 0-.658 1.877 2.5 2.5 0 0 0 .632 1.817 2.281 2.281 0 0 0 1.716.651m6.939-6.5a2.294 2.294 0 0 1 .389.03 1.628 1.628 0 0 1 .292.075v1.832a1.586 1.586 0 0 0-.415-.2 2.056 2.056 0 0 0-.662-.093 1.4 1.4 0 0 0-1.125.561 2.694 2.694 0 0 0-.46 1.727v3.881h-1.81V6.61h1.81v1.211h.03a2.12 2.12 0 0 1 .748-.983 2.029 2.029 0 0 1 1.2-.355m.778 4.083a4.163 4.163 0 0 1 1.077-3.021 3.965 3.965 0 0 1 2.991-1.114 3.685 3.685 0 0 1 2.815 1.073 4.05 4.05 0 0 1 1.013 2.9 4.085 4.085 0 0 1-1.077 2.976 3.9 3.9 0 0 1-2.931 1.107 3.834 3.834 0 0 1-2.838-1.05 3.875 3.875 0 0 1-1.051-2.868m1.885-.06a2.747 2.747 0 0 0 .546 1.84 1.947 1.947 0 0 0 1.563.635 1.822 1.822 0 0 0 1.5-.635 2.94 2.94 0 0 0 .516-1.885 2.837 2.837 0 0 0-.535-1.873 1.856 1.856 0 0 0-1.5-.632 1.9 1.9 0 0 0-1.544.662 2.881 2.881 0 0 0-.55 1.888m8.7-1.877a.776.776 0 0 0 .247.61 4.216 4.216 0 0 0 1.092.557 3.7 3.7 0 0 1 1.522.976 2.024 2.024 0 0 1 .437 1.312 2.11 2.11 0 0 1-.834 1.742 3.542 3.542 0 0 1-2.255.658 5.423 5.423 0 0 1-1.058-.116 4.7 4.7 0 0 1-.983-.3v-1.78a4.454 4.454 0 0 0 1.062.546 3.108 3.108 0 0 0 1.032.2 1.837 1.837 0 0 0 .9-.172.614.614 0 0 0 .292-.576.8.8 0 0 0-.3-.632 4.483 4.483 0 0 0-1.148-.594 3.546 3.546 0 0 1-1.421-.942 2.063 2.063 0 0 1-.419-1.331 2.1 2.1 0 0 1 .826-1.709 3.3 3.3 0 0 1 2.142-.669 5.177 5.177 0 0 1 .9.09 4.01 4.01 0 0 1 .837.232v1.72a3.864 3.864 0 0 0-.837-.411 2.794 2.794 0 0 0-.95-.172 1.383 1.383 0 0 0-.8.2.64.64 0 0 0-.288.554m4.075 1.937a4.163 4.163 0 0 1 1.077-3.021 3.965 3.965 0 0 1 2.991-1.114A3.686 3.686 0 0 1 73.134 7.5a4.05 4.05 0 0 1 1.013 2.9 4.086 4.086 0 0 1-1.077 2.976 3.9 3.9 0 0 1-2.932 1.107 3.834 3.834 0 0 1-2.838-1.05 3.875 3.875 0 0 1-1.051-2.868m1.884-.06a2.748 2.748 0 0 0 .546 1.84 1.947 1.947 0 0 0 1.563.635 1.822 1.822 0 0 0 1.5-.635 2.939 2.939 0 0 0 .516-1.885 2.837 2.837 0 0 0-.535-1.873 1.857 1.857 0 0 0-1.5-.632 1.9 1.9 0 0 0-1.544.662 2.881 2.881 0 0 0-.55 1.888M80.145 8.09h-2.7v6.207h-1.809V8.09H74.35V6.61h1.286V5.54a2.66 2.66 0 0 1 .789-1.985 2.767 2.767 0 0 1 2.023-.774 4.515 4.515 0 0 1 .583.034 2.325 2.325 0 0 1 .449.1v1.561a1.881 1.881 0 0 0-.314-.127 1.637 1.637 0 0 0-.516-.075 1.093 1.093 0 0 0-.875.355 1.568 1.568 0 0 0-.307 1.05v.927h2.7V4.882l1.817-.553V6.61h1.832v1.481h-1.832v3.6a1.516 1.516 0 0 0 .258 1 1.03 1.03 0 0 0 .811.292 1.21 1.21 0 0 0 .378-.075 1.781 1.781 0 0 0 .385-.179v1.5a2.126 2.126 0 0 1-.572.179 3.908 3.908 0 0 1-.789.082 2.243 2.243 0 0 1-1.72-.614 2.6 2.6 0 0 1-.572-1.836Z" data-name="Path 16012"/>
        <use xlink:href="#b" data-name="Rectangle 2790"/>
        <use xlink:href="#c" data-name="Rectangle 2791"/>
        <use xlink:href="#d" data-name="Rectangle 2792"/>
        <use xlink:href="#e" data-name="Rectangle 2793"/>
        <use xlink:href="#b" data-name="Rectangle 2794"/>
        <use xlink:href="#c" data-name="Rectangle 2795"/>
        <use xlink:href="#d" data-name="Rectangle 2796"/>
        <use xlink:href="#e" data-name="Rectangle 2797"/>
      </g>
    </g>
  </g>
</svg>
