<svg xmlns="http://www.w3.org/2000/svg" viewBox="0 0 842.1 657"><path d="M391.5,208.5c155.7-2.3,155.7,242.3,0,240C235.8,450.8,235.8,206.2,391.5,208.5Z" fill="#f5f5f5" stroke="#006" stroke-width="7"/><path d="M623.7,328.5c-4.2.8-18.2,12.7-9.8,0C605,315.3,619.7,328,623.7,328.5Z" fill="none"/><path d="M511.5,328.5c1.1-1.3,34.9.3,102.4,0m-102.4,0c-2.1,2.2,33.6-1.2,102.4,0" fill="none" stroke="#006" stroke-linecap="round" stroke-linejoin="round" stroke-width="7"/><path d="M610.9,321.7h0m0,0h0" fill="none" stroke="#006" stroke-linecap="round" stroke-linejoin="round" stroke-width="3.5"/><path d="M623.7,328.5c-2.3.2-7.2,4.3-13,6.5m13-6.5c-3.3,1.3-7.4,4.4-13,6.5m0,0c.6-1.9,2.5-3.4,3.2-6.5m-3.2,6.5c1.1-2,2-4.6,3.2-6.5m0,0c-.1-1.5-1.5-2.6-3.2-6.5m3.2,6.5a35.7,35.7,0,0,1-3.2-6.5m0,0c5.6,2.9,7.7,3.3,13,6.5m-13-6.5c4,1.9,7.3,4.1,13,6.5" fill="none" stroke="#006" stroke-linecap="round" stroke-linejoin="round" stroke-width="7"/><path d="M391.5,150.5c3.9,0,3.9,6.1,0,6S387.6,150.5,391.5,150.5Z" fill="none"/><path d="M391.5,202.9c-5.1-9.9-8.2-12,5.5-11Z" fill="none"/><path d="M391.5,156.5c1.1-.6,1.5,13.8,0,35.4m0-35.4c.1,1.4,2.1,13.9,0,35.4" fill="none" stroke="#006" stroke-linecap="round" stroke-linejoin="round" stroke-width="5"/><path d="M389.1,150.1h0m0,0h0" fill="none" stroke="#006" stroke-linecap="round" stroke-linejoin="round" stroke-width="2.5"/><path d="M392.5,151.2c9.1,3.3-9.2,8-3.6-.9.9-.4,5.7,2.1,4.3.1m-1.6-.8c11.2,8-7.7,6.6-1.9.8,1.8,2.8,2.3.7,1.7,1.3" fill="none" stroke="#006" stroke-linecap="round" stroke-linejoin="round" stroke-width="5"/><path d="M385.7,192.2h0m0,0h0" fill="none" stroke="#006" stroke-linecap="round" stroke-linejoin="round" stroke-width="2.5"/><path d="M391.5,202.9c-1.3-4.3-3.5-7.2-5.5-11m5.5,11c-1.8-2.2-2.3-5.4-5.5-11m0,0c3.4-1.1,4.8-1,11,0m-11,0c2.6.5,4.7-.2,11,0m0,0a34.3,34.3,0,0,0-5.5,11m5.5-11a77,77,0,0,0-5.5,11" fill="none" stroke="#006" stroke-linecap="round" stroke-linejoin="round" stroke-width="5"/><path d="M259.8,199.3c-6.2,30,39.5,21.3,46.8,27.8" fill="none"/><path d="M259.8,193.3c3.9,0,3.9,6.1,0,6S255.9,193.3,259.8,193.3Z" fill="none"/><path d="M306.6,238.1c-5-10-8.2-12.1,5.5-11Z" fill="none"/><path d="M259.8,199.3c1,16.2,6.1,23.9,23.4,24.2m-23.4-24.2c-2.3,16.8,8,25,23.4,24.2m0,0c17.5-.2,25.2,3.2,23.4,3.6m-23.4-3.6c14.5-.2,25.3,2.3,23.4,3.6" fill="none" stroke="#006" stroke-linecap="round" stroke-linejoin="round" stroke-width="5"/><path d="M257.5,194.7h0m0,0h0" fill="none" stroke="#006" stroke-linecap="round" stroke-linejoin="round" stroke-width="2.5"/><path d="M258.7,194.6c4.8-1.9,5,.5,3.8,4.5-2.4-.8-4.6,1.6-4.7-2.2s.3-2.4,2-3m.1-.6c8.2-.5,2.2,8.1-3,5.6-.4-3.3.7-8,4.3-5.5" fill="none" stroke="#006" stroke-linecap="round" stroke-linejoin="round" stroke-width="5"/><path d="M301,227.2h0m0,0h0" fill="none" stroke="#006" stroke-linecap="round" stroke-linejoin="round" stroke-width="2.5"/><path d="M306.6,238.1c-2.2-4.9-3.7-7.7-5.5-11m5.5,11c-2.3-4.2-3.8-8-5.5-11m0,0c4.1.3,6.9-.2,11,0m-11,0a50.5,50.5,0,0,1,11,0m0,0c-2.2,4.3-4.2,9-5.5,11m5.5-11a66.1,66.1,0,0,1-5.5,11" fill="none" stroke="#006" stroke-linecap="round" stroke-linejoin="round" stroke-width="5"/><path d="M162.8,238.5c77.5-9.9,28.5,91.8,92.1,90" fill="none"/><path d="M159.8,235.5c3.9,0,3.9,6.1,0,6S155.9,235.5,159.8,235.5Z" fill="none"/><path d="M265.9,328.5c-10,5.1-12.1,8.2-11-5.5Z" fill="none"/><path d="M162.8,238.5c36.3.8,52,16.4,52.8,45m-52.8-45c35.2,0,51.1,14.5,52.8,45m0,0c-1.6,28.2,11.7,43.8,39.3,45m-39.3-45c-2.1,31.8,12,47.3,39.3,45" fill="none" stroke="#006" stroke-linecap="round" stroke-linejoin="round" stroke-width="5"/><path d="M157.4,236.2h0m0,0h0" fill="none" stroke="#006" stroke-linecap="round" stroke-linejoin="round" stroke-width="2.5"/><path d="M159.6,234.7c7.7,3-.2,11.3-2.4,3.3-1.4-3.6,3.5,0,3.7-2.7m-.9,1.3c4.4-1.6,1.3-1,1.4,2.3-.6,9.8-8.8-3.5-1.7-4.1" fill="none" stroke="#006" stroke-linecap="round" stroke-linejoin="round" stroke-width="5"/><path d="M254.6,323.3h0m0,0h0" fill="none" stroke="#006" stroke-linecap="round" stroke-linejoin="round" stroke-width="2.5"/><path d="M265.9,328.5c-3.3.9-4.4,2-11,5.5m11-5.5c-3.7,1.7-6.9,3.7-11,5.5m0,0c-.4-3.6.9-5.2,0-11m0,11c-.5-4.5-.6-8.6,0-11m0,0c3.8,1.6,5.2,3.2,11,5.5m-11-5.5c2.3,1.2,4.9,2.2,11,5.5" fill="none" stroke="#006" stroke-linecap="round" stroke-linejoin="round" stroke-width="5"/><path d="M154.5,408.5c86.6,2.5,27.5-25.4,114.3-22.9" fill="none"/><path d="M151.5,405.5c3.9,0,3.9,6.1,0,6S147.6,405.5,151.5,405.5Z" fill="none"/><path d="M279.8,385.6c-10,5.1-12.1,8.2-11-5.5Z" fill="none"/><path d="M154.5,408.5c39.1.6,55.5-4.7,57-11.4m-57,11.4c38.1-1.6,56.2-3,57-11.4m0,0c.6-5.7,20.7-10.8,57.3-11.5m-57.3,11.5c1.9-8.3,18.2-11.3,57.3-11.5" fill="none" stroke="#006" stroke-linecap="round" stroke-linejoin="round" stroke-width="5"/><path d="M149.2,406.7h0m0,0h0" fill="none" stroke="#006" stroke-linecap="round" stroke-linejoin="round" stroke-width="2.5"/><path d="M151.9,405.8c5.6.3,1.4,8.4-2.3,6.2s3.3-8.9,2.1-5.7m1.8-.4c5.7,3.7-3.1,5.3-5.5,3.6,1.4-2.2,3-6.6,5.4-3.8" fill="none" stroke="#006" stroke-linecap="round" stroke-linejoin="round" stroke-width="5"/><path d="M268.5,380.5h0m0,0h0" fill="none" stroke="#006" stroke-linecap="round" stroke-linejoin="round" stroke-width="2.5"/><path d="M279.8,385.6c-3.7,2.3-6.3,1.8-11,5.5m11-5.5c-3.9,2.3-8.3,3.9-11,5.5m0,0a27.2,27.2,0,0,0,0-11m0,11c-.1-3.2-.5-7.5,0-11m0,0c2.9,1.3,7.3,4.1,11,5.5m-11-5.5c3.6,1.8,7,3.4,11,5.5" fill="none" stroke="#006" stroke-linecap="round" stroke-linejoin="round" stroke-width="5"/><path d="M269.5,492.5c-.6-31.1,66.2-6.3,59.6-47.4" fill="none"/><path d="M269.5,492.5c3.9-.1,3.9,6,0,6S265.6,492.4,269.5,492.5Z" fill="none"/><path d="M329.1,436.8c.5,3.3,10.7,15.4,0,8.3l-5.5,2.7Z" fill="none"/><path d="M269.5,492.5c1.1-11.4,9.2-18.1,29.8-19m-29.8,19c-2.2-10.4,11.8-19.5,29.8-19m0,0c21.1.4,28.2-8,29.8-28.4m-29.8,28.4c20.7,1.3,30.6-8.1,29.8-28.4" fill="none" stroke="#006" stroke-linecap="round" stroke-linejoin="round" stroke-width="5"/><path d="M267.6,493.6h0m0,0h0" fill="none" stroke="#006" stroke-linecap="round" stroke-linejoin="round" stroke-width="2.5"/><path d="M267.9,493.3c3.8-5,7.4,3.9,2.9,6-4.6.2-4.6-6.3-1-6.8m-1.2-1.6c.7,1.1,2.8,5.2,4.6,5.4.2.3-1.2-.8-1.4-.4.8,8.8-11.6-2-1.9-4.2" fill="none" stroke="#006" stroke-linecap="round" stroke-linejoin="round" stroke-width="5"/><path d="M328.9,437h0m0,0h0" fill="none" stroke="#006" stroke-linecap="round" stroke-linejoin="round" stroke-width="2.5"/><path d="M329.1,436.8c3,4.7,3.7,7.2,5.5,11m-5.5-11c2.3,3.5,3.7,7.6,5.5,11m0,0a17.7,17.7,0,0,0-5.5-2.7m5.5,2.7c-1-.2-2.2-1.3-5.5-2.7m0,0a47.1,47.1,0,0,0-5.5,2.7m5.5-2.7a47.2,47.2,0,0,0-5.5,2.7m0,0c.8-2.5,3.7-5.7,5.5-11m-5.5,11a80.6,80.6,0,0,1,5.5-11" fill="none" stroke="#006" stroke-linecap="round" stroke-linejoin="round" stroke-width="5"/><path d="M718.6,234.4c121.3-1.8,121.3,188.8,0,187C597.3,423.2,597.3,232.6,718.6,234.4Z" fill="#e6e6e6" stroke="#006" stroke-width="7"/><path d="M720,408.9l-77.9-78,31.2-31L713.2,340c27.8-28.6,91.8-89.4,128.9-90.4C795.6,288.1,741.6,355.2,720,408.9Z" fill="#2d9c5e"/><path d="M391.5,3.5c97.3-1.4,97.3,151.4,0,150C294.2,154.9,294.2,2.1,391.5,3.5Z" fill="#e6e6e6" stroke="#006" stroke-width="7"/><path d="M391.5,500.5c1.1,1.1,1.6-10.4,0-35.4m0,35.4c.5-1.5,1.9-10.3,0-35.4" fill="none" stroke="#006" stroke-linecap="round" stroke-linejoin="round" stroke-width="5"/><path d="M390.5,499.8h0m0,0h0" fill="none" stroke="#006" stroke-linecap="round" stroke-linejoin="round" stroke-width="2.5"/><path d="M392.5,500.4c4.9,1.1.2,5.2-1.5,6.8-3.9-2.8-1.8-9.7,3-5.7m0-1.2c1.2,1.5,3.1,6.2-.6,5.2-.6,2.2-2.9,2.8-4.7,1.4-.5-3.3-.4-5.3,3.3-6.4.2-1.7-1.4-.2-.6.9" fill="none" stroke="#006" stroke-linecap="round" stroke-linejoin="round" stroke-width="5"/><path d="M391.4,454.2h0m0,0h0" fill="none" stroke="#006" stroke-linecap="round" stroke-linejoin="round" stroke-width="2.5"/><path d="M391.5,454.1a56.4,56.4,0,0,1,5.5,11m-5.5-11c1.4,3.7,3.9,7.7,5.5,11m0,0c-2.8.3-7,.9-11,0m11,0c-2.7.6-6.1-.1-11,0m0,0c2.7-3.4,4-8.1,5.5-11m-5.5,11a42,42,0,0,1,5.5-11" fill="none" stroke="#006" stroke-linecap="round" stroke-linejoin="round" stroke-width="5"/><path d="M391.5,503.5c97.3-1.4,97.3,151.4,0,150C294.2,654.9,294.2,502.1,391.5,503.5Z" fill="#e6e6e6" stroke="#006" stroke-width="7"/><path d="M226.1,49.3c97.3-1.5,97.3,151.4,0,150C128.8,200.7,128.8,47.8,226.1,49.3Z" fill="#e6e6e6" stroke="#006" stroke-width="7"/><path d="M84.8,163.5c97.3-1.4,97.3,151.4,0,150C-12.5,314.9-12.5,162.1,84.8,163.5Z" fill="#e6e6e6" stroke="#006" stroke-width="7"/><path d="M216.5,473.5c97.3-1.4,97.3,151.4,0,150C119.2,624.9,119.2,472.1,216.5,473.5Z" fill="#e6e6e6" stroke="#006" stroke-width="7"/><path d="M76.5,333.5c97.3-1.4,97.3,151.4,0,150C-20.8,484.9-20.8,332.1,76.5,333.5Z" fill="#e6e6e6" stroke="#006" stroke-width="7"/><path d="M391.5,517.2a3.2,3.2,0,0,0-3.2,1.9c-2.7-.3-6.2.4-6.2,3.9-4.1-.5-9.4.5-9.3,5.8v33.1a5.6,5.6,0,0,0,5.6,5.8h26.2a5.6,5.6,0,0,0,5.6-5.8V528.8c.1-5.3-5.2-6.3-9.4-5.8.1-3.5-3.4-4.2-6.2-3.9A3.1,3.1,0,0,0,391.5,517.2Zm-5.6,5.8h11.2v3.9H385.9Zm-7.5,5.8h4.3c1.2,3.5,11.8,1.4,14.4,2a3.4,3.4,0,0,0,3.1-2h4.4v33.1H378.4Zm19.7,9.1c-.2-.7-8.8,9.5-9.1,9.6l-3.1-3.1c-1.3-1.3-2.4.6-3.2,1.3s4.6,5.9,5.2,7.1a1.8,1.8,0,0,0,2.6-.3l10.1-11.2C401.7,540.1,399.3,538.1,398.1,537.9Z"/><path d="M198.1,496.5a1.8,1.8,0,0,0,0,3.6h23.3a1.8,1.8,0,0,0,0-3.6Zm30.5,0a1.8,1.8,0,0,0,0,3.6h1.8a1.8,1.8,0,0,0,0-3.6Zm8.9,0a1.8,1.8,0,0,0,0,3.6A1.8,1.8,0,0,0,237.5,496.5Zm-39.4,7.2c-2.3,0-2.3,3.7,0,3.6h16.1a1.8,1.8,0,1,0,0-3.6Zm30.5,0c-2.4,0-2.4,3.7,0,3.6h1.8c2.3.1,2.3-3.6,0-3.6Zm8.9,0c-2.3,0-2.3,3.7,0,3.6S239.9,503.7,237.5,503.7Zm-39.4,7.2c-2.3,0-2.3,3.7,0,3.6h23.3a1.8,1.8,0,0,0,0-3.6Zm30.5,0c-2.4,0-2.4,3.7,0,3.6h1.8c2.3.1,2.3-3.6,0-3.6Zm8.9,0c-2.3,0-2.3,3.7,0,3.6S239.9,510.9,237.5,510.9Zm-39.4,7.2c-2.3,0-2.3,3.7,0,3.6h19.7c2.3.1,2.3-3.6,0-3.6Zm30.5,0c-2.4,0-2.4,3.7,0,3.6h1.8c2.3.1,2.3-3.6,0-3.6Zm8.9,0c-2.3,0-2.3,3.7,0,3.6S239.9,518.1,237.5,518.1Zm-39.4,7.3c-2.3-.1-2.3,3.6,0,3.6h19.7c2.3,0,2.3-3.7,0-3.6Zm30.5,0c-2.4-.1-2.4,3.6,0,3.6h1.8c2.3,0,2.3-3.7,0-3.6Zm8.9,0c-2.3-.1-2.3,3.6,0,3.6S239.9,525.3,237.5,525.4Zm-39.4,7.2c-2.3-.1-2.3,3.6,0,3.6h23.3a1.8,1.8,0,1,0,0-3.6Zm30.5,0c-2.4-.1-2.4,3.6,0,3.6h1.8c2.3,0,2.3-3.7,0-3.6Zm8.9,0c-2.3-.1-2.3,3.6,0,3.6S239.9,532.5,237.5,532.6Z"/><path d="M67.4,184.6c-9.6,0-17.4,8.2-17.4,18.3-.2,18.7,24.2,24.9,32.5,8.9-1-1.7-1.8-3.4-2.7-5-15.1,27-40.3-12.2-12.4-16.9,17.7,1.3,15.2,32.1,34.8,31.3,9.7,0,17.5-8.2,17.5-18.3.2-18.6-24.1-24.9-32.6-9.1l2.8,5c5.7-13.4,24.5-10.8,24.8,4.1.4,11.2-14.1,17.8-21.3,9S82.5,184.7,67.4,184.6Z"/><path d="M225,60.4c-6.4-2.6-24.7,40.6-27.8,43.6a6.7,6.7,0,0,0,5.6,9.8h44.3a6.6,6.6,0,0,0,5.6-9.7C249.5,101,231.4,58,225,60.4Zm0,4.2a2,2,0,0,1,1.8,1.2L249,106.2a2.1,2.1,0,0,1-2,3.2H202.8a2.1,2.1,0,0,1-1.9-3.3L223,65.8A2.2,2.2,0,0,1,225,64.6Zm0,11.5a2.3,2.3,0,0,0-2.2,2.2V92.7a2.2,2.2,0,0,0,2.2,2.2,2.1,2.1,0,0,0,2.1-2.2V78.3a2.1,2.1,0,0,0-2.1-2.1Zm0,23.1c-3.7-.1-3.7,5.8,0,5.8s3.6-5.7,0-5.7Z"/><path d="M387.6,19.6a13.1,13.1,0,0,0-8,18.3c-8.1.1-13.8,8.2-12,16.2l4.1-.8c-2.4-10.8,11.7-15.8,17.1-6S383.4,67,375.2,59.2l-2.7,3.1c5.8,5.4,16.1,4.8,20-2.3,3.9,7.1,14.3,7.7,20.1,2.3l-2.7-3.1c-8.2,7.8-19.6-2.9-13.7-11.9s19.6-5.1,17.1,6l4.1.8c1.6-8-4.1-16.2-12.2-16.2,3.9-7-.3-16-8.2-18.3l-1.2,3.8c10.7,3.1,7.6,18.2-3.5,17.8s-14.2-14.7-3.5-17.8ZM392.5,31a12.5,12.5,0,0,0-6.1,1.4,4.9,4.9,0,0,0,2,3.5,9.6,9.6,0,0,1,7.8,0,4.4,4.4,0,0,0,2.1-3.5A10.4,10.4,0,0,0,392.5,31Zm0,12.2c2.7-.1,2.7,4.3,0,4.1S389.8,43.1,392.5,43.2Zm-12.3,2.7a4.5,4.5,0,0,0-2,.4,14.9,14.9,0,0,0,6.1,10.6,3.8,3.8,0,0,0,1.9-3.6,10.9,10.9,0,0,1-3.9-6.8A8.3,8.3,0,0,0,380.2,45.9Zm24.8.2a4.4,4.4,0,0,0-2.3.6,10.4,10.4,0,0,1-4.1,6.8,4.8,4.8,0,0,0,1.9,3.7,14.4,14.4,0,0,0,6.3-10.7A5.8,5.8,0,0,0,405,46.1Z"/><path d="M76.5,349.6c-1.1-.3-3.6,3-4.3,3.6-6.5-1.1-6.2-1.4-7.2,5.1-5.8,2.9-5.7,2.7-2.8,8.4-2.3,4.8-3.7,5.3,2,7.9L52.9,386l6.4,2.1,2.2,6.5L74,382.1c1.9,2.3,3.1,2.3,5,0l12.5,12.5,2.1-6.5,6.5-2.1L88.7,374.7c5.9-2.6,4.3-3.2,2-8,3.1-5.7,3-5.4-2.7-8.3-1-6.5-.5-6.5-7.2-5.3C80.1,352.5,77.6,349.4,76.5,349.6Zm0,5.2c.7.8,2.2,2.2,2.9,2.9l4.1-.6c.2,1,.5,3.1.7,4.1l3.6,1.9c-.4.9-1.3,2.7-1.8,3.6s1.3,2.8,1.8,3.7l-3.6,1.9-.8,4.1-4.1-.6-2.9,2.8-2.9-2.8-4.1.6c-.2-1-.6-3.1-.7-4.1l-3.6-1.9c.4-1,1.4-2.8,1.9-3.7s-1.3-2.8-1.8-3.7l3.6-1.9c.2-1,.5-3.1.7-4.1l4.1.6ZM65.8,379.3c-.1,2,2.3,1.7,3.6,1.4l-6,6-.6-1.9-1.9-.6Zm21.6,0,4.8,4.8-1.9.6-.6,1.9-6-6C85.3,381,86.8,381.2,87.4,379.3Z"/><path d="M362.6,82.5h8.7v1.7H368V95h-2.1V84.2h-3.3Z"/><path d="M373.4,81.7h2v4.6a4,4,0,0,1,7,2.9V95h-2c-.3-2.1,1.2-8.6-2.5-8.3s-2.2,6.2-2.5,8.3h-2Z"/><path d="M387.1,95H385V85.1h2.1v1.5a3.4,3.4,0,0,1,3-1.7v2.2C385.9,86.1,387.3,92.7,387.1,95Z"/><path d="M396.2,95.2c-6.4.4-6.5-10.6,0-10.3a4.9,4.9,0,0,1,4.8,5.9h-7.6c0,2.9,4.2,3.6,5.2,1.3h2.2A4.7,4.7,0,0,1,396.2,95.2Zm-2.8-6h5.5C398.8,85.9,393.7,85.8,393.4,89.2Z"/><path d="M407,84.9a4.1,4.1,0,0,1,3.5,1.7V85.1h2.1V95h-2.1V93.6C403.8,100.3,398,85.5,407,84.9Zm.5,1.8c-3.9-.3-3.9,7,0,6.7S411.4,86.4,407.5,86.7Z"/><path d="M415.6,86.8h-1.2V85.1h1.2V82.6h2.1v2.5h2.4v1.7h-2.4v5.5c-.2,1.3,1.5,1,2.4,1V95C413.9,95.9,415.9,90.7,415.6,86.8Z"/><path d="M339.9,104.1h2v12.5h-2Z"/><path d="M351.7,111.1a2.5,2.5,0,1,0-5,0v5.5h-2.1v-9.9h2.1v1.1a4,4,0,0,1,7,3v5.8h-2Z"/><path d="M356.6,108.4h-1.1v-1.7h1.1v-2.5h2.1v2.5h2.4v1.7h-2.4v5.5c-.2,1.3,1.5,1,2.4,1v1.7C355,117.5,356.9,112.3,356.6,108.4Z"/><path d="M367.3,116.8c-6.5.4-6.6-10.6,0-10.3a4.8,4.8,0,0,1,4.7,5.9h-7.5c0,2.9,4.2,3.6,5.1,1.3h2.2A4.5,4.5,0,0,1,367.3,116.8Zm-2.8-6H370C369.9,107.5,364.7,107.4,364.5,110.8Z"/><path d="M374.1,103.3h2.1v13.3h-2.1Z"/><path d="M378.9,103.3h2v13.3h-2Z"/><path d="M383.4,104.1c-.1-1.7,2.6-1.7,2.6,0S383.3,105.8,383.4,104.1Zm.2,2.6h2.1v9.9h-2.1Z"/><path d="M392.4,106.5a4,4,0,0,1,3.4,1.7v-1.5h2.1v10.1c.6,5.5-9.1,6.4-9.7,1.2h2c2,3.6,6.5,1.5,5.6-2.9C389.2,121.9,383.4,107.1,392.4,106.5Zm.4,1.8c-3.9-.3-3.8,7,0,6.7S396.7,108,392.8,108.3Z"/><path d="M404.8,116.8c-6.4.4-6.5-10.6,0-10.3a4.9,4.9,0,0,1,4.8,5.9H402c0,2.9,4.2,3.6,5.2,1.3h2.2A4.6,4.6,0,0,1,404.8,116.8Zm-2.8-6h5.5C407.5,107.5,402.3,107.4,402,110.8Z"/><path d="M418.7,111.1a2.5,2.5,0,1,0-5,0v5.5h-2v-9.9h2v1.1a4.1,4.1,0,0,1,7.1,3v5.8h-2.1Z"/><path d="M427.5,106.5a4.3,4.3,0,0,1,4.6,3.3h-2.2c-1.1-2.8-5.4-1.6-5.1,1.9s4,4.6,5.1,1.8h2.2c-1.3,5.1-9.9,4-9.4-1.8C422.7,108.6,424.7,106.5,427.5,106.5Z"/><path d="M438.4,116.8c-6.4.4-6.5-10.6,0-10.3a4.9,4.9,0,0,1,4.8,5.9h-7.6c0,2.9,4.2,3.6,5.2,1.3H443A4.6,4.6,0,0,1,438.4,116.8Zm-2.8-6h5.5C441.1,107.5,435.9,107.4,435.6,110.8Z"/><path d="M203.2,127.8h2.1l-4.7,12.5h-2.3l-4.8-12.5h2.2l3.7,10.4Z"/><path d="M211.3,140.4c-6.4.4-6.5-10.6,0-10.2,3.2-.1,5.3,2.7,4.8,5.9h-7.6c0,2.8,4.2,3.5,5.1,1.2h2.3A4.7,4.7,0,0,1,211.3,140.4Zm-2.8-6H214C213.9,131.2,208.8,131.1,208.5,134.4Z"/><path d="M225.2,134.7a2.5,2.5,0,1,0-5,0v5.6h-2.1v-10h2.1v1.2a4,4,0,0,1,7,2.9v5.9h-2Z"/><path d="M233.8,130.2a4.9,4.9,0,0,1,3.5,1.5v-4.8h2v13.4h-2v-1.5C230.7,145.6,224.8,130.7,233.8,130.2Zm.5,1.8c-4-.3-3.9,6.9,0,6.6S238.1,131.7,234.3,132Z"/><path d="M246.3,140.4c-6.5.4-6.4-10.6.1-10.2S253,140.8,246.3,140.4Zm0-1.8c3.9.4,4-7,.1-6.6S242.6,139,246.3,138.6Z"/><path d="M255.6,140.3h-2.1v-10h2.1v1.5a3,3,0,0,1,2.9-1.6v2.1C254.4,131.4,255.8,137.9,255.6,140.3Z"/><path d="M214,149.4c5-.2,6.1,6,1.5,7.3l3.1,5.2h-2.5l-2.9-5h-1.5v5h-2.1V149.4Zm0,1.6h-2.3v4.2H214A2.1,2.1,0,1,0,214,151Z"/><path d="M220.7,149.3c0-1.7,2.7-1.7,2.6,0S220.7,151,220.7,149.3Zm.3,2.6h2.1v10H221Z"/><path d="M229.4,162c-2.4,0-4.1-1.4-4.2-3.2h2.1c-.1,1.8,3.9,2,3.8.3s-5.7-.8-5.7-4.4,7.8-3.9,7.6.3h-2c.1-1.7-3.6-2-3.5-.4s5.6.9,5.7,4.5C233.2,160.8,231.7,162,229.4,162Z"/><path d="M235.4,148.5h2v7.8l3.6-4.4h2.9l-4.6,5,4.6,5h-2.8l-3.7-4.3v4.3h-2Z"/><path d="M61.8,249.3c.3,5.9-6,6.6-10.7,6.2V243C55.8,242.5,62.1,243.3,61.8,249.3Zm-6.6,4.5c7.3-.4,5.5-10.8-2.1-9.2v9.2Z"/><path d="M68.1,255.6c-6.4.4-6.5-10.6,0-10.2,3.2-.1,5.3,2.7,4.8,5.9H65.3c0,2.8,4.2,3.5,5.2,1.2h2.2A4.7,4.7,0,0,1,68.1,255.6Zm-2.8-6h5.5C70.7,246.4,65.6,246.3,65.3,249.6Z"/><path d="M76,245.6l2.8,8,2.8-8h2.2L80,255.5H77.5l-3.7-9.9Z"/><path d="M91,255.6c-8.3.3-8.3-13.1,0-12.8S99.3,255.9,91,255.6Zm0-1.8c5.6.4,5.7-9.6,0-9.2S85.4,254.2,91,253.8Z"/><path d="M104.9,245.4c9,.6,3.3,15.3-3.4,8.6v6.2H99.4V245.6h2.1V247A4.3,4.3,0,0,1,104.9,245.4Zm-.4,1.8c-3.9-.3-3.9,6.9,0,6.7S108.4,246.9,104.5,247.2Z"/><path d="M115.2,255.6c-2.3,0-4-1.4-4.1-3.2h2.1c-.1,1.8,3.9,2,3.8.3s-5.7-.8-5.7-4.4,7.8-3.9,7.6.3h-2c.1-1.7-3.6-2-3.6-.4s5.6.9,5.7,4.5C119,254.4,117.6,255.6,115.2,255.6Z"/><path d="M55.4,272H53.1v5.1H51V264.6h4.4C61.1,264.4,61.5,272,55.4,272Zm0-1.7a2.1,2.1,0,1,0,0-4.1H53.1v4.1Z"/><path d="M63.8,277.1h-2v-9.9h2v1.4a3.3,3.3,0,0,1,3-1.6v2.1C62.6,268.2,64,274.7,63.8,277.1Z"/><path d="M73,277.2c-6.6.4-6.5-10.6.1-10.2S79.6,277.6,73,277.2Zm0-1.7c3.8.4,3.9-7.1,0-6.7S69.2,275.8,73,275.5Z"/><path d="M84.3,267a4.3,4.3,0,0,1,4.6,3.3H86.7c-1.1-2.8-5.5-1.7-5.1,1.8s3.9,4.7,5.1,1.8h2.2c-1.3,5.2-9.9,4-9.4-1.8C79.5,269,81.5,267,84.3,267Z"/><path d="M95.2,277.2c-6.4.4-6.5-10.6,0-10.2,3.2-.1,5.3,2.7,4.8,5.9H92.4c0,2.8,4.2,3.5,5.2,1.2h2.2A4.7,4.7,0,0,1,95.2,277.2Zm-2.8-6h5.5C97.9,268,92.7,267.9,92.4,271.2Z"/><path d="M105.7,277.2c-2.4,0-4.1-1.4-4.2-3.2h2.1c-.1,1.8,3.9,2,3.8.3s-5.7-.8-5.7-4.4,7.8-3.9,7.6.3h-2c.1-1.7-3.6-2-3.6-.4s5.6.9,5.8,4.5C109.5,276,108,277.2,105.7,277.2Z"/><path d="M115.3,277.2c-2.4,0-4.1-1.4-4.2-3.2h2.2c-.1,1.8,3.8,2,3.8.3s-5.8-.8-5.8-4.4,7.9-3.9,7.6.3h-2c.1-1.7-3.6-2-3.5-.4s5.6.9,5.7,4.5C119.1,276,117.6,277.2,115.3,277.2Z"/><path d="M53.7,424.9l3.1,3.2H54.1l-2.2-2.4c-9.2,2.5-11.3-12.4-1.7-12.6C56.4,412.7,58.9,421.8,53.7,424.9Zm-3.5-.7c5.6.3,5.6-9.6,0-9.3S44.6,424.5,50.2,424.2Z"/><path d="M67.6,425.8h-2v-1.2a4.1,4.1,0,0,1-7.1-2.9v-5.8h2.1c.3,2.1-1.3,8.6,2.4,8.3s2.2-6.2,2.6-8.3h2Z"/><path d="M74.3,415.7a4.1,4.1,0,0,1,3.4,1.6v-1.4h2.1v9.9H77.7v-1.5C71.1,431.1,65.3,416.3,74.3,415.7Zm.4,1.8c-3.9-.3-3.8,7,0,6.7S78.6,417.2,74.7,417.5Z"/><path d="M82.5,412.5h2.1v13.3H82.5Z"/><path d="M87,413.3a1.3,1.3,0,0,1,2.6,0A1.3,1.3,0,0,1,87,413.3Zm.3,2.6h2v9.9h-2Z"/><path d="M92.3,417.6H91.2v-1.7h1.1v-2.5h2.1v2.5h2.4v1.7H94.4v5.5c-.2,1.3,1.5,1,2.4,1v1.7C90.7,426.7,92.6,421.5,92.3,417.6Z"/><path d="M105.5,415.9h2.1l-6,14.6H99.4l2-4.8-3.9-9.8h2.3l2.8,7.6Z"/><path d="M36.3,444.9H31l-.9,2.5H28l4.5-12.5h2.4l4.4,12.5H37.2Zm-2.6-7.5-2.1,5.8h4.1Z"/><path d="M44.9,447.6c-2.4,0-4.1-1.4-4.2-3.2h2.2c-.1,1.7,3.8,2,3.8.3s-5.8-.9-5.8-4.5,7.9-3.9,7.7.3H46.5c.2-1.7-3.6-2-3.5-.3s5.6.9,5.7,4.4C48.7,446.3,47.2,447.6,44.9,447.6Z"/><path d="M54.5,447.6c-2.4,0-4.1-1.4-4.1-3.2h2.1c-.1,1.7,3.8,2,3.8.3s-5.8-.9-5.8-4.5,7.9-3.9,7.7.3H56.1c.2-1.7-3.5-2-3.5-.3s5.6.9,5.7,4.4C58.3,446.3,56.8,447.6,54.5,447.6Z"/><path d="M69.5,447.4H67.4v-1.2a4,4,0,0,1-7-2.9v-5.8h2.1c.3,2.1-1.3,8.6,2.4,8.3s2.2-6.2,2.5-8.3h2.1Z"/><path d="M74.2,447.4h-2v-9.9h2v1.4a3.5,3.5,0,0,1,3-1.6v2.2C73,438.5,74.5,445.1,74.2,447.4Z"/><path d="M83.1,437.3a4.1,4.1,0,0,1,3.4,1.6v-1.4h2.1v9.9H86.5v-1.5C79.9,452.7,74.1,437.9,83.1,437.3Zm.4,1.8c-3.9-.3-3.8,7,0,6.7S87.4,438.8,83.5,439.1Z"/><path d="M98.3,441.9a2.5,2.5,0,1,0-4.9,0v5.5H91.3v-9.9h2.1v1.1a4,4,0,0,1,7,3v5.8H98.3Z"/><path d="M107.2,437.3a4.2,4.2,0,0,1,4.5,3.3h-2.2c-1.1-2.8-5.4-1.6-5.1,1.9s4,4.6,5.1,1.8h2.2c-1.2,5.1-9.8,4-9.4-1.8C102.3,439.4,104.3,437.3,107.2,437.3Z"/><path d="M118.1,447.6c-6.5.4-6.6-10.6,0-10.3a4.8,4.8,0,0,1,4.7,5.9h-7.6c0,2.8,4.2,3.6,5.2,1.3h2.2A4.5,4.5,0,0,1,118.1,447.6Zm-2.9-6h5.5C120.7,438.3,115.5,438.2,115.2,441.6Z"/><path d="M179.1,555.5h-4.9v3.7h4.3v1.6h-4.3v3.9h4.9v1.6h-6.9V553.8h6.9Z"/><path d="M188.6,560.8a2.5,2.5,0,1,0-4.9,0v5.5h-2.1v-9.9h2.1v1.2a4,4,0,0,1,7,2.9v5.8h-2.1Z"/><path d="M193.6,558.1h-1.2v-1.7h1.2V554h2.1v2.4h2.4v1.7h-2.4v5.5c-.2,1.3,1.5,1,2.4,1v1.7C192,567.2,193.9,562,193.6,558.1Z"/><path d="M204.2,566.5c-6.4.4-6.5-10.6,0-10.2,3.3-.1,5.3,2.7,4.8,5.8h-7.6c0,2.9,4.2,3.6,5.2,1.3h2.2A4.6,4.6,0,0,1,204.2,566.5Zm-2.8-6h5.5C206.9,557.3,201.7,557.1,201.4,560.5Z"/><path d="M213.1,566.3h-2v-9.9h2v1.5a3.3,3.3,0,0,1,3-1.6v2.1C211.9,557.5,213.4,564,213.1,566.3Z"/><path d="M223.5,556.3c9,.5,3.3,15.3-3.5,8.6v6.2h-2V556.4h2v1.5A4.7,4.7,0,0,1,223.5,556.3Zm-.4,1.7c-3.9-.2-3.9,7,0,6.7S227,557.7,223.1,558Z"/><path d="M232.3,566.3h-2.1v-9.9h2.1v1.5a3,3,0,0,1,2.9-1.6v2.1C231,557.5,232.5,564,232.3,566.3Z"/><path d="M236.8,553.8a1.4,1.4,0,0,1,2.7,0A1.4,1.4,0,0,1,236.8,553.8Zm.3,2.6h2.1v9.9h-2.1Z"/><path d="M245.5,566.5c-2.4,0-4.1-1.4-4.2-3.2h2.1c0,1.7,3.9,2,3.8.3s-5.7-.8-5.7-4.5,7.9-3.8,7.6.3h-2c.1-1.7-3.6-1.9-3.5-.3s5.6.9,5.7,4.5C249.3,565.2,247.8,566.5,245.5,566.5Z"/><path d="M255.7,566.5c-6.4.4-6.5-10.6,0-10.2,3.3-.1,5.3,2.7,4.8,5.8h-7.6c0,2.9,4.2,3.6,5.2,1.3h2.2A4.6,4.6,0,0,1,255.7,566.5Zm-2.8-6h5.5C258.4,557.3,253.2,557.1,252.9,560.5Z"/><path d="M174.8,575.4h2v12.5h-2Z"/><path d="M186.6,582.4a2.5,2.5,0,1,0-5,0v5.5h-2.1V578h2.1v1.2c2.3-2.6,7.3-1.2,7,2.9v5.8h-2Z"/><path d="M192.3,578l2.8,8.1,2.8-8.1h2.2l-3.8,9.9h-2.5l-3.7-9.9Z"/><path d="M205.9,588.1c-6.5.4-6.6-10.6,0-10.2a4.7,4.7,0,0,1,4.7,5.8H203c.1,2.9,4.2,3.6,5.2,1.3h2.2A4.5,4.5,0,0,1,205.9,588.1Zm-2.8-6h5.4C208.5,578.9,203.3,578.7,203.1,582.1Z"/><path d="M219.7,582.4a2.5,2.5,0,1,0-4.9,0v5.5h-2.1V578h2.1v1.2a4,4,0,0,1,7,2.9v5.8h-2.1Z"/><path d="M224.7,579.7h-1.2V578h1.2v-2.4h2.1V578h2.4v1.7h-2.4v5.5c-.2,1.3,1.5,1,2.4,1v1.7C223.1,588.8,225,583.6,224.7,579.7Z"/><path d="M235.4,588.1c-6.6.3-6.5-10.6.1-10.2S242,588.5,235.4,588.1Zm0-1.8c3.9.4,3.9-7,0-6.7S231.6,586.7,235.4,586.3Z"/><path d="M244.6,587.9h-2V578h2v1.5a3.3,3.3,0,0,1,3-1.6V580C243.4,579.1,244.9,585.6,244.6,587.9Z"/><path d="M256.3,578h2.1l-6.1,14.6h-2.1l2-4.8-3.9-9.8h2.3l2.8,7.6Z"/><path d="M345.2,583.1a6,6,0,0,1,5.8,3.8h-2.5c-2-3.8-8-1.9-7.6,2.6s5.6,6.4,7.6,2.6H351C343.5,604.2,331,585.1,345.2,583.1Z"/><path d="M357.7,595.9c-6.6.4-6.5-10.6.1-10.2S364.3,596.3,357.7,595.9Zm0-1.8c3.8.4,3.9-7,0-6.6S353.9,594.5,357.7,594.1Z"/><path d="M378.9,590.2a2.5,2.5,0,1,0-5,0v5.6h-2c-.3-2.2,1.2-8.6-2.5-8.3s-2.2,6.1-2.5,8.3h-2v-10h2V587c1.6-2,5.4-1.7,6.5.6,1.9-3.4,7.8-2.2,7.5,2.3v5.9h-2Z"/><path d="M389.1,585.7c8.9.6,3.2,15.3-3.5,8.6v6.2h-2V585.8h2v1.5A4.3,4.3,0,0,1,389.1,585.7Zm-.5,1.8c-3.9-.3-3.8,6.9,0,6.6S392.5,587.2,388.6,587.5Z"/><path d="M395.8,582.4h2v13.4h-2Z"/><path d="M400.2,583.2a1.4,1.4,0,0,1,2.7,0A1.4,1.4,0,0,1,400.2,583.2Zm.3,2.6h2.1v10h-2.1Z"/><path d="M409.3,585.7a4.3,4.3,0,0,1,3.4,1.6v-1.5h2.1v10h-2.1v-1.5C406.1,601.1,400.2,586.2,409.3,585.7Zm.4,1.8c-3.9-.3-3.8,6.9,0,6.6S413.6,587.2,409.7,587.5Z"/><path d="M424.5,590.2a2.5,2.5,0,1,0-5,0v5.6h-2v-10h2V587c2.4-2.6,7.3-1.2,7,2.9v5.9h-2Z"/><path d="M433.3,585.7a4.3,4.3,0,0,1,4.6,3.3h-2.2c-1.1-2.8-5.5-1.7-5.1,1.8s3.9,4.7,5.1,1.8h2.2c-1.3,5.1-9.9,4-9.4-1.8C428.5,587.7,430.5,585.7,433.3,585.7Z"/><path d="M444.2,595.9c-6.4.4-6.5-10.6,0-10.2,3.2-.1,5.3,2.7,4.8,5.9h-7.6c0,2.8,4.2,3.5,5.2,1.2h2.2A4.7,4.7,0,0,1,444.2,595.9Zm-2.8-6h5.5C446.9,586.7,441.7,586.6,441.4,589.9Z"/><path d="M339.7,604.9h7.4v1.6h-5.3v3.7h4.1v1.7h-4.1v5.5h-2.1Z"/><path d="M351.1,617.4H349v-10h2.1v1.5a3,3,0,0,1,2.9-1.6v2.1C349.9,608.5,351.3,615,351.1,617.4Z"/><path d="M359.9,607.3a4.5,4.5,0,0,1,3.5,1.6v-1.5h2v10h-2v-1.5C356.7,622.7,350.9,607.8,359.9,607.3Zm.5,1.8c-4-.3-3.9,6.9,0,6.6S364.2,608.8,360.4,609.1Z"/><path d="M382.2,611.8a2.5,2.5,0,1,0-5,0v5.6h-2c-.3-2.2,1.2-8.6-2.5-8.3s-2.2,6.1-2.5,8.3h-2.1v-10h2.1v1.2c1.5-2,5.4-1.7,6.5.6,1.9-3.3,7.8-2.2,7.5,2.3v5.9h-2Z"/><path d="M391.1,617.5c-6.4.4-6.6-10.6,0-10.2,3.2-.1,5.3,2.7,4.8,5.9h-7.6c0,2.8,4.2,3.5,5.1,1.2h2.3A4.7,4.7,0,0,1,391.1,617.5Zm-2.8-6h5.5C393.7,608.3,388.6,608.2,388.3,611.5Z"/><path d="M396.8,607.4h2.1l2,8,2.1-8h2.2l2,8,2-8h2.1l-3.1,10H406l-2-7.4-2,7.4h-2.1Z"/><path d="M417.1,617.5c-6.6.4-6.5-10.6.1-10.2S423.7,617.9,417.1,617.5Zm0-1.8c3.9.4,3.9-7,0-6.6S413.3,616.1,417.1,615.7Z"/><path d="M426.3,617.4h-2v-10h2v1.5a3.3,3.3,0,0,1,3-1.6v2.1C425.1,608.5,426.6,615,426.3,617.4Z"/><path d="M431.2,604h2v7.8l3.6-4.4h2.9l-4.6,5,4.6,5h-2.8l-3.7-4.3v4.3h-2Z"/><path d="M444.8,617.5c-2.4,0-4.1-1.4-4.2-3.2h2.1c-.1,1.8,3.9,2,3.8.3s-5.7-.8-5.7-4.5,7.8-3.8,7.6.4h-2c.1-1.7-3.6-2-3.6-.4s5.6.9,5.8,4.5C448.6,616.3,447.1,617.5,444.8,617.5Z"/><path d="M303.5,276.7c94-23,79.9-22.8,173.9,0-6.2,55-27.6,100.5-67.9,134.3-19.9,16.7-17.9,16.8-37.7.3-40.6-33.8-62.1-79.4-68.3-134.6Zm113.9,46.1c-4.8,18.9-6.4,39.8-7.1,59.2-.1,3.4-.1,6.9-.2,10.3,27.7-26.8,43.6-59.9,50.9-97.3-16,7-33.7,17.8-43.6,27.8Zm-20.9,81.6c0-7.6.1-15.2.3-22.9.7-21,2.5-43.5,8-63.9l.4-1.6,1.2-1.3c10.1-10.8,28.1-22.4,45.3-30.4-10.2-2.5-20.5-5-30.8-7.2s-20.2-4-30.5-4-20.5,1.8-30.5,3.9-20.5,4.7-30.7,7.3c17.2,8,35.2,19.6,45.4,30.4l1.1,1.3.5,1.6c5.4,20.4,7.2,42.9,7.9,63.9.3,7.7.3,15.3.3,22.8a59.5,59.5,0,0,0,6.1,4.9,74,74,0,0,0,6-4.8Zm-33-81.6C353.6,312.8,336,302,320,295c7.2,37.4,23.1,70.5,50.8,97.3,0-3.4-.1-6.9-.2-10.3C370,362.6,368.4,341.7,363.5,322.8Z" fill="#006" fill-rule="evenodd"/></svg>