<svg xmlns="http://www.w3.org/2000/svg" viewBox="0 0 18 18"><defs><linearGradient id="a" x1="196.184" x2="191.634" y1="-363.507" y2="-354.877" gradientTransform="matrix(1 0 0 -1 -183 -351)" gradientUnits="userSpaceOnUse"><stop offset="0" stop-color="#1988d9"/><stop offset=".9" stop-color="#54aef0"/></linearGradient><linearGradient id="b" x1="194.222" x2="197.372" y1="-360.998" y2="-366.428" gradientTransform="matrix(1 0 0 -1 -183 -351)" gradientUnits="userSpaceOnUse"><stop offset=".1" stop-color="#54aef0"/><stop offset=".29" stop-color="#4fabee"/><stop offset=".51" stop-color="#41a2e9"/><stop offset=".74" stop-color="#2a93e0"/><stop offset=".88" stop-color="#1988d9"/></linearGradient></defs><path fill="#50e6ff" d="m1.15 9.719 7.78 5.05 7.92-5.06 1 1.15-8.92 5.75-8.78-5.74Z"/><path fill="#fff" d="M1.73 9.079 8.93.5l7.35 8.59-7.35 4.64Z"/><path fill="#50e6ff" d="M8.93.5v13.23l-7.2-4.65Z"/><path fill="url(#a)" d="M8.93.5v13.23l7.35-4.64Z"/><path fill="#53b1e0" d="m8.93 7.329 7.35 1.76-7.35 4.64Z"/><path fill="#9cebff" d="m8.93 13.729-7.2-4.65 7.2-1.75Z"/><path fill="url(#b)" d="m8.93 16.609 8.92-5.75-1-1.15-7.92 5.06Z"/><path fill="#ffca00" d="M16.32 11.379a1.159 1.159 0 0 0 .01-1.64l-.01-.01-2-2a1.159 1.159 0 0 0-1.64 0l-2 2a1.181 1.181 0 0 0 0 1.65l1.67 1.67a.318.318 0 0 1 .09.23v3.1a.362.362 0 0 0 .12.28l.76.76a.25.25 0 0 0 .353.017l.017-.017.73-.73.44-.44a.15.15 0 0 0 0-.21l-.31-.31a.16.16 0 0 1-.014-.226l.014-.014.31-.31a.161.161 0 0 0 0-.22l-.31-.31a.149.149 0 0 1-.019-.211.17.17 0 0 1 .019-.019l.31-.32a.15.15 0 0 0 0-.21l-.44-.44v-.16Zm-2.82-3.17a.66.66 0 1 1-.66.66.66.66 0 0 1 .66-.66Z"/><path fill="#ff9300" d="M13 16.5a.14.14 0 0 0 .24-.11v-2.56a.161.161 0 0 0-.06-.13.14.14 0 0 0-.2.033.141.141 0 0 0-.025.1v2.51A.149.149 0 0 0 13 16.5Z" opacity=".75"/><rect width="3.29" height=".39" x="11.9" y="10.399" fill="#ff9300" opacity=".75" rx=".18"/><rect width="3.29" height=".39" x="11.9" y="11.029" fill="#ff9300" opacity=".75" rx=".18"/></svg>