<svg xmlns="http://www.w3.org/2000/svg" xmlns:xlink="http://www.w3.org/1999/xlink" viewBox="0 0 81 39" fill="#fff" fill-rule="evenodd" stroke="#000" stroke-linecap="round" stroke-linejoin="round"><use xlink:href="#A" x=".5" y=".5"/><symbol id="A" overflow="visible"><g stroke="none"><path d="M5.901 33.703a17.23 17.23 0 1 1 24.268-1.6 14.71 14.71 0 0 1-1.559 1.599c-6.506 5.676-16.203 5.676-22.708 0zM26.69 12.914c-4.337-5.204-12.069-5.91-17.276-1.578S3.492 23.399 7.818 28.611s12.057 5.934 17.273 1.614a12.02 12.02 0 0 0 1.599-1.599c3.791-4.551 3.791-11.161 0-15.712zm24.748 20.789a17.23 17.23 0 1 1 24.268-1.6c-.492.572-1.027 1.107-1.599 1.599-6.493 5.67-16.176 5.67-22.668 0zm20.789-20.789c-4.337-5.204-12.069-5.91-17.276-1.578s-5.922 12.063-1.596 17.275 12.057 5.934 17.273 1.614a12.02 12.02 0 0 0 1.599-1.599c3.775-4.557 3.775-11.155 0-15.712z" fill="#4285f4" fill-rule="nonzero"/><path d="M10.499 20.75a6.74 6.74 0 0 1 6.757-6.757 6.74 6.74 0 0 1 6.757 6.757 6.74 6.74 0 0 1-6.757 6.757 6.74 6.74 0 0 1-6.757-6.757zm45.496 0a6.756 6.756 0 1 1 13.513 0 6.756 6.756 0 1 1-13.513 0z" fill-rule="nonzero" fill="#669df6"/><path d="M49.559 2.239A1.24 1.24 0 0 0 48.839 0H31.168a1.24 1.24 0 0 0-.72 2.239 22.91 22.91 0 0 1 8.516 11.674 1.12 1.12 0 0 0 1.439.64 1.16 1.16 0 0 0 .68-.68 22.67 22.67 0 0 1 8.476-11.634z" fill="#aecbfa" fill-rule="nonzero"/></g></symbol></svg>