<svg xmlns="http://www.w3.org/2000/svg" xmlns:xlink="http://www.w3.org/1999/xlink" viewBox="0 0 81 81" fill="#fff" fill-rule="evenodd" stroke="#000" stroke-linecap="round" stroke-linejoin="round"><use xlink:href="#A" x=".5" y=".5"/><symbol id="A" overflow="visible"><g stroke="none" fill-rule="nonzero"><path d="M77.679 28l-1.4-.36-4.28-1.08-.36-.76c-.2-.36-.36-.76-.56-1.16l-.56-1.08-.64-1.12-.64-1.04-.68-1.04a9.4 9.4 0 0 0-.76-1l-.76-1-.8-.96-.8-.92-1.04-.88-.88-.88-.96-.8-.92-.8-1-.76-1-.76-1.04-.68-1.04-.64-1.12-.64-1.08-.56-1.16-.56-.76-.32-1.16-4.48-.28-1.4a3.12 3.12 0 0 0-3.08-2.32H31.08A3.12 3.12 0 0 0 28 2.321l-.36 1.4-1.08 4.48-.76.32-1.16.56-1.08.56-1.12.64-1.04.64-1.04.68-1 .76-1 .76-.96.8-.92.8-.88.88-.88.88-.8.96a8.8 8.8 0 0 0-.8.92c-.28.32-.52.68-.76 1a9.4 9.4 0 0 0-.76 1l-.68 1.04-.64 1.04-.64 1.12c0 .36-.4.72-.56 1.08l-.56 1.16c-.2.36-.24.52-.32.76l-4.48 1.16-1.4.28a3.12 3.12 0 0 0-2.32 3.08v17.84a3.12 3.12 0 0 0 2.32 3l1.4.36 4.48 1.16c0 .24.24.48.32.76s.36.76.56 1.16l.56 1.08.64 1.12.64 1.04.68 1.04a9.4 9.4 0 0 0 .76 1l.76 1a8.8 8.8 0 0 0 .8.92l.8.96.88.88.88.88.96.8.92.8 1 .76 1 .76 1.04.68 1.04.64 1.12.64 1.08.56 1.16.56.76.32 1.16 4.48.36 1.4a3.12 3.12 0 0 0 3 2.32h17.84a3.12 3.12 0 0 0 3-2.32l.36-1.4 1.16-4.28.76-.32 1.16-.56 1.08-.56 1.12-.64 1.04-.64 1.04-.68 1-.76 1-.76.96-.8.92-.8.88-.88.88-.88.8-.96a8.8 8.8 0 0 0 .8-.92c.28-.32.52-.68.76-1a9.4 9.4 0 0 0 .76-1l.68-1.04.64-1.04.64-1.12.56-1.08.56-1.16c.2-.36.24-.52.32-.76l4.48-1.16 1.4-.36a3.12 3.12 0 0 0 2.32-3V31.08a3.12 3.12 0 0 0-2.32-3.08zM40 66.68c-14.702-.022-26.607-11.951-26.6-26.653S25.324 13.408 40.027 13.4 66.657 25.298 66.68 40a26.12 26.12 0 0 1-.56 5.32C63.635 57.766 52.692 66.715 40 66.68z" fill="#4285f4"/><path d="M40 19.52a20.68 20.68 0 0 0-4.44.48l1.08 4.92c8.322-1.849 16.567 3.397 18.419 11.718s-3.39 16.568-11.71 18.424-16.57-3.383-18.429-11.702a16 16 0 0 1-.36-3.36h-5.04c0 11.311 9.169 20.48 20.48 20.48S60.479 51.31 60.479 40 51.31 19.52 40 19.52z" fill="#669df6"/><path d="M40 29.68a10.4 10.4 0 0 0-2.24.24l1.08 4.96a5.28 5.28 0 0 1 5.611 7.988 5.28 5.28 0 0 1-9.611-1.708 5.72 5.72 0 0 1 0-1.16h-5.16c0 5.699 4.62 10.32 10.32 10.32S50.32 45.699 50.32 40 45.699 29.68 40 29.68z" fill="#aecbfa"/></g></symbol></svg>