<svg xmlns="http://www.w3.org/2000/svg" xmlns:xlink="http://www.w3.org/1999/xlink" viewBox="0 0 81 50" fill="#fff" fill-rule="evenodd" stroke="#000" stroke-linecap="round" stroke-linejoin="round"><use xlink:href="#A" x=".5" y=".5"/><symbol id="A" overflow="visible"><g fill-rule="nonzero" stroke="none"><path d="M52.13 16.04H28.07l-4.01 8.02 4.01 8.02h24.06l4.01-8.02-4.01-8.02z" fill="#4285f4"/><path d="M56.14 24.06l-4.01-8.02H30.115 28.07l-4.01 8.02h32.08z" fill="#aecbfa"/><path d="M64.16 0H52.13l15.92 24.06 6.015-9.023L64.16 0z" fill="#4285f4"/><path d="M80 24.061l-5.935-9.023-6.015 9.023h0l-15.92 24.06h12.03L80 24.061z" fill="#aecbfa"/><path d="M15.84 48.12h12.03L11.95 24.06l-6.015 9.023L15.84 48.12z" fill="#4285f4"/><path d="M0 24.06l5.935 9.023 6.015-9.023h0L27.87 0H15.84L0 24.06z" fill="#aecbfa"/></g></symbol></svg>