<svg xmlns="http://www.w3.org/2000/svg" xmlns:xlink="http://www.w3.org/1999/xlink" viewBox="0 0 81 81" fill="#fff" fill-rule="evenodd" stroke="#000" stroke-linecap="round" stroke-linejoin="round"><use xlink:href="#A" x=".5" y=".5"/><symbol id="A" overflow="visible"><g stroke="none"><path d="M0 7.76h13.32v10.32H0zM0 25.8h13.32v10.32H0zm0 18.08h13.32V54.2H0zm0 18.04h13.32v10.32H0zM66.68 7.76H80v10.32H66.68zm0 18.04H80v10.32H66.68zm0 18.08H80V54.2H66.68zm0 18.04H80v10.32H66.68z" fill="#669df6" fill-rule="nonzero"/><path d="M77.32 18.08H66.68V7.76l10.64 10.32zm0 18.04H66.68V25.8l10.64 10.32zm0 18.08H66.68V43.88L77.32 54.2zm0 18.08H66.68V61.92l10.64 10.36z" fill="#4285f4"/><path d="M13.32 80h53.36V0H13.32zm24-36H24l18.68-30.96V36H56L37.32 66.96z" fill="#aecbfa"/><path d="M37.32 80V67.08L56 36.12H42.68V0h24v80H37.32z" fill="#669df6"/></g></symbol></svg>