<svg xmlns="http://www.w3.org/2000/svg" xmlns:xlink="http://www.w3.org/1999/xlink" viewBox="0 0 66 81" fill="#fff" fill-rule="evenodd" stroke="#000" stroke-linecap="round" stroke-linejoin="round"><use xlink:href="#A" x=".5" y=".5"/><symbol id="A" overflow="visible"><g stroke="none" fill-rule="nonzero"><path d="M48.48 8v8h8v8h8V8h-16zM0 24h8.48v-8h8V8h-16v16z" fill="#aecbfa"/><path d="M64.48 24V8l-8 8v8zm-8 12l-32 44V36z" fill="#669df6"/><path d="M40.48 44l-16 20.12V32.48l16 11.52z" fill="#4285f4"/><path d="M40.48 44h-32l32-44v44z" fill="#aecbfa"/><path d="M64.48 72h-16v-8h8v-8h8v16z" fill="#4285f4"/><path d="M16.48 72v-8h-8v-8h-8v16H17h-.52z" fill="#669df6"/><path d="M.48 56v16l8-8v-8h-8z" fill="#aecbfa"/></g></symbol></svg>