<svg xmlns="http://www.w3.org/2000/svg" xmlns:xlink="http://www.w3.org/1999/xlink" viewBox="0 0 81 58" fill="#fff" fill-rule="evenodd" stroke="#000" stroke-linecap="round" stroke-linejoin="round"><use xlink:href="#A" x=".5" y=".5"/><symbol id="A" overflow="visible"><g stroke="none" fill-rule="nonzero"><path d="M57.309 0H35.218l5.883 9.325h8.204v5.323H37.619L28.294 0H0v17.329h7.964l5.043-9.325h10.285l3.442 5.323H16.448l-5.043 9.325H0v10.365h11.406l5.043 9.645h10.285l-3.442 5.363H13.007l-5.043-9.365H0v17.369h28.294l9.325-14.687h11.686v5.323h-8.204l-5.883 9.365h22.091V30.655H31.656l-3.322 5.363H20.97l5.043-8.004-5.043-8.004h7.364l3.202 5.323h25.773V0z" fill="#669df6"/><path d="M80 4.402L63.992 16.048V40.46L80 52.266V4.402z" fill="#4285f4"/></g></symbol></svg>