<svg xmlns="http://www.w3.org/2000/svg" xmlns:xlink="http://www.w3.org/1999/xlink" viewBox="0 0 53 81" fill="#fff" fill-rule="evenodd" stroke="#000" stroke-linecap="round" stroke-linejoin="round"><use xlink:href="#A" x=".5" y=".5"/><symbol id="A" overflow="visible"><path d="M37.329 27.38a.59.59 0 0 1 .587.555l.001.033v3.235a.59.59 0 0 1-.555.587l-.033.001h-2.353v5.796a1.44 1.44 0 0 0 .163.666l.03.055 15.867 27.283c.504.873.515 1.943.034 2.825l-.034.061-5.755 10.078c-.504.874-1.427 1.419-2.432 1.442l-.067.001H8.641c-1.009 0-1.942-.526-2.465-1.385l-.034-.058L.387 68.479c-.504-.873-.515-1.943-.034-2.825l.034-.061L16.211 38.31c.117-.204.219-.433.233-.667l.002-.054v-5.796h-2.353a.59.59 0 0 1-.587-.555l-.001-.033v-3.235a.59.59 0 0 1 .555-.587l.033-.001h23.235zm-6.765 4.412h-9.706v6.696c0 .479-.119.949-.345 1.37l-.041.074-15.17 26.432c-.248.43-.257.957-.026 1.395l.027.048L9.225 74.6c.249.431.702.702 1.197.721l.053.001h4.836l-4.275-7.405c-.248-.431-.257-.957-.027-1.395l.027-.048 3.722-6.447h27.727l-2.203-3.839H30.02l-1.668-2.889h10.272l-3.089-5.382h-10.36l-1.668-2.889h10.37l-2.925-5.096a2.89 2.89 0 0 1-.386-1.359l-.001-.084v-6.696zm13.777 31.47H34.094l1.668 2.941h10.267l-1.688-2.941zM19.843 15.091c1.594 0 2.886 1.292 2.886 2.886s-1.292 2.886-2.886 2.886-2.886-1.292-2.886-2.886 1.292-2.886 2.886-2.886zm10.889-6.193a4.33 4.33 0 0 1 4.329 4.329 4.33 4.33 0 0 1-4.329 4.329 4.33 4.33 0 0 1-4.329-4.329 4.33 4.33 0 0 1 4.329-4.329zM24.172 0c1.594 0 2.886 1.292 2.886 2.886s-1.292 2.886-2.886 2.886-2.886-1.292-2.886-2.886S22.578 0 24.172 0z" stroke="none" fill="#4285f4"/></symbol></svg>