<svg xmlns="http://www.w3.org/2000/svg" xmlns:xlink="http://www.w3.org/1999/xlink" viewBox="0 0 68 81" fill="#fff" fill-rule="evenodd" stroke="#000" stroke-linecap="round" stroke-linejoin="round"><use xlink:href="#A" x=".5" y=".5"/><symbol id="A" overflow="visible"><g stroke="none"><path d="M24.041 74.4l-4.16-4.2 21.8-21.92 4.16 4.2-21.8 21.92zm-10.92-9.12l-4.16-4.2 29.4-29.56 4.16 4.2-29.4 29.56zm-6.76-13.36l-4.16-4.2 19.52-19.6 4.16 4.2-19.52 19.6z" fill="#aecbfa" fill-rule="nonzero"/><path d="M33.001 6.44l27.12 12v18.2a38.84 38.84 0 0 1-27.12 37.28 38.8 38.8 0 0 1-27.12-37.24V18.52l27.12-12m0-6.52l-33 14.72v21.96C-.16 56.76 13.094 74.482 32.401 80h.6.6c19.236-5.498 32.472-23.114 32.4-43.12V14.72L33.001 0zm5.08 50.48a5.68 5.68 0 1 1 11.36 0 5.68 5.68 0 1 1-11.36 0zm-3.36-16.68a5.68 5.68 0 1 1 11.36 0 5.68 5.68 0 1 1-11.36 0zm-16.64-3.4a5.67 5.67 0 0 1 5.68-5.68 5.68 5.68 0 1 1 0 11.36 5.67 5.67 0 0 1-5.68-5.68z" fill-rule="nonzero" fill="#669df6"/></g></symbol></svg>