<svg xmlns="http://www.w3.org/2000/svg" xmlns:xlink="http://www.w3.org/1999/xlink" viewBox="0 0 69 81" fill="#fff" fill-rule="evenodd" stroke="#000" stroke-linecap="round" stroke-linejoin="round"><style><![CDATA[.B{fill-rule:nonzero}]]></style><use xlink:href="#A" x=".5" y=".5"/><symbol id="A" overflow="visible"><g stroke="none"><g fill="#669df6" class="B"><use xlink:href="#C"/><use xlink:href="#D"/></g><g fill="#4285f4"><use xlink:href="#E" class="B"/><use xlink:href="#F" class="B"/><use xlink:href="#G" class="B"/><use xlink:href="#H" class="B"/><path d="M32.52 3.84h3.08V75.6h-3.08zM2.2 21.72h3.08v34.64H2.2zm59.88-.36h3.08V56h-3.08z" class="B"/></g><g fill="#aecbfa"><use xlink:href="#I" class="B"/><use xlink:href="#I" x="29.56" y="17.08" class="B"/><use xlink:href="#J" class="B"/><use xlink:href="#K" class="B"/><use xlink:href="#I" x="29.56" y="51.48" class="B"/><use xlink:href="#L" class="B"/><use xlink:href="#I" y="71.44" class="B"/><use xlink:href="#C" class="B"/><use xlink:href="#D" class="B"/><use xlink:href="#E" class="B"/><use xlink:href="#F" class="B"/><use xlink:href="#G" class="B"/><use xlink:href="#H" class="B"/><path d="M32.52 3.84h3.08V75.6h-3.08zM2.2 21.72h3.08v34.64H2.2zm59.88-.36h3.08V56h-3.08z" class="B"/></g><g fill="#669df6"><use xlink:href="#I" class="B"/><use xlink:href="#I" x="29.56" y="17.08" class="B"/><use xlink:href="#J" class="B"/><use xlink:href="#K" class="B"/><use xlink:href="#I" x="29.56" y="51.48" class="B"/><use xlink:href="#L" class="B"/><use xlink:href="#I" y="71.44" class="B"/></g></g></symbol><defs ><path id="C" d="M33.96 41.16L.96 21.4l33-19.08L66.92 21zM7.04 21.44l26.88 16L60.8 21 33.96 5.88z"/><path id="D" d="M33.96 77.76L.84 55.56 33.96 37.2l32.6 18.56zm-27.2-22L33.96 74l26.8-18-26.8-15.28z"/><path id="E" d="M2.452 22.008l2.699-1.484 29.907 54.401-2.699 1.484z"/><path id="F" d="M32.775 75.305l29.204-54.237 2.712 1.46-29.204 54.237z"/><path id="G" d="M2.863 54.746l29.52-51.13 2.667 1.54-29.52 51.13z"/><path id="H" d="M32.776 4.858l2.676-1.526 29.619 51.949-2.676 1.526z"/><path id="I" d="M29.8 4.28a4.27 4.27 0 1 1 8.56 0 4.27 4.27 0 1 1-8.56 0z"/><path id="J" d="M0 21.36a4.27 4.27 0 0 1 4.28-4.28 4.27 4.27 0 1 1 0 8.56A4.27 4.27 0 0 1 0 21.36z"/><path id="K" d="M27.36 39.72c0-3.723 2.997-6.72 6.72-6.72s6.72 2.997 6.72 6.72-2.997 6.72-6.72 6.72-6.72-2.997-6.72-6.72z"/><path id="L" d="M0 55.76a4.27 4.27 0 0 1 4.28-4.28 4.27 4.27 0 1 1 0 8.56A4.27 4.27 0 0 1 0 55.76z"/></defs></svg>