<svg xmlns="http://www.w3.org/2000/svg" xmlns:xlink="http://www.w3.org/1999/xlink" viewBox="0 0 81 42" fill="#fff" fill-rule="evenodd" stroke="#000" stroke-linecap="round" stroke-linejoin="round"><use xlink:href="#A" x=".5" y=".5"/><symbol id="A" overflow="visible"><g stroke="none"><path d="M64.941 8.947C58.052 3.182 49.359.016 40.376 0 21.043 0 4.546 14.58.112 35.55c-.311 1.15.036 2.378.902 3.196s2.112 1.094 3.242.718 1.963-1.342 2.167-2.516h0C10.218 18.933 24.078 6.391 40.376 6.391c6.354.022 12.552 1.972 17.775 5.592zm1.757 5.153L43.211 24.606h0a7.99 7.99 0 1 0 4.513 10.306 7.31 7.31 0 0 0 .479-1.837.4.4 0 0 0 .2 0l19.972-15.978c2.357-2.157 1.078-4.234-1.678-2.996z" fill="#4285f4" fill-rule="nonzero"/><path d="M68.816 23.926a3.35 3.35 0 1 1 6.711 0 3.35 3.35 0 1 1-6.711 0z" fill="#669df6" fill-rule="nonzero"/><path d="M73.289 36.109a3.35 3.35 0 1 1 6.711 0 3.35 3.35 0 1 1-6.711 0z" fill="#aecbfa" fill-rule="nonzero"/></g></symbol></svg>