<svg xmlns="http://www.w3.org/2000/svg" xmlns:xlink="http://www.w3.org/1999/xlink" viewBox="0 0 81 81" fill="#fff" fill-rule="evenodd" stroke="#000" stroke-linecap="round" stroke-linejoin="round"><use xlink:href="#A" x=".5" y=".5"/><symbol id="A" overflow="visible"><g stroke="none" fill-rule="nonzero"><path d="M61.96 41.6v26.8a1.6 1.6 0 0 1-1.6 1.6H11.6a1.6 1.6 0 0 1-1.6-1.6V19.6a1.6 1.6 0 0 1 1.6-1.6h26.8a1.6 1.6 0 0 0 1.6-1.6V9.6A1.6 1.6 0 0 0 38.4 8H1.6a1.6 1.6 0 0 0-1.131.469A1.6 1.6 0 0 0 0 9.6v68.8A1.6 1.6 0 0 0 1.6 80h68.8a1.6 1.6 0 0 0 1.6-1.6V41.6a1.6 1.6 0 0 0-1.6-1.6h-6.84a1.6 1.6 0 0 0-1.6 1.6z" fill="#669df6"/><path d="M48 1.6v28.8a1.6 1.6 0 0 0 1.6 1.6h28.8a1.6 1.6 0 0 0 1.6-1.6V1.6A1.6 1.6 0 0 0 78.4 0H49.6A1.6 1.6 0 0 0 48 1.6zM70.4 18h-6.84a1.6 1.6 0 0 1-1.6-1.6V9.6a1.6 1.6 0 0 1 1.6-1.6h6.84A1.6 1.6 0 0 1 72 9.6v6.8a1.6 1.6 0 0 1-1.6 1.6z" fill="#4285f4"/></g></symbol></svg>