<svg xmlns="http://www.w3.org/2000/svg" xmlns:xlink="http://www.w3.org/1999/xlink" viewBox="0 0 81 71" fill="#fff" fill-rule="evenodd" stroke="#000" stroke-linecap="round" stroke-linejoin="round"><use xlink:href="#A" x=".5" y=".5"/><symbol id="A" overflow="visible"><g stroke="none"><path d="M58.56 47.52l2.96-5h14.12L80 35l-8.72-15H59l-4.24-7.44H50V7.52h7.76L62 15h6.36L59.6 0H42.52v20h6.92l2.92 5h-9.84v10h9.04l4.2-7.48H67l2.88 5h-11.2L54.48 40H42.52v17.52h13.6l-2.88 5H42.52V70H59.6l13.12-22.48h-8.36l-2.92 5H50v-5h8.56z" fill="#4285f4"/><path d="M21.44 47.52l-2.96-5H4.36L0 35l8.72-15H21l4.24-7.44H30V7.52h-7.76L18 15h-6.36L20.4 0h17.12v20h-6.96l-2.92 5h9.88v10h-9.08l-4.2-7.48H13l-2.88 5h11.2l4.2 7.48h12v17.52H23.88l2.88 5h10.76V70H20.4L7.28 47.52h8.36l2.92 5H30v-5h-8.56z" fill="#669df6"/></g></symbol></svg>