<svg xmlns="http://www.w3.org/2000/svg" xmlns:xlink="http://www.w3.org/1999/xlink" viewBox="0 0 81 81" fill="#fff" fill-rule="evenodd" stroke="#000" stroke-linecap="round" stroke-linejoin="round"><use xlink:href="#A" x=".5" y=".5"/><symbol id="A" overflow="visible"><g stroke="none"><g fill="#4285f4" fill-rule="nonzero"><path d="M15.466 29.422a1.65 1.65 0 0 1-1.756-1.533 1.65 1.65 0 0 1 1.533-1.756l10.222-1.422c.437-.063.881.052 1.232.319s.58.665.635 1.103a1.69 1.69 0 0 1-1.422 1.911l-10.222 1.378zm12.532-1.455l1.034-3.169 18.422 6.011-1.034 3.169z"/><path d="M27.467 27.377h-.489c-.854-.276-1.329-1.186-1.067-2.044L29.6 12.711c.276-.854 1.186-1.329 2.044-1.067a1.6 1.6 0 0 1 1.156 2l-3.733 12.489a1.69 1.69 0 0 1-1.6 1.244zm22.8 6.223a1.6 1.6 0 0 1-1.378-2.489l7.422-18.8a1.69 1.69 0 0 1 2.089-.8 1.69 1.69 0 0 1 1.022 2l-7.467 18.844c-.22.747-.91 1.256-1.689 1.244zM11.865 60.46l17.469-13.95 2.08 2.605-17.469 13.95z"/><path d="M49.422 34.267l1.289-3.067 16.178 7.067-1.333 3.022-16.133-7.022zm-.578 17.244l2.311-2.444 14.356 13.556-2.311 2.4-14.356-13.511zM25.723 27.168l3.267-.663 3.591 17.683-3.267.663z"/><path d="M30.933 47.111l18.222-16 2.222 2.489-18.222 16-2.222-2.489z"/><path d="M47.778 49.866l1.067-17.644 3.333.222-1.111 17.644-3.289-.222zm-22.667-1.778a6.045 6.045 0 1 1 12.089 0 6.044 6.044 0 1 1-12.089 0z"/><path d="M43.378 32.712a7.156 7.156 0 1 1 14.311 0 7.156 7.156 0 1 1-14.311 0zm3.378 18.577c0-2.068 1.665-3.733 3.733-3.733s3.733 1.665 3.733 3.733-1.665 3.733-3.733 3.733-3.733-1.665-3.733-3.733zM22.444 25.2a4.4 4.4 0 1 1 8.8 0 4.4 4.4 0 1 1-8.8 0z"/></g><g fill="#669df6"><path d="M44.445 0h-8.889v17.778h8.889V0h0zm17.777 0h-8.889v17.778h8.889V0h0zM26.667 0h-8.889v17.778h8.889V0h0zm17.778 62.222h-8.889V80h8.889V62.222h0zm17.777 0h-8.889V80h8.889V62.222h0zm-35.555 0h-8.889V80h8.889V62.222h0zm-8.889-26.666H0v8.889h17.778v-8.889h0z" fill-rule="nonzero"/><path d="M17.778 17.778H0v8.889h17.778v-8.889h0zm0 35.555H0v8.889h17.778v-8.889h0zM80 35.556H62.222v8.889H80v-8.889h0zm0-17.778H62.222v8.889H80v-8.889h0zm0 35.555H62.222v8.889H80v-8.889h0z" fill-rule="nonzero"/><path d="M66.667 8.889H13.333c-2.455 0-4.444 1.99-4.444 4.444v53.333c0 2.455 1.99 4.444 4.444 4.444h53.333c2.455 0 4.444-1.99 4.444-4.444V13.333c0-2.455-1.99-4.444-4.444-4.444zm-4.444 50.978c0 .625-.248 1.224-.69 1.666s-1.041.69-1.666.69H20.133c-.625 0-1.224-.248-1.666-.69s-.69-1.041-.69-1.666V20.133c0-.625.248-1.224.69-1.666s1.041-.69 1.666-.69h39.733c.625 0 1.224.248 1.666.69s.69 1.041.69 1.666z" fill-rule="nonzero"/></g></g></symbol></svg>