<svg xmlns="http://www.w3.org/2000/svg" xmlns:xlink="http://www.w3.org/1999/xlink" viewBox="0 0 75 81" fill="#fff" fill-rule="evenodd" stroke="#000" stroke-linecap="round" stroke-linejoin="round"><style><![CDATA[.B{fill-rule:nonzero}.C{fill:#aecbfa}]]></style><use xlink:href="#A" x=".5" y=".5"/><symbol id="A" overflow="visible"><g stroke="none"><path d="M12.145 74.607C11.79 77.68 9.187 80 6.093 80S.396 77.68.04 74.607h0v-17.27c-.269-2.329.822-4.606 2.806-5.856a6.09 6.09 0 0 1 6.493 0c1.984 1.249 3.075 3.527 2.806 5.856zm20.7.001C32.49 77.681 29.887 80 26.793 80s-5.697-2.319-6.053-5.393h0v-17.27c.356-3.074 2.958-5.393 6.053-5.393s5.697 2.319 6.053 5.393zm20.417 0C52.907 77.681 50.304 80 47.21 80s-5.697-2.319-6.053-5.393v-17.27c.356-3.074 2.958-5.393 6.053-5.393s5.697 2.319 6.053 5.393zm20.538-.001C73.445 77.68 70.842 80 67.748 80s-5.697-2.319-6.053-5.393v-17.27c-.269-2.329.822-4.606 2.806-5.856a6.09 6.09 0 0 1 6.493 0c1.984 1.249 3.075 3.527 2.806 5.856z" fill="#4285f4" class="B"/><path d="M20.498 40.229a6.08 6.08 0 0 1 6.093-6.093 6.08 6.08 0 1 1 0 12.186 6.08 6.08 0 0 1-6.093-6.093z" class="B C"/><use xlink:href="#C" fill="#669df6" class="B"/><use xlink:href="#C" y="-17.068" class="B C"/><g fill="#669df6"><use xlink:href="#C" x="20.539" class="B"/><use xlink:href="#C" x="20.539" y="-17.068" class="B"/></g><use xlink:href="#C" x="20.539" y="-34.136" class="B C"/></g></symbol><defs ><path id="C" d="M41.076 40.229a6.08 6.08 0 1 1 12.186 0 6.08 6.08 0 1 1-12.186 0z"/></defs></svg>