<svg xmlns="http://www.w3.org/2000/svg" xmlns:xlink="http://www.w3.org/1999/xlink" viewBox="0 0 24 24"><defs><path id="a" d="M0 0h24v24H0z"/></defs><g fill="none" fill-rule="evenodd"><mask id="b" fill="#fff"><use xlink:href="#a"/></mask><use xlink:href="#a" fill="#FFF"/><g mask="url(#b)"><path stroke="#3C4043" d="M1 .5h1.553c.68 0 1.257.5 1.354 1.172L5.45 14.188h11.596l5.516-10.953H4.051"/><path fill="#4280EE" d="M10.16 20.112a2.5 2.5 0 1 1-5 0 2.5 2.5 0 0 1 5 0m9.213-.001a2.5 2.5 0 1 1-5 0 2.5 2.5 0 0 1 5 0"/><path stroke="#3C4043" d="m5.45 14.189-1.884 3.765c-.509.94.155 2.224 1.198 2.224h13.347"/></g></g></svg>