<svg xmlns="http://www.w3.org/2000/svg" viewBox="0 0 24 24"><g fill="none" fill-rule="evenodd"><circle cx="13" cy="12" r="10.5" fill="#FFF" stroke="#3C4043"/><path fill="#4285F4" fill-rule="nonzero" d="m14.284 17.048.188-1.361c.308-.128.6-.3.864-.505l1.276.514c.12.042.248 0 .316-.112l1.027-1.771c.069-.112.035-.249-.06-.334l-1.086-.847c.025-.163.042-.326.042-.497 0-.171-.017-.334-.034-.505l1.087-.847a.262.262 0 0 0 .06-.334l-1.027-1.772c-.069-.11-.197-.154-.317-.11l-1.275.513a3.632 3.632 0 0 0-.864-.505l-.197-1.361A.273.273 0 0 0 14.027 7h-2.054a.265.265 0 0 0-.257.223l-.197 1.352c-.308.137-.599.3-.864.505L9.38 8.566a.262.262 0 0 0-.317.111L8.036 10.45a.26.26 0 0 0 .06.334l1.087.847a3.338 3.338 0 0 0-.034.505c0 .171.017.334.034.505l-1.087.856a.25.25 0 0 0-.06.325l1.027 1.772c.069.111.197.154.317.111l1.275-.513c.265.205.548.376.864.505l.189 1.36c.025.12.137.214.265.214h2.054c.12 0 .231-.094.257-.222zm-2.996-4.913c0-.941.77-1.712 1.712-1.712.941 0 1.712.77 1.712 1.712s-.77 1.712-1.712 1.712c-.941 0-1.712-.77-1.712-1.712z"/><circle cx="2.5" cy="11.5" r="2.5" fill="#3C4043"/><circle cx="17.5" cy="2.5" r="2.5" fill="#3C4043"/><circle cx="17.5" cy="21.5" r="2.5" fill="#3C4043"/><circle cx="17.5" cy="2.5" r="2" fill="#FFF" stroke="#3C4043"/><circle cx="17.5" cy="21.5" r="2" fill="#FFF" stroke="#3C4043"/><circle cx="2.5" cy="11.5" r="2" fill="#FFF" stroke="#3C4043"/></g></svg>