<svg xmlns="http://www.w3.org/2000/svg" viewBox="0 0 24 24"><g fill="none" fill-rule="evenodd"><path d="M0 0h24v24H0z"/><g fill-rule="nonzero" transform="translate(2 .667)"><path fill="#669DF6" d="M19.811 13.644a.924.924 0 0 0-1.29-.195l-8.513 6.28v.26a.88.88 0 0 1 .882.88.88.88 0 0 1-.882.878v.041c.197.003.39-.06.547-.179l9.085-6.68a.917.917 0 0 0 .171-1.285z"/><path fill="#AECBFA" d="M10.008 21.747a.88.88 0 0 1-.882-.878.88.88 0 0 1 .882-.88v-.26L1.47 13.45a.926.926 0 0 0-1.291.195.917.917 0 0 0 .196 1.285l9.084 6.68c.159.117.35.18.548.179v-.04z"/><path fill="#4285F4" d="M10.008 19.07c-.997 0-1.806.806-1.806 1.799 0 .993.809 1.798 1.806 1.798s1.805-.805 1.805-1.798-.808-1.798-1.805-1.798zm0 2.677a.88.88 0 0 1-.882-.878.88.88 0 0 1 .882-.88.88.88 0 0 1 .882.88.889.889 0 0 1-.882.878z"/><path fill="#AECBFA" d="M2.655 4.141a.933.933 0 0 1-.956-.944V.92c0-.328.176-.632.462-.796a.926.926 0 0 1 .923 0 .919.919 0 0 1 .462.796v2.278a.921.921 0 0 1-.89.944z"/><circle cx="2.623" cy="11.333" r="1" fill="#AECBFA"/><circle cx="2.623" cy="8.632" r="1" fill="#AECBFA"/><circle cx="2.623" cy="5.923" r="1" fill="#AECBFA"/><path fill="#4285F4" d="M17.36 6.818a.917.917 0 0 1-.923-.92V3.605c0-.508.414-.92.923-.92.51 0 .924.412.924.92V5.9a.917.917 0 0 1-.924.919z"/><circle cx="17.393" cy="11.35" r="1" fill="#4285F4"/><circle cx="17.393" cy="8.6" r="1" fill="#4285F4"/><circle cx="17.393" cy=".927" r="1" fill="#4285F4"/><path fill="#669DF6" d="M10.008 14.97a.921.921 0 0 1-.923-.92v-2.294c0-.507.413-.919.923-.919s.923.412.923.92v2.294c0 .507-.413.92-.923.92z"/><circle cx="10.008" cy="16.76" r="1" fill="#669DF6"/><circle cx="10.008" cy="9.055" r="1" fill="#669DF6"/><circle cx="10.008" cy="6.354" r="1" fill="#669DF6"/><path fill="#4285F4" d="M13.7 9.552a.925.925 0 0 1-.923-.92V6.33c0-.508.414-.92.923-.92.51 0 .924.412.924.92v2.302a.93.93 0 0 1-.924.92z"/><circle cx="13.7" cy="3.629" r="1" fill="#4285F4"/><circle cx="13.7" cy="14.01" r="1" fill="#4285F4"/><circle cx="13.7" cy="11.301" r="1" fill="#4285F4"/><circle cx="6.315" cy="14.01" r="1" fill="#AECBFA"/><circle cx="6.315" cy="6.354" r="1" fill="#AECBFA"/><circle cx="6.315" cy="3.629" r="1" fill="#AECBFA"/><path fill="#AECBFA" d="M6.315 12.228a.93.93 0 0 1-.923-.895V9.006c0-.507.413-.919.923-.919s.923.412.923.92v2.326a.921.921 0 0 1-.923.895z"/></g></g></svg>