<svg xmlns="http://www.w3.org/2000/svg" xmlns:xlink="http://www.w3.org/1999/xlink" fill="#fff" fill-rule="evenodd" stroke="#000" stroke-linecap="round" stroke-linejoin="round" viewBox="0 0 74.375 85"><use xlink:href="#a" x="2.188" y="2.5"/><symbol id="a" overflow="visible"><g stroke="none"><path fill="#b7ca9d" d="m70 55.054-34.99-5.2L0 55.054 34.99 80 70 55.054z"/><path fill="#4b612c" d="m7.012 54.449 5.911 1.785L26.82 34.703 12.923 13.171l-5.911 2.293V54.45z"/><path fill="#759c3e" d="m33.86 52.595-20.938 3.717V13.171l20.938 4.761v34.663z"/><path fill="#4b612c" d="m24.521 59.834-8.161-2.468V4.127L24.521 0l24.183 31.493-24.183 28.342z"/><path fill="#759c3e" d="m52.49 53.278-27.969 6.624V0L52.49 11.015v42.264z"/><path fill="#4b612c" d="M34.99 67.591 0 55.054v7.278L34.99 80V67.59z"/><path fill="#759c3e" d="M70 62.322 34.99 80V67.59L70 55.054v7.268z"/><path fill="#b7ca9d" d="M60.168 43.005h-8.489l-24.183 1.659L35 63.015l25.168-20.01z"/><path fill="#4b612c" d="M27.496 60.742 35 63.015l-.01-17.532-7.494-.819v16.078z"/><path fill="#759c3e" d="M60.168 43.005 34.99 45.483 35 63.015l25.168-7.658V43.005z"/></g></symbol></svg>