<svg xmlns="http://www.w3.org/2000/svg" xmlns:xlink="http://www.w3.org/1999/xlink" fill="#fff" fill-rule="evenodd" stroke="#000" stroke-linecap="round" stroke-linejoin="round" viewBox="0 0 74.375 85"><style>.B{stroke:none}.C{fill:#4b612c}.D{fill:#759c3e}</style><use xlink:href="#A" x="2.188" y="2.5"/><symbol id="A" overflow="visible"><path d="m0 49.376 14.616-.595-4.789 19.307L0 63.435V49.376zm46.042.508 16.45-1.102-2.318 19.307-14.132-3.62V49.884z" class="B C"/><path d="m23.989 49.834-14.163.049v18.205l14.163-3.629V49.834zM70 49.376l-9.826.176v18.537L70 63.435V49.376z" class="B D"/><path d="m16.357 52.469 27.44-.459L35 80l-18.643-8.82V52.469z" class="B C"/><path d="M53.643 52.468 35 53.131V80l18.643-8.82V52.468z" class="B D"/><path fill="#3c4929" d="m70 30.624-35 2.751-35-2.751 35-26.39 35 26.39z" class="B"/><path fill="#b7ca9d" d="M53.644 52.469 35 50.215l-18.643 2.254L35 56l18.643-3.532zm-29.655-2.635-11.052-1.473L0 49.376l10.043 1.902 13.947-1.444zM70 49.376l-12.741-1.005-11.217 1.512 14.132 1.424L70 49.376z" class="B"/><path d="m53.643 31.034 6.53-.566 3.276 10.156-3.276 8.937-6.53-.566V31.034zm-43.858-.566-4.017.634v17.815l4.017.644 5.49-8.8-5.49-10.293zM35 26.917l-7.406 1.171v23.854L35 53.132l6.16-11.883L35 26.917z" class="B C"/><path d="m16.325 31.034-6.54-.566v19.093l6.54-.566V31.034z" class="B D"/><path d="M0 30.624 35 24l9.456-10.663L35 0 0 16.576v14.049z" class="B C"/><path d="M70 30.624 35 24V0l35 16.576v14.049zm-35-3.707 7.375 1.171v23.854L35 53.132V26.917zm25.174 3.551 4.027.634v17.815l-4.027.644V30.468z" class="B D"/></symbol></svg>