<svg xmlns="http://www.w3.org/2000/svg" xmlns:xlink="http://www.w3.org/1999/xlink" fill="#fff" fill-rule="evenodd" stroke="#000" stroke-linecap="round" stroke-linejoin="round" viewBox="0 0 74.375 85"><use xlink:href="#a" x="2.188" y="2.5"/><symbol id="a" overflow="visible"><g stroke="none"><path fill="#4b612c" d="M60.002 36.571V17.227c-.026-7.98-6.735-14.435-15.003-14.435H25.002c-8.268 0-14.978 6.455-15.003 14.435v19.344H0V80h70V36.571zm-9.998 0H19.997V21.134c0-4.801 4.032-8.692 9.007-8.692h11.993c4.974 0 9.007 3.892 9.007 8.692v15.437z"/><path fill="#759c3e" d="M60.002 33.779v-19.31C59.995 6.476 53.28 0 44.998 0H25.002C16.72 0 10.005 6.476 9.998 14.469v19.31H0v43.428h70V33.779zm-9.998 0H19.997V18.353c0-4.801 4.032-8.692 9.007-8.692h11.993c4.974 0 9.007 3.892 9.007 8.692v15.426z"/></g></symbol></svg>