<svg xmlns="http://www.w3.org/2000/svg" xmlns:xlink="http://www.w3.org/1999/xlink" fill="#fff" fill-rule="evenodd" stroke="#000" stroke-linecap="round" stroke-linejoin="round" viewBox="0 0 74.375 85"><use xlink:href="#a" x="2.188" y="2.5"/><symbol id="a" overflow="visible"><g stroke="none"><path fill="#759c3e" d="M14.243 62.371 2.389 59.62V21.132l11.854-2.156v43.395z"/><path fill="#b7ca9d" d="m4.509 55.327 30.772 21.444V59.005l-21.037-4.966-9.734 1.288z"/><path fill="#4b612c" d="m55.736 59.005 11.656.615.322-36.263-11.978-3.581v39.229z"/><path fill="#3c4929" d="m35.281 21.346-21.037 4.605-9.734-1.278L35.281 3.805v17.541z"/><path fill="#b7ca9d" d="M65.471 55.327 34.699 75.473V59.005l21.037-4.966 9.734 1.288z"/><path fill="#3c4929" d="m34.699 21.346 21.037 4.605 9.734-1.278L34.99 2.956l-.291 18.39z"/><path fill="#4b612c" d="M34.99 0 0 16.585v46.829L34.99 80l8.903-39.454zM24.725 61.024 4.509 55.327V24.673l20.217-5.698z"/><path fill="#759c3e" d="M34.99 80 70 63.415v-46.83L34.99 0zm10.306-61.024 20.217 5.698v30.654l-20.258 5.698z"/></g></symbol></svg>