<svg xmlns="http://www.w3.org/2000/svg" xmlns:xlink="http://www.w3.org/1999/xlink" fill="#fff" fill-rule="evenodd" stroke="#000" stroke-linecap="round" stroke-linejoin="round" viewBox="0 0 63.75 85"><use xlink:href="#a" x="1.875" y="2.5"/><symbol id="a" overflow="visible"><path fill="#4b612c" stroke="none" d="M2.238 39.84h12.289V69.1H2.238zm19.414 5.699h12.289V69.1H21.652zm33.942 28.197V80H0v-6.264zM41.067 36.32v32.779h12.289V36.32a13.27 13.27 0 0 1-12.289 0z"/><path fill="#759c3e" stroke="none" d="M2.238 37.095h12.289v29.26H2.238zm19.414 5.699h12.289v23.561H21.652zm33.942 28.198v6.264H0v-6.264zM41.067 30.577h12.289v35.789H41.067z"/><path fill="#4b612c" stroke="none" d="M34.435 6.109c0-1.839 1.535-3.32 3.442-3.32h18.68C58.465 2.789 60 4.27 60 6.109v18.016c0 1.839-1.535 3.32-3.442 3.32h-18.68c-1.907 0-3.442-1.481-3.442-3.32z"/><path fill="#759c3e" stroke="none" d="M34.435 3.32c0-1.839 1.535-3.32 3.442-3.32h18.68C58.465 0 60 1.481 60 3.32v18.016c0 1.839-1.535 3.32-3.442 3.32h-18.68c-1.907 0-3.442-1.481-3.442-3.32z"/></symbol></svg>