<svg xmlns="http://www.w3.org/2000/svg" xmlns:xlink="http://www.w3.org/1999/xlink" fill="#fff" fill-rule="evenodd" stroke="#000" stroke-linecap="round" stroke-linejoin="round" viewBox="0 0 77 81"><style>.B{stroke:none}</style><use xlink:href="#A" x=".5" y=".5"/><symbol id="A" overflow="visible"><g class="B"><path fill="#4b612c" d="M6.5 63.5v-4h4C8.25 55.5 7 52.25 6.25 49H0V35h6.25c.75-3.25 2-6.5 4.25-10.5l-4-4v-4h4l6-6 4.25 4c2.75-2 8-3.75 10.25-4.25V4h14v6.25c2.25.5 7.5 2.25 10.25 4.25l4.25-4 6 6h4v4l-4 4c2.25 4 3.5 7.25 4.25 10.5H76v14h-6.25c-.75 3.25-2 6.5-4.25 10.5h4v4l-.25.25-9.75 9.75-4.25-4c-2.75 2-8 3.75-10.25 4.25V80H31v-6.25c-2.25-.5-7.5-2.25-10.25-4.25l-4.25 4-9.75-9.75z"/><path fill="#759c3e" d="M38 76h-7v-6.25c-2.25-.5-7.5-2.25-10.25-4.25l-4.25 4-10-10 4-4C8.25 51.5 7 48.25 6.25 45H0V31h6.25c.75-3.25 2-6.5 4.25-10.5l-4-4 10-10 4.25 4c2.75-2 8-3.75 10.25-4.25V0h14v6.25c2.25.5 7.5 2.25 10.25 4.25l4.25-4 10 10-4 4c2.25 4 3.5 7.25 4.25 10.5H76v14h-6.25c-.75 3.25-2 6.5-4.25 10.5l4 4-10 10-4.25-4c-2.75 2-8 3.75-10.25 4.25V76z"/></g><circle cx="38" cy="38" r="28" fill="#4b612c" class="B"/><circle cx="38" cy="38.5" r="22.5" class="B"/><path fill="#b7ca9d" d="M60.5 38.5A22.45 22.45 0 0 0 38 16v-6a27.94 27.94 0 0 1 28 28l-.004.5z" class="B"/><path fill="#759c3e" d="M35 21.5h5v14h11v6H35z" class="B"/></symbol></svg>