<svg xmlns="http://www.w3.org/2000/svg" xmlns:xlink="http://www.w3.org/1999/xlink" fill="#fff" fill-rule="evenodd" stroke="#000" stroke-linecap="round" stroke-linejoin="round" viewBox="0 0 77 81"><style>.B{stroke:none}.D{fill:#759c3e}</style><use xlink:href="#A" x=".5" y=".5"/><symbol id="A" overflow="visible"><g class="B"><path fill="#4b612c" d="M21.802 20.75H11.25v-3h12.677L32.25 6l41.5 29.25-7.882 11.25H76v3H63.766l-3.503 5H70.75v3H58.162l-3.503 5H65.25v3H52.557L44.5 77l-11.25-7.768V80h-3V67.161l-5-3.452V74.5h-3V61.637l-5-3.452V68.75h-3V56.113L2.5 48l7.969-11.25H0v-3h12.594l3.542-5H5.5v-3h12.76z"/><path d="m43 10.595 3 2.071V0h-3z" class="D"/></g><g class="B"><path d="m43 10.595 3 2.071V23h-3z"/><path d="m51 16.119 3 2.071V5.75h-3z" class="D"/></g><path d="m51 16.119 3 2.071v10.56h-3z" class="B"/><path d="m59 21.643 3 2.071V11.25h-3z" class="B D"/><path d="m59 21.643 3 2.071V34.25h-3z" class="B"/><g class="B D"><path d="m12.274 30.75 3.554-5H28.5v-3H17.961l3.554-5H34.25v-3H23.648L32 3l11 7.595V23h3V12.667l5 3.452V28.75h3V18.19l5 3.452V34.25h3V23.714L74 32l-8.175 11.5H53.25v3h10.443l-3.554 5H47.75v3h10.256l-3.554 5H42.25v3h10.069l-7.819 11-11.25-7.768V53.25h-3v10.411l-5-3.452V47.75h-3v10.387l-5-3.452V42h-3v10.613L2.5 44.5l7.642-10.75H23v-3z"/><path d="m65.826 43.5-2.133 3H76v-3z"/></g><path d="m65.825 43.5-2.133 3H53.25v-3z" class="B"/><path d="m60.139 51.5-2.133 3H70.75v-3z" class="B D"/><path d="m60.139 51.5-2.133 3H47.75v-3z" class="B"/><path d="m54.452 59.5-2.133 3H65.25v-3z" class="B D"/><path d="m54.452 59.5-2.133 3H42.25v-3zM14.25 52.613l3 2.071V42h-3z" class="B"/><path d="m14.25 52.613 3 2.071V65h-3z" class="B D"/><path d="m22.25 58.137 3 2.071V47.75h-3z" class="B"/><path d="m22.25 58.137 3 2.071V70.75h-3z" class="B D"/><path d="m30.25 63.661 3 2.071V53.25h-3z" class="B"/><path d="m30.25 63.661 3 2.071V76.25h-3z" class="B D"/><path d="m23.648 14.75-2.133 3H34.25v-3z" class="B"/><path d="m23.648 14.75-2.133 3H11.25v-3z" class="B D"/><path d="m17.961 22.75-2.133 3H28.5v-3z" class="B"/><path d="m17.961 22.75-2.133 3H5.5v-3z" class="B D"/><path d="m12.275 30.75-2.133 3H23v-3z" class="B"/><path d="m12.274 30.75-2.133 3H0v-3z" class="B D"/></symbol></svg>