<svg xmlns="http://www.w3.org/2000/svg" xmlns:xlink="http://www.w3.org/1999/xlink" fill="#fff" fill-rule="evenodd" stroke="#000" stroke-linecap="round" stroke-linejoin="round" viewBox="0 0 76 81"><style>.B{stroke:none}</style><use xlink:href="#A" x=".5" y=".5"/><symbol id="A" overflow="visible"><path fill="#4b612c" d="M0 16.727C0 9.441 5.756 3.576 12.906 3.576h49.189C69.244 3.576 75 9.441 75 16.727V66.85C75 74.135 69.244 80 62.094 80H12.906C5.756 80 0 74.135 0 66.849z" class="B"/><path fill="#759c3e" d="M0 13.078C0 5.833 5.756 0 12.906 0h49.189C69.244 0 75 5.833 75 13.078v49.845C75 70.167 69.244 76 62.094 76H12.906C5.756 76 0 70.167 0 62.922z" class="B"/><g class="B"><path d="M7 10h34v9H7z"/><circle cx="49" cy="14.5" r="4.5" fill="#b7ca9d"/></g><circle cx="62.25" cy="14.5" r="4.5" fill="#b7ca9d" class="B"/><path d="M48.5 38h18v29h-18zM51 50.5h13v13H51zM28.5 28h18v39h-18zm9 35.25h6.25l-6.25-12-6.25 12zM9 47h18v20H9zm2.75 10c0-3.462 2.787-6.25 6.25-6.25s6.25 2.788 6.25 6.25-2.788 6.25-6.25 6.25-6.25-2.788-6.25-6.25z" class="B"/></symbol></svg>