<svg xmlns="http://www.w3.org/2000/svg" viewBox="0 0 1706.667 960"><defs><clipPath id="a" clipPathUnits="userSpaceOnUse"><path d="M0 720h1280V0H0Z"/></clipPath></defs><g clip-path="url(#a)" transform="matrix(1.33333 0 0 -1.33333 0 960)"><path d="M0 0v192.249h28.244v-87.106l79.034 86.869h36.789L69.779 110.84 148.103 3.562c.314-.474.432-1.146.355-2.019-.082-.866-.752-1.303-2.016-1.303h-30.619L51.978 90.904l-23.734-24.21V4.272C28.244 1.424 26.975 0 24.446 0Z" style="fill:#103e5c;fill-opacity:1;fill-rule:nonzero;stroke:none" transform="translate(352.99 264.51)"/><path d="M0 0h27.769v-126.266c0-2.689-.831-5.022-2.492-7.003-1.662-1.978-3.839-2.967-6.527-2.967l-49.13-.473c-8.389-.158-16.14.633-23.261 2.371-7.119 1.744-13.291 4.592-18.512 8.545-5.222 3.956-9.297 9.055-12.223 15.308-2.929 6.251-4.391 13.887-4.391 22.905V.237h27.532v-88.53c0-8.228 2.57-14.322 7.713-18.275 5.14-3.958 11.275-5.856 18.394-5.696l32.517.713c1.739 0 2.611.948 2.611 2.846z" style="fill:#103e5c;fill-opacity:1;fill-rule:nonzero;stroke:none" transform="translate(604.811 401.46)"/><path d="M0 0c9.019 0 15.546 1.78 19.58 5.341 4.036 3.559 6.054 9.611 6.054 18.156v41.536c0 5.696-.712 10.242-2.137 13.646-1.424 3.401-3.442 6.052-6.052 7.95-2.611 1.901-5.815 3.124-9.612 3.681-3.799.552-7.993.83-12.579.83-3.324 0-6.806-.081-10.443-.238-3.643-.16-6.965-.318-9.97-.474a57.027 57.027 0 0 0-5.221-.237 58.41 58.41 0 0 1-5.222-.238V3.085c0-1.584 1.105-2.374 3.324-2.374zm-54.589-21.836c-2.692 0-4.865.991-6.526 2.966-1.663 1.981-2.493 4.237-2.493 6.766v180.618h28.006v-55.539h5.34c1.817 0 3.679.077 5.579.237 3.162.157 6.604.276 10.324.357 3.715.078 7.317.118 10.799.118 10.125 0 18.709-.83 25.752-2.491 7.038-1.662 12.816-4.433 17.325-8.309 4.51-3.878 7.792-8.94 9.851-15.189 2.054-6.253 3.085-13.966 3.085-23.141V23.971c0-16.933-4.235-29.034-12.697-36.312-8.467-7.278-20.612-10.76-36.433-10.443z" style="fill:#103e5c;fill-opacity:1;fill-rule:nonzero;stroke:none" transform="translate(731.313 287.534)"/><path d="M0 0c-9.494 0-16.97-2.255-22.43-6.764-5.458-4.51-8.188-11.593-8.188-21.242v-7.12h67.405c2.215 0 3.324.788 3.324 2.372v7.595c0 8.86-2.811 15.268-8.427 19.225C26.066-1.98 18.906 0 10.205 0Zm15.189-114.874c-23.419 0-41.416 4.391-53.996 13.172-12.579 8.782-18.868 22.823-18.868 42.128v31.092c0 7.752 1.502 14.793 4.51 21.124 3.004 6.327 7.079 11.708 12.223 16.139 5.14 4.429 11.036 7.87 17.682 10.324 6.645 2.452 13.606 3.68 20.887 3.68H9.731a72.53 72.53 0 0 0 20.531-2.966c6.722-1.981 12.697-4.948 17.919-8.901A47.451 47.451 0 0 0 60.878-3.56c3.242-5.697 4.865-12.264 4.865-19.699v-19.702c0-3.955-1.387-7.437-4.152-10.443-2.771-3.005-6.135-4.509-10.088-4.509h-82.121v-4.272c0-6.645 1.343-11.906 4.035-15.782 2.689-3.879 6.249-6.807 10.68-8.782 4.429-1.981 9.453-3.245 15.072-3.799a237.87 237.87 0 0 1 16.969-1.066c8.545-.319 16.414-.201 23.616.355a468.673 468.673 0 0 1 22.192 2.254v-17.801c0-3.003-1.661-4.746-4.983-5.22-8.705-1.265-16.181-2.055-22.43-2.375a385.725 385.725 0 0 0-19.344-.473" style="fill:#103e5c;fill-opacity:1;fill-rule:nonzero;stroke:none" transform="translate(867.783 378.674)"/><path d="M0 0v87.343c0 15.346 3.953 27.45 11.867 36.315 7.91 8.859 19.302 13.291 34.177 13.291h38.687v-23.024H52.927c-8.07 0-14.359-2.454-18.868-7.357-4.51-4.906-6.764-11.392-6.764-19.462V6.647c0-1.898-.594-3.479-1.781-4.746C24.328.636 22.863 0 21.123 0Z" style="fill:#103e5c;fill-opacity:1;fill-rule:nonzero;stroke:none" transform="translate(959.871 264.51)"/><path d="M0 0v136.949h27.532V4.749c0-3.165-1.507-4.749-4.51-4.749Zm-1.662 192.249h30.38v-34.177h-30.38z" style="fill:#103e5c;fill-opacity:1;fill-rule:nonzero;stroke:none" transform="translate(1068.572 264.51)"/><path d="m0 0-34.89 45.571-33.228-43.197C-69.227.796-70.651 0-72.39 0h-30.854l51.978 68.357-51.029 68.592h33.228l34.177-45.571 34.415 45.571h32.754l-50.555-68.592L30.855 3.088c.474-.631.553-1.306.237-2.019C30.773.358 30.143 0 29.193 0Z" style="fill:#103e5c;fill-opacity:1;fill-rule:nonzero;stroke:none" transform="translate(1221.893 264.51)"/><path d="m0 0 111.537-64.396L223.074 0v128.792l-111.537 64.396L0 128.792Zm111.537-85.087c-2.397 0-4.79.617-6.927 1.851l-117.466 67.82a13.883 13.883 0 0 0-6.923 11.991v135.642c0 4.932 2.653 9.526 6.923 11.991l117.47 67.821a13.88 13.88 0 0 0 13.845 0l117.471-67.821a13.889 13.889 0 0 0 6.922-11.991V-3.425a13.89 13.89 0 0 0-6.918-11.99L118.459-83.238a13.852 13.852 0 0 0-6.922-1.849" style="fill:#103e5c;fill-opacity:1;fill-rule:nonzero;stroke:none" transform="translate(45.607 295.604)"/><path d="M0 0v-93.066l80.597-46.533V46.533Z" style="fill:#5eb7e8;fill-opacity:1;fill-rule:nonzero;stroke:none" transform="translate(76.546 406.533)"/><path d="M0 0v-186.131l80.597 46.532v93.066z" style="fill:#00a1e9;fill-opacity:1;fill-rule:nonzero;stroke:none" transform="translate(157.143 453.066)"/><path d="m0 0-33.996-19.643v53.125L0 13.897Zm23.3-13.455v40.84l-80.597 46.533v-186.131l23.735 13.703v52.226z" style="fill:#103e5c;fill-opacity:1;fill-rule:nonzero;stroke:none" transform="translate(214.44 379.148)"/></g></svg>