<svg xmlns="http://www.w3.org/2000/svg" style="isolation:isolate" viewBox="0 0 127.61 99.23"><defs><clipPath id="a"><path d="M0 0h127.61v99.23H0z"/></clipPath></defs><g clip-path="url(#a)"><path fill="#1D5AA3" fill-rule="evenodd" d="M43.13 88c.047-.324.127-.643.24-.95.126-.307.301-.591.52-.84.212-.239.471-.433.76-.57a2.298 2.298 0 0 1 1-.21 2.107 2.107 0 0 1 1.7.77c.194.255.34.543.43.85.094.308.141.628.14.95h-4.79Zm6.61-3.62A4.564 4.564 0 0 0 48 83.17a6.502 6.502 0 0 0-2.25-.37 6.032 6.032 0 0 0-2.26.43 5.574 5.574 0 0 0-1.95 1.29 6.338 6.338 0 0 0-1.35 2.18 8.422 8.422 0 0 0-.51 3.06 7.621 7.621 0 0 0 .54 3c.331.768.83 1.451 1.46 2A5.804 5.804 0 0 0 43.77 96a9.488 9.488 0 0 0 2.59.35 13.707 13.707 0 0 0 2.64-.29 10.32 10.32 0 0 0 1.87-.5v-2.68h-.12c-.653.224-1.321.397-2 .52a8.19 8.19 0 0 1-3.38 0 3.531 3.531 0 0 1-1.21-.55 2.849 2.849 0 0 1-.83-1 3.661 3.661 0 0 1-.33-1.3h8.3c.08-2.15 0-4.55-1.56-6.21v.04ZM110 88c.043-.322.124-.637.24-.94.121-.309.298-.594.52-.84.212-.239.471-.433.76-.57a2.298 2.298 0 0 1 1-.21c.345-.01.688.062 1 .21.273.131.512.323.7.56.198.249.344.534.43.84.096.325.146.661.15 1L110 88Zm7.78-1.55a5.47 5.47 0 0 0-1.17-2.06 4.462 4.462 0 0 0-1.79-1.17 6.502 6.502 0 0 0-2.25-.37 5.993 5.993 0 0 0-2.26.43 5.493 5.493 0 0 0-2 1.29 6.359 6.359 0 0 0-1.31 2.19 8.642 8.642 0 0 0-.5 3.06 7.621 7.621 0 0 0 .54 3c.324.769.82 1.453 1.45 2a5.839 5.839 0 0 0 2.18 1.18c.84.235 1.708.353 2.58.35a13.83 13.83 0 0 0 2.6-.24 9.96 9.96 0 0 0 1.86-.5h.06v-2.67h-.12c-.654.22-1.322.393-2 .52a8.19 8.19 0 0 1-3.38 0 3.484 3.484 0 0 1-1.2-.55 2.859 2.859 0 0 1-.84-1 3.865 3.865 0 0 1-.37-1.37h8.3V89.34a9.532 9.532 0 0 0-.35-2.88l-.03-.01ZM18.71 96.15a5.592 5.592 0 0 1-5.48-5.73V83h3.16v7.45A2.45 2.45 0 0 0 18.62 93a2.45 2.45 0 0 0 2.31-2.57V83h3.16v7.45a5.57 5.57 0 0 1-5.38 5.7ZM34.83 89.7a3.35 3.35 0 0 1-3.35 3.3h-1.75v-6.9h1.75c1.85 0 3.35 1.5 3.35 3.35v.25ZM31.48 83h-1.75v-4.8h-3.16v18h4.91A6.508 6.508 0 0 0 38 89.7v-.21A6.52 6.52 0 0 0 31.48 83Z"/><path fill="#1D5AA3" d="M69.1 78.18h3.16v18H69.1zM75.02 82.93h3.16v13.22h-3.16z"/><path fill="#1D5AA3" fill-rule="evenodd" d="M78.23 80.2a1.64 1.64 0 1 1-3.28.02 1.64 1.64 0 0 1 3.28-.02ZM89 89c0 1.47-1.53 2.71-3.34 2.71H83.5v-5.6h2.17c1.81 0 3.34 1.24 3.34 2.71V89H89Zm-3.33-6h-5.33v16.2h3.16v-4.32h2.17c3.58 0 6.5-2.63 6.5-5.87v-.18c0-3.24-2.92-5.83-6.5-5.83ZM102.14 89.09c0 1.47-1.53 2.71-3.34 2.71h-2.17v-5.61h2.17c1.81 0 3.34 1.24 3.34 2.71v.19ZM98.8 83h-5.33v16.2h3.16V95h2.17c3.58 0 6.5-2.64 6.5-5.87v-.23c0-3.24-2.92-5.9-6.5-5.9ZM12.7 96.16l-8.04-8.97 7.99-8.99H8.43l-5.27 5.92v-5.93H0v18h3.16v-5.94l5.3 5.91h4.24ZM60.56 78a7.719 7.719 0 0 1 6.88 4.85h-3.68a4.098 4.098 0 0 0-3.2-1.67C58 81.2 56 83.86 56 87.14s2.06 5.94 4.6 5.94a4.13 4.13 0 0 0 3.2-1.67h3.68a7.74 7.74 0 0 1-6.88 4.85c-4.29 0-7.77-4.08-7.77-9.12 0-5.04 3.44-9.14 7.73-9.14ZM122.85 84.28v-1.16h-3.16v13.23h3.16v-8.1a5.171 5.171 0 0 1 4.76-1.81V83.2a5.454 5.454 0 0 0-.71-.07 7.35 7.35 0 0 0-4.05 1.15Z"/><path fill="#3870B0" fill-rule="evenodd" d="M68.32 28.72c.173 1.678.26 3.363.26 5.05a47.079 47.079 0 0 1-6.68 24.48 32.833 32.833 0 0 1-8.74-2.6c7.72-6.2 13.32-15.79 15.16-26.93Z"/><path fill="#3870B0" fill-rule="evenodd" d="M99.33 48.21C96 61.11 81.92 70.79 65.13 70.79c-19.32 0-35-12.8-35-28.59 0-7.9 3.92-15.05 10.25-20.22a24.734 24.734 0 0 0-4.73 16.92c1.61 15.32 18.42 25.77 37.56 23.34 11.04-1.4 20.45-6.79 26.12-14.03Z"/><path fill="#55B5E7" fill-rule="evenodd" d="M66.51 6c15.56 5.3 26.81 20.67 26.81 38.81 0 1.567-.087 3.133-.26 4.69a37.176 37.176 0 0 1-20.25 9c-2.45.313-4.924.397-7.39.25a76.375 76.375 0 0 0 5.1-27.88A77.324 77.324 0 0 0 66.51 6Z"/><path fill="#3870B0" fill-rule="evenodd" d="M65.76 0a17.539 17.539 0 0 1 9.87 3A14.77 14.77 0 0 0 56 21.5a24.66 24.66 0 0 0-17.88 10.41C37.86 24.85 43 19.16 49.59 17.3a13.703 13.703 0 0 1-.23-2.5C49.36 6.63 56.7 0 65.76 0Z"/></g></svg>