<svg xmlns="http://www.w3.org/2000/svg" xml:space="preserve" stroke-miterlimit="10" style="fill-rule:nonzero;clip-rule:evenodd;stroke-linecap:round;stroke-linejoin:round" viewBox="0 0 578.835 274.17"><clipPath id="a"><path d="M0 0h578.835v274.17H0z"/></clipPath><g clip-path="url(#a)"><path fill="#020202" d="m166.149 243.617-12.96-18-5.76 6.42v11.58h-8.4v-42h8.4v18.6l17.52-18.6h9.72l-16.02 17.88 17.22 24.12h-9.72Z"/><clipPath id="b"><path d="M0 0h578.835v274.17H0V0Z"/></clipPath><g clip-path="url(#b)"><path fill="#020202" d="M184.209 242.807c-1.8-1.1-3.19-2.61-4.17-4.53-.981-1.92-1.47-4.08-1.47-6.48v-19.98h7.98v17.22c0 2.44.559 4.311 1.68 5.61 1.119 1.3 2.66 1.95 4.62 1.95 1.92 0 3.519-.66 4.8-1.98 1.28-1.32 1.92-3.2 1.92-5.64v-17.16h8.1v31.8h-7.86v-3.66c-2.04 3-5.16 4.5-9.36 4.5-2.361 0-4.44-.55-6.24-1.65M237.158 235.338a9.817 9.817 0 0 0 3.36-3.42c.82-1.4 1.23-2.84 1.23-4.32 0-1.52-.41-3-1.23-4.44a9.667 9.667 0 0 0-3.36-3.48c-1.42-.88-2.99-1.32-4.71-1.32-1.72 0-3.27.44-4.65 1.32a9.336 9.336 0 0 0-3.24 3.48c-.78 1.44-1.17 2.92-1.17 4.44 0 1.52.38 2.97 1.14 4.35.759 1.38 1.83 2.511 3.21 3.39 1.38.88 2.949 1.32 4.71 1.32 1.72 0 3.29-.44 4.71-1.32m4.86-22.23c2.42 1.5 4.329 3.53 5.73 6.09 1.4 2.56 2.1 5.36 2.1 8.4 0 3-.7 5.74-2.1 8.22a16.41 16.41 0 0 1-5.73 5.97c-2.421 1.5-5.11 2.289-8.07 2.37-4.24.12-7.701-1.44-10.38-4.68v4.14h-8.1v-42.84h8.1v15c2.64-3.279 6.1-4.92 10.38-4.92 2.96 0 5.649.75 8.07 2.25M275.047 220.008a9.234 9.234 0 0 0-5.16-1.53c-1.84 0-3.6.54-5.28 1.62-1.68 1.08-2.7 2.48-3.06 4.2h16.56c-.48-1.839-1.5-3.27-3.06-4.29m-13.59 22.23c-2.5-1.48-4.46-3.51-5.88-6.09s-2.13-5.45-2.13-8.61c0-3.08.72-5.88 2.16-8.4a15.914 15.914 0 0 1 5.94-5.97c2.52-1.46 5.3-2.19 8.34-2.19 5.12 0 9.03 1.47 11.73 4.41 2.7 2.94 4.05 6.97 4.05 12.09 0 1.08-.06 2.2-.18 3.36l-24.18.12c.56 1.92 1.69 3.4 3.39 4.44 1.7 1.041 3.39 1.56 5.07 1.56 3.68 0 6.48-1.16 8.4-3.48l6.18 4.08c-1.36 2.32-3.28 4.05-5.76 5.19-2.48 1.14-5.42 1.71-8.82 1.71-3.04 0-5.81-.741-8.31-2.22M315.577 234.377c.939-.879 1.41-1.959 1.41-3.24 0-1.44-.46-2.619-1.38-3.54-.921-.919-2.18-1.38-3.78-1.38h-12.3v9.48h12.3c1.56 0 2.81-.44 3.75-1.32m-1.17-16.83c.92-.9 1.38-1.95 1.38-3.15 0-1.359-.45-2.509-1.35-3.45-.9-.939-2.07-1.41-3.51-1.41h-11.4v9.36h11.4c1.4 0 2.56-.45 3.48-1.35m-3.18-15.93c2.64 0 4.959.501 6.96 1.5 2 1.001 3.53 2.35 4.59 4.05 1.06 1.701 1.59 3.591 1.59 5.67 0 1.8-.45 3.51-1.35 5.13-.9 1.62-2.11 2.931-3.63 3.93 2.16 1.001 3.78 2.43 4.86 4.29 1.08 1.86 1.62 3.911 1.62 6.15 0 2.121-.54 4.031-1.62 5.73-1.08 1.701-2.63 3.051-4.65 4.05-2.02 1.001-4.41 1.5-7.17 1.5h-21.3v-42h20.1ZM340.146 211.818v3.72c2-3.08 5.68-4.62 11.04-4.62v7.8c-3.44 0-6.141.69-8.1 2.07-1.96 1.38-2.94 3.171-2.94 5.37v17.46h-7.98v-31.8h7.98ZM375.097 235.637a9.029 9.029 0 0 0 3.21-3.51c.759-1.46 1.14-3.03 1.14-4.71 0-1.52-.381-2.96-1.14-4.32-.76-1.359-1.83-2.469-3.21-3.33-1.38-.859-2.951-1.29-4.71-1.29-1.721 0-3.291.431-4.71 1.29-1.42.861-2.541 1.98-3.36 3.36-.821 1.38-1.23 2.811-1.23 4.29 0 1.64.399 3.2 1.2 4.68a9.281 9.281 0 0 0 3.33 3.54c1.419.88 3.009 1.32 4.77 1.32 1.759 0 3.33-.44 4.71-1.32m12.27-23.82v31.8h-8.1v-4.02c-2.68 3.24-6.141 4.86-10.38 4.86-2.961 0-5.65-.75-8.07-2.25-2.421-1.5-4.33-3.549-5.73-6.15-1.401-2.6-2.1-5.48-2.1-8.64 0-3 .699-5.76 2.1-8.28 1.4-2.52 3.309-4.509 5.73-5.97 2.42-1.46 5.109-2.19 8.07-2.19 4.279 0 7.74 1.6 10.38 4.8v-3.96h8.1ZM395.287 211.818h8.1v31.8h-8.1v-31.8Zm-.12-11.821h8.34v7.5h-8.34v-7.5ZM419.166 211.818v3.72c2.08-3.039 5.199-4.56 9.361-4.56 2.36 0 4.44.54 6.241 1.62 1.798 1.08 3.189 2.571 4.169 4.47.979 1.9 1.469 3.99 1.469 6.27v20.28h-8.099v-17.52c0-2.28-.539-4.03-1.62-5.25-1.08-1.22-2.601-1.83-4.56-1.83-1.92 0-3.522.62-4.801 1.86-1.279 1.24-1.92 3-1.92 5.28v17.46h-8.099v-31.8h7.859Z"/><path fill="#4179f3" d="m365.83 115.735-17.491 10.126a4.622 4.622 0 0 0-2.306 3.999v18.946l-16.601 10.175-9.339-7.264 17.081-9.745a4.62 4.62 0 1 0-4.578-8.027l-43.411 24.766-9.964-6.642 16.813-9.827a4.62 4.62 0 0 0-4.663-7.979l-57.469 33.59v-38.131a4.62 4.62 0 0 0-2.177-3.921l-18.12-11.293V73.205l15.391-9.28 37.919 22.696a4.62 4.62 0 0 0 4.745-7.93l-17.808-10.658c.027-.18.046-.361.051-.547l.517-18.863 15.646-8.843 39.154 24.158a4.62 4.62 0 1 0 4.853-7.864l-15.259-9.415 11.479-6.305 35.907 20.56.47 17.809c.001.05.008.098.011.147l-21.625 12.615a4.62 4.62 0 1 0 4.656 7.982l22.54-13.148 13.578 8.878v20.538Zm7.149-26.905-17.093-11.176-.48-18.215a7.094 7.094 0 0 0-3.544-5.931l-38.044-21.784a7.091 7.091 0 0 0-6.896-.061l-15.421 8.469c-.55.302-1.013.7-1.383 1.162l-17.522-10.812a4.623 4.623 0 0 0-4.7-.09l-20.297 11.472a4.619 4.619 0 0 0-2.345 3.896l-.462 16.85-13.432-8.04a4.622 4.622 0 0 0-4.758.008l-20.003 12.06a4.62 4.62 0 0 0-2.235 3.958v46.477a4.62 4.62 0 0 0 2.177 3.921l18.12 11.293v43.618a4.618 4.618 0 0 0 4.621 4.62c.805 0 1.611-.21 2.331-.631l38.894-22.732c.265.306.571.584.924.82l15.002 10.001a4.616 4.616 0 0 0 4.852.169l20.125-11.481 14.874 11.568a4.615 4.615 0 0 0 5.251.292l21.533-13.198a4.62 4.62 0 0 0 2.206-3.939v-18.87l17.492-10.126a4.623 4.623 0 0 0 2.305-3.999V92.698c0-1.56-.787-3.014-2.092-3.868"/><path fill="#08c5ff" d="m309.592 123.715-17.741-10.377a4.624 4.624 0 0 0-4.692.015L270 123.541l-15.403-8.663c.01-.133.019-.267.018-.403l-.077-12.444 13.223 7.577a4.627 4.627 0 0 0 4.616-.013l20.441-11.857a4.619 4.619 0 0 0 2.302-3.996V78.528l11.307 6.729.164 20.218a4.625 4.625 0 0 0 2.275 3.944l12.648 7.453-11.922 6.843Zm46.17-21.173a4.62 4.62 0 0 0-6.307-1.708l-18.72 10.745-14.924-8.794-.148-18.158 19.154-11.334a4.62 4.62 0 0 0-4.705-7.953l-19.598 11.596-40.648-24.193a4.62 4.62 0 0 0-4.726 7.942l20.739 12.343V91.08l-15.835 9.185-41.309-23.67a4.62 4.62 0 1 0-4.594 8.019l20.583 11.794.08 12.962-13.291-7.475a4.62 4.62 0 0 0-4.53 8.054l33.847 19.037-16.044 9.527a4.62 4.62 0 1 0 4.717 7.946l40.033-23.77 17.701 10.354a4.62 4.62 0 0 0 4.633.019l42.185-24.213a4.62 4.62 0 0 0 1.707-6.307"/></g></g></svg>