<svg xmlns="http://www.w3.org/2000/svg" viewBox="0 0 136 94"><defs><path id="a" d="M27.325 255.764h817.57v236.09H27.325z"/></defs><g style="display:inline"><g aria-label="KUBERO" style="font-size:120px;line-height:1.25;text-align:center;white-space:pre;shape-inside:url(#a);display:inline;fill:#48479b;stroke-width:1.00157" transform="matrix(.26458 0 0 .26458 -46.534 -4.752)"><path d="M214.596 366.764h-5.963v-88.398h5.963v48.745l51.578-48.745h7.602l-38.012 36.82 39.652 51.578h-7.304l-36.82-47.553-16.696 15.205v32.348zM317.602 369q-13.714 0-23.553-8.944-9.689-8.944-9.689-21.615v-60.075h5.963v60.075q0 10.434 8.05 17.739 7.9 7.304 19.23 7.304 10.732 0 18.484-7.304 7.602-7.305 7.602-17.74v-60.074h5.963v60.075q0 12.67-9.391 21.615Q330.869 369 317.602 369zM367.242 366.764v-88.398h41.143q8.05 0 13.863 6.112 5.665 6.26 5.665 14.907 0 8.199-3.429 14.161-3.28 5.963-8.497 6.857 6.857 1.193 11.479 7.305 4.472 6.112 4.472 14.161 0 10.286-6.858 17.59-7.006 7.305-16.695 7.305h-41.143zm5.963-5.665h33.987q7.752 0 13.267-5.665 5.516-5.664 5.516-13.565 0-7.602-5.516-12.82-5.515-5.366-13.267-5.366h-33.987v37.416zm0-42.932h33.987q6.112 0 10.435-5.515 4.323-5.516 4.323-13.267 0-6.261-4.323-10.733t-10.435-4.472h-33.987v33.987zM503.49 366.764H445.8v-88.398h57.69v5.814h-51.726v33.987h47.254v5.516h-47.254v37.416h51.726v5.665zM520.633 366.764h-5.963v-88.398h42.187q9.093 0 15.503 6.857 6.41 6.708 6.41 16.398 0 8.497-3.876 14.758-4.025 6.26-9.988 7.304 5.516 1.49 8.944 9.391 3.429 7.9 3.429 19.081 0 6.26.298 9.391.298 3.727 1.193 5.218h-5.963q-1.49-1.79-1.938-6.56l-.447-12.67q0-8.944-4.323-15.354-4.174-6.261-10.286-6.261h-35.18v40.845zm0-46.36h35.18q7.006 0 12.075-5.367 4.919-5.217 4.919-12.82 0-7.453-4.92-12.82-5.068-5.217-12.074-5.217h-35.18v36.223zM629.005 367.807q-17.888 0-28.62-12.373-10.734-12.372-10.734-32.795 0-21.167 10.733-33.838 10.733-12.67 28.621-12.67 17.889 0 28.622 12.67 10.732 12.67 10.732 33.838 0 20.423-10.732 32.795-10.733 12.373-28.622 12.373zm0-5.515q15.205 0 24.299-10.882 9.093-10.733 9.093-28.77 0-18.485-9.093-29.665-9.094-11.18-24.299-11.18t-24.298 11.18q-9.093 11.18-9.093 29.664 0 18.038 9.093 28.77 9.093 10.883 24.298 10.883z" style="font-family:&quot;Shree Devanagari 714&quot;;-inkscape-font-specification:&quot;Shree Devanagari 714, Normal&quot;"/></g></g><path d="M98.881 62.572c-2.52.692-7.908 1.392-12.098 1.572-8.967.384-15.564-.604-32.89-4.927-15.71-3.92-23.202-5.23-28.478-4.978-7.018.336-7.468 3.41-.782 5.332 1.326.381 6.693.899 11.927 1.151l9.517.459-4.419.88c-5.309 1.06-15.678 1.43-19.182.686-3.852-.817-6.648-3.495-6.648-6.366 0-3.067.938-4.74 3.36-5.992 5.253-2.717 15.409-1.734 37.929 3.672 19.348 4.643 22.065 5.036 32.05 4.63 7.21-.293 9.588-.688 14.98-2.486 7.681-2.561 12.567-5.252 16.53-9.103 2.795-2.717 5.585-7.303 7.23-11.232.157-.374 1.114-1.031-4.063 1.221-6.863 2.986-15.224 4.368-28.071 3.878-11.915-.454-17.88-1.46-34.437-5.803-33.645-8.827-48.815-8.948-56.278-.448-2.74 3.121-2.78 2.167-.063-1.527 1.398-1.901 3.464-3.505 6.288-4.879 10.403-5.064 25.933-4.39 54.506 2.364 8.633 2.041 22.155 4.537 22.549 4.162.111-.105-5.145-9.447-11.82-21.005-2.927-5.07-3.134-5.268-5.525-5.245-1.367.012-4.779.436-7.583.94-11.49 2.067-13.582 3.298-15.709 9.24L46.366 22.5l.227-4.58c.288-5.815 1.564-7.649 7.328-10.53 8.478-4.24 20.23-5.757 23.015-2.972 3.22 3.22 8.006 14.115 10.965 24.965l1.506 5.523 3.486.419c12.07 1.45 28.198-.822 32.232-4.541 5.125-4.725-3.078-7.855-25.027-9.55l-11.197-.865 7.393-.55c8.657-.646 23.49-.134 27.014.932 6.186 1.871 9.117 5.7 7.47 9.76-.487 1.202-1.572 4.597-2.738 7.418-3.087 7.464-5.556 11.995-9.573 16.22-.965 1.014-2.393 2.572-5.93 4.32-8.02 3.323-10.226 3.39-13.656 4.104zM2.233 38.133a.34.34 0 0 1 .34-.34.34.34 0 0 1 .34.34.34.34 0 0 1-.34.34.34.34 0 0 1-.34-.34z" style="display:inline;fill:#7473bf;fill-opacity:1;stroke-width:.679746"/></svg>