<svg xmlns="http://www.w3.org/2000/svg" fill="none" viewBox="0 0 463 413"><g clip-path="url(#a)"><path fill="url(#b)" d="M210.38 90.33c-26.79-17.34-49.3-57.67-55.6-79.95C141.21-37.6 67 91.57 135.1 177.63c23.19-35.81 45.9-62.98 75.28-87.3Z"/><path fill="#3C356C" d="M191.79 264.51 86.6 220.93a5.303 5.303 0 0 1-3.105-6.698A5.3 5.3 0 0 1 85 212c22.42-19.6 109.85-80.92 139.27-70.71 29.88 10.38-14.7 102.65-26.07 121.07a5.29 5.29 0 0 1-6.41 2.15Z"/><path fill="url(#c)" d="M46.19 315.79s18.1-7.22 31.54-37c18.19-40.28 54.64-121.32 95.16-158.18 48.19-43.82 100.16-75.5 144.37-41.44 19.93 15.36 16.82 38.08 16.82 38.08s56.94-14.89 83-49.56c0 0-7.14 89.44-74.66 128.38-30.15 17.39-67.61 24.31-139 6.83-32.23-7.89-70.52 41.77-117.07 88.42-20.83 20.97-40.16 24.47-40.16 24.47Z"/><path fill="url(#d)" d="m217.76 130.38-6.29 3.45-3.44 6.3-3.45-6.3-6.3-3.43 6.29-3.45 3.44-6.3 3.45 6.29 6.3 3.44Z"/><path fill="url(#e)" d="m264.47 137.49-5.13 2.82-2.8 5.14-2.82-5.14-5.14-2.8 5.13-2.81 2.81-5.14 2.81 5.13 5.14 2.8Z"/><path fill="url(#f)" d="m221.82 167.77-3.27 1.79-1.78 3.27-1.79-3.26-3.27-1.78 3.26-1.79 1.79-3.27 1.79 3.26 3.27 1.78Z"/><path fill="url(#g)" d="m307.62 105.06-3.26 1.79-1.78 3.27-1.79-3.26-3.27-1.79 3.26-1.79 1.78-3.27 1.8 3.27 3.26 1.78Z"/><path fill="url(#h)" d="m183.59 161.76-5.46 3-2.98 5.47-3-5.46-5.47-2.98 5.46-3 2.99-5.47 2.99 5.46 5.47 2.98Z"/><path fill="url(#i)" d="m163.48 192.72-3.27 1.79-1.78 3.27-1.79-3.27-3.27-1.78 3.27-1.79 1.78-3.27 1.79 3.27 3.27 1.78Z"/><path fill="url(#j)" d="m245.22 110.11-3.27 1.79-1.78 3.27-1.79-3.26-3.27-1.78 3.26-1.8 1.79-3.26 1.79 3.26 3.27 1.78Z"/><path fill="#3C356C" d="M398.93 66.11c38.23-45.5 26.19 122.35-96.19 144.66 88.79-34.06 70.03-113.54 96.19-144.66Z"/><path fill="#000" d="M106.87 353.38a5.338 5.338 0 0 0-3.87 1.49 5.183 5.183 0 0 0-1.54 3.92v29.94a11.922 11.922 0 0 1-2.12 6.9 14.994 14.994 0 0 1-5.68 4.88 17.739 17.739 0 0 1-8.12 1.8 19.4 19.4 0 0 1-8.6-1.85 13.877 13.877 0 0 1-6-5.74 19.4 19.4 0 0 1-2.23-9.81v-26.12a5.423 5.423 0 0 0-3.287-5.218 5.422 5.422 0 0 0-7.543 5.218v26.12c0 5.867 1.117 10.82 3.35 14.86a22.612 22.612 0 0 0 9.08 9.23 27.003 27.003 0 0 0 13.1 3.13A25.862 25.862 0 0 0 96.1 409a23.915 23.915 0 0 0 5.36-4v1.15a5.52 5.52 0 0 0 9.34 3.85 5.35 5.35 0 0 0 1.49-3.87v-47.34a5.12 5.12 0 0 0-5.42-5.41ZM169.18 356.94a26.828 26.828 0 0 0-25.42-1.28 27.492 27.492 0 0 0-9 7.06v-28.66a5.531 5.531 0 0 0-9.29-3.93 5.247 5.247 0 0 0-1.54 3.93v48.4a30.607 30.607 0 0 0 3.93 15.08 28.41 28.41 0 0 0 10.4 10.56 29.304 29.304 0 0 0 40.29-10.56 29.55 29.55 0 0 0 3.87-15.08 31.335 31.335 0 0 0-3.55-15 27.56 27.56 0 0 0-9.69-10.52Zm.38 35.72a18.85 18.85 0 0 1-6.75 7.16 18.526 18.526 0 0 1-14.546 2.036 18.532 18.532 0 0 1-11.454-9.196 21.268 21.268 0 0 1-2.44-10.2 20.871 20.871 0 0 1 2.44-10.19 18.418 18.418 0 0 1 6.74-7 19.073 19.073 0 0 1 19.26 0 19.004 19.004 0 0 1 6.75 7 20.56 20.56 0 0 1 2.49 10.19 21.003 21.003 0 0 1-2.49 10.2ZM233.55 356.72a26.637 26.637 0 0 0-14.23-3.66 29 29 0 0 0-14.86 3.77 26.75 26.75 0 0 0-10.14 10.4 31.262 31.262 0 0 0-3.66 15.34 29.655 29.655 0 0 0 3.87 15.23 27.604 27.604 0 0 0 10.73 10.41 32.614 32.614 0 0 0 25.9 2 29.409 29.409 0 0 0 9-4.67 3.766 3.766 0 0 0 1.69-3.29 4.99 4.99 0 0 0-1.91-3.5 4.667 4.667 0 0 0-3.24-1.12 6.002 6.002 0 0 0-3.44 1.22 20.972 20.972 0 0 1-5.58 2.81 19.982 19.982 0 0 1-6.74 1.23 21.312 21.312 0 0 1-10.72-2.66 19.367 19.367 0 0 1-7.32-7.22 19.173 19.173 0 0 1-2.36-6.68h40.36a4.88 4.88 0 0 0 3.5-1.33 4.45 4.45 0 0 0 1.38-3.34 33.37 33.37 0 0 0-3.13-14.81 23.903 23.903 0 0 0-9.1-10.13ZM209 364.84a19.413 19.413 0 0 1 10.35-2.65 15.491 15.491 0 0 1 14.76 9.08 21.452 21.452 0 0 1 1.89 6.52h-35.37a22.026 22.026 0 0 1 1.81-5.67 17.182 17.182 0 0 1 6.56-7.28ZM365 354.92c-2.08-1.38-5.246-2.07-9.5-2.07a23.52 23.52 0 0 0-17.83 7.92v-2a4.692 4.692 0 0 0-3.164-5.108 4.69 4.69 0 0 0-2.146-.192 4.814 4.814 0 0 0-3.919 1.381 4.807 4.807 0 0 0-1.381 3.919v47.45a5.28 5.28 0 0 0 1.38 4 5.408 5.408 0 0 0 3.92 1.33 5.262 5.262 0 0 0 4-1.38 5.414 5.414 0 0 0 1.33-3.93v-31a11.003 11.003 0 0 1 3.13-8.07 16.592 16.592 0 0 1 8.55-4.35 29.695 29.695 0 0 1 12.2.21 6.371 6.371 0 0 0 2.55.11 4.278 4.278 0 0 0 2.07-1 4.06 4.06 0 0 0 1.22-2.28c.45-1.92-.35-3.56-2.41-4.94ZM410.44 381.4a47.542 47.542 0 0 0-12.58-4 50.62 50.62 0 0 1-8.7-2.39 8.425 8.425 0 0 1-4-2.76 6.088 6.088 0 0 1-1-3.45c0-2.047 1.08-3.603 3.24-4.67a17.77 17.77 0 0 1 7.9-1.59 24.349 24.349 0 0 1 7.12.95 14.509 14.509 0 0 1 5.73 3.51 7.599 7.599 0 0 0 3.92 1.91 5.22 5.22 0 0 0 4-.75 4.08 4.08 0 0 0 1.8-3.13 4.895 4.895 0 0 0-1.38-3.55 21.15 21.15 0 0 0-8.59-6.16 32.321 32.321 0 0 0-12.42-2.23 31.425 31.425 0 0 0-10.41 1.75 19.348 19.348 0 0 0-8.17 5.31 12.997 12.997 0 0 0-3.18 9 13.289 13.289 0 0 0 1.237 5.747 13.29 13.29 0 0 0 3.593 4.653c3.207 2.833 8.39 4.957 15.55 6.37 5.52.993 9.323 2.267 11.41 3.82 2.087 1.553 3.087 3.393 3 5.52a6.223 6.223 0 0 1-3.34 5.2c-2.16 1.333-5.29 2-9.39 2a21.76 21.76 0 0 1-8.87-1.75 16.759 16.759 0 0 1-5.78-3.77 5.8 5.8 0 0 0-3.56-1.86 5.557 5.557 0 0 0-4.19 1.44 4.996 4.996 0 0 0-2.07 3.55 4.621 4.621 0 0 0 1.32 3.88 26.427 26.427 0 0 0 9.82 5.78 40.181 40.181 0 0 0 13.82 2.27 29.874 29.874 0 0 0 12.58-2.33 17.922 17.922 0 0 0 7.64-6.26 15.654 15.654 0 0 0 2.6-8.81 13.84 13.84 0 0 0-2-7.49 16.721 16.721 0 0 0-6.65-5.71ZM460.75 402.42a4.179 4.179 0 0 0-3.23-1.49h-3.61a7.114 7.114 0 0 1-5.73-2.86 10.873 10.873 0 0 1-2.34-7.11v-26.22h9a5.115 5.115 0 0 0 3.61-1.28 4.14 4.14 0 0 0 1.38-3.18 4.391 4.391 0 0 0-1.38-3.4 5.1 5.1 0 0 0-3.61-1.27h-9v-15.29a5.307 5.307 0 0 0-3.22-5.114 5.315 5.315 0 0 0-5.92 1.211 5.297 5.297 0 0 0-1.47 3.903v15.29h-4.89a5.122 5.122 0 0 0-3.61 1.27 4.396 4.396 0 0 0-1.38 3.4 4.151 4.151 0 0 0 1.38 3.18 5.12 5.12 0 0 0 3.61 1.28h4.89V391c-.058 3.65.78 7.259 2.44 10.51a18.9 18.9 0 0 0 6.68 7.37 17.368 17.368 0 0 0 9.56 2.71h1.91a6.744 6.744 0 0 0 4.51-1.49 4.768 4.768 0 0 0 1.75-3.82 5.512 5.512 0 0 0-1.33-3.86ZM306.48 326.8a7.613 7.613 0 0 0-5.29 1.7 7.494 7.494 0 0 0 0 9.9 8.92 8.92 0 0 0 10.64 0 7.667 7.667 0 0 0 0-9.9 7.597 7.597 0 0 0-5.35-1.7ZM306.24 353.65h-33.48v-3c0-4.51 1.05-8 3.12-10.35 2.07-2.35 5.42-3.71 9.94-4l3.25-.24a2.987 2.987 0 0 0 2.1-1.08 5.655 5.655 0 0 0 1.23-2.39 4.673 4.673 0 0 0-.12-2.72 3.791 3.791 0 0 0-1.72-2.07 5.474 5.474 0 0 0-3.38-.52l-3.62.24c-7.38.72-13.05 3.13-16.85 7.17-3.8 4.04-5.73 10-5.73 17.69v1.27h-6.93a5 5 0 0 0-3.49 1.16 4.305 4.305 0 0 0-1.26 3.35 4.37 4.37 0 0 0 1.27 3.3 4.857 4.857 0 0 0 3.48 1.21H261v44.25a5.468 5.468 0 0 0 3.573 5.699c.76.275 1.572.378 2.377.301 3.93 0 5.83-1.95 5.83-6v-44.25h27.62v43.65a6.88 6.88 0 0 0 1.52 4.75 5.513 5.513 0 0 0 4.32 1.69 5.628 5.628 0 0 0 4.49-1.69 7.061 7.061 0 0 0 1.46-4.75V360a6.739 6.739 0 0 0-1.52-4.64 5.67 5.67 0 0 0-4.43-1.71ZM46.5 403.52l-21.88-27 20.84-18.69a4.61 4.61 0 0 0 1.73-3.44 5.07 5.07 0 0 0-1.47-3.64 4.57 4.57 0 0 0-7-.25l-28 25v-46.22a5.29 5.29 0 0 0-1.49-3.87 5.283 5.283 0 0 0-3.87-1.5 5.144 5.144 0 0 0-5.019 3.279 5.143 5.143 0 0 0-.34 2.091V406a5.123 5.123 0 0 0 3.275 5.025c.667.257 1.38.371 2.094.335a5.293 5.293 0 0 0 3.87-1.49 5.285 5.285 0 0 0 1.49-3.87v-17l6.16-5.53L38.37 410a4.99 4.99 0 0 0 3.54 2c.15.01.3.01.45 0a5.393 5.393 0 0 0 3.43-1.27 5.27 5.27 0 0 0 2-3.52 4.812 4.812 0 0 0-1.29-3.69Z"/></g><defs><linearGradient id="b" x1="136.17" x2="172.77" y1="-3.05" y2="164.93" gradientUnits="userSpaceOnUse"><stop offset=".11" stop-color="#7AA5E2"/><stop offset=".15" stop-color="#749AD7"/><stop offset=".33" stop-color="#5C6FA9"/><stop offset=".48" stop-color="#4B4F88"/><stop offset=".61" stop-color="#403C73"/><stop offset=".7" stop-color="#3C356C"/></linearGradient><linearGradient id="c" x1="46.26" x2="379.05" y1="258.68" y2="90.32" gradientUnits="userSpaceOnUse"><stop stop-color="#D0BAE9"/><stop offset=".08" stop-color="#B3A0D1"/><stop offset=".26" stop-color="#73679B"/><stop offset=".4" stop-color="#4B4379"/><stop offset=".47" stop-color="#3C356C"/><stop offset=".65" stop-color="#3C356C"/><stop offset=".72" stop-color="#3E3870"/><stop offset=".78" stop-color="#44437A"/><stop offset=".84" stop-color="#4D548D"/><stop offset=".9" stop-color="#5B6CA6"/><stop offset=".96" stop-color="#6C8BC7"/><stop offset="1" stop-color="#7AA5E2"/></linearGradient><linearGradient id="d" x1="198.28" x2="217.76" y1="130.39" y2="130.39" gradientUnits="userSpaceOnUse"><stop stop-color="#fff"/><stop offset="1" stop-color="#D0BAE9"/></linearGradient><linearGradient id="e" x1="248.58" x2="264.47" y1="137.5" y2="137.5" gradientUnits="userSpaceOnUse"><stop stop-color="#fff"/><stop offset="1" stop-color="#D0BAE9"/></linearGradient><linearGradient id="f" x1="211.71" x2="221.82" y1="167.78" y2="167.78" gradientUnits="userSpaceOnUse"><stop stop-color="#fff"/><stop offset="1" stop-color="#D0BAE9"/></linearGradient><linearGradient id="g" x1="297.52" x2="307.62" y1="105.07" y2="105.07" gradientUnits="userSpaceOnUse"><stop stop-color="#fff"/><stop offset="1" stop-color="#D0BAE9"/></linearGradient><linearGradient id="h" x1="166.68" x2="183.59" y1="161.77" y2="161.77" gradientUnits="userSpaceOnUse"><stop stop-color="#fff"/><stop offset="1" stop-color="#D0BAE9"/></linearGradient><linearGradient id="i" x1="153.37" x2="163.48" y1="192.73" y2="192.73" gradientUnits="userSpaceOnUse"><stop stop-color="#fff"/><stop offset="1" stop-color="#D0BAE9"/></linearGradient><linearGradient id="j" x1="235.11" x2="245.21" y1="110.12" y2="110.12" gradientUnits="userSpaceOnUse"><stop stop-color="#fff"/><stop offset="1" stop-color="#D0BAE9"/></linearGradient><clipPath id="a"><path fill="#fff" d="M0 0h462.08v412.88H0z"/></clipPath></defs></svg>