<svg xmlns="http://www.w3.org/2000/svg" viewBox="0 0 258.51 258.51"><g data-name="Layer 2"><g data-name="Layer 1"><path d="M129.25 20a109.1 109.1 0 0 1 77.15 186.4A109.1 109.1 0 1 1 52.11 52.11 108.45 108.45 0 0 1 129.25 20m0-20C58.16 0 0 58.16 0 129.25s58.16 129.26 129.25 129.26 129.26-58.17 129.26-129.26C258.51 58.16 200.34 0 129.25 0Z" style="fill:#d1d1d1"/><path d="M177.54 103.41h-35.88l13.24-37.65c1.25-4.4-2.33-8.76-7.21-8.76h-44.76a7.32 7.32 0 0 0-7.4 6l-10 69.61c-.59 4.17 2.89 7.89 7.4 7.89h36.9L115.55 197c-1.12 4.41 2.48 8.55 7.24 8.55a7.58 7.58 0 0 0 6.47-3.48L184 113.85c2.86-4.61-.71-10.44-6.46-10.44Z" style="fill:#8d8d8f"/></g></g></svg>