<svg xmlns="http://www.w3.org/2000/svg" viewBox="0 0 143 25"><path fill="#A88BFA" d="M6.92 14.595c.64-.19 1.672-.483 2.859-.556-.712-1.797-.884-3.37-.746-4.77.16-1.616.73-2.965 1.286-4.113.118-.245.232-.474.341-.692.155-.31.3-.602.437-.896.227-.49.395-.922.48-1.324.083-.395.084-.748-.015-1.086-.1-.34-.31-.704-.71-1.104a1.666 1.666 0 0 0-1.536.374L4.161 5.066c-.288.259-.477.61-.534.992l-.445 2.947c.699.618 2.424 2.414 3.474 4.907.093.222.182.45.263.683zM2.973 10.351a1.67 1.67 0 0 1-.102.303L.146 16.727a1.669 1.669 0 0 0 .326 1.846l4.288 4.416c2.19-3.23 1.87-6.27.87-8.646-.758-1.8-1.908-3.21-2.657-3.992z"/><path fill="#A88BFA" d="M5.75 23.51c.076.011.152.019.229.02.814.025 2.182.096 3.292.3.906.168 2.7.67 4.178 1.101 1.127.33 2.289-.57 2.452-1.734.12-.848.343-1.807.755-2.686l-.01.003c-.697-1.947-1.586-3.204-2.517-4.007a5.515 5.515 0 0 0-2.893-1.31c-1.605-.226-3.075.196-4.001.468.555 2.311.384 5.03-1.484 7.844z"/><path fill="#A88BFA" d="M17.37 19.31a71.84 71.84 0 0 0 1.936-3.076.845.845 0 0 0-.064-.938c-.538-.713-1.566-2.16-2.127-3.501-.576-1.379-.662-3.52-.667-4.562a1.779 1.779 0 0 0-.373-1.094l-3.331-4.232c-.012.19-.04.38-.079.567-.11.524-.32 1.046-.558 1.561-.14.303-.302.626-.465.953-.109.218-.218.437-.322.652-.539 1.113-1.04 2.32-1.18 3.74-.13 1.314.048 2.844.849 4.67a7.3 7.3 0 0 1 .402.045 6.628 6.628 0 0 1 3.465 1.569c.954.822 1.816 2.001 2.515 3.646z"/><path fill="currentColor" d="M39.752 4.504c-5.952 0-10.248 3.744-10.248 8.88s4.296 8.88 10.248 8.88c5.928 0 10.224-3.744 10.224-8.88s-4.296-8.88-10.224-8.88zm0 3.48c3.576 0 6.144 2.136 6.144 5.4s-2.568 5.4-6.144 5.4c-3.6 0-6.168-2.136-6.168-5.4s2.568-5.4 6.168-5.4zM55.485 20.56c.864.936 2.472 1.704 4.584 1.704 4.32 0 6.84-2.976 6.84-6.576 0-3.624-2.52-6.6-6.84-6.6-2.112 0-3.72.792-4.584 1.704V4.768h-3.84V22h3.84zm-.12-4.944c0-1.992 1.704-3.432 3.912-3.432 2.112 0 3.888 1.248 3.888 3.504s-1.776 3.48-3.888 3.48c-2.208 0-3.912-1.416-3.912-3.408zM67.318 19.912c1.464 1.488 4.272 2.352 7.2 2.352 3.96 0 6.936-1.44 6.936-4.392 0-2.88-2.832-3.432-6.072-3.816-2.736-.312-3.576-.384-3.576-1.08 0-.648.864-1.056 2.496-1.056 1.968 0 3.672.6 4.824 1.656l1.992-2.304c-1.272-1.224-3.648-2.184-6.624-2.184-4.008 0-6.48 1.728-6.48 4.32 0 2.712 2.52 3.312 5.544 3.696 2.832.336 4.032.336 4.032 1.176 0 .792-1.056 1.128-2.784 1.128-2.16 0-4.152-.672-5.664-2.064zM82.84 8.056h3.911V4.768H82.84zm3.863 1.296h-3.84V22h3.84zM99.826 20.56V22h3.84V4.768h-3.84v6.024c-.864-.912-2.472-1.704-4.584-1.704-4.32 0-6.84 2.976-6.84 6.6 0 3.6 2.52 6.576 6.84 6.576 2.112 0 3.72-.768 4.584-1.704zm.12-4.944v.144c0 1.992-1.704 3.408-3.912 3.408-2.112 0-3.888-1.224-3.888-3.48s1.776-3.504 3.888-3.504c2.208 0 3.912 1.44 3.912 3.432zM105.996 8.056h3.912V4.768h-3.912zm3.864 1.296h-3.84V22h3.84zM116.863 22.264c2.232 0 4.056-.648 5.208-1.656.648 1.2 2.184 1.92 4.992 1.392v-2.832c-1.344.288-1.632-.024-1.632-.696v-4.608c0-3.168-2.376-4.776-6.408-4.776-3.48 0-6.264 1.512-7.056 3.792l3.456.936c.384-.984 1.704-1.704 3.432-1.704 2.04 0 2.856.768 2.856 1.728v.072l-5.04.456c-2.976.288-5.16 1.512-5.16 3.984 0 2.496 2.232 3.912 5.352 3.912zm4.848-5.112c0 1.464-2.184 2.304-4.152 2.304-1.488 0-2.328-.432-2.328-1.248 0-.84.672-1.152 1.992-1.272l4.488-.456zM128.379 22h3.84v-6.048c0-2.184 1.2-3.456 3.288-3.456 1.968 0 3 1.296 3 3.432V22h3.84v-7.2c0-3.504-2.232-5.712-5.52-5.712-2.04 0-3.624.768-4.608 1.8V9.352h-3.84z"/></svg>