<svg xmlns="http://www.w3.org/2000/svg" viewBox="0 0 40 40"><g fill="none" fill-rule="evenodd" stroke="#FF4713" stroke-linejoin="round"><path stroke-linecap="round" d="M3.245 7.913a4.156 4.156 0 0 1 3.913-3.26h2.61a2.628 2.628 0 0 1 2.608 2.608v3.913a2.63 2.63 0 0 1-2.609 2.609H7.811a60.038 60.038 0 0 0 0 11.739h1.956a2.63 2.63 0 0 1 2.609 2.609v3.913a2.628 2.628 0 0 1-2.609 2.608H7.158a4.156 4.156 0 0 1-3.913-3.26 58.668 58.668 0 0 1 0-23.479z"/><path d="M26.982 14.118c.29 2.006.885 5.695-1.275 8.196-.308-.467-1.391-2.615-1.391-2.615a9.91 9.91 0 0 0-2.396 3.825 5.332 5.332 0 0 0 10.537 1.638 10.984 10.984 0 0 0-5.475-11.044z"/><path stroke-width="2" d="M22.883 4.856c6.846 0 14.547 10.268 14.547 19.68 0 5.672-4.597 10.27-10.268 10.27s-10.268-4.598-10.268-10.27a15.928 15.928 0 0 1 4.278-10.268l1.711 1.712c1.712-.856 0-11.124 0-11.124z"/></g></svg>