<svg xmlns="http://www.w3.org/2000/svg" viewBox="0 0 40 40"><g fill="none" fill-rule="evenodd" stroke="#208807" stroke-linejoin="round" transform="translate(2 8)"><path stroke-linecap="round" stroke-width="1.5" d="M5.4 4.902c.331 0 .6.274.6.613a.606.606 0 0 1-.6.613.606.606 0 0 1-.6-.613c0-.339.269-.613.6-.613m20.4 8.578c.331 0 .6.275.6.614a.606.606 0 0 1-.6.612.606.606 0 0 1-.6-.612c0-.339.269-.613.6-.613"/><rect width="31.2" height="19.609" stroke-linecap="round" stroke-width="2" rx="1.5"/><ellipse cx="15.6" cy="9.804" stroke-linecap="round" rx="4.8" ry="4.902"/><path d="M36 7.353V22.06c0 1.353-1.075 2.45-2.4 2.45H7.2"/></g></svg>