<?xml version="1.0" encoding="utf-8"?>
<!-- Generator: Adobe Illustrator 24.0.2, SVG Export Plug-In . SVG Version: 6.00 Build 0)  -->
<svg version="1.1" id="Layer_1" xmlns="http://www.w3.org/2000/svg" xmlns:xlink="http://www.w3.org/1999/xlink" x="0px" y="0px"
	 viewBox="0 0 212.7 212.7" style="enable-background:new 0 0 212.7 212.7;" xml:space="preserve">
<style type="text/css">
	.st0{fill:#F7F7F7;}
	.st1{fill:#CC3366;}
</style>
<circle class="st0" cx="106.3" cy="106.3" r="100.4"/>
<g>
	<path class="st1" d="M45.4,98.1c-0.9,0.3-1.5,1.1-1.5,2v12.5c0,0.9,0.6,1.8,1.5,2l7.5,2.1c0.5,2.5,1.1,5,2,7.4l-5.4,5.6
		c-0.6,0.6-0.8,1.5-0.4,2.3c1.8,3.9,3.9,7.7,6.4,11.1c0.5,0.7,1.4,1,2.2,0.8l7.6-1.9c1.7,1.9,3.5,3.7,5.4,5.4l-1.9,7.6
		c-0.2,0.8,0.1,1.7,0.8,2.2c3.5,2.5,7.2,4.7,11.1,6.4c0.8,0.4,1.7,0.2,2.3-0.4l5.6-5.4c2.4,0.8,4.9,1.5,7.4,2l2.1,7.5
		c0.3,0.9,1.1,1.5,2,1.5h12.5c0.9,0,1.8-0.6,2-1.5l2.1-7.5c2.5-0.5,5-1.1,7.4-2l5.6,5.4c0.6,0.6,1.5,0.8,2.3,0.4
		c3.9-1.8,7.7-3.9,11.1-6.4c0.7-0.5,1-1.4,0.8-2.2l-1.9-7.6c1.9-1.7,3.7-3.5,5.4-5.4l7.6,1.9c0.8,0.2,1.7-0.1,2.2-0.8
		c2.5-3.5,4.7-7.2,6.4-11.1c0.4-0.8,0.2-1.7-0.4-2.3l-5.4-5.6c0.8-2.4,1.5-4.9,2-7.4l7.5-2.1c0.9-0.3,1.5-1.1,1.5-2v-12.5
		c0-0.9-0.6-1.8-1.5-2l-7.5-2.1c-0.5-2.5-1.1-5-2-7.4l5.4-5.6c0.6-0.6,0.8-1.5,0.4-2.3c-1.8-3.9-3.9-7.7-6.4-11.1
		c-0.5-0.7-1.4-1-2.2-0.8l-7.6,1.9c-1.7-1.9-3.5-3.7-5.4-5.4l1.9-7.6c0.2-0.8-0.1-1.7-0.8-2.2c-3.5-2.5-7.2-4.7-11.1-6.4
		c-0.8-0.4-1.7-0.2-2.3,0.4l-5.6,5.4c-2.4-0.8-4.9-1.5-7.4-2l-2.1-7.5c-0.3-0.9-1.1-1.5-2-1.5h-12.5c-0.9,0-1.8,0.6-2,1.5L96,52.9
		c-2.5,0.5-5,1.1-7.4,2L83,49.4c-0.6-0.6-1.5-0.8-2.3-0.4c-3.9,1.8-7.7,3.9-11.1,6.4c-0.7,0.5-1,1.4-0.8,2.2l1.9,7.6
		c-1.9,1.7-3.7,3.5-5.4,5.4l-7.6-1.9c-0.8-0.2-1.7,0.1-2.2,0.8c-2.5,3.5-4.7,7.2-6.4,11.1c-0.4,0.8-0.2,1.7,0.4,2.3l5.4,5.6
		c-0.8,2.4-1.5,4.9-2,7.4L45.4,98.1z M58.8,86.6l-5.4-5.5c1.3-2.8,2.9-5.4,4.6-8l7.4,1.9c0.8,0.2,1.6-0.1,2.1-0.7
		c2-2.5,4.3-4.7,6.7-6.7c0.6-0.5,0.9-1.3,0.7-2.1L73.1,58c2.5-1.7,5.2-3.3,8-4.6l5.5,5.4c0.6,0.6,1.4,0.7,2.2,0.5
		c3-1.1,6.1-1.9,9.2-2.5c0.8-0.1,1.5-0.7,1.7-1.5l2-7.3h9.3l2,7.3c0.2,0.8,0.9,1.4,1.7,1.5c3.1,0.5,6.2,1.3,9.2,2.5
		c0.8,0.3,1.6,0.1,2.2-0.5l5.5-5.4c2.8,1.3,5.4,2.9,8,4.6l-1.9,7.4c-0.2,0.8,0.1,1.6,0.7,2.1c2.5,2,4.7,4.3,6.7,6.7
		c0.5,0.6,1.3,0.9,2.1,0.7l7.4-1.9c1.7,2.5,3.3,5.2,4.6,8l-5.4,5.5c-0.6,0.6-0.7,1.4-0.5,2.2c1.1,3,1.9,6.1,2.5,9.2
		c0.1,0.8,0.7,1.5,1.5,1.7l7.3,2v9.3l-7.3,2c-0.8,0.2-1.4,0.9-1.5,1.7c-0.5,3.1-1.3,6.2-2.5,9.2c-0.3,0.8-0.1,1.6,0.5,2.2l5.4,5.5
		c-1.3,2.8-2.9,5.4-4.6,8l-7.4-1.9c-0.8-0.2-1.6,0.1-2.1,0.7c-2,2.5-4.3,4.7-6.7,6.7c-0.6,0.5-0.9,1.3-0.7,2.1l1.9,7.4
		c-2.5,1.7-5.2,3.3-8,4.6l-5.5-5.4c-0.6-0.6-1.4-0.7-2.2-0.5c-3,1.1-6.1,1.9-9.2,2.5c-0.8,0.1-1.5,0.7-1.7,1.5l-2,7.3h-9.3l-2-7.3
		c-0.2-0.8-0.9-1.4-1.7-1.5c-3.1-0.5-6.2-1.3-9.2-2.5c-0.8-0.3-1.6-0.1-2.2,0.5l-5.5,5.4c-2.8-1.3-5.4-2.9-8-4.6l1.9-7.4
		c0.2-0.8-0.1-1.6-0.7-2.1c-2.5-2-4.7-4.3-6.7-6.7c-0.5-0.6-1.3-0.9-2.1-0.7l-7.4,1.9c-1.7-2.5-3.3-5.2-4.6-8l5.4-5.5
		c0.6-0.6,0.7-1.4,0.5-2.2c-1.1-3-1.9-6.1-2.5-9.2c-0.1-0.8-0.7-1.5-1.5-1.7l-7.3-2v-9.3l7.3-2c0.8-0.2,1.4-0.9,1.5-1.7
		c0.5-3.1,1.3-6.2,2.5-9.2C59.5,88,59.4,87.2,58.8,86.6z"/>
	<path class="st1" d="M106.3,148.2c23.1,0,41.9-18.7,41.9-41.9s-18.7-41.9-41.9-41.9s-41.9,18.7-41.9,41.9
		C64.5,129.5,83.2,148.2,106.3,148.2z M68.8,104.3c0.5-8.5,3.8-16.6,9.5-23l4.4,4.4l3-3l-4.4-4.4c6.4-5.7,14.5-9.1,23-9.5v6.2h4.2
		v-6.2c8.5,0.5,16.6,3.8,23,9.5l-4.4,4.4l3,3l4.4-4.4c5.7,6.4,9.1,14.5,9.5,23h-6.2v4.2h6.2c-0.5,8.5-3.8,16.6-9.5,23l-4.4-4.4l-3,3
		l4.4,4.4c-6.4,5.7-14.5,9.1-23,9.5v-6.2h-4.2v6.2c-8.5-0.5-16.6-3.8-23-9.5l4.4-4.4l-3-3l-4.4,4.4c-5.7-6.4-9.1-14.5-9.5-23h6.2
		v-4.2H68.8z"/>
	<path class="st1" d="M106.3,114.7c4.6,0,8.4-3.8,8.4-8.4c0-0.1,0-0.3,0-0.4l10.1-15.2c0.6-1,0.4-2.3-0.6-2.9
		c-0.7-0.5-1.6-0.5-2.3,0L106.7,98c-0.1,0-0.3,0-0.4,0c-4.6,0-8.4,3.7-8.4,8.4S101.7,114.7,106.3,114.7z M106.3,102.2
		c0.2,0,0.4,0,0.6,0.1c0.5,0.1,1,0,1.5-0.3l7.1-4.8l-4.8,7.1c-0.3,0.4-0.4,1-0.3,1.5c0,0.2,0.1,0.4,0.1,0.6c0,2.3-1.9,4.2-4.2,4.2
		c-2.3,0-4.2-1.9-4.2-4.2C102.2,104,104,102.2,106.3,102.2z"/>
</g>
</svg>
