<svg xmlns="http://www.w3.org/2000/svg" viewBox="0 0 200 200"><circle cx="100" cy="100" r="99.754" style="fill:#000;fill-opacity:1;stroke:none;stroke-width:18.3486;stroke-linecap:square;stroke-linejoin:round;stroke-miterlimit:4;stroke-dasharray:none;stroke-opacity:1;paint-order:stroke fill markers"/><circle cx="100" cy="100" r="91.207" style="fill:#fff;fill-opacity:1;stroke:none;stroke-width:16.7765;stroke-linecap:square;stroke-linejoin:round;stroke-miterlimit:4;stroke-dasharray:none;stroke-opacity:1;paint-order:stroke fill markers"/><path d="M53.284 180.897c-7.662-4.175-15.92-9.822-17.964-12.285-.864-1.041.278-4.058 4.94-13.04 7.3-14.067 8.432-18.872 10.604-44.994.897-10.792 1.745-19.746 1.883-19.898.139-.152 2.24.57 4.67 1.605 2.431 1.036 8.195 3.135 12.809 4.665 7.634 2.533 8.326 2.977 7.688 4.935-.386 1.184-1.393 5.322-2.24 9.196-2.584 11.834.885 19.025 7.476 15.497 1.836-.982 2.295-1.839 1.81-3.376-.359-1.133-.894-4.408-1.19-7.28-.49-4.75-.289-5.451 2.243-7.797 3.908-3.623 10.563-3.64 13.4-.033 2.508 3.189 3.596 9.295 2.275 12.77-1.214 3.192-7.297 6.829-16.34 9.768-3.672 1.194-7.48 3.06-8.464 4.147-1.959 2.164-2.169 7.02-.494 11.424 1.53 4.026 1.27 11.326-.526 14.8-.863 1.669-3.592 6.051-6.065 9.74-2.474 3.687-5.01 8.413-5.635 10.5-.625 2.088-1.631 3.789-2.235 3.781-.604-.008-4.495-1.864-8.645-4.125zm5.903-21.78c2.67-2.539 4.212-5.034 4.692-7.593.917-4.889.23-5.474-3.25-2.772-1.55 1.203-4.402 3.215-6.34 4.471-3.64 2.362-4.319 5.388-1.87 8.338 1.645 1.983 2.403 1.71 6.768-2.443zm29.86-44.766c.534-1.814 1.973-3.713 3.23-4.265 2.88-1.264 2.3-3.113-.869-2.77-3.173.343-5.926 3.78-5.926 7.398 0 3.965 2.362 3.725 3.565-.363zm62.003 58.817c-1.733-3.76-3.442-8.288-3.796-10.062-.355-1.773-.994-3.225-1.421-3.225-.975 0-7.022 6.827-7.022 7.928 0 .448-2.239 3.149-4.975 6.002-4.694 4.896-5.258 5.188-10.022 5.188-4.498 0-5.662-.5-10.674-4.582-6.653-5.418-18.203-12.983-21.286-13.941-2.714-.843-7.378-4.446-7.378-5.699 0-1.85 4.208-.866 11.072 2.59 11.682 5.884 21.898 9.558 26.573 9.558 3.289 0 5.598-.82 9.22-3.27 7.556-5.115 7.086-5.786-4.056-5.786-9.388 0-10.113-.17-23.98-5.646-18.782-7.416-20.841-8.41-20.841-10.065 0-1.955 1.63-1.737 4.859.65 3.949 2.92 24.148 9.829 32.541 11.131 11.472 1.78 14.455.886 22.337-6.691 5.554-5.34 6.676-6.94 6.15-8.772-.626-2.19-5.766-7.519-14.51-15.046-4.131-3.556-4.328-3.969-3.792-7.963.626-4.671 3.517-9.235 6.18-9.758 3.262-.64 6.676.894 7.642 3.437 1.306 3.435-.375 10.537-2.997 12.661-2.47 2-2.64 4.145-.47 5.946 4.026 3.34 7.272-3.631 7.386-15.858.042-4.533.416-8.442.831-8.686.415-.245 2.226-.76 4.025-1.146l3.27-.701v9.725c0 5.349-.492 18.562-1.092 29.363l-1.093 19.637 2.912 4.677c1.601 2.572 3.279 4.875 4.257 6.363 2.72 3.88 1.82 2.68-2.302 5.283-2.245 1.417-4.25 2.576-4.455 2.576-.206 0-1.36-2.057-3.093-5.818zm-16.258-55.799c.004-.691.7-2.586 1.546-4.21 1.874-3.594 1.22-6.477-1.044-4.598-1.66 1.378-3.735 7.91-2.926 9.217.796 1.288 2.417 1.015 2.424-.409zm-7.146 7.682c-1.167-1.406-1.093-1.575.548-1.257 1.044.202 2.086.933 2.316 1.625.598 1.795-1.268 1.555-2.864-.368zm-19.021-.327c0-1.402 1.85-2.291 3.126-1.503.776.48.7.95-.252 1.554-1.796 1.138-2.874 1.119-2.874-.051zm1.006-11.83v-7.347h4.402c2.421 0 5.817.283 7.547.628 3.056.612 3.144.781 3.144 6.07 0 6.04.402 5.718-8.804 7.071l-6.289.925z" style="fill:#000;fill-opacity:1;stroke-width:1.0062" transform="translate(-4.93 -1.488)"/><path d="m55.416 75.658 5.788-16.01 2.256-6.768 5.482-22.9 21.88-4.708 19.21-5.945 12.803 1.514 8.339 14.336 15.107 21.127 5.3 2.87 9.291 19.26s-40.621 16.839-43.133 17.129c-2.511.29-42.721.494-46.146-2.363-3.424-2.856-16.177-17.542-16.177-17.542Z" style="fill:#000;stroke:none;stroke-width:.270298px;stroke-linecap:butt;stroke-linejoin:miter;stroke-opacity:1" transform="translate(-4.93 -1.488)"/><path d="M93.246 44.209c-9.872 2.025-10.77 3.237-12.375 5.463-2.262 3.157-6.578-2.83-6.578-2.83-2.145-.164-5.104-3.188-4.152-6.494.938-3.274 3.537-2.675 4.435-1.812 1.096 1.051 3.364 2.71 5.973 2.296 2.61-.413 5.554-1.358 9.768-1.911 4.266-.56 7.339.655 7.677 2.007.298 1.144-.048 2.308-4.748 3.28m8.314-17.838-.047.006c-.152.02-.29-.08-.308-.221a.267.267 0 0 1 .126-.26c1.802-1.271 4.576-2.467 7.83-3.227.973-.235 1.936-.42 2.865-.542l.497-.065c5.552-.598 10.265 1.02 10.539 3.612.269 2.592-4 5.18-9.556 5.79-1.789.186-3.506.15-5.004-.082a.371.371 0 0 1-.346-.323c-.023-.17.075-.331.256-.402 3.339-1.247 5.499-2.862 5.174-4.074-.436-1.601-5.06-1.898-10.342-.659-.583.136-1.14.287-1.684.447m50.022 32.804c-.478 2.976-1.207 6.799-6.244 10.278-.737.507-1.116-.116-.84-.782 1.59-3.74 1.833-4.652 2.25-6.092.562-2.113.633-5.017-1.798-10.727-4.775-11.247-13.602-25.969-19.18-30.38-5.394-4.263-14.178-4.514-21.701-1.494-2.768 1.106-7.992 4.752-18.69 3.777-18.516-1.692-20 7.659-20.515 11.715C64.338 39.528 63.32 51 63.32 51c-.227 4.655-.274 12.687 28.357 14.349 13.335.766 14.43 4.046 15.332 6.384 1.602 4.195 3.576 6.457 5.597 7.452 2.02.996.297 2.268-1.74 2.743-5.458 1.305-26.715-1.883-39.74-7.172C60.422 70 59.544 64.574 61.205 59.647c-15.187.345-26.03 4.841-27.135 12.197-1.906 12.617 31.065 29.422 66.876 35.332 37.578 6.196 73.75-6.319 74.903-29.568.524-10.562-9.169-17.055-24.266-18.434" style="fill:#e00;fill-opacity:1;stroke-width:5.89485" transform="translate(-4.93 -1.488)"/></svg>