<svg xmlns="http://www.w3.org/2000/svg" xmlns:xlink="http://www.w3.org/1999/xlink" viewBox="0 0 125.125 125.125" fill="#fff" fill-rule="evenodd" stroke="#000" stroke-linecap="round" stroke-linejoin="round"><use xlink:href="#A" x="2.083" y="2.083"/><symbol id="A" overflow="visible"><g stroke="none"><g fill="#1e50a0" fill-rule="nonzero"><use xlink:href="#C"/><path d="M93.519 9.325c15.476 24.138 12.056 55.796-8.22 76.072s-51.934 23.695-76.072 8.218c13.447 21.08 38.39 31.829 62.947 27.125s43.763-23.909 48.468-48.466-6.043-49.501-27.123-62.948z"/></g><path d="M21.875 60.417a38.46 38.46 0 0 1 38.542-38.542 38.46 38.46 0 0 1 38.542 38.542 38.46 38.46 0 0 1-38.542 38.542 38.46 38.46 0 0 1-38.542-38.542z" fill-rule="nonzero"/><use xlink:href="#D" fill="#92d3f5" fill-rule="nonzero"/><path d="M74.575 35.644c7.167 11.174 5.584 25.832-3.802 35.219s-24.044 10.97-35.219 3.804a28.26 28.26 0 0 0 51.574-9.884 28.26 28.26 0 0 0-12.551-29.139z" fill="#61b2e4" fill-rule="nonzero"/></g><g fill="none" stroke-width="4.167"><use xlink:href="#C"/><path d="M19.792 60.417a40.54 40.54 0 0 1 40.625-40.625 40.54 40.54 0 0 1 40.625 40.625 40.54 40.54 0 0 1-40.625 40.625 40.54 40.54 0 0 1-40.625-40.625z"/><use xlink:href="#D"/></g><path d="M47.917 60.417c0-6.925 5.575-12.5 12.5-12.5s12.5 5.575 12.5 12.5-5.575 12.5-12.5 12.5-12.5-5.575-12.5-12.5z" stroke-width="4.167" fill="#000" fill-rule="nonzero"/></symbol><defs ><path id="C" d="M0 60.417C0 26.946 26.946 0 60.417 0s60.417 26.946 60.417 60.417-26.946 60.417-60.417 60.417S0 93.888 0 60.417z"/><path id="D" d="M33.333 60.416c0-15.004 12.079-27.083 27.083-27.083S87.5 45.412 87.5 60.416 75.421 87.5 60.416 87.5 33.333 75.421 33.333 60.416z"/></defs></svg>