<svg xmlns="http://www.w3.org/2000/svg" xmlns:xlink="http://www.w3.org/1999/xlink" viewBox="0 0 84.167 115.167" fill="#fff" fill-rule="evenodd" stroke="#000" stroke-linecap="round" stroke-linejoin="round"><use xlink:href="#A" x="2.083" y="2.083"/><symbol id="A" overflow="visible"><g stroke="none" fill-rule="nonzero"><path d="M76.26 110.625H0l22.192-24.881L28.9 59.09l21.567 3.575 7.99 22.923 17.804 25.038z" fill="#3f3f3f"/><path d="M55.42 80.104l20.84 30.521H49.287" fill="#000"/><g fill="#3f3f3f"><path d="M7.779 46.535h67.2v7.763h-67.2z"/><use xlink:href="#C"/></g><path d="M50.942 3.292c5.278 8.234 4.111 19.032-2.805 25.947s-17.714 8.082-25.947 2.803a20.82 20.82 0 0 0 38.003-7.279 20.82 20.82 0 0 0-9.25-21.471z" fill="#000"/></g><g fill="none" stroke-width="4.167"><use xlink:href="#C"/><path d="M9.596 46.535c-2.081.288-3.631 2.066-3.631 4.167s1.55 3.879 3.631 4.167M28.9 59.681c0 22.848-24.702 49.112-28.9 50.946h39.733m10.938-48.34c1.736 22.192 24.756 46.575 28.796 48.338H39.733m33.431-55.756c2.081-.288 3.631-2.066 3.631-4.167s-1.55-3.879-3.631-4.167"/><path d="M9.596 46.535h63.569M9.596 54.868h63.569"/></g></symbol><defs ><path id="C" d="M18.9 20.833A20.79 20.79 0 0 1 39.733 0a20.79 20.79 0 0 1 20.833 20.833 20.79 20.79 0 0 1-20.833 20.833A20.79 20.79 0 0 1 18.9 20.833z"/></defs></svg>