<svg xmlns="http://www.w3.org/2000/svg" xmlns:xlink="http://www.w3.org/1999/xlink" viewBox="0 0 101.125 117.125" fill="#fff" fill-rule="evenodd" stroke="#000" stroke-linecap="round" stroke-linejoin="round"><use xlink:href="#A" x="2.083" y="2.083"/><symbol id="A" overflow="visible"><g stroke="none"><g fill="#3f3f3f" fill-rule="nonzero"><path d="M49.819 113.083H29.242l11.017-13.675 1.817-3.683s2.417-8.208 6.65-8.596"/><path d="M49.346 113.083h18.867L57.196 99.408l-1.817-3.681s-2.417-8.208-6.65-8.596"/></g><path d="M57.234 95.004c1.627 3.032 3.456 5.951 5.475 8.737a47.43 47.43 0 0 0 8.417 9.14l-21.117 1.094z" fill="#000" fill-rule="nonzero"/><path d="M72.317 96.902c13.229 0 23.99-11.879 23.99-25.104a23.93 23.93 0 0 0-3.479-12.452l-1.375-2.027L48.848.477 3.971 56.633C.971 60.725.275 66.654.275 71.796c0 13.229 11.881 25.667 25.11 25.667 9.271 0 18.688-4.219 21.592-10.24a2.08 2.08 0 0 1 3.748 0c4.094 7.021 12.323 9.681 21.592 9.681z" fill="#3f3f3f" fill-rule="nonzero"/><path d="M45.054 4.567L48.925.725 92.96 55.61l1.402 3.175c2.327 3.807 3.556 8.182 3.552 12.644-.24 13.713-11.29 24.776-25.002 25.033S92.625 69.24 45.054 4.567z" fill="#000" fill-rule="nonzero"/></g><g fill="none" stroke-width="4.167"><path d="M42.251 93.196c-1.642 7.458-11.323 18.469-15.292 20.202h22.358m7.146-17.354c2.979 7.146 10.879 15.833 14.367 17.358H48.472m7.083-20.204a16.98 16.98 0 0 0 .927 2.844M48.894 0c.729.594 42.563 51.667 44.923 56.631s4.327 9.292 3.917 13.91-1.333 26.637-26.638 26.637c-10.892 0-22.204-9.175-22.204-11.952"/><path d="M48.894 0C48.165.594 6.332 51.688 3.971 56.631S-.356 65.923.055 70.542s1.333 26.637 26.638 26.637c10.892 0 22.204-9.175 22.204-11.952"/></g></symbol></svg>