<svg xmlns="http://www.w3.org/2000/svg" xmlns:xlink="http://www.w3.org/1999/xlink" viewBox="0 0 124.167 112.125" fill="#fff" fill-rule="evenodd" stroke="#000" stroke-linecap="round" stroke-linejoin="round"><use xlink:href="#A" x="2.083" y="2.083"/><symbol id="A" overflow="visible"><g stroke="none" fill-rule="nonzero"><use xlink:href="#C" fill="#3f3f3f"/><path d="M36.85 39.319c6.072 9.468 4.73 21.887-3.224 29.841s-20.373 9.294-29.841 3.222C9.06 80.65 18.843 84.866 28.476 83.021s17.166-9.378 19.012-19.01-2.37-19.416-10.638-24.691z" fill="#000"/><use xlink:href="#D" fill="#3f3f3f"/><path d="M72.632 3.783c6.072 9.469 4.73 21.887-3.224 29.841s-20.373 9.294-29.841 3.222c5.275 8.269 15.058 12.484 24.691 10.639s17.166-9.378 19.011-19.01S80.9 9.058 72.632 3.783z" fill="#000"/><use xlink:href="#E" fill="#3f3f3f"/><path d="M108.413 39.319c6.074 9.468 4.734 21.889-3.221 29.844s-20.375 9.295-29.844 3.221c5.275 8.268 15.058 12.484 24.691 10.639s17.166-9.378 19.011-19.01-2.369-19.416-10.638-24.691z" fill="#000"/><path d="M49.246 85.471l5.688-24.156 10.438 2.813 5.11 21.721 12.904 22.435-45.292.604 11.154-23.417z" fill="#3f3f3f"/><path d="M70.033 84.604l13.354 23.679-19.9.604 6.548-24.285z" fill="#000"/></g><g fill="none" stroke-width="4.167"><path d="M54.934 60.727c-1.25 16.131-14.642 45.723-18.84 47.556H59.74M64.917 63.9c2.515 16.55 14.533 42.667 18.469 44.383H59.74"/><use xlink:href="#D"/><use xlink:href="#E"/><use xlink:href="#C"/></g></symbol><defs ><path id="C" d="M0 59.489a23.91 23.91 0 0 1 23.958-23.958 23.91 23.91 0 0 1 23.958 23.958 23.91 23.91 0 0 1-23.958 23.958A23.91 23.91 0 0 1 0 59.489z"/><path id="D" d="M35.781 23.958A23.91 23.91 0 0 1 59.739 0a23.91 23.91 0 0 1 23.958 23.958 23.91 23.91 0 0 1-23.958 23.958 23.91 23.91 0 0 1-23.958-23.958z"/><path id="E" d="M71.562 59.489A23.91 23.91 0 0 1 95.52 35.531a23.91 23.91 0 0 1 23.958 23.958A23.91 23.91 0 0 1 95.52 83.448a23.91 23.91 0 0 1-23.958-23.958z"/></defs></svg>