<svg xmlns="http://www.w3.org/2000/svg" xmlns:xlink="http://www.w3.org/1999/xlink" viewBox="0 0 105.125 104.125" fill="#fff" fill-rule="evenodd" stroke="#000" stroke-linecap="round" stroke-linejoin="round"><use xlink:href="#A" x="2.083" y="1.042"/><symbol id="A" overflow="visible"><g stroke="none" fill-rule="nonzero"><path d="M26.399.56c-13.708 0-24.86 12.313-24.86 26.017 0 4.567.667 11.344 3.027 15.219l2 2.1 44.146 56.592L97.224 42.31c3.11-4.24 3.829-10.381 3.829-15.715C101.054 12.888 88.762 0 75.012 0c-9.604 0-19.369 4.371-22.375 10.613a2.16 2.16 0 0 1-3.885 0C44.508 3.333 35.981.579 26.377.579z" fill="#ea5a47"/><path d="M46.627 96.248l4.013 3.979 45.633-56.875 1.454-3.292c2.41-3.945 3.683-8.479 3.679-13.102-.248-14.212-11.699-25.678-25.911-25.944s20.427 28.213-28.869 95.229z" fill="#d22f27"/></g><path d="M50.673 100.977c-.758-.614-44.104-53.542-46.554-58.687S-.367 32.665.056 27.873 1.439.269 27.66.269c11.288 0 23.01 9.508 23.01 12.388m.002 88.321c.758-.614 44.104-53.542 46.554-58.687s4.485-9.625 4.063-14.417S99.906.269 73.685.269c-11.288 0-23.01 9.508-23.01 12.388" fill="none" stroke-width="4.167"/></symbol></svg>