<svg xmlns="http://www.w3.org/2000/svg" xmlns:xlink="http://www.w3.org/1999/xlink" viewBox="0 0 116.125 76.348" fill="#fff" fill-rule="evenodd" stroke="#000" stroke-linecap="round" stroke-linejoin="round"><use xlink:href="#A" x="2.083" y="4.174"/><symbol id="A" overflow="visible"><path d="M2.402 5.535h88.84M2.402 62.193h88.84" fill="none" stroke="#9b9b9a" stroke-width="4.802"/><g stroke="none" fill-rule="nonzero"><use xlink:href="#C" fill="#ea5a47"/><path d="M109.239 17.331c1.372 2.135 1.07 4.938-.724 6.732s-4.597 2.096-6.732.724a5.4 5.4 0 0 0 9.857-1.887 5.4 5.4 0 0 0-2.401-5.569z" fill="#d22f27"/></g><path d="M2.402 0h88.84" stroke-width="4.802" fill="#000" fill-rule="nonzero"/><g fill="none"><path d="M0 67.229V0" stroke-width="4.167"/><path d="M91.402 67.229H2.235M2.235 0h89.167" stroke-width="8.348"/><path d="M31.215 0v67.229M62.427 0v67.229m31.215-9.823h12.775m0 0V29.452" stroke-width="4.167"/><use xlink:href="#C" x="-0.681" stroke-width="2.702" stroke-linejoin="miter"/><g stroke-width="4.167"><path d="M10.881 32.99v-4.15h9.45l-5.84 16.808m27.604-21.979v-4.15h9.452l-5.84 16.808m27.604-3.34v-4.15h9.452l-5.842 16.808M93.646 0v67.229"/><path d="M10.881 32.99v-4.15h9.45l-5.84 16.808m27.604-21.979v-4.15h9.452l-5.84 16.808m27.604-3.339v-4.15h9.452l-5.842 16.808" stroke="#d22f27"/></g></g></symbol><defs ><path id="C" d="M101.696 22.646a5.39 5.39 0 1 1 10.804 0 5.39 5.39 0 1 1-10.804 0z"/></defs></svg>