<svg xmlns="http://www.w3.org/2000/svg" xmlns:xlink="http://www.w3.org/1999/xlink" viewBox="0 0 97.167 110.167" fill="#fff" fill-rule="evenodd" stroke="#000" stroke-linecap="round" stroke-linejoin="round"><use xlink:href="#A" x="2.083" y="2.083"/><symbol id="A" overflow="visible"><g stroke="none"><g fill="#3f3f3f" fill-rule="nonzero"><path d="M75.625 93.542l-5.833-5.833c-.417-.417-1.042-.625-1.667-.625l-48.75-3.958c-.625 0-3.125 2.708-3.542 3.125l-5.208 5"/><path d="M12.709 89.166L.834 100.208c-1.458 1.458 1.042 5.417 3.125 5.417H86.25c2.083 0 3.125-2.5 1.667-3.958L70 84.583"/></g><use xlink:href="#C" fill="#b399c8" fill-rule="nonzero"/><path d="M92.5 46.666c0 25.625-20.208 46.042-45.833 46.042 24.167-16.667 30.833-35 30-51.042 0-.625 0-1.042-.208-1.667-.417-3.542-1.042-7.083-2.292-10.417-.208-.417-.208-.833-.417-1.25-1.458-4.167-3.542-7.917-5.625-11.25-.417-.625-.625-1.042-1.042-1.458-1.25-1.875-2.708-3.75-4.375-5.208-.417-.417-.625-.833-1.042-1.042l-1.25-1.25c-.417-.417-.833-.625-1.25-1.042l-.625-.625c-.417-.417-.833-.625-1.042-.833-1.667-1.25-3.542-2.5-5.208-3.333-.208-.208-.625-.208-.833-.417-.625-.208-1.458-.625-2.083-.833-.417-.208-.833-.208-1.042-.208h-1.042C72.5 1.041 92.5 21.458 92.5 46.666z" fill="#8967aa" fill-rule="nonzero"/></g><path d="M11.667 41.875l.625-3.333m3.542-9.375c3.125-5.625 7.5-10.208 12.917-13.333" stroke-miterlimit="10" stroke="#fff" stroke-width="4.167" fill="none"/><path d="M72.709 83.75c.208 0 .417.208.625.417l16.042 16.042c1.458 1.458-1.042 5.417-3.125 5.417H59.167v-15" stroke="none" fill="#000" fill-rule="nonzero"/><g stroke-width="4.167" fill="none"><use xlink:href="#C"/><use xlink:href="#C"/><path d="M8.75 95.833l-6.25 5.833c-1.458 1.458-.625 3.958 1.667 3.958h82.292c2.083 0 3.125-2.5 1.667-3.958l-5.833-5.833" stroke-linejoin="miter"/><path d="M82.083 95.833l5.833 5.833c1.458 1.458.417 3.958-1.667 3.958"/></g></symbol><defs ><path id="C" d="M0 46.25C0 20.628 20.628 0 46.25 0S92.5 20.628 92.5 46.25 71.873 92.5 46.25 92.5 0 71.873 0 46.25z"/></defs></svg>