<svg xmlns="http://www.w3.org/2000/svg" xml:space="preserve" id="Layer_1" x="0" y="0" style="enable-background:new 0 0 20 20" version="1.1" viewBox="0 0 20 20"><style>.st0{fill:none}.st1{fill:#3b697e}.st2{fill:#e6522c}.st3{fill:url(#SVGID_1_)}.st4{fill-rule:evenodd;clip-rule:evenodd;fill:url(#SVGID_2_)}.st5{fill:url(#SVGID_3_)}.st6{fill:url(#SVGID_4_)}.st7{fill:url(#SVGID_5_)}.st8{fill:url(#SVGID_6_)}.st9{fill:url(#SVGID_7_)}.st10{fill:url(#SVGID_8_)}.st11{fill:url(#SVGID_9_)}.st12{fill:url(#SVGID_10_)}.st13{fill:url(#SVGID_11_)}.st14{fill:url(#SVGID_12_)}.st15{fill:url(#SVGID_13_)}.st16{fill:url(#SVGID_14_)}.st17{fill:url(#SVGID_15_)}.st18{fill:url(#SVGID_16_)}.st19{fill:#f05a27}.st20{fill:url(#SVGID_17_)}.st21{fill:url(#SVGID_18_)}.st22{fill:url(#SVGID_19_)}</style><g transform="matrix(1.57583 0 0 1.57583 -8.779 -15.275)"><linearGradient id="SVGID_1_" x1="19.048" x2="30.647" y1="13.425" y2="13.425" gradientTransform="matrix(1.5758 0 0 -1.5758 -23.76 36.91)" gradientUnits="userSpaceOnUse"><stop offset="0" style="stop-color:#7acbbf"/><stop offset="1" style="stop-color:#3ea4db"/></linearGradient><path d="m17.2 13.3-1.2-.2-.4-.5.6-.3 1.1.1.6.5-.7.4zm-2.7-.9-.3-.4.6-.3.9.1.4.4-.6.3-1-.1zm-.9.3-1-.2-.2-.4.7-.3.9.1.3.4-.7.4zm-1.9.2-1-.2-.1-.5.8-.3.9.1.2.4-.8.5zm.1.6-1 .5-1.1-.2v-.6l1-.4 1 .2.1.5zm-4.1 3.9L6.3 17l.4-1.2 1.5-.7 1.3.3-.1 1.1-1.7.9zm1.7-.8 1.6.4.1 1.5-1.8 1.3-1.8-.6.3-1.6 1.6-1zm3.1-.4 1.6.4.5 1.4-1.4 1-1.9-.6-.2-1.4 1.4-.8zm.1-.1-.3-1 1.1-.6 1.4.3.5.9-1.1.8-1.6-.4zm.7-1.6-.3-.7.9-.4 1.2.2.5.7-.9.5-1.4-.3zm2.2-1.9.4.5-.7.4-1.2-.2-.3-.5.7-.3 1.1.1zm-2.2 1.9-1.1.6-1.3-.3-.1-.8 1-.5 1.2.2.3.8zm-.7-1.9 1 .2.3.5-.9.4-1.2-.2-.1-.5.9-.4z" style="fill-rule:evenodd;clip-rule:evenodd;fill:url(#SVGID_1_)"/><path d="M9.38 19.21c-.355.064-.678.387-.71.71-.032.354.258.58.678.516.387-.065.71-.42.71-.775-.033-.29-.323-.516-.678-.452zM9.51 16.24c-.291.033-.517.226-.55.42-.032.194.226.355.517.29.29-.032.548-.258.548-.451-.032-.194-.258-.323-.516-.258zM8.121 17.112a.862.862 0 0 0-.806.258c-.194.226-.162.484.097.58.258.098.645-.064.839-.29.16-.258.129-.484-.13-.548zM11.478 18.048c-.29-.097-.646.064-.807.322-.162.258-.032.581.29.678a.738.738 0 0 0 .84-.355.454.454 0 0 0-.323-.645z"/><path d="m11.284 16.854-1.807-.452-1.936 1.033-.388 1.936 2.195.742 2.162-1.549-.226-1.71zM9.38 19.597l-1.678-.549.258-1.517 1.55-.839 1.451.388.097 1.387-1.678 1.13z"/><path d="M8.057 18.79c-.13-.226-.516-.226-.84-.032-.354.193-.548.548-.419.806.13.258.549.29.904.033.355-.194.516-.581.355-.807zM11.51 16.725c-.162-.162-.484-.162-.742-.033-.259.13-.323.388-.162.549.162.161.517.194.775.032.226-.129.29-.387.129-.548zM8.218 14.885c-.258.032-.484.162-.516.323-.032.161.161.258.42.226.258-.032.484-.194.516-.355.032-.13-.162-.226-.42-.194zM6.96 15.53c-.194-.064-.517.033-.71.194-.194.162-.194.355.032.42.226.064.549-.033.742-.226.162-.162.13-.323-.064-.387z"/><path d="m8.218 15.014-1.775.775-.484 1.387 1.775.517 1.969-1.065.032-1.259-1.517-.355zm1.097 1.517-1.548.807-1.356-.388.355-1.097 1.42-.613 1.194.29-.065 1z"/><path d="M6.766 16.79c-.097-.162-.42-.162-.71-.033-.322.129-.484.387-.42.58.098.162.42.194.743.033s.484-.42.387-.58zM9.929 15.272c-.13-.129-.388-.129-.614-.032-.225.097-.322.29-.193.42.129.129.42.129.645.032.194-.13.258-.323.162-.42zM13.866 18.951a.655.655 0 0 0-.743-.42c-.322.065-.548.356-.484.646.065.323.42.516.775.452.355-.065.548-.355.452-.678zM12.994 16.047c-.064-.194-.29-.29-.548-.258-.259.032-.452.226-.42.387.032.194.29.323.581.258.258 0 .452-.193.387-.387zM14.834 17.467c-.29-.065-.614.064-.678.29-.065.258.129.517.452.613.322.097.645-.064.71-.322a.614.614 0 0 0-.484-.581z"/><path d="m14.35 16.37-1.84-.42-1.581.936.161 1.742 2.291.678 1.646-1.387-.677-1.55zm-1.13 2.517-1.775-.517-.161-1.355 1.258-.774 1.485.354.484 1.259-1.29 1.033z"/><path d="M14.51 16.273c-.193-.13-.515-.162-.709-.032-.194.129-.194.354 0 .516.194.161.549.161.742.032.194-.129.162-.387-.032-.516zM13.769 14.466c-.065-.13-.29-.194-.484-.194-.226.032-.355.161-.323.29.032.13.258.226.516.194.194-.032.355-.161.29-.29zM12.413 14.853c-.226-.032-.484.032-.548.161-.097.162 0 .29.258.355.226.065.484-.032.58-.193.065-.13-.064-.259-.29-.323zM15.35 15.466c-.258-.064-.484.032-.549.194-.064.161.13.355.388.42.258.064.516-.033.548-.227.032-.193-.129-.355-.387-.387z"/><path d="m14.898 14.692-1.581-.29-1.259.677.29 1.194 1.905.452 1.29-.904-.645-1.13zm-.774 1.71-1.452-.323-.259-.936 1-.548 1.26.226.451.87-1 .71z"/><path d="M15.027 14.627c-.161-.097-.452-.097-.58-.032-.162.097-.162.258.032.355.193.097.451.129.613.032.161-.097.129-.258-.065-.355zM12.22 13.53c-.033-.097-.226-.162-.42-.13-.193.033-.355.13-.322.227.032.096.193.161.42.161.193-.065.354-.161.322-.258zM10.961 13.82c-.193-.032-.42.033-.516.13-.097.096-.032.225.161.29.194.032.452-.032.549-.13.064-.128 0-.257-.194-.29z"/><path d="m13.188 13.691-1.355-.226-1.227.517.065.903 1.581.323 1.259-.678-.323-.839zm-.968 1.323-1.226-.258-.097-.71.968-.42 1.097.194.258.678-1 .516z"/><path d="M11.22 14.66c-.13-.098-.388-.098-.581-.033-.194.097-.259.258-.13.355.13.097.42.13.614.032.193-.097.225-.258.096-.355zM13.317 13.627c-.13-.065-.355-.097-.516 0-.162.064-.162.193-.033.29.13.097.388.097.549 0 .129-.064.129-.194 0-.29zM14.317 13.272c-.064-.097-.258-.162-.451-.13-.194.033-.29.13-.259.226.065.097.259.162.452.13.194 0 .323-.13.258-.226zM15.737 14.014c-.226-.065-.42 0-.484.129-.032.13.13.258.355.29.226.033.452-.032.452-.16.032-.098-.13-.227-.323-.26z"/><path d="m15.318 13.465-1.388-.226-1.033.484.323.84 1.614.29 1.032-.645-.548-.743zm-.581 1.227-1.259-.226-.29-.678.807-.387 1.097.161.42.613-.775.517z"/><path d="M15.414 13.4a.589.589 0 0 0-.516-.032c-.129.065-.129.194.032.259.162.096.388.096.517 0 .161-.033.129-.162-.033-.226zM14.737 12.4a.467.467 0 0 0-.387-.096c-.162 0-.259.096-.226.16.064.065.226.13.387.098.194 0 .29-.097.226-.162zM13.769 12.626c-.162-.032-.355.033-.388.097-.064.097.033.161.226.194.194.032.355-.033.42-.097 0-.097-.097-.161-.258-.194zM15.995 12.949c-.193-.032-.355.032-.387.097-.032.097.097.193.29.226.194.032.388-.033.388-.13.032-.064-.097-.16-.29-.193z"/><path d="m15.64 12.53-1.226-.162-.871.387.323.646 1.387.193.871-.484-.484-.58zm-.484.935-1.097-.161-.29-.516.677-.323.968.129.388.484-.646.387z"/><path d="M14.22 13.207a.63.63 0 0 0-.484 0c-.129.065-.129.194 0 .258.13.065.388.097.517 0 .129-.064.129-.193-.033-.258zM15.705 12.465c-.13-.065-.355-.065-.452 0-.129.064-.097.161.032.194.13.064.355.064.452 0 .162-.033.13-.13-.032-.194zM10.639 12.659c-.194.032-.323.096-.323.193s.161.13.355.13c.193-.033.323-.098.323-.194-.033-.097-.194-.162-.355-.13zM9.8 13.014a.772.772 0 0 0-.485.096c-.096.097-.064.194.13.226.16.032.387-.032.484-.129.096-.064.032-.161-.13-.193z"/><path d="m11.833 12.917-1.194-.194-1.162.42-.032.71 1.355.258 1.226-.549-.193-.645zm-1.065 1.032-1.033-.193v-.549l.904-.355.935.162.13.548-.936.387z"/><path d="M9.929 13.659c-.097-.065-.323-.097-.517 0-.193.064-.258.194-.161.29.097.097.355.097.549 0 .193-.064.225-.193.129-.29zM11.962 12.852c-.097-.064-.323-.064-.484 0-.162.065-.194.162-.065.226.097.065.323.065.484 0 .13-.064.161-.161.065-.226zM11.736 11.98c-.033-.064-.162-.096-.323-.096s-.29.065-.258.13c0 .064.161.096.323.096.16 0 .29-.065.258-.13zM10.735 12.175c-.161-.033-.322 0-.42.096-.096.065-.031.162.13.162.161.032.355-.033.42-.097.096-.065.032-.13-.13-.161zM12.672 12.465c-.162-.032-.355.032-.42.097-.065.064.032.161.194.193.161.033.355-.032.42-.096.064-.097-.033-.162-.194-.194z"/><path d="m12.51 12.11-1.065-.161-.968.322.032.549 1.194.226 1-.42-.193-.516zm-.839.807-.936-.162-.032-.42.775-.257.839.129.16.42-.806.29z"/><path d="M12.607 12.045c-.097-.064-.29-.064-.42 0-.129.033-.16.13-.032.194.097.065.29.065.42 0 .129-.064.161-.129.032-.194zM13.478 11.82c-.032-.065-.193-.097-.355-.097-.161 0-.258.064-.226.129.033.064.194.097.355.097.162 0 .259-.065.226-.13z"/><path d="m14.253 11.949-1.097-.13-.872.323.226.517 1.226.193.872-.42-.355-.483zm-.613.742-.936-.13-.162-.419.678-.258.871.13.259.386-.71.29z"/><path d="M14.35 11.916c-.13-.032-.29-.064-.42 0-.097.033-.129.13 0 .162.13.064.323.064.42 0 .129-.065.096-.13 0-.162zM15.06 11.69c-.065-.064-.226-.096-.355-.096-.162 0-.226.064-.194.129.032.064.226.097.355.097.194 0 .258-.065.194-.13zM16.221 12.11c-.161-.032-.322 0-.355.097-.032.064.097.161.29.161.162.032.323-.032.356-.097 0-.064-.13-.129-.29-.161z"/><path d="m15.866 11.787-1.097-.129-.774.29.322.485 1.259.193.742-.355-.452-.484zm-.387.742-.968-.129-.29-.387.613-.258.87.097.356.387-.581.29z"/><path d="M15.93 11.755c-.128-.032-.29-.065-.386 0-.097.032-.065.13.032.161.129.065.323.065.42 0 .096-.032.064-.129-.065-.161zM17.544 13.24c-.097-.097-.322-.162-.484-.13-.193.033-.258.097-.193.194.096.097.322.161.516.129.194 0 .258-.097.161-.194zM17.835 12.755c-.162-.032-.323 0-.323.097s.161.162.355.194c.194.032.355-.032.355-.097-.032-.097-.194-.194-.387-.194z"/><path d="m17.383 12.336-1.226-.161-.743.354.485.614 1.42.225.742-.451-.678-.581zm-.226.871-1.097-.161-.42-.484.581-.29 1 .128.517.452-.58.355z"/><path d="M17.447 12.304c-.16-.065-.354-.065-.451 0-.097.064-.065.129.097.193.16.065.354.065.451 0 .13-.064.065-.129-.097-.193z"/></g></svg>