<svg xmlns="http://www.w3.org/2000/svg" fill="none" viewBox="0 0 39 50"><path fill="url(#a)" d="M38.08 6.097 0 3.99V2.107L38.08 0v6.097Z"/><path fill="url(#b)" d="M38.08 14.876 0 12.77v-1.883l38.08-2.107v6.097Z"/><path fill="url(#c)" d="M28.527 23.65 0 21.55v-1.881l28.527-2.101v6.082Z"/><path fill="url(#d)" d="M28.527 32.432 0 30.332V28.45l28.527-2.1v6.081Z"/><path fill="url(#e)" d="M19.04 41.22 0 39.115v-1.886l19.04-2.104v6.097Z"/><path fill="url(#f)" d="M19.04 50 0 47.894V46.01l19.04-2.107V50Z"/><defs><linearGradient id="a" x1="-16.962" x2="33.452" y1="12.441" y2=".764" gradientUnits="userSpaceOnUse"><stop stop-color="#FFF000"/><stop offset="1" stop-color="#EF5A28"/></linearGradient><linearGradient id="b" x1="-15.032" x2="35.382" y1="20.773" y2="9.097" gradientUnits="userSpaceOnUse"><stop stop-color="#FFF000"/><stop offset="1" stop-color="#EF5A28"/></linearGradient><linearGradient id="c" x1="-13.68" x2="32.1" y1="26.412" y2="18.629" gradientUnits="userSpaceOnUse"><stop stop-color="#FFF000"/><stop offset="1" stop-color="#EF5A28"/></linearGradient><linearGradient id="d" x1="-12.229" x2="33.552" y1="34.944" y2="27.161" gradientUnits="userSpaceOnUse"><stop stop-color="#FFF000"/><stop offset="1" stop-color="#EF5A28"/></linearGradient><linearGradient id="e" x1="-15.311" x2="26.576" y1="43.618" y2="36.205" gradientUnits="userSpaceOnUse"><stop stop-color="#FFF000"/><stop offset="1" stop-color="#EF5A28"/></linearGradient><linearGradient id="f" x1="-13.807" x2="28.084" y1="52.133" y2="44.72" gradientUnits="userSpaceOnUse"><stop stop-color="#FFF000"/><stop offset="1" stop-color="#EF5A28"/></linearGradient></defs></svg>