<svg xmlns="http://www.w3.org/2000/svg" fill="none" viewBox="0 0 107 95"><path fill="#fff" d="M34.56 42.089h46.298v44.193H34.56z"/><path fill="#7D64FF" d="M68.163 72.986c2.338 0 4.233-1.887 4.233-4.215s-1.895-4.215-4.233-4.215c-2.338 0-4.234 1.887-4.234 4.215s1.895 4.215 4.234 4.215Z"/><path fill="#7D64FF" d="M84.174 0 58.032 35.529 36.095 19.593.889 94.7h105.222L84.174 0ZM50.687 78.222l-6.252-8.569v8.57h-5.788V46.377l5.788 4.185v16.121l7.698-10.552 4.391 3.178-6.462 8.857 7.335 10.052h-6.71v.003Zm17.477.356c-5.443 0-9.852-4.393-9.852-9.809 0-2.158.7-4.15 1.887-5.772l9.88-13.542 4.39 3.177-4.711 6.46c4.683.758 8.257 4.802 8.257 9.68 0 5.413-4.41 9.806-9.852 9.806Z"/></svg>