<svg xmlns="http://www.w3.org/2000/svg" fill="none" viewBox="0 0 202 274"><g clip-path="url(#a)"><path fill="url(#b)" d="M201.516 173.165c0-1.657-.042-3.303-.127-4.939-.021-.507-.073-1.003-.105-1.51-.074-1.161-.148-2.332-.264-3.483-.053-.538-.127-1.055-.19-1.594a89.483 89.483 0 0 0-.433-3.367c-.074-.496-.169-.981-.243-1.477-.19-1.151-.39-2.301-.612-3.431l-.063-.38c-.063-.306-.148-.612-.211-.929a97.817 97.817 0 0 0-.823-3.557c-.095-.359-.19-.717-.285-1.087a109.03 109.03 0 0 0-1.066-3.736c-.085-.275-.169-.549-.264-.824a97.312 97.312 0 0 0-1.341-3.947l-.19-.517a101.205 101.205 0 0 0-1.668-4.212.374.374 0 0 0-.042-.095c-.01-.021-.021-.053-.031-.074-4.465-10.534-10.513-17.954-17.142-26.841l-2.913-3.937-25.881-36.32s-12.265 15.938-29.522 35.739C136.751 49.83 100.758 0 100.758 0L18.102 115.651h.02c-.252.38-.495.76-.748 1.13-.053.073-.106.137-.148.211-.074.105-.137.221-.211.337a100.99 100.99 0 0 0-2.154 3.346c-.158.254-.316.507-.464.771a106.232 106.232 0 0 0-1.931 3.356c-.138.254-.285.496-.412.75a100.245 100.245 0 0 0-1.974 3.842l-.158.316a100.672 100.672 0 0 0-3.695 8.708c-.137.359-.253.739-.39 1.098a91.422 91.422 0 0 0-1.108 3.272c-.159.496-.306.992-.454 1.499-.296.992-.58 1.984-.855 2.987a94.204 94.204 0 0 0-.422 1.647 92.622 92.622 0 0 0-.686 2.965c-.085.37-.18.739-.254 1.109-.042.19-.063.39-.105.58-.211 1.056-.39 2.122-.57 3.198-.085.497-.18.982-.254 1.478a113.662 113.662 0 0 0-.601 4.687c-.021.19-.032.39-.042.58a91.037 91.037 0 0 0-.317 4.19c-.032.581-.042 1.161-.063 1.742a101.243 101.243 0 0 0-.085 3.114c0 .232-.021.475-.021.707 0 .422.032.834.032 1.256.01.982.031 1.963.074 2.955.02.644.063 1.278.095 1.911.031.464.031.918.073 1.383.043.591.117 1.182.17 1.773.052.549.094 1.087.158 1.636.126 1.203.285 2.396.454 3.578.052.401.105.792.168 1.193.211 1.319.444 2.638.708 3.937.042.211.073.432.116.644.01.063.031.126.042.189.295 1.447.633 2.871.992 4.286.042.148.074.306.106.454a99.13 99.13 0 0 0 2.839 9.109c.327.897.686 1.773 1.034 2.66.211.517.401 1.044.623 1.562.084.2.158.411.243.612.38.897.791 1.773 1.203 2.649.127.275.243.549.37.813a103.8 103.8 0 0 0 1.783 3.589c.053.116.116.221.17.337a101.855 101.855 0 0 0 5.773 9.711 101.215 101.215 0 0 0 12.317 14.914 101.1 101.1 0 0 0 14.915 12.307c2.026 1.372 4.127 2.639 6.248 3.863l.158.095a94.458 94.458 0 0 0 3.515 1.921c.254.127.507.264.76.391 1.035.528 2.07 1.034 3.114 1.53.465.222.94.433 1.414.644.634.285 1.256.591 1.89.855.242.106.496.19.75.296.749.306 1.508.601 2.258.897.644.253 1.288.507 1.942.749 1.32.475 2.65.929 3.99 1.351.116.043.232.085.348.117a99.376 99.376 0 0 0 19.39 3.979l.717.063c.908.085 1.816.19 2.734.253.285.022.57 0 .855.022 2.048.126 4.106.211 6.196.211.243 0 .485-.021.728-.021.581 0 1.161-.032 1.742-.043 2.047-.052 4.074-.158 6.09-.327.454-.042.918-.063 1.372-.105a101.4 101.4 0 0 0 6.755-.908c.634-.106 1.278-.222 1.911-.338.559-.106 1.119-.19 1.678-.306a107.54 107.54 0 0 0 4.898-1.129c.369-.095.728-.212 1.097-.317a100.09 100.09 0 0 0 5.573-1.689c.644-.211 1.299-.422 1.932-.654a87.924 87.924 0 0 0 5.404-2.09c.158-.064.317-.148.475-.211.644-.275 1.288-.581 1.921-.866a94.83 94.83 0 0 0 4.423-2.142c.622-.317 1.256-.623 1.868-.961 1.636-.887 3.24-1.837 4.823-2.808l-20.708-29.036a64.835 64.835 0 0 1-32.753 8.845c-36.003 0-65.293-29.29-65.293-65.294 0-36.003 29.29-65.293 65.293-65.293 36.004 0 65.294 29.29 65.294 65.293 0 17.722-7.114 33.808-18.619 45.588l20.941 29.374c.285-.253.57-.496.855-.749l.021.021c5.942-5.394 11.209-11.505 15.727-18.165.021-.032.053-.064.074-.106 0-.01.021-.032.021-.042a99.032 99.032 0 0 0 2.406-3.747c.095-.159.19-.306.285-.465a92.495 92.495 0 0 0 2.09-3.631c.137-.242.264-.485.401-.717a93.285 93.285 0 0 0 1.816-3.547c.158-.316.306-.633.464-.95.549-1.14 1.066-2.301 1.573-3.462.074-.179.169-.359.243-.538l.253-.633a93.935 93.935 0 0 0 1.33-3.378c.179-.464.338-.939.506-1.414.391-1.087.76-2.175 1.109-3.272.169-.549.338-1.098.496-1.647.317-1.045.623-2.09.897-3.156.169-.633.317-1.266.475-1.91.243-1.003.486-2.006.697-3.019.031-.158.074-.306.105-.464.116-.57.201-1.151.306-1.721.18-.95.359-1.889.507-2.839.137-.845.232-1.71.348-2.565.116-.855.243-1.71.327-2.576.106-1.044.18-2.111.254-3.166.053-.686.126-1.372.158-2.069.095-1.731.137-3.472.137-5.225v-.2l.053-.011ZM99.988 125.911c-26.272 0-47.646 21.373-47.646 47.645 0 26.271 21.374 47.645 47.645 47.645 26.272 0 47.646-21.374 47.646-47.645 0-26.272-21.374-47.645-47.646-47.645Z"/><path fill="#fff" d="M66.708 173.799h-6.175c0-21.596 17.574-39.17 39.17-39.17v6.175c-18.197 0-32.995 14.798-32.995 32.995Z"/></g><defs><linearGradient id="b" x1="100.758" x2="100.758" y1="336.008" y2="7.388" gradientUnits="userSpaceOnUse"><stop stop-color="#FFEF00"/><stop offset="1" stop-color="#ED5A27"/></linearGradient><clipPath id="a"><path fill="#fff" d="M0 0h202v274H0z"/></clipPath></defs></svg>