<svg xmlns="http://www.w3.org/2000/svg" xmlns:xlink="http://www.w3.org/1999/xlink" viewBox="0 0 1826 3530" fill="#fff" fill-rule="evenodd" stroke="#000" stroke-linecap="round" stroke-linejoin="round"><style><![CDATA[.B{stroke-width:.32}.C{stroke:gray}.D{stroke-linejoin:miter}.E{stroke-width:.96}.F{fill:url(#K)}.G{stroke:none}.H{fill:#000}.I{fill:none}.J{fill:#bfbfbf}.K{fill:url(#B)}.L{fill:url(#C)}.M{fill:url(#A)}.N{stroke:#a5a5a5}.O{fill:#d9d9d9}.P{fill:#262626}.Q{stroke:#9a9a9a}.R{fill:url(#F)}.S{stroke-dasharray:0.64 0.32}.T{fill:url(#G)}.U{fill:url(#H)}.V{fill:url(#I)}.W{fill:url(#J)}.X{fill:#a5a5a5}.Y{fill:url(#L)}.Z{fill:url(#O)}]]></style><use xlink:href="#e" x=".5" y=".5"/><defs><linearGradient id="A" x1="100%" y1="50%" x2="0%" y2="50%"><stop offset="0%" stop-color="#7f7f7f"/><stop offset="100%" stop-color="#bfbfbf"/></linearGradient><linearGradient id="B" x1="50%" y1="0%" x2="50%" y2="100%"><stop offset="0%" stop-color="#7f7f7f"/><stop offset="100%" stop-color="#bfbfbf"/></linearGradient><linearGradient id="C" x1="0%" y1="50%" x2="100%" y2="50%"><stop offset="0%" stop-color="#7f7f7f"/><stop offset="100%" stop-color="#bfbfbf"/></linearGradient><linearGradient id="D" x1="0%" y1="50%" x2="100%" y2="50%"><stop offset="0%" stop-color="#f2f2f2"/></linearGradient><linearGradient id="E" x1="50%" y1="0%" x2="50%" y2="100%"><stop offset="0%" stop-color="#bfbfbf"/><stop offset="50%" stop-color="#fff"/><stop offset="100%" stop-color="#bfbfbf"/></linearGradient><linearGradient id="F" x1="0%" y1="50%" x2="100%" y2="50%"><stop offset="0%" stop-color="#d8d8d8"/><stop offset="50%" stop-color="#f2f2f2"/><stop offset="100%" stop-color="#d8d8d8"/></linearGradient><linearGradient id="G" x1="0%" y1="50%" x2="100%" y2="50%"><stop offset="0%" stop-color="#d8d8d8"/><stop offset="50%" stop-color="#fff"/><stop offset="100%" stop-color="#d8d8d8"/></linearGradient><radialGradient id="H" r="100%" fx="50%" fy="50%" cx="50%" cy="50%"><stop offset="0%" stop-color="#e2e2e2"/><stop offset="70.7%" stop-color="#d8d8d8"/></radialGradient><radialGradient id="I" r="100%" fx="50%" fy="50%" cx="50%" cy="50%"><stop offset="0%" stop-color="#bdbdbd"/><stop offset="100%" stop-color="#a5a5a5"/></radialGradient><radialGradient id="J" r="100%" fx="50%" fy="50%" cx="50%" cy="50%"><stop offset="0%" stop-color="#9d9d9d"/><stop offset="100%" stop-color="#7f7f7f"/></radialGradient><linearGradient id="K" x1="50%" y1="100%" x2="50%" y2="0%"><stop offset="0%" stop-color="#7f7f7f"/><stop offset="100%" stop-color="#bfbfbf"/></linearGradient><linearGradient id="L" x1="50%" y1="100%" x2="50%" y2="0%"><stop offset="0%" stop-color="#3f3f3f"/><stop offset="100%" stop-color="#a5a5a5"/></linearGradient><linearGradient id="M" x1="0%" y1="50%" x2="100%" y2="50%"><stop offset="0%" stop-color="#7f7f7f"/><stop offset="50%" stop-color="#bfbfbf"/><stop offset="100%" stop-color="#7f7f7f"/></linearGradient><linearGradient id="N" x1="50%" y1="0%" x2="50%" y2="100%"><stop offset="0%" stop-color="#7f7f7f"/><stop offset="50%" stop-color="#d8d8d8"/><stop offset="100%" stop-color="#7f7f7f"/></linearGradient><linearGradient id="O" x1="0%" y1="50%" x2="100%" y2="50%"><stop offset="0%" stop-color="#7f7f7f"/><stop offset="50%" stop-color="#d8d8d8"/><stop offset="100%" stop-color="#7f7f7f"/></linearGradient><linearGradient id="P" x1="100%" y1="50%" x2="0%" y2="50%"><stop offset="0%" stop-color="#7f7f7f"/><stop offset="100%" stop-color="#d8d8d8"/></linearGradient><linearGradient id="Q" x1="0%" y1="50%" x2="100%" y2="50%"><stop offset="0%" stop-color="#7f7f7f"/><stop offset="100%" stop-color="#d8d8d8"/></linearGradient><path id="R" d="M154.5 3216.04c0-6.7-5.37-12-12-12s-12 5.3-12 12c.011 6.623 5.377 11.989 12 12 6.623-.011 11.989-5.377 12-12z"/><path id="S" d="M145.86 3216.04c0-1.9-1.5-3.4-3.36-3.4s-3.36 1.5-3.36 3.4c0 1.8 1.5 3.3 3.36 3.3s3.36-1.5 3.36-3.3z"/><path id="T" d="M1469.74 3471.84h86.5v-498.8h-163.8v498.8h43.7v-13.2h33.6v13.2z"/><path id="U" d="M1667.04 31.553c0-.508-.4-.92-.9-.92s-1 .412-1 .92v4.47c0 .51.5.923 1 .923s.9-.412.9-.923v-4.47z"/><path id="V" d="M129.653 40.248h2.051q-.116 1.606-1.186 2.529-1.07.923-2.82.923-1.914 0-3.011-1.289-1.097-1.289-1.097-3.538v-.608q0-1.436.506-2.529.506-1.094 1.446-1.678.94-.584 2.184-.584 1.723 0 2.775.923 1.053.923 1.217 2.591h-2.051q-.075-.964-.537-1.398-.461-.434-1.405-.434-1.025 0-1.535.735-.509.735-.523 2.28v.752q0 1.613.489 2.358.489.745 1.542.745.95 0 1.418-.434.468-.434.537-1.343z"/><path id="W" d="M140.639 41.52q0-.362-.359-.571-.359-.208-1.152-.373-2.639-.554-2.639-2.242 0-.984.817-1.644.817-.66 2.136-.66 1.408 0 2.252.663.844.663.844 1.723h-1.976q0-.424-.273-.701-.273-.277-.854-.277-.499 0-.772.226-.273.226-.273.574 0 .328.311.53.311.202 1.049.349.738.147 1.244.332 1.565.574 1.565 1.989 0 1.012-.868 1.637-.868.625-2.242.625-.93 0-1.651-.332-.721-.332-1.131-.909-.41-.578-.41-1.248h1.873q.027.526.39.807.362.28.971.28.567 0 .858-.215.291-.215.291-.564z"/><path id="X" d="M170.758 33.611v9.953h-2.051l-3.992-6.549v6.549h-2.051v-9.953h2.051l3.999 6.563v-6.562h2.044z"/><path id="Y" d="M723.268 53.565h-3.869v-9.953h3.486q1.812 0 2.748.694.937.694.937 2.034 0 .731-.376 1.289-.376.557-1.046.817.766.191 1.207.772.441.581.441 1.422 0 1.436-.916 2.174-.916.738-2.611.752zm.062-4.334h-1.88v2.687h1.757q.725 0 1.131-.345.407-.345.407-.954 0-1.367-1.415-1.388zm-1.88-3.958v2.509h1.518q1.552-.027 1.552-1.237 0-.677-.393-.974-.393-.297-1.241-.297h-1.436z"/><path id="Z" d="M785.124 50.954q0-.581-.41-.892-.41-.311-1.477-.656-1.066-.345-1.688-.68-1.695-.916-1.695-2.468 0-.807.455-1.439.455-.632 1.306-.988.851-.355 1.911-.355 1.066 0 1.9.386.834.386 1.295 1.09.461.704.461 1.6h-2.051q0-.684-.431-1.063-.431-.379-1.21-.379-.752 0-1.169.318-.417.318-.417.837 0 .485.489.813.489.328 1.439.615 1.75.526 2.55 1.306.8.779.8 1.941 0 1.292-.978 2.027-.978.735-2.632.735-1.148 0-2.092-.42-.943-.42-1.439-1.152-.496-.731-.496-1.695h2.058q0 1.647 1.969 1.647.731 0 1.142-.297.41-.297.41-.831z"/><path id="a" d="M794.045 43.612h2.058v6.556q0 1.634-1.022 2.584-1.022.95-2.792.95-1.743 0-2.769-.923-1.025-.923-1.046-2.536v-6.631h2.051v6.569q0 .978.468 1.425.468.448 1.295.448 1.729 0 1.757-1.818v-6.624z"/><path id="b" d="M801.633 50.058h-1.798v3.507h-2.051v-9.953h3.883q1.121 0 1.972.41.851.41 1.309 1.166.458.755.458 1.719 0 1.463-1.001 2.307-1.001.844-2.772.844zm-1.798-4.785v3.124h1.832q.813 0 1.241-.383.427-.383.427-1.094 0-.731-.431-1.183-.431-.451-1.189-.465h-1.88z"/><path id="c" d="M847.021 47.842v1.654h-3.937v4.067h-2.051v-9.953h6.48v1.661h-4.43v2.57h3.938z"/><path id="d" d="M914.13 43.612h2.68l2.557 7.219 2.543-7.219h2.693v9.953h-2.058v-2.721l.205-4.696-2.687 7.417h-1.408l-2.68-7.41.205 4.689v2.721h-2.051v-9.953z"/></defs><symbol id="e" overflow="visible"><path d="M1789.04 2170.54h-7.1c-5.3 0-9.5-4.2-9.5-9.4s4.2-9.4 9.4-9.5h18.1c5.3 0 9.5 4.2 9.5 9.4s-4.2 9.5-9.4 9.5h-11zm0-59.9h-7.1c-5.3.1-9.5-4.1-9.5-9.3s4.2-9.5 9.4-9.5h18.1c5.3 0 9.5 4.2 9.5 9.4a9.39 9.39 0 0 1-9.4 9.4h-11zm0-227.6h-7.1c-5.3.1-9.5-4.2-9.5-9.4a9.39 9.39 0 0 1 9.4-9.4h18.1c5.3 0 9.5 4.2 9.5 9.4a9.39 9.39 0 0 1-9.4 9.4h-11zm0 59.9h-7.1c-5.3 0-9.5-4.2-9.5-9.4s4.2-9.4 9.4-9.5h18.1c5.3 0 9.5 4.2 9.5 9.4s-4.2 9.5-9.4 9.5h-11zm0 107.7h-7.1c-5.3 0-9.5-4.2-9.5-9.4a9.39 9.39 0 0 1 9.4-9.4h18.1c5.3-.1 9.5 4.1 9.5 9.4a9.39 9.39 0 0 1-9.4 9.4h-11zm0-47.9h-7.1c-5.3 0-9.5-4.2-9.5-9.4a9.39 9.39 0 0 1 9.4-9.4h18.1c5.3 0 9.5 4.2 9.5 9.4a9.39 9.39 0 0 1-9.4 9.4h-11zm0-168.2h-7.1c-5.3 0-9.5-4.2-9.5-9.4s4.2-9.4 9.4-9.5h18.1c5.3 0 9.5 4.2 9.5 9.4s-4.2 9.5-9.4 9.5h-11zm0-227.6h-7.1c-5.3 0-9.5-4.2-9.5-9.4s4.2-9.5 9.4-9.5h18.1c5.3 0 9.5 4.2 9.5 9.4s-4.2 9.5-9.4 9.5h-11zm0 167.7h-7.1c-5.3.1-9.5-4.1-9.5-9.4a9.39 9.39 0 0 1 9.4-9.4h18.1c5.3 0 9.5 4.2 9.5 9.4a9.39 9.39 0 0 1-9.4 9.4h-11zm0-396h-7.1c-5.3 0-9.5-4.2-9.5-9.4s4.2-9.4 9.4-9.5h18.1c5.3 0 9.5 4.2 9.5 9.4s-4.2 9.5-9.4 9.5h-11zm0-47.9h-7.1c-5.3 0-9.5-4.2-9.5-9.4a9.39 9.39 0 0 1 9.4-9.4h18.1c5.3-.1 9.5 4.1 9.5 9.4a9.39 9.39 0 0 1-9.4 9.4h-11zm0 167.8h-7.1c-5.3 0-9.5-4.2-9.5-9.4s4.2-9.5 9.4-9.5h18.1c5.3 0 9.5 4.2 9.5 9.4s-4.2 9.5-9.4 9.5h-11zm0-227.6h-7.1c-5.3 0-9.5-4.2-9.5-9.4s4.2-9.5 9.4-9.5h18.1c5.3 0 9.5 4.2 9.5 9.4s-4.2 9.4-9.4 9.5h-11zm0-228.3h-7.1c-5.3 0-9.5-4.2-9.5-9.4s4.2-9.5 9.4-9.5h18.1c5.3 0 9.5 4.2 9.5 9.4s-4.2 9.5-9.4 9.5h-11zm0-47.9h-7.1c-5.3.02-9.5-4.18-9.5-9.4s4.2-9.44 9.4-9.46h18.1c5.3-.01 9.5 4.2 9.5 9.4s-4.2 9.44-9.4 9.45h-11zm0 443.9h-7.1c-5.3 0-9.5-4.2-9.5-9.4a9.39 9.39 0 0 1 9.4-9.4h18.1c5.3 0 9.5 4.2 9.5 9.4a9.39 9.39 0 0 1-9.4 9.4h-11zm0-227.6h-7.1c-5.3 0-9.5-4.2-9.5-9.4a9.39 9.39 0 0 1 9.4-9.4h18.1c5.3 0 9.5 4.2 9.5 9.4a9.39 9.39 0 0 1-9.4 9.4h-11zm0-276.14h-7.1c-5.3.01-9.5-4.2-9.5-9.4s4.2-9.44 9.4-9.45h18.1c5.3-.02 9.5 4.18 9.5 9.4 0 5.2-4.2 9.44-9.4 9.46h-11zm0 779.74h-7.1c-5.3 0-9.5-4.2-9.5-9.4s4.2-9.4 9.4-9.5h18.1c5.3 0 9.5 4.2 9.5 9.4s-4.2 9.5-9.4 9.5h-11zm0-47.9h-7.1c-5.3 0-9.5-4.2-9.5-9.4a9.39 9.39 0 0 1 9.4-9.4h18.1c5.3 0 9.5 4.2 9.5 9.4a9.39 9.39 0 0 1-9.4 9.4h-11zm0-564.1h-7.1c-5.3 0-9.5-4.2-9.5-9.4a9.39 9.39 0 0 1 9.4-9.4h18.1c5.3 0 9.5 4.2 9.5 9.4a9.39 9.39 0 0 1-9.4 9.4h-11zm0 444.4h-7.1c-5.3 0-9.5-4.2-9.5-9.4a9.39 9.39 0 0 1 9.4-9.4h18.1c5.3 0 9.5 4.2 9.5 9.4a9.39 9.39 0 0 1-9.4 9.4h-11zm0-384.5h-7.1c-5.3 0-9.5-4.2-9.5-9.4s4.2-9.5 9.4-9.5h18.1c5.3 0 9.5 4.2 9.5 9.4s-4.2 9.5-9.4 9.5h-11zm0-503.74h-7.1c-5.3.01-9.5-4.2-9.5-9.4s4.2-9.44 9.4-9.45h18.1c5.3-.02 9.5 4.18 9.5 9.4 0 5.2-4.2 9.44-9.4 9.46h-11zm0-228.1h-7.1c-5.3.02-9.5-4.2-9.5-9.4s4.2-9.43 9.4-9.45h18.1c5.3-.02 9.5 4.18 9.5 9.4s-4.2 9.44-9.4 9.46h-11zm0 336h-7.1c-5.3.01-9.5-4.2-9.5-9.4s4.2-9.44 9.4-9.45h18.1c5.3-.02 9.5 4.18 9.5 9.4 0 5.2-4.2 9.44-9.4 9.46h-11zm0-396.05h-7.1c-5.3.01-9.5-4.2-9.5-9.4s4.2-9.44 9.4-9.45h18.1c5.3-.02 9.5 4.18 9.5 9.4 0 5.2-4.2 9.44-9.4 9.46h-11zm0-216.12h-7.1c-5.3.02-9.5-4.2-9.5-9.4s4.2-9.43 9.4-9.45h18.1c5.3-.02 9.5 4.2 9.5 9.4s-4.2 9.44-9.4 9.46h-11zm0 168.24h-7.1c-5.3.01-9.5-4.2-9.5-9.4s4.2-9.44 9.4-9.45h18.1c5.3-.02 9.5 4.18 9.5 9.4s-4.2 9.44-9.4 9.46h-11zm0 276.16h-7.1c-5.3.02-9.5-4.2-9.5-9.4s4.2-9.44 9.4-9.46h18.1c5.3-.02 9.5 4.2 9.5 9.4s-4.2 9.44-9.4 9.46h-11zm0-59.85h-7.1c-5.3.02-9.5-4.2-9.5-9.4s4.2-9.44 9.4-9.46h18.1c5.3-.02 9.5 4.2 9.5 9.4s-4.2 9.43-9.4 9.45h-11zm0 287.47h-7.1c-5.3.01-9.5-4.2-9.5-9.4s4.2-9.44 9.4-9.45h18.1c5.3-.02 9.5 4.18 9.5 9.4 0 5.2-4.2 9.44-9.4 9.46h-11zm0 48.48h-7.1c-5.3.02-9.5-4.2-9.5-9.4s4.2-9.44 9.4-9.46h18.1c5.3-.02 9.5 4.2 9.5 9.4s-4.2 9.44-9.4 9.46h-11zm0-384.5h-7.1c-5.3.01-9.5-4.2-9.5-9.4s4.2-9.44 9.4-9.45h18.1c5.3-.02 9.5 4.18 9.5 9.4 0 5.2-4.2 9.44-9.4 9.46h-11zm0 216.12h-7.1c-5.3.01-9.5-4.2-9.5-9.4s4.2-9.44 9.4-9.45h18.1c5.3-.02 9.5 4.18 9.5 9.4 0 5.2-4.2 9.44-9.4 9.46h-11zm0-443.74h-7.1c-5.3.02-9.5-4.2-9.5-9.4s4.2-9.44 9.4-9.46h18.1c5.3-.02 9.5 4.2 9.5 9.4s-4.2 9.44-9.4 9.46h-11zm0-59.85h-7.1c-5.3.02-9.5-4.18-9.5-9.4 0-5.2 4.2-9.44 9.4-9.46h18.1c5.3-.01 9.5 4.2 9.5 9.4s-4.2 9.44-9.4 9.45h-11zm0-108.39h-7.1c-5.3.017-9.5-4.188-9.5-9.393s4.2-9.44 9.4-9.458h18.1c5.3-.017 9.5 4.188 9.5 9.393s-4.2 9.44-9.4 9.458h-11zm0-60.04h-7.1c-5.3.017-9.5-4.188-9.5-9.393s4.2-9.44 9.4-9.457h18.1c5.3-.018 9.5 4.187 9.5 9.393s-4.2 9.44-9.4 9.457h-11zM31.348 1162.54h-7.1c-5.222 0-9.47-4.2-9.487-9.4s4.2-9.5 9.422-9.5h18.143c5.222 0 9.47 4.2 9.487 9.4s-4.2 9.5-9.422 9.5H31.348zm0-563.6h-7.1a9.45 9.45 0 0 1-9.487-9.4c-.018-5.2 4.2-9.44 9.422-9.46h18.143a9.45 9.45 0 0 1 9.487 9.4c.018 5.2-4.2 9.44-9.422 9.46H31.348zm0 167.77h-7.1c-5.222.01-9.47-4.2-9.487-9.4s4.2-9.44 9.422-9.45h18.143c5.222-.02 9.47 4.18 9.487 9.4.018 5.2-4.2 9.44-9.422 9.46H31.348zm0 275.92h-7.1c-5.222 0-9.47-4.2-9.487-9.4s4.2-9.5 9.422-9.5h18.143c5.222 0 9.47 4.2 9.487 9.4s-4.2 9.5-9.422 9.5H31.348zm0 228.3h-7.1c-5.222 0-9.47-4.2-9.487-9.4s4.2-9.5 9.422-9.5h18.143c5.222 0 9.47 4.2 9.487 9.4s-4.2 9.4-9.422 9.5H31.348zm0 59.8h-7.1c-5.222 0-9.47-4.2-9.487-9.4s4.2-9.4 9.422-9.4h18.143c5.222-.1 9.47 4.1 9.487 9.4.018 5.2-4.2 9.4-9.422 9.4H31.348zm0-455.7h-7.1a9.45 9.45 0 0 1-9.487-9.4c-.018-5.2 4.2-9.44 9.422-9.46h18.143a9.45 9.45 0 0 1 9.487 9.4c.018 5.2-4.2 9.44-9.422 9.46H31.348zm0-216.25h-7.1c-5.222.01-9.47-4.2-9.487-9.4s4.2-9.44 9.422-9.45h18.143c5.222-.02 9.47 4.18 9.487 9.4.018 5.2-4.2 9.44-9.422 9.46H31.348zm0 276.1h-7.1c-5.222.01-9.47-4.2-9.487-9.4s4.2-9.44 9.422-9.45h18.143c5.222-.02 9.47 4.18 9.487 9.4.018 5.2-4.2 9.44-9.422 9.46H31.348zm0-504.2h-7.1a9.45 9.45 0 0 1-9.487-9.4c-.018-5.2 4.2-9.43 9.422-9.45h18.143c5.222-.02 9.47 4.18 9.487 9.4s-4.2 9.44-9.422 9.46H31.348zm0-60.04h-7.1c-5.222.01-9.47-4.2-9.487-9.4s4.2-9.44 9.422-9.45h18.143c5.222-.02 9.47 4.18 9.487 9.4.018 5.2-4.2 9.44-9.422 9.46H31.348zm0 1403.97h-7.1c-5.222.1-9.47-4.1-9.487-9.4-.018-5.2 4.2-9.4 9.422-9.4h18.143c5.222 0 9.47 4.2 9.487 9.4s-4.2 9.4-9.422 9.4H31.348zm0 336h-7.1c-5.222.1-9.47-4.1-9.487-9.3s4.2-9.5 9.422-9.5h18.143c5.222 0 9.47 4.2 9.487 9.4s-4.2 9.4-9.422 9.4H31.348zm0-227.6h-7.1c-5.222.1-9.47-4.2-9.487-9.4s4.2-9.4 9.422-9.4h18.143c5.222 0 9.47 4.2 9.487 9.4s-4.2 9.4-9.422 9.4H31.348zm0-168.4h-7.1c-5.222 0-9.47-4.2-9.487-9.4s4.2-9.4 9.422-9.5h18.143c5.222 0 9.47 4.2 9.487 9.4s-4.2 9.5-9.422 9.5H31.348zm0-612h-7.1c-5.222 0-9.47-4.2-9.487-9.4s4.2-9.4 9.422-9.4h18.143c5.222 0 9.47 4.2 9.487 9.4s-4.2 9.4-9.422 9.4H31.348zm0 276h-7.1c-5.222 0-9.47-4.2-9.487-9.4s4.2-9.4 9.422-9.5h18.143c5.222 0 9.47 4.2 9.487 9.4s-4.2 9.5-9.422 9.5H31.348zm0 455.9h-7.1c-5.222 0-9.47-4.2-9.487-9.4s4.2-9.4 9.422-9.5h18.143c5.222 0 9.47 4.2 9.487 9.4s-4.2 9.5-9.422 9.5H31.348zm0 216.1h-7.1c-5.222 0-9.47-4.2-9.487-9.4s4.2-9.4 9.422-9.4h18.143c5.222-.1 9.47 4.1 9.487 9.4.018 5.2-4.2 9.4-9.422 9.4H31.348zm0-443.7h-7.1c-5.222 0-9.47-4.2-9.487-9.4s4.2-9.5 9.422-9.5h18.143c5.222 0 9.47 4.2 9.487 9.4s-4.2 9.5-9.422 9.5H31.348zm0-395.9h-7.1c-5.222 0-9.47-4.2-9.487-9.4s4.2-9.4 9.422-9.4h18.143c5.222 0 9.47 4.2 9.487 9.4s-4.2 9.4-9.422 9.4H31.348zm0 227.6h-7.1c-5.222 0-9.47-4.2-9.487-9.4s4.2-9.4 9.422-9.4h18.143c5.222 0 9.47 4.2 9.487 9.4s-4.2 9.4-9.422 9.4H31.348zm0-612.07h-7.1c-5.222.01-9.47-4.2-9.487-9.4s4.2-9.44 9.422-9.45h18.143c5.222-.02 9.47 4.18 9.487 9.4.018 5.2-4.2 9.44-9.422 9.46H31.348zm0-119.9h-7.1c-5.222.01-9.47-4.2-9.487-9.4s4.2-9.44 9.422-9.45h18.143c5.222-.02 9.47 4.18 9.487 9.4.018 5.2-4.2 9.44-9.422 9.46H31.348zm0 1236.26h-7.1c-5.222 0-9.47-4.2-9.487-9.4s4.2-9.4 9.422-9.5h18.143c5.222 0 9.47 4.2 9.487 9.4s-4.2 9.5-9.422 9.5H31.348zm0 59.8h-7.1c-5.222 0-9.47-4.2-9.487-9.4s4.2-9.4 9.422-9.4h18.143c5.222 0 9.47 4.2 9.487 9.4s-4.2 9.4-9.422 9.4H31.348zm0 167.8h-7.1c-5.222 0-9.47-4.2-9.487-9.4s4.2-9.4 9.422-9.5h18.143c5.222 0 9.47 4.2 9.487 9.4s-4.2 9.5-9.422 9.5H31.348zm0-623.5h-7.1c-5.222 0-9.47-4.2-9.487-9.4s4.2-9.4 9.422-9.4h18.143c5.222 0 9.47 4.2 9.487 9.4s-4.2 9.4-9.422 9.4H31.348zm0 119.7h-7.1c-5.222 0-9.47-4.2-9.487-9.4s4.2-9.4 9.422-9.4h18.143c5.222 0 9.47 4.2 9.487 9.4s-4.2 9.4-9.422 9.4H31.348zm0-168.2h-7.1c-5.222 0-9.47-4.2-9.487-9.4s4.2-9.5 9.422-9.5h18.143c5.222 0 9.47 4.2 9.487 9.4s-4.2 9.5-9.422 9.5H31.348zm0-503.8h-7.1c-5.222.02-9.47-4.18-9.487-9.4s4.2-9.44 9.422-9.46h18.143c5.222-.01 9.47 4.2 9.487 9.4s-4.2 9.44-9.422 9.45H31.348zm0-455.64h-7.1a9.45 9.45 0 0 1-9.487-9.4c-.018-5.2 4.2-9.44 9.422-9.46h18.143a9.45 9.45 0 0 1 9.487 9.4c.018 5.2-4.2 9.43-9.422 9.45H31.348zm0-48.54h-7.1c-5.222.01-9.47-4.2-9.487-9.4s4.2-9.44 9.422-9.45h18.143c5.222-.02 9.47 4.18 9.487 9.4.018 5.2-4.2 9.44-9.422 9.46H31.348zm0-227.62h-7.1a9.45 9.45 0 0 1-9.487-9.4c-.018-5.2 4.2-9.44 9.422-9.46h18.143a9.45 9.45 0 0 1 9.487 9.4c.018 5.2-4.2 9.44-9.422 9.46H31.348zm0 59.85h-7.1c-5.222.01-9.47-4.2-9.487-9.4s4.2-9.44 9.422-9.45h18.143c5.222-.02 9.47 4.18 9.487 9.4s-4.2 9.44-9.422 9.46H31.348zm0-168.24h-7.1a9.45 9.45 0 0 1-9.487-9.4c-.018-5.2 4.2-9.43 9.422-9.45h18.143a9.45 9.45 0 0 1 9.487 9.4c.018 5.2-4.2 9.44-9.422 9.46H31.348zm0-59.85h-7.1c-5.222.017-9.47-4.188-9.487-9.393s4.2-9.44 9.422-9.458h18.143c5.222-.017 9.47 4.188 9.487 9.393s-4.2 9.44-9.422 9.458H31.348zm0-60.04h-7.1c-5.222.017-9.47-4.188-9.487-9.393s4.2-9.44 9.422-9.457h18.143c5.222-.018 9.47 4.187 9.487 9.393s-4.2 9.44-9.422 9.457H31.348zm0 168.432h-7.1c-5.222.02-9.47-4.18-9.487-9.4-.018-5.2 4.2-9.44 9.422-9.46h18.143c5.222-.01 9.47 4.2 9.487 9.4s-4.2 9.44-9.422 9.45H31.348zM1789.04 3514.54h-7.1c-5.3 0-9.5-4.2-9.5-9.4s4.2-9.501 9.4-9.501h18.1c5.3 0 9.5 4.2 9.5 9.4s-4.2 9.5-9.4 9.5h-11zm0-59.9h-7.1c-5.3 0-9.5-4.2-9.5-9.4a9.39 9.39 0 0 1 9.4-9.4h18.1c5.3 0 9.5 4.2 9.5 9.4a9.39 9.39 0 0 1-9.4 9.4h-11zm0-60h-7.1c-5.3 0-9.5-4.2-9.5-9.4s4.2-9.4 9.4-9.5h18.1c5.3 0 9.5 4.2 9.5 9.4s-4.2 9.5-9.4 9.5h-11zm0-47.9h-7.1c-5.3 0-9.5-4.2-9.5-9.4a9.39 9.39 0 0 1 9.4-9.4h18.1c5.3-.1 9.5 4.1 9.5 9.3 0 5.3-4.2 9.5-9.4 9.5h-11zm0-59.8h-7.1c-5.3 0-9.5-4.2-9.5-9.4s4.2-9.5 9.4-9.5h18.1c5.3 0 9.5 4.2 9.5 9.4s-4.2 9.4-9.4 9.5h-11zm0-59.9h-7.1c-5.3 0-9.5-4.2-9.5-9.4a9.39 9.39 0 0 1 9.4-9.4h18.1c5.3-.1 9.5 4.1 9.5 9.4a9.39 9.39 0 0 1-9.4 9.4h-11zM31.348 3514.54h-7.1c-5.222 0-9.47-4.2-9.487-9.4s4.2-9.501 9.422-9.501h18.143c5.222 0 9.47 4.2 9.487 9.4s-4.2 9.5-9.422 9.5H31.348zm0-59.9h-7.1c-5.222 0-9.47-4.2-9.487-9.4s4.2-9.4 9.422-9.4h18.143c5.222 0 9.47 4.2 9.487 9.4s-4.2 9.4-9.422 9.4H31.348zm0-60h-7.1c-5.222 0-9.47-4.2-9.487-9.4s4.2-9.4 9.422-9.5h18.143c5.222 0 9.47 4.2 9.487 9.4s-4.2 9.5-9.422 9.5H31.348zm0-47.9h-7.1c-5.222 0-9.47-4.2-9.487-9.4s4.2-9.4 9.422-9.4h18.143c5.222-.1 9.47 4.1 9.487 9.3.018 5.3-4.2 9.5-9.422 9.5H31.348zm0-59.8h-7.1c-5.222 0-9.47-4.2-9.487-9.4s4.2-9.5 9.422-9.5h18.143c5.222 0 9.47 4.2 9.487 9.4s-4.2 9.4-9.422 9.5H31.348zm0-59.9h-7.1c-5.222 0-9.47-4.2-9.487-9.4s4.2-9.4 9.422-9.4h18.143c5.222-.1 9.47 4.1 9.487 9.4.018 5.2-4.2 9.4-9.422 9.4H31.348zm-12.135 301H1804.74c10.7 0 19.3-8.6 19.3-19.199V19.152c0-10.577-8.6-19.152-19.3-19.152h0H19.213C8.603 0 0 8.575 0 19.152h0V3508.84c0 10.6 8.602 19.199 19.213 19.199zm1769.827-1189.3h-7.1c-5.3 0-9.5-4.2-9.5-9.4s4.2-9.5 9.4-9.5h18.1c5.3 0 9.5 4.2 9.5 9.4s-4.2 9.5-9.4 9.5h-11zm0 47.9h-7.1c-5.3 0-9.5-4.2-9.5-9.4s4.2-9.5 9.4-9.5h18.1c5.3 0 9.5 4.2 9.5 9.4s-4.2 9.4-9.4 9.5h-11zm0 60h-7.1c-5.3 0-9.5-4.2-9.5-9.4s4.2-9.4 9.4-9.5h18.1c5.3 0 9.5 4.2 9.5 9.4s-4.2 9.5-9.4 9.5h-11zm0-227.6h-7.1c-5.3 0-9.5-4.2-9.5-9.4s4.2-9.4 9.4-9.5h18.1c5.3 0 9.5 4.2 9.5 9.4s-4.2 9.5-9.4 9.5h-11zm0 287.4h-7.1c-5.3.1-9.5-4.1-9.5-9.3 0-5.3 4.2-9.5 9.4-9.5h18.1c5.3 0 9.5 4.2 9.5 9.4a9.39 9.39 0 0 1-9.4 9.4h-11zm0-227.6h-7.1c-5.3 0-9.5-4.2-9.5-9.4a9.39 9.39 0 0 1 9.4-9.4h18.1c5.3 0 9.5 4.2 9.5 9.4a9.39 9.39 0 0 1-9.4 9.4h-11zm0 276.2h-7.1c-5.3 0-9.5-4.2-9.5-9.4s4.2-9.4 9.4-9.5h18.1c5.3 0 9.5 4.2 9.5 9.4s-4.2 9.5-9.4 9.5h-11zm0 59.8h-7.1c-5.3.1-9.5-4.1-9.5-9.4a9.39 9.39 0 0 1 9.4-9.4h18.1c5.3 0 9.5 4.2 9.5 9.4a9.39 9.39 0 0 1-9.4 9.4h-11zm0 395.9h-7.1c-5.3 0-9.5-4.2-9.5-9.4s4.2-9.4 9.4-9.5h18.1c5.3 0 9.5 4.2 9.5 9.4s-4.2 9.5-9.4 9.5h-11zm0 47.9h-7.1c-5.3 0-9.5-4.2-9.5-9.4s4.2-9.5 9.4-9.5h18.1c5.3 0 9.5 4.2 9.5 9.4s-4.2 9.5-9.4 9.5h-11zm0 60h-7.1c-5.3 0-9.5-4.2-9.5-9.4a9.39 9.39 0 0 1 9.4-9.4h18.1c5.3-.1 9.5 4.2 9.5 9.4a9.39 9.39 0 0 1-9.4 9.4h-11zm0-443.9h-7.1c-5.3 0-9.5-4.2-9.5-9.4s4.2-9.4 9.4-9.5h18.1c5.3 0 9.5 4.2 9.5 9.4s-4.2 9.5-9.4 9.5h-11zm0 47.9h-7.1c-5.3 0-9.5-4.2-9.5-9.4s4.2-9.5 9.4-9.5h18.1c5.3 0 9.5 4.2 9.5 9.4s-4.2 9.4-9.4 9.5h-11zm0 60h-7.1c-5.3 0-9.5-4.2-9.5-9.4a9.39 9.39 0 0 1 9.4-9.4h18.1c5.3-.1 9.5 4.1 9.5 9.3 0 5.3-4.2 9.5-9.4 9.5h-11zm0 168.2h-7.1c-5.3.1-9.5-4.1-9.5-9.3 0-5.3 4.2-9.5 9.4-9.5h18.1c5.3 0 9.5 4.2 9.5 9.4a9.39 9.39 0 0 1-9.4 9.4h-11zm0-108.3h-7.1c-5.3 0-9.5-4.2-9.5-9.4s4.2-9.5 9.4-9.5h18.1c5.3 0 9.5 4.2 9.5 9.4s-4.2 9.4-9.4 9.5h-11zm0 336h-7.1c-5.3 0-9.5-4.2-9.5-9.4s4.2-9.5 9.4-9.5h18.1c5.3 0 9.5 4.2 9.5 9.4s-4.2 9.4-9.4 9.5h-11zm0-287.5h-7.1c-5.3 0-9.5-4.2-9.5-9.4a9.39 9.39 0 0 1 9.4-9.4h18.1c5.3-.1 9.5 4.1 9.5 9.3s-4.2 9.5-9.4 9.5h-11zM31.348 2722.64h-7.1c-5.222 0-9.47-4.2-9.487-9.4s4.2-9.5 9.422-9.5h18.143c5.222 0 9.47 4.2 9.487 9.4s-4.2 9.4-9.422 9.5H31.348zm0 119.9h-7.1c-5.222 0-9.47-4.2-9.487-9.4s4.2-9.5 9.422-9.5h18.143c5.222 0 9.47 4.2 9.487 9.4s-4.2 9.4-9.422 9.5H31.348zm0-59.9h-7.1c-5.222 0-9.47-4.2-9.487-9.4s4.2-9.4 9.422-9.4h18.143c5.222-.1 9.47 4.1 9.487 9.3.018 5.3-4.2 9.5-9.422 9.5H31.348zm0 168.2h-7.1c-5.222.1-9.47-4.1-9.487-9.3-.018-5.3 4.2-9.5 9.422-9.5h18.143c5.222 0 9.47 4.2 9.487 9.4s-4.2 9.4-9.422 9.4H31.348zm0-59.8h-7.1c-5.222 0-9.47-4.2-9.487-9.4s4.2-9.4 9.422-9.4h18.143c5.222-.1 9.47 4.1 9.487 9.3s-4.2 9.5-9.422 9.5H31.348zm0 227.6h-7.1c-5.222 0-9.47-4.2-9.487-9.4s4.2-9.4 9.422-9.4h18.143c5.222-.1 9.47 4.2 9.487 9.4s-4.2 9.4-9.422 9.4H31.348zm0-107.9h-7.1c-5.222 0-9.47-4.2-9.487-9.4s4.2-9.4 9.422-9.5h18.143c5.222 0 9.47 4.2 9.487 9.4s-4.2 9.5-9.422 9.5H31.348zm0 167.8h-7.1c-5.222 0-9.47-4.2-9.487-9.4s4.2-9.5 9.422-9.5h18.143c5.222 0 9.47 4.2 9.487 9.4s-4.2 9.4-9.422 9.5H31.348zm0-119.9h-7.1c-5.222 0-9.47-4.2-9.487-9.4s4.2-9.5 9.422-9.5h18.143c5.222 0 9.47 4.2 9.487 9.4s-4.2 9.5-9.422 9.5H31.348zm0-719.9h-7.1c-5.222 0-9.47-4.2-9.487-9.4s4.2-9.5 9.422-9.5h18.143c5.222 0 9.47 4.2 9.487 9.4s-4.2 9.5-9.422 9.5H31.348zm0-119.7h-7.1c-5.222 0-9.47-4.2-9.487-9.4s4.2-9.4 9.422-9.5h18.143c5.222 0 9.47 4.2 9.487 9.4s-4.2 9.5-9.422 9.5H31.348zm0 167.6h-7.1c-5.222 0-9.47-4.2-9.487-9.4s4.2-9.5 9.422-9.5h18.143c5.222 0 9.47 4.2 9.487 9.4s-4.2 9.4-9.422 9.5H31.348zm0-107.8h-7.1c-5.222 0-9.47-4.2-9.487-9.4s4.2-9.4 9.422-9.4h18.143c5.222 0 9.47 4.2 9.487 9.4s-4.2 9.4-9.422 9.4H31.348zm0 167.8h-7.1c-5.222 0-9.47-4.2-9.487-9.4s4.2-9.4 9.422-9.5h18.143c5.222 0 9.47 4.2 9.487 9.4s-4.2 9.5-9.422 9.5H31.348zm0 228.1h-7.1c-5.222 0-9.47-4.2-9.487-9.4s4.2-9.4 9.422-9.5h18.143c5.222 0 9.47 4.2 9.487 9.4s-4.2 9.5-9.422 9.5H31.348zm0-168.3h-7.1c-5.222.1-9.47-4.1-9.487-9.3-.018-5.3 4.2-9.5 9.422-9.5h18.143c5.222 0 9.47 4.2 9.487 9.4s-4.2 9.4-9.422 9.4H31.348zm0 108.4h-7.1c-5.222.1-9.47-4.1-9.487-9.4-.018-5.2 4.2-9.4 9.422-9.4h18.143c5.222 0 9.47 4.2 9.487 9.4s-4.2 9.4-9.422 9.4H31.348zm0-59.8h-7.1c-5.222 0-9.47-4.2-9.487-9.4s4.2-9.4 9.422-9.5h18.143c5.222 0 9.47 4.2 9.487 9.4s-4.2 9.5-9.422 9.5H31.348z" stroke="#8c8c8c" class="B D O"/><path d="M72 .001h1680v3528H72z" fill="#3f3f3f" class="G"/><g class="B C"><path d="M228 2887.54v-132h-4.5v9H219v-9H91.5v9h-9v165h120.74a6.41 6.41 0 0 0 6.75-6v-33c.1-1.7 1.38-2.9 3-3h15z" class="D J"/><path d="M219 2764.54h9v123h-9" class="M"/><path d="M91.5 2764.54v-9H219v9" class="K"/><path d="M961.5 2762.24h-3v-5.2h-36v5.2h-3v-5.2h-3v135.7H939v48h19.5v-48h6v-135.7h-3v5.2z" class="D J"/><path d="M922.5 2762.24h-6v130.5h6" class="L"/><path d="M922.5 2762.24v-6h36v6" class="K"/><g class="M"><path d="M958.5 2762.24h6v130.5h-6"/><path d="M958.5 2910.04h6v30.7h-6"/></g><path d="M1725.04 2756.24l-66 .8v5.2h-3v-5.2h-3v135.7h22.5v38.3c.2 2.9 2.3 5.4 5.2 6h54.8v-174.8h-10.5v-6z" class="D J"/><path d="M1659.04 2762.24h-6v130.5h6" class="L"/></g><path d="M1659.04 2762.24v-6h66v6" stroke-width=".587" class="C K"/><g class="E"><path d="M940.54 2905.54h18.26v-57h-45.64v-93H231.64v9H186v72h45.64v93h681.52v-12h15.2l12.17-12z" fill="url(#D)" class="N"/><g stroke="#a6a6a6"><path d="M706.32 2920.34l-2.24 1.9v7.5l2.24 1.8h71.26v-11.2h-71.26z" class="D P"/><g fill="url(#E)"><path d="M934.89 2932.94l23.9-.2v-14.4l-23.72-.1-3.68 4v7.5l3.5 3.2z"/><path d="M935.84 2929.74h-77.72v-7.5h77.72v7.5z"/></g><path d="M785.08 2931.54h73.7v-11.2h-73.7v11.2zm-7.14.1h6.84v-7.6h-6.84v7.6z" class="P"/></g></g><g class="B Q"><path d="M29.488 36.894c9.3-5.3 12.4-17.4 6.92-26.9s-17.47-12.8-26.78-7.4c-9.3 5.3-12.4 17.4-6.92 26.9s17.47 12.8 26.78 7.4z" transform="translate(915.244 2857.832)" class="R S"/><path d="M943.572 2892.726c8.22-4.7 10.96-15.4 6.1-23.7-4.84-8.4-15.43-11.4-23.65-6.6-8.22 4.7-10.96 15.4-6.1 23.7 4.84 8.4 15.43 11.4 23.65 6.6z" class="T"/></g><g class="N"><path d="M941.832 2889.726c6.6-3.8 8.78-12.3 4.9-19-3.88-6.8-12.37-9.1-18.96-5.3s-8.8 12.3-4.9 19c3.88 6.8 12.37 9.1 18.96 5.3z" class="E U"/><g class="B"><path d="M930.652 2864.826l4.62 26.3c1.4.2 2.78 0 4-.8l-4.62-26.2c-1.4-.3-2.78 0-4 .7z" class="V"/><path d="M932.892 2880.626l.36 2a24.32 24.32 0 0 0 5.36-.9l-.36-2 1.5-.2a31.2 31.2 0 0 0-1-5.5h0l-1.5.3-.34-1.8a24.32 24.32 0 0 0-5.36.9h0l.34 1.8-1.84.3c.15 1.8.5 3.7 1 5.5h0l1.84-.4z" class="W"/></g><path d="M1676.74 2905.54h18.3v-57h-45.7v-93h-681.5v9H922.2v72h45.64v93h681.5v-12h15.2l12.2-12z" fill="url(#D)" class="E"/></g><g stroke="#a6a6a6"><path d="M1442.54 2920.34l-2.3 1.9v7.5l2.3 1.8h71.2v-11.2h-71.2z" class="D E P"/><g fill="url(#E)"><path d="M1671.14 2932.94l23.9-.2v-14.4l-23.8-.1-3.6 4v7.5l3.5 3.2z" class="E"/><path d="M1672.04 2929.74h-77.7v-7.5h77.7v7.5z" class="E"/></g><path d="M1521.24 2931.54h73.7v-11.2h-73.7v11.2zm-7.1.1h6.8v-7.6h-6.8v7.6z" class="E P"/></g><g class="B Q"><path d="M956.27 2818.34c9.3-5.3 12.4-17.4 6.93-26.9s-17.47-12.8-26.78-7.4c-9.3 5.3-12.4 17.4-6.92 26.9s17.47 12.8 26.77 7.4z" class="R S"/><path d="M955.12 2816.341c8.22-4.7 10.96-15.4 6.1-23.7-4.84-8.4-15.43-11.4-23.65-6.6-8.22 4.7-10.96 15.4-6.1 23.7 4.84 8.4 15.43 11.4 23.65 6.6z" class="T"/></g><g class="N"><path d="M953.38 2813.34c6.6-3.8 8.78-12.3 4.9-19-3.88-6.8-12.37-9.1-18.96-5.3s-8.8 12.3-4.9 19c3.88 6.8 12.37 9.1 18.96 5.3z" class="E U"/><g class="B"><path d="M942.2 2788.441l4.62 26.3c1.4.2 2.78 0 4-.8h0l-4.62-26.2c-1.4-.3-2.78 0-4 .7z" class="V"/><path d="M944.44 2804.241l.36 2c1.8-.1 3.63-.4 5.36-.9l-.36-2 1.5-.2a31.21 31.21 0 0 0-1-5.5h0l-1.5.3-.34-1.8a24.32 24.32 0 0 0-5.36.9h0l.34 1.8-1.84.3c.15 1.8.5 3.7 1 5.5l1.84-.4z" class="W"/></g></g><g class="Q"><path d="M29.488 36.894c9.3-5.3 12.4-17.4 6.92-26.9s-17.47-12.8-26.78-7.4c-9.3 5.3-12.4 17.4-6.92 26.9s17.47 12.8 26.78 7.4z" transform="translate(1651.483 2857.832)" class="B R S"/><path d="M1679.811 2892.726c8.22-4.7 10.96-15.4 6.1-23.7-4.84-8.4-15.43-11.4-23.65-6.6-8.22 4.7-10.96 15.4-6.1 23.7 4.84 8.4 15.43 11.4 23.65 6.6z" class="B T"/></g><g class="N"><path d="M1678.071 2889.726c6.6-3.8 8.78-12.3 4.9-19-3.88-6.8-12.37-9.1-18.96-5.3s-8.8 12.3-4.9 19c3.88 6.8 12.37 9.1 18.96 5.3z" class="E U"/><g class="B"><path d="M1666.891 2864.826l4.62 26.3c1.4.2 2.78 0 4-.8l-4.62-26.2c-1.4-.3-2.78 0-4 .7z" class="V"/><path d="M1669.131 2880.626l.36 2a24.32 24.32 0 0 0 5.36-.9l-.36-2 1.5-.2a31.2 31.2 0 0 0-1-5.5h0l-1.5.3-.34-1.8a24.32 24.32 0 0 0-5.36.9h0l.34 1.8-1.84.3c.15 1.8.5 3.7 1 5.5h0l1.84-.4z" class="W"/></g></g><g class="C"><path d="M91.5 2764.54h-9v165h9" class="B L"/><path d="M1729.54 2762.24h6v174.8h-6" class="B M"/><path d="M96 3024.04h-3v-24c.3-1.4 1.576-2.4 3-2.3h0v26.3zm-6.75-24v24H87v429h10.5v16.5h294v-16.5h6v-456h-6v-27H99v24h-3c-3.52-.2-6.543 2.4-6.75 6zm-6.75 522h3v3a3.21 3.21 0 0 1-3-3zm1656.04 3v-3h3a3.23 3.23 0 0 1-3 3zM91.5 3478.54a7.18 7.18 0 0 0-6 7.5h-6v36a6.42 6.42 0 0 0 6 6h1651.54c3.5.5 6.8-1.9 7.4-5.499 0-.2 0-.4.1-.5v-36h-6a7.19 7.19 0 0 0-6-7.5v-5.3H91.5v5.3z" class="B D J"/><path d="M91.5 3482.24v-9h1641.04v9" class="B K"/><path d="M85.5 3486.04h-6v36h6" class="B L"/><path d="M85.5 3522.04v6h1653.04v-6" class="B F"/></g><g stroke="#595959" class="E"><path d="M1732.54 3498.04c0-6.7-5.4-12-12-12-6.7 0-12 5.3-12 12 0 6.6 5.3 12 12 12 6.618-.022 11.978-5.382 12-12z" class="I"/><path d="M1723.84 3498.04c0-1.9-1.5-3.4-3.3-3.4a3.37 3.37 0 0 0-3.4 3.4c0 1.8 1.5 3.3 3.4 3.3a3.33 3.33 0 0 0 3.3-3.3z" class="D H"/><path d="M115.5 3498.04c0-6.7-5.37-12-12-12s-12 5.3-12 12c0 6.6 5.373 12 12 12 6.623-.011 11.989-5.377 12-12z" class="I"/><path d="M106.86 3498.04c0-1.9-1.5-3.4-3.36-3.4s-3.36 1.5-3.36 3.4c0 1.8 1.5 3.301 3.36 3.301s3.36-1.5 3.36-3.301z" class="D H"/></g><g class="B C"><path d="M1738.54 3486.04h6v36h-6" class="M"/><path d="M83.24 3475.54c-2.48-.2-4.66 1.6-4.87 4.1-.032.367-.016.737.048 1.1h0l.001.8h-1.93v3h4.5v-3.8c-.207-1 .464-2 1.5-2.2.248-.1.502-.1.75 0h8.25v-3H83.24zm1657.5 0c2.5-.2 4.7 1.6 4.9 4.1 0 .4 0 .7-.1 1.1v.8h2v3h-4.5v-3.8c.2-1-.5-2-1.5-2.2-.257-.1-.543-.1-.8 0h-8.2v-3h8.2z" class="D J"/><path d="M1752.04 3528.04h-5.3v-60h5.3v60z" class="X"/><path d="M1746.74 3520.54v7.5h5.3v-7.5" class="Y"/><path d="M77.24 3528.04h-5.25v-60h5.25v60z" class="X"/><path d="M71.99 3520.54v7.5h5.25v-7.5" class="Y"/></g><g stroke="#595959" class="E"><use xlink:href="#R" class="I"/><use xlink:href="#S" class="D H"/><use xlink:href="#R" x="217.5" class="I"/><use xlink:href="#S" x="217.5" class="D H"/><use xlink:href="#R" y="198" class="I"/><use xlink:href="#S" y="198" class="D H"/><use xlink:href="#R" x="217.5" y="198" class="I"/><use xlink:href="#S" x="217.5" y="198" class="D H"/><use xlink:href="#R" y="-207" class="I"/><use xlink:href="#S" y="-207" class="D H"/><use xlink:href="#R" x="217.5" y="-207" class="I"/><use xlink:href="#S" x="217.5" y="-207" class="D H"/></g><g class="B C"><path d="M96 3024.04h-9v429h9" class="L"/><path d="M97.5 3459.04v10.5h294v-10.5" class="F"/></g><g transform="translate(391.5 2997.04)"><path fill="url(#A)" d="M0 0h6v456H0" class="B C"/></g><g class="B C"><path d="M99 2976.04v-6h292.5v6" class="K"/><path d="M630 12H96c-4.586-.37-8.604 3.046-8.975 7.632-.038.465-.036.932.004 1.397h0v38.97a8.93 8.93 0 0 0 8.85 9H1727.94c5 .04 9-3.92 9-8.85V21.03c.4-4.583-3-8.624-7.5-9.024-.466-.041-.934-.043-1.4-.005h0H630zm1097.94 52.5V60h4.5c.4 2.14-1.1 4.154-3.2 4.5-.4.066-.9.066-1.3 0zm0-47.97c2.2-.345 4.2 1.1 4.5 3.25a2.64 2.64 0 0 1 0 1.25h0-4.5v-4.5zM96.03 64.5a3.92 3.92 0 0 1-4.5-3.25 3.97 3.97 0 0 1 0-1.25h4.5v4.5zm0-47.97v4.5h-4.5a3.92 3.92 0 0 1 3.25-4.5 3.97 3.97 0 0 1 1.25 0z" class="D J"/><path d="M96 21v-9h1632.04v9" class="K"/></g><g transform="matrix(-1 0 0 -1 1728.04 69.000453)"><path d="M1632.04 9V0H0v9" class="B C K"/></g><g class="B C"><path d="M96 21h-9v39h9" class="L"/><path d="M475.34 3471.84h86.55v-498.8h-163.8v498.8h43.7v-13.2h33.55v13.2zm164.4 0h86.55v-498.8h-163.8v498.8h43.7v-13.2h33.56v13.2z" class="D O"/><path d="M891.24 3454.54h7.5v-486h-7.5v486z" fill="url(#M)"/><path d="M804.12 3471.84h86.55v-498.8h-163.8v498.8h43.68v-13.2h33.57v13.2zm172.46 0h86.56v-498.8h-163.8v498.8h43.7v-13.2h33.56v13.2z" class="D O"/><path d="M1721.24 3456.04h18v-487.5h-18v487.5z" class="J"/><g class="D O"><path d="M1140.94 3471.84h86.6v-498.8h-163.8v498.8h43.7v-13.2h33.5v13.2zm164.4 0h86.6v-498.8h-163.8v498.8h43.6v-13.2h33.6v13.2z"/><use xlink:href="#T"/><use xlink:href="#T" x="164.4"/></g><g class="J"><path d="M84 2968.541c-.374-3 1.706-5.7 4.645-6a3.1 3.1 0 0 1 1.355 0h0l2.25 3c-1.52-.5-3.142.3-3.625 1.8a3.3 3.3 0 0 0-.125 1.2v41.2H84v-41.2z" class="D"/><path d="M96.74 2940.04c-1.022-.2-1.99.5-2.25 1.5-2.333.3-4.167 2.1-4.5 4.5v16.5c.12 2 1.73 3.6 3.75 3.7h5.25v.8h135.75v-6h16.5v6h130.5v-6h16.5v6h147v-6h16.5v6h147.75v-6h17.25v6h147.75v-6h16.5v6h156.04v-6h15.7v6h6v-6h4.5v6h138v-6h16.5v6h147.8v-6h16.5v6h147.7v-6h16.5v6h147.8v-6h16.5v6h6v-32.3H96.74v5.3z" class="D"/></g><path d="M96.74 2940.74v-6h1640.3v6" class="K"/><path d="M98.99 2961.04v6h135.75v-6" class="F"/></g><path d="M251.24 2961.04v6h130.5v-6" stroke-width=".308" class="C F"/><path d="M398.24 2961.04v6h147v-6" stroke-width=".347" class="C F"/><g stroke-width=".348"><path d="M561.75 2961.04v6H709.5v-6" class="C F"/><path d="M726.75 2961.04v6H874.5v-6" class="C F"/></g><path d="M891 2961.04v6h156.04v-6" stroke-width=".368" class="C F"/><g class="B"><path d="M1073.24 2961.04v6h138v-6" class="C F"/><path d="M1062.74 2961.04v6h6v-6" class="C F"/></g><g stroke-width=".343"><path d="M1227.74 2961.04v6h147.8v-6" class="C F"/><path d="M1392.04 2961.04v6h147.7v-6" class="C F"/><path d="M1556.24 2961.04v6h147.7v-6" class="C F"/></g><g class="B"><path d="M1720.54 2961.04v6h15.7v-6" class="C F"/><path d="M86.4 12h1651.24V0H86.4v12z" fill="url(#N)" class="C"/><path d="M81 73.505h5.25V.005c-2.638-.048-4.894 1.886-5.25 4.5h0v69z" class="C D X"/><path d="M81 66.004v7.5h5.25v-7.5" class="C Y"/><path d="M72 6.005h9v-1.5a4.5 4.5 0 1 0-9-.009v1.51z" class="C Z"/></g><path d="M76.5 6.004V4.1" class="E I"/><g class="B C"><path d="M72 75.004h9v-69h-9v69z" class="Z"/><path d="M1743.04 73.505h-5.3V.005c2.6-.048 4.9 1.886 5.3 4.5h0v69z" class="D X"/><path d="M1737.74 66.004v7.5h5.3v-7.5" class="Y"/><path d="M1752.04 6.004h-9v-1.5c0-2.485 2-4.502 4.5-4.504 2.4-.002 4.5 2 4.5 4.496v1.51z" class="Z"/></g><path d="M1747.54 6.004V4.1" class="E I"/><g class="B C"><path d="M1752.04 75.004h-9v-69h9v69z" class="Z"/><path d="M1764.04 3475.541h-24V68.424h24v3407.117z" fill="url(#P)"/><path d="M60 3475.541h24V60.001H60v3415.54z" fill="url(#Q)"/><path d="M1728.04 21h9v39h-9" class="M"/></g><g fill="#3f3f3f" class="G"><circle cx="733.5" cy="30" r="9"/><circle cx="793" cy="30" r="9"/><circle cx="852.5" cy="30" r="9"/><circle cx="912" cy="30" r="9"/><circle cx="971.5" cy="30" r="9"/><circle cx="1031.04" cy="30" r="9"/><circle cx="1090.54" cy="30" r="9"/></g><path d="M1672.14 42.005h1.858v7.364h-1.858zm16.8 2.11c-.1-.04-.7-.393-1.6-.393-1.2 0-2 .836-2 1.964 0 1.094.8 1.966 2 1.966.9 0 1.5-.347 1.6-.39v1.977a5.96 5.96 0 0 1-1.7.262c-2.1 0-3.9-1.44-3.9-3.814 0-2.2 1.6-3.812 3.9-3.812.9 0 1.5.212 1.7.264v1.977zm-19.4 0c-.1-.04-.7-.393-1.6-.393-1.2 0-2 .836-2 1.964 0 1.094.8 1.966 2 1.966.9 0 1.5-.347 1.6-.39v1.977a5.96 5.96 0 0 1-1.7.262c-2.1 0-3.9-1.44-3.9-3.814 0-2.2 1.7-3.812 3.9-3.812.9 0 1.5.212 1.7.264v1.977zm29.1 1.571c0 2.107-1.6 3.814-3.8 3.814-2.3 0-3.9-1.707-3.9-3.814s1.6-3.812 3.9-3.812c2.2 0 3.8 1.708 3.8 3.812zm-3.8-1.937c-1.1 0-2 .868-2 1.937s.9 1.938 2 1.938 1.9-.867 1.9-1.938-.8-1.937-1.9-1.937zm-13.8-.071c-.1-.008-.8-.225-1.5-.225s-1.1.25-1.1.604c0 .448.5.605.8.702l.5.163c1.2.383 1.8 1.21 1.8 2.106 0 1.85-1.6 2.472-3.1 2.472-.9 0-1.9-.182-2-.2v-1.695c.2.04 1 .274 1.8.274.9 0 1.3-.27 1.3-.688 0-.373-.3-.59-.8-.733-.1-.038-.3-.09-.4-.128-1-.327-1.9-.936-1.9-2.155 0-1.377 1-2.302 2.8-2.302.9 0 1.7.22 1.8.234v1.572z" class="G" fill="#c41230"/><g fill="#005568"><path d="M1661.94 34.09c0-.507-.4-.92-.9-.92s-.9.412-.9.92v1.933a.91.91 0 0 0 .9.923c.5 0 .9-.412.9-.923V34.09z" class="G"/><use xlink:href="#U" class="G"/><path d="M1672.14 28.082c0-.508-.5-.92-1-.92s-.9.412-.9.92v9.78c0 .5.4.92.9.92s1-.41 1-.92v-9.78zm5 3.471c0-.508-.4-.92-.9-.92s-.9.412-.9.92v4.47a.91.91 0 0 0 .9.923c.5 0 .9-.412.9-.923v-4.47zm5.1 2.537c0-.507-.4-.92-.9-.92s-1 .412-1 .92v1.933c0 .51.5.923 1 .923s.9-.412.9-.923V34.09zm5.1-2.537c0-.508-.5-.92-1-.92s-.9.412-.9.92v4.47a.91.91 0 0 0 .9.923c.5 0 1-.412 1-.923v-4.47zm5-3.471c0-.508-.4-.92-.9-.92s-.9.412-.9.92v9.78c0 .5.4.92.9.92s.9-.41.9-.92v-9.78z" class="G"/><use xlink:href="#U" x="30.4" class="G"/><path d="M1702.54 34.09c0-.507-.5-.92-1-.92s-.9.412-.9.92v1.933a.91.91 0 0 0 .9.923c.5 0 1-.412 1-.923V34.09z" class="G"/></g><path d="M1701.44 48.4v.115h-.3v.854h-.2v-.854h-.3V48.4h.8zm.1 0h.2l.3.795.3-.795h.2v.97h-.2v-.794l-.3.794h-.1l-.3-.794v.794h-.1v-.97z" class="G" fill="#c41230"/><g class="B Q"><path d="M29.488 36.894c9.3-5.3 12.4-17.4 6.92-26.9s-17.47-12.8-26.78-7.4c-9.3 5.3-12.4 17.4-6.92 26.9s17.47 12.8 26.78 7.4z" transform="translate(190.592 2781.446)" class="R S"/><path d="M218.92 2816.34c8.22-4.7 10.96-15.4 6.1-23.7-4.84-8.4-15.43-11.4-23.65-6.6-8.22 4.7-10.96 15.4-6.1 23.7 4.84 8.4 15.43 11.4 23.65 6.6z" class="T"/></g><g class="N"><path d="M217.18 2813.34c6.6-3.8 8.78-12.3 4.9-19-3.88-6.8-12.37-9.1-18.96-5.3s-8.8 12.3-4.9 19c3.88 6.8 12.37 9.1 18.96 5.3z" class="E U"/><g class="B"><path d="M206 2788.44l4.62 26.3c1.4.2 2.78 0 4-.8l-4.62-26.2c-1.4-.3-2.78 0-4 .7z" class="V"/><path d="M208.24 2804.24l.36 2a24.32 24.32 0 0 0 5.36-.9l-.36-2 1.5-.2a31.2 31.2 0 0 0-1-5.5h0l-1.5.3-.34-1.8a24.32 24.32 0 0 0-5.36.9h0l.34 1.8-1.84.3c.15 1.8.5 3.7 1 5.5h0l1.84-.4z" class="W"/></g></g><g class="G H"><path d="M1634.64 3498.74l3.4-5.9-3.4-5.8h-6.8l-3.5 5.8 3.5 5.9h6.8zm0 15.5l3.4-5.9-3.4-5.8h-6.8l-3.5 5.8 3.5 5.9h6.8zm-79.3-15.5l3.4-5.9-3.4-5.8h-6.8l-3.5 5.8 3.5 5.9h6.8zm0 15.5l3.4-5.9-3.4-5.8h-6.8l-3.5 5.8 3.5 5.9h6.8zm-79.3-15.5l3.4-5.9-3.4-5.8h-6.8l-3.5 5.8 3.5 5.9h6.8zm0 15.5l3.4-5.9-3.4-5.8h-6.8l-3.5 5.8 3.5 5.9h6.8zm-79.3-15.5l3.4-5.9-3.4-5.8h-6.8l-3.5 5.8 3.5 5.9h6.8zm0 15.5l3.4-5.9-3.4-5.8h-6.8l-3.5 5.8 3.5 5.9h6.8zm-79.3-15.5l3.4-5.9-3.4-5.8h-6.8l-3.5 5.8 3.5 5.9h6.8zm0 15.5l3.4-5.9-3.4-5.8h-6.8l-3.5 5.8 3.5 5.9h6.8zm-317.2-15.5l3.4-5.9-3.4-5.8h-6.85l-3.4 5.8 3.4 5.9h6.85zm0 15.5l3.4-5.9-3.4-5.8h-6.85l-3.4 5.8 3.4 5.9h6.85zm687.2-15.5l3.4-5.9-3.4-5.8h-6.8l-3.4 5.8 3.4 5.9h6.8zm0 15.5l3.4-5.9-3.4-5.8h-6.8l-3.4 5.8 3.4 5.9h6.8zm-26.4-15.5l3.4-5.9-3.4-5.8h-6.8l-3.4 5.8 3.4 5.9h6.8zm0 15.5l3.4-5.9-3.4-5.8h-6.8l-3.4 5.8 3.4 5.9h6.8zm-52.9-15.5l3.4-5.9-3.4-5.8h-6.8l-3.4 5.8 3.4 5.9h6.8zm0 15.5l3.4-5.9-3.4-5.8h-6.8l-3.4 5.8 3.4 5.9h6.8zm-26.4-15.5l3.4-5.9-3.4-5.8h-6.8l-3.4 5.8 3.4 5.9h6.8zm0 15.5l3.4-5.9-3.4-5.8h-6.8l-3.4 5.8 3.4 5.9h6.8zm-52.9-15.5l3.4-5.9-3.4-5.8h-6.8l-3.4 5.8 3.4 5.9h6.8zm0 15.5l3.4-5.9-3.4-5.8h-6.8l-3.4 5.8 3.4 5.9h6.8zm-26.4-15.5l3.4-5.9-3.4-5.8h-6.8l-3.4 5.8 3.4 5.9h6.8zm0 15.5l3.4-5.9-3.4-5.8h-6.8l-3.4 5.8 3.4 5.9h6.8zm-52.9-15.5l3.4-5.9-3.4-5.8h-6.8l-3.4 5.8 3.4 5.9h6.8zm0 15.5l3.4-5.9-3.4-5.8h-6.8l-3.4 5.8 3.4 5.9h6.8zm-26.4-15.5l3.4-5.9-3.4-5.8h-6.8l-3.4 5.8 3.4 5.9h6.8zm0 15.5l3.4-5.9-3.4-5.8h-6.8l-3.4 5.8 3.4 5.9h6.8zm-52.9-15.5l3.4-5.9-3.4-5.8h-6.8l-3.4 5.8 3.4 5.9h6.8zm0 15.5l3.4-5.9-3.4-5.8h-6.8l-3.4 5.8 3.4 5.9h6.8zm-26.4-15.5l3.4-5.9-3.4-5.8h-6.8l-3.4 5.8 3.4 5.9h6.8zm0 15.5l3.4-5.9-3.4-5.8h-6.8l-3.4 5.8 3.4 5.9h6.8zm-52.9-15.5l3.4-5.9-3.4-5.8h-6.8l-3.4 5.8 3.4 5.9h6.8zm0 15.5l3.4-5.9-3.4-5.8h-6.8l-3.4 5.8 3.4 5.9h6.8zm-26.4-15.5l3.4-5.9-3.4-5.8h-6.8l-3.4 5.8 3.4 5.9h6.8zm0 15.5l3.4-5.9-3.4-5.8h-6.8l-3.4 5.8 3.4 5.9h6.8zm-26.4-15.5l3.4-5.9-3.4-5.8h-6.8l-3.4 5.8 3.4 5.9h6.8zm0 15.5l3.4-5.9-3.4-5.8h-6.8l-3.4 5.8 3.4 5.9h6.8zm-26.5-15.5l3.4-5.9-3.4-5.8h-6.8l-3.4 5.8 3.4 5.9h6.8zm0 15.5l3.4-5.9-3.4-5.8h-6.8l-3.4 5.8 3.4 5.9h6.8zm-26.4-15.5l3.4-5.9-3.4-5.8h-6.8l-3.4 5.8 3.4 5.9h6.8zm0 15.5l3.4-5.9-3.4-5.8h-6.8l-3.4 5.8 3.4 5.9h6.8zm-26.4-15.5l3.4-5.9-3.4-5.8h-6.8l-3.4 5.8 3.4 5.9h6.8zm0 15.5l3.4-5.9-3.4-5.8h-6.8l-3.4 5.8 3.4 5.9h6.8zm-26.5-15.5l3.4-5.9-3.4-5.8h-6.8l-3.4 5.8 3.4 5.9h6.8zm0 15.5l3.4-5.9-3.4-5.8h-6.8l-3.4 5.8 3.4 5.9h6.8zm-26.4-15.5l3.4-5.9-3.4-5.8h-6.8l-3.4 5.8 3.4 5.9h6.8zm0 15.5l3.4-5.9-3.4-5.8h-6.8l-3.4 5.8 3.4 5.9h6.8zm-26.4-15.5l3.4-5.9-3.4-5.8h-6.8l-3.4 5.8 3.4 5.9h6.8zm0 15.5l3.4-5.9-3.4-5.8h-6.8l-3.4 5.8 3.4 5.9h6.8zm-26.5-15.5l3.4-5.9-3.4-5.8h-6.8l-3.4 5.8 3.4 5.9h6.8zm0 15.5l3.4-5.9-3.4-5.8h-6.8l-3.4 5.8 3.4 5.9h6.8zm-26.4-15.5l3.4-5.9-3.4-5.8h-6.8l-3.4 5.8 3.4 5.9h6.8zm0 15.5l3.4-5.9-3.4-5.8h-6.8l-3.4 5.8 3.4 5.9h6.8zm-52.87-15.5l3.4-5.9-3.4-5.8h-6.8l-3.4 5.8 3.4 5.9h6.8zm0 15.5l3.4-5.9-3.4-5.8h-6.8l-3.4 5.8 3.4 5.9h6.8zm-26.43-15.5l3.4-5.9-3.4-5.8h-6.8l-3.4 5.8 3.4 5.9h6.8zm0 15.5l3.4-5.9-3.4-5.8h-6.8l-3.4 5.8 3.4 5.9h6.8zm-26.44-15.5l3.4-5.9-3.4-5.8h-6.8l-3.4 5.8 3.4 5.9h6.8zm0 15.5l3.4-5.9-3.4-5.8h-6.8l-3.4 5.8 3.4 5.9h6.8zm-26.43-15.5l3.4-5.9-3.4-5.8h-6.8l-3.4 5.8 3.4 5.9h6.8zm0 15.5l3.4-5.9-3.4-5.8h-6.8l-3.4 5.8 3.4 5.9h6.8zm-26.43-15.5l3.4-5.9-3.4-5.8h-6.8l-3.4 5.8 3.4 5.9h6.8zm0 15.5l3.4-5.9-3.4-5.8h-6.8l-3.4 5.8 3.4 5.9h6.8zm-26.44-15.5l3.4-5.9-3.4-5.8h-6.8l-3.4 5.8 3.4 5.9h6.8zm0 15.5l3.4-5.9-3.4-5.8h-6.8l-3.4 5.8 3.4 5.9h6.8zm-26.43-15.5l3.4-5.9-3.4-5.8h-6.8l-3.4 5.8 3.4 5.9h6.8zm0 15.5l3.4-5.9-3.4-5.8h-6.8l-3.4 5.8 3.4 5.9h6.8zm-26.43-15.5l3.4-5.9-3.4-5.8h-6.8l-3.4 5.8 3.4 5.9h6.8zm0 15.5l3.4-5.9-3.4-5.8h-6.8l-3.4 5.8 3.4 5.9h6.8zm-26.44-15.5l3.4-5.9-3.4-5.8h-6.8l-3.4 5.8 3.4 5.9h6.8zm0 15.5l3.4-5.9-3.4-5.8h-6.8l-3.4 5.8 3.4 5.9h6.8zm-26.43-15.5l3.4-5.9-3.4-5.8h-6.8l-3.4 5.8 3.4 5.9h6.8zm0 15.5l3.4-5.9-3.4-5.8h-6.8l-3.4 5.8 3.4 5.9h6.8zm-26.43-15.5l3.4-5.9-3.4-5.8h-6.8l-3.4 5.8 3.4 5.9h6.8zm0 15.5l3.4-5.9-3.4-5.8h-6.8l-3.4 5.8 3.4 5.9h6.8zm-26.44-15.5l3.4-5.9-3.4-5.8h-6.8l-3.4 5.8 3.4 5.9h6.8zm0 15.5l3.4-5.9-3.4-5.8h-6.8l-3.4 5.8 3.4 5.9h6.8zm-26.43-15.5l3.4-5.9-3.4-5.8h-6.8l-3.4 5.8 3.4 5.9h6.8zm0 15.5l3.4-5.9-3.4-5.8h-6.8l-3.4 5.8 3.4 5.9h6.8zm-26.43-15.5l3.4-5.9-3.4-5.8h-6.8l-3.4 5.8 3.4 5.9h6.8zm0 15.5l3.4-5.9-3.4-5.8h-6.8l-3.4 5.8 3.4 5.9h6.8zm-26.44-15.5l3.4-5.9-3.4-5.8h-6.8l-3.4 5.8 3.4 5.9h6.8zm0 15.5l3.4-5.9-3.4-5.8h-6.8l-3.4 5.8 3.4 5.9h6.8zm-26.43-15.5l3.4-5.9-3.4-5.8h-6.8l-3.4 5.8 3.4 5.9h6.8zm0 15.5l3.4-5.9-3.4-5.8h-6.8l-3.4 5.8 3.4 5.9h6.8zm-26.43-15.5l3.4-5.9-3.4-5.8h-6.8l-3.4 5.8 3.4 5.9h6.8zm0 15.5l3.4-5.9-3.4-5.8h-6.8l-3.4 5.8 3.4 5.9h6.8zm-26.44-15.5l3.4-5.9-3.4-5.8h-6.8l-3.4 5.8 3.4 5.9h6.8zm0 15.5l3.4-5.9-3.4-5.8h-6.8l-3.4 5.8 3.4 5.9h6.8zm-26.43-15.5l3.4-5.9-3.4-5.8h-6.8l-3.4 5.8 3.4 5.9h6.8zm0 15.5l3.4-5.9-3.4-5.8h-6.8l-3.4 5.8 3.4 5.9h6.8zm-26.43-15.5l3.4-5.9-3.4-5.8h-6.8l-3.4 5.8 3.4 5.9h6.8zm0 15.5l3.4-5.9-3.4-5.8h-6.8l-3.4 5.8 3.4 5.9h6.8zm-26.44-15.5l3.4-5.9-3.4-5.8h-6.8l-3.4 5.8 3.4 5.9h6.8zm0 15.5l3.4-5.9-3.4-5.8h-6.8l-3.4 5.8 3.4 5.9h6.8zm-26.43-15.5l3.4-5.9-3.4-5.8h-6.8l-3.4 5.8 3.4 5.9h6.8zm0 15.5l3.4-5.9-3.4-5.8h-6.8l-3.4 5.8 3.4 5.9h6.8zm-26.43-15.5l3.4-5.9-3.4-5.8h-6.8l-3.4 5.8 3.4 5.9h6.8zm0 15.5l3.4-5.9-3.4-5.8h-6.8l-3.4 5.8 3.4 5.9h6.8zm-26.44-15.5l3.4-5.9-3.4-5.8H359l-3.4 5.8 3.4 5.9h6.8zm0 15.5l3.4-5.9-3.4-5.8H359l-3.4 5.8 3.4 5.9h6.8zm-26.43-15.5l3.4-5.9-3.4-5.8h-6.8l-3.4 5.8 3.4 5.9h6.8zm0 15.5l3.4-5.9-3.4-5.8h-6.8l-3.4 5.8 3.4 5.9h6.8zm-26.43-15.5l3.4-5.9-3.4-5.8h-6.8l-3.4 5.8 3.4 5.9h6.8zm0 15.5l3.4-5.9-3.4-5.8h-6.8l-3.4 5.8 3.4 5.9h6.8zm-26.44-15.5l3.4-5.9-3.4-5.8h-6.8l-3.4 5.8 3.4 5.9h6.8zm0 15.5l3.4-5.9-3.4-5.8h-6.8l-3.4 5.8 3.4 5.9h6.8zm-26.43-15.5l3.4-5.9-3.4-5.8h-6.8l-3.4 5.8 3.4 5.9h6.8zm0 15.5l3.4-5.9-3.4-5.8h-6.8l-3.4 5.8 3.4 5.9h6.8zm-26.43-15.5l3.4-5.9-3.4-5.8h-6.8l-3.4 5.8 3.4 5.9h6.8zm0 15.5l3.4-5.9-3.4-5.8h-6.8l-3.4 5.8 3.4 5.9h6.8zm-26.44-15.5l3.4-5.9-3.4-5.8h-6.8l-3.4 5.8 3.4 5.9h6.8zm0 15.5l3.4-5.9-3.4-5.8h-6.8l-3.4 5.8 3.4 5.9h6.8zm-26.43-15.5l3.4-5.9-3.4-5.8h-6.8l-3.4 5.8 3.4 5.9h6.8zm0 15.5l3.4-5.9-3.4-5.8h-6.8l-3.4 5.8 3.4 5.9h6.8zm-26.43-15.5l3.4-5.9-3.4-5.8h-6.8l-3.4 5.8 3.4 5.9h6.8zm0 15.5l3.4-5.9-3.4-5.8h-6.8l-3.4 5.8 3.4 5.9h6.8zm-26.44-15.5l3.4-5.9-3.4-5.8h-6.8l-3.4 5.8 3.4 5.9h6.8zm0 15.5l3.4-5.9-3.4-5.8h-6.8l-3.4 5.8 3.4 5.9h6.8zm1572.74 7.8l3.4-5.9-3.4-5.9h-6.8l-3.4 5.9 3.4 5.9h6.8zm0-15.5l3.4-5.9-3.4-5.9h-6.8l-3.4 5.9 3.4 5.9h6.8zm0-15.5l3.4-5.9-3.4-5.901h-6.8l-3.4 5.901 3.4 5.9h6.8zm-26.4 31l3.4-5.9-3.4-5.9h-6.8l-3.4 5.9 3.4 5.9h6.8zm0-15.5l3.4-5.9-3.4-5.9h-6.8l-3.4 5.9 3.4 5.9h6.8zm0-15.5l3.4-5.9-3.4-5.901h-6.8l-3.4 5.901 3.4 5.9h6.8zm-26.4 31l3.4-5.9-3.4-5.9h-6.8l-3.4 5.9 3.4 5.9h6.8zm0-15.5l3.4-5.9-3.4-5.9h-6.8l-3.4 5.9 3.4 5.9h6.8zm0-15.5l3.4-5.9-3.4-5.901h-6.8l-3.4 5.901 3.4 5.9h6.8zm-26.5 31l3.4-5.9-3.4-5.9h-6.8l-3.4 5.9 3.4 5.9h6.8zm0-15.5l3.4-5.9-3.4-5.9h-6.8l-3.4 5.9 3.4 5.9h6.8zm0-15.5l3.4-5.9-3.4-5.901h-6.8l-3.4 5.901 3.4 5.9h6.8zm-26.4 31l3.4-5.9-3.4-5.9h-6.8l-3.4 5.9 3.4 5.9h6.8zm0-15.5l3.4-5.9-3.4-5.9h-6.8l-3.4 5.9 3.4 5.9h6.8zm0-15.5l3.4-5.9-3.4-5.901h-6.8l-3.4 5.901 3.4 5.9h6.8zm-26.4 31l3.4-5.9-3.4-5.9h-6.8l-3.4 5.9 3.4 5.9h6.8zm0-15.5l3.4-5.9-3.4-5.9h-6.8l-3.4 5.9 3.4 5.9h6.8zm0-15.5l3.4-5.9-3.4-5.901h-6.8l-3.4 5.901 3.4 5.9h6.8zm-26.5 31l3.4-5.9-3.4-5.9h-6.8l-3.4 5.9 3.4 5.9h6.8zm0-15.5l3.4-5.9-3.4-5.9h-6.8l-3.4 5.9 3.4 5.9h6.8zm0-15.5l3.4-5.9-3.4-5.901h-6.8l-3.4 5.901 3.4 5.9h6.8zm-26.4 31l3.4-5.9-3.4-5.9h-6.8l-3.4 5.9 3.4 5.9h6.8zm0-15.5l3.4-5.9-3.4-5.9h-6.8l-3.4 5.9 3.4 5.9h6.8zm0-15.5l3.4-5.9-3.4-5.901h-6.8l-3.4 5.901 3.4 5.9h6.8zm-26.4 31l3.4-5.9-3.4-5.9h-6.8l-3.4 5.9 3.4 5.9h6.8zm0-15.5l3.4-5.9-3.4-5.9h-6.8l-3.4 5.9 3.4 5.9h6.8zm0-15.5l3.4-5.9-3.4-5.901h-6.8l-3.4 5.901 3.4 5.9h6.8zm-26.5 31l3.4-5.9-3.4-5.9h-6.8l-3.4 5.9 3.4 5.9h6.8zm0-15.5l3.4-5.9-3.4-5.9h-6.8l-3.4 5.9 3.4 5.9h6.8zm0-15.5l3.4-5.9-3.4-5.901h-6.8l-3.4 5.901 3.4 5.9h6.8zm-26.4 31l3.4-5.9-3.4-5.9h-6.8l-3.4 5.9 3.4 5.9h6.8zm0-15.5l3.4-5.9-3.4-5.9h-6.8l-3.4 5.9 3.4 5.9h6.8zm0-15.5l3.4-5.9-3.4-5.901h-6.8l-3.4 5.901 3.4 5.9h6.8zm-26.4 31l3.4-5.9-3.4-5.9h-6.8l-3.4 5.9 3.4 5.9h6.8zm0-15.5l3.4-5.9-3.4-5.9h-6.8l-3.4 5.9 3.4 5.9h6.8zm0-15.5l3.4-5.9-3.4-5.901h-6.8l-3.4 5.901 3.4 5.9h6.8zm-26.5 31l3.4-5.9-3.4-5.9h-6.8l-3.4 5.9 3.4 5.9h6.8zm0-15.5l3.4-5.9-3.4-5.9h-6.8l-3.4 5.9 3.4 5.9h6.8zm0-15.5l3.4-5.9-3.4-5.901h-6.8l-3.4 5.901 3.4 5.9h6.8zm-26.4 31l3.4-5.9-3.4-5.9h-6.8l-3.4 5.9 3.4 5.9h6.8zm0-15.5l3.4-5.9-3.4-5.9h-6.8l-3.4 5.9 3.4 5.9h6.8zm0-15.5l3.4-5.9-3.4-5.901h-6.8l-3.4 5.901 3.4 5.9h6.8zm-26.4 31l3.4-5.9-3.4-5.9h-6.8l-3.4 5.9 3.4 5.9h6.8zm0-15.5l3.4-5.9-3.4-5.9h-6.8l-3.4 5.9 3.4 5.9h6.8zm0-15.5l3.4-5.9-3.4-5.901h-6.8l-3.4 5.901 3.4 5.9h6.8zm-26.5 31l3.4-5.9-3.4-5.9h-6.8l-3.4 5.9 3.4 5.9h6.8zm0-15.5l3.4-5.9-3.4-5.9h-6.8l-3.4 5.9 3.4 5.9h6.8zm0-15.5l3.4-5.9-3.4-5.901h-6.8l-3.4 5.901 3.4 5.9h6.8zm-26.4 31l3.4-5.9-3.4-5.9h-6.8l-3.4 5.9 3.4 5.9h6.8zm0-15.5l3.4-5.9-3.4-5.9h-6.8l-3.4 5.9 3.4 5.9h6.8zm0-15.5l3.4-5.9-3.4-5.901h-6.8l-3.4 5.901 3.4 5.9h6.8zm-26.4 31l3.4-5.9-3.4-5.9h-6.8l-3.4 5.9 3.4 5.9h6.8zm0-15.5l3.4-5.9-3.4-5.9h-6.8l-3.4 5.9 3.4 5.9h6.8zm0-15.5l3.4-5.9-3.4-5.901h-6.8l-3.4 5.901 3.4 5.9h6.8zm-26.5 31l3.4-5.9-3.4-5.9h-6.8l-3.4 5.9 3.4 5.9h6.8zm0-15.5l3.4-5.9-3.4-5.9h-6.8l-3.4 5.9 3.4 5.9h6.8zm0-15.5l3.4-5.9-3.4-5.901h-6.8l-3.4 5.901 3.4 5.9h6.8zm-26.4 31l3.4-5.9-3.4-5.9h-6.8l-3.4 5.9 3.4 5.9h6.8zm0-15.5l3.4-5.9-3.4-5.9h-6.8l-3.4 5.9 3.4 5.9h6.8zm0-15.5l3.4-5.9-3.4-5.901h-6.8l-3.4 5.901 3.4 5.9h6.8zm-26.4 31l3.4-5.9-3.4-5.9h-6.8l-3.4 5.9 3.4 5.9h6.8zm0-15.5l3.4-5.9-3.4-5.9h-6.8l-3.4 5.9 3.4 5.9h6.8zm0-15.5l3.4-5.9-3.4-5.901h-6.8l-3.4 5.901 3.4 5.9h6.8zm-26.5 31l3.4-5.9-3.4-5.9h-6.8l-3.4 5.9 3.4 5.9h6.8zm0-15.5l3.4-5.9-3.4-5.9h-6.8l-3.4 5.9 3.4 5.9h6.8zm0-15.5l3.4-5.9-3.4-5.901h-6.8l-3.4 5.901 3.4 5.9h6.8zm-26.4 31l3.4-5.9-3.4-5.9h-6.8l-3.4 5.9 3.4 5.9h6.8zm0-15.5l3.4-5.9-3.4-5.9h-6.8l-3.4 5.9 3.4 5.9h6.8zm0-15.5l3.4-5.9-3.4-5.901h-6.8l-3.4 5.901 3.4 5.9h6.8zm-26.4 31l3.4-5.9-3.4-5.9h-6.8l-3.4 5.9 3.4 5.9h6.8zm0-15.5l3.4-5.9-3.4-5.9h-6.8l-3.4 5.9 3.4 5.9h6.8zm0-15.5l3.4-5.9-3.4-5.901h-6.8l-3.4 5.901 3.4 5.9h6.8zm-26.5 31l3.4-5.9-3.4-5.9h-6.8l-3.4 5.9 3.4 5.9h6.8zm0-15.5l3.4-5.9-3.4-5.9h-6.8l-3.4 5.9 3.4 5.9h6.8zm0-15.5l3.4-5.9-3.4-5.901h-6.8l-3.4 5.901 3.4 5.9h6.8zm-26.4 31l3.4-5.9-3.4-5.9h-6.8l-3.4 5.9 3.4 5.9h6.8zm0-15.5l3.4-5.9-3.4-5.9h-6.8l-3.4 5.9 3.4 5.9h6.8zm0-15.5l3.4-5.9-3.4-5.901h-6.8l-3.4 5.901 3.4 5.9h6.8zm-26.4 31l3.4-5.9-3.4-5.9h-6.8l-3.4 5.9 3.4 5.9h6.8zm0-15.5l3.4-5.9-3.4-5.9h-6.8l-3.4 5.9 3.4 5.9h6.8zm0-15.5l3.4-5.9-3.4-5.901h-6.8l-3.4 5.901 3.4 5.9h6.8zm-26.46 31l3.4-5.9-3.4-5.9h-6.8l-3.4 5.9 3.4 5.9h6.8zm0-15.5l3.4-5.9-3.4-5.9h-6.8l-3.4 5.9 3.4 5.9h6.8zm0-15.5l3.4-5.9-3.4-5.901h-6.8l-3.4 5.901 3.4 5.9h6.8zm-26.44 31l3.4-5.9-3.4-5.9h-6.8l-3.4 5.9 3.4 5.9h6.8zm0-15.5l3.4-5.9-3.4-5.9h-6.8l-3.4 5.9 3.4 5.9h6.8zm0-15.5l3.4-5.9-3.4-5.901h-6.8l-3.4 5.901 3.4 5.9h6.8zm-26.42 31l3.4-5.9-3.4-5.9h-6.8l-3.4 5.9 3.4 5.9h6.8zm0-15.5l3.4-5.9-3.4-5.9h-6.8l-3.4 5.9 3.4 5.9h6.8zm0-15.5l3.4-5.9-3.4-5.901h-6.8l-3.4 5.901 3.4 5.9h6.8zm-26.44 31l3.4-5.9-3.4-5.9h-6.8l-3.4 5.9 3.4 5.9h6.8zm0-15.5l3.4-5.9-3.4-5.9h-6.8l-3.4 5.9 3.4 5.9h6.8zm0-15.5l3.4-5.9-3.4-5.901h-6.8l-3.4 5.901 3.4 5.9h6.8zm-26.44 31l3.4-5.9-3.4-5.9h-6.8l-3.4 5.9 3.4 5.9h6.8zm0-15.5l3.4-5.9-3.4-5.9h-6.8l-3.4 5.9 3.4 5.9h6.8zm0-15.5l3.4-5.9-3.4-5.901h-6.8l-3.4 5.901 3.4 5.9h6.8zm-26.42 31l3.4-5.9-3.4-5.9h-6.8l-3.4 5.9 3.4 5.9h6.8zm0-15.5l3.4-5.9-3.4-5.9h-6.8l-3.4 5.9 3.4 5.9h6.8zm0-15.5l3.4-5.9-3.4-5.901h-6.8l-3.4 5.901 3.4 5.9h6.8zm-26.44 31l3.4-5.9-3.4-5.9h-6.8l-3.4 5.9 3.4 5.9h6.8zm0-15.5l3.4-5.9-3.4-5.9h-6.8l-3.4 5.9 3.4 5.9h6.8zm0-15.5l3.4-5.9-3.4-5.901h-6.8l-3.4 5.901 3.4 5.9h6.8zm-26.44 31l3.4-5.9-3.4-5.9h-6.8l-3.4 5.9 3.4 5.9h6.8zm0-15.5l3.4-5.9-3.4-5.9h-6.8l-3.4 5.9 3.4 5.9h6.8zm0-15.5l3.4-5.9-3.4-5.901h-6.8l-3.4 5.901 3.4 5.9h6.8zm-26.42 31l3.4-5.9-3.4-5.9h-6.8l-3.4 5.9 3.4 5.9h6.8zm0-15.5l3.4-5.9-3.4-5.9h-6.8l-3.4 5.9 3.4 5.9h6.8zm0-15.5l3.4-5.9-3.4-5.901h-6.8l-3.4 5.901 3.4 5.9h6.8zm-26.44 31l3.4-5.9-3.4-5.9h-6.8l-3.4 5.9 3.4 5.9h6.8zm0-15.5l3.4-5.9-3.4-5.9h-6.8l-3.4 5.9 3.4 5.9h6.8zm0-15.5l3.4-5.9-3.4-5.901h-6.8l-3.4 5.901 3.4 5.9h6.8zm-26.44 31l3.4-5.9-3.4-5.9h-6.8l-3.4 5.9 3.4 5.9h6.8zm0-15.5l3.4-5.9-3.4-5.9h-6.8l-3.4 5.9 3.4 5.9h6.8zm0-15.5l3.4-5.9-3.4-5.901h-6.8l-3.4 5.901 3.4 5.9h6.8zm-26.42 31l3.4-5.9-3.4-5.9h-6.8l-3.4 5.9 3.4 5.9h6.8zm0-15.5l3.4-5.9-3.4-5.9h-6.8l-3.4 5.9 3.4 5.9h6.8zm0-15.5l3.4-5.9-3.4-5.901h-6.8l-3.4 5.901 3.4 5.9h6.8zm-26.44 31l3.4-5.9-3.4-5.9h-6.8l-3.4 5.9 3.4 5.9h6.8zm0-15.5l3.4-5.9-3.4-5.9h-6.8l-3.4 5.9 3.4 5.9h6.8zm0-15.5l3.4-5.9-3.4-5.901h-6.8l-3.4 5.901 3.4 5.9h6.8zm-26.44 31l3.4-5.9-3.4-5.9h-6.8l-3.4 5.9 3.4 5.9h6.8zm0-15.5l3.4-5.9-3.4-5.9h-6.8l-3.4 5.9 3.4 5.9h6.8zm0-15.5l3.4-5.9-3.4-5.901h-6.8l-3.4 5.901 3.4 5.9h6.8zm-26.42 31l3.4-5.9-3.4-5.9h-6.8l-3.4 5.9 3.4 5.9h6.8zm0-15.5l3.4-5.9-3.4-5.9h-6.8l-3.4 5.9 3.4 5.9h6.8zm0-15.5l3.4-5.9-3.4-5.901h-6.8l-3.4 5.901 3.4 5.9h6.8zm-26.44 31l3.4-5.9-3.4-5.9h-6.8l-3.4 5.9 3.4 5.9h6.8zm0-15.5l3.4-5.9-3.4-5.9h-6.8l-3.4 5.9 3.4 5.9h6.8zm0-15.5l3.4-5.9-3.4-5.901h-6.8l-3.4 5.901 3.4 5.9h6.8zm-26.44 31l3.4-5.9-3.4-5.9h-6.8l-3.4 5.9 3.4 5.9h6.8zm0-15.5l3.4-5.9-3.4-5.9h-6.8l-3.4 5.9 3.4 5.9h6.8zm0-15.5l3.4-5.9-3.4-5.901h-6.8l-3.4 5.901 3.4 5.9h6.8zm-26.42 31l3.4-5.9-3.4-5.9h-6.8l-3.4 5.9 3.4 5.9h6.8zm0-15.5l3.4-5.9-3.4-5.9h-6.8l-3.4 5.9 3.4 5.9h6.8zm0-15.5l3.4-5.9-3.4-5.901h-6.8l-3.4 5.901 3.4 5.9h6.8zm-26.43 31l3.4-5.9-3.4-5.9h-6.8l-3.4 5.9 3.4 5.9h6.8zm0-15.5l3.4-5.9-3.4-5.9h-6.8l-3.4 5.9 3.4 5.9h6.8zm0-15.5l3.4-5.9-3.4-5.901h-6.8l-3.4 5.901 3.4 5.9h6.8zm-26.45 31l3.4-5.9-3.4-5.9h-6.8l-3.4 5.9 3.4 5.9h6.8zm0-15.5l3.4-5.9-3.4-5.9h-6.8l-3.4 5.9 3.4 5.9h6.8zm0-15.5l3.4-5.9-3.4-5.901h-6.8l-3.4 5.901 3.4 5.9h6.8zm-26.42 31l3.4-5.9-3.4-5.9h-6.8l-3.4 5.9 3.4 5.9h6.8zm0-15.5l3.4-5.9-3.4-5.9h-6.8l-3.4 5.9 3.4 5.9h6.8zm0-15.5l3.4-5.9-3.4-5.901h-6.8l-3.4 5.901 3.4 5.9h6.8zm-26.43 31l3.4-5.9-3.4-5.9h-6.8l-3.4 5.9 3.4 5.9h6.8zm0-15.5l3.4-5.9-3.4-5.9h-6.8l-3.4 5.9 3.4 5.9h6.8zm0-15.5l3.4-5.9-3.4-5.901h-6.8l-3.4 5.901 3.4 5.9h6.8zm-26.45 31l3.4-5.9-3.4-5.9h-6.8l-3.4 5.9 3.4 5.9h6.8zm0-15.5l3.4-5.9-3.4-5.9h-6.8l-3.4 5.9 3.4 5.9h6.8zm0-15.5l3.4-5.9-3.4-5.901h-6.8l-3.4 5.901 3.4 5.9h6.8zm-26.42 31l3.4-5.9-3.4-5.9h-6.8l-3.4 5.9 3.4 5.9h6.8zm0-15.5l3.4-5.9-3.4-5.9h-6.8l-3.4 5.9 3.4 5.9h6.8zm0-15.5l3.4-5.9-3.4-5.901h-6.8l-3.4 5.901 3.4 5.9h6.8zm-26.43 31l3.4-5.9-3.4-5.9h-6.8l-3.4 5.9 3.4 5.9h6.8zm0-15.5l3.4-5.9-3.4-5.9h-6.8l-3.4 5.9 3.4 5.9h6.8zm0-15.5l3.4-5.9-3.4-5.901h-6.8l-3.4 5.901 3.4 5.9h6.8zm-26.45 31l3.4-5.9-3.4-5.9h-6.8l-3.4 5.9 3.4 5.9h6.8zm0-15.5l3.4-5.9-3.4-5.9h-6.8l-3.4 5.9 3.4 5.9h6.8zm0-15.5l3.4-5.9-3.4-5.901h-6.8l-3.4 5.901 3.4 5.9h6.8zm-26.42 31l3.4-5.9-3.4-5.9h-6.8l-3.4 5.9 3.4 5.9h6.8zm0-15.5l3.4-5.9-3.4-5.9h-6.8l-3.4 5.9 3.4 5.9h6.8zm0-15.5l3.4-5.9-3.4-5.901h-6.8l-3.4 5.901 3.4 5.9h6.8zm-26.43 31l3.4-5.9-3.4-5.9h-6.8l-3.4 5.9 3.4 5.9h6.8zm0-15.5l3.4-5.9-3.4-5.9h-6.8l-3.4 5.9 3.4 5.9h6.8zm0-15.5l3.4-5.9-3.4-5.901h-6.8l-3.4 5.901 3.4 5.9h6.8zm-26.45 31l3.4-5.9-3.4-5.9h-6.8l-3.4 5.9 3.4 5.9h6.8zm0-15.5l3.4-5.9-3.4-5.9h-6.8l-3.4 5.9 3.4 5.9h6.8zm0-15.5l3.4-5.9-3.4-5.901h-6.8l-3.4 5.901 3.4 5.9h6.8zm-26.42 31l3.4-5.9-3.4-5.9h-6.8l-3.4 5.9 3.4 5.9h6.8zm0-15.5l3.4-5.9-3.4-5.9h-6.8l-3.4 5.9 3.4 5.9h6.8zm0-15.5l3.4-5.9-3.4-5.901h-6.8l-3.4 5.901 3.4 5.9h6.8zm-26.43 31l3.4-5.9-3.4-5.9h-6.8l-3.4 5.9 3.4 5.9h6.8zm0-15.5l3.4-5.9-3.4-5.9h-6.8l-3.4 5.9 3.4 5.9h6.8zm0-15.5l3.4-5.9-3.4-5.901h-6.8l-3.4 5.901 3.4 5.9h6.8zm-26.45 31l3.4-5.9-3.4-5.9h-6.8l-3.4 5.9 3.4 5.9h6.8zm0-15.5l3.4-5.9-3.4-5.9h-6.8l-3.4 5.9 3.4 5.9h6.8zm0-15.5l3.4-5.9-3.4-5.901h-6.8l-3.4 5.901 3.4 5.9h6.8zm-26.42 31l3.4-5.9-3.4-5.9h-6.8l-3.4 5.9 3.4 5.9h6.8zm0-15.5l3.4-5.9-3.4-5.9h-6.8l-3.4 5.9 3.4 5.9h6.8zm0-15.5l3.4-5.9-3.4-5.901h-6.8l-3.4 5.901 3.4 5.9h6.8z"/><use xlink:href="#V"/><path d="M135.006 36.168v7.396h-1.982v-7.396h1.982zm-2.099-1.914q0-.444.297-.731.297-.287.81-.287.506 0 .807.287.301.287.301.731 0 .451-.304.738-.304.287-.803.287-.499 0-.803-.287-.304-.287-.304-.738z"/><use xlink:href="#W"/><path d="M146.908 42.108q.547 0 .889-.301.342-.301.355-.8h1.853q-.007.752-.41 1.377-.403.625-1.104.971-.701.345-1.548.345-1.586 0-2.502-1.008-.916-1.008-.916-2.786v-.13q0-1.709.909-2.728.909-1.019 2.495-1.019 1.388 0 2.225.79.837.79.851 2.102h-1.853q-.014-.574-.355-.933-.342-.359-.902-.359-.69 0-1.042.502-.352.502-.352 1.63v.205q0 1.142.349 1.641.349.499 1.06.499zm3.916-2.222v-.089q0-1.101.424-1.962.424-.861 1.22-1.333.796-.472 1.849-.472 1.497 0 2.444.916.947.916 1.056 2.488l.014.506q0 1.702-.95 2.731-.95 1.029-2.55 1.029-1.6 0-2.553-1.025-.954-1.025-.954-2.789zm1.976.055q0 1.053.396 1.61.396.557 1.135.557.718 0 1.121-.55.403-.55.403-1.76 0-1.032-.403-1.6-.403-.567-1.135-.567-.725 0-1.121.564-.396.564-.396 1.747z"/><use xlink:href="#X"/><path d="M175.824 43.701q-1.627 0-2.649-.998-1.022-.998-1.022-2.659v-.191q0-1.114.431-1.993.431-.878 1.22-1.354.79-.475 1.801-.475 1.518 0 2.389.957.872.957.872 2.714v.807h-4.71q.096.725.578 1.162.482.438 1.22.438 1.142 0 1.784-.827l.971 1.087q-.444.629-1.203.981-.759.352-1.682.352zm-.226-6.07q-.588 0-.954.396-.366.396-.468 1.135h2.748v-.157q-.014-.656-.355-1.015-.342-.359-.971-.359zm5.988-1.463l1.217 2.208 1.244-2.208h2.112l-2.105 3.623 2.194 3.773h-2.119l-1.319-2.324-1.312 2.324h-2.126l2.194-3.773-2.099-3.623h2.119zm10.008 7.396l-.055-.752q-.731.889-2.023.889-1.189 0-1.815-.684-.625-.684-.639-2.003v-4.847h1.976v4.778q0 1.155 1.053 1.155 1.005 0 1.381-.697v-5.236h1.982v7.396h-1.859z"/><use xlink:href="#W" x="58.311"/><path d="M210.167 39.585q-.772.759-1.805.759-1.319 0-2.112-.906-.793-.906-.793-2.444 0-.978.427-1.794.427-.817 1.193-1.271.766-.455 1.723-.455.984 0 1.75.492.766.492 1.189 1.415.424.923.431 2.112v.731q0 2.488-1.237 3.91-1.237 1.422-3.507 1.518l-.485.007v-1.647l.438-.007q2.577-.116 2.789-2.42zm-1.319-.752q.479 0 .824-.246.345-.246.523-.595v-.813q0-1.005-.383-1.559-.383-.554-1.025-.554-.595 0-.978.543-.383.543-.383 1.364 0 .813.373 1.336.373.523 1.049.523zm6.596.226l-1.572-.39.574-5.059h5.578v1.647h-3.958l-.246 2.14q.704-.376 1.497-.376 1.422 0 2.229.882.807.882.807 2.468 0 .964-.407 1.726-.407.762-1.166 1.183-.759.42-1.791.42-.902 0-1.675-.366-.772-.366-1.22-1.029-.448-.663-.475-1.511h1.955q.062.622.434.967.373.345.974.345.67 0 1.032-.482.362-.482.362-1.364 0-.848-.417-1.299-.417-.451-1.183-.451-.704 0-1.142.369l-.191.178zm10.965-5.462v9.967h-1.976v-7.615l-2.358.731v-1.606l4.122-1.477h.212zm8.265-.089h.328v1.627h-.191q-1.34.021-2.157.697-.817.677-.981 1.88.793-.807 2.003-.807 1.299 0 2.064.93.766.93.766 2.447 0 .971-.42 1.757-.42.786-1.189 1.224-.769.438-1.74.438-1.572 0-2.54-1.094-.967-1.094-.967-2.919v-.711q0-1.62.612-2.861.612-1.241 1.757-1.921 1.145-.68 2.656-.687zm-1.6 4.983q-.479 0-.868.25-.39.25-.574.66v.602q0 .991.39 1.548.39.557 1.094.557.636 0 1.029-.502.393-.502.393-1.302 0-.813-.396-1.312-.396-.499-1.066-.499z"/><use xlink:href="#Y"/><use xlink:href="#V" x="604.443" y="10.001"/><use xlink:href="#X" x="574.83" y="10.001"/><use xlink:href="#Z"/><use xlink:href="#a"/><use xlink:href="#b"/><use xlink:href="#c"/><path d="M853.7 53.564l-.69-2.051h-3.596l-.684 2.051h-2.181l3.705-9.953h1.9l3.726 9.953H853.7zm-2.495-7.437l-1.237 3.726h2.488l-1.251-3.726z"/><use xlink:href="#Y" x="137.411" y="-0.001"/><use xlink:href="#b" x="162.179"/><use xlink:href="#Z" x="189.03"/><use xlink:href="#a" x="189.03"/><path d="M902.564 43.612v9.953h-2.051v-9.953h2.051zm10.076 4.758v.444q0 1.47-.52 2.577-.52 1.107-1.487 1.709-.967.602-2.218.602-1.237 0-2.208-.595-.971-.595-1.504-1.699-.533-1.104-.54-2.54v-.492q0-1.47.53-2.587.53-1.118 1.497-1.716.967-.598 2.211-.598 1.244 0 2.211.598.967.598 1.497 1.716.53 1.118.53 2.581zm-2.078.479v-.485q0-1.565-.561-2.379-.561-.813-1.6-.813-1.032 0-1.593.803-.561.803-.567 2.355v.485q0 1.524.561 2.365.561.841 1.613.841 1.032 0 1.586-.81.554-.81.561-2.362z"/><use xlink:href="#d"/><use xlink:href="#c" x="177.025"/><path d="M1030.725 53.564l-.69-2.051h-3.596l-.684 2.051h-2.181l3.705-9.953h1.9l3.726 9.953h-2.181zm-2.495-7.437l-1.237 3.726h2.488l-1.251-3.726z"/><use xlink:href="#X" x="871.171" y="10"/><use xlink:href="#b" x="254.995"/><path d="M1067.928 43.612l1.634 7.082 1.34-7.082h2.044l-2.208 9.953h-2.064l-1.62-6.658-1.62 6.658h-2.064l-2.208-9.953h2.044l1.347 7.068 1.641-7.068h1.736zm11.675 9.953l-1.866-3.644h-1.634v3.644h-2.051v-9.953h3.698q1.764 0 2.721.786.957.786.957 2.222 0 1.019-.441 1.699-.441.68-1.336 1.083l2.153 4.067v.096h-2.201zm-3.5-8.292v2.987h1.654q.772 0 1.196-.393.424-.393.424-1.083 0-.704-.4-1.107-.4-.403-1.227-.403h-1.647z"/><use xlink:href="#d" x="172.343"/><path d="M1106.612 48.335v3.972q-.554.663-1.565 1.029-1.012.366-2.242.366-1.292 0-2.266-.564-.974-.564-1.504-1.637-.53-1.073-.543-2.522v-.677q0-1.49.502-2.581.502-1.09 1.449-1.668.947-.578 2.218-.578 1.771 0 2.769.844.998.844 1.183 2.458h-1.996q-.137-.854-.605-1.251-.468-.396-1.289-.396-1.046 0-1.593.786-.547.786-.554 2.338v.636q0 1.565.595 2.365.595.8 1.743.8 1.155 0 1.647-.492v-1.716h-1.866v-1.511h3.917z"/><use xlink:href="#d" x="194.143"/><path d="M1127.83 43.612v1.661h-3.049v8.292h-2.051v-8.292h-3.008v-1.661h8.107z"/></g></symbol></svg>