<svg xmlns="http://www.w3.org/2000/svg" xmlns:xlink="http://www.w3.org/1999/xlink" viewBox="0 0 1826 338" fill="#fff" fill-rule="evenodd" stroke="#000" stroke-linecap="round" stroke-linejoin="round"><style><![CDATA[.B{stroke-width:.32}.C{stroke:none}.D{stroke:#5f5f5f}.E{fill:#856427}.F{fill:#333}.G{stroke:#bfbfbf}.H{stroke-linejoin:miter}.I{fill:#000}.J{fill:none}.K{stroke:gray}.L{stroke-width:.96}.M{stroke-linecap:square}.N{fill:url(#I)}.O{fill:url(#J)}.P{stroke-width:2.88}.Q{fill:url(#E)}.R{stroke:#7f7f7f}.S{fill:#d9d9d9}.T{fill:url(#B)}.U{stroke-width:.667}.V{fill-opacity:0}.W{stroke:#404040}.X{fill:url(#O)}.Y{stroke-width:1.6}.Z{stroke-width:.333}.a{stroke-dasharray:0.64, 0.32px}]]></style><use xlink:href="#n" x=".5" y=".5"/><defs><linearGradient id="A" x1="50%" y1="100%" x2="50%" y2="0%"><stop offset="0%" stop-color="#bfbfbf"/><stop offset="100%" stop-color="#f2f2f2"/></linearGradient><radialGradient id="B" r="100%" fx="50%" fy="50%" cx="50%" cy="50%"><stop offset="0%" stop-color="#bfbfbf"/><stop offset="70.7%" stop-color="#404040"/></radialGradient><linearGradient id="C" x1="0%" y1="50%" x2="100%" y2="50%"><stop offset="0%" stop-color="#fff"/><stop offset="50%" stop-color="#9a9a9a"/><stop offset="100%" stop-color="#fff"/></linearGradient><radialGradient id="D" r="100%" fx="50%" fy="50%" cx="50%" cy="50%"><stop offset="0%" stop-color="#1e1e1e"/><stop offset="70.7%" stop-color="#7f7f7f"/></radialGradient><linearGradient id="E" x1="0%" y1="50%" x2="100%" y2="50%"><stop offset="0%" stop-color="#d8d8d8"/><stop offset="50%" stop-color="#fff"/><stop offset="100%" stop-color="#d8d8d8"/></linearGradient><linearGradient id="F" x1="50%" y1="0%" x2="50%" y2="100%"><stop offset="0%" stop-color="#a6a6a6"/><stop offset="50%" stop-color="#f2f2f2"/><stop offset="100%" stop-color="#a6a6a6"/></linearGradient><linearGradient id="G" x1="0%" y1="50%" x2="100%" y2="50%"><stop offset="0%" stop-color="#bfbfbf"/><stop offset="50%" stop-color="#d9d9d9"/><stop offset="100%" stop-color="#bfbfbf"/></linearGradient><linearGradient id="H" x1="0%" y1="50%" x2="100%" y2="50%"><stop offset="0%" stop-color="#bfbfbf"/><stop offset="50%" stop-color="#f2f2f2"/><stop offset="100%" stop-color="#bfbfbf"/></linearGradient><linearGradient id="I" x1="0%" y1="50%" x2="100%" y2="50%"><stop offset="0%" stop-color="#b2b2b2"/><stop offset="50%" stop-color="#fff"/><stop offset="100%" stop-color="#b2b2b2"/></linearGradient><radialGradient id="J" r="100%" fx="50%" fy="50%" cx="50%" cy="50%"><stop offset="0%" stop-color="#fff"/><stop offset="70.7%" stop-color="#b2b2b2"/></radialGradient><linearGradient id="K" x1="0%" y1="50%" x2="100%" y2="50%"><stop offset="0%" stop-color="#d8d8d8"/><stop offset="50%" stop-color="#f2f2f2"/><stop offset="100%" stop-color="#d8d8d8"/></linearGradient><radialGradient id="L" r="100%" fx="50%" fy="50%" cx="50%" cy="50%"><stop offset="0%" stop-color="#e2e2e2"/><stop offset="70.7%" stop-color="#d8d8d8"/></radialGradient><radialGradient id="M" r="100%" fx="50%" fy="50%" cx="50%" cy="50%"><stop offset="0%" stop-color="#bdbdbd"/><stop offset="100%" stop-color="#a5a5a5"/></radialGradient><radialGradient id="N" r="100%" fx="50%" fy="50%" cx="50%" cy="50%"><stop offset="0%" stop-color="#9d9d9d"/><stop offset="100%" stop-color="#7f7f7f"/></radialGradient><linearGradient id="O" x1="0%" y1="50%" x2="100%" y2="50%"><stop offset="0%" stop-color="gray"/><stop offset="50%" stop-color="#a6a6a6"/><stop offset="100%" stop-color="gray"/></linearGradient><path id="P" d="M187.76 241.31h-39.52c-1.2 0-1.8 1.2-1.8 1.8v1.8h-1.8v14.97h1.8v1.2c0 1.2.6 2.4 1.8 2.4h39.52c1.2 0 1.8-1.2 1.8-2.4v-1.2h1.8v-14.97h-1.8v-1.8c0-.6-.6-1.8-1.8-1.8z"/><path id="Q" d="M153.04 253.28h2.4v-1.2h-2.4v1.2zm8.98 0h2.4v-1.2h-2.4v1.2zm9.58 0h2.4v-1.2h-2.4v1.2zm8.98 0h2.4v-1.2h-2.4v1.2z"/><path id="R" d="M1084.7 296.19v-6.64h8.7v-27.96h-48v27.96h8.96v6.64h5.06v6.18h20.23v-6.18h5.06zm0-81.19v6.64h8.7v27.95h-48v-27.94h8.96v-6.64h5.06v-6.18h20.23v6.18h5.06z"/><path id="S" d="M1083.09 243.55h2.8v5.634h-2.8zm-4.4 0h2.8v5.634h-2.8zm-4.4 0h2.8v5.634h-2.8zm-4.4 0h2.8v5.634h-2.8zm-8.8 0h2.8v5.634h-2.8zm4.4 0h2.8v5.634h-2.8zm-8.8 0h2.8v5.634h-2.8zm-4.41 0h2.8v5.634h-2.8zm30.81 18.46h2.8v5.634h-2.8zm-4.4 0h2.8v5.634h-2.8zm-4.4 0h2.8v5.634h-2.8zm-4.4 0h2.8v5.634h-2.8zm-8.8 0h2.8v5.634h-2.8zm4.4 0h2.8v5.634h-2.8zm-8.8 0h2.8v5.634h-2.8zm-4.41 0h2.8v5.634h-2.8z"/><path id="T" d="M1034.68 212.89h6.38l-3.18 5.96-3.2-5.95zm-41.6 5.96h6.37l-3.18-5.95-3.2 5.95zm93.94-5.96h6.37l-3.18 5.95-3.2-5.95zm-41.64 5.96h6.38l-3.2-5.95-3.2 5.95zm93.96-5.96h6.38l-3.2 5.95-3.2-5.95zm-41.62 5.96h6.37l-3.2-5.95-3.18 5.95zm93.94-5.96h6.38l-3.2 5.95-3.2-5.95zm-41.62 5.96h6.37l-3.18-5.95-3.2 5.95zm-324.68-5.96h6.37l-3.2 5.95-3.18-5.95zm-41.63 5.96h6.38l-3.2-5.95-3.2 5.95zm93.95-5.96h6.37l-3.17 5.96-3.2-5.95zm-41.63 5.96h6.38l-3.2-5.95-3.2 5.95zm93.95-5.96h6.38l-3.2 5.95-3.2-5.95zm-41.62 5.96h6.37l-3.18-5.95-3.2 5.95zm93.95-5.96h6.37l-3.2 5.95-3.18-5.95zm-41.63 5.96h6.38l-3.2-5.95-3.2 5.95z"/><path id="U" d="M1233.74 209.69v6.12l5.3 3.06 5.3-3.06v-6.12l-5.3-3.06-5.3 3.06zm0 15.82v6.1l5.3 3.06 5.3-3.06v-6.1l-5.3-3.06-5.3 3.06zm0 15.8v6.12l5.3 3.06 5.3-3.06v-6.12l-5.3-3.05-5.3 3.05zm0 15.82v6.12l5.3 3.05 5.3-3.05v-6.12l-5.3-3.06-5.3 3.06zm0 15.82v6.1l5.3 3.06 5.3-3.06v-6.1l-5.3-3.06-5.3 3.06zm0 15.8v6.12l5.3 3.06 5.3-3.06v-6.12l-5.3-3.06-5.3 3.06zm-14.1-79.06v6.12l5.3 3.06 5.3-3.06v-6.12l-5.3-3.06-5.3 3.06zm0 15.82v6.1l5.3 3.06 5.3-3.06v-6.1l-5.3-3.06-5.3 3.06zm0 15.8v6.12l5.3 3.06 5.3-3.06v-6.12l-5.3-3.05-5.3 3.05zm0 15.82v6.12l5.3 3.05 5.3-3.05v-6.12l-5.3-3.06-5.3 3.06zm0 15.82v6.1l5.3 3.06 5.3-3.06v-6.1l-5.3-3.06-5.3 3.06zm0 15.8v6.12l5.3 3.06 5.3-3.06v-6.12l-5.3-3.06-5.3 3.06z"/><path id="V" d="M343.18 194.618h-6.4l3.2 5.95zm-16.18 5.83h6.4l-3.2-5.95z"/><path id="W" d="M103.248 30.302h2.051q-.116 1.606-1.186 2.529-1.07.923-2.82.923-1.914 0-3.011-1.289-1.097-1.289-1.097-3.538v-.608q0-1.436.506-2.529.506-1.094 1.446-1.678.94-.584 2.184-.584 1.723 0 2.775.923 1.053.923 1.217 2.591h-2.051q-.075-.964-.537-1.398-.461-.434-1.405-.434-1.025 0-1.535.735-.509.735-.523 2.28v.752q0 1.613.489 2.358.489.745 1.542.745.95 0 1.418-.434.468-.434.537-1.343z"/><path id="X" d="M115.888 31.007q0-.581-.41-.892-.41-.311-1.477-.656-1.066-.345-1.688-.68-1.695-.916-1.695-2.468 0-.807.455-1.439.455-.632 1.306-.988.851-.355 1.911-.355 1.066 0 1.9.386.834.386 1.295 1.09.461.704.461 1.6h-2.051q0-.684-.431-1.063-.431-.379-1.21-.379-.752 0-1.169.318-.417.318-.417.837 0 .485.489.813.489.328 1.439.615 1.75.526 2.55 1.306.8.779.8 1.941 0 1.292-.978 2.027-.978.735-2.632.735-1.148 0-2.092-.42-.943-.42-1.439-1.152-.496-.731-.496-1.695h2.058q0 1.647 1.969 1.647.731 0 1.142-.297.41-.297.41-.831z"/><path id="Y" d="M161.101 23.665l1.866 3.432 1.866-3.432h2.358l-2.898 4.936 2.974 5.018h-2.386l-1.914-3.486-1.914 3.486h-2.386l2.974-5.018-2.898-4.936h2.358z"/><path id="Z" d="M194.016 29.639q-.772.759-1.805.759-1.319 0-2.112-.906-.793-.906-.793-2.444 0-.978.427-1.794.427-.817 1.193-1.271.766-.455 1.723-.455.984 0 1.75.492.766.492 1.189 1.415.424.923.431 2.112v.731q0 2.488-1.237 3.91-1.237 1.422-3.507 1.518l-.485.007v-1.647l.438-.007q2.577-.116 2.789-2.42zm-1.319-.752q.479 0 .824-.246.345-.246.523-.595v-.813q0-1.005-.383-1.559-.383-.554-1.025-.554-.595 0-.978.543-.383.543-.383 1.364 0 .813.373 1.336.373.523 1.049.523z"/><path id="a" d="M102.64 254.93h1.465q-.083 1.147-.847 1.807-.764.659-2.014.659-1.367 0-2.151-.92-.784-.92-.784-2.527v-.435q0-1.025.361-1.807.361-.781 1.033-1.199.671-.417 1.56-.417 1.23 0 1.982.659.752.659.869 1.851h-1.465q-.054-.688-.383-.999-.33-.31-1.003-.31-.732 0-1.096.525-.364.525-.374 1.628v.537q0 1.152.349 1.685.349.532 1.101.532.679 0 1.013-.31.334-.31.383-.959z"/><path id="b" d="M96.619 272.933q0-.415-.293-.637-.293-.222-1.055-.469-.762-.247-1.206-.486-1.211-.654-1.211-1.763 0-.576.325-1.028.325-.452.933-.706.608-.254 1.365-.254.762 0 1.357.276.596.276.925.779.33.503.33 1.143h-1.465q0-.488-.308-.759-.308-.271-.864-.271-.537 0-.835.227-.298.227-.298.598 0 .347.349.581.349.234 1.028.439 1.25.376 1.821.933.571.557.571 1.387 0 .923-.698 1.448-.698.525-1.88.525-.82 0-1.494-.3-.674-.3-1.028-.823-.354-.522-.354-1.211h1.47q0 1.177 1.406 1.177.522 0 .815-.212.293-.212.293-.593z"/><path id="c" d="M104.432 267.689v1.187h-2.178v5.923h-1.465v-5.923h-2.148v-1.187h5.791z"/><path id="d" d="M211.543 249.679v7.119h-1.411v-5.439l-1.685.522v-1.147l2.944-1.055h.151z"/><path id="e" d="M212.988 292.66v1.138h-4.873v-.967l2.3-2.451q.474-.518.701-.903.227-.386.227-.732 0-.474-.239-.745-.239-.271-.684-.271-.479 0-.754.33-.276.33-.276.867h-1.416q0-.649.31-1.187.31-.537.876-.842.566-.305 1.284-.305 1.099 0 1.707.527.608.527.608 1.489 0 .527-.273 1.074-.273.547-.937 1.274l-1.616 1.704h3.057z"/><path id="f" d="M373.431 197.972v-1.104h.752q.537 0 .796-.269.259-.269.259-.713 0-.43-.256-.669-.256-.239-.706-.239-.405 0-.679.222-.273.222-.273.579h-1.411q0-.557.3-.999.3-.442.84-.691.54-.249 1.189-.249 1.128 0 1.768.54.64.54.64 1.487 0 .488-.298.898-.298.41-.781.63.601.215.896.645.295.43.295 1.016 0 .947-.691 1.519-.691.571-1.829.571-1.064 0-1.741-.562-.676-.562-.676-1.484h1.411q0 .4.3.654.3.254.74.254.503 0 .789-.266.286-.266.286-.706 0-1.064-1.172-1.064h-.747z"/><path id="g" d="M402.159 193.939v4.434h.806v1.138h-.806v1.538h-1.411v-1.538h-2.915l-.063-.889 2.964-4.683h1.426zm-1.504 2.085l-1.479 2.349h1.572v-2.51l-.093.161z"/><path id="h" d="M425.579 197.831l-1.123-.278.41-3.613h3.984v1.177h-2.827l-.176 1.528q.503-.269 1.069-.269 1.016 0 1.592.63.576.63.576 1.763 0 .688-.291 1.233-.291.544-.833.845-.542.3-1.279.3-.645 0-1.196-.261-.552-.261-.872-.735-.32-.474-.339-1.079h1.396q.044.444.31.691.266.247.696.247.479 0 .737-.344.259-.344.259-.974 0-.605-.298-.928-.298-.322-.845-.322-.503 0-.815.264l-.137.127z"/><path id="i" d="M453.827 193.865h.234v1.162h-.137q-.957.015-1.541.498-.583.483-.701 1.343.566-.576 1.431-.576.928 0 1.475.664.547.664.547 1.748 0 .693-.3 1.255-.3.562-.85.874-.549.313-1.243.313-1.123 0-1.814-.781-.691-.781-.691-2.085v-.508q0-1.157.437-2.043.437-.886 1.255-1.372.818-.486 1.897-.491zm-1.143 3.56q-.342 0-.62.178-.278.178-.41.471v.43q0 .708.278 1.106.278.398.781.398.454 0 .735-.359.281-.359.281-.93 0-.581-.283-.937-.283-.356-.762-.356z"/><path id="j" d="M481.331 193.939v.791l-2.749 6.318h-1.489l2.754-5.967h-3.535v-1.143h5.02z"/><path id="k" d="M507.117 195.828q0 .518-.259.918-.259.4-.713.64.518.249.82.686.303.437.303 1.028 0 .947-.645 1.497-.645.549-1.753.549-1.108 0-1.758-.552-.649-.552-.649-1.494 0-.591.303-1.03.303-.439.815-.684-.454-.239-.71-.64-.256-.4-.256-.918 0-.908.605-1.448.605-.54 1.646-.54 1.035 0 1.643.535.608.535.608 1.453zm-1.265 3.169q0-.464-.269-.742-.269-.278-.723-.278-.449 0-.718.276-.269.276-.269.745 0 .454.264.732.264.278.732.278.459 0 .72-.269.261-.269.261-.742zm-.146-3.101q0-.415-.22-.667-.22-.251-.62-.251-.396 0-.615.244-.22.244-.22.674 0 .425.22.684.22.259.62.259.4 0 .618-.259.217-.259.217-.684z"/><path id="l" d="M532.047 198.206q-.552.542-1.289.542-.942 0-1.509-.647-.566-.647-.566-1.746 0-.698.305-1.282.305-.583.852-.908.547-.325 1.23-.325.703 0 1.25.352.547.352.85 1.011.303.659.308 1.509v.522q0 1.777-.884 2.793-.884 1.016-2.505 1.084l-.347.005v-1.177l.313-.005q1.841-.083 1.992-1.729zm-.942-.537q.342 0 .588-.176.247-.176.374-.425v-.581q0-.718-.273-1.113-.273-.396-.732-.396-.425 0-.698.388-.273.388-.273.974 0 .581.266.955.266.374.75.374z"/><path id="m" d="M565.256 196.8v1.309q0 1.475-.61 2.256-.61.781-1.787.781-1.162 0-1.777-.767-.615-.767-.63-2.197v-1.309q0-1.489.618-2.261.618-.771 1.78-.771 1.162 0 1.777.764.615.764.63 2.195zm-1.411 1.563v-1.689q0-.884-.242-1.287-.242-.403-.754-.403-.498 0-.735.383-.237.383-.251 1.199v1.729q0 .869.237 1.292.237.422.759.422.518 0 .747-.405.229-.405.239-1.24z"/></defs><symbol id="n" overflow="visible"><path d="M1789.04 322.52h-7.1c-5.3.02-9.5-4.2-9.5-9.4s4.2-9.44 9.4-9.46h18.1c5.3-.02 9.5 4.2 9.5 9.4s-4.2 9.44-9.4 9.46h-11zm0-59.85h-7.1c-5.3.02-9.5-4.2-9.5-9.4s4.2-9.44 9.4-9.46h18.1c5.3-.02 9.5 4.2 9.5 9.4s-4.2 9.44-9.4 9.46h-11zm0-60.04h-7.1c-5.3.02-9.5-4.2-9.5-9.4s4.2-9.44 9.4-9.46h18.1c5.3-.02 9.5 4.2 9.5 9.4s-4.2 9.44-9.4 9.46h-11zm0-47.88h-7.1c-5.3.02-9.5-4.2-9.5-9.4s4.2-9.44 9.4-9.46h18.1c5.3-.02 9.5 4.2 9.5 9.4s-4.2 9.44-9.4 9.46h-11zm0-59.845h-7.1c-5.3.018-9.5-4.188-9.5-9.393s4.2-9.44 9.4-9.457h18.1c5.3-.018 9.5 4.188 9.5 9.393s-4.2 9.44-9.4 9.457h-11zm0-59.847h-7.1c-5.3.018-9.5-4.187-9.5-9.393s4.2-9.44 9.4-9.457h18.1c5.3-.017 9.5 4.188 9.5 9.393s-4.2 9.44-9.4 9.457h-11zM31.348 322.52h-7.1a9.45 9.45 0 0 1-9.487-9.4c-.018-5.2 4.2-9.44 9.422-9.46h18.143a9.45 9.45 0 0 1 9.487 9.4c.018 5.2-4.2 9.44-9.422 9.46H31.348zm0-59.85h-7.1a9.45 9.45 0 0 1-9.487-9.4c-.018-5.2 4.2-9.44 9.422-9.46h18.143a9.45 9.45 0 0 1 9.487 9.4c.018 5.2-4.2 9.44-9.422 9.46H31.348zm0-60.04h-7.1a9.45 9.45 0 0 1-9.487-9.4c-.018-5.2 4.2-9.44 9.422-9.46h18.143a9.45 9.45 0 0 1 9.487 9.4c.018 5.2-4.2 9.44-9.422 9.46H31.348zm0-47.88h-7.1a9.45 9.45 0 0 1-9.487-9.4c-.018-5.2 4.2-9.44 9.422-9.46h18.143a9.45 9.45 0 0 1 9.487 9.4c.018 5.2-4.2 9.44-9.422 9.46H31.348zm0-59.845h-7.1c-5.222.018-9.47-4.188-9.487-9.393s4.2-9.44 9.422-9.457h18.143c5.222-.018 9.47 4.188 9.487 9.393s-4.2 9.44-9.422 9.457H31.348zm0-59.847h-7.1c-5.222.018-9.47-4.187-9.487-9.393s4.2-9.44 9.422-9.457h18.143c5.222-.017 9.47 4.188 9.487 9.393s-4.2 9.44-9.422 9.457H31.348zM19.213 336.01H1804.74c10.7 0 19.3-8.58 19.3-19.15V19.16c0-10.578-8.6-19.152-19.3-19.152h0H19.213C8.602.01 0 8.583 0 19.16h0v297.7c0 10.57 8.602 19.15 19.213 19.15z" stroke="#8c8c8c" class="B H S"/><path d="M671.24 77.634a6.75 6.75 0 1 0-13.5 0 6.75 6.75 0 1 0 13.5 0zm1053 0c0-3.728-3-6.75-6.7-6.75-3.8 0-6.8 3.022-6.8 6.75s3 6.75 6.8 6.75c3.7 0 6.7-3.022 6.7-6.75zM682.5 9.384H1701v161.25H682.5z" class="C I"/><path d="M77.57 15.384H682.5V0H77.57v15.384z" fill="url(#A)" class="B K"/><path d="M126.1 271.24c0-3.36-2.73-6.1-6.1-6.1s-6.1 2.74-6.1 6.1a6.1 6.1 0 1 0 12.2 0z" class="H I L"/><path d="M125.09 271.24a5.09 5.09 0 1 0-10.18 0 5.11 5.11 0 0 0 5.1 5.1c2.82 0 5.1-2.28 5.1-5.1z" class="B K T"/><path d="M126.1 253.98a6.1 6.1 0 1 0-12.2 0 6.1 6.1 0 1 0 12.2 0z" class="H I L"/><path d="M125.09 253.98c0-2.8-2.28-5.08-5.1-5.08s-5.1 2.27-5.1 5.08 2.28 5.1 5.1 5.1 5.1-2.28 5.1-5.1z" class="B K T"/><path d="M126.1 288.52c0-3.36-2.73-6.1-6.1-6.1a6.1 6.1 0 0 0 0 12.2 6.1 6.1 0 0 0 6.1-6.1z" class="H I L"/><g class="K"><path d="M125.09 288.52a5.09 5.09 0 1 0-10.18 0 5.11 5.11 0 0 0 5.1 5.1c2.82 0 5.1-2.28 5.1-5.1z" class="B T"/><g class="L"><path d="M219.9 303.38H288v-54.37h-68.1v54.37z" class="I"/><path d="M283.7 300.56h-59.5a1.13 1.13 0 0 1-1.14-1.13v-46.47a1.13 1.13 0 0 1 1.14-1.13h59.5a1.13 1.13 0 0 1 1.13 1.13v46.47a1.13 1.13 0 0 1-1.13 1.13z" fill="url(#C)"/></g></g><g class="C"><path d="M263.31 253.39v2.58c0 .5.42.92.94.92h2c.5 0 .93.4.93.92v4.7c0 .5.42.92.93.92h9.73c.5 0 .93.4.93.92v27c0 .5-.42.92-.93.92h-47.6a.94.94 0 0 1-.93-.92v-27c0-.5.42-.92.93-.92h9.97c.5 0 .93-.4.93-.92v-4.7c0-.5.42-.92.93-.92h1.76c.52 0 .94-.4.94-.92v-2.58h18.54z" fill="#262626"/><path d="M266.12 286.52h2.417v4.378h-2.417zm-3.78 0h2.417v4.378h-2.417zm-7.6 0h2.417v4.378h-2.417zm3.8 0h2.417v4.378h-2.417zm-7.6 0h2.417v4.378h-2.417zm-3.8 0h2.417v4.378h-2.417zm-3.8 0h2.417v4.378h-2.417zm-3.8 0h2.417v4.378h-2.417z" class="E"/></g><g stroke="#737373" fill="url(#D)" class="B"><path d="M240.94 263.52h-13.8v-7.1h13.82v7.1z"/><path d="M281.04 263.58h-13.82v-7.1h13.82v7.1z"/></g><path d="M580.92 107.84v6.12l5.3 3.06 5.3-3.06v-6.12l-5.3-3.05-5.3 3.05zm-14.23 0v6.12l5.3 3.06 5.3-3.06v-6.12l-5.3-3.05-5.3 3.05zm-14.23 0v6.12l5.3 3.06 5.3-3.06v-6.12l-5.3-3.05-5.3 3.05zm-14.24 0v6.12l5.3 3.06 5.3-3.06v-6.12l-5.3-3.05-5.3 3.05zm-14.23 0v6.12l5.3 3.06 5.3-3.06v-6.12l-5.3-3.05-5.3 3.05zm-14.23 0v6.12l5.3 3.06 5.3-3.06v-6.12l-5.3-3.05-5.3 3.05zm-14.23 0v6.12l5.3 3.06 5.3-3.06v-6.12l-5.3-3.05-5.3 3.05zm-14.24 0v6.12l5.3 3.06 5.3-3.06v-6.12l-5.3-3.05-5.3 3.05zm-14.23 0v6.12l5.3 3.06 5.3-3.06v-6.12l-5.3-3.05-5.3 3.05zm-14.23 0v6.12l5.3 3.06 5.3-3.06v-6.12l-5.3-3.05-5.3 3.05zm-14.24 0v6.12l5.3 3.06 5.3-3.06v-6.12l-5.3-3.05-5.3 3.05zm-14.23 0v6.12l5.3 3.06 5.3-3.06v-6.12l-5.3-3.05-5.3 3.05zm-14.23 0v6.12l5.3 3.06 5.3-3.06v-6.12l-5.3-3.05-5.3 3.05zm-14.23 0v6.12l5.3 3.06 5.3-3.06v-6.12l-5.3-3.05-5.3 3.05zm-14.24 0v6.12l5.3 3.06 5.3-3.06v-6.12l-5.3-3.05-5.3 3.05zm-14.23 0v6.12l5.3 3.06 5.3-3.06v-6.12l-5.3-3.05-5.3 3.05zm-14.23 0v6.12l5.3 3.06 5.3-3.06v-6.12l-5.3-3.05-5.3 3.05zm-14.23 0v6.12l5.3 3.06 5.3-3.06v-6.12l-5.3-3.05-5.3 3.05zm-14.24 0v6.12l5.3 3.06 5.3-3.06v-6.12l-5.3-3.05-5.3 3.05zm-14.23 0v6.12l5.3 3.06 5.3-3.06v-6.12l-5.3-3.05-5.3 3.05zm270.42-24.98v6.116l5.3 3.058 5.3-3.058V82.85l-5.3-3.058-5.3 3.058zm-14.23 0v6.116l5.3 3.058 5.3-3.058V82.85l-5.3-3.058-5.3 3.058zm-14.23 0v6.116l5.3 3.058 5.3-3.058V82.85l-5.3-3.058-5.3 3.058zm-14.24 0v6.116l5.3 3.058 5.3-3.058V82.85l-5.3-3.058-5.3 3.058zm-14.23 0v6.116l5.3 3.058 5.3-3.058V82.85l-5.3-3.058-5.3 3.058zm-14.23 0v6.116l5.3 3.058 5.3-3.058V82.85l-5.3-3.058-5.3 3.058zm-14.23 0v6.116l5.3 3.058 5.3-3.058V82.85l-5.3-3.058-5.3 3.058zm-14.24 0v6.116l5.3 3.058 5.3-3.058V82.85l-5.3-3.058-5.3 3.058zm-14.23 0v6.116l5.3 3.058 5.3-3.058V82.85l-5.3-3.058-5.3 3.058zm-14.23 0v6.116l5.3 3.058 5.3-3.058V82.85l-5.3-3.058-5.3 3.058zm-14.24 0v6.116l5.3 3.058 5.3-3.058V82.85l-5.3-3.058-5.3 3.058zm-14.23 0v6.116l5.3 3.058 5.3-3.058V82.85l-5.3-3.058-5.3 3.058zm-14.23 0v6.116l5.3 3.058 5.3-3.058V82.85l-5.3-3.058-5.3 3.058zm-14.23 0v6.116l5.3 3.058 5.3-3.058V82.85l-5.3-3.058-5.3 3.058zm-14.24 0v6.116l5.3 3.058 5.3-3.058V82.85l-5.3-3.058-5.3 3.058zm-14.23 0v6.116l5.3 3.058 5.3-3.058V82.85l-5.3-3.058-5.3 3.058zm-14.23 0v6.116l5.3 3.058 5.3-3.058V82.85l-5.3-3.058-5.3 3.058zm-14.23 0v6.116l5.3 3.058 5.3-3.058V82.85l-5.3-3.058-5.3 3.058zm-14.24 0v6.116l5.3 3.058 5.3-3.058V82.85l-5.3-3.058-5.3 3.058zm-14.23 0v6.116l5.3 3.058 5.3-3.058V82.85l-5.3-3.058-5.3 3.058zm263.58 37.48v6.1l5.3 3.06 5.3-3.06v-6.1l-5.3-3.06-5.3 3.06zm-14.23 0v6.1l5.3 3.06 5.3-3.06v-6.1l-5.3-3.06-5.3 3.06zm-14.24 0v6.1l5.3 3.06 5.3-3.06v-6.1l-5.3-3.06-5.3 3.06zm-14.23 0v6.1l5.3 3.06 5.3-3.06v-6.1l-5.3-3.06-5.3 3.06zm-14.23 0v6.1l5.3 3.06 5.3-3.06v-6.1l-5.3-3.06-5.3 3.06zm-14.24 0v6.1l5.3 3.06 5.3-3.06v-6.1l-5.3-3.06-5.3 3.06zm-14.23 0v6.1l5.3 3.06 5.3-3.06v-6.1l-5.3-3.06-5.3 3.06zm-14.23 0v6.1l5.3 3.06 5.3-3.06v-6.1l-5.3-3.06-5.3 3.06zm-14.23 0v6.1l5.3 3.06 5.3-3.06v-6.1l-5.3-3.06-5.3 3.06zm-14.24 0v6.1l5.3 3.06 5.3-3.06v-6.1l-5.3-3.06-5.3 3.06zm-14.23 0v6.1l5.3 3.06 5.3-3.06v-6.1l-5.3-3.06-5.3 3.06zm-14.23 0v6.1l5.3 3.06 5.3-3.06v-6.1l-5.3-3.06-5.3 3.06zm-14.23 0v6.1l5.3 3.06 5.3-3.06v-6.1l-5.3-3.06-5.3 3.06zm-14.24 0v6.1l5.3 3.06 5.3-3.06v-6.1l-5.3-3.06-5.3 3.06zm-14.23 0v6.1l5.3 3.06 5.3-3.06v-6.1l-5.3-3.06-5.3 3.06zm-14.23 0v6.1l5.3 3.06 5.3-3.06v-6.1l-5.3-3.06-5.3 3.06zm-14.25 0v6.1l5.3 3.06 5.3-3.06v-6.1l-5.3-3.06-5.3 3.06zm-14.23 0v6.1l5.3 3.06 5.3-3.06v-6.1l-5.3-3.06-5.3 3.06zm-14.23 0v6.1l5.3 3.06 5.3-3.06v-6.1l-5.3-3.06-5.3 3.06zm-14.23 0v6.1l5.3 3.06 5.3-3.06v-6.1l-5.3-3.06-5.3 3.06zm270.43-25v6.12l5.3 3.06 5.3-3.06v-6.12l-5.3-3.058-5.3 3.058zm-14.23 0v6.12l5.3 3.06 5.3-3.06v-6.12l-5.3-3.058-5.31 3.058zm-14.24 0v6.12l5.3 3.06 5.3-3.06v-6.12l-5.3-3.058-5.3 3.058zm-14.23 0v6.12l5.3 3.06 5.3-3.06v-6.12l-5.3-3.058-5.3 3.058zm-14.23 0v6.12l5.3 3.06 5.3-3.06v-6.12l-5.3-3.058-5.31 3.058zm-14.24 0v6.12l5.3 3.06 5.3-3.06v-6.12l-5.3-3.058-5.3 3.058zm-14.23 0v6.12l5.3 3.06 5.3-3.06v-6.12l-5.3-3.058-5.3 3.058zm-14.23 0v6.12l5.3 3.06 5.3-3.06v-6.12l-5.3-3.058-5.31 3.058zm-14.23 0v6.12l5.3 3.06 5.3-3.06v-6.12l-5.3-3.058-5.3 3.058zm-14.24 0v6.12l5.3 3.06 5.3-3.06v-6.12l-5.3-3.058-5.3 3.058zm-14.23 0v6.12l5.3 3.06 5.3-3.06v-6.12l-5.3-3.058-5.31 3.058zm-14.23 0v6.12l5.3 3.06 5.3-3.06v-6.12l-5.3-3.058-5.3 3.058zm-14.23 0v6.12l5.3 3.06 5.3-3.06v-6.12l-5.3-3.058-5.3 3.058zm-14.24 0v6.12l5.3 3.06 5.3-3.06v-6.12l-5.3-3.058-5.31 3.058zm-14.23 0v6.12l5.3 3.06 5.3-3.06v-6.12l-5.3-3.058-5.3 3.058zm-14.23 0v6.12l5.3 3.06 5.3-3.06v-6.12l-5.3-3.058-5.3 3.058zm-14.25 0v6.12l5.3 3.06 5.3-3.06v-6.12l-5.3-3.058-5.3 3.058zm-14.23 0v6.12l5.3 3.06 5.3-3.06v-6.12l-5.3-3.058-5.3 3.058zm-14.23 0v6.12l5.3 3.06 5.3-3.06v-6.12l-5.3-3.058-5.3 3.058zm-14.23 0v6.12l5.3 3.06 5.3-3.06v-6.12l-5.3-3.058-5.3 3.058zm270.42-24.984v6.116l5.3 3.058 5.3-3.058v-6.116l-5.3-3.058-5.3 3.058zm-14.23 0v6.116l5.3 3.058 5.3-3.058v-6.116l-5.3-3.058-5.3 3.058zm-14.24 0v6.116l5.3 3.058 5.3-3.058v-6.116l-5.3-3.058-5.3 3.058zm-14.23 0v6.116l5.3 3.058 5.3-3.058v-6.116l-5.3-3.058-5.3 3.058zm-14.23 0v6.116l5.3 3.058 5.3-3.058v-6.116l-5.3-3.058-5.3 3.058zm-14.24 0v6.116l5.3 3.058 5.3-3.058v-6.116l-5.3-3.058-5.3 3.058zm-14.23 0v6.116l5.3 3.058 5.3-3.058v-6.116l-5.3-3.058-5.3 3.058zm-14.23 0v6.116l5.3 3.058 5.3-3.058v-6.116l-5.3-3.058-5.3 3.058zm-14.23 0v6.116l5.3 3.058 5.3-3.058v-6.116l-5.3-3.058-5.3 3.058zm-14.24 0v6.116l5.3 3.058 5.3-3.058v-6.116l-5.3-3.058-5.3 3.058zm-14.23 0v6.116l5.3 3.058 5.3-3.058v-6.116l-5.3-3.058-5.3 3.058zm-14.23 0v6.116l5.3 3.058 5.3-3.058v-6.116l-5.3-3.058-5.3 3.058zm-14.23 0v6.116l5.3 3.058 5.3-3.058v-6.116l-5.3-3.058-5.3 3.058zm-14.24 0v6.116l5.3 3.058 5.3-3.058v-6.116l-5.3-3.056-5.3 3.058zm-14.23 0v6.116l5.3 3.058 5.3-3.058v-6.116l-5.3-3.058-5.3 3.058zm-14.23 0v6.116l5.3 3.058 5.3-3.058v-6.116l-5.3-3.058-5.3 3.058zm-14.24 0v6.116l5.3 3.058 5.3-3.058v-6.116l-5.3-3.058-5.3 3.058zm-14.23 0v6.116l5.3 3.058 5.3-3.058v-6.116l-5.3-3.058-5.3 3.058zm-14.23 0v6.116l5.3 3.058 5.3-3.058v-6.116l-5.3-3.058-5.3 3.058zm-14.23 0v6.116l5.3 3.058 5.3-3.058v-6.116l-5.3-3.058-5.3 3.058zm277.26-12.492v6.116l5.3 3.058 5.3-3.058v-6.116l-5.3-3.058-5.3 3.058zm-14.23 0v6.116l5.3 3.058 5.3-3.058v-6.116l-5.3-3.058-5.3 3.058zm-14.23 0v6.116l5.3 3.058 5.3-3.058v-6.116l-5.3-3.058-5.3 3.058zm-14.24 0v6.116l5.3 3.058 5.3-3.058v-6.116l-5.3-3.058-5.3 3.058zm-14.23 0v6.116l5.3 3.058 5.3-3.058v-6.116l-5.3-3.058-5.3 3.058zm-14.23 0v6.116l5.3 3.058 5.3-3.058v-6.116l-5.3-3.058-5.3 3.058zm-14.23 0v6.116l5.3 3.058 5.3-3.058v-6.116l-5.3-3.058-5.3 3.058zm-14.24 0v6.116l5.3 3.058 5.3-3.058v-6.116l-5.3-3.058-5.3 3.058zm-14.23 0v6.116l5.3 3.058 5.3-3.058v-6.116l-5.3-3.058-5.3 3.058zm-14.23 0v6.116l5.3 3.058 5.3-3.058v-6.116l-5.3-3.058-5.3 3.058zm-14.24 0v6.116l5.3 3.058 5.3-3.058v-6.116l-5.3-3.058-5.3 3.058zm-14.23 0v6.116l5.3 3.058 5.3-3.058v-6.116l-5.3-3.058-5.3 3.058zm-14.23 0v6.116l5.3 3.058 5.3-3.058v-6.116l-5.3-3.058-5.3 3.058zm-14.23 0v6.116l5.3 3.058 5.3-3.058v-6.116l-5.3-3.058-5.3 3.058zm-14.24 0v6.116l5.3 3.058 5.3-3.058v-6.116l-5.3-3.058-5.3 3.058zm-14.23 0v6.116l5.3 3.058 5.3-3.058v-6.116l-5.3-3.058-5.3 3.058zm-14.23 0v6.116l5.3 3.058 5.3-3.058v-6.116l-5.3-3.058-5.3 3.058zm-14.23 0v6.116l5.3 3.058 5.3-3.058v-6.116l-5.3-3.058-5.3 3.058zm-14.24 0v6.116l5.3 3.058 5.3-3.058v-6.116l-5.3-3.058-5.3 3.058zm-14.23 0v6.116l5.3 3.058 5.3-3.058v-6.116l-5.3-3.058-5.3 3.058zm263.58-12.493v6.116l5.3 3.058 5.3-3.058v-6.116l-5.3-3.058-5.3 3.058zm-14.23 0v6.116l5.3 3.058 5.3-3.058v-6.116l-5.3-3.058-5.3 3.058zm-14.24 0v6.116l5.3 3.058 5.3-3.058v-6.116l-5.3-3.058-5.3 3.058zm-14.23 0v6.116l5.3 3.058 5.3-3.058v-6.116l-5.3-3.058-5.3 3.058zm-14.23 0v6.116l5.3 3.058 5.3-3.058v-6.116l-5.3-3.058-5.3 3.058zm-14.24 0v6.116l5.3 3.058 5.3-3.058v-6.116l-5.3-3.058-5.3 3.058zm-14.23 0v6.116l5.3 3.058 5.3-3.058v-6.116l-5.3-3.058-5.3 3.058zm-14.23 0v6.116l5.3 3.058 5.3-3.058v-6.116l-5.3-3.058-5.3 3.058zm-14.23 0v6.116l5.3 3.058 5.3-3.058v-6.116l-5.3-3.058-5.3 3.058zm-14.24 0v6.116l5.3 3.058 5.3-3.058v-6.116l-5.3-3.058-5.3 3.058zm-14.23 0v6.116l5.3 3.058 5.3-3.058v-6.116l-5.3-3.058-5.3 3.058zm-14.23 0v6.116l5.3 3.058 5.3-3.058v-6.116l-5.3-3.058-5.3 3.058zm-14.23 0v6.116l5.3 3.058 5.3-3.058v-6.116l-5.3-3.058-5.3 3.058zm-14.24 0v6.116l5.3 3.058 5.3-3.058v-6.116l-5.3-3.058-5.3 3.058zm-14.23 0v6.116l5.3 3.058 5.3-3.058v-6.116l-5.3-3.058-5.3 3.058zm-14.23 0v6.116l5.3 3.058 5.3-3.058v-6.116l-5.3-3.058-5.3 3.058zm-14.24 0v6.116l5.3 3.058 5.3-3.058v-6.116l-5.3-3.058-5.3 3.058zm-14.23 0v6.116l5.3 3.058 5.3-3.058v-6.116l-5.3-3.058-5.3 3.058zm-14.23 0v6.116l5.3 3.058 5.3-3.058v-6.116l-5.3-3.058-5.3 3.058zm-14.23 0v6.116l5.3 3.058 5.3-3.058v-6.116l-5.3-3.058-5.3 3.058z" class="C I"/><path d="M210.3 280.57v-17.25" stroke-width=".675" class="J"/><path d="M210.3 278.64c-1.04 0-1.86.88-1.86 1.92s.82 1.9 1.86 1.9a1.94 1.94 0 0 0 1.92-1.91 1.95 1.95 0 0 0-1.92-1.92zm-3.32-6.94c-.64 0-1.14-.53-1.14-1.17 0-.63.5-1.14 1.14-1.14.64-.03 1.17.5 1.17 1.14a1.18 1.18 0 0 1-1.17 1.17zm3.3-9.46l-1.87 2.92h3.5l-1.63-2.92zm2.09 4.07h2.3v2.3h-2.3z" class="C I"/><path d="M210.31 274.01l2.67-2.8a1.92 1.92 0 0 0 .53-1.32v-1.26m-3.27 8.08l-2.67-2.8c-.34-.36-.53-.83-.53-1.33v-1.25" class="J U"/><path d="M198.37 306.38h-60.73a1.13 1.13 0 0 1-1.13-1.13h0V188.27a1.13 1.13 0 0 1 1.13-1.14h60.74a1.13 1.13 0 0 1 1.13 1.14v116.97a1.13 1.13 0 0 1-1.13 1.13z" class="C I"/><path d="M195.11 304.14h-54.22a1.13 1.13 0 0 1-1.13-1.13h0v-112.2a1.13 1.13 0 0 1 1.13-1.13h54.22a1.13 1.13 0 0 1 1.13 1.13v112.2a1.13 1.13 0 0 1-1.13 1.13z" fill="url(#C)" class="K L"/><g class="H"><path d="M183.59 195.14v4.23h6.43v29.6h-43.45l-.33-29.6h7.05v-4.23h4.93v-4.23h20.44v4.23h4.93z" stroke="#666" fill="#0a0a0a" class="B"/><path d="M145.24 264.66h44.9c1.2 0 2.4-1.2 2.4-2.4v-19.75c0-1.2-1.2-2.4-2.4-2.4h-44.9c-1.2 0-1.8 1.2-1.8 2.4v19.75c0 1.2.6 2.4 1.8 2.4z" class="K Q U"/></g><use xlink:href="#P" class="J R Z"/><g class="C"><path d="M163.21 244.3h-15.57c-.6 0-1.2 0-1.2.6v14.97s.6.6 1.2.6h40.72c.6 0 1.2-.6 1.2-.6V244.9c0-.6-.6-.6-1.2-.6h-25.15z" fill="#131313"/><use xlink:href="#Q" fill="#e6a835"/></g><path d="M149.44 251.49h37.12v-4.8h-37.12v4.8z" fill="#666" class="R"/><path d="M145.24 302.16h44.9c1.2 0 2.4-1.2 2.4-2.4v-19.75c0-1.2-1.2-2.4-2.4-2.4h-44.9c-1.2 0-1.8 1.2-1.8 2.4v19.75c0 1.2.6 2.4 1.8 2.4z" class="H K Q U"/><use xlink:href="#P" y="37.5" class="J R Z"/><g class="C"><path d="M163.21 281.8h-15.57c-.6 0-1.2 0-1.2.6v14.97s.6.6 1.2.6h40.72c.6 0 1.2-.6 1.2-.6V282.4c0-.6-.6-.6-1.2-.6h-25.15z" fill="#131313"/><use xlink:href="#Q" y="37.5" fill="#e6a835"/></g><path d="M149.44 288.99h37.12v-4.8h-37.12v4.8z" fill="#666" class="R"/><path d="M144.51 237.38h48v-5.76h-48z" fill="url(#F)" class="C"/><g class="B"><g class="K"><path d="M144 277.88h47.25v-13.5H144v13.5z" fill="url(#G)"/><g fill="url(#A)"><path d="M687 10.134h1008.04V0H687v10.134z"/><path d="M1695.04 4.884V0h6v4.884"/><path d="M682.5 4.884V0h4.5v4.884"/></g><path d="M1695.04 10.134v-5.25h6v5.25m-1018.54 0v-5.25h4.5v5.25" class="I"/><path d="M90 325.88V14.634H77.57V325.88H90zm0 0H77.57v10.13h1669.47v-10.13L1746.74 0h-46l.3 17.634h26.2c4.6-.252 8.8 2.944 9.8 7.538h0V325.88H90z" fill="url(#H)"/></g><g class="D"><path d="M13.12 26.25c7.25 0 13.12-5.88 13.12-13.13C26.24 5.88 20.37 0 13.12 0S0 5.88 0 13.12c0 7.25 5.87 13.13 13.12 13.13z" transform="translate(744.38 305.63)" class="N"/><path d="M767.48 315.89a10.38 10.38 0 0 0-17.447-4.353 10.38 10.38 0 0 0-2.513 10.073c1.58 5.5 7.33 8.7 12.84 7.12s8.7-7.33 7.12-12.84z" class="O"/></g></g><g class="H J M P"><path d="M762.04 317.46l-9.06 2.6" class="D"/><path d="M758.8 323.28l-2.6-9.05" class="D"/></g><g class="B"><path d="M13.12 26.25c7.25 0 13.12-5.88 13.12-13.13C26.24 5.88 20.37 0 13.12 0S0 5.88 0 13.12c0 7.25 5.87 13.13 13.12 13.13z" transform="translate(1218.84 305.63)" class="D N"/><path d="M1241.94 315.89a10.38 10.38 0 0 0-17.447-4.353 10.38 10.38 0 0 0-2.513 10.073c1.58 5.5 7.33 8.7 12.84 7.12s8.7-7.33 7.12-12.84z" class="D O"/></g><g class="H J M P"><path d="M1236.5 317.46l-9.06 2.6" class="D"/><path d="M1233.26 323.28l-2.6-9.05" class="D"/></g><g class="B"><path d="M13.12 26.25c7.25 0 13.12-5.88 13.12-13.13C26.24 5.88 20.37 0 13.12 0S0 5.88 0 13.12c0 7.25 5.87 13.13 13.12 13.13z" transform="translate(1218.84 178.51)" class="D N"/><path d="M1241.94 188.77a10.38 10.38 0 0 0-17.447-4.353 10.38 10.38 0 0 0-2.513 10.073c1.58 5.5 7.33 8.7 12.84 7.12s8.7-7.33 7.12-12.84z" class="D O"/></g><g class="H J M P"><path d="M1236.5 190.34l-9.06 2.6" class="D"/><path d="M1233.26 196.16l-2.6-9.05" class="D"/></g><g class="B"><path d="M13.12 26.25c7.25 0 13.12-5.88 13.12-13.13C26.24 5.88 20.37 0 13.12 0S0 5.88 0 13.12c0 7.25 5.87 13.13 13.12 13.13z" transform="translate(1696.84 305.63)" class="D N"/><path d="M1719.94 315.89a10.38 10.38 0 0 0-17.447-4.353 10.38 10.38 0 0 0-2.513 10.073c1.58 5.5 7.33 8.7 12.84 7.12s8.7-7.33 7.12-12.84z" class="D O"/></g><g class="H J M P"><path d="M1714.5 317.46l-9.06 2.6" class="D"/><path d="M1711.26 323.28l-2.6-9.05" class="D"/></g><g class="B"><path d="M13.12 26.25c7.25 0 13.12-5.88 13.12-13.13C26.24 5.88 20.37 0 13.12 0S0 5.88 0 13.12c0 7.25 5.87 13.13 13.12 13.13z" transform="translate(1696.84 178.51)" class="D N"/><path d="M1719.94 188.77a10.38 10.38 0 0 0-17.447-4.353 10.38 10.38 0 0 0-2.513 10.073c1.58 5.5 7.33 8.7 12.84 7.12s8.7-7.33 7.12-12.84z" class="D O"/></g><g class="H J M P"><path d="M1714.5 190.34l-9.06 2.6" class="D"/><path d="M1711.26 196.16l-2.6-9.05" class="D"/></g><g class="B"><path d="M251.84 227.64c7.25 0 13.13-5.87 13.13-13.12s-5.88-13.13-13.13-13.13-13.12 5.88-13.12 13.13 5.87 13.12 13.12 13.12z" class="D N"/><path d="M261.81 211.64c-1.58-5.5-7.33-8.7-12.84-7.12s-8.691 7.331-7.11 12.84a10.37 10.37 0 0 0 12.83 7.11c5.5-1.58 8.7-7.32 7.12-12.83z" class="D O"/></g><g class="H J M P"><path d="M256.36 213.21l-9.06 2.6" class="D"/><path d="M253.14 219.04l-2.6-9.06" class="D"/></g><g class="C"><g class="I"><path d="M1665.44 314.69v6.12l5.2 3.06 5.3-3.06v-6.12l-5.3-3.06-5.2 3.06zm-14.2 0v6.12l5.3 3.06 5.3-3.06v-6.12l-5.3-3.06-5.3 3.06zm-14.2 0v6.12l5.3 3.06 5.3-3.06v-6.12l-5.3-3.06-5.3 3.06zm-14.1 0v6.12l5.3 3.06 5.3-3.06v-6.12l-5.3-3.06-5.3 3.06zm-14.2 0v6.12l5.3 3.06 5.3-3.06v-6.12l-5.3-3.06-5.3 3.06zm-14.1 0v6.12l5.3 3.06 5.3-3.06v-6.12l-5.3-3.06-5.3 3.06zm-14.2 0v6.12l5.3 3.06 5.3-3.06v-6.12l-5.3-3.06-5.3 3.06zm-14.1 0v6.12l5.3 3.06 5.3-3.06v-6.12l-5.3-3.06-5.3 3.06zm-14.2 0v6.12l5.3 3.06 5.3-3.06v-6.12l-5.3-3.06-5.3 3.06zm-14.1 0v6.12l5.3 3.06 5.3-3.06v-6.12l-5.3-3.06-5.3 3.06zm-14.2 0v6.12l5.3 3.06 5.3-3.06v-6.12l-5.3-3.06-5.3 3.06zm-14.1 0v6.12l5.3 3.06 5.3-3.06v-6.12l-5.3-3.06-5.3 3.06zm-14.2 0v6.12l5.3 3.06 5.3-3.06v-6.12l-5.3-3.06-5.3 3.06zm-14.1 0v6.12l5.3 3.06 5.3-3.06v-6.12l-5.3-3.06-5.3 3.06zm-14.2 0v6.12l5.3 3.06 5.3-3.06v-6.12l-5.3-3.06-5.3 3.06zm-14.1 0v6.12l5.3 3.06 5.3-3.06v-6.12l-5.3-3.06-5.3 3.06zm226.4 0v6.12l5.3 3.06 5.3-3.06v-6.12l-5.3-3.06-5.3 3.06zm-240.6 0v6.12l5.3 3.06 5.3-3.06v-6.12l-5.3-3.06-5.3 3.06zm-14.1 0v6.12l5.3 3.06 5.3-3.06v-6.12l-5.3-3.06-5.3 3.06zm-14.2 0v6.12l5.3 3.06 5.3-3.06v-6.12l-5.3-3.06-5.3 3.06zm-14.1 0v6.12l5.3 3.06 5.3-3.06v-6.12l-5.3-3.06-5.3 3.06zm-14.2 0v6.12l5.3 3.06 5.3-3.06v-6.12l-5.3-3.06-5.3 3.06zm-14.1 0v6.12l5.3 3.06 5.2-3.06v-6.12l-5.2-3.06-5.3 3.06zm-14.2 0v6.12l5.3 3.06 5.3-3.06v-6.12l-5.3-3.06-5.3 3.06zm-14.1 0v6.12l5.2 3.06 5.3-3.06v-6.12l-5.3-3.06-5.2 3.06zm-14.2 0v6.12l5.3 3.06 5.3-3.06v-6.12l-5.3-3.06-5.3 3.06zm-14.2 0v6.12l5.3 3.06 5.3-3.06v-6.12l-5.3-3.06-5.3 3.06zm-14.1 0v6.12l5.3 3.06 5.3-3.06v-6.12l-5.3-3.06-5.3 3.06zm-14.2 0v6.12l5.3 3.06 5.3-3.06v-6.12l-5.3-3.06-5.3 3.06zm-14.1 0v6.12l5.3 3.06 5.3-3.06v-6.12l-5.3-3.06-5.3 3.06zm-14.2 0v6.12l5.3 3.06 5.3-3.06v-6.12l-5.3-3.06-5.3 3.06zm-56.6 0v6.12l5.3 3.06 5.3-3.06v-6.12l-5.3-3.06-5.3 3.06zm-14.1 0v6.12l5.3 3.06 5.3-3.06v-6.12l-5.3-3.06-5.3 3.06zm-14.2 0v6.12l5.3 3.06 5.3-3.06v-6.12l-5.3-3.06-5.3 3.06zm-14.1 0v6.12l5.3 3.06 5.3-3.06v-6.12l-5.3-3.06-5.3 3.06zm-14.2 0v6.12l5.3 3.06 5.3-3.06v-6.12l-5.3-3.06-5.3 3.06zm-14.1 0v6.12l5.3 3.06 5.3-3.06v-6.12l-5.3-3.06-5.3 3.06zm-14.2 0v6.12l5.3 3.06 5.3-3.06v-6.12l-5.3-3.06-5.3 3.06zm-14.1 0v6.12l5.3 3.06 5.3-3.06v-6.12l-5.3-3.06-5.3 3.06zm-14.2 0v6.12l5.3 3.06 5.3-3.06v-6.12l-5.3-3.06-5.3 3.06zm-14.1 0v6.12l5.3 3.06 5.3-3.06v-6.12l-5.3-3.06-5.3 3.06zm-14.2 0v6.12l5.3 3.06 5.3-3.06v-6.12l-5.3-3.06-5.3 3.06zm-14.1 0v6.12l5.3 3.06 5.2-3.06v-6.12l-5.2-3.06-5.3 3.06zm-14.2 0v6.12l5.3 3.06 5.3-3.06v-6.12l-5.3-3.06-5.3 3.06zm-14.1 0v6.12l5.2 3.06 5.3-3.06v-6.12l-5.3-3.06-5.2 3.06zm-14.2 0v6.12l5.3 3.06 5.3-3.06v-6.12l-5.3-3.06-5.3 3.06zm-14.15 0v6.12l5.3 3.06 5.3-3.06v-6.12l-5.3-3.06-5.3 3.06zm-14.16 0v6.12l5.3 3.06 5.3-3.06v-6.12l-5.3-3.06-5.3 3.06zm-14.15 0v6.12l5.3 3.06 5.3-3.06v-6.12l-5.3-3.06-5.3 3.06zm-14.15 0v6.12l5.3 3.06 5.3-3.06v-6.12l-5.3-3.06-5.3 3.06zm-14.15 0v6.12l5.3 3.06 5.3-3.06v-6.12l-5.3-3.06-5.3 3.06zm-14.15 0v6.12l5.3 3.06 5.3-3.06v-6.12l-5.3-3.06-5.3 3.06zm-14.16 0v6.12l5.3 3.06 5.3-3.06v-6.12l-5.3-3.06-5.3 3.06zm-14.15 0v6.12l5.3 3.06 5.3-3.06v-6.12l-5.3-3.06-5.3 3.06zm-14.15 0v6.12l5.3 3.06 5.3-3.06v-6.12l-5.3-3.06-5.3 3.06zm-14.15 0v6.12l5.3 3.06 5.3-3.06v-6.12l-5.3-3.06-5.3 3.06zm-14.15 0v6.12l5.3 3.06 5.3-3.06v-6.12l-5.3-3.06-5.3 3.06zm-14.16 0v6.12l5.3 3.06 5.3-3.06v-6.12l-5.3-3.06-5.3 3.06zm-14.15 0v6.12l5.3 3.06 5.3-3.06v-6.12l-5.3-3.06-5.3 3.06zm-14.15 0v6.12l5.3 3.06 5.3-3.06v-6.12l-5.3-3.06-5.3 3.06zm-14.15 0v6.12l5.3 3.06 5.3-3.06v-6.12l-5.3-3.06-5.3 3.06zm-14.16 0v6.12l5.3 3.06 5.3-3.06v-6.12l-5.3-3.06-5.3 3.06zm-42.45 0v6.12l5.3 3.06 5.3-3.06v-6.12l-5.3-3.06-5.3 3.06zm-14.15 0v6.12l5.3 3.06 5.3-3.06v-6.12l-5.3-3.06-5.3 3.06zm-14.16 0v6.12l5.3 3.06 5.3-3.06v-6.12l-5.3-3.06-5.3 3.06zm-14.15 0v6.12l5.3 3.06 5.3-3.06v-6.12l-5.3-3.06-5.3 3.06zm-14.15 0v6.12l5.3 3.06 5.3-3.06v-6.12l-5.3-3.06-5.3 3.06zm-14.15 0v6.12l5.3 3.06 5.3-3.06v-6.12l-5.3-3.06-5.3 3.06zm-14.16 0v6.12l5.3 3.06 5.3-3.06v-6.12l-5.3-3.06-5.3 3.06zm-14.15 0v6.12l5.3 3.06 5.3-3.06v-6.12l-5.3-3.06-5.3 3.06zm-14.15 0v6.12l5.3 3.06 5.3-3.06v-6.12l-5.3-3.06-5.3 3.06zm-14.15 0v6.12l5.3 3.06 5.3-3.06v-6.12l-5.3-3.06-5.3 3.06zm-14.15 0v6.12l5.3 3.06 5.3-3.06v-6.12l-5.3-3.06-5.3 3.06zm-14.16 0v6.12l5.3 3.06 5.3-3.06v-6.12l-5.3-3.06-5.3 3.06zm-14.15 0v6.12l5.3 3.06 5.3-3.06v-6.12l-5.3-3.06-5.3 3.06zm-14.15 0v6.12l5.3 3.06 5.3-3.06v-6.12l-5.3-3.06-5.3 3.06zm-14.15 0v6.12l5.3 3.06 5.3-3.06v-6.12l-5.3-3.06-5.3 3.06zm-14.15 0v6.12l5.3 3.06 5.3-3.06v-6.12l-5.3-3.06-5.3 3.06zm-14.16 0v6.12l5.3 3.06 5.3-3.06v-6.12l-5.3-3.06-5.3 3.06zm-14.15 0v6.12l5.3 3.06 5.3-3.06v-6.12l-5.3-3.06-5.3 3.06zm-14.15 0v6.12l5.3 3.06 5.3-3.06v-6.12l-5.3-3.06-5.3 3.06zm-14.15 0v6.12l5.3 3.06 5.3-3.06v-6.12l-5.3-3.06-5.3 3.06zm-14.16 0v6.12l5.3 3.06 5.3-3.06v-6.12l-5.3-3.06-5.3 3.06zm-14.15 0v6.12l5.3 3.06 5.3-3.06v-6.12l-5.3-3.06-5.3 3.06zm-14.15 0v6.12l5.3 3.06 5.3-3.06v-6.12l-5.3-3.06-5.3 3.06zm-14.15 0v6.12l5.3 3.06 5.3-3.06v-6.12l-5.3-3.06-5.3 3.06zm-14.15 0v6.12l5.3 3.06 5.3-3.06v-6.12l-5.3-3.06-5.3 3.06zm-14.16 0v6.12l5.3 3.06 5.3-3.06v-6.12l-5.3-3.06-5.3 3.06zm-14.15 0v6.12l5.3 3.06 5.3-3.06v-6.12l-5.3-3.06-5.3 3.06zm-14.15 0v6.12l5.3 3.06 5.3-3.06v-6.12l-5.3-3.06-5.3 3.06zm-14.15 0v6.12l5.3 3.06 5.3-3.06v-6.12l-5.3-3.06-5.3 3.06zm-14.16 0v6.12l5.3 3.06 5.3-3.06v-6.12l-5.3-3.06-5.3 3.06zm-14.15 0v6.12l5.3 3.06 5.3-3.06v-6.12l-5.3-3.06-5.3 3.06zm-14.15 0v6.12l5.3 3.06 5.3-3.06v-6.12l-5.3-3.06-5.3 3.06zm-14.15 0v6.12l5.3 3.06 5.3-3.06v-6.12l-5.3-3.06-5.3 3.06zm-14.15 0v6.12l5.3 3.06 5.3-3.06v-6.12l-5.3-3.06-5.3 3.06zm-14.16 0v6.12l5.3 3.06 5.3-3.06v-6.12l-5.3-3.06-5.3 3.06zm-14.15 0v6.12l5.3 3.06 5.3-3.06v-6.12l-5.3-3.06-5.3 3.06zm-14.15 0v6.12l5.3 3.06 5.3-3.06v-6.12l-5.3-3.06-5.3 3.06zm-14.15 0v6.12l5.3 3.06 5.3-3.06v-6.12l-5.3-3.06-5.3 3.06zm-14.15 0v6.12l5.3 3.06 5.3-3.06v-6.12l-5.3-3.06-5.3 3.06zm-14.16 0v6.12l5.3 3.06 5.3-3.06v-6.12l-5.3-3.06-5.3 3.06zm-14.15 0v6.12l5.3 3.06 5.3-3.06v-6.12l-5.3-3.06-5.3 3.06zm-14.15 0v6.12l5.3 3.06 5.3-3.06v-6.12l-5.3-3.06-5.3 3.06zm-14.15 0v6.12l5.3 3.06 5.3-3.06v-6.12l-5.3-3.06-5.3 3.06zm-14.16 0v6.12l5.3 3.06 5.3-3.06v-6.12l-5.3-3.06-5.3 3.06zm-14.15 0v6.12l5.3 3.06 5.3-3.06v-6.12l-5.3-3.06-5.3 3.06zm14.15-132.91v6.12l5.3 3.05 5.3-3.05v-6.12l-5.3-3.06-5.3 3.06zm0 16.26v6.12l5.3 3.06 5.3-3.06v-6.12l-5.3-3.05-5.3 3.05zm0 16.27v6.12l5.3 3.05 5.3-3.05v-6.12l-5.3-3.06-5.3 3.06zm-14.15-32.53v6.12l5.3 3.05 5.3-3.05v-6.12l-5.3-3.06-5.3 3.06zm0 16.26v6.12l5.3 3.06 5.3-3.06v-6.12l-5.3-3.05-5.3 3.05zm0 16.27v6.12l5.3 3.05 5.3-3.05v-6.12l-5.3-3.06-5.3 3.06zm14.15 16.27v6.1l5.3 3.06 5.3-3.06v-6.1l-5.3-3.06-5.3 3.06zm-14.15 0v6.1l5.3 3.06 5.3-3.06v-6.1l-5.3-3.06-5.3 3.06zm107.44-20.24v6.1l5.3 3.06 5.3-3.06v-6.1l-5.3-3.06-5.3 3.06zm7.4 12.5v6.1l5.3 3.06 5.3-3.06v-6.1l-5.3-3.06-5.3 3.06zm-14.23 0v6.1l5.3 3.06 5.3-3.06v-6.1l-5.3-3.06-5.3 3.06zm14.23-25v6.12l5.3 3.06 5.3-3.06v-6.12l-5.3-3.05-5.3 3.05zm-14.23 0v6.12l5.3 3.06 5.3-3.06v-6.12l-5.3-3.05-5.3 3.05zm60.34 0v6.12l5.3 3.06 5.3-3.06v-6.12l-5.3-3.05-5.3 3.05zm14.23 0v6.12l5.3 3.06 5.3-3.06v-6.12l-5.3-3.05-5.3 3.05zm-7.4 12.5v6.1l5.3 3.06 5.3-3.06v-6.1l-5.3-3.06-5.3 3.06zm-6.84 12.5v6.1l5.3 3.06 5.3-3.06v-6.1l-5.3-3.06-5.3 3.06zm14.23 0v6.1l5.3 3.06 5.3-3.06v-6.1l-5.3-3.06-5.3 3.06z"/><path d="M463.99 181.78v6.12l5.3 3.05 5.3-3.05v-6.12l-5.3-3.06-5.3 3.06zm-14.15 0v6.12l5.3 3.05 5.3-3.05v-6.12l-5.3-3.06-5.3 3.06zm-14.16 0v6.12l5.3 3.05 5.3-3.05v-6.12l-5.3-3.06-5.3 3.06zm-14.15 0v6.12l5.3 3.05 5.3-3.05v-6.12l-5.3-3.06-5.3 3.06zm-14.15 0v6.12l5.3 3.05 5.3-3.05v-6.12l-5.3-3.06-5.3 3.06zm-127.37 0v6.12l5.3 3.05 5.3-3.05v-6.12l-5.3-3.06-5.3 3.06zm-14.15 0v6.12l5.3 3.05 5.3-3.05v-6.12l-5.3-3.06-5.3 3.06zm-14.15 0v6.12l5.3 3.05 5.3-3.05v-6.12l-5.3-3.06-5.3 3.06zm-14.16 0v6.12l5.3 3.05 5.3-3.05v-6.12l-5.3-3.06-5.3 3.06zm-14.15 0v6.12l5.3 3.05 5.3-3.05v-6.12l-5.3-3.06-5.3 3.06zm-14.15 0v6.12l5.3 3.05 5.3-3.05v-6.12l-5.3-3.06-5.3 3.06zm127.37 0v6.12l5.3 3.05 5.3-3.05v-6.12l-5.3-3.06-5.3 3.06zm-14.15 0v6.12l5.3 3.05 5.3-3.05v-6.12l-5.3-3.06-5.3 3.06zm-14.15 0v6.12l5.3 3.05 5.3-3.05v-6.12l-5.3-3.06-5.3 3.06zm-14.16 0v6.12l5.3 3.05 5.3-3.05v-6.12l-5.3-3.06-5.3 3.06zm99.07 0v6.12l5.3 3.05 5.3-3.05v-6.12l-5.3-3.06-5.3 3.06zm-14.15 0v6.12l5.3 3.05 5.3-3.05v-6.12l-5.3-3.06-5.3 3.06zm-14.16 0v6.12l5.3 3.05 5.3-3.05v-6.12l-5.3-3.06-5.3 3.06zm-14.15 0v6.12l5.3 3.05 5.3-3.05v-6.12l-5.3-3.06-5.3 3.06zm481.18 0v6.12l5.3 3.05 5.3-3.05v-6.12l-5.3-3.06-5.3 3.06zm-14.16 0v6.12l5.3 3.05 5.3-3.05v-6.12l-5.3-3.06-5.3 3.06zm84.92 0v6.12l5.3 3.05 5.3-3.05v-6.12l-5.3-3.06-5.3 3.06zm-14.16 0v6.12l5.3 3.05 5.3-3.05v-6.12l-5.3-3.06-5.3 3.06zm-14.15 0v6.12l5.3 3.05 5.3-3.05v-6.12l-5.3-3.06-5.3 3.06zm-14.15 0v6.12l5.3 3.05 5.3-3.05v-6.12l-5.3-3.06-5.3 3.06zm-14.15 0v6.12l5.3 3.05 5.3-3.05v-6.12l-5.3-3.06-5.3 3.06zm155.64 0v6.12l5.3 3.05 5.3-3.05v-6.12l-5.3-3.06-5.3 3.06zm-14.12 0v6.12l5.3 3.05 5.3-3.05v-6.12l-5.3-3.06-5.3 3.06zm-14.15 0v6.12l5.3 3.05 5.3-3.05v-6.12l-5.3-3.06-5.3 3.06zm-14.15 0v6.12l5.3 3.05 5.3-3.05v-6.12l-5.3-3.06-5.3 3.06zm-14.16 0v6.12l5.3 3.05 5.3-3.05v-6.12l-5.3-3.06-5.3 3.06zm-14.15 0v6.12l5.3 3.05 5.3-3.05v-6.12l-5.3-3.06-5.3 3.06zm-14.15 0v6.12l5.3 3.05 5.3-3.05v-6.12l-5.3-3.06-5.3 3.06zm141.48 0v6.12l5.3 3.05 5.3-3.05v-6.12l-5.3-3.06-5.3 3.06zm-14.1 0v6.12l5.3 3.05 5.3-3.05v-6.12l-5.3-3.06-5.3 3.06zm-14.2 0v6.12l5.3 3.05 5.3-3.05v-6.12l-5.3-3.06-5.3 3.06zm-14.1 0v6.12l5.3 3.05 5.3-3.05v-6.12l-5.3-3.06-5.3 3.06zm113.2 0v6.12l5.3 3.05 5.3-3.05v-6.12l-5.3-3.06-5.3 3.06zm-14.2 0v6.12l5.3 3.05 5.3-3.05v-6.12l-5.3-3.06-5.3 3.06zm-14.1 0v6.12l5.3 3.05 5.3-3.05v-6.12l-5.3-3.06-5.3 3.06zm-14.2 0v6.12l5.3 3.05 5.3-3.05v-6.12l-5.3-3.06-5.3 3.06zm-14.1 0v6.12l5.3 3.05 5.3-3.05v-6.12l-5.3-3.06-5.3 3.06zm198.1 0v6.12l5.3 3.05 5.3-3.05v-6.12l-5.3-3.06-5.3 3.06zm-14.1 0v6.12l5.3 3.05 5.3-3.05v-6.12l-5.3-3.06-5.3 3.06zm-56.6 0v6.12l5.3 3.05 5.3-3.05v-6.12l-5.3-3.06-5.3 3.06zm-14.2 0v6.12l5.3 3.05 5.3-3.05v-6.12l-5.3-3.06-5.3 3.06zm-14.1 0v6.12l5.3 3.05 5.3-3.05v-6.12l-5.3-3.06-5.3 3.06zm-14.2 0v6.12l5.3 3.05 5.3-3.05v-6.12l-5.3-3.06-5.3 3.06zm-14.1 0v6.12l5.3 3.05 5.2-3.05v-6.12l-5.2-3.06-5.3 3.06zm198.1 0v6.12l5.3 3.05 5.3-3.05v-6.12l-5.3-3.06-5.3 3.06zm-14.2 0v6.12l5.3 3.05 5.3-3.05v-6.12l-5.3-3.06-5.3 3.06zm-14.1 0v6.12l5.3 3.05 5.3-3.05v-6.12l-5.3-3.06-5.3 3.06zm-14.2 0v6.12l5.3 3.05 5.3-3.05v-6.12l-5.3-3.06-5.3 3.06zm-14.1 0v6.12l5.3 3.05 5.3-3.05v-6.12l-5.3-3.06-5.3 3.06zm141.5 0v6.12l5.3 3.05 5.3-3.05v-6.12l-5.3-3.06-5.3 3.06zm-14.2 0v6.12l5.3 3.05 5.3-3.05v-6.12l-5.3-3.06-5.3 3.06zm-14.1 0v6.12l5.3 3.05 5.3-3.05v-6.12l-5.3-3.06-5.3 3.06zm-14.2 0v6.12l5.3 3.05 5.3-3.05v-6.12l-5.3-3.06-5.3 3.06zm-14.1 0v6.12l5.3 3.05 5.3-3.05v-6.12l-5.3-3.06-5.3 3.06zm-14.2 0v6.12l5.3 3.05 5.3-3.05v-6.12l-5.3-3.06-5.3 3.06zm127.4 0v6.12l5.3 3.05 5.3-3.05v-6.12l-5.3-3.06-5.3 3.06zm-14.1 0v6.12l5.3 3.05 5.2-3.05v-6.12l-5.2-3.06-5.3 3.06zm-14.2 0v6.12l5.3 3.05 5.3-3.05v-6.12l-5.3-3.06-5.3 3.06zm-14.2 0v6.12l5.3 3.05 5.3-3.05v-6.12l-5.3-3.06-5.3 3.06zm99.1 0v6.12l5.3 3.05 5.3-3.05v-6.12l-5.3-3.06-5.3 3.06zm-14.1 0v6.12l5.3 3.05 5.3-3.05v-6.12l-5.3-3.06-5.3 3.06zm-14.2 0v6.12l5.3 3.05 5.3-3.05v-6.12l-5.3-3.06-5.3 3.06zm-14.1 0v6.12l5.3 3.05 5.3-3.05v-6.12l-5.3-3.06-5.3 3.06zm183.9 0v6.12l5.3 3.05 5.3-3.05v-6.12l-5.3-3.06-5.3 3.06zm-70.7 0v6.12l5.3 3.05 5.3-3.05v-6.12l-5.3-3.06-5.3 3.06zm-14.2 0v6.12l5.3 3.05 5.3-3.05v-6.12l-5.3-3.06-5.3 3.06zm-14.1 0v6.12l5.3 3.05 5.3-3.05v-6.12l-5.3-3.06-5.3 3.06zm-14.2 0v6.12l5.3 3.05 5.3-3.05v-6.12l-5.3-3.06-5.3 3.06zm-14.1 0v6.12l5.3 3.05 5.3-3.05v-6.12l-5.3-3.06-5.3 3.06zm113.2 0v6.12l5.3 3.05 5.3-3.05v-6.12l-5.3-3.06-5.3 3.06zm-14.2 0v6.12l5.3 3.05 5.3-3.05v-6.12l-5.3-3.06-5.3 3.06zm-14.1 0v6.12l5.3 3.05 5.3-3.05v-6.12l-5.3-3.06-5.3 3.06zm-14.2 0v6.12l5.3 3.05 5.3-3.05v-6.12l-5.3-3.06-5.3 3.06zm-990.62 0v6.12l5.3 3.05 5.3-3.05v-6.12l-5.3-3.06-5.3 3.06zm-14.16 0v6.12l5.3 3.05 5.3-3.05v-6.12l-5.3-3.06-5.3 3.06zm-14.15 0v6.12l5.3 3.05 5.3-3.05v-6.12l-5.3-3.06-5.3 3.06zm-14.15 0v6.12l5.3 3.05 5.3-3.05v-6.12l-5.3-3.06-5.3 3.06zm-14.15 0v6.12l5.3 3.05 5.3-3.05v-6.12l-5.3-3.06-5.3 3.06zm-14.16 0v6.12l5.3 3.05 5.3-3.05v-6.12l-5.3-3.06-5.3 3.06zm127.37 0v6.12l5.3 3.05 5.3-3.05v-6.12l-5.3-3.06-5.3 3.06zm-14.15 0v6.12l5.3 3.05 5.3-3.05v-6.12l-5.3-3.06-5.3 3.06zm-14.15 0v6.12l5.3 3.05 5.3-3.05v-6.12l-5.3-3.06-5.3 3.06zm-14.15 0v6.12l5.3 3.05 5.3-3.05v-6.12l-5.3-3.06-5.3 3.06zm84.9 0v6.12l5.3 3.05 5.3-3.05v-6.12l-5.3-3.06-5.3 3.06zm-14.15 0v6.12l5.3 3.05 5.3-3.05v-6.12l-5.3-3.06-5.3 3.06zm-14.15 0v6.12l5.3 3.05 5.3-3.05v-6.12l-5.3-3.06-5.3 3.06zm99.06 0v6.12l5.3 3.05 5.3-3.05v-6.12l-5.3-3.06-5.3 3.06zm-14.15 0v6.12l5.3 3.05 5.3-3.05v-6.12l-5.3-3.06-5.3 3.06zm-14.15 0v6.12l5.3 3.05 5.3-3.05v-6.12l-5.3-3.06-5.3 3.06zm-268.9 0v6.12l5.3 3.05 5.3-3.05v-6.12l-5.3-3.06-5.3 3.06zm-14.16 0v6.12l5.3 3.05 5.3-3.05v-6.12l-5.3-3.06-5.3 3.06zm-14.15 0v6.12l5.3 3.05 5.3-3.05v-6.12l-5.3-3.06-5.3 3.06zm70.76 0v6.12l5.3 3.05 5.3-3.05v-6.12l-5.3-3.06-5.3 3.06zm-14.15 0v6.12l5.3 3.05 5.3-3.05v-6.12l-5.3-3.06-5.3 3.06zm-14.15 0v6.12l5.3 3.05 5.3-3.05v-6.12l-5.3-3.06-5.3 3.06z"/></g><path d="M251.91 232.8h4.478v3.358h-4.478z" class="V"/></g><path d="M256.39 236.16v-3.36h-4.48v3.36h4.48z" class="H J L"/><path d="M246.87 240.36h4.478v3.358h-4.478z" class="C V"/><path d="M251.34 243.71v-3.35h-4.48v3.35h4.48z" class="H J L"/><path d="M256.94 240.36h4.478v3.358h-4.478z" class="C V"/><g class="H J L"><path d="M261.42 243.71v-3.35h-4.47v3.35h4.47z"/><path d="M246 238.26h15.8m-12.69 0v2.1m10.07-2.1v2.1m-5.04-4.2v2.1" class="M"/></g><path d="M164.74 180.01h9.54a.48.48 0 0 0 .48-.48h0v-5.8c0-.27-.2-.48-.48-.48h-9.54c-.27 0-.48.2-.48.48v5.8a.48.48 0 0 0 .48.48m-.75 1.12h11.04c.27 0 .48-.2.48-.48h0v-8.04a.48.48 0 0 0-.48-.48h-11.04a.48.48 0 0 0-.48.48v8.04c0 .27.2.48.48.48m1.75 1.31h8.25m-4.5-1.13v1.04" class="J" stroke-width=".533"/><g class="B K S"><path d="M687 167.44l1008.04.02v-156L687 11.437V167.44z"/><path d="M652.44 162.19h6.52l.66-.03 27.4.03V16.687h-34.58c-5.77 0-10.44 5.372-10.44 12v-.001V150.19c0 6.62 4.67 12 10.43 12z"/></g><g stroke="#9a9a9a"><path d="M660.37 96.854c10.5 2.236 20.88-4.648 23.16-15.37s-4.4-21.23-14.9-23.463-20.88 4.647-23.16 15.37 4.4 21.23 14.9 23.463z" fill="url(#K)" class="B a"/><path d="M660.84 94.59c9.3 1.974 18.45-4.106 20.46-13.578s-3.86-18.752-13.16-20.727-18.45 4.106-20.46 13.578 3.88 18.752 13.16 20.726z" class="B Q"/></g><g stroke="#a5a5a5"><path d="M661.579 91.188c7.44 1.582 14.78-3.292 16.4-10.886 1.6-7.595-3.1-15.034-10.56-16.616-7.44-1.582-14.78 3.29-16.4 10.886-1.6 7.594 3.1 15.034 10.56 16.616z" fill="url(#L)" class="L"/><g class="B"><path d="M669.92 65.205l-14.1 22.587c.86 1.148 2.04 1.887 3.45 2.154h0l14.1-22.587c-.86-1.148-2.04-1.887-3.45-2.154z" fill="url(#M)"/><path d="M661.01 78.46l-1.04 1.702c1.425 1.122 2.959 2.097 4.58 2.91l1.05-1.703 1.3.813c1.1-1.45 2.08-3.062 2.9-4.698h0l-1.28-.813.98-1.597c-1.426-1.124-2.965-2.099-4.59-2.909l-.98 1.597-1.58-1c-1.111 1.47-2.079 3.043-2.89 4.698h0l1.57 1z" fill="url(#N)"/></g></g><path d="M1729.54 162.21h-6.5l-.6-.02h0l-27.4.02V16.71h34.5c5.8 0 10.5 5.372 10.5 12h0v121.5c0 6.63-4.7 12-10.5 12z" class="B K S"/><g stroke="#9a9a9a"><path d="M1721.64 96.878c-10.5 2.232-20.9-4.65-23.2-15.373s4.4-21.228 14.9-23.462 20.9 4.65 23.2 15.373-4.4 21.228-14.9 23.462z" fill="url(#K)" class="B a"/><path d="M1721.141 94.612c-9.3 1.974-18.4-4.106-20.5-13.58-2-9.473 3.9-18.752 13.2-20.725s18.5 4.107 20.5 13.58-3.9 18.752-13.2 20.725z" class="B Q"/></g><g stroke="#a5a5a5"><path d="M1720.44 91.21c-7.5 1.582-14.8-3.292-16.4-10.886s3.1-15.034 10.5-16.616c7.5-1.582 14.8 3.292 16.4 10.887 1.7 7.594-3.1 15.033-10.5 16.615z" fill="url(#L)" class="L"/><g class="B"><path d="M1712.04 65.228l14.1 22.587c-.8 1.15-2 1.887-3.4 2.154l-14.1-22.587c.8-1.148 2-1.887 3.4-2.154z" fill="url(#M)"/><path d="M1720.94 78.484l1.1 1.703c-1.4 1.112-3 2.11-4.6 2.91h0l-1-1.703-1.3.813a28.83 28.83 0 0 1-2.9-4.698l1.3-.813-1-1.597c1.4-1.112 3-2.1 4.6-2.91l1 1.597 1.5-1c1.1 1.45 2.1 3.062 2.9 4.697h0l-1.6 1z" fill="url(#N)"/></g></g><g class="C"><path d="M113.99 61.04h2.44v9.67h-2.44zm22.12 2.77c-.1-.05-.88-.516-2.05-.516-1.58 0-2.67 1.098-2.67 2.58 0 1.437 1.04 2.582 2.67 2.582 1.15 0 1.94-.456 2.05-.514v2.598c-.3.086-1.14.345-2.22.345-2.75 0-5.16-1.892-5.16-5.01 0-2.888 2.18-5.006 5.16-5.006 1.14 0 2 .278 2.22.346v2.596zm-25.47 0c-.1-.05-.9-.516-2.05-.516-1.58 0-2.68 1.098-2.68 2.58 0 1.437 1.05 2.582 2.68 2.582 1.14 0 1.94-.456 2.05-.514v2.598c-.3.086-1.14.345-2.23.345-2.74 0-5.15-1.892-5.15-5.01 0-2.888 2.18-5.006 5.15-5.006 1.15 0 2 .278 2.23.346v2.596zm38.26 2.065c0 2.766-2.14 5.01-5.1 5.01-2.98 0-5.1-2.243-5.1-5.01s2.13-5.007 5.1-5.007 5.1 2.244 5.1 5.007zm-5.1-2.544c-1.45 0-2.52 1.14-2.52 2.544s1.07 2.545 2.52 2.545 2.52-1.138 2.52-2.545-1.07-2.544-2.52-2.544zm-18.11-.093c-.04-.01-1.07-.295-1.9-.295-.98 0-1.5.328-1.5.793 0 .588.72.794 1.12.92l.67.214c1.6.504 2.3 1.588 2.3 2.767 0 2.43-2.14 3.246-4 3.246-1.3 0-2.5-.24-2.63-.265v-2.225c.22.054 1.24.36 2.3.36 1.2 0 1.77-.355 1.77-.903 0-.5-.5-.773-1.1-.963l-.52-.168c-1.36-.43-2.5-1.23-2.5-2.83 0-1.808 1.35-3.023 3.6-3.023a10.37 10.37 0 0 1 2.38.308v2.064z" fill="#c41230"/><path d="M100.67 50.646a1.21 1.21 0 1 0-2.42 0v2.54a1.21 1.21 0 1 0 2.42 0v-2.54zm6.67-3.332c0-.667-.55-1.208-1.2-1.208a1.21 1.21 0 0 0-1.21 1.208v5.87a1.21 1.21 0 0 0 1.21 1.211c.66 0 1.2-.54 1.2-1.21v-5.87zm6.64-4.559c0-.667-.54-1.207-1.2-1.207s-1.2.54-1.2 1.207v12.843c0 .67.55 1.2 1.2 1.2a1.21 1.21 0 0 0 1.21-1.21V42.755zm6.66 4.559a1.21 1.21 0 1 0-2.42 0v5.87a1.21 1.21 0 1 0 2.42 0v-5.87zm6.65 3.332a1.21 1.21 0 0 0-1.21-1.207c-.66 0-1.2.54-1.2 1.207v2.54c0 .67.55 1.21 1.2 1.21a1.21 1.21 0 0 0 1.21-1.211v-2.54zm6.65-3.332a1.21 1.21 0 1 0-2.42 0v5.87a1.21 1.21 0 1 0 2.42 0v-5.87zm6.67-4.559c0-.667-.54-1.207-1.2-1.207s-1.2.54-1.2 1.207v12.843a1.21 1.21 0 1 0 2.42 0V42.755zm6.66 4.559c0-.667-.55-1.208-1.23-1.208a1.21 1.21 0 0 0-1.21 1.208v5.87a1.21 1.21 0 0 0 1.21 1.211 1.22 1.22 0 0 0 1.23-1.211v-5.87zm6.64 3.332a1.21 1.21 0 0 0-1.21-1.207 1.2 1.2 0 0 0-1.2 1.207v2.54a1.21 1.21 0 1 0 2.42 0v-2.54z" fill="#005568"/></g><path d="M775.04 303.59h435.5v-96h-435.5v96z" class="W X Y"/><use xlink:href="#R" class="B F G"/><use xlink:href="#S" class="C E"/><use xlink:href="#R" x="52.32" class="B F G"/><g class="C"><use xlink:href="#S" x="52.32" class="E"/><use xlink:href="#T" class="I"/></g><use xlink:href="#R" x="-261.66" class="B F G"/><use xlink:href="#S" x="-261.66" class="C E"/><use xlink:href="#R" x="-209.34" class="B F G"/><use xlink:href="#S" x="-209.34" class="C E"/><use xlink:href="#R" x="-157.02" class="B F G"/><use xlink:href="#S" x="-157.02" class="C E"/><use xlink:href="#R" x="-104.69" class="B F G"/><path d="M978.4 243.55h2.8v5.634h-2.8zm-4.4 0h2.8v5.634H974zm-4.4 0h2.8v5.634h-2.8zm-4.4 0h2.8v5.634h-2.8zm-8.8 0h2.8v5.634h-2.8zm4.4 0h2.8v5.634h-2.8zm-8.8 0h2.8v5.634H952zm-4.41 0h2.8v5.634h-2.8zm30.81 18.46h2.8v5.634h-2.8zm-4.4 0h2.8v5.634H974zm-4.4 0h2.8v5.634h-2.8zm-4.4 0h2.8v5.634h-2.8zm-8.8 0h2.8v5.634h-2.8zm4.4 0h2.8v5.634h-2.8zm-8.8 0h2.8v5.634H952zm-4.41 0h2.8v5.634h-2.8z" class="C E"/><use xlink:href="#R" x="-52.32" class="B F G"/><use xlink:href="#S" x="-52.32" class="C E"/><use xlink:href="#R" x="104.65" class="B F G"/><g class="C E"><use xlink:href="#S" x="104.65"/><path d="M179.74 221.44h2.342v4.712h-2.342zm-3.67 0h2.342v4.712h-2.342zm-3.68 0h2.342v4.712h-2.342zm-3.68 0h2.342v4.712h-2.342zm-3.67 0h2.342v4.712h-2.342zm-3.7 0h2.342v4.712h-2.342zm-3.67 0h2.342v4.712h-2.342zm-3.68 0h2.342v4.712h-2.342z"/></g><path d="M302.5 302.08H738v-96H302.5v96z" class="W X Y"/><use xlink:href="#R" x="-472.54" y="-1.51" class="B F G"/><use xlink:href="#S" x="-472.54" y="-1.51" class="C E"/><use xlink:href="#R" x="-420.22" y="-1.51" class="B F G"/><g class="C"><use xlink:href="#S" x="-420.22" y="-1.51" class="E"/><use xlink:href="#T" x="-472.54" y="-1.51" class="I"/></g><use xlink:href="#R" x="-734.2" y="-1.51" class="B F G"/><use xlink:href="#S" x="-734.2" y="-1.51" class="C E"/><use xlink:href="#R" x="-681.88" y="-1.51" class="B F G"/><use xlink:href="#S" x="-681.88" y="-1.51" class="C E"/><use xlink:href="#R" x="-629.56" y="-1.51" class="B F G"/><use xlink:href="#S" x="-629.56" y="-1.51" class="C E"/><use xlink:href="#R" x="-577.23" y="-1.51" class="B F G"/><use xlink:href="#S" x="-577.23" y="-1.51" class="C E"/><use xlink:href="#R" x="-524.86" y="-1.51" class="B F G"/><use xlink:href="#S" x="-524.86" y="-1.51" class="C E"/><use xlink:href="#R" x="-367.89" y="-1.51" class="B F G"/><path d="M715.2 242.04h2.8v5.634h-2.8zm-4.4 0h2.8v5.634h-2.8zm-4.4 0h2.8v5.634h-2.8zm-4.4 0h2.8v5.634H702zm-8.8 0h2.8v5.634h-2.8zm4.4 0h2.8v5.634h-2.8zm-8.8 0h2.8v5.634h-2.8zm-4.41 0h2.8v5.634h-2.8zm30.81 18.46h2.8v5.634h-2.8zm-4.4 0h2.8v5.634h-2.8zm-4.4 0h2.8v5.634h-2.8zm-4.4 0h2.8v5.634H702zm-8.8 0h2.8v5.634h-2.8zm4.4 0h2.8v5.634h-2.8zm-8.8 0h2.8v5.634h-2.8zm-4.41 0h2.8v5.634h-2.8z" class="C E"/><g class="B D"><path d="M13.12 26.25c7.25 0 13.12-5.88 13.12-13.13C26.24 5.88 20.37 0 13.12 0S0 5.88 0 13.12c0 7.25 5.87 13.13 13.12 13.13z" transform="translate(744.38 178.51)" class="N"/><path d="M767.48 188.77a10.38 10.38 0 0 0-17.447-4.353 10.38 10.38 0 0 0-2.513 10.073c1.58 5.5 7.33 8.7 12.84 7.12s8.7-7.33 7.12-12.84z" class="O"/></g><g class="H J M P"><path d="M762.04 190.34l-9.06 2.6" class="D"/><path d="M758.8 196.16l-2.6-9.05" class="D"/></g><g class="C I"><path d="M745.14 209.69v6.12l5.3 3.06 5.3-3.06v-6.12l-5.3-3.06-5.3 3.06zm0 15.82v6.1l5.3 3.06 5.3-3.06v-6.1l-5.3-3.06-5.3 3.06zm0 15.8v6.12l5.3 3.06 5.3-3.06v-6.12l-5.3-3.05-5.3 3.05zm0 15.82v6.12l5.3 3.05 5.3-3.05v-6.12l-5.3-3.06-5.3 3.06zm0 15.82v6.1l5.3 3.06 5.3-3.06v-6.1l-5.3-3.06-5.3 3.06zm0 15.8v6.12l5.3 3.06 5.3-3.06v-6.12l-5.3-3.06-5.3 3.06zm14.14-79.06v6.12l5.3 3.06 5.3-3.06v-6.12l-5.3-3.06-5.3 3.06zm0 15.82v6.1l5.3 3.06 5.3-3.06v-6.1l-5.3-3.06-5.3 3.06zm0 15.8v6.12l5.3 3.06 5.3-3.06v-6.12l-5.3-3.05-5.3 3.05zm0 15.82v6.12l5.3 3.05 5.3-3.05v-6.12l-5.3-3.06-5.3 3.06zm0 15.82v6.1l5.3 3.06 5.3-3.06v-6.1l-5.3-3.06-5.3 3.06zm0 15.8v6.12l5.3 3.06 5.3-3.06v-6.12l-5.3-3.06-5.3 3.06z"/><use xlink:href="#U"/></g><path d="M1249.68 303.59h435.5v-96h-435.5v96z" class="W X Y"/><use xlink:href="#R" x="474.64" class="B F G"/><use xlink:href="#S" x="474.64" class="C E"/><use xlink:href="#R" x="526.96" class="B F G"/><g class="C"><use xlink:href="#S" x="526.96" class="E"/><path d="M1509.32 212.89h6.38l-3.18 5.96-3.2-5.95zm-41.6 5.96h6.37l-3.18-5.95-3.2 5.95zm93.94-5.96h6.37l-3.18 5.95-3.2-5.95zm-41.64 5.96h6.38l-3.2-5.95-3.2 5.95zm93.96-5.96h6.38l-3.2 5.95-3.2-5.95zm-41.62 5.96h6.37l-3.2-5.95-3.18 5.95zm93.94-5.96h6.38l-3.2 5.95-3.2-5.95zm-41.62 5.96h6.37l-3.18-5.95-3.2 5.95zM1300 212.89h6.37l-3.2 5.95-3.18-5.95zm-41.63 5.96h6.38l-3.2-5.95-3.2 5.95zm93.95-5.96h6.37l-3.17 5.96-3.2-5.95zm-41.63 5.96h6.38l-3.2-5.95-3.2 5.95zm93.95-5.96h6.38l-3.2 5.95-3.2-5.95zm-41.62 5.96h6.37l-3.18-5.95-3.2 5.95zm93.95-5.96h6.37l-3.2 5.95-3.18-5.95zm-41.63 5.96h6.38l-3.2-5.95-3.2 5.95z" class="I"/></g><use xlink:href="#R" x="212.98" class="B F G"/><use xlink:href="#S" x="212.98" class="C E"/><use xlink:href="#R" x="265.3" class="B F G"/><use xlink:href="#S" x="265.3" class="C E"/><use xlink:href="#R" x="317.62" class="B F G"/><use xlink:href="#S" x="317.62" class="C E"/><use xlink:href="#R" x="369.95" class="B F G"/><use xlink:href="#S" x="369.95" class="C E"/><use xlink:href="#R" x="422.32" class="B F G"/><use xlink:href="#S" x="422.32" class="C E"/><use xlink:href="#R" x="579.29" class="B F G"/><g class="C"><use xlink:href="#S" x="579.29" class="E"/><g class="I"><use xlink:href="#U" x="478"/><path d="M719.75 195.5h0m-16.13 5.84h-.01m-38.06-5.84h0m-16.14 5.84h-.01m-38.08-5.84h.01m-16.13 5.84h-.01m-38.08-5.9h.01m-16.13 5.82h-.01m-38.07-5.76h.02m-16.15 5.84h-.02m-38.06-5.9h.02m-16.15 5.82h-.02m-38.06-6.59h.02m-16.17 5.83h0m-38.06-5.82h.02m-16.16 5.83h-.02m868.16-3.5h.01m-16.13 5.84h-.01"/><path d="M1138.08 197.01h.01m-16.15 5.84h0m-38.08-5.84h.01m-16.13 5.84h-.01m-38.08-5.9h.01m-16.13 5.82h-.01m-38.07-5.76h.02m-16.15 5.84h-.02m-38.04-5.9h0m-16.15 5.82h-.02m-38.04-6.59h0m-16.15 5.83h-.02m-38.06-5.82h.02m-16.16 5.83h-.02"/><use xlink:href="#V"/><use xlink:href="#V" x="52"/><use xlink:href="#V" x="104.5"/><use xlink:href="#V" x="156.82"/><use xlink:href="#V" x="208.82"/><use xlink:href="#V" x="261.32"/><use xlink:href="#V" x="314"/><use xlink:href="#V" x="366.5"/><use xlink:href="#V" x="472.57"/><use xlink:href="#V" x="525"/><use xlink:href="#V" x="577"/><use xlink:href="#V" x="629.25"/><use xlink:href="#V" x="682"/><use xlink:href="#V" x="734.25"/><use xlink:href="#V" x="786.5"/><use xlink:href="#V" x="838.25"/><use xlink:href="#V" x="947"/><use xlink:href="#V" x="999.25"/><use xlink:href="#V" x="1052"/><use xlink:href="#V" x="1103.75"/><use xlink:href="#V" x="1156.5"/><use xlink:href="#V" x="1208.75"/><use xlink:href="#V" x="1261.5"/><use xlink:href="#V" x="1313.25"/><path d="M233.636 256.432v.059h-.012v-.045l-.014.004v-.01l.024-.009h.001z"/><use xlink:href="#W"/><path d="M108.827 23.665v9.953h-2.051v-9.953h2.051z"/><use xlink:href="#X"/><use xlink:href="#W" x="21.848"/><path d="M136.67 28.423v.444q0 1.47-.52 2.577-.52 1.107-1.487 1.709-.967.602-2.218.602-1.237 0-2.208-.595-.971-.595-1.504-1.699-.533-1.104-.54-2.54v-.492q0-1.47.53-2.587.53-1.118 1.497-1.716.967-.598 2.211-.598 1.244 0 2.211.598.967.598 1.497 1.716.53 1.118.53 2.581zm-2.078.479v-.485q0-1.565-.561-2.379-.561-.813-1.6-.813-1.032 0-1.593.803-.561.803-.567 2.355v.485q0 1.524.561 2.365.561.841 1.613.841 1.032 0 1.586-.81.554-.81.561-2.362zm15.148-5.237v9.953h-2.051l-3.992-6.549v6.549h-2.051v-9.953h2.051l3.999 6.563v-6.562h2.044zm7.779 4.033v1.606h-3.937v2.666h4.621v1.647h-6.672v-9.953h6.658v1.661h-4.607v2.372h3.938z"/><use xlink:href="#Y"/><path d="M173.775 23.665h2.058v6.556q0 1.634-1.022 2.584-1.022.95-2.792.95-1.743 0-2.769-.923-1.025-.923-1.046-2.536v-6.631h2.051v6.569q0 .978.468 1.425.468.448 1.295.448 1.729 0 1.757-1.818v-6.624z"/><use xlink:href="#X" x="66.787"/><use xlink:href="#Z"/><path d="M199.437 29.311v-1.545h1.053q.752 0 1.114-.376.362-.376.362-.998 0-.602-.359-.937-.359-.335-.988-.335-.567 0-.95.311-.383.311-.383.81h-1.976q0-.779.42-1.398.42-.619 1.176-.967.755-.349 1.665-.349 1.579 0 2.475.755.896.755.896 2.082 0 .684-.417 1.258-.417.574-1.094.882.841.301 1.254.902.414.602.414 1.422 0 1.326-.967 2.126-.967.8-2.56.8-1.49 0-2.437-.786-.947-.786-.947-2.078h1.976q0 .561.42.916.42.355 1.036.355.704 0 1.104-.373.4-.373.4-.988 0-1.49-1.641-1.49h-1.046z"/><use xlink:href="#Z" x="16.065"/><path d="M218.522 23.562h.328v1.627h-.191q-1.34.021-2.157.697-.817.677-.981 1.88.793-.807 2.003-.807 1.299 0 2.064.93.766.93.766 2.447 0 .971-.42 1.757-.42.786-1.189 1.224-.769.438-1.74.438-1.572 0-2.54-1.094-.967-1.094-.967-2.919v-.711q0-1.62.612-2.861.612-1.241 1.757-1.921 1.145-.68 2.656-.687zm-1.6 4.983q-.479 0-.868.25-.39.25-.574.66v.602q0 .991.39 1.548.39.557 1.094.557.636 0 1.029-.502.393-.502.393-1.302 0-.813-.396-1.312-.396-.499-1.066-.499zm12.306-4.88v1.661h-3.049v8.292h-2.051v-8.292h-3.008v-1.661h8.107z"/><use xlink:href="#Y" x="70.992"/><path d="M94.906 257.298h-2.764v-7.109h2.49q1.294 0 1.963.496.669.496.669 1.453 0 .522-.269.92-.269.398-.747.583.547.137.862.552.315.415.315 1.016 0 1.025-.654 1.553-.654.527-1.865.537zm.044-3.096h-1.343v1.919h1.255q.518 0 .808-.247.291-.247.291-.681 0-.977-1.011-.991zm-1.343-2.827v1.792h1.084q1.108-.02 1.108-.884 0-.483-.281-.696-.281-.212-.886-.212h-1.025z"/><use xlink:href="#a"/><path d="M110.848 250.189v7.109h-1.465l-2.852-4.678v4.678h-1.465v-7.109h1.465l2.856 4.688v-4.687h1.46z"/><use xlink:href="#b"/><use xlink:href="#c"/><use xlink:href="#b" x="12.256"/><path d="M97.034 291.798l-.493-1.465h-2.568l-.488 1.465h-1.558l2.646-7.109h1.357l2.661 7.109h-1.558zm-1.782-5.312l-.884 2.661h1.777l-.894-2.661z"/><use xlink:href="#a" x="0.63" y="34.5"/><use xlink:href="#c" x="6.474" y="17"/><use xlink:href="#d"/><use xlink:href="#e"/><use xlink:href="#d" x="111.631" y="-55.75"/><use xlink:href="#e" x="137.619" y="-92.75"/><use xlink:href="#f"/><use xlink:href="#g"/><use xlink:href="#h"/><use xlink:href="#i"/><use xlink:href="#j"/><use xlink:href="#k"/><use xlink:href="#l"/><use xlink:href="#d" x="346.618" y="-55.75"/><use xlink:href="#m"/><use xlink:href="#d" x="367.144" y="-55.75"/><use xlink:href="#d" x="372.881" y="-55.75"/><path d="M610.411 193.929v7.119H609v-5.439l-1.685.522v-1.147l2.944-1.055h.151z"/><use xlink:href="#e" x="404.606" y="-92.75"/><use xlink:href="#d" x="420.394" y="-55.75"/><use xlink:href="#f" x="262.25"/><use xlink:href="#d" x="452.118" y="-55.75"/><use xlink:href="#g" x="267.986"/><use xlink:href="#d" x="472.644" y="-55.75"/><use xlink:href="#h" x="262.251"/><path d="M715.911 193.928v7.119H714.5v-5.439l-1.685.522v-1.147l2.944-1.055h.151z"/><use xlink:href="#i" x="267.987"/><use xlink:href="#d" x="578.394" y="-55.75"/><use xlink:href="#j" x="315.75"/><use xlink:href="#d" x="610.118" y="-55.75"/><use xlink:href="#k" x="321.487"/><use xlink:href="#d" x="630.894" y="-55.75"/><use xlink:href="#l" x="316"/><use xlink:href="#e" x="662.619" y="-92.75"/><use xlink:href="#m" x="316"/><use xlink:href="#e" x="682.894" y="-92.75"/><use xlink:href="#d" x="688.631" y="-55.75"/><use xlink:href="#e" x="714.619" y="-92.75"/><use xlink:href="#e" x="720.356" y="-92.75"/><use xlink:href="#e" x="735.144" y="-92.75"/><use xlink:href="#f" x="577"/><use xlink:href="#e" x="766.869" y="-92.75"/><use xlink:href="#g" x="582.737"/><use xlink:href="#e" x="787.894" y="-92.75"/><use xlink:href="#h" x="577.5"/><use xlink:href="#e" x="819.619" y="-92.75"/><use xlink:href="#i" x="583.238"/><use xlink:href="#e" x="840.144" y="-92.75"/><use xlink:href="#j" x="577.499"/><use xlink:href="#e" x="871.869" y="-92.75"/><use xlink:href="#k" x="583.237"/><use xlink:href="#e" x="892.394" y="-92.75"/><use xlink:href="#l" x="577.499"/><use xlink:href="#f" x="760.237"/><use xlink:href="#m" x="577.5"/><use xlink:href="#f" x="780.263"/><use xlink:href="#d" x="949.881" y="-55.75"/><use xlink:href="#f" x="811.987"/><use xlink:href="#e" x="981.606" y="-92.75"/><use xlink:href="#f" x="889.013"/><use xlink:href="#f" x="894.75"/><use xlink:href="#f" x="920.737"/><use xlink:href="#g" x="900.486"/><use xlink:href="#f" x="941.263"/><use xlink:href="#h" x="894.751"/><use xlink:href="#f" x="972.987"/><use xlink:href="#i" x="900.487"/><use xlink:href="#f" x="994.013"/><use xlink:href="#j" x="895.25"/><use xlink:href="#f" x="1025.737"/><use xlink:href="#k" x="900.987"/><use xlink:href="#f" x="1045.763"/><use xlink:href="#l" x="894.75"/><use xlink:href="#g" x="1051.5"/><use xlink:href="#m" x="894.751"/><use xlink:href="#g" x="1072.525"/><use xlink:href="#d" x="1268.131" y="-55.75"/><use xlink:href="#g" x="1104.25"/><use xlink:href="#e" x="1299.857" y="-92.75"/><use xlink:href="#g" x="1124.775"/><use xlink:href="#f" x="1156.5"/><use xlink:href="#g" x="1156.5"/><use xlink:href="#g" x="1162.237"/><use xlink:href="#g" x="1177.525"/><use xlink:href="#h" x="1157"/><use xlink:href="#g" x="1209.25" y="-0.001"/><use xlink:href="#i" x="1162.738"/><use xlink:href="#g" x="1229.275"/><use xlink:href="#j" x="1156.5"/><use xlink:href="#g" x="1261"/><use xlink:href="#k" x="1162.238"/></g></g></symbol></svg>