<svg xmlns="http://www.w3.org/2000/svg" xmlns:xlink="http://www.w3.org/1999/xlink" viewBox="0 0 967.198 223.198" fill="#fff" fill-rule="evenodd" stroke="#000" stroke-linecap="round" stroke-linejoin="round"><style><![CDATA[.B{stroke:none}.C{stroke-linejoin:miter}.D{fill:#000}.E{stroke-width:.399}.F{stroke-width:1.2}.G{fill:none}.H{stroke:gray}.I{stroke-width:1.198}.J{fill:#262626}.K{stroke-width:.402}.L{fill:url(#B)}.M{stroke-width:.84}.N{stroke:#7f7f7f}.O{fill:url(#J)}.P{stroke:#a5a5a5}.Q{fill-opacity:0}.R{stroke-width:.36}.S{stroke-linecap:square}.T{stroke-width:.416}.U{stroke-width:1.205}]]></style><use xlink:href="#Y" x=".599" y=".599"/><defs><linearGradient id="A" x1="50%" y1="0%" x2="50%" y2="100%"><stop offset="0%" stop-color="#f2f2f2"/></linearGradient><radialGradient id="B" r="100%" fx="50%" fy="50%" cx="50%" cy="50%"><stop offset="0%" stop-color="#bfbfbf"/><stop offset="71%" stop-color="#404040"/></radialGradient><linearGradient id="C" x1="50%" y1="0%" x2="50%" y2="100%"><stop offset="0%" stop-color="#fff"/><stop offset="1%" stop-color="#fff"/><stop offset="50%" stop-color="#9a9a9a"/><stop offset="100%" stop-color="#fff"/></linearGradient><linearGradient id="D" x1="50%" y1="0%" x2="50%" y2="100%"><stop offset="0%" stop-color="#fff"/><stop offset="100%" stop-color="#9a9a9a"/></linearGradient><radialGradient id="E" r="100%" fx="50%" fy="50%" cx="50%" cy="50%"><stop offset="0%" stop-color="#1e1e1e"/><stop offset="71%" stop-color="#7f7f7f"/></radialGradient><linearGradient id="F" x1="0%" y1="50%" x2="100%" y2="50%"><stop offset="0%"/><stop offset="1%"/><stop offset="50%" stop-color="#1e1e1e"/><stop offset="100%"/></linearGradient><linearGradient id="G" x1="0%" y1="50%" x2="100%" y2="50%"><stop offset="0%" stop-color="#eabb00"/><stop offset="1%" stop-color="#eabb00"/><stop offset="50%" stop-color="#ffe1a4"/><stop offset="100%" stop-color="#eabb00"/></linearGradient><radialGradient id="H" r="100%" fx="50%" fy="50%" cx="50%" cy="50%"><stop offset="0%" stop-color="#444"/><stop offset="71%" stop-color="#262626"/></radialGradient><linearGradient id="I" x1="50%" y1="0%" x2="50%" y2="100%"><stop offset="0%" stop-color="#bfbfbf"/><stop offset="1%" stop-color="#bfbfbf"/><stop offset="50%" stop-color="#fff"/><stop offset="100%" stop-color="#bfbfbf"/></linearGradient><linearGradient id="J" x1="50%" y1="0%" x2="50%" y2="100%"><stop offset="0%" stop-color="#d8d8d8"/><stop offset="1%" stop-color="#d8d8d8"/><stop offset="50%" stop-color="#fff"/><stop offset="100%" stop-color="#d8d8d8"/></linearGradient><linearGradient id="K" x1="50%" y1="0%" x2="50%" y2="100%"><stop offset="0%" stop-color="#d8d8d8"/><stop offset="1%" stop-color="#d8d8d8"/><stop offset="50%" stop-color="#f2f2f2"/><stop offset="100%" stop-color="#d8d8d8"/></linearGradient><radialGradient id="L" r="100%" fx="50%" fy="50%" cx="50%" cy="50%"><stop offset="0%" stop-color="#e2e2e2"/><stop offset="71%" stop-color="#d8d8d8"/></radialGradient><radialGradient id="M" r="100%" fx="50%" fy="50%" cx="50%" cy="50%"><stop offset="0%" stop-color="#bdbdbd"/><stop offset="100%" stop-color="#a5a5a5"/></radialGradient><radialGradient id="N" r="100%" fx="50%" fy="50%" cx="50%" cy="50%"><stop offset="0%" stop-color="#9d9d9d"/><stop offset="100%" stop-color="#7f7f7f"/></radialGradient><path id="O" d="M299.865 155.257h-3.02v5.472h3.02z"/><path id="P" d="M152.515 123.979h62.64a3.6 3.6 0 0 0 3.36-3.36v-27.6a3.6 3.6 0 0 0-3.36-3.36h-62.64c-1.68 0-2.4 1.68-2.4 3.36v27.6c0 1.68.72 3.36 2.4 3.36z"/><path id="Q" d="M163.375 108.099h3.36v-1.68h-3.36v1.68zm12.48 0h3.36v-1.68h-3.36v1.68zm13.2 0h3.36v-1.68h-3.36v1.68zm12.48 0h3.6v-1.68h-3.36v1.68z"/><path id="R" d="M841.985 40.314c0-.679-.608-1.229-1.337-1.229a1.27 1.27 0 0 0-1.215 1.229v5.977a1.27 1.27 0 0 0 1.215 1.233c.729 0 1.337-.551 1.337-1.233v-5.977z"/><path id="S" d="M869.453 40.314a1.27 1.27 0 0 0-1.215-1.229c-.729 0-1.337.551-1.337 1.229v5.977c0 .682.608 1.233 1.337 1.233a1.27 1.27 0 0 0 1.215-1.233v-5.977z"/><path id="T" d="M356.076 136.658h-1.156v2.254h-1.318v-6.398h2.496q.721 0 1.268.264.547.264.842.749.294.486.294 1.105 0 .94-.644 1.483-.644.543-1.782.543zm-1.156-3.076v2.008h1.178q.523 0 .798-.246.275-.246.275-.703 0-.47-.277-.76-.277-.29-.765-.299h-1.209z"/><path id="U" d="M82.18 116.645q0-.623-.439-.956-.439-.333-1.582-.703-1.143-.37-1.809-.729-1.816-.981-1.816-2.644 0-.864.487-1.542.487-.677 1.399-1.058.912-.381 2.047-.381 1.143 0 2.036.414.894.414 1.388 1.168.494.754.494 1.714h-2.197q0-.732-.461-1.139-.461-.406-1.296-.406-.806 0-1.252.341-.447.341-.447.897 0 .52.524.872.524.352 1.542.659 1.875.564 2.732 1.399.857.835.857 2.08 0 1.384-1.047 2.172-1.047.787-2.82.787-1.23 0-2.241-.45-1.011-.45-1.542-1.234-.531-.784-.531-1.816h2.205q0 1.765 2.109 1.765.784 0 1.223-.319.439-.319.439-.89z"/><path id="V" d="M93.899 108.778v1.78h-3.267v8.884h-2.197v-8.884h-3.223v-1.78h8.687z"/><path id="W" d="M90.711 138.39h2.197q-.125 1.721-1.271 2.71-1.146.989-3.021.989-2.051 0-3.226-1.381-1.176-1.381-1.176-3.79v-.652q0-1.538.542-2.71.542-1.172 1.549-1.798 1.007-.626 2.34-.626 1.846 0 2.974.989 1.128.989 1.304 2.776h-2.197q-.081-1.033-.575-1.498-.494-.465-1.505-.465-1.099 0-1.644.787-.546.787-.56 2.443v.806q0 1.729.524 2.527.524.798 1.652.798 1.018 0 1.52-.465.502-.465.575-1.439z"/><path id="X" d="M434.512 145.009v.918h-2.25v1.523h2.641v.941h-3.812v-5.687h3.805v.949h-2.633v1.355h2.25z"/></defs><symbol id="Y" overflow="visible"><g class="C"><path d="M941.497 187.173h22.781v-71.124h-56.946V0H56.946v11.24H0v89.836h56.946v116.044h850.386v-14.973h18.982l15.183-14.973z" fill="url(#A)" class="I P"/><ellipse cx="118.725" cy="114.599" rx="7.68" ry="7.62" class="D F"/><path d="M124.996 114.614c0-3.504-2.841-6.345-6.345-6.345s-6.346 2.841-6.346 6.345 2.841 6.346 6.346 6.346 6.345-2.841 6.345-6.346z" class="E H L"/><ellipse cx="118.725" cy="136.189" rx="7.68" ry="7.62" class="D F"/><path d="M124.996 136.204c0-3.504-2.841-6.345-6.345-6.345s-6.346 2.841-6.346 6.345 2.841 6.345 6.346 6.345 6.345-2.841 6.345-6.345z" class="E H L"/><ellipse cx="118.725" cy="157.779" rx="7.68" ry="7.62" class="D F"/><path d="M124.996 157.784c0-3.504-2.841-6.345-6.345-6.345s-6.346 2.841-6.346 6.345 2.841 6.345 6.346 6.345 6.345-2.841 6.345-6.345z" class="E H L"/></g><path d="M141.565 176.689h85.2V25.969h-85.2v150.72z" class="D F H"/><path d="M221.32 174.249h-74.244c-.781 0-1.415-.633-1.415-1.415V30.621a1.41 1.41 0 0 1 1.415-1.415h74.244a1.41 1.41 0 0 1 1.415 1.415v142.214c0 .781-.633 1.415-1.415 1.415z" fill="url(#C)" class="C H I"/><g class="B"><path d="M195 31l1 4 3 1 1 6 14 2v35h-60V44l14-1 1-7 3-1 1-4h22z" class="J"/><path d="M161.834 86.697h44.42c1.71-.702 2.335-2.308 1.397-3.587-.324-.441-.808-.803-1.397-1.045h-44.056c-1.773.733-2.416 2.403-1.436 3.729.263.357.63.665 1.072.903z" fill="url(#D)"/></g><path d="M142.195 145.169h-4.8m25.56 44.76h-25.56v-83.16h4.8m83.53 38.4h4.8m-25.56 44.76h25.56v-83.16h-4.8" class="C F G S"/><path d="M176.145 189.799h16.8" class="G M"/><g class="B D"><circle cx="176.085" cy="189.859" r="1.8"/><path d="M194.015 189.799l-2.88-1.8v3.36l2.88-1.56zm-6.26 1.85h2.4v2.4h-2.4z"/></g><path d="M182.515 189.789l2.64 2.4 2.64.72m-7.9-3.17l2.64-2.4 2.64-.72" class="G M"/><path d="M182.725 11.533h3v2.4h-3z" class="B Q"/><path d="M185.725 13.933v-2.4h-3v2.4h3z" class="G R"/><path d="M179.335 16.623h3v2.4h-3z" class="B Q"/><path d="M182.335 19.023v-2.4h-3v2.4h3z" class="G R"/><path d="M186.115 16.623h3v2.4h-3z" class="B Q"/><g class="G R"><path d="M189.115 19.023v-2.4h-3v2.4h3zm-10.37-3.676h10.8"/><path d="M180.835 15.347v1.44m6.79-1.44v1.44m-3.39-2.854v1.44" class="C S"/></g><g class="H"><path d="M239.065 176.339h85.2v-67.92h-85.2v67.92z" class="D F"/><path d="M318.82 172.81h-74.244c-.781 0-1.415-.633-1.415-1.415v-57.979c0-.781.634-1.415 1.415-1.415h74.244c.781 0 1.415.634 1.415 1.415v57.979c0 .781-.633 1.415-1.415 1.415z" fill="url(#C)" class="C I"/></g><g class="B"><path d="M293.047 113.839l1.032 4.05 3.096 1.013 1.032 6.075 14.448 2.025v35.438h-61.92v-35.437l14.448-1.012 1.032-7.088 3.096-1.013 1.032-4.05h22.704z" class="J"/><g fill="#856427"><use xlink:href="#O"/><use xlink:href="#O" x="-4.74"/><use xlink:href="#O" x="-14.24"/><use xlink:href="#O" x="-9.49"/><use xlink:href="#O" x="-18.99"/><use xlink:href="#O" x="-23.74"/><use xlink:href="#O" x="-28.48"/><path d="M266.635 155.209h-3v5.52h3z"/></g></g><g stroke="#737373" fill="url(#E)" class="E"><path d="M265.375 126.5H248.13v-8.849h17.245v8.849z"/><path d="M315.495 126.59H298.25v-8.849h17.245v8.849z"/></g><g stroke-width=".72" class="G"><path d="M275.595 90.199h12.48v9.32h-12.48z"/><path d="M276.595 91.199h10.5v7.25h-10.5zm1.25 9.5h8"/><path d="M281.845 100.699v-1"/></g><path d="M442.597 159.978a5.38 5.38 0 1 0-10.762 0c0 2.972 2.409 5.381 5.381 5.381a5.38 5.38 0 0 0 5.381-5.381z" class="C E H L"/><path d="M371.923 176.278c8.398 0 15.207-6.85 15.207-15.299s-6.808-15.299-15.207-15.299-15.208 6.85-15.208 15.299 6.808 15.299 15.208 15.299z" fill="url(#F)" class="B"/><g fill="url(#G)" class="C E"><path d="M358.461 160.985c0 7.514 6.05 13.606 13.511 13.606s13.513-6.091 13.513-13.606-6.05-13.606-13.513-13.606-13.511 6.091-13.511 13.606z" stroke="#d9d9d9"/><path d="M362.173 160.993c0 5.447 4.386 9.863 9.796 9.863s9.796-4.416 9.796-9.863-4.386-9.864-9.796-9.864-9.796 4.416-9.796 9.864z" stroke="#c89f00"/></g><path d="M365.885 161.039c0 3.24 2.76 6 6 6s6-2.76 6-6a6.02 6.02 0 0 0-6-6 5.94 5.94 0 0 0-6 6z" fill="#c90" class="B"/><g class="C"><g fill="url(#H)" class="E"><path d="M366.509 160.999c0 3.032 2.441 5.491 5.453 5.491s5.453-2.458 5.453-5.491-2.441-5.49-5.453-5.49-5.453 2.458-5.453 5.49z" stroke="#c89f00"/><path d="M370.598 161.007c0 .756.608 1.368 1.359 1.368s1.359-.613 1.359-1.368-.608-1.368-1.359-1.368-1.359.613-1.359 1.368z" stroke="#eabb00"/></g><g stroke="#a6a6a6"><path d="M650.365 205.679l-2.76 2.28v9.36l2.76 2.4h89.04v-14.04h-89.04z" class="F J"/><path d="M936.106 221.389l29.83-.234v-18.014l-29.596-.118-4.595 5.004v9.359l4.361 4.003z" fill="url(#I)" class="I"/></g></g><path d="M937.285 208.021h-96.969v9.358h96.969z" fill="url(#I)" class="B"/><g stroke="#a6a6a6"><path d="M937.285 217.379h-96.969v-9.358h96.969v9.358z" class="G I"/><path d="M748.855 219.699h92.16v-14.04h-92.16v14.04zm-8.93.12h8.4v-9.6h-8.4v9.6z" class="F J"/></g><g class="B D"><path d="M99.084 53.133l-7.32-4.32-7.44 4.32v8.4l7.44 4.44 7.44-4.32v-8.4zm18.981 0l-7.32-4.32-7.44 4.32v8.4l7.44 4.44 7.44-4.32v-8.4zm-28.59-17.708l-7.32-4.32-7.44 4.32v8.4l7.44 4.44 7.44-4.32v-8.4zm18.984 0l-7.32-4.32-7.44 4.32v8.4l7.44 4.44 7.44-4.32v-8.4zm11.666 12.84v-17.16l-7.44 4.32v8.4l7.44 4.44zM99.084 17.716l-7.32-4.32-7.44 4.32v8.4l7.44 4.44 7.44-4.32v-8.4zm18.981 0l-7.32-4.32-7.44 4.32v8.4l7.44 4.44 7.44-4.32v-8.4z"/><circle cx="185.45" cy="186.45" r="1.2"/></g><path fill="#856427" d="M169.135 72.255h-3v5.52h3zm4.75.048h-3.02v5.472h3.02zm4.74 0h-3.02v5.472h3.02zm4.75 0h-3.02v5.472h3.02zm9.5 0h-3.02v5.472h3.02zm-4.75 0h-3.02v5.472h3.02zm9.5 0h-3.02v5.472h3.02zm4.74 0h-3.02v5.472h3.02z" class="B"/><g class="C"><use xlink:href="#P" stroke="#d8d8d8" fill="#1a1a1a" class="M"/><path d="M211.719 91.438h-55.068c-1.669 0-2.503 1.669-2.503 2.503v2.503h-2.503v20.859h2.503v1.669c0 1.669.834 3.337 2.503 3.337h55.068c1.669 0 2.503-1.669 2.503-3.337v-1.669h2.502V96.445h-2.502v-2.503c0-.834-.834-2.503-2.503-2.503z" class="N O T"/></g><g class="B"><path fill="#333" d="M154.335 95.569h60v22.56h-60z"/><use xlink:href="#Q" fill="#e6a835"/></g><g class="C"><path d="M158.315 105.589h51.84v-6.72h-51.84v6.72z" fill="#666" stroke-width=".96" class="N"/><use xlink:href="#P" y="47.34" stroke="#d8d8d8" fill="#1a1a1a" class="M"/><path d="M211.719 138.778h-55.068c-1.669 0-2.503 1.669-2.503 2.503v2.503h-2.503v20.858h2.503v1.669c0 1.669.834 3.338 2.503 3.338h55.068c1.669 0 2.503-1.669 2.503-3.338v-1.669h2.502v-20.858h-2.502v-2.503c0-.834-.834-2.503-2.503-2.503z" class="N O T"/></g><g class="B"><path fill="#333" d="M154.335 142.909h60v22.56h-60z"/><use xlink:href="#Q" y="47.34" fill="#e6a835"/></g><path d="M158.315 152.929h51.84v-6.72h-51.84v6.72z" fill="#666" stroke-width=".96" class="C N"/><g class="B"><path d="M848.791 54.288h2.522v9.845h-2.522zm22.851 2.822c-.122-.053-.851-.527-2.066-.527-1.701 0-2.795 1.117-2.795 2.625 0 1.464 1.094 2.629 2.795 2.629 1.215 0 1.945-.463 2.066-.523v2.643c-.243.087-1.094.351-2.309.351-2.795 0-5.226-1.927-5.226-5.1 0-2.94 2.188-5.096 5.226-5.096 1.215 0 2.066.284 2.309.353v2.643zm-26.254 0c-.122-.053-.972-.527-2.188-.527-1.58 0-2.795 1.117-2.795 2.625 0 1.464 1.094 2.629 2.795 2.629 1.215 0 2.066-.463 2.188-.523v2.643c-.365.087-1.216.351-2.309.351-2.917 0-5.348-1.927-5.348-5.1 0-2.94 2.188-5.096 5.348-5.096 1.094 0 2.066.284 2.309.353v2.643zm39.501 2.099c0 2.817-2.188 5.1-5.226 5.1-3.16 0-5.348-2.283-5.348-5.1s2.188-5.096 5.348-5.096c3.039 0 5.226 2.284 5.226 5.096zm-5.226-2.589c-1.58 0-2.674 1.161-2.674 2.589s1.094 2.592 2.674 2.592c1.459 0 2.552-1.159 2.552-2.592s-1.094-2.589-2.552-2.589zm-18.717-.095c-.122-.012-1.094-.299-2.066-.299s-1.458.335-1.458.807c0 .599.729.809 1.094.939l.729.218c1.58.512 2.309 1.616 2.309 2.817 0 2.473-2.188 3.304-4.132 3.304-.898-.007-1.793-.097-2.674-.269v-2.266c.243.055 1.216.366 2.431.366s1.823-.362 1.823-.919c0-.498-.486-.787-1.216-.982-.121-.05-.365-.12-.486-.171-1.458-.437-2.552-1.251-2.552-2.88 0-1.841 1.337-3.077 3.646-3.077 1.215 0 2.431.293 2.552.314v2.101z" fill="#c41230"/><g fill="#005568"><path d="M835.057 43.707a1.27 1.27 0 0 0-1.215-1.229c-.729 0-1.337.551-1.337 1.229v2.586c0 .682.608 1.233 1.337 1.233a1.27 1.27 0 0 0 1.215-1.233v-2.586z"/><use xlink:href="#R"/><path d="M848.791 35.673c-.015-.66-.546-1.197-1.215-1.228-.729 0-1.337.551-1.337 1.228v13.073c0 .682.608 1.233 1.337 1.233a1.27 1.27 0 0 0 1.215-1.233V35.673z"/><use xlink:href="#R" x="13.734"/><path d="M862.525 43.707c0-.679-.486-1.229-1.215-1.229s-1.216.551-1.216 1.229v2.586c0 .682.486 1.233 1.216 1.233s1.215-.551 1.215-1.233v-2.586z"/><use xlink:href="#S"/><path d="M876.26 35.673c0-.679-.486-1.228-1.215-1.228-.67.031-1.201.568-1.216 1.228v13.073a1.27 1.27 0 0 0 1.216 1.233c.729 0 1.215-.551 1.215-1.233V35.673z"/><use xlink:href="#S" x="13.734"/><path d="M890.115 43.707c0-.679-.608-1.229-1.337-1.229a1.27 1.27 0 0 0-1.215 1.229v2.586a1.27 1.27 0 0 0 1.215 1.233c.729 0 1.337-.551 1.337-1.233v-2.586z"/></g><g class="D"><path d="M469.395 110.529v-4.32l-7.32-4.08-7.44 4.08v4.32h14.76zm-18.99 0v-4.32l-7.32-4.08-7.44 4.08v4.32h14.76zm-18.98 0v-4.32l-7.32-4.08-7.44 4.08v4.32h14.76zm-18.99 0v-4.32l-7.32-4.08-7.44 4.08v4.32h14.76zm-18.98 0v-4.32l-7.32-4.08-7.44 4.08v4.32h14.76zm-18.98 0v-4.32l-7.32-4.08-7.44 4.08v4.32h14.76zm-8.87-21.98l-7.44-4.32v17.16l7.44-4.32v-8.4zm18.89 0l-7.32-4.32-7.44 4.32v8.4l7.44 4.44 7.44-4.32v-8.4zm18.99 0l-7.32-4.32-7.44 4.32v8.4l7.44 4.44 7.44-4.32v-8.4zm18.98 0l-7.32-4.32-7.44 4.32v8.4l7.44 4.44 7.44-4.32v-8.4zm18.98 0l-7.32-4.32-7.44 4.32v8.4l7.44 4.44 7.44-4.32v-8.4zm18.99 0l-7.32-4.32-7.44 4.32v8.4l7.44 4.44 7.44-4.32v-8.4zm18.98 0l-7.32-4.32-7.44 4.32v8.4l7.44 4.44 7.44-4.32v-8.4zm-103.57-17.708l-7.32-4.32-7.44 4.32v8.4l7.44 4.44 7.44-4.32v-8.4zm18.99 0l-7.32-4.32-7.44 4.32v8.4l7.44 4.44 7.44-4.32v-8.4zm18.98 0l-7.32-4.32-7.44 4.32v8.4l7.44 4.44 7.44-4.32v-8.4zm18.98 0l-7.32-4.32-7.44 4.32v8.4l7.44 4.44 7.44-4.32v-8.4zm18.99 0l-7.32-4.32-7.44 4.32v8.4l7.44 4.44 7.44-4.32v-8.4zm18.98 0l-7.32-4.32-7.44 4.32v8.4l7.44 4.44 7.44-4.32v-8.4zm-189.83 4.299v-4.32l-7.32-4.32-7.44 4.32v4.32h14.76zm4.22 0h14.76v-4.32l-7.32-4.32-7.44 4.32v4.32zm18.98 0h14.76v-4.32l-7.32-4.32-7.44 4.32v4.32zm18.99 0h14.76v-4.32l-7.32-4.32-7.44 4.32v4.32zm18.98 0h14.76v-4.32l-7.32-4.32-7.44 4.32v4.32zm-70.76-22.007l-7.32-4.32-7.44 4.32v8.4l7.44 4.44 7.44-4.32v-8.4zm18.99 0l-7.32-4.32-7.44 4.32v8.4l7.44 4.44 7.44-4.32v-8.4zm18.98 0l-7.32-4.32-7.44 4.32v8.4l7.44 4.44 7.44-4.32v-8.4zm18.98 0l-7.32-4.32-7.44 4.32v8.4l7.44 4.44 7.44-4.32v-8.4zm18.99 0l-7.32-4.32-7.44 4.32v8.4l7.44 4.44 7.44-4.32v-8.4zm18.98 0l-7.32-4.32-7.44 4.32v8.4l7.44 4.44 7.44-4.32v-8.4zm18.98 0l-7.32-4.32-7.44 4.32v8.4l7.44 4.44 7.44-4.32v-8.4zm18.99 0l-7.32-4.32-7.44 4.32v8.4l7.44 4.44 7.44-4.32v-8.4zm18.98 0l-7.32-4.32-7.44 4.32v8.4l7.44 4.44 7.44-4.32v-8.4zm18.99 0l-7.32-4.32-7.44 4.32v8.4l7.44 4.44 7.44-4.32v-8.4zm18.98 0l-7.32-4.32-7.44 4.32v8.4l7.44 4.44 7.44-4.32v-8.4zm18.98 0l-7.32-4.32-7.44 4.32v8.4l7.44 4.44 7.44-4.32v-8.4zm-199.44-17.708l-7.32-4.32-7.44 4.32v8.4l7.44 4.44 7.44-4.32v-8.4zm18.98 0l-7.32-4.32-7.44 4.32v8.4l7.44 4.44 7.44-4.32v-8.4zm18.98 0l-7.32-4.32-7.44 4.32v8.4l7.44 4.44 7.44-4.32v-8.4zm18.99 0l-7.32-4.32-7.44 4.32v8.4l7.44 4.44 7.44-4.32v-8.4zm18.98 0l-7.32-4.32-7.44 4.32v8.4l7.44 4.44 7.44-4.32v-8.4zm18.99 0l-7.32-4.32-7.44 4.32v8.4l7.44 4.44 7.44-4.32v-8.4zm18.98 0l-7.32-4.32-7.44 4.32v8.4l7.44 4.44 7.44-4.32v-8.4zm18.98 0l-7.32-4.32-7.44 4.32v8.4l7.44 4.44 7.44-4.32v-8.4zm18.99 0l-7.32-4.32-7.44 4.32v8.4l7.44 4.44 7.44-4.32v-8.4zm18.98 0l-7.32-4.32-7.44 4.32v8.4l7.44 4.44 7.44-4.32v-8.4zm18.98 0l-7.32-4.32-7.44 4.32v8.4l7.44 4.44 7.44-4.32v-8.4zm-199.21-17.709l-7.32-4.32-7.44 4.32v8.4l7.44 4.44 7.44-4.32v-8.4zm18.99 0l-7.32-4.32-7.44 4.32v8.4l7.44 4.44 7.44-4.32v-8.4zm18.98 0l-7.32-4.32-7.44 4.32v8.4l7.44 4.44 7.44-4.32v-8.4zm18.98 0l-7.32-4.32-7.44 4.32v8.4l7.44 4.44 7.44-4.32v-8.4zm18.99 0l-7.32-4.32-7.44 4.32v8.4l7.44 4.44 7.44-4.32v-8.4zm18.98 0l-7.32-4.32-7.44 4.32v8.4l7.44 4.44 7.44-4.32v-8.4zm18.98 0l-7.32-4.32-7.44 4.32v8.4l7.44 4.44 7.44-4.32v-8.4zm18.99 0l-7.32-4.32-7.44 4.32v8.4l7.44 4.44 7.44-4.32v-8.4zm18.98 0l-7.32-4.32-7.44 4.32v8.4l7.44 4.44 7.44-4.32v-8.4zm18.99 0l-7.32-4.32-7.44 4.32v8.4l7.44 4.44 7.44-4.32v-8.4zm18.98 0l-7.32-4.32-7.44 4.32v8.4l7.44 4.44 7.44-4.32v-8.4zm18.98 0l-7.32-4.32-7.44 4.32v8.4l7.44 4.44 7.44-4.32v-8.4zm8.21 92.813v-4.32l-7.32-4.08-7.44 4.08v4.32h14.76zm18.98-4.27l-7.32-4.32-7.44 4.32v8.4l7.44 4.44 7.44-4.32v-8.4zm18.99 0l-7.32-4.32-7.44 4.32v8.4l7.44 4.44 7.44-4.32v-8.4zm18.98 0l-7.32-4.32-7.44 4.32v8.4l7.44 4.44 7.44-4.32v-8.4zm18.98 0l-7.32-4.32-7.44 4.32v8.4l7.44 4.44 7.44-4.32v-8.4zm18.99 0l-7.32-4.32-7.44 4.32v8.4l7.44 4.44 7.44-4.32v-8.4zm18.98 0l-7.32-4.32-7.44 4.32v8.4l7.44 4.44 7.44-4.32v-8.4zm18.98 0l-7.32-4.32-7.44 4.32v8.4l7.44 4.44 7.44-4.32v-8.4zm18.99 0l-7.32-4.32-7.44 4.32v8.4l7.44 4.44 7.44-4.32v-8.4zm18.98 0l-7.32-4.32-7.44 4.32v8.4l7.44 4.44 7.44-4.32v-8.4zm18.99 0l-7.32-4.32-7.44 4.32v8.4l7.44 4.44 7.44-4.32v-8.4zm18.98 0l-7.32-4.32-7.44 4.32v8.4l7.44 4.44 7.44-4.32v-8.4zm18.98 0l-7.32-4.32-7.44 4.32v8.4l7.44 4.44 7.44-4.32v-8.4zm18.99 0l-7.32-4.32-7.44 4.32v8.4l7.44 4.44 7.44-4.32v-8.4zm18.98 0l-7.32-4.32-7.44 4.32v8.4l7.44 4.44 7.44-4.32v-8.4zm18.98 0l-7.32-4.32-7.44 4.32v8.4l7.44 4.44 7.44-4.32v-8.4zm18.99 0l-7.32-4.32-7.44 4.32v8.4l7.44 4.44 7.44-4.32v-8.4zm18.98 0l-7.32-4.32-7.44 4.32v8.4l7.44 4.44 7.44-4.32v-8.4zm-312.7-17.71l-7.32-4.32-7.44 4.32v8.4l7.44 4.44 7.44-4.32v-8.4zm18.99 0l-7.32-4.32-7.44 4.32v8.4l7.44 4.44 7.44-4.32v-8.4zm18.98 0l-7.32-4.32-7.44 4.32v8.4l7.44 4.44 7.44-4.32v-8.4zm18.99 0l-7.32-4.32-7.44 4.32v8.4l7.44 4.44 7.44-4.32v-8.4zm18.98 0l-7.32-4.32-7.44 4.32v8.4l7.44 4.44 7.44-4.32v-8.4zm18.98 0l-7.32-4.32-7.44 4.32v8.4l7.44 4.44 7.44-4.32v-8.4zm18.99 0l-7.32-4.32-7.44 4.32v8.4l7.44 4.44 7.44-4.32v-8.4zm18.98 0l-7.32-4.32-7.44 4.32v8.4l7.44 4.44 7.44-4.32v-8.4zm18.98 0l-7.32-4.32-7.44 4.32v8.4l7.44 4.44 7.44-4.32v-8.4zm18.99 0l-7.32-4.32-7.44 4.32v8.4l7.44 4.44 7.44-4.32v-8.4zm18.98 0l-7.32-4.32-7.44 4.32v8.4l7.44 4.44 7.44-4.32v-8.4zm18.98 0l-7.32-4.32-7.44 4.32v8.4l7.44 4.44 7.44-4.32v-8.4zm18.99 0l-7.32-4.32-7.44 4.32v8.4l7.44 4.44 7.44-4.32v-8.4zm18.98 0l-7.32-4.32-7.44 4.32v8.4l7.44 4.44 7.44-4.32v-8.4zm18.98 0l-7.32-4.32-7.44 4.32v8.4l7.44 4.44 7.44-4.32v-8.4zm18.99 0l-7.32-4.32-7.44 4.32v8.4l7.44 4.44 7.44-4.32v-8.4zm18.98 0l-7.32-4.32-7.44 4.32v8.4l7.44 4.44 7.44-4.32v-8.4zm11.67 12.84v-17.16l-7.44 4.32v8.4l7.44 4.44zm-324.05-30.548l-7.32-4.32-7.44 4.32v8.4l7.44 4.44 7.44-4.32v-8.4zm18.98 0l-7.32-4.32-7.44 4.32v8.4l7.44 4.44 7.44-4.32v-8.4zm18.98 0l-7.32-4.32-7.44 4.32v8.4l7.44 4.44 7.44-4.32v-8.4zm18.99 0l-7.32-4.32-7.44 4.32v8.4l7.44 4.44 7.44-4.32v-8.4zm18.98 0l-7.32-4.32-7.44 4.32v8.4l7.44 4.44 7.44-4.32v-8.4zm18.98 0l-7.32-4.32-7.44 4.32v8.4l7.44 4.44 7.44-4.32v-8.4zm18.99 0l-7.32-4.32-7.44 4.32v8.4l7.44 4.44 7.44-4.32v-8.4zm18.98 0l-7.32-4.32-7.44 4.32v8.4l7.44 4.44 7.44-4.32v-8.4zm18.98 0l-7.32-4.32-7.44 4.32v8.4l7.44 4.44 7.44-4.32v-8.4zm18.99 0l-7.32-4.32-7.44 4.32v8.4l7.44 4.44 7.44-4.32v-8.4zm18.98 0l-7.32-4.32-7.44 4.32v8.4l7.44 4.44 7.44-4.32v-8.4zm18.98 0l-7.32-4.32-7.44 4.32v8.4l7.44 4.44 7.44-4.32v-8.4zm18.99 0l-7.32-4.32-7.44 4.32v8.4l7.44 4.44 7.44-4.32v-8.4zm18.98 0l-7.32-4.32-7.44 4.32v8.4l7.44 4.44 7.44-4.32v-8.4zm18.99 0l-7.32-4.32-7.44 4.32v8.4l7.44 4.44 7.44-4.32v-8.4zm18.98 0l-7.32-4.32-7.44 4.32v8.4l7.44 4.44 7.44-4.32v-8.4zm18.98 0l-7.32-4.32-7.44 4.32v8.4l7.44 4.44 7.44-4.32v-8.4zm18.99 0l-7.32-4.32-7.44 4.32v8.4l7.44 4.44 7.44-4.32v-8.4zm-313.32-17.708l-7.32-4.32-7.44 4.32v8.4l7.44 4.44 7.44-4.32v-8.4zm18.98 0l-7.32-4.32-7.44 4.32v8.4l7.44 4.44 7.44-4.32v-8.4zm18.98 0l-7.32-4.32-7.44 4.32v8.4l7.44 4.44 7.44-4.32v-8.4zm18.99 0l-7.32-4.32-7.44 4.32v8.4l7.44 4.44 7.44-4.32v-8.4zm18.98 0l-7.32-4.32-7.44 4.32v8.4l7.44 4.44 7.44-4.32v-8.4zm18.98 0l-7.32-4.32-7.44 4.32v8.4l7.44 4.44 7.44-4.32v-8.4zm18.99 0l-7.32-4.32-7.44 4.32v8.4l7.44 4.44 7.44-4.32v-8.4zm18.98 0l-7.32-4.32-7.44 4.32v8.4l7.44 4.44 7.44-4.32v-8.4zm18.98 0l-7.32-4.32-7.44 4.32v8.4l7.44 4.44 7.44-4.32v-8.4zm18.99 0l-7.32-4.32-7.44 4.32v8.4l7.44 4.44 7.44-4.32v-8.4zm18.98 0l-7.32-4.32-7.44 4.32v8.4l7.44 4.44 7.44-4.32v-8.4zm18.99 0l-7.32-4.32-7.44 4.32v8.4l7.44 4.44 7.44-4.32v-8.4zm18.98 0l-7.32-4.32-7.44 4.32v8.4l7.44 4.44 7.44-4.32v-8.4zm18.98 0l-7.32-4.32-7.44 4.32v8.4l7.44 4.44 7.44-4.32v-8.4zm18.99 0l-7.32-4.32-7.44 4.32v8.4l7.44 4.44 7.44-4.32v-8.4zm18.98 0l-7.32-4.32-7.44 4.32v8.4l7.44 4.44 7.44-4.32v-8.4zm18.98 0l-7.32-4.32-7.44 4.32v8.4l7.44 4.44 7.44-4.32v-8.4zm11.67 12.84v-17.16l-7.44 4.32v8.4l7.44 4.44zm-325.01-30.548l-7.32-4.32-7.44 4.32v8.4l7.44 4.44 7.44-4.32v-8.4zm18.98 0l-7.32-4.32-7.44 4.32v8.4l7.44 4.44 7.44-4.32v-8.4zm18.98 0l-7.32-4.32-7.44 4.32v8.4l7.44 4.44 7.44-4.32v-8.4zm18.99 0l-7.32-4.32-7.44 4.32v8.4l7.44 4.44 7.44-4.32v-8.4zm18.98 0l-7.32-4.32-7.44 4.32v8.4l7.44 4.44 7.44-4.32v-8.4zm18.99 0l-7.32-4.32-7.44 4.32v8.4l7.44 4.44 7.44-4.32v-8.4zm18.98 0l-7.32-4.32-7.44 4.32v8.4l7.44 4.44 7.44-4.32v-8.4zm18.98 0l-7.32-4.32-7.44 4.32v8.4l7.44 4.44 7.44-4.32v-8.4zm18.99 0l-7.32-4.32-7.44 4.32v8.4l7.44 4.44 7.44-4.32v-8.4zm18.98 0l-7.32-4.32-7.44 4.32v8.4l7.44 4.44 7.44-4.32v-8.4zm18.98 0l-7.32-4.32-7.44 4.32v8.4l7.44 4.44 7.44-4.32v-8.4zm18.99 0l-7.32-4.32-7.44 4.32v8.4l7.44 4.44 7.44-4.32v-8.4zm18.98 0l-7.32-4.32-7.44 4.32v8.4l7.44 4.44 7.44-4.32v-8.4zm18.98 0l-7.32-4.32-7.44 4.32v8.4l7.44 4.44 7.44-4.32v-8.4zm18.99 0l-7.32-4.32-7.44 4.32v8.4l7.44 4.44 7.44-4.32v-8.4zm18.98 0l-7.32-4.32-7.44 4.32v8.4l7.44 4.44 7.44-4.32v-8.4zm18.98 0l-7.32-4.32-7.44 4.32v8.4l7.44 4.44 7.44-4.32v-8.4zm18.99 0l-7.32-4.32-7.44 4.32v8.4l7.44 4.44 7.44-4.32v-8.4zm-313.11-17.709l-7.32-4.32-7.44 4.32v8.4l7.44 4.44 7.44-4.32v-8.4zm18.98 0l-7.32-4.32-7.44 4.32v8.4l7.44 4.44 7.44-4.32v-8.4zm18.98 0l-7.32-4.32-7.44 4.32v8.4l7.44 4.44 7.44-4.32v-8.4zm18.99 0l-7.32-4.32-7.44 4.32v8.4l7.44 4.44 7.44-4.32v-8.4zm18.98 0l-7.32-4.32-7.44 4.32v8.4l7.44 4.44 7.44-4.32v-8.4zm18.98 0l-7.32-4.32-7.44 4.32v8.4l7.44 4.44 7.44-4.32v-8.4zm18.99 0l-7.32-4.32-7.44 4.32v8.4l7.44 4.44 7.44-4.32v-8.4zm18.98 0l-7.32-4.32-7.44 4.32v8.4l7.44 4.44 7.44-4.32v-8.4zm18.98 0l-7.32-4.32-7.44 4.32v8.4l7.44 4.44 7.44-4.32v-8.4zm18.99 0l-7.32-4.32-7.44 4.32v8.4l7.44 4.44 7.44-4.32v-8.4zm18.98 0l-7.32-4.32-7.44 4.32v8.4l7.44 4.44 7.44-4.32v-8.4zm18.99 0l-7.32-4.32-7.44 4.32v8.4l7.44 4.44 7.44-4.32v-8.4zm18.98 0l-7.32-4.32-7.44 4.32v8.4l7.44 4.44 7.44-4.32v-8.4zm18.98 0l-7.32-4.32-7.44 4.32v8.4l7.44 4.44 7.44-4.32v-8.4zm18.99 0l-7.32-4.32-7.44 4.32v8.4l7.44 4.44 7.44-4.32v-8.4zm18.98 0l-7.32-4.32-7.44 4.32v8.4l7.44 4.44 7.44-4.32v-8.4zm18.98 0l-7.32-4.32-7.44 4.32v8.4l7.44 4.44 7.44-4.32v-8.4zm11.67 12.84v-17.16l-7.44 4.32v8.4l7.44 4.44zm-567.73 155.111v9.953h-2.051l-3.992-6.549v6.549h-2.051v-9.953h2.051l3.999 6.563v-6.562h2.044zm6.2 5.974q-.772.759-1.805.759-1.319 0-2.112-.906-.793-.906-.793-2.444 0-.978.427-1.794.427-.817 1.193-1.271.766-.455 1.723-.455.984 0 1.75.492.766.492 1.189 1.415.424.923.431 2.112v.731q0 2.488-1.237 3.91-1.237 1.422-3.507 1.518l-.485.007v-1.647l.438-.007q2.577-.116 2.789-2.42zm-1.319-.752q.479 0 .824-.246.345-.246.523-.595v-.813q0-1.005-.383-1.559-.383-.554-1.025-.554-.595 0-.978.543-.383.543-.383 1.364 0 .813.373 1.336.373.523 1.049.523zm10.616 4.731l-2.557-3.992-1.066 1.148v2.844h-2.051v-9.953h2.051v4.512l.902-1.237 2.536-3.274h2.522l-3.534 4.423 3.637 5.53h-2.44zm5.804-5.059v1.593h-3.849v-1.593h3.849zm6.876 2.448q0-.581-.41-.892-.41-.311-1.477-.656-1.066-.345-1.688-.68-1.695-.916-1.695-2.468 0-.807.455-1.439.455-.632 1.306-.988.851-.355 1.911-.355 1.066 0 1.9.386.834.386 1.295 1.09.461.704.461 1.6h-2.051q0-.684-.431-1.063-.431-.379-1.21-.379-.752 0-1.169.318-.417.318-.417.837 0 .485.489.813.489.328 1.439.615 1.75.526 2.55 1.306.8.779.8 1.941 0 1.292-.978 2.027-.978.735-2.632.735-1.148 0-2.092-.42-.943-.42-1.439-1.152-.496-.731-.496-1.695h2.058q0 1.647 1.969 1.647.731 0 1.142-.297.41-.297.41-.831zm8.921-7.342h2.058v6.556q0 1.634-1.022 2.584-1.022.95-2.792.95-1.743 0-2.769-.923-1.025-.923-1.046-2.536v-6.631h2.051v6.569q0 .978.468 1.425.468.448 1.295.448 1.729 0 1.757-1.818v-6.624zm7.589 6.446h-1.798v3.507h-2.051v-9.953h3.883q1.121 0 1.972.41.851.41 1.309 1.166.458.755.458 1.719 0 1.463-1.001 2.307-1.001.844-2.772.844zm-1.798-4.785v3.124h1.832q.813 0 1.241-.383.427-.383.427-1.094 0-.731-.431-1.183-.431-.451-1.189-.465h-1.88zm10.691 3.233v1.593h-3.849v-1.593h3.849z"/><use xlink:href="#T"/><path d="M364.224 132.514v1.068h-1.96v5.331h-1.318v-5.331h-1.934v-1.068h5.212z"/><use xlink:href="#T" x="11.373"/><path d="M376.726 136.781h1.318q-.075 1.033-.762 1.626-.688.593-1.813.593-1.231 0-1.936-.828-.705-.828-.705-2.274v-.391q0-.923.325-1.626.325-.703.929-1.079.604-.376 1.404-.376 1.107 0 1.784.593.677.593.782 1.666h-1.318q-.048-.62-.345-.899-.297-.279-.903-.279-.659 0-.987.472-.327.472-.336 1.465v.483q0 1.037.314 1.516.314.479.991.479.611 0 .912-.279.301-.279.345-.864zm3.502-4.267v5.339h2.799v1.059h-4.118v-6.398h1.318zm7.204 6.398l-1.644-2.566-.685.738v1.828h-1.318v-6.398h1.318v2.9l.58-.795 1.63-2.105h1.622l-2.272 2.843 2.338 3.555h-1.569z"/></g></g><g class="C"><g stroke="#9a9a9a" class="K"><path d="M37.021 46.344c11.668-6.755 15.539-21.882 8.647-33.787S23.729-3.522 12.062 3.233-3.478 25.115 3.414 37.019s21.938 16.08 33.606 9.325z" fill="url(#K)" transform="translate(5.783 31.932)"/><path d="M41.332 75.761c10.307-5.967 13.726-19.329 7.638-29.846S29.591 31.713 19.284 37.68 5.558 57.009 11.646 67.524s19.379 14.204 29.686 8.237z" class="O"/></g><g class="P"><path d="M39.122 71.987c8.263-4.784 11.005-15.496 6.123-23.928S29.71 36.673 21.447 41.456s-11.005 15.496-6.124 23.926 15.537 11.388 23.799 6.604z" fill="url(#L)" class="U"/><path d="M24.996 40.824l5.835 32.726c1.755.346 3.468.04 4.995-.891l-5.835-32.726a6.86 6.86 0 0 0-4.995.891z" fill="url(#M)" class="E"/><path d="M27.837 60.608l.455 2.468a33.79 33.79 0 0 0 6.719-1.148l-.454-2.468 1.878-.321a37.08 37.08 0 0 0-1.254-6.808l-1.878.321-.426-2.315c-2.249.151-4.554.545-6.719 1.148l.426 2.315-2.312.395a37.08 37.08 0 0 0 1.254 6.808l2.311-.395z" fill="url(#N)" class="K"/></g><g stroke="#9a9a9a"><path d="M37.021 46.344c11.668-6.755 15.539-21.882 8.647-33.787S23.729-3.522 12.062 3.233-3.478 25.115 3.414 37.019s21.938 16.08 33.606 9.325z" fill="url(#K)" transform="translate(880.919 145.423)" class="K"/><path d="M916.468 189.252c10.307-5.967 13.726-19.329 7.638-29.846s-19.378-14.203-29.685-8.236-13.726 19.329-7.639 29.845 19.379 14.204 29.686 8.237z" class="K O"/></g><g class="P"><path d="M914.258 185.478c8.263-4.784 11.005-15.496 6.123-23.928s-15.536-11.386-23.799-6.603-11.005 15.496-6.124 23.926 15.536 11.388 23.799 6.604z" fill="url(#L)" class="U"/><path d="M900.132 154.315l5.835 32.726c1.755.346 3.468.04 4.995-.891l-5.835-32.726a6.86 6.86 0 0 0-4.995.891z" fill="url(#M)" class="E"/><path d="M902.973 174.099l.455 2.468a33.79 33.79 0 0 0 6.719-1.148l-.455-2.468 1.878-.321a37.08 37.08 0 0 0-1.254-6.808l-1.878.321-.426-2.315c-2.249.151-4.554.545-6.72 1.148l.426 2.315-2.312.395a37.08 37.08 0 0 0 1.254 6.808l2.312-.395z" fill="url(#N)" class="K"/></g></g><g class="B"><g class="J"><use xlink:href="#U"/><use xlink:href="#V"/><use xlink:href="#U" x="18.384"/><path d="M79.109 141.942h-4.146v-10.664h3.735q1.941 0 2.944.743 1.003.743 1.003 2.179 0 .784-.403 1.381-.403.597-1.121.875.82.205 1.293.828.472.623.472 1.523 0 1.538-.981 2.329-.981.791-2.798.806zm.066-4.644H77.16v2.878h1.882q.776 0 1.212-.37.436-.37.436-1.022 0-1.465-1.516-1.487zm-2.014-4.241v2.688h1.626q1.663-.029 1.663-1.326 0-.725-.421-1.044-.421-.319-1.329-.319H77.16z"/><use xlink:href="#W"/><path d="M103.022 131.278v10.664h-2.197l-4.277-7.017v7.017H94.35v-10.664h2.197l4.285 7.031v-7.031h2.19zm-20.72 33.169l-.74-2.197H77.71l-.732 2.197h-2.336l3.97-10.664h2.036l3.992 10.664h-2.336zm-2.673-7.969l-1.326 3.992h2.666l-1.34-3.992z"/><use xlink:href="#W" x="0.944" y="22.504"/><use xlink:href="#V" x="9.211" y="45.005"/></g><g class="D"><path d="M429.157 148.392l-1.066-2.082h-.934v2.082h-1.172v-5.687h2.113q1.008 0 1.555.449.547.449.547 1.27 0 .582-.252.971-.252.389-.764.619l1.23 2.324v.055h-1.258zm-2-4.738v1.707h.945q.441 0 .684-.225.242-.225.242-.619 0-.402-.229-.633-.229-.23-.701-.23h-.941z"/><use xlink:href="#X"/><path d="M438.54 146.899q0-.332-.234-.51-.234-.178-.844-.375-.609-.197-.965-.389-.969-.523-.969-1.41 0-.461.26-.822.26-.361.746-.564.486-.203 1.092-.203.609 0 1.086.221.477.221.74.623.264.402.264.914h-1.172q0-.391-.246-.607-.246-.217-.691-.217-.43 0-.668.182-.238.182-.238.479 0 .277.279.465.279.188.822.352 1 .301 1.457.746.457.445.457 1.109 0 .738-.559 1.158-.559.42-1.504.42-.656 0-1.195-.24-.539-.24-.822-.658-.283-.418-.283-.969h1.176q0 .941 1.125.941.418 0 .652-.17.234-.17.234-.475z"/><use xlink:href="#X" x="9.418"/><path d="M449.368 142.704v.949h-1.742v4.738h-1.172v-4.738h-1.719v-.949h4.633z"/><path d="M311.5 195.545h-2.097l-.833-2.168-3.815-.001-.788 2.168h-2.044l3.719-9.543h2.038zm-3.546-3.777l-1.315-3.542-1.291 3.542z" fill-rule="nonzero"/><path d="M494.645 194.799l-7.32-4.32-7.44 4.32v8.4l7.44 4.44 7.44-4.32v-8.4zm18.98 0l-7.32-4.32-7.44 4.32v8.4l7.44 4.44 7.44-4.32v-8.4zm18.98 0l-7.32-4.32-7.44 4.32v8.4l7.44 4.44 7.44-4.32v-8.4zm18.99 0l-7.32-4.32-7.44 4.32v8.4l7.44 4.44 7.44-4.32v-8.4zm18.98 0l-7.32-4.32-7.44 4.32v8.4l7.44 4.44 7.44-4.32v-8.4zm18.98 0l-7.32-4.32-7.44 4.32v8.4l7.44 4.44 7.44-4.32v-8.4zm18.99 0l-7.32-4.32-7.44 4.32v8.4l7.44 4.44 7.44-4.32v-8.4zm18.98 0l-7.32-4.32-7.44 4.32v8.4l7.44 4.44 7.44-4.32v-8.4zm18.99 0l-7.32-4.32-7.44 4.32v8.4l7.44 4.44 7.44-4.32v-8.4zm18.98 0l-7.32-4.32-7.44 4.32v8.4l7.44 4.44 7.44-4.32v-8.4zm18.98 0l-7.32-4.32-7.44 4.32v8.4l7.44 4.44 7.44-4.32v-8.4zm18.99 0l-7.32-4.32-7.44 4.32v8.4l7.44 4.44 7.44-4.32v-8.4zm18.98 0l-7.32-4.32-7.44 4.32v8.4l7.44 4.44 7.44-4.32v-8.4zm94.92 0l-7.32-4.32-7.44 4.32v8.4l7.44 4.44 7.44-4.32v-8.4zm18.98 0l-7.32-4.32-7.44 4.32v8.4l7.44 4.44 7.44-4.32v-8.4zm-341.7-35.42l-7.32-4.32-7.44 4.32v8.4l7.44 4.44 7.44-4.32v-8.4zm18.98 0l-7.32-4.32-7.44 4.32v8.4l7.44 4.44 7.44-4.32v-8.4zm18.98 0l-7.32-4.32-7.44 4.32v8.4l7.44 4.44 7.44-4.32v-8.4zm18.99 0l-7.32-4.32-7.44 4.32v8.4l7.44 4.44 7.44-4.32v-8.4zm18.98 0l-7.32-4.32-7.44 4.32v8.4l7.44 4.44 7.44-4.32v-8.4zm18.98 0l-7.32-4.32-7.44 4.32v8.4l7.44 4.44 7.44-4.32v-8.4zm18.99 0l-7.32-4.32-7.44 4.32v8.4l7.44 4.44 7.44-4.32v-8.4zm18.98 0l-7.32-4.32-7.44 4.32v8.4l7.44 4.44 7.44-4.32v-8.4zm18.99 0l-7.32-4.32-7.44 4.32v8.4l7.44 4.44 7.44-4.32v-8.4zm18.98 0l-7.32-4.32-7.44 4.32v8.4l7.44 4.44 7.44-4.32v-8.4zm18.98 0l-7.32-4.32-7.44 4.32v8.4l7.44 4.44 7.44-4.32v-8.4zm18.99 0l-7.32-4.32-7.44 4.32v8.4l7.44 4.44 7.44-4.32v-8.4zm18.98 0l-7.32-4.32-7.44 4.32v8.4l7.44 4.44 7.44-4.32v-8.4zm18.98 0l-7.32-4.32-7.44 4.32v8.4l7.44 4.44 7.44-4.32v-8.4zm18.99 0l-7.32-4.32-7.44 4.32v8.4l7.44 4.44 7.44-4.32v-8.4zm18.98 0l-7.32-4.32-7.44 4.32v8.4l7.44 4.44 7.44-4.32v-8.4zm18.98 0l-7.32-4.32-7.44 4.32v8.4l7.44 4.44 7.44-4.32v-8.4zm18.99 0l-7.32-4.32-7.44 4.32v8.4l7.44 4.44 7.44-4.32v-8.4zm18.98 0l-7.32-4.32-7.44 4.32v8.4l7.44 4.44 7.44-4.32v-8.4zm18.99 0l-7.32-4.32-7.44 4.32v8.4l7.44 4.44 7.44-4.32v-8.4zm18.98 0l-7.32-4.32-7.44 4.32v8.4l7.44 4.44 7.44-4.32v-8.4zm-388.53 17.71l-7.44-4.32v17.16l7.44-4.32v-8.4zm18.9 0l-7.32-4.32-7.44 4.32v8.4l7.44 4.44 7.44-4.32v-8.4zm18.98 0l-7.32-4.32-7.44 4.32v8.4l7.44 4.44 7.44-4.32v-8.4zm18.98 0l-7.32-4.32-7.44 4.32v8.4l7.44 4.44 7.44-4.32v-8.4zm18.99 0l-7.32-4.32-7.44 4.32v8.4l7.44 4.44 7.44-4.32v-8.4zm18.98 0l-7.32-4.32-7.44 4.32v8.4l7.44 4.44 7.44-4.32v-8.4zm18.98 0l-7.32-4.32-7.44 4.32v8.4l7.44 4.44 7.44-4.32v-8.4zm18.99 0l-7.32-4.32-7.44 4.32v8.4l7.44 4.44 7.44-4.32v-8.4zm18.98 0l-7.32-4.32-7.44 4.32v8.4l7.44 4.44 7.44-4.32v-8.4zm18.98 0l-7.32-4.32-7.44 4.32v8.4l7.44 4.44 7.44-4.32v-8.4zm18.99 0l-7.32-4.32-7.44 4.32v8.4l7.44 4.44 7.44-4.32v-8.4zm18.98 0l-7.32-4.32-7.44 4.32v8.4l7.44 4.44 7.44-4.32v-8.4zm18.99 0l-7.32-4.32-7.44 4.32v8.4l7.44 4.44 7.44-4.32v-8.4zm18.98 0l-7.32-4.32-7.44 4.32v8.4l7.44 4.44 7.44-4.32v-8.4zm75.93 0l-7.32-4.32-7.44 4.32v8.4l7.44 4.44 7.44-4.32v-8.4zm18.99 0l-7.32-4.32-7.44 4.32v8.4l7.44 4.44 7.44-4.32v-8.4zm18.98 0l-7.32-4.32-7.44 4.32v8.4l7.44 4.44 7.44-4.32v-8.4zm18.98 0l-7.32-4.32-7.44 4.32v8.4l7.44 4.44 7.44-4.32v-8.4zm-378.33-35.41l-7.44-4.32v17.16l7.44-4.32v-8.4zm18.9 0l-7.32-4.32-7.44 4.32v8.4l7.44 4.44 7.44-4.32v-8.4zm18.98 0l-7.32-4.32-7.44 4.32v8.4l7.44 4.44 7.44-4.32v-8.4zm18.98 0l-7.32-4.32-7.44 4.32v8.4l7.44 4.44 7.44-4.32v-8.4zm18.99 0l-7.32-4.32-7.44 4.32v8.4l7.44 4.44 7.44-4.32v-8.4zm18.98 0l-7.32-4.32-7.44 4.32v8.4l7.44 4.44 7.44-4.32v-8.4zm18.98 0l-7.32-4.32-7.44 4.32v8.4l7.44 4.44 7.44-4.32v-8.4zm18.99 0l-7.32-4.32-7.44 4.32v8.4l7.44 4.44 7.44-4.32v-8.4zm18.98 0l-7.32-4.32-7.44 4.32v8.4l7.44 4.44 7.44-4.32v-8.4zm18.98 0l-7.32-4.32-7.44 4.32v8.4l7.44 4.44 7.44-4.32v-8.4zm18.99 0l-7.32-4.32-7.44 4.32v8.4l7.44 4.44 7.44-4.32v-8.4zm18.98 0l-7.32-4.32-7.44 4.32v8.4l7.44 4.44 7.44-4.32v-8.4zm18.99 0l-7.32-4.32-7.44 4.32v8.4l7.44 4.44 7.44-4.32v-8.4zm18.98 0l-7.32-4.32-7.44 4.32v8.4l7.44 4.44 7.44-4.32v-8.4zm18.98 0l-7.32-4.32-7.44 4.32v8.4l7.44 4.44 7.44-4.32v-8.4zm18.99 0l-7.32-4.32-7.44 4.32v8.4l7.44 4.44 7.44-4.32v-8.4zm18.98 0l-7.32-4.32-7.44 4.32v8.4l7.44 4.44 7.44-4.32v-8.4zm18.98 0l-7.32-4.32-7.44 4.32v8.4l7.44 4.44 7.44-4.32v-8.4zm18.99 0l-7.32-4.32-7.44 4.32v8.4l7.44 4.44 7.44-4.32v-8.4zm18.98 0l-7.32-4.32-7.44 4.32v8.4l7.44 4.44 7.44-4.32v-8.4zm18.98 0l-7.32-4.32-7.44 4.32v8.4l7.44 4.44 7.44-4.32v-8.4zm-369.88-17.71l-7.32-4.32-7.44 4.32v8.4l7.44 4.44 7.44-4.32v-8.4zm18.98 0l-7.32-4.32-7.44 4.32v8.4l7.44 4.44 7.44-4.32v-8.4zm18.99 0l-7.32-4.32-7.44 4.32v8.4l7.44 4.44 7.44-4.32v-8.4zm18.98 0l-7.32-4.32-7.44 4.32v8.4l7.44 4.44 7.44-4.32v-8.4zm18.99 0l-7.32-4.32-7.44 4.32v8.4l7.44 4.44 7.44-4.32v-8.4zm18.98 0l-7.32-4.32-7.44 4.32v8.4l7.44 4.44 7.44-4.32v-8.4zm18.98 0l-7.32-4.32-7.44 4.32v8.4l7.44 4.44 7.44-4.32v-8.4zm18.99 0l-7.32-4.32-7.44 4.32v8.4l7.44 4.44 7.44-4.32v-8.4zm18.98 0l-7.32-4.32-7.44 4.32v8.4l7.44 4.44 7.44-4.32v-8.4zm18.98 0l-7.32-4.32-7.44 4.32v8.4l7.44 4.44 7.44-4.32v-8.4zm18.99 0l-7.32-4.32-7.44 4.32v8.4l7.44 4.44 7.44-4.32v-8.4zm18.98 0l-7.32-4.32-7.44 4.32v8.4l7.44 4.44 7.44-4.32v-8.4zm18.98 0l-7.32-4.32-7.44 4.32v8.4l7.44 4.44 7.44-4.32v-8.4zm18.99 0l-7.32-4.32-7.44 4.32v8.4l7.44 4.44 7.44-4.32v-8.4zm18.98 0l-7.32-4.32-7.44 4.32v8.4l7.44 4.44 7.44-4.32v-8.4zm18.98 0l-7.32-4.32-7.44 4.32v8.4l7.44 4.44 7.44-4.32v-8.4zm18.99 0l-7.32-4.32-7.44 4.32v8.4l7.44 4.44 7.44-4.32v-8.4zm18.98 0l-7.32-4.32-7.44 4.32v8.4l7.44 4.44 7.44-4.32v-8.4zm18.99 0l-7.32-4.32-7.44 4.32v8.4l7.44 4.44 7.44-4.32v-8.4z"/></g></g></symbol></svg>