<svg xmlns="http://www.w3.org/2000/svg" xmlns:xlink="http://www.w3.org/1999/xlink" viewBox="0 0 1100 157" fill="#fff" fill-rule="evenodd" stroke="#000" stroke-linecap="round" stroke-linejoin="round"><style><![CDATA[.B{stroke-width:.96}.C{fill:#262626}.D{stroke-width:.32}.E{fill:gray}.F{fill:silver}.G{fill:#866b00}.H{stroke:none}.I{stroke:gray}]]></style><use xlink:href="#U" x=".5" y=".5"/><defs><linearGradient id="A" x1="50%" y1="0%" x2="50%" y2="100%"><stop offset="0%" stop-color="#e3e3e3"/><stop offset="100%" stop-color="#d9d9d9"/></linearGradient><linearGradient id="B" x1="50%" y1="0%" x2="50%" y2="100%"><stop offset="0%" stop-color="#d8d8d8"/><stop offset="1%" stop-color="#d8d8d8"/><stop offset="50%" stop-color="#f2f2f2"/><stop offset="100%" stop-color="#d8d8d8"/></linearGradient><linearGradient id="C" x1="50%" y1="0%" x2="50%" y2="100%"><stop offset="0%" stop-color="#d8d8d8"/><stop offset="1%" stop-color="#d8d8d8"/><stop offset="50%" stop-color="#fff"/><stop offset="100%" stop-color="#d8d8d8"/></linearGradient><radialGradient id="D" r="100%" fx="50%" fy="50%" cx="50%" cy="50%"><stop offset="0%" stop-color="#bdbdbd"/><stop offset="100%" stop-color="#a5a5a5"/></radialGradient><radialGradient id="E" r="100%" fx="50%" fy="50%" cx="50%" cy="50%"><stop offset="0%" stop-color="#9d9d9d"/><stop offset="100%" stop-color="#7f7f7f"/></radialGradient><radialGradient id="F" r="100%" fx="50%" fy="50%" cx="50%" cy="50%"><stop offset="0%" stop-color="gray"/><stop offset="71%" stop-color="#262626"/></radialGradient><linearGradient id="G" x1="50%" y1="100%" x2="50%" y2="0%"><stop offset="0%" stop-color="#7f7f7f"/><stop offset="100%" stop-color="#d9d9d9"/></linearGradient><linearGradient id="H" x1="50%" y1="0%" x2="50%" y2="100%"><stop offset="0%" stop-color="#7f7f7f"/><stop offset="100%" stop-color="#d9d9d9"/></linearGradient><linearGradient id="I" x1="0%" y1="50%" x2="100%" y2="50%"><stop offset="0%" stop-color="#262626"/><stop offset="1%" stop-color="#262626"/><stop offset="50%" stop-color="#444"/><stop offset="100%" stop-color="#262626"/></linearGradient><radialGradient id="J" r="100%" fx="50%" fy="50%" cx="50%" cy="50%"><stop offset="0%" stop-color="#595959"/><stop offset="71%"/></radialGradient><path id="K" d="M75.874 27.906c0-.385-.32-.697-.746-.697-.394 0-.725.312-.725.697v1.466c0 .388.32.699.725.699s.732-.312.735-.699v-1.466z"/><path id="L" d="M403.879 88.381h67.981c1.1 0 1.899.859 1.899 1.917v30.055c0 1.059-.8 1.917-1.899 1.917h-67.981c-1 0-1.899-.859-1.899-1.917V90.298c0-1.059.9-1.917 1.899-1.917z"/><path id="M" d="M404.678 115.156h66.682c1 0 1.899.859 1.899 1.917v1.783c0 1.059-.9 1.917-1.899 1.917h-66.682c-1.1 0-1.899-.859-1.899-1.917v-1.783c0-1.059.8-1.917 1.899-1.917z"/><path id="N" d="M473.96 108.994v-7.337c0-.27.2-.469.5-.469s.5.21.5.469v7.337c0 .27-.2.469-.5.469s-.5-.21-.5-.469zm-73.08 0v-7.337c0-.27.2-.469.5-.469.2 0 .4.21.4.469v7.337c0 .27-.2.469-.4.469-.3 0-.5-.21-.5-.469zm50.086-21.738h8.198c.3 0 .6.251.6.561s-.3.562-.6.562h-8.198c-.3 0-.6-.253-.6-.562s.3-.561.6-.561zm-34.291 0h8.198c.3 0 .6.251.6.561s-.3.562-.6.562h-8.198c-.4 0-.6-.253-.6-.562s.2-.561.6-.561z"/><path id="O" d="M401.98 109.163v-6.741c0-1.034.9-1.872 1.899-1.872s1.899.839 1.899 1.872v6.741c0 1.034-.9 1.872-1.899 1.872s-1.899-.838-1.899-1.872zm2.299 8.988v-1.872c0-.62.5-1.123 1.1-1.123s1.1.504 1.1 1.123v1.872c0 .62-.5 1.123-1.1 1.123s-1.1-.504-1.1-1.123zm65.182 0v-1.872c0-.62.5-1.123 1.2-1.123.6 0 1.1.504 1.1 1.123v1.872c0 .62-.5 1.123-1.1 1.123-.7 0-1.2-.504-1.2-1.123zm.4-8.988v-6.741c0-1.034.8-1.872 1.899-1.872 1 0 1.899.839 1.899 1.872v6.741c0 1.034-.9 1.872-1.899 1.872-1.1 0-1.899-.838-1.899-1.872zm-20.994-20.597h6.798c1 0 1.8.839 1.8 1.872s-.8 1.872-1.8 1.872h-6.798c-1 0-1.899-.838-1.899-1.872s.9-1.872 1.899-1.872zm-28.492 0h6.798c1 0 1.8.839 1.8 1.872s-.8 1.872-1.8 1.872h-6.798c-1 0-1.899-.838-1.899-1.872s.9-1.872 1.899-1.872z"/><path id="P" d="M472.661 109.463v-.009c.5.009 1-.41 1-.928v-6.41c0-.517-.5-.937-1-.937s-.9.419-.9.937v6.401c0 .517.4.937.9.937m-.9-11.02v-6.391c0-.517.4-.937.9-.937s1 .419 1 .937v6.391c0 .516-.5.936-1 .936s-.9-.418-.9-.936zm.9 11.02c-.5 0-.9-.419-.9-.937v-6.401c0-.517.4-.937.9-.937s1 .419 1 .937v6.41c0 .517-.5.937-1 .928zm-.9 9.167v-6.391c0-.516.4-.936.9-.936s1 .418 1 .936v6.391c0 .516-.5.936-1 .936s-.9-.418-.9-.936zm-8.798-30.055h7.098c.6 0 1.1.503 1.1 1.123s-.5 1.123-1.1 1.123h-7.098c-.7 0-1.2-.504-1.2-1.123s.5-1.123 1.2-1.123zm-11.497 0h7.198c.6 0 1.1.503 1.1 1.123s-.5 1.123-1.1 1.123h-7.198c-.6 0-1.1-.504-1.1-1.123s.5-1.123 1.1-1.123zm-11.397 0h7.098c.6 0 1.1.503 1.1 1.123s-.5 1.123-1.1 1.123h-7.098c-.6 0-1.1-.504-1.1-1.123s.5-1.123 1.1-1.123zm-11.397 0h7.098c.6 0 1.1.503 1.1 1.123s-.5 1.123-1.1 1.123h-7.098c-.7 0-1.2-.504-1.2-1.123s.5-1.123 1.2-1.123zm-11.497 0h7.098c.7 0 1.2.503 1.2 1.123s-.5 1.123-1.2 1.123h-7.098c-.6 0-1.1-.504-1.1-1.123s.5-1.123 1.1-1.123zm-11.397 0h7.098c.6 0 1.1.503 1.1 1.123s-.5 1.123-1.1 1.123h-7.098c-.6 0-1.1-.504-1.1-1.123s.5-1.123 1.1-1.123zm-2.699 20.897v-.009c.5.009.9-.41.9-.928v-6.41c0-.517-.4-.937-.9-.937s-1 .419-1 .937v6.401c0 .517.5.937 1 .937m-1-11.02v-6.391c0-.517.5-.937 1-.937s.9.419.9.937v6.391c0 .516-.4.936-.9.936s-1-.418-1-.936zm1 11.02c-.5 0-1-.419-1-.937v-6.401c0-.517.5-.937 1-.937s.9.419.9.937v6.41c0 .517-.4.937-.9.928zm-1 9.167v-6.391c0-.516.5-.936 1-.936s.9.418.9.936v6.391c0 .516-.4.936-.9.936s-1-.418-1-.936zm60.884 1.029h7.098c.6 0 1.1.503 1.1 1.123s-.5 1.123-1.1 1.123h-7.098c-.7 0-1.2-.504-1.2-1.123s.5-1.123 1.2-1.123zm-11.497 0h7.198c.6 0 1.1.503 1.1 1.123s-.5 1.123-1.1 1.123h-7.198c-.6 0-1.1-.504-1.1-1.123s.5-1.123 1.1-1.123zm-11.397 0h7.098c.6 0 1.1.503 1.1 1.123s-.5 1.123-1.1 1.123h-7.098c-.6 0-1.1-.504-1.1-1.123s.5-1.123 1.1-1.123zm-11.397 0h7.098c.6 0 1.1.503 1.1 1.123s-.5 1.123-1.1 1.123h-7.098c-.7 0-1.2-.504-1.2-1.123s.5-1.123 1.2-1.123zm-11.497 0h7.098c.7 0 1.2.503 1.2 1.123s-.5 1.123-1.2 1.123h-7.098c-.6 0-1.1-.504-1.1-1.123s.5-1.123 1.1-1.123zm-11.397 0h7.098c.6 0 1.1.503 1.1 1.123s-.5 1.123-1.1 1.123h-7.098c-.6 0-1.1-.504-1.1-1.123s.5-1.123 1.1-1.123z"/><path id="Q" d="M367.868 137.109q-1.447-.416-2.106-1.022-.659-.606-.659-1.497 0-1.008.806-1.667.806-.659 2.095-.659.879 0 1.567.34.688.34 1.066.938.378.598.378 1.307h-1.131q0-.773-.492-1.216-.492-.442-1.389-.442-.832 0-1.298.366-.466.366-.466 1.017 0 .521.442.882.442.36 1.506.659 1.063.299 1.664.659.601.36.891.841.29.48.29 1.131 0 1.037-.809 1.661-.809.624-2.162.624-.879 0-1.641-.337-.762-.337-1.175-.923-.413-.586-.413-1.33h1.131q0 .773.571 1.222.571.448 1.526.448.891 0 1.365-.363.475-.363.475-.99 0-.627-.439-.97-.439-.343-1.594-.677z"/><path id="R" d="M436.134 144.432l-.407-1.113h-1.787l-.401 1.113h-.58l1.629-4.266h.492l1.632 4.266h-.577zm-1.301-3.571l-.724 1.995h1.45l-.727-1.995z"/><path id="S" d="M439.825 143.078h.565q-.079.677-.5 1.044-.42.368-1.118.368-.756 0-1.211-.542-.456-.542-.456-1.45v-.41q0-.595.212-1.046.212-.451.602-.693.39-.242.902-.242.68 0 1.09.379.41.379.478 1.05h-.565q-.073-.51-.318-.738-.245-.229-.684-.229-.539 0-.845.398-.306.398-.306 1.134v.413q0 .694.29 1.104.29.41.812.41.469 0 .719-.212.25-.212.333-.74z"/><path id="T" d="M444.021 140.166v.463h-1.371v3.803h-.56v-3.803h-1.368v-.463h3.299z"/></defs><symbol id="U" overflow="visible"><g class="B I"><path d="M45 150.702h1008V5.166H45v145.536z" fill="#d9d9d9"/><path d="M10.56 150.702h34.56V5.166H10.56C4.8 5.166 0 10.542 0 17.166v121.536c0 6.624 4.8 12 10.56 12z" fill="url(#A)"/></g><path d="M18.952 83.094c9.39 1.996 18.539-4.107 20.555-13.591s-4.067-18.727-13.27-20.683S7.698 52.927 5.682 62.411s3.859 18.781 13.25 20.777z" fill="url(#B)" stroke="#9a9a9a" class="B"/><g stroke="#a5a5a5"><path d="M19.619 79.724c7.512 1.597 14.839-3.323 16.436-10.836S32.886 53.787 25.468 52.21 10.628 55.534 9.032 63.046s3.095 14.987 10.608 16.584z" fill="url(#C)" class="B"/><path d="M27.928 53.715L13.836 76.266a5.82 5.82 0 0 0 3.419 2.137l14.092-22.551a5.82 5.82 0 0 0-3.419-2.137z" fill="url(#D)" class="B"/><path d="M18.982 67.014l-1.056 1.738a26.88 26.88 0 0 0 4.578 2.936l.983-1.852 1.383.883c1.11-1.531 2.033-3.101 2.862-4.692l-1.289-.863 1.017-1.55a26.88 26.88 0 0 0-4.578-2.936l-1.017 1.55-1.551-1.017c-1.224 1.604-2.033 3.101-2.882 4.785l1.55 1.017z" fill="url(#E)" class="B"/></g><path d="M1087.44 150.702h-34.56V5.166h34.56c5.76 0 10.56 5.376 10.56 12v121.536c0 6.624-4.8 12-10.56 12z" fill="url(#A)" class="B I"/><path d="M1079.083 83.094c-9.39 1.996-18.539-4.107-20.555-13.591s4.067-18.727 13.269-20.683 18.539 4.107 20.555 13.591-3.86 18.781-13.25 20.777z" fill="url(#B)" stroke="#9a9a9a" class="B"/><g stroke="#a5a5a5"><path d="M1078.426 79.724c-7.512 1.597-14.839-3.323-16.436-10.836s3.169-15.101 10.588-16.678 14.839 3.323 16.436 10.835-3.096 14.987-10.608 16.584z" fill="url(#C)" class="B"/><path d="M1070.103 53.715l14.091 22.551a5.82 5.82 0 0 1-3.419 2.137l-14.092-22.551c.885-1.119 2.025-1.831 3.419-2.137z" fill="url(#D)" class="B"/><path d="M1079.066 67.014l1.057 1.738a26.88 26.88 0 0 1-4.578 2.936l-.983-1.852-1.383.883c-1.111-1.531-2.033-3.101-2.862-4.692l1.289-.863-1.017-1.55a26.88 26.88 0 0 1 4.577-2.936l1.017 1.55 1.55-1.017c1.224 1.604 2.033 3.101 2.882 4.785l-1.551 1.017z" fill="url(#E)" class="B"/></g><path d="M339 104.924h58.56v21.12h633.024c1.248 5.568 6.72 9.024 12.288 7.68s9.024-6.72 7.68-12.288c-.96-4.8-5.28-8.064-10.08-8.064h-8.64v-67.2h8.64c5.76 0 10.272-4.608 10.272-10.272s-4.608-10.272-10.272-10.272h-8.64V.092H339v105.024z" fill="none" stroke="#595959" class="B"/><path d="M259.5 116.952H336v9h-76.5z" fill="#6f9327" class="H"/><g class="B I"><path d="M380.694 123.69c0-2.88-2.4-5.472-5.472-5.472a5.47 5.47 0 1 0 0 10.944c3.072 0 5.472-2.4 5.472-5.472z" fill="url(#F)"/><path d="M1046.895 149.952v5.952H51.375v-5.952" fill="url(#G)"/></g><path d="M399.38 127.164h574.464v19.488H399.38z" fill="#fee800" class="H"/><path d="M1046.895 5.952V0H51.375v5.952" fill="url(#H)" class="B I"/><g class="H"><path d="M48 35.591c0-4.743 3.819-8.562 8.562-8.562s8.562 3.819 8.562 8.562v89.108c0 4.743-3.819 8.562-8.562 8.562S48 129.442 48 124.699z" fill="url(#I)"/><path d="M83.909 33.908h1.47v5.585h-1.47zm13.331 1.601c-.053-.031-.533-.298-1.236-.298-.959 0-1.598.633-1.598 1.49 0 .831.639 1.492 1.598 1.492.693 0 1.172-.263 1.236-.296v1.5c-.181.051-.682.199-1.332.199-1.662 0-3.112-1.092-3.112-2.893 0-1.667 1.311-2.891 3.112-2.891.682 0 1.193.161 1.332.2v1.5zm-15.356 0c-.064-.031-.533-.298-1.236-.298-.959 0-1.62.633-1.62 1.49 0 .831.639 1.492 1.62 1.492.693 0 1.172-.263 1.236-.296v1.5c-.181.051-.693.199-1.343.199-1.662 0-3.111-1.092-3.111-2.893 0-1.667 1.321-2.891 3.111-2.891.693 0 1.204.161 1.343.2v1.5zm23.07 1.191c0 1.598-1.279 2.893-3.09 2.893s-3.09-1.296-3.09-2.893 1.279-2.891 3.09-2.891 3.09 1.296 3.09 2.891zm-3.09-1.469c-.874 0-1.524.658-1.524 1.469s.639 1.469 1.524 1.469 1.524-.657 1.524-1.469-.639-1.469-1.524-1.469zm-10.911-.054c-.021-.006-.639-.17-1.14-.17-.597 0-.916.19-.916.459 0 .34.426.459.671.531l.426.122c.959.291 1.385.918 1.385 1.598 0 1.403-1.279 1.875-2.419 1.875a9.16 9.16 0 0 1-1.588-.153v-1.286c.139.031.746.207 1.385.207.725 0 1.066-.204 1.066-.52 0-.283-.288-.446-.661-.556l-.32-.097c-.821-.248-1.492-.709-1.492-1.633 0-1.045.82-1.747 2.174-1.747a6.45 6.45 0 0 1 1.428.179v1.192z" fill="#c41230"/><g fill="#005568"><use xlink:href="#K"/><path d="M79.892 25.982a.68.68 0 0 0-.211-.493.74.74 0 0 0-.514-.205c-.404 0-.732.312-.735.698v3.391c.003.387.331.699.735.699a.74.74 0 0 0 .514-.205.68.68 0 0 0 .21-.494v-3.391zm4.006-2.633c0-.385-.32-.697-.725-.697s-.746.312-.746.697v7.416c0 .388.32.699.746.699.394 0 .725-.311.725-.699v-7.416zm4.017 2.633c-.004-.386-.332-.698-.735-.698a.74.74 0 0 0-.514.205.68.68 0 0 0-.211.493v3.391a.68.68 0 0 0 .21.494.74.74 0 0 0 .514.205c.404 0 .732-.312.735-.699v-3.391zm4.017 1.924c0-.385-.32-.697-.724-.697s-.746.312-.746.697v1.466c.003.387.331.699.735.699.394 0 .724-.312.724-.699v-1.466zm4.007-1.924c-.004-.386-.332-.698-.735-.698-.394 0-.725.313-.725.698v3.391c0 .388.32.699.725.699s.732-.312.735-.699v-3.391zm4.017-2.633c0-.385-.32-.697-.746-.697-.394 0-.725.312-.725.697v7.416c0 .388.32.699.725.699s.746-.311.746-.699v-7.416zm4.017 2.633a.69.69 0 0 0-.221-.498.75.75 0 0 0-.524-.2c-.394 0-.725.313-.725.698v3.391c0 .388.32.699.725.699a.75.75 0 0 0 .525-.201.69.69 0 0 0 .221-.498v-3.391z"/><use xlink:href="#K" x="32.106"/></g><path d="M107.139 38.757v.088h-.266v.647h-.107v-.647h-.256v-.088h.639zm.053 0h.16l.234.602.213-.602h.17v.735h-.107v-.612l-.234.612h-.107l-.234-.612v.612h-.107v-.735z" fill="#c41230"/></g><use xlink:href="#L" class="B C"/><g class="D"><use xlink:href="#M" class="E"/><use xlink:href="#N" class="F"/><g class="G"><use xlink:href="#O"/><use xlink:href="#P"/></g></g><use xlink:href="#L" x="99.78" class="B C"/><g class="D"><use xlink:href="#M" x="99.78" class="E"/><use xlink:href="#N" x="99.78" class="F"/><g class="G"><use xlink:href="#O" x="99.78"/><use xlink:href="#P" x="99.78"/></g></g><use xlink:href="#L" x="199.57" class="B C"/><g class="D"><use xlink:href="#M" x="199.57" class="E"/><use xlink:href="#N" x="199.57" class="F"/><g class="G"><use xlink:href="#O" x="199.57"/><use xlink:href="#P" x="199.57"/></g></g><use xlink:href="#L" x="299.36" class="B C"/><g class="D"><use xlink:href="#M" x="299.36" class="E"/><use xlink:href="#N" x="299.36" class="F"/><g class="G"><use xlink:href="#O" x="299.36"/><use xlink:href="#P" x="299.36"/></g></g><use xlink:href="#L" x="399.14" class="B C"/><g class="D"><path d="M803.818 115.156H870.5c1 0 1.899.859 1.899 1.917v1.783c0 1.059-.9 1.917-1.899 1.917h-66.682c-1.1 0-1.899-.859-1.899-1.917v-1.783c0-1.059.8-1.917 1.899-1.917z" class="E"/><use xlink:href="#N" x="399.14" class="F"/><g class="G"><use xlink:href="#O" x="399.14"/><use xlink:href="#P" x="399.14"/></g></g><use xlink:href="#L" x="498.93" class="B C"/><g class="D"><use xlink:href="#M" x="498.93" class="E"/><use xlink:href="#N" x="498.93" class="F"/><g class="G"><use xlink:href="#O" x="498.93"/><path d="M971.591 109.463v-.009c.5.009 1-.41 1-.928v-6.41c0-.517-.5-.937-1-.937s-.9.419-.9.937v6.401c0 .517.4.937.9.937m-.9-11.02v-6.391c0-.517.4-.937.9-.937s1 .419 1 .937v6.391c0 .516-.5.936-1 .936s-.9-.418-.9-.936zm.9 11.02c-.5 0-.9-.419-.9-.937v-6.401c0-.517.4-.937.9-.937s1 .419 1 .937v6.41c0 .517-.5.937-1 .928zm-.9 9.167v-6.391c0-.516.4-.936.9-.936s1 .418 1 .936v6.391c0 .516-.5.936-1 .936s-.9-.418-.9-.936zm-8.798-30.055h7.098c.6 0 1.1.503 1.1 1.123s-.5 1.123-1.1 1.123h-7.098c-.7 0-1.2-.504-1.2-1.123s.5-1.123 1.2-1.123zm-11.497 0h7.198c.6 0 1.1.503 1.1 1.123s-.5 1.123-1.1 1.123h-7.198c-.6 0-1.1-.504-1.1-1.123s.5-1.123 1.1-1.123zm-11.397 0h7.098c.6 0 1.1.503 1.1 1.123s-.5 1.123-1.1 1.123H939c-.6 0-1.1-.504-1.1-1.123s.5-1.123 1.1-1.123zm-11.397 0h7.098c.6 0 1.1.503 1.1 1.123s-.5 1.123-1.1 1.123h-7.098c-.7 0-1.2-.504-1.2-1.123s.5-1.123 1.2-1.123zm-11.497 0h7.098c.7 0 1.2.503 1.2 1.123s-.5 1.123-1.2 1.123h-7.098c-.6 0-1.1-.504-1.1-1.123s.5-1.123 1.1-1.123zm-11.397 0h7.098c.6 0 1.1.503 1.1 1.123s-.5 1.123-1.1 1.123h-7.098c-.6 0-1.1-.504-1.1-1.123s.5-1.123 1.1-1.123zm-2.699 20.897v-.009c.5.009.9-.41.9-.928v-6.41c0-.517-.4-.937-.9-.937s-1 .419-1 .937v6.401c0 .517.5.937 1 .937m-1-11.02v-6.391c0-.517.5-.937 1-.937s.9.419.9.937v6.391c0 .516-.4.936-.9.936s-1-.418-1-.936zm1 11.02c-.5 0-1-.419-1-.937v-6.401c0-.517.5-.937 1-.937s.9.419.9.937v6.41c0 .517-.4.937-.9.928zm-1 9.167v-6.391c0-.516.5-.936 1-.936s.9.418.9.936v6.391c0 .516-.4.936-.9.936s-1-.418-1-.936zm60.884 1.029h7.098c.6 0 1.1.503 1.1 1.123s-.5 1.123-1.1 1.123h-7.098c-.7 0-1.2-.504-1.2-1.123s.5-1.123 1.2-1.123zm-11.497 0h7.198c.6 0 1.1.503 1.1 1.123s-.5 1.123-1.1 1.123h-7.198c-.6 0-1.1-.504-1.1-1.123s.5-1.123 1.1-1.123zm-11.397 0h7.098c.6 0 1.1.503 1.1 1.123s-.5 1.123-1.1 1.123H939c-.6 0-1.1-.504-1.1-1.123s.5-1.123 1.1-1.123zm-11.397 0h7.098c.6 0 1.1.503 1.1 1.123s-.5 1.123-1.1 1.123h-7.098c-.7 0-1.2-.504-1.2-1.123s.5-1.123 1.2-1.123zm-11.497 0h7.098c.7 0 1.2.503 1.2 1.123s-.5 1.123-1.2 1.123h-7.098c-.6 0-1.1-.504-1.1-1.123s.5-1.123 1.1-1.123zm-11.397 0h7.098c.6 0 1.1.503 1.1 1.123s-.5 1.123-1.1 1.123h-7.098c-.6 0-1.1-.504-1.1-1.123s.5-1.123 1.1-1.123z"/></g></g><g fill="#000"><path d="M368.34 36.375l-4.8 3.251v5.69l4.8 3.251 4.8-3.251v-5.69zm14.25 0l-4.8 3.251v5.69l4.8 3.251 4.8-3.251v-5.69zm14.26 0l-4.8 3.251v5.69l4.8 3.251 4.8-3.251v-5.69zm14.25 0l-4.8 3.251v5.69l4.8 3.251 4.8-3.251v-5.69zm14.25 0l-4.8 3.251v5.69l4.8 3.251 4.8-3.251v-5.69zm14.25 0l-4.8 3.251v5.69l4.8 3.251 4.8-3.251v-5.69zm14.26 0l-4.8 3.251v5.69l4.8 3.251 4.8-3.251v-5.69zm14.25 0l-4.8 3.251v5.69l4.8 3.251 4.8-3.251v-5.69zm14.25 0l-4.8 3.251v5.69l4.8 3.251 4.8-3.251v-5.69zm14.25 0l-4.8 3.251v5.69l4.8 3.251 4.8-3.251v-5.69zm14.26 0l-4.8 3.251v5.69l4.8 3.251 4.8-3.251v-5.69zm14.25 0l-4.8 3.251v5.69l4.8 3.251 4.8-3.251v-5.69zm14.25 0l-4.8 3.251v5.69l4.8 3.251 4.8-3.251v-5.69zm14.25 0l-4.8 3.251v5.69l4.8 3.251 4.8-3.251v-5.69zm14.26 0l-4.8 3.251v5.69l4.8 3.251 4.8-3.251v-5.69zm14.25 0l-4.8 3.251v5.69l4.8 3.251 4.8-3.251v-5.69zm14.25 0l-4.8 3.251v5.69l4.8 3.251 4.8-3.251v-5.69zm14.25 0l-4.8 3.251v5.69l4.8 3.251 4.8-3.251v-5.69zm14.26 0l-4.8 3.251v5.69l4.8 3.251 4.8-3.251v-5.69zm14.25 0l-4.8 3.251v5.69l4.8 3.251 4.8-3.251v-5.69zm14.25 0l-4.8 3.251v5.69l4.8 3.251 4.8-3.251v-5.69zm14.25 0l-4.8 3.251v5.69l4.8 3.251 4.8-3.251v-5.69zm14.26 0l-4.8 3.251v5.69l4.8 3.251 4.8-3.251v-5.69zm14.25 0l-4.8 3.251v5.69l4.8 3.251 4.8-3.251v-5.69zm14.25 0l-4.8 3.251v5.69l4.8 3.251 4.8-3.251v-5.69zm14.25 0l-4.8 3.251v5.69l4.8 3.251 4.8-3.251v-5.69zm14.26 0l-4.8 3.251v5.69l4.8 3.251 4.8-3.251v-5.69zm14.25 0l-4.8 3.251v5.69l4.8 3.251 4.8-3.251v-5.69zm14.25 0l-4.8 3.251v5.69l4.8 3.251 4.8-3.251v-5.69zm14.25 0l-4.8 3.251v5.69l4.8 3.251 4.8-3.251v-5.69zm14.26 0l-4.8 3.251v5.69l4.8 3.251 4.8-3.251v-5.69zm14.25 0l-4.8 3.251v5.69l4.8 3.251 4.8-3.251v-5.69zm14.25 0l-4.8 3.251v5.69l4.8 3.251 4.8-3.251v-5.69zm14.25 0l-4.8 3.251v5.69l4.8 3.251 4.8-3.251v-5.69zm14.26 0l-4.8 3.251v5.69l4.8 3.251 4.8-3.251v-5.69zm14.25 0l-4.8 3.251v5.69l4.8 3.251 4.8-3.251v-5.69zm14.25 0l-4.8 3.251v5.69l4.8 3.251 4.8-3.251v-5.69zm14.26 0l-4.8 3.251v5.69l4.8 3.251 4.8-3.251v-5.69zm14.25 0l-4.8 3.251v5.69l4.8 3.251 4.8-3.251v-5.69zm14.25 0l-4.8 3.251v5.69l4.8 3.251 4.8-3.251v-5.69zm14.25 0l-4.8 3.251v5.69l4.8 3.251 4.8-3.251v-5.69zm14.26 0l-4.8 3.251v5.69l4.8 3.251 4.8-3.251v-5.69zm14.25 0l-4.8 3.251v5.69l4.8 3.251 4.8-3.251v-5.69zm14.25 0l-4.8 3.251v5.69l4.8 3.251 4.8-3.251v-5.69zm14.25 0l-4.8 3.251v5.69l4.8 3.251 4.8-3.251v-5.69zm14.25 0l-4.8 3.251v5.69l4.8 3.251 4.8-3.251v-5.69zm14.3 0l-4.8 3.251v5.69l4.8 3.251 4.8-3.251v-5.69zm-669.91 0l-4.8 3.251v5.69l4.8 3.251 4.8-3.251v-5.69zm14.25 25.98l-4.8 3.251v5.69l4.8 3.251 4.8-3.251v-5.69zm14.25 0l-4.8 3.251v5.69l4.8 3.251 4.8-3.251v-5.69zm14.26 0l-4.8 3.251v5.69l4.8 3.251 4.8-3.251v-5.69zm14.25 0l-4.8 3.251v5.69l4.8 3.251 4.8-3.251v-5.69zm14.25 0l-4.8 3.251v5.69l4.8 3.251 4.8-3.251v-5.69zm14.25 0l-4.8 3.251v5.69l4.8 3.251 4.8-3.251v-5.69zm14.26 0l-4.8 3.251v5.69l4.8 3.251 4.8-3.251v-5.69zm14.25 0l-4.8 3.251v5.69l4.8 3.251 4.8-3.251v-5.69zm14.25 0l-4.8 3.251v5.69l4.8 3.251 4.8-3.251v-5.69zm14.25 0l-4.8 3.251v5.69l4.8 3.251 4.8-3.251v-5.69zm14.26 0l-4.8 3.251v5.69l4.8 3.251 4.8-3.251v-5.69zm14.25 0l-4.8 3.251v5.69l4.8 3.251 4.8-3.251v-5.69zm14.25 0l-4.8 3.251v5.69l4.8 3.251 4.8-3.251v-5.69zm14.25 0l-4.8 3.251v5.69l4.8 3.251 4.8-3.251v-5.69zm14.26 0l-4.8 3.251v5.69l4.8 3.251 4.8-3.251v-5.69zm14.25 0l-4.8 3.251v5.69l4.8 3.251 4.8-3.251v-5.69zm14.25 0l-4.8 3.251v5.69l4.8 3.251 4.8-3.251v-5.69zm14.25 0l-4.8 3.251v5.69l4.8 3.251 4.8-3.251v-5.69zm14.26 0l-4.8 3.251v5.69l4.8 3.251 4.8-3.251v-5.69zm14.25 0l-4.8 3.251v5.69l4.8 3.251 4.8-3.251v-5.69zm14.25 0l-4.8 3.251v5.69l4.8 3.251 4.8-3.251v-5.69zm14.25 0l-4.8 3.251v5.69l4.8 3.251 4.8-3.251v-5.69zm14.26 0l-4.8 3.251v5.69l4.8 3.251 4.8-3.251v-5.69zm14.25 0l-4.8 3.251v5.69l4.8 3.251 4.8-3.251v-5.69zm14.25 0l-4.8 3.251v5.69l4.8 3.251 4.8-3.251v-5.69zm14.25 0l-4.8 3.251v5.69l4.8 3.251 4.8-3.251v-5.69zm14.26 0l-4.8 3.251v5.69l4.8 3.251 4.8-3.251v-5.69zm14.25 0l-4.8 3.251v5.69l4.8 3.251 4.8-3.251v-5.69zm14.25 0l-4.8 3.251v5.69l4.8 3.251 4.8-3.251v-5.69zm14.25 0l-4.8 3.251v5.69l4.8 3.251 4.8-3.251v-5.69zm14.26 0l-4.8 3.251v5.69l4.8 3.251 4.8-3.251v-5.69zm14.25 0l-4.8 3.251v5.69l4.8 3.251 4.8-3.251v-5.69zm14.25 0l-4.8 3.251v5.69l4.8 3.251 4.8-3.251v-5.69zm14.25 0l-4.8 3.251v5.69l4.8 3.251 4.8-3.251v-5.69zm14.26 0l-4.8 3.251v5.69l4.8 3.251 4.8-3.251v-5.69zm14.25 0l-4.8 3.251v5.69l4.8 3.251 4.8-3.251v-5.69zm14.25 0l-4.8 3.251v5.69l4.8 3.251 4.8-3.251v-5.69zm14.26 0l-4.8 3.251v5.69l4.8 3.251 4.8-3.251v-5.69zm14.25 0l-4.8 3.251v5.69l4.8 3.251 4.8-3.251v-5.69zm14.25 0l-4.8 3.251v5.69l4.8 3.251 4.8-3.251v-5.69zm14.25 0l-4.8 3.251v5.69l4.8 3.251 4.8-3.251v-5.69zm14.26 0l-4.8 3.251v5.69l4.8 3.251 4.8-3.251v-5.69zm14.25 0l-4.8 3.251v5.69l4.8 3.251 4.8-3.251v-5.69zm14.25 0l-4.8 3.251v5.69l4.8 3.251 4.8-3.251v-5.69zm14.25 0l-4.8 3.251v5.69l4.8 3.251 4.8-3.251v-5.69zm14.25 0l-4.8 3.251v5.69l4.8 3.251 4.8-3.251v-5.69zm14.3 0l-4.8 3.251v5.69l4.8 3.251 4.8-3.251v-5.69zm-669.91 0l-4.8 3.251v5.69l4.8 3.251 4.8-3.251v-5.69zm7.12-38.97l-4.8 3.251v5.69l4.8 3.251 4.8-3.251v-5.69zm14.26 0l-4.8 3.251v5.69l4.8 3.251 4.8-3.251v-5.69zm14.25 0l-4.8 3.251v5.69l4.8 3.251 4.8-3.251v-5.69zm14.25 0l-4.8 3.251v5.69l4.8 3.251 4.8-3.251v-5.69zm14.25 0l-4.8 3.251v5.69l4.8 3.251 4.8-3.251v-5.69zm14.26 0l-4.8 3.251v5.69l4.8 3.251 4.8-3.251v-5.69zm14.25 0l-4.8 3.251v5.69l4.8 3.251 4.8-3.251v-5.69zm14.25 0l-4.8 3.251v5.69l4.8 3.251 4.8-3.251v-5.69zm14.25 0l-4.8 3.251v5.69l4.8 3.251 4.8-3.251v-5.69zm14.26 0l-4.8 3.251v5.69l4.8 3.251 4.8-3.251v-5.69zm14.25 0l-4.8 3.251v5.69l4.8 3.251 4.8-3.251v-5.69zm14.25 0l-4.8 3.251v5.69l4.8 3.251 4.8-3.251v-5.69zm14.26 0l-4.8 3.251v5.69l4.8 3.251 4.8-3.251v-5.69zm14.25 0l-4.8 3.251v5.69l4.8 3.251 4.8-3.251v-5.69zm14.25 0l-4.8 3.251v5.69l4.8 3.251 4.8-3.251v-5.69zm14.25 0l-4.8 3.251v5.69l4.8 3.251 4.8-3.251v-5.69zm14.26 0l-4.8 3.251v5.69l4.8 3.251 4.8-3.251v-5.69zm14.25 0l-4.8 3.251v5.69l4.8 3.251 4.8-3.251v-5.69zm14.25 0l-4.8 3.251v5.69l4.8 3.251 4.8-3.251v-5.69zm14.25 0l-4.8 3.251v5.69l4.8 3.251 4.8-3.251v-5.69zm14.26 0l-4.8 3.251v5.69l4.8 3.251 4.8-3.251v-5.69zm14.25 0l-4.8 3.251v5.69l4.8 3.251 4.8-3.251v-5.69zm14.25 0l-4.8 3.251v5.69l4.8 3.251 4.8-3.251v-5.69zm14.25 0l-4.8 3.251v5.69l4.8 3.251 4.8-3.251v-5.69zm14.26 0l-4.8 3.251v5.69l4.8 3.251 4.8-3.251v-5.69zm14.25 0l-4.8 3.251v5.69l4.8 3.251 4.8-3.251v-5.69zm14.25 0l-4.8 3.251v5.69l4.8 3.251 4.8-3.251v-5.69zm14.25 0l-4.8 3.251v5.69l4.8 3.251 4.8-3.251v-5.69zm14.26 0l-4.8 3.251v5.69l4.8 3.251 4.8-3.251v-5.69zm14.25 0l-4.8 3.251v5.69l4.8 3.251 4.8-3.251v-5.69zm14.25 0l-4.8 3.251v5.69l4.8 3.251 4.8-3.251v-5.69zm14.25 0l-4.8 3.251v5.69l4.8 3.251 4.8-3.251v-5.69zm14.26 0l-4.8 3.251v5.69l4.8 3.251 4.8-3.251v-5.69zm14.25 0l-4.8 3.251v5.69l4.8 3.251 4.8-3.251v-5.69zm14.25 0l-4.8 3.251v5.69l4.8 3.251 4.8-3.251v-5.69zm14.25 0l-4.8 3.251v5.69l4.8 3.251 4.8-3.251v-5.69zm14.26 0l-4.8 3.251v5.69l4.8 3.251 4.8-3.251v-5.69zm14.25 0l-4.8 3.251v5.69l4.8 3.251 4.8-3.251v-5.69zm14.25 0l-4.8 3.251v5.69l4.8 3.251 4.8-3.251v-5.69zm14.25 0l-4.8 3.251v5.69l4.8 3.251 4.8-3.251v-5.69zm14.26 0l-4.8 3.251v5.69l4.8 3.251 4.8-3.251v-5.69zm14.25 0l-4.8 3.251v5.69l4.8 3.251 4.8-3.251v-5.69zm14.25 0l-4.8 3.251v5.69l4.8 3.251 4.8-3.251v-5.69zm14.25 0l-4.8 3.251v5.69l4.8 3.251 4.8-3.251v-5.69zm14.26 0l-4.8 3.251v5.69l4.8 3.251 4.8-3.251v-5.69zm14.25 0l-4.8 3.251v5.69l4.8 3.251 4.8-3.251v-5.69zm14.22 0l-4.8 3.251v5.69l4.8 3.251 4.8-3.251v-5.69zm-669.84 0l-4.8 3.251v5.69l4.8 3.251 4.8-3.251v-5.69zm14.25 25.98l-4.8 3.251v5.69l4.8 3.251 4.8-3.251v-5.69zm14.26 0l-4.8 3.251v5.69l4.8 3.251 4.8-3.251v-5.69zm14.25 0l-4.8 3.251v5.69l4.8 3.251 4.8-3.251v-5.69zm14.25 0l-4.8 3.251v5.69l4.8 3.251 4.8-3.251v-5.69zm14.25 0l-4.8 3.251v5.69l4.8 3.251 4.8-3.251v-5.69zm14.26 0l-4.8 3.251v5.69l4.8 3.251 4.8-3.251v-5.69zm14.25 0l-4.8 3.251v5.69l4.8 3.251 4.8-3.251v-5.69zm14.25 0l-4.8 3.251v5.69l4.8 3.251 4.8-3.251v-5.69zm14.25 0l-4.8 3.251v5.69l4.8 3.251 4.8-3.251v-5.69zm14.26 0l-4.8 3.251v5.69l4.8 3.251 4.8-3.251v-5.69zm14.25 0l-4.8 3.251v5.69l4.8 3.251 4.8-3.251v-5.69zm14.25 0l-4.8 3.251v5.69l4.8 3.251 4.8-3.251v-5.69zm14.26 0l-4.8 3.251v5.69l4.8 3.251 4.8-3.251v-5.69zm14.25 0l-4.8 3.251v5.69l4.8 3.251 4.8-3.251v-5.69zm14.25 0l-4.8 3.251v5.69l4.8 3.251 4.8-3.251v-5.69zm14.25 0l-4.8 3.251v5.69l4.8 3.251 4.8-3.251v-5.69zm14.26 0l-4.8 3.251v5.69l4.8 3.251 4.8-3.251v-5.69zm14.25 0l-4.8 3.251v5.69l4.8 3.251 4.8-3.251v-5.69zm14.25 0l-4.8 3.251v5.69l4.8 3.251 4.8-3.251v-5.69zm14.25 0l-4.8 3.251v5.69l4.8 3.251 4.8-3.251v-5.69zm14.26 0l-4.8 3.251v5.69l4.8 3.251 4.8-3.251v-5.69zm14.25 0l-4.8 3.251v5.69l4.8 3.251 4.8-3.251v-5.69zm14.25 0l-4.8 3.251v5.69l4.8 3.251 4.8-3.251v-5.69zm14.25 0l-4.8 3.251v5.69l4.8 3.251 4.8-3.251v-5.69zm14.26 0l-4.8 3.251v5.69l4.8 3.251 4.8-3.251v-5.69zm14.25 0l-4.8 3.251v5.69l4.8 3.251 4.8-3.251v-5.69zm14.25 0l-4.8 3.251v5.69l4.8 3.251 4.8-3.251v-5.69zm14.25 0l-4.8 3.251v5.69l4.8 3.251 4.8-3.251v-5.69zm14.26 0l-4.8 3.251v5.69l4.8 3.251 4.8-3.251v-5.69zm14.25 0l-4.8 3.251v5.69l4.8 3.251 4.8-3.251v-5.69zm14.25 0l-4.8 3.251v5.69l4.8 3.251 4.8-3.251v-5.69zm14.25 0l-4.8 3.251v5.69l4.8 3.251 4.8-3.251v-5.69zm14.26 0l-4.8 3.251v5.69l4.8 3.251 4.8-3.251v-5.69zm14.25 0l-4.8 3.251v5.69l4.8 3.251 4.8-3.251v-5.69zm14.25 0l-4.8 3.251v5.69l4.8 3.251 4.8-3.251v-5.69zm14.25 0l-4.8 3.251v5.69l4.8 3.251 4.8-3.251v-5.69zm14.26 0l-4.8 3.251v5.69l4.8 3.251 4.8-3.251v-5.69zm14.25 0l-4.8 3.251v5.69l4.8 3.251 4.8-3.251v-5.69zm14.25 0l-4.8 3.251v5.69l4.8 3.251 4.8-3.251v-5.69zm14.25 0l-4.8 3.251v5.69l4.8 3.251 4.8-3.251v-5.69zm14.26 0l-4.8 3.251v5.69l4.8 3.251 4.8-3.251v-5.69zm14.25 0l-4.8 3.251v5.69l4.8 3.251 4.8-3.251v-5.69zm14.25 0l-4.8 3.251v5.69l4.8 3.251 4.8-3.251v-5.69zm14.25 0l-4.8 3.251v5.69l4.8 3.251 4.8-3.251v-5.69zm14.26 0l-4.8 3.251v5.69l4.8 3.251 4.8-3.251v-5.69zm14.25 0l-4.8 3.251v5.69l4.8 3.251 4.8-3.251v-5.69zm14.22 0l-4.8 3.251v5.69l4.8 3.251 4.8-3.251v-5.69zm-669.84 0l-4.8 3.251v5.69l4.8 3.251 4.8-3.251v-5.69zM361 75.345l-4.8 3.251v5.69l4.8 3.251 4.8-3.251v-5.69zm14.04 0l-4.8 3.251v5.69l4.8 3.251 4.8-3.251v-5.69zm14.05 0l-4.8 3.251v5.69l4.8 3.251 4.8-3.251v-5.69zM361 91.96l-4.8 3.251v5.69l4.8 3.251 4.8-3.251v-5.69zm14.04 0l-4.8 3.251v5.69l4.8 3.251 4.8-3.251v-5.69zm14.05 0l-4.8 3.251v5.69l4.8 3.251 4.8-3.251v-5.69zm96.44-15.525l-4.8 3.251v5.69l4.8 3.251 4.8-3.251v-5.69zm0 16.615l-4.8 3.251v5.69l4.8 3.251 4.8-3.251v-5.69zm0 16.62l-4.8 3.251v5.69l4.8 3.251 4.8-3.251v-5.69zM586.1 76.435l-4.8 3.251v5.69l4.8 3.251 4.8-3.251v-5.69zm0 16.615l-4.8 3.251v5.69l4.8 3.251 4.8-3.251v-5.69zm0 16.62l-4.8 3.251v5.69l4.8 3.251 4.8-3.251v-5.69zm100.57-33.235l-4.8 3.251v5.69l4.8 3.251 4.8-3.251v-5.69zm0 16.615l-4.8 3.251v5.69l4.8 3.251 4.8-3.251v-5.69zm0 16.62l-4.8 3.251v5.69l4.8 3.251 4.8-3.251v-5.69zm100.57-33.235l-4.8 3.251v5.69l4.8 3.251 4.8-3.251v-5.69zm0 16.615l-4.8 3.251v5.69l4.8 3.251 4.8-3.251v-5.69zm0 16.62l-4.8 3.251v5.69l4.8 3.251 4.8-3.251v-5.69zm100.57-33.235l-4.8 3.251v5.69l4.8 3.251 4.8-3.251v-5.69zm0 16.615l-4.8 3.251v5.69l4.8 3.251 4.8-3.251v-5.69zm0 16.62l-4.8 3.251v5.69l4.8 3.251 4.8-3.251v-5.69zm100.57-33.235l-4.8 3.251v5.69l4.8 3.251 4.8-3.251v-5.69zm0 16.615l-4.8 3.251v5.69l4.8 3.251 4.8-3.251v-5.69zm0 16.62l-4.8 3.251v5.69l4.8 3.251 4.8-3.251v-5.69zm14.3-33.235l-4.8 3.251v5.69l4.8 3.251 4.8-3.251v-5.69zm0 16.615l-4.8 3.251v5.69l4.8 3.251 4.8-3.251v-5.69zm0 16.62l-4.8 3.251v5.69l4.8 3.251 4.8-3.251v-5.69zm14.12-33.235l-4.8 3.251v5.69l4.8 3.251 4.8-3.251v-5.69zm0 16.615l-4.8 3.251v5.69l4.8 3.251 4.8-3.251v-5.69zm0 16.62l-4.8 3.251v5.69l4.8 3.251 4.8-3.251v-5.69z" class="H"/><path d="M917.01 155.952h9.6v-4.992h-9.6v4.992zm-33.3 0h9.6v-4.992h-9.6v4.992zm-33.29 0h9.6v-4.992h-9.6v4.992zm-33.29 0h9.6v-4.992h-9.6v4.992zm-49.95 0h9.6v-4.992h-9.6v4.992zm216.41 0h9.6v-4.992h-9.6v4.992zm-16.64 0h9.6v-4.992h-9.6v4.992zm-16.65 0h9.6v-4.992h-9.6v4.992zm-49.94 0h9.6v-4.992h-9.6v4.992zm-33.29 0h9.6v-4.992h-9.6v4.992zm-66.59 0h9.6v-4.992h-9.6v4.992zm-16.65 0h9.6v-4.992h-9.6v4.992zm-33.29 0h9.6v-4.992h-9.6v4.992zm-33.3 0h9.6v-4.992h-9.6v4.992zm-16.64 0h9.6v-4.992h-9.6v4.992zm-16.65 0h9.6v-4.992h-9.6v4.992zm-16.65 0h9.6v-4.992h-9.6v4.992zm-16.64 0h9.6v-4.992h-9.6v4.992zm-33.3 0h9.6v-4.992h-9.6v4.992zm-16.65 0h9.6v-4.992h-9.6v4.992zm-16.64 0h9.6v-4.992h-9.6v4.992zm-16.65 0h9.6v-4.992h-9.6v4.992zm-16.65 0h9.6v-4.992h-9.6v4.992zm-33.29 0h9.6v-4.992h-9.6v4.992zm-16.65 0h9.6v-4.992h-9.6v4.992zm-16.64 0h9.6v-4.992h-9.6v4.992zm-16.65 0h9.6v-4.992h-9.6v4.992zm-16.65 0h9.6v-4.992h-9.6v4.992zm-33.29 0h9.6v-4.992h-9.6v4.992zm-16.65 0h9.6v-4.992h-9.6v4.992zm-16.65 0h9.6v-4.992h-9.6v4.992z" class="B"/></g><g stroke="#595959"><path fill="#595959" d="M917.01 155.952h9.6v-2.496h-9.6v2.496zm-33.3 0h9.6v-2.496h-9.6v2.496zm-33.29 0h9.6v-2.496h-9.6v2.496zm-33.29 0h9.6v-2.496h-9.6v2.496zm-49.95 0h9.6v-2.496h-9.6v2.496zm216.41 0h9.6v-2.496h-9.6v2.496zm-16.64 0h9.6v-2.496h-9.6v2.496zm-16.65 0h9.6v-2.496h-9.6v2.496zm-49.94 0h9.6v-2.496h-9.6v2.496zm-33.29 0h9.6v-2.496h-9.6v2.496zm-66.59 0h9.6v-2.496h-9.6v2.496zm-16.65 0h9.6v-2.496h-9.6v2.496zm-33.29 0h9.6v-2.496h-9.6v2.496zm-33.3 0h9.6v-2.496h-9.6v2.496zm-16.64 0h9.6v-2.496h-9.6v2.496zm-16.65 0h9.6v-2.496h-9.6v2.496zm-16.65 0h9.6v-2.496h-9.6v2.496zm-16.64 0h9.6v-2.496h-9.6v2.496zm-33.3 0h9.6v-2.496h-9.6v2.496zm-16.65 0h9.6v-2.496h-9.6v2.496zm-16.64 0h9.6v-2.496h-9.6v2.496zm-16.65 0h9.6v-2.496h-9.6v2.496zm-16.65 0h9.6v-2.496h-9.6v2.496zm-33.29 0h9.6v-2.496h-9.6v2.496zm-16.65 0h9.6v-2.496h-9.6v2.496zm-16.64 0h9.6v-2.496h-9.6v2.496zm-16.65 0h9.6v-2.496h-9.6v2.496zm-16.65 0h9.6v-2.496h-9.6v2.496zm-33.29 0h9.6v-2.496h-9.6v2.496zm-16.65 0h9.6v-2.496h-9.6v2.496zm-16.65 0h9.6v-2.496h-9.6v2.496z" class="B"/><path fill="url(#J)" d="M940.322 134.196a3.44 3.44 0 1 0-6.912 0 3.44 3.44 0 1 0 6.912 0zm-99.69 0a3.44 3.44 0 1 0-6.912 0 3.44 3.44 0 1 0 6.912 0zm-99.7 0a3.44 3.44 0 1 0-6.912 0 3.44 3.44 0 1 0 6.912 0zm-99.69 0a3.44 3.44 0 1 0-6.912 0 3.44 3.44 0 1 0 6.912 0zm-99.69 0a3.44 3.44 0 1 0-6.912 0 3.44 3.44 0 1 0 6.912 0zm-99.7 0a3.44 3.44 0 1 0-6.912 0 3.44 3.44 0 1 0 6.912 0z" class="B"/></g><g class="H"><path fill="url(#I)" d="M1032 35.591c0-4.743 3.819-8.562 8.562-8.562s8.562 3.819 8.562 8.562v89.108c0 4.743-3.819 8.562-8.562 8.562s-8.562-3.819-8.562-8.562z"/><g fill="#000"><use xlink:href="#Q"/><path d="M378.369 132.38v.926h-2.742v7.605h-1.119v-7.605h-2.736v-.926h6.598z"/><use xlink:href="#Q" x="14.186"/><path d="M275.67 130.38v8.531h-1.131l-4.295-6.574v6.574h-1.131v-8.531h1.131l4.307 6.604v-6.604h1.119zm5.87 4.781q-.34.404-.812.65-.472.246-1.034.246-.738 0-1.286-.363-.548-.363-.847-1.022-.299-.659-.299-1.456 0-.855.325-1.541.325-.686.923-1.049.598-.363 1.395-.363 1.266 0 1.995.946.729.946.729 2.581v.316q0 2.49-.984 3.636-.984 1.146-2.971 1.175h-.211v-.914h.229q1.342-.023 2.063-.7.721-.677.785-2.142zm-1.67 0q.545 0 1.005-.334.46-.334.671-.826v-.434q0-1.066-.463-1.734-.463-.668-1.172-.668-.715 0-1.148.548-.434.548-.434 1.444 0 .873.419 1.438.419.565 1.122.565zm9.727 3.75l-3.023-3.967-1.043 1.084v2.883h-1.125v-8.531h1.125v4.219l3.791-4.219h1.359l-3.357 3.768 3.621 4.764h-1.348zm4.043-4.066v.885h-2.859v-.885h2.859zm1.225-4.465h1.453l2.789 6.961 2.789-6.961h1.459v8.531h-1.125v-3.322l.105-3.586-2.801 6.908h-.861l-2.795-6.891.111 3.568v3.322h-1.125v-8.531zm14.256-.006h.193v.92h-.199q-1.266.023-2.016.75-.75.727-.867 2.045.674-.773 1.84-.773 1.113 0 1.778.785.665.785.665 2.027 0 1.318-.718 2.109-.718.791-1.925.791-1.225 0-1.986-.94-.762-.94-.762-2.423v-.416q0-2.355 1.005-3.601 1.005-1.245 2.991-1.274zm-1.23 3.844q-.557 0-1.025.334-.469.334-.65.838v.398q0 1.055.475 1.699.475.645 1.184.645.732 0 1.151-.539.419-.539.419-1.412 0-.879-.425-1.421-.425-.542-1.128-.542zm7.324 1.353h-2.01v3.34h-1.125v-8.531h3.146q1.4 0 2.194.715.794.715.794 1.893 0 1.242-.776 1.913-.776.671-2.224.671zm-2.01-4.266v3.346h2.021q.902 0 1.383-.425.48-.425.48-1.228 0-.762-.48-1.219-.48-.457-1.318-.475h-2.086zm12.961 3.071v.545q0 1.236-.393 2.13-.393.894-1.102 1.397l1.523 1.195-.768.709-1.799-1.43q-.422.105-.891.105-1.008 0-1.787-.495-.779-.495-1.21-1.412-.431-.917-.442-2.124v-.615q0-1.23.428-2.174.428-.943 1.21-1.444.782-.501 1.79-.501 1.031 0 1.813.498.782.498 1.204 1.433.422.935.422 2.183zm-1.125.627v-.633q0-1.506-.601-2.323-.601-.817-1.714-.817-1.061 0-1.673.812-.612.812-.63 2.253v.627q0 1.465.612 2.309.612.844 1.702.844 1.09 0 1.688-.794.598-.794.615-2.276z"/><use xlink:href="#R"/><use xlink:href="#S"/><use xlink:href="#T"/><path d="M431.142 132.16v4.271h-.847v-3.264l-1.011.313v-.688l1.767-.633h.091z"/><use xlink:href="#R" x="100"/><use xlink:href="#S" x="100"/><use xlink:href="#T" x="100"/><path d="M532.009 135.749v.683h-2.924v-.58l1.38-1.471q.284-.311.42-.542.136-.231.136-.439 0-.284-.144-.447-.144-.163-.41-.163-.287 0-.453.198-.166.198-.166.52H529q0-.39.186-.712.186-.322.526-.505.34-.183.771-.183.659 0 1.024.316.365.316.365.894 0 .316-.164.645-.164.328-.562.765l-.97 1.022h1.834z"/><use xlink:href="#R" x="199"/><use xlink:href="#S" x="199"/><use xlink:href="#T" x="199"/><path d="M628.947 134.586v-.662h.451q.322 0 .478-.161.155-.161.155-.428 0-.258-.154-.401-.154-.144-.423-.144-.243 0-.407.133-.164.133-.164.347h-.847q0-.334.18-.599.18-.265.504-.415.324-.149.713-.149.677 0 1.061.324.384.324.384.892 0 .293-.179.539-.179.246-.469.378.36.129.538.387.177.258.177.609 0 .568-.415.911-.415.343-1.097.343-.639 0-1.044-.337-.406-.337-.406-.891h.847q0 .24.18.393.18.152.444.152.302 0 .473-.16.171-.16.171-.423 0-.639-.703-.639h-.448z"/><use xlink:href="#R" x="299"/><use xlink:href="#S" x="299"/><use xlink:href="#T" x="299"/><path d="M730.591 132.166v2.66h.483v.683h-.483v.923h-.847v-.923h-1.749l-.038-.533 1.778-2.81h.855zm-.902 1.251l-.888 1.409h.943v-1.506l-.056.097z"/><use xlink:href="#R" x="399"/><use xlink:href="#S" x="399"/><use xlink:href="#T" x="399"/><path d="M828.885 134.501l-.674-.167.246-2.168h2.391v.706h-1.696l-.105.917q.302-.161.642-.161.609 0 .955.378.346.378.346 1.058 0 .413-.174.74-.174.327-.5.507-.325.18-.768.18-.387 0-.718-.157-.331-.157-.523-.441-.192-.284-.204-.647h.838q.026.267.186.415.16.148.417.148.287 0 .442-.207.155-.207.155-.584 0-.363-.179-.557-.179-.193-.507-.193-.302 0-.489.158l-.082.076z"/><use xlink:href="#R" x="498"/><use xlink:href="#S" x="498"/><use xlink:href="#T" x="498"/><path d="M929.241 132.122h.141v.697h-.082q-.574.009-.924.299-.35.29-.42.806.34-.346.858-.346.557 0 .885.398.328.398.328 1.049 0 .416-.18.753-.18.337-.51.524-.33.188-.746.188-.674 0-1.088-.469-.415-.469-.415-1.251v-.305q0-.694.262-1.226.262-.532.753-.823.491-.292 1.138-.294zm-.686 2.136q-.205 0-.372.107-.167.107-.246.283v.258q0 .425.167.664.167.239.469.239.272 0 .441-.215.168-.215.168-.558 0-.349-.17-.562-.17-.214-.457-.214z"/></g></g></symbol></svg>