<svg xmlns="http://www.w3.org/2000/svg" xmlns:xlink="http://www.w3.org/1999/xlink" viewBox="0 0 301 2041" fill="#fff" fill-rule="evenodd" stroke="#000" stroke-linecap="round" stroke-linejoin="round"><style><![CDATA[.B{fill:#000}.C{stroke:none}.D{stroke-linejoin:miter}.E{stroke-width:1.2}.F{stroke:#595959}.G{fill:#595959}.H{stroke:#7f7f7f}.I{stroke-width:.399}.J{fill:url(#A)}.K{fill:#a5a5a5}.L{fill:url(#E)}.M{fill:url(#F)}.N{stroke-dasharray:2.4952 1.2476}.O{stroke-width:1.248}.P{stroke-width:1.198}]]></style><use xlink:href="#K" x=".5" y=".5"/><defs><linearGradient id="A" x1="100%" y1="50%" x2="0%" y2="50%"><stop offset="0%" stop-color="#a5a5a5"/><stop offset="1%" stop-color="#a5a5a5"/><stop offset="50%" stop-color="#595959"/><stop offset="100%" stop-color="#a5a5a5"/></linearGradient><linearGradient id="B" x1="0%" y1="50%" x2="100%" y2="50%"><stop offset="0%" stop-color="#595959"/><stop offset="100%" stop-color="#bfbfbf"/></linearGradient><linearGradient id="C" x1="100%" y1="50%" x2="0%" y2="50%"><stop offset="0%" stop-color="#595959"/><stop offset="100%" stop-color="#bfbfbf"/></linearGradient><linearGradient id="D" x1="50%" y1="0%" x2="50%" y2="100%"><stop offset="0%" stop-color="#595959"/><stop offset="100%" stop-color="#a5a5a5"/></linearGradient><linearGradient id="E" x1="100%" y1="50%" x2="0%" y2="50%"><stop offset="0%" stop-color="#595959"/><stop offset="100%" stop-color="#a5a5a5"/></linearGradient><linearGradient id="F" x1="0%" y1="50%" x2="100%" y2="50%"><stop offset="0%" stop-color="#595959"/><stop offset="100%" stop-color="#a5a5a5"/></linearGradient><linearGradient id="G" x1="50%" y1="0%" x2="50%" y2="100%"><stop offset="0%" stop-color="#fff"/><stop offset="70.7%" stop-color="#bfbfbf"/></linearGradient><radialGradient id="H" r="100%" fx="50%" fy="50%" cx="50%" cy="50%"><stop offset="0%" stop-color="#d0d0d0"/><stop offset="70.7%" stop-color="#bfbfbf"/></radialGradient><radialGradient id="I" r="100%" fx="50%" fy="50%" cx="50%" cy="50%"><stop offset="0%" stop-color="#9d9d9d"/><stop offset="100%" stop-color="#7f7f7f"/></radialGradient><radialGradient id="J" r="100%" fx="50%" fy="50%" cx="50%" cy="50%"><stop offset="0%" stop-color="#5c5c5c"/><stop offset="100%" stop-color="#3f3f3f"/></radialGradient></defs><symbol id="K" overflow="visible"><path d="M0 0h300v2040H0z" class="C G"/><g class="E"><path d="M5.625 117.16h9.36V2.8h-9.36v114.36z" class="J"/><path d="M15 1994h270V45.92H15V1994z" class="B"/><path d="M285.005 117.16h9.36V2.8h-9.36v114.36z" class="J"/><path d="M18.75 1994h262.56V45.92H18.75V1994z" fill="#bfbfbf"/><path fill="url(#B)" d="M39.39 45.92H18.75V1994h20.64"/></g><g transform="translate(260.615 45.92)"><path fill="url(#C)" d="M0 0h20.64v1948.08H0" class="E"/></g><g class="E"><path d="M203.363 21.553h-30c-4.2 0-7.44 3.36-7.44 7.56s-3.36 7.44-7.44 7.44h-16.8c-4.32 0-7.56-3.36-7.56-7.44s-3.36-7.56-7.56-7.56h-30v9.36h20.64a7.53 7.53 0 0 1 7.56 7.56c0 4.2 3.24 7.44 7.44 7.44h35.64c4.2 0 7.56-3.36 7.56-7.44s3.24-7.56 7.56-7.56h20.4v-9.36z" fill="#7f7f7f" class="D"/><path d="M45 480.91h210v-363.6H45v363.6zm0 971.29h210V503.48H45v948.72z" class="G"/><path fill="url(#D)" d="M195 11.28V0H0v11.28" transform="matrix(-1 0 0 -1 247.5 1183.50005)"/><path d="M45 1744.7h210v-271.92H45v271.92z" class="G"/><path d="M5.625 1125.9h9.36V913.98h-9.36v211.92zm279.38 0h9.36V913.98h-9.36v211.92z" class="K"/><path d="M195 11.28V0H0v11.28" transform="matrix(-1 0 0 -1 247.5 925.35005)" class="L"/><path d="M52.505 867.26v-11.28h195v11.28" class="M"/><path d="M52.425 867.14c-8.16 0-14.88-6.6-14.88-13.8V320.9c0-8.4 6.72-15 15-15h195c8.4 0 15 6.72 15 15v532.44c0 8.4-6.72 15-15 15h-67.92c-3.12 0-6-.96-8.64-2.76-12.6-8.88-29.28-8.88-42 0-2.4 1.8-5.52 2.76-8.64 2.76h-67.92zm-24.6-750h-22.2v796.8h115.92a9.6 9.6 0 0 1 6.6 2.64c12.36 11.64 31.44 11.64 43.8 0a9.6 9.6 0 0 1 6.6-2.64h115.92v-796.8h-22.44a9.6 9.6 0 0 0-9.6 9.6v136.8c0 8.4-6.72 15-15 15h-195c-8.4 0-15-6.72-15-15v-136.8a9.6 9.6 0 0 0-9.6-9.6z" class="D K"/><path d="M24.345 117.24H5.625v796.8h18.72" class="M"/></g><g transform="translate(275.655 117.24)"><path d="M0 0h18.72v796.8H0" class="E L"/></g><g class="E"><path d="M202.485 1799.1H58.125v84h144.36v12h16.8v-12.24h11.28v-84h-11.28v-12.24h-16.8v12.48z" class="D G"/><g class="J"><path d="M5.625 1922.8h9.36v114.36h-9.36V1922.8z"/><path d="M285.005 1922.8h9.36v114.36h-9.36V1922.8z"/></g><g class="F"><path d="M103.08 1968.74a13.98 13.98 0 0 1-14.04 14.04 13.98 13.98 0 1 1 0-28.08 13.98 13.98 0 0 1 14.04 14.04z" fill="none"/><circle cx="89.231" cy="1968.9" r="7.2" class="B D"/><path d="M256.835 1968.74a13.98 13.98 0 1 1-28.08 0 13.98 13.98 0 1 1 28.08 0z" fill="none"/><circle cx="242.985" cy="1968.9" r="7.2" class="B D"/></g><path d="M203.363 2018.36h-30c-4.2 0-7.44-3.36-7.44-7.56s-3.36-7.44-7.44-7.44h-16.8c-4.32 0-7.56 3.36-7.56 7.44s-3.36 7.56-7.56 7.56h-30V2009h20.64a7.53 7.53 0 0 0 7.56-7.56c0-4.2 3.24-7.44 7.44-7.44h35.64c4.2 0 7.56 3.36 7.56 7.44s3.24 7.56 7.56 7.56h20.4v9.36z" fill="#7f7f7f" class="D"/><path fill="url(#D)" d="M52.505 1125.88v-11.28h195v11.28"/><path d="M52.375 1171.625c-8.16 0-14.83 7.775-14.83 14.975v532.44c0 8.4 6.72 15 15 15h195c8.4 0 15-6.72 15-15V1186.6c0-8.4-6.72-15-15-15h-67.92c-3.12 0-6 .96-8.64 2.76-12.6 8.88-29.28 8.88-42 0-2.4-1.8-5.52-2.76-8.64-2.76h-67.92zM27.825 1922.8h-22.2V1126h115.92a9.6 9.6 0 0 0 6.6-2.64c12.36-11.64 31.44-11.64 43.8 0a9.6 9.6 0 0 0 6.6 2.64h115.92v796.8h-22.44a9.6 9.6 0 0 1-9.6-9.6v-136.8c0-8.4-6.72-15-15-15h-195c-8.4 0-15 6.72-15 15v136.8a9.6 9.6 0 0 1-9.6 9.6z" class="D K"/><path d="M24.345 1125.9H5.625v796.8h18.72" class="M"/></g><g transform="translate(275.658 1125.9)"><path d="M0 0h18.72v796.8H0" class="E L"/></g><g class="E"><g fill="none"><path d="M52.5 1901.7h174.36c8.4 0 15-6.72 15-15v-95.16c0-8.4-6.72-15-15-15H52.5c-8.4 0-15 6.72-15 15v95.16a15.01 15.01 0 0 0 15 15z"/><path d="M103.08 71.248a13.98 13.98 0 0 0-14.04-14.04A13.98 13.98 0 0 0 75 71.248a13.98 13.98 0 0 0 14.04 14.04 13.98 13.98 0 0 0 14.04-14.04z" class="F"/></g><circle cx="89.231" cy="71.056" r="7.2" class="B D F"/><path d="M256.835 71.248a13.98 13.98 0 1 0-28.08 0 13.98 13.98 0 1 0 28.08 0z" fill="none" class="F"/><circle cx="242.986" cy="71.056" r="7.2" class="B D F"/></g><g transform="translate(127.525 869.118)"><path d="M44.862 22.431C44.862 10.094 34.819 0 22.431 0S0 10.094 0 22.431s10.043 22.431 22.431 22.431 22.431-10.094 22.431-22.431z" stroke="#9a9a9a" fill="url(#G)" class="N O"/><g transform="translate(8.209 8.225)"><path d="M28.444 14.206A14.21 14.21 0 0 0 14.222 0 14.21 14.21 0 0 0 0 14.206a14.21 14.21 0 0 0 14.222 14.206 14.21 14.21 0 0 0 14.222-14.206z" fill="url(#H)" class="H P"/></g><g transform="matrix(.788011 -.615661 .615661 .788011 7.854787 18.18589)"><path d="M3.517 0L18.01 22.804c-.911 1.132-2.083 1.852-3.517 2.161L0 2.161C.911 1.029 2.083.309 3.517 0z" fill="url(#I)" stroke="#a5a5a5" class="I"/></g><g transform="translate(15.495 15.328)"><path d="M4.167 7.975L2.47 12.586c1.372.623 2.844 1.246 4.304 1.62h0l1.659-4.611 4.204 1.496 1.248-3.365-4.204-1.495 1.697-4.611C10.005.997 8.533.374 7.074 0h0L5.414 4.611 1.248 3.115 0 6.48l4.167 1.496" fill="url(#J)" class="H I"/></g></g><g transform="translate(127.525 1126)"><path d="M0 22.431C0 10.094 10.043 0 22.431 0s22.431 10.094 22.431 22.431-10.043 22.431-22.431 22.431S0 34.768 0 22.431z" stroke="#9a9a9a" fill="url(#G)" class="N O"/><g transform="translate(8.209 8.225)"><path d="M0 14.206A14.21 14.21 0 0 1 14.222 0a14.21 14.21 0 0 1 14.222 14.206 14.21 14.21 0 0 1-14.222 14.206A14.21 14.21 0 0 1 0 14.206z" fill="url(#H)" class="H P"/></g><g transform="matrix(.788011 .615661 -.615661 .788011 22.815416 7.097808)"><path d="M14.493 0L0 22.804c.911 1.132 2.083 1.852 3.517 2.161L18.01 2.161C17.099 1.029 15.927.309 14.493 0z" fill="url(#I)" stroke="#a5a5a5" class="I"/></g><g transform="translate(15.482 15.328)"><path d="M9.719 7.975l1.697 4.611c-1.372.623-2.844 1.246-4.304 1.62h0L5.452 9.595l-4.204 1.496L0 7.726l4.204-1.495L2.508 1.62C3.88.997 5.352.374 6.812 0h0l1.659 4.611 4.167-1.495 1.248 3.364-4.167 1.496" fill="url(#J)" class="H I"/></g></g></symbol></svg>