<svg xmlns="http://www.w3.org/2000/svg" xmlns:xlink="http://www.w3.org/1999/xlink" viewBox="0 0 301 3722.1" fill="#fff" fill-rule="evenodd" stroke="#000" stroke-linecap="round" stroke-linejoin="round"><style><![CDATA[.B{fill:#000}.C{stroke:none}.D{stroke-width:1.2}.E{stroke-linejoin:miter}.F{fill:none}.G{fill:url(#D)}.H{stroke:#7f7f7f}.I{fill:url(#A)}.J{fill:#a5a5a5}.K{fill:url(#I)}.L{stroke-width:1.248}]]></style><use xlink:href="#K" x=".5" y=".6"/><defs><linearGradient id="A" x1="50%" y1="0%" x2="50%" y2="100%"><stop offset="0%" stop-color="#a5a5a5"/><stop offset="1%" stop-color="#a5a5a5"/><stop offset="50%" stop-color="#595959"/><stop offset="100%" stop-color="#a5a5a5"/></linearGradient><linearGradient id="B" x1="100%" y1="50%" x2="0%" y2="50%"><stop offset="0%" stop-color="#595959"/><stop offset="100%" stop-color="#bfbfbf"/></linearGradient><linearGradient id="C" x1="0%" y1="50%" x2="100%" y2="50%"><stop offset="0%" stop-color="#595959"/><stop offset="100%" stop-color="#bfbfbf"/></linearGradient><linearGradient id="D" x1="50%" y1="0%" x2="50%" y2="100%"><stop offset="0%" stop-color="#595959"/><stop offset="100%" stop-color="#a5a5a5"/></linearGradient><linearGradient id="E" x1="0%" y1="50%" x2="100%" y2="50%"><stop offset="0%" stop-color="#595959"/><stop offset="100%" stop-color="#a5a5a5"/></linearGradient><linearGradient id="F" x1="100%" y1="50%" x2="0%" y2="50%"><stop offset="0%" stop-color="#595959"/><stop offset="100%" stop-color="#a5a5a5"/></linearGradient><radialGradient id="G" r="100%" fx="50%" fy="50%" cx="50%" cy="50%"><stop offset="0%" stop-color="#fff"/><stop offset="71%" stop-color="#bfbfbf"/></radialGradient><radialGradient id="H" r="100%" fx="50%" fy="50%" cx="50%" cy="50%"><stop offset="0%" stop-color="#d0d0d0"/><stop offset="71%" stop-color="#bfbfbf"/></radialGradient><radialGradient id="I" r="100%" fx="50%" fy="50%" cx="50%" cy="50%"><stop offset="0%" stop-color="#9d9d9d"/><stop offset="100%" stop-color="#7f7f7f"/></radialGradient><radialGradient id="J" r="100%" fx="50%" fy="50%" cx="50%" cy="50%"><stop offset="0%" stop-color="#5c5c5c"/><stop offset="100%" stop-color="#3f3f3f"/></radialGradient></defs><symbol id="K" overflow="visible"><path d="M0 .01h300v3720H0z" fill="#595959" class="C"/><g class="D"><path d="M294.375 3602.81h-9.36v114.36h9.36v-114.36z" class="I"/><path d="M285.005 43.11h-270v3630.96h270V43.11z" class="B"/><path d="M15 3602.81H5.64v114.36H15v-114.36z" class="I"/><path d="M281.255 43.11H18.695v3630.96h262.56V43.11z" fill="#bfbfbf"/></g><g transform="translate(260.615 43.11)"><path fill="url(#B)" d="M0 0h20.64v3630.96H0" class="D"/></g><g class="D"><path fill="url(#C)" d="M39.39 43.11H18.75v3630.96h20.64"/><g stroke="#595959"><path d="M196.925 3648.75a13.98 13.98 0 1 0 28.08 0 13.98 13.98 0 1 0-28.08 0z" class="F"/><circle cx="210.765" cy="3648.91" r="7.2" class="B E"/><path d="M43.17 3648.75a13.98 13.98 0 0 0 14.04 14.04 13.98 13.98 0 1 0 0-28.08 13.98 13.98 0 0 0-14.04 14.04z" class="F"/><circle cx="57.019" cy="3648.91" r="7.2" class="B E"/></g><path d="M96.635 3698.37h30c4.2 0 7.44-3.36 7.44-7.56s3.36-7.44 7.44-7.44h16.8c4.32 0 7.56 3.36 7.56 7.44s3.36 7.56 7.56 7.56h30v-9.36h-20.64a7.53 7.53 0 0 1-7.56-7.56c0-4.2-3.24-7.44-7.44-7.44h-35.64c-4.2 0-7.56 3.36-7.56 7.44s-3.24 7.56-7.56 7.56h-20.4v9.36z" fill="#7f7f7f" class="E"/><path d="M294.375 1754.01h-9.36v211.92h9.36v-211.92zm-279.375 0H5.64v211.92H15v-211.92z" class="J"/><g class="I"><path d="M294.375 114.36h-9.36V0h9.36v114.36z"/><path d="M15 114.36H5.64V0H15v114.36z"/></g><g stroke="#595959"><path d="M196.925 68.445a13.98 13.98 0 1 1 28.08 0 13.98 13.98 0 1 1-28.08 0z" class="F"/><circle cx="210.765" cy="68.254" r="7.2" class="B E"/><path d="M43.17 68.445a13.98 13.98 0 0 1 14.04-14.04 13.98 13.98 0 0 1 14.04 14.04 13.98 13.98 0 0 1-14.04 14.04 13.98 13.98 0 0 1-14.04-14.04z" class="F"/><circle cx="57.019" cy="68.254" r="7.2" class="B E"/></g><path d="M96.635 18.75h30c4.2 0 7.44 3.36 7.44 7.56s3.36 7.44 7.44 7.44h16.8c4.32 0 7.56-3.36 7.56-7.44s3.36-7.56 7.56-7.56h30v9.36h-20.64a7.53 7.53 0 0 0-7.56 7.56c0 4.2-3.24 7.44-7.44 7.44h-35.64c-4.2 0-7.56-3.36-7.56-7.44s-3.24-7.56-7.56-7.56h-20.4v-9.36z" fill="#7f7f7f" class="E"/><g fill="#595959"><path d="M255.005 307.49h-210v3292.56h210V307.49z"/><path d="M97.515 201.22h144.36v-84H97.515v-12h-16.8v12.24h-11.28v84h11.28v12.24h16.8v-12.48z" class="E"/></g><path d="M247.505 98.66H73.145c-8.4 0-15 6.72-15 15v95.16c0 8.4 6.72 15 15 15h174.36c8.4 0 15-6.72 15-15v-95.16a15.01 15.01 0 0 0-15-15z" class="F"/></g><g transform="matrix(-1 0 0 -1 247.5 1765.3099)"><path d="M195 11.28V0H0v11.28" class="D G"/></g><g class="D"><path d="M52.505 1707.19v-11.28h195v11.28" class="G"/><path d="M52.425 1303.07c-8.4 0-15-6.72-15-15V937.31c0-8.4 6.72-15 15-15h195c8.4 0 15 6.72 15 15v350.4c0 8.4-6.72 15-15 15h-195zm0-406.8c-8.4 0-15-6.72-15-15V532.55c0-8.4 6.72-15 15-15h195c8.4 0 15 6.72 15 15v348.72c0 8.4-6.72 15-15 15h-195zm0-401.16c-8.4 0-15-6.72-15-15v-196.8c0-8.4 6.72-15 15-15h195c8.4 0 15 6.72 15 15v196.8c0 8.4-6.72 15-15 15h-195zm219.6-380.76a9.6 9.6 0 0 0-9.6 9.6v99.96c.84 9.12-6 17.16-15 18h-195c-8.4 0-15-6.72-15-15V123.95a9.6 9.6 0 0 0-9.6-9.6h-22.2v1639.68h115.92a9.6 9.6 0 0 1 6.6 2.64c12.36 11.64 31.44 11.64 43.8 0a9.6 9.6 0 0 1 6.6-2.64h115.92V114.35l-22.32-.12zm-24.48 1592.76h-67.92c-3.12 0-6-.96-8.64-2.76-12.6-8.88-29.28-8.88-42 0-2.4 1.8-5.52 2.76-8.64 2.76h-67.92c-8.16 0-14.88-6.6-14.88-13.8v-348c0-8.4 6.72-15 15-15h195c8.4 0 15 6.72 15 15v348c0 8.4-6.64 13.815-14.92 13.815z" class="E J"/><path fill="url(#E)" d="M24.345 114.33H5.625v1639.68h18.72"/></g><g transform="translate(275.655 114.33)"><path fill="url(#F)" d="M0 0h18.72v1639.68H0" class="D"/></g><g transform="matrix(-1 0 0 -1 247.50005 2023.96005)"><path d="M195 11.28V0H0v11.28" class="D G"/></g><g class="D"><path d="M52.5 2023.91v-11.28m195 0v11.28h-195" class="F"/><path d="M52.852 1965.79v-11.28h195v11.28" class="G"/><path d="M247.505 1954.51v11.28m-195 0v-11.28h195" class="F"/><path d="M52.425 2416.95c-8.4 0-15 6.72-15 15v350.76c0 8.4 6.72 15 15 15h195c8.4 0 15-6.72 15-15v-350.4c0-8.4-6.72-15-15-15h-195zm0 406.8c-8.4 0-15 6.72-15 15v348.72c0 8.4 6.72 15 15 15h195c8.4 0 15-6.72 15-15v-348.72c0-8.4-6.72-15-15-15h-195zm0 401.16c-8.4 0-15 6.72-15 15v196.8c0 8.4 6.72 15 15 15h195c8.4 0 15-6.72 15-15v-196.8c0-8.4-6.72-15-15-15h-195zm219.6 377.76a9.55 9.55 0 0 1-9.6-9.6v-96.96c.84-9.12-6-17.16-15-18h-195c-8.4 0-15 6.721-15 15v99.96a9.55 9.55 0 0 1-9.6 9.6h-22.2v-1636.8h115.92a9.6 9.6 0 0 0 6.6-2.64c12.36-11.64 31.44-11.64 43.8 0a9.6 9.6 0 0 0 6.6 2.64h115.92v1636.8h-22.44zm-24.48-1589.76h-67.92c-3.12 0-6 .96-8.64 2.76-12.6 8.88-29.28 8.88-42 0-2.4-1.8-5.52-2.76-8.64-2.76h-67.92c-8.16 0-14.88 6.6-14.88 13.8v348c0 8.4 6.72 15 15 15h195c8.4 0 15-6.72 15-15v-348c0-8.4-6.64-13.835-14.92-13.835z" class="E J"/><path fill="url(#E)" d="M24.345 1966.01H5.625v1636.8h18.72"/></g><g transform="translate(275.658 1966.01)"><path fill="url(#F)" d="M0 0h18.72v1636.8H0" class="D"/></g><g transform="translate(127.613 1709.148)"><path d="M0 22.431C0 10.042 10.042 0 22.431 0s22.431 10.042 22.431 22.431S34.82 44.862 22.431 44.862 0 34.82 0 22.431z" fill="url(#G)" stroke="#9a9a9a" class="E L"/><circle cx="22.242" cy="22.262" fill="url(#H)" r="14.4" class="D H"/><g class="C K"><path d="M25.175 23.262l-1.244-3.4 11.126-4.008a14.23 14.23 0 0 1 1.165 3.099l-11.047 4.309z"/><path d="M20.862 24.876L9.69 28.863c-.708-.93-1.108-2.025-1.165-3.193l11.093-4.195 1.244 3.401z"/></g><path d="M25.132 23.222l1.68 4.8c-1.2.6-2.88 1.2-4.32 1.56l-1.56-4.68-4.2 1.56-1.2-3.36 4.2-1.56-1.68-4.8c1.2.72 2.88-1.08 4.08-1.44l1.8 4.56 4.2-1.56 1.2 3.48-4.2 1.56" fill="url(#J)" stroke-width=".96" class="H"/></g><g transform="translate(127.613 1966.01)"><path d="M44.862 22.431C44.862 10.042 34.82 0 22.431 0S0 10.042 0 22.431s10.043 22.431 22.431 22.431S44.862 34.82 44.862 22.431z" fill="url(#G)" stroke="#9a9a9a" class="E L"/><g transform="translate(8.22 7.862)"><circle cx="14.4" cy="14.4" fill="url(#H)" r="14.4" class="D H"/></g><g transform="translate(8.64 15.854)"><path d="M11.047 7.408l1.244-3.4L1.165 0A14.23 14.23 0 0 0 0 3.099l11.047 4.309z" class="C K"/></g><g transform="translate(24 21.475)"><path d="M0 3.401l11.171 3.986c.708-.931 1.108-2.025 1.165-3.193L1.244 0 0 3.401z" class="C K"/></g><g transform="translate(15.53 15.302)"><path d="M4.2 7.92l-1.68 4.8c1.2.6 2.88 1.2 4.32 1.56L8.4 9.6l4.2 1.56 1.2-3.36-4.2-1.56 1.68-4.8C10.08 2.16 8.4.36 7.2 0L5.4 4.56 1.2 3 0 6.48l4.2 1.56" fill="url(#J)" stroke-width=".96" class="H"/></g></g></symbol></svg>