<svg xmlns="http://www.w3.org/2000/svg" xmlns:xlink="http://www.w3.org/1999/xlink" viewBox="0 0 2281.2 206" fill="#fff" fill-rule="evenodd" stroke="#000" stroke-linecap="round" stroke-linejoin="round" font-family="Roboto" font-size="14" text-anchor="middle"><style><![CDATA[.B{fill:#000}.C{stroke:none}.D{stroke-width:.399}.E{stroke-width:1.2}.F{stroke-linejoin:miter}.G{fill:#595959}.H{stroke:#404040}.I{fill:#262626}.J{stroke-width:1.198}.K{fill:#d9d9d9}.L{font-size:17.472px}.M{fill:silver}.N{fill:gray}.O{fill:#866b00}.P{stroke-width:.96}.Q{stroke:gray}.R{fill-rule:nonzero}]]></style><use xlink:href="#c" x=".6" y=".5"/><defs><radialGradient id="A" r="100%" fx="50%" fy="50%" cx="50%" cy="50%"><stop offset="0%" stop-color="gray"/><stop offset="71%" stop-color="#262626"/></radialGradient><radialGradient id="B" r="100%" fx="50%" fy="50%" cx="50%" cy="50%"><stop offset="0%" stop-color="#bdbdbd"/><stop offset="71%" stop-color="#a5a5a5"/></radialGradient><linearGradient id="C" x1="50%" y1="0%" x2="50%" y2="100%"><stop offset="0%" stop-color="#7f7f7f"/><stop offset="100%" stop-color="#d1d3d0"/></linearGradient><linearGradient id="D" x1="0%" y1="50%" x2="100%" y2="50%"><stop offset="0%" stop-color="#7f7f7f"/><stop offset="100%" stop-color="#d1d3d0"/></linearGradient><linearGradient id="E" x1="100%" y1="50%" x2="0%" y2="50%"><stop offset="0%" stop-color="#7f7f7f"/><stop offset="100%" stop-color="#d1d3d0"/></linearGradient><linearGradient id="F" x1="50%" y1="100%" x2="50%" y2="0%"><stop offset="0%" stop-color="#7f7f7f"/><stop offset="100%" stop-color="#d1d3d0"/></linearGradient><path id="G" d="M2023.9 163.065h97.56V35.625h-97.56v127.44z"/><path id="H" d="M2028.271 161.303h88.733c1.373 0 2.371-1.075 2.371-2.4v-120c0-1.325-.998-2.4-2.371-2.4h-88.733c-1.373 0-2.496 1.075-2.496 2.4v120c0 1.325 1.123 2.4 2.496 2.4z"/><path id="I" d="M2027.772 40.487v37.619a2.43 2.43 0 0 0 2.371 2.4h84.864c1.373 0 2.371-1.075 2.371-2.4V40.487c0-1.325-.998-2.4-2.371-2.4h-84.864a2.43 2.43 0 0 0-2.371 2.4zm0 79.336v37.617a2.43 2.43 0 0 0 2.371 2.4h84.864c1.373 0 2.371-1.075 2.371-2.4v-37.617c0-1.325-.998-2.4-2.371-2.4h-84.864a2.43 2.43 0 0 0-2.371 2.4z"/><path id="J" d="M2026.274 82.853h92.664v31.05h-92.664z"/><path id="K" d="M2087.052 104.265h5.866c1.123-.247 1.872-1.45 1.747-2.687-.25-.904-.874-1.61-1.747-1.791h-5.866c-1.248.247-1.997 1.45-1.747 2.687.125.904.873 1.61 1.747 1.791zm-11.606 0h5.865c1.248-.247 1.997-1.45 1.747-2.687-.125-.904-.873-1.61-1.747-1.791h-5.865c-1.123.247-1.997 1.45-1.747 2.687.25.904.874 1.61 1.747 1.791zm-11.607 0h5.99c1.123-.247 1.872-1.45 1.623-2.687-.125-.904-.749-1.61-1.623-1.791h-5.99c-1.123.247-1.872 1.45-1.622 2.687.125.904.749 1.61 1.622 1.791zm-11.482 0h5.865c1.248-.247 1.997-1.45 1.747-2.687-.25-.904-.873-1.61-1.747-1.791h-5.865c-1.248.247-1.997 1.45-1.747 2.687.125.904.874 1.61 1.747 1.791zm34.694-7.292h5.866c1.123-.247 1.872-1.45 1.747-2.687-.25-.904-.874-1.61-1.747-1.791h-5.866c-1.248.247-1.997 1.45-1.747 2.687.125.904.873 1.61 1.747 1.791zm-11.606 0h5.865c1.248-.247 1.997-1.45 1.747-2.687-.125-.904-.873-1.61-1.747-1.791h-5.865c-1.123.247-1.997 1.45-1.747 2.687.25.904.874 1.61 1.747 1.791zm-11.607 0h5.99c1.123-.247 1.872-1.45 1.623-2.687-.125-.904-.749-1.61-1.623-1.791h-5.99c-1.123.247-1.872 1.45-1.622 2.687.125.904.749 1.61 1.622 1.791zm-11.482 0h5.865c1.248-.247 1.997-1.45 1.747-2.687-.25-.904-.873-1.61-1.747-1.791h-5.865c-1.248.247-1.997 1.45-1.747 2.687.125.904.874 1.61 1.747 1.791zm48.298-3.537h11.856l-5.99 10.312-5.866-10.312zm-67.891 10.312h11.731l-5.866-10.312-5.865 10.312z"/><path id="L" d="M2118.252 64.474c.374 0 .624-.25.624-.588v-9.184c0-.325-.25-.587-.624-.587s-.624.25-.624.587v9.184c0 .325.25.588.624.588zm-91.229 0c.25 0 .499-.25.499-.588v-9.184c0-.325-.249-.587-.499-.587-.374 0-.624.25-.624.587v9.184c0 .325.25.588.624.588zm61.152-27.094c0 .388.374.704.749.704h10.233c.374 0 .749-.315.749-.704s-.374-.703-.749-.703h-10.233c-.375 0-.749.313-.749.703zm-42.806 0c0 .388.249.704.749.704h10.233c.375 0 .749-.315.749-.704s-.374-.703-.749-.703h-10.233c-.499 0-.749.313-.749.703zm-18.346 106.435c.25 0 .499-.25.499-.588v-9.187c0-.325-.249-.588-.499-.588-.374 0-.624.25-.624.588v9.187c0 .325.25.588.624.588zm91.229 0c.374 0 .624-.25.624-.588v-9.187c0-.325-.25-.588-.624-.588s-.624.25-.624.588v9.187c0 .325.25.588.624.588zm-30.077-27.1c0 .387.374.702.749.702h10.233c.374 0 .749-.312.749-.702s-.374-.704-.749-.704h-10.233c-.375 0-.749.315-.749.704zm-42.806 0c0 .387.249.702.749.702h10.233c.375 0 .749-.312.749-.702s-.374-.704-.749-.704h-10.233c-.499 0-.749.315-.749.704z"/><path id="M" d="M2028.77 73.999v2.231c0 1.325.998 2.4 2.371 2.4h83.242a2.43 2.43 0 0 0 2.371-2.4v-2.231a2.43 2.43 0 0 0-2.371-2.4h-83.242c-1.373 0-2.371 1.075-2.371 2.4zm0 79.341v2.225c0 1.325.998 2.4 2.371 2.4h83.242a2.43 2.43 0 0 0 2.371-2.4v-2.225a2.43 2.43 0 0 0-2.371-2.4h-83.242c-1.373 0-2.371 1.075-2.371 2.4z"/><path id="N" d="M2030.143 66.443c1.248 0 2.371-1.05 2.371-2.344v-8.437c0-1.294-1.123-2.344-2.371-2.344s-2.371 1.05-2.371 2.344v8.437c0 1.295 1.123 2.344 2.371 2.344zm1.872 10.312c.749 0 1.373-.63 1.373-1.406v-2.344c0-.775-.624-1.406-1.373-1.406s-1.373.63-1.373 1.406v2.344c0 .775.624 1.406 1.373 1.406zm81.495 0c.749 0 1.373-.63 1.373-1.406v-2.344c0-.775-.624-1.406-1.373-1.406-.873 0-1.498.63-1.498 1.406v2.344c0 .775.624 1.406 1.498 1.406zm1.373-10.312c1.248 0 2.371-1.05 2.371-2.344v-8.437c0-1.294-1.123-2.344-2.371-2.344-1.373 0-2.371 1.05-2.371 2.344v8.437c0 1.295.998 2.344 2.371 2.344zm-30.95-25.781c0 1.295 1.123 2.344 2.371 2.344h8.486c1.248 0 2.247-1.05 2.247-2.344s-.998-2.344-2.247-2.344h-8.486c-1.248 0-2.371 1.05-2.371 2.344zm-35.568 0c0 1.295 1.123 2.344 2.371 2.344h8.487c1.248 0 2.246-1.05 2.246-2.344s-.999-2.344-2.246-2.344h-8.487c-1.248 0-2.371 1.05-2.371 2.344zm-18.221 105.116c1.248 0 2.371-1.05 2.371-2.338v-8.437c0-1.3-1.123-2.35-2.371-2.35s-2.371 1.05-2.371 2.35v8.438c0 1.287 1.123 2.338 2.371 2.338zm1.872 10.312c.749 0 1.373-.625 1.373-1.4v-2.35c0-.775-.624-1.4-1.373-1.4s-1.373.625-1.373 1.4v2.35c0 .775.624 1.4 1.373 1.4zm81.495 0c.749 0 1.373-.625 1.373-1.4v-2.35c0-.775-.624-1.4-1.373-1.4-.873 0-1.498.625-1.498 1.4v2.35c0 .775.624 1.4 1.498 1.4zm1.373-10.312c1.248 0 2.371-1.05 2.371-2.338v-8.437c0-1.3-1.123-2.35-2.371-2.35-1.373 0-2.371 1.05-2.371 2.35v8.438c0 1.287.998 2.338 2.371 2.338zm-30.95-25.78c0 1.294 1.123 2.344 2.371 2.344h8.486c1.248 0 2.247-1.05 2.247-2.344s-.998-2.344-2.247-2.344h-8.486c-1.248 0-2.371 1.05-2.371 2.344zm-35.568 0c0 1.294 1.123 2.344 2.371 2.344h8.487c1.248 0 2.246-1.05 2.246-2.344s-.999-2.344-2.246-2.344h-8.487c-1.248 0-2.371 1.05-2.371 2.344z"/><path id="O" d="M2029.145 77.108c.624 0 1.123-.525 1.123-1.171v-8c0-.647-.499-1.171-1.123-1.171s-1.248.525-1.248 1.171v8c0 .647.624 1.171 1.248 1.171zm0-12.634c.624 0 1.123-.525 1.123-1.172v-8.024c0-.647-.499-1.172-1.123-1.172s-1.248.525-1.248 1.172v8.013c0 .647.624 1.172 1.248 1.172zm0-12.634c.624 0 1.123-.525 1.123-1.171v-8c0-.647-.499-1.172-1.123-1.172s-1.248.525-1.248 1.172v8c0 .647.624 1.171 1.248 1.171zm86.861 25.267c.624 0 1.248-.525 1.248-1.171v-8c0-.647-.624-1.171-1.248-1.171s-1.123.525-1.123 1.171v8c0 .647.499 1.171 1.123 1.171zm0-12.634c.624 0 1.248-.525 1.248-1.172v-8.024c0-.647-.624-1.172-1.248-1.172s-1.123.525-1.123 1.172v8.013c0 .647.499 1.172 1.123 1.172zm0-12.634c.624 0 1.248-.525 1.248-1.171v-8c0-.647-.624-1.172-1.248-1.172s-1.123.525-1.123 1.172v8c0 .647.499 1.171 1.123 1.171zm-84.864-12.116c0 .775.624 1.406 1.373 1.406h8.861c.749 0 1.373-.63 1.373-1.406s-.624-1.406-1.373-1.406h-8.861c-.749 0-1.373.63-1.373 1.406zm14.227 0c0 .775.624 1.406 1.373 1.406h8.861c.874 0 1.498-.63 1.498-1.406s-.624-1.406-1.498-1.406h-8.861c-.749 0-1.373.63-1.373 1.406zm14.227 0c0 .775.624 1.406 1.498 1.406h8.861c.749 0 1.373-.63 1.373-1.406s-.624-1.406-1.373-1.406h-8.861c-.874 0-1.498.63-1.498 1.406zm14.352 0c0 .775.624 1.406 1.373 1.406h8.861c.749 0 1.373-.63 1.373-1.406s-.624-1.406-1.373-1.406h-8.861c-.749 0-1.373.63-1.373 1.406zm14.227 0c0 .775.624 1.406 1.373 1.406h8.985c.749 0 1.373-.63 1.373-1.406s-.624-1.406-1.373-1.406h-8.985c-.749 0-1.373.63-1.373 1.406zm14.227 0c0 .775.624 1.406 1.498 1.406h8.861c.749 0 1.373-.63 1.373-1.406s-.624-1.406-1.373-1.406h-8.861c-.874 0-1.498.63-1.498 1.406zm-71.261 38.906c0 .775.624 1.406 1.373 1.406h8.861c.749 0 1.373-.63 1.373-1.406s-.624-1.406-1.373-1.406h-8.861c-.749 0-1.373.63-1.373 1.406zm14.227 0c0 .775.624 1.406 1.373 1.406h8.861c.874 0 1.498-.63 1.498-1.406s-.624-1.406-1.498-1.406h-8.861c-.749 0-1.373.63-1.373 1.406zm14.227 0c0 .775.624 1.406 1.498 1.406h8.861c.749 0 1.373-.63 1.373-1.406s-.624-1.406-1.373-1.406h-8.861c-.874 0-1.498.63-1.498 1.406zm14.352 0c0 .775.624 1.406 1.373 1.406h8.861c.749 0 1.373-.63 1.373-1.406s-.624-1.406-1.373-1.406h-8.861c-.749 0-1.373.63-1.373 1.406zm14.227 0c0 .775.624 1.406 1.373 1.406h8.985c.749 0 1.373-.63 1.373-1.406s-.624-1.406-1.373-1.406h-8.985c-.749 0-1.373.63-1.373 1.406zm14.227 0c0 .775.624 1.406 1.498 1.406h8.861c.749 0 1.373-.63 1.373-1.406s-.624-1.406-1.373-1.406h-8.861c-.874 0-1.498.63-1.498 1.406zm-73.257 77.81c.624 0 1.123-.525 1.123-1.163v-8c0-.65-.499-1.175-1.123-1.175s-1.248.525-1.248 1.175v8c0 .625.624 1.163 1.248 1.163zm0-12.625c.624 0 1.123-.525 1.123-1.175v-8c0-.65-.499-1.175-1.123-1.175s-1.248.525-1.248 1.175v8c0 .65.624 1.175 1.248 1.175zm0-12.637c.624 0 1.123-.528 1.123-1.175v-8c0-.647-.499-1.173-1.123-1.173s-1.248.525-1.248 1.173v8c0 .646.624 1.175 1.248 1.175zm86.861 25.262c.624 0 1.248-.525 1.248-1.163v-8c0-.65-.624-1.175-1.248-1.175s-1.123.525-1.123 1.175v8c0 .625.499 1.163 1.123 1.163zm0-12.625c.624 0 1.248-.525 1.248-1.175v-8c0-.65-.624-1.175-1.248-1.175s-1.123.525-1.123 1.175v8c0 .65.499 1.175 1.123 1.175zm0-12.637c.624 0 1.248-.528 1.248-1.175v-8c0-.647-.624-1.173-1.248-1.173s-1.123.525-1.123 1.173v8c0 .646.499 1.175 1.123 1.175zm-84.864-12.118c0 .775.624 1.406 1.373 1.406h8.861c.749 0 1.373-.63 1.373-1.406s-.624-1.406-1.373-1.406h-8.861c-.749 0-1.373.63-1.373 1.406zm14.227 0c0 .775.624 1.406 1.373 1.406h8.861c.874 0 1.498-.63 1.498-1.406s-.624-1.406-1.498-1.406h-8.861c-.749 0-1.373.63-1.373 1.406zm14.227 0c0 .775.624 1.406 1.498 1.406h8.861c.749 0 1.373-.63 1.373-1.406s-.624-1.406-1.373-1.406h-8.861c-.874 0-1.498.63-1.498 1.406zm14.352 0c0 .775.624 1.406 1.373 1.406h8.861c.749 0 1.373-.63 1.373-1.406s-.624-1.406-1.373-1.406h-8.861c-.749 0-1.373.63-1.373 1.406zm14.227 0c0 .775.624 1.406 1.373 1.406h8.985c.749 0 1.373-.63 1.373-1.406s-.624-1.406-1.373-1.406h-8.985c-.749 0-1.373.63-1.373 1.406zm14.227 0c0 .775.624 1.406 1.498 1.406h8.861c.749 0 1.373-.63 1.373-1.406s-.624-1.406-1.373-1.406h-8.861c-.874 0-1.498.63-1.498 1.406zm-71.261 38.905c0 .775.624 1.413 1.373 1.413h8.861c.749 0 1.373-.625 1.373-1.413s-.624-1.4-1.373-1.4h-8.861c-.749 0-1.373.625-1.373 1.4zm14.227 0c0 .775.624 1.413 1.373 1.413h8.861c.874 0 1.498-.625 1.498-1.413s-.624-1.4-1.498-1.4h-8.861c-.749 0-1.373.625-1.373 1.4zm14.227 0c0 .775.624 1.413 1.498 1.413h8.861c.749 0 1.373-.625 1.373-1.413s-.624-1.4-1.373-1.4h-8.861c-.874 0-1.498.625-1.498 1.4zm14.352 0c0 .775.624 1.413 1.373 1.413h8.861c.749 0 1.373-.625 1.373-1.413s-.624-1.4-1.373-1.4h-8.861c-.749 0-1.373.625-1.373 1.4zm14.227 0c0 .775.624 1.413 1.373 1.413h8.985c.749 0 1.373-.625 1.373-1.413s-.624-1.4-1.373-1.4h-8.985c-.749 0-1.373.625-1.373 1.4zm14.227 0c0 .775.624 1.413 1.498 1.413h8.861c.749 0 1.373-.625 1.373-1.413s-.624-1.4-1.373-1.4h-8.861c-.874 0-1.498.625-1.498 1.4z"/><path id="P" d="M2131.7 130.835a3.83 3.83 0 1 1 7.68 0 3.83 3.83 0 1 1-7.68 0zm0-15.12a3.83 3.83 0 1 1 7.68 0 3.83 3.83 0 1 1-7.68 0zm0-15.12a3.83 3.83 0 1 1 7.68 0 3.83 3.83 0 1 1-7.68 0zm0-15.48a3.83 3.83 0 1 1 7.68 0 3.83 3.83 0 1 1-7.68 0zm0-15.12a3.83 3.83 0 1 1 7.68 0 3.83 3.83 0 1 1-7.68 0zm0-30.6a3.83 3.83 0 1 1 7.68 0 3.83 3.83 0 1 1-7.68 0zm0 15.6a3.83 3.83 0 1 1 7.68 0 3.83 3.83 0 1 1-7.68 0zm0 91.2a3.83 3.83 0 1 1 7.68 0 3.83 3.83 0 1 1-7.68 0zm0 15.12a3.83 3.83 0 1 1 7.68 0 3.83 3.83 0 1 1-7.68 0z"/><path id="Q" d="M143.979 83.906v5.688h-1.172l-2.281-3.742v3.742h-1.172v-5.687h1.172l2.285 3.75v-3.75h1.168z"/><path id="R" d="M132.596 106.101q0-.332-.234-.51-.234-.178-.844-.375-.609-.197-.965-.389-.969-.523-.969-1.41 0-.461.26-.822.26-.361.746-.564.486-.203 1.092-.203.609 0 1.086.221.477.221.74.623.264.402.264.914h-1.172q0-.391-.246-.607-.246-.217-.691-.217-.43 0-.668.182-.238.182-.238.479 0 .277.279.465.279.188.822.352 1 .301 1.457.746.457.445.457 1.109 0 .738-.559 1.158-.559.42-1.504.42-.656 0-1.195-.24-.539-.24-.822-.658-.283-.418-.283-.969h1.176q0 .941 1.125.941.418 0 .652-.17.234-.17.234-.475z"/><path id="S" d="M231.309 14.589v8.543h-1.693v-6.527l-2.021.627v-1.377l3.533-1.266h.182z"/><path id="T" d="M281.491 21.767v1.365h-5.848v-1.16l2.76-2.941q.568-.621.841-1.084.272-.463.272-.879 0-.568-.287-.894-.287-.325-.82-.325-.574 0-.905.396-.331.396-.331 1.04h-1.699q0-.779.372-1.424.372-.645 1.052-1.011.68-.366 1.541-.366 1.318 0 2.048.633.729.633.729 1.787 0 .633-.328 1.289-.328.656-1.125 1.529l-1.939 2.045h3.668z"/><path id="U" d="M350.106 19.441v-1.324h.902q.645 0 .955-.322.311-.322.311-.855 0-.516-.308-.803-.308-.287-.847-.287-.486 0-.814.267-.328.267-.328.694h-1.693q0-.668.36-1.198.36-.53 1.008-.829.647-.299 1.427-.299 1.354 0 2.121.647.768.647.768 1.784 0 .586-.357 1.078-.357.492-.937.756.721.258 1.075.773.354.516.354 1.219 0 1.137-.829 1.822-.829.686-2.194.686-1.277 0-2.089-.674-.812-.674-.812-1.781h1.693q0 .48.36.785.36.305.888.305.604 0 .946-.319.343-.319.343-.847 0-1.277-1.406-1.277h-.896z"/><path id="V" d="M401.84 14.601v5.32h.967v1.365h-.967v1.846h-1.693v-1.846h-3.498l-.076-1.066 3.557-5.619h1.711zm-1.805 2.502l-1.775 2.818h1.887V16.91l-.111.193z"/><path id="W" d="M471.169 19.271l-1.348-.334.492-4.336h4.781v1.412h-3.393l-.211 1.834q.604-.322 1.283-.322 1.219 0 1.91.756.691.756.691 2.115 0 .826-.349 1.479-.349.653-.999 1.014-.65.36-1.535.36-.773 0-1.436-.313-.662-.313-1.046-.882-.384-.568-.407-1.295h1.676q.053.533.372.829.319.296.835.296.574 0 .885-.413.311-.413.311-1.169 0-.727-.357-1.113-.357-.387-1.014-.387-.604 0-.979.316l-.164.152z"/><path id="X" d="M522.33 14.513h.281v1.395h-.164q-1.148.018-1.849.598-.7.58-.841 1.611.68-.691 1.717-.691 1.113 0 1.77.797.656.797.656 2.098 0 .832-.36 1.506-.36.674-1.02 1.049-.659.375-1.491.375-1.348 0-2.177-.937-.829-.937-.829-2.502V19.2q0-1.389.524-2.452.524-1.063 1.506-1.646.981-.583 2.276-.589zm-1.371 4.271q-.41 0-.744.214-.334.214-.492.565v.516q0 .85.334 1.327.334.478.938.478.545 0 .882-.431.337-.431.337-1.116 0-.697-.34-1.125-.34-.428-.914-.428z"/><path id="Y" d="M596.558 14.601v.949l-3.299 7.582h-1.787l3.305-7.16h-4.242v-1.371h6.023z"/><path id="Z" d="M644.766 16.869q0 .621-.311 1.102-.311.48-.855.768.621.299.984.823.363.524.363 1.233 0 1.137-.773 1.796-.773.659-2.104.659-1.33 0-2.109-.662-.779-.662-.779-1.793 0-.709.363-1.236.363-.527.979-.82-.545-.287-.853-.768-.308-.48-.308-1.102 0-1.09.727-1.737.727-.647 1.975-.647 1.242 0 1.972.642.729.642.729 1.743zm-1.518 3.803q0-.557-.322-.891-.322-.334-.867-.334-.539 0-.861.331-.322.331-.322.894 0 .545.316.879.316.334.879.334.551 0 .864-.322.313-.322.313-.891zm-.176-3.721q0-.498-.264-.8-.264-.302-.744-.302-.475 0-.738.293-.264.293-.264.809 0 .51.264.82.264.311.744.311.48 0 .741-.311.261-.311.261-.82z"/><path id="a" d="M715.906 19.722q-.662.65-1.547.65-1.131 0-1.811-.776-.68-.776-.68-2.095 0-.838.366-1.538.366-.7 1.022-1.09.656-.39 1.477-.39.844 0 1.5.422.656.422 1.02 1.213.363.791.369 1.811v.627q0 2.133-1.061 3.352-1.061 1.219-3.006 1.301l-.416.006v-1.412l.375-.006q2.209-.1 2.391-2.074zm-1.131-.645q.41 0 .706-.211.296-.211.448-.51v-.697q0-.861-.328-1.336-.328-.475-.879-.475-.51 0-.838.466-.328.466-.328 1.169 0 .697.319 1.146.319.448.899.448z"/><path id="b" d="M773.02 18.035v1.57q0 1.77-.732 2.707-.732.938-2.145.938-1.395 0-2.133-.92-.738-.92-.756-2.637v-1.57q0-1.787.741-2.713.741-.926 2.136-.926 1.395 0 2.133.917.738.917.756 2.634zm-1.693 1.875v-2.027q0-1.061-.29-1.544-.29-.483-.905-.483-.598 0-.882.46-.284.46-.302 1.438v2.074q0 1.043.284 1.55.284.507.911.507.621 0 .896-.486.275-.486.287-1.488z"/></defs><symbol id="c" overflow="visible"><g class="F"><path d="M2236.08 187.565h-8.88c-6.48 0-11.76-5.16-12-11.52s5.28-11.64 11.76-11.64h22.8c6.6 0 12 5.16 12 11.52s-5.16 11.64-11.76 11.64h-13.8zm0-73.44h-8.88c-6.48 0-11.76-5.16-12-11.52s5.28-11.64 11.76-11.64h22.8c6.6 0 12 5.16 12 11.52s-5.16 11.64-11.76 11.64h-13.8zm0-73.44h-8.88c-6.48 0-11.76-5.16-12-11.52s5.28-11.64 11.76-11.64h22.8c6.6 0 12 5.16 12 11.52s-5.16 11.64-11.76 11.64h-13.8zM39.24 187.565h-8.88c-6.48 0-12-5.16-12-11.52s5.4-11.52 11.88-11.52h22.8c6.48 0 12 5.16 12 11.52s-5.28 11.64-11.76 11.64H39.24zm0-73.44h-8.88c-6.48 0-12-5.16-12-11.52s5.28-11.64 11.76-11.64h22.8c6.48 0 12 5.16 12 11.52s-5.4 11.64-11.88 11.64h-13.8zm0-73.44h-8.88c-6.48 0-12-5.16-12-11.52s5.28-11.64 11.76-11.64h22.8c6.48 0 12 5.16 12 11.52s-5.28 11.64-11.76 11.64H39.24zM24 204.125h2232c12 0 24-5.16 24-11.64v-180c0-6.36-12-11.64-24-11.64H24c-13.2 0-24 5.16-24 11.64v180c0 6.48 12 11.64 24 11.64z" fill="#a6a6a6" class="E"/><path d="M128.16 203.945h2025.12c3.96 0 7.32-3.36 7.32-7.44v-189a7.48 7.48 0 0 0-7.44-7.44h-2025c-4.2-.12-7.56 3.24-7.56 7.44v189c0 4.08 3.36 7.44 7.56 7.44z" fill="#d1d3d0" class="P Q"/></g><g fill="url(#A)"><path d="M189.255 51.461a6.73 6.73 0 0 0-6.727-6.727 6.73 6.73 0 0 0-6.728 6.727 6.73 6.73 0 0 0 6.728 6.728 6.73 6.73 0 0 0 6.727-6.728z" class="P Q"/><path d="M189.255 69.444a6.73 6.73 0 0 0-6.727-6.727 6.73 6.73 0 0 0-6.728 6.727 6.73 6.73 0 0 0 6.728 6.728 6.73 6.73 0 0 0 6.727-6.728z" class="P Q"/><path d="M189.255 87.426a6.73 6.73 0 0 0-6.727-6.727 6.73 6.73 0 0 0-6.728 6.727 6.73 6.73 0 0 0 6.728 6.728 6.73 6.73 0 0 0 6.727-6.728z" class="P Q"/><path d="M189.255 105.412a6.73 6.73 0 0 0-6.727-6.727 6.73 6.73 0 0 0-6.728 6.727 6.73 6.73 0 0 0 6.728 6.728 6.73 6.73 0 0 0 6.727-6.728z" class="P Q"/></g><path d="M194.4 137.695c0-6.627-5.373-12-12-12s-12 5.373-12 12 5.373 12 12 12 12-5.373 12-12z" fill="url(#B)" class="P Q"/><path d="M2152.83 7.44V0H128.07v7.44" fill="url(#C)" class="P Q"/><path d="M128.1 7.475h-7.44v188.88h7.44" fill="url(#D)" class="P Q"/><path d="M2153.1 7.475h7.44v188.88h-7.44" fill="url(#E)" class="P Q"/><path d="M2152.83 196.445v7.44H128.07v-7.44" fill="url(#F)" class="P Q"/><g fill="url(#A)"><path d="M159.355 104.757a6.73 6.73 0 0 0-6.727-6.727 6.73 6.73 0 0 0-6.728 6.727 6.73 6.73 0 0 0 6.728 6.728 6.73 6.73 0 0 0 6.727-6.728z" class="P Q"/><path d="M159.355 86.412a6.73 6.73 0 0 0-6.727-6.727 6.73 6.73 0 0 0-6.728 6.727 6.73 6.73 0 0 0 6.728 6.728 6.73 6.73 0 0 0 6.727-6.728z" class="P Q"/><path d="M159.355 123.107a6.73 6.73 0 0 0-6.727-6.727 6.73 6.73 0 0 0-6.728 6.727 6.73 6.73 0 0 0 6.728 6.728 6.73 6.73 0 0 0 6.727-6.728z" class="P Q"/></g><use xlink:href="#G" class="B E"/><use xlink:href="#H" class="D F G H"/><use xlink:href="#I" class="I J"/><g class="C"><use xlink:href="#J" class="K"/><use xlink:href="#K" class="B"/></g><g class="D"><use xlink:href="#L" class="M"/><use xlink:href="#M" class="N"/><g class="O"><use xlink:href="#N"/><use xlink:href="#O"/></g></g><path d="M1903.1 9.946h218.4v22.08h-218.4z" fill="#00a8cb" class="C"/><g class="B E"><use xlink:href="#P"/><use xlink:href="#G" x="-121.2"/></g><use xlink:href="#H" x="-121.2" class="D F G H"/><use xlink:href="#I" x="-121.2" class="I J"/><g class="C"><use xlink:href="#J" x="-121.2" class="K"/><use xlink:href="#K" x="-121.2" class="B"/></g><g class="D"><use xlink:href="#L" x="-121.2" class="M"/><use xlink:href="#M" x="-121.2" class="N"/><g class="O"><use xlink:href="#N" x="-121.2"/><use xlink:href="#O" x="-121.2"/></g></g><use xlink:href="#G" x="-242.3" class="B E"/><use xlink:href="#H" x="-242.3" class="D F G H"/><use xlink:href="#I" x="-242.3" class="I J"/><g class="C"><use xlink:href="#J" x="-242.3" class="K"/><use xlink:href="#K" x="-242.3" class="B"/></g><g class="D"><use xlink:href="#L" x="-242.3" class="M"/><use xlink:href="#M" x="-242.3" class="N"/><g class="O"><use xlink:href="#N" x="-242.3"/><use xlink:href="#O" x="-242.3"/></g></g><use xlink:href="#G" x="-363.5" class="B E"/><use xlink:href="#H" x="-363.5" class="D F G H"/><use xlink:href="#I" x="-363.5" class="I J"/><g class="C"><use xlink:href="#J" x="-363.5" class="K"/><use xlink:href="#K" x="-363.5" class="B"/></g><g class="D"><use xlink:href="#L" x="-363.5" class="M"/><use xlink:href="#M" x="-363.5" class="N"/><g class="O"><use xlink:href="#N" x="-363.5"/><use xlink:href="#O" x="-363.5"/></g></g><use xlink:href="#G" x="-484.7" class="B E"/><use xlink:href="#H" x="-484.7" class="D F G H"/><use xlink:href="#I" x="-484.7" class="I J"/><g class="C"><use xlink:href="#J" x="-484.7" class="K"/><use xlink:href="#K" x="-484.7" class="B"/></g><g class="D"><use xlink:href="#L" x="-484.7" class="M"/><use xlink:href="#M" x="-484.7" class="N"/><g class="O"><use xlink:href="#N" x="-484.7"/><use xlink:href="#O" x="-484.7"/></g></g><path d="M1418 163.065h97.56V35.625H1418v127.44z" class="B E"/><use xlink:href="#H" x="-605.9" class="D F G H"/><use xlink:href="#I" x="-605.9" class="I J"/><g class="C"><use xlink:href="#J" x="-605.9" class="K"/><use xlink:href="#K" x="-605.9" class="B"/></g><g class="D"><use xlink:href="#L" x="-605.9" class="M"/><use xlink:href="#M" x="-605.9" class="N"/><g class="O"><use xlink:href="#N" x="-605.9"/><path d="M1423.245 77.108c.624 0 1.123-.525 1.123-1.171v-8c0-.647-.499-1.171-1.123-1.171s-1.248.525-1.248 1.171v8c0 .647.624 1.171 1.248 1.171zm0-12.634c.624 0 1.123-.525 1.123-1.172v-8.024c0-.647-.499-1.172-1.123-1.172s-1.248.525-1.248 1.172v8.013c0 .647.624 1.172 1.248 1.172zm0-12.634c.624 0 1.123-.525 1.123-1.171v-8c0-.647-.499-1.172-1.123-1.172s-1.248.525-1.248 1.172v8c0 .647.624 1.171 1.248 1.171zm86.861 25.267c.624 0 1.248-.525 1.248-1.171v-8c0-.647-.624-1.171-1.248-1.171s-1.123.525-1.123 1.171v8c0 .647.499 1.171 1.123 1.171zm0-12.634c.624 0 1.248-.525 1.248-1.172v-8.024c0-.647-.624-1.172-1.248-1.172s-1.123.525-1.123 1.172v8.013c0 .647.499 1.172 1.123 1.172zm0-12.634c.624 0 1.248-.525 1.248-1.171v-8c0-.647-.624-1.172-1.248-1.172s-1.123.525-1.123 1.172v8c0 .647.499 1.171 1.123 1.171zm-84.864-12.116c0 .775.624 1.406 1.373 1.406h8.861c.749 0 1.373-.63 1.373-1.406s-.624-1.406-1.373-1.406h-8.861c-.749 0-1.373.63-1.373 1.406zm14.227 0c0 .775.624 1.406 1.373 1.406h8.861c.874 0 1.498-.63 1.498-1.406s-.624-1.406-1.498-1.406h-8.861c-.749 0-1.373.63-1.373 1.406zm14.227 0c0 .775.624 1.406 1.498 1.406h8.861c.749 0 1.373-.63 1.373-1.406s-.624-1.406-1.373-1.406h-8.861c-.874 0-1.498.63-1.498 1.406zm14.352 0c0 .775.624 1.406 1.373 1.406h8.861c.749 0 1.373-.63 1.373-1.406s-.624-1.406-1.373-1.406h-8.861c-.749 0-1.373.63-1.373 1.406zm14.227 0c0 .775.624 1.406 1.373 1.406h8.985c.749 0 1.373-.63 1.373-1.406s-.624-1.406-1.373-1.406h-8.985c-.749 0-1.373.63-1.373 1.406zm14.227 0c0 .775.624 1.406 1.498 1.406h8.861c.749 0 1.373-.63 1.373-1.406s-.624-1.406-1.373-1.406H1498c-.874 0-1.498.63-1.498 1.406zm-71.261 38.906c0 .775.624 1.406 1.373 1.406h8.861c.749 0 1.373-.63 1.373-1.406s-.624-1.406-1.373-1.406h-8.861c-.749 0-1.373.63-1.373 1.406zm14.227 0c0 .775.624 1.406 1.373 1.406h8.861c.874 0 1.498-.63 1.498-1.406s-.624-1.406-1.498-1.406h-8.861c-.749 0-1.373.63-1.373 1.406zm14.227 0c0 .775.624 1.406 1.498 1.406h8.861c.749 0 1.373-.63 1.373-1.406s-.624-1.406-1.373-1.406h-8.861c-.874 0-1.498.63-1.498 1.406zm14.352 0c0 .775.624 1.406 1.373 1.406h8.861c.749 0 1.373-.63 1.373-1.406s-.624-1.406-1.373-1.406h-8.861c-.749 0-1.373.63-1.373 1.406zm14.227 0c0 .775.624 1.406 1.373 1.406h8.985c.749 0 1.373-.63 1.373-1.406s-.624-1.406-1.373-1.406h-8.985c-.749 0-1.373.63-1.373 1.406zm14.227 0c0 .775.624 1.406 1.498 1.406h8.861c.749 0 1.373-.63 1.373-1.406s-.624-1.406-1.373-1.406H1498c-.874 0-1.498.63-1.498 1.406zm-73.257 77.81c.624 0 1.123-.525 1.123-1.163v-8c0-.65-.499-1.175-1.123-1.175s-1.248.525-1.248 1.175v8c0 .625.624 1.163 1.248 1.163zm0-12.625c.624 0 1.123-.525 1.123-1.175v-8c0-.65-.499-1.175-1.123-1.175s-1.248.525-1.248 1.175v8c0 .65.624 1.175 1.248 1.175zm0-12.637c.624 0 1.123-.528 1.123-1.175v-8c0-.647-.499-1.173-1.123-1.173s-1.248.525-1.248 1.173v8c0 .646.624 1.175 1.248 1.175zm86.861 25.262c.624 0 1.248-.525 1.248-1.163v-8c0-.65-.624-1.175-1.248-1.175s-1.123.525-1.123 1.175v8c0 .625.499 1.163 1.123 1.163zm0-12.625c.624 0 1.248-.525 1.248-1.175v-8c0-.65-.624-1.175-1.248-1.175s-1.123.525-1.123 1.175v8c0 .65.499 1.175 1.123 1.175zm0-12.637c.624 0 1.248-.528 1.248-1.175v-8c0-.647-.624-1.173-1.248-1.173s-1.123.525-1.123 1.173v8c0 .646.499 1.175 1.123 1.175zm-84.864-12.118c0 .775.624 1.406 1.373 1.406h8.861c.749 0 1.373-.63 1.373-1.406s-.624-1.406-1.373-1.406h-8.861c-.749 0-1.373.63-1.373 1.406zm14.227 0c0 .775.624 1.406 1.373 1.406h8.861c.874 0 1.498-.63 1.498-1.406s-.624-1.406-1.498-1.406h-8.861c-.749 0-1.373.63-1.373 1.406zm14.227 0c0 .775.624 1.406 1.498 1.406h8.861c.749 0 1.373-.63 1.373-1.406s-.624-1.406-1.373-1.406h-8.861c-.874 0-1.498.63-1.498 1.406zm14.352 0c0 .775.624 1.406 1.373 1.406h8.861c.749 0 1.373-.63 1.373-1.406s-.624-1.406-1.373-1.406h-8.861c-.749 0-1.373.63-1.373 1.406zm14.227 0c0 .775.624 1.406 1.373 1.406h8.985c.749 0 1.373-.63 1.373-1.406s-.624-1.406-1.373-1.406h-8.985c-.749 0-1.373.63-1.373 1.406zm14.227 0c0 .775.624 1.406 1.498 1.406h8.861c.749 0 1.373-.63 1.373-1.406s-.624-1.406-1.373-1.406H1498c-.874 0-1.498.63-1.498 1.406zm-71.261 38.905c0 .775.624 1.413 1.373 1.413h8.861c.749 0 1.373-.625 1.373-1.413s-.624-1.4-1.373-1.4h-8.861c-.749 0-1.373.625-1.373 1.4zm14.227 0c0 .775.624 1.413 1.373 1.413h8.861c.874 0 1.498-.625 1.498-1.413s-.624-1.4-1.498-1.4h-8.861c-.749 0-1.373.625-1.373 1.4zm14.227 0c0 .775.624 1.413 1.498 1.413h8.861c.749 0 1.373-.625 1.373-1.413s-.624-1.4-1.373-1.4h-8.861c-.874 0-1.498.625-1.498 1.4zm14.352 0c0 .775.624 1.413 1.373 1.413h8.861c.749 0 1.373-.625 1.373-1.413s-.624-1.4-1.373-1.4h-8.861c-.749 0-1.373.625-1.373 1.4zm14.227 0c0 .775.624 1.413 1.373 1.413h8.985c.749 0 1.373-.625 1.373-1.413s-.624-1.4-1.373-1.4h-8.985c-.749 0-1.373.625-1.373 1.4zm14.227 0c0 .775.624 1.413 1.498 1.413h8.861c.749 0 1.373-.625 1.373-1.413s-.624-1.4-1.373-1.4H1498c-.874 0-1.498.625-1.498 1.4z"/></g></g><use xlink:href="#G" x="-727.1" class="B E"/><use xlink:href="#H" x="-727.1" class="D F G H"/><use xlink:href="#I" x="-727.1" class="I J"/><g class="C"><use xlink:href="#J" x="-727.1" class="K"/><use xlink:href="#K" x="-727.1" class="B"/></g><g class="D"><use xlink:href="#L" x="-727.1" class="M"/><use xlink:href="#M" x="-727.1" class="N"/><g class="O"><use xlink:href="#N" x="-727.1"/><use xlink:href="#O" x="-727.1"/></g></g><use xlink:href="#G" x="-848.2" class="B E"/><use xlink:href="#H" x="-848.2" class="D F G H"/><use xlink:href="#I" x="-848.2" class="I J"/><g class="C"><use xlink:href="#J" x="-848.2" class="K"/><use xlink:href="#K" x="-848.2" class="B"/></g><g class="D"><use xlink:href="#L" x="-848.2" class="M"/><use xlink:href="#M" x="-848.2" class="N"/><g class="O"><use xlink:href="#N" x="-848.2"/><use xlink:href="#O" x="-848.2"/></g></g><use xlink:href="#G" x="-969.4" class="B E"/><use xlink:href="#H" x="-969.4" class="D F G H"/><use xlink:href="#I" x="-969.4" class="I J"/><g class="C"><use xlink:href="#J" x="-969.4" class="K"/><use xlink:href="#K" x="-969.4" class="B"/></g><g class="D"><use xlink:href="#L" x="-969.4" class="M"/><use xlink:href="#M" x="-969.4" class="N"/><g class="O"><use xlink:href="#N" x="-969.4"/><use xlink:href="#O" x="-969.4"/></g></g><use xlink:href="#G" x="-1090.59" class="B E"/><use xlink:href="#H" x="-1090.59" class="D F G H"/><use xlink:href="#I" x="-1090.59" class="I J"/><g class="C"><use xlink:href="#J" x="-1090.59" class="K"/><use xlink:href="#K" x="-1090.59" class="B"/></g><g class="D"><use xlink:href="#L" x="-1090.59" class="M"/><use xlink:href="#M" x="-1090.59" class="N"/><g class="O"><use xlink:href="#N" x="-1090.59"/><path d="M938.555 77.108c.624 0 1.123-.525 1.123-1.171v-8c0-.647-.499-1.171-1.123-1.171s-1.248.525-1.248 1.171v8c0 .647.624 1.171 1.248 1.171zm0-12.634c.624 0 1.123-.525 1.123-1.172v-8.024c0-.647-.499-1.172-1.123-1.172s-1.248.525-1.248 1.172v8.013c0 .647.624 1.172 1.248 1.172zm0-12.634c.624 0 1.123-.525 1.123-1.171v-8c0-.647-.499-1.172-1.123-1.172s-1.248.525-1.248 1.172v8c0 .647.624 1.171 1.248 1.171zm86.861 25.267c.624 0 1.248-.525 1.248-1.171v-8c0-.647-.624-1.171-1.248-1.171s-1.123.525-1.123 1.171v8c0 .647.499 1.171 1.123 1.171zm0-12.634c.624 0 1.248-.525 1.248-1.172v-8.024c0-.647-.624-1.172-1.248-1.172s-1.123.525-1.123 1.172v8.013c0 .647.499 1.172 1.123 1.172zm0-12.634c.624 0 1.248-.525 1.248-1.171v-8c0-.647-.624-1.172-1.248-1.172s-1.123.525-1.123 1.172v8c0 .647.499 1.171 1.123 1.171zm-84.864-12.116c0 .775.624 1.406 1.373 1.406h8.861c.749 0 1.373-.63 1.373-1.406s-.624-1.406-1.373-1.406h-8.861c-.749 0-1.373.63-1.373 1.406zm14.227 0c0 .775.624 1.406 1.373 1.406h8.861c.874 0 1.498-.63 1.498-1.406s-.624-1.406-1.498-1.406h-8.861c-.749 0-1.373.63-1.373 1.406zm14.227 0c0 .775.624 1.406 1.498 1.406h8.861c.749 0 1.373-.63 1.373-1.406s-.624-1.406-1.373-1.406h-8.861c-.874 0-1.498.63-1.498 1.406zm14.352 0c0 .775.624 1.406 1.373 1.406h8.861c.749 0 1.373-.63 1.373-1.406s-.624-1.406-1.373-1.406h-8.861c-.749 0-1.373.63-1.373 1.406zm14.227 0c0 .775.624 1.406 1.373 1.406h8.985c.749 0 1.373-.63 1.373-1.406s-.624-1.406-1.373-1.406h-8.985c-.749 0-1.373.63-1.373 1.406zm14.227 0c0 .775.624 1.406 1.498 1.406h8.861c.749 0 1.373-.63 1.373-1.406s-.624-1.406-1.373-1.406h-8.861c-.874 0-1.498.63-1.498 1.406zM940.552 78.63c0 .775.624 1.406 1.373 1.406h8.861c.749 0 1.373-.63 1.373-1.406s-.624-1.406-1.373-1.406h-8.861c-.749 0-1.373.63-1.373 1.406zm14.227 0c0 .775.624 1.406 1.373 1.406h8.861c.874 0 1.498-.63 1.498-1.406s-.624-1.406-1.498-1.406h-8.861c-.749 0-1.373.63-1.373 1.406zm14.227 0c0 .775.624 1.406 1.498 1.406h8.861c.749 0 1.373-.63 1.373-1.406s-.624-1.406-1.373-1.406h-8.861c-.874 0-1.498.63-1.498 1.406zm14.352 0c0 .775.624 1.406 1.373 1.406h8.861c.749 0 1.373-.63 1.373-1.406s-.624-1.406-1.373-1.406h-8.861c-.749 0-1.373.63-1.373 1.406zm14.227 0c0 .775.624 1.406 1.373 1.406h8.985c.749 0 1.373-.63 1.373-1.406s-.624-1.406-1.373-1.406h-8.985c-.749 0-1.373.63-1.373 1.406zm14.227 0c0 .775.624 1.406 1.498 1.406h8.861c.749 0 1.373-.63 1.373-1.406s-.624-1.406-1.373-1.406h-8.861c-.874 0-1.498.63-1.498 1.406zm-73.257 77.81c.624 0 1.123-.525 1.123-1.163v-8c0-.65-.499-1.175-1.123-1.175s-1.248.525-1.248 1.175v8c0 .625.624 1.163 1.248 1.163zm0-12.625c.624 0 1.123-.525 1.123-1.175v-8c0-.65-.499-1.175-1.123-1.175s-1.248.525-1.248 1.175v8c0 .65.624 1.175 1.248 1.175zm0-12.637c.624 0 1.123-.528 1.123-1.175v-8c0-.647-.499-1.173-1.123-1.173s-1.248.525-1.248 1.173v8c0 .646.624 1.175 1.248 1.175zm86.861 25.262c.624 0 1.248-.525 1.248-1.163v-8c0-.65-.624-1.175-1.248-1.175s-1.123.525-1.123 1.175v8c0 .625.499 1.163 1.123 1.163zm0-12.625c.624 0 1.248-.525 1.248-1.175v-8c0-.65-.624-1.175-1.248-1.175s-1.123.525-1.123 1.175v8c0 .65.499 1.175 1.123 1.175zm0-12.637c.624 0 1.248-.528 1.248-1.175v-8c0-.647-.624-1.173-1.248-1.173s-1.123.525-1.123 1.173v8c0 .646.499 1.175 1.123 1.175zm-84.864-12.118c0 .775.624 1.406 1.373 1.406h8.861c.749 0 1.373-.63 1.373-1.406s-.624-1.406-1.373-1.406h-8.861c-.749 0-1.373.63-1.373 1.406zm14.227 0c0 .775.624 1.406 1.373 1.406h8.861c.874 0 1.498-.63 1.498-1.406s-.624-1.406-1.498-1.406h-8.861c-.749 0-1.373.63-1.373 1.406zm14.227 0c0 .775.624 1.406 1.498 1.406h8.861c.749 0 1.373-.63 1.373-1.406s-.624-1.406-1.373-1.406h-8.861c-.874 0-1.498.63-1.498 1.406zm14.352 0c0 .775.624 1.406 1.373 1.406h8.861c.749 0 1.373-.63 1.373-1.406s-.624-1.406-1.373-1.406h-8.861c-.749 0-1.373.63-1.373 1.406zm14.227 0c0 .775.624 1.406 1.373 1.406h8.985c.749 0 1.373-.63 1.373-1.406s-.624-1.406-1.373-1.406h-8.985c-.749 0-1.373.63-1.373 1.406zm14.227 0c0 .775.624 1.406 1.498 1.406h8.861c.749 0 1.373-.63 1.373-1.406s-.624-1.406-1.373-1.406h-8.861c-.874 0-1.498.63-1.498 1.406zm-71.261 38.905c0 .775.624 1.413 1.373 1.413h8.861c.749 0 1.373-.625 1.373-1.413s-.624-1.4-1.373-1.4h-8.861c-.749 0-1.373.625-1.373 1.4zm14.227 0c0 .775.624 1.413 1.373 1.413h8.861c.874 0 1.498-.625 1.498-1.413s-.624-1.4-1.498-1.4h-8.861c-.749 0-1.373.625-1.373 1.4zm14.227 0c0 .775.624 1.413 1.498 1.413h8.861c.749 0 1.373-.625 1.373-1.413s-.624-1.4-1.373-1.4h-8.861c-.874 0-1.498.625-1.498 1.4zm14.352 0c0 .775.624 1.413 1.373 1.413h8.861c.749 0 1.373-.625 1.373-1.413s-.624-1.4-1.373-1.4h-8.861c-.749 0-1.373.625-1.373 1.4zm14.227 0c0 .775.624 1.413 1.373 1.413h8.985c.749 0 1.373-.625 1.373-1.413s-.624-1.4-1.373-1.4h-8.985c-.749 0-1.373.625-1.373 1.4zm14.227 0c0 .775.624 1.413 1.498 1.413h8.861c.749 0 1.373-.625 1.373-1.413s-.624-1.4-1.373-1.4h-8.861c-.874 0-1.498.625-1.498 1.4z"/></g></g><use xlink:href="#G" x="-1211.76" class="B E"/><use xlink:href="#H" x="-1211.76" class="D F G H"/><use xlink:href="#I" x="-1211.76" class="I J"/><g class="C"><use xlink:href="#J" x="-1211.76" class="K"/><use xlink:href="#K" x="-1211.76" class="B"/></g><g class="D"><use xlink:href="#L" x="-1211.76" class="M"/><use xlink:href="#M" x="-1211.76" class="N"/><g class="O"><use xlink:href="#N" x="-1211.76"/><path d="M817.385 77.108c.624 0 1.123-.525 1.123-1.171v-8c0-.647-.499-1.171-1.123-1.171s-1.248.525-1.248 1.171v8c0 .647.624 1.171 1.248 1.171zm0-12.634c.624 0 1.123-.525 1.123-1.172v-8.024c0-.647-.499-1.172-1.123-1.172s-1.248.525-1.248 1.172v8.013c0 .647.624 1.172 1.248 1.172zm0-12.634c.624 0 1.123-.525 1.123-1.171v-8c0-.647-.499-1.172-1.123-1.172s-1.248.525-1.248 1.172v8c0 .647.624 1.171 1.248 1.171zm86.861 25.267c.624 0 1.248-.525 1.248-1.171v-8c0-.647-.624-1.171-1.248-1.171s-1.123.525-1.123 1.171v8c0 .647.499 1.171 1.123 1.171zm0-12.634c.624 0 1.248-.525 1.248-1.172v-8.024c0-.647-.624-1.172-1.248-1.172s-1.123.525-1.123 1.172v8.013c0 .647.499 1.172 1.123 1.172zm0-12.634c.624 0 1.248-.525 1.248-1.171v-8c0-.647-.624-1.172-1.248-1.172s-1.123.525-1.123 1.172v8c0 .647.499 1.171 1.123 1.171zm-84.864-12.116c0 .775.624 1.406 1.373 1.406h8.861c.749 0 1.373-.63 1.373-1.406s-.624-1.406-1.373-1.406h-8.861c-.749 0-1.373.63-1.373 1.406zm14.227 0c0 .775.624 1.406 1.373 1.406h8.861c.874 0 1.498-.63 1.498-1.406s-.624-1.406-1.498-1.406h-8.861c-.749 0-1.373.63-1.373 1.406zm14.227 0c0 .775.624 1.406 1.498 1.406h8.861c.749 0 1.373-.63 1.373-1.406s-.624-1.406-1.373-1.406h-8.861c-.874 0-1.498.63-1.498 1.406zm14.352 0c0 .775.624 1.406 1.373 1.406h8.861c.749 0 1.373-.63 1.373-1.406s-.624-1.406-1.373-1.406h-8.861c-.749 0-1.373.63-1.373 1.406zm14.227 0c0 .775.624 1.406 1.373 1.406h8.985c.749 0 1.373-.63 1.373-1.406s-.624-1.406-1.373-1.406h-8.985c-.749 0-1.373.63-1.373 1.406zm14.227 0c0 .775.624 1.406 1.498 1.406h8.861c.749 0 1.373-.63 1.373-1.406s-.624-1.406-1.373-1.406h-8.861c-.874 0-1.498.63-1.498 1.406zM819.382 78.63c0 .775.624 1.406 1.373 1.406h8.861c.749 0 1.373-.63 1.373-1.406s-.624-1.406-1.373-1.406h-8.861c-.749 0-1.373.63-1.373 1.406zm14.227 0c0 .775.624 1.406 1.373 1.406h8.861c.874 0 1.498-.63 1.498-1.406s-.624-1.406-1.498-1.406h-8.861c-.749 0-1.373.63-1.373 1.406zm14.227 0c0 .775.624 1.406 1.498 1.406h8.861c.749 0 1.373-.63 1.373-1.406s-.624-1.406-1.373-1.406h-8.861c-.874 0-1.498.63-1.498 1.406zm14.352 0c0 .775.624 1.406 1.373 1.406h8.861c.749 0 1.373-.63 1.373-1.406s-.624-1.406-1.373-1.406h-8.861c-.749 0-1.373.63-1.373 1.406zm14.227 0c0 .775.624 1.406 1.373 1.406h8.985c.749 0 1.373-.63 1.373-1.406s-.624-1.406-1.373-1.406h-8.985c-.749 0-1.373.63-1.373 1.406zm14.227 0c0 .775.624 1.406 1.498 1.406h8.861c.749 0 1.373-.63 1.373-1.406s-.624-1.406-1.373-1.406h-8.861c-.874 0-1.498.63-1.498 1.406zm-73.257 77.81c.624 0 1.123-.525 1.123-1.163v-8c0-.65-.499-1.175-1.123-1.175s-1.248.525-1.248 1.175v8c0 .625.624 1.163 1.248 1.163zm0-12.625c.624 0 1.123-.525 1.123-1.175v-8c0-.65-.499-1.175-1.123-1.175s-1.248.525-1.248 1.175v8c0 .65.624 1.175 1.248 1.175zm0-12.637c.624 0 1.123-.528 1.123-1.175v-8c0-.647-.499-1.173-1.123-1.173s-1.248.525-1.248 1.173v8c0 .646.624 1.175 1.248 1.175zm86.861 25.262c.624 0 1.248-.525 1.248-1.163v-8c0-.65-.624-1.175-1.248-1.175s-1.123.525-1.123 1.175v8c0 .625.499 1.163 1.123 1.163zm0-12.625c.624 0 1.248-.525 1.248-1.175v-8c0-.65-.624-1.175-1.248-1.175s-1.123.525-1.123 1.175v8c0 .65.499 1.175 1.123 1.175zm0-12.637c.624 0 1.248-.528 1.248-1.175v-8c0-.647-.624-1.173-1.248-1.173s-1.123.525-1.123 1.173v8c0 .646.499 1.175 1.123 1.175zm-84.864-12.118c0 .775.624 1.406 1.373 1.406h8.861c.749 0 1.373-.63 1.373-1.406s-.624-1.406-1.373-1.406h-8.861c-.749 0-1.373.63-1.373 1.406zm14.227 0c0 .775.624 1.406 1.373 1.406h8.861c.874 0 1.498-.63 1.498-1.406s-.624-1.406-1.498-1.406h-8.861c-.749 0-1.373.63-1.373 1.406zm14.227 0c0 .775.624 1.406 1.498 1.406h8.861c.749 0 1.373-.63 1.373-1.406s-.624-1.406-1.373-1.406h-8.861c-.874 0-1.498.63-1.498 1.406zm14.352 0c0 .775.624 1.406 1.373 1.406h8.861c.749 0 1.373-.63 1.373-1.406s-.624-1.406-1.373-1.406h-8.861c-.749 0-1.373.63-1.373 1.406zm14.227 0c0 .775.624 1.406 1.373 1.406h8.985c.749 0 1.373-.63 1.373-1.406s-.624-1.406-1.373-1.406h-8.985c-.749 0-1.373.63-1.373 1.406zm14.227 0c0 .775.624 1.406 1.498 1.406h8.861c.749 0 1.373-.63 1.373-1.406s-.624-1.406-1.373-1.406h-8.861c-.874 0-1.498.63-1.498 1.406zm-71.261 38.905c0 .775.624 1.413 1.373 1.413h8.861c.749 0 1.373-.625 1.373-1.413s-.624-1.4-1.373-1.4h-8.861c-.749 0-1.373.625-1.373 1.4zm14.227 0c0 .775.624 1.413 1.373 1.413h8.861c.874 0 1.498-.625 1.498-1.413s-.624-1.4-1.498-1.4h-8.861c-.749 0-1.373.625-1.373 1.4zm14.227 0c0 .775.624 1.413 1.498 1.413h8.861c.749 0 1.373-.625 1.373-1.413s-.624-1.4-1.373-1.4h-8.861c-.874 0-1.498.625-1.498 1.4zm14.352 0c0 .775.624 1.413 1.373 1.413h8.861c.749 0 1.373-.625 1.373-1.413s-.624-1.4-1.373-1.4h-8.861c-.749 0-1.373.625-1.373 1.4zm14.227 0c0 .775.624 1.413 1.373 1.413h8.985c.749 0 1.373-.625 1.373-1.413s-.624-1.4-1.373-1.4h-8.985c-.749 0-1.373.625-1.373 1.4zm14.227 0c0 .775.624 1.413 1.498 1.413h8.861c.749 0 1.373-.625 1.373-1.413s-.624-1.4-1.373-1.4h-8.861c-.874 0-1.498.625-1.498 1.4z"/></g></g><use xlink:href="#G" x="-1332.94" class="B E"/><use xlink:href="#H" x="-1332.94" class="D F G H"/><use xlink:href="#I" x="-1332.94" class="I J"/><g class="C"><use xlink:href="#J" x="-1332.94" class="K"/><use xlink:href="#K" x="-1332.94" class="B"/></g><g class="D"><use xlink:href="#L" x="-1332.94" class="M"/><use xlink:href="#M" x="-1332.94" class="N"/><g class="O"><use xlink:href="#N" x="-1332.94"/><path d="M696.205 77.108c.624 0 1.123-.525 1.123-1.171v-8c0-.647-.499-1.171-1.123-1.171s-1.248.525-1.248 1.171v8c0 .647.624 1.171 1.248 1.171zm0-12.634c.624 0 1.123-.525 1.123-1.172v-8.024c0-.647-.499-1.172-1.123-1.172s-1.248.525-1.248 1.172v8.013c0 .647.624 1.172 1.248 1.172zm0-12.634c.624 0 1.123-.525 1.123-1.171v-8c0-.647-.499-1.172-1.123-1.172s-1.248.525-1.248 1.172v8c0 .647.624 1.171 1.248 1.171zm86.861 25.267c.624 0 1.248-.525 1.248-1.171v-8c0-.647-.624-1.171-1.248-1.171s-1.123.525-1.123 1.171v8c0 .647.499 1.171 1.123 1.171zm0-12.634c.624 0 1.248-.525 1.248-1.172v-8.024c0-.647-.624-1.172-1.248-1.172s-1.123.525-1.123 1.172v8.013c0 .647.499 1.172 1.123 1.172zm0-12.634c.624 0 1.248-.525 1.248-1.171v-8c0-.647-.624-1.172-1.248-1.172s-1.123.525-1.123 1.172v8c0 .647.499 1.171 1.123 1.171zm-84.864-12.116c0 .775.624 1.406 1.373 1.406h8.861c.749 0 1.373-.63 1.373-1.406s-.624-1.406-1.373-1.406h-8.861c-.749 0-1.373.63-1.373 1.406zm14.227 0c0 .775.624 1.406 1.373 1.406h8.861c.874 0 1.498-.63 1.498-1.406s-.624-1.406-1.498-1.406h-8.861c-.749 0-1.373.63-1.373 1.406zm14.227 0c0 .775.624 1.406 1.498 1.406h8.861c.749 0 1.373-.63 1.373-1.406s-.624-1.406-1.373-1.406h-8.861c-.874 0-1.498.63-1.498 1.406zm14.352 0c0 .775.624 1.406 1.373 1.406h8.861c.749 0 1.373-.63 1.373-1.406s-.624-1.406-1.373-1.406h-8.861c-.749 0-1.373.63-1.373 1.406zm14.227 0c0 .775.624 1.406 1.373 1.406h8.985c.749 0 1.373-.63 1.373-1.406s-.624-1.406-1.373-1.406h-8.985c-.749 0-1.373.63-1.373 1.406zm14.227 0c0 .775.624 1.406 1.498 1.406h8.861c.749 0 1.373-.63 1.373-1.406s-.624-1.406-1.373-1.406h-8.861c-.874 0-1.498.63-1.498 1.406zM698.202 78.63c0 .775.624 1.406 1.373 1.406h8.861c.749 0 1.373-.63 1.373-1.406s-.624-1.406-1.373-1.406h-8.861c-.749 0-1.373.63-1.373 1.406zm14.227 0c0 .775.624 1.406 1.373 1.406h8.861c.874 0 1.498-.63 1.498-1.406s-.624-1.406-1.498-1.406h-8.861c-.749 0-1.373.63-1.373 1.406zm14.227 0c0 .775.624 1.406 1.498 1.406h8.861c.749 0 1.373-.63 1.373-1.406s-.624-1.406-1.373-1.406h-8.861c-.874 0-1.498.63-1.498 1.406zm14.352 0c0 .775.624 1.406 1.373 1.406h8.861c.749 0 1.373-.63 1.373-1.406s-.624-1.406-1.373-1.406h-8.861c-.749 0-1.373.63-1.373 1.406zm14.227 0c0 .775.624 1.406 1.373 1.406h8.985c.749 0 1.373-.63 1.373-1.406s-.624-1.406-1.373-1.406h-8.985c-.749 0-1.373.63-1.373 1.406zm14.227 0c0 .775.624 1.406 1.498 1.406h8.861c.749 0 1.373-.63 1.373-1.406s-.624-1.406-1.373-1.406h-8.861c-.874 0-1.498.63-1.498 1.406zm-73.257 77.81c.624 0 1.123-.525 1.123-1.163v-8c0-.65-.499-1.175-1.123-1.175s-1.248.525-1.248 1.175v8c0 .625.624 1.163 1.248 1.163zm0-12.625c.624 0 1.123-.525 1.123-1.175v-8c0-.65-.499-1.175-1.123-1.175s-1.248.525-1.248 1.175v8c0 .65.624 1.175 1.248 1.175zm0-12.637c.624 0 1.123-.528 1.123-1.175v-8c0-.647-.499-1.173-1.123-1.173s-1.248.525-1.248 1.173v8c0 .646.624 1.175 1.248 1.175zm86.861 25.262c.624 0 1.248-.525 1.248-1.163v-8c0-.65-.624-1.175-1.248-1.175s-1.123.525-1.123 1.175v8c0 .625.499 1.163 1.123 1.163zm0-12.625c.624 0 1.248-.525 1.248-1.175v-8c0-.65-.624-1.175-1.248-1.175s-1.123.525-1.123 1.175v8c0 .65.499 1.175 1.123 1.175zm0-12.637c.624 0 1.248-.528 1.248-1.175v-8c0-.647-.624-1.173-1.248-1.173s-1.123.525-1.123 1.173v8c0 .646.499 1.175 1.123 1.175zm-84.864-12.118c0 .775.624 1.406 1.373 1.406h8.861c.749 0 1.373-.63 1.373-1.406s-.624-1.406-1.373-1.406h-8.861c-.749 0-1.373.63-1.373 1.406zm14.227 0c0 .775.624 1.406 1.373 1.406h8.861c.874 0 1.498-.63 1.498-1.406s-.624-1.406-1.498-1.406h-8.861c-.749 0-1.373.63-1.373 1.406zm14.227 0c0 .775.624 1.406 1.498 1.406h8.861c.749 0 1.373-.63 1.373-1.406s-.624-1.406-1.373-1.406h-8.861c-.874 0-1.498.63-1.498 1.406zm14.352 0c0 .775.624 1.406 1.373 1.406h8.861c.749 0 1.373-.63 1.373-1.406s-.624-1.406-1.373-1.406h-8.861c-.749 0-1.373.63-1.373 1.406zm14.227 0c0 .775.624 1.406 1.373 1.406h8.985c.749 0 1.373-.63 1.373-1.406s-.624-1.406-1.373-1.406h-8.985c-.749 0-1.373.63-1.373 1.406zm14.227 0c0 .775.624 1.406 1.498 1.406h8.861c.749 0 1.373-.63 1.373-1.406s-.624-1.406-1.373-1.406h-8.861c-.874 0-1.498.63-1.498 1.406zm-71.261 38.905c0 .775.624 1.413 1.373 1.413h8.861c.749 0 1.373-.625 1.373-1.413s-.624-1.4-1.373-1.4h-8.861c-.749 0-1.373.625-1.373 1.4zm14.227 0c0 .775.624 1.413 1.373 1.413h8.861c.874 0 1.498-.625 1.498-1.413s-.624-1.4-1.498-1.4h-8.861c-.749 0-1.373.625-1.373 1.4zm14.227 0c0 .775.624 1.413 1.498 1.413h8.861c.749 0 1.373-.625 1.373-1.413s-.624-1.4-1.373-1.4h-8.861c-.874 0-1.498.625-1.498 1.4zm14.352 0c0 .775.624 1.413 1.373 1.413h8.861c.749 0 1.373-.625 1.373-1.413s-.624-1.4-1.373-1.4h-8.861c-.749 0-1.373.625-1.373 1.4zm14.227 0c0 .775.624 1.413 1.373 1.413h8.985c.749 0 1.373-.625 1.373-1.413s-.624-1.4-1.373-1.4h-8.985c-.749 0-1.373.625-1.373 1.4zm14.227 0c0 .775.624 1.413 1.498 1.413h8.861c.749 0 1.373-.625 1.373-1.413s-.624-1.4-1.373-1.4h-8.861c-.874 0-1.498.625-1.498 1.4z"/></g></g><use xlink:href="#G" x="-1454.12" class="B E"/><use xlink:href="#H" x="-1454.12" class="D F G H"/><use xlink:href="#I" x="-1454.12" class="I J"/><g class="C"><use xlink:href="#J" x="-1454.12" class="K"/><use xlink:href="#K" x="-1454.12" class="B"/></g><g class="D"><use xlink:href="#L" x="-1454.12" class="M"/><use xlink:href="#M" x="-1454.12" class="N"/><g class="O"><use xlink:href="#N" x="-1454.12"/><path d="M575.025 77.108c.624 0 1.123-.525 1.123-1.171v-8c0-.647-.499-1.171-1.123-1.171s-1.248.525-1.248 1.171v8c0 .647.624 1.171 1.248 1.171zm0-12.634c.624 0 1.123-.525 1.123-1.172v-8.024c0-.647-.499-1.172-1.123-1.172s-1.248.525-1.248 1.172v8.013c0 .647.624 1.172 1.248 1.172zm0-12.634c.624 0 1.123-.525 1.123-1.171v-8c0-.647-.499-1.172-1.123-1.172s-1.248.525-1.248 1.172v8c0 .647.624 1.171 1.248 1.171zm86.861 25.267c.624 0 1.248-.525 1.248-1.171v-8c0-.647-.624-1.171-1.248-1.171s-1.123.525-1.123 1.171v8c0 .647.499 1.171 1.123 1.171zm0-12.634c.624 0 1.248-.525 1.248-1.172v-8.024c0-.647-.624-1.172-1.248-1.172s-1.123.525-1.123 1.172v8.013c0 .647.499 1.172 1.123 1.172zm0-12.634c.624 0 1.248-.525 1.248-1.171v-8c0-.647-.624-1.172-1.248-1.172s-1.123.525-1.123 1.172v8c0 .647.499 1.171 1.123 1.171zm-84.864-12.116c0 .775.624 1.406 1.373 1.406h8.861c.749 0 1.373-.63 1.373-1.406s-.624-1.406-1.373-1.406h-8.861c-.749 0-1.373.63-1.373 1.406zm14.227 0c0 .775.624 1.406 1.373 1.406h8.861c.874 0 1.498-.63 1.498-1.406s-.624-1.406-1.498-1.406h-8.861c-.749 0-1.373.63-1.373 1.406zm14.227 0c0 .775.624 1.406 1.498 1.406h8.861c.749 0 1.373-.63 1.373-1.406s-.624-1.406-1.373-1.406h-8.861c-.874 0-1.498.63-1.498 1.406zm14.352 0c0 .775.624 1.406 1.373 1.406h8.861c.749 0 1.373-.63 1.373-1.406s-.624-1.406-1.373-1.406h-8.861c-.749 0-1.373.63-1.373 1.406zm14.227 0c0 .775.624 1.406 1.373 1.406h8.985c.749 0 1.373-.63 1.373-1.406s-.624-1.406-1.373-1.406h-8.985c-.749 0-1.373.63-1.373 1.406zm14.227 0c0 .775.624 1.406 1.498 1.406h8.861c.749 0 1.373-.63 1.373-1.406s-.624-1.406-1.373-1.406h-8.861c-.874 0-1.498.63-1.498 1.406zM577.022 78.63c0 .775.624 1.406 1.373 1.406h8.861c.749 0 1.373-.63 1.373-1.406s-.624-1.406-1.373-1.406h-8.861c-.749 0-1.373.63-1.373 1.406zm14.227 0c0 .775.624 1.406 1.373 1.406h8.861c.874 0 1.498-.63 1.498-1.406s-.624-1.406-1.498-1.406h-8.861c-.749 0-1.373.63-1.373 1.406zm14.227 0c0 .775.624 1.406 1.498 1.406h8.861c.749 0 1.373-.63 1.373-1.406s-.624-1.406-1.373-1.406h-8.861c-.874 0-1.498.63-1.498 1.406zm14.352 0c0 .775.624 1.406 1.373 1.406h8.861c.749 0 1.373-.63 1.373-1.406s-.624-1.406-1.373-1.406h-8.861c-.749 0-1.373.63-1.373 1.406zm14.227 0c0 .775.624 1.406 1.373 1.406h8.985c.749 0 1.373-.63 1.373-1.406s-.624-1.406-1.373-1.406h-8.985c-.749 0-1.373.63-1.373 1.406zm14.227 0c0 .775.624 1.406 1.498 1.406h8.861c.749 0 1.373-.63 1.373-1.406s-.624-1.406-1.373-1.406h-8.861c-.874 0-1.498.63-1.498 1.406zm-73.257 77.81c.624 0 1.123-.525 1.123-1.163v-8c0-.65-.499-1.175-1.123-1.175s-1.248.525-1.248 1.175v8c0 .625.624 1.163 1.248 1.163zm0-12.625c.624 0 1.123-.525 1.123-1.175v-8c0-.65-.499-1.175-1.123-1.175s-1.248.525-1.248 1.175v8c0 .65.624 1.175 1.248 1.175zm0-12.637c.624 0 1.123-.528 1.123-1.175v-8c0-.647-.499-1.173-1.123-1.173s-1.248.525-1.248 1.173v8c0 .646.624 1.175 1.248 1.175zm86.861 25.262c.624 0 1.248-.525 1.248-1.163v-8c0-.65-.624-1.175-1.248-1.175s-1.123.525-1.123 1.175v8c0 .625.499 1.163 1.123 1.163zm0-12.625c.624 0 1.248-.525 1.248-1.175v-8c0-.65-.624-1.175-1.248-1.175s-1.123.525-1.123 1.175v8c0 .65.499 1.175 1.123 1.175zm0-12.637c.624 0 1.248-.528 1.248-1.175v-8c0-.647-.624-1.173-1.248-1.173s-1.123.525-1.123 1.173v8c0 .646.499 1.175 1.123 1.175zm-84.864-12.118c0 .775.624 1.406 1.373 1.406h8.861c.749 0 1.373-.63 1.373-1.406s-.624-1.406-1.373-1.406h-8.861c-.749 0-1.373.63-1.373 1.406zm14.227 0c0 .775.624 1.406 1.373 1.406h8.861c.874 0 1.498-.63 1.498-1.406s-.624-1.406-1.498-1.406h-8.861c-.749 0-1.373.63-1.373 1.406zm14.227 0c0 .775.624 1.406 1.498 1.406h8.861c.749 0 1.373-.63 1.373-1.406s-.624-1.406-1.373-1.406h-8.861c-.874 0-1.498.63-1.498 1.406zm14.352 0c0 .775.624 1.406 1.373 1.406h8.861c.749 0 1.373-.63 1.373-1.406s-.624-1.406-1.373-1.406h-8.861c-.749 0-1.373.63-1.373 1.406zm14.227 0c0 .775.624 1.406 1.373 1.406h8.985c.749 0 1.373-.63 1.373-1.406s-.624-1.406-1.373-1.406h-8.985c-.749 0-1.373.63-1.373 1.406zm14.227 0c0 .775.624 1.406 1.498 1.406h8.861c.749 0 1.373-.63 1.373-1.406s-.624-1.406-1.373-1.406h-8.861c-.874 0-1.498.63-1.498 1.406zm-71.261 38.905c0 .775.624 1.413 1.373 1.413h8.861c.749 0 1.373-.625 1.373-1.413s-.624-1.4-1.373-1.4h-8.861c-.749 0-1.373.625-1.373 1.4zm14.227 0c0 .775.624 1.413 1.373 1.413h8.861c.874 0 1.498-.625 1.498-1.413s-.624-1.4-1.498-1.4h-8.861c-.749 0-1.373.625-1.373 1.4zm14.227 0c0 .775.624 1.413 1.498 1.413h8.861c.749 0 1.373-.625 1.373-1.413s-.624-1.4-1.373-1.4h-8.861c-.874 0-1.498.625-1.498 1.4zm14.352 0c0 .775.624 1.413 1.373 1.413h8.861c.749 0 1.373-.625 1.373-1.413s-.624-1.4-1.373-1.4h-8.861c-.749 0-1.373.625-1.373 1.4zm14.227 0c0 .775.624 1.413 1.373 1.413h8.985c.749 0 1.373-.625 1.373-1.413s-.624-1.4-1.373-1.4h-8.985c-.749 0-1.373.625-1.373 1.4zm14.227 0c0 .775.624 1.413 1.498 1.413h8.861c.749 0 1.373-.625 1.373-1.413s-.624-1.4-1.373-1.4h-8.861c-.874 0-1.498.625-1.498 1.4z"/></g></g><path d="M448.6 163.065h97.56V35.625H448.6v127.44z" class="B E"/><use xlink:href="#H" x="-1575.3" class="D F G H"/><use xlink:href="#I" x="-1575.3" class="I J"/><g class="C"><use xlink:href="#J" x="-1575.3" class="K"/><use xlink:href="#K" x="-1575.3" class="B"/></g><g class="D"><use xlink:href="#L" x="-1575.3" class="M"/><use xlink:href="#M" x="-1575.3" class="N"/><g class="O"><use xlink:href="#N" x="-1575.3"/><path d="M453.845 77.108c.624 0 1.123-.525 1.123-1.171v-8c0-.647-.499-1.171-1.123-1.171s-1.248.525-1.248 1.171v8c0 .647.624 1.171 1.248 1.171zm0-12.634c.624 0 1.123-.525 1.123-1.172v-8.024c0-.647-.499-1.172-1.123-1.172s-1.248.525-1.248 1.172v8.013c0 .647.624 1.172 1.248 1.172zm0-12.634c.624 0 1.123-.525 1.123-1.171v-8c0-.647-.499-1.172-1.123-1.172s-1.248.525-1.248 1.172v8c0 .647.624 1.171 1.248 1.171zm86.861 25.267c.624 0 1.248-.525 1.248-1.171v-8c0-.647-.624-1.171-1.248-1.171s-1.123.525-1.123 1.171v8c0 .647.499 1.171 1.123 1.171zm0-12.634c.624 0 1.248-.525 1.248-1.172v-8.024c0-.647-.624-1.172-1.248-1.172s-1.123.525-1.123 1.172v8.013c0 .647.499 1.172 1.123 1.172zm0-12.634c.624 0 1.248-.525 1.248-1.171v-8c0-.647-.624-1.172-1.248-1.172s-1.123.525-1.123 1.172v8c0 .647.499 1.171 1.123 1.171zm-84.864-12.116c0 .775.624 1.406 1.373 1.406h8.861c.749 0 1.373-.63 1.373-1.406s-.624-1.406-1.373-1.406h-8.861c-.749 0-1.373.63-1.373 1.406zm14.227 0c0 .775.624 1.406 1.373 1.406h8.861c.874 0 1.498-.63 1.498-1.406s-.624-1.406-1.498-1.406h-8.861c-.749 0-1.373.63-1.373 1.406zm14.227 0c0 .775.624 1.406 1.498 1.406h8.861c.749 0 1.373-.63 1.373-1.406s-.624-1.406-1.373-1.406h-8.861c-.874 0-1.498.63-1.498 1.406zm14.352 0c0 .775.624 1.406 1.373 1.406h8.861c.749 0 1.373-.63 1.373-1.406s-.624-1.406-1.373-1.406h-8.861c-.749 0-1.373.63-1.373 1.406zm14.227 0c0 .775.624 1.406 1.373 1.406h8.985c.749 0 1.373-.63 1.373-1.406s-.624-1.406-1.373-1.406h-8.985c-.749 0-1.373.63-1.373 1.406zm14.227 0c0 .775.624 1.406 1.498 1.406h8.861c.749 0 1.373-.63 1.373-1.406s-.624-1.406-1.373-1.406H528.6c-.874 0-1.498.63-1.498 1.406zM455.842 78.63c0 .775.624 1.406 1.373 1.406h8.861c.749 0 1.373-.63 1.373-1.406s-.624-1.406-1.373-1.406h-8.861c-.749 0-1.373.63-1.373 1.406zm14.227 0c0 .775.624 1.406 1.373 1.406h8.861c.874 0 1.498-.63 1.498-1.406s-.624-1.406-1.498-1.406h-8.861c-.749 0-1.373.63-1.373 1.406zm14.227 0c0 .775.624 1.406 1.498 1.406h8.861c.749 0 1.373-.63 1.373-1.406s-.624-1.406-1.373-1.406h-8.861c-.874 0-1.498.63-1.498 1.406zm14.352 0c0 .775.624 1.406 1.373 1.406h8.861c.749 0 1.373-.63 1.373-1.406s-.624-1.406-1.373-1.406h-8.861c-.749 0-1.373.63-1.373 1.406zm14.227 0c0 .775.624 1.406 1.373 1.406h8.985c.749 0 1.373-.63 1.373-1.406s-.624-1.406-1.373-1.406h-8.985c-.749 0-1.373.63-1.373 1.406zm14.227 0c0 .775.624 1.406 1.498 1.406h8.861c.749 0 1.373-.63 1.373-1.406s-.624-1.406-1.373-1.406H528.6c-.874 0-1.498.63-1.498 1.406zm-73.257 77.81c.624 0 1.123-.525 1.123-1.163v-8c0-.65-.499-1.175-1.123-1.175s-1.248.525-1.248 1.175v8c0 .625.624 1.163 1.248 1.163zm0-12.625c.624 0 1.123-.525 1.123-1.175v-8c0-.65-.499-1.175-1.123-1.175s-1.248.525-1.248 1.175v8c0 .65.624 1.175 1.248 1.175zm0-12.637c.624 0 1.123-.528 1.123-1.175v-8c0-.647-.499-1.173-1.123-1.173s-1.248.525-1.248 1.173v8c0 .646.624 1.175 1.248 1.175zm86.861 25.262c.624 0 1.248-.525 1.248-1.163v-8c0-.65-.624-1.175-1.248-1.175s-1.123.525-1.123 1.175v8c0 .625.499 1.163 1.123 1.163zm0-12.625c.624 0 1.248-.525 1.248-1.175v-8c0-.65-.624-1.175-1.248-1.175s-1.123.525-1.123 1.175v8c0 .65.499 1.175 1.123 1.175zm0-12.637c.624 0 1.248-.528 1.248-1.175v-8c0-.647-.624-1.173-1.248-1.173s-1.123.525-1.123 1.173v8c0 .646.499 1.175 1.123 1.175zm-84.864-12.118c0 .775.624 1.406 1.373 1.406h8.861c.749 0 1.373-.63 1.373-1.406s-.624-1.406-1.373-1.406h-8.861c-.749 0-1.373.63-1.373 1.406zm14.227 0c0 .775.624 1.406 1.373 1.406h8.861c.874 0 1.498-.63 1.498-1.406s-.624-1.406-1.498-1.406h-8.861c-.749 0-1.373.63-1.373 1.406zm14.227 0c0 .775.624 1.406 1.498 1.406h8.861c.749 0 1.373-.63 1.373-1.406s-.624-1.406-1.373-1.406h-8.861c-.874 0-1.498.63-1.498 1.406zm14.352 0c0 .775.624 1.406 1.373 1.406h8.861c.749 0 1.373-.63 1.373-1.406s-.624-1.406-1.373-1.406h-8.861c-.749 0-1.373.63-1.373 1.406zm14.227 0c0 .775.624 1.406 1.373 1.406h8.985c.749 0 1.373-.63 1.373-1.406s-.624-1.406-1.373-1.406h-8.985c-.749 0-1.373.63-1.373 1.406zm14.227 0c0 .775.624 1.406 1.498 1.406h8.861c.749 0 1.373-.63 1.373-1.406s-.624-1.406-1.373-1.406H528.6c-.874 0-1.498.63-1.498 1.406zm-71.261 38.905c0 .775.624 1.413 1.373 1.413h8.861c.749 0 1.373-.625 1.373-1.413s-.624-1.4-1.373-1.4h-8.861c-.749 0-1.373.625-1.373 1.4zm14.227 0c0 .775.624 1.413 1.373 1.413h8.861c.874 0 1.498-.625 1.498-1.413s-.624-1.4-1.498-1.4h-8.861c-.749 0-1.373.625-1.373 1.4zm14.227 0c0 .775.624 1.413 1.498 1.413h8.861c.749 0 1.373-.625 1.373-1.413s-.624-1.4-1.373-1.4h-8.861c-.874 0-1.498.625-1.498 1.4zm14.352 0c0 .775.624 1.413 1.373 1.413h8.861c.749 0 1.373-.625 1.373-1.413s-.624-1.4-1.373-1.4h-8.861c-.749 0-1.373.625-1.373 1.4zm14.227 0c0 .775.624 1.413 1.373 1.413h8.985c.749 0 1.373-.625 1.373-1.413s-.624-1.4-1.373-1.4h-8.985c-.749 0-1.373.625-1.373 1.4zm14.227 0c0 .775.624 1.413 1.498 1.413h8.861c.749 0 1.373-.625 1.373-1.413s-.624-1.4-1.373-1.4H528.6c-.874 0-1.498.625-1.498 1.4z"/></g></g><use xlink:href="#G" x="-1696.47" class="B E"/><use xlink:href="#H" x="-1696.47" class="D F G H"/><use xlink:href="#I" x="-1696.47" class="I J"/><g class="C"><use xlink:href="#J" x="-1696.47" class="K"/><use xlink:href="#K" x="-1696.47" class="B"/></g><g class="D"><use xlink:href="#L" x="-1696.47" class="M"/><use xlink:href="#M" x="-1696.47" class="N"/><g class="O"><use xlink:href="#N" x="-1696.47"/><path d="M332.675 77.108c.624 0 1.123-.525 1.123-1.171v-8c0-.647-.499-1.171-1.123-1.171s-1.248.525-1.248 1.171v8c0 .647.624 1.171 1.248 1.171zm0-12.634c.624 0 1.123-.525 1.123-1.172v-8.024c0-.647-.499-1.172-1.123-1.172s-1.248.525-1.248 1.172v8.013c0 .647.624 1.172 1.248 1.172zm0-12.634c.624 0 1.123-.525 1.123-1.171v-8c0-.647-.499-1.172-1.123-1.172s-1.248.525-1.248 1.172v8c0 .647.624 1.171 1.248 1.171zm86.861 25.267c.624 0 1.248-.525 1.248-1.171v-8c0-.647-.624-1.171-1.248-1.171s-1.123.525-1.123 1.171v8c0 .647.499 1.171 1.123 1.171zm0-12.634c.624 0 1.248-.525 1.248-1.172v-8.024c0-.647-.624-1.172-1.248-1.172s-1.123.525-1.123 1.172v8.013c0 .647.499 1.172 1.123 1.172zm0-12.634c.624 0 1.248-.525 1.248-1.171v-8c0-.647-.624-1.172-1.248-1.172s-1.123.525-1.123 1.172v8c0 .647.499 1.171 1.123 1.171zm-84.864-12.116c0 .775.624 1.406 1.373 1.406h8.861c.749 0 1.373-.63 1.373-1.406s-.624-1.406-1.373-1.406h-8.861c-.749 0-1.373.63-1.373 1.406zm14.227 0c0 .775.624 1.406 1.373 1.406h8.861c.874 0 1.498-.63 1.498-1.406s-.624-1.406-1.498-1.406h-8.861c-.749 0-1.373.63-1.373 1.406zm14.227 0c0 .775.624 1.406 1.498 1.406h8.861c.749 0 1.373-.63 1.373-1.406s-.624-1.406-1.373-1.406h-8.861c-.874 0-1.498.63-1.498 1.406zm14.352 0c0 .775.624 1.406 1.373 1.406h8.861c.749 0 1.373-.63 1.373-1.406s-.624-1.406-1.373-1.406h-8.861c-.749 0-1.373.63-1.373 1.406zm14.227 0c0 .775.624 1.406 1.373 1.406h8.985c.749 0 1.373-.63 1.373-1.406s-.624-1.406-1.373-1.406h-8.985c-.749 0-1.373.63-1.373 1.406zm14.227 0c0 .775.624 1.406 1.498 1.406h8.861c.749 0 1.373-.63 1.373-1.406s-.624-1.406-1.373-1.406h-8.861c-.874 0-1.498.63-1.498 1.406zM334.672 78.63c0 .775.624 1.406 1.373 1.406h8.861c.749 0 1.373-.63 1.373-1.406s-.624-1.406-1.373-1.406h-8.861c-.749 0-1.373.63-1.373 1.406zm14.227 0c0 .775.624 1.406 1.373 1.406h8.861c.874 0 1.498-.63 1.498-1.406s-.624-1.406-1.498-1.406h-8.861c-.749 0-1.373.63-1.373 1.406zm14.227 0c0 .775.624 1.406 1.498 1.406h8.861c.749 0 1.373-.63 1.373-1.406s-.624-1.406-1.373-1.406h-8.861c-.874 0-1.498.63-1.498 1.406zm14.352 0c0 .775.624 1.406 1.373 1.406h8.861c.749 0 1.373-.63 1.373-1.406s-.624-1.406-1.373-1.406h-8.861c-.749 0-1.373.63-1.373 1.406zm14.227 0c0 .775.624 1.406 1.373 1.406h8.985c.749 0 1.373-.63 1.373-1.406s-.624-1.406-1.373-1.406h-8.985c-.749 0-1.373.63-1.373 1.406zm14.227 0c0 .775.624 1.406 1.498 1.406h8.861c.749 0 1.373-.63 1.373-1.406s-.624-1.406-1.373-1.406h-8.861c-.874 0-1.498.63-1.498 1.406zm-73.257 77.81c.624 0 1.123-.525 1.123-1.163v-8c0-.65-.499-1.175-1.123-1.175s-1.248.525-1.248 1.175v8c0 .625.624 1.163 1.248 1.163zm0-12.625c.624 0 1.123-.525 1.123-1.175v-8c0-.65-.499-1.175-1.123-1.175s-1.248.525-1.248 1.175v8c0 .65.624 1.175 1.248 1.175zm0-12.637c.624 0 1.123-.528 1.123-1.175v-8c0-.647-.499-1.173-1.123-1.173s-1.248.525-1.248 1.173v8c0 .646.624 1.175 1.248 1.175zm86.861 25.262c.624 0 1.248-.525 1.248-1.163v-8c0-.65-.624-1.175-1.248-1.175s-1.123.525-1.123 1.175v8c0 .625.499 1.163 1.123 1.163zm0-12.625c.624 0 1.248-.525 1.248-1.175v-8c0-.65-.624-1.175-1.248-1.175s-1.123.525-1.123 1.175v8c0 .65.499 1.175 1.123 1.175zm0-12.637c.624 0 1.248-.528 1.248-1.175v-8c0-.647-.624-1.173-1.248-1.173s-1.123.525-1.123 1.173v8c0 .646.499 1.175 1.123 1.175zm-84.864-12.118c0 .775.624 1.406 1.373 1.406h8.861c.749 0 1.373-.63 1.373-1.406s-.624-1.406-1.373-1.406h-8.861c-.749 0-1.373.63-1.373 1.406zm14.227 0c0 .775.624 1.406 1.373 1.406h8.861c.874 0 1.498-.63 1.498-1.406s-.624-1.406-1.498-1.406h-8.861c-.749 0-1.373.63-1.373 1.406zm14.227 0c0 .775.624 1.406 1.498 1.406h8.861c.749 0 1.373-.63 1.373-1.406s-.624-1.406-1.373-1.406h-8.861c-.874 0-1.498.63-1.498 1.406zm14.352 0c0 .775.624 1.406 1.373 1.406h8.861c.749 0 1.373-.63 1.373-1.406s-.624-1.406-1.373-1.406h-8.861c-.749 0-1.373.63-1.373 1.406zm14.227 0c0 .775.624 1.406 1.373 1.406h8.985c.749 0 1.373-.63 1.373-1.406s-.624-1.406-1.373-1.406h-8.985c-.749 0-1.373.63-1.373 1.406zm14.227 0c0 .775.624 1.406 1.498 1.406h8.861c.749 0 1.373-.63 1.373-1.406s-.624-1.406-1.373-1.406h-8.861c-.874 0-1.498.63-1.498 1.406zm-71.261 38.905c0 .775.624 1.413 1.373 1.413h8.861c.749 0 1.373-.625 1.373-1.413s-.624-1.4-1.373-1.4h-8.861c-.749 0-1.373.625-1.373 1.4zm14.227 0c0 .775.624 1.413 1.373 1.413h8.861c.874 0 1.498-.625 1.498-1.413s-.624-1.4-1.498-1.4h-8.861c-.749 0-1.373.625-1.373 1.4zm14.227 0c0 .775.624 1.413 1.498 1.413h8.861c.749 0 1.373-.625 1.373-1.413s-.624-1.4-1.373-1.4h-8.861c-.874 0-1.498.625-1.498 1.4zm14.352 0c0 .775.624 1.413 1.373 1.413h8.861c.749 0 1.373-.625 1.373-1.413s-.624-1.4-1.373-1.4h-8.861c-.749 0-1.373.625-1.373 1.4zm14.227 0c0 .775.624 1.413 1.373 1.413h8.985c.749 0 1.373-.625 1.373-1.413s-.624-1.4-1.373-1.4h-8.985c-.749 0-1.373.625-1.373 1.4zm14.227 0c0 .775.624 1.413 1.498 1.413h8.861c.749 0 1.373-.625 1.373-1.413s-.624-1.4-1.373-1.4h-8.861c-.874 0-1.498.625-1.498 1.4z"/></g></g><g class="B E"><use xlink:href="#P" x="-123.5"/><use xlink:href="#P" x="-244.7"/><use xlink:href="#P" x="-365.8"/><use xlink:href="#P" x="-487"/><use xlink:href="#P" x="-608.2"/><use xlink:href="#P" x="-729.4"/><use xlink:href="#P" x="-850.5"/><use xlink:href="#P" x="-971.7"/><use xlink:href="#P" x="-1092.9"/><use xlink:href="#P" x="-1214.07"/><use xlink:href="#P" x="-1335.24"/><use xlink:href="#P" x="-1456.42"/><use xlink:href="#P" x="-1577.6"/><use xlink:href="#P" x="-1698.78"/></g><path d="M145.006 30.851h2.163v8.219h-2.163zm19.594 2.356c-.094-.034-.783-.449-1.824-.449-1.403 0-2.362.931-2.362 2.199 0 1.234.935 2.188 2.362 2.188 1.017 0 1.73-.381 1.824-.449v2.21a7.02 7.02 0 0 1-1.976.292c-2.432 0-4.56-1.604-4.56-4.263 0-2.468 1.929-4.263 4.56-4.263 1.017 0 1.754.247 1.987.303v2.199zm-22.563 0c-.082-.034-.783-.449-1.812-.449-1.403 0-2.373.931-2.373 2.199 0 1.234.935 2.188 2.373 2.188 1.017 0 1.719-.381 1.812-.449v2.21a6.91 6.91 0 0 1-1.964.292c-2.432 0-4.56-1.604-4.56-4.263 0-2.468 1.929-4.263 4.56-4.263 1.017 0 1.754.247 1.964.303v2.199zm33.892 1.762c0 2.356-1.894 4.263-4.536 4.263-2.631 0-4.513-1.907-4.513-4.263s1.871-4.263 4.513-4.263 4.536 1.907 4.536 4.263zm-4.536-2.165c-1.286 0-2.221.965-2.221 2.165 0 1.189.959 2.154 2.221 2.154 1.286 0 2.245-.965 2.245-2.154 0-1.2-.959-2.165-2.245-2.165zm-16.029-.079c-.023-.011-.935-.247-1.684-.247-.865 0-1.344.269-1.344.673 0 .494.643.673.994.785l.585.191c1.403.426 2.046 1.346 2.046 2.356 0 2.064-1.894 2.76-3.542 2.76a13.34 13.34 0 0 1-2.338-.224v-1.907c.187.056 1.099.314 2.046.314 1.076 0 1.567-.303 1.567-.785 0-.415-.433-.651-.97-.819l-.468-.135c-1.204-.37-2.221-1.043-2.221-2.412 0-1.537 1.204-2.58 3.192-2.58a8.93 8.93 0 0 1 2.104.269v1.75zm-22.143-10.702c0-.561-.491-1.01-1.076-1.01s-1.076.449-1.076 1.01v2.154a1.01 1.01 0 0 0 .315.73 1.1 1.1 0 0 0 .761.302c.585 0 1.076-.449 1.076-1.032v-2.154zm5.892-2.828c0-.561-.491-1.032-1.076-1.032a1.1 1.1 0 0 0-.761.302 1.01 1.01 0 0 0-.315.73v4.981a1.01 1.01 0 0 0 .315.73 1.1 1.1 0 0 0 .761.302c.585 0 1.076-.449 1.076-1.032v-4.981zm5.893-3.881c0-.561-.468-1.01-1.076-1.01s-1.076.449-1.076 1.01V26.23c0 .57.482 1.032 1.076 1.032s1.076-.462 1.076-1.032V15.314zm5.892 3.881a1.01 1.01 0 0 0-.315-.73 1.1 1.1 0 0 0-.761-.302c-.585 0-1.076.449-1.076 1.032v4.981c0 .561.491 1.032 1.076 1.032a1.1 1.1 0 0 0 .761-.302 1.01 1.01 0 0 0 .315-.73v-4.981zm5.892 2.828c0-.561-.468-1.01-1.076-1.01-.585 0-1.076.449-1.076 1.01v2.154c0 .561.491 1.032 1.076 1.032a1.1 1.1 0 0 0 .761-.302 1.01 1.01 0 0 0 .315-.73v-2.154zm5.893-2.828a1.01 1.01 0 0 0-.315-.73 1.1 1.1 0 0 0-.761-.302c-.585 0-1.052.449-1.052 1.032v4.981c0 .561.468 1.032 1.052 1.032a1.1 1.1 0 0 0 .761-.302 1.01 1.01 0 0 0 .315-.73v-4.981zm5.892-3.881c0-.561-.468-1.01-1.052-1.01s-1.076.449-1.076 1.01V26.23a1.01 1.01 0 0 0 .315.73 1.1 1.1 0 0 0 .761.302c.585 0 1.052-.449 1.052-1.032V15.314zm5.916 3.881a1.01 1.01 0 0 0-.319-.734 1.1 1.1 0 0 0-.768-.298 1.09 1.09 0 0 0-.757.303 1 1 0 0 0-.307.729v4.981a1 1 0 0 0 .307.729c.2.194.472.303.757.303a1.1 1.1 0 0 0 .768-.298 1.01 1.01 0 0 0 .319-.734v-4.981zm5.869 2.828c0-.561-.468-1.01-1.052-1.01s-1.076.449-1.076 1.01v2.154a1.01 1.01 0 0 0 .315.73 1.1 1.1 0 0 0 .761.302c.585 0 1.052-.449 1.052-1.032v-2.154z" class="B C"/><use xlink:href="#G" x="-1817.65" class="B E"/><use xlink:href="#H" x="-1817.65" class="D F G H"/><use xlink:href="#I" x="-1817.65" class="I J"/><g class="C"><use xlink:href="#J" x="-1817.65" class="K"/><use xlink:href="#K" x="-1817.65" class="B"/></g><g class="D"><use xlink:href="#L" x="-1817.65" class="M"/><use xlink:href="#M" x="-1817.65" class="N"/><g class="O"><use xlink:href="#N" x="-1817.65"/><path d="M211.495 77.108c.624 0 1.123-.525 1.123-1.171v-8c0-.647-.499-1.171-1.123-1.171s-1.248.525-1.248 1.171v8c0 .647.624 1.171 1.248 1.171zm0-12.634c.624 0 1.123-.525 1.123-1.172v-8.024c0-.647-.499-1.172-1.123-1.172s-1.248.525-1.248 1.172v8.013c0 .647.624 1.172 1.248 1.172zm0-12.634c.624 0 1.123-.525 1.123-1.171v-8c0-.647-.499-1.172-1.123-1.172s-1.248.525-1.248 1.172v8c0 .647.624 1.171 1.248 1.171zm86.861 25.267c.624 0 1.248-.525 1.248-1.171v-8c0-.647-.624-1.171-1.248-1.171s-1.123.525-1.123 1.171v8c0 .647.499 1.171 1.123 1.171zm0-12.634c.624 0 1.248-.525 1.248-1.172v-8.024c0-.647-.624-1.172-1.248-1.172s-1.123.525-1.123 1.172v8.013c0 .647.499 1.172 1.123 1.172zm0-12.634c.624 0 1.248-.525 1.248-1.171v-8c0-.647-.624-1.172-1.248-1.172s-1.123.525-1.123 1.172v8c0 .647.499 1.171 1.123 1.171zm-84.864-12.116c0 .775.624 1.406 1.373 1.406h8.861c.749 0 1.373-.63 1.373-1.406s-.624-1.406-1.373-1.406h-8.861c-.749 0-1.373.63-1.373 1.406zm14.227 0c0 .775.624 1.406 1.373 1.406h8.861c.874 0 1.498-.63 1.498-1.406s-.624-1.406-1.498-1.406h-8.861c-.749 0-1.373.63-1.373 1.406zm14.227 0c0 .775.624 1.406 1.498 1.406h8.861c.749 0 1.373-.63 1.373-1.406s-.624-1.406-1.373-1.406h-8.861c-.874 0-1.498.63-1.498 1.406zm14.352 0c0 .775.624 1.406 1.373 1.406h8.861c.749 0 1.373-.63 1.373-1.406s-.624-1.406-1.373-1.406h-8.861c-.749 0-1.373.63-1.373 1.406zm14.227 0c0 .775.624 1.406 1.373 1.406h8.985c.749 0 1.373-.63 1.373-1.406s-.624-1.406-1.373-1.406h-8.985c-.749 0-1.373.63-1.373 1.406zm14.227 0c0 .775.624 1.406 1.498 1.406h8.861c.749 0 1.373-.63 1.373-1.406s-.624-1.406-1.373-1.406h-8.861c-.874 0-1.498.63-1.498 1.406zM213.492 78.63c0 .775.624 1.406 1.373 1.406h8.861c.749 0 1.373-.63 1.373-1.406s-.624-1.406-1.373-1.406h-8.861c-.749 0-1.373.63-1.373 1.406zm14.227 0c0 .775.624 1.406 1.373 1.406h8.861c.874 0 1.498-.63 1.498-1.406s-.624-1.406-1.498-1.406h-8.861c-.749 0-1.373.63-1.373 1.406zm14.227 0c0 .775.624 1.406 1.498 1.406h8.861c.749 0 1.373-.63 1.373-1.406s-.624-1.406-1.373-1.406h-8.861c-.874 0-1.498.63-1.498 1.406zm14.352 0c0 .775.624 1.406 1.373 1.406h8.861c.749 0 1.373-.63 1.373-1.406s-.624-1.406-1.373-1.406h-8.861c-.749 0-1.373.63-1.373 1.406zm14.227 0c0 .775.624 1.406 1.373 1.406h8.985c.749 0 1.373-.63 1.373-1.406s-.624-1.406-1.373-1.406h-8.985c-.749 0-1.373.63-1.373 1.406zm14.227 0c0 .775.624 1.406 1.498 1.406h8.861c.749 0 1.373-.63 1.373-1.406s-.624-1.406-1.373-1.406h-8.861c-.874 0-1.498.63-1.498 1.406zm-73.257 77.81c.624 0 1.123-.525 1.123-1.163v-8c0-.65-.499-1.175-1.123-1.175s-1.248.525-1.248 1.175v8c0 .625.624 1.163 1.248 1.163zm0-12.625c.624 0 1.123-.525 1.123-1.175v-8c0-.65-.499-1.175-1.123-1.175s-1.248.525-1.248 1.175v8c0 .65.624 1.175 1.248 1.175zm0-12.637c.624 0 1.123-.528 1.123-1.175v-8c0-.647-.499-1.173-1.123-1.173s-1.248.525-1.248 1.173v8c0 .646.624 1.175 1.248 1.175zm86.861 25.262c.624 0 1.248-.525 1.248-1.163v-8c0-.65-.624-1.175-1.248-1.175s-1.123.525-1.123 1.175v8c0 .625.499 1.163 1.123 1.163zm0-12.625c.624 0 1.248-.525 1.248-1.175v-8c0-.65-.624-1.175-1.248-1.175s-1.123.525-1.123 1.175v8c0 .65.499 1.175 1.123 1.175zm0-12.637c.624 0 1.248-.528 1.248-1.175v-8c0-.647-.624-1.173-1.248-1.173s-1.123.525-1.123 1.173v8c0 .646.499 1.175 1.123 1.175zm-84.864-12.118c0 .775.624 1.406 1.373 1.406h8.861c.749 0 1.373-.63 1.373-1.406s-.624-1.406-1.373-1.406h-8.861c-.749 0-1.373.63-1.373 1.406zm14.227 0c0 .775.624 1.406 1.373 1.406h8.861c.874 0 1.498-.63 1.498-1.406s-.624-1.406-1.498-1.406h-8.861c-.749 0-1.373.63-1.373 1.406zm14.227 0c0 .775.624 1.406 1.498 1.406h8.861c.749 0 1.373-.63 1.373-1.406s-.624-1.406-1.373-1.406h-8.861c-.874 0-1.498.63-1.498 1.406zm14.352 0c0 .775.624 1.406 1.373 1.406h8.861c.749 0 1.373-.63 1.373-1.406s-.624-1.406-1.373-1.406h-8.861c-.749 0-1.373.63-1.373 1.406zm14.227 0c0 .775.624 1.406 1.373 1.406h8.985c.749 0 1.373-.63 1.373-1.406s-.624-1.406-1.373-1.406h-8.985c-.749 0-1.373.63-1.373 1.406zm14.227 0c0 .775.624 1.406 1.498 1.406h8.861c.749 0 1.373-.63 1.373-1.406s-.624-1.406-1.373-1.406h-8.861c-.874 0-1.498.63-1.498 1.406zm-71.261 38.905c0 .775.624 1.413 1.373 1.413h8.861c.749 0 1.373-.625 1.373-1.413s-.624-1.4-1.373-1.4h-8.861c-.749 0-1.373.625-1.373 1.4zm14.227 0c0 .775.624 1.413 1.373 1.413h8.861c.874 0 1.498-.625 1.498-1.413s-.624-1.4-1.498-1.4h-8.861c-.749 0-1.373.625-1.373 1.4zm14.227 0c0 .775.624 1.413 1.498 1.413h8.861c.749 0 1.373-.625 1.373-1.413s-.624-1.4-1.373-1.4h-8.861c-.874 0-1.498.625-1.498 1.4zm14.352 0c0 .775.624 1.413 1.373 1.413h8.861c.749 0 1.373-.625 1.373-1.413s-.624-1.4-1.373-1.4h-8.861c-.749 0-1.373.625-1.373 1.4zm14.227 0c0 .775.624 1.413 1.373 1.413h8.985c.749 0 1.373-.625 1.373-1.413s-.624-1.4-1.373-1.4h-8.985c-.749 0-1.373.625-1.373 1.4zm14.227 0c0 .775.624 1.413 1.498 1.413h8.861c.749 0 1.373-.625 1.373-1.413s-.624-1.4-1.373-1.4h-8.861c-.874 0-1.498.625-1.498 1.4z"/></g></g><g class="B"><use xlink:href="#P" x="-1819.95" class="E"/><path d="M1969.5 14.444h-10.56l5.28 9.84 5.28-9.84zM1932 24.12h10.56l-5.28-9.84-5.28 9.84zm158.7-9.676h-10.56l5.28 9.84 5.28-9.84zm-37.5 9.676h10.56l-5.28-9.84-5.28 9.84zM273.06 14.444H262.5l5.28 9.84 5.28-9.84zm-37.54 9.676h10.56l-5.28-9.84-5.28 9.84zm158.71-9.676h-10.56l5.28 9.84 5.28-9.84zM356.7 24.12h10.56l-5.28-9.84-5.28 9.84zm158.71-9.676h-10.56l5.28 9.84 5.28-9.84zm-37.54 9.676h10.56l-5.28-9.84-5.28 9.84zm158.72-9.676h-10.56l5.28 9.84 5.28-9.84zm-37.54 9.676h10.56l-5.28-9.84-5.28 9.84zm158.72-9.676h-10.56l5.28 9.84 5.28-9.84zm-37.54 9.676h10.56l-5.28-9.84-5.28 9.84zm158.71-9.676h-10.56l5.28 9.84 5.28-9.84zM841.4 24.12h10.56l-5.28-9.84-5.28 9.84zm158.7-9.676h-10.56l5.28 9.84 5.28-9.84zm-37.52 9.676h10.56l-5.28-9.84-5.28 9.84zm158.72-9.676h-10.56l5.28 9.84 5.28-9.84zm-37.5 9.676h10.56l-5.28-9.84-5.28 9.84zm158.7-9.676h-10.56l5.28 9.84 5.28-9.84zm-37.6 9.676h10.56l-5.28-9.84-5.28 9.84zm158.8-9.676h-10.56l5.28 9.84 5.28-9.84zm-37.6 9.676h10.56l-5.28-9.84-5.28 9.84zm158.7-9.676h-10.56l5.28 9.84 5.28-9.84zm-37.5 9.676h10.56l-5.28-9.84-5.28 9.84zm158.7-9.676h-10.56l5.28 9.84 5.28-9.84zm-37.5 9.676h10.56l-5.28-9.84-5.28 9.84zm158.7-9.676h-10.56l5.28 9.84 5.28-9.84zm-37.6 9.676h10.56l-5.28-9.84-5.28 9.84zm158.8-9.676h-10.56l5.28 9.84 5.28-9.84zm-37.6 9.676h10.56l-5.28-9.84-5.28 9.84z" class="C"/><g class="P"><path d="M2034.9 190.695h8.64v-8.64h-8.64v8.64zm66.8 0h8.64v-8.64h-8.64v8.64zm13.4 0h8.64v-8.64h-8.64v8.64zm-93.5 0h8.64v-8.64h-8.64v8.64zm-107.8 0h8.64v-8.64h-8.64v8.64zm13.3 0h8.64v-8.64h-8.64v8.64zm40.1 0h8.64v-8.64h-8.64v8.64zm13.4 0h8.64v-8.64h-8.64v8.64zm13.3 0h8.64v-8.64h-8.64v8.64zm-93.5 0h8.64v-8.64h-8.64v8.64zm-107.8 0h8.64v-8.64h-8.64v8.64zm13.3 0h8.64v-8.64h-8.64v8.64zm40.1 0h8.64v-8.64H1846v8.64zm13.4 0h8.64v-8.64h-8.64v8.64zm13.3 0h8.64v-8.64h-8.64v8.64zm-93.5 0h8.64v-8.64h-8.64v8.64zm-107.8 0h8.64v-8.64h-8.64v8.64zm13.4 0h8.64v-8.64h-8.64v8.64zm40 0h8.64v-8.64h-8.64v8.64zm13.4 0h8.64v-8.64h-8.64v8.64zm13.4 0h8.64v-8.64h-8.64v8.64zm-93.5 0h8.64v-8.64h-8.64v8.64zm-107.9 0h8.64v-8.64h-8.64v8.64zm13.4 0h8.64v-8.64h-8.64v8.64zm40.1 0h8.64v-8.64h-8.64v8.64zm13.3 0h8.64v-8.64H1617v8.64zm13.4 0h8.64v-8.64h-8.64v8.64zm-93.5 0h8.64v-8.64h-8.64v8.64zm-107.8 0h8.64v-8.64h-8.64v8.64zm13.3 0h8.64v-8.64h-8.64v8.64zm40.1 0h8.64v-8.64h-8.64v8.64zm13.3 0h8.64v-8.64h-8.64v8.64zm13.4 0h8.64v-8.64h-8.64v8.64zm-93.5 0h8.64v-8.64h-8.64v8.64zm-107.8 0h8.64v-8.64h-8.64v8.64zm13.3 0h8.64v-8.64h-8.64v8.64zm40.1 0h8.64v-8.64h-8.64v8.64zm13.4 0h8.64v-8.64h-8.64v8.64zm13.3 0h8.64v-8.64H1388v8.64zm-93.5 0h8.64v-8.64h-8.64v8.64zm-107.8 0h8.64v-8.64h-8.64v8.64zm13.4 0h8.64v-8.64h-8.64v8.64zm40 0h8.64v-8.64h-8.64v8.64zm13.4 0h8.64v-8.64h-8.64v8.64zm13.3 0h8.64v-8.64h-8.64v8.64zm-93.5 0h8.64v-8.64h-8.64v8.64zm-107.8 0h8.64v-8.64h-8.64v8.64zm13.4 0h8.64v-8.64h-8.64v8.64zm40.1 0h8.64v-8.64H1119v8.64zm13.3 0h8.64v-8.64h-8.64v8.64zm13.4 0h8.64v-8.64h-8.64v8.64zm-93.5 0h8.64v-8.64h-8.64v8.64zm-107.85 0h8.64v-8.64h-8.64v8.64zm13.36 0h8.64v-8.64h-8.64v8.64zm40.09 0h8.64v-8.64h-8.64v8.64zm13.3 0h8.64v-8.64h-8.64v8.64zm13.4 0h8.64v-8.64h-8.64v8.64zm-93.51 0h8.64v-8.64h-8.64v8.64zm-107.82 0h8.64v-8.64h-8.64v8.64zm13.36 0h8.64v-8.64h-8.64v8.64zm40.07 0h8.64v-8.64h-8.64v8.64zm13.36 0h8.64v-8.64h-8.64v8.64zm13.36 0h8.64v-8.64h-8.64v8.64zm-93.51 0h8.64v-8.64h-8.64v8.64zm-107.82 0h8.64v-8.64h-8.64v8.64zm13.36 0h8.64v-8.64h-8.64v8.64zm40.08 0h8.64v-8.64h-8.64v8.64zm13.35 0h8.64v-8.64h-8.64v8.64zm13.36 0h8.64v-8.64h-8.64v8.64zm-93.5 0h8.64v-8.64h-8.64v8.64zm-107.82 0h8.64v-8.64h-8.64v8.64zm13.35 0h8.64v-8.64h-8.64v8.64zm40.08 0h8.64v-8.64h-8.64v8.64zm13.36 0h8.64v-8.64h-8.64v8.64zm13.35 0h8.64v-8.64h-8.64v8.64zm-93.5 0h8.64v-8.64h-8.64v8.64zm-107.82 0h8.64v-8.64h-8.64v8.64zm13.36 0h8.64v-8.64H473v8.64zm40.07 0h8.64v-8.64h-8.64v8.64zm13.36 0h8.64v-8.64h-8.64v8.64zm13.36 0h8.64v-8.64h-8.64v8.64zm-93.51 0h8.64v-8.64h-8.64v8.64zm-107.82 0h8.64v-8.64h-8.64v8.64zm13.36 0h8.64v-8.64h-8.64v8.64zm40.07 0h8.64v-8.64h-8.64v8.64zm13.36 0h8.64v-8.64h-8.64v8.64zm13.36 0h8.64v-8.64h-8.64v8.64zm-93.5 0h8.64v-8.64h-8.64v8.64zm-107.82 0h8.64v-8.64h-8.64v8.64zm13.35 0h8.64v-8.64h-8.64v8.64zm40.08 0h8.64v-8.64h-8.64v8.64zm13.35 0h8.64v-8.64h-8.64v8.64zm13.36 0h8.64v-8.64h-8.64v8.64zm-93.5 0h8.64v-8.64h-8.64v8.64z"/><path d="M2034.9 204.525h8.64v-6.24h-8.64v6.24zm26.8 0h8.64v-6.24h-8.64v6.24zm13.3 0h8.64v-6.24H2075v6.24zm26.7 0h8.64v-6.24h-8.64v6.24zm13.4 0h8.64v-6.24h-8.64v6.24zm-93.5 0h8.64v-6.24h-8.64v6.24zm-107.8 0h8.64v-6.24h-8.64v6.24zm13.3 0h8.64v-6.24h-8.64v6.24zm13.4 0h8.64v-6.24h-8.64v6.24zm26.7 0h8.64v-6.24h-8.64v6.24zm13.4 0h8.64v-6.24h-8.64v6.24zm-80.2 0h8.64v-6.24h-8.64v6.24zm-107.8 0h8.64v-6.24h-8.64v6.24zm13.3 0h8.64v-6.24h-8.64v6.24zm26.8 0h8.64v-6.24h-8.64v6.24zm13.3 0h8.64v-6.24H1846v6.24zm26.7 0h8.64v-6.24h-8.64v6.24zm-187.9 0h8.64v-6.24h-8.64v6.24zm13.3 0h8.64v-6.24h-8.64v6.24zm13.4 0h8.64v-6.24h-8.64v6.24zm13.3 0h8.64v-6.24h-8.64v6.24zm13.4 0h8.64v-6.24h-8.64v6.24zm13.4 0h8.64v-6.24h-8.64v6.24zm-93.5 0h8.64v-6.24h-8.64v6.24zm-107.9 0h8.64v-6.24h-8.64v6.24zm13.4 0h8.64v-6.24h-8.64v6.24zm13.3 0h8.64v-6.24h-8.64v6.24zm13.4 0h8.64v-6.24h-8.64v6.24zm13.4 0h8.64v-6.24h-8.64v6.24zm13.3 0h8.64v-6.24H1617v6.24zm13.4 0h8.64v-6.24h-8.64v6.24zm-201.3 0h8.64v-6.24h-8.64v6.24zm13.3 0h8.64v-6.24h-8.64v6.24zm13.4 0h8.64v-6.24h-8.64v6.24zm13.3 0h8.64v-6.24h-8.64v6.24zm13.4 0h8.64v-6.24h-8.64v6.24zm-66.8 0h8.64v-6.24h-8.64v6.24zm-107.8 0h8.64v-6.24h-8.64v6.24zm26.7 0h8.64v-6.24h-8.64v6.24zm13.4 0h8.64v-6.24H1348v6.24zm26.7 0h8.64v-6.24h-8.64v6.24zm13.3 0h8.64v-6.24H1388v6.24zm-93.5 0h8.64v-6.24h-8.64v6.24zm-94.4 0h8.64v-6.24h-8.64v6.24zm13.3 0h8.64v-6.24h-8.64v6.24zm26.7 0h8.64v-6.24h-8.64v6.24zm13.4 0h8.64v-6.24h-8.64v6.24zm13.3 0h8.64v-6.24h-8.64v6.24zm-201.3 0h8.64v-6.24h-8.64v6.24zm26.7 0h8.64v-6.24h-8.64v6.24zm13.4 0h8.64v-6.24h-8.64v6.24zm13.4 0h8.64v-6.24H1119v6.24zm13.3 0h8.64v-6.24h-8.64v6.24zm13.4 0h8.64v-6.24h-8.64v6.24zm-93.5 0h8.64v-6.24h-8.64v6.24zm-107.85 0h8.64v-6.24h-8.64v6.24zm13.36 0h8.64v-6.24h-8.64v6.24zm13.35 0h8.64v-6.24h-8.64v6.24zm13.36 0h8.64v-6.24h-8.64v6.24zm13.38 0h8.64v-6.24h-8.64v6.24zm13.3 0h8.64v-6.24h-8.64v6.24zm13.4 0h8.64v-6.24h-8.64v6.24zm-93.51 0h8.64v-6.24h-8.64v6.24zm-107.82 0h8.64v-6.24h-8.64v6.24zm13.36 0h8.64v-6.24h-8.64v6.24zm13.36 0h8.64v-6.24h-8.64v6.24zm13.35 0h8.64v-6.24h-8.64v6.24zm13.36 0h8.64v-6.24h-8.64v6.24zm13.36 0h8.64v-6.24h-8.64v6.24zm13.36 0h8.64v-6.24h-8.64v6.24zm-93.51 0h8.64v-6.24h-8.64v6.24zm-107.82 0h8.64v-6.24h-8.64v6.24zm13.36 0h8.64v-6.24h-8.64v6.24zm13.36 0h8.64v-6.24h-8.64v6.24zm13.36 0h8.64v-6.24h-8.64v6.24zm13.36 0h8.64v-6.24h-8.64v6.24zm13.35 0h8.64v-6.24h-8.64v6.24zm13.36 0h8.64v-6.24h-8.64v6.24zm-93.5 0h8.64v-6.24h-8.64v6.24zm-107.82 0h8.64v-6.24h-8.64v6.24zm13.35 0h8.64v-6.24h-8.64v6.24zm13.36 0h8.64v-6.24h-8.64v6.24zm13.36 0h8.64v-6.24h-8.64v6.24zm13.36 0h8.64v-6.24h-8.64v6.24zm13.36 0h8.64v-6.24h-8.64v6.24zm13.35 0h8.64v-6.24h-8.64v6.24zm-93.5 0h8.64v-6.24h-8.64v6.24zm-107.82 0h8.64v-6.24h-8.64v6.24zm13.36 0h8.64v-6.24H473v6.24zm13.36 0H495v-6.24h-8.64v6.24zm13.35 0h8.64v-6.24h-8.64v6.24zm13.36 0h8.64v-6.24h-8.64v6.24zm13.36 0h8.64v-6.24h-8.64v6.24zm13.36 0h8.64v-6.24h-8.64v6.24zm-93.51 0h8.64v-6.24h-8.64v6.24zm-107.82 0h8.64v-6.24h-8.64v6.24zm13.36 0h8.64v-6.24h-8.64v6.24zm13.36 0h8.64v-6.24h-8.64v6.24zm13.36 0h8.64v-6.24h-8.64v6.24zm13.35 0h8.64v-6.24h-8.64v6.24zm13.36 0h8.64v-6.24h-8.64v6.24zm13.36 0h8.64v-6.24h-8.64v6.24zm-93.5 0h8.64v-6.24h-8.64v6.24zm-107.82 0h8.64v-6.24h-8.64v6.24zm13.35 0h8.64v-6.24h-8.64v6.24zm13.36 0h8.64v-6.24H244v6.24zm13.36 0H266v-6.24h-8.64v6.24zm13.36 0h8.64v-6.24h-8.64v6.24zm13.35 0h8.64v-6.24h-8.64v6.24zm13.36 0h8.64v-6.24h-8.64v6.24zm-93.5 0h8.64v-6.24h-8.64v6.24z"/></g></g><path d="M2034.9 204.525h8.64v-3.12h-8.64v3.12zm26.8 0h8.64v-3.12h-8.64v3.12zm13.3 0h8.64v-3.12H2075v3.12zm26.7 0h8.64v-3.12h-8.64v3.12zm13.4 0h8.64v-3.12h-8.64v3.12zm-93.5 0h8.64v-3.12h-8.64v3.12zm-107.8 0h8.64v-3.12h-8.64v3.12zm13.3 0h8.64v-3.12h-8.64v3.12zm13.4 0h8.64v-3.12h-8.64v3.12zm26.7 0h8.64v-3.12h-8.64v3.12zm13.4 0h8.64v-3.12h-8.64v3.12zm-80.2 0h8.64v-3.12h-8.64v3.12zm-107.8 0h8.64v-3.12h-8.64v3.12zm13.3 0h8.64v-3.12h-8.64v3.12zm26.8 0h8.64v-3.12h-8.64v3.12zm13.3 0h8.64v-3.12H1846v3.12zm26.7 0h8.64v-3.12h-8.64v3.12zm-187.9 0h8.64v-3.12h-8.64v3.12zm13.3 0h8.64v-3.12h-8.64v3.12zm13.4 0h8.64v-3.12h-8.64v3.12zm13.3 0h8.64v-3.12h-8.64v3.12zm13.4 0h8.64v-3.12h-8.64v3.12zm13.4 0h8.64v-3.12h-8.64v3.12zm-93.5 0h8.64v-3.12h-8.64v3.12zm-107.9 0h8.64v-3.12h-8.64v3.12zm13.4 0h8.64v-3.12h-8.64v3.12zm13.3 0h8.64v-3.12h-8.64v3.12zm13.4 0h8.64v-3.12h-8.64v3.12zm13.4 0h8.64v-3.12h-8.64v3.12zm13.3 0h8.64v-3.12H1617v3.12zm13.4 0h8.64v-3.12h-8.64v3.12zm-201.3 0h8.64v-3.12h-8.64v3.12zm13.3 0h8.64v-3.12h-8.64v3.12zm13.4 0h8.64v-3.12h-8.64v3.12zm13.3 0h8.64v-3.12h-8.64v3.12zm13.4 0h8.64v-3.12h-8.64v3.12zm-66.8 0h8.64v-3.12h-8.64v3.12zm-107.8 0h8.64v-3.12h-8.64v3.12zm26.7 0h8.64v-3.12h-8.64v3.12zm13.4 0h8.64v-3.12H1348v3.12zm26.7 0h8.64v-3.12h-8.64v3.12zm13.3 0h8.64v-3.12H1388v3.12zm-93.5 0h8.64v-3.12h-8.64v3.12zm-94.4 0h8.64v-3.12h-8.64v3.12zm13.3 0h8.64v-3.12h-8.64v3.12zm26.7 0h8.64v-3.12h-8.64v3.12zm13.4 0h8.64v-3.12h-8.64v3.12zm13.3 0h8.64v-3.12h-8.64v3.12zm-201.3 0h8.64v-3.12h-8.64v3.12zm26.7 0h8.64v-3.12h-8.64v3.12zm13.4 0h8.64v-3.12h-8.64v3.12zm13.4 0h8.64v-3.12H1119v3.12zm13.3 0h8.64v-3.12h-8.64v3.12zm13.4 0h8.64v-3.12h-8.64v3.12zm-93.5 0h8.64v-3.12h-8.64v3.12zm-107.85 0h8.64v-3.12h-8.64v3.12zm13.36 0h8.64v-3.12h-8.64v3.12zm13.35 0h8.64v-3.12h-8.64v3.12zm13.36 0h8.64v-3.12h-8.64v3.12zm13.38 0h8.64v-3.12h-8.64v3.12zm13.3 0h8.64v-3.12h-8.64v3.12zm13.4 0h8.64v-3.12h-8.64v3.12zm-93.51 0h8.64v-3.12h-8.64v3.12zm-107.82 0h8.64v-3.12h-8.64v3.12zm13.36 0h8.64v-3.12h-8.64v3.12zm13.36 0h8.64v-3.12h-8.64v3.12zm13.35 0h8.64v-3.12h-8.64v3.12zm13.36 0h8.64v-3.12h-8.64v3.12zm13.36 0h8.64v-3.12h-8.64v3.12zm13.36 0h8.64v-3.12h-8.64v3.12zm-93.51 0h8.64v-3.12h-8.64v3.12zm-107.82 0h8.64v-3.12h-8.64v3.12zm13.36 0h8.64v-3.12h-8.64v3.12zm13.36 0h8.64v-3.12h-8.64v3.12zm13.36 0h8.64v-3.12h-8.64v3.12zm13.36 0h8.64v-3.12h-8.64v3.12zm13.35 0h8.64v-3.12h-8.64v3.12zm13.36 0h8.64v-3.12h-8.64v3.12zm-93.5 0h8.64v-3.12h-8.64v3.12zm-107.82 0h8.64v-3.12h-8.64v3.12zm13.35 0h8.64v-3.12h-8.64v3.12zm13.36 0h8.64v-3.12h-8.64v3.12zm13.36 0h8.64v-3.12h-8.64v3.12zm13.36 0h8.64v-3.12h-8.64v3.12zm13.36 0h8.64v-3.12h-8.64v3.12zm13.35 0h8.64v-3.12h-8.64v3.12zm-93.5 0h8.64v-3.12h-8.64v3.12zm-107.82 0h8.64v-3.12h-8.64v3.12zm13.36 0h8.64v-3.12H473v3.12zm13.36 0H495v-3.12h-8.64v3.12zm13.35 0h8.64v-3.12h-8.64v3.12zm13.36 0h8.64v-3.12h-8.64v3.12zm13.36 0h8.64v-3.12h-8.64v3.12zm13.36 0h8.64v-3.12h-8.64v3.12zm-93.51 0h8.64v-3.12h-8.64v3.12zm-107.82 0h8.64v-3.12h-8.64v3.12zm13.36 0h8.64v-3.12h-8.64v3.12zm13.36 0h8.64v-3.12h-8.64v3.12zm13.36 0h8.64v-3.12h-8.64v3.12zm13.35 0h8.64v-3.12h-8.64v3.12zm13.36 0h8.64v-3.12h-8.64v3.12zm13.36 0h8.64v-3.12h-8.64v3.12zm-93.5 0h8.64v-3.12h-8.64v3.12zm-107.82 0h8.64v-3.12h-8.64v3.12zm13.35 0h8.64v-3.12h-8.64v3.12zm13.36 0h8.64v-3.12H244v3.12zm13.36 0H266v-3.12h-8.64v3.12zm13.36 0h8.64v-3.12h-8.64v3.12zm13.35 0h8.64v-3.12h-8.64v3.12zm13.36 0h8.64v-3.12h-8.64v3.12zm-93.5 0h8.64v-3.12h-8.64v3.12z" stroke="#595959" class="G P"/><g class="B C"><path d="M132.216 180.143l1.12.444c-.172.78-.458 1.362-.857 1.74s-.907.57-1.52.57c-.76 0-1.385-.325-1.875-.974s-.734-1.538-.734-2.664c0-1.19.246-2.117.738-2.776s1.14-.99 1.94-.99c.7 0 1.27.26 1.707.776.26.306.456.745.586 1.318l-1.144.342c-.068-.37-.21-.664-.424-.88s-.476-.319-.783-.319c-.425 0-.77.2-1.033.57s-.397.998-.397 1.85c0 .905.13 1.55.39 1.934s.6.576 1.016.576c.307 0 .572-.122.793-.366s.38-.628.477-1.152zm2.301 2.632v-7.158h1.156v7.158zm1.743-2.33l1.125-.137c.068.472.205.82.412 1.04s.486.332.838.332c.372 0 .653-.1.842-.295a.96.96 0 0 0 .283-.69c0-.17-.04-.313-.12-.432s-.218-.222-.416-.3c-.136-.06-.444-.163-.926-.312-.62-.192-1.055-.428-1.305-.708-.35-.394-.527-.874-.527-1.44a2.18 2.18 0 0 1 .248-1.023 1.68 1.68 0 0 1 .715-.725c.311-.165.687-.25 1.127-.25.72 0 1.26.197 1.623.59s.554.92.572 1.577l-1.156.063c-.05-.368-.156-.632-.318-.793s-.407-.242-.733-.242c-.336 0-.6.086-.79.26a.57.57 0 0 0-.184.444.61.61 0 0 0 .172.435c.146.153.5.313 1.063.48s.978.338 1.248.515.48.42.633.728.228.688.228 1.14c0 .4-.09.794-.273 1.152s-.44.624-.774.798-.748.26-1.246.26c-.724 0-1.28-.21-1.668-.627s-.62-1.028-.695-1.83zm8.957-.303l1.12.444c-.172.78-.458 1.362-.857 1.74s-.907.57-1.522.57c-.76 0-1.385-.325-1.875-.974s-.734-1.537-.734-2.664c0-1.19.246-2.117.738-2.776a2.31 2.31 0 0 1 1.942-.99c.7 0 1.27.26 1.707.776.26.306.455.745.585 1.318l-1.144.342c-.068-.37-.21-.664-.424-.88a1.06 1.06 0 0 0-.783-.322c-.425 0-.77.2-1.033.57s-.397.998-.397 1.85c0 .905.13 1.55.39 1.934s.6.576 1.016.576c.307 0 .57-.122.792-.366s.38-.628.477-1.152zm2.102-.903c0-.73.087-1.34.26-1.836a3.51 3.51 0 0 1 .534-.981 2.18 2.18 0 0 1 .74-.645c.357-.19.768-.283 1.234-.283.844 0 1.52.327 2.025.98s.76 1.564.76 2.73c0 1.156-.25 2.06-.754 2.712a2.41 2.41 0 0 1-2.015.979 2.43 2.43 0 0 1-2.031-.974c-.503-.65-.754-1.544-.754-2.683zm1.19-.05c0 .8.15 1.425.45 1.843s.68.627 1.14.627.84-.208 1.135-.622.443-1.038.443-1.868c0-.82-.144-1.432-.432-1.836a1.34 1.34 0 0 0-1.146-.605c-.477 0-.86.204-1.152.613s-.438 1.025-.438 1.848zm8.055 3.586v-7.158h1.125l2.343 4.78v-4.78h1.075v7.158h-1.16l-2.31-4.668v4.668zm4.988 0v-7.158h4.246v1.21h-3.1v1.587h2.875v1.206h-2.875v1.948h3.2v1.207zm5.418 0l1.957-3.735-1.773-3.423h1.35l1.15 2.3 1.125-2.3h1.34l-1.78 3.477 1.955 3.681H170.9l-1.27-2.475-1.273 2.475zm5.574-7.158h1.156v3.877l.043 1.196c.05.293.168.528.354.706s.44.266.764.266.575-.084.742-.25.267-.374.3-.618.05-.65.05-1.216v-3.96h1.157v3.76c0 .86-.032 1.467-.094 1.82s-.178.654-.346.898a1.78 1.78 0 0 1-.674.583c-.282.143-.648.217-1.1.217-.547 0-.962-.08-1.244-.237s-.506-.363-.67-.615a2.21 2.21 0 0 1-.325-.793c-.075-.4-.113-1.016-.113-1.816zm5.715 4.83l1.125-.137c.068.472.205.82.412 1.04s.486.332.838.332c.372 0 .653-.1.842-.295a.96.96 0 0 0 .283-.69c0-.17-.04-.313-.12-.432s-.218-.222-.416-.3c-.136-.06-.444-.163-.926-.312-.62-.192-1.055-.428-1.305-.708-.35-.394-.527-.874-.527-1.44 0-.365.083-.706.248-1.023a1.68 1.68 0 0 1 .715-.725c.311-.165.687-.25 1.127-.25.72 0 1.26.197 1.623.59s.554.92.572 1.577l-1.156.063c-.05-.368-.156-.632-.318-.793s-.407-.242-.733-.242c-.336 0-.6.086-.79.26a.57.57 0 0 0-.183.444.61.61 0 0 0 .171.435c.146.153.5.313 1.063.48s.978.338 1.248.515.48.42.633.728.228.688.228 1.14c0 .4-.09.794-.273 1.152s-.44.624-.774.798-.748.26-1.246.26c-.724 0-1.28-.21-1.668-.627s-.62-1.028-.695-1.83zm-49.695 14.328v-7.158h1.126l2.344 4.78v-4.78h1.074v7.158h-1.16l-2.31-4.668v4.668zm5.549-1.655l1.063-.147c.026.27.094.47.203.6s.254.195.434.195c.227 0 .42-.13.578-.39s.26-.8.305-1.62c-.276.4-.62.6-1.035.6-.45 0-.84-.217-1.166-.652s-.5-1-.5-1.697c0-.726.173-1.31.518-1.755s.785-.667 1.318-.667c.58 0 1.057.28 1.43.842s.56 1.485.56 2.77c0 1.31-.194 2.253-.582 2.832s-.893.87-1.516.87c-.448 0-.8-.15-1.086-.447s-.447-.742-.524-1.334zm2.484-2.998c0-.443-.08-.786-.244-1.03s-.35-.366-.564-.366c-.203 0-.372.1-.506.3s-.2.528-.2.984c0 .462.073.802.22 1.018s.328.325.547.325c.21 0 .39-.104.533-.312s.217-.514.217-.918zm2.201 4.653v-7.158h1.156v3.18l2.346-3.18h1.555l-2.167 2.788 2.274 4.37h-1.496l-1.576-3.36-.937 1.196v2.164z" class="R"/><path d="M144.42 191.495h2.156v1.372h-2.156z"/><path d="M150.886 192.143l1.12.444c-.172.78-.458 1.362-.857 1.74s-.907.57-1.52.57c-.76 0-1.385-.325-1.875-.974s-.734-1.538-.734-2.664c0-1.19.246-2.117.738-2.776s1.14-.99 1.94-.99c.7 0 1.27.26 1.707.776.26.306.456.745.586 1.318l-1.144.342c-.068-.37-.21-.664-.424-.88s-.476-.319-.783-.319c-.425 0-.77.2-1.033.57s-.397.998-.397 1.85c0 .905.13 1.55.39 1.934s.6.576 1.016.576c.307 0 .572-.122.793-.366s.38-.628.477-1.152zm1.887.977l1.063-.147c.026.27.094.47.203.6s.254.195.434.195c.227 0 .42-.13.578-.39s.26-.8.305-1.62c-.276.4-.62.6-1.035.6-.45 0-.84-.217-1.166-.652s-.5-1-.5-1.697c0-.726.173-1.31.518-1.755s.785-.667 1.318-.667c.58 0 1.057.28 1.43.842s.56 1.485.56 2.77c0 1.31-.194 2.253-.582 2.832s-.893.87-1.516.87c-.448 0-.8-.15-1.086-.447s-.447-.742-.524-1.334zm2.484-2.998c0-.443-.08-.786-.244-1.03s-.35-.366-.564-.366c-.203 0-.372.1-.506.3s-.2.528-.2.984c0 .462.073.802.22 1.018s.328.325.547.325c.21 0 .39-.104.533-.312s.217-.514.217-.918zm1.453 2.753l1.063-.16c.034.34.125.597.273.776s.328.27.54.27c.227 0 .417-.107.572-.322s.232-.504.232-.87c0-.345-.074-.618-.223-.82s-.33-.303-.543-.303a1.55 1.55 0 0 0-.504.103l.12-1.118c.297.01.523-.07.68-.242s.234-.398.234-.68c0-.24-.057-.433-.172-.576s-.267-.215-.457-.215a.6.6 0 0 0-.481.244c-.133.163-.214.4-.242.713l-1.012-.215c.07-.433.176-.78.318-1.038a1.48 1.48 0 0 1 .594-.6c.254-.138.538-.222.853-.222.54 0 .97.215 1.297.644.268.352.402.75.402 1.19 0 .628-.275 1.13-.824 1.504a1.32 1.32 0 0 1 .787.591c.197.306.295.676.295 1.108 0 .628-.184 1.164-.55 1.606a1.71 1.71 0 0 1-1.371.664 1.67 1.67 0 0 1-1.29-.56c-.342-.374-.54-.86-.594-1.462zm7.848 1.9h-1.098v-5.17c-.4.47-.874.815-1.418 1.04V189.4c.287-.117.597-.34.933-.667a2.56 2.56 0 0 0 .692-1.145h.9zm2.133-3.862c-.284-.15-.5-.356-.62-.618s-.193-.55-.193-.862c0-.534.15-.975.447-1.323s.722-.522 1.27-.522.967.174 1.268.523.45.79.45 1.323c0 .332-.07.627-.207.886s-.332.456-.582.593a1.64 1.64 0 0 1 .725.698c.165.306.248.66.248 1.06 0 .66-.17 1.198-.506 1.61a1.65 1.65 0 0 1-1.346.62 1.77 1.77 0 0 1-1.3-.513c-.408-.404-.613-.957-.613-1.66 0-.387.077-.743.23-1.067a1.62 1.62 0 0 1 .726-.75zm.227-1.382c0 .274.062.487.185.64s.29.23.494.23a.61.61 0 0 0 .5-.232c.125-.155.188-.37.188-.642 0-.257-.062-.463-.186-.618a.6.6 0 0 0-.5-.232.61.61 0 0 0-.504.234c-.125.156-.187.363-.187.62zm-.102 3.066c0 .378.078.672.233.884s.348.317.58.317a.67.67 0 0 0 .562-.305c.15-.203.223-.497.223-.88 0-.335-.076-.605-.227-.808s-.342-.305-.574-.305c-.268 0-.468.115-.6.347a1.5 1.5 0 0 0-.197.752zm5.79-5c.555 0 .99.247 1.3.742.372.586.56 1.558.56 2.915s-.188 2.327-.563 2.92c-.3.488-.742.732-1.297.732s-1.006-.277-1.348-.811-.512-1.5-.512-2.864c0-1.348.187-2.318.562-2.9.3-.488.743-.732 1.297-.732zm0 1.138c-.133 0-.25.053-.355.16s-.185.295-.242.57c-.076.355-.114.952-.114 1.792s.034 1.417.102 1.73.153.523.256.627.22.156.353.156.252-.053.356-.16.185-.295.242-.57c.075-.352.113-.947.113-1.787s-.034-1.417-.1-1.73-.153-.524-.256-.63a.48.48 0 0 0-.354-.159zm2.667 6.04v-7.1h1.157v5.893h2.875v1.207zm8.633-2.632l1.12.444c-.172.78-.458 1.362-.857 1.74s-.907.57-1.522.57c-.76 0-1.385-.325-1.875-.974s-.732-1.538-.732-2.664c0-1.19.246-2.117.738-2.776s1.14-.99 1.94-.99c.7 0 1.27.26 1.707.776.26.306.455.745.585 1.318l-1.144.342c-.068-.37-.21-.664-.424-.88s-.475-.319-.782-.319c-.425 0-.77.2-1.033.57s-.397.998-.397 1.85c0 .905.13 1.55.39 1.934s.6.576 1.016.576c.307 0 .572-.122.793-.366s.38-.628.476-1.152z" class="R"/><path d="M185.77 191.495h2.156v1.372h-2.156z"/><path d="M188.572 194.775v-7.158h4.246v1.21h-3.1v1.587h2.875v1.206h-2.865v1.948h3.2v1.207zm4.418 0l1.957-3.735-1.773-3.423h1.35l1.15 2.3 1.125-2.3h1.34l-1.78 3.477 1.955 3.681h-1.394l-1.27-2.475-1.273 2.475z" class="R"/><path d="M131.225 89.594h-2.211v-5.687h1.992q1.035 0 1.57.396.535.396.535 1.162 0 .418-.215.736-.215.318-.598.467.438.109.689.441.252.332.252.813 0 .82-.523 1.242-.523.422-1.492.43zm.035-2.477h-1.074v1.535h1.004q.414 0 .646-.197.232-.197.232-.545 0-.781-.809-.793zm-1.074-2.262v1.434h.867q.887-.016.887-.707 0-.387-.225-.557-.225-.17-.709-.17h-.82zm7.227 2.844h1.172q-.066.918-.678 1.445-.611.527-1.611.527-1.094 0-1.721-.736-.627-.736-.627-2.021v-.348q0-.82.289-1.445.289-.625.826-.959.537-.334 1.248-.334.984 0 1.586.527.602.527.695 1.48h-1.172q-.043-.551-.307-.799-.264-.248-.803-.248-.586 0-.877.42-.291.42-.299 1.303v.43q0 .922.279 1.348.279.426.881.426.543 0 .811-.248.268-.248.307-.768z"/><use xlink:href="#Q"/><use xlink:href="#R"/><path d="M138.846 101.906v.949h-1.742v4.738h-1.172v-4.738h-1.719v-.949h4.633z"/><use xlink:href="#R" x="9.805"/><path d="M132.74 122.211v.918h-2.25v1.523h2.641v.941h-3.812v-5.687h3.805v.949h-2.633v1.355h2.25z"/><use xlink:href="#Q" x="-5.536" y="36"/><path d="M140.287 119.906l1.281 4.277 1.289-4.277h1.305l-1.98 5.688h-1.223l-1.973-5.687h1.301zm56.704-48.723v.91h-3.898v-.773l1.84-1.961q.379-.414.561-.723.182-.309.182-.586 0-.379-.191-.596-.191-.217-.547-.217-.383 0-.604.264-.221.264-.221.693h-1.133q0-.52.248-.949.248-.43.701-.674.453-.244 1.027-.244.879 0 1.365.422.486.422.486 1.191 0 .422-.219.859-.219.438-.75 1.02l-1.293 1.363h2.445zm-2.751 16.45v-.883h.602q.43 0 .637-.215.207-.215.207-.57 0-.344-.205-.535-.205-.191-.564-.191-.324 0-.543.178-.219.178-.219.463h-1.129q0-.445.24-.799.24-.354.672-.553.432-.199.951-.199.902 0 1.414.432.512.432.512 1.189 0 .391-.238.719-.238.328-.625.504.48.172.717.516.236.344.236.813 0 .758-.553 1.215-.553.457-1.463.457-.852 0-1.393-.449-.541-.449-.541-1.187h1.129q0 .32.24.523.24.203.592.203.402 0 .631-.213.229-.213.229-.564 0-.852-.937-.852h-.598zm2.192 14.773v3.547h.645v.91h-.645v1.23h-1.129v-1.23h-2.332l-.051-.711 2.371-3.746h1.141zm-1.203 1.668l-1.184 1.879h1.258v-2.008l-.074.129zm.605-55.676v5.695h-1.129v-4.352l-1.348.418v-.918l2.355-.844h.121zm-17.752 104.484v7.119h3.732v1.412h-5.49v-8.531h1.758zm9.164 6.293q0-.498-.352-.765-.352-.267-1.266-.562-.914-.296-1.447-.583-1.453-.785-1.453-2.115 0-.691.39-1.233.39-.542 1.119-.847.729-.305 1.638-.305.914 0 1.629.331.715.331 1.11.935.396.604.396 1.371h-1.758q0-.586-.369-.911-.369-.325-1.037-.325-.645 0-1.002.272-.357.272-.357.718 0 .416.419.697.419.281 1.233.527 1.5.451 2.186 1.119.686.668.686 1.664 0 1.107-.838 1.737-.838.63-2.256.63-.984 0-1.793-.36-.809-.36-1.233-.987-.425-.627-.425-1.453h1.764q0 1.412 1.688 1.412.627 0 .979-.255.352-.255.352-.712z"/><use xlink:href="#S"/><use xlink:href="#T"/><use xlink:href="#U"/><use xlink:href="#V"/><use xlink:href="#W"/><use xlink:href="#X"/><use xlink:href="#Y"/><use xlink:href="#Z"/><use xlink:href="#a"/><use xlink:href="#S" x="533.197"/><use xlink:href="#b"/><use xlink:href="#S" x="599.053"/><use xlink:href="#S" x="605.938"/><path d="M885.694 14.589v8.543H884v-6.527l-2.021.627v-1.377l3.533-1.266h.182z"/><use xlink:href="#T" x="612.822"/><use xlink:href="#S" x="720.24"/><use xlink:href="#U" x="605.937"/><use xlink:href="#S" x="775.572"/><use xlink:href="#V" x="612.823"/><use xlink:href="#S" x="841.428"/><use xlink:href="#W" x="605.938"/><use xlink:href="#S" x="896.76"/><use xlink:href="#X" x="612.823"/><use xlink:href="#S" x="962.615"/><use xlink:href="#Y" x="605.938"/><use xlink:href="#S" x="1017.947"/><use xlink:href="#Z" x="612.822"/><use xlink:href="#S" x="1083.803"/><use xlink:href="#a" x="605.938"/><use xlink:href="#T" x="1090.687"/><use xlink:href="#b" x="605.937"/><use xlink:href="#T" x="1156.543"/><use xlink:href="#S" x="1211.875"/><use xlink:href="#T" x="1211.875"/><use xlink:href="#T" x="1218.76"/><use xlink:href="#T" x="1277.73"/><use xlink:href="#U" x="1211.875"/><use xlink:href="#T" x="1333.062"/><use xlink:href="#V" x="1218.76"/><use xlink:href="#T" x="1398.918"/><use xlink:href="#W" x="1211.876"/><use xlink:href="#T" x="1454.25"/><use xlink:href="#X" x="1218.761"/><use xlink:href="#T" x="1520.105"/><use xlink:href="#Y" x="1211.875"/><use xlink:href="#T" x="1575.437"/><use xlink:href="#Z" x="1218.759"/><use xlink:href="#T" x="1641.293"/><use xlink:href="#a" x="1211.876"/><use xlink:href="#U" x="1623.885"/><use xlink:href="#b" x="1211.875"/><use xlink:href="#U" x="1689.74"/><use xlink:href="#S" x="1817.812"/><use xlink:href="#U" x="1745.072"/><use xlink:href="#T" x="1824.697"/></g></symbol></svg>