<svg xmlns="http://www.w3.org/2000/svg" xmlns:xlink="http://www.w3.org/1999/xlink" viewBox="0 0 2281 414.2" fill="#fff" fill-rule="evenodd" stroke="#000" stroke-linecap="round" stroke-linejoin="round"><style><![CDATA[.B{stroke-width:1.2}.C{stroke-width:.96}.D{stroke-linejoin:miter}.E{stroke:none}.F{fill:none}.G{stroke:gray}.H{stroke:#ddd}.I{stroke-linecap:square}.J{fill:#c1c5cb}.K{fill:#000}.L{fill:url(#B)}.M{stroke-width:3.6}.N{fill:url(#P)}.O{stroke:#5f5f5f}.P{fill:url(#A)}.Q{fill:url(#C)}.R{stroke:#7f7f7f}.S{fill:#262626}.T{fill:#b2b2b2}.U{fill:#ddd}.V{stroke-width:2.04}.W{fill:#a5a5a5}.X{fill:url(#D)}.Y{stroke:#9a9a9a}.Z{fill:#0070c0}.a{stroke:#bfbfbf}.b{fill:url(#O)}.c{fill:#3f3f3f}.d{stroke-width:1.248}.e{stroke-width:9.96}]]></style><use xlink:href="#AE" x=".5" y=".6"/><defs><linearGradient id="A" x1="0%" y1="50%" x2="100%" y2="50%"><stop offset="0%" stop-color="#7f7f7f"/><stop offset="100%" stop-color="#c1c5cb"/></linearGradient><linearGradient id="B" x1="50%" y1="0%" x2="50%" y2="100%"><stop offset="0%" stop-color="#7f7f7f"/><stop offset="100%" stop-color="#c1c5cb"/></linearGradient><linearGradient id="C" x1="50%" y1="100%" x2="50%" y2="0%"><stop offset="0%" stop-color="#7f7f7f"/><stop offset="100%" stop-color="#c1c5cb"/></linearGradient><linearGradient id="D" x1="100%" y1="50%" x2="0%" y2="50%"><stop offset="0%" stop-color="#7f7f7f"/><stop offset="100%" stop-color="#c1c5cb"/></linearGradient><linearGradient id="E" x1="50%" y1="0%" x2="50%" y2="100%"><stop offset="0%" stop-color="#fff"/><stop offset="71%" stop-color="#bfbfbf"/></linearGradient><radialGradient id="F" r="100%" fx="50%" fy="50%" cx="50%" cy="50%"><stop offset="0%" stop-color="#d0d0d0"/><stop offset="71%" stop-color="#bfbfbf"/></radialGradient><radialGradient id="G" r="100%" fx="50%" fy="50%" cx="50%" cy="50%"><stop offset="0%" stop-color="#9d9d9d"/><stop offset="100%" stop-color="#7f7f7f"/></radialGradient><radialGradient id="H" r="100%" fx="50%" fy="50%" cx="50%" cy="50%"><stop offset="0%" stop-color="#5c5c5c"/><stop offset="100%" stop-color="#3f3f3f"/></radialGradient><linearGradient id="I" x1="50%" y1="100%" x2="50%" y2="0%"><stop offset="0%" stop-color="#262626"/><stop offset="1%" stop-color="#262626"/><stop offset="50%" stop-color="#444"/><stop offset="100%" stop-color="#262626"/></linearGradient><radialGradient id="J" r="100%" fx="50%" fy="50%" cx="50%" cy="50%"><stop offset="0%" stop-color="#f2872f"/><stop offset="71%" stop-color="#d9680d"/></radialGradient><radialGradient id="K" r="100%" fx="50%" fy="50%" cx="50%" cy="50%"><stop offset="0%" stop-color="#46c146"/><stop offset="71%" stop-color="#393"/></radialGradient><radialGradient id="L" r="100%" fx="50%" fy="50%" cx="50%" cy="50%"><stop offset="0%" stop-color="#fff"/><stop offset="71%" stop-color="#a6a6a6"/></radialGradient><radialGradient id="M" r="100%" fx="50%" fy="50%" cx="50%" cy="50%"><stop offset="0%" stop-color="#f2f2f2"/><stop offset="71%" stop-color="#a6a6a6"/></radialGradient><linearGradient id="N" x1="0%" y1="50%" x2="100%" y2="50%"><stop offset="0%" stop-color="#262626"/><stop offset="1%" stop-color="#262626"/><stop offset="50%" stop-color="#444"/><stop offset="100%" stop-color="#262626"/></linearGradient><linearGradient id="O" x1="50%" y1="0%" x2="50%" y2="100%"><stop offset="0%" stop-color="#4d4d4d"/><stop offset="1%" stop-color="#4d4d4d"/><stop offset="50%" stop-color="#fff"/><stop offset="100%" stop-color="#4d4d4d"/></linearGradient><radialGradient id="P" r="100%" fx="50%" fy="50%" cx="50%" cy="50%"><stop offset="0%" stop-color="#cdcdcd"/><stop offset="71%" stop-color="gray"/></radialGradient><path id="Q" d="M271.605 161.42c0-5.16-4.08-9.24-9.24-9.24s-9.24 4.08-9.24 9.24 4.08 9.24 9.24 9.24 9.24-4.08 9.24-9.24z"/><path id="R" d="M1140.025 26.51v370.32c.96 3.96 4.32 6.96 8.4 7.56h46.8c3-.24 5.4-2.64 5.64-5.64v-.96h5.64v7.92h382.56v-7.92h3.6v1.92c0 2.64 2.16 4.8 4.8 4.8h49.68c3.6.24 6.48-2.4 6.6-6l-.12-372c.12-3.6-2.76-6.48-6.24-6.6h-48c-3.12-.48-6 1.56-6.48 4.56v2.4l-3.6-.12v-7.92h-382.68v7.92l-5.64.12c.36-3.6-2.4-6.72-6-6.96h-48.36c-3.6-.12-6.48 2.76-6.6 6.24z"/><path id="S" d="M1450.145 382.66c6.48 0 11.28-4.8 11.28-11.28s-4.8-11.52-11.28-11.52-11.52 5.16-11.52 11.52 5.16 11.28 11.52 11.28z"/><path id="T" d="M1238.485 383.76c0-5.64-4.56-10.32-10.32-10.32s-10.32 4.68-10.32 10.32 4.56 10.32 10.32 10.32a10.24 10.24 0 0 0 10.32-10.32z"/><path id="U" d="M1190.155 140.9l15.274 15.273 1.697-1.697-15.274-15.274-1.697 1.697z"/><path id="V" d="M1156.015 137.82h-2.4v21.6h2.4v-19.2h19.2v-2.4h-19.2z"/><path id="W" d="M1156.015 286.96h-2.4v-21.6h2.4v19.2h19.2v2.4h-19.2z"/><path id="X" d="M1205.125 286.96h2.4v-21.6h-2.4v19.2h-19.2v2.4h19.2z"/><path id="Y" d="M1228.655 296.58l-11.4 6.6v13.2l11.4 6.6 11.4-6.72v-13.2l-11.4-6.48zm0-49.69l-11.4 6.6v13.2l11.4 6.6 11.4-6.72v-13.2l-11.4-6.48zm0-49.68l-11.4 6.6v13.2l11.4 6.6 11.4-6.72v-13.2l-11.4-6.48zm0-49.69l-11.4 6.6v13.2l11.4 6.6 11.4-6.72V154l-11.4-6.48zm0-49.69l-11.4 6.6v13.2l11.4 6.6 11.4-6.72v-13.2l-11.4-6.48zm14.09 223.59l-11.4 6.6v13.2l11.4 6.6 11.4-6.72v-13.2l-11.4-6.48zm0-49.68l-11.4 6.6v13.2l11.4 6.6 11.4-6.72v-13.2l-11.4-6.48zm0-49.69l-11.4 6.6v13.2l11.4 6.6 11.4-6.72v-13.2l-11.4-6.48zm0-49.69l-11.4 6.6v13.2l11.4 6.6 11.4-6.72v-13.2l-11.4-6.48zm0-49.69l-11.4 6.6v13.2l11.4 6.6 11.4-6.72v-13.2l-11.4-6.48zm0-49.684l-11.4 6.6v13.2l11.4 6.6 11.4-6.72v-13.2l-11.4-6.48zm14.08 223.594l-11.4 6.6v13.2l11.4 6.6 11.4-6.72v-13.2l-11.4-6.48zm0-49.69l-11.4 6.6v13.2l11.4 6.6 11.4-6.72v-13.2l-11.4-6.48zm0-49.68l-11.4 6.6v13.2l11.4 6.6 11.4-6.72v-13.2l-11.4-6.48zm0-49.69l-11.4 6.6v13.2l11.4 6.6 11.4-6.72V154l-11.4-6.48zm0-49.69l-11.4 6.6v13.2l11.4 6.6 11.4-6.72v-13.2l-11.4-6.48zm14.09 223.59l-11.4 6.6v13.2l11.4 6.6 11.4-6.72v-13.2l-11.4-6.48zm0-49.68l-11.4 6.6v13.2l11.4 6.6 11.4-6.72v-13.2l-11.4-6.48zm0-49.69l-11.4 6.6v13.2l11.4 6.6 11.4-6.72v-13.2l-11.4-6.48zm0-49.69l-11.4 6.6v13.2l11.4 6.6 11.4-6.72v-13.2l-11.4-6.48zm0-49.69l-11.4 6.6v13.2l11.4 6.6 11.4-6.72v-13.2l-11.4-6.48zm0-49.684l-11.4 6.6v13.2l11.4 6.6 11.4-6.72v-13.2l-11.4-6.48zm14.09 273.284l-11.4 6.6v13.2l11.4 6.6 11.4-6.72v-13.2l-11.4-6.48zm0-49.69l-11.4 6.6v13.2l11.4 6.6 11.4-6.72v-13.2l-11.4-6.48zm0-49.69l-11.4 6.6v13.2l11.4 6.6 11.4-6.72v-13.2l-11.4-6.48zm0-49.68l-11.4 6.6v13.2l11.4 6.6 11.4-6.72v-13.2l-11.4-6.48zm0-49.69l-11.4 6.6v13.2l11.4 6.6 11.4-6.72V154l-11.4-6.48zm0-49.69l-11.4 6.6v13.2l11.4 6.6 11.4-6.72v-13.2l-11.4-6.48zm0-49.687l-11.4 6.6v13.2l11.4 6.6 11.4-6.72v-13.2l-11.4-6.48zm14.08 273.277l-11.4 6.6v13.2l11.4 6.6 11.4-6.72v-13.2l-11.4-6.48zm0-49.68l-11.4 6.6v13.2l11.4 6.6 11.4-6.72v-13.2l-11.4-6.48zm0-49.69l-11.4 6.6v13.2l11.4 6.6 11.4-6.72v-13.2l-11.4-6.48zm0-49.69l-11.4 6.6v13.2l11.4 6.6 11.4-6.72v-13.2l-11.4-6.48zm0-49.69l-11.4 6.6v13.2l11.4 6.6 11.4-6.72v-13.2l-11.4-6.48zm0-49.684l-11.4 6.6v13.2l11.4 6.6 11.4-6.72v-13.2l-11.4-6.48zm14.09 273.284l-11.4 6.6v13.2l11.4 6.6 11.4-6.72v-13.2l-11.4-6.48zm0-49.69l-11.4 6.6v13.2l11.4 6.6 11.4-6.72v-13.2l-11.4-6.48zm0-49.69l-11.4 6.6v13.2l11.4 6.6 11.4-6.72v-13.2l-11.4-6.48zm0-49.68l-11.4 6.6v13.2l11.4 6.6 11.4-6.72v-13.2l-11.4-6.48zm0-49.69l-11.4 6.6v13.2l11.4 6.6 11.4-6.72V154l-11.4-6.48zm0-49.69l-11.4 6.6v13.2l11.4 6.6 11.4-6.72v-13.2l-11.4-6.48zm0-49.687l-11.4 6.6v13.2l11.4 6.6 11.4-6.72v-13.2l-11.4-6.48zm14.09 273.277l-11.4 6.6v13.2l11.4 6.6 11.4-6.72v-13.2l-11.4-6.48zm0-49.68l-11.4 6.6v13.2l11.4 6.6 11.4-6.72v-13.2l-11.4-6.48zm0-49.69l-11.4 6.6v13.2l11.4 6.6 11.4-6.72v-13.2l-11.4-6.48zm0-49.69l-11.4 6.6v13.2l11.4 6.6 11.4-6.72v-13.2l-11.4-6.48zm0-49.69l-11.4 6.6v13.2l11.4 6.6 11.4-6.72v-13.2l-11.4-6.48zm0-49.684l-11.4 6.6v13.2l11.4 6.6 11.4-6.72v-13.2l-11.4-6.48zm14.08 223.594l-11.4 6.6v13.2l11.4 6.6 11.4-6.72v-13.2l-11.4-6.48zm0-49.69l-11.4 6.6v13.2l11.4 6.6 11.4-6.72v-13.2l-11.4-6.48zm0-49.68l-11.4 6.6v13.2l11.4 6.6 11.4-6.72v-13.2l-11.4-6.48zm0-49.69l-11.4 6.6v13.2l11.4 6.6 11.4-6.72V154l-11.4-6.48zm0-49.69l-11.4 6.6v13.2l11.4 6.6 11.4-6.72v-13.2l-11.4-6.48zm0-49.687l-11.4 6.6v13.2l11.4 6.6 11.4-6.72v-13.2l-11.4-6.48zm14.09 273.277l-11.4 6.6v13.2l11.4 6.6 11.4-6.72v-13.2l-11.4-6.48zm0-49.68l-11.4 6.6v13.2l11.4 6.6 11.4-6.72v-13.2l-11.4-6.48zm0-49.69l-11.4 6.6v13.2l11.4 6.6 11.4-6.72v-13.2l-11.4-6.48zm0-49.69l-11.4 6.6v13.2l11.4 6.6 11.4-6.72v-13.2l-11.4-6.48zm0-49.69l-11.4 6.6v13.2l11.4 6.6 11.4-6.72v-13.2l-11.4-6.48zm0-49.684l-11.4 6.6v13.2l11.4 6.6 11.4-6.72v-13.2l-11.4-6.48zm14.09 223.594l-11.4 6.6v13.2l11.4 6.6 11.4-6.72v-13.2l-11.4-6.48zm0-49.69l-11.4 6.6v13.2l11.4 6.6 11.4-6.72v-13.2l-11.4-6.48zm0-49.68l-11.4 6.6v13.2l11.4 6.6 11.4-6.72v-13.2l-11.4-6.48zm0-49.69l-11.4 6.6v13.2l11.4 6.6 11.4-6.72V154l-11.4-6.48zm0-49.69l-11.4 6.6v13.2l11.4 6.6 11.4-6.72v-13.2l-11.4-6.48zm0-49.687l-11.4 6.6v13.2l11.4 6.6 11.4-6.72v-13.2l-11.4-6.48zm14.09 273.277l-11.4 6.6v13.2l11.4 6.6 11.4-6.72v-13.2l-11.4-6.48zm0-49.68l-11.4 6.6v13.2l11.4 6.6 11.4-6.72v-13.2l-11.4-6.48zm0-49.69l-11.4 6.6v13.2l11.4 6.6 11.4-6.72v-13.2l-11.4-6.48zm0-49.69l-11.4 6.6v13.2l11.4 6.6 11.4-6.72v-13.2l-11.4-6.48zm0-49.69l-11.4 6.6v13.2l11.4 6.6 11.4-6.72v-13.2l-11.4-6.48zm0-49.684l-11.4 6.6v13.2l11.4 6.6 11.4-6.72v-13.2l-11.4-6.48zm14.08 273.284l-11.4 6.6v13.2l11.4 6.6 11.4-6.72v-13.2l-11.4-6.48zm0-49.69l-11.4 6.6v13.2l11.4 6.6 11.4-6.72v-13.2l-11.4-6.48zm0-49.69l-11.4 6.6v13.2l11.4 6.6 11.4-6.72v-13.2l-11.4-6.48zm0-49.68l-11.4 6.6v13.2l11.4 6.6 11.4-6.72v-13.2l-11.4-6.48zm0-49.69l-11.4 6.6v13.2l11.4 6.6 11.4-6.72V154l-11.4-6.48zm0-49.69l-11.4 6.6v13.2l11.4 6.6 11.4-6.72v-13.2l-11.4-6.48zm0-49.687l-11.4 6.6v13.2l11.4 6.6 11.4-6.72v-13.2l-11.4-6.48zm14.09 273.277l-11.4 6.6v13.2l11.4 6.6 11.4-6.72v-13.2l-11.4-6.48zm0-49.68l-11.4 6.6v13.2l11.4 6.6 11.4-6.72v-13.2l-11.4-6.48zm0-49.69l-11.4 6.6v13.2l11.4 6.6 11.4-6.72v-13.2l-11.4-6.48zm0-49.69l-11.4 6.6v13.2l11.4 6.6 11.4-6.72v-13.2l-11.4-6.48zm0-49.69l-11.4 6.6v13.2l11.4 6.6 11.4-6.72v-13.2l-11.4-6.48zm0-49.684l-11.4 6.6v13.2l11.4 6.6 11.4-6.72v-13.2l-11.4-6.48zm14.09 223.594l-11.4 6.6v13.2l11.4 6.6 11.4-6.72v-13.2l-11.4-6.48zm0-49.69l-11.4 6.6v13.2l11.4 6.6 11.4-6.72v-13.2l-11.4-6.48zm0-49.68l-11.4 6.6v13.2l11.4 6.6 11.4-6.72v-13.2l-11.4-6.48zm0-49.69l-11.4 6.6v13.2l11.4 6.6 11.4-6.72V154l-11.4-6.48zm0-49.69l-11.4 6.6v13.2l11.4 6.6 11.4-6.72v-13.2l-11.4-6.48zm0-49.687l-11.4 6.6v13.2l11.4 6.6 11.4-6.72v-13.2l-11.4-6.48zm14.08 273.277l-11.4 6.6v13.2l11.4 6.6 11.4-6.72v-13.2l-11.4-6.48zm0-49.68l-11.4 6.6v13.2l11.4 6.6 11.4-6.72v-13.2l-11.4-6.48zm0-49.69l-11.4 6.6v13.2l11.4 6.6 11.4-6.72v-13.2l-11.4-6.48zm0-49.69l-11.4 6.6v13.2l11.4 6.6 11.4-6.72v-13.2l-11.4-6.48zm0-49.69l-11.4 6.6v13.2l11.4 6.6 11.4-6.72v-13.2l-11.4-6.48zm0-49.684l-11.4 6.6v13.2l11.4 6.6 11.4-6.72v-13.2l-11.4-6.48zm14.09 223.594l-11.4 6.6v13.2l11.4 6.6 11.4-6.72v-13.2l-11.4-6.48zm0-49.69l-11.4 6.6v13.2l11.4 6.6 11.4-6.72v-13.2l-11.4-6.48zm0-49.68l-11.4 6.6v13.2l11.4 6.6 11.4-6.72v-13.2l-11.4-6.48zm0-49.69l-11.4 6.6v13.2l11.4 6.6 11.4-6.72V154l-11.4-6.48zm0-49.69l-11.4 6.6v13.2l11.4 6.6 11.4-6.72v-13.2l-11.4-6.48zm0-49.687l-11.4 6.6v13.2l11.4 6.6 11.4-6.72v-13.2l-11.4-6.48zm14.09 273.277l-11.4 6.6v13.2l11.4 6.6 11.4-6.72v-13.2l-11.4-6.48zm0-49.68l-11.4 6.6v13.2l11.4 6.6 11.4-6.72v-13.2l-11.4-6.48zm0-49.69l-11.4 6.6v13.2l11.4 6.6 11.4-6.72v-13.2l-11.4-6.48zm0-49.69l-11.4 6.6v13.2l11.4 6.6 11.4-6.72v-13.2l-11.4-6.48zm0-49.69l-11.4 6.6v13.2l11.4 6.6 11.4-6.72v-13.2l-11.4-6.48zm0-49.684l-11.4 6.6v13.2l11.4 6.6 11.4-6.72v-13.2l-11.4-6.48zm14.08 273.284l-11.4 6.6v13.2l11.4 6.6 11.4-6.72v-13.2l-11.4-6.48zm0-49.69l-11.4 6.6v13.2l11.4 6.6 11.4-6.72v-13.2l-11.4-6.48zm0-49.69l-11.4 6.6v13.2l11.4 6.6 11.4-6.72v-13.2l-11.4-6.48zm0-49.68l-11.4 6.6v13.2l11.4 6.6 11.4-6.72v-13.2l-11.4-6.48zm0-49.69l-11.4 6.6v13.2l11.4 6.6 11.4-6.72V154l-11.4-6.48zm0-49.69l-11.4 6.6v13.2l11.4 6.6 11.4-6.72v-13.2l-11.4-6.48zm0-49.687l-11.4 6.6v13.2l11.4 6.6 11.4-6.72v-13.2l-11.4-6.48zm70.4 273.277l-11.4 6.6v13.2l11.4 6.6 11.4-6.72v-13.2l-11.4-6.48zm0-49.68l-11.4 6.6v13.2l11.4 6.6 11.4-6.72v-13.2l-11.4-6.48zm0-49.69l-11.4 6.6v13.2l11.4 6.6 11.4-6.72v-13.2l-11.4-6.48zm0-49.69l-11.4 6.6v13.2l11.4 6.6 11.4-6.72v-13.2l-11.4-6.48zm0-49.69l-11.4 6.6v13.2l11.4 6.6 11.4-6.72v-13.2l-11.4-6.48zm0-49.684l-11.4 6.6v13.2l11.4 6.6 11.4-6.72v-13.2l-11.4-6.48zm14.1 223.594l-11.4 6.6v13.2l11.4 6.6 11.4-6.72v-13.2l-11.4-6.48zm0-49.69l-11.4 6.6v13.2l11.4 6.6 11.4-6.72v-13.2l-11.4-6.48zm0-49.68l-11.4 6.6v13.2l11.4 6.6 11.4-6.72v-13.2l-11.4-6.48zm0-49.69l-11.4 6.6v13.2l11.4 6.6 11.4-6.72V154l-11.4-6.48zm0-49.69l-11.4 6.6v13.2l11.4 6.6 11.4-6.72v-13.2l-11.4-6.48zm-42.24 223.59l-11.4 6.6v13.2l11.4 6.6 11.4-6.72v-13.2l-11.4-6.48zm0-49.68l-11.4 6.6v13.2l11.4 6.6 11.4-6.72v-13.2l-11.4-6.48zm0-49.69l-11.4 6.6v13.2l11.4 6.6 11.4-6.72v-13.2l-11.4-6.48zm0-49.69l-11.4 6.6v13.2l11.4 6.6 11.4-6.72v-13.2l-11.4-6.48zm0-49.69l-11.4 6.6v13.2l11.4 6.6 11.4-6.72v-13.2l-11.4-6.48zm0-49.684l-11.4 6.6v13.2l11.4 6.6 11.4-6.72v-13.2l-11.4-6.48zm14.14 223.594l-11.4 6.6v13.2l11.4 6.6 11.4-6.72v-13.2l-11.4-6.48zm0-49.69l-11.4 6.6v13.2l11.4 6.6 11.4-6.72v-13.2l-11.4-6.48zm0-49.68l-11.4 6.6v13.2l11.4 6.6 11.4-6.72v-13.2l-11.4-6.48zm0-49.69l-11.4 6.6v13.2l11.4 6.6 11.4-6.72V154l-11.4-6.48zm0-49.69l-11.4 6.6v13.2l11.4 6.6 11.4-6.72v-13.2l-11.4-6.48zm-42.31 223.59l-11.4 6.6v13.2l11.4 6.6 11.4-6.72v-13.2l-11.4-6.48zm0-49.68l-11.4 6.6v13.2l11.4 6.6 11.4-6.72v-13.2l-11.4-6.48zm0-49.69l-11.4 6.6v13.2l11.4 6.6 11.4-6.72v-13.2l-11.4-6.48zm0-49.69l-11.4 6.6v13.2l11.4 6.6 11.4-6.72v-13.2l-11.4-6.48zm0-49.69l-11.4 6.6v13.2l11.4 6.6 11.4-6.72v-13.2l-11.4-6.48zm0-49.684l-11.4 6.6v13.2l11.4 6.6 11.4-6.72v-13.2l-11.4-6.48zm14.09 273.284l-11.4 6.6v13.2l11.4 6.6 11.4-6.72v-13.2l-11.4-6.48zm0-49.69l-11.4 6.6v13.2l11.4 6.6 11.4-6.72v-13.2l-11.4-6.48zm0-49.69l-11.4 6.6v13.2l11.4 6.6 11.4-6.72v-13.2l-11.4-6.48zm0-49.68l-11.4 6.6v13.2l11.4 6.6 11.4-6.72v-13.2l-11.4-6.48zm0-49.69l-11.4 6.6v13.2l11.4 6.6 11.4-6.72V154l-11.4-6.48zm0-49.69l-11.4 6.6v13.2l11.4 6.6 11.4-6.72v-13.2l-11.4-6.48zm0-49.687l-11.4 6.6v13.2l11.4 6.6 11.4-6.72v-13.2l-11.4-6.48z"/><path id="Z" d="M2145.445 129.694c0-2.88-2.4-5.16-5.16-5.16s-5.16 2.28-5.16 5.16 2.4 5.16 5.16 5.16 5.16-2.4 5.16-5.16z"/><path id="a" d="M609.395 215.67h-52.08v2.04c-.72 1.92-1.92 2.52-3.12 2.04-1.44-1.56-1.44-1.8-1.44-2.04-.12-1.08-.96-2.04-3.36-2.04h-162.36l-1.2 2.04c-.72 1.92-2.16 2.4-3.36 1.92l.12-3.96h-215.64v17.28h-6v157.44h4.08c1.2 0 1.92.84 1.92 1.92s.84 1.92 1.92 1.92h9.72c1.92 0 3.6 1.2 4.56 2.76l.36.72c.6 1.2 1.92 2.16 3.36 2.16h2.52v6l412.56-.6c4.08 0 7.44-3.24 7.44-7.2v-182.4z"/><path id="b" d="M603.75 290.75l-11.515 8.45v-12.96l-12.485 10.51m-.475-2.71c.12 6.36 5.76 12 12.48 12s12.48-5.64 12.48-12.36-5.52-12.48-12.48-12.48a12.39 12.39 0 0 0-12.48 12.48z"/><path id="c" d="M2.475 29.476h28.559a2.4 2.4 0 0 0 2.4-2.4L18.674 1.155a2.4 2.4 0 0 0-3.24-.84L.315 25.876a2.4 2.4 0 0 0 .84 3.24z"/><path id="d" d="M2.692 0l-.291 8.622H.35L.06 0h2.632zM1.376 9.972q.624 0 1.004.367.38.367.38.94 0 .564-.38.931-.38.367-1.004.367-.615 0-.995-.367Q0 11.844 0 11.28q0-.564.38-.936.38-.372.995-.372z"/><path id="e" d="M511.145 311.66c0-23.4-18.96-42.36-42.36-42.36s-42.36 18.96-42.36 42.36 18.96 42.36 42.36 42.36 42.36-18.96 42.36-42.36z"/><path id="f" d="M303.765 379.04v-133.2c0-4.2-3.36-7.56-7.44-7.56h-93.6c-4.2 0-7.44 3.36-7.44 7.44v133.32c-.24 4.2 3.12 7.56 7.2 7.56h93.6c4.32 0 7.68-3.36 7.68-7.56z"/><path id="g" d="M288.735 354.57v-84a18 18 0 0 0-18-18h-22.44a18 18 0 0 0-12.12 4.68l-20.4 18.48a18 18 0 0 0-5.76 13.32v47.04a18 18 0 0 0 5.88 13.32l20.52 18.36a18 18 0 0 0 12 4.8h22.44a18 18 0 0 0 18-18z"/><path id="h" d="M270.365 344.91v-7.68l-14.88-.12-.12 7.8 14.88.12z"/><path id="i" d="M266.715 342.47v-2.88l-7.68-.12-.12 3 7.68.12z"/><path id="j" d="M196.835 261.05h-22.44c-4.2 0-7.56 3.36-7.56 7.44v82.56c0 4.2 3.36 7.44 7.44 7.44h22.56c4.2 0 7.56-3.24 7.56-7.44v-82.56c0-4.08-3.36-7.44-7.56-7.44z"/><path id="k" d="M166.835 218.82v-3.24h-4.8c-2.64.12-4.8 2.16-4.8 4.8v170.04a7.2 7.2 0 0 0 6.6 6.96h14.28a2.44 2.44 0 0 1 2.4 1.2l2.76 4.8c.84 1.56 2.4 2.4 4.2 2.4h1.92v-3.24h-1.92l-1.44-.72-2.76-4.8c-.96-1.92-3-3-5.16-2.76h-13.92c-1.92-.24-3.36-1.8-3.24-3.6V220.98l6-1.92z"/><path id="l" d="M496.457 317.007v-9.967h1.976v7.615l2.358-.731v1.606l-4.122 1.477h-.212z"/><path id="m" d="M486.401 308.632v-1.593h6.822v1.354l-3.22 3.432q-.663.725-.981 1.265-.318.54-.318 1.025 0 .663.335 1.042.335.379.957.379.67 0 1.056-.461.386-.461.386-1.213h1.982q0 .909-.434 1.661-.434.752-1.227 1.179-.793.427-1.798.427-1.538 0-2.389-.738-.851-.738-.851-2.085 0-.738.383-1.504.383-.766 1.313-1.784l2.263-2.386h-4.279z"/><path id="n" d="M478.492 312.987v-1.832q0-2.064.854-3.158.854-1.094 2.502-1.094 1.627 0 2.488 1.073.861 1.073.882 3.076v1.832q0 2.085-.865 3.165-.865 1.08-2.492 1.08-1.627 0-2.488-1.07-.861-1.07-.882-3.073zm1.976-2.187v2.365q0 1.237.338 1.801.338.564 1.056.564.697 0 1.029-.537.332-.537.352-1.678v-2.42q0-1.217-.332-1.808-.332-.591-1.063-.591-.725 0-1.046.567-.321.567-.335 1.736z"/><path id="o" d="M462.797 316.993l-1.634-7.082-1.34 7.082h-2.044l2.208-9.953h2.064l1.62 6.658 1.62-6.658h2.064l2.208 9.953h-2.044l-1.347-7.068-1.641 7.068h-1.736z"/><path id="p" d="M446.876 307.04l.69 2.051h3.596l.684-2.051h2.181l-3.705 9.953h-1.9l-3.726-9.953h2.181zm2.495 7.438l1.237-3.726h-2.488l1.251 3.726z"/><path id="q" d="M438.146 310.355h-2.051q.116-1.606 1.186-2.529 1.07-.923 2.82-.923 1.914 0 3.011 1.289 1.097 1.289 1.097 3.538v.608q0 1.436-.506 2.529-.506 1.094-1.446 1.678-.94.584-2.184.584-1.723 0-2.775-.923-1.053-.923-1.217-2.591h2.051q.075.964.537 1.398.461.434 1.405.434 1.025 0 1.535-.735.509-.735.523-2.28v-.752q0-1.613-.489-2.358-.489-.745-1.542-.745-.95 0-1.418.434-.468.434-.537 1.343z"/><path id="r" d="M341.903 191.113h-1.798v3.507h-2.051v-9.953h3.883q1.121 0 1.972.41.851.41 1.309 1.166.458.755.458 1.719 0 1.463-1.001 2.307-1.001.844-2.772.844zm-1.798-4.785v3.124h1.832q.813 0 1.241-.383.427-.383.427-1.094 0-.731-.431-1.183-.431-.451-1.189-.465h-1.88z"/><path id="s" d="M352.245 192.009q0-.581-.41-.892-.41-.311-1.477-.656-1.066-.345-1.688-.68-1.695-.916-1.695-2.468 0-.807.455-1.439.455-.632 1.306-.988.851-.355 1.911-.355 1.066 0 1.9.386.834.386 1.295 1.09.461.704.461 1.6h-2.051q0-.684-.431-1.063-.431-.379-1.21-.379-.752 0-1.169.318-.417.318-.417.837 0 .485.489.813.489.328 1.439.615 1.75.526 2.55 1.306.8.779.8 1.941 0 1.292-.978 2.027-.978.735-2.632.735-1.148 0-2.092-.42-.943-.42-1.439-1.152-.496-.731-.496-1.695h2.058q0 1.647 1.969 1.647.731 0 1.142-.297.41-.297.41-.831z"/><path id="t" d="M739.104 379.667v1.661h-3.049v8.292h-2.051v-8.292h-3.008v-1.661h8.107z"/><path id="u" d="M667.929 265.386h8.531v1.131l-6.574 4.295h6.574v1.131h-8.531v-1.131l6.604-4.307h-6.604v-1.119z"/><path id="v" d="M672.71 259.514q.404.34.65.812.246.472.246 1.034 0 .738-.363 1.286-.363.548-1.022.847-.659.299-1.456.299-.855 0-1.541-.325-.686-.325-1.049-.923-.363-.598-.363-1.395 0-1.266.946-1.995.946-.729 2.581-.729h.316q2.49 0 3.636.984 1.146.984 1.175 2.971v.211h-.914v-.229q-.023-1.342-.7-2.062-.677-.721-2.142-.785zm0 1.67q0-.545-.334-1.005-.334-.46-.826-.671h-.434q-1.066 0-1.734.463-.668.463-.668 1.172 0 .715.548 1.148.548.434 1.444.434.873 0 1.438-.419.565-.419.565-1.122z"/><path id="w" d="M676.46 251.458l-3.967 3.023 1.084 1.043h2.883v1.125h-8.531v-1.125h4.219l-4.219-3.791v-1.359l3.768 3.357 4.764-3.621v1.348z"/><path id="x" d="M672.394 247.415h.885v2.859h-.885v-2.859z"/><path id="y" d="M673.753 241.046v-1.131q1.354.158 2.089.999.735.841.735 2.235 0 1.512-1.084 2.423-1.084.911-2.9.911h-.82q-1.189 0-2.092-.425-.902-.425-1.386-1.204-.483-.779-.483-1.805 0-1.359.759-2.18.759-.82 2.101-.955v1.131q-1.02.146-1.477.636-.457.489-.457 1.368 0 1.078.797 1.69.797.612 2.268.612h.826q1.389 0 2.209-.58.82-.58.82-1.623 0-.937-.425-1.438-.425-.501-1.479-.665z"/><path id="z" d="M672.552 230.346h-.885v-.814q-.012-.768-.404-1.207-.393-.439-1.061-.439-1.5 0-1.5 1.494 0 .703.401 1.122.401.419 1.063.419v1.084q-1.014 0-1.685-.741-.671-.741-.671-1.884 0-1.207.639-1.893.639-.686 1.775-.686.557 0 1.078.36.521.36.779.981.223-.703.738-1.087.516-.384 1.26-.384 1.148 0 1.822.75.674.75.674 1.951 0 1.201-.65 1.954-.65.753-1.717.753v-1.09q.674 0 1.078-.439.404-.439.404-1.178 0-.785-.41-1.201-.41-.416-1.178-.416-.744 0-1.143.457-.398.457-.41 1.318v.814z"/><path id="AA" d="M671.416 219.835h1.406q1.904 0 2.83.65.926.65.926 2.033 0 1.365-.905 2.021-.905.656-2.704.68h-1.447q-1.881 0-2.795-.65-.914-.65-.914-2.039 0-1.377.882-2.027.882-.65 2.722-.668zm1.699 1.084h-1.775q-1.377 0-2.007.387-.63.387-.63 1.225 0 .832.627 1.213.627.381 1.928.393h1.734q1.383 0 2.042-.401.659-.401.659-1.216 0-.803-.621-1.192-.621-.39-1.957-.407z"/><path id="AB" d="M671.773 203.411h.92v3.58h3.768v1.125h-8.531v-5.285h.926v4.16h2.918v-3.58z"/><path id="AC" d="M676.46 196.954l-2.227.814v3.574l2.227.803v1.16l-8.531-3.258v-.984l8.531-3.264v1.154zm-7.143 2.602l3.99 1.447v-2.9l-3.99 1.453z"/><path id="AD" d="M676.46 173.089v2.959h-8.531v-2.789q0-1.389.574-2.089.574-.7 1.699-.7.598 0 1.058.34.46.34.712.926.193-.691.735-1.093.542-.401 1.292-.401 1.148 0 1.805.744.656.744.656 2.104zm-3.99-.041v1.875h3.07v-1.857q0-.785-.407-1.239-.407-.454-1.122-.454-1.541 0-1.541 1.676zm-3.615 1.875h2.713v-1.699q0-.738-.369-1.181-.369-.442-1.002-.442-.703 0-1.022.41-.319.41-.319 1.248v1.664z"/></defs><symbol id="AE" overflow="visible"><path d="M24 412.83h2232c12 0 24-5.28 24-11.76V11.79c0-6.48-12-11.76-24-11.76H24C10.8.03 0 5.31 0 11.79v389.28c0 6.48 12 11.76 24 11.76zm15.24-166.08h-8.88c-6.48 0-12-5.28-12-11.76s5.28-11.76 11.76-11.76h22.8c6.48 0 12 5.16 12 11.76s-5.28 11.76-11.76 11.76H39.24zm0 74.64h-8.88c-6.48 0-12-5.16-12-11.76s5.28-11.76 11.76-11.76h22.8c6.48 0 12 5.16 12 11.76s-5.28 11.76-11.76 11.76H39.24zm0 74.64h-8.88c-6.48 0-12-5.16-12-11.76s5.28-11.76 11.76-11.76h22.8c6.48 0 12 5.16 12 11.76s-5.4 11.76-11.88 11.76h-13.8zm2196.84-149.16h-8.88c-6.48 0-11.76-5.28-12-11.76s5.28-11.76 11.76-11.76h22.8c6.6 0 12 5.16 12 11.76s-5.16 11.76-11.76 11.76h-13.8zm0 74.64h-8.88c-6.48 0-11.76-5.16-12-11.76s5.28-11.76 11.76-11.76h22.8c6.6 0 12 5.16 12 11.76s-5.16 11.76-11.76 11.76h-13.8zm0 74.64h-8.88c-6.48 0-11.76-5.16-12-11.76s5.28-11.76 11.76-11.76h22.8c6.6 0 12 5.16 12 11.76s-5.16 11.76-11.76 11.76h-13.8zM39.24 40.35h-8.88c-6.48 0-12-5.28-12-11.76s5.4-11.76 11.88-11.76h22.8c6.48 0 12 5.28 12 11.76s-5.28 11.76-11.76 11.76H39.24zm0 74.64h-8.88c-6.48 0-12-5.16-12-11.76s5.28-11.76 11.76-11.76h22.8c6.48 0 12 5.28 12 11.76s-5.28 11.76-11.76 11.76H39.24zm0 74.64h-8.88c-6.48 0-12-5.16-12-11.76s5.28-11.76 11.76-11.76h22.8c6.48 0 12 5.16 12 11.76s-5.28 11.76-11.76 11.76H39.24zM2236.08 40.47h-8.88c-6.48 0-11.76-5.28-12-11.76s5.28-11.76 11.76-11.76h22.8c6.6 0 12 5.28 12 11.76s-5.16 11.76-11.76 11.76h-13.8zm0 74.64h-8.88c-6.48 0-11.76-5.16-12-11.76s5.28-11.76 11.76-11.76h22.8c6.6 0 12 5.28 12 11.76s-5.16 11.76-11.76 11.76h-13.8zm0 74.64h-8.88c-6.48 0-11.76-5.16-12-11.76s5.28-11.76 11.76-11.76h22.8c6.6 0 12 5.16 12 11.76s-5.16 11.76-11.76 11.76h-13.8z" fill="#a6a6a6" class="E"/><g class="B D G"><path d="M103.125 412.83h5.64v-405h-5.64v405z" class="J"/><g class="W"><path d="M97.5 345.33h5.64v-54.36H97.5v54.36z"/><path d="M103.125 345.33h5.64v-54.36h-5.64v54.36z"/></g><path d="M108.755 198.13h5.64v5.64h490.32v-5.64h5.64V11.53h-5.64V5.89h-490.32v5.64h-5.64v186.6z" class="J"/><g class="I"><path d="M114.375 198.18h-5.64V11.58h5.64" class="P"/><path d="M114.365 11.58V5.94h490.32v5.64" class="L"/></g></g><g class="F"><path d="M243.815 97.86c0-10.32-8.4-18.72-18.72-18.72s-18.84 8.28-18.84 18.72 8.4 18.72 18.72 18.72 18.72-8.4 18.72-18.72z" class="B"/><path d="M225.005 81.518v16.32" class="B"/><path d="M209.065 97.83h32.04m-27.92 6.56h23.64m-18.76 6.57h13.56" class="V"/></g><g class="D"><g stroke="#333" class="K M"><use xlink:href="#Q"/><use xlink:href="#Q" x="-74.85"/></g><g class="B G"><g class="I"><path d="M604.695 198.14v5.64h-490.32v-5.64" class="Q"/><path d="M604.685 11.54h5.64v186.6h-5.64" class="X"/></g><path d="M2168.425 198.13h-5.64v5.64h-490.32v-5.64h-5.64V11.53h5.64V5.89h490.32v5.64h5.64v186.6z" class="J"/><g class="I"><path d="M2162.825 198.18h5.64V11.58h-5.64" class="X"/><path d="M2162.845 11.58V5.94h-490.32v5.64" class="L"/></g></g><g class="c"><path d="M1687.365 27.088c1.5-6 8.5-9 9-1 .25 2.5-3.25.25-7 2.5m-2.987 4.021c-1.5 6-8.5 9-9 1-.25-2.5 3.25-.25 7-2.5m5.237-.771c6 1.5 9 8.5 1 9-2.5.25-.25-3.25-2.5-7m-4.021-2.987c-6-1.5-9-8.5-1-9 2.5-.25.25 3.25 2.5 7" class="B I"/><circle cx="1686.865" cy="29.838" r="2.75" class="B"/></g><g class="G"><g class="I"><path d="M1672.505 198.14v5.64h490.32v-5.64" class="B Q"/><path d="M1672.525 11.54h-5.64v186.6h5.64" class="B P"/></g><path d="M2176.825 412.83h-5.64v-405h5.64v405z" class="B J"/><path d="M2182.525 345.33h-5.64v-54.36h5.64v54.36zm-5.7 0h-5.64v-54.36h5.64v54.36z" class="B W"/><g class="J"><path d="M142.505 407.21v5.64h1987.56v-5.64H142.505z" class="B"/><path d="M108.755 360.39v45c0 4.08 3.36 7.44 7.56 7.44h30c4.2 0 7.56-3.36 7.56-7.44V214.11a7.48 7.48 0 0 0-7.44-7.44h-30c-4.32-.24-7.68 3.36-7.68 7.44v63.6h24.36v82.56h-24.36z" class="B"/></g><path d="M114.375 277.85h-11.64v-65.64h11.64" class="B I P"/><path d="M2163.725 360.39v45c0 4.08-3.36 7.44-7.56 7.44h-30c-4.2 0-7.56-3.36-7.56-7.44V214.11a7.48 7.48 0 0 1 7.44-7.44h30c4.32-.24 7.68 3.36 7.68 7.44v63.6h-24.36v82.56h24.36z" class="B J"/><g class="I X"><path d="M2158.125 277.85h11.64v-65.64h-11.64" class="B"/><path d="M2158.125 403.53h11.64v-43.2h-11.64" class="B"/></g><path d="M620.635 15.31h-8.4v385.2h8.4v5.76h52.44v-5.64h6V15.43h-6V9.79h-52.44v5.64z" class="B J"/><g class="I"><path d="M618.235 400.53h-6V15.33h6" class="B P"/><path d="M673.125 400.53h6V15.33h-6" class="B X"/><path d="M673.185 15.33V9.69h-52.56v5.64" class="B L"/><path d="M673.185 400.64v5.64h-52.56v-5.64" class="B Q"/></g><path d="M1080.025 405.71h112.56V19.07h-112.56v386.64z" class="B J"/><g class="I"><path d="M1192.585 26.955v-7.92h-112.56v7.92" class="B L"/><path d="M1079.965 397.83v7.92h112.56v-7.92" class="B Q"/></g><use xlink:href="#R" class="B J"/><g class="I"><path d="M1589.155 397.83v7.92h-382.56v-7.92" class="B Q"/><path d="M1589.155 26.955v-7.92h-382.56v7.92" class="B L"/></g></g></g><g stroke="#666" class="C F"><use xlink:href="#S"/><use xlink:href="#S" x="-108.28"/></g><g class="D"><use xlink:href="#T" class="B K"/><path d="M1648.977 49.12c0-12.389-10.043-22.431-22.431-22.431s-22.431 10.042-22.431 22.431 10.043 22.431 22.431 22.431 22.431-10.043 22.431-22.431z" fill="url(#E)" class="Y d"/></g><circle cx="1626.715" cy="48.937" fill="url(#F)" r="14.4" class="B R"/><g fill="url(#G)" class="E"><path d="M1623.862 49.967l1.244-3.4-11.126-4.008a14.22 14.22 0 0 0-1.165 3.099l11.047 4.309z"/><path d="M1628.115 51.547l11.171 3.986c.708-.93 1.108-2.025 1.166-3.193l-11.093-4.195-1.244 3.401z"/></g><path d="M1623.915 49.914l-1.68 4.8c1.2.6 2.88 1.2 4.32 1.56l1.56-4.68 4.2 1.56 1.2-3.36-4.2-1.56 1.68-4.8c-1.905-.434-2.88-1.08-4.08-1.44l-1.8 4.56-4.2-1.56-1.2 3.48 4.2 1.56" fill="url(#H)" class="C R"/><g class="E"><path d="M1157.365 141.2h30v142.44h-30z" class="Z"/><path d="M1204.245 283.64v-123.6l-16.8-18.72v142.32h16.8z" class="W"/></g><g fill="#bfbfbf" class="C D R"><use xlink:href="#U"/><use xlink:href="#V"/><use xlink:href="#W"/><use xlink:href="#X"/></g><use xlink:href="#Y" class="B K"/><path d="M1450.12 381.606a10.26 10.26 0 1 0 0-20.566h-108.088a10.26 10.26 0 1 0 0 20.566z" fill="url(#I)" class="E"/><g class="B D"><g class="a"><ellipse cx="2140.385" cy="129.77" fill="#595959" rx="8.46" ry="8.43"/><use xlink:href="#Z" fill="#7f7f7f"/><circle cx="2140.285" cy="129.694" r="1.5" class="S"/></g><path d="M590.75 28.5c1.5-6 8.5-9 9-1 .25 2.5-3.25.25-7 2.5m-2.987 4.021c-1.5 6-8.5 9-9 1-.25-2.5 3.25-.25 7-2.5M593 31.75c6 1.5 9 8.5 1 9-2.5.25-.25-3.25-2.5-7m-4.021-2.987c-6-1.5-9-8.5-1-9 2.5-.25.25 3.25 2.5 7" class="I c"/><circle cx="590.25" cy="31.25" r="2.75" class="c"/><use xlink:href="#a" class="G J"/></g><g class="V"><g stroke="#404040"><path d="M584.935 341.63a7.53 7.53 0 0 0 7.56 7.56c4.2 0 7.44-3.48 7.44-7.56s-3.36-7.56-7.56-7.56a7.53 7.53 0 0 0-7.56 7.56z" fill="url(#J)"/><path d="M584.935 261.1a7.53 7.53 0 0 0 7.56 7.56c4.2 0 7.44-3.48 7.44-7.56s-3.36-7.56-7.56-7.56a7.53 7.53 0 0 0-7.56 7.56z" fill="url(#K)"/></g><use xlink:href="#b" class="F"/></g><g transform="matrix(-1 0 0 -1 607.068837 386.616332)"><use xlink:href="#c" class="E S"/></g><g transform="matrix(-1 0 0 -1 591.671969 374.968482)"><use xlink:href="#d" fill="#c1c1c1" class="E"/></g><g class="B D G I"><g class="L"><path d="M557.315 221.67v-6h52.08v6"/><path d="M166.875 221.67v-6h215.64v6"/></g><path d="M166.895 390.48h-6V232.92h6" class="P"/><path d="M290.675 399.8v6h-101.28v-6" class="L"/></g><use xlink:href="#e" stroke="#ff8f28" class="F e"/><path d="M391.875 256.688c-4.32 6-8.91 12.863-11.67 19.822l-.24 68.88c3 8.4 6.48 15 12 21.12a3.6 3.6 0 0 0 3.48 1.56c3.6-.48 7.2 0 10.32 1.44 1.2.6 3 .36 4.08-.72l18.6-18.6a3.6 3.6 0 0 0 .24-4.8c-15.6-19.8-15.6-48 0-67.68a3.6 3.6 0 0 0-.24-4.8l-18.6-18.6a3.6 3.6 0 0 0-4.08-.72c-3.24 1.44-6.84 1.92-10.32 1.44a3.6 3.6 0 0 0-3.48 1.56zm21.45-5.977l18 18a3.6 3.6 0 0 0 4.8.24c19.8-15.6 48-15.6 67.68 0a3.6 3.6 0 0 0 4.8-.24l18-18a3.6 3.6 0 0 0 .48-4.44c-2.16-3.6-3.12-7.8-2.64-12a3.6 3.6 0 0 0-1.56-3.48c-5.64-3.6-11.52-6.72-17.76-9.24l-70.2.12c-6.727 2.361-13.135 5.545-19.08 9.48a3.6 3.6 0 0 0-1.56 3.48c.48 4.2.645 8.025-1.515 11.625a3.6 3.6 0 0 0 .48 4.44zm117.96 3.6l-18.6 18.6a3.6 3.6 0 0 0-.24 4.8c15.6 19.8 15.6 48 0 67.68a3.6 3.6 0 0 0 .24 4.8l18.6 18.6a3.6 3.6 0 0 0 4.08.72 19.07 19.07 0 0 1 10.32-1.44 3.6 3.6 0 0 0 3.48-1.56c4.32-6.24 7.8-12.84 10.56-19.8l-.96-68.88c-3-8.4-6.48-15-12-21.12a3.6 3.6 0 0 0-3.48-1.56c-3.6.48-7.2 0-10.32-1.44-.84-.335-1.34.29-1.59.54zm-115.32 137.76c5.64 3.6 11.52 6.72 17.76 9.24l68.88.36c6.727-2.361 13.135-5.545 19.08-9.48a3.6 3.6 0 0 0 1.56-3.36c-.48-4.08.48-8.4 2.64-12a3.6 3.6 0 0 0-.48-4.44l-18-18a3.6 3.6 0 0 0-4.8-.24c-19.8 15.6-48 15.6-67.68 0a3.6 3.6 0 0 0-4.8.24l-18 18a3.6 3.6 0 0 0-.48 4.44c2.16 3.6 3.12 7.8 2.64 12-.12 1.2.48 2.64 1.56 3.36z" class="B D K"/><g class="C"><path d="M346.895 384.8a15.01 15.01 0 0 0 15 15 15.01 15.01 0 0 0 15-15 15.01 15.01 0 0 0-15-15 15.01 15.01 0 0 0-15 15z" fill="url(#L)" class="Y"/><path d="M363.934 380.069l-.994-1.722a1.2 1.2 0 0 0-1.636-.438c-.182.105-.333.256-.438.438l-.994 1.722a1.2 1.2 0 0 1-1.037.599h-1.988a1.2 1.2 0 0 0-1.037 1.797l.994 1.722a1.2 1.2 0 0 1 0 1.198l-.994 1.722c-.331.573-.135 1.305.438 1.636.182.105.389.161.599.161h1.988a1.2 1.2 0 0 1 1.037.599l.994 1.721c.331.574 1.063.77 1.636.439.182-.105.333-.257.438-.439l.994-1.721a1.2 1.2 0 0 1 1.038-.599h1.988a1.2 1.2 0 0 0 1.198-1.198c0-.21-.055-.417-.161-.599l-.994-1.722a1.2 1.2 0 0 1 0-1.198l.994-1.722a1.2 1.2 0 0 0-1.037-1.797h-1.988a1.2 1.2 0 0 1-1.038-.599z" fill="url(#M)" class="a"/></g><path d="M318.585 234.569a14.24 14.24 0 1 1 28.54 0v149.995a14.24 14.24 0 1 1-28.54 0z" fill="url(#N)" class="E"/><g class="D"><use xlink:href="#f" fill="#404040" stroke="#737373" class="V"/><use xlink:href="#g" class="B K"/><use xlink:href="#h" class="C H T"/></g><path d="M255.705 345.03l3.062-2.318m.128-3.262l-3.062-2.318m13.982 7.898l-3.062-2.318m-.128-3.262l3.062-2.318" class="C H F"/><g class="D"><use xlink:href="#i" class="C H U"/><use xlink:href="#h" y="-57.19" class="C H T"/></g><path d="M255.705 287.84l3.062-2.318m.128-3.252l-3.062-2.318m13.982 7.888l-3.062-2.318m-.128-3.252l3.062-2.318" class="C H F"/><g class="D"><use xlink:href="#i" y="-57.19" class="C H U"/><use xlink:href="#h" x="-21.1" y="-28.58" class="C H T"/></g><path d="M234.615 316.45l3.062-2.318m.118-3.252l-3.062-2.318m13.992 7.888l-3.062-2.318m-.128-3.252l3.062-2.318" class="C H F"/><use xlink:href="#i" x="-21.09" y="-28.58" class="C D H U"/><g class="E"><use xlink:href="#j" class="Z"/><path d="M198.305 334.173h-10.313V297.61h10.313z" class="S"/><path d="M195.015 334.21h-3.6v-36.6h3.6z" fill="#d8d8d8"/></g><use xlink:href="#k" class="B D G J"/><g class="E"><g class="b"><path d="M521.194 309.96c1.013 29.023-21.676 53.23-50.579 54.24s-53.354-21.792-54.359-50.575 21.792-53.354 50.575-54.359 53.35 21.672 54.364 50.695zm3.958-.138c-1.089-31.197-27.263-55.604-58.46-54.515s-55.604 27.263-54.514 58.46 27.263 55.604 58.459 54.515 55.604-27.263 54.515-58.459z"/><path d="M543.004 309.207c1.296 40.883-30.654 75.146-71.529 76.705-40.883 1.296-75.146-30.654-76.705-71.529-1.296-40.884 30.654-75.146 71.529-76.705 40.883-1.296 75.146 30.654 76.705 71.529zm4.078-.142c-1.475-43.187-37.68-77.001-80.867-75.526s-77.001 37.68-75.526 80.867c1.506 43.119 37.681 76.854 80.801 75.348s76.854-37.681 75.348-80.801z"/></g><g fill="#ff8f28"><use xlink:href="#l"/><use xlink:href="#m"/><use xlink:href="#n"/><use xlink:href="#n" x="-8.032"/><use xlink:href="#o"/><use xlink:href="#p"/><use xlink:href="#q"/></g></g><g class="C b"><path d="M424.13 353.942v.001-.001zm-.077-88.286l-.481-.485-.363-.524-.096.065-16.679-16.676a5.42 5.42 0 0 1-1.42-5.161c2.067-8.161-2.868-16.441-11.022-18.51s-16.442 2.869-18.51 11.017c-.206.812-.344 1.638-.414 2.476a15.21 15.21 0 0 0 .44 5.109c2.122 8.148 10.442 13.021 18.583 10.899.867-.223 1.714-.524 2.528-.904a1.35 1.35 0 0 0 .663-1.795c-.005-.013-.012-.026-.018-.039l-.464-.93a1.35 1.35 0 0 0-1.774-.616c-5.771 2.633-12.588.092-15.227-5.672a11.49 11.49 0 0 1-.868-2.803c-.281-1.598-.218-3.249.185-4.821a11.49 11.49 0 0 1 13.978-8.292c6.148 1.572 9.856 7.834 8.285 13.978-.064.262-.139.511-.221.76a11.24 11.24 0 0 1-1.115 2.45c-.323.537-.454 1.153-.369 1.782.096.694.414 1.336.908 1.834l.76.773 3.747 3.773 14.183 14.213 3.405 3.435 28.313 28.38a4.33 4.33 0 0 1 .17.18c3.39 3.724 5.215 8.612 5.095 13.646a4.39 4.39 0 0 0-.001.227c.088 4.96-1.741 9.763-5.106 13.409a5.27 5.27 0 0 1-.145.151l-46.944 47.101-.976.988c-.88.891-1.035 2.266-.376 3.33.482.779.869 1.614 1.149 2.486a11.49 11.49 0 0 1-7.256 14.538c-6.019 2.011-12.528-1.238-14.538-7.257-.088-.262-.166-.527-.234-.794a11.49 11.49 0 0 1-.185-4.831c1.096-6.25 7.051-10.428 13.301-9.332a11.49 11.49 0 0 1 2.794.869c.664.303 1.449.026 1.775-.626l.462-.926c.335-.669.064-1.483-.605-1.817l-.039-.02c-7.641-3.519-16.689-.176-20.208 7.466a15.26 15.26 0 0 0-.904 2.528 15.23 15.23 0 0 0-.44 5.112c.701 8.384 8.065 14.612 16.449 13.912s14.612-8.065 13.911-16.449a15.23 15.23 0 0 0-.414-2.475 5.42 5.42 0 0 1 1.42-5.161l18.508-18.568 26.246-26.246.136-.14c4.349-4.675 6.711-10.857 6.588-17.242-.001-.079-.001-.156.001-.234a24.93 24.93 0 0 0-6.58-17.485c-.051-.055-.102-.109-.155-.161l-29.01-29.012-.824-.878zm-1.377 5.334l.011.01-.011-.01z"/><path d="M513.401 353.942v.001-.001zm.077-88.286l.481-.485.363-.524.096.065 16.679-16.676a5.42 5.42 0 0 0 1.42-5.161c-2.067-8.161 2.868-16.441 11.022-18.51s16.442 2.869 18.509 11.017c.206.812.344 1.638.414 2.476a15.21 15.21 0 0 1-.44 5.109c-2.122 8.148-10.442 13.021-18.583 10.899-.867-.223-1.714-.524-2.528-.904a1.35 1.35 0 0 1-.663-1.795c.005-.013.012-.026.018-.039l.464-.93a1.35 1.35 0 0 1 1.774-.616c5.771 2.633 12.588.092 15.227-5.672a11.49 11.49 0 0 0 .868-2.803c.281-1.598.218-3.249-.185-4.821a11.49 11.49 0 0 0-13.978-8.292c-6.148 1.572-9.856 7.834-8.284 13.978a9.78 9.78 0 0 0 .221.76 11.24 11.24 0 0 0 1.115 2.45c.324.537.455 1.153.369 1.782-.096.694-.414 1.336-.908 1.834l-.76.773-3.747 3.773-14.183 14.213-3.405 3.435-28.313 28.38c-.058.058-.115.118-.17.18-3.39 3.724-5.215 8.612-5.095 13.646a4.39 4.39 0 0 1 .001.227c-.088 4.96 1.741 9.763 5.106 13.409a5.27 5.27 0 0 0 .145.151l46.944 47.101.976.988c.88.891 1.035 2.266.376 3.33-.482.779-.869 1.614-1.149 2.486a11.49 11.49 0 0 0 7.256 14.538c6.019 2.011 12.528-1.238 14.539-7.257.087-.262.166-.527.234-.794a11.49 11.49 0 0 0 .186-4.831c-1.096-6.25-7.051-10.428-13.301-9.332a11.49 11.49 0 0 0-2.794.869c-.664.303-1.449.026-1.775-.626l-.462-.926c-.335-.669-.064-1.483.605-1.817l.039-.02c7.641-3.519 16.689-.176 20.208 7.466a15.26 15.26 0 0 1 .904 2.528c.434 1.666.583 3.396.44 5.112-.701 8.384-8.065 14.612-16.449 13.912s-14.612-8.065-13.911-16.449a15.22 15.22 0 0 1 .414-2.475 5.42 5.42 0 0 0-1.42-5.161l-18.508-18.568-26.246-26.246-.136-.14c-4.349-4.675-6.711-10.857-6.588-17.242.001-.079.001-.156-.001-.234a24.93 24.93 0 0 1 6.58-17.485c.051-.055.102-.109.155-.161l29.01-29.012.824-.878zm1.377 5.334l-.01.01.01-.01z"/></g><ellipse cx="544.875" cy="384.9" rx="12.18" ry="12" class="B N O"/><g class="F G M"><path d="M551.825 384.72h-13.92"/><path d="M544.865 391.68v-13.92"/></g><ellipse cx="547.305" cy="238.8" rx="12.18" ry="12" class="B N O"/><g class="F G M"><path d="M554.255 238.62h-13.92"/><path d="M547.305 245.58v-13.92"/></g><ellipse cx="393.285" cy="384.9" rx="12.18" ry="12" class="B N O"/><g class="F G M"><path d="M400.235 384.72h-13.92"/><path d="M393.285 391.68v-13.92"/></g><ellipse cx="390.245" cy="238.8" rx="12.18" ry="12" class="B N O"/><g class="G"><g class="F M"><path d="M397.195 238.62h-13.92"/><path d="M390.235 245.58v-13.92"/></g><g class="B D J"><path d="M2182.5 409.08V7.8c0-4.2-3.24-7.68-7.44-7.8h-585.12l-18.72 8.76H708.78L690.06 0h-585c-4.32.12-7.56 3.48-7.56 7.8v401.28h5.64V7.8c-.12-1.2.72-2.04 1.8-2.16h583.92l18.72 8.76h864.84l18.72-8.76h583.92c1.2.12 1.92.96 1.8 2.16v401.28h5.64z"/><use xlink:href="#R" x="-524.09"/></g><g class="I"><path d="M1065.065 397.83v7.92h-382.56v-7.92" class="B D Q"/><path d="M1065.065 26.955v-7.92h-382.56v7.92" class="B D L"/></g></g><g stroke="#666" class="C F"><use xlink:href="#S" x="-524.09"/><use xlink:href="#S" x="-632.37"/></g><g class="D"><use xlink:href="#T" x="-524.09" class="B K"/><path d="M1124.887 49.12c0-12.389-10.043-22.431-22.431-22.431s-22.431 10.042-22.431 22.431 10.043 22.431 22.431 22.431 22.431-10.043 22.431-22.431z" fill="url(#E)" class="Y d"/></g><circle cx="1102.625" cy="48.937" fill="url(#F)" r="14.4" class="B R"/><g fill="url(#G)" class="E"><path d="M1099.772 49.967l1.244-3.4-11.126-4.008a14.22 14.22 0 0 0-1.165 3.099l11.047 4.309z"/><path d="M1104.025 51.547l11.171 3.986c.708-.93 1.108-2.025 1.166-3.193l-11.093-4.195-1.244 3.401z"/></g><path d="M1099.825 49.914l-1.68 4.8c1.2.6 2.88 1.2 4.32 1.56l1.56-4.68 4.2 1.56 1.2-3.36-4.2-1.56 1.68-4.8c-1.905-.434-2.88-1.08-4.08-1.44l-1.8 4.56-4.2-1.56-1.2 3.48 4.2 1.56" fill="url(#H)" class="C R"/><g class="E"><path d="M633.275 141.2h30v142.44h-30z" class="Z"/><path d="M680.155 283.64v-123.6l-16.8-18.72v142.32h16.8z" class="W"/></g><g fill="#bfbfbf" class="C D R"><use xlink:href="#U" x="-524.09"/><use xlink:href="#V" x="-524.09"/><use xlink:href="#W" x="-524.09"/><use xlink:href="#X" x="-524.09"/></g><use xlink:href="#Y" x="-524.09" class="B K"/><path d="M926.03 381.606a10.26 10.26 0 1 0 0-20.566H817.942a10.26 10.26 0 1 0 0 20.566z" fill="url(#I)" class="E"/><use xlink:href="#a" x="1505.63" class="B D G J"/><g class="V"><g stroke="#404040"><path d="M2090.565 341.63a7.53 7.53 0 0 0 7.56 7.56c4.2 0 7.44-3.48 7.44-7.56s-3.36-7.56-7.56-7.56a7.53 7.53 0 0 0-7.56 7.56z" fill="url(#J)"/><path d="M2090.565 261.1a7.53 7.53 0 0 0 7.56 7.56c4.2 0 7.44-3.48 7.44-7.56s-3.36-7.56-7.56-7.56a7.53 7.53 0 0 0-7.56 7.56z" fill="url(#K)"/></g><use xlink:href="#b" x="1505.63" class="F"/></g><g transform="matrix(-1 0 0 -1 2112.698837 386.616332)"><use xlink:href="#c" class="E S"/></g><g transform="matrix(-1 0 0 -1 2097.301969 374.968482)"><use xlink:href="#d" fill="#c1c1c1" class="E"/></g><g class="B D G I"><g class="L"><path d="M2062.945 221.67v-6h52.08v6"/><path d="M1672.505 221.67v-6h215.64v6"/></g><path d="M1672.525 390.48h-6V232.92h6" class="P"/><path d="M1796.305 399.8v6h-101.28v-6" class="L"/></g><use xlink:href="#e" x="1505.63" stroke="#ff8f28" class="F e"/><path d="M1897.505 256.688c-4.32 6-8.91 12.863-11.67 19.822l-.24 68.88c3 8.4 6.48 15 12 21.12a3.6 3.6 0 0 0 3.48 1.56c3.6-.48 7.2 0 10.32 1.44 1.2.6 3 .36 4.08-.72l18.6-18.6a3.6 3.6 0 0 0 .24-4.8c-15.6-19.8-15.6-48 0-67.68a3.6 3.6 0 0 0-.24-4.8l-18.6-18.6a3.6 3.6 0 0 0-4.08-.72c-3.24 1.44-6.84 1.92-10.32 1.44a3.6 3.6 0 0 0-3.48 1.56zm21.45-5.977l18 18a3.6 3.6 0 0 0 4.8.24c19.8-15.6 48-15.6 67.68 0a3.6 3.6 0 0 0 4.8-.24l18-18a3.6 3.6 0 0 0 .48-4.44c-2.16-3.6-3.12-7.8-2.64-12a3.6 3.6 0 0 0-1.56-3.48c-5.64-3.6-11.52-6.72-17.76-9.24l-70.2.12c-6.727 2.361-13.136 5.545-19.08 9.48a3.6 3.6 0 0 0-1.56 3.48c.48 4.2.645 8.025-1.515 11.625a3.6 3.6 0 0 0 .48 4.44zm117.96 3.6l-18.6 18.6a3.6 3.6 0 0 0-.24 4.8c15.6 19.8 15.6 48 0 67.68a3.6 3.6 0 0 0 .24 4.8l18.6 18.6a3.6 3.6 0 0 0 4.08.72 19.07 19.07 0 0 1 10.32-1.44 3.6 3.6 0 0 0 3.48-1.56c4.32-6.24 7.8-12.84 10.56-19.8l-.96-68.88c-3-8.4-6.48-15-12-21.12a3.6 3.6 0 0 0-3.48-1.56c-3.6.48-7.2 0-10.32-1.44-.84-.335-1.34.29-1.59.54zm-115.32 137.76c5.64 3.6 11.52 6.72 17.76 9.24l68.88.36c6.727-2.361 13.135-5.545 19.08-9.48a3.6 3.6 0 0 0 1.56-3.36c-.48-4.08.48-8.4 2.64-12a3.6 3.6 0 0 0-.48-4.44l-18-18a3.6 3.6 0 0 0-4.8-.24c-19.8 15.6-48 15.6-67.68 0a3.6 3.6 0 0 0-4.8.24l-18 18a3.6 3.6 0 0 0-.48 4.44c2.16 3.6 3.12 7.8 2.64 12-.12 1.2.48 2.64 1.56 3.36z" class="B D K"/><g class="C"><path d="M1852.525 384.8a15.01 15.01 0 0 0 15 15 15.01 15.01 0 0 0 15-15 15.01 15.01 0 0 0-15-15 15.01 15.01 0 0 0-15 15z" fill="url(#L)" class="Y"/><path d="M1869.564 380.069l-.994-1.722a1.2 1.2 0 0 0-1.636-.438c-.182.105-.333.256-.438.438l-.994 1.722a1.2 1.2 0 0 1-1.037.599h-1.988a1.2 1.2 0 0 0-1.037 1.797l.994 1.722a1.2 1.2 0 0 1 0 1.198l-.994 1.722c-.331.573-.135 1.305.438 1.636.182.105.389.161.599.161h1.988a1.2 1.2 0 0 1 1.037.599l.994 1.721c.331.574 1.063.77 1.636.439.182-.105.333-.257.438-.439l.994-1.721a1.2 1.2 0 0 1 1.037-.599h1.988a1.2 1.2 0 0 0 1.198-1.198c0-.21-.055-.417-.16-.599l-.994-1.722a1.2 1.2 0 0 1 0-1.198l.994-1.722a1.2 1.2 0 0 0-1.037-1.797h-1.988a1.2 1.2 0 0 1-1.037-.599z" fill="url(#M)" class="a"/></g><path d="M1824.215 234.569a14.24 14.24 0 1 1 28.54 0v149.995a14.24 14.24 0 1 1-28.54 0z" fill="url(#N)" class="E"/><g class="D"><use xlink:href="#f" x="1505.63" fill="#404040" stroke="#737373" class="V"/><use xlink:href="#g" x="1505.63" class="B K"/><use xlink:href="#h" x="1505.63" class="C H T"/></g><path d="M1761.335 345.03l3.062-2.318m.128-3.262l-3.062-2.318m13.982 7.898l-3.062-2.318m-.128-3.262l3.062-2.318" class="C H F"/><g class="D"><use xlink:href="#i" x="1505.63" class="C H U"/><use xlink:href="#h" x="1505.63" y="-57.19" class="C H T"/></g><path d="M1761.335 287.84l3.062-2.318m.128-3.252l-3.062-2.318m13.982 7.888l-3.062-2.318m-.128-3.252l3.062-2.318" class="C H F"/><g class="D"><use xlink:href="#i" x="1505.63" y="-57.19" class="C H U"/><use xlink:href="#h" x="1484.53" y="-28.58" class="C H T"/></g><path d="M1740.245 316.45l3.062-2.318m.118-3.252l-3.062-2.318m13.992 7.888l-3.062-2.318m-.128-3.252l3.062-2.318" class="C H F"/><use xlink:href="#i" x="1484.54" y="-28.58" class="C D H U"/><g class="E"><use xlink:href="#j" x="1505.63" class="Z"/><path d="M1703.935 334.173h-10.313V297.61h10.313z" class="S"/><path d="M1700.645 334.21h-3.6v-36.6h3.6z" fill="#d8d8d8"/></g><use xlink:href="#k" x="1505.63" class="B D G J"/><g class="E"><g class="b"><path d="M2026.824 309.96c1.013 29.023-21.676 53.23-50.579 54.24s-53.354-21.792-54.36-50.575 21.792-53.354 50.575-54.359 53.35 21.672 54.364 50.695zm3.958-.138c-1.09-31.197-27.263-55.604-58.46-54.515s-55.604 27.263-54.514 58.46 27.263 55.604 58.459 54.515 55.604-27.263 54.515-58.459z"/><path d="M2048.634 309.207c1.296 40.883-30.654 75.146-71.529 76.705-40.884 1.296-75.146-30.654-76.705-71.529-1.296-40.884 30.654-75.146 71.529-76.705 40.883-1.296 75.146 30.654 76.705 71.529zm4.078-.142c-1.475-43.187-37.68-77.001-80.867-75.526s-77.001 37.68-75.526 80.867c1.506 43.119 37.681 76.854 80.801 75.348s76.854-37.681 75.348-80.801z"/></g><g fill="#ff8f28"><use xlink:href="#l" x="1505.63"/><use xlink:href="#m" x="1505.63"/><use xlink:href="#n" x="1505.63"/><use xlink:href="#n" x="1497.598"/><use xlink:href="#o" x="1505.63"/><use xlink:href="#p" x="1505.63"/><use xlink:href="#q" x="1505.63"/></g></g><g class="C b"><path d="M1929.76 353.942v.001-.001zm-.077-88.286l-.481-.485-.363-.524-.096.065-16.679-16.676a5.42 5.42 0 0 1-1.42-5.161c2.067-8.161-2.868-16.441-11.022-18.51s-16.442 2.869-18.509 11.017c-.206.812-.345 1.638-.414 2.476a15.21 15.21 0 0 0 .44 5.109c2.122 8.148 10.443 13.021 18.583 10.899.867-.223 1.714-.524 2.528-.904a1.35 1.35 0 0 0 .663-1.795c-.005-.013-.012-.026-.018-.039l-.464-.93a1.35 1.35 0 0 0-1.774-.616c-5.771 2.633-12.588.092-15.227-5.672a11.49 11.49 0 0 1-.868-2.803c-.281-1.598-.218-3.249.186-4.821a11.49 11.49 0 0 1 13.978-8.292c6.148 1.572 9.856 7.834 8.284 13.978-.064.262-.139.511-.221.76a11.24 11.24 0 0 1-1.115 2.45c-.323.537-.454 1.153-.369 1.782.096.694.414 1.336.908 1.834l.76.773 3.747 3.773 14.183 14.213 3.405 3.435 28.313 28.38a4.33 4.33 0 0 1 .17.18c3.39 3.724 5.215 8.612 5.095 13.646a4.39 4.39 0 0 0-.001.227c.088 4.96-1.741 9.763-5.106 13.409a5.27 5.27 0 0 1-.145.151l-46.944 47.101-.976.988c-.88.891-1.035 2.266-.376 3.33.482.779.869 1.614 1.149 2.486a11.49 11.49 0 0 1-7.256 14.538c-6.02 2.011-12.528-1.238-14.539-7.257-.088-.262-.166-.527-.234-.794a11.49 11.49 0 0 1-.186-4.831c1.096-6.25 7.051-10.428 13.301-9.332a11.49 11.49 0 0 1 2.794.869c.664.303 1.449.026 1.775-.626l.462-.926c.335-.669.064-1.483-.605-1.817l-.039-.02c-7.641-3.519-16.689-.176-20.208 7.466a15.26 15.26 0 0 0-.904 2.528 15.23 15.23 0 0 0-.44 5.112c.701 8.384 8.065 14.612 16.449 13.912s14.612-8.065 13.911-16.449a15.23 15.23 0 0 0-.414-2.475 5.42 5.42 0 0 1 1.42-5.161l18.508-18.568 26.246-26.246.136-.14c4.349-4.675 6.711-10.857 6.588-17.242-.001-.079-.001-.156.001-.234a24.93 24.93 0 0 0-6.58-17.485c-.051-.055-.102-.109-.155-.161l-29.01-29.012-.824-.878zm-1.377 5.334l.011.01-.011-.01z"/><path d="M2019.031 353.942v.001-.001zm.077-88.286l.481-.485.363-.524.096.065 16.679-16.676a5.42 5.42 0 0 0 1.42-5.161c-2.067-8.161 2.868-16.441 11.022-18.51s16.442 2.869 18.509 11.017c.206.812.344 1.638.414 2.476a15.21 15.21 0 0 1-.44 5.109c-2.122 8.148-10.443 13.021-18.583 10.899-.867-.223-1.714-.524-2.528-.904a1.35 1.35 0 0 1-.663-1.795c.005-.013.012-.026.018-.039l.464-.93a1.35 1.35 0 0 1 1.774-.616c5.771 2.633 12.588.092 15.227-5.672a11.49 11.49 0 0 0 .868-2.803c.281-1.598.218-3.249-.186-4.821a11.49 11.49 0 0 0-13.978-8.292c-6.148 1.572-9.856 7.834-8.284 13.978a9.78 9.78 0 0 0 .221.76 11.24 11.24 0 0 0 1.115 2.45c.323.537.455 1.153.369 1.782-.096.694-.414 1.336-.908 1.834l-.76.773-3.747 3.773-14.183 14.213-3.405 3.435-28.313 28.38c-.058.058-.115.118-.17.18-3.39 3.724-5.215 8.612-5.095 13.646a4.39 4.39 0 0 1 .001.227c-.088 4.96 1.741 9.763 5.106 13.409a5.27 5.27 0 0 0 .145.151l46.944 47.101.976.988c.88.891 1.035 2.266.376 3.33-.482.779-.869 1.614-1.149 2.486a11.49 11.49 0 0 0 7.256 14.538c6.019 2.011 12.528-1.238 14.539-7.257.088-.262.166-.527.234-.794a11.49 11.49 0 0 0 .186-4.831c-1.096-6.25-7.051-10.428-13.301-9.332a11.49 11.49 0 0 0-2.794.869c-.664.303-1.449.026-1.775-.626l-.462-.926c-.335-.669-.064-1.483.605-1.817l.039-.02c7.641-3.519 16.689-.176 20.208 7.466a15.26 15.26 0 0 1 .904 2.528c.434 1.666.583 3.396.44 5.112-.701 8.384-8.065 14.612-16.449 13.912s-14.612-8.065-13.911-16.449a15.22 15.22 0 0 1 .414-2.475 5.42 5.42 0 0 0-1.42-5.161l-18.508-18.568-26.246-26.246-.136-.14c-4.349-4.675-6.711-10.857-6.588-17.242.001-.079.001-.156-.001-.234a24.93 24.93 0 0 1 6.58-17.485c.051-.055.102-.109.155-.161l29.01-29.012.824-.878zm1.377 5.334l-.011.01.011-.01z"/></g><ellipse cx="2050.505" cy="384.9" rx="12.18" ry="12" class="B N O"/><g class="F G M"><path d="M2057.455 384.72h-13.92"/><path d="M2050.495 391.68v-13.92"/></g><ellipse cx="2052.935" cy="238.8" rx="12.18" ry="12" class="B N O"/><g class="F G M"><path d="M2059.885 238.62h-13.92"/><path d="M2052.935 245.58v-13.92"/></g><ellipse cx="1898.915" cy="384.9" rx="12.18" ry="12" class="B N O"/><g class="F G M"><path d="M1905.865 384.72h-13.92"/><path d="M1898.915 391.68v-13.92"/></g><ellipse cx="1895.875" cy="238.8" rx="12.18" ry="12" class="B N O"/><g class="F G M"><path d="M1902.825 238.62h-13.92"/><path d="M1895.865 245.58v-13.92"/></g><g class="B D a"><ellipse cx="2140.385" cy="91.34" fill="#595959" rx="8.46" ry="8.43"/><use xlink:href="#Z" y="-38.43" fill="#7f7f7f"/><circle cx="2140.285" cy="91.264" r="1.5" class="S"/></g><g class="E K"><use xlink:href="#r"/><use xlink:href="#s"/><path d="M360.278 184.653v9.967h-1.976v-7.615l-2.358.731v-1.606l4.122-1.477h.212z"/><use xlink:href="#s" x="375.922" y="195"/><use xlink:href="#t"/><use xlink:href="#s" x="393.08" y="195"/><use xlink:href="#s" x="900.922" y="195"/><use xlink:href="#t" x="525"/><use xlink:href="#s" x="918.08" y="195"/><use xlink:href="#u"/><use xlink:href="#v"/><use xlink:href="#w"/><use xlink:href="#x"/><use xlink:href="#y"/><use xlink:href="#v" y="-25.007"/><use xlink:href="#z"/><use xlink:href="#AA"/><use xlink:href="#AA" y="-6.739"/><use xlink:href="#x" y="-38.074"/><use xlink:href="#AB"/><use xlink:href="#AC"/><use xlink:href="#u" y="-77.291"/><use xlink:href="#z" y="-45.544"/><use xlink:href="#x" y="-70.143"/><use xlink:href="#AD"/><use xlink:href="#u" x="525"/><use xlink:href="#v" x="525"/><use xlink:href="#w" x="525"/><use xlink:href="#x" x="525"/><use xlink:href="#y" x="525"/><use xlink:href="#v" x="525" y="-25.007"/><use xlink:href="#z" x="525"/><use xlink:href="#AA" x="525"/><use xlink:href="#AA" x="525" y="-6.739"/><use xlink:href="#x" x="525" y="-38.074"/><use xlink:href="#AB" x="525"/><use xlink:href="#AC" x="525"/><use xlink:href="#u" x="525" y="-77.291"/><use xlink:href="#z" x="525" y="-45.544"/><use xlink:href="#x" x="525" y="-70.143"/><use xlink:href="#AD" x="525"/><use xlink:href="#r" x="1570"/><use xlink:href="#s" x="1570"/><path d="M1932.302 193.027v1.593h-6.822v-1.354l3.22-3.432q.663-.725.981-1.265.318-.54.318-1.025 0-.663-.335-1.042-.335-.379-.957-.379-.67 0-1.056.461-.386.461-.386 1.213h-1.982q0-.909.434-1.661.434-.752 1.227-1.179.793-.427 1.798-.427 1.538 0 2.389.738.851.738.851 2.085 0 .738-.383 1.504-.383.766-1.312 1.784l-2.263 2.386h4.279zm173.466-97.157h-3.869v-9.953h3.486q1.812 0 2.748.694.937.694.937 2.034 0 .731-.376 1.289-.376.557-1.046.817.766.191 1.207.772.441.581.441 1.422 0 1.436-.916 2.174-.916.738-2.611.752zm.062-4.334h-1.88v2.687h1.757q.725 0 1.131-.345.407-.345.407-.954 0-1.367-1.415-1.388zm-1.88-3.958v2.509h1.518q1.552-.027 1.552-1.237 0-.677-.393-.974-.393-.297-1.241-.297h-1.436zm12.646 4.976h2.051q-.116 1.606-1.186 2.529-1.07.923-2.82.923-1.914 0-3.011-1.289-1.097-1.289-1.097-3.538v-.608q0-1.436.506-2.529.506-1.094 1.446-1.678.94-.584 2.184-.584 1.723 0 2.775.923 1.053.923 1.217 2.591h-2.051q-.075-.964-.537-1.398-.461-.434-1.405-.434-1.025 0-1.535.735-.509.735-.523 2.28v.752q0 1.613.489 2.358.489.745 1.542.745.95 0 1.418-.434.468-.434.537-1.343zm11.492-6.637v9.953h-2.051l-3.992-6.549v6.549h-2.051v-9.953h2.051l3.999 6.563v-6.562h2.044z"/><use xlink:href="#s" x="1755.922" y="-60"/><use xlink:href="#t" x="1380" y="-255"/><use xlink:href="#s" x="1773.08" y="-60"/></g><path d="M114.765 403.5h-11.64v-43.2h11.64" class="B D G I P"/></symbol></svg>