<svg xmlns="http://www.w3.org/2000/svg" xmlns:xlink="http://www.w3.org/1999/xlink" viewBox="0 0 2281.2 206.1" fill="#fff" fill-rule="evenodd" stroke="#000" stroke-linecap="round" stroke-linejoin="round" font-family="Roboto" font-size="14" text-anchor="middle"><style><![CDATA[.B{fill:url(#H)}.C{fill:url(#I)}.D{stroke:none}.E{stroke-width:.36}.F{fill:#333}.G{stroke:#bfbfbf}.H{fill:#856427}.I{stroke:gray}.J{fill:#000}.K{stroke-width:.399}.L{stroke:#404040}.M{fill:url(#G)}.N{stroke-width:1.996}.O{fill:#404040}.P{fill:#3c2d11}.Q{stroke-linejoin:miter}.R{stroke-width:1.199}]]></style><use xlink:href="#h" x=".6" y=".5"/><defs><linearGradient id="A" x1="50%" y1="0%" x2="50%" y2="100%"><stop offset="0%" stop-color="#7f7f7f"/><stop offset="100%" stop-color="#d1d3d0"/></linearGradient><linearGradient id="B" x1="0%" y1="50%" x2="100%" y2="50%"><stop offset="0%" stop-color="#7f7f7f"/><stop offset="100%" stop-color="#d1d3d0"/></linearGradient><linearGradient id="C" x1="100%" y1="50%" x2="0%" y2="50%"><stop offset="0%" stop-color="#7f7f7f"/><stop offset="100%" stop-color="#d1d3d0"/></linearGradient><linearGradient id="D" x1="50%" y1="100%" x2="50%" y2="0%"><stop offset="0%" stop-color="#7f7f7f"/><stop offset="100%" stop-color="#d1d3d0"/></linearGradient><radialGradient id="E" r="100%" fx="50%" fy="50%" cx="50%" cy="50%"><stop offset="0%" stop-color="gray"/><stop offset="71%" stop-color="#262626"/></radialGradient><linearGradient id="F" x1="50%" y1="0%" x2="50%" y2="100%"><stop offset="0%" stop-color="#a6a6a6"/><stop offset="1%" stop-color="#a6a6a6"/><stop offset="50%" stop-color="#f2f2f2"/><stop offset="100%" stop-color="#a6a6a6"/></linearGradient><linearGradient id="G" x1="50%" y1="0%" x2="50%" y2="100%"><stop offset="0%" stop-color="#a5a5a5"/><stop offset="1%" stop-color="#a5a5a5"/><stop offset="50%" stop-color="#bdbdbd"/><stop offset="100%" stop-color="#a5a5a5"/></linearGradient><linearGradient id="H" x1="50%" y1="0%" x2="50%" y2="100%"><stop offset="0%" stop-color="#99732d"/><stop offset="1%" stop-color="#99732d"/><stop offset="50%" stop-color="#6b511f"/><stop offset="100%" stop-color="#99732d"/></linearGradient><linearGradient id="I" x1="50%" y1="0%" x2="50%" y2="100%"><stop offset="0%" stop-color="#3c2d11"/><stop offset="1%" stop-color="#3c2d11"/><stop offset="50%" stop-color="#765923"/><stop offset="100%" stop-color="#3c2d11"/></linearGradient><path id="J" d="M434.09 142.315v-8.4h10.8v-34.8h-60v34.8h11.16v8.4h6.36v7.68h25.2v-7.68h6.48zm0-101.579v8.4h10.8v34.8h-60v-34.8h11.16v-8.4h6.36v-7.68h25.2v7.68h6.48z"/><path id="K" d="M432.01 99.385h3.6v7.2h-3.6zm-5.5.158h3.5v7.042h-3.5zm-5.5 0h3.5v7.042h-3.5zm-5.5 0h3.5v7.042h-3.5zm-11 0h3.5v7.042h-3.5zm5.5 0h3.5v7.042h-3.5zm-11 0h3.5v7.042h-3.5zm-5.5 0h3.5v7.042h-3.5zm38.5-15.873h3.6v-7.2h-3.6zm-5.5-.158h3.5V76.47h-3.5zm-5.5 0h3.5V76.47h-3.5zm-5.5 0h3.5V76.47h-3.5zm-11 0h3.5V76.47h-3.5zm5.5 0h3.5V76.47h-3.5zm-11 0h3.5V76.47h-3.5zm-5.5 0h3.5V76.47h-3.5z"/><path id="L" d="M67.125 74.176v42.719a2.4 2.4 0 0 1-.702 1.697c-.449.45-1.059.703-1.695.703H2.397c-.636 0-1.246-.253-1.695-.703A2.4 2.4 0 0 1 0 116.896V74.176h67.125zm.075-29.057V2.4a2.4 2.4 0 0 0-.702-1.697C66.048.253 65.439 0 64.803 0H2.472C1.836 0 1.227.253.777.703A2.4 2.4 0 0 0 .075 2.4v42.719H67.2z"/><path id="M" d="M25.01 73.235h16.781c2.397.12 3.956 2.16 3.596 4.32l-23.973.48c0-2.4 1.558-4.2 3.596-4.8zm.075-27.175h16.781c2.397-.12 3.956-2.16 3.596-4.32l-23.973-.48c0 2.4 1.558 4.2 3.596 4.8z"/><path id="N" d="M0 0h44.708v16.937H0z"/><path id="O" d="M1.486 5.653H43.2v5.64H1.486z"/><path id="P" d="M19.915 64.161h10.189l-5.034-9-5.154 9zm17.168-9.024h10.189l-5.034 9-5.154-9z"/><path id="Q" d="M204.065 161.091v8.543h-1.693v-6.527l-2.021.627v-1.377l3.533-1.266h.182z"/><path id="R" d="M240.247 168.269v1.365h-5.848v-1.16l2.76-2.941q.568-.621.841-1.084.272-.463.272-.879 0-.568-.287-.894-.287-.325-.82-.325-.574 0-.905.396-.331.396-.331 1.04h-1.699q0-.779.372-1.424.372-.645 1.052-1.011.68-.366 1.541-.366 1.318 0 2.048.633.729.633.729 1.787 0 .633-.328 1.289-.328.656-1.125 1.529l-1.939 2.045h3.668z"/><path id="S" d="M266.987 165.943v-1.324h.902q.645 0 .955-.322.311-.322.311-.855 0-.516-.308-.803-.308-.287-.847-.287-.486 0-.814.267-.328.267-.328.694h-1.693q0-.668.36-1.198.36-.53 1.008-.829.647-.299 1.427-.299 1.354 0 2.121.647.768.647.768 1.784 0 .586-.357 1.078-.357.492-.937.756.721.258 1.075.773.354.516.354 1.219 0 1.137-.829 1.822-.829.686-2.194.686-1.277 0-2.089-.674-.812-.674-.812-1.781h1.693q0 .48.36.785.36.305.888.305.604 0 .946-.319.343-.319.343-.847 0-1.277-1.406-1.277h-.896z"/><path id="T" d="M304.722 161.103v5.32h.967v1.365h-.967v1.846h-1.693v-1.846h-3.498l-.076-1.066 3.557-5.619h1.711zm-1.805 2.502l-1.775 2.818h1.887v-3.012l-.111.193z"/><path id="U" d="M332.176 165.773l-1.348-.334.492-4.336h4.781v1.412h-3.393l-.211 1.834q.604-.322 1.283-.322 1.219 0 1.91.756.691.756.691 2.115 0 .826-.349 1.479-.349.653-.999 1.014-.65.36-1.535.36-.773 0-1.436-.313-.662-.313-1.046-.882-.384-.568-.407-1.295h1.676q.053.533.372.829.319.296.835.296.574 0 .885-.413.311-.413.311-1.169 0-.727-.357-1.113-.357-.387-1.014-.387-.604 0-.979.316l-.164.152z"/><path id="V" d="M369.337 161.015h.281v1.395h-.164q-1.148.018-1.849.598-.7.58-.841 1.611.68-.691 1.717-.691 1.113 0 1.77.797.656.797.656 2.098 0 .832-.36 1.506-.36.674-1.02 1.049-.659.375-1.491.375-1.348 0-2.177-.937-.829-.937-.829-2.502v-.609q0-1.389.524-2.452.524-1.063 1.506-1.646.981-.583 2.276-.589zm-1.371 4.271q-.41 0-.744.214-.334.214-.492.565v.516q0 .85.334 1.327.334.478.938.478.545 0 .882-.431.337-.431.337-1.116 0-.697-.34-1.125-.34-.428-.914-.428z"/><path id="W" d="M401.689 161.103v.949l-3.299 7.582h-1.787l3.305-7.16h-4.242v-1.371h6.023z"/><path id="X" d="M435.897 163.371q0 .621-.311 1.102-.311.48-.855.768.621.299.984.823.363.524.363 1.233 0 1.137-.773 1.796-.773.659-2.104.659-1.33 0-2.109-.662-.779-.662-.779-1.793 0-.709.363-1.236.363-.527.979-.82-.545-.287-.853-.768-.308-.48-.308-1.102 0-1.09.727-1.737.727-.647 1.975-.647 1.242 0 1.972.642.729.642.729 1.743zm-1.518 3.803q0-.557-.322-.891-.322-.334-.867-.334-.539 0-.861.331-.322.331-.322.894 0 .545.316.879.316.334.879.334.551 0 .864-.322.313-.322.313-.891zm-.176-3.721q0-.498-.264-.8-.264-.302-.744-.302-.475 0-.738.293-.264.293-.264.809 0 .51.264.82.264.311.744.311.48 0 .741-.311.261-.311.261-.82z"/><path id="Y" d="M465.162 166.224q-.662.65-1.547.65-1.131 0-1.811-.776-.68-.776-.68-2.095 0-.838.366-1.538.366-.7 1.022-1.09.656-.39 1.477-.39.844 0 1.5.422.656.422 1.02 1.213.363.791.369 1.811v.627q0 2.133-1.061 3.352-1.061 1.219-3.006 1.301l-.416.006v-1.412l.375-.006q2.209-.1 2.391-2.074zm-1.131-.645q.41 0 .706-.211.296-.211.448-.51v-.697q0-.861-.328-1.336-.328-.475-.879-.475-.51 0-.838.466-.328.466-.328 1.169 0 .697.319 1.146.319.448.899.448z"/><path id="Z" d="M508.276 164.537v1.57q0 1.77-.732 2.707-.732.938-2.145.938-1.395 0-2.133-.92-.738-.92-.756-2.637v-1.57q0-1.787.741-2.713.741-.926 2.136-.926 1.395 0 2.133.917.738.917.756 2.634zm-1.693 1.875v-2.027q0-1.061-.29-1.544-.29-.483-.905-.483-.598 0-.882.46-.284.46-.302 1.438v2.074q0 1.043.284 1.55.284.507.911.507.621 0 .896-.486.275-.486.287-1.488z"/><path id="a" d="M1906.25 188.699h1.319q-.185 1.579-1.166 2.437-.981.858-2.608.858-1.764 0-2.827-1.265-1.063-1.265-1.063-3.384v-.957q0-1.388.496-2.44.496-1.053 1.405-1.617.909-.564 2.105-.564 1.586 0 2.543.885.957.885 1.114 2.451h-1.319q-.171-1.189-.742-1.723-.571-.533-1.596-.533-1.258 0-1.972.93-.714.93-.714 2.646v.964q0 1.62.677 2.577.677.957 1.894.957 1.094 0 1.678-.496.584-.496.776-1.726z"/><path id="b" d="M1916.1 187.42q-1.688-.485-2.458-1.193-.769-.708-.769-1.747 0-1.176.94-1.945.94-.769 2.444-.769 1.025 0 1.829.396.803.396 1.244 1.094.441.697.441 1.524h-1.319q0-.902-.574-1.418-.574-.516-1.62-.516-.971 0-1.514.427-.543.427-.543 1.186 0 .608.516 1.029.516.42 1.757.769 1.241.349 1.941.769.701.42 1.039.981.338.561.338 1.319 0 1.21-.943 1.938-.943.728-2.522.728-1.025 0-1.914-.393-.889-.393-1.371-1.077-.482-.684-.482-1.552h1.319q0 .902.667 1.425.667.523 1.781.523 1.039 0 1.593-.424.554-.424.554-1.155 0-.731-.513-1.131-.513-.4-1.859-.79z"/><path id="c" d="M1951.326 181.904v9.953h-1.319l-5.011-7.67v7.67h-1.319v-9.953h1.319l5.024 7.704v-7.704h1.306z"/><path id="d" d="M1962.461 181.904l2.399 3.814 2.386-3.814h1.545l-3.145 4.936 3.22 5.018h-1.559l-2.447-3.883-2.461 3.883h-1.552l3.227-5.018-3.151-4.936h1.538z"/><path id="e" d="M2005.74 187.482q-.396.472-.947.759-.55.287-1.207.287-.861 0-1.5-.424-.639-.424-.988-1.193-.349-.769-.349-1.699 0-.998.379-1.798.379-.8 1.077-1.224.697-.424 1.627-.424 1.477 0 2.328 1.104.851 1.104.851 3.011v.369q0 2.905-1.148 4.242-1.148 1.336-3.466 1.371h-.246v-1.066h.267q1.565-.027 2.406-.817.841-.79.916-2.499zm-1.948 0q.636 0 1.172-.39.537-.39.783-.964v-.506q0-1.244-.54-2.023-.54-.779-1.367-.779-.834 0-1.34.639-.506.639-.506 1.685 0 1.019.489 1.678.489.66 1.309.66z"/><path id="f" d="M151.167 36.428v7.109h-1.465l-2.852-4.678v4.678h-1.465v-7.109h1.465l2.856 4.688v-4.687h1.46z"/><path id="g" d="M136.938 64.672q0-.415-.293-.637-.293-.222-1.055-.469-.762-.247-1.206-.486-1.211-.654-1.211-1.763 0-.576.325-1.028.325-.452.933-.706.608-.254 1.365-.254.762 0 1.357.276.596.276.925.779.33.503.33 1.143h-1.465q0-.488-.308-.759-.308-.271-.864-.271-.537 0-.835.227-.298.227-.298.598 0 .347.349.581.349.234 1.028.439 1.25.376 1.821.933.571.557.571 1.387 0 .923-.698 1.448-.698.525-1.88.525-.82 0-1.494-.3-.674-.3-1.028-.823-.354-.522-.354-1.211h1.47q0 1.177 1.406 1.177.522 0 .815-.212.293-.212.293-.593z"/></defs><symbol id="h" overflow="visible"><g class="Q"><path d="M2236.08 187.565h-8.88c-6.48 0-11.76-5.16-12-11.52s5.28-11.64 11.76-11.64h22.8c6.6 0 12 5.16 12 11.52s-5.16 11.64-11.76 11.64h-13.8zm0-73.44h-8.88c-6.48 0-11.76-5.16-12-11.52s5.28-11.64 11.76-11.64h22.8c6.6 0 12 5.16 12 11.52s-5.16 11.64-11.76 11.64h-13.8zm0-73.44h-8.88c-6.48 0-11.76-5.16-12-11.52s5.28-11.64 11.76-11.64h22.8c6.6 0 12 5.16 12 11.52s-5.16 11.64-11.76 11.64h-13.8zM39.24 187.565h-8.88c-6.48 0-12-5.16-12-11.52s5.4-11.52 11.88-11.52h22.8c6.48 0 12 5.16 12 11.52s-5.28 11.64-11.76 11.64H39.24zm0-73.44h-8.88c-6.48 0-12-5.16-12-11.52s5.28-11.64 11.76-11.64h22.8c6.48 0 12 5.16 12 11.52s-5.4 11.64-11.88 11.64h-13.8zm0-73.44h-8.88c-6.48 0-12-5.16-12-11.52s5.28-11.64 11.76-11.64h22.8c6.48 0 12 5.16 12 11.52s-5.28 11.64-11.76 11.64H39.24zM24 204.125h2232c12 0 24-5.16 24-11.64v-180c0-6.36-12-11.64-24-11.64H24c-13.2 0-24 5.16-24 11.64v180c0 6.48 12 11.64 24 11.64z" fill="#a6a6a6" stroke-width="1.2"/><path d="M128.16 203.945h2025.12c3.96 0 7.32-3.36 7.32-7.44v-189a7.48 7.48 0 0 0-7.44-7.44h-2025c-4.2-.12-7.56 3.24-7.56 7.44v189c0 4.08 3.36 7.44 7.56 7.44z" fill="#d1d3d0" class="E I"/></g><path d="M2152.83 7.44V0H128.07v7.44" fill="url(#A)" class="E I"/><path d="M128.1 7.475h-7.44v188.88h7.44" fill="url(#B)" class="E I"/><path d="M2153.1 7.475h7.44v188.88h-7.44" fill="url(#C)" class="E I"/><path d="M2152.83 196.445v7.44H128.07v-7.44" fill="url(#D)" class="E I"/><path d="M2032.3 27.835h97.56v127.44h-97.56z" class="D J"/><g class="Q"><g fill="url(#E)" class="I K"><path d="M166.98 40.411c0-3.653-2.961-6.615-6.615-6.615s-6.615 2.961-6.615 6.615 2.962 6.615 6.615 6.615 6.615-2.962 6.615-6.615z"/><path d="M166.98 62.911c0-3.653-2.961-6.615-6.615-6.615s-6.615 2.961-6.615 6.615 2.962 6.615 6.615 6.615 6.615-2.962 6.615-6.615z"/><path d="M166.98 86.284c0-3.653-2.961-6.615-6.615-6.615s-6.615 2.961-6.615 6.615 2.962 6.615 6.615 6.615 6.615-2.962 6.615-6.615z"/></g><path d="M1884.896 153.875h131.84a2.4 2.4 0 0 0 2.397-2.396V31.805a2.4 2.4 0 0 0-2.397-2.396h-131.84c-1.323 0-2.396 1.073-2.396 2.396v119.674c0 1.323 1.073 2.396 2.396 2.396z" fill="url(#F)" stroke="#595959" class="K"/><path d="M166.98 107.91c0-3.653-2.961-6.615-6.615-6.615s-6.615 2.961-6.615 6.615 2.962 6.615 6.615 6.615 6.615-2.962 6.615-6.615z" fill="url(#E)" class="I K"/></g><path d="M0 119.786h404.279V0H0v119.786z" transform="translate(180 31.739)" class="L M N"/><use xlink:href="#J" class="E F G"/><use xlink:href="#K" class="D H"/><use xlink:href="#J" x="-65.4" class="E F G"/><use xlink:href="#K" x="-65.4" class="D H"/><use xlink:href="#J" x="-130.81" class="E F G"/><use xlink:href="#K" x="-130.81" class="D H"/><use xlink:href="#J" x="130.86" class="E F G"/><use xlink:href="#K" x="130.86" class="D H"/><use xlink:href="#J" x="65.46" class="E F G"/><use xlink:href="#K" x="65.46" class="D H"/><use xlink:href="#J" x="-196.21" class="E F G"/><use xlink:href="#K" x="-196.21" class="D H"/><path d="M0 119.786h404.279V0H0v119.786z" transform="translate(606.25 31.739)" class="L M N"/><use xlink:href="#J" x="426.25" class="E F G"/><use xlink:href="#K" x="426.25" class="D H"/><use xlink:href="#J" x="360.85" class="E F G"/><use xlink:href="#K" x="360.85" class="D H"/><use xlink:href="#J" x="295.44" class="E F G"/><use xlink:href="#K" x="295.44" class="D H"/><use xlink:href="#J" x="557.11" class="E F G"/><use xlink:href="#K" x="557.11" class="D H"/><use xlink:href="#J" x="491.71" class="E F G"/><use xlink:href="#K" x="491.71" class="D H"/><use xlink:href="#J" x="230.04" class="E F G"/><use xlink:href="#K" x="230.04" class="D H"/><path d="M0 119.786h404.279V0H0v119.786z" transform="translate(1032.5 31.739)" class="L M N"/><use xlink:href="#J" x="852.5" class="E F G"/><use xlink:href="#K" x="852.5" class="D H"/><use xlink:href="#J" x="787.1" class="E F G"/><use xlink:href="#K" x="787.1" class="D H"/><use xlink:href="#J" x="721.69" class="E F G"/><use xlink:href="#K" x="721.69" class="D H"/><use xlink:href="#J" x="983.36" class="E F G"/><use xlink:href="#K" x="983.36" class="D H"/><use xlink:href="#J" x="917.96" class="E F G"/><use xlink:href="#K" x="917.96" class="D H"/><use xlink:href="#J" x="656.29" class="E F G"/><use xlink:href="#K" x="656.29" class="D H"/><path d="M0 119.786h404.279V0H0v119.786z" transform="translate(1458.8 31.739)" class="L M N"/><use xlink:href="#J" x="1278.8" class="E F G"/><use xlink:href="#K" x="1278.8" class="D H"/><use xlink:href="#J" x="1213.4" class="E F G"/><use xlink:href="#K" x="1213.4" class="D H"/><use xlink:href="#J" x="1147.99" class="E F G"/><path d="M1580 99.385h3.6v7.2h-3.6zm-5.5.158h3.5v7.042h-3.5zm-5.5 0h3.5v7.042h-3.5zm-5.5 0h3.5v7.042h-3.5zm-11 0h3.5v7.042h-3.5zm5.5 0h3.5v7.042h-3.5zm-11 0h3.5v7.042h-3.5zm-5.5 0h3.5v7.042h-3.5zM1580 83.67h3.6v-7.2h-3.6zm-5.5-.158h3.5V76.47h-3.5zm-5.5 0h3.5V76.47h-3.5zm-5.5 0h3.5V76.47h-3.5zm-11 0h3.5V76.47h-3.5zm5.5 0h3.5V76.47h-3.5zm-11 0h3.5V76.47h-3.5zm-5.5 0h3.5V76.47h-3.5z" class="D H"/><use xlink:href="#J" x="1409.66" class="E F G"/><use xlink:href="#K" x="1409.66" class="D H"/><use xlink:href="#J" x="1344.26" class="E F G"/><use xlink:href="#K" x="1344.26" class="D H"/><use xlink:href="#J" x="1082.59" class="E F G"/><g class="D"><use xlink:href="#K" x="1082.59" class="H"/><path d="M2019.32 110.215l-.48 38.4a2.4 2.4 0 0 1-2.4 2.4l-129.84-.84a2.4 2.4 0 0 1-2.4-2.4v-37.56a2.4 2.4 0 0 1 2.4-2.4h19.44c1.68-2.52 2.4-3.24 3.36-3.24h19.8c1.44 2.4 2.16 3.24 3 3.24h40.56c1.56-2.4 2.4-3.24 3.24-3.24h19.8c1.56 2.4 2.4 3.24 3.24 3.24h18a2.4 2.4 0 0 1 2.4 2.4zm0-35.024l-.48-38.4a2.4 2.4 0 0 0-2.4-2.4l-129.84.84a2.4 2.4 0 0 0-2.4 2.4v37.56a2.4 2.4 0 0 0 2.4 2.4h19.44c1.68 2.52 2.4 3.24 3.36 3.24h19.8c1.44-2.4 2.16-3.24 3-3.24h40.56c1.56 2.4 2.4 3.24 3.24 3.24h19.8c1.56-2.4 2.4-3.24 3.24-3.24h18a2.4 2.4 0 0 0 2.4-2.4z" class="J"/></g><g transform="translate(1884.5 32.169)"><g class="R"><use xlink:href="#L" fill="#151515" stroke="#8c8c8c"/><use xlink:href="#M" fill="#c1c5cb" stroke="#737373"/></g><g transform="translate(11.175 77.001)" class="D"><use xlink:href="#N" class="O"/><use xlink:href="#O" class="P"/><path d="M0 0h1.55v16.526H0z" transform="translate(8.528 .26)" class="B"/><path d="M8.528 5.906h1.55v5.255h-1.55z" class="C"/><path d="M0 0h1.55v16.526H0z" transform="translate(15.982 .26)" class="B"/><path d="M15.982 5.906h1.55v5.255h-1.55z" class="C"/><path d="M0 0h1.55v16.526H0z" transform="translate(12.261 .26)" class="B"/><path d="M12.261 5.906h1.55v5.255h-1.55z" class="C"/><path d="M0 0h1.55v16.526H0z" transform="translate(19.716 .26)" class="B"/><path d="M19.716 5.906h1.55v5.255h-1.55z" class="C"/><path d="M0 0h1.55v16.526H0z" transform="translate(23.436 .26)" class="B"/><path d="M23.436 5.906h1.55v5.255h-1.55z" class="C"/><path d="M0 0h1.55v16.526H0z" transform="translate(27.17 .26)" class="B"/><path d="M27.17 5.906h1.55v5.255h-1.55z" class="C"/><path d="M0 0h1.55v16.526H0z" transform="translate(30.903 .26)" class="B"/><path d="M30.903 5.906h1.55v5.255h-1.55z" class="C"/><path d="M0 0h1.55v16.526H0z" transform="translate(34.624 .26)" class="B"/><path d="M34.624 5.906h1.55v5.255h-1.55z" class="C"/><path d="M0 0h1.55v16.526H0z" transform="translate(38.357 .26)" class="B"/><path d="M38.357 5.906h1.55v5.255h-1.55z" class="C"/><path d="M0 0h1.55v16.526H0z" transform="translate(4.807 .26)" class="B"/><path d="M4.807 5.906h1.55v5.255h-1.55z" class="C"/></g><g transform="translate(11.25 25.358)" class="D"><use xlink:href="#N" class="O"/><use xlink:href="#O" class="P"/><path d="M0 0h1.55v16.526H0z" transform="translate(8.528 .26)" class="B"/><path d="M8.528 5.906h1.55v5.255h-1.55z" class="C"/><path d="M0 0h1.55v16.526H0z" transform="translate(15.982 .26)" class="B"/><path d="M15.982 5.906h1.55v5.255h-1.55z" class="C"/><path d="M0 0h1.55v16.526H0z" transform="translate(12.261 .26)" class="B"/><path d="M12.261 5.906h1.55v5.255h-1.55z" class="C"/><path d="M0 0h1.55v16.526H0z" transform="translate(19.716 .26)" class="B"/><path d="M19.716 5.906h1.55v5.255h-1.55z" class="C"/><path d="M0 0h1.55v16.526H0z" transform="translate(23.436 .26)" class="B"/><path d="M23.436 5.906h1.55v5.255h-1.55z" class="C"/><path d="M0 0h1.55v16.526H0z" transform="translate(27.17 .26)" class="B"/><path d="M27.17 5.906h1.55v5.255h-1.55z" class="C"/><path d="M0 0h1.55v16.526H0z" transform="translate(30.903 .26)" class="B"/><path d="M30.903 5.906h1.55v5.255h-1.55z" class="C"/><path d="M0 0h1.55v16.526H0z" transform="translate(34.624 .26)" class="B"/><path d="M34.624 5.906h1.55v5.255h-1.55z" class="C"/><path d="M0 0h1.55v16.526H0z" transform="translate(38.357 .26)" class="B"/><path d="M38.357 5.906h1.55v5.255h-1.55z" class="C"/><path d="M0 0h1.55v16.526H0z" transform="translate(4.807 .26)" class="B"/><path d="M4.807 5.906h1.55v5.255h-1.55z" class="C"/></g><use xlink:href="#P" class="D J"/></g><g transform="translate(1951.6 32.169)"><g class="R"><use xlink:href="#L" fill="#151515" stroke="#8c8c8c"/><use xlink:href="#M" fill="#c1c5cb" stroke="#737373"/></g><g transform="translate(11.175 77.001)" class="D"><use xlink:href="#N" class="O"/><use xlink:href="#O" class="P"/><path d="M0 0h1.55v16.526H0z" transform="translate(8.528 .26)" class="B"/><path d="M8.528 5.906h1.55v5.255h-1.55z" class="C"/><path d="M0 0h1.55v16.526H0z" transform="translate(15.982 .26)" class="B"/><path d="M15.982 5.906h1.55v5.255h-1.55z" class="C"/><path d="M0 0h1.55v16.526H0z" transform="translate(12.261 .26)" class="B"/><path d="M12.261 5.906h1.55v5.255h-1.55z" class="C"/><path d="M0 0h1.55v16.526H0z" transform="translate(19.716 .26)" class="B"/><path d="M19.716 5.906h1.55v5.255h-1.55z" class="C"/><path d="M0 0h1.55v16.526H0z" transform="translate(23.436 .26)" class="B"/><path d="M23.436 5.906h1.55v5.255h-1.55z" class="C"/><path d="M0 0h1.55v16.526H0z" transform="translate(27.17 .26)" class="B"/><path d="M27.17 5.906h1.55v5.255h-1.55z" class="C"/><path d="M0 0h1.55v16.526H0z" transform="translate(30.903 .26)" class="B"/><path d="M30.903 5.906h1.55v5.255h-1.55z" class="C"/><path d="M0 0h1.55v16.526H0z" transform="translate(34.624 .26)" class="B"/><path d="M34.624 5.906h1.55v5.255h-1.55z" class="C"/><path d="M0 0h1.55v16.526H0z" transform="translate(38.357 .26)" class="B"/><path d="M38.357 5.906h1.55v5.255h-1.55z" class="C"/><path d="M0 0h1.55v16.526H0z" transform="translate(4.807 .26)" class="B"/><path d="M4.807 5.906h1.55v5.255h-1.55z" class="C"/></g><g transform="translate(11.25 25.358)" class="D"><use xlink:href="#N" class="O"/><use xlink:href="#O" class="P"/><path d="M0 0h1.55v16.526H0z" transform="translate(8.528 .26)" class="B"/><path d="M8.528 5.906h1.55v5.255h-1.55z" class="C"/><path d="M0 0h1.55v16.526H0z" transform="translate(15.982 .26)" class="B"/><path d="M15.982 5.906h1.55v5.255h-1.55z" class="C"/><path d="M0 0h1.55v16.526H0z" transform="translate(12.261 .26)" class="B"/><path d="M12.261 5.906h1.55v5.255h-1.55z" class="C"/><path d="M0 0h1.55v16.526H0z" transform="translate(19.716 .26)" class="B"/><path d="M19.716 5.906h1.55v5.255h-1.55z" class="C"/><path d="M0 0h1.55v16.526H0z" transform="translate(23.436 .26)" class="B"/><path d="M23.436 5.906h1.55v5.255h-1.55z" class="C"/><path d="M0 0h1.55v16.526H0z" transform="translate(27.17 .26)" class="B"/><path d="M27.17 5.906h1.55v5.255h-1.55z" class="C"/><path d="M0 0h1.55v16.526H0z" transform="translate(30.903 .26)" class="B"/><path d="M30.903 5.906h1.55v5.255h-1.55z" class="C"/><path d="M0 0h1.55v16.526H0z" transform="translate(34.624 .26)" class="B"/><path d="M34.624 5.906h1.55v5.255h-1.55z" class="C"/><path d="M0 0h1.55v16.526H0z" transform="translate(38.357 .26)" class="B"/><path d="M38.357 5.906h1.55v5.255h-1.55z" class="C"/><path d="M0 0h1.55v16.526H0z" transform="translate(4.807 .26)" class="B"/><path d="M4.807 5.906h1.55v5.255h-1.55z" class="C"/></g><use xlink:href="#P" class="D J"/></g><path d="M2036.696 153.515h88.733c1.373 0 2.371-1.075 2.371-2.4v-120c0-1.325-.998-2.4-2.371-2.4h-88.733c-1.373 0-2.496 1.075-2.496 2.4v120c0 1.325 1.123 2.4 2.496 2.4z" fill="#595959" class="K L Q"/><path d="M2036.197 32.699v37.619a2.43 2.43 0 0 0 2.371 2.4h84.864c1.373 0 2.371-1.075 2.371-2.4V32.699c0-1.325-.998-2.4-2.371-2.4h-84.864a2.43 2.43 0 0 0-2.371 2.4zm0 79.336v37.617a2.43 2.43 0 0 0 2.371 2.4h84.864c1.373 0 2.371-1.075 2.371-2.4v-37.617c0-1.325-.998-2.4-2.371-2.4h-84.864a2.43 2.43 0 0 0-2.371 2.4z" fill="#262626" stroke-width="1.198"/><g class="D"><path d="M2034.699 75.065h92.664v31.05h-92.664z" fill="#d9d9d9"/><path d="M2095.477 96.477h5.866c1.123-.247 1.872-1.45 1.747-2.687-.25-.904-.874-1.61-1.747-1.791h-5.866c-1.248.247-1.997 1.45-1.747 2.687.125.904.873 1.61 1.747 1.791zm-11.606 0h5.865c1.248-.247 1.997-1.45 1.747-2.687-.125-.904-.873-1.61-1.747-1.791h-5.865c-1.123.247-1.997 1.45-1.747 2.687.25.904.874 1.61 1.747 1.791zm-11.607 0h5.99c1.123-.247 1.872-1.45 1.623-2.687-.125-.904-.749-1.61-1.623-1.791h-5.99c-1.123.247-1.872 1.45-1.622 2.687.125.904.749 1.61 1.622 1.791zm-11.482 0h5.865c1.248-.247 1.997-1.45 1.747-2.687-.25-.904-.873-1.61-1.747-1.791h-5.865c-1.248.247-1.997 1.45-1.747 2.687.125.904.874 1.61 1.747 1.791zm34.694-7.293h5.866c1.123-.247 1.872-1.45 1.747-2.687-.25-.904-.874-1.61-1.747-1.791h-5.866c-1.248.247-1.997 1.45-1.747 2.687.125.904.873 1.61 1.747 1.791zm-11.606 0h5.865c1.248-.247 1.997-1.45 1.747-2.687-.125-.904-.873-1.61-1.747-1.791h-5.865c-1.123.247-1.997 1.45-1.747 2.687.25.904.874 1.61 1.747 1.791zm-11.607 0h5.99c1.123-.247 1.872-1.45 1.623-2.687-.125-.904-.749-1.61-1.623-1.791h-5.99c-1.123.247-1.872 1.45-1.622 2.687.125.904.749 1.61 1.622 1.791zm-11.482 0h5.865c1.248-.247 1.997-1.45 1.747-2.687-.25-.904-.873-1.61-1.747-1.791h-5.865c-1.248.247-1.997 1.45-1.747 2.687.125.904.874 1.61 1.747 1.791zm48.298-3.537h11.856l-5.99 10.313-5.866-10.312zm-67.891 10.313h11.731l-5.866-10.312-5.865 10.313z" class="J"/></g><g class="K"><path d="M2126.677 56.686c.374 0 .624-.25.624-.588v-9.184c0-.325-.25-.587-.624-.587s-.624.25-.624.587v9.184c0 .325.25.588.624.588zm-91.229 0c.25 0 .499-.25.499-.588v-9.184c0-.325-.249-.587-.499-.587-.374 0-.624.25-.624.587v9.184c0 .325.25.588.624.588zm61.152-27.094c0 .388.374.704.749.704h10.233c.374 0 .749-.315.749-.704s-.374-.703-.749-.703h-10.233c-.375 0-.749.313-.749.703zm-42.806 0c0 .388.249.704.749.704h10.233c.375 0 .749-.315.749-.704s-.374-.703-.749-.703h-10.233c-.499 0-.749.313-.749.703zm-18.346 106.435c.25 0 .499-.25.499-.588v-9.187c0-.325-.249-.588-.499-.588-.374 0-.624.25-.624.588v9.187c0 .325.25.588.624.588zm91.229 0c.374 0 .624-.25.624-.588v-9.187c0-.325-.25-.588-.624-.588s-.624.25-.624.588v9.187c0 .325.25.588.624.588zm-30.077-27.1c0 .387.374.702.749.702h10.233c.374 0 .749-.312.749-.702s-.374-.704-.749-.704h-10.233c-.375 0-.749.315-.749.704zm-42.806 0c0 .387.249.702.749.702h10.233c.375 0 .749-.312.749-.702s-.374-.704-.749-.704h-10.233c-.499 0-.749.315-.749.704z" fill="silver"/><path d="M2037.195 66.211v2.231c0 1.325.998 2.4 2.371 2.4h83.242a2.43 2.43 0 0 0 2.371-2.4v-2.231a2.43 2.43 0 0 0-2.371-2.4h-83.242c-1.373 0-2.371 1.075-2.371 2.4zm0 79.341v2.225c0 1.325.998 2.4 2.371 2.4h83.242a2.43 2.43 0 0 0 2.371-2.4v-2.225a2.43 2.43 0 0 0-2.371-2.4h-83.242c-1.373 0-2.371 1.075-2.371 2.4z" fill="gray"/><g fill="#866b00"><path d="M2038.568 58.655c1.248 0 2.371-1.05 2.371-2.344v-8.437c0-1.294-1.123-2.344-2.371-2.344s-2.371 1.05-2.371 2.344v8.438c0 1.295 1.123 2.344 2.371 2.344zm1.872 10.313c.749 0 1.373-.63 1.373-1.406v-2.344c0-.775-.624-1.406-1.373-1.406s-1.373.63-1.373 1.406v2.344c0 .775.624 1.406 1.373 1.406zm81.495 0c.749 0 1.373-.63 1.373-1.406v-2.344c0-.775-.624-1.406-1.373-1.406-.873 0-1.498.63-1.498 1.406v2.344c0 .775.624 1.406 1.498 1.406zm1.373-10.312c1.248 0 2.371-1.05 2.371-2.344v-8.437c0-1.294-1.123-2.344-2.371-2.344-1.373 0-2.371 1.05-2.371 2.344v8.438c0 1.295.998 2.344 2.371 2.344zm-30.95-25.781c0 1.295 1.123 2.344 2.371 2.344h8.486c1.248 0 2.247-1.05 2.247-2.344s-.998-2.344-2.247-2.344h-8.486c-1.248 0-2.371 1.05-2.371 2.344zm-35.568 0c0 1.295 1.123 2.344 2.371 2.344h8.487c1.248 0 2.246-1.05 2.246-2.344s-.999-2.344-2.246-2.344h-8.487c-1.248 0-2.371 1.05-2.371 2.344zm-18.221 105.116c1.248 0 2.371-1.05 2.371-2.338v-8.438c0-1.3-1.123-2.35-2.371-2.35s-2.371 1.05-2.371 2.35v8.438c0 1.287 1.123 2.338 2.371 2.338zm1.872 10.312c.749 0 1.373-.625 1.373-1.4v-2.35c0-.775-.624-1.4-1.373-1.4s-1.373.625-1.373 1.4v2.35c0 .775.624 1.4 1.373 1.4zm81.495 0c.749 0 1.373-.625 1.373-1.4v-2.35c0-.775-.624-1.4-1.373-1.4-.873 0-1.498.625-1.498 1.4v2.35c0 .775.624 1.4 1.498 1.4zm1.373-10.312c1.248 0 2.371-1.05 2.371-2.338v-8.438c0-1.3-1.123-2.35-2.371-2.35-1.373 0-2.371 1.05-2.371 2.35v8.438c0 1.287.998 2.338 2.371 2.338zm-30.95-25.78c0 1.294 1.123 2.344 2.371 2.344h8.486c1.248 0 2.247-1.05 2.247-2.344s-.998-2.344-2.247-2.344h-8.486c-1.248 0-2.371 1.05-2.371 2.344zm-35.568 0c0 1.294 1.123 2.344 2.371 2.344h8.487c1.248 0 2.246-1.05 2.246-2.344s-.999-2.344-2.246-2.344h-8.487c-1.248 0-2.371 1.05-2.371 2.344z"/><path d="M2037.57 69.32c.624 0 1.123-.525 1.123-1.171v-8c0-.647-.499-1.171-1.123-1.171s-1.248.525-1.248 1.171v8c0 .647.624 1.171 1.248 1.171zm0-12.634c.624 0 1.123-.525 1.123-1.172V47.49c0-.647-.499-1.172-1.123-1.172s-1.248.525-1.248 1.172v8.013c0 .647.624 1.172 1.248 1.172zm0-12.634c.624 0 1.123-.525 1.123-1.171v-8c0-.647-.499-1.172-1.123-1.172s-1.248.525-1.248 1.172v8c0 .647.624 1.171 1.248 1.171zm86.861 25.268c.624 0 1.248-.525 1.248-1.171v-8c0-.647-.624-1.171-1.248-1.171s-1.123.525-1.123 1.171v8c0 .647.499 1.171 1.123 1.171zm0-12.634c.624 0 1.248-.525 1.248-1.172V47.49c0-.647-.624-1.172-1.248-1.172s-1.123.525-1.123 1.172v8.013c0 .647.499 1.172 1.123 1.172zm0-12.634c.624 0 1.248-.525 1.248-1.171v-8c0-.647-.624-1.172-1.248-1.172s-1.123.525-1.123 1.172v8c0 .647.499 1.171 1.123 1.171zm-84.864-12.116c0 .775.624 1.406 1.373 1.406h8.861c.749 0 1.373-.63 1.373-1.406s-.624-1.406-1.373-1.406h-8.861c-.749 0-1.373.63-1.373 1.406zm14.227 0c0 .775.624 1.406 1.373 1.406h8.861c.874 0 1.498-.63 1.498-1.406s-.624-1.406-1.498-1.406h-8.861c-.749 0-1.373.63-1.373 1.406zm14.227 0c0 .775.624 1.406 1.498 1.406h8.861c.749 0 1.373-.63 1.373-1.406s-.624-1.406-1.373-1.406h-8.861c-.874 0-1.498.63-1.498 1.406zm14.352 0c0 .775.624 1.406 1.373 1.406h8.861c.749 0 1.373-.63 1.373-1.406s-.624-1.406-1.373-1.406h-8.861c-.749 0-1.373.63-1.373 1.406zm14.227 0c0 .775.624 1.406 1.373 1.406h8.985c.749 0 1.373-.63 1.373-1.406s-.624-1.406-1.373-1.406h-8.985c-.749 0-1.373.63-1.373 1.406zm14.227 0c0 .775.624 1.406 1.498 1.406h8.861c.749 0 1.373-.63 1.373-1.406s-.624-1.406-1.373-1.406h-8.861c-.874 0-1.498.63-1.498 1.406zm-71.261 38.906c0 .775.624 1.406 1.373 1.406h8.861c.749 0 1.373-.63 1.373-1.406s-.624-1.406-1.373-1.406h-8.861c-.749 0-1.373.63-1.373 1.406zm14.227 0c0 .775.624 1.406 1.373 1.406h8.861c.874 0 1.498-.63 1.498-1.406s-.624-1.406-1.498-1.406h-8.861c-.749 0-1.373.63-1.373 1.406zm14.227 0c0 .775.624 1.406 1.498 1.406h8.861c.749 0 1.373-.63 1.373-1.406s-.624-1.406-1.373-1.406h-8.861c-.874 0-1.498.63-1.498 1.406zm14.352 0c0 .775.624 1.406 1.373 1.406h8.861c.749 0 1.373-.63 1.373-1.406s-.624-1.406-1.373-1.406h-8.861c-.749 0-1.373.63-1.373 1.406zm14.227 0c0 .775.624 1.406 1.373 1.406h8.985c.749 0 1.373-.63 1.373-1.406s-.624-1.406-1.373-1.406h-8.985c-.749 0-1.373.63-1.373 1.406zm14.227 0c0 .775.624 1.406 1.498 1.406h8.861c.749 0 1.373-.63 1.373-1.406s-.624-1.406-1.373-1.406h-8.861c-.874 0-1.498.63-1.498 1.406zm-73.257 77.81c.624 0 1.123-.525 1.123-1.162v-8c0-.65-.499-1.175-1.123-1.175s-1.248.525-1.248 1.175v8c0 .625.624 1.162 1.248 1.162zm0-12.625c.624 0 1.123-.525 1.123-1.175v-8c0-.65-.499-1.175-1.123-1.175s-1.248.525-1.248 1.175v8c0 .65.624 1.175 1.248 1.175zm0-12.638c.624 0 1.123-.528 1.123-1.175v-8c0-.647-.499-1.172-1.123-1.172s-1.248.525-1.248 1.172v8c0 .646.624 1.175 1.248 1.175zm86.861 25.262c.624 0 1.248-.525 1.248-1.162v-8c0-.65-.624-1.175-1.248-1.175s-1.123.525-1.123 1.175v8c0 .625.499 1.162 1.123 1.162zm0-12.625c.624 0 1.248-.525 1.248-1.175v-8c0-.65-.624-1.175-1.248-1.175s-1.123.525-1.123 1.175v8c0 .65.499 1.175 1.123 1.175zm0-12.638c.624 0 1.248-.528 1.248-1.175v-8c0-.647-.624-1.172-1.248-1.172s-1.123.525-1.123 1.172v8c0 .646.499 1.175 1.123 1.175zm-84.864-12.117c0 .775.624 1.406 1.373 1.406h8.861c.749 0 1.373-.63 1.373-1.406s-.624-1.406-1.373-1.406h-8.861c-.749 0-1.373.63-1.373 1.406zm14.227 0c0 .775.624 1.406 1.373 1.406h8.861c.874 0 1.498-.63 1.498-1.406s-.624-1.406-1.498-1.406h-8.861c-.749 0-1.373.63-1.373 1.406zm14.227 0c0 .775.624 1.406 1.498 1.406h8.861c.749 0 1.373-.63 1.373-1.406s-.624-1.406-1.373-1.406h-8.861c-.874 0-1.498.63-1.498 1.406zm14.352 0c0 .775.624 1.406 1.373 1.406h8.861c.749 0 1.373-.63 1.373-1.406s-.624-1.406-1.373-1.406h-8.861c-.749 0-1.373.63-1.373 1.406zm14.227 0c0 .775.624 1.406 1.373 1.406h8.985c.749 0 1.373-.63 1.373-1.406s-.624-1.406-1.373-1.406h-8.985c-.749 0-1.373.63-1.373 1.406zm14.227 0c0 .775.624 1.406 1.498 1.406h8.861c.749 0 1.373-.63 1.373-1.406s-.624-1.406-1.373-1.406h-8.861c-.874 0-1.498.63-1.498 1.406zm-71.261 38.905c0 .775.624 1.412 1.373 1.412h8.861c.749 0 1.373-.625 1.373-1.412s-.624-1.4-1.373-1.4h-8.861c-.749 0-1.373.625-1.373 1.4zm14.227 0c0 .775.624 1.412 1.373 1.412h8.861c.874 0 1.498-.625 1.498-1.412s-.624-1.4-1.498-1.4h-8.861c-.749 0-1.373.625-1.373 1.4zm14.227 0c0 .775.624 1.412 1.498 1.412h8.861c.749 0 1.373-.625 1.373-1.412s-.624-1.4-1.373-1.4h-8.861c-.874 0-1.498.625-1.498 1.4zm14.352 0c0 .775.624 1.412 1.373 1.412h8.861c.749 0 1.373-.625 1.373-1.412s-.624-1.4-1.373-1.4h-8.861c-.749 0-1.373.625-1.373 1.4zm14.227 0c0 .775.624 1.412 1.373 1.412h8.985c.749 0 1.373-.625 1.373-1.412s-.624-1.4-1.373-1.4h-8.985c-.749 0-1.373.625-1.373 1.4zm14.227 0c0 .775.624 1.412 1.498 1.412h8.861c.749 0 1.373-.625 1.373-1.412s-.624-1.4-1.373-1.4h-8.861c-.874 0-1.498.625-1.498 1.4z"/></g></g><g class="J"><path d="M2141 29.832c0-1.92-1.56-3.6-3.6-3.6s-3.6 1.68-3.6 3.6 1.56 3.6 3.6 3.6 3.6-1.56 3.6-3.6zm0 30.548c0-1.92-1.56-3.6-3.6-3.6s-3.6 1.68-3.6 3.6 1.56 3.6 3.6 3.6 3.6-1.56 3.6-3.6zm0-15.274c0-1.92-1.56-3.6-3.6-3.6s-3.6 1.68-3.6 3.6 1.56 3.6 3.6 3.6 3.6-1.56 3.6-3.6zm0 30.547c0-1.92-1.56-3.6-3.6-3.6s-3.6 1.68-3.6 3.6 1.56 3.6 3.6 3.6 3.6-1.56 3.6-3.6zm0 15.274c0-1.92-1.56-3.6-3.6-3.6s-3.6 1.68-3.6 3.6 1.56 3.6 3.6 3.6 3.6-1.56 3.6-3.6zm0 15.278c0-1.92-1.56-3.6-3.6-3.6s-3.6 1.68-3.6 3.6 1.56 3.6 3.6 3.6 3.6-1.56 3.6-3.6zm0 15.27c0-1.92-1.56-3.6-3.6-3.6s-3.6 1.68-3.6 3.6 1.56 3.6 3.6 3.6 3.6-1.56 3.6-3.6zm0 15.27c0-1.92-1.56-3.6-3.6-3.6s-3.6 1.68-3.6 3.6 1.56 3.6 3.6 3.6 3.6-1.56 3.6-3.6zm0 15.28c0-1.92-1.56-3.6-3.6-3.6s-3.6 1.68-3.6 3.6 1.56 3.6 3.6 3.6 3.6-1.56 3.6-3.6z" stroke-width="1.2"/><path d="M558.06 160.905H547.5l5.28 9.84 5.28-9.84zm-23.5 9.67h10.56l-5.28-9.84-5.28 9.84zm-41.75-9.67h-10.56l5.28 9.84 5.28-9.84zm-23.5 9.67h10.56l-5.28-9.84-5.28 9.84zm-41.75-9.67H417l5.28 9.84 5.28-9.84zm-23.5 9.67h10.56l-5.28-9.84-5.28 9.84zm-41.75-9.67h-10.56l5.28 9.84 5.28-9.84zm-23.5 9.67h10.56l-5.28-9.84-5.28 9.84zm-41.75-9.67H286.5l5.28 9.84 5.28-9.84zm-23.5 9.67h10.56l-5.28-9.84-5.28 9.84zm-41.75-9.67h-10.56l5.28 9.84 5.28-9.84zm-23.5 9.67h10.56l-5.28-9.84-5.28 9.84zm1629.49-9.67h-10.56l5.28 9.84 5.28-9.84zm-23.5 9.67h10.56l-5.28-9.84-5.28 9.84zm-42.5-9.67h-10.56l5.28 9.84 5.28-9.84zm-23.5 9.67h10.56l-5.28-9.84-5.28 9.84zm-42.5-9.67h-10.56l5.28 9.84 5.28-9.84zm-23.5 9.67h10.56l-5.28-9.84-5.28 9.84zm-42.5-9.67h-10.56l5.28 9.84 5.28-9.84zm-23.5 9.67h10.56l-5.28-9.84-5.28 9.84zm-42.5-9.67h-10.56l5.28 9.84 5.28-9.84zm-23.5 9.67h10.56l-5.28-9.84-5.28 9.84zm-42.5-9.67h-10.56l5.28 9.84 5.28-9.84zm-23.5 9.67h10.56l-5.28-9.84-5.28 9.84zm-74-9.67h-10.56l5.28 9.84 5.28-9.84zm-23.5 9.67h10.56l-5.28-9.84-5.28 9.84zm-42-9.67h-10.56l5.28 9.84 5.28-9.84zm-23.5 9.67h10.56l-5.28-9.84-5.28 9.84zm-41.9-9.67h-10.56l5.28 9.84 5.28-9.84zm-23.5 9.67h10.56l-5.28-9.84-5.28 9.84zm-42-9.67h-10.56l5.28 9.84 5.28-9.84zm-23.5 9.67h10.56l-5.28-9.84-5.28 9.84zm-41.9-9.67h-10.56l5.28 9.84 5.28-9.84zm-23.5 9.67h10.56l-5.28-9.84-5.28 9.84zm-41.9-9.67h-10.56l5.28 9.84 5.28-9.84zm-23.5 9.67h10.56l-5.28-9.84-5.28 9.84zm-74.04-9.67H975l5.28 9.84 5.28-9.84zm-23.5 9.67h10.56l-5.28-9.84-5.28 9.84zm-41.75-9.67h-10.56l5.28 9.84 5.28-9.84zm-23.5 9.67h10.56l-5.28-9.84-5.28 9.84zm-41.75-9.67H844.5l5.28 9.84 5.28-9.84zm-23.5 9.67h10.56l-5.28-9.84-5.28 9.84zm-41.75-9.67h-10.56l5.28 9.84 5.28-9.84zm-23.5 9.67h10.56l-5.28-9.84-5.28 9.84zm-41.75-9.67H714l5.28 9.84 5.28-9.84zm-23.5 9.67h10.56l-5.28-9.84-5.28 9.84zm-41.75-9.67h-10.56l5.28 9.84 5.28-9.84zm-23.5 9.67h10.56l-5.28-9.84-5.28 9.84zm1294.59-9.67h-10.56l5.28 9.84 5.28-9.84zm-25.4 9.67h10.56l-5.28-9.84-5.28 9.84zm94.6-9.67h-10.56l5.28 9.84 5.28-9.84zm-25.4 9.67h10.56l-5.28-9.84-5.28 9.84zm124.9-9.67h-10.56l5.28 9.84 5.28-9.84zm-25.3 9.67h10.56l-5.28-9.84-5.28 9.84zm-1872.24 7.48h15v9.6h-15zm18.74.085h15v9.515h-15zm46.9 0h15v9.515h-15zm18.74 0h15v9.515h-15zm46.86 0h15v9.515h-15zm18.76 0h15v9.515h-15zm46.88 0h15v9.515h-15zm18.76 0h15v9.515h-15zm46.86 0h15v9.515h-15zm18.74 0h15v9.515h-15zm46.9 0h15v9.515h-15zm18.74 0h15v9.515h-15zm79.36 0h15v9.515h-15zm18.76 0h15v9.515h-15zm46.88 0h15v9.515h-15zm18.76 0h15v9.515h-15zm46.86 0h15v9.515h-15zm18.74 0h15v9.515h-15zm46.9 0h15v9.515h-15zm18.74 0h15v9.515h-15zm46.86 0h15v9.515h-15zm18.76 0h15v9.515h-15zm46.88 0h15v9.515h-15zm18.76 0h15v9.515h-15zm79.4 0h15v9.515h-15zm18.7 0h15v9.515h-15zm46.9 0h15v9.515h-15zm18.7 0h15v9.515h-15zm46.9 0h15v9.515h-15zm18.8 0h15v9.515h-15zm46.8 0h15v9.515h-15zm18.8 0h15v9.515h-15zm46.9 0h15v9.515h-15zm18.7 0h15v9.515h-15zm46.9 0h15v9.515h-15zm18.7 0h15v9.515h-15zm79.4 0h15v9.515h-15zm18.8 0h15v9.515h-15zm46.8 0h15v9.515h-15zm18.8 0h15v9.515h-15zm46.9 0h15v9.515h-15zm18.7 0h15v9.515h-15zm46.9 0h15v9.515h-15zm18.7 0h15v9.515h-15zm46.9 0h15v9.515h-15zm18.8 0h15v9.515h-15zm46.8 0h15v9.515h-15zm18.8 0h15v9.515h-15z" class="D"/><path d="M137.97 185.51h1.623v6.174h-1.623zm14.713 1.768c-.067-.032-.585-.329-1.364-.329-1.051 0-1.776.701-1.776 1.647 0 .917.692 1.648 1.776 1.648.765 0 1.29-.291 1.364-.328v1.659c-.2.055-.758.22-1.477.22-1.829 0-3.432-1.208-3.432-3.199 0-1.844 1.45-3.196 3.432-3.196.758 0 1.33.177 1.477.221v1.657zm-16.941 0c-.067-.032-.599-.329-1.364-.329-1.051 0-1.783.701-1.783 1.647 0 .917.698 1.648 1.783 1.648.758 0 1.29-.291 1.364-.328v1.659c-.2.055-.758.22-1.483.22-1.823 0-3.426-1.208-3.426-3.199 0-1.844 1.45-3.196 3.426-3.196.765 0 1.33.177 1.483.221v1.657zm25.449 1.319c0 1.766-1.423 3.199-3.392 3.199-1.982 0-3.392-1.432-3.392-3.199s1.417-3.197 3.392-3.197 3.392 1.433 3.392 3.197zm-3.392-1.624c-.964 0-1.676.728-1.676 1.624s.712 1.625 1.676 1.625 1.676-.727 1.676-1.625-.712-1.624-1.676-1.624zm-12.047-.06c-.027-.006-.712-.188-1.264-.188-.652 0-.998.209-.998.506 0 .375.479.507.745.587l.446.137c1.064.322 1.53 1.014 1.53 1.767 0 1.551-1.423 2.072-2.661 2.072-.865 0-1.663-.153-1.749-.169v-1.421c.146.034.825.23 1.53.23.798 0 1.177-.227 1.177-.577 0-.319-.333-.494-.732-.615l-.346-.107c-.905-.275-1.663-.785-1.663-1.807 0-1.154.898-1.93 2.395-1.93a7.17 7.17 0 0 1 1.583.197v1.318zm-16.642-8.039c0-.427-.36-.773-.805-.773s-.805.346-.805.773v1.622c0 .427.36.773.805.773s.805-.346.805-.773v-1.622zm4.436-2.128c0-.426-.366-.771-.798-.771-.444 0-.804.345-.805.771v3.748a.76.76 0 0 0 .236.547.82.82 0 0 0 .569.226c.439 0 .798-.345.798-.773v-3.748zm4.417-2.91c0-.426-.359-.771-.798-.771s-.798.345-.798.771v8.2c0 .428.366.766.798.766.445 0 .805-.346.805-.773v-8.193zm4.43 2.911c0-.427-.36-.773-.805-.773s-.805.346-.805.773v3.748c0 .427.36.773.805.773s.805-.346.805-.773v-3.748zm4.423 2.127c-.001-.426-.361-.771-.805-.771s-.798.345-.798.771v1.622c0 .428.366.773.798.773a.82.82 0 0 0 .569-.226.76.76 0 0 0 .236-.547v-1.622zm4.424-2.127c0-.276-.153-.531-.402-.669s-.556-.138-.805 0-.402.393-.402.669v3.748c0 .276.153.531.402.669s.556.138.805 0 .402-.393.402-.669v-3.748zm4.436-2.911c0-.426-.359-.771-.798-.771s-.798.345-.798.771v8.2c0 .276.153.531.402.669s.556.138.805 0 .402-.393.402-.669v-8.2zm4.431 2.91c0-.426-.366-.771-.818-.771-.444 0-.804.345-.805.771v3.748a.76.76 0 0 0 .236.547.82.82 0 0 0 .569.226.83.83 0 0 0 .576-.224c.153-.145.241-.343.242-.549v-3.748zm4.416 2.128c-.001-.426-.361-.771-.805-.771s-.798.345-.798.771v1.622c0 .276.153.531.402.669s.556.138.805 0 .402-.393.402-.669v-1.622z" class="D"/><g class="D"><use xlink:href="#Q"/><use xlink:href="#R"/><use xlink:href="#S"/><use xlink:href="#T"/><use xlink:href="#U"/><use xlink:href="#V"/><use xlink:href="#W"/><use xlink:href="#X"/><use xlink:href="#Y"/><use xlink:href="#Q" x="295.697"/><use xlink:href="#Z"/><use xlink:href="#Q" x="319.678"/><use xlink:href="#Q" x="326.563"/><use xlink:href="#Q" x="361.01"/><use xlink:href="#R" x="333.447"/><use xlink:href="#Q" x="420.74"/><use xlink:href="#S" x="362.312"/><use xlink:href="#Q" x="462.072"/><use xlink:href="#T" x="369.197"/><use xlink:href="#Q" x="486.053"/><use xlink:href="#U" x="362.312"/><use xlink:href="#Q" x="527.385"/><use xlink:href="#V" x="369.197"/><use xlink:href="#Q" x="551.365"/><use xlink:href="#W" x="362.313"/><use xlink:href="#Q" x="592.697"/><use xlink:href="#X" x="369.197"/><use xlink:href="#Q" x="616.678"/><use xlink:href="#Y" x="362.313"/><use xlink:href="#R" x="623.563"/><use xlink:href="#Z" x="362.313"/><use xlink:href="#R" x="647.543"/><use xlink:href="#Q" x="688.875"/><use xlink:href="#R" x="688.875"/><use xlink:href="#R" x="695.76"/><use xlink:href="#R" x="712.856"/><use xlink:href="#S" x="688.876"/><use xlink:href="#R" x="754.188"/><use xlink:href="#T" x="695.76"/><use xlink:href="#R" x="810.043"/><use xlink:href="#U" x="720.75"/><use xlink:href="#R" x="851.375"/><use xlink:href="#V" x="727.635"/><use xlink:href="#R" x="875.356"/><use xlink:href="#W" x="720.751"/><use xlink:href="#R" x="916.688"/><use xlink:href="#X" x="727.635"/><use xlink:href="#R" x="940.668"/><use xlink:href="#Y" x="720.751"/><use xlink:href="#S" x="951.135"/><use xlink:href="#Z" x="720.75"/><use xlink:href="#S" x="975.365"/><use xlink:href="#Q" x="1047.562"/><use xlink:href="#S" x="1016.697"/><use xlink:href="#R" x="1054.447"/><use xlink:href="#S" x="1040.803"/><use xlink:href="#S" x="1047.688"/><use xlink:href="#S" x="1082.135"/><use xlink:href="#T" x="1054.572"/><use xlink:href="#S" x="1106.24"/><use xlink:href="#U" x="1047.812"/><use xlink:href="#S" x="1147.572"/><use xlink:href="#V" x="1054.697"/><use xlink:href="#S" x="1203.803"/><use xlink:href="#W" x="1080.063"/><use xlink:href="#S" x="1245.135"/><use xlink:href="#X" x="1086.947"/><use xlink:href="#S" x="1269.865"/><use xlink:href="#Y" x="1080.813"/><use xlink:href="#T" x="1276.75"/><use xlink:href="#Z" x="1080.813"/><use xlink:href="#T" x="1301.23"/><use xlink:href="#Q" x="1407.875"/><use xlink:href="#T" x="1342.562"/><use xlink:href="#R" x="1414.76"/><use xlink:href="#T" x="1367.293"/><use xlink:href="#S" x="1408.626"/><use xlink:href="#T" x="1408.625"/><use xlink:href="#T" x="1415.51"/><use xlink:href="#T" x="1433.355"/><use xlink:href="#U" x="1409.375"/><use xlink:href="#T" x="1474.687"/><use xlink:href="#V" x="1416.259"/><use xlink:href="#T" x="1499.418"/><use xlink:href="#W" x="1410.126"/><use xlink:href="#T" x="1540.75"/><use xlink:href="#X" x="1417.01"/><use xlink:href="#T" x="1590.23"/><use xlink:href="#Y" x="1435.625"/><use xlink:href="#U" x="1602.447"/><use xlink:href="#Z" x="1437.375"/><use xlink:href="#U" x="1628.428"/><use xlink:href="#Q" x="1765.938"/><use xlink:href="#U" x="1671.51"/><use xlink:href="#R" x="1774.573"/><use xlink:href="#U" x="1727.99"/><use xlink:href="#S" x="1800.188"/><use xlink:href="#U" x="1771.072"/><use xlink:href="#T" x="1808.822"/><use xlink:href="#a"/><path d="M1910.769 181.904v9.953h-1.312v-9.953h1.313z"/><use xlink:href="#b"/><use xlink:href="#a" x="21.226"/><path d="M1938.242 186.573v.629q0 1.463-.492 2.553-.492 1.09-1.395 1.665-.902.574-2.105.574-1.176 0-2.085-.578-.909-.578-1.412-1.647-.502-1.07-.516-2.478v-.718q0-1.436.499-2.536.499-1.101 1.412-1.685.913-.584 2.088-.584 1.196 0 2.109.578.913.578 1.405 1.675.492 1.097.492 2.553zm-1.306.725v-.738q0-1.771-.711-2.717-.711-.947-1.989-.947-1.244 0-1.958.947-.714.947-.735 2.628v.731q0 1.716.721 2.697.721.981 1.986.981 1.271 0 1.969-.926.697-.926.718-2.656z"/><use xlink:href="#c"/><path d="M1959.283 186.183v1.073h-4.313v3.527h5.011v1.073h-6.323v-9.953h6.255v1.08h-4.942v3.199h4.313z"/><use xlink:href="#d"/><path d="M1976.079 181.904h1.319v6.768q-.007 1.408-.885 2.304-.878.896-2.382 1.005l-.349.014q-1.634 0-2.604-.882-.971-.882-.984-2.427v-6.781h1.299v6.74q0 1.08.595 1.678.595.598 1.695.598 1.114 0 1.706-.595.591-.595.591-1.675v-6.747z"/><use xlink:href="#b" x="66.302"/><use xlink:href="#c" x="47.564"/><use xlink:href="#e"/><path d="M2015.14 191.857l-3.527-4.628-1.217 1.265v3.363h-1.312v-9.953h1.313v4.922l4.423-4.922h1.586l-3.917 4.396 4.225 5.558h-1.572zm4.716-4.744v1.032h-3.336v-1.032h3.336z"/><use xlink:href="#a" x="121.037"/><use xlink:href="#e" x="29.176"/><path d="M2039.769 187.297v-1.032h.95q.896-.014 1.408-.472.513-.458.513-1.237 0-1.75-1.743-1.75-.82 0-1.309.468-.489.468-.489 1.241h-1.265q0-1.183.865-1.965.865-.783 2.198-.783 1.408 0 2.208.745.8.745.8 2.071 0 .649-.42 1.258-.42.608-1.145.909.82.26 1.268.861.448.602.448 1.47 0 1.34-.875 2.126-.875.786-2.276.786-1.401 0-2.28-.759-.878-.759-.878-2.003h1.271q0 .786.513 1.258.513.472 1.374.472.916 0 1.401-.479.485-.479.485-1.374 0-.868-.533-1.333-.533-.465-1.538-.479h-.95zm11.362-5.393v6.61h1.381v1.032h-1.381v2.311h-1.271v-2.311h-4.532v-.745l4.457-6.897h1.347zm-1.422 2.003l-2.946 4.607h3.097v-4.881l-.15.273zm9.981.594q0 .745-.393 1.326-.393.581-1.063.909.779.335 1.234.978.455.643.455 1.456 0 1.292-.872 2.058-.872.766-2.293.766-1.436 0-2.3-.769-.865-.769-.865-2.054 0-.807.441-1.456.441-.649 1.22-.984-.663-.328-1.046-.909-.383-.581-.383-1.319 0-1.258.807-1.996.807-.738 2.126-.738 1.313 0 2.123.738.81.738.81 1.996zm-1.032 4.642q0-.834-.53-1.36-.53-.526-1.384-.526-.854 0-1.371.52-.516.52-.516 1.367 0 .848.502 1.333.502.485 1.398.485.889 0 1.395-.489.506-.489.506-1.33zm-1.9-6.337q-.745 0-1.207.461-.461.461-.461 1.254 0 .759.455 1.227.455.468 1.213.468.759 0 1.213-.468.455-.468.455-1.227 0-.759-.472-1.237-.472-.479-1.196-.479zm12.433 4.095v3.65q-.506.725-1.412 1.083-.906.359-2.109.359-1.217 0-2.16-.571-.943-.571-1.459-1.624-.516-1.053-.53-2.44v-.868q0-2.249 1.049-3.486 1.049-1.237 2.95-1.237 1.559 0 2.509.796.95.796 1.162 2.259h-1.312q-.369-1.976-2.352-1.976-1.319 0-2 .926-.68.926-.687 2.683v.813q0 1.675.766 2.663.766.988 2.071.988.738 0 1.292-.164.554-.164.916-.554v-2.235h-2.304V186.9h3.609z"/><use xlink:href="#a" x="171.131"/><path d="M2082.925 187.113v1.032h-3.336v-1.032h3.336zm6.917-.725v1.073h-4.177v4.396h-1.312v-9.953h6.166v1.08h-4.854v3.404h4.177z"/><use xlink:href="#d" x="130.478"/><path d="M2104.526 187.961h-2.345v3.896h-1.312v-9.953h3.671q1.634 0 2.56.834.926.834.926 2.208 0 1.449-.906 2.232-.906.783-2.594.783zm-2.345-4.977v3.903h2.358q1.053 0 1.613-.496.561-.496.561-1.432 0-.889-.561-1.422-.561-.533-1.538-.554h-2.434zM135.225 43.537h-2.764v-7.109h2.49q1.294 0 1.963.496.669.496.669 1.453 0 .522-.269.92-.269.398-.747.583.547.137.862.552.315.415.315 1.016 0 1.025-.654 1.553-.654.527-1.865.537zm.044-3.096h-1.343v1.919h1.255q.518 0 .808-.247.291-.247.291-.681 0-.977-1.011-.991zm-1.343-2.827v1.792h1.084q1.108-.02 1.108-.884 0-.483-.281-.696-.281-.212-.886-.212h-1.025zm9.033 3.555h1.465q-.083 1.147-.847 1.807-.764.659-2.014.659-1.367 0-2.151-.92-.784-.92-.784-2.527v-.435q0-1.025.361-1.807.361-.781 1.033-1.199.671-.417 1.56-.417 1.23 0 1.982.659.752.659.869 1.851h-1.465q-.054-.688-.383-.999-.33-.31-1.003-.31-.732 0-1.096.525-.364.525-.374 1.628v.537q0 1.152.349 1.685.349.532 1.101.532.679 0 1.013-.31.334-.31.383-.959z"/><use xlink:href="#f"/><use xlink:href="#g"/><path d="M144.751 59.428v1.187h-2.178v5.923h-1.465v-5.923h-2.148v-1.187h5.791z"/><use xlink:href="#g" x="12.256"/><path d="M137.119 85.308v1.147h-2.812v1.904h3.301v1.177h-4.766v-7.109h4.756v1.187h-3.291v1.694h2.813z"/><use xlink:href="#f" x="-6.919" y="45.999"/><path d="M146.553 82.427l1.602 5.347 1.611-5.347h1.631l-2.476 7.109h-1.528l-2.466-7.109h1.626zm-4.575 26.604h-1.284v2.505h-1.465v-7.109h2.773q.801 0 1.409.293.608.293.935.833.327.54.327 1.228 0 1.045-.715 1.648-.715.603-1.98.603zm-1.284-3.418v2.231h1.309q.581 0 .886-.273.305-.273.305-.781 0-.522-.308-.845-.308-.322-.85-.332h-1.343z"/></g></g></symbol></svg>