<svg xmlns="http://www.w3.org/2000/svg" xmlns:xlink="http://www.w3.org/1999/xlink" viewBox="0 0 2281 414.224" fill="#fff" fill-rule="evenodd" stroke="#000" stroke-linecap="round" stroke-linejoin="round" font-family="Roboto" font-size="14" text-anchor="middle"><style><![CDATA[.B{stroke-linejoin:miter}.C{stroke:#603}.D{stroke-width:1.2}.E{stroke:none}.F{fill:#000}.G{stroke:gray}.H{fill:none}.I{stroke-width:.416}.J{stroke:#ddd}.K{stroke-width:.12}.L{fill:#701f37}.M{stroke-width:.36}.N{fill:#a5a5a5}.O{stroke-width:1.198}.P{stroke-width:.84}.Q{fill:url(#L)}.R{fill:url(#M)}.S{fill:#d9d9d9}.T{fill:#bfbfbf}.U{fill:#ac2a54}.V{fill:url(#J)}.W{fill:url(#K)}.X{stroke:#5f5f5f}.Y{fill:url(#T)}.Z{stroke-width:3.6}.a{fill:#262626}.b{fill:#c1c5cb}.c{fill:#3f3f3f}.d{fill:url(#N)}.e{fill:#b2b2b2}.f{fill:#ddd}.g{fill:url(#S)}.h{fill:url(#A)}.i{stroke-width:.399}.j{stroke:#737373}.k{stroke:#404040}.l{fill:#a2a2a2}.m{fill:url(#C)}.n{fill:url(#D)}.o{fill:#404040}.p{stroke-width:2.04}]]></style><use xlink:href="#AN" x=".5" y=".6"/><defs><linearGradient id="A" x1="100%" y1="50%" x2="0%" y2="50%"><stop offset="0%" stop-color="#7f7f7f"/><stop offset="1%" stop-color="#7f7f7f"/><stop offset="50%" stop-color="#d8d8d8"/><stop offset="100%" stop-color="#7f7f7f"/></linearGradient><linearGradient id="B" x1="50%" y1="0%" x2="50%" y2="100%"><stop offset="0%" stop-color="#7f7f7f"/><stop offset="1%" stop-color="#7f7f7f"/><stop offset="50%" stop-color="#c1c5cb"/><stop offset="100%" stop-color="#7f7f7f"/></linearGradient><linearGradient id="C" x1="100%" y1="50%" x2="0%" y2="50%"><stop offset="0%" stop-color="#7f7f7f"/><stop offset="100%" stop-color="#c1c5cb"/></linearGradient><linearGradient id="D" x1="0%" y1="50%" x2="100%" y2="50%"><stop offset="0%" stop-color="#7f7f7f"/><stop offset="100%" stop-color="#c1c5cb"/></linearGradient><linearGradient id="E" x1="50%" y1="0%" x2="50%" y2="100%"><stop offset="0%" stop-color="#7f7f7f"/><stop offset="100%" stop-color="#c1c5cb"/></linearGradient><radialGradient id="F" r="100%" fx="50%" fy="50%" cx="50%" cy="50%"><stop offset="0%" stop-color="#fff"/><stop offset="71%"/></radialGradient><radialGradient id="G" r="100%" fx="50%" fy="50%" cx="50%" cy="50%"><stop offset="0%" stop-color="#b3b3b3"/><stop offset="100%" stop-color="#333"/></radialGradient><linearGradient id="H" x1="50%" y1="0%" x2="50%" y2="100%"><stop offset="0%" stop-color="#fff"/><stop offset="1%" stop-color="#fff"/><stop offset="50%" stop-color="#9a9a9a"/><stop offset="100%" stop-color="#fff"/></linearGradient><radialGradient id="I" r="100%" fx="50%" fy="50%" cx="50%" cy="50%"><stop offset="0%" stop-color="#1e1e1e"/><stop offset="71%" stop-color="#7f7f7f"/></radialGradient><linearGradient id="J" x1="0%" y1="50%" x2="100%" y2="50%"><stop offset="0%" stop-color="#701f37"/><stop offset="1%" stop-color="#701f37"/><stop offset="50%" stop-color="#ac2f54"/><stop offset="100%" stop-color="#701f37"/></linearGradient><linearGradient id="K" x1="50%" y1="0%" x2="50%" y2="100%"><stop offset="0%" stop-color="#701f37"/><stop offset="1%" stop-color="#701f37"/><stop offset="50%" stop-color="#ac2f54"/><stop offset="100%" stop-color="#701f37"/></linearGradient><linearGradient id="L" x1="50%" y1="0%" x2="50%" y2="100%"><stop offset="0%" stop-color="#99732d"/><stop offset="1%" stop-color="#99732d"/><stop offset="50%" stop-color="#6b511f"/><stop offset="100%" stop-color="#99732d"/></linearGradient><linearGradient id="M" x1="50%" y1="0%" x2="50%" y2="100%"><stop offset="0%" stop-color="#3c2d11"/><stop offset="1%" stop-color="#3c2d11"/><stop offset="50%" stop-color="#765923"/><stop offset="100%" stop-color="#3c2d11"/></linearGradient><linearGradient id="N" x1="50%" y1="100%" x2="50%" y2="0%"><stop offset="0%"/><stop offset="100%" stop-color="#fff"/></linearGradient><radialGradient id="O" r="100%" fx="50%" fy="50%" cx="50%" cy="50%"><stop offset="0%" stop-color="#00b050"/><stop offset="71%" stop-color="#007735"/></radialGradient><linearGradient id="P" x1="0%" y1="50%" x2="100%" y2="50%"><stop offset="0%" stop-color="#595959"/><stop offset="100%" stop-color="#d9d9d9"/></linearGradient><linearGradient id="Q" x1="100%" y1="50%" x2="0%" y2="50%"><stop offset="0%" stop-color="#595959"/><stop offset="100%" stop-color="#d9d9d9"/></linearGradient><linearGradient id="R" x1="100%" y1="50%" x2="0%" y2="50%"><stop offset="0%" stop-color="#3f3f3f"/><stop offset="100%" stop-color="#bfbfbf"/></linearGradient><linearGradient id="S" x1="50%" y1="0%" x2="50%" y2="100%"><stop offset="0%" stop-color="#4d4d4d"/><stop offset="1%" stop-color="#4d4d4d"/><stop offset="50%" stop-color="#fff"/><stop offset="100%" stop-color="#4d4d4d"/></linearGradient><radialGradient id="T" r="100%" fx="50%" fy="50%" cx="50%" cy="50%"><stop offset="0%" stop-color="#cdcdcd"/><stop offset="71%" stop-color="gray"/></radialGradient><linearGradient id="U" x1="100%" y1="50%" x2="0%" y2="50%"><stop offset="0%" stop-color="#7f7f7f"/><stop offset="1%" stop-color="#7f7f7f"/><stop offset="50%" stop-color="#bfbfbf"/><stop offset="100%" stop-color="#7f7f7f"/></linearGradient><path id="V" d="M1722.355 32.219c0 3.105-2.513 5.615-5.615 5.615s-5.615-2.51-5.615-5.615a5.62 5.62 0 0 1 5.615-5.618 5.62 5.62 0 0 1 5.615 5.618z"/><path id="W" d="M1697.605 202.56v-7.2h4.8v7.2h-4.8zm-2.4-9v-6.84m0 24.72v-7.2h-2.76m2.64-5.28h2.4m-2.4 5.4v-12h-2.76m-4.8 14.4v-7.2h4.8v7.2h-4.8zm0-12v-7.2h4.8v7.2h-4.8z"/><path id="X" d="M155.175 394.08h326.4c12.36 0 22.56-10.32 22.56-23.16v-336c0-12.84-10.08-23.16-22.44-23.16h-326.52a22.8 22.8 0 0 0-22.56 23.04v336a22.8 22.8 0 0 0 22.56 23.28z"/><path id="Y" d="M169.965 50.955h234.72a3.6 3.6 0 0 0 3.6-3.6v-24.72a3.6 3.6 0 0 0-3.6-3.6h-234.72a3.6 3.6 0 0 0-3.6 3.6v24.72a3.6 3.6 0 0 0 3.6 3.6z"/><path id="Z" d="M180.485 377.21h275.64c4.08 0 7.56-3.36 7.56-7.44V266.21c0-3.84-3.12-7.2-7.2-7.2s-7.2-3.12-7.2-7.2V61.97a7.48 7.48 0 0 0-7.44-7.44h-247.32c-4.2 0-7.44 3.36-7.44 7.56v189.84c0 3.84-3.12 7.2-7.2 7.2s-6.96 3.12-6.96 6.96v103.56a7.53 7.53 0 0 0 7.56 7.56z"/><path id="a" d="M495.515 375.88c0-5.76-4.8-10.44-10.2-10.44s-10.2 4.68-10.2 10.44 4.56 10.32 10.2 10.32 10.2-4.8 10.2-10.32z"/><path id="b" d="M449.545 185.55v-16.8l-1.56.84-6.36-3.6v-7.44l6.36-3.6 1.56.84v-16.8l-1.56.84-6.36-3.6v-8.28l6.36-3.6 1.56.84v-16.8l-1.56.84-6.36-3.6v-7.44l6.36-3.6 1.56.84v-16.8l-1.56.84-6.36-3.6v-7.44l6.36-3.6 1.56.84v-2.88a7.42 7.42 0 0 0-3.84-6.48v4.8l-6.36 3.6-6.36-3.6v-6.36h-4.8v5.64l-6.36 3.6-6.36-3.6v-5.64h-4.56v5.64l-6.36 3.6-6.36-3.6v-5.64h-4.56v5.64l-6.36 3.6-6.36-3.6v-5.64h-4.56v5.64l-6.36 3.6-6.36-3.6v-5.64h-4.56v5.64l-6.36 3.6-6.36-3.6v-5.64h-4.56v5.64l-6.36 3.6-6.36-3.6v-5.64h-4.56v5.64l-6.36 3.6-6.36-3.6v-5.64h-4.8v5.64l-6.36 3.6-6.36-3.6v-5.64h-4.68v5.64l-6.36 3.6-6.36-3.6v-5.64h-4.68v5.64l-6.36 3.6-6.36-3.6v-5.64h-4.56v5.64l-6.36 3.6-6.36-3.6v-5.64h-4.56v5.64l-6.36 3.6-6.36-3.6v-5.64h-4.68v5.64l-6.36 3.6-6.36-3.6v-5.64h-4.56v5.64l-6.36 3.6-6.36-3.6v-4.32c-2.04 1.44-3.24 3.6-3.24 6v2.4l.84-.48 6.36 3.6v7.56l-6.36 3.6h-.84v16.2l.84-.48 6.36 3.6v7.44l-6.36 3.6-.84-.36v16.2l.84-.6 6.36 3.6v7.56l-6.36 3.6-.84-.36v16.2l.84-.6 6.36 3.6v7.56l-6.36 3.6-.84-.12v16.2l.84-.48 6.36 3.6v7.44l-6.36 3.6-.84-.24v23.64h262.56v-24l-1.56.84-6.36-3.6v-7.44l6.36-3.6 1.56.84zm-18.84 14.16l-6.36-3.6v-7.44l6.36-3.6 6.36 3.6v7.44l-6.36 3.6zm-17.4 0l-6.36-3.6v-7.44l6.36-3.6 6.36 3.6v7.44l-6.36 3.6zm-17.28 0l-6.36-3.6v-7.44l6.36-3.6 6.36 3.6v7.44l-6.36 3.6zm-17.4 0l-6.36-3.6v-7.44l6.36-3.6 6.36 3.6v7.44l-6.36 3.6zm-17.4 0l-6.24-3.84v-7.44l6.36-3.6 6.36 3.6v7.44l-6.36 3.6zm-17.28 0l-6.36-3.6v-7.44l6.36-3.6 6.36 3.6v7.44l-6.36 3.6zm-17.4 0l-7.56-3.84v-7.44l6.36-3.6 6.36 3.6v7.44l-6.36 3.6zm-17.4 0l-6.36-3.6v-7.44l6.36-3.6 6.36 3.6v7.44l-6.36 3.6zm-17.28 0l-6.48-3.84v-7.44l6.36-3.6 6.36 3.6v7.44l-6.36 3.6zm-17.28 0l-6.36-3.6v-7.44l6.36-3.6 6.36 3.6v7.44l-6.36 3.6zm-17.4 0l-6.36-3.6v-7.44l6.36-3.6 6.36 3.6v7.44l-6.36 3.6zm-17.28 0l-6.36-3.6v-7.44l6.36-3.6 6.36 3.6v7.44l-6.36 3.6zm-17.4 0l-6.36-3.6v-7.44l6.36-3.6 6.36 3.6v7.44l-6.36 3.6zm-17.28 0l-6.24-3.84v-7.44l6.36-3.6 6.36 3.6v7.44l-6.36 3.6zm234 15l-6.24-3.96v-7.2l6.36-3.6 6.36 3.6v7.2l-6.36 3.6zm-17.4 0l-6.24-3.96v-7.2l6.36-3.6 6.36 3.6v7.2l-6.36 3.6zm-17.28 0l-6.36-3.96v-7.2l6.36-3.6 6.36 3.6v7.2l-6.36 3.6zm-17.4 0l-6.24-3.96v-7.2l6.36-3.6 6.36 3.6v7.2l-6.36 3.6zm-17.4 0l-6.12-3.96v-7.2l6.36-3.6 6.36 3.6v7.2l-6.36 3.6zm-17.28 0l-6.24-3.96v-7.2l6.36-3.6 6.36 3.6v7.2l-6.36 3.6zm-17.4 0l-6.12-3.96v-7.2l6.36-3.6 6.36 3.6v7.2l-6.36 3.6zm-17.4 0l-6.12-3.96v-7.2l6.36-3.6 6.36 3.6v7.2l-6.36 3.6zm-17.4 0l-6-3.96v-7.2l6.36-3.6 6.36 3.6v7.2l-6.36 3.6zm-17.4 0l-5.88-3.96v-7.2l6.36-3.6 6.36 3.6v7.2l-6.36 3.6zm-17.28 0l-6-3.96v-7.2l6.36-3.6 6.36 3.6v7.2l-6.36 3.6zm-17.28 0l-6.12-3.96v-7.2l6.36-3.6 6.36 3.6v7.2l-6.36 3.6zm-17.4 0l-6-3.96v-7.2l6.36-3.6 6.36 3.6v7.2l-6.36 3.6zm-17.4 0l-6.12-3.96v-7.2l6.36-3.6 6.36 3.6v7.2l-6.36 3.6zm-17.4 0l-5.88-3.96v-7.2l6.36-3.6 6.36 3.6v7.2l-6.36 3.6zm234-75.24l-6.36-3.6v-7.92l6.36-3.6 6.36 3.6v7.56l-6.36 3.6zm-17.4 0l-6.36-3.6v-7.92l6.36-3.6 6.36 3.6v7.56l-6.36 3.6zm-17.28 0l-6.36-3.6v-7.92l6.36-3.6 6.36 3.6v7.56l-6.36 3.6zm-17.4 0l-6.36-3.6v-7.92l6.36-3.6 6.36 3.6v7.56l-6.36 3.6zm-17.4 0l-5.64-3.84v-7.68l6.36-3.6 6.36 3.6v7.56l-6.36 3.6zm-17.28 0l-6.36-3.6v-7.92l6.36-3.6 6.36 3.6v7.56l-6.36 3.6zm-17.4 0l-6.96-3.84v-7.68l6.36-3.6 6.36 3.6v7.56l-6.36 3.6zm-17.4 0l-6.36-3.6v-7.92l6.36-3.6 6.36 3.6v7.56l-6.36 3.6zm-17.28 0l-5.88-3.84v-7.68l6.36-3.6 6.36 3.6v7.56l-6.36 3.6zm-17.28 0l-6.36-3.6v-7.92l6.96-3.6 6.36 3.6v7.56l-6.36 3.6zm-17.4 0l-6.36-3.6v-7.92l6.36-3.6 6.36 3.6v7.56l-6.36 3.6zm-17.28 0l-6.36-3.6v-7.92l6.84-3.6 6.36 3.6v7.56l-6.36 3.6zm-17.4 0l-6.36-3.6v-7.92l6.36-3.6 6.36 3.6v7.56l-6.36 3.6zm-17.28 0l-5.64-3.84v-7.68l6.36-3.6 6.36 3.6v7.56l-6.36 3.6zm225.36 30l-6.36-3.6v-7.44l6.36-3.6 6.36 3.6v7.56l-6.36 3.6zm-17.4 0l-6.36-3.6v-7.44l6.36-3.6 6.36 3.6v7.56l-6.36 3.6zm-17.28 0l-6.36-3.6v-7.44l6.36-3.6 6.36 3.6v7.56l-6.36 3.6zm-17.4 0l-6.36-3.6v-7.44l6.36-3.6 6.36 3.6v7.56l-6.36 3.6zm-17.4 0l-5.52-3.72v-7.44l6.36-3.6 6.36 3.6v7.56l-6.36 3.6zm-17.28 0l-6.36-3.6v-7.44l6.36-3.6 6.36 3.6v7.56l-6.36 3.6zm-17.4 0l-6.84-3.72v-7.44l6.36-3.6 6.36 3.6v7.56l-6.36 3.6zm-17.4 0l-6.36-3.6v-7.44l6.36-3.6 6.36 3.6v7.56l-6.36 3.6zm-17.28 0l-5.76-3.72v-7.44l6.36-3.6 6.36 3.6v7.56l-6.36 3.6zm-17.28 0l-6.36-3.6v-7.44l7.08-4.08 6.36 3.6v7.56l-6.36 3.6zm-17.4 0l-6.36-3.6v-7.44l6.36-3.6 6.36 3.6v7.56l-6.36 3.6zm-17.28 0l-6.36-3.6v-7.44l6.96-4.08 6.36 3.6v7.56l-6.36 3.6zm-17.4 0l-6.36-3.6v-7.44l6.36-3.6 6.36 3.6v7.56l-6.36 3.6zm-17.28 0l-5.52-3.72v-7.44l6.36-3.6 6.36 3.6v7.56l-6.36 3.6zm234-15l-5.52-3.72v-7.44l6.36-3.6 6.36 3.6v7.44l-6.36 3.6zm-17.4 0l-5.52-3.72v-7.44l6.36-3.6 6.36 3.6v7.44l-6.36 3.6zm-17.28 0l-5.64-3.72v-7.44l6.36-3.6 6.36 3.6v7.44l-6.36 3.6zm-17.4 0l-5.52-3.72v-7.44l6.36-3.6 6.36 3.6v7.44l-6.36 3.6zm-17.4 0l-5.4-3.72v-7.44l6.36-3.6 6.36 3.6v7.44l-6.36 3.6zm-17.28 0l-5.52-3.72v-7.44l6.36-3.6 6.36 3.6v7.44l-6.36 3.6zm-17.4 0l-5.4-3.72v-7.44l6.36-3.6 6.36 3.6v7.44l-6.36 3.6zm-17.4 0l-5.4-3.72v-7.44l6.36-3.6 6.36 3.6v7.44l-6.36 3.6zm-17.4 0l-5.28-3.72v-7.44l6.36-3.6 6.36 3.6v7.44l-6.36 3.6zm-17.4 0l-5.16-3.72v-7.44l6.36-3.6 6.36 3.6v7.44l-6.36 3.6zm-17.28 0l-5.28-3.72v-7.44l6.36-3.6 6.36 3.6v7.44l-6.36 3.6zm-17.28 0l-5.4-3.72v-7.44l6.36-3.6 6.36 3.6v7.44l-6.36 3.6zm-17.4 0l-5.28-3.72v-7.44l6.36-3.6 6.36 3.6v7.44l-6.24 3.6zm-17.4 0l-5.4-3.72v-7.44l6.36-3.6 6.36 3.6v7.44l-6.36 3.6zm-17.4 0l-5.16-3.72v-7.44l6.36-3.6 6.36 3.6v7.44l-6.36 3.6zm242.76 30l-5.16-3.72v-7.44l6.36-3.6 6.36 3.6v7.56l-6.36 3.6zm-17.4 0l-6.36-3.6v-7.44l6.36-3.6 6.36 3.6v7.56l-6.36 3.6zm-17.28 0l-5.28-3.72v-7.44l6.36-3.6 6.36 3.6v7.56l-6.36 3.6zm-17.4 0l-6.36-3.6v-7.44l6.36-3.6 6.36 3.6v7.56l-6.36 3.6zm-17.4 0l-6.36-3.6v-7.44l6.36-3.6 6.36 3.6v7.56l-6.36 3.6zm-17.28 0l-6.36-3.6v-7.44l6.36-3.6 6.36 3.6v7.56l-6.36 3.6zm-17.4 0l-6.36-3.6v-7.44l6.36-3.6 6.36 3.6v7.56l-6.36 3.6zm-17.4 0l-6.36-3.6v-7.44l6.36-3.6 6.36 3.6v7.56l-6.36 3.6zm-17.4 0l-4.92-3.72v-7.44l6.36-3.6 6.36 3.6v7.56l-6.36 3.6zm-17.4 0l-4.8-3.72v-7.44l6.36-3.6 6.36 3.6v7.56l-6.36 3.6zm-17.28 0l-4.92-3.72v-7.44l6.36-3.6 6.36 3.6v7.56l-6.36 3.6zm-17.28 0l-5.04-3.72v-7.44l6.36-3.6 6.36 3.6v7.56l-6.36 3.6zm-17.4 0l-4.92-3.72v-7.44l6.36-3.6 6.36 3.6v7.56l-6.24 3.48zm-17.4 0l-5.04-3.72v-7.44l6.36-3.6 6.36 3.6v7.56l-6.36 3.6zm-17.4 0l-4.8-3.72v-7.44l6.36-3.6 6.36 3.6v7.56l-6.36 3.48zm244.32-60.12l-6.36-3.6v-7.44l6.36-3.6 6.36 3.6v7.56l-6.36 3.6zm-17.4 0l-6.36-3.6v-7.44l6.36-3.6 6.36 3.6v7.56l-6.36 3.6zm-17.28 0l-6.36-3.6v-7.44l6.36-3.6 6.36 3.6v7.56l-6.36 3.6zm-17.4 0l-6.36-3.6v-7.44l6.36-3.6 6.36 3.6v7.56l-6.36 3.6zm-17.4 0l-6.36-3.6v-7.44l6.36-3.6 6.36 3.6v7.56l-6.36 3.6zm-17.28 0l-6.36-3.6v-7.44l6.36-3.6 6.36 3.6v7.56l-6.36 3.6zm-17.4 0l-6.36-3.6v-7.44l6.36-3.6 6.36 3.6v7.56l-6.36 3.6zm-17.4 0l-6.36-3.6v-7.44l6.36-3.6 6.36 3.6v7.56l-6.36 3.6zm-17.4 0l-6.36-3.6v-7.44l6.36-3.6 6.36 3.6v7.56l-6.36 3.6zm-17.4 0l-6-3.84v-7.44l6.36-3.6 6.36 3.6v7.56l-6.36 3.6zm-17.28 0l-6.36-3.6v-7.44l6.36-3.6 6.36 3.6v7.56l-6.36 3.6zm-17.28 0l-6.24-3.84v-7.44l6.36-3.6 6.36 3.6v7.56l-6.36 3.6zm-17.4 0l-6.36-3.6v-7.44l6.36-3.6 6.36 3.6v7.56l-6 3.48zm-17.4 0l-6.24-3.84v-7.44l6.36-3.6 6.36 3.6v7.56l-6.36 3.6zm-17.4 0l-6.36-3.6v-7.44l6.36-3.6 6.36 3.6v7.56l-6 3.48zm234-15l-6.36-3.6v-7.44l6.36-3.6 6.36 3.6v7.44l-6.36 3.6zm-17.4 0l-6.36-3.6v-7.44l6.36-3.6 6.36 3.6v7.44l-6.36 3.6zm-17.28 0l-6.36-3.6v-7.44l6.36-3.6 6.36 3.6v7.44l-6.36 3.6zm-17.4 0l-6.36-3.6v-7.44l6.36-3.6 6.36 3.6v7.44l-6.36 3.6zm-17.4 0l-5.76-3.84v-7.44l6.36-3.6 6.36 3.6v7.44l-6.36 3.6zm-17.28 0l-6.36-3.6v-7.44l6.36-3.6 6.36 3.6v7.44l-6.36 3.6zm-17.4 0l-7.08-3.84v-7.44l6.36-3.6 6.36 3.6v7.44l-6.36 3.6zm-17.4 0l-6.36-3.6v-7.44l6.36-3.6 6.36 3.6v7.44l-6.36 3.6zm-17.28 0l-6-3.84v-7.44l6.36-3.6 6.36 3.6v7.44l-6.36 3.6zm-17.28 0l-6.36-3.6v-7.44l6.36-3.6 6.36 3.6v7.44l-6.36 3.6zm-17.4 0l-6.36-3.6v-7.44l6.36-3.6 6.36 3.6v7.44l-6.36 3.6zm-17.28 0l-6.36-3.6v-7.44l6.36-3.6 6.36 3.6v7.44l-6.36 3.6zm-17.4 0l-6.36-3.6v-7.44l6.36-3.6 6.36 3.6v7.44l-6.36 3.6zm-17.28 0l-5.76-3.84v-7.44l6.36-3.6 6.36 3.6v7.44l-6.36 3.6zm234-15l-6.36-3.6v-7.44l6.36-3.6 6.36 3.6v7.56l-6.36 3.6zm-17.4 0l-6.36-3.6v-7.44l6.36-3.6 6.36 3.6v7.56l-6.36 3.6zm-17.28 0l-6.36-3.6v-7.44l6.36-3.6 6.36 3.6v7.56l-6.36 3.6zm-17.4 0l-6.36-3.6v-7.44l6.36-3.6 6.36 3.6v7.56l-6.36 3.6zm-17.4 0l-6.36-3.6v-7.44l6.36-3.6 6.36 3.6v7.56l-6.36 3.6zm-17.28 0l-6.36-3.6v-7.44l6.36-3.6 6.36 3.6v7.56l-6.36 3.6zm-17.4 0l-6.36-3.6v-7.44l6.36-3.6 6.36 3.6v7.56l-6.36 3.6zm-17.4 0l-6.36-3.6v-7.44l6.36-3.6 6.36 3.6v7.56l-6.36 3.6zm-17.4 0l-6.36-3.6v-7.44l6.36-3.6 6.36 3.6v7.56l-6.36 3.6zm-17.4 0l-6.36-3.6v-7.44l6.36-3.6 6.36 3.6v7.56l-6.36 3.6zm-17.28 0l-6.36-3.6v-7.44l6.36-3.6 6.36 3.6v7.56l-6.36 3.6zm-17.28 0l-6.36-3.6v-7.44l6.36-3.6 6.36 3.6v7.56l-6.36 3.6zm-17.4 0l-6.36-3.6v-7.44l6.36-3.6 6.36 3.6v7.56l-6.36 3.6zm-17.4 0l-6.36-3.6v-7.44l6.36-3.6 6.36 3.6v7.56l-6.36 3.6zm-17.4 0l-6.36-3.6v-7.44l6.36-3.6 6.36 3.6v7.56l-6.36 3.6zm234-15.12l-6.36-3.6v-7.44l6.36-3.6 6.36 3.6v7.56l-6.36 3.6zm-17.4 0l-6.36-3.6v-7.44l6.36-3.6 6.36 3.6v7.56l-6.36 3.6zm-17.28 0l-6.36-3.6v-7.44l6.36-3.6 6.36 3.6v7.56l-6.36 3.6zm-17.4 0l-6.36-3.6v-7.44l6.36-3.6 6.36 3.6v7.56l-6.36 3.6zm-17.4 0l-6.36-3.6v-7.44l6.36-3.6 6.36 3.6v7.56l-6.36 3.6zm-17.28 0l-6.36-3.6v-7.44l6.36-3.6 6.36 3.6v7.56l-6.36 3.6zm-17.4 0l-6.36-3.6v-7.44l6.36-3.6 6.36 3.6v7.56l-6.36 3.6zm-17.4 0l-6.36-3.6v-7.44l6.36-3.6 6.36 3.6v7.56l-6.36 3.6zm-17.28 0l-6.36-3.6v-7.44l6.36-3.6 6.36 3.6v7.56l-6.36 3.6zm-17.28 0l-6.36-3.6v-7.44l6.36-3.6 6.36 3.6v7.56l-6.36 3.6zm-17.4 0l-6.36-3.6v-7.44l6.36-3.6 6.36 3.6v7.56l-6.36 3.6zm-17.28 0l-6.36-3.6v-7.44l6.36-3.6 6.36 3.6v7.56l-6.36 3.6zm-17.4 0l-6.36-3.6v-7.44l6.36-3.6 6.36 3.6v7.56l-6.36 3.6zm-17.28 0l-5.16-3.84v-7.44l6.36-3.6 6.36 3.6v7.56l-6.36 3.6z"/><path id="c" d="M463.565 366.41v-17.16l-4.56-2.76v-7.68l4.56-2.76v-17.16l-4.56-2.76v-7.32l4.56-2.76v-17.16l-4.56-2.88v-7.2l4.56-2.76v-9.84c0-3.84-3.12-7.2-7.2-7.2-1.68 0-3.24-.6-4.56-1.68l-4.08 2.4-6-2.52v-7.44l6.36-3.6 1.56.84v-22.8h-262.68v22.56l.84-.48 6.36 3.6v7.32l-6.36 3.6-3.6-2.16c-1.2-.24-2.88.48-4.08.48a7.41 7.41 0 0 0-6.6 4.08l5.64-3.36 6.36 3.6v7.56l-6.36 3.6-6.24-3.48v22.56l6.24-3.6 6.36 3.6v7.56l-6.36 3.6-6.24-3.6v22.56l6.24-3.6 6.36 3.6v7.56l-6.36 3.6-6.24-3.6v22.56l6.24-3.6 6.36 3.6v7.56l-6.36 3.72-6.24-3.6v8.16c0 4.08 3.36 7.44 7.56 7.44h2.4l-1.2-.72v-7.44l6.24-3.84 6.36 3.6v7.44l-1.2.96h6.96l-1.2-.72v-7.44l6.48-3.84 6.36 3.6v7.44l-1.32.96h6.96l-1.2-.72v-7.44l6.48-3.84 6.36 3.6v7.44l-1.2.96h6.96l-1.2-.72v-7.44l6.36-3.84 6.36 3.6v7.44l-1.32.96h7.2l-1.2-.72v-7.44l6.36-3.84 6.36 3.6v7.44l-1.2.96h6.96l-1.2-.72v-7.44l6.36-3.84 6.36 3.84v7.44.72h6.96l-2.16-.72v-7.44l6.24-3.84 6.36 3.6v7.44l-1.2.96h6.96l-1.2-.72v-7.44l6.36-3.6 6.36 3.6v7.44l-1.08.72h6.96l-1.2-.72v-7.44l6.24-3.84 6.36 3.6v7.44l-1.08.96h6.96l-1.2-.72v-7.44l6.36-3.6 6.36 3.6v7.44l-1.2.72h6.96l-1.2-.72v-7.44l6.48-3.84 6.36 3.6v7.44l-1.2.96h6.96l-1.2-.72v-7.44l6.36-3.6 6.36 3.6v7.44l-1.2.72h6.96l-1.2-.72v-7.44l6.6-3.84 6.36 3.6v7.44l-1.32.96h6.96l-1.2-.72v-7.44l6.36-3.6 6.36 3.6v7.44l-1.2.72h6.96l-1.2-.72v-7.44l6.36-3.6 6.36 3.6v7.44l-1.2.72h6.96l-1.2-.72v-7.44l6.36-3.6 6.36 3.6v7.44l-1.08.72h2.88c1.2 0 2.04-.24 3-.6l-.12-.12v-7.44l4.56-2.76zm-32.88-106.44l-6.36-2.76v-7.44l6.36-3.6 6.36 3.6v7.44l-6.36 3.6zm-17.4 0l-6.36-2.76v-7.44l6.36-3.6 6.36 3.6v7.44l-6.36 3.6zm-17.28 0l-6.36-2.76v-7.44l6.36-3.6 6.36 3.6v7.44l-6.36 3.6zm-17.4 0l-6.48-2.76v-7.44l6.36-3.6 6.36 3.6v7.44l-6.36 3.6zm-17.28 0l-6.36-2.76v-7.44l6.36-3.6 6.36 3.6v7.44l-6.36 3.6zm-17.4 0l-6.36-2.76v-7.44l6.36-3.6 6.36 3.6v7.44l-6.36 3.6zm-17.4 0l-6.24-2.76v-7.44l6.36-3.6 6.36 3.6v7.44l-6.36 3.6zm-17.28 0l-6.36-2.76v-7.44l6.36-3.6 6.36 3.6v7.44l-6.36 3.6zm-17.28 0l-6.24-2.76v-7.44l6.36-3.6 6.36 3.6v7.44l-6.36 3.6zm-17.28 0l-6.48-2.76v-7.44l6.36-3.6 6.36 3.6v7.44l-6.36 3.6zm-17.4 0l-6.36-2.76v-7.44l6.36-3.6 6.36 3.6v7.44l-6.36 3.6zm-17.4 0l-6.36-2.76v-7.44l6.36-3.6 6.36 3.6v7.44l-6.36 3.6zm-17.28 0l-6.48-2.76v-7.44l6.36-3.6 6.36 3.6v7.44l-6.36 3.6zm-17.28 0l-6.48-2.76v-7.44l6.36-3.6 6.36 3.6v7.44l-6.36 3.6zm234-15l-6.36-3.6v-7.44l6.36-3.6 6.36 3.6v7.56l-6.36 3.6zm-17.28 0l-6.36-3.6v-7.44l6.36-3.6 6.36 3.6v7.56l-6.36 3.6zm-17.4 0l-6.36-3.6v-7.44l6.36-3.6 6.36 3.6v7.56l-6.36 3.6zm-17.4 0l-6.36-3.6v-7.44l6.36-3.6 6.36 3.6v7.56l-6.36 3.6zm-17.4 0l-6.36-3.6v-7.44l6.36-3.6 6.36 3.6v7.56l-6.36 3.6zm-17.28 0l-6.36-3.6v-7.44l6.36-3.6 6.36 3.6v7.56l-6.36 3.6zm-17.4 0l-6.36-3.6v-7.44l6.36-3.6 6.36 3.6v7.56l-6.36 3.6zm-17.4 0l-6.36-3.6v-7.44l6.36-3.6 6.36 3.6v7.56l-6.36 3.6zm-17.28 0l-6.36-3.6v-7.44l6.36-3.6 6.36 3.6v7.56l-6.36 3.6zm-17.4 0l-6.36-3.6v-7.44l6.36-3.6 6.36 3.6v7.56l-6.36 3.6zm-17.28 0l-6.36-3.6v-7.44l6.36-3.6 6.36 3.6v7.56l-6.36 3.6zm-17.4 0l-6.36-3.6v-7.44l6.36-3.6 6.36 3.6v7.56l-6.36 3.6zm-17.28 0l-6.36-3.6v-7.44l6.36-3.6 6.36 3.6v7.56l-6.36 3.6zm-17.4 0l-6.36-3.6v-7.44l6.36-3.6 6.36 3.6v7.56l-6.36 3.6zm-17.4 0l-6.36-3.6v-7.44l6.36-3.6 6.36 3.6v7.56l-6.36 3.6zm251.4 105.36l-6.36-3.6v-7.92l6.36-3.6 6.36 3.6v7.56l-6.36 3.6zm-17.28 0l-6.36-3.6v-7.92l6.36-3.6 6.36 3.6v7.56l-6.36 3.6zm-17.4 0l-6.36-3.6v-7.92l6.36-3.6 6.36 3.6v7.56l-6.36 3.6zm-17.28 0l-6.36-3.6v-7.92l6.36-3.6 6.36 3.6v7.56l-6.36 3.6zm-17.4 0l-6.36-3.6v-7.92l6.36-3.6 6.36 3.6v7.56l-6.36 3.6zm-17.28 0l-6.36-3.6v-7.92l6.36-3.6 6.36 3.6v7.56l-6.36 3.6zm-17.4 0l-6.36-3.6v-7.92l6.36-3.6 6.36 3.6v7.56l-6.36 3.6zm-17.4 0l-6.36-3.6v-7.92l6.36-3.6 6.36 3.6v7.56l-6.36 3.6zm-17.28 0l-6.36-3.6v-7.92l6.36-3.6 6.36 3.6v7.56l-6.36 3.6zm-17.28 0l-6-3.96v-7.56l6.36-3.6 6.36 3.6v7.56l-6.36 3.6zm-17.28 0l-6.36-3.6v-7.92l6.36-3.6 6.36 3.6v7.56l-6.36 3.6zm-17.4 0l-6.12-3.96v-7.56l6.36-3.6 6.36 3.6v7.56l-6.36 3.6zm-17.4 0l-6.36-3.6v-7.92l6.36-3.6 6.36 3.6v7.56l-6.36 3.6zm-17.28 0l-6.24-3.96v-7.56l6.36-3.6 6.36 3.6v7.56l-6.36 3.6zm-17.28 0l-6.36-3.6v-7.92l6.6-3.6 6.36 3.6v7.56l-6.36 3.6zm-17.4 0l-6.36-3.6v-7.92l6.36-3.6 6.36 3.6v7.56l-6.36 3.6zm268.8 15l-6.36-3.72v-7.44l6.36-3.6 6.36 3.6v7.56l-6.36 3.6zm-17.28 0l-6.36-3.6v-7.44l6.36-3.6 6.36 3.6v7.56l-6.24 3.36zm-17.28 0l-6.36-3.6v-7.44l6.36-3.6 6.36 3.6v7.56l-6.36 3.6zm-17.4 0l-6.36-3.6v-7.44l6.36-3.6 6.36 3.6v7.56l-6.36 3.36zm-17.4 0l-6.36-3.6v-7.44l6.36-3.6 6.36 3.6v7.56l-6.36 3.6zm-17.4 0l-6-3.72v-7.44l6.36-3.6 6.36 3.6v7.56l-6.36 3.6zm-17.28 0l-6.36-3.6v-7.44l6.36-3.6 6.36 3.6v7.56l-6.36 3.6zm-17.4 0l-6.12-3.72v-7.44l6.36-3.6 6.36 3.6v7.56l-6.36 3.6zm-17.4 0l-6.36-3.6v-7.44l6.36-3.6 6.36 3.6v7.56l-6.36 3.6zm-17.28 0l-6.24-3.72v-7.44l6.36-3.6 6.36 3.6v7.56l-6.36 3.6zm-17.04-.12l-6.48-3.6v-7.44l6.36-3.6 6.36 3.6v7.56l-6.24 3.48zm-17.28 0l-6.48-3.6v-7.44l6.36-3.6 6.36 3.6v7.56l-6.36 3.48zm-17.52 0l-6.36-3.6v-7.44l6.36-3.6 6.36 3.6v7.56l-6.36 3.48zm-17.28 0l-6.36-3.6v-7.44l6.36-3.6 6.36 3.6v7.56l-6.36 3.48zm-17.52 0l-6.24-3.6v-7.44l6.36-3.6 6.36 3.6v7.56l-6.48 3.48zm-17.4 0l-6.12-3.6v-7.44l6.36-3.6 6.36 3.6v7.56l-6.36 3.48zm260.16-30l-6.36-3.6v-7.44l6.36-3.6 6.36 3.6v7.56l-6.36 3.6zm-17.28 0l-6.36-3.6v-7.44l6.36-3.6 6.36 3.6v7.56l-6.36 3.6zm-17.28 0l-6.36-3.6v-7.44l6.36-3.6 6.36 3.6v7.56l-6.36 3.6zm-17.4 0l-6.36-3.6v-7.44l6.36-3.6 6.36 3.6v7.56l-6.36 3.6zm-17.4 0l-6.36-3.6v-7.44l6.36-3.6 6.36 3.6v7.56l-6.36 3.6zm-17.4 0l-6.36-3.6v-7.44l6.36-3.6 6.36 3.6v7.56l-6.36 3.6zm-17.28 0l-6.36-3.6v-7.44l6.36-3.6 6.36 3.6v7.56l-6.36 3.6zm-17.4 0l-6.12-3.84v-7.44l6.36-3.6 6.36 3.6v7.56l-6.36 3.6zm-17.4 0l-6.36-3.6v-7.44l6.36-3.6 6.36 3.6v7.56l-6.36 3.6zm-17.28 0l-6.36-3.6v-7.44l6.36-3.6 6.36 3.6v7.56l-6.36 3.6zm-17.4 0l-6.36-3.6v-7.44l6.36-3.6 6.36 3.6v7.56l-6 3.48zm-17.28 0l-6.36-3.6v-7.44l6.36-3.6 6.36 3.6v7.56l-6.36 3.6zm-17.4 0l-6.36-3.6v-7.44l6.36-3.6 6.36 3.6v7.56l-6.12 3.48zm-17.28 0l-6.36-3.6v-7.44l6.36-3.6 6.36 3.6v7.56l-6.36 3.6zm-17.4 0l-6.36-3.6v-7.44l6.36-3.6 6.36 3.6v7.56l-6.24 3.48zm-17.4 0l-6.36-3.6v-7.44l6.36-3.6 6.36 3.6v7.56l-6.36 3.6zm251.4-15l-6.36-3.6v-7.8l6.36-3.6 6.36 3.6v7.56l-6.36 3.6zm-17.28 0l-6.36-3.6v-7.8l6.36-3.6 6.36 3.6v7.56l-6.36 3.6zm-17.4 0l-6.36-3.6v-7.8l6.36-3.6 6.36 3.6v7.56l-6.36 3.6zm-17.28 0l-6.36-3.6v-7.8l6.84-3.6 6.36 3.6v7.56l-6.36 3.6zm-17.4 0l-6.36-3.6v-7.8l6.36-3.6 6.36 3.6v7.56l-6.36 3.6zm-17.28 0l-6.36-3.6v-7.8l6.72-3.6 6.36 3.6v7.56l-6.36 3.6zm-17.4 0l-6.36-3.6v-7.8l6.36-3.6 6.36 3.6v7.56l-6.36 3.6zm-17.4 0l-6.36-3.6v-7.8l6.72-3.6 6.36 3.6v7.56l-6.36 3.6zm-17.28 0l-6.36-3.6v-7.8l6.36-3.6 6.36 3.6v7.56l-6.36 3.6zm-17.28 0l-5.88-3.96v-7.44l6.24-3.6 6.36 3.6v7.56l-6.36 3.6zm-17.28 0l-6.36-3.6v-7.8l6.6-3.6 6.36 3.6v7.56l-6.36 3.6zm-17.4 0l-6-3.96v-7.44l6.36-3.6 6.36 3.6v7.56l-6.36 3.6zm-17.4 0l-6.36-3.6v-7.8l6.72-3.6 6.24 3.6v7.56l-6.36 3.6zm-17.28 0l-6.12-3.96v-7.44l6.48-3.6 6.36 3.6v7.56l-6.36 3.6zm-17.28 0l-6.36-3.6v-7.8l6.72-3.6 6.36 3.6v7.56l-6.36 3.6zm-17.4 0l-6.36-3.6v-7.8l6.72-3.6 6.36 3.6v7.56l-6.36 3.6zm268.8-45.12l-6.36-3.6v-7.44l6.36-3.6 6.36 3.6v7.56l-6.36 3.6zm-17.28 0l-6.36-3.6v-7.44l6.36-3.6 6.36 3.6v7.56l-6.36 3.6zm-17.28 0l-6.36-3.6v-7.44l6.36-3.6 6.36 3.6v7.56l-6.36 3.6zm-17.4 0l-6.36-3.6v-7.44l6.36-3.6 6.36 3.6v7.56l-6.36 3.6zm-17.4 0l-6.36-3.6v-7.44l6.36-3.6 6.36 3.6v7.56l-6.36 3.6zm-17.4 0l-6.36-3.6v-7.44l6.36-3.6 6.36 3.6v7.56l-6.36 3.6zm-17.28 0l-6.36-3.6v-7.44l6.36-3.6 6.36 3.6v7.56l-6.36 3.6zm-17.4 0l-6-3.96v-7.44l6.36-3.6 6.36 3.6v7.56l-6.36 3.6zm-17.4 0l-6.36-3.6v-7.44l6.36-3.6 6.36 3.6v7.56l-6.36 3.6zm-17.28 0l-6.36-3.6v-7.44l6.36-3.6 6.36 3.6v7.56l-6.36 3.6zm-17.4 0l-6.36-3.6v-7.44l6.36-3.6 6.36 3.6v7.56l-6.36 3.6zm-17.28 0l-6.36-3.6v-7.44l6.36-3.6 6.36 3.6v7.56l-6.36 3.6zm-17.4 0l-6.36-3.6v-7.44l6.36-3.6 6.36 3.6v7.56l-6.36 3.6zm-17.28 0l-6.36-3.6v-7.44l6.36-3.6 6.36 3.6v7.56l-6.36 3.6zm-17.4 0l-6.36-3.6v-7.44l6.36-3.6 6.36 3.6v7.56l-6.36 3.6zm-17.4 0l-6.36-3.6v-7.44l6.36-3.6 6.36 3.6v7.56l-6.36 3.6zm260.16 30l-6.36-3.6v-7.44l6.36-3.6 6.36 3.6v7.56l-6.36 3.6zm-17.28 0l-6.36-3.6v-7.44l6.36-3.6 6.36 3.6v7.56l-6.36 3.6zm-17.28 0l-6.36-3.6v-7.44l6.36-3.6 6.36 3.6v7.56l-6.36 3.6zm-17.4 0l-6.36-3.6v-7.44l6.36-3.6 6.36 3.6v7.56l-6.36 3.6zm-17.4 0l-6.36-3.6v-7.44l6.36-3.6 6.36 3.6v7.56l-6.36 3.6zm-17.4 0l-6.36-3.6v-7.44l6.36-3.6 6.36 3.6v7.56l-6.36 3.6zm-17.28 0l-6.36-3.6v-7.44l6.36-3.6 6.36 3.6v7.56l-6.36 3.6zm-17.4 0l-5.88-3.84v-7.44l6.36-3.6 6.36 3.6v7.56l-6.36 3.6zm-17.4 0l-6.36-3.6v-7.44l6.36-3.6 6.36 3.6v7.56l-6.36 3.6zm-17.28 0l-6.36-3.6v-7.44l6.36-3.6 6.36 3.6v7.56l-6.36 3.6zm-17.4 0l-6.36-3.6v-7.44l6.36-3.6 6.36 3.6v7.56l-6.36 3.6zm-17.28 0l-6.36-3.6v-7.44l6.36-3.6 6.36 3.6v7.56l-6.36 3.6zm-17.4 0l-6.36-3.6v-7.44l6.36-3.6 6.36 3.6v7.56l-6.36 3.6zm-17.28 0l-6.36-3.6v-7.44l6.36-3.6 6.36 3.6v7.56l-6.36 3.6zm-17.4 0l-6.36-3.6v-7.44l6.36-3.6 6.36 3.6v7.56l-6.36 3.6zm-17.4 0l-6.36-3.6v-7.44l6.36-3.6 6.36 3.6v7.56l-6.36 3.6zm251.4-15l-5.64-4.08v-7.2l6.36-3.6 6.36 3.6v7.56l-6.36 3.6zm-17.28 0l-6.36-3.6v-7.68l6.36-3.6 6.36 3.6v7.56l-6.36 3.6zm-17.4 0l-5.76-4.08v-7.2l6.36-3.6 6.36 3.6v7.56l-6.36 3.6zm-17.28 0l-6.36-3.6v-7.68l6.36-3.6 6.36 3.6v7.56l-6.36 3.6zm-17.4 0l-5.88-4.08v-7.2l6.36-3.6 6.36 3.6v7.56l-6.36 3.6zm-17.28 0l-6.36-3.6v-7.68l6.36-3.6 6.36 3.6v7.56l-6.36 3.6zm-17.4 0l-6.36-3.6v-7.68l6.36-3.6 6.36 3.6v7.56l-6.36 3.6zm-17.4 0l-6.36-3.6v-7.68l6.36-3.6 6.36 3.6v7.56l-6.36 3.6zm-17.28 0l-6.36-3.6v-7.68l6.36-3.6 6.36 3.6v7.56l-6.36 3.6zm-17.28 0l-5.64-4.08v-7.2l6.36-3.6 6.36 3.6v7.56l-6.36 3.6zm-17.28 0l-5.88-4.08v-7.2l6.36-3.6 6.36 3.6v7.56l-6.36 3.6zm-17.4 0l-5.76-4.08v-7.2l6.36-3.6 6.36 3.6v7.56l-6.36 3.6zm-17.4 0l-5.76-4.08v-7.2l6.36-3.6 6.36 3.6v7.56l-6.36 3.6zm-17.28 0l-5.88-4.08v-7.2l6.36-3.6 6.36 3.6v7.56l-6.36 3.6zm-17.28 0l-5.88-4.08v-7.2l6.36-3.6 6.36 3.6v7.56l-6.36 3.6zm-17.4 0l-5.76-4.08v-7.2l6.36-3.6 6.36 3.6v7.56l-6.36 3.6z"/><path id="d" d="M253.085 237.52h131.28v-56.4h-131.28v56.4z"/><path id="e" d="M384.335 237.5l62.4 5.64V175.7l-62.4 5.52v56.4z"/><path id="f" d="M190.735 243.14l62.4-5.64v-56.4l-62.4-5.4v67.44z"/><path id="g" d="M126.055 260.96h6.6v-103.2h-6.6v103.2z"/><path id="h" d="M132.615 260.96h2.76v-7.44l15.6-1.2.12-85.8-15.6-1.2v-7.56h-2.88v103.2z"/><path id="i" d="M135.425 165.38l38.4 2.76v-7.44l-38.4-2.88v7.56z"/><path id="j" d="M135.425 253.4l38.4-2.76v7.44l-38.4 2.88v-7.56z"/><path id="k" d="M151.235 166.51l23.88 1.8v82.56l-24 1.44.12-85.8z"/><path id="l" d="M511.365 260.96h-6.6v-103.2h6.6v103.2z"/><path id="m" d="M504.805 260.96h-2.76v-7.44l-15.6-1.2-.12-85.8 15.6-1.2v-7.56h2.88v103.2z"/><path id="n" d="M501.985 165.38l-38.4 2.76v-7.44l38.4-2.88v7.56z"/><path id="o" d="M501.985 253.4l-38.4-2.76v7.44l38.4 2.88v-7.56z"/><path id="p" d="M486.175 166.51l-23.88 1.8v82.56l24 1.44-.12-85.8z"/><path id="q" d="M227.2 29.662v9.953h-2.051l-3.992-6.549v6.549h-2.051v-9.953h2.051l3.999 6.563v-6.562h2.044z"/><path id="r" d="M230.803 29.662l1.866 3.432 1.866-3.432h2.358l-2.898 4.936 2.974 5.018h-2.386l-1.914-3.486-1.914 3.486h-2.386l2.974-5.018-2.898-4.936h2.358z"/><path id="s" d="M244.31 39.615l-.69-2.051h-3.596l-.684 2.051h-2.181l3.705-9.953h1.9l3.726 9.953h-2.181zm-2.495-7.437l-1.237 3.726h2.488l-1.251-3.726z"/><path id="t" d="M251.133 34.556v1.593h-3.849v-1.593h3.849z"/><path id="u" d="M272.495 39.615h-3.869v-9.953h3.486q1.812 0 2.748.694.937.694.937 2.034 0 .731-.376 1.289-.376.557-1.046.817.766.191 1.207.772.441.581.441 1.422 0 1.436-.916 2.174-.916.738-2.611.752zm.062-4.334h-1.88v2.687h1.757q.725 0 1.131-.345.407-.345.407-.954 0-1.367-1.415-1.388zm-1.88-3.958v2.509h1.518q1.552-.027 1.552-1.237 0-.677-.393-.974-.393-.297-1.241-.297h-1.436z"/><path id="v" d="M287.575 29.648v9.967h-1.976V32l-2.358.731v-1.606l4.122-1.477h.212z"/><path id="w" d="M295.839 29.559h.328v1.627h-.191q-1.34.021-2.157.697-.817.677-.981 1.88.793-.807 2.003-.807 1.299 0 2.064.93.766.93.766 2.447 0 .971-.42 1.757-.42.786-1.189 1.224-.769.438-1.74.438-1.572 0-2.54-1.094-.967-1.094-.967-2.919v-.711q0-1.62.612-2.861.612-1.241 1.757-1.921 1.145-.68 2.656-.687zm-1.6 4.983q-.479 0-.868.25-.39.25-.574.66v.602q0 .991.39 1.548.39.557 1.094.557.636 0 1.029-.502.393-.502.393-1.302 0-.813-.396-1.312-.396-.499-1.066-.499z"/><path id="x" d="M305.54 33.668V35.5q0 2.064-.854 3.158-.854 1.094-2.502 1.094-1.627 0-2.488-1.073-.861-1.073-.882-3.076V33.77q0-2.085.865-3.165.865-1.08 2.492-1.08 1.627 0 2.488 1.07.861 1.07.882 3.073zm-1.976 2.188V33.49q0-1.237-.338-1.801-.338-.564-1.056-.564-.697 0-1.029.537-.332.537-.352 1.678v2.42q0 1.217.332 1.808.332.591 1.063.591.725 0 1.046-.567.321-.567.335-1.736z"/><path id="y" d="M312.847 36.299h2.051q-.116 1.606-1.186 2.529-1.07.923-2.82.923-1.914 0-3.011-1.289-1.097-1.289-1.097-3.538v-.608q0-1.436.506-2.529.506-1.094 1.446-1.678.94-.584 2.184-.584 1.723 0 2.775.923 1.053.923 1.217 2.591h-2.051q-.075-.964-.537-1.398-.461-.434-1.405-.434-1.025 0-1.535.735-.509.735-.523 2.28v.752q0 1.613.489 2.358.489.745 1.542.745.95 0 1.418-.434.468-.434.537-1.343z"/><path id="z" d="M322.233 33.893v1.654h-3.937v4.067h-2.051v-9.953h6.48v1.661h-4.43v2.57h3.938z"/><path id="AA" d="M323.915 29.662h2.68l2.557 7.219 2.543-7.219h2.693v9.953h-2.058v-2.721l.205-4.696-2.687 7.417h-1.408l-2.68-7.41.205 4.689v2.721h-2.051v-9.953z"/><path id="AB" d="M342.789 38.022v1.593h-6.822v-1.354l3.22-3.432q.663-.725.981-1.265.318-.54.318-1.025 0-.663-.335-1.042-.335-.379-.957-.379-.67 0-1.056.461-.386.461-.386 1.213h-1.982q0-.909.434-1.661.434-.752 1.227-1.179.793-.427 1.798-.427 1.538 0 2.389.738.851.738.851 2.085 0 .738-.383 1.504-.383.766-1.312 1.784l-2.263 2.386h4.279z"/><path id="AC" d="M348.059 36.108h-1.798v3.507h-2.051v-9.953h3.883q1.121 0 1.972.41.851.41 1.309 1.166.458.755.458 1.719 0 1.463-1.001 2.307-1.001.844-2.772.844zm-1.798-4.785v3.124h1.832q.813 0 1.241-.383.427-.383.427-1.094 0-.731-.431-1.183-.431-.451-1.189-.465h-1.88z"/><path id="AD" d="M355.422 29.662v9.953h-2.051v-9.953h2.051z"/><path id="AE" d="M198.8 16.072v133.2c0 4.2 3.36 7.56 7.44 7.56h93.6c4.2 0 7.44-3.36 7.44-7.44V16.072c.24-4.2-3.12-7.56-7.2-7.56h-93.6c-4.32 0-7.68 3.36-7.68 7.56z"/><path id="AF" d="M213.78 40.542v84a18 18 0 0 0 18 18h22.44a18 18 0 0 0 12.12-4.68l20.4-18.48a18 18 0 0 0 5.76-13.32v-47.04a18 18 0 0 0-5.88-13.32l-20.52-18.36a18 18 0 0 0-12-4.8h-22.44a18 18 0 0 0-18 18z"/><path id="AG" d="M232.2 50.204v7.68l14.88.12.12-7.8-14.88-.12z"/><path id="AH" d="M235.8 52.641v2.88l7.68.12.12-3-7.68-.12z"/><path id="AI" d="M66.463 10.295c-23.098 8.429-41.825 26.775-52.14 49.094a92.4 92.4 0 0 0-2.762 70.884c6 15.84 16.08 29.76 29.28 40.32v22.8h115.2v-24a92.4 92.4 0 0 0 14.88-130.08c-10.56-12-24.48-23.28-40.32-29.04H66.52z"/><path id="AJ" d="M315.06 135.472h11.04c4.2 0 7.44-3.36 7.44-7.44v-58.56c0-3.96-3.24-7.2-7.56-7.2h-10.92c-4.2 0-7.56 3.24-7.56 7.2v58.32c0 4.32 3.36 7.68 7.56 7.68z"/><path id="AK" d="M150.213 37.67c-29.559-26.293-73.833-26.12-103.392.172l-17.4-17.4-6.84 6.84 17.4 17.4c-26.293 29.559-26.293 74.121 0 103.68l-17.4 17.4 6.84 6.84 17.4-17.4c29.559 26.293 74.121 26.293 103.68 0l17.4 17.4 6.84-6.84-17.64-17.52c26.293-29.559 26.293-74.121 0-103.68l17.4-17.4-6.84-6.84-17.4 17.4zM148.7 139.842l-10.44-10.56c15.776-19.081 15.776-46.679 0-65.76l10.32-10.32c21.47 24.799 21.47 61.601 0 86.4zm-17.16-82.8c-19.081-15.776-46.679-15.776-65.76 0l-10.44-10.8c24.799-21.47 61.601-21.47 86.4 0l-10.32 10.32zm10.32 89.76c-24.799 21.47-61.601 21.47-86.4 0l10.32-10.32c19.081 15.777 46.679 15.777 65.76 0l10.32 10.32zm-93.24-7.2c-21.47-24.799-21.47-61.601 0-86.4l10.32 10.32c-15.777 19.081-15.777 46.679 0 65.76l-10.32 10.32z"/><path id="AL" d="M196.04 174.192V57.432l-14.76.24.6 116.88c.12 2.76-2.4 5.16-5.28 5.16H21.56c-2.76-.12-5.4-2.28-5.4-5.04v-1.8l.72-115.2L2 57.312v118.44c-.12 9.6 8.16 17.64 18.36 17.64H177.2c10.2.12 18.6-7.68 18.72-17.28v-1.92z"/><path id="AM" d="M1692.619 52.935q0-.415-.293-.637-.293-.222-1.055-.469-.762-.247-1.206-.486-1.211-.654-1.211-1.763 0-.576.325-1.028.325-.452.933-.706.608-.254 1.365-.254.762 0 1.357.276.596.276.925.779.33.503.33 1.143h-1.465q0-.488-.308-.759-.308-.271-.864-.271-.537 0-.835.227-.298.227-.298.598 0 .347.349.581.349.234 1.028.439 1.25.376 1.821.933.571.557.571 1.387 0 .923-.698 1.448-.698.525-1.88.525-.82 0-1.494-.3-.674-.3-1.028-.823-.354-.522-.354-1.211h1.47q0 1.177 1.406 1.177.522 0 .815-.212.293-.212.293-.593z"/></defs><symbol id="AN" overflow="visible"><path d="M24 412.83h2232c12 0 24-5.28 24-11.76V11.79c0-6.48-12-11.76-24-11.76H24C10.8.03 0 5.31 0 11.79v389.28c0 6.48 12 11.76 24 11.76zm15.24-166.08h-8.88c-6.48 0-12-5.28-12-11.76s5.28-11.76 11.76-11.76h22.8c6.48 0 12 5.16 12 11.76s-5.28 11.76-11.76 11.76H39.24zm0 74.64h-8.88c-6.48 0-12-5.16-12-11.76s5.28-11.76 11.76-11.76h22.8c6.48 0 12 5.16 12 11.76s-5.28 11.76-11.76 11.76H39.24zm0 74.64h-8.88c-6.48 0-12-5.16-12-11.76s5.28-11.76 11.76-11.76h22.8c6.48 0 12 5.16 12 11.76s-5.4 11.76-11.88 11.76h-13.8zm2196.84-149.16h-8.88c-6.48 0-11.76-5.28-12-11.76s5.28-11.76 11.76-11.76h22.8c6.6 0 12 5.16 12 11.76s-5.16 11.76-11.76 11.76h-13.8zm0 74.64h-8.88c-6.48 0-11.76-5.16-12-11.76s5.28-11.76 11.76-11.76h22.8c6.6 0 12 5.16 12 11.76s-5.16 11.76-11.76 11.76h-13.8zm0 74.64h-8.88c-6.48 0-11.76-5.16-12-11.76s5.28-11.76 11.76-11.76h22.8c6.6 0 12 5.16 12 11.76s-5.16 11.76-11.76 11.76h-13.8zM39.24 40.35h-8.88c-6.48 0-12-5.28-12-11.76s5.4-11.76 11.88-11.76h22.8c6.48 0 12 5.28 12 11.76s-5.28 11.76-11.76 11.76H39.24zm0 74.64h-8.88c-6.48 0-12-5.16-12-11.76s5.28-11.76 11.76-11.76h22.8c6.48 0 12 5.28 12 11.76s-5.28 11.76-11.76 11.76H39.24zm0 74.64h-8.88c-6.48 0-12-5.16-12-11.76s5.28-11.76 11.76-11.76h22.8c6.48 0 12 5.16 12 11.76s-5.28 11.76-11.76 11.76H39.24zM2236.08 40.47h-8.88c-6.48 0-11.76-5.28-12-11.76s5.28-11.76 11.76-11.76h22.8c6.6 0 12 5.28 12 11.76s-5.16 11.76-11.76 11.76h-13.8zm0 74.64h-8.88c-6.48 0-11.76-5.16-12-11.76s5.28-11.76 11.76-11.76h22.8c6.6 0 12 5.28 12 11.76s-5.16 11.76-11.76 11.76h-13.8zm0 74.64h-8.88c-6.48 0-11.76-5.16-12-11.76s5.28-11.76 11.76-11.76h22.8c6.6 0 12 5.16 12 11.76s-5.16 11.76-11.76 11.76h-13.8z" fill="#a6a6a6" class="E"/><g class="B G"><g class="D"><path d="M97.5 206.43v206.4h2085V.03H97.5v206.4z" class="F"/><path d="M111.565 402.716V6.86h15.909v395.856h-15.909z" class="h"/><path d="M2182.5 409.08V7.8c0-4.2-3.24-7.68-7.44-7.8h-2070c-4.32.12-7.56 3.48-7.56 7.8v401.28h5.64V7.8c-.12-1.2.72-2.04 1.8-2.16h2070c1.2.12 1.92.96 1.8 2.16v401.28h5.64z" class="b"/><path d="M2182.525 339.71h-5.64v-54.36h5.64v54.36zm-2085.025 0h5.64v-54.36H97.5v54.36z" class="N"/><path d="M2176.725 274.23v129.6c.12 4.2-3.24 7.68-7.44 7.8h-2058.6c-4.32 1.08-7.56-2.4-7.56-7.8v-396h5.64v396c-.12 1.2.72 2.04 1.8 2.16h2058.96c1.2-.12 1.92-1.2 1.8-2.16V272.79h5.64z" class="b"/><path d="M2176.825 339.71h-5.64v-54.36h5.64v54.36zm-2073.7 0h5.64v-54.36h-5.64v54.36z" class="N"/></g><path d="M135.005 412.83h1534.796v-13.101H135.005v13.101z" fill="url(#B)" stroke-width="1.248"/><path d="M2151.125 274.08h24V9.72h-24v264.36z" class="D b"/></g><g transform="translate(2168.525 9.72)"><path d="M0 0h6.48v264.36H0" class="D G m"/></g><path d="M2151.125 402.52h24v-49.68h-24v49.68z" class="B D G b"/><g transform="translate(2168.525 352.84)"><path d="M0 0h6.48v49.68H0" class="D G m"/></g><path d="M1687.965 401.11h91.56v-7.2h5.64V16.15h-5.64V8.23h-91.56v7.92h-5.64v377.76h5.64v7.2z" class="B D G b"/><g transform="translate(1780.125 16.32)"><path d="M0 0h4.8v377.76H0" class="D G m"/></g><path d="M1687.225 16.32h-4.8v377.76h4.8" class="D G n"/><g transform="matrix(-1 0 0 -1 1779.3651 401.05)"><path fill="url(#E)" d="M91.44 4.8V0H0v4.8" class="D G"/></g><path fill="url(#E)" d="M1687.925 13.157v-4.8h91.44v4.8" class="D G"/><g class="B"><g stroke="#4d4d4d" fill="url(#F)" stroke-width=".624"><use xlink:href="#V"/><use xlink:href="#V" y="18.75"/></g><path d="M1711.625 379.22h61.44c1.2 0 2.4-1.2 2.4-2.4v-21.6c0-1.2-1.2-2.4-2.4-2.4h-61.44c-1.2 0-2.4 1.2-2.4 2.4v21.6c0 1.2 1.2 2.4 2.4 2.4z" fill="#969696" class="M"/><path d="M1713.283 377.43h58.007a2.36 2.36 0 0 0 2.358-2.358v-18.619a2.36 2.36 0 0 0-2.358-2.358h-58.007a2.36 2.36 0 0 0-2.358 2.358v18.619a2.36 2.36 0 0 0 2.358 2.358z" fill="url(#G)" class="i"/></g><g fill="silver" class="M"><path d="M1710.925 378.19h31.44v-2.4h-31.44v2.4z"/><path d="M1742.325 378.19h31.44v-2.4h-31.44v2.4z"/></g><path d="M1717.025 357.66h50.64v4.44h-50.64z" fill="silver" class="E"/><g class="B G"><path d="M1705.525 158.77v80.64h67.44v-80.64h-67.44z" class="D F"/><path d="M1710.025 234.226v-70.165c0-.782.633-1.415 1.415-1.415h55.428c.781 0 1.415.633 1.415 1.415v70.165c0 .781-.634 1.415-1.415 1.415h-55.428c-.782 0-1.415-.633-1.415-1.415z" fill="url(#H)" class="O"/></g><path d="M1764.725 187.81l-3-1-2-3-7-2-2-14h-34v60h34l2-13 7-2 2-3 3-1v-21z" class="E a"/><g class="B"><g fill="url(#I)" class="i j"><path d="M1756.025 182.45v-17.245h8.945v17.245h-8.945z"/><path d="M1755.925 232.57v-17.245h8.945v17.245h-8.945z"/></g><path d="M1707.825 321.02h42.6a2.4 2.4 0 0 0 2.4-2.4v-62.76a2.4 2.4 0 0 0-2.4-2.4h-42.6v67.56z" stroke="#8c8c8c" class="D a"/><path d="M1730.825 281.94h13.92v-13.92h-13.92v13.92zm0 24.48h13.92V292.5h-13.92v13.92z" fill="#737373" class="M"/><g class="D"><path d="M1706.925 278.62v16.8c.12 2.4 2.04 3.96 4.32 3.84l.48-24.24c-2.4 0-4.2 1.56-4.8 3.6z" class="b j"/><path d="M1765.425 148.46V67.82h-60v80.64h60z" class="F G"/></g><path d="M1761.725 72.995v70.165c0 .782-.633 1.415-1.415 1.415h-50.512c-.782 0-1.415-.633-1.415-1.415V72.995c0-.781.633-1.415 1.415-1.415h50.512c.781 0 1.415.633 1.415 1.415z" fill="url(#H)" class="G O"/></g><path d="M1708 98l3-1 2-3 7-2 2-14h34v60h-34l-2-13-7-2-2-3-3-1V98z" class="E a"/><path d="M1785.025 16.268h-3.6v-7.44h3.6v7.44zm-98.9 0h-3.6v-7.44h3.6v7.44z" class="B D G N"/><g transform="translate(2146.045 9.72)"><path d="M6.48 0H0v264.36h6.48" class="D G n"/></g><g transform="translate(2146.045 352.84)"><path d="M6.48 0H0v49.68h6.48" class="D G n"/></g><path d="M2151.525 352.83h-5.64v-78.72h5.64v78.72z" class="B D G N"/><path d="M1695.025 281.92h6.84v10.56h-6.84z" class="E F"/><g class="D H"><use xlink:href="#W"/><use xlink:href="#W" x="72" y="88.12"/></g><path d="M1690.085 113.88h11.4v-15h-11.4zm1.44-.96h8.52V99.84h-8.52z" stroke="#3f3f3f" stroke-width=".72" class="H"/><path d="M1697.725 356.58v21" class="H P"/><path d="M1697.825 359.04c1.2 0 2.4-1.2 2.4-2.4s-1.2-2.4-2.4-2.4-2.4 1.2-2.4 2.4 1.2 2.4 2.4 2.4zm.04 19.91l2.28-3.6h-4.32l2.04 3.6zm-5.44-7.83v2.76h2.76v-2.76h-2.76z" class="E F"/><path d="M1697.665 364.56l-3.24 3.36-.6 3.24m4.06-9.88l3.24 3.36.6 3.24" class="H P"/><g class="B D"><path d="M508.595 403.46V6.86h7.44v396.6h-7.44z" class="G h"/><use xlink:href="#X" class="N"/><use xlink:href="#Y" class="c"/></g><use xlink:href="#Z" class="D F"/><use xlink:href="#a" class="B D a"/><g class="E S"><use xlink:href="#b"/><use xlink:href="#c"/></g><g class="M"><g class="k"><use xlink:href="#d" class="T"/><g class="B N"><use xlink:href="#e"/><use xlink:href="#f"/></g></g><g class="C"><use xlink:href="#g" class="L"/><g class="B"><g class="U"><use xlink:href="#h"/><use xlink:href="#i"/><use xlink:href="#j"/></g><use xlink:href="#k" class="L"/></g></g></g><g class="I V"><path d="M156.985 242.21h3.743v-65.508h-3.743v65.508z" class="C"/><path d="M166.365 242.21h3.743v-65.508h-3.743v65.508z" class="C"/><path d="M171.985 242.21h1.872v-65.508h-1.872v65.508z" class="C"/></g><path d="M173.865 160.814v97.326l16.845-1.232v-94.861l-16.845-1.233z" class="B C I W"/><g class="M"><use xlink:href="#l" class="C L"/><g class="B"><g class="U"><use xlink:href="#m" class="C"/><use xlink:href="#n" class="C"/><use xlink:href="#o" class="C"/></g><use xlink:href="#p" class="C L"/></g></g><g class="I V"><path d="M480.425 242.21h-3.743v-65.508h3.743v65.508z" class="C"/><path d="M471.055 242.21h-3.743v-65.508h3.743v65.508z" class="C"/><path d="M465.425 242.21h-1.872v-65.508h1.872v65.508z" class="C"/></g><path d="M463.555 160.814v97.326l-16.845-1.232v-94.861l16.845-1.233z" class="B C I W"/><g class="E l"><use xlink:href="#q"/><use xlink:href="#r"/><use xlink:href="#s"/><use xlink:href="#t"/><path d="M258.836 33.893v1.654h-3.937v4.067h-2.051v-9.953h6.48v1.661h-4.43v2.57h3.937z"/><use xlink:href="#s" x="21.205"/><use xlink:href="#u"/><use xlink:href="#t" x="30.139"/><use xlink:href="#v"/><use xlink:href="#w"/><use xlink:href="#x"/><use xlink:href="#y"/><use xlink:href="#z"/><use xlink:href="#AA"/><use xlink:href="#AB"/><use xlink:href="#AC"/><use xlink:href="#AD"/></g><g class="B D"><path d="M897.225 403.46V6.86h7.44v396.6h-7.44z" class="G h"/><use xlink:href="#X" x="388.63" class="N"/><use xlink:href="#Y" x="388.63" class="c"/></g><use xlink:href="#Z" x="388.63" class="D F"/><use xlink:href="#a" x="388.63" class="B D a"/><g class="E S"><use xlink:href="#b" x="388.63"/><use xlink:href="#c" x="388.63"/></g><g class="M"><g class="k"><use xlink:href="#d" x="388.63" class="T"/><g class="B N"><use xlink:href="#e" x="388.63"/><use xlink:href="#f" x="388.63"/></g></g><g class="C"><use xlink:href="#g" x="388.63" class="L"/><g class="B"><g class="U"><use xlink:href="#h" x="388.63"/><use xlink:href="#i" x="388.63"/><use xlink:href="#j" x="388.63"/></g><use xlink:href="#k" x="388.63" class="L"/></g></g></g><g class="I V"><path d="M545.615 242.21h3.743v-65.508h-3.743v65.508z" class="C"/><path d="M554.995 242.21h3.743v-65.508h-3.743v65.508z" class="C"/><path d="M560.615 242.21h1.872v-65.508h-1.872v65.508z" class="C"/></g><path d="M562.495 160.814v97.326l16.845-1.232v-94.861l-16.845-1.233z" class="B C I W"/><g class="M"><use xlink:href="#l" x="388.63" class="C L"/><g class="B"><g class="U"><use xlink:href="#m" x="388.63" class="C"/><use xlink:href="#n" x="388.63" class="C"/><use xlink:href="#o" x="388.63" class="C"/></g><use xlink:href="#p" x="388.63" class="C L"/></g></g><g class="I V"><path d="M869.055 242.21h-3.743v-65.508h3.743v65.508z" class="C"/><path d="M859.685 242.21h-3.743v-65.508h3.743v65.508z" class="C"/><path d="M854.055 242.21h-1.872v-65.508h1.872v65.508z" class="C"/></g><path d="M852.185 160.814v97.326l-16.845-1.232v-94.861l16.845-1.233z" class="B C I W"/><g class="E l"><use xlink:href="#q" x="388.63"/><use xlink:href="#r" x="388.63"/><use xlink:href="#s" x="388.63"/><use xlink:href="#t" x="388.63"/><use xlink:href="#z" x="325.233"/><use xlink:href="#s" x="409.835"/><use xlink:href="#u" x="388.63"/><use xlink:href="#t" x="418.769"/><use xlink:href="#v" x="388.63"/><use xlink:href="#w" x="388.63"/><use xlink:href="#x" x="388.63"/><use xlink:href="#y" x="388.63"/><use xlink:href="#z" x="388.63"/><use xlink:href="#AA" x="388.63"/><use xlink:href="#AB" x="388.63"/><use xlink:href="#AC" x="388.63"/><use xlink:href="#AD" x="388.63"/></g><g class="B D"><path d="M1285.405 403.46V6.86h7.44v396.6h-7.44z" class="G h"/><use xlink:href="#X" x="776.81" class="N"/><use xlink:href="#Y" x="776.81" class="c"/></g><use xlink:href="#Z" x="776.81" class="D F"/><use xlink:href="#a" x="776.81" class="B D a"/><g class="E S"><use xlink:href="#b" x="776.81"/><use xlink:href="#c" x="776.81"/></g><g class="M"><g class="k"><use xlink:href="#d" x="776.81" class="T"/><g class="B N"><use xlink:href="#e" x="776.81"/><use xlink:href="#f" x="776.81"/></g></g><g class="C"><use xlink:href="#g" x="776.81" class="L"/><g class="B"><g class="U"><use xlink:href="#h" x="776.81"/><use xlink:href="#i" x="776.81"/><use xlink:href="#j" x="776.81"/></g><use xlink:href="#k" x="776.81" class="L"/></g></g></g><g class="I V"><path d="M933.795 242.21h3.743v-65.508h-3.743v65.508z" class="C"/><path d="M943.175 242.21h3.743v-65.508h-3.743v65.508z" class="C"/><path d="M948.795 242.21h1.872v-65.508h-1.872v65.508z" class="C"/></g><path d="M950.675 160.814v97.326l16.845-1.232v-94.861l-16.845-1.233z" class="B C I W"/><g class="M"><use xlink:href="#l" x="776.81" class="C L"/><g class="B"><g class="U"><use xlink:href="#m" x="776.81" class="C"/><use xlink:href="#n" x="776.81" class="C"/><use xlink:href="#o" x="776.81" class="C"/></g><use xlink:href="#p" x="776.81" class="C L"/></g></g><g class="I V"><path d="M1257.235 242.21h-3.743v-65.508h3.743v65.508z" class="C"/><path d="M1247.865 242.21h-3.743v-65.508h3.743v65.508z" class="C"/><path d="M1242.235 242.21h-1.872v-65.508h1.872v65.508z" class="C"/></g><path d="M1240.365 160.814v97.326l-16.845-1.232v-94.861l16.845-1.233z" class="B C I W"/><g class="E l"><use xlink:href="#q" x="776.81"/><use xlink:href="#r" x="776.81"/><use xlink:href="#s" x="776.81"/><use xlink:href="#t" x="776.81"/><use xlink:href="#z" x="713.413"/><use xlink:href="#s" x="798.015"/><use xlink:href="#u" x="776.81"/><use xlink:href="#t" x="806.949"/><use xlink:href="#v" x="776.81"/><use xlink:href="#w" x="776.81"/><use xlink:href="#x" x="776.81"/><use xlink:href="#y" x="776.81"/><use xlink:href="#z" x="776.81"/><use xlink:href="#AA" x="776.81"/><use xlink:href="#AB" x="776.81"/><use xlink:href="#AC" x="776.81"/><use xlink:href="#AD" x="776.81"/></g><g class="B D"><path d="M1674.065 403.46V6.86h7.44v396.6h-7.44z" class="G h"/><use xlink:href="#X" x="1165.47" class="N"/><use xlink:href="#Y" x="1165.47" class="c"/></g><use xlink:href="#Z" x="1165.47" class="D F"/><use xlink:href="#a" x="1165.47" class="B D a"/><g class="E S"><use xlink:href="#b" x="1165.47"/><use xlink:href="#c" x="1165.47"/></g><g class="M"><g class="k"><use xlink:href="#d" x="1165.47" class="T"/><g class="B N"><use xlink:href="#e" x="1165.47"/><use xlink:href="#f" x="1165.47"/></g></g><g class="C"><use xlink:href="#g" x="1165.47" class="L"/><g class="B"><g class="U"><use xlink:href="#h" x="1165.47"/><use xlink:href="#i" x="1165.47"/><use xlink:href="#j" x="1165.47"/></g><use xlink:href="#k" x="1165.47" class="L"/></g></g></g><g class="I V"><path d="M1322.455 242.21h3.743v-65.508h-3.743v65.508z" class="C"/><path d="M1331.835 242.21h3.743v-65.508h-3.743v65.508z" class="C"/><path d="M1337.455 242.21h1.872v-65.508h-1.872v65.508z" class="C"/></g><path d="M1339.335 160.814v97.326l16.845-1.232v-94.861l-16.845-1.233z" class="B C I W"/><g class="M"><use xlink:href="#l" x="1165.47" class="C L"/><g class="B"><g class="U"><use xlink:href="#m" x="1165.47" class="C"/><use xlink:href="#n" x="1165.47" class="C"/><use xlink:href="#o" x="1165.47" class="C"/></g><use xlink:href="#p" x="1165.47" class="C L"/></g></g><g class="I V"><path d="M1645.895 242.21h-3.743v-65.508h3.743v65.508z" class="C"/><path d="M1636.525 242.21h-3.743v-65.508h3.743v65.508z" class="C"/><path d="M1630.895 242.21h-1.872v-65.508h1.872v65.508z" class="C"/></g><path d="M1629.025 160.814v97.326l-16.845-1.232v-94.861l16.845-1.233z" class="B C I W"/><g class="E l"><use xlink:href="#q" x="1165.47"/><use xlink:href="#r" x="1165.47"/><use xlink:href="#s" x="1165.47"/><use xlink:href="#t" x="1165.47"/><use xlink:href="#z" x="1102.073"/><use xlink:href="#s" x="1186.675"/><use xlink:href="#u" x="1165.47"/><use xlink:href="#t" x="1195.609"/><use xlink:href="#v" x="1165.47"/><use xlink:href="#w" x="1165.47"/><use xlink:href="#x" x="1165.47"/><use xlink:href="#y" x="1165.47"/><use xlink:href="#z" x="1165.47"/><use xlink:href="#AA" x="1165.47"/><use xlink:href="#AB" x="1165.47"/><use xlink:href="#AC" x="1165.47"/><use xlink:href="#AD" x="1165.47"/></g><path d="M1688.525 112.08v-10.44m.24 4.8h1.2" stroke="#3f3f3f" stroke-width=".72" class="H"/><path d="M1755.525 123.51v3h-5.52v-3h5.52zm0-4.75v3h-5.52v-3h5.52zm0-4.74v3h-5.52v-3h5.52zm0-4.75v3h-5.52v-3h5.52zm0-9.5v3h-5.52v-3h5.52zm0 4.75v3h-5.52v-3h5.52zm0-9.493v3h-5.52v-3h5.52zm0-4.747v3h-5.52v-3h5.52zm-37.1 93.43v-3h5.52v3h-5.52zm0 4.75v-3h5.52v3h-5.52zm0 4.75v-3h5.52v3h-5.52zm0 4.74v-3h5.52v3h-5.52zm0 9.5v-3h5.52v3h-5.52zm0-4.75v-3h5.52v3h-5.52zm0 9.5v-3h5.52v3h-5.52zm0 4.74v-3h5.52v3h-5.52z" fill="#856427" class="E"/><g transform="translate(1710.625 264.71)" class="E"><path d="M16.8 0v45H0V0z" class="o"/><path d="M11.193 1.496v41.986H5.599V1.496z" fill="#3c2d11"/><path d="M0 0h1.56v16.392H0z" transform="matrix(0 1 -1 0 16.541744 8.583721)" class="Q"/><path d="M10.942 8.584v1.56H5.729v-1.56z" class="R"/><path d="M0 0h1.56v16.392H0z" transform="matrix(0 1 -1 0 16.541744 16.086721)" class="Q"/><path d="M10.942 16.087v1.56H5.729v-1.56z" class="R"/><path d="M0 0h1.56v16.392H0z" transform="matrix(0 1 -1 0 16.541744 12.341521)" class="Q"/><path d="M10.942 12.342v1.56H5.729v-1.56z" class="R"/><path d="M0 0h1.56v16.392H0z" transform="matrix(0 1 -1 0 16.541744 19.844421)" class="Q"/><path d="M10.942 19.844v1.56H5.729v-1.56z" class="R"/><path d="M0 0h1.56v16.392H0z" transform="matrix(0 1 -1 0 16.541744 23.589621)" class="Q"/><path d="M10.942 23.59v1.56H5.729v-1.56z" class="R"/><path d="M0 0h1.56v16.392H0z" transform="matrix(0 1 -1 0 16.541744 27.347421)" class="Q"/><path d="M10.942 27.347v1.56H5.729v-1.56z" class="R"/><path d="M0 0h1.56v16.392H0z" transform="matrix(0 1 -1 0 16.541744 31.105121)" class="Q"/><path d="M10.942 31.105v1.56H5.729v-1.56z" class="R"/><path d="M0 0h1.56v16.392H0z" transform="matrix(0 1 -1 0 16.541744 34.850321)" class="Q"/><path d="M10.942 34.85v1.56H5.729v-1.56z" class="R"/><path d="M0 0h1.56v16.392H0z" transform="matrix(0 1 -1 0 16.541744 38.608021)" class="Q"/><path d="M10.942 38.608v1.56H5.729v-1.56z" class="R"/><path d="M0 0h1.56v16.392H0z" transform="matrix(0 1 -1 0 16.541744 4.838621)" class="Q"/><path d="M10.942 4.839v1.56H5.729v-1.56z" class="R"/></g><path d="M1702 369.5c.75 0 1.5-.75 1.5-1.5s-.75-1.5-1.5-1.5-1.5.75-1.5 1.5.75 1.5 1.5 1.5z" class="E F"/><g transform="translate(1788.725 8.768)"><path d="M181.618 21.566c-.17 2.718-2.594 4.821-5.476 4.753H21.584c-2.885.068-5.307-2.035-5.475-4.753l-.007 1.551c-.074 2.787 2.262 5.103 5.216 5.173h.266 154.558c2.948.069 5.41-2.134 5.476-4.922v-1.802z" class="E d"/><path d="M0 194.062h352.56V.022H0v194.04z" class="P S"/><g class="B"><use xlink:href="#AE" class="j o p"/><use xlink:href="#AF" class="D F"/><use xlink:href="#AG" class="J K e"/></g><path d="M246.8 50.084l-3.062 2.318m-.038 3.254l3.062 2.318m-14.062-7.89l3.062 2.318m.138 3.254l-3.062 2.318" class="J K H"/><g class="B"><use xlink:href="#AH" class="J K f"/><use xlink:href="#AG" y="57.188" class="J K e"/></g><path d="M246.8 107.272l-3.062 2.318m-.038 3.252l3.062 2.318m-14.062-7.888l3.062 2.318m.138 3.252l-3.062 2.318" class="J K H"/><g class="B"><use xlink:href="#AH" y="57.191" class="J K f"/><use xlink:href="#AG" x="21.1" y="28.578" class="J K e"/></g><path d="M267.9 78.662l-3.062 2.318m-.138 3.254l3.062 2.318m-13.962-7.89l3.062 2.318m.138 3.254l-3.062 2.318" class="J K H"/><g class="B"><use xlink:href="#AH" x="21.1" y="28.579" class="J K f"/><ellipse cx="326.72" cy="160.602" rx="14.52" ry="14.4" fill="#595959" class="D"/><path d="M337.313 160.486a10.61 10.61 0 0 0-10.607-10.607 10.61 10.61 0 0 0-10.606 10.607 10.61 10.61 0 0 0 10.606 10.606 10.61 10.61 0 0 0 10.607-10.606z" fill="url(#O)" class="O"/></g><g transform="translate(0 .022)"><path fill="url(#P)" d="M9.36 0H0v194.04h9.36" class="P"/></g><use xlink:href="#AI" class="B D F"/><g transform="translate(343.14 4.799)"><path fill="url(#Q)" d="M0 0h9.36v184.44H0" class="P"/></g><path d="M309.4 132.192h31.92v-105H309.4v105z" class="D F"/><use xlink:href="#AJ" fill="#ac2f54" class="E"/><path d="M333.8 128.442h15v-52.44h-15v52.44z" class="D T"/><g transform="translate(337.5 76.002)"><path fill="url(#R)" d="M0 0h7.56v52.44H0" class="D"/></g><path d="M202.5 4.8h150V0h-150v4.8z" class="D T"/><g class="B"><use xlink:href="#AK" class="P S"/><path d="M16.1 172.802l.12-23.04-.12 22.56z" class="D"/></g><path d="M181.618 172.816c-.17 2.718-2.594 4.821-5.476 4.754H21.584c-2.885.068-5.307-2.035-5.475-4.754l-.007 1.551c-.074 2.787 2.262 5.103 5.216 5.173h.266 154.558c2.948.069 5.41-2.134 5.476-4.922v-1.803z" class="E d"/><g class="B"><path d="M181.8 149.762h0l.12 23.04-.12-23.04z" class="D"/><g class="g i"><path d="M132.534 96.386c0-18.753-15.252-33.957-34.067-33.957S64.4 77.633 64.4 96.386s15.252 33.956 34.068 33.956 34.067-15.202 34.067-33.956zm-2.895 0c0 17.16-13.955 31.071-31.172 31.071s-31.173-13.912-31.173-31.071S81.25 65.315 98.468 65.315s31.172 13.911 31.172 31.071z"/><path d="M166.552 96.461c0 37.655-30.526 68.179-68.18 68.179s-68.179-30.524-68.179-68.179 30.524-68.18 68.179-68.18 68.18 30.526 68.18 68.18zm3.694 0c0-39.694-32.18-71.874-71.874-71.874S26.5 56.766 26.5 96.461s32.178 71.872 71.872 71.872 71.874-32.177 71.874-71.872z"/></g></g><g class="M"><path d="M54.72 137.829h-.001.001zm-.076-86.685l-.472-.472c-.13-.157-.249-.341-.356-.511l-.094.065-16.375-16.375c-1.326-1.323-1.855-3.249-1.394-5.07 2.029-8.004-2.815-16.139-10.822-18.17A14.96 14.96 0 0 0 6.959 21.433c-.202.799-.338 1.611-.407 2.424a15.02 15.02 0 0 0 .432 5.03c2.084 7.991 10.252 12.773 18.244 10.69.853-.223 1.683-.511 2.483-.878a1.34 1.34 0 0 0 .652-1.768.48.48 0 0 1-.018-.039l-.456-.917a1.33 1.33 0 0 0-1.741-.602c-5.666 2.581-12.359.092-14.95-5.568-.4-.878-.686-1.795-.853-2.751-.276-1.572-.214-3.183.182-4.742a11.28 11.28 0 0 1 13.722-8.135 11.29 11.29 0 0 1 8.135 13.729c-.064.249-.138.498-.218.747a11.31 11.31 0 0 1-1.095 2.397c-.318.524-.447 1.14-.363 1.742a3.18 3.18 0 0 0 .891 1.808l.745.76 3.68 3.707 13.924 13.953 3.343 3.371L81.089 84.25a7.06 7.06 0 0 1 .168.177c3.329 3.656 5.12 8.455 5 13.399-.001.073-.001.148 0 .221a18.91 18.91 0 0 1-5.013 13.164c-.047.051-.094.101-.143.149l-46.088 46.243-.959.969a2.66 2.66 0 0 0-.369 3.268 11.13 11.13 0 0 1 1.129 2.441c1.974 5.909-1.216 12.299-7.125 14.273s-12.299-1.216-14.273-7.125c-.086-.257-.162-.517-.23-.78-.396-1.549-.458-3.166-.182-4.742 1.076-6.136 6.923-10.239 13.059-9.163.947.166 1.869.453 2.743.853a1.33 1.33 0 0 0 1.742-.614l.454-.911a1.33 1.33 0 0 0-.595-1.783.35.35 0 0 0-.038-.018 14.96 14.96 0 0 0-19.84 7.329c-.368.799-.665 1.63-.887 2.482A14.96 14.96 0 0 0 25.36 182.76a14.96 14.96 0 0 0 13.658-16.149 15.1 15.1 0 0 0-.408-2.43 5.32 5.32 0 0 1 1.394-5.067l18.171-18.23 25.9-25.905a24.16 24.16 0 0 0 6.469-16.928 4.55 4.55 0 0 1 .001-.23c.153-6.343-2.163-12.496-6.46-17.165-.05-.054-.101-.107-.153-.158L55.452 52.016l-.808-.872zm-1.352 5.245l.011.009-.011-.009z" class="g"/><path d="M142.38 137.829h.001-.001zm.076-86.685l.472-.472a4.99 4.99 0 0 0 .356-.511l.094.065 16.375-16.375c1.326-1.323 1.855-3.249 1.394-5.07-2.029-8.004 2.815-16.139 10.822-18.17a14.96 14.96 0 0 1 18.172 10.821c.202.799.338 1.611.407 2.424a15.01 15.01 0 0 1-.432 5.03c-2.084 7.991-10.252 12.773-18.244 10.69a15.06 15.06 0 0 1-2.483-.878c-.667-.314-.959-1.1-.652-1.768.006-.013.013-.026.018-.039l.456-.917a1.33 1.33 0 0 1 1.741-.602c5.666 2.581 12.359.092 14.95-5.568a11.25 11.25 0 0 0 .852-2.751 11.29 11.29 0 0 0-.182-4.742 11.28 11.28 0 0 0-13.722-8.135 11.29 11.29 0 0 0-8.135 13.729c.064.249.138.498.218.747.269.838.637 1.637 1.095 2.397.319.524.447 1.14.363 1.742a3.18 3.18 0 0 1-.891 1.808l-.745.76-3.68 3.707-13.924 13.953-3.343 3.371-27.797 27.861-.168.177c-3.329 3.656-5.119 8.455-5 13.399a6.81 6.81 0 0 1 0 .221 18.91 18.91 0 0 0 5.013 13.164 5.07 5.07 0 0 0 .143.149l46.088 46.243.959.969a2.66 2.66 0 0 1 .37 3.268c-.474.765-.853 1.585-1.129 2.441-1.974 5.909 1.216 12.299 7.125 14.273s12.299-1.216 14.273-7.125a11.35 11.35 0 0 0 .23-.78 11.28 11.28 0 0 0 .182-4.742c-1.076-6.136-6.923-10.239-13.059-9.163-.947.166-1.869.453-2.743.853a1.33 1.33 0 0 1-1.742-.614l-.455-.911a1.33 1.33 0 0 1 .595-1.783.35.35 0 0 1 .038-.018 14.96 14.96 0 0 1 19.84 7.329c.368.799.665 1.63.887 2.482.427 1.636.573 3.333.432 5.017a14.96 14.96 0 0 1-16.149 13.659 14.96 14.96 0 0 1-13.658-16.149 15.12 15.12 0 0 1 .407-2.43 5.32 5.32 0 0 0-1.394-5.067l-18.171-18.23-25.9-25.905a24.16 24.16 0 0 1-6.469-16.928 4.93 4.93 0 0 0-.001-.23c-.153-6.343 2.163-12.496 6.46-17.165.05-.054.101-.107.153-.158l28.481-28.481.808-.872zm1.352 5.245l-.01.009.01-.009z" class="g"/></g><path d="M185.164 168.07c0-6.59-5.342-11.932-11.932-11.932S161.3 161.48 161.3 168.07s5.342 11.932 11.932 11.932 11.932-5.342 11.932-11.932z" class="B O X Y"/><g class="G H Z"><path d="M180.1 168.052h-13.68"/><path d="M173.3 174.882v-13.68"/></g><path d="M187.564 24.629c0-6.59-5.342-11.932-11.932-11.932S163.7 18.039 163.7 24.629s5.342 11.932 11.932 11.932 11.932-5.342 11.932-11.932z" class="B O X Y"/><g class="G H Z"><path d="M182.5 24.608h-13.68"/><path d="M175.6 31.438v-13.68"/></g><path d="M36.364 168.07c0-6.59-5.342-11.932-11.932-11.932S12.5 161.48 12.5 168.07s5.342 11.932 11.932 11.932 11.932-5.342 11.932-11.932z" class="B O X Y"/><g class="G H Z"><path d="M31.3 168.052H17.62"/><path d="M24.4 174.882v-13.68"/></g><path d="M33.364 24.629c0-6.59-5.342-11.932-11.932-11.932S9.5 18.039 9.5 24.629s5.342 11.932 11.932 11.932 11.932-5.342 11.932-11.932z" class="B O X Y"/><g class="G H Z"><path d="M28.3 24.608H14.62"/><path d="M21.4 31.438v-13.68"/></g><g class="E"><g class="d"><path d="M16.846 57.508l.011-1.971L2 55.316v1.971l14.846.222z"/><path d="M196.039 57.287v-1.971l-14.739.222.01 1.971 14.729-.222z"/></g><use xlink:href="#AL" class="c"/></g><g fill="url(#U)" class="I"><path d="M16.7 73.125h-3.743V54.409H16.7v18.716z"/><path d="M180.957 73.125V54.408h3.743v18.717h-3.743z"/></g></g><g transform="translate(1788.725 207.52)"><path d="M181.618 21.566c-.17 2.718-2.594 4.821-5.476 4.753H21.584c-2.885.068-5.307-2.035-5.475-4.753l-.007 1.551c-.074 2.787 2.262 5.103 5.216 5.173h.266 154.558c2.948.069 5.41-2.134 5.476-4.922v-1.802z" class="E d"/><path d="M0 194.062h352.56V.022H0v194.04z" class="P S"/><g class="B"><use xlink:href="#AE" class="j o p"/><use xlink:href="#AF" class="D F"/><use xlink:href="#AG" class="J K e"/></g><path d="M246.8 50.084l-3.062 2.318m-.038 3.254l3.062 2.318m-14.062-7.89l3.062 2.318m.138 3.254l-3.062 2.318" class="J K H"/><g class="B"><use xlink:href="#AH" class="J K f"/><use xlink:href="#AG" y="57.188" class="J K e"/></g><path d="M246.8 107.272l-3.062 2.318m-.038 3.252l3.062 2.318m-14.062-7.888l3.062 2.318m.138 3.252l-3.062 2.318" class="J K H"/><g class="B"><use xlink:href="#AH" y="57.191" class="J K f"/><use xlink:href="#AG" x="21.1" y="28.578" class="J K e"/></g><path d="M267.9 78.662l-3.062 2.318m-.138 3.254l3.062 2.318m-13.962-7.89l3.062 2.318m.138 3.254l-3.062 2.318" class="J K H"/><g class="B"><use xlink:href="#AH" x="21.1" y="28.579" class="J K f"/><ellipse cx="326.72" cy="160.602" rx="14.52" ry="14.4" fill="#595959" class="D"/><path d="M337.313 160.486a10.61 10.61 0 0 0-10.607-10.607 10.61 10.61 0 0 0-10.606 10.607 10.61 10.61 0 0 0 10.606 10.606 10.61 10.61 0 0 0 10.607-10.606z" fill="url(#O)" class="O"/></g><g transform="translate(0 .022)"><path fill="url(#P)" d="M9.36 0H0v194.04h9.36" class="P"/></g><use xlink:href="#AI" class="B D F"/><g transform="translate(343.14 4.799)"><path fill="url(#Q)" d="M0 0h9.36v184.44H0" class="P"/></g><path d="M309.4 132.192h31.92v-105H309.4v105z" class="D F"/><use xlink:href="#AJ" fill="#ac2f54" class="E"/><path d="M333.8 128.442h15v-52.44h-15v52.44z" class="D T"/><g transform="translate(337.5 76.002)"><path fill="url(#R)" d="M0 0h7.56v52.44H0" class="D"/></g><path d="M202.5 4.8h150V0h-150v4.8z" class="D T"/><g class="B"><use xlink:href="#AK" class="P S"/><path d="M16.1 172.802l.12-23.04-.12 22.56z" class="D"/></g><path d="M181.618 172.816c-.17 2.718-2.594 4.821-5.476 4.754H21.584c-2.885.068-5.307-2.035-5.475-4.754l-.007 1.551c-.074 2.787 2.262 5.103 5.216 5.173h.266 154.558c2.948.069 5.41-2.134 5.476-4.922v-1.803z" class="E d"/><g class="B"><path d="M181.8 149.762h0l.12 23.04-.12-23.04z" class="D"/><g class="g i"><path d="M132.534 96.386c0-18.753-15.252-33.957-34.067-33.957S64.4 77.633 64.4 96.386s15.252 33.956 34.068 33.956 34.067-15.202 34.067-33.956zm-2.895 0c0 17.16-13.955 31.071-31.172 31.071s-31.173-13.912-31.173-31.071S81.25 65.315 98.468 65.315s31.172 13.911 31.172 31.071z"/><path d="M166.552 96.461c0 37.655-30.526 68.179-68.18 68.179s-68.179-30.524-68.179-68.179 30.524-68.18 68.179-68.18 68.18 30.526 68.18 68.18zm3.694 0c0-39.694-32.18-71.874-71.874-71.874S26.5 56.766 26.5 96.461s32.178 71.872 71.872 71.872 71.874-32.177 71.874-71.872z"/></g></g><g class="M"><path d="M54.72 137.829h-.001.001zm-.076-86.685l-.472-.472c-.13-.157-.249-.341-.356-.511l-.094.065-16.375-16.375c-1.326-1.323-1.855-3.249-1.394-5.07 2.029-8.004-2.815-16.139-10.822-18.17A14.96 14.96 0 0 0 6.959 21.433c-.202.799-.338 1.611-.407 2.424a15.02 15.02 0 0 0 .432 5.03c2.084 7.991 10.252 12.773 18.244 10.69.853-.223 1.683-.511 2.483-.878a1.34 1.34 0 0 0 .652-1.768.48.48 0 0 1-.018-.039l-.456-.917a1.33 1.33 0 0 0-1.741-.602c-5.666 2.581-12.359.092-14.95-5.568-.4-.878-.686-1.795-.853-2.751-.276-1.572-.214-3.183.182-4.742a11.28 11.28 0 0 1 13.722-8.135 11.29 11.29 0 0 1 8.135 13.729c-.064.249-.138.498-.218.747a11.31 11.31 0 0 1-1.095 2.397c-.318.524-.447 1.14-.363 1.742a3.18 3.18 0 0 0 .891 1.808l.745.76 3.68 3.707 13.924 13.953 3.343 3.371L81.089 84.25a7.06 7.06 0 0 1 .168.177c3.329 3.656 5.12 8.455 5 13.399-.001.073-.001.148 0 .221a18.91 18.91 0 0 1-5.013 13.164c-.047.051-.094.101-.143.149l-46.088 46.243-.959.969a2.66 2.66 0 0 0-.369 3.268 11.13 11.13 0 0 1 1.129 2.441c1.974 5.909-1.216 12.299-7.125 14.273s-12.299-1.216-14.273-7.125c-.086-.257-.162-.517-.23-.78-.396-1.549-.458-3.166-.182-4.742 1.076-6.136 6.923-10.239 13.059-9.163.947.166 1.869.453 2.743.853a1.33 1.33 0 0 0 1.742-.614l.454-.911a1.33 1.33 0 0 0-.595-1.783.35.35 0 0 0-.038-.018 14.96 14.96 0 0 0-19.84 7.329c-.368.799-.665 1.63-.887 2.482A14.96 14.96 0 0 0 25.36 182.76a14.96 14.96 0 0 0 13.658-16.149 15.1 15.1 0 0 0-.408-2.43 5.32 5.32 0 0 1 1.394-5.067l18.171-18.23 25.9-25.905a24.16 24.16 0 0 0 6.469-16.928 4.55 4.55 0 0 1 .001-.23c.153-6.343-2.163-12.496-6.46-17.165-.05-.054-.101-.107-.153-.158L55.452 52.016l-.808-.872zm-1.352 5.245l.011.009-.011-.009z" class="g"/><path d="M142.38 137.829h.001-.001zm.076-86.685l.472-.472a4.99 4.99 0 0 0 .356-.511l.094.065 16.375-16.375c1.326-1.323 1.855-3.249 1.394-5.07-2.029-8.004 2.815-16.139 10.822-18.17a14.96 14.96 0 0 1 18.172 10.821c.202.799.338 1.611.407 2.424a15.01 15.01 0 0 1-.432 5.03c-2.084 7.991-10.252 12.773-18.244 10.69a15.06 15.06 0 0 1-2.483-.878c-.667-.314-.959-1.1-.652-1.768.006-.013.013-.026.018-.039l.456-.917a1.33 1.33 0 0 1 1.741-.602c5.666 2.581 12.359.092 14.95-5.568a11.25 11.25 0 0 0 .852-2.751 11.29 11.29 0 0 0-.182-4.742 11.28 11.28 0 0 0-13.722-8.135 11.29 11.29 0 0 0-8.135 13.729c.064.249.138.498.218.747.269.838.637 1.637 1.095 2.397.319.524.447 1.14.363 1.742a3.18 3.18 0 0 1-.891 1.808l-.745.76-3.68 3.707-13.924 13.953-3.343 3.371-27.797 27.861-.168.177c-3.329 3.656-5.119 8.455-5 13.399a6.81 6.81 0 0 1 0 .221 18.91 18.91 0 0 0 5.013 13.164 5.07 5.07 0 0 0 .143.149l46.088 46.243.959.969a2.66 2.66 0 0 1 .37 3.268c-.474.765-.853 1.585-1.129 2.441-1.974 5.909 1.216 12.299 7.125 14.273s12.299-1.216 14.273-7.125a11.35 11.35 0 0 0 .23-.78 11.28 11.28 0 0 0 .182-4.742c-1.076-6.136-6.923-10.239-13.059-9.163-.947.166-1.869.453-2.743.853a1.33 1.33 0 0 1-1.742-.614l-.455-.911a1.33 1.33 0 0 1 .595-1.783.35.35 0 0 1 .038-.018 14.96 14.96 0 0 1 19.84 7.329c.368.799.665 1.63.887 2.482.427 1.636.573 3.333.432 5.017a14.96 14.96 0 0 1-16.149 13.659 14.96 14.96 0 0 1-13.658-16.149 15.12 15.12 0 0 1 .407-2.43 5.32 5.32 0 0 0-1.394-5.067l-18.171-18.23-25.9-25.905a24.16 24.16 0 0 1-6.469-16.928 4.93 4.93 0 0 0-.001-.23c-.153-6.343 2.163-12.496 6.46-17.165.05-.054.101-.107.153-.158l28.481-28.481.808-.872zm1.352 5.245l-.01.009.01-.009z" class="g"/></g><path d="M185.164 168.07c0-6.59-5.342-11.932-11.932-11.932S161.3 161.48 161.3 168.07s5.342 11.932 11.932 11.932 11.932-5.342 11.932-11.932z" class="B O X Y"/><g class="G H Z"><path d="M180.1 168.052h-13.68"/><path d="M173.3 174.882v-13.68"/></g><path d="M187.564 24.629c0-6.59-5.342-11.932-11.932-11.932S163.7 18.039 163.7 24.629s5.342 11.932 11.932 11.932 11.932-5.342 11.932-11.932z" class="B O X Y"/><g class="G H Z"><path d="M182.5 24.608h-13.68"/><path d="M175.6 31.438v-13.68"/></g><path d="M36.364 168.07c0-6.59-5.342-11.932-11.932-11.932S12.5 161.48 12.5 168.07s5.342 11.932 11.932 11.932 11.932-5.342 11.932-11.932z" class="B O X Y"/><g class="G H Z"><path d="M31.3 168.052H17.62"/><path d="M24.4 174.882v-13.68"/></g><path d="M33.364 24.629c0-6.59-5.342-11.932-11.932-11.932S9.5 18.039 9.5 24.629s5.342 11.932 11.932 11.932 11.932-5.342 11.932-11.932z" class="B O X Y"/><g class="G H Z"><path d="M28.3 24.608H14.62"/><path d="M21.4 31.438v-13.68"/></g><g class="E"><g class="d"><path d="M16.846 57.508l.011-1.971L2 55.316v1.971l14.846.222z"/><path d="M196.039 57.287v-1.971l-14.739.222.01 1.971 14.729-.222z"/></g><use xlink:href="#AL" class="c"/></g><g fill="url(#U)" class="I"><path d="M16.7 73.125h-3.743V54.409H16.7v18.716z"/><path d="M180.957 73.125V54.408h3.743v18.717h-3.743z"/></g></g><g class="E F"><path d="M1690.906 35.8h-2.764v-7.109h2.49q1.294 0 1.963.496.669.496.669 1.453 0 .522-.269.92-.269.398-.747.583.547.137.862.552.315.415.315 1.016 0 1.025-.654 1.553-.654.527-1.865.537zm.044-3.096h-1.343v1.919h1.255q.518 0 .808-.247.291-.247.291-.681 0-.977-1.011-.991zm-1.343-2.827v1.792h1.084q1.108-.02 1.108-.884 0-.483-.281-.696-.281-.212-.886-.212h-1.025zm9.033 3.555h1.465q-.083 1.147-.847 1.807-.764.659-2.014.659-1.367 0-2.151-.92-.784-.92-.784-2.527v-.435q0-1.025.361-1.807.361-.781 1.033-1.199.671-.417 1.56-.417 1.23 0 1.982.659.752.659.869 1.851h-1.465q-.054-.688-.383-.999-.33-.31-1.003-.31-.732 0-1.096.525-.364.525-.374 1.628v.537q0 1.152.349 1.685.349.532 1.101.532.679 0 1.013-.31.334-.31.383-.959zm8.208-4.741V35.8h-1.465l-2.852-4.678V35.8h-1.465v-7.109h1.465l2.856 4.688v-4.688h1.46z"/><use xlink:href="#AM"/><path d="M1700.432 47.691v1.187h-2.178V54.8h-1.465v-5.923h-2.148v-1.187h5.791z"/><use xlink:href="#AM" x="12.256"/></g></symbol></svg>