<svg xmlns="http://www.w3.org/2000/svg" xmlns:xlink="http://www.w3.org/1999/xlink" viewBox="0 0 1099 157" fill="#fff" fill-rule="evenodd" stroke="#000" stroke-linecap="round" stroke-linejoin="round"><style><![CDATA[.B{stroke-width:.96}.C{stroke:#bfbfbf}.D{fill:url(#L)}.E{stroke:none}.F{fill:#595959}.G{stroke-linejoin:miter}.H{stroke:#4a5575}.I{stroke-width:2.976}.J{stroke-width:1.344}.K{fill:#0c0c0c}.L{stroke:#603900}.M{fill-rule:nonzero}.N{fill:url(#E)}]]></style><use xlink:href="#U" x=".5" y=".5"/><defs><linearGradient id="A" x1="50%" y1="0%" x2="50%" y2="100%"><stop offset="0%" stop-color="#e3e3e3"/><stop offset="100%" stop-color="#d9d9d9"/></linearGradient><radialGradient id="B" r="100%" fx="50%" fy="50%" cx="50%" cy="50%"><stop offset="0%" stop-color="gray"/><stop offset="71%" stop-color="#262626"/></radialGradient><linearGradient id="C" x1="50%" y1="100%" x2="50%" y2="0%"><stop offset="0%" stop-color="#7f7f7f"/><stop offset="100%" stop-color="#d9d9d9"/></linearGradient><linearGradient id="D" x1="50%" y1="0%" x2="50%" y2="100%"><stop offset="0%" stop-color="#7f7f7f"/><stop offset="100%" stop-color="#d9d9d9"/></linearGradient><radialGradient id="E" r="100%" fx="50%" fy="50%" cx="50%" cy="50%"><stop offset="0%" stop-color="#595959"/><stop offset="71%"/></radialGradient><radialGradient id="F" r="100%" fx="50%" fy="50%" cx="50%" cy="50%"><stop offset="0%" stop-color="#d0d0d0"/><stop offset="71%" stop-color="#bfbfbf"/></radialGradient><linearGradient id="G" x1="50%" y1="0%" x2="50%" y2="100%"><stop offset="0%" stop-color="#d8d8d8"/><stop offset="1%" stop-color="#d8d8d8"/><stop offset="50%" stop-color="#f2f2f2"/><stop offset="100%" stop-color="#d8d8d8"/></linearGradient><linearGradient id="H" x1="50%" y1="0%" x2="50%" y2="100%"><stop offset="0%" stop-color="#d8d8d8"/><stop offset="1%" stop-color="#d8d8d8"/><stop offset="50%" stop-color="#fff"/><stop offset="100%" stop-color="#d8d8d8"/></linearGradient><radialGradient id="I" r="100%" fx="50%" fy="50%" cx="50%" cy="50%"><stop offset="0%" stop-color="#bdbdbd"/><stop offset="100%" stop-color="#a5a5a5"/></radialGradient><radialGradient id="J" r="100%" fx="50%" fy="50%" cx="50%" cy="50%"><stop offset="0%" stop-color="#9d9d9d"/><stop offset="100%" stop-color="#7f7f7f"/></radialGradient><linearGradient id="K" x1="0%" y1="50%" x2="100%" y2="50%"><stop offset="0%" stop-color="#262626"/><stop offset="1%" stop-color="#262626"/><stop offset="50%" stop-color="#444"/><stop offset="100%" stop-color="#262626"/></linearGradient><linearGradient id="L" x1="50%" y1="0%" x2="50%" y2="100%"><stop offset="0%" stop-color="#7f7f7f"/><stop offset="1%" stop-color="#7f7f7f"/><stop offset="50%" stop-color="#fff"/><stop offset="100%" stop-color="#7f7f7f"/></linearGradient><path id="M" d="M75.874 27.906c0-.385-.32-.697-.746-.697-.394 0-.725.312-.725.697v1.466c0 .388.32.699.725.699s.732-.312.735-.699v-1.466z"/><path id="N" d="M115.052 136.532q-1.447-.416-2.106-1.022-.659-.606-.659-1.497 0-1.008.806-1.667.806-.659 2.095-.659.879 0 1.567.34.688.34 1.066.938.378.598.378 1.307h-1.131q0-.773-.492-1.216-.492-.442-1.389-.442-.832 0-1.298.366-.466.366-.466 1.017 0 .521.442.882.442.36 1.506.659 1.063.299 1.664.659.601.36.891.841.29.48.29 1.131 0 1.037-.809 1.661-.809.624-2.162.624-.879 0-1.641-.337-.762-.337-1.175-.923-.413-.586-.413-1.33h1.131q0 .773.571 1.222.571.448 1.526.448.891 0 1.365-.363.475-.363.475-.99 0-.627-.439-.97-.439-.343-1.594-.677z"/><path id="O" d="M314.94 107.032v8.352m-2.63-8.352v8.352m-2.63-8.352v8.352m-2.63-8.352v8.352m-2.64-8.352v8.352m-2.63-8.352v8.352m-2.63-8.352v8.352m-2.63-8.352v8.352m-2.63-8.352v8.352m-5.26-8.352v8.352m2.63-8.352v8.352m-5.26-8.352v8.352m-2.63-8.352v8.352m-2.64-8.352v8.352m-2.63-8.352v8.352m-2.63-8.352v8.352m-2.63-8.352v8.352m-2.63-8.352v8.352m-2.63-8.352v8.352m-2.63-8.352v8.352m-2.63-8.352v8.352m-2.64-8.352v8.352m-2.63-8.352v8.352m-2.63-8.352v8.352m-2.63-8.352v8.352m-2.63-8.352v8.352m-2.63-8.352v8.352m-2.63-8.352v8.352m-2.63-8.352v8.352m-2.64-8.352v8.352m-2.63-8.352v8.352m-2.63-8.352v8.352m-2.63-8.352v8.352m-2.63-8.352v8.352m-2.63-8.352v8.352m-2.63-8.352v8.352m-2.63-8.352v8.352m-2.63-8.352v8.352m-2.64-8.352v8.352m-2.63-8.352v8.352m-2.63-8.352v8.352m-2.63-8.352v8.352"/><path id="P" d="M290.866 144.393l-.407-1.113h-1.787l-.401 1.113h-.58l1.629-4.266h.492l1.632 4.266h-.577zm-1.301-3.571l-.724 1.995h1.45l-.727-1.995z"/><path id="Q" d="M294.557 143.039h.565q-.079.677-.5 1.044-.42.368-1.118.368-.756 0-1.211-.542-.456-.542-.456-1.45v-.41q0-.595.212-1.046.212-.451.602-.693.39-.242.902-.242.68 0 1.09.379.41.379.478 1.05h-.565q-.073-.51-.318-.738-.245-.228-.684-.228-.539 0-.845.398-.306.399-.306 1.134v.413q0 .694.29 1.105.29.41.811.41.469 0 .719-.213.251-.212.333-.74z"/><path id="R" d="M298.753 140.127v.463h-1.371v3.803h-.56v-3.803h-1.368v-.463h3.299z"/><path id="S" d="M722.557 143.039h.565q-.079.677-.5 1.044-.42.368-1.118.368-.756 0-1.211-.542-.456-.542-.456-1.45v-.41q0-.595.212-1.046.212-.451.602-.693.39-.242.902-.242.68 0 1.09.379.41.379.478 1.05h-.565q-.073-.51-.318-.738-.245-.228-.684-.228-.539 0-.845.398-.306.399-.306 1.134v.413q0 .694.29 1.105.29.41.812.41.469 0 .719-.213.25-.212.333-.74z"/><path id="T" d="M726.753 140.127v.463h-1.371v3.803h-.559v-3.803h-1.368v-.463h3.299z"/></defs><symbol id="U" overflow="visible"><g stroke="gray" class="B"><path d="M45 150.702h1008V5.166H45v145.536z" fill="#d9d9d9"/><g fill="url(#A)"><path d="M10.56 150.702h34.56V5.166H10.56C4.8 5.166 0 10.542 0 17.166v121.536c0 6.624 4.8 12 10.56 12z"/><path d="M1087.44 150.702h-34.56V5.166h34.56c5.76 0 10.56 5.376 10.56 12v121.536c0 6.624-4.8 12-10.56 12z"/></g></g><g class="E"><path d="M73.5 89.928h94.464v9.024H73.5z" fill="#6f9327"/><g fill="#000"><path d="M77.74 111.552v-8.6h1.05l4.06 6.744v-6.744h.98v8.6h-1.05l-4.06-6.75v6.75zm7.567-1.986l.912-.094c.077.477.225.822.443 1.037s.498.322.84.322c.292 0 .547-.074.767-.223s.4-.347.54-.595.258-.583.353-1.005a5.84 5.84 0 0 0 .142-1.29l-.005-.21a2.29 2.29 0 0 1-.778.817 1.95 1.95 0 0 1-1.068.313c-.64 0-1.18-.258-1.624-.773s-.664-1.193-.664-2.038c0-.87.23-1.572.693-2.104s1.04-.797 1.738-.797a2.31 2.31 0 0 1 1.38.45c.418.3.733.73.95 1.286s.324 1.362.324 2.417c0 1.098-.107 1.972-.322 2.622s-.534 1.148-.958 1.488-.92.5-1.5.5c-.605 0-1.1-.187-1.482-.56s-.603-.877-.681-1.563zm3.886-3.79c0-.605-.145-1.086-.435-1.44s-.64-.533-1.047-.533c-.422 0-.79.19-1.102.574s-.47.88-.47 1.488c0 .547.15.99.446 1.333a1.4 1.4 0 0 0 1.1.513 1.34 1.34 0 0 0 1.084-.513c.284-.343.425-.816.425-1.42zm2.32 5.776v-8.6h1.023v4.26l3.84-4.26h1.387l-3.243 3.49 3.385 5.11h-1.35l-2.752-4.348-1.266 1.37v2.978z" class="M"/><path d="M98.27 107.912h2.916v1.06H98.27z"/><path d="M102.322 111.552v-8.6h1.54l1.83 6.082.37 1.272.41-1.377 1.851-5.977h1.377v8.6h-.986v-7.19l-2.247 7.19h-.923l-2.236-7.312v7.312zm11.688 0v-2.057h-3.353v-.967l3.528-5.576h.775v5.566h1.044v.967h-1.044v2.067zm0-3.023v-3.873l-2.42 3.873zm3.353 3.023v-8.6h2.917c.513 0 .905.027 1.176.082.38.07.698.204.955.4s.463.474.62.83a2.87 2.87 0 0 1 .235 1.172c0 .73-.21 1.35-.628 1.854s-1.174.76-2.267.76h-1.985v3.502zm1.023-4.506h2c.66 0 1.13-.137 1.408-.4s.417-.658.417-1.154c0-.36-.082-.667-.245-.923s-.38-.425-.646-.507c-.172-.05-.5-.076-.954-.076h-1.98zm11.494 1.494l1.023.287c-.214.934-.6 1.646-1.157 2.136s-1.24.735-2.044.735c-.833 0-1.51-.188-2.033-.565s-.92-.923-1.192-1.638a6.41 6.41 0 0 1-.409-2.303c0-.894.154-1.675.46-2.34s.745-1.172 1.313-1.518 1.193-.518 1.875-.518c.774 0 1.424.22 1.95.656s.895 1.053 1.102 1.846l-1.007.264c-.18-.625-.44-1.08-.78-1.365s-.77-.428-1.287-.428c-.594 0-1.09.158-1.5.475s-.68.74-.84 1.275a5.65 5.65 0 0 0-.243 1.649c0 .73.096 1.368.287 1.913s.49.952.894 1.222a2.32 2.32 0 0 0 1.313.404c.573 0 1.058-.184 1.455-.55s.667-.912.807-1.635z" class="M"/><path d="M131.873 107.912h2.916v1.06h-2.916z"/><path d="M141.47 108.54l1.023.287c-.215.934-.6 1.646-1.158 2.136s-1.239.735-2.045.735c-.833 0-1.51-.188-2.033-.565s-.917-.923-1.19-1.638-.409-1.483-.409-2.303c0-.894.154-1.675.46-2.34s.745-1.172 1.313-1.518 1.193-.518 1.875-.518c.773 0 1.424.22 1.95.656s.895 1.053 1.102 1.846l-1.007.264c-.18-.625-.44-1.08-.78-1.365s-.77-.428-1.287-.428c-.594 0-1.09.158-1.5.475s-.68.74-.84 1.275a5.65 5.65 0 0 0-.243 1.649c0 .73.096 1.368.287 1.913s.5.952.894 1.222a2.32 2.32 0 0 0 1.313.404c.573 0 1.058-.184 1.455-.55s.666-.912.807-1.635zm2.536 3.012v-8.6h5.214v1.014h-4.19v2.66h3.628v1.014h-3.628v3.912zm5.947 0v-8.6h2.916c.514 0 .906.027 1.176.082.38.07.698.204.955.4s.463.474.62.83a2.87 2.87 0 0 1 .234 1.172c0 .73-.21 1.35-.627 1.854s-1.175.76-2.268.76h-1.983v3.502zm1.023-4.506h2c.66 0 1.13-.137 1.408-.4s.416-.658.416-1.154c0-.36-.08-.667-.245-.923s-.38-.425-.646-.507c-.172-.05-.5-.076-.954-.076h-1.978zm11.181 3.492v1.014h-5.1a2.07 2.07 0 0 1 .11-.732c.13-.387.338-.768.625-1.143s.7-.81 1.242-1.3c.84-.766 1.408-1.372 1.703-1.82s.443-.87.443-1.27c0-.418-.135-.77-.403-1.058s-.62-.43-1.052-.43c-.457 0-.823.152-1.097.457s-.413.727-.417 1.266l-.976-.11c.067-.81.318-1.425.754-1.85s1.02-.636 1.756-.636c.742 0 1.33.23 1.76.686s.65 1.023.65 1.7a2.63 2.63 0 0 1-.2 1.014c-.137.332-.337.682-.63 1.05s-.78.87-1.463 1.512l-1.097 1.08a3.43 3.43 0 0 0-.401.571z" class="M"/></g></g><g stroke="gray" class="B"><path d="M127.944 123.69c0-2.88-2.4-5.472-5.472-5.472a5.47 5.47 0 1 0 0 10.944c3.072 0 5.472-2.4 5.472-5.472z" fill="url(#B)"/><path d="M1046.895 149.952v5.952H51.375v-5.952" fill="url(#C)"/></g><path d="M177 127.164h810.048v19.488H177z" fill="#fee800" class="E"/><g class="B"><path d="M1046.895 5.952V0H51.375v5.952" stroke="gray" fill="url(#D)"/><g stroke="#595959"><path d="M233.372 134.196a3.44 3.44 0 1 0-6.912 0 3.44 3.44 0 1 0 6.912 0z" class="N"/><path d="M295.541 134.211a2.25 2.25 0 1 0-4.501 0 2.25 2.25 0 1 0 4.501 0z" fill="url(#F)"/><path d="M447.592 134.241a3.44 3.44 0 1 0-6.912 0 3.44 3.44 0 1 0 6.912 0z" class="N"/></g><path d="M13.666 34.641c9.39 1.996 18.539-4.107 20.555-13.591S30.153 2.323 20.951.367 2.412 4.474.396 13.958s3.859 18.781 13.25 20.777z" fill="url(#G)" stroke="#9a9a9a" transform="translate(5.286 48.453)"/><g stroke="#a5a5a5"><path d="M19.619 79.724c7.512 1.597 14.839-3.323 16.436-10.835S32.886 53.787 25.468 52.21 10.628 55.534 9.032 63.046s3.095 14.987 10.608 16.584z" fill="url(#H)"/><path d="M27.928 53.714L13.836 76.265a5.82 5.82 0 0 0 3.419 2.137l14.092-22.551a5.82 5.82 0 0 0-3.419-2.137z" fill="url(#I)"/><path d="M18.981 67.014l-1.056 1.738a26.88 26.88 0 0 0 4.578 2.936l.983-1.852 1.383.883c1.11-1.531 2.033-3.101 2.862-4.692l-1.289-.863 1.017-1.55a26.88 26.88 0 0 0-4.578-2.936l-1.017 1.55-1.55-1.017c-1.224 1.605-2.033 3.101-2.882 4.785l1.55 1.017z" fill="url(#J)"/></g></g><g class="E"><path d="M48 35.591c0-4.743 3.819-8.562 8.562-8.562s8.562 3.819 8.562 8.562v89.108c0 4.743-3.819 8.562-8.562 8.562S48 129.442 48 124.699z" fill="url(#K)"/><path d="M83.909 33.908h1.47v5.585h-1.47zm13.331 1.601c-.053-.031-.533-.298-1.236-.298-.959 0-1.598.633-1.598 1.49 0 .831.639 1.492 1.598 1.492.693 0 1.172-.263 1.236-.296v1.5c-.181.051-.682.199-1.332.199-1.662 0-3.112-1.092-3.112-2.893 0-1.667 1.311-2.891 3.112-2.891.682 0 1.193.161 1.332.2v1.5zm-15.356 0c-.064-.031-.533-.298-1.236-.298-.959 0-1.62.633-1.62 1.49 0 .831.639 1.492 1.62 1.492.693 0 1.172-.263 1.236-.296v1.5c-.181.051-.693.199-1.343.199-1.662 0-3.111-1.092-3.111-2.893 0-1.667 1.321-2.891 3.111-2.891.693 0 1.204.161 1.343.2v1.5zm23.07 1.191c0 1.598-1.279 2.893-3.09 2.893s-3.09-1.296-3.09-2.893 1.279-2.891 3.09-2.891 3.09 1.296 3.09 2.891zm-3.09-1.469c-.874 0-1.524.658-1.524 1.469s.639 1.469 1.524 1.469 1.524-.657 1.524-1.469-.639-1.469-1.524-1.469zm-10.911-.054c-.021-.006-.639-.17-1.14-.17-.597 0-.916.19-.916.459 0 .34.426.459.671.531l.426.122c.959.291 1.385.918 1.385 1.598 0 1.403-1.279 1.875-2.419 1.875a9.16 9.16 0 0 1-1.588-.153v-1.286c.139.031.746.207 1.385.207.725 0 1.066-.204 1.066-.52 0-.283-.288-.446-.661-.556l-.32-.097c-.821-.248-1.492-.709-1.492-1.633 0-1.045.82-1.747 2.174-1.747a6.45 6.45 0 0 1 1.428.179v1.192z" fill="#c41230"/><g fill="#005568"><use xlink:href="#M"/><path d="M79.892 25.982a.68.68 0 0 0-.211-.493.74.74 0 0 0-.514-.205c-.404 0-.732.312-.735.698v3.391c.003.387.331.699.735.699a.74.74 0 0 0 .514-.205.68.68 0 0 0 .21-.494v-3.391zm4.006-2.633c0-.385-.32-.697-.725-.697s-.746.312-.746.697v7.416c0 .388.32.699.746.699.394 0 .725-.311.725-.699v-7.416zm4.017 2.633c-.004-.386-.332-.698-.735-.698a.74.74 0 0 0-.514.205.68.68 0 0 0-.211.493v3.391a.68.68 0 0 0 .21.494.74.74 0 0 0 .514.205c.404 0 .732-.312.735-.699v-3.391zm4.017 1.924c0-.385-.32-.697-.724-.697s-.746.312-.746.697v1.466c.003.387.331.699.735.699.394 0 .724-.312.724-.699v-1.466zm4.007-1.924c-.004-.386-.332-.698-.735-.698-.394 0-.725.313-.725.698v3.391c0 .388.32.699.725.699s.732-.312.735-.699v-3.391zm4.017-2.633c0-.385-.32-.697-.746-.697-.394 0-.725.312-.725.697v7.416c0 .388.32.699.725.699s.746-.311.746-.699v-7.416zm4.017 2.633a.69.69 0 0 0-.221-.498.75.75 0 0 0-.524-.2c-.394 0-.725.313-.725.698v3.391c0 .388.32.699.725.699a.75.75 0 0 0 .525-.201.69.69 0 0 0 .221-.498v-3.391z"/><use xlink:href="#M" x="32.106"/></g><path d="M107.139 38.757v.088h-.266v.647h-.107v-.647h-.256v-.088h.639zm.053 0h.16l.234.602.213-.602h.17v.735h-.107v-.612l-.234.612h-.107l-.234-.612v.612h-.107v-.735z" fill="#c41230"/><g fill="#000"><use xlink:href="#N"/><path d="M125.553 131.803v.926h-2.742v7.605h-1.119v-7.605h-2.736v-.926h6.598z"/><use xlink:href="#N" x="14.186"/></g></g><g class="B"><path fill="#000" d="M880.21 155.952h9.6v-4.992h-9.6v4.992zm83.24 0h9.6v-4.992h-9.6v4.992zm-16.65 0h9.6v-4.992h-9.6v4.992zm-16.64 0h9.6v-4.992h-9.6v4.992zm-16.65 0h9.6v-4.992h-9.6v4.992zm-49.94 0h9.6v-4.992h-9.6v4.992zm-16.65 0h9.6v-4.992h-9.6v4.992zm-16.65 0h9.6v-4.992h-9.6v4.992zm-163.52 0h9.6v-4.992h-9.6v4.992zm83.24 0h9.6v-4.992h-9.6v4.992zm-16.65 0h9.6v-4.992h-9.6v4.992zm-16.64 0h9.6v-4.992h-9.6v4.992zm-16.65 0h9.6v-4.992h-9.6v4.992zm-49.94 0h9.6v-4.992h-9.6v4.992zm-16.65 0h9.6v-4.992h-9.6v4.992zm-16.65 0h9.6v-4.992h-9.6v4.992zm-163.52 0h9.6v-4.992h-9.6v4.992zm83.24 0h9.6v-4.992h-9.6v4.992zm-16.65 0h9.6v-4.992h-9.6v4.992zm-16.65 0h9.6v-4.992h-9.6v4.992zm-16.64 0h9.6v-4.992h-9.6v4.992zm-49.94 0h9.6v-4.992h-9.6v4.992zm-16.65 0h9.6v-4.992H420v4.992zm-16.65 0h9.6v-4.992h-9.6v4.992zm-164.28 0h9.6v-4.992h-9.6v4.992zm83.24 0h9.6v-4.992h-9.6v4.992zm-16.65 0h9.6v-4.992h-9.6v4.992zm-16.65 0h9.6v-4.992h-9.6v4.992zm-16.64 0h9.6v-4.992h-9.6v4.992zm-49.94 0h9.6v-4.992h-9.6v4.992zm-16.65 0h9.6v-4.992h-9.6v4.992zm-16.65 0h9.6v-4.992h-9.6v4.992z"/><g stroke="#595959"><path d="M880.21 155.952h9.6v-2.496h-9.6v2.496zm83.24 0h9.6v-2.496h-9.6v2.496zm-16.65 0h9.6v-2.496h-9.6v2.496zm-16.64 0h9.6v-2.496h-9.6v2.496zm-16.65 0h9.6v-2.496h-9.6v2.496zm-49.94 0h9.6v-2.496h-9.6v2.496zm-16.65 0h9.6v-2.496h-9.6v2.496zm-16.65 0h9.6v-2.496h-9.6v2.496zm-163.52 0h9.6v-2.496h-9.6v2.496zm83.24 0h9.6v-2.496h-9.6v2.496zm-16.65 0h9.6v-2.496h-9.6v2.496zm-16.64 0h9.6v-2.496h-9.6v2.496zm-16.65 0h9.6v-2.496h-9.6v2.496zm-49.94 0h9.6v-2.496h-9.6v2.496zm-16.65 0h9.6v-2.496h-9.6v2.496zm-16.65 0h9.6v-2.496h-9.6v2.496zm-163.52 0h9.6v-2.496h-9.6v2.496zm83.24 0h9.6v-2.496h-9.6v2.496zm-16.65 0h9.6v-2.496h-9.6v2.496zm-16.65 0h9.6v-2.496h-9.6v2.496zm-16.64 0h9.6v-2.496h-9.6v2.496zm-49.94 0h9.6v-2.496h-9.6v2.496zm-16.65 0h9.6v-2.496H420v2.496zm-16.65 0h9.6v-2.496h-9.6v2.496zm-164.28 0h9.6v-2.496h-9.6v2.496zm83.24 0h9.6v-2.496h-9.6v2.496zm-16.65 0h9.6v-2.496h-9.6v2.496zm-16.65 0h9.6v-2.496h-9.6v2.496zm-16.64 0h9.6v-2.496h-9.6v2.496zm-49.94 0h9.6v-2.496h-9.6v2.496zm-16.65 0h9.6v-2.496h-9.6v2.496zm-16.65 0h9.6v-2.496h-9.6v2.496z" class="F"/><g class="N"><path d="M661.052 134.196a3.44 3.44 0 1 0-6.912 0 3.44 3.44 0 1 0 6.912 0z"/><path d="M874.512 134.196a3.44 3.44 0 1 0-6.912 0 3.44 3.44 0 1 0 6.912 0z"/></g><g fill="url(#F)"><path d="M509.761 134.211a2.25 2.25 0 1 0-4.501 0 2.25 2.25 0 1 0 4.501 0z"/><path d="M723.221 134.211a2.25 2.25 0 1 0-4.501 0 2.25 2.25 0 1 0 4.501 0z"/><path d="M936.691 134.211a2.25 2.25 0 1 0-4.501 0 2.25 2.25 0 1 0 4.501 0z"/></g></g></g><g class="F G"><path d="M182.34 119.952h157.44a3.84 3.84 0 0 0 3.84-3.84v-43.2a3.84 3.84 0 0 0-3.84-3.84H182.34a3.84 3.84 0 0 0-3.84 3.84v43.2a3.84 3.84 0 0 0 3.84 3.84z" class="H I"/><g class="C"><path d="M183.43 118.222h155.136a2.88 2.88 0 0 0 2.88-2.88v-41.76a2.88 2.88 0 0 0-2.88-2.88H183.43a2.88 2.88 0 0 0-2.88 2.88v41.76a2.88 2.88 0 0 0 2.88 2.88z" class="J"/><path d="M184.3 115.422h153.408a1.92 1.92 0 0 0 1.92-1.92V75.39a1.92 1.92 0 0 0-1.92-1.92H184.3a1.92 1.92 0 0 0-1.92 1.92v38.112a1.92 1.92 0 0 0 1.92 1.92z" class="B"/></g></g><path d="M195.18 115.422H326.7V91.614H195.18v23.808z" class="B K"/><path d="M184.94 74.88H337.1V72H184.94v2.88z" class="B C D"/><use xlink:href="#O" fill="none" class="B L"/><path d="M184.94 116.822H337.1v-2.88H184.94v2.88z" class="B C D"/><g class="F G"><path d="M396.56 119.952H554a3.84 3.84 0 0 0 3.84-3.84v-43.2a3.84 3.84 0 0 0-3.84-3.84H396.56a3.84 3.84 0 0 0-3.84 3.84v43.2a3.84 3.84 0 0 0 3.84 3.84z" class="H I"/><g class="C"><path d="M397.65 118.222h155.136a2.88 2.88 0 0 0 2.88-2.88v-41.76a2.88 2.88 0 0 0-2.88-2.88H397.65a2.88 2.88 0 0 0-2.88 2.88v41.76a2.88 2.88 0 0 0 2.88 2.88z" class="J"/><path d="M398.52 115.422h153.408a1.92 1.92 0 0 0 1.92-1.92V75.39a1.92 1.92 0 0 0-1.92-1.92H398.52a1.92 1.92 0 0 0-1.92 1.92v38.112a1.92 1.92 0 0 0 1.92 1.92z" class="B"/></g></g><path d="M409.4 115.422h131.52V91.614H409.4v23.808z" class="B K"/><path d="M399.16 74.88h152.16V72H399.16v2.88z" class="B C D"/><use xlink:href="#O" x="214.22" fill="none" class="B L"/><path d="M399.16 116.822h152.16v-2.88H399.16v2.88z" class="B C D"/><g class="F G"><path d="M610.02 119.952h157.44a3.84 3.84 0 0 0 3.84-3.84v-43.2a3.84 3.84 0 0 0-3.84-3.84H610.02a3.84 3.84 0 0 0-3.84 3.84v43.2a3.84 3.84 0 0 0 3.84 3.84z" class="H I"/><g class="C"><path d="M611.11 118.222h155.136a2.88 2.88 0 0 0 2.88-2.88v-41.76a2.88 2.88 0 0 0-2.88-2.88H611.11a2.88 2.88 0 0 0-2.88 2.88v41.76a2.88 2.88 0 0 0 2.88 2.88z" class="J"/><path d="M611.98 115.422h153.408a1.92 1.92 0 0 0 1.92-1.92V75.39a1.92 1.92 0 0 0-1.92-1.92H611.98a1.92 1.92 0 0 0-1.92 1.92v38.112a1.92 1.92 0 0 0 1.92 1.92z" class="B"/></g></g><path d="M622.86 115.422h131.52V91.614H622.86v23.808z" class="B K"/><path d="M612.62 74.88h152.16V72H612.62v2.88z" class="B C D"/><use xlink:href="#O" x="427.68" fill="none" class="B L"/><path d="M612.62 116.822h152.16v-2.88H612.62v2.88z" class="B C D"/><g class="F G"><path d="M823.48 119.952h157.44a3.84 3.84 0 0 0 3.84-3.84v-43.2a3.84 3.84 0 0 0-3.84-3.84H823.48a3.84 3.84 0 0 0-3.84 3.84v43.2a3.84 3.84 0 0 0 3.84 3.84z" class="H I"/><g class="C"><path d="M824.57 118.222h155.136a2.88 2.88 0 0 0 2.88-2.88v-41.76a2.88 2.88 0 0 0-2.88-2.88H824.57a2.88 2.88 0 0 0-2.88 2.88v41.76a2.88 2.88 0 0 0 2.88 2.88z" class="J"/><path d="M825.44 115.422h153.408a1.92 1.92 0 0 0 1.92-1.92V75.39a1.92 1.92 0 0 0-1.92-1.92H825.44a1.92 1.92 0 0 0-1.92 1.92v38.112a1.92 1.92 0 0 0 1.92 1.92z" class="B"/></g></g><path d="M836.32 115.422h131.52V91.614H836.32v23.808z" class="B K"/><path d="M826.08 74.88h152.16V72H826.08v2.88z" class="B C D"/><use xlink:href="#O" x="641.14" fill="none" class="B L"/><path d="M826.08 116.822h152.16v-2.88H826.08v2.88z" class="B C D"/><path d="M1032 35.591c0-4.743 3.819-8.562 8.562-8.562s8.562 3.819 8.562 8.562v89.108c0 4.743-3.819 8.562-8.562 8.562s-8.562-3.819-8.562-8.562z" fill="url(#K)" class="E"/><g class="B"><path d="M20.942 34.641C11.551 36.637 2.402 30.534.387 21.05S4.454 2.323 13.656.367s18.539 4.107 20.555 13.591-3.86 18.781-13.25 20.777z" fill="url(#G)" stroke="#9a9a9a" transform="translate(1058.141 48.453)"/><g stroke="#a5a5a5"><path d="M1078.425 79.724c-7.512 1.597-14.839-3.323-16.436-10.835s3.169-15.101 10.588-16.678 14.839 3.323 16.436 10.835-3.096 14.987-10.608 16.584z" fill="url(#H)"/><path d="M1070.103 53.714l14.091 22.551a5.82 5.82 0 0 1-3.419 2.137l-14.092-22.551c.885-1.119 2.025-1.831 3.419-2.137z" fill="url(#I)"/><path d="M1079.066 67.014l1.056 1.738a26.88 26.88 0 0 1-4.578 2.936l-.982-1.852-1.383.883c-1.111-1.531-2.033-3.101-2.862-4.692l1.289-.863-1.017-1.55a26.88 26.88 0 0 1 4.577-2.936l1.017 1.55 1.55-1.017c1.224 1.605 2.033 3.101 2.882 4.785l-1.551 1.017z" fill="url(#J)"/></g></g><g fill="#000" class="E"><path d="M586.17 116.745v5.69l-4.8 3.251-4.8-3.251v-5.69l4.8-3.251zm-198.98 0v5.69l-4.8 3.251-4.8-3.251v-5.69l4.8-3.251zm0-25.728v5.69l-4.8 3.251-4.8-3.251v-5.69l4.8-3.251zm-14.4 0v5.69l-4.8 3.251-4.8-3.251v-5.69l4.8-3.251zm199.172 25.728v5.69l-4.8 3.251-4.8-3.251v-5.69l4.8-3.251zm-199.172 0v5.69l-4.8 3.251-4.8-3.251v-5.69l4.8-3.251zm-14.208 0v5.69l-4.8 3.251-4.8-3.251v-5.69l4.8-3.251zM1027.67 15.177v5.69l-4.8 3.251-4.8-3.251v-5.69l4.8-3.251zm-14.208 0v5.69l-4.8 3.251-4.8-3.251v-5.69l4.8-3.251zm7.104 12.96v5.69l-4.8 3.251-4.8-3.251v-5.69l4.8-3.251zm-35.52 12.96v5.69l-4.8 3.251-4.8-3.251v-5.69l4.8-3.251zm14.208 0v5.69l-4.8 3.251-4.8-3.251v-5.69l4.8-3.251zm-21.408-12.864v5.69l-4.8 3.251-4.8-3.251v-5.69l4.8-3.251zm7.104-13.056v5.69l-4.8 3.251-4.8-3.251v-5.69l4.8-3.251zm6.912 13.056v5.69l-4.8 3.251-4.8-3.251v-5.69l4.8-3.251zm7.104-12.96v5.69l-4.8 3.251-4.8-3.251v-5.69l4.8-3.251zm7.104 12.96v5.69l-4.8 3.251-4.8-3.251v-5.69l4.8-3.251zm7.104 12.96v5.69l-4.8 3.251-4.8-3.251v-5.69l4.8-3.251zm14.4 0v5.69l-4.8 3.251-4.8-3.251v-5.69l4.8-3.251zM920.63 54.153v5.69l-4.8 3.251-4.8-3.251v-5.69l4.8-3.251zm14.4 0v5.69l-4.8 3.251-4.8-3.251v-5.69l4.8-3.251zm14.208 0v5.69l-4.8 3.251-4.8-3.251v-5.69l4.8-3.251zm14.4 0v5.69l-4.8 3.251-4.8-3.251v-5.69l4.8-3.251zm-113.28 0v5.69l-4.8 3.251-4.8-3.251v-5.69l4.8-3.251zm14.208 0v5.69l-4.8 3.251-4.8-3.251v-5.69l4.8-3.251zm13.632 0v5.69l-4.8 3.251-4.8-3.251v-5.69l4.8-3.251zm14.208 0v5.69l-4.8 3.251-4.8-3.251v-5.69l4.8-3.251zm14.208 0v5.69l-4.8 3.251-4.8-3.251v-5.69l4.8-3.251zm-84.864 0v5.69l-4.8 3.251-4.8-3.251v-5.69l4.8-3.251zm14.208 0v5.69l-4.8 3.251-4.8-3.251v-5.69l4.8-3.251zM941.27 15.177v5.69l-4.8 3.251-4.8-3.251v-5.69l4.8-3.251zm7.392 12.96v5.69l-4.8 3.251-4.8-3.251v-5.69l4.8-3.251zm7.104-12.96v5.69l-4.8 3.251-4.8-3.251v-5.69l4.8-3.251zm7.104 12.96v5.69l-4.8 3.251-4.8-3.251v-5.69l4.8-3.251zm7.104-12.96v5.69l-4.8 3.251-4.8-3.251v-5.69l4.8-3.251zm-42.72 25.92v5.69l-4.8 3.251-4.8-3.251v-5.69l4.8-3.251zm-7.104-12.96v5.69l-4.8 3.251-4.8-3.251v-5.69l4.8-3.251zm7.104-12.96v5.69l-4.8 3.251-4.8-3.251v-5.69l4.8-3.251zm7.104 12.96v5.69l-4.8 3.251-4.8-3.251v-5.69l4.8-3.251zm7.104 13.056v5.69l-4.8 3.251-4.8-3.251v-5.69l4.8-3.251zm14.208 0v5.69l-4.8 3.251-4.8-3.251v-5.69l4.8-3.251zm14.208-.096v5.69l-4.8 3.251-4.8-3.251v-5.69l4.8-3.251zm-78.432-12.864v5.69l-4.8 3.251-4.8-3.251v-5.69l4.8-3.251zm7.104-14.016v5.69l-4.8 3.251-4.8-3.251v-5.69l4.8-3.251zm7.392 14.016v5.69l-4.8 3.251-4.8-3.251v-5.69l4.8-3.251zm7.104-12.96v5.69l-4.8 3.251-4.8-3.251v-5.69l4.8-3.251zm-42.72 25.92v5.69l-4.8 3.251-4.8-3.251v-5.69l4.8-3.251zm14.208 0v5.69l-4.8 3.251-4.8-3.251v-5.69l4.8-3.251zm-20.736-12.96v5.69l-4.8 3.251-4.8-3.251v-5.69l4.8-3.251zm6.432-12.96v5.69l-4.8 3.251-4.8-3.251v-5.69l4.8-3.251zm7.104 12.96v5.69l-4.8 3.251-4.8-3.251v-5.69l4.8-3.251zm7.104-12.96v5.69l-4.8 3.251-4.8-3.251v-5.69l4.8-3.251zm14.208 25.92v5.69l-4.8 3.251-4.8-3.251v-5.69l4.8-3.251zm14.208 0v5.69l-4.8 3.251-4.8-3.251v-5.69l4.8-3.251zm-76.8-12.96v5.69l-4.8 3.251-4.8-3.251v-5.69l4.8-3.251zm7.104-12.96v5.69l-4.8 3.251-4.8-3.251v-5.69l4.8-3.251zm7.104 12.96v5.69l-4.8 3.251-4.8-3.251v-5.69l4.8-3.251zm7.104-12.96v5.69l-4.8 3.251-4.8-3.251v-5.69l4.8-3.251zm-28.512 25.92v5.69l-4.8 3.251-4.8-3.251v-5.69l4.8-3.251zm-7.104-12.96v5.69l-4.8 3.251-4.8-3.251v-5.69l4.8-3.251zm7.104-13.056v5.69l-4.8 3.251-4.8-3.251v-5.69l4.8-3.251zm14.208 26.016v5.69l-4.8 3.251-4.8-3.251v-5.69l4.8-3.251zm14.208 0v5.69l-4.8 3.251-4.8-3.251v-5.69l4.8-3.251zm120.768 12.96v5.69l-4.8 3.251-4.8-3.251v-5.69l4.8-3.251zm14.208 0v5.69l-4.8 3.251-4.8-3.251v-5.69l4.8-3.251zm14.4 0v5.69l-4.8 3.251-4.8-3.251v-5.69l4.8-3.251zm14.208 0v5.69l-4.8 3.251-4.8-3.251v-5.69l4.8-3.251zm6.72 36.864v5.69l-4.8 3.251-4.8-3.251v-5.69l4.8-3.251zm-14.4.96v5.69l-4.8 3.251-4.8-3.251v-5.69l4.8-3.251zm-14.208 0v5.69l-4.8 3.251-4.8-3.251v-5.69l4.8-3.251zm28.512-26.112v5.69l-4.8 3.251-4.8-3.251v-5.69l4.8-3.251zm-14.4.096v5.69l-4.8 3.251-4.8-3.251v-5.69l4.8-3.251zm-14.208 0v5.69l-4.8 3.251-4.8-3.251v-5.69l4.8-3.251zm21.408 39.072v5.69l-4.8 3.251-4.8-3.251v-5.69l4.8-3.251zm-14.208 0v5.69l-4.8 3.251-4.8-3.251v-5.69l4.8-3.251zm14.208-25.92v5.69l-4.8 3.251-4.8-3.251v-5.69l4.8-3.251zm-14.208 0v5.69l-4.8 3.251-4.8-3.251v-5.69l4.8-3.251zm21.504 37.632v5.69l-4.8 3.251-4.8-3.251v-5.69l4.8-3.251zm-14.4.096v5.69l-4.8 3.251-4.8-3.251v-5.69l4.8-3.251zm-14.208 0v5.69l-4.8 3.251-4.8-3.251v-5.69l4.8-3.251zM615.448 41.193v5.69l-4.8 3.251-4.8-3.251v-5.69l4.8-3.251zm-9.984-.179l.384-.219m208.608-25.617v5.69l-4.8 3.251-4.8-3.251v-5.69l4.8-3.251zm-21.408 38.976v5.69l-4.8 3.251-4.8-3.251v-5.69l4.8-3.251zm14.4 0v5.69l-4.8 3.251-4.8-3.251v-5.69l4.8-3.251zm-71.232 0v5.69l-4.8 3.251-4.8-3.251v-5.69l4.8-3.251zm14.208 0v5.69l-4.8 3.251-4.8-3.251v-5.69l4.8-3.251zm14.4 0v5.69l-4.8 3.251-4.8-3.251v-5.69l4.8-3.251zm14.208 0v5.69l-4.8 3.251-4.8-3.251v-5.69l4.8-3.251zm-99.84 0v5.69l-4.8 3.251-4.8-3.251v-5.69l4.8-3.251zm14.208 0v5.69l-4.8 3.251-4.8-3.251v-5.69l4.8-3.251zm14.4 0v5.69l-4.8 3.251-4.8-3.251v-5.69l4.8-3.251zm14.208 0v5.69l-4.8 3.251-4.8-3.251v-5.69l4.8-3.251zm-99.84 0v5.69l-4.8 3.251-4.8-3.251v-5.69l4.8-3.251zm14.4 0v5.69l-4.8 3.251-4.8-3.251v-5.69l4.8-3.251zm14.208 0v5.69l-4.8 3.251-4.8-3.251v-5.69l4.8-3.251zm14.208 0v5.69l-4.8 3.251-4.8-3.251v-5.69l4.8-3.251zm49.92-12.96v5.69l-4.8 3.251-4.8-3.251v-5.69l4.8-3.251zm-21.408-12.96v5.69l-4.8 3.251-4.8-3.251v-5.69l4.8-3.251zm-85.536 25.92v5.69l-4.8 3.251-4.8-3.251v-5.69l4.8-3.251zm199.68-26.016v5.69l-4.8 3.251-4.8-3.251v-5.69l4.8-3.251zm7.104 12.96v5.69l-4.8 3.251-4.8-3.251v-5.69l4.8-3.251zm-35.52-12.96v5.69l-4.8 3.251-4.8-3.251v-5.69l4.8-3.251zm7.104-12.96v5.69l-4.8 3.251-4.8-3.251v-5.69l4.8-3.251zm7.104 12.96v5.69l-4.8 3.251-4.8-3.251v-5.69l4.8-3.251zm7.104-12.96v5.69l-4.8 3.251-4.8-3.251v-5.69l4.8-3.251zm-42.72 25.92v5.69l-4.8 3.251-4.8-3.251v-5.69l4.8-3.251zm14.208 0v5.69l-4.8 3.251-4.8-3.251v-5.69l4.8-3.251zm-21.408-12.864v5.69l-4.8 3.251-4.8-3.251v-5.69l4.8-3.251zm7.104-13.056v5.69l-4.8 3.251-4.8-3.251v-5.69l4.8-3.251zm7.104 12.96v5.69l-4.8 3.251-4.8-3.251v-5.69l4.8-3.251zm7.104-12.96v5.69l-4.8 3.251-4.8-3.251v-5.69l4.8-3.251zm14.208 26.016v5.69l-4.8 3.251-4.8-3.251v-5.69l4.8-3.251zm14.4 0v5.69l-4.8 3.251-4.8-3.251v-5.69l4.8-3.251zm-78.432-13.056v5.69l-4.8 3.251-4.8-3.251v-5.69l4.8-3.251zm7.104-12.96v5.69l-4.8 3.251-4.8-3.251v-5.69l4.8-3.251zm7.104 13.056v5.69l-4.8 3.251-4.8-3.251v-5.69l4.8-3.251zm7.104-13.056v5.69l-4.8 3.251-4.8-3.251v-5.69l4.8-3.251zm-42.72 26.016v5.69l-4.8 3.251-4.8-3.251v-5.69l4.8-3.251zm-.096-26.016v5.69l-4.8 3.251-4.8-3.251v-5.69l4.8-3.251zm7.104 12.96v5.69l-4.8 3.251-4.8-3.251v-5.69l4.8-3.251zm7.104-12.96v5.69l-4.8 3.251-4.8-3.251v-5.69l4.8-3.251zm14.208 25.92v5.69l-4.8 3.251-4.8-3.251v-5.69l4.8-3.251zm14.4 0v5.69l-4.8 3.251-4.8-3.251v-5.69l4.8-3.251zm-78.432-12.864v5.69l-4.8 3.251-4.8-3.251v-5.69l4.8-3.251zm7.104-13.056v5.69l-4.8 3.251-4.8-3.251v-5.69l4.8-3.251zm7.104 13.056v5.69l-4.8 3.251-4.8-3.251v-5.69l4.8-3.251zm7.104-13.056v5.69l-4.8 3.251-4.8-3.251v-5.69l4.8-3.251zm-42.72 26.016v5.69l-4.8 3.251-4.8-3.251v-5.69l4.8-3.251zm14.208 0v5.69l-4.8 3.251-4.8-3.251v-5.69l4.8-3.251zm-21.408-12.96v5.69l-4.8 3.251-4.8-3.251v-5.69l4.8-3.251zm7.104-13.056v5.69l-4.8 3.251-4.8-3.251v-5.69l4.8-3.251zm7.2 13.056v5.69l-4.8 3.251-4.8-3.251v-5.69l4.8-3.251zm7.2-14.016v5.69l-4.8 3.251-4.8-3.251v-5.69l4.8-3.251zm14.304 26.976v5.69l-4.8 3.251-4.8-3.251v-5.69l4.8-3.251zm14.208 0v5.69l-4.8 3.251-4.8-3.251v-5.69l4.8-3.251zm-78.432-12.96v5.69l-4.8 3.251-4.8-3.251v-5.69l4.8-3.251zm7.2-13.056v5.69l-4.8 3.251-4.8-3.251v-5.69l4.8-3.251zm7.392 13.056v5.69l-4.8 3.251-4.8-3.251v-5.69l4.8-3.251zm7.104 12.96v5.69l-4.8 3.251-4.8-3.251v-5.69l4.8-3.251zm0-26.112v5.69l-4.8 3.251-4.8-3.251v-5.69l4.8-3.251zM813.88 91.977v5.69l-4.8 3.251-4.8-3.251v-5.69l4.8-3.251zm-14.016-.96v5.69l-4.8 3.251-4.8-3.251v-5.69l4.8-3.251zm-14.304 0v5.69l-4.8 3.251-4.8-3.251v-5.69l4.8-3.251zm28.32-25.056v5.69l-4.8 3.251-4.8-3.251v-5.69l4.8-3.251zm-14.112 0v5.69l-4.8 3.251-4.8-3.251v-5.69l4.8-3.251zm-14.208 0v5.69l-4.8 3.251-4.8-3.251v-5.69l4.8-3.251zm21.216 39.072v5.69l-4.8 3.251-4.8-3.251v-5.69l4.8-3.251zm-14.208 0v5.69l-4.8 3.251-4.8-3.251v-5.69l4.8-3.251zm14.208-25.92v5.69l-4.8 3.251-4.8-3.251v-5.69l4.8-3.251zm-14.208 0v5.69l-4.8 3.251-4.8-3.251v-5.69l4.8-3.251zm21.312 37.728v5.69l-4.8 3.251-4.8-3.251v-5.69l4.8-3.251zm-14.112-.096v5.69l-4.8 3.251-4.8-3.251v-5.69l4.8-3.251zm-14.208 0v5.69l-4.8 3.251-4.8-3.251v-5.69l4.8-3.251zM398.97 53.864v-.082l-.192.192zm9.6.289v5.69l-4.8 3.251-4.8-3.251v-5.69l4.8-3.251zm4.608-.235v-.136l-.096.192zm9.6.235v5.69l-4.8 3.251-4.8-3.251v-5.69l4.8-3.251zm4.608-.235v-.136l-.096.192zm9.6.235v5.69l-4.8 3.251-4.8-3.251v-5.69l4.8-3.251zm14.208 0v5.69l-4.8 3.251-4.8-3.251v-5.69l4.8-3.251zm-9.6-.371v.192m23.808.179v5.69l-4.8 3.251-4.8-3.251v-5.69l4.8-3.251zm-9.6-.371v.192m23.808.179v5.69l-4.8 3.251-4.8-3.251v-5.69l4.8-3.251zm-9.6-.371v.192m38.208.179v5.69l-4.8 3.251-4.8-3.251v-5.69l4.8-3.251zm-9.6-.371v.192m14.4-.168v-.024l-.288.192zm9.6.347v5.69l-4.8 3.251-4.8-3.251v-5.69l4.8-3.251zm4.608-.235v-.136l-.096.192zm9.6.235v5.69l-4.8 3.251-4.8-3.251v-5.69l4.8-3.251zm49.632 36.864v5.69l-4.8 3.251-4.8-3.251v-5.69l4.8-3.251zm-9.888.781l.288-.22m9.504-25.713v5.69l-4.8 3.251-4.8-3.251v-5.69l4.8-3.251zm-9.792-.083l.192-.111m16.608 39.362v5.69l-4.8 3.251-4.8-3.251v-5.69l4.8-3.251zm-9.6-.371v.192m-4.608.179v5.69l-4.8 3.251-4.8-3.251v-5.69l4.8-3.251zm-9.6-.371v.192m23.808-25.741v5.69l-4.8 3.251-4.8-3.251v-5.69l4.8-3.251zm-9.6-.371v.192m-4.608.179v5.69l-4.8 3.251-4.8-3.251v-5.69l4.8-3.251zm-9.6-.371v.192m29.568-63.757v5.69l-4.8 3.251-4.8-3.251v-5.69l4.8-3.251zm-48.92 38.976v5.69l-4.8 3.251-4.8-3.251v-5.69l4.8-3.251zm13.4 0v5.69l-4.8 3.251-4.8-3.251v-5.69l4.8-3.251zm14.208 0v5.69l-4.8 3.251-4.8-3.251v-5.69l4.8-3.251zm14.4 0v5.69l-4.8 3.251-4.8-3.251v-5.69l4.8-3.251zm7.104-12.96v5.69l-4.8 3.251-4.8-3.251v-5.69l4.8-3.251zm-28.512-25.92v5.69l-4.8 3.251-4.8-3.251v-5.69l4.8-3.251zm7.104 12.96v5.69l-4.8 3.251-4.8-3.251v-5.69l4.8-3.251zm7.104-12.96v5.69l-4.8 3.251-4.8-3.251v-5.69l4.8-3.251zm7.104 12.96v5.69l-4.8 3.251-4.8-3.251v-5.69l4.8-3.251zm-49.92 12.96v5.69l-4.8 3.251-4.8-3.251v-5.69l4.8-3.251zm14.208 0v5.69l-4.8 3.251-4.8-3.251v-5.69l4.8-3.251zm-14.208-25.92v5.69l-4.8 3.251-4.8-3.251v-5.69l4.8-3.251zm7.104 12.96v5.69l-4.8 3.251-4.8-3.251v-5.69l4.8-3.251zm7.104-12.96v5.69l-4.8 3.251-4.8-3.251v-5.69l4.8-3.251zm7.104 12.96v5.69l-4.8 3.251-4.8-3.251v-5.69l4.8-3.251zm7.104 12.96v5.69l-4.8 3.251-4.8-3.251v-5.69l4.8-3.251zm14.4 0v5.69l-4.8 3.251-4.8-3.251v-5.69l4.8-3.251zM470.97 15.273v5.69l-4.8 3.251-4.8-3.251v-5.69l4.8-3.251zm14.208 0v5.69l-4.8 3.251-4.8-3.251v-5.69l4.8-3.251zm14.208 0v5.69l-4.8 3.251-4.8-3.251v-5.69l4.8-3.251zm14.208 0v5.69l-4.8 3.251-4.8-3.251v-5.69l4.8-3.251zm14.4 0v5.69l-4.8 3.251-4.8-3.251v-5.69l4.8-3.251zm-128.256-.096v5.69l-4.8 3.251-4.8-3.251v-5.69l4.8-3.251zm14.208.096v5.69l-4.8 3.251-4.8-3.251v-5.69l4.8-3.251zm14.208 0v5.69l-4.8 3.251-4.8-3.251v-5.69l4.8-3.251zm14.208-1.056v5.69l-4.8 3.251-4.8-3.251v-5.69l4.8-3.251zm14.208 1.056v5.69l-4.8 3.251-4.8-3.251v-5.69l4.8-3.251zm-64.128 12.96v5.69l-4.8 3.251-4.8-3.251v-5.69l4.8-3.251zm14.208 0v5.69l-4.8 3.251-4.8-3.251v-5.69l4.8-3.251zm14.208 0v5.69l-4.8 3.251-4.8-3.251v-5.69l4.8-3.251zm14.208 0v5.69l-4.8 3.251-4.8-3.251v-5.69l4.8-3.251zm14.208 0v5.69l-4.8 3.251-4.8-3.251v-5.69l4.8-3.251zm14.208 0v5.69l-4.8 3.251-4.8-3.251v-5.69l4.8-3.251zm14.208 0v5.69l-4.8 3.251-4.8-3.251v-5.69l4.8-3.251zm14.208 0v5.69l-4.8 3.251-4.8-3.251v-5.69l4.8-3.251zm14.4 0v5.69l-4.8 3.251-4.8-3.251v-5.69l4.8-3.251zm14.4 0v5.69l-4.8 3.251-4.8-3.251v-5.69l4.8-3.251zm14.208 0v5.69l-4.8 3.251-4.8-3.251v-5.69l4.8-3.251zm-134.4 12.96v5.69l-4.8 3.251-4.8-3.251v-5.69l4.8-3.251zm14.208 0v5.69l-4.8 3.251-4.8-3.251v-5.69l4.8-3.251zm14.208 0v5.69l-4.8 3.251-4.8-3.251v-5.69l4.8-3.251zm14.208 0v5.69l-4.8 3.251-4.8-3.251v-5.69l4.8-3.251zm14.208 0v5.69l-4.8 3.251-4.8-3.251v-5.69l4.8-3.251zm14.208 0v5.69l-4.8 3.251-4.8-3.251v-5.69l4.8-3.251zm14.208 0v5.69l-4.8 3.251-4.8-3.251v-5.69l4.8-3.251zm14.208 0v5.69l-4.8 3.251-4.8-3.251v-5.69l4.8-3.251zm14.208 0v5.69l-4.8 3.251-4.8-3.251v-5.69l4.8-3.251zm14.4 0v5.69l-4.8 3.251-4.8-3.251v-5.69l4.8-3.251zm-134.4 12.96v5.69l-4.8 3.251-4.8-3.251v-5.69l4.8-3.251zm4.8-.289l-.192.11.192-.192zm14.208.054l-.096.056.096-.192zm14.208 0l-.096.056.096-.192zm66.432.235v5.69l-4.8 3.251-4.8-3.251v-5.69l4.8-3.251zm19.2-.347l-.288.168.288-.192zm14.208.112l-.096.056.096-.192zm73.344 37.099v5.69l-4.8 3.251-4.8-3.251v-5.69l4.8-3.251zm-28.512 0v5.69l-4.8 3.251-4.8-3.251v-5.69l4.8-3.251zm28.512-25.152v5.69l-4.8 3.251-4.8-3.251v-5.69l4.8-3.251zm-28.608 0v5.69l-4.8 3.251-4.8-3.251v-5.69l4.8-3.251zm28.608 50.88v5.69l-4.8 3.251-4.8-3.251v-5.69l4.8-3.251zM194.806 28.233v5.69l-4.8 3.251-4.8-3.251v-5.69l4.8-3.251zm-9.696-.179l.096-.056m23.808.235v5.69l-4.8 3.251-4.8-3.251v-5.69l4.8-3.251zm-9.696-.179l.096-.056m152.16 26.155v5.69l-4.8 3.251-4.8-3.251v-5.69l4.8-3.251zm-9.696-.179l.096-.056m-33.216.235v5.69l-4.8 3.251-4.8-3.251v-5.69l4.8-3.251zm-9.696-.179l.096-.056m-61.632.235v5.69l-4.8 3.251-4.8-3.251v-5.69l4.8-3.251zm-9.696-.179l.096-.056m23.808.235v5.69l-4.8 3.251-4.8-3.251v-5.69l4.8-3.251zm-9.696-.179l.096-.056m128.352 50.88v-.136l-.096.192zm9.6.235v5.69l-4.8 3.251-4.8-3.251v-5.69l4.8-3.251zm-24-.235v-.136l-.096.192zm9.6.235v5.69l-4.8 3.251-4.8-3.251v-5.69l4.8-3.251zm4.8-26.155v-.136l-.096.192zm9.6.235v5.69l-4.8 3.251-4.8-3.251v-5.69l4.8-3.251zm-24-.235v-.136l-.096.192zm9.6.235v5.69l-4.8 3.251-4.8-3.251v-5.69l4.8-3.251zm11.808 37.453l.096-.056m9.408-101.237v5.69l-4.8 3.251-4.8-3.251v-5.69l4.8-3.251zm-57.024 0v5.69l-4.8 3.251-4.8-3.251v-5.69l4.8-3.251zm14.4 0v5.69l-4.8 3.251-4.8-3.251v-5.69l4.8-3.251zm14.4 0v5.69l-4.8 3.251-4.8-3.251v-5.69l4.8-3.251zm14.208 0v5.69l-4.8 3.251-4.8-3.251v-5.69l4.8-3.251zm-114.048 0v5.69l-4.8 3.251-4.8-3.251v-5.69l4.8-3.251zm14.016-1.056v5.69l-4.8 3.251-4.8-3.251v-5.69l4.8-3.251zm14.4 1.056v5.69l-4.8 3.251-4.8-3.251v-5.69l4.8-3.251zm14.4 0v5.69l-4.8 3.251-4.8-3.251v-5.69l4.8-3.251zm14.4 0v5.69l-4.8 3.251-4.8-3.251v-5.69l4.8-3.251zm-128.64-1.056v5.69l-4.8 3.251-4.8-3.251v-5.69l4.8-3.251zm14.4 0v5.69l-4.8 3.251-4.8-3.251v-5.69l4.8-3.251zm14.4 1.056v5.69l-4.8 3.251-4.8-3.251v-5.69l4.8-3.251zm13.92-.096v5.69l-4.8 3.251-4.8-3.251v-5.69l4.8-3.251zm14.4 0v5.69l-4.8 3.251-4.8-3.251v-5.69l4.8-3.251zm-21.6 13.056v5.69l-4.8 3.251-4.8-3.251v-5.69l4.8-3.251zm14.4 0v5.69l-4.8 3.251-4.8-3.251v-5.69l4.8-3.251zm14.208 0v5.69l-4.8 3.251-4.8-3.251v-5.69l4.8-3.251zm14.208 0v5.69l-4.8 3.251-4.8-3.251v-5.69l4.8-3.251zm14.208 0v5.69l-4.8 3.251-4.8-3.251v-5.69l4.8-3.251zm14.208 0v5.69l-4.8 3.251-4.8-3.251v-5.69l4.8-3.251zm14.208 0v5.69l-4.8 3.251-4.8-3.251v-5.69l4.8-3.251zm14.4 0v5.69l-4.8 3.251-4.8-3.251v-5.69l4.8-3.251zm14.208 0v5.69l-4.8 3.251-4.8-3.251v-5.69l4.8-3.251zm14.208 0v5.69l-4.8 3.251-4.8-3.251v-5.69l4.8-3.251zm14.208 0v5.69l-4.8 3.251-4.8-3.251v-5.69l4.8-3.251zm14.4 0v5.69l-4.8 3.251-4.8-3.251v-5.69l4.8-3.251zM187.51 41.193v5.69l-4.8 3.251-4.8-3.251v-5.69l4.8-3.251zm14.112 0v5.69l-4.8 3.251-4.8-3.251v-5.69l4.8-3.251zm14.208 0v5.69l-4.8 3.251-4.8-3.251v-5.69l4.8-3.251zm14.208 0v5.69l-4.8 3.251-4.8-3.251v-5.69l4.8-3.251zm14.208 0v5.69l-4.8 3.251-4.8-3.251v-5.69l4.8-3.251zm14.208 0v5.69l-4.8 3.251-4.8-3.251v-5.69l4.8-3.251zm99.84 0v5.69l-4.8 3.251-4.8-3.251v-5.69l4.8-3.251zm14.208 0v5.69l-4.8 3.251-4.8-3.251v-5.69l4.8-3.251zm14.4 0v5.69l-4.8 3.251-4.8-3.251v-5.69l4.8-3.251zm-114.048 0v5.69l-4.8 3.251-4.8-3.251v-5.69l4.8-3.251zm14.208 0v5.69l-4.8 3.251-4.8-3.251v-5.69l4.8-3.251zm14.4 0v5.69l-4.8 3.251-4.8-3.251v-5.69l4.8-3.251zm14.208 0v5.69l-4.8 3.251-4.8-3.251v-5.69l4.8-3.251zm14.4 0v5.69l-4.8 3.251-4.8-3.251v-5.69l4.8-3.251zm14.4 0v5.69l-4.8 3.251-4.8-3.251v-5.69l4.8-3.251zm-7.296 12.96v5.69l-4.8 3.251-4.8-3.251v-5.69l4.8-3.251zm28.416 0v5.69l-4.8 3.251-4.8-3.251v-5.69l4.8-3.251zm14.4 0v5.69l-4.8 3.251-4.8-3.251v-5.69l4.8-3.251zm-99.84 0v5.69l-4.8 3.251-4.8-3.251v-5.69l4.8-3.251zm14.4 0v5.69l-4.8 3.251-4.8-3.251v-5.69l4.8-3.251zm27.36 0v5.69l-4.8 3.251-4.8-3.251v-5.69l4.8-3.251zm-127.296 0v5.69l-4.8 3.251-4.8-3.251v-5.69l4.8-3.251zm14.304 0v5.69l-4.8 3.251-4.8-3.251v-5.69l4.8-3.251zm14.112 0v5.69l-4.8 3.251-4.8-3.251v-5.69l4.8-3.251zm42.912 0v5.69l-4.8 3.251-4.8-3.251v-5.69l4.8-3.251zm92.832 36.864v5.69l-4.8 3.251-4.8-3.251v-5.69l4.8-3.251zm28.512-25.152v5.69l-4.8 3.251-4.8-3.251v-5.69l4.8-3.251zm-14.4 0v5.69l-4.8 3.251-4.8-3.251v-5.69l4.8-3.251zm-14.208 0v5.69l-4.8 3.251-4.8-3.251v-5.69l4.8-3.251zm11.808 38.933l-.096.056.096-.192zm-14.4 0l-.096.056.096-.192zm14.4-25.92l-.096.056.096-.192zm-14.4 0l-.096.056.096-.192z"/><use xlink:href="#P"/><use xlink:href="#Q"/><use xlink:href="#R"/><path d="M222.874 132.121v4.272h-.847v-3.264l-1.011.314v-.689l1.767-.633h.091z"/><use xlink:href="#P" x="214"/><use xlink:href="#Q" x="214"/><use xlink:href="#R" x="214"/><path d="M437.741 135.71v.683h-2.924v-.58l1.38-1.471q.284-.311.42-.542.136-.231.136-.439 0-.284-.144-.447-.144-.163-.41-.163-.287 0-.453.198-.166.198-.166.52h-.85q0-.39.186-.712.186-.322.526-.505.34-.183.77-.183.659 0 1.024.316.365.316.365.894 0 .316-.164.644-.164.328-.562.765l-.97 1.023h1.834z"/><use xlink:href="#P" x="428"/><use xlink:href="#S"/><use xlink:href="#T"/><path d="M648.679 134.547v-.662h.451q.322 0 .478-.161.155-.161.155-.428 0-.258-.154-.401-.154-.144-.423-.144-.243 0-.407.133-.164.133-.164.347h-.847q0-.334.18-.599.18-.265.504-.415.324-.149.713-.149.677 0 1.061.324.384.324.384.892 0 .293-.179.539-.179.246-.469.378.36.129.538.387.177.258.177.609 0 .568-.414.911-.415.343-1.097.343-.639 0-1.044-.337-.406-.337-.406-.891h.847q0 .24.18.393.18.152.444.152.302 0 .473-.16.171-.16.171-.423 0-.639-.703-.639h-.448z"/><use xlink:href="#P" x="641"/><use xlink:href="#S" x="213"/><use xlink:href="#T" x="213"/><path d="M864.322 132.127v2.66h.483v.683h-.483v.923h-.847v-.923h-1.749l-.038-.533 1.778-2.81h.856zm-.902 1.251l-.888 1.409h.943v-1.506l-.056.097z"/></g></symbol></svg>