<svg xmlns="http://www.w3.org/2000/svg" xmlns:xlink="http://www.w3.org/1999/xlink" viewBox="0 0 1825 165" fill="#fff" fill-rule="evenodd" stroke="#000" stroke-linecap="round" stroke-linejoin="round"><style><![CDATA[.B{stroke-width:.96}.C{stroke:none}.D{fill:#000}.E{stroke-linejoin:miter}.F{fill:none}.G{stroke:gray}.H{stroke:#ddd}.I{fill:url(#P)}.J{fill:#ac2f54}.K{fill:#262626}.L{stroke:#404040}.M{stroke-width:1.632}.N{fill:#404040}.O{fill:#c1c5cb}.P{fill:url(#F)}.Q{stroke-width:2.88}.R{fill-rule:nonzero}.S{fill:#701f37}.T{fill:#595959}.U{fill:url(#L)}.V{fill:#b2b2b2}.W{fill:#ddd}.X{stroke:#5f5f5f}.Y{fill:url(#A)}.Z{fill:url(#B)}.a{fill:silver}.b{stroke:#595959}.c{fill:#d9d9d9}.d{fill:url(#O)}.e{stroke:#262626}.f{fill:url(#Q)}.g{stroke:#737373}.h{fill-opacity:0}.i{stroke-width:7.968}]]></style><use xlink:href="#AB" x=".5" y=".5"/><defs><linearGradient id="A" x1="100%" y1="50%" x2="0%" y2="50%"><stop offset="0%" stop-color="#737373"/><stop offset="100%" stop-color="#c1c5cb"/></linearGradient><linearGradient id="B" x1="0%" y1="50%" x2="100%" y2="50%"><stop offset="0%" stop-color="#737373"/><stop offset="100%" stop-color="#c1c5cb"/></linearGradient><linearGradient id="C" x1="0%" y1="50%" x2="100%" y2="50%"><stop offset="0%" stop-color="#737373"/><stop offset="1%" stop-color="#737373"/><stop offset="50%" stop-color="#c1c5cb"/><stop offset="100%" stop-color="#737373"/></linearGradient><linearGradient id="D" x1="50%" y1="0%" x2="50%" y2="100%"><stop offset="0%" stop-color="#737373"/><stop offset="100%" stop-color="#c1c5cb"/></linearGradient><radialGradient id="E" r="100%" fx="50%" fy="50%" cx="50%" cy="50%"><stop offset="0%" stop-color="gray"/><stop offset="71%" stop-color="#262626"/></radialGradient><radialGradient id="F" r="100%" fx="50%" fy="50%" cx="50%" cy="50%"><stop offset="0%" stop-color="#fff"/><stop offset="71%" stop-color="#b2b2b2"/></radialGradient><linearGradient id="G" x1="50%" y1="0%" x2="50%" y2="100%"><stop offset="0%" stop-color="#fff"/><stop offset="1%" stop-color="#fff"/><stop offset="50%" stop-color="#9a9a9a"/><stop offset="100%" stop-color="#fff"/></linearGradient><radialGradient id="H" r="100%" fx="50%" fy="50%" cx="50%" cy="50%"><stop offset="0%" stop-color="#1e1e1e"/><stop offset="71%" stop-color="#7f7f7f"/></radialGradient><radialGradient id="I" r="100%" fx="50%" fy="50%" cx="50%" cy="50%"><stop offset="0%" stop-color="#b3b3b3"/><stop offset="100%" stop-color="#333"/></radialGradient><radialGradient id="J" r="100%" fx="50%" fy="50%" cx="50%" cy="50%"><stop offset="0%" stop-color="#f2872f"/><stop offset="71%" stop-color="#d9680d"/></radialGradient><radialGradient id="K" r="100%" fx="50%" fy="50%" cx="50%" cy="50%"><stop offset="0%" stop-color="#46c146"/><stop offset="71%" stop-color="#393"/></radialGradient><linearGradient id="L" x1="50%" y1="100%" x2="50%" y2="0%"><stop offset="0%" stop-color="#7f7f7f"/><stop offset="100%" stop-color="#c1c5cb"/></linearGradient><linearGradient id="M" x1="100%" y1="50%" x2="0%" y2="50%"><stop offset="0%" stop-color="#7f7f7f"/><stop offset="100%" stop-color="#c1c5cb"/></linearGradient><linearGradient id="N" x1="0%" y1="50%" x2="100%" y2="50%"><stop offset="0%" stop-color="#262626"/><stop offset="1%" stop-color="#262626"/><stop offset="50%" stop-color="#444"/><stop offset="100%" stop-color="#262626"/></linearGradient><radialGradient id="O" r="100%" fx="50%" fy="50%" cx="50%" cy="50%"><stop offset="0%" stop-color="#777"/><stop offset="71%" stop-color="#595959"/></radialGradient><linearGradient id="P" x1="0%" y1="50%" x2="100%" y2="50%"><stop offset="0%" stop-color="#701f37"/><stop offset="1%" stop-color="#701f37"/><stop offset="50%" stop-color="#ac2f54"/><stop offset="100%" stop-color="#701f37"/></linearGradient><radialGradient id="Q" r="100%" fx="50%" fy="50%" cx="50%" cy="50%"><stop offset="0%" stop-color="#737373"/><stop offset="71%" stop-color="#404040"/></radialGradient><path id="R" d="M1574.42 110.35h49.152c.96 0 1.92-.96 1.92-1.92V91.15c0-.96-.96-1.92-1.92-1.92h-49.152c-.96 0-1.92.96-1.92 1.92v17.28c0 .96.96 1.92 1.92 1.92z"/><path id="S" d="M1600.824 16.469v-4.128h-4.224v4.128h4.224z"/><path id="T" d="M501.204 37.97h-.988v-4.137a3.35 3.35 0 0 1-1.276.832v-.995c.258-.094.538-.27.84-.533a2.02 2.02 0 0 0 .622-.916h.802z"/><path id="U" d="M493.03 79.484v-5.726h3.533v.97h-2.491v1.355h2.152v.97h-2.15v2.431z"/><path id="V" d="M1426.45 28.461v103.392c0 3.264 2.688 6.048 5.952 6.048h73.728a5.92 5.92 0 0 0 5.952-5.952V28.461c-.192-3.36-2.784-6.048-5.952-6.048h-73.536c-3.456 0-6.144 2.688-6.144 6.048z"/><path id="W" d="M1438.28 47.706v64.704a14.4 14.4 0 0 0 14.4 14.4h17.28a14.4 14.4 0 0 0 9.6-3.744l15.84-14.208a14.4 14.4 0 0 0 4.8-10.656V62.01a14.4 14.4 0 0 0-4.8-10.656l-15.84-14.208a14.4 14.4 0 0 0-9.6-3.744h-17.28c-7.953 0-14.4 6.447-14.4 14.4z"/><path id="X" d="M1452.73 54.891v6.048l11.712.096.096-6.144-11.712-.096z"/><path id="Y" d="M1455.6 56.791v2.304l6.048.096.096-2.4-6.048-.096z"/><path id="Z" d="M1534.094 153.038v2.592h3.648c1.92-.096 3.84-1.632 3.84-3.84V19.31c-.096-2.88-2.304-5.184-5.184-5.472h-11.136a1.95 1.95 0 0 1-1.92-.96l-2.208-3.84a3.87 3.87 0 0 0-3.36-1.92h-1.344v2.496h1.44l1.152.576 2.208 3.84c.768 1.536 2.4 2.4 4.032 2.208h11.04a2.88 2.88 0 0 1 2.592 2.88V151.31l-4.8 1.44z"/><path id="a" d="M1201.851 31.096l-.232 6.897h-1.641l-.232-6.897h2.105zm-1.053 7.978q.499 0 .803.294.304.294.304.752 0 .451-.304.745-.304.294-.803.294-.492 0-.796-.294-.304-.294-.304-.745 0-.451.304-.749.304-.297.796-.297z"/><path id="b" d="M1510.678 120.091h17.472a5.92 5.92 0 0 0 5.952-5.952V50.011c0-3.168-2.592-5.76-5.952-5.76h-17.472c-3.36 0-6.048 2.592-6.048 5.76v63.936c0 3.456 2.688 6.144 6.048 6.144z"/><path id="c" d="M.73 151.392h148.512V0H.73v151.392z"/><path id="d" d="M29.886 147.742l7.104-4.128v-8.352l-7.104-4.128-7.104 4.128v8.352l7.104 4.128zm18.04 0l7.104-4.128v-8.352l-7.104-4.128-7.104 4.128v8.352l7.104 4.128zm72.15 0l7.104-4.128v-8.352l-7.104-4.128-7.104 4.128v8.352l7.104 4.128zm-18.04 0l7.104-4.128v-8.352l-7.104-4.128-7.104 4.128v8.352l7.104 4.128zm-18.04 0l7.104-4.128v-8.352l-7.104-4.128-7.104 4.128v8.352l7.104 4.128zm-18.04 0l7.104-4.128v-8.352l-7.104-4.128-7.104 4.128v8.352l7.104 4.128zm-45.09-15.93l7.104-4.128v-8.352l-7.104-4.128-7.104 4.128v8.352l7.104 4.128zm18.04 0l7.104-4.128v-8.352l-7.104-4.128-7.104 4.128v8.352l7.104 4.128zm90.19 0l7.104-4.128v-8.352l-7.104-4.128-7.104 4.128v8.352l7.104 4.128zm-18.04 0l7.104-4.128v-8.352l-7.104-4.128-7.104 4.128v8.352l7.104 4.128zm-18.04 0l7.104-4.128v-8.352l-7.104-4.128-7.104 4.128v8.352l7.104 4.128zm-18.04 0l7.104-4.128v-8.352l-7.104-4.128-7.104 4.128v8.352l7.104 4.128zm-18.04 0l7.104-4.128v-8.352l-7.104-4.128-7.104 4.128v8.352l7.104 4.128zm-27.05-15.92l7.104-4.128v-8.352l-7.104-4.128-7.104 4.128v8.352l7.104 4.128zm18.04 0l7.104-4.128v-8.352l-7.104-4.128-7.104 4.128v8.352l7.104 4.128zm72.15 0l7.104-4.128v-8.352l-7.104-4.128-7.104 4.128v8.352l7.104 4.128zm-18.04 0l7.104-4.128v-8.352l-7.104-4.128-7.104 4.128v8.352l7.104 4.128zm-18.04 0l7.104-4.128v-8.352l-7.104-4.128-7.104 4.128v8.352l7.104 4.128zm-18.04 0l7.104-4.128v-8.352l-7.104-4.128-7.104 4.128v8.352l7.104 4.128zm-45.09-15.93l7.104-4.128v-8.352l-7.104-4.128-7.104 4.128v8.352l7.104 4.128zm18.04 0l7.104-4.128v-8.352l-7.104-4.128-7.104 4.128v8.352l7.104 4.128zm90.19 0l7.104-4.128v-8.352l-7.104-4.128-7.104 4.128v8.352l7.104 4.128zm-18.04 0l7.104-4.128v-8.352l-7.104-4.128-7.104 4.128v8.352l7.104 4.128zm-18.04 0l7.104-4.128v-8.352l-7.104-4.128-7.104 4.128v8.352l7.104 4.128zm-18.04 0l7.104-4.128v-8.352l-7.104-4.128-7.104 4.128v8.352l7.104 4.128zm-18.04 0l7.104-4.128v-8.352l-7.104-4.128-7.104 4.128v8.352l7.104 4.128zm-27.05-15.931l7.104-4.128v-8.352l-7.104-4.128-7.104 4.128v8.352l7.104 4.128zm18.04 0l7.104-4.128v-8.352l-7.104-4.128-7.104 4.128v8.352l7.104 4.128zm72.15 0l7.104-4.128v-8.352l-7.104-4.128-7.104 4.128v8.352l7.104 4.128zm-18.04 0l7.104-4.128v-8.352l-7.104-4.128-7.104 4.128v8.352l7.104 4.128zm-18.04 0l7.104-4.128v-8.352l-7.104-4.128-7.104 4.128v8.352l7.104 4.128zm-18.04 0l7.104-4.128v-8.352l-7.104-4.128-7.104 4.128v8.352l7.104 4.128zm-45.09-15.928l7.104-4.128v-8.352l-7.104-4.128-7.104 4.128v8.352l7.104 4.128zm18.04 0l7.104-4.128v-8.352l-7.104-4.128-7.104 4.128v8.352l7.104 4.128zm90.19 0l7.104-4.128v-8.352l-7.104-4.128-7.104 4.128v8.352l7.104 4.128zm-18.04 0l7.104-4.128v-8.352l-7.104-4.128-7.104 4.128v8.352l7.104 4.128zm-18.04 0l7.104-4.128v-8.352l-7.104-4.128-7.104 4.128v8.352l7.104 4.128zm-18.04 0l7.104-4.128v-8.352l-7.104-4.128-7.104 4.128v8.352l7.104 4.128zm-18.04 0l7.104-4.128v-8.352l-7.104-4.128-7.104 4.128v8.352l7.104 4.128zm-27.05-15.928l7.104-4.128v-8.352l-7.104-4.128-7.104 4.128v8.352l7.104 4.128zm18.04 0l7.104-4.128v-8.352l-7.104-4.128-7.104 4.128v8.352l7.104 4.128zm72.15 0l7.104-4.128v-8.352l-7.104-4.128-7.104 4.128v8.352l7.104 4.128zm-18.04 0l7.104-4.128v-8.352l-7.104-4.128-7.104 4.128v8.352l7.104 4.128zm-18.04 0l7.104-4.128v-8.352l-7.104-4.128-7.104 4.128v8.352l7.104 4.128zm-18.04 0l7.104-4.128v-8.352l-7.104-4.128-7.104 4.128v8.352l7.104 4.128zm-36.07-31.857l7.104-4.128V7.838L29.886 3.71l-7.104 4.128v8.352l7.104 4.128zm18.04 0l7.104-4.128V7.838L47.926 3.71l-7.104 4.128v8.352l7.104 4.128zm72.15 0l7.104-4.128V7.838l-7.104-4.128-7.104 4.128v8.352l7.104 4.128zm-18.04 0l7.104-4.128V7.838l-7.104-4.128-7.104 4.128v8.352l7.104 4.128zm-18.04 0L91.1 16.19V7.838L83.996 3.71l-7.104 4.128v8.352l7.104 4.128zm-18.04 0l7.104-4.128V7.838L65.956 3.71l-7.104 4.128v8.352l7.104 4.128zm-45.09 15.929l7.104-4.128v-8.352l-7.104-4.128-7.104 4.128v8.352l7.104 4.128zm18.04 0l7.104-4.128v-8.352l-7.104-4.128-7.104 4.128v8.352l7.104 4.128zm90.19 0l7.104-4.128v-8.352l-7.104-4.128-7.104 4.128v8.352l7.104 4.128zm-18.04 0l7.104-4.128v-8.352l-7.104-4.128-7.104 4.128v8.352l7.104 4.128zm-18.04 0l7.104-4.128v-8.352l-7.104-4.128-7.104 4.128v8.352l7.104 4.128zm-18.04 0l7.104-4.128v-8.352l-7.104-4.128-7.104 4.128v8.352l7.104 4.128zm-18.04 0l7.104-4.128v-8.352l-7.104-4.128-7.104 4.128v8.352l7.104 4.128z"/><path id="e" d="M38.35 8.963H9.55v29.376a75.84 75.84 0 0 1 28.8-29.376z"/><path id="f" d="M140.44 38.339V8.963h-28.8a75.84 75.84 0 0 1 28.8 29.376z"/><path id="g" d="M38.35 142.402a75.84 75.84 0 0 1-28.8-29.376v29.376h28.8z"/><path id="h" d="M111.64 142.402h28.8v-29.376a75.84 75.84 0 0 1-28.8 29.376z"/><path id="i" d="M74.94 2.262h-72v44.16h22.368v58.752H2.94v43.968h144v-44.16h-22.08V46.23h22.08V2.07h-72zm0 140.16H9.66v-29.28h16.32c4.416 0 7.968-3.552 8.064-8.064V46.326c-2.304-4.32-4.8-7.584-9.024-8.16H9.66V8.982h130.848v29.28h-15.36c-4.224.672-7.68 3.84-8.832 8.064v58.752c.096 4.512 3.648 8.064 8.064 8.064h16.128v29.28H74.94z"/><path id="j" d="M35.29 95.932h79.392V55.42H35.29v40.512z"/><path id="k" d="M43.19 74.94a4.5 4.5 0 0 0 4.498 4.498h54.615a4.5 4.5 0 0 0 4.498-4.498 4.5 4.5 0 0 0-4.498-4.498H47.688a4.5 4.5 0 0 0-4.498 4.498z"/><path id="l" d="M6.432 102.162l38.016-2.88c3.168-.48 5.472-2.976 5.472-6.24V59.154c0-3.168-2.4-5.76-5.568-5.952l-38.016-2.88C3.168 50.034.288 52.53 0 55.794v40.32c0 3.36 2.688 5.952 6.048 5.952z"/><path id="m" d="M14.508 93.616l19.68-1.632c3.168-.288 5.472-2.88 5.472-6.048V66.352c0-3.072-2.4-5.76-5.472-5.952l-19.68-1.728c-3.36-.192-6.24 2.304-6.528 5.568v23.424c0 3.36 2.688 5.952 6.048 5.952z"/><path id="n" d="M143.568 102.162l-38.016-2.88c-3.168-.48-5.472-2.976-5.472-6.24V59.154c0-3.168 2.4-5.76 5.568-5.952l38.016-2.88c3.168-.288 6.048 2.208 6.336 5.472v40.32c0 3.36-2.688 5.952-6.048 5.952z"/><path id="o" d="M135.482 93.616l-19.68-1.632c-3.168-.288-5.472-2.88-5.472-6.048V66.352c0-3.072 2.4-5.76 5.472-5.952l19.68-1.728c3.36-.192 6.24 2.304 6.528 5.568v23.424c0 3.36-2.688 5.952-6.048 5.952z"/><path id="p" d="M31.25 75.175c-2.88-2.88-2.88-7.392-.192-10.272l.192 10.272z"/><path id="q" d="M30.512 76.253c0-1.152.48-1.92.96-1.92s1.248.672 1.248 1.92-.48 1.92-.96 1.92-.96-.96-.96-1.92z"/><path id="r" d="M31.258 75.175h3.648a6 6 0 0 0-.576-5.28c-1.92.96-3.264 2.88-2.88 5.28z"/><path id="s" d="M31.572 75.407h-3.648c-.864 2.112-.288 4.512 1.44 5.952 1.344-.48 2.304-1.728 2.304-3.168.288-.96.288-1.92-.096-2.88z"/><path id="t" d="M31.656 77.568l.384 9.6c2.496-2.496 2.592-6.72.192-9.216z"/><path id="u" d="M1596.64 125.08c0-.96-.96-1.92-1.92-1.92s-1.92.672-1.92 1.92.96 1.92 1.92 1.92 1.92-.96 1.92-1.92z"/><path id="v" d="M1273.326 74.57h.328v1.627h-.191q-1.34.021-2.157.697-.817.677-.981 1.88.793-.807 2.003-.807 1.299 0 2.064.93.766.93.766 2.447 0 .971-.42 1.757-.42.786-1.189 1.224-.769.438-1.74.438-1.572 0-2.54-1.094-.967-1.094-.967-2.919v-.711q0-1.62.612-2.861.612-1.241 1.757-1.921 1.145-.68 2.656-.687zm-1.6 4.983q-.479 0-.868.25-.39.25-.574.66v.602q0 .991.39 1.548.39.557 1.094.557.636 0 1.029-.502.393-.502.393-1.302 0-.813-.396-1.312-.396-.499-1.066-.499z"/><path id="w" d="M1278.193 80.121l-1.572-.39.574-5.059h5.578v1.647h-3.958l-.246 2.14q.704-.376 1.497-.376 1.422 0 2.229.882.807.882.807 2.468 0 .964-.407 1.726-.407.762-1.166 1.183-.759.42-1.791.42-.902 0-1.675-.366-.772-.366-1.22-1.029-.448-.663-.475-1.511h1.955q.062.622.434.967.373.345.974.345.67 0 1.032-.482.362-.482.362-1.364 0-.848-.417-1.299-.417-.451-1.183-.451-.704 0-1.142.369l-.191.178z"/><path id="x" d="M1291.059 78.679v1.832q0 2.064-.854 3.158-.854 1.094-2.502 1.094-1.627 0-2.488-1.073-.861-1.073-.882-3.076v-1.832q0-2.085.865-3.165.865-1.08 2.492-1.08 1.627 0 2.488 1.07.861 1.07.882 3.073zm-1.976 2.188v-2.365q0-1.237-.338-1.801-.338-.564-1.056-.564-.697 0-1.029.537-.332.537-.352 1.678v2.42q0 1.217.332 1.808.332.591 1.063.591.725 0 1.046-.567.321-.567.335-1.736z"/><path id="y" d="M1298.722 74.673l1.634 7.082 1.34-7.082h2.044l-2.208 9.953h-2.064l-1.62-6.658-1.62 6.658h-2.064l-2.208-9.953h2.044l1.347 7.068 1.641-7.068h1.736z"/><path id="z" d="M1314.642 84.626l-.69-2.051h-3.596l-.684 2.051h-2.181l3.705-9.953h1.9l3.726 9.953h-2.181zm-2.495-7.437l-1.237 3.726h2.488l-1.251-3.726z"/><path id="AA" d="M1323.372 81.31h2.051q-.116 1.606-1.186 2.529-1.07.923-2.82.923-1.914 0-3.011-1.289-1.097-1.289-1.097-3.538v-.608q0-1.436.506-2.529.506-1.094 1.446-1.678.94-.584 2.184-.584 1.723 0 2.775.923 1.053.923 1.217 2.591h-2.051q-.075-.964-.537-1.398-.461-.434-1.405-.434-1.025 0-1.535.735-.509.735-.523 2.28v.752q0 1.613.489 2.358.489.745 1.542.745.95 0 1.418-.434.468-.434.537-1.343z"/></defs><symbol id="AB" overflow="visible"><g class="B E"><path d="M1788.864 150.092h-7.104c-5.184 0-9.408-4.128-9.6-9.216s4.224-9.312 9.408-9.312h18.24c5.28 0 9.6 4.128 9.6 9.216s-4.128 9.312-9.408 9.312h-11.04zm0-58.752h-7.104c-5.184 0-9.408-4.128-9.6-9.216s4.224-9.312 9.408-9.312h18.24c5.28 0 9.6 4.128 9.6 9.216s-4.128 9.312-9.408 9.312h-11.04zm0-58.752h-7.104c-5.184 0-9.408-4.128-9.6-9.216s4.224-9.312 9.408-9.312h18.24c5.28 0 9.6 4.128 9.6 9.216s-4.128 9.312-9.408 9.312h-11.04zM31.392 150.092h-7.104c-5.184 0-9.6-4.128-9.6-9.216s4.32-9.216 9.504-9.216h18.24c5.184 0 9.6 4.128 9.6 9.216s-4.224 9.312-9.408 9.312H31.392zm0-58.752h-7.104c-5.184 0-9.6-4.128-9.6-9.216s4.224-9.312 9.408-9.312h18.24c5.184 0 9.6 4.128 9.6 9.216s-4.32 9.312-9.504 9.312h-11.04zm0-58.752h-7.104c-5.184 0-9.6-4.128-9.6-9.216s4.224-9.312 9.408-9.312h18.24c5.184 0 9.6 4.128 9.6 9.216s-4.224 9.312-9.408 9.312H31.392zM19.2 163.34h1785.6c9.6 0 19.2-4.128 19.2-9.312v-144c0-5.088-9.6-9.312-19.2-9.312H19.2C8.64.716 0 4.844 0 10.028v144c0 5.184 9.6 9.312 19.2 9.312z" fill="#a6a6a6"/><path d="M95.652 163.67h1632.672V.47H95.652v163.2z" stroke="#7f7f7f" class="O"/><path d="M102.528 159.02h1619.904c1.248 0 2.208-.96 2.208-2.304V6.572c0-1.344-.96-2.304-2.112-2.304h-1620c-1.152 0-2.112.96-2.112 2.304v150.144c-.096 1.344.864 2.304 2.112 2.304z" class="D G"/></g><g class="C"><path d="M105.05 5.838h17.856V157.71H105.05z" class="O"/><path d="M121.25 5.807h6.144v151.904h-6.144z" class="Y"/><path d="M107.29 5.807h-6.144v151.904h6.144z" class="Z"/></g><path d="M102.528 163.2h1620.096c3.168 0 5.856-2.88 5.856-6.528V6.528c0-3.648-2.688-6.528-5.952-6.528h-1620c-3.36 0-6.048 2.88-6.048 6.528v150.144c0 3.648 2.688 6.528 6.048 6.528zm0-4.224c-1.248 0-2.208-1.056-2.208-2.304V6.528c0-1.344.96-2.4 2.208-2.4h1620.096c1.152 0 2.112.96 2.112 2.4v150.144c0 1.344-.96 2.304-2.112 2.304H102.528zM116.4 134.03h6.24a2.88 2.88 0 0 0 2.88-2.88V32.27a2.88 2.88 0 0 0-2.88-2.88h-6.24a2.88 2.88 0 0 0-2.88 2.88v98.88a2.88 2.88 0 0 0 2.88 2.88z" fill="#d1d3d0" class="B E G"/><g class="C"><path d="M490.6 5.838h12.288V157.71H490.6z" class="O"/><path d="M501.71 5.807h4.213v151.904h-4.213z" class="Y"/><path d="M492.13 5.807h-4.213v151.904h4.213z" class="Z"/><g fill="url(#C)"><path d="M660.59 5.807h12.751v151.904H660.59z"/><path d="M828.01 5.807h12.751v151.904H828.01z"/><path d="M995.43 5.807h12.751v151.904H995.43z"/></g><path d="M1166.2 5.838h12.288V157.71H1166.2z" class="O"/><path d="M1177.3 5.807h4.213v151.904h-4.213z" class="Y"/><path d="M1167.7 5.807h-4.213v151.904h4.213z" class="Z"/><path d="M1544.1 5.807h6.751v151.904h-6.751z" fill="url(#C)"/><path d="M1562.152 162.61h147.36c3.264 0 6.048-2.688 6.048-5.952V6.13h-159.168l-.192 150.432c0 3.36 2.688 6.048 5.952 6.048z" class="O"/><path d="M1714.3 11.199h4.213v143.252h-4.213z" class="Y"/><path d="M1557.7 11.199h-4.213v143.252h4.213z" class="Z"/><path d="M1556.4 10.774V6.186h159.191v4.588H1556.4z" fill="url(#D)"/></g><g class="B G"><path d="M1719.3 157.71h4.512V5.838h-4.512V157.71z" fill="#d1d3d0"/><path d="M1606.4 142.77h14.592v-9.6H1606.4v9.6z" fill="url(#E)"/></g><path d="M1601.603 148.375h2.747c.544 0 .95.025 1.216.075a1.69 1.69 0 0 1 .717.315 1.9 1.9 0 0 1 .527.638 1.88 1.88 0 0 1 .211.893c0 .358-.087.686-.26.984a1.68 1.68 0 0 1-.705.672 1.8 1.8 0 0 1 .966.693c.226.327.337.7.337 1.15 0 .347-.073.685-.218 1.013s-.344.6-.595.786a1.94 1.94 0 0 1-.93.362c-.23.028-.79.045-1.673.052h-2.34zm1.387 1.27v1.765h.91l1.008-.026a.87.87 0 0 0 .56-.273c.136-.151.204-.35.204-.596 0-.236-.06-.428-.176-.575s-.29-.237-.523-.268c-.138-.017-.533-.026-1.186-.026zm0 3.037v2.042h1.284l.952-.047a.84.84 0 0 0 .504-.305c.13-.162.195-.378.195-.648 0-.23-.05-.424-.15-.583a.86.86 0 0 0-.434-.349c-.19-.073-.6-.11-1.23-.11zm10.004.52l1.346.474c-.207.833-.55 1.452-1.03 1.857s-1.09.607-1.826.607c-.913 0-1.663-.346-2.25-1.04s-.88-1.64-.88-2.84c0-1.27.295-2.258.886-2.96s1.367-1.055 2.33-1.055c.84 0 1.524.276 2.05.828.312.326.547.795.703 1.406l-1.374.365c-.08-.396-.25-.708-.508-.937s-.57-.344-.94-.344a1.5 1.5 0 0 0-1.24.609c-.317.406-.476 1.064-.476 1.974 0 .965.156 1.653.47 2.063s.72.615 1.22.615a1.31 1.31 0 0 0 .951-.391c.266-.26.457-.67.572-1.23zm2.618 2.808v-7.635h1.35l2.813 5.1v-5.1h1.29v7.635h-1.392l-2.77-4.98v4.98z" class="C D R"/><path d="M1654.2 142.77h14.592v-9.6H1654.2v9.6z" fill="url(#E)" class="B G"/><path d="M1653.047 153.526l1.35-.146c.08.503.246.873.494 1.11s.584.354 1.006.354c.447 0 .784-.105 1-.315s.34-.456.34-.737c0-.18-.048-.334-.143-.46s-.262-.237-.5-.33c-.163-.062-.533-.174-1.11-.333-.734-.209-1.256-.459-1.556-.759a2.08 2.08 0 0 1-.633-1.535 2.12 2.12 0 0 1 .298-1.091 1.92 1.92 0 0 1 .858-.774c.373-.177.824-.266 1.352-.266.862 0 1.512.2 1.948.63s.665.98.687 1.682l-1.388.068c-.06-.392-.187-.675-.382-.846s-.488-.268-.878-.268c-.403 0-.72.092-.947.276-.147.118-.22.276-.22.474a.61.61 0 0 0 .206.464c.175.163.6.333 1.275.5s1.174.36 1.498.55.576.448.76.776.274.734.274 1.216a2.43 2.43 0 0 1-.328 1.229 2.03 2.03 0 0 1-.928.852c-.4.186-.898.28-1.495.28-.87 0-1.536-.223-2.002-.67s-.745-1.077-.836-1.931zm7.898 2.484v-6.344h-2.04v-1.292h5.46v1.292h-2.032v6.344zm4.102-2.484l1.35-.146c.08.503.246.873.494 1.11s.584.354 1.006.354c.447 0 .783-.105 1-.315s.34-.456.34-.737c0-.18-.048-.334-.143-.46s-.262-.237-.5-.33a15.91 15.91 0 0 0-1.11-.333c-.744-.205-1.266-.457-1.566-.755-.422-.42-.633-.932-.633-1.536 0-.39.1-.753.298-1.09a1.93 1.93 0 0 1 .858-.774c.374-.178.824-.266 1.352-.266.863 0 1.512.2 1.948.63s.665.98.686 1.682l-1.387.068c-.06-.392-.187-.675-.382-.846s-.488-.258-.88-.258c-.403 0-.72.092-.947.276-.147.118-.22.276-.22.474a.62.62 0 0 0 .206.464c.175.163.6.333 1.275.5s1.174.36 1.498.55a2.03 2.03 0 0 1 .759.776c.183.328.274.734.274 1.216a2.43 2.43 0 0 1-.328 1.229 2.03 2.03 0 0 1-.928.852c-.4.186-.898.28-1.495.28-.87 0-1.536-.223-2.002-.67s-.744-1.096-.834-1.95z" class="C D R"/><path d="M1646.548 143.018c0-5.376-4.032-9.792-9.024-9.792s-9.024 4.416-9.024 9.792 4.032 9.792 9.024 9.792 9.024-4.416 9.024-9.792z" stroke="#8c8c8c" class="B P"/><g class="F Q X"><path d="M1641.3 143.01h-7.68"/><path d="M1637.5 147.3v-8.352"/></g><g class="B G"><path d="M1567 116.88h64.512V28.56H1567v88.32z" class="D"/><path d="M1627.366 113.62h-56.239c-.627 0-1.134-.508-1.134-1.134V32.683c0-.626.507-1.134 1.134-1.134h56.239c.626 0 1.134.508 1.134 1.134v79.803c0 .626-.508 1.134-1.134 1.134z" fill="url(#G)"/></g><path d="M1608.678 33.343l1.043 3.606 2.086 1.03 1.043 6.181 10.95 1.545v29.877h-49.536V45.706l10.95-1.545 1.043-6.181 2.086-1.03 1.043-3.606h19.293z" class="C K"/><g class="B"><g fill="url(#H)" class="g"><path d="M1586 41.679h-13.824v-7.68H1586v7.68z"/><path d="M1626.1 41.754h-13.824v-7.68h13.824v7.68z"/></g><g class="F"><path d="M1625.58 79.726c-.48-.96-1.248-1.728-2.4-1.632h-48.672c-.96-.096-1.92.672-2.208 1.632" stroke="#f2f2f2"/><path d="M1572.296 79.732c-.384 1.248.192 2.688 1.344 3.168l49.728.096c1.248.096 2.304-.96 2.4-2.304"/></g><use xlink:href="#R" fill="#969696" class="E"/><path d="M1575.72 108.92h46.464c.96 0 1.92-.96 1.92-1.92V92.12c0-.96-.96-1.92-1.92-1.92h-46.464c-.96 0-1.92.96-1.92 1.92V107c0 .96.96 1.92 1.92 1.92z" fill="url(#I)"/><path d="M1573.8 109.52h25.152v-1.92H1573.8v1.92zm25.2 0h25.152v-1.92H1599v1.92z" class="a"/></g><path d="M1578.7 93.097h40.512v3.552H1578.7z" class="C a"/><g class="B"><use xlink:href="#R" x="75.1" fill="#969696" class="E"/><path d="M1650.82 108.92h46.464c.96 0 1.92-.96 1.92-1.92V92.12c0-.96-.96-1.92-1.92-1.92h-46.464c-.96 0-1.92.96-1.92 1.92V107c0 .96.96 1.92 1.92 1.92z" fill="url(#I)"/><path d="M1648.9 109.52h25.152v-1.92H1648.9v1.92zm25.2 0h25.152v-1.92H1674.1v1.92z" class="a"/></g><g class="C"><path d="M1653.8 93.097h40.512v3.552H1653.8z" class="a"/><path d="M1683.5 33.5l1 3.5 2 1 1 6 10.5 1.5v29h-47.5v-29L1661 44l1-6 2-1 1-3.5h18.5z" class="K"/><path d="M1596.6 12.341h4.224v4.128h-4.224z" class="h"/></g><use xlink:href="#S" class="B F"/><path d="M1591.8 21.596h4.224v4.128h-4.224z" class="C h"/><use xlink:href="#S" x="-4.8" y="9.255" class="B F"/><path d="M1601.3 21.596h4.224v4.128h-4.224z" class="C h"/><g class="B"><g class="F"><use xlink:href="#S" x="4.7" y="9.255"/><path d="M1591 19.04h14.784"/><path d="M1593.9 19.04v2.592m9.5-2.592v2.592m-4.7-5.163v2.592" stroke-linecap="square" class="E"/></g><path d="M499.49 21.075v8.256l-6.144-4.128 6.144-4.128z" class="E G T"/></g><g class="C D R"><path d="M494.094 37.97v-5.726h1.67c.633 0 1.045.03 1.237.086.295.086.543.273.742.56s.3.66.3 1.115c0 .352-.057.647-.172.887s-.26.428-.438.565a1.44 1.44 0 0 1-.54.271c-.248.055-.608.082-1.08.082h-.68v2.16zm1.04-4.758v1.625h.57c.4 0 .684-.03.823-.1a.7.7 0 0 0 .325-.281.82.82 0 0 0 .118-.445.79.79 0 0 0-.165-.516c-.1-.135-.25-.22-.418-.254-.124-.026-.374-.04-.75-.04z"/><use xlink:href="#T"/></g><g class="B"><g class="F"><path d="M492.27 132.91h9.792l-4.992-9.312-4.8 9.312zm4.632 9.794zm.096-1.536c1.152.288 1.92.48 1.92.288-1.152-1.44-1.92-.96-1.92-.288zm.576.96c-.288 1.248-.384 1.92-.288 2.112 1.344-1.248.768-1.92.288-2.112zm-.864-2.496c-1.344 1.152-.96 1.92-.384 1.92l.384-1.92zm.192 3.072c-1.152-.384-1.92-.384-2.016-.384.96 1.536 1.92.96 1.92.384z"/><path d="M492.59 144.65h9.024l-4.512-9.6-4.512 9.6z"/></g><path d="M495.17 62.589v8.256l6.144-4.128-6.144-4.128z" class="E G T"/></g><g class="C D R"><use xlink:href="#U"/><use xlink:href="#T" x="-1.48" y="41.514"/></g><path d="M497.898 94.472v5.088l3.84-2.592-3.84-2.592zm-4.128 0v5.088l3.84-2.592-3.84-2.496z" class="B E G T"/><g class="C D R"><use xlink:href="#U" x="0.26" y="31.326"/><path d="M500.792 109.79v1.02h-3.462a2.85 2.85 0 0 1 .337-1.096c.188-.345.558-.803 1.11-1.373l.82-.937c.136-.227.204-.45.204-.672 0-.245-.06-.433-.178-.564s-.282-.197-.5-.197a.61.61 0 0 0-.492.207c-.122.137-.192.367-.21.687l-.984-.11c.06-.604.243-1.038.552-1.3s.696-.394 1.16-.394c.51 0 .908.152 1.2.457s.436.684.436 1.137c0 .258-.042.503-.125.736a3.05 3.05 0 0 1-.396.732c-.12.17-.335.413-.647.73l-.592.633a1.9 1.9 0 0 0-.202.305z"/></g><path d="M1170.5 21.075v8.256l6.144-4.128-6.144-4.128z" class="B E G T"/><path d="M1168.224 37.97v-5.726h1.67c.633 0 1.045.03 1.237.086.295.086.543.273.742.56s.3.66.3 1.115c0 .352-.057.647-.172.887s-.26.428-.438.565a1.44 1.44 0 0 1-.54.271c-.248.055-.608.082-1.08.082h-.68v2.16zm1.04-4.758v1.625h.57c.4 0 .684-.03.823-.1a.7.7 0 0 0 .325-.281.82.82 0 0 0 .118-.445.79.79 0 0 0-.165-.516.68.68 0 0 0-.418-.254c-.124-.026-.374-.04-.75-.04zm6.878 3.738v1.02h-3.462a2.85 2.85 0 0 1 .337-1.096c.188-.345.558-.803 1.11-1.373l.82-.937c.136-.227.204-.45.204-.672 0-.245-.06-.433-.178-.564s-.282-.197-.5-.197a.61.61 0 0 0-.492.207c-.122.137-.192.367-.21.687l-.984-.11c.06-.604.243-1.038.552-1.3s.696-.394 1.16-.394c.51 0 .908.152 1.2.457s.436.684.436 1.137c0 .258-.042.503-.125.736a3.05 3.05 0 0 1-.396.732c-.12.17-.335.413-.647.73l-.592.633a1.94 1.94 0 0 0-.202.305z" class="C D R"/><path d="M1174.9 62.589v8.256l-6.144-4.128 6.144-4.128z" class="B E G T"/><g class="C D R"><use xlink:href="#U" x="676.6"/><path d="M1175.743 79.484v-1.152h-2.109v-.96l2.236-3.638h.83v3.633h.64v.965h-.64v1.152zm0-2.117V75.41l-1.185 1.957z"/></g><path d="M1172.172 94.472v5.088l-3.84-2.592 3.84-2.592zm4.128 0v5.088l-3.84-2.592 3.84-2.496z" class="B E G T"/><g class="C D R"><use xlink:href="#U" x="676.4" y="31.326"/><path d="M1173.57 109.29l.956-.13c.03.27.112.478.246.62a.64.64 0 0 0 .485.215.64.64 0 0 0 .515-.258c.14-.172.21-.404.21-.695 0-.276-.067-.495-.2-.656s-.296-.242-.49-.242c-.127 0-.278.027-.453.082l.11-.895c.267.008.47-.057.612-.193s.21-.318.21-.545c0-.193-.05-.346-.155-.46a.53.53 0 0 0-.41-.172c-.17 0-.313.065-.432.195s-.192.32-.218.57l-.91-.172c.063-.346.16-.623.287-.83a1.33 1.33 0 0 1 .534-.488 1.65 1.65 0 0 1 .768-.178c.485 0 .874.172 1.167.516a1.43 1.43 0 0 1 .362.953c0 .503-.247.904-.742 1.203.295.07.53.228.708.473s.266.54.266.887c0 .503-.165.93-.496 1.285s-.742.53-1.234.53c-.466.003-.854-.145-1.161-.445s-.485-.688-.535-1.17z"/></g><path d="M1186 155.56h40.896v-1.536c.48-1.536 1.536-1.92 2.496-1.536 1.152 1.248 1.152 1.344 1.152 1.536 0 .96.672 1.536 1.632 1.536h127.68l.96-1.536c.576-1.536 1.728-1.92 2.592-1.536l1.152 3.072h169.632v-13.44h4.8V19.432h-3.264c-.96 0-1.44-.672-1.44-1.44a1.48 1.48 0 0 0-1.44-1.44h-7.968c-1.536 0-2.88-.96-3.552-2.208l-.288-.576c-.48-.96-1.536-1.632-2.688-1.632h-1.92v-4.8l-324.672.384c-3.264 0-5.76 2.592-5.76 5.76v142.08z" class="B E G O"/><g class="L M"><path d="M1205.263 57.479c0-3.23-2.644-5.848-5.906-5.848s-5.906 2.618-5.906 5.848 2.644 5.848 5.906 5.848 5.906-2.618 5.906-5.848z" fill="url(#J)"/><path d="M1205.263 120.212c0-3.23-2.644-5.848-5.906-5.848s-5.906 2.618-5.906 5.848 2.644 5.848 5.906 5.848 5.906-2.618 5.906-5.848z" fill="url(#K)"/></g><path d="M1190.25 96.75l9.122-6.064v10.176l10.128-7.612m.144 1.66c0-5.376-4.416-9.6-9.792-9.6s-9.792 4.224-9.792 9.6 4.416 9.6 9.792 9.6 9.792-4.32 9.792-9.6z" class="F M"/><path d="M1189.36 45.358h22.848a1.92 1.92 0 0 0 1.92-1.92l-11.808-20.736a1.92 1.92 0 0 0-2.592-.672l-12.096 20.448a1.92 1.92 0 0 0 .672 2.592z" class="C K"/><path d="M1186 150.88v4.8h40.896v-4.8" class="B G U"/><g transform="translate(1364.49 150.88)"><path d="M0 0v4.8h169.632V0" class="B G U"/></g><g transform="translate(1534.13 19.432)"><path fill="url(#M)" d="M0 0h4.8v122.688H0" class="B G"/></g><g transform="matrix(-1 0 0 -1 1516.43 12.13)"><path d="M79.68 0v4.8H0V0" class="B G U"/></g><path d="M1330.02 80.766c0-19.2-14.88-33.024-33.312-33.024S1263.3 62.526 1263.3 80.766s14.88 33.024 33.312 33.024 33.312-14.784 33.312-33.024z" stroke="#548bd4" class="E i"/><g class="X"><path d="M17.952 8.928C17.952 4.128 13.92 0 9.024 0S0 4.032 0 8.928s4.032 8.928 8.928 8.928 8.928-3.84 8.928-8.928z" transform="translate(1227.25 13.649)" class="B P"/><g class="F Q"><path d="M1241.35 22.619h-10.272"/><path d="M1236.22 27.697V17.521"/></g><path d="M17.952 8.928C17.952 4.128 13.92 0 9.024 0S0 4.032 0 8.928s4.032 8.928 8.928 8.928 8.928-3.84 8.928-8.928z" transform="translate(1225.06 129.904)" class="B P"/><g class="F Q"><path d="M1239.16 138.874h-10.272"/><path d="M1234.03 143.952v-10.176"/></g><path d="M17.952 8.928C17.952 4.128 13.92 0 9.024 0S0 4.032 0 8.928s4.032 8.928 8.928 8.928 8.928-3.84 8.928-8.928z" transform="translate(1350.25 129.904)" class="B P"/><g class="F Q"><path d="M1364.35 138.874h-10.272"/><path d="M1359.22 143.952v-10.176"/></g></g><path fill="url(#N)" d="M1392.34 25.396c0-6.231 5.016-11.248 11.248-11.248s11.248 5.016 11.248 11.248V142.46c0 6.231-5.016 11.248-11.248 11.248s-11.248-5.016-11.248-11.248z" class="C"/><g class="E"><use xlink:href="#V" class="M N g"/><g class="B"><use xlink:href="#W" class="D"/><use xlink:href="#X" class="H V"/></g></g><path d="M1464.26 54.795l-2.458 1.842m-.052 2.499l2.458 1.842m-11.048-6.183l2.458 1.842m.052 2.499l-2.458 1.842" class="B H F"/><g class="E"><use xlink:href="#Y" class="B H W"/><use xlink:href="#X" y="44.545" class="B H V"/></g><path d="M1464.26 99.34l-2.458 1.842m-.052 2.498l2.458 1.842m-11.048-6.182l2.458 1.842m.052 2.498l-2.458 1.842" class="B H F"/><g class="E"><use xlink:href="#Y" y="44.545" class="B H W"/><use xlink:href="#X" x="16.59" y="22.262" class="B H V"/></g><path d="M1480.86 77.057l-2.458 1.842m-.052 2.499l2.458 1.842m-11.058-6.183l2.458 1.842m.052 2.499l-2.458 1.842" class="B H F"/><g class="E"><use xlink:href="#Y" x="16.59" y="22.261" class="B H W"/><use xlink:href="#Z" class="B G O"/><path d="M1341.032 28.978c-25.686-21.528-63.114-21.528-88.8 0-1.152 2.112-1.152 4.512-.192 4.512l14.112 14.016c.96.96 2.592.96 3.84.192 15.627-12.206 37.557-12.206 53.184 0 1.152.96 2.88.768 3.84-.192l14.112-14.016c.96-.96.96-2.304.384-3.456zm-95.616 6.528c-23.316 25.635-23.316 64.797 0 90.432.96.288 2.112.096 2.88-.672l14.592-14.4c.96-.96 1.152-2.592.192-3.84-12.304-15.414-12.304-37.29 0-52.704.96-1.056.864-1.632-.192-3.552l-14.688-14.4c-.768-.768-1.92-.96-2.88-.672zm6.72 96c25.686 21.528 63.114 21.528 88.8 0 1.248-1.92.96-3.456.096-4.416l-14.112-12.96c-.96-.96-2.592-.96-3.84-.192-15.627 12.206-37.557 12.206-53.184 0-.96-.768-2.496-.768-3.648.192l-14.208 14.016c-.96.96-.96 1.344-.384 3.456zm95.616-96c-.96-.288-2.112-.096-2.88.672l-14.592 14.4c-.96.96-1.152 2.592-.192 3.84 12.304 15.414 12.304 37.29 0 52.704-.96 1.152-.768 2.688.192 3.84l14.592 14.4c.768.768 1.92.96 2.88.672 23.316-25.635 23.316-64.797 0-90.432z" class="B D"/></g><use xlink:href="#a" fill="#c1c1c1" class="C"/><g class="X"><path d="M17.952 8.928C17.952 4.128 13.92 0 9.024 0S0 4.032 0 8.928s4.032 8.928 8.928 8.928 8.928-3.84 8.928-8.928z" transform="translate(1348.15 13.649)" class="B P"/><g class="F Q"><path d="M1362.25 22.619h-10.272"/><path d="M1357.12 27.697V17.521"/></g></g><g class="C"><use xlink:href="#b" class="J"/><path d="M1509.42 63.25h8.113v28.48h-8.113z" class="K"/><path d="M1512 63.219h2.88v28.512H1512z" fill="#d8d8d8"/></g><g transform="translate(675.68 5.838)"><use xlink:href="#c" class="M b c"/><g class="B"><use xlink:href="#d" class="D"/><g class="E"><g class="K"><use xlink:href="#e"/><use xlink:href="#f"/><use xlink:href="#g"/><use xlink:href="#h"/></g><use xlink:href="#i" class="N"/></g><use xlink:href="#j" class="L N"/></g><use xlink:href="#k" class="C J"/><path d="M55.35 93.92c13.056 2.208 26.304 2.208 39.36 0V57.44c-13.056-2.208-26.304-2.208-39.36 0v36.48z" class="B L d"/><g class="C"><use xlink:href="#l" class="J"/><use xlink:href="#m" class="S"/><g class="I"><path d="M44.852 97.192c2.437 0 4.412-1.976 4.412-4.412V58.874c0-2.437-1.975-4.413-4.412-4.413s-4.412 1.976-4.412 4.413V92.78c0 2.437 1.975 4.412 4.412 4.412z"/><path d="M4.412 100.192c2.437 0 4.412-1.975 4.412-4.412V55.877c0-2.437-1.975-4.412-4.412-4.412S0 53.44 0 55.877V95.78c0 2.437 1.976 4.412 4.412 4.412z"/></g><use xlink:href="#n" class="J"/><use xlink:href="#o" class="S"/><g class="I"><path d="M105.137 97.192c-2.437 0-4.412-1.976-4.412-4.412V58.874c0-2.437 1.975-4.413 4.412-4.413s4.412 1.976 4.412 4.413V92.78c0 2.437-1.976 4.412-4.412 4.412z"/><path d="M145.587 100.192c-2.437 0-4.412-1.975-4.412-4.412V55.877c0-2.437 1.975-4.412 4.412-4.412S150 53.44 150 55.877V95.78c0 2.437-1.976 4.412-4.412 4.412z"/></g></g><path d="M22.03 16.509c0-3.552-2.88-6.432-6.24-6.432s-6.24 2.88-6.24 6.432 2.88 6.336 6.24 6.336 6.24-2.88 6.24-6.336z" class="B e f"/><g class="C"><g class="I"><path d="M3.736 48.727c2.063 0 3.736-1.976 3.736-4.412V4.412C7.471 1.975 5.799 0 3.736 0S0 1.975 0 4.412v39.903c0 2.437 1.673 4.412 3.736 4.412z" transform="matrix(-.087156 .996195 -.996195 -.087156 49.672479 53.799522)"/><path d="M4.028 48.727C1.804 48.727 0 46.752 0 44.315V4.412C0 1.975 1.804 0 4.028 0s4.028 1.975 4.028 4.412v39.903c0 2.437-1.804 4.412-4.028 4.412z" transform="matrix(.087156 .996195 -.996195 .087156 48.987394 90.496836)"/></g><use xlink:href="#p"/><use xlink:href="#q"/><use xlink:href="#r"/><use xlink:href="#s"/><use xlink:href="#t"/><g class="I"><path d="M3.736 48.727C1.672 48.727 0 46.752 0 44.315V4.412C0 1.975 1.672 0 3.736 0s3.736 1.975 3.736 4.412v39.903c0 2.437-1.673 4.412-3.736 4.412z" transform="matrix(-.087156 -.996195 .996195 -.087156 100.511402 61.487451)"/><path d="M3.736 48.727c2.063 0 3.736-1.976 3.736-4.412V4.412C7.471 1.975 5.799 0 3.736 0S0 1.975 0 4.412v39.903c0 2.437 1.673 4.412 3.736 4.412z" transform="matrix(-.087156 .996195 -.996195 -.087156 149.053379 95.044422)"/></g></g></g><g transform="translate(843.1 5.838)"><use xlink:href="#c" class="M b c"/><g class="B"><use xlink:href="#d" class="D"/><g class="E"><g class="K"><use xlink:href="#e"/><use xlink:href="#f"/><use xlink:href="#g"/><use xlink:href="#h"/></g><use xlink:href="#i" class="N"/></g><use xlink:href="#j" class="L N"/></g><use xlink:href="#k" class="C J"/><path d="M55.35 93.92c13.056 2.208 26.304 2.208 39.36 0V57.44c-13.056-2.208-26.304-2.208-39.36 0v36.48z" class="B L d"/><g class="C"><use xlink:href="#l" class="J"/><use xlink:href="#m" class="S"/><g class="I"><path d="M44.852 97.192c2.437 0 4.412-1.976 4.412-4.412V58.874c0-2.437-1.975-4.413-4.412-4.413s-4.412 1.976-4.412 4.413V92.78c0 2.437 1.975 4.412 4.412 4.412z"/><path d="M4.412 100.192c2.437 0 4.412-1.975 4.412-4.412V55.877c0-2.437-1.975-4.412-4.412-4.412S0 53.44 0 55.877V95.78c0 2.437 1.976 4.412 4.412 4.412z"/></g><use xlink:href="#n" class="J"/><use xlink:href="#o" class="S"/><g class="I"><path d="M105.137 97.192c-2.437 0-4.412-1.976-4.412-4.412V58.874c0-2.437 1.975-4.413 4.412-4.413s4.412 1.976 4.412 4.413V92.78c0 2.437-1.976 4.412-4.412 4.412z"/><path d="M145.587 100.192c-2.437 0-4.412-1.975-4.412-4.412V55.877c0-2.437 1.975-4.412 4.412-4.412S150 53.44 150 55.877V95.78c0 2.437-1.976 4.412-4.412 4.412z"/></g></g><path d="M22.03 16.509c0-3.552-2.88-6.432-6.24-6.432s-6.24 2.88-6.24 6.432 2.88 6.336 6.24 6.336 6.24-2.88 6.24-6.336z" class="B e f"/><g class="C"><g class="I"><path d="M3.736 48.727c2.063 0 3.736-1.976 3.736-4.412V4.412C7.471 1.975 5.799 0 3.736 0S0 1.975 0 4.412v39.903c0 2.437 1.673 4.412 3.736 4.412z" transform="matrix(-.087156 .996195 -.996195 -.087156 49.672479 53.799522)"/><path d="M4.028 48.727C1.804 48.727 0 46.752 0 44.315V4.412C0 1.975 1.804 0 4.028 0s4.028 1.975 4.028 4.412v39.903c0 2.437-1.804 4.412-4.028 4.412z" transform="matrix(.087156 .996195 -.996195 .087156 48.987394 90.496836)"/></g><use xlink:href="#p"/><use xlink:href="#q"/><use xlink:href="#r"/><use xlink:href="#s"/><use xlink:href="#t"/><g class="I"><path d="M3.736 48.727C1.672 48.727 0 46.752 0 44.315V4.412C0 1.975 1.672 0 3.736 0s3.736 1.975 3.736 4.412v39.903c0 2.437-1.673 4.412-3.736 4.412z" transform="matrix(-.087156 -.996195 .996195 -.087156 100.511402 61.487451)"/><path d="M3.736 48.727c2.063 0 3.736-1.976 3.736-4.412V4.412C7.471 1.975 5.799 0 3.736 0S0 1.975 0 4.412v39.903c0 2.437 1.673 4.412 3.736 4.412z" transform="matrix(-.087156 .996195 -.996195 -.087156 149.053379 95.044422)"/></g></g></g><g transform="translate(1010.5 5.838)"><use xlink:href="#c" class="M b c"/><g class="B"><use xlink:href="#d" class="D"/><g class="E"><g class="K"><use xlink:href="#e"/><use xlink:href="#f"/><use xlink:href="#g"/><use xlink:href="#h"/></g><use xlink:href="#i" class="N"/></g><use xlink:href="#j" class="L N"/></g><use xlink:href="#k" class="C J"/><path d="M55.35 93.92c13.056 2.208 26.304 2.208 39.36 0V57.44c-13.056-2.208-26.304-2.208-39.36 0v36.48z" class="B L d"/><g class="C"><use xlink:href="#l" class="J"/><use xlink:href="#m" class="S"/><g class="I"><path d="M44.852 97.192c2.437 0 4.412-1.976 4.412-4.412V58.874c0-2.437-1.975-4.413-4.412-4.413s-4.412 1.976-4.412 4.413V92.78c0 2.437 1.975 4.412 4.412 4.412z"/><path d="M4.412 100.192c2.437 0 4.412-1.975 4.412-4.412V55.877c0-2.437-1.975-4.412-4.412-4.412S0 53.44 0 55.877V95.78c0 2.437 1.976 4.412 4.412 4.412z"/></g><use xlink:href="#n" class="J"/><use xlink:href="#o" class="S"/><g class="I"><path d="M105.137 97.192c-2.437 0-4.412-1.976-4.412-4.412V58.874c0-2.437 1.975-4.413 4.412-4.413s4.412 1.976 4.412 4.413V92.78c0 2.437-1.976 4.412-4.412 4.412z"/><path d="M145.587 100.192c-2.437 0-4.412-1.975-4.412-4.412V55.877c0-2.437 1.975-4.412 4.412-4.412S150 53.44 150 55.877V95.78c0 2.437-1.976 4.412-4.412 4.412z"/></g></g><path d="M22.03 16.509c0-3.552-2.88-6.432-6.24-6.432s-6.24 2.88-6.24 6.432 2.88 6.336 6.24 6.336 6.24-2.88 6.24-6.336z" class="B e f"/><g class="C"><g class="I"><path d="M3.736 48.727c2.063 0 3.736-1.976 3.736-4.412V4.412C7.471 1.975 5.799 0 3.736 0S0 1.975 0 4.412v39.903c0 2.437 1.673 4.412 3.736 4.412z" transform="matrix(-.087156 .996195 -.996195 -.087156 49.672479 53.799522)"/><path d="M4.028 48.727C1.804 48.727 0 46.752 0 44.315V4.412C0 1.975 1.804 0 4.028 0s4.028 1.975 4.028 4.412v39.903c0 2.437-1.804 4.412-4.028 4.412z" transform="matrix(.087156 .996195 -.996195 .087156 48.987394 90.496836)"/></g><use xlink:href="#p"/><use xlink:href="#q"/><use xlink:href="#r"/><use xlink:href="#s"/><use xlink:href="#t"/><g class="I"><path d="M3.736 48.727C1.672 48.727 0 46.752 0 44.315V4.412C0 1.975 1.672 0 3.736 0s3.736 1.975 3.736 4.412v39.903c0 2.437-1.673 4.412-3.736 4.412z" transform="matrix(-.087156 -.996195 .996195 -.087156 100.511402 61.487451)"/><path d="M3.736 48.727c2.063 0 3.736-1.976 3.736-4.412V4.412C7.471 1.975 5.799 0 3.736 0S0 1.975 0 4.412v39.903c0 2.437 1.673 4.412 3.736 4.412z" transform="matrix(-.087156 .996195 -.996195 -.087156 149.053379 95.044422)"/></g></g></g><path d="M1672.46 25.229v-.96m4.032 1.152h-7.68m-2.112-10.56h11.52v9.216h-11.52zm1.3 1.389h9v6.5h-9z" class="B F"/><path fill="#856427" d="M1662.1 69.327h-2.417v4.767h2.417zm3.8 0h-2.417v4.767h2.417zm3.8 0h-2.417v4.767h2.417zm3.8 0h-2.417v4.767h2.417zm7.6 0h-2.417v4.767h2.417zm-3.8 0h-2.417v4.767h2.417zm7.6 0h-2.417v4.767h2.417zm3.8 0h-2.417v4.767h2.417z" class="C"/><path d="M1594.6 124.97h16.8" class="B F"/><g class="C D"><use xlink:href="#u"/><path d="M1612.58 124.952l-2.88-2.112v3.84l2.88-1.728zm-6.28 2.162h2.208v2.496h-2.208z"/></g><path d="M1601 125.01l2.688 2.88 2.592.48m-7.88-3.51l2.688-2.88 2.592-.48" class="B F"/><circle cx="1603.875" cy="121.375" r="1.125" class="C D"/><path d="M1669.4 118.44h16.8" class="B F"/><g class="C D"><use xlink:href="#u" x="74.7" y="-6.53"/><path d="M1687.28 118.412l-2.88-2.112v3.84l2.88-1.728zm-6.28 2.172h2.208v2.496H1681z"/></g><path d="M1675.8 118.48l2.688 2.88 2.592.48m-7.98-3.51l2.688-2.88 2.592-.48" class="B F"/><g class="C"><circle cx="1678.625" cy="114.875" r="1.125" class="D"/><path fill="#856427" d="M1587 69.294h-2.4v4.8h2.4zm3.8.033h-2.417v4.767h2.417zm3.8 0h-2.417v4.767h2.417zm3.8 0h-2.417v4.767h2.417zm7.6 0h-2.417v4.767H1606zm-3.8 0h-2.417v4.767h2.417zm7.6 0h-2.417v4.767h2.417zm3.8 0h-2.417v4.767h2.417z"/><path d="M497.792 126.408l-.133 3.941h-.937l-.133-3.941h1.203zm-.602 4.559q.285 0 .459.168.174.168.174.43 0 .258-.174.426-.174.168-.459.168-.281 0-.455-.168-.174-.168-.174-.426 0-.258.174-.428.174-.17.455-.17z" class="D"/></g><g transform="translate(508.26 5.838)"><use xlink:href="#c" class="M b c"/><g class="B"><use xlink:href="#d" class="D"/><g class="E"><g class="K"><use xlink:href="#e"/><use xlink:href="#f"/><use xlink:href="#g"/><use xlink:href="#h"/></g><use xlink:href="#i" class="N"/></g><use xlink:href="#j" class="L N"/></g><use xlink:href="#k" class="C J"/><path d="M55.35 93.92c13.056 2.208 26.304 2.208 39.36 0V57.44c-13.056-2.208-26.304-2.208-39.36 0v36.48z" class="B L d"/><g class="C"><use xlink:href="#l" class="J"/><use xlink:href="#m" class="S"/><g class="I"><path d="M44.852 97.192c2.437 0 4.412-1.976 4.412-4.412V58.874c0-2.437-1.975-4.413-4.412-4.413s-4.412 1.976-4.412 4.413V92.78c0 2.437 1.975 4.412 4.412 4.412z"/><path d="M4.412 100.192c2.437 0 4.412-1.975 4.412-4.412V55.877c0-2.437-1.975-4.412-4.412-4.412S0 53.44 0 55.877V95.78c0 2.437 1.976 4.412 4.412 4.412z"/></g><use xlink:href="#n" class="J"/><use xlink:href="#o" class="S"/><g class="I"><path d="M105.137 97.192c-2.437 0-4.412-1.976-4.412-4.412V58.874c0-2.437 1.975-4.413 4.412-4.413s4.412 1.976 4.412 4.413V92.78c0 2.437-1.976 4.412-4.412 4.412z"/><path d="M145.587 100.192c-2.437 0-4.412-1.975-4.412-4.412V55.877c0-2.437 1.975-4.412 4.412-4.412S150 53.44 150 55.877V95.78c0 2.437-1.976 4.412-4.412 4.412z"/></g></g><path d="M22.03 16.509c0-3.552-2.88-6.432-6.24-6.432s-6.24 2.88-6.24 6.432 2.88 6.336 6.24 6.336 6.24-2.88 6.24-6.336z" class="B e f"/><g class="C"><g class="I"><path d="M3.736 48.727c2.063 0 3.736-1.976 3.736-4.412V4.412C7.471 1.975 5.799 0 3.736 0S0 1.975 0 4.412v39.903c0 2.437 1.673 4.412 3.736 4.412z" transform="matrix(-.087156 .996195 -.996195 -.087156 49.672479 53.799522)"/><path d="M4.028 48.727C1.804 48.727 0 46.752 0 44.315V4.412C0 1.975 1.804 0 4.028 0s4.028 1.975 4.028 4.412v39.903c0 2.437-1.804 4.412-4.028 4.412z" transform="matrix(.087156 .996195 -.996195 .087156 48.987394 90.496836)"/></g><use xlink:href="#p"/><use xlink:href="#q"/><use xlink:href="#r"/><use xlink:href="#s"/><use xlink:href="#t"/><g class="I"><path d="M3.736 48.727C1.672 48.727 0 46.752 0 44.315V4.412C0 1.975 1.672 0 3.736 0s3.736 1.975 3.736 4.412v39.903c0 2.437-1.673 4.412-3.736 4.412z" transform="matrix(-.087156 -.996195 .996195 -.087156 100.511402 61.487451)"/><path d="M3.736 48.727c2.063 0 3.736-1.976 3.736-4.412V4.412C7.471 1.975 5.799 0 3.736 0S0 1.975 0 4.412v39.903c0 2.437 1.673 4.412 3.736 4.412z" transform="matrix(-.087156 .996195 -.996195 -.087156 149.053379 95.044422)"/></g></g></g><path d="M130 155.56h40.896v-1.536c.48-1.536 1.536-1.92 2.496-1.536 1.152 1.248 1.152 1.344 1.152 1.536 0 .96.672 1.536 1.632 1.536h127.68l.96-1.536c.576-1.536 1.728-1.92 2.592-1.536l1.152 3.072h169.632v-13.44h4.8V19.432h-3.264c-.96 0-1.44-.672-1.44-1.44a1.48 1.48 0 0 0-1.44-1.44h-7.968c-1.536 0-2.88-.96-3.552-2.208l-.288-.576c-.48-.96-1.536-1.632-2.688-1.632h-1.92v-4.8L135.76 7.72c-3.264 0-5.76 2.592-5.76 5.76v142.08z" class="B E G O"/><g class="L M"><path d="M149.263 57.479c0-3.23-2.644-5.848-5.906-5.848s-5.906 2.618-5.906 5.848 2.644 5.848 5.906 5.848 5.906-2.618 5.906-5.848z" fill="url(#J)"/><path d="M149.263 120.212c0-3.23-2.644-5.848-5.906-5.848s-5.906 2.618-5.906 5.848 2.644 5.848 5.906 5.848 5.906-2.618 5.906-5.848z" fill="url(#K)"/></g><path d="M134.25 96.75l9.122-6.064v10.176L153.5 93.25m.144 1.66c0-5.376-4.416-9.6-9.792-9.6s-9.792 4.224-9.792 9.6 4.416 9.6 9.792 9.6 9.792-4.32 9.792-9.6z" class="F M"/><path d="M133.36 45.358h22.848a1.92 1.92 0 0 0 1.92-1.92L146.32 22.702a1.92 1.92 0 0 0-2.592-.672l-12.096 20.448a1.92 1.92 0 0 0 .672 2.592z" class="C K"/><path d="M130 150.88v4.8h40.896v-4.8" class="B G U"/><g transform="translate(308.49 150.88)"><path d="M0 0v4.8h169.632V0" class="B G U"/></g><g transform="translate(478.13 19.432)"><path fill="url(#M)" d="M0 0h4.8v122.688H0" class="B G"/></g><g transform="matrix(-1 0 0 -1 460.43 12.13)"><path d="M79.68 0v4.8H0V0" class="B G U"/></g><path d="M274.02 80.766c0-19.2-14.88-33.024-33.312-33.024S207.3 62.526 207.3 80.766s14.88 33.024 33.312 33.024 33.312-14.784 33.312-33.024z" stroke="#548bd4" class="E i"/><g class="X"><path d="M17.952 8.928C17.952 4.128 13.92 0 9.024 0S0 4.032 0 8.928s4.032 8.928 8.928 8.928 8.928-3.84 8.928-8.928z" transform="translate(171.25 13.649)" class="B P"/><g class="F Q"><path d="M185.35 22.619h-10.272"/><path d="M180.22 27.697V17.521"/></g><path d="M17.952 8.928C17.952 4.128 13.92 0 9.024 0S0 4.032 0 8.928s4.032 8.928 8.928 8.928 8.928-3.84 8.928-8.928z" transform="translate(169.06 129.904)" class="B P"/><g class="F Q"><path d="M183.16 138.874h-10.272"/><path d="M178.03 143.952v-10.176"/></g><path d="M17.952 8.928C17.952 4.128 13.92 0 9.024 0S0 4.032 0 8.928s4.032 8.928 8.928 8.928 8.928-3.84 8.928-8.928z" transform="translate(294.25 129.904)" class="B P"/><g class="F Q"><path d="M308.35 138.874h-10.272"/><path d="M303.22 143.952v-10.176"/></g></g><path fill="url(#N)" d="M336.34 25.396c0-6.231 5.016-11.248 11.248-11.248s11.248 5.016 11.248 11.248V142.46c0 6.231-5.016 11.248-11.248 11.248s-11.248-5.016-11.248-11.248z" class="C"/><g class="E"><use xlink:href="#V" x="-1056" class="M N g"/><g class="B"><use xlink:href="#W" x="-1056" class="D"/><use xlink:href="#X" x="-1056" class="H V"/></g></g><path d="M408.26 54.795l-2.458 1.842m-.052 2.499l2.458 1.842m-11.048-6.183l2.458 1.842m.052 2.499l-2.458 1.842" class="B H F"/><g class="E"><use xlink:href="#Y" x="-1056" class="B H W"/><use xlink:href="#X" x="-1056" y="44.545" class="B H V"/></g><path d="M408.26 99.34l-2.458 1.842m-.052 2.498l2.458 1.842M397.16 99.34l2.458 1.842m.052 2.498l-2.458 1.842" class="B H F"/><g class="E"><use xlink:href="#Y" x="-1056" y="44.545" class="B H W"/><use xlink:href="#X" x="-1039.41" y="22.262" class="B H V"/></g><path d="M424.86 77.057l-2.458 1.842m-.052 2.499l2.458 1.842m-11.058-6.183l2.458 1.842m.052 2.499l-2.458 1.842" class="B H F"/><g class="E"><use xlink:href="#Y" x="-1039.41" y="22.261" class="B H W"/><use xlink:href="#Z" x="-1056" class="B G O"/><path d="M285.032 28.978c-25.686-21.528-63.115-21.528-88.8 0-1.152 2.112-1.152 4.512-.192 4.512l14.112 14.016c.96.96 2.592.96 3.84.192 15.627-12.206 37.557-12.206 53.184 0 1.152.96 2.88.768 3.84-.192l14.112-14.016c.96-.96.96-2.304.384-3.456zm-95.616 6.528c-23.316 25.635-23.316 64.797 0 90.432.96.288 2.112.096 2.88-.672l14.592-14.4c.96-.96 1.152-2.592.192-3.84-12.304-15.414-12.304-37.29 0-52.704.96-1.056.864-1.632-.192-3.552L192.2 36.37c-.768-.768-1.92-.96-2.88-.672zm6.72 96c25.685 21.528 63.114 21.528 88.8 0 1.248-1.92.96-3.456.096-4.416l-14.112-12.96c-.96-.96-2.592-.96-3.84-.192-15.627 12.206-37.557 12.206-53.184 0-.96-.768-2.496-.768-3.648.192l-14.208 14.016c-.96.96-.96 1.344-.384 3.456zm95.616-96c-.96-.288-2.112-.096-2.88.672l-14.592 14.4c-.96.96-1.152 2.592-.192 3.84 12.304 15.414 12.304 37.29 0 52.704-.96 1.152-.768 2.688.192 3.84l14.592 14.4c.768.768 1.92.96 2.88.672 23.316-25.635 23.316-64.797 0-90.432z" class="B D"/></g><use xlink:href="#a" x="-1056" fill="#c1c1c1" class="C"/><g class="X"><path d="M17.952 8.928C17.952 4.128 13.92 0 9.024 0S0 4.032 0 8.928s4.032 8.928 8.928 8.928 8.928-3.84 8.928-8.928z" transform="translate(292.15 13.649)" class="B P"/><g class="F Q"><path d="M306.25 22.619h-10.272"/><path d="M301.12 27.697V17.521"/></g></g><g class="C"><use xlink:href="#b" x="-1056" class="J"/><path d="M453.42 63.25h8.113v28.48h-8.113z" class="K"/><path d="M456 63.219h2.88v28.512H456z" fill="#d8d8d8"/><g fill="#548bd4"><use xlink:href="#v"/><use xlink:href="#w"/><use xlink:href="#x"/><use xlink:href="#y"/><use xlink:href="#z"/><use xlink:href="#AA"/><use xlink:href="#v" x="-1056"/><use xlink:href="#w" x="-1056"/><use xlink:href="#x" x="-1056"/><use xlink:href="#y" x="-1056"/><use xlink:href="#z" x="-1056"/><use xlink:href="#AA" x="-1056"/></g></g></symbol></svg>