<svg xmlns="http://www.w3.org/2000/svg" xmlns:xlink="http://www.w3.org/1999/xlink" viewBox="0 0 168 532" fill="#fff" fill-rule="evenodd" stroke="#000" stroke-linecap="round" stroke-linejoin="round"><style><![CDATA[.B{stroke:none}.C{stroke-width:.32}.D{stroke-linejoin:miter}.E{fill:#bfbfbf}.F{stroke-width:.133}]]></style><use xlink:href="#L" x=".5" y=".5"/><defs><linearGradient id="A" x1="0%" y1="50%" x2="100%" y2="50%"><stop offset="0%" stop-color="#d9d9d9"/><stop offset="100%" stop-color="#e3e3e3"/></linearGradient><linearGradient id="B" x1="0%" y1="50%" x2="100%" y2="50%"><stop offset="0%"/><stop offset="50%" stop-color="#262626"/><stop offset="100%"/></linearGradient><radialGradient id="C" r="100%" fx="50%" fy="50%" cx="50%" cy="50%"><stop offset="0%" stop-color="#0c0"/><stop offset="70.7%" stop-color="#060"/></radialGradient><radialGradient id="D" r="100%" fx="50%" fy="50%" cx="50%" cy="50%"><stop offset="0%" stop-color="#f30"/><stop offset="70.7%" stop-color="#c30"/></radialGradient><linearGradient id="E" x1="0%" y1="50%" x2="100%" y2="50%"><stop offset="0%" stop-color="#009ad5"/><stop offset="100%" stop-color="#006f98"/></linearGradient><linearGradient id="F" x1="0%" y1="50%" x2="100%" y2="50%"><stop offset="0%" stop-color="#bfbfbf"/><stop offset="50%" stop-color="#fff"/><stop offset="100%" stop-color="#bfbfbf"/></linearGradient><linearGradient id="G" x1="0%" y1="50%" x2="100%" y2="50%"><stop offset="0%" stop-color="#d9d9d9"/><stop offset="50%" stop-color="#bfbfbf"/><stop offset="100%" stop-color="#d9d9d9"/></linearGradient><linearGradient id="H" x1="100%" y1="50%" x2="0%" y2="50%"><stop offset="0%" stop-color="gray"/><stop offset="100%" stop-color="#d9d9d9"/></linearGradient><linearGradient id="I" x1="0%" y1="50%" x2="100%" y2="50%"><stop offset="0%" stop-color="#f2f2f2"/><stop offset="100%" stop-color="#d9d9d9"/></linearGradient><linearGradient id="J" x1="0%" y1="50%" x2="100%" y2="50%"><stop offset="0%" stop-color="#7f7f7f"/><stop offset="50%" stop-color="#fff"/><stop offset="100%" stop-color="#7f7f7f"/></linearGradient><radialGradient id="K" r="100%" fx="50%" fy="50%" cx="50%" cy="50%"><stop offset="0%" stop-color="#fff"/><stop offset="70.7%" stop-color="#969696"/></radialGradient></defs><symbol id="L" overflow="visible"><g class="C"><path d="M78.076 512.55h2.17a.95.95 0 0 1 .95.95l-.023 12.22c-.001.52.425.95.95.95l80.7.16.96-495.595-115.416-.223-46.736-.173-.964 499.1 2.834-.01a.92.92 0 0 1-.041-.27l.004-2.2a.99.99 0 0 1 .042-.28h0l.001-.7h.912l11.375.06 23.083.05c.526 0 .954-.43.955-.95h0l.023-12.26a.96.96 0 0 1 .955-.95h0l36.26.07.993.05z" stroke="gray" fill="url(#A)"/><path d="M27.726 70.166c-5.878-.01-10.652 4.734-10.664 10.6s4.745 10.628 10.622 10.64 10.652-4.736 10.662-10.6-4.745-10.628-10.622-10.64z" fill="url(#B)"/><path d="M27.716 74.862c-3.278-.007-5.94 2.64-5.948 5.912s2.647 5.928 5.926 5.935a5.93 5.93 0 0 0 5.948-5.912 5.93 5.93 0 0 0-5.926-5.935z" fill="url(#C)"/><path d="M27.776 43.82c-5.877-.01-10.65 4.734-10.663 10.6s4.745 10.628 10.622 10.64 10.651-4.725 10.661-10.59-4.743-10.628-10.62-10.65z" fill="url(#B)"/><path d="M27.766 48.526c-3.278-.007-5.94 2.64-5.948 5.912a5.93 5.93 0 1 0 11.873.023 5.93 5.93 0 0 0-5.925-5.935z" fill="url(#D)"/></g><g stroke-width=".96"><path d="M137.516 232.18l3 2.23h12.02l3-2.2.14-70.6-18.04-.04-.14 70.6z" stroke="#507baf" fill="url(#E)"/><path d="M154.136.014l-.15 77-7.45-.014.15-77 7.45.014z" stroke="#a6a6a6" fill="url(#F)"/><g stroke="#507baf"><path d="M155.696 149.36l.14-73.002-18.02-.035-.14 72.997 18.02.04z" fill="url(#E)"/><path d="M155.436 161.25l.02-11.6-7.54-.02-.02 11.6 7.54.02z" fill="#006f98" class="D"/></g></g><g stroke="gray" class="C"><path d="M78.076 512.62l-.952-.04-36.3-.07a.95.95 0 0 0-.955.95h0l-.033 12.26a.95.95 0 0 1-.955.95h0l-38.203-.44-.007 3.7 43.055.46a.96.96 0 0 0 .198-.58l.024-12.26a.96.96 0 0 1 .955-.95h0l31.23.06c.527 0 .953.43.952.95l-.024 12.26c0 .2.07.4.196.58h0l85.56.17v-3.72l-80.7-.16c-.527 0-.952-.42-.95-.95l.023-12.2c.001-.53-.425-.96-.95-.96h0-2.17z" fill="url(#G)"/><path d="M133.076 31.093l.01-3.715-131.435-.254-.007 3.715 131.432.254zM13.331 438.12l.265-137.1h-9.68l.888-267.1 33.696.25.006-3.24-36.86-.07-.96 495.66 39.095.07.006-2.97-36.26-.07.17-85.45 9.636.02z" fill="#d9d9d9" class="D"/><g fill="url(#H)"><path d="M156.076 74.315h10.477v454.291h-10.477"/><path d="M163.716 74.247l.08-42.827-4-.007-.1 42.826 4 .008z"/></g></g><path d="M159.706 74.322l.1-42.91-3.63-.007-.1 42.91 3.63.007z" fill="#000" class="B"/><g class="C"><path d="M3.69 440.7l9.636.02.273-141.54-9.68-.02" stroke="gray" fill="url(#I)"/><path d="M32.729 469.74l77.967.15c9.94.02 18-8.03 18.03-17.97l.32-164.02c.02-9.94-8.03-18.02-17.97-18.04h0l-77.96-.15c-9.94-.02-18.015 8.03-18.034 17.97h0l-.317 164.02c-.017 9.941 8.024 18.015 17.965 18.04z" fill="#262626" class="D"/></g><path d="M43.284 428.66l57.012.1a12 12 0 0 0 12.02-11.98l.2-93.83c.01-6.62-5.35-12-11.98-12.02h0l-57.014-.1c-6.628-.01-12.01 5.35-12.024 11.98h0l-.18 93.82c-.013 6.63 5.35 12 11.977 12.03z" stroke="#737373" fill="#000" stroke-width="2.88" class="D"/><path d="M86.03 356.32l-1.702-3.27c.05-.01.09.03.096.08s-.032.1-.08.1c-.048.01-.09-.03-.095-.08-.002-.02.007-.05.026-.07h-2.153c-.05 0-.088-.04-.088-.1l.016-8.16c0-.05.04-.1.088-.1h2.153c.048 0 .087.04.087.1h0l1.68-3.27.037-.6c0-.05-.04-.1-.088-.1h0l-5.648-.01c-.05 0-.088.04-.088.1h0l-.03 15.76c0 .05.04.1.088.1l5.65.01c.048 0 .088-.04.088-.1h0v-.4h-.035zm.035 0l.03-14.76-1.75 3.27.018 8.16 1.668 3.33h.035zm-1.703-3.33l.015-8.17c0-.05-.04-.1-.087-.1h-2.154c-.05 0-.088.04-.088.1l-.016 8.16c0 .05.04.1.088.1h2.153c.048 0 .087-.04.088-.08z" class="B E"/><g stroke="#fff" fill="none" class="F"><path d="M84.362 353l.015-8.17c0-.05-.04-.1-.087-.1h-2.154c-.05 0-.088.04-.088.1l-.016 8.16c0 .05.04.1.088.1h2.153c.048 0 .087-.04.088-.08"/><path d="M86.03 356.32l-1.702-3.27c.05-.01.09.03.096.08s-.032.1-.08.1c-.048.01-.09-.03-.095-.08-.002-.02.007-.05.026-.07h-2.153c-.05 0-.088-.04-.088-.1l.016-8.16c0-.05.04-.1.088-.1h2.153c.048 0 .087.04.087.1h0l1.68-3.27.037-.6c0-.05-.04-.1-.088-.1h0l-5.648-.01c-.05 0-.088.04-.088.1h0l-.03 15.76c0 .05.04.1.088.1l5.65.01c.048 0 .088-.04.088-.1h0v-.4m-3.928-11.6l-1.867-3.3m5.795 14.9l.03-14.76-1.75 3.27.018 8.16 1.668 3.33m-3.997-3.34l-1.792 3.45"/></g><path d="M63.54 378.85l-1.7-3.96c.048-.01.09.03.095.1s-.032.1-.08.12c-.05 0-.092-.04-.096-.1-.002-.03.008-.06.026-.08h0-2.153c-.048 0-.088-.04-.088-.1l.02-9.88c0-.06.04-.1.088-.1h2.153c.048 0 .087.05.087.1l1.682-3.95.038-.74c0-.05-.04-.1-.088-.1l-5.65-.01c-.048 0-.088.04-.088.1l-.037 19.08c0 .06.04.1.088.1h0 5.65c.048 0 .088-.05.088-.1v-.47h-.036zm.036 0l.034-17.87-1.75 3.96.014 9.87 1.667 4.04h.036zm-1.703-4.04l.02-9.88c0-.06-.04-.1-.087-.1h-2.153c-.05 0-.088.05-.088.1l-.02 9.88c0 .06.04.1.088.1h2.153c.05 0 .088-.05.088-.1z" class="B E"/><g stroke="#fff" fill="none" class="F"><path d="M61.873 374.82l.02-9.88c0-.06-.04-.1-.087-.1h-2.153c-.05 0-.088.05-.088.1l-.02 9.88c0 .06.04.1.088.1h2.153c.05 0 .088-.05.088-.1"/><path d="M63.54 378.85l-1.7-3.96c.048-.01.09.03.095.1s-.032.1-.08.12c-.05 0-.092-.04-.096-.1-.002-.03.008-.06.026-.08h0-2.153c-.048 0-.088-.04-.088-.1l.02-9.88c0-.06.04-.1.088-.1h2.153c.048 0 .087.05.087.1l1.682-3.95.038-.74c0-.05-.04-.1-.088-.1l-5.65-.01c-.048 0-.088.04-.088.1l-.037 19.08c0 .06.04.1.088.1h0 5.65c.048 0 .088-.05.088-.1v-.47m-3.924-14.03l-1.866-4m5.8 18.02l.034-17.87-1.75 3.96.014 9.87 1.667 4.04m-3.996-4.04l-1.793 4.17"/></g><path d="M85.949 398.32l-1.703-3.3c.05-.01.09.03.095.08s-.03.1-.08.1c-.048.01-.09-.03-.095-.08-.002-.02.007-.05.025-.07h-2.152c-.05 0-.088-.04-.088-.1h0l.016-8.16c0-.05.04-.1.088-.1h2.153c.048 0 .087.04.087.1h0l1.68-3.26.037-.6c0-.05-.04-.1-.088-.1h0l-5.648-.01c-.05 0-.088.04-.088.1h0l-.03 15.76c0 .05.04.1.088.1l5.65.01c.048 0 .088-.04.088-.1h0v-.38h-.035zm.035 0l.03-14.77-1.75 3.27.018 8.16 1.668 3.34h.035zm-1.703-3.34l.015-8.17c0-.05-.04-.1-.087-.1h0-2.153c-.05 0-.088.04-.088.1l-.016 8.16c0 .05.04.1.088.1h2.152c.05 0 .088-.04.09-.08z" class="B E"/><g stroke="#fff" fill="none" class="F"><path d="M84.281 394.97l.015-8.17c0-.05-.04-.1-.087-.1h0-2.153c-.05 0-.088.04-.088.1l-.016 8.16c0 .05.04.1.088.1h2.152c.05 0 .088-.04.09-.08"/><path d="M85.949 398.32l-1.703-3.3c.05-.01.09.03.095.08s-.03.1-.08.1c-.048.01-.09-.03-.095-.08-.002-.02.007-.05.025-.07h-2.152c-.05 0-.088-.04-.088-.1h0l.016-8.16c0-.05.04-.1.088-.1h2.153c.048 0 .087.04.087.1h0l1.68-3.26.037-.6c0-.05-.04-.1-.088-.1h0l-5.648-.01c-.05 0-.088.04-.088.1h0l-.03 15.76c0 .05.04.1.088.1l5.65.01c.048 0 .088-.04.088-.1h0v-.38m-3.928-11.6l-1.867-3.3m5.795 14.9l.03-14.77-1.75 3.27.018 8.16 1.668 3.34m-3.997-3.35l-1.792 3.45"/></g><g stroke="#595959" class="C"><path d="M28.962 360.8l.012-8.92c.22-4.92-1.64-9.25-4.156-9.66a2.15 2.15 0 0 0-.759 0l-18.405-.04c-1.11-.05-1.846-1.1-2.08-2.98l-.316-24.52c-.064-3.14 1.187-5.8 2.794-5.94.085-.002.169.002.253.01l62.238.12c3.335-.1 6.038-5.35 6.095-11.88l.048-24.9-3.794-.38-.046 23.78c.216 2.82-.78 5.46-2.225 5.9a1.36 1.36 0 0 1-.633.03h0l-63.186-.12c-2.3-.4-4.338 2.92-4.568 7.42h0l-.057 29.72c.045 5.9 2.455 10.83 5.465 11.16h0l18.406.04c.542-.17 1.05.55 1.135 1.6a3.67 3.67 0 0 1-.001.62l-.024 17.83-.045 17.83c.086 1.06-.284 2.06-.826 2.23-.105.03-.212.03-.316 0l-18.406-.04c-3.01.32-5.44 5.24-5.508 11.14h0L0 430.57c.212 4.5 2.237 7.82 4.54 7.44h0l63.186.12c1.456-.25 2.735 1.86 2.858 4.7a10.1 10.1 0 0 1-.023 1.24l-.046 23.78 3.796-.37.048-24.9c-.032-6.53-2.714-11.8-6.05-11.9h0l-62.238-.12c-1.607.13-2.962-2.3-3.025-5.45-.003-.17-.003-.33.001-.5l.41-24.52c.243-1.87.984-2.92 2.093-2.97h0l18.406.04c2.515.4 4.73-3.24 4.95-8.16.022-.5.022-1 .002-1.5l.023-8.92h.01l.024-17.83z" fill="url(#J)"/><g fill="url(#K)"><path d="M65.391 443.82l-5.942 10.25 5.912 10.27 11.854.03 5.942-10.24-5.912-10.28-11.854-.03zm1.015 18.72a9.77 9.77 0 0 1-3.557-13.35c2.71-4.663 8.686-6.247 13.351-3.54 4.67 2.7 6.26 8.7 3.557 13.35-2.71 4.663-8.686 6.247-13.351 3.54zm0 0c4.665 2.707 10.641 1.123 13.351-3.54 2.704-4.66 1.112-10.64-3.557-13.35s-10.641-1.123-13.351 3.54a9.77 9.77 0 0 0 3.557 13.35z"/><path d="M65.716 275.72l-5.942 10.24 5.912 10.28 11.853.03 5.942-10.25-5.912-10.27-11.853-.03zm1.014 18.72c-4.67-2.7-6.26-8.7-3.556-13.35 2.709-4.669 8.69-6.257 13.359-3.548s6.257 8.69 3.549 13.358c-2.704 4.66-8.682 6.24-13.35 3.54zm0 0c4.67 2.7 10.647 1.12 13.35-3.54 2.709-4.669 1.12-10.65-3.549-13.358s-10.649-1.12-13.358 3.548c-2.705 4.66-1.113 10.64 3.556 13.35z"/></g></g><path d="M135.343 53.717zm-.005 2.496zm-.015 6.912zm-.04 18.72zm-.039 17.952zm-.011 5.28zm-.009 4.032zm-.012 5.376zm-6.957 50.135h6.8l3.4 5.88-3.42 5.86-6.8-.01-3.4-5.88 3.4-5.86zm-.02 14.67l6.8.01 3.4 5.88-3.4 5.87-6.8-.02-3.4-5.88 3.4-5.86zm-.04 14.67l6.8.01 3.4 5.88-3.4 5.87h-6.8l-3.4-5.88 3.4-5.87zm-.02 14.66l6.8.02 3.4 5.87-3.4 5.87-6.8-.01-3.4-5.88 3.42-5.87zm-.04 14.68l6.8.02 3.4 5.88-3.42 5.86-6.8-.01-3.4-5.88 3.42-5.87zm-.02 14.68l6.8.01 3.4 5.88-3.42 5.86h-6.8l-3.4-5.88 3.4-5.86zm-.03 14.67l6.8.01 3.4 5.88-3.42 5.86-6.8-.01-3.4-5.88 3.4-5.86zm-12.38-212.613l6.8.013 3.4 5.88-3.42 5.865-6.8-.013-3.4-5.878 3.42-5.866zm-.03 14.673l6.8.013 3.4 5.88-3.42 5.865-6.8-.013-3.4-5.88 3.4-5.865zm-.04 14.67l6.8.013 3.4 5.878-3.42 5.866-6.8-.014-3.4-5.878 3.4-5.865zm-.02 14.672l6.8.013 3.4 5.88-3.4 5.865-6.8-.013-3.4-5.878 3.4-5.866zm-.03 14.668l6.8.02 3.4 5.88-3.4 5.86-6.8-.01-3.4-5.88 3.4-5.87zm-.02 14.68l6.8.01 3.4 5.88-3.4 5.86-6.8-.01-3.4-5.88 3.42-5.86zm-.03 14.67l6.8.01 3.4 5.88-3.42 5.86h-6.8l-3.4-5.88 3.42-5.86zm-.03 14.67l6.8.01 3.4 5.88-3.42 5.87-6.8-.02-3.4-5.88 3.4-5.86zm-.03 14.68h6.8l3.4 5.88-3.42 5.87-6.8-.02-3.4-5.87 3.4-5.87zm-.04 14.66l6.8.02 3.4 5.87-3.4 5.87-6.8-.01-3.4-5.88 3.4-5.87zm-.02 14.67l6.8.02 3.4 5.88-3.4 5.86-6.8-.01-3.4-5.88 3.4-5.87zm-.02 14.67l6.8.01 3.4 5.88-3.4 5.86-6.8-.01-3.4-5.88 3.42-5.86zm-.03 14.68l6.8.01 3.4 5.88-3.42 5.86-6.8-.01-3.4-5.88 3.42-5.86zm-.03 14.67l6.8.01 3.4 5.88-3.42 5.87h-6.8l-3.4-5.88 3.4-5.86zm-.03 14.67l6.8.01 3.4 5.88-3.4 5.87-6.8-.02-3.4-5.87 3.4-5.87zm-12.41-198.245l6.8.013 3.4 5.88-3.42 5.865-6.8-.013-3.4-5.88 3.4-5.865zm-.03 14.672l6.8.013 3.4 5.878-3.4 5.866-6.8-.013-3.4-5.88 3.4-5.865zm-.03 14.671l6.8.014 3.4 5.878-3.4 5.865-6.8-.013-3.4-5.878 3.4-5.866zm-.02 14.682l6.8.013 3.4 5.88-3.4 5.868-6.8-.02-3.4-5.875 3.42-5.865zm-.03 14.66l6.8.01 3.4 5.88-3.42 5.87-6.8-.01-3.4-5.88 3.42-5.87zm-.03 14.67l6.8.02 3.4 5.88-3.42 5.86-6.8-.01-3.4-5.88 3.42-5.87zm-.02 14.67l6.8.01 3.4 5.88-3.42 5.86-6.8-.01-3.4-5.88 3.4-5.86zm-.04 14.68l6.8.01 3.4 5.88-3.4 5.86-6.8-.01-3.4-5.88 3.4-5.86zm-.03 14.67l6.8.01 3.4 5.88-3.4 5.87h-6.8l-3.4-5.88 3.4-5.86zm-.03 14.67l6.8.01 3.4 5.88-3.4 5.87-6.8-.02-3.4-5.87 3.42-5.87zm-.02 14.68h6.8l3.4 5.87-3.42 5.87-6.8-.01-3.4-5.88 3.42-5.87zm-.03 14.66l6.8.02 3.4 5.88-3.42 5.86-6.8-.01-3.4-5.88 3.42-5.87zm-.03 14.68l6.8.01 3.4 5.88-3.42 5.87-6.8-.01-3.4-5.88 3.4-5.86zm-.02 14.66l6.8.01 3.4 5.88-3.4 5.86-6.8-.01-3.4-5.88 3.4-5.86zm-.04 14.68l6.8.01 3.4 5.88-3.4 5.87-6.8-.02-3.4-5.88 3.4-5.86zM90.116 39.988l6.806.013 3.393 5.88-3.416 5.865-6.806-.013-3.392-5.88 3.415-5.865zm-.028 14.672l6.806.013 3.392 5.878-3.414 5.866-6.806-.014-3.392-5.878 3.414-5.865zm-.028 14.67l6.806.013 3.4 5.88-3.413 5.865-6.806-.013-3.39-5.878 3.414-5.866zm-.028 14.673l6.806.013 3.388 5.88-3.41 5.865-6.806-.013-3.392-5.88 3.415-5.865zm-.029 14.667l6.806.02 3.397 5.88-3.42 5.86H89.98l-3.392-5.88 3.414-5.87zm-.027 14.68l6.806.01 3.395 5.88-3.418 5.86-6.806-.01-3.39-5.88 3.414-5.86zm-.03 14.67h6.806l3.393 5.88-3.416 5.86-6.806-.01-3.392-5.88 3.415-5.85zm-.028 14.67l6.806.01 3.392 5.88-3.414 5.87-6.806-.02-3.392-5.88 3.414-5.86zm-.028 14.67l6.806.01 3.4 5.88-3.413 5.87h-6.817l-3.39-5.88 3.414-5.87zm-.028 14.66l6.806.02 3.388 5.87-3.41 5.87-6.806-.01-3.392-5.88 3.415-5.87zm-.029 14.68l6.806.02 3.397 5.88-3.42 5.86-6.806-.01-3.392-5.88 3.414-5.87zm-.027 14.68l6.806.01 3.395 5.88-3.418 5.86h-6.806l-3.39-5.88 3.414-5.86zm-.03 14.67l6.806.01 3.393 5.88-3.416 5.87-6.806-.02-3.392-5.88 3.415-5.86zm-.028 14.67h6.806l3.392 5.88-3.414 5.87-6.806-.02-3.392-5.87 3.414-5.87zm-.028 14.67l6.806.01 3.4 5.88-3.413 5.87-6.806-.01-3.39-5.88 3.414-5.87zM77.309 47.146l6.806.013 3.392 5.878-3.415 5.866-6.806-.013-3.39-5.88 3.414-5.865zm-.028 14.671l6.806.014 3.392 5.878-3.415 5.865-6.806-.013-3.392-5.878 3.415-5.866zm-.029 14.673l6.806.013 3.392 5.88-3.414 5.865-6.806-.013-3.392-5.88 3.414-5.865zm-.028 14.67l6.806.013 3.392 5.878-3.415 5.868-6.806-.02-3.39-5.874 3.414-5.865zm-.028 14.66l6.806.02 3.392 5.87-3.415 5.87-6.806-.01-3.392-5.88 3.415-5.87zm-.03 14.68l6.806.02 3.392 5.88-3.414 5.86-6.806-.01-3.392-5.88 3.414-5.87zm-.027 14.68l6.806.01 3.391 5.88-3.415 5.86h-6.805l-3.39-5.88 3.414-5.86zm-.028 14.67l6.806.01 3.392 5.88-3.415 5.86-6.806-.01-3.392-5.88 3.415-5.86zm-.029 14.67h6.806l3.392 5.88-3.414 5.87-6.806-.02-3.392-5.88 3.414-5.86zm-.028 14.67l6.806.01 3.392 5.88-3.415 5.87-6.806-.02-3.39-5.87 3.414-5.87zm-.018 14.67l6.806.02 3.392 5.87-3.415 5.87h-6.806l-3.392-5.88 3.415-5.87zm-.04 14.66l6.807.02 3.39 5.88-3.414 5.86-6.806-.01-3.392-5.88 3.414-5.87zm-.027 14.7h6.806l3.392 5.88-3.414 5.86-6.807-.01-3.39-5.88 3.414-5.86zm-.028 14.66l6.806.01 3.392 5.88-3.415 5.86h-6.806l-3.392-5.88 3.415-5.86zm-.029 14.67l6.807.01 3.39 5.88-3.414 5.87-6.806-.02-3.392-5.88 3.414-5.86zM64.529 39.938l6.806.014 3.391 5.868-3.414 5.865-6.807-.013-3.39-5.878 3.414-5.866zm-.028 14.682l6.806.013 3.392 5.88-3.415 5.865-6.806-.013-3.392-5.878 3.415-5.866zm-.029 14.662l6.807.013 3.39 5.878-3.414 5.866-6.806-.013-3.392-5.88 3.414-5.865zm-.028 14.672l6.806.013 3.392 5.878-3.414 5.865-6.807-.013-3.39-5.878 3.414-5.865zm-.028 14.666l6.806.01 3.392 5.88-3.415 5.86-6.806-.01-3.392-5.88 3.415-5.86zm-.03 14.68l6.807.01 3.39 5.88-3.414 5.86-6.806-.01-3.392-5.88 3.414-5.86zm-.027 14.67l6.806.01 3.392 5.88-3.414 5.87h-6.807l-3.39-5.88 3.414-5.86zm-.028 14.67l6.806.01 3.392 5.88-3.415 5.87-6.806-.02-3.392-5.87 3.415-5.87zm-.029 14.68h6.807l3.39 5.87-3.414 5.87-6.806-.01-3.392-5.88 3.414-5.87zm-.028 14.66l6.806.02 3.392 5.88-3.414 5.86-6.807-.01-3.39-5.88 3.414-5.87zm-.038 14.68l6.806.01 3.392 5.88-3.415 5.86-6.806-.01-3.392-5.88 3.415-5.86zm-.02 14.66l6.807.01 3.39 5.88-3.414 5.86-6.806-.01-3.392-5.88 3.414-5.86zM64.189 216l6.806.01 3.392 5.88-3.414 5.87-6.807-.02-3.39-5.88L64.19 216zm-.028 14.67l6.806.01 3.392 5.88-3.415 5.87h-6.806l-3.392-5.87 3.415-5.87zm-.029 14.67l6.807.02 3.39 5.87-3.414 5.87-6.806-.01-3.392-5.88 3.414-5.87zM38.828 98.58l6.806.01 3.392 5.88-3.414 5.86h-6.806l-3.392-5.88 3.414-5.86zm-.028 14.67l6.806.01 3.392 5.88-3.415 5.86-6.806-.01-3.392-5.88 3.415-5.86zm-.028 14.67h6.806l3.39 5.88-3.414 5.87-6.806-.02-3.392-5.88 3.415-5.86zm-.029 14.67l6.806.01 3.392 5.88-3.414 5.87-6.806-.02-3.392-5.87 3.414-5.87zm-.027 14.67l6.806.02 3.392 5.87-3.415 5.87h-6.806l-3.392-5.88 3.415-5.87zm-.03 14.66l6.806.02 3.39 5.88-3.414 5.86-6.806-.01-3.392-5.88 3.415-5.87zm-.028 14.7h6.806l3.392 5.88-3.414 5.86-6.806-.01-3.392-5.88 3.414-5.86zm-.028 14.66l6.806.01 3.392 5.88-3.415 5.86h-6.807l-3.392-5.88 3.415-5.86zm-.028 14.67l6.806.01 3.39 5.88-3.414 5.87-6.806-.02-3.392-5.88 3.415-5.86zm-.029 14.67h6.806l3.392 5.88-3.414 5.87-6.806-.02-3.392-5.87 3.414-5.87zm-.027 14.67l6.806.02 3.392 5.87-3.415 5.87-6.806-.01-3.392-5.88 3.415-5.87zM26.021 105.72l6.806.02 3.39 5.88-3.414 5.86-6.806-.01-3.392-5.88 3.415-5.87zm-.029 14.7h6.806l3.392 5.88-3.414 5.86-6.806-.01-3.392-5.88 3.414-5.86zm-.028 14.66l6.806.01 3.392 5.88-3.415 5.86h-6.806l-3.392-5.88 3.415-5.86zm-.028 14.67l6.806.01 3.392 5.88-3.415 5.87-6.806-.02-3.392-5.88 3.415-5.86zm-.03 14.67h6.806l3.392 5.88-3.414 5.87-6.806-.02-3.392-5.87 3.414-5.87zm-.027 14.67l6.806.02 3.392 5.87-3.415 5.87-6.806-.01-3.39-5.88 3.414-5.87zm-.028 14.67l6.806.02 3.392 5.88-3.415 5.86h-6.806l-3.392-5.9 3.415-5.87zm-.029 14.68l6.806.01 3.392 5.88-3.414 5.86-6.806-.01-3.392-5.88 3.414-5.86zm-.028 14.68H32.6l3.392 5.88-3.415 5.86-6.806-.01-3.39-5.88 3.414-5.86zm-.028 14.66l6.806.01 3.392 5.88-3.415 5.87-6.806-.02-3.392-5.88 3.415-5.86zm-.03 14.67l6.806.01 3.392 5.88-3.414 5.87-6.806-.02-3.392-5.87 3.414-5.87zM51.721 47.096l6.807.013 3.39 5.88-3.414 5.865-6.806-.013-3.392-5.878 3.414-5.866zm-.028 14.672l6.806.013 3.392 5.88-3.414 5.865-6.807-.013-3.39-5.88 3.414-5.865zm-.027 14.672l6.806.013 3.392 5.878-3.415 5.866-6.806-.014-3.392-5.878 3.415-5.865zm-.03 14.67l6.807.013 3.39 5.88-3.414 5.867-6.806-.01-3.392-5.883 3.415-5.867zm-.028 14.67l6.806.02 3.392 5.87-3.414 5.87-6.807-.01-3.39-5.88 3.414-5.87zm-.028 14.67l6.806.02 3.392 5.88-3.415 5.86-6.806-.01-3.392-5.88 3.415-5.87zm-.029 14.67l6.807.01 3.39 5.88-3.412 5.87-6.806-.01-3.392-5.88 3.414-5.86zm-.028 14.68l6.806.01 3.392 5.88-3.414 5.87-6.807-.02-3.39-5.88 3.414-5.86zm-.027 14.67l6.806.01 3.392 5.88-3.415 5.87h-6.806l-3.392-5.87 3.415-5.87zm-.03 14.67l6.807.01 3.39 5.88-3.414 5.87-6.806-.01-3.392-5.88 3.414-5.87zm-.028 14.68h6.806l3.392 5.87-3.414 5.87-6.807-.01-3.39-5.88 3.414-5.87zm-.028 14.66l6.806.02 3.392 5.88-3.415 5.86-6.806-.01-3.392-5.88 3.415-5.87zm-.029 14.68l6.807.01 3.39 5.88-3.414 5.86-6.806-.01-3.392-5.88 3.414-5.86zm-.028 14.66l6.806.01 3.392 5.88-3.414 5.87-6.807-.02-3.39-5.88 3.414-5.86zm-.027 14.68l6.806.01 3.392 5.88-3.415 5.87-6.806-.02-3.392-5.87 3.415-5.87zM4.029 241.76l3.73-2.7.15-77.9-3.718-2.72-.16 83.33z" fill="#000" class="B"/></symbol></svg>