<svg xmlns="http://www.w3.org/2000/svg" xmlns:xlink="http://www.w3.org/1999/xlink" viewBox="0 0 2044 190" fill="#fff" fill-rule="evenodd" stroke="#000" stroke-linecap="round" stroke-linejoin="round" font-family="Roboto" font-size="14" text-anchor="middle"><style><![CDATA[.B{fill:#000}.C{stroke:none}.D{stroke-width:.399}.E{stroke-linejoin:miter}.F{stroke-width:.96}.G{stroke:#404040}.H{fill:#595959}.I{fill:#262626}.J{stroke-width:1.198}.K{fill:#d9d9d9}.L{font-size:17.472px}.M{fill:silver}.N{fill:gray}.O{fill:#866b00}.P{fill:url(#D)}.Q{fill:url(#E)}]]></style><use xlink:href="#c" x=".5" y=".5"/><defs><radialGradient id="A" r="100%" fx="50%" fy="50%" cx="50%" cy="50%"><stop offset="0%" stop-color="gray"/><stop offset="71%" stop-color="#262626"/></radialGradient><linearGradient id="B" x1="50%" y1="0%" x2="50%" y2="100%"><stop offset="0%" stop-color="#7f7f7f"/><stop offset="100%" stop-color="#c1c5cb"/></linearGradient><linearGradient id="C" x1="50%" y1="100%" x2="50%" y2="0%"><stop offset="0%" stop-color="#7f7f7f"/><stop offset="100%" stop-color="#c1c5cb"/></linearGradient><linearGradient id="D" x1="0%" y1="50%" x2="100%" y2="50%"><stop offset="0%" stop-color="#6d634e"/><stop offset="100%" stop-color="#ada38d"/></linearGradient><linearGradient id="E" x1="100%" y1="50%" x2="0%" y2="50%"><stop offset="0%" stop-color="#6d634e"/><stop offset="100%" stop-color="#ada38d"/></linearGradient><linearGradient id="F" x1="0%" y1="50%" x2="100%" y2="50%"><stop offset="0%" stop-color="#ada38d"/><stop offset="1%" stop-color="#ada38d"/><stop offset="50%" stop-color="#6d634e"/><stop offset="100%" stop-color="#ada38d"/></linearGradient><path id="G" d="M62.483 46.035c0-3.653-2.961-6.615-6.615-6.615s-6.615 2.961-6.615 6.615 2.962 6.615 6.615 6.615 6.615-2.962 6.615-6.615z"/><path id="H" d="M99.062 32.194v37.619a2.43 2.43 0 0 0 2.371 2.4h84.864c1.373 0 2.371-1.075 2.371-2.4V32.194c0-1.325-.998-2.4-2.371-2.4h-84.864a2.43 2.43 0 0 0-2.371 2.4zm0 79.336v37.617a2.43 2.43 0 0 0 2.371 2.4h84.864c1.373 0 2.371-1.075 2.371-2.4V111.53c0-1.325-.998-2.4-2.371-2.4h-84.864a2.43 2.43 0 0 0-2.371 2.4z"/><path id="I" d="M158.342 95.972h5.866c1.123-.247 1.872-1.45 1.747-2.687-.25-.904-.874-1.61-1.747-1.791h-5.866c-1.248.247-1.997 1.45-1.747 2.687.125.904.873 1.61 1.747 1.791zm-11.606 0h5.865c1.248-.247 1.997-1.45 1.747-2.687-.125-.904-.873-1.61-1.747-1.791h-5.865c-1.123.247-1.997 1.45-1.747 2.687.25.904.874 1.61 1.747 1.791zm-11.607 0h5.99c1.123-.247 1.872-1.45 1.623-2.687-.125-.904-.749-1.61-1.623-1.791h-5.99c-1.123.247-1.872 1.45-1.622 2.687.125.904.749 1.61 1.622 1.791zm-11.482 0h5.865c1.248-.247 1.997-1.45 1.747-2.687-.25-.904-.873-1.61-1.747-1.791h-5.865c-1.248.247-1.997 1.45-1.747 2.687.125.904.874 1.61 1.747 1.791zm34.694-7.293h5.866c1.123-.247 1.872-1.45 1.747-2.687-.25-.904-.874-1.61-1.747-1.791h-5.866c-1.248.247-1.997 1.45-1.747 2.687.125.904.873 1.61 1.747 1.791zm-11.606 0h5.865c1.248-.247 1.997-1.45 1.747-2.687-.125-.904-.873-1.61-1.747-1.791h-5.865c-1.123.247-1.997 1.45-1.747 2.687.25.904.874 1.61 1.747 1.791zm-11.607 0h5.99c1.123-.247 1.872-1.45 1.623-2.687-.125-.904-.749-1.61-1.623-1.791h-5.99c-1.123.247-1.872 1.45-1.622 2.687.125.904.749 1.61 1.622 1.791zm-11.482 0h5.865c1.248-.247 1.997-1.45 1.747-2.687-.25-.904-.873-1.61-1.747-1.791h-5.865c-1.248.247-1.997 1.45-1.747 2.687.125.904.874 1.61 1.747 1.791zm48.298-3.537h11.856l-5.99 10.313-5.866-10.312zm-67.891 10.313h11.731l-5.866-10.312-5.865 10.313z"/><path id="J" d="M100.06 65.706v2.231c0 1.325.998 2.4 2.371 2.4h83.242a2.43 2.43 0 0 0 2.371-2.4v-2.231a2.43 2.43 0 0 0-2.371-2.4h-83.242c-1.373 0-2.371 1.075-2.371 2.4zm0 79.341v2.225c0 1.325.998 2.4 2.371 2.4h83.242a2.43 2.43 0 0 0 2.371-2.4v-2.225a2.43 2.43 0 0 0-2.371-2.4h-83.242c-1.373 0-2.371 1.075-2.371 2.4z"/><path id="K" d="M101.433 58.15c1.248 0 2.371-1.05 2.371-2.344v-8.437c0-1.294-1.123-2.344-2.371-2.344s-2.371 1.05-2.371 2.344v8.438c0 1.295 1.123 2.344 2.371 2.344zm1.872 10.313c.749 0 1.373-.63 1.373-1.406v-2.344c0-.775-.624-1.406-1.373-1.406s-1.373.63-1.373 1.406v2.344c0 .775.624 1.406 1.373 1.406zm81.495 0c.749 0 1.373-.63 1.373-1.406v-2.344c0-.775-.624-1.406-1.373-1.406-.873 0-1.498.63-1.498 1.406v2.344c0 .775.624 1.406 1.498 1.406zm1.373-10.312c1.248 0 2.371-1.05 2.371-2.344v-8.437c0-1.294-1.123-2.344-2.371-2.344-1.373 0-2.371 1.05-2.371 2.344v8.438c0 1.295.998 2.344 2.371 2.344zm-30.95-25.781c0 1.295 1.123 2.344 2.371 2.344h8.486c1.248 0 2.247-1.05 2.247-2.344s-.998-2.344-2.247-2.344h-8.486c-1.248 0-2.371 1.05-2.371 2.344zm-35.568 0c0 1.295 1.123 2.344 2.371 2.344h8.487c1.248 0 2.246-1.05 2.246-2.344s-.999-2.344-2.246-2.344h-8.487c-1.248 0-2.371 1.05-2.371 2.344zm-18.221 105.116c1.248 0 2.371-1.05 2.371-2.338v-8.437c0-1.3-1.123-2.35-2.371-2.35s-2.371 1.05-2.371 2.35v8.437c0 1.287 1.123 2.338 2.371 2.338zm1.872 10.312c.749 0 1.373-.625 1.373-1.4v-2.35c0-.775-.624-1.4-1.373-1.4s-1.373.625-1.373 1.4v2.35c0 .775.624 1.4 1.373 1.4zm81.495 0c.749 0 1.373-.625 1.373-1.4v-2.35c0-.775-.624-1.4-1.373-1.4-.873 0-1.498.625-1.498 1.4v2.35c0 .775.624 1.4 1.498 1.4zm1.373-10.312c1.248 0 2.371-1.05 2.371-2.338v-8.437c0-1.3-1.123-2.35-2.371-2.35-1.373 0-2.371 1.05-2.371 2.35v8.437c0 1.287.998 2.338 2.371 2.338zm-30.95-25.78c0 1.294 1.123 2.344 2.371 2.344h8.486c1.248 0 2.247-1.05 2.247-2.344s-.998-2.344-2.247-2.344h-8.486c-1.248 0-2.371 1.05-2.371 2.344zm-35.568 0c0 1.294 1.123 2.344 2.371 2.344h8.487c1.248 0 2.246-1.05 2.246-2.344s-.999-2.344-2.246-2.344h-8.487c-1.248 0-2.371 1.05-2.371 2.344z"/><path id="L" d="M100.435 68.815c.624 0 1.123-.525 1.123-1.171v-8c0-.647-.499-1.171-1.123-1.171s-1.248.525-1.248 1.171v8c0 .647.624 1.171 1.248 1.171zm0-12.634c.624 0 1.123-.525 1.123-1.172v-8.024c0-.647-.499-1.172-1.123-1.172s-1.248.525-1.248 1.172v8.013c0 .647.624 1.172 1.248 1.172zm0-12.634c.624 0 1.123-.525 1.123-1.171v-8c0-.647-.499-1.172-1.123-1.172s-1.248.525-1.248 1.172v8c0 .647.624 1.171 1.248 1.171zm86.861 25.267c.624 0 1.248-.525 1.248-1.171v-8c0-.647-.624-1.171-1.248-1.171s-1.123.525-1.123 1.171v8c0 .647.499 1.171 1.123 1.171zm0-12.634c.624 0 1.248-.525 1.248-1.172v-8.024c0-.647-.624-1.172-1.248-1.172s-1.123.525-1.123 1.172v8.013c0 .647.499 1.172 1.123 1.172zm0-12.634c.624 0 1.248-.525 1.248-1.171v-8c0-.647-.624-1.172-1.248-1.172s-1.123.525-1.123 1.172v8c0 .647.499 1.171 1.123 1.171zm-84.864-12.116c0 .775.624 1.406 1.373 1.406h8.861c.749 0 1.373-.63 1.373-1.406s-.624-1.406-1.373-1.406h-8.861c-.749 0-1.373.63-1.373 1.406zm14.227 0c0 .775.624 1.406 1.373 1.406h8.861c.874 0 1.498-.63 1.498-1.406s-.624-1.406-1.498-1.406h-8.861c-.749 0-1.373.63-1.373 1.406zm14.227 0c0 .775.624 1.406 1.498 1.406h8.861c.749 0 1.373-.63 1.373-1.406s-.624-1.406-1.373-1.406h-8.861c-.874 0-1.498.63-1.498 1.406zm14.352 0c0 .775.624 1.406 1.373 1.406h8.861c.749 0 1.373-.63 1.373-1.406s-.624-1.406-1.373-1.406h-8.861c-.749 0-1.373.63-1.373 1.406zm14.227 0c0 .775.624 1.406 1.373 1.406h8.985c.749 0 1.373-.63 1.373-1.406s-.624-1.406-1.373-1.406h-8.985c-.749 0-1.373.63-1.373 1.406zm14.227 0c0 .775.624 1.406 1.498 1.406h8.861c.749 0 1.373-.63 1.373-1.406s-.624-1.406-1.373-1.406h-8.861c-.874 0-1.498.63-1.498 1.406zm-71.261 38.906c0 .775.624 1.406 1.373 1.406h8.861c.749 0 1.373-.63 1.373-1.406s-.624-1.406-1.373-1.406h-8.861c-.749 0-1.373.63-1.373 1.406zm14.227 0c0 .775.624 1.406 1.373 1.406h8.861c.874 0 1.498-.63 1.498-1.406s-.624-1.406-1.498-1.406h-8.861c-.749 0-1.373.63-1.373 1.406zm14.227 0c0 .775.624 1.406 1.498 1.406h8.861c.749 0 1.373-.63 1.373-1.406s-.624-1.406-1.373-1.406h-8.861c-.874 0-1.498.63-1.498 1.406zm14.352 0c0 .775.624 1.406 1.373 1.406h8.861c.749 0 1.373-.63 1.373-1.406s-.624-1.406-1.373-1.406h-8.861c-.749 0-1.373.63-1.373 1.406zm14.227 0c0 .775.624 1.406 1.373 1.406h8.985c.749 0 1.373-.63 1.373-1.406s-.624-1.406-1.373-1.406h-8.985c-.749 0-1.373.63-1.373 1.406zm14.227 0c0 .775.624 1.406 1.498 1.406h8.861c.749 0 1.373-.63 1.373-1.406s-.624-1.406-1.373-1.406h-8.861c-.874 0-1.498.63-1.498 1.406zm-73.257 77.81c.624 0 1.123-.525 1.123-1.163v-8c0-.65-.499-1.175-1.123-1.175s-1.248.525-1.248 1.175v8c0 .625.624 1.163 1.248 1.163zm0-12.625c.624 0 1.123-.525 1.123-1.175v-8c0-.65-.499-1.175-1.123-1.175s-1.248.525-1.248 1.175v8c0 .65.624 1.175 1.248 1.175zm0-12.638c.624 0 1.123-.528 1.123-1.175v-8c0-.647-.499-1.173-1.123-1.173s-1.248.525-1.248 1.173v8c0 .646.624 1.175 1.248 1.175zm86.861 25.262c.624 0 1.248-.525 1.248-1.163v-8c0-.65-.624-1.175-1.248-1.175s-1.123.525-1.123 1.175v8c0 .625.499 1.163 1.123 1.163zm0-12.625c.624 0 1.248-.525 1.248-1.175v-8c0-.65-.624-1.175-1.248-1.175s-1.123.525-1.123 1.175v8c0 .65.499 1.175 1.123 1.175zm0-12.638c.624 0 1.248-.528 1.248-1.175v-8c0-.647-.624-1.173-1.248-1.173s-1.123.525-1.123 1.173v8c0 .646.499 1.175 1.123 1.175zm-84.864-12.118c0 .775.624 1.406 1.373 1.406h8.861c.749 0 1.373-.63 1.373-1.406s-.624-1.406-1.373-1.406h-8.861c-.749 0-1.373.63-1.373 1.406zm14.227 0c0 .775.624 1.406 1.373 1.406h8.861c.874 0 1.498-.63 1.498-1.406s-.624-1.406-1.498-1.406h-8.861c-.749 0-1.373.63-1.373 1.406zm14.227 0c0 .775.624 1.406 1.498 1.406h8.861c.749 0 1.373-.63 1.373-1.406s-.624-1.406-1.373-1.406h-8.861c-.874 0-1.498.63-1.498 1.406zm14.352 0c0 .775.624 1.406 1.373 1.406h8.861c.749 0 1.373-.63 1.373-1.406s-.624-1.406-1.373-1.406h-8.861c-.749 0-1.373.63-1.373 1.406zm14.227 0c0 .775.624 1.406 1.373 1.406h8.985c.749 0 1.373-.63 1.373-1.406s-.624-1.406-1.373-1.406h-8.985c-.749 0-1.373.63-1.373 1.406zm14.227 0c0 .775.624 1.406 1.498 1.406h8.861c.749 0 1.373-.63 1.373-1.406s-.624-1.406-1.373-1.406h-8.861c-.874 0-1.498.63-1.498 1.406zm-71.261 38.905c0 .775.624 1.412 1.373 1.412h8.861c.749 0 1.373-.625 1.373-1.412s-.624-1.4-1.373-1.4h-8.861c-.749 0-1.373.625-1.373 1.4zm14.227 0c0 .775.624 1.412 1.373 1.412h8.861c.874 0 1.498-.625 1.498-1.412s-.624-1.4-1.498-1.4h-8.861c-.749 0-1.373.625-1.373 1.4zm14.227 0c0 .775.624 1.412 1.498 1.412h8.861c.749 0 1.373-.625 1.373-1.412s-.624-1.4-1.373-1.4h-8.861c-.874 0-1.498.625-1.498 1.4zm14.352 0c0 .775.624 1.412 1.373 1.412h8.861c.749 0 1.373-.625 1.373-1.412s-.624-1.4-1.373-1.4h-8.861c-.749 0-1.373.625-1.373 1.4zm14.227 0c0 .775.624 1.412 1.373 1.412h8.985c.749 0 1.373-.625 1.373-1.412s-.624-1.4-1.373-1.4h-8.985c-.749 0-1.373.625-1.373 1.4zm14.227 0c0 .775.624 1.412 1.498 1.412h8.861c.749 0 1.373-.625 1.373-1.412s-.624-1.4-1.373-1.4h-8.861c-.874 0-1.498.625-1.498 1.4z"/><path id="M" d="M198.095 154.77h97.56V27.33h-97.56v127.44z"/><path id="N" d="M202.466 153.01h88.733c1.373 0 2.371-1.075 2.371-2.4v-120c0-1.325-.998-2.4-2.371-2.4h-88.733c-1.373 0-2.496 1.075-2.496 2.4v120c0 1.325 1.123 2.4 2.496 2.4z"/><path id="O" d="M200.469 74.56h92.664v31.05h-92.664z"/><path id="P" d="M292.447 56.181c.374 0 .624-.25.624-.588V46.41c0-.325-.25-.587-.624-.587s-.624.25-.624.587v9.184c0 .325.25.588.624.588zm-91.229 0c.25 0 .499-.25.499-.588V46.41c0-.325-.249-.587-.499-.587-.374 0-.624.25-.624.587v9.184c0 .325.25.588.624.588zm61.152-27.094c0 .388.374.704.749.704h10.233c.374 0 .749-.315.749-.704s-.374-.703-.749-.703h-10.233c-.375 0-.749.313-.749.703zm-42.806 0c0 .388.249.704.749.704h10.233c.375 0 .749-.315.749-.704s-.374-.703-.749-.703h-10.233c-.499 0-.749.313-.749.703zm-18.346 106.435c.25 0 .499-.25.499-.588v-9.187c0-.325-.249-.588-.499-.588-.374 0-.624.25-.624.588v9.187c0 .325.25.588.624.588zm91.229 0c.374 0 .624-.25.624-.588v-9.187c0-.325-.25-.588-.624-.588s-.624.25-.624.588v9.187c0 .325.25.588.624.588zm-30.077-27.1c0 .387.374.702.749.702h10.233c.374 0 .749-.312.749-.702s-.374-.704-.749-.704h-10.233c-.375 0-.749.315-.749.704zm-42.806 0c0 .387.249.702.749.702h10.233c.375 0 .749-.312.749-.702s-.374-.704-.749-.704h-10.233c-.499 0-.749.315-.749.704z"/><path id="Q" d="M1976.974 48.853c0-.696-.622-1.261-1.369-1.261a1.3 1.3 0 0 0-1.245 1.261v6.129a1.3 1.3 0 0 0 1.245 1.264c.747 0 1.369-.565 1.369-1.264v-6.129z"/><path id="R" d="M2005.105 48.853a1.3 1.3 0 0 0-1.245-1.261c-.747 0-1.369.565-1.369 1.261v6.129c0 .7.622 1.264 1.369 1.264a1.3 1.3 0 0 0 1.245-1.264v-6.129z"/><path id="S" d="M24.214 75.995q0-.581-.41-.892-.41-.311-1.477-.656-1.066-.345-1.688-.68-1.695-.916-1.695-2.468 0-.807.455-1.439.455-.632 1.306-.988.851-.355 1.911-.355 1.066 0 1.9.386.834.386 1.295 1.09.461.704.461 1.6h-2.051q0-.684-.431-1.063-.431-.379-1.21-.379-.752 0-1.169.318-.417.318-.417.837 0 .485.489.813.489.328 1.439.615 1.75.526 2.55 1.306.8.779.8 1.941 0 1.292-.978 2.027-.978.735-2.632.735-1.148 0-2.092-.42-.943-.42-1.439-1.152-.496-.731-.496-1.695h2.058q0 1.647 1.969 1.647.731 0 1.142-.297.41-.297.41-.831z"/><path id="T" d="M130.337 8.647v8.543h-1.693v-6.527l-2.021.627V9.913l3.533-1.266h.182z"/><path id="U" d="M163.178 15.824v1.365h-5.848v-1.16l2.76-2.941q.568-.621.841-1.084.272-.463.272-.879 0-.568-.287-.894-.287-.325-.82-.325-.574 0-.905.396-.331.396-.331 1.04h-1.699q0-.779.372-1.424.372-.645 1.052-1.011.68-.366 1.541-.366 1.318 0 2.048.633.729.633.729 1.787 0 .633-.328 1.289-.328.656-1.125 1.529l-1.939 2.045h3.668z"/><path id="V" d="M265.34 8.658v5.32h.967v1.365h-.967v1.846h-1.693v-1.846h-3.498l-.076-1.066 3.557-5.619h1.711zm-1.805 2.502l-1.775 2.818h1.887v-3.012l-.111.193z"/><path id="W" d="M440.774 8.658v.949l-3.299 7.582h-1.787l3.305-7.16h-4.242V8.658h6.023z"/><path id="X" d="M1049.731 8.647v8.543h-1.693v-6.527l-2.022.627V9.913l3.533-1.266h.182z"/><path id="Y" d="M1096.026 10.926q0 .621-.311 1.101-.311.48-.855.768.621.299.984.823.363.525.363 1.233 0 1.137-.773 1.796-.773.659-2.103.659-1.33 0-2.109-.662-.779-.662-.779-1.793 0-.709.363-1.236.363-.527.978-.82-.545-.287-.852-.768-.308-.48-.308-1.101 0-1.09.727-1.737.727-.648 1.975-.648 1.242 0 1.972.642.73.642.73 1.743zm-1.518 3.803q0-.557-.322-.891-.322-.334-.867-.334-.539 0-.861.331-.322.331-.322.894 0 .545.316.879.316.334.879.334.551 0 .864-.322.313-.322.313-.891zm-.176-3.721q0-.498-.264-.8-.264-.302-.744-.302-.475 0-.738.293-.264.293-.264.809 0 .51.264.82.264.311.744.311.48 0 .741-.311.261-.311.261-.82z"/><path id="Z" d="M1159.463 13.779q-.662.65-1.547.65-1.131 0-1.811-.776-.68-.776-.68-2.095 0-.838.366-1.538.366-.7 1.023-1.09.656-.39 1.476-.39.844 0 1.5.422.656.422 1.02 1.213.363.791.369 1.81v.627q0 2.133-1.06 3.351-1.061 1.219-3.006 1.301l-.416.006v-1.412l.375-.006q2.209-.1 2.391-2.074zm-1.131-.644q.41 0 .706-.211.296-.211.448-.51v-.697q0-.861-.328-1.336-.328-.475-.879-.475-.51 0-.838.466-.328.466-.328 1.169 0 .697.319 1.146.319.448.899.448z"/><path id="a" d="M1198.957 12.092v1.57q0 1.769-.732 2.707-.732.938-2.145.938-1.395 0-2.133-.92-.738-.92-.756-2.637v-1.57q0-1.787.741-2.713.741-.926 2.136-.926 1.395 0 2.133.917.738.917.756 2.634zm-1.693 1.875v-2.027q0-1.061-.29-1.544-.29-.483-.905-.483-.598 0-.882.46-.284.46-.302 1.438v2.074q0 1.043.284 1.55.284.507.911.507.621 0 .897-.486.275-.486.287-1.488z"/><path id="b" d="M1362.976 13.498v-1.324h.902q.645 0 .955-.322.311-.322.311-.855 0-.516-.308-.803-.308-.287-.847-.287-.486 0-.814.267-.328.267-.328.694h-1.693q0-.668.36-1.198.36-.53 1.008-.829.648-.299 1.427-.299 1.353 0 2.121.648.768.647.768 1.784 0 .586-.358 1.078-.357.492-.937.756.721.258 1.075.774.354.516.354 1.219 0 1.137-.829 1.822-.829.686-2.194.686-1.277 0-2.089-.674-.812-.674-.812-1.781h1.693q0 .48.36.785.36.305.888.305.604 0 .946-.319.343-.319.343-.847 0-1.277-1.406-1.277h-.897z"/></defs><symbol id="c" overflow="visible"><g class="F"><path d="M17.64 187.32h2010c8.4 0 15-6.72 15-15V15.12c0-8.4-6.72-15-15-15h-2010c-8.4 0-15 6.72-15 15v157.2a15.01 15.01 0 0 0 15 15z" fill="#c1c5cb" class="E"/><path d="M21.596 182.9h-14.4v-16.44h14.4v16.44zm1929.869 4.22h86.4V4.72h-86.4v182.4z" class="B"/><path d="M1957.065 173.52h77.76V6.72h-77.76v166.8z" stroke="#8c8c8c" fill="#d1d3d0"/><g stroke="gray"><g fill="url(#A)"><use xlink:href="#G"/><use xlink:href="#G" y="27.124"/></g><path d="M2034.865 179.64h-6.6l.72 8.88h13.68V.12h-91.2V5.4h82.8l2.04 171.84c.12 1.2-.48 2.4-1.44 2.4zM84.24 9.6V0h-72C4.8.6.24 5.64 0 11.64v166.32c1.68 5.64 6 9.96 11.52 10.44h72.72v-5.28h-72c-2.64 0-4.8-2.04-4.8-4.8V16.8c0-4.2 3.36-7.44 7.56-7.44l69.12.24z" fill="#d1d3d0" class="E"/></g><path d="M1951.609 8.524v-8.4H84.409v8.4" fill="url(#B)"/><path d="M1951.609 178.76v8.4H84.409v-8.4" fill="url(#C)"/></g><g class="C"><path d="M599.885 176.31h9.6v-8.04h-9.6v8.04zm-12.96 0h9.6v-8.04h-9.6v8.04zm-12.96 0h9.6v-8.04h-9.6v8.04zm-12.96 0h9.6v-8.04h-9.6v8.04zm90.84 0h9.6v-8.04h-9.6v8.04zm-12.96 0h9.6v-8.04h-9.6v8.04zm-12.96 0h9.6v-8.04h-9.6v8.04zm-13.08 0h9.6v-8.04h-9.6v8.04zm129.84 0h9.6v-8.04h-9.6v8.04zm-12.96 0h9.6v-8.04h-9.6v8.04zm-12.96 0h9.6v-8.04h-9.6v8.04zm-12.96 0h9.6v-8.04h-9.6v8.04zm-12.96 0h9.6v-8.04h-9.6v8.04zm-13.2 0h9.6v-8.04h-9.6v8.04zm-12.96 0h9.6v-8.04h-9.6v8.04zm-207.6 0h9.36v-8.04h-9.6v8.04zm-12.96 0h9.6v-8.04h-9.6v8.04zm-12.96 0h9.6v-8.04h-9.6v8.04zm-12.96 0h9.6v-8.04h-9.6v8.04zm-12.96 0h9.6v-8.04h-9.6v8.04zm-13.2 0h9.6v-8.04h-9.6v8.04zm156 0h9.6v-8.04h-9.6v8.04zm-13.2 0h9.6v-8.04h-9.6v8.04zm-12.96 0h9.6v-8.04h-9.6v8.04zm-12.96 0h9.6v-8.04h-9.6v8.04zm-12.96 0h9.6v-8.04h-9.6v8.04zm-12.96 0h9.6v-8.04h-9.6v8.04zm-12.96 0h9.6v-8.04h-9.6v8.04zm-90.84 0h9.6v-8.04h-9.6v8.04zm-12.96 0h9.6v-8.04h-9.6v8.04zm-12.96 0h9.6v-8.04h-9.6v8.04zm-12.96 0h9.6v-8.04h-9.6v8.04zm-13.08 0h9.6v-8.04h-9.6v8.04zm-13.2 0h9.6v-8.04h-9.6v8.04zm-12.96 0h9.6v-8.04h-9.6v8.04zm-12.96 0h9.6v-8.04h-9.6v8.04zm-64.8 0h9.6v-8.04h-9.6v8.04zm-12.96 0h9.6v-8.04h-9.6v8.04zm-13.08 0h9.6v-8.04h-9.6v8.04zm-12.84 0h9.6v-8.04h-9.6v8.04zm-13.2 0h9.6v-8.04h-9.6v8.04zm-12.84 0h9.6v-8.04h-9.6v8.04zm-12.96 0h9.6v-8.04h-9.6v8.04zm129.84 0h9.6v-8.04h-9.6v8.04zm-12.84 0h9.6v-8.04h-9.6v8.04zm-12 0h9.6v-8.04h-9.6v8.04zm-12.96 0h9.6v-8.04h-9.6v8.04zm-105.12 0h9.6v-8.04h-9.6v8.04zm-12.96 0h9.6v-8.04h-9.6v8.04zm-12.96 0h9.6v-8.04h-9.6v8.04zm1688.04 0h9.6v-8.04h-9.6v8.04zm-12.96 0h9.6v-8.04h-9.6v8.04zm-12.96 0h9.6v-8.04h-9.6v8.04zm-12.96 0h9.6v-8.04h-9.6v8.04zm90.84 0h9.6v-8.04h-9.6v8.04zm-12.96 0h9.6v-8.04h-9.6v8.04zm-12.96 0h9.6v-8.04h-9.6v8.04zm-12.96 0h9.6v-8.04h-9.6v8.04zm64.8 0h9.6v-8.04h-9.6v8.04zm-13.2 0h9.6v-8.04h-9.6v8.04zm-272.64 0h9.6v-8.04h-9.6v8.04zm-12.96 0h9.6v-8.04h-9.6v8.04zm-12.96 0h9.6v-8.04h-9.6v8.04zm-13.2 0h9.6v-8.04h-9.6v8.04zm-12.96 0h9.6v-8.04h-9.6v8.04zm-12.96 0h9.6v-8.04h-9.6v8.04zm155.76 0h9.6v-8.04h-9.6v8.04zm-12.96 0h9.6v-8.04h-9.6v8.04zm-12.96 0h9.6v-8.04h-9.6v8.04zm-12.96 0h9.6v-8.04h-9.6v8.04zm-12.96 0h9.6v-8.04h-9.6v8.04zm-13.2 0h9.6v-8.04h-9.6v8.04zm-12.96 0h9.6v-8.04h-9.6v8.04zm142.8 0h9.6v-8.04h-9.6v8.04zm-13.2 0h9.6v-8.04h-9.6v8.04zm-12.96 0h9.6v-8.04h-9.6v8.04zm-13.44 0h9.6v-8.04h-9.6v8.04zm-12.96 0h9.6v-8.04h-9.6v8.04zm-894.84 0h9.6v-8.04h-9.6v8.04zm-12.96 0h9.6v-8.04h-9.6v8.04zm-12.84 0h9.6v-8.04h-9.6v8.04zm-13.2 0h9.6v-8.04h-9.6v8.04zm90.96 0h9.6v-8.04h-9.6v8.04zm-12.96 0h9.6v-8.04h-9.6v8.04zm-12.96 0h9.6v-8.04h-9.6v8.04zm-12.96 0h9.6v-8.04h-9.6v8.04zm90.72 0h9.6v-8.04h-9.6v8.04zm-12.96 0h9.6v-8.04h-9.6v8.04zm-12.96 0h9.6v-8.04h-9.6v8.04zm-12.96 0h9.6v-8.04h-9.6v8.04zm90.84 0h9.6v-8.04h-9.6v8.04zm-12.96 0h9.6v-8.04h-9.6v8.04zm-12.96 0h9.6v-8.04h-9.6v8.04zm-12.84 0h9.6v-8.04h-9.6v8.04zm90.84 0h9.6v-8.04h-9.6v8.04zm-12.96 0h9.6v-8.04h-9.6v8.04zm-13.08 0h9.6v-8.04h-9.6v8.04zm-12.96 0h9.6v-8.04h-9.6v8.04zm90.96 0h9.6v-8.04h-9.6v8.04zm-13.2 0h9.6v-8.04h-9.6v8.04zm-12.96 0h9.6v-8.04h-9.6v8.04zm-12.96 0h9.6v-8.04h-9.6v8.04zm116.88 0h9.6v-8.04h-9.6v8.04zm-12.96 0h9.6v-8.04h-9.6v8.04zm-12.96 0h9.6v-8.04h-9.6v8.04zm-12.96 0h9.6v-8.04h-9.6v8.04zm-12.96 0h9.6v-8.04h-9.6v8.04zm-12.96 0h9.6v-8.04h-9.6v8.04zm116.88 0h9.6v-8.04h-9.6v8.04zm-12.96 0h9.6v-8.04h-9.6v8.04zm-12.96 0h9.6v-8.04h-9.6v8.04zm-12.96 0h9.6v-8.04h-9.6v8.04zm129.84 0h9.6v-8.04h-9.6v8.04zm-13.2 0h9.6v-8.04h-9.6v8.04zm-12.96 0h9.6v-8.04h-9.6v8.04zm-12.96 0h9.6v-8.04h-9.6v8.04zm-12.96 0h9.6v-8.04h-9.6v8.04zm-12.96 0h9.6v-8.04h-9.6v8.04zm-11.76 0h9.6v-8.04h-9.6v8.04zm155.76 0h9.6v-8.04h-9.6v8.04zm-12.96 0h9.6v-8.04h-9.6v8.04zm-12.96 0h9.6v-8.04h-9.6v8.04zm-12.96 0h9.6v-8.04h-9.6v8.04zm-13.2 0h9.6v-8.04h-9.6v8.04zm-12.96 0h9.6v-8.04h-9.6v8.04zm144 0h9.6v-8.04h-9.6v8.04zm-12.96 0h9.6v-8.04h-9.6v8.04zm-12.96 0h9.6v-8.04h-9.6v8.04zm-12.96 0h9.6v-8.04h-9.6v8.04zm-12.96 0h9.6v-8.04h-9.6v8.04zm-13.2 0h9.6v-8.04h-9.6v8.04zm142.8 0h9.6v-8.04h-9.6v8.04zm-12.96 0h9.6v-8.04h-9.6v8.04zm-13.2 0h9.6v-8.04h-9.6v8.04zm-12.96 0h9.6v-8.04h-9.6v8.04zm-12.96 0h9.6v-8.04h-9.6v8.04zm-12.96 0h9.6v-8.04h-9.6v8.04z" class="B"/><path d="M846.605 187.32h9.6v-8.04h-9.6v8.04zm-12.96 0h9.6v-8.04h-9.6v8.04zm-12.96 0h9.6v-8.04h-9.6v8.04zm-12.96 0h9.6v-8.04h-9.6v8.04zm-12.96 0h9.6v-8.04h-9.6v8.04zm-12.96 0h9.6v-8.04h-9.6v8.04zm-12.96 0h9.6v-8.04h-9.6v8.04zm-13.2 0h9.6v-8.04h-9.6v8.04zm144 0h9.6v-8.04h-10.8v8.04zm-12.96 0h9.6v-8.04h-9.6v8.04zm-12.96 0h9.6v-8.04h-9.6v8.04zm-12.96 0h9.6v-8.04h-9.6v8.04zm103.92 0h9.6v-8.04h-9.6v8.04zm-12.96 0h9.6v-8.04h-9.6v8.04zm-12.96 0h9.6v-8.04h-9.6v8.04zm-12.96 0h9.6v-8.04h-9.6v8.04zm-14.16 0h9.6v-8.04h-9.6v8.04zm129.6 0h9.6v-8.04h-9.6v8.04zm-12.96 0h9.6v-8.04h-9.6v8.04zm-12.96 0h9.6v-8.04h-9.6v8.04zm-12.96 0h9.6v-8.04h-9.6v8.04zm-12.96 0h9.6v-8.04h-9.6v8.04zm-12.96 0h9.6v-8.04h-9.6v8.04zm116.88 0h9.6v-8.04h-9.6v8.04zm-12.96 0h9.6v-8.04h-9.6v8.04zm-12.96 0h9.6v-8.04h-9.6v8.04zm-12.96 0h9.6v-8.04h-9.6v8.04zm103.92 0h9.6v-8.04h-9.6v8.04zm-12.96 0h9.6v-8.04h-9.6v8.04zm-12.96 0h9.6v-8.04h-9.6v8.04zm-13.2 0h9.6v-8.04h-9.6v8.04zm-12.96 0h9.6v-8.04h-9.6v8.04zm103.92 0h9.6v-8.04h-9.6v8.04zm-11.76 0h9.6v-8.04h-9.6v8.04zm-12.96 0h9.6v-8.04h-9.6v8.04zm-12.96 0h9.6v-8.04h-9.6v8.04zm90.84 0h9.6v-8.04h-9.6v8.04zm-12.96 0h9.6v-8.04h-9.6v8.04zm-12.96 0h9.6v-8.04h-9.6v8.04zm-12.96 0h9.6v-8.04h-9.6v8.04zm90.96 0h9.6v-8.04h-9.6v8.04zm-13.2 0h9.6v-8.04h-9.6v8.04zm-12.96 0h9.6v-8.04h-9.6v8.04zm-14.04 0h9.6v-8.04h-9.6v8.04zm129.84 0h9.6v-8.04h-9.6v8.04zm-12.96 0h9.6v-8.04h-9.6v8.04zm-12.96 0h9.6v-8.04h-9.6v8.04zm-13.2 0h9.6v-8.04h-9.6v8.04zm-12.96 0h9.6v-8.04h-9.6v8.04zm-12.96 0h9.6v-8.04h-9.6v8.04zm-12.96 0h9.6v-8.04h-9.6v8.04zm168.84 0h9.6v-8.04h-9.6v8.04zm-13.2 0h9.6v-8.04h-9.6v8.04zm-12.96 0h9.6v-8.04h-9.6v8.04zm-12.96 0h9.6v-8.04h-9.6v8.04zm-12.96 0h9.6v-8.04h-9.6v8.04zm-13.2 0h9.6v-8.04h-9.6v8.04zm-12.96 0h9.6v-8.04h-9.6v8.04zm129.84 0h9.6v-8.04h-9.6v8.04zm-12.96 0h9.6v-8.04h-9.6v8.04zm-12.96 0h9.6v-8.04h-9.6v8.04zm-12.96 0h9.6v-8.04h-9.6v8.04zm311.64 0h9.6v-8.04h-9.6v8.04zm-12.96 0h9.6v-8.04h-9.6v8.04zm-13.2 0h9.6v-8.04h-9.6v8.04zm-12.96 0h9.6v-8.04h-9.6v8.04zm-12.96 0h9.6v-8.04h-9.6v8.04zm103.92 0h9.6v-8.04h-9.6v8.04zm-13.2 0h9.6v-8.04h-9.6v8.04zm-12.48 0h9.6v-8.04h-9.6v8.04zm-12.96 0h9.6v-8.04h-9.6v8.04zm-131.04 0h9.6v-8.04h-9.6v8.04zm-12.96 0h9.6v-8.04h-9.6v8.04zm-13.2 0h9.6v-8.04h-9.6v8.04zm-12.96 0h9.6v-8.04h-9.6v8.04zm-12.96 0h9.6v-8.04h-9.6v8.04zm103.92 0h9.6v-8.04h-9.6v8.04zm-12.96 0h9.6v-8.04h-9.6v8.04zm-13.2 0h9.6v-8.04h-9.6v8.04zm-12.96 0h9.6v-8.04h-9.6v8.04zm-78 0h9.6v-8.04h-9.6v8.04zm-12.96 0h9.6v-8.04h-9.6v8.04zm-13.2 0h9.6v-8.04h-9.6v8.04zm-12.96 0h9.6v-8.04h-9.6v8.04zm-12.96 0h9.6v-8.04h-9.6v8.04zm-12.96 0h9.6v-8.04h-9.6v8.04zm-12.96 0h9.6v-8.04h-9.6v8.04zm-1426.8 0h9.6v-8.04h-9.6v8.04zm-12.96 0h9.6v-8.04h-9.6v8.04zm-12.96 0h9.6v-8.04h-9.6v8.04zm129.84 0h9.6v-8.04h-9.6v8.04zm-12.96 0h9.6v-8.04h-9.6v8.04zm-12.96 0h9.6v-8.04h-9.6v8.04zm-13.08 0h9.6v-8.04h-9.6v8.04zm-12.84 0h9.6v-8.04h-9.6v8.04zm-13.2 0h9.6v-8.04h-9.6v8.04zm-12.84 0h9.6v-8.04h-9.6v8.04zm-12.96 0h9.6v-8.04h-9.6v8.04zm156 0h9.6v-8.04h-9.6v8.04zm-12.96 0h9.6v-8.04h-9.6v8.04zm-12.96 0h9.6v-8.04h-9.6v8.04zm-13.08 0h9.6v-8.04h-9.6v8.04zm-12 0h9.6v-8.04h-9.6v8.04zm116.88 0h9.6v-8.04h-9.6v8.04zm-12.96 0h9.6v-8.04h-9.6v8.04zm-12.96 0h9.6v-8.04h-9.6v8.04zm-14.16 0h9.6v-8.04h-9.6v8.04zm-13.2 0h9.6v-8.04h-9.6v8.04zm129.84 0h9.6v-8.04h-9.6v8.04zm-12.96 0h9.6v-8.04h-9.6v8.04zm-12.96 0h9.6v-8.04h-9.6v8.04zm-12.72 0h9.6v-8.04h-9.6v8.04zm-13.2 0h9.6v-8.04h-9.6v8.04zm-12.96 0h9.6v-8.04h-9.6v8.04zm116.88 0h9.6v-8.04h-9.6v8.04zm-12.96 0h9.6v-8.04h-9.6v8.04zm-12.96 0h9.6v-8.04h-9.6v8.04zm-12.96 0h9.36v-8.04h-9.6v8.04zm90.84 0h9.6v-8.04h-9.6v8.04zm-13.08 0h9.6v-8.04h-9.6v8.04zm-12.96 0h9.6v-8.04h-9.6v8.04zm-12.96 0h9.6v-8.04h-9.6v8.04zm103.92 0h9.6v-8.04h-9.6v8.04zm-12.96 0h9.6v-8.04h-9.6v8.04zm-12.96 0h9.6v-8.04h-9.6v8.04zm-12.96 0h9.6v-8.04h-9.6v8.04zm-12.96 0h9.6v-8.04h-9.6v8.04zm129.84 0h9.6v-8.04h-9.6v8.04zm-13.2 0h9.6v-8.04h-9.6v8.04zm-12.96 0h9.6v-8.04h-9.6v8.04zm-12.96 0h9.6v-8.04h-9.6v8.04zm-12.96 0h9.6v-8.04h-9.6v8.04zm-12.96 0h9.6v-8.04h-9.6v8.04zm116.88 0h9.6v-8.04h-9.6v8.04zm-12.96 0h9.6v-8.04h-9.6v8.04zm-12.96 0h9.6v-8.04h-9.6v8.04zm-12.96 0h9.6v-8.04h-9.6v8.04z" fill="#3f3f3f"/></g><g class="F"><g stroke="#6d634e"><path d="M2035.165 87.664h-61.92v77.4h61.92v-77.4z" class="P"/><path d="M1960.165 87.664h15v77.4h-15v-77.4z" class="Q"/><path d="M1660.165 188.4h375v-23.28h-375v23.28z" fill="#ada38d"/><path d="M1915.165 188.4h120v-23.28h-120" fill="url(#F)"/><g class="P"><path d="M1675.165 165.09h-15v23.28h15"/><path d="M2042.665 100.13h-37.56v52.44h37.56v-52.44z"/></g><path d="M8.94 87.664h61.92v77.4H8.94v-77.4z" class="Q"/><path d="M83.94 87.664h-15v77.4h15v-77.4z" class="P"/><path d="M383.945 188.4h-375v-23.28h375v23.28z" fill="#ada38d"/><path d="M128.945 188.4h-120v-23.28h120" fill="url(#F)"/><g class="Q"><path d="M368.945 165.09h15v23.28h-15"/><path d="M1.44 100.13H39v52.44H1.44v-52.44z"/></g></g><path d="M95.19 154.77h97.56V27.33H95.19v127.44z" class="B"/></g><path d="M99.561 153.01h88.733c1.373 0 2.371-1.075 2.371-2.4v-120c0-1.325-.998-2.4-2.371-2.4H99.561c-1.373 0-2.496 1.075-2.496 2.4v120c0 1.325 1.123 2.4 2.496 2.4z" class="D E G H"/><use xlink:href="#H" class="I J"/><g class="C"><path d="M97.564 74.56h92.664v31.05H97.564z" class="K"/><use xlink:href="#I" class="B"/></g><g class="D"><path d="M189.542 56.181c.374 0 .624-.25.624-.588V46.41c0-.325-.25-.587-.624-.587s-.624.25-.624.587v9.184c0 .325.25.588.624.588zm-91.229 0c.25 0 .499-.25.499-.588V46.41c0-.325-.249-.587-.499-.587-.374 0-.624.25-.624.587v9.184c0 .325.25.588.624.588zm61.152-27.094c0 .388.374.704.749.704h10.233c.374 0 .749-.315.749-.704s-.374-.703-.749-.703h-10.233c-.375 0-.749.313-.749.703zm-42.806 0c0 .388.249.704.749.704h10.233c.375 0 .749-.315.749-.704s-.374-.703-.749-.703h-10.233c-.499 0-.749.313-.749.703zM98.313 135.523c.25 0 .499-.25.499-.588v-9.187c0-.325-.249-.588-.499-.588-.374 0-.624.25-.624.588v9.187c0 .325.25.588.624.588zm91.229 0c.374 0 .624-.25.624-.588v-9.187c0-.325-.25-.588-.624-.588s-.624.25-.624.588v9.187c0 .325.25.588.624.588zm-30.077-27.1c0 .387.374.702.749.702h10.233c.374 0 .749-.312.749-.702s-.374-.704-.749-.704h-10.233c-.375 0-.749.315-.749.704zm-42.806 0c0 .387.249.702.749.702h10.233c.375 0 .749-.312.749-.702s-.374-.704-.749-.704h-10.233c-.499 0-.749.315-.749.704z" class="M"/><use xlink:href="#J" class="N"/><g class="O"><use xlink:href="#K"/><use xlink:href="#L"/></g></g><use xlink:href="#M" class="B F"/><use xlink:href="#N" class="D E G H"/><use xlink:href="#H" x="102.905" class="I J"/><g class="C"><use xlink:href="#O" class="K"/><use xlink:href="#I" x="102.905" class="B"/></g><g class="D"><use xlink:href="#P" class="M"/><use xlink:href="#J" x="102.905" class="N"/><g class="O"><use xlink:href="#K" x="102.905"/><use xlink:href="#L" x="102.905"/></g></g><use xlink:href="#M" x="102.9" class="B F"/><use xlink:href="#N" x="102.9" class="D E G H"/><use xlink:href="#H" x="205.805" class="I J"/><g class="C"><use xlink:href="#O" x="102.9" class="K"/><use xlink:href="#I" x="205.805" class="B"/></g><g class="D"><use xlink:href="#P" x="102.9" class="M"/><use xlink:href="#J" x="205.805" class="N"/><g class="O"><use xlink:href="#K" x="205.805"/><use xlink:href="#L" x="205.805"/></g></g><use xlink:href="#M" x="205.81" class="B F"/><use xlink:href="#N" x="205.81" class="D E G H"/><use xlink:href="#H" x="308.715" class="I J"/><g class="C"><use xlink:href="#O" x="205.81" class="K"/><path d="M467.057 95.972h5.866c1.123-.247 1.872-1.45 1.747-2.687-.25-.904-.874-1.61-1.747-1.791h-5.866c-1.248.247-1.997 1.45-1.747 2.687.125.904.873 1.61 1.747 1.791zm-11.606 0h5.865c1.248-.247 1.997-1.45 1.747-2.687-.125-.904-.873-1.61-1.747-1.791h-5.865c-1.123.247-1.997 1.45-1.747 2.687.25.904.874 1.61 1.747 1.791zm-11.607 0h5.99c1.123-.247 1.872-1.45 1.623-2.687-.125-.904-.749-1.61-1.623-1.791h-5.99c-1.123.247-1.872 1.45-1.622 2.687.125.904.749 1.61 1.622 1.791zm-11.482 0h5.865c1.248-.247 1.997-1.45 1.747-2.687-.25-.904-.873-1.61-1.747-1.791h-5.865c-1.248.247-1.997 1.45-1.747 2.687.125.904.874 1.61 1.747 1.791zm34.694-7.293h5.866c1.123-.247 1.872-1.45 1.747-2.687-.25-.904-.874-1.61-1.747-1.791h-5.866c-1.248.247-1.997 1.45-1.747 2.687.125.904.873 1.61 1.747 1.791zm-11.606 0h5.865c1.248-.247 1.997-1.45 1.747-2.687-.125-.904-.873-1.61-1.747-1.791h-5.865c-1.123.247-1.997 1.45-1.747 2.687.25.904.874 1.61 1.747 1.791zm-11.607 0h5.99c1.123-.247 1.872-1.45 1.623-2.687-.125-.904-.749-1.61-1.623-1.791h-5.99c-1.123.247-1.872 1.45-1.622 2.687.125.904.749 1.61 1.622 1.791zm-11.482 0h5.865c1.248-.247 1.997-1.45 1.747-2.687-.25-.904-.873-1.61-1.747-1.791h-5.865c-1.248.247-1.997 1.45-1.747 2.687.125.904.874 1.61 1.747 1.791zm48.298-3.537h11.856l-5.99 10.313-5.866-10.312zm-67.891 10.313H424.5l-5.866-10.312-5.865 10.313z" class="B"/></g><g class="D"><use xlink:href="#P" x="205.81" class="M"/><use xlink:href="#J" x="308.715" class="N"/><g class="O"><use xlink:href="#K" x="308.715"/><use xlink:href="#L" x="308.715"/></g></g><use xlink:href="#M" x="411.615" class="B F"/><use xlink:href="#N" x="411.615" class="D E G H"/><use xlink:href="#H" x="514.52" class="I J"/><g class="C"><use xlink:href="#O" x="411.615" class="K"/><use xlink:href="#I" x="514.52" class="B"/></g><g class="D"><use xlink:href="#P" x="411.615" class="M"/><use xlink:href="#J" x="514.52" class="N"/><g class="O"><use xlink:href="#K" x="514.52"/><use xlink:href="#L" x="514.52"/></g></g><use xlink:href="#M" x="514.52" class="B F"/><use xlink:href="#N" x="514.52" class="D E G H"/><use xlink:href="#H" x="617.425" class="I J"/><g class="C"><use xlink:href="#O" x="514.52" class="K"/><use xlink:href="#I" x="617.425" class="B"/></g><g class="D"><use xlink:href="#P" x="514.52" class="M"/><use xlink:href="#J" x="617.425" class="N"/><g class="O"><use xlink:href="#K" x="617.425"/><use xlink:href="#L" x="617.425"/></g></g><use xlink:href="#M" x="617.425" class="B F"/><use xlink:href="#N" x="617.425" class="D E G H"/><use xlink:href="#H" x="720.33" class="I J"/><g class="C"><use xlink:href="#O" x="617.425" class="K"/><use xlink:href="#I" x="720.33" class="B"/></g><g class="D"><use xlink:href="#P" x="617.425" class="M"/><use xlink:href="#J" x="720.33" class="N"/><g class="O"><use xlink:href="#K" x="720.33"/><use xlink:href="#L" x="720.33"/></g></g><use xlink:href="#M" x="720.325" class="B F"/><use xlink:href="#N" x="720.325" class="D E G H"/><use xlink:href="#H" x="823.23" class="I J"/><g class="C"><use xlink:href="#O" x="720.325" class="K"/><use xlink:href="#I" x="823.23" class="B"/></g><g class="D"><use xlink:href="#P" x="720.325" class="M"/><use xlink:href="#J" x="823.23" class="N"/><g class="O"><use xlink:href="#K" x="823.23"/><use xlink:href="#L" x="823.23"/></g></g><use xlink:href="#M" x="823.27" class="B F"/><use xlink:href="#N" x="823.27" class="D E G H"/><use xlink:href="#H" x="926.175" class="I J"/><g class="C"><use xlink:href="#O" x="823.27" class="K"/><use xlink:href="#I" x="926.175" class="B"/></g><g class="D"><use xlink:href="#P" x="823.27" class="M"/><use xlink:href="#J" x="926.175" class="N"/><g class="O"><use xlink:href="#K" x="926.175"/><use xlink:href="#L" x="926.175"/></g></g><use xlink:href="#M" x="926.175" class="B F"/><use xlink:href="#N" x="926.175" class="D E G H"/><use xlink:href="#H" x="1029.08" class="I J"/><g class="C"><use xlink:href="#O" x="926.175" class="K"/><use xlink:href="#I" x="1029.08" class="B"/></g><g class="D"><use xlink:href="#P" x="926.175" class="M"/><use xlink:href="#J" x="1029.08" class="N"/><g class="O"><use xlink:href="#K" x="1029.08"/><use xlink:href="#L" x="1029.08"/></g></g><use xlink:href="#M" x="1029.075" class="B F"/><use xlink:href="#N" x="1029.075" class="D E G H"/><use xlink:href="#H" x="1131.98" class="I J"/><g class="C"><use xlink:href="#O" x="1029.075" class="K"/><use xlink:href="#I" x="1131.98" class="B"/></g><g class="D"><use xlink:href="#P" x="1029.075" class="M"/><use xlink:href="#J" x="1131.98" class="N"/><g class="O"><use xlink:href="#K" x="1131.98"/><use xlink:href="#L" x="1131.98"/></g></g><use xlink:href="#M" x="1131.97" class="B F"/><use xlink:href="#N" x="1131.97" class="D E G H"/><use xlink:href="#H" x="1234.875" class="I J"/><g class="C"><use xlink:href="#O" x="1131.97" class="K"/><use xlink:href="#I" x="1234.875" class="B"/></g><g class="D"><use xlink:href="#P" x="1131.97" class="M"/><use xlink:href="#J" x="1234.875" class="N"/><g class="O"><use xlink:href="#K" x="1234.875"/><use xlink:href="#L" x="1234.875"/></g></g><use xlink:href="#M" x="1337.775" class="B F"/><use xlink:href="#N" x="1337.775" class="D E G H"/><use xlink:href="#H" x="1440.68" class="I J"/><g class="C"><use xlink:href="#O" x="1337.775" class="K"/><use xlink:href="#I" x="1440.68" class="B"/></g><g class="D"><use xlink:href="#P" x="1337.775" class="M"/><use xlink:href="#J" x="1440.68" class="N"/><g class="O"><use xlink:href="#K" x="1440.68"/><use xlink:href="#L" x="1440.68"/></g></g><use xlink:href="#M" x="1440.67" class="B F"/><use xlink:href="#N" x="1440.67" class="D E G H"/><use xlink:href="#H" x="1543.575" class="I J"/><g class="C"><use xlink:href="#O" x="1440.67" class="K"/><use xlink:href="#I" x="1543.575" class="B"/></g><g class="D"><use xlink:href="#P" x="1440.67" class="M"/><use xlink:href="#J" x="1543.575" class="N"/><g class="O"><use xlink:href="#K" x="1543.575"/><use xlink:href="#L" x="1543.575"/></g></g><use xlink:href="#M" x="1543.575" class="B F"/><use xlink:href="#N" x="1543.575" class="D E G H"/><use xlink:href="#H" x="1646.48" class="I J"/><g class="C"><use xlink:href="#O" x="1543.575" class="K"/><use xlink:href="#I" x="1646.48" class="B"/></g><g class="D"><use xlink:href="#P" x="1543.575" class="M"/><use xlink:href="#J" x="1646.48" class="N"/><g class="O"><use xlink:href="#K" x="1646.48"/><use xlink:href="#L" x="1646.48"/></g></g><use xlink:href="#M" x="1646.475" class="B F"/><use xlink:href="#N" x="1646.475" class="D E G H"/><use xlink:href="#H" x="1749.38" class="I J"/><g class="C"><use xlink:href="#O" x="1646.475" class="K"/><use xlink:href="#I" x="1749.38" class="B"/></g><g class="D"><use xlink:href="#P" x="1646.475" class="M"/><use xlink:href="#J" x="1749.38" class="N"/><g class="O"><use xlink:href="#K" x="1749.38"/><use xlink:href="#L" x="1749.38"/></g></g><g class="C"><path d="M1904.065 9.196h-7.92l3.96 7.44 3.96-7.44zm-20.1 7.291h7.92l-3.96-7.44-3.96 7.44zm-82.8-7.291h-7.92l3.96 7.44 3.96-7.44zm-20.1 7.291h7.92l-3.96-7.44-3.96 7.44zm-82.8-7.291h-7.92l3.96 7.44 3.96-7.44zm-20.1 7.291h7.92l-3.96-7.44-3.96 7.44zm-82.8-7.291h-7.92l3.96 7.44 3.96-7.44zm-20.1 7.291h7.92l-3.96-7.44-3.96 7.44zm-185.7-7.291h-7.92l3.96 7.44 3.96-7.44zm-20.1 7.291h7.92l-3.96-7.44-3.96 7.44zm-82.8-7.291h-7.92l3.96 7.44 3.96-7.44zm-20.2 7.291h7.92l-3.96-7.44-3.96 7.44zm-82.7-7.291h-7.92l3.96 7.44 3.96-7.44zm-20.2 7.291h7.92l-3.96-7.44-3.96 7.44zm-82.7-7.291h-7.92l3.96 7.44 3.96-7.44zm-20.2 7.291h7.92l-3.96-7.44-3.96 7.44zm-82.71-7.291h-7.92l3.96 7.44 3.96-7.44zm-20.15 7.291h7.92l-3.96-7.44-3.96 7.44zm-82.75-6.77h-7.92l3.96 7.44 3.96-7.44zm-20.16 7.291h7.92l-3.96-7.44-3.96 7.44zm-82.75-7.291h-7.92l3.96 7.44 3.96-7.44zm-20.15 7.291h7.92l-3.96-7.44-3.96 7.44zm-82.75-7.291h-7.92l3.96 7.44 3.96-7.44zm-20.16 7.291h7.92l-3.96-7.44-3.96 7.44zm-185.65-7.291h-7.92l3.96 7.44 3.96-7.44zm-20.16 7.291h7.92l-3.96-7.44-3.96 7.44zm-82.74-7.383h-7.92l3.96 7.44 3.96-7.44zm-20.16 7.291h7.92l-3.96-7.44-3.96 7.44zm-82.75-8.242h-7.92l3.96 7.44 3.96-7.44zm-20.16 7.291h7.92l-3.96-7.44-3.96 7.44zm-82.74-7.277h-7.92l3.96 7.44 3.96-7.44zm-20.16 7.29h7.92l-3.96-7.44-3.96 7.44z" class="B"/><path d="M1983.944 63.179h2.583v10.095h-2.583zm23.401 2.894c-.125-.054-.871-.54-2.116-.54-1.743 0-2.863 1.145-2.863 2.692 0 1.501 1.12 2.696 2.863 2.696 1.245 0 1.992-.475 2.116-.536v2.71c-.249.09-1.12.36-2.365.36-2.863 0-5.352-1.976-5.352-5.229 0-3.015 2.24-5.225 5.352-5.225 1.245 0 2.116.291 2.365.362v2.71zm-26.886 0c-.124-.054-.996-.54-2.241-.54-1.618 0-2.863 1.145-2.863 2.692 0 1.501 1.12 2.696 2.863 2.696 1.245 0 2.116-.475 2.241-.536v2.71c-.373.09-1.245.36-2.365.36-2.987 0-5.477-1.976-5.477-5.229 0-3.015 2.24-5.225 5.477-5.225 1.12 0 2.116.291 2.365.362v2.71zm40.454 2.152c0 2.888-2.241 5.229-5.352 5.229-3.236 0-5.477-2.341-5.477-5.229s2.241-5.225 5.477-5.225c3.112 0 5.352 2.342 5.352 5.225zm-5.352-2.655c-1.618 0-2.738 1.191-2.738 2.655s1.12 2.657 2.738 2.657c1.494 0 2.614-1.188 2.614-2.657s-1.12-2.655-2.614-2.655zm-19.17-.096c-.125-.012-1.12-.307-2.116-.307s-1.494.344-1.494.827c0 .614.747.83 1.12.962l.747.223c1.618.525 2.365 1.657 2.365 2.888 0 2.536-2.241 3.388-4.232 3.388a14.82 14.82 0 0 1-2.739-.276v-2.324c.249.056 1.245.376 2.49.376s1.867-.371 1.867-.943c0-.511-.498-.806-1.245-1.007-.124-.052-.373-.123-.498-.176-1.494-.448-2.614-1.283-2.614-2.953 0-1.888 1.369-3.155 3.734-3.155 1.245 0 2.489.301 2.614.322v2.154z" fill="#c41230"/><g fill="#005568"><path d="M1969.879 52.331a1.3 1.3 0 0 0-1.245-1.261c-.747 0-1.369.565-1.369 1.261v2.651c0 .7.622 1.264 1.369 1.264a1.3 1.3 0 0 0 1.245-1.264v-2.651z"/><use xlink:href="#Q"/><path d="M1983.944 44.093c-.015-.677-.559-1.227-1.245-1.259-.747 0-1.369.565-1.369 1.259v13.404c0 .7.622 1.264 1.369 1.264a1.3 1.3 0 0 0 1.245-1.264V44.093z"/><use xlink:href="#Q" x="14.065"/><path d="M1998.01 52.331c0-.696-.498-1.261-1.245-1.261s-1.245.565-1.245 1.261v2.651c0 .7.498 1.264 1.245 1.264s1.245-.565 1.245-1.264v-2.651z"/><use xlink:href="#R"/><path d="M2012.076 44.093c0-.696-.498-1.259-1.245-1.259-.686.032-1.23.582-1.245 1.259v13.404a1.3 1.3 0 0 0 1.245 1.264c.747 0 1.245-.565 1.245-1.264V44.093z"/><use xlink:href="#R" x="14.065"/><path d="M2026.265 52.331c0-.696-.622-1.261-1.369-1.261a1.3 1.3 0 0 0-1.245 1.261v2.651a1.3 1.3 0 0 0 1.245 1.264c.747 0 1.369-.565 1.369-1.264v-2.651z"/></g><g class="B"><path d="M21.818 51.593h-3.869V41.64h3.486q1.812 0 2.748.694.937.694.937 2.034 0 .731-.376 1.289-.376.557-1.046.817.766.191 1.207.772.441.581.441 1.422 0 1.436-.916 2.174-.916.738-2.611.752zm.062-4.334H20v2.687h1.757q.725 0 1.131-.345.407-.345.407-.954 0-1.367-1.415-1.388zM20 43.301v2.509h1.518q1.552-.027 1.552-1.237 0-.677-.393-.974-.393-.297-1.241-.297H20zm12.646 4.976h2.051q-.116 1.606-1.186 2.529-1.07.923-2.82.923-1.914 0-3.011-1.289-1.097-1.289-1.097-3.538v-.608q0-1.436.506-2.529.506-1.094 1.446-1.678.94-.584 2.184-.584 1.723 0 2.775.923 1.053.923 1.217 2.591H32.66q-.075-.964-.537-1.398-.461-.434-1.405-.434-1.025 0-1.535.735-.509.735-.523 2.28v.752q0 1.613.489 2.358.489.745 1.542.745.95 0 1.418-.434.468-.434.537-1.343zm11.492-6.637v9.953h-2.051l-3.992-6.549v6.549h-2.051V41.64h2.051l3.999 6.563V41.64h2.044z"/><use xlink:href="#S"/><path d="M35.151 68.653v1.661h-3.049v8.292h-2.051v-8.292h-3.008v-1.661h8.107z"/><use xlink:href="#S" x="17.158"/><use xlink:href="#T"/><use xlink:href="#U"/><path d="M230.947 13.498v-1.324h.902q.645 0 .955-.322.311-.322.311-.855 0-.516-.308-.803-.308-.287-.847-.287-.486 0-.814.267-.328.267-.328.694h-1.693q0-.668.36-1.198.36-.53 1.008-.829.647-.299 1.427-.299 1.354 0 2.121.647.768.647.768 1.784 0 .586-.357 1.078-.357.492-.937.756.721.258 1.075.773.354.516.354 1.219 0 1.137-.829 1.822-.829.686-2.194.686-1.277 0-2.089-.674-.812-.674-.812-1.781h1.693q0 .48.36.785.36.305.888.305.604 0 .946-.319.343-.319.343-.847 0-1.277-1.406-1.277h-.896z"/><use xlink:href="#V"/><path d="M333.823 13.328l-1.348-.334.492-4.336h4.781v1.412h-3.393l-.211 1.834q.604-.322 1.283-.322 1.219 0 1.91.756.691.756.691 2.115 0 .826-.349 1.479-.349.653-.999 1.014-.65.36-1.535.36-.773 0-1.436-.313-.662-.313-1.046-.882-.384-.568-.407-1.295h1.676q.053.533.372.829.319.296.835.296.574 0 .885-.413.311-.413.311-1.169 0-.727-.357-1.113-.357-.387-1.014-.387-.604 0-.979.316l-.164.152zm33.57-4.758h.281v1.395h-.164q-1.148.018-1.849.598-.7.58-.841 1.611.68-.691 1.717-.691 1.113 0 1.77.797.656.797.656 2.098 0 .832-.36 1.506-.36.674-1.02 1.049-.659.375-1.491.375-1.348 0-2.177-.937-.829-.937-.829-2.502v-.609q0-1.389.524-2.452.524-1.063 1.506-1.646.981-.583 2.276-.589zm-1.371 4.271q-.41 0-.744.214-.334.214-.492.565v.516q0 .85.334 1.327.334.478.938.478.545 0 .882-.431.337-.431.337-1.116 0-.697-.34-1.125-.34-.428-.914-.428z"/><use xlink:href="#W"/><path d="M471.641 10.926q0 .621-.311 1.102-.311.48-.855.768.621.299.984.823.363.524.363 1.233 0 1.137-.773 1.796-.773.659-2.104.659-1.33 0-2.109-.662-.779-.662-.779-1.793 0-.709.363-1.236.363-.527.979-.82-.545-.287-.853-.768-.308-.48-.308-1.102 0-1.09.727-1.737.727-.647 1.975-.647 1.242 0 1.972.642.729.642.729 1.743zm-1.518 3.803q0-.557-.322-.891-.322-.334-.867-.334-.539 0-.861.331-.322.331-.322.894 0 .545.316.879.316.334.879.334.551 0 .864-.322.313-.322.313-.891zm-.176-3.721q0-.498-.264-.8-.264-.302-.744-.302-.475 0-.738.293-.264.293-.264.809 0 .51.264.82.264.311.744.311.48 0 .741-.311.261-.311.261-.82zm174.988 2.771q-.662.65-1.547.65-1.131 0-1.81-.776-.68-.776-.68-2.095 0-.838.366-1.538.366-.7 1.022-1.09.656-.39 1.476-.39.844 0 1.5.422.656.422 1.02 1.213.363.791.369 1.81v.627q0 2.133-1.061 3.351-1.061 1.219-3.006 1.301l-.416.006v-1.412l.375-.006q2.209-.1 2.391-2.074zm-1.131-.644q.41 0 .706-.211.296-.211.448-.51v-.697q0-.861-.328-1.336-.328-.475-.879-.475-.51 0-.838.466-.328.466-.328 1.169 0 .697.319 1.146.319.448.899.448z"/><use xlink:href="#T" x="545.607"/><path d="M684.458 12.092v1.57q0 1.769-.732 2.707-.732.938-2.144.938-1.395 0-2.133-.92-.738-.92-.756-2.637v-1.57q0-1.787.741-2.713.741-.926 2.136-.926 1.394 0 2.133.917.738.917.756 2.634zm-1.693 1.875v-2.027q0-1.061-.29-1.544-.29-.483-.905-.483-.598 0-.882.46-.284.46-.302 1.438v2.074q0 1.043.284 1.55.284.507.911.507.621 0 .897-.486.275-.486.287-1.488z"/><use xlink:href="#T" x="610.644"/><use xlink:href="#T" x="617.529"/><use xlink:href="#T" x="648.607"/><path d="M787.563 15.824v1.365h-5.848v-1.16l2.76-2.941q.568-.621.841-1.084.273-.463.273-.879 0-.568-.287-.894-.287-.325-.82-.325-.574 0-.905.396-.331.396-.331 1.04h-1.699q0-.779.372-1.424.372-.645 1.052-1.011.68-.366 1.541-.366 1.318 0 2.048.633.73.633.73 1.787 0 .633-.328 1.289-.328.656-1.125 1.529l-1.939 2.045h3.668z"/><use xlink:href="#T" x="713.644"/><path d="M848.475 13.498v-1.324h.902q.644 0 .955-.322.31-.322.31-.855 0-.516-.308-.803-.308-.287-.847-.287-.486 0-.814.267-.328.267-.328.694h-1.693q0-.668.36-1.198.36-.53 1.008-.829.647-.299 1.427-.299 1.354 0 2.121.648.768.647.768 1.784 0 .586-.357 1.078-.357.492-.937.756.721.258 1.075.774.355.516.355 1.219 0 1.137-.829 1.822-.829.686-2.194.686-1.277 0-2.089-.674-.812-.674-.812-1.781h1.693q0 .48.36.785.36.305.888.305.603 0 .946-.319.343-.319.343-.847 0-1.277-1.406-1.277h-.897z"/><use xlink:href="#T" x="751.607"/><use xlink:href="#V" x="624.386" y="0.001"/><use xlink:href="#T" x="816.644"/><path d="M951.353 13.329l-1.348-.334.492-4.336h4.781v1.412h-3.392l-.211 1.834q.603-.322 1.283-.322 1.219 0 1.91.756.691.756.691 2.115 0 .826-.349 1.479-.349.653-.999 1.014-.65.36-1.535.36-.774 0-1.436-.313-.662-.313-1.046-.882-.384-.568-.407-1.295h1.676q.053.533.372.829.319.296.835.296.574 0 .885-.413.31-.413.31-1.169 0-.727-.357-1.113-.357-.387-1.014-.387-.603 0-.978.316l-.164.152zm33.34-4.683v8.543H983v-6.527l-2.021.627V9.912l3.533-1.266h.182zm7.084-.076h.281v1.395h-.164q-1.148.018-1.849.598-.7.58-.841 1.611.68-.691 1.717-.691 1.113 0 1.769.797.656.797.656 2.098 0 .832-.36 1.506-.36.674-1.019 1.049-.659.375-1.491.375-1.348 0-2.177-.937-.829-.937-.829-2.502v-.609q0-1.389.524-2.452.524-1.063 1.506-1.646.981-.583 2.276-.589zm-1.371 4.272q-.41 0-.744.214-.334.214-.492.565v.516q0 .85.334 1.327.334.478.938.478.545 0 .882-.431.337-.431.337-1.116 0-.697-.34-1.125-.34-.428-.914-.428z"/><use xlink:href="#X"/><path d="M1058.303 8.659v.949l-3.299 7.582h-1.787l3.305-7.16h-4.242V8.659h6.023z"/><use xlink:href="#X" x="37.963"/><use xlink:href="#Y"/><use xlink:href="#X" x="103"/><use xlink:href="#Z"/><use xlink:href="#U" x="1029"/><use xlink:href="#a"/><use xlink:href="#U" x="1094.038"/><use xlink:href="#X" x="212.635"/><use xlink:href="#U" x="1132"/><use xlink:href="#U" x="1138.885"/><use xlink:href="#U" x="1197.038"/><use xlink:href="#b"/><use xlink:href="#U" x="1235"/><use xlink:href="#V" x="1138.885"/><use xlink:href="#U" x="1402.788"/><path d="M1568.603 13.328l-1.348-.334.492-4.336h4.781v1.412h-3.392l-.211 1.834q.603-.322 1.283-.322 1.219 0 1.91.756.691.756.691 2.115 0 .826-.349 1.479-.349.653-.999 1.014-.65.36-1.535.36-.774 0-1.436-.313-.662-.314-1.046-.882-.384-.568-.407-1.295h1.676q.053.533.372.829.319.296.835.296.574 0 .885-.413.311-.413.311-1.169 0-.727-.357-1.113-.357-.387-1.014-.387-.604 0-.979.316l-.164.152z"/><use xlink:href="#U" x="1440.5"/><path d="M1609.028 8.57h.281v1.395h-.164q-1.148.018-1.849.598-.7.58-.841 1.611.68-.691 1.717-.691 1.113 0 1.77.797.656.797.656 2.098 0 .832-.36 1.506-.36.674-1.019 1.049-.659.375-1.491.375-1.348 0-2.177-.937-.829-.937-.829-2.502v-.609q0-1.389.524-2.452.524-1.063 1.506-1.646.981-.583 2.276-.589zm-1.371 4.272q-.41 0-.744.214-.334.214-.492.565v.516q0 .85.334 1.327.334.478.938.478.545 0 .882-.431.337-.431.337-1.116 0-.697-.34-1.125-.34-.428-.914-.428z"/><use xlink:href="#U" x="1505.538"/><use xlink:href="#W" x="1234.779"/><use xlink:href="#U" x="1543.5"/><use xlink:href="#Y" x="617.249"/><use xlink:href="#U" x="1608.538"/><use xlink:href="#Z" x="617.251"/><use xlink:href="#b" x="442.327"/><use xlink:href="#a" x="617.25"/><use xlink:href="#b" x="507.615"/><use xlink:href="#X" x="830.135"/><use xlink:href="#b" x="545.327"/><use xlink:href="#U" x="1756.135"/><path d="M1524.56 145.891h-5.52l-2.64 4.8 2.76 4.8h5.52l2.52-4.8-2.64-4.8zm0-14.19h-5.52l-2.64 4.8 2.76 4.8h5.52l2.52-4.8-2.64-4.8zm0-14.18h-5.52l-2.64 4.8 2.76 4.8h5.52l2.52-4.8-2.64-4.8zm0-14.19h-5.52l-2.64 4.8 2.76 4.8h5.52l2.52-4.8-2.64-4.8zm0-14.187h-5.52l-2.64 4.8 2.76 4.8h5.52l2.52-4.8-2.64-4.8zm0-14.187h-5.52l-2.64 4.8 2.76 4.8h5.52l2.52-4.8-2.64-4.8zm0-14.186h-5.52l-2.64 4.8 2.76 4.8h5.52l2.52-4.8-2.64-4.8zm0-14.187h-5.52l-2.64 4.8 2.76 4.8h5.52l2.52-4.8-2.64-4.8zm0-14.187h-5.52l-2.64 4.8 2.76 4.8h5.52l2.52-4.8-2.64-4.8zm-11.3 106.404h-5.52l-2.64 4.8 2.76 4.8h5.52l2.52-4.8-2.64-4.8zm0-14.19h-5.52l-2.64 4.8 2.76 4.8h5.52l2.52-4.8-2.64-4.8zm0-14.19h-5.52l-2.64 4.8 2.76 4.8h5.52l2.52-4.8-2.64-4.8zm0-14.183h-5.52l-2.64 4.8 2.76 4.8h5.52l2.52-4.8-2.64-4.8zm0-14.187h-5.52l-2.64 4.8 2.76 4.8h5.52l2.52-4.8-2.64-4.8zm0-14.187h-5.52l-2.64 4.8 2.76 4.8h5.52l2.52-4.8-2.64-4.8zm0-14.187h-5.52l-2.64 4.8 2.76 4.8h5.52l2.52-4.8-2.64-4.8zm0-14.187h-5.52l-2.64 4.8 2.76 4.8h5.52l2.52-4.8-2.64-4.8zm0-14.187h-5.52l-2.64 4.8 2.76 4.8h5.52l2.52-4.8-2.64-4.8zm-11.2 120.588h-5.52l-2.64 4.8 2.76 4.8h5.52l2.52-4.8-2.64-4.8zm0-14.19h-5.52l-2.64 4.8 2.76 4.8h5.52l2.52-4.8-2.64-4.8zm0-14.18h-5.52l-2.64 4.8 2.76 4.8h5.52l2.52-4.8-2.64-4.8zm0-14.19h-5.52l-2.64 4.8 2.76 4.8h5.52l2.52-4.8-2.64-4.8zm0-14.187h-5.52l-2.64 4.8 2.76 4.8h5.52l2.52-4.8-2.64-4.8zm0-14.187h-5.52l-2.64 4.8 2.76 4.8h5.52l2.52-4.8-2.64-4.8zm0-14.186h-5.52l-2.64 4.8 2.76 4.8h5.52l2.52-4.8-2.64-4.8zm0-14.187h-5.52l-2.64 4.8 2.76 4.8h5.52l2.52-4.8-2.64-4.8zm0-14.187h-5.52l-2.64 4.8 2.76 4.8h5.52l2.52-4.8-2.64-4.8zm-11.2 106.404h-5.52l-2.64 4.8 2.76 4.8h5.52l2.52-4.8-2.64-4.8zm0-14.19h-5.52l-2.64 4.8 2.76 4.8h5.52l2.52-4.8-2.64-4.8zm0-14.19h-5.52l-2.64 4.8 2.76 4.8h5.52l2.52-4.8-2.64-4.8zm0-14.183h-5.52l-2.64 4.8 2.76 4.8h5.52l2.52-4.8-2.64-4.8zm0-14.187h-5.52l-2.64 4.8 2.76 4.8h5.52l2.52-4.8-2.64-4.8zm0-14.187h-5.52l-2.64 4.8 2.76 4.8h5.52l2.52-4.8-2.64-4.8zm0-14.187h-5.52l-2.64 4.8 2.76 4.8h5.52l2.52-4.8-2.64-4.8zm0-14.187h-5.52l-2.64 4.8 2.76 4.8h5.52l2.52-4.8-2.64-4.8zm0-14.187h-5.52l-2.64 4.8 2.76 4.8h5.52l2.52-4.8-2.64-4.8zm-11.3 120.588h-5.52l-2.64 4.8 2.76 4.8h5.52l2.52-4.8-2.64-4.8zm0-14.19h-5.52l-2.64 4.8 2.76 4.8h5.52l2.52-4.8-2.64-4.8zm0-14.18h-5.52l-2.64 4.8 2.76 4.8h5.52l2.52-4.8-2.64-4.8zm0-14.19h-5.52l-2.64 4.8 2.76 4.8h5.52l2.52-4.8-2.64-4.8zm0-14.187h-5.52l-2.64 4.8 2.76 4.8h5.52l2.52-4.8-2.64-4.8zm0-14.187h-5.52l-2.64 4.8 2.76 4.8h5.52l2.52-4.8-2.64-4.8zm0-14.186h-5.52l-2.64 4.8 2.76 4.8h5.52l2.52-4.8-2.64-4.8zm0-14.187h-5.52l-2.64 4.8 2.76 4.8h5.52l2.52-4.8-2.64-4.8zm0-14.187h-5.52l-2.64 4.8 2.76 4.8h5.52l2.52-4.8-2.64-4.8zm-11.2 106.404h-5.52l-2.64 4.8 2.76 4.8h5.52l2.52-4.8-2.64-4.8zm0-14.19h-5.52l-2.64 4.8 2.76 4.8h5.52l2.52-4.8-2.64-4.8zm0-14.19h-5.52l-2.64 4.8 2.76 4.8h5.52l2.52-4.8-2.64-4.8zm0-14.183h-5.52l-2.64 4.8 2.76 4.8h5.52l2.52-4.8-2.64-4.8zm0-14.187h-5.52l-2.64 4.8 2.76 4.8h5.52l2.52-4.8-2.64-4.8zm0-14.187h-5.52l-2.64 4.8 2.76 4.8h5.52l2.52-4.8-2.64-4.8zm0-14.187h-5.52l-2.64 4.8 2.76 4.8h5.52l2.52-4.8-2.64-4.8zm0-14.187h-5.52l-2.64 4.8 2.76 4.8h5.52l2.52-4.8-2.64-4.8zm0-14.187h-5.52l-2.64 4.8 2.76 4.8h5.52l2.52-4.8-2.64-4.8zm-11.3 120.588h-5.52l-2.64 4.8 2.76 4.8h5.52l2.52-4.8-2.64-4.8zm0-14.19h-5.52l-2.64 4.8 2.76 4.8h5.52l2.52-4.8-2.64-4.8zm0-14.18h-5.52l-2.64 4.8 2.76 4.8h5.52l2.52-4.8-2.64-4.8zm0-14.19h-5.52l-2.64 4.8 2.76 4.8h5.52l2.52-4.8-2.64-4.8zm0-14.187h-5.52l-2.64 4.8 2.76 4.8h5.52l2.52-4.8-2.64-4.8zm0-14.187h-5.52l-2.64 4.8 2.76 4.8h5.52l2.52-4.8-2.64-4.8zm0-14.186h-5.52l-2.64 4.8 2.76 4.8h5.52l2.52-4.8-2.64-4.8zm0-14.187h-5.52l-2.64 4.8 2.76 4.8h5.52l2.52-4.8-2.64-4.8zm0-14.187h-5.52l-2.64 4.8 2.76 4.8h5.52l2.52-4.8-2.64-4.8zm-11.2 106.404h-5.52l-2.64 4.8 2.76 4.8h5.52l2.52-4.8-2.64-4.8zm0-14.19h-5.52l-2.64 4.8 2.76 4.8h5.52l2.52-4.8-2.64-4.8zm0-14.19h-5.52l-2.64 4.8 2.76 4.8h5.52l2.52-4.8-2.64-4.8zm0-14.183h-5.52l-2.64 4.8 2.76 4.8h5.52l2.52-4.8-2.64-4.8zm0-14.187h-5.52l-2.64 4.8 2.76 4.8h5.52l2.52-4.8-2.64-4.8zm0-14.187h-5.52l-2.64 4.8 2.76 4.8h5.52l2.52-4.8-2.64-4.8zm0-14.187h-5.52l-2.64 4.8 2.76 4.8h5.52l2.52-4.8-2.64-4.8zm0-14.187h-5.52l-2.64 4.8 2.76 4.8h5.52l2.52-4.8-2.64-4.8zm0-14.187h-5.52l-2.64 4.8 2.76 4.8h5.52l2.52-4.8-2.64-4.8zM596.42 145.891h-5.52l-2.64 4.8 2.76 4.8h5.52l2.52-4.8-2.64-4.8zm0-14.19h-5.52l-2.64 4.8 2.76 4.8h5.52l2.52-4.8-2.64-4.8zm0-14.18h-5.52l-2.64 4.8 2.76 4.8h5.52l2.52-4.8-2.64-4.8zm0-14.19h-5.52l-2.64 4.8 2.76 4.8h5.52l2.52-4.8-2.64-4.8zm0-14.187h-5.52l-2.64 4.8 2.76 4.8h5.52l2.52-4.8-2.64-4.8zm0-14.187h-5.52l-2.64 4.8 2.76 4.8h5.52l2.52-4.8-2.64-4.8zm0-14.186h-5.52l-2.64 4.8 2.76 4.8h5.52l2.52-4.8-2.64-4.8zm0-14.187h-5.52l-2.64 4.8 2.76 4.8h5.52l2.52-4.8-2.64-4.8zm0-14.187h-5.52l-2.64 4.8 2.76 4.8h5.52l2.52-4.8-2.64-4.8zm-11.24 106.404h-5.52l-2.64 4.8 2.76 4.8h5.52l2.52-4.8-2.64-4.8zm0-14.19h-5.52l-2.64 4.8 2.76 4.8h5.52l2.52-4.8-2.64-4.8zm0-14.19h-5.52l-2.64 4.8 2.76 4.8h5.52l2.52-4.8-2.64-4.8zm0-14.183h-5.52l-2.64 4.8 2.76 4.8h5.52l2.52-4.8-2.64-4.8zm0-14.187h-5.52l-2.64 4.8 2.76 4.8h5.52l2.52-4.8-2.64-4.8zm0-14.187h-5.52l-2.64 4.8 2.76 4.8h5.52l2.52-4.8-2.64-4.8zm0-14.187h-5.52l-2.64 4.8 2.76 4.8h5.52l2.52-4.8-2.64-4.8zm0-14.187h-5.52l-2.64 4.8 2.76 4.8h5.52l2.52-4.8-2.64-4.8zm0-14.187h-5.52l-2.64 4.8 2.76 4.8h5.52l2.52-4.8-2.64-4.8zm-11.24 120.588h-5.52l-2.64 4.8 2.76 4.8h5.52l2.52-4.8-2.64-4.8zm0-14.19h-5.52l-2.64 4.8 2.76 4.8h5.52l2.52-4.8-2.64-4.8zm0-14.18h-5.52l-2.64 4.8 2.76 4.8h5.52l2.52-4.8-2.64-4.8zm0-14.19h-5.52l-2.64 4.8 2.76 4.8h5.52l2.52-4.8-2.64-4.8zm0-14.187h-5.52l-2.64 4.8 2.76 4.8h5.52l2.52-4.8-2.64-4.8zm0-14.187h-5.52l-2.64 4.8 2.76 4.8h5.52l2.52-4.8-2.64-4.8zm0-14.186h-5.52l-2.64 4.8 2.76 4.8h5.52l2.52-4.8-2.64-4.8zm0-14.187h-5.52l-2.64 4.8 2.76 4.8h5.52l2.52-4.8-2.64-4.8zm0-14.187h-5.52l-2.64 4.8 2.76 4.8h5.52l2.52-4.8-2.64-4.8zM562.7 138.801h-5.52l-2.64 4.8 2.76 4.8h5.52l2.52-4.8-2.64-4.8zm0-14.19h-5.52l-2.64 4.8 2.76 4.8h5.52l2.52-4.8-2.64-4.8zm0-14.19h-5.52l-2.64 4.8 2.76 4.8h5.52l2.52-4.8-2.64-4.8zm0-14.183h-5.52l-2.64 4.8 2.76 4.8h5.52l2.52-4.8-2.64-4.8zm0-14.187h-5.52l-2.64 4.8 2.76 4.8h5.52l2.52-4.8-2.64-4.8zm0-14.187h-5.52l-2.64 4.8 2.76 4.8h5.52l2.52-4.8-2.64-4.8zm0-14.187h-5.52l-2.64 4.8 2.76 4.8h5.52l2.52-4.8-2.64-4.8zm0-14.187h-5.52l-2.64 4.8 2.76 4.8h5.52l2.52-4.8-2.64-4.8zm0-14.187h-5.52l-2.64 4.8 2.76 4.8h5.52l2.52-4.8-2.64-4.8zm-11.24 120.588h-5.52l-2.64 4.8 2.76 4.8h5.52l2.52-4.8-2.64-4.8zm0-14.19h-5.52l-2.64 4.8 2.76 4.8h5.52l2.52-4.8-2.64-4.8zm0-14.18h-5.52l-2.64 4.8 2.76 4.8h5.52l2.52-4.8-2.64-4.8zm0-14.19h-5.52l-2.64 4.8 2.76 4.8h5.52l2.52-4.8-2.64-4.8zm0-14.187h-5.52l-2.64 4.8 2.76 4.8h5.52l2.52-4.8-2.64-4.8zm0-14.187h-5.52l-2.64 4.8 2.76 4.8h5.52l2.52-4.8-2.64-4.8zm0-14.186h-5.52l-2.64 4.8 2.76 4.8h5.52l2.52-4.8-2.64-4.8zm0-14.187h-5.52l-2.64 4.8 2.76 4.8h5.52l2.52-4.8-2.64-4.8zm0-14.187h-5.52l-2.64 4.8 2.76 4.8h5.52l2.52-4.8-2.64-4.8zm-11.24 106.404h-5.52l-2.64 4.8 2.76 4.8h5.52l2.52-4.8-2.64-4.8zm0-14.19h-5.52l-2.64 4.8 2.76 4.8h5.52l2.52-4.8-2.64-4.8zm0-14.19h-5.52l-2.64 4.8 2.76 4.8h5.52l2.52-4.8-2.64-4.8zm0-14.183h-5.52l-2.64 4.8 2.76 4.8h5.52l2.52-4.8-2.64-4.8zm0-14.187h-5.52l-2.64 4.8 2.76 4.8h5.52l2.52-4.8-2.64-4.8zm0-14.187h-5.52l-2.64 4.8 2.76 4.8h5.52l2.52-4.8-2.64-4.8zm0-14.187h-5.52l-2.64 4.8 2.76 4.8h5.52l2.52-4.8-2.64-4.8zm0-14.187h-5.52l-2.64 4.8 2.76 4.8h5.52l2.52-4.8-2.64-4.8zm0-14.187h-5.52l-2.64 4.8 2.76 4.8h5.52l2.52-4.8-2.64-4.8zm-11.24 120.588h-5.52l-2.64 4.8 2.76 4.8h5.52l2.52-4.8-2.64-4.8zm0-14.19h-5.52l-2.64 4.8 2.76 4.8h5.52l2.52-4.8-2.64-4.8zm0-14.18h-5.52l-2.64 4.8 2.76 4.8h5.52l2.52-4.8-2.64-4.8zm0-14.19h-5.52l-2.64 4.8 2.76 4.8h5.52l2.52-4.8-2.64-4.8zm0-14.187h-5.52l-2.64 4.8 2.76 4.8h5.52l2.52-4.8-2.64-4.8zm0-14.187h-5.52l-2.64 4.8 2.76 4.8h5.52l2.52-4.8-2.64-4.8zm0-14.186h-5.52l-2.64 4.8 2.76 4.8h5.52l2.52-4.8-2.64-4.8zm0-14.187h-5.52l-2.64 4.8 2.76 4.8h5.52l2.52-4.8-2.64-4.8zm0-14.187h-5.52l-2.64 4.8 2.76 4.8h5.52l2.52-4.8-2.64-4.8zm-11.24 106.404h-5.52l-2.64 4.8 2.76 4.8h5.52l2.52-4.8-2.64-4.8zm0-14.19h-5.52l-2.64 4.8 2.76 4.8h5.52l2.52-4.8-2.64-4.8zm0-14.19h-5.52l-2.64 4.8 2.76 4.8h5.52l2.52-4.8-2.64-4.8zm0-14.183h-5.52l-2.64 4.8 2.76 4.8h5.52l2.52-4.8-2.64-4.8zm0-14.187h-5.52l-2.64 4.8 2.76 4.8h5.52l2.52-4.8-2.64-4.8zm0-14.187h-5.52l-2.64 4.8 2.76 4.8h5.52l2.52-4.8-2.64-4.8zm0-14.187h-5.52l-2.64 4.8 2.76 4.8h5.52l2.52-4.8-2.64-4.8zm0-14.187h-5.52l-2.64 4.8 2.76 4.8h5.52l2.52-4.8-2.64-4.8zm0-14.187h-5.52l-2.64 4.8 2.76 4.8h5.52l2.52-4.8-2.64-4.8z"/></g></g></symbol></svg>