<svg xmlns="http://www.w3.org/2000/svg" xmlns:xlink="http://www.w3.org/1999/xlink" viewBox="0 0 2043 190" fill="#fff" fill-rule="evenodd" stroke="#000" stroke-linecap="round" stroke-linejoin="round" font-family="Roboto" font-size="14" text-anchor="middle"><style><![CDATA[.B{fill:#000}.C{stroke:none}.D{stroke-width:.36}.E{stroke-linejoin:miter}.F{stroke:#bfbfbf}.G{fill:#333}.H{fill:#856427}.I{stroke:#6d634e}.J{stroke-width:.399}.K{fill:url(#E)}.L{stroke:#404040}.M{fill:#d1d3d0}.N{fill:url(#F)}.O{fill:url(#H)}.P{stroke-width:1.996}.Q{stroke-width:.416}.R{fill:#262626}.S{stroke-width:1.249}]]></style><use xlink:href="#f" x=".5" y=".5"/><defs><radialGradient id="A" r="100%" fx="50%" fy="50%" cx="50%" cy="50%"><stop offset="0%" stop-color="gray"/><stop offset="71%" stop-color="#262626"/></radialGradient><linearGradient id="B" x1="100%" y1="50%" x2="0%" y2="50%"><stop offset="0%" stop-color="#f2f2f2"/><stop offset="100%" stop-color="#bfbfbf"/></linearGradient><linearGradient id="C" x1="100%" y1="50%" x2="0%" y2="50%"><stop offset="0%" stop-color="#a6a6a6"/><stop offset="100%" stop-color="#f2f2f2"/></linearGradient><linearGradient id="D" x1="50%" y1="0%" x2="50%" y2="100%"><stop offset="0%" stop-color="#f2f2f2"/><stop offset="100%" stop-color="#d1d3d0"/></linearGradient><linearGradient id="E" x1="0%" y1="50%" x2="100%" y2="50%"><stop offset="0%" stop-color="#6d634e"/><stop offset="100%" stop-color="#ada38d"/></linearGradient><linearGradient id="F" x1="100%" y1="50%" x2="0%" y2="50%"><stop offset="0%" stop-color="#6d634e"/><stop offset="100%" stop-color="#ada38d"/></linearGradient><linearGradient id="G" x1="0%" y1="50%" x2="100%" y2="50%"><stop offset="0%" stop-color="#ada38d"/><stop offset="1%" stop-color="#ada38d"/><stop offset="50%" stop-color="#6d634e"/><stop offset="100%" stop-color="#ada38d"/></linearGradient><linearGradient id="H" x1="50%" y1="0%" x2="50%" y2="100%"><stop offset="0%" stop-color="gray"/><stop offset="1%" stop-color="gray"/><stop offset="50%" stop-color="#a6a6a6"/><stop offset="100%" stop-color="gray"/></linearGradient><path id="I" d="M61.043 46.031c0-3.653-2.961-6.615-6.615-6.615s-6.615 2.961-6.615 6.615 2.962 6.615 6.615 6.615 6.615-2.962 6.615-6.615z"/><path id="J" d="M144.127 40.229v8.4h10.8v34.8h-60v-34.8h11.16v-8.4h6.36v-7.68h25.2v7.68h6.48z"/><path id="K" d="M144.127 141.806v-8.4h10.8v-34.8h-60v34.8h11.16v8.4h6.36v7.68h25.2v-7.68h6.48z"/><path id="L" d="M146.955 37.641h7.92l-3.96 7.44-3.96-7.44zm-52.028 7.441h7.92l-3.96-7.44-3.96 7.44z"/><path id="M" d="M142.055 98.876h3.6v7.2h-3.6zm-5.5.158h3.5v7.042h-3.5zm-5.5 0h3.5v7.042h-3.5zm-5.51 0h3.5v7.042h-3.5zm-11 0h3.5v7.042h-3.5zm5.5 0h3.5v7.042h-3.5zm-11 0h3.5v7.042h-3.5zm-5.5 0h3.5v7.042h-3.5zm38.51-15.872h3.6v-7.2h-3.6zm-5.5-.158h3.5v-7.042h-3.5zm-5.5 0h3.5v-7.042h-3.5zm-5.51 0h3.5v-7.042h-3.5zm-11 0h3.5v-7.042h-3.5zm5.5 0h3.5v-7.042h-3.5zm-11 0h3.5v-7.042h-3.5zm-5.5 0h3.5v-7.042h-3.5z"/><path id="N" d="M26.536 12.247h-6.114c-1.171-.257-1.951-1.509-1.821-2.796.26-.94.911-1.675 1.821-1.864h6.114c1.301.257 2.081 1.509 1.821 2.796-.13.94-.91 1.675-1.821 1.864zm12.097 0H32.52c-1.301-.257-2.081-1.509-1.821-2.796.13-.94.91-1.675 1.821-1.864h6.114c1.171.257 2.081 1.509 1.821 2.796-.26.94-.911 1.675-1.821 1.864zm12.098 0h-6.244c-1.171-.257-1.951-1.509-1.691-2.796.13-.94.78-1.675 1.691-1.864h6.244c1.171.257 1.951 1.509 1.691 2.796-.13.94-.78 1.675-1.691 1.864zm11.967 0h-6.114c-1.301-.257-2.081-1.509-1.821-2.796.26-.94.91-1.675 1.821-1.864h6.114c1.301.257 2.081 1.509 1.821 2.796-.13.94-.911 1.675-1.821 1.864zM26.536 4.66h-6.114c-1.171-.257-1.951-1.509-1.821-2.796.26-.94.911-1.675 1.821-1.864h6.114c1.301.257 2.081 1.509 1.821 2.796-.13.94-.91 1.675-1.821 1.864zm12.097 0H32.52c-1.301-.257-2.081-1.509-1.821-2.796.13-.94.91-1.675 1.821-1.864h6.114c1.171.257 2.081 1.509 1.821 2.796-.26.94-.911 1.675-1.821 1.864zm12.098 0h-6.244c-1.171-.257-1.951-1.509-1.691-2.796.13-.94.78-1.675 1.691-1.864h6.244c1.171.257 1.951 1.509 1.691 2.796-.13.94-.78 1.675-1.691 1.864zm11.967 0h-6.114c-1.301-.257-2.081-1.509-1.821-2.796.26-.94.91-1.675 1.821-1.864h6.114C64 .257 64.78 1.509 64.52 2.796c-.13.94-.911 1.675-1.821 1.864zM12.358.979H0l6.244 10.729L12.358.979zm70.763 10.729H70.894L77.008.979l6.114 10.729z"/><path id="O" d="M1843.914 53.927c.39 0 .651-.26.651-.611v-9.555c0-.338-.26-.611-.651-.611s-.65.26-.65.611v9.555c0 .338.26.611.65.611zm-95.089 0c.26 0 .52-.26.52-.611v-9.555c0-.338-.26-.611-.52-.611-.39 0-.65.26-.65.611v9.555c0 .338.26.611.65.611zm63.739-28.188c0 .403.39.732.781.732h10.666c.39 0 .78-.328.78-.732s-.39-.731-.78-.731h-10.666c-.391 0-.781.325-.781.731zm-44.617 0c0 .403.26.732.78.732h10.666c.39 0 .781-.328.781-.732s-.39-.731-.781-.731h-10.666c-.521 0-.78.325-.78.731zm-19.122 110.733c.26 0 .52-.26.52-.611v-9.559c0-.338-.26-.611-.52-.611-.39 0-.65.26-.65.611v9.559c0 .338.26.611.65.611zm95.089 0c.39 0 .651-.26.651-.611v-9.559c0-.338-.26-.611-.651-.611s-.65.26-.65.611v9.559c0 .338.26.611.65.611zm-31.349-28.194c0 .403.39.731.781.731h10.666c.39 0 .78-.325.78-.731s-.39-.732-.78-.732h-10.666c-.391 0-.781.328-.781.732zm-44.617 0c0 .403.26.731.78.731h10.666c.39 0 .781-.325.781-.731s-.39-.732-.781-.732h-10.666c-.521 0-.78.328-.78.732z"/><path id="P" d="M1750.647 63.837v2.321c0 1.379 1.041 2.497 2.472 2.497h86.763a2.53 2.53 0 0 0 2.472-2.497v-2.321a2.53 2.53 0 0 0-2.472-2.497h-86.763c-1.431 0-2.472 1.118-2.472 2.497zm0 82.545v2.315c0 1.379 1.041 2.497 2.472 2.497h86.763a2.53 2.53 0 0 0 2.472-2.497v-2.315a2.53 2.53 0 0 0-2.472-2.497h-86.763c-1.431 0-2.472 1.118-2.472 2.497z"/><path id="Q" d="M1752.078 55.975c1.301 0 2.472-1.092 2.472-2.438v-8.778c0-1.346-1.171-2.438-2.472-2.438s-2.472 1.092-2.472 2.438v8.778c0 1.347 1.171 2.438 2.472 2.438zm1.951 10.729c.781 0 1.431-.655 1.431-1.463v-2.438c0-.806-.65-1.463-1.431-1.463s-1.431.655-1.431 1.463v2.438c0 .806.65 1.463 1.431 1.463zm84.942 0c.78 0 1.431-.655 1.431-1.463v-2.438c0-.806-.651-1.463-1.431-1.463-.91 0-1.561.655-1.561 1.463v2.438c0 .806.651 1.463 1.561 1.463zm1.431-10.729c1.301 0 2.472-1.092 2.472-2.438v-8.778c0-1.346-1.171-2.438-2.472-2.438-1.431 0-2.472 1.092-2.472 2.438v8.778c0 1.347 1.041 2.438 2.472 2.438zm-32.26-26.822c0 1.347 1.171 2.438 2.472 2.438h8.845c1.301 0 2.342-1.092 2.342-2.438s-1.041-2.438-2.342-2.438h-8.845c-1.301 0-2.472 1.092-2.472 2.438zm-37.073 0c0 1.347 1.17 2.438 2.471 2.438h8.846c1.301 0 2.341-1.092 2.341-2.438s-1.041-2.438-2.341-2.438h-8.846c-1.301 0-2.471 1.092-2.471 2.438zm-18.992 109.361c1.301 0 2.472-1.092 2.472-2.432v-8.778c0-1.353-1.171-2.445-2.472-2.445s-2.472 1.092-2.472 2.445v8.778c0 1.339 1.171 2.432 2.472 2.432zm1.951 10.729a1.45 1.45 0 0 0 1.431-1.457v-2.445a1.45 1.45 0 0 0-1.431-1.457 1.45 1.45 0 0 0-1.431 1.457v2.445a1.45 1.45 0 0 0 1.431 1.457zm84.942 0a1.45 1.45 0 0 0 1.431-1.457v-2.445a1.45 1.45 0 0 0-1.431-1.457c-.91 0-1.561.65-1.561 1.457v2.445c0 .806.651 1.457 1.561 1.457zm1.431-10.729c1.301 0 2.472-1.092 2.472-2.432v-8.778c0-1.353-1.171-2.445-2.472-2.445-1.431 0-2.472 1.092-2.472 2.445v8.778c0 1.339 1.041 2.432 2.472 2.432zm-32.26-26.821c0 1.346 1.171 2.438 2.472 2.438h8.845c1.301 0 2.342-1.092 2.342-2.438s-1.041-2.438-2.342-2.438h-8.845c-1.301 0-2.472 1.092-2.472 2.438zm-37.073 0c0 1.346 1.17 2.438 2.471 2.438h8.846c1.301 0 2.341-1.092 2.341-2.438s-1.041-2.438-2.341-2.438h-8.846c-1.301 0-2.471 1.092-2.471 2.438z"/><path id="R" d="M1751.037 67.071c.65 0 1.171-.546 1.171-1.219v-8.323c0-.674-.52-1.219-1.171-1.219s-1.301.546-1.301 1.219v8.323c0 .674.65 1.219 1.301 1.219zm0-13.144c.65 0 1.171-.546 1.171-1.22v-8.348c0-.674-.52-1.22-1.171-1.22s-1.301.546-1.301 1.22v8.336c0 .674.65 1.22 1.301 1.22zm0-13.144c.65 0 1.171-.546 1.171-1.219v-8.323c0-.674-.52-1.22-1.171-1.22s-1.301.546-1.301 1.22v8.323c0 .674.65 1.219 1.301 1.219zm90.536 26.288c.65 0 1.301-.546 1.301-1.219v-8.323c0-.674-.651-1.219-1.301-1.219s-1.171.546-1.171 1.219v8.323c0 .674.52 1.219 1.171 1.219zm0-13.144c.65 0 1.301-.546 1.301-1.22v-8.348c0-.674-.651-1.22-1.301-1.22s-1.171.546-1.171 1.22v8.336c0 .674.52 1.22 1.171 1.22zm0-13.144c.65 0 1.301-.546 1.301-1.219v-8.323c0-.674-.651-1.22-1.301-1.22s-1.171.546-1.171 1.22v8.323c0 .674.52 1.219 1.171 1.219zm-88.454-12.606c0 .806.65 1.463 1.431 1.463h9.236c.78 0 1.431-.655 1.431-1.463s-.65-1.463-1.431-1.463h-9.236c-.78 0-1.431.655-1.431 1.463zm14.829 0c0 .806.65 1.463 1.431 1.463h9.236c.911 0 1.561-.655 1.561-1.463s-.65-1.463-1.561-1.463h-9.236c-.78 0-1.431.655-1.431 1.463zm14.829 0c0 .806.65 1.463 1.561 1.463h9.236c.78 0 1.431-.655 1.431-1.463s-.65-1.463-1.431-1.463h-9.236c-.911 0-1.561.655-1.561 1.463zm14.959 0c0 .806.65 1.463 1.431 1.463h9.236c.78 0 1.431-.655 1.431-1.463s-.65-1.463-1.431-1.463h-9.236c-.78 0-1.431.655-1.431 1.463zm14.829 0c0 .806.65 1.463 1.431 1.463h9.366c.78 0 1.431-.655 1.431-1.463s-.65-1.463-1.431-1.463h-9.366c-.781 0-1.431.655-1.431 1.463zm14.829 0c0 .806.65 1.463 1.561 1.463h9.235c.78 0 1.431-.655 1.431-1.463s-.651-1.463-1.431-1.463h-9.235c-.911 0-1.561.655-1.561 1.463zm-74.276 40.477c0 .806.65 1.463 1.431 1.463h9.236c.78 0 1.431-.655 1.431-1.463s-.65-1.463-1.431-1.463h-9.236c-.78 0-1.431.655-1.431 1.463zm14.829 0c0 .806.65 1.463 1.431 1.463h9.236c.911 0 1.561-.655 1.561-1.463s-.65-1.463-1.561-1.463h-9.236c-.78 0-1.431.655-1.431 1.463zm14.829 0c0 .806.65 1.463 1.561 1.463h9.236c.78 0 1.431-.655 1.431-1.463s-.65-1.463-1.431-1.463h-9.236c-.911 0-1.561.655-1.561 1.463zm14.959 0c0 .806.65 1.463 1.431 1.463h9.236c.78 0 1.431-.655 1.431-1.463s-.65-1.463-1.431-1.463h-9.236c-.78 0-1.431.655-1.431 1.463zm14.829 0c0 .806.65 1.463 1.431 1.463h9.366c.78 0 1.431-.655 1.431-1.463s-.65-1.463-1.431-1.463h-9.366c-.781 0-1.431.655-1.431 1.463zm14.829 0c0 .806.65 1.463 1.561 1.463h9.235c.78 0 1.431-.655 1.431-1.463s-.651-1.463-1.431-1.463h-9.235c-.911 0-1.561.655-1.561 1.463zm-76.357 80.952c.65 0 1.171-.546 1.171-1.209v-8.323c0-.676-.52-1.222-1.171-1.222s-1.301.546-1.301 1.222v8.323c0 .65.65 1.209 1.301 1.209zm0-13.135c.65 0 1.171-.546 1.171-1.222v-8.323c0-.676-.52-1.222-1.171-1.222s-1.301.546-1.301 1.222v8.323c0 .676.65 1.222 1.301 1.222zm0-13.148c.65 0 1.171-.549 1.171-1.222v-8.323c0-.674-.52-1.22-1.171-1.22s-1.301.546-1.301 1.22v8.323c0 .672.65 1.222 1.301 1.222zm90.536 26.283c.65 0 1.301-.546 1.301-1.209v-8.323c0-.676-.651-1.222-1.301-1.222s-1.171.546-1.171 1.222v8.323c0 .65.52 1.209 1.171 1.209zm0-13.135c.65 0 1.301-.546 1.301-1.222v-8.323c0-.676-.651-1.222-1.301-1.222s-1.171.546-1.171 1.222v8.323c0 .676.52 1.222 1.171 1.222zm0-13.148c.65 0 1.301-.549 1.301-1.222v-8.323c0-.674-.651-1.22-1.301-1.22s-1.171.546-1.171 1.22v8.323c0 .672.52 1.222 1.171 1.222zm-88.454-12.607c0 .806.65 1.463 1.431 1.463h9.236c.78 0 1.431-.655 1.431-1.463s-.65-1.463-1.431-1.463h-9.236c-.78 0-1.431.655-1.431 1.463zm14.829 0c0 .806.65 1.463 1.431 1.463h9.236c.911 0 1.561-.655 1.561-1.463s-.65-1.463-1.561-1.463h-9.236c-.78 0-1.431.655-1.431 1.463zm14.829 0c0 .806.65 1.463 1.561 1.463h9.236c.78 0 1.431-.655 1.431-1.463s-.65-1.463-1.431-1.463h-9.236c-.911 0-1.561.655-1.561 1.463zm14.959 0c0 .806.65 1.463 1.431 1.463h9.236c.78 0 1.431-.655 1.431-1.463s-.65-1.463-1.431-1.463h-9.236c-.78 0-1.431.655-1.431 1.463zm14.829 0c0 .806.65 1.463 1.431 1.463h9.366c.78 0 1.431-.655 1.431-1.463s-.65-1.463-1.431-1.463h-9.366c-.781 0-1.431.655-1.431 1.463zm14.829 0c0 .806.65 1.463 1.561 1.463h9.235c.78 0 1.431-.655 1.431-1.463s-.651-1.463-1.431-1.463h-9.235c-.911 0-1.561.655-1.561 1.463zm-74.276 40.476c0 .806.65 1.47 1.431 1.47h9.236c.78 0 1.431-.65 1.431-1.47a1.44 1.44 0 0 0-1.431-1.457h-9.236a1.45 1.45 0 0 0-1.431 1.457zm14.829 0c0 .806.65 1.47 1.431 1.47h9.236c.911 0 1.561-.65 1.561-1.47s-.65-1.457-1.561-1.457h-9.236a1.45 1.45 0 0 0-1.431 1.457zm14.829 0c0 .806.65 1.47 1.561 1.47h9.236c.78 0 1.431-.65 1.431-1.47a1.44 1.44 0 0 0-1.431-1.457h-9.236c-.911 0-1.561.65-1.561 1.457zm14.959 0c0 .806.65 1.47 1.431 1.47h9.236c.78 0 1.431-.65 1.431-1.47a1.44 1.44 0 0 0-1.431-1.457h-9.236a1.45 1.45 0 0 0-1.431 1.457zm14.829 0c0 .806.65 1.47 1.431 1.47h9.366c.78 0 1.431-.65 1.431-1.47a1.44 1.44 0 0 0-1.431-1.457h-9.366a1.45 1.45 0 0 0-1.431 1.457zm14.829 0c0 .806.65 1.47 1.561 1.47h9.235c.78 0 1.431-.65 1.431-1.47s-.651-1.457-1.431-1.457h-9.235c-.911 0-1.561.65-1.561 1.457z"/><path id="S" d="M1975.534 48.849c0-.696-.622-1.261-1.369-1.261a1.3 1.3 0 0 0-1.245 1.261v6.129a1.3 1.3 0 0 0 1.245 1.264c.747 0 1.369-.565 1.369-1.264v-6.129z"/><path id="T" d="M2003.665 48.849a1.3 1.3 0 0 0-1.245-1.261c-.747 0-1.369.565-1.369 1.261v6.129c0 .7.622 1.264 1.369 1.264a1.3 1.3 0 0 0 1.245-1.264v-6.129z"/><path id="U" d="M109.513 8.964v8.543h-1.693V10.98l-2.021.627V10.23l3.533-1.266h.182z"/><path id="V" d="M145.633 16.142v1.365h-5.848v-1.16l2.76-2.941q.568-.621.841-1.084.272-.463.272-.879 0-.568-.287-.894-.287-.325-.82-.325-.574 0-.905.396-.331.396-.331 1.04h-1.699q0-.779.372-1.424.372-.645 1.052-1.011.68-.366 1.541-.366 1.318 0 2.048.633.729.633.729 1.787 0 .633-.328 1.289-.328.656-1.125 1.529l-1.939 2.045h3.668z"/><path id="W" d="M172.248 13.816v-1.324h.902q.645 0 .955-.322.311-.322.311-.855 0-.516-.308-.803-.308-.287-.847-.287-.486 0-.814.267-.328.267-.328.694h-1.693q0-.668.36-1.198.36-.53 1.008-.829.647-.299 1.427-.299 1.354 0 2.121.647.768.647.768 1.784 0 .586-.357 1.078-.357.492-.937.756.721.258 1.075.773.354.516.354 1.219 0 1.137-.829 1.822-.829.686-2.194.686-1.277 0-2.089-.674-.812-.674-.812-1.781h1.693q0 .48.36.785.36.305.888.305.604 0 .946-.319.343-.319.343-.847 0-1.277-1.406-1.277h-.896z"/><path id="X" d="M209.92 8.976v5.32h.967v1.365h-.967v1.846h-1.693v-1.846h-3.498l-.076-1.066 3.557-5.619h1.711zm-1.805 2.502l-1.775 2.818h1.887v-3.012l-.111.193z"/><path id="Y" d="M237.249 13.646l-1.348-.334.492-4.336h4.781v1.412h-3.393l-.211 1.834q.604-.322 1.283-.322 1.219 0 1.91.756.691.756.691 2.115 0 .826-.349 1.479-.349.653-.999 1.014-.65.36-1.535.36-.773 0-1.436-.313-.662-.313-1.046-.882-.384-.568-.407-1.295h1.676q.053.533.372.829.319.296.835.296.574 0 .885-.413.311-.413.311-1.169 0-.727-.357-1.113-.357-.387-1.014-.387-.604 0-.979.316l-.164.152z"/><path id="Z" d="M274.348 8.888h.281v1.395h-.164q-1.148.018-1.849.598-.7.58-.841 1.611.68-.691 1.717-.691 1.113 0 1.77.797.656.797.656 2.098 0 .832-.36 1.506-.36.674-1.02 1.049-.659.375-1.491.375-1.348 0-2.177-.937-.829-.937-.829-2.502v-.609q0-1.389.524-2.452.524-1.063 1.506-1.646.981-.583 2.276-.589zm-1.371 4.271q-.41 0-.744.214-.334.214-.492.565v.516q0 .85.334 1.327.334.478.938.478.545 0 .882-.431.337-.431.337-1.116 0-.697-.34-1.125-.34-.428-.914-.428z"/><path id="a" d="M306.575 8.976v.949l-3.299 7.582h-1.787l3.305-7.16h-4.242V8.976h6.023z"/><path id="b" d="M340.72 11.244q0 .621-.311 1.102-.311.48-.855.768.621.299.984.823.363.524.363 1.233 0 1.137-.773 1.796-.773.659-2.104.659-1.33 0-2.109-.662-.779-.662-.779-1.793 0-.709.363-1.236.363-.527.979-.82-.545-.287-.853-.768-.308-.48-.308-1.102 0-1.09.727-1.737.727-.647 1.975-.647 1.242 0 1.972.642.729.642.729 1.743zm-1.518 3.803q0-.557-.322-.891-.322-.334-.867-.334-.539 0-.861.331-.322.331-.322.894 0 .545.316.879.316.334.879.334.551 0 .864-.322.313-.322.313-.891zm-.176-3.721q0-.498-.264-.8-.264-.302-.744-.302-.475 0-.738.293-.264.293-.264.809 0 .51.264.82.264.311.744.311.48 0 .741-.311.261-.311.261-.82z"/><path id="c" d="M369.861 14.097q-.662.65-1.547.65-1.131 0-1.811-.776-.68-.776-.68-2.095 0-.838.366-1.538.366-.7 1.022-1.09.656-.39 1.477-.39.844 0 1.5.422.656.422 1.02 1.213.363.791.369 1.811v.627q0 2.133-1.061 3.352-1.061 1.219-3.006 1.301l-.416.006v-1.412l.375-.006q2.209-.1 2.391-2.074zm-1.131-.645q.41 0 .706-.211.296-.211.448-.51v-.697q0-.861-.328-1.336-.328-.475-.879-.475-.51 0-.838.466-.328.466-.328 1.169 0 .697.319 1.146.319.448.899.448z"/><path id="d" d="M412.912 12.41v1.57q0 1.77-.732 2.707-.732.938-2.145.938-1.395 0-2.133-.92-.738-.92-.756-2.637v-1.57q0-1.787.741-2.713.741-.926 2.136-.926 1.395 0 2.133.917.738.917.756 2.634zm-1.693 1.875v-2.027q0-1.061-.29-1.544-.29-.483-.905-.483-.598 0-.882.46-.284.46-.302 1.438v2.074q0 1.043.284 1.55.284.507.911.507.621 0 .896-.486.275-.486.287-1.488z"/><path id="e" d="M1815.385 13.646l-1.348-.334.492-4.336h4.781v1.412h-3.392l-.211 1.834q.603-.322 1.283-.322 1.219 0 1.91.756.691.756.691 2.115 0 .826-.349 1.479-.349.653-.999 1.014-.65.36-1.535.36-.774 0-1.436-.313-.662-.313-1.046-.882-.384-.568-.407-1.295h1.676q.053.533.372.829.319.296.835.296.574 0 .885-.413.311-.413.311-1.169 0-.727-.357-1.113-.357-.387-1.014-.387-.604 0-.979.316l-.164.152z"/></defs><symbol id="f" overflow="visible"><g class="D"><path d="M16.2 187.316h2010c8.4 0 15-6.72 15-15v-157.2c0-8.4-6.72-15-15-15H16.2c-8.4 0-15 6.72-15 15v157.2a15.01 15.01 0 0 0 15 15z" fill="#c1c5cb" class="E"/><g class="B"><path d="M20.156 182.896h-14.4v-16.44h14.4v16.44zm1929.869-16.88h86.4V4.736h-86.4v161.28z"/><path d="M2021.225 179.616h14.4v-16.44h-14.4v16.44z"/></g><path d="M1955.625 87.27h77.76V6.63h-77.76v80.64z" stroke="#8c8c8c" class="M"/></g><g class="E"><g stroke="gray" fill="url(#A)" class="J"><use xlink:href="#I"/><use xlink:href="#I" y="27.124"/></g><path d="M2033.425 179.636h-6.6l.72 8.88h13.68V.116h-91.2v5.28h82.8l2.04 171.84c.12 1.2-.48 2.4-1.44 2.4z" class="D M"/></g><g stroke="gray"><g class="J"><path d="M1955.625 163.206h33.691V85.532h-33.691v77.674z" fill="url(#B)"/><path d="M1989.425 163.266h44.92V85.592h-44.92v77.674z" fill="url(#C)"/></g><g class="D"><path d="M86.04 165.356h-73.2v17.76h-1.8c-2.64 0-4.8-2.04-4.8-4.8v-161.4c0-4.08 3.36-7.44 7.56-7.44l69.12.24v14.04h1867.2V.236H12.24C4.8.836.24 5.876 0 11.876v166.32c.24 5.52 4.56 9.96 10.08 10.44l2017.44-.12v-18.48c0-3.12-2.88-5.64-6.48-5.64h-72.24v-5.16H86.04v6z" class="E M"/><path d="M82.969 0h1867.2v23.52H82.969V9.48" fill="url(#D)"/></g></g><path d="M85.312 163.202h89.063v24.854H85.312z" fill="#00b050" class="C"/><g class="I J"><path d="M2033.725 87.787h-61.765v77.283h61.765V87.787z" class="K"/><path d="M1958.725 87.787h14.973v77.283h-14.973V87.787z" class="N"/></g><g class="D"><path d="M1658.725 188.516h375v-23.28h-375v23.28z" fill="#ada38d" class="I"/><path d="M1913.725 188.516h120v-23.28h-120" fill="url(#G)" class="I"/><path d="M1673.725 165.206h-15v23.28h15" class="I K"/></g><g class="J"><path d="M2041.225 100.246h-37.433v52.407h37.433v-52.407z" class="I K"/><path d="M7.5 87.787h61.765v77.283H7.5V87.787z" class="I N"/><path d="M82.5 87.787H67.527v77.283H82.5V87.787z" class="I K"/></g><g class="D"><path d="M382.505 188.516h-375v-23.28h375v23.28z" fill="#ada38d" class="I"/><path d="M127.495 188.516h-120v-23.28h120" fill="url(#G)" class="I"/><path d="M367.505 165.206h15v23.28h-15" class="I N"/></g><path d="M0 100.246h37.433v52.407H0v-52.407z" class="I J K"/><g class="C"><path d="M1749.325 4.845h196.8v16.8h-196.8z" fill="#ff9"/><path d="M593.215 8.72h-10.56l5.28 9.84 5.28-9.84zm-23.5 9.675h10.56l-5.28-9.84-5.28 9.84zm-41.65-9.675h-10.56l5.28 9.84 5.28-9.84zm-23.5 9.675h10.56l-5.28-9.84-5.28 9.84zm-41.66-9.675h-10.56l5.28 9.84 5.28-9.84zm-23.49 9.675h10.56l-5.28-9.84-5.28 9.84zm-41.66-9.675h-10.56l5.28 9.84 5.28-9.84zm-23.5 9.675h10.56l-5.28-9.84-5.28 9.84zm-41.66-9.675h-10.56l5.28 9.84 5.28-9.84zm-23.49 9.675h10.56l-5.28-9.84-5.28 9.84zm-41.66-9.675h-10.56l5.28 9.84 5.28-9.84zm-23.49 9.675h10.56l-5.28-9.84-5.28 9.84zm-41.66-9.675h-10.56l5.28 9.84 5.28-9.84zm-23.5 9.675h10.56l-5.28-9.84-5.28 9.84zm-41.66-9.675h-10.56l5.28 9.84 5.28-9.84zm-23.49 9.675h10.56l-5.28-9.84-5.28 9.84z" class="B"/></g><path d="M86.25 151.016h535.292V31.23H86.25v119.786z" class="L O P"/><g class="D E F G"><use xlink:href="#J"/><use xlink:href="#K"/></g><g class="C"><use xlink:href="#L" class="B"/><use xlink:href="#M" class="H"/></g><g class="D E F G"><use xlink:href="#J" x="65.408"/><use xlink:href="#K" x="65.408"/></g><g class="C"><use xlink:href="#L" x="65.408" class="B"/><use xlink:href="#M" x="65.408" class="H"/></g><g class="D E F G"><use xlink:href="#J" x="130.808"/><use xlink:href="#K" x="130.808"/></g><g class="C"><use xlink:href="#L" x="130.808" class="B"/><use xlink:href="#M" x="130.808" class="H"/></g><g class="D E F G"><use xlink:href="#J" x="196.208"/><use xlink:href="#K" x="196.208"/></g><g class="C"><use xlink:href="#L" x="196.208" class="B"/><use xlink:href="#M" x="196.208" class="H"/></g><g class="D E F G"><use xlink:href="#J" x="261.616"/><use xlink:href="#K" x="261.616"/></g><g class="C"><use xlink:href="#L" x="261.616" class="B"/><use xlink:href="#M" x="261.616" class="H"/></g><g class="D E F G"><use xlink:href="#J" x="327.016"/><use xlink:href="#K" x="327.016"/></g><g class="C"><use xlink:href="#L" x="327.016" class="B"/><use xlink:href="#M" x="327.016" class="H"/></g><g class="D E F G"><use xlink:href="#J" x="392.478"/><use xlink:href="#K" x="392.478"/></g><g class="C"><use xlink:href="#L" x="392.478" class="B"/><use xlink:href="#M" x="392.478" class="H"/></g><g class="D E F G"><use xlink:href="#J" x="457.888"/><use xlink:href="#K" x="457.888"/></g><g class="C"><use xlink:href="#L" x="457.888" class="B"/><use xlink:href="#M" x="457.888" class="H"/><path d="M1146.65 8.72h-10.56l5.28 9.84 5.28-9.84zm-23.5 9.675h10.56l-5.28-9.84-5.28 9.84zM1081.5 8.72h-10.56l5.28 9.84 5.28-9.84zm-23.5 9.675h10.56l-5.28-9.84-5.28 9.84zm-41.66-9.675h-10.56l5.28 9.84 5.28-9.84zm-23.49 9.675h10.56l-5.28-9.84-5.28 9.84zM951.19 8.72h-10.56l5.28 9.84 5.28-9.84zm-23.5 9.675h10.56l-5.28-9.84-5.28 9.84zM886.03 8.72h-10.56l5.28 9.84 5.28-9.84zm-23.49 9.675h10.56l-5.28-9.84-5.28 9.84zM820.88 8.72h-10.56l5.28 9.84 5.28-9.84zm-23.49 9.675h10.56l-5.28-9.84-5.28 9.84zM755.73 8.72h-10.56l5.28 9.84 5.28-9.84zm-23.5 9.675h10.56l-5.28-9.84-5.28 9.84zM690.57 8.72h-10.56l5.28 9.84 5.28-9.84zm-23.49 9.675h10.56l-5.28-9.84-5.28 9.84z" class="B"/></g><path d="M639.685 151.016h535.292V31.23H639.685v119.786z" class="L O P"/><g class="D E F G"><use xlink:href="#J" x="553.435"/><use xlink:href="#K" x="553.435"/></g><g class="C"><use xlink:href="#L" x="553.435" class="B"/><use xlink:href="#M" x="553.435" class="H"/></g><g class="D E F G"><use xlink:href="#J" x="618.843"/><use xlink:href="#K" x="618.843"/></g><g class="C"><use xlink:href="#L" x="618.843" class="B"/><use xlink:href="#M" x="618.843" class="H"/></g><g class="D E F G"><use xlink:href="#J" x="684.243"/><use xlink:href="#K" x="684.243"/></g><g class="C"><use xlink:href="#L" x="684.243" class="B"/><use xlink:href="#M" x="684.243" class="H"/></g><g class="D E F G"><use xlink:href="#J" x="749.643"/><use xlink:href="#K" x="749.643"/></g><g class="C"><use xlink:href="#L" x="749.643" class="B"/><use xlink:href="#M" x="749.643" class="H"/></g><g class="D E F G"><use xlink:href="#J" x="815.051"/><use xlink:href="#K" x="815.051"/></g><g class="C"><use xlink:href="#L" x="815.051" class="B"/><use xlink:href="#M" x="815.051" class="H"/></g><g class="D E F G"><use xlink:href="#J" x="880.451"/><use xlink:href="#K" x="880.451"/></g><g class="C"><use xlink:href="#L" x="880.451" class="B"/><use xlink:href="#M" x="880.451" class="H"/></g><path d="M1090.04 40.229v8.4h10.8v34.8h-60v-34.8H1052v-8.4h6.36v-7.68h25.2v7.68h6.48zm0 101.577v-8.4h10.8v-34.8h-60v34.8H1052v8.4h6.36v7.68h25.2v-7.68h6.48z" class="D E F G"/><g class="C"><use xlink:href="#L" x="945.913" class="B"/><use xlink:href="#M" x="945.913" class="H"/></g><g class="D E F G"><use xlink:href="#J" x="1011.323"/><use xlink:href="#K" x="1011.323"/></g><g class="C"><use xlink:href="#L" x="1011.323" class="B"/><use xlink:href="#M" x="1011.323" class="H"/><path d="M1700.09 8.72h-10.56l5.28 9.84 5.28-9.84zm-23.5 9.675h10.56l-5.28-9.84-5.28 9.84zm-41.65-9.675h-10.56l5.28 9.84 5.28-9.84zm-23.5 9.675H1622l-5.28-9.84-5.28 9.84zm-41.66-9.675h-10.56l5.28 9.84 5.28-9.84zm-23.49 9.675h10.56l-5.28-9.84-5.28 9.84zm-41.66-9.675h-10.56l5.28 9.84 5.28-9.84zm-23.5 9.675h10.56l-5.28-9.84-5.28 9.84zm-41.66-9.675h-10.56l5.28 9.84 5.28-9.84zm-23.49 9.675h10.56l-5.28-9.84-5.28 9.84zm-41.66-9.675h-10.56l5.28 9.84 5.28-9.84zm-23.49 9.675h10.56l-5.28-9.84-5.28 9.84zm-41.66-9.675h-10.56l5.28 9.84 5.28-9.84zm-23.5 9.675h10.56l-5.28-9.84-5.28 9.84zm-41.66-9.675h-10.56l5.28 9.84 5.28-9.84zm-23.49 9.675h10.56l-5.28-9.84-5.28 9.84z" class="B"/></g><path d="M1193.125 151.016h535.292V31.23h-535.292v119.786z" class="L O P"/><g class="D E F G"><use xlink:href="#J" x="1106.875"/><use xlink:href="#K" x="1106.875"/></g><g class="C"><use xlink:href="#L" x="1106.875" class="B"/><use xlink:href="#M" x="1106.875" class="H"/></g><g class="D E F G"><use xlink:href="#J" x="1172.283"/><use xlink:href="#K" x="1172.283"/></g><g class="C"><use xlink:href="#L" x="1172.283" class="B"/><use xlink:href="#M" x="1172.283" class="H"/></g><g class="D E F G"><use xlink:href="#J" x="1237.683"/><use xlink:href="#K" x="1237.683"/></g><g class="C"><use xlink:href="#L" x="1237.683" class="B"/><use xlink:href="#M" x="1237.683" class="H"/></g><g class="D E F G"><use xlink:href="#J" x="1303.083"/><use xlink:href="#K" x="1303.083"/></g><g class="C"><use xlink:href="#L" x="1303.083" class="B"/><use xlink:href="#M" x="1303.083" class="H"/></g><g class="D E F G"><use xlink:href="#J" x="1368.491"/><use xlink:href="#K" x="1368.491"/></g><g class="C"><use xlink:href="#L" x="1368.491" class="B"/><use xlink:href="#M" x="1368.491" class="H"/></g><g class="D E F G"><use xlink:href="#J" x="1433.891"/><use xlink:href="#K" x="1433.891"/></g><g class="C"><use xlink:href="#L" x="1433.891" class="B"/><use xlink:href="#M" x="1433.891" class="H"/></g><g class="D E F G"><use xlink:href="#J" x="1499.353"/><use xlink:href="#K" x="1499.353"/></g><g class="C"><use xlink:href="#L" x="1499.353" class="B"/><use xlink:href="#M" x="1499.353" class="H"/></g><g class="D E F G"><use xlink:href="#J" x="1564.763"/><use xlink:href="#K" x="1564.763"/></g><g class="C"><use xlink:href="#L" x="1564.763" class="B"/><use xlink:href="#M" x="1564.763" class="H"/></g><path d="M1750.127 154.666h92.487c1.431 0 2.471-1.118 2.471-2.497V27.323c0-1.379-1.041-2.497-2.471-2.497h-92.487c-1.431 0-2.602 1.118-2.602 2.497v124.846c0 1.379 1.171 2.497 2.602 2.497z" fill="#595959" class="E L Q"/><path d="M1749.606 28.971v39.138a2.53 2.53 0 0 0 2.472 2.497h88.454c1.431 0 2.472-1.118 2.472-2.497V28.971c0-1.379-1.04-2.497-2.472-2.497h-88.454a2.53 2.53 0 0 0-2.472 2.497zm0 82.54v39.137a2.53 2.53 0 0 0 2.472 2.497h88.454c1.431 0 2.472-1.118 2.472-2.497v-39.137c0-1.379-1.04-2.497-2.472-2.497h-88.454a2.53 2.53 0 0 0-2.472 2.497z" class="R S"/><path d="M1748.045 73.048h96.584v32.304h-96.584z" fill="#d9d9d9" class="C"/><g transform="matrix(-1 0 0 -1 1837.930628 95.325063)"><use xlink:href="#N" class="B C"/></g><g class="Q"><use xlink:href="#O" fill="silver"/><use xlink:href="#P" fill="gray"/><g fill="#866b00"><use xlink:href="#Q"/><use xlink:href="#R"/></g><path d="M1855.127 154.766h92.487c1.431 0 2.471-1.118 2.471-2.497V27.423c0-1.379-1.041-2.497-2.471-2.497h-92.487c-1.431 0-2.602 1.118-2.602 2.497v124.846c0 1.379 1.171 2.497 2.602 2.497z" fill="#595959" class="E L"/></g><path d="M1854.606 29.071v39.138a2.53 2.53 0 0 0 2.472 2.497h88.454c1.431 0 2.472-1.118 2.472-2.497V29.071c0-1.379-1.04-2.497-2.472-2.497h-88.454a2.53 2.53 0 0 0-2.472 2.497zm0 82.54v39.137a2.53 2.53 0 0 0 2.472 2.497h88.454c1.431 0 2.472-1.118 2.472-2.497v-39.137c0-1.379-1.04-2.497-2.472-2.497h-88.454a2.53 2.53 0 0 0-2.472 2.497z" class="R S"/><path d="M1853.045 73.148h96.584v32.304h-96.584z" fill="#d9d9d9" class="C"/><g transform="matrix(-1 0 0 -1 1942.930628 95.425063)"><use xlink:href="#N" class="B C"/></g><g class="Q"><use xlink:href="#O" x="105" y="0.1" fill="silver"/><use xlink:href="#P" x="105" y="0.1" fill="gray"/><g fill="#866b00"><use xlink:href="#Q" x="105" y="0.1"/><use xlink:href="#R" x="105" y="0.1"/></g></g><g class="C"><path d="M1915.925 8.366h-10.8l5.4 10.2 5.4-10.2zm-27.5 9.937h10.8l-5.4-10.2-5.4 10.2zm-78.4-9.585h-10.44l5.16 9.84 5.28-9.84zm-26.5 9.592h10.44l-5.16-9.84-5.28 9.84z" class="R"/><path d="M1982.504 63.175h2.583V73.27h-2.583zm23.401 2.894c-.125-.054-.871-.54-2.116-.54-1.742 0-2.863 1.145-2.863 2.692 0 1.501 1.12 2.696 2.863 2.696 1.245 0 1.992-.475 2.116-.536v2.71c-.249.09-1.12.36-2.365.36-2.863 0-5.352-1.976-5.352-5.229 0-3.015 2.24-5.225 5.352-5.225 1.245 0 2.116.291 2.365.362v2.71zm-26.886 0c-.124-.054-.996-.54-2.241-.54-1.618 0-2.863 1.145-2.863 2.692 0 1.501 1.12 2.696 2.863 2.696 1.245 0 2.116-.475 2.241-.536v2.71c-.373.09-1.245.36-2.365.36-2.987 0-5.477-1.976-5.477-5.229 0-3.015 2.24-5.225 5.477-5.225 1.12 0 2.116.291 2.365.362v2.71zm40.453 2.152c0 2.888-2.241 5.229-5.352 5.229-3.236 0-5.477-2.341-5.477-5.229s2.241-5.225 5.477-5.225c3.112 0 5.352 2.342 5.352 5.225zm-5.352-2.655c-1.618 0-2.738 1.191-2.738 2.655s1.12 2.657 2.738 2.657c1.494 0 2.614-1.188 2.614-2.657s-1.12-2.655-2.614-2.655zm-19.169-.096c-.125-.012-1.12-.307-2.116-.307s-1.494.344-1.494.827c0 .614.747.83 1.12.962l.747.223c1.618.525 2.365 1.657 2.365 2.888 0 2.536-2.241 3.388-4.232 3.388a14.82 14.82 0 0 1-2.739-.276v-2.324c.249.056 1.245.376 2.49.376s1.867-.371 1.867-.943c0-.511-.498-.806-1.245-1.007-.124-.052-.373-.123-.498-.176-1.494-.448-2.614-1.283-2.614-2.953 0-1.888 1.369-3.155 3.734-3.155 1.245 0 2.489.301 2.614.322v2.154z" fill="#c41230"/><g fill="#005568"><path d="M1968.439 52.327a1.3 1.3 0 0 0-1.245-1.261c-.747 0-1.369.565-1.369 1.261v2.651c0 .7.622 1.264 1.369 1.264a1.3 1.3 0 0 0 1.245-1.264v-2.651z"/><use xlink:href="#S"/><path d="M1982.504 44.089c-.015-.677-.559-1.227-1.245-1.259-.747 0-1.369.565-1.369 1.259v13.404c0 .7.622 1.264 1.369 1.264a1.3 1.3 0 0 0 1.245-1.264V44.089z"/><use xlink:href="#S" x="14.065"/><path d="M1996.57 52.327c0-.696-.498-1.261-1.245-1.261s-1.245.565-1.245 1.261v2.651c0 .7.498 1.264 1.245 1.264s1.245-.565 1.245-1.264v-2.651z"/><use xlink:href="#T"/><path d="M2010.636 44.089c0-.696-.498-1.259-1.245-1.259-.686.032-1.23.582-1.245 1.259v13.404a1.3 1.3 0 0 0 1.245 1.264c.747 0 1.245-.565 1.245-1.264V44.089z"/><use xlink:href="#T" x="14.065"/><path d="M2024.825 52.327c0-.696-.622-1.261-1.369-1.261a1.3 1.3 0 0 0-1.245 1.261v2.651a1.3 1.3 0 0 0 1.245 1.264c.747 0 1.369-.565 1.369-1.264v-2.651z"/></g><g class="B"><path d="M20.232 51.201h-3.869v-9.953h3.486q1.812 0 2.748.694.937.694.937 2.034 0 .731-.376 1.289-.376.557-1.046.817.766.191 1.207.772.441.581.441 1.422 0 1.436-.916 2.174-.916.738-2.611.752zm.062-4.334h-1.88v2.687h1.757q.725 0 1.131-.345.407-.345.407-.954 0-1.367-1.415-1.388zm-1.88-3.958v2.509h1.518q1.552-.027 1.552-1.237 0-.677-.393-.974-.393-.297-1.241-.297h-1.436zm12.646 4.976h2.051q-.116 1.606-1.186 2.529-1.07.923-2.82.923-1.914 0-3.011-1.289-1.097-1.289-1.097-3.538v-.608q0-1.436.506-2.529.506-1.094 1.446-1.678.94-.584 2.184-.584 1.723 0 2.775.923 1.053.923 1.217 2.591h-2.051q-.075-.964-.537-1.398-.461-.434-1.405-.434-1.025 0-1.535.735-.509.735-.523 2.28v.752q0 1.613.489 2.358.489.745 1.542.745.95 0 1.418-.434.468-.434.537-1.343zm11.492-6.637v9.953h-2.051l-3.992-6.549v6.549h-2.051v-9.953h2.051l3.999 6.563v-6.562h2.044zM22.675 75.047q0-.581-.41-.892-.41-.311-1.477-.656-1.066-.345-1.688-.68-1.695-.916-1.695-2.468 0-.807.455-1.439.455-.632 1.306-.988.851-.355 1.911-.355 1.066 0 1.9.386.834.386 1.295 1.09.461.704.461 1.6h-2.051q0-.684-.431-1.063-.431-.379-1.21-.379-.752 0-1.169.318-.417.318-.417.837 0 .485.489.813.489.328 1.439.615 1.75.526 2.55 1.306.8.779.8 1.941 0 1.292-.978 2.027-.978.735-2.632.735-1.148 0-2.092-.42-.943-.42-1.439-1.152-.496-.731-.496-1.695h2.058q0 1.647 1.969 1.647.731 0 1.142-.297.41-.297.41-.831zm10.937-7.342v1.661h-3.049v8.292h-2.051v-8.292h-3.008v-1.661h8.107zm6.221 7.342q0-.581-.41-.892-.41-.311-1.477-.656-1.066-.345-1.688-.68-1.695-.916-1.695-2.468 0-.807.455-1.439.455-.632 1.306-.988.851-.355 1.911-.355 1.066 0 1.9.386.834.386 1.295 1.09.461.704.461 1.6H39.84q0-.684-.431-1.063-.431-.379-1.21-.379-.752 0-1.169.318-.417.318-.417.837 0 .485.489.813.489.328 1.439.615 1.75.526 2.55 1.306.8.779.8 1.941 0 1.292-.978 2.027-.978.735-2.632.735-1.148 0-2.092-.42-.943-.42-1.439-1.152-.496-.731-.496-1.695h2.058q0 1.647 1.969 1.647.731 0 1.142-.297.41-.297.41-.831z"/><use xlink:href="#U"/><use xlink:href="#V"/><use xlink:href="#W"/><use xlink:href="#X"/><use xlink:href="#Y"/><use xlink:href="#Z"/><use xlink:href="#a"/><use xlink:href="#b"/><use xlink:href="#c"/><use xlink:href="#U" x="294.885"/><use xlink:href="#d"/><use xlink:href="#U" x="318.741"/><use xlink:href="#U" x="325.626"/><use xlink:href="#U" x="360.01"/><use xlink:href="#V" x="332.509"/><use xlink:href="#U" x="383.866"/><use xlink:href="#W" x="325.625"/><use xlink:href="#U" x="425.135"/><use xlink:href="#X" x="332.51"/><use xlink:href="#U" x="448.991"/><use xlink:href="#Y" x="325.625"/><use xlink:href="#U" x="490.26"/><use xlink:href="#Z" x="332.509"/><use xlink:href="#U" x="546.616"/><use xlink:href="#a" x="358.126"/><use xlink:href="#U" x="587.885"/><use xlink:href="#b" x="365.01"/><use xlink:href="#U" x="611.741"/><use xlink:href="#c" x="358.125"/><use xlink:href="#V" x="618.625"/><use xlink:href="#d" x="358.125"/><use xlink:href="#V" x="642.48"/><use xlink:href="#U" x="683.75"/><use xlink:href="#V" x="683.75"/><use xlink:href="#V" x="690.635"/><use xlink:href="#V" x="707.605"/><use xlink:href="#W" x="683.75"/><use xlink:href="#V" x="748.875"/><use xlink:href="#X" x="690.635"/><use xlink:href="#V" x="772.73"/><use xlink:href="#Y" x="683.75"/><use xlink:href="#V" x="814"/><use xlink:href="#Z" x="690.635"/><use xlink:href="#V" x="837.855"/><use xlink:href="#a" x="683.75"/><use xlink:href="#V" x="879.125"/><use xlink:href="#b" x="690.635"/><use xlink:href="#V" x="902.98"/><use xlink:href="#c" x="683.75"/><use xlink:href="#W" x="913.51"/><use xlink:href="#d" x="683.75"/><use xlink:href="#W" x="937.365"/><use xlink:href="#U" x="1009.375"/><use xlink:href="#W" x="978.635"/><use xlink:href="#V" x="1016.26"/><use xlink:href="#W" x="1034.99"/><use xlink:href="#W" x="1041.875"/><use xlink:href="#W" x="1076.26"/><use xlink:href="#X" x="1048.76"/><use xlink:href="#W" x="1100.115"/><use xlink:href="#Y" x="1041.875"/><use xlink:href="#W" x="1141.385"/><use xlink:href="#Z" x="1048.76"/><use xlink:href="#W" x="1165.24"/><use xlink:href="#a" x="1041.875"/><use xlink:href="#W" x="1206.51"/><use xlink:href="#b" x="1048.76"/><use xlink:href="#W" x="1230.365"/><use xlink:href="#c" x="1041.875"/><use xlink:href="#X" x="1237.25"/><use xlink:href="#d" x="1041.875"/><use xlink:href="#X" x="1261.105"/><use xlink:href="#U" x="1367.5"/><use xlink:href="#X" x="1302.375"/><path d="M1520.018 16.142v1.365h-5.848v-1.16l2.76-2.941q.568-.621.841-1.084.272-.463.272-.879 0-.568-.287-.894-.287-.325-.82-.325-.574 0-.905.396-.331.396-.331 1.04H1514q0-.779.372-1.424.372-.645 1.052-1.011.68-.366 1.541-.366 1.318 0 2.048.633.729.633.729 1.787 0 .633-.328 1.289-.328.656-1.125 1.529l-1.939 2.045h3.668z"/><use xlink:href="#X" x="1326.23"/><use xlink:href="#W" x="1367.5"/><use xlink:href="#X" x="1367.5"/><use xlink:href="#X" x="1374.385"/><use xlink:href="#X" x="1391.355"/><use xlink:href="#Y" x="1367.5"/><use xlink:href="#X" x="1432.625"/><use xlink:href="#Z" x="1374.384"/><use xlink:href="#X" x="1456.48"/><use xlink:href="#a" x="1367.5"/><use xlink:href="#X" x="1497.75"/><use xlink:href="#b" x="1374.385"/><use xlink:href="#X" x="1563.605"/><use xlink:href="#c" x="1409.499"/><use xlink:href="#e"/><path d="M1826.412 12.41v1.57q0 1.77-.732 2.707-.732.938-2.145.938-1.395 0-2.133-.92-.738-.92-.756-2.637v-1.57q0-1.787.741-2.713.741-.926 2.136-.926 1.395 0 2.133.917.738.917.756 2.634zm-1.693 1.875v-2.027q0-1.061-.29-1.544-.29-.483-.905-.483-.598 0-.882.46-.284.46-.302 1.438v2.074q0 1.043.284 1.55.284.507.911.507.621 0 .897-.486.275-.486.287-1.488z"/><use xlink:href="#Y" x="1637.99"/><use xlink:href="#U" x="1775.125"/><use xlink:href="#e" x="105.125"/><use xlink:href="#V" x="1786.01"/></g></g></symbol></svg>