<svg xmlns="http://www.w3.org/2000/svg" xmlns:xlink="http://www.w3.org/1999/xlink" viewBox="0 0 2281.2 206" fill="#fff" fill-rule="evenodd" stroke="#000" stroke-linecap="round" stroke-linejoin="round"><style><![CDATA[.B{stroke:none}.C{stroke-width:.399}.D{fill:#000}.E{stroke-linejoin:miter}.F{stroke-width:1.2}.G{fill:#595959}.H{stroke:#404040}.I{fill:#262626}.J{stroke-width:1.198}.K{fill:#d9d9d9}.L{fill:silver}.M{fill:gray}.N{fill:#866b00}.O{stroke-width:.96}.P{stroke:gray}.Q{fill-rule:nonzero}]]></style><use xlink:href="#g" x=".6" y=".5"/><defs><radialGradient id="A" r="100%" fx="50%" fy="50%" cx="50%" cy="50%"><stop offset="0%" stop-color="gray"/><stop offset="71%" stop-color="#262626"/></radialGradient><radialGradient id="B" r="100%" fx="50%" fy="50%" cx="50%" cy="50%"><stop offset="0%" stop-color="#bdbdbd"/><stop offset="71%" stop-color="#a5a5a5"/></radialGradient><linearGradient id="C" x1="50%" y1="0%" x2="50%" y2="100%"><stop offset="0%" stop-color="#7f7f7f"/><stop offset="100%" stop-color="#d1d3d0"/></linearGradient><linearGradient id="D" x1="0%" y1="50%" x2="100%" y2="50%"><stop offset="0%" stop-color="#7f7f7f"/><stop offset="100%" stop-color="#d1d3d0"/></linearGradient><linearGradient id="E" x1="100%" y1="50%" x2="0%" y2="50%"><stop offset="0%" stop-color="#7f7f7f"/><stop offset="100%" stop-color="#d1d3d0"/></linearGradient><linearGradient id="F" x1="50%" y1="100%" x2="50%" y2="0%"><stop offset="0%" stop-color="#7f7f7f"/><stop offset="100%" stop-color="#d1d3d0"/></linearGradient><path id="G" d="M317.271 161.303h88.733c1.373 0 2.371-1.075 2.371-2.4v-120c0-1.325-.998-2.4-2.371-2.4h-88.733c-1.373 0-2.496 1.075-2.496 2.4v120c0 1.325 1.123 2.4 2.496 2.4z"/><path id="H" d="M316.772 40.486v37.619a2.43 2.43 0 0 0 2.371 2.4h84.864c1.373 0 2.371-1.075 2.371-2.4V40.486c0-1.325-.998-2.4-2.371-2.4h-84.864a2.43 2.43 0 0 0-2.371 2.4zm0 79.336v37.618a2.43 2.43 0 0 0 2.371 2.4h84.864c1.373 0 2.371-1.075 2.371-2.4v-37.618c0-1.325-.998-2.4-2.371-2.4h-84.864a2.43 2.43 0 0 0-2.371 2.4z"/><path id="I" d="M315.274 82.853h92.664v31.05h-92.664z"/><path id="J" d="M407.252 64.474c.374 0 .624-.25.624-.588v-9.184c0-.325-.25-.587-.624-.587s-.624.25-.624.587v9.184c0 .325.25.588.624.588zm-91.229 0c.25 0 .499-.25.499-.588v-9.184c0-.325-.249-.587-.499-.587-.374 0-.624.25-.624.587v9.184c0 .325.25.588.624.588zm61.152-27.094c0 .388.374.704.749.704h10.233c.374 0 .749-.315.749-.704s-.374-.703-.749-.703h-10.233c-.375 0-.749.313-.749.703zm-42.806 0c0 .388.249.704.749.704h10.233c.375 0 .749-.315.749-.704s-.374-.703-.749-.703h-10.233c-.499 0-.749.313-.749.703zm-18.346 106.435c.25 0 .499-.25.499-.588v-9.187c0-.325-.249-.588-.499-.588-.374 0-.624.25-.624.588v9.187c0 .325.25.588.624.588zm91.229 0c.374 0 .624-.25.624-.588v-9.187c0-.325-.25-.588-.624-.588s-.624.25-.624.588v9.187c0 .325.25.588.624.588zm-30.077-27.1c0 .387.374.702.749.702h10.233c.374 0 .749-.312.749-.702s-.374-.704-.749-.704h-10.233c-.375 0-.749.315-.749.704zm-42.806 0c0 .387.249.702.749.702h10.233c.375 0 .749-.312.749-.702s-.374-.704-.749-.704h-10.233c-.499 0-.749.315-.749.704z"/><path id="K" d="M317.77 73.999v2.231c0 1.325.998 2.4 2.371 2.4h83.242a2.43 2.43 0 0 0 2.371-2.4v-2.231a2.43 2.43 0 0 0-2.371-2.4h-83.242c-1.373 0-2.371 1.075-2.371 2.4zm0 79.341v2.225c0 1.325.998 2.4 2.371 2.4h83.242a2.43 2.43 0 0 0 2.371-2.4v-2.225a2.43 2.43 0 0 0-2.371-2.4h-83.242c-1.373 0-2.371 1.075-2.371 2.4z"/><path id="L" d="M319.143 66.443c1.248 0 2.371-1.05 2.371-2.344v-8.438c0-1.294-1.123-2.344-2.371-2.344s-2.371 1.05-2.371 2.344v8.438c0 1.295 1.123 2.344 2.371 2.344zm1.872 10.313c.749 0 1.373-.63 1.373-1.406v-2.344c0-.775-.624-1.406-1.373-1.406s-1.373.63-1.373 1.406v2.344c0 .775.624 1.406 1.373 1.406zm81.495 0c.749 0 1.373-.63 1.373-1.406v-2.344c0-.775-.624-1.406-1.373-1.406-.873 0-1.498.63-1.498 1.406v2.344c0 .775.624 1.406 1.498 1.406zm1.373-10.313c1.248 0 2.371-1.05 2.371-2.344v-8.438c0-1.294-1.123-2.344-2.371-2.344-1.373 0-2.371 1.05-2.371 2.344v8.438c0 1.295.998 2.344 2.371 2.344zm-30.95-25.781c0 1.295 1.123 2.344 2.371 2.344h8.486c1.248 0 2.247-1.05 2.247-2.344s-.998-2.344-2.247-2.344h-8.486c-1.248 0-2.371 1.05-2.371 2.344zm-35.568 0c0 1.295 1.123 2.344 2.371 2.344h8.487c1.248 0 2.246-1.05 2.246-2.344s-.999-2.344-2.246-2.344h-8.487c-1.248 0-2.371 1.05-2.371 2.344zm-18.221 105.116c1.248 0 2.371-1.05 2.371-2.338v-8.437c0-1.3-1.123-2.35-2.371-2.35s-2.371 1.05-2.371 2.35v8.438c0 1.287 1.123 2.338 2.371 2.338zm1.872 10.313c.749 0 1.373-.625 1.373-1.4v-2.35c0-.775-.624-1.4-1.373-1.4s-1.373.625-1.373 1.4v2.35c0 .775.624 1.4 1.373 1.4zm81.495 0c.749 0 1.373-.625 1.373-1.4v-2.35c0-.775-.624-1.4-1.373-1.4-.873 0-1.498.625-1.498 1.4v2.35c0 .775.624 1.4 1.498 1.4zm1.373-10.312c1.248 0 2.371-1.05 2.371-2.338v-8.437c0-1.3-1.123-2.35-2.371-2.35-1.373 0-2.371 1.05-2.371 2.35v8.438c0 1.287.998 2.338 2.371 2.338zm-30.95-25.78c0 1.294 1.123 2.344 2.371 2.344h8.486c1.248 0 2.247-1.05 2.247-2.344s-.998-2.344-2.247-2.344h-8.486c-1.248 0-2.371 1.05-2.371 2.344zm-35.568 0c0 1.294 1.123 2.344 2.371 2.344h8.487c1.248 0 2.246-1.05 2.246-2.344s-.999-2.344-2.246-2.344h-8.487c-1.248 0-2.371 1.05-2.371 2.344z"/><path id="M" d="M370.181 96.953h6c1.2-.24 1.92-1.44 1.68-2.64s-.96-1.68-1.68-1.8h-6c-1.2.24-1.92 1.44-1.68 2.64s.84 1.56 1.68 1.8zm-11.58 0h6c1.2-.24 1.92-1.44 1.68-2.64s-.96-1.68-1.68-1.8h-6c-1.2.24-1.92 1.44-1.68 2.64s.84 1.56 1.68 1.8zm23.16 0h6c1.2-.24 1.92-1.44 1.68-2.64s-.96-1.68-1.68-1.8h-6c-1.2.24-1.92 1.44-1.68 2.64s.84 1.56 1.68 1.8zm0 7.289h6c1.2-.24 1.92-1.44 1.68-2.64s-.96-1.68-1.68-1.8h-6c-1.2.24-1.92 1.44-1.68 2.64s.84 1.56 1.68 1.8zm-11.58 0h6c1.2-.24 1.92-1.44 1.68-2.64s-.96-1.68-1.68-1.8h-6c-1.2.24-1.92 1.44-1.68 2.64s.84 1.56 1.68 1.8zm-11.58 0h6c1.2-.24 1.92-1.44 1.68-2.64s-.96-1.68-1.68-1.8h-6c-1.2.24-1.92 1.44-1.68 2.64s.84 1.56 1.68 1.8zm0 7.29h6c1.2-.24 1.92-1.44 1.68-2.64s-.96-1.68-1.68-1.8h-6c-1.2.24-1.92 1.44-1.68 2.64s.84 1.56 1.68 1.8zm11.58 0h6c1.2-.24 1.92-1.44 1.68-2.64s-.96-1.68-1.68-1.8h-6c-1.2.24-1.92 1.44-1.68 2.64s.84 1.56 1.68 1.8zm11.58 0h6c1.2-.24 1.92-1.44 1.68-2.64s-.96-1.68-1.68-1.8h-6c-1.2.24-1.92 1.44-1.68 2.64s.84 1.56 1.68 1.8zm11.58 0h6c1.2-.24 1.92-1.44 1.68-2.64s-.96-1.68-1.68-1.8h-6c-1.2.24-1.92 1.44-1.68 2.64s.84 1.56 1.68 1.8zm0-7.29h6c1.2-.24 1.92-1.44 1.68-2.64s-.96-1.68-1.68-1.8h-6c-1.2.24-1.92 1.44-1.68 2.64s.84 1.56 1.68 1.8zm0-7.289h6c1.2-.24 1.92-1.44 1.68-2.64s-.96-1.68-1.68-1.8h-6c-1.2.24-1.92 1.44-1.68 2.64s.84 1.56 1.68 1.8zm0-7.291h6c1.2-.24 1.92-1.44 1.68-2.64s-.96-1.68-1.68-1.8h-6c-1.2.24-1.92 1.44-1.68 2.64s.84 1.56 1.68 1.8zm-11.58 0h6c1.2-.24 1.92-1.44 1.68-2.64s-.96-1.68-1.68-1.8h-6c-1.2.24-1.92 1.44-1.68 2.64s.84 1.56 1.68 1.8zm-11.58 0h6c1.2-.24 1.92-1.44 1.68-2.64s-.96-1.68-1.68-1.8h-6c-1.2.24-1.92 1.44-1.68 2.64s.84 1.56 1.68 1.8zm-11.58 0h6c1.2-.24 1.92-1.44 1.68-2.64s-.96-1.68-1.68-1.8h-6c-1.2.24-1.92 1.44-1.68 2.64s.84 1.56 1.68 1.8zm-23.15 0h6c1.2-.24 1.92-1.44 1.68-2.64s-.96-1.68-1.68-1.8h-6c-1.2.24-1.92 1.44-1.68 2.64s.84 1.56 1.68 1.8zm0 7.291h6c1.2-.24 1.92-1.44 1.68-2.64s-.96-1.68-1.68-1.8h-6c-1.2.24-1.92 1.44-1.68 2.64s.84 1.56 1.68 1.8zm0 7.289h6c1.2-.24 1.92-1.44 1.68-2.64s-.96-1.68-1.68-1.8h-6c-1.2.24-1.92 1.44-1.68 2.64s.84 1.56 1.68 1.8zm11.58 0h6c1.2-.24 1.92-1.44 1.68-2.64s-.96-1.68-1.68-1.8h-6c-1.2.24-1.92 1.44-1.68 2.64s.84 1.56 1.68 1.8zm0-7.289h6c1.2-.24 1.92-1.44 1.68-2.64s-.96-1.68-1.68-1.8h-6c-1.2.24-1.92 1.44-1.68 2.64s.84 1.56 1.68 1.8zm0-7.291h6c1.2-.24 1.92-1.44 1.68-2.64s-.96-1.68-1.68-1.8h-6c-1.2.24-1.92 1.44-1.68 2.64s.84 1.56 1.68 1.8zm-23.16 0h6c1.2-.24 1.92-1.44 1.68-2.64s-.96-1.68-1.68-1.8h-6c-1.2.24-1.92 1.44-1.68 2.64s.84 1.56 1.68 1.8zm0 7.291h6c1.2-.24 1.92-1.44 1.68-2.64s-.96-1.68-1.68-1.8h-6c-1.2.24-1.92 1.44-1.68 2.64s.84 1.56 1.68 1.8zm0 7.289h6c1.2-.24 1.92-1.44 1.68-2.64s-.96-1.68-1.68-1.8h-6c-1.2.24-1.92 1.44-1.68 2.64s.84 1.56 1.68 1.8zm0 7.29h6c1.2-.24 1.92-1.44 1.68-2.64s-.96-1.68-1.68-1.8h-6c-1.2.24-1.92 1.44-1.68 2.64s.84 1.56 1.68 1.8zm11.58 0h6c1.2-.24 1.92-1.44 1.68-2.64s-.96-1.68-1.68-1.8h-6c-1.2.24-1.92 1.44-1.68 2.64s.84 1.56 1.68 1.8zm11.58 0h6c1.2-.24 1.92-1.44 1.68-2.64s-.96-1.68-1.68-1.8h-6c-1.2.24-1.92 1.44-1.68 2.64s.84 1.56 1.68 1.8z"/><path id="N" d="M419.56 163.065h97.56V35.625h-97.56v127.44z"/><path id="O" d="M424.805 77.108c.624 0 1.123-.525 1.123-1.171v-8c0-.647-.499-1.171-1.123-1.171s-1.248.525-1.248 1.171v8c0 .647.624 1.171 1.248 1.171zm0-12.634c.624 0 1.123-.525 1.123-1.172v-8.024c0-.647-.499-1.172-1.123-1.172s-1.248.525-1.248 1.172v8.013c0 .647.624 1.172 1.248 1.172zm0-12.634c.624 0 1.123-.525 1.123-1.171v-8c0-.647-.499-1.172-1.123-1.172s-1.248.525-1.248 1.172v8c0 .647.624 1.171 1.248 1.171zm86.861 25.268c.624 0 1.248-.525 1.248-1.171v-8c0-.647-.624-1.171-1.248-1.171s-1.123.525-1.123 1.171v8c0 .647.499 1.171 1.123 1.171zm0-12.634c.624 0 1.248-.525 1.248-1.172v-8.024c0-.647-.624-1.172-1.248-1.172s-1.123.525-1.123 1.172v8.013c0 .647.499 1.172 1.123 1.172zm0-12.634c.624 0 1.248-.525 1.248-1.171v-8c0-.647-.624-1.172-1.248-1.172s-1.123.525-1.123 1.172v8c0 .647.499 1.171 1.123 1.171zm-84.864-12.116c0 .775.624 1.406 1.373 1.406h8.861c.749 0 1.373-.63 1.373-1.406s-.624-1.406-1.373-1.406h-8.861c-.749 0-1.373.63-1.373 1.406zm14.227 0c0 .775.624 1.406 1.373 1.406h8.861c.874 0 1.498-.63 1.498-1.406s-.624-1.406-1.498-1.406h-8.861c-.749 0-1.373.63-1.373 1.406zm14.227 0c0 .775.624 1.406 1.498 1.406h8.861c.749 0 1.373-.63 1.373-1.406s-.624-1.406-1.373-1.406h-8.861c-.874 0-1.498.63-1.498 1.406zm14.352 0c0 .775.624 1.406 1.373 1.406h8.861c.749 0 1.373-.63 1.373-1.406s-.624-1.406-1.373-1.406h-8.861c-.749 0-1.373.63-1.373 1.406zm14.227 0c0 .775.624 1.406 1.373 1.406h8.985c.749 0 1.373-.63 1.373-1.406s-.624-1.406-1.373-1.406h-8.985c-.749 0-1.373.63-1.373 1.406zm14.227 0c0 .775.624 1.406 1.498 1.406h8.861c.749 0 1.373-.63 1.373-1.406s-.624-1.406-1.373-1.406h-8.861c-.874 0-1.498.63-1.498 1.406zm-71.261 38.906c0 .775.624 1.406 1.373 1.406h8.861c.749 0 1.373-.63 1.373-1.406s-.624-1.406-1.373-1.406h-8.861c-.749 0-1.373.63-1.373 1.406zm14.227 0c0 .775.624 1.406 1.373 1.406h8.861c.874 0 1.498-.63 1.498-1.406s-.624-1.406-1.498-1.406h-8.861c-.749 0-1.373.63-1.373 1.406zm14.227 0c0 .775.624 1.406 1.498 1.406h8.861c.749 0 1.373-.63 1.373-1.406s-.624-1.406-1.373-1.406h-8.861c-.874 0-1.498.63-1.498 1.406zm14.352 0c0 .775.624 1.406 1.373 1.406h8.861c.749 0 1.373-.63 1.373-1.406s-.624-1.406-1.373-1.406h-8.861c-.749 0-1.373.63-1.373 1.406zm14.227 0c0 .775.624 1.406 1.373 1.406h8.985c.749 0 1.373-.63 1.373-1.406s-.624-1.406-1.373-1.406h-8.985c-.749 0-1.373.63-1.373 1.406zm14.227 0c0 .775.624 1.406 1.498 1.406h8.861c.749 0 1.373-.63 1.373-1.406s-.624-1.406-1.373-1.406h-8.861c-.874 0-1.498.63-1.498 1.406zm-73.257 77.81c.624 0 1.123-.525 1.123-1.163v-8c0-.65-.499-1.175-1.123-1.175s-1.248.525-1.248 1.175v8c0 .625.624 1.163 1.248 1.163zm0-12.625c.624 0 1.123-.525 1.123-1.175v-8c0-.65-.499-1.175-1.123-1.175s-1.248.525-1.248 1.175v8c0 .65.624 1.175 1.248 1.175zm0-12.638c.624 0 1.123-.528 1.123-1.175v-8c0-.647-.499-1.173-1.123-1.173s-1.248.525-1.248 1.173v8c0 .646.624 1.175 1.248 1.175zm86.861 25.262c.624 0 1.248-.525 1.248-1.163v-8c0-.65-.624-1.175-1.248-1.175s-1.123.525-1.123 1.175v8c0 .625.499 1.163 1.123 1.163zm0-12.625c.624 0 1.248-.525 1.248-1.175v-8c0-.65-.624-1.175-1.248-1.175s-1.123.525-1.123 1.175v8c0 .65.499 1.175 1.123 1.175zm0-12.638c.624 0 1.248-.528 1.248-1.175v-8c0-.647-.624-1.173-1.248-1.173s-1.123.525-1.123 1.173v8c0 .646.499 1.175 1.123 1.175zm-84.864-12.118c0 .775.624 1.406 1.373 1.406h8.861c.749 0 1.373-.63 1.373-1.406s-.624-1.406-1.373-1.406h-8.861c-.749 0-1.373.63-1.373 1.406zm14.227 0c0 .775.624 1.406 1.373 1.406h8.861c.874 0 1.498-.63 1.498-1.406s-.624-1.406-1.498-1.406h-8.861c-.749 0-1.373.63-1.373 1.406zm14.227 0c0 .775.624 1.406 1.498 1.406h8.861c.749 0 1.373-.63 1.373-1.406s-.624-1.406-1.373-1.406h-8.861c-.874 0-1.498.63-1.498 1.406zm14.352 0c0 .775.624 1.406 1.373 1.406h8.861c.749 0 1.373-.63 1.373-1.406s-.624-1.406-1.373-1.406h-8.861c-.749 0-1.373.63-1.373 1.406zm14.227 0c0 .775.624 1.406 1.373 1.406h8.985c.749 0 1.373-.63 1.373-1.406s-.624-1.406-1.373-1.406h-8.985c-.749 0-1.373.63-1.373 1.406zm14.227 0c0 .775.624 1.406 1.498 1.406h8.861c.749 0 1.373-.63 1.373-1.406s-.624-1.406-1.373-1.406h-8.861c-.874 0-1.498.63-1.498 1.406zm-71.261 38.905c0 .775.624 1.413 1.373 1.413h8.861c.749 0 1.373-.625 1.373-1.413s-.624-1.4-1.373-1.4h-8.861c-.749 0-1.373.625-1.373 1.4zm14.227 0c0 .775.624 1.413 1.373 1.413h8.861c.874 0 1.498-.625 1.498-1.413s-.624-1.4-1.498-1.4h-8.861c-.749 0-1.373.625-1.373 1.4zm14.227 0c0 .775.624 1.413 1.498 1.413h8.861c.749 0 1.373-.625 1.373-1.413s-.624-1.4-1.373-1.4h-8.861c-.874 0-1.498.625-1.498 1.4zm14.352 0c0 .775.624 1.413 1.373 1.413h8.861c.749 0 1.373-.625 1.373-1.413s-.624-1.4-1.373-1.4h-8.861c-.749 0-1.373.625-1.373 1.4zm14.227 0c0 .775.624 1.413 1.373 1.413h8.985c.749 0 1.373-.625 1.373-1.413s-.624-1.4-1.373-1.4h-8.985c-.749 0-1.373.625-1.373 1.4zm14.227 0c0 .775.624 1.413 1.498 1.413h8.861c.749 0 1.373-.625 1.373-1.413s-.624-1.4-1.373-1.4h-8.861c-.874 0-1.498.625-1.498 1.4z"/><path id="P" d="M164.599 33.231c-.087-.043-.782-.439-1.816-.439-1.4 0-2.369.934-2.369 2.193 0 1.222.928 2.195 2.369 2.195 1.016 0 1.722-.387 1.816-.436v2.207c-.268.073-1.006.292-1.971.292-2.43 0-4.561-1.609-4.561-4.258 0-2.455 1.931-4.256 4.561-4.256 1.017 0 1.768.237 1.971.295z"/><path id="Q" d="M133.216 22.039c0-.566-.482-1.026-1.073-1.026s-1.073.459-1.073 1.026v2.158c0 .57.483 1.03 1.073 1.03s1.073-.46 1.073-1.03z"/><path id="R" d="M139.11 19.206c0-.566-.482-1.027-1.073-1.027s-1.073.461-1.073 1.027v4.991c0 .57.482 1.029 1.073 1.029s1.073-.459 1.073-1.029z"/><path id="S" d="M145.004 15.33c0-.566-.482-1.026-1.073-1.026s-1.073.46-1.073 1.026v10.918c0 .57.482 1.03 1.073 1.03s1.073-.46 1.073-1.03z"/><path id="T" d="M156.785 22.039c0-.566-.479-1.026-1.067-1.026s-1.073.459-1.073 1.026v2.158c0 .57.482 1.03 1.073 1.03s1.067-.46 1.067-1.03z"/><path id="U" d="M231.309 14.62v8.543h-1.693v-6.527l-2.021.627v-1.377l3.533-1.266h.182z"/><path id="V" d="M281.553 21.798v1.365h-5.848v-1.16l2.76-2.941q.568-.621.841-1.084.272-.463.272-.879 0-.568-.287-.894-.287-.325-.82-.325-.574 0-.905.396-.331.396-.331 1.04h-1.699q0-.779.372-1.424.372-.645 1.052-1.011.68-.366 1.541-.366 1.318 0 2.048.633.729.633.729 1.787 0 .633-.328 1.289-.328.656-1.125 1.529l-1.939 2.045h3.668z"/><path id="W" d="M335.606 19.472v-1.324h.902q.645 0 .955-.322.311-.322.311-.855 0-.516-.308-.803-.308-.287-.847-.287-.486 0-.814.267-.328.267-.328.694h-1.693q0-.668.36-1.198.36-.53 1.008-.829.647-.299 1.427-.299 1.354 0 2.121.647.768.647.768 1.784 0 .586-.357 1.078-.357.492-.937.756.721.258 1.075.773.354.516.354 1.219 0 1.137-.829 1.822-.829.686-2.194.686-1.277 0-2.089-.674-.812-.674-.812-1.781h1.693q0 .48.36.785.36.305.888.305.604 0 .946-.319.343-.319.343-.847 0-1.277-1.406-1.277h-.896z"/><path id="X" d="M387.403 14.632v5.32h.967v1.365h-.967v1.846h-1.693v-1.846h-3.498l-.076-1.066 3.557-5.619h1.711zm-1.805 2.502l-1.775 2.818h1.887v-3.012l-.111.193z"/><path id="Y" d="M442.169 19.302l-1.348-.334.492-4.336h4.781v1.412h-3.393l-.211 1.834q.604-.322 1.283-.322 1.219 0 1.91.756.691.756.691 2.115 0 .826-.349 1.479-.349.653-.999 1.014-.65.36-1.535.36-.773 0-1.436-.313-.662-.313-1.046-.882-.384-.568-.407-1.295h1.676q.053.533.372.829.319.296.835.296.574 0 .885-.413.311-.413.311-1.169 0-.727-.357-1.113-.357-.387-1.014-.387-.604 0-.979.316l-.164.152z"/><path id="Z" d="M493.393 14.544h.281v1.395h-.164q-1.148.018-1.849.598-.7.58-.841 1.611.68-.691 1.717-.691 1.113 0 1.77.797.656.797.656 2.098 0 .832-.36 1.506-.36.674-1.02 1.049-.659.375-1.491.375-1.348 0-2.177-.937-.829-.937-.829-2.502v-.609q0-1.389.524-2.452.524-1.063 1.506-1.646.981-.583 2.276-.589zm-1.371 4.271q-.41 0-.744.214-.334.214-.492.565v.516q0 .85.334 1.327.334.478.938.478.545 0 .882-.431.337-.431.337-1.116 0-.697-.34-1.125-.34-.428-.914-.428z"/><path id="a" d="M553.058 14.632v.949l-3.299 7.582h-1.787l3.305-7.16h-4.242v-1.371h6.023z"/><path id="b" d="M601.328 16.9q0 .621-.311 1.102-.311.48-.855.768.621.299.984.823.363.524.363 1.233 0 1.137-.773 1.796-.773.659-2.104.659-1.33 0-2.109-.662-.779-.662-.779-1.793 0-.709.363-1.236.363-.527.979-.82-.545-.287-.853-.768-.308-.48-.308-1.102 0-1.09.727-1.737.727-.647 1.975-.647 1.242 0 1.972.642.729.642.729 1.743zm-1.518 3.803q0-.557-.322-.891-.322-.334-.867-.334-.539 0-.861.331-.322.331-.322.894 0 .545.316.879.316.334.879.334.551 0 .864-.322.313-.322.313-.891zm-.176-3.721q0-.498-.264-.8-.264-.302-.744-.302-.475 0-.738.293-.264.293-.264.809 0 .51.264.82.264.311.744.311.48 0 .741-.311.261-.311.261-.82z"/><path id="c" d="M657.906 19.753q-.662.65-1.547.65-1.131 0-1.811-.776-.68-.776-.68-2.095 0-.838.366-1.538.366-.7 1.022-1.09.656-.39 1.477-.39.844 0 1.5.422.656.422 1.02 1.213.363.791.369 1.811v.627q0 2.133-1.061 3.352-1.061 1.219-3.006 1.301l-.416.006v-1.412l.375-.006q2.209-.1 2.391-2.074zm-1.131-.645q.41 0 .706-.211.296-.211.448-.51v-.697q0-.861-.328-1.336-.328-.475-.879-.475-.51 0-.838.466-.328.466-.328 1.169 0 .697.319 1.146.319.448.899.448z"/><path id="d" d="M715.083 18.066v1.57q0 1.77-.732 2.707-.732.938-2.145.938-1.395 0-2.133-.92-.738-.92-.756-2.637v-1.57q0-1.787.741-2.713.741-.926 2.136-.926 1.395 0 2.133.917.738.917.756 2.634zm-1.693 1.875v-2.027q0-1.061-.29-1.544-.29-.483-.905-.483-.598 0-.882.46-.284.46-.302 1.438v2.074q0 1.043.284 1.55.284.507.911.507.621 0 .896-.486.275-.486.287-1.488z"/><path id="e" d="M142.485 83.406v5.688h-1.172l-2.281-3.742v3.742h-1.172v-5.687h1.172l2.285 3.75v-3.75h1.168z"/><path id="f" d="M131.735 105.601q0-.332-.234-.51-.234-.178-.844-.375-.609-.197-.965-.389-.969-.523-.969-1.41 0-.461.26-.822.26-.361.746-.564.486-.203 1.092-.203.609 0 1.086.221.477.221.74.623.264.402.264.914h-1.172q0-.391-.246-.607-.246-.217-.691-.217-.43 0-.668.182-.238.182-.238.479 0 .277.279.465.279.188.822.352 1 .301 1.457.746.457.445.457 1.109 0 .738-.559 1.158-.559.42-1.504.42-.656 0-1.195-.24-.539-.24-.822-.658-.283-.418-.283-.969h1.176q0 .941 1.125.941.418 0 .652-.17.234-.17.234-.475z"/></defs><symbol id="g" overflow="visible"><g class="E"><path d="M2236.08 187.565h-8.88c-6.48 0-11.76-5.16-12-11.52s5.28-11.64 11.76-11.64h22.8c6.6 0 12 5.16 12 11.52s-5.16 11.64-11.76 11.64h-13.8zm0-73.44h-8.88c-6.48 0-11.76-5.16-12-11.52s5.28-11.64 11.76-11.64h22.8c6.6 0 12 5.16 12 11.52s-5.16 11.64-11.76 11.64h-13.8zm0-73.44h-8.88c-6.48 0-11.76-5.16-12-11.52s5.28-11.64 11.76-11.64h22.8c6.6 0 12 5.16 12 11.52s-5.16 11.64-11.76 11.64h-13.8zM39.24 187.565h-8.88c-6.48 0-12-5.16-12-11.52s5.4-11.52 11.88-11.52h22.8c6.48 0 12 5.16 12 11.52s-5.28 11.64-11.76 11.64H39.24zm0-73.44h-8.88c-6.48 0-12-5.16-12-11.52s5.28-11.64 11.76-11.64h22.8c6.48 0 12 5.16 12 11.52s-5.4 11.64-11.88 11.64h-13.8zm0-73.44h-8.88c-6.48 0-12-5.16-12-11.52s5.28-11.64 11.76-11.64h22.8c6.48 0 12 5.16 12 11.52s-5.28 11.64-11.76 11.64H39.24zM24 204.125h2232c12 0 24-5.16 24-11.64v-180c0-6.36-12-11.64-24-11.64H24c-13.2 0-24 5.16-24 11.64v180c0 6.48 12 11.64 24 11.64z" fill="#a6a6a6" class="F"/><path d="M128.16 203.945h2025.12c3.96 0 7.32-3.36 7.32-7.44v-189a7.48 7.48 0 0 0-7.44-7.44h-2025c-4.2-.12-7.56 3.24-7.56 7.44v189c0 4.08 3.36 7.44 7.56 7.44z" fill="#d1d3d0" class="O P"/></g><g fill="url(#A)"><path d="M189.24 51.454c0-3.6-3-6.72-6.72-6.72a6.71 6.71 0 1 0 0 13.44 6.71 6.71 0 0 0 6.72-6.72z" class="O P"/><path d="M189.24 69.437c0-3.6-3-6.72-6.72-6.72a6.71 6.71 0 1 0 0 13.44 6.71 6.71 0 0 0 6.72-6.72z" class="O P"/><path d="M189.24 87.419c0-3.6-3-6.72-6.72-6.72a6.71 6.71 0 1 0 0 13.44 6.71 6.71 0 0 0 6.72-6.72z" class="O P"/><path d="M189.24 105.405c0-3.6-3-6.72-6.72-6.72a6.71 6.71 0 1 0 0 13.44 6.71 6.71 0 0 0 6.72-6.72z" class="O P"/></g><path d="M194.4 137.695c0-6.627-5.373-12-12-12s-12 5.373-12 12 5.373 12 12 12 12-5.373 12-12z" fill="url(#B)" class="O P"/><path d="M2152.83 7.44V0H128.07v7.44" fill="url(#C)" class="O P"/><path d="M128.1 7.475h-7.44v188.88h7.44" fill="url(#D)" class="O P"/><path d="M2153.1 7.475h7.44v188.88h-7.44" fill="url(#E)" class="O P"/><path d="M2152.83 196.445v7.44H128.07v-7.44" fill="url(#F)" class="O P"/><path d="M135.98 155.265l1.682.592c-.259 1.043-.688 1.818-1.287 2.322s-1.36.758-2.282.758a3.52 3.52 0 0 1-2.813-1.298c-.734-.866-1.102-2.05-1.102-3.551 0-1.588.37-2.822 1.107-3.7s1.71-1.318 2.912-1.318c1.05 0 1.904.345 2.56 1.035.39.408.684.994.88 1.758l-1.717.456c-.102-.495-.314-.885-.636-1.172s-.714-.432-1.174-.432c-.637 0-1.153.254-1.55.762s-.595 1.33-.595 2.467c0 1.207.195 2.066.586 2.578s.898.768 1.523.768a1.64 1.64 0 0 0 1.189-.488c.332-.326.57-.838.715-1.537zm3.49-4.34v-1.693h1.647v1.693zm0 7.85v-6.914h1.647v6.914zm2.42-1.973l1.653-.28c.07.356.212.626.427.81s.516.277.903.277c.425 0 .746-.087.96-.26.144-.12.216-.284.216-.488 0-.14-.04-.254-.117-.345s-.265-.167-.55-.24c-1.328-.325-2.17-.623-2.525-.892-.492-.373-.738-.892-.738-1.556a2.01 2.01 0 0 1 .638-1.51c.426-.408 1.086-.612 1.98-.612.85 0 1.484.154 1.898.462s.7.764.856 1.367l-1.553.32c-.066-.27-.192-.475-.378-.618s-.45-.215-.794-.215c-.433 0-.744.067-.93.202-.125.095-.188.22-.188.37a.42.42 0 0 0 .164.332c.15.122.66.293 1.538.514s1.49.493 1.837.814.516.78.516 1.36c0 .634-.24 1.178-.715 1.634s-1.182.684-2.115.684c-.848 0-1.52-.19-2.013-.573s-.817-.9-.97-1.556zm13.007-2.897l-1.623.325c-.055-.36-.18-.63-.372-.814s-.444-.273-.753-.273c-.4 0-.737.157-.98.472s-.367.84-.367 1.58c0 .82.124 1.4.372 1.738a1.18 1.18 0 0 0 1 .508c.313 0 .57-.1.768-.296s.34-.537.422-1.02l1.617.306c-.168.825-.5 1.447-.967 1.868s-1.115.632-1.916.632c-.9 0-1.635-.32-2.176-.957s-.812-1.52-.812-2.65c0-1.14.272-2.03.814-2.666s1.278-.954 2.204-.954c.757 0 1.36.18 1.807.544s.77.915.964 1.657zm.193 1.315c0-.608.135-1.196.405-1.764s.65-1.003 1.145-1.302a3.14 3.14 0 0 1 1.656-.45c.94 0 1.712.34 2.314 1.02s.902 1.538.902 2.575c0 1.046-.303 1.913-.91 2.6a2.93 2.93 0 0 1-2.295 1.032 3.32 3.32 0 0 1-1.632-.43 2.8 2.8 0 0 1-1.18-1.26c-.27-.553-.405-1.227-.405-2.02zm1.688.098c0 .686.146 1.21.44 1.576s.655.547 1.084.547.8-.182 1.08-.547.437-.894.437-1.59c0-.677-.146-1.198-.437-1.562s-.65-.547-1.08-.547-.79.182-1.084.547-.44.9-.44 1.576zm-27.948 19.457v-9.544h1.687l3.517 6.374v-6.374h1.61v9.544h-1.74l-3.462-6.224v6.224zm12.574-2.2l1.64.306c-.2.668-.543 1.177-1 1.527s-1.024.524-1.708.524c-1.082 0-1.882-.393-2.402-1.178-.4-.63-.615-1.424-.615-2.383 0-1.146.27-2.043.808-2.692a2.54 2.54 0 0 1 2.045-.973c.926 0 1.657.34 2.192 1.02s.79 1.72.767 3.122h-4.125c.012.543.145.965.4 1.266a1.19 1.19 0 0 0 .949.452.94.94 0 0 0 .65-.234c.176-.156.31-.408.4-.755zm.094-1.85c-.012-.53-.135-.932-.37-1.208s-.52-.413-.855-.413c-.36 0-.656.145-.89.436s-.35.686-.345 1.185zm1.512 4.05l2.244-3.56-2.15-3.353h2l1.1 1.9 1.16-1.9h1.933l-2.097 3.273 2.302 3.64h-2.02l-1.266-2.142-1.278 2.142zm11.887 0v-1.035a2.48 2.48 0 0 1-.894.872c-.37.212-.758.32-1.168.32-.418 0-.793-.102-1.125-.306a1.74 1.74 0 0 1-.721-.859c-.15-.37-.223-.88-.223-1.53v-4.375h1.647v3.177c0 .972.03 1.568.1 1.787s.17.393.332.52.363.192.61.192a1.21 1.21 0 0 0 .756-.257 1.3 1.3 0 0 0 .457-.638c.082-.254.123-.876.123-1.865v-2.917h1.646v6.914zm2.324-1.973l1.653-.28c.07.356.212.626.427.81s.516.277.903.277c.425 0 .746-.087.96-.26.144-.12.216-.284.216-.488 0-.14-.04-.254-.117-.345s-.265-.167-.55-.24c-1.328-.325-2.17-.623-2.525-.892-.492-.373-.738-.892-.738-1.556a2.01 2.01 0 0 1 .638-1.51c.426-.408 1.086-.612 1.98-.612.85 0 1.484.154 1.898.462s.7.764.856 1.367l-1.553.32c-.066-.27-.192-.475-.378-.618s-.45-.215-.794-.215c-.433 0-.744.067-.93.202-.125.095-.188.22-.188.37a.42.42 0 0 0 .164.332c.15.122.66.293 1.538.514s1.49.493 1.837.814.516.78.516 1.36c0 .634-.24 1.178-.715 1.634s-1.182.684-2.115.684c-.848 0-1.52-.19-2.013-.573s-.817-.9-.97-1.556zm-28.406 15.766l1.594-.195c.04.36.14.627.305.8s.38.26.65.26c.34 0 .63-.174.867-.52s.39-1.068.457-2.16c-.414.534-.932.8-1.553.8-.676 0-1.26-.3-1.75-.87s-.735-1.333-.735-2.262c0-.968.26-1.748.776-2.34a2.51 2.51 0 0 1 1.978-.89c.87 0 1.586.374 2.145 1.123s.838 1.98.838 3.695c0 1.745-.29 3.004-.873 3.776s-1.34 1.16-2.274 1.16c-.672 0-1.215-.2-1.63-.596s-.68-.99-.797-1.78zm3.727-3.997c0-.6-.122-1.048-.366-1.374s-.526-.488-.847-.488c-.305 0-.558.133-.76.4s-.302.704-.302 1.312c0 .616.11 1.07.328 1.357s.492.433.82.433c.316 0 .583-.14.8-.417s.325-.686.325-1.224zm3.18 3.672l1.594-.215c.05.45.188.796.4 1.035a1.05 1.05 0 0 0 .81.358c.34 0 .626-.143.858-.43s.35-.673.35-1.16c0-.46-.112-.825-.334-1.094a1.02 1.02 0 0 0-.815-.404 2.61 2.61 0 0 0-.756.137l.182-1.49c.445.013.785-.094 1.02-.322s.35-.53.35-.908c0-.32-.086-.577-.258-.768s-.4-.286-.685-.286-.522.108-.72.325-.32.534-.363.95l-1.511-.296c.106-.577.265-1.038.478-1.383a2.17 2.17 0 0 1 .89-.814 2.74 2.74 0 0 1 1.281-.296c.808 0 1.457.287 1.945.86.402.47.603.998.603 1.59 0 .838-.412 1.506-1.236 2.005a1.98 1.98 0 0 1 1.181.788c.295.408.442.9.442 1.478 0 .838-.275 1.552-.826 2.142s-1.236.885-2.057.885c-.777 0-1.42-.248-1.933-.745s-.81-1.147-.89-1.95zm11.62.833v1.699h-5.772a4.75 4.75 0 0 1 .562-1.826c.313-.575.93-1.338 1.852-2.288l1.365-1.562c.227-.378.34-.75.34-1.12 0-.408-.1-.722-.296-.94s-.47-.33-.817-.33-.618.115-.82.345-.32.612-.35 1.146l-1.64-.182c.098-1.007.404-1.73.92-2.168s1.16-.658 1.934-.658c.847 0 1.513.254 1.998.762s.726 1.14.726 1.894a3.63 3.63 0 0 1-.208 1.227c-.138.387-.358.795-.66 1.22-.2.282-.558.688-1.078 1.217l-.987 1.055a3.16 3.16 0 0 0-.337.508zm7.018-5.508l-1.594.195c-.04-.365-.14-.634-.305-.807a.84.84 0 0 0-.638-.26c-.348 0-.642.174-.882.52s-.392 1.07-.454 2.168c.4-.538.92-.807 1.53-.807.688 0 1.276.29 1.767.872s.735 1.333.735 2.253c0 .977-.258 1.76-.773 2.35s-1.178.885-1.987.885c-.867 0-1.58-.374-2.138-1.123s-.851-1.975-.851-3.681c0-1.75.29-3 .873-3.783s1.338-1.16 2.267-1.16c.653 0 1.193.203 1.62.61s.7.995.818 1.768zm-3.733 3.99c0 .595.124 1.054.37 1.377s.527.485.843.485c.305 0 .56-.132.762-.397s.305-.7.305-1.302c0-.62-.1-1.075-.328-1.364s-.493-.433-.82-.433c-.316 0-.584.138-.802.413s-.33.682-.33 1.22zm10.703-.293l1.682.592c-.259 1.043-.688 1.818-1.287 2.322s-1.36.758-2.282.758a3.52 3.52 0 0 1-2.813-1.298c-.734-.866-1.102-2.05-1.102-3.551 0-1.588.37-2.822 1.107-3.7s1.71-1.318 2.912-1.318c1.05 0 1.904.345 2.56 1.035.39.408.684.994.88 1.758l-1.717.456c-.102-.495-.314-.885-.636-1.172s-.714-.432-1.174-.432c-.637 0-1.153.254-1.55.762s-.595 1.33-.595 2.467c0 1.207.195 2.066.586 2.578s.898.768 1.523.768a1.64 1.64 0 0 0 1.189-.488c.332-.326.57-.838.715-1.537z" class="B D Q"/><g fill="url(#A)" class="O P"><path d="M159.34 104.765c0-3.6-3-6.72-6.72-6.72a6.71 6.71 0 1 0 0 13.44 6.71 6.71 0 0 0 6.72-6.72z"/><path d="M159.34 86.42c0-3.6-3-6.72-6.72-6.72a6.71 6.71 0 1 0 0 13.44 6.71 6.71 0 0 0 6.72-6.72z"/><path d="M159.34 123.115c0-3.6-3-6.72-6.72-6.72a6.71 6.71 0 1 0 0 13.44 6.71 6.71 0 0 0 6.72-6.72z"/></g><path d="M312.9 163.065h97.56V35.625H312.9v127.44z" class="D F"/><use xlink:href="#G" class="C E G H"/><use xlink:href="#H" class="I J"/><use xlink:href="#I" class="B K"/><g class="C"><use xlink:href="#J" class="L"/><use xlink:href="#K" class="M"/><g class="N"><use xlink:href="#L"/><path d="M318.145 77.108c.624 0 1.123-.525 1.123-1.171v-8c0-.647-.499-1.171-1.123-1.171s-1.248.525-1.248 1.171v8c0 .647.624 1.171 1.248 1.171zm0-12.634c.624 0 1.123-.525 1.123-1.172v-8.024c0-.647-.499-1.172-1.123-1.172s-1.248.525-1.248 1.172v8.013c0 .647.624 1.172 1.248 1.172zm0-12.634c.624 0 1.123-.525 1.123-1.171v-8c0-.647-.499-1.172-1.123-1.172s-1.248.525-1.248 1.172v8c0 .647.624 1.171 1.248 1.171zm86.861 25.268c.624 0 1.248-.525 1.248-1.171v-8c0-.647-.624-1.171-1.248-1.171s-1.123.525-1.123 1.171v8c0 .647.499 1.171 1.123 1.171zm0-12.634c.624 0 1.248-.525 1.248-1.172v-8.024c0-.647-.624-1.172-1.248-1.172s-1.123.525-1.123 1.172v8.013c0 .647.499 1.172 1.123 1.172zm0-12.634c.624 0 1.248-.525 1.248-1.171v-8c0-.647-.624-1.172-1.248-1.172s-1.123.525-1.123 1.172v8c0 .647.499 1.171 1.123 1.171zm-84.864-12.116c0 .775.624 1.406 1.373 1.406h8.861c.749 0 1.373-.63 1.373-1.406s-.624-1.406-1.373-1.406h-8.861c-.749 0-1.373.63-1.373 1.406zm14.227 0c0 .775.624 1.406 1.373 1.406h8.861c.874 0 1.498-.63 1.498-1.406s-.624-1.406-1.498-1.406h-8.861c-.749 0-1.373.63-1.373 1.406zm14.227 0c0 .775.624 1.406 1.498 1.406h8.861c.749 0 1.373-.63 1.373-1.406s-.624-1.406-1.373-1.406h-8.861c-.874 0-1.498.63-1.498 1.406zm14.352 0c0 .775.624 1.406 1.373 1.406h8.861c.749 0 1.373-.63 1.373-1.406s-.624-1.406-1.373-1.406h-8.861c-.749 0-1.373.63-1.373 1.406zm14.227 0c0 .775.624 1.406 1.373 1.406h8.985c.749 0 1.373-.63 1.373-1.406s-.624-1.406-1.373-1.406h-8.985c-.749 0-1.373.63-1.373 1.406zm14.227 0c0 .775.624 1.406 1.498 1.406h8.861c.749 0 1.373-.63 1.373-1.406s-.624-1.406-1.373-1.406H392.9c-.874 0-1.498.63-1.498 1.406zm-71.261 38.906c0 .775.624 1.406 1.373 1.406h8.861c.749 0 1.373-.63 1.373-1.406s-.624-1.406-1.373-1.406h-8.861c-.749 0-1.373.63-1.373 1.406zm14.227 0c0 .775.624 1.406 1.373 1.406h8.861c.874 0 1.498-.63 1.498-1.406s-.624-1.406-1.498-1.406h-8.861c-.749 0-1.373.63-1.373 1.406zm14.227 0c0 .775.624 1.406 1.498 1.406h8.861c.749 0 1.373-.63 1.373-1.406s-.624-1.406-1.373-1.406h-8.861c-.874 0-1.498.63-1.498 1.406zm14.352 0c0 .775.624 1.406 1.373 1.406h8.861c.749 0 1.373-.63 1.373-1.406s-.624-1.406-1.373-1.406h-8.861c-.749 0-1.373.63-1.373 1.406zm14.227 0c0 .775.624 1.406 1.373 1.406h8.985c.749 0 1.373-.63 1.373-1.406s-.624-1.406-1.373-1.406h-8.985c-.749 0-1.373.63-1.373 1.406zm14.227 0c0 .775.624 1.406 1.498 1.406h8.861c.749 0 1.373-.63 1.373-1.406s-.624-1.406-1.373-1.406H392.9c-.874 0-1.498.63-1.498 1.406zm-73.257 77.81c.624 0 1.123-.525 1.123-1.163v-8c0-.65-.499-1.175-1.123-1.175s-1.248.525-1.248 1.175v8c0 .625.624 1.163 1.248 1.163zm0-12.625c.624 0 1.123-.525 1.123-1.175v-8c0-.65-.499-1.175-1.123-1.175s-1.248.525-1.248 1.175v8c0 .65.624 1.175 1.248 1.175zm0-12.638c.624 0 1.123-.528 1.123-1.175v-8c0-.647-.499-1.173-1.123-1.173s-1.248.525-1.248 1.173v8c0 .646.624 1.175 1.248 1.175zm86.861 25.262c.624 0 1.248-.525 1.248-1.163v-8c0-.65-.624-1.175-1.248-1.175s-1.123.525-1.123 1.175v8c0 .625.499 1.163 1.123 1.163zm0-12.625c.624 0 1.248-.525 1.248-1.175v-8c0-.65-.624-1.175-1.248-1.175s-1.123.525-1.123 1.175v8c0 .65.499 1.175 1.123 1.175zm0-12.638c.624 0 1.248-.528 1.248-1.175v-8c0-.647-.624-1.173-1.248-1.173s-1.123.525-1.123 1.173v8c0 .646.499 1.175 1.123 1.175zm-84.864-12.118c0 .775.624 1.406 1.373 1.406h8.861c.749 0 1.373-.63 1.373-1.406s-.624-1.406-1.373-1.406h-8.861c-.749 0-1.373.63-1.373 1.406zm14.227 0c0 .775.624 1.406 1.373 1.406h8.861c.874 0 1.498-.63 1.498-1.406s-.624-1.406-1.498-1.406h-8.861c-.749 0-1.373.63-1.373 1.406zm14.227 0c0 .775.624 1.406 1.498 1.406h8.861c.749 0 1.373-.63 1.373-1.406s-.624-1.406-1.373-1.406h-8.861c-.874 0-1.498.63-1.498 1.406zm14.352 0c0 .775.624 1.406 1.373 1.406h8.861c.749 0 1.373-.63 1.373-1.406s-.624-1.406-1.373-1.406h-8.861c-.749 0-1.373.63-1.373 1.406zm14.227 0c0 .775.624 1.406 1.373 1.406h8.985c.749 0 1.373-.63 1.373-1.406s-.624-1.406-1.373-1.406h-8.985c-.749 0-1.373.63-1.373 1.406zm14.227 0c0 .775.624 1.406 1.498 1.406h8.861c.749 0 1.373-.63 1.373-1.406s-.624-1.406-1.373-1.406H392.9c-.874 0-1.498.63-1.498 1.406zm-71.261 38.905c0 .775.624 1.413 1.373 1.413h8.861c.749 0 1.373-.625 1.373-1.413s-.624-1.4-1.373-1.4h-8.861c-.749 0-1.373.625-1.373 1.4zm14.227 0c0 .775.624 1.413 1.373 1.413h8.861c.874 0 1.498-.625 1.498-1.413s-.624-1.4-1.498-1.4h-8.861c-.749 0-1.373.625-1.373 1.4zm14.227 0c0 .775.624 1.413 1.498 1.413h8.861c.749 0 1.373-.625 1.373-1.413s-.624-1.4-1.373-1.4h-8.861c-.874 0-1.498.625-1.498 1.4zm14.352 0c0 .775.624 1.413 1.373 1.413h8.861c.749 0 1.373-.625 1.373-1.413s-.624-1.4-1.373-1.4h-8.861c-.749 0-1.373.625-1.373 1.4zm14.227 0c0 .775.624 1.413 1.373 1.413h8.985c.749 0 1.373-.625 1.373-1.413s-.624-1.4-1.373-1.4h-8.985c-.749 0-1.373.625-1.373 1.4zm14.227 0c0 .775.624 1.413 1.498 1.413h8.861c.749 0 1.373-.625 1.373-1.413s-.624-1.4-1.373-1.4H392.9c-.874 0-1.498.625-1.498 1.4z"/></g></g><g class="D"><use xlink:href="#M" class="B"/><use xlink:href="#N" class="F"/></g><use xlink:href="#G" x="106.66" class="C E G H"/><use xlink:href="#H" x="106.66" class="I J"/><use xlink:href="#I" x="106.66" class="B K"/><g class="C"><use xlink:href="#J" x="106.66" class="L"/><use xlink:href="#K" x="106.66" class="M"/><g class="N"><use xlink:href="#L" x="106.66"/><use xlink:href="#O"/></g></g><g class="D"><use xlink:href="#M" x="106.66" class="B"/><use xlink:href="#N" x="106.65" class="F"/></g><use xlink:href="#G" x="213.31" class="C E G H"/><use xlink:href="#H" x="213.31" class="I J"/><use xlink:href="#I" x="213.31" class="B K"/><g class="C"><use xlink:href="#J" x="213.31" class="L"/><use xlink:href="#K" x="213.31" class="M"/><g class="N"><use xlink:href="#L" x="213.31"/><use xlink:href="#O" x="106.65"/></g></g><g class="D"><use xlink:href="#M" x="213.31" class="B"/><use xlink:href="#N" x="213.31" class="F"/></g><use xlink:href="#G" x="319.97" class="C E G H"/><use xlink:href="#H" x="319.97" class="I J"/><use xlink:href="#I" x="319.97" class="B K"/><g class="C"><use xlink:href="#J" x="319.97" class="L"/><use xlink:href="#K" x="319.97" class="M"/><g class="N"><use xlink:href="#L" x="319.97"/><use xlink:href="#O" x="213.31"/></g></g><g class="D"><use xlink:href="#M" x="319.97" class="B"/><use xlink:href="#N" x="319.96" class="F"/></g><use xlink:href="#G" x="426.62" class="C E G H"/><use xlink:href="#H" x="426.62" class="I J"/><use xlink:href="#I" x="426.62" class="B K"/><g class="C"><use xlink:href="#J" x="426.62" class="L"/><use xlink:href="#K" x="426.62" class="M"/><g class="N"><use xlink:href="#L" x="426.62"/><use xlink:href="#O" x="319.96"/></g></g><g class="D"><use xlink:href="#M" x="426.62" class="B"/><use xlink:href="#N" x="426.62" class="F"/></g><use xlink:href="#G" x="533.28" class="C E G H"/><use xlink:href="#H" x="533.28" class="I J"/><use xlink:href="#I" x="533.28" class="B K"/><g class="C"><use xlink:href="#J" x="533.28" class="L"/><use xlink:href="#K" x="533.28" class="M"/><g class="N"><use xlink:href="#L" x="533.28"/><use xlink:href="#O" x="426.62"/></g></g><g class="D"><use xlink:href="#M" x="533.28" class="B"/><use xlink:href="#N" x="533.27" class="F"/></g><use xlink:href="#G" x="639.93" class="C E G H"/><use xlink:href="#H" x="639.93" class="I J"/><use xlink:href="#I" x="639.93" class="B K"/><g class="C"><use xlink:href="#J" x="639.93" class="L"/><use xlink:href="#K" x="639.93" class="M"/><g class="N"><use xlink:href="#L" x="639.93"/><use xlink:href="#O" x="533.27"/></g></g><g class="D"><use xlink:href="#M" x="639.93" class="B"/><use xlink:href="#N" x="639.94" class="F"/></g><use xlink:href="#G" x="746.6" class="C E G H"/><use xlink:href="#H" x="746.6" class="I J"/><use xlink:href="#I" x="746.6" class="B K"/><g class="C"><use xlink:href="#J" x="746.6" class="L"/><use xlink:href="#K" x="746.6" class="M"/><g class="N"><use xlink:href="#L" x="746.6"/><use xlink:href="#O" x="639.94"/></g></g><g class="D"><use xlink:href="#M" x="746.6" class="B"/><use xlink:href="#N" x="746.54" class="F"/></g><use xlink:href="#G" x="853.2" class="C E G H"/><use xlink:href="#H" x="853.2" class="I J"/><use xlink:href="#I" x="853.2" class="B K"/><g class="C"><use xlink:href="#J" x="853.2" class="L"/><use xlink:href="#K" x="853.2" class="M"/><g class="N"><use xlink:href="#L" x="853.2"/><use xlink:href="#O" x="746.54"/></g></g><g class="D"><use xlink:href="#M" x="853.2" class="B"/><use xlink:href="#N" x="853.24" class="F"/></g><use xlink:href="#G" x="959.9" class="C E G H"/><use xlink:href="#H" x="959.9" class="I J"/><use xlink:href="#I" x="959.9" class="B K"/><g class="C"><use xlink:href="#J" x="959.9" class="L"/><use xlink:href="#K" x="959.9" class="M"/><g class="N"><use xlink:href="#L" x="959.9"/><use xlink:href="#O" x="853.24"/></g></g><g class="D"><use xlink:href="#M" x="959.9" class="B"/><use xlink:href="#N" x="959.84" class="F"/></g><use xlink:href="#G" x="1066.5" class="C E G H"/><use xlink:href="#H" x="1066.5" class="I J"/><use xlink:href="#I" x="1066.5" class="B K"/><g class="C"><use xlink:href="#J" x="1066.5" class="L"/><use xlink:href="#K" x="1066.5" class="M"/><g class="N"><use xlink:href="#L" x="1066.5"/><use xlink:href="#O" x="959.84"/></g></g><g class="D"><use xlink:href="#M" x="1066.5" class="B"/><use xlink:href="#N" x="1066.54" class="F"/></g><use xlink:href="#G" x="1173.2" class="C E G H"/><use xlink:href="#H" x="1173.2" class="I J"/><use xlink:href="#I" x="1173.2" class="B K"/><g class="C"><use xlink:href="#J" x="1173.2" class="L"/><use xlink:href="#K" x="1173.2" class="M"/><g class="N"><use xlink:href="#L" x="1173.2"/><use xlink:href="#O" x="1066.54"/></g></g><g class="D"><use xlink:href="#M" x="1173.2" class="B"/><use xlink:href="#N" x="1173.24" class="F"/></g><use xlink:href="#G" x="1279.9" class="C E G H"/><use xlink:href="#H" x="1279.9" class="I J"/><use xlink:href="#I" x="1279.9" class="B K"/><g class="C"><use xlink:href="#J" x="1279.9" class="L"/><use xlink:href="#K" x="1279.9" class="M"/><g class="N"><use xlink:href="#L" x="1279.9"/><use xlink:href="#O" x="1173.24"/></g></g><g class="D"><use xlink:href="#M" x="1279.9" class="B"/><use xlink:href="#N" x="1279.84" class="F"/></g><use xlink:href="#G" x="1386.5" class="C E G H"/><use xlink:href="#H" x="1386.5" class="I J"/><use xlink:href="#I" x="1386.5" class="B K"/><g class="C"><use xlink:href="#J" x="1386.5" class="L"/><use xlink:href="#K" x="1386.5" class="M"/><g class="N"><use xlink:href="#L" x="1386.5"/><use xlink:href="#O" x="1279.84"/></g></g><g class="D"><use xlink:href="#M" x="1386.5" class="B"/><use xlink:href="#N" x="1386.54" class="F"/></g><use xlink:href="#G" x="1493.2" class="C E G H"/><use xlink:href="#H" x="1493.2" class="I J"/><use xlink:href="#I" x="1493.2" class="B K"/><g class="C"><use xlink:href="#J" x="1493.2" class="L"/><use xlink:href="#K" x="1493.2" class="M"/><g class="N"><use xlink:href="#L" x="1493.2"/><use xlink:href="#O" x="1386.54"/></g></g><g class="D"><use xlink:href="#M" x="1493.2" class="B"/><use xlink:href="#N" x="1493.14" class="F"/></g><use xlink:href="#G" x="1599.8" class="C E G H"/><use xlink:href="#H" x="1599.8" class="I J"/><use xlink:href="#I" x="1599.8" class="B K"/><g class="C"><use xlink:href="#J" x="1599.8" class="L"/><use xlink:href="#K" x="1599.8" class="M"/><g class="N"><use xlink:href="#L" x="1599.8"/><use xlink:href="#O" x="1493.14"/></g></g><g class="D"><use xlink:href="#M" x="1599.8" class="B"/><use xlink:href="#N" x="1599.84" class="F"/></g><use xlink:href="#G" x="1706.5" class="C E G H"/><use xlink:href="#H" x="1706.5" class="I J"/><use xlink:href="#I" x="1706.5" class="B K"/><g class="C"><use xlink:href="#J" x="1706.5" class="L"/><use xlink:href="#K" x="1706.5" class="M"/><g class="N"><use xlink:href="#L" x="1706.5"/><use xlink:href="#O" x="1599.84"/></g></g><g class="D"><use xlink:href="#M" x="1706.5" class="B"/><g class="F"><path d="M2139.38 138.665c0-2.04-1.68-3.84-3.84-3.84a3.87 3.87 0 0 0-3.84 3.84c0 2.04 1.68 3.96 3.84 3.96s3.84-1.8 3.84-3.96zm0 15.6c0-2.04-1.68-3.72-3.84-3.72a3.79 3.79 0 1 0 0 7.68c2.16 0 3.84-1.68 3.84-3.84zm0-47.16c0-2.16-1.68-3.84-3.84-3.84s-3.84 1.8-3.84 3.96a3.79 3.79 0 0 0 3.84 3.84c2.16 0 3.84-1.68 3.84-3.84zm0 15.6c0-2.16-1.68-3.84-3.84-3.84s-3.84 1.92-3.84 4.08a3.79 3.79 0 0 0 3.84 3.84c2.16 0 3.84-1.68 3.84-3.84zm0-47.16c0-1.92-1.68-3.72-3.84-3.72a3.87 3.87 0 0 0-3.84 3.84 3.87 3.87 0 0 0 3.84 3.84c2.16 0 3.84-1.68 3.84-3.84zm0 15.6c0-2.16-1.68-3.84-3.84-3.84s-3.84 2.04-3.84 4.2a3.79 3.79 0 0 0 3.84 3.84c2.16 0 3.84-1.68 3.84-3.84zm0-31.44c0-1.8-1.68-3.48-3.84-3.48s-3.84 1.68-3.84 3.6 1.68 3.84 3.84 3.84 3.84-1.44 3.84-3.84zm0-15.6c0-2.16-1.68-3.84-3.84-3.84s-3.84 1.92-3.84 3.96a3.87 3.87 0 0 0 3.84 3.84c2.16 0 3.84-1.68 3.84-3.84z" class="E"/><use xlink:href="#N" x="-213.31"/></g></g><use xlink:href="#G" x="-106.65" class="C E G H"/><use xlink:href="#H" x="-106.65" class="I J"/><use xlink:href="#I" x="-106.65" class="B K"/><g class="C"><use xlink:href="#J" x="-106.65" class="L"/><use xlink:href="#K" x="-106.65" class="M"/><g class="N"><use xlink:href="#L" x="-106.65"/><use xlink:href="#O" x="-213.31"/></g></g><g class="D"><g class="B"><use xlink:href="#M" x="-106.65"/><path d="M2086.2 14.444h-10.56l5.28 9.84 5.28-9.84zm-37.6 9.676h10.56l-5.28-9.84-5.28 9.84zm-69.1-9.676h-10.56l5.28 9.84 5.28-9.84zM1942 24.12h10.56l-5.28-9.84-5.28 9.84zM273.06 14.444H262.5l5.28 9.84 5.28-9.84zm-37.54 9.676h10.56l-5.28-9.84-5.28 9.84zm144.19-9.676h-10.56l5.28 9.84 5.28-9.84zm-37.54 9.676h10.56l-5.28-9.84-5.28 9.84zm144.2-9.676h-10.56l5.28 9.84 5.28-9.84zm-37.54 9.676h10.56l-5.28-9.84-5.28 9.84zm144.19-9.676h-10.56l5.28 9.84 5.28-9.84zm-37.54 9.676h10.56l-5.28-9.84-5.28 9.84zm144.2-9.676h-10.56l5.28 9.84 5.28-9.84zm-37.54 9.676h10.56l-5.28-9.84-5.28 9.84zm144.19-9.676h-10.56l5.28 9.84 5.28-9.84zm-37.54 9.676h10.56l-5.28-9.84-5.28 9.84zm144.19-9.676h-10.56l5.28 9.84 5.28-9.84zm-37.54 9.676H886l-5.28-9.84-5.28 9.84zm144.16-9.676h-10.56l5.28 9.84 5.28-9.84zm-37.5 9.676h10.56l-5.28-9.84-5.28 9.84zm144.2-9.676h-10.56l5.28 9.84 5.28-9.84zm-37.5 9.676h10.56l-5.28-9.84-5.28 9.84zm144.1-9.676h-10.56l5.28 9.84 5.28-9.84zm-37.5 9.676h10.56l-5.28-9.84-5.28 9.84zm144.2-9.676h-10.56l5.28 9.84 5.28-9.84zm-37.5 9.676h10.56l-5.28-9.84-5.28 9.84zm144.2-9.676h-10.56l5.28 9.84 5.28-9.84zm-37.6 9.676h10.56l-5.28-9.84-5.28 9.84zm144.2-9.676h-10.56l5.28 9.84 5.28-9.84zm-37.5 9.676h10.56l-5.28-9.84-5.28 9.84zm144.2-9.676h-10.56l5.28 9.84 5.28-9.84zM1622 24.12h10.56l-5.28-9.84-5.28 9.84zm144.2-9.676h-10.56l5.28 9.84 5.28-9.84zm-37.5 9.676h10.56l-5.28-9.84-5.28 9.84zm144.2-9.676h-10.56l5.28 9.84 5.28-9.84zm-37.6 9.676h10.56l-5.28-9.84-5.28 9.84z"/></g><g class="B Q"><path d="M147.172 30.875h-2.161v8.222h2.161z"/><use xlink:href="#P"/><use xlink:href="#P" x="-22.559"/><path d="M171.398 32.823c-1.282 0-2.234.969-2.234 2.162s.952 2.164 2.234 2.164 2.236-.968 2.236-2.164-.955-2.162-2.236-2.162m4.526 2.162c0 2.352-1.892 4.258-4.526 4.258s-4.523-1.906-4.523-4.258 1.889-4.256 4.523-4.256 4.526 1.908 4.526 4.256m-20.556-2.241a7.67 7.67 0 0 0-1.69-.251c-.866 0-1.337.279-1.337.674 0 .501.635.676.991.783l.596.182c1.403.428 2.042 1.35 2.042 2.352 0 2.065-1.892 2.759-3.546 2.759a13.37 13.37 0 0 1-2.332-.225v-1.892c.19.046 1.097.306 2.041.306 1.075 0 1.57-.302 1.57-.768 0-.417-.428-.657-.964-.819l-.461-.143c-1.204-.365-2.207-1.044-2.207-2.405 0-1.538 1.199-2.57 3.192-2.57 1.052 0 2.042.245 2.106.262z"/><use xlink:href="#Q"/><use xlink:href="#R"/><use xlink:href="#S"/><use xlink:href="#R" x="11.788"/><use xlink:href="#T"/><use xlink:href="#Q" x="23.571"/><use xlink:href="#R" x="23.571"/><use xlink:href="#S" x="23.571"/><use xlink:href="#R" x="35.359"/><use xlink:href="#T" x="23.571"/><path d="M179.124 38.014v.129h-.382v.954h-.157v-.954h-.384v-.129zm.08 0h.246l.337.888h.005l.327-.888h.241v1.082h-.161v-.887h-.005l-.342.887h-.149l-.334-.887h-.008v.887h-.157z"/></g><path d="M2059.3 204.525h8.64v-6.24h-8.64v6.24zm13.4 0h8.64v-6.24h-8.64v6.24zm26.7 0h8.64v-6.24h-8.64v6.24zm13.4 0h8.64v-6.24h-8.64v6.24zm-147 0h8.64v-6.24h-8.64v6.24zm13.4 0h8.64v-6.24h-8.64v6.24zm13.3 0h8.64v-6.24h-8.64v6.24zm13.4 0h8.64v-6.24h-8.64v6.24zm13.4 0h8.64v-6.24h-8.64v6.24zm13.3 0h8.64v-6.24h-8.64v6.24zm-187 0h8.64v-6.24h-8.64v6.24zm13.4 0h8.64v-6.24H1859v6.24zm13.3 0h8.64v-6.24h-8.64v6.24zm13.4 0h8.64v-6.24h-8.64v6.24zm13.3 0h8.64v-6.24H1899v6.24zm26.8 0h8.64v-6.24h-8.64v6.24zm13.3 0h8.64v-6.24h-8.64v6.24zm-200.3 0h8.64v-6.24h-8.64v6.24zm13.3 0h8.64v-6.24h-8.64v6.24zm26.7 0h8.64v-6.24h-8.64v6.24zm13.4 0h8.64v-6.24h-8.64v6.24zm13.3 0h8.64v-6.24h-8.64v6.24zm13.4 0h8.64v-6.24h-8.64v6.24zm13.4 0h8.64v-6.24h-8.64v6.24zm-200.4 0h8.64v-6.24h-8.64v6.24zm13.3 0h8.64v-6.24h-8.64v6.24zm13.4 0h8.64v-6.24h-8.64v6.24zm13.4 0h8.64v-6.24H1672v6.24zm13.3 0h8.64v-6.24h-8.64v6.24zm13.4 0h8.64v-6.24h-8.64v6.24zm26.7 0h8.64v-6.24h-8.64v6.24zm-187 0h8.64v-6.24h-8.64v6.24zm13.3 0h8.64v-6.24h-8.64v6.24zm26.8 0h8.64v-6.24h-8.64v6.24zm13.3 0h8.64v-6.24h-8.64v6.24zm13.4 0h8.64v-6.24h-8.64v6.24zm13.3 0h8.64v-6.24h-8.64v6.24zm-187 0h8.64v-6.24h-8.64v6.24zm13.4 0h8.64v-6.24h-8.64v6.24zm13.3 0h8.64v-6.24h-8.64v6.24zm13.4 0h8.64v-6.24h-8.64v6.24zm13.4 0h8.64v-6.24H1485v6.24zm13.3 0h8.64v-6.24h-8.64v6.24zm13.4 0h8.64v-6.24h-8.64v6.24zm-200.4 0h8.64v-6.24h-8.64v6.24zm13.4 0h8.64v-6.24h-8.64v6.24zm26.7 0h8.64v-6.24h-8.64v6.24zm13.3 0h8.64v-6.24h-8.64v6.24zm26.7 0h8.64v-6.24h-8.64v6.24zm13.4 0h8.64v-6.24h-8.64v6.24zm-200.4 0h8.64v-6.24h-8.64v6.24zm13.4 0h8.64v-6.24h-8.64v6.24zm26.7 0h8.64v-6.24h-8.64v6.24zm13.4 0h8.64v-6.24h-8.64v6.24zm13.3 0h8.64v-6.24h-8.64v6.24zm13.4 0h8.64v-6.24h-8.64v6.24zm13.3 0h8.64v-6.24h-8.64v6.24zm-200.3 0h8.64v-6.24h-8.64v6.24zm13.3 0h8.64v-6.24h-8.64v6.24zm13.4 0h8.64v-6.24h-8.64v6.24zm13.4 0h8.64v-6.24h-8.64v6.24zm13.3 0h8.64v-6.24H1151v6.24zm13.4 0h8.64v-6.24h-8.64v6.24zm13.3 0h8.64v-6.24h-8.64v6.24zm-186.98 0h8.64v-6.24h-8.64v6.24zm13.38 0h8.64v-6.24h-8.64v6.24zm13.3 0h8.64v-6.24h-8.64v6.24zm13.4 0h8.64v-6.24h-8.64v6.24zm13.3 0h8.64v-6.24h-8.64v6.24zm13.4 0h8.64v-6.24h-8.64v6.24zm13.4 0h8.64v-6.24h-8.64v6.24zm13.3 0h8.64v-6.24h-8.64v6.24zm-200.34 0h8.64v-6.24h-8.64v6.24zm13.35 0h8.64v-6.24h-8.64v6.24zm13.36 0h8.64v-6.24h-8.64v6.24zm13.36 0h8.64v-6.24h-8.64v6.24zm13.36 0h8.64v-6.24h-8.64v6.24zm13.35 0h8.64v-6.24h-8.64v6.24zm13.36 0h8.64v-6.24H964v6.24zm13.36 0H986v-6.24h-8.64v6.24zm-200.37 0h8.64v-6.24h-8.64v6.24zm13.36 0h8.64v-6.24h-8.64v6.24zm13.36 0h8.64v-6.24h-8.64v6.24zm13.36 0h8.64v-6.24h-8.64v6.24zm13.35 0h8.64v-6.24h-8.64v6.24zm13.36 0h8.64v-6.24h-8.64v6.24zm13.36 0h8.64v-6.24h-8.64v6.24zm13.36 0h8.64v-6.24h-8.64v6.24zm-200.37 0h8.64v-6.24h-8.64v6.24zm13.36 0h8.64v-6.24h-8.64v6.24zm13.36 0h8.64v-6.24h-8.64v6.24zm13.36 0h8.64v-6.24h-8.64v6.24zm13.35 0h8.64v-6.24h-8.64v6.24zm13.36 0h8.64v-6.24h-8.64v6.24zm13.36 0h8.64v-6.24h-8.64v6.24zm13.36 0h8.64v-6.24h-8.64v6.24zm-200.37 0h8.64v-6.24h-8.64v6.24zm13.36 0h8.64v-6.24h-8.64v6.24zm13.36 0h8.64v-6.24h-8.64v6.24zm13.35 0h8.64v-6.24h-8.64v6.24zm13.36 0h8.64v-6.24h-8.64v6.24zm13.36 0h8.64v-6.24h-8.64v6.24zm13.36 0h8.64v-6.24h-8.64v6.24zm13.35 0h8.64v-6.24h-8.64v6.24zm-200.36 0h8.64v-6.24h-8.64v6.24zm13.36 0h8.64v-6.24h-8.64v6.24zm13.35 0h8.64v-6.24h-8.64v6.24zm13.36 0h8.64v-6.24h-8.64v6.24zm13.36 0h8.64v-6.24h-8.64v6.24zm13.36 0h8.64v-6.24h-8.64v6.24zm13.35 0h8.64v-6.24h-8.64v6.24zm13.36 0h8.64v-6.24h-8.64v6.24zm-200.36 0h8.64v-6.24h-8.64v6.24zm13.35 0h8.64v-6.24h-8.64v6.24zm13.36 0h8.64v-6.24h-8.64v6.24zm13.36 0h8.64v-6.24h-8.64v6.24zm13.36 0h8.64v-6.24h-8.64v6.24zm13.35 0h8.64v-6.24h-8.64v6.24zm13.36 0h8.64v-6.24h-8.64v6.24zm13.36 0h8.64v-6.24h-8.64v6.24zm-227.08 0h8.64v-6.24h-8.64v6.24zm13.36 0h8.64v-6.24h-8.64v6.24zm13.35 0h8.64v-6.24h-8.64v6.24zm13.36 0h8.64v-6.24h-8.64v6.24zm13.36 0h8.64v-6.24h-8.64v6.24zm13.36 0h8.64v-6.24h-8.64v6.24zm13.36 0h8.64v-6.24h-8.64v6.24zm13.35 0h8.64v-6.24h-8.64v6.24zm13.36 0h8.64v-6.24h-8.64v6.24zm13.36 0h8.64v-6.24h-8.64v6.24zm-133.58 0h8.64v-6.24h-8.64v6.24zm1883.49 0h8.64v-6.24h-8.64v6.24zm-133.6 0h8.64v-6.24h-8.64v6.24zm93.5 0h8.64v-6.24H2046v6.24zm-133.6 0h8.64v-6.24h-8.64v6.24zm-146.9 0h8.64v-6.24h-8.64v6.24zm-53.5 0h8.64v-6.24H1712v6.24zm-187 0h8.64v-6.24H1525v6.24zm40.1 0h8.64v-6.24h-8.64v6.24zm-146.9 0h8.64v-6.24h-8.64v6.24zm-80.2 0h8.64v-6.24H1338v6.24zm40.1 0h8.64v-6.24h-8.64v6.24zm-146.9 0h8.64v-6.24h-8.64v6.24zm-40.1 0h8.64v-6.24h-8.64v6.24z" class="O"/></g><path d="M2059.3 204.525h8.64v-3.12h-8.64v3.12zm13.4 0h8.64v-3.12h-8.64v3.12zm26.7 0h8.64v-3.12h-8.64v3.12zm13.4 0h8.64v-3.12h-8.64v3.12zm-147 0h8.64v-3.12h-8.64v3.12zm13.4 0h8.64v-3.12h-8.64v3.12zm13.3 0h8.64v-3.12h-8.64v3.12zm13.4 0h8.64v-3.12h-8.64v3.12zm13.4 0h8.64v-3.12h-8.64v3.12zm13.3 0h8.64v-3.12h-8.64v3.12zm-187 0h8.64v-3.12h-8.64v3.12zm13.4 0h8.64v-3.12H1859v3.12zm13.3 0h8.64v-3.12h-8.64v3.12zm13.4 0h8.64v-3.12h-8.64v3.12zm13.3 0h8.64v-3.12H1899v3.12zm26.8 0h8.64v-3.12h-8.64v3.12zm13.3 0h8.64v-3.12h-8.64v3.12zm-200.3 0h8.64v-3.12h-8.64v3.12zm13.3 0h8.64v-3.12h-8.64v3.12zm26.7 0h8.64v-3.12h-8.64v3.12zm13.4 0h8.64v-3.12h-8.64v3.12zm13.3 0h8.64v-3.12h-8.64v3.12zm13.4 0h8.64v-3.12h-8.64v3.12zm13.4 0h8.64v-3.12h-8.64v3.12zm-200.4 0h8.64v-3.12h-8.64v3.12zm13.3 0h8.64v-3.12h-8.64v3.12zm13.4 0h8.64v-3.12h-8.64v3.12zm13.4 0h8.64v-3.12H1672v3.12zm13.3 0h8.64v-3.12h-8.64v3.12zm13.4 0h8.64v-3.12h-8.64v3.12zm26.7 0h8.64v-3.12h-8.64v3.12zm-187 0h8.64v-3.12h-8.64v3.12zm13.3 0h8.64v-3.12h-8.64v3.12zm26.8 0h8.64v-3.12h-8.64v3.12zm13.3 0h8.64v-3.12h-8.64v3.12zm13.4 0h8.64v-3.12h-8.64v3.12zm13.3 0h8.64v-3.12h-8.64v3.12zm-187 0h8.64v-3.12h-8.64v3.12zm13.4 0h8.64v-3.12h-8.64v3.12zm13.3 0h8.64v-3.12h-8.64v3.12zm13.4 0h8.64v-3.12h-8.64v3.12zm13.4 0h8.64v-3.12H1485v3.12zm13.3 0h8.64v-3.12h-8.64v3.12zm13.4 0h8.64v-3.12h-8.64v3.12zm-200.4 0h8.64v-3.12h-8.64v3.12zm13.4 0h8.64v-3.12h-8.64v3.12zm26.7 0h8.64v-3.12h-8.64v3.12zm13.3 0h8.64v-3.12h-8.64v3.12zm26.7 0h8.64v-3.12h-8.64v3.12zm13.4 0h8.64v-3.12h-8.64v3.12zm-200.4 0h8.64v-3.12h-8.64v3.12zm13.4 0h8.64v-3.12h-8.64v3.12zm26.7 0h8.64v-3.12h-8.64v3.12zm13.4 0h8.64v-3.12h-8.64v3.12zm13.3 0h8.64v-3.12h-8.64v3.12zm13.4 0h8.64v-3.12h-8.64v3.12zm13.3 0h8.64v-3.12h-8.64v3.12zm-200.3 0h8.64v-3.12h-8.64v3.12zm13.3 0h8.64v-3.12h-8.64v3.12zm13.4 0h8.64v-3.12h-8.64v3.12zm13.4 0h8.64v-3.12h-8.64v3.12zm13.3 0h8.64v-3.12H1151v3.12zm13.4 0h8.64v-3.12h-8.64v3.12zm13.3 0h8.64v-3.12h-8.64v3.12zm-186.98 0h8.64v-3.12h-8.64v3.12zm13.38 0h8.64v-3.12h-8.64v3.12zm13.3 0h8.64v-3.12h-8.64v3.12zm13.4 0h8.64v-3.12h-8.64v3.12zm13.3 0h8.64v-3.12h-8.64v3.12zm13.4 0h8.64v-3.12h-8.64v3.12zm13.4 0h8.64v-3.12h-8.64v3.12zm13.3 0h8.64v-3.12h-8.64v3.12zm-200.34 0h8.64v-3.12h-8.64v3.12zm13.35 0h8.64v-3.12h-8.64v3.12zm13.36 0h8.64v-3.12h-8.64v3.12zm13.36 0h8.64v-3.12h-8.64v3.12zm13.36 0h8.64v-3.12h-8.64v3.12zm13.35 0h8.64v-3.12h-8.64v3.12zm13.36 0h8.64v-3.12H964v3.12zm13.36 0H986v-3.12h-8.64v3.12zm-200.37 0h8.64v-3.12h-8.64v3.12zm13.36 0h8.64v-3.12h-8.64v3.12zm13.36 0h8.64v-3.12h-8.64v3.12zm13.36 0h8.64v-3.12h-8.64v3.12zm13.35 0h8.64v-3.12h-8.64v3.12zm13.36 0h8.64v-3.12h-8.64v3.12zm13.36 0h8.64v-3.12h-8.64v3.12zm13.36 0h8.64v-3.12h-8.64v3.12zm-200.37 0h8.64v-3.12h-8.64v3.12zm13.36 0h8.64v-3.12h-8.64v3.12zm13.36 0h8.64v-3.12h-8.64v3.12zm13.36 0h8.64v-3.12h-8.64v3.12zm13.35 0h8.64v-3.12h-8.64v3.12zm13.36 0h8.64v-3.12h-8.64v3.12zm13.36 0h8.64v-3.12h-8.64v3.12zm13.36 0h8.64v-3.12h-8.64v3.12zm-200.37 0h8.64v-3.12h-8.64v3.12zm13.36 0h8.64v-3.12h-8.64v3.12zm13.36 0h8.64v-3.12h-8.64v3.12zm13.35 0h8.64v-3.12h-8.64v3.12zm13.36 0h8.64v-3.12h-8.64v3.12zm13.36 0h8.64v-3.12h-8.64v3.12zm13.36 0h8.64v-3.12h-8.64v3.12zm13.35 0h8.64v-3.12h-8.64v3.12zm-200.36 0h8.64v-3.12h-8.64v3.12zm13.36 0h8.64v-3.12h-8.64v3.12zm13.35 0h8.64v-3.12h-8.64v3.12zm13.36 0h8.64v-3.12h-8.64v3.12zm13.36 0h8.64v-3.12h-8.64v3.12zm13.36 0h8.64v-3.12h-8.64v3.12zm13.35 0h8.64v-3.12h-8.64v3.12zm13.36 0h8.64v-3.12h-8.64v3.12zm-200.36 0h8.64v-3.12h-8.64v3.12zm13.35 0h8.64v-3.12h-8.64v3.12zm13.36 0h8.64v-3.12h-8.64v3.12zm13.36 0h8.64v-3.12h-8.64v3.12zm13.36 0h8.64v-3.12h-8.64v3.12zm13.35 0h8.64v-3.12h-8.64v3.12zm13.36 0h8.64v-3.12h-8.64v3.12zm13.36 0h8.64v-3.12h-8.64v3.12zm-227.08 0h8.64v-3.12h-8.64v3.12zm13.36 0h8.64v-3.12h-8.64v3.12zm13.35 0h8.64v-3.12h-8.64v3.12zm13.36 0h8.64v-3.12h-8.64v3.12zm13.36 0h8.64v-3.12h-8.64v3.12zm13.36 0h8.64v-3.12h-8.64v3.12zm13.36 0h8.64v-3.12h-8.64v3.12zm13.35 0h8.64v-3.12h-8.64v3.12zm13.36 0h8.64v-3.12h-8.64v3.12zm13.36 0h8.64v-3.12h-8.64v3.12zm-133.58 0h8.64v-3.12h-8.64v3.12zm1883.49 0h8.64v-3.12h-8.64v3.12zm-133.6 0h8.64v-3.12h-8.64v3.12zm93.5 0h8.64v-3.12H2046v3.12zm-133.6 0h8.64v-3.12h-8.64v3.12zm-146.9 0h8.64v-3.12h-8.64v3.12zm-53.5 0h8.64v-3.12H1712v3.12zm-187 0h8.64v-3.12H1525v3.12zm40.1 0h8.64v-3.12h-8.64v3.12zm-146.9 0h8.64v-3.12h-8.64v3.12zm-80.2 0h8.64v-3.12H1338v3.12zm40.1 0h8.64v-3.12h-8.64v3.12zm-146.9 0h8.64v-3.12h-8.64v3.12zm-40.1 0h8.64v-3.12h-8.64v3.12z" stroke="#595959" class="G O"/><g class="D"><path d="M2099.4 190.695h8.64v-8.64h-8.64v8.64zm13.4 0h8.64v-8.64h-8.64v8.64zm-133.6 0h8.64v-8.64h-8.64v8.64zm13.3 0h8.64v-8.64h-8.64v8.64zm13.4 0h8.64v-8.64h-8.64v8.64zm13.4 0h8.64v-8.64h-8.64v8.64zm13.3 0h8.64v-8.64h-8.64v8.64zm-160.3 0h8.64v-8.64h-8.64v8.64zm13.4 0h8.64v-8.64h-8.64v8.64zm13.3 0h8.64v-8.64H1899v8.64zm13.4 0h8.64v-8.64h-8.64v8.64zm13.4 0h8.64v-8.64h-8.64v8.64zm13.3 0h8.64v-8.64h-8.64v8.64zm-173.6 0h8.64v-8.64h-8.64v8.64zm13.3 0h8.64v-8.64h-8.64v8.64zm13.4 0h8.64v-8.64h-8.64v8.64zm13.3 0h8.64v-8.64h-8.64v8.64zm13.4 0h8.64v-8.64h-8.64v8.64zm13.4 0h8.64v-8.64h-8.64v8.64zm-173.7 0h8.64v-8.64h-8.64v8.64zm13.4 0h8.64v-8.64H1672v8.64zm13.3 0h8.64v-8.64h-8.64v8.64zm13.4 0h8.64v-8.64h-8.64v8.64zm13.3 0h8.64v-8.64H1712v8.64zm13.4 0h8.64v-8.64h-8.64v8.64zm-173.7 0h8.64v-8.64h-8.64v8.64zm13.4 0h8.64v-8.64h-8.64v8.64zm13.4 0h8.64v-8.64h-8.64v8.64zm13.3 0h8.64v-8.64h-8.64v8.64zm13.4 0h8.64v-8.64h-8.64v8.64zm13.3 0h8.64v-8.64h-8.64v8.64zm-173.6 0h8.64v-8.64h-8.64v8.64zm13.3 0h8.64v-8.64h-8.64v8.64zm13.4 0h8.64v-8.64h-8.64v8.64zm13.4 0h8.64v-8.64H1485v8.64zm13.3 0h8.64v-8.64h-8.64v8.64zm13.4 0h8.64v-8.64h-8.64v8.64zm-173.7 0h8.64v-8.64H1338v8.64zm13.4 0h8.64v-8.64h-8.64v8.64zm13.3 0h8.64v-8.64h-8.64v8.64zm13.4 0h8.64v-8.64h-8.64v8.64zm13.3 0h8.64v-8.64h-8.64v8.64zm13.4 0h8.64v-8.64h-8.64v8.64zm-173.6 0h8.64v-8.64h-8.64v8.64zm13.3 0h8.64v-8.64h-8.64v8.64zm13.4 0h8.64v-8.64h-8.64v8.64zm13.3 0h8.64v-8.64h-8.64v8.64zm13.4 0h8.64v-8.64h-8.64v8.64zm13.3 0h8.64v-8.64h-8.64v8.64zm-173.6 0h8.64v-8.64h-8.64v8.64zm13.4 0h8.64v-8.64h-8.64v8.64zm13.3 0h8.64v-8.64H1151v8.64zm13.4 0h8.64v-8.64h-8.64v8.64zm13.3 0h8.64v-8.64h-8.64v8.64zm13.4 0h8.64v-8.64h-8.64v8.64zm-173.7 0h8.64v-8.64h-8.64v8.64zm13.4 0h8.64v-8.64h-8.64v8.64zm13.3 0h8.64v-8.64h-8.64v8.64zm13.4 0h8.64v-8.64h-8.64v8.64zm13.4 0h8.64v-8.64h-8.64v8.64zm13.3 0h8.64v-8.64h-8.64v8.64zm-173.63 0h8.64v-8.64h-8.64v8.64zm13.36 0h8.64v-8.64h-8.64v8.64zm13.36 0h8.64v-8.64h-8.64v8.64zm13.35 0h8.64v-8.64h-8.64v8.64zm13.36 0h8.64v-8.64H964v8.64zm13.36 0H986v-8.64h-8.64v8.64zm-173.65 0h8.64v-8.64h-8.64v8.64zm13.36 0h8.64v-8.64h-8.64v8.64zm13.35 0h8.64v-8.64h-8.64v8.64zm13.36 0h8.64v-8.64h-8.64v8.64zm13.36 0h8.64v-8.64h-8.64v8.64zm13.36 0h8.64v-8.64h-8.64v8.64zm-173.65 0h8.64v-8.64h-8.64v8.64zm13.36 0h8.64v-8.64h-8.64v8.64zm13.35 0h8.64v-8.64h-8.64v8.64zm13.36 0h8.64v-8.64h-8.64v8.64zm13.36 0h8.64v-8.64h-8.64v8.64zm13.36 0h8.64v-8.64h-8.64v8.64zm-173.65 0h8.64v-8.64h-8.64v8.64zm13.35 0h8.64v-8.64h-8.64v8.64zm13.36 0h8.64v-8.64h-8.64v8.64zm13.36 0h8.64v-8.64h-8.64v8.64zm13.36 0h8.64v-8.64h-8.64v8.64zm13.35 0h8.64v-8.64h-8.64v8.64zm-173.65 0h8.64v-8.64h-8.64v8.64zm13.36 0h8.64v-8.64h-8.64v8.64zm13.36 0h8.64v-8.64h-8.64v8.64zm13.36 0h8.64v-8.64h-8.64v8.64zm13.35 0h8.64v-8.64h-8.64v8.64zm13.36 0h8.64v-8.64h-8.64v8.64zm-173.65 0h8.64v-8.64h-8.64v8.64zm13.36 0h8.64v-8.64h-8.64v8.64zm13.36 0h8.64v-8.64h-8.64v8.64zm13.35 0h8.64v-8.64h-8.64v8.64zm13.36 0h8.64v-8.64h-8.64v8.64zm13.36 0h8.64v-8.64h-8.64v8.64zm-227.08 0h8.64v-8.64h-8.64v8.64zm13.36 0h8.64v-8.64h-8.64v8.64zm40.07 0h8.64v-8.64h-8.64v8.64zm13.36 0h8.64v-8.64h-8.64v8.64zm13.36 0h8.64v-8.64h-8.64v8.64zm13.35 0h8.64v-8.64h-8.64v8.64zm13.36 0h8.64v-8.64h-8.64v8.64zm13.36 0h8.64v-8.64h-8.64v8.64zm-133.58 0h8.64v-8.64h-8.64v8.64zm1883.49 0h8.64v-8.64h-8.64v8.64zm-40.1 0h8.64v-8.64H2046v8.64z" class="O"/><g class="B"><use xlink:href="#U"/><use xlink:href="#V"/><use xlink:href="#W"/><use xlink:href="#X"/><use xlink:href="#Y"/><use xlink:href="#Z"/><use xlink:href="#a"/><use xlink:href="#b"/><use xlink:href="#c"/><use xlink:href="#U" x="475.26"/><use xlink:href="#d"/><use xlink:href="#U" x="526.553"/><use xlink:href="#U" x="533.438"/><use xlink:href="#U" x="581.947"/><use xlink:href="#V" x="540.322"/><use xlink:href="#U" x="633.24"/><use xlink:href="#W" x="533.437"/><use xlink:href="#U" x="688.635"/><use xlink:href="#X" x="540.323"/><use xlink:href="#U" x="739.928"/><use xlink:href="#Y" x="533.438"/><use xlink:href="#U" x="795.322"/><use xlink:href="#Z" x="540.322"/><use xlink:href="#U" x="846.615"/><use xlink:href="#a" x="533.438"/><use xlink:href="#U" x="902.01"/><use xlink:href="#b" x="540.323"/><use xlink:href="#U" x="953.303"/><use xlink:href="#c" x="533.438"/><use xlink:href="#V" x="960.188"/><use xlink:href="#d" x="533.437"/><use xlink:href="#V" x="1011.481"/><use xlink:href="#U" x="1066.875"/><use xlink:href="#V" x="1066.875"/><use xlink:href="#V" x="1073.76"/><use xlink:href="#V" x="1118.168"/><use xlink:href="#W" x="1066.875"/><use xlink:href="#V" x="1173.563"/><use xlink:href="#X" x="1073.76"/><use xlink:href="#V" x="1224.856"/><use xlink:href="#Y" x="1066.876"/><use xlink:href="#V" x="1280.25"/><use xlink:href="#Z" x="1073.76"/><use xlink:href="#V" x="1331.543"/><use xlink:href="#a" x="1066.875"/><use xlink:href="#V" x="1386.938"/><use xlink:href="#b" x="1073.76"/><use xlink:href="#V" x="1438.231"/><use xlink:href="#c" x="1066.876"/><use xlink:href="#W" x="1435.447"/><use xlink:href="#d" x="1066.874"/><use xlink:href="#W" x="1486.74"/><use xlink:href="#U" x="1600.312"/><use xlink:href="#W" x="1542.135"/><use xlink:href="#V" x="1607.198"/><use xlink:href="#W" x="1593.428"/><use xlink:href="#W" x="1600.313"/><use xlink:href="#W" x="1648.822"/><use xlink:href="#X" x="1607.197"/><use xlink:href="#W" x="1700.115"/><use xlink:href="#Y" x="1600.313"/><use xlink:href="#W" x="1755.51"/><use xlink:href="#Z" x="1607.198"/><path d="M195.834 48.898v5.695h-1.129v-4.352l-1.348.418v-.918l2.355-.844h.121zm1.157 22.785v.91h-3.898v-.773l1.84-1.961q.379-.414.561-.723.182-.309.182-.586 0-.379-.191-.596-.191-.217-.547-.217-.383 0-.604.264-.221.264-.221.693h-1.133q0-.52.248-.949.248-.43.701-.674.453-.244 1.027-.244.879 0 1.365.422.486.422.486 1.191 0 .422-.219.859-.219.438-.75 1.02l-1.293 1.363h2.445zm-2.751 15.95v-.883h.602q.43 0 .637-.215.207-.215.207-.57 0-.344-.205-.535-.205-.191-.564-.191-.324 0-.543.178-.219.178-.219.463h-1.129q0-.445.24-.799.24-.354.672-.553.432-.199.951-.199.902 0 1.414.432.512.432.512 1.189 0 .391-.238.719-.238.328-.625.504.48.172.717.516.236.344.236.813 0 .758-.553 1.215-.553.457-1.463.457-.852 0-1.393-.449-.541-.449-.541-1.187h1.129q0 .32.24.523.24.203.592.203.402 0 .631-.213.229-.213.229-.564 0-.852-.937-.852h-.598zm2.192 14.773v3.547h.645v.91h-.645v1.23h-1.129v-1.23h-2.332l-.051-.711 2.371-3.746h1.141zm-1.203 1.668l-1.184 1.879h1.258v-2.008l-.074.129zm-65.498-14.98h-2.211v-5.687h1.992q1.035 0 1.57.396.535.396.535 1.162 0 .418-.215.736-.215.318-.598.467.438.109.689.441.252.332.252.813 0 .82-.523 1.242-.523.422-1.492.43zm.035-2.477h-1.074v1.535h1.004q.414 0 .646-.197.232-.197.232-.545 0-.781-.809-.793zm-1.074-2.262v1.434h.867q.887-.016.887-.707 0-.387-.225-.557-.225-.17-.709-.17h-.82zm7.227 2.844h1.172q-.066.918-.678 1.445-.611.527-1.611.527-1.094 0-1.721-.736-.627-.736-.627-2.021v-.348q0-.82.289-1.445.289-.625.826-.959.537-.334 1.248-.334.984 0 1.586.527.602.527.695 1.48h-1.172q-.043-.551-.307-.799-.264-.248-.803-.248-.586 0-.877.42-.291.42-.299 1.303v.43q0 .922.279 1.348.279.426.881.426.543 0 .811-.248.268-.248.307-.768z"/><use xlink:href="#e"/><use xlink:href="#f"/><path d="M137.985 101.406v.949h-1.742v4.738h-1.172v-4.738h-1.719v-.949h4.633z"/><use xlink:href="#f" x="9.805"/><path d="M131.551 122.711v.918h-2.25v1.523h2.641v.941h-3.812v-5.687h3.805v.949h-2.633v1.355h2.25z"/><use xlink:href="#e" x="-5.231" y="37"/><path d="M139.098 120.406l1.281 4.277 1.289-4.277h1.305l-1.98 5.688h-1.223l-1.973-5.687h1.301z"/></g></g></symbol></svg>