<svg xmlns="http://www.w3.org/2000/svg" xmlns:xlink="http://www.w3.org/1999/xlink" viewBox="0 0 2282 1472" fill="#fff" fill-rule="evenodd" stroke="#000" stroke-linecap="round" stroke-linejoin="round"><style><![CDATA[.B{stroke-width:.36}.C{stroke:gray}.D{stroke-linejoin:miter}.E{stroke-width:.399}.F{stroke:none}.G{stroke-width:1.2}.H{fill:#000}.I{stroke-width:.402}.J{fill:none}.K{fill:url(#F)}.L{fill:#bfbfbf}.M{fill:url(#E)}.N{stroke:#a5a5a5}.O{stroke-width:1.198}.P{stroke:#a6a6a6}.Q{fill:#a5a5a5}.R{fill:url(#C)}.S{fill:url(#D)}.T{fill:url(#G)}.U{fill:url(#H)}.V{stroke:#595959}.W{fill:#262626}.X{fill:url(#J)}.Y{stroke:#9a9a9a}.Z{fill:url(#N)}.a{fill:url(#O)}.b{fill:url(#P)}.c{stroke-width:1.205}.d{fill:url(#Q)}.e{fill:url(#R)}.f{fill:#d9d9d9}.g{fill-rule:nonzero}]]></style><use xlink:href="#g" x=".5" y=".5"/><defs><linearGradient id="A" x1="50%" y1="0%" x2="50%" y2="100%"><stop offset="0%" stop-color="#7f7f7f"/><stop offset="1%" stop-color="#7f7f7f"/><stop offset="50%" stop-color="#d8d8d8"/><stop offset="100%" stop-color="#7f7f7f"/></linearGradient><linearGradient id="B" x1="50%" y1="0%" x2="50%" y2="100%"><stop offset="0%" stop-color="#3f3f3f"/><stop offset="100%" stop-color="#a5a5a5"/></linearGradient><linearGradient id="C" x1="50%" y1="0%" x2="50%" y2="100%"><stop offset="0%" stop-color="#d8d8d8"/><stop offset="100%" stop-color="#7f7f7f"/></linearGradient><linearGradient id="D" x1="0%" y1="50%" x2="100%" y2="50%"><stop offset="0%" stop-color="#7f7f7f"/><stop offset="1%" stop-color="#7f7f7f"/><stop offset="50%" stop-color="#d8d8d8"/><stop offset="100%" stop-color="#7f7f7f"/></linearGradient><linearGradient id="E" x1="100%" y1="50%" x2="0%" y2="50%"><stop offset="0%" stop-color="#bfbfbf"/><stop offset="100%" stop-color="#7f7f7f"/></linearGradient><linearGradient id="F" x1="50%" y1="100%" x2="50%" y2="0%"><stop offset="0%" stop-color="#bfbfbf"/><stop offset="100%" stop-color="#7f7f7f"/></linearGradient><linearGradient id="G" x1="0%" y1="50%" x2="100%" y2="50%"><stop offset="0%" stop-color="#bfbfbf"/><stop offset="100%" stop-color="#7f7f7f"/></linearGradient><linearGradient id="H" x1="0%" y1="50%" x2="100%" y2="50%"><stop offset="0%" stop-color="#bfbfbf"/><stop offset="100%" stop-color="#7f7f7f"/></linearGradient><linearGradient id="I" x1="50%" y1="0%" x2="50%" y2="100%"><stop offset="0%" stop-color="#f2f2f2"/></linearGradient><linearGradient id="J" x1="50%" y1="0%" x2="50%" y2="100%"><stop offset="0%" stop-color="#bfbfbf"/><stop offset="1%" stop-color="#bfbfbf"/><stop offset="50%" stop-color="#fff"/><stop offset="100%" stop-color="#bfbfbf"/></linearGradient><linearGradient id="K" x1="50%" y1="100%" x2="50%" y2="0%"><stop offset="0%" stop-color="#3f3f3f"/><stop offset="100%" stop-color="#a5a5a5"/></linearGradient><linearGradient id="L" x1="100%" y1="50%" x2="0%" y2="50%"><stop offset="0%" stop-color="#d8d8d8"/><stop offset="100%" stop-color="#7f7f7f"/></linearGradient><linearGradient id="M" x1="0%" y1="50%" x2="100%" y2="50%"><stop offset="0%" stop-color="#d8d8d8"/><stop offset="100%" stop-color="#7f7f7f"/></linearGradient><linearGradient id="N" x1="50%" y1="0%" x2="50%" y2="100%"><stop offset="0%" stop-color="#d8d8d8"/><stop offset="1%" stop-color="#d8d8d8"/><stop offset="50%" stop-color="#f2f2f2"/><stop offset="100%" stop-color="#d8d8d8"/></linearGradient><linearGradient id="O" x1="50%" y1="0%" x2="50%" y2="100%"><stop offset="0%" stop-color="#d8d8d8"/><stop offset="1%" stop-color="#d8d8d8"/><stop offset="50%" stop-color="#fff"/><stop offset="100%" stop-color="#d8d8d8"/></linearGradient><radialGradient id="P" r="100%" fx="50%" fy="50%" cx="50%" cy="50%"><stop offset="0%" stop-color="#e2e2e2"/><stop offset="71%" stop-color="#d8d8d8"/></radialGradient><radialGradient id="Q" r="100%" fx="50%" fy="50%" cx="50%" cy="50%"><stop offset="0%" stop-color="#bdbdbd"/><stop offset="100%" stop-color="#a5a5a5"/></radialGradient><radialGradient id="R" r="100%" fx="50%" fy="50%" cx="50%" cy="50%"><stop offset="0%" stop-color="#9d9d9d"/><stop offset="100%" stop-color="#7f7f7f"/></radialGradient><path id="S" d="M790.395 1146.942v-108.24h-623.52v204.84h623.52v-54.6h-16.44v-42h16.44z"/><path id="T" d="M915.065 1209.362a11.27 11.27 0 1 0-22.56 0 11.27 11.27 0 1 0 22.56 0z"/><path id="U" d="M653.745 1001.342a15.01 15.01 0 0 0-15-15 15.01 15.01 0 0 0-15 15 15.01 15.01 0 0 0 15 15 15.01 15.01 0 0 0 15-15z"/><path id="V" d="M642.955 1001.342c0-2.28-1.92-4.2-4.2-4.2s-4.2 1.92-4.2 4.2 1.92 4.2 4.2 4.2 4.2-1.92 4.2-4.2z"/><path id="W" d="M879.115 1001.102l-2.76 2.28v9.36l2.76 2.4h89.04v-14.04h-89.04z"/><path id="X" d="M849.653 1091.304h2.051q-.116 1.606-1.186 2.529-1.07.923-2.82.923-1.914 0-3.011-1.289-1.097-1.289-1.097-3.538v-.608q0-1.436.506-2.529.506-1.094 1.446-1.678.94-.584 2.184-.584 1.723 0 2.775.923 1.053.923 1.217 2.591h-2.051q-.075-.964-.537-1.398-.461-.434-1.405-.434-1.025 0-1.535.735-.509.735-.523 2.28v.752q0 1.613.489 2.358.489.745 1.542.745.95 0 1.418-.434.468-.434.537-1.343z"/><path id="Y" d="M860.639 1092.576q0-.362-.359-.571-.359-.208-1.152-.373-2.639-.554-2.639-2.242 0-.984.817-1.644.817-.66 2.136-.66 1.408 0 2.252.663.844.663.844 1.723h-1.976q0-.424-.273-.701-.273-.277-.854-.277-.499 0-.772.226-.273.226-.273.574 0 .328.311.53.311.202 1.049.349.738.147 1.244.332 1.565.574 1.565 1.989 0 1.012-.868 1.637-.868.625-2.242.625-.93 0-1.651-.332-.721-.332-1.131-.909-.41-.578-.41-1.248h1.873q.027.526.39.807.362.28.971.28.567 0 .858-.215.291-.215.291-.564z"/><path id="Z" d="M890.758 1084.667v9.953h-2.051l-3.992-6.549v6.549h-2.051v-9.953h2.051l3.999 6.563v-6.562h2.044z"/><path id="a" d="M971.374 1237.009q0-.581-.41-.892-.41-.311-1.477-.656-1.066-.345-1.688-.68-1.695-.916-1.695-2.468 0-.807.455-1.439.455-.632 1.306-.988.851-.355 1.911-.355 1.066 0 1.9.386.834.386 1.295 1.09.461.704.461 1.6h-2.051q0-.684-.431-1.063-.431-.379-1.21-.379-.752 0-1.169.318-.417.318-.417.837 0 .485.489.813.489.328 1.439.615 1.75.526 2.55 1.306.8.779.8 1.941 0 1.292-.978 2.027-.978.735-2.632.735-1.148 0-2.092-.42-.943-.42-1.439-1.152-.496-.731-.496-1.695h2.058q0 1.647 1.969 1.647.731 0 1.142-.297.41-.297.41-.831z"/><path id="b" d="M980.295 1229.667h2.058v6.556q0 1.634-1.022 2.584-1.022.95-2.792.95-1.743 0-2.769-.923-1.025-.923-1.046-2.536v-6.631h2.051v6.569q0 .978.468 1.425.468.448 1.295.448 1.729 0 1.757-1.818v-6.624z"/><path id="c" d="M987.883 1236.113h-1.798v3.507h-2.051v-9.953h3.883q1.121 0 1.972.41.851.41 1.309 1.166.458.755.458 1.719 0 1.463-1.001 2.307-1.001.844-2.772.844zm-1.798-4.785v3.124h1.832q.813 0 1.241-.383.427-.383.427-1.094 0-.731-.431-1.183-.431-.451-1.189-.465h-1.88z"/><path id="d" d="M1046.771 1233.898v1.654h-3.937v4.067h-2.051v-9.953h6.48v1.661h-4.43v2.57h3.938z"/><path id="e" d="M1053.45 1239.62l-.69-2.051h-3.596l-.684 2.051h-2.181l3.705-9.953h1.9l3.726 9.953h-2.181zm-2.495-7.437l-1.237 3.726h2.488l-1.251-3.726z"/><path id="f" d="M1128.88 1229.667h2.68l2.557 7.219 2.543-7.219h2.693v9.953h-2.058v-2.721l.205-4.696-2.687 7.417h-1.408l-2.68-7.41.205 4.689v2.721h-2.051v-9.953z"/></defs><symbol id="g" overflow="visible"><path d="M39.24 253.842h-8.88c-6.48 0-12-5.28-12-11.76s5.28-11.76 11.76-11.76h22.8c6.48-.12 12 5.16 12 11.64s-5.28 12-11.76 12H39.24zm0 74.76h-8.88c-6.48 0-12-5.28-12-11.76s5.28-11.76 11.76-11.76h22.8c6.48 0 12 5.28 12 11.76s-5.28 11.76-11.76 12H39.24zm0-135.6h-8.88c-6.48 0-12-5.16-12-11.76s5.28-11.76 11.76-11.76h22.8c6.48 0 12 5.16 12 11.76s-5.28 11.76-11.76 11.76H39.24zm0 210.36h-8.88c-6.48 0-12-5.28-12-11.76s5.28-11.76 11.76-11.76h22.8c6.48 0 12 5.28 12 11.76s-5.28 11.76-11.76 12H39.24zm0-285.12h-8.88c-6.48 0-12-5.28-12-11.76s5.28-11.76 11.76-12h22.8c6.48 0 12 5.28 12 11.76s-5.28 12-11.76 12H39.24zm0-75.12h-8.88c-6.48.12-12-5.16-12-11.64s5.28-12 11.76-12h22.8c6.48 0 12 5.28 12 11.76s-5.28 11.76-11.76 11.76H39.24zm0 840h-8.88c-6.48 0-12-5.28-12-11.76s5.28-11.76 11.76-11.76h22.8c6.48 0 12 5.28 12 11.76s-5.28 11.76-11.76 12H39.24zm0 150h-8.88c-6.48 0-12-5.28-12-11.76s5.28-11.76 11.76-12h22.8c6.48 0 12 5.28 12 11.76s-5.28 11.76-11.76 12H39.24zm0-209.76h-8.88c-6.48 0-12-5.28-12-11.76s5.28-11.76 11.76-12h22.8c6.48 0 12 5.28 12 11.76s-5.28 11.76-11.76 11.76H39.24zm0 134.88h-8.88c-6.48 0-12-5.28-12-11.76s5.28-11.76 11.76-11.76h22.8c6.48 0 12 5.28 12 11.76s-5.28 11.76-11.76 11.76H39.24zm0-284.4h-8.88c-6.48 0-12-5.28-12-11.76s5.28-11.76 11.76-11.76h22.8c6.48 0 12 5.28 12 11.76s-5.28 11.76-11.76 12H39.24zm0 74.76h-8.88c-6.48 0-12-5.28-12-11.76s5.28-11.76 11.76-12h22.8c6.48 0 12 5.28 12 11.76s-5.28 11.76-11.76 12H39.24zm0-210.36h-8.88c-6.48 0-12-5.28-12-11.76s5.28-11.76 11.76-11.76h22.8c6.48 0 12 5.28 12 11.76s-5.28 11.76-11.76 11.76H39.24zm0 74.76h-8.88c-6.48 0-12-5.28-12-11.76s5.28-11.76 11.76-11.76h22.8c6.48 0 12 5.28 12 11.76s-5.28 11.76-11.76 12H39.24zm0-150h-8.88c-6.48 0-12-5.28-12-11.76s5.28-11.76 11.76-12h22.8c6.48 0 12 5.28 12 11.76s-5.4 11.04-11.88 12.24h-13.8zm2196.96 210.6h-8.88c-6.48 0-11.76-5.28-11.76-11.76s5.16-11.76 11.76-11.76h22.8c6.48 0 11.76 5.28 12 11.76s-5.28 11.76-12 12h-13.8zm0 359.28h-8.88c-6.48 0-11.76-5.28-11.76-11.76s5.16-11.76 11.76-12h22.8c6.48 0 11.76 5.28 12 11.76s-5.28 11.76-12 12h-13.8zm0-420h-8.88c-6.48 0-11.76-5.28-11.76-11.76s5.16-11.76 11.76-11.76h22.8c6.48 0 11.76 5.28 12 11.76s-5.28 11.76-12 12h-13.8zm0 135.6h-8.88c-6.48 0-11.76-5.28-11.76-11.76s5.16-11.76 11.76-12h22.8c6.48 0 11.76 5.28 12 11.76s-5.28 11.76-12 12h-13.8zm0-210.36h-8.88c-6.48 0-11.76-5.28-11.76-11.76s5.16-11.76 11.76-11.76h22.8c6.48 0 11.76 5.28 12 11.76s-5.28 11.76-12 11.76h-13.8zm0-75h-8.88c-6.48 0-11.76-5.28-11.76-11.76s5.16-11.76 11.76-12h22.8c6.48 0 11.76 5.28 12 11.76s-5.28 11.76-12 11.76h-13.8zm0-60h-8.88c-6.48 0-11.76-5.28-11.76-11.76s5.16-11.76 11.76-11.76h22.8c6.48 0 11.76 5.28 12 11.76s-5.28 11.76-12 12h-13.8zm0 554.88h-8.88c-6.48 0-11.76-5.28-11.76-11.76s5.16-11.76 11.76-11.76h22.8c6.48 0 11.76 5.28 12 11.76s-5.28 11.76-12 11.76h-13.8zm0-75h-8.88c-6.48 0-11.76-5.28-11.76-11.76s5.16-11.76 11.76-11.76h22.8c6.48 0 11.76 5.28 12 11.76s-5.28 11.76-12 12h-13.8zm0-60h-8.88c-6.48 0-11.76-5.28-11.76-11.76s5.16-11.76 11.76-12h22.8c6.48 0 11.76 5.28 12 11.76s-5.28 11.76-12 11.76h-13.8zm0-494.76h-8.88c-6.48 0-11.76-5.28-11.76-11.76s5.16-11.76 11.76-11.76h22.8c6.48 0 11.76 5.28 12 11.76s-5.28 11.76-12 12h-13.8zm0-74.76h-8.88c-6.48 0-11.76-5.28-11.76-11.76s5.16-11.76 11.76-11.76h22.8c6.48-.12 11.76 5.16 12 11.64s-5.28 12-12 12h-13.8zm0-60.72h-8.88c-6.48 0-11.76-5.16-11.76-11.76s5.16-11.76 11.76-11.76h22.8c6.48 0 11.76 5.16 12 11.76s-5.28 11.76-12 11.76h-13.8zm0-74.76h-8.88c-6.48 0-11.76-5.28-11.76-11.76s5.16-11.76 11.76-12h22.8c6.488.064 11.751 5.273 11.88 11.76 0 6.6-5.28 12-12 12h-13.8zm0-75.12h-8.88c-6.48.12-11.76-5.16-11.76-11.64s5.16-12 11.76-12h22.8c6.488.064 11.751 5.273 11.88 11.76 0 6.48-5.28 11.76-12 11.76h-13.8zM24 1470.042h2232c13.208 0 23.934-10.672 24-23.88v-1422c-.066-13.208-10.792-23.88-24-23.88H24C10.792.282.066 10.954 0 24.162v1421.88c0 13.255 10.745 24 24 24zm15.12-376.2h-8.76c-6.48 0-12-5.28-12-11.76s5.28-11.76 11.76-12h22.8c6.48 0 12 5.28 12 11.76s-5.28 11.76-11.76 12H39.24zm0 74.76h-8.76c-6.48 0-12-5.28-12-11.76s5.28-11.76 11.76-12h22.8c6.48 0 12 5.28 12 11.76s-5.28 11.76-11.76 12H39.24zm0 74.76h-8.76c-6.48 0-12-5.28-12-11.76s5.28-11.76 11.76-12h22.8c6.48 0 12 5.28 12 11.76s-5.28 11.76-11.76 12H39.24zm0 60h-8.76c-6.48 0-12-5.28-12-11.76s5.28-11.76 11.76-12h22.8c6.48 0 12 5.28 12 11.76s-5.28 11.76-11.76 12H39.24zm0 75h-8.76c-6.48 0-12-5.28-12-11.76s5.28-11.76 11.76-12h22.8c6.48 0 12 5.28 12 11.76s-5.28 11.76-11.76 12H39.24zm0 74.76h-8.76c-6.48 0-12-5.28-12-11.76s5.28-11.76 11.76-12h22.8c6.48 0 12 5.28 12 11.76s-5.28 11.76-11.76 12H39.24zm2196.96-359.28h-8.88c-6.48 0-11.76-5.28-11.76-11.76s5.16-11.76 11.76-12h22.8c6.48 0 11.76 5.28 12 11.76s-5.28 11.76-12 12h-13.8zm0 74.76h-8.88c-6.48 0-11.76-5.28-11.76-11.76s5.16-11.76 11.76-12h22.8c6.48 0 11.76 5.28 12 11.76s-5.28 11.76-12 12h-13.8zm0 74.76h-8.88c-6.48 0-11.76-5.28-11.76-11.76s5.16-11.76 11.76-12h22.8c6.48 0 11.76 5.28 12 11.76s-5.28 11.76-12 12h-13.8zm0 60h-8.88c-6.48 0-11.76-5.28-11.76-11.76s5.16-11.76 11.76-12h22.8c6.48 0 11.76 5.28 12 11.76s-5.28 11.76-12 12h-13.8zm0 75h-8.88c-6.48 0-11.76-5.28-11.76-11.76s5.16-11.76 11.76-12h22.8c6.48 0 11.76 5.28 12 11.76s-5.28 11.76-12 12h-13.8zm0 74.76h-8.88c-6.48 0-11.76-5.28-11.76-11.76s5.16-11.76 11.76-12h22.8c6.48 0 11.76 5.28 12 11.76s-5.28 11.76-12 12h-13.8z" stroke="#8c8c8c" class="B D f"/><path d="M90 .042h2100v1470H90z" fill="#3f3f3f" class="F"/><g class="C"><path d="M804.365 1044.502v5.64h-5.64c-.48-2.64 1.44-5.16 4.08-5.64zm0 406.8c-2.64.48-5.28-1.32-5.64-3.96l5.64-1.56v5.64zm0 5.64h680.64v-168.72c0-3.24-2.4-6-5.64-6.6h-3.6v-53.4h3.6c3.12 0 5.64-2.4 5.64-5.52v-142.56a7.2 7.2 0 0 0-6.84-7.44l-.6-33.6h-26.4v16.8h-3.6v-16.8h-643.2c-5.76-.48-12 3.6-11.28 9.6v397.2c0 6 4.8 11.04 11.04 11.04z" class="B D L"/><path d="M108.005 1470.043h2060.368v-11.225H108.005v11.225z" fill="url(#A)" class="E"/><g class="B"><path d="M101.245 1378.142h6.6v91.92c-3.24 0-6-2.4-6.6-5.64v-86.28z" class="D Q"/><path fill="url(#B)" d="M101.245 1387.502v-9.36h6.6v9.36"/></g><path d="M90 1462.542h11.23v1.872c.003 3.101-2.508 5.617-5.609 5.62s-5.618-2.508-5.621-5.609v-1.883z" class="D E R"/></g><path d="M95.625 1462.542v2.4" class="G J"/><g class="C"><path d="M90 1376.242h11.23v86.097H90v-86.097z" class="E S"/><g class="B"><path d="M2178.725 1378.142h-6.6v91.92c3.24 0 6-2.4 6.6-5.64v-86.28z" class="D Q"/><path fill="url(#B)" d="M2172.125 1387.502v-9.36h6.6v9.36"/></g><path d="M2190.025 1462.542h-11.23v1.872c-.003 3.101 2.508 5.617 5.61 5.62s5.618-2.508 5.62-5.609v-1.883z" class="D E R"/></g><path d="M2184.425 1462.542v2.4" class="G J"/><g class="C"><path d="M2190.025 1376.242h-11.23v86.097h11.23v-86.097z" class="E S"/><g class="B"><path d="M150.025 1453.342v-3.6h3.6c-.12 2.04-1.68 3.6-3.6 3.6zm-37.68-3.84h3.6v3.6c-1.68 0-3.36-1.68-3.6-3.6zm-3.6 0c.24 4.08 3.6 7.2 7.56 7.56h33.6c4.08-.24 7.2-3.6 7.56-7.44v-403.2h-3.6v24.36h-3.6v-24.36h-33.6v24.36h-7.92v378.72zm3.6-163.2v-52.44h6.6v52.56h-6.6zm34.8 0v-52.44h6.6v52.56h-6.6z" class="D L"/><path d="M116.305 1286.242h-7.56v163.2h7.56" class="M"/><path d="M33.691 7.487V0H0v7.487" transform="matrix(-1 0 0 -1 150.08555 1456.86865)" class="K"/></g></g><g transform="translate(149.935 1286.342)"><path d="M0 0h7.56v163.2H0" class="B C T"/></g><g transform="matrix(-1 0 0 -1 147.14495 1286.342)"><path d="M28.08 13.2V0H0v13.2" class="B C K"/></g><path d="M116.305 1070.642h-7.56v163.2h7.56" class="B C M"/><g transform="matrix(-1 0 0 -1 150.24995 1070.702)"><path d="M33.563 7.56V0H0v7.56" class="B C K"/></g><g transform="translate(149.935 1070.642)"><path d="M0 0h7.56v163.2H0" class="B C T"/></g><g class="B C"><g class="K"><path d="M28.08 13.2V0H0v13.2" transform="matrix(-1 0 0 -1 147.14495 1246.9421)"/><path d="M116.687 1053.902v-7.56h33.562v7.56"/></g><g class="D"><use xlink:href="#S" class="f"/><path d="M2163.345 1447.562a6 6 0 0 1-6 5.28h-24.72a6 6 0 0 1-6-5.28h36.6zm0-397.56h-36.72a6 6 0 0 1 6-5.16h24.72a6 6 0 0 1 6 5.28zm-30.72 408.84h24.72a12 12 0 0 0 12-12v-396a12 12 0 0 0-12-12h-24.72a12 12 0 0 0-12 12v396c0 6.627 5.373 12 12 12z" class="L"/></g><path d="M2128.185 1050.102h-7.56v397.44h7.56" class="M"/></g><g transform="translate(2161.865 1050.042)"><path d="M0 0h7.56v397.44H0" class="B C T"/></g><g fill="#3f3f3f" class="F"><use xlink:href="#T"/><use xlink:href="#T" x="74.37"/><use xlink:href="#T" x="148.72"/><use xlink:href="#T" x="223.12"/><use xlink:href="#T" x="297.52"/><use xlink:href="#T" x="371.92"/><use xlink:href="#T" x="446.22"/></g><path d="M804.375 1050.122v-11.28h643.2v11.28" class="B C K"/><g transform="matrix(-1 0 0 -1 1447.57505 1456.942)"><path d="M643.2 11.28V0H0v11.28" class="B C K"/></g><path d="M804.405 1050.002h-11.28v395.64h11.28" class="B C M"/><path d="M982.565 1436.342h22.44v-22.44m-157.44-105h-22.56v22.56" class="G J"/><g class="D"><g class="B C f"><use xlink:href="#S" y="208.9"/><use xlink:href="#S" x="1327.53"/><use xlink:href="#S" x="1327.53" y="208.9"/></g><path d="M269.845 806.322v-5.64c2.64-.48 5.16 1.44 5.64 4.08l-5.64 1.56zm11.4 165.12v-165c0-6-4.8-11.16-11.04-11.28h-153.96v240h165v-26.4h-22.44v-37.32h22.56z" class="B C L"/></g><g class="U"><path d="M269.975 1008.842h11.28v26.4h-11.28" class="B C"/><path d="M269.975 806.292h11.28v165h-11.28" class="B C"/></g><path d="M116.245 806.322v-11.28h153.6v11.28" class="B C K"/><path d="M105.06 909.422H217.5c4.08 0 7.56-3.36 7.56-7.44v-86.4c0-4.2-3.36-7.44-7.44-7.44H105.06c-4.2 0-7.56 3.36-7.56 7.68v86.4c0 3.84 3.36 7.2 7.56 7.2z" class="G J V"/><path d="M140.325 860.805l3.586-.4c.216 1.416.654 2.456 1.314 3.12s1.55.996 2.67.996c1.187 0 2.08-.295 2.683-.886s.903-1.282.903-2.073c0-.508-.127-.94-.38-1.296s-.695-.666-1.326-.93c-.432-.176-1.415-.488-2.95-.937-1.976-.576-3.362-1.284-4.16-2.124-1.12-1.182-1.68-2.622-1.68-4.322 0-1.093.264-2.116.79-3.068a5.21 5.21 0 0 1 2.279-2.176c.992-.498 2.19-.747 3.592-.747 2.29 0 4.015.59 5.173 1.773s1.766 2.758 1.824 4.73l-3.685.19c-.158-1.104-.496-1.897-1.015-2.38s-1.297-.725-2.335-.725c-1.07 0-1.91.26-2.515.776-.4.332-.585.777-.585 1.333 0 .508.183.943.548 1.304.465.46 1.594.938 3.387 1.436s3.12 1.013 3.978 1.545 1.53 1.26 2.017 2.183.728 2.063.728 3.42a7.28 7.28 0 0 1-.87 3.457 5.52 5.52 0 0 1-2.466 2.395c-1.061.513-2.385.773-3.971.773-2.307 0-4.079-.627-5.316-1.88s-1.976-3.085-2.218-5.487zm17.91-14.488h3.686v11.63l.137 3.59c.158.88.533 1.585 1.127 2.117s1.405.798 2.434.798c1.046 0 1.834-.252 2.366-.754s.85-1.12.958-1.853.162-1.948.162-3.647v-11.88h3.686v11.28c0 2.578-.1 4.4-.3 5.464s-.567 1.963-1.102 2.695-1.25 1.316-2.148 1.75-2.067.652-3.51.652c-1.743 0-3.065-.237-3.966-.7s-1.612-1.09-2.135-1.846-.868-1.55-1.034-2.38c-.24-1.23-.36-3.047-.36-5.45zm18.025 21.475v-21.475h5.915c2.24 0 3.702.108 4.382.323 1.046.322 1.922 1.023 2.628 2.102s1.058 2.473 1.058 4.182c0 1.318-.203 2.427-.6 3.325s-.924 1.604-1.55 2.117-1.264.852-1.912 1.018c-.88.205-2.154.308-3.822.308h-2.414v8.1zm3.686-17.842v6.094h2.017c1.452 0 2.424-.112 2.913-.337s.874-.576 1.152-1.055.417-1.035.417-1.67c0-.78-.195-1.425-.585-1.933s-.884-.825-1.482-.952c-.44-.098-1.324-.147-2.652-.147zm29.495 17.842h-3.5v-15.513c-1.278 1.407-2.785 2.447-4.52 3.12v-3.735c.913-.35 1.905-1.018 2.976-2s1.805-2.127 2.204-3.436h2.84z" class="F H g"/><g class="G V"><use xlink:href="#U" class="J"/><use xlink:href="#V" class="D H"/><use xlink:href="#U" x="93.75" class="J"/><use xlink:href="#V" x="93.75" class="D H"/></g><path d="M1198.225 803.442h-3.6v-6.6h-45.24v6.6h-3.96v-6.6h-3.6v169.8h28.08v60h24.36v-60h7.56v-169.68h-3.6v6.6z" class="B C D L"/><g transform="translate(1141.825 803.482)"><path d="M7.56 0H0v163.2h7.56" class="B C M"/></g><g class="B C"><path d="M1149.325 803.542v-7.56h45.425v7.56" class="K"/><path d="M1194.75 803.412h7.075v163.2h-7.075" class="U"/><path d="M24.36 7.56V0H0v7.56" transform="matrix(-1 0 0 -1 1194.38495 1034.14215)" class="T"/><path d="M1194.265 988.242h7.56v38.4h-7.56" class="U"/><path d="M2163.805 796.062l-93.6.96v6.6h-4.08v-6.6h-3.6v169.68h28.08v67.44h73.2v-238.08z" class="D L"/><path d="M2070.085 803.482h-7.56v163.2h7.56" class="M"/><path d="M2070.125 803.542v-7.56h93.6v7.56" class="K"/></g><path d="M2084.085 909.422h69.24c4.2 0 7.56-3.36 7.56-7.44v-86.4c0-4.2-3.36-7.44-7.44-7.44h-69.36c-4.2 0-7.56 3.36-7.56 7.68v86.4c0 3.84 3.36 7.2 7.56 7.2z" class="G J V"/><path d="M2082.845 860.805l3.586-.4c.216 1.416.654 2.456 1.314 3.12s1.55.996 2.67.996c1.187 0 2.08-.295 2.683-.886s.903-1.282.903-2.073c0-.508-.127-.94-.38-1.296s-.695-.666-1.326-.93c-.432-.176-1.415-.488-2.95-.937-1.976-.576-3.362-1.284-4.16-2.124-1.12-1.182-1.68-2.622-1.68-4.322 0-1.093.264-2.116.79-3.068a5.21 5.21 0 0 1 2.279-2.176c.992-.498 2.19-.747 3.592-.747 2.29 0 4.015.59 5.173 1.773s1.766 2.758 1.824 4.73l-3.685.19c-.158-1.104-.496-1.897-1.015-2.38s-1.297-.725-2.335-.725c-1.07 0-1.91.26-2.515.776-.4.332-.585.777-.585 1.333 0 .508.183.943.548 1.304.465.46 1.594.938 3.387 1.436s3.12 1.013 3.978 1.545 1.53 1.26 2.017 2.183.728 2.063.728 3.42a7.28 7.28 0 0 1-.87 3.457 5.52 5.52 0 0 1-2.466 2.395c-1.061.513-2.385.773-3.971.773-2.307 0-4.079-.627-5.316-1.88s-1.976-3.085-2.218-5.487zm17.91-14.488h3.686v11.63l.137 3.59c.158.88.533 1.585 1.127 2.117s1.405.798 2.434.798c1.046 0 1.834-.252 2.366-.754s.85-1.12.958-1.853.162-1.948.162-3.647v-11.88h3.686v11.28c0 2.578-.1 4.4-.3 5.464s-.567 1.963-1.102 2.695-1.25 1.316-2.148 1.75-2.067.652-3.51.652c-1.743 0-3.065-.237-3.966-.7s-1.612-1.09-2.135-1.846-.868-1.55-1.034-2.38c-.24-1.23-.36-3.047-.36-5.45zm18.025 21.475v-21.475h5.915c2.24 0 3.702.108 4.382.323 1.046.322 1.922 1.023 2.628 2.102s1.058 2.473 1.058 4.182c0 1.318-.203 2.427-.6 3.325s-.924 1.604-1.55 2.117-1.264.852-1.912 1.018c-.88.205-2.154.308-3.822.308h-2.414v8.1zm3.686-17.842v6.094h2.017c1.452 0 2.424-.112 2.913-.337s.874-.576 1.152-1.055.417-1.035.417-1.67c0-.78-.195-1.425-.585-1.933s-.884-.825-1.482-.952c-.44-.098-1.324-.147-2.652-.147zm32.359 14.019v3.823h-12.265a11.16 11.16 0 0 1 1.195-4.109c.664-1.294 1.976-3 3.935-5.15 1.577-1.728 2.544-2.9 2.9-3.515.48-.85.722-1.7.722-2.52 0-.918-.21-1.624-.63-2.117s-.998-.74-1.737-.74c-.73 0-1.31.258-1.743.776s-.68 1.377-.747 2.578l-3.486-.4c.207-2.266.86-3.892 1.955-4.878s2.465-1.48 4.11-1.48c1.8 0 3.216.572 4.245 1.714s1.544 2.564 1.544 4.263c0 .967-.147 1.887-.442 2.76s-.76 1.8-1.4 2.747c-.424.635-1.187 1.548-2.29 2.74l-2.098 2.373a7.1 7.1 0 0 0-.716 1.143z" class="F H g"/><g class="D"><path d="M1170.242 982.596h22.781v-71.124h-56.946V795.423H285.691v11.24h-56.946v89.836h56.946v116.044h850.387v-14.973h18.982l15.183-14.973z" fill="url(#I)" class="N O"/><g class="P"><use xlink:href="#W" class="G W"/><path d="M1164.886 1016.842l29.83-.234v-18.014l-29.596-.118-4.595 5.004v9.359l4.361 4.003z" class="O X"/></g></g><path d="M1166.025 1012.842h-96.969v-9.358h96.969v9.358z" class="O P X"/><path d="M977.605 1015.142h92.16v-14.04h-92.16v14.04zm-8.93.1h8.4v-9.6h-8.4v9.6z" class="P G W"/><g class="D"><path d="M2090.522 982.596h22.781v-71.124h-56.946V795.423h-850.386v11.24h-56.946v89.836h56.946v116.044h850.386v-14.973h18.982l15.183-14.973z" fill="url(#I)" class="N O"/><g class="P"><use xlink:href="#W" x="920.27" class="G W"/><path d="M2085.086 1016.842l29.83-.234v-18.014l-29.596-.118-4.595 5.004v9.359l4.361 4.003z" class="O X"/></g></g><path d="M2086.325 1012.842h-96.969v-9.358h96.969v9.358z" class="O P X"/><path d="M1897.825 1015.142h92.16v-14.04h-92.16v14.04zm-8.9.1h8.4v-9.6h-8.4v9.6z" class="P G W"/><g class="C"><path d="M108.005 15.04h2060.368V.067H108.005V15.04z" fill="url(#A)" class="E"/><g class="B"><path d="M101.245 91.92h6.6V0c-3.24 0-6 2.4-6.6 5.64v86.28z" class="D Q"/><path fill="url(#K)" d="M107.845 82.562v9.36h-6.6v-9.36"/></g><path d="M90 7.545h11.23V5.673c.003-3.101-2.508-5.617-5.609-5.62S90.003 2.561 90 5.662v1.883z" class="D E R"/></g><path d="M95.625 7.545v-2.4" class="G J"/><g class="C"><path d="M90 93.795h11.23V7.698H90v86.097z" class="E S"/><g class="B"><path d="M2178.725 91.92h-6.6V0c3.24 0 6 2.4 6.6 5.64v86.28z" class="D Q"/><path fill="url(#K)" d="M2178.725 82.56v9.36h-6.6v-9.36"/></g><path d="M2190.025 7.545h-11.23V5.673c-.003-3.101 2.508-5.617 5.61-5.62s5.618 2.508 5.62 5.609v1.883z" class="D E R"/></g><path d="M2184.425 7.545v-2.4" class="G J"/><g class="C E"><path d="M2190.025 93.795h-11.23V7.698h11.23v86.097z" class="S"/><path d="M2193.726 1376.342h-29.947V96.118h29.947v1280.224z" fill="url(#L)"/><path d="M86.25 1376.342h29.947V96.118H86.25v1280.224z" fill="url(#M)"/></g><g class="D"><g class="I Y"><path d="M37.021 46.344c11.668-6.755 15.539-21.882 8.647-33.787S23.729-3.522 12.062 3.233-3.478 25.115 3.414 37.019s21.938 16.08 33.606 9.325z" transform="translate(234.53 827.358)" class="Z"/><path d="M270.084 871.189c10.307-5.967 13.726-19.329 7.638-29.846s-19.378-14.203-29.685-8.236-13.726 19.329-7.639 29.844 19.379 14.204 29.686 8.237z" class="a"/></g><g class="N"><path d="M267.872 867.411c8.263-4.784 11.005-15.496 6.123-23.928s-15.536-11.386-23.799-6.603-11.005 15.496-6.124 23.926 15.537 11.388 23.799 6.604z" class="b c"/><path d="M253.74 836.251l5.835 32.726c1.755.346 3.468.041 4.995-.891l-5.835-32.726a6.86 6.86 0 0 0-4.995.891z" class="E d"/><path d="M256.586 856.032l.455 2.468a33.8 33.8 0 0 0 6.719-1.148l-.455-2.468 1.878-.321c-.199-2.273-.629-4.608-1.254-6.808l-1.878.321-.426-2.315c-2.249.151-4.554.545-6.72 1.148l.426 2.315-2.311.395a37.08 37.08 0 0 0 1.254 6.808l2.312-.395z" class="I e"/></g><g class="Y"><path d="M1167.939 971.344c11.668-6.755 15.539-21.882 8.646-33.787s-21.938-16.079-33.606-9.324-15.539 21.882-8.647 33.786 21.938 16.08 33.606 9.325z" class="I Z"/><path d="M1166.473 968.831c10.307-5.967 13.726-19.329 7.638-29.846s-19.378-14.203-29.685-8.236-13.726 19.329-7.639 29.844 19.379 14.204 29.686 8.237z" class="I a"/></g><g class="N"><path d="M1164.26 965.052c8.263-4.784 11.005-15.496 6.123-23.928s-15.536-11.387-23.799-6.603-11.005 15.496-6.124 23.926 15.536 11.388 23.799 6.604z" class="b c"/><path d="M1150.128 933.893l5.835 32.726c1.755.346 3.468.041 4.995-.891l-5.835-32.726a6.86 6.86 0 0 0-4.995.891z" class="E d"/><path d="M1152.974 953.673l.455 2.468a33.8 33.8 0 0 0 6.719-1.148l-.455-2.468 1.878-.321c-.199-2.273-.629-4.608-1.254-6.808l-1.878.321-.426-2.315c-2.249.151-4.554.545-6.719 1.148l.426 2.315-2.312.395a37.08 37.08 0 0 0 1.254 6.808l2.312-.395z" class="I e"/></g><g class="Y"><path d="M37.021 46.344c11.668-6.755 15.539-21.882 8.647-33.787S23.729-3.522 12.062 3.233-3.478 25.115 3.414 37.019s21.938 16.08 33.606 9.325z" transform="translate(1154.79 827.358)" class="I Z"/><path d="M1190.344 871.189c10.307-5.967 13.726-19.329 7.638-29.846s-19.378-14.203-29.685-8.236-13.726 19.329-7.639 29.844 19.379 14.204 29.686 8.237z" class="I a"/></g><g class="N"><path d="M1188.132 867.411c8.263-4.784 11.005-15.496 6.123-23.928s-15.536-11.386-23.799-6.603-11.005 15.496-6.124 23.926 15.537 11.388 23.799 6.604z" class="b c"/><path d="M1174 836.251l5.835 32.726c1.755.346 3.468.041 4.995-.891l-5.835-32.726a6.86 6.86 0 0 0-4.995.891z" class="E d"/><path d="M1176.846 856.032l.455 2.468a33.8 33.8 0 0 0 6.719-1.148l-.455-2.468 1.878-.321c-.199-2.273-.629-4.608-1.254-6.808l-1.878.321-.426-2.315c-2.249.151-4.554.545-6.72 1.148l.426 2.315-2.312.395a37.08 37.08 0 0 0 1.254 6.808l2.312-.395z" class="I e"/></g><g class="Y"><path d="M2088.199 971.344c11.668-6.755 15.539-21.882 8.646-33.787s-21.938-16.079-33.606-9.324-15.539 21.882-8.647 33.786 21.938 16.08 33.606 9.325z" class="I Z"/><path d="M2086.733 968.831c10.307-5.967 13.726-19.329 7.638-29.846s-19.378-14.203-29.685-8.236-13.726 19.329-7.639 29.844 19.379 14.204 29.686 8.237z" class="I a"/></g><g class="N"><path d="M2084.52 965.052c8.263-4.784 11.005-15.496 6.123-23.928s-15.536-11.387-23.799-6.603-11.005 15.496-6.124 23.926 15.537 11.388 23.799 6.604z" class="b c"/><path d="M2070.388 933.893l5.835 32.726c1.755.346 3.468.041 4.995-.891l-5.835-32.726a6.86 6.86 0 0 0-4.995.891z" class="E d"/><path d="M2073.234 953.673l.455 2.468a33.8 33.8 0 0 0 6.72-1.148l-.455-2.468 1.878-.321c-.199-2.273-.629-4.608-1.254-6.808l-1.878.321-.426-2.315c-2.249.151-4.554.545-6.719 1.148l.426 2.315-2.311.395a37.08 37.08 0 0 0 1.254 6.808l2.312-.395z" class="I e"/></g></g><path d="M1210 955h7.56v38.4H1210" class="B C U"/><g class="F"><path d="M1376.579 1092.618h2.965v11.522h-2.965zm26.942 3.301c-.149-.061-1.042-.616-2.531-.616-1.935 0-3.275 1.308-3.275 3.074 0 1.712 1.34 3.076 3.275 3.076 1.34 0 2.382-.543 2.531-.613v3.094c-.447.102-1.34.409-2.679.409-3.424 0-6.252-2.255-6.252-5.969 0-3.441 2.531-5.965 6.252-5.965 1.339 0 2.381.333 2.679.413v3.094zm-30.961 0c-.149-.061-1.042-.616-2.53-.616-1.935 0-3.275 1.308-3.275 3.074 0 1.712 1.34 3.076 3.275 3.076 1.488 0 2.381-.543 2.53-.613v3.094c-.446.102-1.34.409-2.679.409-3.424 0-6.252-2.255-6.252-5.969 0-3.441 2.679-5.965 6.252-5.965 1.34 0 2.381.333 2.679.413v3.094zm46.441 2.459c0 3.298-2.53 5.969-6.103 5.969-3.721 0-6.252-2.671-6.252-5.969s2.531-5.965 6.252-5.965c3.572 0 6.103 2.674 6.103 5.965zm-6.103-3.03c-1.786 0-3.126 1.357-3.126 3.03s1.34 3.033 3.126 3.033c1.637 0 2.977-1.357 2.977-3.033s-1.34-3.03-2.977-3.03zm-22.029-.111c-.149-.015-1.34-.35-2.381-.35-1.191 0-1.786.39-1.786.944 0 .701.893.946 1.34 1.097l.893.255c1.787.598 2.68 1.891 2.68 3.295 0 2.895-2.531 3.867-4.763 3.867-1.099-.008-2.195-.113-3.275-.315v-2.655c.298.066 1.489.429 2.828.429 1.489 0 2.084-.438 2.084-1.076 0-.584-.595-.919-1.191-1.147-.297-.058-.446-.142-.744-.201-1.637-.511-2.977-1.464-2.977-3.357 0-2.154 1.638-3.602 4.317-3.602 1.488 0 2.828.343 2.977.365v2.461z" fill="#c41230"/><path d="M1360.503 1080.235c0-.794-.744-1.437-1.488-1.437-.396-.016-.781.129-1.063.402a1.39 1.39 0 0 0-.426 1.036v3.025a1.39 1.39 0 0 0 .424 1.039 1.44 1.44 0 0 0 1.065.403c.744 0 1.488-.642 1.488-1.442v-3.025zm8.038-3.97c0-.794-.744-1.439-1.489-1.439s-1.488.645-1.488 1.439v6.995c0 .798.744 1.442 1.488 1.442s1.489-.642 1.489-1.442v-6.995zm8.038-5.433c.011-.388-.143-.763-.426-1.036s-.667-.418-1.063-.402c-.744 0-1.489.642-1.489 1.438v15.302c0 .798.744 1.442 1.489 1.442.397.016.782-.13 1.064-.403s.436-.65.424-1.039v-15.302zm8.187 5.433c0-.794-.744-1.439-1.488-1.439a1.45 1.45 0 0 0-1.064.402 1.39 1.39 0 0 0-.425 1.037v6.995a1.39 1.39 0 0 0 .424 1.039 1.44 1.44 0 0 0 1.065.403c.744 0 1.488-.642 1.488-1.442v-6.995zm8.037 3.97c0-.794-.744-1.438-1.488-1.438s-1.489.642-1.489 1.438v3.025c0 .798.744 1.442 1.489 1.442s1.488-.642 1.488-1.442v-3.025zm8.038-3.97a1.39 1.39 0 0 0-.425-1.037c-.282-.273-.668-.418-1.064-.402-.744 0-1.488.645-1.488 1.439v6.995c0 .798.744 1.442 1.488 1.442a1.45 1.45 0 0 0 1.065-.403c.283-.273.436-.65.424-1.039v-6.995zm8.187-5.433c0-.794-.744-1.438-1.489-1.438a1.44 1.44 0 0 0-1.062.402 1.39 1.39 0 0 0-.426 1.036v15.302a1.39 1.39 0 0 0 .424 1.039 1.44 1.44 0 0 0 1.064.403c.744 0 1.489-.642 1.489-1.442v-15.302zm8.038 5.433a1.39 1.39 0 0 0-.425-1.037c-.282-.273-.667-.418-1.063-.402-.396-.016-.781.129-1.063.402s-.436.648-.425 1.037v6.995a1.39 1.39 0 0 0 .424 1.039 1.44 1.44 0 0 0 1.065.403c.396.016.782-.13 1.064-.403s.436-.65.424-1.039v-6.995zm8.038 3.97a1.39 1.39 0 0 0-.426-1.036c-.283-.273-.667-.418-1.063-.402-.744 0-1.488.642-1.488 1.437v3.025c0 .798.744 1.442 1.488 1.442a1.45 1.45 0 0 0 1.065-.403c.283-.273.436-.65.424-1.039v-3.025z" fill="#005568"/></g><g class="G"><path d="M1058.065 1416.202l-7.44 4.2-7.2-4.2v-8.4l7.2-4.2 7.44 4.08zm19.2 0l-7.44 4.2-7.2-4.2v-8.4l7.2-4.2 7.44 4.08zm133.92-1.56l-7.44 4.2-7.2-4.2v-8.4l7.2-4.2 7.44 4.08zm19.2.24l-7.44 4.2-7.2-4.2v-8.4l7.2-4.2 7.44 4.08zm19.2.24l-7.44 4.2-7.2-4.2v-8.4l7.2-4.2 7.44 4.08zm19.2.24l-7.44 4.2-7.2-4.2v-8.4l7.2-4.2 7.44 4.08zm19.2.24l-7.44 4.2-7.2-4.2v-8.4l7.2-4.2 7.44 4.08zm-153.12.6l-7.44 4.2-7.2-4.2v-8.4l7.2-4.2 7.44 4.08zm18.96 0l-7.44 4.2-7.2-4.2v-8.4l7.2-4.2 7.44 4.08zm19.2-.96l-7.44 4.2-7.2-4.2v-8.4l7.2-4.2 7.44 4.08zm19.2.24l-7.44 4.2-7.2-4.2v-8.4l7.2-4.2 7.44 4.08zm-95.76.72l-7.44 4.2-7.2-4.2v-8.4l7.2-4.2 7.44 4.08zm19.2 0l-7.44 4.2-7.2-4.2v-8.4l7.2-4.2 7.44 4.08zm-67.2 9.88l-7.44-4.08-7.2 4.2v8.4l7.2 4.2 7.44-4.2zm19.2 8.58l-7.44 4.2-7.2-4.2v-8.4l7.2-4.2 7.44 4.08zm19.2 0l-7.44 4.2-7.2-4.2v-8.4l7.2-4.2 7.44 4.08zm133.92-1.56l-7.44 4.2-7.2-4.2v-8.4l7.2-4.2 7.44 4.08zm19.2.24l-7.44 4.2-7.2-4.2v-8.4l7.2-4.2 7.44 4.08zm19.2.24l-7.44 4.2-7.2-4.2v-8.4l7.2-4.2 7.44 4.08zm19.2.24l-7.44 4.2-7.2-4.2v-8.4l7.2-4.2 7.44 4.08zm19.2.24l-7.44 4.2-7.2-4.2v-8.4l7.2-4.2 7.44 4.08zm-153.12.6l-7.44 4.2-7.2-4.2v-8.4l7.2-4.2 7.44 4.08zm18.96 0l-7.44 4.2-7.2-4.2v-8.4l7.2-4.2 7.44 4.08zm19.2-.96l-7.44 4.2-7.2-4.2v-8.4l7.2-4.2 7.44 4.08zm19.2.24l-7.44 4.2-7.2-4.2v-8.4l7.2-4.2 7.44 4.08zm-95.76.72l-7.44 4.2-7.2-4.2v-8.4l7.2-4.2 7.44 4.08zm19.2 0l-7.44 4.2-7.2-4.2v-8.4l7.2-4.2 7.44 4.08zm-67.2-56.26l-7.44 4.2-7.2-4.2v-8.4l7.2-4.2 7.44 4.08zm19.2 0l-7.44 4.2-7.2-4.2v-8.4l7.2-4.2 7.44 4.08zm133.92-1.56l-7.44 4.2-7.2-4.2v-8.4l7.2-4.2 7.44 4.08zm19.2.24l-7.44 4.2-7.2-4.2v-8.4l7.2-4.2 7.44 4.08zm19.2.24l-7.44 4.2-7.2-4.2v-8.4l7.2-4.2 7.44 4.08zm19.2.24l-7.44 4.2-7.2-4.2v-8.4l7.2-4.2 7.44 4.08zm19.2.24l-7.44 4.2-7.2-4.2v-8.4l7.2-4.2 7.44 4.08zm-153.12.6l-7.44 4.2-7.2-4.2v-8.4l7.2-4.2 7.44 4.08zm18.96 0l-7.44 4.2-7.2-4.2v-8.4l7.2-4.2 7.44 4.08zm19.2-.96l-7.44 4.2-7.2-4.2v-8.4l7.2-4.2 7.44 4.08zm19.2.24l-7.44 4.2-7.2-4.2v-8.4l7.2-4.2 7.44 4.08zm-95.76.72l-7.44 4.2-7.2-4.2v-8.4l7.2-4.2 7.44 4.08zm19.2 0l-7.44 4.2-7.2-4.2v-8.4l7.2-4.2 7.44 4.08zm-67.2 9.88l-7.44-4.08-7.2 4.2v8.4l7.2 4.2 7.44-4.2zm19.2 8.58l-7.44 4.2-7.2-4.2v-8.4l7.2-4.2 7.44 4.08zm19.2 0l-7.44 4.2-7.2-4.2v-8.4l7.2-4.2 7.44 4.08zm133.92-1.56l-7.44 4.2-7.2-4.2v-8.4l7.2-4.2 7.44 4.08zm19.2.24l-7.44 4.2-7.2-4.2v-8.4l7.2-4.2 7.44 4.08zm19.2.24l-7.44 4.2-7.2-4.2v-8.4l7.2-4.2 7.44 4.08zm19.2.24l-7.44 4.2-7.2-4.2v-8.4l7.2-4.2 7.44 4.08zm19.2.24l-7.44 4.2-7.2-4.2v-8.4l7.2-4.2 7.44 4.08zm-153.12.6l-7.44 4.2-7.2-4.2v-8.4l7.2-4.2 7.44 4.08zm18.96 0l-7.44 4.2-7.2-4.2v-8.4l7.2-4.2 7.44 4.08zm19.2-.96l-7.44 4.2-7.2-4.2v-8.4l7.2-4.2 7.44 4.08zm19.2.24l-7.44 4.2-7.2-4.2v-8.4l7.2-4.2 7.44 4.08zm-95.76.72l-7.44 4.2-7.2-4.2v-8.4l7.2-4.2 7.44 4.08zm19.2 0l-7.44 4.2-7.2-4.2v-8.4l7.2-4.2 7.44 4.08zm-67.2-55.82l-7.44 4.2-7.2-4.2v-8.4l7.2-4.2 7.44 4.08zm19.2 0l-7.44 4.2-7.2-4.2v-8.4l7.2-4.2 7.44 4.08zm133.92-1.56l-7.44 4.2-7.2-4.2v-8.4l7.2-4.2 7.44 4.08zm19.2.24l-7.44 4.2-7.2-4.2v-8.4l7.2-4.2 7.44 4.08zm19.2.24l-7.44 4.2-7.2-4.2v-8.4l7.2-4.2 7.44 4.08zm19.2.24l-7.44 4.2-7.2-4.2v-8.4l7.2-4.2 7.44 4.08zm19.2.24l-7.44 4.2-7.2-4.2v-8.4l7.2-4.2 7.44 4.08zm-153.12.6l-7.44 4.2-7.2-4.2v-8.4l7.2-4.2 7.44 4.08zm18.96 0l-7.44 4.2-7.2-4.2v-8.4l7.2-4.2 7.44 4.08zm19.2-.96l-7.44 4.2-7.2-4.2v-8.4l7.2-4.2 7.44 4.08zm19.2.24l-7.44 4.2-7.2-4.2v-8.4l7.2-4.2 7.44 4.08zm-95.76.72l-7.44 4.2-7.2-4.2v-8.4l7.2-4.2 7.44 4.08zm19.2 0l-7.44 4.2-7.2-4.2v-8.4l7.2-4.2 7.44 4.08zm-67.2 9.88l-7.44-4.08-7.2 4.2v8.4l7.2 4.2 7.44-4.2zm19.2 8.58l-7.44 4.2-7.2-4.2v-8.4l7.2-4.2 7.44 4.08zm19.2 0l-7.44 4.2-7.2-4.2v-8.4l7.2-4.2 7.44 4.08zm133.92-1.56l-7.44 4.2-7.2-4.2v-8.4l7.2-4.2 7.44 4.08zm19.2.24l-7.44 4.2-7.2-4.2v-8.4l7.2-4.2 7.44 4.08zm19.2.24l-7.44 4.2-7.2-4.2v-8.4l7.2-4.2 7.44 4.08zm19.2.24l-7.44 4.2-7.2-4.2v-8.4l7.2-4.2 7.44 4.08zm19.2.24l-7.44 4.2-7.2-4.2v-8.4l7.2-4.2 7.44 4.08zm-153.12.6l-7.44 4.2-7.2-4.2v-8.4l7.2-4.2 7.44 4.08zm18.96 0l-7.44 4.2-7.2-4.2v-8.4l7.2-4.2 7.44 4.08zm19.2-.96l-7.44 4.2-7.2-4.2v-8.4l7.2-4.2 7.44 4.08zm19.2.24l-7.44 4.2-7.2-4.2v-8.4l7.2-4.2 7.44 4.08zm-95.76.72l-7.44 4.2-7.2-4.2v-8.4l7.2-4.2 7.44 4.08zm19.2 0l-7.44 4.2-7.2-4.2v-8.4l7.2-4.2 7.44 4.08z" class="H"/><path d="M1320.065 1447.542h153.6c4.2 0 7.56-3.36 7.56-7.44v-146.4a7.48 7.48 0 0 0-7.44-7.44h-16.8c-4.2 0-7.44-3.36-7.44-7.44v-46.8c0-4.08 3.36-7.44 7.56-7.44h16.8c4.2 0 7.56-3.36 7.56-7.44v-133.2a7.48 7.48 0 0 0-7.44-7.44h-22.44c-4.2 0-7.44-3.36-7.44-7.44v-15a7.48 7.48 0 0 0-7.44-7.44h-626.64c-4.2 0-7.44 3.36-7.44 7.56v386.4c-.12 3.6 3.24 6.96 7.44 6.96h210c4.08 0 7.56-3.36 7.56-7.44v-108.96a7.53 7.53 0 0 1 7.56-7.56h270a7.53 7.53 0 0 1 7.56 7.56v108.72a7.53 7.53 0 0 0 7.56 7.56z" class="J V"/></g><g class="F H"><use xlink:href="#X"/><path d="M855.006 1087.224v7.396h-1.982v-7.396h1.982zm-2.099-1.914q0-.444.297-.731.297-.287.81-.287.506 0 .807.287.301.287.301.731 0 .451-.304.738-.304.287-.803.287-.499 0-.803-.287-.304-.287-.304-.738z"/><use xlink:href="#Y"/><path d="M866.908 1093.164q.547 0 .889-.301.342-.301.355-.8h1.853q-.007.752-.41 1.377-.403.625-1.104.971-.701.345-1.548.345-1.586 0-2.502-1.008-.916-1.008-.916-2.786v-.13q0-1.709.909-2.728.909-1.019 2.495-1.019 1.388 0 2.225.79.837.79.851 2.102h-1.853q-.014-.574-.355-.933-.342-.359-.902-.359-.69 0-1.042.502-.352.502-.352 1.63v.205q0 1.142.349 1.641.349.499 1.06.499zm3.916-2.222v-.089q0-1.101.424-1.962.424-.861 1.22-1.333.796-.472 1.849-.472 1.497 0 2.444.916.947.916 1.056 2.488l.014.506q0 1.702-.95 2.731-.95 1.029-2.55 1.029-1.6 0-2.553-1.025-.954-1.025-.954-2.789zm1.976.055q0 1.053.396 1.61.396.557 1.135.557.718 0 1.121-.55.403-.55.403-1.76 0-1.032-.403-1.6-.403-.567-1.135-.567-.725 0-1.121.564-.396.564-.396 1.747z"/><use xlink:href="#Z"/><path d="M895.824 1094.757q-1.627 0-2.649-.998-1.022-.998-1.022-2.659v-.191q0-1.114.431-1.993.431-.878 1.22-1.354.79-.475 1.801-.475 1.518 0 2.389.957.872.957.872 2.714v.807h-4.71q.096.725.578 1.162.482.438 1.22.438 1.142 0 1.784-.827l.971 1.087q-.444.629-1.203.981-.759.352-1.682.352zm-.226-6.07q-.588 0-.954.396-.366.396-.468 1.135h2.748v-.157q-.014-.656-.355-1.015-.342-.359-.971-.359zm5.988-1.463l1.217 2.208 1.244-2.208h2.112l-2.105 3.623 2.194 3.773h-2.119l-1.319-2.324-1.312 2.324h-2.126l2.194-3.773-2.099-3.623h2.119zm10.008 7.396l-.055-.752q-.731.889-2.023.889-1.189 0-1.815-.684-.625-.684-.639-2.003v-4.847h1.976v4.778q0 1.155 1.053 1.155 1.005 0 1.381-.697v-5.236h1.982v7.396h-1.859z"/><use xlink:href="#Y" x="58.311"/><path d="M930.167 1090.641q-.772.759-1.805.759-1.319 0-2.112-.906-.793-.906-.793-2.444 0-.978.427-1.794.427-.817 1.193-1.271.766-.455 1.723-.455.984 0 1.75.492.766.492 1.189 1.415.424.923.431 2.112v.731q0 2.488-1.237 3.91-1.237 1.422-3.507 1.518l-.485.007v-1.647l.438-.007q2.577-.116 2.789-2.42zm-1.319-.752q.479 0 .824-.246.345-.246.523-.595v-.813q0-1.005-.383-1.559-.383-.554-1.025-.554-.595 0-.978.543-.383.543-.383 1.364 0 .813.373 1.336.373.523 1.049.523zm6.596.226l-1.572-.39.574-5.059h5.578v1.647h-3.958l-.246 2.14q.704-.376 1.497-.376 1.422 0 2.229.882.807.882.807 2.468 0 .964-.407 1.726-.407.762-1.166 1.183-.759.42-1.791.42-.902 0-1.675-.366-.772-.366-1.22-1.029-.448-.663-.475-1.511h1.955q.062.622.434.967.373.345.974.345.67 0 1.032-.482.362-.482.362-1.364 0-.848-.417-1.299-.417-.451-1.183-.451-.704 0-1.142.369l-.191.178zm12.866-1.442v1.832q0 2.064-.854 3.158-.854 1.094-2.502 1.094-1.627 0-2.488-1.073-.861-1.073-.882-3.076v-1.832q0-2.085.865-3.165.865-1.08 2.492-1.08 1.627 0 2.488 1.07.861 1.07.882 3.073zm-1.976 2.188v-2.365q0-1.237-.338-1.801-.338-.564-1.056-.564-.697 0-1.029.537-.332.537-.352 1.678v2.42q0 1.217.332 1.808.332.591 1.063.591.725 0 1.046-.567.321-.567.335-1.736zm9.154-6.194v6.207h1.128v1.593h-1.128v2.153h-1.976v-2.153h-4.081l-.089-1.244 4.149-6.556h1.996zm-2.105 2.919l-2.071 3.288h2.201v-3.514l-.13.226zm-58.865 152.034h-3.869v-9.953h3.486q1.812 0 2.748.694.937.694.937 2.034 0 .731-.376 1.289-.376.557-1.046.817.766.191 1.207.772.441.581.441 1.422 0 1.436-.916 2.174-.916.738-2.611.752zm.062-4.334h-1.88v2.687h1.757q.725 0 1.131-.345.407-.345.407-.954 0-1.367-1.415-1.388zm-1.88-3.958v2.509h1.518q1.552-.027 1.552-1.237 0-.677-.393-.974-.393-.297-1.241-.297H892.7z"/><use xlink:href="#X" x="55.693" y="145"/><use xlink:href="#Z" x="26.08" y="145"/><use xlink:href="#a"/><use xlink:href="#b"/><use xlink:href="#c"/><use xlink:href="#d"/><use xlink:href="#e"/><path d="M1060.429 1239.62h-3.869v-9.953h3.486q1.812 0 2.748.694.937.694.937 2.034 0 .731-.376 1.289-.376.557-1.046.817.766.191 1.207.772.441.581.441 1.422 0 1.436-.916 2.174-.916.738-2.611.752zm.062-4.334h-1.88v2.687h1.757q.725 0 1.131-.345.407-.345.407-.954 0-1.367-1.415-1.388zm-1.88-3.958v2.509h1.518q1.552-.027 1.552-1.237 0-.677-.393-.974-.393-.297-1.241-.297h-1.436zm58.703-1.661v9.953h-2.051v-9.953h2.051zm10.076 4.758v.444q0 1.47-.52 2.577-.52 1.107-1.487 1.709-.967.602-2.218.602-1.237 0-2.208-.595-.971-.595-1.504-1.699-.533-1.104-.54-2.54v-.492q0-1.47.53-2.587.53-1.118 1.497-1.716.967-.598 2.211-.598 1.244 0 2.211.598.967.598 1.497 1.716.53 1.118.53 2.581zm-2.078.479v-.485q0-1.565-.561-2.379-.561-.813-1.6-.813-1.032 0-1.593.803-.561.803-.567 2.355v.485q0 1.524.561 2.365.561.841 1.613.841 1.032 0 1.586-.81.554-.81.561-2.362z"/><use xlink:href="#f"/><use xlink:href="#c" x="204.679"/><use xlink:href="#a" x="231.53"/><use xlink:href="#b" x="231.53"/><use xlink:href="#d" x="222.525"/><use xlink:href="#e" x="222.525"/><use xlink:href="#Z" x="396.421" y="145"/><use xlink:href="#c" x="329.244"/><path d="M1328.427 1229.667l1.634 7.082 1.34-7.082h2.044l-2.208 9.953h-2.064l-1.62-6.658-1.62 6.658h-2.064l-2.208-9.953h2.044l1.347 7.068 1.641-7.068h1.736zm11.675 9.953l-1.866-3.644h-1.634v3.644h-2.051v-9.953h3.698q1.764 0 2.721.786.957.786.957 2.222 0 1.019-.441 1.699-.441.68-1.336 1.083l2.153 4.067v.096h-2.201zm-3.5-8.292v2.987h1.654q.772 0 1.196-.393.424-.393.424-1.083 0-.704-.4-1.107-.4-.403-1.227-.403h-1.647z"/><use xlink:href="#f" x="218.092"/><path d="M1367.111 1234.39v3.972q-.554.663-1.565 1.029-1.012.366-2.242.366-1.292 0-2.266-.564-.974-.564-1.504-1.637-.53-1.073-.543-2.522v-.677q0-1.49.502-2.581.502-1.09 1.449-1.668.947-.578 2.218-.578 1.771 0 2.769.844.998.844 1.183 2.458h-1.996q-.137-.854-.605-1.251-.468-.396-1.289-.396-1.046 0-1.593.786-.547.786-.554 2.338v.636q0 1.565.595 2.365.595.8 1.743.8 1.155 0 1.647-.492v-1.716h-1.866v-1.511h3.917z"/><use xlink:href="#f" x="239.892"/><path d="M1388.329 1229.667v1.661h-3.049v8.292h-2.051v-8.292h-3.008v-1.661h8.107z"/></g></symbol></svg>