<svg xmlns="http://www.w3.org/2000/svg" xmlns:xlink="http://www.w3.org/1999/xlink" viewBox="0 0 2281.2 206" fill="#fff" fill-rule="evenodd" stroke="#000" stroke-linecap="round" stroke-linejoin="round" font-family="Roboto" font-size="14" text-anchor="middle"><style><![CDATA[.B{fill:#000}.C{stroke:none}.D{stroke-width:.399}.E{fill:url(#G)}.F{fill:url(#H)}.G{stroke-width:1.2}.H{stroke-linejoin:miter}.I{fill:#595959}.J{stroke:#404040}.K{fill:#262626}.L{stroke-width:1.198}.M{fill:#d9d9d9}.N{font-size:17.472px}.O{fill:silver}.P{fill:gray}.Q{fill:#866b00}.R{stroke-width:.36}]]></style><use xlink:href="#j" x=".6" y=".5"/><defs><linearGradient id="A" x1="50%" y1="0%" x2="50%" y2="100%"><stop offset="0%" stop-color="#7f7f7f"/><stop offset="100%" stop-color="#d1d3d0"/></linearGradient><linearGradient id="B" x1="0%" y1="50%" x2="100%" y2="50%"><stop offset="0%" stop-color="#7f7f7f"/><stop offset="100%" stop-color="#d1d3d0"/></linearGradient><linearGradient id="C" x1="100%" y1="50%" x2="0%" y2="50%"><stop offset="0%" stop-color="#7f7f7f"/><stop offset="100%" stop-color="#d1d3d0"/></linearGradient><linearGradient id="D" x1="50%" y1="100%" x2="50%" y2="0%"><stop offset="0%" stop-color="#7f7f7f"/><stop offset="100%" stop-color="#d1d3d0"/></linearGradient><radialGradient id="E" r="100%" fx="50%" fy="50%" cx="50%" cy="50%"><stop offset="0%" stop-color="gray"/><stop offset="71%" stop-color="#262626"/></radialGradient><linearGradient id="F" x1="50%" y1="0%" x2="50%" y2="100%"><stop offset="0%" stop-color="#a6a6a6"/><stop offset="1%" stop-color="#a6a6a6"/><stop offset="50%" stop-color="#f2f2f2"/><stop offset="100%" stop-color="#a6a6a6"/></linearGradient><linearGradient id="G" x1="50%" y1="0%" x2="50%" y2="100%"><stop offset="0%" stop-color="#99732d"/><stop offset="1%" stop-color="#99732d"/><stop offset="50%" stop-color="#6b511f"/><stop offset="100%" stop-color="#99732d"/></linearGradient><linearGradient id="H" x1="50%" y1="0%" x2="50%" y2="100%"><stop offset="0%" stop-color="#3c2d11"/><stop offset="1%" stop-color="#3c2d11"/><stop offset="50%" stop-color="#765923"/><stop offset="100%" stop-color="#3c2d11"/></linearGradient><path id="I" d="M170.955 100.707a6.73 6.73 0 0 0-6.727-6.727 6.73 6.73 0 0 0-6.728 6.727 6.73 6.73 0 0 0 6.728 6.728 6.73 6.73 0 0 0 6.727-6.728z"/><path id="J" d="M2023.9 163.065h97.56V35.625h-97.56v127.44z"/><path id="K" d="M2028.271 161.303h88.733c1.373 0 2.371-1.075 2.371-2.4v-120c0-1.325-.998-2.4-2.371-2.4h-88.733c-1.373 0-2.496 1.075-2.496 2.4v120c0 1.325 1.123 2.4 2.496 2.4z"/><path id="L" d="M2027.772 40.487v37.619a2.43 2.43 0 0 0 2.371 2.4h84.864c1.373 0 2.371-1.075 2.371-2.4V40.487c0-1.325-.998-2.4-2.371-2.4h-84.864a2.43 2.43 0 0 0-2.371 2.4zm0 79.336v37.617a2.43 2.43 0 0 0 2.371 2.4h84.864c1.373 0 2.371-1.075 2.371-2.4v-37.617c0-1.325-.998-2.4-2.371-2.4h-84.864a2.43 2.43 0 0 0-2.371 2.4z"/><path id="M" d="M2026.274 82.853h92.664v31.05h-92.664z"/><path id="N" d="M2087.052 104.265h5.866c1.123-.247 1.872-1.45 1.747-2.687-.25-.904-.874-1.61-1.747-1.791h-5.866c-1.248.247-1.997 1.45-1.747 2.687.125.904.873 1.61 1.747 1.791zm-11.606 0h5.865c1.248-.247 1.997-1.45 1.747-2.687-.125-.904-.873-1.61-1.747-1.791h-5.865c-1.123.247-1.997 1.45-1.747 2.687.25.904.874 1.61 1.747 1.791zm-11.607 0h5.99c1.123-.247 1.872-1.45 1.623-2.687-.125-.904-.749-1.61-1.623-1.791h-5.99c-1.123.247-1.872 1.45-1.622 2.687.125.904.749 1.61 1.622 1.791zm-11.482 0h5.865c1.248-.247 1.997-1.45 1.747-2.687-.25-.904-.873-1.61-1.747-1.791h-5.865c-1.248.247-1.997 1.45-1.747 2.687.125.904.874 1.61 1.747 1.791zm34.694-7.293h5.866c1.123-.247 1.872-1.45 1.747-2.687-.25-.904-.874-1.61-1.747-1.791h-5.866c-1.248.247-1.997 1.45-1.747 2.687.125.904.873 1.61 1.747 1.791zm-11.606 0h5.865c1.248-.247 1.997-1.45 1.747-2.687-.125-.904-.873-1.61-1.747-1.791h-5.865c-1.123.247-1.997 1.45-1.747 2.687.25.904.874 1.61 1.747 1.791zm-11.607 0h5.99c1.123-.247 1.872-1.45 1.623-2.687-.125-.904-.749-1.61-1.623-1.791h-5.99c-1.123.247-1.872 1.45-1.622 2.687.125.904.749 1.61 1.622 1.791zm-11.482 0h5.865c1.248-.247 1.997-1.45 1.747-2.687-.25-.904-.873-1.61-1.747-1.791h-5.865c-1.248.247-1.997 1.45-1.747 2.687.125.904.874 1.61 1.747 1.791zm48.298-3.537h11.856l-5.99 10.313-5.866-10.313zm-67.891 10.313h11.731l-5.866-10.313-5.865 10.313z"/><path id="O" d="M2118.252 64.474c.374 0 .624-.25.624-.588v-9.184c0-.325-.25-.587-.624-.587s-.624.25-.624.587v9.184c0 .325.25.588.624.588zm-91.229 0c.25 0 .499-.25.499-.588v-9.184c0-.325-.249-.587-.499-.587-.374 0-.624.25-.624.587v9.184c0 .325.25.588.624.588zm61.152-27.094c0 .388.374.704.749.704h10.233c.374 0 .749-.315.749-.704s-.374-.703-.749-.703h-10.233c-.375 0-.749.313-.749.703zm-42.806 0c0 .388.249.704.749.704h10.233c.375 0 .749-.315.749-.704s-.374-.703-.749-.703h-10.233c-.499 0-.749.313-.749.703zm-18.346 106.435c.25 0 .499-.25.499-.588v-9.187c0-.325-.249-.588-.499-.588-.374 0-.624.25-.624.588v9.187c0 .325.25.588.624.588zm91.229 0c.374 0 .624-.25.624-.588v-9.187c0-.325-.25-.588-.624-.588s-.624.25-.624.588v9.187c0 .325.25.588.624.588zm-30.077-27.1c0 .387.374.703.749.703h10.233c.374 0 .749-.312.749-.703s-.374-.704-.749-.704h-10.233c-.375 0-.749.315-.749.704zm-42.806 0c0 .387.249.703.749.703h10.233c.375 0 .749-.312.749-.703s-.374-.704-.749-.704h-10.233c-.499 0-.749.315-.749.704z"/><path id="P" d="M2028.77 73.999v2.231c0 1.325.998 2.4 2.371 2.4h83.242a2.43 2.43 0 0 0 2.371-2.4v-2.231a2.43 2.43 0 0 0-2.371-2.4h-83.242c-1.373 0-2.371 1.075-2.371 2.4zm0 79.341v2.225c0 1.325.998 2.4 2.371 2.4h83.242a2.43 2.43 0 0 0 2.371-2.4v-2.225a2.43 2.43 0 0 0-2.371-2.4h-83.242c-1.373 0-2.371 1.075-2.371 2.4z"/><path id="Q" d="M2030.143 66.443c1.248 0 2.371-1.05 2.371-2.344v-8.437c0-1.294-1.123-2.344-2.371-2.344s-2.371 1.05-2.371 2.344v8.438c0 1.295 1.123 2.344 2.371 2.344zm1.872 10.313c.749 0 1.373-.63 1.373-1.406v-2.344c0-.775-.624-1.406-1.373-1.406s-1.373.63-1.373 1.406v2.344c0 .775.624 1.406 1.373 1.406zm81.495 0c.749 0 1.373-.63 1.373-1.406v-2.344c0-.775-.624-1.406-1.373-1.406-.873 0-1.498.63-1.498 1.406v2.344c0 .775.624 1.406 1.498 1.406zm1.373-10.313c1.248 0 2.371-1.05 2.371-2.344v-8.437c0-1.294-1.123-2.344-2.371-2.344-1.373 0-2.371 1.05-2.371 2.344v8.438c0 1.295.998 2.344 2.371 2.344zm-30.95-25.781c0 1.295 1.123 2.344 2.371 2.344h8.486c1.248 0 2.247-1.05 2.247-2.344s-.998-2.344-2.247-2.344h-8.486c-1.248 0-2.371 1.05-2.371 2.344zm-35.568 0c0 1.295 1.123 2.344 2.371 2.344h8.487c1.248 0 2.246-1.05 2.246-2.344s-.999-2.344-2.246-2.344h-8.487c-1.248 0-2.371 1.05-2.371 2.344zm-18.221 105.116c1.248 0 2.371-1.05 2.371-2.338v-8.438c0-1.3-1.123-2.35-2.371-2.35s-2.371 1.05-2.371 2.35v8.438c0 1.287 1.123 2.338 2.371 2.338zm1.872 10.313c.749 0 1.373-.625 1.373-1.4v-2.35c0-.775-.624-1.4-1.373-1.4s-1.373.625-1.373 1.4v2.35c0 .775.624 1.4 1.373 1.4zm81.495 0c.749 0 1.373-.625 1.373-1.4v-2.35c0-.775-.624-1.4-1.373-1.4-.873 0-1.498.625-1.498 1.4v2.35c0 .775.624 1.4 1.498 1.4zm1.373-10.312c1.248 0 2.371-1.05 2.371-2.338v-8.438c0-1.3-1.123-2.35-2.371-2.35-1.373 0-2.371 1.05-2.371 2.35v8.438c0 1.287.998 2.338 2.371 2.338zm-30.95-25.78c0 1.294 1.123 2.344 2.371 2.344h8.486c1.248 0 2.247-1.05 2.247-2.344s-.998-2.344-2.247-2.344h-8.486c-1.248 0-2.371 1.05-2.371 2.344zm-35.568 0c0 1.294 1.123 2.344 2.371 2.344h8.487c1.248 0 2.246-1.05 2.246-2.344s-.999-2.344-2.246-2.344h-8.487c-1.248 0-2.371 1.05-2.371 2.344z"/><path id="R" d="M2029.145 77.108c.624 0 1.123-.525 1.123-1.171v-8c0-.647-.499-1.171-1.123-1.171s-1.248.525-1.248 1.171v8c0 .647.624 1.171 1.248 1.171zm0-12.634c.624 0 1.123-.525 1.123-1.172v-8.024c0-.647-.499-1.172-1.123-1.172s-1.248.525-1.248 1.172v8.013c0 .647.624 1.172 1.248 1.172zm0-12.634c.624 0 1.123-.525 1.123-1.171v-8c0-.647-.499-1.172-1.123-1.172s-1.248.525-1.248 1.172v8c0 .647.624 1.171 1.248 1.171zm86.861 25.268c.624 0 1.248-.525 1.248-1.171v-8c0-.647-.624-1.171-1.248-1.171s-1.123.525-1.123 1.171v8c0 .647.499 1.171 1.123 1.171zm0-12.634c.624 0 1.248-.525 1.248-1.172v-8.024c0-.647-.624-1.172-1.248-1.172s-1.123.525-1.123 1.172v8.013c0 .647.499 1.172 1.123 1.172zm0-12.634c.624 0 1.248-.525 1.248-1.171v-8c0-.647-.624-1.172-1.248-1.172s-1.123.525-1.123 1.172v8c0 .647.499 1.171 1.123 1.171zm-84.864-12.116c0 .775.624 1.406 1.373 1.406h8.861c.749 0 1.373-.63 1.373-1.406s-.624-1.406-1.373-1.406h-8.861c-.749 0-1.373.63-1.373 1.406zm14.227 0c0 .775.624 1.406 1.373 1.406h8.861c.874 0 1.498-.63 1.498-1.406s-.624-1.406-1.498-1.406h-8.861c-.749 0-1.373.63-1.373 1.406zm14.227 0c0 .775.624 1.406 1.498 1.406h8.861c.749 0 1.373-.63 1.373-1.406s-.624-1.406-1.373-1.406h-8.861c-.874 0-1.498.63-1.498 1.406zm14.352 0c0 .775.624 1.406 1.373 1.406h8.861c.749 0 1.373-.63 1.373-1.406s-.624-1.406-1.373-1.406h-8.861c-.749 0-1.373.63-1.373 1.406zm14.227 0c0 .775.624 1.406 1.373 1.406h8.985c.749 0 1.373-.63 1.373-1.406s-.624-1.406-1.373-1.406h-8.985c-.749 0-1.373.63-1.373 1.406zm14.227 0c0 .775.624 1.406 1.498 1.406h8.861c.749 0 1.373-.63 1.373-1.406s-.624-1.406-1.373-1.406h-8.861c-.874 0-1.498.63-1.498 1.406zm-71.261 38.906c0 .775.624 1.406 1.373 1.406h8.861c.749 0 1.373-.63 1.373-1.406s-.624-1.406-1.373-1.406h-8.861c-.749 0-1.373.63-1.373 1.406zm14.227 0c0 .775.624 1.406 1.373 1.406h8.861c.874 0 1.498-.63 1.498-1.406s-.624-1.406-1.498-1.406h-8.861c-.749 0-1.373.63-1.373 1.406zm14.227 0c0 .775.624 1.406 1.498 1.406h8.861c.749 0 1.373-.63 1.373-1.406s-.624-1.406-1.373-1.406h-8.861c-.874 0-1.498.63-1.498 1.406zm14.352 0c0 .775.624 1.406 1.373 1.406h8.861c.749 0 1.373-.63 1.373-1.406s-.624-1.406-1.373-1.406h-8.861c-.749 0-1.373.63-1.373 1.406zm14.227 0c0 .775.624 1.406 1.373 1.406h8.985c.749 0 1.373-.63 1.373-1.406s-.624-1.406-1.373-1.406h-8.985c-.749 0-1.373.63-1.373 1.406zm14.227 0c0 .775.624 1.406 1.498 1.406h8.861c.749 0 1.373-.63 1.373-1.406s-.624-1.406-1.373-1.406h-8.861c-.874 0-1.498.63-1.498 1.406zm-73.257 77.81c.624 0 1.123-.525 1.123-1.163v-8c0-.65-.499-1.175-1.123-1.175s-1.248.525-1.248 1.175v8c0 .625.624 1.163 1.248 1.163zm0-12.625c.624 0 1.123-.525 1.123-1.175v-8c0-.65-.499-1.175-1.123-1.175s-1.248.525-1.248 1.175v8c0 .65.624 1.175 1.248 1.175zm0-12.638c.624 0 1.123-.528 1.123-1.175v-8c0-.647-.499-1.173-1.123-1.173s-1.248.525-1.248 1.173v8c0 .646.624 1.175 1.248 1.175zm86.861 25.262c.624 0 1.248-.525 1.248-1.163v-8c0-.65-.624-1.175-1.248-1.175s-1.123.525-1.123 1.175v8c0 .625.499 1.163 1.123 1.163zm0-12.625c.624 0 1.248-.525 1.248-1.175v-8c0-.65-.624-1.175-1.248-1.175s-1.123.525-1.123 1.175v8c0 .65.499 1.175 1.123 1.175zm0-12.638c.624 0 1.248-.528 1.248-1.175v-8c0-.647-.624-1.173-1.248-1.173s-1.123.525-1.123 1.173v8c0 .646.499 1.175 1.123 1.175zm-84.864-12.118c0 .775.624 1.406 1.373 1.406h8.861c.749 0 1.373-.63 1.373-1.406s-.624-1.406-1.373-1.406h-8.861c-.749 0-1.373.63-1.373 1.406zm14.227 0c0 .775.624 1.406 1.373 1.406h8.861c.874 0 1.498-.63 1.498-1.406s-.624-1.406-1.498-1.406h-8.861c-.749 0-1.373.63-1.373 1.406zm14.227 0c0 .775.624 1.406 1.498 1.406h8.861c.749 0 1.373-.63 1.373-1.406s-.624-1.406-1.373-1.406h-8.861c-.874 0-1.498.63-1.498 1.406zm14.352 0c0 .775.624 1.406 1.373 1.406h8.861c.749 0 1.373-.63 1.373-1.406s-.624-1.406-1.373-1.406h-8.861c-.749 0-1.373.63-1.373 1.406zm14.227 0c0 .775.624 1.406 1.373 1.406h8.985c.749 0 1.373-.63 1.373-1.406s-.624-1.406-1.373-1.406h-8.985c-.749 0-1.373.63-1.373 1.406zm14.227 0c0 .775.624 1.406 1.498 1.406h8.861c.749 0 1.373-.63 1.373-1.406s-.624-1.406-1.373-1.406h-8.861c-.874 0-1.498.63-1.498 1.406zm-71.261 38.905c0 .775.624 1.413 1.373 1.413h8.861c.749 0 1.373-.625 1.373-1.413s-.624-1.4-1.373-1.4h-8.861c-.749 0-1.373.625-1.373 1.4zm14.227 0c0 .775.624 1.413 1.373 1.413h8.861c.874 0 1.498-.625 1.498-1.413s-.624-1.4-1.498-1.4h-8.861c-.749 0-1.373.625-1.373 1.4zm14.227 0c0 .775.624 1.413 1.498 1.413h8.861c.749 0 1.373-.625 1.373-1.413s-.624-1.4-1.373-1.4h-8.861c-.874 0-1.498.625-1.498 1.4zm14.352 0c0 .775.624 1.413 1.373 1.413h8.861c.749 0 1.373-.625 1.373-1.413s-.624-1.4-1.373-1.4h-8.861c-.749 0-1.373.625-1.373 1.4zm14.227 0c0 .775.624 1.413 1.373 1.413h8.985c.749 0 1.373-.625 1.373-1.413s-.624-1.4-1.373-1.4h-8.985c-.749 0-1.373.625-1.373 1.4zm14.227 0c0 .775.624 1.413 1.498 1.413h8.861c.749 0 1.373-.625 1.373-1.413s-.624-1.4-1.373-1.4h-8.861c-.874 0-1.498.625-1.498 1.4z"/><path id="S" d="M153.718 77.882v8.531h-1.758l-3.422-5.613v5.613h-1.758v-8.531h1.758l3.428 5.625v-5.625h1.752z"/><path id="T" d="M136.643 103.175q0-.498-.352-.765-.352-.267-1.266-.562-.914-.296-1.447-.583-1.453-.785-1.453-2.115 0-.691.39-1.233.39-.542 1.119-.847.729-.305 1.638-.305.914 0 1.629.331.715.331 1.11.935.396.604.396 1.371h-1.758q0-.586-.369-.911-.369-.325-1.037-.325-.645 0-1.002.272-.357.272-.357.718 0 .416.419.697.419.281 1.233.527 1.5.451 2.186 1.119.686.668.686 1.664 0 1.107-.838 1.737-.838.63-2.256.63-.984 0-1.793-.36-.809-.36-1.233-.987-.425-.627-.425-1.453h1.764q0 1.412 1.688 1.412.627 0 .979-.255.352-.255.352-.712z"/><path id="U" d="M134.612 168.997h.942q-.132 1.128-.833 1.741-.701.613-1.863.613-1.26 0-2.019-.903-.759-.903-.759-2.417v-.684q0-.991.354-1.743.354-.752 1.003-1.155.649-.403 1.504-.403 1.133 0 1.816.632.684.632.796 1.75h-.942q-.122-.85-.53-1.23-.408-.381-1.14-.381-.898 0-1.409.664-.51.664-.51 1.89v.688q0 1.157.483 1.841.483.684 1.353.684.781 0 1.199-.354.417-.354.554-1.233z"/><path id="V" d="M142.195 169.851q0-.366-.276-.569-.276-.203-.962-.349-.686-.146-1.089-.352-.403-.205-.596-.488-.193-.283-.193-.674 0-.649.549-1.099.549-.449 1.404-.449.898 0 1.458.464.559.464.559 1.187h-.908q0-.371-.315-.64-.315-.269-.793-.269-.493 0-.771.215-.278.215-.278.562 0 .327.259.493.259.166.935.317.676.151 1.096.361.42.21.623.505.203.295.203.72 0 .708-.566 1.135-.566.427-1.47.427-.635 0-1.123-.225-.488-.225-.764-.627-.276-.403-.276-.872h.903q.024.454.364.72.339.266.896.266.513 0 .823-.208.31-.208.31-.554z"/><path id="W" d="M135.789 176.144v7.109h-.942l-3.579-5.479v5.479h-.942v-7.109h.942l3.589 5.503v-5.503h.933z"/><path id="X" d="M140.681 192.128q-.283.337-.676.542-.393.205-.862.205-.615 0-1.072-.303-.457-.303-.706-.852-.249-.549-.249-1.213 0-.713.271-1.284.271-.571.769-.874.498-.303 1.162-.303 1.055 0 1.663.789.608.789.608 2.151v.264q0 2.075-.82 3.03-.82.955-2.476.979h-.176v-.762h.19q1.118-.02 1.719-.583.601-.564.654-1.785zm-1.392 0q.454 0 .837-.278.383-.278.559-.688v-.361q0-.889-.386-1.445-.386-.557-.977-.557-.596 0-.957.457-.361.457-.361 1.204 0 .728.349 1.199.349.471.935.471z"/><path id="Y" d="M164.988 191.996v-.737h.679q.64-.01 1.006-.337.366-.327.366-.884 0-1.25-1.245-1.25-.586 0-.935.334-.349.334-.349.886h-.903q0-.845.618-1.404.618-.559 1.57-.559 1.006 0 1.577.532.571.532.571 1.479 0 .464-.3.898-.3.435-.818.649.586.186.906.615.32.43.32 1.05 0 .957-.625 1.519-.625.562-1.626.562-1.001 0-1.628-.542-.627-.542-.627-1.431h.908q0 .562.366.898.366.337.981.337.654 0 1.001-.342.347-.342.347-.981 0-.62-.381-.952-.381-.332-1.099-.342h-.679z"/><path id="Z" d="M338.184 14.62v8.543h-1.693v-6.527l-2.021.627v-1.377l3.533-1.266h.182z"/><path id="a" d="M388.428 21.798v1.365h-5.848v-1.16l2.76-2.941q.568-.621.841-1.084.272-.463.272-.879 0-.568-.287-.894-.287-.325-.82-.325-.574 0-.905.396-.331.396-.331 1.04h-1.699q0-.779.372-1.424.372-.645 1.052-1.011.68-.366 1.541-.366 1.318 0 2.048.633.729.633.729 1.787 0 .633-.328 1.289-.328.656-1.125 1.529l-1.939 2.045h3.668z"/><path id="b" d="M449.793 19.472v-1.324h.902q.645 0 .955-.322.311-.322.311-.855 0-.516-.308-.803-.308-.287-.847-.287-.486 0-.814.267-.328.267-.328.694h-1.693q0-.668.36-1.198.36-.53 1.008-.829.647-.299 1.427-.299 1.354 0 2.121.647.768.647.768 1.784 0 .586-.357 1.078-.357.492-.937.756.721.258 1.075.773.354.516.354 1.219 0 1.137-.829 1.822-.829.686-2.194.686-1.277 0-2.089-.674-.812-.674-.812-1.781h1.693q0 .48.36.785.36.305.888.305.604 0 .946-.319.343-.319.343-.847 0-1.277-1.406-1.277h-.896z"/><path id="c" d="M501.59 14.632v5.32h.967v1.365h-.967v1.846h-1.693v-1.846h-3.498l-.076-1.066 3.557-5.619h1.711zm-1.805 2.502l-1.775 2.818h1.887v-3.012l-.111.193z"/><path id="d" d="M563.669 19.302l-1.348-.334.492-4.336h4.781v1.412h-3.393l-.211 1.834q.604-.322 1.283-.322 1.219 0 1.91.756.691.756.691 2.115 0 .826-.349 1.479-.349.653-.999 1.014-.65.36-1.535.36-.773 0-1.436-.313-.662-.313-1.046-.882-.384-.568-.407-1.295h1.676q.053.533.372.829.319.296.835.296.574 0 .885-.413.311-.413.311-1.169 0-.727-.357-1.113-.357-.387-1.014-.387-.604 0-.979.316l-.164.152z"/><path id="e" d="M614.893 14.544h.281v1.395h-.164q-1.148.018-1.849.598-.7.58-.841 1.611.68-.691 1.717-.691 1.113 0 1.77.797.656.797.656 2.098 0 .832-.36 1.506-.36.674-1.02 1.049-.659.375-1.491.375-1.348 0-2.177-.937-.829-.937-.829-2.502v-.609q0-1.389.524-2.452.524-1.063 1.506-1.646.981-.583 2.276-.589zm-1.371 4.271q-.41 0-.744.214-.334.214-.492.565v.516q0 .85.334 1.327.334.478.938.478.545 0 .882-.431.337-.431.337-1.116 0-.697-.34-1.125-.34-.428-.914-.428z"/><path id="f" d="M681.871 14.632v.949l-3.299 7.582h-1.787l3.305-7.16h-4.242v-1.371h6.023z"/><path id="g" d="M730.141 16.9q0 .621-.311 1.102-.311.48-.855.768.621.299.984.823.363.524.363 1.233 0 1.137-.773 1.796-.773.659-2.104.659-1.33 0-2.109-.662-.779-.662-.779-1.793 0-.709.363-1.236.363-.527.979-.82-.545-.287-.853-.768-.308-.48-.308-1.102 0-1.09.727-1.737.727-.647 1.975-.647 1.242 0 1.972.642.729.642.729 1.743zm-1.518 3.803q0-.557-.322-.891-.322-.334-.867-.334-.539 0-.861.331-.322.331-.322.894 0 .545.316.879.316.334.879.334.551 0 .864-.322.313-.322.313-.891zm-.176-3.721q0-.498-.264-.8-.264-.302-.744-.302-.475 0-.738.293-.264.293-.264.809 0 .51.264.82.264.311.744.311.48 0 .741-.311.261-.311.261-.82z"/><path id="h" d="M794.031 19.753q-.662.65-1.547.65-1.131 0-1.811-.776-.68-.776-.68-2.095 0-.838.366-1.538.366-.7 1.022-1.09.656-.39 1.477-.39.844 0 1.5.422.656.422 1.02 1.213.363.791.369 1.811v.627q0 2.133-1.061 3.352-1.061 1.219-3.006 1.301l-.416.006v-1.412l.375-.006q2.209-.1 2.391-2.074zm-1.131-.645q.41 0 .706-.211.296-.211.448-.51v-.697q0-.861-.328-1.336-.328-.475-.879-.475-.51 0-.838.466-.328.466-.328 1.169 0 .697.319 1.146.319.448.899.448z"/><path id="i" d="M851.208 18.066v1.57q0 1.77-.732 2.707-.732.938-2.145.938-1.395 0-2.133-.92-.738-.92-.756-2.637v-1.57q0-1.787.741-2.713.741-.926 2.136-.926 1.395 0 2.133.917.738.917.756 2.634zm-1.693 1.875v-2.027q0-1.061-.29-1.544-.29-.483-.905-.483-.598 0-.882.46-.284.46-.302 1.438v2.074q0 1.043.284 1.55.284.507.911.507.621 0 .896-.486.275-.486.287-1.488z"/></defs><symbol id="j" overflow="visible"><g class="H"><path d="M2236.08 187.565h-8.88c-6.48 0-11.76-5.16-12-11.52s5.28-11.64 11.76-11.64h22.8c6.6 0 12 5.16 12 11.52s-5.16 11.64-11.76 11.64h-13.8zm0-73.44h-8.88c-6.48 0-11.76-5.16-12-11.52s5.28-11.64 11.76-11.64h22.8c6.6 0 12 5.16 12 11.52s-5.16 11.64-11.76 11.64h-13.8zm0-73.44h-8.88c-6.48 0-11.76-5.16-12-11.52s5.28-11.64 11.76-11.64h22.8c6.6 0 12 5.16 12 11.52s-5.16 11.64-11.76 11.64h-13.8zM39.24 187.565h-8.88c-6.48 0-12-5.16-12-11.52s5.4-11.52 11.88-11.52h22.8c6.48 0 12 5.16 12 11.52s-5.28 11.64-11.76 11.64H39.24zm0-73.44h-8.88c-6.48 0-12-5.16-12-11.52s5.28-11.64 11.76-11.64h22.8c6.48 0 12 5.16 12 11.52s-5.4 11.64-11.88 11.64h-13.8zm0-73.44h-8.88c-6.48 0-12-5.16-12-11.52s5.28-11.64 11.76-11.64h22.8c6.48 0 12 5.16 12 11.52s-5.28 11.64-11.76 11.64H39.24zM24 204.125h2232c12 0 24-5.16 24-11.64v-180c0-6.36-12-11.64-24-11.64H24c-13.2 0-24 5.16-24 11.64v180c0 6.48 12 11.64 24 11.64z" fill="#a6a6a6" class="G"/><path d="M128.16 203.945h2025.12c3.96 0 7.32-3.36 7.32-7.44v-189a7.48 7.48 0 0 0-7.44-7.44h-2025c-4.2-.12-7.56 3.24-7.56 7.44v189c0 4.08 3.36 7.44 7.56 7.44z" stroke="gray" fill="#d1d3d0" class="R"/></g><path d="M1680 10.889h442.56v15H1680z" fill="#b0dd80" class="C"/><g stroke="gray"><g class="R"><path d="M2152.83 7.44V0H128.07v7.44" fill="url(#A)"/><path d="M128.1 7.475h-7.44v188.88h7.44" fill="url(#B)"/><path d="M2153.1 7.475h7.44v188.88h-7.44" fill="url(#C)"/><path d="M2152.83 196.445v7.44H128.07v-7.44" fill="url(#D)"/></g><g fill="url(#E)" stroke-width=".96"><use xlink:href="#I"/><use xlink:href="#I" y="-18.346"/><use xlink:href="#I" y="18.35"/></g></g><use xlink:href="#J" class="B G"/><use xlink:href="#K" class="D H I J"/><use xlink:href="#L" class="K L"/><g class="C"><use xlink:href="#M" class="M"/><use xlink:href="#N" class="B"/></g><g class="D"><use xlink:href="#O" class="O"/><use xlink:href="#P" class="P"/><g class="Q"><use xlink:href="#Q"/><use xlink:href="#R"/></g></g><use xlink:href="#J" x="-114" class="B G"/><use xlink:href="#K" x="-114" class="D H I J"/><use xlink:href="#L" x="-114" class="K L"/><g class="C"><use xlink:href="#M" x="-114" class="M"/><use xlink:href="#N" x="-114" class="B"/></g><g class="D"><use xlink:href="#O" x="-114" class="O"/><use xlink:href="#P" x="-114" class="P"/><g class="Q"><use xlink:href="#Q" x="-114"/><use xlink:href="#R" x="-114"/></g></g><use xlink:href="#J" x="-342.1" class="B G"/><use xlink:href="#K" x="-342.1" class="D H I J"/><use xlink:href="#L" x="-342.1" class="K L"/><g class="C"><use xlink:href="#M" x="-342.1" class="M"/><use xlink:href="#N" x="-342.1" class="B"/></g><g class="D"><use xlink:href="#O" x="-342.1" class="O"/><use xlink:href="#P" x="-342.1" class="P"/><g class="Q"><use xlink:href="#Q" x="-342.1"/><use xlink:href="#R" x="-342.1"/></g></g><use xlink:href="#J" x="-456.2" class="B G"/><use xlink:href="#K" x="-456.2" class="D H I J"/><use xlink:href="#L" x="-456.2" class="K L"/><g class="C"><use xlink:href="#M" x="-456.2" class="M"/><use xlink:href="#N" x="-456.2" class="B"/></g><g class="D"><use xlink:href="#O" x="-456.2" class="O"/><use xlink:href="#P" x="-456.2" class="P"/><g class="Q"><use xlink:href="#Q" x="-456.2"/><use xlink:href="#R" x="-456.2"/></g></g><use xlink:href="#J" x="-570.2" class="B G"/><use xlink:href="#K" x="-570.2" class="D H I J"/><use xlink:href="#L" x="-570.2" class="K L"/><g class="C"><use xlink:href="#M" x="-570.2" class="M"/><use xlink:href="#N" x="-570.2" class="B"/></g><g class="D"><use xlink:href="#O" x="-570.2" class="O"/><use xlink:href="#P" x="-570.2" class="P"/><g class="Q"><use xlink:href="#Q" x="-570.2"/><use xlink:href="#R" x="-570.2"/></g></g><use xlink:href="#J" x="-684.3" class="B G"/><use xlink:href="#K" x="-684.3" class="D H I J"/><use xlink:href="#L" x="-684.3" class="K L"/><g class="C"><use xlink:href="#M" x="-684.3" class="M"/><use xlink:href="#N" x="-684.3" class="B"/></g><g class="D"><use xlink:href="#O" x="-684.3" class="O"/><use xlink:href="#P" x="-684.3" class="P"/><g class="Q"><use xlink:href="#Q" x="-684.3"/><use xlink:href="#R" x="-684.3"/></g></g><use xlink:href="#J" x="-798.3" class="B G"/><use xlink:href="#K" x="-798.3" class="D H I J"/><use xlink:href="#L" x="-798.3" class="K L"/><g class="C"><use xlink:href="#M" x="-798.3" class="M"/><use xlink:href="#N" x="-798.3" class="B"/></g><g class="D"><use xlink:href="#O" x="-798.3" class="O"/><use xlink:href="#P" x="-798.3" class="P"/><g class="Q"><use xlink:href="#Q" x="-798.3"/><use xlink:href="#R" x="-798.3"/></g></g><use xlink:href="#J" x="-912.4" class="B G"/><use xlink:href="#K" x="-912.4" class="D H I J"/><use xlink:href="#L" x="-912.4" class="K L"/><g class="C"><use xlink:href="#M" x="-912.4" class="M"/><use xlink:href="#N" x="-912.4" class="B"/></g><g class="D"><use xlink:href="#O" x="-912.4" class="O"/><use xlink:href="#P" x="-912.4" class="P"/><g class="Q"><use xlink:href="#Q" x="-912.4"/><use xlink:href="#R" x="-912.4"/></g></g><use xlink:href="#J" x="-1026.43" class="B G"/><use xlink:href="#K" x="-1026.43" class="D H I J"/><use xlink:href="#L" x="-1026.43" class="K L"/><g class="C"><use xlink:href="#M" x="-1026.43" class="M"/><use xlink:href="#N" x="-1026.43" class="B"/></g><g class="D"><use xlink:href="#O" x="-1026.43" class="O"/><use xlink:href="#P" x="-1026.43" class="P"/><g class="Q"><use xlink:href="#Q" x="-1026.43"/><use xlink:href="#R" x="-1026.43"/></g></g><use xlink:href="#J" x="-1140.48" class="B G"/><use xlink:href="#K" x="-1140.48" class="D H I J"/><use xlink:href="#L" x="-1140.48" class="K L"/><g class="C"><use xlink:href="#M" x="-1140.48" class="M"/><use xlink:href="#N" x="-1140.48" class="B"/></g><g class="D"><use xlink:href="#O" x="-1140.48" class="O"/><use xlink:href="#P" x="-1140.48" class="P"/><g class="Q"><use xlink:href="#Q" x="-1140.48"/><use xlink:href="#R" x="-1140.48"/></g></g><use xlink:href="#J" x="-1254.53" class="B G"/><use xlink:href="#K" x="-1254.53" class="D H I J"/><use xlink:href="#L" x="-1254.53" class="K L"/><g class="C"><use xlink:href="#M" x="-1254.53" class="M"/><use xlink:href="#N" x="-1254.53" class="B"/></g><g class="D"><use xlink:href="#O" x="-1254.53" class="O"/><use xlink:href="#P" x="-1254.53" class="P"/><g class="Q"><use xlink:href="#Q" x="-1254.53"/><use xlink:href="#R" x="-1254.53"/></g></g><use xlink:href="#J" x="-1368.58" class="B G"/><use xlink:href="#K" x="-1368.58" class="D H I J"/><use xlink:href="#L" x="-1368.58" class="K L"/><g class="C"><use xlink:href="#M" x="-1368.58" class="M"/><use xlink:href="#N" x="-1368.58" class="B"/></g><g class="D"><use xlink:href="#O" x="-1368.58" class="O"/><use xlink:href="#P" x="-1368.58" class="P"/><g class="Q"><use xlink:href="#Q" x="-1368.58"/><use xlink:href="#R" x="-1368.58"/></g></g><use xlink:href="#J" x="-1482.63" class="B G"/><use xlink:href="#K" x="-1482.63" class="D H I J"/><use xlink:href="#L" x="-1482.63" class="K L"/><g class="C"><use xlink:href="#M" x="-1482.63" class="M"/><use xlink:href="#N" x="-1482.63" class="B"/></g><g class="D"><use xlink:href="#O" x="-1482.63" class="O"/><use xlink:href="#P" x="-1482.63" class="P"/><g class="Q"><use xlink:href="#Q" x="-1482.63"/><use xlink:href="#R" x="-1482.63"/></g></g><use xlink:href="#J" x="-1596.68" class="B G"/><use xlink:href="#K" x="-1596.68" class="D H I J"/><use xlink:href="#L" x="-1596.68" class="K L"/><g class="C"><use xlink:href="#M" x="-1596.68" class="M"/><use xlink:href="#N" x="-1596.68" class="B"/></g><g class="D"><use xlink:href="#O" x="-1596.68" class="O"/><use xlink:href="#P" x="-1596.68" class="P"/><g class="Q"><use xlink:href="#Q" x="-1596.68"/><use xlink:href="#R" x="-1596.68"/></g></g><use xlink:href="#J" x="-228.1" class="B G"/><use xlink:href="#K" x="-228.1" class="D H I J"/><use xlink:href="#L" x="-228.1" class="K L"/><g class="C"><use xlink:href="#M" x="-228.1" class="M"/><use xlink:href="#N" x="-228.1" class="B"/></g><g class="D"><use xlink:href="#O" x="-228.1" class="O"/><use xlink:href="#P" x="-228.1" class="P"/><g class="Q"><use xlink:href="#Q" x="-228.1"/><use xlink:href="#R" x="-228.1"/></g></g><path d="M222.731 161.665h64.558c1.323 0 2.396-1.073 2.396-2.396V39.595c0-1.323-1.073-2.396-2.396-2.396h-64.558c-1.323 0-2.396 1.073-2.396 2.396v119.674c0 1.323 1.073 2.396 2.396 2.396z" stroke="#595959" stroke-width=".96" fill="url(#F)"/><g class="B"><path d="M145.006 30.851h2.163v8.219h-2.163zm19.594 2.356c-.094-.034-.783-.449-1.824-.449-1.403 0-2.362.931-2.362 2.199 0 1.234.935 2.188 2.362 2.188 1.017 0 1.73-.381 1.824-.449v2.21a7.02 7.02 0 0 1-1.976.292c-2.432 0-4.56-1.604-4.56-4.263 0-2.468 1.929-4.263 4.56-4.263 1.017 0 1.754.247 1.987.303v2.199zm-22.563 0c-.082-.034-.783-.449-1.812-.449-1.403 0-2.373.931-2.373 2.199 0 1.234.935 2.188 2.373 2.188 1.017 0 1.719-.381 1.812-.449v2.21a6.91 6.91 0 0 1-1.964.292c-2.432 0-4.56-1.604-4.56-4.263 0-2.468 1.929-4.263 4.56-4.263 1.017 0 1.754.247 1.964.303v2.199zm33.892 1.762c0 2.356-1.894 4.263-4.536 4.263-2.631 0-4.513-1.907-4.513-4.263s1.871-4.263 4.513-4.263 4.536 1.907 4.536 4.263zm-4.536-2.165c-1.286 0-2.221.965-2.221 2.165 0 1.189.959 2.154 2.221 2.154 1.286 0 2.245-.965 2.245-2.154 0-1.2-.959-2.165-2.245-2.165zm-16.029-.079c-.023-.011-.935-.247-1.684-.247-.865 0-1.344.269-1.344.673 0 .494.643.673.994.785l.585.191c1.403.426 2.046 1.346 2.046 2.356 0 2.064-1.894 2.76-3.542 2.76a13.34 13.34 0 0 1-2.338-.224v-1.907c.187.056 1.099.314 2.046.314 1.076 0 1.567-.303 1.567-.785 0-.415-.433-.651-.97-.819l-.468-.135c-1.204-.37-2.221-1.043-2.221-2.412 0-1.537 1.204-2.58 3.192-2.58a8.93 8.93 0 0 1 2.104.269v1.75zm-22.143-10.702c0-.561-.491-1.01-1.076-1.01s-1.076.449-1.076 1.01v2.154a1.01 1.01 0 0 0 .315.73 1.1 1.1 0 0 0 .761.302c.585 0 1.076-.449 1.076-1.032v-2.154zm5.892-2.828c0-.561-.491-1.032-1.076-1.032a1.1 1.1 0 0 0-.761.302 1.01 1.01 0 0 0-.315.73v4.981a1.01 1.01 0 0 0 .315.73 1.1 1.1 0 0 0 .761.302c.585 0 1.076-.449 1.076-1.032v-4.981zm5.893-3.881c0-.561-.468-1.01-1.076-1.01s-1.076.449-1.076 1.01V26.23c0 .57.482 1.032 1.076 1.032s1.076-.462 1.076-1.032V15.314zm5.892 3.881a1.01 1.01 0 0 0-.315-.73 1.1 1.1 0 0 0-.761-.302c-.585 0-1.076.449-1.076 1.032v4.981c0 .561.491 1.032 1.076 1.032a1.1 1.1 0 0 0 .761-.302 1.01 1.01 0 0 0 .315-.73v-4.981zm5.892 2.828c0-.561-.468-1.01-1.076-1.01-.585 0-1.076.449-1.076 1.01v2.154c0 .561.491 1.032 1.076 1.032a1.1 1.1 0 0 0 .761-.302 1.01 1.01 0 0 0 .315-.73v-2.154zm5.893-2.828a1.01 1.01 0 0 0-.315-.73 1.1 1.1 0 0 0-.761-.302c-.585 0-1.052.449-1.052 1.032v4.981c0 .561.468 1.032 1.052 1.032a1.1 1.1 0 0 0 .761-.302 1.01 1.01 0 0 0 .315-.73v-4.981zm5.892-3.881c0-.561-.468-1.01-1.052-1.01s-1.076.449-1.076 1.01V26.23a1.01 1.01 0 0 0 .315.73 1.1 1.1 0 0 0 .761.302c.585 0 1.052-.449 1.052-1.032V15.314zm5.916 3.881a1.01 1.01 0 0 0-.319-.734 1.1 1.1 0 0 0-.768-.298 1.09 1.09 0 0 0-.757.303 1 1 0 0 0-.307.729v4.981a1 1 0 0 0 .307.729c.2.194.472.303.757.303a1.1 1.1 0 0 0 .768-.298 1.01 1.01 0 0 0 .319-.734v-4.981zm5.869 2.828c0-.561-.468-1.01-1.052-1.01s-1.076.449-1.076 1.01v2.154a1.01 1.01 0 0 0 .315.73 1.1 1.1 0 0 0 .761.302c.585 0 1.052-.449 1.052-1.032v-2.154z" class="C"/><path d="M2148.78 161.315a3.79 3.79 0 1 0-7.68 0 3.79 3.79 0 1 0 7.68 0zm0-15.24c0-2.04-1.68-3.72-3.84-3.72s-3.84 1.68-3.84 3.6 1.68 3.84 3.84 3.84 3.84-1.44 3.84-3.84zm0-15.24a3.79 3.79 0 0 0-3.84-3.84 3.87 3.87 0 0 0-3.84 3.84 3.87 3.87 0 0 0 3.84 3.84 3.79 3.79 0 0 0 3.84-3.84zm0-15.24c0-2.04-1.68-3.72-3.84-3.72a3.79 3.79 0 1 0 0 7.68 3.87 3.87 0 0 0 3.84-3.84zm0-15.24c0-2.04-1.68-3.6-3.84-3.6s-3.84 1.56-3.84 3.6a3.87 3.87 0 0 0 3.84 3.84c2.16 0 3.84-1.44 3.84-3.84zm0-15.24a3.79 3.79 0 0 0-3.84-3.84c-2.16 0-3.84 1.8-3.84 3.96a3.79 3.79 0 1 0 7.68 0zm0-15.24c0-.72-1.68-3.72-3.84-3.72s-3.84 3-3.84 3.84 1.68 3.96 3.84 3.96 3.84-1.8 3.84-3.96zm0-30.48a3.79 3.79 0 0 0-3.84-3.84c-2.16 0-3.84 1.92-3.84 4.08a3.79 3.79 0 1 0 7.68 0zm0 15.24c0-1.92-1.68-3.48-3.84-3.48s-3.84 1.56-3.84 3.6a3.87 3.87 0 0 0 3.84 3.84 3.79 3.79 0 0 0 3.84-3.84zm-11.3-7.41a3.79 3.79 0 1 0-7.68 0 3.79 3.79 0 1 0 7.68 0zm0 15.211a3.79 3.79 0 1 0-7.68 0 3.79 3.79 0 1 0 7.68 0zm0 15.212a3.79 3.79 0 1 0-7.68 0 3.79 3.79 0 1 0 7.68 0zm0 15.211a3.79 3.79 0 1 0-7.68 0 3.79 3.79 0 1 0 7.68 0zm0 15.216a3.79 3.79 0 1 0-7.68 0 3.79 3.79 0 1 0 7.68 0zm0 15.21a3.79 3.79 0 1 0-7.68 0 3.79 3.79 0 1 0 7.68 0zm0 15.21a3.79 3.79 0 1 0-7.68 0 3.79 3.79 0 1 0 7.68 0zm0 15.21a3.79 3.79 0 1 0-7.68 0 3.79 3.79 0 1 0 7.68 0zM150.18 47.225a3.79 3.79 0 1 0-7.68 0 3.79 3.79 0 1 0 7.68 0zm0 15.211a3.79 3.79 0 1 0-7.68 0 3.79 3.79 0 1 0 7.68 0zm0 76.059a3.79 3.79 0 1 0-7.68 0 3.79 3.79 0 1 0 7.68 0zm52.5-83.665a3.79 3.79 0 1 0-7.68 0 3.79 3.79 0 1 0 7.68 0zm0-15.211a3.79 3.79 0 1 0-7.68 0 3.79 3.79 0 1 0 7.68 0zm0 30.423a3.79 3.79 0 1 0-7.68 0 3.79 3.79 0 1 0 7.68 0zm0 15.211a3.79 3.79 0 1 0-7.68 0 3.79 3.79 0 1 0 7.68 0zm0 15.212a3.79 3.79 0 1 0-7.68 0 3.79 3.79 0 1 0 7.68 0zm0 15.21a3.79 3.79 0 1 0-7.68 0 3.79 3.79 0 1 0 7.68 0zm0 15.21a3.79 3.79 0 1 0-7.68 0 3.79 3.79 0 1 0 7.68 0zm0 15.21a3.79 3.79 0 1 0-7.68 0 3.79 3.79 0 1 0 7.68 0zm0 15.22a3.79 3.79 0 1 0-7.68 0 3.79 3.79 0 1 0 7.68 0zm-35-106.485a3.79 3.79 0 1 0-7.68 0 3.79 3.79 0 1 0 7.68 0zm0 91.265a3.79 3.79 0 1 0-7.68 0 3.79 3.79 0 1 0 7.68 0zm17.5-98.87a3.79 3.79 0 1 0-7.68 0 3.79 3.79 0 1 0 7.68 0zm0 15.211a3.79 3.79 0 1 0-7.68 0 3.79 3.79 0 1 0 7.68 0zm0 15.212a3.79 3.79 0 1 0-7.68 0 3.79 3.79 0 1 0 7.68 0zm0 15.211a3.79 3.79 0 1 0-7.68 0 3.79 3.79 0 1 0 7.68 0zm0 15.216a3.79 3.79 0 1 0-7.68 0 3.79 3.79 0 1 0 7.68 0zm0 15.21a3.79 3.79 0 1 0-7.68 0 3.79 3.79 0 1 0 7.68 0zm0 15.21a3.79 3.79 0 1 0-7.68 0 3.79 3.79 0 1 0 7.68 0zm0 15.21a3.79 3.79 0 1 0-7.68 0 3.79 3.79 0 1 0 7.68 0z" class="G"/></g><g transform="translate(221.11 39.962)"><g stroke-width="1.209"><path fill="#151515" d="M67.724 74.175v42.718a2.39 2.39 0 0 1-.708 1.697 2.43 2.43 0 0 1-1.71.703H2.419a2.43 2.43 0 0 1-1.71-.703A2.39 2.39 0 0 1 0 116.893V74.175h67.724zm.076-29.056V2.4a2.39 2.39 0 0 0-.708-1.697A2.43 2.43 0 0 0 65.381 0H2.494a2.43 2.43 0 0 0-1.71.703A2.39 2.39 0 0 0 .076 2.4v42.718H67.8z" stroke="#8c8c8c"/><path fill="#c1c5cb" d="M25.233 73.234h16.931c2.419.12 3.991 2.16 3.628 4.32l-24.187.48c0-2.4 1.572-4.2 3.628-4.8zm.076-27.174H42.24c2.419-.12 3.991-2.16 3.628-4.32l-24.187-.48c0 2.4 1.572 4.2 3.628 4.8z" stroke="#737373"/></g><g transform="translate(11.275 77)" class="C"><path d="M0 0h45.107v16.937H0z" fill="#404040"/><path d="M1.499 5.652h42.086v5.64H1.499z" fill="#3c2d11"/><path d="M0 0h1.564v16.526H0z" transform="translate(8.604 .26)" class="E"/><path d="M8.604 5.906h1.564v5.255H8.604z" class="F"/><path d="M0 0h1.564v16.526H0z" transform="translate(16.125 .26)" class="E"/><path d="M16.125 5.906h1.564v5.255h-1.564z" class="F"/><path d="M0 0h1.564v16.526H0z" transform="translate(12.371 .26)" class="E"/><path d="M12.371 5.906h1.564v5.255h-1.564z" class="F"/><path d="M0 0h1.564v16.526H0z" transform="translate(19.892 .26)" class="E"/><path d="M19.892 5.906h1.564v5.255h-1.564z" class="F"/><path d="M0 0h1.564v16.526H0z" transform="translate(23.646 .26)" class="E"/><path d="M23.646 5.906h1.564v5.255h-1.564z" class="F"/><path d="M0 0h1.564v16.526H0z" transform="translate(27.412 .26)" class="E"/><path d="M27.412 5.906h1.564v5.255h-1.564z" class="F"/><path d="M0 0h1.564v16.526H0z" transform="translate(31.179 .26)" class="E"/><path d="M31.179 5.906h1.564v5.255h-1.564z" class="F"/><path d="M0 0h1.564v16.526H0z" transform="translate(34.933 .26)" class="E"/><path d="M34.933 5.906h1.564v5.255h-1.564z" class="F"/><path d="M0 0h1.564v16.526H0z" transform="translate(38.7 .26)" class="E"/><path d="M38.7 5.906h1.564v5.255H38.7z" class="F"/><path d="M0 0h1.564v16.526H0z" transform="translate(4.85 .26)" class="E"/><path d="M4.85 5.906h1.564v5.255H4.85z" class="F"/></g><g transform="translate(11.35 25.358)" class="C"><path d="M0 0h45.107v16.937H0z" fill="#404040"/><path d="M1.499 5.652h42.086v5.64H1.499z" fill="#3c2d11"/><path d="M0 0h1.564v16.526H0z" transform="translate(8.604 .26)" class="E"/><path d="M8.604 5.906h1.564v5.255H8.604z" class="F"/><path d="M0 0h1.564v16.526H0z" transform="translate(16.125 .26)" class="E"/><path d="M16.125 5.906h1.564v5.255h-1.564z" class="F"/><path d="M0 0h1.564v16.526H0z" transform="translate(12.371 .26)" class="E"/><path d="M12.371 5.906h1.564v5.255h-1.564z" class="F"/><path d="M0 0h1.564v16.526H0z" transform="translate(19.892 .26)" class="E"/><path d="M19.892 5.906h1.564v5.255h-1.564z" class="F"/><path d="M0 0h1.564v16.526H0z" transform="translate(23.646 .26)" class="E"/><path d="M23.646 5.906h1.564v5.255h-1.564z" class="F"/><path d="M0 0h1.564v16.526H0z" transform="translate(27.412 .26)" class="E"/><path d="M27.412 5.906h1.564v5.255h-1.564z" class="F"/><path d="M0 0h1.564v16.526H0z" transform="translate(31.179 .26)" class="E"/><path d="M31.179 5.906h1.564v5.255h-1.564z" class="F"/><path d="M0 0h1.564v16.526H0z" transform="translate(34.933 .26)" class="E"/><path d="M34.933 5.906h1.564v5.255h-1.564z" class="F"/><path d="M0 0h1.564v16.526H0z" transform="translate(38.7 .26)" class="E"/><path d="M38.7 5.906h1.564v5.255H38.7z" class="F"/><path d="M0 0h1.564v16.526H0z" transform="translate(4.85 .26)" class="E"/><path d="M4.85 5.906h1.564v5.255H4.85z" class="F"/></g><path d="M20.093 64.158h10.28l-5.079-9-5.2 9zm17.322-9.023h10.28l-5.079 9-5.2-9z" class="B C"/></g><use xlink:href="#J" x="-1710.73" class="B G"/><use xlink:href="#K" x="-1710.73" class="D H I J"/><use xlink:href="#L" x="-1710.73" class="K L"/><g class="C"><use xlink:href="#M" x="-1710.73" class="M"/><use xlink:href="#N" x="-1710.73" class="B"/></g><g class="D"><use xlink:href="#O" x="-1710.73" class="O"/><use xlink:href="#P" x="-1710.73" class="P"/><g class="Q"><use xlink:href="#Q" x="-1710.73"/><use xlink:href="#R" x="-1710.73"/></g></g><g class="B"><path d="M270.05 16.09h-8.76l4.32 8.4 4.44-8.4zm-31.28 8.063h8.76l-4.32-8.4-4.44 8.4zm1737.93-9.709h-10.56l5.28 9.84 5.28-9.84zm-37.6 9.676h10.56l-5.28-9.84-5.28 9.84zm151.6-9.676h-10.56l5.28 9.84 5.28-9.84zm-37.5 9.676h10.56l-5.28-9.84-5.28 9.84zM379.98 14.444h-10.56l5.28 9.84 5.28-9.84zm-37.54 9.676H353l-5.28-9.84-5.28 9.84zm151.59-9.676h-10.56l5.28 9.84 5.28-9.84zm-37.54 9.676h10.56l-5.28-9.84-5.28 9.84zm151.59-9.676h-10.56l5.28 9.84 5.28-9.84zm-37.54 9.676h10.56l-5.28-9.84-5.28 9.84zm151.59-9.676h-10.56l5.28 9.84 5.28-9.84zm-37.54 9.676h10.56l-5.28-9.84-5.28 9.84zm151.59-9.676h-10.56l5.28 9.84 5.28-9.84zm-37.54 9.676h10.56l-5.28-9.84-5.28 9.84zm151.58-9.676h-10.56l5.28 9.84 5.28-9.84zm-37.54 9.676h10.56l-5.28-9.84-5.28 9.84zm151.62-9.676h-10.56l5.28 9.84 5.28-9.84zm-37.6 9.676h10.56l-5.28-9.84-5.28 9.84zm151.6-9.676h-10.56l5.28 9.84 5.28-9.84zm-37.5 9.676h10.56l-5.28-9.84-5.28 9.84zm151.6-9.676h-10.56l5.28 9.84 5.28-9.84zm-37.6 9.676h10.56l-5.28-9.84-5.28 9.84zm151.6-9.676h-10.56l5.28 9.84 5.28-9.84zm-37.5 9.676h10.56l-5.28-9.84-5.28 9.84zm151.6-9.676h-10.56l5.28 9.84 5.28-9.84zm-37.6 9.676h10.56l-5.28-9.84-5.28 9.84zm151.6-9.676h-10.56l5.28 9.84 5.28-9.84zM1597 24.12h10.56l-5.28-9.84-5.28 9.84zm151.6-9.676h-10.56l5.28 9.84 5.28-9.84zM1711 24.12h10.56l-5.28-9.84-5.28 9.84zm151.6-9.676h-10.56l5.28 9.84 5.28-9.84zm-37.5 9.676h10.56l-5.28-9.84-5.28 9.84z" class="C"/><g class="R"><path d="M2030.4 190.695h8.64v-8.64h-8.64v8.64zm14.1 0h8.64v-8.64h-8.64v8.64zm42.5 0h8.64v-8.64H2087v8.64zm14.1 0h8.64v-8.64h-8.64v8.64zm14.2 0h8.64v-8.64h-8.64v8.64zm-99.1 0h8.64v-8.64h-8.64v8.64zm-99.1 0h8.64v-8.64h-8.64v8.64zm14.2 0h8.64v-8.64h-8.64v8.64zm42.4 0h8.64v-8.64h-8.64v8.64zm14.2 0h8.64v-8.64h-8.64v8.64zm14.1 0h8.64v-8.64H2002v8.64zm-99 0h8.64v-8.64H1903v8.64zm-99.1 0h8.64v-8.64h-8.64v8.64zm14.1 0h8.64v-8.64H1818v8.64zm42.5 0h8.64v-8.64h-8.64v8.64zm14.1 0h8.64v-8.64h-8.64v8.64zm14.2 0h8.64v-8.64h-8.64v8.64zm-99.1 0h8.64v-8.64h-8.64v8.64zm-99.1 0h8.64v-8.64h-8.64v8.64zm14.2 0h8.64v-8.64h-8.64v8.64zm42.4 0h8.64v-8.64h-8.64v8.64zm14.2 0h8.64v-8.64h-8.64v8.64zm14.2 0h8.64v-8.64h-8.64v8.64zm-99.1 0h8.64v-8.64h-8.64v8.64zm-99.1 0h8.64v-8.64h-8.64v8.64zm14.1 0h8.64v-8.64h-8.64v8.64zm42.5 0h8.64v-8.64H1634v8.64zm14.2 0h8.64v-8.64h-8.64v8.64zm14.1 0h8.64v-8.64h-8.64v8.64zm-99.1 0h8.64v-8.64h-8.64v8.64zm-42.4 0h8.64v-8.64h-8.64v8.64zm14.1 0h8.64v-8.64h-8.64v8.64zm14.2 0h8.64v-8.64h-8.64v8.64zm-85 0h8.64v-8.64h-8.64v8.64zm14.2 0h8.64v-8.64h-8.64v8.64zm-28.3 0h8.64v-8.64H1450v8.64zm-99.1 0h8.64v-8.64h-8.64v8.64zm14.1 0h8.64v-8.64H1365v8.64zm42.5 0h8.64v-8.64h-8.64v8.64zm14.2 0h8.64v-8.64h-8.64v8.64zm14.1 0h8.64v-8.64h-8.64v8.64zm-99.1 0h8.64v-8.64h-8.64v8.64zm-99.1 0h8.64v-8.64h-8.64v8.64zm14.2 0h8.64v-8.64h-8.64v8.64zm42.5 0h8.64v-8.64h-8.64v8.64zm14.1 0h8.64v-8.64h-8.64v8.64zm14.2 0h8.64v-8.64h-8.64v8.64zm-99.1 0h8.64v-8.64h-8.64v8.64zm-99.1 0h8.64v-8.64h-8.64v8.64zm14.2 0h8.64v-8.64h-8.64v8.64zm42.4 0h8.64v-8.64H1181v8.64zm14.2 0h8.64v-8.64h-8.64v8.64zm14.1 0h8.64v-8.64h-8.64v8.64zm-99.1 0h8.64v-8.64h-8.64v8.64zm-99 0h8.64v-8.64h-8.64v8.64zm14.1 0h8.64v-8.64h-8.64v8.64zm42.5 0h8.64v-8.64h-8.64v8.64zm14.1 0h8.64v-8.64h-8.64v8.64zm14.2 0h8.64v-8.64h-8.64v8.64zm-99.1 0h8.64v-8.64H997v8.64zm-99.09 0h8.64v-8.64h-8.64v8.64zm14.16 0h8.64v-8.64h-8.64v8.64zm42.47 0h8.64v-8.64h-8.64v8.64zm14.15 0h8.64v-8.64h-8.64v8.64zm14.16 0h8.64v-8.64h-8.64v8.64zm-99.09 0h8.64v-8.64h-8.64v8.64zm-99.09 0h8.64v-8.64h-8.64v8.64zm14.16 0h8.64v-8.64h-8.64v8.64zm42.46 0h8.64v-8.64h-8.64v8.64zm14.16 0h8.64v-8.64h-8.64v8.64zm14.15 0h8.64v-8.64h-8.64v8.64zm-99.08 0h8.64v-8.64h-8.64v8.64zm-99.09 0h8.64v-8.64h-8.64v8.64zm14.15 0h8.64v-8.64h-8.64v8.64zm42.47 0h8.64v-8.64h-8.64v8.64zm14.15 0h8.64v-8.64h-8.64v8.64zm14.16 0H765v-8.64h-8.64v8.64zm-99.09 0h8.64v-8.64h-8.64v8.64zm-99.09 0h8.64v-8.64h-8.64v8.64zm14.16 0h8.64v-8.64h-8.64v8.64zm42.46 0h8.64v-8.64h-8.64v8.64zm14.16 0h8.64v-8.64h-8.64v8.64zm14.16 0h8.64v-8.64h-8.64v8.64zm-99.09 0h8.64v-8.64h-8.64v8.64zm-99.09 0h8.64v-8.64h-8.64v8.64zm14.15 0h8.64v-8.64h-8.64v8.64zm42.47 0h8.64v-8.64h-8.64v8.64zm14.16 0h8.64v-8.64h-8.64v8.64zm14.15 0h8.64v-8.64h-8.64v8.64zm-99.09 0h8.64v-8.64h-8.64v8.64zm-99.09 0h8.64v-8.64h-8.64v8.64zm14.16 0h8.64v-8.64h-8.64v8.64zm42.47 0h8.64v-8.64h-8.64v8.64zm14.15 0h8.64v-8.64h-8.64v8.64zm14.16 0h8.64v-8.64h-8.64v8.64zm-99.09 0h8.64v-8.64h-8.64v8.64zm-84.93 0h8.64v-8.64h-8.64v8.64zm42.46 0h8.64v-8.64h-8.64v8.64zm14.16 0h8.64v-8.64h-8.64v8.64zm14.15 0h8.64v-8.64h-8.64v8.64z"/><path d="M2030.4 204.525h8.64v-6.24h-8.64v6.24zm14.1 0h8.64v-6.24h-8.64v6.24zm14.2 0h8.64v-6.24h-8.64v6.24zm14.1 0h8.64v-6.24h-8.64v6.24zm14.2 0h8.64v-6.24H2087v6.24zm14.1 0h8.64v-6.24h-8.64v6.24zm14.2 0h8.64v-6.24h-8.64v6.24zm-99.1 0h8.64v-6.24h-8.64v6.24zm-99.1 0h8.64v-6.24h-8.64v6.24zm14.2 0h8.64v-6.24h-8.64v6.24zm14.1 0h8.64v-6.24h-8.64v6.24zm14.2 0h8.64v-6.24h-8.64v6.24zm14.1 0h8.64v-6.24h-8.64v6.24zm14.2 0h8.64v-6.24h-8.64v6.24zm14.1 0h8.64v-6.24H2002v6.24zm-99 0h8.64v-6.24H1903v6.24zm-99.1 0h8.64v-6.24h-8.64v6.24zm14.1 0h8.64v-6.24H1818v6.24zm14.2 0h8.64v-6.24h-8.64v6.24zm14.1 0h8.64v-6.24h-8.64v6.24zm14.2 0h8.64v-6.24h-8.64v6.24zm14.1 0h8.64v-6.24h-8.64v6.24zm14.2 0h8.64v-6.24h-8.64v6.24zm-99.1 0h8.64v-6.24h-8.64v6.24zm-99.1 0h8.64v-6.24h-8.64v6.24zm14.2 0h8.64v-6.24h-8.64v6.24zm14.1 0h8.64v-6.24h-8.64v6.24zm14.2 0h8.64v-6.24h-8.64v6.24zm14.1 0h8.64v-6.24h-8.64v6.24zm14.2 0h8.64v-6.24h-8.64v6.24zm14.2 0h8.64v-6.24h-8.64v6.24zm-99.1 0h8.64v-6.24h-8.64v6.24zm-99.1 0h8.64v-6.24h-8.64v6.24zm14.1 0h8.64v-6.24h-8.64v6.24zm14.2 0h8.64v-6.24h-8.64v6.24zm14.1 0h8.64v-6.24h-8.64v6.24zm14.2 0h8.64v-6.24H1634v6.24zm14.2 0h8.64v-6.24h-8.64v6.24zm14.1 0h8.64v-6.24h-8.64v6.24zm-99.1 0h8.64v-6.24h-8.64v6.24zm-70.8 0h8.64v-6.24h-8.64v6.24zm14.2 0h8.64v-6.24h-8.64v6.24zm14.2 0h8.64v-6.24h-8.64v6.24zm14.1 0h8.64v-6.24h-8.64v6.24zm14.2 0h8.64v-6.24h-8.64v6.24zm-85 0h8.64v-6.24h-8.64v6.24zm14.2 0h8.64v-6.24h-8.64v6.24zm-28.3 0h8.64v-6.24H1450v6.24zm-99.1 0h8.64v-6.24h-8.64v6.24zm14.1 0h8.64v-6.24H1365v6.24zm14.2 0h8.64v-6.24h-8.64v6.24zm14.2 0h8.64v-6.24h-8.64v6.24zm14.1 0h8.64v-6.24h-8.64v6.24zm14.2 0h8.64v-6.24h-8.64v6.24zm14.1 0h8.64v-6.24h-8.64v6.24zm-99.1 0h8.64v-6.24h-8.64v6.24zm-99.1 0h8.64v-6.24h-8.64v6.24zm14.2 0h8.64v-6.24h-8.64v6.24zm14.2 0h8.64v-6.24H1266v6.24zm14.1 0h8.64v-6.24h-8.64v6.24zm14.2 0h8.64v-6.24h-8.64v6.24zm14.1 0h8.64v-6.24h-8.64v6.24zm14.2 0h8.64v-6.24h-8.64v6.24zm-99.1 0h8.64v-6.24h-8.64v6.24zm-99.1 0h8.64v-6.24h-8.64v6.24zm14.2 0h8.64v-6.24h-8.64v6.24zm14.1 0h8.64v-6.24h-8.64v6.24zm14.2 0h8.64v-6.24h-8.64v6.24zm14.1 0h8.64v-6.24H1181v6.24zm14.2 0h8.64v-6.24h-8.64v6.24zm14.1 0h8.64v-6.24h-8.64v6.24zm-99.1 0h8.64v-6.24h-8.64v6.24zm-99 0h8.64v-6.24h-8.64v6.24zm14.1 0h8.64v-6.24h-8.64v6.24zm14.2 0h8.64v-6.24h-8.64v6.24zm14.1 0h8.64v-6.24h-8.64v6.24zm14.2 0h8.64v-6.24h-8.64v6.24zm14.1 0h8.64v-6.24h-8.64v6.24zm14.2 0h8.64v-6.24h-8.64v6.24zm-99.1 0h8.64v-6.24H997v6.24zm-99.09 0h8.64v-6.24h-8.64v6.24zm14.16 0h8.64v-6.24h-8.64v6.24zm14.16 0h8.64v-6.24h-8.64v6.24zm14.15 0h8.64v-6.24h-8.64v6.24zm14.16 0h8.64v-6.24h-8.64v6.24zm14.15 0h8.64v-6.24h-8.64v6.24zm14.16 0h8.64v-6.24h-8.64v6.24zm-99.09 0h8.64v-6.24h-8.64v6.24zm-99.09 0h8.64v-6.24h-8.64v6.24zm14.16 0h8.64v-6.24h-8.64v6.24zm14.15 0h8.64v-6.24h-8.64v6.24zm14.16 0h8.64v-6.24h-8.64v6.24zm14.15 0h8.64v-6.24h-8.64v6.24zm14.16 0h8.64v-6.24h-8.64v6.24zm14.15 0h8.64v-6.24h-8.64v6.24zm-99.08 0h8.64v-6.24h-8.64v6.24zm-99.09 0h8.64v-6.24h-8.64v6.24zm14.15 0h8.64v-6.24h-8.64v6.24zm14.16 0h8.64v-6.24h-8.64v6.24zm14.15 0h8.64v-6.24h-8.64v6.24zm14.16 0h8.64v-6.24h-8.64v6.24zm14.15 0h8.64v-6.24h-8.64v6.24zm14.16 0H765v-6.24h-8.64v6.24zm-99.09 0h8.64v-6.24h-8.64v6.24zm-99.09 0h8.64v-6.24h-8.64v6.24zm14.16 0h8.64v-6.24h-8.64v6.24zm14.15 0h8.64v-6.24h-8.64v6.24zm14.16 0h8.64v-6.24h-8.64v6.24zm14.15 0h8.64v-6.24h-8.64v6.24zm14.16 0h8.64v-6.24h-8.64v6.24zm14.16 0h8.64v-6.24h-8.64v6.24zm-99.09 0h8.64v-6.24h-8.64v6.24zm-99.09 0h8.64v-6.24h-8.64v6.24zm14.15 0h8.64v-6.24h-8.64v6.24zm14.16 0h8.64v-6.24h-8.64v6.24zm14.16 0h8.64v-6.24h-8.64v6.24zm14.15 0h8.64v-6.24h-8.64v6.24zm14.16 0h8.64v-6.24h-8.64v6.24zm14.15 0h8.64v-6.24h-8.64v6.24zm-99.09 0h8.64v-6.24h-8.64v6.24zm-99.09 0h8.64v-6.24h-8.64v6.24zm14.16 0h8.64v-6.24h-8.64v6.24zm14.16 0h8.64v-6.24h-8.64v6.24zm14.15 0h8.64v-6.24h-8.64v6.24zm14.16 0h8.64v-6.24h-8.64v6.24zm14.15 0h8.64v-6.24h-8.64v6.24zm14.16 0h8.64v-6.24h-8.64v6.24zm-99.09 0h8.64v-6.24h-8.64v6.24zm-99.09 0h8.64v-6.24h-8.64v6.24zm14.16 0h8.64v-6.24h-8.64v6.24zm14.15 0h8.64v-6.24h-8.64v6.24zm14.16 0h8.64v-6.24h-8.64v6.24zm14.15 0h8.64v-6.24h-8.64v6.24zm14.16 0h8.64v-6.24h-8.64v6.24zm14.15 0h8.64v-6.24h-8.64v6.24zm-99.08 0h8.64v-6.24h-8.64v6.24z"/></g></g><path d="M2030.4 204.525h8.64v-3.12h-8.64v3.12zm14.1 0h8.64v-3.12h-8.64v3.12zm14.2 0h8.64v-3.12h-8.64v3.12zm14.1 0h8.64v-3.12h-8.64v3.12zm14.2 0h8.64v-3.12H2087v3.12zm14.1 0h8.64v-3.12h-8.64v3.12zm14.2 0h8.64v-3.12h-8.64v3.12zm-99.1 0h8.64v-3.12h-8.64v3.12zm-99.1 0h8.64v-3.12h-8.64v3.12zm14.2 0h8.64v-3.12h-8.64v3.12zm14.1 0h8.64v-3.12h-8.64v3.12zm14.2 0h8.64v-3.12h-8.64v3.12zm14.1 0h8.64v-3.12h-8.64v3.12zm14.2 0h8.64v-3.12h-8.64v3.12zm14.1 0h8.64v-3.12H2002v3.12zm-99 0h8.64v-3.12H1903v3.12zm-99.1 0h8.64v-3.12h-8.64v3.12zm14.1 0h8.64v-3.12H1818v3.12zm14.2 0h8.64v-3.12h-8.64v3.12zm14.1 0h8.64v-3.12h-8.64v3.12zm14.2 0h8.64v-3.12h-8.64v3.12zm14.1 0h8.64v-3.12h-8.64v3.12zm14.2 0h8.64v-3.12h-8.64v3.12zm-99.1 0h8.64v-3.12h-8.64v3.12zm-99.1 0h8.64v-3.12h-8.64v3.12zm14.2 0h8.64v-3.12h-8.64v3.12zm14.1 0h8.64v-3.12h-8.64v3.12zm14.2 0h8.64v-3.12h-8.64v3.12zm14.1 0h8.64v-3.12h-8.64v3.12zm14.2 0h8.64v-3.12h-8.64v3.12zm14.2 0h8.64v-3.12h-8.64v3.12zm-99.1 0h8.64v-3.12h-8.64v3.12zm-99.1 0h8.64v-3.12h-8.64v3.12zm14.1 0h8.64v-3.12h-8.64v3.12zm14.2 0h8.64v-3.12h-8.64v3.12zm14.1 0h8.64v-3.12h-8.64v3.12zm14.2 0h8.64v-3.12H1634v3.12zm14.2 0h8.64v-3.12h-8.64v3.12zm14.1 0h8.64v-3.12h-8.64v3.12zm-99.1 0h8.64v-3.12h-8.64v3.12zm-70.8 0h8.64v-3.12h-8.64v3.12zm14.2 0h8.64v-3.12h-8.64v3.12zm14.2 0h8.64v-3.12h-8.64v3.12zm14.1 0h8.64v-3.12h-8.64v3.12zm14.2 0h8.64v-3.12h-8.64v3.12zm-85 0h8.64v-3.12h-8.64v3.12zm14.2 0h8.64v-3.12h-8.64v3.12zm-28.3 0h8.64v-3.12H1450v3.12zm-99.1 0h8.64v-3.12h-8.64v3.12zm14.1 0h8.64v-3.12H1365v3.12zm14.2 0h8.64v-3.12h-8.64v3.12zm14.2 0h8.64v-3.12h-8.64v3.12zm14.1 0h8.64v-3.12h-8.64v3.12zm14.2 0h8.64v-3.12h-8.64v3.12zm14.1 0h8.64v-3.12h-8.64v3.12zm-99.1 0h8.64v-3.12h-8.64v3.12zm-99.1 0h8.64v-3.12h-8.64v3.12zm14.2 0h8.64v-3.12h-8.64v3.12zm14.2 0h8.64v-3.12H1266v3.12zm14.1 0h8.64v-3.12h-8.64v3.12zm14.2 0h8.64v-3.12h-8.64v3.12zm14.1 0h8.64v-3.12h-8.64v3.12zm14.2 0h8.64v-3.12h-8.64v3.12zm-99.1 0h8.64v-3.12h-8.64v3.12zm-99.1 0h8.64v-3.12h-8.64v3.12zm14.2 0h8.64v-3.12h-8.64v3.12zm14.1 0h8.64v-3.12h-8.64v3.12zm14.2 0h8.64v-3.12h-8.64v3.12zm14.1 0h8.64v-3.12H1181v3.12zm14.2 0h8.64v-3.12h-8.64v3.12zm14.1 0h8.64v-3.12h-8.64v3.12zm-99.1 0h8.64v-3.12h-8.64v3.12zm-99 0h8.64v-3.12h-8.64v3.12zm14.1 0h8.64v-3.12h-8.64v3.12zm14.2 0h8.64v-3.12h-8.64v3.12zm14.1 0h8.64v-3.12h-8.64v3.12zm14.2 0h8.64v-3.12h-8.64v3.12zm14.1 0h8.64v-3.12h-8.64v3.12zm14.2 0h8.64v-3.12h-8.64v3.12zm-99.1 0h8.64v-3.12H997v3.12zm-99.09 0h8.64v-3.12h-8.64v3.12zm14.16 0h8.64v-3.12h-8.64v3.12zm14.16 0h8.64v-3.12h-8.64v3.12zm14.15 0h8.64v-3.12h-8.64v3.12zm14.16 0h8.64v-3.12h-8.64v3.12zm14.15 0h8.64v-3.12h-8.64v3.12zm14.16 0h8.64v-3.12h-8.64v3.12zm-99.09 0h8.64v-3.12h-8.64v3.12zm-99.09 0h8.64v-3.12h-8.64v3.12zm14.16 0h8.64v-3.12h-8.64v3.12zm14.15 0h8.64v-3.12h-8.64v3.12zm14.16 0h8.64v-3.12h-8.64v3.12zm14.15 0h8.64v-3.12h-8.64v3.12zm14.16 0h8.64v-3.12h-8.64v3.12zm14.15 0h8.64v-3.12h-8.64v3.12zm-99.08 0h8.64v-3.12h-8.64v3.12zm-99.09 0h8.64v-3.12h-8.64v3.12zm14.15 0h8.64v-3.12h-8.64v3.12zm14.16 0h8.64v-3.12h-8.64v3.12zm14.15 0h8.64v-3.12h-8.64v3.12zm14.16 0h8.64v-3.12h-8.64v3.12zm14.15 0h8.64v-3.12h-8.64v3.12zm14.16 0H765v-3.12h-8.64v3.12zm-99.09 0h8.64v-3.12h-8.64v3.12zm-99.09 0h8.64v-3.12h-8.64v3.12zm14.16 0h8.64v-3.12h-8.64v3.12zm14.15 0h8.64v-3.12h-8.64v3.12zm14.16 0h8.64v-3.12h-8.64v3.12zm14.15 0h8.64v-3.12h-8.64v3.12zm14.16 0h8.64v-3.12h-8.64v3.12zm14.16 0h8.64v-3.12h-8.64v3.12zm-99.09 0h8.64v-3.12h-8.64v3.12zm-99.09 0h8.64v-3.12h-8.64v3.12zm14.15 0h8.64v-3.12h-8.64v3.12zm14.16 0h8.64v-3.12h-8.64v3.12zm14.16 0h8.64v-3.12h-8.64v3.12zm14.15 0h8.64v-3.12h-8.64v3.12zm14.16 0h8.64v-3.12h-8.64v3.12zm14.15 0h8.64v-3.12h-8.64v3.12zm-99.09 0h8.64v-3.12h-8.64v3.12zm-99.09 0h8.64v-3.12h-8.64v3.12zm14.16 0h8.64v-3.12h-8.64v3.12zm14.16 0h8.64v-3.12h-8.64v3.12zm14.15 0h8.64v-3.12h-8.64v3.12zm14.16 0h8.64v-3.12h-8.64v3.12zm14.15 0h8.64v-3.12h-8.64v3.12zm14.16 0h8.64v-3.12h-8.64v3.12zm-99.09 0h8.64v-3.12h-8.64v3.12zm-99.09 0h8.64v-3.12h-8.64v3.12zm14.16 0h8.64v-3.12h-8.64v3.12zm14.15 0h8.64v-3.12h-8.64v3.12zm14.16 0h8.64v-3.12h-8.64v3.12zm14.15 0h8.64v-3.12h-8.64v3.12zm14.16 0h8.64v-3.12h-8.64v3.12zm14.15 0h8.64v-3.12h-8.64v3.12zm-99.08 0h8.64v-3.12h-8.64v3.12z" stroke="#595959" class="I R"/><g class="B C"><path d="M134.587 86.413h-3.316v-8.531h2.988q1.553 0 2.355.595.803.595.803 1.743 0 .627-.322 1.104-.322.478-.896.7.656.164 1.034.662.378.498.378 1.219 0 1.23-.785 1.863-.785.633-2.238.645zm.053-3.715h-1.611v2.303h1.506q.621 0 .97-.296.349-.296.349-.817 0-1.172-1.213-1.189zm-1.611-3.393v2.15h1.301q1.33-.023 1.33-1.061 0-.58-.337-.835-.337-.255-1.063-.255h-1.23zm10.839 4.267h1.758q-.1 1.377-1.017 2.168-.917.791-2.417.791-1.641 0-2.581-1.104-.94-1.104-.94-3.032v-.521q0-1.23.434-2.168.434-.937 1.239-1.438.806-.501 1.872-.501 1.477 0 2.379.791.902.791 1.043 2.221h-1.758q-.064-.826-.46-1.198-.396-.372-1.204-.372-.879 0-1.315.63-.437.63-.448 1.954v.645q0 1.383.419 2.021.419.639 1.321.639.814 0 1.216-.372.401-.372.46-1.151z"/><use xlink:href="#S"/><use xlink:href="#T"/><path d="M146.018 96.882v1.424h-2.613v7.107h-1.758v-7.107h-2.578v-1.424h6.949z"/><use xlink:href="#T" x="14.707"/><path d="M136.361 117.839v1.377h-3.375v2.285h3.961v1.412h-5.719v-8.531h5.707v1.424h-3.949v2.033h3.375z"/><use xlink:href="#S" x="-8.802" y="36.5"/><path d="M147.681 114.382l1.922 6.416 1.934-6.416h1.957l-2.971 8.531h-1.834l-2.959-8.531h1.951z"/><use xlink:href="#U"/><path d="M137.674 165.97v5.283h-.903v-5.283h.903zm-.977-1.401q0-.22.134-.371.134-.151.398-.151.264 0 .4.151.137.151.137.371 0 .22-.137.366-.137.146-.4.146-.264 0-.398-.146-.134-.146-.134-.366z"/><use xlink:href="#V"/><path d="M146.395 170.613q.483 0 .845-.293.361-.293.4-.732h.854q-.024.454-.312.864-.288.41-.769.654-.481.244-1.018.244-1.079 0-1.716-.72-.637-.72-.637-1.97v-.151q0-.771.283-1.372.283-.601.813-.933.53-.332 1.252-.332.889 0 1.477.532.588.532.627 1.382h-.854q-.039-.513-.388-.842-.349-.33-.862-.33-.688 0-1.067.496-.378.496-.378 1.433v.171q0 .913.376 1.406.376.493 1.074.493zm2.875-1.987v-.063q0-.776.305-1.396.305-.62.85-.957.544-.337 1.243-.337 1.079 0 1.746.747.667.747.667 1.987v.063q0 .771-.295 1.384-.295.613-.845.955-.549.342-1.262.342-1.074 0-1.741-.747-.667-.747-.667-1.978zm.908.044q0 .879.408 1.411.408.532 1.091.532.688 0 1.094-.54.405-.54.405-1.511 0-.869-.413-1.409-.413-.54-1.096-.54-.669 0-1.079.532-.41.532-.41 1.523z"/><use xlink:href="#W"/><path d="M139.505 183.351q-1.074 0-1.748-.706-.674-.706-.674-1.887v-.166q0-.786.3-1.404.3-.618.84-.967.54-.349 1.169-.349 1.03 0 1.602.679.571.679.571 1.943v.376h-3.579q.02.781.457 1.262.437.481 1.111.481.479 0 .811-.195.332-.195.581-.518l.552.43q-.664 1.021-1.992 1.021zm-.112-4.736q-.547 0-.918.398-.371.398-.459 1.116h2.646v-.068q-.039-.688-.371-1.067-.332-.378-.898-.378zm3.833-.645l1.157 1.929 1.172-1.929h1.055l-1.729 2.612 1.782 2.671h-1.045l-1.221-1.978-1.221 1.978h-1.05l1.782-2.671-1.729-2.612h1.045zm7.622 5.283l-.02-.522q-.527.62-1.548.62-.845 0-1.287-.491-.442-.491-.447-1.453v-3.437h.903v3.413q0 1.201.977 1.201 1.035 0 1.377-.771v-3.843h.903v5.283h-.859z"/><use xlink:href="#V" x="13.96" y="12"/><use xlink:href="#W" y="12"/><use xlink:href="#X"/><path d="M147.395 195.253l-2.52-3.306-.869.903v2.402h-.937v-7.109h.938v3.516l3.159-3.516h1.133l-2.798 3.14 3.018 3.97h-1.123zm3.37-3.389v.737h-2.383v-.737h2.383z"/><use xlink:href="#U" x="21.46" y="24"/><use xlink:href="#X" x="20.84"/><use xlink:href="#Y"/><use xlink:href="#Y" x="5.615"/><path d="M179.564 194.516v.737h-4.658v-.649l2.461-2.734q.547-.62.754-1.008.208-.388.208-.803 0-.557-.337-.913-.337-.356-.898-.356-.674 0-1.047.383-.374.383-.374 1.067h-.903q0-.981.632-1.587.632-.605 1.692-.605.991 0 1.567.52.576.52.576 1.384 0 1.05-1.338 2.5l-1.904 2.065h3.569z"/><use xlink:href="#U" x="50.43" y="24"/><use xlink:href="#Z"/><use xlink:href="#a"/><use xlink:href="#b"/><use xlink:href="#c"/><use xlink:href="#d"/><use xlink:href="#e"/><use xlink:href="#f"/><use xlink:href="#g"/><use xlink:href="#h"/><path d="M842.694 14.62v8.543H841v-6.527l-2.021.627v-1.377l3.533-1.266h.182z"/><use xlink:href="#i"/><use xlink:href="#Z" x="563.115"/><use xlink:href="#Z" x="570"/><path d="M956.694 14.62v8.543H955v-6.527l-2.021.627v-1.377l3.533-1.266h.182z"/><use xlink:href="#a" x="576.885"/><use xlink:href="#Z" x="677.115"/><use xlink:href="#b" x="570"/><path d="M1070.694 14.62v8.543H1069v-6.527l-2.021.627v-1.377l3.533-1.266h.182z"/><use xlink:href="#c" x="576.886"/><use xlink:href="#Z" x="791.115"/><use xlink:href="#d" x="570"/><path d="M1184.694 14.62v8.543H1183v-6.527l-2.021.627v-1.377l3.533-1.266h.182z"/><use xlink:href="#e" x="576.885"/><use xlink:href="#Z" x="905.115"/><use xlink:href="#f" x="570"/><path d="M1298.694 14.62v8.543H1297v-6.527l-2.021.627v-1.377l3.533-1.266h.182z"/><use xlink:href="#g" x="576.885"/><use xlink:href="#Z" x="1019.115"/><use xlink:href="#h" x="570"/><use xlink:href="#a" x="1026"/><use xlink:href="#i" x="569.999"/><use xlink:href="#a" x="1084.606"/><use xlink:href="#Z" x="1140"/><use xlink:href="#a" x="1140"/><use xlink:href="#a" x="1146.885"/><use xlink:href="#a" x="1198.606"/><use xlink:href="#b" x="1140.001"/><use xlink:href="#a" x="1254"/><use xlink:href="#c" x="1146.885"/><use xlink:href="#a" x="1312.606"/><use xlink:href="#d" x="1140.001"/><use xlink:href="#a" x="1368"/><use xlink:href="#e" x="1146.885"/><use xlink:href="#a" x="1426.606"/><use xlink:href="#f" x="1140"/><use xlink:href="#a" x="1482"/><use xlink:href="#g" x="1146.884"/><use xlink:href="#a" x="1540.606"/><use xlink:href="#h" x="1140.001"/><use xlink:href="#b" x="1530.51"/><use xlink:href="#i" x="1139.999"/><use xlink:href="#b" x="1589.116"/><use xlink:href="#Z" x="1710"/><use xlink:href="#b" x="1644.51"/><use xlink:href="#a" x="1716.885"/><use xlink:href="#b" x="-224.384" y="0.75"/><use xlink:href="#b" x="-217.499" y="0.75"/><use xlink:href="#b" x="-175.49" y="0.75"/><use xlink:href="#c" x="-217.115" y="0.75"/></g></symbol></svg>