<svg xmlns="http://www.w3.org/2000/svg" xmlns:xlink="http://www.w3.org/1999/xlink" viewBox="0 0 1826 338" fill="#fff" fill-rule="evenodd" stroke="#000" stroke-linecap="round" stroke-linejoin="round" font-family="Roboto" font-size="14" text-anchor="middle"><style><![CDATA[.B{stroke:none}.C{fill:#856427}.D{fill:#333}.E{stroke:#bfbfbf}.F{stroke-width:.288}.G{fill:#000}.H{stroke-linejoin:miter}.I{stroke-width:.32}.J{stroke-width:.96}.K{stroke:#404040}.L{stroke:gray}.M{fill:none}.N{fill:url(#M)}.O{stroke-width:1.6}.P{stroke-width:.319}.Q{fill:#262626}.R{fill:#d9d9d9}.S{stroke:#7f7f7f}.T{stroke:#8c8c8c}.U{stroke-linecap:square}.V{fill:url(#I)}.W{fill-opacity:0}.X{stroke-width:.959}.Y{fill:#595959}.Z{stroke-width:.958}.a{font-size:13.969px}.b{fill:#866b00}.c{stroke-width:.852}]]></style><use xlink:href="#t" x=".5" y=".5"/><defs><linearGradient id="A" x1="50%" y1="100%" x2="50%" y2="0%"><stop offset="0%" stop-color="#262626"/><stop offset="100%" stop-color="#7f7f7f"/></linearGradient><linearGradient id="B" x1="50%" y1="0%" x2="50%" y2="100%"><stop offset="0%" stop-color="#262626"/><stop offset="100%" stop-color="#a5a5a5"/></linearGradient><linearGradient id="C" x1="50%" y1="100%" x2="50%" y2="0%"><stop offset="0%" stop-color="#7f7f7f"/><stop offset="100%" stop-color="#d8d8d8"/></linearGradient><linearGradient id="D" x1="0%" y1="50%" x2="100%" y2="50%"><stop offset="0%" stop-color="#7f7f7f"/><stop offset="50%" stop-color="#d8d8d8"/><stop offset="100%" stop-color="#7f7f7f"/></linearGradient><linearGradient id="E" x1="50%" y1="100%" x2="50%" y2="0%"><stop offset="0%" stop-color="#d9d9d9"/><stop offset="100%" stop-color="#a5a5a5"/></linearGradient><linearGradient id="F" x1="100%" y1="50%" x2="0%" y2="50%"><stop offset="0%" stop-color="#d9d9d9"/><stop offset="100%" stop-color="#a5a5a5"/></linearGradient><linearGradient id="G" x1="50%" y1="0%" x2="50%" y2="100%"><stop offset="0%" stop-color="#d9d9d9"/><stop offset="100%" stop-color="#a5a5a5"/></linearGradient><linearGradient id="H" x1="0%" y1="50%" x2="100%" y2="50%"><stop offset="0%" stop-color="#d9d9d9"/><stop offset="100%" stop-color="#a5a5a5"/></linearGradient><radialGradient id="I" r="100%" fx="50%" fy="50%" cx="50%" cy="50%"><stop offset="0%" stop-color="#bfbfbf"/><stop offset="70.7%" stop-color="#404040"/></radialGradient><linearGradient id="J" x1="0%" y1="50%" x2="100%" y2="50%"><stop offset="0%" stop-color="#fff"/><stop offset="50%" stop-color="#9a9a9a"/><stop offset="100%" stop-color="#fff"/></linearGradient><linearGradient id="K" x1="50%" y1="0%" x2="50%" y2="100%"><stop offset="0%" stop-color="#d8d8d8"/><stop offset="1%" stop-color="#d8d8d8"/><stop offset="50%" stop-color="#fff"/><stop offset="100%" stop-color="#d8d8d8"/></linearGradient><radialGradient id="L" r="100%" fx="50%" fy="50%" cx="50%" cy="50%"><stop offset="0%" stop-color="#1e1e1e"/><stop offset="70.7%" stop-color="#7f7f7f"/></radialGradient><linearGradient id="M" x1="0%" y1="50%" x2="100%" y2="50%"><stop offset="0%" stop-color="gray"/><stop offset="50%" stop-color="#a6a6a6"/><stop offset="100%" stop-color="gray"/></linearGradient><path id="N" d="M1655.14 268.688c0-3.37-2.8-6.1-6.1-6.1a6.1 6.1 0 1 0 0 12.2c3.3 0 6.1-2.73 6.1-6.1z"/><path id="O" d="M763.74 117.355v-6.752h8.64V82.629h-48v27.974h8.928v6.752h5.088v6.173h20.16v-6.173h5.184zm0-81.653v6.752h8.64v27.974h-48V42.454h8.928v-6.752h5.088v-6.173h20.16v6.173h5.184z"/><path id="P" d="M762.076 82.846h2.88v5.788h-2.88zm-4.4.127h2.8v5.661h-2.8zm-4.4 0h2.8v5.661h-2.8zm-4.4 0h2.8v5.661h-2.8zm-8.8 0h2.8v5.661h-2.8zm4.4 0h2.8v5.661h-2.8zm-8.8 0h2.8v5.661h-2.8zm-4.4 0h2.8v5.661h-2.8zm30.8-12.759h2.88v-5.788h-2.88zm-4.4-.127h2.8v-5.661h-2.8zm-4.4 0h2.8v-5.661h-2.8zm-4.4 0h2.8v-5.661h-2.8zm-8.8 0h2.8v-5.661h-2.8zm4.4 0h2.8v-5.661h-2.8zm-8.8 0h2.8v-5.661h-2.8zm-4.4 0h2.8v-5.661h-2.8z"/><path id="Q" d="M818.38 33.528h6l-3 6-3-6zm-42 6h6l-3-6-3 6zm94-6h6l-3 6-3-6zm-42 6h7l-4-6-3 6zm94-6h7l-4 6-3-6zm-41 6h6l-3-6-3 6zm94-6h6l-3 6-3-6zm-42 6h6l-3-6-3 6zm-325-6h7l-4 6-3-6zm-41 6h6l-3-6-3 6zm94-6h6l-3 6-3-6zm-42 6h6l-3-6-3 6zm94-6h6l-3 6-3-6zm-42 6h7l-4-6-3 6zm94-6h7l-4 6-3-6zm-41 6h6l-3-6-3 6z"/><path id="R" d="M596.38 21.528l4-7h-8zm-10-7l4 7h-8zm167 7l4-7h-8zm-10-7l4 7h-8zm62 7l4-7h-8zm-10-7l4 7h-8zm-95 7l4-7h-8zm-10-7l4 7h-8zm-42 7l4-7h-8zm-10-7l4 7h-8zm324 7l4-7h-8zm-10-7l4 7h-8zm-42 7l4-7h-8zm-10-7l4 7h-8zm-43 7l4-7h-8zm-10-7l4 7h-8z"/><path id="S" d="M1427.78 117.355v-6.752h8.64V82.629h-48v27.973h8.928v6.752h5.088v6.173h20.16v-6.173h5.184zm0-81.653v6.752h8.64v27.974h-48V42.454h8.928v-6.752h5.088v-6.173h20.16v6.173h5.184z"/><path id="T" d="M313.74 294.355v-6.752h8.64v-27.974h-48v27.974h8.928v6.752h5.088v6.173h20.16v-6.173h5.184zm0-81.653v6.752h8.64v27.974h-48v-27.974h8.928v-6.752h5.088v-6.173h20.16v6.173h5.184z"/><path id="U" d="M1458.34 127.528h78v-102h-78v102z"/><path id="V" d="M1461.835 126.117h70.943c1.098 0 1.896-.86 1.896-1.921V28.151c0-1.06-.798-1.921-1.896-1.921h-70.943c-1.098 0-1.996.86-1.996 1.921v96.045c0 1.06.898 1.921 1.996 1.921z"/><path id="W" d="M1461.435 29.419v30.109c0 1.06.898 1.921 1.896 1.921h67.849c1.098 0 1.896-.86 1.896-1.921V29.419c0-1.06-.798-1.921-1.896-1.921h-67.849c-.998 0-1.896.86-1.896 1.921zm0 63.499v30.108c0 1.06.898 1.921 1.896 1.921h67.849c1.098 0 1.896-.86 1.896-1.921V92.918c0-1.06-.798-1.921-1.896-1.921h-67.849c-.998 0-1.896.86-1.896 1.921z"/><path id="X" d="M1460.238 63.327h74.086v24.852h-74.086z"/><path id="Y" d="M1508.83 80.465h4.69c.898-.198 1.497-1.161 1.397-2.151-.2-.723-.698-1.289-1.397-1.434h-4.69c-.998.198-1.596 1.161-1.397 2.151.1.723.698 1.289 1.397 1.434zm-9.279 0h4.689c.998-.198 1.597-1.161 1.397-2.151-.1-.723-.698-1.289-1.397-1.434h-4.689a1.88 1.88 0 0 0-1.397 2.151c.2.723.699 1.289 1.397 1.434zm-9.28 0h4.789c.898-.198 1.497-1.161 1.297-2.151-.1-.723-.599-1.289-1.297-1.434h-4.789c-.898.198-1.497 1.161-1.297 2.151.1.723.599 1.289 1.297 1.434zm-9.18 0h4.689c.998-.198 1.597-1.161 1.397-2.151-.2-.723-.698-1.289-1.397-1.434h-4.689c-.998.198-1.597 1.161-1.397 2.151.1.723.699 1.289 1.397 1.434zm27.738-5.837h4.69c.898-.198 1.497-1.161 1.397-2.151-.2-.723-.698-1.289-1.397-1.434h-4.69c-.998.198-1.596 1.161-1.397 2.151.1.723.698 1.289 1.397 1.434zm-9.279 0h4.689c.998-.198 1.597-1.161 1.397-2.151-.1-.723-.698-1.289-1.397-1.434h-4.689a1.88 1.88 0 0 0-1.397 2.151c.2.723.699 1.289 1.397 1.434zm-9.28 0h4.789c.898-.198 1.497-1.161 1.297-2.151-.1-.723-.599-1.289-1.297-1.434h-4.789c-.898.198-1.497 1.161-1.297 2.151.1.723.599 1.289 1.297 1.434zm-9.18 0h4.689c.998-.198 1.597-1.161 1.397-2.151-.2-.723-.698-1.289-1.397-1.434h-4.689c-.998.198-1.597 1.161-1.397 2.151.1.723.699 1.289 1.397 1.434zm38.614-2.831h9.479l-4.789 8.254-4.69-8.254zm-54.279 8.254h9.379l-4.69-8.254-4.689 8.254z"/><path id="Z" d="M1533.775 48.617c.299 0 .499-.2.499-.47v-7.35c0-.26-.2-.47-.499-.47s-.499.2-.499.47v7.35c0 .26.2.47.499.47zm-72.938 0c.2 0 .399-.2.399-.47v-7.35c0-.26-.199-.47-.399-.47-.299 0-.499.2-.499.47v7.35c0 .26.2.47.499.47zm48.892-21.685c0 .31.299.563.599.563h8.182c.299 0 .599-.252.599-.563s-.299-.562-.599-.562h-8.182c-.3 0-.599.25-.599.562zm-34.224 0c0 .31.199.563.599.563h8.182c.299 0 .599-.252.599-.563s-.299-.562-.599-.562h-8.182c-.399 0-.599.25-.599.562zm-14.668 85.188c.2 0 .399-.2.399-.47v-7.353c0-.26-.199-.47-.399-.47-.299 0-.499.2-.499.47v7.353c0 .26.2.47.499.47zm72.938 0c.299 0 .499-.2.499-.47v-7.353c0-.26-.2-.47-.499-.47s-.499.2-.499.47v7.353c0 .26.2.47.499.47zm-24.047-21.69c0 .31.299.562.599.562h8.182c.299 0 .599-.25.599-.562s-.299-.563-.599-.563h-8.182c-.3 0-.599.252-.599.563zm-34.224 0c0 .31.199.562.599.562h8.182c.299 0 .599-.25.599-.562s-.299-.563-.599-.563h-8.182c-.399 0-.599.252-.599.563z"/><path id="a" d="M1462.234 56.241v1.786c0 1.06.798 1.921 1.896 1.921h66.552c.998 0 1.896-.86 1.896-1.921v-1.786c0-1.06-.898-1.921-1.896-1.921h-66.552c-1.098 0-1.896.86-1.896 1.921zm0 63.503v1.781c0 1.06.798 1.921 1.896 1.921h66.552c.998 0 1.896-.86 1.896-1.921v-1.781c0-1.06-.898-1.921-1.896-1.921h-66.552c-1.098 0-1.896.86-1.896 1.921z"/><path id="b" d="M1463.331 50.194c.998 0 1.896-.84 1.896-1.876v-6.753c0-1.035-.898-1.876-1.896-1.876s-1.896.84-1.896 1.876v6.753c0 1.036.898 1.876 1.896 1.876zm1.497 8.254c.599 0 1.098-.504 1.098-1.126v-1.876c0-.62-.499-1.126-1.098-1.126s-1.097.504-1.097 1.126v1.876c0 .62.499 1.126 1.097 1.126zm65.156 0c.599 0 1.098-.504 1.098-1.126v-1.876c0-.62-.499-1.126-1.098-1.126-.698 0-1.197.504-1.197 1.126v1.876c0 .62.499 1.126 1.197 1.126zm1.098-8.254c.998 0 1.896-.84 1.896-1.876v-6.753c0-1.035-.898-1.876-1.896-1.876-1.098 0-1.896.84-1.896 1.876v6.753c0 1.036.798 1.876 1.896 1.876zm-24.745-20.635c0 1.036.898 1.876 1.896 1.876h6.785c.998 0 1.796-.84 1.796-1.876s-.798-1.876-1.796-1.876h-6.785c-.998 0-1.896.84-1.896 1.876zm-28.437 0c0 1.036.898 1.876 1.896 1.876h6.785c.998 0 1.796-.84 1.796-1.876s-.798-1.876-1.796-1.876h-6.785c-.998 0-1.896.84-1.896 1.876zm-14.568 84.133c.998 0 1.896-.84 1.896-1.871v-6.753c0-1.04-.898-1.881-1.896-1.881s-1.896.84-1.896 1.881v6.753c0 1.03.898 1.871 1.896 1.871zm1.497 8.254c.599 0 1.098-.5 1.098-1.121v-1.881c0-.62-.499-1.121-1.098-1.121s-1.097.5-1.097 1.121v1.881c0 .62.499 1.121 1.097 1.121zm65.156 0c.599 0 1.098-.5 1.098-1.121v-1.881c0-.62-.499-1.121-1.098-1.121-.698 0-1.197.5-1.197 1.121v1.881c0 .62.499 1.121 1.197 1.121zm1.098-8.254c.998 0 1.896-.84 1.896-1.871v-6.753c0-1.04-.898-1.881-1.896-1.881-1.098 0-1.896.84-1.896 1.881v6.753c0 1.03.798 1.871 1.896 1.871zm-24.745-20.634c0 1.035.898 1.876 1.896 1.876h6.785c.998 0 1.796-.84 1.796-1.876s-.798-1.876-1.796-1.876h-6.785c-.998 0-1.896.84-1.896 1.876zm-28.437 0c0 1.035.898 1.876 1.896 1.876h6.785c.998 0 1.796-.84 1.796-1.876s-.798-1.876-1.796-1.876h-6.785c-.998 0-1.896.84-1.896 1.876z"/><path id="c" d="M1462.533 58.73c.499 0 .898-.42.898-.937v-6.403c0-.518-.399-.937-.898-.937s-.998.42-.998.937v6.403c0 .518.499.937.998.937zm0-10.112c.499 0 .898-.42.898-.938v-6.422c0-.518-.399-.938-.898-.938s-.998.42-.998.938v6.413c0 .518.499.938.998.938zm0-10.112c.499 0 .898-.42.898-.937v-6.403c0-.518-.399-.938-.898-.938s-.998.42-.998.938v6.403c0 .518.499.937.998.937zm69.446 20.224c.499 0 .998-.42.998-.937v-6.403c0-.518-.499-.937-.998-.937s-.898.42-.898.937v6.403c0 .518.399.937.898.937zm0-10.112c.499 0 .998-.42.998-.938v-6.422c0-.518-.499-.938-.998-.938s-.898.42-.898.938v6.413c0 .518.399.938.898.938zm0-10.112c.499 0 .998-.42.998-.937v-6.403c0-.518-.499-.938-.998-.938s-.898.42-.898.938v6.403c0 .518.399.937.898.937zm-67.849-9.698c0 .62.499 1.126 1.098 1.126h7.084c.599 0 1.098-.504 1.098-1.126s-.499-1.126-1.098-1.126h-7.084c-.599 0-1.098.504-1.098 1.126zm11.375 0c0 .62.499 1.126 1.098 1.126h7.084c.698 0 1.197-.504 1.197-1.126s-.499-1.126-1.197-1.126h-7.084c-.599 0-1.098.504-1.098 1.126zm11.375 0c0 .62.499 1.126 1.197 1.126h7.084c.599 0 1.097-.504 1.097-1.126s-.499-1.126-1.097-1.126h-7.084c-.698 0-1.197.504-1.197 1.126zm11.475 0c0 .62.499 1.126 1.097 1.126h7.084c.599 0 1.097-.504 1.097-1.126s-.499-1.126-1.097-1.126h-7.084c-.599 0-1.097.504-1.097 1.126zm11.375 0c0 .62.499 1.126 1.098 1.126h7.184c.599 0 1.098-.504 1.098-1.126s-.499-1.126-1.098-1.126h-7.184c-.599 0-1.098.504-1.098 1.126zm11.375 0c0 .62.499 1.126 1.197 1.126h7.084c.599 0 1.098-.504 1.098-1.126s-.499-1.126-1.098-1.126h-7.084c-.699 0-1.197.504-1.197 1.126zm-56.974 31.14c0 .62.499 1.126 1.098 1.126h7.084c.599 0 1.098-.504 1.098-1.126s-.499-1.126-1.098-1.126h-7.084c-.599 0-1.098.504-1.098 1.126zm11.375 0c0 .62.499 1.126 1.098 1.126h7.084c.698 0 1.197-.504 1.197-1.126s-.499-1.126-1.197-1.126h-7.084c-.599 0-1.098.504-1.098 1.126zm11.375 0c0 .62.499 1.126 1.197 1.126h7.084c.599 0 1.097-.504 1.097-1.126s-.499-1.126-1.097-1.126h-7.084c-.698 0-1.197.504-1.197 1.126zm11.475 0c0 .62.499 1.126 1.097 1.126h7.084c.599 0 1.097-.504 1.097-1.126s-.499-1.126-1.097-1.126h-7.084c-.599 0-1.097.504-1.097 1.126zm11.375 0c0 .62.499 1.126 1.098 1.126h7.184c.599 0 1.098-.504 1.098-1.126s-.499-1.126-1.098-1.126h-7.184c-.599 0-1.098.504-1.098 1.126zm11.375 0c0 .62.499 1.126 1.197 1.126h7.084c.599 0 1.098-.504 1.098-1.126s-.499-1.126-1.098-1.126h-7.084c-.699 0-1.197.504-1.197 1.126zm-58.57 62.277c.499 0 .898-.42.898-.93v-6.403c0-.52-.399-.94-.898-.94s-.998.42-.998.94v6.403c0 .5.499.93.998.93zm0-10.105c.499 0 .898-.42.898-.94v-6.403c0-.52-.399-.94-.898-.94s-.998.42-.998.94v6.403c0 .52.499.94.998.94zm0-10.115c.499 0 .898-.422.898-.94v-6.403c0-.518-.399-.938-.898-.938s-.998.42-.998.938v6.403c0 .517.499.94.998.94zm69.446 20.22c.499 0 .998-.42.998-.93v-6.403c0-.52-.499-.94-.998-.94s-.898.42-.898.94v6.403c0 .5.399.93.898.93zm0-10.105c.499 0 .998-.42.998-.94v-6.403c0-.52-.499-.94-.998-.94s-.898.42-.898.94v6.403c0 .52.399.94.898.94zm0-10.115c.499 0 .998-.422.998-.94v-6.403c0-.518-.499-.938-.998-.938s-.898.42-.898.938v6.403c0 .517.399.94.898.94zm-67.849-9.699c0 .62.499 1.126 1.098 1.126h7.084c.599 0 1.098-.504 1.098-1.126s-.499-1.126-1.098-1.126h-7.084c-.599 0-1.098.504-1.098 1.126zm11.375 0c0 .62.499 1.126 1.098 1.126h7.084c.698 0 1.197-.504 1.197-1.126s-.499-1.126-1.197-1.126h-7.084c-.599 0-1.098.504-1.098 1.126zm11.375 0c0 .62.499 1.126 1.197 1.126h7.084c.599 0 1.097-.504 1.097-1.126s-.499-1.126-1.097-1.126h-7.084c-.698 0-1.197.504-1.197 1.126zm11.475 0c0 .62.499 1.126 1.097 1.126h7.084c.599 0 1.097-.504 1.097-1.126s-.499-1.126-1.097-1.126h-7.084c-.599 0-1.097.504-1.097 1.126zm11.375 0c0 .62.499 1.126 1.098 1.126h7.184c.599 0 1.098-.504 1.098-1.126s-.499-1.126-1.098-1.126h-7.184c-.599 0-1.098.504-1.098 1.126zm11.375 0c0 .62.499 1.126 1.197 1.126h7.084c.599 0 1.098-.504 1.098-1.126s-.499-1.126-1.098-1.126h-7.084c-.699 0-1.197.504-1.197 1.126zm-56.974 31.139c0 .62.499 1.131 1.098 1.131h7.084c.599 0 1.098-.5 1.098-1.131s-.499-1.121-1.098-1.121h-7.084c-.599 0-1.098.5-1.098 1.121zm11.375 0c0 .62.499 1.131 1.098 1.131h7.084c.698 0 1.197-.5 1.197-1.131s-.499-1.121-1.197-1.121h-7.084c-.599 0-1.098.5-1.098 1.121zm11.375 0c0 .62.499 1.131 1.197 1.131h7.084c.599 0 1.097-.5 1.097-1.131s-.499-1.121-1.097-1.121h-7.084c-.698 0-1.197.5-1.197 1.121zm11.475 0c0 .62.499 1.131 1.097 1.131h7.084c.599 0 1.097-.5 1.097-1.131s-.499-1.121-1.097-1.121h-7.084c-.599 0-1.097.5-1.097 1.121zm11.375 0c0 .62.499 1.131 1.098 1.131h7.184c.599 0 1.098-.5 1.098-1.131s-.499-1.121-1.098-1.121h-7.184c-.599 0-1.098.5-1.098 1.121zm11.375 0c0 .62.499 1.131 1.197 1.131h7.084c.599 0 1.098-.5 1.098-1.131s-.499-1.121-1.098-1.121h-7.084c-.699 0-1.197.5-1.197 1.121z"/><path id="d" d="M129.487 14.199v7.119h-1.411v-5.439l-1.685.522v-1.147l2.944-1.055h.151z"/><path id="e" d="M158.732 20.18v1.138h-4.873v-.967l2.3-2.451q.474-.518.701-.903.227-.386.227-.732 0-.474-.239-.745-.239-.271-.684-.271-.479 0-.754.33-.276.33-.276.867h-1.416q0-.649.31-1.187.31-.537.876-.842.566-.305 1.284-.305 1.099 0 1.707.527.608.527.608 1.489 0 .527-.273 1.074-.273.547-.937 1.274l-1.616 1.704h3.057z"/><path id="f" d="M179.494 18.242v-1.104h.752q.537 0 .796-.269.259-.269.259-.713 0-.43-.256-.669-.256-.239-.706-.239-.405 0-.679.222-.273.222-.273.579h-1.411q0-.557.3-.999.3-.442.84-.691.54-.249 1.189-.249 1.128 0 1.768.54.64.54.64 1.487 0 .488-.298.898-.298.41-.781.63.601.215.896.645.295.43.295 1.016 0 .947-.691 1.519-.691.571-1.829.571-1.064 0-1.741-.562-.676-.562-.676-1.484h1.411q0 .4.3.654.3.254.74.254.503 0 .789-.266.286-.266.286-.706 0-1.064-1.172-1.064h-.747z"/><path id="g" d="M210.034 14.209v4.434h.806v1.138h-.806v1.538h-1.411V19.78h-2.915l-.063-.889 2.964-4.683h1.426zm-1.504 2.085l-1.479 2.349h1.572v-2.51l-.093.161z"/><path id="h" d="M231.392 18.101l-1.123-.278.41-3.613h3.984v1.177h-2.827l-.176 1.528q.503-.269 1.069-.269 1.016 0 1.592.63.576.63.576 1.763 0 .688-.291 1.233-.291.544-.833.845-.542.3-1.279.3-.645 0-1.196-.261-.552-.261-.872-.735-.32-.474-.339-1.079h1.396q.044.444.31.691.266.247.696.247.479 0 .737-.344.259-.344.259-.974 0-.605-.298-.928-.298-.322-.845-.322-.503 0-.815.264l-.137.127z"/><path id="i" d="M261.452 14.135h.234v1.162h-.137q-.957.015-1.541.498-.583.483-.701 1.343.566-.576 1.431-.576.928 0 1.475.664.547.664.547 1.748 0 .693-.3 1.255-.3.562-.85.874-.549.313-1.243.313-1.123 0-1.814-.781-.691-.781-.691-2.085v-.508q0-1.157.437-2.043.437-.886 1.255-1.372.818-.486 1.897-.491zm-1.143 3.56q-.342 0-.62.178-.278.178-.41.471v.43q0 .708.278 1.106.278.398.781.398.454 0 .735-.359.281-.359.281-.93 0-.581-.283-.937-.283-.356-.762-.356z"/><path id="j" d="M287.893 14.209V15l-2.749 6.318h-1.489l2.754-5.967h-3.535v-1.143h5.02z"/><path id="k" d="M315.492 16.098q0 .518-.259.918-.259.4-.713.64.518.249.82.686.303.437.303 1.028 0 .947-.645 1.497-.645.549-1.753.549-1.108 0-1.758-.552-.649-.552-.649-1.494 0-.591.303-1.03.303-.439.815-.684-.454-.239-.71-.64-.256-.4-.256-.918 0-.908.605-1.448.605-.54 1.646-.54 1.035 0 1.643.535.608.535.608 1.453zm-1.265 3.169q0-.464-.269-.742-.269-.278-.723-.278-.449 0-.718.276-.269.276-.269.745 0 .454.264.732.264.278.732.278.459 0 .72-.269.261-.269.261-.742zm-.146-3.101q0-.415-.22-.667-.22-.251-.62-.251-.396 0-.615.244-.22.244-.22.674 0 .425.22.684.22.259.62.259.4 0 .618-.259.217-.259.217-.684z"/><path id="l" d="M338.359 18.476q-.552.542-1.289.542-.942 0-1.509-.647-.566-.647-.566-1.746 0-.698.305-1.282.305-.583.852-.908.547-.325 1.23-.325.703 0 1.25.352.547.352.85 1.011.303.659.308 1.509v.522q0 1.777-.884 2.793-.884 1.016-2.505 1.084l-.347.005V20.21l.313-.005q1.841-.083 1.992-1.729zm-.942-.537q.342 0 .588-.176.247-.176.374-.425v-.581q0-.718-.273-1.113-.273-.396-.732-.396-.425 0-.698.388-.273.388-.273.974 0 .581.266.955.266.374.75.374z"/><path id="m" d="M373.381 17.07v1.309q0 1.475-.61 2.256-.61.781-1.787.781-1.162 0-1.777-.767-.615-.767-.63-2.197v-1.309q0-1.489.618-2.261.618-.771 1.78-.771 1.162 0 1.777.764.615.764.63 2.195zm-1.411 1.563v-1.689q0-.884-.242-1.287-.242-.403-.754-.403-.498 0-.735.383-.237.383-.251 1.199v1.729q0 .869.237 1.292.237.422.759.422.518 0 .747-.405.229-.405.239-1.24z"/><path id="n" d="M1374.096 14.208v4.434h.806v1.138h-.806v1.538h-1.411v-1.538h-2.915l-.063-.889 2.964-4.683h1.426zm-1.504 2.085l-1.479 2.349h1.572v-2.51l-.093.161z"/><path id="o" d="M128.422 195.476q-.552.542-1.289.542-.942 0-1.509-.647-.566-.647-.566-1.746 0-.698.305-1.282.305-.583.852-.908.547-.325 1.23-.325.703 0 1.25.352.547.352.85 1.011.303.659.308 1.509v.522q0 1.777-.884 2.793-.884 1.016-2.505 1.084l-.347.005v-1.177l.313-.005q1.841-.083 1.992-1.729zm-.942-.537q.342 0 .588-.176.247-.176.374-.425v-.581q0-.718-.273-1.113-.273-.396-.732-.396-.425 0-.698.388-.273.388-.273.974 0 .581.266.955.266.374.75.374z"/><path id="p" d="M338.955 191.209V192l-2.749 6.318h-1.489l2.754-5.967h-3.535v-1.143h5.02z"/><path id="q" d="M631.956 191.208v.791l-2.749 6.318h-1.489l2.754-5.967h-3.535v-1.143h5.02z"/><path id="r" d="M1639.348 247.959v7.109h-1.465l-2.852-4.678v4.678h-1.465v-7.109h1.465l2.856 4.688v-4.687h1.46z"/><path id="s" d="M1625.119 270.203q0-.415-.293-.637-.293-.222-1.055-.469-.762-.247-1.206-.486-1.211-.654-1.211-1.763 0-.576.325-1.028.325-.452.933-.706.608-.254 1.365-.254.762 0 1.357.276.596.276.925.779.33.503.33 1.143h-1.465q0-.488-.308-.759-.308-.271-.864-.271-.537 0-.835.227-.298.227-.298.598 0 .347.349.581.349.234 1.028.439 1.25.376 1.821.933.571.557.571 1.387 0 .923-.698 1.448-.698.525-1.88.525-.82 0-1.494-.3-.674-.3-1.028-.823-.354-.522-.354-1.211h1.47q0 1.177 1.406 1.177.522 0 .815-.212.293-.212.293-.593z"/></defs><symbol id="t" overflow="visible"><path d="M1782.25 322.718l-.31-.02c-5.3.02-9.5-4.2-9.5-9.4s4.2-9.44 9.4-9.46h18.1c5.3-.02 9.5 4.2 9.5 9.4s-4.2 9.43-9.4 9.45zm0-59.85l-.31-.02c-5.3.02-9.5-4.18-9.5-9.4s4.2-9.44 9.4-9.46h18.1c5.3-.01 9.5 4.2 9.5 9.4s-4.2 9.44-9.4 9.45zm-.25-60.062l-.06.002c-5.3.02-9.5-4.2-9.5-9.4s4.2-9.44 9.4-9.46h18.1c5.3-.02 9.5 4.2 9.5 9.4s-4.2 9.43-9.4 9.45zm.062-47.875l-.122-.002c-5.3.02-9.5-4.18-9.5-9.4s4.2-9.44 9.4-9.46h18.1c5.3-.01 9.5 4.2 9.5 9.4s-4.2 9.44-9.4 9.45zm-.063-59.85l-.06.003c-5.3.018-9.5-4.187-9.5-9.393s4.2-9.44 9.4-9.457h18.1c5.3-.018 9.5 4.188 9.5 9.393s-4.2 9.44-9.4 9.457zm.25-59.813l-.31-.03c-5.3.018-9.5-4.187-9.5-9.392a9.45 9.45 0 0 1 9.4-9.458h18.1c5.3-.017 9.5 4.188 9.5 9.393s-4.2 9.44-9.4 9.457zM24.5 322.693l-.252.005a9.45 9.45 0 0 1-9.487-9.4c-.018-5.2 4.2-9.44 9.422-9.46l18.143.01a9.45 9.45 0 0 1 9.487 9.4c.018 5.2-4.2 9.43-9.422 9.45zm0-59.825l-.252-.02c-5.222.02-9.47-4.18-9.487-9.4s4.2-9.44 9.422-9.46l18.143.01c5.222-.01 9.47 4.2 9.487 9.4s-4.2 9.44-9.422 9.45zm-.125-60.063l-.127.002a9.45 9.45 0 0 1-9.487-9.4c-.018-5.2 4.2-9.44 9.422-9.46l18.143.01a9.45 9.45 0 0 1 9.487 9.4c.018 5.2-4.2 9.43-9.422 9.45zm.125-47.887l-.252.01c-5.222.02-9.47-4.18-9.487-9.4s4.2-9.44 9.422-9.46l18.143.01c5.222-.01 9.47 4.2 9.487 9.4s-4.2 9.44-9.422 9.45zm-.125-59.85l-.127.016c-5.222.018-9.47-4.187-9.487-9.393s4.2-9.44 9.422-9.457h18.143c5.222-.018 9.47 4.188 9.487 9.393s-4.2 9.44-9.422 9.457zm.125-59.8l-.252-.03c-5.222.018-9.47-4.187-9.487-9.392s4.2-9.44 9.422-9.458h18.143c5.222-.017 9.47 4.188 9.487 9.393s-4.2 9.44-9.422 9.457c-.022.001-.043.001-.065 0zm-5.16 301.26l1785.4-.002c10.7 0 19.597-8.303 19.597-18.883l.002-298.115-.002-.135c0-10.577-8.898-19.205-19.597-19.205H19.213C8.603.188 0 8.763 0 19.34v297.688c0 10.58 8.702 19.49 19.313 19.49z" class="H I R T"/><g stroke-width=".667"><path d="M81.34 159.528h1662v-20h-1662v20z" fill="url(#A)"/><path d="M1743.34 171.528v-12h-1662v12" class="Q"/><path d="M81.34 180.528v-9h1662v9" fill="url(#B)"/></g><path d="M0 6.528h9l.01-2.024A4.5 4.5 0 0 0 4.515 0 4.5 4.5 0 0 0 .01 4.496L0 6.528z" fill="url(#C)" transform="translate(1743.34)" class="I L"/><path d="M1747.84 6.528v-2" class="J M"/><g class="I"><path d="M1743.34 336.528h9v-330h-9v330z" fill="url(#D)" class="L"/><g class="H T U"><path d="M1734.34 9.528v-9h-1644v9" fill="url(#E)"/><path d="M90.34 130.528h-9v-121h9" fill="url(#F)"/><path d="M1734.34 130.528v9h-1644v-9" fill="url(#G)"/><path d="M1734.34 189.528v-9h-1644v9" fill="url(#E)"/><path d="M90.34 327.528h-9v-138h9" fill="url(#F)"/><path d="M1734.34 327.528v9h-1644v-9" fill="url(#G)"/><path d="M1734.34 327.528h9v-138h-9" fill="url(#H)"/></g></g><use xlink:href="#N" class="G H J"/><path d="M1654.04 268.688c0-2.8-2.2-5.1-5-5.1a5.11 5.11 0 0 0-5.1 5.09 5.11 5.11 0 0 0 5.1 5.09c2.8 0 5-2.28 5-5.1z" class="I L V"/><use xlink:href="#N" y="-17.26" class="G H J"/><path d="M1654.04 251.428c0-2.8-2.2-5.1-5-5.1a5.11 5.11 0 0 0-5.1 5.09 5.1 5.1 0 0 0 5.1 5.08c2.8 0 5-2.27 5-5.08z" class="I L V"/><use xlink:href="#N" y="17.27" class="G H J"/><path d="M1654.04 285.958c0-2.8-2.2-5.08-5-5.08a5.1 5.1 0 0 0-5.1 5.08 5.11 5.11 0 0 0 5.1 5.09c2.8 0 5-2.28 5-5.1z" class="I L V"/><path d="M1498.34 201.528h5v3h-5z" class="B W"/><path d="M1503.34 204.528v-3h-5v3h5z" class="H J M"/><path d="M1493.34 208.528h5v4h-5z" class="B W"/><path d="M1498.34 212.528v-4h-5v4h5z" class="H J M"/><path d="M1503.34 208.528h5v4h-5z" class="B W"/><g class="H J M"><path d="M1508.34 212.528v-4h-5v4h5z"/><path d="M1492.34 206.528h16m-12 0v2m10-2v2m-5-4v2" class="U"/></g><rect height="87.34" rx="2" width="67.5" x="1467.04" y="216.188" class="B G"/><rect fill="url(#J)" height="82.49" rx="2" width="63.1" x="1469.24" y="219.188" class="J L"/><path d="M1601.34 226.528v4h7v30h-44v-30h7v-4h5v-4h20v4h5z" fill="#0a0a0a" stroke="#666" class="H I"/><path d="M1572.34 257.528h2.328v-4.89h-2.328zm3.658 0h2.328v-4.89h-2.328zm7.316 0h2.328v-4.89h-2.328zm-3.658 0h2.328v-4.89h-2.328zm7.316 0h2.328v-4.89h-2.328zm3.658 0h2.328v-4.89h-2.328zm3.658 0h2.328v-4.89h-2.328zm3.658 0h2.394v-5h-2.394z" class="B C"/><g class="H"><path d="M1477.963 297.528h44.965c1.296-.085 2.328-1.133 2.412-2.448v-20.105c-.084-1.315-1.116-2.362-2.412-2.448h-44.965c-1.206 0-1.723 1.224-1.723 2.448v20.105c0 1.224.517 2.448 1.723 2.448z" fill="#1a1a1a" stroke="#d8d8d8" stroke-width=".603"/><path d="M1520.461 273.824h-39.53c-1.198 0-1.797 1.216-1.797 1.824v1.824h-1.797v15.194h1.797v1.216c0 1.216.599 2.431 1.797 2.431h39.53c1.198 0 1.797-1.216 1.797-2.431v-1.216h1.796v-15.194h-1.796v-1.824c0-.608-.599-1.824-1.797-1.824z" fill="url(#K)" stroke-width=".299" class="S"/></g><g class="B"><path d="M1479.269 276.833h43.07v16.434h-43.07z" class="D"/><path d="M1485.759 285.961h2.412v-1.224h-2.412v1.224zm8.959 0h2.412v-1.224h-2.412v1.224zm9.475 0h2.412v-1.224h-2.412v1.224zm8.959 0h2.584v-1.224h-2.412v1.224z" fill="#e6a835"/></g><path d="M1482.126 284.132h37.213v-4.895h-37.213v4.895z" fill="#666" stroke-width=".689" class="H S"/><g class="B"><path d="M1517.565 224.643v4.115h7.875v30.861h-49.5v-30.861h7.875v-4.115h5.625v-4.115h22.5v4.115h5.625z" class="Q"/><path d="M1486.34 258.528h2.411v-4.89h-2.411zm3.789 0h2.411v-4.89h-2.411zm7.577 0h2.411v-4.89h-2.411zm-3.789 0h2.411v-4.89h-2.411zm7.577 0h2.411v-4.89h-2.411zm3.789 0h2.411v-4.89h-2.411zm3.789 0h2.411v-4.89h-2.411zm3.789 0h2.48v-5h-2.48z" class="C"/></g><g fill="url(#L)" stroke="#737373" class="I"><path d="M1487.34 230.528h-14v-7h14v7z"/><path d="M1527.34 230.528h-13v-7h13v7z"/></g><g class="H"><path d="M1563.673 297.528h45.24c1.304-.085 2.342-1.133 2.427-2.448v-20.105c-.084-1.315-1.123-2.362-2.427-2.448h-45.24c-1.213 0-1.733 1.224-1.733 2.448v20.105c0 1.224.52 2.448 1.733 2.448z" fill="#1a1a1a" stroke="#d8d8d8" stroke-width=".607"/><path d="M1606.432 273.824h-39.771c-1.205 0-1.808 1.216-1.808 1.824v1.824h-1.808v15.194h1.808v1.216c0 1.216.603 2.431 1.808 2.431h39.771c1.205 0 1.808-1.216 1.808-2.431v-1.216h1.807v-15.194h-1.807v-1.824c0-.608-.603-1.824-1.808-1.824z" fill="url(#K)" stroke-width=".3" class="S"/></g><g class="B"><path d="M1564.988 276.833h43.333v16.434h-43.333z" class="D"/><path d="M1571.517 285.961h2.427v-1.224h-2.427v1.224zm9.013 0h2.427v-1.224h-2.427v1.224zm9.533 0h2.427v-1.224h-2.427v1.224zm9.013 0h2.6v-1.224h-2.427v1.224z" fill="#e6a835"/></g><g class="H"><path d="M1567.862 284.132h37.44v-4.895h-37.44v4.895z" fill="#666" stroke-width=".693" class="S"/><path d="M1734.34 130.528h9v-121h-9" fill="url(#H)" class="I T U"/></g><g class="B"><path d="M1227.34 336.528h10v-9h-10v9zm-13 0h10v-9h-10v9zm-13 0h10v-9h-10v9zm-13 0h9v-9h-9v9zm92 0h10v-9h-10v9zm-13 0h10v-9h-10v9zm-13 0h10v-9h-10v9zm-13 0h9v-9h-9v9zm92 0h10v-9h-10v9zm-13 0h10v-9h-10v9zm-13 0h10v-9h-10v9zm-13 0h9v-9h-9v9zm92 0h10v-9h-10v9zm-13 0h10v-9h-10v9zm-13 0h10v-9h-10v9zm-13 0h9v-9h-9v9zm92 0h10v-9h-10v9zm-13 0h10v-9h-10v9zm-13 0h10v-9h-10v9zm-13 0h9v-9h-9v9zm92 0h10v-9h-10v9zm-13 0h10v-9h-10v9zm-13 0h10v-9h-10v9zm-13 0h9v-9h-9v9zm93 0h9v-9h-9v9zm-14 0h10v-9h-10v9zm-13 0h10v-9h-10v9zm-13 0h9v-9h-9v9zm93 0h9v-9h-9v9zm-14 0h10v-9h-10v9zm-13 0h10v-9h-10v9zm-13 0h10v-9h-10v9zm79 0h10v-9h-10v9zm-13 0h10v-9h-10v9zm-13 0h10v-9h-10v9zm106 0h10v-9h-10v9zm-13 0h9v-9h-9v9zm-14 0h10v-9h-10v9zm-13 0h10v-9h-10v9zm-13 0h10v-9h-10v9zm-13 0h9v-9h-9v9zm-650 0h10v-9h-10v9zm-13 0h9v-9h-9v9zm-14 0h10v-9h-10v9zm-13 0h10v-9h-10v9zm93 0h10v-9h-10v9zm-13 0h9v-9h-9v9zm-14 0h10v-9h-10v9zm-13 0h10v-9h-10v9zm93 0h10v-9h-10v9zm-13 0h9v-9h-9v9zm-14 0h10v-9h-10v9zm-13 0h10v-9h-10v9zm106 0h10v-9h-10v9zm-13 0h10v-9h-10v9zm-13 0h9v-9h-9v9zm-14 0h10v-9h-10v9zm-13 0h10v-9h-10v9zm-610 0h10v-9h-10v9zm-13 0h10v-9h-10v9zm-13 0h9v-9h-9v9zm-14 0h10v-9h-10v9zm80 0h10v-9h-10v9zm-13 0h9v-9h-9v9zm-14 0h10v-9h-10v9zm80 0h10v-9h-10v9zm-13 0h10v-9h-10v9zm-13 0h9v-9h-9v9zm-14 0h10v-9h-10v9zm93 0h10v-9h-10v9zm-13 0h10v-9h-10v9zm-13 0h9v-9h-9v9zm-14 0h10v-9h-10v9zm93 0h10v-9h-10v9zm-13 0h10v-9h-10v9zm-13 0h9v-9h-9v9zm-14 0h10v-9h-10v9zm93 0h10v-9h-10v9zm-13 0h10v-9h-10v9zm-13 0h9v-9h-9v9zm-14 0h10v-9h-10v9zm93 0h10v-9h-10v9zm-13 0h10v-9h-10v9zm-13 0h9v-9h-9v9zm-14 0h10v-9h-10v9zm93 0h10v-9h-10v9zm-13 0h10v-9h-10v9zm-13 0h9v-9h-9v9zm-14 0h10v-9h-10v9zm120 0h10v-9h-10v9zm-13 0h9v-9h-9v9zm-14 0h10v-9h-10v9zm-13 0h10v-9h-10v9zm-13 0h10v-9h-10v9zm-13 0h9v-9h-9v9zm-730 0h10v-9h-10v9zm-13 0h10v-9h-10v9zm-13 0h9v-9h-9v9zm-14 0h10v-9h-10v9zm93 0h10v-9h-10v9zm-13 0h10v-9h-10v9zm-13 0h9v-9h-9v9zm-14 0h10v-9h-10v9zm93 0h10v-9h-10v9zm-13 0h10v-9h-10v9zm-13 0h10v-9h-10v9zm-13 0h9v-9h-9v9zm92 0h10v-9h-10v9zm-13 0h10v-9h-10v9zm-13 0h10v-9h-10v9zm-13 0h9v-9h-9v9zm92 0h10v-9h-10v9zm-13 0h10v-9h-10v9zm-13 0h10v-9h-10v9zm-13 0h9v-9h-9v9zm132 0h10v-9h-10v9zm-13 0h10v-9h-10v9zm-13 0h9v-9h-9v9zm-14 0h10v-9h-10v9zm-13 0h10v-9h-10v9zm-13 0h10v-9h-10v9zm-13 0h9v-9h-9v9zm-279 0h10v-9h-10v9z" fill="#3f3f3f"/><path d="M949.34 322.528h10v-8h-10v8zm-13 0h9v-8h-9v8zm-14 0h10v-8h-10v8zm-13 0h10v-8h-10v8zm-13 0h10v-8h-10v8zm-13 0h9v-8h-9v8zm-14 0h10v-8h-10v8zm-13 0h10v-8h-10v8zm-13 0h9v-8h-9v8zm-14 0h10v-8h-10v8zm-13 0h10v-8h-10v8zm-13 0h10v-8h-10v8zm-13 0h9v-8h-9v8zm-14 0h10v-8h-10v8zm-13 0h10v-8h-10v8zm-13 0h10v-8h-10v8zm-13 0h9v-8h-9v8zm-14 0h10v-8h-10v8zm-13 0h10v-8h-10v8zm-13 0h10v-8h-10v8zm-13 0h9v-8h-9v8zm-14 0h10v-8h-10v8zm-13 0h10v-8h-10v8zm-13 0h10v-8h-10v8zm-13 0h9v-8h-9v8zm-14 0h10v-8h-10v8zm-13 0h10v-8h-10v8zm-13 0h10v-8h-10v8zm-13 0h9v-8h-9v8zm-14 0h10v-8h-10v8zm-13 0h10v-8h-10v8zm-13 0h9v-8h-9v8zm-14 0h10v-8h-10v8zm-13 0h10v-8h-10v8zm-13 0h10v-8h-10v8zm-13 0h9v-8h-9v8zm-14 0h10v-8h-10v8zm730 0h10v-8h-10v8zm-13 0h9v-8h-9v8zm-14 0h10v-8h-10v8zm-13 0h10v-8h-10v8zm-13 0h9v-8h-9v8zm-14 0h10v-8h-10v8zm-13 0h10v-8h-10v8zm-13 0h10v-8h-10v8zm-13 0h9v-8h-9v8zm-14 0h10v-8h-10v8zm-13 0h10v-8h-10v8zm-13 0h10v-8h-10v8zm-13 0h9v-8h-9v8zm-14 0h10v-8h-10v8zm-13 0h10v-8h-10v8zm-13 0h10v-8h-10v8zm-13 0h9v-8h-9v8zm-14 0h10v-8h-10v8zm-13 0h10v-8h-10v8zm756 0h10v-8h-10v8zm-13 0h9v-8h-9v8zm-14 0h10v-8h-10v8zm-13 0h10v-8h-10v8zm-13 0h10v-8h-10v8zm-13 0h9v-8h-9v8zm-14 0h10v-8h-10v8zm-13 0h10v-8h-10v8zm-13 0h10v-8h-10v8zm-13 0h9v-8h-9v8zm-14 0h10v-8h-10v8zm-13 0h10v-8h-10v8zm-13 0h10v-8h-10v8zm-13 0h9v-8h-9v8zm-14 0h10v-8h-10v8zm-13 0h10v-8h-10v8zm-13 0h9v-8h-9v8zm-14 0h10v-8h-10v8zm-13 0h10v-8h-10v8zm-13 0h10v-8h-10v8zm-13 0h9v-8h-9v8zm-14 0h10v-8h-10v8zm-13 0h10v-8h-10v8zm-13 0h10v-8h-10v8zm-13 0h9v-8h-9v8zm-14 0h10v-8h-10v8zm-13 0h10v-8h-10v8zm-13 0h10v-8h-10v8zm-13 0h9v-8h-9v8zm-14 0h10v-8h-10v8zm-13 0h10v-8h-10v8zm-13 0h10v-8h-10v8zm-13 0h9v-8h-9v8zm-14 0h10v-8h-10v8zm-13 0h10v-8h-10v8zm-13 0h10v-8h-10v8zm-13 0h9v-8h-9v8zm-14 0h10v-8h-10v8zm-13 0h10v-8h-10v8zm-1114 0h10v-8h-10v8zm358 0h10v-8h-10v8zm-13 0h10v-8h-10v8zm-13 0h9v-8h-9v8zm-14 0h10v-8h-10v8zm-13 0h10v-8h-10v8zm-13 0h10v-8h-10v8zm-13 0h9v-8h-9v8zm-14 0h10v-8h-10v8zm-13 0h10v-8h-10v8zm-13 0h10v-8h-10v8zm-13 0h9v-8h-9v8zm-14 0h10v-8h-10v8zm-13 0h10v-8h-10v8zm-13 0h10v-8h-10v8zm-13 0h9v-8h-9v8zm-14 0h10v-8h-10v8zm-13 0h10v-8h-10v8zm-13 0h10v-8h-10v8zm-13 0h9v-8h-9v8zm-14 0h10v-8h-10v8zm-13 0h10v-8h-10v8zm-13 0h9v-8h-9v8zm-14 0h10v-8h-10v8zm-13 0h10v-8h-10v8zm-13 0h10v-8h-10v8zm-13 0h9v-8h-9v8zm-14 0h10v-8h-10v8z" class="G"/><path d="M1458.34 9.528h252v15h-252z" fill="#fee800"/><path d="M1549.34 266.528v7l-6-4 6-3zm0 37v-7l6 3-6 4z" class="G"/></g><path d="M0 6.528h9l.01-2.024A4.5 4.5 0 0 0 4.515 0 4.5 4.5 0 0 0 .01 4.496L0 6.528z" fill="url(#C)" transform="translate(72.34)" class="I L"/><path d="M76.84 6.528v-2" class="J M"/><path d="M72.34 336.528h9v-330h-9v330z" fill="url(#D)" class="I L"/><g class="B"><path d="M1694.928 288.974h1.861v7.399h-1.861zm16.855 2.12c-.08-.03-.674-.404-1.569-.404-1.207 0-2.032.838-2.032 1.979 0 1.111.805 1.969 2.032 1.969.875 0 1.488-.343 1.569-.404v1.989a5.79 5.79 0 0 1-1.7.263c-2.092 0-3.922-1.444-3.922-3.838 0-2.222 1.659-3.838 3.922-3.838.875 0 1.509.222 1.71.273v1.979zm-19.409 0c-.07-.03-.674-.404-1.559-.404-1.207 0-2.042.838-2.042 1.979 0 1.111.805 1.969 2.042 1.969.875 0 1.478-.343 1.559-.404v1.989a5.7 5.7 0 0 1-1.69.263c-2.092 0-3.922-1.444-3.922-3.838 0-2.222 1.659-3.838 3.922-3.838.875 0 1.509.222 1.69.273v1.979zm29.154 1.587c0 2.121-1.629 3.838-3.902 3.838-2.263 0-3.882-1.717-3.882-3.838s1.609-3.838 3.882-3.838 3.902 1.717 3.902 3.838zm-3.902-1.949c-1.106 0-1.911.869-1.911 1.949 0 1.07.825 1.939 1.911 1.939a1.91 1.91 0 0 0 1.931-1.939c0-1.08-.825-1.949-1.931-1.949zm-13.788-.071c-.02-.01-.805-.222-1.448-.222-.744 0-1.157.242-1.157.606 0 .444.553.606.855.707l.503.172c1.207.384 1.76 1.212 1.76 2.121 0 1.858-1.629 2.484-3.047 2.484a10.98 10.98 0 0 1-2.011-.202v-1.717c.161.05.945.283 1.76.283.925 0 1.348-.273 1.348-.707 0-.374-.372-.586-.835-.737l-.402-.121c-1.036-.333-1.911-.939-1.911-2.171 0-1.384 1.036-2.323 2.746-2.323.611.005 1.219.087 1.81.242v1.575z" fill="#c41230"/><path d="M1684.79 281.026a.92.92 0 0 0-.925-.909.92.92 0 0 0-.925.909v1.939a.93.93 0 0 0 .271.657c.173.174.409.272.654.272.503 0 .925-.404.925-.929v-1.939zm5.069-2.545a.94.94 0 0 0-.925-.929c-.245 0-.481.098-.654.272a.93.93 0 0 0-.271.657v4.484a.93.93 0 0 0 .271.657c.174.174.409.272.654.272.503 0 .925-.404.925-.929v-4.484zm5.068-3.494c0-.505-.402-.909-.925-.909s-.925.404-.925.909v9.826c0 .513.414.929.925.929s.925-.416.925-.929v-9.826zm5.069 3.494a.93.93 0 0 0-.271-.657c-.173-.174-.409-.272-.654-.272-.503 0-.925.404-.925.929v4.484a.94.94 0 0 0 .925.929c.245 0 .481-.098.654-.272a.93.93 0 0 0 .271-.657v-4.484zm5.069 2.545c0-.505-.402-.909-.925-.909a.92.92 0 0 0-.925.909v1.939a.94.94 0 0 0 .925.929c.245 0 .481-.098.654-.272a.93.93 0 0 0 .271-.657v-1.939zm5.069-2.545a.93.93 0 0 0-.271-.657c-.173-.174-.409-.272-.654-.272-.503 0-.905.404-.905.929v4.484c0 .505.402.929.905.929.245 0 .481-.098.654-.272a.93.93 0 0 0 .271-.657v-4.484zm5.068-3.494c0-.505-.402-.909-.905-.909a.92.92 0 0 0-.925.909v9.826a.93.93 0 0 0 .271.657c.174.174.409.272.654.272.503 0 .905-.404.905-.929v-9.826zm5.09 3.494a.93.93 0 0 0-.275-.661c-.176-.175-.414-.271-.661-.269s-.479.098-.651.273a.92.92 0 0 0-.264.656v4.484a.92.92 0 0 0 .264.656.91.91 0 0 0 .651.273c.245 0 .485-.094.661-.269a.93.93 0 0 0 .275-.661v-4.484zm5.048 2.545c0-.505-.402-.909-.905-.909a.92.92 0 0 0-.925.909v1.939a.93.93 0 0 0 .271.657c.173.174.409.272.654.272.503 0 .905-.404.905-.929v-1.939z" fill="#005568"/></g><path d="M560.04 124.688h429v-96h-429v96z" class="K N O"/><use xlink:href="#O" class="D E F"/><use xlink:href="#P" class="B C"/><use xlink:href="#O" x="-53" class="D E F"/><use xlink:href="#P" x="-53" class="B C"/><use xlink:href="#O" x="-105" class="D E F"/><use xlink:href="#P" x="-105" class="B C"/><use xlink:href="#O" x="209" class="D E F"/><use xlink:href="#P" x="209" class="B C"/><use xlink:href="#O" x="157" class="D E F"/><use xlink:href="#P" x="157" class="B C"/><use xlink:href="#O" x="104" class="D E F"/><use xlink:href="#P" x="104" class="B C"/><use xlink:href="#O" x="52" class="D E F"/><use xlink:href="#P" x="52" class="B C"/><use xlink:href="#O" x="-157" class="D E F"/><g class="B"><use xlink:href="#P" x="-157" class="C"/><g class="G"><use xlink:href="#Q"/><use xlink:href="#R"/></g></g><path d="M1013.08 124.688h429v-96h-429v96z" class="K N O"/><use xlink:href="#O" x="453.04" class="D E F"/><use xlink:href="#P" x="453.04" class="B C"/><use xlink:href="#O" x="400.04" class="D E F"/><use xlink:href="#P" x="400.04" class="B C"/><use xlink:href="#O" x="348.04" class="D E F"/><use xlink:href="#P" x="348.04" class="B C"/><use xlink:href="#S" class="D E F"/><use xlink:href="#P" x="664.04" class="B C"/><use xlink:href="#S" x="-52" class="D E F"/><use xlink:href="#P" x="612.04" class="B C"/><use xlink:href="#S" x="-106" class="D E F"/><use xlink:href="#P" x="558.04" class="B C"/><use xlink:href="#S" x="-158" class="D E F"/><use xlink:href="#P" x="506.04" class="B C"/><use xlink:href="#O" x="296.04" class="D E F"/><g class="B"><use xlink:href="#P" x="296.04" class="C"/><g class="G"><use xlink:href="#Q" x="453.04"/><use xlink:href="#R" x="453.04"/></g></g><path d="M110.04 301.688h429v-96h-429v96z" class="K N O"/><use xlink:href="#T" class="D E F"/><use xlink:href="#P" x="-450" y="177" class="B C"/><use xlink:href="#T" x="-53" class="D E F"/><use xlink:href="#P" x="-503" y="177" class="B C"/><use xlink:href="#T" x="-105" class="D E F"/><use xlink:href="#P" x="-555" y="177" class="B C"/><use xlink:href="#T" x="209" class="D E F"/><use xlink:href="#P" x="-241" y="177" class="B C"/><use xlink:href="#T" x="157" class="D E F"/><use xlink:href="#P" x="-293" y="177" class="B C"/><use xlink:href="#T" x="104" class="D E F"/><use xlink:href="#P" x="-346" y="177" class="B C"/><use xlink:href="#T" x="52" class="D E F"/><use xlink:href="#P" x="-398" y="177" class="B C"/><use xlink:href="#T" x="-157" class="D E F"/><g class="B"><use xlink:href="#P" x="-607" y="177" class="C"/><g class="G"><use xlink:href="#Q" x="-450" y="177"/><use xlink:href="#R" x="-450" y="177"/></g></g><path d="M560.04 301.688h429v-96h-429v96z" class="K N O"/><use xlink:href="#T" x="450" class="D E F"/><use xlink:href="#P" y="177" class="B C"/><use xlink:href="#T" x="397" class="D E F"/><use xlink:href="#P" x="-53" y="177" class="B C"/><use xlink:href="#T" x="345" class="D E F"/><use xlink:href="#P" x="-105" y="177" class="B C"/><use xlink:href="#T" x="659" class="D E F"/><use xlink:href="#P" x="209" y="177" class="B C"/><use xlink:href="#T" x="607" class="D E F"/><use xlink:href="#P" x="157" y="177" class="B C"/><use xlink:href="#T" x="554" class="D E F"/><use xlink:href="#P" x="104" y="177" class="B C"/><use xlink:href="#T" x="502" class="D E F"/><use xlink:href="#P" x="52" y="177" class="B C"/><use xlink:href="#T" x="293" class="D E F"/><g class="B"><use xlink:href="#P" x="-157" y="177" class="C"/><g class="G"><use xlink:href="#Q" y="177"/><use xlink:href="#R" y="177"/></g></g><path d="M1013.08 301.688h429v-96h-429v96z" class="K N O"/><use xlink:href="#T" x="903.04" class="D E F"/><use xlink:href="#P" x="453.04" y="177" class="B C"/><use xlink:href="#T" x="850.04" class="D E F"/><use xlink:href="#P" x="400.04" y="177" class="B C"/><use xlink:href="#T" x="798.04" class="D E F"/><use xlink:href="#P" x="348.04" y="177" class="B C"/><use xlink:href="#T" x="1112.04" class="D E F"/><use xlink:href="#P" x="662.04" y="177" class="B C"/><use xlink:href="#T" x="1060.04" class="D E F"/><use xlink:href="#P" x="610.04" y="177" class="B C"/><use xlink:href="#T" x="1007.04" class="D E F"/><use xlink:href="#P" x="557.04" y="177" class="B C"/><use xlink:href="#T" x="955.04" class="D E F"/><use xlink:href="#P" x="505.04" y="177" class="B C"/><use xlink:href="#T" x="746.04" class="D E F"/><g class="B"><use xlink:href="#P" x="296.04" y="177" class="C"/><g class="G"><use xlink:href="#Q" x="453.04" y="177"/><use xlink:href="#R" x="453.04" y="177"/></g></g><use xlink:href="#U" class="G X"/><use xlink:href="#V" class="H K P Y"/><use xlink:href="#W" class="Q Z"/><g class="B"><use xlink:href="#X" class="R"/><use xlink:href="#Y" class="G"/></g><g class="P"><use xlink:href="#Z" fill="silver"/><use xlink:href="#a" fill="gray"/><g class="b"><use xlink:href="#b"/><use xlink:href="#c"/></g></g><use xlink:href="#U" x="87" class="G X"/><use xlink:href="#V" x="87" class="H K P Y"/><use xlink:href="#W" x="87" class="Q Z"/><g class="B"><use xlink:href="#X" x="87" class="R"/><use xlink:href="#Y" x="87" class="G"/></g><g class="P"><use xlink:href="#Z" x="87" fill="silver"/><use xlink:href="#a" x="87" fill="gray"/><g class="b"><use xlink:href="#b" x="87"/><use xlink:href="#c" x="87"/></g></g><use xlink:href="#U" x="174" class="G X"/><use xlink:href="#V" x="174" class="H K P Y"/><use xlink:href="#W" x="174" class="Q Z"/><g class="B"><use xlink:href="#X" x="174" class="R"/><use xlink:href="#Y" x="174" class="G"/></g><g class="P"><use xlink:href="#Z" x="174" fill="silver"/><use xlink:href="#a" x="174" fill="gray"/><g class="b"><use xlink:href="#b" x="174"/><use xlink:href="#c" x="174"/></g></g><path d="M1540.225 284.181h17.03" class="M c"/><g class="B G"><ellipse cx="1540.165" cy="284.242" rx="1.825" ry="1.841"/><path d="M1558.34 284.181l-2.919-1.841v3.437l2.919-1.596zm-6.346 1.892h2.433v2.455h-2.433z"/></g><path d="M1546.683 284.171l2.676 2.455 2.676.736m-8.008-3.242l2.676-2.455 2.676-.736" class="M c"/><ellipse cx="1549.657" cy="280.755" rx="1.216" ry="1.227" class="B G"/><path d="M1581.875 212.768h9m-4.5-1v1m-5-8.75a.5.5 0 0 1 .5-.5h9a.5.5 0 0 1 .5.5v6a.5.5 0 0 1-.5.5h-9a.5.5 0 0 1-.5-.5zm-1-1a.5.5 0 0 1 .5-.5h11a.5.5 0 0 1 .5.5v8a.5.5 0 0 1-.5.5h-11a.5.5 0 0 1-.5-.5z" stroke-width=".533" class="M"/><path d="M111 124.688h429v-96H111v96z" class="K N O"/><use xlink:href="#O" x="-449.04" class="D E F"/><use xlink:href="#P" x="-449.04" class="B C"/><use xlink:href="#O" x="-502.04" class="D E F"/><use xlink:href="#P" x="-502.04" class="B C"/><use xlink:href="#O" x="-554.04" class="D E F"/><use xlink:href="#P" x="-554.04" class="B C"/><use xlink:href="#O" x="-240.04" class="D E F"/><use xlink:href="#P" x="-240.04" class="B C"/><use xlink:href="#O" x="-292.04" class="D E F"/><use xlink:href="#P" x="-292.04" class="B C"/><use xlink:href="#O" x="-345.04" class="D E F"/><use xlink:href="#P" x="-345.04" class="B C"/><use xlink:href="#O" x="-397.04" class="D E F"/><use xlink:href="#P" x="-397.04" class="B C"/><use xlink:href="#O" x="-606.04" class="D E F"/><g class="B"><use xlink:href="#P" x="-606.04" class="C"/><g class="G"><use xlink:href="#Q" x="-449.04"/><use xlink:href="#R" x="-449.04"/><path d="M1508.34 21.528l4-7h-8zm-22-7l4 7h-8zm196 7l4-7h-8zm-22-7l4 7h-8zm-65 7l4-7h-8zm-22-7l4 7h-8zm3.124 258.145v.069h-.014v-.053l-.016.005v-.011l.029-.01h.001zm-9.693 30.058v.011h-.047v-.009l.022-.024q.005-.005.007-.009.002-.004.002-.007 0-.005-.002-.007-.002-.003-.007-.003-.005 0-.007.003-.003.003-.003.008h-.014q0-.006.003-.012.003-.005.009-.008.005-.003.012-.003.011 0 .017.005.006.005.006.014 0 .005-.003.01-.003.005-.009.012l-.016.017h.03z"/><use xlink:href="#d"/><use xlink:href="#e"/><use xlink:href="#f"/><use xlink:href="#g"/><use xlink:href="#h"/><use xlink:href="#i"/><use xlink:href="#j"/><use xlink:href="#k"/><use xlink:href="#l"/><use xlink:href="#d" x="236.799"/><use xlink:href="#m"/><use xlink:href="#d" x="255.262"/><use xlink:href="#d" x="260.999"/><use xlink:href="#d" x="288.799"/><use xlink:href="#e" x="266.737"/><use xlink:href="#d" x="308.262"/><use xlink:href="#f" x="261.999"/><use xlink:href="#d" x="341.799"/><use xlink:href="#g" x="267.736"/><use xlink:href="#d" x="360.262"/><use xlink:href="#h" x="262"/><use xlink:href="#d" x="393.799" y="-0.001"/><use xlink:href="#i" x="267.737"/><use xlink:href="#d" x="443.262"/><use xlink:href="#j" x="292"/><use xlink:href="#d" x="476.799"/><use xlink:href="#k" x="297.737"/><use xlink:href="#d" x="495.262"/><use xlink:href="#l" x="292"/><use xlink:href="#e" x="501"/><use xlink:href="#m" x="292"/><use xlink:href="#e" x="519.463"/><use xlink:href="#d" x="553"/><use xlink:href="#e" x="553"/><use xlink:href="#e" x="558.737"/><use xlink:href="#e" x="572.463"/><use xlink:href="#f" x="554"/><use xlink:href="#e" x="606"/><use xlink:href="#g" x="559.737"/><use xlink:href="#e" x="624.463"/><use xlink:href="#h" x="554"/><use xlink:href="#e" x="658"/><use xlink:href="#i" x="559.738"/><use xlink:href="#e" x="676.463"/><use xlink:href="#j" x="553"/><use xlink:href="#e" x="710"/><use xlink:href="#k" x="558.737"/><use xlink:href="#e" x="729.463"/><use xlink:href="#l" x="554"/><use xlink:href="#f" x="738.799"/><use xlink:href="#m" x="554"/><use xlink:href="#f" x="757.262"/><use xlink:href="#d" x="814.999"/><use xlink:href="#f" x="790.799"/><use xlink:href="#e" x="820.737"/><use xlink:href="#f" x="844.325"/><use xlink:href="#f" x="850.062"/><use xlink:href="#f" x="877.862"/><use xlink:href="#g" x="855.799"/><use xlink:href="#f" x="896.325"/><use xlink:href="#h" x="850.063"/><use xlink:href="#f" x="929.862"/><use xlink:href="#i" x="855.8"/><use xlink:href="#f" x="948.325"/><use xlink:href="#j" x="849.063"/><use xlink:href="#f" x="981.862"/><use xlink:href="#k" x="854.8"/><use xlink:href="#f" x="1000.325"/><use xlink:href="#l" x="849.063"/><use xlink:href="#g" x="1006.062"/><use xlink:href="#m" x="849.063"/><use xlink:href="#g" x="1025.525"/><use xlink:href="#d" x="1111.062"/><use xlink:href="#g" x="1059.062"/><use xlink:href="#e" x="1116.8"/><use xlink:href="#g" x="1077.525"/><use xlink:href="#f" x="1111.062"/><use xlink:href="#g" x="1111.062"/><use xlink:href="#g" x="1116.799"/><use xlink:href="#g" x="1130.525"/><use xlink:href="#h" x="1112.062"/><use xlink:href="#n"/><use xlink:href="#i" x="1117.8"/><use xlink:href="#g" x="1182.525"/><use xlink:href="#j" x="1111.063"/><use xlink:href="#g" x="1216.062"/><use xlink:href="#k" x="1116.8"/><use xlink:href="#n" x="-1250.537" y="177.001"/><use xlink:href="#o"/><use xlink:href="#h" x="-77.138" y="177"/><use xlink:href="#m" x="-209.938" y="177"/><use xlink:href="#h" x="-58.675" y="177"/><use xlink:href="#d" x="51.062" y="177"/><use xlink:href="#h" x="-25.138" y="177"/><use xlink:href="#e" x="56.799" y="177"/><use xlink:href="#h" x="-6.675" y="177"/><use xlink:href="#f" x="51.062" y="177"/><use xlink:href="#h" x="26.862" y="177"/><use xlink:href="#n" x="-1107.263" y="177.001"/><use xlink:href="#h" x="46.325" y="177"/><use xlink:href="#h" x="52.062" y="177"/><use xlink:href="#h" x="79.862" y="176.999"/><use xlink:href="#i" x="57.8" y="177"/><use xlink:href="#h" x="98.325" y="177"/><use xlink:href="#p"/><use xlink:href="#h" x="131.862" y="177"/><use xlink:href="#k" x="56.799" y="177"/><use xlink:href="#h" x="150.325" y="177"/><use xlink:href="#o" x="261"/><use xlink:href="#i" x="156.063" y="177"/><use xlink:href="#m" x="51.063" y="177"/><use xlink:href="#i" x="175.526" y="177"/><use xlink:href="#d" x="313.062" y="176.999"/><use xlink:href="#i" x="209.063" y="177"/><use xlink:href="#e" x="318.8" y="177"/><use xlink:href="#i" x="227.526" y="177"/><use xlink:href="#f" x="313.063" y="177"/><use xlink:href="#i" x="261.063" y="177"/><use xlink:href="#n" x="-845.262" y="177"/><use xlink:href="#i" x="311.526" y="177"/><use xlink:href="#h" x="345.063" y="176.999"/><use xlink:href="#i" x="345.063" y="177"/><use xlink:href="#i" x="350.8" y="177"/><use xlink:href="#i" x="363.526" y="177"/><use xlink:href="#q"/><use xlink:href="#i" x="397.063" y="177"/><use xlink:href="#k" x="349.8" y="177"/><use xlink:href="#i" x="415.526" y="177"/><use xlink:href="#o" x="554"/><use xlink:href="#p" x="372.8"/><use xlink:href="#m" x="344.062" y="177"/><use xlink:href="#p" x="392.263"/><use xlink:href="#d" x="606.062" y="177"/><use xlink:href="#p" x="425.8"/><use xlink:href="#e" x="611.799" y="177"/><use xlink:href="#p" x="444.263"/><use xlink:href="#f" x="606.062" y="177"/><use xlink:href="#p" x="477.8"/><use xlink:href="#n" x="-552.263" y="177.001"/><use xlink:href="#p" x="496.263"/><use xlink:href="#h" x="606.062" y="177"/><use xlink:href="#q" x="236.799"/><use xlink:href="#i" x="611.8" y="177"/><use xlink:href="#p" x="549.263"/><use xlink:href="#p" x="555"/><use xlink:href="#p" x="582.8"/><use xlink:href="#k" x="611.799" y="177"/><use xlink:href="#p" x="601.263"/><use xlink:href="#o" x="815.999"/><use xlink:href="#k" x="658.062" y="177"/><use xlink:href="#m" x="606.062" y="177"/><use xlink:href="#k" x="711.525" y="177"/><use xlink:href="#d" x="902.062" y="177"/><use xlink:href="#k" x="745.062" y="177"/><use xlink:href="#e" x="907.799" y="177"/><use xlink:href="#k" x="763.525" y="177"/><use xlink:href="#f" x="902.062" y="177"/><use xlink:href="#k" x="797.062" y="177"/><use xlink:href="#n" x="-256.263" y="177.001"/><use xlink:href="#k" x="815.525" y="177"/><use xlink:href="#h" x="902.062" y="177"/><use xlink:href="#k" x="849.062" y="177"/><use xlink:href="#i" x="907.8" y="177"/><use xlink:href="#k" x="867.525" y="177"/><use xlink:href="#p" x="850"/><use xlink:href="#k" x="901.062" y="177"/><use xlink:href="#k" x="906.799" y="177"/><use xlink:href="#k" x="920.525" y="177"/><use xlink:href="#o" x="1111.999"/><use xlink:href="#o" x="1139.799"/><use xlink:href="#m" x="902.062" y="177"/><use xlink:href="#o" x="1158.262"/><use xlink:href="#d" x="1163.062" y="177"/><use xlink:href="#o" x="1191.799"/><use xlink:href="#e" x="1168.799" y="177"/><use xlink:href="#o" x="1211.262"/><use xlink:href="#f" x="1164.062" y="177"/><use xlink:href="#o" x="1244.799"/><use xlink:href="#n" x="5.737" y="177.001"/><use xlink:href="#o" x="1263.262"/><use xlink:href="#h" x="1164.062" y="177"/><use xlink:href="#o" x="1296.799"/><use xlink:href="#i" x="1169.8" y="177"/><use xlink:href="#l" x="1134.138"/><use xlink:href="#j" x="1191.875"/><use xlink:href="#l" x="1179.925"/><use xlink:href="#k" x="1209.862"/><use xlink:href="#l" x="1221.138"/><use xlink:href="#l" x="1226.875"/><path d="M1605.411 14.199v7.119H1604v-5.439l-1.685.522v-1.147l2.944-1.055h.151z"/><use xlink:href="#m" x="1239.125"/><use xlink:href="#m" x="1244.862"/><use xlink:href="#d" x="1511.4"/><use xlink:href="#m" x="1274.601"/><use xlink:href="#d" x="1522.875"/><path d="M1692.411 14.199v7.119H1691v-5.439l-1.685.522v-1.147l2.944-1.055h.151z"/><use xlink:href="#m" x="1326.125"/><use xlink:href="#e" x="1546.599"/><path d="M1623.406 255.068h-2.764v-7.109h2.49q1.294 0 1.963.496.669.496.669 1.453 0 .522-.269.92-.269.398-.747.583.547.137.862.552.315.415.315 1.016 0 1.025-.654 1.553-.654.527-1.865.537zm.044-3.096h-1.343v1.919h1.255q.518 0 .808-.247.291-.247.291-.681 0-.977-1.011-.991zm-1.343-2.827v1.792h1.084q1.108-.02 1.108-.884 0-.483-.281-.696-.281-.212-.886-.212h-1.025zm9.033 3.555h1.465q-.083 1.147-.847 1.807-.764.659-2.014.659-1.367 0-2.151-.92-.784-.92-.784-2.527v-.435q0-1.025.361-1.807.361-.781 1.033-1.199.671-.417 1.56-.417 1.23 0 1.982.659.752.659.869 1.851h-1.465q-.054-.688-.383-.999-.33-.31-1.003-.31-.732 0-1.096.525-.364.525-.374 1.628v.537q0 1.152.349 1.685.349.532 1.101.532.679 0 1.013-.31.334-.31.383-.959z"/><use xlink:href="#r"/><use xlink:href="#s"/><path d="M1632.932 264.959v1.187h-2.178v5.923h-1.465v-5.923h-2.148v-1.187h5.791z"/><use xlink:href="#s" x="12.256"/><path d="M1625.3 284.84v1.147h-2.812v1.904h3.301v1.177h-4.766v-7.109h4.756v1.187h-3.291v1.694h2.813z"/><use xlink:href="#r" x="-6.919" y="34"/><path d="M1634.734 281.959l1.602 5.347 1.611-5.347h1.631l-2.476 7.109h-1.528l-2.466-7.109h1.626z"/></g></g></symbol></svg>