<svg xmlns="http://www.w3.org/2000/svg" xmlns:xlink="http://www.w3.org/1999/xlink" viewBox="0 0 242 1633" fill="#fff" fill-rule="evenodd" stroke="#000" stroke-linecap="round" stroke-linejoin="round" font-family="Roboto" font-size="14" text-anchor="middle"><style><![CDATA[.B{fill:#000}.C{stroke:none}.D{stroke-linejoin:miter}.E{font-size:11.2px}.F{stroke-width:.96}.G{stroke:#595959}.H{fill:#595959}.I{stroke:#7f7f7f}.J{stroke-width:.319}.K{font-size:8.96px}.L{fill:url(#A)}.M{fill:#a5a5a5}.N{fill:url(#E)}.O{fill:url(#F)}.P{stroke-dasharray:1.9962 0.9981}.Q{stroke-width:.998}.R{stroke-width:.958}]]></style><use xlink:href="#K" x=".5" y=".5"/><defs><linearGradient id="A" x1="100%" y1="50%" x2="0%" y2="50%"><stop offset="0%" stop-color="#a5a5a5"/><stop offset="1%" stop-color="#a5a5a5"/><stop offset="50%" stop-color="#595959"/><stop offset="100%" stop-color="#a5a5a5"/></linearGradient><linearGradient id="B" x1="0%" y1="50%" x2="100%" y2="50%"><stop offset="0%" stop-color="#595959"/><stop offset="100%" stop-color="#bfbfbf"/></linearGradient><linearGradient id="C" x1="100%" y1="50%" x2="0%" y2="50%"><stop offset="0%" stop-color="#595959"/><stop offset="100%" stop-color="#bfbfbf"/></linearGradient><linearGradient id="D" x1="50%" y1="0%" x2="50%" y2="100%"><stop offset="0%" stop-color="#595959"/><stop offset="100%" stop-color="#a5a5a5"/></linearGradient><linearGradient id="E" x1="100%" y1="50%" x2="0%" y2="50%"><stop offset="0%" stop-color="#595959"/><stop offset="100%" stop-color="#a5a5a5"/></linearGradient><linearGradient id="F" x1="0%" y1="50%" x2="100%" y2="50%"><stop offset="0%" stop-color="#595959"/><stop offset="100%" stop-color="#a5a5a5"/></linearGradient><linearGradient id="G" x1="50%" y1="0%" x2="50%" y2="100%"><stop offset="0%" stop-color="#fff"/><stop offset="70.7%" stop-color="#bfbfbf"/></linearGradient><radialGradient id="H" r="100%" fx="50%" fy="50%" cx="50%" cy="50%"><stop offset="0%" stop-color="#d0d0d0"/><stop offset="70.7%" stop-color="#bfbfbf"/></radialGradient><radialGradient id="I" r="100%" fx="50%" fy="50%" cx="50%" cy="50%"><stop offset="0%" stop-color="#9d9d9d"/><stop offset="100%" stop-color="#7f7f7f"/></radialGradient><radialGradient id="J" r="100%" fx="50%" fy="50%" cx="50%" cy="50%"><stop offset="0%" stop-color="#5c5c5c"/><stop offset="100%" stop-color="#3f3f3f"/></radialGradient></defs><symbol id="K" overflow="visible"><path d="M0 0h240v1632H0z" class="C H"/><g class="F"><path d="M4.5 93.728h7.488V2.24H4.5v91.488z" class="L"/><path d="M12 1595.2h216V36.736H12V1595.2z" class="B"/><path d="M228.004 93.728h7.488V2.24h-7.488v91.488z" class="L"/><path d="M15 1595.2h210.048V36.736H15V1595.2z" fill="#bfbfbf"/><path fill="url(#B)" d="M31.512 36.736H15V1595.2h16.512"/></g><g transform="translate(208.492 36.736)"><path fill="url(#C)" d="M0 0h16.512v1558.464H0" class="F"/></g><g class="F"><path d="M162.69 17.242h-24c-3.36 0-5.952 2.688-5.952 6.048a5.92 5.92 0 0 1-5.952 5.952h-13.44c-3.456 0-6.048-2.688-6.048-5.952s-2.688-6.048-6.048-6.048h-24v7.488h16.512a6.02 6.02 0 0 1 6.048 6.048c0 3.36 2.592 5.952 5.952 5.952h28.512c3.36 0 6.048-2.688 6.048-5.952s2.592-6.048 6.048-6.048h16.32v-7.488z" fill="#7f7f7f" class="D"/><path d="M36 384.728h168V93.848H36v290.88zm0 777.032h168V402.784H36v758.976z" class="H"/><path fill="url(#D)" d="M156 9.024V0H0v9.024" transform="matrix(-1 0 0 -1 198.000009 946.800033)"/><path d="M36 1395.76h168v-217.536H36v217.536z" class="H"/><path d="M4.5 900.72h7.488V731.184H4.5V900.72zm223.504 0h7.488V731.184h-7.488V900.72z" class="M"/><path d="M156 9.024V0H0v9.024" transform="matrix(-1 0 0 -1 198.000009 740.280035)" class="N"/><path d="M42.004 693.808v-9.024h156v9.024" class="O"/><path d="M41.94 693.712c-6.528 0-11.904-5.28-11.904-11.04V256.72c0-6.72 5.376-12 12-12h156c6.72 0 12 5.376 12 12v425.952c0 6.72-5.376 12-12 12H143.7c-2.496 0-4.8-.768-6.912-2.208-10.08-7.104-23.424-7.104-33.6 0-1.92 1.44-4.416 2.208-6.912 2.208H41.94zm-19.68-600H4.5v637.44h92.736a7.68 7.68 0 0 1 5.28 2.112c9.888 9.312 25.152 9.312 35.04 0a7.68 7.68 0 0 1 5.28-2.112h92.736V93.712H217.62a7.68 7.68 0 0 0-7.68 7.68v109.44c0 6.72-5.376 12-12 12h-156c-6.72 0-12-5.376-12-12v-109.44a7.68 7.68 0 0 0-7.68-7.68z" class="D M"/><path d="M19.476 93.792H4.5v637.44h14.976" class="O"/></g><g transform="translate(220.524 93.792)"><path d="M0 0h14.976v637.44H0" class="F N"/></g><g class="F"><path d="M161.988 1439.28H46.5v67.2h115.488v9.6h13.44v-9.792h9.024v-67.2h-9.024v-9.792h-13.44v9.984z" class="D H"/><g class="L"><path d="M4.5 1538.24h7.488v91.488H4.5v-91.488z"/><path d="M228.004 1538.24h7.488v91.488h-7.488v-91.488z"/></g><g class="G"><path d="M82.464 1574.992c0 6.24-4.992 11.232-11.232 11.232S60 1581.232 60 1574.992s4.992-11.232 11.232-11.232 11.232 4.992 11.232 11.232z" fill="none"/><circle cx="71.385" cy="1575.12" r="5.76" class="B D"/><path d="M205.468 1574.992c0 6.24-4.992 11.232-11.232 11.232s-11.232-4.992-11.232-11.232 4.992-11.232 11.232-11.232 11.232 4.992 11.232 11.232z" fill="none"/><circle cx="194.388" cy="1575.12" r="5.76" class="B D"/></g><path d="M162.69 1614.688h-24c-3.36 0-5.952-2.688-5.952-6.048a5.92 5.92 0 0 0-5.952-5.952h-13.44c-3.456 0-6.048 2.688-6.048 5.952s-2.688 6.048-6.048 6.048h-24v-7.488h16.512a6.02 6.02 0 0 0 6.048-6.048c0-3.36 2.592-5.952 5.952-5.952h28.512c3.36 0 6.048 2.688 6.048 5.952s2.592 6.048 6.048 6.048h16.32v7.488z" fill="#7f7f7f" class="D"/><path fill="url(#D)" d="M42.004 900.704v-9.024h156v9.024"/><path d="M41.9 937.3c-6.528 0-11.864 6.22-11.864 11.98v425.952c0 6.72 5.376 12 12 12h156c6.72 0 12-5.376 12-12V949.28c0-6.72-5.376-12-12-12H143.7c-2.496 0-4.8.768-6.912 2.208-10.08 7.104-23.424 7.104-33.6 0-1.92-1.44-4.416-2.208-6.912-2.208H41.94zm-19.64 600.94H4.5V900.8h92.736a7.68 7.68 0 0 0 5.28-2.112c9.888-9.312 25.152-9.312 35.04 0a7.68 7.68 0 0 0 5.28 2.112h92.736v637.44H217.62a7.68 7.68 0 0 1-7.68-7.68v-109.44c0-6.72-5.376-12-12-12h-156c-6.72 0-12 5.376-12 12v109.44a7.68 7.68 0 0 1-7.68 7.68z" class="D M"/><path d="M19.476 900.72H4.5v637.44h14.976" class="O"/></g><g transform="translate(220.526 900.72)"><path d="M0 0h14.976v637.44H0" class="F N"/></g><g class="F"><g fill="none"><path d="M42 1521.36h139.488c6.72 0 12-5.376 12-12v-76.128c0-6.72-5.376-12-12-12H42c-6.72 0-12 5.376-12 12v76.128c0 6.624 5.376 12 12 12z"/><path d="M82.464 56.998c0-6.24-4.992-11.232-11.232-11.232S60 50.758 60 56.998 64.992 68.23 71.232 68.23s11.232-4.992 11.232-11.232z" class="G"/></g><circle cx="71.385" cy="56.844" r="5.76" class="B D G"/><path d="M205.468 56.998c0-6.24-4.992-11.232-11.232-11.232s-11.232 4.992-11.232 11.232 4.992 11.232 11.232 11.232 11.232-4.992 11.232-11.232z" fill="none" class="G"/><circle cx="194.389" cy="56.844" r="5.76" class="B D G"/></g><g transform="translate(102.02 695.294)"><path d="M35.89 17.945C35.89 8.075 27.856 0 17.945 0S0 8.075 0 17.945 8.034 35.89 17.945 35.89 35.89 27.815 35.89 17.945z" stroke="#9a9a9a" fill="url(#G)" class="P Q"/><g transform="translate(6.567 6.58)"><path d="M22.756 11.365A11.37 11.37 0 0 0 11.378 0 11.37 11.37 0 0 0 0 11.365 11.37 11.37 0 0 0 11.378 22.73a11.37 11.37 0 0 0 11.378-11.365z" fill="url(#H)" class="I R"/></g><g transform="matrix(.788011 -.615661 .615661 .788011 6.28383 14.548712)"><path d="M2.813 0l11.595 18.243c-.728.906-1.666 1.482-2.813 1.729L0 1.729C.728.823 1.666.247 2.813 0z" fill="url(#I)" stroke="#a5a5a5" class="J"/></g><g transform="translate(12.396 12.262)"><path d="M3.333 6.38l-1.357 3.689c1.098.499 2.276.997 3.443 1.296h0l1.327-3.689 3.363 1.196.998-2.692-3.363-1.196 1.357-3.689C8.004.797 6.827.299 5.659 0h0L4.332 3.689.998 2.492 0 5.184 3.333 6.38" fill="url(#J)" class="I J"/></g></g><g transform="translate(102.02 900.8)"><path d="M0 17.945C0 8.075 8.034 0 17.945 0S35.89 8.075 35.89 17.945 27.856 35.89 17.945 35.89 0 27.815 0 17.945z" stroke="#9a9a9a" fill="url(#G)" class="P Q"/><g transform="translate(6.567 6.58)"><path d="M0 11.365A11.37 11.37 0 0 1 11.378 0a11.37 11.37 0 0 1 11.378 11.365A11.37 11.37 0 0 1 11.378 22.73 11.37 11.37 0 0 1 0 11.365z" fill="url(#H)" class="I R"/></g><g transform="matrix(.788011 .615661 -.615661 .788011 18.252333 5.678246)"><path d="M11.595 0L0 18.243c.728.906 1.666 1.482 2.813 1.729L14.408 1.729C13.68.823 12.742.247 11.595 0z" fill="url(#I)" stroke="#a5a5a5" class="J"/></g><g transform="translate(12.386 12.262)"><path d="M7.775 6.38l1.357 3.689c-1.098.499-2.276.997-3.443 1.296h0L4.361 7.676.998 8.873 0 6.181l3.363-1.196-1.357-3.689C3.104.797 4.282.299 5.449 0h0l1.327 3.689 3.333-1.196.998 2.692L7.775 6.38" fill="url(#J)" class="I J"/></g></g></symbol></svg>