<svg xmlns="http://www.w3.org/2000/svg" xmlns:xlink="http://www.w3.org/1999/xlink" viewBox="0 0 1826 2192" fill="#fff" fill-rule="evenodd" stroke="#000" stroke-linecap="round" stroke-linejoin="round"><style><![CDATA[.B{stroke-width:.96}.C{stroke:gray}.D{stroke-width:.32}.E{stroke-linejoin:miter}.F{fill:#d8d8d8}.G{stroke:none}.H{fill:#000}.I{stroke-width:.667}.J{stroke:#a5a5a5}.K{fill:#262626}.L{stroke:#9a9a9a}.M{stroke-dasharray:0.64, 0.32px}.N{fill:url(#K)}.O{fill:url(#L)}.P{fill:url(#M)}.Q{fill:url(#N)}.R{fill:url(#O)}]]></style><use xlink:href="#b" x=".5" y=".5"/><defs><linearGradient id="A" x1="50%" y1="100%" x2="50%" y2="0%"><stop offset="0%" stop-color="#d8d8d8"/><stop offset="100%" stop-color="#a5a5a5"/></linearGradient><linearGradient id="B" x1="50%" y1="0%" x2="50%" y2="100%"><stop offset="0%" stop-color="#d8d8d8"/><stop offset="100%" stop-color="#a5a5a5"/></linearGradient><linearGradient id="C" x1="0%" y1="50%" x2="100%" y2="50%"><stop offset="0%" stop-color="#d8d8d8"/><stop offset="100%" stop-color="#a5a5a5"/></linearGradient><linearGradient id="D" x1="100%" y1="50%" x2="0%" y2="50%"><stop offset="0%" stop-color="#d8d8d8"/><stop offset="100%" stop-color="#a5a5a5"/></linearGradient><radialGradient id="E" r="100%" fx="50%" fy="50%" cx="50%" cy="50%"><stop offset="0%" stop-color="#bfbfbf"/><stop offset="70.7%" stop-color="#404040"/></radialGradient><linearGradient id="F" x1="0%" y1="50%" x2="100%" y2="50%"><stop offset="0%" stop-color="#a6a6a6"/><stop offset="50%" stop-color="#d9d9d9"/><stop offset="100%" stop-color="#a6a6a6"/></linearGradient><linearGradient id="G" x1="0%" y1="50%" x2="100%" y2="50%"><stop offset="0%" stop-color="#a5a5a5"/><stop offset="50%" stop-color="#f2f2f2"/><stop offset="100%" stop-color="#a5a5a5"/></linearGradient><linearGradient id="H" x1="50%" y1="100%" x2="50%" y2="0%"><stop offset="0%" stop-color="#a5a5a5"/><stop offset="50%" stop-color="#f2f2f2"/><stop offset="100%" stop-color="#a5a5a5"/></linearGradient><linearGradient id="I" x1="0%" y1="50%" x2="100%" y2="50%"><stop offset="0%" stop-color="#f2f2f2"/></linearGradient><linearGradient id="J" x1="50%" y1="0%" x2="50%" y2="100%"><stop offset="0%" stop-color="#bfbfbf"/><stop offset="50%" stop-color="#fff"/><stop offset="100%" stop-color="#bfbfbf"/></linearGradient><linearGradient id="K" x1="0%" y1="50%" x2="100%" y2="50%"><stop offset="0%" stop-color="#d8d8d8"/><stop offset="50%" stop-color="#f2f2f2"/><stop offset="100%" stop-color="#d8d8d8"/></linearGradient><linearGradient id="L" x1="0%" y1="50%" x2="100%" y2="50%"><stop offset="0%" stop-color="#d8d8d8"/><stop offset="50%" stop-color="#fff"/><stop offset="100%" stop-color="#d8d8d8"/></linearGradient><radialGradient id="M" r="100%" fx="50%" fy="50%" cx="50%" cy="50%"><stop offset="0%" stop-color="#e2e2e2"/><stop offset="70.7%" stop-color="#d8d8d8"/></radialGradient><radialGradient id="N" r="100%" fx="50%" fy="50%" cx="50%" cy="50%"><stop offset="0%" stop-color="#bdbdbd"/><stop offset="100%" stop-color="#a5a5a5"/></radialGradient><radialGradient id="O" r="100%" fx="50%" fy="50%" cx="50%" cy="50%"><stop offset="0%" stop-color="#9d9d9d"/><stop offset="100%" stop-color="#7f7f7f"/></radialGradient><linearGradient id="P" x1="0%" y1="50%" x2="100%" y2="50%"><stop offset="0%" stop-color="#bfbfbf"/><stop offset="100%" stop-color="#d8d8d8"/></linearGradient><path id="Q" d="M758.12 43.27c0-5.995-4.86-10.854-10.86-10.854a10.85 10.85 0 0 0-10.85 10.854c0 5.994 4.86 10.854 10.85 10.854 5.995 0 10.857-4.858 10.86-10.854z"/><path id="R" d="M228.5 1626.92h30v-9h-30v9zm0-24.8h30v-3h-30v3z"/><path id="S" d="M766.657 76.159v.109h-.022l-.044-.072v.072h-.022v-.109h.022l.044.072v-.072h.022z"/><path id="T" d="M173.139 47.576q0-.362-.359-.571-.359-.208-1.152-.373-2.639-.554-2.639-2.242 0-.984.817-1.644.817-.66 2.136-.66 1.408 0 2.252.663.844.663.844 1.723h-1.976q0-.424-.273-.701-.273-.277-.854-.277-.499 0-.772.226-.273.226-.273.574 0 .328.311.53.311.202 1.049.349.738.147 1.244.332 1.565.574 1.565 1.989 0 1.012-.868 1.637-.868.625-2.242.625-.93 0-1.651-.332-.721-.332-1.131-.909-.41-.578-.41-1.248h1.873q.027.526.39.807.362.28.971.28.567 0 .858-.215.291-.215.291-.564z"/><path id="U" d="M739.086 67.96h-3.316v-8.531h2.988q1.553 0 2.355.595.803.595.803 1.743 0 .627-.322 1.104-.322.478-.896.7.656.164 1.034.662.378.498.378 1.219 0 1.23-.785 1.863-.785.633-2.238.645zm.053-3.715h-1.611v2.303h1.506q.621 0 .97-.296.349-.296.349-.817 0-1.172-1.213-1.189zm-1.611-3.393v2.15h1.301q1.33-.023 1.33-1.061 0-.58-.337-.835-.337-.255-1.063-.255h-1.23z"/><path id="V" d="M758.218 59.429v8.531h-1.758l-3.422-5.613v5.613h-1.758v-8.531h1.758l3.428 5.625v-5.625h1.752z"/><path id="W" d="M798.677 65.722q0-.498-.352-.765-.352-.267-1.266-.562-.914-.296-1.447-.583-1.453-.785-1.453-2.115 0-.691.39-1.233.39-.542 1.119-.847.729-.305 1.638-.305.914 0 1.629.331.715.331 1.11.935.396.604.396 1.371h-1.758q0-.586-.369-.911-.369-.325-1.037-.325-.645 0-1.002.272-.357.272-.357.718 0 .416.419.697.419.281 1.233.527 1.5.451 2.186 1.119.686.668.686 1.664 0 1.107-.838 1.737-.838.63-2.256.63-.984 0-1.793-.36-.809-.36-1.233-.987-.425-.627-.425-1.453h1.764q0 1.412 1.688 1.412.627 0 .979-.255.352-.255.352-.712z"/><path id="X" d="M806.323 59.429h1.764v5.619q0 1.4-.876 2.215-.876.814-2.394.814-1.494 0-2.373-.791-.879-.791-.896-2.174v-5.684h1.758v5.631q0 .838.401 1.222.401.384 1.11.384 1.482 0 1.506-1.559v-5.678z"/><path id="Y" d="M812.828 64.954h-1.541v3.006h-1.758v-8.531h3.328q.961 0 1.69.352.729.352 1.122.999.393.647.393 1.474 0 1.254-.858 1.978-.858.724-2.376.724zm-1.541-4.102v2.678h1.57q.697 0 1.063-.328.366-.328.366-.937 0-.627-.369-1.014-.369-.387-1.02-.398h-1.611z"/><path id="Z" d="M858.304 63.056v1.418h-3.375v3.486h-1.758v-8.531h5.555v1.424h-3.797v2.203h3.375z"/><path id="a" d="M922.398 59.429h2.297l2.191 6.188 2.18-6.188h2.309v8.531h-1.764v-2.332l.176-4.025-2.303 6.357h-1.207l-2.297-6.352.176 4.02v2.332h-1.758v-8.531z"/></defs><symbol id="b" overflow="visible"><g class="E"><path d="M1816.72 2189.62c3.7.2 7-2.6 7.2-6.4.1-.2.1-.4.1-.6V49.295c.3-3.564-2.4-6.694-6-6.99-.4-.037-.9-.027-1.3.03h-76.7V2189.62h76.7zm-30.9-104.2h7.7c7.5 0 13.6 6 13.6 13.5 0 7.4-6 13.5-13.5 13.5h-10.2c-7.4 0-13.5-6-13.5-13.4-.1-7.5 6-13.6 13.4-13.6h2.5zm0-504h7.7c7.5 0 13.6 6 13.6 13.5 0 7.4-6 13.5-13.5 13.5h-10.2c-7.4 0-13.5-6-13.5-13.4-.1-7.5 6-13.6 13.4-13.6h2.5zm0-1007.98h7.7c7.5-.02 13.6 6 13.6 13.46 0 7.45-6 13.52-13.5 13.54h-10.2c-7.4.03-13.5-6-13.5-13.45-.1-7.46 6-13.52 13.4-13.55h2.5zm0-503.998h7.7c7.5-.025 13.6 5.998 13.6 13.454.009 7.467-6.033 13.529-13.5 13.546h-10.2c-7.4.025-13.5-5.998-13.5-13.454-.1-7.456 6-13.52 13.4-13.546h2.5zM7.297 2189.62c-3.757.2-7.007-2.6-7.26-6.4l-.014-.6V49.295c-.297-3.564 2.35-6.694 5.915-6.99a6.51 6.51 0 0 1 1.36.031h76.725V2189.62H7.297zm30.918-104.2h-7.782c-7.467-.009-13.529 6.033-13.546 13.5-.026 7.4 5.998 13.5 13.454 13.5h10.23c7.456 0 13.52-6 13.546-13.4.025-7.5-5.998-13.6-13.454-13.6h-2.447zm0-504h-7.782c-7.467-.009-13.529 6.033-13.546 13.5-.026 7.4 5.998 13.5 13.454 13.5h10.23c7.456 0 13.52-6 13.546-13.4.025-7.5-5.998-13.6-13.454-13.6h-2.447zm0-1007.98h-7.782c-7.456-.02-13.518 6.004-13.546 13.46-.026 7.45 5.998 13.52 13.454 13.54h10.23c7.454.026 13.518-5.996 13.546-13.45.025-7.46-5.998-13.52-13.454-13.55h-2.447zm0-503.998h-7.782c-7.456-.025-13.52 5.998-13.546 13.454s5.998 13.52 13.454 13.546h10.23c7.456.025 13.52-5.998 13.546-13.454s-5.998-13.52-13.454-13.546h-2.447z" fill="#7f7f7f" class="B"/><path d="M80 2179.22h1668.02a6.02 6.02 0 0 0 6-6V6a6.01 6.01 0 0 0-6-6h0H80a6 6 0 0 0-6 6h0v2167.22a6.01 6.01 0 0 0 6 6z" fill="#3f3f3f" class="B C"/></g><g class="G"><path d="M83.528 20h1637.2v54H83.528z" class="F"/><path d="M82.568 26.96h1639.2v-7.968H82.568z" fill="url(#A)"/><path d="M82.568 67.04h1639.2v7.968H82.568z" fill="url(#B)"/><path d="M1719.76 68.96h7.968V24.992h-7.968z" fill="url(#C)"/><path d="M84.65 68.96h-7.968V24.992h7.968z" fill="url(#D)"/></g><g class="C"><g fill="url(#E)" class="D"><use xlink:href="#Q"/><use xlink:href="#Q" x="57.94"/><use xlink:href="#Q" x="115.87"/><use xlink:href="#Q" x="173.8"/><use xlink:href="#Q" x="231.73"/><use xlink:href="#Q" x="289.61"/><use xlink:href="#Q" x="347.61"/></g><g class="B"><path d="M70 2189.62h1680.02v-57.6H70v57.6z" class="F"/><g fill="#d9d9d9"><path d="M1743.82 2189.62h6.2v-57.6h-6.2v57.6z"/><path d="M1730.32 2189.62h13.5v-45h-13.5v45z"/></g></g><path d="M1743.22 2144.62v-7.5c.1-2.7-2.2-5-5.2-5.1h-14.9v4.7l14.7.1v7.8h5.4z" class="E F I"/></g><g class="G"><path d="M81.645 2139.38h1643.136v-8.448H81.645z" fill="url(#A)"/><path d="M81.645 2182.26h1643.136v8.448H81.645z" fill="url(#B)"/><path d="M1722.76 2184.18h8.064v-46.848h-8.064z" fill="url(#C)"/><path d="M83.727 2184.18h-8.064v-46.848h8.064z" fill="url(#D)"/></g><path d="M1704.12 2162.82a11.61 11.61 0 0 0-11.6-11.6 11.61 11.61 0 0 0-11.6 11.6 11.61 11.61 0 0 0 11.6 11.6 11.61 11.61 0 0 0 11.6-11.6z" stroke="#262626" fill="url(#F)" class="B"/><path d="M1696.22 2162.82a3.76 3.76 0 0 0-3.7-3.7 3.76 3.76 0 0 0-3.7 3.7c0 2.1 1.7 3.7 3.7 3.7s3.7-1.6 3.7-3.7z" class="G H"/><path d="M125.57 2162.82a11.61 11.61 0 0 0-11.6-11.6 11.61 11.61 0 0 0-11.6 11.6 11.61 11.61 0 0 0 11.6 11.6 11.61 11.61 0 0 0 11.6-11.6z" stroke="#262626" fill="url(#F)" class="B"/><path d="M117.64 2162.82c0-2-1.64-3.7-3.66-3.7s-3.66 1.7-3.66 3.7c0 2.1 1.64 3.7 3.66 3.7s3.66-1.6 3.66-3.7z" class="G H"/><g class="B"><path d="M70.083 2189.52h6.188v-57.6h-6.188v57.6z" fill="#d9d9d9" class="C"/><g class="F"><g stroke="#7f7f7f"><path d="M1672.72 1598.02h53.3v-175.5h-72v139.2h18.7v36.3z" class="E"/><path d="M912.4 1598.02h67.2v-175.5h-67.2v175.5z"/></g><path d="M94 1628.02h1632.02v-30H94v30z" class="C"/></g><g class="E"><g class="H"><use xlink:href="#R"/><use xlink:href="#R" x="162"/><use xlink:href="#R" x="326.3"/><use xlink:href="#R" x="489.8"/><use xlink:href="#R" x="653"/><use xlink:href="#R" x="816.52"/><use xlink:href="#R" x="979.42"/><use xlink:href="#R" x="1142.92"/><use xlink:href="#R" x="1307.72"/><use xlink:href="#R" x="1467.52"/></g><path d="M238 1560.12v-137.6H94v175.5h125.62v-37.9H238z" stroke="#7f7f7f" class="F"/></g><g fill="url(#G)" class="C"><path d="M1730.92 2132.02h19.2V74h-19.2v2058.02z"/><path d="M70 2132.02h19.2V74H70v2058.02z"/></g></g><path d="M86.5 18.5h1632.02v-8.1H86.5v8.1z" fill="url(#H)" class="C"/><g class="I"><path d="M1732.02 65.5v.005a9.01 9.01 0 0 0 6 8.495h4.5V14c-.7-1.963-2.5-3.362-4.5-3.6-2.7-.537-5.4 1.238-5.9 3.965-.1.373-.1.754-.1 1.135h0v50z" class="C E H"/><path d="M1738.02 74h4.5V14c-.7-1.963-2.5-3.362-4.5-3.6-2.7-.537-5.4 1.238-5.9 3.965-.1.373-.1.754-.1 1.135h0v39a3.14 3.14 0 0 0 3.9 2.125 3.14 3.14 0 0 0 2.1-2.125h0V74" class="C F"/><path d="M1738.02 54.5v-39" fill="none" class="C"/></g><path d="M1736.52 57.5c-.3 1.478-1.1 2.572-2.3 3-2.4 2.584-2.4 7.408.1 10.774 1 1.324 2.3 2.28 3.7 2.726" fill="none" class="B C"/><g class="E I"><path d="M1732.02 68V15.5c.1-2.688-2-4.97-4.7-5.095 0-.003-.1-.004-.1-.005h0-8.7v4.8h8.7V68h4.8z" class="C F"/><path d="M73 65.5v.005c0 3.816-2.403 7.22-6 8.495h0-4.5V14c.686-1.963 2.434-3.362 4.5-3.6a5.03 5.03 0 0 1 5.908 3.965A5.02 5.02 0 0 1 73 15.5h0v50z" class="C H"/></g><path d="M67 74h-4.5V14c.686-1.963 2.434-3.362 4.5-3.6a5.03 5.03 0 0 1 5.908 3.965A5.02 5.02 0 0 1 73 15.5h0v39c-.483 1.657-2.218 2.608-3.875 2.125-1.025-.3-1.826-1.1-2.125-2.125h0V74z" class="F G"/><g class="C"><g fill="none"><path d="M67 54.5v-39" class="I"/><path d="M68.5 57.5c.308 1.478 1.13 2.572 2.25 3 2.453 2.584 2.402 7.408-.114 10.774-.99 1.324-2.265 2.28-3.636 2.726" class="B"/></g><path d="M72.999 68V15.5a4.87 4.87 0 0 1 4.64-5.095l.16-.005h8.7v4.8h-8.7V68h-4.8z" class="E F I"/></g><path d="M224.46 1468.32c0-3-2.43-5.5-5.44-5.5-3 0-5.43 2.5-5.43 5.5 0 3.1 2.43 5.5 5.43 5.5s5.44-2.4 5.44-5.5zm1454.06 77.7c0-3-2.4-5.4-5.4-5.4s-5.4 2.4-5.4 5.4c0 3.1 2.4 5.5 5.4 5.5s5.4-2.4 5.4-5.5zm-729.26-.1c0-3-2.43-5.5-5.44-5.5-3 0-5.43 2.5-5.43 5.5s2.43 5.5 5.43 5.5 5.44-2.5 5.44-5.5zm4.49-77.4c0-3.1-2.43-5.5-5.43-5.5s-5.44 2.4-5.44 5.5c0 3 2.43 5.5 5.44 5.5 3 0 5.43-2.5 5.43-5.5z" class="G H"/><g class="B"><path d="M949.64 1572.32h18.26v-57h-45.64v-93H240.74v9H195.1v72h45.64v93h681.52v-12h15.2l12.17-12z" fill="url(#I)" class="J"/><g stroke="#a6a6a6"><path d="M715.42 1587.12l-2.24 1.9v7.5l2.24 1.9h71.26v-11.3h-71.26z" class="E K"/><g fill="url(#J)"><path d="M943.99 1599.72l23.9-.2v-14.4l-23.72-.1-3.68 4v7.5l3.5 3.2z"/><path d="M944.92 1596.52h-77.7v-7.5h77.72v7.5z"/></g><path d="M794.18 1598.32h73.7v-11.2h-73.7v11.2zm-7.14.1h6.84v-7.6h-6.84v7.6z" class="K"/></g></g><g class="D L"><path d="M229.18 1485.12c9.3-5.3 12.4-17.4 6.92-26.9s-17.47-12.8-26.78-7.4c-9.3 5.3-12.4 17.4-6.92 26.9s17.47 12.8 26.78 7.4z" class="M N"/><path d="M228.02 1483.12c8.22-4.7 10.96-15.4 6.1-23.7-4.84-8.4-15.43-11.4-23.65-6.6-8.22 4.7-10.96 15.4-6.1 23.7 4.84 8.4 15.43 11.4 23.65 6.6z" class="O"/></g><g class="J"><path d="M226.279 1480.12c6.6-3.8 8.78-12.3 4.9-19-3.88-6.8-12.37-9.1-18.96-5.3s-8.8 12.3-4.9 19c3.88 6.8 12.37 9.1 18.96 5.3z" class="B P"/><g class="D"><path d="M215.1 1455.22l4.62 26.3c1.4.2 2.78 0 4-.7l-4.62-26.3c-1.4-.2-2.78 0-4 .7z" class="Q"/><path d="M217.34 1471.02l.36 2c1.8-.1 3.63-.4 5.36-.9h0l-.36-2 1.5-.2c-.16-1.8-.5-3.7-1-5.4l-1.5.2-.34-1.8c-1.8.1-3.63.4-5.36.9h0l.34 1.8-1.84.3c.15 1.8.5 3.7 1 5.5l1.84-.4z" class="R"/></g></g><g class="L"><path d="M939.699 1563.92c10.5 2.2 20.87-4.7 23.15-15.4s-4.4-21.2-14.9-23.5c-10.5-2.2-20.88 4.7-23.16 15.4s4.4 21.2 14.9 23.5z" class="D M N"/><path d="M940.179 1561.62c9.28 2 18.44-4.1 20.45-13.6 2.02-9.5-3.88-18.7-13.16-20.7-9.3-2-18.44 4.1-20.46 13.6-2 9.4 3.88 18.7 13.17 20.7z" class="D O"/></g><g class="J"><path d="M940.9 1558.22c7.44 1.6 14.8-3.3 16.4-10.9s-3.1-15-10.55-16.6-14.8 3.3-16.4 10.9c-1.62 7.6 3.1 15 10.55 16.6z" class="B P"/><g class="D"><path d="M949.25 1532.22l-14.12 22.6c.86 1.1 2.04 1.9 3.45 2.1h0l14.12-22.5c-.86-1.2-2.04-1.9-3.45-2.2z" class="Q"/><path d="M940.34 1545.52l-1.05 1.7c1.43 1.117 2.967 2.088 4.59 2.9l1.05-1.7 1.28.8c1.1-1.5 2.1-3.1 2.9-4.7h0l-1.28-.8.98-1.6a27.65 27.65 0 0 0-4.58-2.9l-1 1.6-1.58-1a24.7 24.7 0 0 0-2.9 4.7h0l1.58 1z" class="R"/></g><path d="M1678.62 1572.32h18.3v-57h-45.7v-93H969.74v9H924.1v72h45.64v93h681.48v-12h15.3l12.1-12z" fill="url(#I)" class="B"/></g><g stroke="#a6a6a6"><path d="M1444.42 1587.12l-2.2 1.9v7.5l2.2 1.9h71.3v-11.3h-71.3z" class="B E K"/><g fill="url(#J)"><path d="M1673.02 1599.72l23.9-.2v-14.4l-23.7-.1-3.7 4v7.5l3.5 3.2z" class="B"/><path d="M1673.92 1596.52h-77.7v-7.5h77.7v7.5z" class="B"/></g><path d="M1523.22 1598.32h73.7v-11.2h-73.7v11.2zm-7.2.1h6.9v-7.6h-6.9v7.6z" class="B K"/></g><g class="D L"><path d="M958.18 1485.12c9.3-5.3 12.4-17.4 6.92-26.9s-17.47-12.8-26.78-7.4c-9.3 5.3-12.4 17.4-6.92 26.9s17.47 12.8 26.78 7.4z" class="M N"/><path d="M957.019 1483.12c8.22-4.7 10.96-15.4 6.1-23.7-4.84-8.4-15.43-11.4-23.65-6.6-8.22 4.7-10.96 15.4-6.1 23.7 4.84 8.4 15.43 11.4 23.65 6.6z" class="O"/></g><g class="J"><path d="M955.28 1480.12c6.6-3.8 8.78-12.3 4.9-19-3.88-6.8-12.37-9.1-18.96-5.3s-8.8 12.3-4.9 19c3.88 6.8 12.37 9.1 18.96 5.3z" class="B P"/><g class="D"><path d="M944.1 1455.22l4.62 26.3c1.4.2 2.78 0 4-.7l-4.62-26.3c-1.4-.2-2.78 0-4 .7z" class="Q"/><path d="M946.34 1471.02l.36 2c1.8-.1 3.63-.4 5.36-.9h0l-.36-2 1.5-.2c-.16-1.8-.5-3.7-1-5.4l-1.5.2-.34-1.8c-1.8.1-3.63.4-5.36.9l.34 1.8-1.84.3c.15 1.8.5 3.7 1 5.5l1.84-.4z" class="R"/></g></g><g class="L"><path d="M1668.719 1563.92c10.5 2.2 20.9-4.7 23.1-15.4 2.3-10.7-4.4-21.2-14.9-23.5-10.5-2.2-20.8 4.7-23.1 15.4s4.4 21.2 14.9 23.5z" class="D M N"/><path d="M1669.219 1561.62c9.2 2 18.4-4.1 20.4-13.6s-3.9-18.7-13.2-20.7c-9.2-2-18.4 4.1-20.4 13.6-2 9.4 3.9 18.7 13.2 20.7z" class="D O"/></g><g class="J"><path d="M1669.919 1558.22c7.4 1.6 14.8-3.3 16.4-10.9s-3.1-15-10.6-16.6c-7.4-1.6-14.8 3.3-16.4 10.9s3.1 15 10.6 16.6z" class="B P"/><g class="D"><path d="M1678.22 1532.22l-14.1 22.6c.9 1.1 2.1 1.9 3.5 2.1l14.1-22.5c-.9-1.2-2.1-1.9-3.5-2.2z" class="Q"/><path d="M1669.32 1545.52l-1 1.7c1.4 1.1 3 2.1 4.6 2.9h0l1-1.7 1.3.8c1.1-1.5 2.1-3.1 2.9-4.7h0l-1.3-.8 1-1.6c-1.4-1.1-3-2.1-4.6-2.9l-1 1.6-1.6-1a24.7 24.7 0 0 0-2.9 4.7h0l1.6 1z" class="R"/></g></g><g fill="url(#P)" class="C"><path d="M257.2 1628.02H94v504h326.4v-504H257.2z"/><path d="M583.6 1628.02H420.4v504h326.4v-504H583.6z"/><path d="M910 1628.02H746.8v504h326.42v-504H910z"/><path d="M1236.42 1628.02h-163.2v504h326.4v-504h-163.2z"/><path d="M1562.82 1628.02h-163.2v504h326.4v-504h-163.2z"/></g><g class="G"><path d="M1656.82 50.938h1.992v7.895h-1.992zm18.1 2.262c-.1-.042-.7-.422-1.7-.422-1.3 0-2.2.896-2.2 2.106 0 1.173.9 2.108 2.2 2.108.9 0 1.6-.372 1.7-.42v2.12c-.3.07-.9.28-1.8.28-2.3 0-4.2-1.545-4.2-4.09 0-2.358 1.7-4.087 4.2-4.087.9 0 1.6.228 1.8.283v2.12zm-20.8 0c-.1-.042-.7-.422-1.7-.422-1.3 0-2.2.896-2.2 2.106 0 1.173.9 2.108 2.2 2.108 1 0 1.6-.372 1.7-.42v2.12c-.3.07-.9.28-1.8.28-2.3 0-4.2-1.545-4.2-4.09 0-2.358 1.8-4.087 4.2-4.087.9 0 1.6.228 1.8.283v2.12zm31.2 1.685c0 2.26-1.7 4.09-4.1 4.09-2.5 0-4.2-1.83-4.2-4.09s1.7-4.087 4.2-4.087c2.4 0 4.1 1.832 4.1 4.087zm-4.1-2.076c-1.2 0-2.1.93-2.1 2.076s.9 2.078 2.1 2.078c1.1 0 2-.93 2-2.078s-.9-2.076-2-2.076zm-14.801-.076c-.1-.01-.9-.24-1.6-.24-.8 0-1.2.267-1.2.647 0 .48.6.648.9.752l.6.175c1.2.41 1.8 1.296 1.8 2.258 0 1.984-1.7 2.65-3.2 2.65a12.21 12.21 0 0 1-2.2-.216V56.94c.2.045 1 .294 1.9.294 1 0 1.4-.3 1.4-.737 0-.4-.4-.63-.8-.786-.2-.04-.3-.097-.5-.138-1.1-.35-2-1.003-2-2.3 0-1.476 1.1-2.468 2.9-2.468 1 0 1.9.235 2 .25v1.686z" fill="#c41230"/><path d="M1646.02 42.453c0-.544-.5-.985-1-.985a.96.96 0 0 0-1 .985v2.073a.96.96 0 0 0 1 .988 1.03 1.03 0 0 0 1-.988v-2.073zm5.4-2.72c0-.544-.5-.986-1-.986s-1 .442-1 .986v4.793c0 .547.5.988 1 .988a1.03 1.03 0 0 0 1-.988v-4.793zm5.4-3.723a.96.96 0 0 0-1-.985 1.03 1.03 0 0 0-1 .985v10.485c0 .547.5.988 1 .988a.96.96 0 0 0 1-.988V36.01zm5.5 3.723c0-.544-.5-.986-1-.986a.96.96 0 0 0-1 .986v4.793a.96.96 0 0 0 1 .988 1.03 1.03 0 0 0 1-.988v-4.793zm5.4 2.72c0-.544-.5-.985-1-.985a1.03 1.03 0 0 0-1 .985v2.073c0 .547.5.988 1 .988a1.03 1.03 0 0 0 1-.988v-2.073zm5.4-2.72a.96.96 0 0 0-1-.986c-.5 0-1 .442-1 .986v4.793c0 .547.5.988 1 .988a.96.96 0 0 0 1-.988v-4.793zm5.499-3.723c0-.544-.5-.985-1-.985a.96.96 0 0 0-1 .985v10.485a.96.96 0 0 0 1 .988 1.03 1.03 0 0 0 1-.988V36.01zm5.4 3.723a.96.96 0 0 0-1-.986.96.96 0 0 0-1 .986v4.793a.96.96 0 0 0 1 .988.96.96 0 0 0 1-.988v-4.793zm5.401 2.72a.96.96 0 0 0-1-.985 1.03 1.03 0 0 0-1 .985v2.073c0 .547.5.988 1 .988a.96.96 0 0 0 1-.988v-2.073z" fill="#005568"/><g class="H"><path d="M1672.62 2172.62h-6.1l-3.1 5.3 3.1 5.2h6.1l3.1-5.2-3.1-5.3zm0-15.1h-6.1l-3.1 5.3 3.1 5.3h6.1l3.1-5.3-3.1-5.3zm0-15h-6.1l-3.1 5.3 3.1 5.3h6.1l3.1-5.3-3.1-5.3zm-25.8 30.1h-6.1l-3.1 5.3 3.1 5.2h6.1l3-5.2-3-5.3zm0-15.1h-6.1l-3.1 5.3 3.1 5.3h6.1l3-5.3-3-5.3zm0-15h-6.1l-3.1 5.3 3.1 5.3h6.1l3-5.3-3-5.3zm-25.8 30.1h-6.1l-3.1 5.3 3.1 5.2h6.1l3-5.2-3-5.3zm0-15.1h-6.1l-3.1 5.3 3.1 5.3h6.1l3-5.3-3-5.3zm0-15h-6.1l-3.1 5.3 3.1 5.3h6.1l3-5.3-3-5.3zm-25.8 30.1h-6.2l-3 5.3 3 5.2h6.2l3-5.2-3-5.3zm0-15.1h-6.2l-3 5.3 3 5.3h6.2l3-5.3-3-5.3zm0-15h-6.2l-3 5.3 3 5.3h6.2l3-5.3-3-5.3zm-25.9 30.1h-6.1l-3 5.3 3 5.2h6.1l3.1-5.2-3.1-5.3zm0-15.1h-6.1l-3 5.3 3 5.3h6.1l3.1-5.3-3.1-5.3zm0-15h-6.1l-3 5.3 3 5.3h6.1l3.1-5.3-3.1-5.3zm-25.8 30.1h-6.1l-3 5.3 3 5.2h6.1l3.1-5.2-3.1-5.3zm0-15.1h-6.1l-3 5.3 3 5.3h6.1l3.1-5.3-3.1-5.3zm0-15h-6.1l-3 5.3 3 5.3h6.1l3.1-5.3-3.1-5.3zm-25.8 30.1h-6.1l-3.1 5.3 3.1 5.2h6.1l3.1-5.2-3.1-5.3zm0-15.1h-6.1l-3.1 5.3 3.1 5.3h6.1l3.1-5.3-3.1-5.3zm0-15h-6.1l-3.1 5.3 3.1 5.3h6.1l3.1-5.3-3.1-5.3zm-25.8 30.1h-6.1l-3.1 5.3 3.1 5.2h6.1l3.1-5.2-3.1-5.3zm0-15.1h-6.1l-3.1 5.3 3.1 5.3h6.1l3.1-5.3-3.1-5.3zm0-15h-6.1l-3.1 5.3 3.1 5.3h6.1l3.1-5.3-3.1-5.3zm-25.8 30.1h-6.1l-3.1 5.3 3.1 5.2h6.1l3-5.2-3-5.3zm0-15.1h-6.1l-3.1 5.3 3.1 5.3h6.1l3-5.3-3-5.3zm0-15h-6.1l-3.1 5.3 3.1 5.3h6.1l3-5.3-3-5.3zm-25.8 30.1h-6.2l-3 5.3 3 5.2h6.2l3-5.2-3-5.3zm0-15.1h-6.2l-3 5.3 3 5.3h6.2l3-5.3-3-5.3zm0-15h-6.2l-3 5.3 3 5.3h6.2l3-5.3-3-5.3zm-25.9 30.1h-6.1l-3 5.3 3 5.2h6.1l3.1-5.2-3.1-5.3zm0-15.1h-6.1l-3 5.3 3 5.3h6.1l3.1-5.3-3.1-5.3zm0-15h-6.1l-3 5.3 3 5.3h6.1l3.1-5.3-3.1-5.3zm-25.8 30.1h-6.1l-3 5.3 3 5.2h6.1l3.1-5.2-3.1-5.3zm0-15.1h-6.1l-3 5.3 3 5.3h6.1l3.1-5.3-3.1-5.3zm0-15h-6.1l-3 5.3 3 5.3h6.1l3.1-5.3-3.1-5.3zm-25.8 30.1h-6.1l-3.1 5.3 3.1 5.2h6.1l3.1-5.2-3.1-5.3zm0-15.1h-6.1l-3.1 5.3 3.1 5.3h6.1l3.1-5.3-3.1-5.3zm0-15h-6.1l-3.1 5.3 3.1 5.3h6.1l3.1-5.3-3.1-5.3zm-25.8 30.1h-6.1l-3.1 5.3 3.1 5.2h6.1l3.1-5.2-3.1-5.3zm0-15.1h-6.1l-3.1 5.3 3.1 5.3h6.1l3.1-5.3-3.1-5.3zm0-15h-6.1l-3.1 5.3 3.1 5.3h6.1l3.1-5.3-3.1-5.3zm-25.8 30.1h-6.1l-3.1 5.3 3.1 5.2h6.1l3-5.2-3-5.3zm0-15.1h-6.1l-3.1 5.3 3.1 5.3h6.1l3-5.3-3-5.3zm0-15h-6.1l-3.1 5.3 3.1 5.3h6.1l3-5.3-3-5.3zm-25.8 30.1h-6.1l-3.1 5.3 3.1 5.2h6.1l3-5.2-3-5.3zm0-15.1h-6.1l-3.1 5.3 3.1 5.3h6.1l3-5.3-3-5.3zm0-15h-6.1l-3.1 5.3 3.1 5.3h6.1l3-5.3-3-5.3zm-25.8 30.1h-6.2l-3 5.3 3 5.2h6.2l3-5.2-3-5.3zm0-15.1h-6.2l-3 5.3 3 5.3h6.2l3-5.3-3-5.3zm0-15h-6.2l-3 5.3 3 5.3h6.2l3-5.3-3-5.3zm-25.9 30.1h-6.1l-3 5.3 3 5.2h6.1l3.1-5.2-3.1-5.3zm0-15.1h-6.1l-3 5.3 3 5.3h6.1l3.1-5.3-3.1-5.3zm0-15h-6.1l-3 5.3 3 5.3h6.1l3.1-5.3-3.1-5.3zm-25.8 30.1h-6.1l-3 5.3 3 5.2h6.1l3.1-5.2-3.1-5.3zm0-15.1h-6.1l-3 5.3 3 5.3h6.1l3.1-5.3-3.1-5.3zm0-15h-6.1l-3 5.3 3 5.3h6.1l3.1-5.3-3.1-5.3zm-25.8 30.1h-6.1l-3.1 5.3 3.1 5.2h6.1l3.1-5.2-3.1-5.3zm0-15.1h-6.1l-3.1 5.3 3.1 5.3h6.1l3.1-5.3-3.1-5.3zm0-15h-6.1l-3.1 5.3 3.1 5.3h6.1l3.1-5.3-3.1-5.3zm-25.8 30.1h-6.1l-3.1 5.3 3.1 5.2h6.1l3.1-5.2-3.1-5.3zm0-15.1h-6.1l-3.1 5.3 3.1 5.3h6.1l3.1-5.3-3.1-5.3zm0-15h-6.1l-3.1 5.3 3.1 5.3h6.1l3.1-5.3-3.1-5.3zm-25.8 30.1h-6.1l-3.1 5.3 3.1 5.2h6.1l3-5.2-3-5.3zm0-15.1h-6.1l-3.1 5.3 3.1 5.3h6.1l3-5.3-3-5.3zm0-15h-6.1l-3.1 5.3 3.1 5.3h6.1l3-5.3-3-5.3zm-25.8 30.1h-6.1l-3.1 5.3 3.1 5.2h6.1l3-5.2-3-5.3zm0-15.1h-6.1l-3.1 5.3 3.1 5.3h6.1l3-5.3-3-5.3zm0-15h-6.1l-3.1 5.3 3.1 5.3h6.1l3-5.3-3-5.3zm-25.8 30.1h-6.2l-3 5.3 3 5.2h6.2l3-5.2-3-5.3zm0-15.1h-6.2l-3 5.3 3 5.3h6.2l3-5.3-3-5.3zm0-15h-6.2l-3 5.3 3 5.3h6.2l3-5.3-3-5.3zm-25.9 30.1h-6.1l-3 5.3 3 5.2h6.1l3.1-5.2-3.1-5.3zm0-15.1h-6.1l-3 5.3 3 5.3h6.1l3.1-5.3-3.1-5.3zm0-15h-6.1l-3 5.3 3 5.3h6.1l3.1-5.3-3.1-5.3zm-25.8 30.1h-6.1l-3.1 5.3 3.1 5.2h6.1l3.1-5.2-3.1-5.3zm0-15.1h-6.1l-3.1 5.3 3.1 5.3h6.1l3.1-5.3-3.1-5.3zm0-15h-6.1l-3.1 5.3 3.1 5.3h6.1l3.1-5.3-3.1-5.3zm-25.8 30.1h-6.1l-3.06 5.3 3.06 5.2h6.1l3.1-5.2-3.1-5.3zm0-15.1h-6.1l-3.06 5.3 3.06 5.3h6.1l3.1-5.3-3.1-5.3zm0-15h-6.1l-3.06 5.3 3.06 5.3h6.1l3.1-5.3-3.1-5.3zm-25.8 30.1h-6.1l-3.06 5.3 3.06 5.2h6.1l3.06-5.2-3.06-5.3zm0-15.1h-6.1l-3.06 5.3 3.06 5.3h6.1l3.06-5.3-3.06-5.3zm0-15h-6.1l-3.06 5.3 3.06 5.3h6.1l3.06-5.3-3.06-5.3zm-25.8 30.1h-6.12l-3.06 5.3 3.06 5.2h6.12l3.05-5.2-3.05-5.3zm0-15.1h-6.12l-3.06 5.3 3.06 5.3h6.12l3.05-5.3-3.05-5.3zm0-15h-6.12l-3.06 5.3 3.06 5.3h6.12l3.05-5.3-3.05-5.3zm-25.82 30.1h-6.1l-3.06 5.3 3.06 5.2h6.1l3.06-5.2-3.06-5.3zm0-15.1h-6.1l-3.06 5.3 3.06 5.3h6.1l3.06-5.3-3.06-5.3zm0-15h-6.1l-3.06 5.3 3.06 5.3h6.1l3.06-5.3-3.06-5.3zm-25.8 30.1h-6.12l-3.06 5.3 3.06 5.2h6.12l3.05-5.2-3.05-5.3zm0-15.1h-6.12l-3.06 5.3 3.06 5.3h6.12l3.05-5.3-3.05-5.3zm0-15h-6.12l-3.06 5.3 3.06 5.3h6.12l3.05-5.3-3.05-5.3zm761.55 22.5h-6.1l-3.1 5.3 3.1 5.3h6.1l3.1-5.3-3.1-5.3zm0-14.4h-6.1l-3.1 5.3 3.1 5.2h6.1l3.1-5.2-3.1-5.3zm-25.8 14.4h-6.1l-3.1 5.3 3.1 5.3h6.1l3-5.3-3-5.3zm0-14.4h-6.1l-3.1 5.3 3.1 5.2h6.1l3-5.2-3-5.3zm-25.8 14.4h-6.2l-3 5.3 3 5.3h6.2l3-5.3-3-5.3zm0-14.4h-6.2l-3 5.3 3 5.2h6.2l3-5.2-3-5.3zm-25.9 14.4h-6.1l-3 5.3 3 5.3h6.1l3.1-5.3-3.1-5.3zm0-14.4h-6.1l-3 5.3 3 5.2h6.1l3.1-5.2-3.1-5.3zm-25.8 14.4h-6.1l-3 5.3 3 5.3h6.1l3.1-5.3-3.1-5.3zm0-14.4h-6.1l-3 5.3 3 5.2h6.1l3.1-5.2-3.1-5.3zm-25.8 14.4h-6.1l-3.1 5.3 3.1 5.3h6.1l3.1-5.3-3.1-5.3zm0-14.4h-6.1l-3.1 5.3 3.1 5.2h6.1l3.1-5.2-3.1-5.3zm-25.8 14.4h-6.1l-3.1 5.3 3.1 5.3h6.1l3.1-5.3-3.1-5.3zm0-14.4h-6.1l-3.1 5.3 3.1 5.2h6.1l3.1-5.2-3.1-5.3zm-25.83 14.4h-6.1l-3.1 5.3 3.1 5.3h6.1l3-5.3-3-5.3zm0-14.4h-6.1l-3.1 5.3 3.1 5.2h6.1l3-5.2-3-5.3zm-25.8 14.4h-6.1l-3.1 5.3 3.1 5.3h6.1l3-5.3-3-5.3zm0-14.4h-6.1l-3.1 5.3 3.1 5.2h6.1l3-5.2-3-5.3zm-25.8 14.4h-6.2l-3 5.3 3 5.3h6.2l3-5.3-3-5.3zm0-14.4h-6.2l-3 5.3 3 5.2h6.2l3-5.2-3-5.3zm-25.9 14.4h-6.1l-3 5.3 3 5.3h6.1l3.1-5.3-3.1-5.3zm0-14.4h-6.1l-3 5.3 3 5.2h6.1l3.1-5.2-3.1-5.3zm-25.8 14.4h-6.1l-3 5.3 3 5.3h6.1l3.1-5.3-3.1-5.3zm0-14.4h-6.1l-3 5.3 3 5.2h6.1l3.1-5.2-3.1-5.3zm-25.8 14.4h-6.1l-3.1 5.3 3.1 5.3h6.1l3.1-5.3-3.1-5.3zm0-14.4h-6.1l-3.1 5.3 3.1 5.2h6.1l3.1-5.2-3.1-5.3zm-25.8 14.4h-6.1l-3.1 5.3 3.1 5.3h6.1l3.1-5.3-3.1-5.3zm0-14.4h-6.1l-3.1 5.3 3.1 5.2h6.1l3.1-5.2-3.1-5.3zm-25.8 14.4h-6.1l-3.1 5.3 3.1 5.3h6.1l3-5.3-3-5.3zm0-14.4h-6.1l-3.1 5.3 3.1 5.2h6.1l3-5.2-3-5.3zm-25.8 14.4h-6.2l-3 5.3 3 5.3h6.2l3-5.3-3-5.3zm0-14.4h-6.2l-3 5.3 3 5.2h6.2l3-5.2-3-5.3zm-25.8 14.4h-6.2l-3 5.3 3 5.3h6.2l3-5.3-3-5.3zm0-14.4h-6.2l-3 5.3 3 5.2h6.2l3-5.2-3-5.3zm-25.9 14.4h-6.1l-3 5.3 3 5.3h6.1l3.1-5.3-3.1-5.3zm0-14.4h-6.1l-3 5.3 3 5.2h6.1l3.1-5.2-3.1-5.3zm-25.8 14.4h-6.1l-3.1 5.3 3.1 5.3h6.1l3.1-5.3-3.1-5.3zm0-14.4h-6.1l-3.1 5.3 3.1 5.2h6.1l3.1-5.2-3.1-5.3zm-25.8 14.4h-6.1l-3.1 5.3 3.1 5.3h6.1l3.1-5.3-3.1-5.3zm0-14.4h-6.1l-3.1 5.3 3.1 5.2h6.1l3.1-5.2-3.1-5.3zm-25.8 14.4h-6.1l-3.1 5.3 3.1 5.3h6.1l3-5.3-3-5.3zm0-14.4h-6.1l-3.1 5.3 3.1 5.2h6.1l3-5.2-3-5.3zm-25.8 14.4h-6.1l-3.1 5.3 3.1 5.3h6.1l3-5.3-3-5.3zm0-14.4h-6.1l-3.1 5.3 3.1 5.2h6.1l3-5.2-3-5.3zm-25.8 14.4h-6.2l-3 5.3 3 5.3h6.2l3-5.3-3-5.3zm0-14.4h-6.2l-3 5.3 3 5.2h6.2l3-5.2-3-5.3zm-25.9 14.4h-6.1l-3 5.3 3 5.3h6.1l3.1-5.3-3.1-5.3zm0-14.4h-6.1l-3 5.3 3 5.2h6.1l3.1-5.2-3.1-5.3zm-25.8 14.4h-6.1l-3 5.3 3 5.3h6.1l3.1-5.3-3.1-5.3zm0-14.4h-6.1l-3 5.3 3 5.2h6.1l3.1-5.2-3.1-5.3zm-25.8 14.4h-6.1l-3.1 5.3 3.1 5.3h6.1l3.1-5.3-3.1-5.3zm0-14.4h-6.1l-3.1 5.3 3.1 5.2h6.1l3.1-5.2-3.1-5.3zm-25.8 14.4h-6.12l-3.05 5.3 3.05 5.3h6.12l3.06-5.3-3.06-5.3zm0-14.4h-6.12l-3.05 5.3 3.05 5.2h6.12l3.06-5.2-3.06-5.3zm-25.82 14.4h-6.1l-3.06 5.3 3.06 5.3h6.1l3.06-5.3-3.06-5.3zm0-14.4h-6.1l-3.06 5.3 3.06 5.2h6.1l3.06-5.2-3.06-5.3zm-25.8 14.4h-6.12l-3.05 5.3 3.05 5.3h6.12l3.06-5.3-3.06-5.3zm0-14.4h-6.12l-3.05 5.3 3.05 5.2h6.12l3.06-5.2-3.06-5.3zm-25.82 14.4h-6.1l-3.06 5.3 3.06 5.3h6.1l3.06-5.3-3.06-5.3zm0-14.4h-6.1l-3.06 5.3 3.06 5.2h6.1l3.06-5.2-3.06-5.3zm-38.73 22h-6.1l-3.06 5.3 3.06 5.2h6.1l3.06-5.2-3.06-5.3zm0-15.1h-6.1l-3.06 5.3 3.06 5.3h6.1l3.06-5.3-3.06-5.3zm0-15h-6.1l-3.06 5.3 3.06 5.3h6.1l3.06-5.3-3.06-5.3zm-25.8 30.1h-6.12l-3.06 5.3 3.06 5.2h6.12l3.05-5.2-3.05-5.3zm0-15.1h-6.12l-3.06 5.3 3.06 5.3h6.12l3.05-5.3-3.05-5.3zm0-15h-6.12l-3.06 5.3 3.06 5.3h6.12l3.05-5.3-3.05-5.3zm-25.82 30.1h-6.1l-3.06 5.3 3.06 5.2h6.1l3.06-5.2-3.06-5.3zm0-15.1h-6.1l-3.06 5.3 3.06 5.3h6.1l3.06-5.3-3.06-5.3zm0-15h-6.1l-3.06 5.3 3.06 5.3h6.1l3.06-5.3-3.06-5.3zm-25.8 30.1h-6.12l-3.06 5.3 3.06 5.2h6.12l3.05-5.2-3.05-5.3zm0-15.1h-6.12l-3.06 5.3 3.06 5.3h6.12l3.05-5.3-3.05-5.3zm0-15h-6.12l-3.06 5.3 3.06 5.3h6.12l3.05-5.3-3.05-5.3zm-25.82 30.1h-6.12l-3.05 5.3 3.05 5.2h6.12l3.06-5.2-3.06-5.3zm0-15.1h-6.12l-3.05 5.3 3.05 5.3h6.12l3.06-5.3-3.06-5.3zm0-15h-6.12l-3.05 5.3 3.05 5.3h6.12l3.06-5.3-3.06-5.3zm-25.8 30.1h-6.12l-3.06 5.3 3.06 5.2h6.12l3.05-5.2-3.05-5.3zm0-15.1h-6.12l-3.06 5.3 3.06 5.3h6.12l3.05-5.3-3.05-5.3zm0-15h-6.12l-3.06 5.3 3.06 5.3h6.12l3.05-5.3-3.05-5.3zm-25.82 30.1h-6.12l-3.05 5.3 3.05 5.2h6.12l3.06-5.2-3.06-5.3zm0-15.1h-6.12l-3.05 5.3 3.05 5.3h6.12l3.06-5.3-3.06-5.3zm0-15h-6.12l-3.05 5.3 3.05 5.3h6.12l3.06-5.3-3.06-5.3zm-25.8 30.1h-6.12l-3.06 5.3 3.06 5.2h6.12l3.05-5.2-3.05-5.3zm0-15.1h-6.12l-3.06 5.3 3.06 5.3h6.12l3.05-5.3-3.05-5.3zm0-15h-6.12l-3.06 5.3 3.06 5.3h6.12l3.05-5.3-3.05-5.3zm-25.82 30.1h-6.12l-3.05 5.3 3.05 5.2h6.12l3.06-5.2-3.06-5.3zm0-15.1h-6.12l-3.05 5.3 3.05 5.3h6.12l3.06-5.3-3.06-5.3zm0-15h-6.12l-3.05 5.3 3.05 5.3h6.12l3.06-5.3-3.06-5.3zm-25.8 30.1h-6.12l-3.06 5.3 3.06 5.2h6.07l3.05-5.2-3.05-5.3zm0-15.1h-6.12l-3.06 5.3 3.06 5.3h6.07l3.05-5.3-3.05-5.3zm0-15h-6.12l-3.06 5.3 3.06 5.3h6.07l3.05-5.3-3.05-5.3zm-25.82 30.1h-6.12l-3.05 5.3 3.05 5.2h6.12l3.06-5.2-3.06-5.3zm0-15.1h-6.12l-3.05 5.3 3.05 5.3h6.12l3.06-5.3-3.06-5.3zm0-15h-6.12l-3.05 5.3 3.05 5.3h6.12l3.06-5.3-3.06-5.3zm-25.82 30.1h-6.1l-3.06 5.3 3.06 5.2h6.1l3.06-5.2-3.06-5.3zm0-15.1h-6.1l-3.06 5.3 3.06 5.3h6.1l3.06-5.3-3.06-5.3zm0-15h-6.1l-3.06 5.3 3.06 5.3h6.1l3.06-5.3-3.06-5.3zm-25.8 30.1h-6.12l-3.05 5.3 3.05 5.2h6.12l3.06-5.2-3.06-5.3zm0-15.1h-6.12l-3.05 5.3 3.05 5.3h6.12l3.06-5.3-3.06-5.3zm0-15h-6.12l-3.05 5.3 3.05 5.3h6.12l3.06-5.3-3.06-5.3zm-25.82 30.1h-6.1l-3.06 5.3 3.06 5.2h6.1l3.06-5.2-3.06-5.3zm0-15.1h-6.1l-3.06 5.3 3.06 5.3h6.1l3.06-5.3-3.06-5.3zm0-15h-6.1l-3.06 5.3 3.06 5.3h6.1l3.06-5.3-3.06-5.3zm-25.8 30.1h-6.12l-3.05 5.3 3.05 5.2h6.12l3.06-5.2-3.06-5.3zm0-15.1h-6.12l-3.05 5.3 3.05 5.3h6.12l3.06-5.3-3.06-5.3zm0-15h-6.12l-3.05 5.3 3.05 5.3h6.12l3.06-5.3-3.06-5.3zm-25.82 30.1h-6.17l-3.06 5.3 3.06 5.2h6.1l3.06-5.2-3.06-5.3zm0-15.1h-6.17l-3.06 5.3 3.06 5.3h6.1l3.06-5.3-3.06-5.3zm0-15h-6.17l-3.06 5.3 3.06 5.3h6.1l3.06-5.3-3.06-5.3zm-25.8 30.1h-6.12l-3.05 5.3 3.05 5.2h6.12l3.06-5.2-3.06-5.3zm0-15.1h-6.12l-3.05 5.3 3.05 5.3h6.12l3.06-5.3-3.06-5.3zm0-15h-6.12l-3.05 5.3 3.05 5.3h6.12l3.06-5.3-3.06-5.3zm-25.82 30.1h-6.1l-3.06 5.3 3.06 5.2h6.1l3.06-5.2-3.06-5.3zm0-15.1h-6.1l-3.06 5.3 3.06 5.3h6.1l3.06-5.3-3.06-5.3zm0-15h-6.1l-3.06 5.3 3.06 5.3h6.1l3.06-5.3-3.06-5.3zm-25.8 30.1h-6.12l-3.05 5.3 3.05 5.2h6.12l3.06-5.2-3.06-5.3zm0-15.1h-6.12l-3.05 5.3 3.05 5.3h6.12l3.06-5.3-3.06-5.3zm0-15h-6.12l-3.05 5.3 3.05 5.3h6.12l3.06-5.3-3.06-5.3zm-25.82 30.1h-6.1l-3.06 5.3 3.06 5.2h6.1l3.06-5.2-3.06-5.3zm0-15.1h-6.1l-3.06 5.3 3.06 5.3h6.1l3.06-5.3-3.06-5.3zm0-15h-6.1l-3.06 5.3 3.06 5.3h6.1l3.06-5.3-3.06-5.3zm-25.8 30.1h-6.12l-3.06 5.3 3.06 5.2h6.12l3.06-5.2-3.06-5.3zm0-15.1h-6.12l-3.06 5.3 3.06 5.3h6.12l3.06-5.3-3.06-5.3zm0-15h-6.12l-3.06 5.3 3.06 5.3h6.12l3.06-5.3-3.06-5.3zm-25.82 30.1h-6.1l-3.06 5.3 3.06 5.2h6.1l3.06-5.2-3.06-5.3zm0-15.1h-6.1l-3.06 5.3 3.06 5.3h6.1l3.06-5.3-3.06-5.3zm0-15h-6.1l-3.06 5.3 3.06 5.3h6.1l3.06-5.3-3.06-5.3zm-25.8 30.1h-6.12l-3.06 5.3 3.06 5.2h6.12l3.06-5.2-3.06-5.3zm0-15.1h-6.12l-3.06 5.3 3.06 5.3h6.12l3.06-5.3-3.06-5.3zm0-15h-6.12l-3.06 5.3 3.06 5.3h6.12l3.06-5.3-3.06-5.3zm-25.82 30.1h-6.1l-3.06 5.3 3.06 5.2h6.1l3.06-5.2-3.06-5.3zm0-15.1h-6.1l-3.06 5.3 3.06 5.3h6.1l3.06-5.3-3.06-5.3zm0-15h-6.1l-3.06 5.3 3.06 5.3h6.1l3.06-5.3-3.06-5.3zm-25.8 30.1h-6.12l-3.06 5.3 3.06 5.2h6.12l3.06-5.2-3.06-5.3zm0-15.1h-6.12l-3.06 5.3 3.06 5.3h6.12l3.06-5.3-3.06-5.3zm0-15h-6.12l-3.06 5.3 3.06 5.3h6.12l3.06-5.3-3.06-5.3zm-25.82 30.1h-6.1l-3.06 5.3 3.06 5.2h6.1l3.06-5.2-3.06-5.3zm0-15.1h-6.1l-3.06 5.3 3.06 5.3h6.1l3.06-5.3-3.06-5.3zm0-15h-6.1l-3.06 5.3 3.06 5.3h6.1l3.06-5.3-3.06-5.3zm-25.8 30.1h-6.12l-3.06 5.3 3.06 5.2h6.12l3.06-5.2-3.06-5.3zm0-15.1h-6.12l-3.06 5.3 3.06 5.3h6.12l3.06-5.3-3.06-5.3zm0-15h-6.12l-3.06 5.3 3.06 5.3h6.12l3.06-5.3-3.06-5.3zm-25.82 30.1h-6.1l-3.06 5.3 3.06 5.2h6.1l3.06-5.2-3.06-5.3zm0-15.1h-6.1l-3.06 5.3 3.06 5.3h6.1l3.06-5.3-3.06-5.3zm0-15h-6.1l-3.06 5.3 3.06 5.3h6.1l3.06-5.3-3.06-5.3zm-25.8 30.1h-6.12l-3.06 5.3 3.06 5.2h6.12l3.06-5.2-3.06-5.3zm0-15.1h-6.12l-3.06 5.3 3.06 5.3h6.12l3.06-5.3-3.06-5.3zm0-15h-6.12l-3.06 5.3 3.06 5.3h6.12l3.06-5.3-3.06-5.3zm735.73 22.5h-6.12l-3.06 5.3 3.06 5.3h6.12l3.06-5.3-3.06-5.3zm0-14.4h-6.12l-3.06 5.3 3.06 5.2h6.12l3.06-5.2-3.06-5.3zm-25.82 14.4h-6.1l-3.06 5.3 3.06 5.3h6.1l3.06-5.3-3.06-5.3zm0-14.4h-6.1l-3.06 5.3 3.06 5.2h6.1l3.06-5.2-3.06-5.3zm-25.8 14.4h-6.12l-3.06 5.3 3.06 5.3h6.12l3.06-5.3-3.06-5.3zm0-14.4h-6.12l-3.06 5.3 3.06 5.2h6.12l3.06-5.2-3.06-5.3zm-25.96 14.4h-6.1l-3.06 5.3 3.06 5.3h6.1l3.06-5.3-3.06-5.3zm0-14.4h-6.1l-3.06 5.3 3.06 5.2h6.1l3.06-5.2-3.06-5.3zm-25.8 14.4h-6.12l-3.06 5.3 3.06 5.3h6.12l3.06-5.3-3.06-5.3zm0-14.4h-6.12l-3.06 5.3 3.06 5.2h6.12l3.06-5.2-3.06-5.3zm-25.82 14.4h-6.1l-3.06 5.3 3.06 5.3h6.1l3.06-5.3-3.06-5.3zm0-14.4h-6.1l-3.06 5.3 3.06 5.2h6.1l3.06-5.2-3.06-5.3zm-25.8 14.4h-6.12l-3.06 5.3 3.06 5.3h6.12l3.06-5.3-3.06-5.3zm0-14.4h-6.12l-3.06 5.3 3.06 5.2h6.12l3.06-5.2-3.06-5.3zm-25.82 14.4h-6.1l-3.06 5.3 3.06 5.3h6.1l3.06-5.3-3.06-5.3zm0-14.4h-6.1l-3.06 5.3 3.06 5.2h6.1l3.06-5.2-3.06-5.3zm-25.8 14.4h-6.12l-3.06 5.3 3.06 5.3h6.12l3.06-5.3-3.06-5.3zm0-14.4h-6.12l-3.06 5.3 3.06 5.2h6.12l3.06-5.2-3.06-5.3zm-25.86 14.4h-6.1l-3.06 5.3 3.06 5.3h6.1l3.06-5.3-3.06-5.3zm0-14.4h-6.1l-3.06 5.3 3.06 5.2h6.1l3.06-5.2-3.06-5.3zm-25.8 14.4H621l-3.06 5.3 3.06 5.3h6.12l3.06-5.3-3.06-5.3zm0-14.4H621l-3.06 5.3 3.06 5.2h6.12l3.06-5.2-3.06-5.3zm-25.82 14.4h-6.1l-3.06 5.3 3.06 5.3h6.1l3.06-5.3-3.06-5.3zm0-14.4h-6.1l-3.06 5.3 3.06 5.2h6.1l3.06-5.2-3.06-5.3zm-25.8 14.4h-6.12l-3.06 5.3 3.06 5.3h6.12l3.06-5.3-3.06-5.3zm0-14.4h-6.12l-3.06 5.3 3.06 5.2h6.12l3.06-5.2-3.06-5.3zm-25.82 14.4h-6.1l-3.06 5.3 3.06 5.3h6.1l3.06-5.3-3.06-5.3zm0-14.4h-6.1l-3.06 5.3 3.06 5.2h6.1l3.06-5.2-3.06-5.3zm-25.8 14.4h-6.12l-3.06 5.3 3.06 5.3h6.12l3.06-5.3-3.06-5.3zm0-14.4h-6.12l-3.06 5.3 3.06 5.2h6.12l3.06-5.2-3.06-5.3zm-25.86 14.4h-6.1l-3.06 5.3 3.06 5.3h6.1l3.06-5.3-3.06-5.3zm0-14.4h-6.1l-3.06 5.3 3.06 5.2h6.1l3.06-5.2-3.06-5.3zm-25.8 14.4h-6.12l-3.06 5.3 3.06 5.3h6.12l3.05-5.3-3.05-5.3zm0-14.4h-6.12l-3.06 5.3 3.06 5.2h6.12l3.05-5.2-3.05-5.3zm-25.82 14.4h-6.1l-3.06 5.3 3.06 5.3h6.1l3.06-5.3-3.06-5.3zm0-14.4h-6.1l-3.06 5.3 3.06 5.2h6.1l3.06-5.2-3.06-5.3zm-25.8 14.4h-6.12l-3.06 5.3 3.06 5.3h6.12l3.05-5.3-3.05-5.3zm0-14.4h-6.12l-3.06 5.3 3.06 5.2h6.12l3.05-5.2-3.05-5.3zm-25.82 14.4h-6.1l-3.06 5.3 3.06 5.3h6.1l3.06-5.3-3.06-5.3zm0-14.4h-6.1l-3.06 5.3 3.06 5.2h6.1l3.06-5.2-3.06-5.3zm-25.8 14.4h-6.12l-3.06 5.3 3.06 5.3h6.12l3.05-5.3-3.05-5.3zm0-14.4h-6.12l-3.06 5.3 3.06 5.2h6.12l3.05-5.2-3.05-5.3zm-25.82 14.4h-6.14l-3.06 5.3 3.06 5.3h6.1l3.06-5.3-3.06-5.3zm0-14.4h-6.14l-3.06 5.3 3.06 5.2h6.1l3.06-5.2-3.06-5.3zm-25.8 14.4h-6.12l-3.06 5.3 3.06 5.3h6.12l3.05-5.3-3.05-5.3zm0-14.4h-6.12l-3.06 5.3 3.06 5.2h6.12l3.05-5.2-3.05-5.3zm-25.84 14.4h-6.1l-3.06 5.3 3.06 5.3h6.1l3.06-5.3-3.06-5.3zm0-14.4h-6.1l-3.06 5.3 3.06 5.2h6.1l3.06-5.2-3.06-5.3zm-25.8 14.4h-6.12l-3.06 5.3 3.06 5.3h6.12l3.05-5.3-3.05-5.3zm0-14.4h-6.12l-3.06 5.3 3.06 5.2h6.12l3.05-5.2-3.05-5.3zm-25.82 14.4h-6.12l-3.05 5.3 3.05 5.3h6.12l3.06-5.3-3.06-5.3zm0-14.4h-6.12l-3.05 5.3 3.05 5.2h6.12l3.06-5.2-3.06-5.3zm-25.8 14.4h-6.12l-3.06 5.3 3.06 5.3h6.12l3.05-5.3-3.05-5.3zm0-14.4h-6.12l-3.06 5.3 3.06 5.2h6.12l3.05-5.2-3.05-5.3zm-25.82 14.4h-6.12l-3.05 5.3 3.05 5.3h6.12l3.06-5.3-3.06-5.3zm0-14.4h-6.12l-3.05 5.3 3.05 5.2h6.12l3.06-5.2-3.06-5.3zm-25.8 14.4h-6.12l-3.06 5.3 3.06 5.3h6.12l3.05-5.3-3.05-5.3zm0-14.4h-6.12l-3.06 5.3 3.06 5.2h6.12l3.05-5.2-3.05-5.3zm-25.86 14.4h-6.12l-3.05 5.3 3.05 5.3h6.12l3.06-5.3-3.06-5.3zm0-14.4h-6.12l-3.05 5.3 3.05 5.2h6.12l3.06-5.2-3.06-5.3z"/><use xlink:href="#S"/><path d="M824.929 76.229h-.02v.038h-.022v-.109h.042q.012 0 .022.004.009.004.014.013.005.008.005.019 0 .016-.011.025-.011.009-.03.009zm-.02-.052v.034h.02q.009 0 .014-.004.005-.004.005-.012 0-.008-.005-.013-.005-.005-.013-.005h-.021zm57.566.091h-.042v-.109h.038q.02 0 .03.008.01.008.01.022 0 .008-.004.014-.004.006-.011.009.008.002.013.008.005.006.005.016 0 .016-.01.024-.01.008-.029.008zm.001-.047h-.021v.029h.019q.008 0 .012-.004.004-.004.004-.01 0-.015-.015-.015zm-.021-.043v.027h.017q.017 0 .017-.014 0-.007-.004-.011-.004-.003-.014-.003h-.016zm115.897-.019h.022v.072q0 .018-.011.028-.011.01-.031.01-.019 0-.03-.01-.011-.01-.011-.028v-.072h.022v.072q0 .011.005.016.005.005.014.005.019 0 .019-.02v-.072z"/><use xlink:href="#S" x="289.61"/><path d="M162.153 46.304h2.051q-.116 1.606-1.186 2.529-1.07.923-2.82.923-1.914 0-3.011-1.289-1.097-1.289-1.097-3.538v-.608q0-1.436.506-2.529.506-1.094 1.446-1.678.94-.584 2.184-.584 1.723 0 2.775.923 1.053.923 1.217 2.591h-2.051q-.075-.964-.537-1.398-.461-.434-1.405-.434-1.025 0-1.535.735-.509.735-.523 2.28v.752q0 1.613.489 2.358.489.745 1.542.745.95 0 1.418-.434.468-.434.537-1.343zm5.353-4.08v7.396h-1.982v-7.396h1.982zm-2.099-1.914q0-.444.297-.731.297-.287.81-.287.506 0 .807.287.301.287.301.731 0 .451-.304.738-.304.287-.803.287-.499 0-.803-.287-.304-.287-.304-.738z"/><use xlink:href="#T"/><path d="M179.408 48.164q.547 0 .889-.301.342-.301.355-.8h1.853q-.007.752-.41 1.377-.403.625-1.104.971-.701.345-1.548.345-1.586 0-2.502-1.008-.916-1.008-.916-2.786v-.13q0-1.709.909-2.728.909-1.019 2.495-1.019 1.388 0 2.225.79.837.79.851 2.102h-1.853q-.014-.574-.355-.933-.342-.359-.902-.359-.69 0-1.042.502-.352.502-.352 1.63v.205q0 1.142.349 1.641.349.499 1.06.499zm3.916-2.222v-.089q0-1.101.424-1.962.424-.861 1.22-1.333.796-.472 1.849-.472 1.497 0 2.444.916.947.916 1.056 2.488l.014.506q0 1.702-.95 2.731-.95 1.029-2.55 1.029-1.6 0-2.553-1.025-.954-1.025-.954-2.789zm1.976.055q0 1.053.396 1.61.396.557 1.135.557.718 0 1.121-.55.403-.55.403-1.76 0-1.032-.403-1.6-.403-.567-1.135-.567-.725 0-1.121.564-.396.564-.396 1.747zm17.958-6.33v9.953h-2.051l-3.992-6.549v6.549h-2.051v-9.953h2.051l3.999 6.563v-6.562h2.044zm5.066 10.09q-1.627 0-2.649-.998-1.022-.998-1.022-2.659v-.191q0-1.114.431-1.993.431-.878 1.22-1.354.79-.475 1.801-.475 1.518 0 2.389.957.872.957.872 2.714v.807h-4.71q.096.725.578 1.162.482.438 1.22.438 1.142 0 1.784-.827l.971 1.087q-.444.629-1.203.981-.759.352-1.682.352zm-.226-6.07q-.588 0-.954.396-.366.396-.468 1.135h2.748v-.157q-.014-.656-.355-1.015-.342-.359-.971-.359zm5.988-1.463l1.217 2.208 1.244-2.208h2.112l-2.105 3.623 2.194 3.773h-2.119l-1.319-2.324-1.312 2.324h-2.126l2.194-3.773-2.099-3.623h2.119zm10.008 7.396l-.055-.752q-.731.889-2.023.889-1.189 0-1.815-.684-.625-.684-.639-2.003v-4.847h1.976v4.778q0 1.155 1.053 1.155 1.005 0 1.381-.697v-5.236h1.982v7.396h-1.859z"/><use xlink:href="#T" x="58.311"/><path d="M242.667 45.641q-.772.759-1.805.759-1.319 0-2.112-.906-.793-.906-.793-2.444 0-.978.427-1.794.427-.817 1.193-1.271.766-.455 1.723-.455.984 0 1.75.492.766.492 1.189 1.415.424.923.431 2.112v.731q0 2.488-1.237 3.91-1.237 1.422-3.507 1.518l-.485.007v-1.647l.438-.007q2.577-.116 2.789-2.42zm-1.319-.752q.479 0 .824-.246.345-.246.523-.595v-.813q0-1.005-.383-1.559-.383-.554-1.025-.554-.595 0-.978.543-.383.543-.383 1.364 0 .813.373 1.336.373.523 1.049.523zm6.596.226l-1.572-.39.574-5.059h5.578v1.647h-3.958l-.246 2.14q.704-.376 1.497-.376 1.422 0 2.229.882.807.882.807 2.468 0 .964-.407 1.726-.407.762-1.166 1.183-.759.42-1.791.42-.902 0-1.675-.366-.772-.366-1.22-1.029-.448-.663-.475-1.511h1.955q.062.622.434.967.373.345.974.345.67 0 1.032-.482.362-.482.362-1.364 0-.848-.417-1.299-.417-.451-1.183-.451-.704 0-1.142.369l-.191.178zm12.866-1.442v1.832q0 2.064-.854 3.158-.854 1.094-2.502 1.094-1.627 0-2.488-1.073-.861-1.073-.882-3.076v-1.832q0-2.085.865-3.165.865-1.08 2.492-1.08 1.627 0 2.488 1.07.861 1.07.882 3.073zm-1.976 2.188v-2.365q0-1.237-.338-1.801-.338-.564-1.056-.564-.697 0-1.029.537-.332.537-.352 1.678v2.42q0 1.217.332 1.808.332.591 1.063.591.725 0 1.046-.567.321-.567.335-1.736zm9.796-3.549q0 .725-.362 1.285-.362.561-.998.896.725.349 1.148.96.424.612.424 1.439 0 1.326-.902 2.095-.902.769-2.454.769-1.552 0-2.461-.772-.909-.772-.909-2.092 0-.827.424-1.442.424-.615 1.142-.957-.636-.335-.995-.896-.359-.561-.359-1.285 0-1.271.848-2.027.848-.755 2.304-.755 1.449 0 2.3.749.851.749.851 2.034zm-1.771 4.437q0-.649-.376-1.039-.376-.39-1.012-.39-.629 0-1.005.386-.376.386-.376 1.042 0 .636.369 1.025.369.39 1.025.39.643 0 1.008-.376.366-.376.366-1.039zm-.205-4.341q0-.581-.308-.933-.308-.352-.868-.352-.554 0-.861.342-.308.342-.308.943 0 .595.308.957.308.362.868.362.561 0 .865-.362.304-.362.304-.957z"/><use xlink:href="#U"/><path d="M748.367 65.119h1.758q-.1 1.377-1.017 2.168-.917.791-2.417.791-1.641 0-2.581-1.104-.94-1.104-.94-3.032v-.521q0-1.23.434-2.168.434-.937 1.239-1.438.806-.501 1.872-.501 1.477 0 2.379.791.902.791 1.043 2.221h-1.758q-.064-.826-.46-1.198-.396-.372-1.204-.372-.879 0-1.315.63-.437.63-.448 1.954v.645q0 1.383.419 2.021.419.639 1.321.639.814 0 1.216-.372.401-.372.46-1.151z"/><use xlink:href="#V"/><use xlink:href="#W"/><use xlink:href="#X"/><use xlink:href="#Y"/><use xlink:href="#Z"/><path d="M864.029 67.96l-.592-1.758h-3.082l-.586 1.758H857.9l3.176-8.531h1.629l3.193 8.531h-1.869zm-2.139-6.375l-1.061 3.193h2.133l-1.072-3.193z"/><use xlink:href="#U" x="130.924"/><path d="M912.484 59.429v8.531h-1.758v-8.531h1.758zm8.637 4.078v.381q0 1.26-.445 2.209-.445.949-1.274 1.465-.829.516-1.901.516-1.061 0-1.893-.51-.832-.51-1.289-1.456-.457-.946-.463-2.177v-.422q0-1.26.454-2.218.454-.958 1.283-1.471.829-.513 1.896-.513 1.066 0 1.896.513.829.513 1.283 1.471.454.958.454 2.212zm-1.781.41v-.416q0-1.342-.48-2.039-.48-.697-1.371-.697-.885 0-1.365.688-.48.688-.486 2.019v.416q0 1.307.48 2.027.48.721 1.383.721.885 0 1.359-.694.475-.694.48-2.024z"/><use xlink:href="#a"/><use xlink:href="#Y" x="158.725"/><use xlink:href="#W" x="181.741"/><use xlink:href="#X" x="181.741"/><use xlink:href="#Z" x="173.593"/><path d="M1037.622 67.96l-.592-1.758h-3.082l-.586 1.758h-1.869l3.176-8.531h1.629l3.193 8.531h-1.869zm-2.139-6.375l-1.061 3.193h2.133l-1.072-3.193z"/><use xlink:href="#V" x="289.006"/><use xlink:href="#Y" x="253.567"/><path d="M1076.081 59.429l1.4 6.07 1.148-6.07h1.752l-1.893 8.531h-1.77l-1.389-5.707-1.389 5.707h-1.77l-1.893-8.531h1.752l1.154 6.059 1.406-6.059h1.488zm10.007 8.531l-1.6-3.123h-1.4v3.123h-1.758v-8.531h3.17q1.512 0 2.332.674.82.674.82 1.904 0 .873-.378 1.456-.378.583-1.146.929l1.846 3.486v.082h-1.887zm-3-7.107v2.561h1.418q.662 0 1.025-.337.363-.337.363-.929 0-.604-.343-.949-.343-.346-1.052-.346h-1.412z"/><use xlink:href="#a" x="169.579"/><path d="M1109.239 63.478v3.404q-.475.568-1.342.882-.867.313-1.922.313-1.107 0-1.942-.483-.835-.483-1.289-1.403-.454-.92-.466-2.162v-.58q0-1.277.431-2.212.431-.935 1.242-1.43.812-.495 1.901-.495 1.518 0 2.373.724.855.724 1.014 2.106h-1.711q-.117-.732-.519-1.072-.401-.34-1.104-.34-.896 0-1.365.674-.469.674-.475 2.004v.545q0 1.342.51 2.027.51.686 1.494.686.99 0 1.412-.422v-1.471h-1.6v-1.295h3.357z"/><use xlink:href="#a" x="188.264"/><path d="M1127.426 59.429v1.424h-2.613v7.107h-1.758v-7.107h-2.578v-1.424h6.949z"/></g></g></symbol></svg>