<svg xmlns="http://www.w3.org/2000/svg" xmlns:xlink="http://www.w3.org/1999/xlink" viewBox="0 0 206 665" fill="#fff" fill-rule="evenodd" stroke="#000" stroke-linecap="round" stroke-linejoin="round" font-family="Roboto" font-size="14" text-anchor="middle"><style><![CDATA[.B{fill:#000}.C{stroke:none}.D{stroke-linejoin:miter}.E{stroke-width:1.2}.F{font-size:9.459px}.G{stroke:#595959}.H{fill:#7f7f7f}.I{stroke:#7f7f7f}.J{stroke-width:.27}.K{stroke-dasharray:1.6858 0.8429}.L{stroke-width:.843}.M{stroke-width:.809}]]></style><use xlink:href="#J" x=".5" y=".5"/><defs><linearGradient id="A" x1="0%" y1="50%" x2="100%" y2="50%"><stop offset="0%" stop-color="#595959"/><stop offset="100%" stop-color="#bfbfbf"/></linearGradient><linearGradient id="B" x1="100%" y1="50%" x2="0%" y2="50%"><stop offset="0%" stop-color="#595959"/><stop offset="100%" stop-color="#bfbfbf"/></linearGradient><linearGradient id="C" x1="0%" y1="50%" x2="100%" y2="50%"><stop offset="0%" stop-color="#595959"/><stop offset="100%" stop-color="#a5a5a5"/></linearGradient><linearGradient id="D" x1="100%" y1="50%" x2="0%" y2="50%"><stop offset="0%" stop-color="#a5a5a5"/><stop offset="1%" stop-color="#a5a5a5"/><stop offset="50%" stop-color="#595959"/><stop offset="100%" stop-color="#a5a5a5"/></linearGradient><linearGradient id="E" x1="100%" y1="50%" x2="0%" y2="50%"><stop offset="0%" stop-color="#595959"/><stop offset="100%" stop-color="#a5a5a5"/></linearGradient><linearGradient id="F" x1="50%" y1="0%" x2="50%" y2="100%"><stop offset="0%" stop-color="#fff"/><stop offset="70.7%" stop-color="#bfbfbf"/></linearGradient><radialGradient id="G" r="100%" fx="50%" fy="50%" cx="50%" cy="50%"><stop offset="0%" stop-color="#d0d0d0"/><stop offset="70.7%" stop-color="#bfbfbf"/></radialGradient><radialGradient id="H" r="100%" fx="50%" fy="50%" cx="50%" cy="50%"><stop offset="0%" stop-color="#9d9d9d"/><stop offset="100%" stop-color="#7f7f7f"/></radialGradient><radialGradient id="I" r="100%" fx="50%" fy="50%" cx="50%" cy="50%"><stop offset="0%" stop-color="#5c5c5c"/><stop offset="100%" stop-color="#3f3f3f"/></radialGradient></defs><symbol id="J" overflow="visible"><path d="M0 0h204.745v663.288H0z" fill="#595959" class="C"/><g class="E"><path d="M11.168 642.428h182.4v-621.6h-182.4v621.6z" class="B"/><path d="M13.702 642.378h123.12v12h42.6v-12h11.52v-621.6h-11.52v-12h-42.6v12H13.702v621.6z" fill="#bfbfbf" class="D"/></g><g transform="translate(13.702 20.828)"><path fill="url(#A)" d="M13.92 0H0v621.6h13.92" class="E"/></g><g class="E"><path fill="url(#B)" d="M177.125 20.828h13.92v621.6h-13.92"/><path d="M31.436 588.288h141.84v-510H31.436v510z" fill="#595959"/><g fill="#a5a5a5"><path d="M4.835 367.968h6.36v-72.24h-6.36v72.24z"/><path d="M36.514 264.118c-5.64 0-10.08-4.44-10.08-10.08V91.318c0-5.64 4.56-10.08 10.08-10.08h131.76c5.64 0 10.08 4.56 10.08 10.08v162.72c0 5.64-4.56 10.08-10.08 10.08h-22.8c-2.04 0-4.08-.6-6-1.8-8.4-6-19.8-6-28.32 0-1.68 1.2-3.6 1.8-6 1.8h-68.64zm163.44-197.04H4.834v228.72h101.52c1.68 0 3.24.6 4.44 1.8 8.322 7.848 21.318 7.848 29.64 0 1.2-1.2 2.76-1.8 4.44-1.8h55.2V67.078z" class="D"/></g></g><g transform="translate(4.834 67.068)"><path fill="url(#C)" d="M12.72 0H0v228.72h12.72" class="E"/></g><g class="E"><g fill="url(#D)"><path d="M4.835 67.034h6.36V.074h-6.36v66.96z"/><path d="M193.585 67.034h6.36V.074h-6.36v66.96z"/></g><g class="G"><circle cx="37.474" cy="44.309" fill="none" r="9.6"/><circle cx="37.424" cy="44.359" r="4.8" class="B D"/><circle cx="157.725" cy="38.935" fill="none" r="9.6"/><circle cx="157.675" cy="38.985" r="4.8" class="B D"/></g><path d="M129.428 4.453h-20.4c-2.76 0-5.04 2.4-5.04 5.04s-2.4 5.04-5.04 5.04h-11.4c-2.76 0-5.16-2.28-5.16-5.04s-2.16-5.04-4.8-5.04h-20.4v6.36h13.92c2.76 0 5.04 2.4 5.04 5.04s2.28 5.04 5.04 5.04h24c2.76 0 5.04-2.4 5.04-5.04s2.4-5.04 5.04-5.04h13.92v-6.36z" class="D H"/><g class="G"><circle cx="99.6" cy="38.935" fill="none" r="9.6"/><circle cx="99.55" cy="38.985" r="4.8" class="B D"/></g><path d="M189.435 38.909h3.6v-10.8c.24-3-2.16-5.52-5.04-6a2.4 2.4 0 0 1-2.4-2.4v-8.4a6 6 0 0 0-6-6h-42.72v3.6h42.6a2.4 2.4 0 0 1 2.4 2.4v8.4c0 3 2.16 5.52 5.04 6a2.4 2.4 0 0 1 2.4 2.4v10.8z" class="D H"/></g><g transform="translate(187.195 67.068)"><path fill="url(#E)" d="M0 0h12.72v228.72H0" class="E"/></g><g fill="#a5a5a5" class="E"><path d="M199.915 295.788h-6.36v71.76h6.36v-71.76z"/><path d="M168.235 399.168c5.64 0 10.08 4.44 10.08 10.08v162.72c0 5.64-4.56 10.08-10.08 10.08H36.475c-5.64 0-10.08-4.56-10.08-10.08v-162.72c0-5.64 4.56-10.08 10.08-10.08h22.8c2.04 0 4.08.6 6 1.8 8.4 6 19.8 6 28.32 0 1.68-1.2 3.6-1.8 6-1.8h68.64zM4.795 596.208h195.12v-228.72H98.395c-1.68 0-3.24-.6-4.44-1.8-8.321-7.848-21.318-7.848-29.64 0-1.2 1.2-2.76 1.8-4.44 1.8h-55.2v228.72z" class="D"/></g><g transform="translate(4.834 367.498)"><path fill="url(#C)" d="M12.72 0H0v228.72h12.72" class="E"/></g><g class="E"><g fill="url(#D)"><path d="M4.835 596.248h6.36v66.96h-6.36v-66.96z"/><path d="M193.585 596.248h6.36v66.96h-6.36v-66.96z"/></g><g class="G"><circle cx="157.725" cy="624.348" fill="none" r="9.6"/><circle cx="157.675" cy="624.298" r="4.8" class="B D"/></g><path d="M129.428 658.828h-20.4c-2.76 0-5.04-2.4-5.04-5.04s-2.4-5.04-5.04-5.04h-11.4c-2.76 0-5.16 2.28-5.16 5.04s-2.16 5.04-4.8 5.04h-20.4v-6.36h13.92c2.76 0 5.04-2.4 5.04-5.04s2.28-5.04 5.04-5.04h24c2.76 0 5.04 2.4 5.04 5.04s2.4 5.04 5.04 5.04h13.92v6.36z" class="D H"/><g class="G"><circle cx="99.6" cy="624.348" fill="none" r="9.6"/><circle cx="99.55" cy="624.298" r="4.8" class="B D"/></g><path d="M189.435 624.378h3.6v10.8c.24 3-2.16 5.52-5.04 6a2.4 2.4 0 0 0-2.4 2.4v8.4a6 6 0 0 1-6 6h-42.72v-3.6h42.6a2.4 2.4 0 0 0 2.4-2.4v-8.4c0-3 2.16-5.52 5.04-6a2.4 2.4 0 0 0 2.4-2.4v-10.8z" class="D H"/></g><g transform="translate(187.195 367.498)"><path fill="url(#E)" d="M0 0h12.72v228.72H0" class="E"/></g><g transform="translate(110.405 265.488)"><path d="M30.309 15.155C30.309 6.82 23.524 0 15.155 0S0 6.82 0 15.155s6.785 15.155 15.155 15.155 15.155-6.82 15.155-15.155z" fill="url(#F)" stroke="#9a9a9a" class="K L"/><g transform="translate(5.546 5.557)"><path d="M19.217 9.598A9.6 9.6 0 0 0 9.609 0 9.6 9.6 0 0 0 0 9.598a9.6 9.6 0 0 0 9.609 9.598 9.6 9.6 0 0 0 9.609-9.598z" fill="url(#G)" class="I M"/></g><g transform="matrix(.788011 -.615661 .615661 .788011 5.306775 12.286631)"><path d="M2.376 0l9.792 15.407c-.615.765-1.407 1.251-2.376 1.46L0 1.46C.615.695 1.407.209 2.376 0z" fill="url(#H)" stroke="#a5a5a5" class="J"/></g><g transform="translate(10.468 10.356)"><path d="M2.815 5.388L1.669 8.503c.927.421 1.922.842 2.908 1.095h0l1.121-3.115 2.84 1.01.843-2.273-2.84-1.01 1.146-3.115C6.76.673 5.765.252 4.779 0h0L3.658 3.115.843 2.105 0 4.378l2.815 1.01" fill="url(#I)" class="I J"/></g></g><g transform="translate(64.035 367.488)"><path d="M30.309 15.155C30.309 6.82 23.524 0 15.155 0S0 6.82 0 15.155s6.785 15.155 15.155 15.155 15.155-6.82 15.155-15.155z" fill="url(#F)" stroke="#9a9a9a" class="K L"/><g transform="translate(5.546 5.557)"><path d="M19.217 9.598A9.6 9.6 0 0 0 9.609 0 9.6 9.6 0 0 0 0 9.598a9.6 9.6 0 0 0 9.609 9.598 9.6 9.6 0 0 0 9.609-9.598z" fill="url(#G)" class="I M"/></g><g transform="matrix(.788011 -.615661 .615661 .788011 5.306775 12.286631)"><path d="M2.376 0l9.792 15.407c-.615.765-1.407 1.251-2.376 1.46L0 1.46C.615.695 1.407.209 2.376 0z" fill="url(#H)" stroke="#a5a5a5" class="J"/></g><g transform="translate(10.468 10.356)"><path d="M2.815 5.388L1.669 8.503c.927.421 1.922.842 2.908 1.095h0l1.121-3.115 2.84 1.01.843-2.273-2.84-1.01 1.146-3.115C6.76.673 5.765.252 4.779 0h0L3.658 3.115.843 2.105 0 4.378l2.815 1.01" fill="url(#I)" class="I J"/></g></g></symbol></svg>