<svg xmlns="http://www.w3.org/2000/svg" xmlns:xlink="http://www.w3.org/1999/xlink" viewBox="0 0 2281.2 206.1" fill="#fff" fill-rule="evenodd" stroke="#000" stroke-linecap="round" stroke-linejoin="round" font-family="Roboto" font-size="14" text-anchor="middle"><style><![CDATA[.B{stroke:none}.C{stroke-width:1.2}.D{fill:#000}.E{stroke-linejoin:miter}.F{fill:none}.G{stroke:gray}.H{stroke:#ddd}.I{fill:#548bd4}.J{font-size:13.899px}.K{fill:#285ea6}.L{fill:url(#M)}.M{stroke:#404040}.N{stroke-width:2.04}.O{fill:#262626}.P{stroke-width:.36}.Q{fill:url(#T)}.R{fill:url(#U)}.S{fill:#c1c5cb}.T{fill:url(#H)}.U{stroke-width:3.6}.V{fill-rule:nonzero}.W{fill:#22508e}.X{fill:#404040}.Y{fill:url(#F)}.Z{font-size:17.499px}.a{fill:#b2b2b2}.b{fill:#ddd}.c{fill:url(#J)}.d{fill:url(#K)}.e{fill:#595959}.f{fill-opacity:0}.g{stroke:#5f5f5f}.h{stroke-width:.399}.i{fill:url(#A)}.j{stroke:#737373}.k{stroke-width:.967}.l{fill:#d9d9d9}.m{stroke:#595959}.n{fill:url(#L)}.o{fill:url(#N)}.p{stroke:#262626}.q{fill:url(#B)}.r{stroke-width:9.96}.s{stroke-linecap:square}]]></style><use xlink:href="#AG" x=".6" y=".5"/><defs><linearGradient id="A" x1="100%" y1="50%" x2="0%" y2="50%"><stop offset="0%" stop-color="#737373"/><stop offset="100%" stop-color="#c1c5cb"/></linearGradient><linearGradient id="B" x1="0%" y1="50%" x2="100%" y2="50%"><stop offset="0%" stop-color="#737373"/><stop offset="100%" stop-color="#c1c5cb"/></linearGradient><linearGradient id="C" x1="0%" y1="50%" x2="100%" y2="50%"><stop offset="0%" stop-color="#737373"/><stop offset="1%" stop-color="#737373"/><stop offset="50%" stop-color="#c1c5cb"/><stop offset="100%" stop-color="#737373"/></linearGradient><radialGradient id="D" r="100%" fx="50%" fy="50%" cx="50%" cy="50%"><stop offset="0%" stop-color="#f2872f"/><stop offset="71%" stop-color="#d9680d"/></radialGradient><radialGradient id="E" r="100%" fx="50%" fy="50%" cx="50%" cy="50%"><stop offset="0%" stop-color="#46c146"/><stop offset="71%" stop-color="#393"/></radialGradient><linearGradient id="F" x1="50%" y1="100%" x2="50%" y2="0%"><stop offset="0%" stop-color="#7f7f7f"/><stop offset="100%" stop-color="#c1c5cb"/></linearGradient><linearGradient id="G" x1="100%" y1="50%" x2="0%" y2="50%"><stop offset="0%" stop-color="#7f7f7f"/><stop offset="100%" stop-color="#c1c5cb"/></linearGradient><radialGradient id="H" r="100%" fx="50%" fy="50%" cx="50%" cy="50%"><stop offset="0%" stop-color="#fff"/><stop offset="71%" stop-color="#b2b2b2"/></radialGradient><linearGradient id="I" x1="0%" y1="50%" x2="100%" y2="50%"><stop offset="0%" stop-color="#262626"/><stop offset="1%" stop-color="#262626"/><stop offset="50%" stop-color="#444"/><stop offset="100%" stop-color="#262626"/></linearGradient><linearGradient id="J" x1="0%" y1="50%" x2="100%" y2="50%"><stop offset="0%" stop-color="#285ea6"/><stop offset="1%" stop-color="#285ea6"/><stop offset="50%" stop-color="#3a7acf"/><stop offset="100%" stop-color="#285ea6"/></linearGradient><linearGradient id="K" x1="50%" y1="0%" x2="50%" y2="100%"><stop offset="0%" stop-color="#4d4d4d"/><stop offset="1%" stop-color="#4d4d4d"/><stop offset="50%" stop-color="#fff"/><stop offset="100%" stop-color="#4d4d4d"/></linearGradient><radialGradient id="L" r="100%" fx="50%" fy="50%" cx="50%" cy="50%"><stop offset="0%" stop-color="#777"/><stop offset="71%" stop-color="#595959"/></radialGradient><linearGradient id="M" x1="0%" y1="50%" x2="100%" y2="50%"><stop offset="0%" stop-color="#285ea6"/><stop offset="1%" stop-color="#285ea6"/><stop offset="50%" stop-color="#3a7acf"/><stop offset="100%" stop-color="#285ea6"/></linearGradient><radialGradient id="N" r="100%" fx="50%" fy="50%" cx="50%" cy="50%"><stop offset="0%" stop-color="#737373"/><stop offset="71%" stop-color="#404040"/></radialGradient><linearGradient id="O" x1="50%" y1="0%" x2="50%" y2="100%"><stop offset="0%" stop-color="#737373"/><stop offset="100%" stop-color="#c1c5cb"/></linearGradient><radialGradient id="P" r="100%" fx="50%" fy="50%" cx="50%" cy="50%"><stop offset="0%" stop-color="gray"/><stop offset="71%" stop-color="#262626"/></radialGradient><radialGradient id="Q" r="100%" fx="50%" fy="50%" cx="50%" cy="50%"><stop offset="0%" stop-color="#b3b3b3"/><stop offset="100%" stop-color="#333"/></radialGradient><linearGradient id="R" x1="50%" y1="0%" x2="50%" y2="100%"><stop offset="0%" stop-color="#fff"/><stop offset="1%" stop-color="#fff"/><stop offset="50%" stop-color="#9a9a9a"/><stop offset="100%" stop-color="#fff"/></linearGradient><radialGradient id="S" r="100%" fx="50%" fy="50%" cx="50%" cy="50%"><stop offset="0%" stop-color="#1e1e1e"/><stop offset="71%" stop-color="#7f7f7f"/></radialGradient><linearGradient id="T" x1="50%" y1="0%" x2="50%" y2="100%"><stop offset="0%" stop-color="#99732d"/><stop offset="1%" stop-color="#99732d"/><stop offset="50%" stop-color="#6b511f"/><stop offset="100%" stop-color="#99732d"/></linearGradient><linearGradient id="U" x1="50%" y1="0%" x2="50%" y2="100%"><stop offset="0%" stop-color="#3c2d11"/><stop offset="1%" stop-color="#3c2d11"/><stop offset="50%" stop-color="#765923"/><stop offset="100%" stop-color="#3c2d11"/></linearGradient><path id="V" d="M0 185.491h51.118v-1.919c.6-1.919 1.92-2.399 3.12-1.919 1.44 1.559 1.44 1.679 1.44 1.919 0 1.2.84 1.919 2.04 1.919h159.594l1.2-1.919c.72-1.919 2.16-2.399 3.24-1.919l1.44 3.839h212.032v-16.794h6V15.388h-4.08c-1.2 0-1.8-.84-1.8-1.799a1.85 1.85 0 0 0-1.8-1.799h-9.96c-1.92 0-3.6-1.2-4.44-2.759l-.36-.72c-.6-1.2-1.92-2.039-3.36-2.039h-2.4V.273L7.2.753C3.12.753 0 3.992 0 7.95v177.54z"/><path id="W" d="M194.527 152.32c.939.955 1.172 2.369.814 3.55h-.121c-32.204 28.989-81.401 28.989-113.606 0-.358-1.181-.126-2.596.814-3.55l.031-.031 18.09-18.142c1.447-1.194 3.377-1.432 4.824-.239 19.364 15.298 46.846 15.298 66.21 0 1.568-1.194 3.618-.955 4.824.239zm-.16-120.135c.939-.955 1.172-2.369.814-3.55h-.121c-32.204-28.989-81.401-28.989-113.606 0-.358 1.181-.126 2.596.814 3.55l.031.031 18.09 18.142c1.447 1.194 3.377 1.432 4.824.239 19.364-15.298 46.846-15.298 66.21 0 1.568 1.194 3.618.955 4.824-.239zm4.246 4.098c.96-.934 2.382-1.166 3.569-.809v.12c29.144 32.033 29.144 80.969 0 113.002-1.187.356-2.609.125-3.569-.809l-.031-.03-18.239-17.994c-1.2-1.44-1.44-3.359-.24-4.798 15.379-19.261 15.379-46.597 0-65.858-1.2-1.56-.96-3.599.24-4.798zm-120.777.159c-.96-.934-2.382-1.166-3.569-.809v.12c-29.144 32.033-29.144 80.969 0 113.002 1.187.356 2.609.125 3.569-.809l.031-.03 18.239-17.994c1.2-1.44 1.44-3.359.24-4.798-15.379-19.261-15.379-46.597 0-65.858 1.2-1.56.96-3.599-.24-4.798z"/><path id="X" d="M5.312 112.002l11.402-7.577v12.716l12.66-9.512m.18 2.074c0-6.718-5.52-11.996-12.24-11.996s-12.24 5.278-12.24 11.996 5.52 11.996 12.24 11.996 12.24-5.398 12.24-11.996z"/><path id="Y" d="M4.2 47.784h28.559a2.4 2.4 0 0 0 2.4-2.399L20.399 19.474a2.4 2.4 0 0 0-3.24-.84L2.04 44.186a2.4 2.4 0 0 0 .84 3.239z"/><path id="Z" d="M180.018 92.029c0-23.992-18.599-41.266-41.638-41.266S96.621 69.237 96.621 92.029s18.599 41.266 41.638 41.266 41.638-18.474 41.638-41.266z"/><path id="a" d="M300.551 26.669v129.196c0 4.079 3.36 7.557 7.44 7.557h92.156c4.2 0 7.44-3.359 7.44-7.437V26.669c-.24-4.199-3.48-7.557-7.44-7.557h-91.916c-4.32 0-7.68 3.359-7.68 7.557z"/><path id="b" d="M315.338 50.718v80.853a17.99 17.99 0 0 0 5.272 12.724 18 18 0 0 0 12.727 5.27h21.599a18 18 0 0 0 11.999-4.678l19.799-17.754a17.99 17.99 0 0 0 6-13.316V68.592a17.99 17.99 0 0 0-6-13.316l-19.799-17.754a18 18 0 0 0-11.999-4.678h-21.599a18 18 0 0 0-17.999 17.994z"/><path id="c" d="M333.399 59.696v7.557l14.639.12.12-7.677-14.639-.12z"/><path id="d" d="M336.987 62.07v2.879l7.56.12.12-2.999-7.56-.12z"/><path id="e" d="M435.1 182.339v3.239h4.56c2.4-.12 4.8-2.039 4.8-4.798V15.235c-.12-3.599-2.88-6.478-6.48-6.838h-13.919a2.44 2.44 0 0 1-2.4-1.2l-2.76-4.798a4.84 4.84 0 0 0-4.2-2.399h-1.68v3.119h1.8l1.44.72 2.76 4.798c.96 1.919 3 2.999 5.04 2.759h13.799a3.6 3.6 0 0 1 3.24 3.599v165.184l-6 1.799z"/><path id="f" d="M19.814 29.962l-.291 8.619h-2.051l-.291-8.619h2.632zm-1.316 9.969q.624 0 1.004.367.38.367.38.94 0 .564-.38.931-.38.367-1.004.367-.615 0-.995-.367-.38-.367-.38-.931 0-.564.38-.935.38-.372.995-.372z"/><path id="g" d="M111.55 86.173h.375v1.859h-.219q-1.531.023-2.465.797-.934.773-1.121 2.148.906-.922 2.289-.922 1.484 0 2.359 1.062.875 1.062.875 2.796 0 1.109-.48 2.007-.48.898-1.359 1.398-.879.5-1.988.5-1.797 0-2.902-1.25-1.105-1.25-1.105-3.335v-.812q0-1.851.699-3.268.699-1.417 2.008-2.194 1.309-.777 3.035-.785zm-1.828 5.693q-.547 0-.992.285-.445.285-.656.754v.687q0 1.132.445 1.769.445.636 1.25.636.727 0 1.176-.574.449-.574.449-1.488 0-.929-.453-1.499-.453-.57-1.219-.57z"/><path id="h" d="M117.113 92.514l-1.797-.445.656-5.779h6.375v1.882h-4.523l-.281 2.444q.805-.43 1.711-.43 1.625 0 2.547 1.007.922 1.007.922 2.819 0 1.101-.465 1.972-.465.871-1.332 1.351-.867.48-2.047.48-1.031 0-1.914-.418-.883-.418-1.395-1.175-.512-.758-.543-1.726h2.234q.07.711.496 1.105.426.394 1.113.394.766 0 1.18-.551.414-.551.414-1.558 0-.968-.477-1.484-.477-.515-1.352-.515-.805 0-1.305.422l-.219.203z"/><path id="i" d="M131.815 90.867v2.093q0 2.358-.977 3.608-.977 1.25-2.859 1.25-1.859 0-2.844-1.226-.984-1.226-1.008-3.514v-2.093q0-2.382.988-3.616.988-1.234 2.848-1.234 1.859 0 2.844 1.222.984 1.222 1.008 3.51zm-2.258 2.499v-2.702q0-1.414-.387-2.058-.387-.644-1.207-.644-.797 0-1.176.613-.379.613-.402 1.917v2.765q0 1.39.379 2.066.379.676 1.215.676.828 0 1.195-.648.367-.648.383-1.984z"/><path id="j" d="M140.573 86.29l1.867 8.091 1.531-8.091h2.336l-2.523 11.371h-2.359l-1.852-7.607-1.852 7.607h-2.359l-2.523-11.371h2.336l1.539 8.075 1.875-8.075h1.984z"/><path id="k" d="M158.769 97.661l-.789-2.343h-4.109l-.781 2.343h-2.492l4.234-11.371h2.172l4.258 11.371h-2.492zm-2.852-8.497l-1.414 4.256h2.844l-1.43-4.256z"/><path id="l" d="M168.746 93.873h2.344q-.133 1.835-1.355 2.89-1.223 1.054-3.223 1.054-2.187 0-3.441-1.472-1.254-1.472-1.254-4.041v-.695q0-1.64.578-2.89.578-1.25 1.652-1.917 1.074-.668 2.496-.668 1.969 0 3.172 1.054 1.203 1.054 1.391 2.96h-2.344q-.086-1.101-.613-1.597-.527-.496-1.605-.496-1.172 0-1.754.84-.582.84-.598 2.604v.859q0 1.843.559 2.694.559.851 1.762.851 1.086 0 1.621-.496.535-.496.613-1.535z"/><path id="m" d="M.913 189.24h185.64V0H.913v189.24z"/><path id="n" d="M37.357 184.677l8.88-5.16v-10.44l-8.88-5.16-8.88 5.16v10.44l8.88 5.16zm22.55 0l8.88-5.16v-10.44l-8.88-5.16-8.88 5.16v10.44l8.88 5.16zm90.187 0l8.88-5.16v-10.44l-8.88-5.16-8.88 5.16v10.44l8.88 5.16zm-22.55 0l8.88-5.16v-10.44l-8.88-5.16-8.88 5.16v10.44l8.88 5.16zm-22.55 0l8.88-5.16v-10.44l-8.88-5.16-8.88 5.16v10.44l8.88 5.16zm-22.55 0l8.88-5.16v-10.44l-8.88-5.16-8.88 5.16v10.44l8.88 5.16zm-56.363-19.912l8.88-5.16v-10.44l-8.88-5.16-8.88 5.16v10.44l8.88 5.16zm22.55 0l8.88-5.16v-10.44l-8.88-5.16-8.88 5.16v10.44l8.88 5.16zm112.738 0l8.88-5.16v-10.44l-8.88-5.16-8.88 5.16v10.44l8.88 5.16zm-22.55 0l8.88-5.16v-10.44l-8.88-5.16-8.88 5.16v10.44l8.88 5.16zm-22.55 0l8.88-5.16v-10.44l-8.88-5.16-8.88 5.16v10.44l8.88 5.16zm-22.55 0l8.88-5.16v-10.44l-8.88-5.16-8.88 5.16v10.44l8.88 5.16zm-22.55 0l8.88-5.16v-10.44l-8.88-5.16-8.88 5.16v10.44l8.88 5.16zm-33.813-19.9l8.88-5.16v-10.44l-8.88-5.16-8.88 5.16v10.44l8.88 5.16zm22.55 0l8.88-5.16v-10.44l-8.88-5.16-8.88 5.16v10.44l8.88 5.16zm90.187 0l8.88-5.16v-10.44l-8.88-5.16-8.88 5.16v10.44l8.88 5.16zm-22.55 0l8.88-5.16v-10.44l-8.88-5.16-8.88 5.16v10.44l8.88 5.16zm-22.55 0l8.88-5.16v-10.44l-8.88-5.16-8.88 5.16v10.44l8.88 5.16zm-22.55 0l8.88-5.16v-10.44l-8.88-5.16-8.88 5.16v10.44l8.88 5.16zm-56.363-19.912l8.88-5.16v-10.44l-8.88-5.16-8.88 5.16v10.44l8.88 5.16zm22.55 0l8.88-5.16v-10.44l-8.88-5.16-8.88 5.16v10.44l8.88 5.16zm112.738 0l8.88-5.16v-10.44l-8.88-5.16-8.88 5.16v10.44l8.88 5.16zm-22.55 0l8.88-5.16v-10.44l-8.88-5.16-8.88 5.16v10.44l8.88 5.16zm-22.55 0l8.88-5.16v-10.44l-8.88-5.16-8.88 5.16v10.44l8.88 5.16zm-22.55 0l8.88-5.16v-10.44l-8.88-5.16-8.88 5.16v10.44l8.88 5.16zm-22.55 0l8.88-5.16v-10.44l-8.88-5.16-8.88 5.16v10.44l8.88 5.16zm-33.813-19.914l8.88-5.16v-10.44l-8.88-5.16-8.88 5.16v10.44l8.88 5.16zm22.55 0l8.88-5.16v-10.44l-8.88-5.16-8.88 5.16v10.44l8.88 5.16zm90.187 0l8.88-5.16v-10.44l-8.88-5.16-8.88 5.16v10.44l8.88 5.16zm-22.55 0l8.88-5.16v-10.44l-8.88-5.16-8.88 5.16v10.44l8.88 5.16zm-22.55 0l8.88-5.16v-10.44l-8.88-5.16-8.88 5.16v10.44l8.88 5.16zm-22.55 0l8.88-5.16v-10.44l-8.88-5.16-8.88 5.16v10.44l8.88 5.16zm-56.363-19.91l8.88-5.16v-10.44l-8.88-5.16-8.88 5.16v10.44l8.88 5.16zm22.55 0l8.88-5.16v-10.44l-8.88-5.16-8.88 5.16v10.44l8.88 5.16zm112.738 0l8.88-5.16v-10.44l-8.88-5.16-8.88 5.16v10.44l8.88 5.16zm-22.55 0l8.88-5.16v-10.44l-8.88-5.16-8.88 5.16v10.44l8.88 5.16zm-22.55 0l8.88-5.16v-10.44l-8.88-5.16-8.88 5.16v10.44l8.88 5.16zm-22.55 0l8.88-5.16v-10.44l-8.88-5.16-8.88 5.16v10.44l8.88 5.16zm-22.55 0l8.88-5.16v-10.44l-8.88-5.16-8.88 5.16v10.44l8.88 5.16zm-33.813-19.91l8.88-5.16v-10.44l-8.88-5.16-8.88 5.16v10.44l8.88 5.16zm22.55 0l8.88-5.16v-10.44l-8.88-5.16-8.88 5.16v10.44l8.88 5.16zm90.187 0l8.88-5.16v-10.44l-8.88-5.16-8.88 5.16v10.44l8.88 5.16zm-22.55 0l8.88-5.16v-10.44l-8.88-5.16-8.88 5.16v10.44l8.88 5.16zm-22.55 0l8.88-5.16v-10.44l-8.88-5.16-8.88 5.16v10.44l8.88 5.16zm-22.55 0l8.88-5.16v-10.44l-8.88-5.16-8.88 5.16v10.44l8.88 5.16zM37.357 25.397l8.88-5.16V9.797l-8.88-5.16-8.88 5.16v10.44l8.88 5.16zm22.55 0l8.88-5.16V9.797l-8.88-5.16-8.88 5.16v10.44l8.88 5.16zm90.187 0l8.88-5.16V9.797l-8.88-5.16-8.88 5.16v10.44l8.88 5.16zm-22.55 0l8.88-5.16V9.797l-8.88-5.16-8.88 5.16v10.44l8.88 5.16zm-22.55 0l8.88-5.16V9.797l-8.88-5.16-8.88 5.16v10.44l8.88 5.16zm-22.55 0l8.88-5.16V9.797l-8.88-5.16-8.88 5.16v10.44l8.88 5.16zM26.082 45.308l8.88-5.16v-10.44l-8.88-5.16-8.88 5.16v10.44l8.88 5.16zm22.55 0l8.88-5.16v-10.44l-8.88-5.16-8.88 5.16v10.44l8.88 5.16zm112.738 0l8.88-5.16v-10.44l-8.88-5.16-8.88 5.16v10.44l8.88 5.16zm-22.55 0l8.88-5.16v-10.44l-8.88-5.16-8.88 5.16v10.44l8.88 5.16zm-22.55 0l8.88-5.16v-10.44l-8.88-5.16-8.88 5.16v10.44l8.88 5.16zm-22.55 0l8.88-5.16v-10.44l-8.88-5.16-8.88 5.16v10.44l8.88 5.16zm-22.55 0l8.88-5.16v-10.44l-8.88-5.16-8.88 5.16v10.44l8.88 5.16z"/><path id="o" d="M47.938 11.204h-36v36.72a94.8 94.8 0 0 1 36-36.72z"/><path id="p" d="M175.55 47.924v-36.72h-36a94.8 94.8 0 0 1 36 36.72z"/><path id="q" d="M47.938 178.002a94.8 94.8 0 0 1-36-36.72v36.72h36z"/><path id="r" d="M139.55 178.002h36v-36.72a94.8 94.8 0 0 1-36 36.72z"/><path id="s" d="M93.675 2.827h-90v55.2h27.96v73.44H3.675v54.96h180v-55.2h-27.6v-73.44h27.6v-55.2h-90zm0 175.2h-81.6v-36.6h20.4c5.52 0 9.96-4.44 10.08-10.08v-73.44c-2.88-5.4-6-9.48-11.28-10.2h-19.2v-36.48h163.56v36.6h-19.2c-5.28.84-9.6 4.8-11.04 10.08v73.44c.12 5.64 4.56 10.08 10.08 10.08h20.16v36.6h-81.96z"/><path id="t" d="M44.113 119.915h99.24v-50.64h-99.24v50.64z"/><path id="u" d="M53.988 93.675c0 3.105 2.517 5.623 5.622 5.623h68.269c3.105 0 5.623-2.517 5.623-5.623s-2.517-5.622-5.623-5.622H59.61c-3.105 0-5.622 2.517-5.622 5.622z"/><path id="v" d="M8.04 127.702l47.52-3.6c3.96-.6 6.84-3.72 6.84-7.8v-42.36c0-3.96-3-7.2-6.96-7.44l-47.52-3.6c-3.96-.36-7.56 2.76-7.92 6.84v50.4c0 4.2 3.36 7.44 7.56 7.44z"/><path id="w" d="M18.135 117.02l24.6-2.04c3.96-.36 6.84-3.6 6.84-7.56V82.94c0-3.84-3-7.2-6.84-7.44l-24.6-2.16c-4.2-.24-7.8 2.88-8.16 6.96v29.28c0 4.2 3.36 7.44 7.56 7.44z"/><path id="x" d="M39.055 93.96c-3.6-3.6-3.6-9.24-.24-12.84l.24 12.84z"/><path id="y" d="M39.565 96.95l.48 12c3.12-3.12 3.24-8.4.24-11.52z"/><path id="z" d="M39.465 94.25h-4.56c-1.08 2.64-.36 5.64 1.8 7.44 1.68-.6 2.88-2.16 2.88-3.96.36-1.2.36-2.4-.12-3.6z"/><path id="AA" d="M39.065 93.96h4.56c.84-2.16.48-4.8-.72-6.6-2.4 1.2-4.08 3.6-3.6 6.6z"/><path id="AB" d="M38.135 95.31c0-1.44.6-2.4 1.2-2.4s1.56.84 1.56 2.4-.6 2.4-1.2 2.4-1.2-1.2-1.2-2.4z"/><path id="AC" d="M32.805 84.03v4.08h-1.68v4.8l-3.84-6.84 3.84-6.84v4.8h1.68z"/><path id="AD" d="M179.46 127.702l-47.52-3.6c-3.96-.6-6.84-3.72-6.84-7.8v-42.36c0-3.96 3-7.2 6.96-7.44l47.52-3.6c3.96-.36 7.56 2.76 7.92 6.84v50.4c0 4.2-3.36 7.44-7.56 7.44z"/><path id="AE" d="M169.353 117.02l-24.6-2.04c-3.96-.36-6.84-3.6-6.84-7.56V82.94c0-3.84 3-7.2 6.84-7.44l24.6-2.16c4.2-.24 7.8 2.88 8.16 6.96v29.28c0 4.2-3.36 7.44-7.56 7.44z"/><path id="AF" d="M45.237 146.87v-5.16h-5.28v5.16h5.28z"/></defs><symbol id="AG" overflow="visible"><g class="E"><path d="M2236.08 187.62h-8.88c-6.48 0-11.76-5.16-12-11.52s5.28-11.64 11.76-11.64h22.8c6.6 0 12 5.16 12 11.52s-5.16 11.64-11.76 11.64h-13.8zm0-73.44h-8.88c-6.48 0-11.76-5.16-12-11.52s5.28-11.64 11.76-11.64h22.8c6.6 0 12 5.16 12 11.52s-5.16 11.64-11.76 11.64h-13.8zm0-73.44h-8.88c-6.48 0-11.76-5.16-12-11.52s5.28-11.64 11.76-11.64h22.8c6.6 0 12 5.16 12 11.52s-5.16 11.64-11.76 11.64h-13.8zM39.24 187.62h-8.88c-6.48 0-12-5.16-12-11.52s5.4-11.52 11.88-11.52h22.8c6.48 0 12 5.16 12 11.52s-5.28 11.64-11.76 11.64H39.24zm0-73.44h-8.88c-6.48 0-12-5.16-12-11.52s5.28-11.64 11.76-11.64h22.8c6.48 0 12 5.16 12 11.52s-5.4 11.64-11.88 11.64h-13.8zm0-73.44h-8.88c-6.48 0-12-5.16-12-11.52s5.28-11.64 11.76-11.64h22.8c6.48 0 12 5.16 12 11.52s-5.28 11.64-11.76 11.64H39.24zM24 204.18h2232c12 0 24-5.16 24-11.64v-180c0-6.36-12-11.64-24-11.64H24C10.8.9 0 6.06 0 12.54v180c0 6.48 12 11.64 24 11.64z" fill="#a6a6a6" class="C"/><path d="M128.16 198.77h2024.88c1.56 0 2.76-1.2 2.76-2.88V8.21c0-1.68-1.2-2.88-2.64-2.88h-2025c-1.44 0-2.64 1.2-2.64 2.88v187.68c-.12 1.68 1.08 2.88 2.64 2.88z" stroke-width=".96" class="D G"/></g><g class="B"><path d="M131.32 7.3h22.32v189.84h-22.32z" class="S"/><path d="M151.56 7.622h7.666V197.14h-7.666z" class="i"/><path d="M134.11 7.622h-7.666V197.14h7.666z" class="q"/></g><path d="M128.16 204h2025.12c3.96 0 7.32-3.6 7.32-8.16V8.16c0-4.56-3.36-8.16-7.44-8.16h-2025c-4.2 0-7.56 3.6-7.56 8.16v187.68c0 4.56 3.36 8.16 7.56 8.16zm0-5.28c-1.56 0-2.76-1.32-2.76-2.88V8.16c0-1.68 1.2-3 2.76-3h2025.12c1.44 0 2.64 1.2 2.64 3v187.68c0 1.68-1.2 2.88-2.64 2.88H128.16zm17.34-31.19h7.8a3.6 3.6 0 0 0 3.6-3.6V40.33a3.6 3.6 0 0 0-3.6-3.6h-7.8a3.6 3.6 0 0 0-3.6 3.6v123.6a3.6 3.6 0 0 0 3.6 3.6z" stroke-width=".96" fill="#d1d3d0" class="E G"/><g fill="url(#C)" class="B"><path d="M825.74 7.622h15.909V197.14H825.74z"/><path d="M1035 7.622h15.909V197.14H1035z"/><path d="M1244.3 7.622h15.909V197.14H1244.3z"/><path d="M1930.2 7.622h8.422V197.14h-8.422z"/></g><g transform="translate(162.51 9.16)"><g class="C"><use xlink:href="#V" class="E G S"/><use xlink:href="#W" class="D"/></g><g class="M N"><path d="M24.077 62.931c0-4.036-3.305-7.308-7.383-7.308s-7.382 3.272-7.382 7.308 3.305 7.308 7.382 7.308 7.383-3.272 7.383-7.308z" fill="url(#D)"/><path d="M24.077 141.321c0-4.036-3.305-7.308-7.383-7.308s-7.382 3.272-7.382 7.308 3.305 7.308 7.382 7.308 7.383-3.272 7.383-7.308z" fill="url(#E)"/></g><use xlink:href="#X" class="F N"/><use xlink:href="#Y" class="B O"/><path d="M0 179.642v5.998h51.118v-5.998" class="C G Y"/><g transform="translate(223.104 179.642)"><path d="M0 0v5.998h212.032V0" class="C G Y"/></g><g transform="translate(435.145 15.387)"><path d="M0 0h6v153.308H0" fill="url(#G)" class="C G"/></g><g transform="matrix(-1 0 0 -1 413.021305 6.262906)"><path d="M99.596 0v5.998H0V0" class="C G Y"/></g><use xlink:href="#Z" stroke="#548bd4" class="E r"/><g class="g"><path d="M22.439 11.156C22.439 5.158 17.399 0 11.28 0S0 5.038 0 11.156s5.04 11.156 11.16 11.156 11.16-4.798 11.16-11.156z" transform="translate(51.56 8.161)" class="C T"/><g class="F U"><path d="M69.184 19.37H56.345"/><path d="M62.772 25.715V12.999"/></g><path d="M22.439 11.156C22.439 5.158 17.399 0 11.28 0S0 5.038 0 11.156s5.04 11.156 11.16 11.156 11.16-4.798 11.16-11.156z" transform="translate(48.823 153.431)" class="C T"/><g class="F U"><path d="M66.447 164.64H53.608"/><path d="M60.035 170.985v-12.716"/></g><path d="M22.439 11.156C22.439 5.158 17.399 0 11.28 0S0 5.038 0 11.156s5.04 11.156 11.16 11.156 11.16-4.798 11.16-11.156z" transform="translate(205.304 153.431)" class="C T"/><g class="F U"><path d="M222.928 164.64h-12.839"/><path d="M216.516 170.985v-12.716"/></g></g><path d="M257.915 22.839c0-7.786 6.27-14.055 14.059-14.055s14.059 6.268 14.059 14.055V169.12c0 7.786-6.27 14.055-14.059 14.055s-14.059-6.268-14.059-14.055z" fill="url(#I)" class="B"/><g class="E"><use xlink:href="#a" class="N X j"/><g class="C"><use xlink:href="#b" class="D"/><use xlink:href="#c" class="H a"/></g></g><path d="M347.812 59.576l-3.073 2.302m-.065 3.123l3.073 2.302m-13.81-7.727l3.073 2.302m.065 3.123l-3.073 2.302" class="C H F"/><g class="E"><use xlink:href="#d" class="C H b"/><use xlink:href="#c" y="55.663" class="C H a"/></g><path d="M347.812 115.239l-3.073 2.302m-.065 3.121l3.073 2.302m-13.81-7.725l3.073 2.302m.065 3.121l-3.073 2.302" class="C H F"/><g class="E"><use xlink:href="#d" y="55.663" class="C H b"/><use xlink:href="#c" x="20.737" y="27.818" class="C H a"/></g><path d="M368.561 87.394l-3.073 2.302m-.065 3.123l3.073 2.302m-13.822-7.727l3.073 2.302m.064 3.123l-3.073 2.302" class="C H F"/><g class="E"><use xlink:href="#d" x="20.736" y="27.817" class="C H b"/><use xlink:href="#e" class="C G S"/></g><use xlink:href="#f" fill="#c1c1c1" class="B"/><g class="g"><path d="M22.439 11.156C22.439 5.158 17.399 0 11.28 0S0 5.038 0 11.156s5.04 11.156 11.16 11.156 11.16-4.798 11.16-11.156z" transform="translate(202.68 8.161)" class="C T"/><g class="F U"><path d="M220.304 19.37h-12.839"/><path d="M213.892 25.715V12.999"/></g></g><g class="B"><path d="M405.832 141.169h21.839c4.2 0 7.44-3.359 7.44-7.437V53.599c0-3.959-3.24-7.198-7.44-7.198h-21.839c-4.2 0-7.56 3.239-7.56 7.198v79.893c0 4.319 3.36 7.677 7.56 7.677z" class="c"/><path d="M404.259 70.141H414.4v35.588h-10.141z" class="O"/><path d="M407.484 70.103h3.6v35.628h-3.6z" fill="#d8d8d8"/><use xlink:href="#g" class="I"/></g><use xlink:href="#h" class="B I"/><use xlink:href="#i" class="B I"/><use xlink:href="#j" class="B I"/><use xlink:href="#k" class="B I"/><use xlink:href="#l" class="B I"/><g class="B d"><path d="M104.259 92.278c0-19.428 15.724-35.068 35.255-35.068s35.255 15.64 35.255 35.068-15.724 35.068-35.255 35.068-35.255-15.64-35.255-35.068zm3.022 0c0-17.762 14.376-32.062 32.234-32.062s32.234 14.3 32.234 32.062-14.376 32.062-32.234 32.062-32.234-14.3-32.234-32.062z"/><path d="M69.127 94.405c-1.352-38.524 28.948-70.845 67.679-72.19s71.224 28.794 72.576 67.319-28.948 70.845-67.679 72.19-71.224-28.794-72.576-67.319zm-3.624.126c.922 26.252 15.853 50.02 39.17 62.352a74.26 74.26 0 0 0 73.872-2.566c22.395-13.92 35.624-38.666 34.702-64.918-1.426-40.615-35.683-72.39-76.515-70.972S63.956 53.921 65.382 94.535z"/></g><g transform="translate(145.493 3.837)"><path d="M36.999 45.969h0m-.216 87.551l18.348 18.615c1.209 1.202 1.934 3.367 1.451 5.17-2.055 8.176 2.901 16.472 11.121 18.516s16.56-2.886 18.615-11.061c.242-.842.363-1.683.363-2.405.121-1.683 0-3.607-.484-5.17-2.176-8.176-10.516-13.226-18.736-10.821-.846.24-1.692.481-2.418.962l-.242 2.765c7.253-2.164 14.263.24 16.923 6.252.484.721.725 1.683.846 2.645.363 1.563.363 3.367-.121 4.809-1.571 6.012-7.857 9.859-14.022 8.416s-9.912-7.815-8.461-13.947c.484-1.563.846-2.405 1.209-3.246.242-2.405 0-3.126-.484-3.607l-.725-.721-3.626-3.847-46.295-46.17c-3.626-3.968-5.439-8.777-5.319-13.827s1.813-9.979 5.198-13.707l43.515-43.524 4.835-4.809c.846-.842 1.209-2.405.363-3.367s-.846-1.563-1.209-2.405c-2.055-6.012 1.209-12.504 7.253-14.428s12.571 1.202 14.505 7.214c.967 2.164.967 3.847.725 5.41-1.209 6.252-7.253 10.46-13.296 9.378-.967-.12-1.934-.481-2.78-.842l-2.418 1.563c8.22 5.41 17.406 2.044 21.032-5.651.484-.842.484-1.683.846-2.405a16.02 16.02 0 0 0 .484-5.29C82.932 5.691 74.471-.561 67.218.04S52.471 8.096 53.196 16.512l.363 2.525c.363 1.924 0 5.05-1.33 5.05L33.373 42.843 6.78 69.294C2.308 74.104-.11 80.356.011 86.728c-.195 6.566 2.189 12.949 6.648 17.795l30.123 28.997" class="d k"/></g><path d="M94.586 49.806h0m.216 87.551l-18.348 18.615c-1.209 1.202-1.934 3.367-1.451 5.17 2.055 8.176-2.901 16.472-11.121 18.516s-16.56-2.886-18.615-11.061c-.242-.842-.363-1.683-.363-2.405-.121-1.683 0-3.607.484-5.17 2.176-8.176 10.516-13.226 18.736-10.821.846.24 1.692.481 2.418.962l.242 2.765c-7.253-2.164-14.263.24-16.923 6.252-.484.721-.725 1.683-.846 2.645-.363 1.563-.363 3.367.121 4.809 1.571 6.012 7.857 9.859 14.022 8.416s9.912-7.815 8.461-13.947c-.484-1.563-.846-2.405-1.209-3.246-.242-2.405 0-3.126.484-3.607l.725-.721 3.626-3.847 46.295-46.17c3.626-3.968 5.439-8.777 5.319-13.827s-1.813-9.979-5.198-13.707L78.146 33.454l-4.835-4.809c-.846-.842-1.209-2.405-.363-3.367s.846-1.563 1.209-2.405c2.055-6.012-1.209-12.504-7.253-14.428S54.334 9.648 52.4 15.66c-.967 2.164-.967 3.847-.725 5.41 1.209 6.252 7.253 10.46 13.296 9.378.967-.12 1.934-.481 2.78-.842l2.418 1.563c-8.22 5.41-17.406 2.044-21.032-5.651-.484-.842-.484-1.683-.846-2.405a16.02 16.02 0 0 1-.484-5.29c.846-8.296 9.307-14.548 16.56-13.947s14.747 8.056 14.022 16.472l-.363 2.525c-.363 1.924 0 5.05 1.33 5.05L98.212 46.68l26.593 26.451c4.472 4.809 6.89 11.061 6.769 17.434.195 6.566-2.189 12.949-6.648 17.795l-30.123 28.997" class="d k"/></g><g class="B"><path d="M613.25 7.3h15.36v189.84h-15.36z" class="S"/><path d="M627.13 7.622h5.257V197.14h-5.257z" class="i"/><path d="M615.17 7.622h-5.257V197.14h5.257z" class="q"/></g><path d="M624.37 26.339v10.32l-7.68-5.16 7.68-5.16z" class="E G P e"/><path d="M617.615 47.457v-7.158h2.087c.79 0 1.307.036 1.547.107.37.107.678.34.927.7s.374.824.374 1.394c0 .44-.072.81-.215 1.108s-.326.535-.547.706a1.8 1.8 0 0 1-.675.339c-.31.068-.76.103-1.35.103h-.848v2.701zm1.3-5.947v2.03h.712c.513 0 .855-.037 1.028-.112a.87.87 0 0 0 .406-.352 1.04 1.04 0 0 0 .147-.557c0-.26-.07-.475-.206-.645a.88.88 0 0 0-.523-.317c-.155-.033-.467-.05-.936-.05zm7.587 5.947h-1.235v-5.17a4.19 4.19 0 0 1-1.595 1.04v-1.245c.322-.117.672-.34 1.05-.667s.637-.71.778-1.145h1.002z" class="B D V"/><path d="M618.97 78.232v10.32l7.68-5.16-7.68-5.16z" class="E G P e"/><path d="M616.284 99.35v-7.158h4.416v1.21h-3.116v1.694h2.69v1.21h-2.69v3.044zm7.878 0h-1.235v-5.17a4.19 4.19 0 0 1-1.595 1.04v-1.245c.322-.117.672-.34 1.05-.667s.637-.71.778-1.145h1.002z" class="B D V"/><path d="M622.37 118.09v6.36l4.8-3.24-4.8-3.24zm-5.16 0v6.36l4.8-3.24-4.8-3.12z" class="E G P e"/><path d="M616.614 138.51v-7.158h4.416v1.21h-3.116v1.694h2.69v1.21h-2.69v3.044zm8.89-1.274v1.274h-4.33c.047-.482.188-.938.422-1.37s.697-1.003 1.39-1.716l1.024-1.172c.17-.283.255-.563.255-.84 0-.306-.074-.54-.222-.705s-.353-.247-.613-.247-.463.086-.615.26-.24.46-.264.86l-1.23-.137c.073-.755.303-1.297.7-1.626s.87-.493 1.45-.493c.636 0 1.135.2 1.5.57s.545.855.545 1.42a2.71 2.71 0 0 1-.156.92 3.85 3.85 0 0 1-.494.915c-.15.212-.42.516-.81.913l-.74.79a2.43 2.43 0 0 0-.253.38z" class="B D V"/><g class="C F"><path d="M615.34 166.128h12.24l-6.24-11.638-6 11.638zm5.79 12.24zm.12-1.92c1.44.36 2.4.6 2.4.36-1.44-1.8-2.4-1.2-2.4-.36zm.72 1.2c-.36 1.56-.48 2.4-.36 2.639 1.68-1.56.96-2.4.36-2.639zm-1.08-3.119c-1.68 1.44-1.2 2.4-.48 2.4l.48-2.4zm.24 3.839c-1.44-.48-2.4-.48-2.52-.48 1.2 1.92 2.4 1.2 2.4.48z"/><path d="M615.74 180.8h11.28l-5.64-11.998-5.64 11.998z"/></g><path d="M622.244 158.001l-.166 4.926h-1.172l-.166-4.926h1.504zm-.752 5.697q.356 0 .574.21.217.21.217.537 0 .322-.217.532-.217.21-.574.21-.352 0-.569-.21-.217-.21-.217-.532 0-.322.217-.535.217-.212.569-.212z" class="B D"/><g transform="translate(635.32 7.3)"><use xlink:href="#m" class="N l m"/><g class="C"><use xlink:href="#n" class="D"/><g class="E O"><use xlink:href="#o"/><use xlink:href="#p"/><use xlink:href="#q"/><use xlink:href="#r"/></g><g class="X"><use xlink:href="#s" class="E"/><use xlink:href="#t" class="M"/></g></g><use xlink:href="#u" class="B K"/><path d="M69.188 117.4a147.21 147.21 0 0 0 49.2 0V71.8a147.21 147.21 0 0 0-49.2 0v45.6z" class="C M n"/><g class="B"><use xlink:href="#v" class="K"/><use xlink:href="#w" class="W"/><use xlink:href="#x"/><use xlink:href="#y"/><use xlink:href="#z"/><use xlink:href="#AA"/><use xlink:href="#AB"/><use xlink:href="#AC"/><use xlink:href="#AC" y="17.57"/><path d="M56.065 121.49c3.046 0 5.515-2.469 5.515-5.515V73.593c0-3.046-2.469-5.516-5.515-5.516s-5.515 2.47-5.515 5.516v42.382c0 3.046 2.469 5.515 5.515 5.515z" class="L"/><path d="M5.515 125.24c3.046 0 5.515-2.469 5.515-5.515V69.846c0-3.046-2.469-5.515-5.515-5.515S0 66.8 0 69.846v49.879c0 3.046 2.469 5.515 5.515 5.515z" class="c"/><use xlink:href="#AD" class="K"/><use xlink:href="#AE" class="W"/><g class="L"><path d="M131.422 121.49c-3.046 0-5.515-2.469-5.515-5.515V73.593a5.52 5.52 0 0 1 5.515-5.516 5.52 5.52 0 0 1 5.515 5.516v42.382c0 3.046-2.469 5.515-5.515 5.515z"/><path d="M181.984 125.24c-3.046 0-5.515-2.469-5.515-5.515V69.846c0-3.046 2.469-5.515 5.515-5.515s5.515 2.469 5.515 5.515v49.879c0 3.046-2.469 5.515-5.515 5.515z"/></g></g><path d="M27.538 20.636c0-4.44-3.6-8.04-7.8-8.04s-7.8 3.6-7.8 8.04 3.6 7.92 7.8 7.92 7.8-3.6 7.8-7.92z" class="C o p"/><g class="B L"><path d="M4.67 60.909c2.579 0 4.67-2.469 4.67-5.515V5.515C9.339 2.469 7.249 0 4.67 0S0 2.469 0 5.515v49.879c0 3.046 2.091 5.515 4.67 5.515z" transform="matrix(-.087156 .996195 -.996195 -.087156 62.090624 67.249402)"/><path d="M5.035 60.909C2.254 60.909 0 58.44 0 55.394V5.515C0 2.469 2.254 0 5.035 0s5.036 2.469 5.036 5.515v49.879c0 3.046-2.254 5.515-5.036 5.515z" transform="matrix(.087156 .996195 -.996195 .087156 61.234268 113.12102)"/><path d="M4.67 60.909C2.091 60.909 0 58.44 0 55.394V5.515C0 2.469 2.091 0 4.67 0s4.67 2.469 4.67 5.515v49.879c0 3.046-2.091 5.515-4.67 5.515z" transform="matrix(-.087156 -.996195 .996195 -.087156 125.639252 76.859289)"/><path d="M4.67 60.909c2.579 0 4.67-2.469 4.67-5.515V5.515C9.339 2.469 7.249 0 4.67 0S0 2.469 0 5.515v49.879c0 3.046 2.091 5.515 4.67 5.515z" transform="matrix(-.087156 .996195 -.996195 -.087156 186.316724 118.805502)"/></g></g><g transform="translate(844.6 7.3)"><use xlink:href="#m" class="N l m"/><g class="C"><use xlink:href="#n" class="D"/><g class="E O"><use xlink:href="#o"/><use xlink:href="#p"/><use xlink:href="#q"/><use xlink:href="#r"/></g><g class="X"><use xlink:href="#s" class="E"/><use xlink:href="#t" class="M"/></g></g><use xlink:href="#u" class="B K"/><path d="M69.188 117.4a147.21 147.21 0 0 0 49.2 0V71.8a147.21 147.21 0 0 0-49.2 0v45.6z" class="C M n"/><g class="B"><use xlink:href="#v" class="K"/><use xlink:href="#w" class="W"/><use xlink:href="#x"/><use xlink:href="#y"/><use xlink:href="#z"/><use xlink:href="#AA"/><use xlink:href="#AB"/><use xlink:href="#AC"/><use xlink:href="#AC" y="17.57"/><path d="M56.065 121.49c3.046 0 5.515-2.469 5.515-5.515V73.593c0-3.046-2.469-5.516-5.515-5.516s-5.515 2.47-5.515 5.516v42.382c0 3.046 2.469 5.515 5.515 5.515z" class="L"/><path d="M5.515 125.24c3.046 0 5.515-2.469 5.515-5.515V69.846c0-3.046-2.469-5.515-5.515-5.515S0 66.8 0 69.846v49.879c0 3.046 2.469 5.515 5.515 5.515z" class="c"/><use xlink:href="#AD" class="K"/><use xlink:href="#AE" class="W"/><g class="L"><path d="M131.422 121.49c-3.046 0-5.515-2.469-5.515-5.515V73.593a5.52 5.52 0 0 1 5.515-5.516 5.52 5.52 0 0 1 5.515 5.516v42.382c0 3.046-2.469 5.515-5.515 5.515z"/><path d="M181.984 125.24c-3.046 0-5.515-2.469-5.515-5.515V69.846c0-3.046 2.469-5.515 5.515-5.515s5.515 2.469 5.515 5.515v49.879c0 3.046-2.469 5.515-5.515 5.515z"/></g></g><path d="M27.538 20.636c0-4.44-3.6-8.04-7.8-8.04s-7.8 3.6-7.8 8.04 3.6 7.92 7.8 7.92 7.8-3.6 7.8-7.92z" class="C o p"/><g class="B L"><path d="M4.67 60.909c2.579 0 4.67-2.469 4.67-5.515V5.515C9.339 2.469 7.249 0 4.67 0S0 2.469 0 5.515v49.879c0 3.046 2.091 5.515 4.67 5.515z" transform="matrix(-.087156 .996195 -.996195 -.087156 62.090624 67.249402)"/><path d="M5.035 60.909C2.254 60.909 0 58.44 0 55.394V5.515C0 2.469 2.254 0 5.035 0s5.036 2.469 5.036 5.515v49.879c0 3.046-2.254 5.515-5.036 5.515z" transform="matrix(.087156 .996195 -.996195 .087156 61.234268 113.12102)"/><path d="M4.67 60.909C2.091 60.909 0 58.44 0 55.394V5.515C0 2.469 2.091 0 4.67 0s4.67 2.469 4.67 5.515v49.879c0 3.046-2.091 5.515-4.67 5.515z" transform="matrix(-.087156 -.996195 .996195 -.087156 125.639252 76.859289)"/><path d="M4.67 60.909c2.579 0 4.67-2.469 4.67-5.515V5.515C9.339 2.469 7.249 0 4.67 0S0 2.469 0 5.515v49.879c0 3.046 2.091 5.515 4.67 5.515z" transform="matrix(-.087156 .996195 -.996195 -.087156 186.316724 118.805502)"/></g></g><g transform="translate(1053.9 7.3)"><use xlink:href="#m" class="N l m"/><g class="C"><use xlink:href="#n" class="D"/><g class="E O"><use xlink:href="#o"/><use xlink:href="#p"/><use xlink:href="#q"/><use xlink:href="#r"/></g><g class="X"><use xlink:href="#s" class="E"/><use xlink:href="#t" class="M"/></g></g><use xlink:href="#u" class="B K"/><path d="M69.188 117.4a147.21 147.21 0 0 0 49.2 0V71.8a147.21 147.21 0 0 0-49.2 0v45.6z" class="C M n"/><g class="B"><use xlink:href="#v" class="K"/><use xlink:href="#w" class="W"/><use xlink:href="#x"/><use xlink:href="#y"/><use xlink:href="#z"/><use xlink:href="#AA"/><use xlink:href="#AB"/><use xlink:href="#AC"/><use xlink:href="#AC" y="17.57"/><path d="M56.065 121.49c3.046 0 5.515-2.469 5.515-5.515V73.593c0-3.046-2.469-5.516-5.515-5.516s-5.515 2.47-5.515 5.516v42.382c0 3.046 2.469 5.515 5.515 5.515z" class="L"/><path d="M5.515 125.24c3.046 0 5.515-2.469 5.515-5.515V69.846c0-3.046-2.469-5.515-5.515-5.515S0 66.8 0 69.846v49.879c0 3.046 2.469 5.515 5.515 5.515z" class="c"/><use xlink:href="#AD" class="K"/><use xlink:href="#AE" class="W"/><g class="L"><path d="M131.422 121.49c-3.046 0-5.515-2.469-5.515-5.515V73.593a5.52 5.52 0 0 1 5.515-5.516 5.52 5.52 0 0 1 5.515 5.516v42.382c0 3.046-2.469 5.515-5.515 5.515z"/><path d="M181.984 125.24c-3.046 0-5.515-2.469-5.515-5.515V69.846c0-3.046 2.469-5.515 5.515-5.515s5.515 2.469 5.515 5.515v49.879c0 3.046-2.469 5.515-5.515 5.515z"/></g></g><path d="M27.538 20.636c0-4.44-3.6-8.04-7.8-8.04s-7.8 3.6-7.8 8.04 3.6 7.92 7.8 7.92 7.8-3.6 7.8-7.92z" class="C o p"/><g class="B L"><path d="M4.67 60.909c2.579 0 4.67-2.469 4.67-5.515V5.515C9.339 2.469 7.249 0 4.67 0S0 2.469 0 5.515v49.879c0 3.046 2.091 5.515 4.67 5.515z" transform="matrix(-.087156 .996195 -.996195 -.087156 62.090624 67.249402)"/><path d="M5.035 60.909C2.254 60.909 0 58.44 0 55.394V5.515C0 2.469 2.254 0 5.035 0s5.036 2.469 5.036 5.515v49.879c0 3.046-2.254 5.515-5.036 5.515z" transform="matrix(.087156 .996195 -.996195 .087156 61.234268 113.12102)"/><path d="M4.67 60.909C2.091 60.909 0 58.44 0 55.394V5.515C0 2.469 2.091 0 4.67 0s4.67 2.469 4.67 5.515v49.879c0 3.046-2.091 5.515-4.67 5.515z" transform="matrix(-.087156 -.996195 .996195 -.087156 125.639252 76.859289)"/><path d="M4.67 60.909c2.579 0 4.67-2.469 4.67-5.515V5.515C9.339 2.469 7.249 0 4.67 0S0 2.469 0 5.515v49.879c0 3.046 2.091 5.515 4.67 5.515z" transform="matrix(-.087156 .996195 -.996195 -.087156 186.316724 118.805502)"/></g></g><g transform="translate(1263.2 7.3)"><use xlink:href="#m" class="N l m"/><g class="C"><use xlink:href="#n" class="D"/><g class="E O"><use xlink:href="#o"/><use xlink:href="#p"/><use xlink:href="#q"/><use xlink:href="#r"/></g><g class="X"><use xlink:href="#s" class="E"/><use xlink:href="#t" class="M"/></g></g><use xlink:href="#u" class="B K"/><path d="M69.188 117.4a147.21 147.21 0 0 0 49.2 0V71.8a147.21 147.21 0 0 0-49.2 0v45.6z" class="C M n"/><g class="B"><use xlink:href="#v" class="K"/><use xlink:href="#w" class="W"/><use xlink:href="#x"/><use xlink:href="#y"/><use xlink:href="#z"/><use xlink:href="#AA"/><use xlink:href="#AB"/><use xlink:href="#AC"/><use xlink:href="#AC" y="17.57"/><path d="M56.065 121.49c3.046 0 5.515-2.469 5.515-5.515V73.593c0-3.046-2.469-5.516-5.515-5.516s-5.515 2.47-5.515 5.516v42.382c0 3.046 2.469 5.515 5.515 5.515z" class="L"/><path d="M5.515 125.24c3.046 0 5.515-2.469 5.515-5.515V69.846c0-3.046-2.469-5.515-5.515-5.515S0 66.8 0 69.846v49.879c0 3.046 2.469 5.515 5.515 5.515z" class="c"/><use xlink:href="#AD" class="K"/><use xlink:href="#AE" class="W"/><g class="L"><path d="M131.422 121.49c-3.046 0-5.515-2.469-5.515-5.515V73.593a5.52 5.52 0 0 1 5.515-5.516 5.52 5.52 0 0 1 5.515 5.516v42.382c0 3.046-2.469 5.515-5.515 5.515z"/><path d="M181.984 125.24c-3.046 0-5.515-2.469-5.515-5.515V69.846c0-3.046 2.469-5.515 5.515-5.515s5.515 2.469 5.515 5.515v49.879c0 3.046-2.469 5.515-5.515 5.515z"/></g></g><path d="M27.538 20.636c0-4.44-3.6-8.04-7.8-8.04s-7.8 3.6-7.8 8.04 3.6 7.92 7.8 7.92 7.8-3.6 7.8-7.92z" class="C o p"/><g class="B L"><path d="M4.67 60.909c2.579 0 4.67-2.469 4.67-5.515V5.515C9.339 2.469 7.249 0 4.67 0S0 2.469 0 5.515v49.879c0 3.046 2.091 5.515 4.67 5.515z" transform="matrix(-.087156 .996195 -.996195 -.087156 62.090624 67.249402)"/><path d="M5.035 60.909C2.254 60.909 0 58.44 0 55.394V5.515C0 2.469 2.254 0 5.035 0s5.036 2.469 5.036 5.515v49.879c0 3.046-2.254 5.515-5.036 5.515z" transform="matrix(.087156 .996195 -.996195 .087156 61.234268 113.12102)"/><path d="M4.67 60.909C2.091 60.909 0 58.44 0 55.394V5.515C0 2.469 2.091 0 4.67 0s4.67 2.469 4.67 5.515v49.879c0 3.046-2.091 5.515-4.67 5.515z" transform="matrix(-.087156 -.996195 .996195 -.087156 125.639252 76.859289)"/><path d="M4.67 60.909c2.579 0 4.67-2.469 4.67-5.515V5.515C9.339 2.469 7.249 0 4.67 0S0 2.469 0 5.515v49.879c0 3.046 2.091 5.515 4.67 5.515z" transform="matrix(-.087156 .996195 -.996195 -.087156 186.316724 118.805502)"/></g></g><g class="B"><path d="M1457.8 7.3h15.36v189.84h-15.36z" class="S"/><path d="M1471.6 7.622h5.257V197.14h-5.257z" class="i"/><path d="M1459.7 7.622h-5.257V197.14h5.257z" class="q"/></g><path d="M1463.2 26.339v10.32l7.68-5.16-7.68-5.16z" class="E G P e"/><path d="M1460.255 47.457v-7.158h2.087c.79 0 1.307.036 1.547.107.37.107.678.34.927.7s.374.824.374 1.394c0 .44-.072.81-.215 1.108a1.93 1.93 0 0 1-.547.706 1.8 1.8 0 0 1-.675.339c-.31.068-.76.103-1.35.103h-.848v2.701zm1.3-5.947v2.03h.712c.513 0 .855-.037 1.028-.112a.87.87 0 0 0 .406-.352 1.04 1.04 0 0 0 .147-.557c0-.26-.07-.475-.206-.645a.88.88 0 0 0-.523-.317c-.155-.033-.467-.05-.936-.05zm8.598 4.673v1.274h-4.33a3.58 3.58 0 0 1 .422-1.37c.234-.432.697-1.003 1.39-1.716l1.025-1.172c.17-.283.255-.563.255-.84 0-.306-.074-.54-.222-.705s-.353-.247-.613-.247-.463.086-.615.26-.24.46-.264.86l-1.23-.137c.073-.755.303-1.297.7-1.626s.87-.493 1.45-.493c.636 0 1.135.2 1.5.57s.545.855.545 1.42c0 .322-.052.63-.156.92s-.27.596-.495.915c-.15.212-.42.516-.81.913l-.74.79a2.44 2.44 0 0 0-.253.38z" class="B D V"/><path d="M1468.6 78.232v10.32l-7.68-5.16 7.68-5.16z" class="E G P e"/><path d="M1462.064 99.35v-7.158h4.416v1.21h-3.116v1.694h2.69v1.21h-2.69v3.044zm7.14 0v-1.44h-2.637v-1.2l2.795-4.546h1.038v4.54h.8v1.206h-.8v1.44zm0-2.646v-2.446l-1.48 2.446z" class="B D V"/><path d="M1465.14 118.09v6.36l-4.8-3.24 4.8-3.24zm5.16 0v6.36l-4.8-3.24 4.8-3.12z" class="E G P e"/><path d="M1461.764 138.51v-7.158h4.416v1.21h-3.116v1.694h2.69v1.21h-2.69v3.044zm4.675-1.9l1.195-.16c.038.34.14.597.308.776a.8.8 0 0 0 .606.269c.255 0 .47-.107.644-.322s.26-.504.26-.87c0-.345-.083-.618-.25-.82s-.37-.303-.61-.303a1.96 1.96 0 0 0-.567.103l.136-1.118c.334.01.59-.07.765-.242a.91.91 0 0 0 .264-.68c0-.24-.064-.433-.193-.576s-.3-.215-.514-.215a.7.7 0 0 0-.54.244c-.15.164-.24.4-.272.713l-1.141-.216c.08-.433.198-.78.358-1.038a1.58 1.58 0 0 1 .668-.6c.286-.138.606-.222.96-.222.606 0 1.093.215 1.46.644a1.78 1.78 0 0 1 .453 1.191c0 .628-.31 1.13-.927 1.504a1.48 1.48 0 0 1 .885.591c.22.306.332.676.332 1.108a2.27 2.27 0 0 1-.62 1.606 2.02 2.02 0 0 1-1.543.664c-.583 0-1.066-.186-1.45-.56s-.606-.868-.668-1.471z" class="B D V"/><g transform="translate(1482.5 8.89)"><g class="C"><use xlink:href="#V" class="E G S"/><use xlink:href="#W" class="D"/></g><g class="M N"><path d="M24.077 62.931c0-4.036-3.305-7.308-7.383-7.308s-7.382 3.272-7.382 7.308 3.305 7.308 7.382 7.308 7.383-3.272 7.383-7.308z" fill="url(#D)"/><path d="M24.077 141.321c0-4.036-3.305-7.308-7.383-7.308s-7.382 3.272-7.382 7.308 3.305 7.308 7.382 7.308 7.383-3.272 7.383-7.308z" fill="url(#E)"/></g><use xlink:href="#X" class="F N"/><use xlink:href="#Y" class="B O"/><path d="M0 179.642v5.998h51.118v-5.998" class="C G Y"/><g transform="translate(223.104 179.642)"><path d="M0 0v5.998h212.032V0" class="C G Y"/></g><g transform="translate(435.145 15.387)"><path d="M0 0h6v153.308H0" fill="url(#G)" class="C G"/></g><g transform="matrix(-1 0 0 -1 413.021305 6.262906)"><path d="M99.596 0v5.998H0V0" class="C G Y"/></g><use xlink:href="#Z" stroke="#548bd4" class="E r"/><g class="g"><path d="M22.439 11.156C22.439 5.158 17.399 0 11.28 0S0 5.038 0 11.156s5.04 11.156 11.16 11.156 11.16-4.798 11.16-11.156z" transform="translate(51.56 8.161)" class="C T"/><g class="F U"><path d="M69.184 19.37H56.345"/><path d="M62.772 25.715V12.999"/></g><path d="M22.439 11.156C22.439 5.158 17.399 0 11.28 0S0 5.038 0 11.156s5.04 11.156 11.16 11.156 11.16-4.798 11.16-11.156z" transform="translate(48.823 153.431)" class="C T"/><g class="F U"><path d="M66.447 164.64H53.608"/><path d="M60.035 170.985v-12.716"/></g><path d="M22.439 11.156C22.439 5.158 17.399 0 11.28 0S0 5.038 0 11.156s5.04 11.156 11.16 11.156 11.16-4.798 11.16-11.156z" transform="translate(205.304 153.431)" class="C T"/><g class="F U"><path d="M222.928 164.64h-12.839"/><path d="M216.516 170.985v-12.716"/></g></g><path d="M257.915 22.839c0-7.786 6.27-14.055 14.059-14.055s14.059 6.268 14.059 14.055V169.12c0 7.786-6.27 14.055-14.059 14.055s-14.059-6.268-14.059-14.055z" fill="url(#I)" class="B"/><g class="E"><use xlink:href="#a" class="N X j"/><g class="C"><use xlink:href="#b" class="D"/><use xlink:href="#c" class="H a"/></g></g><path d="M347.812 59.576l-3.073 2.302m-.065 3.123l3.073 2.302m-13.81-7.727l3.073 2.302m.065 3.123l-3.073 2.302" class="C H F"/><g class="E"><use xlink:href="#d" class="C H b"/><use xlink:href="#c" y="55.663" class="C H a"/></g><path d="M347.812 115.239l-3.073 2.302m-.065 3.121l3.073 2.302m-13.81-7.725l3.073 2.302m.065 3.121l-3.073 2.302" class="C H F"/><g class="E"><use xlink:href="#d" y="55.663" class="C H b"/><use xlink:href="#c" x="20.737" y="27.818" class="C H a"/></g><path d="M368.561 87.394l-3.073 2.302m-.065 3.123l3.073 2.302m-13.822-7.727l3.073 2.302m.064 3.123l-3.073 2.302" class="C H F"/><g class="E"><use xlink:href="#d" x="20.736" y="27.817" class="C H b"/><use xlink:href="#e" class="C G S"/></g><use xlink:href="#f" fill="#c1c1c1" class="B"/><g class="g"><path d="M22.439 11.156C22.439 5.158 17.399 0 11.28 0S0 5.038 0 11.156s5.04 11.156 11.16 11.156 11.16-4.798 11.16-11.156z" transform="translate(202.68 8.161)" class="C T"/><g class="F U"><path d="M220.304 19.37h-12.839"/><path d="M213.892 25.715V12.999"/></g></g><g class="B"><path d="M405.832 141.169h21.839c4.2 0 7.44-3.359 7.44-7.437V53.599c0-3.959-3.24-7.198-7.44-7.198h-21.839c-4.2 0-7.56 3.239-7.56 7.198v79.893c0 4.319 3.36 7.677 7.56 7.677z" class="c"/><path d="M404.259 70.141H414.4v35.588h-10.141z" class="O"/><path d="M407.484 70.103h3.6v35.628h-3.6z" fill="#d8d8d8"/><use xlink:href="#g" class="I"/></g><use xlink:href="#h" class="B I"/><use xlink:href="#i" class="B I"/><use xlink:href="#j" class="B I"/><use xlink:href="#k" class="B I"/><use xlink:href="#l" class="B I"/><g class="B d"><path d="M104.259 92.278c0-19.428 15.724-35.068 35.255-35.068s35.255 15.64 35.255 35.068-15.724 35.068-35.255 35.068-35.255-15.64-35.255-35.068zm3.022 0c0-17.762 14.376-32.062 32.234-32.062s32.234 14.3 32.234 32.062-14.376 32.062-32.234 32.062-32.234-14.3-32.234-32.062z"/><path d="M69.127 94.405c-1.352-38.524 28.948-70.845 67.679-72.19s71.224 28.794 72.576 67.319-28.948 70.845-67.679 72.19-71.224-28.794-72.576-67.319zm-3.624.126c.922 26.252 15.853 50.02 39.17 62.352a74.26 74.26 0 0 0 73.872-2.566c22.395-13.92 35.624-38.666 34.702-64.918-1.426-40.615-35.683-72.39-76.515-70.972S63.956 53.921 65.382 94.535z"/></g><g transform="translate(145.493 3.837)"><path d="M36.999 45.969h0m-.216 87.551l18.348 18.615c1.209 1.202 1.934 3.367 1.451 5.17-2.055 8.176 2.901 16.472 11.121 18.516s16.56-2.886 18.615-11.061c.242-.842.363-1.683.363-2.405.121-1.683 0-3.607-.484-5.17-2.176-8.176-10.516-13.226-18.736-10.821-.846.24-1.692.481-2.418.962l-.242 2.765c7.253-2.164 14.263.24 16.923 6.252.484.721.725 1.683.846 2.645.363 1.563.363 3.367-.121 4.809-1.571 6.012-7.857 9.859-14.022 8.416s-9.912-7.815-8.461-13.947c.484-1.563.846-2.405 1.209-3.246.242-2.405 0-3.126-.484-3.607l-.725-.721-3.626-3.847-46.295-46.17c-3.626-3.968-5.439-8.777-5.319-13.827s1.813-9.979 5.198-13.707l43.515-43.524 4.835-4.809c.846-.842 1.209-2.405.363-3.367s-.846-1.563-1.209-2.405c-2.055-6.012 1.209-12.504 7.253-14.428s12.571 1.202 14.505 7.214c.967 2.164.967 3.847.725 5.41-1.209 6.252-7.253 10.46-13.296 9.378-.967-.12-1.934-.481-2.78-.842l-2.418 1.563c8.22 5.41 17.406 2.044 21.032-5.651.484-.842.484-1.683.846-2.405a16.02 16.02 0 0 0 .484-5.29C82.932 5.691 74.471-.561 67.218.04S52.471 8.096 53.196 16.512l.363 2.525c.363 1.924 0 5.05-1.33 5.05L33.373 42.843 6.78 69.294C2.308 74.104-.11 80.356.011 86.728c-.195 6.566 2.189 12.949 6.648 17.795l30.123 28.997" class="d k"/></g><path d="M94.586 49.806h0m.216 87.551l-18.348 18.615c-1.209 1.202-1.934 3.367-1.451 5.17 2.055 8.176-2.901 16.472-11.121 18.516s-16.56-2.886-18.615-11.061c-.242-.842-.363-1.683-.363-2.405-.121-1.683 0-3.607.484-5.17 2.176-8.176 10.516-13.226 18.736-10.821.846.24 1.692.481 2.418.962l.242 2.765c-7.253-2.164-14.263.24-16.923 6.252-.484.721-.725 1.683-.846 2.645-.363 1.563-.363 3.367.121 4.809 1.571 6.012 7.857 9.859 14.022 8.416s9.912-7.815 8.461-13.947c-.484-1.563-.846-2.405-1.209-3.246-.242-2.405 0-3.126.484-3.607l.725-.721 3.626-3.847 46.295-46.17c3.626-3.968 5.439-8.777 5.319-13.827s-1.813-9.979-5.198-13.707L78.146 33.454l-4.835-4.809c-.846-.842-1.209-2.405-.363-3.367s.846-1.563 1.209-2.405c2.055-6.012-1.209-12.504-7.253-14.428S54.334 9.648 52.4 15.66c-.967 2.164-.967 3.847-.725 5.41 1.209 6.252 7.253 10.46 13.296 9.378.967-.12 1.934-.481 2.78-.842l2.418 1.563c-8.22 5.41-17.406 2.044-21.032-5.651-.484-.842-.484-1.683-.846-2.405a16.02 16.02 0 0 1-.484-5.29c.846-8.296 9.307-14.548 16.56-13.947s14.747 8.056 14.022 16.472l-.363 2.525c-.363 1.924 0 5.05 1.33 5.05L98.212 46.68l26.593 26.451c4.472 4.809 6.89 11.061 6.769 17.434.195 6.566-2.189 12.949-6.648 17.795l-30.123 28.997" class="d k"/></g><g transform="translate(1941.943 7.3)"><g class="B"><path d="M10.797 195.96h184.2c4.08 0 7.56-3.36 7.56-7.44V.36H3.597l-.24 188.04c0 4.2 3.36 7.56 7.44 7.56z" class="S"/><path d="M200.956 7.027h5.257V185.75h-5.257z" class="i"/><path d="M5.257 7.027H0V185.75h5.257z" fill="url(#B)"/><path d="M3.457 6.161V.438h198.609v5.723H3.457z" fill="url(#O)"/><path d="M207.157 0h5.64v189.84h-5.64z" fill="#d1d3d0"/></g><g class="G"><path d="M207.157 189.84h5.64V0h-5.64v189.84z" class="F P"/><path d="M65.957 171.16h18.248v-11.922H65.957v11.922z" fill="url(#P)" class="h"/></g><path d="M59.837 178.166h3.434c.68 0 1.186.03 1.52.094a2.11 2.11 0 0 1 .896.394c.264.2.483.465.66.798s.264.704.264 1.117a2.4 2.4 0 0 1-.325 1.23 2.09 2.09 0 0 1-.882.84c.523.17.926.458 1.207.866s.422.888.422 1.44a3.09 3.09 0 0 1-.272 1.266 2.51 2.51 0 0 1-.744.983c-.314.245-.702.396-1.163.452-.29.035-.986.056-2.092.065h-2.925zm1.734 1.588v2.207h1.136l1.25-.031c.297-.04.53-.153.7-.342s.255-.437.255-.745c0-.295-.073-.535-.22-.72s-.364-.296-.653-.335c-.172-.022-.666-.033-1.482-.033zm0 3.796v2.552h1.606l1.19-.06a1.05 1.05 0 0 0 .63-.381c.162-.202.243-.472.243-.81 0-.286-.062-.53-.187-.73s-.306-.345-.542-.436-.75-.137-1.538-.137zm12.756.65l1.682.592c-.258 1.042-.687 1.815-1.286 2.32s-1.36.758-2.283.758a3.52 3.52 0 0 1-2.812-1.299c-.735-.866-1.102-2.05-1.102-3.55 0-1.588.37-2.822 1.108-3.7s1.71-1.318 2.912-1.318c1.05 0 1.904.345 2.56 1.035.39.408.684.994.88 1.758l-1.716.456c-.102-.495-.314-.885-.636-1.172s-.714-.43-1.175-.43c-.637 0-1.153.254-1.55.762s-.595 1.33-.595 2.467c0 1.207.196 2.066.586 2.578s.9.768 1.524.768c.46 0 .857-.163 1.19-.488s.57-.838.715-1.537zm2.52 3.51v-9.544h1.687l3.516 6.374v-6.374h1.61v9.544h-1.74l-3.463-6.224v6.224z" class="B D V"/><path d="M125.657 171.16h18.248v-11.922h-18.248v11.922z" fill="url(#P)" class="G h"/><path d="M124.29 184.605l1.688-.182c.1.63.308 1.092.618 1.387s.73.443 1.257.443c.56 0 .98-.13 1.263-.394s.425-.57.425-.92a.93.93 0 0 0-.179-.576c-.12-.158-.327-.296-.624-.413-.203-.078-.666-.217-1.39-.417-.93-.256-1.582-.57-1.957-.944-.527-.525-.79-1.165-.79-1.92a2.65 2.65 0 0 1 .372-1.364 2.4 2.4 0 0 1 1.072-.967c.467-.22 1.03-.332 1.7-.332 1.078 0 1.9.263 2.435.788s.83 1.226.858 2.103l-1.734.085c-.074-.5-.233-.843-.478-1.058s-.6-.322-1.1-.322-.898.115-1.184.345a.72.72 0 0 0-.275.592c0 .226.086.42.258.58.22.204.75.417 1.594.638s1.468.45 1.872.687a2.53 2.53 0 0 1 .949.97c.23.4.343.917.343 1.52a3.04 3.04 0 0 1-.41 1.536c-.273.477-.66.832-1.16 1.064s-1.132.346-1.877.346c-1.087 0-1.92-.27-2.503-.837s-.93-1.371-1.043-2.438zm10.373 3.105v-7.93h-2.55v-1.614h6.826v1.614h-2.543v7.93zm4.627-3.105l1.687-.182c.102.63.308 1.092.618 1.387s.73.443 1.257.443c.56 0 .98-.13 1.263-.394s.425-.57.425-.92c0-.226-.06-.418-.18-.576s-.327-.296-.624-.413c-.203-.078-.666-.217-1.39-.417-.93-.256-1.582-.57-1.957-.944-.527-.525-.79-1.165-.79-1.92a2.65 2.65 0 0 1 .372-1.364c.248-.423.606-.745 1.072-.967s1.03-.332 1.69-.332c1.078 0 1.9.263 2.434.788s.832 1.226.86 2.103l-1.735.085c-.074-.5-.233-.843-.477-1.058s-.6-.322-1.1-.322-.898.115-1.183.345a.72.72 0 0 0-.276.592c0 .226.086.42.258.58.22.204.75.417 1.594.638s1.468.45 1.872.687a2.53 2.53 0 0 1 .949.97c.23.4.343.917.343 1.52 0 .547-.137 1.06-.4 1.536a2.54 2.54 0 0 1-1.16 1.064c-.5.232-1.123.348-1.87.348-1.086 0-1.92-.28-2.502-.837s-.93-1.37-1.043-2.438z" class="B D V"/><path d="M116.016 171.483c0-6.753-5.028-12.228-11.23-12.228s-11.23 5.475-11.23 12.228 5.028 12.227 11.23 12.227 11.23-5.474 11.23-12.227z" stroke="#8c8c8c" class="E T h"/><g class="F U g"><path d="M109.457 171.46h-9.6"/><path d="M104.857 176.82v-10.44"/></g><g class="E"><path d="M206.857 133.52V72.08c0-1.2-1.2-2.4-2.4-2.4h-21.6c-1.2 0-2.4 1.2-2.4 2.4v61.44c0 1.2 1.2 2.4 2.4 2.4h21.6c1.2 0 2.4-1.2 2.4-2.4z" fill="#969696" class="P"/><path d="M205.057 131.912V73.905a2.36 2.36 0 0 0-2.358-2.358H184.08a2.36 2.36 0 0 0-2.358 2.358v58.007a2.36 2.36 0 0 0 2.358 2.358h18.619a2.36 2.36 0 0 0 2.358-2.358z" fill="url(#Q)" class="h"/><g fill="silver" class="P"><path d="M205.757 134.27v-31.44h-2.4v31.44h2.4z"/><path d="M205.757 102.85V71.41h-2.4v31.44h2.4z"/></g></g><g class="B"><path d="M189.657 128.16V77.52h-4.44v50.64h4.44z" fill="silver"/><path d="M39.957 141.71h5.28v5.16h-5.28z" class="f"/></g><use xlink:href="#AF" class="C F"/><path d="M34.057 153.28h5.28v5.16h-5.28z" class="B f"/><use xlink:href="#AF" x="-5.9" y="11.57" class="C F"/><path d="M45.857 153.28h5.28v5.16h-5.28z" class="B f"/><g class="F"><g class="C"><use xlink:href="#AF" x="5.9" y="11.57"/><path d="M33.057 150.08h18.48"/><path d="M36.656 150.08v3.24m11.9-3.24v3.24m-6-6.45v3.24" class="E s"/></g><path d="M42.757 24.541v-1.2m5.04 1.44h-9.6m-2.64-13.2h14.4v11.52h-14.4zm1.625 1.736h11.25v8.125h-11.25z" stroke-width=".72"/></g><path d="M82.957 139.058H2.317v-110.4h80.64z" class="B D"/><g class="G"><path d="M82.957 28.658H2.317v110.4h80.64v-110.4z" class="C F"/><path d="M7.471 32.741h70.165c.782 0 1.415.633 1.415 1.415v99.564c0 .781-.633 1.415-1.415 1.415H7.471c-.781 0-1.415-.634-1.415-1.415V34.156c0-.781.633-1.415 1.415-1.415z" fill="url(#R)" stroke-width="1.198" class="E"/></g><g transform="matrix(-1 0 0 -1 73.87645 135.24)"><path d="M18.902 0l-1.304 3.667-2.607 1.048-1.304 6.287L0 12.574V42.96h61.92V12.574l-13.688-1.572-1.304-6.287-2.607-1.048L43.018 0H18.902z" class="B O"/></g><g fill="url(#S)" class="h j"><path d="M59.257 125.05h17.245v7.45H59.257v-7.45z"/><path d="M9.157 124.98h17.245v7.45H9.157v-7.45z"/></g><g class="O"><path d="M54.955 34.321l1.304 3.667 2.607 1.048 1.304 6.287 13.688 1.572v30.386h-61.92V46.895l13.688-1.572 1.304-6.287 2.607-1.048 1.304-3.667h24.116z" class="B"/><path d="M167.317 136.34v-42.6a2.4 2.4 0 0 0-2.4-2.4h-62.76a2.4 2.4 0 0 0-2.4 2.4v42.6h67.56z" stroke="#8c8c8c" class="C E"/></g><path d="M128.277 113.33V99.41h-13.92v13.92h13.92zm24.48 0V99.41h-13.92v13.92h13.92z" fill="#737373" class="E P"/><path d="M124.957 137.28h16.8c2.4-.12 3.96-2.04 3.84-4.32l-24.24-.48c0 2.4 1.56 4.2 3.6 4.8z" class="C E S j"/><g transform="translate(111.056 116.654)" class="B"><path d="M0 0h45v16.866H0z" class="X"/><path d="M1.496 5.629h41.986v5.616H1.496z" fill="#3c2d11"/><path d="M0 0h1.56v16.456H0z" transform="translate(8.584 .259)" class="Q"/><path d="M8.584 5.881h1.56v5.233h-1.56z" class="R"/><path d="M0 0h1.56v16.456H0z" transform="translate(16.087 .259)" class="Q"/><path d="M16.087 5.881h1.56v5.233h-1.56z" class="R"/><path d="M0 0h1.56v16.456H0z" transform="translate(12.342 .259)" class="Q"/><path d="M12.342 5.881h1.56v5.233h-1.56z" class="R"/><path d="M0 0h1.56v16.456H0z" transform="translate(19.844 .259)" class="Q"/><path d="M19.844 5.881h1.56v5.233h-1.56z" class="R"/><path d="M0 0h1.56v16.456H0z" transform="translate(23.59 .259)" class="Q"/><path d="M23.59 5.881h1.56v5.233h-1.56z" class="R"/><path d="M0 0h1.56v16.456H0z" transform="translate(27.347 .259)" class="Q"/><path d="M27.347 5.881h1.56v5.233h-1.56z" class="R"/><path d="M0 0h1.56v16.456H0z" transform="translate(31.105 .259)" class="Q"/><path d="M31.105 5.881h1.56v5.233h-1.56z" class="R"/><path d="M0 0h1.56v16.456H0z" transform="translate(34.85 .259)" class="Q"/><path d="M34.85 5.881h1.56v5.233h-1.56z" class="R"/><path d="M0 0h1.56v16.456H0z" transform="translate(38.608 .259)" class="Q"/><path d="M38.608 5.881h1.56v5.233h-1.56z" class="R"/><path d="M0 0h1.56v16.456H0z" transform="translate(4.839 .259)" class="Q"/><path d="M4.839 5.881h1.56v5.233h-1.56z" class="R"/></g><path d="M131.056 69.762h5.28v5.16h-5.28z" class="B f"/><use xlink:href="#AF" x="91.099" y="-71.948" class="C F"/><path d="M125.156 81.331h5.28v5.16h-5.28z" class="B f"/><use xlink:href="#AF" x="85.199" y="-60.379" class="C F"/><path d="M136.956 81.331h5.28v5.16h-5.28z" class="B f"/><g class="C F"><use xlink:href="#AF" x="96.999" y="-60.379"/><path d="M124.157 78.136h18.48"/><path d="M127.857 78.136v3.24m11.8-3.24v3.24m-5.901-6.454v3.24" class="E s"/></g><g class="B"><path d="M127.456 140.095h12.187v5.625h-12.187z" fill="#7f7f7f"/><path d="M27.856 70.968h-3v4.8h3zm4.8-.044h-3.02v4.844h3.02zm4.7 0h-3.02v4.844h3.02zm4.8 0h-3.02v4.844h3.02zm9.5 0h-3.02v4.844h3.02zm-4.8 0h-3.02v4.844h3.02zm9.5 0h-3.02v4.844h3.02zm4.7 0h-3.02v4.844h3.02zm-3.1 27.356h3v-4.56h-3zm-4.7.047h3.02V93.72h-3.02zm-4.8 0h3.02V93.72h-3.02zm-4.7 0h3.02V93.72h-3.02zm-9.5 0h3.02V93.72h-3.02zm4.7 0h3.02V93.72h-3.02zm-9.5 0h3.02V93.72h-3.02zm-4.7 0h3.02V93.72h-3.02z" fill="#856427"/></g><g class="D"><path d="M182.83 61.748h20.979" stroke-width=".84"/><path d="M185.252 61.878c0-1.145-1.199-2.29-2.398-2.29s-2.398.802-2.398 2.29 1.199 2.29 2.398 2.29 2.398-1.145 2.398-2.29zm19.904-.164l-3.596-2.519v4.581l3.596-2.061zm-7.841 2.591h2.757v2.977h-2.757z" class="B"/><path d="M190.822 61.795l3.357 3.435 3.237.573m-9.966-4.187l3.357-3.435 3.237-.573" stroke-width=".84" class="F"/><ellipse cx="194.349" cy="57.495" rx="1.405" ry="1.342" class="B"/></g></g></symbol></svg>