<svg xmlns="http://www.w3.org/2000/svg" xmlns:xlink="http://www.w3.org/1999/xlink" viewBox="0 0 664 144" fill="#fff" fill-rule="evenodd" stroke="#000" stroke-linecap="round" stroke-linejoin="round"><style><![CDATA[.B{stroke-width:.32}.C{stroke-width:.96}.D{stroke:none}.E{stroke-linejoin:miter}.F{stroke:gray}.G{stroke:#a5a5a5}.H{fill:#d8d8d8}.I{fill:url(#J)}.J{stroke-dasharray:0.64, 0.32px}]]></style><use xlink:href="#Q" x=".5" y=".5"/><defs><linearGradient id="A" x1="0%" y1="50%" x2="100%" y2="50%"><stop offset="0%" stop-color="#f2f2f2"/></linearGradient><linearGradient id="B" x1="0%" y1="50%" x2="100%" y2="50%"><stop offset="0%" stop-color="#bfbfbf"/><stop offset="50%" stop-color="#fff"/><stop offset="100%" stop-color="#bfbfbf"/></linearGradient><linearGradient id="C" x1="0%" y1="50%" x2="100%" y2="50%"><stop offset="0%" stop-color="#d8d8d8"/><stop offset="50%" stop-color="#f2f2f2"/><stop offset="100%" stop-color="#d8d8d8"/></linearGradient><linearGradient id="D" x1="0%" y1="50%" x2="100%" y2="50%"><stop offset="0%" stop-color="#d8d8d8"/><stop offset="50%" stop-color="#fff"/><stop offset="100%" stop-color="#d8d8d8"/></linearGradient><radialGradient id="E" r="100%" fx="50%" fy="50%" cx="50%" cy="50%"><stop offset="0%" stop-color="#e2e2e2"/><stop offset="70.7%" stop-color="#d8d8d8"/></radialGradient><radialGradient id="F" r="100%" fx="50%" fy="50%" cx="50%" cy="50%"><stop offset="0%" stop-color="#bdbdbd"/><stop offset="100%" stop-color="#a5a5a5"/></radialGradient><radialGradient id="G" r="100%" fx="50%" fy="50%" cx="50%" cy="50%"><stop offset="0%" stop-color="#9d9d9d"/><stop offset="100%" stop-color="#7f7f7f"/></radialGradient><linearGradient id="H" x1="0%" y1="50%" x2="100%" y2="50%"><stop offset="0%" stop-color="#7f7f7f"/><stop offset="100%" stop-color="#f2f2f2"/></linearGradient><linearGradient id="I" x1="100%" y1="50%" x2="0%" y2="50%"><stop offset="0%" stop-color="#7f7f7f"/><stop offset="100%" stop-color="#f2f2f2"/></linearGradient><radialGradient id="J" r="100%" fx="50%" fy="50%" cx="50%" cy="50%"><stop offset="0%" stop-color="#bfbfbf"/><stop offset="70.7%" stop-color="#404040"/></radialGradient><linearGradient id="K" x1="50%" y1="0%" x2="50%" y2="100%"><stop offset="0%" stop-color="#7f7f7f"/><stop offset="100%" stop-color="#f2f2f2"/></linearGradient><linearGradient id="L" x1="50%" y1="100%" x2="50%" y2="0%"><stop offset="0%" stop-color="#7f7f7f"/><stop offset="100%" stop-color="#f2f2f2"/></linearGradient><path id="M" d="M150 69.375a6.1 6.1 0 0 0-12.2 0 6.1 6.1 0 1 0 12.2 0z"/><path id="N" d="M528.25 34.726c0-.377-.3-.683-.7-.683-.37 0-.68.306-.68.683v1.437a.68.68 0 0 0 .68.685.69.69 0 0 0 .69-.685v-1.437z"/><path id="O" d="M138.043 125.099q0-.498-.352-.765-.352-.267-1.266-.562-.914-.296-1.447-.583-1.453-.785-1.453-2.115 0-.691.39-1.233.39-.542 1.119-.847.729-.305 1.638-.305.914 0 1.629.331.715.331 1.11.935.396.604.396 1.371h-1.758q0-.586-.369-.911-.369-.325-1.037-.325-.645 0-1.002.272-.357.272-.357.718 0 .416.419.697.419.281 1.233.527 1.5.451 2.186 1.119.686.668.686 1.664 0 1.107-.838 1.737-.838.63-2.256.63-.984 0-1.793-.36-.809-.36-1.233-.987-.425-.627-.425-1.453h1.764q0 1.412 1.688 1.412.627 0 .979-.255.352-.255.352-.712z"/><path id="P" d="M145.935 124.496h1.758q-.1 1.377-1.017 2.168-.917.791-2.417.791-1.641 0-2.581-1.104-.94-1.104-.94-3.032v-.521q0-1.23.434-2.168.434-.937 1.239-1.438.806-.501 1.872-.501 1.477 0 2.379.791.902.791 1.043 2.221h-1.758q-.064-.826-.46-1.198-.396-.372-1.204-.372-.879 0-1.315.63-.437.63-.448 1.954v.645q0 1.383.419 2.021.419.639 1.321.639.814 0 1.216-.372.401-.372.46-1.151z"/></defs><symbol id="Q" overflow="visible"><path d="M651 66.375h6a6.01 6.01 0 0 0 6-6v-47.97a6.01 6.01 0 0 0-6-6h-.03l-65.6.328A3.36 3.36 0 0 1 588 3.392V0H70.125v.75a6 6 0 0 1-6 6H22.5a6 6 0 0 0-6 6h0v55.125a6 6 0 0 1-6 6h0H6a6 6 0 0 0-6 6h0v45.005a6.01 6.01 0 0 0 6 6v-.01h58.872a5.45 5.45 0 0 1 5.444 5.45l-.004.18h.001l-.188 5.62H564l30-.75v-6h-30v-18h75a6.02 6.02 0 0 0 6-6V72.375a6.01 6.01 0 0 1 6-6z" fill="url(#A)" class="C G"/><path d="M99 114.37h69.004v18.015H99z" class="D H"/><g stroke="#a6a6a6" class="C"><path d="M401.52 122.79l-2.23 1.88v7.5l2.23 1.87h71.27v-11.25h-71.27z" fill="#262626" class="E"/><path d="M621 132.17h-67.68v-7.5H621v7.5z" fill="url(#B)"/><path d="M480.29 134.02h73.68v-11.25h-73.68v11.25zm-7.15.1h6.84v-7.6h-6.84v7.6z" fill="#262626"/></g><g stroke="#9a9a9a" class="B"><path d="M630.4 58.792c10.5 2.235 20.88-4.648 23.16-15.372s-4.4-21.228-14.9-23.462-20.87 4.648-23.15 15.372 4.4 21.228 14.9 23.462z" fill="url(#C)" class="J"/><path d="M630.88 56.527c9.3 1.974 18.44-4.106 20.46-13.58 2-9.473-3.88-18.752-13.17-20.725-9.28-1.974-18.44 4.106-20.45 13.58-2.02 9.473 3.88 18.752 13.16 20.725z" fill="url(#D)"/></g><g class="G"><path d="M631.6 53.126c7.45 1.582 14.8-3.292 16.4-10.886 1.62-7.595-3.1-15.034-10.55-16.616s-14.8 3.292-16.4 10.886 3.1 15.034 10.55 16.616z" fill="url(#E)" class="C"/><g class="B"><path d="M639.95 27.143L625.84 49.72a5.48 5.48 0 0 0 3.44 2.154h0l14.12-22.587a5.5 5.5 0 0 0-3.45-2.154z" fill="url(#F)"/><path d="M631.04 40.4l-1.05 1.703c1.429 1.121 2.966 2.096 4.59 2.909l1.05-1.703 1.28.813c1.1-1.45 2.1-3.062 2.9-4.698h0l-1.3-.813 1-1.597c-1.4-1.112-3-2.1-4.6-2.91h0l-1 1.597-1.57-1a29.65 29.65 0 0 0-2.9 4.698h0l1.58 1z" fill="url(#G)"/></g></g><g stroke="#9a9a9a"><path d="M35.48 124.32c9.306-5.37 12.406-17.43 6.924-26.92S24.936 84.564 15.62 89.937 3.224 107.36 8.706 116.86s17.47 12.83 26.775 7.46z" fill="url(#C)" class="B J"/><path d="M34.323 122.32c8.22-4.74 10.96-15.4 6.116-23.77-4.842-8.392-15.43-11.344-23.65-6.598S5.82 107.32 10.672 115.72s15.43 11.34 23.65 6.6z" fill="url(#D)" class="B"/></g><g class="G"><path d="M32.585 119.3c6.6-3.8 8.785-12.34 4.903-19.06s-12.37-9.09-18.96-5.287-8.788 12.337-4.905 19.067c3.882 6.72 12.372 9.1 18.962 5.28z" fill="url(#E)" class="C"/><g class="B"><path d="M21.402 94.408l4.625 26.232c1.405.28 2.778.04 4.003-.7h0l-4.625-26.228a5.5 5.5 0 0 0-4.003.706z" fill="url(#F)"/><path d="M23.65 110.22l.36 1.97a26.96 26.96 0 0 0 5.357-.91h0l-.36-1.97 1.497-.25a29.88 29.88 0 0 0-.993-5.43h0l-1.497.26-.338-1.85c-1.811.122-3.606.427-5.356.91h0l.337 1.84-1.843.32c.157 1.8.498 3.67.993 5.42h0l1.843-.3z" fill="url(#G)"/></g></g><path d="M529.5 51.375l26.25.006a6.01 6.01 0 0 0 6-6v.001-15c0-3.314-2.68-6-6-6h0l-26.25-.006a6.01 6.01 0 0 0-6 6v-.001 15a6.01 6.01 0 0 0 6 6z" class="D H"/><g class="B F"><path fill="url(#H)" d="M597 7.125h6.75V117.38H597"/><path fill="url(#I)" d="M57.75 6.75h6.75v124.12h-6.75"/></g><path d="M107.99 111.37l48 .01a6.02 6.02 0 0 0 6-6h0l.01-67.497c0-3.314-2.68-6-6-6h0l-48-.01a6.01 6.01 0 0 0-6 6v-.001l-.01 67.5a6 6 0 0 0 6 6z" class="D H"/><use xlink:href="#M" fill="#000" class="C E"/><ellipse cx="143.903" cy="69.376" rx="5.088" ry="5.086" class="B F I"/><path d="M150 52.104a6.1 6.1 0 0 0-12.2 0 6.1 6.1 0 0 0 12.2 0z" fill="#000" class="C E"/><ellipse cx="143.903" cy="52.105" rx="5.088" ry="5.086" class="B F I"/><use xlink:href="#M" y="17.271" fill="#000" class="C E"/><g class="B F"><ellipse cx="143.903" cy="86.646" rx="5.088" ry="5.086" class="I"/><path fill="url(#K)" d="M70.125 6.75V0H588v6.188"/><path fill="url(#L)" d="M70.125 142.12v-6.75H588v6.188"/></g><g class="D"><path d="M535.79 40.608h1.38v5.473h-1.38zm12.51 1.569c-.05-.03-.5-.292-1.16-.292-.9 0-1.5.62-1.5 1.46 0 .814.6 1.462 1.5 1.462.65 0 1.1-.258 1.16-.29v1.47c-.17.05-.64.195-1.25.195-1.56 0-2.92-1.07-2.92-2.835 0-1.634 1.23-2.833 2.92-2.833.64 0 1.12.158 1.25.196v1.47zm-14.41 0c-.06-.03-.5-.292-1.16-.292-.9 0-1.52.62-1.52 1.46 0 .814.6 1.462 1.52 1.462.65 0 1.1-.258 1.16-.29v1.47c-.17.05-.65.195-1.26.195-1.56 0-2.92-1.07-2.92-2.835 0-1.634 1.24-2.833 2.92-2.833.65 0 1.13.158 1.26.196v1.47zm21.65 1.167c0 1.566-1.2 2.835-2.9 2.835s-2.9-1.27-2.9-2.835 1.2-2.833 2.9-2.833 2.9 1.27 2.9 2.833zm-2.9-1.44c-.82 0-1.43.645-1.43 1.44s.6 1.44 1.43 1.44 1.43-.644 1.43-1.44-.6-1.44-1.43-1.44zm-10.24-.052c-.02-.006-.6-.167-1.07-.167-.56 0-.86.186-.86.45 0 .333.4.45.63.52l.4.12c.9.285 1.3.9 1.3 1.566 0 1.375-1.2 1.837-2.27 1.837a8.28 8.28 0 0 1-1.49-.15v-1.26c.13.03.7.203 1.3.203.68 0 1-.2 1-.51 0-.277-.27-.437-.62-.545l-.3-.095c-.77-.243-1.4-.695-1.4-1.6 0-1.024.77-1.712 2.04-1.712.67 0 1.3.164 1.34.175v1.168z" fill="#c41230"/><g fill="#005568"><use xlink:href="#N"/><path d="M532.02 32.84a.68.68 0 0 0-.68-.684.69.69 0 0 0-.69.684v3.323a.69.69 0 0 0 .69.685.68.68 0 0 0 .68-.685V32.84zm3.76-2.58a.68.68 0 0 0-.68-.683c-.38 0-.7.306-.7.683v7.268c0 .38.3.685.7.685.37 0 .68-.305.68-.685V30.26zm3.77 2.58a.69.69 0 0 0-.69-.684.68.68 0 0 0-.68.684v3.323a.68.68 0 0 0 .68.685.69.69 0 0 0 .69-.685V32.84zm3.77 1.886a.68.68 0 0 0-.68-.683c-.38 0-.7.306-.7.683v1.437a.69.69 0 0 0 .69.685c.37 0 .68-.306.68-.685v-1.437zm3.76-1.886a.69.69 0 0 0-.69-.684c-.37 0-.68.307-.68.684v3.323a.68.68 0 0 0 .68.685.69.69 0 0 0 .69-.685V32.84zm3.77-2.58c0-.377-.3-.683-.7-.683-.37 0-.68.306-.68.683v7.268a.68.68 0 0 0 .68.685c.38 0 .7-.305.7-.685V30.26zm3.77 2.58a.69.69 0 0 0-.7-.684c-.37 0-.68.307-.68.684v3.323a.68.68 0 0 0 .68.685.69.69 0 0 0 .7-.685V32.84z"/><use xlink:href="#N" x="30.13"/></g><path d="M557.59 45.36v.086h-.25v.634h-.1v-.634H557v-.086h.6zm.05 0h.15l.22.59.2-.59h.16v.72h-.1v-.6l-.22.6h-.1l-.22-.6v.6h-.1v-.72z" fill="#c41230"/><g fill="#000"><path d="M113.891 118.806v8.531h-1.758l-3.422-5.613v5.613h-1.758v-8.531h1.758l3.428 5.625v-5.625h1.752zm5.314 5.121q-.662.65-1.547.65-1.131 0-1.811-.776-.68-.776-.68-2.095 0-.838.366-1.538.366-.7 1.022-1.09.656-.39 1.477-.39.844 0 1.5.422.656.422 1.02 1.213.363.791.369 1.811v.627q0 2.133-1.061 3.352-1.061 1.219-3.006 1.301l-.416.006v-1.412l.375-.006q2.209-.1 2.391-2.074zm-1.131-.645q.41 0 .706-.211.296-.211.448-.51v-.697q0-.861-.328-1.336-.328-.475-.879-.475-.51 0-.838.466-.328.466-.328 1.169 0 .697.319 1.146.319.448.899.448zm9.099 4.055l-2.191-3.422-.914.984v2.438h-1.758v-8.531h1.758v3.867l.773-1.061 2.174-2.807h2.162l-3.029 3.791 3.117 4.74h-2.092zm4.975-4.335v1.365h-3.299v-1.365h3.299z"/><use xlink:href="#O"/><use xlink:href="#P"/><path d="M152.029 123.002v1.365h-3.299v-1.365h3.299zm6.879 4.335l-.592-1.758h-3.082l-.586 1.758h-1.869l3.176-8.531h1.629l3.193 8.531h-1.869zm-2.139-6.375l-1.061 3.193h2.133l-1.072-3.193zM114.056 56h-3.316v-8.531h2.988q1.553 0 2.355.595.803.595.803 1.743 0 .627-.322 1.104-.322.478-.896.7.656.164 1.034.662.378.498.378 1.219 0 1.23-.785 1.863-.785.633-2.238.645zm.053-3.715h-1.611v2.303h1.506q.621 0 .97-.296.349-.296.349-.817 0-1.172-1.213-1.189zm-1.611-3.393v2.15h1.301q1.33-.023 1.33-1.061 0-.58-.337-.835-.337-.255-1.063-.255h-1.23z"/><use xlink:href="#P" x="-22.598" y="-71.337"/><path d="M133.188 47.469V56h-1.758l-3.422-5.613V56h-1.758v-8.531h1.758l3.428 5.625v-5.625h1.752z"/><use xlink:href="#O" x="-21.931" y="-53.337"/><path d="M125.487 65.469v1.424h-2.613V74h-1.758v-7.107h-2.578v-1.424h6.949z"/><use xlink:href="#O" x="-7.224" y="-53.337"/><path d="M116.611 91l-.592-1.758h-3.082L112.351 91h-1.869l3.176-8.531h1.629L118.48 91h-1.869zm-2.139-6.375l-1.061 3.193h2.133l-1.072-3.193z"/><use xlink:href="#P" x="-21.842" y="-36.337"/><path d="M133.257 82.469v1.424h-2.613V91h-1.758v-7.107h-2.578v-1.424h6.949z"/></g></g></symbol></svg>