<svg xmlns="http://www.w3.org/2000/svg" xmlns:xlink="http://www.w3.org/1999/xlink" viewBox="0 0 2281.2 206.1" fill="#fff" fill-rule="evenodd" stroke="#000" stroke-linecap="round" stroke-linejoin="round"><style><![CDATA[.B{stroke:none}.C{stroke-linejoin:miter}.D{stroke-width:1.2}.E{fill:#000}.F{fill:url(#P)}.G{stroke:#ddd}.H{stroke-width:.12}.I{fill:#ac2f54}.J{fill:none}.K{stroke:#404040}.L{fill:#701f37}.M{fill:url(#J)}.N{fill:url(#K)}.O{fill:#404040}.P{fill:#262626}.Q{stroke-width:2.04}.R{stroke:gray}.S{fill-opacity:0}.T{fill:#b2b2b2}.U{fill:#ddd}.V{fill:url(#R)}.W{fill:#d9d9d9}.X{stroke:#595959}.Y{fill:url(#S)}.Z{fill:url(#T)}.a{stroke:#262626}.b{stroke-width:.36}.c{stroke-width:.399}.d{stroke:#737373}.e{fill:url(#A)}.f{fill-rule:nonzero}.g{stroke-linecap:square}.h{stroke-width:1.248}.i{stroke-width:4.991}.j{stroke-width:2.52}]]></style><use xlink:href="#w" x=".6" y=".5"/><defs><linearGradient id="A" x1="0%" y1="50%" x2="100%" y2="50%"><stop offset="0%" stop-color="#737373"/><stop offset="1%" stop-color="#737373"/><stop offset="50%" stop-color="#c1c5cb"/><stop offset="100%" stop-color="#737373"/></linearGradient><linearGradient id="B" x1="100%" y1="50%" x2="0%" y2="50%"><stop offset="0%" stop-color="#737373"/><stop offset="100%" stop-color="#c1c5cb"/></linearGradient><linearGradient id="C" x1="0%" y1="50%" x2="100%" y2="50%"><stop offset="0%" stop-color="#737373"/><stop offset="100%" stop-color="#c1c5cb"/></linearGradient><linearGradient id="D" x1="50%" y1="0%" x2="50%" y2="100%"><stop offset="0%" stop-color="#737373"/><stop offset="100%" stop-color="#c1c5cb"/></linearGradient><radialGradient id="E" r="100%" fx="50%" fy="50%" cx="50%" cy="50%"><stop offset="0%" stop-color="gray"/><stop offset="71%" stop-color="#262626"/></radialGradient><radialGradient id="F" r="100%" fx="50%" fy="50%" cx="50%" cy="50%"><stop offset="0%" stop-color="#fff"/><stop offset="71%" stop-color="#b2b2b2"/></radialGradient><radialGradient id="G" r="100%" fx="50%" fy="50%" cx="50%" cy="50%"><stop offset="0%" stop-color="#b3b3b3"/><stop offset="100%" stop-color="#333"/></radialGradient><linearGradient id="H" x1="50%" y1="0%" x2="50%" y2="100%"><stop offset="0%" stop-color="#fff"/><stop offset="1%" stop-color="#fff"/><stop offset="50%" stop-color="#9a9a9a"/><stop offset="100%" stop-color="#fff"/></linearGradient><radialGradient id="I" r="100%" fx="50%" fy="50%" cx="50%" cy="50%"><stop offset="0%" stop-color="#1e1e1e"/><stop offset="71%" stop-color="#7f7f7f"/></radialGradient><linearGradient id="J" x1="50%" y1="0%" x2="50%" y2="100%"><stop offset="0%" stop-color="#99732d"/><stop offset="1%" stop-color="#99732d"/><stop offset="50%" stop-color="#6b511f"/><stop offset="100%" stop-color="#99732d"/></linearGradient><linearGradient id="K" x1="50%" y1="0%" x2="50%" y2="100%"><stop offset="0%" stop-color="#3c2d11"/><stop offset="1%" stop-color="#3c2d11"/><stop offset="50%" stop-color="#765923"/><stop offset="100%" stop-color="#3c2d11"/></linearGradient><linearGradient id="L" x1="50%" y1="100%" x2="50%" y2="0%"><stop offset="0%" stop-color="#7f7f7f"/><stop offset="100%" stop-color="#bfbfbf"/></linearGradient><linearGradient id="M" x1="50%" y1="100%" x2="50%" y2="0%"><stop offset="0%" stop-color="#2f8195"/><stop offset="100%" stop-color="#205867"/></linearGradient><radialGradient id="N" r="100%" fx="50%" fy="50%" cx="50%" cy="50%"><stop offset="0%" stop-color="#f48f3e"/><stop offset="71%" stop-color="#ea700d"/></radialGradient><radialGradient id="O" r="100%" fx="50%" fy="50%" cx="50%" cy="50%"><stop offset="0%" stop-color="#00ec6a"/><stop offset="71%" stop-color="#00b050"/></radialGradient><linearGradient id="P" x1="0%" y1="50%" x2="100%" y2="50%"><stop offset="0%" stop-color="#701f37"/><stop offset="1%" stop-color="#701f37"/><stop offset="50%" stop-color="#ac2f54"/><stop offset="100%" stop-color="#701f37"/></linearGradient><linearGradient id="Q" x1="0%" y1="50%" x2="100%" y2="50%"><stop offset="0%" stop-color="#737373"/><stop offset="1%" stop-color="#737373"/><stop offset="50%" stop-color="#fff"/><stop offset="100%" stop-color="#737373"/></linearGradient><radialGradient id="R" r="100%" fx="50%" fy="50%" cx="50%" cy="50%"><stop offset="0%" stop-color="#fff"/><stop offset="71%" stop-color="gray"/></radialGradient><radialGradient id="S" r="100%" fx="50%" fy="50%" cx="50%" cy="50%"><stop offset="0%" stop-color="#777"/><stop offset="71%" stop-color="#595959"/></radialGradient><radialGradient id="T" r="100%" fx="50%" fy="50%" cx="50%" cy="50%"><stop offset="0%" stop-color="#737373"/><stop offset="71%" stop-color="#404040"/></radialGradient><path id="U" d="M1915.46 144.814h79.92a18 18 0 0 0 18-18v-22.56a18 18 0 0 0-4.44-11.88l-17.76-20.16a18 18 0 0 0-13.56-6.12h-44.4a18 18 0 0 0-13.56 6.12l-17.64 20.28a18 18 0 0 0-4.44 11.88v22.56a18 18 0 0 0 18 18z"/><path id="V" d="M1924.23 126.433h7.44l.12-14.88-7.56-.12-.12 14.88z"/><path id="W" d="M1926.58 122.793h2.88l.12-7.68-3-.12-.12 7.68z"/><path id="X" d="M2114.93 74.683h-19.2l3.6 6.72h11.52l3.6-6.72zm-51.43 6.72h7.68l4.8-8.88-5.4-9.6h-7.08v18.48zm0 69.89h7.68l4.8-8.88-5.4-9.6h-7.08v18.48zm0-23.35h7.68l4.8-8.88-5.4-9.6h-7.08v18.48zm0-23.24h7.68l4.8-8.88-5.4-9.6h-7.08v18.48zm0-45.659h8.4l4.2-7.44h-12.6v7.44zm27.8 57.319l4.8-8.88-5.4-9.6h-10.8l-5.04 9.6 4.8 8.88h11.52zm0-23.235l4.8-8.88-5.4-9.6h-10.8l-5.04 9.6 4.8 8.88h11.52zm19.68 58.295l4.8-8.88-5.4-9.6h-10.8l-5.04 9.6 4.8 8.88h11.52zm0-23.44l4.8-8.88-5.4-9.6h-10.8l-5.04 9.6 4.8 8.88h11.52zm0-23.34l4.8-8.88-5.4-9.6h-10.8l-5.04 9.6 4.8 8.88h11.52zm-19.68 58.51l4.8-8.88-5.4-9.6h-10.8l-5.04 9.6 4.8 8.88h11.52zm0-23.44l4.8-8.88-5.4-9.6h-10.8l-5.04 9.6 4.8 8.88h11.52z"/><path id="Y" d="M.913 189.24h185.64V0H.913v189.24z"/><path id="Z" d="M37.357 184.677l8.88-5.16v-10.44l-8.88-5.16-8.88 5.16v10.44l8.88 5.16zm22.55 0l8.88-5.16v-10.44l-8.88-5.16-8.88 5.16v10.44l8.88 5.16zm90.187 0l8.88-5.16v-10.44l-8.88-5.16-8.88 5.16v10.44l8.88 5.16zm-22.55 0l8.88-5.16v-10.44l-8.88-5.16-8.88 5.16v10.44l8.88 5.16zm-22.55 0l8.88-5.16v-10.44l-8.88-5.16-8.88 5.16v10.44l8.88 5.16zm-22.55 0l8.88-5.16v-10.44l-8.88-5.16-8.88 5.16v10.44l8.88 5.16zm-56.362-19.912l8.88-5.16v-10.44l-8.88-5.16-8.88 5.16v10.44l8.88 5.16zm22.55 0l8.88-5.16v-10.44l-8.88-5.16-8.88 5.16v10.44l8.88 5.16zm112.738 0l8.88-5.16v-10.44l-8.88-5.16-8.88 5.16v10.44l8.88 5.16zm-22.55 0l8.88-5.16v-10.44l-8.88-5.16-8.88 5.16v10.44l8.88 5.16zm-22.55 0l8.88-5.16v-10.44l-8.88-5.16-8.88 5.16v10.44l8.88 5.16zm-22.55 0l8.88-5.16v-10.44l-8.88-5.16-8.88 5.16v10.44l8.88 5.16zm-22.55 0l8.88-5.16v-10.44l-8.88-5.16-8.88 5.16v10.44l8.88 5.16zm-33.813-19.9l8.88-5.16v-10.44l-8.88-5.16-8.88 5.16v10.44l8.88 5.16zm22.55 0l8.88-5.16v-10.44l-8.88-5.16-8.88 5.16v10.44l8.88 5.16zm90.187 0l8.88-5.16v-10.44l-8.88-5.16-8.88 5.16v10.44l8.88 5.16zm-22.55 0l8.88-5.16v-10.44l-8.88-5.16-8.88 5.16v10.44l8.88 5.16zm-22.55 0l8.88-5.16v-10.44l-8.88-5.16-8.88 5.16v10.44l8.88 5.16zm-22.55 0l8.88-5.16v-10.44l-8.88-5.16-8.88 5.16v10.44l8.88 5.16zm-56.362-19.912l8.88-5.16v-10.44l-8.88-5.16-8.88 5.16v10.44l8.88 5.16zm22.55 0l8.88-5.16v-10.44l-8.88-5.16-8.88 5.16v10.44l8.88 5.16zm112.738 0l8.88-5.16v-10.44l-8.88-5.16-8.88 5.16v10.44l8.88 5.16zm-22.55 0l8.88-5.16v-10.44l-8.88-5.16-8.88 5.16v10.44l8.88 5.16zm-22.55 0l8.88-5.16v-10.44l-8.88-5.16-8.88 5.16v10.44l8.88 5.16zm-22.55 0l8.88-5.16v-10.44l-8.88-5.16-8.88 5.16v10.44l8.88 5.16zm-22.55 0l8.88-5.16v-10.44l-8.88-5.16-8.88 5.16v10.44l8.88 5.16zm-33.813-19.914l8.88-5.16v-10.44l-8.88-5.16-8.88 5.16v10.44l8.88 5.16zm22.55 0l8.88-5.16v-10.44l-8.88-5.16-8.88 5.16v10.44l8.88 5.16zm90.187 0l8.88-5.16v-10.44l-8.88-5.16-8.88 5.16v10.44l8.88 5.16zm-22.55 0l8.88-5.16v-10.44l-8.88-5.16-8.88 5.16v10.44l8.88 5.16zm-22.55 0l8.88-5.16v-10.44l-8.88-5.16-8.88 5.16v10.44l8.88 5.16zm-22.55 0l8.88-5.16v-10.44l-8.88-5.16-8.88 5.16v10.44l8.88 5.16zm-56.362-19.91l8.88-5.16v-10.44l-8.88-5.16-8.88 5.16v10.44l8.88 5.16zm22.55 0l8.88-5.16v-10.44l-8.88-5.16-8.88 5.16v10.44l8.88 5.16zm112.738 0l8.88-5.16v-10.44l-8.88-5.16-8.88 5.16v10.44l8.88 5.16zm-22.55 0l8.88-5.16v-10.44l-8.88-5.16-8.88 5.16v10.44l8.88 5.16zm-22.55 0l8.88-5.16v-10.44l-8.88-5.16-8.88 5.16v10.44l8.88 5.16zm-22.55 0l8.88-5.16v-10.44l-8.88-5.16-8.88 5.16v10.44l8.88 5.16zm-22.55 0l8.88-5.16v-10.44l-8.88-5.16-8.88 5.16v10.44l8.88 5.16zm-33.813-19.91l8.88-5.16v-10.44l-8.88-5.16-8.88 5.16v10.44l8.88 5.16zm22.55 0l8.88-5.16v-10.44l-8.88-5.16-8.88 5.16v10.44l8.88 5.16zm90.187 0l8.88-5.16v-10.44l-8.88-5.16-8.88 5.16v10.44l8.88 5.16zm-22.55 0l8.88-5.16v-10.44l-8.88-5.16-8.88 5.16v10.44l8.88 5.16zm-22.55 0l8.88-5.16v-10.44l-8.88-5.16-8.88 5.16v10.44l8.88 5.16zm-22.55 0l8.88-5.16v-10.44l-8.88-5.16-8.88 5.16v10.44l8.88 5.16zM37.357 25.397l8.88-5.16V9.797l-8.88-5.16-8.88 5.16v10.44l8.88 5.16zm22.55 0l8.88-5.16V9.797l-8.88-5.16-8.88 5.16v10.44l8.88 5.16zm90.187 0l8.88-5.16V9.797l-8.88-5.16-8.88 5.16v10.44l8.88 5.16zm-22.55 0l8.88-5.16V9.797l-8.88-5.16-8.88 5.16v10.44l8.88 5.16zm-22.55 0l8.88-5.16V9.797l-8.88-5.16-8.88 5.16v10.44l8.88 5.16zm-22.55 0l8.88-5.16V9.797l-8.88-5.16-8.88 5.16v10.44l8.88 5.16zM26.082 45.308l8.88-5.16v-10.44l-8.88-5.16-8.88 5.16v10.44l8.88 5.16zm22.55 0l8.88-5.16v-10.44l-8.88-5.16-8.88 5.16v10.44l8.88 5.16zm112.738 0l8.88-5.16v-10.44l-8.88-5.16-8.88 5.16v10.44l8.88 5.16zm-22.55 0l8.88-5.16v-10.44l-8.88-5.16-8.88 5.16v10.44l8.88 5.16zm-22.55 0l8.88-5.16v-10.44l-8.88-5.16-8.88 5.16v10.44l8.88 5.16zm-22.55 0l8.88-5.16v-10.44l-8.88-5.16-8.88 5.16v10.44l8.88 5.16zm-22.55 0l8.88-5.16v-10.44l-8.88-5.16-8.88 5.16v10.44l8.88 5.16z"/><path id="a" d="M47.938 11.204h-36v36.72a94.8 94.8 0 0 1 36-36.72z"/><path id="b" d="M175.55 47.924v-36.72h-36a94.8 94.8 0 0 1 36 36.72z"/><path id="c" d="M47.938 178.003a94.8 94.8 0 0 1-36-36.72v36.72h36z"/><path id="d" d="M139.55 178.003h36v-36.72a94.8 94.8 0 0 1-36 36.72z"/><path id="e" d="M93.675 2.827h-90v55.2h27.96v73.44H3.675v54.96h180v-55.2h-27.6v-73.44h27.6v-55.2h-90zm0 175.2h-81.6v-36.6h20.4c5.52 0 9.96-4.44 10.08-10.08v-73.44c-2.88-5.4-6-9.48-11.28-10.2h-19.2v-36.48h163.56v36.6h-19.2c-5.28.84-9.6 4.8-11.04 10.08v73.44c.12 5.64 4.56 10.08 10.08 10.08h20.16v36.6h-81.96z"/><path id="f" d="M44.113 119.915h99.24v-50.64h-99.24v50.64z"/><path id="g" d="M53.988 93.675c0 3.105 2.517 5.623 5.622 5.623h68.269c3.105 0 5.623-2.517 5.623-5.623s-2.517-5.622-5.623-5.622H59.61c-3.105 0-5.622 2.517-5.622 5.622z"/><path id="h" d="M8.04 127.702l47.52-3.6c3.96-.6 6.84-3.72 6.84-7.8v-42.36c0-3.96-3-7.2-6.96-7.44l-47.52-3.6c-3.96-.36-7.56 2.76-7.92 6.84v50.4c0 4.2 3.36 7.44 7.56 7.44z"/><path id="i" d="M18.135 117.02l24.6-2.04c3.96-.36 6.84-3.6 6.84-7.56V82.94c0-3.84-3-7.2-6.84-7.44l-24.6-2.16c-4.2-.24-7.8 2.88-8.16 6.96v29.28c0 4.2 3.36 7.44 7.56 7.44z"/><path id="j" d="M32.425 96.19c4.32 3.6 4.44 9.24.24 12.84l-.24-12.84z"/><path id="k" d="M31.875 93.196l-.6-12a7.2 7.2 0 0 0-.36 11.52z"/><path id="l" d="M31.955 95.898h5.52c1.44-2.64.48-5.64-2.4-7.44-1.92.6-3.24 2.16-3.24 3.96-.48 1.2-.48 2.4.12 3.6z"/><path id="m" d="M32.485 96.19h-5.64c-1.08 2.16-.6 4.8 1.08 6.6 3.12-1.2 4.8-3.6 4.44-6.6z"/><path id="n" d="M33.535 94.84c0 1.44-.72 2.4-1.68 2.4s-1.68-.84-1.68-2.4.72-2.4 1.68-2.4 1.68 1.2 1.68 2.4z"/><path id="o" d="M40.065 106.12v-4.08h2.04v-4.8l4.8 6.84-4.8 6.84v-4.8h-2.04z"/><path id="p" d="M179.46 127.702l-47.52-3.6c-3.96-.6-6.84-3.72-6.84-7.8v-42.36c0-3.96 3-7.2 6.96-7.44l47.52-3.6c3.96-.36 7.56 2.76 7.92 6.84v50.4c0 4.2-3.36 7.44-7.56 7.44z"/><path id="q" d="M169.353 117.02l-24.6-2.04c-3.96-.36-6.84-3.6-6.84-7.56V82.94c0-3.84 3-7.2 6.84-7.44l24.6-2.16c4.2-.24 7.8 2.88 8.16 6.96v29.28c0 4.2-3.36 7.44-7.56 7.44z"/><path id="r" d="M388.895 26.556v1.418h-3.375v3.486h-1.758v-8.531h5.555v1.424h-3.797v2.203h3.375z"/><path id="s" d="M394.62 31.46l-.592-1.758h-3.082l-.586 1.758h-1.869l3.176-8.531h1.629l3.193 8.531h-1.869zm-2.139-6.375l-1.061 3.193h2.133l-1.072-3.193z"/><path id="t" d="M402.541 22.929v7.119h3.732v1.412h-5.49v-8.531h1.758z"/><path id="u" d="M390.77 55.507v.381q0 1.26-.445 2.209-.445.949-1.274 1.465-.829.516-1.901.516-1.061 0-1.893-.51-.832-.51-1.289-1.456-.457-.946-.463-2.177v-.422q0-1.26.454-2.218.454-.958 1.283-1.471.829-.513 1.896-.513 1.066 0 1.896.513.829.513 1.283 1.471.454.958.454 2.212zm-1.781.41v-.416q0-1.342-.48-2.039-.48-.697-1.371-.697-.885 0-1.365.688-.48.688-.486 2.019v.416q0 1.307.48 2.027.48.721 1.383.721.885 0 1.359-.694.475-.694.48-2.024z"/><path id="v" d="M396.91 59.96l-2.191-3.422-.914.984v2.438h-1.758v-8.531h1.758v3.867l.773-1.061 2.174-2.807h2.162l-3.029 3.791 3.117 4.74h-2.092z"/></defs><symbol id="w" overflow="visible"><g class="C"><path d="M2236.08 187.62h-8.88c-6.48 0-11.76-5.16-12-11.52s5.28-11.64 11.76-11.64h22.8c6.6 0 12 5.16 12 11.52s-5.16 11.64-11.76 11.64h-13.8zm0-73.44h-8.88c-6.48 0-11.76-5.16-12-11.52s5.28-11.64 11.76-11.64h22.8c6.6 0 12 5.16 12 11.52s-5.16 11.64-11.76 11.64h-13.8zm0-73.44h-8.88c-6.48 0-11.76-5.16-12-11.52s5.28-11.64 11.76-11.64h22.8c6.6 0 12 5.16 12 11.52s-5.16 11.64-11.76 11.64h-13.8zM39.24 187.62h-8.88c-6.48 0-12-5.16-12-11.52s5.4-11.52 11.88-11.52h22.8c6.48 0 12 5.16 12 11.52s-5.28 11.64-11.76 11.64H39.24zm0-73.44h-8.88c-6.48 0-12-5.16-12-11.52s5.28-11.64 11.76-11.64h22.8c6.48 0 12 5.16 12 11.52s-5.4 11.64-11.88 11.64h-13.8zm0-73.44h-8.88c-6.48 0-12-5.16-12-11.52s5.28-11.64 11.76-11.64h22.8c6.48 0 12 5.16 12 11.52s-5.28 11.64-11.76 11.64H39.24zM24 204.18h2232c12 0 24-5.16 24-11.64v-180c0-6.36-12-11.64-24-11.64H24C10.8.9 0 6.06 0 12.54v180c0 6.48 12 11.64 24 11.64z" fill="#a6a6a6" class="D"/><g class="R b"><path d="M128.16 198.77h2024.88c1.56 0 2.76-1.2 2.76-2.88V8.21c0-1.68-1.2-2.88-2.64-2.88h-2025c-1.44 0-2.64 1.2-2.64 2.88v187.68c-.12 1.68 1.08 2.88 2.64 2.88z" class="E"/><path d="M128.16 204h2025.12c3.96 0 7.32-3.6 7.32-8.16V8.16c0-4.56-3.36-8.16-7.44-8.16h-2025c-4.2 0-7.56 3.6-7.56 8.16v187.68c0 4.56 3.36 8.16 7.56 8.16zm0-5.28c-1.56 0-2.76-1.32-2.76-2.88V8.16c0-1.68 1.2-3 2.76-3h2025.12c1.44 0 2.64 1.2 2.64 3v187.68c0 1.68-1.2 2.88-2.64 2.88H128.16z" fill="#d1d3d0"/></g></g><g class="B e"><path d="M1025.3 7.622h15.909V197.14H1025.3z"/><path d="M1233.6 7.622h15.909V197.14H1233.6z"/><path d="M1441.9 7.622h15.909V197.14H1441.9z"/></g><path d="M1661.04 203.26h196.56c4.08 0 7.56-3.36 7.56-7.44V7.66h-211.32l-.24 188.04c0 4.2 3.36 7.56 7.44 7.56z" fill="#c1c5cb" class="B"/><path d="M1864.7 14.327h5.615V193.05h-5.615z" fill="url(#B)" class="B"/><path d="M1655.6 14.327h-5.615V193.05h5.615z" fill="url(#C)" class="B"/><path d="M1653.8 13.461V7.738h212.141v5.723H1653.8z" fill="url(#D)" class="B"/><g class="R b"><path d="M2149.1 197.14h5.64V7.3h-5.64v189.84z" fill="#d1d3d0"/><path d="M1852.4 26.339v10.32l7.68-5.16-7.68-5.16z" fill="#595959" class="C"/></g><path d="M1849.455 47.457v-7.158h2.087c.79 0 1.307.036 1.547.107.37.107.678.34.927.7s.374.824.374 1.394c0 .44-.072.81-.215 1.108s-.326.535-.547.706a1.8 1.8 0 0 1-.675.339c-.31.068-.76.103-1.35.103h-.848v2.701zm1.3-5.947v2.03h.712c.513 0 .855-.037 1.028-.112a.87.87 0 0 0 .406-.352 1.04 1.04 0 0 0 .147-.557c0-.26-.07-.475-.206-.645a.88.88 0 0 0-.523-.317c-.155-.033-.467-.05-.936-.05zm8.598 4.673v1.274h-4.33c.047-.482.188-.938.422-1.37s.697-1.003 1.39-1.716l1.025-1.172c.17-.283.255-.563.255-.84 0-.306-.074-.54-.222-.705s-.353-.247-.613-.247-.463.086-.615.26-.24.46-.264.86l-1.23-.137c.073-.755.303-1.297.7-1.626s.87-.493 1.45-.493c.636 0 1.135.2 1.5.57s.545.855.545 1.42a2.71 2.71 0 0 1-.156.92 3.89 3.89 0 0 1-.495.915c-.15.212-.42.516-.81.913l-.74.79a2.43 2.43 0 0 0-.253.38z" class="B E f"/><path d="M1715.9 178.46h18.248v-11.922H1715.9v11.922z" fill="url(#E)" class="R c"/><path d="M1709.88 185.466h3.434c.68 0 1.186.03 1.52.094a2.11 2.11 0 0 1 .896.394c.264.2.483.465.66.798s.264.704.264 1.117a2.4 2.4 0 0 1-.325 1.23 2.09 2.09 0 0 1-.882.84c.523.17.926.458 1.207.866s.422.888.422 1.44a3.09 3.09 0 0 1-.272 1.266 2.51 2.51 0 0 1-.744.983c-.314.245-.702.396-1.163.452-.29.035-.986.056-2.092.065h-2.925zm1.734 1.588v2.207h1.136l1.25-.031c.297-.04.53-.153.7-.342s.255-.437.255-.745c0-.295-.073-.535-.22-.72s-.364-.296-.653-.335c-.172-.022-.666-.033-1.482-.033zm0 3.796v2.552h1.606l1.19-.06a1.05 1.05 0 0 0 .63-.381c.162-.202.243-.472.243-.81 0-.286-.062-.53-.187-.73s-.306-.345-.542-.436-.75-.137-1.538-.137zm12.756.65l1.682.592c-.258 1.042-.687 1.815-1.286 2.32s-1.36.758-2.283.758a3.52 3.52 0 0 1-2.812-1.299c-.735-.866-1.102-2.05-1.102-3.55 0-1.588.37-2.822 1.108-3.7s1.71-1.318 2.912-1.318c1.05 0 1.904.345 2.56 1.035.39.408.684.994.88 1.758l-1.716.456c-.102-.495-.314-.885-.636-1.172s-.714-.43-1.175-.43c-.637 0-1.153.254-1.55.762s-.595 1.33-.595 2.467c0 1.207.196 2.066.586 2.578s.9.768 1.524.768c.46 0 .857-.163 1.19-.488s.57-.838.715-1.537zm2.52 3.51v-9.544h1.687l3.516 6.374v-6.374h1.61v9.544h-1.74l-3.463-6.224v6.224z" class="B E f"/><path d="M1775.6 178.46h18.248v-11.922H1775.6v11.922z" fill="url(#E)" class="R c"/><path d="M1774.234 191.905l1.688-.182c.1.63.308 1.092.618 1.387s.73.443 1.257.443c.56 0 .98-.13 1.263-.394s.425-.57.425-.92a.93.93 0 0 0-.179-.576c-.12-.158-.327-.296-.624-.413-.203-.078-.666-.217-1.39-.417-.93-.256-1.582-.57-1.957-.944-.527-.525-.79-1.165-.79-1.92a2.65 2.65 0 0 1 .372-1.364 2.4 2.4 0 0 1 1.072-.967c.467-.22 1.03-.332 1.7-.332 1.078 0 1.9.263 2.435.788s.83 1.226.858 2.103l-1.734.085c-.074-.5-.233-.843-.478-1.058s-.6-.322-1.1-.322-.898.115-1.184.345a.72.72 0 0 0-.275.592c0 .226.086.42.258.58.22.204.75.417 1.594.638s1.468.45 1.872.687a2.53 2.53 0 0 1 .949.97c.23.4.343.917.343 1.52a3.04 3.04 0 0 1-.41 1.536c-.273.477-.66.832-1.16 1.064s-1.132.346-1.877.346c-1.087 0-1.92-.27-2.503-.837s-.93-1.371-1.043-2.438zm10.373 3.105v-7.93h-2.55v-1.614h6.826v1.614h-2.543v7.93zm4.627-3.105l1.687-.182c.102.63.308 1.092.618 1.387s.73.443 1.257.443c.56 0 .98-.13 1.263-.394s.425-.57.425-.92c0-.226-.06-.418-.18-.576s-.327-.296-.624-.413c-.203-.078-.666-.217-1.39-.417-.93-.256-1.582-.57-1.957-.944-.527-.525-.79-1.165-.79-1.92a2.65 2.65 0 0 1 .372-1.364c.248-.423.606-.745 1.072-.967s1.03-.332 1.69-.332c1.078 0 1.9.263 2.434.788s.832 1.226.86 2.103l-1.735.085c-.074-.5-.233-.843-.477-1.058s-.6-.322-1.1-.322-.898.115-1.183.345a.72.72 0 0 0-.276.592c0 .226.086.42.258.58.22.204.75.417 1.594.638s1.468.45 1.872.687a2.53 2.53 0 0 1 .949.97c.23.4.343.917.343 1.52 0 .547-.137 1.06-.4 1.536a2.54 2.54 0 0 1-1.16 1.064c-.5.232-1.123.348-1.87.348-1.086 0-1.92-.28-2.502-.837s-.93-1.37-1.043-2.438z" class="B E f"/><path d="M1765.96 178.783c0-6.753-5.028-12.228-11.23-12.228s-11.23 5.475-11.23 12.228 5.028 12.227 11.23 12.227 11.23-5.474 11.23-12.227z" fill="url(#F)" stroke="#8c8c8c" class="C c"/><g stroke="#5f5f5f" stroke-width="3.6" class="J"><path d="M1759.5 178.76h-9.6"/><path d="M1754.8 184.12v-10.44"/></g><g class="C"><path d="M1852.5 140.82V79.38c0-1.2-1.2-2.4-2.4-2.4h-21.6c-1.2 0-2.4 1.2-2.4 2.4v61.44c0 1.2 1.2 2.4 2.4 2.4h21.6c1.2 0 2.4-1.2 2.4-2.4z" fill="#969696" class="b"/><path d="M1850.7 139.212V81.205a2.36 2.36 0 0 0-2.358-2.358h-18.619a2.36 2.36 0 0 0-2.358 2.358v58.007a2.36 2.36 0 0 0 2.358 2.358h18.619a2.36 2.36 0 0 0 2.358-2.358z" fill="url(#G)" class="c"/><g fill="silver" class="b"><path d="M1851.5 141.57v-31.44h-2.4v31.44h2.4z"/><path d="M1851.5 110.15V78.71h-2.4v31.44h2.4z"/></g></g><g class="B"><path d="M1835.4 135.46V84.82h-4.44v50.64h4.44z" fill="silver"/><path d="M1699.5 149.01h5.28v5.16h-5.28z" class="S"/></g><path d="M1704.78 154.17v-5.16h-5.28v5.16h5.28z" class="D J"/><path d="M1693.6 160.58h5.28v5.16h-5.28z" class="B S"/><path d="M1698.88 165.74v-5.16h-5.28v5.16h5.28z" class="D J"/><path d="M1705.4 160.58h5.28v5.16h-5.28z" class="B S"/><g class="D"><g class="J"><path d="M1710.68 165.74v-5.16h-5.28v5.16h5.28zm-18.08-8.36h18.48"/><path d="M1696.2 157.38v3.24m11.8-3.24v3.24m-5.9-6.45v3.24" class="C g"/></g><path d="M1742.4 35.958h-80.64v110.4h80.64v-110.4z" class="E R"/></g><path d="M1667.015 40.041h70.165c.782 0 1.415.633 1.415 1.415v99.564c0 .781-.633 1.415-1.415 1.415h-70.165c-.782 0-1.415-.634-1.415-1.415V41.456c0-.781.633-1.415 1.415-1.415z" fill="url(#H)" stroke-width="1.198" class="C R"/><g transform="matrix(-1 0 0 -1 1731.00015 142.08)"><path d="M19 0l-1 3-3.5 1.5L13 10 0 12.5v30h59.5v-30l-13-2-1.5-6L41.5 3l-1-3H19z" class="B P"/></g><g fill="url(#I)" class="c d"><path d="M1718.8 132.35h17.245v7.45H1718.8v-7.45z"/><path d="M1668.6 132.28h17.245v7.45H1668.6v-7.45z"/></g><g class="P"><path d="M1713 41.5l1 3 3.5 1.5 1.5 5.5 13 2.5v30h-59.5V54l13-2 1.5-6 3.5-1.5 1-3h21.5z" class="B"/><path d="M1817.26 143.64v-42.6a2.4 2.4 0 0 0-2.4-2.4h-62.76a2.4 2.4 0 0 0-2.4 2.4v42.6h67.56z" stroke="#8c8c8c" class="C D"/></g><path d="M1778.22 120.63v-13.92h-13.92v13.92h13.92zm24.48 0v-13.92h-13.92v13.92h13.92z" fill="#737373" class="C b"/><path d="M1774.9 144.58h16.8c2.4-.12 3.96-2.04 3.84-4.32l-24.24-.48c0 2.4 1.56 4.2 3.6 4.8z" fill="#c1c5cb" class="C D d"/><g transform="translate(1761 123.954)" class="B"><path d="M0 0h45v16.866H0z" class="O"/><path d="M1.508 5.628h41.986v5.615H1.508z" fill="#3c2d11"/><path d="M0 0h1.557v5.489H0z" transform="translate(8.586 .269)" class="M"/><path d="M8.586 5.758h1.557v5.476H8.586z" class="N"/><g class="M"><path d="M8.586 11.234h1.557v5.476H8.586z"/><path d="M0 0h1.557v5.489H0z" transform="translate(16.097 .269)"/></g><path d="M16.097 5.758h1.557v5.476h-1.557z" class="N"/><g class="M"><path d="M16.097 11.234h1.557v5.476h-1.557z"/><path d="M0 0h1.557v5.489H0z" transform="translate(12.346 .269)"/></g><path d="M12.346 5.758h1.557v5.476h-1.557z" class="N"/><g class="M"><path d="M12.346 11.234h1.557v5.476h-1.557z"/><path d="M0 0h1.557v5.489H0z" transform="translate(19.847 .269)"/></g><path d="M19.847 5.758h1.557v5.476h-1.557z" class="N"/><g class="M"><path d="M19.847 11.234h1.557v5.476h-1.557z"/><path d="M0 0h1.557v5.489H0z" transform="translate(23.597 .269)"/></g><path d="M23.597 5.758h1.557v5.476h-1.557z" class="N"/><g class="M"><path d="M23.597 11.234h1.557v5.476h-1.557z"/><path d="M0 0h1.557v5.489H0z" transform="translate(27.347 .269)"/></g><path d="M27.347 5.758h1.557v5.476h-1.557z" class="N"/><g class="M"><path d="M27.347 11.234h1.557v5.476h-1.557z"/><path d="M0 0h1.557v5.489H0z" transform="translate(31.107 .269)"/></g><path d="M31.107 5.758h1.557v5.476h-1.557z" class="N"/><g class="M"><path d="M31.107 11.234h1.557v5.476h-1.557z"/><path d="M0 0h1.557v5.489H0z" transform="translate(34.857 .269)"/></g><path d="M34.857 5.758h1.557v5.476h-1.557z" class="N"/><g class="M"><path d="M34.857 11.234h1.557v5.476h-1.557z"/><path d="M0 0h1.557v5.489H0z" transform="translate(38.608 .269)"/></g><path d="M38.608 5.758h1.557v5.476h-1.557z" class="N"/><g class="M"><path d="M38.608 11.234h1.557v5.476h-1.557z"/><path d="M0 0h1.557v5.489H0z" transform="translate(4.836 .269)"/></g><path d="M4.836 5.758h1.557v5.476H4.836z" class="N"/><path d="M4.836 11.234h1.557v5.476H4.836z" class="M"/></g><path d="M1781 77.062h5.28v5.16H1781z" class="B S"/><path d="M1786.28 82.222v-5.16H1781v5.16h5.28z" class="D J"/><path d="M1775.1 88.631h5.28v5.16h-5.28z" class="B S"/><path d="M1780.38 93.791v-5.16h-5.28v5.16h5.28z" class="D J"/><path d="M1787 88.631h5.28v5.16H1787z" class="B S"/><g class="D J"><path d="M1792.28 93.791v-5.16H1787v5.16h5.28zm-18.18-8.355h18.48"/><path d="M1777.8 85.436v3.24m11.8-3.24v3.24m-5.9-6.454v3.24" class="C g"/></g><g class="B"><path d="M1777.4 147.38h12.24v5.64h-12.24z" fill="#7f7f7f"/><g class="e"><path d="M2126.3 7.622h18.717V197.14H2126.3z"/><path d="M816.94 7.622h15.909V197.14H816.94z"/><path d="M127.5 7.622h4.679V197.14H127.5z"/><path d="M135 7.622h14.973V197.14H135z"/></g></g><g class="h"><path d="M1872.2 197.342h253.917V6.436H1872.2v190.906z" fill="url(#L)"/><path d="M1890.95 51.094h127.273V6.174H1890.95v44.92z" fill="url(#M)"/></g><g class="C"><path d="M1891.53 159.843h128.04c4.08 0 7.56-3.36 7.56-7.44v-93.6c0-4.2-3.36-7.44-7.44-7.44h-128.16c-4.2-.24-7.56 3.12-7.56 7.2v93.6c0 4.32 3.36 7.68 7.56 7.68z" class="O Q d"/><use xlink:href="#U" class="D E"/><use xlink:href="#V" class="G H T"/></g><path d="M1924.11 111.783l2.266 3.1m3.114.079l2.266-3.1m-7.646 14.03l2.266-3.1m3.114-.089l2.266 3.1" class="G H J"/><g class="C"><use xlink:href="#W" class="G H U"/><use xlink:href="#V" x="55.22" class="G H T"/></g><path d="M1979.33 111.783l2.266 3.1m3.114.079l2.266-3.1m-7.646 14.03l2.266-3.1m3.114-.089l2.266 3.1" class="G H J"/><g class="C"><use xlink:href="#W" x="55.22" class="G H U"/><use xlink:href="#V" x="27.59" y="-21.09" class="G H T"/></g><path d="M1951.7 90.685l2.266 3.1m3.114.087l2.266-3.1m-7.646 14.03l2.266-3.1m3.114-.089l2.266 3.1" class="G H J"/><g class="C"><use xlink:href="#W" x="27.6" y="-21.1" class="G H U"/><g stroke="#3f3f3f" class="i"><path d="M2097.167 27.327c0 5.358-4.189 9.689-9.359 9.689s-9.358-4.331-9.358-9.689 4.195-9.695 9.358-9.695c5.169 0 9.359 4.343 9.359 9.695z" fill="url(#N)"/><path d="M2097.167 56.405c0 5.358-4.189 9.689-9.359 9.689s-9.358-4.331-9.358-9.689 4.195-9.695 9.358-9.695c5.169 0 9.359 4.343 9.359 9.695z" fill="url(#O)"/></g><path d="M2085.95 193.593l36.6-.12v-35.64h-23.64v23.16h-12.96v12.6z" stroke="#7f7f7f" class="E j"/></g><path d="M2110.447 193.432h4.523a7.49 7.49 0 0 0 7.487-7.487v-34.559a7.49 7.49 0 0 0-7.487-7.487h-4.523a7.49 7.49 0 0 0-7.487 7.487v34.559a7.49 7.49 0 0 0 7.487 7.487z" class="B F"/><g class="E"><ellipse cx="1955.45" cy="35.164" rx="12" ry="12.18" class="C D"/><g class="B"><path d="M2015.79 175.053l5.4 9.6h10.8l5.4-9.6-5.4-9.6h-10.8l-5.4 9.6zm-21.29-10.05l-4.8 8.88 5.4 9.6h10.8l5.4-9.6-4.8-8.88h-12zm-26.09 0l-4.8 8.88 5.4 9.6h10.8l5.4-9.6-4.8-8.88h-12zm-26.1 0l-4.8 8.88 5.4 9.6h10.8l5.4-9.6-4.8-8.88h-12zm-26.09 0l-4.8 8.88 5.4 9.6h10.8l5.4-9.6-4.8-8.88h-12zm-30.89 10.05l5.4 9.6h10.8l5.4-9.6-5.4-9.6h-10.8l-5.4 9.6zm33.5-128.241l-4.32-7.44h-10.8l-4.08 7.44h19.2zm93.75 0l-4.32-7.44h-10.8l-4.08 7.44h19.2zM1997 17.32l-4.8 8.88 5.4 9.6h10.8l5.4-9.6-4.8-8.88h-12zm-93.75 0l-4.8 8.88 5.4 9.6h10.8l5.4-9.6-4.8-8.88h-12z"/><use xlink:href="#X"/></g></g><path fill="url(#Q)" d="M2044.84 35.86c0-7.005 5.639-12.644 12.644-12.644s12.644 5.639 12.644 12.644v137.655c0 7.005-5.639 12.644-12.644 12.644s-12.644-5.639-12.644-12.644z" class="B"/><g class="e"><path d="M408.5 7.622h7.736V197.14H408.5z" class="B"/><path d="M608.63 7.622h15.909V197.14H608.63z" class="B"/></g><g transform="translate(418.69 7.59)"><path d="M60 28.379v13.39h25.288v-13.39l-.003 12.769c0 7.231-5.66 13.092-12.642 13.092s-12.641-5.861-12.641-13.092L60 28.379z" class="B V"/><use xlink:href="#Y" class="Q W X"/><g class="D"><use xlink:href="#Z" class="E"/><g class="C P"><use xlink:href="#a"/><use xlink:href="#b"/><use xlink:href="#c"/><use xlink:href="#d"/></g><g class="O"><use xlink:href="#e" class="C"/><use xlink:href="#f" class="K"/></g></g><use xlink:href="#g" class="B I"/><path d="M69.188 117.4a147.21 147.21 0 0 0 49.2 0V71.8a147.21 147.21 0 0 0-49.2 0v45.6z" class="D K Y"/><g class="B"><use xlink:href="#h" class="I"/><use xlink:href="#i" class="L"/><use xlink:href="#j"/><use xlink:href="#k"/><use xlink:href="#l"/><use xlink:href="#m"/><use xlink:href="#n"/><use xlink:href="#o"/><use xlink:href="#o" y="-17.566"/><g class="F"><path d="M56.065 121.491c3.046 0 5.515-2.469 5.515-5.515V73.594c0-3.046-2.469-5.517-5.515-5.517s-5.515 2.47-5.515 5.517v42.382c0 3.046 2.469 5.515 5.515 5.515z"/><path d="M5.515 125.24c3.046 0 5.515-2.469 5.515-5.515V69.846c0-3.046-2.469-5.515-5.515-5.515S0 66.8 0 69.846v49.879c0 3.046 2.469 5.515 5.515 5.515z"/></g><use xlink:href="#p" class="I"/><use xlink:href="#q" class="L"/><g class="F"><path d="M131.422 121.491c-3.046 0-5.515-2.469-5.515-5.515V73.594a5.52 5.52 0 0 1 5.515-5.517 5.52 5.52 0 0 1 5.515 5.517v42.382c0 3.046-2.469 5.515-5.515 5.515z"/><path d="M181.984 125.24c-3.046 0-5.515-2.469-5.515-5.515V69.846c0-3.046 2.469-5.515 5.515-5.515s5.515 2.469 5.515 5.515v49.879c0 3.046-2.469 5.515-5.515 5.515z"/></g></g><path d="M27.538 20.636c0-4.44-3.6-8.04-7.8-8.04s-7.8 3.6-7.8 8.04 3.6 7.92 7.8 7.92 7.8-3.6 7.8-7.92z" class="D Z a"/><g class="B F"><path d="M4.67 60.909c2.579 0 4.67-2.469 4.67-5.515V5.515C9.339 2.469 7.249 0 4.67 0S0 2.469 0 5.515v49.879c0 3.046 2.091 5.515 4.67 5.515z" transform="matrix(-.087156 .996195 -.996195 -.087156 62.090624 67.249402)"/><path d="M5.035 60.909C2.254 60.909 0 58.44 0 55.394V5.515C0 2.469 2.254 0 5.035 0s5.036 2.469 5.036 5.515v49.879c0 3.046-2.254 5.515-5.036 5.515z" transform="matrix(.087156 .996195 -.996195 .087156 61.234268 113.12102)"/><path d="M4.67 60.909C2.091 60.909 0 58.44 0 55.394V5.515C0 2.469 2.091 0 4.67 0s4.67 2.469 4.67 5.515v49.879c0 3.046-2.091 5.515-4.67 5.515z" transform="matrix(-.087156 -.996195 .996195 -.087156 125.639252 76.859289)"/><path d="M4.67 60.909c2.579 0 4.67-2.469 4.67-5.515V5.515C9.339 2.469 7.249 0 4.67 0S0 2.469 0 5.515v49.879c0 3.046 2.091 5.515 4.67 5.515z" transform="matrix(-.087156 .996195 -.996195 -.087156 186.316724 118.805502)"/></g></g><g transform="translate(627 7.59)"><path d="M60 28.379v13.39h25.288v-13.39l-.003 12.769c0 7.231-5.66 13.092-12.642 13.092s-12.641-5.861-12.641-13.092L60 28.379z" class="B V"/><use xlink:href="#Y" class="Q W X"/><g class="D"><use xlink:href="#Z" class="E"/><g class="C P"><use xlink:href="#a"/><use xlink:href="#b"/><use xlink:href="#c"/><use xlink:href="#d"/></g><g class="O"><use xlink:href="#e" class="C"/><use xlink:href="#f" class="K"/></g></g><use xlink:href="#g" class="B I"/><path d="M69.188 117.4a147.21 147.21 0 0 0 49.2 0V71.8a147.21 147.21 0 0 0-49.2 0v45.6z" class="D K Y"/><g class="B"><use xlink:href="#h" class="I"/><use xlink:href="#i" class="L"/><use xlink:href="#j"/><use xlink:href="#k"/><use xlink:href="#l"/><use xlink:href="#m"/><use xlink:href="#n"/><use xlink:href="#o"/><use xlink:href="#o" y="-17.566"/><g class="F"><path d="M56.065 121.491c3.046 0 5.515-2.469 5.515-5.515V73.594c0-3.046-2.469-5.517-5.515-5.517s-5.515 2.47-5.515 5.517v42.382c0 3.046 2.469 5.515 5.515 5.515z"/><path d="M5.515 125.24c3.046 0 5.515-2.469 5.515-5.515V69.846c0-3.046-2.469-5.515-5.515-5.515S0 66.8 0 69.846v49.879c0 3.046 2.469 5.515 5.515 5.515z"/></g><use xlink:href="#p" class="I"/><use xlink:href="#q" class="L"/><g class="F"><path d="M131.422 121.491c-3.046 0-5.515-2.469-5.515-5.515V73.594a5.52 5.52 0 0 1 5.515-5.517 5.52 5.52 0 0 1 5.515 5.517v42.382c0 3.046-2.469 5.515-5.515 5.515z"/><path d="M181.984 125.24c-3.046 0-5.515-2.469-5.515-5.515V69.846c0-3.046 2.469-5.515 5.515-5.515s5.515 2.469 5.515 5.515v49.879c0 3.046-2.469 5.515-5.515 5.515z"/></g></g><path d="M27.538 20.636c0-4.44-3.6-8.04-7.8-8.04s-7.8 3.6-7.8 8.04 3.6 7.92 7.8 7.92 7.8-3.6 7.8-7.92z" class="D Z a"/><g class="B F"><path d="M4.67 60.909c2.579 0 4.67-2.469 4.67-5.515V5.515C9.339 2.469 7.249 0 4.67 0S0 2.469 0 5.515v49.879c0 3.046 2.091 5.515 4.67 5.515z" transform="matrix(-.087156 .996195 -.996195 -.087156 62.090624 67.249402)"/><path d="M5.035 60.909C2.254 60.909 0 58.44 0 55.394V5.515C0 2.469 2.254 0 5.035 0s5.036 2.469 5.036 5.515v49.879c0 3.046-2.254 5.515-5.036 5.515z" transform="matrix(.087156 .996195 -.996195 .087156 61.234268 113.12102)"/><path d="M4.67 60.909C2.091 60.909 0 58.44 0 55.394V5.515C0 2.469 2.091 0 4.67 0s4.67 2.469 4.67 5.515v49.879c0 3.046-2.091 5.515-4.67 5.515z" transform="matrix(-.087156 -.996195 .996195 -.087156 125.639252 76.859289)"/><path d="M4.67 60.909c2.579 0 4.67-2.469 4.67-5.515V5.515C9.339 2.469 7.249 0 4.67 0S0 2.469 0 5.515v49.879c0 3.046 2.091 5.515 4.67 5.515z" transform="matrix(-.087156 .996195 -.996195 -.087156 186.316724 118.805502)"/></g></g><g transform="translate(835.31 7.59)"><path d="M60 28.379v13.39h25.288v-13.39l-.003 12.769c0 7.231-5.66 13.092-12.642 13.092s-12.641-5.861-12.641-13.092L60 28.379z" class="B V"/><use xlink:href="#Y" class="Q W X"/><g class="D"><use xlink:href="#Z" class="E"/><g class="C P"><use xlink:href="#a"/><use xlink:href="#b"/><use xlink:href="#c"/><use xlink:href="#d"/></g><g class="O"><use xlink:href="#e" class="C"/><use xlink:href="#f" class="K"/></g></g><use xlink:href="#g" class="B I"/><path d="M69.188 117.4a147.21 147.21 0 0 0 49.2 0V71.8a147.21 147.21 0 0 0-49.2 0v45.6z" class="D K Y"/><g class="B"><use xlink:href="#h" class="I"/><use xlink:href="#i" class="L"/><use xlink:href="#j"/><use xlink:href="#k"/><use xlink:href="#l"/><use xlink:href="#m"/><use xlink:href="#n"/><use xlink:href="#o"/><use xlink:href="#o" y="-17.566"/><g class="F"><path d="M56.065 121.491c3.046 0 5.515-2.469 5.515-5.515V73.594c0-3.046-2.469-5.517-5.515-5.517s-5.515 2.47-5.515 5.517v42.382c0 3.046 2.469 5.515 5.515 5.515z"/><path d="M5.515 125.24c3.046 0 5.515-2.469 5.515-5.515V69.846c0-3.046-2.469-5.515-5.515-5.515S0 66.8 0 69.846v49.879c0 3.046 2.469 5.515 5.515 5.515z"/></g><use xlink:href="#p" class="I"/><use xlink:href="#q" class="L"/><g class="F"><path d="M131.422 121.491c-3.046 0-5.515-2.469-5.515-5.515V73.594a5.52 5.52 0 0 1 5.515-5.517 5.52 5.52 0 0 1 5.515 5.517v42.382c0 3.046-2.469 5.515-5.515 5.515z"/><path d="M181.984 125.24c-3.046 0-5.515-2.469-5.515-5.515V69.846c0-3.046 2.469-5.515 5.515-5.515s5.515 2.469 5.515 5.515v49.879c0 3.046-2.469 5.515-5.515 5.515z"/></g></g><path d="M27.538 20.636c0-4.44-3.6-8.04-7.8-8.04s-7.8 3.6-7.8 8.04 3.6 7.92 7.8 7.92 7.8-3.6 7.8-7.92z" class="D Z a"/><g class="B F"><path d="M4.67 60.909c2.579 0 4.67-2.469 4.67-5.515V5.515C9.339 2.469 7.249 0 4.67 0S0 2.469 0 5.515v49.879c0 3.046 2.091 5.515 4.67 5.515z" transform="matrix(-.087156 .996195 -.996195 -.087156 62.090624 67.249402)"/><path d="M5.035 60.909C2.254 60.909 0 58.44 0 55.394V5.515C0 2.469 2.254 0 5.035 0s5.036 2.469 5.036 5.515v49.879c0 3.046-2.254 5.515-5.036 5.515z" transform="matrix(.087156 .996195 -.996195 .087156 61.234268 113.12102)"/><path d="M4.67 60.909C2.091 60.909 0 58.44 0 55.394V5.515C0 2.469 2.091 0 4.67 0s4.67 2.469 4.67 5.515v49.879c0 3.046-2.091 5.515-4.67 5.515z" transform="matrix(-.087156 -.996195 .996195 -.087156 125.639252 76.859289)"/><path d="M4.67 60.909c2.579 0 4.67-2.469 4.67-5.515V5.515C9.339 2.469 7.249 0 4.67 0S0 2.469 0 5.515v49.879c0 3.046 2.091 5.515 4.67 5.515z" transform="matrix(-.087156 .996195 -.996195 -.087156 186.316724 118.805502)"/></g></g><g transform="translate(1043.6 7.59)"><path d="M60 28.379v13.39h25.288v-13.39l-.003 12.769c0 7.231-5.66 13.092-12.642 13.092s-12.641-5.861-12.641-13.092L60 28.379z" class="B V"/><use xlink:href="#Y" class="Q W X"/><g class="D"><use xlink:href="#Z" class="E"/><g class="C P"><use xlink:href="#a"/><use xlink:href="#b"/><use xlink:href="#c"/><use xlink:href="#d"/></g><g class="O"><use xlink:href="#e" class="C"/><use xlink:href="#f" class="K"/></g></g><use xlink:href="#g" class="B I"/><path d="M69.188 117.4a147.21 147.21 0 0 0 49.2 0V71.8a147.21 147.21 0 0 0-49.2 0v45.6z" class="D K Y"/><g class="B"><use xlink:href="#h" class="I"/><use xlink:href="#i" class="L"/><use xlink:href="#j"/><use xlink:href="#k"/><use xlink:href="#l"/><use xlink:href="#m"/><use xlink:href="#n"/><use xlink:href="#o"/><use xlink:href="#o" y="-17.566"/><g class="F"><path d="M56.065 121.491c3.046 0 5.515-2.469 5.515-5.515V73.594c0-3.046-2.469-5.517-5.515-5.517s-5.515 2.47-5.515 5.517v42.382c0 3.046 2.469 5.515 5.515 5.515z"/><path d="M5.515 125.24c3.046 0 5.515-2.469 5.515-5.515V69.846c0-3.046-2.469-5.515-5.515-5.515S0 66.8 0 69.846v49.879c0 3.046 2.469 5.515 5.515 5.515z"/></g><use xlink:href="#p" class="I"/><use xlink:href="#q" class="L"/><g class="F"><path d="M131.422 121.491c-3.046 0-5.515-2.469-5.515-5.515V73.594a5.52 5.52 0 0 1 5.515-5.517 5.52 5.52 0 0 1 5.515 5.517v42.382c0 3.046-2.469 5.515-5.515 5.515z"/><path d="M181.984 125.24c-3.046 0-5.515-2.469-5.515-5.515V69.846c0-3.046 2.469-5.515 5.515-5.515s5.515 2.469 5.515 5.515v49.879c0 3.046-2.469 5.515-5.515 5.515z"/></g></g><path d="M27.538 20.636c0-4.44-3.6-8.04-7.8-8.04s-7.8 3.6-7.8 8.04 3.6 7.92 7.8 7.92 7.8-3.6 7.8-7.92z" class="D Z a"/><g class="B F"><path d="M4.67 60.909c2.579 0 4.67-2.469 4.67-5.515V5.515C9.339 2.469 7.249 0 4.67 0S0 2.469 0 5.515v49.879c0 3.046 2.091 5.515 4.67 5.515z" transform="matrix(-.087156 .996195 -.996195 -.087156 62.090624 67.249402)"/><path d="M5.035 60.909C2.254 60.909 0 58.44 0 55.394V5.515C0 2.469 2.254 0 5.035 0s5.036 2.469 5.036 5.515v49.879c0 3.046-2.254 5.515-5.036 5.515z" transform="matrix(.087156 .996195 -.996195 .087156 61.234268 113.12102)"/><path d="M4.67 60.909C2.091 60.909 0 58.44 0 55.394V5.515C0 2.469 2.091 0 4.67 0s4.67 2.469 4.67 5.515v49.879c0 3.046-2.091 5.515-4.67 5.515z" transform="matrix(-.087156 -.996195 .996195 -.087156 125.639252 76.859289)"/><path d="M4.67 60.909c2.579 0 4.67-2.469 4.67-5.515V5.515C9.339 2.469 7.249 0 4.67 0S0 2.469 0 5.515v49.879c0 3.046 2.091 5.515 4.67 5.515z" transform="matrix(-.087156 .996195 -.996195 -.087156 186.316724 118.805502)"/></g></g><g transform="translate(1251.9 7.59)"><path d="M60 28.379v13.39h25.288v-13.39l-.003 12.769c0 7.231-5.66 13.092-12.642 13.092s-12.641-5.861-12.641-13.092L60 28.379z" class="B V"/><use xlink:href="#Y" class="Q W X"/><g class="D"><use xlink:href="#Z" class="E"/><g class="C P"><use xlink:href="#a"/><use xlink:href="#b"/><use xlink:href="#c"/><use xlink:href="#d"/></g><g class="O"><use xlink:href="#e" class="C"/><use xlink:href="#f" class="K"/></g></g><use xlink:href="#g" class="B I"/><path d="M69.188 117.4a147.21 147.21 0 0 0 49.2 0V71.8a147.21 147.21 0 0 0-49.2 0v45.6z" class="D K Y"/><g class="B"><use xlink:href="#h" class="I"/><use xlink:href="#i" class="L"/><use xlink:href="#j"/><use xlink:href="#k"/><use xlink:href="#l"/><use xlink:href="#m"/><use xlink:href="#n"/><use xlink:href="#o"/><use xlink:href="#o" y="-17.566"/><g class="F"><path d="M56.065 121.491c3.046 0 5.515-2.469 5.515-5.515V73.594c0-3.046-2.469-5.517-5.515-5.517s-5.515 2.47-5.515 5.517v42.382c0 3.046 2.469 5.515 5.515 5.515z"/><path d="M5.515 125.24c3.046 0 5.515-2.469 5.515-5.515V69.846c0-3.046-2.469-5.515-5.515-5.515S0 66.8 0 69.846v49.879c0 3.046 2.469 5.515 5.515 5.515z"/></g><use xlink:href="#p" class="I"/><use xlink:href="#q" class="L"/><g class="F"><path d="M131.422 121.491c-3.046 0-5.515-2.469-5.515-5.515V73.594a5.52 5.52 0 0 1 5.515-5.517 5.52 5.52 0 0 1 5.515 5.517v42.382c0 3.046-2.469 5.515-5.515 5.515z"/><path d="M181.984 125.24c-3.046 0-5.515-2.469-5.515-5.515V69.846c0-3.046 2.469-5.515 5.515-5.515s5.515 2.469 5.515 5.515v49.879c0 3.046-2.469 5.515-5.515 5.515z"/></g></g><path d="M27.538 20.636c0-4.44-3.6-8.04-7.8-8.04s-7.8 3.6-7.8 8.04 3.6 7.92 7.8 7.92 7.8-3.6 7.8-7.92z" class="D Z a"/><g class="B F"><path d="M4.67 60.909c2.579 0 4.67-2.469 4.67-5.515V5.515C9.339 2.469 7.249 0 4.67 0S0 2.469 0 5.515v49.879c0 3.046 2.091 5.515 4.67 5.515z" transform="matrix(-.087156 .996195 -.996195 -.087156 62.090624 67.249402)"/><path d="M5.035 60.909C2.254 60.909 0 58.44 0 55.394V5.515C0 2.469 2.254 0 5.035 0s5.036 2.469 5.036 5.515v49.879c0 3.046-2.254 5.515-5.036 5.515z" transform="matrix(.087156 .996195 -.996195 .087156 61.234268 113.12102)"/><path d="M4.67 60.909C2.091 60.909 0 58.44 0 55.394V5.515C0 2.469 2.091 0 4.67 0s4.67 2.469 4.67 5.515v49.879c0 3.046-2.091 5.515-4.67 5.515z" transform="matrix(-.087156 -.996195 .996195 -.087156 125.639252 76.859289)"/><path d="M4.67 60.909c2.579 0 4.67-2.469 4.67-5.515V5.515C9.339 2.469 7.249 0 4.67 0S0 2.469 0 5.515v49.879c0 3.046 2.091 5.515 4.67 5.515z" transform="matrix(-.087156 .996195 -.996195 -.087156 186.316724 118.805502)"/></g></g><g transform="translate(1460.2 7.59)"><path d="M60 28.379v13.39h25.288v-13.39l-.003 12.769c0 7.231-5.66 13.092-12.642 13.092s-12.641-5.861-12.641-13.092L60 28.379z" class="B V"/><use xlink:href="#Y" class="Q W X"/><g class="D"><use xlink:href="#Z" class="E"/><g class="C P"><use xlink:href="#a"/><use xlink:href="#b"/><use xlink:href="#c"/><use xlink:href="#d"/></g><g class="O"><use xlink:href="#e" class="C"/><use xlink:href="#f" class="K"/></g></g><use xlink:href="#g" class="B I"/><path d="M69.188 117.4a147.21 147.21 0 0 0 49.2 0V71.8a147.21 147.21 0 0 0-49.2 0v45.6z" class="D K Y"/><g class="B"><use xlink:href="#h" class="I"/><use xlink:href="#i" class="L"/><use xlink:href="#j"/><use xlink:href="#k"/><use xlink:href="#l"/><use xlink:href="#m"/><use xlink:href="#n"/><use xlink:href="#o"/><use xlink:href="#o" y="-17.566"/><g class="F"><path d="M56.065 121.491c3.046 0 5.515-2.469 5.515-5.515V73.594c0-3.046-2.469-5.517-5.515-5.517s-5.515 2.47-5.515 5.517v42.382c0 3.046 2.469 5.515 5.515 5.515z"/><path d="M5.515 125.24c3.046 0 5.515-2.469 5.515-5.515V69.846c0-3.046-2.469-5.515-5.515-5.515S0 66.8 0 69.846v49.879c0 3.046 2.469 5.515 5.515 5.515z"/></g><use xlink:href="#p" class="I"/><use xlink:href="#q" class="L"/><g class="F"><path d="M131.422 121.491c-3.046 0-5.515-2.469-5.515-5.515V73.594a5.52 5.52 0 0 1 5.515-5.517 5.52 5.52 0 0 1 5.515 5.517v42.382c0 3.046-2.469 5.515-5.515 5.515z"/><path d="M181.984 125.24c-3.046 0-5.515-2.469-5.515-5.515V69.846c0-3.046 2.469-5.515 5.515-5.515s5.515 2.469 5.515 5.515v49.879c0 3.046-2.469 5.515-5.515 5.515z"/></g></g><path d="M27.538 20.636c0-4.44-3.6-8.04-7.8-8.04s-7.8 3.6-7.8 8.04 3.6 7.92 7.8 7.92 7.8-3.6 7.8-7.92z" class="D Z a"/><g class="B F"><path d="M4.67 60.909c2.579 0 4.67-2.469 4.67-5.515V5.515C9.339 2.469 7.249 0 4.67 0S0 2.469 0 5.515v49.879c0 3.046 2.091 5.515 4.67 5.515z" transform="matrix(-.087156 .996195 -.996195 -.087156 62.090624 67.249402)"/><path d="M5.035 60.909C2.254 60.909 0 58.44 0 55.394V5.515C0 2.469 2.254 0 5.035 0s5.036 2.469 5.036 5.515v49.879c0 3.046-2.254 5.515-5.036 5.515z" transform="matrix(.087156 .996195 -.996195 .087156 61.234268 113.12102)"/><path d="M4.67 60.909C2.091 60.909 0 58.44 0 55.394V5.515C0 2.469 2.091 0 4.67 0s4.67 2.469 4.67 5.515v49.879c0 3.046-2.091 5.515-4.67 5.515z" transform="matrix(-.087156 -.996195 .996195 -.087156 125.639252 76.859289)"/><path d="M4.67 60.909c2.579 0 4.67-2.469 4.67-5.515V5.515C9.339 2.469 7.249 0 4.67 0S0 2.469 0 5.515v49.879c0 3.046 2.091 5.515 4.67 5.515z" transform="matrix(-.087156 .996195 -.996195 -.087156 186.316724 118.805502)"/></g></g><path d="M1696 20.75h11.75v8H1696zm-1.25-1.25H1709V30h-14.25zm7 12.25v-1.5M1697 32h9.5" stroke-width=".72" class="J"/><path d="M1687.4 78.268h-3v4.8h3zm4.7-.044h-3.02v4.844h3.02zm4.8 0h-3.02v4.844h3.02zm4.7 0h-3.02v4.844h3.02zm9.5 0h-3.02v4.844h3.02zm-4.7 0h-3.02v4.844h3.02zm9.5 0h-3.02v4.844h3.02zm4.7 0h-3.02v4.844h3.02zm-3.1 27.356h3v-4.56h-3zm-4.8.047h3.02v-4.607h-3.02zm-4.7 0h3.02v-4.607H1708zm-4.8 0h3.02v-4.607h-3.02zm-9.4 0h3.02v-4.607h-3.02zm4.7 0h3.02v-4.607h-3.02zm-9.5 0h3.02v-4.607H1689zm-4.7 0h3.02v-4.607h-3.02z" fill="#856427" class="B"/><path d="M1828.4 68.782h21" stroke-width=".84" class="J"/><g class="B E"><circle cx="1828.5" cy="68.922" r="2.4"/><path d="M1850.8 68.754l-3.6-2.64v4.8l3.6-2.16zm-7.8 2.708h2.76v3.12H1843z"/></g><path d="M1836.4 68.83l3.36 3.6 3.24.6m-9.9-4.381l3.36-3.6 3.24-.6" stroke-width=".84" class="J"/><circle cx="1839.875" cy="64.375" r="1.625" class="B E"/><g class="h"><path d="M153.5 197.08h253.917V6.174H153.5V197.08z" fill="url(#L)"/><path d="M172.25 50.831h127.273V5.911H172.25v44.92z" fill="url(#M)"/></g><g class="C"><path d="M172.83 159.58h128.04c4.08 0 7.56-3.36 7.56-7.44v-93.6c0-4.2-3.36-7.44-7.44-7.44H172.83c-4.2-.24-7.56 3.12-7.56 7.2v93.6c0 4.32 3.36 7.68 7.56 7.68z" class="O Q d"/><use xlink:href="#U" x="-1718.7" y="-0.263" class="D E"/><use xlink:href="#V" x="-1718.7" y="-0.263" class="G H T"/></g><path d="M205.41 111.52l2.266 3.1m3.114.08l2.266-3.1m-7.646 14.03l2.266-3.1m3.114-.09l2.266 3.1" class="G H J"/><g class="C"><use xlink:href="#W" x="-1718.7" y="-0.263" class="G H U"/><use xlink:href="#V" x="-1663.48" y="-0.263" class="G H T"/></g><path d="M260.63 111.52l2.266 3.1m3.114.08l2.266-3.1m-7.646 14.03l2.266-3.1m3.114-.09l2.266 3.1" class="G H J"/><g class="C"><use xlink:href="#W" x="-1663.48" y="-0.263" class="G H U"/><use xlink:href="#V" x="-1691.11" y="-21.353" class="G H T"/></g><path d="M233 90.422l2.266 3.1m3.114.088l2.266-3.1M233 104.54l2.266-3.1m3.114-.09l2.266 3.1" class="G H J"/><g class="C"><use xlink:href="#W" x="-1691.1" y="-21.363" class="G H U"/><g stroke="#3f3f3f" class="i"><path d="M378.467 27.064c0 5.358-4.189 9.689-9.359 9.689s-9.358-4.331-9.358-9.689 4.195-9.695 9.358-9.695c5.169 0 9.359 4.343 9.359 9.695z" fill="url(#N)"/><path d="M378.467 56.142c0 5.358-4.189 9.689-9.359 9.689s-9.358-4.331-9.358-9.689 4.195-9.695 9.358-9.695c5.169 0 9.359 4.343 9.359 9.695z" fill="url(#O)"/></g><path d="M367.25 193.33l36.6-.12v-35.64h-23.64v23.16h-12.96v12.6z" stroke="#7f7f7f" class="E j"/></g><path d="M391.747 193.17h4.523a7.49 7.49 0 0 0 7.487-7.487v-34.559a7.49 7.49 0 0 0-7.487-7.487h-4.523a7.49 7.49 0 0 0-7.487 7.487v34.559a7.49 7.49 0 0 0 7.487 7.487z" class="B F"/><g class="E"><ellipse cx="236.75" cy="34.901" rx="12" ry="12.18" class="C D"/><g class="B"><path d="M297.09 174.79l5.4 9.6h10.8l5.4-9.6-5.4-9.6h-10.8l-5.4 9.6zm-21.29-10.05l-4.8 8.88 5.4 9.6h10.8l5.4-9.6-4.8-8.88h-12zm-26.09 0l-4.8 8.88 5.4 9.6h10.8l5.4-9.6-4.8-8.88h-12zm-26.1 0l-4.8 8.88 5.4 9.6h10.8l5.4-9.6-4.8-8.88h-12zm-26.09 0l-4.8 8.88 5.4 9.6h10.8l5.4-9.6-4.8-8.88h-12zm-30.89 10.05l5.4 9.6h10.8l5.4-9.6-5.4-9.6h-10.8l-5.4 9.6zm33.5-128.241l-4.32-7.44h-10.8l-4.08 7.44h19.2zm93.75 0l-4.32-7.44h-10.8l-4.08 7.44h19.2zM278.3 17.057l-4.8 8.88 5.4 9.6h10.8l5.4-9.6-4.8-8.88h-12zm-93.75 0l-4.8 8.88 5.4 9.6h10.8l5.4-9.6-4.8-8.88h-12z"/><use xlink:href="#X" x="-1718.7" y="-0.263"/></g></g><path fill="url(#Q)" d="M326.14 35.597c0-7.005 5.639-12.644 12.644-12.644s12.644 5.639 12.644 12.644v137.655c0 7.005-5.639 12.644-12.644 12.644s-12.644-5.639-12.644-12.644z" class="B"/><g class="E"><use xlink:href="#r" class="B"/><use xlink:href="#s" class="B"/><path d="M399.155 22.929v8.531h-1.758v-8.531h1.758z" class="B"/><use xlink:href="#t" class="B"/><use xlink:href="#u" class="B"/><use xlink:href="#v" class="B"/><use xlink:href="#r" x="1719" class="B"/><use xlink:href="#s" x="1719" class="B"/><path d="M2118.155 22.929v8.531h-1.758v-8.531h1.758z" class="B"/><use xlink:href="#t" x="1719" class="B"/><use xlink:href="#u" x="1719" class="B"/><use xlink:href="#v" x="1719" class="B"/></g></symbol></svg>