<svg xmlns="http://www.w3.org/2000/svg" xmlns:xlink="http://www.w3.org/1999/xlink" viewBox="0 0 1634 152" fill="#fff" fill-rule="evenodd" stroke="#000" stroke-linecap="round" stroke-linejoin="round"><style><![CDATA[.B{fill:#000}.C{stroke:none}.D{stroke-linejoin:miter}.E{stroke-width:.32}.F{stroke:#404040}.G{fill:#595959}.H{fill:#262626}.I{stroke-width:.96}.J{fill:#d9d9d9}.K{fill:silver}.L{fill:gray}.M{fill:#866b00}.N{stroke:gray}.O{fill:#d1d3d0}]]></style><use xlink:href="#R" x=".5" y=".5"/><defs><radialGradient id="A" r="100%" fx="50%" fy="50%" cx="50%" cy="50%"><stop offset="0%" stop-color="gray"/><stop offset="70.7%" stop-color="#262626"/></radialGradient><linearGradient id="B" x1="0%" y1="50%" x2="100%" y2="50%"><stop offset="0%" stop-color="#bfbfbf"/><stop offset="100%" stop-color="#f2f2f2"/></linearGradient><linearGradient id="C" x1="0%" y1="50%" x2="100%" y2="50%"><stop offset="0%" stop-color="#f2f2f2"/><stop offset="100%" stop-color="#a6a6a6"/></linearGradient><linearGradient id="D" x1="50%" y1="100%" x2="50%" y2="0%"><stop offset="0%" stop-color="#d1d3d0"/><stop offset="100%" stop-color="#f2f2f2"/></linearGradient><path id="E" d="M321.03 122.46h71.1c1.1 0 1.9-.86 1.9-1.92v-96c0-1.06-.8-1.92-1.9-1.92h-71.1c-1.1 0-2 .86-2 1.92v96c0 1.06.9 1.92 2 1.92z"/><path id="F" d="M320.63 25.807v30.095c0 1.06.9 1.92 1.9 1.92h68c1.1 0 1.9-.86 1.9-1.92V25.807c0-1.06-.8-1.92-1.9-1.92h-68c-1 0-1.9.86-1.9 1.92zm0 63.469v30.094c0 1.06.9 1.92 1.9 1.92h68c1.1 0 1.9-.86 1.9-1.92V89.276c0-1.06-.8-1.92-1.9-1.92h-68c-1 0-1.9.86-1.9 1.92z"/><path id="G" d="M319.43 59.7h74.25v24.84h-74.25z"/><path id="H" d="M368.13 76.83h4.7c.9-.198 1.5-1.16 1.4-2.15-.2-.723-.7-1.288-1.4-1.433h-4.7c-1 .198-1.6 1.16-1.4 2.15.1.723.7 1.288 1.4 1.433zm-9.3 0h4.7c1-.198 1.6-1.16 1.4-2.15-.1-.723-.7-1.288-1.4-1.433h-4.7c-.9.198-1.6 1.16-1.4 2.15.2.723.7 1.288 1.4 1.433zm-9.3 0h4.8c.9-.198 1.5-1.16 1.3-2.15-.1-.723-.6-1.288-1.3-1.433h-4.8c-.9.198-1.5 1.16-1.3 2.15.1.723.6 1.288 1.3 1.433zm-9.2 0h4.7c1-.198 1.6-1.16 1.4-2.15-.2-.723-.7-1.288-1.4-1.433h-4.7c-1 .198-1.6 1.16-1.4 2.15.1.723.7 1.288 1.4 1.433zm27.8-5.834h4.7c.9-.198 1.5-1.16 1.4-2.15-.2-.723-.7-1.288-1.4-1.433h-4.7c-1 .198-1.6 1.16-1.4 2.15.1.723.7 1.288 1.4 1.433zm-9.3 0h4.7c1-.198 1.6-1.16 1.4-2.15-.1-.723-.7-1.288-1.4-1.433h-4.7c-.9.198-1.6 1.16-1.4 2.15.2.723.7 1.288 1.4 1.433zm-9.3 0h4.8c.9-.198 1.5-1.16 1.3-2.15-.1-.723-.6-1.288-1.3-1.433h-4.8c-.9.198-1.5 1.16-1.3 2.15.1.723.6 1.288 1.3 1.433zm-9.2 0h4.7c1-.198 1.6-1.16 1.4-2.15-.2-.723-.7-1.288-1.4-1.433h-4.7c-1 .198-1.6 1.16-1.4 2.15.1.723.7 1.288 1.4 1.433zm38.7-2.83h9.5l-4.8 8.25-4.7-8.25zm-54.4 8.25h9.4l-4.7-8.25-4.7 8.25z"/><path id="I" d="M393.13 44.997c.3 0 .5-.2.5-.47V37.18c0-.26-.2-.47-.5-.47s-.5.2-.5.47v7.347c0 .26.2.47.5.47zm-73.1 0c.2 0 .4-.2.4-.47V37.18c0-.26-.2-.47-.4-.47-.3 0-.5.2-.5.47v7.347c0 .26.2.47.5.47zm49-21.675c0 .31.3.563.6.563h8.2c.3 0 .6-.252.6-.563s-.3-.562-.6-.562h-8.2c-.3 0-.6.25-.6.562zm-34.3 0c0 .31.2.563.6.563h8.2c.3 0 .6-.252.6-.563s-.3-.562-.6-.562h-8.2c-.4 0-.6.25-.6.562zm-14.7 85.148c.2 0 .4-.2.4-.47v-7.35c0-.26-.2-.47-.4-.47-.3 0-.5.2-.5.47V108c0 .26.2.47.5.47zm73.1 0c.3 0 .5-.2.5-.47v-7.35c0-.26-.2-.47-.5-.47s-.5.2-.5.47V108c0 .26.2.47.5.47zm-24.1-21.68c0 .31.3.562.6.562h8.2c.3 0 .6-.25.6-.562s-.3-.563-.6-.563h-8.2c-.3 0-.6.252-.6.563zm-34.3 0c0 .31.2.562.6.562h8.2c.3 0 .6-.25.6-.562s-.3-.563-.6-.563h-8.2c-.4 0-.6.252-.6.563z"/><path id="J" d="M321.43 52.617v1.785c0 1.06.8 1.92 1.9 1.92h66.7c1 0 1.9-.86 1.9-1.92v-1.785c0-1.06-.9-1.92-1.9-1.92h-66.7c-1.1 0-1.9.86-1.9 1.92zm0 63.473v1.78c0 1.06.8 1.92 1.9 1.92h66.7c1 0 1.9-.86 1.9-1.92v-1.78c0-1.06-.9-1.92-1.9-1.92h-66.7c-1.1 0-1.9.86-1.9 1.92z"/><path id="K" d="M322.53 46.572c1 0 1.9-.84 1.9-1.875v-6.75c0-1.035-.9-1.875-1.9-1.875s-1.9.84-1.9 1.875v6.75c0 1.036.9 1.875 1.9 1.875zm1.5 8.25c.6 0 1.1-.504 1.1-1.125v-1.875c0-.62-.5-1.125-1.1-1.125s-1.1.504-1.1 1.125v1.875c0 .62.5 1.125 1.1 1.125zm65.3 0c.6 0 1.1-.504 1.1-1.125v-1.875c0-.62-.5-1.125-1.1-1.125-.7 0-1.2.504-1.2 1.125v1.875c0 .62.5 1.125 1.2 1.125zm1.1-8.25c1 0 1.9-.84 1.9-1.875v-6.75c0-1.035-.9-1.875-1.9-1.875-1.1 0-1.9.84-1.9 1.875v6.75c0 1.036.8 1.875 1.9 1.875zm-24.8-20.625c0 1.036.9 1.875 1.9 1.875h6.8c1 0 1.8-.84 1.8-1.875s-.8-1.875-1.8-1.875h-6.8c-1 0-1.9.84-1.9 1.875zm-28.5 0c0 1.036.9 1.875 1.9 1.875h6.8c1 0 1.8-.84 1.8-1.875s-.8-1.875-1.8-1.875h-6.8c-1 0-1.9.84-1.9 1.875zm-14.6 84.093c1 0 1.9-.84 1.9-1.87v-6.75c0-1.04-.9-1.88-1.9-1.88s-1.9.84-1.9 1.88v6.75c0 1.03.9 1.87 1.9 1.87zm1.5 8.25c.6 0 1.1-.5 1.1-1.12v-1.88c0-.62-.5-1.12-1.1-1.12s-1.1.5-1.1 1.12v1.88c0 .62.5 1.12 1.1 1.12zm65.3 0c.6 0 1.1-.5 1.1-1.12v-1.88c0-.62-.5-1.12-1.1-1.12-.7 0-1.2.5-1.2 1.12v1.88c0 .62.5 1.12 1.2 1.12zm1.1-8.25c1 0 1.9-.84 1.9-1.87v-6.75c0-1.04-.9-1.88-1.9-1.88-1.1 0-1.9.84-1.9 1.88v6.75c0 1.03.8 1.87 1.9 1.87zm-24.8-20.624c0 1.035.9 1.875 1.9 1.875h6.8c1 0 1.8-.84 1.8-1.875s-.8-1.875-1.8-1.875h-6.8c-1 0-1.9.84-1.9 1.875zm-28.5 0c0 1.035.9 1.875 1.9 1.875h6.8c1 0 1.8-.84 1.8-1.875s-.8-1.875-1.8-1.875h-6.8c-1 0-1.9.84-1.9 1.875z"/><path id="L" d="M321.73 55.104c.5 0 .9-.42.9-.937v-6.4c0-.518-.4-.937-.9-.937s-1 .42-1 .937v6.4c0 .518.5.937 1 .937zm0-10.107c.5 0 .9-.42.9-.938V37.64c0-.518-.4-.938-.9-.938s-1 .42-1 .938v6.41c0 .518.5.938 1 .938zm0-10.107c.5 0 .9-.42.9-.937v-6.4c0-.518-.4-.938-.9-.938s-1 .42-1 .938v6.4c0 .518.5.937 1 .937zm69.6 20.214c.5 0 1-.42 1-.937v-6.4c0-.518-.5-.937-1-.937s-.9.42-.9.937v6.4c0 .518.4.937.9.937zm0-10.107c.5 0 1-.42 1-.938V37.64c0-.518-.5-.938-1-.938s-.9.42-.9.938v6.41c0 .518.4.938.9.938zm0-10.107c.5 0 1-.42 1-.937v-6.4c0-.518-.5-.938-1-.938s-.9.42-.9.938v6.4c0 .518.4.937.9.937zm-68-9.693c0 .62.5 1.125 1.1 1.125h7.1c.6 0 1.1-.504 1.1-1.125s-.5-1.125-1.1-1.125h-7.1c-.6 0-1.1.504-1.1 1.125zm11.4 0c0 .62.5 1.125 1.1 1.125h7.1c.7 0 1.2-.504 1.2-1.125s-.5-1.125-1.2-1.125h-7.1c-.6 0-1.1.504-1.1 1.125zm11.4 0c0 .62.5 1.125 1.2 1.125h7.1c.6 0 1.1-.504 1.1-1.125s-.5-1.125-1.1-1.125h-7.1c-.7 0-1.2.504-1.2 1.125zm11.5 0c0 .62.5 1.125 1.1 1.125h7.1c.6 0 1.1-.504 1.1-1.125s-.5-1.125-1.1-1.125h-7.1c-.6 0-1.1.504-1.1 1.125zm11.4 0c0 .62.5 1.125 1.1 1.125h7.2c.6 0 1.1-.504 1.1-1.125s-.5-1.125-1.1-1.125h-7.2c-.6 0-1.1.504-1.1 1.125zm11.4 0c0 .62.5 1.125 1.2 1.125h7.1c.6 0 1.1-.504 1.1-1.125s-.5-1.125-1.1-1.125h-7.1c-.7 0-1.2.504-1.2 1.125zm-57.1 31.125c0 .62.5 1.125 1.1 1.125h7.1c.6 0 1.1-.504 1.1-1.125s-.5-1.125-1.1-1.125h-7.1c-.6 0-1.1.504-1.1 1.125zm11.4 0c0 .62.5 1.125 1.1 1.125h7.1c.7 0 1.2-.504 1.2-1.125s-.5-1.125-1.2-1.125h-7.1c-.6 0-1.1.504-1.1 1.125zm11.4 0c0 .62.5 1.125 1.2 1.125h7.1c.6 0 1.1-.504 1.1-1.125s-.5-1.125-1.1-1.125h-7.1c-.7 0-1.2.504-1.2 1.125zm11.5 0c0 .62.5 1.125 1.1 1.125h7.1c.6 0 1.1-.504 1.1-1.125s-.5-1.125-1.1-1.125h-7.1c-.6 0-1.1.504-1.1 1.125zm11.4 0c0 .62.5 1.125 1.1 1.125h7.2c.6 0 1.1-.504 1.1-1.125s-.5-1.125-1.1-1.125h-7.2c-.6 0-1.1.504-1.1 1.125zm11.4 0c0 .62.5 1.125 1.2 1.125h7.1c.6 0 1.1-.504 1.1-1.125s-.5-1.125-1.1-1.125h-7.1c-.7 0-1.2.504-1.2 1.125zm-58.7 62.248c.5 0 .9-.42.9-.93v-6.4c0-.52-.4-.94-.9-.94s-1 .42-1 .94v6.4c0 .5.5.93 1 .93zm0-10.1c.5 0 .9-.42.9-.94v-6.4c0-.52-.4-.94-.9-.94s-1 .42-1 .94v6.4c0 .52.5.94 1 .94zm0-10.11c.5 0 .9-.422.9-.94v-6.4c0-.518-.4-.938-.9-.938s-1 .42-1 .938v6.4c0 .517.5.94 1 .94zm69.6 20.21c.5 0 1-.42 1-.93v-6.4c0-.52-.5-.94-1-.94s-.9.42-.9.94v6.4c0 .5.4.93.9.93zm0-10.1c.5 0 1-.42 1-.94v-6.4c0-.52-.5-.94-1-.94s-.9.42-.9.94v6.4c0 .52.4.94.9.94zm0-10.11c.5 0 1-.422 1-.94v-6.4c0-.518-.5-.938-1-.938s-.9.42-.9.938v6.4c0 .517.4.94.9.94zm-68-9.694c0 .62.5 1.125 1.1 1.125h7.1c.6 0 1.1-.504 1.1-1.125s-.5-1.125-1.1-1.125h-7.1c-.6 0-1.1.504-1.1 1.125zm11.4 0c0 .62.5 1.125 1.1 1.125h7.1c.7 0 1.2-.504 1.2-1.125s-.5-1.125-1.2-1.125h-7.1c-.6 0-1.1.504-1.1 1.125zm11.4 0c0 .62.5 1.125 1.2 1.125h7.1c.6 0 1.1-.504 1.1-1.125s-.5-1.125-1.1-1.125h-7.1c-.7 0-1.2.504-1.2 1.125zm11.5 0c0 .62.5 1.125 1.1 1.125h7.1c.6 0 1.1-.504 1.1-1.125s-.5-1.125-1.1-1.125h-7.1c-.6 0-1.1.504-1.1 1.125zm11.4 0c0 .62.5 1.125 1.1 1.125h7.2c.6 0 1.1-.504 1.1-1.125s-.5-1.125-1.1-1.125h-7.2c-.6 0-1.1.504-1.1 1.125zm11.4 0c0 .62.5 1.125 1.2 1.125h7.1c.6 0 1.1-.504 1.1-1.125s-.5-1.125-1.1-1.125h-7.1c-.7 0-1.2.504-1.2 1.125zm-57.1 31.124c0 .62.5 1.13 1.1 1.13h7.1c.6 0 1.1-.5 1.1-1.13s-.5-1.12-1.1-1.12h-7.1c-.6 0-1.1.5-1.1 1.12zm11.4 0c0 .62.5 1.13 1.1 1.13h7.1c.7 0 1.2-.5 1.2-1.13s-.5-1.12-1.2-1.12h-7.1c-.6 0-1.1.5-1.1 1.12zm11.4 0c0 .62.5 1.13 1.2 1.13h7.1c.6 0 1.1-.5 1.1-1.13s-.5-1.12-1.1-1.12h-7.1c-.7 0-1.2.5-1.2 1.12zm11.5 0c0 .62.5 1.13 1.1 1.13h7.1c.6 0 1.1-.5 1.1-1.13s-.5-1.12-1.1-1.12h-7.1c-.6 0-1.1.5-1.1 1.12zm11.4 0c0 .62.5 1.13 1.1 1.13h7.2c.6 0 1.1-.5 1.1-1.13s-.5-1.12-1.1-1.12h-7.2c-.6 0-1.1.5-1.1 1.12zm11.4 0c0 .62.5 1.13 1.2 1.13h7.1c.6 0 1.1-.5 1.1-1.13s-.5-1.12-1.1-1.12h-7.1c-.7 0-1.2.5-1.2 1.12z"/><path id="M" d="M1580.45 38.774c0-.567-.5-1.027-1.1-1.027-.5 0-1 .46-1 1.027v4.993c0 .57.5 1.03 1 1.03.6 0 1.1-.46 1.1-1.03v-4.993z"/><path id="N" d="M1603.05 38.774c0-.567-.5-1.027-1-1.027-.6 0-1.1.46-1.1 1.027v4.993c0 .57.5 1.03 1.1 1.03.5 0 1-.46 1-1.03v-4.993z"/><path id="O" d="M158.773 136.928v8.531h-1.758l-3.422-5.613v5.613h-1.758v-8.531h1.758l3.428 5.625v-5.625h1.752z"/><path id="P" d="M164.087 142.049q-.662.65-1.547.65-1.131 0-1.811-.776-.68-.776-.68-2.095 0-.838.366-1.538.366-.7 1.022-1.09.656-.39 1.477-.39.844 0 1.5.422.656.422 1.02 1.213.363.791.369 1.811v.627q0 2.133-1.061 3.352-1.061 1.219-3.006 1.301l-.416.006v-1.412l.375-.006q2.209-.1 2.391-2.074zm-1.131-.645q.41 0 .706-.211.296-.211.448-.51v-.697q0-.861-.328-1.336-.328-.475-.879-.475-.51 0-.838.466-.328.466-.328 1.169 0 .697.319 1.146.319.448.899.448z"/><path id="Q" d="M17.643 60.721q0-.498-.352-.765-.352-.267-1.266-.562-.914-.296-1.447-.583-1.453-.785-1.453-2.115 0-.691.39-1.233.39-.542 1.119-.847.729-.305 1.638-.305.914 0 1.629.331.715.331 1.11.935.396.604.396 1.371h-1.758q0-.586-.369-.911-.369-.325-1.037-.325-.645 0-1.002.272-.357.272-.357.718 0 .416.419.697.419.281 1.233.527 1.5.451 2.186 1.119.686.668.686 1.664 0 1.107-.838 1.737-.838.63-2.256.63-.984 0-1.793-.36-.809-.36-1.233-.987-.425-.627-.425-1.453h1.764q0 1.412 1.688 1.412.627 0 .979-.255.352-.255.352-.712z"/></defs><symbol id="R" overflow="visible"><g class="E"><path d="M12.97 149.91h1607.98c6.623-.011 11.989-5.377 12-12V12.023c0-6.627-5.4-12-12-12h0H12.97c-6.627 0-12 5.373-12 12h0V137.91c0 6.627 5.373 12 12 12z" fill="#c1c5cb" class="D"/><path d="M16.135 146.37H4.51v-13.13h11.625v13.12z" class="B"/><path d="M68.635 143h-61.5v-11.63l61.335.93.165 10.7z" class="D N O"/><g class="B"><path d="M1560.05 132.87h69v-129h-69v129z"/><path d="M1617.05 143.74h11.6v-13.13h-11.6v13.13z"/></g><g class="O"><path d="M1564.55 140.37h61.5v-16.5h-61.5v16.5z"/><path d="M1564.55 69.87h62.2V5.37h-62.2v64.5z" stroke="#8c8c8c"/></g><g class="N"><g fill="url(#A)"><path d="M48.863 36.87c0-2.928-2.374-5.302-5.302-5.302a5.3 5.3 0 1 0 0 10.602c2.926 0 5.302-2.373 5.302-5.3z"/><path d="M48.863 58.57a5.3 5.3 0 1 0-10.602 0c0 2.927 2.374 5.302 5.3 5.302s5.302-2.374 5.302-5.302z"/></g><path d="M1626.75 143.74h-5.2l.5 7.12h10.9V.023h-72.9v4.223h66.3c.9 0 1.5.504 1.5 1.125h0v136.5c.1.96-.4 1.8-1.1 1.88z" class="D O"/><path d="M1564.55 130.62h27V68.37h-27v62.25z" fill="url(#B)"/><path d="M1591.55 130.67h36V68.418h-36v62.252z" fill="url(#C)"/></g><path d="M1591.55 117.36h36.3V81.63h-36.3v35.73z" class="B"/><path d="M68.8 132.3l-58.5.03v14.25H8.8a3.75 3.75 0 0 1-3.75-3.75h0V13.456a6 6 0 0 1 6-6h0l55.335.165v11.25H1560.05V.023H9.75a6.86 6.86 0 0 0-1.125 0A9.64 9.64 0 0 0 0 9.331h0v133.06a8.83 8.83 0 0 0 8.095 8.35c.481.04.964.04 1.445 0l1612.5.13v-14.8c0-2.48-2.4-4.5-5.3-4.5l-57.7.03v-4.15H68.8v4.84z" class="D N O"/><path d="M66.385 126.5H1560.05V18.87H66.385V126.5z" class="B"/><g class="N"><path d="M55.51 70.183H6.01v61.937h49.5V70.183z" fill="url(#B)"/><path d="M55.51 117.6h9V81.87h-9v35.73z" class="B"/><path d="M66.385.023H1560.05V18.87H66.385V7.62" fill="url(#D)"/></g></g><path d="M68.25 130.62h71.25v19.875H68.25z" fill="#ac2f54" class="C"/><use xlink:href="#E" class="D E F G"/><use xlink:href="#F" class="H I"/><g class="C"><use xlink:href="#G" class="J"/><use xlink:href="#H" class="B"/></g><g class="E"><use xlink:href="#I" class="K"/><use xlink:href="#J" class="L"/><g class="M"><use xlink:href="#K"/><use xlink:href="#L"/></g><use xlink:href="#E" x="83.34" class="D F G"/></g><use xlink:href="#F" x="83.34" class="H I"/><g class="C"><use xlink:href="#G" x="83.34" class="J"/><use xlink:href="#H" x="83.34" class="B"/></g><g class="E"><use xlink:href="#I" x="83.34" class="K"/><use xlink:href="#J" x="83.34" class="L"/><g class="M"><use xlink:href="#K" x="83.34"/><use xlink:href="#L" x="83.34"/></g><use xlink:href="#E" x="166.68" class="D F G"/></g><use xlink:href="#F" x="166.68" class="H I"/><g class="C"><use xlink:href="#G" x="166.68" class="J"/><use xlink:href="#H" x="166.68" class="B"/></g><g class="E"><use xlink:href="#I" x="166.68" class="K"/><use xlink:href="#J" x="166.68" class="L"/><g class="M"><use xlink:href="#K" x="166.68"/><use xlink:href="#L" x="166.68"/></g><use xlink:href="#E" x="-250.02" class="D F G"/></g><use xlink:href="#F" x="-250.02" class="H I"/><g class="C"><path d="M69.41 59.7h74.25v24.84H69.41z" class="J"/><use xlink:href="#H" x="-250.02" class="B"/></g><g class="E"><use xlink:href="#I" x="-250.02" class="K"/><use xlink:href="#J" x="-250.02" class="L"/><g class="M"><use xlink:href="#K" x="-250.02"/><use xlink:href="#L" x="-250.02"/></g><use xlink:href="#E" x="-166.68" class="D F G"/></g><use xlink:href="#F" x="-166.68" class="H I"/><g class="C"><path d="M152.75 59.7H227v24.84h-74.25z" class="J"/><use xlink:href="#H" x="-166.68" class="B"/></g><g class="E"><use xlink:href="#I" x="-166.68" class="K"/><use xlink:href="#J" x="-166.68" class="L"/><g class="M"><use xlink:href="#K" x="-166.68"/><use xlink:href="#L" x="-166.68"/></g><use xlink:href="#E" x="-83.34" class="D F G"/></g><use xlink:href="#F" x="-83.34" class="H I"/><g class="C"><use xlink:href="#G" x="-83.34" class="J"/><use xlink:href="#H" x="-83.34" class="B"/></g><g class="E"><use xlink:href="#I" x="-83.34" class="K"/><use xlink:href="#J" x="-83.34" class="L"/><g class="M"><use xlink:href="#K" x="-83.34"/><use xlink:href="#L" x="-83.34"/></g><use xlink:href="#E" x="250" class="D F G"/></g><use xlink:href="#F" x="250" class="H I"/><g class="C"><use xlink:href="#G" x="250" class="J"/><use xlink:href="#H" x="250" class="B"/></g><g class="E"><use xlink:href="#I" x="250" class="K"/><use xlink:href="#J" x="250" class="L"/><g class="M"><use xlink:href="#K" x="250"/><use xlink:href="#L" x="250"/></g><use xlink:href="#E" x="333.34" class="D F G"/></g><use xlink:href="#F" x="333.34" class="H I"/><g class="C"><use xlink:href="#G" x="333.34" class="J"/><use xlink:href="#H" x="333.34" class="B"/></g><g class="E"><use xlink:href="#I" x="333.34" class="K"/><use xlink:href="#J" x="333.34" class="L"/><g class="M"><use xlink:href="#K" x="333.34"/><use xlink:href="#L" x="333.34"/></g><use xlink:href="#E" x="416.68" class="D F G"/></g><use xlink:href="#F" x="416.68" class="H I"/><g class="C"><use xlink:href="#G" x="416.68" class="J"/><use xlink:href="#H" x="416.68" class="B"/></g><g class="E"><use xlink:href="#I" x="416.68" class="K"/><use xlink:href="#J" x="416.68" class="L"/><g class="M"><use xlink:href="#K" x="416.68"/><use xlink:href="#L" x="416.68"/></g><use xlink:href="#E" x="500.02" class="D F G"/></g><use xlink:href="#F" x="500.02" class="H I"/><g class="C"><use xlink:href="#G" x="500.02" class="J"/><use xlink:href="#H" x="500.02" class="B"/></g><g class="E"><use xlink:href="#I" x="500.02" class="K"/><use xlink:href="#J" x="500.02" class="L"/><g class="M"><use xlink:href="#K" x="500.02"/><use xlink:href="#L" x="500.02"/></g><use xlink:href="#E" x="583.36" class="D F G"/></g><use xlink:href="#F" x="583.36" class="H I"/><g class="C"><use xlink:href="#G" x="583.36" class="J"/><use xlink:href="#H" x="583.36" class="B"/></g><g class="E"><use xlink:href="#I" x="583.36" class="K"/><use xlink:href="#J" x="583.36" class="L"/><g class="M"><use xlink:href="#K" x="583.36"/><use xlink:href="#L" x="583.36"/></g><use xlink:href="#E" x="666.7" class="D F G"/></g><use xlink:href="#F" x="666.7" class="H I"/><g class="C"><use xlink:href="#G" x="666.7" class="J"/><use xlink:href="#H" x="666.7" class="B"/></g><g class="E"><use xlink:href="#I" x="666.7" class="K"/><use xlink:href="#J" x="666.7" class="L"/><g class="M"><use xlink:href="#K" x="666.7"/><use xlink:href="#L" x="666.7"/></g><use xlink:href="#E" x="750.02" class="D F G"/></g><use xlink:href="#F" x="750.02" class="H I"/><g class="C"><use xlink:href="#G" x="750.02" class="J"/><use xlink:href="#H" x="750.02" class="B"/></g><g class="E"><use xlink:href="#I" x="750.02" class="K"/><use xlink:href="#J" x="750.02" class="L"/><g class="M"><use xlink:href="#K" x="750.02"/><use xlink:href="#L" x="750.02"/></g><use xlink:href="#E" x="833.36" class="D F G"/></g><use xlink:href="#F" x="833.36" class="H I"/><g class="C"><use xlink:href="#G" x="833.36" class="J"/><use xlink:href="#H" x="833.36" class="B"/></g><g class="E"><use xlink:href="#I" x="833.36" class="K"/><use xlink:href="#J" x="833.36" class="L"/><g class="M"><use xlink:href="#K" x="833.36"/><use xlink:href="#L" x="833.36"/></g><use xlink:href="#E" x="916.7" class="D F G"/></g><use xlink:href="#F" x="916.7" class="H I"/><g class="C"><use xlink:href="#G" x="916.7" class="J"/><use xlink:href="#H" x="916.7" class="B"/></g><g class="E"><use xlink:href="#I" x="916.7" class="K"/><use xlink:href="#J" x="916.7" class="L"/><g class="M"><use xlink:href="#K" x="916.7"/><use xlink:href="#L" x="916.7"/></g><use xlink:href="#E" x="1000.02" class="D F G"/></g><use xlink:href="#F" x="1000.02" class="H I"/><g class="C"><use xlink:href="#G" x="1000.02" class="J"/><use xlink:href="#H" x="1000.02" class="B"/></g><g class="E"><use xlink:href="#I" x="1000.02" class="K"/><use xlink:href="#J" x="1000.02" class="L"/><g class="M"><use xlink:href="#K" x="1000.02"/><use xlink:href="#L" x="1000.02"/></g><use xlink:href="#E" x="1083.36" class="D F G"/></g><use xlink:href="#F" x="1083.36" class="H I"/><g class="C"><use xlink:href="#G" x="1083.36" class="J"/><use xlink:href="#H" x="1083.36" class="B"/></g><g class="E"><use xlink:href="#I" x="1083.36" class="K"/><use xlink:href="#J" x="1083.36" class="L"/><g class="M"><use xlink:href="#K" x="1083.36"/><use xlink:href="#L" x="1083.36"/></g><use xlink:href="#E" x="1166.7" class="D F G"/></g><use xlink:href="#F" x="1166.7" class="H I"/><g class="C"><use xlink:href="#G" x="1166.7" class="J"/><use xlink:href="#H" x="1166.7" class="B"/></g><g class="E"><use xlink:href="#I" x="1166.7" class="K"/><use xlink:href="#J" x="1166.7" class="L"/><g class="M"><use xlink:href="#K" x="1166.7"/><use xlink:href="#L" x="1166.7"/></g></g><g class="C"><path d="M1586.05 50.446h2.075v8.224h-2.075zm18.8 2.357c-.1-.044-.7-.44-1.7-.44-1.4 0-2.3.933-2.3 2.193 0 1.223.9 2.196 2.3 2.196 1 0 1.6-.387 1.7-.437v2.208c-.2.073-.9.293-1.9.293-2.3 0-4.3-1.61-4.3-4.26 0-2.456 1.8-4.257 4.3-4.257 1 0 1.7.237 1.9.295v2.208zm-21.6 0c-.1-.044-.8-.44-1.8-.44-1.3 0-2.3.933-2.3 2.193 0 1.223.9 2.196 2.3 2.196 1 0 1.7-.387 1.8-.437v2.208c-.3.073-1 .293-1.9.293-2.4 0-4.4-1.61-4.4-4.26 0-2.456 1.8-4.257 4.4-4.257.9 0 1.7.237 1.9.295v2.208zm32.5 1.754c0 2.353-1.8 4.26-4.3 4.26-2.6 0-4.4-1.907-4.4-4.26s1.8-4.257 4.4-4.257c2.5 0 4.3 1.908 4.3 4.257zm-4.3-2.163c-1.3 0-2.2.97-2.2 2.163s.9 2.165 2.2 2.165c1.2 0 2.1-.968 2.1-2.165s-.9-2.163-2.1-2.163zm-15.4-.079c-.1-.01-.9-.25-1.7-.25s-1.2.28-1.2.674c0 .5.6.676.9.784l.6.182c1.3.428 1.9 1.35 1.9 2.353 0 2.066-1.8 2.76-3.4 2.76a11.72 11.72 0 0 1-2.2-.225V56.7c.2.046 1 .306 2 .306s1.5-.302 1.5-.768c0-.416-.4-.657-1-.82-.1-.042-.3-.1-.4-.143-1.2-.365-2.1-1.045-2.1-2.406 0-1.538 1.1-2.57 3-2.57 1 0 2 .245 2.1.262v1.755z" fill="#c41230"/><g fill="#005568"><path d="M1574.75 41.608c0-.567-.5-1.027-1-1.027-.6 0-1.1.46-1.1 1.027v2.16c0 .57.5 1.03 1.1 1.03.5 0 1-.46 1-1.03v-2.16z"/><use xlink:href="#M"/><path d="M1586.05 34.897a1.05 1.05 0 0 0-1-1.026c-.6 0-1.1.46-1.1 1.026v10.92c0 .57.5 1.03 1.1 1.03.5 0 1-.46 1-1.03v-10.92z"/><use xlink:href="#M" x="11.3"/><path d="M1597.35 41.608c0-.567-.4-1.027-1-1.027s-1 .46-1 1.027v2.16c0 .57.4 1.03 1 1.03s1-.46 1-1.03v-2.16z"/><use xlink:href="#N"/><path d="M1608.65 34.897c0-.567-.4-1.026-1-1.026a1.05 1.05 0 0 0-1 1.026v10.92c0 .57.5 1.03 1 1.03.6 0 1-.46 1-1.03v-10.92z"/><use xlink:href="#N" x="11.3"/><path d="M1620.05 41.608c0-.567-.5-1.027-1.1-1.027-.5 0-1 .46-1 1.027v2.16c0 .57.5 1.03 1 1.03.6 0 1.1-.46 1.1-1.03v-2.16z"/></g><g class="B"><use xlink:href="#O"/><use xlink:href="#P"/><path d="M172.055 145.459l-2.191-3.422-.914.984v2.438h-1.758v-8.531h1.758v3.867l.773-1.061 2.174-2.807h2.162l-3.029 3.791 3.117 4.74h-2.092zm4.975-4.335v1.365h-3.299v-1.365h3.299zm2.924-4.196l1.6 2.941 1.6-2.941h2.021l-2.484 4.23 2.549 4.301h-2.045l-1.641-2.988-1.641 2.988h-2.045l2.549-4.301-2.484-4.23h2.021z"/><use xlink:href="#P" x="25.816"/><path d="M198.628 136.928v.949l-3.299 7.582h-1.787l3.305-7.16h-4.242v-1.371h6.023zm2.807 4.84v-1.324h.902q.645 0 .955-.322.311-.322.311-.855 0-.516-.308-.803-.308-.287-.847-.287-.486 0-.814.267-.328.267-.328.694h-1.693q0-.668.36-1.198.36-.53 1.008-.829.647-.299 1.427-.299 1.354 0 2.121.647.768.647.768 1.784 0 .586-.357 1.078-.357.492-.937.756.721.258 1.075.773.354.516.354 1.219 0 1.137-.829 1.822-.829.686-2.194.686-1.277 0-2.089-.674-.812-.674-.812-1.781h1.693q0 .48.36.785.36.305.888.305.604 0 .946-.319.343-.319.343-.847 0-1.277-1.406-1.277h-.896zm9.475-4.928h.281v1.395h-.164q-1.148.018-1.849.598-.7.58-.841 1.611.68-.691 1.717-.691 1.113 0 1.77.797.656.797.656 2.098 0 .832-.36 1.506-.36.674-1.02 1.049-.659.375-1.491.375-1.348 0-2.177-.937-.829-.937-.829-2.502v-.609q0-1.389.524-2.452.524-1.063 1.506-1.646.981-.583 2.276-.589zm-1.371 4.271q-.41 0-.744.214-.334.214-.492.565v.516q0 .85.334 1.327.334.478.938.478.545 0 .882-.431.337-.431.337-1.116 0-.697-.34-1.125-.34-.428-.914-.428zm7.423 1.342h-1.541v3.006h-1.758v-8.531h3.328q.961 0 1.69.352.729.352 1.122.999.393.647.393 1.474 0 1.254-.858 1.978-.858.724-2.376.724zm-1.541-4.102v2.678h1.57q.697 0 1.063-.328.366-.328.366-.937 0-.627-.369-1.014-.369-.387-1.02-.398h-1.611zm12.979 2.655v.381q0 1.195-.387 2.077-.387.882-1.072 1.415l1.418 1.113-1.119.99-1.816-1.459q-.311.053-.645.053-1.061 0-1.893-.51-.832-.51-1.289-1.456-.457-.946-.463-2.177v-.422q0-1.26.454-2.218.454-.958 1.283-1.471.829-.513 1.896-.513 1.066 0 1.896.513.829.513 1.283 1.471.454.958.454 2.212zm-1.781.41V141q0-1.342-.48-2.039-.48-.697-1.371-.697-.885 0-1.365.688-.48.688-.486 2.019v.416q0 1.307.48 2.027.48.721 1.383.721.885 0 1.359-.694.475-.694.48-2.024zM15.587 40.959h-3.316v-8.531h2.988q1.553 0 2.355.595.803.595.803 1.743 0 .627-.322 1.104-.322.478-.896.7.656.164 1.034.662.378.498.378 1.219 0 1.23-.785 1.863-.785.633-2.238.645zm.053-3.715h-1.611v2.303h1.506q.621 0 .97-.296.349-.296.349-.817 0-1.172-1.213-1.189zm-1.611-3.393v2.15h1.301q1.33-.023 1.33-1.061 0-.58-.337-.835-.337-.255-1.063-.255h-1.23zm10.839 4.267h1.758q-.1 1.377-1.017 2.168-.917.791-2.417.791-1.641 0-2.581-1.104-.94-1.104-.94-3.032v-.521q0-1.23.434-2.168.434-.937 1.239-1.438.806-.501 1.872-.501 1.477 0 2.379.791.902.791 1.043 2.221H24.88q-.064-.826-.46-1.198-.396-.372-1.204-.372-.879 0-1.315.63-.437.63-.448 1.954v.645q0 1.383.419 2.021.419.639 1.321.639.814 0 1.216-.372.401-.372.46-1.151z"/><use xlink:href="#O" x="-124.054" y="-104.5"/><use xlink:href="#Q"/><path d="M27.018 54.428v1.424h-2.613v7.107h-1.758v-7.107h-2.578v-1.424h6.949z"/><use xlink:href="#Q" x="14.707"/></g></g></symbol></svg>