<svg xmlns="http://www.w3.org/2000/svg" xmlns:xlink="http://www.w3.org/1999/xlink" viewBox="0 0 1825 165" fill="#fff" fill-rule="evenodd" stroke="#000" stroke-linecap="round" stroke-linejoin="round"><style><![CDATA[.B{stroke-width:.96}.C{stroke:none}.D{fill:#000}.E{stroke-linejoin:miter}.F{fill:none}.G{stroke:gray}.H{fill:url(#O)}.I{stroke:#ddd}.J{fill:#262626}.K{stroke:#404040}.L{stroke-width:1.632}.M{fill:#404040}.N{fill:#c1c5cb}.O{fill:url(#F)}.P{stroke-width:2.88}.Q{fill-rule:nonzero}.R{fill:#285ea6}.S{fill:#22508e}.T{fill:#595959}.U{fill:url(#L)}.V{fill:#b2b2b2}.W{fill:#ddd}.X{stroke:#5f5f5f}.Y{fill:url(#A)}.Z{fill:url(#B)}.a{fill:silver}.b{fill:url(#Q)}.c{stroke:#595959}.d{fill:#d9d9d9}.e{fill:url(#R)}.f{stroke:#262626}.g{fill:url(#S)}.h{fill:url(#T)}.i{stroke:#737373}.j{fill-opacity:0}.k{stroke-width:7.968}]]></style><use xlink:href="#AA" x=".5" y=".5"/><defs><linearGradient id="A" x1="100%" y1="50%" x2="0%" y2="50%"><stop offset="0%" stop-color="#737373"/><stop offset="100%" stop-color="#c1c5cb"/></linearGradient><linearGradient id="B" x1="0%" y1="50%" x2="100%" y2="50%"><stop offset="0%" stop-color="#737373"/><stop offset="100%" stop-color="#c1c5cb"/></linearGradient><linearGradient id="C" x1="0%" y1="50%" x2="100%" y2="50%"><stop offset="0%" stop-color="#737373"/><stop offset="1%" stop-color="#737373"/><stop offset="50%" stop-color="#c1c5cb"/><stop offset="100%" stop-color="#737373"/></linearGradient><linearGradient id="D" x1="50%" y1="0%" x2="50%" y2="100%"><stop offset="0%" stop-color="#737373"/><stop offset="100%" stop-color="#c1c5cb"/></linearGradient><radialGradient id="E" r="100%" fx="50%" fy="50%" cx="50%" cy="50%"><stop offset="0%" stop-color="gray"/><stop offset="71%" stop-color="#262626"/></radialGradient><radialGradient id="F" r="100%" fx="50%" fy="50%" cx="50%" cy="50%"><stop offset="0%" stop-color="#fff"/><stop offset="71%" stop-color="#b2b2b2"/></radialGradient><linearGradient id="G" x1="50%" y1="0%" x2="50%" y2="100%"><stop offset="0%" stop-color="#fff"/><stop offset="1%" stop-color="#fff"/><stop offset="50%" stop-color="#9a9a9a"/><stop offset="100%" stop-color="#fff"/></linearGradient><radialGradient id="H" r="100%" fx="50%" fy="50%" cx="50%" cy="50%"><stop offset="0%" stop-color="#1e1e1e"/><stop offset="71%" stop-color="#7f7f7f"/></radialGradient><radialGradient id="I" r="100%" fx="50%" fy="50%" cx="50%" cy="50%"><stop offset="0%" stop-color="#b3b3b3"/><stop offset="100%" stop-color="#333"/></radialGradient><radialGradient id="J" r="100%" fx="50%" fy="50%" cx="50%" cy="50%"><stop offset="0%" stop-color="#f2872f"/><stop offset="71%" stop-color="#d9680d"/></radialGradient><radialGradient id="K" r="100%" fx="50%" fy="50%" cx="50%" cy="50%"><stop offset="0%" stop-color="#46c146"/><stop offset="71%" stop-color="#393"/></radialGradient><linearGradient id="L" x1="50%" y1="100%" x2="50%" y2="0%"><stop offset="0%" stop-color="#7f7f7f"/><stop offset="100%" stop-color="#c1c5cb"/></linearGradient><linearGradient id="M" x1="100%" y1="50%" x2="0%" y2="50%"><stop offset="0%" stop-color="#7f7f7f"/><stop offset="100%" stop-color="#c1c5cb"/></linearGradient><linearGradient id="N" x1="0%" y1="50%" x2="100%" y2="50%"><stop offset="0%" stop-color="#262626"/><stop offset="1%" stop-color="#262626"/><stop offset="50%" stop-color="#444"/><stop offset="100%" stop-color="#262626"/></linearGradient><linearGradient id="O" x1="0%" y1="50%" x2="100%" y2="50%"><stop offset="0%" stop-color="#285ea6"/><stop offset="1%" stop-color="#285ea6"/><stop offset="50%" stop-color="#3a7acf"/><stop offset="100%" stop-color="#285ea6"/></linearGradient><linearGradient id="P" x1="50%" y1="0%" x2="50%" y2="100%"><stop offset="0%" stop-color="#4d4d4d"/><stop offset="1%" stop-color="#4d4d4d"/><stop offset="50%" stop-color="#fff"/><stop offset="100%" stop-color="#4d4d4d"/></linearGradient><linearGradient id="Q" x1="50%" y1="100%" x2="50%" y2="0%"><stop offset="0%" stop-color="#4d4d4d"/><stop offset="1%" stop-color="#4d4d4d"/><stop offset="50%" stop-color="#fff"/><stop offset="100%" stop-color="#4d4d4d"/></linearGradient><radialGradient id="R" r="100%" fx="50%" fy="50%" cx="50%" cy="50%"><stop offset="0%" stop-color="#777"/><stop offset="71%" stop-color="#595959"/></radialGradient><radialGradient id="S" r="100%" fx="50%" fy="50%" cx="50%" cy="50%"><stop offset="0%" stop-color="#737373"/><stop offset="71%" stop-color="#404040"/></radialGradient><linearGradient id="T" x1="100%" y1="50%" x2="0%" y2="50%"><stop offset="0%" stop-color="#285ea6"/><stop offset="1%" stop-color="#285ea6"/><stop offset="50%" stop-color="#3a7acf"/><stop offset="100%" stop-color="#285ea6"/></linearGradient><path id="U" d="M1574.42 110.35h49.152c.96 0 1.92-.96 1.92-1.92V91.15c0-.96-.96-1.92-1.92-1.92h-49.152c-.96 0-1.92.96-1.92 1.92v17.28c0 .96.96 1.92 1.92 1.92z"/><path id="V" d="M1600.824 16.469v-4.128h-4.224v4.128h4.224z"/><path id="W" d="M501.204 37.97h-.988v-4.137a3.35 3.35 0 0 1-1.276.832v-.995c.258-.094.538-.27.84-.533a2.02 2.02 0 0 0 .622-.916h.802z"/><path id="X" d="M493.03 79.484v-5.726h3.533v.97h-2.491v1.355h2.152v.97h-2.15v2.431z"/><path id="Y" d="M370.45 28.461v103.392c0 3.264 2.688 6.048 5.952 6.048h73.728a5.92 5.92 0 0 0 5.952-5.952V28.461c-.192-3.36-2.784-6.048-5.952-6.048h-73.536c-3.456 0-6.144 2.688-6.144 6.048z"/><path id="Z" d="M382.28 47.706v64.704a14.4 14.4 0 0 0 14.4 14.4h17.28a14.4 14.4 0 0 0 9.6-3.744l15.84-14.208a14.4 14.4 0 0 0 4.8-10.656V62.01a14.4 14.4 0 0 0-4.8-10.656l-15.84-14.208a14.4 14.4 0 0 0-9.6-3.744h-17.28c-7.953 0-14.4 6.447-14.4 14.4z"/><path id="a" d="M396.73 54.891v6.048l11.712.096.096-6.144-11.712-.096z"/><path id="b" d="M399.6 56.791v2.304l6.048.096.096-2.4-6.048-.096z"/><path id="c" d="M478.094 153.038v2.592h3.648c1.92-.096 3.84-1.632 3.84-3.84V19.31c-.096-2.88-2.304-5.184-5.184-5.472h-11.136a1.95 1.95 0 0 1-1.92-.96l-2.208-3.84a3.87 3.87 0 0 0-3.36-1.92h-1.344v2.496h1.44l1.152.576 2.208 3.84c.768 1.536 2.4 2.4 4.032 2.208h11.04a2.88 2.88 0 0 1 2.592 2.88V151.31l-4.8 1.44z"/><path id="d" d="M145.851 31.096l-.232 6.897h-1.641l-.232-6.897h2.105zm-1.053 7.978q.499 0 .803.294.304.294.304.752 0 .451-.304.745-.304.294-.803.294-.492 0-.796-.294-.304-.294-.304-.745 0-.451.304-.749.304-.297.796-.297z"/><path id="e" d="M538.146 153.58l7.104-4.128V141.1l-7.104-4.128-7.104 4.128v8.352l7.104 4.128zm18.04 0l7.104-4.128V141.1l-7.104-4.128-7.104 4.128v8.352l7.104 4.128zm72.15 0l7.104-4.128V141.1l-7.104-4.128-7.104 4.128v8.352l7.104 4.128zm-18.04 0l7.104-4.128V141.1l-7.104-4.128-7.104 4.128v8.352l7.104 4.128zm-18.04 0l7.104-4.128V141.1l-7.104-4.128-7.104 4.128v8.352l7.104 4.128zm-18.04 0l7.104-4.128V141.1l-7.104-4.128-7.104 4.128v8.352l7.104 4.128zm-45.09-15.93l7.104-4.128v-8.352l-7.104-4.128-7.104 4.128v8.352l7.104 4.128zm18.04 0l7.104-4.128v-8.352l-7.104-4.128-7.104 4.128v8.352l7.104 4.128zm90.19 0l7.104-4.128v-8.352l-7.104-4.128-7.104 4.128v8.352l7.104 4.128zm-18.04 0l7.104-4.128v-8.352l-7.104-4.128-7.104 4.128v8.352l7.104 4.128zm-18.04 0l7.104-4.128v-8.352l-7.104-4.128-7.104 4.128v8.352l7.104 4.128zm-18.04 0l7.104-4.128v-8.352l-7.104-4.128-7.104 4.128v8.352l7.104 4.128zm-18.04 0l7.104-4.128v-8.352l-7.104-4.128-7.104 4.128v8.352l7.104 4.128zm-27.05-15.92l7.104-4.128v-8.352l-7.104-4.128-7.104 4.128v8.352l7.104 4.128zm18.04 0l7.104-4.128v-8.352l-7.104-4.128-7.104 4.128v8.352l7.104 4.128zm72.15 0l7.104-4.128v-8.352l-7.104-4.128-7.104 4.128v8.352l7.104 4.128zm-18.04 0l7.104-4.128v-8.352l-7.104-4.128-7.104 4.128v8.352l7.104 4.128zm-18.04 0l7.104-4.128v-8.352l-7.104-4.128-7.104 4.128v8.352l7.104 4.128zm-18.04 0l7.104-4.128v-8.352l-7.104-4.128-7.104 4.128v8.352l7.104 4.128zm-45.09-15.93l7.104-4.128V93.32l-7.104-4.128-7.104 4.128v8.352l7.104 4.128zm18.04 0l7.104-4.128V93.32l-7.104-4.128-7.104 4.128v8.352l7.104 4.128zm90.19 0l7.104-4.128V93.32l-7.104-4.128-7.104 4.128v8.352l7.104 4.128zm-18.04 0l7.104-4.128V93.32l-7.104-4.128-7.104 4.128v8.352l7.104 4.128zm-18.04 0l7.104-4.128V93.32l-7.104-4.128-7.104 4.128v8.352l7.104 4.128zm-18.04 0l7.104-4.128V93.32l-7.104-4.128-7.104 4.128v8.352l7.104 4.128zm-18.04 0l7.104-4.128V93.32l-7.104-4.128-7.104 4.128v8.352l7.104 4.128zm-27.05-15.931l7.104-4.128v-8.352l-7.104-4.128-7.104 4.128v8.352l7.104 4.128zm18.04 0l7.104-4.128v-8.352l-7.104-4.128-7.104 4.128v8.352l7.104 4.128zm72.15 0l7.104-4.128v-8.352l-7.104-4.128-7.104 4.128v8.352l7.104 4.128zm-18.04 0l7.104-4.128v-8.352l-7.104-4.128-7.104 4.128v8.352l7.104 4.128zm-18.04 0l7.104-4.128v-8.352l-7.104-4.128-7.104 4.128v8.352l7.104 4.128zm-18.04 0l7.104-4.128v-8.352l-7.104-4.128-7.104 4.128v8.352l7.104 4.128zm-45.09-15.928l7.104-4.128v-8.352l-7.104-4.128-7.104 4.128v8.352l7.104 4.128zm18.04 0l7.104-4.128v-8.352l-7.104-4.128-7.104 4.128v8.352l7.104 4.128zm90.19 0l7.104-4.128v-8.352l-7.104-4.128-7.104 4.128v8.352l7.104 4.128zm-18.04 0l7.104-4.128v-8.352l-7.104-4.128-7.104 4.128v8.352l7.104 4.128zm-18.04 0l7.104-4.128v-8.352l-7.104-4.128-7.104 4.128v8.352l7.104 4.128zm-18.04 0l7.104-4.128v-8.352l-7.104-4.128-7.104 4.128v8.352l7.104 4.128zm-18.04 0l7.104-4.128v-8.352l-7.104-4.128-7.104 4.128v8.352l7.104 4.128zm-27.05-15.928l7.104-4.128v-8.352l-7.104-4.128-7.104 4.128v8.352l7.104 4.128zm18.04 0l7.104-4.128v-8.352l-7.104-4.128-7.104 4.128v8.352l7.104 4.128zm72.15 0l7.104-4.128v-8.352l-7.104-4.128-7.104 4.128v8.352l7.104 4.128zm-18.04 0l7.104-4.128v-8.352l-7.104-4.128-7.104 4.128v8.352l7.104 4.128zm-18.04 0l7.104-4.128v-8.352l-7.104-4.128-7.104 4.128v8.352l7.104 4.128zm-18.04 0l7.104-4.128v-8.352l-7.104-4.128-7.104 4.128v8.352l7.104 4.128zm-36.07-31.857l7.104-4.128v-8.352l-7.104-4.128-7.104 4.128v8.352l7.104 4.128zm18.04 0l7.104-4.128v-8.352l-7.104-4.128-7.104 4.128v8.352l7.104 4.128zm72.15 0l7.104-4.128v-8.352l-7.104-4.128-7.104 4.128v8.352l7.104 4.128zm-18.04 0l7.104-4.128v-8.352l-7.104-4.128-7.104 4.128v8.352l7.104 4.128zm-18.04 0l7.104-4.128v-8.352l-7.104-4.128-7.104 4.128v8.352l7.104 4.128zm-18.04 0l7.104-4.128v-8.352l-7.104-4.128-7.104 4.128v8.352l7.104 4.128zm-45.09 15.929l7.104-4.128v-8.352l-7.104-4.128-7.104 4.128v8.352l7.104 4.128zm18.04 0l7.104-4.128v-8.352l-7.104-4.128-7.104 4.128v8.352l7.104 4.128zm90.19 0l7.104-4.128v-8.352l-7.104-4.128-7.104 4.128v8.352l7.104 4.128zm-18.04 0l7.104-4.128v-8.352l-7.104-4.128-7.104 4.128v8.352l7.104 4.128zm-18.04 0l7.104-4.128v-8.352l-7.104-4.128-7.104 4.128v8.352l7.104 4.128zm-18.04 0l7.104-4.128v-8.352l-7.104-4.128-7.104 4.128v8.352l7.104 4.128zm-18.04 0l7.104-4.128v-8.352l-7.104-4.128-7.104 4.128v8.352l7.104 4.128z"/><path id="f" d="M546.61 14.801h-28.8v29.376a75.84 75.84 0 0 1 28.8-29.376z"/><path id="g" d="M648.7 44.177V14.801h-28.8a75.84 75.84 0 0 1 28.8 29.376z"/><path id="h" d="M546.61 148.24a75.84 75.84 0 0 1-28.8-29.376v29.376h28.8z"/><path id="i" d="M619.9 148.24h28.8v-29.376a75.84 75.84 0 0 1-28.8 29.376z"/><path id="j" d="M514.692 108l38.016-2.88c3.168-.48 5.472-2.976 5.472-6.24V64.992c0-3.168-2.4-5.76-5.568-5.952l-38.016-2.88c-3.168-.288-6.048 2.208-6.336 5.472v40.32c0 3.36 2.688 5.952 6.048 5.952z"/><path id="k" d="M522.768 99.454l19.68-1.632c3.168-.288 5.472-2.88 5.472-6.048V72.19c0-3.072-2.4-5.76-5.472-5.952l-19.68-1.728c-3.36-.192-6.24 2.304-6.528 5.568v23.424c0 3.36 2.688 5.952 6.048 5.952z"/><path id="l" d="M651.828 108l-38.016-2.88c-3.168-.48-5.472-2.976-5.472-6.24V64.992c0-3.168 2.4-5.76 5.568-5.952l38.016-2.88c3.168-.288 6.048 2.208 6.336 5.472v40.32c0 3.36-2.688 5.952-6.048 5.952z"/><path id="m" d="M643.742 99.454l-19.68-1.632c-3.168-.288-5.472-2.88-5.472-6.048V72.19c0-3.072 2.4-5.76 5.472-5.952l19.68-1.728c3.36-.192 6.24 2.304 6.528 5.568v23.424c0 3.36-2.688 5.952-6.048 5.952z"/><path id="n" d="M539.51 81.013c-2.88-2.88-2.88-7.392-.192-10.272l.192 10.272z"/><path id="o" d="M534.5 87.12v3.264h-1.344v3.84l-3.072-5.472 3.072-5.472v3.84h1.344z"/><path id="p" d="M538.772 82.091c0-1.152.48-1.92.96-1.92s1.248.672 1.248 1.92-.48 1.92-.96 1.92-.96-.96-.96-1.92z"/><path id="q" d="M539.518 81.013h3.648a6 6 0 0 0-.576-5.28c-1.92.96-3.264 2.88-2.88 5.28z"/><path id="r" d="M539.832 81.245h-3.648c-.864 2.112-.288 4.512 1.44 5.952 1.344-.48 2.304-1.728 2.304-3.168.288-.96.288-1.92-.096-2.88z"/><path id="s" d="M539.916 83.406l.384 9.6c2.496-2.496 2.592-6.72.192-9.216z"/><path id="t" d="M1596.64 125.08c0-.96-.96-1.92-1.92-1.92s-1.92.672-1.92 1.92.96 1.92 1.92 1.92 1.92-.96 1.92-1.92z"/><path id="u" d="M217.326 74.57h.328v1.627h-.191q-1.34.021-2.157.697-.817.677-.981 1.88.793-.807 2.003-.807 1.299 0 2.064.93.766.93.766 2.447 0 .971-.42 1.757-.42.786-1.189 1.224-.769.438-1.74.438-1.572 0-2.54-1.094-.967-1.094-.967-2.919v-.711q0-1.62.612-2.861.612-1.241 1.757-1.921 1.145-.68 2.656-.687zm-1.6 4.983q-.479 0-.868.25-.39.25-.574.66v.602q0 .991.39 1.548.39.557 1.094.557.636 0 1.029-.502.393-.502.393-1.302 0-.813-.396-1.312-.396-.499-1.066-.499z"/><path id="v" d="M222.193 80.121l-1.572-.39.574-5.059h5.578v1.647h-3.958l-.246 2.14q.704-.376 1.497-.376 1.422 0 2.229.882.807.882.807 2.468 0 .964-.407 1.726-.407.762-1.166 1.183-.759.42-1.791.42-.902 0-1.675-.366-.772-.366-1.22-1.029-.448-.663-.475-1.511h1.955q.062.622.434.967.373.345.974.345.67 0 1.032-.482.362-.482.362-1.364 0-.848-.417-1.299-.417-.451-1.183-.451-.704 0-1.142.369l-.191.178z"/><path id="w" d="M235.059 78.679v1.832q0 2.064-.854 3.158-.854 1.094-2.502 1.094-1.627 0-2.488-1.073-.861-1.073-.882-3.076v-1.832q0-2.085.865-3.165.865-1.08 2.492-1.08 1.627 0 2.488 1.07.861 1.07.882 3.073zm-1.976 2.188v-2.365q0-1.237-.338-1.801-.338-.564-1.056-.564-.697 0-1.029.537-.332.537-.352 1.678v2.42q0 1.217.332 1.808.332.591 1.063.591.725 0 1.046-.567.321-.567.335-1.736z"/><path id="x" d="M242.722 74.673l1.634 7.082 1.34-7.082h2.044l-2.208 9.953h-2.064l-1.62-6.658-1.62 6.658h-2.064l-2.208-9.953h2.044l1.347 7.068 1.641-7.068h1.736z"/><path id="y" d="M258.642 84.626l-.69-2.051h-3.596l-.684 2.051h-2.181l3.705-9.953h1.9l3.726 9.953h-2.181zm-2.495-7.437l-1.237 3.726h2.488l-1.251-3.726z"/><path id="z" d="M267.372 81.31h2.051q-.116 1.606-1.186 2.529-1.07.923-2.82.923-1.914 0-3.011-1.289-1.097-1.289-1.097-3.538v-.608q0-1.436.506-2.529.506-1.094 1.446-1.678.94-.584 2.184-.584 1.723 0 2.775.923 1.053.923 1.217 2.591h-2.051q-.075-.964-.537-1.398-.461-.434-1.405-.434-1.025 0-1.535.735-.509.735-.523 2.28v.752q0 1.613.489 2.358.489.745 1.542.745.95 0 1.418-.434.468-.434.537-1.343z"/></defs><symbol id="AA" overflow="visible"><g class="B E"><path d="M1788.864 150.092h-7.104c-5.184 0-9.408-4.128-9.6-9.216s4.224-9.312 9.408-9.312h18.24c5.28 0 9.6 4.128 9.6 9.216s-4.128 9.312-9.408 9.312h-11.04zm0-58.752h-7.104c-5.184 0-9.408-4.128-9.6-9.216s4.224-9.312 9.408-9.312h18.24c5.28 0 9.6 4.128 9.6 9.216s-4.128 9.312-9.408 9.312h-11.04zm0-58.752h-7.104c-5.184 0-9.408-4.128-9.6-9.216s4.224-9.312 9.408-9.312h18.24c5.28 0 9.6 4.128 9.6 9.216s-4.128 9.312-9.408 9.312h-11.04zM31.392 150.092h-7.104c-5.184 0-9.6-4.128-9.6-9.216s4.32-9.216 9.504-9.216h18.24c5.184 0 9.6 4.128 9.6 9.216s-4.224 9.312-9.408 9.312H31.392zm0-58.752h-7.104c-5.184 0-9.6-4.128-9.6-9.216s4.224-9.312 9.408-9.312h18.24c5.184 0 9.6 4.128 9.6 9.216s-4.32 9.312-9.504 9.312h-11.04zm0-58.752h-7.104c-5.184 0-9.6-4.128-9.6-9.216s4.224-9.312 9.408-9.312h18.24c5.184 0 9.6 4.128 9.6 9.216s-4.224 9.312-9.408 9.312H31.392zM19.2 163.34h1785.6c9.6 0 19.2-4.128 19.2-9.312v-144c0-5.088-9.6-9.312-19.2-9.312H19.2C8.64.716 0 4.844 0 10.028v144c0 5.184 9.6 9.312 19.2 9.312z" fill="#a6a6a6"/><path d="M95.652 163.67h1632.672V.47H95.652v163.2z" stroke="#7f7f7f" class="N"/><path d="M102.528 159.02h1619.904c1.248 0 2.208-.96 2.208-2.304V6.572c0-1.344-.96-2.304-2.112-2.304h-1620c-1.152 0-2.112.96-2.112 2.304v150.144c-.096 1.344.864 2.304 2.112 2.304z" class="D G"/></g><g class="C"><path d="M105.05 5.838h17.856V157.71H105.05z" class="N"/><path d="M121.25 5.807h6.144v151.904h-6.144z" class="Y"/><path d="M107.29 5.807h-6.144v151.904h6.144z" class="Z"/></g><path d="M102.528 163.2h1620.096c3.168 0 5.856-2.88 5.856-6.528V6.528c0-3.648-2.688-6.528-5.952-6.528h-1620c-3.36 0-6.048 2.88-6.048 6.528v150.144c0 3.648 2.688 6.528 6.048 6.528zm0-4.224c-1.248 0-2.208-1.056-2.208-2.304V6.528c0-1.344.96-2.4 2.208-2.4h1620.096c1.152 0 2.112.96 2.112 2.4v150.144c0 1.344-.96 2.304-2.112 2.304H102.528zM116.4 134.03h6.24a2.88 2.88 0 0 0 2.88-2.88V32.27a2.88 2.88 0 0 0-2.88-2.88h-6.24a2.88 2.88 0 0 0-2.88 2.88v98.88a2.88 2.88 0 0 0 2.88 2.88z" fill="#d1d3d0" class="B E G"/><g class="C"><path d="M490.6 5.838h12.288V157.71H490.6z" class="N"/><path d="M501.71 5.807h4.213v151.904h-4.213z" class="Y"/><path d="M492.13 5.807h-4.213v151.904h4.213z" class="Z"/><g fill="url(#C)"><path d="M660.59 5.807h12.751v151.904H660.59z"/><path d="M828.01 5.807h12.751v151.904H828.01z"/><path d="M995.43 5.807h12.751v151.904H995.43z"/></g><path d="M1166.2 5.838h12.288V157.71H1166.2z" class="N"/><path d="M1177.3 5.807h4.213v151.904h-4.213z" class="Y"/><path d="M1167.7 5.807h-4.213v151.904h4.213z" class="Z"/><path d="M1544.1 5.807h6.751v151.904h-6.751z" fill="url(#C)"/><path d="M1562.152 162.61h147.36c3.264 0 6.048-2.688 6.048-5.952V6.13h-159.168l-.192 150.432c0 3.36 2.688 6.048 5.952 6.048z" class="N"/><path d="M1714.3 11.199h4.213v143.252h-4.213z" class="Y"/><path d="M1557.7 11.199h-4.213v143.252h4.213z" class="Z"/><path d="M1556.4 10.774V6.186h159.191v4.588H1556.4z" fill="url(#D)"/></g><g class="B G"><path d="M1719.3 157.71h4.512V5.838h-4.512V157.71z" fill="#d1d3d0"/><path d="M1606.4 142.77h14.592v-9.6H1606.4v9.6z" fill="url(#E)"/></g><path d="M1601.603 148.375h2.747c.544 0 .95.025 1.216.075a1.69 1.69 0 0 1 .717.315 1.9 1.9 0 0 1 .527.638 1.88 1.88 0 0 1 .211.893c0 .358-.087.686-.26.984a1.68 1.68 0 0 1-.705.672 1.8 1.8 0 0 1 .966.693c.226.327.337.7.337 1.15 0 .347-.073.685-.218 1.013s-.344.6-.595.786a1.94 1.94 0 0 1-.93.362c-.23.028-.79.045-1.673.052h-2.34zm1.387 1.27v1.765h.91l1.008-.026a.87.87 0 0 0 .56-.273c.136-.151.204-.35.204-.596 0-.236-.06-.428-.176-.575s-.29-.237-.523-.268c-.138-.017-.533-.026-1.186-.026zm0 3.037v2.042h1.284l.952-.047a.84.84 0 0 0 .504-.305c.13-.162.195-.378.195-.648 0-.23-.05-.424-.15-.583a.86.86 0 0 0-.434-.349c-.19-.073-.6-.11-1.23-.11zm10.004.52l1.346.474c-.207.833-.55 1.452-1.03 1.857s-1.09.607-1.826.607c-.913 0-1.663-.346-2.25-1.04s-.88-1.64-.88-2.84c0-1.27.295-2.258.886-2.96s1.367-1.055 2.33-1.055c.84 0 1.524.276 2.05.828.312.326.547.795.703 1.406l-1.374.365c-.08-.396-.25-.708-.508-.937s-.57-.344-.94-.344a1.5 1.5 0 0 0-1.24.609c-.317.406-.476 1.064-.476 1.974 0 .965.156 1.653.47 2.063s.72.615 1.22.615a1.31 1.31 0 0 0 .951-.391c.266-.26.457-.67.572-1.23zm2.618 2.808v-7.635h1.35l2.813 5.1v-5.1h1.29v7.635h-1.392l-2.77-4.98v4.98z" class="C D Q"/><path d="M1654.2 142.77h14.592v-9.6H1654.2v9.6z" fill="url(#E)" class="B G"/><path d="M1653.047 153.526l1.35-.146c.08.503.246.873.494 1.11s.584.354 1.006.354c.447 0 .784-.105 1-.315s.34-.456.34-.737c0-.18-.048-.334-.143-.46s-.262-.237-.5-.33c-.163-.062-.533-.174-1.11-.333-.734-.209-1.256-.459-1.556-.759a2.08 2.08 0 0 1-.633-1.535 2.12 2.12 0 0 1 .298-1.091 1.92 1.92 0 0 1 .858-.774c.373-.177.824-.266 1.352-.266.862 0 1.512.2 1.948.63s.665.98.687 1.682l-1.388.068c-.06-.392-.187-.675-.382-.846s-.488-.268-.878-.268c-.403 0-.72.092-.947.276-.147.118-.22.276-.22.474a.61.61 0 0 0 .206.464c.175.163.6.333 1.275.5s1.174.36 1.498.55.576.448.76.776.274.734.274 1.216a2.43 2.43 0 0 1-.328 1.229 2.03 2.03 0 0 1-.928.852c-.4.186-.898.28-1.495.28-.87 0-1.536-.223-2.002-.67s-.745-1.077-.836-1.931zm7.898 2.484v-6.344h-2.04v-1.292h5.46v1.292h-2.032v6.344zm4.102-2.484l1.35-.146c.08.503.246.873.494 1.11s.584.354 1.006.354c.447 0 .783-.105 1-.315s.34-.456.34-.737c0-.18-.048-.334-.143-.46s-.262-.237-.5-.33a15.91 15.91 0 0 0-1.11-.333c-.744-.205-1.266-.457-1.566-.755-.422-.42-.633-.932-.633-1.536 0-.39.1-.753.298-1.09a1.93 1.93 0 0 1 .858-.774c.374-.178.824-.266 1.352-.266.863 0 1.512.2 1.948.63s.665.98.686 1.682l-1.387.068c-.06-.392-.187-.675-.382-.846s-.488-.258-.88-.258c-.403 0-.72.092-.947.276-.147.118-.22.276-.22.474a.62.62 0 0 0 .206.464c.175.163.6.333 1.275.5s1.174.36 1.498.55a2.03 2.03 0 0 1 .759.776c.183.328.274.734.274 1.216a2.43 2.43 0 0 1-.328 1.229 2.03 2.03 0 0 1-.928.852c-.4.186-.898.28-1.495.28-.87 0-1.536-.223-2.002-.67s-.744-1.096-.834-1.95z" class="C D Q"/><path d="M1646.548 143.018c0-5.376-4.032-9.792-9.024-9.792s-9.024 4.416-9.024 9.792 4.032 9.792 9.024 9.792 9.024-4.416 9.024-9.792z" stroke="#8c8c8c" class="B O"/><g class="F P X"><path d="M1641.3 143.01h-7.68"/><path d="M1637.5 147.3v-8.352"/></g><g class="B G"><path d="M1567 116.88h64.512V28.56H1567v88.32z" class="D"/><path d="M1627.366 113.62h-56.239c-.627 0-1.134-.508-1.134-1.134V32.683c0-.626.507-1.134 1.134-1.134h56.239c.626 0 1.134.508 1.134 1.134v79.803c0 .626-.508 1.134-1.134 1.134z" fill="url(#G)"/></g><path d="M1608.678 33.343l1.043 3.606 2.086 1.03 1.043 6.181 10.95 1.545v29.877h-49.536V45.706l10.95-1.545 1.043-6.181 2.086-1.03 1.043-3.606h19.293z" class="C J"/><g class="B"><g fill="url(#H)" class="i"><path d="M1586 41.679h-13.824v-7.68H1586v7.68z"/><path d="M1626.1 41.754h-13.824v-7.68h13.824v7.68z"/></g><g class="F"><path d="M1625.58 79.726c-.48-.96-1.248-1.728-2.4-1.632h-48.672c-.96-.096-1.92.672-2.208 1.632" stroke="#f2f2f2"/><path d="M1572.296 79.732c-.384 1.248.192 2.688 1.344 3.168l49.728.096c1.248.096 2.304-.96 2.4-2.304"/></g><use xlink:href="#U" fill="#969696" class="E"/><path d="M1575.72 108.92h46.464c.96 0 1.92-.96 1.92-1.92V92.12c0-.96-.96-1.92-1.92-1.92h-46.464c-.96 0-1.92.96-1.92 1.92V107c0 .96.96 1.92 1.92 1.92z" fill="url(#I)"/><path d="M1573.8 109.52h25.152v-1.92H1573.8v1.92zm25.2 0h25.152v-1.92H1599v1.92z" class="a"/></g><path d="M1578.7 93.097h40.512v3.552H1578.7z" class="C a"/><g class="B"><use xlink:href="#U" x="75.1" fill="#969696" class="E"/><path d="M1650.82 108.92h46.464c.96 0 1.92-.96 1.92-1.92V92.12c0-.96-.96-1.92-1.92-1.92h-46.464c-.96 0-1.92.96-1.92 1.92V107c0 .96.96 1.92 1.92 1.92z" fill="url(#I)"/><path d="M1648.9 109.52h25.152v-1.92H1648.9v1.92zm25.2 0h25.152v-1.92H1674.1v1.92z" class="a"/></g><g class="C"><path d="M1653.8 93.097h40.512v3.552H1653.8z" class="a"/><path d="M1683.5 33.5l1 3.5 2 1 1 6 10.5 1.5v29h-47.5v-29L1661 44l1-6 2-1 1-3.5h18.5z" class="J"/><path d="M1596.6 12.341h4.224v4.128h-4.224z" class="j"/></g><use xlink:href="#V" class="B F"/><path d="M1591.8 21.596h4.224v4.128h-4.224z" class="C j"/><use xlink:href="#V" x="-4.8" y="9.255" class="B F"/><path d="M1601.3 21.596h4.224v4.128h-4.224z" class="C j"/><g class="B"><g class="F"><use xlink:href="#V" x="4.7" y="9.255"/><path d="M1591 19.04h14.784"/><path d="M1593.9 19.04v2.592m9.5-2.592v2.592m-4.7-5.163v2.592" stroke-linecap="square" class="E"/></g><path d="M499.49 21.075v8.256l-6.144-4.128 6.144-4.128z" class="E G T"/></g><g class="C D Q"><path d="M494.094 37.97v-5.726h1.67c.633 0 1.045.03 1.237.086.295.086.543.273.742.56s.3.66.3 1.115c0 .352-.057.647-.172.887s-.26.428-.438.565a1.44 1.44 0 0 1-.54.271c-.248.055-.608.082-1.08.082h-.68v2.16zm1.04-4.758v1.625h.57c.4 0 .684-.03.823-.1a.7.7 0 0 0 .325-.281.82.82 0 0 0 .118-.445.79.79 0 0 0-.165-.516c-.1-.135-.25-.22-.418-.254-.124-.026-.374-.04-.75-.04z"/><use xlink:href="#W"/></g><g class="B"><g class="F"><path d="M492.27 132.91h9.792l-4.992-9.312-4.8 9.312zm4.632 9.794zm.096-1.536c1.152.288 1.92.48 1.92.288-1.152-1.44-1.92-.96-1.92-.288zm.576.96c-.288 1.248-.384 1.92-.288 2.112 1.344-1.248.768-1.92.288-2.112zm-.864-2.496c-1.344 1.152-.96 1.92-.384 1.92l.384-1.92zm.192 3.072c-1.152-.384-1.92-.384-2.016-.384.96 1.536 1.92.96 1.92.384z"/><path d="M492.59 144.65h9.024l-4.512-9.6-4.512 9.6z"/></g><path d="M495.17 62.589v8.256l6.144-4.128-6.144-4.128z" class="E G T"/></g><g class="C D Q"><use xlink:href="#X"/><use xlink:href="#W" x="-1.48" y="41.514"/></g><path d="M497.898 94.472v5.088l3.84-2.592-3.84-2.592zm-4.128 0v5.088l3.84-2.592-3.84-2.496z" class="B E G T"/><g class="C D Q"><use xlink:href="#X" x="0.26" y="31.326"/><path d="M500.792 109.79v1.02h-3.462a2.85 2.85 0 0 1 .337-1.096c.188-.345.558-.803 1.11-1.373l.82-.937c.136-.227.204-.45.204-.672 0-.245-.06-.433-.178-.564s-.282-.197-.5-.197a.61.61 0 0 0-.492.207c-.122.137-.192.367-.21.687l-.984-.11c.06-.604.243-1.038.552-1.3s.696-.394 1.16-.394c.51 0 .908.152 1.2.457s.436.684.436 1.137c0 .258-.042.503-.125.736a3.05 3.05 0 0 1-.396.732c-.12.17-.335.413-.647.73l-.592.633a1.9 1.9 0 0 0-.202.305z"/></g><path d="M1170.5 21.075v8.256l6.144-4.128-6.144-4.128z" class="B E G T"/><path d="M1168.224 37.97v-5.726h1.67c.633 0 1.045.03 1.237.086.295.086.543.273.742.56s.3.66.3 1.115c0 .352-.057.647-.172.887s-.26.428-.438.565a1.44 1.44 0 0 1-.54.271c-.248.055-.608.082-1.08.082h-.68v2.16zm1.04-4.758v1.625h.57c.4 0 .684-.03.823-.1a.7.7 0 0 0 .325-.281.82.82 0 0 0 .118-.445.79.79 0 0 0-.165-.516.68.68 0 0 0-.418-.254c-.124-.026-.374-.04-.75-.04zm6.878 3.738v1.02h-3.462a2.85 2.85 0 0 1 .337-1.096c.188-.345.558-.803 1.11-1.373l.82-.937c.136-.227.204-.45.204-.672 0-.245-.06-.433-.178-.564s-.282-.197-.5-.197a.61.61 0 0 0-.492.207c-.122.137-.192.367-.21.687l-.984-.11c.06-.604.243-1.038.552-1.3s.696-.394 1.16-.394c.51 0 .908.152 1.2.457s.436.684.436 1.137c0 .258-.042.503-.125.736a3.05 3.05 0 0 1-.396.732c-.12.17-.335.413-.647.73l-.592.633a1.94 1.94 0 0 0-.202.305z" class="C D Q"/><path d="M1174.9 62.589v8.256l-6.144-4.128 6.144-4.128z" class="B E G T"/><g class="C D Q"><use xlink:href="#X" x="676.6"/><path d="M1175.743 79.484v-1.152h-2.109v-.96l2.236-3.638h.83v3.633h.64v.965h-.64v1.152zm0-2.117V75.41l-1.185 1.957z"/></g><path d="M1172.172 94.472v5.088l-3.84-2.592 3.84-2.592zm4.128 0v5.088l-3.84-2.592 3.84-2.496z" class="B E G T"/><g class="C D Q"><use xlink:href="#X" x="676.4" y="31.326"/><path d="M1173.57 109.29l.956-.13c.03.27.112.478.246.62a.64.64 0 0 0 .485.215.64.64 0 0 0 .515-.258c.14-.172.21-.404.21-.695 0-.276-.067-.495-.2-.656s-.296-.242-.49-.242c-.127 0-.278.027-.453.082l.11-.895c.267.008.47-.057.612-.193s.21-.318.21-.545c0-.193-.05-.346-.155-.46a.53.53 0 0 0-.41-.172c-.17 0-.313.065-.432.195s-.192.32-.218.57l-.91-.172c.063-.346.16-.623.287-.83a1.33 1.33 0 0 1 .534-.488 1.65 1.65 0 0 1 .768-.178c.485 0 .874.172 1.167.516a1.43 1.43 0 0 1 .362.953c0 .503-.247.904-.742 1.203.295.07.53.228.708.473s.266.54.266.887c0 .503-.165.93-.496 1.285s-.742.53-1.234.53c-.466.003-.854-.145-1.161-.445s-.485-.688-.535-1.17z"/></g><path d="M130 155.56h40.896v-1.536c.48-1.536 1.536-1.92 2.496-1.536 1.152 1.248 1.152 1.344 1.152 1.536 0 .96.672 1.536 1.632 1.536h127.68l.96-1.536c.576-1.536 1.728-1.92 2.592-1.536l1.152 3.072h169.632v-13.44h4.8V19.432h-3.264c-.96 0-1.44-.672-1.44-1.44a1.48 1.48 0 0 0-1.44-1.44h-7.968c-1.536 0-2.88-.96-3.552-2.208l-.288-.576c-.48-.96-1.536-1.632-2.688-1.632h-1.92v-4.8L135.76 7.72c-3.264 0-5.76 2.592-5.76 5.76v142.08z" class="B E G N"/><g class="K L"><path d="M149.263 57.479c0-3.23-2.644-5.848-5.906-5.848s-5.906 2.618-5.906 5.848 2.644 5.848 5.906 5.848 5.906-2.618 5.906-5.848z" fill="url(#J)"/><path d="M149.263 120.212c0-3.23-2.644-5.848-5.906-5.848s-5.906 2.618-5.906 5.848 2.644 5.848 5.906 5.848 5.906-2.618 5.906-5.848z" fill="url(#K)"/></g><path d="M134.25 96.75l9.122-6.064v10.176L153.5 93.25m.144 1.66c0-5.376-4.416-9.6-9.792-9.6s-9.792 4.224-9.792 9.6 4.416 9.6 9.792 9.6 9.792-4.32 9.792-9.6z" class="F L"/><path d="M133.36 45.358h22.848a1.92 1.92 0 0 0 1.92-1.92L146.32 22.702a1.92 1.92 0 0 0-2.592-.672l-12.096 20.448a1.92 1.92 0 0 0 .672 2.592z" class="C J"/><path d="M130 150.88v4.8h40.896v-4.8" class="B G U"/><g transform="translate(308.49 150.88)"><path d="M0 0v4.8h169.632V0" class="B G U"/></g><g transform="translate(478.13 19.432)"><path fill="url(#M)" d="M0 0h4.8v122.688H0" class="B G"/></g><g transform="matrix(-1 0 0 -1 460.43 12.13)"><path d="M79.68 0v4.8H0V0" class="B G U"/></g><path d="M274.02 80.766c0-19.2-14.88-33.024-33.312-33.024S207.3 62.526 207.3 80.766s14.88 33.024 33.312 33.024 33.312-14.784 33.312-33.024z" stroke="#548bd4" class="E k"/><g class="X"><path d="M189.202 22.577c0-4.8-4.032-8.928-8.928-8.928s-9.024 4.032-9.024 8.928 4.032 8.928 8.928 8.928 8.928-3.84 8.928-8.928z" class="B O"/><g class="F P"><path d="M185.35 22.619h-10.272"/><path d="M180.22 27.697V17.521"/></g><path d="M187.012 138.832c0-4.8-4.032-8.928-8.928-8.928s-9.024 4.032-9.024 8.928 4.032 8.928 8.928 8.928 8.928-3.84 8.928-8.928z" class="B O"/><g class="F P"><path d="M183.16 138.874h-10.272"/><path d="M178.03 143.952v-10.176"/></g><path d="M312.202 138.832c0-4.8-4.032-8.928-8.928-8.928s-9.024 4.032-9.024 8.928 4.032 8.928 8.928 8.928 8.928-3.84 8.928-8.928z" class="B O"/><g class="F P"><path d="M308.35 138.874h-10.272"/><path d="M303.22 143.952v-10.176"/></g></g><path fill="url(#N)" d="M336.34 25.396c0-6.231 5.016-11.248 11.248-11.248s11.248 5.016 11.248 11.248V142.46c0 6.231-5.016 11.248-11.248 11.248s-11.248-5.016-11.248-11.248z" class="C"/><g class="E"><use xlink:href="#Y" class="L M i"/><g class="B"><use xlink:href="#Z" class="D"/><use xlink:href="#a" class="I V"/></g></g><path d="M408.26 54.795l-2.458 1.842m-.052 2.499l2.458 1.842m-11.048-6.183l2.458 1.842m.052 2.499l-2.458 1.842" class="B I F"/><g class="E"><use xlink:href="#b" class="B I W"/><use xlink:href="#a" y="44.545" class="B I V"/></g><path d="M408.26 99.34l-2.458 1.842m-.052 2.498l2.458 1.842M397.16 99.34l2.458 1.842m.052 2.498l-2.458 1.842" class="B I F"/><g class="E"><use xlink:href="#b" y="44.545" class="B I W"/><use xlink:href="#a" x="16.59" y="22.262" class="B I V"/></g><path d="M424.86 77.057l-2.458 1.842m-.052 2.499l2.458 1.842m-11.058-6.183l2.458 1.842m.052 2.499l-2.458 1.842" class="B I F"/><use xlink:href="#b" x="16.59" y="22.261" class="B E I W"/><g class="C"><path d="M451.75 120.21h23.265a3.12 3.12 0 0 0 3.12-3.12V47.372a3.12 3.12 0 0 0-3.12-3.121H451.75a3.12 3.12 0 0 0-3.12 3.121v69.718a3.12 3.12 0 0 0 3.12 3.12z" class="H"/><path d="M453.42 63.25h8.113v28.48h-8.113z" class="J"/><path d="M456 63.219h2.88v28.512H456z" fill="#d8d8d8"/></g><g class="B E"><use xlink:href="#c" class="G N"/><path d="M285.032 28.978c-25.686-21.528-63.115-21.528-88.8 0-1.152 2.112-1.152 4.512-.192 4.512l14.112 14.016c.96.96 2.592.96 3.84.192 15.627-12.206 37.557-12.206 53.184 0 1.152.96 2.88.768 3.84-.192l14.112-14.016c.96-.96.96-2.304.384-3.456zm-95.616 6.528c-23.316 25.635-23.316 64.797 0 90.432.96.288 2.112.096 2.88-.672l14.592-14.4c.96-.96 1.152-2.592.192-3.84-12.304-15.414-12.304-37.29 0-52.704.96-1.056.864-1.632-.192-3.552L192.2 36.37c-.768-.768-1.92-.96-2.88-.672zm6.72 96c25.685 21.528 63.114 21.528 88.8 0 1.248-1.92.96-3.456.096-4.416l-14.112-12.96c-.96-.96-2.592-.96-3.84-.192-15.627 12.206-37.557 12.206-53.184 0-.96-.768-2.496-.768-3.648.192l-14.208 14.016c-.96.96-.96 1.344-.384 3.456zm95.616-96c-.96-.288-2.112-.096-2.88.672l-14.592 14.4c-.96.96-1.152 2.592-.192 3.84 12.304 15.414 12.304 37.29 0 52.704-.96 1.152-.768 2.688.192 3.84l14.592 14.4c.768.768 1.92.96 2.88.672 23.316-25.635 23.316-64.797 0-90.432z" class="D"/></g><g fill="url(#P)"><path d="M184.912 82.709c-1.074-30.759 22.99-56.565 53.749-57.639s56.565 22.99 57.639 53.75-22.99 56.565-53.75 57.639-56.565-22.99-57.639-53.749zm-2.878.101c.732 20.96 12.591 39.938 31.109 49.784s40.882 9.065 58.668-2.049 28.292-30.873 27.56-51.833c-1.132-32.428-28.339-57.798-60.767-56.666s-57.798 28.339-56.666 60.767z" class="B"/><path d="M212.818 80.803c0-15.397 12.416-27.792 27.839-27.792s27.839 12.395 27.839 27.792-12.416 27.793-27.839 27.793-27.839-12.396-27.839-27.793zm2.496 0c0-14.017 11.303-25.301 25.343-25.301S266 66.787 266 80.803s-11.303 25.301-25.343 25.301-25.343-11.284-25.343-25.301z" class="C"/></g><path d="M205.069 47.087h-.001.001zm-.062 70.649l-.385.378c-.105.136-.202.284-.29.431l-.078-.063-13.345 13.345a4.35 4.35 0 0 0-1.137 4.137 12.19 12.19 0 0 1-8.819 14.805c-6.525 1.659-13.156-2.289-14.81-8.82a12.19 12.19 0 0 1-.332-1.984c-.115-1.365.004-2.751.352-4.084a12.19 12.19 0 0 1 14.87-8.715 12.46 12.46 0 0 1 2.022.714 1.09 1.09 0 0 1 .531 1.438c-.004.011-.01.021-.015.031l-.371.746c-.261.525-.889.745-1.42.504-4.618-2.121-10.073-.084-12.184 4.536-.326.714-.559 1.459-.695 2.237a9.2 9.2 0 0 0 .148 3.864c1.258 4.914 6.265 7.886 11.184 6.626s7.888-6.269 6.63-11.183a8.34 8.34 0 0 0-.177-.609c-.218-.682-.519-1.344-.893-1.953-.259-.431-.363-.935-.295-1.428a2.59 2.59 0 0 1 .725-1.47l.608-.609 2.999-3.024 36.727-36.832a3.52 3.52 0 0 0 .137-.144c2.712-2.98 4.173-6.89 4.076-10.919a3.3 3.3 0 0 1-.001-.181 15.42 15.42 0 0 0-4.085-10.73 4.26 4.26 0 0 0-.117-.121l-37.563-37.688-.78-.791c-.705-.712-.828-1.813-.301-2.664.386-.624.695-1.291.92-1.989 1.61-4.816-.99-10.024-5.806-11.633s-10.024.991-11.632 5.807a9.12 9.12 0 0 0-.187.635c-.323 1.263-.374 2.581-.149 3.865.877 5.001 5.642 8.344 10.643 7.468.772-.136 1.524-.369 2.236-.694.531-.244 1.159-.022 1.42.5l.371.742c.268.534.051 1.185-.484 1.453-.011.005-.021.011-.032.015a12.19 12.19 0 0 1-16.169-5.974c-.3-.651-.542-1.328-.723-2.022-.348-1.334-.467-2.716-.352-4.091a12.19 12.19 0 0 1 13.162-11.131 12.19 12.19 0 0 1 11.131 13.161c-.056.668-.167 1.33-.332 1.98-.375 1.48.057 3.049 1.136 4.13l14.809 14.858 21 21a5.26 5.26 0 0 1 .109.112c3.48 3.741 5.37 8.688 5.272 13.796-.002.063-.001.126 0 .188a19.95 19.95 0 0 1-5.265 13.99c-.04.044-.082.087-.124.129l-23.212 23.209-.658.714zm-1.101-4.275l.007-.008-.007.008z" class="C b"/><use xlink:href="#d" fill="#c1c1c1" class="C"/><g class="X"><path d="M310.102 22.577c0-4.8-4.032-8.928-8.928-8.928s-9.024 4.032-9.024 8.928 4.032 8.928 8.928 8.928 8.928-3.84 8.928-8.928z" class="B O"/><g class="F P"><path d="M306.25 22.619h-10.272"/><path d="M301.12 27.697V17.521"/></g></g><path d="M276.21 47.087h.001-.001zm.062 70.649l.385.378c.105.136.202.284.29.431l.078-.063 13.344 13.345a4.35 4.35 0 0 1 1.137 4.137 12.19 12.19 0 0 0 8.819 14.805c6.525 1.659 13.156-2.289 14.81-8.82a12.18 12.18 0 0 0 .332-1.984c.115-1.365-.004-2.751-.352-4.084a12.19 12.19 0 0 0-14.87-8.715c-.694.178-1.371.42-2.022.714a1.09 1.09 0 0 0-.531 1.438c.004.011.01.021.015.031l.371.746c.261.525.889.745 1.42.504 4.618-2.121 10.073-.084 12.184 4.536a9.14 9.14 0 0 1 .695 2.237c.225 1.281.175 2.593-.148 3.864-1.258 4.914-6.265 7.886-11.184 6.626s-7.888-6.269-6.63-11.183a8.34 8.34 0 0 1 .178-.609c.218-.682.519-1.344.892-1.953.259-.431.363-.935.295-1.428a2.59 2.59 0 0 0-.726-1.47l-.608-.609-2.999-3.024-36.727-36.832a3.52 3.52 0 0 1-.136-.144c-2.712-2.98-4.173-6.89-4.076-10.919.002-.061.002-.121.001-.181a15.42 15.42 0 0 1 4.086-10.73 4.26 4.26 0 0 1 .117-.121l37.563-37.688.78-.791c.705-.712.829-1.813.301-2.664-.386-.624-.695-1.291-.92-1.989-1.61-4.816.99-10.024 5.807-11.633s10.024.991 11.632 5.807c.07.21.132.421.187.635.323 1.263.374 2.581.148 3.865-.877 5.001-5.642 8.344-10.643 7.468-.772-.136-1.524-.369-2.236-.694a1.08 1.08 0 0 0-1.42.5l-.371.742c-.268.534-.052 1.185.484 1.453.011.005.021.011.031.015a12.19 12.19 0 0 0 16.169-5.974c.3-.651.542-1.328.723-2.022.348-1.334.467-2.716.352-4.091a12.19 12.19 0 0 0-13.162-11.131 12.19 12.19 0 0 0-11.131 13.161c.056.668.167 1.33.332 1.98.375 1.48-.057 3.049-1.136 4.13l-14.809 14.858-21 21a5.26 5.26 0 0 0-.109.112c-3.48 3.741-5.37 8.688-5.272 13.796a3.68 3.68 0 0 1 0 .188 19.95 19.95 0 0 0 5.265 13.99 3.6 3.6 0 0 0 .124.129l23.212 23.209.658.714zm1.101-4.275l-.007-.008.007.008z" class="C b"/><path d="M1186 155.56h40.896v-1.536c.48-1.536 1.536-1.92 2.496-1.536 1.152 1.248 1.152 1.344 1.152 1.536 0 .96.672 1.536 1.632 1.536h127.68l.96-1.536c.576-1.536 1.728-1.92 2.592-1.536l1.152 3.072h169.632v-13.44h4.8V19.432h-3.264c-.96 0-1.44-.672-1.44-1.44a1.48 1.48 0 0 0-1.44-1.44h-7.968c-1.536 0-2.88-.96-3.552-2.208l-.288-.576c-.48-.96-1.536-1.632-2.688-1.632h-1.92v-4.8l-324.672.384c-3.264 0-5.76 2.592-5.76 5.76v142.08z" class="B E G N"/><g class="K L"><path d="M1205.263 57.479c0-3.23-2.644-5.848-5.906-5.848s-5.906 2.618-5.906 5.848 2.644 5.848 5.906 5.848 5.906-2.618 5.906-5.848z" fill="url(#J)"/><path d="M1205.263 120.212c0-3.23-2.644-5.848-5.906-5.848s-5.906 2.618-5.906 5.848 2.644 5.848 5.906 5.848 5.906-2.618 5.906-5.848z" fill="url(#K)"/></g><path d="M1190.25 96.75l9.122-6.064v10.176l10.128-7.612m.144 1.66c0-5.376-4.416-9.6-9.792-9.6s-9.792 4.224-9.792 9.6 4.416 9.6 9.792 9.6 9.792-4.32 9.792-9.6z" class="F L"/><path d="M1189.36 45.358h22.848a1.92 1.92 0 0 0 1.92-1.92l-11.808-20.736a1.92 1.92 0 0 0-2.592-.672l-12.096 20.448a1.92 1.92 0 0 0 .672 2.592z" class="C J"/><path d="M1186 150.88v4.8h40.896v-4.8" class="B G U"/><g transform="translate(1364.49 150.88)"><path d="M0 0v4.8h169.632V0" class="B G U"/></g><g transform="translate(1534.13 19.432)"><path fill="url(#M)" d="M0 0h4.8v122.688H0" class="B G"/></g><g transform="matrix(-1 0 0 -1 1516.43 12.13)"><path d="M79.68 0v4.8H0V0" class="B G U"/></g><path d="M1330.02 80.766c0-19.2-14.88-33.024-33.312-33.024S1263.3 62.526 1263.3 80.766s14.88 33.024 33.312 33.024 33.312-14.784 33.312-33.024z" stroke="#548bd4" class="E k"/><g class="X"><path d="M1245.202 22.577c0-4.8-4.032-8.928-8.928-8.928s-9.024 4.032-9.024 8.928 4.032 8.928 8.928 8.928 8.928-3.84 8.928-8.928z" class="B O"/><g class="F P"><path d="M1241.35 22.619h-10.272"/><path d="M1236.22 27.697V17.521"/></g><path d="M1243.012 138.832c0-4.8-4.032-8.928-8.928-8.928s-9.024 4.032-9.024 8.928 4.032 8.928 8.928 8.928 8.928-3.84 8.928-8.928z" class="B O"/><g class="F P"><path d="M1239.16 138.874h-10.272"/><path d="M1234.03 143.952v-10.176"/></g><path d="M1368.202 138.832c0-4.8-4.032-8.928-8.928-8.928s-9.024 4.032-9.024 8.928 4.032 8.928 8.928 8.928 8.928-3.84 8.928-8.928z" class="B O"/><g class="F P"><path d="M1364.35 138.874h-10.272"/><path d="M1359.22 143.952v-10.176"/></g></g><path fill="url(#N)" d="M1392.34 25.396c0-6.231 5.016-11.248 11.248-11.248s11.248 5.016 11.248 11.248V142.46c0 6.231-5.016 11.248-11.248 11.248s-11.248-5.016-11.248-11.248z" class="C"/><g class="E"><use xlink:href="#Y" x="1056" class="L M i"/><g class="B"><use xlink:href="#Z" x="1056" class="D"/><use xlink:href="#a" x="1056" class="I V"/></g></g><path d="M1464.26 54.795l-2.458 1.842m-.052 2.499l2.458 1.842m-11.048-6.183l2.458 1.842m.052 2.499l-2.458 1.842" class="B I F"/><g class="E"><use xlink:href="#b" x="1056" class="B I W"/><use xlink:href="#a" x="1056" y="44.545" class="B I V"/></g><path d="M1464.26 99.34l-2.458 1.842m-.052 2.498l2.458 1.842m-11.048-6.182l2.458 1.842m.052 2.498l-2.458 1.842" class="B I F"/><g class="E"><use xlink:href="#b" x="1056" y="44.545" class="B I W"/><use xlink:href="#a" x="1072.59" y="22.262" class="B I V"/></g><path d="M1480.86 77.057l-2.458 1.842m-.052 2.499l2.458 1.842m-11.058-6.183l2.458 1.842m.052 2.499l-2.458 1.842" class="B I F"/><use xlink:href="#b" x="1072.59" y="22.261" class="B E I W"/><g class="C"><path d="M1507.75 120.21h23.265a3.12 3.12 0 0 0 3.12-3.12V47.372a3.12 3.12 0 0 0-3.12-3.121h-23.265a3.12 3.12 0 0 0-3.12 3.121v69.718a3.12 3.12 0 0 0 3.12 3.12z" class="H"/><path d="M1509.42 63.25h8.113v28.48h-8.113z" class="J"/><path d="M1512 63.219h2.88v28.512H1512z" fill="#d8d8d8"/></g><g class="B E"><use xlink:href="#c" x="1056" class="G N"/><path d="M1341.032 28.978c-25.686-21.528-63.114-21.528-88.8 0-1.152 2.112-1.152 4.512-.192 4.512l14.112 14.016c.96.96 2.592.96 3.84.192 15.627-12.206 37.557-12.206 53.184 0 1.152.96 2.88.768 3.84-.192l14.112-14.016c.96-.96.96-2.304.384-3.456zm-95.616 6.528c-23.316 25.635-23.316 64.797 0 90.432.96.288 2.112.096 2.88-.672l14.592-14.4c.96-.96 1.152-2.592.192-3.84-12.304-15.414-12.304-37.29 0-52.704.96-1.056.864-1.632-.192-3.552l-14.688-14.4c-.768-.768-1.92-.96-2.88-.672zm6.72 96c25.686 21.528 63.114 21.528 88.8 0 1.248-1.92.96-3.456.096-4.416l-14.112-12.96c-.96-.96-2.592-.96-3.84-.192-15.627 12.206-37.557 12.206-53.184 0-.96-.768-2.496-.768-3.648.192l-14.208 14.016c-.96.96-.96 1.344-.384 3.456zm95.616-96c-.96-.288-2.112-.096-2.88.672l-14.592 14.4c-.96.96-1.152 2.592-.192 3.84 12.304 15.414 12.304 37.29 0 52.704-.96 1.152-.768 2.688.192 3.84l14.592 14.4c.768.768 1.92.96 2.88.672 23.316-25.635 23.316-64.797 0-90.432z" class="D"/></g><g fill="url(#P)"><path d="M1240.912 82.709c-1.074-30.759 22.99-56.565 53.749-57.639s56.565 22.99 57.639 53.75-22.99 56.565-53.749 57.639-56.565-22.99-57.639-53.749zm-2.878.101c.732 20.96 12.591 39.938 31.109 49.784s40.882 9.065 58.668-2.049 28.292-30.873 27.56-51.833c-1.132-32.428-28.339-57.798-60.767-56.666s-57.798 28.339-56.666 60.767z" class="B"/><path d="M1268.818 80.803c0-15.397 12.416-27.792 27.839-27.792s27.839 12.395 27.839 27.792-12.416 27.793-27.839 27.793-27.839-12.396-27.839-27.793zm2.496 0c0-14.017 11.303-25.301 25.343-25.301S1322 66.787 1322 80.803s-11.303 25.301-25.343 25.301-25.343-11.284-25.343-25.301z" class="C"/></g><path d="M1261.069 47.087h-.001.001zm-.062 70.649l-.385.378c-.105.136-.202.284-.29.431l-.078-.063-13.344 13.345a4.35 4.35 0 0 0-1.137 4.137 12.19 12.19 0 0 1-8.819 14.805c-6.525 1.659-13.156-2.289-14.81-8.82a12.19 12.19 0 0 1-.332-1.984c-.115-1.365.004-2.751.352-4.084a12.19 12.19 0 0 1 14.87-8.715 12.46 12.46 0 0 1 2.022.714 1.09 1.09 0 0 1 .531 1.438c-.004.011-.01.021-.015.031l-.371.746c-.261.525-.889.745-1.42.504-4.618-2.121-10.073-.084-12.184 4.536-.326.714-.559 1.459-.695 2.237a9.2 9.2 0 0 0 .148 3.864c1.258 4.914 6.265 7.886 11.184 6.626s7.888-6.269 6.63-11.183a8.34 8.34 0 0 0-.178-.609c-.218-.682-.519-1.344-.893-1.953-.259-.431-.363-.935-.295-1.428a2.59 2.59 0 0 1 .726-1.47l.608-.609 2.999-3.024 36.727-36.832a3.52 3.52 0 0 0 .137-.144c2.712-2.98 4.173-6.89 4.076-10.919a3.3 3.3 0 0 1-.001-.181 15.42 15.42 0 0 0-4.085-10.73 4.26 4.26 0 0 0-.117-.121l-37.563-37.688-.78-.791c-.705-.712-.829-1.813-.301-2.664.386-.624.695-1.291.92-1.989 1.61-4.816-.99-10.024-5.807-11.633s-10.024.991-11.632 5.807a9.12 9.12 0 0 0-.187.635c-.323 1.263-.374 2.581-.148 3.865.877 5.001 5.642 8.344 10.643 7.468.772-.136 1.524-.369 2.236-.694.531-.244 1.159-.022 1.42.5l.371.742c.268.534.051 1.185-.484 1.453-.01.005-.021.011-.032.015a12.19 12.19 0 0 1-16.169-5.974c-.3-.651-.542-1.328-.723-2.022-.348-1.334-.467-2.716-.352-4.091a12.19 12.19 0 0 1 13.162-11.131 12.19 12.19 0 0 1 11.131 13.161c-.056.668-.167 1.33-.332 1.98-.375 1.48.057 3.049 1.136 4.13l14.809 14.858 21 21a5.26 5.26 0 0 1 .109.112c3.48 3.741 5.37 8.688 5.272 13.796-.002.063-.001.126 0 .188a19.95 19.95 0 0 1-5.265 13.99c-.04.044-.082.087-.124.129l-23.212 23.209-.658.714zm-1.101-4.275l.007-.008-.007.008z" class="C b"/><use xlink:href="#d" x="1056" fill="#c1c1c1" class="C"/><g class="X"><path d="M1366.102 22.577c0-4.8-4.032-8.928-8.928-8.928s-9.024 4.032-9.024 8.928 4.032 8.928 8.928 8.928 8.928-3.84 8.928-8.928z" class="B O"/><g class="F P"><path d="M1362.25 22.619h-10.272"/><path d="M1357.12 27.697V17.521"/></g></g><path d="M1332.21 47.087h.001-.001zm.062 70.649l.385.378c.105.136.202.284.29.431l.078-.063 13.344 13.345a4.35 4.35 0 0 1 1.137 4.137 12.19 12.19 0 0 0 8.819 14.805c6.525 1.659 13.156-2.289 14.81-8.82a12.18 12.18 0 0 0 .332-1.984c.115-1.365-.004-2.751-.352-4.084a12.19 12.19 0 0 0-14.87-8.715c-.694.178-1.371.42-2.022.714a1.09 1.09 0 0 0-.531 1.438c.004.011.01.021.015.031l.371.746c.261.525.889.745 1.42.504 4.618-2.121 10.073-.084 12.184 4.536a9.14 9.14 0 0 1 .695 2.237c.225 1.281.175 2.593-.148 3.864-1.258 4.914-6.265 7.886-11.184 6.626s-7.888-6.269-6.63-11.183a8.34 8.34 0 0 1 .178-.609c.218-.682.519-1.344.893-1.953.259-.431.363-.935.295-1.428a2.59 2.59 0 0 0-.726-1.47l-.608-.609-2.999-3.024-36.727-36.832a3.52 3.52 0 0 1-.137-.144c-2.712-2.98-4.173-6.89-4.076-10.919.002-.061.002-.121.001-.181a15.42 15.42 0 0 1 4.086-10.73 4.26 4.26 0 0 1 .117-.121l37.563-37.688.78-.791c.705-.712.829-1.813.301-2.664-.386-.624-.695-1.291-.92-1.989-1.61-4.816.99-10.024 5.807-11.633s10.024.991 11.632 5.807c.07.21.132.421.187.635.323 1.263.374 2.581.149 3.865-.877 5.001-5.642 8.344-10.643 7.468-.772-.136-1.524-.369-2.236-.694a1.08 1.08 0 0 0-1.42.5l-.371.742c-.268.534-.052 1.185.484 1.453.01.005.021.011.031.015a12.19 12.19 0 0 0 16.169-5.974c.3-.651.542-1.328.723-2.022.348-1.334.467-2.716.352-4.091a12.19 12.19 0 0 0-13.162-11.131 12.19 12.19 0 0 0-11.131 13.161c.056.668.167 1.33.332 1.98.375 1.48-.057 3.049-1.136 4.13l-14.809 14.858-21 21a5.26 5.26 0 0 0-.109.112c-3.48 3.741-5.37 8.688-5.272 13.796a3.68 3.68 0 0 1 0 .188 19.95 19.95 0 0 0 5.265 13.99 3.6 3.6 0 0 0 .124.129l23.212 23.209.658.714zm1.101-4.275l-.007-.008.007.008z" class="C b"/><path d="M508.99 157.23h148.512V5.838H508.99V157.23z" class="L c d"/><g class="B"><use xlink:href="#e" class="D"/><g class="E"><g class="J"><use xlink:href="#f"/><use xlink:href="#g"/><use xlink:href="#h"/><use xlink:href="#i"/></g><path d="M583.2 8.1h-72v44.16h22.368v58.752H511.2v43.968h144v-44.16h-22.08V52.068h22.08V7.908h-72zm0 140.16h-65.28v-29.28h16.32c4.416 0 7.968-3.552 8.064-8.064V52.164c-2.304-4.32-4.8-7.584-9.024-8.16h-15.36V14.82h130.848V44.1h-15.36c-4.224.672-7.68 3.84-8.832 8.064v58.752c.096 4.512 3.648 8.064 8.064 8.064h16.128v29.28H583.2z" class="M"/></g><path d="M543.55 101.77h79.392V61.258H543.55v40.512z" class="K M"/></g><path d="M551.45 80.778a4.5 4.5 0 0 0 4.498 4.498h54.615a4.5 4.5 0 0 0 4.498-4.498 4.5 4.5 0 0 0-4.498-4.498h-54.615a4.5 4.5 0 0 0-4.498 4.498z" class="C H"/><path d="M563.61 99.758c13.056 2.208 26.304 2.208 39.36 0v-36.48c-13.056-2.208-26.304-2.208-39.36 0v36.48z" class="B K e"/><g class="C"><use xlink:href="#j" class="R"/><use xlink:href="#k" class="S"/><g class="H"><path d="M553.112 103.03c2.437 0 4.412-1.975 4.412-4.412V64.712c0-2.437-1.975-4.413-4.412-4.413s-4.412 1.976-4.412 4.413v33.905c0 2.437 1.975 4.412 4.412 4.412z"/><path d="M512.672 106.03c2.437 0 4.412-1.975 4.412-4.412V61.715c0-2.437-1.975-4.412-4.412-4.412s-4.412 1.975-4.412 4.412v39.903c0 2.437 1.976 4.412 4.412 4.412z"/></g><use xlink:href="#l" class="R"/><use xlink:href="#m" class="S"/><g class="H"><path d="M613.397 103.03c-2.437 0-4.412-1.975-4.412-4.412V64.712c0-2.437 1.976-4.413 4.412-4.413s4.412 1.976 4.412 4.413v33.905c0 2.437-1.976 4.412-4.412 4.412z"/><path d="M653.847 106.03c-2.437 0-4.412-1.975-4.412-4.412V61.715c0-2.437 1.975-4.412 4.412-4.412s4.412 1.975 4.412 4.412v39.903c0 2.437-1.976 4.412-4.412 4.412z"/></g></g><path d="M530.29 22.347c0-3.552-2.88-6.432-6.24-6.432s-6.24 2.88-6.24 6.432 2.88 6.336 6.24 6.336 6.24-2.88 6.24-6.336z" class="B f g"/><g class="C H"><path d="M3.736 48.727c2.063 0 3.736-1.976 3.736-4.412V4.412C7.471 1.975 5.799 0 3.736 0S0 1.975 0 4.412v39.903c0 2.437 1.673 4.412 3.736 4.412z" transform="matrix(-.087156 .996195 -.996195 -.087156 557.932479 59.637522)"/><path d="M4.028 48.727C1.804 48.727 0 46.752 0 44.315V4.412C0 1.975 1.804 0 4.028 0s4.028 1.975 4.028 4.412v39.903c0 2.437-1.804 4.412-4.028 4.412z" transform="matrix(.087156 .996195 -.996195 .087156 557.247394 96.334836)"/></g><g transform="matrix(-.087156 -.996195 .996195 -.087156 608.771402 67.325451)"><path d="M3.736 48.727C1.672 48.727 0 46.752 0 44.315V4.412C0 1.975 1.672 0 3.736 0s3.736 1.975 3.736 4.412v39.903c0 2.437-1.673 4.412-3.736 4.412z" class="C h"/></g><g transform="matrix(-.087156 .996195 -.996195 -.087156 657.313379 100.882422)"><path d="M3.736 48.727c2.063 0 3.736-1.976 3.736-4.412V4.412C7.471 1.975 5.799 0 3.736 0S0 1.975 0 4.412v39.903c0 2.437 1.673 4.412 3.736 4.412z" class="C H"/></g><g class="C"><use xlink:href="#n"/><use xlink:href="#o"/><use xlink:href="#o" y="-14.054"/><use xlink:href="#p"/><use xlink:href="#q"/><use xlink:href="#r"/><use xlink:href="#s"/></g><path d="M676.41 157.23h148.512V5.838H676.41V157.23z" class="L c d"/><g class="B"><use xlink:href="#e" x="167.42" class="D"/><g class="E"><g class="J"><use xlink:href="#f" x="167.42"/><use xlink:href="#g" x="167.42"/><use xlink:href="#h" x="167.42"/><use xlink:href="#i" x="167.42"/></g><path d="M750.62 8.1h-72v44.16h22.368v58.752H678.62v43.968h144v-44.16h-22.08V52.068h22.08V7.908h-72zm0 140.16h-65.28v-29.28h16.32c4.416 0 7.968-3.552 8.064-8.064V52.164c-2.304-4.32-4.8-7.584-9.024-8.16h-15.36V14.82h130.848V44.1h-15.36c-4.224.672-7.68 3.84-8.832 8.064v58.752c.096 4.512 3.648 8.064 8.064 8.064h16.128v29.28H750.62z" class="M"/></g><path d="M710.97 101.77h79.392V61.258H710.97v40.512z" class="K M"/></g><path d="M718.87 80.778a4.5 4.5 0 0 0 4.498 4.498h54.615a4.5 4.5 0 0 0 4.498-4.498 4.5 4.5 0 0 0-4.498-4.498h-54.615a4.5 4.5 0 0 0-4.498 4.498z" class="C H"/><path d="M731.03 99.758c13.056 2.208 26.304 2.208 39.36 0v-36.48c-13.056-2.208-26.304-2.208-39.36 0v36.48z" class="B K e"/><g class="C"><use xlink:href="#j" x="167.42" class="R"/><use xlink:href="#k" x="167.42" class="S"/><g class="H"><path d="M720.532 103.03c2.437 0 4.412-1.975 4.412-4.412V64.712c0-2.437-1.975-4.413-4.412-4.413s-4.412 1.976-4.412 4.413v33.905c0 2.437 1.975 4.412 4.412 4.412z"/><path d="M680.092 106.03c2.437 0 4.412-1.975 4.412-4.412V61.715c0-2.437-1.975-4.412-4.412-4.412s-4.412 1.975-4.412 4.412v39.903c0 2.437 1.976 4.412 4.412 4.412z"/></g><use xlink:href="#l" x="167.42" class="R"/><use xlink:href="#m" x="167.42" class="S"/><g class="H"><path d="M780.817 103.03c-2.437 0-4.412-1.975-4.412-4.412V64.712c0-2.437 1.976-4.413 4.412-4.413s4.412 1.976 4.412 4.413v33.905c0 2.437-1.976 4.412-4.412 4.412z"/><path d="M821.267 106.03c-2.437 0-4.412-1.975-4.412-4.412V61.715c0-2.437 1.975-4.412 4.412-4.412s4.412 1.975 4.412 4.412v39.903c0 2.437-1.976 4.412-4.412 4.412z"/></g></g><path d="M697.71 22.347c0-3.552-2.88-6.432-6.24-6.432s-6.24 2.88-6.24 6.432 2.88 6.336 6.24 6.336 6.24-2.88 6.24-6.336z" class="B f g"/><g class="C H"><path d="M3.736 48.727c2.063 0 3.736-1.976 3.736-4.412V4.412C7.471 1.975 5.799 0 3.736 0S0 1.975 0 4.412v39.903c0 2.437 1.673 4.412 3.736 4.412z" transform="matrix(-.087156 .996195 -.996195 -.087156 725.352479 59.637522)"/><path d="M4.028 48.727C1.804 48.727 0 46.752 0 44.315V4.412C0 1.975 1.804 0 4.028 0s4.028 1.975 4.028 4.412v39.903c0 2.437-1.804 4.412-4.028 4.412z" transform="matrix(.087156 .996195 -.996195 .087156 724.667394 96.334836)"/></g><g transform="matrix(-.087156 -.996195 .996195 -.087156 776.191402 67.325451)"><path d="M3.736 48.727C1.672 48.727 0 46.752 0 44.315V4.412C0 1.975 1.672 0 3.736 0s3.736 1.975 3.736 4.412v39.903c0 2.437-1.673 4.412-3.736 4.412z" class="C h"/></g><g transform="matrix(-.087156 .996195 -.996195 -.087156 824.733379 100.882422)"><path d="M3.736 48.727c2.063 0 3.736-1.976 3.736-4.412V4.412C7.471 1.975 5.799 0 3.736 0S0 1.975 0 4.412v39.903c0 2.437 1.673 4.412 3.736 4.412z" class="C H"/></g><g class="C"><use xlink:href="#n" x="167.42"/><use xlink:href="#o" x="167.42"/><use xlink:href="#o" x="167.42" y="-14.054"/><use xlink:href="#p" x="167.42"/><use xlink:href="#q" x="167.42"/><use xlink:href="#r" x="167.42"/><use xlink:href="#s" x="167.42"/></g><path d="M843.83 157.23h148.512V5.838H843.83V157.23z" class="L c d"/><g class="B"><use xlink:href="#e" x="334.84" class="D"/><g class="E"><g class="J"><use xlink:href="#f" x="334.84"/><use xlink:href="#g" x="334.84"/><use xlink:href="#h" x="334.84"/><use xlink:href="#i" x="334.84"/></g><path d="M918.04 8.1h-72v44.16h22.368v58.752H846.04v43.968h144v-44.16h-22.08V52.068h22.08V7.908h-72zm0 140.16h-65.28v-29.28h16.32c4.416 0 7.968-3.552 8.064-8.064V52.164c-2.304-4.32-4.8-7.584-9.024-8.16h-15.36V14.82h130.848V44.1h-15.36c-4.224.672-7.68 3.84-8.832 8.064v58.752c.096 4.512 3.648 8.064 8.064 8.064h16.128v29.28H918.04z" class="M"/></g><path d="M878.39 101.77h79.392V61.258H878.39v40.512z" class="K M"/></g><path d="M886.29 80.778a4.5 4.5 0 0 0 4.498 4.498h54.615a4.5 4.5 0 0 0 4.498-4.498 4.5 4.5 0 0 0-4.498-4.498h-54.615a4.5 4.5 0 0 0-4.498 4.498z" class="C H"/><path d="M898.45 99.758c13.056 2.208 26.304 2.208 39.36 0v-36.48c-13.056-2.208-26.304-2.208-39.36 0v36.48z" class="B K e"/><g class="C"><use xlink:href="#j" x="334.84" class="R"/><use xlink:href="#k" x="334.84" class="S"/><g class="H"><path d="M887.952 103.03c2.437 0 4.412-1.975 4.412-4.412V64.712c0-2.437-1.975-4.413-4.412-4.413s-4.412 1.976-4.412 4.413v33.905c0 2.437 1.975 4.412 4.412 4.412z"/><path d="M847.512 106.03c2.437 0 4.412-1.975 4.412-4.412V61.715c0-2.437-1.975-4.412-4.412-4.412s-4.412 1.975-4.412 4.412v39.903c0 2.437 1.976 4.412 4.412 4.412z"/></g><use xlink:href="#l" x="334.84" class="R"/><use xlink:href="#m" x="334.84" class="S"/><g class="H"><path d="M948.237 103.03c-2.437 0-4.412-1.975-4.412-4.412V64.712c0-2.437 1.976-4.413 4.412-4.413s4.412 1.976 4.412 4.413v33.905c0 2.437-1.976 4.412-4.412 4.412z"/><path d="M988.687 106.03c-2.437 0-4.412-1.975-4.412-4.412V61.715c0-2.437 1.975-4.412 4.412-4.412s4.412 1.975 4.412 4.412v39.903c0 2.437-1.976 4.412-4.412 4.412z"/></g></g><path d="M865.13 22.347c0-3.552-2.88-6.432-6.24-6.432s-6.24 2.88-6.24 6.432 2.88 6.336 6.24 6.336 6.24-2.88 6.24-6.336z" class="B f g"/><g class="C H"><path d="M3.736 48.727c2.063 0 3.736-1.976 3.736-4.412V4.412C7.471 1.975 5.799 0 3.736 0S0 1.975 0 4.412v39.903c0 2.437 1.673 4.412 3.736 4.412z" transform="matrix(-.087156 .996195 -.996195 -.087156 892.772479 59.637522)"/><path d="M4.028 48.727C1.804 48.727 0 46.752 0 44.315V4.412C0 1.975 1.804 0 4.028 0s4.028 1.975 4.028 4.412v39.903c0 2.437-1.804 4.412-4.028 4.412z" transform="matrix(.087156 .996195 -.996195 .087156 892.087394 96.334836)"/></g><g transform="matrix(-.087156 -.996195 .996195 -.087156 943.611402 67.325451)"><path d="M3.736 48.727C1.672 48.727 0 46.752 0 44.315V4.412C0 1.975 1.672 0 3.736 0s3.736 1.975 3.736 4.412v39.903c0 2.437-1.673 4.412-3.736 4.412z" class="C h"/></g><g transform="matrix(-.087156 .996195 -.996195 -.087156 992.153379 100.882422)"><path d="M3.736 48.727c2.063 0 3.736-1.976 3.736-4.412V4.412C7.471 1.975 5.799 0 3.736 0S0 1.975 0 4.412v39.903c0 2.437 1.673 4.412 3.736 4.412z" class="C H"/></g><g class="C"><use xlink:href="#n" x="334.84"/><use xlink:href="#o" x="334.84"/><use xlink:href="#o" x="334.84" y="-14.054"/><use xlink:href="#p" x="334.84"/><use xlink:href="#q" x="334.84"/><use xlink:href="#r" x="334.84"/><use xlink:href="#s" x="334.84"/></g><path d="M1011.23 157.23h148.512V5.838H1011.23V157.23z" class="L c d"/><g class="B"><use xlink:href="#e" x="502.24" class="D"/><g class="E"><g class="J"><use xlink:href="#f" x="502.24"/><use xlink:href="#g" x="502.24"/><use xlink:href="#h" x="502.24"/><use xlink:href="#i" x="502.24"/></g><path d="M1085.44 8.1h-72v44.16h22.368v58.752h-22.368v43.968h144v-44.16h-22.08V52.068h22.08V7.908h-72zm0 140.16h-65.28v-29.28h16.32c4.416 0 7.968-3.552 8.064-8.064V52.164c-2.304-4.32-4.8-7.584-9.024-8.16h-15.36V14.82h130.848V44.1h-15.36c-4.224.672-7.68 3.84-8.832 8.064v58.752c.096 4.512 3.648 8.064 8.064 8.064h16.128v29.28h-65.568z" class="M"/></g><path d="M1045.79 101.77h79.392V61.258h-79.392v40.512z" class="K M"/></g><path d="M1053.69 80.778a4.5 4.5 0 0 0 4.498 4.498h54.615a4.5 4.5 0 0 0 4.498-4.498 4.5 4.5 0 0 0-4.498-4.498h-54.615a4.5 4.5 0 0 0-4.498 4.498z" class="C H"/><path d="M1065.85 99.758c13.056 2.208 26.304 2.208 39.36 0v-36.48c-13.056-2.208-26.304-2.208-39.36 0v36.48z" class="B K e"/><g class="C"><use xlink:href="#j" x="502.24" class="R"/><use xlink:href="#k" x="502.24" class="S"/><g class="H"><path d="M1055.352 103.03c2.437 0 4.412-1.975 4.412-4.412V64.712c0-2.437-1.975-4.413-4.412-4.413s-4.412 1.976-4.412 4.413v33.905c0 2.437 1.975 4.412 4.412 4.412z"/><path d="M1014.912 106.03c2.437 0 4.412-1.975 4.412-4.412V61.715c0-2.437-1.975-4.412-4.412-4.412s-4.412 1.975-4.412 4.412v39.903c0 2.437 1.976 4.412 4.412 4.412z"/></g><use xlink:href="#l" x="502.24" class="R"/><use xlink:href="#m" x="502.24" class="S"/><g class="H"><path d="M1115.637 103.03c-2.437 0-4.412-1.975-4.412-4.412V64.712c0-2.437 1.976-4.413 4.412-4.413s4.412 1.976 4.412 4.413v33.905c0 2.437-1.975 4.412-4.412 4.412z"/><path d="M1156.087 106.03c-2.437 0-4.412-1.975-4.412-4.412V61.715c0-2.437 1.975-4.412 4.412-4.412s4.412 1.975 4.412 4.412v39.903c0 2.437-1.976 4.412-4.412 4.412z"/></g></g><path d="M1032.53 22.347c0-3.552-2.88-6.432-6.24-6.432s-6.24 2.88-6.24 6.432 2.88 6.336 6.24 6.336 6.24-2.88 6.24-6.336z" class="B f g"/><g class="C H"><path d="M3.736 48.727c2.063 0 3.736-1.976 3.736-4.412V4.412C7.471 1.975 5.799 0 3.736 0S0 1.975 0 4.412v39.903c0 2.437 1.673 4.412 3.736 4.412z" transform="matrix(-.087156 .996195 -.996195 -.087156 1060.172479 59.637522)"/><path d="M4.028 48.727C1.804 48.727 0 46.752 0 44.315V4.412C0 1.975 1.804 0 4.028 0s4.028 1.975 4.028 4.412v39.903c0 2.437-1.804 4.412-4.028 4.412z" transform="matrix(.087156 .996195 -.996195 .087156 1059.487394 96.334836)"/></g><g transform="matrix(-.087156 -.996195 .996195 -.087156 1111.011402 67.325451)"><path d="M3.736 48.727C1.672 48.727 0 46.752 0 44.315V4.412C0 1.975 1.672 0 3.736 0s3.736 1.975 3.736 4.412v39.903c0 2.437-1.673 4.412-3.736 4.412z" class="C h"/></g><g transform="matrix(-.087156 .996195 -.996195 -.087156 1159.553379 100.882422)"><path d="M3.736 48.727c2.063 0 3.736-1.976 3.736-4.412V4.412C7.471 1.975 5.799 0 3.736 0S0 1.975 0 4.412v39.903c0 2.437 1.673 4.412 3.736 4.412z" class="C H"/></g><g class="C"><use xlink:href="#n" x="502.24"/><use xlink:href="#o" x="502.24"/><use xlink:href="#o" x="502.24" y="-14.054"/><use xlink:href="#p" x="502.24"/><use xlink:href="#q" x="502.24"/><use xlink:href="#r" x="502.24"/><use xlink:href="#s" x="502.24"/></g><path d="M1672.46 25.229v-.96m4.032 1.152h-7.68m-2.112-10.56h11.52v9.216h-11.52zm1.3 1.389h9v6.5h-9z" class="B F"/><path fill="#856427" d="M1662.1 69.327h-2.417v4.767h2.417zm3.8 0h-2.417v4.767h2.417zm3.8 0h-2.417v4.767h2.417zm3.8 0h-2.417v4.767h2.417zm7.6 0h-2.417v4.767h2.417zm-3.8 0h-2.417v4.767h2.417zm7.6 0h-2.417v4.767h2.417zm3.8 0h-2.417v4.767h2.417z" class="C"/><path d="M1594.6 124.97h16.8" class="B F"/><g class="C D"><use xlink:href="#t"/><path d="M1612.58 124.952l-2.88-2.112v3.84l2.88-1.728zm-6.28 2.162h2.208v2.496h-2.208z"/></g><path d="M1601 125.01l2.688 2.88 2.592.48m-7.88-3.51l2.688-2.88 2.592-.48" class="B F"/><circle cx="1603.875" cy="121.375" r="1.125" class="C D"/><path d="M1669.4 118.44h16.8" class="B F"/><g class="C D"><use xlink:href="#t" x="74.7" y="-6.53"/><path d="M1687.28 118.412l-2.88-2.112v3.84l2.88-1.728zm-6.28 2.172h2.208v2.496H1681z"/></g><path d="M1675.8 118.48l2.688 2.88 2.592.48m-7.98-3.51l2.688-2.88 2.592-.48" class="B F"/><g class="C"><circle cx="1678.625" cy="114.875" r="1.125" class="D"/><path fill="#856427" d="M1587 69.294h-2.4v4.8h2.4zm3.8.033h-2.417v4.767h2.417zm3.8 0h-2.417v4.767h2.417zm3.8 0h-2.417v4.767h2.417zm7.6 0h-2.417v4.767H1606zm-3.8 0h-2.417v4.767h2.417zm7.6 0h-2.417v4.767h2.417zm3.8 0h-2.417v4.767h2.417z"/><path d="M497.792 126.408l-.133 3.941h-.937l-.133-3.941h1.203zm-.602 4.559q.285 0 .459.168.174.168.174.43 0 .258-.174.426-.174.168-.459.168-.281 0-.455-.168-.174-.168-.174-.426 0-.258.174-.428.174-.17.455-.17z" class="D"/><g fill="#548bd4"><use xlink:href="#u"/><use xlink:href="#v"/><use xlink:href="#w"/><use xlink:href="#x"/><use xlink:href="#y"/><use xlink:href="#z"/><use xlink:href="#u" x="1056"/><use xlink:href="#v" x="1056"/><use xlink:href="#w" x="1056"/><use xlink:href="#x" x="1056"/><use xlink:href="#y" x="1056"/><use xlink:href="#z" x="1056"/></g></g></symbol></svg>