<svg xmlns="http://www.w3.org/2000/svg" fill="none" viewBox="0 0 253 300"><g clip-path="url(#a)"><path fill="#fff" d="M228.79 106.76a40.265 40.265 0 0 0-26.63-38 57.21 57.21 0 0 0 1.07-11A57.77 57.77 0 0 0 98.6 24a30.69 30.69 0 0 0-47.55 34.92A40.8 40.8 0 0 0 24.21 97 40.289 40.289 0 0 0 51 135.12a57.66 57.66 0 0 0 56.61 68.66 57.418 57.418 0 0 0 46.8-24.08A30.63 30.63 0 0 0 202 144.88a40.796 40.796 0 0 0 26.84-38.12"/><path fill="#FEC514" d="m104.64 87.76 44.77 20.41 45.16-39.57a50.49 50.49 0 0 0-91.15-38.47l-7.52 39 8.74 18.63Z"/><path fill="#00BFB3" d="M58.31 135.17a50.619 50.619 0 0 0 91.48 38.53l7.45-38.84-10-19-44.89-20.5-44.04 39.81Z"/><path fill="#F04E98" d="m58 57.7 30.7 7.24 6.72-34.88A24.25 24.25 0 0 0 58 57.7Z"/><path fill="#1BA9F5" d="M55.36 65a33.84 33.84 0 0 0-1.47 63.74l43-38.91L89 73l-33.64-8Z"/><path fill="#93C90E" d="M157.65 173.7a24.09 24.09 0 0 0 38.79-19.18 24.354 24.354 0 0 0-1.46-8.41l-30.65-7.17-6.68 34.76Z"/><path fill="#07C" d="m163.89 130.91 33.75 7.89a34.153 34.153 0 0 0 23.24-32.13 33.778 33.778 0 0 0-21.82-31.56l-44.13 38.67 8.96 17.13Z"/><path fill="#fff" d="m35.91 292.76 2.88-.3.19 5.85a142 142 0 0 1-19.34 1.59c-7.14 0-12.2-2.067-15.18-6.2-2.98-4.133-4.467-10.563-4.46-19.29 0-17.4 6.91-26.097 20.73-26.09 6.667 0 11.667 1.867 15 5.6 3.333 3.733 5 9.603 5 17.61l-.4 5.65H7.54c0 5.493 1 9.563 3 12.21 2 2.647 5.453 3.98 10.36 4a209.8 209.8 0 0 0 15.01-.63Zm-2.68-21.53c0-6.08-.973-10.377-2.92-12.89s-5.123-3.77-9.53-3.77c-4.4 0-7.707 1.333-9.92 4s-3.353 6.887-3.42 12.66h25.79Zm17.82 28.29v-65.29h7.44v65.29h-7.44Zm54.29-35.23v25c0 2.48 6.17 2.38 6.17 2.38l-.38 6.57c-5.22 0-9.55.44-12.15-2.08a43.149 43.149 0 0 1-17.85 3.72c-4.56 0-8.03-1.29-10.41-3.87-2.38-2.58-3.57-6.283-3.57-11.11 0-4.82 1.223-8.373 3.67-10.66 2.447-2.287 6.28-3.7 11.5-4.24l15.58-1.49v-4.26c0-3.37-.73-5.79-2.18-7.24a7.998 7.998 0 0 0-6-2.19H70.18v-6.56h19c5.62 0 9.703 1.29 12.25 3.87 2.547 2.58 3.85 6.633 3.91 12.16Zm-30.55 20.24c0 6.08 2.51 9.12 7.53 9.12a40.194 40.194 0 0 0 13.3-2.28l2.28-.79v-16.37l-14.68 1.39c-2.98.26-5.13 1.12-6.45 2.58-1.32 1.46-1.98 3.577-1.98 6.35ZM134.38 255c-7.207 0-10.813 2.513-10.82 7.54 0 2.32.827 3.957 2.48 4.91 1.653.953 5.423 1.953 11.31 3 5.893 1.033 10.06 2.47 12.5 4.31 2.44 1.84 3.663 5.313 3.67 10.42 0 5.087-1.637 8.823-4.91 11.21-3.273 2.387-8.05 3.577-14.33 3.57-4.1 0-17.79-1.52-17.79-1.52l.4-6.45c7.86.76 13.55 1.32 17.39 1.32s6.76-.61 8.78-1.83c2.02-1.22 3-3.27 3-6.15 0-2.88-.86-4.83-2.58-5.85-1.72-1.02-5.49-2-11.31-2.93-5.82-.93-10-2.28-12.4-4.07-2.4-1.79-3.67-5.09-3.67-9.92s1.71-8.39 5.11-10.71a22.231 22.231 0 0 1 12.79-3.53c4 0 18 1 18 1v6.49c-7.35-.32-13.39-.81-17.62-.81Zm55.02.76h-15.77v23.71c0 5.68.413 9.417 1.24 11.21.83 1.78 2.79 2.67 5.9 2.67l8.83-.59.5 6.15A67.549 67.549 0 0 1 180 300c-5.16 0-8.73-1.257-10.71-3.77-1.98-2.513-2.98-7.307-3-14.38v-26.09h-7v-6.45h7v-15.18h7.34v15.18h15.77v6.45ZM199.75 243v-8.63h7.44V243h-7.44Zm0 56.55v-50.24h7.44v50.21l-7.44.03Zm39.66-51.23c3.725.151 7.437.548 11.11 1.19l2.38.3-.29 6.05a115.849 115.849 0 0 0-11.71-.9c-5.62 0-9.44 1.333-11.46 4-2.02 2.667-3.02 7.627-3 14.88 0 7.24.94 12.283 2.82 15.13 1.88 2.847 5.793 4.273 11.74 4.28l11.71-.89.29 6.15c-4.56.778-9.167 1.242-13.79 1.39-7.734 0-13.067-1.983-16-5.95-2.934-3.967-4.404-10.663-4.41-20.09 0-9.42 1.586-16.033 4.76-19.84 3.173-3.807 8.456-5.707 15.85-5.7Z"/></g><defs><clipPath id="a"><path fill="#fff" d="M0 0h253v300H0z"/></clipPath></defs></svg>