<svg xmlns="http://www.w3.org/2000/svg" xml:space="preserve" viewBox="0 0 3000 3000"><path fill="#00BFB3" d="M481.416 1610.321h288.789v315.043H481.416v-315.043z"/><path fill="#FEC514" d="M87.611 1085.249H61.358v525.072h341.297v-210.029c0-173.993-141.05-315.043-315.044-315.043z"/><path fill="#343741" d="M61.358 1610.321c0 173.993 141.05 315.043 315.043 315.043h26.254v-315.043H61.358z"/><path d="M1057.551 1625.811h-57.889v-383.04h57.889v383.04zm324.101-136.519c0 44.368-11.421 78.761-34.13 104.096a122.735 122.735 0 0 1-95.301 37.411 131.273 131.273 0 0 1-67.472-17.196 114.467 114.467 0 0 1-45.025-49.488 168.69 168.69 0 0 1-15.752-74.822c0-44.237 11.289-78.761 33.998-103.439a122.727 122.727 0 0 1 95.695-37.148 120.108 120.108 0 0 1 94.119 38.461 146.746 146.746 0 0 1 33.868 102.125zm-198.084 0c0 62.746 23.191 94.163 69.572 94.25 46.381.088 69.179-31.329 68.391-94.25 0-62.222-23.104-93.332-69.31-93.332a59.333 59.333 0 0 0-52.507 24.153 122.748 122.748 0 0 0-16.146 69.179zm494.488-135.601v31.636l-46.601 8.664a74.181 74.181 0 0 1 10.633 21.134 85.198 85.198 0 0 1 4.201 26.254 81.389 81.389 0 0 1-29.011 65.634 121.418 121.418 0 0 1-80.073 24.153 130.32 130.32 0 0 1-23.629-1.969 32.425 32.425 0 0 0-18.64 28.616 15.098 15.098 0 0 0 8.663 14.046 75.225 75.225 0 0 0 32.161 4.726h47.519a105.01 105.01 0 0 1 68.391 19.165 67.34 67.34 0 0 1 23.366 55.396 80.728 80.728 0 0 1-38.462 70.753c-25.466 16.715-62.221 25.072-110.265 25.072a151.882 151.882 0 0 1-84.931-19.69 63.661 63.661 0 0 1-29.272-56.183 59.987 59.987 0 0 1 15.752-42.137 85.587 85.587 0 0 1 44.5-23.76 42.783 42.783 0 0 1-19.034-15.883c-10.543-14.701-10.115-34.598 1.051-48.832a101.334 101.334 0 0 1 25.597-21.003 75.748 75.748 0 0 1-34.393-29.666 87.82 87.82 0 0 1-13.126-48.045 86.111 86.111 0 0 1 27.959-68.653 117.355 117.355 0 0 1 79.68-24.415c8.076.026 16.143.553 24.154 1.575a142.342 142.342 0 0 1 19.165 3.413l94.645-.001zm-213.968 315.044a31.639 31.639 0 0 0 16.934 28.747 92.806 92.806 0 0 0 47.389 10.108 142.83 142.83 0 0 0 70.359-13.127 40.697 40.697 0 0 0 23.104-35.968 26.911 26.911 0 0 0-13.127-25.203 102.25 102.25 0 0 0-47.125-7.482h-43.188a61.823 61.823 0 0 0-39.381 11.683 38.199 38.199 0 0 0-14.965 30.717v.525zm24.941-226.437a54.736 54.736 0 0 0 13.127 39.38 49.88 49.88 0 0 0 37.805 13.783c33.518 0 50.232-17.896 50.145-53.688a60.776 60.776 0 0 0-12.339-40.955 47.518 47.518 0 0 0-37.806-14.439 48.569 48.569 0 0 0-38.067 14.308 59.59 59.59 0 0 0-12.864 41.087v.524zm422.289 106.064a71.41 71.41 0 0 1-29.01 61.171 139.412 139.412 0 0 1-83.225 21.266 195.443 195.443 0 0 1-87.293-16.54v-49.882a214.635 214.635 0 0 0 89.263 22.053c35.617 0 53.426-10.72 53.426-32.16a26.251 26.251 0 0 0-5.907-17.327 67.979 67.979 0 0 0-19.428-14.178 330.74 330.74 0 0 0-37.674-16.802 174.98 174.98 0 0 1-63.008-36.361 67.864 67.864 0 0 1-16.54-47.257 62.091 62.091 0 0 1 28.091-54.345 134.28 134.28 0 0 1 76.792-19.296 216.177 216.177 0 0 1 90.706 19.428l-18.64 43.58a203.747 203.747 0 0 0-74.035-18.246c-30.585 0-45.813 8.795-45.813 26.254a26.253 26.253 0 0 0 11.945 21.659 262.563 262.563 0 0 0 52.507 24.416 231.63 231.63 0 0 1 48.963 23.891 71.286 71.286 0 0 1 22.71 24.941 73.211 73.211 0 0 1 6.17 33.735zm163.954 35.705a139.313 139.313 0 0 0 42.269-6.694v43.581a113.602 113.602 0 0 1-24.679 6.957 164.055 164.055 0 0 1-31.373 2.888c-54.87 0-82.261-28.879-82.174-86.637v-146.758h-37.149v-26.254l39.381-21.134 19.69-57.627h35.705v60.646h77.579v43.713h-77.579v145.707a41.087 41.087 0 0 0 10.501 30.979 38.463 38.463 0 0 0 27.829 10.633zm266.999 41.744-11.552-37.806h-1.969a109.864 109.864 0 0 1-39.38 33.736 124.174 124.174 0 0 1-51.195 9.058 86.637 86.637 0 0 1-63.402-21.659 81.256 81.256 0 0 1-22.447-61.303 71.937 71.937 0 0 1 31.242-63.533c20.74-14.265 52.464-22.053 95.17-23.366l46.994-1.443v-14.571a55.664 55.664 0 0 0-12.077-39.38 49.618 49.618 0 0 0-37.806-13.127 132.345 132.345 0 0 0-40.168 6.038 336.51 336.51 0 0 0-36.361 14.965l-18.771-41.35a203.261 203.261 0 0 1 48.57-17.59 220.516 220.516 0 0 1 49.75-6.038c34.479 0 60.733 7.569 78.761 22.709s26.778 38.812 26.254 71.017v183.774l-41.613-.131zm-86.111-39.381a71.139 71.139 0 0 0 50.538-17.59 63.531 63.531 0 0 0 19.165-49.356v-23.628l-35.049 1.575a118.13 118.13 0 0 0-59.333 13.127 41.348 41.348 0 0 0-18.64 37.279 36.229 36.229 0 0 0 10.895 28.092 46.083 46.083 0 0 0 32.424 10.501zm391.179-38.068a71.148 71.148 0 0 1-29.011 61.171 139.146 139.146 0 0 1-83.224 21.266 195.443 195.443 0 0 1-87.293-16.54v-49.882a215.003 215.003 0 0 0 89.262 22.053c35.705 0 53.427-10.764 53.427-32.16a26.251 26.251 0 0 0-5.907-17.327 67.993 67.993 0 0 0-19.428-14.178 330.819 330.819 0 0 0-37.674-16.802 174.204 174.204 0 0 1-63.928-36.361 67.346 67.346 0 0 1-16.671-47.257 62.224 62.224 0 0 1 28.223-54.345 133.883 133.883 0 0 1 76.66-19.296 216.838 216.838 0 0 1 90.838 19.428l-18.771 43.58a203.747 203.747 0 0 0-74.035-18.246c-30.586 0-45.813 8.795-45.813 26.254a26.253 26.253 0 0 0 11.945 21.659 265.263 265.263 0 0 0 52.639 24.547 238.5 238.5 0 0 1 48.963 23.891 70.908 70.908 0 0 1 22.578 24.941 71.687 71.687 0 0 1 7.22 33.604zm301.916 77.449h-58.021v-167.367a73.5 73.5 0 0 0-13.127-46.993 48.96 48.96 0 0 0-40.299-15.49 63.404 63.404 0 0 0-53.426 21.791c-11.465 14.526-17.196 38.855-17.196 72.984v135.075h-57.759v-383.04h57.759v97.139a453.516 453.516 0 0 1-2.888 50.013h3.675a79.938 79.938 0 0 1 32.817-30.454 106.07 106.07 0 0 1 49.094-10.896c65.984 0 98.977 33.211 98.977 99.633l.394 177.605z"/></svg>