<svg xmlns="http://www.w3.org/2000/svg" fill="none" viewBox="0 0 75 75"><g clip-path="url(#a)"><path fill="#000" d="M0 0h75v75H0V0Z"/><path fill="#fff" d="M8.162 60.938h28.125v4.687H8.162v-4.687ZM6.988 19.338l2.088-1.975a2.35 2.35 0 0 0 1.837 1.087c.8 0 1.325-.562 1.325-1.65V9.4h3.225v7.425a4.3 4.3 0 0 1-1.15 3.288 4.4 4.4 0 0 1-3.212 1.25 4.8 4.8 0 0 1-4.113-2.025ZM16.913 9.4h9.412v2.738h-6.25v1.787h5.613v2.5h-5.563v1.863h6.25v2.75h-9.5L16.913 9.4ZM30.914 12.238h-3.5V9.4h10.263v2.838h-3.513V21.1h-3.25v-8.862ZM8.285 25.725h5.525a4.34 4.34 0 0 1 3.188 1.037 2.615 2.615 0 0 1 .762 1.9 2.726 2.726 0 0 1-1.812 2.613 2.838 2.838 0 0 1 2.325 2.863c0 2.112-1.638 3.362-4.438 3.362h-5.55V25.725Zm6.25 3.612c0-.65-.525-1-1.475-1h-1.612v2.05h1.562c.975 0 1.55-.337 1.55-1.012l-.025-.038Zm-1.125 3.326h-1.962v2.162h2.025c1 0 1.55-.388 1.55-1.075-.025-.663-.5-1.087-1.588-1.087h-.025ZM19.314 25.725h5.188a5.176 5.176 0 0 1 3.812 1.25 3.651 3.651 0 0 1 1.038 2.725 3.75 3.75 0 0 1-2.413 3.613l2.8 4.187h-3.75l-2.362-3.55h-1.088v3.55h-3.25l.025-11.775Zm5 5.625c1.088 0 1.75-.537 1.75-1.4 0-.937-.687-1.412-1.762-1.412h-1.738v2.837l1.75-.025Z"/><path fill="#fff" d="M33.863 25.638h3.125l5 11.8H38.5l-.837-2.113h-4.538l-.837 2.175H28.9l4.963-11.862Zm2.85 7.162L35.4 29.488 34.075 32.8h2.638ZM42.502 25.688h3.25V37.4h-3.25V25.688ZM46.951 25.688h3.05l4.213 6.25v-6.25h3.212V37.4H54.59l-4.413-6.425V37.4h-3.225V25.688ZM57.963 35.663l1.8-2.163a6.075 6.075 0 0 0 3.75 1.413c.887 0 1.35-.313 1.35-.813 0-.512-.375-.762-1.988-1.137-2.5-.575-4.412-1.25-4.412-3.663 0-2.175 1.725-3.75 4.537-3.75a7.35 7.35 0 0 1 4.813 1.563l-1.563 2.225a5.7 5.7 0 0 0-3.275-1.15c-.787 0-1.175.312-1.175.75 0 .537.4.775 2.038 1.137 2.687.588 4.35 1.463 4.35 3.65 0 2.388-1.888 3.75-4.725 3.75a8.2 8.2 0 0 1-5.5-1.812Z"/></g><defs><clipPath id="a"><path fill="#fff" d="M0 0h75v75H0z"/></clipPath></defs></svg>