<svg xmlns="http://www.w3.org/2000/svg" viewBox="0 0 14 14"><g style="fill:#2795ee;fill-opacity:1"><path d="M424.24 447.79c-44.367-.645-67.954 21.814-87.474 48.714-18.636-8.916-36.997-7.693-53.912 2.685-15.08 11.866-20.733 27.864-17.833 47.612-18.01 13.18-31.302 30.661-30.83 60.687 8.397 40.354 32.68 59.65 70.635 60.819l180.963-.078c26.727 1.478 48.781-6.834 64.268-28.899 22.701-45.024 4.339-78.164-26.871-94.094-2.553-41.622-20.743-75.892-72.053-94.593-9.748-1.823-18.677-2.735-26.893-2.854zm-.226 10.151c6.096.085 12.652.601 19.722 1.598 43.625 12.26 66.256 40.578 69.057 84.066-1.395 5.497.388 9.027 4.965 10.827 30.352 15.94 41.73 40.023 24.937 76.2-19.54 28.38-45.228 28.137-70.863 28.145l-166.068-.033c-21.635-.816-41.497-8.337-56.356-34.765-9.228-25.466-5.778-49.095 21.77-69.23 2.371-2.06 5.996-2.283 3.39-11.624-1.555-12.433.948-24.59 14.86-35.969 12.42-7.264 25.778-10.536 42.049-1.431 6.71 5.249 11.109 3.37 13.964-3.272 15.794-24.571 35.9-45.104 78.573-44.512z" style="fill:#2795ee;fill-opacity:1;stroke:#000;stroke-width:0;stroke-linecap:butt;stroke-linejoin:miter;stroke-miterlimit:4;stroke-dasharray:none;stroke-opacity:1" transform="matrix(.035 0 0 .035 -6.88 -12.644)"/><path d="M111.656 150.507c-1.536.879-2.59-.11-2.057-1.646 2.892-3.953 6.558-5.466 11.089-4.827 3.381.682 6.227 2.465 7.906 6.642 1.297 4.962.066 9.06-3.782 12.302-6.607 3.993-11.031.75-15.325-2.926l-10.019-10.7c-2.604-2.034-5.02-4.664-10.632-1.528-2.183 1.969-3.575 3.967-2.803 8.915 1.436 3.574 4.052 5.448 7.962 5.452 3.301-.093 4.79-2.233 6.644-3.96 1.126-.883 2.51-.17 2.004 1.4-1.538 2.07-3.375 3.835-6.057 4.738-5.024 1.322-8.849-.35-11.827-4.136-1.914-3.067-2.082-6.595-.631-10.806 2.248-3.708 5.42-5.876 10.275-5.51 4.246.615 6.263 2.954 8.678 4.985l8.855 9.767c3.18 2.79 6.476 5.22 11.577 2.002 4.482-3.966 2.983-9.354 1.283-11.363-2.614-2.791-5.616-3.636-9.06-2.26-1.807.723-2.99 2.047-4.08 3.46z" style="fill:#2795ee;fill-opacity:1;stroke:#000;stroke-width:0;stroke-linecap:butt;stroke-linejoin:miter;stroke-miterlimit:4;stroke-dasharray:none;stroke-opacity:1" transform="matrix(.13228 0 0 .13228 -6.88 -12.644)"/></g></svg>