<?xml version="1.0" encoding="UTF-8" standalone="no"?>
<!-- Created with Inkscape (http://www.inkscape.org/) -->

<svg
   width="14mm"
   height="14mm"
   viewBox="0 0 14 14"
   version="1.1"
   id="svg5"
   inkscape:version="1.1.2 (0a00cf5339, 2022-02-04)"
   sodipodi:docname="jsfiddle.svg"
   xmlns:inkscape="http://www.inkscape.org/namespaces/inkscape"
   xmlns:sodipodi="http://sodipodi.sourceforge.net/DTD/sodipodi-0.dtd"
   xmlns="http://www.w3.org/2000/svg"
   xmlns:svg="http://www.w3.org/2000/svg">
  <sodipodi:namedview
     id="namedview7"
     pagecolor="#ffffff"
     bordercolor="#999999"
     borderopacity="1"
     inkscape:pageshadow="0"
     inkscape:pageopacity="0"
     inkscape:pagecheckerboard="0"
     inkscape:document-units="mm"
     showgrid="false"
     width="14mm"
     inkscape:showpageshadow="false"
     showborder="false"
     inkscape:zoom="5.6340776"
     inkscape:cx="15.885475"
     inkscape:cy="29.197326"
     inkscape:window-width="1360"
     inkscape:window-height="744"
     inkscape:window-x="0"
     inkscape:window-y="16"
     inkscape:window-maximized="0"
     inkscape:current-layer="layer1" />
  <defs
     id="defs2" />
  <g
     inkscape:label="Слой 1"
     inkscape:groupmode="layer"
     id="layer1">
    <g
       id="g8961"
       style="fill:#2795ee;fill-opacity:1"
       transform="matrix(0.13228345,0,0,0.13228345,-6.8808873,-12.644093)">
      <path
         id="path4132"
         style="fill:#2795ee;fill-opacity:1;stroke:#000000;stroke-width:0;stroke-linecap:butt;stroke-linejoin:miter;stroke-miterlimit:4;stroke-dasharray:none;stroke-opacity:1"
         d="m 424.24023,447.78906 c -44.36718,-0.64436 -67.95435,21.81475 -87.47461,48.71485 -18.6361,-8.91602 -36.9962,-7.69281 -53.9121,2.68554 -15.07931,11.8653 -20.73205,27.86375 -17.83204,47.61133 -18.01023,13.18084 -31.30231,30.66157 -30.83007,60.6875 8.39645,40.35409 32.67932,59.64984 70.63476,60.81836 l 180.96289,-0.0781 c 26.72708,1.47798 48.78112,-6.83314 64.26758,-28.89844 22.7017,-45.02362 4.33904,-78.16444 -26.87109,-94.09375 -2.55247,-41.62231 -20.74282,-75.89254 -72.05274,-94.59375 -9.74761,-1.82235 -18.67643,-2.73419 -26.89258,-2.85352 z m -0.22656,10.15235 c 6.09604,0.0846 12.65237,0.60094 19.72266,1.59765 43.62478,12.25958 66.25601,40.57814 69.05664,84.06641 -1.39533,5.49604 0.38802,9.02628 4.96484,10.82617 30.35195,15.93989 41.72968,40.02319 24.9375,76.20117 -19.54053,28.37877 -45.22844,28.13622 -70.86328,28.14453 l -166.06836,-0.0332 c -21.63495,-0.8166 -41.49677,-8.33694 -56.35547,-34.76562 -9.22866,-25.46567 -5.77849,-49.09428 21.76953,-69.23047 2.37173,-2.05928 5.99671,-2.28225 3.39063,-11.62305 -1.55518,-12.43329 0.94767,-24.59014 14.85937,-35.96875 12.41997,-7.26387 25.77817,-10.53611 42.04883,-1.43164 6.70987,5.24923 11.10926,3.36994 13.96485,-3.27149 15.79336,-24.57132 35.89999,-45.10409 78.57226,-44.51171 z"
         transform="scale(0.26458333)" />
      <path
         style="fill:#2795ee;fill-opacity:1;stroke:#000000;stroke-width:0;stroke-linecap:butt;stroke-linejoin:miter;stroke-miterlimit:4;stroke-dasharray:none;stroke-opacity:1"
         d="m 111.65593,150.50741 c -1.53587,0.87818 -2.5904,-0.10989 -2.05736,-1.64593 2.89217,-3.95342 6.55873,-5.4665 11.08902,-4.82769 3.38159,0.68246 6.22706,2.46531 7.90594,6.64261 1.29706,4.96193 0.0663,9.06045 -3.7818,12.3018 -6.60639,3.99272 -11.03084,0.74952 -15.32489,-2.92614 L 99.468005,149.35132 c -2.604083,-2.03369 -5.019776,-4.66284 -10.632162,-1.52736 -2.182705,1.96908 -3.575285,3.96743 -2.803207,8.91489 1.436527,3.57442 4.051955,5.44785 7.962682,5.45236 3.30092,-0.0932 4.789166,-2.23351 6.643332,-3.96058 1.12625,-0.88221 2.51088,-0.16974 2.00427,1.39959 -1.53757,2.07091 -3.374572,3.83617 -6.056696,4.73878 -5.024109,1.32227 -8.848805,-0.35012 -11.827015,-4.136 -1.913872,-3.06689 -2.082631,-6.5945 -0.63159,-10.80559 2.247926,-3.70837 5.419707,-5.87617 10.275242,-5.50998 4.245669,0.61434 6.262909,2.95355 8.677819,4.98495 l 8.85532,9.76704 c 3.18066,2.78883 6.47552,5.22042 11.57666,2.00191 4.48223,-3.96642 2.98378,-9.35428 1.28332,-11.36366 -2.61431,-2.79104 -5.61613,-3.63596 -9.06037,-2.25902 -1.8068,0.7227 -2.98887,2.04681 -4.07968,3.45876 z"
         id="path6179"
         sodipodi:nodetypes="cccccccccccccccccccccc" />
    </g>
  </g>
</svg>
