<svg xmlns="http://www.w3.org/2000/svg" xmlns:xlink="http://www.w3.org/1999/xlink" width="459" height="361" viewBox="0 0 459 361"><defs><clipPath id="a"><rect width="459" height="361" transform="translate(150 1086)" fill="#efefef"/></clipPath><clipPath id="b"><path d="M4.733,0H190.307V270.041H4.733A4.734,4.734,0,0,1,0,265.309V4.733A4.734,4.734,0,0,1,4.733,0Z" transform="translate(270.041) rotate(90)" fill="none"/></clipPath><clipPath id="c"><path d="M4.824,0H194V268.621H4.824A4.769,4.769,0,0,1,0,263.913V4.708A4.769,4.769,0,0,1,4.824,0Z" transform="translate(268.621) rotate(90)" fill="none"/></clipPath></defs><g transform="translate(-150 -1086)" clip-path="url(#a)"><g transform="translate(211.074 1092.04)"><g transform="translate(0 0)"><g transform="translate(121.571)"><circle cx="20.303" cy="20.303" r="20.303" transform="translate(76.408 22.437)" fill="#fbb6b6"/><circle cx="12.021" cy="12.021" r="12.021" transform="translate(0 39.001)" fill="#fbb6b6"/><circle cx="21.543" cy="21.543" r="21.543" transform="translate(11.817 18.258)" fill="#fbb6b6"/><circle cx="31.519" cy="31.519" r="31.519" transform="translate(29.408)" fill="#fbb6b6"/><path d="M368.021,112.952H281.85V94.75h86.512Z" transform="translate(-270.033 -49.909)" fill="#fbb6b6"/></g><g transform="translate(194.358 37.648)"><path d="M415.413,79.55H555.095a4.734,4.734,0,0,1,4.733,4.733v93.364a9.469,9.469,0,0,1-9.465,9.465H420.145a9.469,9.469,0,0,1-9.465-9.465V84.283A4.734,4.734,0,0,1,415.413,79.55Z" transform="translate(-410.68 -79.55)" fill="#fff"/><path d="M415.413,79.3H555.095a4.988,4.988,0,0,1,4.983,4.983v93.364a9.726,9.726,0,0,1-9.715,9.715H420.145a9.726,9.726,0,0,1-9.715-9.715V84.283A4.988,4.988,0,0,1,415.413,79.3Zm134.95,107.562a9.226,9.226,0,0,0,9.215-9.215V84.283a4.488,4.488,0,0,0-4.483-4.483H415.413a4.488,4.488,0,0,0-4.483,4.483v93.364a9.226,9.226,0,0,0,9.215,9.215Z" transform="translate(-410.68 -79.55)" fill="#f3f3f3"/><g transform="translate(22.333 32.787)"><path d="M40.544,3.39H0A3.39,3.39,0,0,1-3.39,0,3.39,3.39,0,0,1,0-3.39H40.544A3.39,3.39,0,0,1,43.934,0,3.39,3.39,0,0,1,40.544,3.39Z" transform="translate(26.678)" fill="#c9c9c9"/><path d="M14.5,3.39H0A3.39,3.39,0,0,1-3.39,0,3.39,3.39,0,0,1,0-3.39H14.5A3.39,3.39,0,0,1,17.891,0,3.39,3.39,0,0,1,14.5,3.39Z" fill="#c9c9c9"/><path d="M44.931,3.39H0A3.39,3.39,0,0,1-3.39,0,3.39,3.39,0,0,1,0-3.39H44.931A3.39,3.39,0,0,1,48.321,0,3.39,3.39,0,0,1,44.931,3.39Z" transform="translate(0 11.713)" fill="#c9c9c9"/><path d="M15.39,3.39H0A3.39,3.39,0,0,1-3.39,0,3.39,3.39,0,0,1,0-3.39H15.39A3.39,3.39,0,0,1,18.78,0,3.39,3.39,0,0,1,15.39,3.39Z" transform="translate(14.198 23.426)" fill="#c9c9c9"/><path d="M50.033,3.39H0A3.39,3.39,0,0,1-3.39,0,3.39,3.39,0,0,1,0-3.39H50.033A3.39,3.39,0,0,1,53.423,0,3.39,3.39,0,0,1,50.033,3.39Z" transform="translate(14.198 35.135)" fill="#c9c9c9"/><path d="M33.923,3.39H0A3.39,3.39,0,0,1-3.39,0,3.39,3.39,0,0,1,0-3.39H33.923A3.39,3.39,0,0,1,37.313,0,3.39,3.39,0,0,1,33.923,3.39Z" transform="translate(14.198 46.848)" fill="#c9c9c9"/><path d="M50.033,3.39H0A3.39,3.39,0,0,1-3.39,0,3.39,3.39,0,0,1,0-3.39H50.033A3.39,3.39,0,0,1,53.423,0,3.39,3.39,0,0,1,50.033,3.39Z" transform="translate(0 58.561)" fill="#c9c9c9"/></g><path d="M415.413,79.55H555.095a4.734,4.734,0,0,1,4.733,4.733v13.1H410.68v-13.1A4.734,4.734,0,0,1,415.413,79.55Z" transform="translate(-410.68 -79.55)"/><path d="M703.634,97.523a2.366,2.366,0,1,0-2.366-2.366,2.392,2.392,0,0,0,2.366,2.366Z" transform="translate(-563.744 -86.524)" fill="#c9c9c9"/></g><g transform="translate(194.358 37.648)"><path d="M415.413,79.55H555.095a4.734,4.734,0,0,1,4.733,4.733v93.364a9.469,9.469,0,0,1-9.465,9.465H420.145a9.469,9.469,0,0,1-9.465-9.465V84.283A4.734,4.734,0,0,1,415.413,79.55Z" transform="translate(-410.68 -79.55)" fill="#2e2e2e"/><g transform="translate(22.333 32.787)"><path d="M40.544,3.39H0A3.39,3.39,0,0,1-3.39,0,3.39,3.39,0,0,1,0-3.39H40.544A3.39,3.39,0,0,1,43.934,0,3.39,3.39,0,0,1,40.544,3.39Z" transform="translate(26.678)" fill="#c9c9c9"/><path d="M14.5,3.39H0A3.39,3.39,0,0,1-3.39,0,3.39,3.39,0,0,1,0-3.39H14.5A3.39,3.39,0,0,1,17.891,0,3.39,3.39,0,0,1,14.5,3.39Z" fill="#c9c9c9"/><path d="M44.931,3.39H0A3.39,3.39,0,0,1-3.39,0,3.39,3.39,0,0,1,0-3.39H44.931A3.39,3.39,0,0,1,48.321,0,3.39,3.39,0,0,1,44.931,3.39Z" transform="translate(0 11.713)" fill="#c9c9c9"/><path d="M15.39,3.39H0A3.39,3.39,0,0,1-3.39,0,3.39,3.39,0,0,1,0-3.39H15.39A3.39,3.39,0,0,1,18.78,0,3.39,3.39,0,0,1,15.39,3.39Z" transform="translate(14.198 23.426)" fill="#c9c9c9"/><path d="M50.033,3.39H0A3.39,3.39,0,0,1-3.39,0,3.39,3.39,0,0,1,0-3.39H50.033A3.39,3.39,0,0,1,53.423,0,3.39,3.39,0,0,1,50.033,3.39Z" transform="translate(14.198 35.135)" fill="#c9c9c9"/><path d="M33.923,3.39H0A3.39,3.39,0,0,1-3.39,0,3.39,3.39,0,0,1,0-3.39H33.923A3.39,3.39,0,0,1,37.313,0,3.39,3.39,0,0,1,33.923,3.39Z" transform="translate(14.198 46.848)" fill="#c9c9c9"/><path d="M50.033,3.39H0A3.39,3.39,0,0,1-3.39,0,3.39,3.39,0,0,1,0-3.39H50.033A3.39,3.39,0,0,1,53.423,0,3.39,3.39,0,0,1,50.033,3.39Z" transform="translate(0 58.561)" fill="#c9c9c9"/></g><path d="M415.413,79.55H555.095a4.734,4.734,0,0,1,4.733,4.733v13.1H410.68v-13.1A4.734,4.734,0,0,1,415.413,79.55Z" transform="translate(-410.68 -79.55)" fill="#f3f3f3"/><path d="M703.634,97.523a2.366,2.366,0,1,0-2.366-2.366,2.392,2.392,0,0,0,2.366,2.366Z" transform="translate(-563.744 -86.524)" fill="#2e2e2e"/></g><g transform="translate(31.581 87.737)"><rect width="190.307" height="270.036" rx="10" transform="translate(270.036 8.438) rotate(90)" fill="#f56c6c"/><g transform="translate(8.689 0)" clip-path="url(#b)"><rect width="190.307" height="270.036" rx="10" transform="translate(269.79 0) rotate(90)" fill="#fff"/><path d="M10-.25H180.307A10.262,10.262,0,0,1,190.557,10V260.036a10.262,10.262,0,0,1-10.25,10.25H10A10.262,10.262,0,0,1-.25,260.036V10A10.262,10.262,0,0,1,10-.25ZM180.307,269.786a9.761,9.761,0,0,0,9.75-9.75V10a9.761,9.761,0,0,0-9.75-9.75H10A9.761,9.761,0,0,0,.25,10V260.036a9.761,9.761,0,0,0,9.75,9.75Z" transform="translate(269.79 0) rotate(90)" fill="#f3f3f3"/><rect width="189.611" height="31.746" rx="10" transform="translate(62.139 141.959)" fill="#f3f3f3"/><rect width="188.182" height="68.892" rx="12.19" transform="translate(62.915 61.088)" fill="#f3f3f3"/><rect width="223.279" height="21.964" transform="translate(46.512 25.651)" fill="#f3f3f3"/><g transform="translate(60.392 33.795)" style="isolation:isolate"><path d="M212.7,259.9a2.626,2.626,0,0,1,4.553-1.808l-.374.388a2.139,2.139,0,1,0,0,2.84l.374.388a2.569,2.569,0,0,1-1.94.847,2.605,2.605,0,0,1-2.612-2.65Z" transform="translate(-212.7 -257.037)" fill="#151515"/><path d="M224.27,260.642h.535v.734a1.077,1.077,0,0,1,1-.8.98.98,0,0,1,.336.052v.483a1.3,1.3,0,0,0-.374-.066,1.022,1.022,0,0,0-.961.729v2.447h-.535v-3.583Z" transform="translate(-218.794 -258.791)" fill="#151515"/><path d="M228.92,262.44a1.743,1.743,0,0,1,1.69-1.85,1.687,1.687,0,0,1,1.647,1.808v.161h-2.811a1.309,1.309,0,0,0,1.278,1.278,1.446,1.446,0,0,0,.984-.369l.336.36a2.107,2.107,0,0,1-1.344.478,1.792,1.792,0,0,1-1.779-1.865Zm2.806-.265a1.183,1.183,0,0,0-1.122-1.126,1.2,1.2,0,0,0-1.145,1.126Z" transform="translate(-221.244 -258.796)" fill="#151515"/><path d="M237.339,263.2c0-.639.535-1.065,1.344-1.065a2.089,2.089,0,0,1,1.093.279v-.492a.809.809,0,0,0-.928-.89,2.376,2.376,0,0,0-1.089.308l-.2-.412a3.051,3.051,0,0,1,1.354-.345c.89,0,1.387.45,1.387,1.264v2.38h-.53v-.416a1.542,1.542,0,0,1-1.141.483,1.16,1.16,0,0,1-1.3-1.093Zm1.41.682a1.418,1.418,0,0,0,1.027-.412v-.691a1.907,1.907,0,0,0-1.013-.256c-.549,0-.909.265-.909.663C237.855,263.6,238.215,263.879,238.75,263.879Z" transform="translate(-225.674 -258.791)" fill="#151515"/><path d="M245.763,262.26v-2.343h-.743v-.44h.743v-.984l.535-.123v1.107h1.027v.44H246.3v2.205c0,.383.147.535.521.535a1.329,1.329,0,0,0,.506-.095v.478a2,2,0,0,1-.625.095c-.615,0-.942-.3-.942-.876Z" transform="translate(-229.724 -257.627)" fill="#151515"/><path d="M251.06,262.44a1.743,1.743,0,0,1,1.69-1.85A1.687,1.687,0,0,1,254.4,262.4v.161h-2.811a1.309,1.309,0,0,0,1.278,1.278,1.446,1.446,0,0,0,.984-.369l.336.36a2.107,2.107,0,0,1-1.344.478A1.792,1.792,0,0,1,251.06,262.44Zm2.806-.265a1.183,1.183,0,0,0-1.122-1.126,1.2,1.2,0,0,0-1.145,1.126Z" transform="translate(-232.906 -258.796)" fill="#151515"/><path d="M263.249,263.2c0-.639.535-1.065,1.344-1.065a2.089,2.089,0,0,1,1.093.279v-.492a.809.809,0,0,0-.928-.89,2.376,2.376,0,0,0-1.089.308l-.2-.412a3.051,3.051,0,0,1,1.353-.345c.89,0,1.387.45,1.387,1.264v2.38h-.53v-.416a1.542,1.542,0,0,1-1.141.483,1.16,1.16,0,0,1-1.3-1.093Zm1.41.682a1.418,1.418,0,0,0,1.027-.412v-.691a1.907,1.907,0,0,0-1.013-.256c-.549,0-.909.265-.909.663C263.765,263.6,264.125,263.879,264.66,263.879Z" transform="translate(-239.322 -258.791)" fill="#151515"/><path d="M271.83,260.647h.535v.582a1.292,1.292,0,0,1,1.141-.639,1.247,1.247,0,0,1,1.3,1.32v2.319h-.535v-2.167a.928.928,0,0,0-.961-1.027,1.057,1.057,0,0,0-.942.549v2.645h-.535v-3.583Z" transform="translate(-243.846 -258.796)" fill="#151515"/><path d="M283.74,259.9a2.557,2.557,0,1,1,2.556,2.65A2.585,2.585,0,0,1,283.74,259.9Zm4.539,0a1.989,1.989,0,1,0-1.983,2.139A2.039,2.039,0,0,0,288.279,259.9Z" transform="translate(-250.12 -257.037)" fill="#151515"/><path d="M296.6,260.663h.53v.516a1.409,1.409,0,0,1,1.159-.558,1.848,1.848,0,0,1-.028,3.677,1.449,1.449,0,0,1-1.122-.5v1.983H296.6v-5.121Zm2.811,1.8a1.284,1.284,0,0,0-1.254-1.372,1.223,1.223,0,0,0-1.022.492v1.756a1.258,1.258,0,0,0,1.022.5A1.284,1.284,0,0,0,299.411,262.461Z" transform="translate(-256.894 -258.812)" fill="#151515"/><path d="M305.31,262.44a1.743,1.743,0,0,1,1.69-1.85,1.687,1.687,0,0,1,1.647,1.808v.161h-2.811a1.309,1.309,0,0,0,1.278,1.278,1.446,1.446,0,0,0,.984-.369l.336.36a2.107,2.107,0,0,1-1.344.478A1.792,1.792,0,0,1,305.31,262.44Zm2.806-.265a1.183,1.183,0,0,0-1.122-1.126,1.2,1.2,0,0,0-1.145,1.126Z" transform="translate(-261.482 -258.796)" fill="#151515"/><path d="M314.29,260.647h.535v.582a1.292,1.292,0,0,1,1.141-.639,1.247,1.247,0,0,1,1.3,1.32v2.319h-.535v-2.167a.928.928,0,0,0-.961-1.027,1.057,1.057,0,0,0-.942.549v2.645h-.535v-3.583Z" transform="translate(-266.212 -258.796)" fill="#151515"/><path d="M322.13,261.685l.345-.412a2.38,2.38,0,0,0,1.775.8c.8,0,1.372-.44,1.372-1.041,0-.516-.308-.757-1.145-.9l-.828-.137c-.942-.17-1.358-.558-1.358-1.249a1.568,1.568,0,0,1,1.76-1.481,3.357,3.357,0,0,1,2.035.653l-.293.44a2.9,2.9,0,0,0-1.732-.615c-.719,0-1.226.412-1.226.947,0,.454.279.691.97.8l.823.137c1.093.2,1.562.61,1.562,1.382,0,.894-.823,1.557-1.955,1.557A2.952,2.952,0,0,1,322.13,261.685Z" transform="translate(-270.341 -257.042)" fill="#151515"/><path d="M332.54,256.959l.535-.109v2.409a1.292,1.292,0,0,1,1.141-.639,1.247,1.247,0,0,1,1.3,1.32v2.319h-.535v-2.168a.928.928,0,0,0-.961-1.027,1.057,1.057,0,0,0-.942.549v2.646h-.535v-5.3Z" transform="translate(-275.825 -256.826)" fill="#151515"/><path d="M340.84,257.6a.388.388,0,1,1,.388.383A.392.392,0,0,1,340.84,257.6Zm.118,1.268h.535v3.583h-.535Z" transform="translate(-280.197 -257.021)" fill="#151515"/><path d="M344.62,259.091h-.8v-.44h.8V257.9a.985.985,0,0,1,1.074-1.1,1.519,1.519,0,0,1,.483.066v.483a1.517,1.517,0,0,0-.435-.066c-.412,0-.587.2-.587.625v.743h1.022v.44h-1.022v3.142h-.535v-3.142Z" transform="translate(-281.766 -256.8)" fill="#151515"/><path d="M350.523,262.26v-2.343h-.743v-.44h.743v-.984l.535-.123v1.107h1.027v.44h-1.027v2.205c0,.383.147.535.521.535a1.329,1.329,0,0,0,.506-.095v.478a2,2,0,0,1-.625.095c-.615,0-.942-.3-.942-.876Z" transform="translate(-284.906 -257.627)" fill="#151515"/><path d="M359.6,262.44a1.789,1.789,0,0,1,1.77-1.85,1.95,1.95,0,0,1,1.382.558l-.346.374a1.407,1.407,0,0,0-1.013-.45,1.373,1.373,0,0,0,0,2.735,1.406,1.406,0,0,0,1.013-.45l.346.374a1.942,1.942,0,0,1-1.382.558A1.789,1.789,0,0,1,359.6,262.44Z" transform="translate(-290.078 -258.796)" fill="#151515"/><path d="M367.84,256.959l.535-.109v5.414h-.535v-5.3Z" transform="translate(-294.419 -256.826)" fill="#151515"/><path d="M371.25,263.024V260.71h.544v2.158a.928.928,0,0,0,.956,1.036,1.062,1.062,0,0,0,.942-.544v-2.65h.535v3.583h-.535v-.582a1.281,1.281,0,0,1-1.141.639,1.255,1.255,0,0,1-1.3-1.33Z" transform="translate(-296.215 -258.86)" fill="#151515"/><path d="M379.14,263.77l.289-.355a1.865,1.865,0,0,0,1.155.45c.521,0,.9-.27.9-.653,0-.293-.189-.45-.648-.535l-.587-.1c-.7-.123-1.013-.416-1.013-.942,0-.615.535-1.051,1.292-1.051a2.3,2.3,0,0,1,1.368.45l-.265.374a1.9,1.9,0,0,0-1.122-.383c-.469,0-.781.218-.781.573,0,.293.156.435.615.516l.6.109c.719.133,1.041.435,1.041.961a1.257,1.257,0,0,1-1.4,1.117,2.037,2.037,0,0,1-1.453-.53Z" transform="translate(-300.371 -258.791)" fill="#151515"/><path d="M386.8,262.26v-2.343h-.743v-.44h.743v-.984l.535-.123v1.107h1.027v.44h-1.027v2.205c0,.383.147.535.521.535a1.329,1.329,0,0,0,.506-.095v.478a2,2,0,0,1-.625.095c-.615,0-.942-.3-.942-.876Z" transform="translate(-304.016 -257.627)" fill="#151515"/><path d="M392.1,262.44a1.743,1.743,0,0,1,1.69-1.85,1.687,1.687,0,0,1,1.647,1.808v.161h-2.811a1.309,1.309,0,0,0,1.278,1.278,1.446,1.446,0,0,0,.984-.369l.336.36a2.106,2.106,0,0,1-1.344.478A1.792,1.792,0,0,1,392.1,262.44Zm2.806-.265a1.183,1.183,0,0,0-1.122-1.126,1.2,1.2,0,0,0-1.145,1.126Z" transform="translate(-307.197 -258.796)" fill="#151515"/><path d="M401.09,260.642h.535v.734a1.077,1.077,0,0,1,1-.8.98.98,0,0,1,.336.052v.483a1.3,1.3,0,0,0-.374-.066,1.022,1.022,0,0,0-.961.729v2.447h-.535Z" transform="translate(-311.933 -258.791)" fill="#151515"/></g><path d="M85.45,218.09h45.778a.36.36,0,0,1,.36.36V392.566a.36.36,0,0,1-.36.36H89.823a4.734,4.734,0,0,1-4.733-4.733V218.45A.36.36,0,0,1,85.45,218.09Z" transform="translate(-85.09 -202.614)" fill="#2e2e2e"/><g transform="translate(11.813 33.866)"><path d="M23.928,2H0A2,2,0,0,1-2,0,2,2,0,0,1,0-2H23.928a2,2,0,0,1,2,2A2,2,0,0,1,23.928,2Z" transform="translate(0 64.065)" fill="#8b8b8b"/><path d="M23.928,2H0A2,2,0,0,1-2,0,2,2,0,0,1,0-2H23.928a2,2,0,0,1,2,2A2,2,0,0,1,23.928,2Z" transform="translate(0 51.533)" fill="#8b8b8b"/><path d="M23.928,2H0A2,2,0,0,1-2,0,2,2,0,0,1,0-2H23.928a2,2,0,0,1,2,2A2,2,0,0,1,23.928,2Z" transform="translate(0 39.006)" fill="#8b8b8b"/><path d="M23.928,2H0A2,2,0,0,1-2,0,2,2,0,0,1,0-2H23.928a2,2,0,0,1,2,2A2,2,0,0,1,23.928,2Z" transform="translate(0 25.906)" fill="#8b8b8b"/><path d="M23.928,2H0A2,2,0,0,1-2,0,2,2,0,0,1,0-2H23.928a2,2,0,0,1,2,2A2,2,0,0,1,23.928,2Z" transform="translate(0 12.802)" fill="#8b8b8b"/><path d="M23.928,2H0A2,2,0,0,1-2,0,2,2,0,0,1,0-2H23.928a2,2,0,0,1,2,2A2,2,0,0,1,23.928,2Z" fill="#8b8b8b"/></g><rect width="323.169" height="25.594" transform="translate(-24.538 0)"/><g transform="translate(31.713 7.468)"><path d="M215.039,210.866c0,.9.544,1.339,1.529,1.339a4.119,4.119,0,0,0,.9-.128v-1.046a1.87,1.87,0,0,1-.582.09c-.407,0-.558-.128-.558-.511v-1.6H217.5v-1.074h-1.178v-1.363l-1.287.279v1.084h-.857v1.074h.852v1.86Zm-4.018.024c0-.279.279-.416.7-.416a3.209,3.209,0,0,1,.767.095v.544a1.6,1.6,0,0,1-.8.2c-.412,0-.663-.161-.663-.421m.393,1.33a1.994,1.994,0,0,0,1.164-.327v.256h1.273v-2.7c0-1.027-.691-1.59-1.85-1.59a4.7,4.7,0,0,0-1.973.464l.464.951a3.411,3.411,0,0,1,1.278-.336c.53,0,.8.208.8.629v.208a3.626,3.626,0,0,0-.956-.118c-1.084,0-1.737.454-1.737,1.268a1.363,1.363,0,0,0,1.529,1.306m-7.009-.071h1.372v-2.186h2.3v2.186h1.377v-5.584h-1.372v2.144h-2.3v-2.144H204.4v5.584Zm-5.225-2.115a1.067,1.067,0,0,1,1.065-1.07h.043a1.3,1.3,0,0,1,.89.327v1.472a1.226,1.226,0,0,1-.89.336,1.073,1.073,0,0,1-1.107-1.036v-.033m2.016,2.115h1.278V206.29l-1.287.279v1.585a2.179,2.179,0,0,0-2.224,3.748,2.23,2.23,0,0,0,1.107.308,1.93,1.93,0,0,0,1.131-.364v.312Zm-5.859-3.242a.923.923,0,0,1,.885.667h-1.76a.884.884,0,0,1,.876-.667m-2.172,1.136a2.215,2.215,0,0,0,2.243,2.186h.052a2.53,2.53,0,0,0,1.761-.639l-.852-.757a1.125,1.125,0,0,1-.847.317,1.1,1.1,0,0,1-1.036-.667h3.005v-.322a2.167,2.167,0,1,0-4.33-.17v.052m-2.224-2.3a.634.634,0,1,1,.151,1.259.76.76,0,0,1-.147,0h-1.358v-1.259h1.358Zm-2.731,4.411h1.372v-2.035h1.046l1.055,2.035h1.533l-1.226-2.234a1.683,1.683,0,0,0,1.051-1.571,1.816,1.816,0,0,0-1.973-1.779H188.2Z" transform="translate(-171.115 -203.867)" fill="#fff"/><path d="M161.731,207.464c.947,0,2.319-.194,2.319-1.325a1.21,1.21,0,0,0-.024-.26l-.563-2.451c-.133-.539-.246-.786-1.193-1.259a10.957,10.957,0,0,0-2.811-1c-.44,0-.568.568-1.1.568s-.88-.426-1.358-.426-.752.312-.98.947c0,0-.639,1.8-.719,2.059a.52.52,0,0,0-.019.147c0,.7,2.754,2.991,6.441,2.991m2.466-.861a3.823,3.823,0,0,1,.133.767c0,1.06-1.193,1.652-2.764,1.652-3.545,0-6.649-2.073-6.649-3.45a1.4,1.4,0,0,1,.114-.554c-1.278.062-2.925.293-2.925,1.746,0,2.385,5.655,5.329,10.132,5.329,3.431,0,4.3-1.552,4.3-2.778,0-.965-.833-2.059-2.338-2.712" transform="translate(-152.1 -201.17)" fill="#e00"/><path d="M167.331,210.112a3.826,3.826,0,0,1,.133.767c0,1.06-1.193,1.652-2.764,1.652-3.545,0-6.649-2.073-6.649-3.45a1.4,1.4,0,0,1,.114-.554l.279-.686a.489.489,0,0,0-.019.142c0,.7,2.754,2.991,6.441,2.991.947,0,2.319-.194,2.319-1.325a1.21,1.21,0,0,0-.024-.26l.17.719Z" transform="translate(-155.234 -204.683)"/></g><g transform="translate(11.846 7.582)"><path d="M12.4,2H0A2,2,0,0,1-2,0,2,2,0,0,1,0-2H12.4a2,2,0,0,1,2,2A2,2,0,0,1,12.4,2Z" transform="translate(0 9.697)" fill="#c9c9c9"/><path d="M12.4,2H0A2,2,0,0,1-2,0,2,2,0,0,1,0-2H12.4a2,2,0,0,1,2,2A2,2,0,0,1,12.4,2Z" transform="translate(0 4.96)" fill="#c9c9c9"/><path d="M12.4,2H0A2,2,0,0,1-2,0,2,2,0,0,1,0-2H12.4a2,2,0,0,1,2,2A2,2,0,0,1,12.4,2Z" fill="#c9c9c9"/></g></g></g><g transform="translate(0 201.442)"><g style="isolation:isolate"><g transform="translate(62.967 92.905)"><path d="M177.667,634.842l-22.158,12.873L133.2,634.833l22.158-12.873Z" transform="translate(-133.129 -621.96)" fill="#fddbdc"/><path d="M202.424,649.18l-.071,26.592L180.2,688.645l.066-26.592Z" transform="translate(-157.886 -636.298)" fill="#fbb6b6"/><path d="M155.43,662.042l-.066,26.592L133.05,675.752l.071-26.592Z" transform="translate(-133.05 -636.287)" fill="#f56c6c"/></g><g transform="translate(0 57.738)" style="isolation:isolate"><path d="M44.617,560.532,22.459,573.41.15,560.527,22.3,547.65Z" transform="translate(-0.079 -547.65)" fill="#fddbdc"/><path d="M69.369,574.87,69.3,601.462,47.14,614.335l.071-26.588Z" transform="translate(-24.831 -561.988)" fill="#fbb6b6"/><path d="M22.38,587.742l-.071,26.588L0,601.452.071,574.86Z" transform="translate(0 -561.983)" fill="#f56c6c"/></g><g transform="translate(23.663)" style="isolation:isolate"><path d="M94.617,438.532,72.459,451.409,50.15,438.527,72.3,425.65Z" transform="translate(-50.079 -425.65)" fill="#fddbdc"/><path d="M119.369,452.87l-.071,26.592L97.14,492.335l.071-26.588Z" transform="translate(-74.831 -439.988)" fill="#fbb6b6"/><path d="M72.38,465.742l-.071,26.588L50,479.452l.071-26.592Z" transform="translate(-50 -439.983)" fill="#f56c6c"/></g></g></g><rect width="50.113" height="28.987" rx="3.45" transform="translate(150.278 159.057)" fill="#fff"/><path d="M3.45-.53H46.663a3.985,3.985,0,0,1,3.98,3.98V25.537a3.985,3.985,0,0,1-3.98,3.98H3.45a3.985,3.985,0,0,1-3.98-3.98V3.45A3.985,3.985,0,0,1,3.45-.53ZM46.663,28.457a2.923,2.923,0,0,0,2.92-2.92V3.45A2.923,2.923,0,0,0,46.663.53H3.45A2.923,2.923,0,0,0,.53,3.45V25.537a2.923,2.923,0,0,0,2.92,2.92Z" transform="translate(150.278 159.057)" fill="#efefef"/><g transform="translate(165.874 167.898)"><path d="M356.7,358.878a1.779,1.779,0,0,0,.071.558,3.585,3.585,0,0,0,.2.454.26.26,0,0,1,.043.147.252.252,0,0,1-.118.189l-.4.265a.3.3,0,0,1-.166.057.293.293,0,0,1-.189-.09,1.657,1.657,0,0,1-.227-.3c-.062-.109-.128-.227-.194-.369a2.334,2.334,0,0,1-1.85.871,1.719,1.719,0,0,1-1.259-.454,1.777,1.777,0,0,1,.109-2.5,2.3,2.3,0,0,1,1.543-.492,4.734,4.734,0,0,1,.667.052c.232.033.473.08.724.137v-.459a1.379,1.379,0,0,0-.3-1.008,1.456,1.456,0,0,0-1.027-.289,2.877,2.877,0,0,0-.682.08,5.427,5.427,0,0,0-.681.213,1.341,1.341,0,0,1-.223.08.321.321,0,0,1-.1.019c-.09,0-.133-.062-.133-.194v-.308a.451.451,0,0,1,.043-.222.421.421,0,0,1,.175-.132,3.6,3.6,0,0,1,.8-.284,3.869,3.869,0,0,1,.984-.118,2.309,2.309,0,0,1,1.652.511,2.087,2.087,0,0,1,.521,1.548v2.04h.014Zm-2.556.956a2.036,2.036,0,0,0,.648-.114,1.393,1.393,0,0,0,.6-.4,1,1,0,0,0,.213-.4,2.254,2.254,0,0,0,.062-.549V358.1c-.185-.043-.379-.08-.577-.109a4.181,4.181,0,0,0-.592-.038,1.448,1.448,0,0,0-.937.251.9.9,0,0,0,.587,1.623Zm5.054.681a.37.37,0,0,1-.241-.062.509.509,0,0,1-.132-.246l-1.481-4.865a1.135,1.135,0,0,1-.057-.251.139.139,0,0,1,.151-.156h.615a.359.359,0,0,1,.246.062.51.51,0,0,1,.128.246l1.055,4.169.984-4.169a.47.47,0,0,1,.118-.246.433.433,0,0,1,.251-.062h.5a.382.382,0,0,1,.251.062.412.412,0,0,1,.118.246l.994,4.217,1.088-4.217a.5.5,0,0,1,.128-.246.416.416,0,0,1,.246-.062h.587a.14.14,0,0,1,.156.156.387.387,0,0,1-.014.1.793.793,0,0,1-.043.156l-1.519,4.865a.466.466,0,0,1-.133.246.41.41,0,0,1-.241.062h-.539a.382.382,0,0,1-.251-.062.458.458,0,0,1-.118-.251l-.975-4.061-.97,4.056a.512.512,0,0,1-.118.251.4.4,0,0,1-.251.062h-.539Zm8.088.17a4.18,4.18,0,0,1-.97-.114,2.863,2.863,0,0,1-.724-.251.447.447,0,0,1-.194-.175.467.467,0,0,1-.038-.175v-.322c0-.133.052-.194.147-.194a.317.317,0,0,1,.114.019l.156.062a3.473,3.473,0,0,0,.691.222,3.644,3.644,0,0,0,.748.076,1.7,1.7,0,0,0,.918-.208.678.678,0,0,0,.327-.6.611.611,0,0,0-.17-.44,1.578,1.578,0,0,0-.634-.327l-.913-.284a1.936,1.936,0,0,1-1.008-.644,1.508,1.508,0,0,1-.317-.913,1.409,1.409,0,0,1,.17-.7,1.586,1.586,0,0,1,.454-.516,1.969,1.969,0,0,1,.653-.327,2.735,2.735,0,0,1,.8-.109,3.144,3.144,0,0,1,.421.024c.147.019.279.043.407.071s.246.061.36.1a1.334,1.334,0,0,1,.265.114.546.546,0,0,1,.189.156.34.34,0,0,1,.057.208v.3c0,.133-.052.2-.147.2a.632.632,0,0,1-.241-.076,2.851,2.851,0,0,0-1.207-.246,1.636,1.636,0,0,0-.838.175.61.61,0,0,0-.3.558.583.583,0,0,0,.189.445,1.882,1.882,0,0,0,.691.345l.895.284a1.9,1.9,0,0,1,.975.606,1.434,1.434,0,0,1,.289.88,1.589,1.589,0,0,1-.166.729,1.724,1.724,0,0,1-.459.554,1.988,1.988,0,0,1-.7.35,2.931,2.931,0,0,1-.9.133Z" transform="translate(-351.366 -354.77)" fill="#252f3e"/><g transform="translate(0 7.05)"><path d="M367.6,372.01a13.586,13.586,0,0,1-7.667,2.343,13.866,13.866,0,0,1-9.361-3.568c-.194-.175-.019-.416.213-.279a18.891,18.891,0,0,0,9.366,2.485,18.652,18.652,0,0,0,7.146-1.462c.345-.156.644.227.3.478Z" transform="translate(-350.494 -370.087)" fill="#f90" fill-rule="evenodd"/><path d="M385.582,370.605c-.265-.341-1.751-.166-2.423-.08-.2.024-.232-.151-.052-.284a3.744,3.744,0,0,1,3.355-.317,3.693,3.693,0,0,1-1.169,3.161c-.17.147-.331.071-.26-.118.251-.625.814-2.026.549-2.362Z" transform="translate(-367.61 -369.666)" fill="#f90" fill-rule="evenodd"/></g></g><g transform="translate(112.957 161.092)"><path d="M22.683,1.9H0A1.9,1.9,0,0,1-1.9,0,1.9,1.9,0,0,1,0-1.9H22.683a1.9,1.9,0,0,1,1.9,1.9A1.9,1.9,0,0,1,22.683,1.9Z" transform="translate(0 40.383)" fill="#c9c9c9"/><path d="M22.683,1.9H0A1.9,1.9,0,0,1-1.9,0,1.9,1.9,0,0,1,0-1.9H22.683a1.9,1.9,0,0,1,1.9,1.9A1.9,1.9,0,0,1,22.683,1.9Z" transform="translate(0 32.305)" fill="#c9c9c9"/><path d="M22.683,1.9H0A1.9,1.9,0,0,1-1.9,0,1.9,1.9,0,0,1,0-1.9H22.683a1.9,1.9,0,0,1,1.9,1.9A1.9,1.9,0,0,1,22.683,1.9Z" transform="translate(0 24.231)" fill="#c9c9c9"/><path d="M22.683,1.9H0A1.9,1.9,0,0,1-1.9,0,1.9,1.9,0,0,1,0-1.9H22.683a1.9,1.9,0,0,1,1.9,1.9A1.9,1.9,0,0,1,22.683,1.9Z" transform="translate(0 16.152)" fill="#c9c9c9"/><path d="M22.683,1.9H0A1.9,1.9,0,0,1-1.9,0,1.9,1.9,0,0,1,0-1.9H22.683a1.9,1.9,0,0,1,1.9,1.9A1.9,1.9,0,0,1,22.683,1.9Z" transform="translate(0 8.079)" fill="#c9c9c9"/><path d="M22.683,1.9H0A1.9,1.9,0,0,1-1.9,0,1.9,1.9,0,0,1,0-1.9H22.683a1.9,1.9,0,0,1,1.9,1.9A1.9,1.9,0,0,1,22.683,1.9Z" fill="#c9c9c9"/></g><rect width="25.012" height="6.834" rx="3.417" transform="translate(150.278 198.182)" fill="#c9c9c9"/><rect width="22.787" height="6.834" rx="3.417" transform="translate(179.071 198.286)" fill="#c9c9c9"/></g></g><g transform="translate(211.074 1092.035)"><g transform="translate(0 0)"><g transform="translate(120.355)"><circle cx="20.697" cy="20.697" r="20.697" transform="translate(77.89 22.873)" fill="#fbb6b6"/><circle cx="12.254" cy="12.254" r="12.254" transform="translate(0 39.758)" fill="#fbb6b6"/><circle cx="21.961" cy="21.961" r="21.961" transform="translate(12.047 18.613)" fill="#fbb6b6"/><circle cx="32.131" cy="32.131" r="32.131" transform="translate(29.979)" fill="#fbb6b6"/><path d="M369.693,113.3H281.85V94.75h88.19Z" transform="translate(-269.803 -49.039)" fill="#fbb6b6"/></g><g transform="translate(191.469 38.378)"><path d="M415.5,79.55H557.9a4.826,4.826,0,0,1,4.824,4.824v95.176a9.652,9.652,0,0,1-9.649,9.649H420.329a9.652,9.652,0,0,1-9.649-9.649V84.374A4.826,4.826,0,0,1,415.5,79.55Z" transform="translate(-410.68 -79.55)" fill="#fff"/><path d="M415.5,79.3H557.9a5.08,5.08,0,0,1,5.074,5.074v95.176a9.91,9.91,0,0,1-9.9,9.9H420.329a9.91,9.91,0,0,1-9.9-9.9V84.374A5.08,5.08,0,0,1,415.5,79.3ZM553.073,188.949a9.409,9.409,0,0,0,9.4-9.4V84.374A4.58,4.58,0,0,0,557.9,79.8H415.5a4.58,4.58,0,0,0-4.574,4.574v95.176a9.409,9.409,0,0,0,9.4,9.4Z" transform="translate(-410.68 -79.55)" fill="#f3f3f3"/><g transform="translate(22.766 33.424)"><path d="M41.331,3.39H0A3.39,3.39,0,0,1-3.39,0,3.39,3.39,0,0,1,0-3.39H41.331A3.39,3.39,0,0,1,44.721,0,3.39,3.39,0,0,1,41.331,3.39Z" transform="translate(27.195)" fill="#c9c9c9"/><path d="M14.782,3.39H0A3.39,3.39,0,0,1-3.39,0,3.39,3.39,0,0,1,0-3.39H14.782A3.39,3.39,0,0,1,18.172,0,3.39,3.39,0,0,1,14.782,3.39Z" fill="#c9c9c9"/><path d="M45.8,3.39H0A3.39,3.39,0,0,1-3.39,0,3.39,3.39,0,0,1,0-3.39H45.8A3.39,3.39,0,0,1,49.193,0,3.39,3.39,0,0,1,45.8,3.39Z" transform="translate(0 11.94)" fill="#c9c9c9"/><path d="M15.689,3.39H0A3.39,3.39,0,0,1-3.39,0,3.39,3.39,0,0,1,0-3.39H15.689A3.39,3.39,0,0,1,19.079,0,3.39,3.39,0,0,1,15.689,3.39Z" transform="translate(14.473 23.881)" fill="#c9c9c9"/><path d="M51,3.39H0A3.39,3.39,0,0,1-3.39,0,3.39,3.39,0,0,1,0-3.39H51A3.39,3.39,0,0,1,54.394,0,3.39,3.39,0,0,1,51,3.39Z" transform="translate(14.473 35.816)" fill="#c9c9c9"/><path d="M34.581,3.39H0A3.39,3.39,0,0,1-3.39,0,3.39,3.39,0,0,1,0-3.39H34.581A3.39,3.39,0,0,1,37.971,0,3.39,3.39,0,0,1,34.581,3.39Z" transform="translate(14.473 47.757)" fill="#c9c9c9"/><path d="M51,3.39H0A3.39,3.39,0,0,1-3.39,0,3.39,3.39,0,0,1,0-3.39H51A3.39,3.39,0,0,1,54.394,0,3.39,3.39,0,0,1,51,3.39Z" transform="translate(0 59.697)" fill="#c9c9c9"/></g><path d="M415.5,79.55H557.9a4.826,4.826,0,0,1,4.824,4.824V97.733H410.68V84.374A4.826,4.826,0,0,1,415.5,79.55Z" transform="translate(-410.68 -79.55)"/><path d="M703.68,97.614a2.412,2.412,0,1,0-2.412-2.412,2.438,2.438,0,0,0,2.412,2.412Z" transform="translate(-561.075 -86.402)" fill="#c9c9c9"/></g><g transform="translate(191.469 38.378)"><path d="M415.5,79.55H557.9a4.826,4.826,0,0,1,4.824,4.824v95.176a9.652,9.652,0,0,1-9.649,9.649H420.329a9.652,9.652,0,0,1-9.649-9.649V84.374A4.826,4.826,0,0,1,415.5,79.55Z" transform="translate(-410.68 -79.55)" fill="#2e2e2e"/><g transform="translate(22.766 33.424)"><path d="M41.331,3.39H0A3.39,3.39,0,0,1-3.39,0,3.39,3.39,0,0,1,0-3.39H41.331A3.39,3.39,0,0,1,44.721,0,3.39,3.39,0,0,1,41.331,3.39Z" transform="translate(27.195)" fill="#c9c9c9"/><path d="M14.782,3.39H0A3.39,3.39,0,0,1-3.39,0,3.39,3.39,0,0,1,0-3.39H14.782A3.39,3.39,0,0,1,18.172,0,3.39,3.39,0,0,1,14.782,3.39Z" fill="#c9c9c9"/><path d="M45.8,3.39H0A3.39,3.39,0,0,1-3.39,0,3.39,3.39,0,0,1,0-3.39H45.8A3.39,3.39,0,0,1,49.193,0,3.39,3.39,0,0,1,45.8,3.39Z" transform="translate(0 11.94)" fill="#c9c9c9"/><path d="M15.689,3.39H0A3.39,3.39,0,0,1-3.39,0,3.39,3.39,0,0,1,0-3.39H15.689A3.39,3.39,0,0,1,19.079,0,3.39,3.39,0,0,1,15.689,3.39Z" transform="translate(14.473 23.881)" fill="#c9c9c9"/><path d="M51,3.39H0A3.39,3.39,0,0,1-3.39,0,3.39,3.39,0,0,1,0-3.39H51A3.39,3.39,0,0,1,54.394,0,3.39,3.39,0,0,1,51,3.39Z" transform="translate(14.473 35.816)" fill="#c9c9c9"/><path d="M34.581,3.39H0A3.39,3.39,0,0,1-3.39,0,3.39,3.39,0,0,1,0-3.39H34.581A3.39,3.39,0,0,1,37.971,0,3.39,3.39,0,0,1,34.581,3.39Z" transform="translate(14.473 47.757)" fill="#c9c9c9"/><path d="M51,3.39H0A3.39,3.39,0,0,1-3.39,0,3.39,3.39,0,0,1,0-3.39H51A3.39,3.39,0,0,1,54.394,0,3.39,3.39,0,0,1,51,3.39Z" transform="translate(0 59.697)" fill="#c9c9c9"/></g><path d="M415.5,79.55H557.9a4.826,4.826,0,0,1,4.824,4.824V97.733H410.68V84.374A4.826,4.826,0,0,1,415.5,79.55Z" transform="translate(-410.68 -79.55)" fill="#f3f3f3"/><path d="M703.68,97.614a2.412,2.412,0,1,0-2.412-2.412,2.438,2.438,0,0,0,2.412,2.412Z" transform="translate(-561.075 -86.402)" fill="#2e2e2e"/></g><g transform="translate(32.193 85.453)"><rect width="193.999" height="268.616" rx="10" transform="translate(268.616 8.602) rotate(90)" fill="#f56c6c"/><g transform="translate(8.858)" clip-path="url(#c)"><rect width="193.999" height="268.616" rx="10" transform="translate(268.371 0) rotate(90)" fill="#fff"/><path d="M10-.25H184A10.262,10.262,0,0,1,194.249,10V258.616A10.262,10.262,0,0,1,184,268.866H10A10.262,10.262,0,0,1-.25,258.616V10A10.262,10.262,0,0,1,10-.25ZM184,268.366a9.761,9.761,0,0,0,9.75-9.75V10A9.761,9.761,0,0,0,184,.25H10A9.761,9.761,0,0,0,.25,10V258.616a9.761,9.761,0,0,0,9.75,9.75Z" transform="translate(268.371 0) rotate(90)" fill="#d2d2d2"/><rect width="188.613" height="32.362" rx="10" transform="translate(61.812 144.713)" fill="#f3f3f3"/><rect width="187.192" height="70.229" rx="12.19" transform="translate(62.584 62.274)" fill="#f3f3f3"/><rect width="222.104" height="22.39" transform="translate(46.267 26.148)" fill="#f3f3f3"/><g transform="translate(60.075 34.451)" style="isolation:isolate"><path d="M212.7,259.952a2.625,2.625,0,0,1,2.6-2.7,2.547,2.547,0,0,1,1.93.859l-.372.4a2.037,2.037,0,0,0-1.558-.733,2.186,2.186,0,0,0,0,4.361,2.037,2.037,0,0,0,1.558-.733l.372.4a2.528,2.528,0,0,1-1.93.864,2.625,2.625,0,0,1-2.6-2.7Z" transform="translate(-212.7 -257.033)" fill="#151515"/><path d="M224.27,260.643h.532v.748a1.077,1.077,0,0,1,.993-.81.954.954,0,0,1,.334.053v.492a1.262,1.262,0,0,0-.372-.068,1.02,1.02,0,0,0-.956.743v2.494h-.532v-3.652Z" transform="translate(-218.823 -258.756)" fill="#151515"/><path d="M228.92,262.476a1.76,1.76,0,0,1,1.681-1.886,1.7,1.7,0,0,1,1.638,1.843v.164h-2.8a1.318,1.318,0,0,0,1.271,1.3,1.418,1.418,0,0,0,.979-.376l.334.367a2.064,2.064,0,0,1-1.337.487,1.807,1.807,0,0,1-1.77-1.9Zm2.792-.27a1.191,1.191,0,0,0-1.116-1.148,1.211,1.211,0,0,0-1.139,1.148Z" transform="translate(-221.284 -258.762)" fill="#151515"/><path d="M237.339,263.248c0-.651.532-1.085,1.337-1.085a2.039,2.039,0,0,1,1.087.285v-.5a.814.814,0,0,0-.923-.907,2.32,2.32,0,0,0-1.083.314l-.2-.42a2.977,2.977,0,0,1,1.346-.352,1.207,1.207,0,0,1,1.379,1.288v2.427h-.527v-.425a1.516,1.516,0,0,1-1.135.492,1.164,1.164,0,0,1-1.295-1.114Zm1.4.695a1.393,1.393,0,0,0,1.022-.42v-.7a1.862,1.862,0,0,0-1.007-.261c-.546,0-.9.27-.9.675C237.853,263.658,238.21,263.943,238.742,263.943Z" transform="translate(-225.735 -258.756)" fill="#151515"/><path d="M245.759,262.336v-2.388h-.739V259.5h.739v-1l.532-.125V259.5h1.022v.449h-1.022V262.2c0,.391.146.545.518.545a1.292,1.292,0,0,0,.5-.1v.487a1.946,1.946,0,0,1-.621.1.819.819,0,0,1-.937-.893Z" transform="translate(-229.805 -257.613)" fill="#151515"/><path d="M251.06,262.476a1.76,1.76,0,0,1,1.681-1.886,1.7,1.7,0,0,1,1.638,1.843v.164h-2.8a1.318,1.318,0,0,0,1.271,1.3,1.418,1.418,0,0,0,.979-.376l.334.367a2.064,2.064,0,0,1-1.337.487,1.807,1.807,0,0,1-1.77-1.9Zm2.792-.27a1.191,1.191,0,0,0-1.116-1.148,1.211,1.211,0,0,0-1.139,1.148Z" transform="translate(-233.001 -258.762)" fill="#151515"/><path d="M263.249,263.248c0-.651.532-1.085,1.337-1.085a2.039,2.039,0,0,1,1.087.285v-.5a.814.814,0,0,0-.923-.907,2.32,2.32,0,0,0-1.083.314l-.2-.42a2.977,2.977,0,0,1,1.346-.352,1.207,1.207,0,0,1,1.379,1.288v2.427h-.527v-.425a1.516,1.516,0,0,1-1.135.492,1.164,1.164,0,0,1-1.295-1.114Zm1.4.695a1.393,1.393,0,0,0,1.022-.42v-.7a1.862,1.862,0,0,0-1.008-.261c-.546,0-.9.27-.9.675C263.763,263.658,264.12,263.943,264.652,263.943Z" transform="translate(-239.447 -258.756)" fill="#151515"/><path d="M271.83,260.648h.532v.593a1.279,1.279,0,0,1,1.135-.651,1.257,1.257,0,0,1,1.295,1.346V264.3h-.532v-2.21a.936.936,0,0,0-.956-1.047,1.047,1.047,0,0,0-.937.56v2.7h-.532v-3.652Z" transform="translate(-243.993 -258.762)" fill="#151515"/><path d="M283.74,259.952a2.547,2.547,0,1,1,2.542,2.7A2.606,2.606,0,0,1,283.74,259.952Zm4.515,0a1.982,1.982,0,1,0-1.973,2.181A2.057,2.057,0,0,0,288.255,259.952Z" transform="translate(-250.297 -257.033)" fill="#151515"/><path d="M296.6,260.663h.527v.526a1.39,1.39,0,0,1,1.153-.569,1.889,1.889,0,0,1-.028,3.749,1.426,1.426,0,0,1-1.116-.507v2.021H296.6v-5.22Zm2.8,1.833a1.3,1.3,0,0,0-1.247-1.4,1.206,1.206,0,0,0-1.017.5v1.79a1.241,1.241,0,0,0,1.017.507A1.3,1.3,0,0,0,299.4,262.5Z" transform="translate(-257.103 -258.777)" fill="#151515"/><path d="M305.31,262.476a1.76,1.76,0,0,1,1.681-1.886,1.7,1.7,0,0,1,1.638,1.843v.164h-2.8a1.318,1.318,0,0,0,1.271,1.3,1.418,1.418,0,0,0,.979-.376l.334.367a2.064,2.064,0,0,1-1.337.487,1.807,1.807,0,0,1-1.77-1.9Zm2.792-.27a1.191,1.191,0,0,0-1.116-1.148,1.211,1.211,0,0,0-1.139,1.148Z" transform="translate(-261.712 -258.762)" fill="#151515"/><path d="M314.29,260.648h.532v.593a1.279,1.279,0,0,1,1.135-.651,1.257,1.257,0,0,1,1.295,1.346V264.3h-.532v-2.21a.937.937,0,0,0-.956-1.047,1.047,1.047,0,0,0-.937.56v2.7h-.532v-3.652Z" transform="translate(-266.465 -258.762)" fill="#151515"/><path d="M322.13,261.771l.344-.42a2.342,2.342,0,0,0,1.765.815c.791,0,1.365-.449,1.365-1.061,0-.526-.306-.772-1.139-.921l-.824-.14c-.937-.174-1.351-.569-1.351-1.274a1.573,1.573,0,0,1,1.751-1.51,3.285,3.285,0,0,1,2.024.666l-.292.449a2.841,2.841,0,0,0-1.723-.627c-.716,0-1.219.42-1.219.965,0,.463.278.7.965.815l.819.14c1.087.2,1.554.622,1.554,1.409a1.739,1.739,0,0,1-1.944,1.587A2.9,2.9,0,0,1,322.13,261.771Z" transform="translate(-270.614 -257.038)" fill="#151515"/><path d="M332.54,256.961l.532-.111v2.456a1.279,1.279,0,0,1,1.135-.651A1.257,1.257,0,0,1,335.5,260v2.364h-.532v-2.21a.936.936,0,0,0-.956-1.047,1.047,1.047,0,0,0-.937.56v2.7h-.532v-5.4Z" transform="translate(-276.123 -256.826)" fill="#151515"/><path d="M340.84,257.611a.386.386,0,1,1,.386.391A.395.395,0,0,1,340.84,257.611Zm.118,1.293h.532v3.652h-.532Z" transform="translate(-280.516 -257.017)" fill="#151515"/><path d="M344.616,259.135h-.8v-.449h.8v-.762a.993.993,0,0,1,1.069-1.124,1.479,1.479,0,0,1,.48.068v.492a1.476,1.476,0,0,0-.433-.068c-.41,0-.584.2-.584.637v.757h1.017v.449h-1.017v3.2h-.532v-3.2Z" transform="translate(-282.093 -256.8)" fill="#151515"/><path d="M350.519,262.336v-2.388h-.739V259.5h.739v-1l.532-.125V259.5h1.022v.449h-1.022V262.2c0,.391.146.545.518.545a1.292,1.292,0,0,0,.5-.1v.487a1.946,1.946,0,0,1-.621.1.819.819,0,0,1-.937-.893Z" transform="translate(-285.247 -257.613)" fill="#151515"/><path d="M359.6,262.476a1.8,1.8,0,0,1,1.761-1.886,1.915,1.915,0,0,1,1.375.569l-.344.381a1.384,1.384,0,0,0-1.007-.458,1.4,1.4,0,0,0,0,2.789,1.384,1.384,0,0,0,1.007-.458l.344.381a1.907,1.907,0,0,1-1.375.569A1.8,1.8,0,0,1,359.6,262.476Z" transform="translate(-290.444 -258.762)" fill="#151515"/><path d="M367.84,256.961l.532-.111v5.519h-.532v-5.4Z" transform="translate(-294.805 -256.826)" fill="#151515"/><path d="M371.25,263.069V260.71h.541v2.2a.936.936,0,0,0,.951,1.057,1.052,1.052,0,0,0,.937-.555v-2.7h.532v3.652h-.532v-.593a1.3,1.3,0,0,1-2.429-.7Z" transform="translate(-296.61 -258.824)" fill="#151515"/><path d="M379.14,263.832l.287-.362a1.829,1.829,0,0,0,1.149.458c.518,0,.9-.275.9-.666,0-.3-.188-.458-.645-.545l-.584-.106c-.692-.125-1.007-.425-1.007-.96a1.144,1.144,0,0,1,1.285-1.071,2.256,2.256,0,0,1,1.361.458l-.264.381a1.859,1.859,0,0,0-1.116-.391c-.466,0-.777.222-.777.584,0,.3.155.444.612.526l.6.111c.716.135,1.036.444,1.036.979a1.259,1.259,0,0,1-1.389,1.139,2,2,0,0,1-1.445-.54Z" transform="translate(-300.785 -258.756)" fill="#151515"/><path d="M386.8,262.336v-2.388h-.739V259.5h.739v-1l.532-.125V259.5h1.022v.449h-1.022V262.2c0,.391.146.545.518.545a1.292,1.292,0,0,0,.5-.1v.487a1.947,1.947,0,0,1-.621.1.819.819,0,0,1-.937-.893Z" transform="translate(-304.448 -257.613)" fill="#151515"/><path d="M392.1,262.476a1.76,1.76,0,0,1,1.681-1.886,1.7,1.7,0,0,1,1.638,1.843v.164h-2.8a1.318,1.318,0,0,0,1.271,1.3,1.418,1.418,0,0,0,.979-.376l.334.367a2.064,2.064,0,0,1-1.337.487,1.807,1.807,0,0,1-1.77-1.9Zm2.792-.27a1.191,1.191,0,0,0-1.116-1.148,1.211,1.211,0,0,0-1.139,1.148Z" transform="translate(-307.644 -258.762)" fill="#151515"/><path d="M401.09,260.643h.532v.748a1.077,1.077,0,0,1,.993-.81.954.954,0,0,1,.334.053v.492a1.262,1.262,0,0,0-.372-.068,1.02,1.02,0,0,0-.956.743v2.494h-.532Z" transform="translate(-312.402 -258.756)" fill="#151515"/></g><path d="M85.448,218.09h45.537a.362.362,0,0,1,.358.367v177.5a.362.362,0,0,1-.358.367H89.8a4.769,4.769,0,0,1-4.708-4.824V218.457A.362.362,0,0,1,85.448,218.09Z" transform="translate(-85.09 -202.314)" fill="#2e2e2e"/><g transform="translate(11.75 34.524)"><path d="M23.8,2H0A2,2,0,0,1-2,0,2,2,0,0,1,0-2H23.8a2,2,0,0,1,2,2A2,2,0,0,1,23.8,2Z" transform="translate(0 65.308)" fill="#8b8b8b"/><path d="M23.8,2H0A2,2,0,0,1-2,0,2,2,0,0,1,0-2H23.8a2,2,0,0,1,2,2A2,2,0,0,1,23.8,2Z" transform="translate(0 52.533)" fill="#8b8b8b"/><path d="M23.8,2H0A2,2,0,0,1-2,0,2,2,0,0,1,0-2H23.8a2,2,0,0,1,2,2A2,2,0,0,1,23.8,2Z" transform="translate(0 39.763)" fill="#8b8b8b"/><path d="M23.8,2H0A2,2,0,0,1-2,0,2,2,0,0,1,0-2H23.8a2,2,0,0,1,2,2A2,2,0,0,1,23.8,2Z" transform="translate(0 26.409)" fill="#8b8b8b"/><path d="M23.8,2H0A2,2,0,0,1-2,0,2,2,0,0,1,0-2H23.8a2,2,0,0,1,2,2A2,2,0,0,1,23.8,2Z" transform="translate(0 13.05)" fill="#8b8b8b"/><path d="M23.8,2H0A2,2,0,0,1-2,0,2,2,0,0,1,0-2H23.8a2,2,0,0,1,2,2A2,2,0,0,1,23.8,2Z" fill="#8b8b8b"/></g><rect width="321.469" height="26.09" transform="translate(-24.409 0)"/><g transform="translate(31.546 7.613)"><path d="M214.9,210.955c0,.917.541,1.365,1.521,1.365a4.007,4.007,0,0,0,.894-.13v-1.066a1.818,1.818,0,0,1-.579.092c-.4,0-.555-.13-.555-.521v-1.635h1.172v-1.1h-1.172v-1.389l-1.28.285v1.1h-.852v1.1h.847v1.9Zm-4,.024c0-.285.278-.425.7-.425a3.119,3.119,0,0,1,.763.1v.555a1.559,1.559,0,0,1-.8.2c-.41,0-.659-.164-.659-.429m.391,1.356a1.948,1.948,0,0,0,1.158-.333v.261h1.266v-2.755c0-1.047-.687-1.621-1.841-1.621a4.58,4.58,0,0,0-1.963.473l.461.97a3.328,3.328,0,0,1,1.271-.343c.527,0,.8.212.8.642v.212a3.524,3.524,0,0,0-.951-.121c-1.078,0-1.728.463-1.728,1.293a1.368,1.368,0,0,0,1.521,1.332m-6.972-.072h1.365v-2.229h2.283v2.229h1.37v-5.693h-1.365v2.185h-2.283v-2.185h-1.365v5.693Zm-5.2-2.157a1.075,1.075,0,0,1,1.059-1.09h.042a1.277,1.277,0,0,1,.885.333v1.5a1.2,1.2,0,0,1-.885.343,1.079,1.079,0,0,1-1.1-1.057v-.034m2.005,2.157h1.271V206.29l-1.28.285v1.616a2.137,2.137,0,0,0-2.971.777,2.25,2.25,0,0,0,.758,3.044,2.177,2.177,0,0,0,1.1.314,1.889,1.889,0,0,0,1.125-.371v.318Zm-5.828-3.3a.922.922,0,0,1,.88.68h-1.751a.883.883,0,0,1,.871-.68m-2.161,1.158a2.229,2.229,0,0,0,2.231,2.229h.052a2.481,2.481,0,0,0,1.751-.651l-.847-.772a1.1,1.1,0,0,1-.843.323,1.088,1.088,0,0,1-1.031-.68h2.989v-.328a2.158,2.158,0,1,0-4.308-.174v.053m-2.213-2.35a.634.634,0,0,1,.7.564.643.643,0,0,1-.551.719.738.738,0,0,1-.146,0H189.57v-1.283h1.351Zm-2.716,4.5h1.365v-2.074h1.04l1.05,2.074h1.525l-1.219-2.277a1.716,1.716,0,0,0,1.045-1.6,1.825,1.825,0,0,0-1.963-1.814H188.2Z" transform="translate(-171.205 -203.82)" fill="#fff"/><path d="M161.68,207.586c.942,0,2.307-.2,2.307-1.351a1.263,1.263,0,0,0-.024-.265l-.56-2.5c-.132-.55-.245-.8-1.186-1.283a10.726,10.726,0,0,0-2.8-1.018c-.438,0-.565.579-1.092.579s-.876-.434-1.351-.434-.749.318-.975.965c0,0-.636,1.833-.716,2.1a.543.543,0,0,0-.019.15c0,.714,2.74,3.049,6.407,3.049m2.453-.878a3.985,3.985,0,0,1,.132.782c0,1.081-1.186,1.684-2.749,1.684-3.526,0-6.614-2.113-6.614-3.517a1.454,1.454,0,0,1,.113-.564c-1.271.063-2.909.3-2.909,1.78,0,2.431,5.626,5.432,10.079,5.432,3.413,0,4.275-1.582,4.275-2.832a3.413,3.413,0,0,0-2.326-2.764" transform="translate(-152.1 -201.17)" fill="#e00"/><path d="M167.282,210.156a3.986,3.986,0,0,1,.132.782c0,1.081-1.186,1.684-2.749,1.684-3.526,0-6.614-2.113-6.614-3.517a1.454,1.454,0,0,1,.113-.564l.278-.7a.509.509,0,0,0-.019.145c0,.714,2.74,3.049,6.407,3.049.942,0,2.307-.2,2.307-1.351a1.265,1.265,0,0,0-.024-.265l.169.733Z" transform="translate(-155.249 -204.622)"/></g><g transform="translate(11.783 7.729)"><path d="M12.334,2H0A2,2,0,0,1-2,0,2,2,0,0,1,0-2H12.334a2,2,0,0,1,2,2A2,2,0,0,1,12.334,2Z" transform="translate(0 9.885)" fill="#c9c9c9"/><path d="M12.334,2H0A2,2,0,0,1-2,0,2,2,0,0,1,0-2H12.334a2,2,0,0,1,2,2A2,2,0,0,1,12.334,2Z" transform="translate(0 5.056)" fill="#c9c9c9"/><path d="M12.334,2H0A2,2,0,0,1-2,0,2,2,0,0,1,0-2H12.334a2,2,0,0,1,2,2A2,2,0,0,1,12.334,2Z" fill="#c9c9c9"/></g></g></g><g transform="translate(0 198.629)"><g style="isolation:isolate"><g transform="translate(64.189 94.708)"><path d="M178.53,635.092l-22.588,13.122L133.2,635.082l22.588-13.122Z" transform="translate(-133.128 -621.96)" fill="#fddbdc"/><path d="M202.855,649.18l-.072,27.108L180.2,689.411l.068-27.108Z" transform="translate(-157.453 -636.048)" fill="#fbb6b6"/><path d="M155.865,662.292,155.8,689.4,133.05,676.268l.072-27.108Z" transform="translate(-133.05 -636.038)" fill="#f56c6c"/></g><g transform="translate(0 58.858)" style="isolation:isolate"><path d="M45.48,560.782,22.892,573.909.15,560.777,22.733,547.65Z" transform="translate(-0.078 -547.65)" fill="#fddbdc"/><path d="M69.8,574.87l-.072,27.108L47.14,615.1l.072-27.1Z" transform="translate(-24.398 -561.738)" fill="#fbb6b6"/><path d="M22.815,587.992l-.072,27.1L0,601.968.072,574.86Z" transform="translate(0 -561.733)" fill="#f56c6c"/></g><g transform="translate(24.122)" style="isolation:isolate"><path d="M95.48,438.782,72.892,451.909,50.15,438.777,72.733,425.65Z" transform="translate(-50.078 -425.65)" fill="#fddbdc"/><path d="M119.8,452.87l-.072,27.108L97.14,493.1l.072-27.1Z" transform="translate(-74.398 -439.738)" fill="#fbb6b6"/><path d="M72.815,465.992l-.072,27.1L50,479.968l.072-27.108Z" transform="translate(-50 -439.733)" fill="#f56c6c"/></g></g></g><rect width="51.086" height="29.55" rx="3.45" transform="translate(149.783 158.778)" fill="#fff"/><path d="M3.45-.53H47.636a3.985,3.985,0,0,1,3.98,3.98V26.1a3.985,3.985,0,0,1-3.98,3.98H3.45A3.985,3.985,0,0,1-.53,26.1V3.45A3.985,3.985,0,0,1,3.45-.53ZM47.636,29.02a2.923,2.923,0,0,0,2.92-2.92V3.45A2.923,2.923,0,0,0,47.636.53H3.45A2.923,2.923,0,0,0,.53,3.45V26.1a2.923,2.923,0,0,0,2.92,2.92Z" transform="translate(149.783 158.778)" fill="#efefef"/><g transform="translate(165.689 167.79)"><path d="M356.786,358.958a1.815,1.815,0,0,0,.072.569,3.664,3.664,0,0,0,.207.463.264.264,0,0,1,.043.15.257.257,0,0,1-.121.193l-.405.27a.309.309,0,0,1-.169.058.3.3,0,0,1-.193-.092,1.689,1.689,0,0,1-.232-.3c-.063-.111-.13-.232-.2-.376a2.379,2.379,0,0,1-1.886.888,1.752,1.752,0,0,1-1.283-.463,1.811,1.811,0,0,1,.111-2.552,2.34,2.34,0,0,1,1.573-.5,4.83,4.83,0,0,1,.68.053c.236.034.482.082.738.14v-.468a1.406,1.406,0,0,0-.3-1.028,1.484,1.484,0,0,0-1.047-.294,2.931,2.931,0,0,0-.695.082,5.533,5.533,0,0,0-.695.217,1.367,1.367,0,0,1-.227.082.327.327,0,0,1-.1.019c-.092,0-.135-.063-.135-.2v-.314a.459.459,0,0,1,.043-.227.429.429,0,0,1,.178-.135,3.673,3.673,0,0,1,.811-.289,3.944,3.944,0,0,1,1-.121,2.354,2.354,0,0,1,1.684.521,2.127,2.127,0,0,1,.531,1.578v2.079h.014Zm-2.605.975a2.075,2.075,0,0,0,.661-.116,1.42,1.42,0,0,0,.608-.41,1.021,1.021,0,0,0,.217-.41,2.3,2.3,0,0,0,.063-.56v-.27c-.188-.043-.386-.082-.589-.111a4.266,4.266,0,0,0-.6-.039,1.476,1.476,0,0,0-.955.256.916.916,0,0,0,.6,1.655Zm5.152.695a.377.377,0,0,1-.246-.063.519.519,0,0,1-.135-.251l-1.51-4.96a1.157,1.157,0,0,1-.058-.256.141.141,0,0,1,.154-.159h.627a.366.366,0,0,1,.251.063.52.52,0,0,1,.13.251l1.076,4.25,1-4.25a.48.48,0,0,1,.121-.251.442.442,0,0,1,.256-.063h.511a.389.389,0,0,1,.256.063.42.42,0,0,1,.121.251l1.013,4.3,1.11-4.3a.513.513,0,0,1,.13-.251.424.424,0,0,1,.251-.063h.6a.143.143,0,0,1,.159.159.4.4,0,0,1-.014.1.809.809,0,0,1-.043.159l-1.549,4.96a.475.475,0,0,1-.135.251.418.418,0,0,1-.246.063h-.55a.389.389,0,0,1-.256-.063.467.467,0,0,1-.121-.256l-.994-4.139-.989,4.135a.522.522,0,0,1-.121.256.407.407,0,0,1-.256.063h-.55Zm8.245.174a4.264,4.264,0,0,1-.989-.116,2.919,2.919,0,0,1-.738-.256.456.456,0,0,1-.2-.178.475.475,0,0,1-.039-.178v-.328c0-.135.053-.2.15-.2a.324.324,0,0,1,.116.019l.159.063a3.544,3.544,0,0,0,.7.227,3.718,3.718,0,0,0,.762.077,1.734,1.734,0,0,0,.936-.212.691.691,0,0,0,.333-.608.623.623,0,0,0-.174-.449,1.609,1.609,0,0,0-.646-.333l-.931-.289a1.973,1.973,0,0,1-1.028-.656,1.537,1.537,0,0,1-.323-.931,1.436,1.436,0,0,1,.174-.714,1.615,1.615,0,0,1,.463-.526,2.008,2.008,0,0,1,.666-.333,2.789,2.789,0,0,1,.81-.111,3.2,3.2,0,0,1,.429.024c.15.019.285.043.415.072s.251.063.367.1a1.36,1.36,0,0,1,.27.116.556.556,0,0,1,.193.159.347.347,0,0,1,.058.212v.3c0,.135-.053.207-.15.207a.644.644,0,0,1-.246-.077,2.906,2.906,0,0,0-1.23-.251,1.667,1.667,0,0,0-.854.178.622.622,0,0,0-.3.569.6.6,0,0,0,.193.453,1.92,1.92,0,0,0,.7.352l.912.289a1.939,1.939,0,0,1,.994.618,1.462,1.462,0,0,1,.294.9,1.62,1.62,0,0,1-.169.743,1.757,1.757,0,0,1-.468.564,2.026,2.026,0,0,1-.714.357,2.989,2.989,0,0,1-.917.135Z" transform="translate(-351.351 -354.77)" fill="#252f3e"/><g transform="translate(0 7.187)"><path d="M367.937,372.04a13.85,13.85,0,0,1-7.816,2.388,14.135,14.135,0,0,1-9.543-3.638c-.2-.178-.019-.425.217-.285a19.258,19.258,0,0,0,9.548,2.533,19.014,19.014,0,0,0,7.285-1.491c.352-.159.656.232.309.487Z" transform="translate(-350.494 -370.079)" fill="#f90" fill-rule="evenodd"/><path d="M385.633,370.623c-.27-.347-1.785-.169-2.47-.082-.207.024-.236-.154-.053-.289a3.816,3.816,0,0,1,3.42-.323,3.764,3.764,0,0,1-1.192,3.223c-.174.15-.338.072-.265-.121.256-.637.83-2.065.56-2.407Z" transform="translate(-367.311 -369.666)" fill="#f90" fill-rule="evenodd"/></g></g><g transform="translate(112.804 160.683)"><path d="M23.123,1.9H0A1.9,1.9,0,0,1-1.9,0,1.9,1.9,0,0,1,0-1.9H23.123a1.9,1.9,0,0,1,1.9,1.9A1.9,1.9,0,0,1,23.123,1.9Z" transform="translate(0 41.167)" fill="#c9c9c9"/><path d="M23.123,1.9H0A1.9,1.9,0,0,1-1.9,0,1.9,1.9,0,0,1,0-1.9H23.123a1.9,1.9,0,0,1,1.9,1.9A1.9,1.9,0,0,1,23.123,1.9Z" transform="translate(0 32.931)" fill="#c9c9c9"/><path d="M23.123,1.9H0A1.9,1.9,0,0,1-1.9,0,1.9,1.9,0,0,1,0-1.9H23.123a1.9,1.9,0,0,1,1.9,1.9A1.9,1.9,0,0,1,23.123,1.9Z" transform="translate(0 24.701)" fill="#c9c9c9"/><path d="M23.123,1.9H0A1.9,1.9,0,0,1-1.9,0,1.9,1.9,0,0,1,0-1.9H23.123a1.9,1.9,0,0,1,1.9,1.9A1.9,1.9,0,0,1,23.123,1.9Z" transform="translate(0 16.466)" fill="#c9c9c9"/><path d="M23.123,1.9H0A1.9,1.9,0,0,1-1.9,0,1.9,1.9,0,0,1,0-1.9H23.123a1.9,1.9,0,0,1,1.9,1.9A1.9,1.9,0,0,1,23.123,1.9Z" transform="translate(0 8.235)" fill="#c9c9c9"/><path d="M23.123,1.9H0A1.9,1.9,0,0,1-1.9,0,1.9,1.9,0,0,1,0-1.9H23.123a1.9,1.9,0,0,1,1.9,1.9A1.9,1.9,0,0,1,23.123,1.9Z" fill="#c9c9c9"/></g><rect width="25.497" height="6.966" rx="3.483" transform="translate(150.052 198.107)" fill="#c9c9c9"/><rect width="23.23" height="6.966" rx="3.483" transform="translate(178.827 198.211)" fill="#c9c9c9"/></g></g></g></svg>