<svg xmlns="http://www.w3.org/2000/svg" xml:space="preserve" style="enable-background:new 0 0 1031.3 262" viewBox="0 0 1031.3 262"><path d="M138.8 213.4c-.7 2.8-2 6.9-4 12.1s-5.1 10.5-9.3 15.8-10 9.9-17.3 13.8c-7.3 3.9-16.7 6-28.2 6-8.8 0-17.9-1.5-27.3-4.6-9.5-3.1-18.1-8-26-14.8S12.4 226 7.4 215 0 190.4 0 174.3c0-12.5 2.1-24.2 6.4-34.9 4.3-10.8 10-20.1 17.3-28s15.8-14.1 25.6-18.6 20.2-6.7 31.3-6.7c6.2 0 12.6.8 19.2 2.5s12.6 4.2 18 7.7 9.9 7.9 13.5 13.4c3.6 5.5 5.4 12.2 5.4 20.2 0 5.4-1.6 9.8-4.7 13.2s-7.6 5.2-13.3 5.2c-3.9 0-7.7-1-11.2-2.9s-5.4-5.2-5.4-9.8c0-3.6.8-7.9 2.4-13.1 1.6-5.1 2.4-9.3 2.4-12.7 0-5.9-2.7-10.4-8-13.6s-11.4-4.8-18.3-4.8c-5.1 0-10.3.7-15.8 2.1-5.4 1.4-10.4 4.9-14.9 10.6-4.5 5.6-8.2 14.1-11.1 25.4s-4.3 26.6-4.3 46.1c0 11 .6 21.4 1.9 31.1s3.6 18.2 6.9 25.5 8 13.1 13.8 17.3c5.9 4.2 13.6 6.3 23 6.3 10.2 0 18.5-1.7 25.1-5s11.8-7.4 15.6-12.1 6.6-9.5 8.5-14.4c1.9-4.9 3.2-8.8 4.1-11.9l5.4 1zm64.4-193c0 5.6-1.8 10.4-5.4 14.4s-7.9 6-13 6-9.4-2-13-6-5.4-8.8-5.4-14.4S168.2 10 171.8 6s7.9-5.9 13-5.9 9.4 2 13 5.9 5.4 8.7 5.4 14.4zm21.6 230.3v5.4h-82.9v-5.4h26.8V91h56.1v5.4H198v154.2l26.8.1zm31.1-230.3c0-5.6 1.8-10.4 5.4-14.4s7.9-5.9 13-5.9 9.4 2 13 5.9c3.6 4 5.4 8.8 5.4 14.4s-1.8 10.4-5.4 14.4-7.9 6-13 6-9.4-2-13-6-5.4-8.8-5.4-14.4zm-22 230.3h26.8V96.4h-26.8V91H290v159.6h26.8v5.4h-82.9v-5.3zM316.8 91c27-2.6 47.7-21.7 56.1-40.1V91h51.2v5.4h-51.2V222c0 7.2.6 13 1.9 17.5 1.2 4.5 2.9 7.9 4.9 10.4 2 2.4 4.2 4 6.6 4.8s4.7 1.1 7 1.1c7.9 0 14.3-3.3 19.2-9.8s8-14 9.4-22.5l4.8 1.9c-.8 3.8-1.8 7.5-3.1 11.1-1.4 4.1-3.5 8-6.3 11.7s-6.5 6.8-11.1 9.2c-4.5 2.4-10.2 3.6-17 3.6-17 0-28.9-3.7-35.6-11.1s-10-17.9-10-31.5v-122h-26.8V91zm121.9 159.7h26.8V96.4h-26.8V91h56.1v159.6h26.8v5.4h-82.9v-5.3zM552.4 91h109.8l-86.3 159.6h49.4c6.5 0 11.8-1.4 16-4.3s7.5-6.5 10.1-10.8c2.6-4.4 4.6-9.1 6-14l4.2-14.2h3.2l-4.4 48.7H539.8l86.3-159.6h-29.7c-5.8 0-10.9.2-15.2.6s-8.2 1.7-11.7 4.1c-3.5 2.3-6.7 6.1-9.8 11.2-3 5.2-6.3 12.5-9.8 22h-2.6l5.1-43.3zm236.8 64.4c.5-3.6.7-6.9.7-10v-9.6c0-8.7-.8-15.9-2.2-21.5-1.5-5.6-3.6-10.1-6.2-13.4-2.7-3.3-5.9-5.7-9.7-7.1s-7.9-2.1-12.3-2.1c-7.8 0-14.3 1.7-19.4 5.2s-9.1 8.1-12.1 14-5.2 12.7-6.8 20.4c-1.5 7.7-2.5 15.7-2.9 24.2l70.9-.1zm-70.9 6c0 2.6-.1 5.2-.2 7.9-.1 3.4-.2 6.8-.2 10.2 0 8.4.5 17.3 1.4 26.5s2.9 17.5 6.1 25c3.1 7.4 7.7 13.6 13.8 18.4 6.1 4.9 14.2 7.3 24.4 7.3s18.5-1.7 25.1-5 11.8-7.4 15.6-12.1 6.6-9.5 8.5-14.4 3.2-8.8 4.2-11.9l5.2 1.1c-.7 2.8-2 6.9-4 12.1s-5.1 10.5-9.3 15.8c-4.3 5.2-10 9.9-17.3 13.8-7.3 3.9-16.7 6-28.2 6s-22.2-2-32-6.1-18.3-10-25.4-17.7c-7.2-7.7-12.7-16.8-16.6-27.5-3.9-10.6-5.9-22.5-5.9-35.5 0-11.3 2-22.2 6.1-32.8 4-10.6 9.6-20 16.6-28.2 6.9-8.1 15.3-14.8 24.8-19.8s19.6-7.5 30.5-7.5c6.5 0 13.4 1.3 20.8 3.8 7.4 2.6 14.2 6.7 20.6 12.5 6.3 5.8 11.7 13.4 15.9 22.8 4.3 9.5 6.4 21.3 6.4 35.3H718.3zm120.3 89.3H863V96.4h-26.8V91h56.1v40.6h.7c1.4-3.3 3.4-7.6 6.1-12.8s6.3-10.2 10.9-15.1 10.4-9.1 17.4-12.6c6.9-3.5 15.4-5.2 25.3-5.2 15.3 0 27.7 4.1 37.3 12.4 9.6 8.2 14.4 21.4 14.4 39.4v112.9h26.8v5.4h-82.9v-5.4h26.8v-124c0-10-2.1-18.2-6.3-24.6s-10.8-9.6-19.7-9.6c-7.3 0-14.3 1.8-20.9 5.4s-12.4 8.6-17.5 15c-5 6.4-9 14-11.8 22.7-2.9 8.7-4.3 18.2-4.3 28.4v86.8h26.8v5.4h-82.9l.1-5.4z" style="fill-rule:evenodd;clip-rule:evenodd;fill:#fff"/></svg>