<svg xmlns="http://www.w3.org/2000/svg" xml:space="preserve" id="Layer_1" x="0" y="0" style="enable-background:new 0 0 1101.6 196.8" version="1.1" viewBox="0 0 1101.6 196.8"><style>.st0{fill:#fff}</style><path d="M222.3 54.9c-40 0-71.3 30.4-71.3 71.1s30.5 70.8 71.3 70.8 71.8-30.6 71.8-71.1-30.4-70.8-71.8-70.8zm.3 112.6c-22.8 0-39.5-17.7-39.5-41.5s16.4-41.7 39.2-41.7 39.8 18 39.8 41.7-16.7 41.5-39.5 41.5zm80.3-81.7h19.9v108.3h31.8V57.6h-51.7v28.2zM71 84.3c16.7 0 30 10.3 35 25.6h33.7C133.6 77.1 106.5 55 71.3 55 31.3 55 0 85.3 0 126s30.5 70.8 71.3 70.8c34.5 0 62-22.2 68.1-55.2H106c-4.8 15.3-18 25.9-34.7 25.9-23.1 0-39.2-17.7-39.2-41.5 0-24 15.9-41.7 38.9-41.7zm836.1 28.5-23.3-3.4c-11.1-1.6-19.1-5.3-19.1-14 0-9.5 10.3-14.3 24.4-14.3 15.4 0 25.2 6.6 27.3 17.4h30.7C943.7 71.1 922.5 55 889.9 55S834 72.1 834 96.4s14.6 36.7 44 40.9l23.3 3.4c11.4 1.6 17.8 6.1 17.8 14.5 0 10.8-11.1 15.3-26.5 15.3-18.8 0-29.4-7.7-31-19.3h-31.3c2.9 26.7 23.8 45.4 62 45.4 34.7 0 57.8-15.9 57.8-43.1-.1-24.1-16.7-36.7-43-40.7z" class="st0"/><ellipse cx="338.7" cy="21.4" class="st0" rx="20.4" ry="20.1"/><path d="M805.4 165.9v-61.6c0-29.6-18-49.4-56.2-49.4-36 0-56.2 18.2-60.2 46.2h31.5c1.6-10.8 10.1-19.8 28.1-19.8 16.2 0 24.1 7.1 24.1 15.8 0 11.4-14.6 14.3-32.6 16.1-24.4 2.6-54.6 11.1-54.6 42.8 0 24.6 18.3 40.4 47.4 40.4 22.8 0 37.1-9.5 44.3-24.6 1.1 13.5 11.1 22.2 25.2 22.2H821v-28.3h-15.6v.2zm-31.3-27.2c0 18.2-15.9 31.7-35.2 31.7-11.9 0-22-5-22-15.6 0-13.5 16.2-17.2 31-18.8 14.3-1.3 22.3-4.5 26.2-10.6v13.3zM605.3 54.9c-17.8 0-32.6 7.4-43.2 19.8V0h-31.8v194.1h31.3v-18c10.6 12.9 25.7 20.6 43.7 20.6 38.2 0 67-30.1 67-70.8s-29.4-71-67-71zm-4.8 112.6c-22.8 0-39.5-17.7-39.5-41.5s17-41.7 39.8-41.7S640 102 640 126s-16.7 41.5-39.5 41.5zM454.2 54.9c-20.7 0-34.2 8.5-42.1 20.3V57.6h-31.5v136.6h31.8V120c0-20.9 13.2-35.7 32.9-35.7 18.3 0 29.7 12.9 29.7 31.7v78.2h31.8v-80.6c-.1-34.4-17.9-58.7-52.6-58.7zm580.4.1c-40.8 0-70.8 30.6-70.8 71.1 0 42.5 32.1 70.8 71.3 70.8 33.1 0 59.1-19.6 65.7-47.3h-33.1c-4.8 12.1-16.4 19-32.1 19-20.4 0-35.8-12.7-39.2-34.9h105.2v-12.2c0-39.1-28.6-66.5-67-66.5zm-36.3 55.9c5-19 19.3-28.3 35.8-28.3 18 0 31.8 10.3 35 28.3h-70.8z" class="st0"/></svg>