<svg xmlns="http://www.w3.org/2000/svg" fill="none" viewBox="0 0 150 24"><path fill="#fff" d="m57.86 12.87-1.99-.18c-1.31-.11-1.83-.57-1.83-1.37 0-.94.8-1.56 2.36-1.56 1.47 0 2.2.64 2.31 1.67h4.67c-.3-3.05-2.45-5.2-6.85-5.2-4.4 0-7.1 2.34-7.1 5.43 0 2.89 1.58 4.47 5.5 4.79l1.97.16c1.53.11 2.08.64 2.08 1.56 0 .96-.8 1.67-2.45 1.67-1.53 0-2.45-.69-2.61-1.9H49c.44 3.32 2.77 5.52 7.51 5.52s7.15-2.36 7.15-5.54-1.69-4.67-5.79-5.04l-.01-.01ZM41.74 6.23c-2.93 0-4.67 1.53-5.5 4.67h-.3V6.5h-4.63v16.67h4.92v-9.71c0-2.22 1.15-3.44 3.21-3.44s3.05 1.26 3.05 3.41v9.73h4.92v-10.6c0-4.03-2.11-6.34-5.68-6.34l.01.01ZM26.53 0c-1.67 0-2.93 1.1-2.93 2.77s1.24 2.77 2.91 2.77c1.67 0 2.91-1.1 2.91-2.77S28.18 0 26.53 0Zm2.45 6.5h-4.92v16.67h4.92V6.5Zm42.41-3.53h-3.14c-.09 2.68-1.24 3.85-3.8 4.05v3.39h2.02v7.33c0 3.69 2.11 5.7 6.3 5.7.79 0 1.57-.1 2.34-.3v-3.96c-.39.07-.79.1-1.19.09-1.76 0-2.52-.66-2.52-2.52v-6.34h4.33V6.49H71.4V2.96l-.01.01Zm78.09 7.44V6.49h-4.33V2.96h-3.09c-.07 1.85-.62 2.93-1.83 3.53v11.24c0 3.69 2.11 5.7 6.3 5.7.79 0 1.57-.1 2.34-.3v-3.96c-.39.07-.79.1-1.19.09-1.76 0-2.52-.66-2.52-2.52V10.4h4.33l-.01.01Zm-16.12.73h-.3V6.49h-4.56v16.67h4.92v-9.02c0-2.5 1.12-3.55 3.69-3.55.43 0 .92.05 1.58.16V6.44c-.45-.16-.92-.23-1.4-.23-1.99 0-3.37 1.14-3.94 4.92l.01.01Zm-31.44 8.08c-2.31 0-3.99-1.53-3.99-4.51 0-2.66 1.56-4.3 3.94-4.3 2.04 0 3.21 1.15 3.55 2.98h4.99c-.48-4.28-3.55-7.17-8.47-7.17-5.4 0-8.95 3.66-8.95 8.68s3.41 8.54 8.89 8.54c4.97 0 8.2-2.77 8.66-7.26h-4.99c-.27 1.83-1.53 3.05-3.62 3.05l-.01-.01ZM84.26 6.21c-4.28 0-6.87 2.11-7.33 5.89h4.72c.16-1.31 1.01-1.99 2.5-1.99s2.2.69 2.2 1.67c0 .82-.53 1.26-1.88 1.51l-2.25.41c-3.96.73-5.47 2.36-5.47 4.95 0 2.95 2.08 4.81 4.97 4.81 2.36 0 3.89-1.1 4.6-3.85h.3v3.55h4.65V12.28c0-3.78-2.27-6.07-7.01-6.07Zm-.55 13.88c-1.33 0-2.08-.71-2.08-1.76 0-.87.53-1.47 1.83-1.76l.92-.21c.79-.18 1.4-.43 1.97-.92v1.76c0 2.04-1.08 2.89-2.63 2.89h-.01Zm35.54-13.88c-4.28 0-6.87 2.11-7.33 5.89h4.72c.16-1.31 1.01-1.99 2.5-1.99s2.2.69 2.2 1.67c0 .82-.53 1.26-1.88 1.51l-2.24.41c-3.96.73-5.47 2.36-5.47 4.95 0 2.95 2.08 4.81 4.97 4.81 2.36 0 3.89-1.1 4.6-3.85h.3v3.55h4.65V12.28c0-3.78-2.27-6.07-7.01-6.07h-.01Zm-.55 13.88c-1.33 0-2.08-.71-2.08-1.76 0-.87.53-1.47 1.83-1.76l.92-.21c.79-.18 1.4-.43 1.97-.92v1.76c0 2.04-1.08 2.89-2.63 2.89h-.01ZM15.77 3.99c-1.01 0-1.73.44-2.4 1.4l-1.92 2.76V.28H6.87v7.87L4.95 5.39c-.66-.96-1.39-1.4-2.4-1.4C1.02 3.99.01 5.12 0 6.51 0 7.7.56 8.48 1.74 9.24l7.42 4.78 7.42-4.78c1.18-.76 1.74-1.54 1.74-2.73 0-1.39-1.02-2.52-2.55-2.52ZM9.16 15.16c4.41 0 8.02 3.29 8.01 8.02H1.15c0-4.72 3.61-8.02 8.01-8.02Z"/></svg>