<svg xmlns="http://www.w3.org/2000/svg" xml:space="preserve" id="Layer_2_00000083802636735726514810000002103002711938959530_" x="0" y="0" style="enable-background:new 0 0 569.5 161.1" version="1.1" viewBox="0 0 569.5 161.1"><style>.st0{fill:#fff}</style><path d="M569.2 84.6c-.3-.9-1.4-2-2.3-2.2-.6-.2-1.8.9-2.3 1.7-.6.8-.6 2-.9 3-.7 2.5-1.3 5-2.2 7.5-.9 2.3-2.3 5.2-5.1 4.6-1.9-.4-3.8-2.6-4.8-4.5-1.2-2.3-1.9-5.2-2-7.8-.2-12.3-.3-24.6-.2-36.9.1-6.3-.8-8.1-6.6-10.6-1.6-.7-3.3-1.3-5-1.7-4.2-1.1-6.6 0-8.2 4-1.8 4.5-3.6 9-5 13.6-2 6.4-3.7 13-5.8 20.5-.3-2.6-.5-4.2-.6-5.9-.3-6.8-.5-13.5-.7-20.2-.2-7.4-2.9-10.7-10.2-12.2-4.2-.9-6.4-.1-8.1 3.8-2 4.3-3.6 8.8-5.2 13.2-1.2 3.3-2.3 6.8-3.5 10.1-.7-5.5-.6-10.8-.7-16.1-.1-9 2.1-8.8-9.1-11-4.1-.8-5.2.1-5.2 4.2-.2 12.8-.2 25.6-.5 38.4-.1 6.3-2.3 12.1-6.1 17.1-1.1 1.4-3.7 2.8-5.3 2.5s-3.5-2.4-4.1-4.1c-1-3.2-1.6-6.7-1.6-10.1 0-13.2.2-26.3.6-39.4.1-3.7-1.3-5.6-4.5-6.5-1.6-.4-3.2-.8-4.9-1-4.5-.5-5.4.2-6.1 5.6-1-1.4-1.5-2.4-2.2-3.1-6.4-6.4-15.9-7-22.8-1.1-2.6 2.2-4.8 5-6.5 7.9-7 12.2-7.4 25.4-6.1 38.9.3 2.9-.5 6-1.5 8.8-.9 2.6-3.2 5.1-6.2 4.2-2.1-.7-4.8-2.8-5.3-4.8-1.4-5.5-2.8-11.4-2.4-17 .6-8.6 2.6-17 4.1-25.5 1.1-6-2-9.8-8-9.7-1.4 0-2.8.3-4.2.5-4 .7-8.1 1.5-12.2 2.3v-3.5c.2-5.4-2.2-7.9-7.6-7.7-4.4.2-7.4 2.4-9 6.4-1.8 4.3-2.1 8.7 1.5 12.2 1.6 1.7 1.8 3.1 1 5-2.4 5.9-4.4 12-7.1 17.8-2.3 4.9-5.4 9.4-8.2 14.1-.5-14.2-.6-28.1-.5-42 0-7-1-8.3-8.3-9.2-3.5-.4-6.7-.4-7 4.7-5.2-6.1-11.1-8.6-18.4-6.8-6.5 1.6-10.4 6.3-13.4 11.9-6.1 11.4-7.3 23.7-5.9 36.2.5 4.6-.5 8.4-2.9 12.1-1.4 2-3.2 4.2-5.8 3.1-1.8-.8-3.7-2.7-4.4-4.5-1.1-2.9-1.6-6.2-1.6-9.4 0-13 .2-26.1.4-39.1 0-1.6.3-3.8-.5-4.8-2.7-3.3-6.8-3.8-10.7-3.4-1.7.2-3.2 2.3-5 3.7-4.1-4.7-9.6-7.5-16.8-5.9-8.2 1.8-12.4 7.9-15.7 14.7-3.9 8.2-4.6 17-5.1 25.9-.5 7.6-3.7 14.2-9.5 19.2-3.2 2.8-5.9 2.2-7.3-1.5-1.2-3.2-2.1-6.6-2.3-10-.3-9-.2-18 0-27 .1-7.7.6-15.3.9-23.4h16.6c3.8 0 5.8-2.3 5.8-6.7 0-3.7-2.9-3.1-5.1-3.3-1.6-.1-3.3-.2-5-.3-3.9-.2-7.9-.5-11.7-.7-.2-.7-.3-.9-.2-1.2.1-3.7.2-7.3.4-11 .4-8.1.1-8.5-7.9-10.2-.3-.1-.7-.1-1.1-.2-6.3-1.4-7.4-.6-7.6 5.8-.1 5.4 0 10.8 0 16.1h-5.9c-1.8-.1-3.5-.3-5.3-.4-5.8-.2-7.7 1.6-8 7.4-.2 2.8.7 4.2 3.8 4.1 4.7-.2 9.4 0 14 0 0 12.2.5 23.5-.2 34.7-.5 8.2-4.8 15-10.2 20.2-1.3-4.2-2-8.8-4.1-12.5-1.8-3.3-5.1-5.9-8-8.4-4-3.4-8.4-6.4-12.6-9.6.9-1.2 1.7-2 2.1-2.9 1.8-3.7 4.1-7.3 5.2-11.2 1.4-5.2-1-8-6.4-8.3-6.4-.3-11.2 2.7-14.4 8-3.2 5.2-3.7 10.6-.2 16.1.7 1 1.1 3 .5 3.9-4.7 8.5-9.6 16.9-14.5 25.2-1 1.7-2.5 3.2-4 4.5-1.9 1.8-3.5 1.2-4.1-1.3-.5-2.1-.8-4.2-.8-6.3.2-12.2.5-24.4.7-36.6 0-1.8-.1-3.9-1-5.4-4.1-7-14.6-8.8-20.8-3.6-2.2 1.8-4.2 3.9-5.6 6.3-2.8 4.9-5.3 10-7.6 15.2-1.5 3.4-2.6 6.9-3.9 10.4-.2-.1-.3-.1-.5-.2V46.4c0-6.6-.2-6.9-6.7-8.5-.7-.2-1.4-.4-2.1-.5-4.3-.7-5.2.1-5.3 4.6-.1 14.5-.2 28.9-.2 43.4 0 6 0 12.1.9 18 .7 5.1 8.6 7.9 12.8 5 .7-.5 1.1-1.7 1.3-2.7 1-4.9 1.7-9.8 2.9-14.6 3.2-12.5 7.4-24.7 14.8-35.5 1.5-2.1 3.3-4 4.9-6.1.3.2.6.3.9.5-.4 9.8-1.1 19.6-1.1 29.3 0 7.3.5 14.7 1.9 21.8 1.6 7.8 8.2 10.2 15 6.1 2.6-1.6 5.2-3.5 7-5.9 4.2-5.4 8-11.1 11.7-16.9 3.5-5.4 6.7-11 10-16.5.6-.4 1.1-.7 1.6-1.1 2.9 3.5 6 6.8 8.5 10.5 2.2 3.3 4.1 6.9 5.2 10.6 1 3.4-.4 6.9-3.5 9s-6.1.9-9-.8c-1-.6-2-1.3-2.9-2-4.2-3.1-6.5-2.6-9.4 2.1-2.9 4.8-2.4 7.5 2.4 9.7 7.1 3.3 14.7 3.9 22.2 2.5 11.7-2.2 18.8-10.3 24.1-20.3.8-1.5 1.5-3 2.2-4.3 1.3 4.8 2.2 9.5 3.9 13.9 4.6 11.9 18.3 16.6 27.6 3.1 2-2.9 3.7-6.1 5.7-9.3 3.1 9.1 7.5 16.7 18.1 17.3 9.9.6 16.4-5.2 21.7-13.5 1.8 7.6 6 12.3 13.2 13.3 8.4 1.2 13.3-3.9 17-11 4 6.9 9.1 11.3 17.2 11.1 7.6-.2 13.2-4.3 17.8-9.9 1.7 4 .3 6.5-2.6 8.8-2.5 2-4.8 4.3-7.3 6.6-2.4 2.2-4.8 4-6.6 6.3-4.2 5.2-9 10.2-11.9 16.2-4.4 9.1-.1 18.5 8.9 22.3 9 3.7 18.7 1.5 25.4-5.6 5.1-5.5 7.2-12.3 7.8-19.4.8-9.8.6-19.6.9-29.4 0-1.4.3-3.2 1.2-4.2 11-13.2 19.4-27.9 25.4-44.1.3-.8 1.5-1.8 2.4-1.9 3-.2 6.1-.1 9.5-.1-.2 1.2-.5 2.3-.7 3.4-.8 8.8-2 17.6-2.2 26.5-.2 6.4 1.7 12.7 5.9 17.9 7.6 9.4 19.3 8.9 26-1 .5-.8 1.1-1.6 1.8-2.6 4.4 7.5 10.5 11.4 19 10.2 8.2-1.2 13.7-6.5 17.9-13.7 1.9 7.6 6 12.4 13.3 13.7 7.9 1.3 12.4-3.3 16-10.7.5 9.6 1.9 10.8 10.4 10.8.9 0 1.9 0 2.8-.1 2.6-.2 4.1-1.4 4.1-4.2 0-3.2.4-6.4.4-9.6.1-12.3 3-23.9 8-35 .7-1.6 1.8-3.1 2.7-4.6.3.1.6.2 1 .3 0 1.7-.1 3.5 0 5.2 1.1 11.3 2 22.6 3.6 33.9 1 6.7 5.5 9.5 12 8.7 2.5-.3 3.7-1.4 3.8-4.2.5-14.7 3.8-28.8 9.8-42.3.3-.6.7-1.2.9-1.4.4 10.4.6 20.9 1.3 31.4.4 6.1 2 11.9 6.2 16.7 4.8 5.4 12.5 7 18 3.7 5.3-3.2 10.7-16.6 8.9-22.7zM254 89c-1.1 2.9-2.9 5.8-5 8-3.9 4.2-8.7 3.5-11.3-1.7-1.6-3.2-2.8-6.8-3.2-10.4-1.1-8.7-.8-17.5 1.8-26 .8-2.7 2.1-5.3 3.7-7.6 3.2-4.4 7.9-4.8 12.3-1.5 3.9 4.7 4.5 9.8 4.7 15.1.4 8.2.1 16.4-3 24.1zm67.1 1.1c-1.1 2.6-2.7 5.1-4.6 7-4 4-9.1 3.3-11.2-1.9-2-5.2-2.5-10.9-3.6-16.5 1-7.4 1.6-14.3 3.1-20.9.7-2.9 2.8-5.8 5-7.9 4.3-4.1 10.5-2.8 12.4 2.7 1.5 4.4 2.1 9.2 2.4 13.9.5 8.1-.3 16.1-3.5 23.6zm2.2 55.9c-.8 2.2-2.2 4.5-3.9 6.1-2.5 2.5-6.8 2.8-9.5 1.1-3.2-2-4.4-5.2-3.5-8.6 1.1-4 2.6-8.2 4.9-11.6 3.6-5.2 8.1-9.8 12.2-14.7 1-1 1.7-1.5 2.9-2.6.1 10.7.2 20.7-3.1 30.3zm115.8-54.7c-1.6 3.6-3.8 6.8-8 8.1-4.9.6-7-2.2-8.4-5.6-3-7.1-3.1-14.6-2.5-22 .4-4.9 1.3-9.8 2.6-14.6.7-2.5 2.3-5 4.1-6.9 4-4.2 10.3-3.5 12.7 1.7 1.8 3.7 2.7 8.1 3.1 12.2 1 9.2.2 18.4-3.6 27.1zM19.3 63c-.9 3.5-3.2 2.1-4.9 1.6C6.8 62 .4 53.3 0 45.1-.7 28.4 13.4 6.7 29 .8c5.2-2 10-.3 14.2 3 .9.7 1.5 2.2 1.5 3.4-.1 29.6-.2 59.2-.7 88.8-.1 7.4-2.6 14.5-7.8 20.1-2.9 3.2-6.1 6.2-11.5 5.8.2-1.7.4-3 .6-4.4 1.1-7.7 3-15.4 3.1-23.1.5-26.7.5-53.3.6-80v-4.1c-.3-.1-.6-.2-.9-.4-1.3 1.3-2.7 2.4-3.8 3.8-8.5 11-12.4 23.4-10 37.2.8 4.2 3.3 7.9 5 12.1z" class="st0"/></svg>