<svg xmlns="http://www.w3.org/2000/svg" fill="none" viewBox="0 0 210 80"><path fill="#000" d="M33 51.968V28.1c2.772 0 5.497-.04 8.215.02.973.02 1.966.174 2.912.422 5.624 1.483 9.349 6.99 8.682 12.766-.693 5.963-5.39 10.458-11.254 10.646-2.805.093-5.61.013-8.555.013Zm4.904-19.044V47.09c1.113 0 2.132.027 3.152 0 3.878-.114 6.683-2.817 6.95-6.681.232-3.388-2.346-6.661-5.858-7.258-1.352-.228-2.752-.161-4.25-.228h.006Zm34.042.067h-11.72v4.581h5.73v4.837h-5.684v4.689h11.667v4.783H55.375V28.188h16.564v4.803h.007Zm2.845-4.817h16.564v4.776h-11.72v4.609h5.65v4.883h-5.61v4.65h11.667v4.782H74.79v-23.7Zm23.953 16.1v7.62H93.98v-23.72c.233-.04.473-.114.713-.114 2.559 0 5.11-.047 7.663.027 4.437.128 7.782 3.509 7.935 7.936.14 4.179-3.091 7.828-7.382 8.23-1.333.128-2.692.02-4.165.02Zm.087-4.897c1.319 0 2.559.067 3.791-.02 1.573-.108 2.705-1.402 2.779-3.019.073-1.677-.966-3.092-2.599-3.267-1.286-.134-2.598-.027-3.971-.027v6.333Zm61.953-11.236c3.192 0 6.35-.235 9.455.06 3.951.37 6.856 4.16 6.73 8.231-.134 4.172-3.159 7.46-7.223 7.795-1.339.114-2.692.147-4.145.228v7.426h-4.817V28.14Zm4.837 11.236c1.326 0 2.599.1 3.845-.027 1.553-.161 2.665-1.556 2.685-3.12.027-1.562-.986-2.97-2.485-3.139-1.319-.147-2.665-.033-4.045-.033v6.319Z"/><path fill="#008EFE" d="M148.451 28c3.671 7.996 7.256 15.804 10.847 23.606l-.186.16c-.86-.583-1.719-1.16-2.572-1.743-2.479-1.69-4.964-3.368-7.416-5.099-.6-.422-1-.442-1.619-.006-3.325 2.328-6.69 4.602-10.235 6.788 3.698-7.835 7.396-15.663 11.187-23.706h-.006Z"/><path fill="#56B5FF" d="M148.524 30.992v9.264l-8.375 7.935 8.375-17.2Z"/><path fill="#000" d="M131.34 28.148c-.333.02-.713.456-.946.791-1.806 2.59-3.572 5.199-5.357 7.802-.22.328-.453.65-.76 1.093-.006-.007-.013-.02-.02-.027-.006-.007-.006.02-.013.027-.307-.443-.54-.765-.766-1.093-1.779-2.603-3.552-5.212-5.351-7.802-.233-.335-.613-.771-.946-.791-1.439-.088-2.892-.04-4.358-.04v23.78h4.818v-14.98c1.232 1.798 2.285 3.328 3.331 4.857 1.066 1.563 2.139 3.126 3.285 4.796v.014c1.14-1.677 2.212-3.24 3.292-4.81 1.046-1.53 2.099-3.059 3.325-4.857v14.98h4.824v-23.78c-1.466 0-2.919-.048-4.358.04Z"/></svg>