<svg xmlns="http://www.w3.org/2000/svg" fill="none" viewBox="0 0 210 80"><path fill="#000" d="M69.244 52.643h-5.271c-.29-16.828-1.014-20.941-3.321-20.941-3.148 0-5.928 9.5-8.96 20.94H47V27.358h5.165v11.557C54.367 32.059 56.964 27 61.415 27c6.43 0 7.501 7.878 7.83 25.643ZM83.254 27c-7.367 0-8.96 13.536-11.944 25.633h3.9l1.246-5.88c.3-1.38.985-2.056 2.134-2.056 2.674 0 6.98 3.456 11.77 7.936h4.807C92.203 40.507 90.62 27 83.253 27Zm-4.51 13.932c-.318 0-.646.038-.936.087 1.439-5.745 2.887-9.327 4.76-9.327 2.24 0 3.823 5.388 5.744 14.048-3.398-2.771-6.613-4.808-9.567-4.808Zm14.367-13.575h5.348c2.53 11.846 4.287 20.941 7 20.941s4.721-9.452 7.164-20.94h3.891C113.511 39.454 111.966 53 104.812 53s-8.737-13.545-11.701-25.643ZM126.37 27c-7.367 0-8.96 13.536-11.962 25.633h3.91l1.265-5.88c.289-1.38.965-2.056 2.124-2.056 2.674 0 6.97 3.456 11.778 7.936h4.799C135.321 40.507 133.737 27 126.371 27Zm-4.509 13.932c-.328 0-.656.038-.956.087 1.449-5.745 2.897-9.327 4.77-9.327 2.259 0 3.833 5.388 5.754 14.048-3.398-2.771-6.613-4.808-9.568-4.808Zm40.839 11.71h-5.281c-.28-16.827-1.013-20.94-3.321-20.94-3.138 0-5.928 9.5-8.959 20.94h-4.693V27.358h5.175v11.557c2.192-6.865 4.799-11.914 9.25-11.914 6.42 0 7.501 7.878 7.829 25.643Z"/></svg>