<svg xmlns="http://www.w3.org/2000/svg" fill="none" viewBox="0 0 210 80"><path fill="#000" d="M62.665 29.018h4.72V51.74h-4.72V29.018ZM86.74 29.044v22.683h-4.268v-2.333c-.623.995-1.34 1.724-2.148 2.174-.796.451-1.803.677-2.996.677-1.962 0-3.62-.796-4.959-2.387-1.338-1.59-2.015-3.619-2.015-6.111 0-2.864.663-5.118 1.976-6.761 1.326-1.644 3.089-2.466 5.29-2.466 1.02 0 1.922.225 2.717.662a5.262 5.262 0 0 1 1.922 1.856v-8.007h4.455l.026.013ZM74.902 43.442c0 1.55.305 2.784.928 3.712.61.941 1.524 1.405 2.77 1.405 1.247 0 2.188-.464 2.838-1.392.65-.928.967-2.121.967-3.593 0-2.055-.517-3.526-1.55-4.414a3.364 3.364 0 0 0-2.215-.796c-1.286 0-2.227.49-2.824 1.459-.596.967-.901 2.174-.901 3.619h-.013ZM105.115 46.81c-.119.993-.636 2-1.551 3.035-1.445 1.63-3.447 2.453-6.045 2.453-2.135 0-4.017-.69-5.661-2.069-1.631-1.378-2.453-3.619-2.453-6.721 0-2.903.742-5.144 2.214-6.695 1.472-1.551 3.394-2.32 5.74-2.32 1.392 0 2.652.265 3.779.782 1.113.53 2.041 1.352 2.77 2.48.663.994 1.088 2.147 1.273 3.473.119.769.159 1.882.133 3.327H93.82c.066 1.684.596 2.864 1.59 3.54.61.424 1.34.636 2.188.636.901 0 1.644-.252 2.2-.769.306-.278.584-.662.823-1.153h4.494Zm-4.348-5.145c-.067-1.166-.425-2.041-1.061-2.638-.636-.596-1.419-.901-2.347-.901-1.02 0-1.803.318-2.36.954-.556.636-.914 1.498-1.06 2.585h6.828ZM122.296 37.065c1.419 1.777 2.121 3.884 2.121 6.297s-.715 4.574-2.121 6.324c-1.405 1.75-3.566 2.625-6.456 2.625-2.89 0-5.038-.875-6.456-2.625-1.419-1.75-2.121-3.858-2.121-6.324 0-2.466.715-4.52 2.121-6.297 1.405-1.776 3.566-2.665 6.456-2.665 2.89 0 5.038.889 6.456 2.665Zm-6.469 1.047c-1.286 0-2.267.451-2.97 1.366-.703.915-1.034 2.2-1.034 3.897 0 1.697.345 2.983 1.034 3.898.689.915 1.684 1.366 2.97 1.366 1.286 0 2.267-.451 2.956-1.366.689-.915 1.034-2.214 1.034-3.898 0-1.683-.345-2.982-1.034-3.897-.689-.915-1.67-1.366-2.956-1.366ZM132.319 54.684c.477.398 1.272.596 2.386.596 1.578 0 2.638-.53 3.182-1.59.344-.677.53-1.817.53-3.42v-1.075c-.424.716-.875 1.26-1.352 1.618-.875.663-2.015 1.007-3.407 1.007-2.161 0-3.885-.755-5.171-2.267-1.286-1.511-1.935-3.566-1.935-6.151s.623-4.6 1.869-6.297 3.009-2.546 5.29-2.546c.848 0 1.577.133 2.2.385 1.074.437 1.936 1.26 2.586 2.44v-2.427h4.268v15.935c0 2.174-.358 3.805-1.1 4.905-1.259 1.896-3.659 2.838-7.212 2.838-2.148 0-3.897-.425-5.25-1.26-1.352-.848-2.108-2.095-2.253-3.778h4.772c.119.517.318.888.597 1.113v-.026Zm-.743-8.67c.597 1.418 1.671 2.12 3.209 2.12 1.02 0 1.895-.384 2.598-1.166.703-.782 1.061-2.015 1.061-3.712 0-1.59-.332-2.81-1.008-3.632-.676-.822-1.578-1.247-2.704-1.247-1.538 0-2.599.73-3.195 2.175-.305.769-.464 1.723-.464 2.85 0 .981.159 1.843.49 2.598l.013.014ZM155.293 38.987c-1.763 0-2.956.57-3.566 1.724-.344.65-.503 1.644-.503 2.996v8.034h-4.428V34.944h4.189v2.93c.676-1.114 1.273-1.883 1.776-2.294.822-.69 1.896-1.034 3.209-1.034h.212c.053 0 .185 0 .371.027v4.507c-.278-.026-.53-.053-.742-.066-.213 0-.385-.013-.531-.013l.013-.014ZM159.774 36.76c1.167-1.485 3.156-2.214 5.979-2.214 1.843 0 3.474.358 4.906 1.1 1.431.73 2.147 2.108 2.147 4.137v7.702c0 .53 0 1.18.027 1.936.026.57.119.968.265 1.166.146.212.358.372.65.504v.65h-4.773a5.311 5.311 0 0 1-.278-.955 9.57 9.57 0 0 1-.12-1.02 8.933 8.933 0 0 1-2.094 1.683c-.942.544-2.015.822-3.209.822-1.524 0-2.77-.437-3.765-1.3-.994-.874-1.485-2.094-1.485-3.685 0-2.068.796-3.566 2.387-4.48.875-.504 2.161-.862 3.858-1.075l1.498-.185c.808-.106 1.392-.225 1.736-.385.623-.265.942-.689.942-1.246 0-.69-.239-1.166-.716-1.431-.477-.266-1.18-.398-2.108-.398-1.034 0-1.777.252-2.201.769-.305.384-.517.888-.61 1.538h-4.242c.093-1.472.504-2.678 1.233-3.62l-.027-.013Zm3.262 11.812c.411.345.914.504 1.511.504a4.47 4.47 0 0 0 2.612-.835c.795-.557 1.206-1.565 1.246-3.036v-1.63a4.993 4.993 0 0 1-.835.423 7.195 7.195 0 0 1-1.167.305l-.981.186c-.928.16-1.591.371-1.989.597-.676.397-1.02 1.02-1.02 1.869 0 .756.212 1.286.636 1.617h-.013ZM186.117 39.557c-.372-.808-1.101-1.22-2.175-1.22-1.259 0-2.094.412-2.532 1.22-.238.464-.358 1.154-.358 2.069V51.74h-4.454V34.97h4.269v2.452c.543-.875 1.06-1.498 1.538-1.87.848-.662 1.962-.98 3.314-.98 1.286 0 2.32.278 3.115.848.637.53 1.114 1.193 1.445 2.015.57-.98 1.286-1.71 2.148-2.174.901-.464 1.909-.69 3.023-.69.742 0 1.471.146 2.187.438.716.292 1.366.796 1.962 1.512.477.583.796 1.299.955 2.16.106.57.159 1.392.159 2.48l-.027 10.592h-4.494V41.055c0-.636-.106-1.166-.305-1.577-.384-.782-1.114-1.167-2.161-1.167-1.206 0-2.055.504-2.505 1.511-.239.53-.358 1.18-.358 1.923v9.996h-4.428v-9.996c0-.994-.106-1.724-.305-2.174l-.013-.014ZM19.327 29.853h6.563c.729 0 1.312-.583 1.312-1.312 0-.73-.583-1.313-1.312-1.313h-6.563c-.729 0-1.312.583-1.312 1.313 0 .729.583 1.312 1.312 1.312ZM27.202 51.489c0-.73-.583-1.313-1.312-1.313h-6.563c-.729 0-1.312.584-1.312 1.313s.583 1.312 1.312 1.312h6.563c.729 0 1.312-.583 1.312-1.312ZM27.215 40.021c0-.729-.583-1.312-1.312-1.312h-15.59c-.73 0-1.313.583-1.313 1.312 0 .73.583 1.313 1.313 1.313h15.59c.73 0 1.312-.584 1.312-1.313Z"/><path fill="#000" d="M47.671 38.311c-.08-.08-.172-.159-.265-.239a5.761 5.761 0 0 0 .411-8.511 6.021 6.021 0 0 0-1.087-.848c-.026-.027-.066-.04-.093-.066a5.529 5.529 0 0 0-1.074-.478 11.108 11.108 0 0 0-5.25-6.721 11.367 11.367 0 0 0-5.276-1.445c-2.32-.053-4.547.61-6.47 1.909a6.938 6.938 0 0 0-2.107-.318h-1.604c-.73 0-1.313.583-1.313 1.312 0 .73.584 1.313 1.313 1.313h1.604a4.38 4.38 0 0 1 4.375 4.375 4.38 4.38 0 0 1-4.375 4.374H13.733c-.73 0-1.313.584-1.313 1.313 0 .73.584 1.312 1.313 1.312H26.46c.291 0 .623.067.967.146a4.379 4.379 0 0 1 2.44 1.525c.636.782.968 1.737.968 2.757a4.38 4.38 0 0 1-4.375 4.375H13.733c-.73 0-1.313.584-1.313 1.313s.584 1.312 1.313 1.312h12.713a4.38 4.38 0 0 1 4.375 4.375 4.38 4.38 0 0 1-4.375 4.375h-1.604c-.729 0-1.312.583-1.312 1.312 0 .73.583 1.313 1.312 1.313h1.605a6.927 6.927 0 0 0 3.221-.782 5.749 5.749 0 0 0 6.735 2.002 5.728 5.728 0 0 0 3.46-3.752 5.782 5.782 0 0 0 3.844.398 5.748 5.748 0 0 0 4.362-5.012 5.778 5.778 0 0 0-1.087-3.977A5.812 5.812 0 0 0 48.321 46a5.795 5.795 0 0 0 1.153-3.87 5.722 5.722 0 0 0-1.816-3.806l.013-.013ZM34.984 22.628a8.624 8.624 0 0 1 4.03 1.1 8.573 8.573 0 0 1 3.712 4.242c-.636.12-1.26.345-1.842.677a5.585 5.585 0 0 0-1.565 1.325 5.765 5.765 0 0 0-1.949-1.524 5.835 5.835 0 0 0-2.253-.57 5.87 5.87 0 0 0-1.67.172c-.133-1.83-.982-3.46-2.254-4.64a8.45 8.45 0 0 1 3.791-.809v.027Zm10.487 28.357a3.12 3.12 0 0 1-2.373 2.718 3.133 3.133 0 0 1-3.341-1.313 1.34 1.34 0 0 0-.173-.212 1.26 1.26 0 0 0-.477-.318 1.324 1.324 0 0 0-.557-.08 1.244 1.244 0 0 0-.808.358 1.258 1.258 0 0 0-.319.478 1.324 1.324 0 0 0-.08.556c0 .093.027.186.054.266a3.117 3.117 0 0 1-1.896 3.698 3.127 3.127 0 0 1-3.725-1.18 6.952 6.952 0 0 0 1.71-4.587 6.974 6.974 0 0 0-2.93-5.687 6.954 6.954 0 0 0 2.718-4.004c.08-.052.16-.105.239-.145.013 0 .04-.027.053-.027a3.298 3.298 0 0 1 1.365-.384h.186c.437 0 .861.106 1.26.291a3.122 3.122 0 0 1 1.762 2.254v.027a5.775 5.775 0 0 0 5.157 4.547c.04 0 .093 0 .133.013h.331c.2 0 .385 0 .584-.026a3.152 3.152 0 0 1 1.127 2.73v.027Zm-3.023-12.9c0 .332.146.637.358.862l.013.014c.226.212.53.345.875.358 1.63 0 3.01 1.272 3.116 2.916.106 1.551-.968 2.97-2.493 3.275a.245.245 0 0 0-.093.026c-.198.04-.41.053-.623.04h-.092a3.132 3.132 0 0 1-2.877-2.466 5.757 5.757 0 0 0-5.555-4.666h-.345a6.01 6.01 0 0 0-1.445.252 7.013 7.013 0 0 0-1.445-3.156 7.242 7.242 0 0 0-1.392-1.312 6.978 6.978 0 0 0 2.466-3.155 3.152 3.152 0 0 1 2.015-.637c.424.014.849.12 1.233.305a3.161 3.161 0 0 1 1.776 2.824c.027.703.597 1.26 1.3 1.273.119 0 .225-.014.331-.04.544-.16.928-.65.941-1.246 0-1.114.597-2.148 1.565-2.705a3.057 3.057 0 0 1 1.922-.397c.053.013.12.026.172.04.637.106 1.22.397 1.684.861a3.104 3.104 0 0 1 .676 3.407 3.135 3.135 0 0 1-2.89 1.936h-.013c-.65.013-1.18.504-1.26 1.14v.026l.08.226Z"/></svg>