<svg xmlns="http://www.w3.org/2000/svg" fill="none" viewBox="0 0 210 80"><path fill="#858080" d="M117.427 20c.056 0 .109.023.15.062.041.04.062.094.062.151 0 .057-.023.11-.062.151a.215.215 0 0 1-.15.062.215.215 0 0 1-.15-.062.216.216 0 0 1 0-.302.214.214 0 0 1 .15-.062Z"/><path fill="#000" d="m53.83 29.284-9.297-5.988-9.296 5.988 9.296 5.99 9.297-5.99ZM35.237 54.86l9.296 5.99 9.297-5.99-9.297-5.989-9.296 5.989Zm-3.94-14.51L22 46.337l9.297 5.988 9.296-5.988-9.296-5.988Zm26.473 0-9.296 5.988 9.296 5.988 9.297-5.988-9.297-5.988Zm34.812-9.928c-.2-.51-.513-.966-.913-1.338a4.153 4.153 0 0 0-1.486-.86 6.231 6.231 0 0 0-2.01-.302c-1.128 0-2.096.228-2.903.684a6.374 6.374 0 0 0-1.991 1.719l1.864 1.094c.288-.51.703-.938 1.204-1.24.506-.306 1.108-.459 1.806-.459.933 0 1.618.223 2.058.665.44.442.66 1.016.66 1.718v.176h-3.107.004c-1.475-.002-2.63.308-3.466.926-.836.618-1.253 1.475-1.253 2.57 0 .442.082.856.242 1.24.16.38.401.721.709.996.336.296.73.519 1.155.654.46.157.993.235 1.602.235.88 0 1.684-.189 2.408-.567a4.49 4.49 0 0 0 1.709-1.503v1.855h2.019v-6.525c0-.638-.105-1.217-.311-1.738Zm-1.707 4.414a3.52 3.52 0 0 1-.65.938c-.261.272-.56.505-.883.693-.323.19-.67.337-1.03.44a3.965 3.965 0 0 1-1.108.155c-.7 0-1.21-.13-1.533-.39a1.292 1.292 0 0 1-.486-1.075c0-.521.21-.924.63-1.212.421-.286 1.117-.43 2.089-.43h2.971v.881Zm11.303-4.26c.452.536.68 1.252.68 2.15v5.957h2.116v-6.113c0-.716-.1-1.364-.3-1.943a4.1 4.1 0 0 0-.855-1.465 3.729 3.729 0 0 0-1.36-.918 4.779 4.779 0 0 0-1.797-.322c-.738 0-1.388.153-1.952.459a4.048 4.048 0 0 0-1.388 1.22V27.96l-2.059.888v9.837h2.097v-5.821c0-.47.071-.896.214-1.28.13-.362.33-.695.592-.977a2.57 2.57 0 0 1 .894-.615 2.858 2.858 0 0 1 1.116-.215c.88 0 1.548.267 2 .802h.002v-.002Zm13.38 4.201a3.78 3.78 0 0 1-1.175 1.534c-.525.41-1.162.615-1.913.615a3.391 3.391 0 0 1-1.927-.578 3.423 3.423 0 0 1-1.267-1.57 3.598 3.598 0 0 1-.262-1.369 3.603 3.603 0 0 1 .981-2.49 3.325 3.325 0 0 1 2.438-1.024c.712 0 1.337.183 1.874.547.546.375.968.905 1.214 1.523l1.883-.821a5.104 5.104 0 0 0-.786-1.3 5.339 5.339 0 0 0-2.544-1.689 5.583 5.583 0 0 0-1.641-.235c-.765 0-1.479.14-2.147.42a5.416 5.416 0 0 0-3.331 5.067 5.46 5.46 0 0 0 1.572 3.886 5.512 5.512 0 0 0 3.922 1.603c1.217 0 2.252-.309 3.107-.927a5.573 5.573 0 0 0 1.903-2.394l-1.903-.801v.003h.002Zm10.67-4.2c.447.535.67 1.25.67 2.148v5.958h2.135v-6.113c0-.716-.1-1.364-.3-1.943a4.1 4.1 0 0 0-.855-1.465 3.729 3.729 0 0 0-1.36-.918 4.779 4.779 0 0 0-1.797-.322c-.712 0-1.35.146-1.913.44a4.156 4.156 0 0 0-1.408 1.18v-6.25l-2.078.895v14.496h2.097v-5.82c0-.468.071-.895.214-1.279a2.84 2.84 0 0 1 .592-.977c.251-.266.556-.476.894-.615a2.803 2.803 0 0 1 1.097-.215c.894 0 1.563.267 2.01.802h.002v-.002Zm14.108-1.054a5.51 5.51 0 0 0-1.738-1.172 5.375 5.375 0 0 0-2.127-.43 5.382 5.382 0 0 0-3.864 1.602 5.515 5.515 0 0 0-1.593 3.888 5.429 5.429 0 0 0 1.593 3.886c.497.5 1.083.897 1.728 1.173.675.29 1.401.437 2.136.43a5.449 5.449 0 0 0 5.031-3.34 5.419 5.419 0 0 0 .427-2.149 5.517 5.517 0 0 0-1.593-3.888Zm-.747 5.265c-.17.413-.413.79-.719 1.114a3.32 3.32 0 0 1-1.069.752 3.213 3.213 0 0 1-1.33.273c-.479 0-.923-.09-1.331-.273a3.377 3.377 0 0 1-1.777-1.866 3.662 3.662 0 0 1-.252-1.377c0-.496.084-.938.252-1.366a3.38 3.38 0 0 1 1.777-1.875 3.334 3.334 0 0 1 3.728.752c.634.671.986 1.563.98 2.489 0 .482-.086.954-.261 1.377h.002Zm9.253-6.809c-.673 0-1.263.165-1.767.498-.505.332-.867.83-1.088 1.494v-2.013l-2.058.888v9.837h2.097v-5.937c0-.95.221-1.627.661-2.03.44-.404 1.035-.606 1.786-.606.569 0 1.01.104 1.319.312l.817-2.03a2.542 2.542 0 0 0-.767-.303 4.395 4.395 0 0 0-1-.106v-.004Zm12.055 2.443a3.656 3.656 0 0 0-.913-1.338h.005a4.126 4.126 0 0 0-1.486-.861 6.228 6.228 0 0 0-2.01-.303c-1.127 0-2.095.228-2.903.685a6.375 6.375 0 0 0-1.99 1.718l1.863 1.094a3.4 3.4 0 0 1 1.203-1.24c.506-.305 1.108-.458 1.806-.458.933 0 1.618.222 2.058.664.44.443.661 1.017.661 1.718v.176h-3.108c-1.475 0-2.632.31-3.466.928-.835.618-1.252 1.475-1.252 2.57 0 .442.081.856.242 1.24.159.38.401.721.708.996.336.296.73.519 1.155.654.46.157.993.235 1.603.235.879 0 1.683-.189 2.407-.567a4.489 4.489 0 0 0 1.709-1.503v1.855h2.019v-6.525c0-.638-.104-1.217-.311-1.738Zm-1.705 4.412a3.511 3.511 0 0 1-.65.938c-.261.272-.56.505-.883.693-.324.19-.67.337-1.03.44a3.962 3.962 0 0 1-1.108.156c-.699 0-1.21-.13-1.533-.391a1.287 1.287 0 0 1-.486-1.075c0-.52.21-.924.631-1.212.42-.286 1.116-.43 2.088-.43h2.971v.881Zm12.856-6.698v1.524a4.096 4.096 0 0 0-1.564-1.28 4.631 4.631 0 0 0-2.01-.458c-.696 0-1.369.13-2.01.391a5.102 5.102 0 0 0-1.689 1.114 5.355 5.355 0 0 0-1.156 1.73 5.708 5.708 0 0 0-.427 2.256c0 .833.145 1.569.436 2.246.272.65.668 1.24 1.166 1.737.481.48 1.051.859 1.68 1.115.628.26 1.301.393 1.98.39.686 0 1.393-.16 2.039-.477a4.171 4.171 0 0 0 1.572-1.319v.821c0 .482-.081.92-.242 1.318a3.051 3.051 0 0 1-.68 1.026c-.3.293-.659.519-1.049.664a3.79 3.79 0 0 1-1.369.235c-.855 0-1.548-.133-2.078-.4a3.945 3.945 0 0 1-1.417-1.26l-1.688 1.388a5.593 5.593 0 0 0 2.088 1.64c.821.377 1.867.567 3.135.567.751 0 1.453-.126 2.108-.38a5 5 0 0 0 2.855-2.735 5.358 5.358 0 0 0 .417-2.14v-9.713h-2.097Zm-.145 6.652a3.384 3.384 0 0 1-3.176 2.178c-.492 0-.949-.09-1.37-.273a3.299 3.299 0 0 1-1.097-.762 3.5 3.5 0 0 1-.727-1.143 3.71 3.71 0 0 1-.262-1.397c0-.495.087-.96.262-1.396.166-.421.413-.807.727-1.134a3.434 3.434 0 0 1 2.467-1.025c.492 0 .948.094 1.369.282.408.182.777.441 1.088.763.632.68.984 1.58.98 2.51 0 .482-.086.962-.261 1.397ZM187 33.31c0-.781-.136-1.501-.408-2.158a5.098 5.098 0 0 0-2.827-2.833 5.657 5.657 0 0 0-2.146-.4c-.777 0-1.496.144-2.155.43a5.482 5.482 0 0 0-1.728 1.173 5.338 5.338 0 0 0-1.155 1.749 5.61 5.61 0 0 0-.417 2.178c0 .782.132 1.484.397 2.148.255.65.642 1.239 1.136 1.73.504.497 1.101.89 1.758 1.152.726.29 1.502.432 2.282.42 1.14 0 2.097-.231 2.875-.693a5.86 5.86 0 0 0 1.922-1.846l-1.728-1.036a3.71 3.71 0 0 1-1.214 1.23c-.498.312-1.116.468-1.855.468-.971 0-1.766-.257-2.388-.77-.622-.514-1.011-1.202-1.166-2.062H187v-.88Zm-8.739-.918a3.567 3.567 0 0 1 1.205-1.885c.595-.49 1.314-.733 2.155-.733.841 0 1.588.228 2.166.685.576.456.941 1.1 1.097 1.933h-6.623Zm-87.423 9.543v5.422a4.192 4.192 0 0 0-1.563-1.232 4.745 4.745 0 0 0-2.01-.45 5.297 5.297 0 0 0-2.011.392 5.112 5.112 0 0 0-1.689 1.114 5.353 5.353 0 0 0-1.155 1.729 5.717 5.717 0 0 0-.428 2.256c0 .834.145 1.57.437 2.246.272.65.668 1.24 1.166 1.738.48.48 1.05.858 1.68 1.114.628.26 1.3.393 1.98.39.685 0 1.37-.156 2.01-.468a4.334 4.334 0 0 0 1.583-1.29v1.542h2.058V41.047l-2.058.888Zm-.233 10.608a3.384 3.384 0 0 1-3.176 2.179c-.491 0-.949-.091-1.37-.274a3.294 3.294 0 0 1-1.096-.762 3.496 3.496 0 0 1-.728-1.143 3.705 3.705 0 0 1-.262-1.396c0-.496.087-.96.262-1.397.166-.421.413-.807.728-1.134a3.433 3.433 0 0 1 2.466-1.025c.493 0 .948.094 1.369.283.408.18.777.44 1.088.762.632.68.984 1.58.98 2.51 0 .482-.086.962-.261 1.397ZM96.297 41.41c-.382 0-.698.127-.947.383a1.32 1.32 0 0 0-.373.962c-.01.357.12.703.366.96.25.26.597.399.956.384a1.282 1.282 0 0 0 1.22-.755c.071-.154.11-.322.117-.492v-.097a1.303 1.303 0 0 0-.75-1.228 1.284 1.284 0 0 0-.49-.118h-.1ZM113.735 41.41c-.382 0-.698.127-.947.383a1.32 1.32 0 0 0-.373.962c-.01.357.12.703.366.96.249.26.597.399.956.384a1.276 1.276 0 0 0 .925-.345 1.304 1.304 0 0 0 .412-.902v-.097a1.31 1.31 0 0 0-.343-.931 1.29 1.29 0 0 0-.897-.415h-.099ZM95.248 45.89h2.116v10.548h-2.116V45.891Zm12.95.006v1.517a4.08 4.08 0 0 0-1.561-1.277 4.642 4.642 0 0 0-2.011-.459c-.696 0-1.369.13-2.01.391a5.116 5.116 0 0 0-1.689 1.114 5.34 5.34 0 0 0-1.155 1.73 5.713 5.713 0 0 0-.428 2.256c0 .833.145 1.569.437 2.246.272.65.668 1.24 1.166 1.738.48.48 1.051.858 1.68 1.114.627.26 1.301.393 1.98.39.685 0 1.392-.16 2.039-.477a4.15 4.15 0 0 0 1.572-1.319v.821c0 .482-.081.92-.242 1.319a3.066 3.066 0 0 1-.68 1.025 3.012 3.012 0 0 1-1.05.664 3.787 3.787 0 0 1-1.369.235c-.855 0-1.547-.133-2.077-.4a3.928 3.928 0 0 1-1.417-1.26l-1.689 1.386a5.609 5.609 0 0 0 2.088 1.64c.822.377 1.867.567 3.136.567.751 0 1.452-.126 2.107-.38a5.139 5.139 0 0 0 1.709-1.075 4.973 4.973 0 0 0 1.144-1.66 5.324 5.324 0 0 0 .417-2.139v-9.707h-2.097Zm-.143 6.647a3.384 3.384 0 0 1-3.176 2.179c-.491 0-.949-.091-1.369-.274a3.287 3.287 0 0 1-1.097-.762 3.485 3.485 0 0 1-.728-1.143 3.689 3.689 0 0 1-.261-1.396c0-.496.086-.96.261-1.397.166-.421.413-.807.728-1.134.65-.66 1.54-1.03 2.466-1.025.493 0 .949.094 1.369.283.408.18.777.44 1.088.762.633.68.984 1.58.981 2.51 0 .482-.087.962-.262 1.397Zm4.592-6.652h2.116v10.547h-2.116V45.891Zm9.322 8.75a1.324 1.324 0 0 1-1-.39c-.253-.261-.378-.684-.378-1.27v-5.196h2.932V45.89h-2.932v-3.634l-2.058.888v2.746h-2.078v1.894h2.078V53c0 1.302.284 2.233.855 2.793.569.56 1.378.84 2.427.84.44 0 .845-.055 1.214-.165a3.49 3.49 0 0 0 1-.478l-.991-1.757a1.572 1.572 0 0 1-1.069.41v-.001Zm12.56-6.463c-.2-.51-.513-.967-.913-1.338h.003a4.13 4.13 0 0 0-1.485-.862 6.234 6.234 0 0 0-2.011-.302c-1.127 0-2.095.227-2.902.684a6.368 6.368 0 0 0-1.991 1.718l1.864 1.094c.288-.51.703-.938 1.204-1.24.506-.305 1.108-.458 1.806-.458.933 0 1.618.222 2.058.664.44.443.661 1.017.661 1.719v.175h-3.108c-1.475 0-2.63.31-3.466.928-.835.618-1.252 1.475-1.252 2.57 0 .442.081.856.242 1.24.159.381.401.722.708.996.336.296.73.519 1.155.654.46.157.993.235 1.603.235.88 0 1.683-.188 2.408-.567a4.492 4.492 0 0 0 1.708-1.503v1.855h2.019v-6.525c0-.638-.104-1.217-.311-1.737Zm-1.706 4.411a3.536 3.536 0 0 1-.65.939c-.262.272-.56.504-.884.693-.323.189-.669.337-1.03.439a3.96 3.96 0 0 1-1.107.156c-.7 0-1.21-.13-1.534-.391a1.298 1.298 0 0 1-.485-1.075c0-.52.21-.924.63-1.212.421-.286 1.117-.43 2.088-.43h2.972v.881Zm4.37 3.85h2.117V41.046l-2.117.913v14.478Z"/></svg>