<svg xmlns="http://www.w3.org/2000/svg" fill="none" viewBox="0 0 210 80"><path fill="#0078FB" fill-rule="evenodd" d="M49.191 22H28.397L18 39.51l10.397 17.512h20.794L59.59 39.51 49.19 22Zm-5.351 9.007H33.738l-5.045 8.504 5.045 8.504H43.84l5.045-8.504-5.045-8.504Z" clip-rule="evenodd"/><path fill="#737373" d="M35.763 34.4h6.03l3.01 5.078-3.01 5.078h-6.03l-3.01-5.078 3.01-5.078Z"/><path fill="#464646" d="m41.793 44.556-2.977-5.078-3.053 5.078h6.03Z"/><path fill="#C7C7C7" d="M41.793 34.4h-6.03l3.053 5.078 2.977-5.078Z"/><path fill="#989898" d="m41.793 34.4-2.977 5.078h6.009L41.793 34.4Zm-2.977 5.078L35.763 34.4l-3.01 5.078h6.063Z"/><path fill="#0058FB" d="M49.191 57.022 59.59 39.51H48.896l-5.046 8.504 5.341 9.007Z"/><path fill="#0078FB" d="m49.191 57.022 5.352-9.007H43.85l5.341 9.007Z"/><path fill="#4CBAFB" d="M54.554 31.007H43.84l5.045 8.504 5.67-8.504Z"/><path fill="#9DDAFB" d="m54.554 31.018-5.67 8.493h10.694l-5.035-8.493h.011Z"/><path fill="#0069E4" d="m38.794 57.022 5.046-9.007 5.351 9.007H38.794Z"/><path fill="#0101D7" d="M18 39.51h10.693l-5.648 8.505h10.693l5.21 9.007h-10.55l-5.353-9.007L18 39.51Z"/><path fill="#0035FB" fill-rule="evenodd" d="m28.693 39.51-5.626-8.503L18 39.511h10.693l5.045 8.504h-10.67l5.625-8.504Z" clip-rule="evenodd"/><path fill="#0027FB" d="M43.84 31.007 38.947 22l-5.209 9.007H43.84Z"/><path fill="#37A0FB" d="m49.191 22-5.351 9.007h10.714L49.191 22Z"/><path fill="#0101D7" d="M129.993 40.43h1.084l.547.909-.547.908h-1.084l-.547-.908.547-.909Z"/><path fill="#0A0B0F" d="M74.91 45.246v-11.12h1.456v11.12h-1.455Zm14.874-8.789c-.274-.295-.69-.558-1.248-.799a4.615 4.615 0 0 0-1.882-.36c-.887 0-1.543.163-1.96.48-.426.33-.634.767-.634 1.336 0 .394.11.711.328.941.22.23.548.416.985.57.46.142 1.03.295 1.719.448.799.164 1.488.372 2.079.613.58.24 1.029.569 1.346.974.318.394.47.93.47 1.598 0 .711-.185 1.291-.546 1.75-.362.46-.876.8-1.51 1.019-.625.219-1.336.328-2.124.328-1.795 0-3.36-.525-4.684-1.565l.7-1.193c.241.23.559.46.953.69.415.23.875.427 1.39.58a6.445 6.445 0 0 0 1.674.219c.82 0 1.456-.143 1.915-.427.449-.296.679-.712.679-1.27 0-.416-.132-.755-.394-1.007-.252-.251-.624-.46-1.117-.623a21.31 21.31 0 0 0-1.816-.504 13.55 13.55 0 0 1-1.96-.613c-.525-.23-.93-.525-1.203-.897-.263-.361-.383-.843-.383-1.423 0-.711.175-1.313.536-1.806.361-.492.854-.864 1.477-1.116.624-.252 1.336-.372 2.124-.372s1.466.11 2.09.339a5.71 5.71 0 0 1 1.685.93l-.678 1.139-.011.021Zm11.688 8.865c-.809 0-1.543-.153-2.21-.47a5.44 5.44 0 0 1-1.719-1.27 6.175 6.175 0 0 1-1.105-1.817 5.893 5.893 0 0 1-.394-2.08c0-.743.131-1.444.405-2.111a6.192 6.192 0 0 1 1.15-1.806 5.756 5.756 0 0 1 1.728-1.259 4.91 4.91 0 0 1 2.156-.47c.81 0 1.544.164 2.211.481a5.487 5.487 0 0 1 1.707 1.303 6.32 6.32 0 0 1 1.106 1.816 5.746 5.746 0 0 1-.011 4.181 5.915 5.915 0 0 1-1.149 1.806 5.354 5.354 0 0 1-1.718 1.237 5.232 5.232 0 0 1-2.157.46Zm-3.94-5.636c0 .569.088 1.116.274 1.642.197.525.47.985.81 1.39.34.404.766.733 1.248.974.481.24 1.028.36 1.619.36s1.171-.12 1.653-.371c.482-.252.897-.58 1.237-1.007.35-.416.613-.898.777-1.412a4.707 4.707 0 0 0-.022-3.218 4.037 4.037 0 0 0-.81-1.39 3.604 3.604 0 0 0-1.248-.974 3.473 3.473 0 0 0-1.587-.36c-.612 0-1.171.12-1.652.371a3.89 3.89 0 0 0-1.248.985c-.34.427-.602.898-.777 1.412a4.595 4.595 0 0 0-.273 1.576v.022Zm15.18-5.56 3.809 9.358 3.798-9.358h1.543l-4.673 11.12h-1.325l-4.684-11.12h1.543-.011Zm17.161 0h1.237l4.706 11.12h-1.664l-1.258-3.262-2.397-6.238-3.776 9.5h-1.554l4.717-11.12h-.011Zm11.36 0h1.456v9.872h6.424v1.259h-7.88v-11.13Zm21.189 9.861v1.259h-7.815v-11.12h7.672v1.248h-6.216v3.6h5.406v1.172h-5.395v3.841h6.358-.01Zm7.354-7.267v8.526h-1.455v-11.12h1.236l7.037 8.701v-8.679h1.456v11.109h-1.324l-6.939-8.526-.011-.011Zm19.24-1.346v9.872h-1.455v-9.872h-3.973v-1.259H193v1.259h-3.984Z"/></svg>