<svg xmlns="http://www.w3.org/2000/svg" fill="none" viewBox="0 0 210 80"><path fill="#000" d="M50.182 34.921c-.264-.566 0-1 .652-1h2.57c.434 0 .651.216.784.48l4.534 10.297h.047l4.705-10.306c.217-.481.699-.481 1.18-.481h2.003c.652 0 .916.434.652 1.001L59.6 51.377c-.085.217-.35.435-.736.435h-.218c-.396 0-.651-.218-.736-.435l-7.728-16.456ZM198.794 50.81c.264.567 0 1.002-.652 1.002h-2.57c-.434 0-.651-.218-.784-.482l-4.534-10.297h-.047l-4.704 10.306c-.218.482-.699.482-1.181.482h-2.003c-.652 0-.916-.434-.652-1.001l7.718-16.456c.085-.217.35-.434.737-.434h.217c.397 0 .652.217.737.434l7.718 16.446ZM77 33.476c4.535 0 8.02 3.4 8.02 8.077 0 .302-.046.869-.084 1.18-.048.435-.397.747-.784.747H72.296c.133 2.362 2.183 4.676 5.016 4.676 1.569 0 3.014-.7 3.883-1.266.52-.302.831-.482 1.18-.047l1.22 1.653c.302.35.434.699-.086 1.133-1.266 1.087-3.533 2.183-6.452 2.183-5.28 0-8.766-4.147-8.766-9.163-.019-4.931 3.476-9.173 8.71-9.173Zm3.959 7.245c-.132-2.097-1.87-3.882-4.015-3.882-2.352 0-4.185 1.7-4.45 3.883h8.465ZM88.12 35.176c0-.434.396-.83.83-.83h1.266c.35 0 .614.216.7.519l.519 1.483c.302-.35 2.617-2.447 6.102-2.447 5.319 0 7.284 3.75 7.284 8.294v8.776c0 .434-.397.831-.832.831h-2.484a.832.832 0 0 1-.831-.831v-8.946c0-2.796-1.351-4.317-3.619-4.317-2.748 0-4.619 2.012-4.836 2.617V50.98c0 .567-.264.832-1.001.832H88.95c-.435 0-.832-.397-.832-.832V35.177ZM110.177 37.538h-1.833a.832.832 0 0 1-.831-.831v-1.965c0-.482.349-.831.831-.831h1.833v-4.846c0-.435.396-.832.831-.832l2.484-.047c.435 0 .784.397.784.831v4.894h4.45c.481 0 .831.35.831.83v1.966c0 .434-.35.831-.831.831h-4.45v8.644c0 1.483.567 1.747 1.398 1.747.917 0 2.135-.52 2.664-.784.567-.264.832 0 1.002.387l.784 1.918c.217.482.047.831-.397 1.049-.435.264-3.013 1.313-5.101 1.313-3.448 0-4.449-2.097-4.449-5.196v-9.078ZM123.043 35.186c0-.435.396-.831.831-.831h1.266c.302 0 .652.264.746.614l.482 1.483c.302-.435 1.917-2.532 5.101-2.532 1.653 0 3.665.435 3.183 1.615l-1.048 2.145c-.217.481-.652.567-1.049.397-.264-.133-.916-.303-1.483-.303-2.531 0-3.75 1.833-3.92 2.145v11.09c0 .746-.482.831-1.181.831h-2.097a.857.857 0 0 1-.831-.831V35.186ZM145.327 29.367c0-.435.397-.831.831-.831h2.485c.434 0 .831.387.831.83V50.99c0 .434-.397.831-.831.831h-2.485c-.434 0-.831-.397-.831-.831V29.367ZM161.546 33.476c4.884 0 8.804 4.185 8.804 9.125s-3.92 9.21-8.804 9.21c-4.883 0-8.804-4.194-8.813-9.21 0-4.93 3.93-9.125 8.813-9.125Zm0 14.585c2.749 0 4.931-2.446 4.922-5.46 0-2.928-2.182-5.327-4.931-5.327s-4.931 2.399-4.931 5.327c0 3.014 2.191 5.46 4.94 5.46ZM200.853 35.176c0-.434.397-.83.831-.83h2.485c.434 0 .831.396.831.83V50.98c0 .435-.397.832-.831.832h-2.485c-.434 0-.831-.397-.831-.832V35.177ZM204.707 32.768h-3.561a.294.294 0 0 1-.293-.293v-3.571c0-.16.132-.293.293-.293h3.561c.161 0 .293.132.293.293v3.57c0 .161-.132.294-.293.294ZM177.785 51.812h-3.562a.294.294 0 0 1-.292-.293v-3.571c0-.16.132-.293.292-.293h3.562c.16 0 .293.133.293.293v3.57c0 .161-.133.294-.293.294ZM136.693 35.176c0-.434.397-.83.831-.83h2.484c.435 0 .832.396.832.83V50.98c0 .435-.397.832-.832.832h-2.484c-.434 0-.831-.397-.831-.832V35.177ZM140.547 32.758h-3.561a.294.294 0 0 1-.293-.293v-3.561c0-.16.132-.293.293-.293h3.561c.161 0 .293.132.293.293v3.57a.307.307 0 0 1-.293.284ZM22.004 23C12.614 23 5 30.614 5 40.004s7.614 17.003 17.004 17.003 17.003-7.614 17.003-17.003c0-9.39-7.614-17.004-17.003-17.004Zm0 5.97a2.613 2.613 0 0 1 2.607 2.607 2.612 2.612 0 0 1-2.607 2.608 2.612 2.612 0 0 1-2.608-2.608 2.612 2.612 0 0 1 2.608-2.607Zm7.755 6.83-6.971 14.85c-.076.198-.312.397-.671.397h-.208c-.359 0-.595-.199-.67-.397L14.266 35.8c-.236-.51 0-.907.595-.907h2.324c.397 0 .595.198.708.435l4.1 9.295h.038l4.25-9.295c.2-.435.634-.435 1.068-.435h1.814c.595 0 .831.397.595.907Z"/></svg>