<svg xmlns="http://www.w3.org/2000/svg" fill="none" viewBox="0 0 210 80"><path fill="#000" d="M47.739 39.723c0 6.879-5.538 12.455-12.37 12.455C28.538 52.178 23 46.603 23 39.723S28.538 27.27 35.37 27.27c6.83 0 12.369 5.576 12.369 12.454Zm13.57 0c0 6.475-2.77 11.724-6.186 11.724-3.415 0-6.184-5.25-6.184-11.724C48.939 33.25 51.708 28 55.123 28c3.416 0 6.185 5.25 6.185 11.723Zm5.55 0c0 5.802-.975 10.504-2.176 10.504s-2.175-4.704-2.175-10.504.974-10.503 2.175-10.503c1.202 0 2.175 4.702 2.175 10.503Zm34.137-11.374.035-.007v-.267h-7.035l-6.532 15.352-6.531-15.352h-7.58v.267l.033.007c1.284.29 1.936.722 1.936 2.28v18.249c0 1.558-.654 1.99-1.938 2.28l-.034.008v.267h5.143v-.266l-.034-.008c-1.284-.29-1.936-.722-1.936-2.28v-17.19l8.39 19.744h.477l8.635-20.295v18.191c-.11 1.231-.756 1.611-1.919 1.874l-.034.008v.264h8.959v-.264l-.035-.008c-1.164-.263-1.825-.643-1.935-1.874l-.006-18.7h.006c0-1.558.652-1.99 1.935-2.28Z"/><path fill="#000" d="M105 41.361h10.5v-.044c-.03-2.507-.756-4.457-2.156-5.796-1.211-1.157-3.003-1.794-4.885-1.794h-.042c-.977 0-2.176.237-3.028.666a7.064 7.064 0 0 0-2.539 2.004c-1.147 1.42-1.842 3.34-2.011 5.499a12.553 12.553 0 0 0-.025.378c-.015.304-.02.608-.015.911.114 4.888 2.754 8.794 7.444 8.794 4.116 0 6.513-3.009 7.111-7.048l-.302-.106c-1.05 2.17-2.936 3.486-5.083 3.326-2.93-.22-5.174-3.19-4.97-6.789H105Zm3.388-6.61c.61.01 1.121.21 1.518.595.844.82 1.241 2.532 1.18 5.091h-5.998c.147-3.278 1.324-5.645 3.3-5.686Zm25.95 16.438c-1.284-.304-1.936-.756-1.936-2.394V27l-7.801 2.298v.282l.048-.004c1.076-.087 1.806.062 2.23.453.332.307.493.777.493 1.44v2.987c-.769-.49-1.683-.73-2.794-.73-2.251 0-4.308.948-5.792 2.67-1.547 1.794-2.365 4.246-2.365 7.09-.001 5.08 2.5 8.493 6.221 8.493 2.177 0 3.929-1.193 4.73-3.204v2.7h7v-.28l-.034-.006Zm-6.966-3.204c-.344.817-1.063 1.266-2.026 1.266-.963 0-1.843-.66-2.469-1.862-.672-1.29-1.025-3.112-1.025-5.272 0-4.494 1.398-7.4 3.561-7.4.906 0 1.619.449 1.959 1.233v12.035Zm13.657-18.02c0-1.587-1.196-2.783-2.783-2.783-1.586 0-2.814 1.222-2.814 2.782s1.237 2.782 2.814 2.782c1.578 0 2.783-1.196 2.783-2.782Zm1.841 21.224c-1.284-.304-1.936-.756-1.936-2.394h-.005V33.778l-7 2.01v.273l.042.003c1.514.135 1.929.657 1.929 2.427v12.984h7.006v-.28l-.036-.006Zm17.937 0c-1.284-.304-1.936-.756-1.936-2.394V33.778l-6.665 1.943v.274l.04.004c1.238.13 1.596.682 1.596 2.46v9.492c-.413.817-1.188 1.302-2.126 1.335-1.522 0-2.36-1.028-2.36-2.894V33.778l-7 2.01v.273l.042.003c1.515.135 1.93.657 1.93 2.427v8.034c-.004.56.045 1.12.146 1.672l.126.548c.592 2.124 2.145 3.234 4.578 3.234 2.06 0 3.866-1.275 4.662-3.271v2.772h7v-.28l-.033-.011Zm27.193.286v-.28l-.034-.008c-1.393-.321-1.936-.927-1.936-2.16V38.812c0-3.185-1.789-5.086-4.785-5.086-2.184 0-4.026 1.262-4.735 3.228-.563-2.083-2.184-3.228-4.581-3.228-2.105 0-3.755 1.111-4.462 2.988v-2.935l-7 1.928v.274l.042.004c1.496.133 1.929.67 1.929 2.394v13.096h6.531v-.28l-.034-.008c-1.112-.261-1.471-.737-1.471-1.96V37.52c.294-.687.887-1.5 2.059-1.5 1.455 0 2.192 1.008 2.192 2.994v12.462h6.533v-.28l-.034-.008c-1.112-.261-1.47-.737-1.47-1.96V38.811a6.863 6.863 0 0 0-.093-1.163c.312-.746.938-1.63 2.158-1.63 1.475 0 2.192.98 2.192 2.995v12.462H188Z"/></svg>