<svg xmlns="http://www.w3.org/2000/svg" fill="none" viewBox="0 0 210 80"><path fill="#000" d="M99.682 50.46c-1.09 0-2.12.012-3.148-.013-.118 0-.267-.198-.335-.335-.056-.123-.012-.29-.012-.433V35.882c-.038-.019-.081-.031-.118-.05l-.837 1.197-1.952 3.253-1.965 3.186c-.682 1.03-2.349 1.736-3.713 1.03-.874-.453-1.332-1.185-1.81-1.947l-1.66-2.764-1.45-2.393-1.042-1.611-.136.006v14.007c0 .447-.221.672-.663.676-.8 0-1.6-.013-2.4 0-.346.006-.489-.075-.489-.459l.044-16.802c.03-1.946 1.692-3.062 3.6-2.535.912.254 1.432 1.041 1.879 1.86l2.126 3.687 1.487 2.628 1.84 3.105 1.401-2.318 1.587-2.733 2.046-3.577c.39-.663.756-1.363 1.251-1.94.924-1.072 2.684-1.17 3.738-.117.545.545.775 1.208.775 1.983v16.66l-.025.545h-.019ZM18.83 32.466v.725l.013 18.42c0 .496-.118.651-.62.633-.899-.044-1.797-.025-2.696 0-.366.006-.527-.081-.527-.49l.031-22.492c.006-1.612 1.463-2.721 3.124-2.077.719.28 1.314.88 1.946 1.358l2.665 2.039 3.861 2.925 3.006 2.219 4.333 3.285 2.677 2.014c.75.508 1.103 1.196 1.11 2.046l.018 8.67c0 .403-.149.503-.514.496a62.165 62.165 0 0 0-2.845 0c-.397.013-.496-.13-.49-.508l.037-7.053c.031-.812-.365-1.209-.905-1.605l-1.995-1.45-3.136-2.368-3.793-2.851-2.108-1.556-2.646-2.045c-.137-.106-.292-.18-.546-.341v.006Zm40.603.068c-.242.124-.397.174-.514.267l-3.83 2.906-3.13 2.387-2.443 1.816-3.867 2.931c-.118.087-.242.161-.366.242-.558.372-.917.775-.892 1.568.074 2.33.018 4.667.037 7.004 0 .452-.13.595-.583.582-.93-.03-1.86-.018-2.795 0-.347.007-.446-.117-.446-.452l.018-8.814c0-.83.385-1.456 1.097-1.94.924-.62 1.779-1.338 2.672-2.008l4.896-3.663 3.248-2.51 3.037-2.262 3.811-2.907c1.097-.874 2.355-.892 3.136-.099.292.298.49.707.657 1.097.1.223.056.514.056.775l.013 22.188c0 .477-.143.62-.614.602a34.245 34.245 0 0 0-2.647 0c-.464.018-.57-.155-.57-.59l.006-18.413v-.7l.013-.007ZM195 50.453c-1.549 0-2.938.013-4.32-.012-.161 0-.372-.143-.477-.285l-4.035-5.665-1.004-1.37c-.124-.155-.329-.347-.502-.353l-3.192-.019v.639l.006 6.563c0 .378-.093.515-.49.502a45.3 45.3 0 0 0-2.596 0c-.348.006-.496-.093-.49-.465V33.782c-.006-1.667 1.512-3.322 3.353-3.248 2.399.1 4.803-.018 7.196.136 1.574.106 3.031.75 4.016 2.102.502.688.769 1.512.862 2.349.124 1.103.136 2.23-.261 3.29-.44 1.19-1.115 2.238-2.262 2.883-.459.26-.936.496-1.419.712-.279.124-.335.23-.137.503l3.924 5.386 1.828 2.56Zm-11.051-10.958a.484.484 0 0 0 .012.093c1.147-.117 2.306-.16 3.44-.36 2.157-.383 2.727-2.305 1.928-4.015-.446-.961-1.45-1.228-2.374-1.302-1.704-.142-3.421-.118-5.132-.167-.291-.007-.353.142-.353.396v4.996c0 .285.111.372.378.366.7-.013 1.407 0 2.107 0l-.006-.007Zm-24.537 2.325V46.536c0 .676 0 .682.7.682l7.642-.006c.273 0 .552.05.824.08.868.1 1.364 1.017 1.24 1.835-.118.787-.725 1.326-1.599 1.332h-9.26c-1.58 0-3.093-1.307-3.074-3.284V33.954c0-.836.13-1.654.744-2.299.601-.632 1.295-1.085 2.206-1.085l9.452-.012c.682 0 1.171.366 1.394.893.248.588.242 1.22-.291 1.81-.396.433-.824.476-1.301.483h-8.033c-.657 0-.657 0-.657.632l-.012 3.675c-.006.397.124.496.502.496l7.251-.006c.577 0 1.116.136 1.537.601.471.52.459 1.128.261 1.692-.18.508-.595.893-1.19.96a5.448 5.448 0 0 1-.639.032h-7.716l.019-.006Zm-53.191 8.633.923-2.262 1.469-3.744 1.085-2.696 1.506-3.898 1.587-3.793a7.9 7.9 0 0 0 .353-1.06c.273-1.004.818-1.804 1.791-2.225.75-.329 1.537-.322 2.312.025 1.283.57 1.593 1.797 2.027 2.95l.582 1.593 2.033 5.138 1.624 3.93 1.897 4.995c.124.322.291.626.502 1.06h-1.432c-.57 0-1.147-.025-1.717.006-.365.018-.57-.118-.706-.446l-1.023-2.411-.861-2.108c-.062-.13-.354-.204-.54-.204l-5.194-.013c-.719 0-1.437-.012-2.156.013-.18.006-.453.111-.521.248l-1.097 2.479-.905 2.194c-.043.105-.217.223-.328.223l-3.217.012.006-.006Zm9.848-15.556-.21-.025-2.752 7.09h5.659l-2.703-7.06.006-.005Zm33.296 15.563h-1.258c-.781 0-1.569-.013-2.349 0-.503.012-.874-.075-1.271-.496-2.027-2.132-4.115-4.215-6.192-6.297-.886-.893-1.803-1.754-2.758-2.684-.025.18-.074.372-.074.558l.006 8.18c0 .489-.236.732-.707.732-.799 0-1.599-.012-2.398 0-.322.006-.422-.111-.422-.427l.013-17.881c0-.707.427-1.203.979-1.45.589-.267 1.246-.267 1.841.198.539.421.688.973.688 1.586v6.465c0 .186.037.365.056.551l.13.056 2.051-2.107 2.486-2.523 3.334-3.371c.508-.484.961-1.091 1.841-1.017.781.068 1.134.54 1.419 1.153.26.564.006 1.035-.341 1.432-.558.626-1.177 1.208-1.772 1.803l-4.277 4.264c-.093.093-.186.186-.266.286-.509.626-.533.644.018 1.264.484.54 1.029 1.016 1.537 1.53l1.364 1.408 1.989 2.014 3.031 3.21c.453.478.917.943 1.382 1.407-.025.05-.043.093-.068.143l-.012.012Z"/></svg>