<svg xmlns="http://www.w3.org/2000/svg" fill="none" viewBox="0 0 1000 230"><g fill="#000" clip-path="url(#a)"><path d="M321.178 83.812h-30.266v58.595c0 5.047 1.133 8.674 3.42 10.857 2.287 2.205 5.645 3.421 10.137 3.668 4.471.247 10.054.206 16.729-.124v23.673c-20.19 2.452-34.674.68-43.451-5.254-8.798-5.934-13.186-16.874-13.186-32.841V83.792h-22.457V58.409h22.457V32.058l26.372-7.808v34.18h30.265v25.382h-.02ZM512.578 163.154v66.156h-26.372V58.43l26.372-8.736v113.46ZM744.401 180.481h-31.502l-50.044-56.39v56.39h-26.371V8.736L662.855 0v112.368l47.366-53.959h32.223l-53.712 59.81 55.669 62.241v.021ZM773.224 130.684c1.958 9.271 6.429 16.4 13.434 21.365 7.005 4.965 15.534 7.438 25.63 7.438 13.989 0 24.496-5.048 31.481-15.143l21.736 12.691c-12.053 17.739-29.874 26.619-53.465 26.619-19.861 0-35.89-6.057-48.087-18.192-12.197-12.115-18.316-27.464-18.316-46.007 0-18.542 6.016-33.48 18.069-45.78 12.053-12.278 27.505-18.439 46.377-18.439 17.904 0 32.594 6.264 44.069 18.79 11.476 12.527 17.204 27.752 17.204 45.656 0 2.761-.33 6.428-.969 10.981h-97.163v.021Zm-.247-21.489h71.781c-1.793-9.93-5.893-17.41-12.321-22.457-6.428-5.048-13.948-7.561-22.581-7.561-9.765 0-17.903 2.678-24.414 8.055-6.51 5.378-10.652 12.692-12.444 21.963h-.021ZM971.939 58.43h28.081l-46.871 125.965c-11.723 31.564-31.584 46.542-59.563 44.915v-24.662c8.303.495 14.979-1.257 20.026-5.254 5.048-3.997 9.189-10.219 12.444-18.666l1.216-2.431L875.518 58.43h28.802l36.385 88.613L971.96 58.43h-.021Z"/><path d="M550.652 182.974c-17.904 0-33.129-6.181-45.656-18.563-12.526-12.362-18.79-27.588-18.79-45.656 0-18.069 6.264-33.274 18.79-45.656 12.527-12.362 27.752-18.563 45.656-18.563s33.315 6.18 45.78 18.563c12.444 12.361 18.666 27.587 18.666 45.656 0 18.068-6.222 33.294-18.666 45.656-12.445 12.361-27.711 18.563-45.78 18.563Zm-27.093-36.612c7.314 7.315 16.359 10.982 27.093 10.982 10.734 0 19.779-3.667 27.093-10.982 7.314-7.314 10.981-16.523 10.981-27.587 0-11.063-3.667-20.252-10.981-27.587-7.314-7.314-16.359-10.981-27.093-10.981-10.734 0-19.779 3.667-27.093 10.981s-10.981 16.524-10.981 27.587c0 11.064 3.667 20.253 10.981 27.587ZM399.057 182.974c-17.904 0-33.13-6.181-45.656-18.563-12.527-12.362-18.79-27.588-18.79-45.656 0-18.069 6.263-33.274 18.79-45.656 12.526-12.362 27.752-18.563 45.656-18.563 17.903 0 33.314 6.18 45.779 18.563 12.444 12.361 18.666 27.587 18.666 45.656 0 18.068-6.222 33.294-18.666 45.656-12.444 12.361-27.711 18.563-45.779 18.563Zm-27.093-36.612c7.314 7.315 16.358 10.982 27.093 10.982 10.734 0 19.778-3.667 27.092-10.982 7.314-7.314 10.982-16.523 10.982-27.587 0-11.063-3.668-20.252-10.982-27.587-7.314-7.314-16.358-10.981-27.092-10.981-10.735 0-19.779 3.667-27.093 10.981s-10.982 16.524-10.982 27.587c0 11.064 3.668 20.253 10.982 27.587ZM40.237 58.636l38.63 29.441a15.895 15.895 0 0 0 9.622 3.255c3.462 0 6.737-1.092 9.498-3.152l39.619-29.647c3.4-2.535 5.584-6.243 6.202-10.446.597-4.203-.453-8.365-3.008-11.764-5.233-7.005-15.205-8.427-22.21-3.194l-29.4 22.004c-.371.268-.886.289-1.257 0L59.192 33.212a15.95 15.95 0 0 0-12.238-3.029c-4.306.721-8.159 3.235-10.59 6.86-4.615 6.944-2.905 16.421 3.873 21.593ZM137.4 178.894l-38.63-29.441a15.899 15.899 0 0 0-9.622-3.255 15.75 15.75 0 0 0-9.498 3.152l-39.619 29.647c-3.4 2.535-5.583 6.243-6.201 10.446-.598 4.203.453 8.365 3.008 11.764 5.233 7.005 15.184 8.427 22.21 3.194l29.4-22.004c.37-.268.886-.268 1.257 0l28.741 21.921a15.913 15.913 0 0 0 9.642 3.256c.865 0 1.73-.062 2.596-.206a15.91 15.91 0 0 0 10.59-6.882c4.615-6.922 2.905-16.42-3.874-21.592ZM152.461 119.105a1.083 1.083 0 0 1 0-1.257l21.901-28.74c2.658-3.462 3.75-7.933 3.029-12.239-.722-4.306-3.235-8.159-6.882-10.59-6.943-4.615-16.42-2.905-21.592 3.874l-29.441 38.63a15.89 15.89 0 0 0-3.255 9.621c0 3.462 1.092 6.738 3.152 9.498l29.647 39.62c3.111 4.161 7.891 6.345 12.712 6.345a15.82 15.82 0 0 0 9.478-3.152c7.005-5.233 8.426-15.205 3.193-22.21l-22.004-29.4h.062ZM61.376 119.146c0-3.44-1.092-6.737-3.152-9.498L28.576 70.029c-2.534-3.4-6.242-5.583-10.445-6.201-4.203-.598-8.365.453-11.765 3.008-7.005 5.233-8.426 15.204-3.193 22.21l22.004 29.4c.268.371.268.886 0 1.257l-21.942 28.74c-2.637 3.482-3.75 7.933-3.029 12.239.721 4.306 3.235 8.158 6.881 10.589a15.494 15.494 0 0 0 8.612 2.596c4.904 0 9.766-2.245 12.98-6.469l29.442-38.63a15.895 15.895 0 0 0 3.255-9.622Z"/></g><defs><clipPath id="a"><path fill="#fff" d="M0 0h1000v229.433H0z"/></clipPath></defs></svg>