<svg xmlns="http://www.w3.org/2000/svg" fill="none" viewBox="0 0 210 80"><path fill="#68BAAE" fill-rule="evenodd" d="M43.951 25.133v12.942H21.982V25.133H18v29.8h3.982V41.992h21.97v12.943h3.982V25.133H43.95Zm74.403-.067H92.469v3.983h10.951V55h3.983V29.049h10.951v-3.983Zm70.487.067v12.942h-22.036V25.133h-3.982v29.8h3.982V41.992h22.036v12.943h3.916V25.133h-3.916ZM72.889 25c-8.23 0-15 6.703-15 15a14.986 14.986 0 0 0 15 15c2.523 0 4.912-.664 7.036-1.792v-4.779a10.99 10.99 0 0 1-7.036 2.522c-6.04 0-11.017-4.911-11.017-11.017 0-6.107 4.978-10.952 11.017-10.952 6.04 0 11.018 4.912 11.018 11.018v15h3.982V40a14.988 14.988 0 0 0-15-15Zm75.465 18.252c-1.394 4.514-5.575 7.766-10.487 7.766-6.04 0-11.017-4.912-11.017-11.018a10.99 10.99 0 0 1 11.017-11.018c4.912 0 9.159 3.252 10.487 7.766h4.115c-1.46-6.704-7.5-11.748-14.602-11.748-8.23 0-15 6.703-15 15a14.986 14.986 0 0 0 15 15c7.168 0 13.142-5.044 14.602-11.748h-4.115Z" clip-rule="evenodd"/></svg>