<svg xmlns="http://www.w3.org/2000/svg" fill="none" viewBox="0 0 210 80"><path fill="#121D28" d="M20 40.244c.156-.557.266-1.133.481-1.668 1.068-2.614 3.83-4.236 6.534-3.866 2.947.402 5.146 2.578 5.517 5.47.037.288.055.58.055.873.005 4.428.005 8.857.01 13.28h-.308c-.206-.05-.412-.11-.618-.146-5.65-.973-10.292-5.493-11.369-11.082-.114-.598-.201-1.197-.302-1.796v-1.065Zm7.03 4.762c1.282.037 2.391-1.014 2.432-2.321.041-1.303-.994-2.422-2.286-2.464-1.361-.04-2.443.974-2.488 2.331-.042 1.307 1.012 2.413 2.341 2.45v.004Zm8.7 9.327c-.004-.608-.013-1.22-.013-1.828 0-3.82-.018-7.64.005-11.46.018-2.73 1.292-4.735 3.785-5.832 2.437-1.07 4.756-.649 6.735 1.124 1.577 1.408 2.241 3.231 1.984 5.347-.508 4.264-2.497 7.668-5.993 10.172-1.787 1.28-3.785 2.057-5.957 2.395-.083.014-.16.055-.243.078h-.307l.005.004Zm5.44-14.111a2.38 2.38 0 0 0-2.383 2.399 2.4 2.4 0 0 0 2.406 2.39 2.388 2.388 0 0 0 2.36-2.39 2.37 2.37 0 0 0-2.379-2.4h-.004ZM190 49.685h-7.968c.417-.411.765-.79 1.145-1.124.362-.316.518-.677.513-1.166-.023-2.248 0-4.492-.036-6.74-.01-.563-.129-1.134-.275-1.682-.39-1.462-2.255-1.663-3.144-.914a4.19 4.19 0 0 0-.614.621.912.912 0 0 0-.188.512c-.009 2.793-.004 5.585-.009 8.377 0 .384.133.676.422.932.408.357.793.74 1.242 1.17h-7.932c.22-.215.408-.388.586-.567 1.196-1.188 1.059-.644 1.063-2.44 0-2.934 0-5.863.005-8.797 0-.439-.133-.781-.449-1.083-.399-.384-.779-.786-1.228-1.238h6.291v2.732c.358-.539.646-1.092 1.045-1.544 1.521-1.728 4.404-1.988 6.071-.54 1.064.923 1.65 2.14 1.682 3.547.06 2.522.069 5.05.069 7.577 0 .525.128.932.541 1.265.403.325.774.686 1.163 1.029v.077l.005-.004ZM35.2 26c.732.128 1.48.215 2.203.388 3.593.873 6.406 2.87 8.491 5.91.028.04.046.086.087.164-4.78-1.787-8.692-.65-11.8 3.318-3.097-3.967-7.019-5.11-11.849-3.35.477-.599.921-1.225 1.435-1.787 2.355-2.573 5.27-4.085 8.738-4.543.233-.027.472-.063.706-.1h1.988Zm70.881 23.69h-7.482c.37-.415.669-.786 1.003-1.12.33-.328.454-.694.454-1.156-.014-3.162-.014-6.32 0-9.482 0-.48-.129-.855-.486-1.184-.394-.365-.756-.772-1.182-1.21h6.213v2.787c.028.018.055.041.087.06.766-2.043 2.172-3.145 4.39-3.103 2.232.04 3.538 1.233 4.175 3.313.22-.448.384-.86.609-1.239 1.32-2.216 4.637-2.801 6.557-1.151.871.749 1.279 1.759 1.444 2.86.1.677.155 1.362.164 2.043.023 2.07.019 4.136 0 6.206 0 .489.115.882.472 1.23.349.333.647.712 1.013 1.123h-7.441c.362-.447.724-.84 1.012-1.275.174-.26.326-.589.33-.89.028-2.309.023-4.62.009-6.929 0-.443-.036-.89-.128-1.32-.312-1.522-1.938-2.116-3.189-1.184-.124.091-.234.197-.348.297-.321.279-.468.603-.463 1.056.023 2.691.018 5.383.004 8.07 0 .393.101.713.381.996.362.37.701.764 1.099 1.193h-7.528c.412-.475.811-.877 1.145-1.334.175-.238.321-.562.326-.85.027-2.285.023-4.57.009-6.855 0-.48-.041-.964-.138-1.435-.27-1.344-1.736-2.002-2.932-1.307-.642.37-1.082.85-1.063 1.723.055 2.614.023 5.228.014 7.842 0 .402.1.735.389 1.028.357.356.678.754 1.077 1.197h.004Zm66.378-7.12c-.009 1.234-.165 2.436-.66 3.57-.751 1.718-2.062 2.856-3.821 3.431-2.154.704-4.339.704-6.47-.096-2.36-.882-3.638-2.66-4.028-5.104-.215-1.353-.188-2.705.138-4.044.54-2.235 1.906-3.77 4.069-4.51 2.424-.828 4.861-.787 7.198.328 2.067.987 3.162 2.71 3.464 4.95.064.488.078.982.11 1.475Zm-5.223-.507c-.065-.795-.161-2.212-.312-3.62-.078-.721-.293-1.416-.77-1.996-.664-.805-1.75-.846-2.47-.096-.458.475-.682 1.074-.788 1.704-.485 2.953-.458 5.91-.064 8.866.101.759.316 1.494.852 2.084.683.754 1.861.736 2.461-.082.289-.4.505-.847.637-1.321.435-1.609.394-3.263.458-5.539h-.004Zm-82.054.53c-.014 1.243-.179 2.459-.692 3.601-.697 1.563-1.87 2.655-3.46 3.25-2.259.845-4.563.863-6.827.018-2.36-.882-3.634-2.678-4.014-5.123-.206-1.325-.188-2.655.124-3.967.554-2.326 1.984-3.893 4.252-4.62 2.341-.75 4.697-.708 6.956.347 2.085.974 3.221 2.683 3.533 4.94.073.512.087 1.033.128 1.55v.004Zm-9.957-.375c.073 1.33.114 2.66.229 3.985.082.96.247 1.92.875 2.71.674.85 1.897.832 2.57-.018.45-.567.647-1.234.748-1.928.398-2.729.375-5.461.06-8.194-.097-.832-.28-1.655-.83-2.335-.628-.777-1.796-.873-2.433-.11-.353.42-.614.969-.761 1.503-.39 1.43-.39 2.911-.458 4.383v.005Zm57.397 5.238c-.124.219-.22.393-.321.566-.999 1.673-2.552 2.148-4.376 1.997-1.338-.114-2.443-.68-3.167-1.846-.829-1.33-.93-3.98 1.068-5.383 1.425-1.001 3.011-1.257 4.683-1.051.72.087 1.421.324 2.154.502 0-.187.004-.461 0-.735-.028-1.18 0-2.363-.101-3.533-.078-.914-.504-1.677-1.448-2.01-.71-.252-1.407-.129-2.089.105-.101.032-.188.25-.188.383-.014 1.106-.01 2.208-.01 3.313v.53c-.265-.09-.508-.11-.65-.237-1.164-1.097-2.31-2.216-3.455-3.332-.028-.027-.046-.059-.101-.137.463-.141.903-.278 1.343-.41 1.846-.558 3.711-1.01 5.659-.865.815.06 1.654.17 2.428.416 1.81.58 2.768 1.938 3.093 3.761a9.99 9.99 0 0 1 .142 1.705c.019 1.828 0 3.656.009 5.484 0 .224.023.461.101.671.225.608.94.704 1.343.197.146-.183.261-.393.408-.617.142 1.248-1.132 2.742-2.553 3.04-1.998.415-3.299-.39-3.963-2.5l-.009-.014Zm.036-4.703c-.71 0-1.361-.036-2.002.014-.33.023-.678.146-.967.315-1.352.786-1.773 2.984-.784 4.21.229.282.61.543.963.616.866.183 1.686-.032 2.414-.562.271-.201.404-.443.39-.804-.032-.736-.009-1.472-.009-2.208v-1.58h-.005Z"/><path fill="#121D28" d="M72.338 29.898c-.632 1.426-1.255 2.829-1.92 4.323-.357-.809-.678-1.535-.999-2.257-.266-.604-.527-1.207-.797-1.81-.234-.512-.752-.58-1.054-.1-.202.32-.358.722-.38 1.092-.078 1.453-.092 2.91-.133 4.41h2.327v.713H67.12c-.01.16-.028.278-.028.402 0 3.564 0 7.133-.004 10.698 0 .365.119.612.421.827.628.452 1.228.941 1.907 1.462h-8.409c.34-.36.623-.708.953-1.014.39-.366.541-.777.536-1.316-.018-3.515-.009-7.029-.009-10.548v-.493H60.97v-.713h1.471c.065-.676.097-1.307.188-1.929.22-1.499.775-2.81 2.14-3.642.967-.59 2.04-.759 3.144-.763a15.59 15.59 0 0 1 4.183.562c.069.018.138.05.243.087v.009Zm66.923 6.384v-.731c.371 0 .747-.014 1.118 0 .481.018.848-.146 1.169-.512 1.154-1.316 2.332-2.614 3.505-3.916.092-.1.188-.197.339-.352v4.78h1.535c.715 0 .83.064 1.283.722h-2.809v9.5c0 .252.023.508.078.755.119.576.385 1.065.999 1.234.646.178 1.233.027 1.718-.457.115-.114.216-.238.321-.357l.087.041c-.091.266-.165.535-.279.787-.752 1.645-2.113 2.284-3.845 2.28-1.214 0-2.295-.325-3.01-1.394-.495-.74-.646-1.59-.646-2.468v-9.912h-1.563Zm-47.032-.75v.471c0 3.693.005 7.385-.009 11.078 0 .475.165.786.564 1.028.802.484 1.58 1 2.456 1.554h-9.068c.28-.325.504-.64.788-.891.509-.448.66-.983.65-1.655-.032-3.07-.018-6.142-.009-9.208 0-.462-.11-.84-.476-1.142-.422-.348-.83-.709-1.242-1.065.046-.055.092-.114.142-.17h6.204Zm64.229 14.145h-7.51c.389-.435.719-.832 1.077-1.198.256-.265.371-.557.371-.923v-9.78c0-.36-.115-.658-.38-.918-.427-.411-.825-.85-1.283-1.32h6.282v.46c0 3.83 0 7.66-.005 11.49 0 .393.101.708.381.991.352.357.673.75 1.067 1.193v.005Zm-1.429-18.851a2.33 2.33 0 0 1-2.314 2.335c-1.316.01-2.36-1.042-2.356-2.372 0-1.28 1.045-2.33 2.314-2.34 1.311-.009 2.351 1.042 2.356 2.377Zm-57.507 9.482c-.27-.105-.5-.132-.633-.26-1.163-1.152-2.313-2.322-3.464-3.483-.05-.05-.091-.114-.137-.169.903-1.361 3.093-1.512 4.124-.292.055.064.105.15.105.228.005 1.28.005 2.56.005 3.976Z"/></svg>