<svg xmlns="http://www.w3.org/2000/svg" fill="none" viewBox="0 0 210 80"><path fill="#333" d="M20.003 39.727v-9.729c.005-2.825 1.91-4.742 4.741-4.747 6.496-.012 12.99-.018 19.486 0 2.82.005 4.736 1.934 4.742 4.765.017 6.448.017 12.897 0 19.346-.006 2.889-1.917 4.794-4.812 4.8-6.46.011-12.92.011-19.386 0-2.884 0-4.76-1.911-4.771-4.812-.006-3.21 0-6.414 0-9.623Zm26.417-6.938c.012-2.925-2.382-5.354-5.295-5.354-2.907 0-5.347 2.423-5.347 5.324 0 2.936 2.382 5.33 5.312 5.336a5.297 5.297 0 0 0 5.33-5.3v-.007Zm55.981 1.537c0 6.828.1 13.556-.04 20.278-.076 3.63-2.196 6.134-5.476 7.51-3.589 1.502-7.23 1.304-10.742-.345-1.573-.74-2.715-1.98-3.588-3.664l2.341-1.334c2.36 3.758 5.907 4.043 9.7 3.356 2.807-.507 4.572-2.412 4.974-5.249.181-1.27.03-2.586.03-4.066-2.232 3.21-5.301 4.404-8.995 4.142-2.79-.198-5.08-1.427-6.955-3.472-3.798-4.148-3.414-10.888.763-14.942 3.402-3.303 11.12-4.369 15.268 1.427v-3.64h2.72ZM91.875 36.47a7.913 7.913 0 0 0-8.132 7.666c-.151 4.445 3.268 8.05 7.788 8.208 4.428.151 8.033-3.245 8.18-7.701.139-4.433-3.321-8.045-7.836-8.167v-.006Z"/><path fill="#FAB800" d="M168.664 34.303h2.61v3.862c2.406-3.442 5.552-4.619 9.309-4.299 2.825.24 5.109 1.562 6.944 3.694 3.745 4.351 3.163 10.992-1.247 14.959-3.559 3.204-10.963 3.897-14.93-1.695v11.72h-2.686v-28.24Zm10.661 18.047c4.468-.04 7.951-3.53 7.939-7.963-.011-4.416-3.547-7.934-7.98-7.934-4.474 0-8.039 3.582-7.993 8.033.053 4.439 3.595 7.91 8.034 7.87v-.006Z"/><path fill="#333" d="M108.087 26.235h2.616v10.98c.553-.6.92-1.088 1.374-1.473 2.686-2.248 5.738-2.447 8.861-1.252 3.029 1.153 4.357 3.699 4.462 6.751.151 4.375.041 8.761.041 13.23h-2.692v-1.072c0-3.624.029-7.247-.017-10.87a10.686 10.686 0 0 0-.42-2.843c-.431-1.491-1.485-2.5-2.976-2.913-3.158-.88-7.527-.105-8.377 4.992-.262 1.585-.216 3.228-.233 4.847-.035 2.616-.012 5.225-.012 7.893h-2.621v-28.27h-.006Z"/><path fill="#FAB800" d="M160.095 51.459c-1.409 1.969-3.029 3.017-5.097 3.396-5.47 1.008-9.635-2.406-9.647-7.952-.005-4.17 0-8.342 0-12.582h2.698v1.13c0 3.763-.041 7.526.011 11.283.053 3.804 2.214 5.773 6 5.57 3.589-.193 5.802-2.552 5.96-6.636.134-3.343.046-6.693.058-10.042V34.32h2.639v20.138h-2.628v-3.012l.006.012Z"/><path fill="#333" d="M141.414 52.274v2.278c-2.01.32-3.985.495-5.884-.344-1.963-.868-2.586-2.586-2.61-4.56-.035-3.863-.011-7.725-.011-11.582v-1.211h-4.177v-2.592h4.147v-4.865c.903-.267 1.742-.524 2.703-.81v5.64h5.802v2.598h-5.726c-.017.407-.046.734-.046 1.06v10.963c0 .175 0 .344.005.519.088 2.08.868 2.86 2.936 2.906.927.024 1.847 0 2.866 0h-.005Z"/><path fill="#FAB800" d="M53.661 16c3.041-.017 5.406 2.313 5.418 5.342.011 2.97-2.441 5.44-5.395 5.417-2.924-.017-5.347-2.417-5.394-5.335-.04-2.977 2.365-5.406 5.371-5.424Z"/><path fill="#333" d="M68.288 54.5h-2.557V25.04h2.558V54.5Zm8.325.017H74.02v-20.19h2.592v20.19ZM77.3 28.1a1.977 1.977 0 0 1-1.945 2.004 1.981 1.981 0 0 1-1.993-1.963 1.948 1.948 0 0 1 1.946-1.986 1.947 1.947 0 0 1 1.992 1.94v.005Z"/></svg>