<svg xmlns="http://www.w3.org/2000/svg" fill="none" viewBox="0 0 210 80"><path fill="#8B6FC9" d="M150.266 56.921c-.833.794-1.678 1.43-2.608 1.942-.943.52-1.927.93-2.966 1.239-.742.22-1.497.333-2.248.448-.542.082-1.106.043-1.66.046-1.406.009-2.751-.282-4.066-.764a12.718 12.718 0 0 1-2.944-1.514 15.966 15.966 0 0 1-1.482-1.19c-1.172-1.043-2.087-2.276-2.844-3.636a14.305 14.305 0 0 1-1.233-2.88 18.737 18.737 0 0 1-.515-2.39c-.194-1.26-.137-2.52-.103-3.778.018-.65.182-1.299.303-1.944.133-.694.336-1.366.569-2.03a14.877 14.877 0 0 1 1.712-3.395c.427-.63.897-1.218 1.406-1.785.957-1.063 2.063-1.914 3.289-2.638 1.176-.694 2.445-1.124 3.76-1.417.563-.128 1.145-.234 1.739-.212.391.012.781-.055 1.172-.04a11.84 11.84 0 0 1 3.772.73c1.799.673 3.347 1.718 4.699 3.066.054.054.1.157.187.124.109-.04.055-.158.055-.24l-.015-2.84c0-.464.06-.525.509-.552 1.905-.115 3.811-.024 5.716-.046.488-.006.685.216.7.703v27.686c0 .567-.127.715-.7.715h-5.571c-.469 0-.627-.176-.633-.7v-2.71.002Zm-8.334-3.074a6.482 6.482 0 0 0 1.842-.197c3.611-.94 5.765-3.91 5.971-7.312.076-1.227-.164-2.412-.627-3.544-.527-1.285-1.369-2.324-2.475-3.169-1.182-.909-2.515-1.411-3.978-1.575-1.172-.13-2.32.058-3.411.49-2.29.913-3.79 2.594-4.571 4.902-.334.984-.497 2.005-.385 3.065.094.876.279 1.715.612 2.526 1.142 2.784 3.962 4.814 7.022 4.81v.004ZM88.417 34.912l-.015-3.114c0-.397.115-.485.5-.53.703-.085 1.409-.036 2.111-.043h3.45c.798.007.798.252.88.864.008.06 0 .121 0 .181v27.532c.011.333-.182.52-.516.52l-5.752.02c-.53.005-.652-.316-.655-.719v-2.68l-1.602 1.299a14.218 14.218 0 0 1-3.754 1.808c-.703.221-1.427.349-2.157.458-.787.118-1.584.109-2.372.1-.67-.01-1.342-.134-2.005-.291-.918-.218-1.815-.488-2.663-.9-.733-.357-1.442-.745-2.112-1.224a13.804 13.804 0 0 1-1.778-1.493 14.234 14.234 0 0 1-2.614-3.65c-.373-.742-.706-1.5-.949-2.29a18.143 18.143 0 0 1-.56-2.544c-.197-1.24-.16-2.484-.094-3.72.055-1.018.258-2.027.548-3.017a16.26 16.26 0 0 1 1.182-2.975A15.148 15.148 0 0 1 69.4 35.69a13.587 13.587 0 0 1 2.842-2.526 12.876 12.876 0 0 1 3.087-1.514c.736-.243 1.484-.458 2.245-.534 1-.1 2.011-.218 3.023-.081 1.654.224 3.211.712 4.668 1.548.78.448 1.497.963 2.188 1.53.309.254.57.56.884.808 0 .04.01.085.058.076.042-.006.064-.04.018-.079l.003-.006Zm-8.649 3.099c-.279-.025-.742.07-1.194.17a7.839 7.839 0 0 0-3.58 1.853c-1.009.912-1.709 2.054-2.142 3.323-.336.987-.509 2.02-.4 3.09.088.863.23 1.702.579 2.496 1.208 2.738 3.247 4.413 6.252 4.85.894.13 1.788.072 2.648-.15 3.78-.972 5.856-4.137 5.974-7.463.037-1.06-.157-2.084-.524-3.096-.506-1.402-1.357-2.529-2.508-3.428-1.433-1.118-3.087-1.642-5.105-1.648v.003Zm39.97 1.926c-1.099 0-2.199-.003-3.302 0-.251 0-.387-.054-.448-.345-.142-.679-.409-1.297-.924-1.803-.57-.557-1.269-.826-2.021-1.011-.699-.176-1.414-.152-2.117-.112-.858.051-1.678.315-2.293.933-1.052 1.06-1.082 2.853.457 3.74.857.497 1.796.737 2.733 1.003 1.96.558 3.971.924 5.886 1.636 1.233.46 2.399 1.042 3.432 1.878a7.278 7.278 0 0 1 1.915 2.347c.403.785.648 1.624.775 2.503.109.733.188 1.466.124 2.208-.172 1.993-.83 3.765-2.332 5.158-.815.758-1.748 1.321-2.766 1.766-1.048.458-2.145.74-3.26.954-.436.085-.887.082-1.333.134-1.024.12-2.051.06-3.075.048-.827-.009-1.648-.157-2.466-.294-.863-.145-1.699-.412-2.52-.702a10.025 10.025 0 0 1-2.627-1.403c-1.457-1.075-2.553-2.426-3.205-4.129a11.026 11.026 0 0 1-.663-2.674c-.021-.176-.049-.352-.055-.53-.009-.215.103-.306.306-.306h6.511c.542 0 .554.018.645.533.16.924.542 1.748 1.212 2.402.721.703 1.617 1.06 2.602 1.242.688.127 1.375.14 2.066.115.854-.033 1.672-.209 2.426-.645 1.027-.597 1.385-1.724 1.106-2.838-.227-.915-.887-1.46-1.669-1.888-1.1-.602-2.308-.9-3.511-1.214-1.339-.352-2.693-.64-4.02-1.036-.751-.224-1.509-.451-2.215-.794-.763-.372-1.493-.806-2.154-1.363-.993-.839-1.663-1.875-2.057-3.099-.348-1.084-.415-2.21-.324-3.332.115-1.414.549-2.738 1.385-3.913a8.906 8.906 0 0 1 2.747-2.514c.885-.521 1.827-.9 2.803-1.182.836-.239 1.696-.4 2.578-.463.536-.04 1.069-.115 1.605-.094 1.848.076 3.678.257 5.432.896 1.603.582 3.02 1.451 4.135 2.75.985 1.146 1.609 2.488 1.951 3.957.085.363.158.727.188 1.102.024.291-.073.385-.37.382l-3.302-.006.009.003Zm-82.733 6.18c-.034-1.551.109-2.839.451-4.093a15.4 15.4 0 0 1 1.99-4.41 15.194 15.194 0 0 1 2.36-2.79 14.03 14.03 0 0 1 2.615-1.92c.654-.373 1.32-.712 2.026-.976.858-.32 1.73-.59 2.63-.772a14.232 14.232 0 0 1 3.841-.242c1.46.102 2.881.402 4.26.911 1.6.588 3.038 1.445 4.356 2.511.524.425 1.006.9 1.47 1.39.184.198.172.376-.025.57l-4.06 4.032c-.23.23-.42.19-.627-.067-.336-.42-.775-.742-1.196-1.066a8.374 8.374 0 0 0-2.2-1.209 7.919 7.919 0 0 0-1.408-.378c-.479-.079-.957-.155-1.442-.16a8.182 8.182 0 0 0-5.008 1.59c-1.308.948-2.248 2.187-2.887 3.677a7.602 7.602 0 0 0-.557 4.113c.46 3.238 2.223 5.543 5.256 6.858 1.278.557 2.617.66 3.971.57.634-.043 1.264-.203 1.873-.421a9.747 9.747 0 0 0 2.372-1.279c.436-.315.8-.72 1.172-1.111.188-.197.43-.2.624-.022l3.599 3.354c.19.178.39.345.582.524.212.2.218.415.027.624-1.612 1.766-3.554 3.059-5.765 3.95-.84.336-1.718.575-2.602.736-1.264.23-2.542.272-3.827.194a13.736 13.736 0 0 1-3.008-.527 15.123 15.123 0 0 1-3.838-1.706 14.189 14.189 0 0 1-2.196-1.663c-1.206-1.124-2.227-2.396-3.012-3.85-.43-.8-.793-1.623-1.081-2.487a14.275 14.275 0 0 1-.654-2.908c-.07-.6-.052-1.2-.076-1.55l-.006.003Zm127.414-.322v-14.13c0-.433.01-.445.434-.445h6.601c.378 0 .439.06.439.439v28.258c0 .415-.021.436-.448.436h-6.601c-.281 0-.422-.143-.422-.43v-14.13l-.003.002Zm8.289-22.266c-.009 2.468-2.105 4.543-4.535 4.528-2.466-.015-4.617-2.06-4.593-4.54.028-2.539 1.936-4.535 4.693-4.517 2.49.018 4.399 1.993 4.435 4.529Z"/><path fill="#8B6FC9" d="M88.417 39.68c.043.038.024.072-.018.078-.052.009-.058-.036-.058-.076h.08l-.004-.003Z"/></svg>