<svg xmlns="http://www.w3.org/2000/svg" fill="none" viewBox="0 0 210 80"><path fill="#00D6F4" d="M70.505 60.897c-2.525.39-5.003-.869-6.26-3.149l-11.393-20.28-6.748-12.807c.541-.96 1.046-1.938 1.636-2.86 2.472-3.86 8.136-3.698 10.39.287l5.226 9.315 5.274 9.365 5.28 9.407c.406.717.845 1.417 1.192 2.161 1.718 3.675-.586 7.947-4.597 8.56Z"/><path fill="url(#a)" d="m52.852 37.467-.786 1.385-10.407 18.527c-.412.744-.846 1.46-1.485 2.03-.835.744-1.794 1.25-2.9 1.45-.298.054-.607.065-.91.098-.039.005-.077.027-.114.043h-.315c-.054-.016-.108-.043-.163-.043-.829 0-1.604-.228-2.346-.581a5.781 5.781 0 0 1-2.201-1.802c-.542-.733-.938-1.537-1.095-2.443l-.13-.706v-1.048l.136-.77c.146-.717.444-1.368.813-2.004l3.165-5.602 11.99-21.34 6.748 12.806Z"/><path fill="#000" d="m89.319 54.431.45-1.249 10.108-27.74c.082-.228.195-.298.434-.298h5.572c.157 0 .233.038.293.2l10.515 28.87.076.217-.25.01h-6.433c-.19 0-.271-.059-.336-.238l-2.093-6.096c-.065-.19-.151-.234-.336-.234h-8.607c-.179 0-.255.05-.314.223l-2.07 6.129c-.05.146-.11.217-.283.211-2.168-.005-4.336 0-6.504 0-.065 0-.13-.01-.222-.016v.011Zm10.239-11.232h6.894l-3.382-10.238c-.016 0-.033 0-.049.005l-3.463 10.228v.005Zm53.313 2.47h-15.984c.113 1.303.514 2.449 1.555 3.268 1.816 1.428 3.783 1.488 5.832.565.873-.397 1.567-.983 1.962-1.89.028-.059.158-.102.239-.102l3.626-.022h2.564c-.011.081-.016.141-.033.2-.32 1.32-1.013 2.433-1.951 3.393-1.8 1.835-3.924 3.106-6.488 3.534-3.127.522-6.163.283-8.97-1.33-2.889-1.66-4.602-4.174-5.166-7.437-.509-2.931-.043-5.721 1.496-8.29 1.599-2.67 4-4.255 7.008-4.896 2.304-.488 4.618-.472 6.868.266 4.222 1.385 6.699 4.322 7.463 8.697.217 1.254.196 2.513.038 3.767-.01.082-.032.163-.054.272l-.005.005Zm-6.824-4.115c-.168-2.426-1.93-4.522-4.819-4.43-3.041.098-4.374 2.617-4.428 4.43h9.247Zm22.082 13.3c-2.147 0-3.979-.315-5.708-1.15-2.829-1.363-4.71-3.55-5.599-6.558-.845-2.867-.699-5.695.515-8.425 1.268-2.861 3.474-4.75 6.418-5.711 2.992-.977 6.021-.956 8.948.255 3.719 1.542 5.903 4.386 6.602 8.344.472 2.676.092 5.26-1.214 7.66-1.523 2.806-3.935 4.467-6.997 5.238a12.132 12.132 0 0 1-2.965.347Zm4.536-11.248c0-1.286-.271-2.394-.802-3.306-1.696-2.893-5.659-3.132-7.642-.45-.683.928-1.03 1.992-1.117 3.137-.097 1.303.043 2.563.651 3.746 1.62 3.154 5.74 3.339 7.675.798.883-1.156 1.23-2.486 1.23-3.925h.005Zm-52.538-19.271h6.57V54.43h-6.57V24.335Z"/><defs><linearGradient id="a" x1="17.589" x2="31.729" y1="51.576" y2="-5.671" gradientUnits="userSpaceOnUse"><stop stop-color="#1156FA"/><stop offset="1" stop-color="#4FC6E0"/></linearGradient></defs></svg>