<svg xmlns="http://www.w3.org/2000/svg" fill="none" viewBox="0 0 210 80"><path fill="#3F7F7D" fill-rule="evenodd" d="M78.537 33.714c-.779.184-1.71.902-2.222 1.719l-.46.73V40.3c0 3.951.014 4.162.327 4.735a3.831 3.831 0 0 0 1.882 1.712c.66.29.972.303 7.858.31 6.759 0 7.192-.013 7.424-.27.333-.362.32-1.12-.02-1.423-.24-.217-1.07-.25-7.384-.283l-7.112-.04-.998-.974-.04-3.556c-.047-3.92-.02-4.05.865-4.637l.512-.342h6.972c7.73 0 7.451.04 7.451-.975 0-1.014.133-.975-7.61-.955-3.813.007-7.166.066-7.452.132l.007-.02Zm20.398.145c-.466.46-.38.981.266 1.633.313.316 2.202 2.042 4.191 3.827l3.619 3.253v2.009c0 1.81.027 2.041.307 2.311.379.376 1.091.389 1.423.026.213-.23.253-.638.253-2.535 0-1.245-.06-2.424-.14-2.621-.079-.198-1.324-1.43-2.781-2.74l-4.351-3.919c-1.822-1.64-2.202-1.81-2.787-1.238v-.006Zm49.305-.053c-1.045.316-1.996 1.284-2.315 2.364-.207.692-.24 1.47-.2 4.545.047 3.47.067 3.754.379 4.313a3.834 3.834 0 0 0 1.883 1.713c.659.29.971.303 7.871.31h7.185l.319-.39c.293-.361.313-.592.313-2.93 0-2.99-.133-3.412-1.065-3.412-.785 0-.831.126-.911 2.503l-.08 2.22h-12.867l-.998-.975-.04-3.484c-.04-3.089-.013-3.543.226-4.004.546-1.054.519-1.047 8.19-1.054 3.773 0 6.933-.053 7.026-.112.585-.388.545-1.35-.073-1.673-.2-.105-2.608-.158-7.206-.151-5.648.006-7.038.052-7.637.23v-.013Zm21.096.105c-.326.343-.332.389-.332 6.441l.306 6.395c.379.376 1.091.389 1.424.027.219-.237.252-.883.292-5.243l.04-4.972 7.232 5.242c5.123 3.715 7.345 5.243 7.624 5.243.245-.011.483-.083.692-.211.286-.204.3-.474.339-6.369l.047-6.157-.379-.376c-.439-.428-.792-.467-1.271-.138-.226.154-.339 1.901-.339 5.242 0 2.76-.04 5.012-.087 5.012-.046 0-3.346-2.358-7.325-5.242-4.404-3.194-7.371-5.243-7.577-5.243-.187 0-.486.159-.672.35h-.014Zm-46.71.132c-.206.29-.24 1.146-.24 6.375v6.046l.373.369c.206.204.452.369.546.369.232 0 .811-.31.944-.507.06-.093.113-2.378.113-5.085l.153-4.873c.08.026 3.347 2.37 7.259 5.21 7.298 5.294 7.584 5.465 8.196 4.965.213-.171.233-.942.2-6.58l-.04-6.381-.419-.145a1.304 1.304 0 0 0-.838 0l-.42.145-.04 5.051c-.026 3.082-.099 5.052-.186 5.052-.08 0-3.353-2.325-7.272-5.17-7.617-5.526-7.783-5.618-8.336-4.84h.007Z" clip-rule="evenodd"/><path fill="#94D4E3" fill-rule="evenodd" d="M23.91 29.499c.16.145 17.576 10.057 17.676 10.057.034 0 .06-2.292.06-5.098v-5.097h-8.941c-5.323 0-8.882.052-8.796.138Zm19.113 4.979.193 5.038c.346-.138 17.404-9.859 17.55-10.004.094-.085-3.186-.138-8.794-.138H43.03v5.11l-.007-.006Z" clip-rule="evenodd"/><path fill="#55B8B3" fill-rule="evenodd" d="M23.257 30.75c.08.204 4.664 8.075 8.21 14.08l.592 1.002 4.378-2.47 4.49-2.581c.06-.06-3.745-2.292-8.455-4.966l-8.942-5.091c-.346-.218-.366-.218-.273.026Zm29.247 4.88c-8.197 4.663-8.849 5.065-8.57 5.256.167.112 2.176 1.27 4.458 2.568 3.074 1.752 4.192 2.319 4.318 2.193.093-.092 2.042-3.371 4.331-7.29l4.384-7.455c.12-.185.16-.336.087-.33-.073 0-4.125 2.28-9.008 5.058Zm63.156-1.66c-1.177.95-5.741 5.17-5.828 5.381-.246.633.24 1.258.978 1.258.38 0 .952-.448 3.393-2.647 3.573-3.227 3.646-3.333 2.941-4.024-.479-.474-.852-.468-1.477.04l-.007-.007ZM37.155 44.358l-4.377 2.627c.02.08 2.009 3.497 4.417 7.6l4.378 7.462.04-5.11v-10.09l-.04-4.979-4.418 2.49Zm5.868 7.587.133 10.01c.173-.184 8.716-14.779 8.756-14.95.013-.072-1.69-1.106-3.78-2.298l-5.102-2.911v10.148h-.007Z" clip-rule="evenodd"/><path fill="#3F7F7D" fill-rule="evenodd" d="m23.81 28.09 8.868.04 8.922-.014c.026-.026.033-2.318.013-5.084L41.573 18 23.81 28.09Zm19.213-5.026v5.105h8.942l8.795-.126c-.106-.092-16.666-9.503-17.624-10.017-.06-.033-.113 2.233-.113 5.045v-.007ZM22 41.386v10.13l4.457-2.523 4.425-2.66c-.04-.178-8.576-14.746-8.749-14.937-.073-.08-.133 4.215-.133 9.99Zm36.219-2.62-4.398 7.6c-.007.078 1.963 1.264 4.378 2.64l4.397 2.503.04-5.084V36.322l-.04-5.019-4.377 7.462ZM27.203 49.967l-4.451 2.575c-.073.072 3.779 2.351 8.788 5.196l8.968 5.019c.054-.053-8.682-14.95-8.861-15.122-.067-.059-2.063.988-4.438 2.338l-.006-.006Zm25.514-1.838L44.2 62.784c.253 0 17.85-10.116 17.75-10.208-.066-.06-1.863-1.1-3.998-2.312l-4.371-2.49-.486-.29-.38.646Z" clip-rule="evenodd"/></svg>