<svg xmlns="http://www.w3.org/2000/svg" fill="none" viewBox="0 0 210 80"><path fill="url(#a)" fill-rule="evenodd" d="M106.672 36.419c-7.566 0-12.135 5.58-12.135 12.17 0 6.589 4.569 12.214 12.135 12.214 7.567 0 12.182-5.628 12.182-12.215s-4.568-12.167-12.182-12.17Zm0 18.95c-3.758 0-5.854-3.127-5.854-6.783 0-3.655 2.093-6.733 5.854-6.733 3.762 0 5.899 3.127 5.899 6.733s-2.093 6.782-5.899 6.782Z" clip-rule="evenodd"/><path fill="url(#b)" fill-rule="evenodd" d="m149.431 36.997-4.283 15.63-5.045-15.63h-5.377l-5.043 15.63-4.283-15.63h-6.282l6.994 23.228h6.474l4.852-15.823 4.854 15.823h6.471l6.997-23.228h-6.329Z" clip-rule="evenodd"/><path fill="url(#c)" fill-rule="evenodd" d="M60.36 38.012a3.251 3.251 0 0 0-1.18 2.515c0 1.793 1.439 3.247 3.213 3.247.625 0 1.206-.184 1.7-.495l.01.013.084-.071c.135-.092.26-.195.377-.305 2.82-2.147 6.376-1.77 8.88.76 2.643 2.671 2.6 6.974-.04 9.646-1.265 1.275-3.886 2.03-5.64 2.046h-.324c-8.383 0-14.876-6.894-14.876-15.368s6.82-15.366 15.202-15.366c3.047 0 5.986.908 8.498 2.622l3.675-5.495A21.489 21.489 0 0 0 67.766 18C55.764 18 46 27.868 46 40s9.436 22 21.438 22h.357c3.513-.034 7.822-1.437 10.308-3.95 5.2-5.257 5.18-13.81-.02-19.067-4.981-5.034-12.528-5.548-17.726-.971h.002Z" clip-rule="evenodd"/><path fill="url(#d)" d="M85.23 29.175h5.946v31.05H85.23v-31.05Z"/><path fill="#685CC7" d="m160.364 57.894-1.357-2.138h-1.063v2.138h-.663v-5.381h2.14c.974 0 1.668.63 1.668 1.623 0 .992-.654 1.499-1.382 1.564l1.437 2.194h-.783.003Zm.04-3.758c0-.606-.431-1.025-1.063-1.025h-1.397v2.058h1.397c.63 0 1.063-.428 1.063-1.033Z"/><path fill="#5E65D2" d="M159.211 60.471c-2.812 0-5.101-2.313-5.101-5.154 0-2.842 2.289-5.155 5.101-5.155s5.1 2.313 5.1 5.155c0 2.841-2.288 5.154-5.1 5.154Zm0-9.637c-2.447 0-4.436 2.01-4.436 4.483 0 2.472 1.989 4.482 4.436 4.482 2.446 0 4.435-2.01 4.435-4.482 0-2.473-1.989-4.483-4.435-4.483Z"/><defs><linearGradient id="a" x1="105.15" x2="105.15" y1="62" y2="18" gradientUnits="userSpaceOnUse"><stop stop-color="#5A62D2"/><stop offset="1" stop-color="#6067D2"/></linearGradient><linearGradient id="b" x1="105.159" x2="105.159" y1="62" y2="18" gradientUnits="userSpaceOnUse"><stop stop-color="#5A62D2"/><stop offset="1" stop-color="#6067D2"/></linearGradient><linearGradient id="c" x1="105.155" x2="105.155" y1="62" y2="18" gradientUnits="userSpaceOnUse"><stop stop-color="#5A62D2"/><stop offset="1" stop-color="#6067D2"/></linearGradient><linearGradient id="d" x1="103.038" x2="103.038" y1="17.804" y2="61.452" gradientUnits="userSpaceOnUse"><stop stop-color="#5A62D2"/><stop offset="1" stop-color="#6067D2"/></linearGradient></defs></svg>