<svg xmlns="http://www.w3.org/2000/svg" fill="none" viewBox="0 0 210 80"><path fill="#FF4B5A" d="M42.534 37.645a20.312 20.312 0 0 0-2.541-.57 23.493 23.493 0 0 0-1.95-.239h-.005c-.108-.008-.218-.02-.325-.027-.275-.02-.553-.039-.836-.053a50.165 50.165 0 0 1-3.174-.275c-.783-.096-1.388-.203-1.79-.322-.44-.131-.602-.274-.663-.346a.72.72 0 0 1-.14-.465c0-.363.198-.665.616-.916.465-.283 1.579-.42 2.852-.42 1.372 0 2.395.157 3.21.459.67.253.965.704 1.182 1.367h7.898c-.181-2.495-1.944-4.882-3.908-6.037C40.94 28.602 38.112 28 34.556 28s-6.251.693-8.157 2.06c-1.942 1.386-2.929 3.316-2.929 5.717s.812 4.03 2.41 5.06c1.545.996 3.924 1.612 7.075 1.835 1.862.12 3.3.245 4.282.363 1.166.143 1.675.333 1.903.473a.764.764 0 0 1 .283.286c.064.11.094.23.102.377v.054c0 .44-.22.74-.695.95-.548.239-1.634.393-2.9.423-.18.003-.722 0-.8 0-1.039-.044-1.968-.135-2.634-.446-.649-.31-1.042-.718-1.304-1.543H23c.096 1.8.712 3.141 1.584 4.315.93 1.249 2.305 2.19 4.084 2.794.9.308 1.942.54 3.097.696 1.152.151 2.46.231 3.885.231 2.616 0 4.797-.33 6.477-.979 1.705-.657 2.975-1.59 3.773-2.764a6.46 6.46 0 0 0 .94-1.95c.199-.692.3-1.443.3-2.235 0-1.603-.388-2.907-1.147-3.883-.759-.966-1.919-1.7-3.46-2.187v-.002Zm21.651-1.153H56.32v-7.857h-7.642v22.37h7.642v-7.717h7.865v7.717h7.585v-22.37h-7.585v7.857Zm69.655 5.696h11.886v-4.98H133.84V34.95h13.294v-6.315h-20.563v22.367h20.994v-6.526H133.84v-2.288Zm-11.597-11.36c-1.744-1.447-4.621-2.182-8.553-2.182h-11.375v22.372h7.354v-5.211h4.279c3.663.014 6.427-.677 8.215-2.068 1.809-1.414 2.731-3.537 2.731-6.317 0-2.912-.894-5.132-2.651-6.595Zm-5.71 8.313c-.574.327-1.592.495-3.06.495h-3.801V35.09h3.718c1.408 0 2.428.148 3.064.44.629.291.943.93.943 1.903 0 .811-.283 1.378-.858 1.708h-.006ZM82.891 28.646l-9.57 22.372h7.8l1.575-3.886h8.79l1.575 3.886h7.8l-9.568-22.372h-8.402Zm1.917 13.085 1.733-4.408.55-3.358.55 3.358 1.733 4.408h-4.566Zm80.212-13.129-3.036 22.38h3.149l.212-2.486h2.315l.212 2.486h3.149l-3.036-22.377h-2.965v-.003Zm.561 17.128.792-7.266.11-3.836h.039l.11 3.836.792 7.266h-1.843Zm-6.52-17.13-.528 13.101-.066 3.677h-.036l-.126-3.705-1.329-13.074h-2.293l-1.329 13.074-.126 3.705h-.036l-.066-3.677-.528-13.104h-3.099l2.002 22.38h2.731l1.449-13.035.121-3.567h.047l.121 3.567 1.449 13.035h2.731l2.002-22.38h-3.099l.008.002Zm15.851 7.89-.099 4.092h-.033l-.099-4.093-1.119-7.89h-3.185l2.806 13.591v8.79h3.228v-8.79l2.805-13.59h-3.184l-1.12 7.89Zm12.472 3.67c-.404-.533-1.07-1.107-1.969-1.699-.652-.47-1.13-.822-1.46-1.075-.234-.179-.545-.47-.649-.646-.11-.184-.152-.344-.152-.858v-3.32c0-.511.072-.871.209-1.067.13-.184.369-.277.713-.277.319 0 .533.088.651.272.13.198.193.572.193 1.11v4.203h3.006v-4.862c-.028-1.078-.355-1.947-.977-2.582-.624-.639-1.578-.96-2.838-.96-1.259 0-2.321.34-3.008 1.014-.688.674-1.037 1.629-1.037 2.839v3.918c.025 1.048.261 1.868.699 2.437.429.561 1.13 1.174 2.09 1.818.583.39 1.342.91 1.342.91.231.165.365.267.508.473.099.143.154.278.187.46.028.14.025.437.025.651v3.889c0 .514-.066.883-.195 1.094-.118.193-.377.292-.767.292-.344 0-.57-.096-.691-.292-.129-.211-.195-.59-.195-1.133v-4.702h-3.121v5.013c0 1.438.33 2.503.976 3.163.649.663 1.667.998 3.031.998s2.354-.335 3.027-.995c.677-.66 1.018-1.728 1.018-3.163v-4.441c0-1.098-.209-1.934-.622-2.478l.006-.003Z"/></svg>