<svg xmlns="http://www.w3.org/2000/svg" fill="none" viewBox="0 0 210 80"><path fill="#000" d="M158.278 31.217v-2.448h5.781v22.367h-5.761v-2.353c-.933.69-1.753 1.42-2.687 1.961-3.51 2.036-9.212 1.224-12.377-2.369-4.483-5.083-4.228-12.79.623-17.496 3.373-3.27 9.033-3.769 12.758-1.102.553.396 1.036.89 1.663 1.436v.004Zm-6.169 2.416c-3.691-.008-6.295 2.612-6.295 6.334 0 3.62 2.612 6.353 6.072 6.346 3.816-.008 6.498-2.628 6.49-6.346-.003-3.663-2.639-6.326-6.267-6.334Zm-46.378 18.162c-6.75-.058-12.087-5.38-12.032-12 .05-6.574 5.522-11.994 12.009-11.904 6.781.094 11.982 5.432 11.927 12.252-.051 6.542-5.33 11.711-11.904 11.652ZM99.652 39.96c-.011 3.467 2.526 6.208 5.766 6.224 3.675.02 6.397-2.62 6.444-6.244.043-3.486-2.597-6.2-6.036-6.204-3.542-.008-6.158 2.631-6.174 6.224Zm17.489-11.237 5.93.028c.227.004.549.337.655.592l5.192 12.339.436.968.294-.753 4.436-12.554c.16-.459.357-.647.874-.635 1.808.039 3.616.015 5.542.015l-.353.965-8.02 20.43c-1.518 3.792-3.993 6.655-8.197 7.55-1.103.235-2.26.223-3.444.333v-5c.537-.063 1.067-.099 1.588-.185 2.052-.341 3.342-1.62 4.107-3.467.117-.282.023-.722-.114-1.024l-6.644-14.581-2.282-5.02ZM57.024 56.423V28.761l.734-.035 6.6-.011c.624-.008 1.055.203 1.451.67l7.264 8.538c.608.718.58 1.212-.145 1.977l-8.938 9.401-6.358 6.695c-.165.172-.282.384-.42.58l-.188-.149v-.004ZM52.44 28.79v27.772l-.608-.593L36.614 39.9c-.8-.843-.816-1.247-.063-2.134l7.225-8.471c.243-.283.674-.565 1.023-.573 2.467-.043 4.938-.015 7.409-.004.067 0 .133.04.235.071h-.004Zm34.35 22.355h-5.746V28.765h5.769v3.413c1.502-2.68 3.855-3.762 6.82-3.934v6.279c-.898.118-1.828.141-2.706.369-2.679.694-4.146 2.753-4.114 5.49l.011 10.335c0 .117-.02.24-.035.423v.004ZM168.24 22h5.683v29.14h-5.683V22Z"/></svg>