<svg xmlns="http://www.w3.org/2000/svg" fill="none" viewBox="0 0 210 80"><path fill="#020202" d="M192.564 41.392c-1.205.058-2.438 0-3.643.058-.517.028-.717-.172-.832-.66-.086-.43-.258-.832-.402-1.234-2.008-5.508-8.721-5.163-11.446-2.036-1.434 1.635-2.123 3.557-2.324 5.68-.258 2.61 0 5.163 1.291 7.487 1.808 3.213 5.68 4.561 9.094 3.127 2.152-.89 3.156-2.754 3.729-4.848.201-.66.431-.89 1.119-.86 1.09.056 2.18.028 3.357.028.057.172.057.315.057.545-.287.86-.545 1.692-.861 2.496-1.663 4.245-5.221 6.598-9.782 6.655-2.209.029-4.303-.258-6.282-1.29-2.783-1.464-4.648-3.759-5.566-6.714-1.118-3.557-1.118-7.171.259-10.671 1.778-4.504 5.163-6.943 9.983-7.344 3.127-.258 6.081.287 8.52 2.438 2.008 1.75 3.069 4.017 3.7 6.598.029.172.029.344.029.545ZM17 22.057C18.721 22 20.442 22 22.192 22v5.307c-1.692 0-3.385 0-5.135-.029-.057-.028-.057-.086 0-.172.058-1.463.086-2.84.086-4.217 0-.2-.086-.401-.143-.602v-.23Z"/><path fill="#020202" d="M17 22.373c.057.143.143.344.143.545 0 1.377-.028 2.754-.086 4.188C17 25.557 17 23.98 17 22.373ZM51.482 55.65v1.578h-4.504v-.775l-.029-13.97c0-1.09-.172-2.21-.516-3.213-1.09-3.328-4.676-4.791-8.147-3.386-2.812 1.148-4.332 3.386-4.476 6.312-.2 4.245-.114 8.49-.143 12.708v2.323h-4.446V32.413h4.303v5.91c.143-.23.258-.316.286-.402 1.349-4.016 4.734-6.31 8.98-6.139 4.016.172 7.315 2.898 8.233 6.942.286 1.233.43 2.494.43 3.759l.029 13.167Zm72.664-10.528c-.029-1.349.028-2.61-.086-3.873-.402-5.049-5.307-7.516-9.611-4.82-2.61 1.636-3.528 4.16-3.557 7.115v13.712h-4.475V32.413h4.303v5.738c.029 0 .086.028.115.028.172-.43.373-.86.574-1.262 1.807-3.7 5.192-5.594 9.151-5.106 3.987.488 6.913 3.184 7.745 7.172.172.889.345 1.778.345 2.668v15.548h-4.504V45.122Zm22.117-9.61c-1.922-.632-3.786-.632-5.622.086-1.09.43-1.894 1.176-2.238 2.352-.516 1.893.316 3.528 2.295 4.073 1.951.517 3.959.746 5.938 1.177 1.119.23 2.238.516 3.299.946 2.812 1.12 4.016 3.127 3.93 6.168-.114 2.869-1.491 5.02-4.016 6.225-4.188 2.008-8.52 1.95-12.651-.2-2.553-1.349-3.7-3.673-3.786-6.599h4.274l.086.086c.086 2.64 1.951 4.217 4.532 4.619 1.664.258 3.299.2 4.877-.517 1.922-.889 2.812-2.84 2.267-4.761-.287-1.005-.947-1.693-1.894-1.951-1.463-.43-2.983-.717-4.446-1.033-1.578-.344-3.185-.516-4.705-1.033-2.524-.86-4.131-2.61-4.332-5.393-.229-2.954 1.033-5.135 3.586-6.57 2.41-1.347 5.049-1.52 7.717-1.261 1.779.172 3.442.66 4.905 1.692 2.009 1.377 3.185 3.7 3.07 5.996h-4.16c-.114-2.037-1.09-3.357-2.926-4.102ZM58.366 45.694V35.684h-3.5v-3.3h3.5v-6.626h4.476v6.598h7.057v3.242H62.87l-.057.602v12.364c0 .66.057 1.32.2 1.95.46 1.951 1.78 2.984 3.96 3.185.975.086 1.95.029 3.012.029v3.586c-2.295.028-4.561.143-6.713-.718-2.524-.975-4.102-2.81-4.532-5.45-.316-1.75-.259-3.586-.373-5.45Zm21.946-7.487c1.779-4.303 5.508-6.483 10.327-6.11v4.13l-3.614.259c-3.844.43-6.627 3.184-7.115 7-.114.889-.172 1.778-.172 2.696v11.044h-4.475V32.413h4.274v7.545c.03 0 .087.029.144.029.172-.574.401-1.148.631-1.779Zm79.147 7.63V32.414h4.475V57.2h-4.475v-11.36ZM94.541 32.414h4.475v24.815H94.54V32.412ZM17.43 57.285V32.413h4.446v24.872H17.43Zm141.655-35.228h5.193v5.221h-5.193v-5.22Zm-64.86 5.05v-5.05h5.134v5.135c-1.721 0-3.414 0-5.135-.086Z"/></svg>