<svg xmlns="http://www.w3.org/2000/svg" fill="none" viewBox="0 0 210 80"><path fill="#000" d="M75.316 51.18c5.79 0 8.947-2.211 8.947-6.106 0-3.263-2.316-5.368-7.158-6.105l-3.263-.527c-2.42-.42-3.579-1.052-3.579-2.631 0-1.474 1.684-2.632 4.737-2.632h.526c3.053 0 5.053 1.263 5.369 3.474h3.79c-.422-4.105-3.79-6.737-9.475-6.737-6 0-8.631 2.947-8.631 6 0 3.684 2 5.263 6.737 6l3.263.526c2.947.527 4.105 1.369 4.105 2.737 0 1.58-1.474 2.737-5.052 2.737h-.527c-3.473 0-5.684-1.263-5.79-3.895h-3.894c.105 4.737 3.895 7.158 9.895 7.158Zm16.105-.317V43.39c-.105-2.527 1.895-4.737 4.526-4.842h.421c2.316 0 3.264 1.578 3.264 4v8.315h3.473v-8.947c0-3.474-2.21-6.105-6.316-6.105-2.105-.105-4.21.842-5.473 2.526v-8.21h-3.474v20.736h3.58Zm19.368-16.947v-3.79H107v3.79h3.789Zm-.105 2.21h-3.473V50.97h3.473V36.126Zm19.053 6.948c0-4.316-2.842-7.263-7.684-7.263-4.106 0-8.211 2.526-8.211 7.579 0 5.052 3.684 7.79 8.316 7.79 3.789 0 6.737-1.79 7.263-4.843h-3.579c-.421 1.263-1.789 2-3.579 2h-.421c-2.316.105-4.316-1.684-4.526-3.895h12.421v-1.368Zm-12.105-1.368c.421-1.895 2.315-3.264 4.21-3.053h.421c1.895 0 3.684.842 3.79 3.053h-8.421Zm18.736 9.157V30.127h-3.473v20.736h3.473Zm11.158.316c2.106.105 4.106-.737 5.579-2.316v2h3.474V30.127h-3.474v8c-1.368-1.58-3.473-2.527-5.579-2.316-4.421 0-7.789 2.631-7.789 7.684-.105 4.737 3.263 7.684 7.789 7.684Zm.211-2.842c-2.737 0-4.632-1.684-4.632-4.842 0-3.158 1.895-4.842 4.632-4.842h.421c2.526-.21 4.737 1.684 4.842 4.21v.632c.211 2.526-1.789 4.737-4.316 4.842h-.947Zm41.052 2.526-9.578-20.736h-4.316l-9.684 20.736h3.894l2.316-5.052h11.158l2.316 5.052h3.894ZM177 33.706l4.105 8.842h-8.21L177 33.705Zm18 17.157V30.127h-3.684v20.736H195Z"/><path fill="#2AA8E3" d="M42.474 28.737 39 28l-.105-3.158-4.106-.631V22H35c.105 0 .421 0 .842.105h.21c1.79.21 3.58.632 5.369 1.053h.105l.21.105.738 5.474ZM39.526 40.526v.21l-4.316-.315.316-5.474-5.473-.316.526-3.79h.21c2.948 0 5.895.317 8.737.843h.21v.526c0 2.737 0 5.474-.21 8.316ZM35.632 45.895l-.843 7.369L31 52.843l.105-3.684-4.526-.632-.105-3.684h.21c2.948.526 5.79.947 8.737 1.052h.21Z"/><path fill="#0A6BAC" d="M47.526 42v.211c-.21 2.526-.526 5.053-1.158 7.474v.105l-3.157.316.842-4.21-4.316.105.526-4.211 7.263.21Z"/><path fill="#BBBBBE" d="M26.053 34.843c-.421 2.842-.527 5.789-.527 8.631v.21l-3.263-.526v-4.631l-3.158-.21v-.106c0-1.158.105-2.316.316-3.368l.105-.106 6.527-.105v.21ZM31 23.685 29.737 30h-3.79l.843-3.684-3.79.527.947-2.737h.106c2.21-.316 4.42-.421 6.736-.421H31Z"/><path fill="#0A6BAC" d="M49.842 38.105v.21l-2.631-.42-.211-4.21-3.579-.843-.316-3.368 6 1.79v.104c.527 2.21.737 4.421.737 6.737ZM43.21 53.474l-1.684 5.158-3.052.105.737-2.421h-4l.42-2.632h.211c2.421.105 4.842.105 7.263-.21h.106Z"/><path fill="#BBBBBE" d="M20.474 27.369c-.632 2.21-1.158 4.315-1.369 6.42v.106l-2.316.21v-.21c0-.737.106-1.58.316-2.421.105-.316.105-.632.21-.948L15 30.948l.737-2.843 4.526-1.052.21.316Z"/><path fill="#0A6BAC" d="m50.474 29.052-2.421-.947-.632-2.631-2.842-1.053v-.105c-.21-.632-.21-1.264-.21-1.895l.105-.105 4.737 1.894 1.263 4.842Z"/></svg>