<svg xmlns="http://www.w3.org/2000/svg" fill="none" viewBox="0 0 210 80"><path fill="#FECF09" d="M72.678 15.175h13.734c9.435 0 17.087 7.652 17.087 17.087 0 9.434-7.652 17.087-17.087 17.087H72.678c-9.434 0-17.087-7.652-17.087-17.087 0-9.435 7.652-17.087 17.087-17.087Zm13.734 32.11c8.298 0 15.024-6.732 15.018-15.03 0-8.297-6.733-15.024-15.03-15.017-8.299 0-15.019 6.726-15.019 15.024.02 8.291 6.74 14.998 15.03 15.005v.019Z"/><path fill="#474B50" d="M25 58.714h1.89v6.202h.57v-6.202h1.864v-.537H25v.537Zm18.18 2.549h-4.236v-3.086h-.574v6.74h.575v-3.124h4.235v3.123h.575v-6.739h-.575v3.086Zm10.399 3.653h3.52v-.53h-2.952v-2.593h2.754v-.53h-2.754v-2.55H57.1v-.536h-3.52v6.74Zm15.484-3.11a1.732 1.732 0 0 0 1.475-1.744c0-1.156-.843-1.86-2.063-1.86h-1.827v6.746h.575v-2.976h.869c.92 0 1.916 1.188 2.236 2.976h.594c-.281-1.705-1.067-2.83-1.86-3.142Zm-1.834-.365v-2.695h1.24a1.334 1.334 0 0 1 1.456 1.2c0 .052.007.11 0 .16.02.722-.55 1.323-1.277 1.342-.064 0-.128 0-.186-.007h-1.239.007Zm14.75-3.264-2.555 6.74h.638l.786-2.109h2.888l.798 2.108h.639l-2.555-6.739h-.64Zm-.933 4.082 1.278-3.334 1.277 3.334h-2.555Zm13.19-4.082v6.74h.576v-2.811h1.277a1.966 1.966 0 0 0 2.076-1.853 1.966 1.966 0 0 0-1.852-2.076h-2.076Zm1.828 3.386h-1.278v-2.856h1.278a1.35 1.35 0 0 1 1.469 1.201c.006.077.006.154 0 .237a1.324 1.324 0 0 1-1.214 1.424c-.083.006-.172 0-.255 0v-.006Zm11.364 3.353h3.519v-.53h-2.944v-2.593h2.746v-.53h-2.746v-2.55h2.944v-.536h-3.519v6.74Zm17.183-2.318a1.81 1.81 0 0 1-1.701 1.889 1.809 1.809 0 0 1-1.908-1.679v-4.637h-.575v4.401a2.382 2.382 0 1 0 4.765 0v-4.401h-.575v4.42l-.006.007Zm9.549-3.884h1.885v6.202h.575v-6.202h1.865v-.537h-4.325v.537Zm13.364-.537h.575v6.74h-.575v-6.74Zm9.913 3.373a3.398 3.398 0 0 0 3.348 3.45h.108a3.456 3.456 0 0 0 1.917-.537v-.684a2.931 2.931 0 0 1-1.917.64 2.905 2.905 0 0 1-2.604-1.923 2.911 2.911 0 0 1 2.604-3.897 2.864 2.864 0 0 1 1.917.639v-.626a3.456 3.456 0 0 0-1.917-.537 3.404 3.404 0 0 0-3.456 3.354v.121Zm16.871.058-1.31-.844a1.203 1.203 0 0 1-.639-1.028c0-.639.537-1.105 1.348-1.105a2.27 2.27 0 0 1 1.476.55v-.697a2.617 2.617 0 0 0-1.444-.409c-1.424 0-1.999.856-1.999 1.68a1.74 1.74 0 0 0 .983 1.546l1.278.83c.46.218.773.658.824 1.163 0 .607-.498 1.169-1.456 1.169a2.481 2.481 0 0 1-1.629-.639v.716c.492.293 1.06.447 1.635.447 1.348 0 2.07-.83 2.07-1.744-.039-.652-.326-1.125-1.137-1.636ZM50.448 24.596c-.485-5.219-5.11-9.103-10.322-9.103H25.8c0 1.137.92 2.057 2.056 2.057h12.31a8.21 8.21 0 0 1 8.304 7.467 8.022 8.022 0 0 1-7.998 8.566h-.102c-.07 0-.14.02-.21.045a.964.964 0 0 0-.186.083.21.21 0 0 0-.102.045s0 .038-.058.057a3.055 3.055 0 0 0-.14.154c-.039.05-.077.102-.102.16a.867.867 0 0 0-.07.178c-.02.064-.04.134-.045.205v.185c.006.07.019.134.038.204.025.064.057.128.09.192 0 .032 0 .077.044.102l9.69 13.414a2.559 2.559 0 0 0 2.044 1.048h1.278L42.33 35.443a10.073 10.073 0 0 0 8.119-10.846Zm91.014-9.218a1.024 1.024 0 0 0-1.125.224l-15.33 15.33-15.331-15.33a1.028 1.028 0 0 0-1.756.728v31.3a2.054 2.054 0 0 0 2.063 2.038V18.822l14.296 14.296a1.029 1.029 0 0 0 1.456 0l14.302-14.296V49.67c1.137 0 2.057-.92 2.057-2.057v-31.3c0-.409-.255-.78-.632-.933Zm32.002 2.179a2.06 2.06 0 0 0 2.064-2.051c.006-1.137-20.384-.006-20.384-.006-.568 0-1.022.46-1.028 1.028V48.64c0 .569.46 1.022 1.028 1.029h20.403c0-1.137-.92-2.057-2.057-2.057h-17.33V33.616h14.462a2.06 2.06 0 0 0-2.051-2.063H156.16V17.558h17.304ZM86.412 49.33c9.435 0 17.087-7.652 17.087-17.087 0-9.435-7.652-17.087-17.087-17.087-9.435 0-17.087 7.652-17.087 17.087.012 9.428 7.659 17.074 17.087 17.087Zm0-31.939c8.183 0 14.82 6.637 14.82 14.82s-6.637 14.82-14.82 14.82-14.82-6.637-14.82-14.82c.026-8.17 6.65-14.781 14.82-14.788v-.032Zm93.095-1.865h.671v2.21h.204v-2.21h.665v-.191h-1.54v.191Zm4.957-.191-.952 2.14-.958-2.14h-.23v2.401h.205v-1.993l.887 1.993h.186l.881-1.993v1.993h.211v-2.402h-.23Z"/></svg>