<svg xmlns="http://www.w3.org/2000/svg" fill="none" viewBox="0 0 210 80"><path fill="#000" d="m19.081 36.55.048-.848 1.008-.047v-1.057l1.249-.152c.01 0 0-.171 0-.295h-1.21l-.029-.381c.173-.238.749.124.557-.485l-.538-.048V31l1.277.019c.087 0 .221.238.221.362l.01 1.79c.403.056.592.218.566.485l-.49.038c-.143.276-.105.438.26.428.24 0 .48-.019.72.01.077 0 .211.143.202.18-.03.096-.125.23-.202.23-.326.028-.663.009-1.037.009v1.104l-.999.057v.79h3.313l.048-.8.999-.047v-1.057l1.248-.143c.01 0 0-.17 0-.295h-1.21l-.038-.457.538-.038c.07-.24-.096-.384-.5-.428v-2.199h1.489v2.142c.41.057.601.219.576.485l-.461.029c-.135.428-.135.428.336.438h.759c.182.419-.048.447-.346.438h-.816v1.104l-1.018.047v.81h4.09l.058 1.113h.922c.163.4-.048.429-.326.429h-3.717v1.009l.816.038v1.304l-.845.038v.561c0 .19.068.41-.259.476-.057.01-.096.438-.029.629.068.2.27.361.413.542-.029.048-.067.086-.096.134h4.081v1.523H26.6v1.323c0 .047 0 .123.02.133.692.41.24 1.066.346 1.6.057.266.01.56.01.865l-.644.096v1.485h-1.508v-1.514l.605-.086v-2.075c0-.028 0-.085-.01-.095-.681-.38-.249-1.028-.374-1.542-.01-.048-.029-.086-.048-.162h-3.322v1.323c0 .048 0 .124.029.134.614.266.268.809.345 1.218.039.2 0 .41 0 .619.039.438 0 .78-.633.637v1.533h-1.527v-1.504l.614-.076v-2.094c0-.029 0-.086-.01-.096-.71-.39-.22-1.066-.383-1.58 0-.019 0-.028-.03-.104h-4.061v-1.552h4.1c-.01-.295.173-.552-.25-.695-.086-.028-.115-.6-.067-.609.567-.171.26-.628.346-.952 0-.029.02-.057.048-.124l.797-.047V39.12l-.855-.048v-1.028h-3.773c-.097 0-.27 0-.279-.028-.163-.6-.691-.324-1.085-.438V36.52h4.081v.029Zm2.814 6.254h3.13v-.4c-.163-.21-.326-.333-.346-.476-.028-.181-.144-.467.23-.524.059 0 .116-.19.135-.304.02-.21 0-.429 0-.676h.836v-1.285l-.836-.048v-.99h-3.332v.98l.816.039v1.313l-.806.038-.039.257c-.057.286.192.686-.326.82-.038.009-.038.408.038.599.087.2.27.361.51.657h-.01Zm33.407-8.282h2.708v2.408l1.258.19.144 1.172 1.162.114.144 1.228h1.18v-5.102h2.7V46.24h-2.651v-2.485l-1.277-.18-.106-1.162-1.171-.095-.154-1.17h-1.21v5.178c-.816 0-1.527.038-2.218-.029-.183-.019-.49-.324-.49-.505l-.02-11.27Zm83.293 11.727v-2.494l-1.239-.161-.173-1.162-1.181-.143-.096-1.16-1.2-.058v5.178h-2.68V34.513h2.593v2.436l1.277.162.173 1.152 1.162.162.163 1.209h1.201v-5.121h2.659V46.24h-2.659v.01ZM91.196 35.826l-1.171-.066v-1.247h7.835l.135 1.18 1.22.124v3.902l-1.21.115v2.427l1.18.124v3.884h-2.534V42.47l-1.306-.18-.125-1.171-1.2-.067v5.217h-4.005v-1.21l1.19-.18v-9.053h-.009Zm2.881.029v3.76h2.42v-3.76h-2.42Zm28.145 3.864-1.181.096v2.446l1.152.114v3.884h-2.554v-3.827l-1.315-.133-.164-1.17h-1.162v5.12h-3.956V45.05l1.2-.162v-9.033l-1.219-.124v-1.209h7.864l.144 1.19 1.191.105v3.921-.019Zm-2.679-.057v-3.817h-2.506v3.817h2.506ZM87.73 37.064H86.49l-.163-1.2h-3.812v3.77h2.43c.287-.438-.222-1.476.902-1.266.23.047.576.342.585.533l.03 3.398h-1.326l-.163-1.2h-2.43v3.78H86.3l.173-1.2H87.7v2.551h-9.209v-1.199l1.23-.171v-8.996l-1.24-.143v-1.199h9.238v2.542h.01ZM69.658 46.24l-.096-1.18-1.2-.172-.125-1.161-1.23-.162v-6.463l1.23-.124.115-1.161 1.18-.124.145-1.171h5.243l.086 1.17 1.172.096v2.551h-2.593v-2.513h-2.573l-.135 1.171-1.171.162v6.358l1.133.172.173 1.085c2.967.39 2.64.41 2.439-2.38l-1.181-.133V41.1h3.927v5.12h-6.549l.01.02Zm-24.083-7.891-1.23.18v3.77h-1.344l-.173-1.18H40.36v3.75l1.181.172v1.275c-1.603 0-3.197.038-4.791-.047-.221-.01-.404-.657-.682-1.143l1.498-.247v-9.005l-1.22-.153v-1.19h9.219v3.818h.01Zm-2.785 1.313c.154-.825.618-1.294 1.392-1.408v-1.057l-1.2-.181-.163-1.142H40.36v3.798h2.43v-.01Zm63.962 6.597h-5.223l-.058-1.18 1.248-.2v-9.015l-1.181-.143v-1.19h7.855l.106 1.171 1.219.096v3.883l-1.2.153-.125 1.208h-3.86v3.827l1.229.172v1.218h-.01Zm1.278-6.616v-3.779h-2.507v3.78h2.507Zm51.095 1.342 1.162.105.105 1.161 1.181.143v2.504l-1.171.171-.115 1.161h-5.224l-.125-1.16-1.191-.172v-2.485h2.583v1.695c-.057.657.221.895.865.856.557-.038 1.123 0 1.747 0v-2.541l-1.219-.114-.163-1.228h-2.507l-.086-1.238-1.181-.105v-3.912l1.171-.114.096-1.18h5.253l.096 1.151 1.191.143v2.618c-.682 0-1.354.057-2.007-.029-.221-.028-.519-.409-.557-.657-.087-.58-.029-1.19-.029-1.875h-2.593v3.798h2.516l.221 1.304h-.019Zm-13.012-5.13h-1.142l-.192 1.2h-1.249V34.55h7.903v2.474h-1.258l-.144-1.17h-1.142v9.024l1.181.21v1.189h-5.042c-.249-.774.112-1.256 1.085-1.447v-8.976Zm-97.062 0-1.181-.124v-1.19h5.223l.048 1.17-1.238.144v9.024l1.162.152v1.218H47.85v-1.18l1.181-.21v-9.004h.02Zm79.48 9.033 1.2.153v1.275c-1.584 0-3.149.048-4.695-.047-.269-.02-.509-.629-.884-1.133l1.575-.286v-8.976l-1.21-.153v-1.18h5.214v1.209l-1.21.095v9.053l.01-.01Zm46.755 1.504v-9.386l1.239-.17.134-1.162 1.172-.172.124-1.17h2.843l.153 1.17 1.162.134.144 1.18 1.21.181v9.252c-.096.077-.144.143-.201.153-1.812.177-2.721-.625-2.727-2.409v-1.399h-2.276v3.798h-2.977Zm.336-.314h2.305v-3.836h3.024v3.827h2.228v-8.767l-1.21-.105-.153-1.18-1.21-.124-.125-1.162h-2.141l-.173 1.171-1.191.134-.173 1.17-1.171.096v8.776h-.01Zm-3.735-1.009-1.153.114-.173 1.219h-6.779v-1.504l1.181-.153v-8.728l-1.162-.105v-1.57h6.751l.173 1.16 1.142.134.164 1.18 1.219.2v6.74l-1.21.133-.153 1.17v.01Zm-1.604-10.338h-6.27l.048.79 1.209.115v9.404c-.857.102-1.229.435-1.113 1h6.126l.125-1.161 1.181-.143.154-1.2 1.181-.142v-6.102l-1.201-.095-.134-1.19-1.22-.105-.086-1.17ZM195 43.794l-1.162.076-.154 1.18-1.161.162-.154 1.18h-4.168l-.124-1.18-1.153-.124-.182-1.18-1.21-.133v-6.768l1.229-.162.144-1.19 1.152-.114.164-1.18h4.177l.086 1.18 1.2.142.116 1.143 1.2.2v6.787-.02Zm-1.623-7.777-1.21-.105-.134-1.161h-3.496l-.182 1.151-1.191.153-.086 1.16-1.181.087v6.12l1.152.124.144 1.209 1.181.152.163 1.162h3.486l.173-1.143 1.162-.162.192-1.199 1.181-.171V37.32l-1.21-.115-.144-1.18v-.01Zm-12.522.97v4.15h-2.909v-4.15h2.909Zm-.355.305h-2.18v3.484h2.18v-3.484Zm-12.8-1.647h1.565l.125 1.2 1.2.133v6.797l-1.181.104-.134 1.18H167.7v-9.414Zm1.21.105c-.394.295-.836.466-.845.647l-.029 8.548c.423-.19.893-.333.883-.409-.124-1.019.538-1.142 1.326-1.123V37.31l-1.23-.133-.115-1.428h.01Zm23.488 8.025-1.153.095-.172 1.18h-1.575l-.087-1.17-1.181-.096v-6.797l1.153-.142.134-1.18h1.556l.144 1.199 1.181.104v6.806Zm-3.851-6.483v6.14l1.181.104.154 1.18c1.325.467.643-.808 1.047-1.16l1.113-.172v-6.073l-1.229-.124-.086-1.151h-.836l-.163 1.17-1.181.086Z"/></svg>