<svg xmlns="http://www.w3.org/2000/svg" fill="none" viewBox="0 0 210 80"><path fill="#000" d="m33.962 28.478-2.385 4.086h-4.842v19.8h-4.508v-19.8H15v-4.086h18.962Zm25.14 0 6.616 23.88h-4.647l-2.488-9.412-1.717 4.102h-5.555l-1.438 5.322H45.24l6.626-23.892H59.1Zm-.52 14.465L55.69 32.228h-.41l-2.907 10.715h6.21Zm26.67-14.465v19.8h8.61l2.441 4.1H80.741v-23.9h4.511Zm31.703-.472c6.106 0 9.827 3.78 9.827 9.883v5.04c0 6.283-3.721 9.886-9.83 9.886s-9.828-3.612-9.828-9.88v-5.04c.015-6.11 3.724-9.89 9.831-9.89Zm-5.322 15.147c0 3.444 1.701 5.655 5.322 5.655s5.322-2.353 5.322-5.655v-5.47c0-3.373-1.981-5.658-5.322-5.658s-5.322 2.43-5.322 5.658v5.47Zm45.735-7.578v1.017h-4.364v-.72c0-2.733-1.746-3.924-4.464-3.924-2.386 0-3.854 1.194-3.854 2.834 0 2.255 2.108 2.662 4.989 3.314l.307.074c4.915 1.09 7.807 2.833 7.807 7.17 0 4.812-3.75 7.502-8.842 7.502-5.83 0-9.583-3.14-9.583-8.74v-.755h4.434v.61c0 2.946 1.672 4.928 5.302 4.928 2.895 0 4.261-1.542 4.261-3.315 0-2.078-1.772-2.762-4.916-3.447l-.306-.07c-4.954-1.085-7.891-2.795-7.891-7.13 0-4.334 3.654-6.923 8.283-6.923 5.113.006 8.837 2.792 8.837 7.575Z"/><path fill="#22CAAD" d="M177.798 45.682h-6.675v6.676h6.675v-6.676Zm8.592 0h-6.675v6.676h6.675v-6.676Zm-8.592-8.595h-6.675v6.676h6.675v-6.676ZM195 28.48h-6.676v6.676H195v-6.675Zm-8.61 0h-6.675v6.676h6.675v-6.675Zm8.61 8.607h-6.676v6.676H195v-6.676Z"/></svg>