<svg xmlns="http://www.w3.org/2000/svg" fill="none" viewBox="0 0 210 80"><path fill="#FF007A" d="M129.008 33.81c.275-.096.468-.222.662-.222h5.398c.257.005.509.266.761.41-.234.149-.464.42-.707.433-1.104.058-.996.78-.775 1.455l2.217 6.42c.676 1.884 1.396 3.754 2.343 5.642l.581-1.532 2.983-8.44c.635-1.977.22-2.653-1.69-3.532-.185-.085-.297-.324-.446-.495.198-.122.396-.347.595-.352h5.933c.194 0 .383.235.577.365-.185.162-.342.406-.559.473-1.103.343-1.45.748-1.108 1.785l3.979 11.624c.103.005.202.009.306.018.14-.297.302-.586.414-.888l3.938-10.732c.505-1.406.46-1.424-.973-1.802-.207-.054-.374-.257-.554-.392.131-.144.261-.415.396-.42l5.137-.017c-.059.315-.05.428-.086.446-1.644.77-2.059 2.383-2.645 3.87L150.684 50.8c-.257.671-.586 1.27-1.347 1.058-.392-.108-.784-.626-.951-1.05l-3.924-10.164c-.135-.356-.315-.694-.586-1.28l-1.374 3.434-3.109 8.164c-.139.36-.509.815-.833.874-.636.108-1.172-.09-1.474-.879l-5.6-14.373c-.397-1.018-.771-2.045-2.077-2.23-.135-.018-.234-.306-.397-.54l-.004-.005Zm-43.799 4.167c-.094.324-.166.455-.162.581l.104 10.151c.009 1.05.468 1.68 1.514 1.906.31.067.585.31.846.653-2.14.527-4.257.437-6.375.23-.04-.09-.081-.185-.126-.275.234-.194.441-.5.703-.559.892-.198 1.306-.793 1.325-1.608l.153-12.521c-.01-1.446-.573-1.83-2.109-2.095-.257-.045-.477-.288-.716-.442.252-.144.5-.396.761-.41 1.185-.045 2.375-.063 3.56.005.324.018.684.333.928.6l10.417 11.542c.283.316.513.68.77 1.023l.329-.167c.05-.58.14-1.162.14-1.748l-.077-7.997c-.018-1.496-.342-1.901-1.78-2.397-.234-.081-.428-.288-.64-.433.208-.148.415-.423.627-.428 1.856-.036 3.717-.018 5.578-.018l.103.45c-.225.145-.437.384-.68.424-.982.158-1.253.766-1.262 1.672l-.162 10.156v5.29c-1.1.242-1.658-.352-2.18-.92l-8.967-9.8-2.6-2.874-.022.009Zm-14.075-4.37 5.014.017c.14 0 .334.24.397.401.031.086-.162.365-.275.379-1.356.162-1.113 1.275-1.158 2.09-.14 2.483-.171 4.97-.261 7.453a32.59 32.59 0 0 1-.18 2.478c-.383 3.388-2.726 5.501-6.155 5.537-1.005.01-2.032.063-3.014-.1-2.78-.454-4.61-2.473-4.763-5.307-.175-3.27-.207-6.555-.351-9.83-.045-.988.18-2.218-1.397-2.348-.094-.01-.171-.27-.252-.415.23-.126.464-.36.694-.365a220.97 220.97 0 0 1 5.181 0c.162 0 .325.113.64.235-.297.252-.473.531-.698.572-1.073.198-1.145.91-1.136 1.816l.018 9.727c.045 2.902 1.519 4.402 4.254 4.501 2.96.108 5.06-1.505 5.194-4.28.158-3.303.086-6.619.09-9.93 0-.947-.274-1.708-1.419-1.807-.207-.018-.392-.284-.59-.433l.167-.396v.004Zm94.811-.01 1.315 3.29 4.51 11.547c.473 1.185.883 2.487 2.42 2.776.076.013.144.153.189.243.027.058.004.14.004.297-.216.045-.441.14-.666.14l-5.61.005c-.261 0-.518-.212-.779-.33.23-.17.432-.41.689-.5 1.104-.383 1.55-1.234 1.19-2.351-.709-2.193-2.201-3.285-4.474-3.276-.217 0-.433-.014-.649 0-.87.068-2.262-.162-2.51.27-.694 1.208-1.009 2.672-1.261 4.069-.064.338.675.847 1.09 1.234.23.212.545.33.824.491l-.126.32h-6.357c.18-.27.284-.612.45-.644 1.262-.248 1.681-1.243 2.091-2.257l5.402-13.512c.419-1.082 1.091-1.604 2.258-1.812Zm1.194 9.904-2.56-6.25-.247.05-2.141 6.2h4.948Zm13.742 1.23v4.857c0 .892.635 1.198 1.342 1.468.329.127.622.352.933.537l-.144.301h-6.768l-.117-.27c.279-.19.536-.464.843-.559 1.009-.301 1.455-.937 1.455-1.986l.013-12.418c.01-1.063-.355-1.712-1.473-1.856-.302-.04-.577-.257-1.14-.527.518-.221.721-.383.928-.388 2.798-.063 5.61-.293 8.394-.108 3.114.207 4.83 2.41 4.853 5.664.022 3.09-1.771 5.33-4.794 5.623-1.406.135-2.861-.212-4.321-.343l-.004.005Zm-.023-5.16h-.054v2.154c.013 1.694.27 1.956 1.978 2.01.464.013.937.013 1.397-.054 1.838-.28 2.942-1.23 3.135-2.893a8.134 8.134 0 0 0-.135-2.77c-.581-2.483-2.933-3.75-5.321-2.88-.423.153-.901.757-.959 1.208-.14 1.059-.046 2.149-.046 3.226h.005ZM116.496 47.2c.158.36.365.707.464 1.085.514 1.888 1.825 2.785 3.884 2.618 1.734-.14 3.091-1.45 3.262-3.19.117-1.194-.473-2.108-1.356-2.784-.965-.744-2.05-1.325-3.042-2.037-.815-.58-1.662-1.158-2.334-1.888-1.234-1.347-1.572-2.991-.964-4.726.604-1.721 1.965-2.721 3.699-2.924 1.627-.19 3.294-.054 4.943.027.27.014.698.42.752.703.158.838.167 1.703.239 2.604-.784.212-1.068-.261-1.361-.775-1.049-1.82-3.356-2.266-5.082-1-1.225.901-1.487 2.347-.464 3.47.739.81 1.676 1.45 2.568 2.112 1.095.816 2.312 1.478 3.334 2.37 2.596 2.249 2.46 5.623-.306 7.669-2.631 1.942-5.51 1.752-8.425.743-.149-.05-.365-.212-.37-.324-.027-1.226-.018-2.456-.018-3.681l.577-.072ZM23.6 29.335l3.6 5.438c.712 1.05 1.167 1.145 2.442.523L20 22.23l.234-.23.708.955 9.664 10.782c1.045 1.167.838 2.41-.581 3.136-.5.257-1.077.405-1.64.5-.856.14-1.172.63-1.33 1.446-.238 1.226-.508 2.47-.963 3.623-.884 2.225-.735 3.005 1.158 4.442.23.176.463.343.675.536 1.028.942 1.037 2.226.04 3.217-.936.933-2.694 1.663-4.383 1.798-.563-1.153-1.262-2.302-1.694-3.541-.523-1.5-.325-2.992.748-4.267 1.577-1.87 2.888-3.861 3.041-6.42.023-.374.167-.843.424-1.09.973-.929.54-1.776.022-2.7-.92-1.649-1.789-3.325-2.68-4.992l.152-.09h.005Zm-.37 19.045c.334-.176.676-.243.785-.441.112-.203.094-.618-.05-.789-.171-.203-.536-.239-.888-.378l.153 1.608Zm81.479 2.748c.298-.162.582-.414.901-.473.811-.148 1.194-.626 1.235-1.4l.171-4.42-.144-8.75c-.009-1.014-.433-1.532-1.433-1.65-.234-.027-.45-.247-.671-.383.239-.162.473-.455.716-.46 1.834-.04 3.668-.035 5.502 0 .225 0 .45.253.675.388-.193.158-.369.415-.585.46-1.037.22-1.424.901-1.415 1.874l.158 12.963c.009.874.41 1.32 1.27 1.432.203.027.392.244.55.415.027.027-.149.36-.252.37a28.435 28.435 0 0 1-6.579-.01l-.094-.36-.005.005Zm-55.288-4.622c-.23-1.852-1.396-2.771-2.807-3.447-1.716-.82-3.482-1.532-5.172-2.397-1.793-.92-3.068-2.253-2.865-4.262 1.941.428 3.865.91 5.812 1.261 3.172.577 5.195 2.19 5.722 4.785.28 1.361.135 2.695-.69 4.06ZM30.89 27.794c1.879.005 3.334.955 4.537 2.293.59.658 1.131.866 2.032.735 1.955-.284 3.87.05 5.668.92 1.46.706 1.78 1.477 1.406 3.036-.1.414.027.887.054 1.334.396-.334.833-.631 1.171-1.014.194-.221.23-.577.478-1.248l2.014 3.726c-.09.072-.176.148-.266.22-.991-1.212-2.334-1.414-3.758-1.482-1-.045-2.005-.194-2.996-.351-1.6-.252-2.888-1.063-3.902-2.312l-2.149-2.707c-1.135-1.442-2.473-2.6-4.294-3.154l.005.004Zm11.687 14.459c1.947 1.144 3.988 1.91 5.385 3.631 2.108 2.595 1.045 6.957-2.204 8.552 1.347-3.127-.743-5.155-2.108-7.39-.865-1.414-1.564-2.834-1.073-4.793Zm-8.37 9.804c.54.198 1.274.252 1.558.635.288.397.374 1.298.113 1.654-.365.49-1.136.9-1.744.923-.55.023-1.23-.414-1.654-.847-1.212-1.239-2.491-2.275-4.374-2.289 1.63-2.27 5.79-3.487 8.222-2.5 1.46.594 2.271 1.703 2.555 3.226.126.671.216 1.351.36 2.018.316 1.456 1.05 1.987 2.532 1.879l.694-.05c-1.46 1.06-2.991.726-3.96-.86-.5-.825-.748-1.834-1.343-2.568-.576-.708-1.383-1.383-2.221-1.68-1.113-.393-2.154.612-2.019 1.693.095.784.942 1.532 1.681 1.284.437-.148.991-.712 1.023-1.126.076-.969-.73-1.108-1.55-1.059l.13-.338-.004.005Zm-.443-17.275c-2.297.33-4.415-3.82-3.789-6.145 1.15.153 2.037.666 2.42 1.811.477 1.42.9 2.852 1.365 4.334h.005Zm7.232 6.862c1.514 2.325.586 4.893-2.01 5.533-1.69.42-3.469.482-5.285.45.573-.202 1.131-.44 1.717-.594.658-.171 1.343-.248 2.01-.383 3.054-.613 3.937-1.816 3.573-5.006h-.005Zm-7.849-3.798.86 1.289c-.513.324-.99.752-1.55.95-.553.199-1.391.28-1.481-.518-.063-.559.27-1.315.684-1.716.257-.248 1 .004 1.523.036-.212-.023-.437-.108-.63-.059-.284.077-.555.23-.807.397-.031.022.072.405.162.428.32.08.735.207.973.072.19-.108.18-.572.262-.879h.004Zm10.106-7.299 1.465.401.153-1.185 1.653 3.055-.914-.455-.199 1.852c-.121-1.586-.504-2.974-2.162-3.668h.004Z"/></svg>