<svg xmlns="http://www.w3.org/2000/svg" fill="none" viewBox="0 0 210 80"><path fill="url(#a)" d="m22.01 50.135 5.907-4.625c3.135 4.179 6.472 6.105 10.182 6.105s6.93-1.905 9.926-6.051l5.992 4.505c-4.329 5.986-9.702 9.142-15.918 9.142-6.216 0-11.632-3.145-16.099-9.087l.01.01Z"/><path fill="url(#b)" d="m38.089 30.045-10.513 9.25-4.872-5.746L38.11 20l15.278 13.56-4.883 5.735-10.416-9.24v-.01Z"/><path fill="#111" d="M76.684 53.508c-3.593 0-6.578-1.186-9.01-3.558-2.43-2.405-3.624-5.496-3.624-9.262 0-3.765 1.226-6.921 3.657-9.37 2.463-2.481 5.459-3.7 9.009-3.7 4.392 0 8.273 1.937 10.544 4.952l-3.955 4.244c-1.898-2.068-3.956-3.123-6.184-3.123-1.898 0-3.454.642-4.755 1.97-1.258 1.327-1.898 2.992-1.898 4.984 0 1.991.63 3.559 1.898 4.886 1.3 1.285 2.857 1.938 4.723 1.938 2.43 0 4.552-1.089 6.322-3.222l4.126 4.038c-1.13 1.523-2.654 2.786-4.552 3.765-1.898.99-3.988 1.459-6.29 1.459h-.011Zm11.962-26.26H94.5v25.89h-5.853v-25.89Zm11.398 5.496c-1.962 0-3.39-1.458-3.39-3.46 0-2.003 1.492-3.396 3.39-3.396 1.897 0 3.358 1.458 3.358 3.395s-1.461 3.46-3.358 3.46Zm-2.922 1.665h5.885v18.74h-5.885V34.41Zm17.144 19.143c-2.889 0-5.224-.914-7.047-2.753-1.791-1.829-2.698-4.18-2.698-7.063 0-2.884.896-5.224 2.73-7.063 1.834-1.829 4.19-2.754 7.111-2.754 3.828 0 7.186 1.905 8.743 5.464l-4.691 2.514c-.928-1.6-2.229-2.416-3.924-2.416-1.226 0-2.228.402-3.028 1.218a4.018 4.018 0 0 0-.874 1.393 4.236 4.236 0 0 0-.288 1.633c0 2.481 1.759 4.31 4.126 4.31 1.695 0 3.263-.947 3.924-2.406l4.691 2.852c-1.6 3.123-4.883 5.06-8.775 5.06v.011Zm29.192-.413h-6.984l-5.426-7.434-.864.817v6.617h-5.843v-25.89h5.854v12.59l5.512-5.43h7.154l-7.879 7.531 8.476 11.199Zm.394-9.74V28.052h6.248V43.29c0 2.82 1.599 4.18 3.892 4.18 2.292 0 3.859-1.426 3.859-4.18V28.053h6.29v15.345c0 7.4-5.021 10.187-10.139 10.187-5.117 0-10.139-2.786-10.139-10.187h-.011Zm40.632-6.617c-1.695-1.894-3.828-2.84-6.461-2.84-2.09 0-3.849.74-5.278 2.197v-1.73h-5.789v26.446h5.885v-9.273c1.429 1.36 3.188 2.035 5.225 2.035 2.558 0 4.68-.946 6.386-2.851 1.695-1.937 2.548-4.277 2.548-7.02 0-2.742-.821-5.093-2.516-6.965Zm-4.627 10.088c-.768.849-1.759 1.252-2.954 1.252-1.194 0-2.196-.403-2.996-1.252a4.415 4.415 0 0 1-1.162-3.058c0-2.449 1.76-4.31 4.158-4.31 2.399 0 4.116 1.861 4.116 4.31a4.381 4.381 0 0 1-1.162 3.058Z"/><defs><linearGradient id="a" x1="22.011" x2="54.028" y1="52.366" y2="52.366" gradientUnits="userSpaceOnUse"><stop stop-color="#8930FD"/><stop offset="1" stop-color="#49CCF9"/></linearGradient><linearGradient id="b" x1="22.704" x2="53.388" y1="29.653" y2="29.653" gradientUnits="userSpaceOnUse"><stop stop-color="#FF02F0"/><stop offset="1" stop-color="#FFC800"/></linearGradient></defs></svg>