<svg xmlns="http://www.w3.org/2000/svg" fill="none" viewBox="0 0 210 80"><path fill="#000" d="M184.494 39.534c-.739.127-1.481.189-2.232.156-1.925-.09-3.555-1.32-3.953-3.277a7.286 7.286 0 0 1-.135-1.485l.008-4.49c0-.32-.094-.395-.39-.374-.377.024-.755 0-1.132.008-.173.004-.226-.053-.222-.221v-2.072c0-.176.057-.221.226-.217.39.012.783-.016 1.173.008.288.02.386-.053.374-.357-.025-.689 0-1.378-.012-2.07 0-.235.028-.354.311-.345.768.02 1.539.012 2.307 0 .226 0 .287.074.283.29l-.008 2.15c-.004.246.049.336.32.332.874-.02 1.744 0 2.618-.012.263-.004.32.078.316.324-.016.623-.02 1.25 0 1.874.009.271-.09.316-.332.312-.874-.012-1.744 0-2.618-.012-.238 0-.308.057-.304.3v4.61c-.008 1.024.599 1.746 1.506 2.013.168.05.328.04.493.045.467.012.939 0 1.407 0v2.502l-.004.008Zm-57.28-8.363c.562.201.993.451 1.404.755.837.615 1.268 1.464 1.366 2.453.111 1.103-.053 2.157-.755 3.096-.657.87-1.543 1.341-2.532 1.673-.915.304-1.863.32-2.82.312a349.685 349.685 0 0 0-5.08 0c-.296 0-.362-.074-.362-.365V23.707c0-.296.078-.373.366-.37l5.626.034c1.33.045 2.635.278 3.714 1.164.838.69 1.343 1.563 1.384 2.658.028.701.045 1.398-.288 2.075-.365.75-.915 1.284-1.629 1.674l-.398.221.004.008Zm-5.746 3.4v1.6c0 .64 0 .66.653.636 1.092-.046 2.191.14 3.275-.156 1.477-.406 2.093-2.039 1.272-3.228-.529-.771-1.342-.976-2.187-1.025l-2.734-.017c-.217 0-.291.053-.287.28l.004 1.91h.004Zm0-6.533-.008 1.718c-.016.34.099.406.415.394.907-.033 1.818.041 2.721-.074.562-.074 1.095-.25 1.502-.664.587-.595.689-1.333.447-2.088-.275-.853-.993-1.185-1.814-1.3-.993-.14-1.995-.045-2.996-.074-.242-.008-.275.095-.271.296v1.796l.004-.004Zm22.938 1.259.221-1.32c.033-.28.103-.435.44-.419h1.875c.226-.004.279.066.279.283l-.02 10.66c-.025 1.562-.546 2.998-1.724 4.105-1.006.951-2.237 1.415-3.599 1.62-1.662.246-3.21-.074-4.695-.791a4.62 4.62 0 0 1-.558-.316c-.185-.123-.3-.275-.296-.538.021-.845.008-1.69.008-2.567.842.62 1.716 1.14 2.709 1.415 1.416.394 2.766.303 3.993-.574.69-.492 1.026-1.177 1.133-2.026.061-.505.025-1.005.074-1.584l-.645.69c-1.173 1.242-3.39 1.64-4.99.955-1.494-.64-2.569-1.735-3.078-3.207-.862-2.51-.562-5.238 1.781-7.23.915-.78 1.999-1.162 3.242-1.125 1.355.041 2.471.53 3.407 1.49.143.147.205.36.447.479h-.004Zm-.177 3.86c.037-.386-.061-.825-.217-1.264-.665-1.887-3.218-2.514-4.712-1.23-1.206 1.037-1.51 2.748-.825 4.15.784 1.596 2.483 2.236 4.088 1.395 1.17-.615 1.707-1.649 1.666-3.056v.004Zm18.259-1.789.008 7.731c0 .296-.073.37-.365.361a40.673 40.673 0 0 0-2.343 0c-.316.012-.353-.102-.353-.373l.012-5.935c0-.311-.061-.414-.398-.414-2.149.012-4.298.008-6.447-.012-.304 0-.362.086-.362.369l.013 5.976c0 .295-.058.401-.378.39a42.015 42.015 0 0 0-2.384 0c-.247.003-.304-.066-.3-.304V23.654c0-.284.107-.312.341-.308h2.384c.279-.008.341.082.341.349l-.012 5.897c0 .316.094.382.394.382h6.447c.3 0 .365-.086.365-.373l-.012-5.898c0-.3.082-.365.369-.361h2.307c.345-.013.394.11.39.414l-.009 7.616-.008-.004Zm10.544-1.927.283-1.662c.024-.168.074-.217.238-.213h2.15c.156 0 .214.053.197.201-.008.066 0 .131 0 .197l.008 11.131c0 .32-.094.382-.385.373l-1.954-.008c-.098 0-.226.066-.254-.135l-.263-1.73c-.353.422-.652.844-1.071 1.172-.607.48-1.289.763-2.027.915a4.413 4.413 0 0 1-3.099-.451c-1.367-.747-2.237-1.891-2.766-3.335a6.854 6.854 0 0 1-.374-3.019c.132-1.394.604-2.678 1.539-3.76.743-.862 1.634-1.534 2.754-1.71 1.334-.21 2.664-.107 3.821.754.477.352.887.787 1.211 1.284l-.008-.005Zm-3.395.561c-.804.033-1.584.415-2.179 1.202-.665.878-.8 1.879-.693 2.916.082.796.406 1.546 1.009 2.084.714.635 1.543.972 2.565.77 1.047-.208 1.757-.79 2.2-1.71.345-.717.402-1.488.324-2.3-.16-1.65-1.338-2.937-3.221-2.962h-.005Zm-38.475 3.52-.008-5.62c0-.274.066-.348.34-.34l2.303.008c.299 0 .501.234.398.525-.062.172-.049.328-.049.492v10.5c0 .295-.062.394-.374.381a39.262 39.262 0 0 0-2.302 0c-.259.004-.32-.07-.32-.32l.004-5.618.008-.009Zm27.571 18.054-.004 3.227c0 .144.094.361-.082.415-.189.061-.415.028-.62.008-.127-.012-.078-.148-.078-.23l-.004-4.606c0-.184.058-.23.242-.25.407-.04.653.058.862.468l1.785 3.244c.14-.074.082-.193.082-.283l-.008-3.084c-.008-.357.173-.324.402-.324.226 0 .407-.033.403.324l-.005 4.45c0 .221-.036.295-.287.32-.468.049-.685-.132-.894-.55l-1.728-3.137-.066.012v-.004Zm-30.657.955c.767.337.726.993.669 1.604-.045.492-.394.78-.866.964-.657.254-1.326.131-1.987.152-.812.024-.812.004-.812-.825l-.008-3.941c0-.275.065-.361.34-.337.723.062 1.445-.073 2.167.087.513.114.87.401.985.89.107.455.074.922-.349 1.259-.037.032-.069.074-.139.151v-.004Zm-2.229 1.206v.624c0 .09-.016.192.123.188.55-.016 1.113.074 1.65-.106.361-.12.407-.472.407-.75 0-.333-.173-.645-.559-.715a4.368 4.368 0 0 0-.804-.065c-.821-.008-.821 0-.821.824h.004Zm.739-1.464c.156 0 .312.016.464 0 .533-.07.763-.25.771-.648.009-.558-.18-.636-.734-.746-.189-.037-.386-.005-.583-.005-.438 0-.657.222-.657.665 0 .492.247.738.739.738v-.004Zm10.835.439c.061.603-.041 1.19-.378 1.71-.763 1.173-2.688 1.46-3.583-.164-.546-.992-.537-2.674.378-3.646.874-.927 2.901-.755 3.443.84a3.1 3.1 0 0 1 .14 1.264v-.004Zm-3.501.082v.439c.021.61.566 1.316 1.063 1.382.808.102 1.346-.263 1.584-.993.209-.648.181-1.296-.025-1.927-.155-.48-.508-.82-1.03-.903-.484-.073-.931.037-1.231.456-.316.439-.423.943-.361 1.55v-.004Zm6.878-2.711c.994 0 1.535.377 1.81 1.21.07.213.058.225-.156.287-.349.107-.521.082-.685-.3-.189-.447-.989-.644-1.457-.45a.599.599 0 0 0-.39.524c-.025.238.078.41.291.538.526.311 1.129.422 1.679.68.722.34 1.092.862.858 1.81-.127.508-.546.692-.989.864-.883.345-2.155.058-2.606-.836l-.156-.349c-.16-.46-.156-.455.307-.586.226-.066.345-.09.407.233.086.452.435.997 1.133.903.225-.033.447.037.685-.053.263-.103.451-.226.509-.505.07-.353-.082-.595-.386-.767-.39-.217-.821-.324-1.231-.48-.357-.135-.69-.303-.973-.574-.349-.332-.369-.755-.279-1.144.103-.44.415-.771.87-.931.25-.086.505-.082.759-.078v.004Zm35.049 0c.755-.041 1.358.225 1.736.894.094.164.3.414.033.582-.329.205-.567.111-.731-.205-.254-.492-.944-.754-1.457-.533-.246.107-.447.291-.468.574-.016.255.16.402.37.533.39.238.837.333 1.252.497.41.164.796.332 1.075.705.418.562.242 1.694-.476 1.977-.887.353-1.708.422-2.52-.16-.443-.316-.546-.808-.718-1.267-.033-.09.041-.132.131-.144.139-.016.275-.024.414-.078.132-.053.202.004.255.172.119.39.254.8.718.92.493.126.997.163 1.441-.12.373-.242.299-.787-.045-1.054-.39-.3-.887-.352-1.318-.557-.435-.206-.903-.337-1.178-.788-.533-.882.222-1.915 1.17-1.944h.312l.004-.004Zm-43.261-24.535c-.993 0-1.646-.64-1.646-1.612 0-.902.739-1.685 1.622-1.66 1.046.028 1.707.615 1.74 1.66.028.964-.714 1.694-1.712 1.612h-.004Zm36.887 24.588h2.697c.303-.008.299.136.287.345-.012.192.074.41-.287.39-.583-.034-1.17 0-1.757-.013-.205-.004-.312.029-.295.27.018.3.018.6 0 .899-.013.213.069.262.266.258l1.523-.016c.451-.045.406.213.39.488-.021.357-.353.3-.501.267-.492-.111-.981-.013-1.465-.058-.181-.016-.234.07-.209.23v.04c.029.423-.181.977.082 1.235.209.205.763.058 1.165.062h.624c.452 0 .562.156.464.599-.033.14-.115.114-.197.114l-2.696.005c-.201 0-.23-.087-.23-.259l.02-4.84.119-.02v.004Zm-13.527 0c.366.123.144.41.156.62.013.18-.176.098-.271.102h-1.797c-.222-.004-.333.025-.312.287.029.361-.119.837.062 1.058.188.234.685.058 1.042.074.234.012.472.025.702 0 .312-.04.353.094.361.37.004.282-.082.344-.349.331-.509-.02-1.018 0-1.523-.012-.201-.004-.307.025-.291.267.021.348.021.701 0 1.054-.012.221.082.254.271.25l1.876-.008c.357-.013.225.225.238.39.012.172.057.348-.251.34a55.73 55.73 0 0 0-2.618 0c-.234 0-.275-.078-.271-.287v-4.528c0-.246.07-.3.304-.3h2.676l-.005-.008Zm-11.717 2.723c-.008-1.111.267-1.94 1.092-2.514 1.063-.742 2.922-.04 3.004 1.186.008.143.164.344-.102.332-.206-.008-.497.353-.641-.152-.197-.705-.554-.93-1.288-.927-.546 0-.907.291-1.125.964-.258.796-.258 1.583.193 2.321.296.484.772.66 1.367.542.406-.082.841-.525.857-1.01.013-.368.234-.245.382-.229.185.025.46 0 .411.34-.173 1.19-1.281 1.805-2.274 1.65-1.227-.193-1.896-1.37-1.876-2.507v.005Zm20.016-.065c-.029.443.065.89.349 1.296.316.455.816.648 1.383.517a1.132 1.132 0 0 0 .837-.997c.025-.422.287-.238.455-.23.218.013.403.087.333.402-.374 1.64-2.159 2.08-3.357 1.079-.476-.398-.702-1.009-.764-1.628-.098-1.05.037-2.035.912-2.793.779-.677 2.712-.451 3.061.803.033.12.082.234.127.35.082.2.009.241-.197.294-.406.107-.574.021-.669-.418-.082-.398-.439-.632-.849-.68-.489-.062-.94.003-1.248.47-.279.428-.377.747-.377 1.53l.004.005Zm-33.657-.094v-2.301c0-.177.004-.394.25-.304.185.066.533-.11.533.304V55c0 .394-.275.21-.439.23-.156.02-.361.09-.353-.23l.009-2.3Zm19.547.04-.008-2.3c-.012-.365.209-.28.402-.28.181 0 .378-.073.374.26v4.56c.004.385-.247.234-.419.254-.193.02-.369.05-.357-.275l.008-2.223v.005Z"/><path fill="#A7A6F4" d="m169.473 50.136-.119.02c-.069-.028-.115-.081-.028-.127.078-.04.151 0 .143.107h.004Zm-13.527 0h-.213c-.008-.082.029-.123.107-.123s.115.041.106.123Zm-85.048-5.869.534-.599 10.876-10.877 2.581-2.596c.337-.353.55-.398.92-.024l29.163 29.165c.172.172.406.283.619.43-.299.312-.513.222-.697.222L87.084 60c-.434 0-.755-.11-1.07-.426L70.956 44.52c-.033-.032-.054-.074-.078-.11l.024-.144h-.004Z"/><path fill="#D0D1FF" d="m70.898 44.267-.024.144c-.92.516-1.515 1.386-2.253 2.1-.177.172-.312.385-.489.557L55.668 59.536c-.304.308-.607.464-1.059.464L26 59.988l30.296-30.252.23.061c.004.32.283.447.464.632l13.35 13.346c.172.172.37.324.558.488v.004Z"/><path fill="#4B23E5" d="m56.526 29.801-.23-.061c.025-.279.25-.418.423-.59l5.856-5.837c1.93-1.837 4.186-3.002 6.916-3.256 2.81-.263 5.347.393 7.695 1.878a13.906 13.906 0 0 1 2.314 1.883l5.808 5.787c-.013.065-.03.13-.042.196h-28.74Z"/></svg>