<svg xmlns="http://www.w3.org/2000/svg" fill="none" viewBox="0 0 210 80"><path fill="#FFC200" fill-rule="evenodd" d="M72.465 17.389h77.006V14H72.464v3.389Z" clip-rule="evenodd"/><path fill="#000" fill-rule="evenodd" d="m160.091 14 1.091 5.258V51.36H165V14h-4.909ZM99.994 45.128c-3.226 3.702-9.203 3.412-12.012-.86a7.062 7.062 0 0 1-1.056-2.657c-.523-2.971.684-5.85 3.191-7.556a7.084 7.084 0 0 1 2.681-1.114c2.74-.534 5.42.395 7.196 2.437 2.414 2.774 2.414 6.987 0 9.761v-.011ZM94.32 28.995c-3.714 0-7.15 1.764-9.343 4.886a10.781 10.781 0 0 0-1.787 4.294c-.674 3.76.51 7.417 3.133 10.028A11.35 11.35 0 0 0 94.33 51.5a11.36 11.36 0 0 0 8.264-3.551c3.969-4.202 4.062-10.852.209-15.158a11.294 11.294 0 0 0-8.473-3.783l-.011-.012Zm32.358 15.796c-3.03 3.888-8.891 3.888-11.92 0-2.066-2.646-2.066-6.441 0-9.088a7.5 7.5 0 0 1 5.954-2.913 7.51 7.51 0 0 1 5.954 2.913c2.066 2.647 2.066 6.442 0 9.088h.012Zm-13.463-12.964-.871-2.495h-4.027l1.091 5.257v27.6h3.818V48.666a11.395 11.395 0 0 0 7.509 2.832c3.32 0 6.477-1.439 8.635-3.969 3.563-4.167 3.563-10.41 0-14.566-4.178-4.874-11.467-5.246-16.132-1.137h-.023Zm-41.782-.696-.87-1.81h-3.947l1.01 4.897v16.724h3.807V38.675c0-3.11 2.541-5.641 5.675-5.641h4.99v-3.795h-4.99a9.532 9.532 0 0 0-5.675 1.868v.024Zm-9.75-5.037c-.348 3.795-3.946 6.882-7.776 6.882h-8.484v-15.17h8.67c4.445 0 8.008 3.796 7.602 8.288h-.012ZM53.86 14H40.525l1.067 5.188v13.788H35v3.807h6.592v14.229h3.83v-14.23h8.658c6.604 0 11.931-5.593 11.42-12.267-.452-5.977-5.628-10.503-11.652-10.503L53.86 14Zm85.63 22.98a7.515 7.515 0 0 1 6.557-4.201c3.111-.082 5.931 1.95 7.068 4.19H139.49v.011Zm6.464-7.985c-6.244.163-11.188 5.339-11.025 11.537a11.21 11.21 0 0 0 3.528 7.869c.905.858 1.95 1.566 3.099 2.077l.093.046c.116.047.22.093.336.14l.221.093c.185.07.371.139.557.197l.093.035c1.195.371 2.448.557 3.69.522a11.359 11.359 0 0 0 9.889-6.314l-3.424-1.66a7.45 7.45 0 0 1-1.312 1.87c-2.124 2.228-5.315 2.854-8.043 1.856-.023 0-.034-.011-.058-.023-.046-.012-.081-.035-.127-.047-2.6-1.032-4.503-3.481-4.712-6.395h18.755l-.046-1.95c-.14-5.199-5.734-9.969-11.514-9.818v-.035Z" clip-rule="evenodd"/></svg>