<svg xmlns="http://www.w3.org/2000/svg" fill="none" viewBox="0 0 210 80"><g clip-path="url(#a)"><path fill="#74257D" d="M150.67 21.655c-.404-.466-.933-.249-1.368.093-3.73 2.984-8.144 3.606-12.682 3.824-2.052.093-4.134-.031-6.217.062-1.896.093-2.829.994-3.171 2.86a1.965 1.965 0 0 1-.248.715c-2.114 3.388-3.793 6.994-5.782 10.444-.839 1.492-1.865 2.86-2.953 4.538-.218-1.088 0-1.74.093-2.393.466-3.544 1.057-7.088.249-10.631-.591-2.611-2.487-3.45-4.942-2.332-2.332 1.057-3.886 2.922-5.596 4.756-.715-1.243-1.429-2.33-3.046-2.082-1.678.248-1.554 1.647-1.865 2.828-1.119 4.29-1.834 8.704-4.134 12.62-.808 1.4-1.71 2.922-3.575 2.83-1.834-.063-2.051-1.866-2.518-3.14-1.989-5.409-2.113-11.035-1.927-16.692.031-.87.062-1.741.622-2.518 1.772-2.487 3.668-4.912 5.813-7.056 6.341-6.28 13.397-11.688 20.95-16.413 1.182-.746 2.301-1.554 3.451-2.362.404-.28.621-.746.404-1.244-.28-.59-.808-.31-1.213-.186-.435.124-.87.342-1.274.528-7.087 2.953-13.801 6.528-20.142 10.88-5.844 4.04-11.253 8.58-15.947 14.05-.186.062-.248.03-.31-.218C84.709 19.2 86.48 13.17 87.257 6.952c.156-1.274.093-2.486-.31-3.668-.591-1.71-2.892-2.922-4.943-2.61-1.523.217-2.207 1.243-2.3 3.512-.125 4.01-.684 7.926-1.523 11.843-1.897 8.859-4.383 17.531-7.15 26.142l-6.714 19.8c-.808 2.207 0 3.14 2.331 3.015 2.363-.155 6.28-2.393 7.15-5.595 1.834-6.652 4.88-12.837 8.268-18.806.622-1.088 1.43-2.02 2.3-3.232.249 2.393.373 4.507.715 6.59.622 3.76 1.026 7.584 3.233 10.91 2.518 3.792 7.025 4.134 10.102.777 1.026-1.119 1.772-2.393 2.705-3.699.155-.186.093-.342.124-.466.031.186 0 .404.124.715.031 2.424.84 3.543 2.611 3.605 1.368.063 2.083-.808 2.394-3.015.59-4.227 1.772-8.268 2.953-12.371.466-1.617 1.305-3.046 2.176-4.445.404-.653.901-1.181 1.772-.964.87.218 1.025.933 1.025 1.71 0 .56-.031 1.15-.062 1.71-.28 3.201-1.181 6.31-1.057 9.542.062 1.43.249 2.922 1.741 3.544 1.399.59 2.704.03 3.885-.87 2.425-1.834 3.824-4.414 5.192-7.088.124.311.248.622.404.933 1.305 3.077 3.854 4.942 6.776 4.787 3.668-.187 6.248-2.145 7.709-5.378 1.803-3.979 1.865-8.144.155-12.216-.59-1.399-.031-1.647 1.088-2.114 3.824-1.492 7.491-3.263 10.227-6.496.311-.466.746-.902.311-1.399Zm-15.325 15.387c-.031 2.082-.342 3.978-1.305 5.657-1.088 1.927-2.798 2.052-4.072.28-1.399-1.959-1.928-4.228-1.306-6.621.435-1.772 1.337-3.357 2.549-4.756.995-1.181 2.207-1.119 3.046.218.933 1.554 1.119 3.294 1.088 5.222ZM63.013 79.969 61.085 80c-1.896-.28-2.113-1.647-2.082-3.015.03-1.181.248-2.363.56-3.513.62-2.207 1.802-3.232 3.885-3.046 3.947.31 7.708-.59 11.47-1.46l19.676-4.384 40.005-9.232c4.694-1.057 9.294-2.393 14.081-3.077.156-.031.311-.093.467-.093.559-.031 1.305-.156 1.523.435.279.715-.529.932-.995 1.15-.839.373-1.741.59-2.642.84l-30.804 8.858-33.074 9.978c-6.497 2.02-12.931 4.259-19.428 6.404-.186.03-.404.062-.714.124Zm82.932-62.914h1.896v.404h-.715v2.176h-.435v-2.176h-.715l-.031-.404Zm2.891.715v1.896h-.435v-2.611h.466l.87 1.336.871-1.336h.435v2.61h-.435V17.77l-.778 1.18h-.217l-.777-1.18Z"/></g><defs><clipPath id="a"><path fill="#fff" d="M0 0h210v80H0z"/></clipPath></defs></svg>