<svg xmlns="http://www.w3.org/2000/svg" fill="none" viewBox="0 0 210 80"><path fill="#000" d="m92.672 57.57-10.859-7.255c-.888-.592-1.974-1.086-2.517-2.171l5.923-3.357c2.468-1.431 4.837-3.06 6.515-5.478 2.27-3.258 1.974-6.318-.84-9.033-1.924-1.875-4.244-3.159-6.761-3.948-6.96-2.32-14.067-2.073-21.174-.79-1.432.247-2.814.938-3.85 2.024-.889.937-1.48 2.073-.84 3.356.642 1.184 1.58 2.122 3.11 2.024.543-.05 1.086-.148 1.777-.247 0 .888.05 1.727 0 2.517-.592 7.453-.395 14.906.543 22.359.395 3.159 1.53 3.998 4.738 3.208 4.492-2.221.84-5.923 1.777-8.934l14.511 8.885c1.826 1.085 3.653 2.22 5.923 2.27 1.53 0 3.06-.099 3.702-1.777.74-1.727-.395-2.813-1.678-3.652ZM69.869 40.938c.148-2.613.246-5.23.296-7.847.05-.988.099-1.728 1.431-1.777 4.541-.148 9.033-.148 13.277 2.32 1.333 1.085 1.185 1.974.05 2.912-3.554 2.961-7.453 5.38-11.797 6.86-3.01.987-3.504.543-3.257-2.468Zm43.039 20.78c-1.579-3.603-.642-7.157-.543-10.612.099-4.442.198-4.442-4.195-3.504-1.185.246-2.419.74-3.603.74-2.666.099-3.258 1.431-2.863 3.85.247 1.53.346 3.11.296 4.689-.049 1.777-.839 3.11-2.813 3.504-2.073.395-3.307-.444-3.9-2.418-.493-1.679-.592-3.406-.74-5.134-.148-1.826-.099-3.603-1.875-5.034-1.481-1.184-1.135-3.159.444-4.245 1.283-.839 1.431-1.875 1.48-3.06l.198-9.13c.099-2.962 1.283-4.394 3.554-4.443 2.122-.05 4.244 2.122 4.244 4.59 0 2.814-.246 5.577-.444 8.39-.098 1.186.099 1.58 1.432 1.383 2.813-.494 5.626-1.135 8.538-.938 1.432.099 1.136-1.184 1.284-1.925l1.53-11.006c.247-2.123.888-3.949 3.356-4.146 1.925-.149 3.603 1.48 4.195 3.8.445 1.826 0 3.603-.296 5.38-1.283 8.045-2.221 16.14-2.961 24.234-.148 1.53-.346 3.11-1.234 4.492-1.431 2.22-2.665 2.418-5.084.543Zm11.451-9.329c-.198-6.515.642-12.684 1.135-18.953.148-1.629.099-3.257.148-4.936.05-2.122 1.185-3.356 3.159-3.8 2.024-.444 3.011.888 3.801 2.418.691 1.333.641 2.715.493 4.097l-1.579 15.696c-.445 6.219-.346 6.219 5.774 5.577l9.773-1.086c1.481-.197 2.616.444 3.258 1.678.691 1.283-.395 2.172-1.086 3.011-.987 1.185-2.271 1.876-3.751 2.221l-13.919 3.208c-4.936 1.086-6.91-.444-7.206-5.429.099-1.185.099-2.32 0-3.702Z"/><path fill="#F73F01" d="M143.459 17c27.344 36.87-14.708 38.202-5.38 18.904 3.751-6.417 6.91-6.417 5.38-18.904Z"/><path fill="#FEBF02" d="M148.247 32.3c2.517 17.424-15.992 13.87-3.751-2.368.395 1.925.148 7.995 3.751 2.369Z"/></svg>