<svg xmlns="http://www.w3.org/2000/svg" fill="none" viewBox="0 0 210 80"><path fill="#000" d="M172.606 51.49c-1.079 0-2.092.027-3.105-.022-.232-.011-.507-.232-.661-.435-2.026-2.638-4.03-5.291-6.046-7.94-.082-.11-.181-.22-.391-.473v8.815h-3.722V36.348c1.085 0 2.142-.022 3.199.023.204.01.435.258.584.451 2.065 2.703 4.113 5.412 6.167 8.121.071.094.143.176.319.391v-8.947h3.656V51.49ZM118.653 36.437c.061-.028.127-.078.187-.078 2.627.033 5.275-.099 7.879.15 3.761.357 6.393 3.424 6.459 7.151.071 4.003-2.362 7.01-6.233 7.665-.639.11-1.294.148-1.943.154-2.098.016-4.196.005-6.36.005V36.437h.011Zm3.986 11.82c.876 0 1.713.006 2.55 0 1.888-.016 3.193-1.001 3.722-2.807.804-2.726-.545-5.313-3.111-5.76-1.019-.176-2.092-.027-3.166-.027v8.595h.005ZM86.383 36.266c2.924.083 5.803.016 8.644.297 2.225.22 3.87 1.52 4.295 3.87.435 2.401-.077 4.516-2.252 5.964-.077.05-.143.115-.259.209 1.013 1.591 2.015 3.166 3.1 4.878-1.525 0-2.93.011-4.333-.016-.121 0-.276-.237-.358-.391-.578-1.057-1.173-2.103-1.685-3.188-.226-.474-.507-.611-.996-.59-.694.04-1.394.012-2.192.012v4.135h-3.959v-15.18h-.005Zm3.959 7.862h.793c.82 0 1.64.033 2.46-.022 1.24-.077 1.977-.853 2.065-2.086.089-1.228-.523-2.252-1.635-2.368-1.206-.127-2.434-.028-3.683-.028v4.504ZM140.407 51.484c.639-1.497 1.234-2.907 1.839-4.31 1.454-3.387 2.924-6.762 4.355-10.154.21-.49.441-.716.997-.688.914.05 1.833.038 2.747 0 .452-.017.678.132.854.562 1.564 3.782 3.149 7.554 4.729 11.325.441 1.057.898 2.11 1.371 3.232h-4.234c-.275-.699-.567-1.382-.809-2.087-.127-.38-.308-.528-.721-.522-1.834.022-3.667.016-5.501 0-.369 0-.567.104-.688.462a19.829 19.829 0 0 1-.732 1.806c-.072.16-.287.352-.441.358-1.222.027-2.45.016-3.777.016h.011Zm10.445-5.748-2.032-5.258c-.738 1.889-1.387 3.546-2.059 5.258h4.091ZM100.368 51.49l2.01-4.708c1.398-3.254 2.813-6.502 4.184-9.767.226-.534.512-.716 1.079-.683.936.05 1.883-.011 2.825.033.22.011.545.22.628.418 2.042 4.813 4.057 9.636 6.073 14.46.016.043.011.093.033.241-1.322 0-2.632.011-3.943-.022-.137 0-.319-.253-.396-.43-.248-.572-.424-1.177-.699-1.74-.099-.197-.397-.418-.606-.423a157.098 157.098 0 0 0-5.577 0c-.226 0-.518.259-.656.474a3.518 3.518 0 0 0-.473 1.128c-.171.837-.617 1.107-1.465 1.03-.952-.088-1.921-.022-3.028-.022l.011.01Zm8.419-11.023c-.722 1.844-1.371 3.513-2.054 5.258h4.069c-.672-1.75-1.316-3.425-2.015-5.258ZM182.737 51.468h-3.992V39.63h-4.438v-3.243h12.873v3.199h-4.443v11.882ZM139.042 51.451h-3.887V36.414h3.887v15.037Z"/><path fill="#00E5FF" d="M65.857 41.998c-.865 2.345-1.514 4.751-2.594 6.948-4.322 8.815-11.325 14.321-20.939 16.408-3 .65-6.045.92-9.09.286-5.82-1.206-10.395-6.255-11.117-12.108-.413-3.38.265-6.496 2.01-9.398a29.836 29.836 0 0 1 6.965-7.99c.06.854.083 1.614.182 2.363.198 1.536.451 3.067.639 4.603.033.292-.044.655-.204.897-.732 1.08-1.586 2.087-2.274 3.194-1.712 2.764-1.845 5.632-.237 8.479 1.575 2.786 4.041 4.162 7.24 4.168 2.406.005 4.763-.347 7.026-1.09-.54-.579-1.052-1.14-1.575-1.69-6.497-6.861-9.349-14.999-8.358-24.398.496-4.69 2.021-9.084 4.796-12.939 5.836-8.11 18.538-7.493 23.632 1.09 1.938 3.266 3.248 6.751 3.837 10.506.017.094.017.182.039.396-.71-.363-1.327-.732-1.977-1.007-1.448-.611-2.924-1.156-4.366-1.779a1.644 1.644 0 0 1-.76-.737c-.633-1.278-1.129-2.632-1.822-3.871-1.537-2.736-3.948-4.174-7.081-4.195-3.155-.023-5.583 1.387-7.196 4.123a22.867 22.867 0 0 0-2.55 6.382c-.038.154-.044.32-.06.446 1.63-.37 3.21-.815 4.823-1.08 7.945-1.293 15.268.353 21.903 4.9 4.052 2.776 7.267 6.338 9.437 10.76 4.151 8.468-1.608 19.028-10.963 20.14-4.42.523-8.66-.308-12.916-1.855.209-.165.33-.265.451-.358 1.69-1.25 3.392-2.489 5.066-3.766.396-.303.715-.424 1.233-.342 1.965.314 3.948.617 5.924.171a8.178 8.178 0 0 0 5.413-11.926c-1.195-2.208-2.78-4.124-4.543-5.737l.006.006ZM49.889 35.67c-3.33.033-6.442.66-9.431 1.91-.986.414-1.008.408-.854 1.487.958 6.68 4.08 12.086 9.47 16.177.518.396.843.407 1.366.01 5.479-4.19 8.633-9.706 9.525-16.534.066-.517-.082-.776-.567-.99-3.061-1.339-6.266-1.994-9.509-2.049v-.01Z"/><path fill="#00E5FF" d="M53.986 41.491c-.887 2.775-2.235 5.148-4.218 7.257-1.982-2.098-3.358-4.476-4.217-7.252 2.83-.688 5.588-.671 8.435-.005Z"/></svg>