<svg xmlns="http://www.w3.org/2000/svg" fill="none" viewBox="0 0 210 80"><path fill="#FF4F00" d="M29.318 30c-3.534 0-6.404 2.901-6.404 6.472v1.678h12.8v-1.678c0-3.58-2.863-6.472-6.405-6.472h.009Z"/><path fill="#00A6E4" d="M15 44.076c0 3.579 2.862 6.471 6.404 6.471h1.659V37.605h-1.66c-3.533 0-6.403 2.901-6.403 6.472Z"/><path fill="#530077" d="M22.914 50.547H35.72V37.605H22.914v12.944Z"/><path fill="#202322" d="M81.735 37.604h-1.56c-.43 0-.738.182-.928.628-.2.455-2.854 7.588-2.854 7.588l-2.746-7.67a.818.818 0 0 0-.788-.538h-1.65c-.656 0-.905.595-.714 1.15.1.297 4.471 10.72 4.471 10.72a.85.85 0 0 0 .78.52h1.195a.86.86 0 0 0 .788-.52s4.338-10.027 4.678-10.754c.257-.545-.058-1.116-.663-1.116l-.009-.008Zm21.958 11.588c-.033-.438-.067-.62-.116-.95-.1-.629-.531-.786-.921-.662-.257.083-.639.314-1.145.314-.29 0-.622-.066-.838-.363-.257-.364-.215-1.025-.215-1.455l.049-5.472h2.373c.556 0 .788-.413.788-.818v-1.041c0-.455-.208-.819-.788-.819h-2.356s.025-2.504.025-2.884c0-.389-.199-.95-1.012-.76-.44.099-.871.198-1.294.338-.423.14-.78.413-.78.835s-.017 2.48-.017 2.48h-1.194c-.755 0-.813.487-.821.826v.984c0 .537.232.868.846.868h1.144l-.05 5.446c-.008 1.29-.024 2.505.789 3.422.622.711 1.742 1.075 3.044 1.075s1.792-.314 2.066-.496a.895.895 0 0 0 .423-.86v-.008Zm-34.956-9.794c-1.187-1.273-2.605-1.794-4.214-1.794-1.75 0-3.26.57-4.455 1.851-1.087 1.158-1.717 2.827-1.725 4.588-.017 1.851.622 3.529 1.808 4.71 1.186 1.183 2.737 1.794 4.587 1.794 2.854 0 4.513-1.43 4.687-1.603.266-.265.456-.645.29-1.066a7.32 7.32 0 0 0-.489-.992c-.207-.355-.664-.637-1.344-.149-.274.198-1.36 1.157-3.077 1.157h-.009c-1.086 0-1.916-.306-2.53-.95a3.477 3.477 0 0 1-.929-1.827h8.038a.877.877 0 0 0 .846-.71c.025-.116.473-2.91-1.484-5.01Zm-7.292 3.372s.008-.653.747-1.488a3.054 3.054 0 0 1 2.248-1.017c.862 0 1.534.281 2.073.86.656.686.739 1.645.739 1.645h-5.807Zm27.648-5.166c-3.816 0-6.553 2.91-6.586 6.48-.034 3.711 2.754 6.463 6.47 6.463 3.716 0 6.528-2.793 6.561-6.463.034-3.612-2.662-6.48-6.445-6.48Zm-.091 10.266c-2.024 0-3.352-1.67-3.335-3.786.017-2.091 1.352-3.777 3.401-3.777 2.05 0 3.327 1.686 3.31 3.777-.017 2.091-1.377 3.785-3.376 3.785Zm41.517-14.53c0-.654-.506-.86-.846-.778-.232.058-1.352.323-1.65.422-.39.124-.598.487-.598.909-.008.207-.049 5.513-.049 5.513-.946-1.033-2.008-1.785-3.75-1.785-3.716 0-6.089 3.008-6.122 6.488-.025 3.446 2.273 6.455 6.014 6.455 1.668 0 2.812-.752 3.824-1.785 0 0 0 .28-.008.777 0 .495.232.801.755.801h1.568c.655 0 .854-.347.862-.892 0-.48-.008-15.473 0-16.126Zm-6.52 14.546c-1.899 0-3.351-1.546-3.334-3.777.016-2.091 1.385-3.81 3.401-3.81s3.401 1.719 3.384 3.81c-.016 2.09-1.352 3.777-3.451 3.777Zm-9.423-8.488c-1.194-1.273-2.605-1.794-4.222-1.794-1.742 0-3.252.57-4.446 1.851-1.095 1.158-1.718 2.827-1.734 4.588-.017 1.851.63 3.529 1.808 4.71 1.145 1.141 2.738 1.794 4.596 1.794 2.845 0 4.512-1.43 4.678-1.603.266-.265.465-.645.299-1.066a8.49 8.49 0 0 0-.498-.992c-.207-.355-.663-.637-1.335-.149-.282.198-1.361 1.157-3.086 1.157-1.087 0-1.916-.314-2.53-.95a3.488 3.488 0 0 1-.938-1.827h8.047a.891.891 0 0 0 .846-.71c.016-.116.464-2.91-1.485-5.01Zm-7.291 3.372s.008-.653.738-1.488a3.063 3.063 0 0 1 2.256-1.017c.855 0 1.535.281 2.074.86.647.686.738 1.645.738 1.645h-5.806Zm-54.84-9.142c-1.419-.776-3.036-1.082-5.774-1.082h-3.617c-.539 0-.97.454-.97 1.016v15.994c0 .562.431 1.016.97 1.016h3.858c1.22 0 4.064 0 6.296-1.537 2.29-1.587 3.559-4.24 3.592-7.464.008-1.306-.274-5.727-4.355-7.943Zm-.896 12.812c-1.352 1.016-3.592 1.016-4.554 1.016H45.17V35.67h1.825c1.393 0 2.845.083 3.99.727 2.372 1.331 2.704 3.81 2.696 5.174-.025 2.248-.697 3.794-2.132 4.869Zm122.819-13.894c-.075.016-.755.157-.854.173a.202.202 0 0 0-.166.199v16.877c0 .116.074.174.166.174h.887c.092 0 .158-.066.158-.174V32.686a.145.145 0 0 0-.183-.14h-.008Zm-3.832 14.2c.008-.852.033-4.266.033-4.266.016-1.81-.913-4.454-4.778-4.454-1.95 0-3.575.826-3.907 1.008-.067.041-.133.124-.108.231.025.108.191.76.207.819.017.074.108.115.208.057.373-.231 1.733-1.074 3.451-1.074 2.637 0 3.741 1.653 3.724 3.347v.521s-2.298-.273-4.156-.041c-2.878.347-4.347 1.686-4.371 3.785-.017 2.157 1.8 3.786 4.205 3.786 3.045 0 4.38-2.058 4.38-2.058s.125 1.595.133 1.645c0 .04.016.157.149.157h.697a.164.164 0 0 0 .166-.182c-.008-.513-.042-2.53-.033-3.282Zm-1.211.247s-1.27 2.447-4.082 2.447c-1.592 0-3.168-.91-3.152-2.703 0-1.207.821-2.53 3.31-2.81 1.924-.223 3.949.041 3.949.041l-.025 3.025Zm-12.012-7.273c-1.004-1.132-2.281-1.694-3.766-1.694-1.618 0-2.903.578-4.015 1.818-1.004 1.107-1.593 2.71-1.609 4.455-.017 1.843.605 3.447 1.676 4.546 1.061 1.099 2.463 1.636 4.205 1.636 2.414 0 4.081-1.355 4.43-1.678.041-.04.083-.115.041-.206-.033-.083-.323-.711-.356-.777-.025-.066-.125-.1-.208-.017-.348.34-1.8 1.653-3.865 1.653-1.427 0-2.547-.454-3.368-1.339-1.145-1.231-1.344-2.677-1.336-3.545l9.299-.009c.174 0 .249-.099.266-.19.066-.587.215-2.851-1.394-4.653Zm.149 3.819h-8.278c.041-.513.191-1.819 1.194-3.017.598-.711 1.701-1.463 3.103-1.463 1.244 0 2.19.47 2.886 1.248 1.187 1.322 1.104 3 1.095 3.231Zm25.5 5.306c-.199.116-.639.355-1.394.355-.605 0-1.103-.215-1.402-.595-.398-.52-.398-1.306-.381-2.496v-6.935h3.293a.147.147 0 0 0 .141-.148v-.76c0-.067-.041-.141-.141-.141h-3.301v-3.77c0-.065-.05-.156-.166-.14-.1.017-.838.166-.88.182-.099.025-.157.091-.157.199v3.529h-2.016c-.091 0-.158.066-.158.14v.769c0 .09.067.132.133.132h2.041v7.017c-.008 1.348-.017 2.414.614 3.166.497.587 1.252.876 2.314.876.888 0 1.452-.231 1.667-.347a.216.216 0 0 0 .108-.231c-.008-.075-.099-.62-.116-.72-.017-.099-.108-.14-.207-.082h.008Zm3.376-6.695v7.645c0 .091-.05.174-.174.174h-.888c-.116 0-.149-.1-.149-.174V32.91c0-.066.075-.173.183-.206.116-.033.754-.232.846-.265a.136.136 0 0 1 .174.133v7.579s1.219-2.364 4.297-2.364c1.427 0 2.704.504 3.476 1.463.812 1.016.912 2.264.895 3.917v6.621c0 .074-.049.174-.166.174h-.879c-.108 0-.166-.091-.166-.174v-6.604c.017-1.72-.149-2.53-.755-3.298-.431-.545-1.302-1.074-2.447-1.074-3.343 0-4.255 3.33-4.255 3.33l.008.009Zm-40.315-9.456a.145.145 0 0 0-.182-.14c-.075.017-.763.231-.863.256a.203.203 0 0 0-.166.198v7.299h-10.269v-7.563a.146.146 0 0 0-.183-.14c-.074.016-.763.231-.863.256a.194.194 0 0 0-.165.198v16.878c0 .115.074.173.165.173h.888c.091 0 .158-.066.158-.173V41.57h10.269v8.365c0 .115.075.173.166.173h.888c.091 0 .157-.066.157-.173V32.694Z"/></svg>