<svg xmlns="http://www.w3.org/2000/svg" fill="none" viewBox="0 0 210 80"><path fill="#000" d="m63.003 47.683-8.804-21.85H46v28.634h4.923V30.65l9.761 23.817h4.117L75.031 30.65v23.817h5.091V25.833H72.21l-9.207 21.85ZM87.096 30.45c1.764 0 2.906-1.2 2.906-2.75S88.86 25 87.096 25c-1.764 0-2.94 1.2-2.94 2.7 0 1.5 1.176 2.75 2.94 2.75Zm2.57 24.017V34.1h-5.174v20.367h5.174ZM98.537 54.467v-7.934c0-6.066 3.193-8.15 7.494-8.15.722 0 1.26.034 1.814.117v-4.9c-.504-.083-.974-.083-1.428-.083-3.915 0-6.57 2.333-7.913 6.266v-5.7h-5.091V54.45h5.141l-.017.017ZM114.616 54.467v-7.934c0-6.066 3.192-8.15 7.493-8.15.723 0 1.26.034 1.815.117v-4.9c-.504-.083-.975-.083-1.428-.083-3.915 0-6.569 2.333-7.914 6.266v-5.7h-5.09V54.45h5.141l-.017.017ZM135.685 55c6.183 0 11.441-4.067 11.441-10.767 0-6.7-5.225-10.8-11.441-10.8-6.217 0-11.358 4.15-11.358 10.767 0 6.617 5.091 10.8 11.358 10.8Zm0-3.783c-3.831 0-6.15-2.667-6.15-7.017 0-4.35 2.319-6.983 6.15-6.983 3.83 0 6.183 2.783 6.183 6.983 0 4.2-2.353 7.017-6.183 7.017ZM154.384 54.467v-7.934c0-6.066 3.193-8.15 7.494-8.15.722 0 1.26.034 1.814.117v-4.9c-.504-.083-.974-.083-1.428-.083-3.914 0-6.569 2.333-7.913 6.266v-5.7h-5.091V54.45h5.141l-.017.017Z"/></svg>