<svg xmlns="http://www.w3.org/2000/svg" fill="none" viewBox="0 0 210 80"><path fill="#000" d="M41.344 48.707c-1.41 0-2.82-.026-4.23.014-.566.017-.866-.217-1.127-.677l-3.563-6.17c-.102-.173-.305-.288-.46-.43-.08.209-.22.416-.234.629-.057 1.078.04 2.183-.141 3.24-.332 1.922-2.095 3.337-4.058 3.39-1.238.03-2.475.013-3.713.009-.584 0-.796-.212-.8-.787-.009-1.255-.04-2.51.009-3.766.062-1.614.853-2.798 2.254-3.594.195-.11.345-.305.517-.464-.172-.133-.327-.292-.512-.398-1.437-.835-2.233-2.05-2.268-3.713-.027-1.198-.009-2.396 0-3.598 0-.65.172-.83.8-.83h3.717c2.25.043 4.133 1.913 4.195 4.159.022.857 0 1.71.018 2.568 0 .163.115.327.177.495.154-.106.375-.172.46-.318l3.655-6.317c.248-.442.544-.601 1.043-.601h8.575c.482 0 .76.164 1 .579l4.283 7.404c.238.411.256.734.013 1.154l-4.336 7.5c-.217.377-.487.531-.92.527l-4.345-.005h-.009Zm.106-11.903c-1.803-.023-3.28 1.458-3.288 3.297-.01 1.812 1.427 3.324 3.187 3.35 1.808.027 3.288-1.436 3.306-3.28.018-1.864-1.388-3.345-3.205-3.372v.005Zm131.415-5.398h3.315c.694.005.835.155.849.84v.628c.026.442-.173.698-.588.862-1.097.433-1.092.446-1.092 1.622l-.005 2.339c-.013.428.111.618.579.614h4.69c.46.004.601-.181.588-.614a60 60 0 0 1 0-2.684c.009-.614-.238-.99-.84-1.193-.795-.27-1.198-1.344-.769-2.073.102-.172.398-.327.606-.327l7.032-.014c.465 0 .703.24.694.712v.743c.027.473-.203.73-.636.888-1.034.385-1.048.425-1.048 1.538v9.707c0 .84.115 1.008.898 1.309.729.283 1.127 1.48.663 2.113-.115.154-.38.274-.579.274l-7.033.009a.76.76 0 0 1-.424-.129c-.491-.349-.363-1.856.172-2.126.203-.102.424-.168.637-.252.393-.159.614-.45.614-.875l.009-4.053c0-.31-.128-.451-.442-.447h-4.973c-.332 0-.429.164-.429.46l.009 4.053c0 .562.38.765.818.968.292.137.72.323.769.553.106.504.044 1.052-.031 1.574-.018.119-.371.265-.57.27l-7.033.008c-.455 0-.707-.234-.694-.712v-.742c-.04-.478.19-.725.623-.889 1.017-.38 1.061-.464 1.061-1.534V35.12c0-.85-.106-1-.897-1.313-.712-.283-1.123-1.494-.663-2.109.137-.181.486-.274.743-.278l3.372-.014h.005ZM70.54 31.266c2.082.181 4.173.296 6.241.57 1.388.186 2.706.712 3.652 1.826 1.14 1.348 1.317 2.926.83 4.566-.357 1.198-1.339 1.79-2.47 2.166-.466.153-.565.445-.297.875l1.954 3.152c.495.822 1.14 1.454 1.998 1.896.792.407 1.088 1.18.76 1.998-.07.172-.358.362-.552.367-1.503.03-3.01.022-4.518.013-.724-.004-1.118-.477-1.436-1.056l-3.293-5.932c-.137-.239-.402-.407-.606-.606-.075.274-.203.544-.212.818-.026 1.047.005 2.095-.018 3.138-.013.637.24 1.035.858 1.242.76.257 1.171 1.384.756 2.078-.097.159-.367.31-.557.31l-7.09.013c-.447 0-.659-.244-.677-.672-.008-.248.005-.495-.008-.743-.027-.482.18-.77.645-.941 1.003-.367 1.03-.434 1.03-1.49V35.26c0-.999-.044-1.065-.955-1.432-.659-.265-1.043-1.534-.588-2.1.137-.168.46-.256.703-.26 1.278-.027 2.555-.014 3.828-.014l.013-.19h.01Zm3.134 2.347c-1.118.005-1.043-.115-1.043 1.048v2.908c.035 1.596-.376 1.499 1.565 1.41.972-.044 1.834-.393 2.236-1.396.867-2.162-.278-3.912-2.594-3.965h-.173l.009-.005Zm41.891 7.444.093-.69.008-5.538c.005-.646-.256-1.021-.866-1.238-.813-.283-1.105-.933-.787-1.75.075-.19.385-.407.593-.411 1.582-.036 3.165-.027 4.743-.018.433 0 .64.243.658.69.049 1.1.053 1.122-.99 1.542-.482.195-.716.53-.712 1.048v10.675c0 .592.27.932.849 1.118.937.3 1.167.707.919 1.666-.057.221-.393.522-.605.526a56.97 56.97 0 0 1-4.345-.008c-.332-.014-.747-.305-.959-.588l-6.706-9.168c-.124-.172-.27-.327-.407-.495l-.145.049c-.018.176-.049.349-.049.526l-.009 6.338c-.004.602.225.955.782 1.167.867.327 1.141.884.836 1.768-.066.19-.376.416-.575.42-1.582.036-3.165.022-4.743.018-.411 0-.636-.226-.645-.641-.013-1.255-.097-1.242.968-1.609.539-.186.703-.583.703-1.11V34.895c.009-.521-.239-.844-.73-1.034-.87-.336-1.268-1.233-.888-2.064.084-.186.411-.372.628-.372 1.6-.03 3.2-.013 4.8-.009.455 0 .774.226 1.039.597l6.007 8.403c.124.177.278.331.535.636v.005Zm-22.694 7.939c-5.163-.022-8.708-2.851-9.495-7.338-.945-5.384 2.653-10.246 8.434-10.52 3.541-.168 6.52 1.043 8.399 4.168 1.83 3.041 1.852 6.25.106 9.331-1.724 3.041-4.544 4.292-7.444 4.359Zm3.147-8.637c-.27-1.441-.472-2.865-.813-4.262-.22-.906-.782-1.653-1.702-2.024-1.794-.73-3.505.11-4.133 2.05-.508 1.583-.526 3.219-.406 4.859.088 1.237.27 2.457.866 3.571.45.84 1.074 1.477 2.06 1.65 1.547.269 2.882-.456 3.373-2.043.375-1.22.508-2.515.755-3.81v.009Zm64.43 8.694-3.373-.468c-.437-.045-.91 0-1.33.132-1.083.35-1.512.212-2.011-.809l-2.047-4.203c-.318-.659-.23-.898.425-1.22l.464-.221c.504-.288.862-.128 1.237.287.814.897 1.618 1.83 2.551 2.6 1.282 1.06 2.807 1.498 4.491 1.188.729-.133 1.282-.477 1.414-1.282.128-.782-.154-1.423-.831-1.785-.716-.38-1.489-.664-2.25-.947-1.299-.486-2.656-.835-3.907-1.423-2.887-1.352-3.934-4.358-2.515-7.002.809-1.507 2.201-2.2 3.806-2.546 1.441-.305 2.873-.19 4.318.022.451.067.95.023 1.393-.092.888-.23 1.308-.106 1.759.676l2.002 3.457c.239.406.425.787-.035 1.158-.747.6-1.225.654-1.711.159-1.003-1.021-1.993-2.051-3.324-2.657-.91-.41-1.848-.574-2.838-.345-.596.138-1.065.43-1.198 1.07-.115.575.137 1.158.8 1.432 1.083.451 2.219.783 3.329 1.167 1.078.372 2.192.668 3.218 1.145 2.259 1.052 3.258 2.869 3.076 5.349-.159 2.179-1.52 3.885-3.792 4.561-1.048.314-2.157.42-3.116.597h-.005ZM131.8 31.407l3.89-.014c.57-.022 1.136-.194 1.698-.314.848-.176 1.304-.088 1.648.575l1.941 3.355c.3.486.221.778-.252 1.07-.866.526-.853.539-1.605-.129-1.047-.928-2.183-1.728-3.536-2.139a4.987 4.987 0 0 0-1.512-.194c-.645.009-.954.314-.976.954v3.311c0 .137.269.372.424.38.742.04 1.485.04 2.228 0 .247-.013.504-.15.729-.274.606-.322 1.101-.181 1.397.429l1.702 3.483c.168.34.234.628-.159.88-.703.45-.995.473-1.371.11l-1.724-1.569c-.822-.619-1.799-.787-2.815-.747-.314.013-.442.146-.442.455l.004 4.226c0 .5.234.831.738.937.036.01.075.014.111.027 1.184.336 1.467.773 1.149 1.971-.057.212-.416.486-.637.49l-7.377.023c-.464 0-.703-.248-.712-.707l-.004-.743c-.031-.473.199-.73.623-.897 1.057-.42 1.057-.438 1.057-1.592v-9.649c0-.87-.089-.995-.889-1.313-.725-.287-1.136-1.507-.663-2.113.142-.18.495-.274.752-.274l4.575-.013.008.005Zm-71.723 17.3h-3.372c-.659 0-.84-.194-.849-.853v-.627c-.022-.442.186-.69.597-.853 1.074-.42 1.1-.482 1.1-1.632v-9.53c0-.955-.097-1.092-.972-1.436-.668-.266-1.039-1.61-.566-2.144.12-.133.367-.212.557-.217l6.97-.013c.496 0 .735.256.743.738v.743c.01.433-.185.694-.605.853-1.088.411-1.083.429-1.083 1.565v9.702c0 .849.106 1 .902 1.304.72.274 1.127 1.508.654 2.117-.133.173-.46.261-.699.266l-3.372.013-.005.004Zm83.503-8.659.009-5.026c.009-.623-.225-.99-.822-1.198-.804-.282-1.198-1.321-.778-2.064.097-.172.389-.336.597-.34l7.032-.014c.46 0 .703.244.703.712v.743c.031.446-.181.698-.583.866-1.114.46-1.118.473-1.118 1.68v9.477c0 .968.088 1.092.968 1.436.671.266 1.052 1.521.601 2.1-.12.155-.385.27-.584.27l-6.975.013c-.499 0-.729-.256-.729-.747v-.628c-.053-.517.177-.809.658-.99.999-.376 1.026-.442 1.026-1.498v-4.796l-.005.004Z"/></svg>