<svg xmlns="http://www.w3.org/2000/svg" fill="none" viewBox="0 0 210 80"><path fill="#000" d="M38.063 20v39.277c0 .143-.012.286-.024.465H30V20h8.063Zm32.073 0c-.024.31-.06.632-.06.942v38.8H62.18c-.012-.334-.047-.656-.047-.99v-37.81c0-.31-.036-.632-.06-.942h8.063Zm-16.114 0c.012.19.036.394.036.584V51.8h-8.075V20.954c0-.322-.012-.632-.024-.954h8.063Zm57.872 40.327c-.322-.096-.644-.203-.954-.298-1.408-.442-2.409-1.312-2.66-2.815-.262-1.587.084-3.018 1.443-4.056 1.396-1.061 3.054-1.336 4.712-1.634.882-.155 1.765-.298 2.648-.453.107-1.157-.525-1.896-1.706-2.04-1.312-.155-2.457.263-3.459 1.086-.394.322-.775.656-1.205 1.026-.811-.74-1.61-1.456-2.445-2.207 1.527-1.825 3.399-2.994 5.761-3.09a11.607 11.607 0 0 1 3.674.418c2.016.573 3.125 2.171 3.137 4.27.035 3.078 0 6.143 0 9.268h-3.483c-.024-.382-.036-.74-.072-1.288-.87 1.145-2.027 1.467-3.196 1.8h-2.195v.013Zm5.224-6.56c-1.228.262-2.373.465-3.494.763-.454.12-.907.37-1.277.668-.644.537-.513 1.467.251 1.79 1.181.5 2.35.345 3.399-.335.978-.632 1.205-1.634 1.109-2.886h.012Zm33.159 6.56c-.513-.12-1.038-.215-1.551-.358-3.089-.883-4.878-3.459-4.807-6.942.06-2.85 1.038-5.236 3.758-6.536 1.991-.954 4.079-.954 6.118-.143 2.326.942 3.245 2.91 3.483 5.248.084.823.012 1.646.012 2.54h-9.542c.143 1.098.668 1.837 1.515 2.338 1.515.907 3.053.597 5.964-1.169.679.776 1.359 1.563 2.075 2.386-1.324 1.336-2.827 2.194-4.64 2.493-.214.035-.417.095-.632.143h-1.753Zm-2.41-8.898h5.666c-.095-1.575-1.014-2.493-2.457-2.565-1.73-.083-2.946.871-3.197 2.565h-.012Zm25.108 8.898c-.501-.108-.99-.191-1.491-.31-1.575-.394-2.922-1.181-4.187-2.35.74-.823 1.455-1.634 2.171-2.433.62.405 1.169.799 1.753 1.145 1.062.644 2.231.823 3.447.704.263-.024.573-.06.764-.215.298-.25.692-.596.692-.907 0-.298-.394-.751-.704-.858-1.014-.334-2.076-.525-3.113-.812-.68-.19-1.36-.381-2.004-.667-2.457-1.086-3.077-3.853-1.336-5.928.93-1.11 2.171-1.634 3.566-1.813 2.696-.358 5.129.202 7.288 2.11-.68.836-1.36 1.647-2.051 2.482-1.396-1.122-2.899-1.73-4.652-1.48-.263.037-.573.06-.764.227-.25.215-.536.549-.548.835 0 .227.334.609.596.692.978.31 1.98.513 2.97.775.489.132.99.275 1.479.43 1.527.465 2.708 1.3 3.149 2.946v1.61c-.561 2.004-1.932 3.125-3.924 3.554l-1.205.25h-1.908l.012.013Zm-45.706 0c-.621-.131-1.241-.239-1.849-.406-1.467-.381-2.72-1.18-3.912-2.254.715-.8 1.419-1.598 2.182-2.445.382.262.752.525 1.122.775 1.157.811 2.433 1.217 3.852 1.097a4.34 4.34 0 0 0 .787-.143c.489-.155.907-.405.919-1.002.012-.584-.43-.799-.883-.918-.99-.262-1.992-.465-2.982-.74-.68-.19-1.359-.381-2.004-.667-2.409-1.062-3.041-3.746-1.395-5.821.918-1.157 2.171-1.706 3.59-1.908 2.72-.382 5.177.19 7.347 2.099-.668.81-1.335 1.622-2.027 2.457-.322-.203-.62-.406-.919-.596-1.18-.764-2.457-1.05-3.84-.835-.31.047-.621.155-.883.322-.608.393-.561 1.097.107 1.36.585.238 1.217.345 1.825.512 1.169.334 2.362.608 3.495 1.026 3.328 1.217 2.863 5.367.835 6.703-.847.56-1.896.823-2.863 1.205-.202.083-.417.107-.62.155h-1.908l.024.024Zm-37.357-.501h-3.984V41.279h1.121c1.539 0 3.077.023 4.616-.012.608-.012.883.155 1.062.763 1.109 3.888 2.278 7.765 3.423 11.653.036.12.083.227.131.382 1.264-4.282 2.505-8.516 3.757-12.75h6.489v18.51h-3.984v-14.48h-.095c-1.444 4.808-2.875 9.638-4.33 14.529-1.133 0-2.254.023-3.364-.024-.167 0-.393-.358-.477-.597-1.36-4.377-2.707-8.766-4.043-13.144-.06-.203-.12-.405-.31-.584v14.313l-.012-.012Zm6.953-39.492h4.175c.012.167.048.31.048.453 0 4.008.036 8.015-.024 12.023-.06 3.614-1.837 5.666-5.367 6.322-1.825.334-3.65.286-5.44-.215-2.66-.751-4.293-2.6-4.377-5.475-.131-4.341-.035-8.695-.035-13.084h4.198v11.677c0 3.018 2.767 4.58 5.415 3.077.811-.453 1.228-1.169 1.348-2.063.06-.43.06-.883.06-1.312V20.334Zm58.803 6.011v-6h3.936v.776c0 5.642 0 11.284.012 16.925 0 .62-.119.883-.799.835-.919-.06-1.849-.012-2.839-.012v-1.431c-.119.024-.179 0-.203.036-2.838 2.922-7.454 2.23-9.22-1.455-1.216-2.565-1.228-5.225-.047-7.801 1.622-3.53 5.892-4.437 8.909-1.992.048.036.12.06.251.108v.011Zm-6.167 5.642c.215.835.334 1.622.621 2.326.441 1.061 1.336 1.598 2.469 1.646 1.109.048 2.015-.418 2.552-1.396.907-1.61.93-3.28.024-4.878a2.797 2.797 0 0 0-2.457-1.458 2.802 2.802 0 0 0-2.457 1.458c-.394.692-.513 1.539-.763 2.302h.011Zm-4.508 1.205h-9.566c.119 1.55 1.419 2.66 3.161 2.79 1.658.12 2.97-.631 4.234-1.717.716.811 1.396 1.599 2.123 2.434-.882.942-1.896 1.634-3.077 2.075-1.789.68-3.626.715-5.463.215-3.674-1.002-5.188-4.27-4.807-7.79.358-3.28 2.076-5.39 4.831-6.118a8.083 8.083 0 0 1 4.198 0c2.541.68 3.829 2.493 4.199 4.986.155 1.002.119 2.027.167 3.137v-.012Zm-3.817-2.791c-.143-1.67-1.145-2.553-2.779-2.54-1.551.023-2.767 1.073-2.875 2.54h5.654Zm-34.864-5.081c.024.417.036.787.06 1.276.322-.298.548-.549.811-.74 1.765-1.288 3.685-1.383 5.618-.536 1.801.787 2.421 2.397 2.433 4.246.024 2.91 0 5.82 0 8.719 0 .167-.024.334-.048.537h-3.888v-.823c0-2.517.024-5.034-.024-7.55-.036-1.85-1.682-2.827-3.364-2.016-.978.477-1.3 1.348-1.3 2.361v8.028h-3.864V25.32h3.566Z"/><path fill="#000" d="M140.723 46.265h3.065v2.886h-2.982c-.024.263-.047.478-.047.68v5.427c0 1.277.429 1.646 1.729 1.48.334-.048.668-.084 1.097-.144.144 1.038.287 2.04.442 3.078-1.646.5-3.245.727-4.879.31-1.336-.334-2.135-1.265-2.194-2.612-.108-2.386-.084-4.783-.12-7.18v-.979h-2.313v-2.934h2.29v-3.912h3.912v3.912-.012ZM128.39 25.273h3.017v2.91h-3.005v6.357c0 .93.381 1.277 1.324 1.229.465-.024.918-.096 1.467-.155.143.99.298 1.992.453 3.077-1.801.501-3.578.835-5.379.12-1.384-.55-1.766-1.766-1.789-3.09-.048-2.194-.012-4.401-.024-6.596v-.882h-2.314v-2.91h2.278v-3.984h3.936v3.912l.036.012Zm30.415 21.016h3.518c.024.513.06 1.038.084 1.718.692-1.002 1.431-1.718 2.529-1.897 1.037-.167 2.027-.012 3.017.43-.214 1.001-.405 1.98-.62 2.957-.024.144-.083.275-.131.43-.298-.06-.561-.108-.823-.155-2.111-.382-3.531.62-3.65 2.779-.119 2.123-.06 4.246-.083 6.37v.906h-3.841V46.289Zm-41.699-20.992h3.817V38.81h-3.817V25.297Zm3.841-4.95v3.148h-3.841v-3.148h3.841Z"/></svg>