<svg xmlns="http://www.w3.org/2000/svg" fill="none" viewBox="0 0 210 80"><g fill="#4F67B0" clip-path="url(#a)"><path d="M45 62.049c.212-.319.16-.69.266-1.01.85-3.133 3.558-5.204 7.01-5.31 2.974-.053 5.948 0 8.923 0 .318 0 .425.106.425.425v1.805c0 .372-.107.478-.479.478h-8.178c-1.965 0-3.665.744-4.621 2.55-1.646 3.027-.212 7.488 4.355 7.541h8.338c.425 0 .584.106.584.584v1.806c0 .266-.053.372-.371.372-3.134 0-6.32.106-9.454-.053-3.293-.213-6.055-2.815-6.692-6.267 0-.106 0-.266-.106-.319V62.05ZM78.3 80c-.319-1.328-.69-2.602-1.009-3.93 0-.16-.266-.425.053-.478.266 0 .584-.16.744.265.212.85.425 1.7.584 2.55.266-.106.212-.372.266-.531.159-.638.318-1.275.424-1.912 0-.213.16-.319.372-.319.213 0 .372.106.425.319.16.743.372 1.434.531 2.177 0 .106 0 .213.16.319.106-.903.265-1.753.53-2.55.107-.318.479-.477.797-.371.213.106.106.265.053.371-.318 1.328-.69 2.656-1.009 4.037h-.85c-.159-.69-.371-1.434-.53-2.124h-.107c-.16.69-.372 1.434-.531 2.124h-.85L78.3 80ZM92.587 80v-3.877c0-.372.106-.584.478-.531h1.009c.531 0 1.009.265 1.115.85.106.584.213 1.274-.372 1.7-.265.159-.212.265-.106.477.266.425.478.903.744 1.328h-.956c-.213-.425-.478-.85-.69-1.275-.054-.106-.107-.265-.266-.212-.213 0-.106.212-.106.372V80h-.85Zm.796-2.974s-.212.637.32.637c.477 0 .69-.212.69-.69 0-.425-.213-.638-.638-.638-.584 0-.265.425-.372.69ZM130.826 80s-.584-.266-.69-.584c-.053-.213-.319-.478 0-.584.212-.107.584-.213.796.159.213.425.638.319 1.009.16.213-.107.266-.32.266-.532 0-.212-.106-.372-.319-.425-.212-.053-.425-.106-.637-.106-.797-.106-1.115-.478-1.115-1.275 0-.743.372-1.168 1.168-1.221.531 0 1.062 0 1.381.531.106.16.266.425.106.531-.212.106-.531.213-.743-.106-.16-.213-.319-.266-.584-.266-.319 0-.532.106-.532.425s.16.531.425.584c.213 0 .425.053.638.107.584.053.902.318 1.009.903.106.637-.107 1.221-.585 1.54-.053 0-.159.106-.212.159h-1.381ZM123.019 80c-.266-.16-.584-.266-.744-.584-.106-.213-.265-.478 0-.584.213-.107.532-.213.744.159.212.425.584.319.956.212.266-.053.319-.318.319-.584 0-.212-.107-.425-.372-.478-.266-.053-.478-.106-.744-.16-.903-.158-1.274-1.114-.849-1.858.265-.478.796-.584 1.274-.584s.956.106 1.169.584c.106.16.265.425 0 .531-.213.106-.531.16-.691-.106-.159-.319-.425-.319-.69-.319-.266 0-.425.16-.478.425 0 .266.053.478.372.584.212.053.478.106.69.106.531.054.903.266 1.009.85.106.744-.106 1.328-.637 1.594-.053 0-.16.106-.213.106h-1.168l.053.106ZM100.288 80v-3.93c0-.319.053-.478.425-.478h1.699c.266 0 .372.053.372.372 0 .265-.106.318-.372.318h-.69c-.638 0-.797.213-.638.903 0 .213.16.213.319.213h.744c.265 0 .425.053.425.371 0 .319-.16.372-.372.319h-.478c-.531-.106-.638.16-.584.637 0 .372.106.585.531.532h.531c.531 0 .779.247.743.743h-2.655ZM114.893 80v-3.983c0-.266.053-.425.372-.425h1.753c.265 0 .371.106.371.372 0 .265-.159.318-.371.318h-.691c-.637 0-.85.319-.637.903.053.16.159.16.265.16h.797c.319 0 .372.106.372.371 0 .319-.16.319-.425.319h-.425c-.531-.106-.744.106-.69.637 0 .372.106.531.478.478h.584c.495 0 .743.248.743.744h-2.549l.053.106ZM107.776 80c-.106-1.38 0-2.762 0-4.143 0-.371.266-.212.478-.265.266 0 .319.106.319.319v2.814c0 .372.053.532.478.478h.425c.531 0 .814.248.85.744h-2.443l-.107.053ZM87.17 80v-3.877c0-.319 0-.531.424-.531.425 0 .372.265.372.531V80h-.85.053ZM125.143 24.075v22.36c0 1.115-.743 1.805-1.752 1.699-.691-.053-1.222-.584-1.328-1.275V1.928c0-.531 0-1.01.425-1.434.478-.478 1.009-.584 1.646-.425.638.213 1.009.744 1.062 1.38V24.076h-.053ZM144.582 66.616c1.54 1.594 3.027 3.08 4.567 4.674-.69 0-1.381-.053-2.071 0-1.328.212-2.337-.266-3.187-1.328-.849-1.009-1.805-1.859-2.708-2.762-.213-.212-.425-.318-.744-.318h-4.886c-.425 0-.531-.107-.531-.531v-1.7c0-.372.106-.478.478-.478h6.692c.903 0 1.806-.106 2.602-.637.903-.584 1.275-1.434 1.222-2.496-.107-1.116-.638-1.965-1.7-2.337a6.418 6.418 0 0 0-2.018-.319h-8.285c-.478 0-.531.16-.531.584v11.685c0 .478-.107.637-.638.637h-1.699c-.319 0-.425-.053-.425-.425V56.154c0-.32.106-.425.425-.425h11.578c1.593 0 3.027.478 4.302 1.487 2.443 1.859 2.762 6.957-1.222 8.87-.372.158-.796.318-1.221.477v.053ZM115.849 23.969V3.946c0-.637.213-1.115.797-1.38.531-.266 1.009-.213 1.487.105.372.266.531.638.584 1.116v40.682c-.106.797-.744 1.275-1.54 1.275-.797 0-1.328-.637-1.328-1.434V23.969ZM64.438 60.668V56.26c0-.372.107-.478.478-.478h1.753c.425 0 .531.106.478.53v8.127c0 1.168.212 2.23 1.115 3.08.69.637 1.487.85 2.39.956 1.647.213 3.293.319 4.94 0 2.23-.372 3.292-1.646 3.292-3.877v-8.391c0-.266.107-.372.372-.372h1.912c.372 0 .478.16.478.478V63.8c0 .956 0 1.912-.266 2.868-.584 2.337-2.07 3.771-4.355 4.302-2.549.584-5.098.638-7.647.053-3.24-.743-4.886-2.868-4.886-6.213v-4.09l-.054-.053ZM127.746 60.933c-.053 1.328.106 3.028-.106 4.621-.372 3.027-1.859 4.727-4.833 5.364a18.05 18.05 0 0 1-7.542 0c-2.921-.69-4.515-2.655-4.674-5.842-.106-2.974 0-5.948 0-8.976 0-.318.106-.371.372-.318h1.912c.372 0 .478.106.478.478v8.285c0 .637.106 1.221.319 1.753.371.956 1.009 1.593 2.018 1.858 2.177.531 4.408.638 6.639.107 1.646-.372 2.602-1.54 2.708-3.293.106-2.868 0-5.683 0-8.551 0-.69 0-.69.691-.69h1.54c.372 0 .531.053.531.478v4.673l-.053.053ZM151.645 63.536v-7.223c0-.425.054-.584.531-.584h12.375c.372 0 .584.053.531.53v1.7c0 .425-.106.478-.531.478h-8.763c-.478 0-1.062-.212-1.328.107-.318.318-.106.902-.106 1.38v8.126c0 .425.106.531.531.531h9.666c.425 0 .531.106.531.531v1.594c.053.53-.159.637-.637.637h-11.472c-.885 0-1.328-.443-1.328-1.328v-6.48ZM112.291 24.075v17.739c0 1.062-.85 1.7-1.753 1.38-.531-.212-.797-.584-.85-1.115V6.39c0-1.115.797-1.646 1.487-1.54.691.106 1.116.584 1.169 1.328v17.898h-.053ZM103.474 24.022V8.779c0-.531.107-1.009.585-1.274.743-.425 1.646 0 1.752.902V39.371c0 .637-.106 1.115-.743 1.38a1.178 1.178 0 0 1-1.594-.956V24.022ZM101.031 55.782h6.958c.372 0 .531.053.478.478v1.806c0 .371-.106.424-.478.424h-5.046c-.531 0-.584.16-.584.638v11.684c0 .425-.106.584-.584.584h-1.7c-.371 0-.478-.106-.425-.478V59.075c0-.372-.106-.532-.478-.532h-5.098c-.372 0-.531-.106-.531-.477v-1.647c0-.478.16-.584.584-.584h6.957l-.053-.053ZM84.195 63.483v-7.276c0-.372.054-.532.478-.478h1.647c.478 0 .637.106.637.584v11.684c-.053.425.106.531.531.531h9.56c.478 0 .637.106.584.584v1.647c0 .425-.16.53-.53.53H84.832c-.531 0-.584-.158-.584-.636V63.43l-.054.053ZM97.314 24.075V10.904c0-.69.318-1.116.903-1.169.53-.106 1.062.266 1.168.85v26.767c0 .69-.425 1.116-1.062 1.063-.638 0-1.01-.425-1.01-1.116V24.075ZM92.959 24.022v10.834c0 .69-.266 1.063-.797 1.116-.531 0-.956-.266-1.01-.797V13.293c0-.69.266-1.062.744-1.168.585-.106 1.063.319 1.063.956V24.022ZM84.939 24.022V15.206c.053-.425.319-.69.744-.69.477 0 .743.265.796.69V32.784c-.053.425-.319.69-.743.69-.425 0-.69-.212-.797-.637V23.97v.053Z"/><path d="M159.931 62.049h4.036c.319 0 .425.106.425.425v1.912c0 .265-.053.371-.372.371h-8.179c-.265 0-.372-.053-.372-.371V62.42c0-.32.16-.372.425-.372h4.037Z"/></g><defs><clipPath id="a"><path fill="#fff" d="M0 0h210v80H0z"/></clipPath></defs></svg>