<svg xmlns="http://www.w3.org/2000/svg" fill="none" viewBox="0 0 210 80"><path fill="red" d="M29 51.506V28.494h14.745v3.617H33.179v6.06h9.927v3.618h-9.927v6.073h10.566v3.644H29Zm19.11-23.012h4.564l10.433 16.418h-.32V28.494h4.18v23.012H62.72L51.61 34.086h.678v17.42H48.11V28.494ZM89.616 33.9a10.134 10.134 0 0 0-4.099-4.005c-1.757-.934-3.806-1.401-6.135-1.401h-7.425v23.012h7.425c2.33 0 4.378-.467 6.135-1.415a10.134 10.134 0 0 0 4.099-4.004c.984-1.722 1.477-3.738 1.477-6.074 0-2.335-.493-4.391-1.477-6.113Zm-3.9 10.078a6.658 6.658 0 0 1-2.488 2.763c-1.078.667-2.355 1.014-3.846 1.014h-3.247v-15.47h3.247c1.49 0 2.768.334 3.846 1a6.67 6.67 0 0 1 2.489 2.737c.585 1.162.878 2.496.878 3.991s-.293 2.803-.878 3.965Z"/><path fill="#000" d="M103.016 52c-1.876 0-3.566-.494-5.07-1.495-1.504-.988-2.715-2.376-3.593-4.165-.891-1.775-1.33-3.857-1.33-6.233 0-1.882.279-3.564.825-5.06.545-1.494 1.317-2.762 2.288-3.817a9.7 9.7 0 0 1 3.447-2.402c1.318-.548 2.755-.828 4.298-.828 2.143 0 3.953.467 5.403 1.402 1.451.934 2.595 2.402 3.407 4.418l-4.272.988c-.599-.988-1.291-1.736-2.076-2.243-.785-.52-1.676-.774-2.661-.774a5.214 5.214 0 0 0-3.101 1.001c-.931.667-1.677 1.628-2.222 2.87-.56 1.241-.825 2.723-.825 4.431 0 1.616.24 3.017.732 4.218.492 1.202 1.17 2.15 2.062 2.817.879.667 1.917 1.014 3.074 1.014.985 0 1.877-.227 2.662-.667a4.758 4.758 0 0 0 1.863-1.909c.452-.827.679-1.829.679-3.003h.918c0 1.909-.226 3.577-.679 4.979-.452 1.401-1.158 2.496-2.116 3.27-.958.774-2.182 1.148-3.673 1.148l-.04.04Z"/><path fill="#000" d="m109.164 51.506-.598-5.072v-3.965l-5.164-.106v-2.67h9.169v11.813h-3.407Zm18.365-23.012h-5.23l-7.812 23.012h4.419l1.623-4.965h8.53l1.584 4.965h4.391l-7.505-23.012Zm-5.935 14.897 3.247-9.905 3.22 9.905h-6.467Zm15.929-14.897h5.975l6.467 14.082h-.359l6.481-14.082h5.762v23.012h-4.205V33.313h.639l-7.147 15.684h-2.728l-7.106-15.618h.386v18.127h-4.165V28.494Zm29.29 23.012V28.494h14.744v3.617h-10.566v6.06h9.941v3.618h-9.941v6.073h10.566v3.644h-14.744Z"/></svg>