<svg xmlns="http://www.w3.org/2000/svg" fill="none" viewBox="0 0 210 80"><path fill="#000" d="M125.733 40.475V32.27c0-1.416.288-1.695 1.686-1.677 1.794.027 1.948.18 1.948 2.038 0 2.416 0 4.833-.037 7.249-.009.65.181.703.677.379 2.461-1.614 5.202-1.668 7.916-1.118 4.752.946 7.8 5.202 7.304 9.9-.532 5.04-4.617 8.854-9.495 8.863-5.806.01-9.999-4.148-9.999-9.927v-7.511.01Zm3.625 7.736c-.019 3.724 3.444 6.438 6.131 6.411 2.606-.036 6.14-2.606 6.104-6.438-.027-3.336-2.804-6.095-6.131-6.086-3.336.01-6.113 2.795-6.104 6.113ZM100.739 40.475V32.27c0-1.416-.289-1.695-1.686-1.677-1.795.027-1.948.18-1.948 2.038 0 2.416 0 4.833.036 7.249.01.65-.18.703-.676.379-2.462-1.614-5.203-1.668-7.917-1.118-4.752.946-7.8 5.202-7.303 9.9.532 5.04 4.616 8.854 9.494 8.863 5.807.01 10-4.148 10-9.927v-7.511.01Zm-3.625 7.736c.018 3.724-3.444 6.438-6.131 6.411-2.606-.036-6.14-2.606-6.105-6.438.028-3.336 2.805-6.095 6.132-6.086 3.336.01 6.113 2.795 6.104 6.113ZM78.387 51.863v4.057c0 1.11-.596 1.876-1.515 1.993-1.046.136-1.776-.333-2.083-1.47-.198-.757-.487-.279-.758-.117-3.651 2.191-7.339 2.3-10.9-.08-6.096-4.058-5.6-13.13.892-16.501 2.047-1.064 4.373-1.091 6.61-.704 4.85.848 7.763 4.446 7.763 9.369v3.453h-.01Zm-15.888-3.652c-.018 3.724 3.436 6.447 6.123 6.411 2.596-.027 6.14-2.597 6.113-6.429-.018-3.336-2.795-6.095-6.123-6.086-3.336 0-6.122 2.786-6.113 6.104ZM122.902 51.854v4.057c0 1.119-.595 1.876-1.515 2.002-1.046.136-1.785-.333-2.083-1.47-.198-.748-.478-.297-.757-.126-3.652 2.2-7.34 2.3-10.901-.072-6.096-4.057-5.609-13.128.883-16.5 2.047-1.064 4.373-1.091 6.609-.704 4.851.839 7.773 4.446 7.773 9.369v3.453l-.009-.009Zm-15.888-3.66c-.027 3.723 3.418 6.446 6.105 6.428 2.587-.018 6.149-2.579 6.131-6.41-.009-3.337-2.777-6.105-6.113-6.105-3.337 0-6.132 2.768-6.123 6.086ZM184.224 51.854v4.057c0 1.119-.586 1.876-1.506 2.002-1.046.145-1.785-.333-2.083-1.47-.198-.739-.478-.297-.757-.126-3.652 2.2-7.34 2.3-10.901-.072-6.096-4.057-5.609-13.128.874-16.5 2.047-1.064 4.373-1.091 6.609-.704 4.851.839 7.773 4.446 7.773 9.369v3.453l-.009-.009Zm-9.729-9.756c-3.327-.027-6.141 2.76-6.159 6.068-.018 3.742 3.4 6.447 6.087 6.456 2.578 0 6.158-2.56 6.158-6.393 0-3.327-2.75-6.104-6.086-6.131ZM43.249 41.512c0 1.127-.018 2.065 0 3.002 0 .289-.217.695.135.857.261.117.523-.171.757-.325 2.778-1.803 5.59-3.561 8.314-5.455.938-.658 1.93-.928 2.921-.739.379.072.875.469.992.938.171.685.144 1.397-.523 1.866-.631.451-1.298.857-1.948 1.28-1.541 1.001-3.065 2.047-4.652 2.985-.74.433-.64.73-.162 1.262 2.236 2.48 4.445 4.987 6.663 7.484.288.325.586.631.667 1.082.135.83-.216 1.605-.92 1.966-.757.397-1.605.27-2.209-.397-1.334-1.47-2.65-2.957-3.976-4.445-1.172-1.307-2.353-2.615-3.498-3.94-.325-.37-.541-.388-1.001-.163-1.218.604-1.75 1.425-1.596 2.84.153 1.425.045 2.877.036 4.31 0 1.209-.713 1.966-1.813 1.975-1.109 0-1.812-.748-1.82-1.947 0-3.715.008-7.421-.019-11.136 0-.631.207-.983.73-1.307.947-.586 1.83-1.263 2.913-2.02l.009.027ZM148.013 48.202v-7.6c0-1.398.361-1.624 1.704-1.732 1.145-.09 1.776.18 1.885 1.38.036.37.315.27.513.135 2.714-1.857 5.744-1.596 8.774-1.253.811.09 1.514.45 1.785 1.298.225.694.018 1.325-.505 1.812-.613.577-1.325.568-2.092.289-4.319-1.524-8.394 1.334-8.412 5.897-.009 2.533 0 5.067 0 7.6 0 .875-.397 1.516-1.227 1.795-.775.261-1.478.072-2.037-.559-.37-.424-.388-.938-.388-1.46v-7.602Z"/><path fill="#FA7F17" d="m31.428 48.383 22.578-16.284H43.7L40.11 22l-3.471 9.99H26l8.358 6.402-2.93 9.99Z"/></svg>