<svg xmlns="http://www.w3.org/2000/svg" fill="none" viewBox="0 0 210 80"><path fill="#F86E27" d="M26.356 41.489a.936.936 0 1 0 0-1.873.936.936 0 0 0 0 1.873Z"/><path fill="#828594" d="M29.058 49.129c-5.227 0-9.479-4.252-9.479-9.478 0-5.227 4.252-9.479 9.479-9.479 5.226 0 9.478 4.252 9.478 9.479 0 5.226-4.252 9.478-9.478 9.478Zm0-18.566c-5.008 0-9.084 4.076-9.084 9.083 0 5.008 4.076 9.083 9.084 9.083 5.007 0 9.083-4.075 9.083-9.083 0-5.007-4.076-9.083-9.083-9.083Z"/><path fill="#828594" d="M29.058 51.405c-6.481 0-11.755-5.274-11.755-11.755 0-6.48 5.274-11.754 11.755-11.754 6.48 0 11.754 5.274 11.754 11.754 0 6.48-5.274 11.755-11.754 11.755Zm0-23.114c-6.266 0-11.36 5.098-11.36 11.36 0 6.26 5.098 11.359 11.36 11.359 6.261 0 11.359-5.098 11.359-11.36 0-6.261-5.098-11.359-11.36-11.359Z"/><path fill="#828594" d="M29.058 53.574c-7.68 0-13.928-6.25-13.928-13.928 0-7.679 6.249-13.923 13.928-13.923 7.678 0 13.927 6.249 13.927 13.928 0 7.678-6.249 13.927-13.927 13.927v-.004Zm0-27.456c-7.46 0-13.533 6.068-13.533 13.533 0 7.463 6.068 13.532 13.533 13.532 7.464 0 13.532-6.069 13.532-13.532 0-7.465-6.073-13.533-13.533-13.533Z"/><path fill="#828594" d="M29.058 55.703C20.202 55.703 13 48.502 13 39.65s7.202-16.057 16.058-16.057c8.855 0 16.057 7.202 16.057 16.057 0 8.856-7.202 16.058-16.057 16.058v-.005Zm0-31.72c-8.637.005-15.663 7.03-15.663 15.667s7.026 15.663 15.663 15.663c8.636 0 15.662-7.026 15.662-15.663 0-8.636-7.026-15.662-15.662-15.662v-.005Z"/><path fill="#184675" d="M29.058 24.58a.79.79 0 1 0 0-1.58.79.79 0 0 0 0 1.58ZM29.058 26.83a.79.79 0 1 0 0-1.58.79.79 0 0 0 0 1.58ZM23.5 28.093a.79.79 0 1 0 0-1.58.79.79 0 0 0 0 1.58ZM18.79 31.379a.79.79 0 1 0 0-1.58.79.79 0 0 0 0 1.58ZM16.118 36.266a.79.79 0 1 0 0-1.58.79.79 0 0 0 0 1.58ZM15.328 41.948a.79.79 0 1 0 0-1.58.79.79 0 0 0 0 1.58ZM17.2 47.26a.79.79 0 1 0 0-1.58.79.79 0 0 0 0 1.58ZM20.928 51.46a.79.79 0 1 0 0-1.58.79.79 0 0 0 0 1.58ZM26.193 53.852a.79.79 0 1 0 0-1.58.79.79 0 0 0 0 1.58ZM31.956 53.852a.79.79 0 1 0 0-1.58.79.79 0 0 0 0 1.58ZM37.08 51.577a.79.79 0 1 0 0-1.58.79.79 0 0 0 0 1.58ZM40.86 47.368a.79.79 0 1 0 0-1.58.79.79 0 0 0 0 1.58ZM42.629 41.913a.79.79 0 1 0 0-1.58.79.79 0 0 0 0 1.58ZM42.117 36.288a.79.79 0 1 0 0-1.581.79.79 0 0 0 0 1.58ZM39.279 31.344a.79.79 0 1 0 0-1.58.79.79 0 0 0 0 1.58ZM34.598 28.093a.79.79 0 1 0 0-1.58.79.79 0 0 0 0 1.58ZM37.196 32.38a.79.79 0 1 0 0-1.581.79.79 0 0 0 0 1.58ZM40.614 40.44a.79.79 0 1 0 0-1.58.79.79 0 0 0 0 1.58ZM37.2 48.609a.79.79 0 1 0 0-1.58.79.79 0 0 0 0 1.58ZM29.058 51.997a.79.79 0 1 0 0-1.58.79.79 0 0 0 0 1.58ZM29.058 56.455a.79.79 0 1 0 0-1.58.79.79 0 0 0 0 1.58ZM29.058 49.721a.79.79 0 1 0 0-1.58.79.79 0 0 0 0 1.58ZM20.928 48.609a.79.79 0 1 0 0-1.58.79.79 0 0 0 0 1.58ZM17.694 40.608a.79.79 0 1 0 0-1.58.79.79 0 0 0 0 1.58ZM20.928 32.38a.79.79 0 1 0 0-1.581.79.79 0 0 0 0 1.58Z"/><path fill="#BCC3C5" d="M30.157 40.286c.607 0 1.1-.42 1.1-.937 0-.517-.493-.936-1.1-.936-.607 0-1.1.42-1.1.936 0 .517.493.937 1.1.937Z"/><path fill="#BCC3C5" d="M29.994 41.003a.936.936 0 1 0 0-1.872.936.936 0 0 0 0 1.872ZM32.012 40.067a.936.936 0 1 0 0-1.873.936.936 0 0 0 0 1.873Z"/><path fill="#BCC3C5" d="M31.755 38.692a.936.936 0 1 0 0-1.872.936.936 0 0 0 0 1.872ZM31.755 41.36a.936.936 0 1 0 0-1.873.936.936 0 0 0 0 1.873ZM28.478 43.605a.936.936 0 1 0 0-1.872.936.936 0 0 0 0 1.872Z"/><path fill="#BCC3C5" d="M28.117 43.236a.936.936 0 1 0 0-1.873.936.936 0 0 0 0 1.873Z"/><path fill="#BCC3C5" d="M29.126 43.378a.936.936 0 1 0 0-1.873.936.936 0 0 0 0 1.873Z"/><path fill="#BCC3C5" d="M28.869 42.665a.936.936 0 1 0 0-1.872.936.936 0 0 0 0 1.872ZM25.78 40.703a.936.936 0 1 0 .001-1.873.936.936 0 0 0 0 1.873Z"/><path fill="#184675" d="M29.058 28.88a.79.79 0 1 0 0-1.581.79.79 0 0 0 0 1.58ZM29.058 31.156a.79.79 0 1 0 0-1.58.79.79 0 0 0 0 1.58Z"/><path fill="#F86E27" d="M26.64 40.926a.936.936 0 1 0 0-1.873.936.936 0 0 0 0 1.873ZM26.992 43.086a.936.936 0 1 0 0-1.873.936.936 0 0 0 0 1.873ZM28.658 41.35a.936.936 0 1 0 0-1.872.936.936 0 0 0 0 1.872Z"/><path fill="#F86E27" d="M29.29 41.35a.936.936 0 1 0 0-1.872.936.936 0 0 0 0 1.872ZM30.393 43.692a.936.936 0 1 0 0-1.873.936.936 0 0 0 0 1.873ZM31.166 37.993a.936.936 0 1 0 0-1.873.936.936 0 0 0 0 1.873Z"/><path fill="#F86E27" d="M31.33 38.929a.936.936 0 1 0 0-1.873.936.936 0 0 0 0 1.873ZM29.113 37.335a.936.936 0 1 0 0-1.872.936.936 0 0 0 0 1.872Z"/><path fill="#F86E27" d="M28.976 37.662a.936.936 0 1 0 0-1.872.936.936 0 0 0 0 1.872Z"/><path fill="#F86E27" d="M27.718 37.422a.936.936 0 1 0 0-1.873.936.936 0 0 0 0 1.873Z"/><path fill="#BCC3C5" d="M29.753 38.894a.936.936 0 1 0 0-1.872.936.936 0 0 0 0 1.872Z"/><path fill="#BCC3C5" d="M30.355 37.589a.936.936 0 1 0 0-1.873.936.936 0 0 0 0 1.873ZM31.076 42.665a.936.936 0 1 0 0-1.872.936.936 0 0 0 0 1.872Z"/><path fill="#F86E27" d="M29.813 42.575a.936.936 0 1 0 0-1.872.936.936 0 0 0 0 1.872ZM31.69 41.037a.936.936 0 1 0 0-1.872.936.936 0 0 0 0 1.872Z"/><path fill="#BCC3C5" d="M30.608 41.003a.936.936 0 1 0 0-1.872.936.936 0 0 0 0 1.872ZM26.927 42.18a.936.936 0 1 0 0-1.873.936.936 0 0 0 0 1.873ZM27.18 40.303a.936.936 0 1 0 0-1.873.936.936 0 0 0 0 1.873Z"/><path fill="#F86E27" d="M26.554 39.05a.936.936 0 1 0 0-1.873.936.936 0 0 0 0 1.872ZM27.868 41.746a.936.936 0 1 0 0-1.873.936.936 0 0 0 0 1.873Z"/><path fill="#BCC3C5" d="M26.786 37.142c.517 0 .936-.21.936-.468 0-.259-.42-.468-.936-.468-.517 0-.937.21-.937.468s.42.468.937.468ZM28.117 38.894a.936.936 0 1 0 0-1.873.936.936 0 0 0 0 1.873Z"/><path fill="#F86E27" d="M28.516 39.87a.936.936 0 1 0 0-1.874.936.936 0 0 0 0 1.873Z"/><path fill="#184675" d="M91.682 39.706c-.22-.095-.438-.198-.7-.322.262-.176.468-.314.661-.46 1.997-1.481 1.89-4.513-.206-5.853-.902-.576-1.903-.795-2.955-.799-2.13-.009-4.26.009-6.39-.017-.49-.009-.589.172-.589.614.009 4.57.009 9.135 0 13.704 0 .404.112.533.52.533 2.268-.018 4.535 0 6.807-.022.996-.008 1.963-.197 2.865-.64 1.438-.7 2.203-1.846 2.194-3.457-.008-1.572-.773-2.654-2.203-3.277l-.004-.004Zm-7.597-5.068c.034-.03.055-.068.081-.068 1.55.025 3.114-.022 4.655.103 1.066.09 1.624.803 1.641 1.739.022 1.022-.532 1.752-1.598 1.954-.657.129-1.344.146-2.018.163-.906.026-1.812.009-2.761.009v-3.9Zm6.192 9.775a6.012 6.012 0 0 1-1.88.4c-1.354.06-2.71.017-4.068.012-.073 0-.15-.026-.24-.043v-4.071h.846c1.357.013 2.714.008 4.067.06.42.013.854.155 1.241.322.687.292 1.03.86 1.048 1.606.008.773-.28 1.43-1.014 1.714Zm34.194-12.764v5.841c-.039.013-.073.026-.116.034-.047-.064-.086-.129-.137-.189-2.319-2.752-6.21-1.76-7.696.516-.821 1.254-1.117 2.615-1.04 4.088.095 1.748.752 3.221 2.131 4.346 1.494 1.22 4.303 1.65 6.132-.197.232-.236.451-.473.773-.808v1.787h2.495V31.649h-2.546.004Zm-2.341 13.382c-1.915.503-3.817-.816-4.041-2.825-.146-1.289.009-2.513 1.009-3.466.902-.855 1.985-1.057 3.14-.696 1.241.387 1.928 1.327 2.229 2.564.068.283.077.58.116.867-.017 1.735-1.005 3.174-2.453 3.552v.004Zm-55.868 2.053c-.185-.249-.296-.412-.417-.571-1.91-2.5-3.818-5.003-5.737-7.498-.176-.232-.28-.391-.017-.657 1.73-1.761 3.444-3.54 5.162-5.313.219-.223.425-.46.717-.773-.924 0-1.722.026-2.517-.009-.464-.021-.773.146-1.078.473-2.061 2.194-4.136 4.372-6.206 6.558-.107.116-.227.219-.433.416v-2.065c0-1.637 0-3.273-.009-4.91 0-.15-.12-.424-.193-.429-.777-.03-1.56-.021-2.35-.021v14.782h2.552v-2.109c.004-.725-.18-1.533.081-2.151.27-.636.975-1.087 1.49-1.615.241-.25.49-.485.756-.747.142.172.24.287.331.412 1.477 1.941 2.95 3.882 4.436 5.815.125.163.305.386.464.39.95.04 1.903.018 2.963.018l.005.004Zm35.533-11.398c-3.294-.043-5.982 2.521-6.025 5.742-.043 3.29 2.478 5.884 5.755 5.922 3.448.043 6.128-2.469 6.171-5.784.039-3.299-2.508-5.837-5.901-5.88Zm2.281 8.577c-1.026.949-2.242 1.155-3.522.682-1.314-.485-2.01-1.52-2.207-2.894-.03-.198-.022-.4-.026-.468.009-1.714.773-2.916 2.113-3.453 1.246-.498 2.757-.168 3.706.812 1.362 1.404 1.336 4.024-.068 5.32h.004Zm-31.27-8.577c-3.306-.008-5.986 2.581-5.982 5.79 0 3.332 2.556 5.879 5.901 5.879 3.384 0 6.021-2.551 6.026-5.832 0-3.32-2.551-5.833-5.944-5.841v.004Zm1.083 9.32c-1.426.46-2.916-.026-3.822-1.242-1.306-1.752-.756-4.518 1.09-5.48 2.384-1.236 5.068.511 5.064 3.299 0 1.632-.906 2.967-2.328 3.423h-.004Zm38.931 2.087v-15.44h-2.525v14.693c0 .154-.031.322.017.459.038.112.167.27.262.275.738.021 1.477.013 2.246.013Z"/><path fill="#828594" d="m144.621 36.55.121.056c.008.072.021.145.021.218 0 2.44-.008 4.88-.013 7.319 0 .85.009 1.696 0 2.546 0 .297.112.417.408.408.477-.013.958 0 1.435 0 .691 0 .695 0 .695-.67v-9.68c0-1.314-.017-2.624-.008-3.938 0-.374-.112-.528-.503-.507-.537.026-1.082.035-1.619 0-.425-.03-.678.125-.906.481-1.301 2.044-2.624 4.072-3.942 6.107-.086.133-.189.262-.318.438-.138-.202-.236-.339-.327-.48-1.322-2.05-2.645-4.098-3.959-6.15-.176-.28-.378-.409-.713-.396-.584.022-1.177.035-1.761-.004-.425-.03-.511.124-.507.52.013 3.783 0 7.562 0 11.346 0 .82.013 1.636 0 2.456-.008.357.108.507.477.486.429-.022.863-.005 1.297-.005.717 0 .713 0 .713-.695 0-3.135 0-6.266.008-9.401 0-.12.022-.245.031-.365.038-.009.077-.013.111-.022 1.516 2.26 3.037 4.514 4.595 6.842 1.581-2.345 3.118-4.626 4.652-6.906l.012-.004Zm36.608 5.694c-.009-.927.025-1.86-.095-2.774-.219-1.722-1.125-2.946-2.873-3.41-2.005-.532-3.942-.24-5.836.528-.112.047-.236.3-.202.417.116.464.27.919.459 1.357.048.107.267.18.413.189.137.008.283-.095.429-.146 1.224-.417 2.47-.571 3.732-.21 1.078.309 1.684 1.387 1.447 2.529-.343-.073-.682-.172-1.03-.223-1.615-.25-3.213-.314-4.767.386-2.186.975-2.315 4.256-.597 5.557 1.649 1.259 4.342 1.156 5.999-.296.121-.107.241-.21.456-.404 0 .404.008.675 0 .945-.009.292.107.417.408.408.511-.017 1.022-.03 1.528.009.447.034.546-.15.542-.554-.018-1.435 0-2.869-.009-4.303l-.004-.005Zm-4.093 3.015c-.773.284-1.572.322-2.358.069-.683-.224-1.134-.674-1.198-1.43-.06-.739.258-1.383.971-1.68.09-.034.176-.068.266-.094.807-.258 1.675-.27 2.504-.112.378.073.747.146 1.116.22a.485.485 0 0 1 .391.459c.043 1.31-.477 2.126-1.696 2.572l.004-.004Zm-16.264-3.431c-.094-.76-.116-1.55-.322-2.28-.988-3.445-4.063-4.244-6.382-3.613-2.439.662-3.985 2.753-4.084 5.442-.09 2.443 1.207 4.57 3.35 5.493 2.242.966 4.926.455 6.601-1.233.253-.253.24-.425-.022-.636-.262-.214-.532-.425-.76-.674-.262-.288-.446-.258-.717-.008-.992.906-2.173 1.198-3.483.94-1.323-.262-2.332-1.426-2.414-2.826.211-.008.391-.026.572-.026 2.362 0 4.719-.017 7.081 0 .451 0 .636-.15.585-.58h-.005Zm-2.731-1.053c-1.83.018-3.663.013-5.484.013-.181-1.232.936-2.697 2.207-2.976a2.869 2.869 0 0 1 3.492 2.663c.008.099-.138.3-.215.3Zm32.141 3.247c-.309.456-.589.89-.893 1.306-.194.266-.138.412.128.588 1.074.717 2.242 1.177 3.522 1.323 1.202.137 2.379.056 3.453-.588 1.104-.666 1.529-1.688 1.507-2.934-.017-1.15-.67-1.898-1.627-2.396-.546-.283-1.139-.468-1.71-.7-.725-.296-1.494-.524-2.164-.91-.76-.439-.683-1.422.133-1.753a2.846 2.846 0 0 1 1.525-.159c.76.15 1.494.46 2.224.748.288.111.46.094.606-.18.154-.284.322-.563.481-.847.283-.502.3-.567-.249-.781-.872-.344-1.757-.696-2.667-.877-1.194-.231-2.358-.008-3.427.632-1.602.966-2.212 3.964.128 5.162.602.31 1.25.52 1.886.756.618.232 1.262.408 1.868.67.481.206.807.58.721 1.168-.081.563-.455.902-.97.992a5.727 5.727 0 0 1-1.602.047c-1.048-.124-1.954-.635-2.865-1.271l-.008.004Zm-20.928.769c-.442.103-.781.215-1.129.262-1.284.168-1.83-.296-1.843-1.585-.017-1.636 0-3.272-.013-4.909 0-.356.095-.493.468-.476.709.03 1.422-.005 2.131.021.352.013.468-.116.451-.45-.018-.4-.018-.804 0-1.203.017-.352-.099-.494-.477-.481-.726.026-1.452-.004-2.178.013-.313.008-.399-.108-.39-.404.017-.739-.009-1.482.008-2.22.009-.361-.137-.494-.489-.486-.507.018-1.018.018-1.529-.008-.361-.022-.498.094-.486.468.022.726-.008 1.452.013 2.177.009.352-.081.49-.463.477-.993-.026-.993-.009-.988 1.005 0 1.07 0 1.078 1.086 1.1.279.004.378.085.374.373a48.213 48.213 0 0 0-.009 2.083c.013 1.404 0 2.809.06 4.213.043.992.507 1.795 1.452 2.194 1.211.512 2.444.434 3.65-.06.125-.051.284-.197.293-.309.03-.58.012-1.16.012-1.79l-.004-.005Zm14.971-5.403v1.018c0 2.066.009 4.136 0 6.202 0 .378.116.524.503.498.459-.03.923-.013 1.387-.017.605 0 .61 0 .61-.614 0-4.536.004-9.075.008-13.61 0-.262-.013-.524-.004-.786.009-.296-.138-.417-.421-.412-.494 0-.988.025-1.482-.009-.472-.034-.605.137-.601.601.022 2.375.009 4.754.009 7.13h-.009Z"/></svg>