<svg xmlns="http://www.w3.org/2000/svg" fill="none" viewBox="0 0 210 80"><path fill="#F60" d="M25 59.01c.94-2.135 1.804-4.306 2.837-6.402 1.306-2.644 2.743-5.226 4.15-7.882-1.002-.66-1.767-1.562-1.811-2.918-.05-1.419.516-2.501 1.76-3.18 1.245-.677 2.52-.59 3.627.25.71.541 1.456.653 2.259.66 4.342.037 8.236-1.407 11.745-3.84 1.568-1.088 2.918-2.5 4.349-3.782.28-.248.479-.59.61-.752-1.917-1.307-3.833-2.495-5.612-3.864-1.649-1.269-2.986-2.868-3.82-4.809-1.008-2.345-.143-3.54 2.389-3.24 2.202.254 4.05 1.387 5.804 2.637 1.133.809 2.171 1.754 3.198 2.588-.317-1.58-.728-3.21-.958-4.871-.224-1.599-.268-3.235.267-4.803.15-.435.41-.852.697-1.22.485-.609 1.195-.79 1.78-.304.889.734 1.847 1.505 2.426 2.47 2.146 3.577 3.141 7.484 2.78 11.664-.068.815-.41 1.6-.647 2.495.604.317 1.313.684 2.01 1.064 2.326 1.263 4.479 2.756 6.096 4.896a7.912 7.912 0 0 1 1.077 1.872c.348.871-.025 1.53-.933 1.804-.492.144-1.008.2-1.674.324 2.924 1.984 5.904 3.67 7.95 6.445-.062.112-.124.224-.186.33-.485-.137-.983-.243-1.45-.423-5.63-2.16-11.465-3.142-17.48-2.769-6.409.405-12.418 2.277-18.117 5.213-5.238 2.707-9.879 6.203-13.984 10.427-.312.317-.76.51-1.139.759v-.84Zm42.384-24.163c-.012-.815-.634-1.45-1.43-1.456a1.46 1.46 0 0 0-1.456 1.518c.03.802.69 1.43 1.48 1.412a1.437 1.437 0 0 0 1.406-1.474Zm72.743 31.54V35.655h3.503v13.643c.354-.236.578-.367.79-.529 6.016-4.56 13.96-1.014 15.484 5.81 1.07 4.772-1.555 9.693-6.134 11.441-.242.094-.473.243-.703.361h-5.549c-1.263-.703-2.52-1.412-3.863-2.165v2.165h-3.528v.006Zm9.935-3.185c3.646 0 6.533-2.905 6.533-6.55 0-3.46-2.968-6.477-6.377-6.495-3.602-.02-6.557 2.936-6.557 6.55 0 3.571 2.886 6.501 6.401 6.495Zm-33.295 3.185c-.012-.335-.037-.671-.037-1.001v-29.73h3.527v13.536c1.076-.61 2.034-1.281 3.092-1.735 5.319-2.284 11.839 1.175 13.102 6.812 1.275 5.698-2.333 10.644-6.371 11.838-.137.044-.242.187-.367.287h-5.549c-1.275-.703-2.551-1.4-3.82-2.097-.068.684-.143 1.394-.211 2.097h-3.36l-.006-.007Zm3.509-9.748c0 3.633 2.799 6.544 6.314 6.557 3.621.012 6.588-2.905 6.613-6.495.025-3.502-3.029-6.575-6.507-6.55-3.552.024-6.414 2.917-6.42 6.488Zm-20.654 9.748c-.237-.124-.454-.273-.703-.367-4.274-1.63-6.663-5.835-6.32-10.034.391-4.822 3.825-8.517 8.423-9.176 2.668-.386 5.082.348 7.235 1.96.199.149.41.292.616.435.012.012.049-.013.143-.031V47.17h3.552v19.224h-3.527V64.24c-1.369.765-2.619 1.456-3.864 2.153h-5.549l-.006-.007Zm2.936-3.185c3.584 0 6.476-2.905 6.476-6.507 0-3.21-2.469-6.495-6.488-6.52-3.534-.025-6.439 2.974-6.445 6.489-.007 3.596 2.899 6.538 6.457 6.538Zm78.243 3.185c-1.319-.23-2.613-.51-3.708-1.374-1.642-1.3-2.488-2.987-2.507-5.058-.031-2.818-.006-5.643-.006-8.467v-.977h-2.794v-3.39h2.769v-7.335h3.54v7.285h5.841v3.384h-5.742c-.031.286-.075.467-.075.653 0 2.875-.012 5.755 0 8.63.007 1.865 1.301 3.122 3.173 3.128.784 0 1.568-.018 2.352.013.205.006.547.143.585.286.292 1.064.522 2.146.771 3.222h-4.199Zm-99.332 0c-.013-5.723-.025-11.44-.031-17.164v-2.065h3.527v1.81c2.14-1.45 4.392-2.127 6.949-2.245-.299 1.231-.579 2.376-.852 3.508-2.37.174-4.287 1.064-5.4 3.18-.361.69-.622 1.517-.641 2.289-.075 3.234-.031 6.476-.05 9.71 0 .324-.093.648-.137.971h-3.359l-.006.006Zm82.69 0V47.152h3.528v.833c0 5.81 0 11.628-.006 17.438 0 .324-.106.64-.162.964h-3.36Zm1.63-22.452c-1.219.013-2.258-1.038-2.277-2.301-.018-1.213 1.114-2.333 2.371-2.333a2.3 2.3 0 0 1 2.308 2.277c.025 1.325-1.014 2.345-2.402 2.357Z"/></svg>