<svg xmlns="http://www.w3.org/2000/svg" fill="none" viewBox="0 0 210 80"><path fill="#FFB600" d="m153.867 31.285-.161-.061c-.36.115-.681-.03-1.049.176a27.578 27.578 0 0 0-.543-.88l.077.283c.145.207.237.444.267.697.031.252 0 .505-.107.734-.122.291-.268.574-.436.842l.413-.321c.046-.146.054-.291.039-.437.237-.068.405.184.604.268.314.085.635.123.965.13.298-.19 1.668.062 1.676-.436.03-.72-1.24-.842-1.745-.987v-.008Zm-.192 1.118c-.168-.215-.589-.054-.788-.467.099-.368.628-.398.873-.337l.229.069a.954.954 0 0 1 .544.084.945.945 0 0 1 .413.36c-.038.252-1.087.29-1.271.298v-.007Zm-8.35-.995c0 .191-.206.29-.62.29-.413 0-.62-.084-.62-.283V29.22c0-.192.199-.291.613-.291.413 0 .62.092.62.283v2.197h.007Zm-.436-2.197c0-.061-.061-.092-.191-.092s-.192.03-.192.092v2.197c0 .069.062.1.192.092.13 0 .191-.031.191-.092V29.21Zm6.85 3.345c-.023.16-.207.214-.559.16-.352-.053-.505-.168-.482-.329l.306-1.86c.023-.16.215-.214.559-.152.344.053.505.168.482.329l-.306 1.852Zm-.061-1.914c0-.046-.039-.084-.146-.1-.107-.014-.16 0-.168.054l-.299 1.853c0 .053.046.084.146.107.099.015.153 0 .168-.054l.299-1.86Zm-2.021 1.684c-.023.222-.275.306-.75.26-.474-.046-.704-.183-.681-.398l.245-2.54c0-.223.268-.307.75-.26.474.045.704.183.681.397l-.252 2.541h.007Zm-.252-2.587c0-.069-.062-.115-.207-.13-.145 0-.222 0-.23.084l-.245 2.541c0 .077.062.115.199.13.138.016.222 0 .23-.084l.253-2.54Zm-2.733 1.822c0 .191-.237.283-.673.26-.436-.023-.651-.13-.643-.33l.115-2.272c0-.2.222-.291.673-.26.436.023.651.13.643.329l-.115 2.273Zm-.344-2.296c0-.07-.061-.1-.191-.107-.131 0-.199.022-.199.084l-.115 2.273c0 .061.061.1.191.107.13.008.199 0 .199-.084l.115-2.273Zm-7.585 1.951c.039.176 0 .299-.413.39-.413.1-.735.07-.773-.106l-.475-1.99c-.038-.169.138-.307.529-.398.39-.092.75 0 .788.16l.344 1.937v.007Zm-.872-1.882c0-.054-.077-.07-.199-.046-.115.023-.169.069-.161.122l.475 1.99c0 .054.068.069.199.038.114-.03.176-.069.16-.13l-.474-1.982v.008Zm3.865 1.92c0 .184-.077.314-.436.337-.36.023-.659-.076-.666-.26l-.138-2.051c0-.184.184-.283.536-.306.375-.023.574.046.581.222l.123 2.051v.008Zm-.528-2.02c0-.054-.062-.076-.176-.069-.107 0-.169.038-.161.1l.138 2.05c0 .054.061.085.176.077.115-.007.168-.038.168-.1l-.145-2.058Zm2.801 2.028c0 .184 0 .284-.406.314-.405.023-.788-.046-.796-.23l-.145-2.05c0-.177.184-.284.582-.307.398-.023.604.046.619.222l.138 2.051h.008Zm-.559-2.02c0-.054-.069-.084-.184-.077-.122 0-.183.046-.176.1l.138 2.05c0 .054.069.077.192.077.122 0 .183-.046.176-.1l-.146-2.05Zm-3.628 2.25-1.033.092v-.169l.329-.03-.176-2.059-.329.03v-.168l.681-.053.199 2.227.345-.03-.016.168v-.008Z"/><path fill="#FFB600" d="m140.748 31.523-1.033.092v-.168l.329-.023-.183-2.06-.337.032v-.169l.681-.061.199 2.227.344-.03-.015.168h.015v-.008Zm6.835.46-1.133-.2.039-.19.367.068.39-2.258-.367-.061.031-.184.75.13-.437 2.45.383.068-.015.192v-.015h-.008Zm3.184.65-1.133-.191.031-.192.367.062.391-2.258-.368-.061.031-.184.75.13-.436 2.45.382.068-.015.184v-.008Zm1.722.298-1.018-.175.031-.169.321.054.352-2.02-.321-.054.023-.169.673.115-.375 2.196.345.062-.031.16Z"/><path fill="#FFB600" d="m148.387 32.021-1.034-.1v-.168l.33.03.199-2.05-.33-.038v-.169l.682.069-.222 2.197.344.038.015.191h.016Zm-5.48-.444-1.095.061v-.183h.352l-.122-2.197-.352.023v-.183l.727-.039.138 2.373.367-.023-.015.168Zm-8.174-1.638s-.031 0-.046-.053c-.008-.054 0-.07.023-.07l.237-.045s.038 0 .038.054v.069l-.252.045Zm.229-.084-.237.046v.023l.237-.069Zm-1.4.842c-.054.023-.107 0-.161-.1-.054-.099-.046-.16 0-.19l.635-.345c.054-.03.107 0 .161.1.054.099.046.16 0 .19l-.628.345h-.007Zm.581-.436s.023-.03 0-.054c0-.03-.03-.038-.045-.03l-.636.344v.054s.039.038.054.03l.627-.344Zm.452.321c-.069.038-.13 0-.191-.122-.062-.123-.062-.2 0-.23l.75-.398c.061-.038.13 0 .191.123.061.122.061.199 0 .23l-.742.397h-.008Zm.681-.528s.023-.03 0-.069a.04.04 0 0 0-.053-.038l-.75.406v.069s.038.046.061.038l.742-.406Zm.222.038c-.053 0-.092 0-.122-.114-.031-.115 0-.146.038-.161l.582-.184c.053 0 .091.039.114.123.031.091.023.145-.03.16l-.582.184v-.008Zm.551-.283v-.053s-.023-.039-.038-.03l-.582.183v.046s.023.038.039.038l.581-.184Z"/><path fill="#FFB600" d="M135.291 29.817s-.053 0-.068-.07c-.016-.068 0-.076.03-.083l.375-.084s.061.023.069.068c0 .054 0 .085-.03.092l-.376.085v-.008Zm.36-.146v-.023h-.023l-.375.085v.03l.391-.084.007-.008Zm.551.176s-.046 0-.053-.06c-.008-.062 0-.07.03-.077l.322-.054s.046 0 .053.061c.008.062 0 .07-.03.07l-.322.053v.007Zm.314-.091v-.023l-.321.053v.023l.321-.053Zm-2.801 1.347c-.061.038-.123 0-.184-.108-.061-.107-.069-.183 0-.214l.689-.405c.061-.039.122 0 .184.107.061.107.069.183 0 .214l-.689.406Zm.62-.52s.023-.024 0-.07c0-.03-.038-.046-.054-.03l-.681.405s-.023.039 0 .07c.023.03.038.045.061.03l.681-.406h-.007Zm-.551-.59.076.199h-.03l-.031-.069-.406.16v.07h-.03l-.054-.138.436-.169-.022-.069.061.016Zm.857-.138.107.214h-.031l-.038-.069-.382.192.038.069h-.031l-.069-.138.414-.207-.039-.069.031.016v-.008Zm.543-.237v.23h-.053v-.077h-.597v.076h-.046v-.153h.643v-.076h.053Zm-9.75 1.025c-.039 0-.077 0-.1-.091-.03-.092 0-.115 0-.13l.467-.161c.038 0 .069 0 .1.092.023.084 0 .122 0 .13l-.46.16h-.007Zm.436-.237v-.038s0-.03-.031-.023l-.436.16v.039c0 .038 0 .03.031.023l.436-.16Zm1.064-.222c-.054 0-.084-.023-.107-.122-.023-.092 0-.138.038-.153l.574-.146c.046 0 .092.023.107.123.023.091 0 .145-.038.16l-.574.138Zm.551-.283s0-.038-.038-.038l-.567.145v.046c0 .046.023.038.038.038l.567-.137V29.9Zm.283.092c-.054 0-.099-.038-.115-.146-.015-.107 0-.168.054-.176l.666-.122c.053 0 .099.038.114.138.023.107 0 .168-.061.176l-.666.13h.008Zm.651-.237s.023 0 0-.054c0-.03 0-.046-.031-.046l-.674.123s-.022 0 0 .053c.023.054 0 .046.039.046l.666-.122Zm.283.069c-.061 0-.107-.039-.13-.154-.023-.114 0-.176.061-.19l.712-.131c.061 0 .099.038.122.153.023.107 0 .176-.061.191l-.704.13Zm.681-.253s.023 0 0-.054c0-.038 0-.046-.038-.046l-.712.13s-.023.023 0 .054c.031.038 0 .046.038.046l.712-.13Zm1.385-.023c-.076 0-.122-.054-.138-.191-.015-.138 0-.207.1-.215l.872-.076c.077 0 .123.053.131.191.007.138 0 .214-.1.214l-.872.077h.007Zm.873-.214s.038-.023.038-.07c0-.045 0-.06-.046-.06l-.872.076s-.039.023-.031.061c0 .039 0 .062.046.062l.872-.077h-.007v.008Zm.291.137c-.077 0-.123-.069-.131-.214-.007-.138.023-.214.108-.222l.91-.053c.077 0 .123.069.13.214 0 .153-.022.222-.107.23l-.91.053v-.008Zm.903-.214s.038-.023.038-.069c0-.046 0-.069-.046-.069l-.911.054s-.038 0-.038.069 0 .069.046.069l.911-.054Zm.321.2c-.084 0-.13-.077-.13-.238 0-.16.038-.23.13-.23h.972c.084 0 .13.077.13.23 0 .153-.038.237-.13.237h-.972Zm.98-.17s.038-.022.038-.068c0-.046 0-.069-.038-.069h-.98s-.046.023-.046.069c0 .046 0 .069.046.069h.98Z"/><path fill="#FFB600" d="M135.644 29.58c-.1 0-.131-.1-.115-.276.015-.176.076-.252.168-.245l1.095.107c.091 0 .13.1.114.276-.015.176-.076.252-.168.245l-1.094-.108Zm1.109-.07s.046-.022.054-.076c0-.053 0-.084-.038-.084l-1.087-.115s-.046.023-.054.077c0 .053 0 .084.039.084l1.094.115h-.008Zm-14.319 2.358.053.13h-.023v-.046l-.268.123.023.045h-.023l-.038-.084.291-.13v-.046h-.015v.008Zm.489-.314.085.184h-.031l-.023-.054-.375.169.031.053h-.031l-.054-.122.406-.184-.031-.061.031.015h-.008Zm.475-.245.076.184h-.03l-.031-.054-.367.169.023.053h-.031l-.053-.122.405-.184-.03-.061.038.015Zm.528-.314.092.2h-.038l-.023-.07-.414.192.023.069h-.03l-.062-.13.437-.2-.031-.068.038.015h.008v-.008Zm.605-.23.076.215h-.038l-.023-.069-.436.153.023.07h-.039l-.046-.139.437-.168v-.069l.046.015v-.007Zm.688-.336.092.253h-.046l-.03-.084-.528.19.03.085h-.046l-.061-.168.566-.2-.03-.084.046.016h.007v-.008Zm1.462-.513.084.314h-.053l-.023-.1-.628.169.023.1h-.046l-.053-.2.681-.183-.031-.1h.054-.008Zm3.865-.757.031.436h-.077v-.138l-.872.069v.138h-.077v-.283l.949-.07v-.145h.046v-.007Zm4.952-.123-.038.513h-.092v-.16l-1.018-.077v.16h-.084l.023-.336 1.102.084v-.168l.099-.023h.008v.007Z"/><path fill="#FFB600" d="M134.488 29.626c-.061 0-.092-.053-.084-.16.007-.1.046-.146.107-.138l.735.06c.068 0 .091.054.084.154 0 .1-.046.153-.107.145l-.743-.06h.008Zm.75-.046s.031 0 .031-.046c0-.03 0-.046-.031-.046l-.735-.053s-.038 0-.038.038 0 .046.023.046l.742.061h.008Zm-8.656 1.585s-.046-.023-.069-.07c-.023-.045 0-.076 0-.091l.298-.123s.046 0 .069.062c.023.06 0 .084 0 .1l-.306.122h.008Zm.283-.177v-.022s0-.023-.023-.023l-.306.122v.023l.329-.1Zm.719-.214s-.053 0-.076-.069c-.023-.068 0-.1 0-.107l.375-.122s.061 0 .076.069c.023.068 0 .1-.023.107l-.352.13v-.008Zm.352-.199v-.03s0-.023-.03-.023l-.375.13v.03s0 .023.023.023l.375-.13h.007Zm.192.023s-.069 0-.084-.084c-.016-.084 0-.107.03-.122l.436-.123c.039 0 .069 0 .092.084.023.084 0 .107-.03.123l-.444.122Zm.436-.191v-.038s0-.016-.008-.016c0 0-.007-.007-.015-.007l-.436.122v.038c0 .039 0 .031.023.023l.436-.122Zm.184.023c-.039 0-.069-.03-.092-.092 0-.077 0-.123.03-.13l.467-.13c.039 0 .069 0 .092.1.023.099 0 .114-.03.13l-.467.122Zm.436-.2v-.037s-.008-.031-.023-.023l-.467.122v.038c0 .026.008.036.023.03l.467-.13Zm.957-.145c-.046 0-.077-.038-.092-.122 0-.084 0-.13.046-.138l.543-.092c.046 0 .077.039.092.123 0 .084 0 .13-.046.138l-.543.091Zm.528-.183v-.046s0-.039-.031-.039l-.536.092v.039s.008.038.031.038l.536-.092v.008Zm.229.092c-.053 0-.092-.039-.107-.146-.015-.107 0-.16.069-.168l.651-.092c.053 0 .091.038.107.145.015.107 0 .161-.061.169l-.651.092h-.008Zm.636-.2s.023 0 0-.045c0-.039 0-.046-.039-.046l-.65.092s-.023.022 0 .053c.03.03 0 .046.038.046l.651-.1Zm.267.062c-.053 0-.091-.046-.107-.146-.015-.1 0-.16.069-.168l.658-.077c.054 0 .085.039.1.146.015.107 0 .16-.069.168l-.651.077Zm.643-.192s.023 0 0-.046c0-.03 0-.045-.03-.045l-.658.076s-.023 0 0 .046c.022.046 0 .046.038.046l.65-.076Zm.215.054c-.046 0-.069-.046-.069-.13s.023-.13.069-.13h.528c.046 0 .069.046.069.13s-.023.13-.069.13h-.528Zm.528-.1v-.076h-.528s-.023 0-.023.038c0 .039 0 .039.023.039h.528Zm-8.633 2.457.045.084v-.022l-.168.1v.022l-.031-.054.184-.099v-.03h-.03Zm.313-.23.069.116h-.023v-.039l-.237.13v.039l-.046-.077.26-.145v-.039h-.023v.016Zm.352-.19.062.114-.023-.038-.238.13v.038l-.038-.076.253-.146v-.038l-.016.015Zm.368-.2.061.13-.023-.045-.275.13.022.046h-.022l-.046-.085.29-.145v-.046l-.023.015h.016Zm.382-.176.062.138v-.046l-.276.13v.039h-.023l-.038-.092.298-.13-.023-.046v.015-.008Zm.437-.23.076.162h-.023l-.023-.054-.329.16.023.054h-.03l-.054-.107.367-.176-.03-.053.03.015h-.007Zm.995-.428.069.2h-.031l-.023-.07-.406.146v.069h-.03l-.046-.138.436-.16-.023-.07.061.015h-.007v.008Zm2.541-.788.069.283h-.046l-.023-.092-.567.13v.084h-.046l-.046-.19.62-.139v-.1l.046.016h-.007v.008Zm4.332-.429v.36h-.069v-.115l-.812-.038v.115h-.068v-.238l.872.039v-.123h.077Zm-5.986 2.855s-.053 0-.076-.054c-.023-.053-.023-.084 0-.099l.306-.153s.054 0 .077.054c.03.053.03.084 0 .099l-.299.153h-.008Zm.276-.199v-.03s0-.023-.023 0l-.298.152v.031s0 .023.023 0l.306-.153h-.008Zm.742-.283s-.068 0-.091-.069c-.031-.069-.023-.1 0-.107l.375-.169s.061 0 .084.07c.023.068.023.099 0 .107l-.368.16v.008Zm.345-.215v-.038s0-.023-.023-.023l-.375.169v.038s0 .023.023 0l.375-.145Zm.191-.015c-.038 0-.069 0-.099-.084-.023-.084-.023-.107 0-.13l.436-.16s.069 0 .099.083c.023.085 0 .108-.023.13l-.413.161Zm.413-.23v-.038s0-.03-.03-.023l-.436.161v.038s0 .031.023.023l.443-.16Zm.215-.007c-.046 0-.077 0-.107-.084-.031-.084 0-.123.023-.138l.466-.168c.039 0 .077 0 .1.091.023.092 0 .123 0 .13l-.49.169h.008Zm.436-.253v-.038s-.023-.03-.031-.023l-.466.169v.038c0 .025.01.035.03.03l.475-.176h-.008Zm.98-.221c-.046 0-.085-.023-.108-.108-.022-.084 0-.138.031-.153l.559-.137c.046 0 .084.022.107.114.023.085 0 .138-.038.153l-.559.138h.008v-.008Zm.528-.238v-.046s0-.038-.031-.03l-.551.137s-.023 0 0 .046 0 .039.031.031l.551-.146v.008Zm.199.077c-.061 0-.1-.03-.13-.138-.031-.107 0-.16.053-.176l.666-.16c.054 0 .1.037.123.137.022.107 0 .168-.046.184l-.666.153Zm.635-.245s.023-.023 0-.054c0-.03-.015-.046-.038-.038l-.666.153s-.023.023 0 .054c.023.03 0 .045.038.045l.666-.152v-.008Zm-6.98 2.962.054.084v-.023l-.169.115v.023l-.038-.054.184-.13-.023-.023h-.016.008v.008Zm.314-.268.076.115-.023-.039-.229.153.023.039-.054-.077.253-.168-.023-.038-.016.015h-.007Zm.344-.23.077.115h-.023l-.023-.038-.23.16.023.039-.069-.046.253-.169v-.06h-.008Zm.36-.237.076.13-.023-.046-.267.16.023.04-.054-.085.291-.168-.023-.046-.023.015Zm.383-.222.076.13-.023-.046-.268.153.023.046h-.023l-.046-.084.291-.168-.023-.046v.015h-.007Zm.436-.276.099.161h-.03l-.031-.053-.329.191.031.054h-.031l-.061-.108.359-.214-.03-.053.023.023Zm.987-.52.092.2h-.038l-.031-.07-.406.184.031.069h-.038l-.061-.138.436-.199-.031-.069.038.015h.008v.008Zm2.556-1.049.092.284h-.046l-.03-.092-.582.184.031.091h-.046l-.062-.19.628-.2-.031-.1.046.016v.008Zm-3.176 2.289s-.053 0-.076-.054c-.023-.053-.031-.084 0-.1l.29-.16s.054 0 .077.054c.031.046.031.084 0 .1l-.291.168v-.008Zm.268-.23v-.03h-.023l-.298.16v.031s0 .023.023 0l.29-.16h.008Zm.712-.313s-.061 0-.092-.062c-.031-.06-.023-.1 0-.114l.367-.184s.062 0 .085.069c.022.069.03.1 0 .107l-.36.184Zm.329-.245v-.031s0-.023-.031-.023l-.359.184v.038s.023.023.03 0l.36-.168Zm.207-.046c-.039 0-.077 0-.1-.077-.023-.076-.023-.115 0-.13l.436-.184c.039 0 .069 0 .1.077.03.076.03.107 0 .13l-.436.184Zm.398-.26v-.039s0-.03-.031-.023l-.436.184v.038s0 .03.038.023l.436-.183h-.007Zm.895-.291c-.046 0-.077 0-.115-.092-.038-.092-.03-.13 0-.146l.498-.214c.046 0 .084 0 .114.092.031.084.031.13 0 .153l-.497.214v-.007Zm.459-.306v-.046s0-.039-.038-.023l-.498.214v.046c0 .046.023.03.039.023l.497-.215Zm-5.227 2.923.053.077v-.023l-.16.122v.023l-.039-.053.176-.138v-.023l-.03.015Zm.298-.29.077.107-.023-.039-.222.169.023.038-.054-.069.245-.184-.03-.038-.016.015Zm.329-.246.085.108-.023-.039-.23.169.031.038-.054-.077.245-.183-.031-.038-.015.015h-.008v.007Zm.353-.252.084.13h-.023l-.023-.038-.26.176.03.038-.053-.084.283-.192-.023-.045v.015h-.015Zm.359-.253.084.13h-.023l-.023-.038-.26.169.023.045h-.023l-.053-.084.291-.183-.031-.046.023.015h-.008v-.008Zm.429-.283.107.153-.031.023-.038-.053-.321.214.03.053h-.03l-.062-.107.345-.23-.038-.053h.038Zm.957-.597.099.2h-.038l-.031-.062-.398.206.031.07-.039.03-.068-.13.436-.23-.031-.069.031-.015h.008Zm1.798-.88.1.26h-.046l-.023-.084-.528.199.03.084h-.046l-.069-.176.574-.214-.038-.084.038.015h.008Z"/><path fill="#FFB600" d="m132.513 30.665.107.314h-.053l-.038-.1-.628.222.038.1h-.053l-.069-.207.681-.245-.038-.1.053.016Zm.834-.191.069.298h-.046l-.023-.1-.604.146.023.1h-.054l-.046-.2.659-.16-.031-.1.053.016Zm-3.65 2.395s-.046 0-.077-.046c-.023-.045-.03-.076 0-.084l.268-.153s.046 0 .077.054c.023.053.023.076 0 .084l-.268.153v-.008Zm.237-.206v-.023l-.268.153v.023s0 .023.023 0l.245-.153Zm.643-.291s-.054 0-.084-.054c-.031-.053-.023-.084 0-.1l.329-.168s.053 0 .084.054c.031.054.031.092 0 .1l-.329.168Zm.306-.222v-.03h-.023l-.329.168v.03s0 .023.023 0l.337-.168h-.008Zm.176-.015s-.061 0-.092-.07c-.03-.068 0-.099 0-.122l.391-.168s.068 0 .091.076c.023.077.023.1 0 .115l-.39.169Zm.36-.238v-.038s0-.023-.023-.023l-.391.169v.038s0 .023.031 0l.39-.153h-.007v.007Zm.199-.015s-.061 0-.092-.077c-.031-.076-.031-.107 0-.122l.413-.184c.038 0 .069 0 .1.077.03.076.023.107 0 .13l-.421.184v-.008Zm.382-.299s0-.022-.03-.022l-.413.183v.046s.023.023.03.023l.413-.183v-.046Zm.888-.221c-.046 0-.084-.023-.115-.115-.03-.092-.023-.153.031-.169l.582-.19c.053 0 .092.022.122.114.031.092 0 .153-.03.168l-.59.192Zm.559-.284v-.053s-.023-.038-.038-.038l-.59.19v.047s.023.038.039.038l.581-.191.008.007Zm-5.526 2.932.054.076h-.023l-.146.107v.023l-.038-.046.161-.122v-.038h-.008Zm.268-.26.077.099v-.038l-.207.16.023.031-.084-.053.222-.169-.023-.03h-.008Zm.298-.238.077.1-.023-.038-.199.16v.03l-.054-.068.222-.168-.023-.039v.023Zm.314-.23.077.123-.023-.038-.237.16.023.039-.054-.077.26-.176-.03-.038-.023.015h.007v-.007Zm.329-.214.077.123-.023-.038-.237.16.023.038-.054-.076.26-.168-.023-.039-.015.016v-.016h-.008Zm.383-.283.1.138h-.023l-.031-.046-.291.199.031.046h-.023l-.069-.092.314-.214-.031-.046.023.015Zm.873-.528.091.184h-.03l-.031-.054-.36.191.023.054h-.023l-.068-.122.39-.207-.031-.061.031.015h.008Zm2.265-1.094.099.252h-.038l-.03-.076-.521.199.031.084h-.046l-.069-.169.559-.214-.031-.084h.046v.008Zm-5.005.237s-.054 0-.069-.069c-.016-.069 0-.084 0-.1l.313-.122s.054 0 .077.069 0 .084 0 .1l-.314.122h-.007Zm.29-.184v-.03s0-.023-.023 0l-.313.122v.023s0 .023.023 0l.313-.122v.007Zm.75-.214s-.061 0-.084-.077c-.023-.076 0-.1.023-.107l.383-.13s.061 0 .084.077c.023.076 0 .1 0 .107l-.406.13Zm.368-.2v-.03s0-.023-.023-.023l-.383.13v.031s0 .023.023 0l.383-.107Zm.191.016c-.038 0-.069-.023-.092-.092-.015-.069 0-.114.031-.122l.436-.123c.038 0 .069 0 .084.092.023.092 0 .107-.03.123l-.436.122h.007Zm.436-.237s0-.03-.03-.023l-.436.122v.039s0 .038.023.03l.443-.122v-.046Zm.215.053c-.046 0-.077 0-.1-.099-.023-.1 0-.122.031-.13l.482-.13c.046 0 .077.023.092.1.015.076 0 .122-.031.137l-.474.13v-.008Zm.436-.26s0-.03-.031-.023l-.482.13v.039c0 .025.01.035.031.03l.482-.13v-.046Zm1.003-.084c-.046 0-.077-.03-.092-.122-.016-.084 0-.138.053-.153l.559-.092c.046 0 .077.03.1.122.015.084 0 .138-.054.153l-.559.092h-.007Zm.551-.191v-.046s0-.038-.031-.038l-.559.1v.045c0 .046 0 .038.031.038l.559-.1Zm.237.084c-.054 0-.1-.046-.107-.153-.016-.107 0-.169.069-.176l.673-.1c.054 0 .1.039.107.153.016.108 0 .169-.069.177l-.673.099Zm.658-.214s.023-.023 0-.054c0-.03 0-.046-.038-.046l-.681.1s-.023 0 0 .053c.023.054 0 .046.038.046l.681-.1Zm-7.24 2.38.046.084v-.03l-.184.099v.023l-.046-.038.192-.108v-.022h-.016l.008-.008Zm.337-.237.068.122h-.022v-.038l-.245.138v.038l-.046-.077.26-.153v-.038h-.015v.008Zm.367-.2.069.123-.023-.038-.245.138.023.038h-.023l-.046-.084.268-.146-.023-.046v.016Zm.367-.206.069.138h-.023v-.046l-.283.138.023.046h-.023l-.046-.092.306-.153v-.046h-.015v.015h-.008Zm.398-.184.062.138-.023-.046-.284.13.023.046h-.023l-.045-.092.306-.137-.023-.046.007.007Zm.46-.237.076.168h-.031l-.022-.053-.353.168.023.054h-.023l-.053-.115.375-.184-.031-.053.031.015h.008Zm1.025-.413.069.206h-.038l-.023-.069-.436.154.022.069h-.038l-.046-.138.437-.161-.023-.069.068.015h.008v-.007Zm2.633-.85.061.291h-.053v-.092l-.59.13v.092h-.046l-.046-.191.636-.146-.023-.1.053.016h.008Zm2.533-.398.031.337h-.054v-.107l-.681.069v.107h-.053l-.023-.222.742-.077v-.114h.046-.008v.007Zm.812.03v.315h-.054v-.1h-.635v.1h-.054v-.207l.689.023v-.107l.054-.023Zm-7.983 2.978s-.023 0-.038-.023c-.016-.023 0-.038 0-.038l.122-.092h.038v.046l-.114.107h-.008Z"/><path fill="#FFB600" d="m132.85 30.046.038.283h-.046v-.092l-.566.077v.084h-.046l-.023-.191.62-.085v-.091h.038l-.015.015Zm.199.16c-.046 0-.077-.038-.084-.122-.008-.084 0-.122.061-.13l.513-.053c.046 0 .069.038.076.122 0 .076 0 .122-.053.13l-.521.054h.008Zm.505-.137s.023 0 .023-.038v-.039l-.52.054s-.023 0 0 .038 0 .038.03.038l.467-.053Zm.329 0c-.038 0-.053-.038-.053-.092s.023-.084.061-.084h.436c.038 0 .054.03.054.092 0 .06-.023.084-.062.084h-.436Zm.436-.054v-.053h-.436v.053h.436Zm-6.222 1.738s-.046 0-.069-.046c-.023-.046 0-.07 0-.085l.253-.114s.046 0 .061.046.023.069 0 .076l-.253.123h.008Zm.23-.184-.253.122v.023l.253-.114v-.031Zm.62-.176s-.046-.015-.069-.054c-.023-.046 0-.076 0-.084l.283-.115s.046.016.069.054v.084l-.283.123v-.008Zm.268-.176v-.023l-.291.115v.023s0 .023.023 0l.268-.115Zm.137.015s-.053 0-.069-.069c-.015-.069 0-.084 0-.091l.337-.115s.054 0 .069.069c.015.068 0 .084 0 .099l-.337.107Zm.322-.168v-.03l-.337.114v.046l.337-.13Zm.16.023s-.053 0-.076-.07c-.015-.068 0-.09 0-.099l.36-.122s.053 0 .076.069 0 .092 0 .1l-.36.122Zm.337-.184v-.03s0-.024-.023-.024l-.352.123v.054l.383-.123h-.008Zm.758-.176c-.038 0-.069 0-.084-.084-.016-.084 0-.107.023-.115l.413-.122s.061 0 .084.084c.023.084 0 .107-.023.115l-.413.122Zm.39-.191v-.039s0-.03-.023-.023l-.413.123v.038s0 .023.031.023l.413-.122h-.008Zm.176.061c-.046 0-.076-.03-.099-.123-.015-.084 0-.137.046-.153l.558-.114c.046 0 .085.03.1.122.015.084 0 .138-.046.153l-.559.115Zm.536-.207s.023 0 0-.046c0-.023 0-.038-.038-.038l-.505.123v.046c0 .045 0 .038.03.038l.505-.123h.008Zm-5.633 2.204.046.062-.13.1-.031-.039.138-.107-.023-.016Zm.398-.306.054.085v-.031l-.184.115v.03l-.038-.053.191-.123v-.03h-.038.015v.007Zm.26-.137.046.091v-.03l-.191.1v.03l-.031-.061.207-.107v-.031h-.031v.008Z"/><path fill="#FFB600" d="m127.324 31.99.054.107v-.038l-.26.13v.03l-.039-.068.23-.122v-.039h.023-.008Zm.283-.145.054.1v-.031l-.207.107v.038l-.038-.069.23-.122v-.038h-.039v.015Zm.337-.184.061.13h-.023v-.046l-.26.13v.039h-.023l-.038-.084.283-.138v-.038.007Zm.85-.398.076.184h-.03l-.023-.054-.36.153.023.054h-.031l-.053-.115.39-.168-.023-.061h.031v.007Zm1.951-.704.069.222h-.038v-.069l-.436.13v.07h-.039l-.038-.146.475-.138-.023-.069h.03Zm15.889 8.45s-.054.03-.107 0c-.054-.039-.069-.062-.054-.092l.199-.337s.054-.023.107 0c.054.023.069.061.054.092l-.199.337Zm.138-.368v-.023h-.031l-.199.33v.03h.031l.199-.337Zm.536-.673s-.069.023-.123 0c-.053-.023-.076-.077-.053-.115l.275-.375s.061-.023.123 0c.053.023.076.076.053.115l-.275.375Zm.206-.437v-.038h-.038l-.276.383v.038h.039l.268-.383h.007Zm.192-.107s-.077.023-.146-.023c-.069-.046-.084-.1-.053-.137l.336-.414s.077-.023.146.023c.061.054.084.1.053.138l-.336.413Zm.267-.474v-.039s-.03-.022-.045 0l-.345.414v.046h.046l.344-.421Zm.215-.1s-.077.03-.153-.023c-.069-.053-.085-.107-.054-.145l.36-.436s.084-.03.153.03c.069.061.092.107.053.138l-.359.436Zm.291-.497v-.046h-.046l-.36.436v.046s.038.023.046 0l.36-.436Zm.818-.712c-.038.046-.099.023-.176-.046-.076-.076-.091-.138-.045-.184l.497-.505c.046-.046.107-.023.184.054.076.076.092.138.046.176l-.498.505h-.008Zm.437-.582v-.053s-.039-.03-.054 0l-.497.505v.053s.046.023.053 0l.498-.505Zm.229-.069c-.046.046-.107.023-.191-.06-.084-.085-.099-.146-.046-.192l.521-.505c.045-.038.107 0 .191.061.076.061.099.153.046.191l-.521.505Zm.437-.581v-.061s-.046-.031-.054 0l-.536.482v.053s.039.031.062 0l.535-.482-.007.008Zm.29-.054c-.053.046-.114 0-.199-.076-.084-.077-.091-.161-.045-.207l.589-.505c.053-.046.122-.015.199.077.076.091.092.16.046.206l-.59.505Zm.521-.666s-.046-.038-.061 0l-.59.505v.07s.046.038.062.022l.589-.528v-.069Zm1.041-.528c-.061.046-.13.008-.207-.107-.076-.115-.092-.191 0-.237l.712-.49c.061-.046.13-.008.207.107.076.115.084.192.022.238l-.734.49Zm.635-.612v-.069s-.046-.046-.061-.03l-.743.49v.076s.046.046.069.03l.743-.49-.008-.007Zm-7.439 8.733.099.053h-.03l-.1.215h.031l-.069-.039.107-.23h-.038Zm.13-.436.138.068v.023l-.046-.023-.138.291h.046v.023l-.1-.046.153-.314-.045-.023h-.008Zm.153-.398.138.068v.023h-.046l-.138.291h.046l-.1-.046.154-.314-.046-.023h-.008Zm.176-.452.161.076v.023h-.054l-.153.322.054.023v.023l-.108-.054.169-.344-.054-.023-.015-.046Zm.245-.452.145.085v.023l-.046-.023-.176.306.046.03v.023l-.099-.053.191-.337-.053-.03v-.024h-.008Zm.237-.55.191.106-.022.031-.054-.038-.222.382.061.039v.03l-.122-.076.237-.406-.061-.038v-.03h-.008Zm.628-1.05.206.146-.023.03-.068-.045-.291.436.069.046-.023.038-.138-.091.321-.437-.069-.046.023-.069h-.007v-.007Zm1.944-2.433.237.245-.046.038-.076-.076-.506.49.077.076-.046.038-.161-.16.536-.529-.076-.076.053-.046h.008Zm2.931-2.61.23.321-.054.039-.076-.107-.651.474.077.107-.054.039-.153-.215.704-.49-.077-.107.054-.06Zm-5.732 5.09h-.085c-.038 0-.046-.054-.03-.077l.176-.222h.076c.039 0 .054.054.031.077l-.168.222Zm.13-.253h-.023l-.176.222.199-.222Zm.359-.49c-.046 0-.053-.06-.03-.084l.222-.26h.092c.045 0 .053.069.038.084l-.222.26h-.1Zm.268-.306v-.023h-.03l-.222.26v.023h.03l.23-.26h-.008Zm.146-.069s-.054 0-.1-.023a.083.083 0 0 1-.038-.107l.275-.283s.062 0 .1.023a.082.082 0 0 1 .038.107l-.275.283Zm.229-.337v-.03h-.03l-.276.29v.031h.031l.268-.29h.007Zm.161-.084s-.061 0-.107-.023-.061-.084-.038-.107l.29-.306s.062 0 .108.03c.045.031.061.085.038.108l-.291.306v-.008Zm.245-.36v-.038h-.038l-.291.306v.031h.03l.291-.306h.008v.008Zm.65-.52s-.076 0-.122-.046-.054-.1-.023-.13l.36-.314s.069 0 .122.046c.054.046.054.1.031.13l-.368.314Zm.314-.375v-.038h-.038l-.36.314v.038s.031.023.039 0l.359-.314Zm.207-.053c-.038.03-.084 0-.146-.062-.061-.06-.068-.122-.022-.153l.436-.367c.038-.03.092 0 .145.053.054.054.069.123.031.154l-.436.367-.008.008Zm.383-.429v-.046s-.031-.03-.046 0l-.437.367v.046s.039.023.046 0l.437-.367Zm-4.179 4.89.076.047-.076.015-.084.153h.023l-.046-.023.091-.16h-.023l.046-.024-.007-.007Zm.115-.32.099.053h-.031l-.114.206h.038l-.069-.038.13-.222h-.053Zm.168-.3.107.054h-.031l-.114.207h.03l-.069-.038.13-.222-.038-.023-.015.015v.008Zm.191-.32.107.068-.038-.023-.138.222h.039l-.069-.046.153-.245h-.038l-.016.016v.007Zm.199-.315.107.07h-.03l-.153.221h.038l-.069-.046.161-.237h-.054v-.008Zm.238-.36.13.085-.046-.03-.184.275.046.03v.023l-.092-.053.191-.299-.045-.03Zm.551-.765.137.123-.046-.038-.244.298.045.038-.023.023-.091-.076.26-.322-.046-.038h.008v-.008Zm1.546-1.76.176.184-.031.023-.054-.054-.367.36.054.053-.023.031-.115-.122.406-.383-.062-.061.031-.031h-.015Zm1.66-1.4.169.229-.038.03-.054-.076-.467.352.061.077-.038.023-.115-.153.505-.383-.053-.077.038-.03-.008.007Zm.59-.33.13.23h-.038l-.039-.077-.474.26.046.077h-.039l-.084-.153.513-.283-.046-.077.038.023h-.007Zm-2.656-8.388c-.069-.069-.038-.168.076-.29.115-.123.222-.146.291-.077l.796.803c.069.07.046.169-.076.284-.123.122-.222.152-.283.076l-.796-.804h-.008v.008Zm1.01.689c.038-.038.046-.069.023-.084l-.796-.804h-.092s-.046.069-.023.092l.796.796h.092Zm.023.375c-.069-.077-.038-.176.1-.306.13-.13.237-.153.306-.077l.788.842c.069.077.038.168-.099.299-.138.13-.23.153-.299.076l-.788-.842-.008.008Zm.934.72h.092c.038-.039.046-.07.023-.093l-.789-.841h-.099c-.046 0-.046.068-.023.1l.796.833Zm.076.45c-.068-.083-.03-.19.123-.313.153-.122.26-.153.329-.069l.796.95c.069.083.031.19-.122.313-.154.13-.261.153-.33.069l-.796-.95Zm.957.82s.054.023.1 0c.046-.038.053-.07.038-.1l-.796-.949h-.1c-.045 0-.053.077-.038.1l.796.949Zm.942 1.691c-.069-.1 0-.214.168-.336.168-.13.306-.13.375-.039l.796 1.148c.069.1 0 .215-.168.337-.169.122-.307.138-.376.038l-.795-1.148Zm.964 1.018s.053.03.115 0c.053-.038.069-.069.053-.1l-.78-1.155s-.062-.03-.115 0c-.054.03-.077.069-.054.1l.781 1.155Zm-4.692-6.299-.382.375-.069-.069.13-.122-.773-.796-.123.122-.061-.068.26-.253.835.88.13-.13.061.046v.015h-.008Zm4.133 4.707-.513.368-.061-.085.169-.122-.758-1.056-.169.122-.061-.084.345-.245.819 1.133.168-.123.061.092Z"/><path fill="#FFB600" d="M150.629 29.013c-.046-.069 0-.138.084-.207.085-.069.176-.076.222 0l.544.75c.046.07 0 .138-.084.215-.085.076-.176.076-.222 0l-.544-.75v-.008Zm.651.681s.038.023.069 0c.03-.023.038-.046 0-.069l-.536-.765s-.038-.023-.069 0c-.031.023-.038.046-.023.069l.559.765Zm-4.608-4.546c-.053-.038-.038-.1.039-.184.068-.084.13-.107.176-.069l.528.437c.046.038.03.1-.039.183-.068.084-.13.107-.176.07l-.528-.437Zm.651.36s.031-.046 0-.054l-.528-.436h-.061s-.023.046 0 .053l.528.437h.061Zm.061.313c-.061-.046-.038-.122.046-.222.092-.099.161-.122.214-.076l.62.559c.054.046.039.122-.053.222s-.161.122-.207.076l-.62-.55v-.009Zm.712.429s.038 0 .061-.023c.031-.03.031-.053 0-.069l-.62-.559s-.038 0-.069.023c-.03.023-.03.054 0 .07l.62.558h.008Zm.138.337c-.054-.046-.039-.123.053-.222.092-.1.161-.123.215-.069l.604.574c.054.046.038.122-.053.222-.092.1-.161.122-.215.069l-.604-.574Zm.704.474h.069s.03-.046 0-.069l-.605-.574s-.038 0-.069.023c-.023.023-.03.046 0 .07l.612.55h-.007Zm.13.253c-.038-.046 0-.107.069-.176.069-.069.145-.084.183-.038l.437.512c.038.046 0 .1-.069.169s-.146.084-.184.038l-.436-.505Zm.52.436h.054s.031-.038 0-.053l-.436-.513h-.054s-.031.038-.023.053l.459.506v.007Zm-2.831-2.985-.222.283-.046-.038.069-.092-.59-.436-.069.092-.046-.038.146-.192.635.49.077-.1.046.024v.007Zm3.926 3.858-.36.275-.053-.069.114-.092-.62-.818-.114.084-.054-.07.237-.183.674.88.122-.091.054.076v.008Zm-7.608-3.475s-.038-.054 0-.122c.038-.07.061-.092.092-.077l.39.176s.039.053 0 .122c-.038.07-.061.092-.099.077l-.39-.168h.007v-.008Zm.436.092h.031v-.038l-.39-.169h-.031v.038l.39.169Zm.85.467c-.038 0-.038-.07 0-.138.038-.077.077-.1.115-.077l.467.23c.038 0 .038.069 0 .138-.039.069-.077.1-.115.084l-.467-.23v-.007Zm.505.145h.038v-.046l-.466-.23s-.023 0-.039.023c-.015.023 0 .039 0 .046l.467.207Zm.153.199c-.046-.023-.046-.076 0-.16.046-.085.092-.108.138-.085l.513.299c.046.023.046.076 0 .16s-.1.107-.138.084l-.505-.298h-.008Zm.559.214s.031 0 .046-.023v-.053l-.513-.299s-.031 0-.046.023 0 .046 0 .054l.513.298Zm.184.207c-.046-.03-.046-.084 0-.168.046-.085.099-.123.145-.092l.551.314c.046.023.046.084 0 .168s-.099.122-.145.084l-.544-.314-.007.008Zm.597.23s.03 0 .045-.023v-.054l-.551-.314s-.03 0-.046.023c-.015.023 0 .046 0 .054l.544.314h.008Zm.995.765c-.046-.038-.039-.1.022-.199.069-.1.123-.123.177-.084l.581.42c.054.039.046.1-.023.2s-.13.122-.176.084l-.589-.421h.008Zm.658.321s.038 0 .053-.023v-.053l-.581-.436s-.031 0-.054.023c-.015.023 0 .046 0 .053l.582.436Zm.099.253c-.061-.046-.046-.122.031-.23.076-.107.153-.145.214-.1l.689.521c.061.046.046.123-.031.23-.076.107-.16.145-.214.1l-.689-.521Zm.773.406s.038 0 .061-.023c.023-.039.031-.054 0-.077l-.688-.52s-.039 0-.069.023c-.031.023-.031.053 0 .069l.689.52.007.008Zm-6.482-3.781-.069.183h-.038l.022-.06-.375-.139v.062h-.03l.046-.123.398.153.023-.06.015-.016h.008Zm.62.199-.077.222h-.038l.03-.077-.459-.16-.023.076h-.038l.054-.145.497.176.023-.077.038-.015h-.007Zm1.301.536-.115.252-.046-.023.038-.084-.513-.245-.038.084h-.046l.077-.168.559.268.038-.084h.046Zm3.084 1.637-.199.322-.053-.038.068-.1-.65-.42-.069.106-.054-.038.138-.214.697.436.069-.107.053.038v.015Zm-4.768-1.24s-.038-.053 0-.122.054-.1.084-.084l.398.153s.038.053 0 .122c-.038.07-.053.092-.092.077l-.39-.153v.008Zm.436.085.023-.023v-.039l-.398-.153-.023.023v.039l.398.153Zm.873.436c-.039 0-.046-.069 0-.138.046-.076.069-.107.114-.084l.475.199c.038 0 .046.069 0 .138-.046.076-.069.107-.107.084l-.475-.207-.007.008Zm.505.138s.03 0 .038-.023v-.046l-.474-.2s-.023 0-.039.024v.046l.475.206v-.007Zm.206.137c-.045-.023-.045-.076 0-.16.046-.085.092-.115.131-.085l.528.268c.046.023.046.077 0 .161s-.092.115-.13.084l-.529-.267Zm.574.184s.023 0 .039-.023v-.046l-.528-.268s-.023 0-.039.023c-.015.023 0 .039 0 .046l.528.268Zm1.011.635c-.054-.023-.054-.091 0-.191.053-.1.099-.13.153-.1l.604.307c.054.023.054.084 0 .183-.053.1-.099.13-.153.108l-.604-.307Zm.658.207s.038 0 .046-.03v-.054l-.605-.306s-.03 0-.046.03c-.015.03 0 .046 0 .054l.605.306Zm-7.041-2.725-.023.13h-.023v-.038l-.253-.053v.038-.084l.268.069v-.046h.023v-.016h.008Zm.512.062-.038.168h-.03v-.054l-.345-.076v.053h-.023l.023-.114.375.084v-.054h.046l-.008-.007Zm.506.122-.039.168h-.03v-.053l-.345-.084v.053h-.023l.023-.107.375.084v-.053l.039-.016v.008Zm.535.13-.053.184h-.031v-.061l-.375-.108v.062h-.03l.038-.123.413.123v-.062h.046v-.015h-.008Zm.521.16-.054.185h-.03v-.062l-.375-.122v.053h-.031l.038-.122.406.13v-.061h.046Zm.627.17-.068.229h-.039l.023-.077-.474-.153-.023.077h-.039l.046-.153.506.153.03-.077h.046-.008Zm1.332.466-.107.26h-.046l.038-.084-.528-.222-.03.084h-.046l.076-.168.567.237.038-.084.046-.015h-.008v-.008Zm2.334 1.003-.168.306-.054-.03.054-.1-.62-.36-.053.1-.046-.031.114-.2.666.384.062-.1.045.023v.008Z"/><path fill="#FFB600" d="m148.035 27.942-.207.36-.061-.039.069-.115-.727-.436-.069.115-.054-.039.138-.237.781.475.076-.123.054.039Zm.857.65-.23.306-.053-.038.076-.1-.627-.466-.077.1-.053-.04.153-.206.681.52.076-.107.054.023v.008Zm-5.266-1.607s-.038-.046 0-.107.046-.084.077-.077l.359.13s.039.054 0 .115c-.038.061-.045.084-.084.077l-.359-.138h.007Zm.391.069.03-.023v-.038l-.36-.13s-.023 0-.03.022v.031l.36.138Zm.811.39s-.038-.061 0-.13.069-.1.099-.084l.437.183c.038 0 .045.062 0 .13-.046.07-.062.1-.1.077l-.436-.184v.008Zm.467.115.03-.023v-.038l-.436-.184s-.023 0-.031.023a.058.058 0 0 0 0 .038l.437.184Zm.153.16c-.046 0-.046-.068 0-.152.046-.077.076-.1.122-.085l.482.245c.046 0 .046.07 0 .153-.046.077-.076.108-.114.085l-.49-.245Zm.52.161s.031 0 .038-.023v-.046l-.482-.244s-.03 0-.038.023c-.015.023 0 .038 0 .045l.482.245Zm.169.176c-.046-.023-.046-.076 0-.153.045-.076.084-.107.13-.084l.512.253c.046.023.046.076 0 .153-.045.076-.084.115-.13.092l-.505-.26h-.007Zm.558.169s.023 0 .039-.023v-.046l-.513-.253s-.031 0-.039.023c-.015.023 0 .039 0 .046l.521.253h-.008Zm.965.643c-.054-.039-.054-.107 0-.215.053-.107.13-.137.183-.1l.659.414c.053.038.053.107 0 .215-.054.107-.115.137-.184.107l-.658-.414v-.007Zm.727.298s.038 0 .053-.03c.023-.031.023-.054 0-.07l-.658-.413s-.038 0-.053.031c-.016.03-.023.053 0 .069l.658.413Zm-7.294-2.985v.115h-.023v-.038l-.23-.054v.038-.076l.253.053v-.038Zm.474.054-.038.153h-.023v-.046l-.314-.069v.046h-.023l.023-.1.345.077v-.053h.038l-.008-.008Zm.444.107-.038.153h-.023v-.046l-.314-.069v.046h-.023v-.1l.345.077v-.053h.061l-.008-.008Zm.498.13-.046.168h-.031v-.053l-.344-.1v.054h-.023l.031-.107.375.107v-.054l.045-.015h-.007Zm.482.123-.054.168h-.03v-.054l-.345-.107v.054h-.03l.038-.115.375.115v-.054h.046v-.007Zm.574.145-.061.214h-.039v-.069l-.436-.122v.069h-.038l.038-.138.467.13v-.069l.069-.015Zm1.209.413-.099.238h-.039l.031-.077-.474-.214-.031.076h-.046l.069-.153.52.215.039-.077h.038l-.008-.008Zm2.893 1.332-.168.299-.046-.031.054-.1-.605-.336-.054.1-.053-.024.107-.199.658.367.054-.099.046.03.007-.007Zm-2.434-3.597c-.038-.03-.038-.084 0-.16.039-.077.1-.1.146-.07l.482.337c.038.03.038.084 0 .16-.038.077-.099.108-.145.077l-.49-.337.007-.007Zm.59.245v-.054l-.49-.337h-.046v.046l.482.345h.054Zm.13.237c-.046-.03-.038-.084 0-.168.038-.085.107-.108.153-.077l.52.36c.046.03.039.084 0 .168-.038.077-.107.107-.153.077l-.512-.36h-.008Zm.62.275v-.053l-.521-.36h-.046s-.022.046 0 .054l.513.36h.054Zm.865.85c-.046-.046-.031-.107.046-.191.076-.084.13-.107.183-.07l.544.468c.046.046.03.107-.039.191-.068.084-.137.107-.183.069l-.544-.467h-.007Zm.627.375h.054v-.053l-.551-.467h-.054s-.023.046 0 .06l.551.46Zm.115.299c-.053-.054-.031-.13.054-.23.084-.1.168-.13.222-.077l.635.574c.061.054.038.13-.054.23s-.168.13-.222.077l-.643-.574h.008Zm.735.474h.069s.03-.053 0-.069l-.643-.582s-.038 0-.069.023c-.031.023-.031.054 0 .07l.643.558Zm-1.385-1.569-.23.299-.046-.039.069-.1-.605-.466-.076.1-.046-.039.145-.199.658.505.077-.1.046.04h.008Zm2.433 2.158-.29.307-.054-.046.099-.1-.619-.612-.1.1-.046-.054.199-.2.674.659.099-.1.046.046h-.008Zm.628.789-.314.245-.038-.054.099-.076-.489-.636-.1.077-.046-.054.207-.16.536.688.107-.076.038.053v-.007Z"/><path fill="#FFB600" d="m148.899 27.759-.244.26-.046-.038.076-.085-.551-.49-.076.085-.046-.046.16-.168.582.528.084-.084.061.038Zm.008.329c-.046-.038-.023-.1.046-.169.069-.076.13-.091.168-.053l.475.436c.038.038.023.1-.046.169-.069.076-.13.091-.168.053l-.467-.436h-.008Zm.544.375h.053v-.054l-.467-.436h-.053s-.023.038 0 .054l.467.436Zm.267.321s0-.076.046-.13c.046-.046.107-.046.138 0l.345.436c.03.039 0 .077-.046.13-.046.047-.108.054-.131 0l-.352-.436Zm.414.39h.038s.023-.022 0-.038l-.344-.436h-.046s-.023.03 0 .038l.352.437Zm-5.687-4.117s-.03-.053 0-.107c.031-.054.061-.077.084-.061l.345.183s.03.054 0 .108c-.031.053-.062.076-.092.06l-.345-.183h.008Zm.375.13h.031v-.038l-.345-.184h-.023v.038l.345.184h-.008Zm.107.153s-.03-.061 0-.122c.031-.061.069-.077.107-.061l.383.237s.031.061 0 .122c-.03.054-.076.085-.107.062l-.383-.23v-.008Zm.437.161h.03v-.038l-.383-.23h-.038v.038l.383.238h.008V25.5Zm.099.176s-.031-.069 0-.13c.038-.069.077-.084.115-.061l.405.245s.031.068 0 .13c-.03.069-.076.084-.107.069l-.413-.253Zm.467.184v-.039l-.406-.252h-.038v.038l.406.253h.038Zm.758.581c-.039-.023-.039-.076 0-.153.03-.076.091-.092.13-.069l.436.306s.038.077 0 .146c-.046.076-.092.1-.13.069l-.436-.306v.007Zm.505.238s.023 0 .038-.023v-.046l-.436-.306h-.046v.046l.444.321v.008Zm.099.23c-.046-.04-.038-.108.031-.192.076-.084.13-.115.184-.077l.558.437c.046.038.039.1-.03.19-.069.085-.13.116-.184.078l-.559-.437Zm.635.351s.031 0 .054-.023.023-.046 0-.053l-.559-.436h-.053s-.023.045 0 .053l.558.46Zm-3.482-2.456-.107.214h-.038l.038-.07-.436-.221-.039.069h-.038l.069-.146.475.245.03-.076.038-.015h.008Zm2.258 1.331-.161.23-.038-.023.054-.077-.483-.329-.053.077-.039-.023.108-.16.52.351.054-.076.038.03Zm-2.181 2.159s.023.038 0 .076-.046.054-.069.038l-.253-.16v-.077c0-.038.046-.053.069-.038l.253.16Zm-.268-.115h-.023v.023l.252.153v-.023l-.229-.153Zm1.155.589s.023.046 0 .1c-.03.053-.053.068-.076.053l-.322-.16s-.022-.047 0-.1c.023-.046.054-.069.077-.054l.321.161Zm-.359-.1v.031l.321.16h.031v-.03l-.322-.16h-.03Zm.903.33s.03.046 0 .107c-.038.061-.061.084-.092.069l-.375-.161s-.038-.054 0-.115c.038-.061.054-.084.084-.069l.375.161.008.008Zm-.406-.092h-.03v.03l.375.161h.023v-.038l-.375-.16.007.007Zm.942.321s.038.054 0 .123c-.039.069-.062.084-.092.069l-.398-.169s-.038-.038 0-.122c.03-.062.061-.084.099-.07l.391.17Zm-.437-.107h-.03v.038l.405.169.023-.023v-.038l-.398-.154v.008Zm1.722.528c.046 0 .054.061.031.138-.023.076-.061.107-.107.1l-.513-.161c-.046 0-.053-.061-.031-.138.023-.077.062-.107.108-.1l.512.161Zm-.535-.076s-.023 0-.039.023v.046l.513.16s.023 0 .031-.023v-.046l-.513-.16h.008Zm1.232.283c.046 0 .053.061.03.145-.022.084-.053.123-.107.107l-.528-.153c-.046 0-.053-.06-.03-.145.03-.084.061-.122.107-.107l.528.16v-.007Zm-.559-.077s-.023 0-.038.039v.045l.528.154s.023 0 .038-.031v-.046l-.528-.16Zm1.324.215c.046 0 .061.069.046.16-.015.092-.061.13-.107.123l-.589-.123c-.046 0-.069-.06-.046-.153.023-.092.053-.13.107-.122l.589.115Zm-.597 0s-.03 0-.03.038v.046l.581.13s.023 0 .039-.038v-.046l-.582-.13h-.008Zm2.159.23c.053 0 .076.06.061.168-.016.107-.046.153-.1.153l-.658-.085c-.053 0-.076-.06-.069-.168.016-.107.046-.153.107-.153l.659.084Zm-.674.022s-.031 0-.038.046c0 .03.007.046.023.046l.658.084s.031 0 .031-.046c0-.038 0-.046-.023-.053l-.651-.085v.008Zm-7.47-3.253v-.023l-.153-.122.038-.046v.023l.138.107v-.023l-.053.07.03.014Zm.23.253.023-.03-.207-.161.046-.062-.031.031.199.153.023-.03-.069.099h.016Zm.252.214.023-.03-.214-.161.046-.061-.023.038.191.145.023-.03-.069.1h.023Zm.276.245.031-.038-.238-.184.054-.069-.023.039.214.168.023-.038h.023l-.084.107v.015Zm.321.222.023-.038-.252-.16.046-.077-.023.038.229.153.023-.038-.069.114.016.016.007-.008Zm.36.306.031-.046-.306-.199.061-.091-.031.045.283.184.023-.046h.023l-.084.138v.015Zm.781.475.03-.054-.375-.199.062-.115h.023l-.023.054.344.184.031-.054h.023l-.085.168-.03.016Zm2.166.972.023-.084-.544-.169.054-.16h.046l-.031.076.505.16.023-.076h.046l-.076.253h-.046Zm2.893.75v-.1l-.658-.1.03-.198h.046v.1l.612.091v-.1h.046l-.046.3h-.03v.007Zm1.714-.26c.054 0 .069.053.054.137-.016.085-.046.115-.1.108l-.589-.1c-.046 0-.069-.053-.054-.13.016-.077.046-.115.1-.107l.589.1v-.008Zm-.605-.008s-.022 0-.03.03v.031s0 .008.015.008l.589.1s.023 0 .031-.031v-.038l-.612-.1h.007Zm-5.648-2.702v.077c0 .038-.046.046-.069.038l-.214-.153v-.076s.046-.047.069-.039l.214.153Zm-.245-.114.215.152v-.022l-.215-.13Zm1.011.635s.022.046 0 .084c-.023.046-.054.053-.077.038l-.268-.168s-.023-.046 0-.092.054-.054.077-.038l.268.168v.008Zm-.299-.123h-.023v.023l.268.169v-.023l-.245-.169Zm.735.375a.1.1 0 0 0 0 .1c-.023.053-.054.069-.084.053l-.322-.183s-.023-.046 0-.1c.023-.053.054-.069.084-.053l.314.183h.008Zm-.345-.13h-.023v.03l.322.184h.023v-.03l-.322-.184Zm.819.398s.031.054 0 .107c-.03.054-.061.077-.084.054l-.337-.191s-.03-.039 0-.108c.031-.053.062-.069.085-.053l.336.191Zm-.367-.138h-.031v.039l.337.191h.023v-.03l-.337-.192.008-.008Zm1.462.666s.038.038 0 .123c-.031.069-.061.084-.092.076l-.406-.183s-.038-.039 0-.123c.031-.069.062-.092.1-.076l.405.183h-.007Zm-.437-.115s-.022 0-.03.023a.051.051 0 0 0 0 .039l.406.176h.03v-.039l-.406-.199Zm1.095.375c.038 0 .046.07 0 .146-.046.076-.069.107-.107.092l-.498-.2c-.038 0-.046-.068 0-.137s.069-.107.107-.092l.498.2v-.008Zm-.528-.13s-.023 0-.038.031v.046l.489.199s.023 0 .039-.03v-.047l-.49-.199Zm1.209.39c.038 0 .046.062 0 .139-.046.076-.069.107-.107.099l-.498-.191c-.038 0-.045-.062 0-.138.046-.077.069-.115.108-.1l.497.192Zm-.528-.107s-.031 0-.038.023c-.008.023 0 .039 0 .046l.497.192s.023 0 .031-.023v-.046l-.498-.192h.008Zm1.094.307s.046.046.023.114c-.015.07-.045.1-.076.085l-.413-.108s-.046-.045-.023-.114c.015-.07.046-.1.076-.084l.413.107Zm-.436-.039-.023.023v.039l.414.107s.023 0 .023-.023v-.038l-.414-.108Zm-5.87-3.536-.13-.122.038-.038v.023l.115.107v-.023l-.054.053h.031Zm.222.222-.176-.16.046-.054-.023.023.161.153.023-.023-.077.077.015.015.031-.03Zm.214.245.023-.023-.168-.16.046-.054-.023.023.16.153v-.023l-.068.077.038.015h-.008v-.008Zm.245.23.023-.03-.199-.169.054-.061v.03l.183.161.023-.03-.076.091-.016.016.008-.008Zm.26.214.031-.03-.207-.169.054-.061-.023.03.191.154.023-.03-.076.09.015.016h-.008Zm.299.268.03-.038-.252-.207.061-.076-.031.038.23.191.031-.038-.092.115.015.015h.008Zm.689.52.038-.045-.314-.215.061-.1h.023l-.03.047.291.191.03-.046h.023l-.092.146-.023.015h-.007v.008Zm1.829 1.118.038-.069-.436-.23.069-.137h.038l-.031.069.437.214.03-.069h.031l-.1.207-.068.015h-.008Zm3.283 1.21v-.1l-.696-.146.038-.183h.054v.091l.642.13v-.091h.054l-.054.283h-.038v.015Z"/><path fill="#FFB600" d="M147.315 26.909s0 .045-.023.084c-.023.038-.061.053-.084.038l-.245-.207v-.084s.061-.053.084-.038l.261.206h.007Zm-.275-.161h-.023v.03l.237.2h.023v-.024l-.245-.206h.008Zm1.148.857s.023.053 0 .107c-.023.046-.069.061-.1.038l-.306-.23s-.023-.053 0-.106c.023-.046.069-.062.1-.039l.306.23Zm-.345-.184h-.03v.03l.298.238h.031v-.03l-.299-.238Zm.842.528s.031.062 0 .123c-.038.061-.076.076-.107.053l-.367-.252s-.031-.061 0-.123c.03-.053.076-.076.107-.053l.36.252h.007Zm-.405-.191h-.031v.038l.36.253h.038v-.038l-.367-.253Zm.949.566s.023.07 0 .13c-.031.062-.085.077-.115.054l-.383-.26s-.031-.069 0-.13.084-.084.115-.054l.383.26Zm-.467-.199v.039l.382.26h.039v-.038l-.383-.26h-.038Zm1.729.95c.039.022.039.068 0 .152-.038.077-.084.1-.122.077l-.475-.252c-.038-.023-.038-.07 0-.146.039-.076.085-.1.123-.076l.474.252v-.008Zm-.512-.184h-.039v.046l.467.26s.023 0 .039-.023v-.046l-.467-.23v-.007Z"/><path fill="#FFB600" d="M151.203 29.426c.054.023.054.085 0 .177-.053.091-.092.122-.145.099l-.567-.299c-.045-.022-.053-.084 0-.168.054-.092.1-.13.146-.1l.566.3v-.009Zm-.62-.206s-.03 0-.046.023c-.015.023 0 .046 0 .053l.574.291s.031 0 .046-.023v-.053l-.566-.299-.008.008Zm-5.097-4.034.023-.038-.138-.153.046-.046-.023.023.13.138-.069.061h.031v.015Zm.222.314.031-.03-.192-.215.061-.053-.03.03.176.2.031-.031-.1.084.015.015h.008Zm.245.291.03-.03-.191-.215.061-.053-.03.023.176.199.03-.023-.099.084.015.023h.008v-.008Zm.283.299.038-.039-.229-.23.069-.068-.039.03.215.215.03-.039-.099.1.015.023v.008Zm.291.283.038-.039-.229-.222.053-.084-.03.03.206.2.038-.03-.099.106.023.039Zm.337.352.038-.046-.276-.276.085-.084v.023l-.039.038.261.253.038-.038-.123.13h.016Zm.765.696.046-.053-.36-.284.084-.107.031.023-.038.054.329.26.046-.053.023.022-.13.161-.023-.023h-.008Zm2.082 1.539.046-.077-.528-.33.099-.16.038.023-.046.077.49.298.046-.076.046.023-.145.237-.039-.023-.007.008Zm-3.352-.154v.07c0 .038-.031.053-.054.045l-.222-.107s-.023-.03 0-.069c.023-.038.038-.053.054-.046l.222.107Zm-.245-.068.229.107v-.023l-.229-.084Zm1.048.42s.031.039 0 .077c-.03.046-.038.061-.061.054l-.283-.115s-.031-.038 0-.084c.023-.046.038-.062.061-.046l.275.114h.008Zm-.291-.068h-.023v.023l.276.114v-.023l-.253-.107v-.007Zm.743.252s.038.039 0 .092c-.039.054-.039.077-.069.069l-.322-.115s-.038-.038 0-.092c.039-.053.039-.076.069-.06l.322.106Zm-.345-.053h-.023v.03l.322.107h.023v-.022l-.322-.115Zm1.378.405s.038.046 0 .107c-.038.062-.046.085-.077.07l-.375-.13s-.038-.047 0-.108c.039-.053.046-.084.077-.076l.375.13v.007Zm-.39-.06h-.031v.037l.375.13s.023 0 .023-.022v-.031l-.375-.107.008-.008Zm-3.621-1.738-.137-.085.03-.038v.023l.13.077-.038.061.023-.038h-.008Zm.215.191v-.03l-.192-.123.039-.054v.023l.176.115v-.023l-.054.084h.031v.008Zm.26.146v-.024l-.191-.122.038-.053v.03l.176.107v-.023l-.054.085h.031Zm.268.183v-.038l-.214-.123.038-.069v.031l.199.115v-.03l-.054.099h.039v.015h-.008Zm.275.16v-.037l-.222-.123.039-.069v.038l.199.108v-.039l-.054.1h.038v.023Zm.322.192.023-.038-.268-.153.046-.084v.038l.245.138.023-.038h.023l-.069.122-.023.015Zm.735.368.023-.054-.33-.138.046-.1h.023l-.023.047.306.13v-.046h.023l-.061.153v.015l-.007-.007Zm1.354.574v-.07l-.436-.13.038-.13h.031v.062l.398.122v-.069h.03l-.053.192v.015l-.008.008Zm1.11.382v-.076l-.513-.138.038-.153h.039v.076l.474.13.023-.076h.039l-.069.23h-.039l.008.007Zm.628.1v-.07l-.49-.083.023-.153h.038v.069l.436.076v-.069h.084l-.038.222h-.053v.008Zm-1.631-3.154v.077s-.053.046-.076.023l-.207-.184v-.076s.061-.046.077-.03l.206.19Zm-.237-.153h-.023v.023l.207.192v-.023l-.192-.192h.008Zm.987.796v.085s-.061.053-.084.038l-.26-.214v-.092c0-.046.069-.054.092-.039l.26.222h-.008Zm-.298-.176h-.031v.023l.268.215h.023v-.023l-.26-.215Zm.735.498s.023.053 0 .107c-.039.046-.069.069-.1.046l-.321-.23s-.023-.053 0-.107c.038-.046.069-.069.099-.046l.322.23Zm-.352-.176h-.031v.03l.314.23h.03v-.03l-.313-.23Zm.826.52s.023.054 0 .107c-.03.054-.076.07-.099.046l-.337-.245s-.023-.053 0-.107c.031-.053.077-.069.099-.053l.337.245v.007Zm-.375-.183h-.03v.038l.336.245h.031v-.038l-.337-.245Z"/><path fill="#FFB600" d="M151.012 29.113c.046.023.046.076 0 .153-.046.076-.084.107-.13.076l-.482-.283c-.046-.023-.046-.076 0-.153.046-.076.084-.1.13-.076l.482.283Zm-.528-.2h-.046v.047l.482.283h.046v-.046l-.482-.283Zm-3.896-3.436-.115-.137.046-.039h-.023l.107.13h.023l-.069.054.031-.015v.007Zm.191.284.023-.023-.16-.192.053-.046-.023.023.146.176h.03l-.084.077h.015v-.015Zm.222.267.023-.023-.16-.191.053-.053-.023.022.146.184.03-.023-.084.077v.015h.015v-.008Zm.238.268.03-.03-.191-.2.061-.06-.03.022.183.192.031-.023-.092.084.015.015h-.007Zm.252.26.031-.03-.199-.2.061-.06-.031.023.184.183.031-.023-.092.092.023.015h-.008Zm.283.314.039-.038-.245-.253.076-.076v.023l-.038.038.222.23.038-.039v.023l-.115.108.016-.016h.007Zm.666.636.039-.046-.307-.26.077-.092h.023l-.038.045.29.245.054-.046.023.023-.115.138h-.046v-.008Zm1.807 1.415.045-.069-.436-.298.092-.138h.038l-.046.07.437.275.046-.07h.038l-.13.207-.077.023h-.007Zm-3.965-1.53v.084s-.054.053-.077.038l-.252-.16v-.085s.053-.053.076-.038l.253.16Zm-.268-.13h-.023v.023l.237.168h.023l-.237-.2v.009Zm1.133.711s.023.046 0 .1c-.023.046-.054.069-.084.046l-.299-.2s-.023-.045 0-.099c.023-.046.054-.061.084-.046l.306.192-.007.007Zm-.329-.137h-.023v.03l.298.192h.023v-.031l-.298-.191Zm.826.42s.031.054 0 .108c-.03.053-.061.076-.092.06l-.359-.198s-.031-.054 0-.107c.03-.054.069-.077.099-.061l.352.199Zm-.413-.137v.03l.36.2h.03v-.031l-.359-.2h-.031Zm.941.444s.031.053 0 .122c-.03.061-.068.077-.099.061l-.383-.214s-.03-.053 0-.122c.031-.062.069-.077.1-.062l.382.215Zm-.436-.153-.038.023v.038l.375.214h.031v-.038l-.376-.237h.008Zm1.669.75c.038 0 .046.06 0 .13-.046.069-.069.1-.108.084l-.436-.2s-.038-.06 0-.13c.038-.076.069-.099.107-.083l.437.199Zm-.49-.13-.038.023v.038l.436.199.03-.023v-.038l-.436-.2h.008Zm1.224.413c.046 0 .054.076 0 .16-.053.085-.076.123-.13.1l-.551-.23c-.046 0-.053-.076 0-.16.054-.085.077-.123.13-.1l.551.23Zm-.589-.138s-.031 0-.038.03v.047l.558.23s.023 0 .039-.031v-.046l-.559-.23Zm-5.105-3.36.023-.023-.138-.138.039-.038.13.123v-.023l-.062.069v.03h.008Zm.23.268.03-.023-.199-.184.054-.053-.023.023.176.168.031-.03-.077.084v.015h.008Zm.268.26.03-.03-.191-.184.053-.054-.023.031.184.168.023-.023-.084.085.015.015h-.007v-.008Zm.275.253.031-.039-.23-.19.054-.07v.046l.206.176.023-.03-.084.1v.007Zm.291.237.031-.038-.23-.184.054-.069-.023.038.214.169.023-.038-.084.107.015.015Zm.337.299.038-.046-.283-.23.069-.084v.023l-.031.038.26.214.031-.038-.107.13h.023v-.007Zm.773.589.038-.054-.352-.237.069-.107h.023l-.031.053.322.222.03-.053h.031l-.107.16-.023.016Zm2.059 1.263.038-.077-.521-.26.077-.153.038.023-.038.076.474.238.039-.077.038.023-.115.23-.038-.023h.008Zm2.051.88.038-.092-.612-.222.069-.184h.045l-.03.085.566.206.031-.084h.046l-.1.276-.046.015h-.007Zm.704.168v-.092l-.59-.13.039-.183h.046v.084l.543.122v-.084h.046l-.054.268-.023.015h-.007Z"/><path fill="#FFB600" d="m150.139 29.473.031-.077-.505-.199.061-.153h.038l-.03.07.467.19.03-.076h.039l-.092.23-.039.023v-.008Zm.666.076c.039 0 .046.054 0 .123s-.053.1-.092.076l-.436-.153s-.038-.053 0-.122c.038-.07.054-.1.1-.084l.436.16h-.008Zm-.436-.084s-.023 0-.031.023c-.007.023 0 .03 0 .038l.437.161s.023 0 .03-.023v-.038l-.436-.16Zm1.071.314s.046.038.031.084c-.015.046-.031.069-.069.069l-.375-.084s-.046-.038-.03-.084c.015-.054.03-.07.068-.07l.375.085Zm-.39-.008.375.084.023-.023v-.022l-.398-.07v.031Zm-4.362-2.602v.069s-.046.046-.069.03l-.192-.152v-.07s.046-.045.069-.03l.192.153Zm-.215-.122v.023l.192.153-.192-.176Zm.896.688s-.046.046-.069.031l-.222-.16v-.077s.046-.046.069-.03l.222.16v.076Zm-.245-.19v.022l.222.16v-.022l-.222-.16Zm.605.351v.084c0 .046-.046.054-.077.039l-.26-.169s-.023-.046 0-.084c.023-.046.053-.053.076-.038l.261.168Zm-.291-.107h-.023v.023l.26.168h.023v-.023l-.26-.168Zm.704.352s.023.046 0 .084c-.023.046-.054.061-.077.046l-.283-.184s-.023-.045 0-.084c.023-.046.054-.053.077-.046l.283.184Zm-.329-.13v.023l.283.184v-.023l-.253-.184h-.03Zm1.201.681s.031.046 0 .1c-.023.053-.061.068-.084.053l-.321-.191s-.031-.046 0-.1c.03-.053.061-.069.092-.053l.321.191h-.008Zm-.382-.138v.031l.321.191h.031v-.03l-.322-.192h-.03Zm.979.398c.039 0 .046.062 0 .13-.046.07-.069.1-.107.077l-.436-.214c-.038 0-.038-.061 0-.138.038-.077.069-.1.107-.077l.436.222Zm-.482-.145s-.023 0-.03.023a.051.051 0 0 0 0 .038l.436.215s.023 0 .038-.023v-.039l-.436-.222h-.008v.008Zm-3.896-2.878-.091-.122.038-.03.084.106-.053.046h.022Zm.276.337.023-.023-.138-.145.046-.046h-.023l.13.137-.069.07h.031v.007Zm.184.176.023-.023-.153-.138.038-.046v.023l.138.123h.023l-.054.069h-.015v-.008Zm.199.191v-.023l-.169-.153.046-.053v.023l.153.137v-.023l-.069.077.031.015h.008Zm.199.184.023-.023-.169-.153.046-.054v.023l.153.138v-.023l-.069.077.016.015Zm.245.23.023-.031-.207-.184.053-.06-.023.03.192.168.023-.038-.077.092.016.015v.008Zm.627.512.038-.046-.298-.221.069-.085h.023l-.038.039.267.214.039-.046-.1.13v.015Zm1.508 1.026.031-.054-.375-.221.068-.115h.031l-.031.053.345.2.03-.054h.031l-.099.168-.023.015-.008.008Zm-2.801.765s.03.039 0 .077c-.023.038-.039.053-.062.046l-.252-.123v-.076c0-.038.038-.054.061-.046l.253.115v.007Zm-.268-.046.252.115v-.023l-.252-.122v.03Zm1.156.383s.03.038 0 .084c-.031.046-.039.07-.069.061l-.322-.107s-.023-.03 0-.091c0-.054.038-.07.069-.062l.314.115h.008Zm-.337-.061v.023l.314.115h.023v-.023l-.337-.115Zm.857.206s.046.039.031.108c0 .053-.046.084-.077.076l-.375-.107s-.038-.046-.023-.107.038-.084.077-.077l.367.107Zm-.383-.045-.03.023v.03l.375.107.023-.023v-.03l-.368-.107Zm.926.206s.046.046.023.107c-.023.07-.046.085-.076.077l-.391-.115s-.045-.046-.022-.107c.015-.069.045-.084.076-.076l.39.114Zm-.413-.046s-.023 0-.023.023V30l.39.116.023-.023v-.03l-.39-.116Zm1.676.276c.046 0 .054.053.046.13-.015.076-.046.107-.084.1l-.498-.085c-.045 0-.053-.053-.045-.13.007-.076.038-.107.084-.107l.505.092h-.008Zm-.513 0-.03.03v.039l.497.092s.023 0 .031-.031v-.038l-.505-.085h.007v-.007Zm1.179.1c.046 0 .061.053.046.137-.015.084-.038.123-.084.107l-.498-.076c-.046 0-.061-.054-.046-.13.016-.077.046-.123.092-.115l.49.076Zm-.528 0s-.023 0-.023.03v.046l.52.076s.023 0 .023-.038V30.4l-.52-.077Zm1.263.053c.046 0 .069.053.053.138 0 .091-.03.13-.084.13l-.559-.054c-.045 0-.068-.046-.061-.137 0-.085.039-.13.084-.13l.559.053h.008Zm-.567.053s-.023 0-.03.039c0 .025.007.038.023.038l.559.054s.022 0 .03-.039v-.038l-.574-.053h-.008Zm2.052-.045c.053 0 .076.046.076.153s-.023.153-.076.153h-.628c-.054 0-.077-.046-.077-.153s.023-.153.077-.153h.628Zm-.628.107s-.031 0-.031.046 0 .046.031.046h.628s.023 0 .023-.046c0-.03 0-.046-.023-.046h-.628Zm-7.378-2.12v-.023l-.161-.084.031-.046v.023l.145.084v-.023l-.038.069h.023Zm.26.199v-.03l-.222-.131.039-.061v.03l.199.115v-.03l-.054.1h.038v.007Zm.26.168v-.03l-.214-.13.038-.07v.031l.199.115v-.03l-.053.099.038.015h-.008Zm.284.2v-.04l-.245-.137.046-.076v.038l.222.13.023-.038-.062.107.016.015Zm.329.175v-.038l-.253-.123.038-.076v.038l.23.107v-.038l-.054.115.031.015h.008Zm.367.214v-.046l-.306-.145.046-.1h.023l-.023.046.291.138v-.046h.03l-.069.138.016.015h-.008Zm.788.375.023-.053-.375-.138.046-.115h.023v.054l.345.13v-.054h.023l-.062.169-.023.015v-.008Zm2.143.643v-.084l-.535-.084.046-.184h.038v.077l.49.084v-.076h.038l-.038.244-.039.023Zm2.786.345v-.1h-.627V30.4h.046v.092h.581v-.092h.046v.283h-.046v.008Zm-4.73 5.564s-.03 0-.069-.023c-.03-.023-.03-.054 0-.069l.184-.168s.038 0 .061.023.039.053 0 .069l-.183.168h.007Zm.161-.2v-.022l-.184.168.184-.153v.008Zm.452-.32s-.046 0-.077-.031c-.023-.03-.038-.07 0-.084l.245-.184s.046 0 .077.03c.03.031.03.07 0 .085l-.238.183h-.007Zm.206-.223v-.023h-.023l-.237.184v.023h.023l.237-.184Zm.153-.038s-.053 0-.084-.046c-.03-.046-.03-.076 0-.1l.291-.19s.054 0 .084.045c.031.046.038.077 0 .092l-.291.2Zm.253-.245v-.023h-.023l-.291.192v.03h.023l.291-.199Zm.145-.03s-.053 0-.084-.046c-.03-.046-.038-.084 0-.1l.306-.206s.054 0 .085.046c.038.045.038.084 0 .099l-.307.207Zm.268-.253v-.03h-.023l-.306.214v.03h.031l.306-.214h-.008Zm.651-.29s-.069 0-.107-.062c-.039-.061-.031-.107 0-.122l.405-.222s.069 0 .1.069c.03.068.038.099 0 .122l-.398.214Zm.367-.284v-.038h-.03l-.406.222v.038s.023.023.038.023l.398-.245Zm.169.023c-.039 0-.077 0-.108-.076-.03-.077-.03-.108 0-.13l.414-.215s.069 0 .107.069c.038.069.03.107 0 .13l-.413.214v.008Zm.382-.276v-.038s0-.023-.038 0l-.436.215v.038s.023.023.03.023l.437-.238h.007Zm.184-.007c-.038 0-.077 0-.107-.084-.039-.084-.031-.123 0-.138l.436-.2c.046 0 .077 0 .107.085.031.084.031.123 0 .138l-.436.199Zm.436-.276v-.046s0-.03-.038 0l-.459.2v.038s0 .03.03.023l.467-.222v.007Zm.758-.168c-.046 0-.084-.023-.107-.107-.031-.092 0-.13.03-.153l.536-.169c.046 0 .084.023.107.108.023.084 0 .137-.023.153l-.535.168h-.008Zm.505-.26v-.046s0-.038-.031-.03l-.551.183v.046c0 .046 0 .038.039.03l.543-.183Zm-6.268 4.064.053.046h-.023l-.099.114-.038-.03.107-.123v-.007Zm.183-.276.077.07h-.023l-.138.152.023.023-.053-.046.153-.168-.023-.023h-.016v-.008Zm.169-.214.084.046h-.023l-.138.153.023.023-.046-.046.146-.168h-.031l-.023-.016.008.008Zm.191-.253.084.077-.023-.023-.153.168.023.023-.053-.053.168-.184-.031-.023-.015.015Zm.237-.23.1.093v-.023l-.168.16.03.023-.053-.053.183-.176-.023-.023h-.069Zm.261-.298.099.1-.031-.038-.214.199.031.03-.061-.069.222-.214-.031-.03-.015.015v.007Zm.574-.536.107.13-.031-.045-.26.214.038.038h-.023l-.069-.084.284-.23-.039-.038v.015h-.007Zm1.668-1.155.107.199h-.038l-.031-.069-.398.214.031.07h-.031l-.068-.131.436-.23-.039-.068.023.015h.008Zm2.304-1.072.084.245h-.038l-.023-.076-.498.168.031.077h-.046l-.054-.161.536-.184-.03-.084.038.015Zm.735-.956c-.046 0-.062-.039-.054-.108 0-.068.031-.099.077-.099l.505.046c.046 0 .061.038.053.107 0 .069-.03.1-.076.1l-.505-.046Zm.512-.023s.023 0 .023-.03v-.031l-.505-.046s-.023 0-.023.023v.038l.505.046Zm-5.931 1.056s-.038 0-.046-.046c-.015-.046 0-.054 0-.061l.207-.084s.038 0 .045.045c.016.046 0 .054 0 .07l-.206.076Zm.689-.268s-.039 0-.054-.054c-.015-.053 0-.06 0-.068l.26-.085s.039.016.054.054v.069l-.26.084Zm.245-.13v-.023l-.261.084.261-.069v.008Zm.13.008s-.046 0-.054-.062c-.008-.06 0-.076 0-.076l.306-.084s.046 0 .054.06c.015.062 0 .077-.023.085l-.283.077Zm.283-.13v-.023l-.306.076v.023l.306-.077Zm.145.007s-.046 0-.061-.069 0-.076.023-.084l.314-.084s.046 0 .061.069 0 .076 0 .084l-.337.084Zm.299-.138v-.046l-.314.085v.023h.023l.291-.07v.008Zm.65-.084s-.053-.023-.061-.076c-.008-.054 0-.092.031-.1l.375-.061s.053.023.061.076c.008.054 0 .092-.031.1l-.375.061Zm.36-.145s0-.023-.023-.023l-.367.061v.03s0 .024.023.024l.367-.062v-.03Zm.161.084c-.038 0-.061-.03-.069-.1 0-.069 0-.107.046-.114l.436-.062c.038 0 .061.023.069.1 0 .069 0 .107-.046.122l-.436.062v-.008Zm.436-.146v-.068l-.436.06v.04s0 .03.023.03l.413-.062Zm.184.062c-.039 0-.062-.03-.069-.1 0-.069 0-.107.046-.115l.436-.045s.061.023.069.099c0 .069 0 .107-.046.115l-.436.053v-.007Zm.436-.169s0-.03-.023-.023l-.436.046v.039s0 .03.023.03l.436-.053v-.039Zm.153.077s-.046-.03-.046-.092c0-.061 0-.084.046-.084h.36s.046.03.046.084c0 .054 0 .092-.046.092h-.36Zm.36-.061v-.054h-.36v.054h.36Zm-5.924 1.637.038.054-.115.069v-.038l.13-.07v-.022h-.053v.008Zm.222-.168.046.077v-.023l-.161.092v.023l-.031-.054.176-.1v-.023h-.03v.008Zm.237-.115.046.084-.161.085v.023l-.03-.054.176-.1v-.022l-.031-.023v.007Zm.253-.137.046.091v-.03l-.192.084v.03l-.03-.06.199-.1v-.03h-.031v.015h.008Zm.26-.123.038.092v-.03l-.191.084v.023l-.023-.062.199-.092v-.03h-.031v.015h.008Zm.306-.153.054.115v-.038l-.23.107v.038l-.038-.076.252-.123v-.038h-.038v.015Zm.674-.283.045.138v-.046l-.283.1v.045h-.023l-.03-.092.298-.107v-.046l-.015.016.008-.008Zm1.752-.536.038.191h-.03v-.06l-.39.083v.062h-.039l-.023-.13.437-.092v-.07.016h.007Zm2.97-.275v.244h-.046v-.076l-.559-.023v.077h-.046v-.161l.605.03v-.076h.046v-.015Zm-5.029 4.775s-.045-.053-.03-.076l.191-.207s.038 0 .077.023c.038.023.046.054.03.077l-.183.183h-.085Zm.222-.245h-.023l-.183.207h.023l.183-.206Zm.475-.436s-.054 0-.084-.023c-.031-.023-.046-.069-.023-.084l.229-.237h.085s.045.069.023.084l-.23.26Zm.191-.283v-.023h-.023l-.229.245v.023h.023l.229-.245Zm.146-.061s-.054 0-.1-.038c-.046-.039-.046-.077-.023-.1l.283-.252s.062 0 .1.03c.038.03.046.084.023.107l-.283.253Zm.245-.306v-.03h-.031l-.283.26v.03h.03l.284-.26Zm.168-.061s-.061 0-.107-.039c-.046-.038-.054-.084-.023-.107l.306-.276s.061 0 .107.039c.046.038.046.084.023.107l-.306.276Zm.26-.322v-.038h-.03l-.307.275v.03h.039l.298-.267Zm-2.671 2.893.092.061-.031-.023-.13.192h.031l-.069-.046.138-.207-.031-.023v.046Zm.191-.283.1.061-.031-.023-.13.191h.031l-.061-.038.137-.214h-.03l-.016.015V38Zm.207-.291.1.077-.031-.023-.161.206.038.023-.068-.046.168-.222-.038-.023-.016.023v-.015h.008Zm.222-.283.1.076h-.031l-.161.2.038.022-.068-.053.176-.222-.039-.023h-.015Zm.245-.344.122.099v.023l-.038-.03-.191.252.038.03-.076-.06.206-.276-.046-.03h-.015v-.008Zm.589-.705.13.13h-.023l-.046-.038-.252.268.046.038-.023.023-.084-.084.275-.29-.046-.047h.023Zm1.63-1.576.161.191-.03.023-.046-.061-.383.314.054.06-.039.024-.099-.123.413-.344-.054-.069.031-.023-.008.008Zm.184.122s-.061 0-.099-.053c-.039-.054-.039-.085 0-.108l.336-.206s.062 0 .092.053c.039.054.039.092 0 .108l-.337.198h.008v.008Zm.306-.252v-.031h-.03l-.337.199v.038s.023.023.031 0l.336-.206Zm.153-.008s-.053 0-.084-.046c-.03-.046-.03-.077 0-.092l.299-.176s.053 0 .084.046c.03.046.03.077 0 .092l-.299.184v-.008Zm.268-.237v-.023h-.023l-.298.176v.03h.023l.298-.183Zm.299.451s-.069 0-.115-.046-.054-.091-.023-.114l.337-.291s.069 0 .107.046c.046.046.053.091.03.114l-.329.291h-.007Zm.283-.344v-.038h-.038l-.337.283v.038h.038l.329-.283h.008Zm-.436-2.58c-.039 0-.054-.045-.046-.13.015-.084.03-.122.076-.114l.475.069c.038 0 .053.046.046.13-.016.084-.039.122-.077.115l-.474-.07Zm.489-.022s.023 0 .023-.031v-.038l-.474-.062s-.023 0-.023.031v.046l.474.054Z"/><path fill="#FFB600" d="M150.981 32.19c-.046 0-.069-.054-.046-.154.016-.091.046-.13.1-.122l.574.107c.053 0 .069.054.053.153-.015.092-.053.138-.099.123l-.574-.108h-.008Zm.597 0s.023 0 .031-.039v-.046l-.574-.107s-.023 0-.031.038v.046l.574.107Zm.23.153c-.054 0-.069-.077-.046-.184.023-.107.069-.146.13-.13l.651.16c.053 0 .069.07.046.176-.023.108-.069.154-.123.138l-.65-.16h-.008Zm.681.053s.031 0 .038-.038v-.054l-.65-.16s-.031 0-.039.038v.053l.651.161Zm-5.801-.796v.2h-.039v-.047h-.405v.069h-.031v-.13h.436v-.069l.031-.015.008-.008Zm.574 0v.2-.047h-.437v.061-.13h.437V31.6Zm.643.237h-.039v-.084l-.436-.023v.07h-.038v-.146l.482.023V31.6h.031v.237Zm.62-.183v.222h-.039v-.07l-.436-.038v.07h-.038v-.146l.482.038v-.076h.031Zm.734.023v.275h-.046v-.084l-.551-.03v.084h-.046v-.184l.597.038v-.092h.046v-.007Zm1.585.168-.054.314h-.054v-.1l-.635-.107v.1h-.053l.03-.207.689.115v-.107h.077v-.008Zm-1.899-.283c-.053 0-.068-.054-.061-.16 0-.1.038-.146.092-.139l.589.062c.046 0 .069.053.062.16-.008.107-.046.153-.092.146l-.59-.07Zm.597-.038s.031 0 .031-.046v-.046l-.589-.061s-.031 0-.031.045v.046l.582.062h.007Zm1.34.267c-.061 0-.084-.069-.069-.183.015-.115.053-.161.115-.153l.711.107c.062 0 .085.061.069.183 0 .115-.053.169-.114.154l-.705-.108h-.007Zm.719 0s.031 0 .038-.046c0-.038 0-.053-.022-.053l-.712-.107s-.031 0-.039.046c0 .046 0 .053.023.053l.705.107h.007Zm.291.177c-.069 0-.084-.085-.061-.215.023-.13.076-.183.145-.168l.804.168c.069 0 .092.084.069.215-.023.13-.077.183-.146.168l-.803-.176-.008.008Zm.834.045s.039 0 .046-.045v-.062l-.803-.176s-.039 0-.046.046c-.008.046 0 .061 0 .069l.803.168Zm-7.11-.78v.245h-.046V31.4h-.49v.077-.161h.528v-.084h.016-.008Zm.727-.016v.245h-.038v-.076h-.49v.076h-.038v-.16h.536v-.085h.038-.008Zm.758.26h-.046v-.084h-.551v.085h-.046v-.184h.589v-.092h.054v.276Zm.758-.237v.268h-.046v-.084l-.544-.03v.084h-.046v-.176l.59.03v-.092h.046Zm.903 0v.33h-.061v-.108l-.674-.023v.108h-.054v-.222l.728.023v-.108h.061Zm1.944.153-.054.39h-.069v-.13l-.78-.106v.122h-.069l.038-.253.842.123v-.13h.084v-.016h.008Zm-4.906-.62s-.054-.038-.054-.107.016-.107.054-.107h.413s.054.038.054.107c0 .07-.016.107-.054.107h-.413Zm.413-.068v-.07h-.413v.062h.413v.008Zm.949.084c-.046 0-.069-.046-.061-.123 0-.076.023-.122.069-.114h.497c.046 0 .062.046.062.122s-.023.123-.069.115h-.498Zm.498-.061s.023 0 .023-.031v-.038l-.498-.023s-.023 0-.023.03c0 .031 0 .039.023.039l.475.015v.008Zm.214.107c-.046 0-.069-.054-.054-.146.016-.091.039-.13.085-.13l.566.07c.046 0 .069.053.054.144 0 .092-.039.13-.092.13l-.567-.068h.008Zm.582-.03s.023 0 .03-.04v-.045l-.566-.061s-.031 0-.031.038v.046l.567.061Zm-4.983.145h-.023v-.054l-.337.046v.053h-.03v-.114l.367-.046v-.054h.023v.169Zm.498-.23.023.168h-.023v-.053l-.337.046v.053h-.031v-.107l.368-.054v-.053Zm.528.13h-.039v-.061l-.375.03v.054h-.038v-.13l.413-.03v-.062h.039v.199Zm.528-.038h-.031v-.062l-.382.023v.054h-.031v-.122l.413-.023v-.07h.031v.2Zm.627-.253v.23h-.038v-.07l-.467.031v.077h-.038v-.153l.505-.038v-.077h.046-.008Zm1.355-.03v.268h-.046v-.092h-.551v.092h-.046v-.184h.597v-.084h.046Zm2.304.076c.038 0 .053.046.046.13 0 .077-.039.123-.077.115l-.467-.053c-.038 0-.053-.047-.046-.13.016-.077.039-.123.077-.115l.467.053Zm-.475.023-.023.038v.039l.467.053.023-.038v-.038l-.467-.054Zm2.113.138c.053 0 .069.046.069.138 0 .091-.039.13-.085.13l-.566-.038c-.046 0-.069-.054-.061-.138 0-.085.038-.138.084-.13l.566.045-.007-.007Zm-.574.038s-.023 0-.023.038v.046l.566.046s.023 0 .031-.038c0-.023 0-.046-.023-.046l-.551-.046Zm1.477-.023c.053 0 .084.054.084.16 0 .108-.031.154-.084.154h-.651c-.053 0-.084-.054-.076-.16 0-.108.03-.154.084-.154h.65-.007Zm-.651.084s-.023 0-.023.046 0 .046.023.046h.651s.03 0 .03-.046c0-.03 0-.046-.03-.046h-.651Zm-5.028-.665v-.062l-.406-.107.031-.122h.03v.06l.375.1v-.053h.039l-.046.184h-.023Zm.559.145v-.069l-.406-.107.031-.123h.03v.054l.375.1v-.062h.038l-.053.192h-.015v.015Zm.581.145v-.069l-.467-.091.031-.138h.038v.069l.437.084v-.069h.038l-.046.214h-.031Z"/><path fill="#FFB600" d="M147.905 30.605v-.077l-.467-.076.023-.138h.038v.069l.436.076v-.069h.038l-.038.215h-.038.008Zm.696.16v-.084l-.566-.114.03-.169h.046v.084l.521.107v-.084h.046l-.054.26h-.023Zm1.523.23v-.107l-.673-.061.022-.2h.046v.1l.628.054v-.1h.046l-.023.306h-.046v.008Z"/><path fill="#FFB600" d="M149.688 31.172c-.046 0-.061-.046-.054-.13 0-.085.039-.13.077-.123l.497.054c.046 0 .061.046.054.137 0 .085-.038.123-.077.123l-.497-.054v-.007Zm.505-.046s.023 0 .023-.038v-.046l-.498-.054s-.023 0-.023.038v.039l.498.053v.008Zm1.14.245c-.053 0-.069-.061-.053-.161.015-.1.046-.138.099-.13l.597.092c.054 0 .069.061.054.16-.016.1-.046.138-.1.13l-.597-.091Zm.62 0s.031 0 .031-.038v-.046l-.597-.092s-.031 0-.031.038 0 .046.023.046l.582.092h-.008Zm.245.145c-.061 0-.076-.061-.053-.183.023-.108.061-.154.122-.138l.681.153c.061 0 .077.069.054.184-.023.107-.061.16-.123.145l-.681-.153v-.008Zm.704.03s.031 0 .039-.045v-.054l-.705-.137s-.03 0-.038.038v.053l.697.138.007.008Zm-6.031-.65v.207h-.046v-.069h-.413v.069h-.023v-.138h.436v-.069h.046Zm.613-.023v.207h-.031v-.069h-.436v.069h-.031v-.138h.436v-.069h.069-.007Zm.658.23h-.038v-.077h-.467v.07h-.039v-.154h.498v-.076h.046v.237Zm.627-.207v.23h-.038v-.077h-.467v.077h-.038v-.153l.505.023v-.077l.038-.023Zm.766 0v.283h-.046v-.091h-.567v.084h-.045v-.184h.619v-.092h.039Zm1.668.13-.046.33h-.053v-.1l-.658-.092v.107h-.054l.031-.214.719.1v-.108h.069v-.023h-.008Zm-1.01 2.985.138.16-.023.024-.046-.054-.329.276.046.053-.023.023-.092-.107.352-.306-.046-.053.031-.023h-.008v.007Zm-.635.107.069.123-.023-.038-.245.137.023.039-.046-.077.26-.16v-.039h-.038v.015Zm-.414-.444.039.138v-.038l-.268.076v.046l-.023-.084.291-.084v-.046h-.039v-.008Zm-2.717 1.6s-.038 0-.061-.038-.023-.054 0-.07l.207-.13s.038 0 .061.039c.023.038.023.054 0 .069l-.214.13h.007Zm.184-.168v-.023l-.207.138.207-.115Zm.505-.276s-.046 0-.069-.038c-.023-.038 0-.069 0-.084l.261-.153s.045 0 .068.045c.023.047.023.07 0 .077l-.26.153Zm.237-.191h-.022l-.261.153v.023h.023l.26-.176Zm.146-.023s-.054 0-.077-.054c-.023-.053-.023-.076 0-.092l.307-.153s.053 0 .076.054c.023.053.023.084 0 .1l-.306.153v-.008Zm.283-.215v-.03h-.023l-.314.153v.023h.023l.314-.153v.008Zm.161-.007s-.054 0-.084-.054c-.023-.053-.023-.084 0-.1l.329-.16s.053 0 .076.054c.023.053.023.084 0 .1l-.321.16Zm.298-.222v-.03h-.023l-.329.16v.03h.023l.329-.16Zm-2.985 1.852.062.077-.023-.023-.153.13v.023l-.039-.054.169-.138-.023-.023.007.008Zm.23-.191.069.076-.023-.023-.161.138v.023l-.046-.053.169-.146-.023-.023v.015h.015v-.007Zm.245-.2.069.085-.023-.03-.176.137.023.023-.046-.053.199-.154-.023-.03-.023.015v.008Zm.253-.19.068.084v-.031l-.183.138v.023l-.046-.061.199-.146v-.03l-.038.015v.007Zm.298-.238.084.107-.023-.038-.229.168.023.039-.054-.077.245-.184-.023-.038-.023.023Zm.674-.46.084.139h-.023l-.031-.046-.283.168.023.046-.054-.092.306-.183-.022-.046v.015Zm1.783-.971.084.199h-.038l-.031-.061-.406.176.023.069h-.038l-.053-.138.436-.191-.031-.07.038.016h.016Zm-1.386.635s-.038 0-.061-.046 0-.069 0-.076l.245-.115s.046 0 .061.046c.016.046 0 .069 0 .076l-.237.123h-.008v-.008Zm.222-.168-.244.115v.023l.244-.138Z"/><path fill="#FFB600" d="M148.165 34.034s-.046 0-.061-.054c-.016-.054 0-.076 0-.084l.298-.13s.046 0 .069.053c.023.054 0 .077 0 .092l-.306.13v-.007Zm.283-.192v-.023l-.306.123v.023l.306-.123Zm.153.008s-.061-.023-.076-.069v-.1l.352-.122s.053 0 .076.069 0 .092 0 .1l-.352.122Zm.329-.184v-.03s0-.023-.023 0l-.352.122v.03s0 .024.023 0l.352-.122Zm.176.008s-.061 0-.076-.077c-.016-.076 0-.1 0-.107l.375-.13s.061 0 .076.069c.016.069 0 .1 0 .107l-.375.13v.008Zm.352-.191v-.031s0-.023-.023-.023l-.375.13v.038h.023l.375-.114Zm.773-.176c-.038 0-.069 0-.084-.085-.015-.084 0-.107.031-.122l.436-.107c.038 0 .069.023.084.091.015.07 0 .115-.03.123l-.437.107v-.008Zm.437-.253-.437.107v.038s0 .031.031.031l.406-.107v-.07Zm.145.13c-.046 0-.077-.023-.1-.107-.015-.084 0-.13.039-.145l.535-.115c.046 0 .077.023.1.107.023.084 0 .13-.046.145l-.528.115Zm.513-.199v-.046s0-.038-.031-.038l-.528.122s-.023 0 0 .039c.023.038 0 .038.031.038l.528-.115Zm-5.587 2.304.046.069-.138.084v.023l-.031-.046.146-.1-.023-.038v.008Zm.252-.207.061.092v-.023l-.191.122v.023l-.038-.06.199-.139v-.03l-.038.015h.007Zm.276-.184.061.092v-.023l-.191.123v.023l-.039-.062.199-.137v-.03l-.038.014h.008Zm.291-.183.061.107-.023-.03-.214.122v.038l-.039-.069.23-.138v-.038h-.015v.008Zm.298-.169.061.108h-.023v-.039l-.222.123v.038l-.03-.069.237-.13-.023-.038v.015-.008Zm.352-.222.077.13h-.023l-.023-.038-.268.153.023.039-.054-.085.291-.16-.023-.046v.015-.008Zm.796-.405.069.16h-.023l-.023-.053-.329.145.023.054h-.031l-.046-.107.352-.16v-.054.015h.008Zm2.044-.811.068.23h-.038l-.023-.077-.467.137.023.077h-.038l-.046-.153.505-.153-.023-.077h.039v.016Zm-2.595-.475s-.031 0-.038-.046v-.054l.206-.038s.031 0 .031.046v.054l-.207.038h.008Zm.689-.145s-.038 0-.046-.054 0-.061.023-.061l.252-.038s.039.015.039.053c0 .046 0 .061-.023.069l-.253.038.008-.007Zm.245-.085v-.023l-.253.039v.015l.253-.038v.007Zm.122.016s-.038 0-.046-.07c0-.045.01-.07.031-.076l.291-.023s.038.023.046.07c0 .045 0 .068-.031.068l-.291.023v.008Zm.291-.061v-.023l-.291.023v.022l.291-.023Zm.589-.008s-.046-.023-.046-.077c0-.053 0-.076.039-.076l.329-.023s.046.023.046.076c0 .054 0 .084-.039.084l-.336.023h.007v-.007Zm.329-.092v-.046l-.329.023v.023h.329Zm-3.673.681.023.061v-.023l-.123.039v.023V33l.13-.038v-.023h-.03Zm.237-.1.031.077v-.023l-.169.054v.023-.054l.184-.061v-.023h-.046v.008Zm.245-.084.031.085v-.023l-.169.053v.023-.053l.176-.054v-.03h-.046.008Zm.26-.084.023.092v-.03l-.191.053v.03-.06l.206-.054v-.03h-.038Zm.26-.038.023.092v-.03l-.191.045v.03-.06l.207-.046v-.039h-.046l.007.008Zm.307-.115.03.115v-.038l-.229.061v.038-.076l.252-.07v-.038h-.053v.008Zm.681-.153.023.138h-.023v-.046l-.276.046v.046h-.023v-.092l.299-.046v-.046Zm1.247-.176v.176h-.03v-.053h-.352v.053h-.031v-.115h.375v-.053h.038v-.008Zm1.003.13h-.038v-.069h-.437v.07h-.03v-.13h.436v-.07l.069-.015v.214Zm.528-.13v.191h-.046v-.06l-.39-.031v.06h-.046v-.13l.436.039v-.069h.046Zm-3.658.176s-.031 0-.031-.046v-.046l.184-.03s.023 0 .03.038v.046l-.176.038h-.007Zm.581-.107s-.03 0-.038-.046c0-.046 0-.054.023-.054l.214-.03s.031 0 .031.046 0 .053-.023.053l-.214.031h.007Zm.314-.069s-.031 0-.031-.053c0-.054 0-.054.023-.062h.253s.038 0 .038.054c0 .053 0 .061-.03.061h-.253Zm.253-.069-.253.023h.253v-.023Zm.497.023s-.038 0-.038-.069 0-.069.03-.069h.284s.038 0 .045.07c0 .045-.012.068-.038.068h-.283Zm.283-.069v-.023l-.283.023h.283Zm-3.13.559v.046l-.107.038v-.03l.115-.039v-.015h-.008Zm.199-.077.023.07-.138.045v.023-.046l.161-.046v-.023l-.046-.023Zm.207-.068.023.069v-.024l-.138.046.153-.053v-.023l-.038-.023v.008Zm.229.007v-.023l-.161.038v.023-.053l.176-.046v-.023h-.015v.084Zm.237-.061v-.023l-.16.038v.023-.053l.176-.046v-.023h-.016v.084Zm.245-.153.031.1v-.031l-.199.046v.038-.069l.214-.053v-.031h-.046Zm.582-.123v.123-.038l-.237.038v.038h-.023v-.076l.26-.039v-.046Zm1.056-.16v.153h-.03v-.046h-.299v.046h-.023v-.1h.322v-.053h.03Zm.857-.062v.176h-.03v-.053h-.352v.053h-.031v-.122h.383v-.053h.03Zm.444.046v.161h-.023v-.053l-.329-.031v.053h-.03v-.107l.352.031v-.054h.03Zm-1.844 2.488s-.038 0-.054-.038c-.015-.039 0-.062 0-.07l.207-.107s.038 0 .061.039c.015.038 0 .061 0 .069l-.214.107Zm.704-.36s-.046 0-.061-.046c-.016-.046 0-.069 0-.076l.26-.123s.046 0 .061.046 0 .069 0 .077l-.26.122Zm.245-.168v-.023l-.26.122h.023l.244-.1h-.007Zm.138.007s-.046 0-.069-.053c-.023-.054 0-.077 0-.092l.306-.123s.053 0 .069.054c.015.054 0 .077 0 .092l-.306.122Zm.29-.168v-.023l-.313.122v.023l.313-.122Zm.146-.015s-.054 0-.077-.061c-.023-.062 0-.085 0-.1l.329-.13s.054 0 .069.061c.016.061 0 .084 0 .1l-.321.13Zm.306-.184v-.023s0-.023-.023-.023l-.329.13v.023s0 .023.023 0l.329-.107Z"/><path fill="#FFB600" d="M150.683 33.406c-.038 0-.069 0-.084-.1-.016-.099 0-.114.023-.122l.459-.13c.038 0 .069.03.092.092 0 .077 0 .123-.031.13l-.459.13Zm.436-.206v-.039s0-.03-.031-.023l-.459.13v.039s0 .03.023.023l.459-.13h.008Zm-4.362 2.097.045.053v-.023l-.122.085-.023-.039.13-.091h-.03v.015Zm.221-.191.054.076v-.023l-.199.115.176-.123v-.023l-.023-.015h-.008v-.008Zm.238-.169.053.077v-.023l-.16.114v.023l-.039-.053.176-.123v-.023h-.03v.008Zm.252-.176.054.092-.023-.023-.184.122v.023l-.038-.053.199-.13v-.03h-.015.007Zm.261-.16.053.091v-.03l-.191.114v.031l-.039-.061.207-.123v-.03h-.03v.007Zm.306-.207.069.114-.023-.038-.23.146.023.038-.046-.077.253-.153v-.038l-.039.015-.007-.007Zm.681-.375.069.137h-.031v-.045l-.283.137.023.046h-.023l-.046-.092.314-.153v-.046l-.023.016Zm1.798-.773.069.199h-.038l-.023-.07-.406.139v.06h-.03l-.046-.13.436-.152v-.07l.031.016.007.008Zm-3.505 4.34h-.069s-.046-.054-.03-.07l.16-.206h.069s.046.053.031.076l-.161.2Zm.13-.238h-.023l-.16.207h.022l.161-.207Zm.406-.444h-.077s-.046-.069-.03-.084l.206-.245h.077s.046.069.03.084l-.206.245Zm.168-.276v-.022h-.03l-.207.244v.023h.023l.207-.244h.007Zm.13-.068s-.053 0-.092-.031c-.038-.03-.045-.077-.022-.1l.252-.26s.054 0 .092.023.046.077.023.1l-.253.26v.008Zm.215-.322h-.031l-.253.26v.031h.031l.253-.26v-.03Zm.145-.053s-.054 0-.099-.031c-.039-.03-.054-.077-.031-.107l.268-.276s.053 0 .099.03c.046.032.046.078.031.108l-.268.276Zm.222-.33v-.03h-.031l-.267.275v.031h.03l.268-.276Zm.589-.49s-.076 0-.13-.053c-.053-.053-.053-.115-.023-.138l.391-.336s.076 0 .13.053c.046.054.061.115.023.138l-.398.337h.007Zm.345-.405v-.046h-.039l-.39.337v.046h.038l.398-.337h-.007Zm-3.406 4.11.061.038-.076.138h.023l-.046-.023.084-.153h-.054.008Zm.145-.283.085.053h-.031l-.107.192h.023l-.054-.038.123-.207h-.039Zm.169-.291.084.054h-.031l-.107.19h.023l-.053-.037.114-.207h-.038.008Zm.176-.299.099.07h-.03l-.138.206h.03l-.061-.046.146-.222h-.046v-.008Zm.183-.29.092.076h-.03l-.138.2h.03l-.061-.047.153-.222h-.046v-.007Zm.222-.33.115.085-.038-.023-.168.252.038.023v.023l-.077-.053.184-.276-.038-.023h-.016v-.007Zm.513-.704.123.123v.023l-.039-.038-.222.275.039.038-.085-.076.245-.299-.046-.038h-.015v-.008Zm1.439-1.6.145.177-.023.023-.045-.054-.345.322.046.053-.023.03-.099-.114.367-.352-.046-.053.031-.031h-.008Zm-2.135-1.515s-.031 0-.054-.046c-.015-.045 0-.06 0-.068l.23-.085s.038 0 .053.046c.016.046 0 .062 0 .07l-.229.083Zm.78-.29s-.046 0-.061-.054c-.015-.053 0-.069 0-.077l.291-.099s.046 0 .061.054c.015.053 0 .069 0 .076l-.291.1Zm.414-.13s-.054 0-.069-.07c-.016-.068 0-.084 0-.091l.344-.1s.054.023.069.07c0 .053 0 .083-.023.091l-.321.107v-.008Zm.321-.154v-.03l-.337.084v.023s0 .023.023 0l.314-.084v.007Zm.161.016s-.054 0-.069-.077c-.015-.076 0-.092.023-.1l.352-.099s.054 0 .069.077c.015.076 0 .084-.023.1l-.36.099h.008Zm.344-.161v-.046l-.359.092v.03l.359-.076Zm.735-.092c-.038 0-.061 0-.077-.092-.015-.091 0-.1.039-.107l.413-.069c.038 0 .061.023.069.092.008.069 0 .1-.038.107l-.414.07h.008Zm.406-.138v-.038s0-.023-.023-.023l-.414.07v.053l.437-.07v.008Zm.176.062c-.046 0-.069-.031-.085-.115-.015-.084 0-.123.046-.13l.505-.07c.046 0 .069.031.085.108.015.076 0 .13-.046.13l-.505.069v.008Zm.489-.146v-.038s0-.038-.03-.038l-.505.069v.038s0 .038.023.038l.505-.069h.007Zm-5.395 1.73.038.069-.13.069-.031-.046.146-.077-.023-.015Zm.252-.176.046.084v-.023l-.183.1v.023l-.031-.054.199-.107v-.03h-.031v.007Zm.268-.146.054.085v-.031l-.184.1v.03l-.038-.061.199-.107v-.03l-.039.014h.008Zm.283-.153.054.108v-.039l-.214.1v.038l-.031-.069.222-.107v-.038h-.038l.007.007Zm.291-.137.046.107v-.039l-.207.1v.03l-.03-.068.229-.1v-.038h-.038v.008Zm.345-.176.061.13h-.023v-.046l-.26.122v.038h-.023l-.039-.084.284-.137-.023-.039.023.016Zm.765-.314.053.153h-.03v-.046l-.314.107v.046h-.023l-.038-.1.344-.122v-.053.015h.008Zm1.959-.605.046.222h-.038v-.069l-.436.1v.069h-.039l-.03-.146.474-.1v-.076h.023Zm1.891-.283v.253h-.039v-.085l-.505.046v.084h-.038v-.168l.551-.053v-.085h.038l-.007.008Zm.604.023v.23h-.038v-.092h-.482v.076h-.023v-.153l.513.023v-.076h.038l-.008-.008Z"/><path fill="#FFB600" d="m150.537 32.778.023.206h-.038v-.068l-.436.053v.07h-.038V32.9l.436-.053v-.07h.053Zm.153.115s-.053-.023-.053-.084c0-.062 0-.092.038-.1l.383-.038s.053.023.053.084c0 .061 0 .092-.038.1l-.383.038Zm.376-.1v-.053l-.383.038v.03s0 .023.023.023l.367-.038h-.007Zm.244 0s-.038-.023-.038-.069c0-.046 0-.069.046-.06h.329s.038.022.038.068c0 .046 0 .069-.045.069h-.33v-.008Zm.33-.046v-.023h-.33l.33.023Zm-4.646 1.27s-.031 0-.046-.038 0-.053 0-.053l.191-.084s.031 0 .046.038 0 .054 0 .054l-.191.084Zm.176-.122-.191.084v.023l.191-.107Zm.459-.137s-.038 0-.046-.039c-.015-.038 0-.053 0-.06l.214-.085s.031 0 .046.038c.016.038 0 .054 0 .069l-.214.084v-.007Zm.314-.115s-.038 0-.054-.046c-.015-.046 0-.061 0-.07l.253-.083s.038 0 .053.046c.016.046 0 .069 0 .069l-.252.084Zm.237-.123v-.023l-.252.084.252-.06Zm.115.008s-.038-.015-.054-.054v-.076l.268-.084s.038.015.054.053v.077l-.268.092v-.008Zm.819-.26s-.046 0-.061-.062c-.016-.06 0-.076 0-.084l.306-.084s.046 0 .061.061c.015.062 0 .077 0 .085l-.306.091v-.007Zm.291-.146V33.1l-.314.085v.023l.314-.092v.007Zm.145.054s-.061-.023-.076-.084c-.016-.07 0-.108.038-.108l.413-.084s.061 0 .077.084c.015.085 0 .108-.039.108l-.413.084Zm.406-.153v-.039s0-.03-.023-.022l-.414.084v.03s0 .031.023.023l.414-.076Zm-4.217 1.615.038.046-.092.069-.023-.031.1-.077h-.023v-.007Zm.29-.222.046.069-.13.084v.023l-.023-.046.146-.092-.031-.038h-.008Zm.199-.107.039.069-.138.068-.023-.045.153-.077-.023-.015h-.008Zm.199-.115.039.076-.153.077v.023l-.031-.054.168-.084v-.023l-.03-.015h.007Zm.207-.107.038.076-.153.084-.023-.053.169-.092v-.023h-.031v.008Zm.253-.138.046.1v-.031l-.199.092v.03l-.031-.061.207-.107v-.03h-.031l.008.007Zm.635-.29.053.13v-.04l-.267.108v.046l-.039-.084.291-.123v-.046h-.038v.008Zm1.454-.514.046.161v-.046l-.329.092v.054h-.023l-.031-.108.352-.1v-.053h-.015Zm-15.146-.42c.053.053.023.137-.092.252-.115.115-.199.138-.253.084l-.627-.635c-.054-.054-.031-.138.084-.253.115-.114.199-.138.252-.084l.62.635h.016Zm-.743-.536s-.038 0-.076.023c-.038.038-.046.053-.023.076l.627.635s.046 0 .077-.023.046-.06.023-.076l-.628-.635Zm.291 1.102c.061.046.046.122-.038.237-.084.115-.161.153-.222.1l-.689-.521c-.053-.046-.046-.123.038-.237.092-.115.161-.146.222-.1l.689.52Zm-.78-.406s-.039 0-.069.03c-.023.039-.031.054 0 .07l.681.52s.046 0 .069-.023c.023-.023.023-.061 0-.076l-.681-.521Zm.482.95c.069.022.076.099.023.229-.046.13-.1.183-.169.16l-.742-.267c-.069-.023-.077-.1-.023-.23.046-.13.099-.184.168-.16l.743.275v-.008Zm-.796-.139s-.039 0-.054.046v.07l.743.275s.038 0 .053-.046 0-.061 0-.07l-.742-.26v-.015Zm.551 1.347c.061 0 .099.062.099.192s-.023.191-.084.191l-.719.03c-.069 0-.1-.06-.108-.183 0-.13.023-.191.085-.191l.719-.039h.008Zm-.72.169s-.03 0-.023.053c0 .039 0 .054.031.054l.719-.03s.031 0 .031-.062c0-.061 0-.053-.038-.053l-.72.03v.008Zm3.268 3.138s-.046.046-.13.03c-.076-.015-.107-.046-.099-.084l.099-.436s.054-.046.13-.03c.077.014.108.045.1.083l-.1.437Zm.023-.437s0-.022-.03-.022h-.039l-.099.436.031.023h.038l.099-.437Zm.398.483s-.046.045-.114.038c-.069-.008-.108-.023-.1-.061l.038-.414s.039-.053.115-.046c.077.008.107.023.1.07l-.039.413Zm-.038-.437h-.069l-.038.414h.069l.038-.414Zm.467.452s-.038.053-.107.053c-.077 0-.107 0-.107-.053v-.436s.03-.054.107-.054c.076 0 .107 0 .107.054v.436Zm-.077-.413h-.068v.436h.068v-.436Zm-3.26-2.358c.061 0 .107.046.13.169.023.13 0 .191-.053.199l-.712.137c-.061 0-.107-.046-.13-.168-.023-.122 0-.191.053-.207l.712-.137v.007Zm-.689.276s-.023 0 0 .061c0 .038 0 .054.038.054l.712-.138s.023-.023 0-.061c-.023-.039 0-.054-.046-.054l-.704.138Zm1.477 1.14s.092-.023.169.046c.076.069.099.123.061.16l-.39.437c-.039.038-.092.023-.169-.046-.076-.069-.099-.122-.069-.16l.391-.437h.007Zm-.313.513v.046s.038.023.045 0l.391-.436v-.046s-.046-.023-.054 0l-.39.436h.008Zm.704-.191s.069-.039.153 0c.084.038.107.084.092.122l-.245.467s-.069.038-.146 0c-.076-.038-.115-.084-.092-.123l.238-.466Zm-.153.528s0 .023.023.038h.045l.238-.467s0-.023-.023-.038-.039 0-.046 0l-.237.467Zm.512-5.572-.375.306-.053-.069.122-.1-.627-.772-.123.1-.053-.07.252-.199.681.835.13-.108.054.07h-.008v.007Zm-1.454 2.09-.061.397h-.069l.023-.13-.804-.138-.023.13h-.068l.045-.26.873.146.023-.13.061-.016Zm.161 1.76.145.337-.053.022-.046-.107-.681.306.053.108-.053.023-.1-.222.735-.337-.046-.107.054-.023h-.008Zm.26.459.191.268-.045.03-.062-.084-.543.398.061.084-.046.031-.13-.176.589-.436-.068-.092.045-.023h.008Zm1.056.888.291.1v.038l-.099-.031-.169.49.1.038v.038l-.199-.069.183-.535-.099-.039-.015-.038h.007v.008Zm.421.13.26.092v.038l-.084-.023-.16.467.084.03v.039l-.176-.062.176-.505-.084-.03-.016-.038v-.008Zm1.516.321.245-.023v.039h-.077l.038.436h.077v.038h-.161l-.046-.474h-.084v-.016h.008Zm-1.554-6.115c.038.069 0 .146-.145.222-.146.077-.222.084-.268 0l-.467-.78c-.038-.07 0-.146.145-.23.146-.084.23-.084.268 0l.467.78v.008Zm-.612-.72s-.039-.022-.084 0c-.039.024-.054.047-.046.07l.459.81s.046.024.084 0c.038-.022.054-.045.046-.068l-.459-.811Zm1.247.514-.467.198-.038-.076.146-.061-.406-.95-.146.062-.038-.077.306-.13.437 1.034.16-.07.039.077h.007v-.008Zm1.194-.353-.589.154-.023-.092.191-.046-.291-1.11-.191.046v-.092l.39-.1.314 1.21.199-.054v.092-.008Zm-.696.046c.023.085-.046.153-.222.2-.169.045-.26.03-.291-.054l-.283-.995c-.023-.084.046-.153.214-.2.168-.045.268-.03.291.054l.283.995h.008Zm-.467-.926s-.038-.03-.084 0c-.054 0-.069.038-.069.07l.291.986s.038.039.084.023c.053-.015.069-.038.069-.069l-.291-1.01Z"/><path fill="#FFB600" d="m137.366 31.179-.697.145v-.1l.222-.045-.237-1.164-.23.046v-.1l.467-.091.253 1.263.237-.046-.015.1v-.008Zm-.506 5.809c.123.39.529.773.475 1.155a3.222 3.222 0 0 0-.543-.092c.076.169.137.337.176.513l.405.046a15.53 15.53 0 0 1 3.039.88c-1.148-.604-2.595-1.278-3.552-2.51v.008Z"/><path fill="#000" d="M52.289 55.992c-3.13 0-4.684-1.952-4.684-5.97V38.143H44.88a.876.876 0 0 1-.62-.26.909.909 0 0 1-.26-.62c0-.23.092-.459.26-.62.16-.168.39-.26.62-.26h2.725v-3.628a.87.87 0 0 1 .046-.367.87.87 0 0 1 .183-.314c.085-.092.184-.168.291-.222a.82.82 0 0 1 .352-.084c.13 0 .253.023.375.069a.954.954 0 0 1 .314.214.873.873 0 0 1 .2.322.892.892 0 0 1 .053.375v3.62h5.35a.985.985 0 0 1 .367.03c.122.039.23.1.321.184a.828.828 0 0 1 .215.299.846.846 0 0 1 .076.36.906.906 0 0 1-.604.88.899.899 0 0 1-.375.038H49.41v11.878c0 3.873 1.492 4.194 2.878 4.194a2.56 2.56 0 0 0 2.518-1.645.767.767 0 0 1 .283-.322.72.72 0 0 1 .413-.115.94.94 0 0 1 .65.284.798.798 0 0 1 .192.306.962.962 0 0 1 .061.36c-.1.65-.42 1.247-.903 1.683a4.368 4.368 0 0 1-1.477.95 4.16 4.16 0 0 1-1.73.26h-.007Zm12.2 0c-4.149 0-6.935-2.151-6.935-5.358 0-4.4 3.888-6.084 14.32-6.123v-.78c0-3.582-2.189-5.81-5.74-5.81-2.954-.015-5.327 1.21-6.192 3.161a.805.805 0 0 1-.275.322.696.696 0 0 1-.406.115.97.97 0 0 1-.36-.07.834.834 0 0 1-.306-.206 1.027 1.027 0 0 1-.206-.306.968.968 0 0 1-.07-.36c0-.765 1.24-2.013 1.317-2.066 1.561-1.585 3.697-2.358 6.506-2.358 4.584 0 7.554 2.978 7.554 7.578v11.243a.852.852 0 0 1-.26.604.839.839 0 0 1-.613.23c-.222 0-.941-.084-.941-1.217v-1.799c-1.623 1.975-4.317 3.2-7.378 3.2h-.016Zm7.385-9.72c-10.409.038-12.513 1.69-12.513 4.347 0 2.656 2.648 3.597 5.128 3.597 4.209 0 7.385-2.809 7.385-6.536v-1.416.008Zm13.639 9.72c-5.595 0-9.636-4.187-9.636-9.958 0-5.77 4.056-9.88 9.636-9.88 3.253 0 5.204 1.27 6.26 2.334 1.279 1.278 1.753 2.54 1.753 3.023 0 .13-.015.253-.061.375a.99.99 0 0 1-.2.322.82.82 0 0 1-.313.214.88.88 0 0 1-.367.076.748.748 0 0 1-.72-.543c-.52-1.837-2.495-4.041-6.344-4.041-4.6 0-7.83 3.344-7.83 8.12s3.23 8.182 7.83 8.182c3.834 0 5.808-2.166 6.344-4.018a.71.71 0 0 1 .268-.39c.13-.1.291-.154.452-.154.13 0 .252.023.367.077a.956.956 0 0 1 .314.214.876.876 0 0 1 .199.322.899.899 0 0 1 .061.375c0 .49-.474 1.76-1.753 3.023-1.04 1.064-2.984 2.334-6.252 2.334l-.008-.008ZM97.1 55.8h-.076a.931.931 0 0 1-.352-.069.878.878 0 0 1-.52-.872V29.304c0-.115.022-.222.068-.33a.84.84 0 0 1 .804-.505c.222 0 .941.084.941 1.217V43.9l9.169-7.279c.168-.153.39-.244.62-.26.23-.015.459.038.651.16.145.108.26.253.313.422a.773.773 0 0 1 0 .528.742.742 0 0 1-.252.36l-9.682 7.684 10.623 8.801a.741.741 0 0 1 .192.245.85.85 0 0 1 .061.567.831.831 0 0 1-.314.474 1.07 1.07 0 0 1-.712.191 1.11 1.11 0 0 1-.666-.313L97.95 47.167v7.707a.883.883 0 0 1-.52.865.906.906 0 0 1-.353.077l.023-.016Zm15.239 0a.962.962 0 0 1-.689-.29.873.873 0 0 1-.199-.322 1.042 1.042 0 0 1-.062-.375V29.296c0-.115.023-.222.069-.33a.826.826 0 0 1 .804-.505c.222 0 .941.085.941 1.218v25.134a.862.862 0 0 1-.046.367.867.867 0 0 1-.183.314 1.014 1.014 0 0 1-.291.222.822.822 0 0 1-.352.084h.008Zm13.026.192c-5.587 0-9.636-4.187-9.636-9.958 0-5.77 4.118-9.88 9.399-9.88 5.281 0 8.656 3.72 8.656 8.855.007.145-.016.283-.061.42-.054.13-.131.253-.23.36-.1.1-.214.184-.352.238a.967.967 0 0 1-.413.076H117.52c.023 4.784 3.245 8.12 7.837 8.12 3.835 0 5.809-2.165 6.345-4.018a.748.748 0 0 1 .719-.55.967.967 0 0 1 .683.291.956.956 0 0 1 .266.696c0 .49-.474 1.76-1.752 3.03-1.056 1.064-3 2.327-6.253 2.327v-.008Zm-7.692-11.68h14.312c-.329-3.75-3.115-6.413-6.857-6.413a7.733 7.733 0 0 0-4.883 1.852 7.731 7.731 0 0 0-2.58 4.553h.008v.008Zm20.81 9.774a1.208 1.208 0 0 0-.253-.398 1.21 1.21 0 0 0-.382-.26 1.2 1.2 0 0 0-.459-.092h-.077a1.174 1.174 0 0 0-.842.352 1.184 1.184 0 0 0-.329.865v.069c-.008.16.023.321.077.466a1.1 1.1 0 0 0 .252.39c.107.115.237.207.383.269.145.06.306.091.459.091h.077c.153 0 .313-.03.459-.091.289-.13.516-.365.635-.659.054-.145.084-.306.077-.467v-.068a1.202 1.202 0 0 0-.077-.467Zm3.903 1.714h-.076a.93.93 0 0 1-.352-.069.799.799 0 0 1-.291-.206.839.839 0 0 1-.184-.306.97.97 0 0 1-.046-.36V37.286a.873.873 0 0 1 .521-.873.78.78 0 0 1 .352-.068h.076c.123 0 .238.023.352.069a.8.8 0 0 1 .291.206.839.839 0 0 1 .184.306.95.95 0 0 1 .046.36V54.86c0 .122 0 .245-.046.36a.78.78 0 0 1-.184.306.836.836 0 0 1-.291.206.782.782 0 0 1-.352.07Zm13.555.192c-5.526 0-9.69-4.264-9.69-9.92s4.164-9.919 9.69-9.919 9.636 4.302 9.636 10.004c.015 5.61-4.133 9.842-9.636 9.842v-.008Zm0-18.078c-4.493 0-7.883 3.52-7.883 8.15 0 4.631 3.39 8.144 7.883 8.144 4.492 0 7.845-3.467 7.845-8.067s-3.383-8.235-7.845-8.235v.016-.008Z"/></svg>