<svg xmlns="http://www.w3.org/2000/svg" fill="none" viewBox="0 0 210 80"><path fill="#EC0000" d="M37.457 57.936C27.81 57.929 19.994 50.103 20 40.456a17.47 17.47 0 0 1 11.112-16.262c8.992-3.5 19.12.953 22.62 9.945a17.473 17.473 0 0 1 1.189 6.333c-.01 9.64-7.824 17.453-17.464 17.464Zm0-31.235c-7.604 0-13.767 6.163-13.767 13.767v.004c-.004 7.61 6.161 13.784 13.771 13.788 7.61.005 13.784-6.16 13.788-13.77.005-7.611-6.16-13.783-13.77-13.789h-.022Z"/><path fill="#74797D" d="M33.434 37.323a4.024 4.024 0 0 1 8.044.105 4.03 4.03 0 0 1-1.883 3.41 1.096 1.096 0 0 0-.49 1.157l1.202 5.663a.554.554 0 0 1-.54.668H35.16a.553.553 0 0 1-.54-.668l1.195-5.67a1.108 1.108 0 0 0-.49-1.162 4.041 4.041 0 0 1-1.885-3.503h-.006Zm30.747-4.685h3.11v8.348c0 1.32.04 2.178.117 2.567a2.52 2.52 0 0 0 .962 1.527c.498.38 1.183.571 2.052.571s1.535-.18 1.996-.542c.427-.325.716-.799.808-1.328.109-.869.153-1.744.132-2.62v-8.523h3.11v8.098c0 1.85-.084 3.154-.25 3.919a4.331 4.331 0 0 1-.938 1.928 4.668 4.668 0 0 1-1.811 1.257c-.748.312-1.734.469-2.963.467-1.466 0-2.578-.172-3.337-.513a4.859 4.859 0 0 1-1.805-1.32 4.148 4.148 0 0 1-.873-1.694c-.207-.894-.31-2.203-.31-3.926v-8.216Zm21.151 15.405V32.638h3.022l6.319 10.276V32.638h2.89v15.405h-3.125l-6.207-10.035v10.035h-2.899Zm21.099 0V32.638h3.11v15.405h-3.11Zm11.895 0V32.638h10.566v2.611h-7.456v3.64h6.427v2.612h-6.427v6.542h-3.11Zm23.267 0V41.55l-5.636-8.921h3.64l3.623 6.102 3.56-6.102h3.581l-5.654 8.95v6.463h-3.114Z"/><path fill="#EC0000" d="M157.655 48.042V32.638h3.11v15.404h-3.11Zm11.883-15.404h5.677c1.282 0 2.26.098 2.932.293.884.266 1.684.76 2.318 1.43a6.733 6.733 0 0 1 1.466 2.494c.367 1.175.538 2.402.507 3.632a10.218 10.218 0 0 1-.459 3.285 6.894 6.894 0 0 1-1.658 2.723 5.39 5.39 0 0 1-2.185 1.235 9.466 9.466 0 0 1-2.753.313h-5.845V32.637Zm3.11 2.611v10.197h2.316a8.358 8.358 0 0 0 1.884-.147 2.875 2.875 0 0 0 1.257-.628c.333-.298.603-.792.815-1.48.239-.923.345-1.874.316-2.826 0-1.194-.105-2.109-.316-2.743a3.538 3.538 0 0 0-.88-1.49 2.94 2.94 0 0 0-1.445-.726c-.431-.098-1.282-.149-2.553-.146l-1.394-.01Z"/><path fill="#74797D" d="M183.812 33.34v-.406h2.46v.406h-1.02v2.873h-.418V33.34h-1.022Zm2.971-.406h.392l1.219 1.92 1.212-1.92H190v3.28h-.419v-2.449l-1.034 1.61h-.306l-1.028-1.623v2.461h-.419l-.011-3.28Z"/></svg>