<svg xmlns="http://www.w3.org/2000/svg" fill="none" viewBox="0 0 210 80"><path fill="#000" d="M78.64 31.233h-4.21v24.405h19.485v-3.699H78.639V31.23v.003Zm53.871 2.214c-3.282 0-5.428 1.723-6.479 4.664-.842-3.027-3.029-4.664-6.399-4.664-2.943 0-4.964 1.387-6.1 3.824v-3.318h-4.546v12.101c0 4.077-2.525 6.39-5.557 6.39-3.031 0-4.88-1.387-4.88-5.256V33.953h-4.084v13.994c0 5.17 2.525 7.944 7.535 7.944 3.744 0 5.933-1.768 6.983-4.834v4.58h4.546V42.906c0-4.203 2.229-6.053 4.789-6.053 2.315 0 3.99 1.008 3.99 5v13.786h4.082V42.905c0-4.203 2.272-6.053 4.837-6.053 2.317 0 3.914 1.008 3.914 5v13.786h4.084V41.18c.015-5.042-2.342-7.73-6.717-7.73l.002-.003Zm19.315 0c-6.384 0-10.519 4.413-10.519 11.263s4.291 11.138 10.519 11.178c6.387 0 10.524-4.367 10.524-11.178 0-6.81-4.338-11.22-10.524-11.263Zm0 18.996c-4.082.04-6.268-2.816-6.314-7.733-.04-5.087 2.32-7.775 6.314-7.818 4.165-.042 6.356 2.859 6.356 7.818 0 4.96-2.324 7.69-6.356 7.733Zm22.01-9.626c-3.989-.925-4.967-1.554-4.967-3.32 0-1.765 1.264-2.858 3.957-2.858 2.693 0 4.335 1.133 4.588 4.749l4.165-.532c-.336-5.002-3.871-7.397-8.5-7.397-5.135 0-8.247 2.52-8.247 6.134 0 3.613 1.81 5.579 7.492 6.81 4.08.84 5.218 1.554 5.218 3.528 0 1.973-1.432 2.693-4.042 2.693s-5.055-.968-5.258-4.458l-4.335.549c.338 4.784 4.125 7.146 9.383 7.146 5.258 0 8.332-2.312 8.332-6.346 0-3.711-1.515-5.309-7.783-6.695l-.003-.003Z"/><path fill="url(#a)" d="M66.047 31.586a10.582 10.582 0 0 1-6.542 9.782 10.612 10.612 0 0 1-11.551-2.297c-4.138-4.127-4.145-10.827-.015-14.964A10.59 10.59 0 0 1 55.45 21c2.81 0 5.505 1.115 7.495 3.1a10.57 10.57 0 0 1 3.104 7.484l-.003.002Zm-28.672-2.48H29V59h29.628v-8.157H37.375V29.106Z"/><defs><linearGradient id="a" x1="61.935" x2="29.775" y1="23.712" y2="59.527" gradientUnits="userSpaceOnUse"><stop stop-color="#FF7D11"/><stop offset=".98" stop-color="#F00D79"/></linearGradient></defs></svg>