<svg xmlns="http://www.w3.org/2000/svg" fill="none" viewBox="0 0 210 80"><path fill="#042A2D" d="m57.298 35.014-8.857-8.662c-.17-.235-.527-.352-.816-.352H29.979c-.306 0-.595.117-.833.352l-8.789 8.662c-.238.235-.357.52-.357.821 0 .285.119.57.357.805L37.935 53.98c.238.235.544.352.833.352.289 0 .595-.117.833-.352L57.179 36.64c.238-.235.357-.52.357-.805 0-.301-.051-.586-.238-.82Zm-34.459.821 7.14-7.054 7.14 7.054-7.14 7.088-7.14-7.088Zm15.997 15.767-7.208-7.054 7.14-7.037 7.208 7.037-7.14 7.054Zm8.789-8.68L32.801 28.33h14.348l7.667 7.557-7.191 7.037Zm18.292-14.895h14.467v3.837H70.167v5.53h7.922v3.853h-7.922v7.322h10.574v3.837H65.917V28.027Zm15.64 7.624h4.318l4.726 10.656 4.658-10.656h4.131l-7.429 16.755h-2.907l-7.497-16.755Zm35.309 8.26c0-4.758-3.196-8.612-7.973-8.612-5.083 0-8.262 3.904-8.262 8.73 0 5.127 3.655 8.73 8.908 8.73 2.55 0 5.321-1.157 7.021-3.251l-2.346-2.212c-.952.989-2.55 1.977-4.607 1.977-2.72 0-4.845-1.742-5.083-4.256h12.274c.068-.285.068-.754.068-1.106Zm-12.104-1.86a4.071 4.071 0 0 1 1.433-2.383 4.182 4.182 0 0 1 2.647-.934c2.006 0 3.587 1.407 3.944 3.318h-8.024Zm16.048-6.4h3.893v1.927c.952-1.156 2.771-2.095 5.083-2.095.408 0 .765.05 1.292.118v3.67c-.408-.051-.833-.118-1.411-.118-1.836 0-3.655.821-4.777 2.614v10.64h-4.08V35.65Zm13.532-7.976h4.08v24.732h-4.08V27.675Zm21.59 7.976v1.575c-1.173-.989-2.941-1.927-5.015-1.927s-3.825.654-5.253 1.81c-1.938 1.625-3.179 4.138-3.179 6.92 0 2.781 1.173 5.294 3.179 6.92a7.944 7.944 0 0 0 5.083 1.81c2.244 0 4.012-.939 5.185-1.928v1.525h3.842V35.651h-3.842Zm-.221 11.343c-1.071 1.34-2.601 2.095-4.437 2.095-2.72 0-4.777-2.212-4.777-5.06 0-2.849 2.057-5.06 4.964-5.06 1.649 0 3.179.82 4.25 2.094v5.931Zm30.209-11.343-3.893 10.355-4.25-10.355h-2.771l-4.131 10.355-3.893-10.355h-4.199l6.375 16.755h2.839l4.369-10.756 4.42 10.757h2.839L190 35.65h-4.08Z"/></svg>