<svg xmlns="http://www.w3.org/2000/svg" fill="none" viewBox="0 0 210 80"><path fill="#1D6AFF" d="M37.612 35.694c-2.146 2.166-2.146 5.672 0 7.828a5.465 5.465 0 0 0 7.775 0l3.893-3.914 7.776 7.828-3.893 3.914a16.423 16.423 0 0 1-23.337 0c-6.436-6.478-6.436-16.995.01-23.484l3.893-3.914 7.776 7.828-3.893 3.914Zm23.336 7.828c2.146-2.166 2.146-5.672 0-7.828a5.463 5.463 0 0 0-7.775 0l-3.883 3.914-7.775-7.828 3.883-3.914a16.423 16.423 0 0 1 23.336 0c6.447 6.489 6.447 17.006 0 23.494l-3.893 3.914-7.775-7.828 3.882-3.914v-.01Z"/><path fill="#000" d="M112.907 39.828c-.136-4.207-3.307-7.054-6.98-7.054-3.956 0-7.127 2.983-7.127 7.326s3.171 7.304 7.064 7.304c3.014 0 5.473-1.392 6.687-4.259l-3.255-.69c-.994 1.684-2.354 1.82-3.432 1.82-1.685 0-3.087-1.214-3.443-3.202h10.486v-1.245Zm-10.381-1.33c.439-1.716 2.019-2.542 3.401-2.542 1.454 0 2.783.774 3.254 2.543h-6.655Zm27.952-5.305h3.62l-4.583 13.814h-3.286l-2.711-8.121-2.731 8.12h-3.286l-4.584-13.813h3.621l2.732 8.487 2.815-8.487h2.846l2.815 8.508 2.732-8.508Zm-46.622 6.342a6.757 6.757 0 0 1 6.76-6.76 6.757 6.757 0 0 1 6.76 6.76v7.43h-3.672V39.21a3.087 3.087 0 0 0-6.175 0v7.755h-3.673v-7.43Zm79.963.293c-.147-4.207-3.318-7.054-6.991-7.054-3.945 0-7.126 2.983-7.126 7.326s3.181 7.304 7.074 7.304c3.003 0 5.463-1.392 6.677-4.259l-3.255-.69c-.994 1.684-2.344 1.82-3.422 1.82-1.685 0-3.098-1.214-3.453-3.202h10.496v-1.245Zm-10.392-1.33c.45-1.716 2.02-2.542 3.401-2.542 1.465 0 2.784.774 3.255 2.543h-6.656ZM185 33.194h-3.61l-2.742 8.508-2.815-8.508h-2.836l-2.815 8.487-2.742-8.487h-3.611l4.584 13.814h3.286l2.731-8.121 2.7 8.12h3.286L185 33.194Zm-50.242 6.342a6.757 6.757 0 0 1 6.76-6.76 6.757 6.757 0 0 1 6.76 6.76v7.43h-3.673V39.21a3.086 3.086 0 1 0-6.174 0v7.755h-3.673v-7.43Z"/></svg>