<svg xmlns="http://www.w3.org/2000/svg" fill="none" viewBox="0 0 210 80"><path fill="#06AC38" d="m123.513 22.035 2.001.21c2.176.282 4.283.843 6.214 1.932 2.562 1.474 4.283 3.65 5.16 6.494 1.124 3.686 1.194 7.408 0 11.094-1.264 4.002-4.072 6.53-8.074 7.758-1.896.597-3.827.808-5.793.808h-7.653c0-.106-.035-.176-.035-.281V22l8.18.035Zm-3.967 24.785h2.352c1.86 0 3.686-.14 5.476-.702 2.739-.843 4.599-2.598 5.442-5.371.667-2.247.772-4.529.421-6.846-.246-1.65-.772-3.16-1.79-4.494-1.51-2.036-3.581-3.054-6.003-3.545-1.896-.386-3.862-.281-5.758-.246-.035 0-.07.035-.14.035v21.17Zm-92.33-24.785 2.001.21c2.212.352 4.213 1.23 5.652 3.02 1.194 1.474 1.685 3.195 1.72 5.055.035 2.352-.596 4.459-2.246 6.179-1.335 1.37-2.985 2.176-4.845 2.387-1.404.176-2.809.246-4.213.281H17V22.035h10.216Zm-6.038 3.651v9.9c.105 0 .21.035.28.035h4.635c.772 0 1.58-.07 2.352-.245 1.825-.387 3.194-1.37 3.65-3.265.141-.632.176-1.3.176-1.931-.035-2.072-1.123-3.476-3.124-4.073-1.159-.35-2.317-.386-3.51-.386-1.475-.035-2.95-.035-4.46-.035ZM17 42.853c.105 0 .246-.035.386-.035h3.792v7.583H17v-7.548Zm56.556-10.742v-2.528h3.967c0 .07.035.176.035.28v16.992c0 2.001-.316 3.967-1.123 5.793-1.123 2.598-3.124 4.248-5.863 4.915-2.598.632-5.16.632-7.688-.351-2.773-1.089-4.388-3.195-5.196-6.004v-.07h4.002c.106 0 .211.14.281.281.562 1.264 1.37 2.282 2.668 2.809a7.62 7.62 0 0 0 1.966.456c.983.14 1.966 0 2.914-.246 1.37-.386 2.387-1.193 3.054-2.457.948-1.826 1.053-3.792 1.089-5.828-.07.035-.106.035-.14.035-1.124 1.756-2.81 2.703-4.775 3.054-2.458.457-4.845.246-7.057-1.018-2.387-1.334-3.756-3.44-4.353-6.073-.667-3.02-.421-5.968 1.124-8.671 1.51-2.633 3.826-4.108 6.845-4.459 1.966-.245 3.862-.035 5.653.843.982.491 1.825 1.229 2.597 2.247Zm-12.252 7.091c.07.597.105 1.194.21 1.79.527 3.125 2.74 5.056 5.899 5.161 2.633.07 4.844-1.369 5.757-3.861.702-1.931.737-3.932.14-5.898-.42-1.405-1.263-2.528-2.527-3.265-1.334-.773-2.738-.948-4.248-.737-1.79.245-3.16 1.088-4.107 2.633-.843 1.263-1.089 2.703-1.124 4.177Zm22.82 1.826c-.176 2.843 2 5.722 4.809 6.354a7.707 7.707 0 0 0 3.23.035c1.615-.316 2.738-1.299 3.58-2.668.176-.28.352-.351.633-.351h3.651c-.211.526-.387 1.018-.632 1.474-1.44 2.774-3.792 4.318-6.846 4.845-2.001.316-4.002.21-5.933-.456-2.773-.948-4.704-2.809-5.722-5.547-1.264-3.51-1.194-6.986.491-10.357 1.545-3.124 4.178-4.81 7.583-5.265 1.93-.246 3.827-.106 5.652.667 2.528 1.053 4.108 2.948 5.055 5.441.703 1.86.808 3.791.773 5.722 0 .035-.035.035-.035.106h-16.29ZM96.2 37.833c-.316-3.58-2.773-5.758-6.32-5.582-3.018.14-5.686 2.809-5.616 5.582H96.2ZM54.88 50.366h-3.757l-.175-2.809c-.14.176-.246.281-.316.422-1.159 1.474-2.703 2.317-4.529 2.633-1.966.316-3.897.28-5.757-.422-1.966-.737-3.335-2-3.757-4.107-.561-2.808.527-4.985 3.125-6.284 1.51-.772 3.124-1.159 4.774-1.44 2.001-.315 4.038-.561 6.039-.807.14-2.598-1.089-5.09-4.248-5.266-1.054-.07-2.037.14-2.914.737-.948.667-1.51 1.615-1.58 2.774 0 .07 0 .14-.035.21 0 .035-.035.035-.035.07h-3.862c-.035-.877.14-1.755.457-2.562.737-1.896 2.141-3.125 4.002-3.827 2.457-.912 4.95-.877 7.372-.07 2.177.702 3.44 2.317 4.108 4.459.42 1.334.596 2.703.596 4.072.035 1.72 0 3.475 0 5.196 0 2.282.07 4.563.457 6.81.07.035.07.106.035.21Zm-4.318-9.9h-.176l-4.774.632c-1.124.175-2.247.456-3.3 1.018-.702.386-1.229.878-1.475 1.685-.456 1.51.21 2.984 1.685 3.651 1.124.492 2.317.527 3.476.351 1.825-.28 3.195-1.193 3.932-2.914.632-1.439.667-2.914.632-4.423Zm141.9-10.918-.457 1.158-8.847 22.117c-1.299 3.195-4.177 5.126-7.618 5.126h-1.895v-3.546c.631 0 1.228.035 1.86 0 .597-.07 1.229-.14 1.756-.316 1.123-.421 1.825-1.264 2.352-2.352.456-.913.421-1.72.07-2.703l-7.337-19.028c-.035-.14-.106-.28-.141-.456h4.283c.211 0 .316.035.351.246l5.301 15.692c.035.106.07.246.141.421.07-.14.105-.245.14-.315l5.477-15.658c.105-.28.21-.386.526-.351 1.194.035 2.388 0 3.581 0l.457-.035Zm-38.582.035h4.002v20.748h-3.792v-2.844c-.07.07-.14.07-.14.105-1.58 2.353-3.862 3.3-6.6 3.265-1.58 0-3.054-.316-4.353-1.228-1.369-.983-2.142-2.387-2.458-4.037a14.83 14.83 0 0 1-.316-3.055V29.583h4.002v12.006c0 1.089.176 2.142.527 3.16.772 2.106 2.387 2.949 4.494 2.773 2.282-.175 3.58-1.404 4.177-3.861.316-1.264.422-2.563.422-3.862v-9.795c.07-.105.07-.245.035-.421Zm8.987 3.054h-3.089v-3.09h3.089v-5.616h4.037v5.582h3.862v3.09h-3.862v12.286c0 .316 0 .632.07.913.176 1.159.878 1.755 2.107 1.826.456.035.877 0 1.369 0v2.633c0 .105-.105.28-.176.28-1.544.246-3.089.211-4.563-.35-1.615-.597-2.458-1.791-2.704-3.441a27.33 27.33 0 0 1-.14-1.685V32.637Zm-59.856-3.054h3.791v2.422c.562-1.123 1.404-1.93 2.563-2.422 1.123-.491 2.282-.597 3.51-.456v3.65c-.877-.14-1.755-.175-2.597 0-1.229.246-2.072.984-2.598 2.142-.422 1.018-.597 2.071-.632 3.16l-.035 6.249v6.003h-4.002V29.583Z"/></svg>