<svg xmlns="http://www.w3.org/2000/svg" fill="none" viewBox="0 0 210 80"><path fill="#002AB7" d="M38.372 46.866a7.711 7.711 0 0 1-2.71 2.27 7.672 7.672 0 0 1-3.434.818c-5.188.019-8.935-3.967-8.935-9.459 0-5.491 3.742-9.46 8.901-9.46a7.785 7.785 0 0 1 6.178 3.088l.347.465 2.692-1.748-.407-.536a11.003 11.003 0 0 0-3.902-3.192A10.947 10.947 0 0 0 32.192 28C25.128 28 20 33.255 20 40.495c0 3.532 1.258 6.738 3.541 9.023 2.236 2.238 5.308 3.47 8.64 3.47.058.025.104 0 .154 0a10.874 10.874 0 0 0 8.672-4.343l.407-.543-2.7-1.696-.34.457-.002.003ZM101.59 30.59V28h-18.05v3.134h13.62l-13.62 19.24V53h18.294v-3.135H87.967L101.59 30.59ZM112.535 53h16.244v-3.135h-12.947v-8.1h12.7V38.63h-12.7v-7.497h12.947V28h-16.244v25Zm42.978-6.218L141.69 28.001h-3.011V53h3.294V33.951L155.866 53h2.944V28h-3.297v18.782Zm23.656-18.781h-3.37L165.616 53h3.722l2.335-5.831h11.623L185.63 53h3.722l-10.183-25Zm-6.311 16.036 4.61-11.508 4.638 11.508h-9.249.001Z"/><path fill="#FF9B38" d="M65.364 28h-4.698l10.005 24.866h4.84L65.364 28.001Zm-17.16 24.944 4.9-.05 7.477-18.624-2.338-5.806-10.039 24.48Z"/></svg>