<svg xmlns="http://www.w3.org/2000/svg" fill="none" viewBox="0 0 210 80"><path fill="#0052FF" d="M51.128 32.922c-6.5 0-11.588 4.94-11.588 11.555 0 6.615 4.957 11.507 11.588 11.507 6.63 0 11.669-4.973 11.669-11.555s-4.94-11.507-11.669-11.507Zm.049 18.3c-3.706 0-6.42-2.877-6.42-6.745 0-3.868 2.666-6.777 6.371-6.777 3.705 0 6.468 2.926 6.468 6.777 0 3.852-2.714 6.745-6.42 6.745Zm13.05-13.278h3.234v17.601h5.168V33.361h-8.402v4.583ZM26.539 37.7c2.714 0 4.875 1.674 5.688 4.16h5.477c-.992-5.33-5.396-8.922-11.116-8.922-6.501 0-11.588 4.925-11.588 11.54 0 6.614 4.957 11.506 11.588 11.506 5.606 0 10.076-3.608 11.067-8.971h-5.428c-.78 2.486-2.925 4.209-5.64 4.209-3.754 0-6.37-2.877-6.37-6.745 0-3.9 2.584-6.777 6.322-6.777Zm135.882 4.632-3.787-.552c-1.804-.26-3.104-.862-3.104-2.276 0-1.544 1.674-2.324 3.966-2.324 2.502 0 4.095 1.073 4.436 2.828h4.99c-.553-4.453-3.998-7.07-9.296-7.07-5.298 0-9.085 2.78-9.085 6.729 0 3.949 2.373 5.964 7.151 6.647l3.786.552c1.853.26 2.893.992 2.893 2.357 0 1.755-1.804 2.486-4.307 2.486-3.055 0-4.778-1.25-5.038-3.136h-5.086c.471 4.34 3.868 7.378 10.076 7.378 5.639 0 9.393-2.584 9.393-7.004-.016-3.917-2.714-5.965-6.988-6.615ZM70.045 30.744c1.831 0 3.316-1.462 3.316-3.266s-1.485-3.267-3.316-3.267c-1.83 0-3.315 1.463-3.315 3.267 0 1.804 1.484 3.266 3.315 3.266ZM145.893 50.962V40.95c0-4.81-2.926-8.029-9.134-8.029-5.85 0-9.133 2.958-9.783 7.509h5.119c.26-1.755 1.641-3.218 4.567-3.218 2.633 0 3.916 1.154 3.916 2.568 0 1.852-2.372 2.324-5.298 2.616-3.965.423-8.873 1.804-8.873 6.956 0 3.998 2.974 6.566 7.703 6.566 3.706 0 6.03-1.544 7.2-3.998.179 2.194 1.804 3.608 4.095 3.608h3.023v-4.6h-2.535v.033Zm-5.087-4.42c0 2.957-2.584 5.151-5.721 5.151-1.934 0-3.575-.812-3.575-2.535 0-2.194 2.633-2.795 5.038-3.055 2.324-.212 3.624-.732 4.258-1.723v2.161Zm-27.433-13.62c-2.893 0-5.298 1.203-7.021 3.218V24h-5.168v31.545h5.087V52.62c1.722 2.096 4.176 3.348 7.102 3.348 6.208 0 10.889-4.892 10.889-11.507 0-6.614-4.779-11.539-10.889-11.539Zm-.78 18.3c-3.706 0-6.42-2.877-6.42-6.745 0-3.868 2.763-6.777 6.468-6.777 3.706 0 6.371 2.877 6.371 6.777 0 3.9-2.714 6.745-6.419 6.745Zm-23.777-18.3c-3.364 0-5.558 1.382-6.842 3.3v-2.86h-5.12v22.2h5.169v-12.06c0-3.396 2.145-5.802 5.347-5.802 2.974 0 4.826 2.097 4.826 5.152v12.71h5.169v-13.1c-.017-5.59-2.91-9.54-8.549-9.54Zm94.326.017c-6.631 0-11.506 4.973-11.506 11.555 0 6.907 5.217 11.506 11.587 11.506 5.38 0 9.605-3.185 10.678-7.687h-5.379c-.781 1.966-2.666 3.088-5.217 3.088-3.316 0-5.818-2.064-6.371-5.672h17.097v-1.983c0-6.354-4.648-10.808-10.889-10.808Zm-5.899 9.084c.812-3.088 3.136-4.599 5.818-4.599 2.925 0 5.168 1.674 5.688 4.6h-11.506Z"/></svg>