<svg xmlns="http://www.w3.org/2000/svg" fill="none" viewBox="0 0 210 80"><path fill="#00585C" d="M48.017 49.197H42v5.35h6.017v-5.35ZM74.549 25h-5.884v5.35h5.884V25Zm80.73 24.197h-5.752v5.35h5.752v-5.35ZM74.509 32.9h-5.761v21.645h5.76V32.9Zm10.49 19.424v2.223h-5.76V25H85v10.123c1.277-1.563 3.334-2.633 6.05-2.633 5.967 0 9.424 5.103 9.424 11.234 0 6.13-3.457 11.276-9.423 11.276-2.717 0-4.774-1.07-6.05-2.674m-.124-7.983c0 3.663 2.057 5.72 4.814 5.72 3.25 0 4.98-2.593 4.98-6.337 0-3.744-1.727-6.297-4.98-6.297-2.757 0-4.814 2.017-4.814 5.72v1.194Zm23.166 7.981v2.223h-5.761V25h5.761v10.123c1.276-1.563 3.333-2.633 6.05-2.633 5.967 0 9.423 5.103 9.423 11.234 0 6.13-3.456 11.276-9.423 11.276-2.717 0-4.774-1.07-6.05-2.674m-.123-7.983c0 3.663 2.057 5.72 4.814 5.72 3.25 0 4.979-2.593 4.979-6.337 0-3.744-1.729-6.297-4.979-6.297-2.757 0-4.814 2.017-4.814 5.72v1.194Zm28.434 10.655c-6.256 0-10.617-4.527-10.617-11.276 0-6.75 4.361-11.234 10.617-11.234 6.256 0 10.617 4.527 10.617 11.234s-4.361 11.276-10.617 11.276Zm0-4.773c3.004 0 4.857-2.387 4.857-6.503s-1.851-6.46-4.857-6.46c-3.005 0-4.897 2.386-4.897 6.46 0 4.073 1.894 6.503 4.897 6.503Z"/><path fill="#00585C" d="M149.527 32.9h5.762v2.223c1.193-1.4 3.168-2.633 5.926-2.633 4.527 0 7.284 3.086 7.284 7.777v14.28h-5.761V41.913c0-2.427-.987-4.156-3.456-4.156-2.017 0-3.991 1.44-3.991 4.28v5.037h-5.763V32.902h-.001V32.9ZM48.05 47.025H42V25h12.098c6.79 0 11.03 3.21 11.03 9.3 0 4.486-2.428 7.49-6.585 8.683l7.367 11.564h-6.914l-6.83-10.987H48.05v3.466-.002Zm5.72-8.529c3.537 0 5.35-1.523 5.35-4.156 0-2.634-1.81-4.197-5.35-4.197h-5.72v8.353h5.72Z"/></svg>