<svg xmlns="http://www.w3.org/2000/svg" fill="none" viewBox="0 0 210 80"><path fill="#2015FF" fill-rule="evenodd" d="m22.467 31.485 8.102-4.71V39.99c0 4.9 3.429 9.289 8.174 10.44l.106.023-.07.083a3.65 3.65 0 0 1-.345.404c-.427.427-.901.806-1.4 1.15a9.172 9.172 0 0 1-1.613.866 9.974 9.974 0 0 1-1.78.546c-.64.13-1.185.19-1.779.19h-.059a9.409 9.409 0 0 1-5.279-1.637 9.258 9.258 0 0 1-2.55-2.55 9.502 9.502 0 0 1-.866-1.602 9.228 9.228 0 0 1-.546-1.768c-.13-.652-.142-1.328-.142-1.898v-12.74l.035-.024.012.012Zm20.404 16.643c.474-1.317.712-2.61.712-3.831v-13.95l6.144-3.512V40.05c0 .593-.06 1.162-.166 1.684a7.292 7.292 0 0 1-.498 1.566 7.793 7.793 0 0 1-.783 1.412 8.494 8.494 0 0 1-5.267 3.511.15.15 0 0 0-.071.012l-.119.024.036-.119.012-.012ZM20 30.204v14.021c-.012 6.49 5.267 11.792 11.791 11.815h.036a11.91 11.91 0 0 0 5.895-1.566l8.624-4.934c3.571-1.85 5.801-5.48 5.813-9.49V25.412s-.024-.083-.06-.107a745.93 745.93 0 0 0-2.123-1.234.106.106 0 0 0-.118 0l-8.66 4.864s-.06.06-.06.107v15.243a9.2 9.2 0 0 1-.746 3.665l-.143.32-.024.048h-.047c-.142-.024-.237-.047-.498-.095h-.071c-.546-.119-1.65-.439-2.966-1.281a7.99 7.99 0 0 1-1.246-1.032 7.921 7.921 0 0 1-1.02-1.246 9.16 9.16 0 0 1-.77-1.423 7.99 7.99 0 0 1-.487-1.566c-.095-.474-.142-.973-.13-1.66V25.4s-.024-.083-.06-.107l-2.1-1.281S30.795 24 30.771 24c-.024 0-.036 0-.06.012L20.06 30.097s-.059.06-.059.107Z" clip-rule="evenodd"/><path fill="#0B0B0B" fill-rule="evenodd" d="M78.944 41.77c0 2.467-2.111 4.4-4.804 4.4s-4.745-1.886-4.745-4.4v-9.918h-2.42v9.93c0 3.82 3.013 6.595 7.165 6.595s7.224-2.776 7.224-6.596v-9.928h-2.432v9.916h.012ZM99.846 40.014c0 3.736-2.207 5.955-5.908 5.955H91.08V34.07h2.86c3.7 0 5.907 2.218 5.907 5.943Zm-5.753-8.15H88.66v16.323h5.409c4.982 0 8.197-3.203 8.197-8.173 0-4.97-3.203-8.15-8.173-8.15ZM187.295 31.852l-4.756 6.857-4.793-6.845-.012-.012h-2.74l6.335 9.372v6.951h2.419v-6.951l6.205-9.312.047-.06h-2.705ZM157.307 34.07h5.576v14.105h2.431V34.071h5.588v-2.218h-13.595v2.218ZM148.422 48.175h2.42V31.853h-2.42v16.322ZM139.419 44.237s-1.827 1.922-4.698 1.922c-3.345 0-5.872-2.693-5.872-6.251 0-3.559 2.503-6.014 5.825-6.014 2.693 0 4.401 1.577 4.413 1.589l.344.32 1.293-1.779-.238-.25c-.083-.082-2.028-2.123-5.86-2.123-4.673 0-8.197 3.56-8.197 8.269s3.559 8.47 8.268 8.47c3.951 0 6.133-2.432 6.216-2.527l.238-.261-1.4-1.708-.32.355-.012-.012ZM116.501 40.903l-4.828.984 2.609-6.417 2.219 5.433Zm-1.104-9.051h-2.23l-6.631 16.322h2.562l1.471-3.606 6.857-1.4 2.028 4.97v.025h2.574l-6.619-16.3v-.023l-.012.012Z" clip-rule="evenodd"/></svg>