<svg xmlns="http://www.w3.org/2000/svg" fill="none" viewBox="0 0 210 80"><path fill="#000054" d="m77.568 28.03 18.056 17.89V28.995h3.24v24.659c-6.03-5.952-12.03-11.867-18.069-17.823v16.703h-3.227V28.03Zm87.051 24.524c-.334 0-.667-.008-.997.004-.154.008-.246-.048-.329-.175a6440.545 6440.545 0 0 0-3.875-5.749c-.794-1.17-1.592-2.342-2.374-3.521-.135-.199-.27-.31-.516-.27-.116.02-.235 0-.374 0v9.687h-3.208V29.003c.044-.008.092-.02.139-.02 1.93 0 3.859-.052 5.785.023 2.057.076 3.966.671 5.57 2.021 1.624 1.362 2.343 3.125 2.176 5.237-.191 2.43-1.493 4.11-3.585 5.237-.814.44-1.688.73-2.589.929-.047.012-.099.028-.182.051 2.278 3.351 4.549 6.686 6.852 10.073h-2.493Zm-8.461-12.53c.378 0 .727.008 1.076 0 1.199-.028 2.386-.151 3.514-.592 1.453-.567 2.374-1.56 2.497-3.18.143-1.886-.722-3.232-2.489-3.89-1.04-.386-2.12-.497-3.216-.525-.457-.012-.913 0-1.378 0v8.19l-.004-.003Zm-39.69-8.453-2.279 1.044c-.278.127-.564.243-.838.382-.139.071-.214.031-.333-.056-.484-.357-.957-.742-1.485-1.028-.679-.366-1.445-.373-2.199-.35-.906.028-1.771.203-2.557.695-1.303.818-1.684 2.616-.417 3.804.548.512 1.179.897 1.846 1.226 1.266.624 2.557 1.211 3.815 1.85 1.223.624 2.343 1.398 3.248 2.45 1.354 1.58 1.85 3.426 1.671 5.471-.258 2.994-2.818 5.76-6.193 6.202-2.775.36-5.241-.394-7.278-2.359-1.036-1-1.778-2.211-2.338-3.569 1.016-.465 2.017-.921 3.002-1.37.317.544.599 1.088.936 1.596 1.053 1.588 2.549 2.383 4.447 2.37 1.437-.007 2.7-.468 3.518-1.727.853-1.314.782-2.655-.04-3.97-.699-1.111-1.735-1.802-2.91-2.33-1.267-.568-2.541-1.124-3.78-1.747-1.143-.576-2.16-1.346-2.926-2.394-1.501-2.053-1.735-5.058.485-7.373 1.397-1.453 3.14-2.136 5.133-2.168 2.315-.035 4.407.64 6.209 2.113.441.357.814.794 1.259 1.234l.004.004Zm16.468 20.975h-3.35c3.676-8.167 7.345-16.306 11.033-24.5 3.724 8.182 7.428 16.325 11.148 24.504h-.433c-.897 0-1.79-.008-2.687.004-.199 0-.298-.052-.385-.238-.818-1.799-1.648-3.593-2.458-5.396-.131-.294-.274-.425-.631-.42-3.097.02-6.198.011-9.295.007-.186 0-.277.056-.357.235-.853 1.933-1.719 3.858-2.585 5.8v.004Zm7.683-17.072c-1.263 2.795-2.509 5.546-3.76 8.318h7.524c-1.255-2.776-2.498-5.523-3.76-8.318h-.004Z"/><path fill="#09F" d="M45.02 56c-.123-1.552-.5-3.041-1.08-4.482-.58-1.438-1.354-2.768-2.271-4.01 2.497-2.498 4.983-4.983 7.464-7.468l-7.496-7.496c1.882-2.58 3.12-5.368 3.383-8.544.409 4.252 2.334 7.758 5.3 10.72 2.958 2.957 6.46 4.875 10.704 5.28-4.248.405-7.754 2.327-10.716 5.292-2.958 2.962-4.875 6.464-5.288 10.704V56Z"/><path fill="#000054" d="M171.861 32.206c-1.049 0-2.101 0-3.149-.008-.095 0-.242-.063-.278-.139-.46-.98-.905-1.965-1.35-2.95-.012-.027-.012-.063-.023-.115h14.793v3.208h-5.571v20.336h-3.2V32.206h-1.222Zm-45.09 20.336h-3.188V32.206h-4.372c-.135 0-.234-.008-.301-.162-.433-.973-.878-1.942-1.318-2.91-.016-.036-.028-.08-.048-.14h14.813V32.2h-5.586v20.343ZM70.473 27.62h3.164v24.917h-3.164V27.62Z"/><path fill="#09F" d="M29.004 40.004c3.466-.29 6.448-1.715 9.116-3.82 1.282 1.287 2.56 2.561 3.819 3.824-1.247 1.246-2.517 2.521-3.815 3.815-2.66-2.096-5.646-3.53-9.124-3.82h.004Z"/></svg>