<svg xmlns="http://www.w3.org/2000/svg" fill="none" viewBox="0 0 210 80"><path fill="#D94567" d="M18.02 37.055c.51-.511 1.367-.061 1.25.652a16.453 16.453 0 0 0 0 5.35c.118.714-.74 1.163-1.25.652l-2.803-2.804a.742.742 0 0 1 0-1.048l2.803-2.802Zm11.36-7.004c-.897 0-1.791.073-2.676.219-.713.118-1.162-.74-.652-1.25l2.804-2.803a.742.742 0 0 1 1.048 0l2.802 2.803c.512.511.062 1.368-.651 1.25a16.424 16.424 0 0 0-2.675-.22Zm0 20.661c.896 0 1.79-.073 2.675-.219.714-.118 1.163.739.652 1.25l-2.802 2.803a.74.74 0 0 1-1.048 0l-2.804-2.803c-.511-.511-.062-1.368.652-1.25.884.146 1.778.219 2.675.219Zm11.364-7.003c-.512.512-1.368.062-1.25-.651.292-1.772.292-3.58 0-5.353-.119-.713.739-1.163 1.25-.651l2.803 2.803a.742.742 0 0 1 0 1.048l-2.803 2.804ZM29.38 47.02a6.643 6.643 0 0 1-6.635-6.636 6.642 6.642 0 0 1 6.635-6.636 6.642 6.642 0 0 1 6.636 6.636 6.643 6.643 0 0 1-6.636 6.635Zm0-10.01a3.375 3.375 0 0 0-3.308 4.031 3.368 3.368 0 0 0 2.65 2.65 3.374 3.374 0 0 0 4.03-3.308 3.378 3.378 0 0 0-3.372-3.372Z"/><path fill="#000" d="M64.657 34.826v-1.132h-1.133V32.56h-9.065v15.863h2.266v-6.798h6.798v-1.133h1.134v-1.133h1.133v-4.533h-1.133Zm-1.133 3.4H62.39v1.133h-5.665v-4.533h5.665v1.133h1.133v2.266Zm13.61 1.133v-1.134H76v-1.133h-6.799v2.267h5.665v1.133h1.134v1.133h-6.799v1.133H68.07v1.133h-1.133v2.266h1.133v1.133h1.133v1.133h9.065V39.36h-1.133ZM76 46.157h-5.666v-2.266h5.666v2.266Zm14.738-5.665h1.133v7.931h2.267V39.36h-1.133v-1.134h-1.134v-1.133h-6.798V32.56h-2.266v15.863h2.266V39.36h5.665v1.133Zm17.001-7.932v4.532h-6.798v1.133h-1.133v1.134h-1.134v6.798h1.133v1.133h1.134v1.133h9.064V32.56h-2.266Zm0 13.597h-5.665v-1.133h-1.133v-4.532h1.133v-1.133h5.665v6.798Zm17.001-6.798v-1.134h-1.133v-1.133h-6.799v1.133h-1.133v1.134h-1.133v6.798h1.133v1.133h1.133v1.133h6.799V47.29h1.133v-1.133h1.132v-6.798h-1.132Zm-1.133 5.665h-1.134v1.133h-4.532v-1.133h-1.133v-4.532h1.133v-1.133h4.532v1.133h1.134v4.532Zm18.133 3.4h10.198v-2.267h-7.932V32.56h-2.266v15.863Zm22.653-9.065v-1.134h-1.133v-1.133h-6.799v2.267h5.665v1.133h1.134v1.133h-6.799v1.133h-1.133v1.133h-1.133v2.266h1.133v1.133h1.133v1.133h9.065V39.36h-1.133Zm-1.133 6.798h-5.666v-2.266h5.666v2.266Zm17.005-6.798v-1.134h-1.134v-1.133h-6.798V32.56h-2.266v15.863h9.064V47.29h1.134v-1.133h1.133v-6.798h-1.133Zm-1.134 5.665h-1.133v1.133h-5.665v-6.798h5.665v1.133h1.133v4.532Zm7.937-2.266h1.133v1.133h3.399v2.266h-5.666v2.266h6.799V47.29h1.133v-1.133H195v-2.266h-1.133v-1.133h-1.133v-1.133h-3.399v-2.266H195v-2.267h-6.798v1.133h-1.133v1.134h-1.134v2.266h1.134v1.133Z"/></svg>