<svg xmlns="http://www.w3.org/2000/svg" fill="none" viewBox="0 0 210 80"><path fill="#000" d="M46.786 28.612c1.356 1.067 2.033 2.622 2.033 4.655h-4.865c0-1.8-.967-2.689-2.911-2.689a3.208 3.208 0 0 0-1.855.456 1.45 1.45 0 0 0-.656 1.255c-.022.389.123.767.4 1.033.334.3.733.511 1.167.633.51.167 1.31.4 2.4.69 1.243.31 2.477.7 3.676 1.166.911.366 1.7.966 2.311 1.744.645.8.967 1.9.967 3.31a4.941 4.941 0 0 1-2.2 4.2c-1.466 1.055-3.455 1.588-5.943 1.577-2.622 0-4.655-.555-6.11-1.655-1.478-1.111-2.2-2.755-2.2-4.933h5.177c-.045.8.255 1.578.833 2.122.556.511 1.355.767 2.4.767.7.044 1.4-.122 2-.478.455-.278.721-.778.71-1.31a1.708 1.708 0 0 0-.433-1.223 2.981 2.981 0 0 0-1.222-.722c-.522-.178-1.389-.433-2.6-.744a30.144 30.144 0 0 1-3.399-1.067 5.057 5.057 0 0 1-2.11-1.622c-.6-.755-.89-1.8-.89-3.121a4.69 4.69 0 0 1 .967-2.922c.7-.9 1.633-1.6 2.688-2.022a10.587 10.587 0 0 1 3.978-.71c2.433 0 4.321.544 5.676 1.61h.011Zm12.454 21.64a6.494 6.494 0 0 1-2.744 2.111 10.92 10.92 0 0 1-3.966.634c-.889 0-1.789-.09-2.655-.29v-4.065c.633.21 1.3.31 1.966.289a3.542 3.542 0 0 0 2.455-.822 2.73 2.73 0 0 0 .922-2.167c0-.389-.066-.777-.166-1.155-.111-.433-.345-1.166-.711-2.178L49.119 27.59h5.455l1.889 6.177c.766 2.556 1.444 5.139 2.032 7.743h.067c.722-2.977 1.433-5.555 2.133-7.743l2-6.177h5.243l-6.62 18.574a15.39 15.39 0 0 1-2.067 4.089h-.011Zm25.162-21.151c1.21 1.3 1.822 3.166 1.822 5.61v11.354h-5.088V35.233c0-1.355-.289-2.377-.855-3.055a2.952 2.952 0 0 0-2.378-1.022 3.181 3.181 0 0 0-2.633 1.289c-.666.866-1 2.1-1 3.721v9.887h-5.087V27.59h4.765v2.322h.067a7.171 7.171 0 0 1 2.333-2.022 6.5 6.5 0 0 1 3.088-.744c2.11 0 3.766.644 4.988 1.944l-.022.01Zm42.237 0c1.211 1.3 1.822 3.166 1.822 5.61v11.354h-5.088V35.233c0-1.355-.289-2.377-.856-3.055a2.95 2.95 0 0 0-2.377-1.022 3.182 3.182 0 0 0-2.633 1.289c-.666.866-1 2.1-1 3.721v9.887h-5.088V27.59h4.766v2.322h.067a7.17 7.17 0 0 1 2.333-2.022 6.5 6.5 0 0 1 3.088-.744c2.111 0 3.766.644 4.988 1.944l-.022.01Zm12.253 21.152a6.581 6.581 0 0 1-2.744 2.11c-1.266.456-2.61.667-3.966.634-.888 0-1.788-.09-2.655-.29v-4.065c.634.21 1.3.31 1.967.289a3.543 3.543 0 0 0 2.455-.822 2.73 2.73 0 0 0 .922-2.167c0-.389-.067-.777-.167-1.155-.111-.433-.344-1.166-.711-2.178l-5.232-15.008h5.454l1.889 6.177a115.325 115.325 0 0 1 2.033 7.743h.078c.722-2.977 1.444-5.555 2.144-7.743l1.999-6.177h5.233l-6.621 18.575a14.978 14.978 0 0 1-2.089 4.088l.011-.011Zm36.049-21.174c1.156 1.288 1.733 3.166 1.733 5.632v11.354h-5.099V35.233c0-1.355-.255-2.377-.766-3.055a2.551 2.551 0 0 0-2.133-1.022 2.799 2.799 0 0 0-2.511 1.4c-.589.933-.877 2.266-.877 4.01v9.487H160.2V34.878c0-1.178-.245-2.1-.745-2.767a2.51 2.51 0 0 0-2.155-.977 2.778 2.778 0 0 0-2.511 1.4c-.577.933-.877 2.266-.877 4.01v9.487h-5.088V27.59h4.799v2.11h.078c.6-.8 1.366-1.466 2.255-1.921a6.267 6.267 0 0 1 2.866-.622 6.572 6.572 0 0 1 3.333.8 5.32 5.32 0 0 1 2.166 2.366 7.79 7.79 0 0 1 2.489-2.366 6.672 6.672 0 0 1 3.421-.8c2 0 3.566.644 4.722 1.922h-.012ZM89.523 46.053h18.475V27.59H89.523v18.463Z"/></svg>