<svg xmlns="http://www.w3.org/2000/svg" fill="none" viewBox="0 0 210 80"><path fill="#000" d="M175.62 50.01c2.528 0 4.521-1.245 4.855-4.17H188c-.534 6.373-5.436 10.306-12.389 10.306-7.821 0-12.876-5.082-12.876-12.938V24h7.678v19.198c0 4.75 2.041 6.811 5.198 6.811h.009ZM173.818 31h10.825l-3.377 7.058h-10.825l3.377-7.058Zm-139.764 0h10.835l-3.367 7.058H30.687l3.367-7.058ZM30.687 43.189c0 4.75 2.041 6.81 5.198 6.81 2.528 0 4.521-1.244 4.855-4.17h7.525c-.534 6.375-5.436 10.307-12.39 10.307-7.82 0-12.875-5.082-12.875-12.938v-5.13h7.678v5.13l.01-.01Z"/><path fill="#000" fill-rule="evenodd" d="M110.784 43.274c0-7.808 5.102-12.938 12.923-12.938s12.924 5.32 12.914 13.66v1.482h-18.55c.534 3.543 2.765 5.225 5.732 5.225 2.527 0 4.177-1.007 5.055-2.784h7.191c-1.364 5.225-6.219 8.293-12.237 8.293-7.773 0-13.019-5.082-13.019-12.938h-.009Zm12.828-7.428c-2.766 0-4.902 1.434-5.494 4.892h11.073c-.534-3.068-2.527-4.892-5.589-4.892h.01Z" clip-rule="evenodd"/><path fill="#000" d="M86.654 31.438c-2.709.96-3.834 3.505-4.922 5.947l-.467 1.045h-.105v-7.448h-6.934v24.47h7.42V43.721c0-2.774 1.918-5.044 4.617-5.69 1.688-.409 3.443-.276 5.179-.143v-6.877c-1.603-.143-3.262-.095-4.779.437l-.01-.01Zm13.925 5.937c1.077-2.441 2.212-4.977 4.921-5.946 1.516-.542 3.166-.58 4.778-.437v6.877c-1.726-.133-3.49-.266-5.179.143-2.699.655-4.606 2.916-4.606 5.69v11.732h-7.42V30.973h6.933v7.447h.105l.468-1.045ZM64.86 44.32c0 2.907-.8 5.11-4.244 5.11-3.443 0-3.891-2.336-3.891-5.072V31.001h-7.42v15.294c0 2.261.295 4.693 1.65 6.593.343.484.753.921 1.201 1.31 2.843 2.423 7.487 2.822 10.33.257 1.573-1.425 2.126-3.277 2.699-5.206l.066-.218h.124v6.44h6.896v-24.47h-7.42V44.32h.01Zm83.025-12.302c2.842-2.555 7.496-2.156 10.329.257.454.385.858.826 1.202 1.31 1.354 1.9 1.65 4.323 1.65 6.593v15.294h-7.411V42.115c0-2.736-.534-5.072-3.891-5.072s-4.244 2.203-4.244 5.11v13.319h-7.421V31.01h6.896v6.421h.124c.019-.066.038-.142.067-.209.572-1.928 1.125-3.78 2.699-5.206Z"/></svg>