<svg xmlns="http://www.w3.org/2000/svg" fill="none" viewBox="0 0 210 80"><path fill="#FDC113" d="M210 27.434v1.36H103.337L88.938 43.2l-20.27-20.27-5.393 5.392-.487.487-.477.482-30.556 30.556H0v-1.365h31.187l30.141-30.142L68.668 21l20.27 20.27 13.836-13.836H210Z"/><path fill="#E21D60" d="M210 23.063v1.36h-96.25l-3.686 3.69-.676.681-20.58 20.617L68.6 29.3l-2.117 2.14-.96.968-22.847 23.069H0v-1.361h42.104L64.54 31.457l.96-.969 3.09-3.122 20.216 20.117 20.014-20.05 4.361-4.37H210Z"/><path fill="#93D7E4" d="M210 31.854v1.36l-98.652-.103-22.144 22.302-23.68-23.005-.492-.473-.491-.478-2.23-2.167-.491-.477-.492-.474-2.036-1.982L34.494 51.52H0v-1.365h33.922L59.27 24.433l3.027 2.938.487.478.49.472 2.227 2.167.49.478.492.473 22.703 22.06 21.595-21.753 99.219.108Z"/><path fill="#000" d="M119.282 46.825h-.144l-4.258-4.41v4.41h-.779V40.69h.162l4.24 4.375v-4.375h.779v6.136Zm6.209-5.483v2.113h3.127v.672h-3.127v2.027h3.537v.671h-4.326V40.69h4.326v.653h-3.537Zm12.741 0h-1.856v5.483h-.779v-5.483h-1.87v-.653h4.505v.653Zm7.376-.775c-1.811 0-3.136 1.433-3.136 3.19s1.325 3.19 3.136 3.19c1.811 0 3.149-1.424 3.149-3.19s-1.325-3.19-3.149-3.19Zm0 5.682c-1.293 0-2.357-1.163-2.357-2.488 0-1.324 1.064-2.482 2.357-2.482 1.293 0 2.361 1.162 2.361 2.482 0 1.32-1.055 2.488-2.361 2.488Zm7.839-2.483c0-1.762 1.406-3.194 3.136-3.194.996 0 1.901.486 2.474 1.216l-.672.428c-.428-.554-1.072-.933-1.802-.933-1.288 0-2.356 1.167-2.356 2.483s.973 2.474 2.347 2.474 2.163-.762 2.244-1.884h-2.456v-.671h3.267s.018.243-.018.622c-.135 1.55-1.172 2.649-3.041 2.649-1.87 0-3.127-1.424-3.127-3.186l.004-.004Zm14.445.937c.914-.212 1.514-.905 1.514-1.978 0-1.198-.847-2.036-2.032-2.036h-2.695v6.132h.784v-2.068h1.577l1.501 2.068h.932l-1.577-2.118h-.004Zm-2.429-3.36h1.83c1.072 0 1.338.918 1.338 1.382 0 .946-.586 1.352-1.401 1.352h-1.767v-2.735Zm11.521-.654h-.167l-3.019 6.132h.888l.545-1.163h3.33l.545 1.163h.897l-3.019-6.132Zm-1.419 4.307 1.342-2.838 1.325 2.838h-2.667Zm11.727-4.307h-2.446v6.132h.788v-1.97h1.676c1.519 0 2.289-.896 2.289-2.054 0-1.157-.721-2.113-2.302-2.113l-.005.005Zm.059 3.505h-1.717v-2.847h1.667c1.014 0 1.51.734 1.51 1.455 0 .72-.482 1.392-1.46 1.392Zm12.331-3.505v6.136h-.784v-2.622h-3.649v2.622h-.784V40.69h.784v2.852h3.649v-2.852h.784Zm10.318 0-2.298 3.811v2.325h-.788v-2.338l-2.28-3.798h.906l1.766 3.028 1.779-3.028H210Z"/></svg>