<svg xmlns="http://www.w3.org/2000/svg" fill="none" viewBox="0 0 210 80"><path fill="#C28C3D" d="M65.55 40.318v9.718l-.942 2.002.942 1.99v9.677c0 .565-.288 1.051-.865 1.459-.577.408-1.268.612-2.076.612h-7.958v-27.53h7.958c.808 0 1.5.204 2.076.612.577.408.865.895.865 1.46Zm-4.325 10.176v-8.778c0-.296-.212-.443-.634-.443h-1.615v9.22h2.25Zm-.634 12.259c.422 0 .634-.148.634-.443v-8.778h-2.249v9.22h1.615ZM79.318 46.81h-4.325v-5.537h-1.615c-.422 0-.634.147-.634.443v8.778h3.633v3.038h-3.633v8.778c0 .295.212.443.634.443h1.615v-5.538h4.325v8.563h-7.94c-.807 0-1.502-.202-2.085-.605-.583-.403-.875-.892-.875-1.465V40.319c0-.565.288-1.05.865-1.458.577-.407 1.275-.612 2.095-.612h7.94v8.562Zm7.828 15.942h1.615v-5.538h4.326v8.563h-7.94c-.808 0-1.503-.202-2.086-.605-.583-.403-.875-.892-.875-1.465v-25.46h4.326V62.31c0 .295.212.443.634.443Zm13.133-24.504v27.53h-4.326v-27.53h4.326Zm13.768 8.562h-4.326v-5.537h-1.615c-.422 0-.634.147-.634.443v8.778h3.633v3.038h-3.633v8.778c0 .295.212.443.634.443h1.615v-5.538h4.326v8.563h-7.94c-.807 0-1.503-.202-2.085-.605-.584-.403-.876-.892-.876-1.465V40.319c0-.565.288-1.05.865-1.458.577-.407 1.275-.612 2.095-.612h7.94v8.562h.001Zm27.534 0h-4.325v-5.537h-1.615c-.423 0-.634.147-.634.443v8.778h3.632v3.038h-3.632v8.778c0 .295.211.443.634.443h1.615v-5.538h4.325v8.563h-7.94c-.807 0-1.502-.202-2.085-.605-.584-.403-.875-.892-.875-1.465V40.319c0-.565.288-1.05.865-1.458.577-.407 1.274-.612 2.094-.612h7.94v8.562h.001Zm13.768 2.702c0 .7-.377 1.259-1.134 1.68l-1.385.82 1.423.82c.73.42 1.095.98 1.095 1.68v11.264h-4.325V53.933c0-.108-.058-.202-.173-.282a.723.723 0 0 0-.423-.12h-1.057a.731.731 0 0 0-.413.12c-.123.08-.183.175-.183.282v11.843h-4.326v-25.19c0-.645.333-1.197.999-1.654.667-.456 1.461-.685 2.385-.685h7.515v11.265h.002Zm-4.325.578v-8.818h-1.654a.7.7 0 0 0-.413.128c-.123.085-.183.181-.183.289v8.401c0 .107.06.201.183.282a.73.73 0 0 0 .413.121h1.057c.153 0 .291-.04.413-.121.123-.08.184-.175.184-.282Zm-27.459-11.842v17.81l-1.019 3.808c-.025.036-.079.053-.163.054-.083 0-.137-.018-.162-.054l-1.019-3.808v-17.81h-4.287v18.791c0 .664 4.364 8.429 4.364 8.429.346.206.706.309 1.077.309l.028-.002.029.002c.371 0 .731-.104 1.077-.31 0 0 4.364-7.764 4.364-8.428V38.248h-4.289Z"/><path fill="#C28C3D" d="M115.726 29.66c.082-.534.124-1.08.124-1.636 0-.01 0-.021-.103.015l12.334-5.677-1.329-2.865-11.41 5.252c-.27-.845-.64-1.646-1.099-2.388l8.704-10.751-2.467-1.98-8.319 10.275a10.826 10.826 0 0 0-5.556-2.576V0h-3.168v17.324a10.814 10.814 0 0 0-5.574 2.558L89.56 9.626l-2.464 1.985 8.679 10.72c-.467.748-.845 1.559-1.118 2.417l-11.459-5.254-1.325 2.86 12.276 5.635v.034c0 .556.042 1.102.123 1.636H46V74.4h14.152l3.919 3.733h4.092L70.123 80h69.763l1.829-1.743h4.084l4.051-3.859H164V29.66h-48.274Zm-3.043-1.636c0 .562-.063 1.109-.179 1.635h-4.168l3.739-4.62c.391.918.608 1.927.608 2.985Zm-6.077-7.487a7.673 7.673 0 0 1 3.564 1.829l-3.564 4.401v-6.23Zm-3.167-.01v6.24l-3.583-4.424a7.674 7.674 0 0 1 3.583-1.816Zm-5.498 4.478 3.768 4.654h-4.213a7.58 7.58 0 0 1 .445-4.654ZM64.449 77.194l-2.652-2.526h2.731l2.65 2.526H64.45Zm74.957 1.613H70.604l-7.287-6.945h83.376l-7.287 6.945Zm6.016-1.488h-2.723l2.65-2.525h2.724l-2.651 2.525Zm14.253-7.232H50.325V33.97h109.35v36.117Z"/><path fill="#C28C3D" d="M79.237 75.896a1.23 1.23 0 0 1-.401.335 1.204 1.204 0 0 1-.548.114c-.285 0-.507-.096-.661-.286-.155-.191-.234-.447-.234-.761 0-.315.086-.556.254-.735.168-.178.403-.269.696-.269.168 0 .325.032.466.096.14.063.254.157.337.278l.007.01.03-.014-.071-.722-.01-.003a2.805 2.805 0 0 0-.756-.101c-.323 0-.609.06-.852.182a1.335 1.335 0 0 0-.567.523 1.54 1.54 0 0 0-.201.794c0 .277.062.53.185.752.123.222.302.4.531.525.23.127.499.19.802.19.302 0 .606-.052.914-.154l.008-.003.106-.746-.03-.013-.007.01.002-.002Zm4.078.277-.387-.596a.834.834 0 0 0 .418-.285.853.853 0 0 0 .155-.526.78.78 0 0 0-.292-.639c-.193-.154-.463-.233-.803-.233h-1.228v.032l.006.004a.44.44 0 0 1 .157.202.91.91 0 0 1 .067.37v1.619a.96.96 0 0 1-.067.38.442.442 0 0 1-.157.207l-.006.005v.03h1.06v-.03l-.007-.004a.479.479 0 0 1-.144-.206.95.95 0 0 1-.063-.366v-1.81l.284-.005c.178-.002.316.039.413.122a.43.43 0 0 1 .144.342c0 .17-.047.296-.14.372-.093.077-.234.116-.417.116h-.232l.676 1.097c.09.145.163.295.217.448l.004.011.9-.154v-.031l-.01-.004c-.2-.063-.384-.22-.547-.468h-.001Zm4.408-.232a.857.857 0 0 1-.35.28 1.222 1.222 0 0 1-.496.095h-.45v-.883h.377c.12 0 .218.02.293.06a.344.344 0 0 1 .16.187l.003.009h.031l.13-.714-.02.003a4.063 4.063 0 0 1-.268.022 9.048 9.048 0 0 1-.396.005h-.31v-.684h.55c.164 0 .304.025.415.074.111.048.192.122.241.218l.007.013.031-.014-.075-.753-.017.003a2.322 2.322 0 0 1-.45.032h-1.547v.032l.007.004c.059.039.112.108.157.207a.945.945 0 0 1 .067.38v1.603a.948.948 0 0 1-.067.38.46.46 0 0 1-.157.207l-.007.005v.031h1.522c.121 0 .22.002.292.006.072.004.149.013.227.026l.015.003.123-.834-.03-.014-.007.01-.001.001Zm4.045-1.876a1.752 1.752 0 0 0-.79-.17h-1.254v.03l.007.005a.47.47 0 0 1 .155.217.95.95 0 0 1 .068.371v1.603a.948.948 0 0 1-.067.38.462.462 0 0 1-.157.207l-.007.005v.03h1.186c.52 0 .915-.123 1.176-.37.26-.246.393-.601.393-1.055 0-.293-.063-.55-.186-.762a1.233 1.233 0 0 0-.525-.49v-.001Zm-1.198.26h.36c.3 0 .524.082.669.24.144.16.218.413.218.752s-.075.572-.223.741c-.147.168-.363.255-.642.255h-.382v-1.988Zm6.24-.327a1.713 1.713 0 0 0-.806-.185c-.326 0-.613.064-.853.19a1.33 1.33 0 0 0-.555.538c-.127.23-.192.5-.192.805 0 .28.062.535.184.758.121.223.302.401.534.529.231.128.507.192.819.192.311 0 .595-.064.837-.192a1.38 1.38 0 0 0 .566-.544c.133-.232.2-.501.2-.8 0-.299-.064-.547-.192-.77a1.322 1.322 0 0 0-.542-.52v-.001Zm-.368 2.247a.852.852 0 0 1-.46.128c-.293 0-.52-.095-.676-.283-.156-.188-.235-.453-.235-.786 0-.207.036-.392.108-.548a.836.836 0 0 1 .308-.362.857.857 0 0 1 .474-.13c.285 0 .51.094.672.279.163.185.244.45.244.786 0 .207-.039.393-.115.551a.868.868 0 0 1-.32.365Zm5.74-2.32.007.005a.48.48 0 0 1 .157.207.948.948 0 0 1 .067.38v1.603a.952.952 0 0 1-.067.38.462.462 0 0 1-.157.207l-.007.005v.031h1.081v-.031l-.007-.005a.466.466 0 0 1-.157-.206.947.947 0 0 1-.067-.381v-1.602c0-.152.023-.279.067-.38.044-.1.097-.17.157-.208l.007-.004v-.032h-1.081v.032Zm5.018 0 .007.005c.06.036.11.105.15.204.04.1.061.23.061.384v.73c0 .285.019.546.058.776a5.446 5.446 0 0 0-.373-.752l-.615-.981a1.9 1.9 0 0 1-.131-.235.558.558 0 0 1-.041-.148l-.002-.013h-.997v.032l.006.004a.442.442 0 0 1 .165.23.988.988 0 0 1 .059.338v1.623a.952.952 0 0 1-.067.379.469.469 0 0 1-.157.208l-.006.004v.032h1.016v-.032l-.007-.004a.412.412 0 0 1-.15-.204c-.039-.1-.061-.23-.061-.383v-.69a4.843 4.843 0 0 0-.063-.864c.056.16.114.3.171.419.066.136.149.284.249.438l.603.929c.09.14.161.268.212.383l.004.009h.926v-.032l-.006-.004a.444.444 0 0 1-.157-.207.966.966 0 0 1-.067-.38V74.52c0-.151.023-.28.067-.38.045-.102.097-.171.157-.207l.006-.005v-.031h-1.016v.031l-.001-.002Zm7.814 2.025a.828.828 0 0 1-.348.269c-.143.06-.308.09-.494.09h-.408v-1.79c0-.152.023-.28.068-.38a.46.46 0 0 1 .156-.208l.007-.004v-.032h-1.077v.032l.007.004a.442.442 0 0 1 .156.202.914.914 0 0 1 .067.37v1.618a.952.952 0 0 1-.067.38.468.468 0 0 1-.156.208l-.007.004v.032h1.531c.105 0 .192.001.258.006.067.004.138.012.214.026l.015.002.115-.825-.03-.014-.007.01Zm3.551-2.025.006.004c.055.039.104.11.146.21.044.103.066.23.066.379v1.095c0 .255-.048.445-.142.565-.093.119-.243.179-.445.179-.228 0-.391-.056-.485-.167-.094-.112-.141-.306-.141-.577v-1.095a.97.97 0 0 1 .065-.38c.042-.1.092-.17.146-.209l.006-.004v-.03h-1.068v.03l.007.005c.059.039.112.11.156.208.044.101.067.228.067.38v1.05c0 .411.104.725.308.932.204.207.504.313.89.313.415 0 .729-.105.933-.311.204-.207.308-.52.308-.933v-1.051c0-.154.023-.282.067-.381a.472.472 0 0 1 .156-.207l.007-.004v-.032h-1.054v.03h.001Zm5.055.14a1.759 1.759 0 0 0-.791-.17h-1.253v.03l.007.005c.057.036.109.11.154.217.046.108.07.233.07.371v1.603a.952.952 0 0 1-.067.38.469.469 0 0 1-.156.207l-.007.005v.03h1.185c.52 0 .916-.123 1.176-.37.261-.246.394-.601.394-1.055 0-.293-.062-.55-.186-.762a1.233 1.233 0 0 0-.525-.49l-.001-.001Zm-1.199.26h.362c.299 0 .523.082.667.24.146.16.219.413.219.752s-.075.572-.223.741c-.147.168-.363.255-.642.255h-.383v-1.988Zm6.241-.327a1.714 1.714 0 0 0-.806-.185c-.325 0-.612.064-.852.19a1.331 1.331 0 0 0-.555.538c-.127.23-.192.5-.192.805 0 .28.062.535.184.758.121.223.301.401.533.529.232.128.508.192.819.192.311 0 .595-.064.837-.192a1.38 1.38 0 0 0 .566-.544c.134-.233.201-.502.201-.8 0-.298-.065-.547-.192-.77a1.324 1.324 0 0 0-.542-.52l-.001-.001Zm-.367 2.247a.853.853 0 0 1-.46.128c-.293 0-.52-.095-.676-.283-.157-.188-.236-.453-.236-.786 0-.208.037-.392.108-.548a.837.837 0 0 1 .309-.362.855.855 0 0 1 .474-.13c.284 0 .51.094.672.279.162.185.244.45.244.786 0 .207-.039.393-.116.551a.865.865 0 0 1-.319.365Zm4.896-.754a.893.893 0 0 0-.292-.28 3.057 3.057 0 0 0-.429-.2 4.076 4.076 0 0 1-.283-.123.512.512 0 0 1-.162-.124.26.26 0 0 1-.063-.177c0-.2.156-.297.476-.297.137 0 .262.024.372.072.11.047.207.133.291.254l.004.007h.032l-.058-.692-.01-.003a2.826 2.826 0 0 0-.674-.085c-.216 0-.401.035-.557.106a.866.866 0 0 0-.359.288.682.682 0 0 0-.124.392c0 .177.039.325.114.438a.84.84 0 0 0 .272.263c.104.06.242.124.41.19.124.048.223.09.295.129.071.036.13.085.177.144.046.057.07.13.07.212 0 .235-.168.35-.515.35-.168 0-.322-.033-.457-.098a1.121 1.121 0 0 1-.382-.323l-.007-.009-.029.014.074.692v.007l.007.003c.092.052.214.093.361.122.147.028.307.043.475.043.232 0 .432-.037.596-.111a.768.768 0 0 0 .495-.732c0-.191-.04-.35-.122-.47l.002-.001Z"/></svg>