<svg xmlns="http://www.w3.org/2000/svg" fill="none" viewBox="0 0 210 80"><path fill="#000" d="M53.99 53.394c-2.07 1.225-4.329 1.579-6.615 1.606H34.363c-4.356-.027-8.03-1.524-10.48-5.308-4.628-7.132-.273-16.578 8.139-17.694a15.731 15.731 0 0 1 2.26-.136h13.093c2.531 0 4.954.49 7.132 1.905 3.076 2.042 4.873 4.9 5.172 8.602.408 4.791-1.606 8.439-5.69 11.025Zm-4.982-6.37c2.123-.572 3.212-2.069 2.967-4.11-.19-1.742-1.742-3.158-3.648-3.185h-14.89c-1.252 0-2.313.544-3.048 1.606-.763 1.143-.899 2.368-.3 3.62.653 1.361 1.824 2.096 3.321 2.123 2.586.055 5.145.055 7.731.028 2.586 0 5.145.109 7.867-.082Zm22.648-10.317c3.076-5.145 9.882-6.043 14.4-3.348 4.928 2.967 6.044 9.636 3.294 14.237-2.83 4.736-9.391 6.288-14.29 3.375-4.737-2.804-6.29-9.228-3.404-14.264Zm14.128 5.499c-.054-1.824-.571-3.43-2.068-4.546-2.26-1.688-5.69-1.252-7.35.953-1.77 2.286-1.361 6.26.844 7.948 1.742 1.334 3.675 1.443 5.607.6 2.07-.872 2.859-2.669 2.967-4.955Zm73.226 5.254c1.77-.79 2.396-2.233 2.396-3.975l-.055-10.317c0-.707.191-1.061.98-1.007 1.089.055 2.178.027 3.267 0 .599 0 .871.163.871.844v18.211c0 .654-.218.926-.898.898-1.035-.054-2.069-.027-3.076 0-.599.028-.926-.136-.871-.816.027-.327-.055-.68-.082-1.143-1.388 1.197-2.858 1.932-4.573 2.15-3.866.49-7.704-2.341-8.33-6.234-.163-1.061-.163-2.096-.163-3.157V33.25c0-1.062 0-1.062 1.089-1.062h3.157c.599 0 .762.218.79.817.081 3.484-.028 6.996-.055 10.48 0 2.096.953 3.593 2.641 4.138.952.3 1.905.218 2.912-.163Zm-31.196 3.783V50.4c-.353-.164-.462.108-.598.217-2.586 1.988-5.417 2.341-8.303.871-2.777-1.415-4.11-3.838-4.165-6.941l-.027-11.46c0-.708.218-.98.925-.953 1.089.054 2.178.027 3.24 0 .626-.027.844.218.844.844v10.398c0 .463.027.926.163 1.361.517 2.124 2.042 3.185 4.274 2.968a3.776 3.776 0 0 0 3.43-3.703l.027-10.643c0-1.225 0-1.225 1.198-1.225h2.994c.599 0 .898.218.871.844V51.27c0 .599-.245.816-.817.79a64.292 64.292 0 0 0-3.239 0c-.544.053-.871-.11-.817-.818Zm56.322-12.984c-.381.245-.517-.055-.708-.245-1.742-1.66-3.838-2.178-6.152-1.688-.327.054-.681.19-.98.354-.953.572-1.007 1.688-.109 2.34.871.627 1.933.681 2.94.763 1.552.136 3.076.272 4.546.817 3.212 1.252 4.655 4.655 3.267 7.785-.708 1.606-1.987 2.668-3.594 3.212-4.573 1.552-8.874 1.008-12.658-2.177-.871-.735-.843-.763-.081-1.607.571-.626 1.17-1.197 1.715-1.85.435-.518.762-.572 1.306-.055 1.906 1.824 4.22 2.613 6.86 2.15.327-.054.626-.163.926-.272.68-.272 1.143-.79 1.143-1.524 0-.762-.517-1.225-1.198-1.497-1.007-.409-2.069-.409-3.103-.49-1.171-.11-2.314-.245-3.43-.654-2.395-.843-3.893-2.477-4.056-5.063-.163-2.395.926-4.22 3.022-5.444 3.185-1.851 9.446-1.66 12.494 1.388.735.735.763.735.055 1.47l-2.205 2.287Zm-85.095 2.096c-.3 1.306-.326 2.504.028 3.756 1.252 4.11 6.152 4.356 8.411 2.314.572-.517.898-.49 1.388.055.762.816 1.552 1.579 2.341 2.368.354.354.327.599-.027.925-5.09 4.791-15.08 3.321-17.095-4.981-1.361-5.608 1.606-11.624 8.194-12.712 3.185-.518 6.125.19 8.656 2.34.79.681.79.736.055 1.443-.735.763-1.498 1.47-2.233 2.26-.381.38-.626.462-1.061.027-2.314-2.477-7.459-2.069-8.657 2.205Zm44.126-12.223v22.84c0 1.115 0 1.142-1.088 1.142-1.008 0-2.015-.027-2.995 0-.653.028-.898-.163-.898-.87V25.872c0-.626.19-.898.817-.871 1.143.027 2.286.027 3.402 0 .545 0 .79.19.762.762-.027.762 0 1.524 0 2.368Z"/></svg>