<svg xmlns="http://www.w3.org/2000/svg" fill="none" viewBox="0 0 210 80"><path fill="#3372F6" fill-rule="evenodd" d="M32.124 31.076c.475-.665.665-1.424.665-2.184 0-1.044-.38-1.993-1.14-2.753-.664-.76-1.708-1.139-2.753-1.139-.76 0-1.519.19-2.183.665a4.186 4.186 0 0 0-1.424 1.708c-.285.76-.38 1.52-.19 2.279.095.76.474 1.519 1.044 1.994.57.57 1.234.949 1.994 1.044.76.095 1.519.095 2.278-.19.76-.285 1.33-.76 1.71-1.424Zm11.108 0c.474-.665.664-1.424.664-2.184 0-1.044-.38-1.993-1.139-2.753A3.964 3.964 0 0 0 40.004 25c-.76 0-1.52.19-2.184.665-.664.474-1.139 1.044-1.424 1.708-.285.76-.38 1.52-.19 2.279.19.76.57 1.424 1.045 1.994.57.57 1.234.949 1.993 1.044.76.19 1.52.095 2.279-.19.664-.285 1.234-.76 1.709-1.424Zm-10.443 8.83c0 .759-.19 1.518-.665 2.183-.475.664-1.044 1.139-1.709 1.424-.76.285-1.519.38-2.278.19-.76-.19-1.424-.57-1.994-1.045-.57-.57-.95-1.234-1.044-1.993-.19-.76-.095-1.52.19-2.279.284-.76.76-1.329 1.424-1.709.664-.474 1.424-.664 2.183-.664 1.045 0 1.994.38 2.753 1.139.76.76 1.14 1.804 1.14 2.753Zm21.455 13.29c.475-.664.665-1.424.665-2.183 0-1.045-.38-1.994-1.14-2.753a3.802 3.802 0 0 0-2.752-1.14c-.76 0-1.52.19-2.184.665-.665.475-1.14 1.044-1.424 1.709-.285.76-.38 1.519-.19 2.278.19.76.57 1.424 1.044 1.994.57.57 1.235.95 1.994 1.044.76.19 1.519.095 2.279-.19a4.188 4.188 0 0 0 1.708-1.424Z" clip-rule="evenodd" opacity=".7"/><path fill="#0366F9" d="M50.732 28.703v-.665h-.665v.665h.665Zm0 11.012v.665h.664v-.665h-.664Zm.474-11.013h.665v-.664h-.665v.665Zm0 11.488v.664h.665v-.664h-.665Zm-11.012 0v-.665h-.665v.665h.665Zm0 11.013v.664h.664v-.664h-.664Zm-11.488 0h-.664v.664h.664v-.664Zm0-.475v-.665h-.664v.665h.664Zm11.013 0v.664h.665v-.664h-.665Zm0-11.013v-.664h-.665v.664h.665Zm10.348-11.013v11.013h1.424V28.702h-1.424Zm1.14-.664h-.475v1.424h.474v-1.424Zm.759 11.677V28.702h-1.424v11.013h1.424Zm-1.424 0v.475h1.424v-.475h-1.424Zm.664-.19h-.474v1.424h.474v-1.424Zm-.474 0H40.194v1.424h10.538v-1.424Zm-11.203.665v10.538h1.424V40.19H39.53Zm0 10.538v.474h1.424v-.474H39.53Zm.665-.19h-.475v1.424h.475v-1.424Zm-.475 0H28.706v1.424H39.72v-1.424Zm-10.348.665v-.475h-1.33v.474h1.33Zm-.665.284H39.72v-1.424H28.706v1.424Zm11.678-.76V40.19h-1.425v10.538h1.425Zm0-10.537v-.475h-1.425v.475h1.425Zm-.665.19h.475v-1.424h-.475v1.424Zm.475 0h10.538v-1.424H40.194v1.424Z"/><path fill="#0366F9" d="M54.909 28.892c0 .76-.19 1.52-.665 2.184-.474.665-1.044 1.14-1.709 1.424-.759.285-1.518.38-2.278.19-.76-.095-1.519-.475-1.994-1.044-.57-.57-.949-1.235-1.044-1.994-.19-.76-.095-1.52.19-2.279.285-.76.76-1.329 1.424-1.708.665-.475 1.424-.665 2.184-.665 1.044 0 1.993.38 2.753 1.14.76.759 1.139 1.708 1.139 2.752ZM43.896 39.905c0 .76-.19 1.52-.664 2.184-.475.664-1.045 1.139-1.71 1.424-.759.285-1.518.38-2.278.19s-1.424-.57-1.993-1.045c-.57-.57-.95-1.234-1.045-1.993-.19-.76-.095-1.52.19-2.279.285-.76.76-1.329 1.424-1.709.665-.474 1.424-.664 2.184-.664 1.044 0 1.994.38 2.753 1.139.665.76 1.14 1.804 1.14 2.753Zm11.013 0c0 .76-.19 1.52-.665 2.184-.474.664-1.044 1.139-1.709 1.424-.759.285-1.518.38-2.278.19s-1.424-.57-1.994-1.045c-.57-.57-.949-1.234-1.044-1.993-.19-.76-.095-1.52.19-2.279.285-.76.76-1.329 1.424-1.709.665-.474 1.424-.664 2.184-.664 1.044 0 1.993.38 2.753 1.139.76.76 1.139 1.804 1.139 2.753Zm-22.12 11.108c0 .76-.19 1.519-.665 2.183-.475.665-1.044 1.14-1.709 1.424-.76.285-1.519.38-2.278.19-.76-.19-1.424-.57-1.994-1.044-.57-.57-.95-1.234-1.044-1.994-.19-.76-.095-1.519.19-2.278.284-.76.76-1.33 1.424-1.71.664-.474 1.424-.664 2.183-.664 1.045 0 1.994.38 2.753 1.14.76.664 1.14 1.708 1.14 2.753Zm11.107 0c0 .76-.19 1.519-.664 2.183-.475.665-1.045 1.14-1.71 1.424-.759.285-1.518.38-2.278.19s-1.424-.57-1.993-1.044c-.57-.57-.95-1.234-1.045-1.994-.19-.76-.095-1.519.19-2.278.285-.76.76-1.33 1.424-1.71.665-.474 1.424-.664 2.184-.664 1.044 0 1.994.38 2.753 1.14a4.038 4.038 0 0 1 1.14 2.753Zm28.196-4.083c0 2.089 0 3.038 1.71 3.038 1.139 0 3.132-.095 3.132-.095l.285 4.367c-1.424.285-2.753.57-4.177.665-5.032 0-6.456-1.899-6.456-7.785v-9.019h-2.373v-4.747h2.468v-5.126L72.092 25v8.354h5.032v4.652h-5.032v8.924Zm24.969 2.754.095 4.082s-4.747 1.14-8.545 1.14c-6.265 0-8.829-3.134-8.829-10.539 0-7.405 3.133-11.107 9.114-11.107 5.981 0 9.02 3.227 9.02 9.303.094 1.33-.096 2.564-.38 3.798H85.288c0 2.468 1.234 3.607 4.177 3.607 3.323.095 7.595-.285 7.595-.285Zm-4.652-7.405c0-3.323-.95-4.368-3.513-4.368-2.563 0-3.512 1.235-3.607 4.367h7.12Zm9.304-8.925h5.506v1.614s2.848-1.614 5.127-1.614c5.791 0 7.215 3.608 7.215 9.969v11.582h-5.507V43.513c0-3.133-.379-5.127-3.132-5.127-1.33 0-2.564.285-3.703.76V55h-5.506V33.354Zm27.152 21.551h-3.133V36.108h-2.564v-2.754h2.564V32.5c0-5.981 1.519-7.5 5.601-7.5 1.424 0 4.177.285 4.177.285v2.563s-2.278-.095-3.512-.095c-2.279 0-3.038.95-3.038 4.842v.854h5.981v2.659h-5.981l-.095 18.797Zm26.012-10.918c0 7.5-1.804 10.918-8.829 10.918s-8.829-3.418-8.829-10.918c0-7.5 2.279-10.443 8.829-10.443 6.551-.095 8.829 3.323 8.829 10.443Zm-3.133 0c0-5.696-1.234-7.785-5.601-7.785s-5.601 2.09-5.601 7.785c0 5.697.759 8.26 5.601 8.26s5.601-2.468 5.601-8.26ZM163.232 25h-3.133v29.905h3.133V25Zm22.025 29.905h-3.038v-1.804s-3.133 1.804-6.266 1.804c-4.082 0-7.405-1.614-7.405-10.538 0-7.215 2.374-10.918 8.639-10.918 1.709.095 3.418.19 5.032.57V25h3.038v29.905Zm-3.038-4.272V36.677c-1.614-.285-3.228-.474-4.937-.474-4.367 0-5.601 2.848-5.601 8.164 0 6.646 2.184 7.785 4.557 7.785 3.038 0 5.981-1.52 5.981-1.52Z"/></svg>