<svg xmlns="http://www.w3.org/2000/svg" fill="none" viewBox="0 0 210 80"><path fill="#545454" d="M106.78 64.996c-.026-.146-.071-.288-.071-.434-.004-4.764 0-9.527 0-14.291 0-.116.015-.232.026-.408.846 0 1.68-.015 2.511.015.12.004.258.213.34.359 1.92 3.267 3.832 6.541 5.745 9.812.09.154.183.3.363.438V49.893h2.406v15.103h-2.515c-.033-.078-.056-.164-.101-.24l-5.052-8.61-1.235-2.107c-.03.008-.063.011-.093.019v10.37c0 .19-.045.377-.071.568h-2.253Zm-15.718 0V49.86h7.174c.344 0 .689.026 1.03.067 1.242.15 2.136.97 2.207 2.212.086 1.5.098 3.016.026 4.517-.063 1.366-.692 2.024-2.013 2.406-.056.015-.108.034-.202.064.576 1.231 1.145 2.447 1.71 3.66.277.595.562 1.186.835 1.785.06.13.071.28.105.423h-2.695c-.026-.083-.045-.169-.082-.247-.764-1.65-1.55-3.293-2.283-4.955-.217-.49-.464-.7-1.022-.655-.737.06-1.481.015-2.267.015v5.842H91.07l-.008.003Zm2.556-8.161c.09.018.161.044.232.044 1.467 0 2.934.012 4.401 0 .52-.003.741-.235.752-.8.02-1.03.023-2.062 0-3.091-.01-.58-.262-.801-.845-.805-.883-.008-1.767 0-2.65 0h-1.893v4.66l.003-.008Zm44.507 8.161c-.004-1.538-.015-3.076-.015-4.614V49.86h7.26c.359 0 .718.026 1.07.082 1.197.191 2.032 1.044 2.088 2.283.067 1.46.079 2.927.015 4.386-.06 1.385-.674 2.054-2.013 2.451-.053.015-.109.038-.202.068.501 1.07.991 2.121 1.482 3.173.348.74.703 1.482 1.044 2.227.067.146.089.306.134.464h-2.694c-.861-1.864-1.714-3.724-2.586-5.584-.052-.108-.202-.243-.307-.247-.905-.018-1.811-.011-2.765-.011v5.842h-2.515l.004.003Zm2.541-8.131c1.605 0 3.188.014 4.767-.012.431-.007.607-.277.61-.778.008-1 .004-1.998 0-2.998 0-.684-.221-.898-.92-.901h-4.083c-.127 0-.255.014-.374.026v4.663Zm-79.063 8.131c-.194-.056-.389-.108-.587-.164-1.183-.326-1.864-1.19-1.875-2.522a652.988 652.988 0 0 1 0-9.768c.011-1.556.89-2.552 2.433-2.616a69.906 69.906 0 0 1 6.006.012c1.49.067 2.354 1.055 2.376 2.567.034 2.342.011 4.689.015 7.035 0 .835-.007 1.673 0 2.508.023 1.594-.793 2.743-2.421 2.885-.037 0-.075.04-.112.063H61.6h.003Zm5.838-11.874c0-.688-.228-.928-.901-.928-1.333-.007-2.661-.007-3.994 0-.647 0-.868.225-.868.86v8.731c0 .618.214.858.82.865 1.358.015 2.72.011 4.083 0 .625-.008.86-.262.86-.883v-8.645Zm10.06 11.874a33.744 33.744 0 0 0-.513-.12c-1.13-.254-1.826-.999-1.991-2.144a5.151 5.151 0 0 1-.052-.76V50.324c0-.13.01-.266.022-.43h2.522v11.72c0 .827.206 1.033 1.03 1.033H82.2c.77 0 .977-.213.977-.991V49.889H85.7c.007.157.022.318.022.475v11.56c0 .34-.03.689-.1 1.022-.24 1.107-.951 1.758-2.074 1.95-.127.022-.255.063-.382.093h-5.658l-.007.007Zm46.164 0c-.027-.146-.071-.288-.071-.434-.004-4.764 0-9.527 0-14.291 0-.116.015-.232.022-.378h9.636v2.29h-7.073v3.914h5.82v2.272h-5.831v4.258h7.107v2.37h-9.61Zm28.83 0c.022-.157.022-.322.071-.471 1.575-4.775 3.155-9.543 4.723-14.322.097-.292.239-.355.512-.351.719.015 1.437.03 2.156-.004.374-.019.509.123.621.46 1.546 4.69 3.106 9.37 4.667 14.056.052.153.119.3.183.449.056.224-.105.18-.225.18h-2.559c-.352-1.168-.696-2.335-1.063-3.496-.034-.112-.206-.258-.318-.258a255.366 255.366 0 0 0-4.794 0c-.105 0-.277.12-.307.214-.366 1.174-.711 2.36-1.063 3.54h-2.604v.003Zm8.315-6.103c-.64-2.103-1.269-4.173-1.893-6.239-.034 0-.068.008-.102.008-.628 2.066-1.253 4.135-1.889 6.23h3.888-.004ZM44 59.08h2.53v2.144c0 1.374.056 1.43 1.44 1.43h2.56c.857 0 1.06-.206 1.06-1.108v-11.66h2.521c.008.153.023.31.023.467v11.335c0 .326-.026.655-.067.98-.146 1.236-.913 2.029-2.148 2.239-.098.014-.188.06-.281.093h-5.123c-.124-.034-.247-.075-.374-.097-1.04-.202-1.737-.782-2.025-1.819-.03-.108-.075-.217-.116-.326V59.08Z"/><path fill="url(#a)" d="M161.196 26.81v2.407c-10.217-.094-20.418.288-30.604-.55l9.898 1.84.007.064c-.224.023-.449.053-.673.068-2.642.172-5.281.37-7.923.486-.67.03-1.354-.187-2.024-.318-4.487-.88-8.974-1.762-13.457-2.646-.041-.007-.086 0-.15.064l9.329 3.402-.011.078c-1.179.128-2.354.255-3.532.386h-.045c-1.404.374-2.68-.034-3.99-.52-5.976-2.216-11.978-4.371-17.97-6.55-.108-.04-.217-.082-.318-.153 10.213.88 20.451 1.295 30.69 1.53 10.243.237 20.489.282 30.78.409l-.007.004ZM51.63 42.364c.842-.078 1.643-.157 2.448-.232V15.42c-.816-.138-1.606-.277-2.448-.419v27.363Zm10.467-1.209c.861-.123 1.666-.243 2.504-.363l-.36-2.035-2.727-15.467c-.34-1.938-.678-3.88-1.033-5.815-.03-.165-.139-.4-.262-.442-.801-.266-1.62-.49-2.515-.748 1.47 8.334 2.93 16.593 4.393 24.878v-.008Zm2.444-22.412c1.823 5 3.645 10 5.464 15 .673 1.848 1.343 3.7 2.028 5.545.049.131.232.318.33.307.767-.097 1.526-.236 2.308-.367-.03-.123-.045-.213-.075-.295-2.365-6.486-4.726-12.971-7.099-19.453-.048-.134-.175-.299-.299-.34-.91-.288-1.826-.55-2.818-.842.068.198.113.322.157.449l.004-.004Zm19.707 18.49c-2.89-4.999-5.797-9.984-8.649-15.002-.449-.79-.946-1.28-1.87-1.388-.712-.083-1.404-.322-2.167-.51.1.188.16.308.228.424 1.77 3.06 3.54 6.118 5.31 9.18 1.5 2.593 3.001 5.19 4.513 7.78.079.134.28.303.408.288.797-.098 1.587-.244 2.425-.382-.078-.157-.135-.277-.198-.39Zm7.694-13.142c.123.075.243.153.367.224 5.063 2.92 10.13 5.823 15.178 8.769.82.479 1.583.774 2.552.546.872-.206 1.778-.27 2.758-.404-.157-.105-.228-.157-.303-.202-4.764-2.747-9.528-5.49-14.295-8.233a1.25 1.25 0 0 0-.46-.146c-1.292-.15-2.586-.285-3.881-.427-.629-.067-1.261-.135-1.89-.206-.008.027-.015.053-.026.075v.004Zm1.474 11.687c-3.626-4.315-7.248-8.626-10.879-12.933-.097-.116-.246-.229-.389-.255-1.2-.235-2.406-.453-3.69-.688.139.172.225.288.319.4l3.951 4.704c2.605 3.099 5.213 6.201 7.822 9.296.093.112.262.262.374.247.898-.124 1.789-.285 2.728-.442-.097-.135-.157-.236-.232-.322l-.004-.007Zm-5.823-10.583c3.885 3.256 7.77 6.508 11.657 9.756.116.097.292.202.423.183 1.026-.138 2.051-.307 3.125-.471-.086-.094-.12-.139-.165-.176-4.217-3.533-8.43-7.065-12.652-10.59a.92.92 0 0 0-.434-.199c-1.448-.21-2.9-.404-4.483-.625l2.53 2.122Z"/><defs><linearGradient id="a" x1="51.63" x2="161.196" y1="28.682" y2="28.682" gradientUnits="userSpaceOnUse"><stop stop-color="#9BBB2B"/><stop offset="1" stop-color="#0B9D42"/></linearGradient></defs></svg>