<svg xmlns="http://www.w3.org/2000/svg" fill="none" viewBox="0 0 210 80"><path fill="#182857" d="M142.343 39.818h-1.231c-.337 0-.674-.007-1.011 0-.152 0-.241-.042-.331-.166-1.107-1.527-2.215-3.047-3.322-4.574-1.465-2.009-2.93-4.017-4.389-6.026-.048-.069-.103-.137-.179-.234-.02.083-.034.124-.034.172V39.776c-.179.055-2.449.069-2.731.014V23.756c.076 0 .152-.014.227-.014h2.016c.158 0 .254.055.344.179 1.595 2.2 3.198 4.402 4.794 6.603.977 1.342 1.947 2.683 2.924 4.024.048.07.103.131.178.234.014-.082.035-.13.035-.179v-10.84h2.696c.048.178.055 15.752.007 16.068l.007-.014ZM174.99 39.81c-.489-1.272-.977-2.53-1.466-3.803h-6.569c-.24 0-.24 0-.323.213-.124.33-.255.653-.378.983-.303.798-.613 1.59-.915 2.387a5.058 5.058 0 0 1-.09.227h-2.717s-.014-.013-.014-.02c0-.007-.006-.014 0-.02 2.05-5.297 4.107-10.587 6.157-15.884.014-.041.041-.082.069-.13h2.793l6.239 16.055h-2.773l-.013-.007Zm-4.857-12.567c-.151.24-2.38 6.053-2.394 6.24h4.795c-.805-2.085-1.596-4.149-2.401-6.24ZM190.171 26.012l-1.885 1.864c-.172-.179-.323-.35-.481-.51-.571-.55-1.218-.976-1.995-1.182-.777-.207-1.534-.158-2.256.213-.475.248-.846.605-.998 1.128-.185.654-.068 1.252.441 1.72.227.206.488.399.77.53.585.275 1.19.522 1.788.756.75.296 1.507.564 2.222.943.551.288 1.06.632 1.5 1.073.688.694 1.052 1.534 1.149 2.504.075.715.013 1.423-.241 2.097-.372.984-1.066 1.679-1.974 2.174-.743.406-1.548.626-2.387.722-.95.104-1.892.076-2.814-.192-1.678-.482-2.978-1.48-3.962-2.91a4.324 4.324 0 0 1-.076-.13c.675-.572 1.356-1.142 2.05-1.734.055.076.104.144.152.213.536.757 1.183 1.397 2.029 1.803 1.087.522 2.187.502 3.295.082.096-.034.186-.09.275-.138 1.252-.687 1.039-2.187.303-2.792a3.563 3.563 0 0 0-.743-.489 23.142 23.142 0 0 0-1.651-.667c-.709-.261-1.417-.53-2.091-.887a7.568 7.568 0 0 1-1.486-1.018c-1.795-1.596-1.906-4.265-.282-6.047a5.018 5.018 0 0 1 3.027-1.603c2.476-.378 4.512.475 6.184 2.291.041.048.075.096.13.165l.007.02ZM119.98 25.957c-.653.64-1.265 1.231-1.912 1.864-.069-.09-.117-.172-.179-.234a5.51 5.51 0 0 0-3.226-1.52c-2.676-.317-4.953 1.272-5.716 3.797-.626 2.057-.344 4.003.997 5.723 1.046 1.341 2.463 1.981 4.169 1.954 1.651-.028 3.026-.674 4.154-1.871.021-.021.035-.049.055-.07.172.09 1.562 1.438 1.858 1.796-.083.096-.165.193-.262.29a8.06 8.06 0 0 1-4.629 2.331c-1.603.234-3.171.069-4.657-.599-2.091-.928-3.529-2.49-4.272-4.643-.798-2.304-.715-4.608.358-6.816 1.183-2.436 3.157-3.894 5.826-4.362 2.373-.412 4.547.11 6.487 1.555.22.165.42.35.626.53.103.089.199.172.33.282l-.007-.007ZM91.117 33.991c1.396-3.412 2.793-6.817 4.196-10.235h2.813s.007.013.014.02c0 0 .007.014.007.02-.007.028-.014.063-.028.09l-7.098 16.406h-.035c-.007 0-.014 0-.02-.007-.021-.041-.049-.082-.062-.124l-7.079-16.364c.18-.062 2.277-.083 2.986-.035 1.41 3.405 2.827 6.817 4.244 10.236h.062v-.007ZM155.667 26.349h-4.43v-2.593h11.577c.048.171.062 2.31.007 2.593h-4.395c-.028.578-.014 1.142-.014 1.699V39.81h-2.738c-.021-.743 0-1.493-.007-2.243V26.35ZM103.017 23.762v16.021c-.179.048-2.469.055-2.717.007V23.783c.165-.048 2.304-.069 2.717-.02ZM125.339 39.81h-2.683c-.048-.171-.062-15.724-.014-16.054h2.683c.048.165.069 15.71.014 16.055ZM146.154 23.756h2.676c.055.171.069 15.69.02 16.055h-2.682c-.048-.159-.062-15.677-.014-16.055ZM115.296 55.508h-1.252l-.021-.02s-.014-.014-.014-.021c0-.028-.013-.062-.013-.09V44.701c0-.02.007-.04.02-.082.055 0 .117-.014.179-.014h2.793c.633 0 1.238.138 1.809.42 1.224.612 1.782 1.788 1.672 3.075-.028.31-.09.619-.193.914-.282.805-.874 1.335-1.644 1.672-.248.11-.516.179-.805.275l2.999 4.533c-.089.007-.151.02-.206.02-.378 0-.75-.006-1.128 0-.158 0-.255-.047-.344-.185-.887-1.355-1.782-2.703-2.669-4.051-.041-.062-.076-.124-.117-.172-.028-.035-.076-.07-.11-.07h-.956v4.472Zm0-5.689h.578c.509-.014 1.018 0 1.52-.041 1.025-.096 1.671-.736 1.775-1.733.082-.812-.221-1.59-1.032-1.947a2.26 2.26 0 0 0-.784-.213c-.647-.035-1.294-.028-1.94-.035-.035 0-.069.02-.11.035v3.941l-.007-.007ZM96.104 49.29h5.482v-4.664h1.294V55.48c-.165.055-.95.07-1.28.014V50.57c-.186-.055-5.104-.076-5.482-.028-.028.544-.007 1.094-.014 1.651v3.316h-1.259c-.048-.172-.062-10.587-.013-10.882.027 0 .055-.014.082-.014h1.183V49.283l.007.006ZM124.004 52.584c-.213.558-.426 1.108-.639 1.651-.145.372-.289.743-.427 1.115-.048.13-.117.179-.254.179-.337-.007-.675 0-1.012 0-.055 0-.103-.007-.192-.014 1.431-3.646 2.861-7.271 4.285-10.896h1.225c1.41 3.618 2.827 7.243 4.251 10.896h-1.362c-.372-.97-.75-1.94-1.135-2.924h-4.74v-.007Zm2.401-6.046h-.062c-.612 1.589-1.231 3.171-1.843 4.78h3.755c-.619-1.609-1.238-3.198-1.85-4.78ZM142.24 49.283c.261.027.516.006.77.013h3.832v1.211c-.502.028-1.005.007-1.507.014h-3.061c-.055.186-.075 3.281-.027 3.742.55.034 1.114.007 1.671.014h3.385c.055.213.02.412.027.612v.578c-.179.062-5.874.082-6.356.034l-.014-.014s-.013-.014-.013-.02c0-3.55-.007-7.1-.014-10.649 0-.062 0-.123.007-.178.179-.049 5.826-.07 6.259-.028.049.165.056.901.014 1.21-.406.014-.818 0-1.224 0h-3.749v3.46ZM105.5 55.494V44.62h6.274c.014.399.007.79 0 1.217h-4.946c-.055.193-.062 3.185-.014 3.453h4.568v1.218c-.09 0-.179.007-.269.007h-4.319v3.749h5.056v1.21c-.166.049-6.054.062-6.356.014l.006.007ZM149.428 44.612h1.287c0 .096.006.186.006.275v6.335c0 .489.042.97.179 1.438.344 1.149 1.19 1.802 2.387 1.802.289 0 .578-.02.86-.082.764-.165 1.293-.633 1.61-1.342a3.916 3.916 0 0 0 .309-1.527c.014-.77.007-1.547.007-2.325V44.62h1.286c0 .082.014.158.014.234v6.734c0 .681-.124 1.334-.406 1.96-.467 1.019-1.238 1.693-2.318 1.995a4.505 4.505 0 0 1-2.435.014c-1.376-.371-2.208-1.293-2.6-2.641a4.817 4.817 0 0 1-.179-1.37V44.613h-.007ZM180.94 46.077c-.303.282-.592.557-.888.84-.061-.056-.11-.104-.158-.145-.88-.819-1.926-1.183-3.109-1.108-1.438.09-2.504.819-3.164 2.07-.888 1.672-.839 3.365.192 4.967 1.087 1.693 3.158 2.243 4.974 1.37.474-.228.901-.53 1.272-.909.042-.041.062-.09.097-.13.309.31.598.598.894.9-.035.042-.069.097-.117.145-1.142 1.1-2.497 1.679-4.086 1.63-2.401-.075-4.347-1.623-4.987-3.948-.44-1.603-.303-3.171.509-4.63.86-1.54 2.187-2.441 3.941-2.661 1.658-.207 3.13.233 4.382 1.355.09.075.165.165.255.261l-.007-.007ZM133.972 55.508h-1.28V44.626c.069 0 .138-.014.207-.014h2.765c.55 0 1.094.09 1.603.289 1.176.46 1.816 1.334 1.946 2.586.048.468.028.936-.103 1.397-.275.99-.915 1.65-1.871 2.015a4.41 4.41 0 0 1-1.61.282H133.985c-.041.248-.013.489-.02.73v3.604l.007-.007Zm.013-5.579c.062.007.09.02.117.02h1.431c.447-.006.887-.075 1.3-.267.571-.262.943-.695 1.046-1.321.041-.255.055-.516.027-.77-.069-.654-.399-1.142-.99-1.438a2.49 2.49 0 0 0-1.032-.282c-.585-.02-1.169-.02-1.754-.028-.048 0-.09.014-.145.02v4.066ZM182.199 53.437c.364-.22.708-.426 1.066-.64.055.097.096.173.137.242.379.653.888 1.155 1.638 1.348.612.165 1.21.103 1.774-.186 1.128-.571 1.149-2.036.324-2.717a4.705 4.705 0 0 0-.95-.599c-.454-.22-.921-.433-1.375-.66-.475-.24-.936-.509-1.328-.874a2.67 2.67 0 0 1-.805-1.348 2.855 2.855 0 0 1 1.871-3.384c1.438-.468 2.731-.145 3.839.873.158.145.295.317.46.496-.337.275-.646.523-.976.79-.069-.075-.124-.137-.179-.199-.482-.53-1.06-.873-1.789-.928a2.026 2.026 0 0 0-1.259.289c-.853.536-1.059 1.774-.213 2.503.207.18.434.338.674.461.413.22.84.413 1.259.62.378.185.75.385 1.121.584.131.069.248.165.372.248 1.658 1.107 1.616 3.92-.378 4.918-1.617.805-4.025.585-5.208-1.658-.027-.055-.048-.11-.089-.192l.014.013ZM90.147 55.522h-1.135a.893.893 0 0 1-.165-.02v-9.666h-3.13v-1.19c.165-.048 7.113-.075 7.553-.02v1.21h-3.11c-.027.565-.006 1.101-.013 1.638v8.055-.007ZM163.33 55.508h-1.293v-9.651c-.11-.007-.2-.02-.289-.02H158.9v-1.19c.158-.049 7.072-.076 7.532-.028.049.165.056.928 0 1.21h-3.109V55.508h.007ZM168.242 44.619h1.265V55.48c-.165.055-.949.07-1.265.021V44.62Z"/><path fill="url(#a)" d="M38.199 59.993 60.54 20h16.516L55.279 59.993h-17.08Z"/><path fill="#93D5D8" d="M40.806 28.894C37.098 23.584 30.096 20 22.068 20a26.54 26.54 0 0 0-3.068.179l14.122 25.066 3.082 5.469c1.623 2.882 4.044 5.29 7.05 6.768C46.502 59.078 50.306 60 54.371 60c1.355 0 2.675-.103 3.962-.303 0 0-17.486-30.83-17.527-30.803Z" opacity=".8"/><defs><linearGradient id="a" x1="44.087" x2="71.244" y1="57.861" y2="22.765" gradientUnits="userSpaceOnUse"><stop stop-color="#182857"/><stop offset=".17" stop-color="#1D2D5C"/><stop offset=".39" stop-color="#2B3D6C"/><stop offset=".63" stop-color="#425787"/><stop offset=".81" stop-color="#586FA0"/></linearGradient></defs></svg>