<svg xmlns="http://www.w3.org/2000/svg" fill="none" viewBox="0 0 210 80"><path fill="#533D47" d="M39.747 35.185h1.45v15.078h-1.45V35.184Zm0-6.088h1.45v2.665h-1.45v-2.665ZM56.62 50.263v-8.409c0-1.933-.281-3.342-.837-4.236-.54-.91-1.41-1.361-2.61-1.361-.854 0-1.691.2-2.52.612a6.732 6.732 0 0 0-2.143 1.683 6.595 6.595 0 0 0-1.305 2.376v9.335h-1.45V35.184h1.362v3.593a6.392 6.392 0 0 1 1.627-1.998 7.995 7.995 0 0 1 2.263-1.361 6.914 6.914 0 0 1 2.577-.491c.83 0 1.53.153 2.086.467.58.29 1.047.717 1.393 1.272.37.564.628 1.257.782 2.086.153.83.233 1.78.233 2.843v8.667H56.62Zm19.201-1.394c-.097-.113-.145-.29-.145-.523v-19.25h-1.45v9.367c-.58-.966-1.385-1.796-2.408-2.496-1.007-.693-2.166-1.04-3.48-1.04-1.312 0-2.52.363-3.567 1.096-1.039.717-1.86 1.667-2.465 2.843-.595 1.184-.893 2.473-.893 3.89a8.1 8.1 0 0 0 .523 2.9c.362.926.87 1.755 1.506 2.488a7.602 7.602 0 0 0 2.32 1.772c.886.427 1.852.636 2.899.636 1.103 0 2.175-.298 3.214-.902a6.93 6.93 0 0 0 2.496-2.4v1.675c0 .315.113.605.347.87.233.274.523.435.87.5.153.016.386.008.7-.032V49.07c-.193-.017-.354-.081-.467-.202Zm-1.595-3.68c-.056.54-.273 1.063-.636 1.562a5.73 5.73 0 0 1-1.337 1.305c-.523.37-1.08.66-1.683.87a4.683 4.683 0 0 1-1.651.322 5.731 5.731 0 0 1-2.376-.492 6.434 6.434 0 0 1-1.917-1.425 7.078 7.078 0 0 1-1.273-2.086 6.765 6.765 0 0 1-.467-2.465c0-.853.137-1.635.411-2.408a6.56 6.56 0 0 1 1.16-2.11 6.1 6.1 0 0 1 1.828-1.482c.709-.37 1.506-.548 2.376-.548.733 0 1.474.178 2.231.548.762.35 1.451.842 2.03 1.45a5.57 5.57 0 0 1 1.304 1.997v4.962Zm5.92-1.305v-8.699h1.45v8.497c0 1.877.306 3.278.926 4.204.636.91 1.595 1.362 2.867 1.362.854 0 1.66-.186 2.433-.548a6.674 6.674 0 0 0 2.085-1.595 6.845 6.845 0 0 0 1.337-2.408v-9.512h1.45v13.16c0 .234.049.403.145.524a.736.736 0 0 0 .467.202v1.192c-.193.016-.346.032-.467.032a.838.838 0 0 1-.258-.032 1.312 1.312 0 0 1-.813-.403c-.21-.25-.33-.548-.346-.902l-.033-2.263a7.448 7.448 0 0 1-2.722 2.843 7.15 7.15 0 0 1-3.713 1.014c-1.586 0-2.786-.563-3.592-1.683-.813-1.12-1.216-2.786-1.216-4.985Zm23.574 6.668a7.032 7.032 0 0 1-2.932-.612 7.885 7.885 0 0 1-2.376-1.707 8.374 8.374 0 0 1-1.594-2.521c-.37-.95-.548-1.965-.548-3.044 0-1.45.322-2.755.959-3.915a7.436 7.436 0 0 1 2.641-2.786c1.12-.693 2.4-1.047 3.826-1.047 1.425 0 2.577.322 3.624.958a5.86 5.86 0 0 1 2.352 2.553l-1.418.467a4.684 4.684 0 0 0-1.916-1.94 5.173 5.173 0 0 0-2.698-.726 5.538 5.538 0 0 0-2.989.838c-.885.564-1.602 1.337-2.142 2.32-.523.966-.781 2.061-.781 3.278 0 1.216.274 2.303.813 3.302a6.674 6.674 0 0 0 2.143 2.408c.91.58 1.9.87 2.988.87.692 0 1.369-.13 2.029-.379.677-.274 1.257-.62 1.74-1.047.499-.427.83-.878.983-1.361l1.417.403c-.25.717-.685 1.353-1.305 1.917-.62.54-1.345.974-2.174 1.304a7.44 7.44 0 0 1-2.642.467Zm16.116-1.014c-.097.04-.29.137-.58.29-.29.153-.66.298-1.103.434a5.982 5.982 0 0 1-1.482.178 3.74 3.74 0 0 1-1.482-.29 2.6 2.6 0 0 1-1.071-.926c-.274-.403-.403-.902-.403-1.482V36.377h-2.118v-1.192h2.118v-5.162h1.45v5.162h3.511v1.192h-3.511v11.018c.04.564.241.983.612 1.273.37.274.789.403 1.272.403.596 0 1.12-.097 1.563-.29.443-.21.709-.347.781-.403l.435 1.16h.008Zm2.561-14.353h1.45v15.078h-1.45V35.184Zm0-6.088h1.45v2.665h-1.45v-2.665Zm10.64 21.166-6.291-15.078h1.539l5.533 13.54 5.573-13.54h1.45l-6.298 15.078h-1.506Zm22.897-11.421a7.646 7.646 0 0 0-2.609-2.843c-1.104-.717-2.368-1.071-3.794-1.071-1.425 0-2.65.354-3.769 1.07a7.35 7.35 0 0 0-2.642 2.78c-.636 1.16-.958 2.456-.958 3.89 0 1.063.185 2.078.555 3.044a8.801 8.801 0 0 0 1.563 2.52 7.702 7.702 0 0 0 2.376 1.708c.91.411 1.893.612 2.964.612.926 0 1.804-.153 2.633-.467a6.954 6.954 0 0 0 2.207-1.329c.636-.563 1.095-1.2 1.385-1.916l-1.272-.347c-.363.854-1.015 1.547-1.941 2.086a5.797 5.797 0 0 1-2.956.814 5.613 5.613 0 0 1-2.899-.782c-.87-.54-1.587-1.28-2.151-2.206a6.774 6.774 0 0 1-.95-3.101h13.216a.996.996 0 0 0 .033-.29v-.346c0-1.394-.331-2.666-.991-3.826Zm-12.323 3.334c.081-1.184.387-2.223.935-3.133a6.061 6.061 0 0 1 2.11-2.15 5.586 5.586 0 0 1 2.899-.781 5.59 5.59 0 0 1 2.9.78c.894.524 1.602 1.241 2.15 2.151.54.91.846 1.95.926 3.133h-11.92Z"/><path fill="#AC175F" d="M174.329 39.913a8.294 8.294 0 0 0-1.361-2.52 6.897 6.897 0 0 0-2.174-1.805c-.838-.443-1.788-.66-2.876-.66-1.272 0-2.408.322-3.39.982-.967.66-1.804 1.506-2.521 2.553v-9.366h-1.45v21.166h1.329V47.25c.58.943 1.385 1.74 2.408 2.376a6.267 6.267 0 0 0 3.31.926c1.023 0 1.965-.2 2.835-.612a7.568 7.568 0 0 0 2.296-1.707 8.376 8.376 0 0 0 1.538-2.497 8.197 8.197 0 0 0 .548-2.956 8.298 8.298 0 0 0-.492-2.867Zm-1.449 5.243a6.817 6.817 0 0 1-1.249 2.094 5.914 5.914 0 0 1-1.884 1.474 5.635 5.635 0 0 1-2.433.524 4.922 4.922 0 0 1-1.683-.322 8.39 8.39 0 0 1-1.683-.838 5.452 5.452 0 0 1-1.305-1.273c-.346-.507-.564-1.039-.636-1.594v-4.994a9.874 9.874 0 0 1 1.329-1.965 6.559 6.559 0 0 1 1.884-1.45 4.868 4.868 0 0 1 2.352-.58c1.144 0 2.142.306 3.012.927a6.243 6.243 0 0 1 2.03 2.432c.483.99.725 2.054.725 3.19 0 .813-.153 1.602-.459 2.375Zm5.428-9.97h1.45v15.077h-1.45V35.184Zm0-6.09h1.45v2.666h-1.45v-2.665Zm19.136 10.672a7.479 7.479 0 0 0-1.562-2.497 7.202 7.202 0 0 0-2.352-1.707c-.886-.427-1.852-.636-2.899-.636s-2.022.21-2.924.636a7.208 7.208 0 0 0-2.352 1.707 7.837 7.837 0 0 0-1.538 2.497 8.148 8.148 0 0 0-.548 2.988 8.256 8.256 0 0 0 2.086 5.509 7.258 7.258 0 0 0 2.32 1.675c.91.411 1.892.612 2.956.612 1.063 0 2.013-.2 2.899-.612a7.133 7.133 0 0 0 2.352-1.675 7.879 7.879 0 0 0 1.562-2.529 8.08 8.08 0 0 0 .556-2.98 8.062 8.062 0 0 0-.556-2.988Zm-1.739 6.234c-.524.982-1.233 1.78-2.143 2.376-.894.58-1.876.87-2.956.87a5.338 5.338 0 0 1-2.963-.87 6.526 6.526 0 0 1-2.143-2.32c-.523-.982-.781-2.07-.781-3.245 0-1.176.266-2.32.813-3.31a6.78 6.78 0 0 1 2.143-2.377 5.19 5.19 0 0 1 2.956-.894c1.079 0 2.037.298 2.931.894.91.58 1.619 1.361 2.143 2.352.539.983.813 2.07.813 3.246a6.848 6.848 0 0 1-.813 3.278Z"/></svg>