<svg xmlns="http://www.w3.org/2000/svg" fill="none" viewBox="0 0 210 80"><path fill="#045B90" d="M70.816 28.232c.813 1.295.723 2.258-.27 3.312-1.626 1.686-3.342 3.251-5.088 4.816-1.054.934-1.084 1.024-.271 2.198l6.231 8.91c.452.633.843 1.325 1.084 2.048.482 1.475-.361 2.74-1.896 2.89-1.355.12-2.379-.421-3.101-1.565l-5.51-8.64c-.3-.452-.511-.964-1.023-1.325-1.385.994-2.529 2.258-3.703 3.492-.3.301-.21.783-.18 1.204.09 1.506.12 2.98-.06 4.486-.181 1.505-1.145 2.408-2.56 2.348-1.294-.03-2.378-1.114-2.378-2.559V30.25c0-1.595 1.024-2.68 2.409-2.74 1.445-.03 2.408.964 2.559 2.68.18 2.167.12 4.305.03 6.472-.03.602-.09 1.205.06 1.566 1.084-.963 2.258-1.927 3.311-3.01 2.047-2.078 4.034-4.245 6.081-6.383 1.476-1.565 2.8-1.776 4.275-.602ZM48.057 45.061c-.27 3.401-2.107 5.509-5.148 6.532-3.371 1.144-6.803 1.144-10.054-.542-2.288-1.174-3.733-3.07-3.854-5.75-.03-1.113.512-1.866 1.415-2.137.994-.301 1.927.09 2.529 1.054.24.391.451.782.602 1.204 1.054 2.8 3.04 3.522 5.99 3.16.844-.09 1.596-.42 2.319-.932 1.655-1.175 1.896-4.185-.602-5.178a18.356 18.356 0 0 0-2.92-.934c-1.777-.391-3.553-.843-5.209-1.655-4.064-1.927-5.057-6.684-2.077-9.965.903-.993 2.047-1.595 3.312-1.927 3.1-.813 6.231-.963 9.212.542 1.776.903 3.13 2.198 3.432 4.335.15 1.204-.422 2.288-1.415 2.65-1.054.39-1.897.03-2.65-1.084-.451-.663-.752-1.445-1.264-2.078-.632-.752-1.415-1.204-2.408-1.264-1.144-.06-2.288-.15-3.372.271-1.023.391-1.776 1.054-1.866 2.198-.09 1.083.602 1.776 1.475 2.258.993.572 2.077.752 3.13 1.053 1.897.512 3.824.933 5.63 1.806 2.65 1.325 3.853 3.432 3.793 6.383Zm82.396 7.014c-4.425-.783-6.502-3.613-6.803-7.887-.332-4.396-.121-8.821-.151-13.216 0-.482.06-.964.151-1.415.21-1.234 1.083-1.957 2.288-1.987 1.264-.03 2.017.542 2.348 1.776.12.452.15.873.15 1.325l.03 11.048c0 1.144.121 2.258.332 3.402.391 1.866 1.806 3.1 3.702 3.221.422.03.843.03 1.265.03 3.371-.03 4.937-1.445 5.027-4.847.091-3.853.03-7.737.06-11.59 0-.723.03-1.445.121-2.137.18-1.445 1.144-2.288 2.438-2.258 1.325.03 2.258.933 2.348 2.378.091 1.264.121 2.499.121 3.763l-.121 10.236c-.03 1.776-.421 3.462-1.445 4.937-1.625 2.318-4.034 3.251-6.713 3.522-1.716.12-3.402.09-5.148-.301Zm18.785-20.14c-1.204-.421-1.655-1.084-1.595-2.047.06-.963.692-1.656 1.746-1.897.452-.09.963-.15 1.415-.15h14.299c.452 0 .904.03 1.325.15 1.174.301 1.656.964 1.596 2.138-.03.963-.753 1.746-1.837 1.866-.752.09-1.505.06-2.258.06h-2.528c-.783-.06-1.054.241-1.054 1.024l.03 7.376v8.278c0 .663-.06 1.325-.241 1.957-.301 1.144-1.114 1.716-2.318 1.746-1.144 0-2.017-.632-2.318-1.746-.18-.632-.211-1.294-.211-1.957V33.26c0-1.204 0-1.174-1.204-1.204-1.535-.03-3.161.09-4.847-.121Zm27.275-.15.03-3.041c0-.482.121-.843.662-.903.512-.06.874.15 1.024.662.211.632.271 1.295.662 1.957l.602-1.927c.151-.481.452-.783.994-.722.572.06.752.451.752.933a55.791 55.791 0 0 1 0 3.221c0 .331-.03.813-.541.753-.452-.03-.512-.452-.512-.843v-1.776l-.693 2.137c-.09.301-.271.542-.632.542-.361-.03-.512-.271-.602-.572-.211-.692-.361-1.355-.692-2.017v1.596c0 .421.03.963-.542.963-.602.03-.482-.512-.512-.963Zm-3.04-.542v-1.174c.06-.723.03-1.355-.994-1.295-.271.03-.451-.18-.451-.451 0-.302.18-.452.451-.452h2.86c.301 0 .632.12.662.482 0 .391-.331.451-.632.481l-.632.09c-.181.843-.06 1.686-.09 2.53l-.091.902c-.06.241-.21.452-.481.452-.332.03-.512-.21-.542-.482-.06-.33-.06-.662-.06-1.083Zm-64.936 3.883c1.987 5.148 1.114 9.724-2.709 13.547-5.299 5.329-14.6 4.124-18.545-2.318-4.846-7.978.452-18.093 9.784-18.454 4.606-.18 9.303 2.288 11.47 7.225Zm-9.272 11.41c2.92-.783 5.268-3.794 5.088-6.744-.151-2.679-1.385-4.756-3.854-5.96-2.649-1.295-5.148-.904-7.375.933-2.138 1.746-2.83 4.124-2.228 6.773.722 3.04 3.643 5.961 8.369 4.998Z"/><path fill="#02ACCC" d="M75.573 41.418c-.301-4.877.813-9.302 3.462-13.306 3.703-5.63 8.88-8.97 15.564-9.904 11.048-1.535 21.404 5.6 24.144 16.015 2.107 7.948.18 14.992-5.359 20.953-7.225 7.767-19.267 9.061-27.997 3.07-5.9-4.033-9.152-9.633-9.814-16.828Zm27.335-17.701c-1.475-.391-2.95-.783-4.486-.843-6.322-.15-11.5 2.228-15.052 7.526-3.793 5.63-4.064 11.68-.903 17.641 3.944 7.436 12.162 10.627 20.26 8.189 6.774-2.017 11.861-8.73 11.952-15.805.06-7.737-4.305-14.029-11.771-16.708Z"/><path fill="#02ACCC" d="M98.784 36.662c2.438 1.264 3.04 4.004 1.294 5.75-1.174 1.204-3.251 1.385-4.636.421-1.355-.933-1.866-2.98-1.084-4.515.753-1.536 2.469-2.198 4.426-1.656Z"/></svg>