<svg xmlns="http://www.w3.org/2000/svg" fill="none" viewBox="0 0 210 80"><path fill="#01373E" d="m150.378 35.693.812-4.263h-5.707l-.153.805c-2.772 14.077-10.25 20.688-19.37 20.688-5.004 0-7.489-2.513-7.88-5.154 1.627.948 4.862 1.7 7.651 1.7 8.019 0 12.685-4.606 12.685-10.712 0-4.541-3.53-8.006-9.699-8.006-6.821 0-12.444 5.15-14.558 10.785-2.516 6.7-6.348 11.3-9.572 11.3-2.557 0-2.772-2.323-2.464-3.979.14-.738 1.02-5.432 1.959-10.424h8.618l1.412-7.158h-8.683c.46-2.448.829-4.412 1.004-5.313h-5.797c-.208 1.084-.571 3.003-1.012 5.313h-11.22c.917-4.813 1.74-9.258 2.141-11.275h-5.794c-.422 2.197-1.248 6.537-2.141 11.275h-5.635l-1.414 7.158h5.652l-2.142 11.25c-1.091 5.7 2.142 10.294 7.149 10.294 3.884 0 7.489-2.804 9.916-5.922.793 3.504 3.493 5.922 7.122 5.922 4.509 0 8.322-4.108 10.345-7.697 1.483 4.395 5.377 7.709 12.214 7.709 5.725 0 11.424-3.181 15.969-9.136l-1.604 8.426h5.699l.823-4.318c2.212-11.678 5.867-16.867 14.238-16.11l1.531-7.914c-4.227-.63-8.991 1.294-12.093 4.758l-.002-.002Zm-62.69 17.14c-2.653 0-2.899-2.324-2.587-3.98.12-.634.962-5.11 1.959-10.424H98.26c-.213 1.126-.425 2.246-.633 3.33-1.622 8.277-7.162 11.088-9.942 11.088v-.015h.002Zm40.895-14.869c2.632 0 4.545 1.012 4.545 2.62 0 2.235-2.324 3.293-7.431 3.293a20.844 20.844 0 0 1-6.319-1.04 11.076 11.076 0 0 1 9.205-4.857v-.016Z"/><path fill="#01373E" d="M62.118 30.77A15.047 15.047 0 0 0 51.586 35a15.049 15.049 0 0 0-4.577 10.387C46.733 53.57 52.894 60 61.13 60a15.043 15.043 0 0 0 15.11-14.613c.279-8.184-5.884-14.617-14.12-14.617h-.002Zm8.308 14.617c-.14 4.174-3.563 7.455-9.056 7.455-5.493 0-8.692-3.281-8.55-7.455.14-4.174 3.672-7.459 9.056-7.459 5.383 0 8.692 3.281 8.55 7.459Z"/></svg>