<svg xmlns="http://www.w3.org/2000/svg" fill="none" viewBox="0 0 210 80"><path fill="#0E4F6D" d="m164.949 18 17.283 20.406v-19.37h2.078V44.21l-17.268-20.441v19.703h-2.097V18h.004Zm-139.84 1.016 5.34.012c.97.023 1.951.073 2.897.259 2.434.479 4.26 2.566 4.554 5.066.15 1.255.073 2.48-.498 3.632-.56 1.124-1.433 1.909-2.611 2.35-.124.045-.247.1-.37.15-.009 0-.009.023-.005.011.576.205 1.174.36 1.719.626 1.811.885 2.792 2.373 2.99 4.359.185 1.878-.09 3.667-1.206 5.243-1.066 1.508-2.564 2.327-4.376 2.555-2.769.347-5.554.189-8.33.204-.024 0-.05-.019-.101-.038V19.016h-.004Zm2.216 22.481c.05.023.073.047.097.047 1.912-.043 3.831-.016 5.735-.151 1.545-.112 2.576-1.059 3.167-2.48.433-1.036.502-2.11.36-3.216-.279-2.16-1.565-3.555-3.705-3.732-1.85-.151-3.715-.105-5.573-.14-.023 0-.046.024-.08.047v9.63-.005Zm-.008-11.607c.981 0 1.928.027 2.866-.008.78-.03 1.564-.077 2.33-.216 1.91-.34 2.85-1.341 3.085-3.262.07-.556.062-1.132.012-1.696-.178-2.11-1.097-3.126-3.175-3.54-1.669-.332-3.356-.204-5.04-.2-.024 0-.043.027-.081.054v8.868h.003Zm62.438-10.862h12.058v2.063h-9.834v7.663h9.834v2.102h-9.834v10.54h9.849v2.084H89.755V19.028Zm-35.8-1.012 10.313 25.487c-.808 0-1.557.011-2.306-.016-.097 0-.224-.2-.274-.332l-2.804-7.454c-.14-.375-.31-.502-.719-.498l-9.072.004c-.286 0-.421.08-.526.355l-2.93 7.535c-.12.31-.267.437-.611.417l-1.839-.007 10.768-25.491ZM57.95 33.25 53.8 22.687l-4.31 10.564h8.458Zm96.116 1.96h-1.02c-2.834 0-5.673.007-8.508-.008-.348 0-.483.12-.603.425l-2.939 7.53c-.096.252-.208.36-.49.349-.618-.023-1.236-.008-1.928-.008l10.768-25.487 10.313 25.487h-1.568c-.59 0-.989-.278-1.198-.835l-2.665-7.075c-.046-.123-.104-.247-.162-.382v.004Zm-.718-1.967-4.148-10.56-4.311 10.56h8.459Zm-44.567 6.124 1.889-1.016.471 1.067c.911 1.827 2.812 2.87 4.855 2.72 1.189-.09 2.282-.379 3.171-1.233 1.046-1 1.39-2.28 1.448-3.667.077-1.835-.575-3.334-2.144-4.355-.938-.61-1.923-1.143-2.869-1.739-1.221-.765-2.476-1.491-3.623-2.357-2.074-1.568-2.572-4.003-1.881-6.29.73-2.415 2.511-3.652 4.948-4 1.471-.208 2.908-.07 4.248.646 1.02.545 1.754 1.368 2.321 2.4l-1.722 1.035c-.116-.178-.213-.332-.321-.483-1.437-2.079-5.009-2.272-6.608-.36-.908 1.086-1.371 3.293.093 4.958.919 1.043 2.05 1.785 3.263 2.419 1.425.746 2.824 1.523 4.09 2.527 1.522 1.206 2.237 2.79 2.329 4.699.078 1.572-.085 3.107-.876 4.505-1.159 2.052-2.998 3.041-5.284 3.258-1.699.158-3.341-.039-4.832-.962-1.436-.893-2.333-2.207-2.97-3.764l.004-.008Zm-35.888 4.1v-.506l-.012-10.29c0-.278-.092-.587-.235-.823L65.02 19.44l-.248-.432 2.557.015c.109 0 .244.185.317.31l6.373 10.861.374-.614 6.033-10.252c.14-.24.286-.34.568-.332l2.167.008-.22.417-7.57 12.442c-.14.228-.22.526-.224.792l-.012 10.29v.518h-2.24l-.004.004Zm59.544.012h-2.166V19.032h2.166V43.48Z"/><path fill="#40B2C2" d="M31.998 55.195v-4.424h1.21v11.217h-1.21v-5.664h-5.762v5.664H25V50.763h1.209v4.432h5.79Zm57.478-4.44h1.17V55.2h5.825v-4.432h1.213v11.221H96.49v-5.653h-5.828v5.653h-1.19V50.752l.005.004Zm-33.006-.649L61.282 62h-1.336l-1.26-3.354c-.104-.294-.243-.383-.548-.379-1.2.018-2.402.018-3.603 0-.27 0-.406.078-.502.336L52.712 62H51.44l5.029-11.894Zm-.066 2.686-1.78 4.374h3.495l-1.715-4.374Zm-14.742 3.505v4.552h4.43v1.14h-5.647V50.77H46.1v1.113h-4.433v3.246h4.422v1.167h-4.426ZM79.06 61.98V51.899h-3.013v-1.14h7.285v1.117h-3.028v10.105H79.06Zm-10.938-1.125h3.781v1.128h-4.97V50.767h1.19v10.09Z"/></svg>