<svg xmlns="http://www.w3.org/2000/svg" fill="none" viewBox="0 0 210 80"><path fill="#000" fill-rule="evenodd" d="M76.69 33.4c3.079 0 5.333 1.01 6.779 3.047 1.446 2.037 2.16 4.431 2.16 7.214v1.617H72.4c.249 1.29.84 2.317 1.773 3.094.948.762 2.176 1.15 3.715 1.15.886 0 1.695-.108 2.41-.341a23.55 23.55 0 0 0 2.488-.995l1.539 3.793c-.918.7-2.037 1.213-3.343 1.539-1.306.326-2.379.482-3.218.482-3.405 0-6.079-.933-8.022-2.783-1.96-1.85-2.939-4.353-2.939-7.462 0-3.11.886-5.628 2.643-7.51 1.773-1.88 4.167-2.83 7.214-2.83l.031-.015Zm45.786 0c3.078 0 5.332 1.01 6.778 3.047 1.446 2.037 2.161 4.431 2.161 7.214v1.617h-13.23c.249 1.29.839 2.317 1.772 3.094.949.762 2.177 1.15 3.716 1.15.886 0 1.695-.108 2.41-.341a23.52 23.52 0 0 0 2.487-.995l1.539 3.793c-.917.7-2.036 1.213-3.342 1.539-1.306.326-2.379.482-3.218.482-3.39 0-6.079-.933-8.023-2.783-1.959-1.85-2.938-4.353-2.938-7.462 0-3.11.886-5.628 2.643-7.51 1.772-1.88 4.167-2.83 7.214-2.83l.031-.015Zm20.086.218c5.038 0 8.303 2.596 8.303 6.53v13.37h-5.318v-2.907h-.108c-1.104 2.005-3.187 3.218-5.753 3.218-3.918 0-6.561-2.456-6.561-5.892v-.031c0-3.545 2.752-5.613 7.603-5.924l4.819-.295V40.49c0-1.726-1.134-2.799-3.202-2.799s-3.187.933-3.436 2.177l-.031.17h-4.866v-.217c.311-3.607 3.404-6.188 8.566-6.188l-.016-.015Zm24.813 14.505v5.38h-5.394v-5.38h5.394ZM53.276 26.047c2.675 0 4.836.59 6.515 1.756 1.663 1.166 2.503 3.14 2.503 5.908 0 1.026-.233 1.944-.715 2.768a7.24 7.24 0 0 1-1.835 2.114 8.605 8.605 0 0 1 3.047 2.627c.793 1.104 1.197 2.504 1.197 4.198 0 2.534-.886 4.509-2.643 5.939-1.772 1.43-4.12 2.145-7.058 2.145H43V26.047h10.276Zm45.102 0c3.001 0 5.55.684 7.68 2.052 2.13 1.368 3.203 3.498 3.203 6.374 0 1.695-.435 3.156-1.322 4.384a8.807 8.807 0 0 1-3.373 2.845l6.747 11.785h-5.581l-5.83-10.494c-.296.03-.607.046-.933.062-.327 0-.653.016-.964.016h-3.032v10.416H89.75v-27.44h8.628Zm60.96-.047v27.502h-5.582V26h5.582Zm-13.791 18.967-4.026.249c-2.052.124-3.125.995-3.125 2.379v.03c0 1.431 1.181 2.286 3.016 2.286 2.379 0 4.135-1.523 4.135-3.56v-1.4.016ZM54.24 41.47h-6.032v7.712h5.66c1.398 0 2.533-.327 3.373-.964.855-.653 1.275-1.555 1.275-2.752 0-1.29-.389-2.286-1.166-2.97-.778-.684-1.82-1.026-3.11-1.026Zm22.326-3.591c-1.073 0-1.975.326-2.705.995-.731.653-1.198 1.617-1.415 2.892h8.209c-.265-1.322-.762-2.301-1.462-2.923-.7-.638-1.57-.949-2.627-.949v-.015Zm45.785 0c-1.072 0-1.974.326-2.705.995-.73.653-1.197 1.617-1.414 2.892h8.208c-.264-1.322-.761-2.301-1.461-2.923-.7-.638-1.57-.949-2.628-.949v-.015Zm-24.144-7.463h-3.234v8.396h3.312c1.57 0 2.86-.311 3.887-.949 1.026-.637 1.539-1.679 1.539-3.125 0-1.539-.482-2.643-1.462-3.311-.964-.669-2.316-1.01-4.042-1.01Zm-45.708 0h-4.29v6.825h3.886c1.461 0 2.596-.28 3.42-.824.824-.544 1.228-1.414 1.228-2.611 0-1.29-.373-2.177-1.134-2.659-.762-.482-1.788-.73-3.11-.73Z" clip-rule="evenodd"/></svg>