<svg xmlns="http://www.w3.org/2000/svg" fill="none" viewBox="0 0 210 80"><path fill="#FA6624" d="M80.864 31.173h-6.313v-4.906h6.313v4.906Zm-6.313 2.454h6.313V53.04h-6.313V33.627Zm9.232-7.36h6.313V53.04h-6.313V26.267Zm9.126 0h6.314V53.04h-6.314V26.267Zm28.066 26.866h-6.115V50.48h-.092c-1.255 1.96-3.5 3.227-5.825 3.227-5.534 0-7.092-3.227-7.092-8.334v-11.76h6.313V44.88c0 2.547 1.07 3.533 3.104 3.533 1.36 0 3.5-.88 3.5-4.306V33.613h6.313l-.106 19.507v.013Zm2.325-19.506h6.115v2.653h.093c1.162-1.96 3.301-3.227 5.533-3.227 2.431 0 4.57.787 5.64 3.134 1.361-2.054 3.593-3.227 6.023-3.134 6.115 0 6.802 4.707 6.802 8.427v11.667h-6.314V41.68c0-2.053-.964-3.333-2.628-3.333-2.721 0-2.919 2.053-2.919 5.293v9.507h-6.313v-11.08c0-2.254-.687-3.734-2.324-3.734-2.233 0-3.197 1.267-3.197 5.294v9.506h-6.313l-.185-19.506h-.013Zm39.147-2.454h-6.313v-4.906h6.313v4.906Zm-6.313 2.454h6.313V53.04h-6.313V33.627Zm18.068-.587c5.639 0 10.196 4.507 10.289 10.187 0 5.693-4.465 10.293-10.091 10.386-5.64 0-10.196-4.506-10.289-10.186v-.094c-.185-5.493 4.081-10.093 9.523-10.293h.581-.013Zm0 15.693c2.919 0 3.883-2.946 3.883-5.386s-.964-5.387-3.883-5.387-3.791 2.947-3.791 5.387c0 2.44.872 5.386 3.791 5.386Z"/><path fill="#64686A" d="M40.806 60h-12.27c-.673 0-1.318-.27-1.793-.75A2.573 2.573 0 0 1 26 57.44V38.92h4.081v16.96h10.725V60ZM30.08 24.12h6.168V20h-7.713C27.136 20 26 21.147 26 22.56v10.867h4.081V24.12Zm31.46 31.76h-5.533V60h7.079c1.4 0 2.536-1.147 2.536-2.56v-7.147H61.54v5.587ZM63.087 20h-21.41v4.12h19.864V44.8h4.082V22.56c0-1.413-1.136-2.56-2.536-2.56Z"/><path fill="#FA6624" d="m48.572 37.52 2.377-2.387h5.085a.903.903 0 0 0 .898-.907v-5.293a.911.911 0 0 0-.263-.64.894.894 0 0 0-.635-.267H50.79a.894.894 0 0 0-.635.266.911.911 0 0 0-.264.641v5.133l-2.377 2.387h-4.913l-3.394-3.427v-2.88a.59.59 0 0 0-.582-.586h-3.341a.59.59 0 0 0-.581.587v3.373c0 .32.264.586.58.586h2.84l3.408 3.44v4.947l-3.42 3.453h-2.827a.59.59 0 0 0-.581.587v3.373c0 .32.264.587.58.587h3.342a.59.59 0 0 0 .582-.587v-2.893l3.394-3.426h4.9l2.377 2.4v5.133c0 .507.41.907.898.907h5.244a.903.903 0 0 0 .898-.907v-5.293a.911.911 0 0 0-.263-.642.894.894 0 0 0-.635-.265h-5.085l-2.364-2.413V37.52Z"/></svg>