<svg xmlns="http://www.w3.org/2000/svg" fill="none" viewBox="0 0 210 79"><path fill="#000" d="M48.365 24.51v8.407l-.43-.395a9.99 9.99 0 0 0-3.293-2.023 10.92 10.92 0 0 0-3.838-.691 10.833 10.833 0 0 0-4.137.813 10.784 10.784 0 0 0-3.507 2.33 10.873 10.873 0 0 0-2.3 3.405 10.556 10.556 0 0 0-.86 4.179c0 1.464.298 2.895.86 4.179.563 1.3 1.34 2.435 2.333 3.405a10.85 10.85 0 0 0 3.425 2.287c1.307.543 2.697.823 4.186.823 2.746 0 5.129-.905 7.13-2.715l.43-.411v2.616h3.227V24.51h-3.226Zm-.596 18.953a8.15 8.15 0 0 1-1.638 2.402 7.584 7.584 0 0 1-2.399 1.613 7.392 7.392 0 0 1-2.928.592 7.508 7.508 0 0 1-2.962-.609c-.91-.411-1.72-.938-2.399-1.612a7.39 7.39 0 0 1-1.638-2.402 7.5 7.5 0 0 1-.579-2.912c0-1.02.199-2.04.612-2.962a7.61 7.61 0 0 1 1.622-2.402 7.363 7.363 0 0 1 2.399-1.629 7.699 7.699 0 0 1 2.945-.575c1.042 0 2.068.197 2.994.608.897.393 1.711.952 2.4 1.646a7.733 7.733 0 0 1 1.604 2.418c.38.921.563 1.892.563 2.896a7.187 7.187 0 0 1-.596 2.928Zm10.622-17.472a1.93 1.93 0 0 1-.58 1.415c-.38.378-.86.576-1.422.576a1.952 1.952 0 0 1-1.423-.576 1.93 1.93 0 0 1-.579-1.415c0-.56.199-1.037.58-1.415.38-.379.86-.576 1.422-.576.563 0 1.042.197 1.423.576.38.378.579.855.579 1.415Zm-3.59 4.36h3.176v20.351h-3.176V30.351Zm16.478 5.001a2.495 2.495 0 0 0-.364-1.2 3.102 3.102 0 0 0-.827-.906 4.264 4.264 0 0 0-1.125-.576 4.23 4.23 0 0 0-1.29-.197c-.398 0-.811.066-1.241.181a3.4 3.4 0 0 0-1.175.576 4.021 4.021 0 0 0-.893.938c-.232.362-.348.79-.348 1.283 0 .493.1.888.314 1.25.216.362.497.675.844.938.364.263.745.46 1.175.592.43.132.86.198 1.307.198.86 0 1.704.148 2.531.444a6.806 6.806 0 0 1 2.184 1.25 6.515 6.515 0 0 1 1.522 1.942 5.51 5.51 0 0 1 .58 2.5 5.51 5.51 0 0 1-.58 2.501 6.077 6.077 0 0 1-1.522 1.942 7.123 7.123 0 0 1-2.184 1.25 7.46 7.46 0 0 1-2.531.444c-.86 0-1.704-.148-2.515-.444a7.198 7.198 0 0 1-2.167-1.234 6.36 6.36 0 0 1-1.539-1.892 5.356 5.356 0 0 1-.629-2.468h3.21c.017.444.149.84.364 1.201.215.362.496.658.827.905.331.247.712.428 1.125.576a4.23 4.23 0 0 0 1.29.197c.448 0 .878-.065 1.308-.197.43-.132.827-.329 1.158-.592.348-.264.629-.576.827-.938.215-.362.315-.79.315-1.25 0-.461-.116-.889-.331-1.25a3.526 3.526 0 0 0-2.002-1.53 4.366 4.366 0 0 0-1.274-.198c-1.72 0-3.293-.543-4.699-1.662-.662-.642-1.191-1.316-1.572-2.024-.38-.707-.579-1.53-.579-2.468 0-.937.199-1.743.596-2.5a6.171 6.171 0 0 1 1.555-1.942 7.177 7.177 0 0 1 2.184-1.25 7.297 7.297 0 0 1 2.515-.444 7.388 7.388 0 0 1 4.632 1.645 6.23 6.23 0 0 1 1.556 1.908c.397.74.612 1.58.628 2.485h-3.176l.016.016Zm26.538.428a10.498 10.498 0 0 0-2.333-3.422 11.038 11.038 0 0 0-3.424-2.287 10.846 10.846 0 0 0-4.186-.823c-2.73 0-5.113.905-7.131 2.715l-.447.411v-2.566h-3.21V56h3.21v-8.407l.48.428a10.76 10.76 0 0 0 7.098 2.698c1.472 0 2.879-.296 4.202-.856a10.707 10.707 0 0 0 3.425-2.303 10.642 10.642 0 0 0 2.345-3.477c.542-1.302.82-2.698.815-4.108 0-1.48-.281-2.895-.844-4.195Zm-2.961 7.107a7.877 7.877 0 0 1-1.605 2.386 7.364 7.364 0 0 1-2.4 1.629c-.926.411-1.918.608-2.977.608a7.22 7.22 0 0 1-2.929-.592 7.38 7.38 0 0 1-2.432-1.612 7.927 7.927 0 0 1-1.621-2.386 7.266 7.266 0 0 1-.596-2.945c0-1.053.199-1.99.596-2.912a7.878 7.878 0 0 1 1.621-2.418 7.927 7.927 0 0 1 2.432-1.613 7.333 7.333 0 0 1 2.929-.592 7.65 7.65 0 0 1 2.978.609c.926.411 1.72.954 2.399 1.629a7.495 7.495 0 0 1 1.605 2.385 7.28 7.28 0 0 1 .595 2.912c0 1.02-.198 2.008-.595 2.912Zm24.023-11.319v1.399l-.447-.412c-1.969-1.76-4.335-2.665-7.098-2.714-1.472 0-2.862.28-4.169.839-1.307.576-2.449 1.332-3.425 2.303a11.207 11.207 0 0 0-2.3 3.39 10.413 10.413 0 0 0-.843 4.162c0 1.464.264 2.846.827 4.146a10.47 10.47 0 0 0 2.283 3.405c.976.971 2.118 1.728 3.425 2.287 1.307.576 2.713.856 4.202.856 1.34 0 2.614-.23 3.822-.708 1.191-.46 2.3-1.118 3.276-1.974l.447-.444v2.616h3.209v-19.15h-3.209Zm-.596 11.862a7.386 7.386 0 0 1-1.605 2.386 7.785 7.785 0 0 1-2.382 1.645 7.39 7.39 0 0 1-2.962.609 7.271 7.271 0 0 1-2.928-.592 7.53 7.53 0 0 1-2.399-1.596 8.047 8.047 0 0 1-1.638-2.386 7.403 7.403 0 0 1-.596-2.961 7.53 7.53 0 0 1 .579-2.929 7.577 7.577 0 0 1 1.638-2.402c.679-.69 1.489-1.217 2.416-1.612a7.387 7.387 0 0 1 2.928-.593c1.026 0 2.019.198 2.929.593.91.395 1.704.921 2.382 1.596a7.558 7.558 0 0 1 1.622 2.385 7.15 7.15 0 0 1 .612 2.962c0 1.053-.199 1.99-.596 2.895Zm16.297 7.289c-.96 0-1.853-.181-2.681-.543a6.915 6.915 0 0 1-2.183-1.514 6.934 6.934 0 0 1-2.002-4.92V32.458h-3.144v-3.192h3.144V24h3.176v5.248h4.368v3.192h-4.318v11.434c0 .494.099.955.281 1.399.182.444.447.823.778 1.152.331.329.728.592 1.158.79a3.52 3.52 0 0 0 1.439.295h2.366v3.192h-2.366l-.016.017Zm20.598-14.742a7.444 7.444 0 0 0-2.736-2.572 7.49 7.49 0 0 0-3.65-.916c-.993 0-1.936.181-2.846.543a7.347 7.347 0 0 0-2.416 1.563 8.09 8.09 0 0 0-1.687 2.402 7.377 7.377 0 0 0-.629 3.011c0 1.07.199 2.007.596 2.929a7.614 7.614 0 0 0 1.621 2.402 7.568 7.568 0 0 0 2.416 1.612 7.41 7.41 0 0 0 2.945.592 7.49 7.49 0 0 0 3.65-.915 7.444 7.444 0 0 0 2.736-2.572l2.912 1.316c-1.109 1.842-2.498 3.191-4.169 4.047-1.671.856-3.392 1.283-5.179 1.283-1.472 0-2.862-.28-4.153-.839-1.29-.56-2.432-1.316-3.391-2.27-.977-.954-1.738-2.09-2.317-3.373-.579-1.283-.843-2.682-.843-4.146s.281-2.863.827-4.179a10.62 10.62 0 0 1 2.283-3.422c.976-.97 2.118-1.727 3.425-2.303 1.307-.56 2.713-.84 4.219-.84.943 0 1.853.116 2.73.346.893.23 1.737.576 2.547 1.053.811.46 1.572 1.02 2.251 1.678a10.408 10.408 0 0 1 1.77 2.254l-2.912 1.316ZM163.417 24v7.716l.414-.362c1.77-1.398 3.756-2.09 5.956-2.09 1.324 0 2.581.248 3.739.758a9.611 9.611 0 0 1 5.096 5.1c.496 1.151.744 2.402.744 3.735v11.862h-3.209V38.774c0-.888-.166-1.71-.513-2.468a6.839 6.839 0 0 0-1.39-2.007 6.516 6.516 0 0 0-2.018-1.365 6.062 6.062 0 0 0-2.432-.494c-.861 0-1.721.165-2.499.51a6.459 6.459 0 0 0-2.018 1.382 6.921 6.921 0 0 0-1.357 2.024 6.226 6.226 0 0 0-.496 2.484v11.862h-3.21V24h3.21-.017Z"/></svg>