<svg xmlns="http://www.w3.org/2000/svg" fill="none" viewBox="0 0 210 80"><path fill="#A7B8CF" d="M44.547 46.434a107.076 107.076 0 0 0-1.365-3.98c1.846-2.03 12.913-14.908 8.976-25.214 3.876 3.91 3.001 10.56 1.313 15.345-1.75 4.803-4.908 9.684-8.924 13.849Zm11.303 7.628c-2.143 2.24-7.489 6.562-7.926 6.868a36.513 36.513 0 0 0 2.904 2.204 48.748 48.748 0 0 0 7.35-6.754c-.692-.7-1.47-1.47-2.328-2.3v-.018ZM45.002 47.93c.35 1.18.7 2.493 1.146 4.234-1.758-.508-3.176-.928-4.523-1.4-2.484 1.907-5.1 3.56-7.742 4.838 1.837.63 3.875 1.338 5.791 2.003 5.433-3.018 10.288-7.61 13.84-12.694 0 0 3.14-4.593 4.55-8.66.953-2.739 1.627-6.072 1.277-9.108-.805-4.488-2.546-5.791-3.412-6.465 2.257 2.1 1.198 10.175-1.024 14.601-2.222 4.453-5.756 8.88-9.903 12.66h.009l-.009-.01Zm21.609-13.85c0 2.827-1.12 5.74-2.354 8.303.63.805 1.173 1.592 1.619 2.38 2.922-6.045 1.364-9.764.735-10.673v-.01ZM27.908 53.538s1.933.665 4.575 1.584c2.747-1.234 5.39-2.887 7.839-4.83a60.15 60.15 0 0 1-3.885-1.653c-2.79 2.108-5.703 3.78-8.53 4.908v-.009Zm32.115-15.633c.315.28 1.995 1.898 2.476 2.414 2.344-6.08.288-10.559-.473-11.18.263 2.94-.734 6.045-2.003 8.775v-.01ZM54.8 52.767l-.9-5.546c-3.78 4.33-8.425 8.11-13.08 10.77 2.494.865 4.646 1.618 5.66 1.968 3.054-1.995 5.88-4.462 8.329-7.192H54.8Zm-16.035 13.21c.516.245 1.373-.245 2.143-.664.28-.158.551-.315.822-.473l-.866-.394c-.437.254-.883.5-1.312.727-.604.323-1.12.638-.77.796h-.009l-.009.009Zm-.692.324c-.796-.359 0-.857.823-1.277a38.2 38.2 0 0 0 2.16-1.207c.99.446 2.328.997 3.343 1.373-.22.149-.447.28-.674.411l-1.522-.568c-.28.157-.543.315-.823.472.035.411.07.945.105 1.347-.262.132-.542.28-.805.403-.035-.403-.087-.919-.105-1.313-1.05.517-1.898.64-2.493.35m-1.015.919c1.05.595 3.788.752 6.614-.761 2.415-1.487 2.44-2.93.927-3.35-2.615-.736-9.124 1.758-8.048 3.656.07.131.262.324.507.455Zm-.726.245c-.42-.228-2.283-1.505 2.091-3.666 4.934-2.196 8.696-1.504 7.917.604-.997 2.677-7.26 4.593-9.999 3.062h-.009Z"/><path fill="#A7B8CF" d="M63.741 25.665C58.02 15.307 49.228 12 43.427 12c-4.365 0-9.51 2.108-13.472 4.812 3.49 1.6 7.996 5.835 8.057 5.896-2.904-1.111-6.526-2.458-12.16-2.887a49.995 49.995 0 0 0-7.235 7.454c.28 2.8 1.05 5.739 1.05 5.739-2.292-1.741-4.033-1.689-6.588 3.464-1.986 4.645-2.537 8.88-1.706 12.151 0 0 1.724 9.807 13.263 14.663-.473-1.689-.578-3.63-.341-5.757a32.612 32.612 0 0 1-5.722-3.604c.289-2.415 1.024-5.057 2.196-7.821 1.619-3.893 1.592-5.538 1.592-5.564 0 .026 2.004 4.55 4.742 8.083 1.548-3.236 3.464-5.887 5.004-7.987l-1.373-2.476A52.707 52.707 0 0 1 37.39 31.3c.744.385 1.75.901 2.493 1.312 3.176-2.668 7.043-5.135 11.18-6.692-2.554-4.208-5.86-7.06-5.86-7.06s10.13.997 15.37 5.739c1.199.192 2.24.542 3.158 1.058l.01.009ZM15.966 45.847c-.498 1.601-.83 3.141-.997 4.585a20.326 20.326 0 0 1-2.266-3.237c.166-1.409.499-2.896.962-4.427.648-1.942 1.234-2.16 2.144-.822.787 1.11.665 2.23.157 3.893v.008Zm12.117-12.92h-.009c-1.277-2.704-1.715-3.693-2.843-6.615l.052-.052c3.018.997 3.893 1.33 6.789 2.554a51.947 51.947 0 0 0-3.98 4.103l-.01.01Zm20.06-17.331a24.453 24.453 0 0 0-5.004 1.364 23.957 23.957 0 0 0-2.861-1.942c1.627-.612 3.237-1.058 4.768-1.295.569-.07 2.283-.288 3.78.884.9.674.052.857-.675.989h-.008ZM116.126 30.975l3.194-1.373h.192c-.324 4.112-.586 12.3-.586 17.208 0 2.948.079 5.922 3.114 5.922a7.22 7.22 0 0 0 1.741-.27v.935c-.892.315-2.003.586-2.966.586-3.193 0-4.732-1.845-4.732-4.899 0-3.053.157-15.476.043-18.109ZM78.683 39.444c0-2.826-.122-5.678-.253-8.504 1.032.096 2.52.166 3.543.166 1.023 0 3.097-.166 3.998-.166 1.933 0 7.06.07 7.06 5.547 0 5.782-5.582 6.893-8.67 6.893-.962 0-1.776-.035-2.616-.096v1.802c0 2.826.131 5.678.254 8.504a14.487 14.487 0 0 0-2.003-.167c-.517 0-1.033.07-1.575.167.131-2.826.254-5.678.254-8.504v-5.642h.008Zm3.062 2.108c.683.149 1.575.245 2.292.245 2.642 0 5.608-.936 5.608-5.083 0-3.464-1.68-4.2-5.004-4.2h-2.896v9.038Z"/><path fill="#A7B8CF" d="M117.202 36.058c-6.106 0-8.004 3.78-8.004 6.833 0 6.815 0 8.897.157 10.699-.499-.114-1.041-.201-1.54-.201-.542 0-1.041.078-1.618.2.157-1.924.157-4.977.157-9.369v-1.26c0-2.038 0-4.741-.157-8.118.586.114 1.085.201 1.618.201.499 0 1.041-.078 1.54-.201-.192 1.88-.192 2.817-.192 3.797l.07.017c2.493-3.394 6.027-4.453 9.5-4.453 7.2 0 11.146 10.98 10.962 14.47 1.076-2.318 1.444-3.508 2.441-6.15a127.538 127.538 0 0 0 2.642-7.751h2.546c-.184.367-.473.997-.866 1.88a329.76 329.76 0 0 0-1.418 3.16 682.48 682.48 0 0 0-1.811 4.076c-.656 1.487-1.321 3.018-2.003 4.584-.682 1.575-1.356 3.123-2.03 4.663-.673 1.548-1.286 3-1.854 4.392a118.569 118.569 0 0 0-1.479 3.761c-.42 1.12-.743 2.013-.936 2.669-.516-.132-2.108-.132-2.624 0 3.35-5.477 5.319-10.953 5.319-10.953-.123-7.358-3.815-16.981-10.42-16.981M91.211 36.74c2.31-1.767 4.164-2.274 6.194-2.274 3.692 0 6.237 2.31 6.237 5.809 0 2.948-.157 5.835-.157 9.133 0 2.44.367 4.147.367 4.147-1.041-.123-2.563 0-3.56 0 .14-.438.542-1.094.385-2.432-1.846 1.88-3.42 2.86-6.045 2.86s-5.118-1.845-5.118-4.82c0-3.132 2.073-4.82 5.424-5.371 5.581-.901 5.774-1.216 5.774-2.747 0-2.625-1.155-4.943-4.234-4.943-2.048 0-3.963.98-4.847 2.66h-.42v-2.04h.017l-.017.018Zm9.509 6.982c-2.659.9-8.048.62-8.048 4.899 0 2.467 1.653 3.726 3.35 3.726 1.96 0 3.657-1.294 4.541-2.747l.157-5.878ZM138.216 39.444c0-2.826-.131-5.678-.254-8.504 1.61.096 3.255.166 4.864.166 1.61 0 3.255-.166 4.864-.166 7.55 0 10.639 4.112 10.639 10.866 0 8.766-6.649 11.793-11.741 11.793-1.452 0-2.878-.167-4.321-.167-1.444 0-2.87.07-4.322.166.131-2.825.254-5.677.254-8.503v-5.643l.017-.008Zm3.062 5.59c0 2.283.07 4.602.192 6.824.901.192 2.161.323 3.806.323 4.742 0 9.474-1.863 9.474-10.358 0-7.462-3.446-9.3-8.739-9.3-1.899 0-3.22.158-4.541.324-.131 2.065-.192 4.34-.192 6.658v5.529ZM158.346 53.599a5.764 5.764 0 0 0-2.738 0 1225.002 1225.002 0 0 0 10.095-23.087h1.041c3.167 7.62 7.996 19.578 9.711 23.087a15.941 15.941 0 0 0-2.134-.167c-.578 0-1.129.07-1.715.166-.656-2.431-7.095-18.012-7.095-18.012s-5.966 13.472-7.165 18.013ZM186.026 30.512c7.13 0 12.09 4.295 12.09 11.757 0 7.463-4.969 11.758-12.09 11.758-7.121 0-12.064-4.295-12.064-11.758 0-7.462 4.969-11.757 12.064-11.757Zm0 2.012c-5.03 0-8.477 3-8.477 9.745 0 6.745 3.447 9.746 8.477 9.746s8.512-3 8.512-9.746c0-6.745-3.447-9.745-8.512-9.745Z"/><path fill="#A7B8CF" d="M170.996 44.658h-10.708v1.338h10.708v-1.338Z"/></svg>