<svg xmlns="http://www.w3.org/2000/svg" fill="none" viewBox="0 0 210 80"><path fill="#000" d="M86.254 58.712h-6.387A2.267 2.267 0 0 0 77.6 60.98v3.752c0 1.04.708 1.947 1.717 2.198l5.006 1.252c.219.055.373.251.373.478v9.073c0 .272-.22.493-.493.493h-6.387a.216.216 0 0 0-.216.216v1.343c0 .119.096.216.216.216h6.387a2.267 2.267 0 0 0 2.267-2.267V68.66c0-1.04-.708-1.947-1.717-2.198l-5.006-1.252a.493.493 0 0 1-.373-.478V60.98c0-.271.22-.493.493-.493h6.387a.216.216 0 0 0 .216-.216v-1.343a.216.216 0 0 0-.216-.216Zm13.118 0h-6.386a2.267 2.267 0 0 0-2.267 2.267v16.753a2.267 2.267 0 0 0 2.267 2.267h6.386a.216.216 0 0 0 .217-.216V78.44a.216.216 0 0 0-.216-.216h-6.387a.493.493 0 0 1-.493-.493v-10.15h5.992a.216.216 0 0 0 .216-.216v-1.343a.216.216 0 0 0-.216-.216h-5.992v-4.829c0-.272.22-.493.493-.493h6.386a.216.216 0 0 0 .217-.216v-1.343a.215.215 0 0 0-.216-.213Zm17.094 0h-6.387a.216.216 0 0 0-.216.216v20.854c0 .118.096.216.216.216h5.795a2.857 2.857 0 0 0 2.857-2.858V60.978a2.264 2.264 0 0 0-2.265-2.266Zm.492 18.427c0 .598-.487 1.084-1.084 1.084h-4.237V60.486h4.829c.271 0 .493.221.493.493v16.16h-.001Zm12.626-18.427h-6.386a.216.216 0 0 0-.216.216v20.854c0 .118.096.216.216.216h1.342a.217.217 0 0 0 .217-.216V60.486h4.829c.271 0 .493.22.493.493v4.258c0 .13-.053.256-.145.349l-3.313 3.313a.649.649 0 0 0 0 .915l3.313 3.314a.495.495 0 0 1 .145.348v6.308c0 .119.096.216.216.216h1.342a.216.216 0 0 0 .216-.216v-6.308c0-.6-.238-1.177-.664-1.602l-2.516-2.516 2.516-2.516a2.266 2.266 0 0 0 .664-1.603v-4.257a2.27 2.27 0 0 0-2.269-2.27Z"/><path fill="#E6C000" d="M135.009 25.77a.882.882 0 1 0-.883-1.53l-4.643 2.68v-4.85l5.526-3.19a.882.882 0 1 0-.883-1.53l-6.41 3.7v6.892l-17.464 10.082-.029.023a.973.973 0 0 0-.124.095l-.044.04a.925.925 0 0 0-.124.163l-.003.007a.88.88 0 0 0-.113.403c0 .012-.005.022-.005.034v16.163a.884.884 0 0 0 1.768 0V40.32l4.643 2.68a.879.879 0 0 0 1.206-.322.883.883 0 0 0-.323-1.207l-4.643-2.68 4.2-2.425 5.529 3.204 6.41 3.687 6.409-3.702a.883.883 0 0 0-.883-1.53l-5.528 3.193-5.524-3.178-4.646-2.692 4.203-2.428 5.526 3.191a.889.889 0 0 0 .884 0l5.968-3.445a.882.882 0 0 0 .323-1.207.882.882 0 0 0-1.206-.323l-5.527 3.191-4.201-2.425 10.611-6.132ZM99.615 38.594c-.004-.019-.007-.037-.012-.055a.892.892 0 0 0-.08-.192s0-.002-.002-.003a.906.906 0 0 0-.125-.164c-.013-.014-.028-.025-.043-.04a.895.895 0 0 0-.125-.095c-.01-.007-.018-.017-.029-.023l-5.526-3.191v-6.892l-5.969-3.445v-6.892l-6.41-3.7a.884.884 0 0 0-.883 1.53l5.526 3.19v6.891l5.968 3.446v4.85l-10.17-5.87v-6.892l-6.41-3.7a.884.884 0 0 0-.883 1.53l5.527 3.19v4.85l-4.643-2.681a.884.884 0 0 0-.884 1.53l4.643 2.68-4.643 2.68a.882.882 0 1 0 .884 1.529l5.526-3.191 10.17 5.87-4.201 2.426-5.969-3.446-6.41 3.7a.882.882 0 1 0 .884 1.53l5.526-3.19 4.201 2.425-4.642 2.68a.883.883 0 1 0 .883 1.53l11.495-6.636 4.201 2.425-4.643 2.68a.883.883 0 1 0 .884 1.53l4.643-2.68v14.63a.884.884 0 0 0 1.767 0V38.777c0-.012-.004-.023-.004-.035a.907.907 0 0 0-.022-.147Z"/><path fill="#E6C000" d="M111.459 31.454a.884.884 0 0 0-1.207-.323l-4.643 2.68v-4.863l5.078-2.926 5.975 3.45 6.411-3.7a.883.883 0 1 0-.884-1.53l-5.527 3.19-4.207-2.43 10.618-6.122.05-.03 5.918-3.415a.883.883 0 1 0-.884-1.53l-4.643 2.681v-5.36a.883.883 0 1 0-1.767 0v6.38l-16.138 9.306v-4.839l11.495-6.636a.883.883 0 1 0-.883-1.53l-4.643 2.681v-4.852l5.505-3.204a.883.883 0 1 0-.89-1.528l-6.384 3.715v6.89l-4.201 2.425V8.279l5.526-3.177a.883.883 0 1 0-.882-1.532l-4.644 2.67V.884a.883.883 0 1 0-1.767 0v12.252l-4.201-2.425V4.329a.884.884 0 0 0-1.767 0v7.402l5.968 3.446v4.85l-10.17-5.87V7.774a.884.884 0 0 0-1.767 0v5.361l-4.643-2.68a.884.884 0 0 0-.883 1.529l17.463 10.082v11.742l-4.201-2.426v-6.891l-6.41-3.702a.884.884 0 0 0-.884 1.53l5.527 3.191v6.892l5.968 3.446v15.825l-.019 13.608v.002l-.01 7.065c0 .034.007.066.01.1v7.327c0 .12.096.217.215.217l1.336.002a.216.216 0 0 0 .216-.215V65.29l.019-13.61V35.851l5.527-3.191a.881.881 0 0 0 .324-1.207Z"/></svg>