<svg xmlns="http://www.w3.org/2000/svg" fill="none" viewBox="0 0 210 80"><path fill="#EDA154" d="M49.718 47.464c-2.99 4.114-7.844 6.802-13.33 6.802-5.485 0-10.326-2.674-13.33-6.802l5.993-3.36a14.973 14.973 0 0 1 14.647 0l5.993 3.36h.027Z"/><path fill="#F3B36A" d="M21.11 43.884a16.132 16.132 0 0 1-.96-3.524l13.03-4.17c2.1-.671 4.358-.671 6.459 0l13.028 4.17a16.709 16.709 0 0 1-.96 3.524l-13.18-4.224a6.984 6.984 0 0 0-4.237 0l-13.18 4.224Z"/><path fill="#F9C682" d="M52.022 32.597c.412 1.221.672 2.496.782 3.827L37.5 33.969a7.356 7.356 0 0 0-2.194 0L20 36.424c.11-1.33.384-2.606.782-3.827l13.947-2.235a10.534 10.534 0 0 1 3.346 0l13.947 2.235Z"/><path fill="#FFDA9A" d="M46.742 25a16.677 16.677 0 0 1 3.347 3.662H22.715A16.346 16.346 0 0 1 26.062 25h20.694-.014Z"/><path fill="#040506" d="M69.316 26.454h8.955c2.318 0 4.17.644 5.596 1.92 1.412 1.275 2.125 3.044 2.125 5.307 0 2.263-.7 4.018-2.098 5.307-1.371 1.262-3.237 1.893-5.595 1.893h-5.72v8.777h-3.263V26.454Zm3.264 11.355h5.595c1.29 0 2.345-.357 3.168-1.056.85-.727 1.276-1.755 1.276-3.086 0-1.412-.425-2.455-1.276-3.113-.85-.685-1.92-1.028-3.209-1.028H72.58v8.283Zm16.525-5.719h3.045v1.893h.069c.342-.686.85-1.22 1.508-1.591a3.914 3.914 0 0 1 2.057-.59c.59 0 1.097.11 1.536.33l-.562 3.181a3.356 3.356 0 0 0-1.344-.26c-2.098 0-3.14 1.44-3.14 4.306v10.299h-3.169V32.09Zm21.641 17.554v-1.851h-.068c-.233.48-.809 1.001-1.701 1.563-.878.535-2.002.796-3.401.796-1.989 0-3.483-.48-4.484-1.427-.988-.973-1.468-2.18-1.468-3.648 0-1.467.439-2.633 1.303-3.442.891-.823 2.4-1.495 4.512-2.016 1.879-.48 3.14-.905 3.799-1.261.672-.357 1.015-.878 1.015-1.564s-.288-1.248-.851-1.687c-.562-.466-1.412-.7-2.551-.7-2.153 0-3.497 1.112-4.018 3.32l-2.784-.988c.302-1.522 1.043-2.756 2.194-3.716 1.152-.947 2.675-1.427 4.54-1.427 2.03 0 3.648.535 4.868 1.591 1.248 1.043 1.865 2.66 1.865 4.869v11.602h-2.783l.013-.014Zm-4.58-7.693c-1.358.37-2.263.781-2.743 1.22-.453.44-.686 1.001-.686 1.687 0 1.618 1.042 2.414 3.141 2.414 1.467 0 2.578-.316 3.373-.96.782-.645 1.18-1.426 1.18-2.36v-3.949h-.069c-.082.192-.219.37-.397.535-.179.137-.576.33-1.207.59-.631.247-1.495.507-2.579.795l-.013.028Zm23.259.836 3.168.796c-.302 2.03-1.097 3.634-2.386 4.8-1.29 1.165-2.949 1.755-5.006 1.755-2.332 0-4.238-.823-5.719-2.482-1.467-1.66-2.194-3.922-2.194-6.789 0-2.866.768-5.156 2.29-6.788 1.522-1.66 3.415-2.483 5.664-2.483 1.989 0 3.634.604 4.937 1.824 1.33 1.194 2.098 2.757 2.318 4.677l-3.113.494c-.179-1.166-.617-2.126-1.303-2.88-.672-.768-1.618-1.166-2.839-1.166-1.467 0-2.633.549-3.497 1.66-.878 1.11-1.303 2.66-1.303 4.676s.425 3.58 1.276 4.704c.877 1.11 2.057 1.66 3.565 1.66 1.221 0 2.167-.426 2.839-1.262.672-.837 1.111-1.907 1.303-3.182v-.014Zm7.831 1.358v-9.243h-2.551V32.09h2.619v-4.306h3.045v4.306h4.32v2.812h-4.279v8.914c0 .987.137 1.7.425 2.125.302.398.905.59 1.797.59h1.302v3.113h-1.536c-1.878 0-3.209-.452-3.99-1.357-.768-.906-1.139-2.29-1.139-4.142h-.013Zm11.492-12.055h3.168v17.568h-3.168V32.09Zm-.137-3.223v-3.414h3.428v3.414h-3.428Zm19.652 13.92 3.168.796c-.302 2.03-1.097 3.634-2.386 4.8-1.289 1.165-2.949 1.755-5.006 1.755-2.331 0-4.237-.823-5.719-2.482-1.467-1.66-2.194-3.922-2.194-6.789 0-2.866.768-5.156 2.29-6.788 1.523-1.66 3.415-2.483 5.651-2.483 1.988 0 3.634.604 4.937 1.824 1.33 1.194 2.098 2.757 2.317 4.677l-3.113.494c-.178-1.166-.603-2.126-1.303-2.88-.672-.768-1.618-1.166-2.838-1.166-1.468 0-2.633.549-3.497 1.66-.864 1.11-1.303 2.66-1.303 4.676s.425 3.58 1.275 4.704c.878 1.11 2.057 1.66 3.566 1.66 1.22 0 2.167-.426 2.852-1.262.672-.837 1.111-1.907 1.303-3.182v-.014Zm18.857 1.262 2.386 1.824c-.672 1.234-1.618 2.263-2.811 3.086-1.193.795-2.661 1.193-4.375 1.193-2.4 0-4.347-.837-5.856-2.524-1.508-1.7-2.263-3.95-2.263-6.76 0-2.812.741-5.047 2.222-6.72 1.509-1.701 3.415-2.552 5.719-2.552 2.304 0 4.196.837 5.664 2.524 1.467 1.66 2.194 3.908 2.194 6.761v.96h-12.562c.041 1.563.466 2.866 1.275 3.908.823 1.015 2.003 1.523 3.539 1.523.726 0 1.357-.096 1.892-.302a3.7 3.7 0 0 0 1.44-.891c.412-.425.713-.755.878-.988.178-.247.397-.59.658-1.028v-.014Zm-9.655-4.745h9.353c-.068-1.344-.48-2.482-1.248-3.415-.768-.946-1.906-1.426-3.428-1.426s-2.592.507-3.401 1.522c-.809.987-1.235 2.098-1.276 3.319Z"/></svg>