<svg xmlns="http://www.w3.org/2000/svg" fill="none" viewBox="0 0 210 80"><path fill="url(#a)" fill-rule="evenodd" d="M56.674 23.517 69.488 36.33a5.167 5.167 0 0 1 0 7.316l-12.84 12.838a5.17 5.17 0 0 1-7.316 0L36.517 43.67a5.167 5.167 0 0 1 0-7.316l12.84-12.838a5.17 5.17 0 0 1 7.317 0Zm-4.53 3.245L39.814 39.09a1.298 1.298 0 0 0-.052 1.781L52.08 53.188a1.3 1.3 0 0 0 1.782.051l12.33-12.328a1.29 1.29 0 0 0 0-1.832L53.925 26.812a1.298 1.298 0 0 0-1.781-.05Zm1.081 5.407 7.597 7.596a.323.323 0 0 1 0 .458l-7.61 7.608a.323.323 0 0 1-.457 0l-7.597-7.596a.322.322 0 0 1 0-.458l7.61-7.608a.323.323 0 0 1 .457 0Z" clip-rule="evenodd"/><path fill="#000" d="M93.106 26.469h-5.472l-10.27 27.1h4.798l2.303-6.183h11.707l2.342 6.183h4.861l-10.27-27.1Zm-7.063 16.68 4.238-11.324 4.3 11.324h-8.538Zm35.198 6.578h-10.46l10.345-12.545v-3.435h-15.893v3.855h10.498l-10.651 12.57v3.397h16.161v-3.842Zm4.53-1.145c0 4.046 2.036 5.216 5.815 5.216 1.171 0 2.303-.114 3.131-.267v-3.817c-.675.076-1.095.115-1.846.115-1.628 0-2.646-.191-2.646-1.96V37.602h4.148v-3.855h-4.148v-5.815h-4.454v5.815h-2.761v3.855h2.761v10.992-.012Zm28.962-5.433c0-5.433-3.054-9.771-8.793-9.771-5.739 0-9.442 4.49-9.442 10.305 0 6.12 3.97 10.306 9.633 10.306 3.957 0 7.1-2.074 8.487-5.547l-3.881-1.476c-.61 2.036-2.379 3.168-4.606 3.168-2.914 0-4.95-2.074-5.294-5.471h13.896v-1.514Zm-13.667-1.883c.675-2.685 2.494-4.084 4.836-4.084 2.863 0 4.225 1.896 4.263 4.084h-9.099Zm20.36 2.417c0-4.046 2.113-6.425 5.218-6.425 2.417 0 3.893 1.629 4.453 3.779l3.818-2.074c-1.056-3.168-4.009-5.585-8.271-5.585-5.663 0-9.748 4.185-9.748 10.305s4.085 10.306 9.748 10.306c4.301 0 7.329-2.532 8.347-5.738l-3.894-1.96c-.56 2.189-2.036 3.78-4.453 3.78-3.093 0-5.218-2.342-5.218-6.388Z"/><defs><linearGradient id="a" x1="152.171" x2="137.541" y1="50.694" y2=".535" gradientUnits="userSpaceOnUse"><stop offset=".13" stop-color="#5C7EBF"/><stop offset=".8" stop-color="#765DA8"/></linearGradient></defs></svg>