<svg xmlns="http://www.w3.org/2000/svg" fill="none" viewBox="0 0 210 80"><path fill="#FF3567" fill-rule="evenodd" d="M64.553 37.3c-.592-.3-.74-.45-.74-.9 0-.3.148-.45.148-.75.148-.75.296-2.1.296-2.85 0-6.45-3.852-10.8-11.11-10.8H42.185c-.889 0-1.185.3-1.185 1.2v33.3c0 .9.296 1.2 1.185 1.2h15.406c8.147 0 11.999-4.5 11.999-10.8 0-4.5-1.63-7.65-5.037-9.6Zm-15.258-4.95c0-.9.297-1.2 1.185-1.2h2.667c1.333 0 2.37.9 2.37 2.4 0 1.65-1.037 2.4-2.37 2.4h-2.666c-.89 0-1.186-.3-1.186-1.2v-2.4Zm8.148 15.9H50.48c-.89 0-1.186-.3-1.186-1.2v-2.4c0-.9.297-1.2 1.185-1.2h6.963c1.926 0 3.11.75 3.11 2.4s-1.036 2.4-3.11 2.4Zm15.258 8.1v-23.1c0-.75.296-1.2 1.185-1.2h6.37c.888 0 1.184.3 1.184 1.2V56.2c0 .75-.296 1.2-1.185 1.2h-6.37c-.888.15-1.184-.3-1.184-1.05Zm0-28.05v-5.1c0-.75.296-1.2 1.185-1.2h6.37c.888 0 1.184.3 1.184 1.2v5.1c0 .75-.296 1.2-1.185 1.2h-6.37c-.888-.15-1.184-.45-1.184-1.2Zm15.554 12.15h-2.963c-.889 0-1.185-.3-1.185-1.05v-6.15c0-.75.296-1.05 1.185-1.05h2.963c.888 0 1.185-.3 1.185-1.2v-7.8c0-.75.296-1.2 1.185-1.2h6.221c.89 0 1.185.3 1.185 1.2V31c0 .75.297 1.2 1.185 1.2h5.926c.889 0 1.185.3 1.185 1.05v6.15c0 .75-.296 1.05-1.185 1.05h-5.925c-.89 0-1.186.3-1.186 1.2v14.7c0 .75-.296 1.2-1.185 1.2h-6.37c-.888 0-1.184-.3-1.184-1.2v-14.7c0-.75-.297-1.2-1.037-1.2ZM119.215 58c-4 0-8.148-1.2-11.11-3-.445-.3-.593-.9-.297-1.5l2.37-4.35c.445-.75 1.037-.75 1.778-.3 2.222 1.2 5.037 2.25 7.259 2.25 1.333 0 2.37-.45 2.37-1.35 0-.9-.889-1.2-2.37-1.2h-1.186c-6.073 0-10.221-3-10.221-8.1 0-5.85 5.185-8.85 10.962-8.85 3.852 0 6.666.6 9.629 2.25.592.3.74.9.444 1.5l-2.666 4.5c-.296.6-1.185.75-1.778.3-2.074-1.2-3.851-1.65-5.629-1.65-1.481 0-2.37.45-2.37 1.2 0 .9.741 1.2 2.963 1.2h1.333c5.777 0 9.629 2.85 9.629 7.65.148 6.15-4.593 9.45-11.11 9.45Zm30.367-14.25 8.295 12.3c.445.75.149 1.5-.74 1.5h-7.407c-.889 0-1.481-.15-2.222-1.2l-4-5.7c-.444-.6-.888-.6-1.481-.15l-.444.45c-.741.6-.741 1.05-.741 1.95v3.6c0 .75-.296 1.05-1.185 1.05h-6.37c-.74 0-1.037-.3-1.037-1.05V23.05c0-.75.297-1.05 1.037-1.05h6.37c.889 0 1.185.3 1.185 1.05v14.7c0 .75.741 1.05 1.333.3l4.444-4.8c.741-.75 1.482-1.2 2.37-1.2h8c1.037 0 1.185.9.592 1.5l-7.703 8.1c-.74.9-.889 1.2-.296 2.1Zm10.814 12.6v-23.1c0-.75.296-1.2 1.185-1.2h6.369c.889 0 1.186.3 1.186 1.2V56.2c0 .75-.297 1.2-1.186 1.2h-6.369c-.889.15-1.185-.3-1.185-1.05Zm0-28.05v-5.1c0-.75.296-1.2 1.185-1.2h6.369c.889 0 1.186.3 1.186 1.2v5.1c0 .75-.297 1.2-1.186 1.2h-6.369c-.889-.15-1.185-.45-1.185-1.2Z" clip-rule="evenodd"/></svg>