<svg xmlns="http://www.w3.org/2000/svg" fill="none" viewBox="0 0 210 80"><path fill="#2492EB" d="m55.04 41.565 3.322 3.57-2.846 2.345c-3.536 2.607-7.514 2.903-11.65 2.05-3.17-.654-5.747-2.339-7.702-4.918-1.243-1.644-1.809-3.55-2.03-5.558-.263-2.373-.187-4.746.656-7.016 1.002-2.703 2.707-4.87 5.249-6.328 1.03-.591 2.03-1.245 3.122-1.699 2.376-.997 4.848-.846 7.348-.364 3.24.626 5.567 2.627 7.812 4.938l-3.343 3.095c-.801-.653-1.499-1.34-2.307-1.863-3.032-1.947-6.278-2.408-9.545-.778-2.838 1.417-4.35 3.859-4.489 7.064-.048 1.149-.07 2.325.414 3.384 1.32 2.883 3.385 4.953 6.61 5.613 3.46.709 6.375-.358 8.84-2.792.194-.193.318-.447.525-.75l.014.007Zm20.795-9.107v-1.623c-.02-.413.152-.544.553-.537h3.508c.484-.014.588.193.588.626v10.139l.013 8.22c0 .529-.145.715-.69.694a54.29 54.29 0 0 0-3.509 0c-.56.02-.718-.179-.67-.702.042-.42.007-.846.007-1.417l-.67.461c-1.34.99-2.762 1.823-4.461 2.023-2.666.316-4.939-.564-6.935-2.284-2.223-1.92-3.177-4.382-3.253-7.257-.069-2.407.367-4.67 1.651-6.74 2.32-3.742 6.61-5.221 10.72-3.612.745.296 1.408.812 2.106 1.245.324.2.628.44 1.077.764h-.035Zm-10.67 7.738c-.118 3.15 2.051 5.888 5.145 5.853 1.789-.02 3.302-.557 4.365-2.104 1.243-1.803 1.437-3.75.843-5.778-.857-2.937-3.695-4.347-6.527-3.522-2.445.715-3.826 2.772-3.833 5.55h.007Zm56.253 2.25 1.61-3.536 3.632-8.075c.173-.386.387-.558.829-.55l3.861.013c.173 0 .345.02.628.041l-1.229 2.752-10.65 23.38c-.186.412-.407.536-.835.529-1.285-.02-2.577 0-3.861-.007-.166 0-.339-.02-.594-.035l.435-1.052 3.17-6.878c.173-.372.18-.688.028-1.046l-6.941-16.707c-.118-.275-.201-.571-.325-.915l.601-.048 3.861-.007c.407 0 .628.11.787.502l4.565 11.081.249.564h.166l.013-.007Zm27.702 4.78 3.246-3.488c.691.544 1.285 1.121 1.976 1.52.621.358 1.34.606 2.051.757.794.172 1.485-.2 2.051-.764.415-.412.484-.907.069-1.361a6.81 6.81 0 0 0-1.568-1.273l-3.315-1.706c-1.195-.708-2.251-1.61-2.935-2.854-1.022-1.85-.808-4.08.539-5.723 1.588-1.94 3.729-2.51 6.084-2.201 1.775.234 3.44.935 4.959 1.912l.981.695-3.274 3.191c-.759-.488-1.512-1.093-2.362-1.492-.511-.241-1.167-.227-1.761-.214-.497.014-.787.406-.898.867-.124.489-.034.929.442 1.21l3.322 1.947c1.14.647 2.238 1.321 3.122 2.318 1.305 1.472 1.575 3.206 1.153 5.015-.483 2.056-1.705 3.693-3.777 4.333-3.115.956-6.092.667-8.668-1.575-.442-.385-.919-.73-1.43-1.128l-.007.014ZM168.797 23h4.496c.401 0 .339.296.339.537v5.88c0 .138.013.276 0 .406-.035.358.131.482.476.475l2.162-.007c.373-.007.525.124.518.51v3.321c.007.413-.159.544-.553.537-.663-.02-1.326.02-1.989-.014-.483-.027-.628.138-.628.626l.007 13.922c0 .509-.254.763-.76.763-1.153 0-2.3-.027-3.453.014-.518.014-.663-.151-.656-.66l.027-13.922c0-.599-.166-.805-.753-.743-.386.041-.78-.007-1.167.014-.414.02-.545-.165-.539-.557v-3.26c0-.406.145-.565.553-.544l1.347.007c.442.027.566-.151.559-.578l-.007-5.998.035-.729h-.014Zm-33.828 5.104 1.064-1.713 1.567-2.455c.132-.193.408-.406.615-.413l6.844-.014c.09 0 .187.034.304.055v26.365l-.608.034c-1.187 0-2.382-.02-3.57.014-.504.014-.684-.124-.67-.653l.014-4.196.013-16.316c0-.543-.124-.743-.704-.729l-4.033.014h-.836v.007Zm-46.48 4.21c.655-.613 1.194-1.26 1.864-1.706 1.243-.833 2.624-1.067 4.054-.427.138.062.31.316.276.427l-1.319 4.003-.65-.227c-1.035-.406-1.898-.117-2.513.832-.85 1.307-.919 2.793-.946 4.264l-.042 9.905v.743h-4.876v-.633l-.014-18.468c0-.543.125-.757.705-.73.912.05 1.83.035 2.749 0 .525-.02.76.132.704.682-.041.447-.007.901-.007 1.334h.014Zm13.619.034c1.657-2.146 3.591-3.13 6.326-2.05l-1.436 4.299-.346-.096c-1.547-.592-2.645-.172-3.163 1.417a12.13 12.13 0 0 0-.58 3.363c-.083 3.398-.062 6.796-.055 10.194 0 .557-.145.729-.712.715-1.36-.041-2.72-.014-4.157-.014v-.68l-.014-18.469c0-.612.193-.757.766-.73.954.042 1.914.022 2.867.008.373 0 .531.13.518.509-.021.509 0 1.025 0 1.54l-.014-.006Z"/></svg>