<svg xmlns="http://www.w3.org/2000/svg" fill="none" viewBox="0 0 210 80"><path fill="#6C3A17" d="M100.93 22h1.612c.142.025.284.055.426.076 1.232.193 2.476.32 3.687.601 1.344.316 2.601.879 3.491 2.023.179.231.325.252.597.177 3.056-.875 5.921-.484 8.539 1.379.359.256.693.543 1.069.837.238-.467.48-.904.684-1.354.109-.236.238-.333.514-.333 2.66.009 5.315.005 7.975-.008.272 0 .434.059.547.337.238.605.522 1.194.806 1.841.514-.588.99-1.118 1.449-1.66.159-.186.313-.236.555-.215 2.138.185 4.28.349 6.418.521.881.072 1.762.156 2.647.223.898.063 1.796.13 2.693.156.848.025 1.683.134 2.522.214 1.629.156 3.203.58 4.619 1.43.947.568 1.812 1.279 2.776 1.968.994-.61 2.088-1.287 3.195-1.947a.983.983 0 0 1 .559-.118c.802.076 1.599.177 2.397.278 2.476.311 4.948.63 7.424.938.242.03.405.105.459.353.054.265.23.353.485.387 2.008.273 4.016.543 6.016.841 3.132.467 6.26.955 9.391 1.426.251.038.359.134.418.382.371 1.62.751 3.234 1.14 4.845.313 1.295.638 2.59.96 3.886v.812c-.117.017-.238.02-.351.054-.902.261-1.804.539-2.71.783-.317.084-.342.218-.271.517.994 4.256 1.975 8.516 2.96 12.776.025.114.042.227.067.362-.117.02-.192.038-.271.046-1.437.172-2.877.336-4.314.517-3.073.387-6.146.783-9.219 1.182-.885.118-1.77.27-2.652.404h-1.691c-.075-.025-.15-.06-.229-.067-1.917-.249-3.833-.488-5.75-.745-.121-.017-.321-.147-.326-.235-.02-.345-.242-.37-.492-.4-1.132-.13-2.263-.286-3.399-.395a9.395 9.395 0 0 0-1.754-.013c-.497.046-.985.206-1.47.316-.367-.762-.363-.749-1.156-.572-.389.088-.794.21-1.178.176-2.004-.172-4.008-.387-6.008-.589-.823-.084-1.65-.168-2.485-.256v-.383c-1.023.038-2.029.156-3.027.097-2.597-.156-5.19-.4-7.787-.597a551.866 551.866 0 0 0-5.904-.416c-.268-.017-.372-.106-.38-.387-.009-.396-.067-.787-.113-1.241-.556.366-1.044.702-1.545 1.01-.15.092-.347.167-.518.16a807.27 807.27 0 0 1-7.115-.396c-.823-.05-.823-.063-.902-.854 0-.038-.033-.067-.054-.1-.034 0-.063 0-.084.008-2.718 1.29-5.474 1.21-8.259.256a.717.717 0 0 0-.547.076c-3.202 1.96-6.656 2.498-10.3 1.8-3.254-.623-5.671-2.397-7.12-5.438-.08-.164-.154-.324-.234-.488-.02.004-.042.009-.062.017-.113 1.447-.23 2.898-.343 4.344-.096.013-.15.026-.204.026-3.955.189-7.909.365-11.859.576-.743.038-1.424-.017-2.07-.425-.373-.236-.803-.383-1.187-.602-.263-.15-.467-.121-.739.009-3.486 1.644-7.065 2.321-10.831 1-.18-.062-.451-.02-.626.072-2.451 1.308-5.028 1.72-7.758 1.161a.777.777 0 0 0-.51.097c-.718.425-1.403.904-2.13 1.303-2.17 1.19-4.488 1.922-6.973 2.02-1.507.058-2.993-.102-4.488-.312-3.933-.551-7.88-1.014-11.813-1.577-2.547-.366-4.568-1.62-5.791-3.966-.994-1.91-1.144-3.982-.96-6.085a26.46 26.46 0 0 1 2.643-9.416c1.645-3.34 3.824-6.245 6.789-8.53 3.616-2.787 7.704-3.641 12.155-3.073 1.257.16 2.33.782 3.395 1.417.23.134.417.143.676.063.601-.19 1.207-.37 1.825-.475 2.092-.358 4.087-.143 5.908 1.064.063.042.138.059.23.096.012-.113.008-.193.029-.269.063-.227-.063-.525.271-.651 2.297-.88 4.656-1.46 7.128-1.506 2.501-.042 4.86.412 6.902 1.985.03.021.071.025.142.046.096-.727.188-1.446.28-2.161l.321-.03c1.82-.118 3.641-.244 5.462-.349 2.772-.16 5.545-.299 8.322-.458.28-.017.434.084.584.307 1.336 1.947 2.685 3.886 4.034 5.824.142.206.292.408.476.669.07-.19.108-.32.167-.433.45-.938.835-1.914 1.365-2.797 1.854-3.066 4.451-5.16 7.984-5.955.584-.13 1.181-.193 1.774-.29Zm28.21 18.567c.033-.012.067-.02.1-.033 1.04 1.505 2.08 3.01 3.153 4.567.981-1.88 1.929-3.697 2.923-5.606.029.168.046.231.05.294.292 2.852.588 5.699.864 8.55.029.294.129.395.405.412.697.046 1.39.11 2.088.168.877.072 1.758.14 2.689.21l-2.267-19.933c-.147-.017-.251-.038-.355-.047-1.512-.117-3.023-.214-4.531-.366-.409-.042-.559.085-.697.438-.748 1.88-1.52 3.755-2.284 5.631-.05.126-.113.248-.201.433-.079-.164-.121-.248-.158-.332-.84-1.884-1.716-3.756-2.497-5.665-.292-.715-.643-1.026-1.428-.933-.66.08-.668.016-.885.664-.013.042-.046.076-.096.16-.067-.152-.126-.244-.147-.345-.071-.366-.258-.505-.647-.471-.559.046-1.127.034-1.691.038-.547.004-.551 0-.513.56.405 6.068.814 12.136 1.21 18.205.017.281.088.395.393.408 1.073.05 2.142.138 3.215.206.622.042 1.244.071 1.904.109-.2-2.486-.401-4.904-.597-7.322Zm-96.275-8.865c-.1.076-.204.139-.288.219-.547.521-1.119 1.013-1.624 1.573-2.677 2.956-4.438 6.409-5.37 10.286-.484 2.015-.81 4.05-.488 6.136.326 2.107 1.578 3.524 3.628 4.008.597.139 1.22.21 1.833.219 3.483.046 6.61-1.098 9.5-2.978.112-.071.196-.29.183-.429-.108-1.358-.238-2.717-.363-4.075l-.163-1.762c-.07.004-.1 0-.12.012a5.572 5.572 0 0 0-.201.135c-1.086.8-2.305 1.262-3.637 1.43-2.288.29-3.725-1.11-3.416-3.39.33-2.43 1.474-4.436 3.345-6.005.931-.778 2.004-1.237 3.232-1.085.601.076 1.181.298 1.812.462-.03.03-.004.013.008-.008 1.353-2.128 2.706-4.256 4.067-6.384.159-.248.092-.45-.1-.605-.184-.152-.397-.312-.618-.362-.706-.151-1.416-.32-2.13-.353-2.818-.143-5.474.4-7.845 2.027-.685.47-.69.462-.493 1.29.013.047 0 .102 0 .203l-.747-.564h-.005Zm72.412 1.106c-.025.025 0 .008.013-.013.872-1.888 1.741-3.776 2.618-5.66.121-.265.075-.496-.138-.652-.334-.244-.672-.513-1.057-.648-2.129-.765-4.334-1.043-6.572-.69-2.676.425-4.727 1.923-6.146 4.19-2.831 4.516-3.14 9.373-1.57 14.374.639 2.031 2.046 3.494 3.987 4.403 1.02.475 2.1.736 3.215.866 2.907.34 5.671-.105 8.251-1.539.255-.143.293-.278.205-.542-.518-1.565-1.019-3.134-1.528-4.702-.126-.391-.255-.787-.393-1.22-1.19.913-2.501 1.178-3.891 1.051-1.612-.142-2.91-.878-3.57-2.4-.977-2.26-.53-4.383.93-6.284.919-1.194 2.197-1.623 3.667-1.253.668.168 1.303.471 1.979.723v-.004Zm69.485 19.51c-.059-.16-.096-.274-.142-.383-2.698-6.49-5.399-12.974-8.088-19.468-.113-.273-.276-.353-.539-.382-1.466-.181-2.927-.37-4.393-.555-.555-.072-1.11-.127-1.682-.19-.046.21-.08.383-.117.56-.422-.198-.543-.825-1.153-.673-.48 6.489-.96 12.978-1.44 19.492 2.1.248 4.159.492 6.238.74v-4.18c1.098.143 2.163.274 3.219.433.1.017.209.194.259.32.426 1.022.848 2.044 1.253 3.074.096.244.229.353.488.387 1.09.135 2.18.29 3.27.442.927.126 1.854.252 2.827.387v-.005ZM140.51 29.35c.021.168.025.26.042.354l1.916 12.372c.351 2.254.706 4.508 1.048 6.767.05.336.151.5.531.534 1.979.164 3.95.382 5.929.546 1.294.11 2.576-.008 3.795-.496 1.629-.652 2.493-1.88 2.347-3.473-.159-1.742-.831-3.302-2-4.597-.459-.509-1.044-.9-1.57-1.346.622-.298.931-.9 1.09-1.569.459-1.955.192-3.805-.902-5.513-.305-.48-.618-.892-1.265-.55-.009 0-.025-.01-.059-.026.117-.164.23-.328.355-.513-.651-.614-1.403-1.043-2.213-1.388-1.549-.656-3.198-.765-4.848-.85-.104-.004-.25.118-.317.223-.167.27-.301.564-.501.95-.104-.399-.167-.697-.263-.987-.034-.106-.142-.261-.226-.265-.943-.072-1.891-.118-2.893-.173h.004Zm-23.208-.824c-.062-.055-.1-.093-.142-.122-2.046-1.38-5.236-1.308-7.219.164-1.574 1.17-2.363 2.826-2.731 4.68-.572 2.881-.359 5.741.514 8.534.555 1.774 1.536 3.271 3.119 4.302 1.67 1.09 3.537 1.392 5.478 1.282 3.211-.184 5.261-2.022 5.833-5.202.359-2.002.134-3.99-.279-5.959-.535-2.544-1.52-4.866-3.378-6.746-.309-.315-.518-.357-.852-.058-.326.294-.702.53-1.057.79-.016-.025-.037-.05-.054-.071.255-.534.51-1.064.764-1.602l.004.008Zm-60.766 9.151c0-1.922-.18-3.486-.835-4.958-.898-2.015-2.614-3.104-4.764-2.986-1.49.08-2.864.563-4.117 1.37-1.39.9-2.468 2.116-3.328 3.53-1.311 2.152-2.004 4.524-2.367 7.006-.226 1.543-.334 3.095 0 4.634.43 1.956 1.565 3.25 3.574 3.579a9.556 9.556 0 0 0 2.522.05c3.386-.357 5.937-2.048 7.608-5.05 1.294-2.33 1.645-4.887 1.707-7.18v.005Zm-.238 11.094c.284.025.51.059.735.067 1.608.055 3.194-.109 4.752-.487 2.927-.72 5.336-2.217 6.89-4.879 1.695-2.91 2.137-6.085 1.728-9.39-.159-1.283-.622-2.465-1.503-3.436-1.378-1.523-3.182-1.964-5.132-2.015-.087 0-.221.122-.267.219-.125.277-.213.572-.317.858-.021 0-.038-.009-.059-.013-.033-.34-.07-.681-.108-1.047-1.512.038-2.948.273-4.343.74-.1.034-.196.21-.209.332-.288 2.444-.56 4.887-.839 7.33-.309 2.713-.622 5.425-.931 8.138-.134 1.178-.263 2.36-.405 3.592l.008-.009Zm27.145-21.057-7.015.383c-.016.277-.029.496-.046.824-.183-.244-.283-.42-.421-.555-.105-.097-.263-.202-.397-.198-.722.021-1.445.08-2.171.118-.238.013-.338.093-.368.354-.2 1.732-.43 3.46-.643 5.189L70.88 45.942c-.08.635-.15 1.274-.23 1.939.147 0 .239.004.33 0 3.67-.215 7.34-.43 11.011-.64.234-.012.322-.092.343-.332.142-1.644.3-3.284.446-4.929.009-.071-.02-.151-.037-.248l-5.34.278c.07-.66.158-1.262.196-1.867.02-.307.15-.375.421-.387 1.316-.06 2.627-.143 3.942-.198.28-.013.392-.093.418-.391.087-1.106.204-2.208.304-3.31.013-.126 0-.256 0-.42-1.716.088-3.382.172-5.044.26v-2.531c.109-.017.176-.034.243-.042 1.574-.186 3.144-.379 4.718-.551.284-.03.422-.114.442-.434.05-.782.142-1.56.218-2.342.062-.669.12-1.337.188-2.078l-.005-.004Zm90.149 6.855c-.079-.176-.146-.282-.171-.395-.092-.4-.33-.547-.739-.58-.68-.055-1.353-.19-2.033-.282-.589-.08-1.178-.147-1.821-.227.51 1.779.994 3.473 1.495 5.168.033.11.213.227.338.248a75.23 75.23 0 0 0 3.349.467c.409.046.559.206.643.597.96 4.483 1.946 8.962 2.898 13.45.079.365.284.407.547.445.914.139 1.829.274 2.743.412.722.105 1.445.215 2.217.328-.643-2.788-1.273-5.513-1.912-8.276-.401.055-.777.11-1.153.16l-.054-.097c.255-.197.505-.404.773-.584.208-.14.267-.286.204-.543-.288-1.177-.555-2.363-.822-3.545-.13-.572-.247-1.148-.389-1.8l3.892.597c-.384-1.627-.76-3.2-1.123-4.777-.059-.248-.201-.303-.422-.337-2.084-.311-4.167-.635-6.251-.95-.659-.101-1.319-.185-1.966-.274l-.251.795h.008Z"/><path fill="#6C3A17" d="M165.354 42.157c-.735-.093-1.386-.16-2.029-.273-.092-.017-.217-.249-.213-.375.013-1.106.058-2.208.084-3.314.012-.483 0-.967 0-1.455l.112-.025c.668 1.783 1.341 3.566 2.042 5.446l.004-.004Zm-17.825-.223c.864.042 1.628.156 2.305.593.718.463 1.035 1.148.994 1.998-.021.458-.255.794-.677.971-.647.273-1.319.172-1.983.093-.063-.009-.155-.118-.163-.19-.163-1.13-.313-2.262-.476-3.465Zm-1.198-8.032c1.34-.22 2.789 1.005 2.781 2.313 0 .55-.268.916-.806.992-.364.05-.748.017-1.115-.025-.109-.013-.272-.16-.297-.27-.154-.723-.279-1.454-.413-2.182-.05-.273-.1-.55-.146-.824l-.004-.004Zm-34.047 2.603c.083-.64.104-1.3.258-1.922.343-1.38 1.458-1.796 2.677-1.051.501.307.852.752 1.069 1.286.635 1.565.852 3.192.505 4.85a4.087 4.087 0 0 1-.706 1.522c-.58.782-1.528.858-2.208.164-.422-.43-.764-.98-1.003-1.535-.442-1.043-.521-2.175-.597-3.31l.005-.004Zm-60.925 1.564c-.092 1.623-.276 3.158-1.14 4.492a5.716 5.716 0 0 1-1.324 1.442c-.827.618-1.687.307-2.07-.664-.314-.787-.314-1.607-.226-2.435.125-1.203.334-2.385.835-3.487.208-.451.484-.868.818-1.236.53-.585 1.24-.69 1.967-.467.693.21.931.812 1.048 1.46.058.315.067.643.092.895Zm10.635 4.109.99-7.486c.354.118.692.181.985.337.985.517 1.536 1.614 1.374 2.792-.26 1.88-1.249 3.268-2.907 4.168-.112.063-.242.1-.446.189h.004Z"/></svg>