<svg xmlns="http://www.w3.org/2000/svg" fill="none" viewBox="0 0 210 80"><path fill="#F27027" d="M25 21.808h5.962v12.821l5.631-7.213 3.778-4.78c.504-.666 1.06-.921 1.9-.886l5.522.023-9.89 12.642L47.92 50.249c-2.364 0-4.496.035-6.616-.04-.296-.012-.626-.545-.852-.898L33.65 38.413c-1.808.759-2.903 1.75-2.7 3.95.232 2.539.052 5.117.052 7.8H25V21.807Zm76.924 26.176c-.186.139-.278.174-.313.237-.354.701-.574 1.89-1.066 2.01-1.205.308-2.538.169-3.813.093-.214-.011-.556-.602-.567-.932l-.03-4.514.012-23.36V20h5.817v11.304c.174-.163.33-.278.446-.423 3.32-4.067 9.305-3.766 12.19.625 2.648 4.027 2.59 11.965-.127 15.974-2.578 3.806-8.268 4.455-11.628 1.332l-.921-.834v.006Zm.011-8.558c.203 1.194.336 2.602.707 3.952.446 1.634 1.721 2.398 3.36 2.532 1.652.133 2.868-.638 3.5-2.098 1.251-2.885 1.269-5.851.075-8.754-.712-1.732-1.993-2.323-3.974-2.144-1.669.157-2.81 1.107-3.198 2.868-.244 1.113-.302 2.266-.47 3.639v.005Zm-8.853-10.915-3.441 9.218-5.846 15.614c-2.097 5.44-6.362 7.648-11.981 6.246v-4.514c.214.012.423.006.62.035 3.383.527 5.672-.996 6.419-4.374.104-.458-.064-1.031-.25-1.49l-7.67-19.177c-.174-.44-.325-.886-.568-1.564l5.939.035c.26.006.643.429.747.73 1.298 3.754 2.648 7.497 3.76 11.31.354 1.205.058 2.6.058 3.91.105.075.215.15.319.232.237-.272.597-.504.695-.817l4.589-14.64c.092-.302.492-.713.759-.72 1.883-.063 3.766-.034 5.846-.034h.005Zm46.35 21.883c-1.35.012-2.723.4-3.673-.075-.823-.412-1.159-1.796-1.75-2.81-1.361 1.448-2.804 2.856-4.913 3.07-1.222.122-2.485.22-3.696.064-2.955-.376-4.954-2.468-5.278-5.29-.446-3.893.695-6.274 3.893-7.34 1.854-.62 3.865-.817 5.823-1.06 1.205-.151 2.445-.03 3.627-.03.498-3.024-.765-4.513-3.552-4.362-1.008.052-2.016.243-2.995.498-.927.238-1.819.632-2.851 1.008l-2.039-4.044c1.686-.544 3.221-1.193 4.82-1.53 2.526-.532 5.087-.561 7.608.18 2.891.852 4.785 2.781 4.907 5.748.214 5.29.064 10.59.064 15.979l.005-.006Zm-6.019-10.255c-1.628.174-3.123.232-4.566.527-.724.151-1.477.609-2.01 1.136-1.171 1.159-.95 3.447.278 4.2 2.317 1.42 5.933-.255 6.28-2.949.11-.863.018-1.75.018-2.914Zm50.921.794h-13.969c.139 3.488 1.935 5.423 5.215 5.278 2.12-.093 4.223-.69 6.332-1.084.377-.069.73-.231 1.257-.405 0 1.408.035 2.67-.023 3.94-.011.272-.295.649-.556.776-3.152 1.582-10.823 2.248-14.693-.91-2.439-1.993-3.493-4.629-3.679-7.63-.232-3.748.157-7.416 3.088-10.168 3.372-3.163 7.451-3.308 11.518-1.877 3.865 1.361 5.4 4.577 5.504 8.54.029 1.1 0 2.207 0 3.546l.006-.006Zm-5.649-4.015c.046-2.938-1.622-4.63-4.357-4.554-2.387.064-3.963 1.964-3.748 4.554h8.105Zm-110.046 3.98H54.537c-.058 3.28 1.842 5.435 4.976 5.307 2.555-.104 5.093-.678 7.752-1.06 0 1.02.035 2.329-.028 3.633-.012.249-.365.608-.638.706-4.565 1.692-9.171 2.063-13.569-.37-3.551-1.964-4.612-5.43-4.664-9.236a19.01 19.01 0 0 1 .481-4.467c.99-4.328 4.363-7.091 8.795-7.265 1.269-.052 2.572-.012 3.812.232 3.708.741 6.055 3.036 6.767 6.744.354 1.836.278 3.754.406 5.77l.012.006Zm-5.794-4.015c.052-2.839-1.5-4.525-4.09-4.52-2.544 0-4.132 1.75-4.056 4.52h8.146Zm81.431 7.995c2.242.487 4.409 1.02 6.605 1.397.846.145 1.802.087 2.607-.18.556-.185 1.24-.846 1.321-1.379.087-.544-.336-1.402-.811-1.75-.915-.66-2.016-1.06-3.048-1.564-1.303-.637-2.653-1.2-3.91-1.923-2.3-1.321-3.059-3.436-2.776-5.98.255-2.294 1.576-3.83 3.691-4.582 4.253-1.507 8.395-.933 12.572.88l-1.772 4.293c-1.026-.37-1.941-.84-2.915-1.014a23.301 23.301 0 0 0-4.299-.382c-.475 0-1.28.585-1.332.98-.064.503.342 1.309.788 1.598 1.019.667 2.196 1.107 3.308 1.634.875.412 1.773.788 2.636 1.229 3.077 1.575 4.16 3.592 3.772 6.98-.296 2.573-1.97 4.375-5.012 5.128-3.499.87-6.993.65-10.446-.376-.753-.226-1.049-.62-1.002-1.431.069-1.228.017-2.457.017-3.563l.006.005Z"/></svg>