<svg xmlns="http://www.w3.org/2000/svg" fill="none" viewBox="0 0 210 80"><path fill="#000" d="M38.437 26.926c1.899 0 3.438-1.55 3.438-3.463S40.335 20 38.437 20C36.54 20 35 21.55 35 23.463c0 1.912 1.539 3.463 3.437 3.463ZM88.305 26.7H75.39v26.361h12.915c5.38 0 13.027-2.647 13.027-13.801 0-11.155-10.561-12.56-13.027-12.56ZM86.76 47.265h-4.919V32.622h4.92c5.218 0 7.721 3.137 7.721 7.077s-2.752 7.566-7.722 7.566ZM106.077 33.965c1.713 0 3.101-1.399 3.101-3.124 0-1.726-1.388-3.125-3.101-3.125-1.712 0-3.101 1.4-3.101 3.125s1.389 3.124 3.101 3.124ZM102.989 35.496h6.202v17.578h-6.202V35.496Zm28.358 0-7.186 17.566h-6.302l-7.161-17.566h6.264l4.173 10.727 4.408-10.727h5.804Zm43.653 0-7.523 18.557c-.884 2.195-1.942 3.739-3.213 4.617-1.258.89-2.802 1.33-4.62 1.33-.922 0-1.844-.15-2.778-.44-.934-.288-1.681-.69-2.266-1.166l2.117-4.379c.349.326.76.59 1.233.778.486.188.971.276 1.457.276.573 0 1.059-.126 1.432-.364.374-.238.698-.627.947-1.154l-7.448-18.068h6.265l4.271 10.89 4.31-10.89H175v.013Zm-29.218 17.566 7.186-17.566h-5.816l-4.397 10.727-4.172-10.727h-6.264l7.161 17.566h6.302ZM47.429 35.508a3.417 3.417 0 0 1 2.435-1.026 3.397 3.397 0 0 1 2.435 1.026 3.47 3.47 0 0 1 1.01 2.453 3.49 3.49 0 0 1-2.125 3.212 3.398 3.398 0 0 1-3.755-.759 3.471 3.471 0 0 1-1.009-2.453 3.49 3.49 0 0 1 1.01-2.453Z"/><path fill="#000" d="M49.908 20.69 35 35.76V53.3h29.84V35.76L49.909 20.69Zm8.73 26.8H41.065v-9.209l8.78-8.883 8.793 8.883v9.21Z"/><path fill="#000" d="M52.3 40.414a3.418 3.418 0 0 1-2.436 1.026 3.398 3.398 0 0 1-2.434-1.026 3.471 3.471 0 0 1-1.01-2.453 3.49 3.49 0 0 1 2.125-3.212 3.397 3.397 0 0 1 3.754.76 3.47 3.47 0 0 1 1.01 2.452 3.49 3.49 0 0 1-1.01 2.453Z"/><path fill="#000" d="M52.3 40.414a3.418 3.418 0 0 1-2.436 1.026 3.398 3.398 0 0 1-2.434-1.026 3.471 3.471 0 0 1-1.01-2.453 3.49 3.49 0 0 1 2.125-3.212 3.397 3.397 0 0 1 3.754.76 3.47 3.47 0 0 1 1.01 2.452 3.49 3.49 0 0 1-1.01 2.453Z"/></svg>