<svg xmlns="http://www.w3.org/2000/svg" fill="none" viewBox="0 0 210 80"><path fill="#00263E" fill-rule="evenodd" d="M36.608 32.146c-.368.827-.92 1.47-1.654 2.021-.643.46-1.378.643-2.205.643-.367 0-.643-.276-.643-.551 0-.368.276-.643.552-.643.55 0 1.102-.184 1.561-.46.551-.367.919-.826 1.194-1.47.184-.367.092-.734-.091-1.101a1.01 1.01 0 0 0-.92-.552c-.826-.091-1.469.184-2.02.735-.827.919-1.194 2.48-1.378 3.123-.092.552-1.561 6.798-2.113 9.278a.882.882 0 0 1-.826.643.882.882 0 0 1-.827-.643l-.184-.918-1.929-8.36c-.183-.643-.459-2.204-1.378-3.123-.55-.55-1.194-.826-2.02-.735a1.01 1.01 0 0 0-.92.552c-.183.367-.275.734-.09 1.102.275.643.642 1.102 1.193 1.47.46.275 1.01.459 1.562.459.367 0 .643.275.551.643 0 .367-.276.643-.643.551-.827 0-1.562-.276-2.205-.643-.735-.46-1.286-1.102-1.653-2.02-.276-.736-.276-1.562.184-2.297.367-.643 1.102-1.103 1.929-1.195 1.194-.091 2.204.276 2.94 1.103 1.101 1.102 1.56 2.94 1.653 3.674.091.46 1.102 4.869 1.837 7.716.643-2.94 1.653-7.257 1.837-7.716.184-.735.551-2.572 1.653-3.674.735-.827 1.837-1.194 2.94-1.102.735 0 1.47.459 1.929 1.194.46.735.551 1.561.184 2.296Zm-5.42-9.737c-.827 0-1.654.184-2.48.46a2.623 2.623 0 0 1-1.194 0c-.827-.276-1.654-.46-2.48-.46-4.685 0-8.635 4.777-8.635 10.38 0 6.246 4.684 11.758 11.482 13.411h.46c6.797-1.653 11.481-7.165 11.481-13.41 0-5.604-3.95-10.38-8.634-10.38Zm-2.572 24.986c-.184 0-.368.091-.46.091-.183 0-.367 0-.459-.091-7.348-1.746-12.4-7.808-12.4-14.698 0-6.338 4.5-11.666 9.828-11.666.919 0 1.93.184 2.848.46h.367c.919-.276 1.93-.46 2.848-.46 5.328 0 9.829 5.328 9.829 11.666 0 6.89-5.053 12.952-12.401 14.698Zm11.758-1.654a.626.626 0 0 1-.643.643.624.624 0 0 1-.643-.643v-.827a.624.624 0 0 1 .643-.643.624.624 0 0 1 .643.643v.827Zm0 3.95a.626.626 0 0 1-.643.643.624.624 0 0 1-.643-.643v-.827a.624.624 0 0 1 .643-.643.624.624 0 0 1 .643.643v.827Zm-3.858 1.929a.626.626 0 0 1-.643.643.624.624 0 0 1-.643-.643v-.827a.625.625 0 0 1 .643-.643.626.626 0 0 1 .643.643v.827Zm0 3.95a.626.626 0 0 1-.643.643.624.624 0 0 1-.643-.643v-.827a.625.625 0 0 1 .643-.643.626.626 0 0 1 .643.643v.827Zm-3.95-2.02a.626.626 0 0 1-.643.642.626.626 0 0 1-.643-.643v-.827a.624.624 0 0 1 .643-.643.626.626 0 0 1 .643.643v.827Zm0 3.949a.626.626 0 0 1-.643.643.626.626 0 0 1-.643-.643v-.827a.624.624 0 0 1 .643-.643.626.626 0 0 1 .643.643v.827Zm-3.858-5.879a.624.624 0 0 1-.643.643.624.624 0 0 1-.643-.643v-.827a.625.625 0 0 1 .643-.643.626.626 0 0 1 .643.643v.827Zm0 3.95a.624.624 0 0 1-.643.643.624.624 0 0 1-.643-.643v-.827a.625.625 0 0 1 .643-.643.626.626 0 0 1 .643.643v.827Zm-3.858-2.02a.626.626 0 0 1-.643.642.626.626 0 0 1-.643-.643v-.827a.624.624 0 0 1 .643-.643.625.625 0 0 1 .643.643v.827Zm0 3.949a.626.626 0 0 1-.643.643.626.626 0 0 1-.643-.643v-.827a.624.624 0 0 1 .643-.643.625.625 0 0 1 .643.643v.827Zm-3.858-5.879a.626.626 0 0 1-.643.643.624.624 0 0 1-.643-.643v-.827a.625.625 0 0 1 .643-.643.626.626 0 0 1 .643.643v.827Zm0 3.95a.626.626 0 0 1-.643.643.624.624 0 0 1-.643-.643v-.827a.625.625 0 0 1 .643-.643.626.626 0 0 1 .643.643v.827Zm-3.858-9.829a.622.622 0 0 1-.643.643.624.624 0 0 1-.643-.643v-.827a.624.624 0 0 1 .643-.643.624.624 0 0 1 .643.643v.827Zm0 3.95a.622.622 0 0 1-.643.643.624.624 0 0 1-.643-.643v-.827a.624.624 0 0 1 .643-.643.624.624 0 0 1 .643.643v.827ZM28.157 18C19.797 18 13 24.89 13 33.34v13.32C13 55.11 19.797 62 28.157 62c8.359 0 15.156-6.89 15.156-15.34V33.34c0-8.45-6.797-15.34-15.156-15.34Zm32.61 21.311c-2.757-.643-3.95-1.102-3.95-2.664 0-1.102 1.01-2.02 2.847-2.02s3.031.734 3.858 1.928l2.205-1.837c-1.378-1.929-3.307-2.94-6.063-2.94-3.583 0-5.879 2.022-5.879 4.961 0 3.123 2.113 4.501 5.695 5.512 3.123.826 4.318 1.561 4.318 3.123 0 1.47-1.287 2.388-3.583 2.388-2.296 0-4.225-1.102-5.236-2.848l-2.48 1.562c1.653 2.48 4.225 4.042 7.624 4.042 4.226 0 6.798-2.021 6.798-5.42.091-3.215-2.389-4.776-6.155-5.787Zm18.83 8.267c-3.49 0-5.879-2.664-5.879-6.43 0-3.766 2.297-6.43 5.88-6.43 3.582 0 5.786 2.664 5.786 6.43 0 3.766-2.296 6.43-5.787 6.43ZM85.2 35.27c-1.194-2.204-3.306-3.49-6.246-3.49-4.96 0-8.726 4.042-8.726 9.37 0 5.327 3.766 9.369 8.726 9.369 2.94 0 5.052-1.286 6.338-3.49v3.122H88.6V32.238h-3.307l-.092 3.031Zm29.211-3.49c-2.847 0-4.868 1.102-6.338 3.307-1.01-2.205-2.939-3.307-5.328-3.307-2.388 0-4.317 1.01-5.328 2.847v-2.388h-3.306V50.15h3.306V39.862c0-3.307 1.654-5.052 4.593-5.052 2.572 0 3.767 1.562 3.767 4.317V50.15h3.307V39.68c0-3.124 1.653-4.96 4.592-4.96 2.481 0 3.767 1.469 3.767 4.316V50.06h3.306v-11.39c.184-4.318-2.572-6.89-6.338-6.89Zm18.464 7.532c-2.756-.735-3.95-1.102-3.95-2.756 0-1.102 1.01-2.02 2.847-2.02 1.838 0 3.032.734 3.858 1.929l2.205-1.838c-1.378-1.837-3.307-2.847-6.154-2.847-3.491 0-5.879 2.02-5.879 4.96 0 3.123 2.112 4.501 5.695 5.512 3.123.826 4.317 1.561 4.317 3.123 0 1.47-1.286 2.388-3.582 2.388-2.297 0-4.226-1.102-5.236-2.848l-2.388 1.562c1.653 2.48 4.225 4.042 7.624 4.042 4.225 0 6.797-2.021 6.797-5.42.092-3.215-2.296-4.776-6.154-5.787Zm18.831 8.267c-3.491 0-5.879-2.664-5.879-6.43 0-3.766 2.296-6.43 5.879-6.43 3.582 0 5.787 2.664 5.787 6.43 0 3.766-2.297 6.43-5.787 6.43Zm5.695-12.309c-1.286-2.204-3.399-3.49-6.338-3.49-4.961 0-8.727 4.042-8.727 9.37 0 5.327 3.766 9.369 8.727 9.369 2.939 0 5.052-1.286 6.338-3.49v3.122h3.307V32.238h-3.307v3.031Zm30.129 12.31c-3.49 0-5.879-2.665-5.879-6.43 0-3.767 2.297-6.43 5.879-6.43 3.583 0 5.787 2.663 5.787 6.43 0 3.765-2.296 6.43-5.787 6.43Zm5.695-15.341v3.031c-1.286-2.204-3.398-3.49-6.338-3.49-4.96 0-8.726 4.042-8.726 9.37 0 5.327 3.766 9.369 8.726 9.369 2.94 0 5.052-1.286 6.338-3.49v3.122h3.307V32.238h-3.307Zm-23.699 4.134v-4.134h-3.307V50.15h3.307v-9.37l7.349-6.521-2.205-2.48-5.144 4.593Z" clip-rule="evenodd"/></svg>