<svg xmlns="http://www.w3.org/2000/svg" fill="none" viewBox="0 0 210 80"><path fill="#00379A" d="M58.14 34.156c-1.275-.656-1.783-1.085-1.986-1.334-.254-.3-.37-.587-.37-.896 0-.342.135-.628.426-.891a1.502 1.502 0 0 1 1.08-.416c.753 0 1.56.416 2.401 1.233l.457.443 2.05-2.12-.457-.442c-1.431-1.381-2.895-2.083-4.359-2.083-1.283 0-2.364.416-3.209 1.242-.858.831-1.288 1.88-1.288 3.126 0 .951.273 1.815.808 2.558.513.716 1.464 1.436 2.821 2.138 1.376.702 1.893 1.117 2.083 1.34.245.295.36.609.36.978 0 .453-.176.827-.559 1.177-.388.351-.868.531-1.427.531-.845 0-1.676-.457-2.474-1.352l-.476-.536-1.962 2.23.323.416a5.746 5.746 0 0 0 2.064 1.648c.826.393 1.699.591 2.604.591 1.39 0 2.563-.466 3.495-1.39.938-.923 1.409-2.064 1.409-3.389 0-.951-.282-1.824-.84-2.595-.541-.725-1.543-1.464-2.97-2.202M77.533 30.997a5.415 5.415 0 0 0-2.041-2.442c-.92-.6-1.977-.91-3.154-.91-1.177 0-2.212.268-3.177.799a7.149 7.149 0 0 0-1.468 1.066v-1.5h-3.084v15.362h3.084v-5.804c0-2.235.13-3.237.24-3.671a4.494 4.494 0 0 1 1.505-2.364c.748-.623 1.603-.938 2.54-.938.808 0 1.459.19 1.935.568.475.374.808.966.983 1.755.083.342.18 1.15.18 3.098v7.356h3.085v-7.887c0-1.994-.217-3.504-.633-4.483M93.606 35.818c0 .952-.213 1.82-.637 2.572a4.633 4.633 0 0 1-1.806 1.787c-1.547.868-3.467.873-4.945 0a4.912 4.912 0 0 1-1.82-1.879 5.117 5.117 0 0 1-.678-2.535c0-.877.226-1.736.674-2.535a4.834 4.834 0 0 1 4.28-2.507c1.386 0 2.568.49 3.51 1.45.946.97 1.427 2.193 1.427 3.643l-.005.004Zm-.116-7.752v1.542a7.302 7.302 0 0 0-1.537-1.094c-1.025-.536-2.18-.808-3.436-.808-2.17 0-4.049.79-5.591 2.35-1.542 1.56-2.323 3.458-2.323 5.652 0 2.193.776 4.155 2.3 5.72 1.528 1.566 3.398 2.36 5.564 2.36a7.645 7.645 0 0 0 3.384-.762 7.81 7.81 0 0 0 1.64-1.094v1.496h3.056V28.066H93.49ZM103.759 32.43c.088-.084.157-.144.194-.18.928-.929 2.078-1.386 3.519-1.39h.023c1.293 0 2.415.494 3.435 1.514l.042.037c.028.023.078.074.152.143.85.836 1.265 1.907 1.265 3.274 0 1.366-.471 2.484-1.44 3.453-.97.97-2.11 1.446-3.514 1.45-1.464 0-2.6-.415-3.486-1.27-.457-.443-.831-1.02-1.113-1.717-.268-.665-.402-1.302-.393-1.912.005-1.408.444-2.52 1.321-3.398l-.005-.005Zm9.277-2.175c-1.542-1.543-3.422-2.323-5.573-2.323-1.815 0-3.463.586-4.909 1.745v-1.62h-2.969v26.868h2.969V41.978c1.381 1.113 3.025 1.676 4.909 1.676a8.006 8.006 0 0 0 3.029-.586 7.646 7.646 0 0 0 3.532-2.881 7.698 7.698 0 0 0 1.339-4.364c0-2.152-.78-4.026-2.327-5.568ZM120.982 40.177V18h-3.116v25.17h9.996v-2.993h-6.88ZM158.448 57.821c-.937.938-2.009 1.39-3.278 1.39-1.27 0-2.402-.517-3.459-1.58-.937-.932-1.39-2.058-1.39-3.444 0-1.385.457-2.585 1.39-3.523l.102-.101c.942-.942 2.041-1.4 3.352-1.4s2.433.495 3.444 1.501c.896.896 1.335 2.05 1.335 3.523 0 1.473-.494 2.628-1.501 3.634h.005Zm-8.122-21.85c0-1.43.457-2.585 1.39-3.522l.101-.102c.942-.942 2.041-1.399 3.353-1.399 1.311 0 2.433.494 3.444 1.5.896.896 1.335 2.05 1.335 3.524 0 1.473-.495 2.627-1.501 3.634-.937.932-2.009 1.39-3.278 1.39-1.27 0-2.402-.518-3.459-1.584-.937-.933-1.39-2.06-1.39-3.445l.005.005Zm-10.075 3.62c-.938.938-2.009 1.39-3.279 1.39-1.269 0-2.401-.517-3.453-1.578-.938-.938-1.39-2.064-1.39-3.445 0-1.38.457-2.586 1.39-3.523l.101-.102c.942-.942 2.036-1.399 3.352-1.399 1.316 0 2.434.49 3.45 1.5.895.897 1.329 2.051 1.329 3.524 0 1.473-.489 2.627-1.5 3.634Zm16.405 6.83V43.66c1.533-.277 2.895-.984 4.068-2.129 1.501-1.459 2.258-3.334 2.258-5.564.009-2.24-.752-4.132-2.258-5.638-1.51-1.5-3.37-2.258-5.541-2.258-2.17 0-4.058.776-5.587 2.304-1.154 1.155-1.879 2.503-2.165 4.032h-2.766a7.45 7.45 0 0 0-2.133-4.096c-1.51-1.5-3.371-2.258-5.541-2.258-2.17 0-4.059.776-5.587 2.304-1.529 1.533-2.309 3.412-2.309 5.587 0 1.02.194 2.023.577 2.987.407 1.035.975 1.908 1.69 2.582 1.584 1.5 3.477 2.258 5.62 2.258 2.142 0 4.017-.762 5.554-2.263a7.247 7.247 0 0 0 2.129-4.063h2.761c.097.508.24 1.01.434 1.5.407 1.04.974 1.907 1.69 2.581 1.187 1.127 2.549 1.834 4.063 2.115v2.785c-1.523.286-2.872 1.01-4.021 2.16-1.533 1.534-2.309 3.413-2.309 5.587 0 1.016.194 2.023.577 2.988.411 1.044.979 1.907 1.69 2.581 1.584 1.5 3.477 2.258 5.62 2.258 2.142 0 4.012-.762 5.554-2.263 1.501-1.459 2.258-3.329 2.258-5.564.009-2.239-.752-4.132-2.258-5.633-1.154-1.15-2.521-1.86-4.068-2.128M168.551 28.486h-3.209V43.17h3.209V28.486ZM166.939 27.31a2.08 2.08 0 0 0 1.506-.629c.415-.415.627-.919.627-1.5 0-.582-.217-1.104-.623-1.51a2.114 2.114 0 0 0-3.001 0 2.09 2.09 0 0 0-.624 1.51c0 .577.208 1.08.624 1.5.411.411.923.628 1.491.628ZM182.569 39.083l-.323.323c-.974.974-2.124 1.445-3.514 1.445-1.39 0-2.544-.452-3.44-1.38-.9-.938-1.339-2.087-1.339-3.514 0-1.427.411-2.595 1.214-3.412.088-.07.153-.134.176-.162.914-.905 2.022-1.344 3.389-1.344s2.517.453 3.458 1.39l.328.328 2.041-2.124-.332-.319c-1.533-1.459-3.38-2.202-5.486-2.202-2.105 0-4.031.771-5.545 2.29-1.519 1.52-2.29 3.39-2.29 5.55 0 2.161.761 4.054 2.267 5.56 1.5 1.505 3.375 2.267 5.559 2.267s4.045-.762 5.61-2.258l.337-.323-2.11-2.11v-.005ZM187.782 28.685c.984 0 1.787.803 1.787 1.787 0 .983-.803 1.787-1.787 1.787a1.789 1.789 0 0 1-1.787-1.787c0-.988.799-1.787 1.787-1.787Zm0 3.39a1.6 1.6 0 1 0-.003-3.2 1.6 1.6 0 0 0 .003 3.2Zm.282-1.446.462.674c.023.055 0 .07-.056.07h-.203c-.046 0-.069-.015-.097-.052l-.448-.665h-.258v.665c0 .037-.014.051-.06.051h-.213c-.051 0-.064-.009-.064-.05v-1.704c0-.037.018-.051.064-.051h.624c.3 0 .637.12.637.54 0 .296-.18.457-.393.517l.005.005Zm-.249-.245c.217 0 .323-.092.323-.272 0-.19-.116-.268-.328-.268h-.346v.535h.351v.005ZM30.283 30.477c.342.341.508.78.508 1.343-.01.55-.194.998-.582 1.386-.355.35-.757.53-1.247.53-.49 0-.918-.198-1.311-.604-.355-.356-.531-.78-.531-1.312 0-.53.175-.979.531-1.343l.042-.042c.35-.355.78-.531 1.279-.531.498 0 .923.185 1.31.573Zm6.93 6.94c.342.346.513.78.513 1.343-.014.554-.198 1.002-.586 1.385-.351.356-.758.531-1.247.531-.49 0-.914-.198-1.311-.605-.356-.355-.531-.78-.531-1.31 0-.532.175-.989.53-1.345l.042-.041c.356-.351.78-.531 1.28-.531.498 0 .927.19 1.31.572Zm-1.31-3.671c-.49 0-.915-.199-1.312-.605-.374-.365-.54-.79-.54-1.311 0-.522.175-.989.53-1.344l.042-.042a1.74 1.74 0 0 1 1.28-.53c.498 0 .927.189 1.31.572.342.346.513.78.513 1.343 0 .564-.19.998-.577 1.386-.35.35-.757.53-1.247.53Z"/><path fill="#00379A" d="M32.44 22.812c-6.871 0-12.44 5.569-12.44 12.435 0 6.866 5.569 12.439 12.44 12.439 6.87 0 12.434-5.569 12.434-12.44 0-6.87-5.569-12.434-12.435-12.434Zm5.6 18.017a2.917 2.917 0 0 1-2.115.864c-.822 0-1.537-.291-2.142-.864a2.685 2.685 0 0 1-.647-.974 3.12 3.12 0 0 1-.217-1.136c0-.822.291-1.538.873-2.124a2.942 2.942 0 0 1 1.533-.822v-1.062a2.96 2.96 0 0 1-1.551-.799 2.61 2.61 0 0 1-.647-.979 3.413 3.413 0 0 1-.166-.572h-1.053a2.763 2.763 0 0 1-.812 1.551 2.907 2.907 0 0 1-2.11.864c-.823 0-1.538-.291-2.143-.864a2.61 2.61 0 0 1-.646-.979 3.01 3.01 0 0 1-.222-1.13c0-.823.29-1.543.877-2.125a2.886 2.886 0 0 1 2.12-.873c.83 0 1.542.287 2.114.864.434.434.707.956.813 1.56h1.048a2.872 2.872 0 0 1 .822-1.542 2.896 2.896 0 0 1 2.124-.872c.831 0 1.538.29 2.11.863.582.573.864 1.288.864 2.143 0 .854-.291 1.57-.864 2.124a2.909 2.909 0 0 1-1.551.808v1.052h.004c.596.102 1.113.374 1.584.758.582.572.864 1.293.864 2.147 0 .854-.291 1.57-.864 2.12Z"/></svg>