<svg xmlns="http://www.w3.org/2000/svg" fill="none" viewBox="0 0 210 80"><path fill="#000" d="M55.124 25H25v.807h30.124V25Zm-18.408 1.603H25.839v.807h10.877v-.807Zm17.569 0H43.408v.807h10.877v-.807ZM25 55.123h30.124v-.806H25v.807Zm.84-1.602h1.634v-.807H25.84v.807Z"/><path fill="#000" d="M34.64 29.013h.376v-.796h-8.391v.796H27c.13 0 .247.054.334.14.086.086.14.204.14.333v24.368a.452.452 0 0 1-.13.334.452.452 0 0 1-.333.129h-.377v.807h8.392v-.807h-.377a.452.452 0 0 1-.333-.13.452.452 0 0 1-.13-.333V29.486a.452.452 0 0 1 .13-.333.452.452 0 0 1 .333-.13l-.01-.01Zm-5.326 24.841a.452.452 0 0 1-.129.334.452.452 0 0 1-.333.129h-.065a.514.514 0 0 1-.334-.14.432.432 0 0 1-.14-.334V29.486c0-.129.054-.247.14-.333a.472.472 0 0 1 .334-.14h.065a.452.452 0 0 1 .333.129.453.453 0 0 1 .13.334v24.378Zm2.001 0a.452.452 0 0 1-.129.334.451.451 0 0 1-.333.129h-.065a.452.452 0 0 1-.333-.13.451.451 0 0 1-.13-.333V29.486c0-.129.054-.247.14-.333a.472.472 0 0 1 .334-.14h.064a.452.452 0 0 1 .334.129.765.765 0 0 1 .108.15.503.503 0 0 1 .032.183v24.368l-.022.011Zm2.001 0a.452.452 0 0 1-.129.334.452.452 0 0 1-.333.129h-.065a.452.452 0 0 1-.333-.13.452.452 0 0 1-.13-.333V29.486a.452.452 0 0 1 .13-.333.452.452 0 0 1 .333-.13h.065c.129 0 .247.055.333.14.086.087.14.205.14.334v24.368l-.01-.01Zm10.565-28.047h.377V25h-8.392v.807h.377a.452.452 0 0 1 .333.129.452.452 0 0 1 .13.334v24.367a.452.452 0 0 1-.13.334.453.453 0 0 1-.333.13h-.377v.795h8.392V51.1h-.377a.452.452 0 0 1-.333-.129.451.451 0 0 1-.13-.334V26.27a.452.452 0 0 1 .13-.334.452.452 0 0 1 .333-.13Zm-5.325 24.83a.452.452 0 0 1-.13.334.453.453 0 0 1-.333.13h-.065a.452.452 0 0 1-.333-.13.451.451 0 0 1-.13-.334V26.27a.452.452 0 0 1 .13-.334.452.452 0 0 1 .334-.13h.064a.452.452 0 0 1 .334.13.452.452 0 0 1 .129.334v24.367Zm2.012 0a.452.452 0 0 1-.13.334.453.453 0 0 1-.333.13h-.065a.452.452 0 0 1-.333-.13.453.453 0 0 1-.13-.334V26.27a.452.452 0 0 1 .13-.334.452.452 0 0 1 .333-.13h.065a.452.452 0 0 1 .333.13.452.452 0 0 1 .13.334v24.367Zm2 0a.452.452 0 0 1-.128.334.453.453 0 0 1-.334.13h-.065a.452.452 0 0 1-.333-.13.451.451 0 0 1-.13-.334V26.27a.452.452 0 0 1 .13-.334.452.452 0 0 1 .333-.13h.065a.452.452 0 0 1 .334.13.452.452 0 0 1 .129.334v24.367Zm10.555-21.624h.376v-.796h-8.391v.796h.376a.452.452 0 0 1 .334.129.453.453 0 0 1 .129.334v24.367a.452.452 0 0 1-.13.334.451.451 0 0 1-.333.13h-.376v.806h8.391v-.807h-.376a.452.452 0 0 1-.334-.129.453.453 0 0 1-.129-.334V29.486a.452.452 0 0 1 .13-.333.452.452 0 0 1 .333-.13v-.01Zm-5.326 24.841a.452.452 0 0 1-.129.334.452.452 0 0 1-.333.129h-.065a.472.472 0 0 1-.437-.293.47.47 0 0 1-.036-.18V29.485c0-.129.053-.247.14-.333a.472.472 0 0 1 .333-.14h.065a.452.452 0 0 1 .333.129.452.452 0 0 1 .13.334v24.378Zm2.012 0a.45.45 0 0 1-.13.334.45.45 0 0 1-.333.129h-.064c-.065 0-.118 0-.183-.032a.451.451 0 0 1-.15-.097c-.044-.043-.076-.097-.108-.15a.503.503 0 0 1-.032-.184V29.486a.452.452 0 0 1 .129-.333.452.452 0 0 1 .333-.13h.065c.129 0 .247.055.333.14.086.087.14.205.14.334v24.368-.01Zm2.012 0a.452.452 0 0 1-.13.334.452.452 0 0 1-.333.129h-.064a.452.452 0 0 1-.334-.13.451.451 0 0 1-.129-.333V29.486a.452.452 0 0 1 .13-.333.452.452 0 0 1 .333-.13h.064c.119 0 .237.055.334.14.086.087.14.205.14.334v24.368l-.011-.01Z"/><path fill="#000" d="M52.65 53.52h1.635v-.806h-1.636v.807Zm-18.882 0h12.588v-.806H33.768v.807Zm31.393-22.377V50.25h6.714V29.185l-6.714 1.958Z"/><path fill="#000" d="M85.086 34.23a7.583 7.583 0 0 0-.14-.838 4.836 4.836 0 0 0-1.28-2.507c-.98-.968-2.249-1.463-3.82-1.463a8.96 8.96 0 0 0-3.69.936c-1.29.602-2.721 1.635-4.281 3.098l-.226.215-.84.743.496.451.559-.516.226-.204a5.508 5.508 0 0 1 1.689-1.14 4.352 4.352 0 0 1 1.775-.345c.398-.01.796.054 1.173.215.365.162.699.388.968.689.538.602.796 1.452.796 2.56v14.158h6.638V35.328c0-.366-.021-.731-.054-1.097h.011Zm12.415 1.12c-.226-2.012-.817-3.497-1.775-4.465a4.9 4.9 0 0 0-1.689-1.108 5.043 5.043 0 0 0-1.99-.345 7.147 7.147 0 0 0-3.561 1.012 15.61 15.61 0 0 0-3.55 2.958l-.173.194-.742.84.495.451.56-.645.14-.173a6.262 6.262 0 0 1 1.387-1.043 3.175 3.175 0 0 1 1.43-.366 2.28 2.28 0 0 1 1.098.215c.344.162.646.398.872.689.462.602.763 1.452.882 2.56l1.506 14.158h6.864L97.48 35.35h.021Zm20.818-4.304c-1.345-1.097-3.346-1.646-6.025-1.635-2.065 0-3.787.28-5.175.84-1.387.559-2.431 1.247-3.13 2.076-.7.828-1.044 1.656-1.044 2.485 0 .828.226 1.452.689 1.893a2.634 2.634 0 0 0 1.85.646c.925.043 1.84-.28 2.528-.904.312-.28.56-.624.732-1.011.172-.388.247-.807.247-1.227v-2.076c0-.258.054-.527.151-.764.108-.237.258-.463.452-.635a2.23 2.23 0 0 1 .818-.473 2.32 2.32 0 0 1 .935-.13c.323-.01.635.044.926.173.29.13.548.323.742.57.43.592.646 1.313.603 2.044v14.976l.365-.226v.301c-.01.431.102.856.323 1.227.172.29.398.549.667.742.667.527 1.689.785 3.077.785a6.193 6.193 0 0 0 2.302-.376V35.64c0-1.969-.677-3.507-2.022-4.594h-.011Zm-4.712 16.633a3.627 3.627 0 0 1-2.324.86c-.387 0-.775-.075-1.119-.236a2.53 2.53 0 0 1-.904-.71c-.516-.635-.774-1.582-.774-2.851 0-1.27.269-2.313.817-3.012a2.741 2.741 0 0 1 1.012-.807 2.734 2.734 0 0 1 1.269-.248 6.12 6.12 0 0 1 1.528.183c.172.043.344.097.506.161.29.097.57.216.839.355l.312-.516a7.387 7.387 0 0 0-1.151-.516l-.42-.13a7.643 7.643 0 0 0-2.152-.247c-3.163 0-5.487.527-6.982 1.57a4.911 4.911 0 0 0-2.238 4.218 4.57 4.57 0 0 0 .42 2.001 4.36 4.36 0 0 0 1.269 1.593c1.13.935 2.582 1.398 4.358 1.398a9.12 9.12 0 0 0 3.916-.86 6.834 6.834 0 0 0 2.205-1.614c.237-.27.452-.55.635-.85l-.366-.452a3.218 3.218 0 0 1-.667.71h.011Zm26.283-17.762-5.358 15.363-5.68-15.363h-6.929l7.542 19.741a.953.953 0 0 0 .366.485c.172.096.355.15.548.14h2.754c.183 0 .366-.044.517-.119a.763.763 0 0 0 .333-.441l7.026-19.817h-1.13l.011.01Zm43.389 5.088c-.216-1.85-.732-3.249-1.56-4.185-.829-.936-1.991-1.398-3.508-1.398-1 0-2.119.344-3.335 1.022a24.643 24.643 0 0 0-4.056 3.012l-.204.183-.861.742.474.463.591-.495.248-.204c.462-.441 1-.818 1.571-1.108a3.6 3.6 0 0 1 1.538-.377c.323-.021.645.032.947.161.301.13.559.334.764.581.387.495.645 1.291.774 2.378l1.474 14.48H185l-1.743-15.255h.022Z"/><path fill="#000" d="M164.118 31.143V50.25h6.713V29.206l-6.713 1.948v-.011Zm-3.195 7.133a9.186 9.186 0 0 0-1.109-4.551 8.09 8.09 0 0 0-3.13-3.152 9.498 9.498 0 0 0-4.842-1.151 11.075 11.075 0 0 0-5.637 1.366 9.284 9.284 0 0 0-3.679 3.862 12.517 12.517 0 0 0-1.291 5.82 10.719 10.719 0 0 0 1.312 5.39 9.267 9.267 0 0 0 3.615 3.615 10.76 10.76 0 0 0 5.315 1.291c1.64.031 3.264-.334 4.733-1.065a8.519 8.519 0 0 0 3.314-2.894 7.829 7.829 0 0 0 1.312-4.088v-.108h-.688a4.527 4.527 0 0 1-.613 1.733c-.323.527-.753.99-1.259 1.344a6.373 6.373 0 0 1-3.83 1.12c-2.109 0-3.819-.732-5.121-2.206-1.076-1.216-1.7-2.98-1.883-5.283h13.47v-1.043h.011Zm-6.649.204h-6.853v-.678c-.033-1.43.118-2.861.462-4.26.312-1.087.732-1.894 1.281-2.41a2.586 2.586 0 0 1 1.85-.785c.904 0 1.678.602 2.313 1.807.635 1.205.958 3.12.958 5.745v.57l-.011.011Z"/></svg>