<svg xmlns="http://www.w3.org/2000/svg" fill="none" viewBox="0 0 210 80"><path fill="#F16525" d="M180.138 55.112c-.122 2.432-1.621 3.66-3.708 4.397-1.302.442-2.653.491-4.004.491-1.498-.025-2.996-.123-4.396-.786-.565-.27-1.081-.565-1.547-.982-1.032-.91-1.4-2.088-1.4-3.414 0-1.007 0-1.007 1.007-1.007h2.407c.196 0 .393-.025.368.27-.147 1.744 1.228 2.554 2.702 2.726 1.203.148 2.382.123 3.512-.417.933-.443 1.4-1.18 1.375-2.186 0-.54.05-1.105-.221-1.621a2.78 2.78 0 0 0-1.522-1.326l-6.116-2.04c-2.137-.687-3.463-2.43-3.488-4.69l-.024-15.08c0-.32.098-.369.393-.369a58.85 58.85 0 0 0 2.947 0c.393 0 .442.123.442.467v13.73c0 1.645.688 2.652 2.26 3.192l4.224 1.425c.418.147.811.294 1.105.81V29.594c0-.417.099-.54.516-.516 1.032.025 2.063 0 3.144.025l.024 26.01Zm-73.534-20.41c-1.179-1.08-1.719-2.382-1.694-3.954v-4.985c-.074-2.874 1.08-4.397 3.831-5.207 2.677-.786 5.428-.762 8.105.22a5.32 5.32 0 0 1 1.989 1.278c1.081 1.105 1.228 2.505 1.179 3.93 0 .196-.122.22-.27.22h-3.193c-.172 0-.27-.024-.294-.245-.222-1.793-.811-2.407-2.628-2.652-1.253-.172-2.481-.148-3.635.442-.762.368-1.253.957-1.278 1.817-.024 1.744-.098 3.463.025 5.207.074 1.056.639 1.72 1.646 2.039l5.305 1.694c1.498.491 2.898 1.13 3.708 2.604.393.712.614 1.449.614 2.284v6.263c.074 2.898-1.277 4.273-3.708 5.133-1.449.516-2.997.516-4.519.467-1.45-.025-2.874-.222-4.2-.91-2.358-1.203-2.727-2.824-2.702-5.034 0-.172.074-.246.246-.246h3.266c.148 0 .246.025.27.221.246 1.842.885 2.505 2.776 2.751 1.105.147 2.21.172 3.266-.295 1.007-.417 1.548-1.154 1.548-2.284v-5.452c0-1.18-.467-1.867-1.597-2.26-1.744-.614-3.487-1.154-5.231-1.744-.983-.294-1.99-.564-2.825-1.301ZM149.389 45.485c-.074-1.99 0-3.954-.025-5.944l-.024-6.09c-.025-1.376-.614-2.482-1.744-3.317a7.85 7.85 0 0 0-2.751-1.203c-1.498-.32-3.021-.32-4.544-.221-1.326.074-2.579.393-3.733 1.08-1.474.86-2.284 2.137-2.284 3.832v12.772c0 1.007.295 1.964.982 2.75.86.958 1.965 1.523 3.193 1.818 2.162.515 4.347.565 6.484.049 3.193-.762 4.568-2.383 4.446-5.526Zm-5.183 2.21c-1.522.663-3.094.663-4.666.098-1.032-.368-1.523-1.154-1.523-2.235v-11.1c0-1.13.516-1.917 1.597-2.285 1.596-.565 3.192-.54 4.74.196.737.344 1.203.958 1.228 1.843v11.297c.024 1.056-.442 1.793-1.376 2.186ZM129.175 47.278c.737.442 1.499.54 2.285.54.294 0 .392.098.392.393v2.431c0 .221-.024.344-.294.32-1.719-.025-3.365-.246-4.888-1.08-1.621-.91-2.407-2.26-2.407-4.102V32.123c0-.442-.123-.54-.54-.516-.663.025-1.326 0-1.989.025-.246 0-.344-.074-.344-.344.024-.762.024-1.548 0-2.309 0-.32.123-.344.393-.344.687.025 1.35-.024 2.038.025.369.024.442-.123.442-.467l-.024-4.74c0-.32.073-.418.393-.418a58.85 58.85 0 0 0 2.947 0c.393-.024.442.148.442.467l-.025 4.691c0 .369.099.467.467.467 1.007-.025 1.99 0 2.997-.025.27 0 .368.074.368.369a32.585 32.585 0 0 0 0 2.21c0 .32-.074.418-.393.418-1.007-.025-2.039 0-3.046 0-.27 0-.368.049-.368.344v13.287c.025.86.368 1.547 1.154 2.014ZM160.49 31.878c-.712 0-1.351.05-1.989.32-1.228.49-1.695 1.203-1.695 2.505v15.571c0 .467-.246.712-.737.712h-2.677c-.27 0-.368-.073-.368-.368l.024-16.873c0-2.26 1.228-3.709 3.611-4.544.982-.344 2.014-.466 3.021-.516.933-.049 1.866-.049 2.799-.024.565 0 .565.024.443.565l-.614 2.21c-.074.27-.197.369-.467.369-.418 0-.86.049-1.351.073Z"/><path fill="#3B96AB" d="M89.215 33.843c0-.27 0-.565-.049-.835-.368-1.965-1.596-3.168-3.438-3.782-2.21-.737-4.495-.737-6.779-.344-1.35.221-2.603.761-3.586 1.744-1.105 1.08-1.277 2.456-1.203 3.93.024.294.22.196.368.196h2.898c.369 0 .492-.098.54-.467.124-1.007.59-1.842 1.597-2.16 1.425-.468 2.874-.468 4.298.048.958.344 1.547 1.032 1.646 2.063.098 1.18-.099 2.235-1.277 2.923-.197.098-.369.196-.54.246l-6.165 2.038c-1.793.59-2.874 1.818-3.291 3.635-.246 1.105-.123 2.235-.099 3.365.025 1.645.786 2.873 2.21 3.684 1.302.761 2.727 1.08 4.225 1.154 2.014.099 4.028.025 5.895-.884 1.842-.884 2.726-2.309 2.726-4.372l.024-12.182ZM85.433 45.83c0 .098-.049.196-.074.344-.294 1.08-1.031 1.645-2.063 1.842-1.179.22-2.358.22-3.512-.074-.909-.221-1.449-.81-1.695-1.695-.54-1.89.246-3.438 2.113-4.101l4.003-1.351c.467-.147.958-.295 1.326-.86-.073 2.088.074 3.98-.098 5.895Zm-14.515-.565c-.983.024-1.965.024-2.947 0-.369 0-.492.074-.516.467-.074 1.007-.54 1.743-1.547 2.087-1.523.516-3.046.516-4.544-.049-.786-.295-1.204-.909-1.376-1.72-.172-.859-.073-1.743-.073-2.627 0-1.4 1.007-2.579 2.407-2.775 1.228-.172 2.456-.05 3.684-.074.417 0 .835-.025 1.228-.123 2.161-.54 3.61-1.793 3.954-4.028.197-1.179.123-2.407-.025-3.635-.122-.982-.614-1.768-1.326-2.407-.86-.761-1.891-1.203-2.996-1.449-1.474-.344-2.997-.32-4.495-.245-1.203.073-2.407.294-3.536.908-1.843.934-2.653 2.432-2.629 4.47l.025 12.231c0 .295 0 .614.074.91.344 1.645 1.449 2.7 2.922 3.29 2.776 1.13 5.65 1.13 8.474.27 2.554-.785 3.684-2.48 3.586-5.157-.025-.27-.099-.344-.344-.344ZM59.89 34.678c0-1.473.59-2.235 2.112-2.652 1.106-.295 2.235-.344 3.316-.05 1.817.492 2.186 1.4 2.161 2.752-.024.86-.147 1.62-.835 2.185a2.656 2.656 0 0 1-1.744.614c-1.056.025-2.112-.073-3.168.074-.688.074-1.35.27-1.866.958.024 0 .024-3.88.024-3.88ZM30 46.517v-21.49c.074-2.236 1.326-3.587 3.267-4.274 2.971-1.032 5.992-1.007 8.964.122.688.27 1.277.713 1.793 1.253 1.056 1.13 1.13 2.505 1.105 3.93 0 .196-.122.22-.27.22h-3.217c-.197 0-.27-.048-.27-.27.073-1.522-.836-2.26-2.236-2.603a6.594 6.594 0 0 0-3.315.025c-1.4.368-2.014 1.178-2.014 2.628l-.025 19.181c0 1.45.442 2.358 2.186 2.751 1.302.295 2.628.27 3.88-.245.983-.418 1.548-1.13 1.523-2.235 0-.295.123-.369.369-.344h3.045c.172 0 .344-.05.369.22.049 2.015-.197 3.513-2.26 4.79-.86.516-1.793.86-2.8.982-2.014.246-4.003.295-5.992-.22-.713-.172-1.351-.492-1.965-.885-1.302-.835-2.039-1.965-2.137-3.536ZM48.715 20.924c0-.368.074-.515.467-.49.933.024 1.866.024 2.8 0 .368 0 .442.122.442.466v29.595c0 .393-.074.54-.492.516-.933-.049-1.842-.025-2.75 0-.393.025-.467-.123-.467-.491V20.924ZM96.682 50.692c.024.245-.074.294-.27.294h-3.218c-.22 0-.294-.073-.294-.294v-.54l-.025-15.768c-.025-3.095 1.449-4.544 4.2-5.33 1.768-.491 3.635-.393 5.452-.368.295 0 .393.122.319.442l-.663 2.382c-.049.246-.196.295-.417.295-.884.073-1.769 0-2.653.147a3.826 3.826 0 0 0-1.154.418c-.86.466-1.277 1.179-1.253 2.186l-.024 16.136Z"/></svg>