<svg xmlns="http://www.w3.org/2000/svg" fill="none" viewBox="0 0 210 80"><path fill="#fff" fill-rule="evenodd" d="M55.029 60.995c11.613 0 21.028-9.4 21.028-21C76.057 28.396 66.637 19 55.028 19 43.42 19 34 28.4 34 40s9.415 21 21.029 21v-.005Zm-1.6-20.297c.508 1.135 3.19 4.795 6.732 4.795 2.93 0 6.001-1.866 7.45-2.744.303-.185.536-.323.678-.394 1.32-.65 2.669.394 2.27 1.809-1.159 4.126-5.441 11.95-15.777 11.95-9.036 0-13.48-6.965-14.41-9.33a7.787 7.787 0 0 1-.622-2.843l.014-.703c.223-3.585 3.162-6.538 6.68-6.823 3.025-.247 5.764 1.548 6.984 4.278v.005Z" clip-rule="evenodd"/><path fill="url(#a)" fill-rule="evenodd" d="M55.029 60.995c11.613 0 21.028-9.4 21.028-21C76.057 28.396 66.637 19 55.028 19 43.42 19 34 28.4 34 40s9.415 21 21.029 21v-.005Zm-1.6-20.297c.508 1.135 3.19 4.795 6.732 4.795 2.93 0 6.001-1.866 7.45-2.744.303-.185.536-.323.678-.394 1.32-.65 2.669.394 2.27 1.809-1.159 4.126-5.441 11.95-15.777 11.95-9.036 0-13.48-6.965-14.41-9.33a7.787 7.787 0 0 1-.622-2.843l.014-.703c.223-3.585 3.162-6.538 6.68-6.823 3.025-.247 5.764 1.548 6.984 4.278v.005Z" clip-rule="evenodd"/><path fill="#323640" d="m141.659 39.103-13.195 4.292c1.411 2.516 3.951 3.295 6.847 2.355 1.021-.333 1.761-1.083 2.549-1.814 1.354-1.301 3.661-2.004 5.48-1.367-.608 3.38-3.395 6.476-6.913 7.62-5.75 1.87-11.481-.845-13.442-6.89-1.994-6.172 1.315-11.641 6.852-13.44 5.502-1.79 11.129.73 13.09 6.77v.014a1.978 1.978 0 0 1-1.268 2.46Zm-4.183-3.034c-1.149-2.55-4.316-3.006-6.533-2.284-2.194.712-4.14 2.502-3.765 5.63l10.303-3.351-.005.005Zm-19.343 1.58v11.457a1.552 1.552 0 0 1-1.553 1.553h-3.475V37.151c0-.897-.356-1.752-.988-2.388a3.393 3.393 0 0 0-2.388-.988 3.386 3.386 0 0 0-3.121 2.083c-.169.41-.256.85-.255 1.293v11.96a1.554 1.554 0 0 1-1.552 1.553h-3.571V37.156c0-.893-.356-1.752-.987-2.383a3.378 3.378 0 0 0-2.388-.988 3.376 3.376 0 0 0-3.13 2.084c-.17.413-.256.85-.256 1.292v11.96a1.553 1.553 0 0 1-1.553 1.553h-3.465v-13.01c0-2.227.883-4.359 2.46-5.935a8.418 8.418 0 0 1 5.939-2.46c2.227 0 4.42 1.259 5.94 2.773 1.519-1.519 3.622-2.772 5.939-2.772a8.4 8.4 0 0 1 8.399 8.394l.005-.014Zm58.271 0v11.457c0 .409-.166.803-.456 1.097a1.55 1.55 0 0 1-1.097.456h-3.47V37.151c0-.897-.356-1.752-.988-2.388a3.384 3.384 0 0 0-5.511 1.095c-.17.41-.258.85-.258 1.293v11.96a1.554 1.554 0 0 1-1.552 1.553h-3.571V37.156c0-.893-.356-1.752-.987-2.383a3.379 3.379 0 0 0-5.764 2.383v11.96a1.552 1.552 0 0 1-1.553 1.553h-3.475v-13.01c0-1.101.218-2.193.641-3.21a8.355 8.355 0 0 1 1.823-2.72 8.381 8.381 0 0 1 5.94-2.455c2.326 0 4.42 1.259 5.939 2.773 1.52-1.52 3.613-2.773 5.94-2.773a8.4 8.4 0 0 1 8.399 8.395v-.02Z"/><defs><linearGradient id="a" x1="152.74" x2="140.981" y1="19.228" y2="78.124" gradientUnits="userSpaceOnUse"><stop stop-color="#EB2487"/><stop offset="1" stop-color="#F93939"/></linearGradient></defs></svg>