<svg xmlns="http://www.w3.org/2000/svg" fill="none" viewBox="0 0 210 80"><path fill="#682BEB" d="M175.189 62.026c-.151-.036-.295-.08-.446-.115-2.229-.503-3.415-2.531-2.833-4.76.446-1.711 1.345-3.135 2.545-4.43 1.949-2.106 4.25-3.781 6.58-5.428.237-.166.366-.345.409-.647.137-.942.31-1.884.468-2.826.021-.122.029-.252.05-.388-.359.661-.669 1.337-1.064 1.956-.575.906-1.345 1.625-2.38 1.998-1.481.547-2.833.159-3.818-1.078l-.266-.338c-1.56 1.323-3.358 1.905-5.386 1.675-2.085-.237-3.552-1.337-4.393-3.2-.913.69-1.762 1.403-2.682 2.014-1.532 1.006-3.236 1.38-5.062 1.186-1.755-.187-2.833-1.337-2.948-3.099-.094-1.402.331-2.732.611-4.084.144-.697.259-1.402.345-2.107.022-.18-.065-.489-.194-.553-.165-.08-.46-.022-.618.093a4.027 4.027 0 0 0-.799.762c-1.358 1.719-2.315 3.653-2.991 5.724-.194.597-.374 1.193-.596 1.783-.439 1.158-1.086 1.567-2.33 1.517-.957-.036-1.683-.647-1.999-1.697-.094-.309-.158-.633-.23-.92-.82.453-1.596.949-2.431 1.344-3.07 1.446-6.234 1.712-9.476.648-1.079-.353-2.014-.928-2.718-1.762-.957.482-1.856 1.007-2.812 1.402-2.883 1.194-5.831 1.337-8.815.36a6.36 6.36 0 0 1-2.639-1.647c-.583.381-1.129.762-1.704 1.1-1.259.762-2.632 1.136-4.106 1.165-2.128.05-3.336-.97-3.624-3.092a45.747 45.747 0 0 1-.122-1.093c-.065.144-.115.23-.151.324-.374.963-.863 1.87-1.618 2.588-1.114 1.064-2.43 1.611-3.947 1.108-1.568-.518-2.395-1.748-2.632-3.344-.238-1.625-.036-3.243.194-4.853.244-1.676.77-3.265 1.416-4.825.367-.885 1.007-1.41 1.963-1.481.604-.044 1.223-.072 1.827-.008.625.065.863.44.704 1.065-.244.963-.589 1.905-.798 2.883-.345 1.625-.64 3.264-.906 4.904-.072.446-.086.992.446 1.236.532.245.942-.107 1.287-.438 1.179-1.122 1.942-2.531 2.56-4.005a54.861 54.861 0 0 0 1.496-3.904c.366-1.079 1.013-1.733 2.171-1.784a8.788 8.788 0 0 1 1.445.044c.59.078.777.316.698.905-.094.676-.252 1.345-.403 2.007-.496 2.164-1.014 4.321-1.495 6.492-.08.346-.044.741.028 1.093.094.468.453.712.935.72.748.007 1.323-.382 1.891-.799.64-.474 1.208-.963.813-1.876-.238-4.3 2.847-8.06 7.168-8.55 1.057-.122 2.107-.13 3.135.18 2.215.669 3.322 2.761 2.661 4.983-.561 1.877-1.949 2.948-3.646 3.645-1.15.475-2.38.763-3.58 1.13-.173.05-.36.086-.669.157.266.281.438.533.676.705.999.712 2.15.806 3.315.72 1.927-.145 3.616-.957 5.198-2.021.115-.08.166-.345.144-.51-.194-1.705.072-3.33.913-4.833 1.898-3.394 5.544-4.76 8.981-4.055 3.128.64 4.271 4.192 2.207 6.665-1.129 1.345-2.61 2.093-4.242 2.589-.906.273-1.833.51-2.783.77.195.467.59.726 1.007.927 1.309.625 2.682.625 4.055.302 2.143-.503 3.991-1.575 5.587-3.07.166-.151.274-.439.288-.67.137-2.048.626-4.018 1.301-5.953.353-1 1.065-1.524 2.086-1.64a9.142 9.142 0 0 1 1.661-.035c.575.05.776.352.654.913-.151.712-.345 1.41-.547 2.107-.395 1.337-.769 2.682-.812 4.105.316-.59.633-1.171.963-1.761.899-1.618 2.064-3.013 3.545-4.113 1.144-.849 2.431-1.373 3.89-1.294 1.446.079 2.186.848 1.999 2.28-.18 1.423-.503 2.825-.776 4.234-.202 1.036-.446 2.057-.662 3.092-.029.151-.021.31-.021.468.014 1.013.64 1.495 1.589 1.107.582-.238 1.114-.619 1.61-1.014.597-.482 1.115-1.057 1.697-1.568.338-.294.468-.59.41-1.064-.216-1.805-.101-3.617.101-5.414.28-2.538.697-5.055 1.445-7.5.82-2.689 1.819-5.32 3.595-7.55.892-1.114 1.985-1.955 3.466-2.164 1.675-.244 2.89.388 3.617 1.92.539 1.15.668 2.38.647 3.631-.036 2.15-.568 4.2-1.294 6.205-1.194 3.286-2.913 6.3-4.904 9.168-.655.95-1.381 1.848-2.057 2.783-.108.144-.122.38-.115.575 0 .18.087.36.151.532.446 1.187 1.417 1.74 2.675 1.532.985-.166 1.819-.64 2.56-1.287.079-.072.122-.216.122-.331 0-2.797.575-5.48 1.517-8.11.381-1.058 1.021-1.734 2.172-1.813.51-.036 1.028-.065 1.531 0 .647.086.878.453.727 1.1-.252 1.05-.583 2.085-.799 3.142-.316 1.518-.575 3.05-.834 4.574-.043.258-.014.546.036.805.13.726.705.963 1.287.51a5.574 5.574 0 0 0 1.029-1.071c.819-1.1 1.43-2.33 1.912-3.617.468-1.25.921-2.51 1.352-3.782.496-1.481 2.258-2.243 3.689-1.567.374.18.489.496.388 1.107-.137.784-.273 1.575-.417 2.358l-1.316 7.27c-.029.15-.036.302-.065.54.691-.454 1.309-.878 1.942-1.28 1.057-.67 2.128-1.331 3.192-1.985.446-.274.928-.547 1.438-.245.532.31.576.877.568 1.438 0 .777-.345 1.36-1.021 1.755a768.463 768.463 0 0 0-6.593 3.954c-.18.108-.324.346-.381.554-.554 1.97-.978 3.984-1.64 5.918-.697 2.042-1.531 4.055-2.991 5.716-.971 1.107-2.114 1.898-3.602 2.107-.036 0-.072.036-.108.057h-1.453l-.021.022Zm-8.154-24.469c.065.022.129.05.187.072.74-1.129 1.495-2.243 2.215-3.387 1.402-2.229 2.531-4.587 3.221-7.132.41-1.518.633-3.07.374-4.653-.079-.481-.209-.985-.77-1.129-.568-.15-.891.245-1.208.633-.079.1-.165.202-.223.317-.431.884-.92 1.74-1.265 2.653-1.107 2.962-1.783 6.033-2.229 9.153-.165 1.15-.216 2.316-.316 3.473h.014Zm13.388 13.346-.165-.108c-.805.604-1.625 1.186-2.409 1.812-.97.769-1.898 1.61-2.473 2.732-.259.503-.453 1.086-.504 1.647-.079.877.619 1.373 1.431 1.02.453-.194.913-.517 1.201-.905.583-.798 1.136-1.64 1.546-2.539.539-1.179.928-2.43 1.373-3.652v-.007Zm-60.902-10.168c.288-.064.582-.115.87-.187 1.1-.273 2.193-.575 3.049-1.351.338-.31.618-.748.769-1.187.223-.64-.144-1.28-.812-1.402-.497-.086-1.072-.093-1.546.065-1.489.503-2.575 2.444-2.33 4.062Zm14.201 0c1.316-.244 2.574-.575 3.689-1.301.503-.33.87-.777 1.021-1.366.194-.74-.202-1.438-.964-1.51-.518-.044-1.107-.008-1.567.201-1.446.647-2.316 2.294-2.186 3.976h.007Z"/><path fill="#682BEB" d="M69.684 35.94c.108-.755.195-1.525.338-2.273.64-3.307 2.186-6.14 4.674-8.398 2.02-1.834 4.4-3.027 7.09-3.574 3.049-.618 6.076-.604 9.017.482 3.322 1.223 5.565 3.509 6.45 6.982.683 2.668.41 5.32-.353 7.93-1.244 4.272-3.883 7.386-7.88 9.341-.41.202-.842.353-1.266.51-.424.159-.856.296-1.366.46.251.174.445.296.625.432 1.036.77 1.683 1.834 2.272 2.956.36.676.69 1.387 1.172 1.977 1.54 1.877 3.869 2.207 5.925.827.863-.583 1.59-1.366 2.395-2.05.266-.222.553-.46.87-.582.496-.194.87.029 1.014.547.215.776.036 1.502-.346 2.178-1.07 1.891-2.703 3.15-4.73 3.847-2.431.842-4.883.798-7.277-.15-1.503-.59-2.582-1.705-3.402-3.064-.855-1.41-1.653-2.862-2.502-4.278-.712-1.194-1.769-1.891-3.142-2.143-1.92-.352-3.768-.913-5.371-2.078-2.423-1.762-3.833-4.12-4.12-7.126-.015-.122-.05-.244-.08-.373v-2.395l-.007.015Zm5.35.582c.13.956.18 1.927.396 2.869.604 2.682 2.638 4.551 5.263 4.925 4.192.597 8.024-1.352 9.944-5.112 1.474-2.89 1.827-5.975 1.194-9.14-.583-2.925-2.855-4.622-5.3-4.946-4.09-.54-7.276 1.057-9.505 4.48-1.352 2.078-1.848 4.45-1.992 6.924Zm-11.066 3.422c-.13 12.763-10.29 22.93-23.06 22.895C28.132 62.803 17.972 52.592 18 39.865 18.03 27.125 28.253 16.978 41.01 17c12.784.022 22.858 10.225 22.958 22.944Zm-22.42 19.112c4.71-.079 9.29-1.855 13.123-5.486 7.557-7.147 7.823-19.234.582-26.676-6.413-6.608-16.307-7.974-24.289-3.358-7.6 4.4-11.224 13.453-8.722 21.773 2.445 8.139 10.103 13.748 19.314 13.748h-.008Z"/><path fill="#682BEB" d="M26.564 33.33c1.725.776 3.358 1.51 5.04 2.264-.79 1.294-.992 2.632-.482 4.041.36.992 1 1.762 1.92 2.28 1.77.992 3.948.532 5.213-1.093 1.18-1.518 1.525-4.192-.748-6.256l3.473-5.795c1.18 1.97 2.33 3.882 3.473 5.788-1.991 2.25-2.207 4.523-.64 6.4 1.33 1.588 3.517 1.955 5.25.884 2.041-1.259 2.523-3.488 1.33-6.249 1.632-.733 3.264-1.467 4.983-2.243-.05.194-.08.309-.123.424-1.467 3.998-2.948 7.989-4.407 11.986-.123.331-.274.432-.626.432-6.17-.014-12.339-.007-18.508 0-.266 0-.439-.022-.554-.33-1.488-4.07-2.99-8.133-4.486-12.203-.03-.072-.044-.144-.094-.316l-.014-.015Zm23.534 14.495c-.374 1.057-.726 2.07-1.108 3.078-.043.107-.287.2-.438.2-3.336.015-6.68.015-10.016.015-1.676 0-3.358-.014-5.034 0-.323 0-.46-.1-.56-.395-.324-.956-.67-1.906-1.014-2.89h18.177l-.007-.008Z"/></svg>