<svg xmlns="http://www.w3.org/2000/svg" fill="none" viewBox="0 0 210 80"><path fill="#000" d="M48.945 39.002c-.994-1.803-2.446-3.186-3.985-4.482-.107-.097-.175-.253-.233-.4-.078-.204-.108-.418-.195-.622-.312-.77-.838-1.072-1.656-.936-.195.03-.302 0-.41-.195-.36-.672-.837-1.266-1.5-1.665-.848-.517-1.715-.556-2.582-.098-.857.448-1.159 1.237-1.169 2.153 0 .39.059.78.078 1.17 0 .087-.02.204-.078.252-.652.624-1.344 1.208-1.977 1.851-1.11 1.12-2.105 2.338-2.69 3.839-.34.886-.623 1.802-.428 2.786.117.594.429.935.897.994.39.048.642-.078.73-.458.088-.36.117-.75.136-1.12.03-.595.234-1.092.682-1.52.858-.828 1.666-1.715 2.504-2.562.107-.108.263-.147.4-.224.058.146.136.282.155.438.186 1.188.312 2.377 0 3.556-.146.555-.457 1.071-.691 1.597-.03.069-.107.127-.127.205-.224.72-.78.925-1.461 1.081-3.585.819-7.21 1.267-10.882 1.17-.4-.01-.799-.05-1.198-.069-.195 0-.302-.078-.36-.282-.79-2.582-1.082-5.193-.8-7.872.458-4.384 2.183-8.193 5.193-11.408 2.923-3.127 6.508-5.134 10.736-5.855 6.468-1.1 12.177.585 16.98 5.066 3.195 2.981 5.115 6.693 5.826 11.018.253 1.53.331 3.079.156 4.638-.098-.351-.185-.712-.302-1.062-.507-1.627-1.247-3.127-2.348-4.443-.809-.964-1.335-1.09-2.513-.643-.098.04-.186.069-.302.108-1.384-4.56-4.2-7.843-8.622-9.626-3.43-1.383-6.927-1.403-10.376-.048-7.092 2.776-10.092 10.005-8.64 16.074-.05-.4-.118-.799-.147-1.198-.35-4.248.877-7.97 3.887-11.019 2.309-2.347 5.134-3.702 8.437-3.974 4.11-.341 7.667.954 10.619 3.819 1.821 1.763 2.971 3.916 3.565 6.37.03.098-.029.293-.107.342-1.705 1.081-3.41 2.163-5.124 3.234-.02.01-.04.01-.107.03l.029-.01Z"/><path fill="#000" d="M48.312 49.64c2.455.127 4.9.234 7.355.38 1.296.078 2.581.205 3.867.341.312.03.624.166.916.292.117.049.263.195.263.302 0 .108-.136.283-.253.322-.604.175-1.208.36-1.831.448-1.364.175-2.738.282-4.112.419-.165.02-.36.03-.506.097-.137.068-.293.205-.322.341-.02.078.176.273.302.302a22.47 22.47 0 0 0 1.608.35c.575.108 1.159.167 1.724.293.214.049.4.224.594.341-.175.175-.33.448-.545.507a8.95 8.95 0 0 1-1.744.36c-1.364.146-2.747.224-4.111.36-.614.06-1.228.166-1.764.517-.126.088-.243.195-.438.36.263.098.438.205.614.215.935.088 1.87.136 2.815.214.263.02.517.078.78.127.243.049.302.234.185.409-.156.224-.332.438-.556.594-.789.546-1.685.819-2.591 1.062-2.202.594-4.452.877-6.732.974-3.117.137-6.215-.048-9.284-.623-1.374-.254-2.738-.575-4.014-1.17-.214-.097-.39-.291-.584-.438.224-.117.428-.302.662-.34.906-.176 1.832-.312 2.748-.468.155-.03.321-.059.467-.117.117-.049.273-.146.292-.234.01-.097-.097-.282-.194-.321-.546-.205-1.082-.478-1.647-.536-1.335-.156-2.679-.185-4.014-.302-.808-.068-1.617-.205-2.416-.351-.272-.049-.643-.127-.672-.487-.02-.38.36-.448.624-.526.915-.292 1.84-.546 2.766-.828.234-.068.458-.176.682-.263 0-.049 0-.088.01-.137-.185-.097-.35-.243-.546-.282a49.717 49.717 0 0 0-2.406-.42c-1.052-.155-2.114-.262-3.166-.418-.166-.03-.322-.175-.487-.263.127-.136.224-.322.38-.4.614-.32 1.257-.535 1.958-.565 2.533-.126 5.066-.282 7.59-.428.048 0 .106-.01.165-.068a1.799 1.799 0 0 0-.244-.05c-2.562-.145-5.134-.291-7.696-.428-.244-.01-.4-.078-.507-.311-.272-.595-.565-1.17-.867-1.783.575 0 1.091.02 1.608 0 1.539-.059 3.078-.059 4.598-.205 3.273-.302 6.469-1.023 9.606-2.036a49.895 49.895 0 0 0 11.875-5.69c1.384-.905 2.796-1.763 4.209-2.62.37-.224.789-.36 1.188-.526.302-.127.536-.059.75.205 1.325 1.597 2.173 3.419 2.582 5.445.497 2.455.195 4.813-.964 7.054-.137.273-.292.4-.624.409-3.254.146-6.507.321-9.761.487-.069 0-.146.03-.215.039 0 .02 0 .039.01.058l.02.01ZM40.05 31.948c.936 0 1.393.283 1.579.838.194.604-.059 1.403-.575 1.793-.672.506-1.88.448-2.494-.127-.487-.448-.565-.993-.195-1.54a2.157 2.157 0 0 1 1.685-.963Zm.838 1.764c.302-.166.439-.38.39-.672-.059-.341-.263-.585-.604-.673-.263-.068-.487 0-.672.293.477.185.779.536.886 1.052Z"/><path fill="#000" d="M47.084 40.093c-.438.224-.789.409-1.16.594-.165-.877-.33-1.724-.486-2.562.029-.02.048-.04.078-.049.516.663 1.032 1.325 1.568 2.026v-.01Zm33.98-8.778c-5.611 0-9.245 3.458-9.245 8.651s3.634 8.651 9.245 8.651c5.612 0 9.236-3.458 9.236-8.65 0-5.194-3.614-8.652-9.236-8.652Zm0 12.684c-2.133 0-3.906-1.461-3.906-4.033s1.763-4.033 3.906-4.033c2.144 0 3.907 1.461 3.907 4.033S83.208 44 81.064 44Zm18.218-12.138h-7.998v16.22h7.998c6.488 0 8.768-3.458 8.768-8.105s-2.28-8.106-8.768-8.106v-.01Zm0 11.73h-2.728v-7.249h2.728c2.046 0 3.498 1.033 3.498 3.624s-1.452 3.624-3.498 3.624Zm18.949-.556v5.037h-4.979v-5.057l-6.166-11.154h5.231l3.235 6.098h.399l3.225-6.098h5.231l-6.176 11.174Zm20.507.302c0 3.536-2.562 5.29-7.726 5.27-2.094-.01-3.741-.302-4.959-.925-.487-.234-2.591-1.237-2.922-1.598l3.059-3.994s.088-.03.107.02c.263.594 1.978 1.607 2.475 1.88h.009c.497.292 1.218.438 2.212.448 1.899.01 2.786-.565 2.786-1.316 0-.526-.263-1.052-1.744-1.295l-1.461-.253-.478-.078c-2.864-.497-6.293-.867-6.293-5.008 0-3.205 2.426-5.183 7.209-5.183 2.514 0 5.3.955 6.586 2.25l-2.903 3.927c-.068.097-.205.068-.244-.04-.37-.973-1.812-1.947-3.536-1.947-1.725 0-2.338.535-2.338 1.266 0 .458.272 1.033 1.422 1.218l1.598.292c.409.078.847.146 1.276.214 2.767.439 5.845 1.043 5.845 4.862l.02-.01Z"/><path fill="#000" d="M153.799 43.337c0 3.536-2.562 5.29-7.726 5.27-2.094-.01-3.741-.302-4.958-.925-.487-.234-2.592-1.237-2.923-1.598l3.059-3.994s.088-.03.107.02c.263.594 1.978 1.607 2.475 1.88h.01c.496.292 1.217.438 2.211.448 1.9.01 2.786-.565 2.786-1.316 0-.526-.263-1.052-1.744-1.295l-1.461-.253-.477-.078c-2.864-.497-6.294-.867-6.294-5.008 0-3.205 2.426-5.183 7.209-5.183 2.514 0 5.3.955 6.586 2.25l-2.903 3.927c-.068.097-.205.068-.244-.04-.37-.973-1.812-1.947-3.536-1.947s-2.338.535-2.338 1.266c0 .458.273 1.033 1.422 1.218l1.598.292c.409.078.848.146 1.276.214 2.767.439 5.845 1.043 5.845 4.862l.02-.01Zm1.305-11.476h13.6v4.286h-8.621v2.066h8.3v3.507h-8.3v2.065h8.621v4.287h-13.6V31.86Zm25.71 11.174v5.037h-4.978v-5.057l-6.157-11.154h5.231l3.225 6.098h.399l3.234-6.098H187l-6.186 11.174Z"/></svg>