<svg xmlns="http://www.w3.org/2000/svg" fill="none" viewBox="0 0 210 80"><path fill="#000" d="M109.337 40.186h-5.653c-.835 0-1.144-.304-1.149-1.13v-2.689c0-.864-.338-1.192-1.217-1.202-.753-.005-1.506 0-2.259 0-.84-.01-1.188-.347-1.192-1.173v-3.495c.004-.797.357-1.15 1.153-1.159h2.371c.792-.01 1.134-.362 1.149-1.159v-1.023c-.019-.729-.377-1.091-1.101-1.096-.772-.01-1.545 0-2.312 0-.797-.01-1.15-.347-1.159-1.154V22c0-.835-.347-1.183-1.168-1.188h-2.26c-.729-.01-1.1-.366-1.105-1.086v-3.66c.01-.685.396-1.061 1.076-1.066h3.66c.724 0 1.076.362 1.081 1.105v2.96c.005.816.372 1.168 1.193 1.173h2.206c.801.01 1.134.343 1.144 1.154l.01 2.636c.009.873.338 1.187 1.221 1.192h1.024c.666-.02 1.033-.372 1.038-1.038l.004-3.012c.005-.758.362-1.11 1.13-1.115h2.259c.908 0 1.241-.334 1.246-1.222V16.25c.005-.787.367-1.144 1.159-1.149h3.553c.758.005 1.105.362 1.11 1.13v3.606c0 .73-.362 1.077-1.101 1.087h-2.37c-.792.004-1.159.366-1.164 1.144v2.689c-.004.758-.362 1.105-1.129 1.11-.773.005-1.545-.005-2.313 0-.738.01-1.091.357-1.096 1.086v2.96c-.004.762-.362 1.115-1.124 1.12-.807.005-1.618-.005-2.424 0-.734.01-1.086.362-1.105 1.09-.01.395-.01.79 0 1.184.019.728.367 1.076 1.11 1.076h10.225c.825 0 1.173.357 1.178 1.188v3.495c0 .772-.348 1.12-1.115 1.125h-5.76l-.024-.005Zm23.921 18.524v-5.002c0-.758.295-1.062 1.024-1.062l6.942.005c1.231.014 2.38.309 3.297 1.212.961.95 1.183 2.486.507 3.664-.294.511-.29.97.077 1.443 1.637 2.11.71 4.89-1.892 5.605a7.304 7.304 0 0 1-1.854.251l-7.048.01c-.797 0-1.053-.266-1.053-1.072V58.71Zm6.093 3.833c.7 0 1.4.019 2.095-.01.792-.034 1.255-.599 1.245-1.453-.004-.874-.463-1.42-1.26-1.429-1.395-.02-2.795-.015-4.195 0-.502 0-.738.256-.758.777-.014.43-.014.86 0 1.29.015.564.261.815.826.83.68.014 1.361 0 2.042 0l.005-.005Zm-.189-5.161h1.931c.56-.014.942-.323 1.063-.816.226-.917-.247-1.579-1.193-1.603-.985-.024-1.965-.01-2.95-.005-1.486 0-1.617.145-1.535 1.637.029.526.275.777.806.792.628.01 1.251 0 1.878 0v-.005Zm-33.412 1.347v5.054c0 .83-.227 1.048-1.062 1.053-.468 0-.932.014-1.4-.01-.463-.024-.729-.275-.734-.753l-.004-1.347c-.015-.56-.271-.82-.836-.82-1.525-.01-3.05 0-4.572-.005-.444 0-.7.212-.81.632l-.406 1.501c-.145.512-.492.782-1.019.797h-1.506c-.68-.01-.874-.256-.705-.917l1.299-4.934.666-2.544c.459-2.25 1.936-3.433 4.099-3.636 2.081-.193 4.19-.125 6.285-.144.469 0 .71.357.715.956v5.112l-.01.005Zm-5.822.772h1.777c.569-.014.835-.265.84-.82.014-.932.014-1.864 0-2.796-.01-.535-.261-.791-.797-.81a20.54 20.54 0 0 0-1.723 0c-1.106.057-1.83.641-2.154 1.708-.168.546-.313 1.101-.458 1.656-.179.68.092 1.048.792 1.067.574.015 1.149 0 1.723 0v-.005Zm32.331-.719v5.001c0 .802-.256 1.048-1.067 1.053h-1.347c-.526-.02-.782-.28-.801-.806l-.005-1.29c-.015-.564-.266-.82-.826-.825-1.506-.01-3.012 0-4.523-.01-.473 0-.744.208-.864.643l-.367 1.404c-.179.623-.522.879-1.173.894-.467.01-.934.01-1.4 0-.671-.01-.874-.27-.705-.923l1.395-5.296.574-2.182c.464-2.317 1.989-3.461 4.254-3.654 2.013-.174 4.05-.106 6.073-.126.507 0 .772.348.772.961v5.166l.01-.01Zm-5.822.72 1.771-.006c.546-.014.812-.265.821-.782v-2.901c-.005-.444-.256-.72-.695-.734-.681-.024-1.366-.034-2.037.024-.927.082-1.56.618-1.864 1.482-.222.623-.381 1.27-.536 1.912-.154.642.14.985.816 1 .575.01 1.144 0 1.719 0l.005.004Zm-37.99-1.266h2.854c.671 0 .966.276.956.937-.01.68 0 1.371-.116 2.032-.323 1.825-1.439 2.98-3.23 3.409-1.979.473-3.997.468-5.976.082-2.202-.43-3.49-1.864-3.877-4.075-.25-1.448-.256-2.891.14-4.32.468-1.705 1.55-2.887 3.264-3.327 2.307-.593 4.649-.656 6.951.025.633.188 1.212.608 1.758.999.53.381.791.965.825 1.627.034.632-.285.98-.912 1.014-.27.014-.54-.015-.806.004-.565.044-.995-.193-1.246-.675-.309-.594-.82-.889-1.429-.913a30.372 30.372 0 0 0-3.38.034c-1.124.082-1.776.777-1.969 1.878-.222 1.265-.246 2.534.053 3.79.266 1.1.768 1.597 1.878 1.675 1.086.077 2.182.033 3.273-.02.618-.029 1.13-.333 1.424-.917.305-.603.087-.99-.589-1-.878-.014-1.757 0-2.635-.004-.792 0-1.02-.27-1.024-1.159 0-.835.237-1.1 1.014-1.105h2.8v.01ZM152.816 65c-1.342-.126-2.341-.116-3.292-.338-.729-.169-1.425-.57-2.067-.975-.647-.41-.989-1.072-1.033-1.859-.034-.623.28-.994.898-1.038.285-.019.575 0 .859-.005.56-.014.985.213 1.227.71.323.666.883.913 1.569.937l3.283.072c.28 0 .613 0 .835-.145.26-.159.545-.444.598-.724.044-.212-.193-.627-.405-.714-.739-.304-1.516-.522-2.284-.749l-4.576-1.342c-1.362-.497-1.97-1.602-1.888-2.945.087-1.448.855-2.481 2.24-2.891.647-.194 1.333-.348 1.999-.358l4.509.126c.96.077 1.805.565 2.529 1.216.517.464.831 1.048.802 1.748-.01.26-.121.59-.304.758-.584.536-2.255.265-2.631-.444-.358-.676-.903-.956-1.603-.985l-3.172-.043c-.174 0-.352.057-.521.106-.386.11-.671.39-.618.772.038.27.275.642.512.724.955.338 1.945.594 2.93.864l3.312.894c.574.198 1.11.589 1.573.999.894.796 1.043 1.849.749 2.964-.329 1.226-1.169 2.004-2.38 2.23-1.313.247-2.655.32-3.65.43V65Zm-75.012-7.83-.01 3.548c-.106 2.037-1.347 3.52-3.34 3.959a12.632 12.632 0 0 1-5.446 0c-2.008-.435-3.283-1.898-3.36-3.94-.087-2.419-.044-4.842-.039-7.26 0-.536.304-.812.85-.826.43-.015.86 0 1.294 0 .763 0 1.047.27 1.047 1.028v6.078c0 .338.01.68.053 1.019.121.956.667 1.569 1.618 1.665.82.078 1.646.078 2.467 0 .956-.087 1.52-.695 1.631-1.646.068-.57.073-1.144.078-1.718l.004-5.436c0-.73.276-.995 1.01-1h1.182c.7.005.985.275.995.97v3.554h-.034v.005Zm-21.155 5.247c.256-1.332-.246-2.414-1-3.49-1.21-1.733-2.316-3.539-3.446-5.325-.13-.208-.26-.55-.174-.715.082-.154.45-.222.69-.227 2.24-.028 2.28-.15 3.443 1.975.463.85.95 1.685 1.443 2.515.4.68 1.01.662 1.395-.034l1.844-3.398c.382-.724.947-1.096 1.772-1.067.45.014.898 0 1.347.005.565.01.724.304.41.816-.482.796-1.004 1.569-1.51 2.35l-2.767 4.297c-.154.242-.241.56-.25.85-.03.965 0 1.936-.01 2.906-.005.72-.256.96-.98.966h-1.347c-.594-.02-.855-.27-.87-.855-.014-.521 0-1.038 0-1.56l.01-.009Zm50.145-3.64v-5.001c0-.874.256-1.125 1.12-1.125h1.077c.733.005 1.013.27 1.013 1v7.583c0 1.053.15 1.198 1.217 1.198h5.919c.806 0 1.052.25 1.062 1.062v.43c-.02.651-.271.907-.927.912h-9.419c-.821 0-1.057-.237-1.062-1.057v-5.002Z"/></svg>