<svg xmlns="http://www.w3.org/2000/svg" fill="none" viewBox="0 0 210 80"><path fill="#FFBC02" fill-rule="evenodd" d="M45.123 44.767c.16-2.883 1.929-5.127 4.927-5.127 3.425 0 4.873 2.297 4.873 5.233V60.2h7.123V43.647c0-5.766-3.105-10.413-9.796-10.413-2.517 0-5.408.853-7.123 2.883V19L38 23.594v36.602h7.123V44.762v.005Zm34.282-11.64c-7.871 0-13.814 5.82-13.814 13.937C65.591 55.18 71.534 61 79.405 61s13.814-5.873 13.814-13.936c0-8.064-5.947-13.937-13.814-13.937Zm0 21.413c-3.484 0-6.695-2.563-6.695-7.476 0-4.914 3.212-7.477 6.695-7.477s6.69 2.51 6.69 7.477c0 4.967-3.211 7.477-6.69 7.477Zm24.447-9.453c0-3.043 1.821-5.447 4.926-5.447 3.426 0 4.874 2.297 4.874 5.233V60.2h7.118V43.647c0-5.766-2.998-10.413-9.528-10.413-2.838 0-5.996 1.226-7.604 3.95v-3.257h-6.905V60.2h7.123V45.091l-.004-.004Zm34.398-11.96c-7.872 0-13.814 5.82-13.814 13.937 0 8.116 5.942 13.936 13.814 13.936 7.871 0 13.813-5.873 13.813-13.936 0-8.064-5.947-13.937-13.813-13.937Zm0 21.413c-3.484 0-6.696-2.563-6.696-7.476 0-4.914 3.212-7.477 6.696-7.477 3.483 0 6.69 2.51 6.69 7.477 0 4.967-3.211 7.477-6.69 7.477Zm33.386-20.72a16.228 16.228 0 0 0-1.661-.106c-2.25 0-5.889.64-7.497 4.11v-3.897h-6.905V60.2h7.123V48.188c0-5.66 3.158-7.424 6.798-7.424.641 0 1.336.053 2.142.213V33.82Z" clip-rule="evenodd"/></svg>