<svg xmlns="http://www.w3.org/2000/svg" fill="none" viewBox="0 0 210 80"><path fill="#53C1B1" d="M190.98 42.857h-19.341l-2.107-5.644h19.34l2.108 5.644Z"/><path fill="#0F5484" d="M37.835 53.543H20V26.452h17.534v5.042H26.321v5.493h10.611v5.042h-10.61v6.246H37.91l-.076 5.268Zm27.845 0h-7.375L52.66 43.158h-2.032v10.385h-6.322V26.452h9.708c3.01 0 5.343.602 7.15 1.88 1.956 1.43 3.01 3.764 3.01 6.172 0 5.117-3.311 7.149-5.268 7.751l6.773 11.288Zm-9.332-21.447c-.752-.602-1.806-.753-3.236-.753H50.63v6.924h2.483c1.43 0 2.484-.15 3.236-.753.903-.602 1.43-1.656 1.355-2.71.075-1.128-.452-2.106-1.355-2.708ZM95.33 53.543h-6.923l-1.957-5.418h-9.633l-1.88 5.418h-6.623l10.16-27.091h6.546l10.31 27.091Zm-10.31-10.46-3.31-9.708-3.387 9.708h6.697Zm29.35 8.654c-2.107 1.58-4.666 2.333-7.3 2.258-3.913 0-7.375-2.032-9.633-4.064l3.161-4.59c1.957 2.031 4.967 3.386 7.074 3.386s3.612-.978 3.612-2.784c0-1.806-2.032-2.56-3.16-3.01-1.129-.452-3.236-1.13-4.139-1.506-1.204-.451-2.258-1.129-3.236-1.956a6.76 6.76 0 0 1-2.108-5.193c0-2.258 1.054-4.44 2.86-5.945 1.505-1.28 3.989-2.182 7.149-2.182 3.161.075 6.247 1.204 8.579 3.31l-2.709 4.44c-1.58-1.655-3.762-2.633-6.02-2.784-2.032 0-3.537.753-3.537 2.409 0 1.655 1.505 2.257 2.784 2.709 1.28.451 3.161 1.204 4.064 1.505 1.355.451 2.634 1.204 3.763 2.182a6.762 6.762 0 0 1 2.107 5.193c-.15 2.709-1.279 5.117-3.311 6.622ZM128.668 37.213c.979-3.612 4.064-5.644 7.752-5.644 2.633 0 5.117.978 6.998 2.784l1.957-5.268c-.677-.752-3.688-3.085-9.257-3.085-6.998 0-12.718 4.139-13.922 11.138l6.472.075Zm15.051 8.127c-1.956 1.882-4.59 2.935-7.299 2.86a7.68 7.68 0 0 1-7.676-5.418h-6.623c1.204 6.999 6.848 11.138 13.922 11.138 5.494 0 8.354-2.258 9.783-3.688l-2.107-4.892Zm27.92-2.483H152.75l-4.064 10.686h6.623l1.881-5.493h9.633l1.956 5.493h6.924l-4.064-10.686Zm-10.912-5.644 1.279-3.838 1.355 3.838h6.171l-4.064-10.762h-6.547l-4.064 10.762h5.87Z"/></svg>