<svg xmlns="http://www.w3.org/2000/svg" fill="none" viewBox="0 0 210 80"><path fill="#8862D0" d="M56.762 18H32.395C27.207 18 23 22.206 23 27.403V51.81c0 5.197 4.207 9.403 9.395 9.403h24.367c5.188 0 9.387-4.206 9.387-9.403V27.403c0-5.197-4.2-9.403-9.387-9.403Zm4.54 36.272c-.082.097-.309.113-.47.113h-6.72c-1.128 0-2.254-.008-3.381.009-.357.008-.478-.098-.486-.471-.025-.764.048-1.438.956-1.665.073-.024.138-.22.154-.341.025-.236-.065-.512.025-.723.137-.325.316-.771.591-.877.47-.194.51-.454.51-.868l-.007-7.714c0-3.914-2.983-7.203-6.882-7.52-3.38-.284-6.04.975-7.798 3.939-.592.998-.876 2.119-.876 3.28l-.016 8.185c0 .309.032.512.397.617.503.146.73.552.73 1.08v.86c1.03.48 1.159.715 1.118 1.828-.016.292-.13.398-.413.39-.365-.017-.73-.009-1.094-.009h-8.95c-.202 0-.405-.016-.648-.024 0-.414-.081-.812.024-1.137.114-.324.365-.682.665-.836.316-.17.438-.333.405-.666-.008-.17 0-.35.008-.52.033-.462.244-.82.681-.95.365-.105.438-.3.43-.641l.008-15.948c0-.39-.122-.568-.503-.495-.51.081-.697-.154-.802-.633-.267-1.161-.592-2.314-.916-3.549.227-.016.405-.04.584-.04l4.426.008c.405 0 .543-.122.535-.536l-.009-3.678h22.22l.008 2.606c0 .512-.13 1.194.137 1.486.235.26.94.106 1.443.106l3.389.008c.162 0 .332.016.559.024l-1.038 3.93c-.04.13-.38.252-.583.244-.454-.017-.592.138-.592.6v15.794c0 .373.065.6.462.73.567.196.689.69.648 1.235-.032.438-.008.771.544.934.51.146.843 1.437.526 1.835Z"/><path fill="#000" d="M90.556 47.394c-.121.033-.162.025-.178.049-1.338 2.103-3.356 2.379-5.544 1.973-3.219-.593-4.564-4.466-2.457-6.943.657-.771 1.532-1.21 2.497-1.404l3.445-.52 1.119-.22c.397-.105.762-.3.827-.763.073-.511-.057-.966-.47-1.307-1.006-.82-2.838-.43-3.438.707-.073.146-.25.34-.373.34l-3.996-.121c.162-1.145.616-2.07 1.386-2.842 1.07-1.072 2.408-1.56 3.875-1.713 1.678-.18 3.332-.057 4.888.673 1.824.853 2.797 2.25 2.78 4.312v9.127c0 .447-.097.609-.575.593a53.388 53.388 0 0 0-3.226 0c-.479.016-.6-.154-.568-.601.033-.439 0-.877 0-1.34h.008Zm-.275-4.563-1.322.325-1.329.235c-.438.13-.908.284-1.273.552-.762.56-.705 1.73.04 2.241 1.346.918 3.592.033 3.876-1.559.097-.568.016-1.17.016-1.794h-.008Zm32.465-3.638c.227-1.478.916-2.606 2.091-3.443 2.424-1.721 7.036-1.559 9.322.35.908.762 1.467 1.737 1.475 2.93l.017 10.061c0 .049-.017.098-.041.195h-4.272v-1.867c-.04-.009-.081-.017-.121-.033-.081.097-.171.187-.244.292-.664.967-1.564 1.567-2.715 1.762-1.435.244-2.845.187-4.142-.544-1.549-.877-1.994-2.322-1.905-3.995.081-1.624.859-2.866 2.367-3.434 1.086-.415 2.278-.553 3.429-.78.697-.138 1.41-.195 2.107-.325.438-.081.843-.276.916-.796.081-.552-.081-1.03-.559-1.372-1.054-.755-2.789-.325-3.372.828-.065.13-.235.293-.349.293l-3.996-.114-.008-.008Zm8.252 3.695-2.732.544c-.22.046-.434.114-.64.203-.787.34-1.143.933-1.022 1.672.114.707.673 1.17 1.532 1.218 2.059.114 3.364-1.201 2.87-3.63l-.008-.008Zm45.653 1.875c-.243 1.373-.794 2.355-1.678 3.126-1.686 1.47-3.712 1.787-5.844 1.673-2.148-.114-3.996-.885-5.301-2.671-1.184-1.608-1.451-3.468-1.354-5.4.13-2.428 1.029-4.458 3.121-5.822 2.569-1.68 6.509-1.462 8.787.495 1.483 1.275 2.107 2.972 2.278 4.872.048.52 0 1.048.04 1.56.032.446-.138.56-.567.551-2.813-.016-5.626 0-8.439 0-.746 0-.754.017-.64.772.186 1.16.948 2.005 2.043 2.24 1.345.293 2.537-.12 3.177-1.103.081-.13.251-.276.381-.285 1.297-.024 2.594-.016 3.996-.016v.008Zm-9.557-4.352h5.253c.057-1.445-1.151-2.55-2.683-2.501-1.475.049-2.707 1.242-2.57 2.501Zm-16.358-1.218-3.956.097c-.113 0-.267-.186-.332-.316-.592-1.259-2.618-1.697-3.688-.78-.56.48-.47 1.283.227 1.632.413.203.883.309 1.337.406l3.162.634a8.55 8.55 0 0 1 1.094.34c3.494 1.324 2.951 5.019 1.175 6.586-1.256 1.112-2.731 1.616-4.361 1.746-1.986.154-3.931 0-5.682-1.08a4.761 4.761 0 0 1-2.205-3.102c-.089-.398.024-.528.43-.528l3.591-.081c.283 0 .478.016.583.357.179.569.616.91 1.176 1.096.77.252 1.54.268 2.294-.024.462-.178.835-.47.835-1.015 0-.528-.357-.828-.811-.974-.486-.17-1.005-.268-1.508-.39l-3.591-.844c-1.426-.463-2.383-1.446-2.659-2.989-.316-1.794.414-3.572 2.019-4.376 2.805-1.413 5.682-1.438 8.511-.073 1.241.6 1.97 1.664 2.286 3.012.025.102.041.205.049.309v.365l.024-.008Zm-32.035 1.275c-.519 0-1.046-.025-1.565.008-.413.032-.559-.13-.656-.52-.43-1.705-2.165-2.428-3.559-1.461-.357.243-.697.617-.867 1.007-.722 1.632-.73 3.313-.065 4.96.462 1.138 1.354 1.625 2.521 1.527.989-.08 1.718-.747 1.994-1.908.097-.398.268-.487.64-.479h3.227c.437-.008.567.114.518.569-.356 2.996-2.464 5.099-5.536 5.342-1.159.09-2.375.041-3.502-.227-2.253-.528-3.785-2.006-4.531-4.198-.722-2.111-.697-4.247.121-6.325 1.079-2.737 3.705-4.304 6.915-4.198 1.321.04 2.586.276 3.737.958 1.71 1.015 2.602 2.541 2.813 4.498.04.35-.081.463-.43.455-.592-.016-1.183 0-1.767 0l-.008-.008Zm-40.555 8.818H73.5l-.024-.641v-9.85c0-.503-.146-.658-.649-.641-1.305.024-1.305 0-1.305-1.292v-1.664c-.016-.35.122-.463.454-.447h1.038c.34.017.43-.121.462-.454.073-.788.097-1.608.332-2.355.551-1.795 2.124-2.875 4.296-2.931 1.03-.025 2.067.186 3.097.3.308.032.349.203.284.48-.203.862-.39 1.728-.56 2.598-.064.316-.202.373-.51.316a5.312 5.312 0 0 0-1.135-.081c-.762.024-1.135.422-1.16 1.177v.959l2.165-.009c.486-.024.632.147.616.617v2.29c.008.382-.114.528-.503.52-.721-.024-1.45 0-2.237 0v11.124l-.016-.016Zm82.634-3.467.681 3.264a8.192 8.192 0 0 1-3.713.398 5.94 5.94 0 0 1-1.41-.333c-1.703-.674-2.376-2.03-2.384-3.784V38.95c0-.138.049-.3-.016-.414-.081-.146-.227-.333-.365-.357-.356-.049-.729-.024-1.094-.016-.292.008-.446-.073-.438-.406v-2.607c0-.333.138-.422.438-.406.259.017.519 0 .778 0 .465 0 .697-.224.697-.674v-2.346c-.008-.366.114-.48.479-.471h4.166l-.008 2.858c-.024.52.162.666.649.633.518-.04 1.037 0 1.564-.008.316-.008.43.122.421.43v2.558c0 .317-.113.439-.429.43-.592-.008-1.184.009-1.767 0-.308 0-.438.098-.438.423l.008 6.203c0 .813.349 1.113 1.176 1.113.308 0 .616-.049 1.013-.081l-.008.008Zm-54.117-7.13-1.272-.162c-2.051-.235-3.413.95-3.421 3.005v7.746h-4.596l-.033-.569-.016-13.292c0-.503.097-.706.657-.682h3.38c.365 0 .486.114.478.48v2.07c.041.016.089.024.13.04l.202-.47c.722-1.787 2.205-2.607 4.078-2.225.154.032.397.219.405.34l.016 3.711-.008.009Zm76.627-1.38.3-.682c.681-1.608 2.408-2.444 4.078-1.965.129.04.308.211.316.317l.016 3.183-.024.52-1.241-.147c-2.099-.227-3.437.958-3.445 3.086v7.673h-4.588V34.792h4.467v2.493l.129.024h-.008Z"/></svg>