<svg xmlns="http://www.w3.org/2000/svg" fill="none" viewBox="0 0 210 80"><path fill="#000" d="M81.578 45.58c.736.982 1.84 1.718 3.067 2.086 1.349.368 2.699.613 4.048.613 1.227 0 2.454-.123 3.68-.49 2.086-.737 3.19-1.964 3.313-3.926.122-1.595-.368-2.7-1.595-3.435-.736-.491-1.472-.736-2.331-.982l-3.312-.736c-.614-.123-1.227-.245-1.718-.368h-.123a7.4 7.4 0 0 1-2.33-.736c-.614-.245-.982-.736-1.105-1.35-.122-.613 0-1.349.368-1.84.491-.736 1.227-1.104 1.963-1.35.491-.122 1.104-.244 1.595-.244 1.227-.123 2.454-.123 3.68.245 1.595.49 2.7 1.472 3.067 3.067.123.368.123.736.123 1.104v.245h1.595c0-1.104-.245-2.208-.859-3.19-.736-1.349-2.085-2.207-3.803-2.698-1.472-.368-2.944-.368-4.294-.246-1.226-.122-2.208.123-3.19.614a3.659 3.659 0 0 0-1.962 2.085c-.614 1.595-.368 3.68 1.595 4.662.736.368 1.595.614 2.33.736.982.246 1.964.368 2.822.614.614.122 1.35.245 1.963.368.859.122 1.84.49 2.7.858.613.246 1.103.86 1.226 1.595.123.736-.123 1.472-.613 2.086a3.79 3.79 0 0 1-2.454 1.35c-1.227.367-2.454.367-3.558.367-.981 0-1.84-.245-2.699-.613-1.227-.49-2.208-1.595-2.453-2.944 0-.246-.123-.491-.123-.736h-1.595v.368c0 .981.368 1.962.982 2.821ZM164.509 45.58c.736.982 1.84 1.718 3.067 2.086 1.349.368 2.699.613 4.048.613 1.227 0 2.454-.123 3.68-.49 2.086-.737 3.19-1.964 3.313-3.926.122-1.595-.368-2.7-1.595-3.435-.736-.491-1.472-.736-2.331-.982l-3.312-.736a39.831 39.831 0 0 1-1.718-.368h-.123a7.4 7.4 0 0 1-2.33-.736c-.614-.245-.982-.736-1.105-1.35-.122-.613 0-1.349.368-1.84.491-.736 1.227-1.104 1.963-1.35.491-.122 1.104-.244 1.595-.244 1.227-.123 2.454-.123 3.681.245 1.594.49 2.698 1.472 3.067 3.067.122.368.122.736.122 1.104v.245h1.595c0-1.104-.245-2.208-.859-3.19-.736-1.349-2.085-2.207-3.803-2.698-1.472-.368-2.944-.368-4.294-.246-.981.123-1.962.369-2.944.86a3.658 3.658 0 0 0-1.963 2.085c-.613 1.595-.368 3.68 1.595 4.662a7.795 7.795 0 0 0 2.208.736c.982.245 1.963.368 2.822.613.613.123 1.349.245 1.963.368.859.123 1.84.49 2.699.859.613.245 1.104.859 1.227 1.595.122.736-.123 1.472-.614 2.085a3.79 3.79 0 0 1-2.453 1.35c-1.105.245-2.331.368-3.558.245-.982 0-1.84-.245-2.699-.613-1.227-.491-2.208-1.595-2.454-2.945 0-.245-.122-.49-.122-.736h-1.595v.368c0 .859.245 1.84.859 2.7ZM52.871 33.19h7.238v-1.595H43.915v1.595h7.238v13.249h-7.238v1.717H60.11V46.44H52.87v-13.25Zm23.922-1.595v14.108L63.912 31.595h-1.595v16.561h1.595v-14.23l12.881 14.23h1.595V31.595h-1.595ZM155.921 31.595h-3.19l-6.502 16.562h1.718l1.963-5.03h8.71l1.963 5.03h1.717l-6.379-16.562Zm-5.275 9.814 3.19-8.22h1.104l3.189 8.22h-7.483ZM96.667 31.595v1.595h7.238v14.844h1.595V33.19h7.238v-1.595h-16.07ZM126.846 48.157l-6.256-16.562h-3.19l-6.257 16.562h1.718l1.84-5.03h8.465l1.84 5.03h1.84Zm-11.409-6.748 3.067-8.22h.981l3.067 8.22h-7.115Zm28.707-.736c-.368-.368-.736-.736-1.104-.981 1.472-1.227 2.085-3.19 1.472-5.03-.613-1.84-2.331-3.067-4.171-3.067h-11.287v16.562h11.655a4.45 4.45 0 0 0 4.048-2.577c.736-1.717.491-3.557-.613-4.907Zm-13.495-7.483h9.692c1.472 0 2.821 1.226 2.821 2.821 0 1.595-1.104 2.944-2.698 2.944h-9.815V33.19Zm10.305 13.249h-10.305v-5.766h10.06c1.472 0 2.821 1.227 2.821 2.822.123 1.595-1.104 2.821-2.576 2.944ZM183.401 46.439v-5.766h12.881v-1.718h-12.881V33.19h13.74v-1.595h-15.335v16.562H198v-1.718h-14.599Z"/><path fill="#8362AC" d="M13 41.164h8.71v8.587H13v-8.587Z"/><path fill="#EA4622" d="M17.294 38.71c2.453 0 4.293-1.963 4.293-4.416 0-2.454-1.84-4.294-4.293-4.294C14.84 30 13 31.963 13 34.294c0 2.33 1.963 4.416 4.294 4.416Z"/><path fill="#32A980" d="M24.532 49.751v-8.587h4.294c2.33 0 4.293 1.963 4.293 4.294 0 2.33-1.962 4.293-4.293 4.293h-4.294Z"/><path fill="#EDA91E" d="M24.532 38.71v-8.587h4.294c2.33 0 4.293 1.963 4.293 4.293 0 2.331-1.962 4.294-4.293 4.294h-4.294Z"/></svg>