<svg xmlns="http://www.w3.org/2000/svg" fill="none" viewBox="0 0 210 80"><path fill="#000" d="M34.116 27H20.04a.2.2 0 0 0-.202.202v4.426c0 .108.093.201.202.201h14.077a.2.2 0 0 0 .202-.201v-4.426a.205.205 0 0 0-.202-.202ZM29.76 48.527s-.031-.039-.008-.046c1.403-.489 4.566-3.97 4.566-8.132v-6.016a.205.205 0 0 0-.202-.201H15.171a.172.172 0 0 0-.171.17v4.489c0 .093.078.17.17.17h14.078c.109 0 .202.093.202.202v9.21a.155.155 0 0 1-.155.154H15.209a.208.208 0 0 0-.209.21v4.41c0 .117.093.21.21.21h5.992c4.14 0 7.643-3.055 8.209-4.473.008-.023.054-.023.054.008v4.24c0 .124.1.225.233.225h14.054a.205.205 0 0 0 .201-.202v-4.426a.205.205 0 0 0-.201-.202H29.76Zm31.232.59V47.79h2.512v-8.806h-2.512v-1.342h6.442v1.341h-2.511v8.807h2.511v1.325h-6.442Zm9.248-8.939c.365.008.675.132.915.38.24.24.364.55.364.923v.418c.248-.488.62-.891 1.109-1.225.488-.333 1.062-.496 1.713-.496.923 0 1.659.233 2.21.706.55.473.89 1.224 1.03 2.263H76.07c0-.581-.163-1.015-.48-1.302-.319-.287-.73-.434-1.233-.434-.954 0-1.667.232-2.132.705-.465.465-.698 1.186-.698 2.155v4.837h-1.496v-7.697h-1.155v-1.24h1.372l-.008.007Zm9.721 0c.365.008.675.132.915.38.24.24.364.55.364.923v.418c.248-.488.62-.891 1.109-1.225.488-.333 1.062-.496 1.713-.496.922 0 1.659.233 2.21.706.55.473.89 1.224 1.03 2.263h-1.511c0-.581-.163-1.015-.48-1.302-.319-.287-.73-.434-1.234-.434-.953 0-1.666.232-2.131.705-.465.465-.698 1.186-.698 2.155v4.837h-1.496v-7.697h-1.155v-1.24h1.372l-.008.007Zm10.303 6.388c.124.356.38.651.782.884.396.24.97.356 1.721.356.752 0 1.388-.132 1.83-.387.442-.256.705-.644.798-1.155h1.473c-.108.93-.542 1.643-1.294 2.147-.752.504-1.683.752-2.807.752-1.666 0-2.798-.434-3.395-1.295-.597-.86-.9-1.837-.9-2.93 0-1.597.373-2.799 1.117-3.597s1.799-1.202 3.178-1.202c1.38 0 2.442.42 3.171 1.264.729.845 1.093 2.163 1.093 3.961h-6.954c0 .45.063.853.187 1.21v-.008Zm4.418-4.427c-.387-.45-1.023-.674-1.915-.674-.891 0-1.55.225-1.969.682-.41.458-.65 1.148-.713 2.078h5.264c-.062-.938-.287-1.628-.675-2.078l.008-.008Zm8.93 6.11a1.084 1.084 0 0 1-.418.627 1.21 1.21 0 0 1-.752.24h-1.45c-.279 0-.527-.077-.752-.24a1.086 1.086 0 0 1-.418-.628l-1.93-8.07h1.496l1.907 7.954h.845l1.907-7.954h1.488l-1.93 8.07h.007Zm4.853-1.683c.124.356.38.651.783.884.395.24.969.356 1.721.356.752 0 1.388-.132 1.829-.387a1.57 1.57 0 0 0 .791-1.155h1.473c-.109.93-.543 1.643-1.295 2.147-.751.504-1.689.752-2.806.752-1.666 0-2.798-.434-3.395-1.295-.597-.86-.899-1.837-.899-2.93 0-1.597.372-2.799 1.116-3.597.744-.798 1.798-1.202 3.178-1.202s2.442.42 3.171 1.264c.728.845 1.093 2.163 1.093 3.961h-6.954c0 .45.062.853.186 1.21l.008-.008Zm4.419-4.427c-.388-.45-1.024-.674-1.915-.674s-1.55.225-1.969.682c-.411.458-.651 1.148-.713 2.078h5.263c-.062-.938-.286-1.628-.674-2.078l.008-.008Zm14.744 4.427c.124.356.38.651.783.884.395.24.969.356 1.721.356.752 0 1.387-.132 1.829-.387a1.57 1.57 0 0 0 .791-1.155h1.473c-.109.93-.543 1.643-1.295 2.147-.752.504-1.69.752-2.806.752-1.667 0-2.798-.434-3.395-1.295-.597-.86-.9-1.837-.9-2.93 0-1.597.373-2.799 1.117-3.597s1.798-1.202 3.178-1.202 2.442.42 3.171 1.264c.728.845 1.093 2.163 1.093 3.961h-6.954c0 .45.062.853.186 1.21l.008-.008Zm4.419-4.427c-.388-.45-1.024-.674-1.915-.674-.892 0-1.551.225-1.969.682-.411.458-.651 1.148-.713 2.078h5.263c-.062-.938-.287-1.628-.674-2.078l.008-.008Zm-14.38-1.96c.364.007.674.131.914.38.241.24.365.55.365.922v.418c.248-.488.62-.891 1.108-1.225.489-.333 1.062-.496 1.713-.496.923 0 1.659.233 2.21.706.55.473.891 1.224 1.031 2.263h-1.512c0-.581-.163-1.015-.48-1.302-.318-.287-.729-.434-1.241-.434-.953 0-1.666.232-2.132.705-.465.465-.697 1.186-.697 2.155v4.837h-1.496v-7.697h-1.155v-1.24h1.372v.007Zm25.891.953c.667.635 1.008 1.558 1.008 2.76v5.224h-1.535v-5.224c0-.807-.209-1.427-.628-1.846-.418-.418-.969-.627-1.651-.627-.977 0-1.69.232-2.155.697-.465.465-.69 1.054-.69 1.783v5.225h-1.535v-7.698h-1.155v-1.24h1.38c.38 0 .69.124.938.372s.372.558.372.93v.419a2.344 2.344 0 0 1 1-1.256c.488-.31 1.124-.465 1.922-.465 1.156 0 2.062.318 2.737.953l-.008-.007Zm7.582 6.705v1.28h-2.791c-.38 0-.69-.125-.938-.373a1.262 1.262 0 0 1-.372-.93v-6.527h-1.279v-1.109h1.279V38.9h1.496v1.28h2.341v1.108h-2.341v6.55h2.605Zm7.907-10.457v10.14h6.124v1.387h-7.535V37.38h1.411Zm7.573 7.496c.24-.38.582-.698 1.023-.946.442-.256.962-.41 1.543-.465l4.364-.426c0-.264-.085-.543-.255-.837-.171-.287-.466-.543-.884-.752-.411-.21-.969-.318-1.659-.318-.806 0-1.465.132-1.985.387-.519.256-.814.667-.891 1.233h-1.364c.131-.915.573-1.62 1.333-2.116.76-.497 1.736-.745 2.915-.745 1.674 0 2.814.334 3.403 1.008.589.667.884 1.496.884 2.48v5.528h-1.504V46c-.148.434-.419.884-.807 1.349-.401.468-.884.86-1.426 1.155a3.556 3.556 0 0 1-1.76.465c-1.077 0-1.899-.256-2.457-.775-.558-.52-.837-1.202-.837-2.055 0-.457.116-.868.356-1.248l.008-.015Zm1.589 2.41c.303.288.752.427 1.357.427.512 0 1.023-.132 1.535-.395.511-.264.977-.667 1.403-1.202.426-.535.767-1.186 1.023-1.953l-4.093.372c-.55.054-.961.232-1.248.543-.287.31-.434.666-.434 1.054 0 .48.155.86.45 1.147l.007.008Zm9.427-9.906c.38 0 .69.124.938.372s.372.558.372.938v3.884c.442-1.76 1.55-2.644 3.325-2.644.822 0 1.582.21 2.287.62.706.411 1.256.977 1.667 1.683.411.705.62 1.472.62 2.302 0 .83-.202 1.612-.62 2.318a4.624 4.624 0 0 1-1.667 1.682c-.698.41-1.465.62-2.287.62-1.775 0-2.876-.884-3.325-2.643v2.387h-1.504V38.698h-1.155V37.38h1.349Zm1.728 8.86c.279.52.659.93 1.155 1.233a3.106 3.106 0 0 0 1.659.457c.675 0 1.248-.147 1.721-.434.473-.287.83-.69 1.07-1.201.248-.512.364-1.101.364-1.76s-.124-1.256-.372-1.76a2.723 2.723 0 0 0-1.085-1.186c-.473-.279-1.047-.426-1.698-.426s-1.194.147-1.682.434c-.488.287-.868.69-1.139 1.201a3.641 3.641 0 0 0-.411 1.73c0 .635.139 1.193.418 1.712Zm10.272 2.303a3.313 3.313 0 0 1-1.279-1.318 3.735 3.735 0 0 1-.442-1.799h1.449c.008.752.217 1.334.636 1.737.419.403.946.612 1.581.612.683 0 1.186-.108 1.497-.318.31-.209.465-.519.465-.93 0-.473-.163-.837-.481-1.1-.318-.264-.868-.474-1.651-.629-2.24-.41-3.364-1.333-3.364-2.767 0-.674.279-1.217.837-1.62.558-.403 1.387-.613 2.488-.613.806 0 1.45.179 1.93.535.481.357.83.768 1.031 1.24.202.474.326.93.365 1.388l-1.45.016c-.039-.59-.209-1.07-.504-1.427-.294-.356-.752-.542-1.372-.542-.62 0-1.07.093-1.403.279-.341.186-.504.457-.504.806 0 .388.163.69.488.915.326.225.814.403 1.466.52 1.17.216 2.062.573 2.666 1.077.605.504.915 1.14.915 1.899 0 1.69-1.14 2.535-3.411 2.535-.744 0-1.395-.163-1.953-.489v-.007Z"/></svg>