<svg xmlns="http://www.w3.org/2000/svg" fill="none" viewBox="0 0 210 80"><path fill="#82FB8E" d="M20.68 31.427H18v16.74h2.68v-16.74Zm4.683 2.002h-2.68v8.709h2.68v-8.709Zm4.694 6.029h-2.68v8.708h2.68v-8.708Zm4.683-2.681h-2.68v8.709h2.68v-8.71Zm4.693-5.35h-2.68v16.74h2.68v-16.74Z"/><path fill="#000" d="m59.641 31.306 3.862 13.064 3.917-13.064h3.665v16.871h-2.68v-9.672c.12-1.75.098-3.512.098-3.512s-.525 1.685-.919 3.392l-2.943 9.792h-2.604l-2.844-9.76c-.383-1.717-.92-3.402-.92-3.402s0 1.762.099 3.523v9.64h-2.68l-.044-16.872h3.993Zm24.705 0v2.68h-5.81v4.104h5.099v2.582h-5.066v4.847h5.81v2.68h-8.666V31.306h8.633Zm13.818 0v2.68h-3.95v14.202H91.37V33.987h-3.928v-2.68h10.722Zm3.808 0h4.945c3.227 0 5.361 2.08 5.361 4.65a4.384 4.384 0 0 1-.569 2.287 4.606 4.606 0 0 1-1.652 1.685 4.113 4.113 0 0 1 1.674 1.674c.394.7.569 1.51.525 2.308v4.267h-2.823v-3.971c0-2.013-.984-2.823-2.987-2.823h-1.652v6.772h-2.822V31.306Zm2.822 7.593h1.926c1.641 0 2.724-.995 2.724-2.527s-1.083-2.407-2.724-2.407h-1.959l.022 4.945.011-.01Zm11.466 2.823v-3.928c0-4.168 2.396-6.794 6.105-6.794 3.709 0 6.116 2.637 6.116 6.794v3.928c0 4.169-2.385 6.773-6.116 6.773-3.73 0-6.105-2.604-6.105-6.773Zm6.105 4.07c2.014 0 3.305-1.466 3.305-3.928v-4.223c0-2.462-1.302-3.96-3.305-3.96-2.002 0-3.238 1.498-3.238 3.96v4.223c0 2.462 1.236 3.928 3.238 3.928Zm18.852-2.921s-.044-1.74-.164-3.501v-8.03h2.768v16.87h-2.539l-4.584-8.851a43.57 43.57 0 0 0-1.488-3.184s0 1.74.142 3.501v8.534h-2.757V31.34h2.768l4.344 8.39c.7 1.576 1.499 3.14 1.499 3.14h.011Zm6.75-1.149v-3.928c0-4.168 2.385-6.794 6.105-6.794 3.72 0 6.116 2.637 6.116 6.794v3.928c0 4.169-2.385 6.773-6.116 6.773s-6.105-2.604-6.105-6.773Zm6.105 4.07c2.013 0 3.304-1.466 3.304-3.928v-4.223c0-2.462-1.302-3.96-3.304-3.96s-3.271 1.498-3.271 3.96v4.223c0 2.462 1.269 3.928 3.271 3.928Zm14.212-14.486 3.863 13.064 3.927-13.064h3.666v16.871h-2.681v-9.672c.12-1.75.099-3.512.099-3.512s-.526 1.685-.919 3.392l-2.944 9.792h-2.614l-2.845-9.76c-.383-1.717-.919-3.402-.919-3.402s0 1.762.098 3.523v9.64h-2.68l-.033-16.872h3.982Zm24.716 0v2.68h-5.81v4.104h5.066v2.582h-5.066v4.847H193v2.68h-8.632V31.306H193Z"/></svg>