<svg xmlns="http://www.w3.org/2000/svg" fill="none" viewBox="0 0 210 80"><path fill="#203150" d="M33.624 51.392c.206.556.419 1.113.632 1.677-.179-.014-.35-.028-.522-.048-.09-.007-.172-.02-.262-.035-.055 0-.11-.013-.158-.02-.048-.014-.103-.02-.15-.028a5.912 5.912 0 0 1-.701-.165c-.063-.013-.118-.034-.18-.048a4.829 4.829 0 0 1-.337-.117c-.048-.013-.089-.034-.137-.048a2.942 2.942 0 0 1-.22-.09c-.02 0-.034-.013-.062-.027l-.185-.082c-.062-.034-.124-.062-.193-.096-.062-.035-.124-.062-.179-.104a.367.367 0 0 1-.089-.048c-.103-.055-.206-.123-.31-.185-.068-.048-.137-.096-.206-.151-.034-.021-.068-.049-.11-.076l-.11-.09c-.013-.013-.027-.02-.04-.034-.014-.007-.021-.014-.035-.027a2.907 2.907 0 0 1-.165-.138c-.055-.048-.11-.096-.165-.15a1.575 1.575 0 0 1-.151-.152c-.055-.048-.103-.103-.158-.158a7.484 7.484 0 0 1-.646-.811c-.035-.048-.07-.097-.104-.152a.487.487 0 0 1-.068-.096c-.035-.055-.069-.117-.103-.172a2.32 2.32 0 0 1-.165-.281 1.04 1.04 0 0 1-.07-.117c-.18-.339-.345-.685-.494-1.038.268.055.509.123.756.172 1.382.275 2.77.543 4.152.818.062.013.151.061.172.116.233.605.467 1.217.7 1.829l.063.172Zm3.897-24.065a1.07 1.07 0 0 1-1.038-1.066c0-.577.468-1.065 1.031-1.065.578 0 1.059.474 1.059 1.059a1.074 1.074 0 0 1-1.052 1.072Zm3.602 22.353-.598 1.588c-.22.564-.433 1.127-.646 1.69-.048.132-.11.187-.248.187-1.333.006-2.667.013-4 .013-.048 0-.13-.041-.145-.09-.247-.631-.488-1.27-.735-1.91-.206-.543-.412-1.093-.619-1.636 0-.014 0-.027.007-.062 2.337.289 4.674.33 7.039.035-.02.082-.035.137-.055.185Zm6.214-1.36c.048-.015.096-.022.171-.035-.59 1.464-1.464 2.667-2.756 3.54-.027.02-.062.034-.09.062h-.006c-.055.034-.11.061-.172.103a1.8 1.8 0 0 0-.192.103c-.062.027-.131.062-.193.09a.146.146 0 0 0-.034.02c-.062.027-.124.055-.193.082a.154.154 0 0 1-.034.02c-.062.022-.13.049-.2.083-.089.035-.178.07-.274.104l-.124.04c-.09.035-.179.07-.275.097-.055.02-.11.034-.165.055-.186.055-.371.11-.543.151-.082.02-.158.041-.234.055-.075.014-.151.035-.22.041l-.103.021a.754.754 0 0 1-.123.014l-.166.02a2.545 2.545 0 0 1-.323 0c.124-.33.241-.653.365-.976.062-.171.13-.35.2-.529.24-.646.487-1.3.728-1.945.048-.145.117-.213.282-.24a41.78 41.78 0 0 0 4.674-.977Zm.446-3.307c0 .433 0 .86.014 1.285a.405.405 0 0 1-.014.096c-.007.035-.013.056-.034.076 0 .014-.014.02-.027.028a.261.261 0 0 1-.124.062 45.012 45.012 0 0 1-5.06 1.072c-.583.09-1.168.165-1.738.22-.963.096-1.897.151-2.764.151a34.504 34.504 0 0 1-6.151-.57c-1.389-.255-2.764-.578-4.138-.86-.18-.034-.248-.103-.241-.295.02-.997.02-1.987.034-2.983.014-.963.482-1.719 1.107-2.4 1.01-1.1 2.268-1.807 3.664-2.302a13.339 13.339 0 0 1 1.553-.44c.344-.076.694-.144 1.052-.192.172-.028.35-.049.53-.07a18.71 18.71 0 0 1 1.071-.089c1.416-.075 2.825-.027 4.22.207 1.678.275 3.259.797 4.661 1.794.261.185.509.385.743.605.123.11.233.226.343.343.11.11.213.234.316.358.152.192.29.391.406.598.117.206.213.419.296.639a4.754 4.754 0 0 1 .261 1.389c.014.426.014.852.02 1.278Z"/><path fill="#203150" d="M49 22H26.05A6.049 6.049 0 0 0 20 28.049V51a6.049 6.049 0 0 0 6.049 6.049H49A6.05 6.05 0 0 0 55.05 51V28.05A6.049 6.049 0 0 0 49 22Zm.261 22.738c-.027.619-.117 1.244-.192 1.863-.103.9-.364 1.76-.715 2.591-.33.784-.742 1.526-1.292 2.186a8.425 8.425 0 0 1-.873.914 6.098 6.098 0 0 1-.564.46c-.667.496-1.416.833-2.206 1.073-.97.289-1.96.488-2.977.543-1.051.055-2.103.083-3.155.124a51.99 51.99 0 0 1-2.742-.076c-1.031-.055-2.056-.226-3.032-.563a6.792 6.792 0 0 1-2.742-1.774 10.944 10.944 0 0 1-.722-.866c-.75-1.038-1.265-2.179-1.601-3.402-.166-.585-.269-1.19-.385-1.794-.165-.805-.22-1.623-.234-2.447-.014-.564-.083-1.128-.069-1.684.028-.57.096-1.148.206-1.705.124-.626.29-1.244.488-1.85.241-.755.598-1.456.99-2.144.612-1.051 1.437-1.91 2.33-2.715.736-.66 1.588-1.155 2.489-1.567.88-.392 1.787-.687 2.742-.839.57-.096 1.148-.158 1.726-.226.13-.014.171-.055.171-.186a91.408 91.408 0 0 1 0-1.945c0-.103-.034-.151-.137-.186-.86-.337-1.464-.914-1.691-1.821-.158-.592-.027-1.162.33-1.657.378-.522.852-.928 1.498-1.1a2.343 2.343 0 0 1 2.84 1.533c.357 1.08-.035 2.117-.922 2.77-.144.11-.323.172-.481.255-.096.04-.151.089-.151.213.007.66.007 1.326 0 1.986 0 .13.041.2.185.206 1.059.041 2.076.289 3.066.64 1.292.46 2.488 1.1 3.533 1.986 1.086.914 2.07 1.932 2.79 3.183.503.873.929 1.78 1.183 2.763a9.62 9.62 0 0 1 .337 2.804c-.028.818.014 1.636-.02 2.454Z"/><path fill="#fff" d="M47.598 46.553c-1.664.46-3.348.818-5.06 1.073-.583.089-1.168.164-1.738.226.57-.055 1.155-.13 1.739-.22a45.016 45.016 0 0 0 5.059-1.072.261.261 0 0 0 .124-.062c-.028.027-.07.041-.124.055Z"/><path fill="#00072D" d="M47.783 45.013c-.007-.426-.013-.852-.027-1.278l-.02-.365a4.754 4.754 0 0 0-.234-1.024 4.478 4.478 0 0 0-.296-.64 4.812 4.812 0 0 0-.722-.955 6.95 6.95 0 0 0-1.086-.948c-1.402-.997-2.983-1.52-4.66-1.794-1.395-.234-2.805-.282-4.22-.207-.536.03-1.07.083-1.602.159-.358.048-.708.116-1.052.192-.53.117-1.045.261-1.553.44-1.396.495-2.654 1.203-3.664 2.303-.625.68-1.093 1.436-1.107 2.398-.013.997-.013 1.987-.034 2.984-.007.192.062.26.24.295 1.375.282 2.75.605 4.139.86 1.972.364 3.959.556 6.151.57.867 0 1.801-.055 2.764-.151.57-.055 1.155-.13 1.739-.22a45.016 45.016 0 0 0 5.059-1.072.261.261 0 0 0 .124-.062.053.053 0 0 0 .027-.028c.02-.02.027-.041.034-.075 0-.028.014-.062.014-.097-.007-.426-.007-.852-.014-1.285ZM30.455 42.73c.323-.014.619.096.9.24h-1.203c.021-.192.165-.233.303-.24Zm-.385.42h.646c.254 0 .516.013.763 0 .35-.028.66.068.997.233H30.07v-.234Zm.082.419c1.437.04 2.887-.131 4.31.247h-.584c-1.175 0-2.344 0-3.512.007-.172 0-.241-.062-.214-.254Zm.117.426c.069 0 .13-.007.186-.007 1.464 0 2.928 0 4.392-.007.179 0 .296.062.364.261h-1.656c-.983 0-1.973 0-2.956.007-.178 0-.288-.048-.33-.254Zm2.234 1.684h1.74c-.585.247-1.162.2-1.74 0Zm2.145-.172c-.88 0-1.767 0-2.647-.007-.164-.007-.323-.11-.488-.172l.021-.062h3.444c-.076.152-.172.241-.33.241Zm.254-.426c-1.21 0-2.413.007-3.622 0-.13 0-.262-.096-.392-.151.007-.028.02-.055.027-.076h4.207c0 .22-.014.234-.22.234v-.007Zm.371-.42c-.075 0-.144.007-.213.007-1.381 0-2.77-.006-4.152.007-.192 0-.281-.09-.364-.254h4.73v.24Zm9.7-1.697h-1.21c.46-.31 1.051-.323 1.21 0Zm-1.396.178c.398.021.797 0 1.196 0 .062 0 .123.007.2.007.013.124.054.24-.131.24-.73-.006-1.465 0-2.193 0-.02 0-.035-.013-.076-.027.337-.165.653-.247 1.004-.226v.007Zm1.381.427s.035.055.048.082c-.068.055-.137.158-.199.158-1.388.014-2.77.007-4.152 0 1.416-.371 2.867-.2 4.303-.24Zm-4.763.412c1.512.007 3.031.007 4.543.007.028 0 .048.007.09.007-.035.185-.11.254-.296.254-1.478-.007-2.962-.007-4.447-.007-.055 0-.11 0-.186-.007.055-.15.124-.254.296-.254Zm-.303.44h4.674c-.075.158-.158.254-.35.254-1.375-.014-2.75-.007-4.124-.007-.179.007-.234-.061-.2-.247Zm.076.433h4.255c-.124.144-.234.234-.42.234a310.98 310.98 0 0 0-3.587 0c-.166 0-.248-.055-.248-.234Zm.22.502s.02-.055.027-.083h3.417s.014.035.02.055c-.165.055-.33.165-.495.172-.866.014-1.739.014-2.605 0-.123 0-.24-.096-.364-.144Zm.577.323h1.788c-.392.233-1.41.233-1.788 0Zm.413 3.815c-.02.082-.035.137-.055.185l-.598 1.588c-.385-.083-.763-.165-1.127-.247-1.56-.371-3.011-.186-4.647.137-.206-.543-.412-1.093-.619-1.636 0-.014 0-.027.007-.062 2.337.289 4.674.33 7.039.035Zm-7.554 1.897c-.29.055-.585.117-.88.179-.832.165-1.56.281-2.172.357-.069-.048-.138-.096-.206-.151-.035-.021-.07-.049-.11-.076l-.11-.09c-.014-.013-.028-.02-.042-.034-.013-.007-.02-.014-.034-.027a2.907 2.907 0 0 1-.165-.138c-.055-.048-.11-.096-.165-.15a1.575 1.575 0 0 1-.151-.152c-.055-.048-.103-.103-.158-.158a7.484 7.484 0 0 1-.646-.811c-.035-.048-.07-.097-.104-.152a.487.487 0 0 1-.068-.096c-.035-.055-.069-.117-.103-.172a2.32 2.32 0 0 1-.165-.281 1.04 1.04 0 0 1-.07-.117c-.18-.339-.345-.685-.494-1.038.268.055.509.123.756.172 1.382.275 2.77.543 4.152.818.062.013.151.061.172.116.233.605.467 1.217.7 1.829l.063.172Zm13.884-3.107c-.59 1.464-1.464 2.667-2.756 3.54-.027.02-.062.034-.09.062h-.006a27.884 27.884 0 0 1-3.004-.406c.24-.646.488-1.3.729-1.945.048-.145.117-.213.282-.24a41.78 41.78 0 0 0 4.674-.977c.048-.014.096-.02.171-.034Z"/><path fill="#203150" d="M38.573 26.255a1.074 1.074 0 0 1-1.052 1.072 1.07 1.07 0 0 1-1.038-1.066c0-.577.468-1.065 1.031-1.065.578 0 1.059.474 1.059 1.059Z"/><path fill="#00FFC4" d="M35.211 44.243H30.6c-.178 0-.282-.048-.323-.255.062 0 .124-.006.186-.006h4.392c.179 0 .296.062.364.26l-.007.001Zm9.617-.247c-.035.185-.117.254-.296.254-1.485-.007-2.962 0-4.447 0-.055 0-.11 0-.186-.007.062-.151.13-.255.296-.255h4.543c.028 0 .048 0 .09.014v-.006Zm-14.284.426h4.73v.24c-.076 0-.145.007-.214.007H30.91c-.193 0-.282-.082-.365-.254v.007Zm9.348 0h4.668c-.076.158-.158.254-.35.254-1.376-.007-2.75-.007-4.118 0-.179 0-.24-.062-.2-.254Zm4.33.433c-.123.144-.233.24-.425.233-1.196-.007-2.392 0-3.588 0-.165 0-.248-.055-.248-.233h4.262Zm-9.107-.007c0 .22-.007.233-.22.233h-3.622c-.13 0-.261-.103-.392-.158.007-.027.02-.048.028-.075h4.206Zm9.891-1.196c-.068.055-.13.158-.199.158-1.382.007-2.77.007-4.152 0 1.423-.371 2.867-.192 4.303-.24.014.027.028.055.048.082Zm-10.544.165h-4.09c-.171 0-.24-.055-.213-.255 1.437.042 2.887-.13 4.31.248l-.007.007Zm5.753 1.457h3.417s.014.035.02.055c-.165.062-.33.172-.495.172-.866.02-1.739.014-2.605 0-.123 0-.247-.096-.37-.145l.027-.082h.006Zm-8.681-.007h3.45c-.075.151-.171.24-.33.24-.88 0-1.766.008-2.646-.006-.165 0-.323-.11-.48-.172 0-.02.013-.041.013-.062h-.007Zm11.04-1.897a1.884 1.884 0 0 1 1.003-.226c.398.02.797 0 1.196 0 .062 0 .13 0 .2.006.02.124.061.234-.125.234h-2.192c-.02 0-.035-.007-.076-.021l-.007.007Zm-12.504.007v-.227h.653c.254 0 .509.014.763 0 .344-.027.653.062.997.234H30.07v-.007Zm12.483 2.303c-.392.233-1.41.233-1.78 0h1.78Zm-10.05 0h1.74c-.578.247-1.162.2-1.74 0Zm-1.148-2.708h-1.203c.021-.193.165-.234.303-.241.323-.014.619.096.9.24Zm12.407-.007c.468-.31 1.052-.317 1.217 0h-1.217Z"/><path fill="#203150" d="M44.656 51.888c-.055.034-.11.062-.172.103a1.8 1.8 0 0 0-.192.103c-.062.027-.131.062-.193.09a.149.149 0 0 0-.034.02 5.37 5.37 0 0 1-.193.082.154.154 0 0 1-.034.02c-.062.022-.13.049-.2.083-.089.035-.178.07-.274.103l-.124.042c-.09.034-.179.069-.275.096-.055.02-.11.034-.165.055-.186.055-.371.11-.543.151-.082.02-.158.041-.234.055-.075.014-.151.035-.22.041l-.103.021a.754.754 0 0 1-.123.014l-.166.02a2.508 2.508 0 0 1-.323 0c.124-.33.241-.653.365-.976.062-.172.13-.35.2-.529 1.071.2 2.13.344 3.003.406Zm-4.131-.619c-.22.564-.433 1.127-.646 1.69-.048.131-.11.186-.248.186-1.333.007-2.667.014-4 .014-.048 0-.13-.041-.145-.09-.247-.632-.488-1.27-.735-1.91 1.636-.323 3.086-.51 4.647-.138.364.082.742.166 1.127.248Zm-6.269 1.8c-.179-.013-.35-.027-.522-.047-.09-.007-.172-.02-.262-.035-.055 0-.11-.013-.158-.02-.048-.014-.103-.02-.15-.028-.028-.007-.056-.014-.077-.014a5.912 5.912 0 0 1-.625-.15c-.062-.014-.117-.035-.179-.049a4.829 4.829 0 0 1-.337-.117c-.048-.013-.089-.034-.137-.048a2.983 2.983 0 0 1-.22-.09c-.02 0-.034-.013-.062-.027l-.185-.082c-.062-.035-.124-.062-.193-.096-.062-.035-.124-.062-.179-.103a.367.367 0 0 1-.089-.049c-.103-.055-.206-.123-.31-.185a30.63 30.63 0 0 0 2.173-.358c.295-.062.59-.123.88-.178.206.556.419 1.113.632 1.677Z"/><path fill="#00072D" d="M189.993 37.252c-.529.007-1.058-.006-1.581.028-2.399.165-3.938 1.657-4.021 4.07-.089 2.611-.055 5.237-.069 7.849v1.134h-4.921V32.317c1.526 1.052 2.997 2.056 4.536 3.12 1.437-2.199 3.692-2.66 6.063-2.859v4.674h-.007Zm-48.872 11.273v7.94h-5.045v-24.69c1.608 1.078 3.141 2.103 4.736 3.175 1.863-2.055 4.255-2.53 6.88-2.207 2.118.262 3.918 1.148 5.348 2.757 2.949 3.32 2.86 9.018-.151 12.352-2.42 2.667-7.946 4-11.761.68l-.007-.007Zm9.101-6.963c.014-2.955-1.794-4.914-4.537-4.914-2.708 0-4.523 1.924-4.557 4.825-.034 2.894 1.856 4.942 4.557 4.942 2.688 0 4.523-1.966 4.537-4.846v-.007Zm-39.304 1.334h-13.28c.282 1.347.976 2.248 2.076 2.777 2.64 1.265 5.121.92 7.458-.907l2.77 2.92c-.797.564-1.471 1.238-2.289 1.596-3.966 1.732-7.911 1.622-11.582-.736-2.962-1.91-4-4.873-3.554-8.276.468-3.526 2.544-5.966 5.905-7.025 3.911-1.237 7.595-.742 10.565 2.385 1.739 1.836 2.536 5.032 1.924 7.28l.007-.014Zm-4.53-3.568c-.653-1.993-2.543-3.148-4.742-2.99-1.856.138-3.547 1.45-3.815 2.99h8.557Zm68.641 8.27c-1.416 1.567-3.169 2.343-5.155 2.618-3.073.426-6.042.13-8.668-1.69-2.935-2.035-3.987-4.97-3.485-8.4.502-3.492 2.592-5.87 5.912-6.908 3.842-1.203 7.478-.736 10.427 2.289 1.815 1.855 2.55 4.674 2.076 7.382h-13.294c.261 1.478 1.079 2.385 2.248 2.894 2.557 1.106 4.969.79 7.251-1.024.887.934 1.774 1.876 2.688 2.845v-.007Zm-11.891-8.139h8.53c-.406-1.705-2.193-2.956-4.179-2.976-2.131-.02-3.918 1.189-4.351 2.976Zm-30.499 3.45h-13.335c.234 1.3.949 2.125 1.959 2.723 2.152 1.271 4.777.976 7.568-.86.859.915 1.732 1.836 2.695 2.853-.495.42-.922.852-1.416 1.19-3.616 2.474-10.153 1.992-13.349-1.005-2.543-2.378-3.21-5.375-2.372-8.64.867-3.375 3.224-5.395 6.558-6.214 4.241-1.044 8.4.433 10.469 3.685 1.202 1.883 1.539 3.966 1.223 6.269Zm-4.488-3.443c-.475-1.822-2.276-3.018-4.386-2.983-2.014.034-3.774 1.285-4.145 2.983h8.537-.006Zm-47.243-5.08c-.729.852-1.368 1.65-2.076 2.392-.172.179-.578.206-.866.186-1.787-.13-3.568-.303-5.355-.44-.178-.014-.364.055-.543.11-.735.227-1.478.488-1.464 1.437.014.941.797 1.106 1.492 1.257 1.794.385 3.602.68 5.382 1.107 2.254.543 3.533 1.883 3.767 3.753.268 2.145-.708 3.966-2.784 5.038-2.454 1.272-5.094 1.313-7.747 1.025-1.89-.206-3.725-.667-5.506-1.719.97-.914 1.877-1.807 2.825-2.646.138-.124.495-.076.722-.014 1.96.564 3.925.99 5.973.584.303-.062.674-.103.866-.295.317-.33.708-.784.702-1.182 0-.33-.482-.853-.84-.949-1.285-.344-2.618-.516-3.924-.79-.942-.2-1.89-.385-2.798-.695-4.082-1.402-3.746-6.165-1.326-8.042 1.959-1.519 4.24-1.87 6.605-1.856 2.386.014 4.709.413 6.895 1.74Zm3.553-7.554c1.54.845 2.956 1.608 4.352 2.42.185.11.33.446.33.68.013 6.695.006 13.397 0 20.099 0 .082-.049.172-.083.302H84.46V26.832Z"/></svg>