<svg xmlns="http://www.w3.org/2000/svg" fill="none" viewBox="0 0 210 80"><path fill="#1A365F" d="M90.243 42.26c.251 1.769.19 3.528-.285 5.25-.392 1.412-1.012 2.721-2.028 3.8a8.978 8.978 0 0 1-3.456 2.29c-1.301.487-2.635.605-3.997.595-1.184-.01-2.313-.3-3.39-.746-.522-.215-.951-.656-1.427-.99-.159-.112-.27-.286-.56-.351V53.6c.01.286-.102.384-.382.384-1.175-.01-2.35-.01-3.526 0-.251 0-.359-.098-.34-.347.01-.131 0-.263 0-.394V26.971c0-.249.172-.268.35-.282a.065.065 0 0 0 .064.037.065.065 0 0 0 .057-.046l1.054-.122c.047.047.084.042.121-.01l1.054-.121c.047.047.084.042.121-.01l1.054-.122c.042.047.084.043.121-.009.117 0 .22.033.229.174.01.197.014.394.014.59v9.252c.215.122.29-.075.387-.16 1.231-1.092 2.7-1.632 4.305-1.8 1.24-.127 2.48-.066 3.693.252 2.63.695 4.659 2.173 5.839 4.683.387.83.694 1.707.806 2.631 0 .038.052.066.08.099-.038.09-.033.178.032.253h.01Zm-15.199 2.257c.014 1.008.248 2.2 1.003 3.251.807 1.112 1.828 1.9 3.195 2.163 2.047.394 3.884 0 5.395-1.52.592-.596.933-1.333 1.222-2.13 1.194-3.312-.518-6.76-3.908-7.675-1.8-.483-3.498-.136-4.948 1.074-1.418 1.182-1.968 2.773-1.959 4.842v-.005Zm43.828 7.567c-.961 1.192-2.369 1.553-3.703 2.046-.317.117-.648.014-.97.046-1.749.174-3.423-.182-5.023-.834-.662-.273-1.236-.784-1.819-1.23-1.147-.877-1.986-2.012-2.588-3.321-1.1-2.397-1.231-4.889-.592-7.422.574-2.294 1.851-4.124 3.801-5.452 1.991-1.35 4.22-1.834 6.58-1.567 1.646.188 3.143.807 4.467 2.093 0-.582.014-1.051-.004-1.515-.014-.315.088-.427.406-.423h3.53c.359-.004.466.141.433.465-.009.084 0 .173 0 .263v18.015c0 .811.061.727-.746.732h-3.138c-.462 0-.467-.015-.476-.474v-1.36c-.051-.02-.098-.043-.149-.062h-.009Zm.317-7.802a7.767 7.767 0 0 0-.429-2.214c-.788-2.228-2.817-3.556-4.967-3.645-2.63-.113-5.214 1.876-5.689 4.715-.299 1.782.046 3.4 1.189 4.827 1.958 2.44 5.591 2.904 8.026.657 1.268-1.173 1.823-2.679 1.87-4.34Zm54.861-7.614c.862-.873 1.678-1.506 2.686-1.862 2.066-.732 4.085-.709 6.142.126 1.361.554 2.369 1.44 3.054 2.693.7 1.267 1.031 2.66 1.049 4.11l.019 6.047v5.653c0 .53-.005.535-.532.54h-3.138c-.597 0-.602-.005-.602-.62V43.231c0-1.05-.186-2.06-.653-2.997-.489-.986-1.282-1.516-2.373-1.727-.966-.188-1.88-.202-2.803.136s-1.618.924-2.131 1.769c-.551.905-.714 1.89-.714 2.923v9.927c0 .77.098.713-.69.713h-3.008c-.56 0-.56-.01-.569-.591V27.609c0-.854.005-.859.84-.957l2.919-.338c.49-.052.499-.042.499.47v9.884h.005Zm-42.097-.089c.592-.502 1.063-.971 1.632-1.332a5.881 5.881 0 0 1 2.336-.85c1.096-.154 2.183-.192 3.288.113l1.338.38c1.721.624 2.812 1.834 3.461 3.556.494 1.31.662 2.641.662 4.02v10.716c0 .155-.005.305 0 .46.009.206-.056.328-.294.328a475.283 475.283 0 0 0-3.661 0c-.233 0-.303-.112-.294-.324.005-.154 0-.304 0-.46v-9.992a7.7 7.7 0 0 0-.429-2.562c-.419-1.205-1.282-1.9-2.495-2.153-.988-.206-1.977-.216-2.947.16-.881.337-1.506.933-1.954 1.745-.499.905-.639 1.886-.639 2.894v10.19c-.009.493-.009.502-.508.502h-3.269c-.574 0-.485-.051-.485-.516V35.115c0-.605.004-.605.611-.61h3.138c.499 0 .504.024.513.521v1.548l-.004.005Zm32.681.68-2.765 2.524c-.271.254-.462.197-.719-.033-1.445-1.309-3.143-1.651-5.008-1.233-1.352.3-2.406 1.055-3.185 2.219-.812 1.21-.994 2.556-.933 3.964.042 1.004.271 1.947.788 2.824.816 1.38 2.019 2.257 3.544 2.533 1.493.268 2.985.085 4.309-.783 1.208-.793 1.945-1.928 2.267-3.336.107-.464.233-.924.233-1.407 0-.22.084-.314.308-.314h3.595c.304 0 .364.136.35.403-.023.455-.079.906-.158 1.356a11.14 11.14 0 0 1-.914 2.923c-.733 1.543-1.843 2.74-3.242 3.678-2.065 1.388-4.36 1.768-6.794 1.58-1.497-.116-2.84-.628-4.104-1.411-1.306-.807-2.322-1.886-3.148-3.186-1.212-1.919-1.492-4.035-1.362-6.235.047-.82.173-1.642.457-2.425 1.297-3.594 3.824-5.742 7.546-6.45a9.9 9.9 0 0 1 5.312.421c1.371.498 2.597 1.248 3.623 2.393v-.005Zm-66.986-.966c.257-.052.327-.202.425-.305 1.133-1.206 2.564-1.651 4.169-1.698.326-.01.401.121.401.422l-.005 3.218c0 .465-.009.46-.462.483-.718.033-1.417.136-2.066.479-1.464.774-2.247 1.998-2.42 3.636-.037.347-.037.699-.037 1.05v10.054c.018.254-.098.352-.345.352a457.23 457.23 0 0 0-3.591 0c-.252 0-.36-.094-.345-.347.01-.131 0-.263 0-.394V35.242c0-.765-.135-.727.741-.732h2.938c.588 0 .588.005.593.624v1.159h.004Z"/><path fill="#51CDFF" d="M36.995 39.944V10.28c0-1.318.014-1.304 1.292-1.27.471.013.611.206.732.623.122.413.117.812.117 1.22l-.005 58.99c0 .38.229.929-.242 1.112-.513.192-1.1.131-1.651.014-.205-.042-.229-.268-.233-.46l-.005-.9V39.943h-.005ZM47.75 38.66c-2.56 0-5.932-2.721-5.703-6.343.224-3.523 3.04-5.99 6.482-5.799 3.143.179 5.703 2.989 5.605 6.268-.102 3.331-2.993 5.991-6.38 5.874h-.004Zm-19.423 7.44a6.09 6.09 0 0 1-6.324-6.023c-.093-3.312 2.686-6.094 5.979-6.118 3.343-.023 6.034 2.571 6.076 5.855.042 3.439-2.518 6.244-5.726 6.282l-.005.005Zm13.734 1.38c.112-3.58 2.467-5.963 6.048-6.08 2.864-.099 6.1 2.627 6.044 5.99-.056 3.402-2.728 6.175-6.095 6.146-3.362-.032-5.96-2.636-5.992-6.051l-.005-.005Zm48.183-5.433c-.07-.075-.07-.164-.033-.253.051.08.103.16.033.253ZM74.867 26.072c-.037.051-.079.056-.121.01.037-.057.075-.067.121-.01Zm-1.18.131c-.037.052-.079.056-.12.01.036-.057.078-.066.12-.01Zm-1.175.127c-.037.052-.08.056-.121.01.037-.057.08-.066.121-.01Zm-1.175.131c-.037.052-.08.056-.121.01.037-.061.079-.066.121-.01Z"/></svg>