<svg xmlns="http://www.w3.org/2000/svg" fill="none" viewBox="0 0 210 80"><path fill="#000" d="M50.236 57c4.595 0 8.985-2.416 8.985-7.862 0-4.152-2.995-5.65-5.65-6.534-3.096-1.021-4.22-1.668-4.22-2.587 0-.68.75-1.26 2.145-1.26 2.314 0 3.88 1.022 5.615 2.077h.545l-.273-6.569c-1.361-.68-3.063-1.43-6.126-1.43-4.594 0-8.678 2.724-8.678 7.352 0 2.927 1.803 5.241 5.343 6.5 3.097 1.124 4.356 1.532 4.356 2.587 0 .92-.885 1.328-2.28 1.328-2.348 0-4.492-1.055-6.058-2.417h-.374L42 54.788C43.94 56.183 46.697 57 50.236 57Zm79.538-34h7.521v34h-7.521V23Zm-12.593 21.714c0-5.82-3.573-11.912-11.639-11.912-6.637 0-12.014 5.173-12.014 11.912C93.528 51.453 99.04 57 106.12 57c3.199 0 5.752-.544 9.223-2.314l.273-6.297h-.885c-2.723 2.349-6.126 2.69-8.305 2.69-3.029 0-5.649-1.532-6.194-4.255h16.915l.034-2.11Zm-16.676-2.62c.646-1.975 2.552-3.438 5.037-3.438 2.28 0 4.084 1.157 4.628 3.437h-9.665ZM119.7 57h7.521V23H119.7v34Zm-49.928 0h1.701l5.752-13.75L82.977 57h1.702l10.278-24.164h-7.522l-4.118 11.163-4.458-11.163h-3.233l-4.527 11.163-4.05-11.163h-7.522L69.773 57Z"/><path fill="url(#a)" d="M145.866 45.735a11.253 11.253 0 0 0 3.298 7.968A11.254 11.254 0 0 0 157.131 57c3.132 0 5.956-1.293 7.998-3.335l-19.263-9.802v1.872Z"/><path fill="url(#b)" d="M145.866 34.267a5.342 5.342 0 0 0 2.927 4.764l19.195 9.768c.273-.987.409-2.008.409-3.029v-.034a5.794 5.794 0 0 0-3.199-5.207l-18.821-9.598a10.99 10.99 0 0 0-.511 3.336Z"/><path fill="url(#c)" d="M168.397 34.265v1.532l-19.025-9.7c2.008-1.94 4.764-3.097 7.759-3.097a11.256 11.256 0 0 1 10.41 6.953c.566 1.367.856 2.833.856 4.312Z"/><defs><linearGradient id="a" x1="12.194" x2="41.14" y1="-26.214" y2="109.844" gradientUnits="userSpaceOnUse"><stop offset=".12" stop-color="#FFD12D"/><stop offset=".38" stop-color="#FCB950"/><stop offset=".63" stop-color="#88D9D6"/><stop offset=".91" stop-color="#00FCF1"/></linearGradient><linearGradient id="b" x1="49.849" x2="68.364" y1="5.326" y2="106.509" gradientUnits="userSpaceOnUse"><stop offset=".12" stop-color="#FFD12D"/><stop offset=".38" stop-color="#FCB950"/><stop offset=".63" stop-color="#88D9D6"/><stop offset=".91" stop-color="#00FCF1"/></linearGradient><linearGradient id="c" x1="153.283" x2="176.242" y1="18.398" y2="60.965" gradientUnits="userSpaceOnUse"><stop offset=".12" stop-color="#FFD12D"/><stop offset=".38" stop-color="#FCB950"/><stop offset=".63" stop-color="#88D9D6"/><stop offset=".91" stop-color="#00FCF1"/></linearGradient></defs></svg>