<svg xmlns="http://www.w3.org/2000/svg" fill="none" viewBox="0 0 210 80"><path fill="#061640" d="M85.582 5 70 20.569V75h54.431L140 59.419V5H85.582Zm12.483 11.732 1.918-1.97v.038h4.654v4.654l-1.931 1.918h-4.641v-4.64Zm-.013 7.687h6.572v20.183h-6.572V24.419Zm-4.589 40.82c-.467.933-1.219 1.737-2.113 2.346-.843.558-1.776.934-2.813 1.167-.985.285-2.061.376-3.098.376-1.646 0-3.28-.272-4.835-.791-1.452-.467-3.332-2.022-3.332-2.022l3.708-3.746c.609.7.803.7 1.646 1.114a6.066 6.066 0 0 0 2.722.661c.558 0 1.128-.142 1.595-.375.181-.091.466-.325.609-.558.142-.285.142-.57.142-.804 0-.324-.09-.557-.285-.842-.142-.233-.415-.428-.7-.519-.985-.415-2.022-.752-3.046-.933-.752-.143-1.413-.376-2.113-.661a6.534 6.534 0 0 1-1.88-1.128 5.82 5.82 0 0 1-1.36-1.685c-.377-.752-.52-1.595-.52-2.437-.038-1.128.195-2.165.804-3.15a6.789 6.789 0 0 1 2.01-2.113c.855-.506 1.737-.933 2.683-1.219.933-.272 1.97-.376 2.956-.376 1.542 0 2.994.286 4.407.752 1.361.428 2.904 1.647 2.904 1.647l-3.513 3.655s-.467-.415-1.18-.79a5.094 5.094 0 0 0-2.294-.52c-.558 0-1.219.092-1.737.377-.182.09-.415.285-.558.518a1.36 1.36 0 0 0-.194.752c0 .285.052.506.194.752.143.233.376.363.61.467.881.376 1.827.648 2.851.842.804.143 1.556.415 2.308.7.752.285 1.452.7 2.113 1.18a5.288 5.288 0 0 1 1.452 1.776c.414.804.557 1.646.557 2.54a5.678 5.678 0 0 1-.7 3.047Zm0-23.554a6.792 6.792 0 0 1-2.113 2.346c-.843.558-1.776.934-2.813 1.18-.985.272-2.061.363-3.098.363-1.646 0-3.28-.272-4.835-.79-1.452-.467-3.332-2.023-3.332-2.023l3.708-3.746c.609.7.803.7 1.646 1.128a6.228 6.228 0 0 0 2.722.648c.558 0 1.128-.143 1.595-.376.181-.09.466-.324.609-.558.142-.285.142-.57.142-.803 0-.324-.09-.558-.285-.843-.142-.233-.415-.415-.7-.518a15.276 15.276 0 0 0-3.046-.934c-.752-.142-1.413-.376-2.113-.66a6.499 6.499 0 0 1-1.88-1.116 6.047 6.047 0 0 1-1.36-1.698c-.377-.752-.52-1.594-.52-2.437-.038-1.128.195-2.152.804-3.137a6.521 6.521 0 0 1 2.01-2.113c.855-.518 1.737-.946 2.683-1.218.933-.286 1.97-.376 2.956-.376 1.542 0 2.994.272 4.407.752 1.361.414 2.904 1.633 2.904 1.633l-3.513 3.655s-.467-.414-1.18-.79a5.094 5.094 0 0 0-2.294-.519c-.558 0-1.219.09-1.737.376-.182.09-.415.285-.558.519a1.36 1.36 0 0 0-.194.752c0 .285.052.518.194.751.143.234.376.376.61.467.881.376 1.827.661 2.851.843.804.142 1.556.427 2.308.7.752.285 1.452.713 2.113 1.18a5.288 5.288 0 0 1 1.452 1.775c.414.804.557 1.646.557 2.54a5.651 5.651 0 0 1-.7 3.047Zm24.293 27.21h-6.339v-1.413c-1.4 1.127-2.58 1.827-5.16 1.827h-.376c-4.316 0-7.83-3.474-7.83-8.244V48.322h6.612v11.796c0 .869.35 1.686.946 2.295a3.25 3.25 0 0 0 2.295.946c.855 0 1.685-.337 2.281-.946.609-.61.959-1.426.959-2.294V48.322h6.612v20.572Z"/></svg>