<svg xmlns="http://www.w3.org/2000/svg" fill="none" viewBox="0 0 210 80"><path fill="#00AFF0" d="M65.57 20.903c-.027-2.782.972-5.114 3.105-6.91 1.672-1.41 3.632-2.064 5.818-1.987 4.577.162 8.21 3.903 8.279 8.42 5.908-2.97 11.315-2.247 16.257 2.169 3.443-4.6 8.039-7.067 13.879-6.804 5.839.26 10.18 3.143 13.227 8.071 3.201-1.727 6.227-1.44 9.034.84 6.982-4.373 13.953-4.39 20.931-.09.513-.375 1.023-.816 1.596-1.154 4.153-2.46 9.629.13 10.375 4.891.514 3.282-1.183 6.329-4.249 7.613-.184.077-.207.165-.175.343.992 5.781-.371 10.942-4.192 15.397-2.656 3.098-6.032 5.067-10.035 5.878-4.855.984-9.398.136-13.598-2.506-.388-.244-.379-.246-.732.047-2.23 1.857-4.78 2.985-7.671 3.308a15.68 15.68 0 0 1-1.831.092c-.6-.004-1.201-.071-1.791-.11-1.254 4.308-4.01 7.006-8.559 7.417-4.051.366-7.08-1.493-9.19-4.957l-.09.216c-1.663 4.078-4.658 6.453-9.058 6.868-4.671.44-9.01-2.371-10.67-6.774-.054-.146-.114-.206-.285-.204-3.68.037-6.931-1.14-9.778-3.457a14.785 14.785 0 0 1-2.46-2.574c-.039-.052-.084-.101-.127-.15l-1.459.901c-3.294 1.895-6.846 2.71-10.633 2.463-8.154-.527-15.09-6.403-16.968-14.347a18.702 18.702 0 0 1-.449-5.842.44.44 0 0 0-.148-.4c-1.517-1.46-2.488-3.227-2.8-5.31-.474-3.191.42-5.98 2.719-8.253 2.076-2.052 4.622-2.908 7.526-2.673a8.844 8.844 0 0 1 3.376.984.414.414 0 0 0 .402.01 18.494 18.494 0 0 1 9.496-1.525l.924.1h.003Zm5.476 21.62c-.511-1.162-1.303-2.057-2.319-2.769-1.198-.837-2.532-1.387-3.933-1.755-1.763-.462-3.546-.854-5.319-1.282-.717-.173-1.442-.342-2.054-.787a1.678 1.678 0 0 1 .113-2.825 2.95 2.95 0 0 1 .668-.308c1.243-.381 2.507-.413 3.778-.177 1.09.201 1.967.796 2.776 1.523.378.34.759.69 1.19.955 1.02.626 2.083.63 3.072-.045.993-.677 1.322-1.695 1.17-2.857-.117-.9-.66-1.566-1.331-2.133-.849-.715-1.83-1.194-2.875-1.55a17.803 17.803 0 0 0-7.556-.876c-1.63.158-3.192.558-4.643 1.333-1.369.73-2.47 1.733-3.135 3.162-.594 1.273-.695 2.611-.524 3.984.2 1.628.923 2.966 2.24 3.963 1.2.909 2.585 1.414 4.023 1.784l5.36 1.329c.723.182 1.455.35 2.1.749.66.405.964 1.093.834 1.853-.139.805-.662 1.305-1.36 1.633-1.36.642-2.781.633-4.214.32-1.256-.276-2.247-1.005-3.139-1.897a28.18 28.18 0 0 0-1.323-1.269c-.628-.552-1.365-.794-2.21-.734-1.048.073-1.885.68-2.208 1.68-.424 1.316-.08 2.478.783 3.51.965 1.152 2.232 1.867 3.606 2.404 2.454.96 5.01 1.284 7.627 1.112 1.717-.115 3.37-.528 4.905-1.326 1.773-.922 3.128-2.234 3.819-4.153.01-.024.03-.045.079-.114v.36c.011.832-.012 1.666.043 2.495.094 1.435 1.029 2.464 2.444 2.694a5.99 5.99 0 0 0 1.444.045c1.333-.112 2.3-.94 2.606-2.213.086-.359.122-.738.124-1.11l.01-4.815c0-.094.016-.22.076-.274l2.244-1.986.161.212 1.737 2.453 4.558 6.417c1.288 1.77 3.948 1.837 5.281.17.98-1.227.978-2.935-.017-4.276l-4.672-6.272-2.2-2.953 5.462-5.717.637 1.86 6.792 19.346c.034.097.07.223.04.313-.126.368-.246.744-.426 1.085-.299.57-.793.871-1.442.894-.526.019-1.055.011-1.58.045-1.878.124-2.99 1.67-2.475 3.454.307 1.072 1.096 1.662 2.112 1.99 1.006.325 2.04.322 3.079.213 1.693-.179 3.095-.905 4.175-2.23.963-1.182 1.592-2.546 2.097-3.966l7.605-21.513.094-.248.047.011v24.403c0 .229 0 .458.013.687.077 1.397.887 2.458 2.188 2.766.503.12 1.045.148 1.565.122 1.405-.072 2.424-.885 2.747-2.174.101-.408.133-.84.135-1.26l.008-8.486c0-.092.015-.182.024-.286.058.025.079.027.088.038.03.041.057.085.083.128.807 1.308 1.951 2.202 3.392 2.716 1.429.51 2.905.59 4.399.42 2.264-.255 4.2-1.18 5.753-2.86 1.395-1.508 2.221-3.314 2.716-5.287l.145-.584.06.195c1.121 4.074 3.678 6.766 7.739 7.983 2.117.635 4.288.77 6.482.51 1.825-.213 3.586-.666 5.24-1.484 1.07-.53 2.048-1.189 2.722-2.2.575-.86.87-1.801.522-2.824-.576-1.692-2.574-2.39-4.096-1.427-.47.298-.883.689-1.309 1.051-.557.477-1.134.922-1.811 1.215-1.365.593-2.798.706-4.247.495-2.292-.334-3.909-1.55-4.679-3.782-.242-.703-.339-1.43-.336-2.199h.349l14.481-.004c.449 0 .901-.02 1.346-.075.804-.097 1.416-.467 1.641-1.3.058-.213.101-.43.122-.65a9.977 9.977 0 0 0-1.036-5.456c-1.613-3.218-4.266-5.116-7.726-5.939-1.84-.437-3.704-.46-5.57-.195-1.803.256-3.5.826-5.03 1.834-2.337 1.54-3.802 3.712-4.599 6.365l-.224.79c-.12-.486-.218-.935-.343-1.374-.577-2.022-1.519-3.843-3.108-5.255-2.63-2.34-5.716-2.983-9.098-2.226-2.129.476-3.706 1.708-4.575 3.758-.02.047-.058.088-.131.194l-.015-.336c-.015-.476-.01-.952-.051-1.425-.107-1.215-.798-2.054-1.922-2.357a4.232 4.232 0 0 0-1.619-.093c-.972.114-1.719.546-2.138 1.464-.006.011-.028.015-.056.03-.596-.926-1.459-1.412-2.548-1.511-.92-.083-1.759.107-2.441.775-.621.61-.933 1.386-1.154 2.206l-3.98 14.788c-.027.098-.064.192-.096.288a.562.562 0 0 1-.147-.265l-2.908-10.546-1.383-4.948c-.442-1.43-1.502-2.163-2.965-2.296-1.35-.124-2.422.38-3.163 1.535-.03.045-.06.088-.092.13l-.203-.291c-1.117-1.557-3.062-1.842-4.558-.652a6.99 6.99 0 0 0-.823.796l-6.976 7.746c-.049.055-.077.124-.117.186l-.073-.052v-.272l-.002-14.627c0-.297-.017-.594-.052-.888-.154-1.247-.937-2.18-2.144-2.467a5.638 5.638 0 0 0-1.54-.126c-1.395.058-2.431.854-2.763 2.121-.115.438-.16.905-.16 1.36l-.007 20.156v.302l-.002.005ZM160.72 28.02V32.2h.849v-2.795c.327.785.605 1.573.882 2.364.16.454.16.445.644.456.181.004.246-.064.301-.224l.841-2.425c.022-.066.052-.128.081-.192l.043.01V32.2h.843v-4.18c-.348 0-.678.013-1.007-.006-.202-.012-.3.05-.36.251-.178.601-.377 1.196-.569 1.793l-.276.838c-.037-.094-.06-.141-.075-.188l-.86-2.5c-.026-.076-.122-.177-.188-.181-.371-.017-.745-.008-1.147-.008l-.002-.001Zm-3.914.013v.777h1.239V32.2h.926v-3.407h1.235v-.764h-3.4v.002Zm-39.413 11.833c.027-1.43.213-2.948.907-4.36.746-1.518 1.915-2.5 3.629-2.705 2.39-.287 4.232.757 5.253 2.948.729 1.562.913 3.22.834 4.919-.058 1.22-.261 2.41-.736 3.544-.52 1.24-1.299 2.259-2.574 2.788-2.007.834-5.039.586-6.46-2.6-.548-1.23-.845-2.73-.849-4.532l-.004-.002Zm23.273-2.392c.706-3.42 2.996-5.39 6.282-5.266 2.731.103 4.81 2.12 5.313 4.85.024.13.039.266.062.416h-11.657Z"/></svg>