<svg xmlns="http://www.w3.org/2000/svg" fill="none" viewBox="0 0 210 80"><path fill="#000" d="M159.3 64H50V16h109.3v48ZM53.284 60.716h102.732V19.284H53.284v41.432Z"/><path fill="#000" d="M74.345 49.671c-2.244 0-4.4-.886-5.966-2.485a8.43 8.43 0 0 1-2.43-6.01c0-5.385 4.51-8.548 8.56-8.548 2.89 0 5.594 1.083 7.05 3.623l-2.704 1.576a5.086 5.086 0 0 0-4.291-2.288c-2.376 0-5.21 1.872-5.21 5.583 0 3.71 2.703 5.605 5.429 5.605a5.025 5.025 0 0 0 4.411-2.715l2.77 1.291c-1.555 2.836-4.357 4.346-7.608 4.346l-.011.022Zm17.602-3.065c3.087 0 5.21-2.32 5.21-5.44 0-3.12-2.123-5.44-5.21-5.44-3.087 0-5.288 2.287-5.288 5.385s2.124 5.495 5.288 5.495Zm-.329 3.065c-4.882 0-8.363-3.71-8.363-8.516s3.448-8.517 8.363-8.517c2.255 0 4.434.953 5.473 2.42v-1.992h3.339v16.156h-3.339V47.22c-1.094 1.456-3.218 2.452-5.473 2.452Zm25.702-.46V36.174h-2.572v-3.229h2.605v-4.773h3.448v4.773h3.569v3.23h-3.569V49.2h-3.481v.01Zm16.902-2.605c3.087 0 5.21-2.32 5.21-5.44 0-3.12-2.123-5.44-5.21-5.44-3.087 0-5.276 2.287-5.276 5.385s2.123 5.495 5.276 5.495Zm-.329 3.065c-4.893 0-8.363-3.71-8.363-8.516s3.448-8.517 8.363-8.517c2.255 0 4.434.953 5.473 2.42v-1.992h3.35v16.156h-3.35V47.22c-1.094 1.456-3.218 2.452-5.473 2.452Zm-30.015-.481V33.032h3.186v2.802c.656-1.817 2.047-3.065 3.897-3.065.405 0 .799.033 1.193.131v3.12c-2.595-.296-4.795 1.521-4.795 5.681v7.477h-3.481v.01Z"/></svg>