<svg xmlns="http://www.w3.org/2000/svg" fill="none" viewBox="0 0 210 80"><g clip-path="url(#a)"><path fill="#000" d="m79.332 79.46-2.496-3.812c.742-.202 1.316-.573 1.72-1.147.405-.573.608-1.282.608-2.125v-.64c0-1.114-.338-1.991-1.012-2.598-.675-.608-1.62-.911-2.8-.911h-3.913a.544.544 0 0 0-.304.101.428.428 0 0 0-.135.304v10.794c0 .135.034.237.135.304a.428.428 0 0 0 .303.135h.911a.412.412 0 0 0 .304-.135.428.428 0 0 0 .135-.303v-3.509h2.26l2.294 3.576c.169.236.371.371.64.371h1.215c.102 0 .169-.034.203-.135-.034-.101-.034-.202-.068-.27Zm-6.612-5.026V69.71h2.598c1.383 0 2.091.742 2.091 2.26v.236c0 1.519-.708 2.26-2.091 2.26l-2.598-.033Zm14.607-3.205c-.64-.607-1.518-.91-2.665-.91s-1.99.303-2.665.91c-.64.607-.978 1.45-.978 2.53v2.766c0 1.08.337 1.89.978 2.53.641.608 1.518.911 2.665.911s1.99-.303 2.665-.91c.641-.608.978-1.451.978-2.53v-2.767c0-1.046-.303-1.889-.978-2.53Zm-.674 5.128c0 .742-.17 1.315-.507 1.686-.337.371-.843.574-1.484.574-.64 0-1.113-.203-1.45-.574-.338-.404-.506-.944-.506-1.686v-2.362c0-.742.168-1.282.506-1.686.337-.405.843-.574 1.45-.574.641 0 1.147.203 1.484.574.338.37.507.944.507 1.686v2.362Zm10.93.674c0 .844-.338 1.552-.979 2.126-.64.573-1.518.843-2.631.843-1.113 0-1.99-.304-2.665-.91-.641-.608-.979-1.451-.979-2.53v-2.767c0-1.08.338-1.89.979-2.53.64-.607 1.518-.91 2.665-.91s1.99.269 2.631.809c.641.54.945 1.248.945 2.125 0 .135-.034.236-.102.304-.067.067-.168.1-.303.1H96.3c-.27 0-.404-.134-.404-.404a1.46 1.46 0 0 0-.506-1.147c-.338-.304-.81-.439-1.45-.439-.642 0-1.114.203-1.451.574-.338.371-.507.944-.507 1.687v2.361c0 .742.17 1.282.507 1.687.337.37.843.573 1.45.573.641 0 1.113-.135 1.45-.438a1.44 1.44 0 0 0 .507-1.114c0-.27.135-.404.404-.404h.844c.135 0 .236.033.303.1a.412.412 0 0 1 .135.304Zm3.373 2.767h-.81c-.135 0-.236-.034-.303-.102-.068-.067-.102-.168-.102-.303V67.755c0-.135.034-.236.102-.304.067-.067.168-.101.303-.101h.81c.101 0 .202.034.303.101a.426.426 0 0 1 .135.304v6.78h.641l2.8-3.71c.203-.237.405-.338.675-.338h1.079c.101 0 .169.034.203.101.019.033.026.07.02.108a.156.156 0 0 1-.054.095l-3.441 4.419 3.61 4.25a.156.156 0 0 1 .033.202.184.184 0 0 1-.168.102h-1.147c-.304 0-.506-.101-.709-.304l-2.901-3.44h-.641v3.373c0 .135-.033.236-.135.303-.101.102-.202.135-.303.102Zm8.433 0h-.809c-.135 0-.237-.034-.304-.102-.067-.067-.101-.168-.101-.303v-8.467c0-.135.034-.237.101-.304s.169-.101.304-.101h.607c.27 0 .438.135.472.405l.034.54c.708-.743 1.484-1.114 2.294-1.114 1.214 0 2.057.439 2.496 1.316.742-.877 1.586-1.316 2.496-1.316 1.012 0 1.755.27 2.193.776.439.506.641 1.316.641 2.361v5.904c0 .135-.034.236-.135.303-.067.068-.169.102-.304.102h-.809c-.135 0-.236-.034-.304-.102-.067-.067-.101-.168-.101-.303v-5.701c0-.709-.101-1.215-.304-1.518-.202-.304-.607-.439-1.18-.439-.675 0-1.316.371-1.923 1.08l.067.843v5.735a.41.41 0 0 1-.135.303.425.425 0 0 1-.303.135h-.81a.542.542 0 0 1-.303-.1.425.425 0 0 1-.135-.304v-5.634c0-.708-.102-1.248-.304-1.586-.202-.337-.607-.505-1.181-.505-.708 0-1.383.37-1.956 1.113v6.51c0 .135-.034.236-.135.304.034.135-.034.169-.169.169Zm19.431-4.285a.414.414 0 0 0 .304-.135c.101-.1.134-.168.134-.303v-1.282c0-1.08-.337-1.923-.978-2.53-.641-.607-1.518-.91-2.665-.91s-1.99.303-2.665.91c-.641.607-.978 1.45-.978 2.53v2.766c0 1.08.337 1.89.978 2.53.641.607 1.518.911 2.665.911 1.08 0 1.957-.304 2.598-.877.641-.574.978-1.248.978-1.957 0-.27-.135-.404-.371-.404h-.877c-.27 0-.371.135-.371.37 0 .372-.169.709-.506 1.013-.338.303-.81.472-1.451.472-1.315 0-1.99-.742-1.99-2.193v-.91h5.195Zm-5.195-1.585c0-.742.169-1.282.506-1.653.337-.371.843-.574 1.484-.574s1.147.203 1.485.574c.337.371.506.944.506 1.653v.337h-3.947l-.034-.337Zm8.939 5.87h-.809c-.135 0-.236-.034-.304-.102-.067-.067-.101-.168-.101-.303V67.755c0-.135.034-.236.101-.304.068-.067.169-.101.304-.101h.809c.102 0 .203.034.304.101.101.068.135.169.135.304v11.638c0 .135-.034.236-.135.303-.067.068-.169.102-.304.102Zm5.904.202c-2.125 0-3.171-1.08-3.171-3.205v-4.992h-.574c-.135 0-.236-.034-.303-.135a.425.425 0 0 1-.135-.304v-.506c0-.101.034-.202.135-.303a.425.425 0 0 1 .303-.135h.608l.135-1.923c0-.102.067-.203.134-.304.068-.101.169-.135.304-.135h.607c.101 0 .203.034.304.101.101.068.135.17.135.304v1.923h2.26c.135 0 .236.034.304.135a.43.43 0 0 1 .135.303v.506a.413.413 0 0 1-.135.304.505.505 0 0 1-.304.135h-2.26v4.891c0 .641.135 1.147.405 1.45.269.305.708.473 1.282.473.303 0 .607-.034.877-.067a.26.26 0 0 1 .269.067.381.381 0 0 1 .102.27v.506a.413.413 0 0 1-.135.304c-.101.1-.203.168-.304.168a2.831 2.831 0 0 1-.978.169Z"/><path fill="#FF4B02" d="M131.114 14.253v14.539l-7.388 4.318-3.879 2.226-1.485.844-10.761 6.072-2.159 1.214V42.42l.203-13.797 6.241-3.474 19.228-10.829v-.067Zm-38.457-7.49-13.021 7.692v40.92c0 1.315 1.45 2.124 2.564 1.45l9.648-5.904a1.67 1.67 0 0 0 .81-1.45V21.404l10.052-5.802"/><path fill="#FF6013" d="M131.114 43.365v12.212c0 1.012-1.113 1.686-2.024 1.18l-18.588-10.39-5.093-2.833 14.606-6.342 1.181.674 9.918 5.499ZM92.657 6.764l1.046-.641L102.98.658a4.687 4.687 0 0 1 4.79 0l23.31 13.628-12.785 7.186-12.954-7.422"/><path fill="#7A2301" d="m105.409 14.084-2.699 1.518-10.053-8.838 12.752 7.32Zm12.953 22.096-10.761 6.072-2.159 1.214 14.607-6.308-1.687-.978Z"/></g><defs><clipPath id="a"><path fill="#fff" d="M0 0h210v80H0z"/></clipPath></defs></svg>