<svg xmlns="http://www.w3.org/2000/svg" fill="none" viewBox="0 0 210 80"><g clip-path="url(#a)"><path fill="#FAB041" d="M156.631 26.723c-.503-.1-1.023 0-1.526-.017-.889-.05-.889-.033-.889-.905l.017-9.874v-.989c-.016-.302.118-.402.403-.402.637.017 1.274 0 1.961 0l.034 12.187ZM94.854 45.365V32.557c0-.536 0-.553.537-.553h1.877c.319 0 .453.1.453.436v13.076c0 .268-.084.386-.369.369a40.154 40.154 0 0 0-2.011 0c-.37.017-.537-.084-.487-.52Zm25.365-18.424-.017 11.232c0 .637-.017.654-.637.654h-1.794c-.302 0-.436-.117-.436-.436V25.365c0-.352.101-.469.47-.469.637.017 1.274.017 1.928-.017.352-.017.486.118.469.47l.017 1.592Z"/><path fill="#ED3423" d="m107.897 47.88-.017-7.26c0-.351.084-.468.453-.468.838.033 1.676.016 2.514.016.269 0 .336.084.336.352v15.256c0 .335-.084.47-.453.47a36.355 36.355 0 0 0-2.347.016c-.419.017-.503-.134-.503-.52l.017-7.862ZM139.43 32.574l-.016-10.897c0-.352.084-.52.469-.503.671.034 1.341.017 2.012 0 .285 0 .402.067.402.386v12.858c0 .302-.084.436-.402.436-.704-.017-1.425 0-2.129 0-.268 0-.352-.117-.336-.369v-1.911Z"/><path fill="#8CC431" d="m127.729 24.795-.034-8.164c0-.436.135-.57.57-.553.705.034 1.392.034 2.096.017.319 0 .453.084.453.436l-.017 15.205c0 .352-.101.47-.47.47-.704-.018-1.424-.034-2.129.016-.402.017-.486-.134-.486-.486l.017-6.94ZM100.152 17.1v-1.76c0-.251.084-.352.352-.352.637.017 1.274.017 1.928.017.302 0 .385.117.385.402l-.016 11.199c0 .385-.118.536-.52.503a13.166 13.166 0 0 0-1.626 0c-.436.033-.486-.185-.486-.537l-.017-9.471Z"/><path fill="#57BDEA" d="m128.584 39.581.017 13.077c0 .385-.118.536-.503.52l-2.314-.017c-.352 0-.452-.151-.452-.487l-.017-15.205c0-.302.101-.402.386-.402.821.017 1.659.017 2.481 0 .301 0 .419.1.419.419-.034.687-.017 1.375-.017 2.096ZM137.637 4.192l.016 7.729c0 .301-.083.452-.402.452a26.392 26.392 0 0 0-1.626 0c-.285 0-.402-.084-.402-.385V.42c0-.318.117-.419.435-.419h1.543c.369-.017.469.151.452.486l-.016 3.705Z"/><path fill="#000" d="M67.043 65.566a4.505 4.505 0 0 0-1.962-1.308c-.754-.251-1.81-.385-3.152-.385H54V79.95h3.738V66.807h3.79c1.14 0 1.944.251 2.43.754.47.503.704 1.375.704 2.598v9.774h3.722v-9.707c.016-2.095-.436-3.67-1.341-4.66Zm6.923-1.676h3.722v16.076h-3.722V63.89Zm17 2.933h5.18V63.89h-5.55c-1.492 0-2.682.15-3.57.436-.889.284-1.677.77-2.381 1.458-1.509 1.509-2.263 3.621-2.263 6.303 0 1.19.184 2.297.536 3.303.37 1.006.855 1.877 1.492 2.582a5.784 5.784 0 0 0 2.414 1.559c.94.301 2.197.469 3.772.469h5.55v-2.934H91.2c-.922 0-1.643-.067-2.146-.2a3.633 3.633 0 0 1-1.324-.655c-1.04-.838-1.56-2.23-1.56-4.157 0-1.928.37-3.202 1.107-3.99.754-.838 1.978-1.24 3.688-1.24Zm9.974-2.933h3.721v16.076h-3.721V63.89Zm9.539 6.202v9.874h3.721V70.01a3.113 3.113 0 0 1 3.118-3.119h2.75a.374.374 0 0 0 .369-.368v-2.264a.373.373 0 0 0-.369-.368h-3.387a6.21 6.21 0 0 0-6.202 6.202Zm29.672-2.732a4.322 4.322 0 0 0-.955-1.844 4.548 4.548 0 0 0-.855-.771 4.24 4.24 0 0 0-1.107-.503 10.392 10.392 0 0 0-1.542-.269 25.418 25.418 0 0 0-2.146-.083h-7.896v2.933h7.527c.922 0 1.593.067 2.029.202.436.134.771.368 1.006.72.201.285.318.587.385.889.051.302.084.821.084 1.509h-5.582c-1.811 0-3.068.184-3.789.536-.771.352-1.375.922-1.827 1.71-.453.788-.671 1.71-.671 2.733 0 1.676.587 2.967 1.744 3.855.268.202.536.352.804.47.268.117.604.218.973.302a7.47 7.47 0 0 0 1.391.15l2.045.034h8.651V70.26c0-1.24-.084-2.213-.269-2.9Zm-3.47 9.673h-5.264c-1.022 0-1.743-.151-2.179-.436-.436-.285-.637-.788-.637-1.492 0-.922.352-1.526 1.056-1.81.201-.085.419-.152.654-.168.234-.017.603-.034 1.106-.034h5.264v3.94Z"/></g><defs><clipPath id="a"><path fill="#fff" d="M0 0h210v80H0z"/></clipPath></defs></svg>