<svg xmlns="http://www.w3.org/2000/svg" fill="none" viewBox="0 0 210 80"><path fill="#000" d="M81.204 39.873c0-6.338 4.208-10.167 9.367-10.167 4.758 0 7.82 2.637 8.576 7.044l-4.128.729c-.47-2.337-1.914-3.944-4.414-3.944-3.244 0-5.148 2.313-5.148 6.338s1.961 6.222 5.148 6.222c2.569 0 3.944-1.353 4.472-3.909l4.104.821c-.733 4.291-3.737 6.928-8.61 6.928-5.366 0-9.367-3.724-9.367-10.05v-.012Zm29.947-9.843h-4.655L99.434 49.6h4.288l1.284-3.828h7.406l1.284 3.828h4.472l-7.017-19.57Zm-4.884 11.994 2.293-6.94h.264l2.327 6.94h-4.884Zm21.99-11.994h-8.702V49.6h4.047v-7.148h4.609c4.105 0 6.558-2.58 6.558-6.246 0-3.666-2.453-6.176-6.512-6.176Zm-.332 8.675h-4.323v-4.916h4.369c1.628 0 2.614.867 2.614 2.475s-1.021 2.44-2.66 2.44Zm9.046-8.675h4.058V49.6h-4.058V30.03Zm12.222 3.759h-6.123v-3.76h16.315v3.76h-6.145V49.6h-4.047V33.789Zm18.654-3.76h-4.655L156.129 49.6h4.288l1.284-3.828h7.395l1.284 3.828h4.472l-7.005-19.57Zm-4.896 11.995 2.305-6.94h.263l2.328 6.94h-4.896Zm13.288-11.994h4.059v15.822H189V49.6h-12.761V30.03ZM21 16v48h47.58V16H21Zm23.79 37.88c-7.601 0-13.758-6.212-13.758-13.88 0-7.668 6.157-13.88 13.758-13.88 7.602 0 13.759 6.212 13.759 13.88 0 7.668-6.157 13.88-13.759 13.88Z"/></svg>