<svg xmlns="http://www.w3.org/2000/svg" fill="none" viewBox="0 0 210 80"><path fill="#6AEAFC" d="m184.227 39.029-13.721 8.727 4.735-17.454 8.986 8.727Zm11.395 0L181.9 47.756l4.735-17.454 8.987 8.727Z"/><path fill="#000" d="m34.882 47.765 6.23-23.282h15.029l-.985 3.652H44.03l-1.54 5.738h9.193l-.976 3.652h-9.192l-1.763 6.58h11.134l-.984 3.66h-15.02Zm37.469-15.664c-.314-.672-.833-1.218-1.558-1.647-.725-.43-1.736-.645-3.025-.645-1.638 0-3.115.358-4.422 1.083a10.2 10.2 0 0 0-1.933 1.37l.519-1.951h-3.473l-4.673 17.454h3.939l2.399-8.978c.286-1.065.635-1.933 1.056-2.614.42-.689.877-1.226 1.37-1.62a4.632 4.632 0 0 1 1.548-.841 5.237 5.237 0 0 1 1.53-.242c.922 0 1.603.197 2.041.6.439.403.716.913.815 1.54.116.617.125 1.253.018 1.924-.108.671-.233 1.28-.376 1.826l-2.247 8.405h3.938l2.614-9.748c.117-.42.224-.966.322-1.629.117-.68.162-1.396.126-2.148a5.574 5.574 0 0 0-.528-2.13v-.01Zm18.295-1.8-.34 1.272a4.941 4.941 0 0 0-.52-.546c-.903-.806-2.183-1.209-3.84-1.209a9.244 9.244 0 0 0-4.618 1.209c-1.432.796-2.667 1.897-3.705 3.285-1.03 1.378-1.782 2.954-2.256 4.717-.465 1.745-.555 3.312-.269 4.708.287 1.387.913 2.488 1.898 3.294.976.806 2.265 1.217 3.876 1.217 1.7 0 3.231-.411 4.6-1.217.09-.054.17-.116.26-.17l-.456 1.674c-.197.832-.546 1.522-1.048 2.068a4.66 4.66 0 0 1-1.808 1.262 5.923 5.923 0 0 1-2.282.438c-.69 0-1.298-.16-1.826-.465-.528-.305-.868-.779-1.03-1.415l-4.063 1.782a4.705 4.705 0 0 0 1.2 2.04 5.597 5.597 0 0 0 2.04 1.307c.806.305 1.7.448 2.667.448 1.316 0 2.56-.17 3.733-.528a9.529 9.529 0 0 0 3.169-1.638c.921-.716 1.664-1.647 2.228-2.775.188-.385.358-.788.493-1.2.152-.393.286-.814.402-1.262l4.905-18.296h-3.41ZM88.31 39.03c-.304 1.137-.725 2.13-1.253 2.99-.52.868-1.173 1.539-1.942 2.022-.77.475-1.674.717-2.713.717-1.038 0-1.78-.26-2.3-.761-.52-.51-.832-1.19-.922-2.06-.08-.867.027-1.843.313-2.908a9.894 9.894 0 0 1 1.254-2.873c.554-.878 1.244-1.567 2.058-2.068.815-.52 1.746-.779 2.784-.779 1.038 0 1.736.242 2.229.725.5.474.778 1.146.841 2.005.072.85-.045 1.853-.35 2.99Zm5.567 8.736 6.23-23.282h14.008l-1.047 3.894h-10.114l-1.549 5.81h8.172l-1.038 3.875h-8.172l-2.596 9.703h-3.894Zm17.231 0L117.472 24h3.893l-6.364 23.765h-3.893Zm27.703-13.498c-.349-1.397-1.066-2.48-2.158-3.267-1.092-.788-2.515-1.182-4.269-1.182s-3.33.385-4.834 1.164a12.015 12.015 0 0 0-3.92 3.231c-1.101 1.379-1.898 2.99-2.39 4.816-.483 1.799-.555 3.401-.215 4.789.349 1.378 1.074 2.461 2.166 3.249 1.092.788 2.516 1.181 4.261 1.181s3.365-.393 4.878-1.163a11.926 11.926 0 0 0 3.903-3.25c1.11-1.396 1.906-2.99 2.39-4.806.483-1.8.546-3.384.188-4.762Zm-4.306 4.762c-.438 1.638-1.172 2.98-2.211 4.01-1.029 1.038-2.318 1.557-3.866 1.557-1.549 0-2.498-.5-3.008-1.503-.492-1.02-.51-2.372-.063-4.064.296-1.101.717-2.059 1.263-2.891.546-.842 1.217-1.495 2.005-1.952.805-.474 1.736-.716 2.774-.716 1.531 0 2.542.51 3.035 1.522.501 1.002.519 2.345.071 4.037Zm9.945-8.728h3.893l-2.846 10.75s-1.271 3.6 2.148 3.67c3.419.081 4.413-3.67 4.413-3.67l2.909-10.75h3.849l-2.847 10.75s-1.002 3.608 2.462 3.608c3.464 0 4.09-3.607 4.09-3.607l2.909-10.75h3.894l-3.401 12.737s-1.513 5.11-8.602 5.11c-3.267 0-4.458-2.747-4.458-2.747s-2.568 2.712-6.032 2.712c-6.803 0-5.693-5.487-5.693-5.487l3.312-12.326Z"/><path fill="#6AEAFC" d="M32.68 33.873h-9.192l-.976 3.652h9.193l.975-3.652Zm2.578-9.39H20.23l-.976 3.652H34.3l.958-3.652Zm-5.254 19.621h-15.01L14 47.756h14.957l1.038-3.652h.01Z"/></svg>