<svg xmlns="http://www.w3.org/2000/svg" fill="none" viewBox="0 0 210 80"><path fill="#000" d="M74.229 25H38.997a.991.991 0 0 0-.992.977v27.907c-.054.55.356 1.046.907 1.093h10.744a.988.988 0 0 0 .977-.977V32c0-.201.162-.364.364-.372h2.21a.37.37 0 0 1 .364.372v22.023c0 .543.45.985.992.977h7.573a.985.985 0 0 0 .961-.977V32c0-.201.163-.364.365-.372h2.224c.202 0 .365.17.373.372v22.023c0 .535.442.97.976.977h10.698a.988.988 0 0 0 .977-.977V29.915c.07-2.93-1.714-4.915-4.481-4.915Zm96.626 0h-10.682a.981.981 0 0 0-.945.977V48a.37.37 0 0 1-.365.364h-2.201a.375.375 0 0 1-.372-.364V25.977a.978.978 0 0 0-.977-.977h-10.729a.994.994 0 0 0-1.015.97v9.89a.91.91 0 0 0 0 .295l2.992 15.566c.365 1.907 1.171 3.279 3.031 3.279h16.279c1.86 0 2.667-1.372 3.031-3.28l2.992-15.565a.91.91 0 0 0 0-.294V26.1a1.078 1.078 0 0 0-1.046-1.1h.007Zm-65.549 0H86.097c-2.79 0-4.55 1.954-4.55 4.915V50.07c0 2.96 1.76 4.922 4.55 4.922h19.209c2.791 0 4.55-1.961 4.55-4.922V29.915c0-2.93-1.79-4.915-4.55-4.915Zm-8.093 23.023a.376.376 0 0 1-.364.372h-2.202a.383.383 0 0 1-.372-.372V32c0-.201.17-.364.372-.372h2.202a.37.37 0 0 1 .364.372v16.023ZM136.406 25h-19.209c-2.79 0-4.55 1.954-4.55 4.915V50.07c0 2.96 1.76 4.922 4.55 4.922h19.209c2.791 0 4.558-1.961 4.558-4.922V29.915c0-2.93-1.767-4.915-4.558-4.915Zm-8.124 23.023a.375.375 0 0 1-.364.372h-2.201a.37.37 0 0 1-.365-.372V32c0-.201.163-.364.365-.372h2.201a.37.37 0 0 1 .364.372v16.023Z"/></svg>