<svg xmlns="http://www.w3.org/2000/svg" fill="none" viewBox="0 0 210 80"><path fill="#5EDBE5" d="M52.55 40.035c0-2.605-.735-5.15-2.13-7.35a13.581 13.581 0 0 0-13.253-6.198 13.535 13.535 0 0 0-6.968 3.095l-2.14-2.14a16.56 16.56 0 0 1 11.908-4.05 16.56 16.56 0 0 1 11.323 5.496l1.742-1.573a18.94 18.94 0 0 0-6.148-4.55 18.935 18.935 0 0 0-7.442-1.758 18.89 18.89 0 0 0-7.518 1.344 18.95 18.95 0 0 0-6.376 4.22l-.83.829 3.815 3.83a13.713 13.713 0 0 0-3.188 9.38 13.706 13.706 0 0 0 3.966 9.074 13.607 13.607 0 0 0 9.032 3.991c3.4.144 6.732-.997 9.336-3.196l2.131 2.148a16.602 16.602 0 0 1-11.898 4.05 16.575 16.575 0 0 1-11.316-5.48l-1.742 1.574a18.796 18.796 0 0 0 6.148 4.54 18.84 18.84 0 0 0 7.434 1.743c2.57.068 5.125-.389 7.51-1.345a18.953 18.953 0 0 0 6.376-4.22l.829-.828-3.814-3.831a13.588 13.588 0 0 0 3.197-8.787l.017-.008ZM38.944 51.35c-2.224 0-4.406-.66-6.258-1.903a11.335 11.335 0 0 1-4.152-5.074 11.37 11.37 0 0 1-.643-6.537 11.247 11.247 0 0 1 3.087-5.793 11.218 11.218 0 0 1 5.768-3.095 11.228 11.228 0 0 1 6.511.642 11.317 11.317 0 0 1 5.058 4.17 11.374 11.374 0 0 1 1.894 6.283c0 3.002-1.192 5.877-3.307 8a11.227 11.227 0 0 1-7.958 3.315v-.008Zm16.22-21.142-2.004 1.217a16.754 16.754 0 0 1 2.385 8.61c0 3.036-.82 6.012-2.385 8.609l2.005 1.217a19.159 19.159 0 0 0 2.723-9.826c0-3.46-.939-6.859-2.723-9.827Zm-32.44 0A19.159 19.159 0 0 0 20 40.035c0 3.458.939 6.858 2.723 9.826l2.004-1.217a16.754 16.754 0 0 1-2.384-8.61c0-3.035.82-6.012 2.384-8.609l-2.004-1.217Z"/><path fill="#000" d="M73.38 43.197c.059 3.628 2.182 5.446 6.368 5.446 1.987 0 3.391-.313 4.203-.947.829-.65 1.252-1.598 1.252-2.85 0-1.057-.297-1.877-.88-2.444-.592-.575-1.522-.972-2.8-1.192l-4.786-.736c-1.75-.262-3.044-.837-3.898-1.717-.83-.88-1.252-2.08-1.252-3.61 0-1.125.287-2.123.854-3.003.567-.896 1.43-1.598 2.588-2.114 1.159-.508 2.58-.761 4.262-.761 2.563 0 4.533.592 5.912 1.776 1.378 1.184 2.14 2.799 2.283 4.837H85.05c-.144-1.446-.693-2.58-1.649-3.4-.93-.811-2.317-1.226-4.144-1.226-1.725 0-3.019.347-3.873 1.04-.829.677-1.252 1.599-1.252 2.783 0 1.818 1.015 2.883 3.045 3.213l5.057.761c1.852.305 3.23.897 4.144 1.776.913.854 1.37 2.08 1.37 3.67 0 4.077-2.672 6.123-8.009 6.123-3.086 0-5.328-.685-6.731-2.046-1.404-1.387-2.106-3.18-2.106-5.387h2.47l.008.008Zm31.468-8.321L97.685 52.72c-.364.938-.702 1.64-1.007 2.114a2.68 2.68 0 0 1-1.192 1.1c-.507.245-1.21.363-2.106.363h-2.892V54.31h4.237l1.674-4.136h-.854l-6.03-15.298h2.563l4.66 11.78.516 1.472.456-1.472 4.719-11.78h2.419Zm10.901-.49c1.869 0 3.239.498 4.11 1.496.871.998 1.311 2.512 1.311 4.533v9.76h-2.436v-9.49c0-1.547-.313-2.638-.947-3.272-.609-.651-1.514-.981-2.715-.981-1.708 0-2.994.66-3.873 1.987-.871 1.328-1.311 3.298-1.311 5.903v5.844h-2.435V34.867h2.435v4.043c.998-3.02 2.943-4.533 5.852-4.533l.009.008Zm13.894 16.186c-1.505 0-2.723-.39-3.653-1.167-.913-.779-1.37-1.87-1.37-3.273 0-1.269.364-2.275 1.099-3.028.753-.778 1.929-1.294 3.535-1.564l3.874-.643c.828-.144 1.42-.347 1.767-.609s.516-.685.516-1.252c0-.854-.288-1.53-.854-2.02-.55-.491-1.514-.736-2.892-.736-2.664 0-4.085 1.133-4.263 3.4h-2.41c.042-1.65.626-2.952 1.768-3.891 1.141-.956 2.74-1.438 4.811-1.438 2.072 0 3.527.432 4.542 1.286 1.015.837 1.522 1.97 1.522 3.4v7.34c0 1.328.059 2.588.186 3.797h-2.224c-.144-1.53-.211-2.723-.211-3.577-.347 1.1-.981 2.038-1.92 2.816-.93.778-2.207 1.167-3.806 1.167l-.017-.008Zm.491-1.929c1.141 0 2.106-.262 2.892-.794a4.843 4.843 0 0 0 1.768-2.115c.405-.88.608-1.818.608-2.816v-1.32a4.48 4.48 0 0 1-1.184.61 14.03 14.03 0 0 1-1.556.431l-2.528.524c-1.057.229-1.827.559-2.317 1.007-.491.431-.728 1.048-.728 1.869 0 .854.271 1.514.821 1.962.549.431 1.294.642 2.224.642Zm19.738-14.258c2.292 0 4.034.744 5.21 2.233 1.175 1.488 1.767 3.459 1.767 5.903 0 2.444-.592 4.448-1.767 5.936-1.176 1.472-2.918 2.208-5.21 2.208-1.378 0-2.562-.288-3.535-.855-.955-.592-1.691-1.437-2.224-2.537v9.024h-2.436V34.876h2.436v2.934c.524-1.1 1.269-1.945 2.224-2.537.973-.592 2.157-.888 3.535-.888Zm-.49 14.292c1.725 0 2.985-.499 3.78-1.497.812-1.023 1.218-2.57 1.218-4.65 0-2.081-.406-3.62-1.218-4.618-.795-1.024-2.055-1.531-3.78-1.531-1.726 0-2.969.499-3.899 1.497-.913.998-1.37 2.554-1.37 4.651s.457 3.653 1.37 4.651c.93.998 2.233 1.497 3.899 1.497Zm12.287-3.61c.22 2.486 1.836 3.729 4.846 3.729 1.303 0 2.241-.229 2.833-.677.609-.448.914-1.108.914-1.987 0-.736-.22-1.303-.668-1.717-.449-.406-1.151-.685-2.106-.829l-3.535-.524c-1.336-.186-2.368-.626-3.078-1.32-.711-.71-1.066-1.648-1.066-2.816 0-1.429.541-2.553 1.615-3.365 1.074-.82 2.571-1.227 4.482-1.227 1.912 0 3.485.449 4.601 1.345 1.142.896 1.759 2.08 1.86 3.552h-2.41a3.151 3.151 0 0 0-1.125-2.174c-.668-.575-1.666-.854-2.985-.854-1.235 0-2.165.229-2.774.677-.592.448-.879 1.074-.879 1.869 0 1.268.82 2.021 2.469 2.266l3.231.457c1.708.245 2.926.744 3.653 1.497.753.736 1.125 1.742 1.125 3.027 0 1.548-.524 2.715-1.582 3.493-1.057.778-2.596 1.167-4.634 1.167-2.376 0-4.135-.499-5.269-1.497-1.141-1.023-1.725-2.384-1.767-4.101h2.258l-.009.008Zm21.253 3.729c2.68 0 4.287-1.108 4.812-3.332h2.224c-.186 1.404-.846 2.63-1.979 3.67-1.142 1.023-2.85 1.53-5.15 1.53-2.495 0-4.39-.744-5.667-2.232-1.26-1.514-1.885-3.493-1.885-5.937 0-1.547.287-2.934.854-4.16a6.449 6.449 0 0 1 2.562-2.876c1.142-.71 2.52-1.074 4.144-1.074 1.48 0 2.765.33 3.839.981 1.1.634 1.92 1.53 2.47 2.69.566 1.141.854 2.46.854 3.949 0 .465-.017.829-.059 1.074h-12.246c.085 2.021.567 3.476 1.463 4.372.914.896 2.174 1.345 3.781 1.345h-.017Zm-.06-12.55c-1.505 0-2.689.397-3.56 1.192-.871.795-1.395 2.064-1.556 3.797h9.869c-.118-3.323-1.708-4.99-4.753-4.99Z"/></svg>