<svg xmlns="http://www.w3.org/2000/svg" fill="none" viewBox="0 0 210 80"><path fill="#1D1E1C" d="M31.277 51.482V28.36h16.82v3.786H35.668v5.53h8.264v3.815h-8.258v6.194h12.793v3.797H31.277ZM167.147 49.578v1.904h-4.232V28h4.266v9.042c.584-.727 1.253-1.287 2.053-1.682.67-.326 1.367-.577 2.122-.6.469-.012.938-.075 1.401-.04a7.21 7.21 0 0 1 2.339.56 6.632 6.632 0 0 1 2.408 1.762c.543.623.995 1.32 1.264 2.104.246.71.475 1.441.595 2.18.114.68.097 1.389.114 2.087.034 1.189-.177 2.344-.566 3.46a8.105 8.105 0 0 1-1.624 2.762 6.509 6.509 0 0 1-2.002 1.52c-.686.338-1.418.578-2.19.63-.561.04-1.121.08-1.676.04a5.456 5.456 0 0 1-1.744-.429 6.196 6.196 0 0 1-2.053-1.407c-.16-.166-.298-.343-.446-.52l-.035.103.006.005Zm3.7-11.347c-.486-.034-1.098.109-1.658.412-.921.498-1.504 1.281-1.848 2.259-.211.595-.348 1.2-.354 1.836 0 .537-.057 1.08.017 1.612.08.572.252 1.139.446 1.682.292.84.864 1.464 1.653 1.876.795.417 1.647.48 2.528.36 1.132-.155 1.961-.755 2.562-1.693.6-.938.789-2.002.806-3.088a11.447 11.447 0 0 0-.149-1.985c-.125-.772-.423-1.486-.955-2.081-.766-.858-1.75-1.184-3.036-1.184l-.012-.006Z"/><path fill="#1E1F1D" d="M149.235 40.925h-4.277c.028-.366.017-.726.097-1.064.171-.75.434-1.464.863-2.122.572-.88 1.339-1.538 2.259-2.024a8.041 8.041 0 0 1 3.134-.898c.612-.046 1.23-.114 1.842-.086 1.315.057 2.625.212 3.826.818 1.441.726 2.322 1.893 2.682 3.449.12.531.2 1.086.2 1.63.029 3.597.034 7.2.046 10.797 0 .017-.012.028-.023.057h-4.146V49.32c-.223.269-.389.486-.572.692-.852.984-1.956 1.533-3.208 1.762-.658.12-1.344.08-2.014.12-.634.034-1.246-.086-1.852-.252-.847-.24-1.607-.658-2.231-1.275a4.153 4.153 0 0 1-1.149-2.105c-.281-1.304-.149-2.54.532-3.694.503-.852 1.292-1.35 2.173-1.727 1.384-.59 2.848-.875 4.312-1.173 1.001-.206 2.001-.423 2.997-.652.194-.045.383-.126.554-.228.521-.315.555-.784.355-1.316-.258-.698-.875-.995-1.533-1.178-.749-.206-1.521-.211-2.282-.109-1.172.16-2.087.681-2.453 1.893-.08.263-.097.544-.149.847h.017Zm6.446 2.448c-.978.486-2.042.697-3.089.955-.812.2-1.635.371-2.39.76-.698.36-1.173.892-1.224 1.704-.057.898.498 1.602 1.395 1.87.664.2 1.333.178 2.002.046 1.584-.309 2.717-1.15 3.191-2.74.252-.846.212-1.72.2-2.59a.167.167 0 0 0-.023-.051c-.022.017-.045.028-.068.046h.006ZM106.515 44.7H94.603c0 .514.165.971.348 1.417.51 1.23 1.476 1.956 2.745 2.18 1.167.205 2.339.142 3.42-.48.755-.436 1.253-1.076 1.584-1.86.012-.028.029-.057.058-.114 1.258.44 2.516.88 3.786 1.327-.446 1.03-1.058 1.916-1.882 2.653a7.173 7.173 0 0 1-2.654 1.487c-.617.195-1.275.303-1.927.372-.726.08-1.464.149-2.19.092-1.184-.092-2.356-.292-3.409-.893-.497-.285-1.018-.554-1.458-.92a7.084 7.084 0 0 1-1.83-2.35c-.36-.733-.589-1.505-.75-2.294-.073-.36-.08-.732-.108-1.104-.028-.4-.074-.8-.051-1.195.045-.795.148-1.59.36-2.368a8.37 8.37 0 0 1 .99-2.27c.234-.378.548-.71.817-1.07.395-.532.927-.915 1.464-1.28a7.125 7.125 0 0 1 2.711-1.11c.618-.114 1.252-.206 1.876-.195 1.407.018 2.773.246 4.037.927a6.994 6.994 0 0 1 2.78 2.676c.549.938.886 1.956 1.075 3.02.074.417.103.84.114 1.264.017.686 0 1.367 0 2.087h.006Zm-4.358-3.026c-.068-.68-.183-1.31-.515-1.893-.308-.538-.697-.966-1.252-1.247-.8-.411-1.641-.503-2.528-.4a3.774 3.774 0 0 0-1.601.555c-1.075.692-1.538 1.75-1.739 2.985h7.641-.006Z"/><path fill="#1D1E1C" d="M74.043 44.694H62.119c-.017.468.109.897.275 1.315.308.75.794 1.378 1.492 1.79.395.234.852.429 1.304.498.932.142 1.876.142 2.79-.178 1.019-.354 1.734-1.018 2.145-2.013.08-.183.166-.252.384-.172 1.126.412 2.259.801 3.391 1.202.04.01.08.022.131.034-.24.64-.594 1.206-1.012 1.733-.915 1.16-2.081 1.973-3.5 2.39-.589.172-1.2.315-1.813.383-.732.086-1.48.143-2.219.103-1.715-.091-3.328-.555-4.7-1.63-1.379-1.08-2.265-2.499-2.683-4.209a10.574 10.574 0 0 1-.286-3.197c.069-1.098.275-2.173.727-3.197.303-.68.663-1.326 1.126-1.91a7.26 7.26 0 0 1 3.008-2.259c.83-.343 1.688-.572 2.58-.606a15.095 15.095 0 0 1 1.904.052 9.134 9.134 0 0 1 1.624.303 6.756 6.756 0 0 1 2.534 1.372 6.98 6.98 0 0 1 2.104 3.066c.212.6.332 1.24.463 1.87.212 1.04.183 2.104.178 3.157 0 .023-.012.045-.023.097v.005Zm-4.358-3.014c-.063-.343-.12-.664-.189-.978-.188-.887-.623-1.613-1.406-2.1-.378-.234-.801-.354-1.241-.434-.99-.183-1.933-.091-2.826.378-.892.469-1.452 1.224-1.784 2.161-.109.31-.166.635-.252.978h7.692l.006-.005ZM113.263 51.482h-4.346V35.04h4.341v2.522c.308-.572.669-1.098 1.138-1.538.686-.635 1.487-1.075 2.413-1.207.612-.086 1.247-.149 1.864-.097 1.407.114 2.671.606 3.609 1.715.623.738 1.018 1.607 1.218 2.551.126.6.24 1.213.252 1.824.046 2.648.051 5.296.068 7.944v2.728h-4.346v-.269c0-3.071.006-6.142 0-9.219 0-.772-.074-1.544-.406-2.253a2.053 2.053 0 0 0-.846-.944 3.187 3.187 0 0 0-1.75-.4c-1.464.074-2.317.812-2.843 2.242-.28.755-.371 1.538-.366 2.339.006 2.733 0 5.473 0 8.206v.298ZM194.97 38.317c-1.127.6-2.254 1.195-3.386 1.796-.172-.218-.315-.452-.503-.64-.464-.475-.995-.853-1.624-1.082-.538-.2-1.087-.268-1.659-.314a3.618 3.618 0 0 0-1.904.354c-.515.246-.732.704-.795 1.241-.052.44.36.961.823 1.144.778.309 1.596.44 2.408.6 1.235.247 2.476.487 3.643.967.663.275 1.292.618 1.836 1.104a3.772 3.772 0 0 1 1.269 2.35c.206 1.384-.137 2.62-.978 3.718-.812 1.063-1.927 1.698-3.185 2.07a9.34 9.34 0 0 1-1.641.303c-.578.057-1.173.103-1.75.046-.864-.086-1.722-.229-2.551-.526-.961-.344-1.859-.795-2.637-1.447-.526-.44-.977-.961-1.498-1.476.498-.291.944-.549 1.39-.806.652-.372 1.315-.738 1.961-1.115.115-.069.143-.063.229.04.658.84 1.493 1.43 2.522 1.721 1.052.297 2.11.343 3.14-.109.583-.257.858-.76.903-1.355a.901.901 0 0 0-.594-.926 15.271 15.271 0 0 0-1.727-.578c-.841-.217-1.699-.383-2.551-.56a9.741 9.741 0 0 1-2.522-.864c-.927-.48-1.721-1.121-2.179-2.093-.36-.778-.446-1.59-.355-2.448.143-1.304.795-2.316 1.75-3.145.835-.727 1.83-1.167 2.906-1.424.8-.195 1.607-.246 2.419-.195a10.2 10.2 0 0 1 3.408.807c1.178.514 2.156 1.286 3.02 2.219.154.165.28.36.423.543.006.011 0 .034 0 .08h-.011ZM142.939 47.684v3.804h-14.932V28.355h4.432v19.33h10.5Z"/><path fill="#1E1F1D" d="M74.077 35.023c1.476 0 2.923 0 4.37.006.062 0 .154.08.177.142.543 1.585 1.075 3.175 1.618 4.759a1574.478 1574.478 0 0 0 2.26 6.508c.102-.309.2-.572.285-.84.229-.71.452-1.42.68-2.134l1.03-3.243c.43-1.35.852-2.705 1.275-4.054.103-.332.206-.664.326-.995.023-.063.115-.15.172-.15 1.384-.005 2.774 0 4.158 0 .011 0 .028.012.04.024-.59 1.612-1.178 3.22-1.762 4.832-.743 2.053-1.492 4.1-2.236 6.154l-1.247 3.443c-.228.623-.463 1.246-.692 1.87-.04.114-.108.154-.234.154-1.235-.006-2.47 0-3.706-.011-.08 0-.206-.075-.234-.15-.292-.725-.572-1.463-.853-2.195-.268-.72-.526-1.441-.8-2.162-.28-.726-.578-1.441-.858-2.167-.275-.715-.532-1.441-.806-2.162-.43-1.127-.87-2.248-1.304-3.369a720.3 720.3 0 0 1-1.23-3.19c-.131-.35-.269-.693-.412-1.076l-.017.006Z"/><path fill="#1D1E1C" d="M55.365 51.488h-4.352V28.034h4.352v23.46-.006ZM22.641 28.252h4.381v23.133h-4.38V28.252ZM18.37 51.385H14V28.257h4.37v23.128Z"/><path fill="#C5C6C5" d="M155.772 43.384c-.029 0-.063 0-.091-.006.022-.017.045-.028.068-.046a.233.233 0 0 0 .023.052Z"/></svg>