<svg xmlns="http://www.w3.org/2000/svg" fill="none" viewBox="0 0 210 80"><path fill="#000" d="M65 54.987 63.4 25h-9.75L41.9 54.987h8.225l1.25-3.862h5.362v3.862H65ZM53.45 44.763 55.6 37.8c.625-1.862 1.1-3.775 1.65-5.637h.075a283.811 283.811 0 0 0-.313 5.637l-.2 6.963H53.45Zm34.625-9.788C89.287 27.062 84.588 25 77.662 25H69.95l-4.663 29.987h7.988l1.25-8c.237-1.474.4-2.937.55-4.412l.125-.075 2.462 12.487h8.65l-.8-2.5-3.187-9.987c3.362-1.275 5.237-4.225 5.75-7.525Zm-7.95.087c-.275 1.95-1.725 3.813-3.838 3.813l-.5-.038 1.175-7.4c2.188-.112 3.6 1 3.163 3.625Z"/><path fill="#000" d="M107.625 54.987 106.025 25h-9.75L85.512 52.487l-.975 2.5h8.213l1.263-3.862h5.362v3.862h8.25Zm-11.55-10.224 2.162-6.963c.626-1.862 1.088-3.775 1.638-5.637h.088a212.863 212.863 0 0 0-.313 5.637l-.2 6.963h-3.375Zm35.45 10.224L142.137 25h-7.787l-3.638 12.087c-.7 2.35-1.137 4.65-1.687 6.525h-.075c.037-2.187.15-4.337.112-6.525L128.912 25h-6.85l-3.95 12.087c-.75 2.225-1.1 4.413-1.687 6.638h-.075c.075-2.225.162-4.413.2-6.638L116.675 25h-7.863l1.925 29.987h7.75l3.563-12.162c.75-2.425 1.175-4.538 1.687-6.6h.075c-.037 2.063-.275 4.175-.237 6.6l.275 12.162h7.712-.037Zm25.537 0L155.462 25h-9.75l-11.737 29.987h8.212l1.263-3.862h5.362v3.862h8.25Zm-11.537-10.224 2.15-6.963c.625-1.862 1.087-3.775 1.637-5.637h.088a212.866 212.866 0 0 0-.313 5.637l-.2 6.963h-3.362Zm22.925 10.224 2-12.724L180 25h-8.263l-4.187 9.263h-.075L166.137 25h-8.3l4.625 17.263-2 12.724h7.988Zm-103.45 0L63.4 25h-9.75L41.9 54.987h8.225l1.25-3.862h5.362v3.862H65ZM53.45 44.763 55.6 37.8c.625-1.862 1.1-3.775 1.65-5.637h.075a283.811 283.811 0 0 0-.313 5.637l-.2 6.963H53.45Z"/><path fill="#000" d="M107.625 54.987 106.025 25h-9.75L85.512 52.487 82.326 42.5c3.362-1.275 5.237-4.225 5.75-7.525C89.287 27.062 84.588 25 77.662 25H69.95l-4.663 29.987h7.988l1.25-8c.237-1.474.4-2.937.55-4.412l.125-.075 2.462 12.487H92.75l1.263-3.862h5.362v3.862h8.25Zm-27.5-19.925c-.275 1.95-1.725 3.813-3.838 3.813l-.5-.038 1.175-7.4c2.188-.112 3.6 1 3.163 3.625Zm15.95 9.7 2.162-6.962c.626-1.862 1.088-3.775 1.638-5.637h.088a212.863 212.863 0 0 0-.313 5.637l-.2 6.963h-3.375Zm35.45 10.225L142.137 25h-7.787l-3.638 12.087c-.7 2.35-1.137 4.65-1.687 6.525h-.075c.037-2.187.15-4.337.112-6.525L128.912 25h-6.85l-3.95 12.087c-.75 2.225-1.1 4.413-1.687 6.638h-.075c.075-2.225.162-4.413.2-6.638L116.675 25h-7.863l1.925 29.987h7.75l3.563-12.162c.75-2.425 1.175-4.538 1.687-6.6h.075c-.037 2.063-.275 4.175-.237 6.6l.275 12.162h7.712-.037Zm25.537 0L155.462 25h-9.75l-11.737 29.987h8.212l1.263-3.862h5.362v3.862h8.25Zm-11.537-10.224 2.15-6.963c.625-1.862 1.087-3.775 1.637-5.637h.088a212.866 212.866 0 0 0-.313 5.637l-.2 6.963h-3.362Zm22.925 10.224 2-12.724L180 25h-8.263l-4.187 9.263h-.075L166.137 25h-8.3l4.625 17.263-2 12.724h7.988Zm-128.9-9.974h-8L30 55h7.987l1.563-9.987Zm4.225-3.45-11.813.837 2.7-17.4H50.2l-2.788 7.087H41.55l-.662 4.338h4.9l-2.013 5.138Z"/></svg>