<svg xmlns="http://www.w3.org/2000/svg" fill="none" viewBox="0 0 210 80"><path fill="#000" d="M93.47 44.982a5.431 5.431 0 0 1-2.085 4.517 8.558 8.558 0 0 1-5.511 1.659c-2.756 0-4.866-.303-6.344-.917v-1.606a15.98 15.98 0 0 0 6.221 1.038 6.928 6.928 0 0 0 4.401-1.29 4.062 4.062 0 0 0 1.64-3.337 3.868 3.868 0 0 0-.536-2.116 4.906 4.906 0 0 0-1.762-1.55 20.995 20.995 0 0 0-3.581-1.496c-2.304-.8-3.905-1.652-4.789-2.582a5.17 5.17 0 0 1-1.29-3.704 5.057 5.057 0 0 1 1.974-4.13 7.851 7.851 0 0 1 5.111-1.613 14.856 14.856 0 0 1 5.976 1.206l-.574 1.362a13.995 13.995 0 0 0-5.37-1.174 6.268 6.268 0 0 0-3.981 1.161 3.8 3.8 0 0 0-1.484 3.162c-.026.71.122 1.42.445 2.059.374.6.89 1.097 1.497 1.459 1.13.606 2.317 1.11 3.537 1.503a19.501 19.501 0 0 1 3.962 1.781 5.456 5.456 0 0 1 1.936 1.936c.439.82.645 1.743.606 2.672Zm5.885-1.226 8.57-9.474h1.852l-6.628 7.19 7.183 9.68h-1.839l-6.376-8.506-2.75 2.51v5.995h-1.51V27.016h1.53v12.087l-.11 4.653h.078Zm11.009-9.777h1.575l3.549 9.454c1.078 2.898 1.769 4.86 2.052 5.873h.097c.433-1.336 1.136-3.324 2.111-5.97l3.549-9.357h1.574l-7.524 19.566a15.727 15.727 0 0 1-1.53 3.227c-.38.53-.877.955-1.452 1.252a4.33 4.33 0 0 1-1.994.42 6.808 6.808 0 0 1-1.936-.33v-1.329a7.28 7.28 0 0 0 1.936.245c.491.013.975-.116 1.394-.367a3.439 3.439 0 0 0 1.078-1.162 14.53 14.53 0 0 0 1.129-2.478c.433-1.13.71-1.859.833-2.2l-6.441-16.844Zm30.163 11.003a5.432 5.432 0 0 1-2.084 4.517 8.559 8.559 0 0 1-5.511 1.659c-2.756 0-4.873-.303-6.344-.917v-1.606a16.006 16.006 0 0 0 6.247 1.038 6.928 6.928 0 0 0 4.401-1.29 4.06 4.06 0 0 0 1.607-3.337 3.818 3.818 0 0 0-.542-2.116 4.885 4.885 0 0 0-1.755-1.55 21.026 21.026 0 0 0-3.582-1.496c-2.304-.8-3.872-1.652-4.788-2.582a5.167 5.167 0 0 1-1.291-3.704 5.057 5.057 0 0 1 1.975-4.13 7.85 7.85 0 0 1 5.111-1.613 14.903 14.903 0 0 1 5.963 1.2l-.575 1.362a13.992 13.992 0 0 0-5.369-1.175 6.268 6.268 0 0 0-3.982 1.162 3.781 3.781 0 0 0-1.484 3.162c-.032.71.123 1.42.439 2.059.374.6.89 1.097 1.497 1.458a21.568 21.568 0 0 0 3.556 1.51 19.073 19.073 0 0 1 3.982 1.8 5.465 5.465 0 0 1 1.936 1.937c.425.813.632 1.73.593 2.652Zm14.572 5.873-.387-2.666h-.123a8.043 8.043 0 0 1-2.581 2.31 6.986 6.986 0 0 1-3.149.646 5.47 5.47 0 0 1-3.872-1.29 4.541 4.541 0 0 1-1.375-3.518 4.371 4.371 0 0 1 2.039-3.827c1.349-.89 3.33-1.368 5.931-1.432l3.194-.097v-1.097a5.734 5.734 0 0 0-.974-3.627c-.646-.813-1.691-1.226-3.13-1.226a10.485 10.485 0 0 0-4.834 1.29l-.574-1.329a12.737 12.737 0 0 1 5.466-1.29c1.846 0 3.227.477 4.124 1.439.897.961 1.374 2.458 1.374 4.517v11.197h-1.129Zm-6.176-1.085a5.348 5.348 0 0 0 5.808-5.808v-1.71l-2.93.13c-2.355.109-4.04.483-5.046 1.11a3.183 3.183 0 0 0-1.497 2.916c-.052.916.296 1.82.955 2.459.761.62 1.729.93 2.71.871v.032Zm18.986-14.152h-3.95v15.488h-1.529V35.618h-3.136v-.897l3.117-.568v-1.29c0-2.066.38-3.582 1.129-4.518.749-.936 2-1.458 3.717-1.458.942 0 1.878.142 2.781.42l-.354 1.329a8.323 8.323 0 0 0-2.453-.388 2.898 2.898 0 0 0-2.581 1.072c-.497.703-.742 1.845-.742 3.44v1.561h3.949l.052 1.297Zm10.022 15.514c-2.439 0-4.343-.755-5.711-2.265-1.362-1.504-2.04-3.62-2.04-6.33 0-2.711.646-4.834 1.975-6.454a6.519 6.519 0 0 1 5.324-2.433 5.73 5.73 0 0 1 4.679 2.078c1.142 1.38 1.71 3.259 1.716 5.64v1.24h-12.087c0 2.31.536 4.078 1.607 5.297a5.713 5.713 0 0 0 4.518 1.827c.845.006 1.684-.059 2.516-.2.949-.2 1.872-.497 2.762-.872v1.394c-.839.381-1.723.658-2.626.84-.871.16-1.749.244-2.633.238Zm-.452-16.133a5.022 5.022 0 0 0-3.872 1.613c-.981 1.065-1.549 2.581-1.716 4.614h10.377a7.328 7.328 0 0 0-1.291-4.569 4.146 4.146 0 0 0-3.498-1.64V35Z"/><path fill="#63B3F4" d="M41.178 49.19s-.013-.02-.026-.032a1.176 1.176 0 0 0-1.652 0 1.165 1.165 0 0 0 0 1.652c.013.013.02.02.032.026.452.432 1.175.419 1.62-.026a1.174 1.174 0 0 0 .026-1.62Zm-.845 1.484h-.007a.685.685 0 0 1-.458-.174.706.706 0 0 1 .465-1.233.69.69 0 0 1 .522.24.7.7 0 0 1-.523 1.168Zm1.058-22.122a1.076 1.076 0 0 0-.239-.355 1.176 1.176 0 0 0-1.652 0 1.15 1.15 0 0 0-.2 1.375.922.922 0 0 0 .2.277c.452.452 1.181.458 1.64.013l.012-.013s.026-.026.032-.038c.323-.343.388-.846.207-1.259Zm-.587.975a.695.695 0 0 1-1.149-.53c0-.38.31-.697.697-.697a.7.7 0 0 1 .503 1.181c-.013.013-.032.033-.051.046ZM62.37 49.68a.948.948 0 0 0-.155-.284 1.177 1.177 0 0 0-1.64-.219c0 .007-.012.013-.012.02-.103.105-.185.23-.239.367a1.184 1.184 0 0 0 .252 1.265c.116.116.251.2.393.252.413.161.898.077 1.233-.252.1-.124.17-.27.206-.426.007-.045.02-.09.026-.135.007-.04.007-.084.007-.123a.953.953 0 0 0-.071-.465Zm-1.026 1.072h-.039a.702.702 0 0 1-.665-.704c0-.374.317-.703.704-.703.387 0 .684.297.697.665.006.012.006.025.006.038a.7.7 0 0 1-.703.704Zm.826-22.535-.013-.013a1.175 1.175 0 0 0-1.646.013 1.175 1.175 0 0 0-.013 1.645l.013.013a1.172 1.172 0 1 0 1.659-1.659Zm-.826 1.523c-.2 0-.381-.084-.504-.22a.668.668 0 0 1-.193-.477c0-.381.31-.697.697-.697.187 0 .355.07.477.193.136.13.22.31.22.504a.698.698 0 0 1-.697.697Z"/><path fill="#63B3F4" d="M51.007 16H51c-13.255 0-24 10.745-24 24s10.745 24 24 24 24-10.745 24-24-10.745-24-23.993-24ZM65.68 47.273a25.86 25.86 0 0 1-2.665 2.375 1.688 1.688 0 0 1-.445 1.594 1.695 1.695 0 0 1-2.033.277c-.084-.051-.168-.103-.245-.168a29.555 29.555 0 0 1-2.252 2.498c-2.027 2.033-3.918 3.452-4.208 3.15-.29-.304 1.11-2.182 3.143-4.215a27.728 27.728 0 0 1 2.723-2.42V50.3c-2.046-.736-5.324-3.02-8.847-6.247-3.524 3.22-6.796 5.51-8.848 6.247a27.049 27.049 0 0 1 2.73 2.426c2.033 2.033 3.452 3.917 3.149 4.208-.303.29-2.181-1.11-4.214-3.143-.8-.787-1.549-1.62-2.252-2.498a1.688 1.688 0 0 1-1.472.342 1.713 1.713 0 0 1-.78-.425 1.67 1.67 0 0 1-.478-1.62 26.531 26.531 0 0 1-2.665-2.375c-2.033-2.033-3.44-3.924-3.143-4.214.297-.29 2.181 1.116 4.208 3.143a30.082 30.082 0 0 1 2.239 2.478c.232-.175.51-.278.8-.316.33-.891.942-2.008 1.788-3.266 1.11-1.645 2.626-3.543 4.459-5.517-3.227-3.518-5.53-6.744-6.273-8.822a1.597 1.597 0 0 1-.768-.323 29.073 29.073 0 0 1-2.233 2.478c-2.02 2.02-3.904 3.44-4.207 3.15h-.007c-.29-.31 1.117-2.195 3.163-4.228a25.053 25.053 0 0 1 2.652-2.374 1.68 1.68 0 0 1 .348-1.498 1.684 1.684 0 0 1 2.369-.187 29.54 29.54 0 0 1 2.252-2.504c2.059-2.032 3.95-3.413 4.233-3.117.02.02.033.046.033.078.064.465-1.278 2.233-3.182 4.13-.854.87-1.766 1.68-2.73 2.427v.07c2.053.743 5.311 3.008 8.829 6.234 1.974-1.8 3.872-3.317 5.51-4.433 1.285-.858 2.42-1.478 3.318-1.807v-.052a26.166 26.166 0 0 1-2.724-2.42c-2.032-2.058-3.459-3.962-3.149-4.24.31-.277 2.181 1.117 4.214 3.143a29.54 29.54 0 0 1 2.252 2.504c.413-.342.962-.47 1.485-.342.31.078.574.232.774.445l.058.058c.374.4.542.975.407 1.543a28.31 28.31 0 0 1 2.671 2.375c2.001 2.032 3.44 3.923 3.143 4.214-.297.29-2.181-1.117-4.214-3.15a26.245 26.245 0 0 1-2.233-2.478 1.645 1.645 0 0 1-.774.323c-.755 2.059-3.04 5.285-6.228 8.822 3.201 3.504 5.48 6.763 6.234 8.822.284.038.555.148.794.316.697-.865 1.44-1.691 2.233-2.478 2.033-2.027 3.91-3.44 4.214-3.143.026.026.039.064.039.123-.013.522-1.343 2.245-3.188 4.09h-.007Z"/><path fill="url(#a)" d="M60.286 51.352c.078.064.162.116.246.167L49.993 62.058 39.152 51.216c.213.194.477.348.78.42.517.122 1.059 0 1.472-.343.703.878 1.452 1.71 2.252 2.498 2.033 2.033 3.91 3.433 4.214 3.143.303-.29-1.116-2.175-3.15-4.208a27.048 27.048 0 0 0-2.729-2.426c2.052-.736 5.324-3.027 8.848-6.247 3.523 3.226 6.802 5.51 8.847 6.247v.064a27.753 27.753 0 0 0-2.723 2.42c-2.033 2.033-3.433 3.91-3.143 4.214.29.303 2.181-1.116 4.208-3.15a29.57 29.57 0 0 0 2.252-2.496h.006Z" opacity=".16"/><path fill="url(#b)" d="m73.374 38.677-4.505 4.505c0-.059-.013-.097-.038-.123-.304-.297-2.182 1.116-4.214 3.143a29.984 29.984 0 0 0-2.233 2.478 1.806 1.806 0 0 0-.794-.316c-.755-2.059-3.033-5.318-6.234-8.822 3.188-3.537 5.472-6.763 6.227-8.822.278-.039.549-.148.775-.322a26.23 26.23 0 0 0 2.233 2.478c2.033 2.032 3.917 3.44 4.214 3.149.297-.29-1.142-2.181-3.143-4.214a28.298 28.298 0 0 0-2.672-2.375 1.683 1.683 0 0 0-.406-1.542l10.79 10.783Z" opacity=".16"/><path fill="url(#c)" d="M46.367 39.523c-1.833 1.974-3.35 3.872-4.46 5.517l-9.028-9.028h.007c.303.29 2.187-1.13 4.207-3.15a29.107 29.107 0 0 0 2.233-2.477c.226.174.484.284.768.322.742 2.078 3.046 5.305 6.273 8.822v-.006Z" opacity=".16"/><path fill="url(#d)" d="M50.845 35.037c-3.517-3.226-6.776-5.491-8.828-6.234v-.07a26.962 26.962 0 0 0 2.73-2.427c1.903-1.897 3.246-3.666 3.181-4.13l8.428 8.428c-1.639 1.116-3.536 2.633-5.51 4.433Z" opacity=".16"/><defs><linearGradient id="a" x1="44.514" x2="55.356" y1="45.853" y2="56.695" gradientUnits="userSpaceOnUse"><stop/><stop offset="1" stop-opacity="0"/></linearGradient><linearGradient id="b" x1="57.221" x2="68.005" y1="33.256" y2="44.046" gradientUnits="userSpaceOnUse"><stop/><stop offset="1" stop-opacity="0"/></linearGradient><linearGradient id="c" x1="36.009" x2="45.031" y1="32.876" y2="41.898" gradientUnits="userSpaceOnUse"><stop/><stop offset="1" stop-opacity="0"/></linearGradient><linearGradient id="d" x1="44.792" x2="53.22" y1="25.306" y2="33.74" gradientUnits="userSpaceOnUse"><stop/><stop offset="1" stop-opacity="0"/></linearGradient></defs></svg>