<svg xmlns="http://www.w3.org/2000/svg" fill="none" viewBox="0 0 210 80"><path fill="#074C97" d="M57.195 30.003c.096-.06.183-.11.264-.164 2.004-1.32 4.218-2.073 6.593-2.313 1.565-.157 3.138-.069 4.669.351 2.489.683 4.161 2.249 5.035 4.677.374 1.038.542 2.118.665 3.206.148 1.302.167 2.608.167 3.914v13.422h-4.497V39.843c0-1.382-.053-2.764-.301-4.127a8.523 8.523 0 0 0-.39-1.44c-.55-1.52-1.615-2.473-3.226-2.714-1.798-.271-3.58-.172-5.287.527-.573.233-1.107.557-1.66.844-.196.099-.238.24-.176.462.507 1.76.687 3.565.694 5.386.016 4.631.004 9.262.004 13.893v.427h-4.512V39.628c0-1.321-.058-2.642-.329-3.936a9.463 9.463 0 0 0-.519-1.707c-.607-1.443-1.737-2.222-3.272-2.458-1.569-.24-3.077.038-4.546.56-.57.203-1.111.497-1.661.76-.286.134-.382.356-.382.688.011 6.349.008 12.697.008 19.046v.481c-.283.088-3.486.122-4.44.054-.092-.294-.138-21.677-.046-23.174.092-.042.198-.095.31-.145 2.565-1.1 5.222-1.87 7.997-2.199 1.627-.194 3.257-.198 4.868.164 1.496.336 2.798 1.02 3.848 2.154.027.026.057.045.114.095l.008-.008Zm100.069 7.315c-.007-.81-.061-1.615-.267-2.405-.527-2-1.821-3.169-3.852-3.535-.825-.15-1.657-.138-2.493-.122-2.146.038-4.192.5-6.162 1.34-.088.038-.183.068-.309.11v-3.985c.088-.038.187-.084.29-.122a18.202 18.202 0 0 1 5.979-1.184 42.437 42.437 0 0 1 2.874.012c1.012.041 2.001.229 2.967.545 2.538.836 4.153 2.558 4.894 5.112.37 1.28.489 2.589.489 3.913.003 5.093 0 10.182 0 15.275v.424c-.554.091-1.066.187-1.577.263-2.638.393-5.284.668-7.956.703-1.741.019-3.463-.123-5.116-.703a10.236 10.236 0 0 1-1.718-.805c-1.325-.768-2.218-1.913-2.722-3.349-.557-1.584-.653-3.214-.332-4.86.37-1.9 1.435-3.336 3.069-4.355 1.176-.737 2.474-1.153 3.83-1.413a18.594 18.594 0 0 1 4.012-.305c1.199.03 2.375.255 3.547.492.156.03.316.061.553.11v-1.156Zm0 5.18c0-.076-.004-.148 0-.225.012-.164-.065-.255-.217-.297-.264-.073-.523-.164-.791-.214a16.296 16.296 0 0 0-5.757-.057c-1.061.171-2.027.587-2.825 1.343-.523.497-.863 1.088-.977 1.802a5.45 5.45 0 0 0 .015 1.71c.199 1.299.886 2.223 2.119 2.715.16.065.324.126.489.183.916.313 1.87.436 2.832.424 1.294-.011 2.589-.076 3.879-.137.405-.02.806-.115 1.233-.18V42.5Zm-64.091-4.03c.019-1.257.053-2.46-.279-3.643-.55-1.97-1.848-3.096-3.84-3.451-.814-.145-1.634-.134-2.459-.122-2.168.038-4.241.508-6.23 1.363-.046.019-.092.034-.142.05-.022.007-.045.007-.072.01-.076-.255-.103-3.458-.027-3.973a17.556 17.556 0 0 1 3.062-.913c2.065-.412 4.15-.5 6.246-.355.946.065 1.874.24 2.779.535 2.478.817 4.092 2.477 4.852 4.966.42 1.37.538 2.78.535 4.204v15.553a97.38 97.38 0 0 1-.943.156 60.157 60.157 0 0 1-7.983.798c-1.447.046-2.886-.011-4.31-.305-.993-.206-1.947-.516-2.837-1.008-1.607-.89-2.66-2.222-3.16-3.982a9.281 9.281 0 0 1-.18-4.47c.359-1.753 1.325-3.123 2.798-4.123 1.126-.768 2.39-1.218 3.715-1.505 1.58-.34 3.176-.45 4.787-.366 1.058.053 2.096.26 3.134.473.168.035.34.069.554.111v-.004Zm-.004 11.093v-7.528c-.32-.092-.637-.202-.962-.267a16.422 16.422 0 0 0-5.795-.061c-1.035.171-1.982.572-2.768 1.298-.557.515-.92 1.133-1.027 1.893a5.627 5.627 0 0 0 .065 1.894c.229 1.145.874 1.954 1.947 2.428.76.336 1.558.527 2.378.6 1.692.148 3.383.049 5.074-.085.355-.03.71-.11 1.092-.172h-.004Z"/><path fill="#5BA731" d="m114.277 40.464.05.061h-5.143s.027-.042.042-.061L99.171 28.03c.16-.012.263-.027.366-.027 1.546 0 3.089.004 4.635-.008.252 0 .404.088.557.28 2.256 2.817 4.516 5.63 6.78 8.448.107.133.218.267.371.45 5.856-7.883 12.075-15.374 19.191-22.085.023-.023.061-.035.164-.088-5.593 8.575-10.995 17.183-16.958 25.464Z"/><path fill="#074C97" d="M124.86 53.1c-.172.012-.279.023-.382.023-1.558.004-3.115-.003-4.669.008-.252.004-.409-.076-.565-.271-2.356-2.928-4.723-5.849-7.086-8.773-.084-.107-.172-.206-.286-.344-.111.134-.206.245-.294.355-2.718 3.425-5.471 6.819-8.349 10.106-3.284 3.749-6.723 7.353-10.37 10.75-.09.088-.19.176-.285.26l-.073-.065c2.749-4.142 5.486-8.292 8.242-12.427a414.819 414.819 0 0 1 8.441-12.197h5.143c3.504 4.18 7.001 8.353 10.533 12.575Zm6.013-31.713v6.604c1.08.023 2.122.008 3.161.012h6.306c.084.29.096 3.348.012 3.772h-9.468v.447c0 3.771-.004 7.543 0 11.315 0 1.035.061 2.066.325 3.073.049.191.106.386.167.573.485 1.432 1.493 2.233 2.978 2.42 1.68.21 3.329.084 4.921-.546.313-.122.626-.244.939-.362.077-.03.161-.046.264-.073v4.089c-.554.153-1.1.317-1.653.454-1.581.394-3.184.577-4.814.466-.936-.065-1.856-.195-2.749-.489-1.917-.633-3.245-1.89-4.005-3.752-.431-1.058-.653-2.173-.74-3.303a43.725 43.725 0 0 1-.142-3.317c-.015-4.791-.003-9.586-.011-14.378 0-.26.061-.477.206-.694 1.336-1.997 2.665-3.997 3.993-5.998.073-.11.153-.221.229-.328l.073.019.008-.004ZM170 31.16a2.983 2.983 0 0 1-2.978 2.959 2.986 2.986 0 0 1-2.97-2.97 2.989 2.989 0 0 1 3.001-2.978 2.975 2.975 0 0 1 2.947 2.99Zm-.512.008a2.452 2.452 0 0 0-2.439-2.49 2.466 2.466 0 0 0-2.493 2.444 2.479 2.479 0 0 0 2.447 2.493 2.46 2.46 0 0 0 2.485-2.447Z"/><path fill="#074C97" d="M165.781 29.591c.546.016 1.104-.05 1.657.046.443.077.714.355.756.752.038.355-.183.718-.553.89-.065.03-.134.053-.241.092.424.408.687.885.993 1.397h-.619c-.164-.275-.34-.557-.504-.848-.213-.378-.523-.557-1.008-.45v1.29h-.473c-.08-.263-.092-2.756-.008-3.172v.003Zm.489 1.41c.328-.016.638-.012.939-.054.294-.042.416-.199.416-.44 0-.251-.145-.42-.45-.45-.294-.026-.588-.007-.905-.007V31Z"/></svg>