<svg xmlns="http://www.w3.org/2000/svg" fill="none" viewBox="0 0 210 80"><path fill="#000" d="M39.308 47.975a.472.472 0 0 1 0 .422L36.92 53.04l-.493.962c-.8 1.554-3.018 1.554-3.814 0l-.36-.697-14.2-27.623a.464.464 0 0 1 .412-.677h3.771c.176 0 .332.1.413.251l11.992 23.34 2.066-4.085a.461.461 0 0 1 .824 0l1.781 3.469-.004-.005ZM49.731 28.132l-.777 1.516-6.505 12.655a.476.476 0 0 1-.848 0l-1.796-3.492a.473.473 0 0 1 0-.435l4.411-8.733h-14.03a.48.48 0 0 1-.425-.26l-1.891-3.686a.479.479 0 0 1 .427-.697h19.53c1.606 0 2.644 1.696 1.91 3.127l-.006.005ZM57.634 29.932l6.084 16.29 6.055-16.29h3.383l-7.931 20.185H62.21l-7.96-20.185h3.383ZM86.105 47.364c-.123-.152-.185-.408-.185-.763v-5.482c0-1.91-.573-3.383-1.72-4.425-1.146-1.038-2.714-1.56-4.704-1.56-1.1 0-2.147.162-3.142.484-.995.322-1.985.815-2.97 1.478l1.052 2.104c.833-.53 1.62-.943 2.359-1.237a6.328 6.328 0 0 1 2.36-.44c1.175 0 2.075.289 2.7.867.626.578.938 1.379.938 2.407v.933a7.977 7.977 0 0 0-1.833-.455 14.962 14.962 0 0 0-2.033-.142c-1.25 0-2.35.194-3.298.578-.947.384-1.691.929-2.231 1.635-.54.701-.81 1.525-.81 2.464 0 .862.218 1.644.654 2.335.435.697 1.042 1.246 1.819 1.65.777.402 1.658.606 2.644.606.985 0 2.037-.228 3.041-.683a6.408 6.408 0 0 0 2.474-1.933l.085.853c.057.436.256.815.597 1.137.341.322.843.484 1.507.484a7.045 7.045 0 0 0 1.336-.143v-2.501c-.303-.02-.517-.105-.64-.251Zm-3.312-2.033c0 .185-.066.398-.199.64a3.483 3.483 0 0 1-.54.73c-.379.411-.881.743-1.507 1.004-.625.26-1.279.393-1.961.393-.682 0-1.218-.123-1.663-.365a2.644 2.644 0 0 1-1.023-.947 2.358 2.358 0 0 1-.356-1.232c0-.782.356-1.398 1.066-1.843.71-.45 1.635-.673 2.772-.673.569 0 1.147.052 1.734.151a8.753 8.753 0 0 1 1.677.465v1.677ZM89.73 29.363h3.127v16.512c0 .758.114 1.246.341 1.455.228.208.512.313.853.313a4.778 4.778 0 0 0 1.933-.398l.455 2.473c-.455.19-.995.35-1.62.483a8.181 8.181 0 0 1-1.678.2c-1.061 0-1.895-.3-2.502-.896-.606-.597-.91-1.431-.91-2.492v-17.65ZM110.696 47.364c-.124-.152-.185-.408-.185-.763v-5.482c0-1.91-.573-3.383-1.72-4.425-1.147-1.038-2.715-1.56-4.705-1.56-1.099 0-2.146.162-3.141.484-.995.322-1.985.815-2.971 1.478l1.052 2.104c.834-.53 1.62-.943 2.359-1.237a6.334 6.334 0 0 1 2.36-.44c1.175 0 2.075.289 2.701.867.625.578.938 1.379.938 2.407v.933a7.984 7.984 0 0 0-1.834-.455 14.96 14.96 0 0 0-2.032-.142c-1.251 0-2.351.194-3.298.578-.948.384-1.692.929-2.232 1.635-.54.701-.81 1.525-.81 2.464 0 .862.218 1.644.654 2.335.436.697 1.042 1.246 1.82 1.65.776.402 1.658.606 2.643.606.986 0 2.037-.228 3.042-.683a6.408 6.408 0 0 0 2.473-1.933l.085.853c.057.436.256.815.597 1.137.342.322.844.484 1.507.484a7.06 7.06 0 0 0 1.336-.143v-2.501c-.303-.02-.516-.105-.639-.251Zm-3.312-2.033c0 .185-.067.398-.199.64a3.511 3.511 0 0 1-.54.73c-.379.411-.882.743-1.507 1.004a5.054 5.054 0 0 1-1.962.393c-.682 0-1.217-.123-1.663-.365a2.647 2.647 0 0 1-1.023-.947 2.356 2.356 0 0 1-.355-1.232c0-.782.355-1.398 1.066-1.843.71-.45 1.634-.673 2.771-.673.569 0 1.147.052 1.734.151a8.76 8.76 0 0 1 1.678.465v1.677ZM122.65 37.95c-1.213.018-2.289.293-3.227.824-.938.53-1.606 1.28-2.004 2.246v9.097h-3.127V35.362h2.899v3.213c.512-1.024 1.185-1.843 2.019-2.46.834-.615 1.715-.952 2.644-1.008h.469c.123 0 .232.009.327.028v2.814ZM131.737 50.117V29.932h3.184v17.37h10.831v2.815h-14.015ZM160.379 47.364c-.124-.152-.185-.408-.185-.763v-5.482c0-1.91-.573-3.383-1.72-4.425-1.147-1.038-2.715-1.56-4.705-1.56-1.099 0-2.146.162-3.141.484-.995.322-1.985.815-2.971 1.478l1.052 2.104c.834-.53 1.62-.943 2.359-1.237a6.334 6.334 0 0 1 2.36-.44c1.175 0 2.075.289 2.701.867.625.578.938 1.379.938 2.407v.933a7.984 7.984 0 0 0-1.834-.455 14.96 14.96 0 0 0-2.032-.142c-1.251 0-2.351.194-3.298.578-.948.384-1.692.929-2.232 1.635-.54.701-.81 1.525-.81 2.464 0 .862.218 1.644.654 2.335.436.697 1.042 1.246 1.819 1.65.777.402 1.659.606 2.644.606.986 0 2.037-.228 3.042-.683a6.408 6.408 0 0 0 2.473-1.933l.085.853c.057.436.256.815.597 1.137.342.322.844.484 1.507.484a7.06 7.06 0 0 0 1.336-.143v-2.501c-.303-.02-.516-.105-.639-.251Zm-3.312-2.033c0 .185-.067.398-.199.64a3.511 3.511 0 0 1-.54.73c-.379.411-.882.743-1.507 1.004a5.05 5.05 0 0 1-1.962.393c-.682 0-1.217-.123-1.663-.365a2.647 2.647 0 0 1-1.023-.947 2.356 2.356 0 0 1-.355-1.232c0-.782.355-1.398 1.066-1.843.71-.45 1.634-.673 2.771-.673.569 0 1.147.052 1.735.151a8.77 8.77 0 0 1 1.677.465v1.677ZM178.544 39.891a7.9 7.9 0 0 0-1.336-2.45 6.376 6.376 0 0 0-2.089-1.686c-.815-.412-1.715-.62-2.701-.62-1.194 0-2.232.274-3.113.824-.881.55-1.616 1.298-2.203 2.245v-8.84h-3.127v20.752h2.757v-2.7a5.987 5.987 0 0 0 2.175 2.174c.919.54 1.947.81 3.085.81a6.475 6.475 0 0 0 2.771-.592 7.1 7.1 0 0 0 2.232-1.635 7.363 7.363 0 0 0 1.492-2.42c.351-.92.526-1.896.526-2.929a9.071 9.071 0 0 0-.469-2.933Zm-3.07 4.78a4.556 4.556 0 0 1-.952 1.57 4.8 4.8 0 0 1-1.479 1.08 4.316 4.316 0 0 1-1.876.407c-.398 0-.815-.076-1.251-.223a5.246 5.246 0 0 1-1.222-.606 4.484 4.484 0 0 1-.995-.896 3.056 3.056 0 0 1-.597-1.16V40.97a7.03 7.03 0 0 1 1.066-1.582 5.235 5.235 0 0 1 1.464-1.147 3.68 3.68 0 0 1 1.763-.435c.871 0 1.639.232 2.302.7a4.726 4.726 0 0 1 1.55 1.849c.369.767.554 1.587.554 2.468 0 .635-.109 1.25-.327 1.848ZM187.115 50.4c-1.25 0-2.435-.203-3.553-.61a7.583 7.583 0 0 1-2.871-1.834l1.165-2.104c.853.758 1.711 1.308 2.573 1.649a6.95 6.95 0 0 0 2.573.512c.853 0 1.582-.161 2.132-.488.549-.322.824-.801.824-1.436 0-.469-.142-.815-.426-1.042-.284-.223-.697-.422-1.237-.592-.54-.171-1.189-.356-1.947-.564-1.061-.318-1.952-.654-2.672-1-.721-.346-1.261-.772-1.621-1.28-.36-.506-.54-1.155-.54-1.942 0-.957.246-1.772.739-2.45.493-.677 1.18-1.194 2.061-1.549s1.9-.535 3.056-.535c1.081 0 2.08.166 2.999.497.92.332 1.73.848 2.431 1.55l-1.336 2.075c-.663-.607-1.341-1.052-2.033-1.336a5.807 5.807 0 0 0-2.231-.427c-.455 0-.891.052-1.308.157a2.176 2.176 0 0 0-1.038.563c-.274.27-.412.654-.412 1.138 0 .393.114.71.341.957.228.241.569.45 1.024.62.455.171 1.014.356 1.677.564 1.156.337 2.142.673 2.957 1 .814.327 1.445.748 1.89 1.265.445.516.668 1.222.668 2.123 0 1.426-.535 2.535-1.606 3.33-1.071.797-2.497 1.195-4.279 1.195V50.4Z"/></svg>