<svg xmlns="http://www.w3.org/2000/svg" fill="none" viewBox="0 0 210 80"><path fill="#EC2E30" d="M20 28v5.714h9.566v17.283h6.817V33.714h9.566V28H20ZM58.214 33.334l4.422 8.642H53.92l4.295-8.642ZM53.792 28 41.768 50.997h7.615l1.99-4.067h13.81l2.116 4.067h7.577L62.674 28h-8.882ZM100.103 28v16.712h-.063L87.242 28H76.688v22.997h6.816V34.285h.064l12.797 16.712h10.555V28h-6.817ZM110.898 28h6.817v22.997h-6.817V28ZM121.706 28h6.817v13.279c0 2.927 1.013 4.067 3.801 4.067h6.753c2.788 0 3.801-1.14 3.801-4.067V28h6.817v14.8c0 5.714-2.851 8.45-9.11 8.45h-9.756c-6.259 0-9.11-2.736-9.11-8.45V28h-.013ZM164.14 28l7.703 14.8 7.691-14.8H190v22.997h-6.627v-16.51h-.05L174.39 51.01h-5.094l-8.932-16.523h-.064V51.01h-6.639V28h10.479Z"/></svg>