<svg xmlns="http://www.w3.org/2000/svg" fill="none" viewBox="0 0 210 80"><path fill="#B1B6B9" d="M32.06 47.153h12.787a27.725 27.725 0 0 1 4.812-6.04v-.049H27.247v.05a28.573 28.573 0 0 1 4.813 6.039Zm11.276 2.965H33.56a27.59 27.59 0 0 1 2.337 11.178c0 .741 0 1.473-.09 2.204h5.26c-.06-.731-.09-1.463-.09-2.204 0-3.845.806-7.65 2.358-11.178Z"/><path fill="#12705C" d="M49.64 38.139a9.31 9.31 0 0 0-1.214-5.09 6.973 6.973 0 0 0-1.857-2.135 7.021 7.021 0 0 0-2.557-1.226h-.08c-.199-.059-.418-.098-.636-.148l-.676-.108-.756-.1h-.776c-4.056 0-6.711 1.977-11.693 1.977a8.777 8.777 0 0 1-2.983-.523c2.456 3.34 6.622 4.843 8.382 5.416a50.236 50.236 0 0 0 13.92 1.976h.846l.08-.04Z"/><path fill="#5ECD82" d="M48.824 38.149a50.605 50.605 0 0 1-13.92-1.977c-1.76-.573-5.966-2.075-8.382-5.426a8.662 8.662 0 0 1-4.495-3.637 8.563 8.563 0 0 1-1.193-5.634 10.228 10.228 0 0 0-2.834 6.8 9.724 9.724 0 0 0 .718 3.749 9.77 9.77 0 0 0 2.106 3.19 9.955 9.955 0 0 0 6.93 2.945c9.566 0 18.306-.01 21.07-.01Z"/><path fill="#128EE8" d="M29.365 31.27c4.972 0 7.637-1.977 11.704-1.977h.765c.249 0 .477 0 .716.07.229.02.457.059.676.108l.646.139a9.66 9.66 0 0 0-1.173-.287c-4.236-.81-8.72-.672-11.643-4.428a8.696 8.696 0 0 1-1.74-4.31A8.562 8.562 0 0 1 30.06 16a9.895 9.895 0 0 0-5.3 6.533 9.817 9.817 0 0 0-.089 4.3 9.904 9.904 0 0 0 1.75 3.933 8.783 8.783 0 0 0 2.943.514v-.01Z"/><path fill="#000" d="M62.416 29.432h2.566v9.883h10.937v-9.883h2.566v20.913h-2.526V41.55H65.021v8.796h-2.605V29.432ZM94.941 43.92H83.704a4.772 4.772 0 0 0 1.54 3.202 4.801 4.801 0 0 0 3.352 1.245c.797.022 1.59-.14 2.314-.473a5.18 5.18 0 0 0 1.862-1.444l1.68 1.413a6.894 6.894 0 0 1-2.645 2.086 7.097 7.097 0 0 1-3.32.603 6.9 6.9 0 0 1-2.864-.465 6.982 6.982 0 0 1-2.424-1.59 6.93 6.93 0 0 1-1.563-2.432 6.99 6.99 0 0 1-.428-2.857c0-4.339 2.983-7.383 7.1-7.383 4.116 0 6.622 3.015 6.622 7.116.07.386 0 .8 0 .979h.01Zm-11.177-1.977h8.81c-.358-2.362-1.89-3.953-4.256-3.953a4.63 4.63 0 0 0-3.042 1.127 4.503 4.503 0 0 0-1.512 2.856v-.03Zm13.513 1.354c0-4.24 2.923-7.462 6.96-7.462a5.663 5.663 0 0 1 2.854.712 5.718 5.718 0 0 1 2.118 2.036h.06v-2.57h2.495v14.331h-2.287v-2.56a5.668 5.668 0 0 1-2.187 2.086 5.91 5.91 0 0 1-2.953.691c-4.017 0-7.06-2.895-7.06-7.264Zm12.181 0c0-2.965-1.989-5.278-4.823-5.278-.686 0-1.362.139-1.989.406a4.979 4.979 0 0 0-1.66 1.156 4.89 4.89 0 0 0-1.054 1.72 4.87 4.87 0 0 0-.278 1.996 4.841 4.841 0 0 0 1.351 3.577 4.933 4.933 0 0 0 3.531 1.504c.656 0 1.312-.13 1.919-.396a4.876 4.876 0 0 0 1.61-1.107 4.96 4.96 0 0 0 1.045-1.65 4.885 4.885 0 0 0 .308-1.928h.04Zm4.991-14.627h2.396v21.674h-2.396V28.671Zm6.543 17.434V38.08h-1.87v-2.066h1.87v-4.892l2.396-.267v5.16h4.753v2.065h-4.743v7.67c0 1.739.378 2.569 1.74 2.569a5.39 5.39 0 0 0 2.456-.741l.616 2.095a6.286 6.286 0 0 1-3.49.89c-2.545 0-3.728-1.562-3.728-4.458Zm9.754-17.434h2.396v9.814a6.091 6.091 0 0 1 2.306-2.036 6.13 6.13 0 0 1 3.014-.652c3.112 0 5.24 1.828 5.24 5.93v8.618h-2.406v-7.907c0-3.241-1.452-4.428-3.55-4.428-2.864 0-4.644 1.888-4.644 5.14v7.195h-2.396l.04-21.674Zm23.356.76h2.576v20.914h-2.576V29.432Zm25.882 21.398-2.814-2.54a10.633 10.633 0 0 1-6.711 2.273c-6.264 0-10.53-4.605-10.53-10.654 0-6.049 4.266-10.674 10.53-10.674 5.916 0 10.5 4.27 10.5 10.674a10.868 10.868 0 0 1-2.158 6.73l2.655 2.363-1.472 1.828Zm-9.525-2.688c1.74.02 3.43-.553 4.792-1.62l-2.426-2.215 1.452-1.71 2.536 2.244a8.645 8.645 0 0 0 1.451-4.942c0-4.744-3.281-8.262-7.805-8.262-4.524 0-7.835 3.548-7.835 8.262 0 4.715 3.311 8.243 7.835 8.243Zm14.05-18.106h-1.611v-.603h3.897v.603h-1.63v4.783h-.656v-4.783Zm3.181-.603h.667l1.988 3.479 1.989-3.48H193v5.387h-.656v-4.101l-1.75 3.014h-.458l-1.75-3.015v4.102h-.666l-.03-5.386Z"/></svg>