<svg xmlns="http://www.w3.org/2000/svg" fill="none" viewBox="0 0 210 80"><path fill="#2555A7" d="M42.535 57.06c-9.61 0-17.512-7.747-17.535-17.502A17.488 17.488 0 0 1 42.602 22c9.834.034 17.469 7.97 17.48 17.446A17.507 17.507 0 0 1 42.535 57.06Zm0-4.175A13.357 13.357 0 0 0 55.918 39.47c0-7.311-6.027-13.283-13.36-13.283-7.322 0-13.383 5.905-13.372 13.35.011 7.411 6.005 13.36 13.35 13.35Zm80.578-14.03v.38c0 3.292-.011 6.585 0 9.889 0 .647-.458 1.239-1.217 1.239h-2.243c-.693 0-1.117-.458-1.117-1.139V29.222c0-.659.402-1.25 1.206-1.216.692.033 1.384.022 2.087 0 .614-.023 1.038.256 1.306.77.368.725.703 1.462 1.049 2.21 1.239 2.678 2.489 5.357 3.728 8.036.023.056.067.1.134.212 0-.2.023-.323.023-.446v-9.521c0-.592.267-1.005.792-1.195.145-.055.301-.066.458-.066h2.087c.77 0 1.217.446 1.217 1.216v19.935c0 .737-.436 1.195-1.172 1.206-.715.01-1.429 0-2.132 0-.648 0-.983-.413-1.217-.938-.435-.938-.871-1.875-1.295-2.813a2322.583 2322.583 0 0 0-3.505-7.545c-.033-.078-.078-.145-.111-.212h-.078Zm30.784-5.012c0-2.098.904-3.717 2.556-4.945 1.049-.78 2.232-1.172 3.538-1.194 1.094-.022 2.199-.09 3.249.302 2.277.837 3.75 2.4 4.23 4.81.056.313.067.636.067.96v10.715c.011 3.26-2.5 5.481-4.755 5.96-1.753.38-3.538.425-5.202-.367-2.31-1.117-3.649-2.936-3.683-5.57-.022-1.797 0-3.594 0-5.38v-5.29Zm4.844 5.335v4.71c0 .548.145 1.05.436 1.508.837 1.306 2.478 1.26 3.237-.09.245-.446.346-.926.346-1.417v-9.365a2.85 2.85 0 0 0-.536-1.708c-.726-1.004-1.92-1.083-2.768-.178-.491.513-.715 1.138-.715 1.841v4.71-.01Zm-90.176-.044c0-1.73.033-3.471 0-5.202-.078-3.18 2.31-5.424 4.654-6.038.971-.257 1.965-.235 2.947-.19 2.478.112 4.275 1.34 5.447 3.483.458.826.603 1.752.603 2.69 0 3.516-.023 7.043 0 10.559.022 3.527-2.891 5.938-5.57 6.172-1.362.123-2.735.168-4.03-.368-2.176-.904-3.582-2.467-3.995-4.844-.056-.302-.056-.603-.056-.904v-5.358Zm8.862.279v-4.71c0-.648-.111-1.273-.49-1.831-.726-1.094-2.055-1.183-2.903-.179-.458.536-.647 1.184-.647 1.876v9.253c0 .469.089.915.312 1.328.369.67.893 1.139 1.686 1.172.747.033 1.283-.368 1.652-.982.323-.525.38-1.105.38-1.697v-4.241l.01.01Zm69.728 9.666c-.122.134-.201.223-.29.313-.591.613-1.317 1.026-2.165 1.15-1.485.222-2.958.189-4.353-.414-2.043-.882-3.271-2.455-3.717-4.62a7.677 7.677 0 0 1-.134-1.53c-.011-3.237.044-6.474-.023-9.7-.078-3.806 3.215-6.585 6.53-6.619 2.59-.022 4.576.994 6.005 3.126.636.96.915 2.031.938 3.17v.993c0 .681-.48 1.172-1.161 1.194-.726.023-1.462.023-2.188 0a1.224 1.224 0 0 1-1.183-1.239c0-.68-.123-1.328-.502-1.908-.893-1.34-2.5-1.261-3.293.145a2.925 2.925 0 0 0-.391 1.462v9.186c0 .503.09.983.324 1.429.447.837 1.217 1.183 2.244 1.016.826-.134 1.395-.715 1.529-1.652.078-.603.067-1.206.089-1.82 0-.234-.145-.334-.368-.346h-1.038c-.804 0-1.317-.513-1.317-1.317v-1.306c0-.591.446-1.071 1.038-1.15h5.235a.97.97 0 0 1 .837.447c.134.212.245.469.256.715.012 3.125.012 6.239 0 9.364 0 .558-.39 1.038-.937 1.117-.882.111-1.273.044-1.764-.86a6.272 6.272 0 0 1-.19-.38l-.011.034Zm-44.156-9.912v-9.911c0-.503.167-.904.636-1.128.179-.078.38-.122.581-.122h9.164c.725 0 1.205.49 1.205 1.205v1.719c0 .748-.513 1.25-1.261 1.25h-5.057c-.513 0-.58.067-.58.58v3.282c0 .458.067.513.536.525h3.806c.603 0 1.016.279 1.205.77.045.122.067.268.067.402 0 .558-.033 1.127 0 1.685.045.67-.569 1.284-1.283 1.273-1.194-.023-2.4 0-3.594 0h-.29c-.347.01-.447.122-.447.457v4.342c0 .424.1.525.513.525h5.336c.837 0 1.328.502 1.328 1.328v1.719c0 .703-.48 1.25-1.183 1.25-3.17.011-6.34.011-9.51 0-.703 0-1.172-.547-1.172-1.261v-9.912.022Zm-16.921-.044V28.977c.022-.637.357-.971.993-.983h2.634c1.273 0 2.556-.022 3.829.012 2.824.078 5.413 2.388 5.77 5.19.18 1.373.224 2.768-.223 4.118-.815 2.445-3.203 4.175-5.793 4.197H91.28c-.469 0-.547.078-.547.547 0 2.333-.022 4.666.011 6.999.011.814-.569 1.317-1.317 1.294-.714-.022-1.44 0-2.165 0-.793 0-1.206-.413-1.206-1.205V39.134l.023-.011Zm4.732-4.309v2.255c0 .324.09.424.413.435.547 0 1.094.023 1.641 0a1.859 1.859 0 0 0 1.797-1.853v-1.607c0-1.06-.703-1.842-1.763-1.897-.558-.034-1.128-.012-1.686 0-.312 0-.39.1-.39.413v2.265l-.012-.01Zm87.085 7.2c.033-.146.089-.29.112-.436.457-2.254.904-4.52 1.35-6.775l1.172-5.838c.134-.67.502-.96 1.183-.96h2.344c.704 0 1.05.425.916 1.128-.302 1.484-.625 2.969-.938 4.453-.402 1.898-.815 3.795-1.217 5.693a977.763 977.763 0 0 0-1.227 5.737c-.302 1.395-.592 2.79-.893 4.197a2.86 2.86 0 0 1-.201.614.88.88 0 0 1-.737.513c-.301.023-.603.023-.904.034h-2.578c-.692 0-1.072-.324-1.217-1.005-.592-2.757-1.194-5.503-1.786-8.26-.614-2.824-1.217-5.659-1.831-8.483-.234-1.105-.491-2.198-.703-3.303a1.811 1.811 0 0 1 .045-.77.683.683 0 0 1 .692-.525 75.639 75.639 0 0 1 2.757 0c.469 0 .792.335.904.86.212.981.413 1.964.614 2.946.446 2.154.882 4.308 1.328 6.463l.737 3.616c0 .034.022.067.033.1.023 0 .045 0 .067.012l-.022-.011Z"/><path fill="#2555A7" d="M49.511 34.68c.637.023.916.502.592 1.05-2.054 3.56-4.108 7.11-6.161 10.67-.268.458-.525.915-.793 1.373-.19.324-.457.469-.736.402-.313-.078-.503-.335-.503-.726V40.35c0-.256-.089-.401-.301-.535-2.065-1.25-4.13-2.523-6.195-3.784-.056-.034-.1-.067-.156-.1-.346-.224-.469-.458-.38-.804.078-.302.324-.447.737-.447h13.896Z"/></svg>