<svg xmlns="http://www.w3.org/2000/svg" fill="none" viewBox="0 0 210 80"><path fill="#000" d="m44.204 44.04 2.357-1.06c.687 2.12 2.357 3.859 5.202 3.859 2.646 0 4.118-1.258 4.118-3.089 0-1.64-1.174-2.608-3.432-3.089l-2.547-.58c-2.746-.58-4.805-1.93-4.805-4.927s2.547-5.118 6.376-5.118c4.119 0 6.086 2.51 6.575 4.249l-2.258 1.06c-.39-1.16-1.571-3.09-4.615-3.09-2.356 0-3.73 1.16-3.73 2.9 0 1.547.985 2.318 3.143 2.798l2.548.58c3.043.679 5.201 2.41 5.201 5.118 0 3.188-2.357 5.407-6.773 5.407-3.928 0-6.475-2.12-7.36-5.018Zm22.668 4.63v-7.727l-6.674-10.525h2.845l3.333 5.407c.885 1.549 1.175 2.51 1.175 3.768h1.083c0-1.258.297-2.318 1.174-3.86l3.143-5.407h2.845L69.32 40.752v7.818h-2.456v.1h.008Zm12.364 0V30.424h3.73L92.971 45.87l.885-.58c-.885-1.35-1.083-2.318-1.083-4.538V30.425h2.356V48.67h-3.043L81.493 32.355l-.884.58c.686 1.35.983 2.608.983 4.927v10.716h-2.356v.1-.008Zm21.485 0V30.424h6.277c5.4 0 9.023 3.57 9.023 9.077 0 5.506-3.531 9.167-9.122 9.167h-6.178Zm2.456-2.22h3.333c4.706 0 6.964-2.41 6.964-7.047 0-4.15-2.258-6.949-6.773-6.949h-3.532V46.45h.008Zm17.359 2.22V30.424h2.357V48.67h-2.357Zm6.964-9.367c0-5.308 3.531-9.267 8.931-9.267 4.805 0 7.361 2.99 8.047 5.408l-2.357.87c-.488-1.64-2.059-4.058-5.69-4.058-3.928 0-6.475 2.7-6.475 7.147 0 4.446 2.547 7.528 6.475 7.528 3.532 0 5.004-2.03 5.789-4.348l2.357.87c-.885 2.898-3.531 5.499-8.146 5.499-5.789.099-8.931-4.249-8.931-9.656v.007Zm33.262 9.367-1.77-5.02h-8.237l-1.861 5.02h-2.555l6.964-18.245h3.233l6.865 18.244h-2.647.008Zm-9.221-7.147h6.673l-1.96-5.5c-.488-1.448-.785-2.41-.785-3.958h-1.083c-.1 1.549-.298 2.51-.786 3.959l-2.059 5.499Zm17.855 7.146V32.546h-6.575v-2.12h15.796v2.12h-6.864v16.123h-2.357Zm12.653 0V30.425H195v2.12h-10.594v5.5h7.848v2.12h-7.848v6.277H195v2.12h-12.951V48.67ZM38.095 39.16l-10.464.175 9.74-3.844-.306-.725-9.602 4.172 7.528-7.276-.55-.55-7.276 7.521 4.165-9.602-.725-.305-3.844 9.74L26.929 28h-.778l.175 10.464-3.836-9.732-.725.305 4.172 9.603-7.276-7.528-.55.549 7.529 7.276-9.61-4.172-.305.725 9.747 3.844L15 39.158v.778l10.472-.167-9.74 3.836.305.725 9.603-4.172-7.528 7.276.549.55 7.276-7.529-4.172 9.603.725.305 3.844-9.748-.175 10.472h.777l-.167-10.472 3.844 9.748.724-.305-4.172-9.603 7.276 7.528.55-.55-7.528-7.275 9.602 4.172.305-.725-9.747-3.844 10.472.168v-.778.007Z"/></svg>