<svg xmlns="http://www.w3.org/2000/svg" fill="none" viewBox="0 0 210 80"><path fill="#231F20" d="M47 57.229v-.515l1.114-.428c.772-.172 1.2-.515 1.457-.943.258-.429.429-1.029.429-1.714V25.686c0-.686-.171-1.286-.429-1.715-.257-.428-.771-.771-1.542-1.028L47 22.514V22h13.457c5.486 0 9.514.943 11.914 2.914 2.486 1.886 3.686 4.457 3.686 7.629 0 2.057-.514 3.857-1.543 5.571-1.028 1.715-2.657 3-4.971 4.029-2.314 1.028-5.486 1.457-9.429 1.457H58.23v9.771c0 1.372.685 2.315 2.142 2.743L62 56.63v.514l-15 .086ZM58.229 42.57h2.142c1.8 0 3.258-.257 4.458-.857 1.114-.6 1.971-1.543 2.571-3 .514-1.457.857-3.428.857-5.914 0-2.486-.343-4.543-.943-6-.6-1.457-1.457-2.4-2.657-2.914-1.2-.6-2.657-.857-4.457-.857h-1.886L58.23 42.57Zm33 15.429c-2.829 0-5.229-.514-7.286-1.629a11.768 11.768 0 0 1-4.8-4.8c-1.114-2.057-1.629-4.457-1.629-7.285 0-2.829.6-5.143 1.8-7.2 1.2-2.057 2.829-3.6 4.972-4.715 2.143-1.114 4.457-1.628 7.114-1.628s4.971.514 7.029 1.628c2.057 1.029 3.685 2.658 4.885 4.629 1.2 2.057 1.8 4.457 1.8 7.286 0 2.828-.6 5.228-1.714 7.285-1.114 2.058-2.743 3.6-4.8 4.715-2.143 1.2-4.629 1.714-7.371 1.714Zm0-1.029c1.285 0 2.314-.342 3.085-1.028.772-.686 1.286-1.972 1.629-3.772.343-1.8.6-4.371.6-7.714s-.172-5.914-.6-7.714c-.343-1.8-.857-3.086-1.629-3.772-.771-.685-1.8-1.028-3.085-1.028-1.286 0-2.315.343-3.172 1.028-.771.686-1.371 1.972-1.714 3.772-.343 1.8-.514 4.371-.514 7.714s.171 5.829.514 7.714c.343 1.8.943 3.086 1.714 3.772.772.6 1.886 1.028 3.172 1.028Zm25.8 1.029c-1.8 0-3.429-.171-4.886-.686-1.457-.428-2.743-.857-4.029-1.457l.086-6.343h.514l1.886 3.172c.771 1.457 1.714 2.485 2.657 3.171 1.029.686 2.229 1.029 3.772 1.029 1.8 0 3.171-.343 4.285-1.115 1.115-.771 1.629-1.8 1.629-3.085 0-1.2-.343-2.143-1.2-2.915-.772-.771-2.229-1.457-4.372-2.057l-2.314-.685c-2.228-.686-4.028-1.629-5.314-3-1.2-1.286-1.886-2.915-1.886-4.886 0-2.314.943-4.372 2.914-6 1.972-1.629 4.715-2.486 8.229-2.486 1.457 0 2.829.172 4.029.514 1.285.258 2.571.772 3.685 1.372l-.257 5.743h-.6l-1.971-3.343c-.686-1.2-1.372-1.972-2.143-2.486-.686-.514-1.714-.771-3.086-.771-1.286 0-2.4.343-3.514 1.028-1.114.686-1.629 1.629-1.629 2.915 0 1.285.429 2.142 1.372 2.914.943.686 2.4 1.371 4.2 1.971l2.485.686c2.658.771 4.543 1.886 5.743 3.257 1.115 1.372 1.715 3 1.715 4.886 0 2.571-1.029 4.628-3.258 6.257-1.971 1.629-4.885 2.4-8.742 2.4Zm25.028 0c-2.4 0-4.2-.6-5.571-1.714-1.286-1.115-1.972-2.915-1.972-5.4V32.629h-3.857v-.515l1.372-.171c1.114-.257 2.142-.6 2.914-1.029.857-.428 1.714-1.114 2.486-1.885l4.542-4.886h.6L142.4 31.6h6.171v1.029h-6.257v19.2c0 1.285.257 2.142.857 2.828.6.686 1.372.943 2.229.943.771 0 1.457-.171 2.057-.514.6-.429 1.2-.943 1.8-1.543l.6.514c-.771 1.2-1.8 2.143-3.086 2.914-1.2.686-2.828 1.029-4.714 1.029Zm16.714 0c-1.371 0-2.485-.429-3.342-1.371-.943-.858-1.372-1.972-1.372-3.172 0-1.2.429-2.314 1.372-3.257.942-.943 2.057-1.371 3.342-1.371 1.286 0 2.486.428 3.343 1.371.943.943 1.372 1.971 1.372 3.257s-.429 2.314-1.372 3.172c-.857.942-1.971 1.371-3.343 1.371Z"/></svg>