<svg xmlns="http://www.w3.org/2000/svg" fill="none" viewBox="0 0 210 80"><path fill="#0255DB" fill-rule="evenodd" d="M59.2 46.33c-.342-.113-.375-.588.017-.776 7.025-3.333 6.562-10.862 6.562-10.862-.033-7.646-5.633-14.733-14.691-14.692-10.075.046-16.13 7.975-16.088 17.346C35.075 53.75 47.604 60.016 51.508 60l-.029-6.52c-.004-1.038-.008-1.842.634-1.842 0 0 4.033 4.041 8.512 4.02 6.98-.033 9.346-5.875 9.346-5.875L59.204 46.33H59.2Zm-8.07-5.005a6.453 6.453 0 0 1-.063-12.904 6.453 6.453 0 0 1 .062 12.904Z" clip-rule="evenodd"/><path fill="#021677" d="M151.166 23.625a2.69 2.69 0 0 0-2.691 2.692 2.69 2.69 0 0 0 2.691 2.692 2.69 2.69 0 0 0 2.692-2.692 2.69 2.69 0 0 0-2.692-2.692Z"/><path fill="#021677" fill-rule="evenodd" d="M171.512 25.159h4.371V49.85h-4.171v-2.638c-.8 1.367-2.533 3.205-6.271 3.205-5.637 0-9.275-4.404-9.275-9.742 0-5.937 4.238-9.708 9.209-9.708 3.504 0 5.47 1.87 6.137 2.937v-8.746Zm-5.371 21.154a5.71 5.71 0 0 0 4.071-1.671 5.38 5.38 0 0 0 1.571-4.071c0-1.6-.633-2.97-1.638-3.938-1-1-2.404-1.6-3.97-1.6-3.571 0-5.638 2.738-5.638 5.605v.033c0 3.1 2.238 5.637 5.604 5.637v.005Zm-29.15-15.35c-3.037 0-5.17 1.404-6.47 3.237v-2.67h-4.104v24.724h4.37v-8.841c.734 1.166 2.667 3.004 6.242 3.004 5.371 0 9.075-4.371 9.075-9.575 0-4.438-2.704-9.875-9.108-9.875l-.005-.004Zm4.738 9.741c0 3.004-2.238 5.638-5.571 5.638a5.6 5.6 0 0 1-3.971-1.634c-1-1-1.604-2.404-1.604-3.97 0-1.567.6-3.038 1.567-4.038a5.439 5.439 0 0 1 3.971-1.67c3.704 0 5.604 3.003 5.604 5.637v.033l.004.004Zm-29.675-9.741c3.338 0 5.371 1.766 6.171 3.237v-2.67h4.371v18.32h-4.371v-2.638c-1.167 2.138-3.604 3.205-6.171 3.205-5.871 0-9.308-4.571-9.308-9.742 0-5.77 4.171-9.708 9.308-9.708v-.004Zm5.504 12.445c.434-.8.634-1.67.7-2.57a5.685 5.685 0 0 0-.5-2.567c-.766-1.733-2.471-3.238-5.104-3.238-3.537 0-5.537 2.871-5.537 5.704v.034c0 2.267 1.633 5.57 5.57 5.57 2.438 0 4.038-1.266 4.871-2.937v.004Z" clip-rule="evenodd"/><path fill="#021677" d="M148.979 31.53h4.371v18.316h-4.371V31.53Z"/><path fill="#021677" fill-rule="evenodd" d="M91.283 25.159c6.204 0 9.525 2.933 9.529 8.274 0 4.65-2.916 6.855-7.108 7.53l8.488 7.783c-.805.987-1.934 1.37-3.088 1.37-2.354 0-3.825-.904-5.775-3.162-1.208-1.4-4.537-5.229-4.537-5.229s-.355-.525-.921-.525h-.183v8.654h-4.971V25.16h8.575-.009Zm-1.395 3.67h-2.209v8.875l2.209.013c3.658 0 6.15-1.175 6.15-4.425 0-3.013-1.513-4.463-6.15-4.463Z" clip-rule="evenodd"/></svg>