<svg xmlns="http://www.w3.org/2000/svg" fill="none" viewBox="0 0 210 80"><path fill="#000" d="m152.369 31.235 7.531-7.263h3.338c.536-.001 1.065-.115 1.553-.335l.325-.165c.437-.194.709-.605.709-1.064 0-.458-.272-.87-.685-1.057l-.361-.182a3.83 3.83 0 0 0-1.535-.33h-3.338l-7.525-7.263a2.054 2.054 0 0 0-1.435-.576h-.951a.401.401 0 0 0-.355.206.388.388 0 0 0 .012.4l4.903 7.386-3.503.294-1.282.123-1.878-2.744a.406.406 0 0 0-.337-.176h-.809a.41.41 0 0 0-.319.147.394.394 0 0 0-.083.329l.792 3.443-.792 3.444s-.012.059-.012.082c0 .088.03.177.089.247a.411.411 0 0 0 .319.147h.809a.398.398 0 0 0 .337-.176l1.878-2.745 1.282.124 3.503.294-4.903 7.387a.375.375 0 0 0-.012.4.414.414 0 0 0 .355.205h.951c.543 0 1.051-.206 1.435-.57l-.006-.012ZM66.903 49.123v-9.308c0-5.606-2.393-10.842-10.686-10.842-4.093 0-7.442 1.11-9.356 2.274l1.276 4.231c1.754-1.11 4.412-1.904 6.964-1.904 4.572 0 5.263 2.803 5.263 4.495v.424C50.794 38.44 45 41.719 45 48.224c0 3.914 2.924 7.67 8.134 7.67 3.349 0 6.06-1.429 7.655-3.439h.16l.425 2.857h5.9c-.265-1.587-.371-3.861-.371-6.189Zm-6.38-2.856c0 .423-.053.952-.212 1.428-.585 1.852-2.499 3.544-5.104 3.544-2.073 0-3.721-1.164-3.721-3.702 0-3.914 4.412-4.919 9.037-4.813v3.543Zm21.743 9.573c2.074 0 3.775-.264 4.732-.634l-.107-4.972a9.707 9.707 0 0 1-2.551.317c-2.499 0-3.35-1.64-3.35-4.76v-11.37h6.22v-4.867h-6.22v-7.351l-6.379 1.534v5.817H70.89v4.866h3.721v12.112c0 3.385.638 5.712 2.02 7.193 1.223 1.322 3.243 2.115 5.635 2.115Zm9.888-38.08h6.593v37.552h-6.593V17.76ZM106.242 67c1.648-.212 4.306-1.058 6.858-3.332 3.084-2.645 5.476-6.928 9.038-16.554l6.486-17.56h-7.018l-4.04 13.752-1.382 5.077h-.16c-.372-1.48-.904-3.438-1.435-5.025l-4.678-13.804h-7.177l9.463 23.642c.318.635.372 1.005.372 1.27 0 .317-.16.687-.426 1.163-.903 1.745-2.339 3.279-3.561 4.072-1.33.952-2.712 1.534-3.828 1.798L106.242 67Zm31.791-11.16c6.858 0 10.526-3.385 10.526-8.039-.053-3.808-2.233-6.188-6.911-7.88-3.296-1.164-4.519-1.957-4.519-3.597s1.276-2.697 3.615-2.697c2.34 0 4.36.846 5.476 1.48l1.276-4.6c-1.489-.794-3.987-1.534-6.858-1.534-6.007 0-9.782 3.543-9.782 8.092-.053 3.014 2.074 5.765 7.124 7.51 3.19 1.11 4.253 2.01 4.253 3.755s-1.276 2.856-4.147 2.856c-2.339 0-5.156-.952-6.645-1.851l-1.276 4.707c1.914 1.058 4.732 1.798 7.868 1.798Z"/><path fill="#5057EA" d="M101.34 21.215h43.71v2.939h-43.71v-2.939Z"/></svg>