<svg xmlns="http://www.w3.org/2000/svg" fill="none" viewBox="0 0 210 80"><path fill="#0B3267" d="M27 24v32h32.026V24H27Zm25.87 10.727h-1.974l-1.454-2.467H40.35l4.571 7.636-4.441 7.507h9.09l1.403-2.364h1.896v5.896H33.13l6.597-11.039L33.13 28.91h19.74v5.818Zm23.922 3.87c-4.208-1.013-5.22-1.766-5.22-3.48v-.052c0-1.455 1.324-2.623 3.584-2.623 2.026 0 4.026.805 6 2.285l2.078-2.935c-2.234-1.792-4.78-2.779-8-2.779-4.39 0-7.533 2.623-7.533 6.416v.051c0 4.104 2.65 5.481 7.35 6.624 4.105.935 4.988 1.792 4.988 3.377v.051c0 1.663-1.507 2.78-3.896 2.78-2.727 0-4.857-1.04-6.961-2.883l-2.338 2.779c2.65 2.363 5.844 3.532 9.169 3.532 4.623 0 7.87-2.441 7.87-6.597v-.052c0-3.688-2.415-5.35-7.09-6.494Zm11.403-8.909h3.558V51.74h-3.558V29.688Zm19.091 9.377v3.377h5.636v4.13c-1.351 1.012-3.247 1.662-5.325 1.662-4.519 0-7.506-3.35-7.506-7.87v-.052c0-4.208 3.091-7.767 7.143-7.767 2.805 0 4.467.91 6.182 2.364l2.467-2.935c-2.26-1.922-4.623-2.987-8.467-2.987-6.65 0-11.377 5.22-11.377 11.377v.052c0 6.415 4.519 11.324 11.429 11.324 3.896 0 7.013-1.584 9.194-3.428v-9.247h-9.376Zm24.363-10.078c-6.805 0-11.428 5.299-11.428 11.377v.052c0 6.078 4.545 11.324 11.35 11.324 6.806 0 11.429-5.298 11.429-11.376v-.052c0-6.078-4.545-11.325-11.351-11.325Zm8.728 11.429c0 5.013-3.637 9.039-8.728 9.039-5.091 0-8.805-4.078-8.805-9.091v-.052c0-5.013 3.637-9.04 8.727-9.04 5.091 0 8.806 4.079 8.806 9.092v.052Zm15.065-10.728h-8.182V51.74h2.467v-7.792h5.299c4.649 0 8.597-2.468 8.597-7.22v-.053c0-4.337-3.246-6.987-8.181-6.987Zm5.688 7.143c0 2.91-2.364 4.857-6 4.857h-5.403V32h5.533c3.532 0 5.87 1.636 5.87 4.78v.051Zm4.623-7.169v2.312h7.299V51.74h2.493V31.974h7.299v-2.312h-17.091Z"/></svg>