<svg xmlns="http://www.w3.org/2000/svg" fill="none" viewBox="0 0 210 80"><path fill="#05BDBA" d="M66.977 67.746v-14.41l.3-.301h3.605l.3.3v14.411l-.3.3h-3.604l-.301-.3Zm0-42.034V11.3l.3-.301h3.605l.3.3v14.412l-.3.3h-3.604l-.301-.3ZM54.579 57.617h-.492l-2.478-2.477v-.492l4.643-4.649h2.625l.35.35v2.625l-4.643 4.649-.005-.006Zm-2.975-33.081v-.498l2.477-2.472h.492l4.644 4.643v2.62l-.35.355h-2.625l-4.644-4.643.006-.005ZM35.3 37.42h20.415l.301.3v3.61l-.3.3H35.3l-.301-.3v-3.61l.3-.3Zm139.398.005.301.3v3.605l-.301.3h-20.716l-.301-.3 1.498-3.604.301-.301h19.218Z"/><path fill="#014847" d="M75.837 47.035h-3.604l-.301-.3V38.3c0-1.504-.59-2.663-2.401-2.702a48.11 48.11 0 0 0-3.134.05l-.175.175v10.91l-.3.301h-3.604l-.301-.3V32.323l.3-.301h8.105a5.704 5.704 0 0 1 5.705 5.704v9.007l-.301.301h.01Zm17.446-6.311-.301.3h-9.314l-.3.301c0 .602.601 2.401 3.008 2.401.902 0 1.799-.3 2.105-.902l.3-.3h3.605l.3.3c-.3 1.8-1.799 4.506-6.31 4.506-5.109 0-7.51-3.604-7.51-7.81 0-4.205 2.401-7.809 7.209-7.809 4.807 0 7.208 3.604 7.208 7.81v1.203Zm-4.507-3.002c0-.301-.3-2.401-2.701-2.401-2.401 0-2.702 2.105-2.702 2.4l.3.301h4.808l.3-.3h-.005Zm12.918 4.801c0 .602.301.903.902.903h2.702l.301.3v3.008l-.301.301h-2.702c-2.701 0-5.108-1.203-5.108-4.506v-6.607l-.3-.3h-2.106l-.3-.301v-3.008l.3-.301h2.106l.3-.3v-2.703l.301-.3h3.604l.301.3v2.702l.301.3h3.303l.301.302v3.008l-.301.3h-3.303l-.301.301v6.607-.006Zm11.118 4.512h-3.604l-.3-.3V26.301l.3-.3h3.604l.301.3V46.73l-.301.3v.006Zm8.111-17.43h-3.604l-.301-.3v-3.008l.301-.301h3.604l.301.3v3.009l-.301.3Zm0 17.425h-3.604l-.301-.301V32.307l.301-.3h3.604l.301.3V46.73l-.301.3Zm14.121-20.728v3.008l-.301.301h-2.702c-.601 0-.902.3-.902.902v1.203l.301.301h3.008l.3.301v3.008l-.3.3h-3.008l-.301.302V46.74l-.301.3h-3.604l-.301-.3V35.928l-.301-.301h-2.105l-.301-.3v-3.009l.301-.3h2.105l.301-.302v-1.203c0-3.303 2.401-4.506 5.108-4.506h2.702l.301.3v-.005Zm11.113 21.028c-1.203 3.008-2.401 4.808-6.607 4.808h-1.504l-.301-.301v-3.008l.301-.3h1.504c1.504 0 1.799-.302 2.106-1.199v-.3l-4.807-11.72v-3.008l.3-.301h2.702l.301.3 3.604 10.217h.301l3.604-10.216.3-.301h2.702l.301.3v3.009l-4.807 12.015h.016l-.016.005Z"/></svg>