<svg xmlns="http://www.w3.org/2000/svg" fill="none" viewBox="0 0 210 80"><path fill="#26ABFF" d="M34.416 46.89c1 .613 14.684 9.044 14.684 9.044s1.431 1.122 2.874.426c1.441-.696 1.383-2.104 1.383-2.288v-18.62s.053-1.118-.426-2.129c-.54-1.14-1.275-1.743-2.075-2.234-.8-.491-13.886-8.566-13.886-8.566s-1.163-.92-2.553-.32c-1.39.602-1.437 1.938-1.437 2.289v20.136c.01.304.046.706.16.932.199.394.276.715 1.276 1.33Zm4.682-15.802 8.14 5v11.333l-8.14-4.948V31.088Z"/><path fill="#F50049" d="M30 46.25c.01.304.045.733.16.959.2.394.277.716 1.277 1.33 1 .613 14.684 9.044 14.684 9.044s1.43 1.122 2.873.426c1.442-.696 1.383-2.104 1.383-2.288v-18.62s.054-1.118-.425-2.129c-.54-1.14-1.275-1.743-2.075-2.234-.8-.491-13.886-8.566-13.886-8.566s-1.164-.92-2.553-.32C30.046 24.455 30 25.79 30 26.142v20.11Zm6.118-13.512 8.14 5v11.333l-8.14-4.948V32.738Z"/><path fill="#000" d="M75.032 26.686H62.566v27.138h7.319v-8.717h5.147c4.134 0 6.202-1.762 6.202-5.287v-7.846c0-3.525-2.068-5.288-6.202-5.288Zm-1.117 12.059c0 .623-.35.934-1.05.935h-2.898v-7.73h2.898c.7 0 1.05.311 1.05.934v5.861Zm21.148-12.06h-8.932l-6.92 27.139h7.242l.875-4.03h6.413l.833 4.03h7.409l-6.92-27.138ZM88.465 44.45l2.111-9.69 1.99 9.69h-4.101Zm29.683-.542c2.419-.618 3.628-2.264 3.628-4.938v-7.042c0-3.494-2.07-5.241-6.208-5.241h-12.542v27.138h7.402v-9.622h.464l4.304 9.622h7.931l-4.979-9.917Zm-3.855-5.576c0 .625-.35.937-1.05.937h-2.898v-7.237h2.898c.699 0 1.05.313 1.05.937v5.363Zm20.148 9.301v-3.898c0-.62-.351-.93-1.05-.93h-4.03c-2.081 0-3.549-.456-4.407-1.37-.858-.914-1.286-2.23-1.286-3.946v-5.57c0-3.487 2.052-5.231 6.157-5.231h5.778c4.104 0 6.157 1.745 6.157 5.232v3.237h-7.401v-2.22c0-.603-.353-.905-1.058-.905h-1.175c-.704 0-1.057.313-1.057.938v4.047c0 .625.352.937 1.057.937h3.971c2.084 0 3.527.44 4.415 1.32.887.881 1.33 2.173 1.33 3.877v5.45c0 3.484-2.015 5.225-6.129 5.225h-5.749c-4.143 0-6.214-1.742-6.214-5.226v-3.245h7.401v2.278c0 .62.347.929 1.041.929h1.208c.694 0 1.041-.31 1.041-.929Zm16.447.846h9.211v5.428h-16.448v-27.22h16.119v5.427h-8.882v5.51h7.73l-.042 5.099h-7.688v5.756ZM180 36.801h-7.319v-4.337c0-.617-.347-.926-1.04-.926h-1.457c-.693 0-1.04.309-1.04.926l-.043 15.514c0 .607.35.912 1.053.912h1.473c.702 0 1.053-.305 1.053-.912v-4.105h7.319v4.762c0 3.515-2.061 5.271-6.182 5.271h-5.973c-4.122 0-6.183-1.756-6.183-5.271V31.912c0-3.484 2.104-5.226 6.226-5.226h5.93c4.121 0 6.182 1.742 6.182 5.226L180 36.8Z"/></svg>