<svg xmlns="http://www.w3.org/2000/svg" fill="none" viewBox="0 0 210 80"><path fill="#000" d="M116.763 52.732s-.049-.014-.063-.028c-.014-.014-.028-.035-.028-.056V46.64s.014-.042.028-.056c.021-.014.042-.02.063-.028h3.356c1.513 0 2.312.678 2.312 1.586.021.259-.049.517-.189.748a1.462 1.462 0 0 1-.617.545c.341.114.641.325.862.607.205.266.309.595.294.93 0 1.118-.966 1.746-2.599 1.746l-3.412.014h-.007Zm.575-5.659v2.16h3.012c1.051 0 1.437-.476 1.437-1.09 0-.616-.491-1.07-1.703-1.07h-2.746Zm2.816 5.142c1.359 0 1.955-.426 1.955-1.236s-.568-1.237-1.808-1.237h-2.97v2.473h2.823Zm4.876.433s-.014.042-.028.056c-.021.014-.042.021-.063.028h-.49s-.049-.007-.063-.028c-.014-.014-.028-.035-.028-.056V46.64s.014-.042.028-.056c.021-.014.042-.02.063-.028h.476s.049.007.063.028c.014.014.028.035.028.056l.014 6.008Zm9.48-3.004c0 1.985-1.717 3.193-3.84 3.193-2.123 0-3.839-1.209-3.839-3.193s1.723-3.179 3.839-3.179c2.116 0 3.84 1.188 3.84 3.18Zm-7.014 0a2.424 2.424 0 0 0 .505 1.53 3.06 3.06 0 0 0 1.408 1.027c.575.217 1.212.28 1.836.175a3.38 3.38 0 0 0 1.639-.734 2.63 2.63 0 0 0 .883-1.397 2.391 2.391 0 0 0-.168-1.586c-.238-.503-.645-.929-1.163-1.236a3.54 3.54 0 0 0-1.766-.462 3.603 3.603 0 0 0-1.219.168c-.38.122-.732.317-1.037.573a2.619 2.619 0 0 0-.686.887 2.281 2.281 0 0 0-.217 1.048l-.015.007Zm8.961 1.048c.098 0 .119.021.119.112 0 1.041.904 1.516 2.551 1.516 1.646 0 2.333-.629 2.333-1.383 0-.475-.358-.957-1.5-1.027l-2.059-.14c-1.395-.09-1.997-.615-1.997-1.44 0-.907.946-1.886 2.956-1.886 2.011 0 2.964.839 2.964 1.929 0 .049-.028.084-.105.084h-.449c-.07 0-.105-.021-.105-.105 0-.783-.693-1.39-2.291-1.39-1.415 0-2.284.593-2.284 1.369 0 .482.379.866 1.381.922l2.052.14c1.549.105 2.123.782 2.123 1.558 0 .775-.82 1.893-3.005 1.893-2.046 0-3.216-.782-3.216-1.95v-.18c0-.008.014-.022.021-.029.007-.007.021-.014.035-.02h.035l.455.013-.014.014Zm13.578-1.802c-.07 0-.105-.021-.119-.105-.091-.978-1.065-1.823-2.683-1.823a3.48 3.48 0 0 0-1.198.174 3.062 3.062 0 0 0-1.009.58 2.424 2.424 0 0 0-.652.887 2.2 2.2 0 0 0-.182 1.034c-.02.354.042.708.182 1.034.14.329.364.63.652.88.287.252.63.448 1.009.58.378.133.784.19 1.198.182 1.751 0 2.585-.866 2.683-1.712 0-.09.035-.111.133-.111h.427c.049 0 .12 0 .12.063 0 .957-1.037 2.277-3.356 2.277a4.042 4.042 0 0 1-1.444-.202 3.643 3.643 0 0 1-1.226-.685c-.35-.3-.623-.657-.798-1.055a2.65 2.65 0 0 1-.239-1.244 2.644 2.644 0 0 1 .246-1.243c.188-.404.463-.762.805-1.048.351-.3.764-.531 1.226-.685a3.98 3.98 0 0 1 1.437-.203c2.228 0 3.356 1.32 3.356 2.369 0 .042-.029.07-.12.07l-.441-.014h-.007Zm3.027 3.758s-.014.042-.028.056c-.014.014-.042.021-.063.028h-.491s-.049-.014-.063-.028a.063.063 0 0 1-.028-.056V46.64s.014-.042.028-.056c.014-.014.042-.02.063-.028h.477s.049.014.063.028c.014.014.028.035.028.056v6.008h.014Zm2.907-2.85v2.417h4.827s.056.014.07.035a.076.076 0 0 1 .025.028c.006.01.01.023.01.035v.328s-.014.042-.035.063c-.021.014-.042.028-.07.028h-5.394s-.049-.007-.07-.028c-.021-.014-.028-.035-.035-.056V46.64s.014-.042.035-.056a.206.206 0 0 1 .07-.028h5.282a.365.365 0 0 0 .07.028c.01.007.019.017.025.028.006.01.01.023.01.035v.328s-.014.042-.035.063a.219.219 0 0 1-.07.035h-4.708v2.215h4.351a.347.347 0 0 0 .07.028.073.073 0 0 1 .035.063v.328l-.035.063c-.021.014-.042.028-.07.035h-4.351l-.007-.007Zm13.102 2.934-4.821-4.29-1.002-.956h-.021v5.17s-.014.041-.028.055a.206.206 0 0 1-.07.028h-.476s-.049-.014-.063-.028c-.014-.014-.028-.035-.028-.055v-6.009s.014-.042.028-.056c.014-.014.042-.02.063-.028h.364l4.757 4.241c.456.391 1.065 1.013 1.051 1h.035v-5.157s.014-.042.028-.056c.021-.014.042-.02.063-.028h.477s.049.014.063.028a.063.063 0 0 1 .028.056v6.009s-.014.041-.028.055c-.014.014-.042.021-.063.028h-.357v-.007Zm8.764-3.842c-.07 0-.105-.021-.119-.105-.098-.978-1.065-1.823-2.683-1.823a3.457 3.457 0 0 0-1.198.174 3.062 3.062 0 0 0-1.009.58 2.436 2.436 0 0 0-.652.887c-.143.325-.205.68-.182 1.034-.02.354.042.708.182 1.034.14.329.365.63.652.88.287.252.63.448 1.009.58.378.133.784.19 1.198.182 1.751 0 2.585-.866 2.683-1.712 0-.09.035-.111.133-.111h.428c.049 0 .119 0 .119.063 0 .957-1.037 2.277-3.363 2.277a4.042 4.042 0 0 1-1.444-.202 3.643 3.643 0 0 1-1.226-.685c-.35-.3-.623-.657-.798-1.055a2.65 2.65 0 0 1-.239-1.244 2.657 2.657 0 0 1 .246-1.243c.188-.404.463-.762.805-1.048.351-.3.764-.531 1.226-.685a3.998 3.998 0 0 1 1.444-.203c2.228 0 3.363 1.32 3.363 2.369 0 .042-.035.07-.119.07l-.442-.014h-.014Zm3.02.908v2.417h4.827s.049.014.07.035c.01.008.019.017.025.028.006.01.009.023.01.035v.328s-.014.042-.035.063c-.021.014-.042.028-.07.028h-5.402s-.049-.014-.063-.028a.063.063 0 0 1-.028-.056V46.64s.014-.042.028-.056c.014-.014.042-.02.063-.028h5.283s.049.014.07.035c.01.007.018.017.025.028.006.01.009.023.01.035v.328l-.035.063c-.021.014-.042.028-.07.035h-4.708v2.215h4.351a.325.325 0 0 0 .07.028.073.073 0 0 1 .035.063v.328l-.035.063c-.021.014-.042.028-.07.035h-4.351v-.014Zm6.74.894c.091 0 .119.021.119.112 0 1.041.903 1.516 2.557 1.516 1.653 0 2.333-.629 2.333-1.383 0-.475-.364-.957-1.506-1.027l-2.06-.14c-1.394-.09-1.997-.615-1.997-1.44 0-.907.946-1.886 2.964-1.886 2.017 0 2.956.839 2.956 1.929 0 .049-.028.084-.105.084h-.448c-.07 0-.105-.021-.105-.105 0-.783-.694-1.39-2.284-1.39-1.423 0-2.291.593-2.291 1.369 0 .482.385.866 1.387.922l2.053.14c1.548.105 2.123.782 2.123 1.558 0 .775-.82 1.893-2.999 1.893-2.053 0-3.223-.782-3.223-1.95v-.146c0-.049.028-.084.098-.084l.456.014-.028.014ZM27.59 32.96c-.26 0-.357-.062-.385-.349-.148-1.656-1.752-3.039-4.694-3.039-2.943 0-5.423 1.775-5.423 4.835s2.326 4.834 5.422 4.834c2.922 0 4.52-1.201 4.695-2.808.028-.315.098-.392.406-.392h1.36c.14 0 .377-.041.377.168 0 2.46-2.515 4.583-6.823 4.583-4.31 0-7.525-2.375-7.525-6.385S18.258 28 22.51 28c4.547 0 6.824 2.522 6.824 4.75 0 .106-.098.21-.357.21H27.59Zm26.063-4.506a.23.23 0 0 1 .084-.168.275.275 0 0 1 .196-.076h6.123c3.377 0 5.843 1.446 5.843 4.073 0 2.005-1.485 3.27-3.685 3.745v.041c.33.266.633.563.904.888l2.711 3.262c.147.168.168.231.168.273 0 .042-.049.126-.196.126h-1.927a.41.41 0 0 1-.182-.042.562.562 0 0 1-.147-.105l-3.538-4.234h-4.26v4.13a.24.24 0 0 1-.09.174.301.301 0 0 1-.197.077h-1.52a.308.308 0 0 1-.196-.077.284.284 0 0 1-.091-.175V28.454Zm2.094 1.32v4.982h4.26c2.2 0 3.776-.873 3.776-2.48s-1.555-2.501-3.776-2.501h-4.26Zm11.357-.286v-.971a.35.35 0 0 1 .112-.189.509.509 0 0 1 .217-.097h13.452a.5.5 0 0 1 .224.097.314.314 0 0 1 .112.189v.978a.352.352 0 0 1-.112.189.501.501 0 0 1-.224.098H75.21v10.577a.216.216 0 0 1-.09.168.325.325 0 0 1-.197.077h-1.534a.309.309 0 0 1-.197-.077.253.253 0 0 1-.09-.175v-10.57h-5.676a.445.445 0 0 1-.217-.098.315.315 0 0 1-.112-.189l.007-.007Zm30.589 4.919c0 4.01-3.475 6.406-7.756 6.406-4.28 0-7.756-2.396-7.756-6.406S85.677 28 89.937 28s7.756 2.396 7.756 6.407Zm-13.403 0c0 3.018 2.557 4.834 5.647 4.834 3.09 0 5.654-1.816 5.654-4.834s-2.494-4.835-5.654-4.835c-3.16 0-5.647 1.775-5.647 4.835Zm30.61.824c0 3.081-2.375 5.582-7.301 5.582-4.259 0-7.517-2.396-7.517-6.406S103.34 28 107.599 28c4.785 0 6.747 2.585 6.824 4.57 0 .125-.07.188-.336.188h-1.506c-.12 0-.239 0-.267-.189-.196-1.362-1.436-2.99-4.715-2.99-3.089 0-5.422 1.774-5.422 4.835 0 3.06 2.326 4.834 5.422 4.834 3.398 0 5.073-1.614 5.073-3.185h-6.124a.5.5 0 0 1-.224-.098.352.352 0 0 1-.112-.189v-.992a.352.352 0 0 1 .112-.189.5.5 0 0 1 .224-.097h8.352v.74-.007Zm3.25-6.777a.24.24 0 0 1 .091-.175.28.28 0 0 1 .197-.076h6.13c3.37 0 5.836 1.446 5.836 4.073 0 2.005-1.485 3.27-3.685 3.744v.042c.33.266.633.563.904.888l2.711 3.262c.147.168.168.231.168.273 0 .042-.049.126-.189.126h-1.969a.41.41 0 0 1-.182-.042.568.568 0 0 1-.147-.105l-3.517-4.234h-4.239v4.13a.24.24 0 0 1-.091.174.3.3 0 0 1-.196.077h-1.534a.311.311 0 0 1-.197-.077.285.285 0 0 1-.091-.175V28.454Zm2.109 1.32v4.982h4.26c2.2 0 3.783-.873 3.783-2.48s-1.562-2.501-3.783-2.501h-4.26Zm23.148 8.266h-7.973l-1.317 2.291c-.168.273-.21.273-.504.273h-1.556c-.049 0-.105 0-.14-.035a.174.174 0 0 1-.077-.112.693.693 0 0 1 .119-.252L139 28.203h.862l7.034 12.016c.056.077.098.161.119.252 0 .042-.035.084-.077.112a.202.202 0 0 1-.14.035h-1.555c-.287 0-.336 0-.505-.273L143.4 38.04h.007Zm-.918-1.558-1.912-3.305c-.364-.622-1.079-2.27-1.079-2.27h-.133l-1.079 2.27-1.948 3.305h6.151Zm7.112 4.129a.311.311 0 0 1-.197-.077.253.253 0 0 1-.091-.175V28.454a.24.24 0 0 1 .091-.175.303.303 0 0 1 .197-.076h5.878c3.377 0 5.843 1.676 5.843 4.485s-2.487 4.464-5.843 4.464h-4.071v3.2a.24.24 0 0 1-.091.175.353.353 0 0 1-.203.084h-1.52.007Zm1.807-5.03h4.022c2.2 0 3.776-1.09 3.776-2.893 0-1.803-1.555-2.913-3.776-2.913h-4.022v5.805Zm26.833 4.771a.216.216 0 0 1-.091.168.275.275 0 0 1-.196.077h-1.534a.306.306 0 0 1-.196-.077.253.253 0 0 1-.091-.175v-4.793h-9.928v4.793a.24.24 0 0 1-.091.175.275.275 0 0 1-.196.077h-1.535a.31.31 0 0 1-.196-.077.284.284 0 0 1-.091-.175v-11.89a.24.24 0 0 1 .091-.175.302.302 0 0 1 .196-.077h1.535c.072.001.142.029.196.076a.284.284 0 0 1 .091.175v5.52h9.907v-5.52a.24.24 0 0 1 .091-.175.3.3 0 0 1 .196-.076h1.534c.073.001.142.029.196.076a.253.253 0 0 1 .091.168l.021 11.898v.007Zm2.383-11.835c-.071-.084-.099-.119-.099-.16 0-.015 0-.036.007-.05 0-.014.014-.027.028-.041a.117.117 0 0 1 .05-.028c.014 0 .035-.007.056-.007h1.807a.689.689 0 0 1 .336.041c.1.04.184.111.239.203l3.615 4.073c.532.58 1.03 1.258 1.03 1.258h.147l1.023-1.258 3.615-4.073c.049-.09.14-.16.238-.203a.608.608 0 0 1 .336-.041h1.808s.035 0 .056.006c.014 0 .035.015.049.029a.146.146 0 0 1 .028.041c0 .014.007.035.007.05 0 .041-.021.083-.091.16l-6.102 6.924v4.918a.24.24 0 0 1-.091.175.303.303 0 0 1-.197.077h-1.534a.325.325 0 0 1-.196-.077.283.283 0 0 1-.091-.168v-4.94l-6.081-6.902.007-.007Z"/><path fill="#2E95D2" d="m49.603 41.149-5.66-1.887c1.358-.992 2.935-.782 4.44-.712.274 0 .575.46.765.754.378.594.693 1.223 1.03 1.838h-.568l-.007.007Z"/><path fill="#6BC291" d="M43.991 31.528a21.97 21.97 0 0 0-2.158 1.356l-9.423 7.643.456-.971 7.342-10.69c.785-1.125 1.093-1.125 1.885-.035l1.891 2.704.007-.007Z"/><path fill="#18B5CB" d="m47.15 36.125-5.233 1.838-6.522 2.536 8.232-6.267c.904-.664 1.933-.433 2.543.454l.974 1.44h.007Z"/></svg>