<svg xmlns="http://www.w3.org/2000/svg" fill="none" viewBox="0 0 210 80"><path fill="#000" d="M26.445 31.558v-.065a.214.214 0 0 1 .014-.109l.092-.189.094-.21c.043-.087.071-.179.112-.266l.137-.27c.079-.154.136-.318.169-.486a.9.9 0 0 0 .044-.167c0-.056.049-.104.045-.165.038-.047.032-.11.06-.155.029-.046.046-.107.073-.156.017-.04.031-.08.044-.12a.36.36 0 0 0 .036-.145v-.087c0-.058.01-.115.028-.17.026-.073 0-.156.05-.23a.57.57 0 0 1 .04-.213.214.214 0 0 0 0-.064.98.98 0 0 1 .033-.19.794.794 0 0 0 .02-.193.955.955 0 0 0 .042-.32c0-.043.008-.085.023-.125a.146.146 0 0 0 .01-.064l.01-.239a.597.597 0 0 1 .027-.235.262.262 0 0 0 0-.086v-1.367l-.044-.885c0-.058-.105-1.127-.143-1.304a.788.788 0 0 1-.028-.148.43.43 0 0 0-.038-.123c-.013-.041-.01-.086-.022-.128a.48.48 0 0 1-.025-.105.545.545 0 0 0-.024-.213c-.03-.06-.123-.564-.139-.623l-.193-.748-.177-.623-.189-.549a.021.021 0 0 1 .018-.023c.006 0 .01 0 .015.005l.09.104.178.246.306.443.35.551.165.28c.019.027.392.642.521.89l.429.866c.048.095.185.448.234.529.016.093.074.138.088.232a.573.573 0 0 0 .05.11c.03.058.059.117.081.18.02.07.244.596.26.643.03.089.076.176.105.266.03.09.07.173.106.26l.121.325c.043.105.068.188.103.297.033.081.061.165.083.25.029.059.05.12.068.182.02.045.035.093.042.142.007.03.015.06.026.088.043.094.075.192.096.293a.348.348 0 0 0 .025.067c.04.047.016.106.044.156.028.05.02.107.057.156 0 .08.04.155.042.237 0 .037.032.063.04.098.03.076.05.155.061.236.019.075.043.148.07.22a.1.1 0 0 1 0 .044c.009.072.034.14.075.2.014.041.02.086.016.13a.359.359 0 0 0 .033.19c.01.028.012.057.01.086 0 .036.032.068.046.103.034.085.048.179.04.27.001.051.013.1.033.147.02.053.012.116.031.169.018.05.027.102.027.155v.391a.255.255 0 0 0 .025.156v.017c0 .066.007.131.018.195.015.06.025.12.028.18v.175a.429.429 0 0 1-.036.172.187.187 0 0 0 .012.155c.029.07.038.145.03.22 0 .06.027.089.05.143.016.051.03.103.037.156.008.042.014.214.014.246v.426c0 .18-.025.352-.03.532 0 .072-.01.142-.01.219v.092l-.032.44-.145 1.036a1.5 1.5 0 0 0-.044.186 1.735 1.735 0 0 0-.057.22c0 .071-.047.132-.046.205-.03.05-.047.106-.075.156a.798.798 0 0 1-.137.18.76.76 0 0 1-.181.192c-.131.09-.273.16-.421.218-.104.055-.2.122-.288.198a.895.895 0 0 0-.158.106c-.048.058-.058.05-.138.098a.486.486 0 0 0-.144.176c-.025.055-.1.092-.157.138a1.4 1.4 0 0 0-.203.155c-.073.072-.185.144-.257.217-.073.073-.033.036-.266.125a.312.312 0 0 0-.088.068 1.24 1.24 0 0 0-.112.13c-.101.133-.22.253-.355.355l-.193.155c-.022.017-.024.022-.05.025-.12.016-.19.142-.286.192-.064.096-.157.156-.216.282-.015.036-.061.034-.09.055-.058.043-.12.082-.182.12-.077.041-.035 0-.173.155a1.201 1.201 0 0 1-.178.13.962.962 0 0 0-.197.176c-.053.057-.112.11-.177.155a.144.144 0 0 0-.063.108c-.01.026-.036.045-.052.068a.627.627 0 0 1-.233.262l-.341.343c-.1.12-.197.112-.278.198-.08.085-.074.042-.145.093a.523.523 0 0 0-.203.23c-.016.023-.031.063-.046.088a.723.723 0 0 1-.225.242 1.712 1.712 0 0 0-.1.085l-.327.28c-.14.1-.261.225-.359.365-.025.036-.133.156-.157.192a2.7 2.7 0 0 0-.225.238 2.02 2.02 0 0 1-.169.18c-.112.111-.217.23-.315.353l-.27.312-.371.486-.315.405-.252.344-.233.312-.36.5-.37.553a4.581 4.581 0 0 0-.316.572c-.05.12-.09.244-.118.37a.217.217 0 0 0-.01.064c0 .067-.036.125-.037.19v.14c0 .022-.035.068-.041.088a.152.152 0 0 0 0 .128.166.166 0 0 1 .022.082c0 .013.058.028.064.038.007.009 0 .068.01.124a.32.32 0 0 0 .066.114l.109.128c.074.1.14.203.201.311.076.131.184.259.262.39l.113.2a.32.32 0 0 1 .019.108.2.2 0 0 0 .057.119c.023.025.096.073.118.09.047.037.025.037.1.056a.586.586 0 0 1 .127.13.168.168 0 0 1 .015.079c.01.051.035.099.071.137a.638.638 0 0 0 .115.12c.098.077.186.166.263.263.071.072.158.167.216.246l.137.175a.976.976 0 0 1 .103.137c.047.058.099.109.157.156a.557.557 0 0 1 .157.2c.117.124.24.24.37.35.06.036.112.08.158.134l.583.589.383.356.593.538.098.096a.34.34 0 0 1 .062.106c.021.036.026.08.012.119-.033.107.106.257.158.243.015 0 .07.05.093.07a.109.109 0 0 0 .105.025c.049 0 .058.036.102.036a.94.94 0 0 1 .404.155l.515.373c.313.206.653.37 1.01.486.105.031.206.075.3.126a.63.63 0 0 0 .2.084.092.092 0 0 0 .12.013.245.245 0 0 1 .082 0 .718.718 0 0 0 .253-.072c.074-.023.104-.075.19-.073a.21.21 0 0 0 .087-.023c.05-.03.103-.057.158-.078.038-.008.06 0 .083-.033a1.164 1.164 0 0 1 .364-.234.103.103 0 0 1 .071-.017h.167a.115.115 0 0 0 .05-.012c.032-.032.104-.175.145-.189a.654.654 0 0 0 .142-.067c.044-.026.076-.01.077-.062 0-.025.05-.073.085-.108.037-.034.046-.047.068-.05.022-.003.073 0 .096-.032.024-.033.018-.05.062-.088.044-.037.208-.155.274-.205a.115.115 0 0 1 .055-.024.201.201 0 0 0 .14-.068 1.82 1.82 0 0 0 .355-.374c.064-.1.138-.192.221-.276.101-.112.212-.216.33-.311.064-.055.135-.1.21-.138a.32.32 0 0 0 .158-.096l.158-.217a.431.431 0 0 1 .064-.093.907.907 0 0 1 .229-.156l.157-.076c.044-.022.131-.084.125-.156a.81.81 0 0 1 .244-.271.496.496 0 0 0 .148-.137.718.718 0 0 1 .2-.189c.025-.015.022 0 .044-.018a.175.175 0 0 0 .04-.145c0-.055 0-.052.026-.094a.275.275 0 0 1 .077-.07c.033-.012.041 0 .071-.023a.287.287 0 0 0 .145-.183c0-.043-.016-.065 0-.105.041-.086.088-.169.142-.248l.368-.468.462-.659.19-.261.28-.362c.106-.154.195-.32.26-.497a.723.723 0 0 0 .032-.08.97.97 0 0 0 0-.287c-.038-.078-.042-.169-.085-.245l-.107-.187a4.544 4.544 0 0 0-.41-.58l-.42-.509a1.04 1.04 0 0 1-.173-.24.829.829 0 0 0-.062-.117 1.41 1.41 0 0 0-.269-.26 1.238 1.238 0 0 1-.28-.291l-.082-.103c-.18-.172-.315-.338-.473-.524a8.975 8.975 0 0 0-.573-.587l-.249-.226a1.545 1.545 0 0 0-.217-.2c-.037-.023-.1-.074-.133-.1l-.124-.09a2.27 2.27 0 0 0-.254-.129 1.41 1.41 0 0 0-.343 0c-.035 0-.082.032-.116.035-.068 0-.114.051-.178.065a.764.764 0 0 0-.158.075l-.455.237-.364.204-.427.265a.356.356 0 0 1-.176.087l-.103.08a.793.793 0 0 1-.189.132.605.605 0 0 0-.18.134c-.131.146-.287.23-.426.37-.102.056-.165.156-.274.21a1.99 1.99 0 0 0-.236.25c-.014.017-.08.081-.098.097l-.085.08-.12.12a1.609 1.609 0 0 1-.29.245.385.385 0 0 0-.083.084l-.091.156c-.038.06-.074.095-.11.14l-.114.139a5.132 5.132 0 0 0-.413.527l-.091.146a.496.496 0 0 0-.07.213.257.257 0 0 0 .027.133c.068.142.15.277.245.403.076.1.14.207.192.321a.791.791 0 0 0 .201.208l.145.127c.016.018.025.04.029.064.01.094.034.095.11.134.025.013.079 0 .102.025l.22.192c.094.092.196.176.303.254l.076.056c.178.117.216.118.263.112h.157a.254.254 0 0 0 .15-.06c.105-.057.205-.125.294-.205l.34-.329c.05-.032.07-.06.072-.098a.832.832 0 0 1 .034-.187.25.25 0 0 0 .019-.082c.008-.072.019-.11.028-.175l.011-.103v-.375c0-.028-.01-.112-.015-.148l-.02-.173-.024-.168-.05-.287c0-.034-.03-.146-.035-.18a1.018 1.018 0 0 1-.018-.1c.003-.005.01-.007.013-.004l.003.004.061.068c.05.053.084.11.13.165.196.253.371.52.52.803l.086.156c.038.06.07.124.094.191.02.062.057.117.08.178.03.065.053.132.069.202.037.05.025.112.048.156.021.055.033.113.036.171 0 .028 0 .064.01.092a.083.083 0 0 1 0 .04.528.528 0 0 0-.02.17.276.276 0 0 1-.046.114l-.14.245a2.28 2.28 0 0 1-.17.221.314.314 0 0 1-.12.092.82.82 0 0 0-.236.192.38.38 0 0 0-.06.089.632.632 0 0 1-.226.25c-.047.035-.075.067-.118.106a.997.997 0 0 1-.105.077c-.158.095-.279.204-.43.302-.05.03-.103.054-.158.076-.045.022-.086.011-.13.038a.206.206 0 0 1-.074.018h-.101a.762.762 0 0 1-.288-.042c-.048-.017-.104-.03-.15-.051l-.158-.08-.096-.048-.23-.132-.338-.234-.175-.125-.419-.333a.62.62 0 0 1-.158-.156.465.465 0 0 0-.141-.156c-.082-.062-.077-.03-.14-.09a3.895 3.895 0 0 1-.353-.347.147.147 0 0 0-.066-.108 2.21 2.21 0 0 1-.377-.349l-.175-.2a4.945 4.945 0 0 1-.417-.538 2.365 2.365 0 0 1-.158-.292.356.356 0 0 1-.028-.078c0-.08-.013-.14-.016-.22a.879.879 0 0 0-.014-.129v-.012a.311.311 0 0 1 .04-.167c.094-.216.206-.425.337-.623l.534-.735c.078-.081.15-.169.215-.26.074-.128.103-.133.178-.166.158-.07.12-.076.282-.03.03.012.062.021.093.026.013 0 .019 0 .027-.01.008-.009.05-.053.053-.067.004-.014-.022-.018 0-.073.023-.054-.009-.073 0-.11a.487.487 0 0 0 0-.097c0-.038-.015-.07 0-.104.046-.103.11-.198.185-.282l1.135-1.138.367-.347c.133-.133.287-.242.457-.323a.294.294 0 0 0 .17-.129c.029-.06.073-.09.096-.139a.066.066 0 0 1 .013-.017l.047-.075a.986.986 0 0 1 .202-.185c.042-.032.083-.067.123-.103.253-.229.508-.428.787-.635.315-.242.65-.457.985-.677.176-.109.362-.205.552-.286a1.54 1.54 0 0 1 .277-.073 1.32 1.32 0 0 1 .405.057c.05.02.101.014.145.045.044.032.109.035.158.064.05.025.104.048.157.067.079.038.155.081.227.131.074.06.145.122.211.19l.1.089c.05.056.087.058.157.089.113.048.219.112.315.188l.189.169c.027.025.058.023.085.039a.169.169 0 0 1 .112.087.209.209 0 0 0 .121.084c.027.01.052.048.072.067a.64.64 0 0 0 .254.192c.019 0 .058.057.076.071a.402.402 0 0 0 .129.072c.058.015.11.05.148.096a.24.24 0 0 0 .05.04c.14.087.276.183.402.29.022.016.137.085.157.102.016.01.03.022.04.037.01.011.036.058.056.083.02.025.046.014.057.025.014.026.033.05.055.07.024.017.05.025.104.058a.47.47 0 0 1 .11.106.376.376 0 0 0 .183.138c.057.048.11.1.158.156 0 0 .022-.012.036.014.003.017.01.033.02.047.08.067.161.13.248.188l.548.468c.053.052.112.1.175.14.091.058.157.121.26.176a.813.813 0 0 1 .124.106l.447.453.42.433.28.295.206.24.274.327c.169.2.323.411.472.623.126.177.232.367.316.567.037.092.055.19.05.288a.755.755 0 0 1-.033.278.45.45 0 0 0-.014.129c0 .044-.04.078-.038.123a.36.36 0 0 1-.043.126l-.064.176-.315.611-.17.277-.204.3-.341.495-.17.234c-.1.155-.226.311-.336.447l-.49.674-.315.387-.433.587-.419.555a3.185 3.185 0 0 1-.118.138c-.1.106-.192.218-.279.334-.094.12-.206.221-.29.349-.064.08-.13.158-.198.235l-1.09 1.201-.315.312c-.168.156-.279.311-.472.467-.14.117-.284.267-.415.393-.132.137-.27.266-.419.388a2.29 2.29 0 0 0-.129.12c-.194.197-.398.346-.602.532-.09.066-.174.138-.253.214a1.134 1.134 0 0 1-.287.156c-.138.06-.217.11-.353.18-.052.027-.118.077-.168.106a.52.52 0 0 0-.158.134l-.282.396a.676.676 0 0 1-.124.134c-.36.28-.736.54-1.125.779l-.195.11c-.083.056-.172.1-.266.133a.84.84 0 0 1-.235.098.657.657 0 0 1-.26.063c-.05 0-.099.006-.146.021a.423.423 0 0 1-.188 0h-.143c-.042 0-.091-.021-.143-.025-.054-.045-.12 0-.177-.043a1.28 1.28 0 0 1-.237-.076l-.28-.12-.256-.117-.709-.396-.51-.312-.48-.3-.473-.33-.205-.156a.285.285 0 0 1-.08-.088.471.471 0 0 0-.088-.145 5.047 5.047 0 0 0-.503-.447.897.897 0 0 0-.132-.095c-.189-.092-.37-.2-.542-.32l-.157-.113s-.137-.093-.202-.156a1.164 1.164 0 0 0-.205-.155 1.103 1.103 0 0 1-.198-.14l-.293-.293a1.057 1.057 0 0 1-.157-.167.57.57 0 0 0-.17-.18c-.05-.03-.108-.102-.17-.118-.06-.015-.04-.053-.089-.075a.376.376 0 0 1-.157-.079.43.43 0 0 0-.107-.112.452.452 0 0 1-.12-.106 1.35 1.35 0 0 0-.315-.312c-.022-.015-.088-.087-.109-.106-.06-.056-.157-.132-.287-.238-.039-.033-.03-.01-.088-.058-.056-.046-.11-.1-.157-.155-.013-.015-.046-.036-.047-.075a.273.273 0 0 0-.015-.047 1.129 1.129 0 0 0-.044-.189.507.507 0 0 1 0-.194v-.042c.003-.03 0-.06-.01-.086-.028-.044-.035-.095-.08-.13a.209.209 0 0 1-.063-.07c-.017-.038-.045-.09-.078-.094-.033-.005-.073 0-.08-.015-.042-.095-.116-.1-.182-.166-.01-.01-.027-.042-.04-.042-.053 0-.083-.014-.135-.013-.126 0-.129 0-.198-.067a1.196 1.196 0 0 0-.143-.138.266.266 0 0 1-.117-.136.464.464 0 0 1-.044-.126.266.266 0 0 0-.077-.147l-.126-.11a.56.56 0 0 1-.145-.18c-.076-.08-.096-.141-.158-.224-.047-.056-.063-.127-.133-.155a.11.11 0 0 1-.076-.08c0-.04-.014-.087-.055-.096-.074-.016-.068.014-.087-.026a.35.35 0 0 0-.07-.118.32.32 0 0 1-.103-.117.297.297 0 0 0-.035-.08l-.112-.13s-.091-.142-.113-.13a1.476 1.476 0 0 0-.157-.155.131.131 0 0 1-.048-.075.884.884 0 0 0-.038-.121c-.01-.038-.017-.085-.048-.103-.078-.049-.095-.058-.122-.11a.684.684 0 0 0-.102-.155c-.036-.036-.087-.048-.12-.087-.033-.04-.04-.083-.064-.119a.89.89 0 0 0-.103-.127 1.214 1.214 0 0 1-.146-.21l-.192-.295s-.112-.201-.188-.29l-.287-.483-.204-.396a.558.558 0 0 1-.046-.085 2.843 2.843 0 0 0-.132-.312c0-.012-.011-.028-.016-.042a2.684 2.684 0 0 1-.187-.686c-.013-.145 0-.29 0-.434a.23.23 0 0 1 .018-.117.125.125 0 0 0 .013-.053c.006-.077.02-.152.043-.226.01-.072.056-.156.064-.21.01-.039.02-.077.033-.114.011-.04.041-.093.057-.134a.68.68 0 0 1 .222-.3c.054-.041.106-.07.13-.13.026-.06.06-.06.086-.095.027-.034.031-.031.033-.053 0-.089.012-.095.04-.11a.13.13 0 0 0 .077-.1.914.914 0 0 1 .074-.117c.022-.052.05-.1.085-.145a.343.343 0 0 0 .082-.128.257.257 0 0 1 .074-.08.536.536 0 0 0 .223-.31c.011-.035.032-.066.041-.1a.288.288 0 0 1 .065-.13.593.593 0 0 0 .157-.184.425.425 0 0 1 .091-.084.127.127 0 0 0 .138-.087c.094-.1.178-.209.248-.327.073-.094.136-.192.193-.295.009-.025.018-.062.045-.073a.5.5 0 0 0 .174-.184c.046-.073.098-.142.157-.206.083-.094.154-.199.211-.311a.524.524 0 0 1 .145-.18c.049-.032.121-.1.189-.157.022-.017.063-.06.085-.079.058-.051.098-.086.091-.165 0-.034.005-.067.018-.098l.097-.139c.018-.025.035-.058.059-.064a.23.23 0 0 0 .129-.107c0-.075.025-.102.067-.156a.753.753 0 0 0 .09-.097.285.285 0 0 1 .114-.118l.286-.253c.063-.057.041-.084.089-.096.047-.013.102-.033.1-.073-.001-.04-.026-.07.011-.11.038-.038.101-.146.145-.155a.12.12 0 0 0 .098-.066l.142-.184.11-.168c.032-.039.024-.036.053-.03.071.015.149-.1.158-.168.063-.085.098-.172.137-.194.04-.022.117-.1.158-.133a.37.37 0 0 0 .093-.146.6.6 0 0 1 .18-.201c.016-.013.048 0 .067-.01a.28.28 0 0 0 .14-.124c.07-.098.132-.203.186-.312a.32.32 0 0 1 .086-.107c.049-.056.102-.108.158-.156a.748.748 0 0 0 .142-.13l.255-.283a1.43 1.43 0 0 0 .148-.176l.206-.277c.068-.097.15-.184.243-.257a.643.643 0 0 0 .148-.136 2.19 2.19 0 0 1 .244-.294.918.918 0 0 0 .143-.169l.315-.467.463-.608.534-.634c.065-.06.137-.113.216-.155a.166.166 0 0 1 .082-.027c.019.011.036.011.07-.026 0 0 0-.024-.012-.047-.01-.024-.012-.031-.012-.038a.062.062 0 0 1 .012-.043 2.6 2.6 0 0 1 .315-.486l.334-.42c.058-.07.11-.142.158-.218a.563.563 0 0 1 .091-.12l.12-.108a.571.571 0 0 0 .108-.13.762.762 0 0 1 .087-.156.18.18 0 0 0 .035-.054c.01-.05.031-.1.058-.143.079-.105.142-.247.232-.343.022-.024.02-.04.052-.04h.116a.081.081 0 0 0 .044-.024.32.32 0 0 0 .109-.206.879.879 0 0 0 .028-.155Zm52.99 4.735c1.713.013 3.318.196 4.882.703 1.35.436 2.582 1.05 3.646 1.995a9 9 0 0 1 1.25 1.368c.63.848.776 1.78.66 2.805a3.422 3.422 0 0 1-.69 1.754 8.801 8.801 0 0 1-3.1 2.6c-1.14.574-2.361.97-3.623 1.181-1.455.25-2.937.316-4.41.2a14.687 14.687 0 0 1-4.182-.928 9.209 9.209 0 0 1-3.514-2.336 6.447 6.447 0 0 1-.787-.987 3.305 3.305 0 0 1-.523-1.688 5.177 5.177 0 0 1 .061-1.19 3.72 3.72 0 0 1 .717-1.535 8.864 8.864 0 0 1 2.723-2.337 12.31 12.31 0 0 1 3.15-1.201 16.583 16.583 0 0 1 3.74-.404Zm-5.168 6.56c0 .457.097.908.283 1.326.187.417.458.792.799 1.1a7.07 7.07 0 0 0 2.647 1.558 4.947 4.947 0 0 0 3.005 0 7.333 7.333 0 0 0 2.806-1.76 3.105 3.105 0 0 0 .767-1.341c.107-.46.146-.932.115-1.403a3.246 3.246 0 0 0-1.041-2.313 7.794 7.794 0 0 0-2.11-1.394 4.896 4.896 0 0 0-3.672-.175c-.89.316-1.71.8-2.415 1.424-.38.32-.682.721-.887 1.172-.204.45-.304.94-.294 1.434.003.044-.005.295-.003.373Zm86.985-6.41h3.343c1.341-.013 3.283.261 4.253.587a9.355 9.355 0 0 1 2.24 1.203c.308.227.567.514.759.844.127.348.279 1.17.157 1.348a13.317 13.317 0 0 1-1.509 1.511c-.532.383-1.975 1.165-2.135 1.254-.114.07-.128.147-.057.239.901 1.163 1.907 2.46 2.914 3.54a8.726 8.726 0 0 0 2 1.679c.06.034.251.13.251.137h-6.395c0-.011-2.254-3.116-3.536-5.155l-.175-.272.523-.275.945-.532c.695-.375 1.197-.853 1.745-1.45.21-.223.366-.49.457-.779a.717.717 0 0 0-.194-.723c-.62-.656-1.277-1.117-2.178-1.268a9.379 9.379 0 0 0-1.844-.156c-.223-.01-.308.042-.315.29l.122 7.888c.048.975.63 1.938.712 2.117.038.08.142.267.142.267h-7.031s.158-.217.186-.284c.098-.201.663-1.192.724-2.265.01-.468.114-6.89-.037-7.837a9.347 9.347 0 0 0-.158-1.05c-.137-.299-.731-.77-.731-.77l4.822-.088ZM101.666 47.83l.994.99-5.018.002.893-1.02.003-10.055-1.15-1.315 4.965.01 9.499 7.9-.038-6.698-1.266-1.212 5.32.003-1.074 1.2v10.042l.728 1.106h-4.245l-9.611-7.934v6.98Zm-42.506-5.7.533.169a5.633 5.633 0 0 1 2.027 1.217c.244.211.448.464.603.746.263.458.293 1.014.08 1.497-.21.477-.546.89-.971 1.198-.377.29-.789.533-1.226.723a11.226 11.226 0 0 1-3.169.854 30.39 30.39 0 0 1-3.531.2l-5.93.052h-.836l.63-.458c.313-.213.508-.559.529-.934.017-.198 0-9.495-.01-9.692a.921.921 0 0 0-.326-.675c-.198-.156-.352-.262-.553-.41l-.27-.187h.571l7.438.102c1.455.045 2.896.286 4.285.718.46.14.898.342 1.301.601.315.199.591.451.816.746.487.669.488 1.258.085 1.918-.153.26-.357.488-.598.672-.303.22-.614.423-.925.634-.113.075-.553.31-.553.31Zm-6.37 4.137v.78h.272a8.423 8.423 0 0 0 1.521-.091 6.204 6.204 0 0 0 1.783-.594c.29-.137.55-.328.767-.562.353-.388.422-.954.172-1.413a3.137 3.137 0 0 0-.542-.717 9.06 9.06 0 0 0-2.08-1.594l-.427-.226 1.517-1.176a6.75 6.75 0 0 0 .6-.536.617.617 0 0 0 .088-.768 2.345 2.345 0 0 0-.923-.779 5.04 5.04 0 0 0-1.022-.35c-.458-.098-.92-.172-1.385-.223a4.833 4.833 0 0 0-.34-.025v.685l-.002 7.59Zm128.041 2.57.759-.756-.102-8.669a5.15 5.15 0 0 0-.805-2.55l-.114-.187 8.164-.031 4.914-.127c.14 0 .145-.015.194.108.302.688.548 1.4.734 2.127l.034.168-.335-.098c-.819-.23-1.66-.373-2.509-.424-1.405-.105-2.801-.13-4.207-.136a3.945 3.945 0 0 0-.542.028.413.413 0 0 0-.315.295c-.03.099-.047.2-.052.304-.055.668-.071 2.492-.068 2.946 0 .106-.009.168.079.18.342.032.685.045 1.029.041.75-.012 1.499-.064 2.244-.156a9.1 9.1 0 0 0 1.644-.336c.119-.038.345-.11.473-.131.091-.017.099 0 .107.09.038.852.028 1.767.016 2.622 0 .097 0 .184-.082.165a8.617 8.617 0 0 1-.49-.13 12.026 12.026 0 0 0-2.348-.429l-2.49-.09c-.18-.01-.158.04-.158.202l.014 3.083c.01.117.043.25.208.285a3.4 3.4 0 0 0 .665.066l4.63.014a10.27 10.27 0 0 0 1.906-.168c.246-.047.444-.097.689-.156.042-.01.283-.084.283-.084l-.389.892-.436 1.002a.102.102 0 0 1-.035.041.1.1 0 0 1-.052.015l-13.257-.017ZM136.109 36.46l.013 2.294-.259-.044-1.269-.297c-1.733-.389-3.475-.367-5.232-.26-.268.02-.531.09-.774.205a.628.628 0 0 0-.315.467c-.02.147-.031 8.99-.031 8.99l1.124.975-7.053-.044 1.049-.956v-8.605a7.317 7.317 0 0 0-.1-1.402 1.544 1.544 0 0 0-.473-.807c-.158-.156-.603-.578-.603-.578l13.923.062Zm6.04 12.285 1.053-.924-.03-10.336-1.052-.981 7.073-.014-1.126 1.023.016 10.28 1.066.952h-7Zm14.546 7.14a1.735 1.735 0 0 1-1.807-1.656v-.058c-.025-1.106.934-1.765 1.755-1.773a1.754 1.754 0 0 1 1.789 1.717 1.752 1.752 0 0 1-1.735 1.77h-.002Zm.896-1.75a1.018 1.018 0 0 0-.137-.543.935.935 0 0 0-.902-.416.893.893 0 0 0-.8.763c-.01.124-.01.248 0 .372a.916.916 0 0 0 .344.614.935.935 0 0 0 .941.126c.389-.179.556-.48.554-.917v.001Zm-34.169-1.578 1.396.019c.315-.005.627.07.905.218.541.324.774.978.717 1.686a1.586 1.586 0 0 1-1.158 1.3 3.007 3.007 0 0 1-.616.068h-1.244v-3.29Zm.755 2.63c.277.005.554-.008.83-.037a.814.814 0 0 0 .66-.647c.132-.516-.133-1.139-.654-1.224a7.902 7.902 0 0 0-.836-.05v1.958Zm9.477-11.31c0 .105-.015.132-.073.127a.496.496 0 0 1-.176-.066c-1.344-.825-3.81-1.246-4.28-1.402-.042-.015-.137-.043-.148-.074-.011-.032.098-.058.158-.077.143-.045 3.748-.934 4.421-1.036.041 0 .066.019.066.066 0 .046.036.598.043 1.151.006.626-.013 1.248-.011 1.312Zm-62.958 8.616c.457-.01.9.158 1.232.468l-.408.553a3.62 3.62 0 0 0-.385-.243.955.955 0 0 0-.7-.088.28.28 0 0 0-.215.272.292.292 0 0 0 .205.27c.154.057.312.103.473.14.224.045.44.125.638.238.404.277.492.525.439.983a.895.895 0 0 1-.473.623c-.368.17-.782.22-1.18.14a2.16 2.16 0 0 1-.979-.547l.44-.522c.166.162.36.292.574.385.164.056.337.08.51.066a.948.948 0 0 0 .172-.035.364.364 0 0 0 .23-.19.266.266 0 0 0-.053-.265.653.653 0 0 0-.303-.155 5.943 5.943 0 0 1-.732-.194c-.373-.155-.647-.383-.682-.758a.913.913 0 0 1 .502-.974 1.56 1.56 0 0 1 .695-.167Zm34.399-.004h.736v1.79c-.007.191.026.383.094.564a.61.61 0 0 0 .315.311.957.957 0 0 0 .569 0 .521.521 0 0 0 .389-.413c.025-.196.036-.394.033-.592.008-.467 0-1.628 0-1.626h.759v1.813c0 .248-.043.494-.128.726a1.096 1.096 0 0 1-.715.698 1.837 1.837 0 0 1-1.091.052 1.158 1.158 0 0 1-.893-.888 1.929 1.929 0 0 1-.057-.441c-.017-.273-.011-1.966-.011-1.994Zm-15.286.112.005.673-.986-.005-.017 2.616-.698.002-.005-2.613-1.052-.005.002-.668h2.751Zm52.104 3.284-.761.006v-3.29l.755.006.006 3.278Zm29.631-3.387c.457-.01.9.157 1.232.467l-.408.553a3.614 3.614 0 0 0-.384-.243.955.955 0 0 0-.701-.087.28.28 0 0 0-.155.099.271.271 0 0 0-.059.172.29.29 0 0 0 .205.271c.154.056.311.103.472.14.224.045.44.125.638.237.405.278.493.525.439.983a.897.897 0 0 1-.472.624c-.369.17-.783.22-1.181.14a2.154 2.154 0 0 1-.978-.547l.439-.522c.167.162.361.291.575.385.164.056.337.08.509.065a.963.963 0 0 0 .173-.034.368.368 0 0 0 .23-.19.267.267 0 0 0-.054-.265.653.653 0 0 0-.302-.156 5.989 5.989 0 0 1-.733-.193c-.373-.156-.647-.383-.682-.759a.914.914 0 0 1 .503-.973 1.56 1.56 0 0 1 .694-.167Z"/></svg>