<svg xmlns="http://www.w3.org/2000/svg" fill="none" viewBox="0 0 210 80"><path fill="#000" d="M18.387 31.294 1 48.678l13.491-5.814 3.896 5.814 3.826-5.795 13.56 5.795-17.386-17.384Zm38.95 17.384H53.88V35.574L48.96 48.678h-2.396L41.64 35.674v13.004h-3.459V31.323h5.071l4.513 11.714 4.5-11.714h5.072v17.355ZM62.677 40c0 3.372 2.319 5.678 5.505 5.678 3.198 0 5.505-2.306 5.505-5.678s-2.307-5.678-5.505-5.678c-3.186 0-5.505 2.306-5.505 5.678Zm14.63 0c0 5.182-3.781 9-9.125 9-5.344 0-9.113-3.818-9.113-9s3.769-9 9.113-9c5.344 0 9.125 3.818 9.125 9Zm16.682 1.748c0 4.797-3.062 7.24-7.476 7.24s-7.476-2.443-7.476-7.24V31.322h3.471v10.253c0 2.85 1.612 4.102 4.005 4.102s4.005-1.251 4.005-4.102V31.322h3.471v10.426Zm34.653-.297h5.021l-2.504-6.707-2.517 6.707Zm11.42 7.227h-3.696l-1.512-4.041h-7.402l-1.513 4.04h-3.608l6.757-17.354h4.216l6.758 17.355ZM144.096 31.323h-3.459v17.355h3.459V31.323ZM158.454 31.323v11.59l-8.816-11.59h-3.236v17.355h3.459l.013-11.591 8.802 11.59h3.249V34.559h5.381v14.12h3.459v-14.12h4.122l1.259-3.235h-17.692ZM178.984 40c0 3.372 2.319 5.678 5.505 5.678 3.199 0 5.505-2.306 5.505-5.678s-2.306-5.678-5.505-5.678c-3.186 0-5.505 2.306-5.505 5.678Zm14.63 0c0 5.182-3.781 9-9.125 9-5.344 0-9.113-3.818-9.113-9s3.769-9 9.113-9c5.344 0 9.125 3.818 9.125 9Zm5.189-5.492v4.661h3.558c1.885 0 2.865-.768 2.865-2.33 0-1.55-.98-2.33-2.865-2.33h-3.558Zm0 7.823v6.347h-3.459V31.323h7.08c4.14 0 6.347 2.157 6.347 5.516 0 3.335-2.207 5.492-6.323 5.492h-3.645Zm-90.458-11.008v11.59l-8.815-11.59h-3.236v17.355h3.46l.011-11.591 8.803 11.59h3.249V34.559h5.381v14.12h3.459v-14.12h4.122l1.259-3.235h-17.693Z"/></svg>