<svg xmlns="http://www.w3.org/2000/svg" fill="none" viewBox="0 0 210 80"><path fill="#061A2B" d="M110.145 35.947h2.984a.925.925 0 0 1 .857.567l10.969 25.64a.94.94 0 0 1-.857 1.308h-3.514a.94.94 0 0 1-.865-.583l-2.31-5.715h-11.846l-2.239 5.702a.935.935 0 0 1-.865.596h-3.39a.926.926 0 0 1-.779-.424.941.941 0 0 1-.074-.889l11.076-25.639a.93.93 0 0 1 .857-.563h-.004Zm5.563 17.02-4.205-11.192-4.284 11.192h8.489ZM128.32 34.08h2.769c.513 0 .931.42.931.938v27.506a.936.936 0 0 1-.931.938h-2.769a.936.936 0 0 1-.931-.938V35.018c0-.517.418-.938.931-.938Zm5.629 19.974c0-1.475.265-2.817.791-4.022.53-1.205 1.241-2.234 2.144-3.089a9.48 9.48 0 0 1 3.204-1.984c1.233-.467 2.545-.7 3.936-.7s2.699.233 3.936.7a9.44 9.44 0 0 1 3.204 1.984 9.41 9.41 0 0 1 2.14 3.089c.525 1.205.79 2.547.79 4.022 0 1.476-.265 2.826-.79 4.04a9.483 9.483 0 0 1-2.14 3.126 9.814 9.814 0 0 1-3.204 2.042 10.523 10.523 0 0 1-3.936.738c-1.391 0-2.703-.246-3.936-.738-1.238-.492-2.306-1.171-3.204-2.042-.903-.867-1.614-1.91-2.144-3.127-.526-1.217-.791-2.563-.791-4.039Zm4.711 0c0 .726.111 1.451.331 2.176.215.726.546 1.372.985 1.943a5.095 5.095 0 0 0 1.66 1.4c.67.363 1.469.546 2.392.546.923 0 1.722-.183 2.392-.546a5.19 5.19 0 0 0 1.66-1.4 6.03 6.03 0 0 0 .985-1.943c.216-.725.327-1.45.327-2.176 0-.725-.111-1.446-.327-2.159a6.016 6.016 0 0 0-.985-1.921 4.988 4.988 0 0 0-1.66-1.38c-.67-.35-1.469-.525-2.392-.525-.923 0-1.726.175-2.392.525a4.978 4.978 0 0 0-1.66 1.38 6.016 6.016 0 0 0-.985 1.921 7.284 7.284 0 0 0-.331 2.16Zm25.588-6.044v-2.605a.567.567 0 0 1 .558-.563h1.006v-4.464c0-.517.418-.938.932-.938h2.69c.513 0 .931.421.931.938v4.465h3.701c.513 0 .931.416.931.937v1.855a.933.933 0 0 1-.931.938h-3.701v8.666c0 .83.149 1.517.443 2.06.294.541.961.816 1.987.816.306 0 .642-.029 1.006-.1h.008a.844.844 0 0 1 .683.175.858.858 0 0 1 .319.634l.074 1.826a.941.941 0 0 1-.72.954l-.716.142c-.567.087-1.109.133-1.623.133-1.237 0-2.235-.175-3.009-.525-.774-.35-1.382-.83-1.833-1.438a5.356 5.356 0 0 1-.928-2.101 12.407 12.407 0 0 1-.252-2.543v-8.707h-1.006a.557.557 0 0 1-.559-.563h.005l.004.008Zm-3.477-7.636c.074-.492.223-.946.443-1.359.219-.413.534-.75.948-1.008.409-.259.952-.388 1.622-.388.331 0 .65.025.948.079h.008a.752.752 0 0 0 .89-.684l.178-2.271a.938.938 0 0 0-.807-1.005c-.062-.012-.128-.017-.19-.025a11.287 11.287 0 0 0-1.292-.058c-1.44 0-2.636.225-3.588.68-.952.454-1.718 1.066-2.298 1.846-.579.775-.993 1.675-1.237 2.7a13.768 13.768 0 0 0-.365 3.206v2.76h-.649a.37.37 0 0 0-.323.187l-1.548 2.697a.564.564 0 0 0 .484.846h2.036v13.985c0 .517.419.938.932.938h2.769a.936.936 0 0 0 .931-.938V48.577h2.049a.557.557 0 0 0 .559-.562v-2.606a.564.564 0 0 0-.559-.562h-2.049v-3.03c0-.468.042-.947.116-1.439l-.008-.004Z"/><path fill="#3455DB" d="m79.871 46.118 5.07-8.845c.357-.625-.086-1.409-.806-1.409H73.994l-.05-.092L62.876 16.47a.93.93 0 0 0-1.614 0l-4.586 7.999a1.873 1.873 0 0 0 0 1.876l20.737 36.172a1.872 1.872 0 0 0 1.61.938h9.172a.94.94 0 0 0 .807-1.409l-9.135-15.931.004.004ZM35.934 63.462h9.173c.666 0 1.279-.358 1.61-.938l14.479-25.251c.36-.625-.091-1.409-.808-1.409h-9.172c-.666 0-1.279.358-1.614.938L35.127 62.054a.938.938 0 0 0 .807 1.408Z"/></svg>