<svg xmlns="http://www.w3.org/2000/svg" fill="none" viewBox="0 0 210 80"><path fill="#000" d="M195.327 46.026v-14.45h-5.697v18.818h18.068v-4.368h-12.371ZM98.817 31.861h-5.689v18.362h5.689V31.86ZM129.566 50.19l.016.033h-6.316l.016-.033-8.304-18.76h6.283l5.167 11.654 5.167-11.655h6.284l-8.313 18.761ZM152.068 43.94l-2.951 6.283h6.284l1.972-4.197h8.688l1.972 4.197h6.283l-3.325-7.074-.089-.188-.066-.146-5.338-11.386h-7.563l-5.338 11.386m6.284 0 2.836-6.04 2.836 6.04h-5.672ZM72.599 44.061a6.507 6.507 0 0 0 2.82-10.863 6.445 6.445 0 0 0-4.597-1.907h-14.93v18.932h5.688v-5.909h5.102l5.909 5.909h6.17l-6.162-6.162Zm-1.54-4.254a2.827 2.827 0 0 1-2.005.831h-7.66v-5.672h7.66a2.838 2.838 0 0 1 2.836 2.836c0 .783-.318 1.492-.831 2.005Z"/><path fill="#F72886" d="M35.094 43.882v-11.85c0-.374-.09-.733-.359-1.01-.155-.155-.367-.261-.554-.375l-3.618-2.119-10.872-6.349c-.139-.081-.302-.09-.432-.179h-.424c-.807.334-1.524.831-2.274 1.255l-3.757 2.176-4.458 2.6-1.45.856-3.317 1.931c-.294.171-.457.456-.579.758v17.84c.098.09.09.22.155.326.155.244.375.416.627.562l14.41 8.386c.211.123.415.245.651.31h.424c.521-.171.962-.522 1.434-.782 1.484-.807 2.926-1.696 4.401-2.535.432-.245.864-.505 1.288-.766.057-.025.114-.049.171-.09l4.075-2.371 1.923-1.133.074-.025 1.695-1.002c.155-.098.334-.163.44-.31.236-.285.342-.61.342-.986l-.016-5.126v.008ZM17.009 32.147c.506-.294 1.003-.612 1.516-.889.375-.204.766-.155 1.133.057l5.778 3.358c.84.48 1.435 1.149 1.785 2.045.139.367.22.742.228 1.133 0 .286-.008.579-.032.864a.948.948 0 0 0-.041.163c-.196.725-.562 1.304-1.214 1.703-.294.18-.603.367-.913.53-.147.082-.147.139-.073.27l1.809 3.153c.293.505.163 1.15-.375 1.434-.685.367-1.353.775-2.021 1.166l-5.053 2.942c-.31.18-.636.22-.97.024l-2.25-1.287L14.06 47.5l-2.885-1.687a.936.936 0 0 1-.489-.864V41.11c0-.081-.008-.155-.008-.228v-4.442c.008-.122 0-.244.033-.358.081-.277.277-.44.513-.587l3.562-2.07c.122-.073.244-.147.358-.22l1.85-1.076.017.017Z"/><path fill="url(#a)" d="M16.545 45.537c-.18-.31-.171-.326.18-.31.757.016 1.385-.26 1.85-.864.578-.75.684-1.597.472-2.502-.245-1.027-.856-1.785-1.76-2.306l-2.6-1.508-3.056-1.793c-.212-.122-.27-.09-.277.147v8.826l3.732 2.119 2.535 1.475c.375.22.741.465 1.14.636a.422.422 0 0 0-.097-.212l-2.12-3.708Z"/><defs><linearGradient id="a" x1="11.345" x2="19.145" y1="42.815" y2="42.815" gradientUnits="userSpaceOnUse"><stop stop-color="#F0C0EC" stop-opacity="0"/><stop offset="1" stop-color="#F0C0EC"/></linearGradient></defs></svg>