<svg xmlns="http://www.w3.org/2000/svg" fill="none" viewBox="0 0 210 80"><path fill="#4779FF" d="m35.073 27.264-1.905 1.77c-2.94 2.73-5.88 5.46-8.82 8.176-.676.63-1.38 1.23-2.22 1.59-1.006.435-1.59.165-1.906-.915-.45-1.515-.21-2.94.66-4.245.75-1.11 1.68-2.04 2.64-2.94 1.53-1.44 3.076-2.85 4.65-4.246.69-.615 1.44-1.17 2.356-1.35 2.745-.555 4.485 2.07 4.56 2.16h-.015ZM21.887 41.14c1.665-.48 2.925-1.545 4.14-2.655 3.886-3.54 7.771-7.095 11.671-10.62.855-.78 1.77-1.516 2.715-2.176 1.216-.825 2.536-.945 3.84-.165.466.285.93.615 1.32 1.005 1.336 1.38 2.64 2.775 3.916 4.2 1.365 1.516 2.7 3.046 4.005 4.606.45.54.81 1.155 1.11 1.8.57 1.185.42 2.34-.27 3.435-.615.99-1.44 1.785-2.28 2.55-3.315 3-6.63 5.986-9.976 8.94-.9.796-1.89 1.5-2.91 2.13-1.92 1.186-3.855 1.036-5.61-.36a24.334 24.334 0 0 1-2.865-2.7c-2.82-3.135-5.596-6.3-8.386-9.465-.135-.165-.27-.33-.435-.54l.015.015Z"/><path fill="#252731" d="M79.356 25.63h4.215v22.83h-4.215v-1.92c-1.245 1.59-3 2.386-5.296 2.386-2.295 0-4.08-.84-5.64-2.49-1.56-1.666-2.34-3.706-2.34-6.121 0-2.415.78-4.455 2.34-6.12 1.56-1.666 3.435-2.49 5.64-2.49 2.206 0 4.05.794 5.296 2.385v-8.46Zm-7.756 18c.855.855 1.935 1.29 3.255 1.29 1.32 0 2.386-.435 3.24-1.29.856-.855 1.276-1.965 1.276-3.315 0-1.35-.42-2.46-1.275-3.315s-1.92-1.29-3.24-1.29c-1.32 0-2.386.435-3.256 1.29-.855.855-1.29 1.965-1.29 3.315 0 1.35.435 2.46 1.29 3.315ZM97.657 32.154h4.5L96.202 48.49c-.855 2.326-1.98 4.02-3.376 5.07-1.395 1.05-3.15 1.53-5.235 1.426V51.07c1.125.015 2.025-.21 2.7-.72.66-.495 1.2-1.306 1.59-2.416l-6.69-15.796h4.605l4.26 10.966 3.616-10.965-.015.014ZM112.868 31.704c1.785 0 3.255.6 4.425 1.8 1.17 1.2 1.74 2.85 1.74 4.966v10.02h-4.215v-9.495c0-1.08-.3-1.92-.885-2.49-.585-.57-1.365-.87-2.355-.87-1.095 0-1.966.33-2.611 1.005-.645.675-.975 1.68-.975 3.03v8.805h-4.215v-16.32h4.215v1.83c1.02-1.516 2.641-2.28 4.861-2.28h.015ZM134.364 32.154h4.215v16.321h-4.215v-1.92c-1.26 1.59-3.03 2.386-5.325 2.386-2.296 0-4.051-.84-5.596-2.49-1.56-1.666-2.34-3.706-2.34-6.121 0-2.415.78-4.455 2.34-6.12 1.56-1.666 3.42-2.49 5.596-2.49 2.28 0 4.065.794 5.325 2.385v-1.95Zm-7.771 11.476c.856.855 1.921 1.29 3.241 1.29s2.385-.435 3.255-1.29c.855-.855 1.29-1.965 1.29-3.315 0-1.35-.435-2.46-1.29-3.315s-1.935-1.29-3.255-1.29c-1.32 0-2.385.435-3.241 1.29-.855.855-1.275 1.965-1.275 3.315 0 1.35.42 2.46 1.275 3.315ZM159.295 31.704c1.875 0 3.376.615 4.486 1.83 1.125 1.216 1.68 2.85 1.68 4.89v10.051h-4.216v-9.75c0-.975-.24-1.74-.72-2.28-.48-.54-1.155-.81-2.025-.81-.96 0-1.71.315-2.235.945-.54.63-.795 1.545-.795 2.745v9.165h-4.215v-9.75c0-.975-.24-1.74-.72-2.28-.48-.54-1.155-.81-2.025-.81-.93 0-1.68.315-2.235.945-.555.63-.84 1.545-.84 2.745v9.165h-4.216V32.17h4.216v1.726c.975-1.456 2.49-2.19 4.545-2.19 2.055 0 3.48.78 4.44 2.355 1.095-1.56 2.715-2.356 4.86-2.356h.015ZM170.231 30.204c-.69 0-1.305-.255-1.815-.765s-.765-1.11-.765-1.815c0-.705.255-1.305.765-1.83.525-.525 1.125-.78 1.815-.78s1.335.255 1.845.78.765 1.125.765 1.83c0 .705-.255 1.305-.765 1.815s-1.125.765-1.845.765Zm-2.085 18.271v-16.32h4.215v16.32h-4.215ZM183.042 48.925c-2.46 0-4.516-.825-6.151-2.475-1.635-1.65-2.46-3.69-2.46-6.135s.825-4.485 2.46-6.135c1.65-1.65 3.691-2.476 6.151-2.476 1.59 0 3.03.376 4.335 1.14 1.305.766 2.295 1.786 2.97 3.06l-3.63 2.116a3.739 3.739 0 0 0-1.485-1.605c-.66-.39-1.41-.585-2.235-.585-1.26 0-2.31.42-3.135 1.26-.825.84-1.245 1.905-1.245 3.21s.42 2.34 1.245 3.18c.825.84 1.875 1.26 3.135 1.26.855 0 1.605-.195 2.265-.57a3.621 3.621 0 0 0 1.485-1.59l3.66 2.085c-.72 1.29-1.725 2.31-3.03 3.09-1.305.765-2.745 1.155-4.335 1.155v.016Z"/></svg>