<svg xmlns="http://www.w3.org/2000/svg" fill="none" viewBox="0 0 210 80"><path fill="#3BE081" d="M36.134 41.928v4.593c3.498 0 6.853-1.35 9.328-3.755 2.476-2.403 3.867-5.656 3.877-9.042h-4.736c0 2.179-.9 4.266-2.486 5.8a8.624 8.624 0 0 1-5.983 2.404Z"/><path fill="#0037FF" d="M36.123 54.56a8.551 8.551 0 0 1-5.942-2.383 8.023 8.023 0 0 1-2.466-5.759c0-2.158.89-4.234 2.466-5.759a8.551 8.551 0 0 1 5.942-2.383v-4.552c-1.718 0-3.426.328-5.022.962a13.078 13.078 0 0 0-4.255 2.751 12.562 12.562 0 0 0-2.844 4.123A12.234 12.234 0 0 0 23 46.398c0 1.667.337 3.324.992 4.869a12.532 12.532 0 0 0 2.834 4.122 13.17 13.17 0 0 0 4.244 2.761c1.586.645 3.294.972 5.013.972h.04V54.56Z"/><path fill="#0CF" d="M36.134 54.56v4.552c3.477 0 6.812-1.34 9.267-3.723 2.455-2.383 3.836-5.616 3.836-8.98H44.53c0 2.157-.89 4.234-2.465 5.758a8.56 8.56 0 0 1-5.943 2.393h.01Z"/><path fill="#861DFF" d="M36.134 29.152v4.552c3.477 0 6.812-1.34 9.267-3.723 2.455-2.384 3.836-5.616 3.836-8.981H44.53c0 2.158-.89 4.235-2.465 5.759a8.561 8.561 0 0 1-5.943 2.393h.01Z"/><path fill="#FF8110" d="M49.319 29.152v4.552c3.477 0 6.812-1.34 9.267-3.723 2.455-2.384 3.836-5.616 3.836-8.981h-4.706c0 2.158-.89 4.235-2.465 5.759a8.561 8.561 0 0 1-5.943 2.393h.01Z"/><path fill="#000" d="M84.321 40.026h2.425l.572 1.237a4.826 4.826 0 0 1 1.003-.685 8.174 8.174 0 0 1 1.166-.47 5.209 5.209 0 0 1 1.534-.226c.808 0 1.606.164 2.343.481a6.028 6.028 0 0 1 1.953 1.35 6.793 6.793 0 0 1 1.34 2.056 6.99 6.99 0 0 1 0 5.186 6.792 6.792 0 0 1-1.34 2.056 6.026 6.026 0 0 1-1.953 1.35 5.913 5.913 0 0 1-2.333.481c-.49 0-.971-.051-1.442-.194a8.074 8.074 0 0 1-1.074-.42 4.681 4.681 0 0 1-.91-.634v5.524h-3.273V40.015l-.01.01Zm6.27 9.799c.44 0 .87-.072 1.269-.236a3.122 3.122 0 0 0 1.064-.705c.634-.624.94-1.463.94-2.517.021-.46-.05-.92-.214-1.35a3.551 3.551 0 0 0-.726-1.166 3.405 3.405 0 0 0-1.074-.695 3.32 3.32 0 0 0-1.258-.246c-.43 0-.86.082-1.259.246a3.406 3.406 0 0 0-1.074.695c-.624.624-.94 1.463-.94 2.516 0 1.054.316 1.882.94 2.517.297.306.665.542 1.064.705.4.164.839.236 1.269.236Zm14.372 3.038a4.985 4.985 0 0 1-1.78-.318 3.912 3.912 0 0 1-1.401-.93c-.399-.42-.706-.9-.911-1.432a5.144 5.144 0 0 1-.327-1.883v-5.38h-1.995v-2.618h.85c1.043 0 1.565-.512 1.565-1.524v-1.79h2.853v3.038h2.844v2.894h-2.844v5.248c-.02.214 0 .44.082.644.082.205.184.399.328.573.143.174.327.307.521.399.205.102.42.163.645.174h.634c.092 0 .184-.02.266-.041.082-.02.153-.052.225-.082v2.762a2.28 2.28 0 0 1-.45.133 3.731 3.731 0 0 1-1.115.112l.01.02Zm6.127-14.351c-.44.01-.869-.123-1.217-.39a1.877 1.877 0 0 1-.686-1.053 1.86 1.86 0 0 1 .164-1.237 1.91 1.91 0 0 1 .941-.85 1.962 1.962 0 0 1 1.279-.07c.419.122.787.378 1.033.736a1.804 1.804 0 0 1-.225 2.332 1.688 1.688 0 0 1-.593.399 1.853 1.853 0 0 1-.706.143l.01-.01Zm-1.708 1.524h3.273V52.74h-3.273V40.036Zm6.403-.01h2.424l.573 1.237c.266-.256.563-.49.88-.685a6.58 6.58 0 0 1 .971-.47c.41-.154.839-.226 1.279-.226a5.088 5.088 0 0 1 1.708.256c.409.143.798.337 1.166.573.328.225.604.501.829.828a5.551 5.551 0 0 1 1.053-.828 7.46 7.46 0 0 1 1.228-.573 4.522 4.522 0 0 1 1.565-.256c1.422 0 2.557.44 3.416 1.33.859.89 1.279 2.189 1.279 3.918v7.59h-3.284v-7.314a2.463 2.463 0 0 0-.644-1.81 1.932 1.932 0 0 0-.614-.461 1.875 1.875 0 0 0-.746-.194 1.96 1.96 0 0 0-.768.092c-.245.082-.47.204-.675.368-.071.061-.143.123-.204.194a2.482 2.482 0 0 0-.634 1.81v7.314h-3.274v-7.313a2.463 2.463 0 0 0-.644-1.81 1.943 1.943 0 0 0-.614-.461 1.879 1.879 0 0 0-.746-.194 1.96 1.96 0 0 0-.768.092c-.245.082-.47.204-.675.368-.071.061-.143.123-.204.194a2.54 2.54 0 0 0-.645 1.81v7.314h-3.273V40.015l.041.01Zm23.076-1.514c-.44.01-.88-.123-1.217-.39a1.82 1.82 0 0 1-.685-1.053c-.093-.419-.041-.859.163-1.237.205-.379.532-.686.941-.85a1.989 1.989 0 0 1 1.289-.07c.43.122.798.378 1.043.736.246.358.358.777.317 1.207-.04.43-.235.828-.552 1.125a1.688 1.688 0 0 1-.593.399 1.85 1.85 0 0 1-.706.143v-.01Zm-1.708 1.524h3.283V52.74h-3.283V40.036ZM142.84 50.1l5.697-7.038h-5.697v-3.038h9.83v2.619l-5.687 7.058h5.984v3.038H142.85V50.1h-.01Zm18.381 2.762a6.228 6.228 0 0 1-2.516-.522 6.675 6.675 0 0 1-3.498-3.447 6.311 6.311 0 0 1-.522-2.527c0-.87.174-1.728.522-2.526a6.613 6.613 0 0 1 1.421-2.056 6.564 6.564 0 0 1 4.542-1.903c.849 0 1.688.154 2.475.47a5.987 5.987 0 0 1 1.995 1.33 6.245 6.245 0 0 1 1.35 2.056c.338.84.512 1.74.501 2.64 0 .143 0 .286-.03.43-.021.132-.041.275-.062.398a6.54 6.54 0 0 0-.051.41h-9.114c.144.613.481 1.165.972 1.574.573.45 1.289.675 2.025.635.369 0 .737-.041 1.095-.133a3.86 3.86 0 0 0 .757-.328c.215-.133.409-.306.573-.5h3.416a5.57 5.57 0 0 1-.788 1.431c-.358.491-.787.931-1.278 1.3a7.11 7.11 0 0 1-1.708.93 5.93 5.93 0 0 1-2.067.348l-.01-.01Zm3.13-7.457a3.061 3.061 0 0 0-1.094-1.81 3.248 3.248 0 0 0-4.071 0 3.058 3.058 0 0 0-1.095 1.81h6.27-.01Zm5.554-10.075h3.274v17.388h-3.274V35.33Zm8.255 21.95c-.153 0-.297 0-.44-.02-.123 0-.235-.02-.358-.041a1.251 1.251 0 0 1-.337-.082V54.52a2.608 2.608 0 0 0 1.667-.47c.399-.318.706-.727.9-1.187l.286-.686-4.981-12.151h3.416l3.274 8.285 2.997-8.285H188c-.931 2.321-1.78 4.418-2.537 6.29-.327.808-.644 1.606-.951 2.373-.317.767-.593 1.483-.839 2.118-.245.634-.45 1.166-.624 1.585-.174.42-.266.675-.317.747-.276.654-.593 1.299-.951 1.912-.266.471-.614.91-1.013 1.29a3.263 3.263 0 0 1-1.166.715c-.46.154-.951.236-1.432.225h-.01ZM72.19 33.714c-1.954 0-3.866.563-5.493 1.617a9.642 9.642 0 0 0-3.641 4.296 9.332 9.332 0 0 0-.563 5.533 9.447 9.447 0 0 0 2.7 4.9 9.956 9.956 0 0 0 5.054 2.618c1.912.369 3.897.185 5.707-.542a9.783 9.783 0 0 0 4.43-3.529 9.382 9.382 0 0 0 1.667-5.319 9.376 9.376 0 0 0-.747-3.661 9.709 9.709 0 0 0-2.138-3.11 9.927 9.927 0 0 0-3.201-2.076 10.166 10.166 0 0 0-3.785-.727h.01Zm0 15.824a6.655 6.655 0 0 1-3.6-1.012 6.297 6.297 0 0 1-2.415-2.783 6.079 6.079 0 0 1-.409-3.61 6.19 6.19 0 0 1 1.73-3.223 6.551 6.551 0 0 1 3.282-1.749 6.647 6.647 0 0 1 3.734.317 6.368 6.368 0 0 1 2.915 2.282 6.222 6.222 0 0 1 1.125 3.467v.072a6.138 6.138 0 0 1-1.861 4.398 6.543 6.543 0 0 1-4.521 1.841h.02Z"/></svg>