<svg xmlns="http://www.w3.org/2000/svg" fill="none" viewBox="0 0 210 80"><g clip-path="url(#a)"><path fill="#0069FF" d="M8.483 29.767c2.159-1.363 4.47-2.273 6.93-2.613 1.402-.227 2.841-.114 4.28-.152 1.705-.038 3.333.417 4.886.947 2.272.795 4.28 2.045 6.097 3.636 1.742 1.515 3.068 3.295 4.128 5.302.833 1.628 1.515 3.332 1.704 5.188.19 1.629.303 3.257.228 4.886-.114 1.931-.644 3.825-1.401 5.643-.947 2.196-2.273 4.166-3.977 5.832-2.575 2.537-5.68 4.204-9.24 4.923-1.213.265-2.425.303-3.712.455v-7.158h-7.007v5.378H5.832v-5.378H1.25v-4.734h4.658v4.507h5.34v-7.044h7.233v7.006c4.242.227 9.658-2.916 10.87-8.862 1.287-6.325-2.879-11.93-8.71-13.18-6.59-1.4-13.37 3.674-13.408 10.983H.038c-.076-1.553.151-3.03.492-4.469.909-3.825 2.954-7.006 5.908-9.581.606-.568 1.326-.985 2.045-1.515Zm141.376 17.08c-.189 1.553-.833 2.916-1.666 4.166a10.405 10.405 0 0 1-4.545 3.825 11.82 11.82 0 0 1-3.825.947c-2.083.151-4.014-.19-5.832-1.174-3.143-1.704-5.151-4.28-5.719-7.877-.53-3.106.076-5.984 1.97-8.484 1.704-2.234 3.938-3.636 6.741-4.166 3.37-.644 6.4.152 9.051 2.273 2.007 1.628 3.257 3.787 3.787 6.324.259 1.376.272 2.786.038 4.166Zm-13.179-8.483h-.076c-2.727.947-4.848 3.976-4.469 7.196.19 1.628.795 3.03 1.894 4.165 1.59 1.591 3.56 2.424 5.87 2.083 1.439-.189 2.689-.72 3.749-1.704 1.894-1.78 2.727-3.939 2.273-6.514-.303-1.742-1.212-3.143-2.614-4.204-1.931-1.477-4.166-1.969-6.627-1.022ZM58.095 55.028c-3.597.87-7.195.34-10.793.53V34.274c.19 0 .379-.038.568-.038h6.893c1.855.038 3.673.454 5.378 1.212 2.726 1.25 4.43 3.37 4.96 6.248.569 2.955.493 5.909-.946 8.711-.72 1.44-1.818 2.538-3.22 3.295-.87.492-1.855.871-2.84 1.326Zm2.424-6.4c.985-1.895.985-3.94.644-5.947-.303-1.704-1.287-3.03-2.916-3.75-.985-.454-2.007-.794-3.105-.832h-3.788V51.77c2.197 0 4.393.189 6.438-.72 1.137-.492 2.121-1.136 2.727-2.424Zm16.247-7.537a7.54 7.54 0 0 1 3.257-.947c1.44-.076 2.727.34 3.863 1.212.076.038.114.075.265.189.038-.379.038-.682.038-1.023h3.825V54.082c-.037 2.12-.568 4.052-2.158 5.567-1.023.984-2.273 1.553-3.712 1.78-1.666.227-3.333.227-4.885-.492-.72-.341-1.364-.796-1.97-1.25-.492-.379-.909-.834-1.287-1.288-.114-.114-.114-.454 0-.568.644-.682 1.363-1.288 2.045-1.97.303-.264.416-.34.72.038.946 1.174 2.044 2.083 3.673 2.121 2.159.038 3.9-1.477 3.636-3.749-.758.227-1.515.53-2.31.72-2.008.416-3.901.038-5.568-1.212-1.666-1.25-2.5-2.916-2.764-4.962-.303-2.158.038-4.166 1.363-5.87.492-.643 1.25-1.174 1.97-1.855Zm5.302 10.3c.493-.416 1.099-.757 1.44-1.287 1.022-1.59.909-4.317-.758-5.68-1.363-1.099-3.598-.872-4.696.53-.871 1.098-.909 2.348-.795 3.597.113 1.023.606 1.932 1.515 2.538 1.022.681 2.082.681 3.294.303Zm96.725 2.538c-1.174 1.136-2.575 1.666-4.165 1.856-1.629.227-3.144-.038-4.583-.72-2.045-.984-3.219-2.65-3.674-4.847-.492-2.235-.34-4.356.758-6.4 1.25-2.349 3.181-3.599 5.908-3.674 1.477-.038 2.84.265 4.052 1.098 1.553 1.023 2.386 2.575 2.727 4.355.227 1.174.227 2.348.379 3.636h-9.923c-.151.947.568 2.197 1.629 2.689 1.439.644 3.56.833 5.643-1.704.757.757 1.515 1.477 2.272 2.196.114.114.189.379.151.455-.409.333-.8.687-1.174 1.06Zm-6.324-7.84h3.408c-.416-1.93-1.401-2.272-2.499-2.385-1.402-.152-2.273.53-2.992 2.196.151.038.303.152.416.152a23.93 23.93 0 0 0 1.667.038Zm-56.164 8.673c-.038-.492-.19-.265-.379-.113-1.136.833-2.386 1.325-3.787 1.25-1.742-.076-3.295-.644-4.318-2.197-1.174-1.818-.871-5.302 1.591-6.628 1.894-1.022 3.863-1.174 5.946-.757.265.038.492.076.757.151.417-1.477-.719-2.65-2.348-2.726-1.363-.076-2.499.454-3.295 1.628-.53.758-.606.417-1.893-.87-.19-.228-.417-.417-.644-.607-.379-.303-.379-.568-.114-.947 1.061-1.477 2.538-2.272 4.28-2.613 1.628-.303 3.257-.19 4.848.455 1.628.681 2.651 1.893 2.991 3.635.114.606.114 1.25.114 1.894v9.165h-3.749v-.72Zm-2.159-5.264c-.644-.113-1.326-.038-1.969.114-.682.19-1.061.681-1.061 1.325 0 .644.341 1.136 1.061 1.326 1.363.379 2.613 0 3.749-.758.151-.113.227-.378.265-.606.038-.34 0-.681 0-1.06a19.176 19.176 0 0 0-2.045-.34Zm76.615 5.264c-.038-.492-.189-.265-.379-.113-1.136.833-2.386 1.325-3.787 1.25-1.742-.076-3.295-.644-4.317-2.197-1.174-1.818-.871-5.302 1.59-6.628 1.894-1.022 3.863-1.174 5.946-.757.265.038.493.076.758.151.416-1.477-.72-2.65-2.348-2.726-1.364-.076-2.5.454-3.295 1.628-.531.758-.606.417-1.894-.87-.189-.228-.417-.417-.644-.607-.378-.303-.378-.568-.113-.947 1.06-1.477 2.537-2.272 4.279-2.613 1.629-.303 3.257-.19 4.848.455 1.628.681 2.651 1.893 2.992 3.635.113.606.113 1.25.113 1.894v9.165h-3.749v-.72Zm-2.159-5.264c-.644-.113-1.325-.038-1.969.114-.682.19-1.06.681-1.06 1.325 0 .644.34 1.136 1.06 1.326 1.363.379 2.613 0 3.749-.758.152-.113.227-.378.265-.606.038-.34 0-.681 0-1.06a19.134 19.134 0 0 0-2.045-.34Zm17.914 6.022c-.531.038-.379-.303-.379-.53v-8.143c0-1.136-.303-2.197-1.363-2.802-1.44-.834-3.295-.228-3.939 1.439-.189.454-.265.984-.265 1.515v8.521h-3.825V40.598h3.673c0 .19 0 .417.038.682 1.288-.947 2.727-1.212 4.242-1.098 1.969.189 3.939 1.212 4.734 3.446.379 1.136.568 2.272.568 3.408v8.484h-3.484Zm-48.552-3.37c1.325.264 2.537.226 3.522-.758.454-.417.871-.91 1.325-1.402l2.614 2.424c-2.689 4.09-8.181 4.242-11.173 1.818-3.787-3.068-3.749-9.203-.265-12.308 2.879-2.575 8.446-2.613 11.059 1.212l-2.272 2.689c-.682-.569-1.174-1.06-1.705-1.44-2.31-1.628-4.885-.34-5.529 2.16-.454 1.817-.265 3.597 1.326 4.922.303.303.681.455 1.098.682ZM98.543 36.583l1.78-.152h1.931v4.09h3.484v3.523h-3.484v6.324c.038 1.136.682 1.629 1.856 1.667l1.591-.076v3.598c-1.97-.076-4.053.378-5.833-.947-.757-.568-1.098-1.44-1.25-2.31-.113-.644-.113-1.25-.113-1.894V44.12h-2.121v-3.522h2.12c.039-1.401.039-2.689.039-4.014Zm23.821 2.272v-4.544h3.825V55.52h-3.825V38.856Zm-31.926 7.499V40.56h3.825v14.922h-3.825v-9.127Zm-21.89 9.165h-1.06V40.598h3.787v14.96h-2.727v-.038Zm21.587-20.072a2.332 2.332 0 0 1 2.651-1.402c1.25.228 1.894.947 1.97 2.197.075 1.174-.493 2.12-1.894 2.5-1.06.265-2.386-.38-2.689-1.44-.19-.568-.038-1.211-.038-1.855Zm-22.685-.455c1.022-1.288 2.916-1.477 4.014.114.758 1.136.341 3.067-1.477 3.56-.795.227-1.969-.114-2.423-.758-.606-.909-.644-2.12-.114-2.916Z"/></g><defs><clipPath id="a"><path fill="#fff" d="M0 0h210v80H0z"/></clipPath></defs></svg>