<svg xmlns="http://www.w3.org/2000/svg" fill="none" viewBox="0 0 210 80"><path fill="#000" d="M113.222 28.758c-5.19 0-9.082 2.483-11.079 5.66l3.394 1.787c1.597-2.78 4.292-3.972 7.685-3.972 6.588 0 8.384 1.986 8.284 5.759-.898 0-12.476-.1-13.973.099-3.992.298-6.687 2.581-6.687 6.453 0 4.667 3.892 7.149 9.182 7.149h15.371V38.587c.1-7.049-3.493-9.829-12.177-9.829Zm-2.894 19.56c-3.194 0-5.39-.994-5.39-3.873 0-2.88 2.196-3.276 5.39-3.276h11.178v7.148h-11.178Zm41.022 3.375-7.087-8.141h-9.482v8.14h-3.992V29.256h15.47c5.29 0 9.183 2.482 9.183 7.148 0 3.872-2.695 6.255-6.687 6.95l7.385 8.34h-4.79Zm-5.39-11.616c3.194 0 5.489-.894 5.489-3.674s-2.195-3.872-5.389-3.872h-11.179v7.546h11.079Zm35.133 5.162 3.593 1.788c-2.096 3.276-6.288 5.659-11.977 5.659-8.484 0-13.774-4.567-13.774-11.914 0-7.347 5.29-11.914 13.973-11.914 5.59 0 9.682 2.383 11.778 5.56l-3.593 1.787c-1.697-2.78-4.591-3.972-8.284-3.972-5.989 0-9.981 2.88-9.981 8.539s3.992 8.538 9.981 8.538c3.693-.1 6.587-1.29 8.284-4.07ZM26.088 56.955C24.392 55.665 47.548 23 58.128 23c7.585 0 10.18 23.034 23.954 22.835 4.192-.1 6.288-1.39 6.587-.695.599 1.191-6.687 11.914-13.574 11.815-6.687 0-12.277-18.368-21.858-18.169-10.98.199-25.651 19.26-27.149 18.169Z"/></svg>