<svg xmlns="http://www.w3.org/2000/svg" fill="none" viewBox="0 0 210 80"><path fill="#000" d="m46 39.294.095-1.157c.284-3.325 1.447-6.277 3.835-8.698 1.401-1.419 3.074-2.441 4.943-3.16 1.564-.603 3.187-.957 4.854-1.14a22.695 22.695 0 0 1 5.165.017c2.436.288 4.766.964 7.028 1.887.17.07.206.154.166.32l-.955 3.908-.684 2.796c-.02.08-.083.15-.127.225-.071-.051-.162-.086-.21-.153-.933-1.35-1.942-2.641-3.09-3.822-1.308-1.343-2.743-2.527-4.473-3.315-2.939-1.335-5.751-1.109-8.39.754-1.1.776-1.795 1.875-2.306 3.091-.545 1.294-.805 2.653-.92 4.045-.172 2.09-.032 4.16.444 6.203.456 1.962 1.245 3.779 2.52 5.368 1.6 1.996 3.672 3.276 6.175 3.859 3.732.868 7.325.471 10.75-1.245.527-.264 1.02-.595 1.522-.907.248-.155.24-.169.54.021-.356.45-.697.907-1.065 1.34-1.473 1.718-3.227 3.074-5.34 3.958-1.268.53-2.59.85-3.964.989-2.152.215-4.274.045-6.342-.567-4.554-1.349-7.628-4.254-9.23-8.666-.59-1.623-.858-3.304-.905-5.022 0-.06-.024-.12-.036-.18v-.749ZM85.886 54.34l.25-.438c.82-1.368 1.257-2.856 1.374-4.433.057-.779.085-1.559.085-2.339V32.306c-.004-1.66-.17-3.305-.76-4.875-.221-.589-.536-1.144-.81-1.715-.031-.066-.07-.133-.129-.244h.318l4.489-.059 7.008-.097c2.457 0 4.877.312 7.216 1.092 1.996.665 3.803 1.652 5.329 3.105 1.412 1.34 2.414 2.938 3.063 4.756.547 1.535.81 3.122.868 4.745.065 1.802-.074 3.585-.532 5.337-.659 2.521-1.924 4.686-3.955 6.382-1.54 1.287-3.318 2.137-5.243 2.7-2.202.643-4.461.9-6.75.905l-11.505.002h-.317.001Zm6.565-.674c.063.004.109.008.154.008l3.134-.09c1.581-.04 3.163-.067 4.719-.419 3.199-.723 5.527-2.486 6.83-5.493.838-1.935 1.147-3.98 1.274-6.058.101-1.676.071-3.351-.127-5.022-.196-1.65-.553-3.26-1.249-4.782-1.052-2.301-2.727-3.973-5.135-4.89-1.587-.604-3.244-.81-4.933-.819-1.466-.007-2.931 0-4.398 0h-.27v27.567-.002Zm53.982-13-.01.142.006 7.376c-.006 2.096.466 4.065 1.552 5.879.043.072.075.148.127.252h-8.164c.042-.088.075-.17.117-.245.602-1.069 1.084-2.181 1.302-3.395.19-1.064.252-2.137.254-3.214l.022-15.667a11.144 11.144 0 0 0-1.58-5.866c-.042-.07-.073-.147-.131-.266h1.724l3.942-.1c1.424-.043 2.847-.131 4.272-.137 1.995-.01 3.963.211 5.854.895 1.612.585 3.003 1.465 3.986 2.892.688.999 1.042 2.113 1.149 3.304.107 1.184.026 2.353-.386 3.483-.581 1.594-1.734 2.65-3.26 3.35-1.402.644-2.892.945-4.416 1.121-.383.045-.767.078-1.156.15.29.083.581.157.867.249 2.049.65 3.559 1.949 4.627 3.77.704 1.2 1.205 2.49 1.748 3.76.504 1.18.976 2.377 1.748 3.417 1.025 1.375 2.327 2.395 4.034 2.835.196.05.226.125.168.35h-1.193c-1.475-.002-2.935-.156-4.392-.383-2.073-.323-3.385-1.556-4.309-3.312-.729-1.388-1.278-2.85-1.815-4.316-.525-1.437-1.146-2.825-2.121-4.03-.783-.969-1.716-1.743-2.931-2.146-.529-.176-1.07-.168-1.635-.143v-.005Zm.037-.75c.048.009.072.017.094.015l4.08-.131a9.344 9.344 0 0 0 2.49-.454c1.383-.463 2.283-1.382 2.622-2.78.16-.663.279-1.349.297-2.03a32.217 32.217 0 0 0-.087-3.152 6.92 6.92 0 0 0-.674-2.518c-.674-1.394-1.839-2.156-3.328-2.503-.798-.185-1.609-.236-2.425-.258l-3.069-.091v13.903Zm-15.249 4.55c-.265.082-.392-.014-.507-.244-.561-1.103-1.227-2.131-2.263-2.874a4.322 4.322 0 0 0-2.478-.829c-1.258-.023-2.519-.008-3.779-.008-.038 0-.078.008-.133.014V53.67c.537 0 1.058.015 1.578-.002 1.724-.059 3.45-.184 5.174-.18 2.549.006 4.597-1.036 6.37-2.739 1.275-1.224 2.301-2.633 3.211-4.13.044-.073.091-.145.145-.231l.339.115-.3 1.257-1.496 6.351c-.042.178-.113.215-.283.215l-21.015-.003h-.248c.036-.112.054-.2.09-.282.79-1.761 1.302-3.595 1.464-5.517a20.22 20.22 0 0 0 .083-1.704l.006-13.818a17.445 17.445 0 0 0-1.371-6.86l-.293-.707h.301l18.85-.004c.204 0 .28.057.325.256l1.534 6.606c.012.052.018.105.032.178l-.315.107-1.144-1.582c-1.027-1.346-2.15-2.601-3.534-3.608-.672-.489-1.381-.919-2.225-1.048-.32-.049-.647-.055-.97-.069l-6.098-.228c-.063-.002-.127 0-.208 0v13.669h.262l3.208.004c1.514.033 2.735-.558 3.659-1.703.559-.694 1.035-1.453 1.516-2.204.137-.213.268-.275.511-.21v8.861l.002.004Zm-48.535 9.71h-8.182l.135-.297c.622-1.112 1.17-2.262 1.33-3.53.135-1.058.21-2.13.216-3.195V31.928c-.01-2.23-.47-4.367-1.572-6.342-.04-.072-.067-.148-.113-.25h8.227l-.166.32a11.87 11.87 0 0 0-1.415 4.652 32.023 32.023 0 0 0-.117 2.758l-.004 14.544c0 1.21.071 2.417.394 3.596.254.924.66 1.784 1.122 2.621.053.096.103.193.15.291.007.012-.003.03-.007.059l.002-.002Z"/></svg>