<svg xmlns="http://www.w3.org/2000/svg" fill="none" viewBox="0 0 210 80"><path fill="#000" d="M57.288 49.918a13.437 13.437 0 0 1-3.147-.31 4.586 4.586 0 0 1-2.025-.998c-.52-.48-.9-1.093-1.096-1.773a8.931 8.931 0 0 1-.332-2.603v-4.051a8.943 8.943 0 0 1 .332-2.603 3.864 3.864 0 0 1 1.096-1.773 4.703 4.703 0 0 1 2.025-1.013 12.94 12.94 0 0 1 3.148-.323h9.223a.445.445 0 0 1 .5.506v2.364a.444.444 0 0 1-.5.506h-8.835a5.974 5.974 0 0 0-1.497.155c-.347.08-.664.255-.916.507-.24.27-.403.6-.471.956-.1.485-.147.98-.139 1.476v2.503c-.01.5.037 1.001.139 1.492.07.35.233.676.471.942.252.252.569.427.916.507.49.114.993.166 1.497.154h8.836a.445.445 0 0 1 .5.507v2.363a.445.445 0 0 1-.5.507l-9.225.002ZM96.337 34.497c.206 0 .341.07.407.21.065.14.051.304-.042.49L85.934 54.182a3.394 3.394 0 0 1-1.584 1.444c-.682.309-1.631.463-2.846.463h-1.963c-.336 0-.504-.169-.504-.505v-2.3c0-.336.168-.504.504-.504h1.655c.71 0 1.186-.215 1.43-.645l1.514-2.664c-.468-.037-.827-.15-1.08-.336-.252-.187-.49-.477-.715-.87l-7.57-13.066c-.094-.187-.108-.35-.043-.49.066-.14.201-.211.407-.211h3.225c.317 0 .542.13.672.392l6.225 10.796c.15.262.267.434.35.519a.436.436 0 0 0 .323.126l6.59-11.44c.13-.262.355-.393.673-.393h3.14ZM109.482 34.497c1.252 0 2.308.108 3.168.322.86.215 1.547.552 2.061 1.01.514.458.884 1.047 1.108 1.766.224.72.336 1.585.336 2.594v4.038c0 1.01-.112 1.874-.336 2.594-.224.72-.594 1.308-1.108 1.766-.514.458-1.201.79-2.061.995-.86.206-1.916.309-3.168.309h-8.911v5.58c0 .41-.206.617-.617.617h-2.747c-.43 0-.645-.206-.645-.617V40.189c0-1.01.112-1.874.336-2.594.225-.719.594-1.308 1.108-1.766.514-.458 1.196-.794 2.047-1.01.85-.214 1.911-.322 3.182-.322h6.247Zm-8.911 12.03h8.518c.617 0 1.122-.047 1.515-.141.392-.093.705-.262.939-.505.233-.243.397-.56.491-.953.093-.393.14-.888.14-1.486v-2.496c0-.579-.047-1.07-.14-1.472-.094-.402-.258-.72-.491-.953-.234-.234-.547-.402-.939-.505-.393-.103-.898-.154-1.515-.154h-5.461c-.599 0-1.094.051-1.486.154-.393.103-.706.271-.94.505-.234.234-.397.551-.49.953-.094.402-.141.893-.141 1.472v5.58ZM135.964 34.497c.336 0 .505.168.505.505v2.243c0 .336-.169.505-.505.505H123.96c-.58 0-.982.107-1.206.322-.224.215-.336.528-.336.94v.42c0 .374.112.669.336.883.224.215.626.323 1.206.323h8.807c1.571 0 2.692.327 3.365.981.673.655 1.01 1.58 1.01 2.776v1.57c0 .617-.075 1.169-.225 1.655-.15.486-.397.897-.743 1.233-.346.337-.799.594-1.36.772-.56.177-1.252.266-2.075.266h-13.714c-.337 0-.505-.169-.505-.505v-2.243c0-.337.168-.505.505-.505h12.649c.579 0 .986-.102 1.22-.308.233-.206.35-.551.35-1.038v-.757c0-.373-.117-.663-.35-.87-.234-.204-.641-.307-1.22-.307h-8.78c-1.57 0-2.692-.323-3.365-.968-.672-.645-1.009-1.584-1.009-2.818v-1.234c0-.579.075-1.107.224-1.584.15-.476.397-.883.743-1.22.346-.336.8-.593 1.36-.77.561-.178 1.253-.267 2.075-.267h13.042ZM142.743 34.497c.411 0 .617.215.617.645v14.132c0 .411-.206.617-.617.617h-2.748c-.412 0-.617-.206-.617-.617V35.142c0-.43.205-.645.617-.645h2.748ZM149.803 34.497c.411 0 .617.215.617.645v8.103c0 .599.037 1.094.112 1.486.074.393.215.706.421.94.205.234.495.402.869.505.373.102.869.154 1.486.154h5.923c.616 0 1.121-.052 1.514-.154.392-.103.705-.271.939-.505.233-.234.397-.547.491-.94.093-.392.14-.887.14-1.486v-8.103c0-.43.205-.645.617-.645h2.748c.411 0 .617.215.617.645v9.085c0 1.01-.112 1.874-.337 2.594-.224.72-.594 1.308-1.107 1.766-.515.458-1.202.79-2.061.995-.86.206-1.917.309-3.169.309h-6.539c-1.272 0-2.333-.103-3.183-.309-.851-.205-1.533-.537-2.047-.995-.514-.458-.883-1.047-1.107-1.767-.225-.719-.337-1.584-.337-2.593v-9.085c0-.43.215-.645.645-.645h2.748ZM188.04 34.497c1.252 0 2.304.108 3.154.322.851.215 1.538.552 2.061 1.01.523.458.893 1.047 1.108 1.766.214.72.322 1.584.322 2.594v9.085c0 .411-.206.617-.616.617h-2.748c-.412 0-.617-.206-.617-.617v-8.132c0-.579-.038-1.07-.113-1.472-.074-.401-.215-.719-.42-.953-.206-.234-.496-.402-.869-.505-.374-.102-.87-.154-1.486-.154h-3.973v11.216c0 .411-.215.617-.645.617h-2.748c-.411 0-.616-.206-.616-.617V38.058h-3.805c-.598 0-1.093.052-1.486.154-.392.103-.706.271-.939.505-.234.234-.397.552-.491.953-.093.402-.14.893-.14 1.472v8.132c0 .411-.206.617-.617.617h-2.748c-.43 0-.645-.206-.645-.617v-9.085c0-1.01.112-1.874.337-2.594.224-.719.593-1.308 1.107-1.766.514-.458 1.196-.794 2.047-1.01.851-.214 1.911-.322 3.183-.322h12.403ZM73.296 40.13a28.37 28.37 0 0 0-2.672-11.56.618.618 0 0 0-.832-.288l-2.433 1.201a.618.618 0 0 0-.283.818 24.494 24.494 0 0 1 2.28 10.39h.007V49.6c0 .194.206.29.617.29h2.748c.411 0 .617-.096.617-.29v-9.333c0-.053-.017-.099-.049-.138Z"/><path fill="#FF4E00" d="M66.347 21.962A28.61 28.61 0 0 0 44.612 12a28.532 28.532 0 0 0-16.268 5.054 28.738 28.738 0 0 0-10.05 12.192l.023.01c-4.409 10.223-2.566 22.79 5.873 30.967 7 7.071 18.151 9.729 27.396 6.268-16.678 3.136-32.577-9.681-31.715-26.808a25.279 25.279 0 0 1 2.031-8.866l.011.005a24.79 24.79 0 0 1 8.671-10.518 24.6 24.6 0 0 1 14.027-4.357c7.21 0 13.99 3.105 18.702 8.54a.619.619 0 0 0 .863.078l2.092-1.726a.617.617 0 0 0 .08-.877Z"/><path fill="#FF4E00" d="M51.511 62.878c-9.954 2.849-20.7-2.83-24.942-12.12-1.496-3.12-2.227-6.633-2.186-10.087-.046-.75.123-1.844.183-2.596.025-.331.114-.956.184-1.287 1.474-8.89 8.777-16.534 17.638-18.173 3.255-.623 6.608-.466 9.633.508-6.114.106-11.968 2.344-16.258 6.529-8.516 7.996-8.647 22.097-.36 30.32 4.147 4.248 10.143 6.677 16.108 6.906Z"/><path fill="#000" d="M39.334 49.871a13.45 13.45 0 0 1-3.148-.31 4.586 4.586 0 0 1-2.025-.998 3.86 3.86 0 0 1-1.095-1.773 8.933 8.933 0 0 1-.333-2.603v-4.052a8.936 8.936 0 0 1 .333-2.603 3.865 3.865 0 0 1 1.095-1.772 4.709 4.709 0 0 1 2.025-1.013 12.953 12.953 0 0 1 3.148-.324h8.125c.629-.007 1.256.04 1.877.14a6.412 6.412 0 0 0-1.203 2.251c-.099.328-.18.661-.241.998a2.165 2.165 0 0 0-1.209-.266h-6.96c-1.203 0-2.011.193-2.427.578-.416.385-.624 1.027-.624 1.927v.534h11.022v3.123H36.672v.282c0 .881.208 1.52.624 1.913.416.394 1.225.591 2.427.59h8.168c.061.343.143.682.244 1.015.26.871.704 1.677 1.301 2.362l-10.102.001Z"/></svg>