<svg xmlns="http://www.w3.org/2000/svg" fill="none" viewBox="0 0 210 80"><path fill="#000" d="m30.83 38.398 10.22-10.21c.412-.413.12-1.188-.474-1.188h-10.15c-.534 0-1.067.241-1.48.594L18.192 38.398c-.413.413-.12 1.188.474 1.188h9.323c.594 0 .947.775.473 1.188l-10.158 10.21c-.413.413-.12 1.188.474 1.188h10.15c.533 0 1.067-.241 1.48-.594l10.743-10.804c.414-.413.121-1.188-.473-1.188h-9.323c-.655 0-.947-.775-.534-1.188h.009Zm22.392 8.376c-.947-.413-1.722-1.007-2.256-1.782-.533-.775-.835-1.601-.886-2.496h3.262c.06.654.353 1.188.947 1.6.534.414 1.248.655 2.135.655.887 0 1.541-.18 2.075-.534.473-.353.714-.774.714-1.308 0-.594-.292-1.007-.835-1.248-.533-.293-1.429-.594-2.556-.887-1.128-.293-2.075-.594-2.79-.887a4.625 4.625 0 0 1-1.842-1.369c-.534-.594-.775-1.429-.775-2.376 0-.835.241-1.54.715-2.195.473-.654 1.188-1.188 2.075-1.601.886-.413 1.902-.594 3.09-.594 1.722 0 3.15.413 4.158 1.308 1.068.887 1.601 2.075 1.722 3.564h-3.15c-.061-.654-.354-1.248-.836-1.6-.474-.414-1.188-.595-2.014-.595-.827 0-1.481.181-1.903.474a1.475 1.475 0 0 0-.654 1.248c0 .413.12.775.413 1.007.293.293.654.474 1.068.654.413.181 1.067.354 1.902.595 1.128.292 2.014.594 2.729.886.715.293 1.309.775 1.842 1.369.534.594.775 1.369.775 2.376 0 .887-.241 1.661-.715 2.316-.473.654-1.127 1.188-2.014 1.6-.887.414-1.903.595-3.09.595-1.309-.12-2.377-.353-3.323-.775h.017Zm24.517-14.79v15.203h-3.15v-1.782c-.474.655-1.128 1.128-1.963 1.481a6.212 6.212 0 0 1-2.557.534c-1.188 0-2.255-.241-3.202-.775-.947-.474-1.722-1.248-2.256-2.195-.534-.947-.835-2.135-.835-3.564v-8.902h3.15v8.489c0 1.368.354 2.436 1.008 3.15.654.715 1.601 1.068 2.79 1.068 1.187 0 2.134-.353 2.788-1.068.715-.714 1.008-1.782 1.008-3.15v-8.489h3.22Zm6.887.422c.887-.473 1.963-.714 3.151-.714 1.308 0 2.557.353 3.624.947 1.068.654 1.963 1.54 2.557 2.729.654 1.188.947 2.556.947 4.037 0 1.48-.293 2.91-.947 4.098-.654 1.188-1.48 2.135-2.557 2.789a6.917 6.917 0 0 1-3.624 1.007c-1.188 0-2.195-.24-3.09-.714-.887-.474-1.662-1.068-2.196-1.782v7.24h-3.15V31.984h3.15v2.256c.474-.775 1.249-1.369 2.135-1.842v.008Zm6.414 4.39c-.414-.774-1.008-1.368-1.722-1.721a4.447 4.447 0 0 0-2.255-.594 4.462 4.462 0 0 0-3.977 2.376c-.414.775-.655 1.661-.655 2.729 0 1.067.241 1.963.654 2.729a4.46 4.46 0 0 0 3.978 2.376c.835 0 1.54-.181 2.255-.594a4.46 4.46 0 0 0 1.722-1.782c.413-.775.654-1.722.654-2.73 0-1.127-.18-2.014-.654-2.788Zm20.299 3.918H99.7c.12 1.188.534 2.195 1.369 2.91.835.714 1.782 1.127 2.97 1.127 1.722 0 2.91-.714 3.564-2.135h3.383c-.473 1.43-1.308 2.557-2.496 3.444-1.188.886-2.669 1.368-4.511 1.368-1.429 0-2.729-.292-3.917-.947-1.128-.654-2.075-1.54-2.73-2.729-.654-1.188-.946-2.556-.946-4.097 0-1.541.292-2.97.947-4.158a6.957 6.957 0 0 1 2.668-2.73c1.128-.653 2.497-.946 3.978-.946 1.48 0 2.729.293 3.856.947 1.128.654 2.023 1.48 2.617 2.608.655 1.128.947 2.437.947 3.917.06.474 0 1.007-.06 1.43v-.01Zm-3.142-2.497c0-1.188-.413-2.075-1.248-2.79-.835-.714-1.843-1.067-3.031-1.067a4.236 4.236 0 0 0-2.789 1.008c-.775.714-1.248 1.6-1.369 2.789h8.428v.06h.009Zm9.796-5.871c.775-.413 1.662-.654 2.729-.654v3.262h-.774c-1.249 0-2.135.293-2.79.947-.654.655-.947 1.722-.947 3.263v8.015h-3.142V31.984h3.142v2.196c.414-.775 1.008-1.37 1.782-1.843v.009Zm25.938.112c.947.473 1.722 1.248 2.256 2.195.534.947.835 2.135.835 3.504v9.022h-3.142V38.63c0-1.369-.353-2.436-1.007-3.15-.655-.715-1.602-1.068-2.79-1.068s-2.135.353-2.789 1.068c-.714.714-1.007 1.782-1.007 3.15v8.549h-3.142V38.63c0-1.369-.353-2.436-1.007-3.15-.655-.715-1.602-1.068-2.79-1.068s-2.135.353-2.789 1.068c-.714.714-1.007 1.782-1.007 3.15v8.549h-3.142V31.984h3.142v1.722c.534-.654 1.188-1.128 1.963-1.48a6.206 6.206 0 0 1 2.556-.534c1.188 0 2.316.24 3.263.775.947.533 1.722 1.248 2.195 2.255a5.445 5.445 0 0 1 2.135-2.195 6.404 6.404 0 0 1 3.151-.835c1.128 0 2.195.292 3.151.775l-.035-.01Zm8.316 13.955a6.724 6.724 0 0 1-2.729-2.73c-.654-1.187-1.007-2.556-1.007-4.097 0-1.541.353-2.91 1.007-4.098.655-1.188 1.602-2.135 2.79-2.729 1.188-.654 2.496-.947 3.917-.947 1.42 0 2.789.293 3.917.947 1.188.654 2.074 1.541 2.789 2.73.654 1.187 1.007 2.556 1.007 4.097 0 1.54-.353 2.91-1.068 4.098-.714 1.188-1.661 2.135-2.849 2.789-1.188.654-2.557.947-3.977.947-1.309 0-2.609-.353-3.797-1.007Zm6.173-2.316c.714-.413 1.308-.947 1.722-1.722.413-.775.654-1.722.654-2.79 0-1.127-.233-2.014-.654-2.788-.414-.775-1.008-1.37-1.662-1.722-.714-.413-1.42-.594-2.255-.594s-1.541.18-2.256.594a4.167 4.167 0 0 0-1.661 1.722c-.414.775-.594 1.721-.594 2.789 0 1.661.413 2.91 1.248 3.796a4.186 4.186 0 0 0 3.142 1.37c.895-.061 1.601-.242 2.316-.655Zm12.646.24 4.33-12.404h3.323L172.9 47.136h-3.745l-5.759-15.203h3.383l4.278 12.405h.009Zm21.849-3.623h-11.639c.12 1.188.534 2.195 1.369 2.91.826.714 1.782 1.127 2.97 1.127 1.721 0 2.909-.714 3.564-2.135h3.383c-.474 1.43-1.309 2.557-2.497 3.444-1.188.886-2.668 1.368-4.511 1.368-1.42 0-2.729-.292-3.917-.947-1.127-.654-2.074-1.54-2.729-2.729-.654-1.188-.946-2.556-.946-4.097 0-1.541.301-2.97.946-4.158a6.963 6.963 0 0 1 2.669-2.73c1.128-.653 2.497-.946 3.977-.946 1.481 0 2.729.293 3.857.947 1.128.654 2.023 1.48 2.617 2.608.654 1.128.947 2.437.947 3.917.06.474 0 1.007-.06 1.43v-.01Zm-3.142-2.497c0-1.188-.414-2.075-1.249-2.79-.835-.714-1.842-1.067-3.03-1.067-1.067 0-2.023.353-2.789 1.008-.775.714-1.248 1.6-1.369 2.789h8.428v.06h.009Z"/></svg>