<svg xmlns="http://www.w3.org/2000/svg" fill="none" viewBox="0 0 210 80"><path fill="#000" fill-rule="evenodd" d="m63.586 30.94-3.426-6.074h6.642a.599.599 0 0 1 .48.28l1.291 2.13 2.23 3.663h-7.217ZM51.301 67.706c-.164.293-.364.293-.434.293h-6.794l10.549-18.887a1.027 1.027 0 0 0 0-1.007 1.036 1.036 0 0 0-.869-.503l-17.976.024-3.579-6.18h26.237c.059 0 .117 0 .176-.023.047 0 .082-.023.13-.035.023 0 .046-.023.07-.023.2-.082.363-.234.48-.433l4.319-7.958h7.122L51.312 67.72l-.011-.012Zm-8.977-.713-.856-1.393-2.652-4.341c-.059-.082-.082-.293.035-.492l6.196-11.117h6.97l-9.704 17.354.011-.011Zm-11.898-11.82-3.461-6.143 3.496-6.53 3.509 6.05-3.532 6.623h-.012Zm-8.425.96a.617.617 0 0 1-.48-.28l-1.127-1.85L18 50.061h7.216l3.427 6.073H22Zm15.5-42.841c.165-.293.365-.293.435-.293h6.817L34.17 31.887a.089.089 0 0 1-.023.047c-.012.035-.035.059-.047.094 0 .035-.023.058-.035.093 0 .035-.012.059-.024.094v.304c0 .035 0 .059.012.094 0 .035.023.058.035.093 0 .035.024.059.035.094.012.035.036.059.047.082.012.023.036.058.047.082.024.023.035.047.059.082l.07.07c.024.023.047.035.07.059a.359.359 0 0 0 .083.058c.012 0 .023.012.035.023.012 0 .024 0 .035.012.047.023.106.047.165.07.023 0 .035.012.058.024.07.023.153.023.223.023h.446l17.53-.023 2.066 3.604 1.408 2.446H30.39c-.352 0-.692.199-.88.526l-4.318 8.075h-7.11l19.419-34.72Zm9 .737 3.486 5.722c.058.082.082.293-.035.492L43.756 31.36h-6.97l9.716-17.331Zm11.864 11.784 3.461 6.143-3.532 6.518-1.431-2.504-2.077-3.616 3.579-6.53v-.011Z" clip-rule="evenodd"/><path fill="#000" d="M77.984 56.298V41.155h2.511V47.1c.352-.468 1.314-1.38 2.933-1.38 1.972 0 3.662.842 3.662 4.188v6.39h-2.512V50.4c0-1.685-.352-2.598-1.877-2.598-1.126 0-1.76.445-2.206.936v7.56h-2.511ZM100.56 54.59c-.422 0-.563-.141-.563-.539v-4.283c0-2.902-1.807-4.049-4.506-4.049-2.511 0-4.834.96-4.834 3.792h2.37c0-1.217.845-1.803 2.3-1.803 1.924 0 2.159 1.054 2.159 2.388v.842c-.61-.187-1.76-.374-2.84-.374-2.135 0-4.271.632-4.271 3.019 0 2.06 1.643 2.949 3.661 2.949 2.136 0 3.285-.96 3.825-1.638v.187c0 .772.376 1.45 1.69 1.45.774 0 1.572-.233 1.995-.42v-1.662a4.77 4.77 0 0 1-.986.14Zm-3.074-.796c-.517.42-1.55.866-2.863.866-1.15 0-1.737-.351-1.737-1.147 0-.983.915-1.24 2.3-1.24.892 0 1.854.093 2.3.21v1.31Z"/><path fill="#000" fill-rule="evenodd" d="M104.268 56.298V45.953h2.182v1.404c.493-.678 1.455-1.638 3.216-1.638 1.971 0 3.707.843 3.707 4.19v6.389h-2.511V50.4c0-1.685-.352-2.598-1.877-2.598-1.127 0-1.76.445-2.206.936v7.56h-2.511Zm19.76-15.143v5.875c-.423-.468-1.455-1.31-3.098-1.31-2.253 0-4.341 1.59-4.341 5.406 0 3.814 2.041 5.406 4.341 5.406 1.76 0 2.887-.866 3.426-1.592v1.358h2.183V41.155h-2.511Zm0 12.381a3.324 3.324 0 0 1-2.323.913c-1.784 0-2.535-1.334-2.535-3.323 0-1.99.751-3.324 2.535-3.324 1.056 0 1.83.445 2.323.913v4.821Zm11.006 2.996c-2.769 0-5.045-.936-5.116-3.487h2.464c.094 1.1 1.221 1.568 2.793 1.568 1.432 0 2.558-.21 2.558-1.17 0-1.03-1.572-1.194-3.661-1.569-2.018-.35-3.966-.936-3.966-3.112 0-2.177 2.206-3.043 4.764-3.043 2.558 0 4.741.679 4.928 3.277h-2.464c-.164-1.124-1.361-1.358-2.44-1.358-1.432 0-2.23.281-2.23.983 0 .936 1.244 1.1 3.708 1.498 1.924.304 3.943.936 3.943 3.066 0 2.504-2.371 3.347-5.281 3.347Z" clip-rule="evenodd"/><path fill="#000" d="M143.694 56.298V41.155h2.511V47.1c.352-.468 1.314-1.38 2.934-1.38 1.971 0 3.661.842 3.661 4.188v6.39h-2.512V50.4c0-1.685-.352-2.598-1.877-2.598-1.126 0-1.76.445-2.206.936v7.56h-2.511ZM166.27 54.59c-.422 0-.563-.141-.563-.539v-4.283c0-2.902-1.807-4.049-4.506-4.049-2.511 0-4.834.96-4.834 3.792h2.37c0-1.217.845-1.803 2.3-1.803 1.924 0 2.159 1.054 2.159 2.388v.842c-.61-.187-1.76-.374-2.84-.374-2.135 0-4.271.632-4.271 3.019 0 2.06 1.643 2.949 3.661 2.949 2.136 0 3.286-.96 3.825-1.638v.187c0 .772.376 1.45 1.69 1.45.774 0 1.572-.233 1.995-.42v-1.662a4.77 4.77 0 0 1-.986.14Zm-3.074-.796c-.517.42-1.549.866-2.863.866-1.15 0-1.737-.351-1.737-1.147 0-.983.915-1.24 2.3-1.24.892 0 1.854.093 2.3.21v1.31Z"/><path fill="#000" fill-rule="evenodd" d="M169.978 56.298V41.155h2.511v8.707l4.506-3.909h3.332l-4.482 3.792 4.74 6.553h-3.027l-3.497-5.172-1.572 1.263v3.909h-2.511ZM193 51.126c0-4.096-2.675-5.407-5.327-5.407s-5.327 1.31-5.327 5.453c0 3.885 2.464 5.36 5.468 5.36 2.252 0 4.67-.843 5.163-3.51h-2.582c-.188 1.006-1.15 1.567-2.534 1.567-2.019 0-2.91-1.1-2.981-2.902H193v-.561Zm-8.073-1.194c.211-1.592 1.385-2.27 2.746-2.27s2.534.678 2.746 2.27h-5.492Z" clip-rule="evenodd"/></svg>