<svg xmlns="http://www.w3.org/2000/svg" fill="none" viewBox="0 0 210 80"><path fill="#2C347D" d="M80.752 48.57v10.3h-4.265c-.015-.168-.03-.33-.03-.482 0-6.29-.023-12.587.023-18.876.038-5.96 4.916-11.19 10.86-11.727 6.65-.606 12.026 3.612 13.077 10.254 1.059 6.68-3.329 12.648-10.047 13.637-2.93.43-5.684.054-8.061-1.91-.545-.452-1.12-.858-1.557-1.188v-.008Zm-.345-8.843c-.17 3.85 2.999 8.16 8.015 8.207 4.203.038 7.83-3.743 7.83-8.092 0-4.556-3.497-8.245-7.83-8.253-4.564-.008-8.023 3.498-8.023 8.138h.008Zm46.97-1.158c-6.175 1.656-12.264 3.29-18.431 4.94.844 1.51 1.941 2.653 3.382 3.428 3.36 1.794 7.018 1.027 9.465-1.949.115-.138.307-.291.468-.299 1.357-.023 2.723-.015 4.165-.015a10.623 10.623 0 0 1-2.225 3.482c-2.607 2.73-5.813 3.92-9.572 3.597-5.085-.437-9.74-4.832-10.538-9.894-.629-4.011.246-7.593 3.03-10.6 1.948-2.101 4.41-3.244 7.271-3.49 5.338-.452 9.84 2.233 11.965 7.118.199.46.36.936.49 1.42.192.712.338 1.441.53 2.246v.016Zm-4.978-2.079c-.928-3.152-4.878-5.676-8.874-4.61-3.674.975-6.32 5.086-5.384 8.43l14.258-3.82Zm32.344 14.772c-1.381 0-2.662.008-3.943-.023-.115 0-.314-.268-.33-.422-.038-.682-.015-1.365-.015-2.047 0-.17-.023-.338-.038-.583-.491.521-.898 1.02-1.365 1.434-1.895 1.672-4.15 2.224-6.635 2.194-5.468-.077-10.254-3.782-11.459-9.097-1.365-6.036 1.787-13.154 9.128-14.749 6.81-1.48 13.69 3.336 14.541 10.262.07.575.108 1.158.108 1.741.008 3.52 0 7.033 0 10.554v.744l.008-.008Zm-3.92-11.42c0-4.71-3.405-8.237-7.976-8.253-4.334-.015-7.893 3.674-7.9 8.192-.008 4.379 3.612 8.145 7.846 8.16 4.364.016 8.023-3.681 8.03-8.1Zm34.162 8.36v3.559a6.952 6.952 0 0 1-4.234-1.389c-2.04-1.503-3.068-3.627-3.513-6.043-.222-1.22-.33-2.47-.33-3.712-.03-6.497-.015-12.993-.015-19.482 0-.215.015-.43.031-.667h4.256v.798c0 6.718-.023 13.43.023 20.148a12.2 12.2 0 0 0 .53 3.49c.498 1.618 1.373 3.014 3.267 3.298h-.015Zm-24.007-19.903h4.241v3.375c1.772-2.493 4.196-3.72 7.218-3.981v3.88c-.522.139-1.097.239-1.634.43-3.129 1.09-4.932 3.314-5.537 6.535-.039.215-.031.437-.031.66v11.926h-4.249V28.3h-.008Z"/><path fill="#575BCB" d="M59.667 35.416c-.912.184-2.04.338-3.443.453-1.964.153-4.464.222-7.64.16h-.122c.03-3.359.054-5.805-.046-7.777-.161-3.198-.66-5.161-2.033-7.769-.069-.138-.145-.276-.222-.414-.015-.023-.023-.046-.03-.062 8.022.53 14.74 5.83 17.333 13.085-.176-.153.767 1.404-3.797 2.324Zm4.879 5.83c-.606 7.914-5.89 14.526-13.108 17.087-.514-.084-1.427-.705-2.117-3.704-.207-.897-.391-2.01-.537-3.382-.207-1.895-.337-4.28-.353-7.294v-.269c3.383.016 5.845.03 7.831-.084 3.214-.177 5.185-.698 7.823-2.11.108-.06.215-.114.33-.176.046-.023.084-.046.13-.069Zm-21.33 18.169c-.154-.015-.307-.023-.46-.046-7.617-.775-13.952-5.852-16.537-12.763.2-.552 1.013-1.395 3.943-2.032.874-.192 1.94-.36 3.229-.506 1.864-.2 4.21-.338 7.148-.368h.222c.054 3.06.2 5.606.4 7.692.344 3.575.858 5.806 1.403 7.033.03.077.069.146.1.208.184.368.368.62.544.774l.008.008ZM40.8 35.876v.146c-3.068.069-5.614.222-7.708.437-5.131.514-7.51 1.373-8.084 2.148 0-.046 0-.092.007-.138.491-7.87 5.6-14.496 12.67-17.204 7.072-2.707.054-.023.085-.03.023-.016.054-.023.092-.039.476-.146 1.672-.084 2.393 3.72.177.92.322 2.063.422 3.474.146 1.941.2 4.395.123 7.494v-.008Z"/><path fill="#2C347D" d="M48.408 28.245a12.06 12.06 0 0 0-3.666-.568c-1.426 0-2.8.246-4.065.698-.1-1.41-.245-2.554-.422-3.474.092-.476.499-2.255 2.163-3.59A6.224 6.224 0 0 1 46.123 20c.061.115.145.276.253.476 1.373 2.607 1.871 4.578 2.032 7.77Zm16.138 13-.46.246c-2.64 1.419-4.61 1.933-7.824 2.117.391-1.197.606-2.47.606-3.797s-.23-2.707-.66-3.942c1.412-.115 2.54-.269 3.444-.453 1.059.59 2.807 1.787 4.042 3.927.384.675.66 1.32.844 1.902h.008Zm-34.384 3.337c.874-.192 1.94-.36 3.229-.507a12.12 12.12 0 0 1-.775-4.264c0-1.158.161-2.285.468-3.352-5.131.514-7.509 1.373-8.084 2.148.054.59.314 2.5 1.894 4.119a6.848 6.848 0 0 0 3.26 1.848l.008.008Zm18.63 6.665c-1.266.445-2.623.69-4.042.69-1.25 0-2.455-.192-3.582-.537.345 3.574.859 5.806 1.404 7.033.03.077.069.146.1.208.183.368.367.62.544.774l.092-.069a7.253 7.253 0 0 0 3.536-1.365 7.233 7.233 0 0 0 2.492-3.36c-.107-.475-.207-.981-.537-3.382l-.007.008Z"/></svg>