<svg xmlns="http://www.w3.org/2000/svg" fill="none" viewBox="0 0 210 80"><path fill="#0B0F1E" d="M86.428 31.867c-3.655 0-6.142 1.278-7.435 3.819-.38.732-.17 1.291.618 1.65l1.434.632c.28.13.576.172.885.13.281-.159.506-.403.66-.69a4.255 4.255 0 0 1 1.66-1.392 4.111 4.111 0 0 1 2.107-.36c.506-.057.998 0 1.476.159a3.6 3.6 0 0 1 1.293.76c.605.761.9 1.738.83 2.714v1.019l-3.458-.187a11.286 11.286 0 0 0-6.255 1.321 5.23 5.23 0 0 0-1.532 2.053 5.416 5.416 0 0 0-.365 2.54 5.858 5.858 0 0 0 .351 2.456c.31.775.773 1.478 1.378 2.038 1.152.962 3.246 1.45 6.282 1.45a16.79 16.79 0 0 0 6.466-.962c.404-.138.76-.392 1.026-.732.21-.416.309-.89.267-1.35v-9.503c0-5.038-2.558-7.565-7.688-7.565Zm3.528 15.777a.582.582 0 0 1-.113.33.548.548 0 0 1-.281.186 17.814 17.814 0 0 1-3.598.288c-.928.1-1.87-.115-2.67-.603a2.4 2.4 0 0 1-.563-.847 2.423 2.423 0 0 1-.14-1.005 1.999 1.999 0 0 1 .168-.99c.125-.317.329-.594.59-.805a4.517 4.517 0 0 1 2.685-.588l3.921.186v3.848Zm7.28-9.877a5.535 5.535 0 0 1 .45-2.383 5.201 5.201 0 0 1 1.433-1.923 8.282 8.282 0 0 1 5.51-1.594c3.851 0 6.423 1.306 7.688 3.919a.986.986 0 0 1 .183.474c.028.172 0 .344-.056.502-.062.163-.158.31-.282.43a1.102 1.102 0 0 1-.435.245l-1.617.66c-.272.146-.581.2-.885.158a1.616 1.616 0 0 1-.633-.675 4.007 4.007 0 0 0-1.672-1.521 4.034 4.034 0 0 0-2.207-.373c-2.249 0-3.373.66-3.373 1.98-.028.33.042.675.211.962.169.288.422.517.731.66 1.054.374 2.15.59 3.275.647 1.925.086 3.808.631 5.495 1.593a4.77 4.77 0 0 1 1.476 1.91c.323.76.45 1.579.365 2.397a5.532 5.532 0 0 1-2.01 4.45 8.79 8.79 0 0 1-5.748 1.68c-4.217 0-6.887-1.479-8.011-4.436a.957.957 0 0 1-.127-.474c0-.172.028-.33.098-.488a.92.92 0 0 1 .31-.388.994.994 0 0 1 .45-.2l1.616-.517a1.12 1.12 0 0 1 .885-.072c.288.17.5.448.59.775.549 1.35 1.898 2.01 4.062 2.01 2.544 0 3.809-.718 3.809-2.168a1.572 1.572 0 0 0-.225-.976 1.629 1.629 0 0 0-.744-.675 12.204 12.204 0 0 0-3.36-.703l-2.136-.316a10.239 10.239 0 0 1-1.926-.574 5.419 5.419 0 0 1-1.686-.99 4.424 4.424 0 0 1-1.082-1.609 5.967 5.967 0 0 1-.422-2.426v.03Zm18.103 0a5.525 5.525 0 0 1 .45-2.383 5.19 5.19 0 0 1 1.433-1.923 8.281 8.281 0 0 1 5.51-1.594c3.851 0 6.423 1.306 7.688 3.919a.986.986 0 0 1 .183.474c.028.172 0 .344-.057.502-.061.163-.157.31-.281.43a1.102 1.102 0 0 1-.435.245l-1.617.66c-.272.146-.581.2-.885.158a1.616 1.616 0 0 1-.633-.675 4.013 4.013 0 0 0-1.672-1.521 3.92 3.92 0 0 0-2.207-.388c-2.249 0-3.373.66-3.373 1.981-.028.33.042.675.211.962.168.287.421.517.731.66a11.54 11.54 0 0 0 3.274.646c1.926.087 3.809.632 5.496 1.594a4.77 4.77 0 0 1 1.476 1.91c.323.76.449 1.578.365 2.397a5.531 5.531 0 0 1-2.01 4.45 8.803 8.803 0 0 1-5.748 1.694c-4.217 0-6.887-1.479-8.012-4.436a.96.96 0 0 1-.126-.474c0-.172.028-.33.098-.488a.93.93 0 0 1 .309-.388 1 1 0 0 1 .45-.2l1.617-.517a1.115 1.115 0 0 1 .885-.072c.288.17.5.448.59.775.549 1.35 1.898 2.01 4.062 2.01 2.544 0 3.809-.718 3.809-2.168a1.572 1.572 0 0 0-.225-.976 1.626 1.626 0 0 0-.745-.675 11.69 11.69 0 0 0-3.359-.703l-2.136-.316a10.239 10.239 0 0 1-1.926-.574 5.42 5.42 0 0 1-1.686-.99 4.432 4.432 0 0 1-1.083-1.609 6.197 6.197 0 0 1-.421-2.411v.014Zm33.184 5.527c1.082 0 1.616-.531 1.616-1.58v-2.239a7.269 7.269 0 0 0-.492-2.957 7.533 7.533 0 0 0-1.602-2.512 8.228 8.228 0 0 0-2.895-1.694 8.05 8.05 0 0 0-3.303-.43c-2.249-.159-4.456.574-6.199 2.038a7.63 7.63 0 0 0-1.686 2.699 7.83 7.83 0 0 0-.45 3.172v4.336a8.104 8.104 0 0 0 .45 3.072c.351.99.885 1.895 1.588 2.655a8.525 8.525 0 0 0 2.895 1.723 8.195 8.195 0 0 0 3.331.402c3.753 0 6.353-1.177 7.759-3.532.534-.818.393-1.435-.422-1.823l-1.265-.703a1.453 1.453 0 0 0-1.026-.273 1.57 1.57 0 0 0-.801.718 4.594 4.594 0 0 1-1.869 1.55 4.54 4.54 0 0 1-2.376.402 4.4 4.4 0 0 1-3.036-.947 3.345 3.345 0 0 1-.829-1.235 3.394 3.394 0 0 1-.225-1.493v-1.35h10.837Zm-10.851-3.273v-.818a3.649 3.649 0 0 1 .239-1.508c.195-.475.482-.904.844-1.263a4.473 4.473 0 0 1 3.092-.976 4.405 4.405 0 0 1 3.092.976c.351.359.632.79.815 1.263.183.488.253.99.225 1.508v.818h-8.307Zm23.781-8.154h1.153c.309-.029.618.057.857.244.099.13.169.273.211.43.042.159.056.317.042.474v1.608c.028.316-.056.632-.253.876a1.157 1.157 0 0 1-.857.258h-1.279a11.463 11.463 0 0 0-3.416.445.362.362 0 0 0-.267.144.458.458 0 0 0-.098.301V50.3c.028.316-.056.632-.239.876-.115.1-.249.173-.393.215a1.178 1.178 0 0 1-.45.043h-1.982a1.157 1.157 0 0 1-.857-.258 1.217 1.217 0 0 1-.253-.876V35.054a2.486 2.486 0 0 1 .267-1.306c.294-.373.69-.648 1.138-.79a20.74 20.74 0 0 1 6.676-1.091Zm9.473-3.862c.31-.028.619.058.858.245.097.117.169.254.211.401.042.144.056.302.042.46v3.302h4.09c.309-.03.618.057.857.244.097.117.169.254.211.402.042.143.056.301.042.459v1.694c.028.316-.056.631-.253.875a1.157 1.157 0 0 1-.857.259h-4.09v7.379a4.903 4.903 0 0 0 .843 3.416 4.825 4.825 0 0 0 3.219.818c.309-.028.632.058.899.244.099.13.169.273.211.431.042.158.056.316.042.474v1.694c.014.158 0 .316-.042.474a1.213 1.213 0 0 1-.211.43 1.45 1.45 0 0 1-.899.273c-3.022.1-5.144-.445-6.381-1.608-1.237-1.177-1.856-3.33-1.856-6.474v-7.508h-2.473c-.155.014-.309 0-.45-.043a1.061 1.061 0 0 1-.394-.215 1.234 1.234 0 0 1-.224-.876V33.56a1.249 1.249 0 0 1 .224-.861c.239-.187.549-.273.844-.244h2.473v-3.33c-.014-.159 0-.317.043-.46.041-.148.113-.285.21-.402.247-.186.552-.273.858-.244h1.939l.014-.015Zm8.405 9.762a5.54 5.54 0 0 1 .45-2.383 5.204 5.204 0 0 1 1.434-1.923 8.28 8.28 0 0 1 5.509-1.594c3.851 0 6.423 1.306 7.688 3.919a.976.976 0 0 1 .183.474c.028.172 0 .344-.056.502-.062.163-.158.31-.281.43-.127.116-.267.202-.436.245l-1.616.66a1.45 1.45 0 0 1-.886.158 1.608 1.608 0 0 1-.632-.675 4.015 4.015 0 0 0-1.673-1.521 3.917 3.917 0 0 0-2.206-.388c-2.249 0-3.374.66-3.374 1.981-.028.33.043.675.211.962.169.287.422.517.717.66a11.54 11.54 0 0 0 3.275.646c1.925.087 3.809.632 5.495 1.594a4.761 4.761 0 0 1 1.476 1.91c.323.76.45 1.578.366 2.397a5.545 5.545 0 0 1-.492 2.469 5.508 5.508 0 0 1-1.518 1.98 8.806 8.806 0 0 1-5.749 1.695c-4.216 0-6.887-1.479-8.011-4.436a.961.961 0 0 1-.127-.474c0-.172.028-.33.099-.488a.914.914 0 0 1 .309-.388c.141-.1.281-.172.45-.2l1.616-.517a1.12 1.12 0 0 1 .886-.072c.284.174.494.45.59.775.548 1.35 1.897 2.01 4.062 2.01 2.544 0 3.809-.718 3.809-2.168a1.636 1.636 0 0 0-.956-1.65 11.698 11.698 0 0 0-3.359-.704l-2.137-.316a10.23 10.23 0 0 1-1.925-.574 5.413 5.413 0 0 1-1.687-.99 4.43 4.43 0 0 1-1.082-1.609 6.171 6.171 0 0 1-.436-2.411l.014.014Z"/><path fill="#FF8585" d="M58.992 50.96c4.47 0 8.082-3.69 8.082-8.255 0-4.565-3.612-8.254-8.082-8.254-4.47 0-8.081 3.69-8.081 8.254 0 4.565 3.612 8.255 8.081 8.255Z"/><path fill="#F5D159" d="M37.446 49.137a6.217 6.217 0 0 0 4.442-1.88 6.487 6.487 0 0 0 1.84-4.537 6.487 6.487 0 0 0-1.84-4.538 6.217 6.217 0 0 0-4.442-1.88 6.217 6.217 0 0 0-4.443 1.88 6.487 6.487 0 0 0-1.84 4.538c0 1.702.662 3.334 1.84 4.537a6.217 6.217 0 0 0 4.443 1.88Z"/><path fill="#90C1FE" d="M19.484 47.299c2.473 0 4.483-2.053 4.483-4.58 0-2.526-2.01-4.579-4.483-4.579-2.474 0-4.484 2.053-4.484 4.58 0 2.526 2.01 4.579 4.484 4.579Z"/></svg>