<svg xmlns="http://www.w3.org/2000/svg" fill="none" viewBox="0 0 210 80"><path fill="#000" d="M164.982 33.948c0-5.513-4.525-9.948-9.941-9.948h-23.112c-5.552 0-9.942 4.435-9.942 9.948v12.146c0 1.21-.984 2.24-2.239 2.24s-2.193-1.03-2.193-2.24V33.948c0-5.513-4.479-9.948-9.942-9.948h-5.239c-5.463 0-9.942 4.435-9.942 9.948v12.146c0 1.21-.942 2.24-2.192 2.24a2.25 2.25 0 0 1-2.24-2.24V33.948C88 28.435 83.522 24 78.058 24H54.9c-5.468 0-9.9 4.435-9.9 9.948v22.047h10.301V43.807h15.274a3.777 3.777 0 0 0 3.807-3.81c0-2.151-1.703-3.855-3.807-3.855H55.301v-2.194c0-1.256.984-2.288 2.24-2.288H75.5c1.167 0 2.194 1.032 2.194 2.288v12.146c0 5.467 4.432 9.906 9.941 9.906h5.24c5.462 0 9.853-4.435 9.853-9.906V33.948c0-1.256 1.031-2.288 2.239-2.288s2.286 1.032 2.286 2.288v12.146c0 5.467 4.39 9.906 9.853 9.906h5.239c5.51 0 9.942-4.435 9.942-9.906V33.948c0-1.256.942-2.288 2.193-2.288h17.961c1.208 0 2.239 1.032 2.239 2.288 0 1.167-1.031 2.194-2.239 2.194h-13.035c-2.104 0-3.807 1.704-3.807 3.856a3.777 3.777 0 0 0 3.807 3.809h13.035c1.208 0 2.239 1.032 2.239 2.287a2.246 2.246 0 0 1-2.239 2.24h-13.035a3.806 3.806 0 0 0-3.807 3.81c0 2.105 1.703 3.856 3.807 3.856h15.629c5.421 0 9.942-4.435 9.942-9.906 0-2.33-.807-4.392-2.151-6.096 1.344-1.704 2.151-3.763 2.151-6.05h.004Z"/></svg>