<svg xmlns="http://www.w3.org/2000/svg" fill="none" viewBox="0 0 210 80"><path fill="#282B72" d="M41.57 20c.414.042.832.084 1.246.13 2.116.246 4.125.82 5.934 1.979a9.448 9.448 0 0 1 2.093 1.79c.096.11.18.226.295.375l-2.944 2.99c-.096-.095-.172-.164-.245-.237-1.568-1.626-3.496-2.519-5.716-2.825a10.642 10.642 0 0 0-3.47.061c-.735.142-1.44.38-2.031.866-.84.687-1.135 1.58-.94 2.634.108.575.453 1.004.913 1.342.54.395 1.158.628 1.79.82 1.085.33 2.2.521 3.309.732 1.449.276 2.898.552 4.297 1.04 1.096.379 2.132.873 3.029 1.625 1.184.993 1.867 2.265 2.108 3.78.176 1.096.173 2.189-.103 3.27-.453 1.782-1.515 3.124-3.029 4.129-1.242.824-2.618 1.31-4.071 1.575-2.795.506-5.567.406-8.296-.41-2.093-.625-3.941-1.68-5.451-3.285-.093-.096-.173-.204-.288-.338l2.906-3.182c.111.104.203.184.287.269 1.235 1.257 2.684 2.17 4.386 2.649 2.04.575 4.09.61 6.141.053.725-.195 1.388-.536 1.902-1.108.652-.72.843-1.575.675-2.51-.1-.56-.441-.986-.89-1.327-.613-.46-1.31-.748-2.043-.932a103.3 103.3 0 0 0-3.546-.82c-1.576-.341-3.151-.682-4.643-1.323-.981-.421-1.882-.958-2.641-1.72-.893-.898-1.426-1.983-1.64-3.221-.166-.947-.185-1.894.018-2.84.338-1.557 1.174-2.807 2.408-3.792 1.292-1.024 2.78-1.622 4.382-1.932.594-.115 1.2-.165 1.802-.25.103-.011.207-.038.306-.057h1.76Z"/><path fill="#2E75B3" d="M176.719 60c-.364-.042-.728-.069-1.089-.134-.878-.154-1.694-.468-2.388-1.047-.088-.073-.165-.153-.28-.264l1.081-1.307c.092.065.165.11.238.168 1.039.809 2.212 1.058 3.492.82.23-.042.457-.149.664-.268.471-.276.617-1.112-.081-1.464-.418-.211-.87-.295-1.319-.395-.632-.142-1.265-.28-1.894-.449a2.809 2.809 0 0 1-1.176-.64c-1.058-.958-1.001-2.73.115-3.672.536-.453 1.165-.702 1.851-.798 1.215-.176 2.404-.065 3.539.426.513.222.943.536 1.261.924-.337.41-.725.782-1.089 1.203-.077-.05-.138-.08-.192-.122-.943-.763-2.024-1.016-3.208-.832-.211.03-.43.115-.614.226-.582.364-.552 1.1.062 1.41.249.127.529.204.801.265.625.138 1.257.23 1.875.384a5.9 5.9 0 0 1 1.15.41c.655.314 1.096.824 1.242 1.56.004.03.03.054.046.08v1.193c-.016.038-.039.073-.05.115-.138.613-.499 1.066-.997 1.426-.483.349-1.031.54-1.61.648-.345.065-.702.092-1.05.134h-.38Zm-10.554 0c-.299-.035-.602-.057-.901-.111-1.947-.345-3.228-1.587-3.619-3.52-.218-1.092-.141-2.17.296-3.2.49-1.158 1.33-1.979 2.526-2.381 1.403-.475 2.798-.445 4.159.184.564.26 1.051.663 1.308 1.047-.115.21-.874.958-1.162 1.138-.073-.065-.146-.134-.226-.203-.867-.744-1.859-.982-2.96-.71-.878.22-1.456.798-1.775 1.634a3.69 3.69 0 0 0-.057 2.492c.437 1.345 1.648 2.085 3.055 1.905a3.727 3.727 0 0 0 2.036-.897c.038-.035.084-.065.126-.096.008-.004.02-.004.077-.02l1.07 1.143c-.085.096-.15.184-.23.257a5.083 5.083 0 0 1-2.948 1.269c-.154.015-.311.042-.464.061h-.315l.004.008Z"/><path fill="#282B72" d="M68.505 45.793V20.62c.134-.007.245-.019.356-.019 2.787 0 5.57-.008 8.357 0 1.465.004 2.933.058 4.386.272 1.867.276 3.63.836 5.171 1.967 1.864 1.372 3.125 3.182 3.88 5.36.598 1.732.801 3.518.76 5.347-.04 1.572-.296 3.105-.86 4.574-1.341 3.523-3.849 5.811-7.43 6.938a14.84 14.84 0 0 1-4.109.671c-1.894.046-3.791.046-5.685.058-1.476.008-2.952 0-4.428 0h-.395l-.003.004Zm4.93-4.21c.13.008.222.02.314.02 1.3 0 2.595.007 3.895 0 1.016-.008 2.028-.058 3.028-.273 1.653-.356 3.006-1.184 4.022-2.538.663-.885 1.085-1.882 1.338-2.951.398-1.672.421-3.355.107-5.045-.222-1.197-.652-2.312-1.334-3.328-.859-1.276-2.024-2.09-3.53-2.423a10.046 10.046 0 0 0-2.056-.253c-1.863-.023-3.726-.019-5.589-.027-.061 0-.119.016-.2.027v16.791h.005Zm81.291 4.19c.057-.153.092-.268.138-.383l4.347-10.565c1.894-4.604 3.792-9.212 5.685-13.817l.012-.03c.172-.407.111-.376.567-.376h4.428c.326 0 .33 0 .456.31l6.245 15.182a8922.01 8922.01 0 0 0 3.788 9.2c.057.142.111.288.18.46-.115.016-.196.035-.272.035-1.572 0-3.14 0-4.712.008-.222 0-.306-.096-.383-.28-.656-1.595-1.323-3.19-1.982-4.785-.027-.069-.058-.134-.084-.203-.039-.1-.115-.146-.219-.142h-10.427c-.031 0-.065.004-.096 0-.23-.03-.357.065-.445.288-.28.709-.579 1.414-.874 2.12-.372.897-.751 1.794-1.112 2.699-.092.23-.211.31-.464.31-1.475-.011-2.951-.008-4.427-.008-.1 0-.2-.011-.345-.019l-.004-.004Zm12.877-19.727c-.23.364-3.945 9.96-3.96 10.216h3.948c.66 0 1.338.004 2.009 0 .652-.007 1.304.027 2.001-.023-1.338-3.412-2.66-6.774-3.998-10.19v-.003Zm-66.613-5.42c.008.152.02.298.02.44v13.908c0 .828.026 1.653.164 2.473.234 1.384.821 2.565 1.959 3.427.74.56 1.576.905 2.488 1.07 1.173.214 2.339.188 3.481-.154 1.944-.582 3.163-1.867 3.592-3.856a9.78 9.78 0 0 0 .234-1.928c.031-3.002.027-6.008.031-9.01V20.81c0-.146.069-.21.211-.207h4.366c.092 0 .184.012.311.02.011.141.027.271.027.402v14.192c0 1.161-.054 2.32-.28 3.465-.552 2.776-2.109 4.812-4.555 6.184-1.453.816-3.028 1.257-4.688 1.407-1.836.169-3.642.03-5.398-.54-1.874-.61-3.488-1.618-4.757-3.144-.932-1.12-1.5-2.408-1.798-3.826a13.19 13.19 0 0 1-.3-2.741c-.007-5.034-.007-10.067-.007-15.1 0-.093.012-.185.023-.296h4.876Zm50.021-.005v25.114c-.238.065-3.995.088-4.466.023-.008-.111-.027-.234-.027-.353V26.613l-.069-.015c-.042.065-.092.123-.13.192l-5.302 9.91c-.552 1.034-1.112 2.066-1.656 3.1-.1.189-.211.277-.433.273a146.1 146.1 0 0 0-3.175 0c-.195 0-.31-.061-.387-.238a4.98 4.98 0 0 0-.31-.583c-.108-.168-.104-.31-.004-.49.782-1.457 1.556-2.918 2.334-4.378l5.854-11.003c.449-.84.901-1.679 1.338-2.526.104-.195.23-.26.445-.26 1.894.007 3.791 0 5.685.003.092 0 .184.012.303.023Zm-22.81 25.152h-4.497c-.065-.26-.076-24.81-.007-25.152.092-.007.191-.019.291-.019 1.863 0 3.726 0 5.593-.008.238 0 .353.092.457.288 1.391 2.626 2.787 5.248 4.186 7.874.59 1.108 1.177 2.22 1.771 3.324.08.15.1.276.015.437-.728 1.357-1.445 2.714-2.166 4.075-.019.035-.046.069-.076.111-.131-.046-.158-.169-.207-.26-.821-1.53-1.641-3.063-2.458-4.597-.881-1.652-1.767-3.305-2.649-4.957-.05-.092-.103-.176-.184-.31-.03.095-.057.145-.061.195-.008.092 0 .188 0 .284v18.708l-.008.008Zm-66.474 0h-4.861v-25.11c.234-.076 4.535-.092 4.85-.019.06.23.076 24.754.007 25.13h.004Z"/><path fill="#2E75B3" d="M95.45 56.139c.871 1.203 1.715 2.369 2.596 3.592-.145.019-.23.034-.314.038-.556 0-1.108-.008-1.664.004-.215.004-.345-.077-.464-.245-.686-.978-1.384-1.944-2.066-2.922-.138-.195-.28-.28-.518-.264-.29.02-.582.004-.916.004-.011.142-.027.264-.027.383v2.638c0 .122-.015.245-.023.383h-1.89l-.034-.035a.105.105 0 0 1-.02-.023c-.007-.042-.018-.08-.018-.122v-8.695c0-.042.011-.08.023-.145.076-.016.157-.039.233-.039 1.3 0 2.596-.011 3.895.015.457.012.924.073 1.361.188 1.074.288 1.79 1.174 1.913 2.281.12 1.116-.395 2.109-1.376 2.642-.21.115-.43.203-.69.326v-.004Zm-3.338-1.453c.483.065 2.013.038 2.415-.042a1.96 1.96 0 0 0 .36-.111c.414-.17.606-.495.637-.928.03-.453-.111-.824-.522-1.062a1.6 1.6 0 0 0-.782-.207c-.617-.012-1.234-.015-1.851-.02-.265 0-.28.02-.284.292v1.852c0 .069.02.142.03.226h-.003Zm-25.225-3.987h1.924c.008.138.02.257.02.38v2.855c0 .123.011.246.019.384h3.94c.012-.127.027-.246.027-.368v-2.887c0-.111.012-.226.016-.36h1.916c.073.264.081 8.71 0 9.05-.62.016-1.25.005-1.92.008-.042-1.257.008-2.476-.027-3.687-.25-.085-3.512-.108-3.956-.027-.008.11-.02.234-.02.352v2.952c0 .123-.01.246-.015.391h-1.917c-.065-.256-.076-8.702-.007-9.043Zm56.729 9.043v-9.035h6.629c.084.21.107 1.123.034 1.625-.111.008-.23.02-.353.02h-4.286c-.076.26-.088 1.62-.019 2 .468.012.943 0 1.423.004h2.909c.042.552.023 1.07.012 1.618-.138.011-.257.027-.38.03-1.204 0-2.407 0-3.611.004-.123 0-.245.012-.38.02v2.062h4.888v1.652h-6.87.004ZM85.56 54.897c0 .291-.004.586 0 .878 0 .157-.057.237-.222.23h-3.772c-.123 0-.246.011-.388.015v2.05c.135.008.257.016.38.016h4.113c.123 0 .246.012.41.02v.456c0 .314.004.628 0 .943-.003.226-.026.241-.26.253h-6.575c-.076-.288-.088-8.718-.026-9.032.23-.062 6.221-.08 6.609-.02.076.211.1 1.158.026 1.618-.11.004-.233.016-.352.016H81.17a57.856 57.856 0 0 0-.004 1.997h4.393v.56Zm24.505 4.83c-.089.02-.138.035-.184.038-.564 0-1.131 0-1.695.004-.165 0-.245-.073-.303-.215-.176-.437-.364-.866-.533-1.307-.065-.169-.157-.241-.345-.241-1.131.007-2.261.007-3.392 0-.177 0-.265.061-.326.222-.169.43-.361.847-.522 1.277-.076.195-.187.268-.398.264-.472-.011-.943 0-1.415 0-.092 0-.184-.011-.31-.019.026-.1.038-.18.069-.253 1.165-2.845 2.334-5.69 3.492-8.537.084-.211.196-.288.418-.28.471.015.943 0 1.414.004.349 0 .353 0 .483.318.618 1.51 1.231 3.02 1.848 4.531.514 1.257 1.032 2.515 1.545 3.776.054.134.1.269.157.418h-.003Zm-3.474-3.366c-.011-.28-1.123-3.212-1.288-3.423-.195.302-1.269 3.178-1.273 3.423h2.561Zm29.346-5.658c.008.134.02.257.02.375v4.55c0 .285.019.564.042.848.103 1.327 1.092 1.833 2.108 1.806.219-.004.437-.05.648-.115.61-.184 1.02-.583 1.158-1.208.08-.353.119-.724.119-1.085.011-1.59.004-3.182.004-4.769v-.356c.268-.08 1.61-.092 1.966-.023.008.092.019.191.019.291 0 1.717.008 3.431 0 5.149 0 .567-.076 1.127-.299 1.656a3.222 3.222 0 0 1-1.51 1.621 4.197 4.197 0 0 1-1.771.495c-.748.038-1.484 0-2.193-.288-1.3-.521-2.07-1.453-2.22-2.86a10.212 10.212 0 0 1-.053-.908c-.004-1.599 0-3.201 0-4.8v-.38h1.962Zm-20.793 5.846v3.144c-.253.08-1.579.1-1.928.038-.077-.226-.088-8.722-.008-9.02.058-.008.119-.027.176-.027 1.331.007 2.657.011 3.987.026.453.008.897.077 1.327.227 1.016.36 1.664 1.211 1.733 2.28.026.441.023.878-.085 1.312-.188.759-.694 1.245-1.376 1.575-.667.318-1.38.407-2.108.422-.472.011-.944 0-1.415.004-.084 0-.165.011-.303.019Zm.015-1.698c.073.015.135.042.192.042.514 0 1.027.008 1.537-.008.357-.011.71-.057 1.035-.226.453-.23.625-.617.618-1.108-.004-.471-.192-.832-.629-1.031-.18-.08-.376-.157-.567-.169-.698-.034-1.4-.042-2.101-.053-.027 0-.054.026-.088.045v2.511l.003-.003Zm-54.877 4.891h-1.979c-.019-.828-.007-1.64-.007-2.453v-4.93c-1.005-.023-1.97 0-2.933-.016-.088-.241-.1-1.31-.015-1.663h7.61c.302.007.314.015.318.322v1.319c-.138.007-.246.023-.357.023h-2.262c-.11 0-.222.011-.375.019v7.38Zm92.634-9.012v1.621h-2.944c-.011.161-.023.284-.023.403v6.942c-.264.085-1.61.1-1.974.027-.035-.801-.008-1.614-.015-2.423-.004-.816 0-1.629 0-2.445v-2.488c-.349-.004-.667-.012-.986-.012h-1.932c-.08-.25-.096-1.254-.034-1.606.226-.073 7.537-.092 7.908-.016v-.003Zm5.053-.027c.042.759.012 1.51.019 2.258.004.751 0 1.506 0 2.258v4.47c-.245.088-1.556.11-1.924.046-.077-.25-.081-8.737 0-9.032h1.905Z"/></svg>