<svg xmlns="http://www.w3.org/2000/svg" fill="none" viewBox="0 0 210 80"><path fill="#110837" fill-rule="evenodd" d="M123.956 17.8h-6.967v18.711H110.7V17.8h-6.967v-5.267h20.223V17.8Zm-1.323 31.167H113.7v4h7.078v5.266H113.7v4.145h8.933v5.266h-15.222V43.622h15.222v5.345ZM102.444 63.01a7.512 7.512 0 0 1-1.822 2.511c-.789.711-1.789 1.234-2.966 1.634-1.178.388-2.5.566-3.967.566-3.078 0-5.9-.889-8.545-2.655l2.712-4.923c.933.812 1.855 1.412 2.788 1.8.934.39 1.823.6 2.712.6 1.033 0 1.788-.21 2.288-.677.5-.456.756-.956.756-1.556 0-.355-.067-.678-.178-.922a2.389 2.389 0 0 0-.644-.711 4.62 4.62 0 0 0-1.178-.6c-.467-.178-1.067-.39-1.756-.634-.822-.244-1.61-.533-2.388-.81-.79-.278-1.467-.712-2.112-1.2a5.444 5.444 0 0 1-1.466-1.878c-.39-.745-.567-1.7-.567-2.867s.211-2.2.611-3.145c.39-.955.967-1.733 1.678-2.41.711-.678 1.611-1.2 2.644-1.556 1.034-.39 2.212-.567 3.5-.567 1.212 0 2.467.178 3.756.5 1.322.322 2.156.733 3.333 1.367l-1.555 5.155c-.678-.533-1.89-1.289-2.6-1.566-.678-.245-1.356-.39-2-.39-.822 0-1.467.179-2 .567-.5.39-.79.845-.79 1.456 0 .422.145.744.39 1.022.255.278.61.5 1 .711.433.211.889.356 1.433.5.533.145 1.033.278 1.567.456 2.066.678 3.578 1.555 4.5 2.655.966 1.1 1.433 2.545 1.433 4.312a6.89 6.89 0 0 1-.567 3.255ZM92.9 12.49V31.2h12.444l-1.455 5.267H86.611V12.489H92.9ZM74 80h61.056V0H74v80Z" clip-rule="evenodd"/></svg>