<svg xmlns="http://www.w3.org/2000/svg" fill="none" viewBox="0 0 210 80"><path fill="#000" d="M24 27.155h14.871c1.508 0 3.017.302 4.44.905 2.284.992 3.792 2.673 4.482 5.043.647 2.07.647 4.181.086 6.294-.603 2.155-1.896 3.793-3.836 4.913-.13.087-.258.13-.388.216l4.698 8.577h-8.362c-.258 0-.388-.086-.517-.301l-3.62-6.724c-.13-.216-.216-.302-.475-.302h-3.405v7.327c-.13 0-.215.044-.345.044h-7.327c-.087 0-.173 0-.259-.044L24 27.155Zm7.931 11.854H37.448c.216 0 .474 0 .69-.044 1.207-.172 2.026-1.077 2.069-2.327.086-1.422-.56-2.37-1.81-2.672-.302-.087-.647-.087-.992-.087H31.888l.043 5.13ZM56.155 25l23.707 6.38L73.526 55l-23.707-6.38L56.155 25ZM69 37.63l-6.595-1.811-1.767 6.595 6.595 1.81L69 37.63Zm14.353-10.475c.087 0 .173-.043.26-.043H98.74c1.595 0 3.147.345 4.569 1.12 1.897 1.078 2.888 2.716 3.104 4.871.172 1.466.043 2.888-.561 4.268-.474 1.077-1.206 1.896-2.155 2.543-.086.043-.129.086-.215.172.172.086.302.13.431.216 1.983 1.077 2.931 2.758 3.103 4.957.086 1.293-.086 2.586-.603 3.793-.862 2.026-2.457 3.146-4.526 3.663-.991.26-2.026.345-3.06.345H83.397l-.044-25.905Zm7.716 19.698h5.991c.82 0 1.466-.344 1.768-1.12.56-1.466-.259-2.716-1.81-2.802h-5.906l-.043 3.922Zm0-9.655h5.56c.259 0 .518-.086.733-.172.733-.259 1.12-.905 1.12-1.81 0-.82-.43-1.423-1.163-1.681a8.046 8.046 0 0 0-1.078-.173h-5.129l-.043 3.836Zm54.655 16.423c-7.371.043-13.491-5.992-13.534-13.406-.087-7.456 5.948-13.534 13.491-13.62 7.414-.086 13.535 5.948 13.578 13.405.086 7.5-5.949 13.578-13.535 13.62Zm-5.646-13.535c.043.431.086.862.172 1.293.69 3.32 4.181 5.302 7.328 4.138 2.801-1.034 4.353-4.095 3.534-7.026-.819-2.888-3.577-4.655-6.509-4.094-2.543.56-4.482 2.974-4.525 5.69Zm19.008-12.93h9.095c.259 0 .388.085.517.3l3.923 6.38c.043.086.129.173.215.302.086-.13.13-.216.216-.302l3.793-6.38c.129-.215.258-.3.517-.3h9.052l-.216.344-7.586 11.897c-.172.215-.129.388 0 .603l8.06 12.672.259.431h-9.052c-.258 0-.388-.086-.517-.301l-4.31-7.026c-.043-.086-.086-.173-.173-.302-.086.13-.129.216-.215.302l-4.483 7.069a.434.434 0 0 1-.431.258h-9.31l.258-.388 8.449-12.37c.129-.216.172-.345 0-.56l-7.802-12.242c-.129-.172-.173-.258-.259-.388ZM118.785 45.43h11.336v7.672h-19.224V27.155h7.888v18.276Z"/></svg>