<svg xmlns="http://www.w3.org/2000/svg" fill="none" viewBox="0 0 210 80"><path fill="url(#a)" d="m155.077 57.692-8.14-11.622 3.838-5.58 11.979 17.202h-7.677Z"/><path fill="url(#b)" d="m137.832 22.02 7.349 10.505-3.838 5.734-11.342-16.24h7.831Z"/><path fill="url(#c)" d="m83.88 22.02 7.832 10.832-4.301 6.042L75.76 22.02h8.12Z"/><path fill="#1C1D22" d="m154.324 22.02-24.94 35.653h7.657L162.137 22h-7.813v.02Zm-33.89 0v10.659a13.5 13.5 0 0 0-6.52-1.655c-7.523 0-13.599 6.042-13.599 13.488S106.41 58 113.914 58c2.353 0 4.591-.596 6.52-1.655v1.347h6.712V22.02h-6.712Zm-6.597 30.054c-4.244 0-7.697-3.425-7.697-7.639s3.453-7.639 7.697-7.639c4.243 0 7.696 3.425 7.696 7.64 0 4.213-3.453 7.638-7.696 7.638ZM100.99 22.019 76.05 57.673h7.811L108.764 22h-7.774v.02Zm-33.871 0v10.66a13.497 13.497 0 0 0-6.52-1.655C53.076 31.024 47 37.066 47 44.512S53.095 58 60.599 58c2.353 0 4.59-.596 6.52-1.655v1.347h6.712V22.02h-6.713Zm-6.597 30.055c-4.244 0-7.697-3.425-7.697-7.639s3.453-7.639 7.697-7.639c4.243 0 7.696 3.425 7.696 7.64 0 4.213-3.453 7.638-7.696 7.638Z"/><defs><linearGradient id="a" x1="156.645" x2="143.829" y1="54.452" y2="37.132" gradientUnits="userSpaceOnUse"><stop stop-color="#6966FF"/><stop offset="1" stop-color="#6966FF" stop-opacity=".36"/></linearGradient><linearGradient id="b" x1="98.001" x2="102.006" y1="24.867" y2="46.195" gradientUnits="userSpaceOnUse"><stop stop-color="#1C1D22"/><stop offset="1" stop-color="#1C1D22" stop-opacity=".55"/></linearGradient><linearGradient id="c" x1="81.078" x2="91.893" y1="24.902" y2="38.159" gradientUnits="userSpaceOnUse"><stop stop-color="#1C1D22"/><stop offset="1" stop-color="#1C1D22" stop-opacity=".55"/></linearGradient></defs></svg>