<svg xmlns="http://www.w3.org/2000/svg" fill="none" viewBox="0 0 210 80"><path fill="#231F20" d="M70.096 24.66C67.223 20.365 63.348 18 59.181 18c-2.907 0-5.63 1.186-7.988 3.36C48.828 19.187 46.097 18 43.19 18c-4.167 0-8.05 2.365-10.922 6.66C29.518 28.78 28 34.227 28 40s1.518 11.227 4.269 15.34C35.14 59.635 39.017 62 43.19 62c2.906 0 5.637-1.186 7.995-3.36 2.358 2.174 5.088 3.36 7.988 3.36 4.167 0 8.05-2.371 10.922-6.66 2.758-4.12 4.275-9.567 4.275-15.34s-1.517-11.227-4.275-15.34Zm-18.91.82c.19.25.372.508.548.773 2.196 3.286 3.503 7.561 3.747 12.182h-8.598c.237-4.621 1.545-8.896 3.747-12.183.183-.27.366-.528.556-.772Zm.548 28.274c-.176.271-.359.529-.548.773-.19-.251-.373-.508-.55-.773-2.242-3.347-3.556-7.73-3.76-12.46h8.619c-.203 4.73-1.518 9.113-3.76 12.46Zm-8.543 5.394c-3.185 0-6.214-1.918-8.544-5.394-2.44-3.652-3.788-8.537-3.788-13.747 0-5.21 1.349-10.096 3.788-13.748 2.324-3.476 5.36-5.393 8.544-5.393 2.168 0 4.261.888 6.111 2.548-.332.42-.657.867-.969 1.334-2.5 3.74-4.051 8.517-4.309 13.694h-7.047l4.059-4.33-2.134-1.91-6.87 7.663 6.87 7.663 2.127-1.911-4.038-4.316h7.013c.217 5.285 1.775 10.163 4.322 13.97.312.468.637.909.97 1.336-1.85 1.66-3.944 2.547-6.105 2.547v-.007Zm24.527-5.394c-2.33 3.476-5.36 5.394-8.544 5.394-2.161 0-4.262-.888-6.111-2.548.331-.42.657-.867.968-1.335 2.548-3.808 4.106-8.693 4.323-13.97h7.033l-4.052 4.322 2.135 1.91 6.863-7.663-6.87-7.663-2.128 1.911 4.052 4.323h-7.046c-.265-5.177-1.81-9.953-4.316-13.693a20.45 20.45 0 0 0-.97-1.335c1.85-1.66 3.95-2.541 6.112-2.541 3.185 0 6.22 1.918 8.544 5.393 2.44 3.652 3.788 8.537 3.788 13.748 0 5.21-1.342 10.095-3.788 13.747h.007ZM96.46 32.337v4.39h-2.507c-2.887 0-4.5 1.376-4.5 4.5v8.611h-4.146V32.682h4.147v2.162c1.341-1.443 2.744-2.507 5.014-2.507h1.992Zm5.129 7.202c.311-2.06 1.89-3.469 4.261-3.469 2.372 0 3.883 1.274 4.228 3.47h-8.489Zm12.643 2.026c0-5.258-3.131-9.215-8.355-9.215-4.946 0-8.455 3.646-8.455 8.87-.102 4.912 3.543 8.937 8.286 8.937 3.537 0 6.084-1.376 7.697-4.432l-3.503-1.755c-.962 1.58-2.026 2.474-3.916 2.474-2.372 0-4.093-1.41-4.431-3.68h12.582s.108-.203.108-1.199h-.013Zm54.495-2.026c.311-2.06 1.89-3.469 4.262-3.469 2.371 0 3.882 1.274 4.227 3.47h-8.489Zm12.643 2.026c0-5.258-3.13-9.215-8.354-9.215-4.946 0-8.456 3.646-8.456 8.87-.102 4.912 3.543 8.937 8.286 8.937 3.537 0 6.085-1.376 7.697-4.432l-3.503-1.755c-.962 1.58-2.026 2.474-3.916 2.474-2.371 0-4.092-1.41-4.431-3.68h12.582s.102-.203.102-1.199h-.007Zm-58.676-10.929v2.026h4.702v3.74h-4.702v13.416h-4.146V36.402h-3.293v-3.74h3.293V30.57c0-3.74 2.92-6.66 6.247-6.66h3.333v4.396h-2.507c-2.202 0-2.995.895-2.92 2.331h-.007Zm13.951 15.672c-2.751 0-4.465-2.202-4.465-5.054 0-2.853 1.822-5.055 4.465-5.055 2.642 0 4.573 2.094 4.607 5.088.034 2.717-1.68 5.021-4.607 5.021Zm4.573-13.64v1.891c-.996-1.24-2.784-2.202-4.837-2.202-4.743-.101-8.314 3.781-8.314 8.903 0 5.123 3.368 8.903 8.144 8.903 2.094 0 3.883-.826 5.021-2.202v1.89h4.018V32.67h-4.032Zm19.06 11.37 3.625 1.728c-1.416 2.798-4.452 4.451-7.901 4.384-4.939 0-8.489-3.903-8.388-8.87 0-5.176 3.524-8.936 8.524-8.936 3.178 0 5.901 1.382 7.765 4.417l-3.652 1.83c-1.037-1.552-2.175-2.52-4.106-2.52-2.622 0-4.384 2.52-4.384 5.243 0 2.724 1.762 5.11 4.384 5.11 1.687 0 2.825-.868 4.14-2.386h-.007Z"/></svg>