<svg xmlns="http://www.w3.org/2000/svg" fill="none" viewBox="0 0 210 80"><path fill="#2A4E8B" d="M93.102 55.596c-1.281 0-2.2-.341-2.755-1.025a5.075 5.075 0 0 1-1.046-2.562h-.214c-.484 1.367-1.281 2.39-2.39 3.075-1.11.683-2.433 1.025-3.971 1.023-2.335 0-4.15-.597-5.444-1.792-1.295-1.195-1.942-2.817-1.942-4.867 0-2.078.76-3.672 2.283-4.783 1.522-1.111 3.891-1.667 7.109-1.665h4.355v-2.178c0-1.565-.427-2.76-1.281-3.586-.854-.826-2.164-1.24-3.928-1.238-1.337 0-2.454.298-3.351.897a7.39 7.39 0 0 0-2.242 2.39l-2.047-1.92c.597-1.197 1.55-2.218 2.86-3.061 1.31-.843 2.96-1.264 4.953-1.26 2.675 0 4.753.654 6.234 1.96 1.481 1.305 2.222 3.122 2.22 5.453v12.099h2.519v3.032l-1.922.008Zm-9.82-2.392a8.686 8.686 0 0 0 2.348-.306 5.749 5.749 0 0 0 1.836-.853c.484-.34.89-.776 1.195-1.281a3.057 3.057 0 0 0 .427-1.58V45.56h-4.524c-1.965 0-3.396.285-4.292.854-.897.57-1.346 1.396-1.346 2.477v.897c0 1.082.392 1.922 1.176 2.519.783.596 1.843.895 3.18.896Zm14.814 2.392V33.563h3.415v4.055h.215c.398-1.052 1.109-1.992 2.134-2.817 1.025-.824 2.435-1.238 4.227-1.24h1.332v3.42h-2.013c-1.85 0-3.295.348-4.334 1.044-1.039.697-1.559 1.572-1.559 2.626v14.945h-3.417ZM111.852 24h3.416v20.025h.171l3.366-3.758 6.24-6.704h4.142l-8.155 8.712 8.966 13.321h-4.14l-7.302-11.23-3.288 3.367v7.857h-3.416V24Zm27.699 32.107a9.906 9.906 0 0 1-4.078-.81 8.814 8.814 0 0 1-3.117-2.327 10.685 10.685 0 0 1-2.006-3.63 15.01 15.01 0 0 1-.704-4.76 15.08 15.08 0 0 1 .704-4.743 10.688 10.688 0 0 1 2.006-3.648 8.816 8.816 0 0 1 3.117-2.326 9.91 9.91 0 0 1 4.078-.81 9.368 9.368 0 0 1 3.978.807 8.795 8.795 0 0 1 2.983 2.228 9.964 9.964 0 0 1 1.899 3.383c.454 1.387.678 2.838.662 4.297v1.623h-15.84v1.024a7.553 7.553 0 0 0 .447 2.626 6.208 6.208 0 0 0 1.282 2.115 5.845 5.845 0 0 0 2.049 1.407c.874.355 1.811.53 2.754.513 1.394 0 2.611-.328 3.651-.98a6.459 6.459 0 0 0 2.412-2.82l2.434 1.762a8.508 8.508 0 0 1-3.331 3.672c-1.509.932-3.302 1.397-5.38 1.397Zm0-20.198a6.47 6.47 0 0 0-2.561.485 5.745 5.745 0 0 0-1.99 1.377 6.47 6.47 0 0 0-1.303 2.101 7.276 7.276 0 0 0-.469 2.652v.297h12.168v-.46c0-1.95-.534-3.512-1.6-4.688-1.067-1.175-2.482-1.762-4.245-1.76v-.004Zm12.578 19.687V33.563h3.415v4.055h.214c.398-1.052 1.11-1.992 2.135-2.817 1.025-.824 2.434-1.238 4.226-1.24h1.324v3.42h-1.999c-1.85 0-3.294.348-4.333 1.044-1.039.697-1.559 1.572-1.559 2.626v14.945h-3.423ZM67.117 24.081l-8.583 16.054h-.212l-8.54-16.054H45v31.521h3.501V28.777h.213l2.52 4.996 5.723 10.425h2.815l5.721-10.417 2.52-5.004h.213v26.82h3.501V24.08h-4.61Zm96.418 31.948a2.194 2.194 0 0 1-1.41-.055c-1.352-.597-1.294-1.801-.777-2.965.197-.472.364-.974.765-1.355a1.47 1.47 0 0 1 1.717-.185c.737.444.982 1.331 1.132 2.11.081.54.051 1.152-.278 1.636-.284.39-.687.676-1.149.814Z"/></svg>