<svg xmlns="http://www.w3.org/2000/svg" fill="none" viewBox="0 0 210 80"><path fill="#00E7FF" d="M33.349 22c.823 2.517 1.622 5.041 2.475 7.547.853 2.517 1.767 5.016 2.62 7.534.151.442.121.944.176 1.422-.2.103-.4.206-.593.309-.097-.236-.182-.478-.29-.709-2.44-5.022-4.89-10.04-7.317-15.068-.152-.309-.152-.69-.224-1.035h3.153Z"/><path fill="#000" d="M120.983 26.194c.412-.037.769-.085 1.126-.091.514-.012 1.029 0 1.712 0V37.45c2.118-2.112 4.388-2.711 6.972-2.348 1.912.272 3.474 1.144 4.714 2.59 2.687 3.14 2.457 8.466-.484 11.48-2.85 2.917-7.274 2.935-11.081-.066-.06.617-.115 1.143-.175 1.767h-2.784v-24.68Zm2.881 16.908c-.024 3.256 2.063 5.483 5.132 5.49 3.007.005 5.089-2.161 5.125-5.332.037-3.244-2.063-5.501-5.125-5.501-2.99 0-5.114 2.208-5.132 5.343Zm-64.148 5.174c.799-.702 1.61-1.416 2.136-1.876 1.562.769 2.838 1.586 4.236 2.04 1.52.496 3.026.036 4.31-.92 2.093-1.567 1.93-4.315-.406-5.465-1.35-.665-2.839-1.077-4.267-1.573-3.613-1.259-5.35-3.286-5.374-6.488-.006-.913.14-1.9.503-2.735 2.118-4.866 10.766-5.767 14.1-1.41-.787.72-1.585 1.44-2.439 2.221-1.785-1.9-3.867-2.378-6.24-1.658-1.506.46-2.408 1.483-2.54 3.044-.122 1.452.568 2.578 1.893 3.135 1.78.744 3.65 1.289 5.453 1.99 3.54 1.38 4.974 4.158 3.885 7.771-.32 1.059-.938 2.136-1.706 2.929-3.34 3.456-10.803 2.923-13.544-1.005Zm41.636-6.995c.139-2.415-1.126-3.892-3.39-3.867-1.059.012-2.196.29-3.158.744-1.864.877-1.822.962-3.093-.841 1.773-2.542 8.351-3.329 10.887-.793.847.847 1.561 2.215 1.634 3.383.212 3.583.079 7.183.079 10.923h-2.469c-.073-.569-.146-1.12-.254-1.918-2.082 2.312-4.551 2.88-7.33 2.22-1.833-.435-3.134-1.512-3.473-3.412-.363-2.052.043-4.103 2.088-4.932 2.033-.823 4.315-1.06 6.5-1.49.641-.126 1.331-.017 1.985-.017h-.006Zm-.073 1.997c-1.985.32-3.988.526-5.925 1.004-1.15.279-1.797 1.271-1.658 2.524.14 1.277 1.029 1.858 2.215 2.082 3.51.66 5.888-1.622 5.368-5.61Zm50.695-7.837h2.965v15.413h-2.85c-.067-.538-.127-1.083-.218-1.815-1.785 2.01-3.928 2.68-6.427 2.19-2.421-.471-4.061-1.96-4.188-4.417-.193-3.728-.048-7.474-.048-11.329h2.862v6.342c0 1.096-.03 2.191.043 3.28.127 1.852 1.119 3.05 2.711 3.401 1.688.37 3.589-.308 4.321-1.815.484-.993.744-2.173.793-3.28.115-2.59.036-5.193.036-7.976v.006Zm18.409 13.168c.793-.653 1.471-1.21 2.197-1.81.563.4 1.095.806 1.658 1.157 1.362.847 2.82.89 4.2.17.514-.273 1.029-.981 1.077-1.532.042-.46-.484-1.168-.95-1.44-.75-.436-1.658-.6-2.505-.878-.945-.308-1.943-.508-2.821-.944-2.099-1.035-2.856-3.582-1.7-5.616 1.168-2.045 3.135-2.687 5.344-2.705 2.166-.018 4.157.454 5.495 2.554-.763.575-1.465 1.107-1.834 1.386-1.555-.448-2.814-1.047-4.085-1.084-.696-.018-1.773.77-2.052 1.453-.441 1.065.618 1.676 1.513 2.01.878.332 1.828.459 2.742.689 2.971.744 4.272 2.203 4.169 4.66-.096 2.396-1.749 4.048-4.617 4.508-2.941.472-5.658.17-7.831-2.578ZM87.487 37.97H83.47c0 3.032-.067 5.931.03 8.824.042 1.21.908 1.84 2.16 1.785.618-.03 1.235-.133 1.846-.206.502 2.542.248 2.875-2.233 3.002-3.328.17-4.871-1.247-4.914-4.587-.036-2.863-.006-5.725-.006-8.739h-3.31v-2.566c.998-.066 2.07-.139 3.298-.218V31.12h3.008c0 1.047.036 2.076-.012 3.098-.043.89.32 1.217 1.204 1.168.938-.054 1.888-.012 2.947-.012v2.596Zm100.125-2.68v-4.152h2.905v4.182h4.242v2.608h-4.018c0 3.123-.085 6.118.042 9.102.049 1.137 1.035 1.628 2.179 1.555.569-.036 1.138-.145 1.706-.218.709 2.251.37 2.79-1.869 2.996-3.474.315-5.157-1.15-5.193-4.581-.03-2.857-.006-5.72-.006-8.727a547.927 547.927 0 0 1-3.365-.151V35.47c1.047-.054 2.106-.115 3.389-.188l-.012.006Zm-28.031 15.595V35.483h2.741c.073.527.145 1.065.248 1.816 1.701-1.67 3.498-2.766 6.01-2.046-.049.974-.097 1.943-.146 2.863-.217.084-.314.157-.405.157-4.188-.115-5.562 1.204-5.574 5.392-.006 2.378 0 4.757 0 7.22h-2.874Zm-50.871-.03v-15.36h2.82l.14 1.913c1.646-1.798 3.461-2.833 5.87-2.221v2.971c-5.108.315-5.943 1.222-5.943 6.336v6.36h-2.887Z"/><path fill="#00E7FF" d="m17.463 30.63 15.498 7.42c.993.477 1.991.937 2.954 1.47.284.157.441.538.66.81-.352.049-.751.224-1.054.122-3.57-1.21-7.129-2.47-10.693-3.704-2.863-.992-5.725-1.979-8.787-3.032.484-1.053.914-1.979 1.422-3.086Zm-2.112 12.678A2043.16 2043.16 0 0 1 15 39.877c7.19.478 14.173.938 21.15 1.422.067 0 .116.345.249.775-7.008.411-13.895.816-21.042 1.234h-.006Zm21.738-3.667a36205.96 36205.96 0 0 0-15.547-13.756c1.005-.666 1.858-1.228 2.85-1.888 4.412 5.01 8.75 9.937 13.072 14.881.048.055-.163.333-.381.763h.006Zm-.073 3.594-17.392 8.37-1.864-2.433c2.85-1.64 17.98-6.53 19.262-5.93l-.006-.007ZM24.174 55.048c4.085-3.619 8.067-7.165 12.08-10.68.254-.225.702-.243 1.059-.352-.115.387-.128.872-.37 1.144-2.801 3.17-5.646 6.306-8.466 9.465-1.206 1.351-2.64 1.492-4.303.423Z"/><path fill="#000" d="M40.036 38.34c-.89-.8-1.797-10.918-1.513-15.293 2.245.206 2.542.502 2.433 2.578-.206 3.837-.436 7.68-.672 11.517-.024.369-.145.732-.242 1.198h-.006Z"/><path fill="#00E7FF" d="M31.902 57.124c1.937-3.964 3.867-7.934 5.822-11.892.103-.211.436-.314.666-.465.084.302.327.66.242.907-1.271 3.692-2.506 7.395-3.976 11.008-.224.551-1.58.654-2.415.962-.115-.169-.224-.344-.339-.514v-.006Z"/><path fill="#000" d="M44.744 26.581c1.592.835 1.96 1.73 1.095 3.304-1.555 2.82-2.868 5.78-4.484 9.102-.266-.648-.55-.992-.478-1.216 1.259-3.734 2.566-7.45 3.873-11.196l-.006.006Zm-6.118 29.932c.23-3.952.454-7.674.672-11.402.193-.03.387-.054.58-.084.134.308.364.605.388.926.206 2.91.357 5.821.569 8.732.109 1.525-1.138 1.313-2.21 1.828Zm9.937-25.097c1.143 1.199 1.022 2.046-.206 3.02-1.846 1.453-3.528 3.105-5.313 4.636-.194.163-.594.09-.896.12.048-.272 0-.623.151-.798 2.07-2.336 4.164-4.654 6.264-6.984v.006Zm-3.214 21.042c-.52.442-.974.83-1.452 1.24-1.834-3.382-3.195-8.35-2.397-9.101 1.265 2.584 2.512 5.126 3.85 7.855v.006Zm4.92-16.164c.642 1.223.587 1.925-.793 2.312-1.809.508-3.552 1.228-5.343 1.803-.381.121-.83.018-1.253.018a16.246 16.246 0 0 0-.115-.526 4688.89 4688.89 0 0 1 7.498-3.607h.006Zm-2.088 12.588c-.26.405-.532.835-.944 1.488-1.852-2.063-3.6-4.006-5.38-5.997 1.035-.466 3.565 1.404 6.33 4.509h-.006Zm-5.077-6.827c.533-.986 3.8-1.428 7.383-1.186.279 1.562.236 1.628-1.235 1.55-2.02-.11-4.036-.237-6.148-.364Zm6.887 3.008c-.182.448-.37.908-.617 1.507-2.288-1.108-4.455-2.16-6.784-3.286 1.113-.642 4.768.35 7.4 1.785v-.006Z"/></svg>