<svg xmlns="http://www.w3.org/2000/svg" fill="none" viewBox="0 0 210 80"><path fill="#471132" d="M80.365 23.783c-3.573 0-5.44 1.934-6.385 3.589V15l-.012.006.007-.006H46v3.426l10.866-1.932v31.023h4.282V16.494l8.551 1.52v29.503h4.282V33.252c0-3.816 1.66-7.63 5.046-7.63s3.886 2.916 3.886 5.415v16.48h4.282V30.05c0-3.977-3.238-6.27-6.828-6.27l-.002.002Zm79.705 17.944c-.809 3.01-2.443 5.2-5.311 5.2-3.942 0-6.135-4.46-6.135-10.87 0-.45.012-.89.033-1.32h16.244c-.422-6.523-4.005-10.954-10.14-10.954-6.542 0-10.184 5.037-10.184 12.276 0 7.24 3.642 12.277 10.184 12.277 5.02 0 7.893-2.285 9.237-5.985l-3.926-.62v-.004h-.002Zm-5.313-16.54c3.272 0 5.22 3.391 5.789 7.945H148.79c.583-4.8 2.66-7.944 5.967-7.944Zm-12.712 3.77c-.185-1.195-.785-2.348-1.697-3.248-.89-.878-2.491-1.926-5.073-1.926-3.458 0-5.507 1.835-6.52 3.872a5.992 5.992 0 0 0-1.317-1.946c-.888-.878-2.491-1.926-5.072-1.926-3.311 0-5.33 1.682-6.387 3.616v-2.8h-4.282v8.89c-.04 2.408-.943 5.335-3.726 9.142V24.599h-4.282v14.266c0 3.817-1.661 7.63-5.045 7.63-3.385 0-3.887-2.691-3.887-5.414V24.599h-4.282v16.609c0 4.435 3.238 7.126 6.829 7.126 3.345 0 5.295-1.698 6.385-3.272v2.559a85.676 85.676 0 0 1-4.827 4.563c-1.91 1.683-4.606 3.924-4.606 7.057 0 4.517 3.878 5.759 6.456 5.759 4.451 0 7.257-2.713 7.257-8.129V45.066c1.655-2.1 2.913-4.11 3.728-6.032v8.483h4.282V32.983c0-1.748.454-3.583 1.215-4.909.642-1.117 1.825-2.447 3.831-2.447 1.452 0 3.886.683 3.886 5.253v16.643h4.282V31.617c0-1.15.252-2.291.785-3.312.042-.08.085-.157.127-.232.64-1.117 1.825-2.447 3.828-2.447 1.453 0 3.887.683 3.887 5.253v16.643h4.282v-17.72c0-.282-.014-.564-.055-.841v-.004h-.002ZM103.683 56.11c0 2.4.012 7.63-3.032 7.63-1.36 0-2.913-.924-2.913-4.642 0-1.343.119-3.743 2.703-6.117a94.774 94.774 0 0 0 3.244-3.12l-.002 6.247v.002Z"/><path fill="#471132" d="M120.555 54.743c-.606.075-1.209.149-1.821.226-.008-.028-.022-.066-.032-.103a2.782 2.782 0 0 0-.499-1.02c-.303-.377-.704-.593-1.169-.686a3.417 3.417 0 0 0-1.742.089 1.984 1.984 0 0 0-1.276 1.185c-.224.543-.274 1.112-.256 1.69.014.438.073.868.24 1.276.293.72.826 1.154 1.579 1.32.486.107.977.117 1.467.014a2.127 2.127 0 0 0 1.476-1.098c.119-.216.206-.448.309-.675l1.851.293c-.01.043-.02.089-.032.133-.18.66-.463 1.266-.915 1.787a3.717 3.717 0 0 1-1.812 1.144c-.493.144-.998.2-1.512.204-.679.006-1.349-.072-1.991-.304-1.039-.372-1.778-1.066-2.202-2.088-.259-.625-.366-1.28-.386-1.952-.018-.571.016-1.14.152-1.697.131-.525.327-1.02.642-1.464.395-.559.91-.973 1.538-1.242.789-.34 1.617-.43 2.467-.395a4.96 4.96 0 0 1 1.651.333c.83.329 1.449.894 1.853 1.69.208.41.333.847.42 1.296.002.012 0 .024 0 .042v.002Zm21.472 2.584h-5.289l.017.145c.07.436.226.83.563 1.131.236.212.519.335.827.397.451.09.905.093 1.357-.012.517-.121.922-.4 1.195-.858.02-.034.042-.066.061-.1 0-.003.006-.007.004-.003l1.267.816c-.074.105-.147.222-.232.331-.369.482-.85.813-1.417 1.02-.601.223-1.225.27-1.857.252a4.942 4.942 0 0 1-1.421-.235c-1.018-.341-1.684-1.027-1.972-2.065a4.769 4.769 0 0 1-.13-1.74c.037-.405.123-.799.281-1.175.349-.829.947-1.392 1.793-1.693.526-.188 1.071-.253 1.625-.252.44 0 .874.048 1.298.17 1.122.326 1.812 1.053 2.032 2.206.095.498.085 1.001.023 1.503-.005.05-.011.097-.019.144 0 .004-.004.01-.008.018h.002Zm-1.665-.927a2.13 2.13 0 0 0-.099-.753c-.157-.47-.46-.799-.935-.956-.452-.148-.908-.136-1.362-.01a1.51 1.51 0 0 0-.895.666c-.167.262-.25.551-.304.853-.014.073-.02.148-.033.24l3.626-.042h.002v.002Zm-13.779 3.896-.081-1.316-.016-.014c-.02.022-.043.042-.057.067a2.654 2.654 0 0 1-.454.65c-.39.4-.862.644-1.413.72-.634.087-1.258.035-1.845-.24-.59-.277-.925-.755-1.007-1.403a2.157 2.157 0 0 1 .07-.918c.133-.426.41-.73.794-.945.371-.206.777-.301 1.193-.353.668-.085 1.338-.057 2.008-.006.228.018.458.04.688.06 0 0 .007-.004.007-.008.018-.35.044-.7-.049-1.044-.105-.39-.343-.66-.733-.777a1.811 1.811 0 0 0-1.104.006c-.424.139-.662.456-.783.87-.022.075-.04.154-.055.216-.583-.095-1.164-.192-1.752-.29.004-.02.008-.055.016-.089.121-.501.339-.949.701-1.322.331-.34.733-.568 1.187-.693a4.769 4.769 0 0 1 2.61 0 2.46 2.46 0 0 1 1.245.783c.301.36.469.78.535 1.24.031.232.043.468.047.702.01.82.004 1.64.022 2.459.012.533.056 1.066.085 1.597v.052h-1.853l-.006-.004Zm-.113-2.943c-.013 0-.023-.006-.033-.006-.387-.022-.771-.052-1.158-.063-.319-.01-.638-.014-.955.047-.251.048-.491.129-.675.315-.425.428-.252 1.18.317 1.385.41.149.832.147 1.258.07.262-.048.499-.149.7-.323.432-.377.541-.88.544-1.425h.002Zm8.008-3.971-.332 1.938c-.276-.113-.561-.147-.851-.159-.487-.02-.87.18-1.165.555a1.952 1.952 0 0 0-.418 1.112c-.032.61-.032 1.22-.036 1.83-.002.516.01 1.031.016 1.547v.079H129.8c.075-2.273.099-4.552.01-6.839h1.7v2.279c.071.03.095.004.107-.057.085-.415.19-.823.369-1.21.17-.368.39-.697.741-.919.19-.12.398-.194.62-.226.38-.053.755-.03 1.135.068h-.004v.002Z"/></svg>