<svg xmlns="http://www.w3.org/2000/svg" fill="none" viewBox="0 0 210 80"><path fill="#000" d="M115.846 30.34h4.633c.02 1.131 0 2.254.01 3.453.096-.106.153-.163.192-.23 1.17-1.996 2.964-3.022 5.209-3.33 1.276-.172 2.552-.153 3.799.221 1.977.585 3.32 1.861 4.078 3.77.057.145.115.289.192.49.086-.182.144-.297.201-.422 1.123-2.37 3.003-3.694 5.584-4.058 1.132-.164 2.254-.164 3.367.105 2.485.595 4.049 2.159 4.749 4.596.259.892.346 1.813.346 2.743v11.57c0 .116-.01.24-.02.375h-4.72V38.887c0-.575-.077-1.141-.259-1.688-.499-1.497-1.554-2.36-3.089-2.6-2.725-.432-5.027 1.199-5.603 3.962a8.131 8.131 0 0 0-.163 1.516c-.01 3.032 0 6.054 0 9.085v.451h-4.73v-10.62c0-.566-.057-1.123-.22-1.66-.422-1.41-1.334-2.312-2.773-2.667-1.727-.432-3.885.144-5.085 1.832-.566.797-.873 1.68-.988 2.639-.048.441-.067.901-.067 1.343v9.133h-4.615s-.019-.01-.028-.02c0 0-.02-.018-.02-.028 0-.105-.019-.22-.019-.326V30.445c0-.03.019-.067.039-.115v.01Zm50.828 19.283v-2.965c-.106.096-.154.135-.192.192-1.286 1.775-3.041 2.715-5.19 2.955-1.583.173-3.138.02-4.625-.566-2.465-.96-4.087-2.744-4.998-5.19-.614-1.65-.768-3.358-.652-5.095.105-1.563.479-3.05 1.247-4.422 1.4-2.495 3.559-3.895 6.37-4.298 1.353-.192 2.696-.154 4.01.23a6.99 6.99 0 0 1 3.684 2.494c.087.115.173.22.307.326.058-.978.039-1.938.048-2.897.278-.086 4.193-.105 4.653-.029v19.265h-4.662Zm-10.976-9.325c.039.278.077.825.202 1.352.355 1.545 1.161 2.802 2.571 3.598 1.132.643 2.36.815 3.636.614 1.641-.25 2.907-1.065 3.742-2.504.882-1.516 1.026-3.156.69-4.835-.508-2.6-2.456-4.26-5.056-4.385-2.36-.115-4.298 1.084-5.247 3.253-.365.834-.519 1.717-.538 2.897v.01Zm-49.792-9.959h4.701v19.293h-4.701v-3.377s-.048-.01-.067-.019c-.038.067-.086.134-.124.202-1.104 1.88-2.754 2.935-4.884 3.271-1.362.22-2.715.201-4.048-.211-2.015-.614-3.368-1.938-4.087-3.895a8.676 8.676 0 0 1-.518-3.003V30.32h4.72v10.678c0 .623.067 1.238.268 1.832.48 1.372 1.44 2.188 2.859 2.466 1.046.201 2.063.115 3.032-.326 1.314-.595 2.101-1.65 2.542-2.993.24-.74.317-1.497.307-2.265V30.34Zm-16.913.077c0 .067.019.134.019.201v2.59c0 .193-.077.317-.192.452-1.727 2.005-3.464 4.02-5.19 6.034-1.66 1.928-3.32 3.857-4.97 5.785-.077.087-.144.182-.269.346 3.665.038 7.253.019 10.87.047v3.78H72.54c0-.153-.02-.268-.02-.393V46.85c0-.22.058-.384.202-.556 2.658-3.08 5.306-6.16 7.954-9.24.729-.843 1.458-1.697 2.187-2.541.077-.087.144-.183.259-.336l-10.217-.03v-3.712c.278-.086 15.705-.105 16.089-.01v-.01Z"/><path fill="#5267FF" d="M49.496 25.964V40a.893.893 0 0 1-.441-.115l-10.602-6.073a.912.912 0 0 1-.451-.787V20.898a.902.902 0 0 1 1.353-.777l10.131 5.852.01-.01Z"/><path fill="#304CD8" d="m60.385 33.8-10.43 6.074a.875.875 0 0 1-.46.124V25.962l10.89 6.274a.902.902 0 0 1 0 1.564Z"/><path fill="#5267FF" d="M60.835 46.975v12.118c0 .69-.758 1.132-1.353.787l-9.987-5.757V40.019c.096.02.21.058.297.096l10.583 6.083c.278.154.46.46.46.777Z"/><path fill="#304CD8" d="M49.495 40.022v14.103l-11.042-6.36a.901.901 0 0 1 0-1.565l10.428-6.073a.919.919 0 0 1 .614-.105Z"/></svg>