<svg xmlns="http://www.w3.org/2000/svg" fill="none" viewBox="0 0 210 80"><path fill="#5A17EE" d="M69.412 35.956 76 33.388V22.6H55.6v21.6h4.8v-4.74l4.308-1.68 5.244 6.42h6.204l-6.744-8.244ZM60.4 34.312V27.4h10.8v2.712l-10.8 4.2ZM80.8 22.6v21.6h4.8V37h12v7.2h4.8V22.6H80.8Zm16.8 9.6h-12v-4.8h12v4.8Zm9.6-9.6h21.6v4.8H112V31h16.8v13.2h-21.6v-4.8H124v-3.6h-16.8V22.6Zm26.4 0v21.6h4.8V37h12v7.2h4.8V22.6h-21.6Zm16.8 9.6h-12v-4.8h12v4.8Z"/><path fill="#5A17EE" d="M69.412 35.956 76 33.388V22.6H55.6v21.6h4.8v-4.74l4.308-1.68 5.244 6.42h6.204l-6.744-8.244ZM60.4 34.312V27.4h10.8v2.712l-10.8 4.2ZM80.8 22.6v21.6h4.8V37h12v7.2h4.8V22.6H80.8Zm16.8 9.6h-12v-4.8h12v4.8Zm31.2 12h-21.6v-4.8H124v-3.6h-16.8V22.6h21.6v4.8H112V31h16.8v13.2Zm4.8-21.6v21.6h4.8V37h12v7.2h4.8V22.6h-21.6Zm16.8 9.6h-12v-4.8h12v4.8Z"/><path fill="#5A17EE" d="M46 13v40.8h82.8L154 67V53.8h10.8V13H46Zm114 36h-10.8v10.068L129.976 49H50.8V17.8H160V49Z"/><path fill="#5A17EE" d="M69.412 35.956 76 33.388V22.6H55.6v21.6h4.8v-4.74l4.308-1.68 5.244 6.42h6.204l-6.744-8.244ZM60.4 34.312V27.4h10.8v2.712l-10.8 4.2ZM80.8 22.6v21.6h4.8V37h12v7.2h4.8V22.6H80.8Zm16.8 9.6h-12v-4.8h12v4.8Zm14.4-4.8V31h16.8v13.2h-21.6v-4.8H124v-3.6h-16.8V22.6h21.6v4.8H112Zm21.6-4.8v21.6h4.8V37h12v7.2h4.8V22.6h-21.6Zm16.8 9.6h-12v-4.8h12v4.8Z"/></svg>