<svg xmlns="http://www.w3.org/2000/svg" fill="none" viewBox="0 0 210 80"><path fill="#000" d="m54.142 25.008-.077 1.075a32.282 32.282 0 0 0-.066 3.35c.03.768.071 1.535.146 2.298.085.883.212 1.761.367 2.634.01.067.033.132.055.213.361-.005.706-.084 1.05-.137.34-.053.677-.113 1.013-.183a32.42 32.42 0 0 0 2.038-.465c.342-.09.682-.188 1.02-.286l.983-.31 1.001-.35c.323-.118.643-.241.963-.37l.982-.41c.088.079.096.183.127.272l1.12 3.496.97 3.041c.03.093.055.188.091.303-.093.028-.174.056-.259.076a32.506 32.506 0 0 0-8.137 3.064c-.13.07-.254.143-.383.219 0 .129.069.219.113.314a33.695 33.695 0 0 0 4.852 7.466c.058.067.113.137.17.21-.057.11-.157.157-.242.219l-5.166 3.815-.533.393c-.193-.264-.333-.55-.504-.813l-.51-.806-.53-.79-.555-.775-.573-.758-.596-.74-.615-.724a30.734 30.734 0 0 0-1.294-1.389c-.223-.224-.436-.457-.678-.656-.433.28-2.174 2.18-3.21 3.495a34.01 34.01 0 0 0-2.66 3.925c-.027.009-.036.014-.044.011a.052.052 0 0 1-.027-.008l-5.787-4.27c-.039-.028-.075-.062-.127-.104.044-.106.127-.174.193-.255a33.091 33.091 0 0 0 3.986-5.766c.297-.55.573-1.113.855-1.672.044-.087.08-.18.118-.266-.055-.107-.154-.13-.24-.177a32.61 32.61 0 0 0-8.316-3.165c-.074-.017-.146-.047-.226-.073.011-.061.017-.112.03-.157l2.215-6.93c.116-.036.188.029.265.062 1.234.539 2.498 1 3.787 1.383 1.365.404 2.75.724 4.16.937l.581.093c.086.011.174.014.276.023.022-.062.047-.113.058-.169.193-1.088.337-2.185.43-3.288.12-1.383.136-2.77.092-4.155-.014-.469-.061-.934-.089-1.403-.01-.188-.01-.379-.016-.567h7.359-.006Zm44.157 0 .005.36v6.494c0 .118.014.236-.025.368-.386.034-.766.011-1.147.014H85.713c-.38 0-.761-.006-1.156.006-.011.078-.022.134-.022.193v4.369c0 .058.008.117.014.19.06.011.116.026.17.028.09.006.177 0 .266 0H95.55c.116 0 .232.003.348.006.06.132.038.252.038.37v6.077c0 .048-.01.096-.019.154l-.149.026H84.938c-.124 0-.251-.02-.386.033-.03.393-.012.78-.014 1.168v8.228l-.008 1.181-.174.028c-.05.006-.1 0-.146 0h-7.743c-.105 0-.215.026-.328-.044-.006-.043-.017-.09-.017-.138V25.387L76.114 25H98.31l-.011.008Zm76.656 29.274-.289.028h-7.128c-.121-.084-.151-.194-.198-.29-.226-.468-.353-.97-.45-1.48l-.069-.413c-.005-.034-.03-.067-.058-.118l-.132.143c-.974 1.288-2.267 2.057-3.806 2.433-.952.233-1.92.286-2.894.238a8.005 8.005 0 0 1-2.582-.541 6.088 6.088 0 0 1-1.533-.873c-.982-.774-1.616-1.784-1.92-3.002a7.547 7.547 0 0 1-.033-3.526c.309-1.37 1.059-2.427 2.215-3.193.703-.469 1.476-.783 2.281-1.016a15.57 15.57 0 0 1 2.48-.488c.973-.118 1.947-.224 2.912-.412.541-.104 1.076-.222 1.592-.416a3.09 3.09 0 0 0 .731-.378c.369-.27.554-.634.571-1.094a2.63 2.63 0 0 0-.1-.828c-.146-.516-.466-.873-.957-1.058a2.758 2.758 0 0 0-.538-.143 3.5 3.5 0 0 0-1.486.076c-.662.188-1.142.598-1.451 1.218-.135.269-.223.552-.284.847-.019.095-.042.19-.064.289-.052.008-.091.022-.129.022h-6.945c-.028 0-.056-.014-.103-.028-.002-.073-.013-.151-.008-.227.13-1.813.792-3.38 2.069-4.663.816-.82 1.782-1.397 2.849-1.81.874-.339 1.779-.55 2.706-.67 1.34-.177 2.681-.152 4.024-.07.775.047 1.542.146 2.301.32 1.023.235 1.985.617 2.849 1.234 1.395.996 2.264 2.348 2.639 4.037.152.685.205 1.38.205 2.08v10.293c0 .43.008.858.033 1.285.013.266.058.536.102.8.071.437.253.816.601 1.1v.3l-.003-.006Zm-8.131-9.351c-.072.022-.108.03-.143.047-.858.404-1.76.668-2.681.876-.536.12-1.071.252-1.578.468a3.214 3.214 0 0 0-.717.404 1.642 1.642 0 0 0-.624.918c-.063.252-.091.51-.069.771.061.716.406 1.238 1.04 1.552.157.078.326.14.497.182.775.19 1.539.13 2.284-.157.979-.373 1.597-1.088 1.872-2.11.089-.328.133-.665.133-1.004V45.14c0-.059-.009-.118-.017-.21h.003ZM108.485 55l-.902-.118c-1.994-.227-3.845-.855-5.481-2.06-1.906-1.402-3.15-3.279-3.798-5.571-.37-1.307-.485-2.643-.425-3.995.058-1.316.312-2.593.803-3.813 1.125-2.789 3.095-4.708 5.845-5.807a11.654 11.654 0 0 1 3.023-.736 14.038 14.038 0 0 1 2.703-.047c1.815.146 3.53.623 5.1 1.582 2.195 1.341 3.654 3.28 4.438 5.752.485 1.529.623 3.102.513 4.699-.105 1.506-.464 2.951-1.137 4.304-1.183 2.376-3.023 4.012-5.458 4.966a11.65 11.65 0 0 1-3.142.735c-.262.025-.524.07-.783.106h-1.297l-.002.003Zm4.12-11.256-.052-.931a9.162 9.162 0 0 0-.303-1.827c-.166-.597-.398-1.17-.756-1.678-.519-.732-1.205-1.19-2.102-1.279-.946-.095-1.762.177-2.424.887a3.588 3.588 0 0 0-.486.673 5.53 5.53 0 0 0-.466 1.097c-.265.853-.372 1.734-.405 2.623-.022.617-.014 1.237.041 1.855.055.597.146 1.186.306 1.764.168.61.408 1.187.786 1.695.353.474.792.828 1.349 1.021a3 3 0 0 0 1.101.152 2.76 2.76 0 0 0 1.839-.76c.306-.287.549-.623.745-.997.207-.387.359-.796.474-1.22.26-.948.342-1.922.353-3.078v.003Zm28.253-5.645h-1.771c-.281 0-.565.014-.841-.014-.014-.053-.028-.081-.028-.11v-4.43c0-.027.014-.055.025-.092.102-.045.21-.028.315-.028h1.972c.105 0 .215.025.336-.05l.003-1.092v-4.461l.006-1.119.179-.028c.069-.006.138 0 .207 0h6.68c.113 0 .226.002.339.005.075.121.047.233.047.34v6.074c0 .098-.013.2.022.292.108.062.218.036.323.036h3.208c.105 0 .215-.016.328.031l.019.143c.028.808.011 4.211-.022 4.458-.096.068-.206.04-.311.04h-3.208c-.105 0-.213.005-.334.01-.008.074-.019.13-.022.186-.003.059 0 .12 0 .18v7.99c0 .27.006.536.066.802.13.587.472.971 1.035 1.156.339.11.689.16 1.042.163.422.003.844-.017 1.263-.031.127-.003.254-.014.389-.02.011.079.028.135.028.191v5.328c0 .048-.008.098-.014.16-.077.022-.149.05-.223.067a15.034 15.034 0 0 1-3.909.432 18.213 18.213 0 0 1-1.994-.137c-.72-.098-1.429-.258-2.104-.539-1.269-.527-2.149-1.436-2.607-2.755a7.513 7.513 0 0 1-.198-.687c-.149-.623-.207-1.257-.229-1.897-.009-.21-.006-.418-.006-.628v-9.576c0-.118-.005-.235-.011-.395v.005Zm-3.795 1.67c-.08-.003-.149 0-.215-.012a10.106 10.106 0 0 0-1.995-.14 6.209 6.209 0 0 0-1.677.289c-1.224.401-2.11 1.195-2.67 2.368a6.601 6.601 0 0 0-.535 1.765 10.363 10.363 0 0 0-.129 1.697v8.17c0 .118.013.238-.022.367-.061.012-.116.026-.171.031-.069.006-.138 0-.207 0h-6.83c-.116 0-.231-.005-.358-.008-.014-.076-.031-.13-.036-.185-.006-.079 0-.16 0-.239V33.85c0-.13-.014-.258.022-.399.058-.01.113-.025.171-.03.069-.006.138 0 .207 0h6.476c.116 0 .235-.023.348.03.06.104.036.216.036.323l.005 2.455c0 .11-.058.238.066.322.124-.027.149-.148.207-.235.502-.744 1.073-1.425 1.779-1.98a6.17 6.17 0 0 1 2.888-1.258 7.855 7.855 0 0 1 1.641-.104c.262.014.524.068.784.113.074.014.143.053.209.081.036.244.042 6.276 0 6.599l.006.003Z"/></svg>