<svg xmlns="http://www.w3.org/2000/svg" fill="none" viewBox="0 0 210 80"><path fill="#26489D" d="M38.135 34.058h8.041v3.666h-8.041v-3.666Z"/><path fill="#26489D" d="M47.113 23.004v3.694H34.97v7.36h.006v3.666h-.005v10.663H31V23.004h16.113Zm3.971 8.072h3.844v17.311h-3.844V31.076Zm0-8.072h3.844v4.284h-3.844v-4.284ZM73.046 22v11.539c-.581-.94-1.424-1.617-2.552-2.072-1.1-.484-2.1-.712-3.035-.712-2.553 0-4.652.905-6.234 2.72-1.581 1.815-2.36 3.893-2.36 6.227 0 2.335.807 4.506 2.424 6.286 1.617 1.786 3.646 2.662 6.07 2.662.908 0 1.937-.228 3.1-.718 1.198-.485 2.07-1.232 2.68-2.236v2.691h3.745V22h-3.838Zm-1.39 21.59c-.935 1.038-2.197 1.558-3.715 1.558-1.517 0-2.78-.52-3.745-1.559-.936-1.068-1.424-2.363-1.424-3.887 0-1.523.488-2.825 1.424-3.893.966-1.068 2.228-1.587 3.745-1.587 1.518 0 2.745.52 3.716 1.587.965 1.069 1.453 2.37 1.453 3.893 0 1.524-.488 2.82-1.453 3.888Zm24.737-10.308c-1.78-1.716-3.908-2.562-6.397-2.562-2.488 0-4.68.875-6.46 2.591-1.773 1.722-2.68 3.858-2.68 6.391s.872 4.664 2.651 6.386c1.774 1.715 3.937 2.591 6.46 2.591 2.524 0 4.681-.876 6.426-2.591 1.773-1.751 2.645-3.893 2.645-6.45 0-2.556-.872-4.64-2.645-6.356Zm-2.68 10.308c-.937 1.068-2.199 1.587-3.716 1.587-1.518 0-2.78-.549-3.745-1.617-.971-1.103-1.454-2.399-1.454-3.922 0-1.523.483-2.79 1.419-3.829.971-1.068 2.227-1.587 3.75-1.587 1.524 0 2.774.52 3.71 1.587.971 1.069 1.454 2.37 1.454 3.893 0 1.524-.483 2.82-1.419 3.888Zm12.268 1.75c-2.425-2.17-3.971-5.573-3.971-9.566 0-3.758 1.262-6.87 3.808-9.367 2.553-2.498 5.554-3.76 9.077-3.76 3.198 0 6.007 1.005 7.815 2.563 1.809 1.523 3.036 3.24 3.588 5.055l-3.588 1.651c-1.262-3.274-3.907-5.544-7.879-5.544-2.291 0-4.326.875-6.041 2.591-1.71 1.716-2.582 3.922-2.582 6.677 0 2.755.837 4.961 2.553 6.712 1.709 1.716 3.744 2.592 6.07 2.592 1.745 0 3.361-.52 4.815-1.524 1.483-1.039 2.553-2.399 3.163-4.05l3.617 1.651c-.611 1.78-1.843 3.502-3.745 5.055-1.901 1.552-4.75 2.591-7.943 2.591-3.192 0-6.332-1.231-8.751-3.338l-.006.011Zm27.644-14.264v9.694c0 2.592 1.261 4.314 3.808 4.314 2.547 0 3.972-1.751 3.972-4.378v-9.63h3.843v17.311h-3.744v-2.334c-1.326 1.78-3.071 2.69-5.263 2.69-4.169 0-6.46-2.883-6.46-7.033V31.076h3.844Zm26.218 3.893a5.6 5.6 0 0 0-1.099-.1c-2.936 0-4.489 1.717-4.489 4.734v8.784h-3.843V31.076h3.744v2.755c1.065-1.944 2.646-2.919 4.745-2.919.419 0 .71.036.937.1v3.957h.005Zm18.799 4.698c0-2.69-.744-4.832-2.232-6.484-1.483-1.652-3.553-2.463-6.164-2.463-2.611 0-4.559.875-6.204 2.626-1.646 1.751-2.489 3.858-2.489 6.356 0 2.498.872 4.734 2.587 6.45 1.745 1.716 3.908 2.562 6.461 2.562 3.099 0 5.907-1.494 7.361-4.185l-2.779-1.844c-.937 1.78-2.483 2.69-4.646 2.69a5.264 5.264 0 0 1-3.489-1.266c-1.006-.876-1.518-1.944-1.553-3.24h13.083c.03-.291.064-.682.064-1.202Zm-12.955-1.716c.355-2.37 2.198-3.922 4.559-3.922s4.355 1.488 4.483 3.922h-9.042Z"/><path fill="#F2AD42" d="M105.365 54.457h14.729V58h-14.729v-3.543Z"/><path fill="#FBCFCD" d="M120.094 54.457h14.81V58h-14.81v-3.543Z"/><path fill="#D1C5AF" d="M134.904 54.457h14.926V58h-14.926v-3.543Z"/><path fill="#5B5F2C" d="M149.83 54.457h14.229V58H149.83v-3.543Z"/><path fill="#F07854" d="M164.059 54.457h15.177V58h-15.177v-3.543Z"/></svg>