<svg xmlns="http://www.w3.org/2000/svg" fill="none" viewBox="0 0 210 80"><path fill="#002334" d="M81.073 35.715v-2.533h10.885v2.533h-4.012v13.503h-2.849V35.715h-4.024Zm22.351 7.624c0 3.66-2.399 6.243-6.218 6.243-3.818 0-6.109-2.643-6.109-6.243 0-3.6 2.449-6.303 6.146-6.303 3.721 0 6.169 2.606 6.169 6.303h.012Zm-9.515-.024c0 2.424 1.237 3.976 3.297 3.976s3.322-1.552 3.322-3.976-1.261-3.988-3.322-3.988c-2.06 0-3.297 1.66-3.297 3.988Zm14.34-5.14c0 .243 0 .473-.025.74.607-1.054 1.77-1.867 3.552-1.867s2.824.716 3.527 2c.715-1.006 1.879-2 3.976-2 2.715 0 4.242 1.734 4.242 4.849v7.309h-2.739v-6.279c0-2.424-.655-3.588-2.267-3.588-1.709 0-2.557 1.285-2.557 3.055v6.824h-2.74v-6.351c0-2.4-.654-3.528-2.29-3.528-1.794 0-2.534 1.419-2.534 3.297v6.57h-2.739v-9.964c0-.63 0-1.188-.024-1.818h2.63v.74l-.012.012Zm29.697 5.164c0 3.66-2.4 6.243-6.219 6.243-3.818 0-6.109-2.643-6.109-6.243 0-3.6 2.449-6.303 6.146-6.303 3.721 0 6.169 2.606 6.169 6.303h.013Zm-9.516-.024c0 2.424 1.237 3.976 3.297 3.976 2.061 0 3.322-1.552 3.322-3.976s-1.261-3.988-3.322-3.988c-2.06 0-3.297 1.66-3.297 3.988Zm14.316-5.903v.812c0 .267 0 .534-.025.788.425-1.188 1.503-1.867 2.849-1.867.291 0 .497.025.654.049V39.8c-.206-.073-.509-.085-.787-.085-2.158 0-2.51 1.527-2.51 3.952v5.563h-2.739v-9.672c0-.74 0-1.419-.024-2.134h2.582v-.012Zm7.684 0v.812c0 .267 0 .534-.024.788.424-1.188 1.503-1.867 2.849-1.867.291 0 .497.025.654.049V39.8c-.206-.073-.521-.085-.788-.085-2.157 0-2.509 1.527-2.509 3.952v5.563h-2.739v-9.672c0-.74 0-1.419-.024-2.134h2.581v-.012Zm16.716 5.927c0 3.66-2.4 6.243-6.219 6.243-3.818 0-6.097-2.643-6.097-6.243 0-3.6 2.449-6.303 6.146-6.303 3.721 0 6.17 2.606 6.17 6.303Zm-9.516-.024c0 2.424 1.237 3.976 3.297 3.976 2.061 0 3.322-1.552 3.322-3.976s-1.261-3.988-3.322-3.988c-2.06 0-3.297 1.66-3.297 3.988Zm13.891 5.927c-1.321-3.83-2.497-7.94-3.745-11.781h2.8l1.321 4.593c.424 1.394.582 2.4 1.055 4.085H173c.424-1.612.63-2.666 1.103-4.582l1.006-4.109h2.606l1.164 4.594c.363 1.419.521 2.316 1.006 4.134h.048c.473-1.613.631-2.534 1.164-4.4l1.236-4.328H185l-3.77 11.782h-2.848c-.655-2.024-1.503-5.515-1.976-7.782h-.073c-.606 2.449-1.369 5.673-2.036 7.782h-2.776v.012ZM87.934 60.188v6.994h-2.849V51.145h2.849v6.534h6.848v-6.534h2.849v16.037h-2.849v-6.994h-6.848Zm14.278 1.77c.182 1.927 1.479 3.32 3.382 3.32 1.346 0 2.182-.557 2.691-1.454h2.764c-.715 2.158-2.667 3.721-5.515 3.721-3.685 0-6.061-2.606-6.061-6.279 0-3.672 2.424-6.254 6.012-6.254 3.588 0 5.77 2.8 5.77 6.242 0 .425-.024.667-.024.74l-9.019-.024v-.013Zm6.303-1.952c-.181-1.612-1.284-2.873-3.054-2.873-1.77 0-2.921.982-3.164 2.873h6.218Zm4.582-.921c.109-2.267 1.976-4.06 5.043-4.06 2.872 0 4.872 1.187 4.872 5.2v3.296c0 1.636.085 2.788.267 3.66h-2.509c-.073-.339-.133-.872-.133-1.575-.655.97-2 1.794-3.903 1.794-2.449 0-4.194-1.285-4.194-3.503 0-2.449 2.63-3.382 5.115-3.746 1.006-.157 1.927-.242 2.715-.315-.073-1.975-.739-2.69-2.291-2.69s-2.218.787-2.376 1.927h-2.606v.012Zm7.309 2.666-.606.073c-2.982.291-4.351.788-4.351 2.024 0 1.08.788 1.612 2.036 1.612 1.976 0 2.897-1.212 2.897-3.212 0-.024 0-.242.024-.497Zm5.431-10.606h2.739v16.037h-2.739V51.145Zm8.981 4.243h2.194v2.036h-2.194v6.437c0 1.102.522 1.454 1.419 1.454.218 0 .4-.024.557-.049v2.025c-.242.073-.533.085-1.054.085-2.219 0-3.661-.716-3.661-3.055v-6.909h-1.77v-2.036h1.77v-3.188h2.739v3.2Zm6.837-.982c0 .873-.025 1.43-.049 2.327.74-.982 1.843-1.709 3.564-1.709 2.715 0 4.266 1.879 4.266 4.776v7.382h-2.715v-6.06c0-2.328-.533-3.82-2.4-3.82-1.866 0-2.666 1.395-2.666 3.37v6.51h-2.74V51.145h2.74v3.26ZM49.861 66.333c-.945 0-1.903-.145-2.764-.46-2.254-.825-3.563-2.558-3.684-4.885-.134-2.667.824-5.734 2.92-9.297-1.95-2.86-3.842-5.988-5.017-9.067-9.043-4.327-13.019-10.8-14.764-15.842-2.242-6.473-1.406-11.903-1.37-12.133L25.45 13l1.188 1.152c.073.072 7.818 7.6 16.545 11.963.23.11.51.073.691-.109.655-.642 1.31-1.31 2.17-2.23.848-.897 2.23-2.158 4.351-2.691 1.855-.46 3.734-.085 4.994 1.018.63.545 1.164 1.358 1.48 2.255 1.066.157 1.866.363 2.096.412l2.315.582-2.145 1.054s-2.473 1.273-3.746 4.485c-.133.351-.23.667-.29.982 3.345.097 6.35.533 9.308.97 2.982.436 5.782.848 8.897.933l1.406.036-.666 1.26c-.085.158-2.134 3.964-6.521 7.08-3.225 2.29-8.255 4.52-15.128 3.781a46.3 46.3 0 0 1-1.745 2.46 46.727 46.727 0 0 0-2.255 3.225c1.067 1.515 2.134 2.945 3.091 4.23 1.758 2.352 3.14 4.218 3.721 5.491.522 1.14.352 2.303-.472 3.225-1.006 1.127-2.922 1.757-4.885 1.757l.012.012Zm-2.436-13.066c-1.637 2.945-2.412 5.503-2.303 7.624.109 2.024 1.442 2.921 2.545 3.321 2.182.8 4.86.218 5.794-.824.352-.4.412-.788.182-1.297-.51-1.115-1.915-2.994-3.54-5.176a188.353 188.353 0 0 1-2.678-3.66v.011Zm-3.819-9.625c1.007 2.17 2.328 4.364 3.722 6.449a51.46 51.46 0 0 1 1.951-2.752c.437-.581.837-1.127 1.2-1.66a31.989 31.989 0 0 1-3.721-.922 45.363 45.363 0 0 1-3.152-1.115Zm9.794.655c4.825.364 9.2-.812 13.055-3.527 2.606-1.83 4.34-3.976 5.26-5.285-2.642-.158-5.139-.521-7.575-.873-2.885-.424-5.843-.848-9.091-.945.048.363.121.727.194 1.115.424 2.121.921 4.666-1.855 9.515h.012ZM42.661 41.35a42.534 42.534 0 0 0 4.594 1.734 28.88 28.88 0 0 0 4.267 1.006c2.885-4.703 2.448-6.946 2.048-8.958-.097-.485-.194-.97-.242-1.479a41.67 41.67 0 0 0-5.564.413c-2.412.339-4.121 1.248-4.958 2.63-.727 1.212-.775 2.812-.145 4.63 0 0 0 .024.012.037l-.012-.013ZM26.746 16.648c-.073 2.037.06 5.649 1.455 9.625 2.133 6.085 6.29 10.8 12.424 14.06-.303-1.721-.073-3.285.703-4.57 1.115-1.854 3.26-3.054 6.194-3.454 2.06-.29 3.988-.412 5.818-.424.06-.449.182-.921.363-1.43-.763.266-1.575.375-2.315.266-1.381-.194-2.303-1.079-2.545-2.412-.267-1.54.303-2.46.836-2.97 1.152-1.103 3.249-1.297 5.164-1.188a3.1 3.1 0 0 0-.582-.703c-.849-.739-2.133-.981-3.467-.642-1.697.424-2.824 1.467-3.515 2.206a70.855 70.855 0 0 1-2.206 2.267c-.703.69-1.77.86-2.654.424-6.922-3.467-13.067-8.69-15.673-11.055Zm27.151 9.237c-1.309 0-2.472.194-3.042.74-.206.193-.46.545-.315 1.369.06.364.242.86 1.079.982 1.188.17 3.03-.63 3.648-1.915.158-.328.206-.703.182-1.104a16.891 16.891 0 0 0-1.552-.084v.012Z"/></svg>