<svg xmlns="http://www.w3.org/2000/svg" fill="none" viewBox="0 0 210 80"><path fill="#0078F6" d="M107.331 37.366c.435-1.014 1.218-1.71 2.175-2.232 1.015-.551 2.088-.841 3.247-.928 1.508-.116 2.987.087 4.379.696 1.681.725 2.87 1.971 3.711 3.566.812 1.566 1.247 3.248 1.363 4.987.086 1.044.115 2.117.058 3.19-.087 1.797-.348 3.566-1.073 5.248-.725 1.71-1.798 3.073-3.422 3.972-1.159.638-2.406.928-3.711.986-1.044.058-2.087 0-3.102-.261-1.624-.435-2.9-1.363-3.828-2.784a.865.865 0 0 0-.289-.26v2.812c-.377.116-5.596.145-6.176.058-.116-.32-.145-31.75-.029-32.735 1.073-.174 2.174-.203 3.247-.319a58.804 58.804 0 0 1 3.305-.26v14.235c0 .087.029.087.029.116a.395.395 0 0 0 .116-.087Zm.087 5.132c-.058.551-.174 1.102-.203 1.653-.029 1.073 0 2.117 0 3.19 0 .695.116 1.333.377 1.971.435 1.073 1.189 1.798 2.291 2.175.87.29 1.74.348 2.638.145.928-.203 1.711-.696 2.233-1.508a4.692 4.692 0 0 0 .667-1.624c.377-1.652.348-3.334.145-4.987a8.66 8.66 0 0 0-.319-1.45c-.232-.724-.58-1.391-1.189-1.884-1.015-.87-2.232-.928-3.479-.754-.58.087-1.102.29-1.566.638-.812.609-1.305 1.45-1.595 2.435Zm71.877 2.291 6.089-9.742c.203-.32.406-.435.754-.435 1.972.029 3.943 0 5.915 0h.522c-.058.174-.116.26-.174.377l-6.118 9.742c-.087.116-.145.26-.232.348-.261.29-.203.55 0 .84l6.553 10.178.203.406c-.203.029-.319.029-.464.029h-6.089c-.319 0-.464-.116-.638-.348l-2.899-4.552-3.509-5.538c-.058-.03-.087 0-.087.029v10.293c-.377.116-6.059.145-6.581.029-.087-.32-.145-32.01-.029-32.677.348-.145 6.001-.667 6.581-.58 0 .203.029.406.029.61V44.73c.116.203.145.145.174.058ZM50.039 53.545c-.406.725-.928 1.392-1.566 1.914-1.044.87-2.29 1.305-3.653 1.42-1.247.088-2.494.03-3.712-.318-2.348-.667-3.972-2.204-4.958-4.407-.55-1.19-.84-2.465-1.014-3.77-.203-1.392-.232-2.783-.174-4.175.087-1.885.435-3.77 1.275-5.48 1.218-2.464 3.19-3.972 5.915-4.407 1.102-.174 2.204-.232 3.306-.029 1.913.348 3.392 1.392 4.407 3.044.029.058.058.116.116.203.058.087.116.116.174.145v-.145l.029-2.928h6.233v21.775c-.377.087-5.682.116-6.233 0v-2.842c-.087-.145-.116-.087-.145 0Zm-2.146-2.348c.29-.261.638-.493.899-.783.725-.841 1.044-1.856 1.073-2.987v-3.42c-.03-.552-.087-1.132-.232-1.683-.32-1.188-.986-2.145-2.175-2.638-.638-.261-1.276-.29-1.942-.29-1.537.029-2.639.725-3.277 2.117-.435.898-.58 1.884-.638 2.87-.116 1.363-.087 2.725.203 4.088.203.928.58 1.74 1.276 2.407 1.13 1.015 3.363 1.188 4.813.319Zm108.526 5.509c-1.189-.232-2.291-.61-3.335-1.19-1.739-.985-2.957-2.435-3.711-4.29a13.262 13.262 0 0 1-.957-4.494c-.029-.61-.087-1.19-.058-1.798.058-1.682.29-3.334.928-4.93 1.131-2.84 3.248-4.61 6.176-5.392a14.617 14.617 0 0 1 4.349-.464c1.856.087 3.624.406 5.277 1.305 1.508.812 2.668 1.971 3.508 3.45.87 1.595 1.305 3.306 1.392 5.132.029.725.087 1.45.058 2.175-.058 1.594-.29 3.19-.87 4.697-1.188 3.073-3.421 4.9-6.581 5.683a12.26 12.26 0 0 1-3.248.348c-.957 0-1.942-.145-2.928-.232Zm7.103-10.583v-1.798c0-.696-.087-1.392-.319-2.03-.434-1.362-1.304-2.32-2.725-2.696a4.766 4.766 0 0 0-2.552 0c-.956.26-1.71.84-2.232 1.682-.493.812-.725 1.71-.725 2.696v2.987c0 .434.029.898.116 1.333.377 2.059 1.769 3.45 3.856 3.538 2.088.087 3.741-1.102 4.291-3.132.261-.84.319-1.653.29-2.58Zm-21.165 8.814c-1.421 1.044-3.016 1.595-4.698 1.827-.666.087-1.333.174-2.029.174-2.001 0-4.001-.261-5.828-1.131-1.914-.928-3.305-2.378-4.175-4.32a12.064 12.064 0 0 1-1.015-4.233c-.058-.957-.116-1.943-.058-2.9.087-1.943.493-3.827 1.479-5.567 1.073-1.884 2.667-3.16 4.697-3.885 1.131-.406 2.319-.609 3.508-.696 1.624-.116 3.19 0 4.755.406 1.566.406 2.958 1.13 4.146 2.232 1.189 1.131 1.943 2.523 2.436 4.089.377 1.276.551 2.58.609 3.914.058 1.682-.058 3.305-.493 4.929-.551 2.088-1.595 3.856-3.334 5.161Zm-3.509-5.016c.551-.899.754-1.914.783-2.957.029-.812.029-1.595 0-2.407-.029-.609-.058-1.247-.174-1.827-.435-1.942-1.711-3.218-3.798-3.334-1.856-.116-3.392.754-4.088 2.349a6.524 6.524 0 0 0-.493 2.32 50.276 50.276 0 0 0 0 2.957c.029 1.043.232 2.087.812 2.986.319.522.753.928 1.275 1.247 1.508.898 4.35.811 5.683-1.334Zm-50.015 7.075c-1.595 0-3.131-.087-4.61-.493-1.392-.377-2.668-.957-3.74-1.914-1.189-1.044-1.972-2.349-2.436-3.856a14.02 14.02 0 0 1-.638-3.943c-.029-1.044-.058-2.059 0-3.103.087-1.74.464-3.45 1.334-4.987 1.102-1.972 2.813-3.247 4.93-3.914 1.246-.406 2.55-.58 3.855-.58 1.334-.029 2.668.058 3.972.406 1.392.377 2.639.986 3.654 1.972a7.972 7.972 0 0 1 2.087 3.45c.377 1.247.58 2.551.551 3.856v3.943c-.232.03-.435.03-.609.03H83.991c-.029.115-.058.202-.058.26.174.928.377 1.885.986 2.668.493.638 1.189.986 1.972 1.189.927.232 1.855.232 2.783.232 2.145-.03 4.175-.522 6.176-1.247.058-.03.116-.03.232-.058l.174.58.956 3.479c.116.406.087.435-.29.638-1.275.58-2.638.928-4.03 1.13-1.334.175-2.667.29-4.059.262Zm2.088-17.223a2.72 2.72 0 0 0-1.392-.87c-.84-.26-1.71-.29-2.58-.058-1.102.261-1.885.899-2.407 1.914-.377.783-.493 1.594-.58 2.435 0 .116.029.232.058.348h7.974c.028-1.363-.145-2.638-1.073-3.77ZM22.494 29.538c.116-.957.29-1.856.667-2.726.84-1.855 2.348-2.899 4.233-3.392 1.247-.348 2.523-.464 3.798-.406l3.277.203c.145.377.174 4.552.058 5.045-.145 0-.32.03-.493.03l-2.436.028c-.348 0-.666.087-.985.174-.754.203-1.247.696-1.421 1.479-.058.26-.116.55-.116.812v3.479c0 .087.029.145.029.29.174 0 .348.029.522.029h4.9l-.493 5.393h-4.958c-.03.957 0 1.855 0 2.754v13.657c-.377.116-6.031.116-6.582.029v-16.44c-1.537-.03-2.986 0-4.494-.03v-5.334c.174 0 .348-.029.493-.029h3.421c.174 0 .32-.029.522-.029 0-.203.03-.377.03-.522V30.35c0-.29.028-.522.028-.812Zm36.504 14.323.348-2.406c.522-2.349 1.71-4.262 3.77-5.596a10.448 10.448 0 0 1 3.768-1.421c2.378-.406 4.784-.406 7.133.145.754.174 1.479.406 2.146.783.26.145.347.348.26.609L75.12 40.12l-.087.174c-.087 0-.145 0-.203-.03-1.13-.521-2.32-.811-3.566-.927-.957-.087-1.914 0-2.813.348-1.682.638-2.638 1.914-2.812 3.682-.116 1.073-.087 2.175-.087 3.277 0 .492.058.985.145 1.45.434 2.029 2.03 3.45 4.117 3.682 1.653.174 3.19-.203 4.726-.783l.493-.203 1.508 4.61c-.348.319-.754.464-1.16.638-1.276.522-2.639.725-4.001.812-.957.058-1.943.058-2.9-.03-1.566-.144-3.102-.463-4.523-1.16-2.175-1.072-3.566-2.812-4.32-5.102a13.272 13.272 0 0 1-.638-4.117v-2.58Z"/></svg>