<svg xmlns="http://www.w3.org/2000/svg" fill="none" viewBox="0 0 210 80"><path fill="#000" d="M20 28.446h16.774v3.697h-6.402v19.565h-3.97V32.143H20v-3.697Zm23.233 23.262h-3.826V28.446h3.827v9.135c.503-.777 1.18-1.38 2-1.856.82-.46 1.797-.705 2.948-.705 1.971 0 3.525.605 4.633 1.842 1.107 1.237 1.654 2.891 1.654 5.035v9.797h-3.827V42.63c0-1.252-.302-2.245-.92-2.964-.619-.734-1.497-1.079-2.676-1.079-1.18 0-2.057.403-2.748 1.237-.705.835-1.05 1.914-1.05 3.323v8.589l-.014-.029Zm26.888-9.768a4.936 4.936 0 0 0-.446-1.482 4.347 4.347 0 0 0-.92-1.18 3.924 3.924 0 0 0-1.324-.776 5.005 5.005 0 0 0-1.626-.274c-.575 0-1.093.101-1.597.331-.503.23-.92.504-1.323.864a4.693 4.693 0 0 0-.95 1.18 3.538 3.538 0 0 0-.446 1.38h8.66v-.028l-.028-.015Zm3.223 5.942a8 8 0 0 1-2.878 3.078c-1.222.748-2.704 1.137-4.43 1.137-1.223 0-2.374-.202-3.396-.633-1.021-.432-1.928-1.007-2.647-1.77a8.007 8.007 0 0 1-1.726-2.69c-.432-1.036-.619-2.187-.619-3.453s.202-2.345.619-3.395c.431-1.036 1.007-1.942 1.726-2.69a7.504 7.504 0 0 1 2.604-1.784c1.007-.431 2.072-.647 3.251-.647 1.18 0 2.273.23 3.252.647a7.796 7.796 0 0 1 4.215 4.474c.403 1.036.604 2.172.604 3.395 0 .302 0 .705-.029 1.151H61.46c.044.604.202 1.137.447 1.64.273.504.604.935 1.021 1.28.432.375.906.648 1.453.85.547.2 1.122.33 1.726.33 1.05 0 1.9-.23 2.504-.705.618-.446 1.15-1.05 1.625-1.755l3.108 1.54Zm10.228-7.812c0-1.683.302-3.251.92-4.733.62-1.453 1.454-2.748 2.533-3.827a12.269 12.269 0 0 1 3.769-2.575C92.247 28.302 93.8 28 95.469 28c1.122 0 2.201.158 3.252.475 1.05.33 2.057.777 3.049 1.41v4.287c-1.007-.777-2.028-1.367-3.02-1.741-1.008-.374-2.101-.547-3.223-.547-1.122 0-2.158.202-3.122.633a8.417 8.417 0 0 0-2.503 1.74 7.908 7.908 0 0 0-1.655 2.59 8.56 8.56 0 0 0-.604 3.223c0 1.15.202 2.187.604 3.18.403.977.95 1.84 1.655 2.589.705.733 1.525 1.338 2.503 1.74.95.432 2 .633 3.122.633 1.122 0 2.2-.172 3.222-.546 1.022-.374 2.072-.935 3.108-1.669v4.287a11.53 11.53 0 0 1-3.208 1.381c-1.08.273-2.158.432-3.209.432-1.668 0-3.222-.303-4.675-.907a10.992 10.992 0 0 1-3.755-2.546c-1.079-1.079-1.899-2.374-2.532-3.827-.618-1.438-.92-3.02-.92-4.733l.014-.014Zm29.29-1.525a4.41 4.41 0 0 0-1.899.403 5.761 5.761 0 0 0-1.525 1.05c-.431.46-.777.978-1.021 1.582a5.364 5.364 0 0 0-.374 1.957c0 .676.129 1.367.374 1.956a5.156 5.156 0 0 0 1.021 1.583c.432.46.921.806 1.525 1.065a4.41 4.41 0 0 0 1.899.402 4.41 4.41 0 0 0 1.899-.402 5.489 5.489 0 0 0 1.525-1.065 4.62 4.62 0 0 0 1.021-1.583 5.196 5.196 0 0 0 .374-1.956c0-.69-.129-1.338-.374-1.957a4.688 4.688 0 0 0-1.021-1.582 4.386 4.386 0 0 0-1.525-1.05 4.764 4.764 0 0 0-1.899-.403Zm0-3.496c1.223 0 2.374.23 3.424.648 1.05.46 1.971 1.064 2.719 1.812a7.957 7.957 0 0 1 1.798 2.69c.432 1.036.647 2.158.647 3.352a8.92 8.92 0 0 1-.647 3.352c-.432 1.036-1.021 1.942-1.798 2.69-.777.763-1.669 1.353-2.719 1.813-1.05.46-2.201.648-3.424.648a9.235 9.235 0 0 1-3.424-.648c-1.05-.46-1.971-1.05-2.733-1.813a7.702 7.702 0 0 1-1.799-2.69 8.707 8.707 0 0 1-.647-3.352c0-1.18.23-2.316.647-3.352.432-1.035 1.022-1.942 1.799-2.69a8.565 8.565 0 0 1 2.733-1.813c1.05-.445 2.201-.647 3.424-.647Zm16.227-4.445v4.805h4.273v3.251h-4.273v7.308c0 .906.202 1.568.605 1.971.402.403 1.05.604 1.899.604.302 0 .618-.043.949-.13.331-.085.604-.2.849-.373v3.424c-.302.172-.705.33-1.18.431a8.31 8.31 0 0 1-1.726.173c-1.626 0-2.906-.475-3.798-1.439-.906-.964-1.381-2.287-1.381-3.985V38.69h-2.403v-3.266h2.403v-4.82h3.783Zm18.487 11.336a4.962 4.962 0 0 0-.446-1.482 4.36 4.36 0 0 0-.921-1.18 3.921 3.921 0 0 0-1.324-.776 5.001 5.001 0 0 0-1.625-.274c-.576 0-1.094.101-1.597.331-.504.23-.921.504-1.324.864a4.678 4.678 0 0 0-.949 1.18 3.528 3.528 0 0 0-.446 1.38h8.646v-.028l-.014-.015Zm3.222 5.942a7.997 7.997 0 0 1-2.877 3.078c-1.223.748-2.705 1.137-4.431 1.137-1.223 0-2.374-.202-3.395-.633-1.022-.432-1.928-1.007-2.647-1.77a8 8 0 0 1-1.727-2.69c-.431-1.036-.618-2.187-.618-3.453s.201-2.345.618-3.395c.432-1.036 1.007-1.942 1.727-2.69a7.502 7.502 0 0 1 2.604-1.784c1.007-.431 2.071-.647 3.251-.647 1.18 0 2.273.23 3.251.647a7.792 7.792 0 0 1 4.215 4.474c.403 1.036.604 2.172.604 3.395 0 .302 0 .705-.028 1.151h-12.43c.043.604.202 1.137.446 1.64.273.504.604.935 1.021 1.28a4.61 4.61 0 0 0 1.453.85c.547.2 1.123.33 1.727.33 1.05 0 1.899-.23 2.503-.705.619-.446 1.151-1.05 1.626-1.755l3.107 1.54Zm13.178-8.762c-.173-.1-.504-.13-1.007-.13-1.396 0-2.504.505-3.324 1.511-.805 1.008-1.194 2.345-1.194 4.029v7.178h-3.798V35.423h3.755v2.791c.403-.95 1.022-1.712 1.899-2.258a5.33 5.33 0 0 1 2.906-.864c.432 0 .648.03.719.101v3.927h.044Zm2.575-3.697h3.826V51.68h-3.826V35.423Zm4.272-4.733c0 .648-.23 1.18-.676 1.655a2.289 2.289 0 0 1-1.697.705c-.676 0-1.18-.23-1.655-.705-.446-.46-.705-1.007-.705-1.655 0-.647.231-1.237.705-1.683.446-.446.993-.705 1.655-.705.661 0 1.251.23 1.697.705.446.475.676 1.036.676 1.683Zm15.365 11.25a4.933 4.933 0 0 0-.446-1.482 4.36 4.36 0 0 0-.921-1.18 3.926 3.926 0 0 0-1.323-.776 5.012 5.012 0 0 0-1.626-.274c-.576 0-1.093.101-1.597.331-.503.23-.921.504-1.323.864a4.682 4.682 0 0 0-.95 1.18 3.528 3.528 0 0 0-.446 1.38h8.646v-.028l-.014-.015Zm3.222 5.942a7.997 7.997 0 0 1-2.877 3.078c-1.223.748-2.705 1.137-4.431 1.137-1.223 0-2.374-.202-3.395-.633-1.021-.432-1.928-1.007-2.647-1.77a7.998 7.998 0 0 1-1.726-2.69c-.432-1.036-.619-2.187-.619-3.453s.201-2.345.619-3.395c.431-1.036 1.007-1.942 1.726-2.69a7.502 7.502 0 0 1 2.604-1.784c.992-.431 2.071-.647 3.251-.647 1.18 0 2.273.23 3.251.647a7.978 7.978 0 0 1 2.547 1.784c.719.748 1.28 1.654 1.683 2.69s.604 2.172.604 3.395c0 .302 0 .705-.029 1.151h-12.429a4.39 4.39 0 0 0 .446 1.64c.273.504.604.935 1.021 1.28a4.6 4.6 0 0 0 1.453.85c.547.2 1.122.33 1.726.33 1.051 0 1.899-.23 2.504-.705.618-.446 1.15-1.05 1.625-1.755l3.093 1.54Z"/></svg>