<svg xmlns="http://www.w3.org/2000/svg" fill="none" viewBox="0 0 210 80"><path fill="#0C77C9" d="M190 27.91v23.675c0 1.058-.85 1.91-1.909 1.91a1.903 1.903 0 0 1-1.908-1.91V27.91c0-1.06.85-1.91 1.908-1.91 1.059.02 1.909.86 1.909 1.91Zm-39.387 21.785V27.91a1.908 1.908 0 0 0-3.237-1.311 1.908 1.908 0 0 0-.581 1.31v24.774c0 .425.356.791.782.791h18.69a1.91 1.91 0 0 0 1.908-1.91c0-1.048-.85-1.919-1.908-1.919h-15.664v.05h.01ZM41.479 27.959c0-1.059-.85-1.91-1.909-1.91H20.81a.984.984 0 0 0-.296.05c-.316.109-.514.425-.514.762v25.248c0 1.01.356 1.375.83 1.375h18.74a1.91 1.91 0 0 0 1.909-1.91c0-1.048-.85-1.919-1.909-1.919H23.797v-7.657H39.57c1.058 0 1.909-.851 1.909-1.91 0-1.058-.85-1.91-1.909-1.91H23.797v-8.3H39.57a1.91 1.91 0 0 0 1.909-1.91v-.01Zm79.655 14.553c2.877 0 5.528-1.464 7.1-4.056a7.574 7.574 0 0 0 .9-2.187c.742-3.126-.297-6.242-2.65-8.29-1.533-1.326-3.531-1.979-5.548-1.979h-18.562a.829.829 0 0 0-.83.831v24.754c0 1.058.85 1.91 1.908 1.91 1.058 0 1.909-.852 1.909-1.91V29.809h15.634c2.245 0 4.272 1.622 4.559 3.849.336 2.7-1.75 5.026-4.4 5.026h-9.711l10.67 14.029c.356.474.919.742 1.503.742h.069c1.592 0 2.472-1.85 1.483-3.087l-6.22-7.905h2.176v.05h.01Zm-34.69 8.192L72.954 26.99a1.906 1.906 0 0 0-1.641-.95c-1.434 0-2.334 1.554-1.642 2.82L83.15 52.574c.337.584.97.95 1.642.95a1.878 1.878 0 0 0 1.642-2.82h.01Zm-28.58 2.82c.673 0 1.306-.356 1.642-.95l5.815-10.22c.722-1.257-.198-2.82-1.642-2.82-.672 0-1.305.357-1.641.95l-5.815 10.23c-.692 1.257.198 2.82 1.642 2.82v-.01Z"/></svg>