<svg xmlns="http://www.w3.org/2000/svg" fill="none" viewBox="0 0 210 80"><path fill="#000" fill-rule="evenodd" d="M57.543 58.786V64c13.538 0 24.544-10.772 24.544-24.007C82.087 26.758 71.08 16 57.543 16 44.02 16 33 26.772 33 40.007h5.338c0-10.36 8.626-18.78 19.22-18.78 10.592 0 19.218 8.42 19.218 18.78 0 10.36-8.612 18.793-19.219 18.793l-.014-.014Zm108.313-14.652-1.375 1.32V51H159.5V25.823h4.967v14.005l.22.069 5.407-6.15h6.108l.069.207-7.099 6.947 8.241 9.933-.069.165h-6.04l-5.448-6.865ZM91.552 28.23v16.523c0 4.1 2.724 6.411 6.425 6.411 1.28 0 2.724-.275 3.687-.729l-.688-3.962a6.845 6.845 0 0 1-2.174.344c-1.348 0-2.27-.688-2.27-2.339v-6.934h4.279v-3.797h-4.279V28.23h-4.98Zm17.899 5.531h-4.967v17.28h4.967V39.62c1.169-.962 2.765-1.581 4.595-1.581h.825v-4.623h-.481c-1.968 0-3.619 1.004-4.733 2.339l-.206-.069v-1.94.014Zm25.506 9.383c0 4.966-3.728 8.213-8.626 8.213s-8.626-3.247-8.626-8.213V33.76h4.967v9.383c0 2.792 1.554 4.14 3.659 4.14 2.105 0 3.66-1.348 3.66-4.14V33.76h4.966v9.383Zm8.365-9.383h-4.967v17.252h4.967v-12.01c.935-1.032 2.352-1.514 3.893-1.514 1.83 0 3.343 1.032 3.343 3.453v10.07h4.966V40.668c0-4.787-2.834-7.25-6.245-7.25-2.587 0-4.582 1.004-5.765 2.38l-.206-.069v-1.967h.014Z" clip-rule="evenodd"/><path fill="#000" fill-rule="evenodd" d="M45.63 40.378H40.29c0-9.451 7.746-17.142 17.252-17.142v5.297c-6.576 0-11.914 5.31-11.914 11.845Z" clip-rule="evenodd"/><path fill="#000" fill-rule="evenodd" d="M62.18 40.379h5.338c0-5.462-4.472-9.892-9.96-9.892-5.49 0-9.961 4.444-9.961 9.892h5.338c0-2.532 2.077-4.595 4.622-4.595s4.623 2.063 4.623 4.595Z" clip-rule="evenodd"/></svg>