<svg xmlns="http://www.w3.org/2000/svg" fill="none" viewBox="0 0 210 80"><path fill="#000" d="M70.915 60h12.231V20H69.6l-2.426 18.812-1.415-10.266c-.455-3.287-.96-6.17-1.213-8.546H51v40h12.586L59.83 35.02l.511.173 3.093 17.886 8.041-2.705 2.77-15.184.513-.172-3.842 24.98V60ZM99.835 42.607l-3.74 1.262 1.612-15.914.51-.172 1.618 14.824ZM111.007 60l-5.965-40H90.031l-5.308 40H95.49l.606-6.932 3.74-1.26.506 8.192h10.665ZM147.216 42.607l-3.739 1.262 1.611-15.914.511-.172 1.617 14.824ZM158.388 60l-5.964-40h-15.012l-5.308 40h10.766l.607-6.932 3.741-1.26.505 8.192h10.665ZM125.116 26.657l-3.249 1.095-9.787 24.41V60h18.968V49.745l-13.042 4.377v-.66l3.672-1.238 9.37-26.221V20h-18.227v10.14l12.295-4.139v.656Z"/></svg>