<svg xmlns="http://www.w3.org/2000/svg" fill="none" viewBox="0 0 210 80"><path fill="#0061D5" d="M144.641 57.075c1.016 1.424.813 3.256-.406 4.273-1.422 1.018-3.453.815-4.469-.407l-7.109-9.158-6.907 8.955c-1.015 1.425-3.047 1.425-4.468.407-1.422-1.018-1.625-2.85-.61-4.274l8.125-10.583-8.125-10.582c-1.015-1.425-.609-3.46.61-4.478 1.421-1.017 3.453-.61 4.468.61l6.907 9.16 7.109-8.752c1.016-1.425 2.844-1.628 4.469-.61 1.422 1.017 1.422 3.052.406 4.477l-7.922 10.379 7.922 10.583Zm-36.969-1.221c-5.281 0-9.547-4.07-9.547-9.362 0-5.291 4.266-9.362 9.547-9.362 5.281 0 9.547 4.274 9.547 9.362-.203 5.291-4.469 9.362-9.547 9.362Zm-28.031 0c-5.282 0-9.547-4.07-9.547-9.362 0-5.291 4.265-9.362 9.547-9.362 5.281 0 9.547 4.274 9.547 9.362s-4.266 9.362-9.547 9.362Zm28.031-24.83c-5.891 0-11.172 3.257-13.812 8.142-2.641-4.885-7.922-8.141-14.016-8.141-3.656 0-6.906 1.221-9.547 3.053V21.053a3.137 3.137 0 0 0-.915-2.136A3.125 3.125 0 0 0 67.25 18C65.422 18 64 19.425 64 21.053v25.643a15.578 15.578 0 0 0 15.64 15.263c6.094 0 11.376-3.46 14.016-8.344 2.641 4.884 7.922 8.344 13.813 8.344 8.734 0 15.844-6.92 15.844-15.67.203-8.345-6.906-15.264-15.641-15.264Z"/></svg>