<svg xmlns="http://www.w3.org/2000/svg" fill="none" viewBox="0 0 210 80"><path fill="#008052" d="M93.05 50.9 81.268 44.1l8.5-14.707c.059-.097.156-.269 0-.537-.158-.269-.352-.269-.463-.269H72.306V15h16.991c5.111 0 9.693 2.642 12.245 7.066 2.559 4.425 2.559 9.708 0 14.126l-8.5 14.707h.008Z"/><path fill="#90BCD1" d="M87.999 64.993H71.165c-5.112 0-9.694-2.641-12.245-7.066-2.56-4.425-2.56-9.708 0-14.126l8.499-14.707L79.2 35.89l-8.5 14.708c-.059.097-.156.269 0 .537a.48.48 0 0 0 .471.269h16.834V65L88 64.993Z"/><path fill="#73B2CF" d="M87.999 64.993H71.165c-5.112 0-9.694-2.641-12.245-7.066-2.56-4.425-2.56-9.708 0-14.126l8.499-14.707L79.2 35.89l-8.5 14.708c-.059.097-.156.269 0 .537a.48.48 0 0 0 .471.269h16.834v13.588H88Z"/><path fill="#008052" d="M119.978 36.118c.231 0 .313.142.313.344v.634c0 .29.03.463-.261.866l-7.604 10.469h8.119v1.641h-10.111c-.231 0-.313-.12-.313-.313v-.664c0-.291-.03-.463.261-.866l7.544-10.469h-7.693v-1.642h9.745Zm15.006 0h1.985V48.23c0 .545-.172.895-.724 1.12l-1.44.574c-.665.261-.948.313-1.672.313h-4.402c-1.097 0-1.582-.201-2.217-.835l-.746-.747c-.776-.776-.895-1.067-.895-2.358V36.111h1.992v10.245c0 .463.082.634.433.978l.664.664c.373.343.485.403 1.067.403h4c.171 0 .343-.03.485-.09l1.298-.515c.119-.06.172-.12.172-.26V36.11v.007Zm9.275 7.686c-.896-.09-1.582-.313-2.045-.746-.485-.463-.746-1.179-.746-2.298v-.918c0-1.15.119-1.522.896-2.298l.746-.746c.664-.635 1.149-.836 2.246-.836h2.94c1.007 0 1.44.09 2.134.515l1.612.977-.776 1.41-1.955-.895c-.403-.172-.694-.231-1.209-.231h-2.507c-.575 0-.694.06-1.068.403l-.693.694c-.344.343-.433.514-.433.977v1.067c0 .746.201 1.008 1.007 1.09l5.268.485c1.097.119 1.731.343 2.187.806.462.462.664 1.149.664 2.126v.918c0 1.298-.12 1.582-.896 2.358l-.746.746c-.634.634-1.119.836-2.216.836h-3.686c-1.008 0-1.44-.09-2.164-.515l-1.612-.978.776-1.41 1.955.918c.403.172.694.201 1.209.201h3.253c.575 0 .694-.06 1.067-.403l.694-.694c.343-.343.433-.514.433-.977v-1.007c0-.746-.201-1.008-1.007-1.09l-5.328-.485Z"/></svg>