<svg xmlns="http://www.w3.org/2000/svg" fill="none" viewBox="0 0 210 80"><path fill="#1ABCEE" d="M37.04 30.674h3.674V49.04h-3.673V30.674Zm-18.366 0V27H15v22.04h18.367V30.675H18.674Zm11.02 14.693h-11.02v-11.02h11.02v11.02ZM48.06 30.674h-3.673v14.693h14.694v3.674h-11.02v3.673h14.693v-22.04H48.061Zm11.02 11.02h-11.02v-7.347h11.02v7.347Zm10.562-11.02h-3.214v11.02h14.693v3.673H66.43v3.674h18.367V38.02H70.102v-3.673h14.694v-3.674H69.642Zm18.826 0V49.04H106.837v-3.674H92.143v-11.02h14.694v-3.674H88.469Zm23.878 0h-1.837V49.04h3.674V34.347h14.694v-3.674H112.347Zm23.877 0h-3.673V49.04h18.367v-3.674h-14.694v-3.673h14.694v-11.02h-14.694Zm11.48 7.346h-11.48v-3.673h11.48v3.673Zm10.561-7.347h-3.673v18.368h18.367v-3.674h-14.694v-3.673h14.694v-11.02h-14.694Zm11.021 7.347h-11.021v-3.673h11.021v3.673Zm22.041-7.347h-14.694V49.041h3.673V34.347h11.021V49.04H195V30.673h-3.673Z"/></svg>