<svg xmlns="http://www.w3.org/2000/svg" fill="none" viewBox="0 0 210 80"><path fill="#000" d="M146.363 63.983c-.036-.545-.024-4.986.016-5.239.055-.008.114-.02.174-.024.095-.004.19 0 .284 0h8.363c.123 0 .25.016.364-.02.048-.264.052-1.68.004-2.004-.051-.008-.111-.024-.17-.028-.095-.004-.19 0-.285 0h-5.314c-.368 0-.735-.02-1.087-.127-1.262-.383-2.005-1.241-2.29-2.51-.051-.234-.055-.479-.075-.716-.008-.127 0-.253 0-.376V16.071c.115-.087.222-.055.324-.055H153.069c.012.079.024.138.028.198.004.114 0 .229 0 .344v34.365c0 .142-.02.292.028.447.075.008.146.023.213.023 1.166.028 1.973.016 2.242-.04.008-.055.016-.114.02-.173V16.048c.075-.016.13-.036.19-.036h6.196c.11 0 .229-.024.348.032.008.05.015.102.019.15V60.34c0 .348-.008.692-.083 1.032a3.264 3.264 0 0 1-2.669 2.559c-.225.04-.458.06-.688.06h-12.265c-.091 0-.186-.009-.293-.013l.008.004ZM129.099 16.008H141.575c.541 0 1.067.079 1.557.308 1.072.495 1.693 1.333 1.91 2.483.052.281.056.562.056.847v33.511c0 .411-.044.814-.174 1.206-.4 1.178-1.214 1.902-2.416 2.202-.328.083-.665.095-1.001.095h-5.251c-.122 0-.249.004-.364.008-.083.123-.051.241-.051.352v6.6c0 .11.024.229-.032.347-.063.008-.122.016-.185.016-1.503.032-6.197.016-6.521-.024-.008-.055-.023-.114-.027-.174-.004-.094 0-.19 0-.284V16.475c0-.147-.016-.293.023-.475v.008Zm6.746 5.176c0 .15-.004.284-.004.419v29.585c0 .059.016.118.024.17.288.043 1.376.059 2.246.031.059 0 .122-.016.182-.023.015-.04.035-.068.035-.1v-29.96c0-.04-.016-.079-.024-.114-.241-.044-2.044-.056-2.463-.012l.004.004ZM63.022 38.827c-.423.036-.81.012-1.194.016H54.944c-.376 0-.752-.004-1.147.004-.012.075-.024.134-.028.194-.003.07 0 .146 0 .221V50.99c0 .122-.02.25.032.38.04.008.08.023.119.023h2.305c.016-.075.04-.134.043-.194.008-.094 0-.19 0-.284v-9.949c.123-.09.246-.059.356-.059h6.362c.016.075.032.13.036.19.004.063 0 .126 0 .19v11.85c0 .423-.04.838-.178 1.238-.4 1.162-1.206 1.882-2.392 2.19-.336.087-.684.1-1.028.1h-8.992c-.356 0-.712-.025-1.056-.127-1.198-.36-1.933-1.167-2.253-2.361a3.83 3.83 0 0 1-.115-.902v-.316C47 41.864 47 30.77 47 19.67c0-.387.012-.779.115-1.154.336-1.258 1.119-2.08 2.396-2.408.285-.075.577-.1.87-.1h9.181c.522 0 1.024.092 1.495.31 1.06.486 1.688 1.312 1.898 2.455.043.233.06.478.06.72V38.826h.007Zm-9.256-17.659v12.479c0 .083-.005.166 0 .253.003.06.023.115.039.186h2.305c.04 0 .08-.02.115-.028.06-.126.035-.257.035-.38V21.363c-.003-.06-.02-.119-.035-.198-.815 0-1.617 0-2.464.004h.005ZM127.826 36.336v16.726c0 .411-.024.815-.142 1.214-.384 1.324-1.515 2.234-2.879 2.36-.198.02-.399.028-.597.028h-8.897c-.379 0-.755-.016-1.119-.126-1.261-.38-2.008-1.238-2.293-2.507-.052-.234-.055-.479-.075-.716-.008-.071 0-.146 0-.221V19.578c0-.387.023-.774.126-1.15.396-1.447 1.614-2.4 3.112-2.416.985-.012 1.969 0 2.958 0h6.35c.566 0 1.107.103 1.61.356 1.107.561 1.704 1.479 1.83 2.708.02.21.016.42.016.629v16.631Zm-9.26 14.998c.043.024.071.047.098.047.744.004 1.487.008 2.231.008.051 0 .098-.02.15-.027.043-.147.027-.281.027-.416V21.363c0-.06-.011-.119-.023-.198-.214 0-.412-.004-.609-.008h-1.226c-.206 0-.415-.016-.633.02-.008.071-.015.119-.015.17V51.334ZM80.274 56.664h-6.718c-.012-.087-.024-.146-.024-.206V21.627c0-.143.016-.289-.016-.435-.043-.012-.07-.028-.103-.028h-2.261c-.028 0-.06.016-.08.024-.011.016-.02.024-.023.031a.074.074 0 0 0-.008.028c0 .012-.004.02-.004.032V56.557c0 .012 0 .02-.008.032 0 .012-.008.02-.02.051-.059.008-.126.028-.193.028h-6.129c-.123 0-.253.028-.368-.04-.044-.336-.067-38.532-.024-40.399 0-.059.008-.122.016-.197.075-.008.135-.016.194-.016h12.262c.423 0 .834.047 1.237.178a3.265 3.265 0 0 1 2.278 2.874 6.7 6.7 0 0 1 .02.566v36.658c0 .115-.008.226-.012.38l-.016-.008ZM101.282 56.633c-.043.011-.083.027-.122.027-2.171 0-4.338 0-6.509-.004-.028 0-.055-.023-.083-.031-.043-.333-.071-38.51-.024-40.4 0-.059.012-.122.016-.181.047-.016.075-.028.103-.032.083-.004.166 0 .253 0h12.104c.434 0 .858.043 1.269.186 1.257.447 1.997 1.332 2.222 2.645.04.225.051.459.051.688v14.211c0 .103-.008.206-.011.316-.08.012-.139.028-.202.028-1.02.036-6.228.012-6.52-.032-.008-.05-.024-.11-.028-.17-.004-.102 0-.21 0-.312V21.595c0-.134.016-.269-.024-.391-.035-.016-.055-.032-.071-.032-.724 0-1.447-.004-2.171-.008-.063 0-.122.008-.201.012-.012.067-.024.127-.028.186-.004.114 0 .23 0 .344v34.488c0 .142.024.292-.024.442v-.004ZM81.555 16.024h6.69c.08.11.048.23.048.34v4.733c.107.099.213.063.316.063h4.369c.091 0 .186.008.277.012.016.043.032.075.032.103v4.871c0 .04-.016.08-.024.119-.115.067-.233.04-.344.04h-4.247c-.114 0-.225.007-.355.007-.012.075-.024.135-.024.194-.004.083 0 .166 0 .253V51.33c.122.091.241.06.352.06h4.602c.016.075.036.134.036.193.004.253 0 .502 0 .755v3.93c0 .115 0 .23-.004.357-.075.015-.13.031-.19.035-.063.004-.126 0-.19 0H85.07c-.387 0-.775-.02-1.15-.126-1.234-.352-1.974-1.175-2.282-2.4a4.123 4.123 0 0 1-.11-.934V16.478c0-.146-.013-.292.023-.462l.004.008Z"/></svg>