<svg xmlns="http://www.w3.org/2000/svg" fill="none" viewBox="0 0 210 80"><path fill="#000" d="M40.638 41.718c-.785-1.055-1.413-1.777-2.825-2.167.998-.491 1.341-.924 1.926-1.863a6.204 6.204 0 0 0 .9-3.365c0-2.008-.586-3.813-2.099-4.94-1.512-1.126-3.368-1.747-6.136-1.747h-8.62a1.762 1.762 0 0 0-1.27.563A1.856 1.856 0 0 0 22 29.513v22.835h11.089c3.025 0 4.838-.563 6.407-1.719 1.57-1.141 2.355-2.802 2.355-4.94a6.262 6.262 0 0 0-1.213-3.971ZM24.983 30.712h7.092c1.77 0 3.14.13 4.096.794a3.76 3.76 0 0 1 1.056 4.593 3.74 3.74 0 0 1-1.056 1.3c-.956.679-2.326 1.011-4.096 1.011h-5.622a1.51 1.51 0 0 1-1.042-.433 1.555 1.555 0 0 1-.428-1.069v-6.196ZM37.37 48.304c-.985.664-2.469.982-4.438.996h-6.594c-.356 0-.699-.144-.956-.404a1.424 1.424 0 0 1-.385-.968v-6.644h7.935c3.953 0 5.922 1.372 5.922 4.117 0 1.415-.5 2.224-1.484 2.903Zm19.994 1.92c0 .564-.214 1.113-.614 1.517a2.082 2.082 0 0 1-1.484.621h-1.355V29.398c.002-.467.186-.914.513-1.242a1.712 1.712 0 0 1 1.227-.52h1.727v22.589h-.014Zm130.168.954v1.184h-17.14V27.65h17.14v1.3c0 .477-.186.924-.514 1.256a1.73 1.73 0 0 1-1.227.52h-12.373v7.597h9.747v1.2c.001.475-.184.932-.514 1.27-.328.332-.785.52-1.241.52h-7.992V49.3h12.259c.756 0 1.427.448 1.712 1.156.097.228.145.474.143.722ZM81.34 27a12.547 12.547 0 0 0-9.633 4.52l-2.227-1.27.029.13c-.043.707-.043 1.43.028 2.137.23 2.293.998 4.497 2.241 6.427a10.199 10.199 0 0 1 1.741-4.665 9.587 9.587 0 0 1 4.267-3.394l.057-.029c.157-.072.314-.13.486-.173h.057c.356-.13.713-.231 1.084-.303l.143-.03.4-.071h.185c.129-.044.257-.044.4-.058h.17l.572-.015c1.755 0 3.482.492 4.98 1.416a9.827 9.827 0 0 1 4.325 5.936c.2.794.3 1.618.3 2.455v.506a7.382 7.382 0 0 1-.1.982 9.77 9.77 0 0 1-1.513 3.943 9.692 9.692 0 0 1-3.397 3.163 9 9 0 0 1-2.183.881 9.573 9.573 0 0 1-2.398.303h-.642c-.1 0-.214 0-.314-.029-.1-.028-.129 0-.186-.014l-.285-.043-.2-.03-.257-.042-.2-.044-.242-.058-.2-.057-.243-.073-.2-.072-.228-.087-.2-.072-.228-.086-.2-.087-.214-.101-.2-.101-.2-.101-.2-.102-.185-.115-.2-.115-.17-.116-.2-.13-.143-.101-.842-.694-.057-.057-.229-.217-.085-.086-.214-.217-.1-.101-.2-.231-.1-.116c-.071-.072-.128-.159-.185-.231l-.086-.116-.171-.245-.086-.116-.171-.26c-.057-.086-.057-.072-.072-.115l-.157-.275s-.042-.072-.057-.115c-.042-.101-.1-.188-.157-.289-.014-.029-.043-.072-.057-.101l-.142-.303-.043-.087-.143-.332-.028-.072-.143-.361a10.422 10.422 0 0 1-.5-2.196 11.922 11.922 0 0 1-2.797-4.26 13.274 13.274 0 0 0 .485 7.914 12.927 12.927 0 0 0 4.895 6.153 12.531 12.531 0 0 0 14.771-.621 13.055 13.055 0 0 0 4.381-6.543 13.3 13.3 0 0 0-.157-7.93 12.979 12.979 0 0 0-4.638-6.354 12.453 12.453 0 0 0-7.378-2.427L81.34 27Zm34.893.636h-1.627c-.267 0-.529.077-.754.223a1.412 1.412 0 0 0-.516.6l-10.589 23.889h1.94a2.49 2.49 0 0 0 1.356-.405c.403-.268.72-.65.914-1.097l3.225-7.496 4.709-10.905a.554.554 0 0 1 1.028 0l4.709 10.905 3.226 7.496c.194.447.511.828.913 1.097.4.275.871.405 1.356.405h2.012l-10.632-23.89a1.422 1.422 0 0 0-.521-.609 1.396 1.396 0 0 0-.763-.228l.014.015Zm41.443 12.204h1.256v9.908a12.282 12.282 0 0 1-4.11 2.398 14.48 14.48 0 0 1-4.895.837 12.603 12.603 0 0 1-6.479-1.69 12.072 12.072 0 0 1-4.538-4.65 14.289 14.289 0 0 1-1.648-6.666c0-2.325.566-4.614 1.648-6.665a11.782 11.782 0 0 1 4.552-4.637 12.817 12.817 0 0 1 6.537-1.66 13.037 13.037 0 0 1 5.18.996 10.58 10.58 0 0 1 3.953 2.918l-.899.967a1.785 1.785 0 0 1-2.412.173 9.225 9.225 0 0 0-5.665-1.848 9.46 9.46 0 0 0-4.867 1.256 8.856 8.856 0 0 0-3.382 3.481 10.868 10.868 0 0 0 0 10.01 8.899 8.899 0 0 0 3.382 3.495c1.47.852 3.14 1.3 4.838 1.27a9.636 9.636 0 0 0 5.566-1.631v-6.139c0-.549.185-1.083.556-1.488a2.018 2.018 0 0 1 1.427-.65v.015Z"/></svg>