<svg xmlns="http://www.w3.org/2000/svg" fill="none" viewBox="0 0 210 80"><path fill="#FF5C40" fill-rule="evenodd" d="M104.31 33.897v1.964c-2.025-1.681-4.437-2.406-6.938-2.406-2.06 0-3.908.495-5.405 1.362-3.345 1.91-5.704 5.484-5.704 9.765 0 4.28 2.306 7.819 5.651 9.711 1.514.867 3.575 1.416 5.564 1.416 2.641 0 5.036-.867 6.832-2.406v1.963h4.331V33.897h-4.331Zm-.141 14.683c-1.514 1.963-3.821 3.042-6.075 3.042-4.296 0-7.36-3.22-7.36-7.04 0-3.821 2.835-7.04 7.114-7.04 1.213-.002 2.411.271 3.505.798a8.11 8.11 0 0 1 2.816 2.244v7.996Zm10.652 6.686V23h4.56v32.266h-4.56Z" clip-rule="evenodd"/><path fill="#FF5C40" d="M125.931 23h4.578v32.266h-4.578V23Z"/><path fill="#FF5C40" fill-rule="evenodd" d="m135.368 52.754 2.307-3.184c2.077 1.54 4.331 2.37 6.55 2.37 1.936 0 3.855-1.008 3.855-2.688 0-2.46-3.679-2.583-6.919-3.627-2.694-.866-5.088-2.494-5.088-5.501 0-4.582 4.243-6.687 8.204-6.687 3.258 0 5.599.99 7.342 2.37l-2.306 3.096c-1.373-.99-2.976-1.68-4.754-1.68-2.166 0-3.997.99-3.997 2.688 0 1.451 1.743 1.946 3.962 2.495 3.486.867 8.046 2.37 8.046 6.775 0 4.051-3.909 6.545-8.24 6.545-3.539 0-6.497-1.043-8.944-2.954l-.018-.018Zm43.102-8.172c0-6.316-4.472-11.127-10.635-11.127-6.162 0-10.793 4.723-10.793 11.127 0 6.403 5.001 11.127 11.445 11.127 4.525 0 7.676-1.946 9.332-3.998l-2.923-2.672c-1.268 1.363-3.064 2.902-6.356 2.902-3.874 0-6.92-2.866-7.166-6.457h17.061l.035-.902Zm-16.709-2.725c.739-2.777 3.345-4.634 6.215-4.634 2.641 0 5.177 1.91 5.828 4.634h-12.043Zm25.741-13.94v6.44h7.677v3.379h-7.677V47.2c0 5.325 3.645 5.572 8.082 4.069l.493 3.555c-7.395 2.211-13.188.566-13.188-7.606v-19.3h4.613ZM28.829 36.233c0 2.848-2.395 5.166-5.353 5.166-2.958 0-5.352-2.318-5.352-5.166 0-2.848 2.394-5.165 5.352-5.165s5.353 2.317 5.353 5.165Zm14.983 0c0 2.848-2.394 5.166-5.352 5.166s-5.353-2.318-5.353-5.166c0-2.848 2.395-5.165 5.353-5.165 2.958 0 5.352 2.317 5.352 5.165Zm14.984 0c0 2.848-2.395 5.166-5.353 5.166-2.958 0-5.352-2.318-5.352-5.166 0-2.848 2.394-5.165 5.352-5.165s5.353 2.317 5.353 5.165ZM38.882 57C28.793 57 19.832 55.213 13 51.852l2.342-4.422c6.11 3.007 14.261 4.6 23.54 4.6 9.28 0 17.431-1.593 23.54-4.6l2.342 4.422C57.933 55.213 48.971 57 38.882 57Z" clip-rule="evenodd"/></svg>