<svg xmlns="http://www.w3.org/2000/svg" fill="none" viewBox="0 0 210 80"><path fill="#313C82" d="M164.272 26.142c-3.341-4.987-9.43-6.417-14.739-3.593-2.673 1.43-4.9 3.41-7.128 5.427-.557.476-1.039.44-1.522-.11-2.896-3.374-7.128-7.224-11.917-7.078-6.72.294-11.843 6.674-10.507 13.165 1.485 7.113 9.579 11.293 16.298 7.59 2.636-1.467 4.938-3.41 7.128-5.427.594-.55.929-.66 1.485.073 2.339 3.117 6.98 7.114 11.027 7.297 9.021.44 15.147-10.01 9.875-17.344Zm-25.171 5.024c-2.19 2.09-4.307 4.253-7.091 5.61-3.564 1.76-8.762-.66-9.467-5.317-.594-3.85 1.782-7.297 5.569-8.14 4.492-.697 8.724 3.85 10.989 7.15.111.257.26.44 0 .697Zm18.86 9.314c-4.975 2.42-10.098-3.117-12.66-6.82-.186-.294-.186-.514.074-.77 3.49-3.301 7.611-8.105 12.92-5.391 5.309 2.64 4.9 10.56-.334 12.98ZM35.855 31.239c-.854-.843-1.893-1.283-3.156-1.723 1.337-.77 2.34-1.65 2.748-3.007 1.113-3.74-.817-7.004-4.79-7.847-2.71-.587-5.494-.294-8.241-.257-2.45.037-3.416 1.063-3.416 3.484v18.59c.186 1.944.78 2.604 2.636 2.897 2.562.184 5.16.037 7.722.074a9.9 9.9 0 0 0 4.12-.88c4.419-1.907 5.718-8.068 2.377-11.331Zm-11.1-7.627c.037-.147.074-.293.148-.293 2.19-.33 5.495-.33 5.123 2.713-.074.953-.668 1.503-1.448 1.834-1.113.476-2.338.256-3.49.256-.445 0-.334-.403-.334-.66v-3.85Zm6.57 13.384c-1.299 2.053-3.86 1.357-5.902 1.54-.446 0-.631-.147-.631-.587v-4.473c0-.367.037-.623.52-.623 1.224.036 2.487 0 3.712.146 2.264.293 3.118 1.797 2.302 3.997Zm50.231 3.264a6.827 6.827 0 0 0-1.299-2.09l-4.12-4.438c-.67-.696-.67-.733.259-.99 4.53-1.246 6.571-6.013 4.344-10.12-2.636-5.024-9.059-4.29-13.922-4.217-2.488 0-3.453 1.063-3.453 3.52V39.16c-.111 2.017.334 4.62 2.821 4.547 1.448.037 2.34-.66 2.748-2.127.185-.623.185-1.283.222-1.906v-5.244c0-.22-.148-.477.223-.66l4.604 5.684c1.596 1.906 3.675 5.683 6.571 3.997 1.077-.66 1.485-1.907 1.002-3.19Zm-6.088-13.164c-.112 1.356-1.188 2.42-2.673 2.566-1.003.074-2.005.037-3.007.074-.557.036-.632-.22-.632-.697.038-1.394 0-2.787 0-4.29-.148-.954.186-1.21 1.04-1.137 1.002.11 2.042-.11 3.082.183 1.707.477 2.375 1.467 2.19 3.3ZM61.1 40.553c-.148-.733-.408-1.467-.668-2.164L55.68 25.115c-.594-1.686-1.04-3.41-1.93-4.986-1.857-3.264-6.757-2.64-7.834.953l-6.163 16.39c-.408 1.1-.965 2.2-1.04 3.41-.037 1.43.632 2.494 1.857 2.824 2.821.88 3.638-2.2 4.306-4.29.186-.55.483-.77 1.114-.66h7.722c.669 0 .928.22 1.077.843.26.954.483 1.907 1.002 2.824 1.448 2.787 6.089 1.393 5.31-1.87Zm-9.467-7.077h-4.158c-.334 0-.668.037-.482-.514.965-2.86 1.893-5.683 3.044-8.543l1.41 4.327 1.114 3.593c.372 1.137.409 1.137-.928 1.137Zm44.736-.184c-1.707.294-3.378.184-5.011.184-.594 0-.854.11-.817.77.074 1.063.037 2.163 0 3.227-.037.55.185.66.705.66 1.894 0 3.787-.147 5.68.11 1.93.256 2.896 1.503 2.525 3.19-.186.807-.705 1.32-1.448 1.65-.705.293-1.485.403-2.265.403h-7.462c-2.599-.036-3.527-.953-3.527-3.483V22.109c0-2.64.928-3.63 3.601-3.667 2.71-.037 5.458-.037 8.168.036 1.782.037 2.784 1.064 2.822 2.604.037 1.137-.483 1.87-1.597 2.273-.668.257-1.373.33-2.079.33H91.21c-.483 0-.668.11-.668.624a46.79 46.79 0 0 1 0 3.226c-.037.514.185.624.668.624 1.596 0 3.193 0 4.79.11 1.893.11 3.006 1.467 2.635 3.153-.26 1.174-1.114 1.614-2.264 1.87Zm19.529-4.326c1.522 1.65.891 3.703-1.188 4.253-1.708.44-3.453.257-5.198.22-.854 0-1.04.257-1.002 1.027.037 1.87 0 3.74 0 5.61 0 .514-.075 1.027-.186 1.54-.371 1.43-1.188 2.09-2.636 2.127-1.411.037-2.302-.623-2.71-2.017-.223-.697-.223-1.43-.223-2.163V22.659c0-3.447.854-4.29 4.344-4.29l7.351.073c1.782.036 2.821 1.026 2.895 2.456.149 3.63-5.012 2.677-7.425 2.75-1.41.037-1.41 0-1.41 1.394 0 .733.074 1.467 0 2.2-.075.844.259.954 1.002.917 1.374-.037 2.71.037 4.084.073.817.037 1.596.257 2.302.734Zm62.482 13.31c-.409-.99-.409-1.943-.409-2.897l.037-14.814c0-.733-.222-.953-.928-.916-2.079.146-5.494-.11-5.346-2.714.037-1.393 1.04-2.347 2.673-2.493 4.158-.11 8.279.036 12.437 0 .557 0 1.114.146 1.634.33 1.077.44 1.522 1.1 1.522 2.31 0 1.137-.52 1.87-1.634 2.237-1.188.44-2.45.403-3.675.33-.854-.074-.965.256-.965.99l.037 14.887c.037 1.687-.297 3.887-2.19 4.18-1.523.257-2.377-.11-3.193-1.43Zm-13.143 3.557c-1.559-.623-1.41-2.347-1.559-3.703-.037-.917.446-1.357 1.448-1.32.557.036 1.114.073 1.671.183 3.452.623 2.561 5.353-.817 4.987-.223 0-.446-.074-.743-.147Zm7.128-6.93c-.371 1.136-1.113 1.76-2.264 1.907-1.634.256-2.413-1.21-3.045-2.42-.519-1.1-.185-1.834 1.003-2.237 2.487-.917 4.641-.257 4.306 2.75Zm-4.492-14.228c1.671-2.42 5.272-.33 4.455 2.237-.371 1.247-1.299 1.87-2.599 1.76-1.002-.11-1.93-.513-2.858-.843-.409-.147-.446-.404-.26-.77.371-.807.705-1.65 1.262-2.384ZM167.356 23.13c-.933.226-1.827.188-2.722.226-.448 0-.634-.151-.634-.641 0-.83 0-1.66.186-2.526.299-1.547 1.082-2.225 2.573-2.188 1.268.038 2.349.98 2.535 2.338.15 1.32-.522 2.338-1.938 2.79Zm2.945 6.9c2.685-1.433 4.922 2.074 2.946 4.185-.821.905-2.051 1.056-3.132.302a9.851 9.851 0 0 1-2.014-1.734c-.298-.34-.335-.566 0-.905.634-.641 1.305-1.32 2.2-1.848Z"/><path fill="#000" d="M130.631 51.244h2.811c-.113.313-.375.626-.3.87.562 2.193 1.237 4.35 1.836 6.544h.225l2.961-7.345c.075 0 .187 0 .262-.035l2.848 7.38h.187l1.425-4.247c.224-.696.487-1.357.599-2.053.075-.349-.15-.697-.262-1.08h1.986c-.3.453-.75.94-.974 1.462-.937 2.402-1.762 4.873-2.624 7.275a8.989 8.989 0 0 1-.412.87h-.262l-2.886-7.518-3.11 7.518h-.263c-.112-.209-.224-.383-.299-.626l-2.474-7.588c-.225-.662-.449-1.253-1.274-1.427Zm-27.02 2.019v4.664c0 .417.038.835.075 1.253 0 .73.075 1.392 1.125 1.531H102c.824-.174.787-.765.787-1.322l.037-7.38v-.8c.075-.035.15-.105.225-.14l7.833 7.832.037-.905-.15-5.29c0-.697 0-1.358-1.087-1.393h2.436c-.15.418-.449.87-.487 1.323l-.037 7.205c0 .279 0 .592-.113.94-2.81-2.263-5.209-4.908-7.87-7.518Zm46.957 7.657c-3.036-.035-5.209-2.158-5.134-5.047.075-2.82 2.398-4.873 5.509-4.873 3.073.035 5.246 1.984 5.209 4.734-.038 3.098-2.361 5.22-5.584 5.186Zm4.235-5.151c-.075-.349-.15-1.08-.413-1.74-.524-1.463-1.986-2.472-3.522-2.507-1.687-.07-3.111.662-3.673 2.019-.787 1.845-.637 3.69.637 5.36 1.387 1.81 4.16 2.054 5.771.522.975-.905 1.125-2.088 1.2-3.654Zm13.753 4.942c.187-.313.525-.661.525-.974a163.7 163.7 0 0 0 .037-7.45c0-.347-.449-.66-.712-.974h2.623c-.824.174-.712.8-.712 1.323v2.75c1.35-.696 3.823-3.377 3.748-4.108h2.548c-2.323.905-3.522 2.75-5.359 4.142 2.211 1.845 3.71 4.212 6.596 5.291-1.424.21-2.698.07-3.673-.974l-3.073-2.994a10.5 10.5 0 0 0-.712-.696c0 1.427-.037 2.68.038 3.899 0 .278.562.522.824.765h-2.698Zm-10.905-9.502h3.635c1.162.035 2.173.383 2.661 1.462.524 1.079.15 2.123-.637 2.889-.712.696-.6 1.148 0 1.775.524.522.974 1.114 1.461 1.67.675.767 1.424 1.463 2.736 1.567-1.537.487-2.698.174-3.598-.87-.562-.661-1.199-1.323-1.649-2.054-.599-.974-1.461-1.044-2.473-.835l.037 3.133c.038.278.6.522.862.765h-2.698c.15-.417.487-.87.487-1.357.075-2.332.038-4.63.038-6.962 0-.557-.113-1.079-1.087-.94.075-.07.15-.139.225-.243Zm1.986 2.715v1.67c0 .21.112.453.262.557.45.314 1.949.174 2.361-.174.675-.522.9-1.949.487-2.958-.337-.87-1.161-1.358-2.211-1.358-.637 0-1.011.174-.937.87.113.453.038.906.038 1.393Zm-39.649 5.117c.15 1.636.038 1.74-1.461 1.74h-3.86c.187-.522.524-1.01.524-1.497l.038-6.857c0-.626-.263-.974-.937-1.148h5.396l-.075 1.67c-.674-1.67-1.986-.94-3.11-1.218v3.585h2.998a39.085 39.085 0 0 0-.112 1.566c-.713-1.322-1.837-.765-2.886-.974v3.759c0 .14.187.348.337.453.975.522 2.661 0 3.148-1.08Zm7.083 1.67h-2.848c.187-.348.524-.696.524-1.044.075-2.437.075-4.908.075-7.344 0-.14-.299-.453-.449-.453-.75-.035-1.499-.07-2.211.07-.375.07-.712.418-1.125.696.113-.522.225-.975.338-1.392h8.244v1.496c-.599-.765-2.323-1.183-3.223-.835-.15.07-.299.383-.299.592v6.787c-.038.662.037 1.288.974 1.427Zm51.903-1.984c.375 1.219.9 1.671 2.024 1.671.749 0 1.461-.209 1.686-.87.188-.557.188-1.288-.037-1.775-.3-.557-.937-.94-1.462-1.428-.599-.556-1.311-1.079-1.724-1.74-1.049-1.566-.075-3.306 1.912-3.55.187-.035.412-.035.637-.035 1.799 0 1.873.07 1.649 1.914-.375-.905-.862-1.427-1.799-1.427-.75 0-1.349.174-1.687.836-.374.661-.149 1.253.375 1.74.75.661 1.537 1.288 2.324 1.914.937.801 1.349 1.776 1.011 2.994-.449 1.636-3.522 2.68-4.834 1.566-.375-.313-.225-1.183-.337-1.81h.262Z"/></svg>