<svg xmlns="http://www.w3.org/2000/svg" fill="none" viewBox="0 0 210 80"><path fill="#013B4A" d="M137.95 34.785v13.741c0 .644-.055 1.28-.262 1.896-.485 1.398-1.543 2.069-2.927 2.325-.471.09-.941.117-1.425.117-3.342 0-6.677.014-10.019-.006-1.674-.014-3.321-.25-4.892-.872-2.594-1.024-4.172-2.961-4.974-5.584-.658-2.145-.782-4.352-.741-6.573.028-1.702.201-3.383.671-5.03 1.004-3.522 3.342-5.583 6.912-6.303a17.196 17.196 0 0 1 3.363-.318c2.657 0 5.307 0 7.964.007.269 0 .318-.076.318-.325-.014-1.744 0-3.48 0-5.224 0-1.433.955-2.387 2.394-2.394 1.107 0 2.221.007 3.328-.007.249 0 .304.069.304.311v14.232l-.014.007Zm-6.026 5.19V32.64c0-.166.014-.283-.235-.283-2.304.02-4.601.007-6.905.034-1.073.014-2.124.194-3.093.685-1.432.72-2.131 1.965-2.463 3.467-.27 1.21-.318 2.442-.318 3.674 0 1.418.013 2.836.318 4.234.332 1.495 1.017 2.754 2.435 3.487.969.498 2.014.685 3.093.706 1.495.028 2.982.014 4.477.014.477 0 .954.014 1.432-.014.775-.048 1.204-.491 1.252-1.266v-7.39l.007-.014ZM152.217 28.192c2.616 0 5.224-.035 7.839.013 1.516.028 2.948.43 4.207 1.322 1.709 1.21 2.484 2.94 2.692 4.968.055.519.055 1.03.055 1.55v12.62c0 .595-.062 1.183-.256 1.743-.477 1.412-1.55 2.083-2.948 2.339-.477.09-.961.117-1.453.117h-13.934c-1.121 0-2.207-.193-3.224-.691-1.315-.644-2.208-1.682-2.657-3.059-.817-2.497-.872-5.03-.035-7.534.817-2.436 2.615-3.709 5.141-4.013a9.565 9.565 0 0 1 1.176-.056h11.852c.249 0 .339-.048.325-.318-.034-.733.049-1.474-.083-2.2-.256-1.44-1.197-2.311-2.684-2.526a7.68 7.68 0 0 0-1.052-.069h-11.762c-.962 0-1.508-.54-1.508-1.487 0-.817.007-1.64 0-2.457 0-.242.069-.283.297-.283 2.678.007 5.348 0 8.026 0l-.014.02Zm3.515 13.478v.02c-1.66 0-3.314-.02-4.975 0-1.397.021-2.241.734-2.518 2.07a6.826 6.826 0 0 0-.028 2.622c.27 1.48 1.093 2.22 2.595 2.234 2.913.028 5.826.014 8.738 0 .976 0 1.433-.505 1.433-1.48 0-1.716-.007-3.44.007-5.155 0-.29-.09-.325-.346-.325-1.64.014-3.273 0-4.913 0l.007.014ZM91.358 52.871c-1.812-.041-3.57.076-5.327-.055-1.453-.11-2.643-.81-3.709-1.778-.968-.886-1.563-2.027-2.207-3.127-3.722-6.373-7.438-12.752-11.16-19.124-.132-.222-.11-.36.041-.54.333-.401.665-.796 1.059-1.128 1.405-1.204 3.01-1.363 4.636-.47a8.323 8.323 0 0 1 1.626 1.19c.083.076.152.173.207.27a45566.99 45566.99 0 0 1 14.69 24.5c.04.069.075.145.144.27v-.008ZM112.627 28.192c-.754 1.134-1.487 2.207-2.193 3.3-.388.602-.9.893-1.633.879-1.252-.021-2.505-.049-3.75.166-2.083.366-3.529 1.46-4.096 3.556a9.863 9.863 0 0 0-.325 2.58v13.832c0 .276-.056.36-.346.36a349.978 349.978 0 0 0-5.383 0c-.25 0-.305-.07-.305-.312.007-5.14 0-10.281.014-15.415 0-1.508.242-2.99.893-4.373.948-2.027 2.588-3.224 4.677-3.888 1.536-.492 3.114-.678 4.712-.692 2.511-.021 5.016 0 7.528 0 .048 0 .096 0 .207.014v-.007Z"/><path fill="url(#a)" d="M59.829 34.17c.491.58.975 1.176 1.335 1.854-1.55 2.629-3.093 5.251-4.642 7.88-1.087 1.848-2.16 3.695-3.252 5.536-1.315 2.207-3.266 3.335-5.833 3.397-1.39.034-2.774.02-4.165.02-.09 0-.208.049-.256-.034-.055-.09.048-.166.097-.242 3.521-5.86 7.043-11.714 10.565-17.574.823-1.377 1.654-2.747 2.477-4.124.117.02.207.09.297.16a17.633 17.633 0 0 1 3.377 3.12v.007Zm14.903-9.161c-1.501-2.463-2.913-4.982-4.483-7.403-1.135-1.75-3.619-2.138-5.231-.824-.588.478-1.024 1.08-1.411 1.716-1.19 1.979-2.38 3.95-3.564 5.93-.498.83-1.03 1.646-1.487 2.504-.56.92-1.121 1.848-1.682 2.768a.468.468 0 0 0 .104.221c.927 1.398 2.055 2.616 3.335 3.702.498.422 1.003.83 1.605 1.107.672-1.155 1.35-2.304 2.02-3.46.153-.255.333-.498.43-.781.048-.014.048-.056.069-.09.782-1.239 1.487-2.526 2.249-3.778a6.351 6.351 0 0 1 1.598-1.785c1.46-1.107 3.01-1.197 4.642-.415.976.47 1.778 1.169 2.533 1.93a.187.187 0 0 1 .041-.034c-.256-.436-.498-.88-.76-1.315l-.008.007Z"/><path fill="url(#b)" d="M61.164 36.024c-.36-.678-.844-1.273-1.335-1.854a17.614 17.614 0 0 0-3.377-3.12c-.09-.063-.18-.14-.297-.16-.879-.657-1.758-1.308-2.754-1.778-.221-.104-.457-.125-.699-.125H49.97c-.54 0-.74-.2-.74-.726v-4.415c0-.525.18-.72.699-.72h4.476c.52 0 .692.195.7.727.013.955-.029 1.903.02 2.858.014.263.104.505.221.733.416.768.92 1.474 1.419 2.187.02.034.062.048.097.069.007.083.055.152.103.221.928 1.398 2.055 2.616 3.335 3.702.498.422 1.004.83 1.605 1.107.803.54 1.696.9 2.581 1.28.872.38 1.772.526 2.713.512 1.21-.014 2.428 0 3.639.035.699.02.948.422.948.94v7.867c0 .201-.056.27-.263.27H63.62c-.615 0-.961-.367-.961-.968 0-1.481.014-2.962 0-4.442-.021-1.543-.61-2.9-1.446-4.159-.007-.014-.035-.02-.056-.027l.007-.014ZM46.897 21.985c.395 0 .589-.2.589-.595v-2.954c0-.374-.222-.616-.596-.616a219.806 219.806 0 0 0-3.016 0c-.353 0-.568.215-.568.567v3.045c0 .353.208.546.568.553h3.023Z"/><path fill="#013B4A" d="M119.013 63.907h-1.086c-.152 0-.187-.11-.242-.2a89.736 89.736 0 0 1-1.038-1.765c-.076-.138-.159-.194-.311-.187-.249.014-.498.021-.748 0-.221-.02-.249.076-.249.263.007.547 0 1.1.007 1.647 0 .194-.041.263-.256.263-.823 0-.823.007-.823-.81 0-1.501.007-3.003-.007-4.504 0-.284.083-.346.346-.332.837.035 1.681-.048 2.512.055 1.155.146 1.798.99 1.556 2.048-.11.498-.436.817-.878 1.017-.201.09-.194.166-.09.332.429.692.844 1.398 1.3 2.166l.007.007Zm-3.667-3.916v.775c0 .09-.014.194.132.187.449-.021.913.048 1.363-.042.533-.11.802-.463.775-.955-.035-.519-.353-.83-.907-.864-.38-.021-.761 0-1.148-.021-.159 0-.222.041-.215.207.014.236 0 .478 0 .713ZM101.322 61.105c0-.837.007-1.674 0-2.519 0-.221.034-.304.283-.304.803.007.803 0 .803.81v1.307c0 .16.021.242.214.242a131.36 131.36 0 0 1 2.332 0c.194 0 .215-.083.215-.242v-1.861c0-.187.048-.263.242-.242.263.02.616-.076.782.055.179.145.055.505.055.768 0 1.508 0 3.024.007 4.532 0 .235-.062.318-.291.284-.256-.035-.581.11-.747-.056-.152-.152-.042-.47-.042-.72 0-.497-.006-.995 0-1.487 0-.18-.055-.228-.228-.228-.768.007-1.536.014-2.297 0-.201 0-.242.07-.235.249.007.664 0 1.328.007 1.986 0 .2-.056.276-.263.256a2.542 2.542 0 0 0-.561 0c-.235.027-.269-.076-.269-.284.006-.851 0-1.695 0-2.546h-.007ZM166.27 59.901c-.09 0-.187-.007-.277 0-.173.014-.277-.007-.298-.228a.647.647 0 0 0-.359-.512c-.499-.256-1.024-.277-1.523-.028-.484.242-.491.837-.027 1.12.366.222.782.333 1.183.45.45.132.892.277 1.273.554.851.609.803 1.82-.083 2.373-.906.56-2.56.464-3.383-.207a1.48 1.48 0 0 1-.582-1.059c-.013-.138.021-.187.16-.18.145.007.29.014.435 0 .298-.027.499-.007.568.38.076.402.477.513.837.589.387.083.782.083 1.155-.097.512-.25.547-.858.07-1.17-.277-.186-.602-.276-.921-.366-.456-.131-.913-.277-1.328-.512-.519-.297-.858-.713-.816-1.35.041-.622.422-1.01.954-1.23a3.04 3.04 0 0 1 2.56.062c.471.22.782.602.907 1.113.048.201.048.346-.229.298-.09-.014-.186 0-.276 0ZM139.569 60.337v-1.799c0-.187.028-.284.25-.263.262.028.615-.083.781.055.173.146.049.506.056.768v2.83c0 .47.104.9.581 1.107.519.229 1.052.236 1.543-.09.325-.214.387-.567.387-.934 0-1.141.007-2.276 0-3.418 0-.263.076-.346.332-.318.243.028.568-.07.72.055.159.132.048.464.048.713v2.92c0 1.065-.595 1.778-1.646 1.972-.54.097-1.073.09-1.605-.049-.858-.221-1.398-.878-1.426-1.77-.021-.59 0-1.184 0-1.772l-.021-.007ZM127.33 61.084v-2.546c0-.125-.028-.25.173-.25.934.029 1.868-.061 2.795.056.851.104 1.481.63 1.647 1.343.2.858-.18 1.598-.99 1.944-.456.194-.941.221-1.432.207-.29-.007-.581.007-.872 0-.179-.007-.228.063-.221.229.007.526 0 1.058.007 1.584 0 .2-.035.311-.263.284-.263-.028-.609.11-.782-.056-.173-.166-.048-.512-.055-.774-.007-.672 0-1.35 0-2.02h-.007Zm1.1-1.086v.858c0 .083-.021.18.111.173.539-.021 1.079.062 1.612-.042.463-.09.712-.429.719-.878 0-.47-.269-.845-.712-.97-.256-.068-.512-.054-.768-.054-.312 0-.72-.111-.9.048-.207.18-.034.602-.062.865ZM125.766 63.928c-.346 0-.643-.007-.948 0-.152 0-.221-.049-.27-.187-.11-.311-.242-.616-.359-.927-.056-.145-.132-.2-.298-.2a61.74 61.74 0 0 1-1.958 0c-.194 0-.27.069-.325.241-.104.305-.221.602-.325.9-.042.124-.111.18-.249.173a6.714 6.714 0 0 0-.748 0c-.193.007-.2-.049-.131-.215.74-1.75 1.474-3.5 2.2-5.258.049-.118.111-.194.249-.173h.063c.488-.01.825.21 1.01.657.65 1.55 1.3 3.107 1.958 4.657.041.097.076.187.124.325l.007.007Zm-1.972-2.124c-.29-.754-.574-1.48-.885-2.29-.312.81-.595 1.542-.886 2.29h1.778-.007ZM108.414 61.091v-2.58c0-.194.055-.243.242-.243 1.19.007 2.38 0 3.577 0 .166 0 .235.028.235.215.007.595.014.595-.574.595-.713 0-1.432.007-2.145 0-.194 0-.249.055-.235.242.013.339.02.685 0 1.024-.014.228.041.304.283.297.665-.02 1.329 0 1.993-.014.201 0 .291.028.284.263-.014.505 0 .505-.505.505h-1.806c-.18 0-.263.028-.256.236a19.3 19.3 0 0 1 0 1.273c0 .187.062.221.235.221.816-.007 1.64 0 2.456-.007.242 0 .339.063.305.305a.744.744 0 0 0 0 .249c.027.194-.056.242-.243.242-1.203-.007-2.4-.007-3.604 0-.194 0-.242-.055-.242-.25.006-.857 0-1.715 0-2.58v.007ZM133.841 61.077c0-.837.007-1.674 0-2.518 0-.222.034-.298.283-.298 1.163.014 2.325.014 3.48 0 .236 0 .298.056.291.29-.014.527 0 .527-.526.527h-2.207c-.187 0-.256.041-.249.242.014.353.021.706 0 1.058-.014.236.083.27.284.27.671-.014 1.349 0 2.02-.007.208 0 .256.063.256.263-.007.512 0 .512-.491.512h-1.834c-.173 0-.235.049-.228.229.014.415.014.83 0 1.245-.007.208.055.263.263.263.809-.014 1.619 0 2.421-.007.229 0 .326.041.312.297-.021.499 0 .499-.484.499h-3.328c-.201 0-.27-.042-.263-.256.013-.858 0-1.716 0-2.581v-.028ZM156.756 61.098c-.021.374 0 .782.132 1.17.304.871 1.473 1.224 2.214.67a1.02 1.02 0 0 0 .387-.684c.028-.146.083-.194.221-.18.194.013.395 0 .589 0 .366 0 .373 0 .29.352-.166.692-.616 1.142-1.266 1.377a3.04 3.04 0 0 1-1.951.063c-.837-.256-1.37-.83-1.585-1.675a4.636 4.636 0 0 1-.062-1.972c.249-1.37 1.315-2.145 2.712-2.027 1.225.104 1.903.644 2.138 1.675.042.186.035.276-.186.248a.847.847 0 0 0-.187 0c-.415.049-.685-.013-.838-.512-.207-.678-1.3-.85-1.978-.387-.464.318-.581.81-.63 1.322-.014.173 0 .353 0 .553v.007ZM97.115 58.268h2.207c.187 0 .27.028.263.25-.007.567 0 .567-.574.567-.36 0-.727.013-1.087 0-.228-.014-.29.048-.29.283.014 1.412 0 2.816.014 4.228 0 .242-.035.339-.312.332-.781-.02-.781 0-.781-.796v-3.757c0-.235-.056-.297-.291-.29-.457.02-.913 0-1.37.007-.208 0-.263-.056-.263-.263 0-.554 0-.554.547-.554h1.93l.007-.007ZM148.336 58.268c.726 0 1.453.007 2.179 0 .208 0 .284.035.284.263-.014.547 0 .547-.561.547-.373 0-.747.014-1.12 0-.215-.014-.277.048-.277.27.014 1.418 0 2.836.014 4.255 0 .27-.083.318-.332.318-.768-.014-.768 0-.768-.775v-3.792c0-.221-.056-.283-.277-.276-.478.014-.955 0-1.432.007-.167 0-.208-.056-.215-.215-.021-.602-.028-.602.56-.602h1.945ZM152.57 61.077v-2.546c0-.187.049-.256.242-.242.263.02.616-.076.782.055.18.146.055.505.055.768 0 1.509 0 3.024.007 4.532 0 .229-.055.298-.29.29-.796-.013-.796 0-.796-.774v-2.083Z"/><path fill="#9D228E" d="M75.493 26.323c.042.021.076.063.042.09-.042.035-.056-.034-.083-.055a.18.18 0 0 1 .041-.035Z"/><defs><linearGradient id="a" x1="55.864" x2="72.608" y1="45.157" y2="17.315" gradientUnits="userSpaceOnUse"><stop offset=".23" stop-color="#003B4A"/><stop offset="1" stop-color="#C4168C"/></linearGradient><linearGradient id="b" x1="50.585" x2="70.733" y1="24.448" y2="44.59" gradientUnits="userSpaceOnUse"><stop stop-color="#86288F"/><stop offset="1" stop-color="#C4168C"/></linearGradient></defs></svg>