<svg xmlns="http://www.w3.org/2000/svg" fill="none" viewBox="0 0 210 80"><path fill="#CCAF63" d="M96.685 31.47h15.847l-2.325-17.523 17.157-1.638L115.744 0l-11.135 9.385L93.474 0l-11.62 12.309 17.156 1.638-2.325 17.523Z"/><path fill="#CCAF63" d="M92.637 20.246 80.116 14.14 75 19.569l17.513 14.495.124-13.818Zm10.041 22.269-9.422-7.836-6.218 6.283c1.609 2.92 3.798 6.878 5.407 9.798 3.605-1.455 6.628-3.949 10.233-5.404v-2.841Zm-8.44 11.448 1.327 4.944 2.243 1.44h13.601l2.244-1.44 1.327-4.944-10.371-2.422-10.37 2.422h-.001Zm22.466-19.899 17.513-14.495-5.115-5.43-12.522 6.107.124 13.818Zm-10.164 8.45v2.842c3.604 1.455 6.503 3.949 10.107 5.404 1.609-2.92 3.923-6.878 5.533-9.798l-6.218-6.283-9.422 7.836Z"/><path fill="#0F1014" d="M112.842 66.141h-2.322l-2.751 9.428-2.751-9.428h-2.321l3.456 11.843h3.233l3.456-11.843Zm-19.919.002h-7.262v11.841l6.965.004.297-1.98h-4.94v-2.955h3.332l.298-1.98h-3.63v-2.948h4.642l.298-1.982Zm8.809 0H94.47v11.841l6.965.004.297-1.98h-4.94v-2.955h3.332l.298-1.98h-3.63v-2.948h4.643l.297-1.982Zm19.44 0h-7.262v11.841l6.964.004.298-1.98h-4.941v-2.955h3.333l.298-1.98h-3.631v-2.948h4.643l.298-1.982Zm-37.627.002h-4.313l-.297 1.98h2.29v7.165c0 1.929-1.39 2.39-2.207 2.788L80.004 80c.47-.226.926-.422 1.36-.663.656-.365 2.18-1.202 2.18-3.876v-9.316h.001Zm42.726-.255c-2.51 0-3.963 1.387-3.963 3.187 0 1.635.825 2.675 3.137 3.633 2.031.858 2.427 1.354 2.427 2.113 0 .809-.66 1.437-1.866 1.437-1.001 0-1.988-.38-2.793-.865l-.905 1.849a7.574 7.574 0 0 0 3.748.997c2.575 0 4.227-1.552 4.227-3.534 0-1.536-.71-2.609-3.187-3.715-2.047-.908-2.394-1.272-2.394-1.949s.511-1.189 1.502-1.189c.838 0 1.718.27 2.5.719l.895-1.829c-.858-.493-2.028-.854-3.329-.854"/></svg>