<svg xmlns="http://www.w3.org/2000/svg" fill="none" viewBox="0 0 210 80"><path fill="#0F1118" d="M77.601 35.36v13.335c0 .405-.137.745-.415 1.02-.278.268-.628.399-1.05.399-.421 0-.751-.134-1.036-.399a1.376 1.376 0 0 1-.415-1.02V35.359a.838.838 0 0 0-.271-.63.864.864 0 0 0-.635-.26h-2.23c-.405 0-.748-.14-1.023-.424a1.42 1.42 0 0 1-.415-1.033c0-.406.138-.749.415-1.033a1.372 1.372 0 0 1 1.024-.425h9.22c.405 0 .738.14.997.425.268.274.402.62.402 1.033 0 .412-.134.761-.402 1.046-.259.275-.592.412-.998.412h-2.255a.899.899 0 0 0-.648.258.856.856 0 0 0-.258.631H77.6ZM87.132 48.603V33.008c0-.405.137-.748.415-1.033.284-.284.63-.425 1.036-.425h9.141c.406 0 .74.14.998.425.268.275.402.621.402 1.033 0 .412-.134.762-.402 1.047-.259.274-.592.412-.998.412h-6.78a.858.858 0 0 0-.635.258.856.856 0 0 0-.258.63v3.126a.91.91 0 0 0 .258.657.85.85 0 0 0 .635.272h5.018c.415 0 .755.134 1.024.399.277.258.415.588.415.994 0 .405-.138.745-.415 1.02a1.398 1.398 0 0 1-1.024.412h-5.018a.845.845 0 0 0-.635.271.896.896 0 0 0-.258.644v3.1c0 .248.085.464.258.644a.863.863 0 0 0 .635.258h6.78c.406 0 .74.137.998.412.268.274.402.62.402 1.033 0 .412-.134.762-.402 1.046-.259.275-.592.412-.998.412h-9.14c-.406 0-.753-.14-1.037-.425a1.421 1.421 0 0 1-.415-1.033v.006ZM113.192 36.34v-.31c0-.18-.052-.324-.157-.426l-.958-.954a.586.586 0 0 0-.428-.18h-3.047a.587.587 0 0 0-.429.18l-.958.954a.578.578 0 0 0-.179.425v1.77c0 .179.058.33.179.45l.958.968c.157.127.298.193.429.193h3.877c.406 0 .739.127.997.386l2.23 2.285c.268.268.402.588.402.968v3.406c0 .386-.134.713-.402.981l-2.23 2.168c-.258.3-.591.451-.997.451h-4.708c-.441 0-.778-.15-1.01-.451l-2.23-2.168a1.33 1.33 0 0 1-.415-.98v-1.161c0-.38.137-.693.415-.942.278-.248.621-.376 1.037-.376.415 0 .761.124 1.036.376.285.249.428.563.428.942v.297c0 .18.059.33.18.452l.958.915a.601.601 0 0 0 .428.193h3.047a.604.604 0 0 0 .429-.193l.958-.916c.104-.104.157-.255.157-.45v-1.665c0-.19-.053-.35-.157-.477l-.958-.955c-.147-.12-.291-.18-.429-.18h-3.877c-.432 0-.768-.134-1.01-.399l-2.23-2.272c-.278-.3-.415-.637-.415-1.007V35.18c0-.395.137-.732.415-1.007l2.23-2.167c.232-.301.569-.451 1.01-.451h4.708c.405 0 .739.15.997.45l2.23 2.168c.268.268.402.602.402 1.007v1.16c0 .406-.137.74-.415 1.008-.268.268-.605.399-1.011.399-.405 0-.768-.134-1.062-.4a1.322 1.322 0 0 1-.428-1.006h.003ZM128.555 35.36v13.335c0 .405-.138.745-.416 1.02-.277.268-.627.399-1.049.399a1.44 1.44 0 0 1-1.036-.399 1.376 1.376 0 0 1-.416-1.02V35.359a.837.837 0 0 0-.271-.63.863.863 0 0 0-.634-.26h-2.23c-.405 0-.749-.14-1.023-.424a1.42 1.42 0 0 1-.415-1.033c0-.406.137-.749.415-1.033a1.372 1.372 0 0 1 1.023-.425h9.22c.405 0 .739.14.997.425.268.274.402.62.402 1.033 0 .412-.134.761-.402 1.046-.258.275-.592.412-.997.412h-2.256a.896.896 0 0 0-.647.258.854.854 0 0 0-.259.631h-.006ZM141.001 36.585v8.455c0 .2.059.356.18.477l1.491 1.445a.663.663 0 0 0 .48.193h1.933a.63.63 0 0 0 .454-.193l1.517-1.445c.105-.078.157-.235.157-.477v-.775c0-.406.137-.739.415-1.007a1.456 1.456 0 0 1 1.05-.412c.415 0 .739.137.997.412.268.268.402.601.402 1.007v1.615c0 .386-.144.722-.428 1.007l-2.671 2.75a1.382 1.382 0 0 1-1.011.425h-3.694c-.389 0-.736-.15-1.036-.452l-2.737-2.723a1.361 1.361 0 0 1-.415-1.007V35.732c0-.396.137-.733.415-1.007L141.237 32c.304-.3.647-.45 1.036-.45h3.694c.389 0 .726.14 1.011.424l2.671 2.75c.284.284.428.621.428 1.007v1.615c0 .412-.134.758-.402 1.033-.258.268-.592.399-.997.399a1.44 1.44 0 0 1-1.037-.412 1.364 1.364 0 0 1-.428-1.02v-.762c0-.242-.052-.399-.157-.477l-1.517-1.458a.613.613 0 0 0-.454-.18h-1.933a.648.648 0 0 0-.48.18l-1.491 1.458a.646.646 0 0 0-.18.477ZM164.43 32.002l2.229 2.167c.268.268.402.602.402 1.007v11.256c0 .406-.134.74-.402 1.008l-2.229 2.167c-.259.3-.602.451-1.024.451h-4.681c-.442 0-.779-.15-1.011-.45l-2.229-2.168a1.362 1.362 0 0 1-.416-1.008V35.176c0-.396.138-.732.416-1.007l2.229-2.167c.232-.301.569-.452 1.011-.452h4.681c.425 0 .765.15 1.024.451Zm-1.374 14.96.936-.941a.696.696 0 0 0 .153-.452v-9.514a.706.706 0 0 0-.153-.45l-.936-.955a.648.648 0 0 0-.48-.18h-2.995a.646.646 0 0 0-.48.18l-.932.954a.614.614 0 0 0-.183.452v9.513c0 .18.059.33.183.452l.932.941a.66.66 0 0 0 .48.193h2.995c.189 0 .35-.065.48-.193ZM180.881 31.975l2.737 2.75c.284.284.428.621.428 1.007V45.88c0 .386-.144.722-.428 1.007l-2.737 2.75c-.284.284-.608.425-.971.425h-6.405a1.41 1.41 0 0 1-1.036-.425 1.42 1.42 0 0 1-.415-1.034V33.008c0-.405.137-.748.415-1.033a1.41 1.41 0 0 1 1.036-.425h6.405c.363 0 .687.14.971.425Zm-1.399 14.987 1.491-1.445a.73.73 0 0 0 .153-.477v-8.455c0-.19-.052-.35-.153-.477l-1.491-1.458a.615.615 0 0 0-.455-.18h-3.187a.813.813 0 0 0-.621.258.883.883 0 0 0-.246.631v10.897c0 .258.082.474.246.644a.817.817 0 0 0 .621.258h3.187a.632.632 0 0 0 .455-.193v-.003ZM189.038 48.603V33.008c0-.405.138-.748.415-1.033a1.413 1.413 0 0 1 1.037-.425h9.141c.405 0 .739.14.997.425.268.275.402.621.402 1.033 0 .412-.134.762-.402 1.047-.258.274-.592.412-.997.412h-6.781a.858.858 0 0 0-.634.258.857.857 0 0 0-.258.63v3.126c0 .259.085.478.258.657a.85.85 0 0 0 .634.272h5.019c.415 0 .755.134 1.023.399.278.258.415.588.415.994 0 .405-.137.745-.415 1.02a1.398 1.398 0 0 1-1.023.412h-5.019a.846.846 0 0 0-.634.271.897.897 0 0 0-.258.644v3.1c0 .248.085.464.258.644a.863.863 0 0 0 .634.258h6.781c.405 0 .739.137.997.412.268.274.402.62.402 1.033 0 .412-.134.762-.402 1.046-.258.275-.592.412-.997.412h-9.141c-.406 0-.752-.14-1.037-.425a1.424 1.424 0 0 1-.415-1.033v.006Z"/><path fill="#FB29FF" d="M9 31.174V41.35h17.697V59h10.217V31.174H9ZM54.614 21H36.917v10.174h17.697V21Z"/></svg>