<svg xmlns="http://www.w3.org/2000/svg" fill="none" viewBox="0 0 210 80"><path fill="#595D5D" d="M181.772 32.074c-.437-1.477-1.641-2.27-3.173-2.134-1.861.164-3.284 1.15-4.405 2.517-1.451 1.806-2.736 3.721-4.104 5.582-.137.164-.247.355-.383.52a.603.603 0 0 1 0-.493l1.833-6.101c.328-1.095-.165-2.107-1.067-2.326-1.04-.246-1.806.356-2.052 1.587-.137.657-.219 1.313-.411 1.943-.082.273-.301.601-.547.766l-5.308 3.146c-4.186 2.517-8.536 4.733-13.27 6.101-1.614.465-3.228.93-4.924.766-1.341-.11-2.08-.903-1.943-2.134.219-1.86 1.231-3.365 2.353-4.87.794.493 1.45 1.067 2.408.958 2.626-.356 4.733-1.587 6.156-3.858 1.039-1.669-.082-3.721-2.052-3.666-.903.027-1.861.3-2.682.711-2.653 1.395-4.678 3.475-6.238 6.047a3.894 3.894 0 0 1-.82.957c-.712.602-1.451 1.15-2.189 1.697-3.147 2.298-6.32 4.514-9.987 5.91-1.039.41-2.161.656-3.283.765-1.395.137-2.243-.547-2.599-1.887-.192-.712-.383-1.478-.274-2.162a72.279 72.279 0 0 1 1.095-5.992c.082-.41.437-.848.793-1.121.739-.575 1.56-.985 2.298-1.533 5.418-3.912 10.425-8.208 14.72-13.351 2.517-3.01 4.788-6.211 6.348-9.85.465-1.122.82-2.27.738-3.502-.082-1.423-1.094-2.27-2.517-2.025-.656.137-1.34.329-1.915.684-1.341.821-2.681 1.642-3.858 2.654-7.661 6.758-13.187 14.966-17.018 24.652a2.956 2.956 0 0 1-.656.985c-1.286 1.203-2.572 2.407-3.885 3.556-1.587 1.396-3.284 2.654-5.308 3.311-1.478.492-2.435-.191-2.517-1.778-.028-.301.027-.602.054-.903.028-.356.137-.712.164-1.067.055-1.095-.519-1.533-1.504-1.177-.465.164-.931.356-1.314.657l-3.611 2.9c-.547.438-1.067.848-1.915.93.082-.547.136-1.067.191-1.56.082-.656.246-1.313.274-1.97.054-.984-.575-1.586-1.532-1.586-1.177 0-2.353-.027-3.53.11l-14.282 1.805-2.08.301c.22-.438.356-.711.52-.985 2.19-3.584 4.105-7.278 5.555-11.218 1.204-3.255 2.161-6.539 2.08-10.068-.083-4.514-2.518-7.551-6.868-8.427a12.212 12.212 0 0 0-4.98.027c-7.934 1.697-15.157 4.98-21.696 9.768-1.67 1.231-3.31 2.517-4.46 4.296a6.321 6.321 0 0 0-.93 2.161c-.301 1.532.766 3.092 2.27 3.475.876.219 1.67-.082 1.998-.766.355-.684.137-1.341-.657-1.943-.656-.52-.738-.766-.191-1.368 1.067-1.176 2.106-2.38 3.338-3.365 4.158-3.283 8.81-5.746 13.762-7.634 3.01-1.149 6.046-2.216 9.302-2.38 4.077-.192 6.621 2.08 6.813 6.156.11 2.189-.301 4.323-.903 6.402-1.669 5.636-4.35 10.807-7.497 15.732-.328.52-.793.766-1.368.876-6.128 1.231-12.12 2.927-17.948 5.17-7.113 2.737-13.98 5.993-20.192 10.48-3.584 2.572-6.922 5.417-9.466 9.083-1.15 1.67-2.107 3.475-2.435 5.527-.465 2.873.875 5.062 3.639 5.965 2.243.738 4.514.547 6.785.054 4.131-.903 7.907-2.736 11.464-4.925 8.345-5.143 15.568-11.6 21.97-18.96 2.873-3.283 5.417-6.813 8.071-10.26.575-.766 1.204-1.313 2.189-1.423 3.393-.438 6.758-.93 10.15-1.313 2.436-.274 4.87-.383 7.306-.575.465-.027.629.137.602.575-.055.574-.11 1.149-.11 1.724-.027.574-.055 1.176.055 1.723.273 1.368 1.231 2.134 2.599 1.943.766-.11 1.587-.328 2.216-.739 1.341-.848 2.572-1.888 3.858-2.845l1.177-.985c.136.656.218 1.23.383 1.778.574 1.833 1.751 2.463 3.529 1.751a15.908 15.908 0 0 0 3.146-1.696c1.615-1.122 3.119-2.353 4.652-3.557.164-.11.328-.219.492-.356-.246 1.505-.547 2.928-.739 4.378-.191 1.614-.191 3.256.52 4.788.575 1.258 1.532 1.997 2.928 2.08 1.723.109 3.31-.439 4.843-1.123 3.638-1.614 6.894-3.885 10.095-6.238.165-.136.356-.273.657-.492-.137.547-.219.903-.274 1.286-.437 2.462.849 4.268 3.338 4.487 1.095.082 2.244 0 3.311-.246 4.131-.903 7.989-2.6 11.71-4.542l7.524-4.05c.301-.163.602-.246.985-.41-.082.356-.137.547-.191.766-.903 3.448-1.861 6.868-2.709 10.315-.274 1.122-.411 2.27-.493 3.42-.054.903.383 1.423 1.067 1.532.657.11 1.177-.191 1.533-.985.301-.684.602-1.34.848-2.024a65.992 65.992 0 0 1 4.131-9.193c.082-.165.219-.329.383-.548l.219.329c.711 1.258 1.505 1.641 2.928 1.34a6.4 6.4 0 0 0 1.586-.547c2.271-1.204 3.94-2.982 5.089-5.28.548-1.095.575-2.244.219-3.393Zm-34.966 2.107c.821-.958 1.861-1.56 3.01-1.997.383-.137.821-.165 1.094.246.274.41.164.848-.137 1.176-.93.985-2.161 1.396-3.447 1.833-.301-.136-.711-.218-.848-.465-.082-.137.137-.574.328-.793Zm-19.754-5.39c3.092-6.129 6.977-11.71 11.874-16.526 1.916-1.888 3.913-3.693 6.375-4.924.164-.083.301-.192.465-.22.274-.027.684-.109.821.028.192.164.301.602.219.848-.246.848-.52 1.724-.93 2.517-2.107 4.241-4.98 7.935-8.236 11.355-3.584 3.803-7.66 7.031-11.819 10.178-.082.054-.164.082-.438.246.629-1.286 1.122-2.408 1.669-3.502ZM77.284 40.61c-6.84 9.384-14.72 17.729-24.186 24.514-3.557 2.572-7.25 4.897-11.382 6.43-2.216.82-4.487 1.56-6.922 1.45-.93-.055-1.888-.164-2.763-.465-1.697-.575-2.408-2.025-2.08-3.913.246-1.505.876-2.818 1.67-4.076 1.97-3.147 4.65-5.637 7.55-7.935 5.39-4.268 11.41-7.442 17.675-10.15 6.348-2.764 12.941-4.87 19.7-6.403.3-.082.601-.082 1.121-.164-.191.356-.246.547-.383.711Zm103.284-6.895c-.136 1.012-.629 1.86-1.258 2.626a11.58 11.58 0 0 1-3.776 3.037c-.438.246-.93.329-1.423.493-1.012-.082-1.422-.465-1.258-1.396.109-.738.301-1.505.657-2.134.985-1.778 2.407-3.173 4.104-4.268a2 2 0 0 1 .328-.191c.657-.301 1.368-.712 2.052-.22.711.493.657 1.287.574 2.053Z"/></svg>