<svg xmlns="http://www.w3.org/2000/svg" fill="none" viewBox="0 0 210 80"><path fill="#262A38" d="M119.572 24.807V54.85h-6.105v-3.066a6.465 6.465 0 0 1-2.672 2.508 8.825 8.825 0 0 1-3.908.915 8.096 8.096 0 0 1-4.747-1.394 9.183 9.183 0 0 1-3.27-3.819 13.156 13.156 0 0 1-1.157-5.653 12.847 12.847 0 0 1 1.157-5.608 9.166 9.166 0 0 1 3.231-3.741 8.55 8.55 0 0 1 4.786-1.316c1.314 0 2.633.279 3.79.876a6.571 6.571 0 0 1 2.673 2.425V26.831l6.227-2.03-.005.006Zm-7.34 24.112c.799-1.036 1.235-2.547 1.235-4.498 0-1.952-.397-3.423-1.235-4.455a4.389 4.389 0 0 0-3.511-1.594c-1.358-.079-2.673.518-3.55 1.55-.839 1.036-1.275 2.508-1.275 4.415s.441 3.462 1.275 4.538c.838 1.076 2.196 1.673 3.55 1.633 1.515 0 2.711-.557 3.511-1.594v.005Zm29.166-13.965a8.626 8.626 0 0 1 3.231 3.74 12.87 12.87 0 0 1 1.157 5.61 13.063 13.063 0 0 1-1.157 5.652 9.186 9.186 0 0 1-3.271 3.819 8.367 8.367 0 0 1-4.746 1.355 7.864 7.864 0 0 1-3.908-.915 6.138 6.138 0 0 1-2.633-2.508v3.105h-6.145V26.836l6.184-2.03v12.255a6.144 6.144 0 0 1 2.633-2.508 7.732 7.732 0 0 1 3.869-.915c1.677-.039 3.354.44 4.786 1.316Zm-3.031 13.926c.839-1.076 1.236-2.587 1.236-4.577 0-1.99-.397-3.384-1.236-4.415-.838-1.037-1.996-1.55-3.511-1.55-1.358-.079-2.672.518-3.55 1.589-.838 1.075-1.235 2.547-1.235 4.454 0 1.907.397 3.462 1.235 4.5a4.163 4.163 0 0 0 3.55 1.588 4.16 4.16 0 0 0 3.511-1.589Zm15.961-10.107v8.039c0 1.154.319 1.99.878 2.508.637.558 1.476.836 2.353.797.677 0 1.398-.117 2.035-.278v4.772c-1.157.396-2.353.597-3.55.558-2.555 0-4.506-.714-5.864-2.147-1.359-1.433-2.035-3.462-2.035-6.088V29.3l6.183-1.99v6.845h5.266v4.617h-5.266Z"/><path fill="#FF694A" d="M86.258 19.829a6.1 6.1 0 0 1 1.873 3.74c0 .597-.162.993-.52 1.751-.358.758-4.785 8.396-6.104 10.504a7.974 7.974 0 0 0 0 8.274c1.319 2.107 5.746 9.79 6.104 10.543.358.758.52 1.114.52 1.711-.162 1.433-.8 2.743-1.834 3.702-.995 1.036-2.314 1.711-3.712 1.829-.598 0-.995-.162-1.716-.519-.716-.357-8.537-4.655-10.655-5.97-.162-.079-.319-.2-.52-.28L59.24 48.95c.24 1.99 1.118 3.897 2.555 5.29.28.28.559.519.877.759-.24.117-.52.24-.76.396-2.113 1.315-9.816 5.73-10.572 6.088-.76.357-1.118.518-1.755.518-1.437-.161-2.75-.797-3.712-1.829A6.1 6.1 0 0 1 44 56.431c.04-.597.201-1.194.52-1.712.358-.758 4.785-8.435 6.105-10.543a7.872 7.872 0 0 0 1.157-4.137 7.872 7.872 0 0 0-1.157-4.137c-1.32-2.186-5.786-9.863-6.105-10.62A3.729 3.729 0 0 1 44 23.57a6.115 6.115 0 0 1 1.834-3.741A6.145 6.145 0 0 1 49.585 18c.598.04 1.197.2 1.755.518.638.28 6.267 3.54 9.258 5.291l.677.396c.24.162.441.28.598.357l.319.2 10.655 6.29a8.754 8.754 0 0 0-3.393-6.05c.24-.117.52-.24.76-.396 2.113-1.315 9.817-5.77 10.572-6.088.52-.317 1.118-.479 1.755-.518a6.148 6.148 0 0 1 3.712 1.829h.005ZM66.625 42.826l2.275-2.269a.77.77 0 0 0 0-1.114l-2.275-2.27a.775.775 0 0 0-1.118 0l-2.276 2.27a.77.77 0 0 0 0 1.114l2.276 2.27c.28.278.799.278 1.118 0Z"/><path fill="#262A38" d="m165.155 52.944-.701 1.97h-.26l-.701-1.965v1.965h-.452v-2.69h.564l.721 1.996.721-1.995h.564v2.69h-.451v-1.971h-.005Zm-2.516-.308h-.74v2.283h-.456v-2.283h-.741v-.406h1.937v.406Z"/></svg>