<svg xmlns="http://www.w3.org/2000/svg" fill="none" viewBox="0 0 210 80"><path fill="#293330" d="M79.912 31.686V25h26.7v10.928h-7.498v-4.332h-7.243v5.098h6.213v6.169H91.87v5.53h7.373V43.51h7.497v11.485H79.912v-6.686h3.172V31.686h-3.172Zm28.412 0V25h26.7v10.928h-7.498v-4.332h-7.244v5.098h6.214v6.169h-6.214v5.53h7.373V43.51h7.498v11.485h-26.829v-6.686h3.172V31.686h-3.172Zm44.054 6.427c1.24 0 1.713-.084 1.972-.343.388-.428.473-1.07.473-2.913 0-1.842-.085-2.484-.473-2.917-.259-.259-.727-.344-1.972-.344h-3.684v6.512h3.684v.005Zm9.688 4.715c-1.16 1.2-2.957 1.628-5.615 1.628h-7.757v3.858h3.386V55h-15.344v-6.686h3.171V31.686h-3.171V25h19.715c2.653 0 4.455.428 5.615 1.628 1.369 1.414 1.927 2.912 1.927 8.1 0 5.187-.558 6.686-1.927 8.1ZM78.324 31.686V25h-15.13v6.601h2.356l-4.67 5.442h-1.927V31.6h2.654V25h-3.59v2.474h-1.941V25h-3.55v2.474h-1.942V25H47v6.686h3.171v16.628H47V55h14.612v-6.601h-2.654v-5.442h1.927l4.67 5.442H63.2V55h15.13v-6.686h-2.356L68.855 40l7.12-8.314h2.354"/></svg>