<svg xmlns="http://www.w3.org/2000/svg" fill="none" viewBox="0 0 210 80"><path fill="#F3C55B" d="M131.253 29.77c-.227.88-1.187 1.4-2.08 1.106l-23.965-7.424-23.965 7.424c-.894.294-1.787-.226-2.08-1.106v-.08c-.293-.88.227-1.84 1.12-2.133l24.405-7.477c.227-.08.373-.08.52-.08.147 0 .373 0 .52.08l24.405 7.57c.893.294 1.413 1.254 1.106 2.134l.014-.014Z"/><path fill="#04699B" d="M162.029 42.792h-4.452v16.315c0 .293-.293.586-.599.586h-3.706c-.293 0-.6-.293-.6-.586V42.792h-4.451c-.294 0-.6-.293-.6-.586V38.9c0-.293.293-.586.6-.586h13.795c.293 0 .6.226.6.586v3.306c0 .293-.293.586-.6.586h.013Zm-24.325 17.195h-.52a.634.634 0 0 1-.373-.147l-12.236-12.13v11.397c0 .293-.293.586-.6.586h-3.705c-.294 0-.6-.293-.6-.586v-20.58c0-.293.293-.587.6-.587h.746l12.396 11.757V38.9c0-.293.293-.586.6-.586h3.705c.294 0 .6.293.6.586v20.58c0 .293-.293.52-.6.52l-.013-.013Zm-33.909-.294c-.293 0-.6-.293-.6-.586V38.9c0-.293.293-.586.6-.586h3.706c.293 0 .599.293.599.586v20.287c0 .293-.293.586-.599.586h-3.706v-.08ZM82.202 37.941a11.06 11.06 0 0 0-11.196 10.956c-.08 6.091 4.891 11.09 11.05 11.09h.226c6.078-.08 10.97-4.999 10.97-11.023 0-6.025-4.892-11.023-11.05-11.023Zm-.067 17.194c-3.425 0-6.238-2.72-6.238-6.091 0-3.373 2.746-6.185 6.158-6.185 3.413 0 6.238 2.799 6.238 6.185 0 3.385-2.745 6.09-6.158 6.09ZM56.091 38.314H48.6c-.307 0-.6.293-.6.586v20.207c0 .293.293.586.6.586h3.625c.307 0 .6-.293.6-.586v-7.198h3.266c.146 0 .293 0 .44.067 3.785-.147 6.824-3.306 6.677-7.051-.146-3.745-3.332-6.758-7.117-6.611Zm-.307 9.183h-2.959v-4.705h2.96c1.345-.08 2.452.96 2.452 2.346 0 1.386-1.107 2.36-2.453 2.36Z"/></svg>