<svg xmlns="http://www.w3.org/2000/svg" fill="none" viewBox="0 0 210 80"><path fill="#4C49E4" d="M47.879 22.26c2.474-4.347 8.648-4.347 11.122 0L76.008 52.17c2.475 4.347-.615 9.776-5.558 9.776H36.43c-4.943 0-8.033-5.43-5.558-9.776L47.879 22.26Z"/><path fill="#3376E7" d="M52.75 29.606c2.321-4.096 8.136-4.096 10.456 0l13.123 23.13c2.32 4.096-.584 9.218-5.231 9.218H44.859c-4.647 0-7.551-5.122-5.23-9.218l13.122-23.13Z"/><path fill="#26F3A8" d="M59.956 36.863c1.724-3.026 6.026-3.026 7.75 0l10.411 18.283c1.725 3.026-.43 6.801-3.872 6.801H53.424c-3.443 0-5.597-3.782-3.872-6.801l10.41-18.283h-.006Z"/><path fill="#000" d="M92.83 52.262c6.218 0 8.981-2.635 8.981-6.468 0-3.834-2.853-5.674-6.982-6.5l-3.012-.616c-2.16-.462-2.86-1.257-2.86-2.36 0-1.32 1.174-2.3 3.84-2.3 2.86 0 4.097 1.378 4.219 3.032h4.41c-.032-4.013-3.584-6.802-8.571-6.802s-8.379 2.455-8.379 6.07c0 3.892 2.731 5.456 6.571 6.251l3.238.673c2.096.43 3.045 1.193 3.045 2.635 0 1.622-1.334 2.635-4.507 2.635-2.73 0-4.475-1.193-4.667-3.616h-4.41c.224 4.443 3.301 7.36 9.077 7.36l.006.006Zm10.737 6.744h4.25v-8.738h.128c.827 1.045 2.193 1.994 4.571 1.994 4.282 0 6.757-3.494 6.757-8.212s-2.603-8.276-6.757-8.276c-2.378 0-3.744.949-4.571 1.994h-.128l-.442-1.718h-3.808v22.956Zm7.744-10.36c-2.699 0-3.648-2.115-3.648-4.596 0-2.48 1.013-4.66 3.648-4.66 2.635 0 3.648 2.147 3.648 4.66 0 2.513-.924 4.596-3.648 4.596Zm9.661 3.34h4.032v-7.814c0-2.879 1.462-4.565 4-4.565h1.494v-3.801h-1.205c-2.097 0-3.552 1.167-4.283 2.667h-.128l-.314-2.423h-3.583v15.936h-.013ZM142.37 36.05v9.103c0 2.025-.891 3.282-3.045 3.282s-3.077-1.257-3.077-3.282V36.05h-4.25v9.75c0 3.436 2.282 6.468 7.301 6.468h.032c4.981 0 7.302-3.032 7.302-6.468v-9.75h-4.263Zm13.949 16.212c4.667 0 7.078-2.699 7.334-6.282h-4.282c-.192 1.596-1.301 2.666-3.141 2.666-2.411 0-3.616-1.622-3.616-4.628 0-3.007 1.205-4.629 3.616-4.629 1.807 0 2.955 1.103 3.109 2.731h4.282c-.224-3.557-2.635-6.346-7.398-6.346-5.173 0-7.968 3.404-7.968 8.244s2.891 8.244 8.058 8.244h.006Zm16.072 0c4.25 0 6.949-2.36 7.391-5.244h-4.16c-.315.98-1.334 1.84-3.238 1.84-2.442 0-3.59-1.532-3.615-3.712H180V43.55c0-4.353-2.763-7.782-7.68-7.782-5.301 0-7.904 3.737-7.904 8.276 0 4.538 2.859 8.212 7.968 8.212l.007.006Zm-3.59-9.84c.096-1.808 1.141-3.218 3.526-3.218 2.218 0 3.269 1.41 3.333 3.218h-6.859Z"/></svg>