<svg xmlns="http://www.w3.org/2000/svg" fill="none" viewBox="0 0 210 80"><path fill="#F4F495" d="M50.997 42.493h6.573l-3.287-6.488-3.286 6.488Z"/><path fill="#7050A1" d="m66.778 52.042 4.647 4.788L54.283 23 37.142 56.83l4.59-4.788 12.551-24.707 12.495 24.707Z"/><path fill="#C36CC4" d="M54.283 27.335 41.732 52.042l4.618-4.76 7.933-15.612 7.877 15.612 4.618 4.76-12.495-24.707Z"/><path fill="#FFA896" d="m46.35 47.282 4.647-4.789 3.286-6.488 3.287 6.488 4.59 4.789-7.877-15.612-7.933 15.612Z"/><path fill="#E7B9E2" d="m50.997 42.493-4.647 4.789-4.618 4.76-4.59 4.788 13.855-14.337Z"/><path fill="#653A8E" d="M54.283 23 37.142 56.83l4.59-4.788 12.551-24.707V23Z"/><path fill="#B04EAD" d="M54.283 27.335 41.732 52.042l4.618-4.76 7.933-15.612v-4.335Z"/><path fill="#E77985" d="M54.283 31.67 46.35 47.282l4.647-4.789 3.286-6.488V31.67Z"/><path fill="#3D3D5E" d="M54.283 23H20l17.142 33.83L54.283 23l17.142 33.83L88.567 23H54.283Z"/><path fill="#D8D2C0" d="m111.177 45.894 4.703-14.224c.085-.368.255-.538.652-.538.396 0 .708.255.708.708 0 .085-.057.227-.057.312l-5.355 16.036c-.085.255-.255.482-.708.482-.397 0-.567-.17-.708-.482l-4.817-14.28-4.817 14.28c-.085.312-.311.482-.708.482-.397 0-.567-.227-.708-.482l-5.355-16.036c-.057-.085-.057-.227-.057-.312a.7.7 0 0 1 .708-.708c.397 0 .567.226.652.538l4.703 14.224 4.817-14.224c.085-.368.368-.538.708-.538.34 0 .567.226.709.538l4.93 14.224Zm12.041 2.833a.762.762 0 0 1-.765-.765V31.925c0-.453.369-.765.765-.765.397 0 .765.369.765.765v16.009a.786.786 0 0 1-.765.793Zm12.354 0a.761.761 0 0 1-.765-.765V32.718h-5.525a.702.702 0 0 1-.709-.708c0-.396.312-.708.709-.708h12.665c.396 0 .708.311.708.708a.702.702 0 0 1-.708.709h-5.525v15.186c-.085.482-.397.822-.85.822Zm11.475-16.773c0-.454.368-.765.765-.765.396 0 .765.368.765.764v7.112h10.398v-7.14c0-.453.368-.765.765-.765.453 0 .765.369.765.765v16.009a.761.761 0 0 1-.765.765.762.762 0 0 1-.765-.765v-7.452h-10.398v7.452a.762.762 0 0 1-.765.765c-.397 0-.765-.369-.765-.765v-15.98Zm21.363 16.773a.762.762 0 0 1-.765-.765V31.925c0-.453.368-.765.765-.765.453 0 .765.369.765.765v16.009c0 .453-.312.793-.765.793Zm20.825 0c-.255 0-.453-.142-.567-.368L177.76 33.965v13.997a.702.702 0 0 1-.708.708c-.454 0-.765-.368-.765-.708V31.868c0-.453.311-.764.765-.764.255 0 .453.141.566.368l10.909 14.393V31.868c0-.453.311-.764.765-.764.453 0 .708.368.708.765v16.093c-.057.425-.283.765-.765.765Z"/></svg>