<svg xmlns="http://www.w3.org/2000/svg" fill="none" viewBox="0 0 210 80"><path fill="#3BBFAD" d="M185.932 27.152h-12.879c-.88 0-1.534.693-1.534 1.559v1.213c0 .877.644 1.516 1.534 1.516h4.268V51.3c0 .877.708 1.516 1.533 1.516h1.351c.815 0 1.534-.66 1.534-1.516V31.44h4.193c.911 0 1.533-.66 1.533-1.516V28.71c0-.877-.611-1.56-1.533-1.56Zm-18.037 0h-1.351c-.848 0-1.534.703-1.534 1.559v9.302h-7.389v-9.291c0-.856-.686-1.56-1.533-1.56h-1.351a1.565 1.565 0 0 0-1.534 1.56v22.6c0 .877.708 1.516 1.534 1.516h1.351c.804 0 1.533-.661 1.533-1.517v-9.074h7.389V51.3c0 .877.708 1.516 1.534 1.516h1.351c.815 0 1.533-.66 1.533-1.516V28.71c0-.855-.686-1.549-1.533-1.56Zm-20.107 10.872h-5.533c-.805 0-1.352.628-1.352 1.375v1.321c0 .769.537 1.375 1.352 1.375h3.656v3.022c0 2.111-1.533 3.627-3.656 3.627h-.858c-2.306 0-3.689-1.667-3.689-3.768v-9.974c0-2.111 1.394-3.735 3.689-3.735h.858c1.662 0 2.713.93 3.42 2.079.537.964 1.587 1.32 2.606.769l.44-.25c.879-.487 1.179-1.353.858-2.22-1.309-3.053-4.15-4.645-7.271-4.645h-.986c-4.472 0-7.957 3.13-7.957 7.775v10.46c0 4.646 3.496 7.765 7.957 7.765h.943c4.644 0 7.925-3.13 7.925-7.764v-4.938c.011-1.245-1.137-2.285-2.402-2.285v.01ZM128.7 27.152h-1.426c-.88 0-1.63.628-1.63 1.559v2.003c0 .932.75 1.516 1.63 1.516h1.426c.879 0 1.63-.584 1.63-1.516v-2.003c0-.931-.751-1.56-1.63-1.56Zm-.022 7.536h-1.351a1.564 1.564 0 0 0-1.533 1.56V51.31c0 .877.708 1.516 1.533 1.516h1.351c.805 0 1.534-.66 1.534-1.516V36.248c0-.856-.686-1.549-1.534-1.56Zm-6.691 13.829h-.879c-2.274 0-3.979-1.841-3.979-4.202V28.668c0-.877-.643-1.516-1.533-1.516h-1.352c-.857 0-1.533.66-1.533 1.516v16.091c0 4.992 3.389 8.209 8 8.209h1.212c.879 0 1.587-.629 1.587-1.376v-1.7c.01-.747-.665-1.375-1.545-1.375h.022ZM100.969 27c-4.569 0-7.614 3.357-7.614 7.656v16.655c0 .877.675 1.516 1.533 1.516h1.394c.858 0 1.48-.66 1.48-1.516V35.002c0-2.035 1.427-3.606 3.421-3.606h.44c1.994 0 3.388 1.56 3.388 3.606v16.309c0 .877.676 1.516 1.534 1.516h1.351c.858 0 1.534-.66 1.534-1.516V34.656c.01-4.3-3.078-7.656-7.582-7.656h-.879ZM88.047 42.106c1.265 0 2.413-1.04 2.413-2.285v-5.057C90.438 30.13 87.145 27 82.503 27h-.944c-4.472 0-7.957 3.13-7.957 7.775v10.46c0 4.646 3.485 7.765 7.957 7.765h.987c3.12 0 5.972-1.592 7.291-4.635.344-.877.022-1.732-.857-2.23l-.44-.239c-1.019-.552-2.07-.216-2.606.77-.708 1.147-1.77 2.078-3.42 2.078h-.848c-2.316 0-3.689-1.624-3.689-3.736v-2.902h10.07Zm-10.091-4.082v-3.022c0-2.122 1.394-3.768 3.689-3.768h.858c2.134 0 3.656 1.516 3.656 3.628v3.162h-8.203Zm-9.737 4.082c1.254 0 2.413-1.04 2.413-2.285v-5.057c0-4.635-3.314-7.764-7.957-7.764h-.944c-4.472 0-7.968 3.13-7.968 7.775v10.46c0 4.646 3.496 7.765 7.957 7.765h.998c3.12 0 5.962-1.592 7.28-4.635.344-.877.033-1.732-.857-2.23l-.429-.239c-1.019-.552-2.07-.216-2.606.77-.708 1.147-1.77 2.078-3.42 2.078h-.858c-2.306 0-3.69-1.624-3.69-3.736v-2.902h10.08Zm-10.091-4.082v-3.022c0-2.122 1.394-3.768 3.689-3.768h.858c2.123 0 3.656 1.516 3.656 3.628v3.15l-8.214.012h.01ZM51.082 27h-1.211c-4.622 0-8 3.216-8 8.22v16.09c0 .878.675 1.517 1.523 1.517h1.35c.89 0 1.534-.66 1.534-1.516V35.652c0-2.36 1.695-4.201 3.968-4.201h.89c.89 0 1.555-.628 1.555-1.376v-1.7c-.01-.747-.719-1.375-1.609-1.375ZM36.434 38.024h-5.512c-.815 0-1.351.628-1.351 1.375v1.321c0 .769.536 1.375 1.351 1.375h3.657v3.022c0 2.111-1.534 3.627-3.657 3.627h-.858c-2.305 0-3.689-1.667-3.689-3.768v-9.974c0-2.111 1.394-3.735 3.69-3.735h.857c1.662 0 2.713.93 3.42 2.079.537.964 1.588 1.32 2.607.769l.44-.25c.879-.487 1.179-1.353.857-2.22C36.916 28.593 34.064 27 30.954 27h-.986C25.496 27 22 30.13 22 34.775v10.46C22 49.882 25.496 53 29.957 53h.944c4.643 0 7.935-3.13 7.935-7.764v-4.938c.01-1.245-1.137-2.285-2.402-2.285v.01Z"/></svg>