<svg xmlns="http://www.w3.org/2000/svg" fill="none" viewBox="0 0 210 80"><path fill="#8C8AFF" d="M143.521 31.08v14.689h8.21v3.046h-11.553V31.08h3.343Zm19.466 17.735v-1.781h-.361c-.659 1.059-1.769 2.13-4.002 2.13-3.137 0-5.77-2.788-5.77-6.635s2.633-6.635 5.77-6.635c2.233 0 3.343 1.059 4.002 2.13h.361v-1.769h3.137v12.56h-3.137Zm-.052-6.286c0-2.375-1.471-3.795-3.446-3.795s-3.434 1.368-3.434 3.795c0 2.427 1.523 3.795 3.434 3.795 1.975 0 3.446-1.42 3.446-3.808v.013Zm8.714-11.45v6.932h.309c.659-1.059 1.769-2.13 4.002-2.13 3.137 0 5.77 2.788 5.77 6.635s-2.646 6.635-5.783 6.635c-2.233 0-3.343-1.059-4.002-2.13h-.348v1.782h-3.137V31.079h3.189Zm0 11.45c0 2.375 1.471 3.795 3.446 3.795s3.434-1.368 3.434-3.795c0-2.427-1.523-3.795-3.434-3.795-1.91 0-3.446 1.42-3.446 3.795Zm16.819-6.635c2.943 0 5.009 1.343 6.455 2.866l-2.156 1.897c-1.446-1.665-2.892-2.181-4.157-2.181-1.265 0-1.846.516-1.846 1.187 0 .672.633 1.033 1.82 1.24l1.524.258c2.736.451 4.892 1.394 4.892 3.872 0 2.479-2.233 4.118-5.318 4.118-3.24 0-5.628-1.652-6.893-3.653l2.504-1.55c1.136 2.027 2.814 2.608 4.324 2.608 1.51 0 2.285-.58 2.285-1.342 0-.762-.658-1.11-1.923-1.317l-1.511-.245c-2.943-.478-4.789-1.575-4.789-3.898 0-2.324 1.898-3.873 4.789-3.873v.013Z"/><path fill="#000" d="m67.116 31.08 3.743 14.224h.31l3.744-14.225h5.77v17.736h-3.24V34.63h-.31l-3.666 14.186h-4.918L64.883 34.63h-.31v14.186h-3.24V31.08h5.783Zm25.3 17.735v-1.781h-.348c-.658 1.059-1.769 2.13-4.002 2.13-3.136 0-5.77-2.788-5.77-6.635s2.634-6.635 5.77-6.635c2.233 0 3.344 1.059 4.002 2.13h.349v-1.769h3.136v12.56h-3.136Zm-.051-6.286c0-2.375-1.472-3.795-3.434-3.795-1.962 0-3.446 1.368-3.446 3.795 0 2.427 1.523 3.795 3.446 3.795 1.975 0 3.434-1.42 3.434-3.808v.013Zm6.415-6.287v-3.898h3.189v3.898h3.446v2.686h-3.446v6.428c0 .516.258.761.71.761h2.168v2.686h-3.588c-1.42 0-2.479-1.007-2.479-2.427v-7.448h-1.807v-2.685h1.807Zm7.913-3.898h3.189v3.898h3.446v2.686h-3.446v6.428c0 .516.258.761.71.761h2.168v2.686h-3.588c-1.42 0-2.479-1.007-2.479-2.427V32.344Zm13.812 3.55c3.64 0 6.106 2.556 6.106 6.338v1.188h-9.139c.129 1.716 1.316 3.007 3.137 3.007 1.82 0 2.71-.98 3.136-1.871l2.608 1.51c-.865 1.316-2.337 3.085-5.693 3.085-3.743 0-6.454-2.84-6.454-6.738 0-3.899 2.607-6.532 6.312-6.532l-.013.013Zm2.853 5.396c-.168-1.64-1.239-2.66-2.891-2.66-1.795 0-2.789 1.06-2.982 2.66h5.873Zm8.339-3.227c.478-1.395 1.549-1.872 3.137-1.872h1.226v2.788h-1.885c-1.626 0-2.788.865-2.788 2.633v7.203h-3.188V36.243h3.136v1.82h.362ZM42.99 30.872c.387 0 .762-.116 1.071-.322a1.86 1.86 0 0 0 .71-.865c.142-.349.181-.749.117-1.123a1.967 1.967 0 0 0-.53-.994 1.968 1.968 0 0 0-.994-.53 1.872 1.872 0 0 0-1.123.117 1.94 1.94 0 0 0-.865.71 2.003 2.003 0 0 0-.322 1.071c0 .517.206 1.007.568 1.369.361.361.852.567 1.368.567ZM25.163 30.872c.388 0 .762-.116 1.072-.322a1.86 1.86 0 0 0 .71-.865c.142-.349.18-.749.116-1.123a1.967 1.967 0 0 0-.53-.994 1.967 1.967 0 0 0-.993-.53 1.872 1.872 0 0 0-1.123.117 1.94 1.94 0 0 0-.865.71 2.003 2.003 0 0 0-.323 1.071c0 .517.207 1.007.568 1.369.361.361.852.567 1.368.567ZM42.99 40.722c-.381 0-.754.112-1.071.322-.32.209-.568.511-.71.865-.142.349-.181.75-.117 1.123.078.375.259.723.53.994.27.271.62.452.994.53.377.077.77.037 1.123-.117.348-.142.658-.4.864-.71a1.936 1.936 0 0 0-1.613-3.008ZM34.07 39.108c.381 0 .754-.112 1.072-.322.32-.209.567-.511.71-.865.142-.349.18-.749.116-1.123a1.967 1.967 0 0 0-.53-.994 1.967 1.967 0 0 0-.993-.53 1.872 1.872 0 0 0-1.123.117 1.94 1.94 0 0 0-.865.71 1.936 1.936 0 0 0 1.614 3.008Zm0 9.837c-.38 0-.754.111-1.071.322a1.86 1.86 0 0 0-.71.865 2.08 2.08 0 0 0-.116 1.123c.064.374.258.723.529.994s.62.452.994.53c.377.077.77.036 1.123-.117.348-.142.658-.4.865-.71a1.936 1.936 0 0 0-1.614-3.008Zm-17.142 0c-.381 0-.754.111-1.072.322-.32.209-.567.51-.71.865a2.08 2.08 0 0 0-.116 1.123c.078.374.258.723.53.994.27.271.62.452.993.53.378.077.77.036 1.123-.117.362-.155.659-.4.865-.71.208-.319.32-.69.323-1.071a1.937 1.937 0 0 0-1.936-1.937Zm34.285 0c-.381 0-.754.111-1.072.322-.32.209-.567.51-.71.865-.142.349-.18.749-.116 1.123.078.374.258.723.53.994.27.271.619.452.993.53.378.077.77.036 1.123-.117.362-.155.659-.4.865-.71a1.936 1.936 0 0 0-1.614-3.008ZM25.163 40.722c-.38 0-.753.112-1.071.322-.32.209-.568.511-.71.865a2.08 2.08 0 0 0-.116 1.123c.077.375.258.723.53.994.27.271.619.452.993.53.377.077.77.037 1.123-.117.349-.142.658-.4.865-.71.207-.319.32-.69.323-1.07a1.936 1.936 0 0 0-1.937-1.937Z"/><path fill="#000" d="M44.603 31.299a2.577 2.577 0 0 1-1.097.451c-.387.078-.8.065-1.187-.025a3.024 3.024 0 0 1-1.072-.504 2.89 2.89 0 0 1-.774-.903l-4.854 4.479c.388.258.697.594.93.994l4.027-3.718.297.207-5.783 14.238-.361-.065V39.96a2.729 2.729 0 0 1-1.369 0v6.454L33 46.48l-5.77-14.2.297-.206 4.027 3.718c.225-.402.544-.743.93-.994l-4.854-4.48a2.816 2.816 0 0 1-1.846 1.407 2.83 2.83 0 0 1-1.188.026 3.14 3.14 0 0 1-1.097-.451L17.25 48.067c.427.051.84.193 1.214.426.365.231.67.545.89.916l4.312-4.311a2.979 2.979 0 0 1-.955-.968l-3.434 3.433-.31-.193 5.138-13.71.361.065v6.184a2.729 2.729 0 0 1 1.369 0v-6.532l.361-.078 5.783 14.226-.297.206-4.014-3.718a2.98 2.98 0 0 1-.917 1.007l4.84 4.467a2.87 2.87 0 0 1 1.046-1.072 2.856 2.856 0 0 1 1.446-.387c.504 0 1.007.142 1.446.387.439.258.8.633 1.045 1.072l4.841-4.467a2.851 2.851 0 0 1-.916-1.007l-4.015 3.705-.297-.206 5.783-14.225.362.077v6.532a2.729 2.729 0 0 1 1.368 0v-6.184l.361-.064L49.2 47.357l-.31.193-3.434-3.433c-.232.4-.567.723-.955.968l4.312 4.311c.225-.371.535-.685.903-.916a2.91 2.91 0 0 1 1.214-.426l-6.287-16.768-.039.013Z"/></svg>