<svg xmlns="http://www.w3.org/2000/svg" fill="none" viewBox="0 0 210 80"><path fill="#000" d="M29 27.647h15.612v3.145H32.367v7.746h11.407v3.144H32.367v10.682H29V27.647Zm29.92 0h3.367V49.22h11.407v3.144H58.92V27.647Zm39.37 25.341c-1.9 0-3.636-.323-5.232-.982-1.596-.67-2.96-1.596-4.101-2.763a13.1 13.1 0 0 1-2.668-4.116c-.63-1.584-.944-3.295-.944-5.133s.314-3.549.944-5.133a12.968 12.968 0 0 1 2.668-4.115c1.141-1.168 2.516-2.07 4.1-2.729C94.655 27.347 96.39 27 98.29 27s3.635.335 5.231 1.017c1.597.648 2.948 1.561 4.067 2.729a12.33 12.33 0 0 1 2.668 4.115c.652 1.584.979 3.295.979 5.133s-.327 3.55-.979 5.133a12.233 12.233 0 0 1-2.668 4.116c-1.119 1.167-2.482 2.08-4.067 2.763-1.596.647-3.332.982-5.23.982Zm0-3.144c1.42 0 2.714-.254 3.856-.763a9.416 9.416 0 0 0 2.947-2.127 9.292 9.292 0 0 0 1.9-3.11c.442-1.214.664-2.486.664-3.838 0-1.353-.222-2.613-.664-3.804a9.167 9.167 0 0 0-1.9-3.144 8.971 8.971 0 0 0-2.947-2.093c-1.142-.532-2.435-.797-3.857-.797-1.421 0-2.715.265-3.856.797a8.972 8.972 0 0 0-2.948 2.093 9.225 9.225 0 0 0-1.9 3.144 10.795 10.795 0 0 0-.663 3.804c0 1.352.221 2.624.664 3.838a9.22 9.22 0 0 0 1.899 3.11 9.417 9.417 0 0 0 2.948 2.127c1.141.509 2.435.763 3.856.763Zm44.856-16.856a6.976 6.976 0 0 0-2.668-2.092 8.019 8.019 0 0 0-3.332-.728c-1.399 0-2.68.265-3.822.797a8.835 8.835 0 0 0-2.913 2.128c-.792.913-1.41 1.976-1.864 3.213a11.29 11.29 0 0 0-.664 3.908c0 1.306.21 2.532.629 3.7a9.13 9.13 0 0 0 1.829 3.074 8.598 8.598 0 0 0 2.913 2.093c1.142.509 2.447.763 3.892.763 1.444 0 2.679-.29 3.751-.867a8.08 8.08 0 0 0 2.738-2.44l2.843 2.128c-.186.254-.513.624-.979 1.121-.466.463-1.083.948-1.864 1.434-.769.462-1.712.867-2.808 1.225-1.072.37-2.33.555-3.751.555-1.969 0-3.74-.37-5.337-1.121a12.877 12.877 0 0 1-4.031-2.937 13.036 13.036 0 0 1-2.528-4.08 13.02 13.02 0 0 1-.874-4.648c0-1.908.315-3.665.944-5.272.629-1.63 1.514-3.029 2.633-4.185 1.142-1.19 2.517-2.104 4.101-2.763 1.596-.647 3.344-.982 5.266-.982 1.643 0 3.239.312 4.812.947 1.597.625 2.89 1.596 3.892 2.902l-2.808 2.127Zm17.174-5.34h3.367V38.33h.279l10.987-10.683h4.707l-12 11.41 12.804 13.296h-4.916l-11.582-12.359h-.279v12.359h-3.367V27.647Z"/></svg>