<svg xmlns="http://www.w3.org/2000/svg" fill="none" viewBox="0 0 210 80"><path fill="#77787B" d="m20.831 46.392 2.306 1.306c-.42.45-.76.998-1 1.611a6.603 6.603 0 0 0-.433 2.123L17 48.751v-4.529l21.497-13.231 10.134 6.263-1.896 1.088-1.916 1.07-6.337-3.91-17.65 10.89Z"/><path fill="#77787B" fill-rule="evenodd" d="m54.802 41.07-3.812 2.17 5.11 3.158-17.55 10.033-9.008-5.128a4.645 4.645 0 0 0-.585-2 3.731 3.731 0 0 0-1.235-1.335 2.955 2.955 0 0 0-1.611-.476c-.698 0-1.375.247-1.95.723-1.575 1.3-1.974 3.887-.897 5.787s3.222 2.382 4.796 1.082L38.492 61l21.404-12.179v-4.646l-5.094-3.105Zm-28.73 12.938h.068c.528-.011 1.032-.273 1.4-.73.37-.456.574-1.07.57-1.707-.005-.638-.218-1.247-.594-1.696-.375-.449-.882-.7-1.41-.7-.529 0-1.036.251-1.41.7-.376.449-.59 1.058-.594 1.696-.004.637.2 1.25.57 1.707.368.457.871.719 1.4.73Z" clip-rule="evenodd"/><path fill="#0082C3" fill-rule="evenodd" d="m38.497 23.593 9.018 5.58a4.922 4.922 0 0 0 .245 1.596c.168.507.417.97.733 1.36.316.391.693.703 1.109.919.416.215.863.33 1.315.336.453.007.902-.093 1.323-.296.42-.202.803-.503 1.127-.884.324-.381.583-.836.762-1.337a4.9 4.9 0 0 0 .279-1.588 4.847 4.847 0 0 0-.45-2.105 3.89 3.89 0 0 0-1.268-1.544 3.006 3.006 0 0 0-1.741-.56 3.014 3.014 0 0 0-1.738.575L38.497 19 17 32.237v4.517l5.113 2.94 3.827-2.352-5.099-2.935 17.656-10.814Zm14.473 5.622c0-1.317-.888-2.388-1.98-2.388-1.091 0-1.979 1.07-1.979 2.388 0 1.317.888 2.387 1.98 2.387 1.091 0 1.974-1.064 1.974-2.381v-.006h.005Z" clip-rule="evenodd"/><path fill="#0082C3" d="M54.973 31.426a6.224 6.224 0 0 0 .395-2.011l4.528 2.734v4.646L38.492 49.01l-10.237-5.828 3.822-2.352 6.566 3.535 17.456-9.95-2.14-1.324c.449-.44.795-1.017 1.014-1.664Z"/><path fill="#0082C3" fill-rule="evenodd" d="M67.598 24.645v15.29h3.412V33.75h9.033v-3.064H71.02v-2.5H80.6v-3.528l-13-.012Zm30.286 1.141c-.647-.744-1.51-1.153-2.403-1.14h-9.403a2.889 2.889 0 0 0-1.312.27c-.418.195-.8.486-1.126.859-.316.349-.566.776-.734 1.252a4.29 4.29 0 0 0-.24 1.506v7.533c-.01 1.052.355 2.058 1.004 2.758.643.76 1.508 1.182 2.408 1.176h9.403c.902.012 1.77-.412 2.413-1.176.323-.36.58-.797.752-1.285a4.417 4.417 0 0 0 .247-1.544v-7.462a4.286 4.286 0 0 0-.258-1.505 3.68 3.68 0 0 0-.751-1.242Zm-2.281 8.433c.005.47-.161.924-.449 1.247-.282.335-.663.517-1.057.517h-6.415c-.395.012-.77-.176-1.044-.517-.268-.33-.419-.77-.419-1.235v-4.116c-.005-.447.146-.877.42-1.177.282-.323.657-.493 1.047-.482h6.41c.395-.017.78.153 1.078.47.282.295.438.73.429 1.177v4.116Zm19.942 1.376a1.977 1.977 0 0 0-.471-1.065 1.409 1.409 0 0 0-.919-.481 7.289 7.289 0 0 0 1.214-1.353 2.775 2.775 0 0 0 .449-1.588v-2.587c.009-1.047-.356-2.047-1.005-2.74-.655-.755-1.531-1.165-2.437-1.141h-11.104V40h3.412v-3.893h6.649c.327 0 .585.318.78.947a10.8 10.8 0 0 1 .292 2.94h3.413a25.05 25.05 0 0 0-.273-4.399Zm-3.827-4.051a1.462 1.462 0 0 1-.485.437 1.208 1.208 0 0 1-.592.15h-6.196v-3.663h6.196c.4-.012.785.17 1.077.494.283.294.449.723.449 1.176a2.232 2.232 0 0 1-.449 1.406Zm27.181-6.899-4.007 12.597-2.852-12.596h-4.592l-2.837 12.667-4.045-12.668h-3.461l4.874 15.29h5.362l2.384-10.685 2.403 10.685h5.362l4.875-15.29h-3.466Zm12.401 0h-5.382l-6.215 15.29h3.812l1.17-2.899h7.829l1.169 2.9h3.798l-6.181-15.29Zm-5.26 9.474 2.676-6.604 2.662 6.604h-5.338Zm27.746 1.476a1.963 1.963 0 0 0-.471-1.065 1.407 1.407 0 0 0-.918-.481 7.15 7.15 0 0 0 1.214-1.353 2.767 2.767 0 0 0 .448-1.588v-2.587a4.302 4.302 0 0 0-.259-1.5 3.714 3.714 0 0 0-.745-1.24c-.655-.755-1.532-1.165-2.437-1.141h-11.109V40h3.412v-3.893h6.654c.326 0 .585.318.78.947a10.8 10.8 0 0 1 .292 2.94h3.412a24.955 24.955 0 0 0-.273-4.399Zm-3.436-4.051a1.471 1.471 0 0 1-.485.437 1.209 1.209 0 0 1-.593.15h-6.195v-3.663h6.195c.4-.012.785.17 1.078.494.282.294.448.723.448 1.176a2.225 2.225 0 0 1-.448 1.406Zm20.644-5.258a3.28 3.28 0 0 0-1.049-1.186 2.577 2.577 0 0 0-1.389-.449H176.15v15.284h12.435a2.547 2.547 0 0 0 1.394-.454c.426-.29.785-.704 1.044-1.204.668-1.164 1.009-2.558.975-3.975v-4.117c.029-1.4-.327-2.764-1.004-3.899Zm-2.296 7.874c.004.495-.176.97-.488 1.294-.336.359-.765.547-1.214.541h-7.282v-7.527h7.312c.429-.018.848.153 1.184.47.307.277.488.712.488 1.177v4.046Z" clip-rule="evenodd"/><path fill="#77787B" d="M67.598 53.902v-9.733h3.724l4.388 7.863v-7.863h2.174v9.733H74.12l-4.387-7.833v7.833h-2.135Zm24.315-5.463v1.946H86.18v1.694h6.079v2.246h-8.253v-9.732h8.253v2.24H86.18v1.606h5.733Zm12.098 5.886h-2.471V47.21h-3.364v-2.617h9.184v2.617h-3.349v7.115Zm12.377 0-3.1-9.732h2.179l2.583 8.05 1.804-8.05h2.925l1.798 8.01 2.545-8.01h2.198l-3.09 9.732h-3.388l-1.526-6.798-1.511 6.798h-3.417Zm18.782-2.475v-4.793c-.005-.67.224-1.312.633-1.764.415-.477.97-.735 1.541-.718h5.957c.57-.012 1.121.247 1.525.73.208.22.373.49.485.795.112.305.168.635.164.969v4.745c0 .67-.239 1.312-.649 1.765-.404.482-.955.746-1.525.735h-5.957c-.569.005-1.117-.258-1.526-.735a2.315 2.315 0 0 1-.48-.78 2.686 2.686 0 0 1-.168-.95Zm3.105 0h4.07a.883.883 0 0 0 .673-.33c.185-.206.287-.494.283-.794V48.11c0-.288-.098-.558-.273-.746a.887.887 0 0 0-.683-.3h-4.07a.898.898 0 0 0-.673.311 1.097 1.097 0 0 0-.258.735v2.617c0 .294.092.577.258.794a.84.84 0 0 0 .673.33Zm15.452 2.475h-2.188v-9.732h7.078c.57-.012 1.116.247 1.525.73.419.434.658 1.07.658 1.734v1.646c.005.37-.092.73-.282 1.018a5.14 5.14 0 0 1-.771.864c.449.047.814.453.883.988.141.918.195 1.853.17 2.788h-2.169a6.9 6.9 0 0 0-.185-1.876c-.127-.4-.293-.588-.488-.588h-4.221l-.01 2.428Zm0-7.262v2.352h3.934c.263 0 .512-.13.683-.37.19-.248.292-.565.287-.9 0-.294-.102-.57-.287-.765a.892.892 0 0 0-.683-.311h-3.934v-.006Zm15.331 7.262h-2.174v-9.732h2.174v3.528h1.34l3.14-3.528h3.192l-4.231 4.746 4.826 4.986h-3.363l-3.476-3.599h-1.428v3.6Zm13.902-3.116 2.174.076c-.009.27.054.541.171.776a.523.523 0 0 0 .448.318h2.979c.268.006.536-.088.755-.27a.885.885 0 0 0 .327-.677.922.922 0 0 0-.224-.588.696.696 0 0 0-.546-.259l-3.9-.164c-.6.058-1.194-.17-1.652-.641a2.468 2.468 0 0 1-.404-.79 2.766 2.766 0 0 1-.118-.916V46.54c.01-.558.244-1.076.634-1.382.443-.394.989-.6 1.54-.588h4.904c.448 0 .882.206 1.204.588.157.177.282.39.366.629.084.238.125.495.121.753v.924h-2.179a1.002 1.002 0 0 0-.214-.67.797.797 0 0 0-.658-.254h-2.979a.503.503 0 0 0-.409.236.979.979 0 0 0-.171.588c-.009.211.01.423.059.629.054.117.185.176.4.176l4.221.183c.567-.046 1.128.164 1.574.588.395.4.595 1.123.595 2.17 0 1.246-.224 2.093-.668 2.534-.593.49-1.306.722-2.023.659h-4.158c-.55.012-1.092-.194-1.54-.588a1.618 1.618 0 0 1-.458-.594c-.11-.24-.17-.508-.176-.782v-1.13h.005Z"/></svg>