<svg xmlns="http://www.w3.org/2000/svg" fill="none" viewBox="0 0 210 80"><path fill="#000" d="M77.795 42.728c1.055-.158 1.99-.418 2.803-.795 1.208-.557 2.11-1.307 2.716-2.245v.003c.603-.938.906-2.003.906-3.194 0-1.336-.347-2.49-1.04-3.462-.694-.974-1.708-1.724-3.042-2.246-1.335-.522-2.947-.786-4.838-.786H51.648a.295.295 0 0 0-.218.084.292.292 0 0 0-.083.217v19.399c0 .198.1.297.297.297h4.787c.198 0 .297-.1.297-.297v-6.494h14.68l5.541 6.522c.144.182.317.269.513.269h6.46a.32.32 0 0 0 .259-.12c.064-.084.05-.156-.04-.23l-6.344-6.919-.002-.003Zm-21.065-4.01V34.47h18.328c1.173 0 2.026.182 2.567.541.541.36.81.885.81 1.57 0 .723-.274 1.258-.822 1.61-.549.352-1.4.527-2.554.527H56.73ZM43.871 41.027a4.153 4.153 0 0 0-1.74-1.187c.312-.14.602-.303.86-.492.604-.442 1.055-.973 1.353-1.596.297-.621.444-1.322.444-2.097 0-1.099-.274-2.068-.823-2.907-.549-.839-1.45-1.506-2.702-2.003-1.253-.495-2.88-.745-4.88-.745H12.297a.33.33 0 0 0-.214.07c-.055.045-.083.121-.083.23v19.397c0 .09.028.163.083.218a.292.292 0 0 0 .218.083h24.273c1.785 0 3.304-.233 4.555-.704 1.25-.47 2.203-1.127 2.852-1.976.648-.846.971-1.858.971-3.032 0-1.336-.359-2.42-1.08-3.259ZM17.38 34.464h18.953c.884 0 1.546.135 1.987.407.442.27.661.696.661 1.273 0 .576-.224 1.005-.675 1.286-.45.28-1.11.421-1.975.421H17.38v-3.387Zm21.088 10.65h-.003c-.45.28-1.11.422-1.975.422H17.38v-3.383h19.114c.884 0 1.546.14 1.987.42.442.28.662.69.662 1.232 0 .596-.225 1.034-.677 1.311l.002-.001ZM159.552 34.169v-3.87c0-.198-.099-.297-.297-.297H124.71c-.198 0-.297.099-.297.297v3.87c0 .198.099.297.297.297h3.875c.014 6.21 4.3 4.794 4.3 11.068h-8.177c-.198 0-.295.099-.295.297v3.87c0 .198.099.297.295.297h34.548c.199 0 .298-.099.298-.297v-3.87c0-.198-.099-.297-.298-.297h-3.875c0-6.274-4.285-4.875-4.299-11.068h8.174c.199 0 .298-.099.298-.297h-.002Zm-21.821 11.365c0-6.274-4.285-4.87-4.3-11.068h3.985c.014 6.21 4.3 4.79 4.3 11.068h-3.985Zm8.832 0c0-6.274-4.286-4.85-4.3-11.068h3.976c.014 6.21 4.299 4.788 4.299 11.068h-3.975ZM197.167 34.576h-.002c-1.127-1.48-2.842-2.612-5.149-3.398-2.306-.785-5.209-1.176-8.704-1.176h-17.76c-.198 0-.297.099-.297.297v19.402c0 .198.099.297.297.297h17.76c3.514 0 6.42-.393 8.718-1.176 2.299-.786 4.008-1.922 5.137-3.408 1.125-1.487 1.69-3.308 1.69-5.454s-.565-3.905-1.69-5.384Zm-5.291 8.523h.002c-.793.83-1.911 1.437-3.351 1.828-1.442.388-3.155.582-5.137.582l-12.76.029V34.492h12.679c2.001 0 3.726.194 5.175.582 1.449.387 2.578.992 3.38 1.813.801.822 1.203 1.844 1.203 3.07 0 1.227-.396 2.31-1.189 3.14l-.002.001ZM121.778 49.618 107.911 30.19a.418.418 0 0 0-.352-.19h-7.032a.42.42 0 0 0-.352.19L86.308 49.616c-.071.09-.09.175-.055.258.039.08.118.12.244.12h6.515c.18 0 .317-.07.407-.217l2.099-3.084h17.048l2.099 3.084c.09.145.225.218.407.218h6.515c.125 0 .205-.041.244-.12.035-.084.016-.169-.055-.259l.002.002Zm-23.205-7.412 5.47-8.037h.002l5.469 8.037H98.572h.001Z"/></svg>