<svg xmlns="http://www.w3.org/2000/svg" fill="none" viewBox="0 0 210 80"><path fill="#333C66" d="M86.24 51.166V33.28h4.772l5.208 10.161 5.184-10.161h4.613v17.885h-3.864v-11.07l-4.536 8.866H94.66l-4.56-8.865v11.069h-3.864.005Zm22.057 0 6.816-17.885h4.459l6.845 17.885h-4.354l-1.243-3.447h-7.022l-1.273 3.447h-4.228Zm6.816-7.104h4.382l-2.203-6.015-2.179 6.015Zm11.87-1.839c0-5.208 4.018-9.201 9.226-9.201 3.653 0 6.739 2.02 8.217 5.13l-3.652 1.71c-.802-1.839-2.463-3.005-4.56-3.005-3.005 0-5.185 2.28-5.185 5.366 0 3.087 2.18 5.367 5.185 5.367 2.097 0 3.758-1.167 4.56-3.005l3.652 1.709c-1.478 3.11-4.56 5.13-8.217 5.13-5.208 0-9.226-3.993-9.226-9.2Zm20.295 8.943V33.28h7.569c3.394 0 5.962 2.645 5.962 6.09 0 2.463-1.243 4.407-3.111 5.367l3.576 6.428h-4.483l-3.139-5.727h-2.309v5.727h-4.07.005Zm4.07-9.485h2.957c1.478 0 2.462-.907 2.462-2.31 0-1.4-.984-2.332-2.462-2.332h-2.957v4.642Zm11.793.542c0-5.208 4.042-9.201 9.279-9.201s9.278 3.993 9.278 9.201-4.041 9.202-9.278 9.202-9.279-3.994-9.279-9.202Zm14.492 0c0-3.11-2.228-5.366-5.208-5.366-2.981 0-5.237 2.256-5.237 5.366s2.227 5.367 5.237 5.367c3.009 0 5.208-2.257 5.208-5.367Z"/><path fill="url(#a)" d="m47.615 38.982-3.365 7.09-7.147 5.927h-4.81a3.295 3.295 0 0 1-2.563-5.362l9.187-11.375a3.664 3.664 0 0 1 2.847-1.359c1.104 0 2.155.5 2.846 1.364l3 3.72.005-.005Z"/><path fill="url(#b)" d="M76.305 45.995a3.694 3.694 0 0 1 .46 3.907A3.688 3.688 0 0 1 73.44 52H58.127l-6.634-6.269-3.873-6.749 7.21-8.928A5.51 5.51 0 0 1 59.126 28a5.52 5.52 0 0 1 4.3 2.054L76.3 45.995h.005Z"/><path fill="url(#c)" d="M63.834 52h-30.61.097c2.39 0 4.656-1.08 6.158-2.942l8.136-10.076 7.253 8.981A10.85 10.85 0 0 0 63.316 52h.523-.005Z"/><defs><linearGradient id="a" x1="29.078" x2="46.343" y1="50.026" y2="37.513" gradientUnits="userSpaceOnUse"><stop stop-color="#568FFF"/><stop offset="1" stop-color="#4918BD"/></linearGradient><linearGradient id="b" x1="74.87" x2="49.319" y1="40" y2="40" gradientUnits="userSpaceOnUse"><stop stop-color="#1AB0E2"/><stop offset=".56" stop-color="#43D2ED"/><stop offset="1" stop-color="#5FE9F5"/></linearGradient><linearGradient id="c" x1="33.225" x2="63.834" y1="45.491" y2="45.491" gradientUnits="userSpaceOnUse"><stop stop-color="#1AD1E2"/><stop offset=".38" stop-color="#27B5EC"/><stop offset="1" stop-color="#4080FF"/></linearGradient></defs></svg>