<svg xmlns="http://www.w3.org/2000/svg" fill="none" viewBox="0 0 210 80"><path fill="#1C708D" d="M82.409 52.094a.487.487 0 0 1-.488-.487l-.02-18.321-5.07.005a.487.487 0 0 1-.487-.487l-.005-3.888c0-.27.218-.488.487-.488l15.637-.017c.269 0 .487.218.487.487l.005 3.889c0 .269-.218.487-.486.487l-5.054.006.02 18.322c0 .269-.218.487-.487.487l-4.54.005Zm14.459.443c-1.346.002-2.57-.334-3.668-1.007-1.099-.672-1.973-1.6-2.623-2.78-.651-1.18-.976-2.527-.979-4.038-.001-1.473.305-2.795.92-3.968a7.135 7.135 0 0 1 2.56-2.786c1.094-.684 2.35-1.029 3.774-1.03a7.374 7.374 0 0 1 2.649.47 6.04 6.04 0 0 1 2.121 1.333l-.001-.862c0-.269.218-.487.487-.487l4.252-.005c.269 0 .488.217.488.486l.015 13.718a.486.486 0 0 1-.487.488l-4.252.005a.487.487 0 0 1-.488-.487l-.001-1.034a7.376 7.376 0 0 1-2.232 1.48 6.557 6.557 0 0 1-2.535.504Zm1.57-4.435c.64 0 1.21-.15 1.712-.447.501-.297.89-.7 1.166-1.206.277-.507.415-1.082.415-1.722 0-.651-.145-1.227-.432-1.728a3.264 3.264 0 0 0-1.169-1.198c-.492-.296-1.058-.444-1.697-.443a3.261 3.261 0 0 0-2.885 1.654c-.291.507-.436 1.081-.434 1.722 0 .64.144 1.215.431 1.72.287.508.682.91 1.184 1.204.499.298 1.069.444 1.71.444Zm21.099 4.41a6.601 6.601 0 0 1-2.592-.514 7.386 7.386 0 0 1-2.236-1.461l.001 1.034a.486.486 0 0 1-.486.488l-4.253.004a.487.487 0 0 1-.488-.486l-.025-23.704c0-.269.218-.487.487-.487l4.252-.005c.269 0 .488.218.488.487l.011 10.846a6.08 6.08 0 0 1 2.089-1.336 7.124 7.124 0 0 1 2.605-.477c1.413-.001 2.672.339 3.775 1.022a7.3 7.3 0 0 1 2.608 2.78c.636 1.171.955 2.502.957 3.994.001 1.522-.325 2.87-.977 4.047-.653 1.177-1.526 2.099-2.617 2.764a6.777 6.777 0 0 1-3.599 1.004Zm-1.61-4.432c.65 0 1.219-.146 1.711-.44a3.1 3.1 0 0 0 1.151-1.191c.276-.503.414-1.075.414-1.715 0-.65-.145-1.231-.432-1.743a3.216 3.216 0 0 0-1.168-1.21c-.492-.297-1.058-.444-1.697-.443a3.228 3.228 0 0 0-2.878 1.653c-.285.507-.429 1.09-.427 1.752 0 .631.142 1.197.424 1.7.283.501.674.901 1.176 1.197.502.294 1.077.442 1.726.44Zm18.534 4.413c-2.854.003-4.912-.535-6.173-1.615-1.261-1.079-1.894-2.833-1.897-5.263l-.008-7.776c0-.27.218-.488.487-.488l4.252-.005c.27 0 .488.218.488.487l.007 6.485c.002 1.443.212 2.46.633 3.048.422.588 1.156.881 2.207.88 1.031-.002 1.755-.296 2.175-.886.42-.589.629-1.605.626-3.05l-.007-6.485c0-.269.218-.487.487-.487l4.238-.005c.269 0 .487.218.487.486l.009 7.777c.003 2.43-.624 4.186-1.877 5.267-1.254 1.085-3.299 1.627-6.134 1.63Zm10.749-.47a.486.486 0 0 1-.487-.487l-.026-23.704c0-.269.218-.487.487-.487l4.252-.005c.27 0 .488.218.488.486l.026 23.704a.488.488 0 0 1-.487.487l-4.253.005Zm13.936.442c-1.346.002-2.569-.334-3.667-1.007-1.099-.672-1.974-1.6-2.624-2.78-.651-1.18-.975-2.527-.978-4.038-.002-1.473.304-2.795.92-3.967a7.126 7.126 0 0 1 2.56-2.787c1.093-.684 2.35-1.029 3.773-1.03a7.372 7.372 0 0 1 2.649.47c.831.316 1.538.76 2.121 1.333v-.861a.486.486 0 0 1 .486-.488l4.253-.005c.269 0 .487.218.487.487l.015 13.717c0 .27-.217.488-.486.488l-4.253.005a.486.486 0 0 1-.487-.487l-.001-1.034a7.391 7.391 0 0 1-2.233 1.48 6.553 6.553 0 0 1-2.535.504Zm1.571-4.435c.639 0 1.21-.15 1.711-.447.501-.297.89-.699 1.167-1.206.276-.507.413-1.082.413-1.722 0-.65-.144-1.227-.431-1.728a3.265 3.265 0 0 0-1.169-1.198c-.491-.296-1.057-.444-1.697-.442a3.264 3.264 0 0 0-2.885 1.653c-.291.507-.435 1.082-.434 1.722 0 .64.145 1.215.431 1.72a3.2 3.2 0 0 0 1.184 1.204c.499.298 1.069.446 1.71.444Zm11.237 3.961a.487.487 0 0 1-.488-.486l-.015-13.718c0-.269.217-.487.486-.487l4.253-.005c.269 0 .487.217.488.486l.002 1.593c.581-.805 1.273-1.429 2.075-1.875a5.15 5.15 0 0 1 2.533-.67 6.13 6.13 0 0 1 1.705.257c.426.124.801.275 1.124.453a.445.445 0 0 1 .168.593l-1.729 3.52c-.135.274-.487.356-.758.215a4.215 4.215 0 0 0-.713-.289 4.312 4.312 0 0 0-1.269-.214c-.535 0-1.042.14-1.524.418a3.45 3.45 0 0 0-1.166 1.085 2.555 2.555 0 0 0-.442 1.442l.009 7.189a.488.488 0 0 1-.487.487l-4.252.006Z"/><path fill="#1C708D" fill-rule="evenodd" d="M64.745 31.38v17.912a7.18 7.18 0 0 1-3.71 6.285 35.511 35.511 0 0 1-34.325 0A7.18 7.18 0 0 1 23 49.293V31.38a5.636 5.636 0 0 1 3.551-5.236L40.223 20.7a9.863 9.863 0 0 1 7.298 0l13.672 5.444a5.637 5.637 0 0 1 3.552 5.236Zm-37.672-3.927a4.227 4.227 0 0 0-2.664 3.927v17.912a5.771 5.771 0 0 0 2.982 5.052 34.102 34.102 0 0 0 32.962 0 5.771 5.771 0 0 0 2.983-5.053v-17.91a4.227 4.227 0 0 0-2.664-3.928L47 22.009a8.455 8.455 0 0 0-6.255 0l-13.672 5.444Z" clip-rule="evenodd"/><path fill="#fff" d="M27.073 27.453a4.227 4.227 0 0 0-2.664 3.927v17.912a5.771 5.771 0 0 0 2.982 5.052 34.102 34.102 0 0 0 32.962 0 5.771 5.771 0 0 0 2.983-5.053v-17.91a4.227 4.227 0 0 0-2.664-3.928L47 22.01a8.454 8.454 0 0 0-6.255 0l-13.672 5.444Z"/><mask id="a" width="36" height="12" x="27" y="46" maskUnits="userSpaceOnUse" style="mask-type:alpha"><path fill="#B22400" d="M54.633 46.535c2.285-.607 4.217-.612 5.672-.357 1.927.337 2.483 2.353 1.901 4.221a3.629 3.629 0 0 1-.31.76 5.8 5.8 0 0 1-1.736 1.829c-1.441.984-7.64 4.085-15.59 4.408-5.986.244-12.344-1.905-16.985-4.232a.214.214 0 0 1 .143-.4c1.552.259 3.825.575 6.593.1 2.617-.449 6.374-1.658 10.249-2.996 3.546-1.225 5.453-2.11 10.063-3.333Z"/></mask><g mask="url(#a)"><path fill="url(#b)" d="M62.612 44.726h-9.237v12.948h9.237V44.726Z"/><path fill="url(#c)" fill-rule="evenodd" d="m55.048 57.407 4.137-12.338 2.004.672-4.137 12.338-2.004-.672Z" clip-rule="evenodd" opacity=".24"/><path fill="url(#d)" fill-rule="evenodd" d="m51.702 57.407 4.137-12.338 2.004.672-4.137 12.338-2.004-.672Z" clip-rule="evenodd" opacity=".1"/><path fill="url(#e)" fill-rule="evenodd" d="M57.263 57.407 61.4 45.069l1.336.448L58.6 57.855l-1.336-.448Z" clip-rule="evenodd" opacity=".4"/><path fill="#1C708D" d="M50.791 47.432c-1.733.497-3.385 1.075-5.134 1.69-2.988 1.048-6.076 2.484-9.642 3.138-.794.145-1.526.252-2.236.325-.996.104-1.953.138-2.843.106-1.498-.056-3.298.053-5.047-.548.337.28.721.57 1.19.917 3.066 2.122 8.461 3.593 13.513 4.134.936.1 1.885.167 2.838.2 2.356.084 4.616-.266 6.898-.576 1.142-.153 2.38-.486 3.457-.734.158-.036.31-.074.466-.112-.075-.878-.184-1.865-.325-2.586-.146-.746.498-1.468.528-2.23l-.032-4.308c-.004-.016-.013-.422-.023-.502-.621.178-1.23.364-1.835.55-.58.181-1.181.365-1.773.536Zm-3.075 6.063c-.001 0-.001 0 0 0Z"/><path fill="url(#f)" fill-rule="evenodd" d="m33.207 57.407 4.137-12.338 2.004.672L35.21 58.08l-2.004-.672Z" clip-rule="evenodd" opacity=".24"/><path fill="url(#g)" fill-rule="evenodd" d="m29.86 57.407 4.138-12.338 2.004.672-4.137 12.338-2.004-.672Z" clip-rule="evenodd" opacity=".1"/><path fill="url(#h)" fill-rule="evenodd" d="m35.422 57.407 4.137-12.338 1.336.448-4.137 12.338-1.336-.448Z" clip-rule="evenodd" opacity=".4"/></g><path fill="url(#i)" d="M25.398 31.604c0-1.448.886-2.748 2.233-3.278l13.146-5.173a8.454 8.454 0 0 1 6.19 0l13.147 5.173a3.523 3.523 0 0 1 2.233 3.278v13.663c0 .171-.273.287-.416.193-.77-.505-2.762-1.258-7.21-.245-6.196 1.41-15.39 5.38-20.4 6.24-2.848.489-5.34.422-6.961.274-1.154-.106-1.962-1.098-1.962-2.256v-17.87Z"/><mask id="k" width="38" height="30" x="25" y="22" maskUnits="userSpaceOnUse" style="mask-type:alpha"><path fill="url(#j)" d="M25.398 31.603c0-1.448.886-2.748 2.233-3.278l13.146-5.173a8.455 8.455 0 0 1 6.19 0l13.147 5.173a3.523 3.523 0 0 1 2.233 3.278v13.663c0 .171-.273.287-.416.193-.77-.505-2.762-1.258-7.21-.245-6.196 1.41-15.39 5.38-20.4 6.24a27.1 27.1 0 0 1-6.961.274c-1.154-.106-1.962-1.098-1.962-2.256v-17.87Z"/></mask><g mask="url(#k)"><path fill="#EC7F50" d="M63.389 40.386c-1.666-.684-3.507-.85-5.017-.908-.81-.03-1.687.004-2.606.1-.671.07-1.364.172-2.121.314-.273.05-.606.106-.875.16l-.017.105s.153 2.555.12 3.176c-.014.253-.164.987-.178 1.262-.005.105-.02.372.019.65.04.295.063.59.057.706-.01.248.092.491.081.72 1.673-.5 3.448-.918 5.586-1.026 2.021-.103 3.678.09 4.956.662l-.005-5.92Z" opacity=".4"/><path fill="url(#l)" d="M25.243 31.422v.596l11.564-.073c.32-.002 2.672.08 1.663-.368-1.299-.576-2.604-1.154-4.045-1.596-1.198-.368-2.693-.628-3.849-.213-.533.19-.91.5-1.358.76-1.046.605-2.521.93-3.975.894Z"/><path fill="url(#m)" d="M25.507 31.366a7.935 7.935 0 0 0 1.688-.177 6.349 6.349 0 0 0 1.622-.56c.254-.13.5-.279.736-.45.236-.17.473-.348.731-.492.519-.295 1.117-.402 1.694-.396.581.007 1.157.111 1.715.26.56.152 1.102.358 1.636.586 1.068.452 2.098.99 3.127 1.528-1.05-.49-2.093-1-3.163-1.43a17.042 17.042 0 0 0-.81-.301c-.27-.096-.543-.182-.82-.255a6.794 6.794 0 0 0-1.686-.243c-.565-.002-1.136.09-1.634.37-.25.138-.483.31-.724.48-.238.171-.492.325-.756.451-1.057.5-2.21.685-3.356.63Z"/><path fill="url(#n)" d="m59.727 27.67-4.555-1.515c-.155.102-.31.205-.472.303-1.418.848-3.522 1.238-5.464 1.014-.916-.106-1.8-.339-2.73-.348-1.561-.015-2.935.591-4.182 1.17 6.138-.04 12.277-.08 18.415-.118a4.07 4.07 0 0 0-1.012-.505Z"/><path fill="url(#o)" d="M42.059 28.296c.501-.25 1.01-.486 1.537-.69.526-.2 1.07-.363 1.632-.458a6.255 6.255 0 0 1 1.704-.056c.566.053 1.122.16 1.677.241 1.105.183 2.239.164 3.344-.015a8.932 8.932 0 0 0 1.623-.42c.264-.092.521-.203.77-.328.25-.123.485-.276.726-.417-.232.155-.459.32-.704.454-.246.135-.5.257-.763.361a8.927 8.927 0 0 1-1.63.468c-1.114.207-2.27.224-3.39.05-.56-.085-1.111-.198-1.668-.255a6.586 6.586 0 0 0-1.67.033 8.6 8.6 0 0 0-1.624.411c-.531.182-1.047.405-1.564.621Z"/><mask id="p" width="38" height="30" x="25" y="22" maskUnits="userSpaceOnUse" style="mask-type:alpha"><path fill="#000" d="M25.398 31.602c0-1.448.886-2.748 2.233-3.278l13.146-5.173a8.455 8.455 0 0 1 6.19 0l13.147 5.173a3.523 3.523 0 0 1 2.233 3.278v13.663c0 .171-.273.287-.416.193-.77-.505-2.762-1.258-7.21-.245-6.196 1.41-15.39 5.38-20.4 6.24-2.848.49-5.34.422-6.961.274-1.154-.106-1.962-1.098-1.962-2.256V31.6Z"/></mask><g mask="url(#p)"><path fill="#fff" d="M23.115 37.225v17.012l30.381-6.434s1.338-12.932 1.333-13.392c-.004-.46-.073-.575-.073-.575s-20.021 2.4-31.641 3.389Z"/><path fill="url(#q)" d="M23.115 37.225v17.012l30.381-6.434s1.338-12.932 1.333-13.392c-.004-.46-.073-.575-.073-.575s-20.021 2.4-31.641 3.389Z"/><path fill="url(#r)" d="M23.115 37.225v17.012l30.381-6.434s1.338-12.932 1.333-13.392c-.004-.46-.073-.575-.073-.575s-20.021 2.4-31.641 3.389Z"/><path fill="url(#s)" d="M23.115 37.225v17.012l30.381-6.434s1.338-12.932 1.333-13.392c-.004-.46-.073-.575-.073-.575s-20.021 2.4-31.641 3.389Z"/><path fill="url(#t)" d="M23.115 37.225v17.012l30.381-6.434s1.338-12.932 1.333-13.392c-.004-.46-.073-.575-.073-.575s-20.021 2.4-31.641 3.389Z"/><path fill="#fff" fill-opacity=".5" d="M23.115 37.225v17.012l30.381-6.434s1.338-12.932 1.333-13.392c-.004-.46-.073-.575-.073-.575s-20.021 2.4-31.641 3.389Z"/><path fill="#fff" d="m26.328 43.12 1.33 8.585 4.822 1.799-2.048-11.541-1.201.124-2.903 1.032ZM30.912 41.937l2.304 13.198 2.113-7.558v-5.874h-1.934l-2.483.234Z"/><path fill="#fff" d="M35.796 41.524v6.197l-1.72 6.411 4.98.573-1.97-13.575-1.29.394ZM39.556 55.1l8.095.429-4.514-15.987-5.516 1.516L39.556 55.1ZM43.568 39.232l4.871 16.942-.465-17.98s-1.791 0-2.615.214c-.824.215-1.79.824-1.79.824ZM48.511 38.05l.466 16.548 5.246-1.072s-.253-2.529-.253-3.102.359-1.473.359-2.225c0-.753.145-2.508.145-3.081s-.25-.895-.25-1.397c0-.501.25-.931.25-1.433 0-.501-.145-2.867-.145-3.476 0-.61.503-2.147.503-2.684v-1.72s-3.097 1.565-4.029 2.245c-.93.68-2.292 1.397-2.292 1.397Z"/><path fill="#fff" d="M27.823 35.245c-1.642 0-5.189.741-6.757 1.112v7.1c.94-.143 2.942-.462 3.421-.599.6-.171 1.54 0 2.567-.513 1.026-.513 2.31-.77 3.421-.77 1.112 0 4.02-.171 4.876-.513.855-.342 4.62-1.369 6.159-1.54 1.54-.171 2.737-1.54 4.191-1.71 1.455-.172 2.395.427 4.02-.942 1.626-1.368 4.363-2.224 4.962-2.822.599-.6-1.967-.428-3.764-.514-1.796-.085-13.258.77-15.568 1.112-2.31.342-5.474.599-7.527.599Z"/></g><g opacity=".58"><mask id="v" width="38" height="30" x="25" y="22" maskUnits="userSpaceOnUse" style="mask-type:alpha"><path fill="url(#u)" d="M25.398 31.602c0-1.448.886-2.748 2.233-3.278l13.146-5.173a8.455 8.455 0 0 1 6.19 0l13.147 5.173a3.523 3.523 0 0 1 2.233 3.278v13.663c0 .171-.273.287-.416.193-.77-.505-2.762-1.258-7.21-.245-6.196 1.41-15.39 5.38-20.4 6.24-2.848.49-5.34.422-6.961.274-1.154-.106-1.962-1.098-1.962-2.256V31.6Z"/></mask><g mask="url(#v)"><path fill="url(#w)" d="M23.115 43.568v8.155l4.02.006-1.345-8.582s-1.087-.135-2.675.421Z"/><path fill="#fff" fill-opacity=".84" d="M23.115 43.568v8.155l4.02.006-1.345-8.582s-1.087-.135-2.675.421Z"/><path fill="url(#x)" d="m26.328 43.12 1.33 8.585 4.822 1.799-2.049-11.541-1.2.124-2.903 1.032Z"/><path fill="#fff" fill-opacity=".84" d="m26.328 43.12 1.33 8.585 4.822 1.799-2.049-11.541-1.2.124-2.903 1.032Z"/><path fill="url(#y)" d="m30.912 41.937 2.304 13.198 2.113-7.558v-5.874h-1.934l-2.483.234Z"/><path fill="url(#z)" d="M35.796 41.524v6.197l-1.72 6.411 4.98.573-1.97-13.575-1.29.394Z"/><path fill="url(#A)" d="m39.556 55.1 8.095.429-4.514-15.987-5.516 1.516L39.556 55.1Z"/><path fill="url(#B)" d="m43.568 39.231 4.871 16.942-.465-17.98s-1.791 0-2.615.214c-.824.215-1.79.824-1.79.824Z"/><path fill="url(#C)" d="m48.51 38.05.467 16.547 5.246-1.072s-.253-2.529-.253-3.102.358-1.473.358-2.226c0-.752.146-2.507.146-3.08s-.25-.895-.25-1.397c0-.501.25-.931.25-1.433 0-.501-.145-2.867-.145-3.476 0-.61.503-2.147.503-2.684v-1.72s-3.097 1.565-4.029 2.245c-.931.68-2.292 1.397-2.292 1.397Z"/></g></g><g opacity=".5"><mask id="E" width="38" height="30" x="25" y="22" maskUnits="userSpaceOnUse" style="mask-type:alpha"><path fill="url(#D)" d="M25.398 31.602c0-1.448.886-2.748 2.233-3.278l13.146-5.173a8.455 8.455 0 0 1 6.19 0l13.147 5.173a3.523 3.523 0 0 1 2.233 3.278v13.663c0 .171-.273.287-.416.193-.77-.505-2.762-1.258-7.21-.245-6.196 1.41-15.39 5.38-20.4 6.24-2.848.49-5.34.422-6.961.274-1.154-.106-1.962-1.098-1.962-2.256V31.6Z"/></mask><g mask="url(#E)"><path fill="#fff" d="M27.823 35.245c-1.642 0-5.189.741-6.757 1.112v7.1c.94-.143 2.942-.462 3.421-.599.6-.171 1.54 0 2.567-.513 1.026-.513 2.31-.77 3.421-.77 1.112 0 4.02-.171 4.876-.513.855-.342 4.62-1.369 6.159-1.54 1.54-.171 2.737-1.54 4.191-1.71 1.455-.172 2.395.427 4.02-.942 1.626-1.368 4.363-2.224 4.962-2.822.599-.6-1.967-.428-3.764-.514-1.796-.085-13.258.77-15.568 1.112-2.31.342-5.475.599-7.527.599Z"/><path fill="url(#F)" d="M27.823 35.245c-1.642 0-5.189.741-6.757 1.112v7.1c.94-.143 2.942-.462 3.421-.599.6-.171 1.54 0 2.567-.513 1.026-.513 2.31-.77 3.421-.77 1.112 0 4.02-.171 4.876-.513.855-.342 4.62-1.369 6.159-1.54 1.54-.171 2.737-1.54 4.191-1.71 1.455-.172 2.395.427 4.02-.942 1.626-1.368 4.363-2.224 4.962-2.822.599-.6-1.967-.428-3.764-.514-1.796-.085-13.258.77-15.568 1.112-2.31.342-5.475.599-7.527.599Z"/><path fill="url(#G)" d="M27.823 35.245c-1.642 0-5.189.741-6.757 1.112v7.1c.94-.143 2.942-.462 3.421-.599.6-.171 1.54 0 2.567-.513 1.026-.513 2.31-.77 3.421-.77 1.112 0 4.02-.171 4.876-.513.855-.342 4.62-1.369 6.159-1.54 1.54-.171 2.737-1.54 4.191-1.71 1.455-.172 2.395.427 4.02-.942 1.626-1.368 4.363-2.224 4.962-2.822.599-.6-1.967-.428-3.764-.514-1.796-.085-13.258.77-15.568 1.112-2.31.342-5.475.599-7.527.599Z"/><path fill="url(#H)" d="M27.823 35.245c-1.642 0-5.189.741-6.757 1.112v7.1c.94-.143 2.942-.462 3.421-.599.6-.171 1.54 0 2.567-.513 1.026-.513 2.31-.77 3.421-.77 1.112 0 4.02-.171 4.876-.513.855-.342 4.62-1.369 6.159-1.54 1.54-.171 2.737-1.54 4.191-1.71 1.455-.172 2.395.427 4.02-.942 1.626-1.368 4.363-2.224 4.962-2.822.599-.6-1.967-.428-3.764-.514-1.796-.085-13.258.77-15.568 1.112-2.31.342-5.475.599-7.527.599Z"/><path fill="url(#I)" d="M27.823 35.245c-1.642 0-5.189.741-6.757 1.112v7.1c.94-.143 2.942-.462 3.421-.599.6-.171 1.54 0 2.567-.513 1.026-.513 2.31-.77 3.421-.77 1.112 0 4.02-.171 4.876-.513.855-.342 4.62-1.369 6.159-1.54 1.54-.171 2.737-1.54 4.191-1.71 1.455-.172 2.395.427 4.02-.942 1.626-1.368 4.363-2.224 4.962-2.822.599-.6-1.967-.428-3.764-.514-1.796-.085-13.258.77-15.568 1.112-2.31.342-5.475.599-7.527.599Z"/><path fill="#fff" fill-opacity=".5" d="M27.823 35.245c-1.642 0-5.189.741-6.757 1.112v7.1c.94-.143 2.942-.462 3.421-.599.6-.171 1.54 0 2.567-.513 1.026-.513 2.31-.77 3.421-.77 1.112 0 4.02-.171 4.876-.513.855-.342 4.62-1.369 6.159-1.54 1.54-.171 2.737-1.54 4.191-1.71 1.455-.172 2.395.427 4.02-.942 1.626-1.368 4.363-2.224 4.962-2.822.599-.6-1.967-.428-3.764-.514-1.796-.085-13.258.77-15.568 1.112-2.31.342-5.475.599-7.527.599Z"/></g></g></g><defs><linearGradient id="b" x1="57.7" x2="66.505" y1="58.417" y2="49.191" gradientUnits="userSpaceOnUse"><stop stop-color="#054B56"/><stop offset=".529" stop-color="#136A8A"/><stop offset="1" stop-color="#2996B6"/></linearGradient><linearGradient id="c" x1="57.133" x2="59.728" y1="50.807" y2="52.009" gradientUnits="userSpaceOnUse"><stop stop-color="#054B56"/><stop offset=".529" stop-color="#136A8A"/><stop offset="1" stop-color="#2996B6"/></linearGradient><linearGradient id="d" x1="53.787" x2="56.382" y1="50.807" y2="52.009" gradientUnits="userSpaceOnUse"><stop stop-color="#054B56"/><stop offset=".529" stop-color="#136A8A"/><stop offset="1" stop-color="#2996B6"/></linearGradient><linearGradient id="e" x1="59.387" x2="61.151" y1="50.82" y2="51.56" gradientUnits="userSpaceOnUse"><stop stop-color="#054B56"/><stop offset=".529" stop-color="#136A8A"/><stop offset="1" stop-color="#2996B6"/></linearGradient><linearGradient id="f" x1="35.292" x2="37.887" y1="50.807" y2="52.009" gradientUnits="userSpaceOnUse"><stop stop-color="#054B56"/><stop offset=".529" stop-color="#136A8A"/><stop offset="1" stop-color="#2996B6"/></linearGradient><linearGradient id="g" x1="31.946" x2="34.541" y1="50.807" y2="52.009" gradientUnits="userSpaceOnUse"><stop stop-color="#054B56"/><stop offset=".529" stop-color="#136A8A"/><stop offset="1" stop-color="#2996B6"/></linearGradient><linearGradient id="h" x1="37.545" x2="39.31" y1="50.82" y2="51.56" gradientUnits="userSpaceOnUse"><stop stop-color="#054B56"/><stop offset=".529" stop-color="#136A8A"/><stop offset="1" stop-color="#2996B6"/></linearGradient><linearGradient id="i" x1="52.488" x2="30.002" y1="62.649" y2="23.991" gradientUnits="userSpaceOnUse"><stop offset=".266" stop-color="#F4B933"/><stop offset=".459" stop-color="#F3A836"/><stop offset=".865" stop-color="#F17E37"/><stop offset="1" stop-color="#F16E37"/></linearGradient><linearGradient id="j" x1="52.488" x2="30.002" y1="62.648" y2="23.99" gradientUnits="userSpaceOnUse"><stop offset=".266" stop-color="#F4B933"/><stop offset=".459" stop-color="#F3A836"/><stop offset=".865" stop-color="#F17E37"/><stop offset="1" stop-color="#F16E37"/></linearGradient><linearGradient id="l" x1="35.124" x2="34.55" y1="32.927" y2="28.652" gradientUnits="userSpaceOnUse"><stop offset=".266" stop-color="#F4B933"/><stop offset=".459" stop-color="#F3A836"/><stop offset=".865" stop-color="#F17E37"/><stop offset="1" stop-color="#F16E37"/></linearGradient><linearGradient id="m" x1="25.507" x2="38.487" y1="30.477" y2="30.477" gradientUnits="userSpaceOnUse"><stop offset=".103" stop-color="#EC7F50"/><stop offset=".526" stop-color="#F1A83E"/><stop offset=".734" stop-color="#F3B930"/></linearGradient><linearGradient id="n" x1="55.825" x2="55.506" y1="29.083" y2="25.331" gradientUnits="userSpaceOnUse"><stop offset=".266" stop-color="#F4B933"/><stop offset=".459" stop-color="#F3A836"/><stop offset=".865" stop-color="#F17E37"/><stop offset="1" stop-color="#F16E37"/></linearGradient><linearGradient id="o" x1="42.024" x2="55.117" y1="27.225" y2="27.225" gradientUnits="userSpaceOnUse"><stop offset=".103" stop-color="#EC7F50"/><stop offset=".526" stop-color="#F1A83E"/><stop offset=".734" stop-color="#F3B930"/></linearGradient><linearGradient id="u" x1="52.488" x2="30.002" y1="62.647" y2="23.989" gradientUnits="userSpaceOnUse"><stop offset=".266" stop-color="#F4B933"/><stop offset=".459" stop-color="#F3A836"/><stop offset=".865" stop-color="#F17E37"/><stop offset="1" stop-color="#F16E37"/></linearGradient><linearGradient id="w" x1="24.997" x2="30.459" y1="52.222" y2="48.471" gradientUnits="userSpaceOnUse"><stop stop-color="#438893"/><stop offset=".529" stop-color="#74B8D1"/><stop offset="1" stop-color="#79CFE9"/></linearGradient><linearGradient id="x" x1="29.208" x2="36.835" y1="54.166" y2="48.194" gradientUnits="userSpaceOnUse"><stop stop-color="#438893"/><stop offset=".529" stop-color="#74B8D1"/><stop offset="1" stop-color="#79CFE9"/></linearGradient><linearGradient id="y" x1="30.963" x2="35.38" y1="48.419" y2="48.419" gradientUnits="userSpaceOnUse"><stop stop-color="#C3E3EE" stop-opacity=".5"/><stop offset=".908" stop-color="#C5E4EF"/></linearGradient><linearGradient id="z" x1="34.134" x2="39.113" y1="47.917" y2="47.917" gradientUnits="userSpaceOnUse"><stop stop-color="#C3E3EE" stop-opacity=".5"/><stop offset=".908" stop-color="#C5E4EF"/></linearGradient><linearGradient id="A" x1="37.737" x2="47.766" y1="47.535" y2="47.535" gradientUnits="userSpaceOnUse"><stop stop-color="#C3E3EE" stop-opacity=".5"/><stop offset=".908" stop-color="#C5E4EF"/></linearGradient><linearGradient id="B" x1="43.624" x2="48.496" y1="47.183" y2="47.183" gradientUnits="userSpaceOnUse"><stop stop-color="#C3E3EE" stop-opacity=".5"/><stop offset=".908" stop-color="#C5E4EF"/></linearGradient><linearGradient id="C" x1="48.584" x2="54.905" y1="44.502" y2="44.502" gradientUnits="userSpaceOnUse"><stop stop-color="#C3E3EE" stop-opacity=".5"/><stop offset=".908" stop-color="#C5E4EF"/></linearGradient><linearGradient id="D" x1="52.488" x2="30.002" y1="62.647" y2="23.989" gradientUnits="userSpaceOnUse"><stop offset=".266" stop-color="#F4B933"/><stop offset=".459" stop-color="#F3A836"/><stop offset=".865" stop-color="#F17E37"/><stop offset="1" stop-color="#F16E37"/></linearGradient><radialGradient id="q" cx="0" cy="0" r="1" gradientTransform="matrix(31.7146 20.40093 -31.4968 48.96388 23.115 33.836)" gradientUnits="userSpaceOnUse"><stop stop-color="#F4F5F6" stop-opacity="0"/><stop offset="1" stop-color="#F4F5F6"/></radialGradient><radialGradient id="r" cx="0" cy="0" r="1" gradientTransform="rotate(147.248 22.443 24.974) scale(37.7096 58.2195)" gradientUnits="userSpaceOnUse"><stop stop-color="#F1F9F1" stop-opacity="0"/><stop offset="1" stop-color="#F1F9F1"/></radialGradient><radialGradient id="s" cx="0" cy="0" r="1" gradientTransform="rotate(147.248 22.443 24.974) scale(37.7096 58.2195)" gradientUnits="userSpaceOnUse"><stop stop-color="#D9D4E2"/><stop offset="1" stop-color="#D9D4E2" stop-opacity="0"/></radialGradient><radialGradient id="t" cx="0" cy="0" r="1" gradientTransform="matrix(31.7146 20.40093 -31.4968 48.96388 23.115 33.836)" gradientUnits="userSpaceOnUse"><stop stop-color="#EFF7FB"/><stop offset="1" stop-color="#EFF7FB" stop-opacity="0"/></radialGradient><radialGradient id="F" cx="0" cy="0" r="1" gradientTransform="rotate(16.413 -105.708 89.798) scale(35.1376 32.3167)" gradientUnits="userSpaceOnUse"><stop stop-color="#F4F5F6" stop-opacity="0"/><stop offset="1" stop-color="#F4F5F6"/></radialGradient><radialGradient id="G" cx="0" cy="0" r="1" gradientTransform="matrix(-33.70574 9.92845 -9.13138 -30.9998 54.772 33.528)" gradientUnits="userSpaceOnUse"><stop stop-color="#F1F9F1" stop-opacity="0"/><stop offset="1" stop-color="#F1F9F1"/></radialGradient><radialGradient id="H" cx="0" cy="0" r="1" gradientTransform="matrix(-33.70574 9.92845 -9.13138 -30.9998 54.772 33.528)" gradientUnits="userSpaceOnUse"><stop stop-color="#D9D4E2"/><stop offset="1" stop-color="#D9D4E2" stop-opacity="0"/></radialGradient><radialGradient id="I" cx="0" cy="0" r="1" gradientTransform="rotate(16.413 -105.708 89.798) scale(35.1376 32.3167)" gradientUnits="userSpaceOnUse"><stop stop-color="#EFF7FB"/><stop offset="1" stop-color="#EFF7FB" stop-opacity="0"/></radialGradient></defs></svg>