<svg xmlns="http://www.w3.org/2000/svg" fill="none" viewBox="0 0 210 80"><path fill="#000" d="M76.527 30.473v2.036c.8-.8 1.819-1.454 2.91-1.818 1.09-.436 2.254-.655 3.418-.582 5.963 0 10.181 4.073 10.181 9.891s-4.218 9.89-10.181 9.89c-1.164 0-2.328-.145-3.419-.58a9.332 9.332 0 0 1-2.909-1.82V56H72.6V30.546l3.927-.073Zm0 9.454c0 3.855 2.546 6.4 6.255 6.4s6.254-2.545 6.254-6.4c0-3.854-2.472-6.4-6.254-6.4-3.782 0-6.255 2.618-6.255 6.4ZM109.109 24h3.927v3.782h-3.927V24Zm0 6.473h3.927v18.982h-3.927V30.473ZM116.164 39.927c0-5.745 4.218-9.89 10.181-9.89 5.964 0 10.182 4.072 10.182 9.89 0 5.746-4.218 9.891-10.182 9.891-5.963 0-10.181-4.072-10.181-9.89Zm16.509 0c0-3.854-2.473-6.4-6.255-6.4s-6.254 2.618-6.254 6.4c0 3.782 2.545 6.4 6.254 6.4 3.709 0 6.255-2.545 6.255-6.4ZM139.655 30.473h3.927v1.745c.654-.654 1.454-1.236 2.327-1.6.873-.363 1.818-.509 2.764-.509 4.654 0 7.854 3.273 7.854 8v11.346H152.6V38.035c0-2.69-1.745-4.509-4.436-4.509-2.837 0-4.582 1.891-4.582 4.51v11.418h-3.927V30.473ZM69.473 49.818H59.29c-2.036 0-4-.582-5.673-1.672a10.186 10.186 0 0 1-3.782-4.437c-.8-1.818-.945-3.782-.581-5.745.363-1.891 1.381-3.71 2.763-5.091a10.364 10.364 0 0 1 5.236-2.691c1.964-.364 4-.218 5.892.582a9.879 9.879 0 0 1 4.581 3.636c1.091 1.6 1.746 3.564 1.746 5.527v9.891ZM59.29 34.11c-.8 0-1.6.145-2.4.364a7.27 7.27 0 0 0-2.036 1.236c-.582.582-1.019 1.236-1.382 1.891-.291.727-.51 1.527-.51 2.255 0 .8.146 1.527.51 2.254.29.727.8 1.382 1.382 1.891.581.582 1.236.946 2.036 1.236.727.291 1.527.437 2.4.364h6.036v-5.89c0-1.528-.654-3.056-1.745-4.146-1.164-.873-2.691-1.455-4.291-1.455ZM42.564 43.49c-1.019 1.82-2.982 2.837-5.382 2.837-3.71 0-6.255-2.545-6.255-6.4 0-3.854 2.546-6.4 6.255-6.4 2.4 0 4.29 1.091 5.382 2.837h4.218c-1.382-3.855-4.946-6.328-9.6-6.328C31.218 30.11 27 34.182 27 39.927c0 5.746 4.218 9.891 10.182 9.891 4.654 0 8.218-2.472 9.6-6.327h-4.218ZM105.618 33.89v-3.417h-6.109V24h-3.927v19.054c0 4.219 2.182 6.4 6.618 6.4h3.418v-3.49h-3.127c-1.964 0-2.982-.946-2.982-2.91v-9.163h6.109ZM177.182 33.31v-2.765h-1.018v-.509h2.472v.51h-1.018v2.836l-.436-.073ZM182.2 33.31v-2.692l-1.164 2.764h-.291l-1.163-2.764v2.764h-.509v-3.273h.8l1.018 2.473 1.018-2.473h.8v3.273l-.509-.073ZM159.873 45.745l3.054-1.672c1.018 1.963 2.618 2.618 4.8 2.618 2.255 0 4-.873 4-2.618 0-4.073-11.418-1.019-11.418-8.364 0-3.418 3.055-5.89 7.418-5.89 3.709 0 6.182 1.672 7.491 3.927l-3.054 1.672c-.873-1.672-2.473-2.254-4.291-2.254-1.818 0-3.491.945-3.491 2.472 0 3.928 11.418 1.091 11.418 8.364 0 3.636-3.636 5.964-7.855 5.964-3.709.072-6.545-1.382-8.072-4.218Z"/></svg>