<svg xmlns="http://www.w3.org/2000/svg" fill="none" viewBox="0 0 210 80"><path fill="#000" d="M80.825 12.607c.387.921.774 1.76 1.087 2.625.203.58.553.719 1.124.7 1.317-.037 2.634-.009 3.951-.009 1.86 0 2.1.23 2.128 2.045 0 .175.018.35.037.7h5.757l1.658 13.19c-2.082 0-4.072.037-6.052-.037-.332-.009-.764-.396-.967-.718-.83-1.336-1.98-1.658-3.5-1.575-2.588.138-5.195.083-7.793.037-.773-.019-1.308.193-1.62.884-.544 1.188-1.447 1.529-2.737 1.437-1.722-.12-3.463-.028-5.351-.028l.903-13.172h6.88c.102-.165.157-.22.166-.276.129-2.468.147-2.487 2.699-2.487h1.98c-.396-.967-.7-1.851-1.124-2.68-.11-.221-.58-.286-.893-.369-1.28-.313-2.1-1.372-1.99-2.643.083-1.207 1.106-2.174 2.322-2.23 1.188-.045 2.275.83 2.496 2.055.193 1.068-.332 1.842-1.152 2.551h-.009Zm-2.772 10.409c-.093-.415-.166-.792-.267-1.244-.645.037-1.262.074-1.861.11-.055.489-.101.857-.147 1.226-.553.046-1.032.083-1.52.12v2.007c.57.037 1.05.065 1.538.093.046.442.092.82.129 1.151h1.916c-.341-1.483.663-1.418 1.612-1.41v-1.943c-.498-.046-.949-.083-1.4-.12v.01Zm12.913 1.188c.056-1.004-.561-1.63-1.63-1.667-.838-.028-1.52.58-1.566 1.4a1.727 1.727 0 0 0 1.686 1.814c.903.019 1.455-.552 1.51-1.547ZM51 30.016h4.919c1.952 0 3.914-.037 5.867.01 3.123.073 5.536 2.072 6.024 5.139.212 1.345.166 2.772.028 4.136-.185 1.787-1.18 3.177-2.7 4.145-.497.313-.635.598-.46 1.197.737 2.597 1.4 5.204 2.091 7.81.065.231.092.47.157.756h-4.919c-.36-1.335-.718-2.671-1.078-3.997-.359-1.327-.727-2.662-1.105-4.044-1.363.368-2.662.71-4.007 1.069v6.926H51V30.007v.009Zm4.845 4.891v6.264c1.575-.397 3.086-.774 4.587-1.161 2.819-.719 2.81-.728 2.653-3.684-.046-.912-.507-1.4-1.391-1.41-1.916-.027-3.832 0-5.858 0h.009v-.009Z"/><path fill="#000" d="M90.082 50.39c-.304.277-.57.47-.774.71-.82.967-1.64 1.41-2.846.479-.663-.516-1.676-.055-1.879.737-.202.773-.617 1.04-1.372.93a3.342 3.342 0 0 0-.958 0c-.71.101-1.096-.138-1.28-.875-.185-.765-1.189-1.326-1.76-.884-1.833 1.418-2.671-.11-3.776-1.124.092-.249.184-.507.294-.755.71-1.612.535-2.091-1.142-2.616-.69-.212-.912-.562-.82-1.225.028-.249.047-.507 0-.746-.175-.958.25-1.428 1.17-1.612.443-.092.958-.148.958-.894s-.506-.727-.94-.93c-.395-.184-1.058-.36-1.105-.626-.138-.83-.1-1.704.019-2.543.028-.202.645-.35 1.004-.47 1.243-.432 1.52-1.022 1.013-2.21-.147-.35-.304-.71-.479-1.114.368-.323.755-.59 1.04-.94.72-.884 1.42-1.013 2.414-.34.977.662 1.778.294 2.156-.84.193-.57.497-.791 1.087-.736.46.046.948-.083 1.381.037.36.101.82.36.967.672.544 1.17 1.16 1.428 2.321.857.424-.212 1.041-.599 1.3-.451.718.432 1.335 1.059 1.878 1.704.138.165-.129.718-.276 1.059-.571 1.345-.387 1.879.995 2.275.82.23 1.077.626 1.077 1.492 0 1.188-.027 2.165-1.529 2.33-.202.019-.479.489-.479.756s.25.608.489.755c.442.276 1.28.332 1.372.645.221.755.147 1.612.092 2.422 0 .203-.368.46-.617.562-1.897.746-2.017.995-1.216 2.846.083.194.147.397.249.654h-.028v.01Zm-10.187-7.847c0 1.317.028 2.634 0 3.942-.028.921.414 1.29 1.29 1.29h3.196c.884 0 1.29-.433 1.29-1.317v-7.885c0-.884-.452-1.308-1.318-1.308h-3.196c-.875 0-1.28.442-1.253 1.336.028 1.317 0 2.625 0 3.942h-.01ZM97.893 34.06c2.496 0 4.992-.185 7.443.055 2.146.212 3.776 2.44 3.85 4.633v.636c-.056 1.409.055 2.523 1.354 3.666 2.146 1.888 1.824 4.623.976 7.055-.801 2.303-2.8 3.15-5.186 3.141-2.772-.018-5.545 0-8.446 0h.01V34.06Zm4.044 15.244c1.685 0 3.279.055 4.863-.046.387-.028 1.05-.58 1.05-.894 0-.958.562-2.081-.525-2.846a.55.55 0 0 0-.396-.083c-1.676.396-3.344.82-4.983 1.225v2.644h-.009Zm.027-6.945c2.948-.166 3.473-.719 3.206-3.298-.12-1.124-.977-1.4-3.206-1.022v4.32ZM114.086 43.547v-4.375c.018-2.828 1.934-5.002 4.725-5.214a27.93 27.93 0 0 1 4.477.019c2.662.23 4.578 2.312 4.624 4.974.055 3.094.055 6.19 0 9.284-.046 2.46-1.714 4.514-4.155 4.818-1.879.23-3.84.212-5.72-.046-2.293-.314-3.914-2.46-3.951-4.772-.028-1.566 0-3.132 0-4.697v.009Zm4.044.018v4.366c0 .839.414 1.244 1.234 1.253h3.196c.94 0 1.345-.488 1.345-1.39 0-2.801-.009-5.61 0-8.41 0-.995-.47-1.428-1.428-1.428h-2.984c-.977 0-1.409.46-1.373 1.455.037 1.382.01 2.764.01 4.154ZM145.891 43.602c0-1.492-.009-2.984 0-4.486.028-2.772 1.916-4.918 4.67-5.148a27.93 27.93 0 0 1 4.477 0c2.708.22 4.624 2.293 4.688 5.038.065 3.058.074 6.116 0 9.174-.073 2.892-2.256 4.992-5.149 5.038-1.556.019-3.141.065-4.67-.184-2.358-.387-3.96-2.46-3.997-4.845-.028-1.529 0-3.058 0-4.587h-.019Zm4.044-.064c0 1.418.019 2.837 0 4.255-.018 1.004.451 1.419 1.419 1.4.994-.018 1.989 0 2.984 0 .921 0 1.372-.442 1.372-1.363v-8.52c0-.875-.423-1.327-1.289-1.345-1.069-.018-2.128 0-3.196 0-.857 0-1.308.405-1.29 1.308.019 1.418 0 2.837 0 4.255v.01ZM109.352 61.886h-3.178c-.258-1.244-1.06-1.87-2.404-1.87-2.8 0-2.552-.138-2.561 2.515 0 1.667.028 3.343 0 5.01-.018.968.396 1.355 1.345 1.308.746-.036 1.492 0 2.238-.009 1.142-.018 1.308-.24 1.105-1.529-.718.138-1.436.276-2.146.415-.046-.083-.101-.138-.101-.194-.101-1.98.82-3.196 2.745-3.647.958-.221 1.925-.452 2.957-.691 0 2.008.193 3.933-.065 5.803-.212 1.538-1.455 2.606-3.003 2.8-1.704.203-3.481.258-5.176.028-2.082-.277-3.252-1.889-3.261-3.97 0-2.312-.018-4.624 0-6.936.018-2.238 1.723-3.96 3.97-4.035 1.105-.037 2.201-.018 3.307 0 2.837.037 4.559 2.008 4.237 5.011l-.009-.01ZM135.059 37.947h-4.476v-3.943h12.978v3.906h-4.44v15.262h-4.062V37.947ZM123.757 59.371c2.165.24 4.339-.442 6.43.488.166.074.396.037.589.019 1.106-.147 2.22-.442 3.325-.424 1.704.019 3.114 1.327 3.169 3.012.101 3.113.028 6.236.028 9.441h-2.819c-.018-.359-.055-.727-.055-1.105 0-2.524-.028-5.047.009-7.571.018-.94-.35-1.244-1.262-1.235-.903 0-1.317.304-1.28 1.244.046 1.068-.028 2.137.018 3.196.028.691-.175 1.06-.893 1.151-.627.083-1.244.258-1.981.424V63.71c0-1.677-.018-1.695-1.648-1.686h-.857v9.883h-2.782V59.382l.009-.01ZM121.519 71.917h-2.708V67.32c-1.271.314-2.441.572-3.583.922-.221.064-.451.497-.47.764-.055.949-.018 1.897-.018 2.901h-2.791c0-3.288-.055-6.512.028-9.726.036-1.354 1.418-2.616 2.855-2.727a24.384 24.384 0 0 1 3.933 0 3.164 3.164 0 0 1 2.874 3.068c.064 3.012.018 6.033.009 9.054 0 .092-.074.193-.129.332v.009Zm-2.726-7.332c0-.488-.028-.912 0-1.327.083-.912-.295-1.28-1.225-1.262-3.15.046-2.828-.322-2.828 2.865 0 .203.028.415.055.718 1.345-.331 2.644-.653 3.989-.985h.009v-.01ZM157.009 63.203c-.433-1.124-1.962-1.695-3.749-1.142-1.455.451-.414 1.76-.866 2.828 1.17-.23 2.091-.415 3.022-.599 2.266-.442 4.191 1.096 4.264 3.408.083 2.892-1.262 4.31-4.135 4.302-1.097 0-2.22.018-3.289-.194-1.584-.313-2.514-1.621-2.45-3.242 1.041.212 2.017-.24 3.159.543.82.553 2.331.185 3.51.019.184-.028.276-1.188.249-1.815 0-.147-.691-.405-1.032-.368-.801.092-1.584.368-2.386.516-1.925.35-3.454-.986-3.601-2.939-.313-4.071 1.446-5.379 4.992-5.13.709.046 1.428 0 2.137.046 1.538.083 3.27 1.971 2.699 3.767h-2.524ZM147.559 59.454v2.552c-1.465 0-2.874.027-4.283 0-.839-.028-1.161.34-1.133 1.142.027.672 0 1.345 0 2.192 1.437-.332 2.763-.636 4.135-.949v2.69c-1.133.285-2.293.553-3.435.893-.267.074-.461.387-.682.59.286.249.562.69.857.7 1.344.083 2.698.037 4.052.037.139 0 .277.027.479.046v2.524c-1.823 0-3.638.138-5.416-.037-1.722-.175-2.809-1.594-2.837-3.325a175.36 175.36 0 0 1 0-5.757c.028-1.649 1.225-3.132 2.81-3.26 1.787-.14 3.601-.038 5.453-.038ZM76.551 53.182h-8.603c1.483-.894 2.727-1.658 3.989-2.386.156-.092.442-.11.589-.018 1.271.736 2.515 1.5 4.025 2.413v-.01ZM97.552 53.182h-8.225l-.11-.166a546.83 546.83 0 0 1 3.914-2.312c.092-.055.285 0 .396.046 1.262.746 2.515 1.51 4.025 2.422v.01Z"/></svg>