<svg xmlns="http://www.w3.org/2000/svg" fill="none" viewBox="0 0 210 80"><path fill="#28819C" fill-rule="evenodd" d="m163.473 40.134 11.122-12.992h-8.931l-6.482 8.124-7.095-8.124h-9.104l11.287 12.607-2.613 3.015a285.307 285.307 0 0 0-33.216-3.724v-5.878h16.794v-6.02h-23.748v11.606c-3.861-.11-7.723-.141-11.585-.092.141-.418.248-.852.323-1.294.24-.268.355-.577.355-1.503 0-1.695-.43-3.198-1.281-4.509a8.987 8.987 0 0 0-2.68-2.63c-.314-.21-.64-.402-.975-.576-1.439-.76-3.068-1.144-4.87-1.144H74.896v13.042c-4.506.45-8.996 1.01-13.478 1.67l-7.177-14.57H47.8L35 53h7.202l.835-1.661a280.894 280.894 0 0 1 14.355-2.78L59.625 53h7.35l-2.712-5.494c3.54-.5 7.087-.935 10.634-1.294v6.646h.215V53h7.244v-7.448l5.796-.375h1.894c.737 0 1.473-.064 2.2-.192a278.989 278.989 0 0 1 19.241-.092V53h24.294v-6.02h-17.34v-1.795a279.963 279.963 0 0 1 28.511 3.023L142.801 53h8.889l2.886-3.473c3.357.626 6.706 1.31 10.038 2.062L165.846 53H175l-11.527-12.866ZM46.535 44.325l2.77-5.544.695-1.52c.24-.492.463-.968.653-1.436.09-.2.165-.4.248-.6l.198.525c.166.443.364.91.58 1.403l.81 1.628 2.026 4.041-7.98 1.503Zm45.628-6.872c-.389.468-.902.827-1.538 1.078-.604.217-1.315.325-2.117.325h-.844c-2.092-.083-3.91-.125-4.862 0h-.554v-5.394h6.475c.802 0 1.513.092 2.125.293a3.95 3.95 0 0 1 1.009.417c.107.075.215.167.306.25a1.869 1.869 0 0 1 .587 1.412 2.469 2.469 0 0 1-.587 1.62Z" clip-rule="evenodd"/></svg>