<svg xmlns="http://www.w3.org/2000/svg" fill="none" viewBox="0 0 210 80"><path fill="#134C48" d="M57.061 39.972c0-6.084 4.891-9.972 10.916-9.972s10.92 3.888 10.92 9.972S74.005 50 67.976 50c-6.028 0-10.916-3.944-10.916-10.028Zm18.197 0c0-6.028-3.334-9.365-7.194-9.365s-7.197 3.333-7.197 9.365 3.305 9.417 7.197 9.417 7.194-3.388 7.194-9.417ZM82.944 49.722V30.277h7.028c7.225 0 10.835 4.856 10.835 9.75 0 4.895-3.61 9.713-10.835 9.713l-7.028-.018Zm3.725-.693h2.803c5.03 0 7.527-4.53 7.527-9.057 0-4.526-2.463-9-7.409-9h-2.914l-.007 18.057ZM108.98 49.722v-8.14l-5.387-9.366-1.121-1.939h4.288l5.549 9.584 6.143-9.583h.833l-6.591 10.277v9.167h-3.714ZM120.925 47.471l1.752-1.415c1.221 1.735 3.469 3.223 5.803 3.306 2.945.166 4.697-1.252 4.697-3.417 0-4.419-11.669-4.53-11.669-10.586 0-3.385 3.777-5.359 7.527-5.359 3.278 0 5.39.805 7.284 2.334l-1.696 1.388c-1.221-1.776-3.278-3.084-5.446-3.084-2.428 0-4.471 1.086-4.471 3.306 0 4.526 11.891 4.443 11.891 10.555 0 3.5-3.722 5.501-8.002 5.501-3.393 0-5.762-1.027-7.67-2.529ZM139.621 47.471l1.735-1.415c1.224 1.735 3.468 3.223 5.806 3.306 2.945.166 4.693-1.252 4.693-3.417 0-4.419-11.665-4.53-11.665-10.586.014-3.385 3.802-5.359 7.541-5.359 3.278 0 5.39.805 7.284 2.334l-1.693 1.388c-1.224-1.776-3.278-3.084-5.445-3.084-2.446 0-4.472 1.086-4.472 3.306 0 4.526 11.887 4.443 11.887 10.555 0 3.5-3.721 5.501-7.998 5.501-3.396 0-5.786-1.027-7.673-2.529ZM159.732 49.722V30.277h14v.694h-10.278v8.363h8.054v.694h-8.054v9.018h10.278v.694l-14-.018ZM183.288 49.722v-8.14l-6.508-11.305h4.284l5.55 9.584 6.146-9.583h.833l-6.591 10.277v9.167h-3.714ZM48.324 50c2.001-8.814-3.524-17.579-12.338-19.58-8.814-2.002-17.579 3.524-19.58 12.337a16.385 16.385 0 0 0 0 7.243h31.918Z"/></svg>