<svg xmlns="http://www.w3.org/2000/svg" fill="none" viewBox="0 0 210 80"><path fill="#F4661F" d="M56.09 26.798c-.635-1.44-1.643-2.663-2.902-3.514A7.619 7.619 0 0 0 48.978 22h-.013a7.542 7.542 0 0 0-4.187 1.284c-1.26.84-2.255 2.05-2.903 3.478l-8.997 18.21-.06.12a9.582 9.582 0 0 0-.803 4.415 9.354 9.354 0 0 0 1.295 4.282 8.76 8.76 0 0 0 3.047 3.095A8.043 8.043 0 0 0 40.424 58h.072c2.579 0 4.942-1.367 7.006-4.055.551-.72 1.091-1.427 1.619-2.123 2.675-3.539 4.954-6.55 7.557-8.829l6.143 13.7h6.657l-7.605-16.95c2.219-1.093 4.606-1.932 7.605-1.98v-6.43c-3.838.06-7.185 1.296-10.208 2.603l-3.191-7.114.012-.024ZM44.456 47.755a106.61 106.61 0 0 0-1.584 2.1c-1.307 1.715-2.1 1.715-2.363 1.715h-.072c-.408 0-.816-.108-1.164-.312a2.484 2.484 0 0 1-.875-.888 2.608 2.608 0 0 1-.372-1.2 2.772 2.772 0 0 1 .216-1.247l8.985-18.21.06-.12c.144-.347.383-.647.683-.851.3-.204.648-.312 1.008-.3.36 0 .708.096 1.008.3.3.204.54.492.684.84l3.358 7.473c-3.646 2.867-6.525 6.67-9.572 10.7ZM97.693 30.673c-3.167 0-5.446.996-7.15 3.143-1.499-1.955-4.078-3.143-6.801-3.143-2.243 0-3.887.984-5.386 2.255v-1.631h-5.662v25.335h5.974V42.525c0-2.723.504-5.854 4.438-5.854 2.747 0 4.007 1.715 4.007 5.386V56.62h5.974V42.477c0-4.186 1.188-5.806 4.246-5.806 2.832 0 4.211 1.931 4.211 5.89v14.06h5.974V41.468c0-3.25-.888-5.962-2.579-7.857-1.727-1.931-4.235-2.95-7.246-2.95v.011ZM123.833 30.673c-2.484 0-4.811.864-6.61 2.447V22.144h-5.974v34.5h5.926V54.69c1.871 1.644 4.33 2.543 6.994 2.543 3.19 0 6.201-1.415 8.445-3.994 2.183-2.52 3.407-5.83 3.419-9.261 0-3.515-1.284-6.886-3.587-9.381a11.951 11.951 0 0 0-3.947-2.891 11.346 11.346 0 0 0-4.69-1.02l.024-.012Zm6.25 13.304c0 3.922-2.975 7.245-6.49 7.245s-6.49-3.215-6.49-7.33c0-4.114 2.951-7.197 6.442-7.197a5.94 5.94 0 0 1 2.519.564 6.338 6.338 0 0 1 2.099 1.607c1.212 1.38 1.896 3.215 1.896 5.11h.024ZM174.72 30.71c-2.591 0-5.075 1.103-6.898 3.07-1.835 1.967-2.867 4.618-2.867 7.39v15.474h5.878V41.17c0-1.104.408-2.16 1.14-2.951.731-.78 1.715-1.224 2.747-1.224h3.634v-6.298h-3.634v.012ZM154.542 49.423c-1.151 1.151-2.663 1.8-4.234 1.787-2.555 0-4.763-1.655-5.842-4.342h17.526l.132-.852c.108-.78.144-1.56.12-2.34 0-7.293-5.374-13.015-12.224-13.015-1.56 0-3.095.336-4.523.996a11.698 11.698 0 0 0-3.802 2.795c-2.316 2.519-3.587 5.974-3.587 9.717 0 3.275 1.271 6.573 3.503 9.057 2.315 2.579 5.338 3.994 8.517 3.994 4.786 0 9.057-3.047 11.036-7.81h-6.646l.024.013Zm-4.402-12.728c2.795 0 5.254 2.003 5.962 4.798h-11.84c.756-3.023 3.527-4.798 5.878-4.798Z"/></svg>