<svg xmlns="http://www.w3.org/2000/svg" fill="none" viewBox="0 0 210 80"><path fill="#004D3D" d="M26 23v26.33h4.995V38.27H41.14v-4.283H30.995v-6.694h12.643V23H26Zm24.24 0h-4.77v26.33h4.77V23Zm13.645 26.33-.87 2.44c-1.177 3.348-2.497 5.23-6.05 5.23h-2.61v-3.683h2.19c.871 0 1.7-.529 2.273-2.106l.717-1.953-6.96-18.882h4.728l4.433 13.083 4.391-13.083h4.77l-7.001 18.953h-.01ZM77.162 23v10.53c1.065-2.066 3.255-3.236 5.978-3.236 4.28 0 7.074 3.083 7.074 7.519v11.73h-4.617V38.789c0-2.594-1.627-4.405-4.012-4.405-2.57 0-4.433 2.035-4.433 4.812v10.347h-4.617V23h4.627Zm29.707 17.071c0-3.418-2.119-5.788-5.262-5.788-3.142 0-5.302 2.37-5.302 5.788 0 3.419 2.119 5.789 5.302 5.789 3.143 0 5.262-2.37 5.262-5.789Zm-15.253 0c0-5.646 4.167-9.777 9.991-9.777 5.825 0 9.95 4.141 9.95 9.777 0 5.636-4.166 9.777-9.95 9.777-5.783 0-9.99-4.14-9.99-9.777ZM112.95 30.6h4.658v2.97c.942-1.912 2.835-3.276 5.528-3.276 3.03 0 5.108 1.282 5.937 3.612.87-1.953 3.296-3.612 6.316-3.612 4.125 0 6.776 2.971 6.776 7v12.259h-4.616V38.688c0-2.666-1.403-4.436-3.634-4.436-2.498 0-4.044 1.77-4.044 4.436v10.865h-4.616V38.688c0-2.666-1.403-4.436-3.634-4.436-2.457 0-4.013 1.77-4.013 4.436v10.865h-4.658V30.6Zm35.194 7.365h9.387c-.185-2.41-1.853-4.212-4.617-4.212-2.61 0-4.279 1.353-4.77 4.212Zm14.116 5.27c-.717 4.029-4.279 6.623-8.967 6.623-6.245 0-9.725-4.893-9.725-9.858 0-4.965 3.102-9.706 9.346-9.706s9.274 4.63 9.274 9.136c0 .641-.041 1.2-.071 1.577H148.04c.338 3.042 2.303 5.006 5.262 5.006 2.385 0 3.931-.977 4.432-2.788h4.545l-.02.01Zm.706 0h4.238c.184 1.8 1.587 2.93 3.665 2.93 1.822 0 3.03-.905 3.03-2.035 0-4.211-10.441-.183-10.441-8.2 0-3.306 2.917-5.646 6.848-5.646 4.463 0 7.534 2.442 7.718 6.135h-4.238c-.266-1.77-1.894-2.666-3.368-2.666-1.668 0-2.763.753-2.763 2.035 0 4.1 10.594-.417 10.594 8.16 0 3.57-2.917 5.9-7.38 5.9s-7.688-2.554-7.913-6.623l.01.01Zm16.696-10.417c0-1.445 1.106-2.524 2.508-2.524s2.498 1.079 2.498 2.524c0 1.444-1.096 2.512-2.498 2.512-1.402 0-2.508-1.068-2.508-2.512Zm4.606 0c0-1.252-.9-2.188-2.098-2.188s-2.109.936-2.109 2.188c0 1.25.911 2.187 2.109 2.187s2.098-.936 2.098-2.188Zm-3.193-1.384h1.341c.552 0 .993.275.993.793 0 .316-.164.55-.482.662.246.091.359.254.4.539.051.356.03.651.133.692v.05h-.696c-.072-.05-.062-.335-.113-.63-.031-.275-.153-.387-.45-.387h-.441v1.018h-.696v-2.747l.011.01Zm.696 1.22h.512c.286 0 .429-.121.429-.335 0-.214-.133-.336-.419-.336h-.522v.672Z"/></svg>