<svg xmlns="http://www.w3.org/2000/svg" fill="none" viewBox="0 0 210 80"><path fill="#000" d="M51 30.21h7.881V55.68h5.817V30.21h7.927v-5.679H51v5.69-.011Zm24.642 3.098h5.564v22.37h-5.564v-22.37Zm6.16-5.942c0-.666-.194-1.308-.573-1.87a3.34 3.34 0 0 0-1.514-1.24 3.44 3.44 0 0 0-1.95-.194 3.357 3.357 0 0 0-1.733.917 3.427 3.427 0 0 0-.93 1.721 3.297 3.297 0 0 0 .196 1.939 3.323 3.323 0 0 0 1.25 1.503c.551.367 1.205.562 1.882.562.895 0 1.755-.356 2.386-.987.631-.63.987-1.48.987-2.374v.023Zm18.08 10.944v-5.002h-6.034V27.4h-5.667v5.908h-3.958v5.002h3.958v10.463c0 2.099.643 3.854 1.87 5.059 1.216 1.204 2.994 1.847 5.14 1.847h4.692V50.55h-3.385c-2.053 0-2.65-.62-2.65-2.754V38.31h6.035Zm13.675 12.711c-3.567 0-6.149-2.719-6.149-6.459 0-3.74 2.582-6.459 6.149-6.459 3.568 0 6.15 3.006 6.15 6.46 0 3.452-2.582 6.458-6.15 6.458Zm10.773-6.459 2.753-11.185h-6.562l-.413 1.629c-1.663-1.136-3.832-1.881-6.654-1.881h-.092c-6.55 0-11.483 4.921-11.483 11.437 0 6.517 4.933 11.438 11.483 11.438h.092c2.788 0 4.979-.7 6.665-1.824l.402 1.549h6.562L124.33 44.55v.011Zm23.644-8.673c-1.687-1.79-4.061-2.73-6.861-2.73-2.34 0-4.462.734-5.965 2.03v-1.812h-5.553v22.382h5.553V42.12c.837-2.398 2.57-3.66 5.025-3.66 3.12 0 4.795 2.41 4.795 4.67v12.63h5.553V43.036c0-2.902-.884-5.38-2.547-7.147ZM156.578 56c1.87 0 3.384-1.503 3.384-3.361 0-1.859-1.514-3.362-3.384-3.362-1.87 0-3.384 1.503-3.384 3.362 0 1.858 1.514 3.361 3.384 3.361Z"/></svg>