<svg xmlns="http://www.w3.org/2000/svg" fill="none" viewBox="0 0 210 80"><path fill="#091F40" d="M111.491 39.013c4.112 0 6.866 3.207 6.866 7.978v8.877c0 .117-.117.235-.233.235h-4.034c-.116 0-.233-.117-.233-.235V47.03c0-1.877-.892-3.833-3.374-3.833h-.078c-1.978.118-3.491 1.76-3.53 3.716v8.955c0 .117-.116.235-.233.235h-3.995c-.116 0-.233-.117-.233-.235V39.443c0-.117.078-.235.233-.235h3.84c.117 0 .233.118.233.235v1.486c1.513-1.33 3.026-1.916 4.771-1.916Zm61.364 14.079c-.077.078-.039.234.039.312 2.405 2.425 5.004 2.738 7.254 2.738 3.18 0 5.546-1.252 6.516-3.324.31-.665.466-1.369.466-2.112 0-4.302-3.685-5.123-6.905-5.319-2.599-.156-2.599-1.095-2.599-1.368 0-1.095 1.746-1.213 2.522-1.213 1.474 0 2.521.352 3.413 1.134.078.079.233.079.31 0l2.289-2.698c.077-.117.077-.235-.039-.313-1.668-1.408-3.413-1.994-6.051-1.994-1.59-.04-3.142.352-4.461 1.134-1.474.821-2.405 2.385-2.366 4.067 0 3.011 2.405 4.85 6.711 5.162 2.443.157 2.754.86 2.754 1.486 0 .9-1.203 1.369-2.366 1.369h-.117a7.13 7.13 0 0 1-4.887-1.916.235.235 0 0 0-.311 0v.039l-2.172 2.816Zm-35.379-13.923h-3.995c-.117 0-.233.118-.233.235v.704c-1.319-1.095-2.987-1.252-4.577-1.252h-.078c-5.042 0-8.301 3.364-8.301 8.487 0 2.698.815 4.888 2.366 6.413 1.436 1.408 3.453 2.19 5.858 2.19h.232c1.436-.039 3.103-.039 4.5-1.368v1.251c0 .117.116.235.233.235h3.995c.116 0 .233-.118.233-.235V39.404c0-.117-.117-.235-.233-.235Zm-5.081 11.146c-.893.939-2.095 1.447-3.375 1.369-2.521 0-4.228-1.76-4.228-4.38s1.668-4.341 4.228-4.341c3.064 0 4.344 2.19 4.344 4.302a4.775 4.775 0 0 1-.969 3.05ZM83.679 35.102v-3.95a.266.266 0 0 0-.271-.274H68.9a.266.266 0 0 0-.272.274v24.599c0 .156.117.274.272.274h3.918a.266.266 0 0 0 .271-.274V45.739c0-.156.116-.273.272-.273h7.292a.266.266 0 0 0 .271-.274v-3.95a.266.266 0 0 0-.271-.274h-7.292a.266.266 0 0 1-.272-.274V35.69c0-.157.116-.274.272-.274h10.007c.194-.04.31-.157.31-.313Zm85.336 15.682c-.077-.078-.233-.117-.31-.039a4.212 4.212 0 0 1-2.754 1.017c-2.444 0-4.151-1.799-4.151-4.302 0-2.503 1.707-4.302 4.151-4.302 1.008 0 1.978.391 2.754 1.017.077.078.233.078.31 0l2.599-2.777a.238.238 0 0 0 0-.312c-1.513-1.526-3.53-2.347-5.702-2.269-5.236 0-8.611 3.364-8.611 8.682 0 5.319 3.375 8.643 8.611 8.643 2.133.078 4.189-.782 5.663-2.307a.238.238 0 0 0 0-.313l-2.56-2.738Zm-20.83 5.28c.117 0 .233-.118.233-.235v-3.676c0-.117-.077-.235-.233-.235h-1.978c-1.163-.039-1.706-.625-1.706-1.877v-6.296h3.646a.224.224 0 0 0 .232-.235v-4.067c0-.117-.077-.235-.232-.235h-3.608V35.65c0-.118-.116-.235-.232-.235h-4.034c-.117 0-.233.117-.233.235V50.04c0 3.794 2.133 6.023 5.896 6.023h2.249ZM99.812 39.169h-3.995c-.117 0-.233.118-.233.235v.704c-1.32-1.095-2.987-1.252-4.577-1.252h-.078c-5.043 0-8.3 3.364-8.3 8.487 0 2.698.814 4.888 2.365 6.413 1.436 1.408 3.453 2.19 5.858 2.19h.232c1.435-.039 3.103-.039 4.5-1.368v1.251c0 .157.116.235.233.235h3.995c.116 0 .232-.118.232-.235V39.404c0-.157-.116-.235-.232-.235ZM94.73 50.315c-.892.939-2.133 1.447-3.374 1.369-2.521 0-4.228-1.76-4.228-4.38s1.668-4.341 4.228-4.341c3.064 0 4.344 2.19 4.344 4.302a4.775 4.775 0 0 1-.97 3.05Zm56.093 5.749h4.034c.117 0 .233-.118.233-.235V39.404c0-.117-.078-.235-.233-.235h-4.034c-.116 0-.233.079-.233.235v16.425c0 .117.117.235.233.235Zm4.577-21.861c0-3.285-4.965-3.285-4.965 0s4.965 3.285 4.965 0Z"/><path fill="#E53C2E" d="m61.802 26.147-4.15 6.53c-.078.118-.233.196-.388.118-9.658-4.889-20.79 4.067-30.566 1.955-.077-.039-.155-.078-.232-.156l-6.4-9.816c-.117-.196-.078-.47.116-.587.077-.078.194-.078.31-.078 2.483.587 4.926.978 7.448 1.252 14.933.82 22.963-8.213 33.785.351.155.079.155.274.077.43Zm-12.18 18.771c.078.04.156 0 .233-.078l5.082-7.939c.038-.078.038-.195-.078-.235h-.039c-7.33-2.541-14.158 2.347-24.592 2.62-.233 0-.427.235-.427.47a.3.3 0 0 0 .078.196l11.288 17.52c.077.117.232.195.388.117a.33.33 0 0 0 .155-.274L39.266 46.21c0-.078.039-.196.116-.235.815-.313 7.215-2.503 10.24-1.056Z"/><path fill="#091F40" d="M190 37.41a1.48 1.48 0 0 1-1.474 1.486 1.48 1.48 0 0 1-1.474-1.486 1.48 1.48 0 0 1 1.474-1.487A1.48 1.48 0 0 1 190 37.41Z"/><path fill="#091F40" d="M188.565 38.66c.659.04 1.163-.468 1.202-1.133v-.117c0-.665-.543-1.213-1.202-1.213-.66 0-1.203.548-1.203 1.212-.038.665.427 1.213 1.086 1.252h.117Z"/><path fill="#091F40" d="M188.798 37.566c.271-.04.426-.313.387-.547-.038-.235-.271-.43-.504-.392h-.698v1.526h.233v-.548h.31l.466.548h.232v-.04l-.426-.547Z"/><path fill="#091F40" d="M188.72 36.823c.155 0 .272.117.272.274a.267.267 0 0 1-.272.273h-.465v-.547h.465Z"/></svg>