<svg xmlns="http://www.w3.org/2000/svg" fill="none" viewBox="0 0 210 80"><path fill="#020202" d="M57.353 37.81c-.082.207-.045.379-.045.542.036 5.283.081 10.565.117 15.848v.271c.018.208-.045.299-.28.299h-5.5c-.253 0-.326-.09-.299-.317.01-.072 0-.154 0-.226V29.361c0-.607-.072-.543.525-.543 2.044 0 4.098 0 6.142-.01.344 0 .543.091.724.399a9662.47 9662.47 0 0 0 9.923 16.137c.081.136.145.29.317.416.08-.199.045-.361.045-.515-.046-5.111-.1-10.231-.145-15.342v-.868c0-.154.063-.226.217-.217h5.455c.416 0 .425 0 .425.425v25.273c.009.172-.055.263-.235.254H68.28c-.317 0-.489-.1-.651-.362-3.311-5.391-6.63-10.782-9.96-16.174-.081-.135-.144-.298-.316-.425ZM101.686 31.477c-.588-.136-1.131-.226-1.683-.235-1.52-.018-2.261.877-2.514 2.108-.2.977-.1 1.98-.118 2.967 0 .226.154.18.28.18H102.871c.343 0 .352 0 .352-.352v-4.026c0-.434-.036-.407.38-.407h5.138c.425 0 .38-.018.38.407v3.98c0 .399-.054.408.389.408h3.528c.371 0 .38 0 .38.37v3.8c0 .334 0 .343-.362.343h-3.573c-.353 0-.362 0-.362.344v6.775c0 .371.064.724.163 1.086.217.76.733 1.167 1.502 1.266.705.09 1.402.036 2.089-.145.073-.018.145-.036.226-.054.018.054.046.09.046.127.027 1.293.045 2.596.081 3.89 0 .226-.027.352-.28.425-1.855.515-3.736.633-5.618.199-2.234-.525-3.491-2-3.898-4.225a11.763 11.763 0 0 1-.181-2.189V41.246c.009-.153-.046-.235-.208-.217H97.778c-.452 0-.407-.045-.407.425v12.773c0 .597.081.543-.534.543h-4.993c-.56 0-.497.045-.497-.48V41.608c0-.09-.01-.18 0-.271.036-.253-.082-.308-.308-.299-.886.01-1.773 0-2.66 0-.352 0-.352 0-.361-.343V36.85c0-.316 0-.325.325-.325h2.244c.235 0 .533.108.696-.064.145-.154.045-.434.045-.66 0-.823-.009-1.646.082-2.47.126-1.184.362-2.342.913-3.419.815-1.583 2.108-2.596 3.782-3.102 1.854-.561 3.735-.543 5.617-.136.344.072.353.09.326.407-.118 1.456-.245 2.913-.371 4.423l.009-.027Z"/><path fill="#010202" d="M121.921 39.04c.09-.136.154-.227.208-.317 1.149-1.737 2.804-2.56 4.848-2.705a7.296 7.296 0 0 1 2.497.253 5.396 5.396 0 0 1 3.148 2.352c.09.145.181.28.271.444.154-.11.226-.263.326-.39.995-1.293 2.234-2.198 3.862-2.514 1.231-.244 2.47-.253 3.673.09 1.836.516 3.094 1.719 3.853 3.447.534 1.22.751 2.505.751 3.835V54.39c0 .389 0 .389-.407.389h-5.183c-.434 0-.416.027-.416-.425v-9.245c0-.67-.036-1.339-.163-2.008a2.898 2.898 0 0 0-.452-1.14c-.407-.615-.986-.94-1.719-.986-1.321-.072-2.297.507-2.867 1.71-.335.705-.462 1.456-.462 2.225v9.245c0 .416-.211.624-.633.624h-4.903c-.497 0-.47.072-.47-.462v-9.706c0-.606-.027-1.22-.208-1.809-.28-.95-.823-1.646-1.854-1.79-1.068-.154-2.009.08-2.687.994-.588.787-.814 1.692-.859 2.66-.009.199-.009.398-.009.597V54.508c.018.217-.064.289-.29.289-.66-.01-1.311 0-1.972 0h-3.347c-.497 0-.452 0-.452-.443V37.049c0-.56-.054-.506.525-.506h5.083c.19-.018.236.081.236.244v1.827c0 .127-.028.263.054.453l.018-.028Z"/><path fill="#01BA71" d="M32.93 54.734c-2.135-1.475-3.89-3.429-5.564-5.355-2.587 1.908-5.536 3.5-8.557 4.477-.199-.072-.145-.38-.262-.552 3.392-7.354 7.345-14.617 10.656-21.917-.154-.01-.326.144-.47-.027 2.306-.733 4.866-.634 7.218-.055 7.924 2.072 9.498 11.38 9.19 18.426-.009.407-.009.416-.407.371-2.062-.217-4.116-.542-6.124-1.094-.38-.1-.38-.1-.516.253-.868 2.379-2.035 4.613-3.41 6.739-.19-.054-.316-.172-.443-.298.235-.046.172-.227.145-.362-.85-3.953-1.448-7.952-2.415-11.877-.823 2.17-2.289 3.907-4.026 5.39-.108.1-.154.182-.072.308.57.824 1.23 1.584 1.881 2.343.905 1.023 1.891 1.936 2.922 2.814.127.108.271.208.253.407v.009Zm11.858-4.758c-1.872-2.162-3.527-4.216-5.49-6.296-.118 1.456-.317 2.732-.733 4.106-.253.788-.235.806.57 1.023 1.89.497 3.69 1.022 5.662 1.167h-.009Z"/><path fill="#020202" d="M166.2 38.994c.117-.063.153-.18.217-.271 1.103-1.656 2.722-2.434 4.64-2.687a6.45 6.45 0 0 1 2.28.118c2.288.533 3.79 1.935 4.541 4.143.316.94.479 1.926.479 2.921V54.39c0 .362 0 .37-.38.37h-5.274c-.398 0-.398 0-.398-.397v-9.335c0-.67-.036-1.34-.19-2a3.364 3.364 0 0 0-.298-.814c-.362-.705-.932-1.112-1.71-1.23-1.492-.226-2.713.462-3.329 1.846-.325.723-.416 1.492-.416 2.279v9.154c0 .58.055.507-.524.507H160.483c-.109 0-.163-.064-.163-.172V37.022c0-.533-.063-.506.479-.506h4.903c.516 0 .452-.027.461.479v1.692c0 .1-.036.208.055.316l-.018-.009ZM193.21 50.32c.081.09.045.198.045.307.018 1.24.027 2.47.054 3.709 0 .235-.063.343-.298.416-1.909.515-3.826.642-5.744.144-1.927-.497-3.13-1.745-3.627-3.672-.236-.914-.29-1.836-.29-2.768v-6.82c0-.11-.009-.218 0-.317.027-.226-.081-.29-.289-.28-.67.008-1.348 0-2.017 0-.417 0-.625-.212-.625-.634v-3.392c0-.588-.036-.497.525-.497.687 0 1.375-.01 2.062 0 .236 0 .308-.064.308-.308-.009-1.33 0-2.66 0-3.98v-.317c0-.135.063-.19.19-.18h5.31c.398 0 .398 0 .398.388v4.026c0 .361 0 .37.371.37h3.527c.371 0 .371 0 .371.38v3.755c0 .38 0 .388-.407.388h-3.437c-.452 0-.434-.045-.434.408v6.458c0 .425.018.85.135 1.266.227.806.715 1.23 1.547 1.34.688.09 1.375.026 2.045-.145.09-.019.162-.082.262-.037l.018-.009Z"/><path fill="#019C51" d="M29.184 31.387c.1.117 0 .199-.045.29-.162.343-.343.678-.506 1.021-1.212 2.443-2.443 4.885-3.618 7.345-.95 1.99-1.99 3.944-2.931 5.943-.914 1.945-1.918 3.845-2.85 5.78-.244.507-.461 1.023-.696 1.538-.064.064-.118.127-.208.218-.208-.625-.335-1.23-.47-1.828a32.37 32.37 0 0 1-.86-7.4c0-1.935.308-3.825 1.085-5.616.76-1.746 1.9-3.194 3.429-4.324 1.954-1.457 4.125-2.406 6.53-2.823"/><path fill="#020202" d="M155.77 45.634V54.462c.027.217-.054.308-.281.299-.289-.018-.578 0-.868 0h-4.441c-.435 0-.435 0-.435-.407v-17.44c0-.398 0-.407.389-.407h5.229c.47 0 .407 0 .407.434v8.702-.01Z"/><path fill="#010202" d="M79.85 45.634v-8.558c0-.09.009-.18 0-.27-.028-.245.08-.308.316-.308h5.364c.317 0 .317 0 .326.334v17.621c.036.244-.082.308-.317.308h-5.364c-.326 0-.326 0-.326-.425v-8.702Z"/><path fill="#01BA71" d="M149.745 34.914c-.289.064-.37-.153-.461-.343a7.003 7.003 0 0 1-.416-1.348c-.235-1.085-.262-2.171 0-3.256.362-1.484 1.212-2.642 2.415-3.555 1.248-.941 2.678-1.502 4.17-1.918.688-.19 1.393-.335 2.099-.452.172-.027.407-.136.488.162-.163.028-.262.163-.352.272-.444.534-.887 1.076-1.321 1.619-.787.986-1.565 1.972-2.352 2.949-.706.877-1.42 1.737-2.126 2.605-.714.886-1.42 1.773-2.135 2.66-.253.316-.271.307 0 .605h-.009ZM79.325 34.724c-.154-.017-.181-.144-.226-.253-.561-1.474-.742-2.985-.362-4.532.353-1.474 1.203-2.614 2.397-3.518 1.248-.95 2.677-1.511 4.17-1.927.687-.19 1.393-.335 2.099-.452.171-.027.407-.136.488.162-.226.082-.353.272-.498.453-.18.226-.352.452-.533.678-.597.742-1.194 1.484-1.791 2.234-.407.507-.814 1.014-1.23 1.52-.588.733-1.185 1.466-1.773 2.19-.58.714-1.176 1.428-1.746 2.152-.335.425-.724.814-.995 1.294Z"/><path fill="#019E54" d="M149.745 34.914c-.271-.298-.262-.289 0-.606.715-.886 1.421-1.773 2.135-2.659.706-.868 1.42-1.737 2.126-2.605.787-.977 1.565-1.972 2.352-2.949.434-.543.877-1.085 1.32-1.62.091-.117.19-.243.353-.27a24.541 24.541 0 0 1-.19 3.826c-.117.913-.334 1.8-.687 2.641-.923 2.216-2.578 3.582-4.876 4.18a5.485 5.485 0 0 1-2.542.063h.009ZM79.325 34.724c.262-.479.651-.868.995-1.293.57-.724 1.167-1.438 1.746-2.153.588-.733 1.185-1.456 1.773-2.189.407-.506.823-1.013 1.23-1.52.597-.741 1.194-1.483 1.79-2.234.182-.226.363-.452.535-.678.135-.181.262-.371.497-.453.054 1.04-.027 2.072-.109 3.103-.09 1.113-.307 2.207-.723 3.248-1.086 2.713-3.12 4.088-6.007 4.26-.578.036-1.157.081-1.727-.09Z"/><path fill="#019C51" d="M32.676 54.318c-1.031-.878-2.017-1.8-2.922-2.814-.66-.76-1.311-1.52-1.881-2.343-.082-.126-.036-.217.072-.307 1.737-1.484 3.203-3.22 4.026-5.391.967 3.925 1.564 7.915 2.415 11.877.027.135.09.316-.145.361h-.018a.13.13 0 0 0-.1-.08c-.198-.1-.38-.236-.533-.39-.027-.027-.064-.045-.09-.072M44.78 49.976c-.643 0-1.204-.154-1.765-.245-1.32-.208-2.605-.57-3.898-.922-.796-.217-.814-.226-.57-1.023.29-.904.443-1.827.597-2.75.072-.416.09-.84.136-1.356.714.67 1.257 1.41 1.863 2.09.606.678 1.194 1.374 1.8 2.062.606.687 1.194 1.402 1.827 2.144h.01Z"/></svg>