<svg xmlns="http://www.w3.org/2000/svg" fill="none" viewBox="0 0 210 80"><path fill="#28463A" d="M150.571 28.468h5.11l4.664 19.888 1.728-2.852c3.835-6.527 4.345-9.438 4.132-11.87-.209-2.392-2.005-3.807-4.62-3.374h-.036a5.61 5.61 0 0 1 3.954-2.59c2.811-.245 3.869 1.576 4.028 3.388.263 2.97-1.942 7.607-6.445 15.23-6.498 10.997-10.384 13.373-13.953 13.686-2.142.187-4.479-.614-4.479-2.888 0-2.454 2.514-3.128 2.514-3.128.202 2.309 1.436 3.572 3.578 3.385 1.918-.168 3.653-.902 6.244-4.162l-6.419-24.713Z"/><path fill="#28463A" d="M135.16 36.414h9.942c0-3.807-1.254-6.54-4.479-6.54-3.224 0-5.105 2.815-5.464 6.54m14.601.455v.87h-14.737c-.269 6.332 3.18 9.933 7.704 9.933a7.638 7.638 0 0 0 6.718-3.518l.582.29c-1.075 3.848-4.255 6.539-9.137 6.539-6.45 0-10.39-4.595-10.39-10.678 0-6.913 4.568-11.838 10.524-11.838 5.733 0 8.733 3.6 8.733 8.401M127.402 20h-5.016v30.57h5.016V20ZM80.917 36.414h9.944c0-3.807-1.254-6.54-4.479-6.54s-5.105 2.815-5.463 6.54m14.6.455v.87H80.784c-.268 6.332 3.18 9.933 7.704 9.933a7.634 7.634 0 0 0 6.718-3.518l.582.29c-1.075 3.848-4.255 6.539-9.137 6.539-6.45 0-10.39-4.595-10.39-10.678 0-6.913 4.568-11.838 10.525-11.838 5.733 0 8.733 3.602 8.733 8.402ZM102.793 38.939c0 5.05 2.373 8.94 6.807 8.94a6.335 6.335 0 0 0 4.568-1.698V35.587c0-3.56-1.88-5.671-4.747-5.671-4.076 0-6.629 3.6-6.629 9.023M114.165 20h5.016v30.569h-5.195l.179-3.436c-1.791 2.277-4.03 3.85-7.21 3.85-5.464 0-9.002-4.181-9.002-10.224 0-7.657 4.836-12.252 11.151-12.252a7.771 7.771 0 0 1 5.061 1.531V20ZM68.633 35.338c0-2.731-.984-4.014-3.493-4.014-2.06 0-3.717.993-5.285 2.151V50.57H54.84V35.338c0-2.731-1.03-4.014-3.537-4.014-2.06 0-3.718.993-5.285 2.151V50.57H41V29.238h5.02v3.205c2.016-2.152 4.3-3.973 7.927-3.973 3.225 0 5.016 1.283 5.645 4.097 2.016-2.151 4.568-4.097 8.151-4.097 4.076 0 5.912 2.277 5.912 6.705v15.397h-5.016l-.005-15.234Z"/></svg>