<svg xmlns="http://www.w3.org/2000/svg" fill="none" viewBox="0 0 210 80"><path fill="#000" d="M67.07 28.179c0 4.86 3.016 8.085 7.361 8.085 2.268 0 4.303-.937 5.217-2.372l.15 2.14h1.769v-8.699h-7.269v1.874h5.284v.763c0 2.836-2.55 4.27-4.977 4.27-3.123 0-5.374-2.197-5.374-6.011s2.143-6.236 5.458-6.236c2.118 0 3.82 1.004 4.477 3.01h2.185c-.548-3.026-3.14-5.033-6.613-5.033-4.627 0-7.659 3.425-7.659 8.217l-.008-.008Zm24.599 4.494c-.3 1.087-1.504 1.85-2.991 1.85-1.77 0-2.966-1.07-3.099-3.135h7.992v-.746c0-3.4-1.903-5.597-4.935-5.597-3.032 0-5.042 2.197-5.042 5.646 0 3.45 2.01 5.573 5.067 5.573 2.468 0 4.453-1.41 4.935-3.59h-1.928Zm-3.074-5.904c1.661 0 2.899 1.045 2.949 3.243h-5.94c.067-2.115 1.288-3.243 2.99-3.243Zm9.453 3.59c0-2.396 1.438-3.44 3.033-3.44 1.287 0 2.575.547 2.575 3.026v6.062h2.052v-6.518c0-2.662-1.221-4.444-4.104-4.444-1.487 0-2.841.696-3.539 1.94l-.216-1.633h-1.853V35.99h2.052v-5.63Zm17.994 2.314c-.307 1.087-1.504 1.85-2.991 1.85-1.769 0-2.965-1.07-3.098-3.135h7.991v-.746c0-3.4-1.902-5.597-4.934-5.597s-5.043 2.197-5.043 5.646c0 3.45 2.002 5.573 5.059 5.573 2.468 0 4.461-1.41 4.935-3.59h-1.919Zm-3.074-5.904c1.653 0 2.899 1.045 2.941 3.243h-5.94c.067-2.115 1.296-3.243 2.999-3.243Zm6.463 6.178c.067 2.073 1.662 3.308 4.079 3.308s4.079-1.285 4.079-3.25c0-1.5-.964-2.504-2.733-2.944l-1.836-.456c-.914-.24-1.57-.613-1.57-1.46 0-.845.723-1.55 1.944-1.55s1.985.655 2.01 1.767h1.902c-.091-2.024-1.57-3.334-3.887-3.334-2.318 0-3.863 1.285-3.863 3.2 0 1.352.831 2.463 2.816 2.986l1.836.48c.806.2 1.42.59 1.42 1.419 0 1.11-1.046 1.525-2.159 1.525-1.355 0-2.185-.613-2.16-1.7h-1.878v.009ZM130.92 22.73c.739 0 1.313-.564 1.313-1.31 0-.746-.565-1.31-1.313-1.31s-1.288.564-1.288 1.31c0 .746.549 1.31 1.288 1.31Zm-1.005 2.612h2.052v10.655h-2.052V25.343Zm4.228 7.604c.067 2.073 1.662 3.308 4.079 3.308 2.418 0 4.087-1.285 4.087-3.25 0-1.5-.963-2.504-2.733-2.944l-1.836-.456c-.913-.24-1.57-.613-1.57-1.46 0-.845.723-1.55 1.944-1.55s1.986.655 2.011 1.767h1.902c-.083-2.024-1.57-3.334-3.888-3.334-2.318 0-3.863 1.285-3.863 3.2 0 1.352.831 2.463 2.816 2.986l1.836.48c.806.2 1.421.59 1.421 1.419 0 1.11-1.047 1.525-2.16 1.525-1.354 0-2.185-.613-2.16-1.7h-1.877l-.009.009ZM67.312 42.98h4.95v13.748h2.169V42.98h4.934v-2.007H67.313v2.007Zm16.024 13.731V50.85c0-2.14 1.438-3.2 3.099-3.2 1.221 0 2.509.547 2.509 3.026v6.061h2.052V50.22c0-2.662-1.222-4.445-3.996-4.445-1.662 0-2.966.738-3.672 1.9V40.7h-2.052v16.02h2.052l.008-.009Zm17.778-3.308c-.299 1.086-1.504 1.849-2.99 1.849-1.77 0-2.966-1.07-3.1-3.134h7.992v-.747c0-3.4-1.902-5.597-4.934-5.597s-5.043 2.198-5.043 5.647c0 3.45 2.01 5.572 5.068 5.572 2.467 0 4.452-1.41 4.934-3.59h-1.927Zm-3.074-5.904c1.653 0 2.899 1.045 2.949 3.242h-5.94c.067-2.114 1.288-3.242 2.991-3.242Zm13.516-1.51c-1.745-.372-3.472.109-4.104 1.46l-.108-1.351h-1.902v10.638h2.052V51.09c0-2.048 1.088-3.308 3.032-3.308h1.03V45.99Zm5.973-.215c-2.667 0-4.478 1.46-4.478 3.682h1.786c0-1.26.964-2.048 2.6-2.048 1.438 0 2.534.613 2.534 2.421v.307l-3.273.257c-2.426.199-3.979 1.352-3.979 3.375 0 2.023 1.354 3.225 3.647 3.225 1.753 0 3.082-.763 3.647-1.982l.199 1.725h1.77v-6.691c0-2.786-1.703-4.27-4.453-4.27Zm2.467 6.36c0 2.222-1.404 3.276-3.04 3.276-1.329 0-2.16-.59-2.16-1.7 0-1.029.698-1.75 2.467-1.9l2.733-.24v.564Zm10.75-6.36c-1.703 0-3.215.763-3.938 2.223l-.125-1.916h-1.819v15.423h1.994v-6.575c.714 1.351 2.185 2.09 3.888 2.09 3.165 0 4.992-2.439 4.951-5.69-.017-3.266-1.903-5.555-4.951-5.555Zm-.416 9.395c-2.101 0-3.339-1.575-3.339-3.748 0-2.172 1.238-3.773 3.339-3.773 2.102 0 3.315 1.567 3.315 3.773 0 2.206-1.221 3.748-3.315 3.748Zm15.053-1.766c-.307 1.086-1.512 1.849-2.991 1.849-1.769 0-2.974-1.07-3.107-3.134h7.992v-.747c0-3.4-1.894-5.597-4.934-5.597-3.041 0-5.043 2.198-5.043 5.647 0 3.45 2.01 5.572 5.067 5.572 2.468 0 4.453-1.41 4.935-3.59h-1.919Zm-3.082-5.904c1.661 0 2.908 1.045 2.949 3.242h-5.94c.067-2.114 1.288-3.242 2.991-3.242Zm11.248 9.494c1.57 0 3.016-.721 3.622-1.832l.133 1.567h1.902V46.073h-2.027v5.622c0 2.222-.98 3.49-2.907 3.49-1.504 0-2.559-.762-2.559-3.159v-5.953h-2.052v6.625c0 2.57 1.354 4.295 3.888 4.295Zm11.705-.265v-8.955h2.068v-1.7h-2.068v-3.334h-2.035v3.334h-2.094v1.7h2.094v8.955h2.035Zm4.984-13.267c.74 0 1.313-.564 1.313-1.31 0-.747-.565-1.31-1.313-1.31-.747 0-1.287.563-1.287 1.31 0 .746.548 1.31 1.287 1.31Zm-1.005 2.612h2.052v10.655h-2.052V46.073Zm4.295 5.34c0 3.333 2.052 5.58 5.042 5.58 2.576 0 4.544-1.55 4.96-3.855h-1.961c-.374 1.285-1.503 2.048-2.857 2.048-1.919 0-3.141-1.485-3.141-3.79 0-2.305 1.288-3.79 3.19-3.79 1.313 0 2.443.697 2.8 2.074h1.96c-.348-2.33-2.184-3.897-4.735-3.897-3.098 0-5.242 2.288-5.242 5.646l-.016-.016Zm11.314 2.264c.067 2.072 1.662 3.308 4.079 3.308 2.418 0 4.079-1.285 4.079-3.25 0-1.501-.964-2.505-2.725-2.944l-1.836-.456c-.913-.24-1.57-.614-1.57-1.46 0-.845.723-1.55 1.944-1.55s1.986.655 2.011 1.766h1.902c-.092-2.023-1.57-3.333-3.888-3.333-2.318 0-3.863 1.285-3.863 3.2 0 1.352.831 2.463 2.816 2.986l1.836.48c.806.2 1.421.59 1.421 1.418 0 1.111-1.047 1.526-2.16 1.526-1.354 0-2.185-.614-2.16-1.7h-1.877l-.009.008Z"/><path fill="url(#a)" fill-rule="evenodd" d="M37.863 21.604c-3.107 0-5.633 2.52-5.633 5.622v2.769a.969.969 0 0 0 1.047.962c1.77-.133 3.78-.24 6.04-.323a.956.956 0 0 1 .988.92l.025.68a.957.957 0 0 1-.93.986c-5.118.191-8.864.506-11.282.93-1.96.348-3.93.853-5.383 1.658-1.42.787-2.135 1.74-2.135 3.001 0 1.178.84 2.164 2.4 3.01 1.53.821 3.382 1.294 4.587 1.534.34.066.656.133.947.183.573.107 1.088-.34 1.088-.93v-5.29c0-.53.432-.961.963-.961h.682c.531 0 .963.431.963.962V50.41c0 3.1 2.526 5.621 5.633 5.621 3.106 0 5.632-2.52 5.632-5.621v-3.234a.966.966 0 0 0-1.038-.962c-1.737.133-3.706.232-5.899.315a.955.955 0 0 1-.988-.92l-.025-.68a.957.957 0 0 1 .93-.987c5.117-.19 8.864-.506 11.282-.929 1.96-.348 3.929-.854 5.383-1.658 1.42-.788 2.135-1.741 2.135-3.002 0-1.26-.806-2.189-2.302-3.018-1.478-.813-3.322-1.285-4.66-1.526-.399-.074-.773-.132-1.105-.19a.942.942 0 0 0-1.096.937v5.762c0 .531-.432.962-.964.962h-.681a.963.963 0 0 1-.964-.962V27.226c0-3.102-2.525-5.622-5.632-5.622h-.008Zm9.071 9.345a.98.98 0 0 1-.83-.962v-2.761c0-4.536-3.697-8.226-8.241-8.226s-8.241 3.69-8.241 8.226v3.233a.98.98 0 0 1-.84.962c-.398.058-.772.116-1.12.183-2.02.356-4.345.92-6.198 1.948C19.587 34.597 18 36.264 18 38.826s1.944 4.312 3.771 5.298c1.87 1.004 4.03 1.534 5.3 1.8a47.33 47.33 0 0 0 1.712.315.982.982 0 0 1 .839.97v3.234c0 4.535 3.697 8.225 8.24 8.225 4.545 0 8.241-3.69 8.241-8.225v-3.69c0-.481.366-.887.84-.962.448-.066.872-.133 1.262-.199 2.019-.357 4.345-.92 6.197-1.949 1.878-1.044 3.464-2.711 3.464-5.273s-1.827-4.287-3.647-5.29c-1.844-1.012-4.012-1.543-5.449-1.808a50.292 50.292 0 0 0-1.836-.307v-.016Z" clip-rule="evenodd"/><defs><linearGradient id="a" x1="17.992" x2="57.801" y1="19" y2="58.875" gradientUnits="userSpaceOnUse"><stop stop-color="#04F"/><stop offset="1" stop-color="#B8D8EF"/></linearGradient></defs></svg>