<svg xmlns="http://www.w3.org/2000/svg" fill="none" viewBox="0 0 210 80"><path fill="#4553D6" d="m46.865 46.303-10.481-6.271 10.481-6.272a1.27 1.27 0 0 0 0-2.18L34.61 24.24a1.697 1.697 0 0 0-1.741 0l-12.255 7.351a1.292 1.292 0 0 0-.438.427 1.279 1.279 0 0 0 .438 1.742l10.481 6.26-10.48 6.294a1.292 1.292 0 0 0-.439.427 1.279 1.279 0 0 0 .438 1.742l12.265 7.329c.535.32 1.197.32 1.731 0l12.255-7.34a1.27 1.27 0 0 0 0-2.18v.011ZM24.257 32.777s-.074-.117-.042-.171c0-.021.032-.032.043-.043l9.38-5.598a.194.194 0 0 1 .214 0l9.37 5.598a.125.125 0 0 1 .053.171c-.01.022-.032.032-.053.043l-9.477 5.673-9.487-5.673Zm19.018 14.68s-.032.032-.053.043l-9.37 5.609a.25.25 0 0 1-.214 0l-9.38-5.61s-.033-.02-.043-.042c-.032-.064-.011-.139.043-.171l9.487-5.663 9.477 5.663a.125.125 0 0 1 .053.171Z"/><path fill="#202538" d="m72.774 51.218-4.819-8.953c1.261-.545 2.244-1.315 2.928-2.308.694-1.004 1.036-2.222 1.036-3.665 0-2.126-.683-3.75-2.062-4.882-1.367-1.122-3.312-1.689-5.833-1.689h-7.308a.429.429 0 0 0-.428.428V51.11c0 .235.193.428.428.428h3.034a.429.429 0 0 0 .428-.428v-7.927h4.145l4.22 8.13a.408.408 0 0 0 .374.224h3.675s.064-.01.097-.032a.22.22 0 0 0 .085-.288Zm-8.729-11.154h-3.867v-7.212h3.846c1.357 0 2.372.32 3.034.962.652.64.983 1.527.983 2.681 0 1.08-.342 1.945-1.026 2.597-.683.64-1.677.972-2.97.972Zm24.06-1.229c-.512-1.197-1.292-2.137-2.328-2.8-1.037-.672-2.319-1.003-3.847-1.003-1.4 0-2.66.341-3.782 1.025-1.111.695-1.987 1.667-2.628 2.928-.641 1.271-.962 2.735-.962 4.401v.61c0 1.485.31 2.81.94 4.006a7.01 7.01 0 0 0 2.714 2.81c1.175.684 2.554 1.026 4.135 1.026 1.485 0 2.757-.289 3.803-.866.951-.534 1.72-1.186 2.298-1.944a.34.34 0 0 0-.032-.428l-1.656-1.602h-.011s-.075-.054-.107-.054c-.064 0-.117.022-.15.075-1.004 1.207-2.307 1.816-3.92 1.816-.823 0-1.54-.17-2.148-.534a3.935 3.935 0 0 1-1.464-1.496 5.344 5.344 0 0 1-.64-2.2h10.138-.01a.436.436 0 0 0 .427-.428v-1.154c0-1.592-.257-2.98-.77-4.188Zm-2.916 3.066h-6.795c.17-1.228.555-2.18 1.154-2.863.598-.673 1.389-1.015 2.36-1.015 1.112 0 1.913.342 2.437 1.015.513.673.801 1.528.844 2.586v.277Zm12.137-9.968c-.449.438-.673 1.058-.673 1.87v1.528h2.863c.235 0 .428.192.428.427v1.912a.429.429 0 0 1-.428.428h-2.863v13.024a.429.429 0 0 1-.427.427H93.34a.429.429 0 0 1-.427-.427V38.098h-2.041a.429.429 0 0 1-.428-.428v-1.912c0-.235.193-.427.428-.427h2.051v-1.528c0-1.186.235-2.201.695-3.045a4.532 4.532 0 0 1 1.976-1.902c.855-.427 1.88-.64 3.056-.64.385 0 .95.063 1.709.202a.416.416 0 0 1 .342.427l-.064 2.084a.413.413 0 0 1-.438.406h-.043a6.83 6.83 0 0 0-.94-.064c-.823 0-1.453.224-1.902.662h.011ZM106.098 28.525h-2.885a.427.427 0 0 0-.427.428v22.159c0 .236.191.427.427.427h2.885a.427.427 0 0 0 .427-.427v-22.16a.427.427 0 0 0-.427-.427ZM123.342 38.836c-.513-1.197-1.293-2.137-2.329-2.8-1.037-.673-2.319-1.004-3.847-1.004-1.399 0-2.66.342-3.771 1.026-1.122.694-1.998 1.666-2.639 2.927-.641 1.272-.962 2.735-.962 4.402v.62c0 1.474.321 2.81.951 3.995a6.914 6.914 0 0 0 2.703 2.81c1.186.684 2.565 1.026 4.135 1.026 1.571 0 2.757-.288 3.804-.865.972-.535 1.741-1.197 2.318-1.966.086-.118.064-.278-.032-.385l-1.667-1.613h-.01s-.086-.053-.129-.053a.17.17 0 0 0-.138.064c-1.005 1.218-2.308 1.816-3.911 1.816-.822 0-1.538-.182-2.147-.534a3.934 3.934 0 0 1-1.464-1.496 5.337 5.337 0 0 1-.641-2.212h10.128a.42.42 0 0 0 .428-.416v-1.154c0-1.592-.257-2.981-.78-4.188Zm-2.906 3.066h-6.806c.171-1.229.556-2.18 1.154-2.863.598-.674 1.389-1.015 2.372-1.015 1.1 0 1.912.341 2.425 1.015.524.673.801 1.527.855 2.585v.278Zm11.816 2.714-1.634 1.666v4.84a.43.43 0 0 1-.428.428h-2.874a.428.428 0 0 1-.427-.428v-22.17c0-.234.192-.427.427-.427h2.874a.43.43 0 0 1 .428.428V41.42l5.417-5.95a.432.432 0 0 1 .309-.139h3.847c.117 0 .213.095.213.213a.203.203 0 0 1-.053.139l-5.695 6.389 6.315 9.007a.283.283 0 0 1-.075.406.325.325 0 0 1-.171.053h-3.526a.429.429 0 0 1-.352-.182l-4.595-6.741Zm18.292 4.487v2.04a.443.443 0 0 1-.332.417c-.865.193-1.559.289-2.094.289-1.314 0-2.361-.363-3.119-1.09-.759-.727-1.144-1.891-1.144-3.494v-9.167h-2.211a.43.43 0 0 1-.428-.427v-1.913a.43.43 0 0 1 .428-.427h2.211v-3.526a.43.43 0 0 1 .428-.427h2.884a.43.43 0 0 1 .428.427v3.537h2.425c.235 0 .427.192.427.427v1.913a.428.428 0 0 1-.427.427h-2.425v8.91c0 .684.139 1.144.416 1.39.278.245.695.363 1.261.363.267 0 .534-.032.791-.075a.43.43 0 0 1 .481.353v.064-.011Zm6.293-19.413c.374.374.566.855.566 1.432a1.902 1.902 0 0 1-.566 1.41c-.374.374-.898.556-1.539.556-.641 0-1.165-.182-1.538-.545-.385-.364-.567-.834-.567-1.41 0-.578.193-1.058.567-1.432.373-.374.897-.567 1.538-.567.652 0 1.165.193 1.549.567l-.01-.011ZM156.74 35.331h-2.884a.428.428 0 0 0-.428.427v15.364c0 .236.192.428.428.428h2.884a.428.428 0 0 0 .428-.428V35.758a.428.428 0 0 0-.428-.427ZM173.878 35.896l-5.31 15.364a.451.451 0 0 1-.396.289h-2.681a.42.42 0 0 1-.396-.278l-5.342-15.364a.426.426 0 0 1 .257-.534.617.617 0 0 1 .139-.021h2.959c.182 0 .353.128.406.299l3.344 11.186 3.28-11.186a.415.415 0 0 1 .406-.3h2.96c.235 0 .427.193.416.428 0 .043 0 .085-.021.128l-.021-.01Zm15.342 2.938c-.513-1.196-1.293-2.136-2.329-2.799-1.036-.673-2.318-1.004-3.846-1.004-1.4 0-2.661.342-3.772 1.026-1.122.694-1.998 1.666-2.639 2.927-.641 1.271-.961 2.735-.961 4.402v.609c0 1.485.32 2.81.951 4.007a7.01 7.01 0 0 0 2.713 2.81c1.176.683 2.554 1.025 4.124 1.025 1.571 0 2.757-.288 3.815-.876a7.215 7.215 0 0 0 2.179-1.795c.011-.021.032-.043.054-.075a.425.425 0 0 0-.043-.555l-1.528-1.485h-.011s-.107-.065-.16-.065a.252.252 0 0 0-.203.086c-.994 1.175-2.286 1.763-3.868 1.763-.822 0-1.538-.182-2.147-.534a3.934 3.934 0 0 1-1.464-1.496 5.352 5.352 0 0 1-.641-2.212h10.129a.42.42 0 0 0 .427-.416v-1.154c0-1.592-.256-2.981-.78-4.189Zm-2.906 3.067h-6.795c.171-1.229.556-2.18 1.154-2.864.598-.673 1.378-1.014 2.361-1.014 1.1 0 1.912.341 2.425 1.014.524.674.802 1.528.855 2.586v.278Z"/></svg>