<svg xmlns="http://www.w3.org/2000/svg" fill="none" viewBox="0 0 210 80"><path fill="#000" d="M17 52h5.074v-6.823l2.503-3.051L31.143 52h6.068l-9.017-13.251L37.11 28h-6.086l-8.64 10.577h-.309V28H17v24Zm33.274-24H45.2v24h5.074V28Zm29.692 0h-5.057v15.086h-.206L64.349 28H59.89v24h5.075V36.897h.171L75.577 52h4.389V28Zm18.137 24c7.32 0 11.743-4.526 11.743-12.017 0-7.492-4.423-11.983-11.675-11.983H89.6v24h8.503Zm-3.429-19.646h3.24c4.492 0 6.875 2.297 6.875 7.629 0 5.331-2.383 7.68-6.892 7.68h-3.223V32.354ZM119.051 52h5.075v-8.503h3.703L132.371 52h5.606l-5.091-9.326c2.725-1.165 4.234-3.548 4.234-6.84 0-4.765-3.154-7.834-8.606-7.834h-9.463v24Zm5.075-12.583V32.15h3.428c2.932 0 4.355 1.302 4.355 3.685s-1.423 3.566-4.32 3.566h-3.446l-.017.017ZM146.154 52h16.217v-4.183h-11.142v-5.726h10.268V37.91h-10.268v-5.726h11.091V28h-16.166v24Zm34.166 0c7.32 0 11.743-4.526 11.743-12.017 0-7.492-4.423-11.983-11.674-11.983h-8.572v24h8.503Zm-3.429-19.646h3.24c4.492 0 6.875 2.297 6.875 7.629 0 5.331-2.383 7.68-6.892 7.68h-3.223V32.354Z"/></svg>