<svg xmlns="http://www.w3.org/2000/svg" fill="none" viewBox="0 0 210 80"><path fill="#6313C6" d="M44 24.142v-5.567h24.025v5.567H59.33v28.313h-6.675V24.142H44ZM70.52 21.369A3.369 3.369 0 0 1 73.891 18h.12a3.369 3.369 0 1 1 0 6.737h-.12a3.368 3.368 0 0 1-3.37-3.368ZM70.7 52.462v-24.35h6.489v24.343H70.7v.007ZM80.54 61.96V28.08h6.02l.468 2.64c.501-.79 1.39-1.511 2.661-2.16 1.271-.648 2.596-.975 3.96-.975 3.043 0 5.552 1.176 7.511 3.535 1.96 2.36 2.943 5.388 2.943 9.09 0 3.703-.929 6.885-2.789 9.204-1.86 2.32-4.414 3.476-7.658 3.476-1.258 0-2.542-.288-3.853-.856-1.31-.568-2.234-1.256-2.769-2.059V61.96H80.54Zm6.44-21.75c0 2.44.469 4.271 1.412 5.501.943 1.23 2.24 1.845 3.886 1.845 1.645 0 2.91-.615 3.88-1.851.963-1.237 1.45-3.068 1.45-5.488 0-2.42-.487-4.184-1.457-5.427-.977-1.243-2.261-1.865-3.866-1.865-1.606 0-2.93.615-3.88 1.845-.95 1.23-1.424 3.047-1.424 5.454v-.014Z"/><path fill="#6313C6" d="M98.793 24.156v-5.568h23.912v5.568h-8.582v28.313h-6.675V24.156h-8.655Z"/><path fill="#6313C6" d="M120.618 49.447c-2.094-2.319-3.137-5.387-3.137-9.197 0-3.81 1.043-6.864 3.137-9.17 2.093-2.306 4.936-3.455 8.521-3.455 3.585 0 6.341 1.17 8.441 3.502 2.1 2.333 3.15 5.38 3.15 9.13 0 3.75-1.05 6.844-3.15 9.177-2.1 2.333-4.916 3.502-8.441 3.502-3.525 0-6.434-1.163-8.521-3.482v-.007Zm3.164-9.197c0 2.44.481 4.271 1.444 5.501.964 1.23 2.268 1.845 3.913 1.845s2.903-.615 3.859-1.851c.957-1.237 1.432-3.068 1.432-5.488 0-2.42-.482-4.204-1.445-5.44-.963-1.237-2.247-1.852-3.846-1.852-1.599 0-2.949.615-3.913 1.851-.963 1.237-1.444 3.048-1.444 5.441v-.007ZM143.406 62V28.113h6.019l.469 2.64c.501-.789 1.391-1.51 2.662-2.159 1.271-.648 2.595-.976 3.959-.976 3.044 0 5.552 1.177 7.512 3.536 1.959 2.36 2.943 5.387 2.943 9.09 0 3.703-.93 6.884-2.79 9.204-1.859 2.319-4.414 3.475-7.658 3.475-1.257 0-2.542-.287-3.853-.855-1.31-.568-2.234-1.257-2.769-2.059v11.984h-6.488l-.006.007Zm6.441-21.75c0 2.44.468 4.272 1.411 5.502.943 1.23 2.241 1.844 3.886 1.844 1.646 0 2.91-.615 3.88-1.851.963-1.237 1.451-3.068 1.451-5.488 0-2.42-.488-4.184-1.458-5.427-.977-1.243-2.261-1.865-3.866-1.865s-2.93.615-3.879 1.845c-.95 1.23-1.425 3.048-1.425 5.454v-.013Z"/></svg>