<svg xmlns="http://www.w3.org/2000/svg" fill="none" viewBox="0 0 210 80"><path fill="#1D334D" d="M49.55 27.28A17.84 17.84 0 0 0 36.9 22c-4.74 0-9.3 1.9-12.65 5.28A18.023 18.023 0 0 0 19 40c0 4.77 1.89 9.35 5.25 12.72C27.6 56.1 32.15 58 36.9 58s9.29-1.9 12.65-5.28c3.36-3.37 5.24-7.95 5.25-12.72-.01-4.77-1.89-9.35-5.25-12.72Zm-6.72 5.21c.96.01 1.54.58 1.54 1.47.01.88-.55 1.4-1.41 1.49-.77.09-1.62-.71-1.51-1.48-.07-.84.64-1.5 1.38-1.48Zm-5.92-.01c.84 0 1.45.63 1.45 1.48 0 .91-.61 1.49-1.57 1.48-.72 0-1.38-.72-1.38-1.51s.7-1.45 1.5-1.45Zm-6.04 0c.99.06 1.52.64 1.51 1.52 0 .83-.67 1.47-1.59 1.45-.58-.01-1.46-.68-1.35-1.51-.08-.77.72-1.5 1.43-1.46Zm13.52 14.73c0 .25-.09.29-.3.29h-7.17.01l-7.14.01c-.28 0-.37-.06-.36-.35v-1.35c-.02-.32.06-.41.39-.41h14.31c.2 0 .27.05.26.26-.01.51-.01 1.03 0 1.55Zm-.65-5.67c-.51.28-1.01.22-1.48-.1-.25-.17-.48-.37-.76-.49-.49-.23-1-.27-1.6-.26h-.01c-.71-.03-1.4.19-2.03.67-.7.52-1.2.52-1.89 0-.6-.45-1.25-.65-2-.68-.91-.03-1.69.19-2.42.74-.95.71-1.91.14-2.18-.76-.27-.9.21-1.77 1.3-1.84.54-.03.97.19 1.35.49.44.35.93.45 1.45.5.97.11 1.84-.15 2.63-.75.52-.39 1.25-.37 1.76.03.66.53 1.4.77 2.24.74.76-.03 1.44-.28 2.03-.75.48-.38 1.03-.36 1.55-.17.56.2.85.69.85 1.29 0 .6-.26 1.05-.79 1.34Zm140.94-11.31v.32h.8v1.74h.45v-1.74h.8v-.32h-2.05Zm5.7 0-1.1 1.37-1.11-1.37h-.43v2.06h.5v-1.35l.92 1.11h.24l.9-1.13v1.37h.51v-2.06h-.43Zm-2.26 16.25c.89.02 1.78.02 2.67.02v-.19l-1.92-4.23c-.14-.3-.29-.39-.61-.39h-2.27c-.23.02-.4-.06-.49-.28l-3.04-6.97-2.75-6.16c-.09-.17-.15-.23-.34-.23h-5.89c-.11 0-.2-.02-.28.15l-1.51 3.4-1.7 3.91-1.2 2.7-1.68 3.88-1.53 3.46-2.15 4.92c-.13.32-.12.45.28.45 1.93-.01 3.86-.02 5.8 0 .3.01.41-.12.52-.37l1.48-3.75c.09-.22.2-.32.46-.32h8.94c.17 0 .27.01.38.24l1.57 3.88c.13.32.29.32.52.32 1.97 0 3.93-.02 5.89 0 .45.01.43-.13.28-.46l-1.64-3.66c-.12-.27-.07-.32.21-.32Zm-9.08-4.78h-5.17c-.27 0-.28-.1-.19-.32l2.32-5.87c.12-.33.22-.66.47-1.01h.01l1.87 4.76.88 2.13c.09.21.08.31-.19.31Zm-65.09 8.74-4.82-6.29-4.22-5.49c-.34-.42-.28-.63.04-.96l7.62-8.28c.4-.44.87-.82 1.18-1.37h-6.82c-.13 0-.23 0-.35.14l-1.74 1.86-3.23 3.49-1.89 2.05c-.54.62-1.14 1.2-1.66 1.85l-.02-.03c-.17-.17-.1-.37-.1-.56V28.5c0-.38-.1-.48-.49-.48h-5.46c-.36 0-.45.09-.45.45v22.01c0 .34.07.43.42.43 1.84-.02 3.68-.02 5.51 0 .41 0 .47-.14.47-.5V45.6c0-.19-.03-.39.13-.55l2.06-2.23c.14-.14.18-.19.34.03l5.99 7.64c.23.3.42.41.77.41h6.53c.15 0 .31.06.47-.07l-.28-.39Zm-25.55.26-5.43-12.36-2.48-5.67-1.96-4.35c-.08-.2-.15-.27-.37-.27h-5.85c-.15 0-.27 0-.34.17l-1.19 2.71-1.66 3.83-1.56 3.61-1.32 2.98c-.11.25-.27.36-.57.36l-2.61-.02-2.13 4.8h2.66c.29 0 .38.05.24.36l-1.57 3.57c-.19.43-.17.5.27.5 1.91 0 3.83-.01 5.75 0 .28.01.4-.1.51-.36l1.54-3.84c.07-.2.15-.24.34-.24h9.08c.14 0 .22 0 .3.2l1.54 3.88c.12.32.29.36.56.36h5.95l.35-.03c-.02-.08-.03-.14-.05-.19Zm-15.69-9c-.2 0-.39.02-.25-.31l2.71-6.77.09-.1 2.86 7.18h-5.41Zm67.3 5.55-3.97-9.04-2.36-5.42-2-4.43c-.08-.2-.17-.3-.41-.3h-5.79c-.16 0-.31-.01-.37.16l-1.17 2.72-1.63 3.74c-.42.93-.89 1.83-1.26 2.78l-1.25 2.89-1.64 3.68-2.47 5.68c-.18.4-.46.75-.48 1.21h.02l6.28.03c.24 0 .32-.11.41-.3l1.48-3.72c.07-.17.08-.43.42-.43h9.08c.14 0 .27-.01.34.19l1.55 3.91c.09.26.24.34.53.34h5.94c.11-.01.25.06.36-.09l-1.61-3.6Zm-9.12-5.56h-5.46l2.91-7.21 1.47 3.66 1.26 3.15c.09.21.2.4-.18.4Zm31.79 1c-.33-2.11-1.72-3.42-3.58-4.27-1.57-.72-3.28-1.07-4.96-1.45-1.11-.26-2.23-.51-3.29-.97-1.16-.49-1.14-1.78-.49-2.44.54-.54 1.22-.67 1.93-.8 1.61-.3 3.14.03 4.68.44.89.24 1.7.65 2.52 1.07.25.12.4.09.51-.19l1.67-4.06c.2-.43.04-.54-.28-.71-2.1-1.08-4.38-1.47-6.69-1.68-1.12-.11-2.24-.06-3.36.1-1.13.15-2.25.39-3.31.82-.9.36-1.72.85-2.43 1.54-.65.65-1.21 1.34-1.57 2.2-.29.68-.4 1.39-.51 2.14-.14.83-.04 1.63.17 2.39.6 2.15 2.17 3.39 4.17 4.13l5.17 1.37c.92.23 1.87.46 2.7.96.58.36.76.91.58 1.59-.15.59-.6.89-1.1 1.08-1.72.62-3.47.44-5.2.1a13.25 13.25 0 0 1-4.46-1.78c-.28-.19-.44-.08-.55.17l-1.77 4.05c-.17.36-.07.46.18.62 1.12.72 2.35 1.19 3.6 1.54 1.77.5 3.59.82 5.31.71l.03-.03c1.46.03 2.73-.08 4.02-.37 1.73-.38 3.28-1.13 4.52-2.36 1.64-1.62 2.14-3.66 1.79-5.91Z"/></svg>