<svg xmlns="http://www.w3.org/2000/svg" fill="none" viewBox="0 0 210 80"><path fill="#AB9FF2" d="M51.467 24C38.25 24 24 40.341 24 50.901 24 55.04 26.197 56 28.49 56c4.854 0 8.491-4.267 10.667-7.637-.266.746-.416 1.493-.416 2.208 0 1.973 1.12 3.37 3.318 3.37 3.029 0 6.261-2.688 7.936-5.578-.118.416-.171.81-.171 1.162 0 1.376.757 2.24 2.315 2.24 4.906 0 9.845-8.8 9.845-16.49C61.984 29.28 58.987 24 51.467 24Zm-2.528 13.184c-1.206 0-2.027-1.077-2.027-2.57 0-1.494.821-2.529 2.027-2.529 1.205 0 1.994 1.035 1.994 2.528 0 1.494-.821 2.571-1.994 2.571Zm6.282 0c-1.205 0-2.026-1.077-2.026-2.57 0-1.494.821-2.529 2.026-2.529 1.206 0 1.995 1.035 1.995 2.528 0 1.494-.821 2.571-1.995 2.571Z"/><path fill="#000" d="M77.461 32.107c-2.176 0-4.32 1.258-5.728 4.512l-.469-.246c.587-1.28.992-2.56.992-3.786h-4.405v20.16h4.405v-4.022c0-2.122-.139-3.104-.992-5.045l.47-.235c1.407 3.254 3.498 4.534 5.663 4.534 3.499 0 6.294-3.104 6.294-7.904s-2.56-7.968-6.23-7.968Zm-1.589 12.085c-2.059 0-3.616-2.123-3.616-4.15 0-2.026 1.472-4.149 3.648-4.149 1.76 0 3.2 1.462 3.2 4.118 0 2.656-1.376 4.181-3.232 4.181ZM85.067 47.499h4.405V42.25c0-3.702 1.29-6.326 3.701-6.326 1.526 0 1.995 1.046 1.995 3.638v7.936h4.405v-8.651c0-4.715-1.674-6.741-4.874-6.741-3.2 0-4.32 2.24-5.579 4.8l-.47-.267c.64-1.61.822-2.624.822-4.053v-5.035h-4.405v19.947ZM108.747 32.107c-4.576 0-6.838 2.325-7.286 4.778l4.235.747c.149-1.29 1.173-2.155 2.816-2.155 1.643 0 2.592.843 2.592 1.856 0 1.014-.971 1.483-3.552 1.515-3.819.064-6.645 1.461-6.645 4.448 0 2.443 1.909 4.683 4.97 4.683 2.784 0 4.459-1.91 5.632-4.182l.502.267c-.47 1.077-.907 2.357-.907 3.435h4.32v-8.107c0-4.832-2.005-7.285-6.677-7.285Zm2.272 8.917c0 2.123-1.888 3.637-3.648 3.637-1.003 0-2.08-.416-2.08-1.632 0-2.421 3.669-.714 5.728-2.57v.565ZM117.397 47.499h4.406V42.25c0-3.702 1.29-6.326 3.701-6.326 1.525 0 1.995 1.046 1.995 3.638v7.936h4.405v-8.651c0-4.715-1.675-6.741-4.875-6.741s-4.32 2.24-5.578 4.8l-.47-.267c.651-1.61.822-2.624.822-4.053h-4.406v14.912ZM143.819 47.563V43.86c-.939.331-3.552.896-3.552-1.28v-6.357h3.904v-3.637h-3.904v-4l-4.438 1.344v2.656h-2.645v3.637h2.645l.032 6.71c0 4.98 4.374 5.695 7.958 4.618v.01ZM153.056 32.107c-4.469 0-7.904 3.434-7.904 7.904 0 4.469 3.435 7.968 7.904 7.968 4.469 0 7.872-3.467 7.872-7.968 0-4.502-3.413-7.904-7.872-7.904Zm0 12.138c-1.973 0-3.349-1.728-3.349-4.202 0-2.475 1.376-4.203 3.349-4.203 1.973 0 3.317 1.728 3.317 4.203 0 2.474-1.354 4.202-3.317 4.202ZM162.379 47.499h4.405V42.25c0-3.851 1.088-6.326 3.029-6.326 1.259 0 1.792 1.014 1.792 3.638v7.936h4.406V42.25c0-3.606 1.173-6.326 3.029-6.326 1.237 0 1.792 1.163 1.792 3.638v7.936h4.405v-8.651c0-4.747-1.525-6.741-4.522-6.741-2.998 0-4.352 2.144-5.174 4.746l-.501-.266c.437-1.547.171-2.39-.352-3.04-.768-.96-1.856-1.43-3.232-1.43-2.763 0-3.968 1.974-5.024 4.715l-.469-.299c.501-1.344.821-2.41.821-3.936h-4.405V47.51v-.01Z"/></svg>