<svg xmlns="http://www.w3.org/2000/svg" fill="none" viewBox="0 0 210 80"><path fill="#84BD00" d="M47.272 42.998 52.14 29.22h7.03L47.318 58.365h-7.415l3.386-7.987L35 29.22h7.181l5.09 13.778Zm29.856 7.543v-2.358a20.947 20.947 0 0 1-3.467 2.195c-1.051.502-2.3.747-3.76.747-2.347 0-4.157-.677-5.418-2.032-1.261-1.354-1.903-3.35-1.903-6.001V29.22h6.854V39.8c0 1.074.035 1.973.105 2.686a4.89 4.89 0 0 0 .478 1.774c.234.456.62.818 1.086 1.028.49.21 1.168.327 2.044.327a6.487 6.487 0 0 0 1.938-.327 8.403 8.403 0 0 0 2.055-.946v-15.12h6.854v21.32h-6.866ZM111.55 39.59c0 3.35-.922 6.083-2.779 8.197-1.856 2.113-4.156 3.176-6.924 3.176a11.785 11.785 0 0 1-3.129-.386c-.899-.257-1.763-.63-2.557-1.097l-.28 1.062h-6.562V21h6.854v10.439a16.744 16.744 0 0 1 3.21-2.032 8.797 8.797 0 0 1 3.784-.782c2.697 0 4.764.969 6.223 2.919 1.46 1.95 2.184 4.624 2.184 8.033l-.024.012Zm-7.04.14c0-1.892-.327-3.363-.97-4.379-.642-1.027-1.798-1.53-3.444-1.53-.677 0-1.343.106-1.985.293a7.78 7.78 0 0 0-1.95.829v10.695c.455.164.922.292 1.401.362.526.07 1.063.105 1.588.094 1.81 0 3.153-.526 4.04-1.588.888-1.063 1.32-2.651 1.331-4.764l-.011-.012Zm18.6-13.545h-7.239V21h7.239v5.184Zm-.187 24.357h-6.854v-21.32h6.854v21.32Zm17.503.572a18.314 18.314 0 0 1-5.091-.665 11.222 11.222 0 0 1-4.016-2.055 9.182 9.182 0 0 1-2.616-3.491c-.619-1.402-.934-3.048-.934-4.94 0-1.985.327-3.701.992-5.149a9.733 9.733 0 0 1 2.779-3.585 11.422 11.422 0 0 1 3.994-1.973c1.529-.42 3.106-.63 4.694-.63 1.354 0 2.709.151 4.028.478 1.179.304 2.335.713 3.433 1.238v5.827h-.969c-.269-.234-.584-.49-.958-.794a8.127 8.127 0 0 0-1.378-.888 8.266 8.266 0 0 0-1.704-.689 7.539 7.539 0 0 0-2.172-.268c-1.822 0-3.223.584-4.204 1.74-.98 1.156-1.471 2.732-1.459 4.717 0 2.055.502 3.608 1.506 4.67 1.004 1.063 2.429 1.588 4.274 1.588.782 0 1.564-.093 2.323-.291a8.11 8.11 0 0 0 1.717-.69 8.543 8.543 0 0 0 1.132-.793c.327-.28.631-.55.911-.818h.969v5.838c-1.086.502-2.218.9-3.386 1.191a16.058 16.058 0 0 1-3.876.444l.011-.012ZM175 39.893c0 3.502-1.028 6.27-3.071 8.29-2.043 2.02-4.916 3.024-8.617 3.024-3.701 0-6.562-1.004-8.606-3.024-2.043-2.02-3.07-4.788-3.07-8.29 0-3.504 1.027-6.306 3.082-8.314 2.055-2.009 4.928-3.013 8.594-3.024 3.725 0 6.597 1.015 8.629 3.035 2.031 2.02 3.047 4.788 3.047 8.29l.012.012Zm-8.407 5.184a5.66 5.66 0 0 0 .992-1.962c.222-.77.339-1.821.339-3.176a12.465 12.465 0 0 0-.339-3.153 5.516 5.516 0 0 0-.957-2.031 3.242 3.242 0 0 0-1.46-1.098 5.202 5.202 0 0 0-1.844-.327c-.596 0-1.191.082-1.752.269a3.478 3.478 0 0 0-1.459 1.062 5.324 5.324 0 0 0-.993 2.032 12.197 12.197 0 0 0-.374 3.246 12.63 12.63 0 0 0 .327 3.024c.164.748.491 1.448.946 2.067.386.479.888.852 1.46 1.086a5.378 5.378 0 0 0 3.701.023 3.256 3.256 0 0 0 1.425-1.05l-.012-.012Z"/></svg>