<svg xmlns="http://www.w3.org/2000/svg" fill="none" viewBox="0 0 210 80"><path fill="#1D1D1B" d="M52 65.257c-.01-5.51 2.046-9.465 8.668-9.476 6.642-.01 8.699 3.946 8.71 9.455v4.743L52.01 70v-4.743H52Zm2.046.063v2.225l13.253-.022V65.3c0-3.6-.724-7.041-6.642-7.041-5.897.02-6.61 3.473-6.61 7.062ZM55.298 44.845l-.795 2.312 16.423 5.646.795-2.312-16.423-5.646ZM62.053 31.625c1.836-2.518 4.617-3.956 7.723-2.518l-1.396 1.91c-1.983-.703-3.683.483-4.711 1.9-.787 1.08-1.7 3.336-.126 4.48 1.238.902 2.581.367 3.82-.714l1.552-1.353c2.036-1.805 4.733-3.788 7.556-1.721 2.75 2.004 2.33 5.624.294 8.405-2.424 3.305-5.75 4.082-8.815 2.392l1.417-1.93c2.203 1.049 4.197.43 5.771-1.721 1.511-2.068 1.406-3.988.032-4.995-1.47-1.07-3.012-.273-4.68 1.207l-1.637 1.469c-1.826 1.605-4.303 2.76-6.643 1.049-2.707-1.941-1.815-5.593-.157-7.86ZM86.387 12.926l8.206 15.31-2.151 1.154-3.725-6.946-8.049 4.313 3.725 6.946-2.15 1.154-8.207-15.31 2.151-1.154 3.484 6.506 8.049-4.313-3.484-6.506 2.151-1.154ZM102.883 10.03c4.239-.21 7.251.609 7.461 4.89.21 4.313-2.708 5.383-6.947 5.593l-2.991.147.336 6.873-2.445.115-.85-17.356 5.436-.262Zm-2.896 2.204.304 6.296 3.179-.158c2.54-.126 4.513-.482 4.376-3.337-.136-2.822-2.14-3.085-4.68-2.959l-3.18.157ZM121.183 12.275l2.676.903.672 18.542-2.498-.84-.094-3.998-7.566-2.539-2.466 3.137-2.361-.797 11.637-14.408Zm-5.446 10.326 6.139 2.057-.21-9.623-5.929 7.566ZM136.819 22.633l-4.408-3.537 1.323-1.647 10.724 8.615-1.322 1.637-4.408-3.536-9.559 11.9-1.899-1.533 9.549-11.9ZM145.308 50.503c-3.809.86-6.873-1.05-8.405-4.491-2.036-4.554.199-8.72 5.036-10.882 4.922-2.193 9.476-.766 11.47 3.725 1.469 3.285.703 6.8-2.393 8.993l-.965-2.161c1.752-1.364 2.56-3.558 1.427-6.097-1.249-2.802-4.418-4.009-8.531-2.172-4.009 1.784-5.425 4.942-4.114 7.901 1.123 2.519 3.243 3.432 5.499 3.033l.976 2.151ZM158.802 69.99l-17.366.01v-2.445l7.88-.01-.01-9.13-7.881.01v-2.444l17.367-.01.01 2.444h-7.387l.011 9.13h7.376v2.445Z"/></svg>