<svg xmlns="http://www.w3.org/2000/svg" fill="none" viewBox="0 0 210 80"><path fill="#0F3053" fill-rule="evenodd" d="M85.687 54.55c-1.585 1.007-3.194 1.778-4.87 2.276a18.02 18.02 0 0 1-5.188.76c-3.75 0-6.74-1.156-8.983-3.49-2.243-2.333-3.353-5.426-3.353-9.311 0-3.545 1.076-6.434 3.228-8.654 2.153-2.21 4.95-3.32 8.428-3.32 3.477 0 6.15 1.122 8.144 3.376 2.017 2.255 3.013 5.279 3.013 9.108v.69H68.3c.136 2.243.883 4.01 2.209 5.268 1.336 1.269 3.126 1.903 5.369 1.903 1.506 0 3.08-.283 4.723-.838 1.632-.567 3.33-1.405 5.075-2.538v4.758l.011.011ZM68.3 42.62h12.596c-.159-1.733-.782-3.126-1.88-4.168-1.1-1.042-2.481-1.575-4.124-1.575-1.812 0-3.296.487-4.406 1.462-1.122.962-1.847 2.401-2.186 4.281Zm22.224 14.443V33.299h4.746v2.888c1.19-1.121 2.356-1.948 3.535-2.48a9.249 9.249 0 0 1 3.794-.782c2.572 0 4.599.748 6.083 2.243 1.484 1.484 2.232 3.534 2.232 6.14v15.756h-4.747V42.52c0-1.926-.407-3.342-1.223-4.26-.815-.917-2.084-1.382-3.795-1.382-1.223 0-2.288.238-3.205.714-.918.465-1.813 1.246-2.685 2.322v17.139h-4.746l.011.011Zm39.42-.736a9.413 9.413 0 0 1-2.379.917c-.838.204-1.756.295-2.73.295-2.673 0-4.553-.635-5.641-1.903-1.087-1.269-1.631-3.58-1.631-6.944V37.411h-4.055v-.465l7.974-8.801h.884v5.154h7.431v4.112h-7.431v10.92c0 1.97.249 3.24.725 3.817.487.566 1.404.86 2.741.86.725 0 1.427-.09 2.107-.282a8.274 8.274 0 0 0 2.016-.884v4.474l-.011.012Zm19.381-2.175c-1.189 1.144-2.367 1.97-3.534 2.492-1.178.532-2.447.793-3.795.793-2.594 0-4.644-.748-6.128-2.243-1.484-1.495-2.243-3.534-2.243-6.14V33.3h4.792v14.556c0 1.914.408 3.33 1.223 4.248.816.917 2.084 1.381 3.795 1.381 1.223 0 2.288-.237 3.206-.702.917-.476 1.812-1.257 2.684-2.356V33.3h4.746v23.765h-4.746v-2.911Zm9.221 1.291v-5.063c1.427.94 2.798 1.665 4.112 2.152 1.325.498 2.526.748 3.624.748 1.224 0 2.164-.227 2.866-.68.691-.453 1.042-1.076 1.042-1.858 0-.997-1.291-2.13-3.885-3.42-.759-.374-1.336-.68-1.744-.895-2.22-1.133-3.738-2.232-4.565-3.285-.827-1.054-1.235-2.345-1.235-3.874 0-1.983.714-3.569 2.13-4.735 1.427-1.167 3.387-1.745 5.867-1.745 1.348 0 2.628.159 3.863.476 1.223.317 2.435.816 3.625 1.472v4.633c-1.462-.804-2.798-1.404-3.999-1.79-1.212-.384-2.356-.577-3.432-.577-.997 0-1.756.17-2.3.521-.532.34-.804.838-.804 1.495 0 1.19 1.654 2.617 4.962 4.237l.441.215c2.594 1.303 4.282 2.447 5.052 3.432.793.997 1.19 2.243 1.19 3.75 0 2.095-.782 3.772-2.356 5.029-1.563 1.257-3.648 1.88-6.23 1.88-1.484 0-2.912-.17-4.248-.52a16.832 16.832 0 0 1-3.976-1.587" clip-rule="evenodd"/><path fill="#269BD7" fill-rule="evenodd" d="M77.43 10.247c-11.554 1.824-26.767 12.96-38.4 2.957 14.997 5.698 25.679-4.928 38.4-2.957Z" clip-rule="evenodd"/><path fill="#269BD7" fill-rule="evenodd" d="M34 13.668c27.254 21.84 45.616-18.928 77.378 6.955C81.576.812 63.633 42.055 34 13.668Z" clip-rule="evenodd"/><path fill="#0F3053" fill-rule="evenodd" d="M51.331 57.347 34.068 17.724c2.118 1.62 5.086 3.466 7.454 4.69l10.545 24.342 7.986-19.778c1.915-.158 3.795-.498 5.675-.951L52.656 57.336h-1.314l-.01.011Z" clip-rule="evenodd"/><path fill="#0F3053" d="M51.263 62.932v.759h1.88v6.23h.77v-6.23h1.881v-.76h-4.53Zm15.077 0h-.77v3.092h-2.628v-3.092h-.77v6.989h.77v-3.138h2.628v3.138h.77v-6.99Zm6.785 6.989h4.157v-.77h-3.398v-2.368h3.398v-.77h-3.398v-2.334h3.398v-.759h-4.157v7ZM84.6 66.047v-2.345h1.484c.34 0 .6.125.781.362.148.204.238.454.25.748.011.385-.068.68-.238.86-.238.25-.77.375-1.575.375H84.6Zm.476.736 2.209 3.149h.928l-2.209-3.138c.635-.068 1.1-.26 1.405-.577.329-.34.476-.816.453-1.428-.022-.487-.17-.906-.464-1.257-.329-.396-.782-.589-1.337-.589h-2.243v6.989h.77v-3.149h.488Zm13.672 3.149h.86l-2.56-6.989h-.656l-2.572 6.989h.827l.873-2.48h2.356l.872 2.48Zm-2.05-5.822.917 2.571H95.78l.906-2.571h.012Zm9.073-1.167v6.989h.77v-3.126h1.484c.499 0 .918-.182 1.269-.533.351-.385.521-.85.521-1.404 0-.555-.17-1.031-.521-1.405a1.737 1.737 0 0 0-1.269-.521h-2.254Zm.77 3.092v-2.333h1.484c.283 0 .521.102.725.294.204.238.306.521.306.873 0 .35-.102.634-.306.872a.992.992 0 0 1-.725.294h-1.484Zm9.799 3.897h4.168v-.77h-3.398v-2.368h3.398v-.77h-3.398v-2.333h3.398v-.76h-4.168v7.001Zm14.408-2.175c0 .374-.147.76-.43 1.042-.295.283-.635.43-1.042.43-.408 0-.748-.147-1.043-.43a1.447 1.447 0 0 1-.43-1.042v-4.814h-.77v4.814c0 .6.215 1.144.657 1.586.441.43.974.657 1.586.657a2.19 2.19 0 0 0 1.585-.657 2.17 2.17 0 0 0 .657-1.586v-4.814h-.781v4.814h.011Zm7.148-4.814v.759h1.88v6.23h.77v-6.23h1.881v-.759h-4.531Zm11.021 6.989h.771v-6.989h-.771v6.989Zm10.954-6.275c.453 0 .884.113 1.28.317.397.215.725.52.974.906l.646-.43a3.509 3.509 0 0 0-1.257-1.156 3.44 3.44 0 0 0-1.643-.419c-.963 0-1.79.351-2.481 1.042a3.492 3.492 0 0 0-1.019 2.515c0 .974.34 1.824 1.019 2.514.691.703 1.518 1.054 2.481 1.054.589 0 1.133-.136 1.643-.42.521-.282.94-.667 1.257-1.154l-.646-.431a2.645 2.645 0 0 1-2.254 1.223 2.631 2.631 0 0 1-1.926-.815 2.747 2.747 0 0 1-.804-1.971c0-.77.272-1.439.804-1.971a2.631 2.631 0 0 1 1.926-.816m11.328 0c.362 0 .679.113.94.34.26.238.385.521.385.85h.782c0-.544-.204-1.008-.623-1.405a2.138 2.138 0 0 0-1.496-.578c-.577 0-1.087.193-1.495.578-.419.385-.623.85-.623 1.405 0 .611.227 1.087.68 1.416.26.192.713.385 1.325.543.521.136.895.284 1.076.408.249.181.374.453.374.804 0 .34-.125.623-.385.85-.261.227-.578.34-.94.34-.363 0-.691-.114-.952-.34-.26-.238-.396-.521-.396-.85h-.782c0 .544.204 1.02.623 1.405.408.385.918.578 1.495.578.578 0 1.076-.193 1.496-.578.407-.385.623-.86.623-1.405 0-.623-.238-1.11-.691-1.427-.261-.181-.714-.374-1.337-.544-.521-.147-.895-.294-1.054-.407-.237-.17-.373-.442-.373-.793 0-.329.124-.612.396-.85.261-.238.578-.351.952-.351"/></svg>