<svg xmlns="http://www.w3.org/2000/svg" fill="none" viewBox="0 0 210 80"><path fill="#fff" fill-rule="evenodd" d="M67.03 32.828Z" clip-rule="evenodd"/><path fill="#018FFA" fill-rule="evenodd" d="M78.416 26.557a4.375 4.375 0 0 1-1.356 1.67l-.085.062a4.205 4.205 0 0 1-.637.376 4.725 4.725 0 0 1-.598.236 4.371 4.371 0 0 1-1.9.158 4.355 4.355 0 0 1-1.864-.712 4.387 4.387 0 0 1-1.374-1.47 11.19 11.19 0 0 0-3.28-3.633 11.027 11.027 0 0 0-14.126 1.24 11.002 11.002 0 0 0-3.233 7.805 11 11 0 0 0 3.546 8.106 11.53 11.53 0 0 0 1.03.856 9.685 9.685 0 0 0 .807.532l.1.059a8.69 8.69 0 0 0 .985.488l.096.04c.226.091.45.172.671.244l.19.059a9.964 9.964 0 0 0 .652.172 12.22 12.22 0 0 0 .815.16l.178.03c2.004.312 3.738.245 5.068 1.575a4.373 4.373 0 0 1 1.284 3.101 4.372 4.372 0 0 1-1.596 3.384 4.378 4.378 0 0 1-3.529.94 4.344 4.344 0 0 1-1.467-.531c-2.094-1.222-2.46-3.876-5.671-5.75a11.018 11.018 0 0 0-10.504-.335 11.085 11.085 0 0 0-2.45 1.677A21.985 21.985 0 0 1 39 40c0-12.15 9.85-22 22-22 7.088 0 13.393 3.352 17.416 8.557Z" clip-rule="evenodd"/><path fill="#018FFA" fill-rule="evenodd" d="M83 40c0 12.15-9.85 22-22 22-7.088 0-13.393-3.352-17.417-8.557a4.196 4.196 0 0 1 .416-.71l.053-.073c.02-.027.04-.054.062-.08a2.093 2.093 0 0 1 .111-.135 1.763 1.763 0 0 1 .131-.148 4.374 4.374 0 0 1 3.207-1.395c.808 0 1.562.217 2.207.593a4.57 4.57 0 0 1 1.173.979 3.558 3.558 0 0 1 .258.336 3.692 3.692 0 0 1 .197.313c.03.054.06.108.092.16l.095.16c.052.084.104.168.158.25a11.136 11.136 0 0 0 2.935 3.063 11.41 11.41 0 0 0 .764.489c.204.12.412.233.625.34l.16.078a11.88 11.88 0 0 0 .654.288 10.775 10.775 0 0 0 2.082.608c.66.124 1.34.189 2.037.189a11 11 0 0 0 7.803-3.233 11 11 0 0 0 3.234-7.804 11 11 0 0 0-3.234-7.803c-4.462-4.464-8.401-2.015-10.904-4.518a4.375 4.375 0 0 1-1.285-3.1c0-1.211.491-2.31 1.285-3.102a4.373 4.373 0 0 1 3.1-1.284c.808 0 1.563.215 2.208.592 1.602.936 2.193 2.71 3.823 4.332a8.524 8.524 0 0 0 1.016.873 9.678 9.678 0 0 0 .831.546 10.996 10.996 0 0 0 5.56 1.502c2.843 0 5.437-1.077 7.393-2.844A21.978 21.978 0 0 1 83 40Z" clip-rule="evenodd"/><path fill="#1A283F" fill-rule="evenodd" d="M112.451 31.718c-2.396-2.102-4.835-2.732-8.072-2.732-3.784 0-8.744 1.681-8.744 6.474s4.666 6.138 8.575 6.433c2.943.168 4.12.757 4.12 2.186 0 1.513-1.808 2.522-3.741 2.48-2.312-.042-5.676-1.261-7.147-2.9l-2.522 3.656c3.026 3.153 6.306 3.7 9.585 3.7 5.928 0 8.913-3.152 8.913-6.81 0-5.508-4.961-6.39-8.871-6.642-2.648-.169-3.867-.925-3.867-2.27 0-1.346 1.345-2.06 3.784-2.06 1.975 0 3.658.463 5.129 1.85l2.859-3.363-.001-.002Zm20.138-2.186-2.86 6.937-3.152 8.66-3.195-8.744-2.859-6.853h-5.592l8.871 20.852h5.549l8.829-20.852h-5.591Z" clip-rule="evenodd"/><path fill="#1A283F" d="M140.66 29.49h5.129V50.3h-5.129V29.49Z"/><path fill="#1A283F" fill-rule="evenodd" d="M140.198 23.73c0 3.994 6.054 3.994 6.054 0s-6.054-3.994-6.054 0Zm20.221 12.864-4.078-7.02h-6.138v.168l6.811 10.048-7.232 10.384v.126h6.139l4.498-6.938 4.498 6.938h6.138v-.126l-7.231-10.384 6.811-10.048v-.169h-6.138l-4.078 7.021Z" clip-rule="evenodd"/></svg>