<svg xmlns="http://www.w3.org/2000/svg" fill="none" viewBox="0 0 210 80"><path fill="#000" d="M103.914 15.787c-.471-.477-1.23-.787-1.903-.787h-9.195c-.672 0-1.12.448-1.12 1.12v15.116c0 .672.448 1.12 1.12 1.12h2.805c.672 0 1.12-.448 1.12-1.12v-4.201h5.27c.673 0 1.432-.31 1.909-.782l2.356-2.35a2.839 2.839 0 0 0 .787-1.903v-1.96a2.84 2.84 0 0 0-.787-1.902l-2.356-2.35h-.006Zm-1.908 6.776h-5.27v-3.08h5.27v3.08Zm24.954 5.31h-7.288V16.122c0-.673-.448-1.121-1.12-1.121h-2.805c-.672 0-1.121.448-1.121 1.12v11.196c.016.71.297 1.39.788 1.902l2.356 2.351c.477.477 1.23.782 1.908.782h7.287c.673 0 1.121-.449 1.121-1.121v-2.242c0-.672-.448-1.12-1.121-1.12l-.005.006Zm24.385 3.363V20.04a2.835 2.835 0 0 0-.788-1.902l-2.356-2.35c-.477-.478-1.235-.782-1.908-.782h-5.609c-.673 0-1.431.31-1.908.781l-2.356 2.35a2.835 2.835 0 0 0-.788 1.903v11.196c0 .672.448 1.12 1.121 1.12h2.804c.673 0 1.121-.448 1.121-1.12v-4.201h5.609v4.2c0 .673.449 1.121 1.121 1.121h2.805c.672 0 1.12-.448 1.12-1.12h.012Zm-5.046-8.678h-5.609v-3.081h5.609v3.08ZM160.368 15h2.804c.621 0 1.121.5 1.121 1.12v15.116a1.124 1.124 0 0 1-1.121 1.12h-2.804c-.621 0-1.121-.5-1.121-1.12V16.12A1.128 1.128 0 0 1 160.368 15Zm-56.621 32.85H96.46V36.099c0-.673-.448-1.121-1.12-1.121h-2.806c-.672 0-1.12.448-1.12 1.12v11.196a2.84 2.84 0 0 0 .787 1.902l2.357 2.351c.476.477 1.235.782 1.907.782h7.288c.672 0 1.121-.449 1.121-1.121v-2.242c0-.672-.449-1.12-1.121-1.12l-.006.006Zm18.759-12.086c-.477-.477-1.236-.781-1.908-.781h-5.61c-.672 0-1.431.31-1.908.781l-2.356 2.35a2.84 2.84 0 0 0-.787 1.903v11.196c0 .672.448 1.12 1.12 1.12h2.805c.672 0 1.121-.448 1.121-1.12V47.01h5.609v4.202c0 .672.448 1.12 1.121 1.12h2.804c.673 0 1.121-.448 1.121-1.12V40.017a2.84 2.84 0 0 0-.787-1.902l-2.357-2.35h.012Zm-1.908 6.77h-5.61v-3.08h5.61v3.08Zm21.862-6.77c-.477-.477-1.236-.781-1.908-.781h-9.196c-.672 0-1.12.448-1.12 1.12v15.115c0 .673.448 1.121 1.12 1.121h9.196c.672 0 1.431-.31 1.908-.782l2.356-2.35a2.839 2.839 0 0 0 .787-1.902v-.84a2.839 2.839 0 0 0-.787-1.902l-.896-.896.896-.897a2.839 2.839 0 0 0 .787-1.902v-.84a2.84 2.84 0 0 0-.787-1.902l-2.356-2.35v-.012Zm-1.908 12.092h-5.27v-1.96h5.27v1.96Zm0-6.437h-5.27v-1.96h5.27v1.96Zm24.178 3.133-2.356-2.35c-.477-.478-1.236-.782-1.908-.782h-5.328v-1.96h8.132c.673 0 1.121-.449 1.121-1.12v-2.242c0-.673-.448-1.121-1.121-1.121h-8.132c-.672 0-1.431.31-1.908.782l-2.356 2.35a2.835 2.835 0 0 0-.788 1.902v.84c.015.71.296 1.389.788 1.902l2.356 2.35c.477.477 1.236.782 1.908.782h5.328v1.96h-8.133c-.672 0-1.12.448-1.12 1.12v2.242c0 .672.448 1.12 1.12 1.12h8.133c.672 0 1.431-.31 1.908-.781l2.356-2.35a2.839 2.839 0 0 0 .787-1.903v-.839a2.839 2.839 0 0 0-.787-1.902Z"/><path fill="url(#a)" d="M78.287 17.5c-1.264-1.517-2.224-2.5-4.023-2.5h-9.77v15.54H73c.431 0 .632.242.632.759v8.368c0 .517-.201.758-.632.758H62.805c-.77 0-1.679-.448-2.213-1.092l-3.736-4.494c-.534-.644-.908-1.736-.908-2.66V15.683h-7.316c-2.138 0-3.632 1.799-3.632 4.368v40.574C45 63.201 46.494 65 48.632 65h3.489c2.138 0 3.632-1.799 3.632-4.374v-6.43h18.506c1.799 0 2.758-.978 4.023-2.5l5.224-6.288c1.258-1.517 2.075-3.897 2.075-6.063v-9.512c0-2.16-.817-4.54-2.075-6.063l-5.224-6.287.005.017Z"/><defs><linearGradient id="a" x1="45" x2="85.586" y1="40" y2="40" gradientUnits="userSpaceOnUse"><stop stop-color="#4F80FF"/><stop offset=".5" stop-color="#2BD1FF"/><stop offset=".99" stop-color="#2FFC89"/></linearGradient></defs></svg>