<svg xmlns="http://www.w3.org/2000/svg" fill="none" viewBox="0 0 210 80"><path fill="#000" d="m97.257 49.967-11.42 9.63c-.147-.089-.294-.206-.411-.294.822-7.868 2.583-15.56 5.225-23.37-3.934 1.528-7.251 3.406-10.01 6.137-1.146 1.115 0 1.79.85 2.378l-.087.44-7.721-.734c-.06-.176-.089-.352-.147-.528 1.526-1.35 2.994-2.73 4.58-4.022 3.816-3.112 8.014-5.578 12.506-7.545 1.439-.617 2.202-1.497 2.818-2.877 3.435-7.81 7.927-14.914 14.18-20.815 3.464-3.288 7.34-5.96 11.773-7.81.323-.117.646-.263.968-.351.235-.089.47-.118.94-.206-.118 1.262-.147 2.466-.352 3.611-.999 5.695-2.672 11.185-5.109 16.44-1.027 2.232-1.145 2.29-3.728 2.173l.47-8.514c-.176-.059-.353-.147-.529-.205-6.488 3.376-10.51 9.042-14.091 15.618 13.093-3.729 25.952-5.343 39.075-2.642l.176.44c-1.908 1.585-3.934 2.995-5.637 4.756-2.026 2.084-4.051 2.172-6.782 1.644-9.365-1.879-18.73-1.703-28.007.675-.499.118-1.145.529-1.262.94-.998 3.112-1.938 6.224-2.73 9.394-.206.852-.03 1.85.205 2.76.411 1.879 1.292 2.466 4.257 2.877ZM174.908 67.259h-7.545a6.32 6.32 0 0 0-4.491 1.85 6.321 6.321 0 0 0-1.85 4.491c0 3.523 2.848 6.37 6.341 6.37h7.545a6.32 6.32 0 0 0 4.492-1.849 6.321 6.321 0 0 0 1.85-4.492c0-3.523-2.819-6.37-6.342-6.37Zm2.378 8.924a3.616 3.616 0 0 1-2.554 1.057h-7.222a3.609 3.609 0 0 1-2.552-6.162 3.618 3.618 0 0 1 2.552-1.06h7.222a3.609 3.609 0 0 1 3.611 3.611c0 .958-.38 1.877-1.057 2.554Zm-35.229-8.924V79.97h-1.879l-12.741-9.072v9.072h-2.995V69.108l-1.996-1.85h4.756l11.772 8.426V67.26h3.083Zm-51.024 6.37a6.321 6.321 0 0 1-1.85 4.492 6.321 6.321 0 0 1-4.491 1.85H77.41a6.315 6.315 0 0 1-5.196-2.701h13.093c.617 0 1.175-.235 1.556-.646a2.15 2.15 0 0 0 .646-1.556H71.187a5.912 5.912 0 0 1-.176-1.468 6.32 6.32 0 0 1 1.85-4.492 6.32 6.32 0 0 1 4.491-1.85h7.281a6.355 6.355 0 0 1 5.226 2.731H77c-.617 0-1.174.235-1.556.646a2.148 2.148 0 0 0-.646 1.556h16.059c.117.47.176.94.176 1.438Zm-22.43-.146a6.49 6.49 0 0 1-6.487 6.488h-5.93a6.49 6.49 0 0 1-6.489-6.488v-6.224h.47l2.613 1.85v4.638a3.47 3.47 0 0 0 3.464 3.464h5.842a3.47 3.47 0 0 0 3.465-3.464v-4.668l2.847-1.85h.206v6.254Zm-21.02-3.435-12.8-.03c-.616 0-1.174.235-1.556.646a2.148 2.148 0 0 0-.645 1.556h11.89l-2.936 2.848H32.14L32.23 80H29v-6.077a6.627 6.627 0 0 1 6.635-6.635h11.949v2.76ZM156.501 68.668a1.644 1.644 0 1 0 0-3.288 1.644 1.644 0 0 0 0 3.288ZM152.978 70.018h4.727v9.953h-2.848v-7.986l-1.879-1.967Z"/><path fill="#A6A6A6" d="M98.255 36.462c5.05 4.081 10.187 7.663 16.47 9.835.381-3.699-1.116-6.723-2.173-10.01.323.205.734.322.94.586 3.229 4.199 6.106 8.632 7.251 13.916.176.851.206 1.732.294 2.613.117 1.233-.441 1.644-1.556 1.262-2.76-.969-5.578-1.82-8.22-3.024-5.079-2.348-9.571-5.636-13.828-9.306-.822-.705-1.086-1.38-.587-2.378.499-1.086.88-2.231 1.41-3.494Zm-4.316-16.88c-3.053-.382-5.9-1.85-9.306-1.556 1.262 4.022 3.875 7.046 6.107 10.598-1.263.616-2.378 1.204-3.553 1.644-.293.117-.91-.118-1.115-.382-3.758-5.05-6.811-10.48-8.28-16.675-.029-.088.03-.176.118-.587 6.019.763 11.273 3.23 16.03 6.958ZM96.464 68.668a1.644 1.644 0 1 0 0-3.288 1.644 1.644 0 0 0 0 3.288ZM114.431 67.259h-7.545a6.319 6.319 0 0 0-4.491 1.85 6.322 6.322 0 0 0-1.85 4.491c0 3.523 2.848 6.37 6.341 6.37h7.545a6.321 6.321 0 0 0 4.492-1.849 6.32 6.32 0 0 0 1.849-4.492c.03-3.523-2.818-6.37-6.341-6.37Zm2.378 8.924a3.616 3.616 0 0 1-2.554 1.057h-7.222a3.609 3.609 0 0 1-2.552-6.162 3.618 3.618 0 0 1 2.552-1.06h7.222a3.609 3.609 0 0 1 3.611 3.611c0 .998-.382 1.909-1.057 2.554ZM92.941 70.018h4.756v9.953H94.85v-7.986l-1.909-1.967ZM150.13 75.362h-4.08a1.516 1.516 0 0 1-1.527-1.527c0-.851.675-1.527 1.527-1.527h4.08c.852 0 1.527.675 1.527 1.527 0 .851-.705 1.527-1.527 1.527Z"/></svg>