<svg xmlns="http://www.w3.org/2000/svg" fill="none" viewBox="0 0 210 80"><path fill="#5AF6F5" d="M50.193 43.916c.09 2.36-.09 4.541-1.404 6.513-.478.747-.866.866-1.494.18-.777-.837-1.583-1.614-2.42-2.421-.448-.418-.657-.866-.448-1.464.299-.866.329-1.733.329-2.63l.03-12.16c0-.986-.3-1.284-1.285-1.284l-12.668.03c-.568 0-1.136-.03-1.614.239-.926.567-1.494.179-2.121-.508-.687-.777-1.464-1.464-2.151-2.211-.479-.508-.479-.926.149-1.345 1.613-1.075 3.346-1.733 5.288-1.733l18.674-.03c.926 0 1.165.27 1.165 1.166l-.03 17.658Zm-23.782-5.588-.03 10.1c-.03.985.358 1.224 1.255 1.224l11.95-.03c.987 0 1.973-.15 2.899-.627.358-.18.657-.18.926.09l2.868 2.927c.508.508.359.927-.179 1.255-1.554.926-3.167 1.703-5.02 1.703L22.02 55c-.837 0-1.046-.269-1.016-1.075l.03-19.899c0-1.673.597-3.137 1.464-4.542.358-.537.657-.627 1.135-.149l2.898 2.898c.24.24.418.508.269.837-.627 1.733-.299 3.466-.388 5.258Z"/><path fill="#0E0E0E" d="M76.635 35.22c-.657-2.36-2.27-3.823-4.75-4.152-2.929-.389-5.916-.18-8.844-.12-1.285.03-2.002.867-2.181 2.211-.09.717-.06 1.434-.09 2.271l-.03 17.748c0 .746.18 1.075.986 1.015.747-.06 1.524-.03 2.27 0 .598.03.777-.179.777-.776-.03-1.315.03-2.63-.03-3.915-.03-.806.27-.985.987-.956 1.553.06 3.107.03 4.63 0 3.257-.06 5.468-1.553 6.275-4.481.837-2.898.807-5.916 0-8.844Zm-3.884 7.68c-.418 1.673-1.524 2.54-3.287 2.569-1.254.03-2.54-.03-3.824.03-.717.03-.926-.18-.926-.896l.03-9.472c-.03-.866.418-1.135 1.105-1.105 1.165 0 2.33-.03 3.496.03 2.031.09 3.137.956 3.496 2.958.358 1.912.418 3.914-.09 5.886Zm110.398-7.141c-.029-2.958-1.912-4.84-4.84-4.84h-8.037c-2.151 0-2.121 0-2.121 2.21 0 .688.209.897.896.867h7.619c1.763 0 2.45.777 2.54 2.54.029.836-.239 1.045-1.046 1.015-2.271-.06-4.542-.03-6.812-.03-2.211 0-3.526.986-4.153 3.138-.478 1.643-.448 3.346 0 4.99.508 1.852 1.703 2.897 3.645 2.927 3.227.09 6.453.06 9.68 0 1.703-.03 2.6-1.105 2.629-2.808v-10.01Zm-3.973 8.664c0 .717-.329 1.046-1.076 1.046-1.793-.03-3.555 0-5.348-.03-1.016 0-1.584-.538-1.703-1.524-.09-.926-.179-1.852.388-2.748.419-.419.867-.538 1.345-.538h5.557c.628 0 .867.209.837.836v2.958ZM105.079 35.7c0-2.868-1.942-4.78-4.811-4.78h-8.246c-1.942 0-1.882 0-1.972 1.972-.03.956.299 1.135 1.165 1.135 2.48-.06 4.96-.03 7.41 0 1.434 0 2.002.448 2.39 1.763.06 1.195-.448 1.762-1.523 1.762h-6.305c-2.15 0-3.495 1.046-4.093 3.078-.448 1.494-.448 2.988-.15 4.482.449 2.24 1.734 3.435 3.825 3.495 3.197.06 6.394.06 9.591 0 1.703-.03 2.659-1.075 2.659-2.778l.06-10.129Zm-3.974 8.814c0 .508-.179.956-.747.926-2.151-.03-4.302.15-6.513-.15-.956-.896-1.225-2.897-.598-3.943.329-.508.777-.747 1.374-.747h5.767c.508 0 .747.15.747.687-.06 1.106-.03 2.151-.03 3.227Zm51.569-7.918c-.478-2.689-1.912-4.66-4.601-5.378a17.86 17.86 0 0 0-8.963-.03c-2.271.568-3.795 2.062-4.452 4.303-.687 2.42-.628 4.9-.239 7.35.508 3.077 2.27 4.99 5.408 5.557 2.39.448 4.78.448 7.17.06 2.898-.478 4.9-2.092 5.558-5.05a14.3 14.3 0 0 0 .388-3.256c.06-1.255-.06-2.42-.269-3.556Zm-4.153 6.036c-.508 1.972-1.942 2.928-4.452 3.107-.926.06-1.852-.06-2.748-.299-1.315-.358-2.211-1.195-2.63-2.51-.597-1.942-.597-3.944-.149-5.886.508-2.12 1.852-3.107 4.183-3.226.657-.03 1.314 0 2.031.03 2.63.508 3.466 1.344 3.944 3.884a11.32 11.32 0 0 1-.179 4.9Zm-24.111-8.336c-.568-.568-1.195-.27-1.793-.3-.478-.029-.717-.178-.687-.656v-.628c0-1.733 0-1.733 1.703-1.792.448 0 .747 0 .807-.628.328-3.047 2.001-4.72 5.079-5.109.896-.12 1.792-.15 2.659-.18.627-.03.986.18.986.957 0 1.912.03 1.912-1.882 2.061-1.733.12-2.54.747-2.809 2.032-.149.628 0 .896.687.867 1.046-.03 2.062.03 3.108-.03.657-.03.926.149.926.866-.06 2.719.328 2.151-2.122 2.211-.537 0-1.105.06-1.643 0-.866-.09-1.016.269-1.016 1.046l.03 12.489c0 .866-.269 1.165-1.105 1.075-.927-.09-2.092.389-2.689-.179-.598-.568-.18-1.763-.18-2.689l-.059-11.413Zm-11.533-9.023c.986 0 1.464.478 1.464 1.404v3.406c-.03.627.179.866.807.837 1.135-.03 2.27 0 3.406-.03.537 0 .776.09.806.717.09 2.36.12 2.36-2.27 2.36-.688 0-1.375.03-2.062 0-.538-.03-.717.21-.717.747l.03 7.738c.03 1.883 1.195 2.928 3.227 3.018 1.762.09 1.762.09 1.762 1.793 0 1.613.12 1.314-1.404 1.344-1.434.03-2.898 0-4.272-.478-2.002-.687-3.167-2.121-3.227-4.302-.09-2.898-.06-5.767 0-8.665.03-.956-.239-1.255-1.195-1.195-1.375.06-1.285.24-1.315-1.315 0-.179.03-.358 0-.508-.179-1.015.239-1.404 1.225-1.224.956.179 1.345-.18 1.255-1.226-.09-1.165.03-2.33-.03-3.495-.03-.747.239-.986.956-.926.478.06.956 0 1.554 0Zm-31.91 18.852-.03-17.717c0-.837.18-1.225 1.076-1.135.657.06 1.315.06 1.972 0 .807-.06 1.046.239 1.046 1.045l-.03 17v4.333c.03.687-.15 1.016-.926.956-.986-.09-2.241.389-2.898-.18-.688-.597-.18-1.881-.24-2.867l.03-1.434Zm78.43-3.525v7.11c0 .628-.15.957-.867.897-.777-.06-1.583-.03-2.36 0-.538.03-.747-.18-.747-.717.03-3.824-.09-7.619.06-11.443.119-3.376 2.211-5.259 5.826-5.527 1.045-.06 2.121 0 3.197-.03.478 0 .717.179.687.657v.21c.06 1.403-.628 2.15-2.002 2.21-2.45.12-3.705 1.374-3.824 3.944l.03 2.689Z"/><path fill="#0E0E0E" fill-rule="evenodd" d="M186.287 32.442c.179 0 .358-.15.358-.328v-.06a.354.354 0 0 0-.299-.359h-.418v.747h.359Zm-.658-.926h.687c.299-.03.568.21.598.508v.06a.59.59 0 0 1-.358.538s0 .03.059.12l.389.746h-.299l-.389-.807h-.388v.807h-.269v-1.972h-.03Zm.598 2.54a1.53 1.53 0 0 0 1.524-1.524v-.06c.059-.836-.598-1.524-1.435-1.583-.836-.03-1.553.597-1.583 1.434v.15a1.5 1.5 0 0 0 1.434 1.553c.03.03.03.03.06.03Zm0-3.406a1.8 1.8 0 0 1 1.793 1.792v.03a1.8 1.8 0 0 1-1.793 1.793 1.799 1.799 0 0 1-1.793-1.793c-.03-.986.747-1.822 1.733-1.822h.06Z" clip-rule="evenodd"/></svg>