<svg xmlns="http://www.w3.org/2000/svg" fill="none" viewBox="0 0 210 80"><g clip-path="url(#a)"><path fill="#B9BEBF" d="M50.94 75.68v-1.031h-.049c-.392.883-1.129 1.325-2.356 1.325-1.915 0-3.535-1.227-3.535-3.927v-5.99h2.7v5.4c0 1.277.442 1.866 1.473 1.866 1.03 0 1.57-.736 1.57-1.914v-5.352h2.701v9.623H50.94Zm4.566 0v-9.623h2.553v1.031h.049c.49-1.03 1.227-1.374 2.258-1.374v2.896c-1.62 0-2.16.639-2.16 1.768v5.302h-2.7Zm6.284 0V62.866h2.7v3.977c.737-.835 1.62-1.08 2.602-1.08 2.357 0 4.517 1.865 4.517 5.056 0 2.946-1.768 5.204-4.615 5.204-1.08 0-2.21-.54-2.602-1.374v1.03H61.79Zm7.119-4.811c0-1.277-.933-2.455-2.259-2.455-1.325 0-2.258 1.08-2.258 2.406 0 1.423.933 2.454 2.21 2.454 1.325.05 2.306-1.03 2.306-2.405Zm11.095 3.78h-.05c-.392.834-1.472 1.374-2.65 1.374-2.7 0-4.566-2.209-4.566-5.154 0-2.946 1.964-5.106 4.566-5.106 1.129 0 2.16.49 2.65 1.374h.05v-1.03h2.7v9.622h-2.7v-1.08Zm0-3.78c0-1.326-1.031-2.455-2.308-2.455-1.276 0-2.209 1.08-2.209 2.455 0 1.374.982 2.405 2.258 2.405 1.277.05 2.259-1.03 2.259-2.405ZM90.412 75.68v-5.351c0-1.277-.442-1.915-1.424-1.915-1.08 0-1.571.638-1.571 1.915v5.302h-2.7v-9.623h2.552v1.031h.05c.589-.982 1.374-1.374 2.454-1.374 1.62 0 3.388.982 3.388 3.829v6.137l-2.75.049ZM102.341 71.752c.147 1.08 1.031 1.817 2.111 1.817.737 0 1.228-.295 1.669-.884h2.799c-.884 2.111-2.504 3.338-4.468 3.338-2.602 0-4.811-2.209-4.811-5.105 0-2.897 2.111-5.155 4.762-5.155 2.651 0 4.811 2.258 4.811 5.253 0 .294 0 .49-.049.785h-6.824v-.049Zm4.173-1.963c-.196-.982-1.031-1.62-2.062-1.62s-1.816.638-2.062 1.62h4.124Zm9.966 5.89v-5.35c0-1.277-.442-1.915-1.424-1.915-1.08 0-1.571.638-1.571 1.915v5.302h-2.7v-9.623h2.553v1.031h.049c.589-.982 1.375-1.374 2.455-1.374 1.62 0 3.387.982 3.387 3.829v6.137l-2.749.049Zm11.341-1.128c-.393.932-1.424 1.423-2.553 1.423-2.651 0-4.566-2.16-4.566-5.056 0-2.897 1.964-5.155 4.566-5.155 1.178 0 2.062.49 2.504 1.227h.049v-.883h2.7v8.59c0 1.277-.147 2.308-.491 2.947-.638 1.325-2.455 2.356-4.713 2.356-2.553 0-4.271-1.522-4.468-3.388h3.142c.295.688.933.933 1.571.933 1.375 0 2.21-.933 2.21-2.7v-.294h.049Zm0-3.633c0-1.424-.884-2.455-2.21-2.455-1.227 0-2.16 1.08-2.16 2.406 0 1.325.884 2.454 2.16 2.454 1.326-.049 2.21-1.03 2.21-2.405Zm4.811-5.892v-2.16h2.7v2.16h-2.7Zm0 10.654v-9.623h2.7v9.623h-2.7ZM143.04 75.68v-5.351c0-1.277-.442-1.915-1.424-1.915-1.08 0-1.571.638-1.571 1.915v5.302h-2.7v-9.623h2.553v1.031h.049c.589-.982 1.374-1.374 2.454-1.374 1.621 0 3.388.982 3.388 3.829v6.137l-2.749.049ZM149.913 71.752c.147 1.08 1.031 1.817 2.111 1.817.736 0 1.227-.295 1.669-.884h2.798c-.883 2.111-2.503 3.338-4.467 3.338-2.602 0-4.811-2.209-4.811-5.105 0-2.897 2.111-5.155 4.762-5.155 2.651 0 4.811 2.258 4.811 5.253 0 .294 0 .49-.049.785h-6.824v-.049Zm4.173-1.963c-.197-.982-1.031-1.62-2.062-1.62s-1.817.638-2.062 1.62h4.124Zm8.1-1.031c0-.54-.393-.737-.834-.737-.442 0-.786.295-.786.638 0 .54.442.786 1.718 1.13 2.16.589 2.848 1.521 2.848 2.945 0 2.013-1.62 3.29-3.731 3.29-2.111 0-3.535-1.228-3.731-3.192h2.7c.098.59.491.884 1.031.884.491 0 .932-.294.932-.736 0-.54-.294-.835-1.669-1.277-2.307-.736-2.896-1.718-2.896-2.798 0-1.915 1.669-3.142 3.534-3.142 1.964 0 3.388 1.129 3.486 3.044h-2.602v-.05Z"/><path fill="#2BC5EA" d="M120.555 19.664c-2.062-.736-4.222-1.03-6.333-.982a4.343 4.343 0 0 0-3.584 2.062 7.83 7.83 0 0 0 1.08-4.516c-.295-3.83-3.387-6.873-7.168-7.168-4.516-.344-8.346 3.24-8.346 7.757a7.81 7.81 0 0 0 .835 3.534c-.736-.932-1.865-1.57-3.24-1.62-2.111-.098-4.32.246-6.382.982a18.689 18.689 0 0 1-.246-2.896c0-9.623 8.003-17.33 17.723-16.79 8.69.442 15.661 7.56 15.906 16.25.049 1.129-.049 2.258-.245 3.387Z"/><path fill="#5BCC37" d="M104.01 48.286c-.785.687-1.669 1.276-2.602 1.816-8.346 4.713-18.999 1.571-23.368-7.118-3.879-7.757-1.13-17.33 6.284-21.847.97-.58 1.988-1.072 3.044-1.473a17.09 17.09 0 0 0 2.307 5.99c.736 1.227 1.915 1.865 3.142 2.061-1.375.05-2.798.491-4.075 1.326-3.19 2.111-4.32 6.333-2.7 9.77 1.964 4.123 6.971 5.645 10.85 3.436 1.276-.736 2.307-1.767 2.945-2.995.295-.49.639-.932 1.08-1.276-1.374 1.325-1.914 3.535-.883 5.498.7 1.254 1.54 2.423 2.504 3.486l1.472 1.326Z"/><path fill="#F5C414" d="M129.981 42.983c-4.369 8.69-15.023 11.832-23.369 7.12-.932-.54-1.816-1.13-2.602-1.817.197-.197.442-.393.639-.59l.343-.343c.246-.246.442-.491.688-.736l.245-.246c.786-.884 1.424-1.866 2.013-2.897 1.08-1.963.54-4.172-.884-5.498.442.344.786.785 1.08 1.325a7.84 7.84 0 0 0 2.946 2.995c3.878 2.21 8.886.688 10.849-3.436 1.67-3.437.491-7.659-2.7-9.77a8.032 8.032 0 0 0-4.123-1.325 4.463 4.463 0 0 0 3.141-2.062 16.963 16.963 0 0 0 2.308-6.039c1.08.393 2.111.884 3.142 1.473 7.413 4.517 10.162 14.09 6.284 21.846Z"/><path fill="#2A8D3F" d="M97.775 24.917c-.245.59-.54 1.08-.932 1.473l-.05.049c-.834.835-2.012 1.276-3.19 1.276h-.688c-1.227-.147-2.405-.834-3.142-2.061a17.087 17.087 0 0 1-2.307-5.99c2.062-.736 4.271-1.08 6.382-.982 1.375.05 2.504.688 3.24 1.62.098.197.197.344.295.54a4.768 4.768 0 0 1 .392 4.075ZM120.555 19.664a16.963 16.963 0 0 1-2.308 6.039c-.736 1.227-1.914 1.865-3.141 2.062h-.59c-1.374 0-2.7-.59-3.534-1.67-1.179-1.472-1.277-3.338-.54-4.86 0-.049.049-.049.049-.098.049-.05.049-.098.098-.147.049-.05.049-.098.098-.148 0-.049.049-.049.049-.098a4.592 4.592 0 0 1 3.584-2.062c2.062-.049 4.173.246 6.235.982Zm-13.452 18.263c-.049 0-.049 0 0 0-.785-.786-1.865-1.227-3.044-1.276-1.178.049-2.258.49-3.043 1.276-1.375 1.325-1.915 3.535-.884 5.498.589 1.08 1.326 2.111 2.111 3.093.098.148.245.295.344.393.442.491.932.933 1.423 1.375.197-.197.442-.393.639-.59l.343-.343c.246-.246.442-.491.688-.736l.245-.246c.786-.884 1.424-1.866 2.013-2.897 1.08-2.012.54-4.172-.835-5.547Zm-6.922 5.597.442.736a2.938 2.938 0 0 1-.442-.736Z"/></g><defs><clipPath id="a"><path fill="#fff" d="M0 0h210v80H0z"/></clipPath></defs></svg>