<svg xmlns="http://www.w3.org/2000/svg" fill="none" viewBox="0 0 210 80"><path fill="#282D37" fill-rule="evenodd" d="m75.177 46.787-4.725-13.941h1.832l3.501 10.64 3.665-10.64h1.097l3.665 10.64 3.528-10.64h1.796l-4.744 13.941H83.66l-3.683-10.621-3.665 10.621h-1.134Zm19.412 0h1.768v-13.95H94.59v13.95Zm20.1-13.95v13.941h-1.669l-8.463-11.256v11.256h-1.714V32.837h1.814l8.327 11.12v-11.12h1.714-.009Zm16.88 4.09c-.861-1.678-2.449-2.63-4.381-2.63-2.948 0-5.279 2.467-5.279 5.515 0 3.048 2.295 5.497 5.297 5.497 2.567 0 4.427-1.75 4.726-4.2h-5.061v-1.678h6.93v.68c0 3.883-2.649 6.894-6.613 6.894-3.964 0-7.093-3.211-7.093-7.193 0-3.982 3.184-7.211 7.111-7.211 2.631 0 4.844 1.415 5.942 3.51l-1.579.817Zm8.572 5.915c.517 1.45 1.596 2.485 3.184 2.485 1.415 0 2.612-.835 2.612-2.295 0-1.116-.68-1.832-2.068-2.35l-1.633-.616c-2.068-.78-3.192-1.932-3.192-3.746 0-2.295 1.814-3.728 4.081-3.728 1.969 0 3.529 1.179 4.227 3.13l-1.614.68c-.436-1.198-1.298-2.132-2.631-2.132-1.333 0-2.268.78-2.268 1.95 0 .998.699 1.678 2.114 2.213l1.614.617c2.132.816 3.184 2.032 3.184 3.864 0 2.53-1.995 4.082-4.481 4.082-2.349 0-4.109-1.334-4.78-3.565l1.651-.599v.01Zm15.139-3.61h2.549c1.596 0 2.712-.88 2.712-2.368s-1.116-2.395-2.712-2.395h-2.549v4.762Zm7.057-2.368c0 2.549-1.851 4-4.499 4h-2.549v5.914h-1.778V32.837h4.327c2.648 0 4.499 1.478 4.499 4.027Zm6.984 4.263h4.644l-2.331-5.796-2.313 5.796Zm3.048-8.29 5.742 13.941h-1.878l-1.633-4.045h-5.914l-1.633 4.045h-1.832l5.76-13.941h1.397-.009Zm22.631 0v13.941h-1.678l-8.463-11.256v11.256h-1.714V32.837h1.814l8.327 11.12v-11.12H195Z" clip-rule="evenodd"/><path fill="#F5554B" fill-rule="evenodd" d="m48.13 48.357-4.581-8.554 5.016-9.36h9.17l-9.597 17.923-.009-.01Zm-10.804 0-4.58-8.554 4.58-8.553 4.58 8.553-4.58 8.554Zm-10.803 0-9.597-17.915h9.17l5.017 9.361-4.58 8.554h-.01ZM47.494 29.38l-4.762 8.898-4.77-8.898a.722.722 0 0 0-.636-.381.722.722 0 0 0-.635.381l-4.77 8.898-4.763-8.898a.722.722 0 0 0-.635-.381H15.72a.722.722 0 0 0-.635 1.061l10.803 20.164c.127.236.372.381.635.381a.722.722 0 0 0 .635-.38l4.771-8.9 4.771 8.9a.722.722 0 0 0 1.27 0l4.771-8.9 4.762 8.9a.722.722 0 0 0 1.27 0L59.567 30.06A.722.722 0 0 0 58.932 29H48.13a.722.722 0 0 0-.635.381Z" clip-rule="evenodd"/></svg>