<svg xmlns="http://www.w3.org/2000/svg" fill="none" viewBox="0 0 210 80"><path fill="#145A7D" d="M56.679 40.062c-.263-.351-.514-.697-.771-1.037-2.433-3.234-4.854-6.472-7.291-9.7-2.91-3.845-6.756-6.18-11.507-7.063-.499-.09-1.002-.143-1.58-.228 2.153 0 4.231-.085 6.3.016 5.774.276 10.456 2.701 13.976 7.259 1.425 1.84 2.775 3.738 4.162 5.605.097.133.198.255.332.425.113-.138.204-.239.284-.345.375-.5.74-1.005 1.12-1.5 1.757-2.297 4.087-3.648 6.953-4.11a10.554 10.554 0 0 1 4.784.329c.065.021.134.042.193.069.022.01.032.037.064.074-.128.059-.251.117-.38.17-1.516.602-2.812 1.522-3.836 2.787-.905 1.122-1.773 2.271-2.651 3.414-.879 1.144-1.747 2.293-2.62 3.441l-.29.388c.092.133.172.256.263.378 1.511 1.984 3.006 3.978 4.532 5.95a21.452 21.452 0 0 0 1.565 1.782c.851.878 1.901 1.474 3.032 1.947.112.048.23.096.343.149.01 0 .016.02.053.08-.294.084-.573.186-.862.25-4.334.994-8.775-.633-11.272-4.106-.321-.452-.659-.888-.996-1.335-.08-.106-.171-.207-.29-.35-.128.159-.23.286-.326.414-1.345 1.813-2.684 3.632-4.034 5.44-2.855 3.819-6.637 6.185-11.325 7.132-1.259.255-2.54.319-3.82.33-1.714.01-3.423 0-5.18 0 .691-.123 1.345-.213 1.993-.346 4.371-.899 7.966-3.08 10.698-6.573 2.073-2.654 4.06-5.372 6.086-8.063.718-.951 1.43-1.903 2.143-2.86.048-.064.085-.139.139-.224l.016.01Z"/><path fill="#145A7D" d="M72.049 22.034c2.062 0 4.124-.064 6.181.01a18.213 18.213 0 0 1 10.804 3.989 17.987 17.987 0 0 1 6.2 9.647c2.148 8.61-2.186 17.352-10.36 20.931-1.677.734-3.43 1.213-5.261 1.378-.858.08-1.72.122-2.582.133-1.613.021-3.23.005-4.854-.01 4.891-.602 8.973-2.73 12.112-6.5 3.145-3.775 4.608-8.147 4.179-13.04-.772-8.785-7.779-15.693-16.42-16.538Zm-34.704 7.801c-4.59 2.069-7.066 5.51-7.114 10.556.31 4.744 2.754 7.977 7.071 9.881-.937.564-3.717.809-5.678.378-1.945-.43-3.664-1.298-5.121-2.643-3.895-3.595-4.634-9.413-1.752-13.806 3.01-4.59 8.512-5.823 12.594-4.366Z"/><path fill="#000" d="M107.786 43.237V34.78c0-.505 0-.51.514-.51 1.644 0 3.289-.027 4.928 0 3.643.069 6.295 1.77 7.757 5.052 1.329 2.967 1.152 5.972-.525 8.79-1.355 2.271-3.433 3.569-6.064 3.968-.45.069-.916.08-1.377.085-1.548.01-3.091 0-4.639 0h-.252c-.283-.022-.337-.07-.348-.351-.005-.112 0-.224 0-.33v-8.248h.006Zm2.491-.048v6.004c0 .447.048.494.503.5.681 0 1.366-.016 2.047 0 1.617.048 3-.521 4.173-1.59 1.468-1.33 2.325-2.968 2.303-4.962-.026-2.122-.905-3.872-2.587-5.201-.831-.66-1.784-1.106-2.85-1.17-1.082-.07-2.17-.027-3.257-.032h-.086c-.166.01-.246.112-.252.271v6.17l.006.01Zm36.171-1.904c1.617-1.037 3.359-1.346 5.212-.776 1.339.409 2.395 1.212 3.188 2.355 1.537 2.207 1.366 5.255-.37 7.275-1.623 1.894-5.02 2.91-8.068.958-.011.17-.027.308-.027.452v6.222c-.016.287-.091.367-.385.372-.584.01-1.168.01-1.752 0-.279 0-.332-.074-.348-.351-.006-.096 0-.191 0-.293V40.882c0-.419.214-.628.643-.628h1.419c.386 0 .418.043.429.436 0 .165 0 .33.01.495 0 .021.022.048.054.106l-.005-.005Zm3.45 1.43a3.497 3.497 0 0 0-3.52 3.468 3.504 3.504 0 0 0 3.53 3.51c1.923.016 3.509-1.596 3.509-3.5 0-1.914-1.58-3.472-3.519-3.472v-.005Zm17.083 9.344c-.005-.138-.021-.303-.021-.462 0-1.782.005-3.564 0-5.345-.005-1.542-.927-2.856-2.352-3.34-2.411-.819-4.666.979-4.677 3.212-.01 1.808 0 3.622 0 5.43 0 .411-.209.619-.626.622h-1.297c-.568 0-.568 0-.568-.547V34.291a41.756 41.756 0 0 1 2.449-.006c.016.208.042.383.042.553v6.467c.156-.085.252-.127.343-.186 3.584-2.17 8.256-.197 9.07 3.957.075.377.112.766.112 1.154.011 1.797 0 3.595 0 5.387 0 .096 0 .191-.005.292-.011.144-.096.245-.236.245-.707 0-1.414-.016-2.127-.032-.021 0-.048-.027-.107-.064Zm-36.846-4.866c-1.35 0-2.7.01-4.05-.005-.503-.005-.61.16-.369.627 1.114 2.144 4.093 2.532 5.716.734.053-.063.112-.122.16-.191.102-.144.231-.197.397-.144.621.192 1.248.383 1.869.585.231.08.268.213.129.463a6.215 6.215 0 0 1-1.125 1.484c-.814.77-1.805 1.18-2.903 1.334-1.265.176-2.508.086-3.67-.483-2.213-1.08-3.386-2.856-3.445-5.303-.075-2.908 1.811-5.312 4.65-5.924 3.461-.739 6.67 1.383 7.259 4.728.097.542.139 1.095.059 1.648-.059.4-.086.437-.498.437h-4.179v.01Zm1.27-2.223c.112 0 .225 0 .332-.021.193-.048.263-.191.182-.383-.037-.09-.091-.17-.144-.25-.841-1.228-2.015-1.755-3.483-1.558-1.066.144-1.874.729-2.442 1.633-.252.404-.15.569.337.58h5.218Zm49.328 1.218-.332-.447c-1.2-1.59-2.406-3.18-3.611-4.775-.048-.064-.096-.133-.15-.197-.096-.122-.22-.266-.102-.399.07-.085.241-.111.37-.117.643-.01 1.28.01 1.923-.01.295-.011.488.085.659.324.809 1.09 1.634 2.17 2.448 3.255.091.117.182.234.3.383.123-.155.22-.266.311-.389.82-1.08 1.645-2.159 2.454-3.249.166-.223.332-.33.616-.32.637.022 1.28.006 1.923.006.085 0 .171-.005.252.01.182.033.251.171.171.336-.054.112-.139.207-.214.308l-3.707 4.909c-.091.122-.177.244-.284.393.091.123.176.245.262.367 1.254 1.66 2.507 3.313 3.755 4.973.102.138.29.26.199.468-.102.228-.327.164-.515.17-.573 0-1.141-.016-1.714.01-.337.016-.562-.095-.766-.372-.803-1.095-1.628-2.17-2.448-3.254-.08-.107-.172-.213-.284-.351-.113.138-.209.25-.3.367-.82 1.084-1.645 2.159-2.448 3.254-.182.245-.375.367-.691.356-.6-.02-1.195 0-1.795-.005-.112 0-.225 0-.332-.032-.166-.042-.22-.17-.155-.324.048-.112.134-.207.209-.309 1.242-1.648 2.491-3.291 3.733-4.94.092-.122.177-.245.274-.378l-.011-.02Zm-44.11-11.599c0-.202.075-.313.294-.308h1.881c.209 0 .31.09.316.298v13.763c0 .154-.006.303.01.457.065.607.525.968 1.131.872.273-.042.546-.1.819-.164.204-.048.322.032.386.218.193.563.381 1.127.568 1.69.059.176 0 .299-.177.368-1.173.468-2.352.58-3.514-.011-.905-.463-1.377-1.266-1.602-2.218a4.787 4.787 0 0 1-.112-1.069c-.011-2.238 0-4.477 0-6.716v-7.18Zm35.099 11.589v-5.67c0-.17.091-.255.257-.255h1.961c.172 0 .252.101.263.26.005.096 0 .192 0 .288v11.056c-.006.197-.113.314-.311.314h-1.88c-.204 0-.306-.112-.3-.314v-5.669l.01-.01Zm.006-10.674c0-.696.53-1.228 1.237-1.228.691 0 1.254.547 1.254 1.223 0 .675-.573 1.239-1.248 1.244a1.233 1.233 0 0 1-1.238-1.239h-.005Z"/><path fill="#145A7D" d="M95.77 56.33c0 1.026-.761 1.776-1.795 1.77-1.018-.005-1.795-.787-1.784-1.792.005-.968.804-1.755 1.784-1.765 1.002-.01 1.79.776 1.79 1.787h.005Zm-.397.02c.006-.829-.578-1.478-1.355-1.494-.766-.016-1.41.628-1.43 1.436-.022.809.589 1.468 1.37 1.479.805.016 1.404-.59 1.415-1.42Z"/><path fill="#145A7D" d="M93.386 55.388c.257 0 .503-.026.744 0 .536.07.729.59.38 1.01-.042.054-.09.096-.144.16.113.213.22.415.327.628-.188.08-.31.042-.397-.123a4.776 4.776 0 0 0-.209-.356c-.085-.138-.208-.17-.385-.08-.016.17-.032.357-.054.57h-.262v-1.814.005Zm.316.872c.246.006.477.107.61-.117.049-.08.038-.26-.026-.335-.15-.186-.36-.154-.584-.08v.532Z"/></svg>