<svg xmlns="http://www.w3.org/2000/svg" fill="none" viewBox="0 0 210 80"><path fill="#000" d="M124.284 44.728c0-3.974-.013-7.951.018-11.926.003-.416.192-1.127.418-1.18.477-.113 1.17-.044 1.541.243 1.212.947 2.435.901 3.716.303 3.94-1.84 7.661-1.706 11.065 1.186.587.497 1.059.436 1.539-.041 5.086-5.045 15.562-1.65 16.483 6.37.086.755.223 1.512.226 2.267.021 5.044-.01 10.089.031 15.134.008 1.046-.311 1.454-1.404 1.38-1.204-.082-2.418-.01-3.63-.01-1.718 0-1.731-.003-1.733-1.666-.006-4.66.01-9.32-.008-13.979-.003-.713-.104-1.434-.236-2.14-.335-1.796-2.035-3.166-3.706-2.992-1.944.203-3.386 2.104-3.353 3.718.107 5.001.044 10.002.047 15.006 0 1.367-.669 2.051-2.006 2.053-1.082 0-2.161.026-3.241-.01-1.666-.054-1.746-.16-1.746-1.771 0-5.124-.104-10.251.052-15.37.051-1.727-1.83-3.626-3.566-3.636-1.871-.013-3.485 1.658-3.514 3.623-.077 5.296-.192 10.59-.236 15.886-.007.934-.259 1.306-1.235 1.257-1.422-.072-2.852-.048-4.276-.051-.922 0-1.267-.405-1.256-1.34.039-4.102.018-8.208.018-12.31h-.008v-.004Zm-20.76-22.382h6.734v1.593c.003 11.057.011 22.111-.007 33.168 0 .405-.257.808-.395 1.213-.433-.146-.913-.225-1.29-.462-.347-.218-.578-.615-.877-.918a4.351 4.351 0 0 0-.635-.554c-1.199-.819-2.302-.583-3.457.187-2.341 1.563-4.858 2.55-7.785 2.414-5.047-.238-8.968-2.401-11.451-6.71-2.733-4.741-2.915-9.742-.26-14.574 2.2-4.006 5.62-6.487 10.364-7.03 2.676-.306 5.175-.178 7.487 1.382.882.596 1.549.141 1.562-.982.026-2.307.008-4.614.01-6.92v-1.807ZM89.249 44.767c-.121 4.295 3.184 7.408 6.96 7.531 4.342.144 7.308-3.754 7.253-7.492-.06-4.073-3.119-7.609-7.16-7.647-4.05-.039-7.042 3.23-7.053 7.605v.003ZM72.382 58.451v-1.53c0-6.627.003-13.252 0-19.88 0-4.63-3.041-7.634-7.512-7.76-3.836-.107-7.43 2.79-7.515 7.136-.135 6.839-.05 13.68 0 20.52.008 1.14-.254 1.635-1.51 1.545-1.505-.108-3.026-.059-4.539-.013-.861.026-1.246-.213-1.243-1.147.023-7.013-.192-14.03.062-21.033.242-6.677 4.9-12.837 12.308-13.9 7.694-1.103 14.898 3.164 16.686 11.219.218.982.285 2.014.296 3.025.064 6.964.109 13.928.1 20.89 0 .31-.544.874-.853.887-2.027.08-4.056.041-6.28.041Zm41.522-13.325c0-3.928-.008-7.854.003-11.783.005-1.65.161-1.78 1.824-1.79 1.251-.008 2.507.03 3.755-.052 1.116-.074 1.419.434 1.401 1.432-.093 5.588-.168 11.177-.228 16.768-.026 2.348 0 4.699.015 7.047.008 1.157-.339 1.829-1.728 1.7-1.282-.117-2.592-.05-3.882.024-.921.054-1.183-.288-1.175-1.175.039-4.057.018-8.114.015-12.17Z"/><path fill="#000" d="M60.884 52.039c.6-2.086 1.025-3.777 1.585-5.425.27-.792.154-1.319-.425-1.906-2.45-2.49-1.643-5.912 1.64-7.067 1.66-.585 3.674.118 4.72 1.65.914 1.334.947 3.82-.23 4.822-1.298 1.105-1.239 2.196-.691 3.556.438 1.09.807 2.217 1.072 3.359.064.274-.39.957-.623.965-2.224.074-4.453.043-7.05.043l.002.003Zm56.663-23.684c-2.364-.139-3.998-1.822-3.858-3.97.122-1.86 2.029-3.636 3.807-3.356 2.229.352 3.723 1.607 3.651 3.957-.06 1.917-1.786 3.477-3.6 3.369Z"/></svg>