<svg xmlns="http://www.w3.org/2000/svg" fill="none" viewBox="0 0 210 80"><path fill="#4040DB" d="M60.85 51.27c-.25-2.035-.696-4.043-1.254-6.078a57.059 57.059 0 0 0-1.477-4.516c-1.06-2.76-2.23-5.436-3.931-7.89-.67-.948-1.394-1.868-2.426-2.453-.752-.446-1.533-.446-2.286 0-.474.279-.864.613-1.254 1.004-1.394 1.505-2.398 3.261-3.29 5.073-2.119 4.35-3.624 8.894-4.405 13.661-.306 1.784-.474 3.569-.14 5.38.754 4.266 4.099 7.584 8.448 8.392 4.154.753 8.53-1.255 10.705-4.907 1.422-2.37 1.673-4.962 1.31-7.666Zm-3.596 2.871c-.25 1.868-1.17 3.346-2.648 4.517-2.788 1.867-5.938 1.756-8.364-.335-1.226-1.031-1.951-2.37-2.23-3.959-.028-.111-.028-.195-.028-.306 0-.363.195-.474.474-.28 3.262 1.98 6.719 1.897 10.26 1.005a6.035 6.035 0 0 0 2.007-.948c.111-.084.25-.196.39-.084.167.111.14.25.14.39Zm-7.22-37.915c.502-.334.864-.306 1.226.14.419.53.558 1.17.558 1.812 0 1.477-.223 2.9-.697 4.293-.111.307-.167.78-.558.753-.362 0-.446-.446-.53-.753-.501-1.645-.864-3.317-.585-5.046.056-.446.223-.864.586-1.199Zm-12.601 7.64c.028-.754.362-1.032 1.059-.893a2.76 2.76 0 0 1 1.422.78c.976.948 1.728 2.036 2.397 3.207.112.167.168.39.251.585.056.167.14.362 0 .502s-.334.056-.502 0a5.955 5.955 0 0 1-1.115-.558c-.892-.557-1.756-1.17-2.509-1.923-.502-.474-.836-1.004-1.003-1.7Zm21.16 2.731a15.756 15.756 0 0 1 2.035-2.816c.418-.473.92-.864 1.533-1.031.362-.111.753-.167 1.06.167.278.28.222.641.11 1.004a3.187 3.187 0 0 1-.863 1.366c-.976.92-2.063 1.728-3.262 2.314-.279.14-.641.418-.892.167-.251-.25.028-.613.14-.892.027-.084.083-.167.139-.279Zm5.854 8.559c.725-.056 1.394-.084 2.007.195.363.167.697.363.697.837 0 .473-.362.64-.725.808-.418.195-.892.25-1.338.223-1.226-.056-2.453-.223-3.624-.67-.195-.083-.474-.139-.474-.417 0-.251.251-.307.446-.363.976-.362 1.98-.53 3.011-.613Zm-29.551.14c1.756-.39 3.4 0 4.99.557.14.056.307.111.307.279.028.195-.168.279-.307.334-.836.39-1.729.53-2.62.642-.698.083-1.395.195-2.092 0a3.271 3.271 0 0 1-.669-.251c-.669-.39-.669-.976-.028-1.394l.419-.168Zm130.611 26.68-.251-1.144c-.474-2.23-1.115-4.432-1.115-6.774l.028-24.143c0-.948-.084-1.004-1.032-.864l-4.99.724c-.474.056-.725.251-.753.781-.027 1.06-.111 2.119-.167 3.178l-.334 5.297c-1.868-.78-3.708-.808-5.66-.669-2.369.39-4.377 1.366-6.077 2.983-4.684 4.433-4.795 12.294-1.896 16.895 3.317 5.213 10.315 6.83 15.556 3.596.335-.223.502-.14.641.167.335.78.92.976 1.757.92 1.171-.084 2.314-.028 3.485-.028.669.028.947-.279.808-.92Zm-14.023-4.294c-1.589-.809-2.397-2.23-2.899-3.847-.586-1.813-.641-3.652-.223-5.576.334-1.505.948-2.788 2.007-3.847 2.063-2.035 5.297-1.255 6.524 1.589.083.195.055.446.055.697l.028 7.694c0 2.593-3.15 4.489-5.492 3.29Zm-58.35-3.346c-.111 4.74-3.345 8.476-8.224 9.396-4.46.836-8.447-.28-11.765-3.485-.474-.474-.864-1.032-1.227-1.59-.278-.417-.223-.696.251-.92l4.405-2.062c.418-.195.67 0 .948.25 1.171 1.004 2.453 1.785 4.07 1.896 2.008.112 3.987-1.282 4.433-3.15.279-1.227-.14-2.175-1.115-2.927-.836-.641-1.868-.864-2.872-1.115-1.617-.39-3.206-.781-4.711-1.506-3.903-1.923-6.05-6.05-5.297-10.26.808-4.432 4.126-7.61 8.503-8.112 4.46-.53 8.085 1.004 10.956 4.46.446.53.418.865-.223 1.172a38.742 38.742 0 0 0-3.038 1.533c-.53.307-.893.25-1.367-.111-1.589-1.227-3.345-1.673-5.324-1.116-1.394.39-2.259 1.339-2.621 2.705-.362 1.31.307 2.648 1.617 3.345 1.422.753 3.01.892 4.516 1.366 2.147.67 4.182 1.561 5.66 3.318 1.644 1.951 2.397 4.265 2.425 6.913Zm23.139-6.746c-.39-2.9-1.421-5.52-3.819-7.36-3.903-3.011-10.148-2.537-13.856 1.143-3.29 3.262-4.237 7.304-3.652 11.765.558 4.181 2.62 7.388 6.58 9.255.418.168.752.335 1.143.447 4.181 1.282 8.112.78 11.737-1.757.92-.641.92-.725.39-1.673-.335-.64-.725-1.254-1.032-1.895-.223-.474-.501-.558-.975-.39-1.199.445-2.482.724-3.764.891-3.457.447-6.189-1.143-7.081-4.126-.167-.557.056-.836.641-.836h12.713c.669 0 .892-.25.975-.892.14-1.533.196-3.039 0-4.572Zm-5.966.557c-.223.447-1.282.112-1.951.14-.586.028-1.199 0-1.868 0h-4.851c.446-1.924 1.199-3.569 2.927-4.489 2.231-1.198 4.349-.39 5.325 1.924 0 .028.028.056.028.084.307.752.725 1.672.39 2.341Zm29.106-1.477c-.558-2.9-1.84-5.38-4.433-6.97-4.767-2.9-11.347-1.366-14.553 3.401-2.592 3.82-2.927 8.002-1.672 12.323 1.087 3.708 3.512 6.217 7.192 7.416 4.154 1.338 8.113.808 11.709-1.729.92-.641.92-.725.419-1.673-.307-.585-.697-1.17-.948-1.784-.279-.613-.614-.697-1.227-.474-1.812.641-3.68 1.032-5.687.836-2.593-.39-4.266-1.7-5.018-4.181-.196-.614-.084-.78.585-.78l12.796.027c.614 0 .892-.195.948-.809.223-1.895.223-3.763-.111-5.603Zm-7.5 1.617h-6.941c.167-1.227.669-2.258 1.393-3.234.809-1.004 1.785-1.645 3.039-1.756 2.035-.14 3.318.808 3.959 2.927.418 1.366-.056 2.063-1.45 2.063ZM166.12 29.44c.112-.418.391-.446.67-.446h5.185c.53 0 .669.223.669.697-.028 1.812.167 1.533-1.505 1.533h-1.785c-.39-.028-.585.112-.529.53v.167c-.028.78.362 1.171 1.115 1.171h1.561c.474-.028.641.195.669.641.084 1.617.112 1.617-1.533 1.617-1.784 0-1.757 0-1.784 1.757-.028 2.23.278 1.84-1.868 1.895-.669.028-.837-.25-.837-.864l-.028-8.698Zm8.029 8.28v-3.875c0-.53.112-.809.725-.78 2.258.055 1.896-.336 1.924 1.923v3.262c0 .53-.167.78-.725.724-.251-.028-.53 0-.781 0-.752 0-1.143-.418-1.143-1.254Zm2.705-7.75c.223.752.028 1.338-.558 1.756-.53.362-1.115.335-1.673 0-.585-.363-.697-.92-.613-1.561.084-.642.502-1.032 1.115-1.115.753-.112 1.394.111 1.729.92Z"/></svg>