<svg xmlns="http://www.w3.org/2000/svg" fill="none" viewBox="0 0 210 80"><path fill="#232323" d="M47.467 40.708v9.815H40V29.07c.17-.012.348-.036.525-.036 1.153 0 2.312-.013 3.465 0 3.092.03 5.3 1.47 6.618 4.24 1.263 2.659 2.47 5.343 3.709 8.015.091.195.201.378.372.707.177-.31.293-.488.378-.683 1.19-2.605 2.373-5.21 3.563-7.814 1.36-2.983 3.666-4.49 6.972-4.471 3.483.018 6.967.012 10.45 0 .451 0 .628.115.726.579.909 4.185 1.854 8.363 2.787 12.542.043.195.098.396.16.616.194.012.377 0 .56.03.446.068.586-.134.677-.555.91-4.227 1.855-8.442 2.758-12.67.097-.457.28-.543.695-.536 3.569.012 7.131-.013 10.7.018 3.007.024 5.191 1.452 6.49 4.148 1.281 2.654 2.471 5.344 3.709 8.016.104.231.238.445.433.805.183-.354.305-.555.403-.769 1.196-2.623 2.373-5.252 3.587-7.869 1.336-2.861 3.574-4.337 6.747-4.35h3.873v21.485h-7.442v-9.809c-.061-.024-.128-.042-.189-.067-.122.177-.269.342-.36.53-1.08 2.313-2.141 4.637-3.233 6.943-1.037 2.19-3.441 2.977-5.435 1.812-.775-.452-1.294-1.129-1.647-1.946-1.007-2.282-2.02-4.557-3.038-6.826-.08-.184-.208-.348-.311-.519-.055.018-.11.037-.171.055v9.821h-7.497v-20.96c-.05 0-.098-.012-.147-.018-.433 1.537-.866 3.068-1.293 4.605-1.25 4.484-2.495 8.962-3.74 13.445-.56 2.025-1.805 2.959-3.922 2.965-1.214 0-2.434.006-3.648 0-1.927-.019-3.184-.952-3.715-2.825-1.64-5.843-3.27-11.694-4.904-17.544-.049-.17-.104-.341-.275-.494v20.82h-7.509v-9.779c-.055-.03-.116-.06-.17-.091-.123.159-.269.305-.354.482-1.08 2.312-2.154 4.63-3.233 6.942-.665 1.427-1.751 2.275-3.343 2.379-1.63.104-3.002-.769-3.715-2.355-1.037-2.287-2.044-4.587-3.069-6.88-.085-.19-.195-.373-.292-.556-.08.025-.16.043-.238.067v-.006Zm116.018-8.46c-.848 1.018-1.635 2-2.458 2.946-.135.158-.415.262-.629.268-.86.03-1.726.012-2.69.012v15.05h-7.302V35.51h-6.277v15.006c-3.135.05-6.265.464-8.68-2.11-.354-.372-.671-.781-.97-1.202-1.415-2.001-2.824-4.014-4.234-6.02-.128-.178-.262-.355-.53-.495v9.809h-7.51V29.02c1.922.104 3.837-.244 5.716.269 1.946.53 3.374 1.744 4.356 3.501 1.262 2.27 2.537 4.527 3.806 6.79.104.189.22.372.336.555l.164-.037v-.634c.037-1.855-.073-3.721.135-5.557.311-2.733 2.794-4.856 5.557-4.874 6.039-.037 12.084-.019 18.123 0 .196 0 .464.085.586.231.836.964 1.641 1.952 2.495 2.983h.006Z"/><path fill="#F6D306" d="M162.052 29.008h1.994l2.709 3.227-2.648 3.227h-2.055l2.525-3.227-2.525-3.227Z"/><path fill="#F6D306" d="M165.297 29.008h1.995L170 32.235l-2.647 3.227h-2.056l2.525-3.227-2.525-3.227Z"/></svg>