<svg xmlns="http://www.w3.org/2000/svg" fill="none" viewBox="0 0 210 80"><path fill="#23996E" d="M20 40.107c-.027-4.316 1.537-7.863 4.485-10.779 2.948-2.91 6.616-4.377 10.785-4.327 8.59.105 15.14 6.513 15.223 14.957.04 4.095-1.48 7.686-4.478 10.596-2.706 2.629-5.952 4.145-9.772 4.366-4.4.255-8.253-1.062-11.443-4.061-3.156-2.96-4.844-6.574-4.8-10.752Zm24.62 8.096c.709 0 1.283-.227 1.615-.869.31-.603.213-1.195-.158-1.754l-2.098-3.198c-1.024-1.6-2.178-3.116-3.162-4.742-.473-.775-1.176-1.13-2.104-1.124h-7.19c-.754 0-1.34.332-1.739.93l-2.593 3.978-2.942 4.538c-.237.37-.197.791-.034 1.178.31.747.9 1.063 1.71 1.063H44.62Zm-9.407-14.415h1.829c.461.017.832-.121 1.063-.514.23-.388.101-.764-.124-1.118L36.16 29.25c-.467-.742-1.311-.764-1.795-.039L32.4 32.228c-.208.315-.28.653-.1 1.001.202.393.55.56 1 .554.636-.011 1.278 0 1.913 0v.005Z"/><path fill="#414042" d="M102.55 30.8c0-.332.051-.459.434-.453l7.184.022c1.519.027 2.959.382 4.073 1.51.675.681 1.002 1.522 1.137 2.457.151 1.074.123 2.125-.271 3.143-.596 1.538-1.766 2.39-3.375 2.74-.911.198-1.834.154-2.751.17-1.159.017-2.318-.06-3.471.045l-.028 3.414.005 2.396c.011.316-.073.415-.405.404a31.668 31.668 0 0 0-2.177 0c-.293.011-.355-.089-.355-.36V30.8Zm2.926 4.56v2.352c0 .243.073.32.326.32l4.006-.005c.866-.005 1.671-.249 2.211-.935.782-.985.742-2.097.259-3.187-.428-.963-1.367-1.162-2.301-1.196l-4.18-.016c-.254 0-.321.083-.315.315v2.352h-.006Zm-41.604 3.143-.005-7.741c0-.305.056-.415.399-.41h10.678c.31 0 .4.089.388.382-.022.57-.022 1.14 0 1.71.017.32-.084.404-.41.404-2.555-.017-5.115 0-7.669-.017-.365 0-.455.089-.45.443a84.679 84.679 0 0 1 0 3.38c-.005.35.107.416.439.416l6.582-.017c.4 0 .495.11.473.476-.031.485-.031.97 0 1.455.022.349-.073.46-.444.454-2.195-.017-4.389 0-6.583-.017-.349 0-.461.067-.461.432l.017 6.374c0 .305-.05.427-.4.41a24.898 24.898 0 0 0-2.132 0c-.371.017-.416-.122-.416-.437l.005-7.697h-.01Zm19.826 2.905h-4.096c-.23 0-.36.039-.32.293.135.791.32 1.56.888 2.191 1.137 1.262 3.128 1.362 4.467.272.293-.238.501-.576.653-.925.101-.232.225-.315.484-.31h1.918c.231 0 .276.078.214.277-.613 1.954-1.94 3.138-3.972 3.597-1.446.327-2.852.216-4.174-.387-1.142-.526-1.964-1.406-2.51-2.568-.601-1.29-.675-2.64-.568-3.995.096-1.2.552-2.302 1.345-3.26 1.193-1.443 2.745-2.13 4.596-2.052 2.099.094 3.742 1.024 4.754 2.9.614 1.14.833 2.357.8 3.64-.007.26-.08.338-.35.338l-4.135-.005.006-.006Zm-1.362-1.727 2.83.006c.298 0 .35-.11.287-.354l-.067-.243c-.557-2.363-2.7-2.994-4.518-2.114-.996.481-1.378 1.422-1.58 2.434-.051.25.1.272.303.272h2.745Zm96.615-5.162c1.783.033 3.386.503 4.63 1.848.726.786 1.119 1.72 1.339 2.733.281 1.312.236 2.629-.186 3.896-.669 2.025-2.025 3.364-4.214 3.807-1.271.255-2.52.255-3.747-.177-1.912-.67-3.066-2.025-3.611-3.912a6.643 6.643 0 0 1-.248-1.904c.023-1.549.321-3.043 1.356-4.282.877-1.046 2.02-1.672 3.392-1.882.428-.066.85-.144 1.289-.127Zm3.443 6.253c.028-.368 0-.737-.085-1.096-.225-.957-.551-1.843-1.423-2.462-1.542-1.102-3.865-.709-4.771 1.184-.54 1.134-.652 2.324-.416 3.53.186.919.619 1.754 1.389 2.34.653.493 1.396.692 2.256.582.822-.105 1.469-.42 1.998-1.007.799-.875 1.046-1.937 1.046-3.077l.006.006Zm-51.652 6.197c-2.008-.011-3.651-.77-4.833-2.374-.641-.869-.917-1.881-1.052-2.944a7.262 7.262 0 0 1 .36-3.42c.726-2.03 2.228-3.186 4.355-3.574 1.8-.332 3.488-.055 5.007.996 1.232.852 1.941 2.031 2.194 3.47.298 1.67.264 3.32-.557 4.864-.81 1.527-2.098 2.462-3.82 2.81-.546.111-1.097.194-1.66.172h.006Zm-3.269-6.07c-.05.52.107 1.206.366 1.86.489 1.233 1.637 2.163 2.965 2.146 1.232-.017 2.261-.515 2.852-1.61.906-1.677.855-3.398 0-5.08-.917-1.81-3.51-2.12-4.956-.78-.957.885-1.227 2.036-1.232 3.47l.005-.006Zm24.794-6.375c1.586-.027 2.976.415 4.141 1.356 1.018.825 1.597 1.959 1.845 3.243.124.636.202 1.272.169 1.92-.079 1.505-.434 2.921-1.497 4.067-.911.98-2.065 1.555-3.415 1.77-.979.155-1.952.155-2.892-.1-1.924-.52-3.28-1.676-3.926-3.574-.535-1.566-.58-3.16-.091-4.703.619-1.948 1.953-3.281 4.034-3.768.557-.133 1.12-.238 1.637-.21h-.005Zm3.544 6.203c.011-.387-.09-.758-.169-1.128-.275-1.328-1.046-2.623-2.728-2.922-1.407-.25-2.774.426-3.365 1.555-.877 1.682-.86 3.403.085 5.052 1.254 2.197 4.174 2.064 5.406.171.552-.846.659-1.776.777-2.722l-.006-.006Zm4.242.288c-.022-1.627.265-3.065 1.204-4.327.878-1.184 2.065-1.82 3.544-2.059 1.182-.188 2.301-.071 3.415.277 1.66.52 2.718 1.583 3.033 3.304.017.094.067.182.095.276.057.205.012.321-.242.316a68.874 68.874 0 0 0-2.132 0c-.174 0-.304-.056-.326-.21-.129-.792-.535-1.395-1.283-1.7a3.655 3.655 0 0 0-2.166-.204c-1.384.299-2.155 1.455-2.38 2.656-.219 1.179-.202 2.374.242 3.53.833 2.175 3.376 2.64 4.805 1.207.433-.438.669-.996.765-1.594.039-.255.141-.304.36-.304h2.093c.214 0 .309.066.259.265-.304 1.195-.698 2.346-1.671 3.215-.793.708-1.722 1.074-2.779 1.223-1.024.144-2.037.122-3.005-.194-2.098-.68-3.263-2.174-3.707-4.272-.107-.509-.028-1.018-.107-1.416l-.017.011Zm-17.44-.52.039 3.32c.034.448.343.808.776.836a7.91 7.91 0 0 0 1.306-.012c.208-.022.27-.033.264.189v1.494c.006.22-.084.265-.298.31a6.25 6.25 0 0 1-1.182.132c-.872.011-1.76 0-2.554-.476-.793-.475-.995-1.222-1.001-2.041v-7.05c0-.32-.068-.448-.422-.42-.45.033-.9 0-1.35.01-.192 0-.253-.055-.248-.243.011-.485.011-.97 0-1.455 0-.205.068-.271.276-.266l1.305.011c.326.017.45-.055.439-.41l-.017-2.777c-.006-.288.084-.354.366-.349h1.958c.309-.01.354.106.348.366l-.017 2.733c-.011.37.113.454.462.437l1.609-.01c.247-.006.326.071.32.315v1.322c.017.282-.095.332-.348.321-.552-.017-1.103.011-1.654-.011-.299-.011-.394.066-.389.37l.006 3.343.006.01Zm-22.448-3.575c.67-1.256 1.587-2.03 2.886-2.318.467-.105.951-.028 1.429-.033.163 0 .22.11.214.26v2.008c0 .26-.152.332-.366.283-1.074-.25-2.047-.028-2.863.675-.563.481-.861 1.156-1.047 1.875-.123.46-.09.924-.095 1.39v5.173c0 .321-.079.415-.405.399a28.855 28.855 0 0 0-1.958 0c-.248.005-.321-.067-.321-.31V35.16c0-.227.04-.338.31-.327.639.017 1.279.017 1.918 0 .225 0 .304.061.298.288v1.804-.006Zm69.829 1.588.006 7.697c0 .321-.062.443-.422.427a24.633 24.633 0 0 0-1.918 0c-.242 0-.332-.056-.321-.305.022-.398 0-.797 0-1.195l-.006-14.332c0-.343.062-.475.445-.453.59.033 1.192.027 1.783 0 .338-.017.433.077.433.415l-.011 7.74.011.006Zm-97.109 2.258.006 5.467c0 .316-.068.415-.4.399a25.665 25.665 0 0 0-1.958 0c-.253.005-.315-.078-.315-.316V35.122c0-.271.118-.293.338-.293h1.958c.315-.011.377.094.377.382l-.006 5.555Zm-1.418-7.93c-.354-.05-.906.189-1.175-.088-.248-.254-.068-.791-.068-1.2 0-.382-.169-.875.067-1.113.237-.238.743-.06 1.131-.072l1.216-.005c.19 0 .247.06.247.243v2.009c0 .194-.079.238-.259.238-.36-.011-.726 0-1.159 0v-.011Z"/></svg>