<svg xmlns="http://www.w3.org/2000/svg" fill="none" viewBox="0 0 210 80"><path fill="#1B1B1B" d="M5.535 46.889c-2.089 0-3.899-.731-5.535-2.159l.94-1.113c.73.661 1.427 1.148 2.158 1.462.73.313 1.566.452 2.471.452s1.636-.209 2.193-.627c.557-.452.836-1.009.836-1.705 0-.696-.244-1.184-.731-1.566-.488-.383-1.427-.732-2.785-1.01-1.601-.348-2.785-.8-3.48-1.392-.697-.592-1.08-1.427-1.08-2.541.035-1.08.453-1.95 1.288-2.646S3.725 33 5.012 33c1.776 0 3.342.557 4.734 1.67l-.905 1.184c-1.183-1.01-2.506-1.496-3.898-1.496-.87 0-1.567.208-2.089.626-.522.453-.8.975-.8 1.601 0 .662.243 1.184.765 1.567.523.383 1.497.73 2.924 1.044 1.532.348 2.646.8 3.342 1.392.696.592 1.08 1.427 1.08 2.437 0 1.148-.419 2.088-1.289 2.785-.905.73-1.984 1.079-3.341 1.079Zm20.85.034c-1.706 0-3.063-.522-4.108-1.531-1.009-1.044-1.531-2.472-1.531-4.351v-7.832h1.532v7.762c0 1.462.348 2.576 1.079 3.377.73.8 1.74 1.183 3.063 1.183 1.322 0 2.262-.383 2.993-1.149.731-.765 1.08-1.88 1.08-3.306v-7.867h1.53v7.727c0 1.915-.521 3.412-1.53 4.456-1.01 1.01-2.402 1.531-4.108 1.531Zm16.952-.208V33.209h5.047c1.532 0 2.785.383 3.69 1.148.905.766 1.357 1.845 1.357 3.168 0 1.392-.522 2.506-1.531 3.272-1.01.766-2.263 1.149-3.795 1.149h-3.272v4.769h-1.496Zm1.531-6.162h3.342c1.114 0 2.019-.278 2.68-.8.696-.557 1.01-1.288 1.01-2.193s-.314-1.67-.975-2.158c-.627-.522-1.532-.766-2.645-.766h-3.412v5.917Zm19.11-7.344h9.781V34.6h-8.25v4.63h7.38v1.392h-7.38v4.734h8.355v1.392h-9.886V33.21Zm20.642 0h5.813c1.67 0 2.958.452 3.829 1.357.696.697 1.044 1.602 1.044 2.715 0 1.114-.348 1.95-1.01 2.611-.661.661-1.566 1.114-2.68 1.323l4.142 5.534h-1.88l-3.933-5.256h-3.863v5.256H84.62V33.21Zm5.673 6.892c1.045 0 1.88-.244 2.507-.766.626-.487.974-1.183.974-2.053 0-.87-.313-1.497-.94-1.95-.591-.487-1.462-.73-2.54-.73h-4.178V40.1h4.177Zm16.012 6.614V33.209h1.532v6.022h7.797v-6.022h1.532v13.506h-1.532v-6.092h-7.797v6.092h-1.532Zm27.812.208c-1.705 0-3.063-.522-4.107-1.531-1.009-1.044-1.532-2.472-1.532-4.351v-7.832h1.532v7.762c0 1.462.348 2.576 1.079 3.377.731.8 1.74 1.183 3.063 1.183 1.323 0 2.263-.383 2.994-1.149.731-.765 1.079-1.88 1.079-3.306v-7.867h1.531v7.727c0 1.915-.522 3.412-1.531 4.456-1.01 1.01-2.402 1.531-4.108 1.531Zm16.952-.208V33.209h1.532l4.908 7.38 4.908-7.38h1.531v13.506h-1.531V35.75l-4.908 7.24h-.07l-4.873-7.205v10.93h-1.497Zm23.357 0 6.161-13.61h1.427l6.161 13.61h-1.636l-1.566-3.586h-7.345l-1.601 3.586h-1.601Zm3.759-4.943h6.161l-3.063-6.892-3.098 6.892Zm20.363 4.943V33.209h1.427l8.528 10.825V33.21H210v13.506h-1.218l-8.737-11.104V46.68h-1.497v.035Z"/></svg>