<svg xmlns="http://www.w3.org/2000/svg" fill="none" viewBox="0 0 210 80"><path fill="#231F20" d="M98.704 74.173c-3.992 0-7.168-3.06-7.168-7.636 0-4.576 3.09-7.636 7.052-7.636 3.292 0 6.002 2.156 6.586 5.129l-2.564.817c-.233-2.1-1.894-3.671-4.022-3.671-2.564 0-4.547 2.215-4.547 5.361s1.983 5.304 4.547 5.304c2.215 0 3.963-1.514 4.138-3.846l2.681.817c-.525 3.148-3.322 5.361-6.703 5.361Zm9.589-14.92h1.983l.292 2.418c.7-1.69 2.098-2.767 3.789-2.767.582 0 1.136.145 1.631.349l-.116 2.74c-.582-.35-1.282-.466-1.748-.466-2.039 0-3.497 1.631-3.497 3.906v8.393h-2.332V59.255h-.002v-.002Zm12.589 0 4.255 11.19 3.963-11.19h2.68l-6.41 16.668c-.904 2.331-2.508 3.846-4.488 4.079l-.641-2.448c1.282-.116 2.272-.757 2.797-2.099l.817-2.099-5.713-14.104h2.74v.003Zm15.386 12.123v8.277h-2.332V59.255h1.983l.292 2.448c1.107-1.748 2.913-2.797 5.188-2.797 3.906 0 6.935 3.148 6.935 7.576 0 4.429-3.175 7.693-6.935 7.693-2.186 0-3.993-1.05-5.129-2.797h-.002v-.002Zm4.78.463c2.797 0 4.836-2.215 4.836-5.304 0-3.089-2.039-5.361-4.836-5.361s-4.837 2.245-4.837 5.361c0 3.117 2.04 5.304 4.837 5.304Zm8.685-12.586h.933c.903 0 1.574-.758 1.574-1.807v-1.924h2.215v3.73h3.206v2.273h-3.206v8.45c0 1.08.787 1.807 1.983 1.807.408 0 .874-.059 1.223-.175l.059 2.331a5.794 5.794 0 0 1-1.631.233c-2.361 0-3.963-1.485-3.963-3.73v-8.918h-2.389V59.25h-.004v.003Zm10.084 7.286c0-4.43 3.059-7.636 7.284-7.636 4.226 0 7.285 3.206 7.285 7.636s-3.059 7.636-7.285 7.636c-4.225 0-7.284-3.205-7.284-7.636Zm7.284 5.305c2.798 0 4.837-2.216 4.837-5.305 0-3.089-2.039-5.361-4.837-5.361-2.797 0-4.836 2.245-4.836 5.361 0 3.117 2.039 5.305 4.836 5.305Z"/><path fill="#4A3AF8" d="M39.08 54.008v19.816H35V54.008h4.08ZM41.294 66.54c0-4.431 3.12-7.636 7.402-7.636s7.4 3.205 7.4 7.636c0 4.43-3.118 7.635-7.4 7.635-4.283 0-7.401-3.205-7.401-7.635Zm7.402 3.73c1.866 0 3.205-1.575 3.205-3.76 0-2.186-1.342-3.76-3.206-3.76-1.864 0-3.205 1.574-3.205 3.76 0 2.185 1.341 3.76 3.206 3.76ZM57.79 66.54c0-4.431 3.118-7.636 7.4-7.636 4.283 0 7.401 3.205 7.401 7.636 0 4.43-3.118 7.635-7.4 7.635-4.283 0-7.402-3.205-7.402-7.635Zm7.4 3.73c1.866 0 3.206-1.575 3.206-3.76 0-2.186-1.342-3.76-3.206-3.76-1.864 0-3.205 1.574-3.205 3.76 0 2.185 1.341 3.76 3.205 3.76ZM78.772 71.93v7.723h-4.08V59.255h3.149l.7 1.866c1.05-1.399 2.594-2.215 4.43-2.215 3.671 0 6.354 3.175 6.354 7.52 0 4.343-2.594 7.751-6.119 7.751-1.777 0-3.322-.844-4.43-2.244h-.004v-.003Zm3.205-1.722c1.866 0 3.205-1.544 3.205-3.7s-1.341-3.7-3.205-3.7-3.206 1.544-3.206 3.7 1.342 3.7 3.206 3.7Z"/><path fill="url(#a)" d="M118.424 32.181h-13.412l3.101-2.884-1.214-1.303-5.74 5.338 5.74 5.336 1.214-1.303-3.104-2.884h13.415a2.393 2.393 0 0 1 2.39 2.39v4.94H98.577V4.724c0-2.565-2.088-4.668-4.654-4.689L87.785 0a1.522 1.522 0 0 0-1.064.436 1.493 1.493 0 0 0-.445 1.066v31.475a1.504 1.504 0 0 0 1.502 1.502h6.005V32.18h-5.211V2.302l5.332.032a2.398 2.398 0 0 1 2.371 2.39v37.88a1.505 1.505 0 0 0 1.503 1.502h23.826a1.502 1.502 0 0 0 1.502-1.502V36.87a4.694 4.694 0 0 0-4.689-4.689h.007Z"/><defs><linearGradient id="a" x1="86.276" x2="123.106" y1="22.053" y2="22.053" gradientUnits="userSpaceOnUse"><stop stop-color="#5AA9F0"/><stop offset=".11" stop-color="#5485F2"/><stop offset=".25" stop-color="#4F5CF5"/><stop offset=".36" stop-color="#4B43F7"/><stop offset=".43" stop-color="#4A3AF8"/></linearGradient></defs></svg>