<svg xmlns="http://www.w3.org/2000/svg" fill="none" viewBox="0 0 210 80"><path fill="#F15949" d="M87.514 33.31c-3.173 0-5.758 1.586-6.985 4.451-.589 1.33-.82 2.969-.844 4.861v.231c0 7.164 3.633 9.62 8.366 9.62a9.08 9.08 0 0 0 6.831-2.968.135.135 0 0 0-.025-.205L92.63 47.28c-.05-.05-.127-.05-.204 0-1.305 1.28-2.483 1.817-4.324 1.817-3.097 0-4.683-1.92-4.683-5.143h11.744c.077 0 .129-.05.129-.128l.025-2.789c.026-4.58-2.84-7.727-7.803-7.727Zm4.222 7.522h-8.239v-.307c.052-.87.102-1.28.46-1.945.59-1.075 1.92-1.792 3.66-1.792 1.74 0 3.044.717 3.607 1.792.358.639.46 1.075.512 1.945v.307Zm32.52-7.523c-3.173 0-5.757 1.587-6.985 4.452-.589 1.33-.819 2.969-.844 4.861v.231c0 7.164 3.633 9.62 8.366 9.62a9.08 9.08 0 0 0 6.832-2.968.136.136 0 0 0-.026-.205l-2.226-2.021c-.052-.05-.128-.05-.205 0-1.305 1.28-2.482 1.817-4.325 1.817-3.096 0-4.683-1.92-4.683-5.143h11.744c.078 0 .128-.05.128-.128l.026-2.789c.051-4.58-2.841-7.727-7.804-7.727m4.247 7.523h-8.239v-.307c.052-.87.103-1.28.461-1.945.589-1.075 1.919-1.792 3.659-1.792 1.74 0 3.045.717 3.608 1.792.357.639.46 1.075.511 1.945v.307Zm-65.32-7.165v3.121c0 .078.078.128.128.154h8.597l-9.185 15.096c-.05.077-.026.154.051.18.026.025.05.025.078.025h15.095c.078 0 .128-.076.128-.154v-3.12c0-.078-.076-.154-.128-.154H68.99l9.135-15.096c.05-.077.025-.154-.052-.18-.025-.025-.05-.025-.076-.025H63.31c-.076 0-.129.077-.129.153Zm98.483-4.963h-3.326c-.078 0-.129.077-.129.128v4.682h-2.456c-.077 0-.128.077-.128.154v3.121c0 .077.077.129.128.154h2.456v9.773c0 4.069 2.968 5.656 6.192 5.656.333 0 .538 0 .717-.026.076 0 .128-.076.128-.154v-3.198c0-.077-.078-.128-.154-.128a2.055 2.055 0 0 1-.563 0c-1.817-.077-2.738-1.05-2.738-3.198v-8.75h3.659c.077 0 .153-.078.153-.13v-3.12c0-.078-.077-.154-.153-.154h-3.659v-4.657c0-.102-.051-.154-.128-.154m17.936 14.1c-1.228-.87-3.044-1.331-5.321-1.715-2.994-.511-3.378-1.1-3.352-2.277 0-.665.358-1.279.972-1.586.92-.512 1.918-.538 2.84-.435 1.075.102 2.43.511 3.377 1.536.051.05.128.077.18.025l.025-.025 2.251-2.047c.052-.052.078-.129.026-.18a4.953 4.953 0 0 0-1.535-1.38 9.253 9.253 0 0 0-2.226-1.024c-.87-.23-1.766-.359-2.687-.359a9.268 9.268 0 0 0-3.53.64 5.785 5.785 0 0 0-2.047 1.459 4.935 4.935 0 0 0-1.1 2.226 5.927 5.927 0 0 0 .102 2.917c.205.64.563 1.228 1.023 1.74 1.33 1.458 3.429 1.867 5.476 2.226 1.381.256 3.889.358 3.838 2.277-.051 1.868-2.303 2.457-3.838 2.457-1.766 0-3.276-.64-4.504-1.869-.051-.05-.128-.05-.205-.025l-2.2 1.996c-.052.05-.077.128-.026.205 1.612 1.816 4.376 2.917 7.165 2.917 3.581 0 6.984-1.74 7.189-5.45.102-1.97-.538-3.3-1.893-4.247m-28.707-17.913a2.558 2.558 0 1 1 0 5.116 2.558 2.558 0 0 1 0-5.116Z"/><path fill="#F15949" d="M140.453 33.513V30.93c.102-1.918 1.407-2.66 2.916-2.686.768-.026 1.561.05 2.329.128.077.026.153-.026.153-.102v-3.121c0-.078-.051-.128-.128-.128a11.69 11.69 0 0 0-2.303-.205h-.333c-3.658 0-6.243 2.047-6.243 5.808v2.917h-2.789c-.077 0-.128.051-.128.129v3.12c0 .078.077.128.128.154h2.789v15.173c0 .077.077.154.128.154h3.326c.077 0 .129-.077.129-.154V36.943h8.648v15.173c0 .077.077.154.128.154h3.326c.077 0 .128-.077.128-.154V33.67c0-.078-.077-.13-.128-.154h-12.077l.001-.002Zm-29.144 1.459c-1.177-1.1-2.738-1.689-4.785-1.689-1.407 0-2.635.205-3.864 1.024-.255.18-.511.358-.716.563-.051.05-.102.102-.179.153v-1.356c0-.077-.077-.129-.129-.154H98.31c-.077 0-.128.078-.128.154v18.422c0 .077.077.154.128.154h3.326c.077 0 .129-.078.129-.154v-12.23c0-.973.716-1.843 1.509-2.329.972-.588 2.584-.665 3.685-.486 1.74.281 2.968 1.714 2.968 3.53v11.514c0 .077.077.154.128.154h3.326c.077 0 .129-.077.129-.154V40.6c.05-2.047-.512-4.042-2.201-5.628Zm-59.642-7.036v3.813L28 44.106V40.32l9.416-4.938L28 33.028v-3.454l13.893 3.505 5.348-2.789L28 25.454V22l23.667 5.936ZM28 52.064 51.667 58v-3.428l-19.215-4.836 5.347-2.79 13.893 3.48v-3.454l-9.415-2.354 9.415-4.938v-3.787L28.026 48.251v3.813H28Z"/></svg>