<svg xmlns="http://www.w3.org/2000/svg" fill="none" viewBox="0 0 616 139"><path fill="#000" d="M47.677 12.072H16.61v29.383h31.068V12.072ZM142.506 12.072a42.67 42.67 0 0 0-31.984 14.447l-62.845 71.18V52.694H16.61v74.008h27.319a40.262 40.262 0 0 0 30.189-13.626l59.218-67.079a13.406 13.406 0 0 1 10.038-4.53h5.081V97.32h-40.973l25.939 29.383h46.102V12.072h-37.028.012ZM248.092 11.489h15.899V61.36h-15.899V11.489ZM383.691 11.489h15.899V61.36h-15.899V11.489ZM310.581 11.489v31.258l-20.5-31.258h-15.052V61.36h12.459V30.102l20.499 31.258h15.053V11.489h-12.459ZM367.27 42.523l3.428-9.346h-20.786v-12.33h24.044v-9.345H339.76c-3.167 0-5.734 2.59-5.734 5.783v44.088h15.899v-18.85h17.345ZM540.258 11.489v9.345h-15.339V61.36H509.58V20.834h-15.182V11.49h45.873-.013ZM470.08 11.489h15.899V61.36H470.08V11.489ZM446.479 11.489v31.258L425.98 11.489h-15.039V61.36h12.445V30.102l20.5 31.258h15.052V11.489h-12.459ZM564.576 52.014h25.073v9.346h-35.238c-3.167 0-5.734-2.59-5.734-5.784V17.272c0-3.194 2.567-5.783 5.734-5.783h34.196v9.345h-24.044v11.463h20.786l-3.428 9.346h-17.345v10.371ZM446.427 117.646l-3.441 9.359H413.99c-3.049 0-5.525-2.497-5.525-5.573V77.107h15.351v40.539h22.611ZM343.526 77.107v9.36h-14.818v40.538h-15.351V86.467h-14.648v-9.36h44.817ZM383.482 77.107h15.352v49.898h-15.352v-19.796h-18.258v19.796h-15.351V77.107h15.351V97.85h18.258V77.107ZM468.19 117.646h24.814v9.359h-34.979c-3.166 0-5.734-2.589-5.734-5.784V82.904c0-3.194 2.568-5.783 5.734-5.783h33.949v9.359H468.19v11.475h20.513l-3.441 9.359h-17.085v10.372l.013-.04ZM543.451 77.107v9.36h-14.818v40.538h-15.352V86.467h-14.648v-9.36h44.818ZM566.491 117.646h24.813v9.359h-34.978c-3.167 0-5.734-2.589-5.734-5.784V82.904c0-3.194 2.567-5.783 5.734-5.783h33.949v9.359h-23.784v11.475h20.513l-3.441 9.359h-17.085v10.372l.013-.04ZM292.779 77.107h-21.724c-5.513 0-10.53 3.181-12.915 8.19l-19.848 41.695h10.973c3.245 0 6.203-1.893 7.598-4.85l16.72-35.689h3.831v40.539h15.352V77.094l.013.013Z"/><path fill="#000" d="M278.053 104.554h-18.258v9.359h18.258v-9.359Z"/></svg>