<svg xmlns="http://www.w3.org/2000/svg" fill="none" viewBox="0 0 210 80"><path fill="#F23D2E" fill-rule="evenodd" d="M154.179 9.783h-6.569l-5.537 30.592c-.187 1.127-.375 2.159-.375 3.191 0 3.284 1.689 5.443 5.63 5.443 2.44 0 5.162-.657 6.663-1.502l-1.407-4.129a6.301 6.301 0 0 1-2.628.563c-.938 0-1.595-.469-1.595-1.783 0-.469.187-1.126.281-1.877l5.537-30.498Zm7.507 24.774c.751-2.534 2.628-6.006 6.1-6.006 1.22 0 2.064.657 2.064 1.877-.093 3.285-5.442 4.035-8.164 4.13Zm7.226-10.604c-8.821 0-14.358 7.601-14.639 15.578-.188 5.443 2.44 9.478 9.009 9.478 4.973 0 8.445-1.877 9.571-2.722l-1.501-4.222c-1.502.844-3.66 1.97-6.194 1.97-3.566 0-4.41-2.346-4.316-4.88 5.63-.187 14.639-1.407 14.92-9.478.094-3.566-2.439-5.724-6.85-5.724Zm-35.378 11.918c-1.408 5.724-5.725 9.76-9.76 7.601l.751-4.129c1.689-8.07 4.504-10.792 7.038-10.792 2.252.094 3.003 3.097 1.971 7.32Zm-.282-12.012c-2.252 0-4.692.845-6.475 3.097l3.003-17.173h-6.475l-6.569 36.41c1.783 1.502 5.724 2.816 9.103 2.816 9.102 0 14.733-7.601 14.733-17.173.094-5.725-3.472-7.977-7.32-7.977ZM61.839 13.35c1.877 0 2.627.845 2.627 2.158 0 2.722-4.316 6.194-11.448 6.194a12.54 12.54 0 0 1-3.754-.563c3.566-4.598 8.164-7.789 12.575-7.789ZM45.698 66.745c-1.595 0-2.534-.845-2.534-2.065 0-3.566 5.161-5.818 12.106-7.226-2.065 6.57-5.537 9.29-9.572 9.29Zm7.038-39.695c9.572 0 18.58-4.41 18.58-12.012 0-4.504-3.94-7.038-8.82-7.038-7.038 0-13.983 4.317-18.956 10.698-2.722-1.69-4.599-3.378-4.599-3.378L35 20.293c.75.751 2.534 2.159 5.161 3.566-2.627 4.88-4.223 10.323-4.223 15.86 0 7.976 5.068 11.354 10.323 11.354 4.692 0 8.258-2.252 11.167-5.161l-.938 5.537c-13.044 2.533-19.52 7.132-19.52 13.607 0 4.786 4.13 6.944 8.634 6.944 10.041 0 14.358-8.727 16.422-15.578 2.065-.187 4.223-.375 6.382-.469l-.188-6.287-4.88.563c.094-.47.188-.939.188-1.22.657-4.13 3.284-17.736 3.284-17.736h-6.475c-2.721 9.947-8.633 13.513-12.48 13.513-2.91 0-4.787-2.91-4.787-6.663 0-3.941 1.127-8.07 3.097-11.824 1.97.47 4.13.75 6.57.75Zm56.68 8.821c-1.407 5.724-5.724 9.76-9.76 7.601l.752-4.129c1.689-8.07 4.504-10.792 7.038-10.792 2.158.094 2.909 3.097 1.97 7.32Zm-.375-12.012c-2.252 0-4.692.845-6.475 3.097l3.097-17.173h-6.475l-6.57 36.41c1.784 1.502 5.725 2.816 9.103 2.816 9.103 0 14.734-7.601 14.734-17.173 0-5.725-3.566-7.977-7.414-7.977ZM85.205 33.994c-.75 6.1-3.66 10.229-7.225 10.229-2.065 0-2.91-1.877-2.628-4.41.75-6.382 4.223-11.168 7.32-11.168 2.064 0 2.909 2.252 2.533 5.35Zm-1.501-10.04c-7.132 0-14.827 7.413-14.827 17.547 0 4.974 2.815 7.602 8.164 7.602 7.038 0 14.076-4.692 14.827-15.766.563-7.6-4.88-9.384-8.164-9.384Z" clip-rule="evenodd"/></svg>