<svg xmlns="http://www.w3.org/2000/svg" fill="none" viewBox="0 0 210 80"><path fill="#000" d="M62.254 33.915c-4.603-1.04-6.97-2.838-6.97-5.389 0-2.55 2.48-4.638 5.826-4.638 3.345 0 6 2.193 6 5.066v.219h4.708v-.219c0-5.275-4.56-9.267-10.638-9.267-2.909 0-5.608.9-7.547 2.55-1.982 1.695-3.056 4.027-3.056 6.578 0 2.41.934 4.454 2.768 6.07 1.651 1.44 3.957 2.515 6.9 3.162 4.961 1.117 7.477 2.978 7.477 5.572 0 2.804-2.734 4.917-6.359 4.917-3.624 0-6.577-2.375-6.577-5.494v-.218H50v.218c0 5.53 4.856 9.695 11.25 9.695 3.057 0 5.895-.934 7.948-2.655 2.087-1.755 3.231-4.166 3.231-6.865 0-4.638-3.415-7.756-10.175-9.302Zm26.43-6.428c-3.669 0-6.944 1.65-9.058 4.56v-3.984h-4.463v32.832h4.498V48.397c2.123 2.908 5.354 4.559 9.058 4.559 6.97 0 12.219-5.46 12.219-12.717-.035-7.258-5.284-12.752-12.254-12.752Zm7.546 13.686c-.358 3.878-3.45 7.005-7.328 7.398-2.524.254-4.856-.463-6.585-2.044-1.721-1.58-2.69-3.808-2.69-6.288 0-4.778 3.554-8.367 8.297-8.367 2.445 0 4.638.934 6.219 2.655 1.58 1.72 2.34 4.096 2.087 6.646Zm59.751-13.118v3.991c-2.123-2.908-5.398-4.524-9.101-4.524-6.935 0-12.185 5.354-12.185 12.498 0 7.145 5.25 12.508 12.185 12.508 3.703 0 6.978-1.616 9.101-4.498v.611c0 4.961-3.092 8.158-7.914 8.158-3.231 0-5.965-1.433-7.223-3.808l-.078-.105h-4.629l.104.323c.83 2.367 2.341 4.341 4.35 5.712 2.053 1.363 4.638 2.079 7.476 2.079 3.669 0 6.761-1.144 8.988-3.371 2.227-2.193 3.415-5.285 3.415-8.91V28.056h-4.489Zm-2.525 18.07c-1.904 1.835-4.629 2.595-7.476 2.088-3.415-.576-6.07-3.345-6.542-6.865-.393-2.838.472-5.529 2.341-7.398 1.546-1.51 3.633-2.332 5.93-2.332.542 0 1.04.035 1.581.14 3.415.541 6.149 3.38 6.577 6.9.393 2.908-.463 5.642-2.411 7.468Zm-23.687-27.04a3.365 3.365 0 0 0-3.092.864c-.794.786-1.118 1.94-.864 3.092.253 1.188 1.257 2.192 2.445 2.446.254.07.507.07.751.07.865 0 1.721-.323 2.341-.97.795-.795 1.118-1.939.865-3.092-.253-1.153-1.223-2.122-2.446-2.41Zm-2.987 28.953h-3.878c-2.768 0-4.419-1.869-4.419-4.995 0-3.127 1.476-6.717 4.489-11.137l.035-.07V30.58l-12.874-1.834c0-1.075-.577-2.123-1.511-2.62-1.153-.647-2.411-.647-3.45-.036-1.005.577-1.616 1.686-1.616 2.84 0 1.318.795 2.515 2.018 3.012l-3.992 20.403h4.455l3.703-19.398 6.935 1.188c-1.869 3.345-2.804 6.463-2.804 9.267 0 5.17 3.127 8.585 8.193 8.908v.035h9.171v-24.21h-4.49v19.904h.035Z"/></svg>