<svg xmlns="http://www.w3.org/2000/svg" fill="none" viewBox="0 0 210 80"><path fill="#FC3C24" d="M90.646 42.549v4.17l5.214 4.519c-1.854 1.274-4.055 1.97-6.488 1.97-6.835 0-12.396-5.91-12.396-13.208 0-7.299 5.676-13.207 12.512-13.207 6.835 0 12.28 5.908 12.28 13.207 0 1.97-.347 3.823-1.158 5.445l4.981 4.287c1.738-2.897 2.665-6.14 2.665-9.732a18.747 18.747 0 0 0-18.768-19c-10.427 0-18.884 8.457-18.884 19s8.457 19 18.884 19c4.17 0 7.994-1.39 11.122-3.707l3.591 3.128h4.055v-4.519L95.049 42.55h-4.403ZM45 21.579v36.958h23.75V52.86H51.256V27.14H68.75v-5.56H45Zm73.104 23.171V27.372h7.067c3.128 0 6.951 1.043 6.951 5.793 0 5.445-5.329 5.908-6.951 5.908h-4.055c.116-.116-3.012 5.677-3.012 5.677Zm6.603 0 7.878 13.902h7.067l-8.689-14.945c4.866-1.738 7.647-5.56 7.647-10.658 0-7.183-4.75-11.47-12.628-11.47h-13.903v37.073h6.256V44.75m-51.207-7.994h-12.86l-3.012 5.677h15.872v-5.677Zm90.018-3.591-4.866 7.53-4.865-7.53h-7.299l8.341 12.396-8.805 12.976h7.299l5.329-8.11 5.214 8.11h7.299l-8.805-13.092 8.341-12.396-7.183.116Z"/></svg>