<svg xmlns="http://www.w3.org/2000/svg" fill="none" viewBox="0 0 210 80"><path fill="#0C1748" d="M85.563 34.852a1.501 1.501 0 0 0-.907-1.922 1.501 1.501 0 0 0-1.922.907 1.5 1.5 0 0 0 .907 1.922 1.501 1.501 0 0 0 1.922-.907ZM81.853 32.09a1.548 1.548 0 0 0-.938-1.985 1.548 1.548 0 0 0-1.984.939c-.29.809.13 1.698.938 1.984.81.29 1.698-.13 1.984-.938ZM77.429 30.758a1.602 1.602 0 0 0-.97-2.051 1.602 1.602 0 0 0-2.051.97c-.3.836.134 1.752.97 2.051.835.3 1.751-.138 2.05-.97ZM72.776 30.888a1.633 1.633 0 1 0-3.074-1.1 1.633 1.633 0 0 0 3.075 1.1ZM68.285 32.18a1.649 1.649 0 1 0-3.106-1.113 1.65 1.65 0 1 0 3.106 1.113ZM64.066 34.213a1.672 1.672 0 0 0-2.286-2.07 1.669 1.669 0 1 0 2.282 2.074M60.057 36.635a1.686 1.686 0 1 0-3.174-1.134 1.686 1.686 0 0 0 3.174 1.134ZM56.057 39.08a1.686 1.686 0 1 0-3.174-1.134 1.686 1.686 0 0 0 3.174 1.134ZM73.599 48.403a.345.345 0 0 0-.085-.483.349.349 0 0 0-.483.085.345.345 0 0 0 .085.483.349.349 0 0 0 .483-.085ZM86.832 39.366a1.228 1.228 0 0 0-.308-1.712 1.228 1.228 0 0 0-1.712.309 1.228 1.228 0 0 0 .309 1.711c.558.385 1.322.25 1.711-.308ZM86.153 43.897c.322-.46.205-1.09-.255-1.412a1.013 1.013 0 0 0-1.412.255c-.322.46-.206 1.09.255 1.412.46.322 1.09.206 1.412-.255ZM82.922 47.455a.761.761 0 0 0-1.252-.867.76.76 0 0 0 1.251.867ZM78.345 49.261a.432.432 0 0 0-.107-.603.432.432 0 0 0-.603.107.432.432 0 0 0 .107.603c.196.134.465.09.603-.107ZM19.49 45.122c-.281.782.125 1.64.908 1.922a1.501 1.501 0 0 0 1.921-.907 1.501 1.501 0 0 0-.907-1.922 1.5 1.5 0 0 0-1.922.907ZM23.2 47.884c-.29.81.13 1.699.938 1.984.81.291 1.698-.13 1.984-.938a1.548 1.548 0 0 0-.938-1.984 1.548 1.548 0 0 0-1.984.938ZM27.624 49.216c-.3.836.134 1.752.97 2.052.836.3 1.752-.135 2.051-.97a1.602 1.602 0 0 0-.97-2.052 1.606 1.606 0 0 0-2.05.97ZM32.277 49.086a1.632 1.632 0 1 0 3.073 1.1 1.632 1.632 0 0 0-3.073-1.1ZM36.768 47.79a1.649 1.649 0 1 0 3.104 1.114 1.649 1.649 0 0 0-3.104-1.114ZM40.987 45.762a1.669 1.669 0 0 0 1.006 2.131 1.669 1.669 0 0 0 2.131-1.005 1.665 1.665 0 0 0-1.005-2.132 1.669 1.669 0 0 0-2.132 1.006ZM44.996 43.34a1.686 1.686 0 1 0 3.175 1.134 1.686 1.686 0 0 0-3.175-1.135ZM48.996 40.894a1.686 1.686 0 1 0 3.175 1.135 1.686 1.686 0 0 0-3.175-1.135ZM31.454 31.567a.345.345 0 0 0 .085.483.345.345 0 0 0 .483-.085.345.345 0 0 0-.343-.538.354.354 0 0 0-.225.14ZM18.221 40.609a1.231 1.231 0 0 0 .304 1.711c.559.39 1.323.25 1.712-.303a1.231 1.231 0 0 0-.304-1.712 1.232 1.232 0 0 0-1.712.308M18.9 36.072c-.322.46-.205 1.09.255 1.412.46.322 1.09.206 1.412-.255a1.013 1.013 0 0 0-1.014-1.578 1.013 1.013 0 0 0-.653.42ZM22.131 32.519a.763.763 0 0 0 .762 1.182.764.764 0 0 0 .49-.315.762.762 0 0 0-.188-1.055.76.76 0 0 0-1.059.188M26.708 30.713a.432.432 0 0 0 .107.604c.197.138.465.09.604-.108a.432.432 0 0 0-.431-.673.436.436 0 0 0-.28.177Z"/><path fill="#E8653E" d="M52.057 61.515a1.56 1.56 0 0 1 1.484-1.64A1.564 1.564 0 0 1 53.697 63h-.03a1.557 1.557 0 0 1-1.61-1.484Zm-4.885.885a1.558 1.558 0 1 1 .412.045c-.139 0-.278-.014-.416-.045m10.963-1.622a1.566 1.566 0 0 1 .96-1.989 1.557 1.557 0 0 1 1.967 1.006 1.565 1.565 0 0 1-.938 1.944 1.564 1.564 0 0 1-1.993-.956m-17.06-.796a1.565 1.565 0 1 1 1.555-2.717 1.565 1.565 0 0 1-1.554 2.717Zm22.69-1.618a1.566 1.566 0 1 1 2.186.353s-.004 0-.009.005h.005a1.575 1.575 0 0 1-2.185-.358m-27.862-2.404h.01a1.568 1.568 0 1 1 1.17.478 1.58 1.58 0 0 1-1.18-.478Zm32.572-1.511a1.564 1.564 0 0 1 1.926-2.463 1.564 1.564 0 0 1-1.926 2.463Zm3.428-5.077a1.562 1.562 0 0 1-.545-2.543 1.56 1.56 0 0 1 1.702-.362c.8.322 1.193 1.233.872 2.033a1.573 1.573 0 0 1-1.404.984 1.47 1.47 0 0 1-.62-.108m-41.985-4.93a1.563 1.563 0 0 1 1.234-1.836 1.563 1.563 0 0 1 1.837 1.233 1.563 1.563 0 0 1-1.234 1.837 1.56 1.56 0 0 1-1.832-1.233m43.847-.912a1.548 1.548 0 0 1-1.394-1.694 1.55 1.55 0 0 1 1.694-1.394 1.553 1.553 0 0 1-.112 3.097c-.063 0-.125 0-.188-.004m-42.779-3.933a1.548 1.548 0 0 1-1.22-2.274 1.55 1.55 0 0 1 .917-.755 1.548 1.548 0 0 1 1.997 1.635 1.553 1.553 0 0 1-1.506 1.403c-.063 0-.125 0-.188-.005m41.072-3.423h.004s-.009-.014-.004-.018a.106.106 0 0 0-.013-.054 1.57 1.57 0 0 1 1.233-1.841c.845-.17 1.663.38 1.832 1.22v.009c.005.009.01.018.005.027l.013.053a1.561 1.561 0 0 1-1.229 1.833h-.009a1.569 1.569 0 0 1-1.837-1.233m-40.088-2.624a1.568 1.568 0 0 1-.885-2.03 1.575 1.575 0 0 1 2.936 1.14 1.576 1.576 0 0 1-2.051.894m2.645-5.52a1.565 1.565 0 0 1-.272-2.194v-.004a1.563 1.563 0 0 1 2.462 1.926c-.286.367-.72.586-1.184.6a1.582 1.582 0 0 1-1.01-.327m32.24-1.86a1.575 1.575 0 0 1 .019-2.23 1.575 1.575 0 0 1 2.653.814 1.576 1.576 0 0 1-2.671 1.417Zm-28.15-2.703a1.553 1.553 0 1 1 1.318.653 1.562 1.562 0 0 1-1.323-.653m23.673-.773a1.562 1.562 0 0 1 1.556-2.709 1.563 1.563 0 0 1-.733 2.914 1.538 1.538 0 0 1-.818-.205m-18.462-2.45a1.565 1.565 0 0 1 2.954-1.028c.299.81-.117 1.712-.925 2.012a1.568 1.568 0 0 1-2.012-.925c-.004-.018-.013-.036-.017-.054m13.193.367a1.558 1.558 0 1 1 .746-3.026 1.558 1.558 0 0 1-.746 3.026Zm-7.285-1.985a1.564 1.564 0 1 1 1.649 1.475h-.036a1.558 1.558 0 0 1-1.609-1.475"/><path fill="#0C1748" d="M96.311 36.407c-.085-4.018 3.106-7.338 7.124-7.423 4.018-.085 7.339 3.106 7.424 7.124.085 4.018-3.106 7.338-7.124 7.423h-.152a7.09 7.09 0 0 1-7.272-6.905v-.219Zm11.964 0a4.695 4.695 0 1 0-9.385-.34v.345a4.695 4.695 0 1 0 9.385.34v-.345ZM114.211 29.498h5.845c3.969 0 6.078 2.368 6.078 5.287a4.895 4.895 0 0 1-2.838 4.478l3.048 4.054h-2.878l-2.409-3.37a8.152 8.152 0 0 1-1.238.107h-3.133v3.263h-2.475v-13.82Zm5.948 8.424c1.984 0 3.37-1.407 3.37-3.133a3.187 3.187 0 0 0-3.196-3.182h-3.651v6.315h3.477ZM129.683 29.498h6.44c2.284 0 4.139 1.068 4.139 3.5a2.89 2.89 0 0 1-.394 1.43 2.893 2.893 0 0 1-1.054 1.045 3.542 3.542 0 0 1 2.753 3.54c0 2.838-2.155 4.308-5.247 4.308h-6.633V29.502l-.004-.004Zm6.31 5.224c1.069 0 1.685-.576 1.685-1.515 0-.938-.599-1.577-1.792-1.577h-3.732v3.092h3.839Zm.148 6.463c1.73 0 2.838-.706 2.838-2.132 0-1.426-1.024-2.217-2.601-2.217h-4.224v4.353h3.987v-.004ZM145.097 29.498h2.472v13.819h-2.472v-13.82ZM155.627 31.63h-4.863v-2.132h12.201v2.132h-4.862v11.687h-2.476V31.63ZM169.164 29.498h2.346l6.226 13.819h-2.516l-1.086-2.391h-7.594l-1.086 2.39h-2.516l6.226-13.818Zm4.116 9.47-1.582-3.58c-.599-1.363-1.363-3.222-1.363-3.222s-.747 1.837-1.363 3.222l-1.578 3.585h5.886v-.005ZM180.86 29.498h2.476v11.687h8.277v2.132h-10.749v-13.82h-.004Z"/><path fill="#E8653E" d="M100.41 47.491h-1.314v-.577h3.293v.577h-1.313v3.155h-.666v-3.155ZM105.308 46.914h.666v1.493h1.819v-1.492h.666v3.731h-.666v-1.671h-1.819v1.671h-.666v-3.732ZM111.739 46.914h2.896v.577h-2.23v.912h2.1v.572h-2.1v1.1h2.306v.576h-2.976v-3.732l.004-.005ZM117.772 46.914h1.578c1.073 0 1.64.64 1.64 1.426 0 .519-.295.992-.764 1.211l.822 1.095h-.777l-.653-.912a2.104 2.104 0 0 1-.335.027h-.845v.88h-.67V46.91l.004.005Zm1.605 2.275a.854.854 0 0 0 .112-1.703h-1.046v1.703h.938-.004ZM126.139 46.914l1.68 3.732h-.679l-.295-.643h-2.051l-.295.643h-.68l1.681-3.732h.639Zm.478 2.557-.425-.965c-.16-.367-.366-.867-.366-.867s-.201.496-.367.866l-.424.966h1.591-.009ZM130.702 46.914h1.573c1.073 0 1.64.64 1.64 1.422 0 .782-.567 1.42-1.644 1.42h-.899v.886h-.666V46.91l-.004.005Zm1.613 2.27a.848.848 0 1 0 .148-1.694h-1.091v1.695h.943ZM136.941 46.914h2.896v.577h-2.226v.912h2.101v.572h-2.101v1.1h2.311v.576h-2.977v-3.732l-.004-.005ZM142.88 49.163v-2.244h.666v2.212a.923.923 0 0 0 .872.966.922.922 0 0 0 .965-.872v-2.302h.666v2.244a1.585 1.585 0 0 1-1.586 1.587 1.585 1.585 0 0 1-1.587-1.587M150.264 47.491h-1.314v-.577h3.293v.577h-1.314v3.155h-.665v-3.155ZM155.162 46.914h.666v3.732h-.666v-3.732ZM158.925 48.773c0-1.054.849-1.912 1.908-1.917h.058c.456-.004.903.148 1.256.438l-.384.447a1.3 1.3 0 0 0-.822-.281 1.312 1.312 0 0 0-.938.373 1.33 1.33 0 0 0-.399.927 1.318 1.318 0 0 0 1.296 1.336c.349.005.689-.125.939-.366l.411.46a1.993 1.993 0 0 1-1.354.514 1.915 1.915 0 0 1-1.962-1.863v-.063M165.061 50.168l.259-.505c.344.29.787.447 1.238.438.403 0 .805-.192.805-.527s-.385-.443-.764-.536c-.684-.161-1.395-.38-1.395-1.122 0-.697.662-1.055 1.354-1.055.474-.009.934.134 1.323.402l-.259.514a1.92 1.92 0 0 0-1.064-.313c-.246 0-.675.103-.675.443 0 .3.336.398.783.505.706.165 1.394.433 1.394 1.157 0 .782-.773 1.136-1.511 1.136a2.061 2.061 0 0 1-1.492-.537"/></svg>