<svg xmlns="http://www.w3.org/2000/svg" fill="none" viewBox="0 0 210 80"><path fill="#242021" d="M35.889 50.686c-1.637.873-.837 3.655.964 4.255L59.8 62.45s.128.018.2 0l24.15-9.783c.236-.091.236-.437-.019-.528l-21.93-7.182c-1.964-.637-2.782-3.4-.418-4.656L83.44 28.81c1.637-.873.837-3.655-.963-4.255l-22.95-7.547s-.127-.018-.2 0L35.18 26.81c-.237.09-.237.436.018.527l21.93 7.183c1.964.636 2.783 3.4.419 4.655l-21.658 11.51Zm61.645-4.728 10.511-12.675h-10.22v-2.618h13.748v2.855l-10.347 12.62h11.001v2.673H97.534v-2.855Zm16.675-10.11h3.11v12.947h-3.11V35.846Zm5.619 0h3.092l-.055 2.872h.164c.309-1.327 1.818-3.273 4.564-3.273 3.401 0 5.892 2.746 5.892 6.783 0 4.037-2.346 6.946-5.783 6.946-2.909 0-4.255-2-4.637-3.218h-.127v7.492h-3.091V35.829l-.019.018Zm6.71 10.783c2.092 0 3.746-1.455 3.746-4.328s-1.636-4.292-3.746-4.292c-2.109 0-3.691 1.455-3.691 4.292 0 2.836 1.582 4.328 3.691 4.328Zm8.874-15.966h3.055v14.02c0 1.018.401 1.582 1.455 1.582h.837v2.546h-1.655c-2.437 0-3.692-1.2-3.692-3.6V30.664Zm6.783 0h3.11v3.055h-3.11v-3.055Zm0 5.182h3.11v12.947h-3.11V35.847Zm5.637 0h3.092l-.055 3.31h.128c.363-2 2.145-3.71 4.437-3.71 3.164 0 4.564 1.946 4.564 5.492v7.855h-3.11V41.34c0-2.2-1-3.364-2.8-3.364-1.982 0-3.164 2-3.164 4.037v6.782h-3.092V35.847Zm13.857 6.474c0-4.219 2.764-6.874 6.746-6.874 3.983 0 6.565 2.255 6.565 6.51 0 .473-.018.8-.073 1.055h-10.256c.109 2.51 1.71 3.8 3.819 3.8 1.618 0 2.873-.727 3.291-2.255h3.037c-.509 3.055-3.109 4.62-6.492 4.62-3.637 0-6.655-2.365-6.655-6.874l.018.018Zm10.183-1.146c0-2.073-1.364-3.491-3.509-3.491-2.146 0-3.492 1.455-3.619 3.491h7.128Zm-54.553-10.51h-3.11v3.055h3.11v-3.055Z"/></svg>