<svg xmlns="http://www.w3.org/2000/svg" fill="none" viewBox="0 0 210 80"><path fill="#000" d="M58.965 60c-11.04-.006-19.97-8.967-19.965-20.035.006-11.04 8.967-19.97 20.03-19.965 11.075.006 19.988 8.984 19.964 20.107C78.97 51.093 69.998 60.006 58.964 60ZM43.294 37.37c-1.315 6.942 2.57 15.103 10.684 17.797 7.954 2.636 15.564-1.439 18.59-6.882-5.324-.325-10.465-1.356-15.44-3.21-4.968-1.853-9.546-4.418-13.84-7.699l.006-.006Zm70.423 6.03 4.087 6.62h-2.808c-1.036 0-2.072-.047-3.109.018-.693.042-1.06-.225-1.392-.81l-2.825-4.691c-.136-.22-.414-.492-.633-.492l-8.913-.024v5.946h-5.769l-.041-.823-.018-20.722c0-.675.177-.87.864-.865l16.577.018c2.417.006 4.62.61 6.45 2.304 3.387 3.138 3.405 10.725-1.99 13.236-.148.071-.29.166-.492.285h.012Zm-15.564-4.241h1.895l9.683-.065c1.73-.042 2.725-.965 2.979-2.523.403-2.464-.811-3.974-3.298-4.104-.297-.018-.593-.018-.889-.018h-9.612c-.237 0-.48.024-.752.041v6.669h-.006Zm73.841 2.736h-20.332c.178 1.12.699 1.919 1.504 2.54 1.463 1.126 3.204 1.416 4.969 1.38 1.641-.029 3.287-.224 4.904-.49 1.137-.184 2.085-.854 2.861-1.73.136-.154.343-.338.521-.344l5.176-.017c-.421 1.83-1.368 3.221-2.742 4.335-1.718 1.392-3.737 2.067-5.881 2.41-3.323.533-6.639.533-9.902-.385-2.766-.781-5.076-2.215-6.284-4.957-2.559-5.81.32-11.578 6.633-13.171 3.79-.96 7.622-.954 11.418.077 4.075 1.107 6.574 4.11 6.989 8.309l.16 2.037.006.006Zm-5.958-3.553c-.332-.954-.865-1.635-1.623-2.138-1.184-.794-2.535-1.043-3.926-1.131-2.073-.143-4.14-.13-6.118.633-1.22.474-2.109 1.297-2.523 2.642h14.19v-.006Zm-32.443 8.291 1.546-3.24 5.49-11.631c.219-.462.462-.657.995-.652l5.383.012-1.8 3.82-10.643 22.446c-.207.433-.414.646-.924.634l-4.738-.012c-.189 0-.373-.035-.675-.065l3.761-7.924c-.764 0-1.398-.042-2.02.012-.586.053-.876-.196-1.131-.7l-7.533-14.58-1.872-3.625h1.955l3.476-.012c.48-.011.74.137.966.58l7.207 13.918.551 1.02h.006Z"/></svg>