<svg xmlns="http://www.w3.org/2000/svg" fill="none" viewBox="0 0 210 80"><path fill="#043558" fill-rule="evenodd" d="M167.614 48.872h7.024V38.073h-7.024v10.8Zm6.986-15.048h5.4v20.06c0 3.313-.35 3.9-1.237 4.787-.7.738-1.825 1.075-3.763 1.075h-7.874l-2.45-2.7v-1.124h9.937v-2.738h-6.787c-2.062 0-3.1-.387-3.962-1.237-1.125-1.162-1.588-3.662-1.588-8.412 0-4.75.538-7.374 1.713-8.562.887-.85 1.975-1.2 3.924-1.2l4.038.038 2.674 2.425V33.81l-.025.013Zm-63.644-5.325h6.362l-9.162 11.574 9.549 13.074h-6.749l-7.262-10.262h-1.713v10.262h-5.736V28.499h5.736v9.562h1.713l7.262-9.562Zm41.909 11.424v-1.775h-6.6v14.924h-5.349V33.824h5.349v2.424l2.675-2.424h1.55c.237-.038.5-.038.775-.038h2.325c1.625 0 2.674.35 3.412 1.075.812.775 1.125 1.775 1.125 4.625v13.573h-5.35V40.136c.075-.076.075-.15.075-.238l.013.025Zm-28.21 8.912h7.024v-10.8h-7.024v10.8Zm.237 4.25c-1.937 0-2.987-.313-3.8-1.2-1.237-1.275-1.749-3.013-1.749-8.45 0-5.437.5-7.174 1.749-8.487.813-.85 1.863-1.162 3.8-1.162h6.525c1.937 0 2.987.313 3.799 1.162 1.238 1.313 1.75 3.013 1.75 8.487 0 5.475-.5 7.175-1.75 8.45-.85.887-1.862 1.2-3.799 1.2h-6.525Z" clip-rule="evenodd"/><path fill="#169FCC" fill-rule="evenodd" d="m47.498 57.709 1.325-1.712h9.812l5.112 6.537-.912 2.212h-12.65l.3-2.212-2.986-4.825Z" clip-rule="evenodd"/><path fill="#14B59A" fill-rule="evenodd" d="m50.498 35.436 4.737-8.187h5.525l24.735 28.735-1.912 8.762H72.971l.663-2.462-23.136-26.848Z" clip-rule="evenodd"/><path fill="#1BC263" fill-rule="evenodd" d="m56.248 25.7 2.262-4.2 6.812-5.5 11.662 9.137-1.513 1.537 2.025 2.812V32.5l-5.812 4.75-9.75-11.55h-5.686Z" clip-rule="evenodd"/><path fill="#16BDCC" fill-rule="evenodd" d="M38.237 43.973h3.087l8.037-6.725L60.01 49.622l-3 4.512h-9.824l-8.35 10.624H30V54.184l8.237-10.199v-.012Z" clip-rule="evenodd"/></svg>