<svg xmlns="http://www.w3.org/2000/svg" fill="none" viewBox="0 0 210 80"><path fill="#4E4E4E" d="M46.515 24.816c-3.598 0-7.757.8-11.515 2.16V63.6c1.28.24 2.559.4 3.838.4 1.2 0 2.48-.16 3.679-.4V53.205c.8.08 1.84.24 3.039.24 9.436 0 14.793-5.598 14.793-14.715 0-9.036-5.437-13.914-13.834-13.914Zm-1.12 22.311a10.88 10.88 0 0 1-2.878-.4V31.773c.96-.32 1.999-.56 3.039-.56 3.838 0 7.277 2.48 7.277 7.837 0 4.878-2.64 8.077-7.437 8.077Zm129.387-9.916c0-7.197-4.798-12.315-11.835-12.315-7.837 0-13.035 5.518-13.035 14.474 0 8.957 5.518 14.154 13.914 14.154 3.359 0 6.557-.48 9.436-1.679 0-2.159-.48-3.598-1.519-5.518-1.759.64-4.238 1.28-6.397 1.28-5.198 0-7.437-2-7.997-5.998h17.033c.32-1.599.4-3.038.4-4.398Zm-17.273-.8c.64-3.918 2.559-5.677 5.278-5.677 3.038 0 4.958 2.159 4.958 5.677h-10.236ZM64.188 22.977c2.319.4 5.038.56 7.757 0V16.42a19.47 19.47 0 0 0-7.757 0v6.557Zm0 2.48v27.348c2.399.56 5.198.56 7.677 0V25.456c-2.48.56-5.358.56-7.677 0Zm50.059-.72c-3.199 0-6.317.48-8.716 1.839v.24c0 2.079.559 3.758 1.519 5.197 1.999-.96 3.918-1.36 6.237-1.36 3.999 0 5.758 1.2 5.758 4.959-.8-.08-1.839-.16-3.039-.16-8.076 0-12.155 3.758-12.155 9.036 0 5.598 4.079 8.956 11.755 8.956 3.839 0 8.317-.8 10.716-1.599V35.692c0-7.037-3.599-10.956-12.075-10.956Zm4.798 22.63c-.96.32-2.159.48-3.199.48-3.438 0-5.118-1.44-5.118-3.599 0-2.399 1.84-3.918 5.758-3.918.88 0 1.759.08 2.559.4v6.637Zm29.668 4.878c.239-2.08-.08-3.838-.88-5.358-.96.32-2.159.48-3.279.48-2.479 0-3.598-1.2-3.598-4.958V31.294h6.717c.48-2 .48-4.079 0-5.918h-6.717V16.42c-2.559-.56-5.198-.56-7.597 0v8.956h-4.398c-.48 1.84-.48 3.918 0 5.918h4.398v11.035c0 7.037 3.039 10.956 10.156 10.956 2.399 0 4.078-.4 5.198-1.04Z"/><path fill="#3EC4FC" d="m90.977 32.334-1.52 5.757h1.6c5.438 0 7.197-2.879 9.116-7.437l2.239-5.357c-7.597-.56-9.836.96-11.435 7.037Z"/><path fill="#FFBD00" d="m75.143 25.377 2.239 5.357c1.919 4.558 3.678 7.437 9.116 7.437h1.6l-1.52-5.757c-1.6-6.158-3.838-7.677-11.435-7.038Z"/><path fill="#F18B37" d="m86.578 45.849 1.52-5.758h-1.6c-5.438 0-7.197 2.879-9.116 7.437l-2.24 5.358c7.598.56 9.837-.96 11.436-7.038Z"/><path fill="#0090DB" d="m102.412 52.804-2.239-5.358c-1.92-4.558-3.678-7.437-9.116-7.437h-1.6l1.52 5.758c1.6 6.157 3.838 7.676 11.435 7.037Z"/></svg>