<svg xmlns="http://www.w3.org/2000/svg" fill="none" viewBox="0 0 210 80"><path fill="#E96D1F" d="M104.353 37.775v19.482h-5.37V37.775h-3.034v-5.358h3.033v-4.346h5.371v4.315h2.691v5.358h-2.691m5.485 19.513h5.371v-24.84h-5.371v24.84Zm22.647 0h5.371v-24.84h-5.371v24.84Zm13.276-12.508a8.754 8.754 0 0 0 1.87 5.89 6.913 6.913 0 0 0 10.077 0 8.48 8.48 0 0 0 1.88-5.786 8.513 8.513 0 0 0-1.88-5.785 6.856 6.856 0 0 0-5.018-2.191 6.84 6.84 0 0 0-5.017 2.19 8.275 8.275 0 0 0-1.912 5.682Zm-5.485-.105a12.764 12.764 0 0 1 3.636-9.152 12.14 12.14 0 0 1 17.66 0 13.108 13.108 0 0 1 3.584 9.381 13.054 13.054 0 0 1-3.604 9.382 11.968 11.968 0 0 1-4.064 2.814c-1.535.644-3.186.96-4.85.928a11.446 11.446 0 0 1-4.839-.959 11.49 11.49 0 0 1-3.991-2.908 13.352 13.352 0 0 1-3.532-9.496M88.48 50.66a6.348 6.348 0 0 1-5.039 2.168 6.31 6.31 0 0 1-5.038-2.189 8.703 8.703 0 0 1-1.86-5.89 8.273 8.273 0 0 1 1.922-5.66 6.297 6.297 0 0 1 4.987-2.188 6.36 6.36 0 0 1 5.038 2.189c.71.83 1.225 1.81 1.506 2.866h5.59a12.71 12.71 0 0 0-3.304-6.442 12.175 12.175 0 0 0-4.025-2.814 12.139 12.139 0 0 0-13.635 2.814 12.785 12.785 0 0 0-3.605 9.152 13.348 13.348 0 0 0 3.532 9.486 11.43 11.43 0 0 0 3.966 2.877c1.513.66 3.152.984 4.802.949a11.922 11.922 0 0 0 4.844-.93 11.956 11.956 0 0 0 4.058-2.813 12.638 12.638 0 0 0 3.335-6.494h-5.547a7.16 7.16 0 0 1-1.527 2.94m-27.01 0a6.359 6.359 0 0 1-5.049 2.168 6.299 6.299 0 0 1-5.028-2.189 8.703 8.703 0 0 1-1.901-5.91 8.356 8.356 0 0 1 1.963-5.66 6.328 6.328 0 0 1 4.987-2.19 6.38 6.38 0 0 1 5.049 2.19 8.525 8.525 0 0 1 1.89 5.785 8.482 8.482 0 0 1-1.942 5.785l.03.02Zm7.376-5.817a13.09 13.09 0 0 0-3.584-9.38 11.77 11.77 0 0 0-4.017-2.845 11.736 11.736 0 0 0-4.824-.95c-1.653-.026-3.292.3-4.81.956a11.708 11.708 0 0 0-4 2.849 12.755 12.755 0 0 0-2.717 4.212 12.79 12.79 0 0 0-.887 4.94 13.348 13.348 0 0 0 3.532 9.485 11.49 11.49 0 0 0 3.97 2.866c1.513.658 3.15.982 4.798.95a11.898 11.898 0 0 0 7.137-2.221v1.532h5.37V44.843m60.025-22.828a7.27 7.27 0 0 0-6.119 2.7c-1.039 1.292-1.527 3.512-1.527 6.629v1.042h-3.408v5.358h3.408v19.513h5.391V37.775h3.117v-5.358h-3.117c-.07-1.284.099-2.571.499-3.794a1.915 1.915 0 0 1 1.932-1.094c.238.004.475.032.707.083v-5.514a7.325 7.325 0 0 0-.894-.083"/></svg>