<svg xmlns="http://www.w3.org/2000/svg" fill="none" viewBox="0 0 210 80"><path fill="#030303" d="M52.663 41.415c-.2-2.288-1.46-3.78-3.715-4.543.929-.564 1.758-1.095 2.355-1.957 1.824-2.786.829-6.832-2.123-8.424a8.408 8.408 0 0 0-4.079-1.061l-9.12-.1c-.763 0-.929.2-.929.962l.033 21.889v.298c-.066.465.133.664.63.63 3.649-.099 7.297.166 11.011-.198 1.194-.2 2.255-.564 3.217-1.161 2.288-1.493 2.952-3.748 2.72-6.335Zm-12.735-7.097v-4.344c0-.332-.067-.697.464-.664 1.558.067 3.117-.166 4.643.166 1.46.332 2.156 1.128 2.222 2.587.066 1.625-.53 2.554-2.023 2.952-1.625.464-3.284.232-4.942.232-.597.033-.265-.53-.364-.929Zm4.278 10.812c-1.227.033-2.421 0-3.648 0-.498 0-.63-.133-.63-.63.033-1.692.033-3.383 0-5.075 0-.497.099-.73.663-.696 1.426.033 2.852 0 4.245.033 1.028.033 1.923.398 2.553 1.36 1.161 2.952-.165 4.975-3.183 5.008Zm159.389-13.531c-.564-.465-1.824-.067-2.753-.166-1.094-.133-1.558.232-1.459 1.326 0 .034-.099.067-.133.1-2.852-2.985-8.954-2.488-10.878 2.951-.298.863-.53 1.758-.597 2.654-.265 3.316 0 6.5 2.488 9.153 1.26 1.194 2.686 1.758 4.344 1.791 1.692.066 3.151-.497 4.444-1.691.133 1.824-.099 3.416-1.824 4.178-2.421 1.062-4.543.332-6.4-1.459-.498.663-.929 1.393-1.46 1.957-.696.763-.431 1.227.266 1.758 2.122 1.591 4.51 2.023 7.097 1.79 4.544-.43 7.097-3.183 7.097-7.727V34.418c-.033-.962.431-2.256-.232-2.82Zm-4.51 11.242c0 1.692-.796 2.587-2.521 2.72-.265.033-.53 0-.895 0-1.559-.166-2.388-1.094-2.819-2.388-.664-1.99-.63-4.013.099-5.97.73-1.923 2.488-2.719 4.444-2.056 1.227.431 1.692 1.095 1.692 2.388v5.306Zm-51.638-7.627c-1.127-2.952-3.615-4.378-6.732-4.08-1.459.133-2.653.83-3.715 1.89-.165-1.06-.762-1.558-1.79-1.558-.631 0-1.294.066-1.924 0-.73-.066-.862.199-.862.895v22.751c0 .664.166.863.829.83a23.424 23.424 0 0 1 3.051 0c.73.066.895-.233.862-.896v-7.362c.829.762 1.592 1.293 2.521 1.558 3.349.962 6.5-.597 7.827-4.046 1.194-3.316 1.16-6.7-.067-9.982Zm-4.676 8.888c-.597 1.293-1.857 1.724-3.449 1.426-1.194-.2-1.99-.929-2.189-2.123v-6.168c0-.63.232-1.095.663-1.493 1.559-1.393 4.245-.995 5.075.896 1.094 2.454.994 5.008-.1 7.462Zm-29.085 2.951 1.359 2.057h-5.074c-.497 0-.597-.398-.796-.697l-3.648-5.704c-.398-.664-.597-.498-1.061-.1-.829.73-1.194 1.526-1.095 2.654.1 1.028 0 2.089.034 3.15.033.597-.199.763-.763.73a56.514 56.514 0 0 0-3.35 0c-.564.033-.663-.2-.663-.697V24.7c0-.563.232-.663.73-.663 1.094.033 2.155.066 3.25 0 .729-.033.829.265.829.862V37.8c.663-.762 1.161-1.392 1.691-2.023l3.217-3.78c.232-.266.431-.564.896-.564 1.691.033 3.382 0 5.273 0l-3.118 3.615c-.895 1.061-1.791 2.122-2.719 3.117-.398.431-.465.763-.1 1.26l5.108 7.628Zm-36.581-13.73c-4.842-4.212-12.138-2.255-13.797 3.615-.53 1.857-.53 3.715-.232 5.638.531 3.35 2.82 5.903 5.904 6.6 3.747.862 7.163-.332 9.12-3.084 2.156-3.052 2.255-9.784-.995-12.769Zm-2.786 10.248c-.497 1.327-1.559 1.99-2.985 2.023-1.426.033-2.454-.597-3.084-1.857-.332-.663-.497-1.393-.564-2.222-.132-1.492-.066-2.852.365-4.179.53-1.526 1.592-2.321 3.051-2.355 1.559-.033 2.72.664 3.283 2.19.763 2.122.73 4.31-.066 6.4Zm106.426-4.908v-.697c-.034-1.061-.067-2.189-1.227-2.686-1.228-.53-2.521-.498-3.649.332-.63.43-.961 1.028-.961 1.89l.033 10.745c0 .697-.166.929-.896.896-1.028-.067-2.089-.033-3.15 0-.498.033-.697-.1-.697-.664V32.162c0-.53.166-.696.697-.663.928.033 1.824.067 2.719 0 .796-.066 1.194.166 1.128 1.028-.033.232-.067.53.199.796 1.426-1.558 3.217-2.222 5.339-2.155 2.653.099 4.378 1.492 4.942 4.079.166.73.232 1.459.265 2.222l.033 10.845c0 .663-.166.895-.829.862a21.916 21.916 0 0 0-2.951 0c-.73.066-.995-.133-.962-.929l-.033-9.584Zm-58.801 10.745c-2.455-.166-4.511-.962-5.97-2.918a14.61 14.61 0 0 1-.497-.763c-.962-1.89-.73-2.255 1.326-2.255h1.028c.863 0 1.592-.133 1.99 1.127.531 1.658 4.013 1.99 5.207.664.663-.73.497-1.791-.332-2.355-.729-.465-1.525-.663-2.354-.863-1.46-.331-2.886-.663-4.212-1.426-3.217-1.824-3.516-5.67-.63-7.992 2.752-2.19 8.025-2.09 10.712.199.995.862 1.559 1.923 1.757 3.217.1.63-.099.763-.663.73a56.487 56.487 0 0 0-3.349 0c-.465 0-.697-.067-.796-.63-.166-.93-.796-1.493-1.725-1.626-1.094-.166-2.189-.232-2.985.73-.696.829-.431 1.923.597 2.454.896.497 1.924.63 2.919.829 1.227.265 2.421.597 3.515 1.194 3.25 1.824 3.482 5.97.464 8.125-1.79 1.36-3.813 1.625-6.002 1.56ZM82.212 35.081c2.256-3.814 7.297-5.174 11.077-3.018 2.023 1.16 3.085 2.952 3.284 5.273.033.498-.033.763-.63.697-.564-.067-1.161 0-1.725 0-1.094 0-2.189.298-2.454-1.46-.166-1.127-1.327-1.592-2.52-1.625-1.261-.033-2.322.431-2.787 1.625-.928 2.455-.928 4.975 0 7.43.465 1.193 1.592 1.69 3.118 1.591 1.36-.1 2.123-.696 2.52-2.056.133-.398.266-.53.697-.53 1.061.032 2.09.032 3.15 0 .664-.034.697.265.63.795-.231 2.52-2.387 4.776-5.206 5.406-5.44 1.26-9.717-1.89-10.215-7.595-.166-2.255 0-4.444 1.061-6.533Zm-26.565-2.355-.033-7.793c-.033-.796.233-.962.962-.93 1.028.067 2.09.034 3.15 0 .565-.032.664.167.664.697v23.713c0 .53-.166.697-.696.697-1.029-.034-2.09-.067-3.151 0-.796.066-.962-.233-.929-.962l.034-15.422Zm100.722 3.582c-.863.53-1.128 1.26-1.128 2.189l.033 9.551c.033.929-.265 1.161-1.127 1.095-.962-.067-1.957-.033-2.952 0-.531.033-.697-.166-.697-.697v-16.35c0-.497.133-.663.631-.63h2.752c.796-.066 1.327.066 1.194 1.028-.033.232.033.464.1.862l.663-.796c1.094-1.227 2.454-1.592 4.046-1.393.498.067.696.266.663.796a35.592 35.592 0 0 0-.033 3.25c.033.597-.199.664-.696.597-1.161-.099-2.322-.132-3.449.498Zm10.712 12.039c0 .564-.166.763-.73.763a56.35 56.35 0 0 0-3.35 0c-.497 0-.696-.1-.696-.664V32.13c0-.53.166-.696.663-.696a56.35 56.35 0 0 0 3.35 0c.663-.033.763.232.763.829v16.085Zm.298-21.49c-.265 1.79-1.26 2.586-3.018 2.453-1.426-.132-2.354-1.127-2.288-2.553.033-1.294.962-2.19 2.355-2.322 1.658-.133 2.653.663 2.951 2.421Z"/><path fill="#62C477" d="m7.426 45.926-.332-.863-.696-2.586c-.166-.697-.232-1.426-.332-2.156C6 39.724 6 39.094 6 38.497c0-1.426.232-2.786.763-4.112.564-1.427 1.26-2.753 2.288-3.914.83-.962 1.791-1.724 2.852-2.388a19.586 19.586 0 0 1 4.975-2.189c.962-.298 1.957-.53 2.952-.73.895-.198 1.79-.331 2.72-.43a50.373 50.373 0 0 1 3.216-.299c1.426-.066 2.852-.066 4.278-.066.232 0 .465.033.697.033.1 0 .166.033.133.166l-.067 2.686c-.033.564-.033 1.16-.066 1.725l-.2 2.42-.198 1.791-.332 2.123c-.1.63-.232 1.26-.365 1.857a26.341 26.341 0 0 1-1.26 4.179c-.431 1.095-.962 2.156-1.691 3.118-.332.43-.73.862-1.128 1.26-.298.331-.63.63-.962.928-.696.597-1.492 1.062-2.321 1.46-.763.364-1.526.63-2.322.796-.647.129-1.3.229-1.956.298-.896.1-1.791.1-2.72.033a17.596 17.596 0 0 1-2.951-.43 12.638 12.638 0 0 1-.93-.233.47.47 0 0 1-.198-.066 40.71 40.71 0 0 1 4.344-7.197c1.692-2.255 3.416-4.411 5.44-6.368l-.697.398-3.515 2.289a73.26 73.26 0 0 0-3.217 2.388 42.034 42.034 0 0 0-3.88 3.415c-.764.763-1.46 1.592-2.19 2.388-.033 0-.033.033-.066.1Z"/></svg>