<svg xmlns="http://www.w3.org/2000/svg" fill="none" viewBox="0 0 210 80"><path fill="#7856FF" d="M43.225 57.691c0 3.597-2.9 6.497-6.497 6.497a6.486 6.486 0 0 1-6.496-6.497c0-3.596 2.9-6.496 6.496-6.496 3.597 0 6.497 2.9 6.497 6.496Zm21.694.116a4.654 4.654 0 0 1-4.64 4.64 4.654 4.654 0 0 1-4.64-4.64 4.654 4.654 0 0 1 4.64-4.64 4.654 4.654 0 0 1 4.64 4.64Zm16.821 0a2.08 2.08 0 0 1-2.088 2.089 2.08 2.08 0 0 1-2.088-2.089 2.08 2.08 0 0 1 2.088-2.088 2.08 2.08 0 0 1 2.088 2.088ZM59.002 44.002c-1.16 0-1.972-.928-1.972-1.972v-8.584c0-2.9-1.392-5.22-4.524-5.22S47.4 30.66 47.4 33.445v8.468c0 1.16-.812 1.972-1.972 1.972s-1.972-.928-1.972-1.972V33.33c0-2.9-1.508-5.221-4.64-5.221-3.133 0-4.873 2.436-4.873 5.22v8.47c0 1.16-.812 1.971-1.972 1.971S30 42.842 30 41.798V26.833c0-1.16.812-2.088 1.972-2.088 1.392 0 1.972.928 1.972 2.088v1.392c1.16-2.204 3.48-3.596 6.033-3.596 3.016 0 5.336 1.508 6.496 3.828 1.624-2.552 4.06-3.828 7.077-3.828 5.104 0 7.657 3.596 7.657 8.585v8.816c-.117 1.044-.929 1.972-2.205 1.972Zm7.657 0c-1.16 0-1.972-.928-1.972-1.972V26.833c0-1.16.812-1.972 1.972-1.972s1.972.928 1.972 1.972V42.03c0 1.044-.812 1.972-1.972 1.972Zm0-26.798a2.327 2.327 0 0 1 2.32 2.32 2.327 2.327 0 0 1-2.32 2.32 2.327 2.327 0 0 1-2.32-2.32 2.327 2.327 0 0 1 2.32-2.32Zm13.225 14.501 5.104-6.264c.348-.348.813-.58 1.276-.58 1.16 0 1.857.696 1.857 1.74 0 .348-.116.812-.464 1.16l-5.569 6.613 5.685 6.728c.348.348.464.696.464 1.16 0 .928-.812 1.74-1.74 1.74-.58 0-1.045-.232-1.393-.696L80 36.926l-5.104 6.38a1.654 1.654 0 0 1-1.392.696c-.929 0-1.74-.812-1.74-1.74 0-.464.115-.812.463-1.16l5.685-6.728-5.569-6.613c-.348-.348-.464-.812-.464-1.16 0-1.044.696-1.74 1.856-1.74.58 0 .929.232 1.277.58l4.872 6.264Zm20.998-3.712c-3.48 0-5.685 3.016-5.685 6.497 0 3.48 2.32 6.496 5.685 6.496 3.364 0 5.684-2.552 5.684-6.496 0-3.945-2.204-6.497-5.684-6.497Zm.812 16.241c-2.9 0-5.22-1.508-6.497-3.712v9.513c0 1.16-.812 1.972-1.972 1.972s-1.972-.928-1.972-1.972V26.833c0-1.16.696-1.972 1.856-1.972 1.16 0 1.972.928 1.972 2.088v1.508c1.276-2.204 3.828-3.712 6.613-3.712 4.872 0 8.816 4.06 8.816 9.745 0 5.684-3.944 9.744-8.816 9.744Zm20.185-16.125c-3.364 0-5.8 2.9-5.8 6.38 0 3.713 1.972 6.381 5.8 6.381 3.481 0 5.801-3.016 5.801-6.38-.116-4.06-2.436-6.381-5.801-6.381Zm9.745 13.921c0 1.16-.812 1.972-1.972 1.972s-1.972-.928-1.972-1.972v-.928c-1.16 1.74-3.48 3.132-6.149 3.132-5.916 0-9.396-4.408-9.396-9.744 0-5.337 3.828-9.745 9.86-9.745 6.033 0 9.745 4.06 9.745 9.745v7.54h-.116Zm11.949-17.401c5.104 0 8.933 3.944 8.933 8.933v8.468c0 1.16-.928 1.972-1.972 1.972-1.16 0-1.973-.928-1.973-1.972v-8.933c0-2.668-2.088-4.756-4.872-4.756s-4.872 2.088-4.872 4.756v8.933c0 1.16-.928 1.972-1.972 1.972-1.161 0-1.973-.928-1.973-1.972v-8.468c-.116-4.989 3.597-8.933 8.701-8.933Zm20.882 3.248c-2.9 0-4.873 2.088-5.337 4.756h10.441c-.348-2.668-2.204-4.756-5.104-4.756Zm8.816 6.613c0 .696-.348 1.392-1.508 1.392h-12.645c.232 2.9 2.205 5.104 5.685 5.104 2.204 0 3.48-.812 4.872-2.088.348-.348.812-.696 1.276-.696.928 0 1.624.696 1.624 1.624 0 .464-.232.812-.464 1.16-1.624 1.856-4.524 3.132-7.54 3.132-6.381 0-9.629-4.408-9.629-9.745 0-5.336 4.06-9.744 9.513-9.744 5.336 0 8.816 4.408 8.816 9.86Zm4.757 9.512c-1.16 0-1.972-.928-1.972-1.972V16.972c0-1.16.812-1.972 1.972-1.972s1.972.928 1.972 1.972V42.03c0 1.044-.812 1.972-1.972 1.972Z"/></svg>