<svg xmlns="http://www.w3.org/2000/svg" fill="none" viewBox="0 0 210 80"><path fill="#FCCA1D" d="M71.818 38.403V15.316c0-.852 0-1.704.05-2.557a15.388 15.388 0 0 1-2.983 2.056 10.622 10.622 0 0 1-3.309 1.153L65 9.099a8.675 8.675 0 0 0 2.406-.526c.853-.3 1.68-.652 2.432-1.078a20.893 20.893 0 0 0 2.056-1.354c.626-.5-.301.502 0 0L79.965 0v38.403h-8.147Z"/><path fill="#2C2C2C" d="M95.958 41.136h-3.635c-1.83 0-3.258-.527-4.336-1.605-1.053-1.053-1.58-2.456-1.58-4.261v-9.476c0-1.504-.727-2.28-2.18-2.28H83.9V19.05h.326c1.453 0 2.18-.727 2.18-2.18V7.32c0-1.78.527-3.209 1.58-4.262 1.078-1.078 2.532-1.604 4.336-1.604h3.635v4.462h-1.98c-.852 0-1.454.175-1.83.526-.326.326-.501.928-.501 1.83v8.974c0 2.256-.878 3.61-2.607 4.061 1.73.451 2.607 1.83 2.607 4.187v8.848c0 .878.175 1.48.5 1.83.352.351.953.527 1.83.527h1.981v4.462-.026Z"/><path fill="#FCCA1D" d="M102.024 34.518V11.33h-6.367l4.487-6.166h8.122v29.354h-6.242ZM131.804 28.351v6.167H111.55v-2.106c0-.802.075-1.58.251-2.306.175-.777.351-1.429.576-1.98.226-.577.577-1.179 1.028-1.78.476-.602.877-1.103 1.203-1.48.326-.375.827-.851 1.479-1.353a24.467 24.467 0 0 1 1.529-1.203c.351-.276.928-.677 1.705-1.203a93.624 93.624 0 0 0 1.604-1.153c2.958-2.106 4.412-3.961 4.412-5.616 0-1.027-.301-1.854-.902-2.481-.577-.652-1.429-1.003-2.557-1.003-1.178 0-2.156.351-2.883 1.078-.727.727-1.078 1.58-1.078 2.607h-6.242c0-2.858.978-5.214 2.933-7.069 1.981-1.855 4.487-2.782 7.495-2.782 2.657 0 4.888.802 6.743 2.431 1.855 1.604 2.783 3.835 2.783 6.743 0 1.68-.301 3.184-.877 4.512-.577 1.329-1.254 2.382-2.031 3.184-.777.802-1.83 1.704-3.133 2.682-.05.025-.602.376-1.655 1.078-1.027.652-1.805 1.228-2.356 1.705-.552.476-.953.927-1.203 1.353h11.455l-.025-.025Z"/><path fill="#2C2C2C" d="M137.144 41.136h-3.635v-4.463h1.98c.853 0 1.454-.175 1.78-.526.351-.326.527-.927.527-1.83v-8.849c0-2.33.877-3.735 2.607-4.186-1.73-.451-2.607-1.78-2.607-4.06V8.246c0-.877-.176-1.479-.527-1.83-.326-.35-.927-.526-1.78-.526h-1.98V1.454h3.635c1.83 0 3.259.526 4.311 1.604 1.078 1.053 1.605 2.457 1.605 4.262v9.55c0 1.454.727 2.181 2.18 2.181h.326v4.462h-.326c-1.453 0-2.18.752-2.18 2.281v9.476c0 1.78-.527 3.208-1.605 4.261-1.052 1.078-2.481 1.605-4.311 1.605Z"/><path fill="#FCCA1D" d="M89.792 63.445a11.14 11.14 0 0 0-5.415-4.587 10.848 10.848 0 0 0-7.069-.276 10.922 10.922 0 0 0-5.765 4.136 10.966 10.966 0 0 0-2.03 6.794 10.894 10.894 0 0 0 2.581 6.617 10.975 10.975 0 0 0 6.066 3.635c2.382.502 4.838.2 7.02-.877 2.18-1.053 3.935-2.833 5.013-5.014l-4.136-2.03a6.405 6.405 0 0 1-2.908 2.908 6.14 6.14 0 0 1-4.061.501 6.297 6.297 0 0 1-3.51-2.105 6.274 6.274 0 0 1-1.479-3.81 6.337 6.337 0 0 1 1.179-3.936 6.175 6.175 0 0 1 3.334-2.382 6.177 6.177 0 0 1 4.086.176 6.24 6.24 0 0 1 3.133 2.657l3.935-2.357.026-.05Z"/><path fill="#2C2C2C" d="M80.266 72.57a3.484 3.484 0 1 0 0-6.969 3.484 3.484 0 0 0 0 6.969Z"/><path fill="#2C2C2C" d="M91.596 67.983h-9.375v2.18h9.375v-2.18Z"/><path fill="#2C2C2C" d="M91.571 75.829V62.593h6.518c2.256 0 3.384 1.128 3.384 3.384v2.231c0 1.554-.526 2.582-1.604 3.058l2.005 3.886-.376.677h-2.883l-2.18-4.287H94.93v4.287h-3.359Zm3.334-7.295h3.008c.15 0 .2-.075.2-.2v-2.507c0-.15-.074-.2-.2-.2h-3.008v2.932-.025Zm7.997-2.457.326-.45h2.757l2.031 7.42h.125l2.03-7.42h2.758l.326.45-4.011 13.587h-2.758l-.325-.451 1.103-3.384h-1.454l-2.908-9.751Zm12.007-.45h5.715c2.156 0 3.234 1.077 3.234 3.233v3.76c0 2.156-1.078 3.234-3.234 3.234h-2.506v3.835h-3.209V65.626Zm3.209 7.42h2.281c.175 0 .25-.076.25-.251v-4.137c0-.175-.075-.25-.25-.25h-2.281v4.637Zm8.121-.452V62.568h3.209v3.033h3.133v2.783h-3.133v4.386c0 .176.075.251.251.251h3.058v1.78l-1.354 1.003h-1.955c-2.156 0-3.234-1.078-3.234-3.234l.025.025Zm8.373 0v-3.76c0-2.156 1.078-3.234 3.234-3.234h2.682c2.156 0 3.234 1.078 3.234 3.234v3.76c0 2.156-1.078 3.234-3.234 3.234h-2.682c-2.156 0-3.234-1.078-3.234-3.234Zm3.209.2c0 .176.075.251.25.251h2.231c.176 0 .251-.075.251-.25v-4.137c0-.175-.075-.25-.251-.25h-2.231c-.175 0-.25.075-.25.25v4.136Z"/></svg>