<svg xmlns="http://www.w3.org/2000/svg" fill="none" viewBox="0 0 210 80"><path fill="#003C6E" fill-rule="evenodd" d="M39.747 41.621v14.242l15.61-11.305-13.104-4.748-2.506 1.811ZM25 23v28.632L38.726 56.6V27.979L25 23Zm159.663 17.253c-.863-.485-1.695-.674-2.863-.674-2.263 0-3.768 1.274-3.768 4.168v7.885h-5.421V34.958h5.421V38c.642-1.874 2.368-3.495 4.631-3.495 1.021 0 1.884.295 2.337.674l-.337 5.063v.01Zm-19.4 1.347c-.116-1.653-1.168-3.158-3.242-3.158-2.189 0-3.2 1.39-3.505 3.158h6.747Zm5.126 4.537c-.863 3.79-3.842 5.937-8.21 5.937-5.316 0-9.084-3.232-9.084-8.527 0-5.294 3.842-9.042 8.968-9.042 5.537 0 8.442 3.79 8.442 8.337v1.653h-12.052c.147 2.21 1.81 3.495 3.915 3.495 1.885 0 3.053-.716 3.653-2.253l4.368.41v-.01Zm-28.536-7.39h-2.337v-3.305l1.21-.19c1.653-.294 2.148-1.168 2.558-2.705l.569-2.21h3.358v4.62h4.442v3.79h-4.442v6.948c0 1.431.673 2.031 1.957 2.031.832 0 1.695-.22 2.716-.673v3.568c-1.242.937-2.673 1.463-4.863 1.463-2.716 0-5.158-1.168-5.158-4.916v-8.41l-.01-.01Zm-14.2 7.327c.231 1.61 1.505 2.516 3.536 2.516 1.474 0 2.453-.527 2.453-1.432 0-.821-.526-1.274-1.884-1.505l-2.558-.41c-3.842-.6-5.916-1.917-5.916-5.222 0-3.305 2.821-5.516 7.305-5.516 4.748 0 7.569 2.105 7.916 5.663l-4.484.148c-.263-1.463-1.432-2.284-3.505-2.284-1.358 0-2.19.558-2.19 1.463 0 .673.527 1.084 1.358 1.2l3.242.558c3.653.568 5.769 2.179 5.769 5.368 0 3.495-2.979 5.442-7.537 5.442s-7.947-1.842-8.253-5.895l4.748-.115v.02Zm-18.685-2.59c0 2.706 1.548 4.39 3.8 4.39 2.558 0 3.811-1.842 3.811-4.58 0-2.736-1.242-4.536-3.811-4.536-2.263 0-3.8 1.684-3.8 4.358v.379-.01Zm-1.242 8.148h-4.179V27.979h5.421v9.99c.832-1.99 2.748-3.453 5.653-3.453 4.895 0 7.463 3.905 7.463 8.79 0 4.884-2.558 8.789-7.568 8.789-2.79 0-4.895-1.432-5.8-3.453l-.979 3-.011-.01Zm-13.337-7.4-2.747.568c-1.695.337-2.747.747-2.747 2.063 0 .98.758 1.58 1.926 1.58 2 0 3.579-1.506 3.579-3.864v-.337l-.01-.01Zm5.348 2.852c0 .863.379 1.242 1.052 1.242.495 0 .906-.073 1.39-.305v2.895c-.832.6-1.884 1.084-3.547 1.084-2 0-3.464-1.053-3.958-2.926-.948 1.916-3.01 2.926-5.61 2.926-3.359 0-5.464-1.684-5.464-4.537 0-3.19 2.41-4.547 6.105-5.252l4.674-.822v-.305c0-1.579-.79-2.516-2.453-2.516-1.663 0-2.379.98-2.673 2.369l-5.053-.38c.568-3.568 3.242-6.041 8.021-6.041 4.368 0 7.495 1.947 7.495 6.495v6.084l.02-.01ZM69.79 27.98v18.958h12.052v4.695H64.063V27.979h5.727Z" clip-rule="evenodd"/></svg>