<svg xmlns="http://www.w3.org/2000/svg" fill="none" viewBox="0 0 210 80"><path fill="#1A1A1A" d="M27.029 38.814c.1-.993.31-1.913.62-2.742.462-1.228 1.093-2.282 1.894-3.13a8.413 8.413 0 0 1 2.815-1.975 8.765 8.765 0 0 1 3.476-.696c1.423 0 2.695.41 3.787 1.218 1.102.818 2.124 2.138 3.015 3.918l.16.317 2.164-1.463-.16-.266a14.02 14.02 0 0 0-1.693-2.25 11.686 11.686 0 0 0-2.254-1.904 11.88 11.88 0 0 0-2.805-1.33c-1.002-.337-2.134-.511-3.346-.511-1.212 0-2.464.154-3.576.45-1.079.287-2.119.71-3.095 1.259-.93.533-1.785 1.19-2.545 1.954a12.063 12.063 0 0 0-1.913 2.496c-.521.9-.922 1.882-1.192 2.915-.14.543-.25 1.105-.32 1.668l-.041.358h4.989l.03-.286h-.01Zm15.667 6.22c-.3.614-.69 1.227-1.172 1.83a10.216 10.216 0 0 1-1.613 1.628c-.59.47-1.252.87-1.943 1.166a5.51 5.51 0 0 1-2.144.44c-1.262 0-2.444-.225-3.516-.665a8.002 8.002 0 0 1-2.795-1.924c-.791-.839-1.412-1.872-1.863-3.09a10.88 10.88 0 0 1-.621-2.864l-.03-.286H22l.04.348c.12 1.136.4 2.25.832 3.304a11.76 11.76 0 0 0 2.554 3.857c1.092 1.095 2.424 1.974 3.957 2.619 1.533.634 3.256.962 5.129.962 1.292 0 2.494-.164 3.546-.491a11.337 11.337 0 0 0 2.855-1.33 11.021 11.021 0 0 0 2.224-1.913 16.33 16.33 0 0 0 1.663-2.24l.16-.267-2.123-1.381-.15.317.01-.02Zm73.199-16.522h-2.264V39.09h2.264V28.51Zm-16.529 0h-2.544V39.09h2.314v-4.798l4.107 4.798h5.409L99.366 28.51Zm-.23 12.747h-2.314v10.568h2.314V41.259Zm14.495 3.519-3.085-3.52h-5.46l9.487 11.09h1.322v-11.09h-2.264v3.52Zm28.3-10.527 2.174 4.839h4.477L143.584 28h-1.333l-5.119 11.09h2.555l2.244-4.84Zm-5.79 7.008-4.879 10.568h2.565l3.496-7.56.46-.993h8.215l.381.808 3.466 7.745h4.488l-4.759-10.568h-13.433ZM69.063 34.25l2.174 4.839h4.477L70.716 28h-1.333l-5.119 11.09h2.555l2.244-4.84Zm-5.79 7.008-4.879 10.568h2.565l3.496-7.56.46-.993h8.205l.37.808 3.467 7.745h4.488l-4.759-10.568H63.262h.01ZM175.82 28.512h-4.357V39.09h4.357V28.51Zm0 21.207v-8.46h-4.357v10.568H187v-2.108h-11.18Z"/></svg>