<svg xmlns="http://www.w3.org/2000/svg" fill="none" viewBox="0 0 210 80"><path fill="#F15C61" d="M109.572 28.06c0 .828-.331 1.623-.92 2.208a3.155 3.155 0 0 1-4.445 0 3.115 3.115 0 0 1-.921-2.208 3.074 3.074 0 0 1 .909-2.22 3.112 3.112 0 0 1 2.234-.903c1.789.048 3.143 1.441 3.143 3.123Zm-12.281 5.622a.69.69 0 0 0-.677.672v.77s-1.499-1.923-4.69-1.923c-5.27 0-9.38 3.988-9.38 9.514 0 5.525 4.061 9.513 9.38 9.513 3.24 0 4.69-1.97 4.69-1.97v.817c0 .384.29.673.677.673h3.916V33.682h-3.916Zm-.677 12.252c-.725 1.057-2.176 1.97-3.916 1.97-3.095 0-5.464-1.922-5.464-5.19 0-3.267 2.37-5.188 5.464-5.188 1.692 0 3.24.96 3.916 1.97v6.438Zm7.494-12.252h4.642v18.066h-4.642V33.682Zm69.336-.48c-3.191 0-4.69 1.921-4.69 1.921V24.985h-4.642v26.763h3.916a.69.69 0 0 0 .677-.673v-.817s.387.48 1.161 1.01a6.544 6.544 0 0 0 3.529 1.008c5.271 0 9.381-4.036 9.381-9.513 0-5.478-4.11-9.562-9.332-9.562Zm-.774 14.654c-1.789 0-3.191-.913-3.916-1.97v-6.439c.725-.96 2.272-1.97 3.916-1.97 3.095 0 5.464 1.922 5.464 5.19 0 3.267-2.369 5.189-5.464 5.189Zm-10.976-6.823v10.763h-4.641V41.562c0-2.98-.967-4.18-3.578-4.18-1.402 0-2.853.72-3.772 1.777v12.589h-4.641V33.682h3.674a.69.69 0 0 1 .677.672v.77c1.354-1.394 3.143-1.923 4.932-1.923 2.031 0 3.723.577 5.077 1.73 1.644 1.345 2.272 3.075 2.272 6.102Zm-27.898-7.832c-3.191 0-4.69 1.922-4.69 1.922V24.985h-4.642v26.763h3.917a.69.69 0 0 0 .677-.673v-.817s.386.48 1.16 1.01a6.548 6.548 0 0 0 3.53 1.008c5.27 0 9.38-4.036 9.38-9.513.048-5.526-4.062-9.562-9.332-9.562Zm-.774 14.655c-1.789 0-3.191-.913-3.916-1.97v-6.439c.725-.96 2.272-1.97 3.916-1.97 3.095 0 5.464 1.922 5.464 5.19 0 3.267-2.369 5.189-5.464 5.189ZM120.451 33.2c1.402 0 2.128.24 2.128.24v4.277s-3.869-1.298-6.286 1.441v12.637h-4.642V33.682h3.917a.69.69 0 0 1 .677.672v.77c.87-1.01 2.756-1.923 4.206-1.923ZM72.245 50.114l-.725-1.73-1.112-2.45-.049-.048a500.142 500.142 0 0 0-10.685-21.718l-.145-.288c-.387-.72-.774-1.49-1.16-2.258-.484-.865-.968-1.778-1.741-2.643C55.08 17.057 52.856 16 50.488 16c-2.37 0-4.594 1.057-6.19 2.883-.725.865-1.257 1.778-1.74 2.643l-1.16 2.258-.146.288c-3.723 7.207-7.35 14.51-10.685 21.718l-.049.096-1.112 2.45c-.259.57-.5 1.147-.725 1.73-.629 1.778-.822 3.46-.58 5.19a10.222 10.222 0 0 0 6.285 7.975 9.983 9.983 0 0 0 3.917.769c.387 0 .87-.048 1.257-.096 1.596-.192 3.24-.72 4.835-1.634 1.982-1.105 3.868-2.69 5.995-4.997 2.128 2.307 4.062 3.892 5.996 4.997 1.596.913 3.24 1.442 4.835 1.634.387.048.87.096 1.257.096 1.354 0 2.708-.24 3.917-.769 3.384-1.345 5.754-4.42 6.285-7.976.387-1.681.194-3.363-.435-5.14ZM50.44 52.613c-2.611-3.268-4.303-6.343-4.884-8.937-.241-1.105-.29-2.066-.145-2.931a4.645 4.645 0 0 1 .774-2.018c.919-1.298 2.466-2.114 4.255-2.114 1.789 0 3.385.768 4.255 2.114.387.576.677 1.249.773 2.018.145.865.097 1.874-.145 2.93-.58 2.547-2.272 5.622-4.883 8.938ZM69.73 54.87c-.338 2.498-2.03 4.66-4.4 5.621-1.16.481-2.418.625-3.675.481-1.209-.144-2.417-.529-3.674-1.25-1.741-.96-3.482-2.45-5.512-4.66 3.19-3.892 5.125-7.447 5.85-10.619.339-1.489.387-2.834.242-4.084a7.769 7.769 0 0 0-1.306-3.267c-1.498-2.162-4.013-3.411-6.817-3.411-2.804 0-5.319 1.297-6.818 3.411a7.769 7.769 0 0 0-1.305 3.267 9.915 9.915 0 0 0 .242 4.084c.725 3.172 2.707 6.775 5.85 10.667-1.982 2.21-3.771 3.7-5.512 4.66-1.257.721-2.466 1.106-3.675 1.25a7.777 7.777 0 0 1-3.674-.48c-2.37-.961-4.062-3.124-4.4-5.622-.145-1.201-.048-2.402.435-3.748.145-.48.387-.96.629-1.537.338-.77.725-1.586 1.112-2.403l.048-.096c3.336-7.159 6.914-14.462 10.637-21.573l.145-.289 1.16-2.21c.387-.769.823-1.49 1.354-2.114 1.016-1.153 2.37-1.778 3.869-1.778 1.498 0 2.852.625 3.868 1.778.531.625.967 1.345 1.353 2.114l1.16 2.21.146.289a635.68 635.68 0 0 1 10.589 21.621v.048c.387.769.725 1.634 1.112 2.403.242.576.483 1.057.629 1.537.386 1.25.531 2.45.338 3.7Z"/></svg>