<svg xmlns="http://www.w3.org/2000/svg" fill="none" viewBox="0 0 210 80"><path fill="#000" d="M105.28 0c1.161.81 2.421 1.456 3.64 2.163 7.176 4.152 14.354 8.292 21.538 12.426.338.193.469.397.469.795-.013 9.555-.009 19.107-.006 28.663 0 .323-.038.552-.367.742-5.943 3.413-11.876 6.843-17.813 10.269-.09.053-.186.093-.366.18v-1.384c0-1.239.015-2.48-.01-3.718-.006-.354.112-.54.419-.714 4.295-2.464 8.581-4.947 12.873-7.414.273-.158.416-.314.416-.658-.012-6.825-.009-13.649-.009-20.473 0-.103-.013-.205-.025-.4-.534.303-1.009.573-1.483.85-5.484 3.165-10.968 6.337-16.461 9.49-.376.217-.512.45-.509.881.012 8.566.006 17.134.022 25.7 0 .48-.134.754-.565.959-.5.239-.984.524-1.443.834-.32.215-.565.171-.878-.012a5002.04 5002.04 0 0 0-15.244-8.798c-.33-.19-.438-.394-.435-.76.019-1.509.006-3.017.01-4.525 0-.562.006-.562.508-.273l12.544 7.234c.18.105.348.251.575.273.111-.19.062-.391.062-.58 0-6.682 0-13.364.012-20.042 0-.429-.121-.668-.503-.885-5.834-3.348-11.66-6.716-17.488-10.077-.133-.077-.25-.21-.477-.167v26.68c-.208.05-.314-.065-.435-.134-1.353-.776-2.703-1.564-4.062-2.333-.261-.15-.373-.317-.373-.63.01-9.627.01-19.254 0-28.88 0-.348.15-.497.422-.656C87.985 9.934 96.125 5.232 104.265.528c.273-.159.59-.261.798-.522h.214L105.28 0ZM86.737 16.243c.146.103.214.155.289.199 5.934 3.426 11.867 6.85 17.798 10.282.279.16.478.124.732-.025 5.853-3.386 11.71-6.766 17.563-10.149.145-.083.347-.117.415-.335-.105-.065-.207-.133-.316-.195-5.887-3.402-11.774-6.797-17.652-10.21-.351-.205-.578-.118-.869.052a8060.656 8060.656 0 0 1-11.272 6.518c-2.203 1.272-4.41 2.544-6.685 3.86l-.003.003ZM53 64.334c2.095.019 4.202-.19 6.288.108 2.076.298 3.416 1.794 3.525 3.743.124 2.244-.971 3.817-3.076 4.463-1.247.382-2.523.27-3.792.292-.791.012-.692-.097-.695.676-.006.987-.016 1.974.006 2.96.006.336-.108.43-.431.43-.608.002-1.217-.07-1.822.046V64.337L53 64.334Zm2.247 4.28c0 .645.006 1.29 0 1.936 0 .23.03.366.316.36.879-.022 1.76.025 2.635-.037 1.024-.075 1.887-.484 2.238-1.552.49-1.502-.46-2.818-2.135-2.93-.894-.059-1.794-.012-2.691-.034-.285-.006-.372.097-.366.373.015.627.006 1.254.006 1.883h-.003ZM76.4 67.226c2.504-.006 4.329 1.3 5.058 3.541.087.27.205.342.481.366.938.087 1.521-.055 1.987-1.123.903-2.067 2.73-2.92 4.968-2.762 2.086.149 3.61 1.207 4.336 3.181.732 1.995.344 3.842-1.18 5.353-2.669 2.65-7.283 1.537-8.469-2.03-.115-.344-.282-.396-.605-.434-.925-.111-1.45.106-1.868 1.096-.931 2.21-3.507 3.261-5.925 2.638-2.324-.6-3.839-2.666-3.73-5.08.108-2.362 1.884-4.308 4.295-4.693.264-.043.537-.043.652-.05v-.003Zm3.05 5.006c-.006-1.732-1.29-3.072-2.93-3.063-1.65.01-2.842 1.291-2.839 3.057 0 1.728 1.307 3.1 2.924 3.078 1.638-.021 2.855-1.334 2.849-3.072h-.004Zm8.96-3.063c-1.642.01-2.868 1.322-2.855 3.06.012 1.722 1.331 3.103 2.936 3.079 1.635-.025 2.886-1.37 2.864-3.073-.022-1.728-1.316-3.072-2.948-3.063l.003-.003Z"/><path fill="#000" d="m97.938 44.14-4.355-2.514c-1.384-.797-2.765-1.598-4.152-2.386-.236-.134-.382-.264-.382-.575.013-3.196.006-6.393.01-9.59 0-.083.021-.167.04-.325 1.148.661 2.244 1.294 3.34 1.927 1.725.997 3.447 1.993 5.179 2.98.242.14.36.282.357.583-.013 3.178-.01 6.356-.01 9.534 0 .087-.015.177-.03.366h.002ZM112.378 44.118v-1.092c0-2.89.003-5.782-.007-8.671 0-.307.041-.521.351-.695 2.744-1.564 5.475-3.147 8.209-4.724.09-.052.183-.09.273-.136.133.164.084.332.084.487.003 3.088 0 6.176.006 9.264 0 .285-.034.496-.323.66-2.771 1.583-5.536 3.182-8.302 4.777-.059.034-.124.056-.288.13h-.003ZM121.145 70.63c0-1.939.012-3.879-.009-5.818-.007-.413.121-.512.518-.506 1.561.022 3.125 0 4.686.012 1.176.01 2.29.267 3.212 1.04 1.356 1.139 1.663 2.644 1.303 4.292-.378 1.735-1.616 2.641-3.252 3.075-.59.159-1.201.2-1.812.215-.782.018-1.571-.084-2.35.059-.105.785-.024 1.57-.046 2.358-.013.413-.019.826.003 1.239.015.3-.081.418-.391.403a13.181 13.181 0 0 0-1.4 0c-.397.025-.471-.146-.468-.503.015-1.958.006-3.913.006-5.871v.006Zm2.247-1.973v1.88c0 .212-.01.385.295.376.912-.025 1.831.025 2.737-.046.959-.075 1.775-.475 2.135-1.453.562-1.52-.407-2.914-2.117-3.02-.893-.055-1.79-.012-2.684-.034-.276-.006-.379.075-.369.364.018.645.006 1.287.006 1.933h-.003ZM143.974 75.913c-1.254 1.257-2.669 1.502-4.212 1.132-1.334-.316-2.2-1.365-2.247-2.622-.055-1.536.633-2.579 2.055-3.035 1.322-.422 2.659-.354 3.985-.019.406.103.499.044.453-.378-.112-.99-.792-1.626-1.89-1.71a5.887 5.887 0 0 0-2.793.437c-.308.13-.441.075-.525-.248a6.635 6.635 0 0 0-.344-1.018c-.118-.276-.072-.419.211-.534 1.517-.614 3.081-.838 4.692-.512 1.617.326 2.616 1.434 2.778 3.076.198 2.057.043 4.127.09 6.188.006.28-.134.329-.363.326-.45-.006-.9-.028-1.347.006-.441.037-.581-.14-.525-.55.019-.136-.009-.275-.022-.542l.004.003Zm-1.99-3.333c-.502 0-.999.03-1.465.257-.533.26-.81.692-.81 1.282 0 .605.317 1.005.873 1.223.797.31 1.579.236 2.34-.121.803-.376 1.185-1.056 1.157-1.943-.009-.26-.102-.376-.351-.444a6.635 6.635 0 0 0-1.744-.254ZM147.533 67.444c.736 0 1.415.012 2.095-.007.304-.009.335.205.41.4.769 2.008 1.539 4.016 2.309 6.021.062.158.13.314.242.574.456-1.294.878-2.486 1.297-3.683.338-.962.676-1.928.999-2.896.096-.292.224-.44.565-.425.608.031 1.217.01 1.902.01-.36.933-.698 1.812-1.039 2.69-.913 2.355-1.822 4.71-2.734 7.066-.109.283-.227.568-.36.838-.928 1.878-2.967 2.499-4.823 1.484-.223-.124-.279-.249-.149-.466.062-.108.106-.226.158-.341.137-.292.208-.655.429-.857.276-.254.558.146.865.177.562.06 1.071.062 1.459-.44.261-.339.338-.646.155-1.08-1.185-2.787-2.343-5.584-3.507-8.38-.087-.21-.167-.425-.27-.695l-.003.01ZM98.471 73.144c0 1.149-.009 2.297.007 3.445.003.295-.078.432-.391.41-.587-.04-1.335.236-1.723-.106-.372-.329-.109-1.08-.115-1.644a264.91 264.91 0 0 1 .003-5.438c.007-.406-.108-.524-.512-.512-.698.025-.698 0-.698-.714v-.214c0-.837 0-.853.86-.884.3-.012.36-.133.347-.391a5.66 5.66 0 0 1 .078-1.232c.205-1.198.965-1.986 2.157-2.15.714-.1 1.43-.07 2.141.099.236.055.403.145.348.428-.007.034 0 .071 0 .108-.003.432.149.969-.056 1.26-.214.308-.726-.068-1.12-.074-.972-.016-1.611.8-1.357 1.747.062.236.224.193.373.196.574.006 1.148.015 1.722 0 .31-.01.438.059.444.41.025 1.427.037 1.427-1.406 1.427-.734 0-1.102.363-1.102 1.09v2.746-.007ZM107.074 67.44c2.774 0 4.875 2.098 4.875 4.863 0 2.766-2.144 4.904-4.918 4.91-2.741.006-4.885-2.144-4.876-4.885.012-2.793 2.12-4.888 4.916-4.888h.003Zm3.401 4.916c0-2.08-1.539-3.718-3.476-3.693-1.905.022-3.354 1.567-3.379 3.603-.025 2.017 1.508 3.665 3.432 3.687 1.94.019 3.42-1.536 3.423-3.597ZM135.34 70.423c0 2.03-.009 4.056.006 6.086 0 .363-.081.52-.472.496a14.039 14.039 0 0 0-1.399-.003c-.283.01-.37-.102-.366-.379.006-4.164.006-8.326 0-12.49 0-.299.127-.364.387-.355.466.013.935.025 1.4-.003.363-.021.453.115.45.46-.012 2.063-.006 4.127-.006 6.19v-.002ZM67.055 69.38c.345-.537.615-.971.997-1.325a2.961 2.961 0 0 1 2.048-.813c.248-.003.357.065.35.332a29.983 29.983 0 0 0 0 1.67c.01.294-.124.34-.384.363-1.68.13-2.728 1.135-2.945 2.805-.174 1.34-.075 2.688-.075 4.031 0 .45-.124.609-.574.559-.515-.053-1.189.211-1.511-.096-.351-.332-.112-1.018-.115-1.546-.013-2.458 0-4.915-.013-7.376 0-.392.056-.596.516-.553.53.05 1.228-.164 1.564.103.356.282.077 1.008.12 1.536.004.052.01.105.022.307v.003ZM114.966 72.958c0-1.2-.016-2.405.009-3.606.006-.385-.121-.528-.49-.472a.7.7 0 0 1-.161 0c-.205-.03-.534.109-.596-.09-.097-.31-.087-.68-.022-1.005.047-.236.338-.115.518-.121.841-.022.726.093.742-.757.006-.305 0-.615.053-.913.301-1.738 1.595-2.563 3.519-2.265.801.124.968.378.813 1.188-.04.208-.13.214-.295.18-.298-.062-.596-.13-.9-.155-.984-.084-1.61.422-1.759 1.403-.196 1.282-.168 1.313 1.111 1.313.36 0 .72-.019 1.077.006.235.015.586-.146.685.115.106.282.047.636.022.959-.019.204-.22.14-.351.14-.626.005-1.26.037-1.883-.007-.519-.037-.702.084-.689.658.04 2.297 0 4.593.028 6.89.006.478-.118.657-.593.583a1.551 1.551 0 0 0-.432 0c-.344.043-.418-.121-.415-.438.015-1.2.006-2.405.006-3.606h.003ZM96.305 16.23l6.607-3.816c.652-.376 1.31-.745 1.955-1.133.205-.124.367-.149.587-.019a4284.06 4284.06 0 0 0 8.423 4.876c.043.025.074.065.158.146-.872.506-1.716 1.002-2.564 1.49-1.955 1.129-3.913 2.252-5.868 3.385-.239.14-.438.252-.736.078-2.786-1.627-5.583-3.234-8.373-4.851-.043-.025-.08-.065-.189-.155Z"/></svg>