<svg xmlns="http://www.w3.org/2000/svg" fill="none" viewBox="0 0 210 80"><path fill="#000" d="M52.191 18C42.126 18 34 26.113 34 36.178V62l7.659-7.659V36.164c0-5.72 4.688-10.395 10.409-10.395 5.72 0 10.408 4.689 10.408 10.395 0 5.706-4.578 10.395-10.298 10.395h-2.75l-7.66 7.659h10.41c10.065 0 18.19-8.113 18.19-18.178 0-10.065-8.222-18.04-18.177-18.04Zm65.436 9.941v1.142c-3.891-3.314-9.844-2.86-13.158 1.03-3.314 3.892-2.86 9.832 1.031 13.146 3.548 2.97 8.58 2.97 12.127 0v2.172h3.314V26.8l-3.314 1.141Zm-6.063 14.287c-3.314 0-6.064-2.737-6.064-6.064 0-3.328 2.75-6.064 6.064-6.064s6.063 2.736 6.063 6.064c0 3.327-2.749 6.063-6.063 6.063Zm46.805-14.287v1.142c-3.891-3.314-9.845-2.86-13.159 1.03-3.314 3.892-2.86 9.832 1.031 13.146 3.548 2.97 8.58 2.97 12.128 0v2.172h3.314V26.8l-3.314 1.141Zm-6.064 14.287c-3.314 0-6.064-2.737-6.064-6.064 0-3.328 2.75-6.064 6.064-6.064s6.064 2.736 6.064 6.064c0 3.327-2.75 6.063-6.064 6.063Zm17.036 3.203h-3.314V22.345l3.314-1.031V45.43Zm7.659 0h-3.314V22.345L177 21.314V45.43ZM90.636 26.8c-5.142 0-9.377 4.235-9.377 9.378V51.04l3.314-3.313v-2.283h6.063c5.143 0 9.378-4.235 9.378-9.377 0-5.143-4.235-9.254-9.378-9.254V26.8Zm0 15.427h-6.063v-6.063c0-3.314 2.75-6.064 6.063-6.064 3.314 0 6.064 2.736 6.064 6.064 0 3.327-2.75 6.063-6.064 6.063ZM139.133 26.8l-6.174 11.206-6.064-11.206h-3.781l8.002 14.63-5.266 9.487h3.891L142.9 26.8h-3.781.014Z"/></svg>