<svg xmlns="http://www.w3.org/2000/svg" fill="none" viewBox="0 0 210 80"><path fill="#000" d="M74.408 43.595h4.582c0 2.008 1.678 2.973 3.538 2.973 1.704 0 3.382-.887 3.382-2.434 0-1.548-1.921-2.052-4.19-2.574-3.165-.773-7.008-1.686-7.008-6.155 0-3.981 2.965-6.233 7.607-6.233 4.643 0 7.572 2.547 7.572 6.686h-4.477c0-1.783-1.486-2.626-3.19-2.626-1.478 0-2.965.608-2.965 1.973 0 1.461 1.817 1.896 4.051 2.435 3.208.8 7.216 1.782 7.216 6.442s-3.608 6.659-7.954 6.659c-4.852 0-8.164-2.669-8.164-7.146Zm28.307 2.877v3.86h-3.104c-3.556 0-5.755-2.164-5.755-5.72v-6.816h-2.93v-.939l6.399-6.729h.834v4.182h4.469v3.486h-4.39v6.242c0 1.548.895 2.434 2.494 2.434h1.983Zm18.248 3.834h-3.434l-.383-1.434c-1.391 1.2-3.208 1.912-5.251 1.912-4.868 0-8.494-3.633-8.494-8.493s3.626-8.442 8.494-8.442c2.087 0 3.921.722 5.312 1.965l.469-1.539h3.287v16.031Zm-4.295-7.99c0-2.52-1.869-4.398-4.408-4.398-2.538 0-4.416 1.886-4.416 4.399 0 2.512 1.869 4.399 4.416 4.399 2.547 0 4.408-1.887 4.408-4.4Zm14.318 8.46c-4.868 0-8.598-3.712-8.598-8.52s3.695-8.416 8.624-8.416c4.191 0 7.451 2.635 8.233 6.573h-4.346c-.705-1.574-2.174-2.495-3.913-2.495-2.373 0-4.164 1.886-4.164 4.373 0 2.486 1.817 4.425 4.164 4.425 1.765 0 3.165-.974 3.913-2.687h4.407c-.774 4.034-4.077 6.755-8.32 6.755v-.008Zm19.187-.444-5.19-7.667v7.667h-4.381v-20.76h4.381v11.85l4.86-7.12h5.051l-5.477 7.632 6.059 8.39h-5.303v.008Z"/><path fill="#000" d="M170.621 42.264c0 .426-.026.852-.087 1.278h-12.258c.382 2.182 1.834 3.382 3.947 3.382 1.53 0 2.764-.713 3.434-1.86h4.607c-1.173 3.495-4.277 5.72-8.041 5.72-4.782 0-8.39-3.66-8.39-8.468 0-4.807 3.599-8.467 8.39-8.467 4.99.009 8.389 3.808 8.389 8.415h.009Zm-12.232-1.686h7.85c-.617-1.965-2.043-3.026-3.999-3.026s-3.33 1.122-3.851 3.026Zm23.49-6.355v4.086h-1.904c-2.46 0-3.443 1.087-3.443 3.695v8.32h-4.381V34.31h2.799l.783 1.965c1.147-1.409 2.616-2.052 4.694-2.052h1.452Z"/><path fill="#33F" d="m67.54 47.803-8.128-12.076 6.398-3.173a2.305 2.305 0 0 0 1.287-2.069c0-.887-.496-1.678-1.287-2.069l-16.318-8.059a3.38 3.38 0 0 0-2.347-.252c-.2.035-.4.096-.591.2l-2.06 1.008-14.371 7.12-.835.409a2.338 2.338 0 0 0-1.208 1.478 2.263 2.263 0 0 0 .313 1.87l8.128 12.075-6.398 3.173a2.305 2.305 0 0 0-1.287 2.069c0 .887.496 1.678 1.287 2.069l16.318 8.076c.478.235 1 .348 1.53.348.278 0 .556-.035.817-.096.2-.034.4-.095.591-.2l.113-.052 16.318-8.076.835-.409a2.338 2.338 0 0 0 1.208-1.478c.174-.66.061-1.347-.313-1.895v.009Zm-19.152 9.58-8.18-12.154 7.763-3.833 16.37 8.102-15.953 7.885Zm-.86-34.774 8.189 12.153-7.764 3.834-16.37-8.102 15.953-7.877-.009-.008Zm15.944 23.664L50.77 39.987l6.346-3.138 6.347 9.415.009.009Zm-5.477-12.64-6.347-9.416 12.702 6.268-6.347 3.147h-.008Zm-25.551.077 12.701 6.286-6.346 3.138-6.346-9.415-.009-.009Zm5.477 12.641 6.346 9.415-12.701-6.268 6.346-3.147h.009Z"/></svg>