<svg xmlns="http://www.w3.org/2000/svg" fill="none" viewBox="0 0 210 80"><path fill="#325E77" fill-rule="evenodd" d="M92.024 16.053a3.44 3.44 0 0 1 2.416.989 3.38 3.38 0 0 1 1.01 2.39v30.061h-6.833V19.431a3.353 3.353 0 0 1 1.004-2.395 3.41 3.41 0 0 1 2.421-.983h-.018Zm27.097 12.445c-2.457-2.418-5.542-3.627-9.272-3.627-3.73 0-6.814 1.209-9.289 3.627-2.457 2.418-3.694 5.386-3.694 8.906 0 3.52 1.237 6.472 3.694 8.872 2.475 2.4 5.559 3.608 9.289 3.608 3.73 0 6.815-1.208 9.272-3.608 2.474-2.4 3.712-5.37 3.712-8.872s-1.238-6.488-3.712-8.906Zm-4.376 13.742c-1.273 1.244-2.905 1.867-4.896 1.867-1.99 0-3.622-.623-4.895-1.867-1.291-1.244-1.919-2.862-1.919-4.836 0-1.973.628-3.608 1.919-4.87 1.273-1.263 2.905-1.903 4.895-1.903 1.991 0 3.623.64 4.896 1.902 1.291 1.263 1.919 2.88 1.919 4.871 0 1.992-.628 3.592-1.919 4.836ZM58.257 28.32c-2.457-2.4-5.56-3.591-9.271-3.591-2.296 0-4.34.444-6.151 1.351v-6.72c0-1.849-1.525-3.36-3.408-3.36s-3.425 1.511-3.425 3.36v16.373c.003.155.015.31.036.463l-.036.977c-.032 1.643.28 3.275.916 4.793a11.89 11.89 0 0 0 2.778 4.025c2.457 2.382 5.56 3.573 9.29 3.573 3.73 0 6.814-1.19 9.27-3.573a11.89 11.89 0 0 0 2.78-4.025c.636-1.518.947-3.15.915-4.793 0-3.484-1.237-6.453-3.694-8.853ZM53.88 41.973c-1.273 1.245-2.905 1.867-4.895 1.867-1.991 0-3.64-.622-4.914-1.867-1.273-1.226-1.919-2.844-1.919-4.8 0-1.955.646-3.59 1.919-4.835 1.273-1.262 2.905-1.885 4.914-1.885 2.008 0 3.622.623 4.895 1.885 1.273 1.244 1.919 2.862 1.919 4.835 0 1.974-.646 3.574-1.919 4.8Zm83.926-17.297c2.564 0 4.716.906 6.437 2.702 1.74 1.795 2.601 4.195 2.601 7.182v14.702h-6.779V35.61c0-3.716-1.381-5.565-4.107-5.565-1.362 0-2.546.48-3.55 1.458s-1.507 2.4-1.507 4.285v13.475h-6.653s-.143-.053-.143-.142V27.289a3.387 3.387 0 0 1 3.389-3.378 3.387 3.387 0 0 1 3.389 3.378v.48c2.045-2.062 4.358-3.093 6.923-3.093ZM87.254 36.178c0-3.52-1.166-6.276-3.479-8.285-2.331-2.026-5.165-3.022-8.5-3.022-3.336 0-6.24 1.12-8.68 3.378-2.456 2.258-3.676 5.28-3.676 9.102s1.202 6.862 3.605 9.12c2.403 2.276 5.451 3.413 9.128 3.413 1.954 0 3.766-.373 5.433-1.084 1.076-.391 1.847-1.422 1.847-2.613a2.778 2.778 0 0 0-3.891-2.56 8.438 8.438 0 0 1-3.407.675 6.644 6.644 0 0 1-3.981-1.28c-1.166-.835-1.848-1.92-2.063-3.235h17.664v-3.61Zm-17.484-1.21c.179-1.386.825-2.488 1.936-3.288 1.112-.818 2.332-1.227 3.677-1.227 1.345 0 2.474.391 3.407 1.174.932.782 1.47 1.902 1.614 3.342H69.77Zm100.889-10.097h-9.558c-3.712 0-6.814 1.209-9.271 3.627-2.457 2.418-3.694 5.386-3.694 8.906 0 3.52 1.237 6.472 3.694 8.872 2.457 2.4 5.559 3.608 9.271 3.608 3.712 0 6.833-1.208 9.289-3.608 2.332-2.258 3.551-5.032 3.677-8.285.017-.089.017-.178.017-.249v-9.475c0-.9-.36-1.765-1.003-2.401a3.44 3.44 0 0 0-2.422-.995Zm-4.644 17.369c-1.273 1.244-2.905 1.867-4.914 1.867-2.008 0-3.622-.623-4.895-1.867-1.274-1.244-1.919-2.862-1.919-4.836 0-1.973.645-3.608 1.919-4.87 1.273-1.263 2.905-1.903 4.895-1.903 1.991 0 3.641.64 4.914 1.902 1.273 1.263 1.919 2.88 1.919 4.871 0 1.992-.646 3.592-1.919 4.836Z" clip-rule="evenodd"/><path fill="#3EE4A9" fill-rule="evenodd" d="M169.404 52.711c-1.255 0-2.439.729-2.959 1.902a6.16 6.16 0 0 1-1.022 1.583c-1.112 1.28-2.546 1.92-4.286 1.92-1.739 0-3.174-.64-4.286-1.92a6.677 6.677 0 0 1-1.022-1.583 3.258 3.258 0 0 0-2.959-1.902c-2.528 0-4.071 2.845-2.762 5.085.52.906 1.166 1.742 1.937 2.524 2.421 2.453 5.452 3.68 9.092 3.68 3.64 0 6.689-1.227 9.092-3.68a12.328 12.328 0 0 0 1.937-2.524c1.309-2.24-.233-5.085-2.762-5.085Z" clip-rule="evenodd"/></svg>