<svg xmlns="http://www.w3.org/2000/svg" fill="none" viewBox="0 0 210 80"><path fill="#000" d="M69.746 45.924H59.298v-4.2h10.071v-3.269H55.815v10.922h13.93v-3.453ZM59.303 34.15h10.448v-3.402h-13.93v3.402h3.482Zm23.783-3.402v18.634h13.08v-3.245h-9.569V30.749h-3.511Zm40.056 15.175h-10.448v-4.2h10.072v-3.269h-13.554v10.922h13.93v-3.453ZM112.694 34.15h10.448v-3.402h-13.93v3.402h3.482Zm39.79-1.065a9.818 9.818 0 0 0-6.913-2.846c-6.566 0-9.835 4.837-9.835 10.072 0 4.889 2.847 9.488 9.835 9.488 3.269 0 5.583-1.25 7.417-3.35v-7.833h-7.972v3.136h4.755v3.297c-1.464 1.169-2.736 1.487-4.2 1.487-4.622 0-6.404-3.164-6.404-6.22 0-3.829 2.418-6.855 6.404-6.855 1.62 0 3.483.666 4.732 1.863l2.181-2.239Zm27.879 12.838h-10.448v-4.2h10.072v-3.269h-13.555v10.922h13.931v-3.453ZM169.921 34.15h10.448v-3.402h-13.931v3.402h3.483Zm36.573-3.402v11.553l-9.117-11.553h-2.846v18.628h3.511v-12.56l9.777 12.56H210V30.75h-3.506Z"/><path fill="url(#a)" d="M32.455 36.686h6.64c.059.307.1.625.134.943l.064.723v.127l-6.514.018c-4.924.011-4.924 2.175 0 2.187l6.52.017v.127l-.07.723c-.035.318-.081.63-.133.943H32.46c-2.134 0-1.735-.017-3.65-.798l6.248 9.441c-.4.463-.822.908-1.261 1.325-.955-1.464-4.495-7.017-6.358-9.615-1.013-1.417-.949-.902-2.36 1.186-.7 1.036-.631.758-.631 2.008V57.1c-.59.099-1.186.163-1.794.197v-11.61c0-1.314-.034-1.169.695-2.25.283-.452.573-.903.856-1.349.78-1.226.648-.989-2.61-.989-3.256 0-3.39-.237-2.608.99.283.45.573.902.856 1.347.735 1.088.694.943.694 2.25v11.611a16.674 16.674 0 0 1-1.793-.196V46.04c0-1.25.07-.972-.63-2.008-1.412-2.088-1.343-2.603-2.361-1.186-1.857 2.598-5.392 8.151-6.352 9.62a17.002 17.002 0 0 1-1.261-1.324l6.248-9.441c-1.915.78-1.516.798-3.65.798H4.101a16.103 16.103 0 0 1-.128-.943l-.063-.723v-.127l6.52-.012c4.923-.011 4.923-2.175 0-2.187l-6.52-.017v-.127l.07-.723c.034-.319.074-.631.126-.944h6.636c2.135 0 1.736.018 3.65.799l-6.248-9.442c.4-.462.816-.908 1.262-1.324.954 1.475 4.495 7.023 6.352 9.62 1.012 1.418.948.903 2.36-1.186.7-1.035.63-.757.63-2.007V22.096a18.26 18.26 0 0 1 1.794-.197v11.61c0 1.308.035 1.164-.694 2.245-.284.452-.573.897-.856 1.349-.781 1.226-.648.989 2.609.989s3.39.237 2.609-.99c-.284-.45-.573-.896-.856-1.347-.735-1.082-.695-.938-.695-2.245h-.006V21.9a18.26 18.26 0 0 1 1.794.196v11.05c0 1.249-.07.977.63 2.007 1.412 2.088 1.343 2.603 2.36 1.186 1.858-2.598 5.398-8.151 6.353-9.62.445.421.868.861 1.261 1.324l-6.248 9.441c1.915-.78 1.516-.798 3.65-.798Z"/><path fill="url(#b)" d="M21.602 18C9.672 18 0 27.667 0 39.596s9.673 21.602 21.602 21.602 21.601-9.673 21.601-21.602C43.203 27.666 33.531 18 21.602 18Zm-.006 41.502c-10.992 0-19.907-8.909-19.907-19.906 0-10.998 8.915-19.907 19.907-19.907s19.906 8.915 19.906 19.907-8.914 19.907-19.906 19.907Z"/><defs><linearGradient id="a" x1="8.009" x2="39.439" y1="39.595" y2="39.595" gradientUnits="userSpaceOnUse"><stop stop-color="#4AC2C5"/><stop offset=".42" stop-color="#5AC1A0"/><stop offset="1" stop-color="#84C553"/></linearGradient><linearGradient id="b" x1="8.012" x2="39.443" y1="18" y2="18" gradientUnits="userSpaceOnUse"><stop stop-color="#4AC2C5"/><stop offset=".42" stop-color="#5AC1A0"/><stop offset="1" stop-color="#84C553"/></linearGradient></defs></svg>