<svg xmlns="http://www.w3.org/2000/svg" fill="none" viewBox="0 0 210 80"><path fill="#00CB00" d="M8.075 25.862H17.898c1.538 0 3.038.355 4.379 1.104 2.051 1.144 3.116 2.959 3.274 5.247.119 1.302-.079 2.564-.71 3.748-.67 1.302-1.736 2.249-3.077 2.84-.158.08-.355.158-.552.237.71.316 1.302.67 1.814 1.144.79.79 1.223 1.736 1.5 2.762.236.868.315 1.775.315 2.682v3.906c0 .079 0 .197-.04.316h-3.313v-.553c0-1.183.04-2.327 0-3.51a16.566 16.566 0 0 0-.276-2.447c-.355-1.657-1.46-2.604-3.117-2.88a7.823 7.823 0 0 0-1.38-.118h-4.932c-.079 0-.197 0-.355.04v9.467H8.075c-.119-.591-.08-23.63 0-23.985Zm3.432 3.116v8.364c.079 0 .158.04.237.04h5.917c.75 0 1.5-.159 2.21-.474 1.143-.474 1.893-1.342 2.13-2.565a5.814 5.814 0 0 0 .079-1.854c-.158-1.657-1.144-2.761-2.722-3.235-.71-.236-1.46-.276-2.21-.276h-5.641Zm34.953-4.142h3.314v8.56a.421.421 0 0 0 .197-.118c3.117-3.195 8.206-2.643 10.77.947a9.548 9.548 0 0 1 1.657 3.985c.473 2.564.355 5.128-.67 7.574-1.066 2.525-2.92 4.142-5.682 4.576-2.327.355-4.34-.276-6.114-1.775-.119-.079-.237-.197-.395-.355-.158.552 0 1.105-.079 1.657H46.46V24.836Zm3.353 16.096v2.643c0 1.065.434 1.972 1.223 2.682 2.525 2.328 6.628 1.302 7.772-1.893.828-2.288.789-4.616.04-6.904a4.18 4.18 0 0 0-1.026-1.696c-1.026-1.105-2.328-1.5-3.827-1.42-2.21.078-4.221 1.814-4.182 4.339v2.249Zm109.041-7.614v-8.482h3.235c.118.394.158 23.907.04 25.051-.356.118-2.17.158-2.999.04V48.23a2.408 2.408 0 0 1-.434.355c-2.603 2.367-6.706 2.564-9.468.395-1.223-.947-2.051-2.21-2.564-3.67-.986-2.958-1.026-5.917.039-8.876.671-1.814 1.776-3.313 3.512-4.3 2.643-1.538 6.035-1.262 8.324 1.026.078.079.157.118.197.197.039 0 .079 0 .118-.04Zm-.039 7.693v-2.565c-.04-1.025-.355-1.933-1.026-2.682-.947-1.066-2.13-1.539-3.511-1.5-2.13.04-3.59 1.026-4.419 3.038-.315.829-.473 1.657-.552 2.565-.118 1.499-.039 2.958.474 4.379.355.986.867 1.854 1.735 2.406 1.342.907 2.762 1.065 4.3.631 1.855-.513 3.117-2.051 3.038-4.024-.039-.789 0-1.499-.039-2.248ZM91.039 24.796h3.314v8.68c.157-.119.197-.158.276-.237 1.144-1.262 2.604-1.894 4.26-2.051 1.421-.158 2.802.078 4.103.789 1.539.867 2.446 2.17 2.841 3.866.158.71.237 1.42.237 2.13v11.48c0 .158 0 .316-.04.473h-3.353V39a9.082 9.082 0 0 0-.237-2.052c-.394-1.499-1.381-2.367-2.92-2.643-1.104-.197-2.209-.04-3.195.552-1.341.79-1.933 2.012-1.972 3.511-.04 1.42 0 2.84 0 4.261v7.298h-3.314v-25.13ZM174.634 59h-1.262c.039-.276.079-.473.158-.67.947-3.709 1.893-7.417 3.156-11.007.079-.237.079-.434.039-.632a63.311 63.311 0 0 1-1.104-6.075c-.04-.316 0-.592.197-.868 1.933-2.84 3.945-5.562 6.154-8.166.197-.237.434-.395.789-.473l5.839-1.184c.986-.197 1.972-.316 2.959-.473.157-.04.315-.04.473-.04.039.04.039.08.079.119l-.316.434-4.221 5.286a88.476 88.476 0 0 0-7.259 11.401 94.362 94.362 0 0 0-5.365 11.875c-.158.078-.237.276-.316.473Zm-66.197-17.871c0-2.367.394-4.34 1.499-6.075 1.499-2.407 3.669-3.709 6.548-3.867 3.867-.157 6.746 2.091 7.891 5.326 1.183 3.354 1.104 6.707-.553 9.863-1.302 2.525-3.471 3.866-6.312 4.063-1.775.119-3.472-.197-5.05-1.144-1.775-1.104-2.879-2.761-3.511-4.734-.394-1.262-.512-2.288-.512-3.432Zm13.334-.276c0-1.223-.158-2.446-.631-3.55-.434-1.066-1.105-1.934-2.131-2.486-2.327-1.223-5.128-.355-6.351 1.972-.513.947-.75 1.973-.829 2.999-.158 1.696 0 3.353.71 4.931.947 2.09 3.156 3.195 5.405 2.643 1.578-.355 2.564-1.42 3.196-2.88.473-1.183.631-2.367.631-3.63Zm-85.963 9.665c-2.682-.04-4.773-.828-6.351-2.682-1.065-1.223-1.697-2.683-2.012-4.3-.474-2.368-.395-4.695.473-6.944 1.026-2.682 2.84-4.537 5.681-5.168 4.182-.986 7.93.986 9.468 5.01 1.223 3.156 1.184 6.391-.197 9.469-1.42 3.037-3.945 4.536-7.062 4.615Zm4.734-9.586c0-1.42-.197-2.683-.75-3.906-1.143-2.525-3.984-3.55-6.469-2.249-1.184.632-1.894 1.657-2.328 2.88-.552 1.578-.591 3.196-.355 4.813.119.868.355 1.657.79 2.446.907 1.657 2.288 2.525 4.181 2.525 1.854 0 3.235-.868 4.103-2.525.592-1.262.789-2.643.828-3.984Zm103.282.355c0 1.262-.237 2.84-.908 4.34-1.183 2.682-3.195 4.339-6.115 4.733-2.564.355-4.891-.197-6.825-2.012-1.222-1.144-1.972-2.564-2.367-4.181-.67-2.683-.631-5.366.434-7.97.947-2.327 2.604-3.984 5.05-4.694 3.945-1.144 8.087.395 9.863 4.695.591 1.42.907 3.037.868 5.089Zm-3.354-.434c0-.355.04-.67 0-1.026-.118-1.223-.394-2.367-1.065-3.471-1.815-2.999-6.391-2.802-8.008.276-.474.946-.789 1.933-.868 2.998-.158 1.617-.04 3.235.592 4.734.355.907.907 1.696 1.735 2.249 2.446 1.657 5.681.75 6.904-1.973a7.744 7.744 0 0 0 .71-3.787Zm-64.501 9.113h-3.314V31.74h3.235v1.617c.04 0 .079.04.079.04l.237-.237c1.222-1.223 2.722-1.854 4.418-1.972 1.144-.08 2.249.078 3.314.552 1.814.789 2.92 2.248 3.353 4.142.159.646.238 1.308.237 1.973v11.598c0 .158-.04.316-.04.473h-3.353v-11.48c0-.828-.158-1.617-.513-2.327-.434-.868-1.104-1.42-2.051-1.657-1.026-.276-2.091-.237-3.077.158-1.539.552-2.328 1.736-2.525 3.353-.04.394-.04.789-.04 1.183v10.218c.04.158.04.355.04.592Zm119.14-11.914a3.492 3.492 0 0 1-.079-.631c-.197-2.84-.394-5.681-.315-8.522.039-1.025-.395-1.223-1.223-1.104-2.999.355-5.997.868-8.995 1.46-.158.039-.276.039-.434.039-.039-.04-.039-.08-.079-.119l.237-.355 4.813-5.01c.434-.434.868-.868 1.302-1.262.236-.237.552-.434.868-.552 1.893-.632 3.787-1.066 5.799-.987.749.04 1.499.119 2.209.395.828.315 1.42.868 1.736 1.696.552 1.42.749 2.92.71 4.419 0 .67-.118 1.38-.158 2.051-.039.434-.237.75-.513 1.105l-3.905 4.813c-.553.71-1.066 1.46-1.578 2.17-.079.118-.198.236-.316.394 0 .04-.039.04-.079 0Zm-1.854-7.496c0 .119.039.237.079.355.039 2.92.315 5.839.552 8.719.04.394-.079.67-.237 1.026l-4.142 7.18c-.158.236-.315.434-.592.512a91.595 91.595 0 0 0-9.073 3.196c-.079.04-.197.04-.276.079-.198-.197-.04-.355.039-.474 1.065-2.012 2.052-4.063 3.196-6.035 2.879-5.05 6.233-9.745 10.02-14.124.118-.158.237-.276.355-.394 0-.08.039-.08.079-.04ZM68.749 49.966h-3.234V31.74h3.234c.08.355.08 17.555 0 18.226Zm108.923 6.036c.039-.198.039-.316.079-.434l.789-1.894c.118-.315.355-.434.631-.552l4.813-1.854 1.065-.355c.079-.04.197-.04.395-.08l-.434.987c-.553 1.065-.276.75-1.302 1.262l-5.444 2.644a2.707 2.707 0 0 1-.592.276ZM65.357 24.796h3.59v3.512h-3.59v-3.511Z"/></svg>