<svg xmlns="http://www.w3.org/2000/svg" fill="none" viewBox="0 0 210 80"><path fill="#052D52" d="M75.91 64.001c0-.14.013-.272.013-.412V32.409c-2.798 1.86-5.539 3.684-8.292 5.52-1.5-1.247-2.988-2.475-4.545-3.767 6.317-4.19 12.597-8.355 18.952-12.577.013.253.025.43.025.607 0 12.47 0 24.934.013 37.404 0 .393-.12.608-.443.817-1.887 1.209-5.343 3.374-5.723 3.576v.013Z"/><path fill="#1C4975" d="M81.728 19.59c-.5.335-.956.652-1.412.955-5.95 3.963-11.907 7.926-17.844 11.907-.462.31-.747.304-1.184-.044-1.367-1.082-2.779-2.114-4.235-3.21.823-.55 1.596-1.07 2.368-1.588 5.646-3.773 11.292-7.54 16.939-11.318.164-.108.55-.424.835-.228l4.533 3.526Z"/><path fill="#052D52" d="M39.532 62.988c-.285.203-.348.247-.823.557 0-8.172.006-16.907.013-25.08v-.734l1.272.988c1.614 1.247 3.228 2.488 4.83 3.747.17.133.31.412.31.627.013 5.31 0 10.628 0 15.939 0 .316-.114.494-.374.652l-5.228 3.304Z"/><path fill="#1C4975" d="M30.993 21.799c12.603 9.989 25.104 19.895 37.727 29.896v-.645c0-3.513 0-7.026-.032-10.54 0-.436.14-.677.5-.899 1.614-1 3.21-2.025 4.868-3.082V63.26c-.62-.487-1.21-.95-1.792-1.411-8.007-6.33-16.103-12.559-23.984-19.047-3.614-2.975-7.368-5.76-10.989-8.717-.164-.139-.348-.26-.608-.455V63.24c-.392-.29-3.671-2.823-5.336-4.108-.266-.202-.348-.411-.348-.734.013-4.735.006-9.464 0-14.192 0-7.216-.013-14.432-.019-21.649v-.753l.013-.006Z"/><path fill="#052D52" d="M32.43 20.393c1.595-.993 3.114-1.943 4.64-2.886 1.151-.709 1.145-.696 2.209.146 6.982 5.526 13.97 11.046 20.952 16.565 2.057 1.627 4.108 3.248 6.153 4.887.152.12.304.348.31.525.019 2.551.019 5.109.019 7.66v.247C55.306 38.504 43.874 29.464 32.43 20.394Z"/><path fill="#222" d="M98.59 48.448v7.52h-2.93V42.6c.798 0 1.583-.019 2.368.013.139 0 .31.177.392.316 1.487 2.437 2.956 4.887 4.437 7.337.108.177.222.348.374.588.12-.196.221-.341.31-.487 1.469-2.469 2.924-4.944 4.406-7.412.095-.159.322-.317.493-.33.735-.038 1.469-.012 2.26-.012v13.35h-2.867v-7.71c-.045-.013-.095-.02-.14-.032-.525.874-1.044 1.747-1.563 2.62-.665 1.115-1.336 2.229-1.988 3.356-.171.297-.373.399-.728.424-.671.057-1.069-.152-1.418-.772-1.05-1.842-2.183-3.634-3.291-5.444l-.108.031-.006.013ZM98.737 37.2H95.64V23.8c.823 0 1.659-.02 2.488.018.139 0 .285.222.399.36 1.924 2.343 3.842 4.685 5.76 7.034.145.183.304.36.551.658v-8.046h3.063v13.401c-.797 0-1.595.013-2.392-.013-.133 0-.279-.17-.38-.297-2.057-2.494-4.108-4.994-6.166-7.495-.038-.05-.095-.095-.227-.215v8.001-.006ZM143.021 37.193h-3.133V23.824c.107-.012.221-.031.335-.031 1.906 0 3.805-.013 5.71 0 1.253.012 2.437.297 3.532.943 2.728 1.608 2.798 6.305-.12 7.893-.165.09-.323.184-.538.298.981 1.418 1.95 2.81 2.975 4.292-1.139 0-2.159.019-3.178-.02-.177 0-.386-.24-.512-.423a102.19 102.19 0 0 1-2.039-2.957c-.183-.278-.379-.392-.709-.386-.753.02-1.5 0-2.323 0v3.76Zm.026-6.146c1.209-.05 2.373-.038 3.519-.177 1.12-.14 1.76-.994 1.779-2.114.019-1.203-.545-2.083-1.665-2.248-1.19-.177-2.405-.145-3.633-.209v4.748ZM111.365 37.206V23.837h10.128v2.469h-6.976v2.924h6.147v2.349h-6.147v3.12h7.242v2.254c0 .367-.291.272-.488.272h-9.362c-.171 0-.335-.013-.544-.025v.006ZM137.995 49.1h2.836c.013.152.032.298.032.45 0 1.525.012 3.05-.007 4.576 0 .19-.082.462-.228.564-2.601 1.829-7.228 2.354-10.096-.09-2.139-1.822-2.817-4.183-2.253-6.86.569-2.723 2.367-4.425 5.019-5.09 2.608-.652 5.109-.348 7.261 1.468.196.165.418.292.671.469-.798.74-1.443 1.342-2.121 1.968a4.702 4.702 0 0 0-2.519-1.437c-2.564-.544-4.906.944-5.254 3.406-.234 1.684.152 3.216 1.608 4.241 1.494 1.051 3.14 1.045 4.792.355.126-.057.247-.31.253-.469.019-1.165.013-2.323.013-3.545l-.007-.006ZM136.482 23.83c0 2.88.178 5.742-.044 8.565-.247 3.146-2.291 4.893-5.456 5.033a9.286 9.286 0 0 1-2.545-.235c-2.349-.563-3.893-2.405-3.994-4.937-.102-2.792-.026-5.583-.026-8.419h3.083v.532c0 2.266-.019 4.526.013 6.792.012.64.12 1.297.285 1.918.221.816.822 1.323 1.633 1.57 2.044.62 3.671-.393 3.956-2.494a9.05 9.05 0 0 0 .07-1.178v-7.134h3.019l.006-.012ZM167.537 37.231c-1.076 0-2.07.013-3.057-.012-.127 0-.298-.19-.361-.33a37.842 37.842 0 0 1-.911-2.17c-.108-.28-.254-.349-.532-.349-1.817.013-3.634.013-5.45 0-.291 0-.424.102-.526.361a53.754 53.754 0 0 1-.911 2.171c-.063.14-.241.31-.374.317-.955.025-1.911.012-2.962.012.437-.98.842-1.892 1.247-2.804 1.519-3.418 3.038-6.836 4.551-10.255.121-.272.266-.386.576-.38.886.026 1.779.007 2.697.007 1.994 4.456 3.981 8.9 6.007 13.439l.006-.007Zm-7.57-10.324c-.735 1.766-1.418 3.418-2.121 5.102h4.229c-.697-1.684-1.38-3.336-2.108-5.102ZM127.443 56.006c-1.044 0-2.019.013-2.994-.013-.127 0-.31-.183-.367-.322a69.303 69.303 0 0 1-.937-2.222c-.101-.253-.222-.367-.519-.361a306.63 306.63 0 0 1-5.4 0c-.291 0-.424.095-.525.36-.285.735-.608 1.45-.886 2.185-.108.272-.247.398-.564.392-.905-.025-1.81-.006-2.81-.006.31-.715.582-1.367.873-2.013 1.64-3.665 3.279-7.33 4.906-10.995.133-.292.279-.412.608-.406.753.026 1.506.02 2.26 0 .291-.006.449.083.576.361 1.892 4.248 3.791 8.489 5.69 12.73.032.076.045.158.083.317l.006-.007Zm-7.514-10.305c-.721 1.734-1.392 3.361-2.076 5h4.146c-.69-1.658-1.348-3.266-2.07-5ZM160.555 46.593c-2.165-2.323-5.209-1.677-6.463-.386-1.512 1.557-1.626 4.355-.202 5.97.892 1.012 2.038 1.411 3.348 1.398 1.33-.012 2.412-.57 3.292-1.595.684.633 1.329 1.228 1.975 1.823-1.386 2.064-4.912 2.994-7.887 2.114-2.912-.86-4.862-3.43-4.893-6.45-.038-3.21 1.772-5.754 4.785-6.735 2.925-.95 6.52-.05 8.008 2.038-.64.595-1.292 1.197-1.956 1.817l-.007.006ZM169.19 37.187V23.824h3.101v10.818h6.697v2.545h-9.798ZM144.028 42.63h3.07v13.332h-3.07V42.63Z"/></svg>