<svg xmlns="http://www.w3.org/2000/svg" fill="none" viewBox="0 0 210 80"><path fill="#252A2E" d="M38.106 49.386c.415.24.75.825.75 1.3v8.231c0 .481-.34.674-.75.434l-7.123-4.113c-.415-.24-.75-.825-.75-1.3v-8.232c0-.48.34-.673.75-.433l7.123 4.113Zm10.992-7.26c0 .48-.34 1.06-.749 1.3l-7.128 4.113c-.415.24-.75.043-.75-.433v-8.231c0-.48.34-1.06.75-1.3l7.128-4.114c.415-.24.75-.042.75.434v8.23Zm-1.564-10.93c.42.244.424.635.014.87l-7.133 4.119c-.415.24-1.093.235-1.512-.01L21.56 26.173c-.42-.245-.424-.636-.01-.872l7.129-4.122c.414-.24 1.093-.236 1.512.009L47.529 31.2l.005-.005ZM28.622 53.008c0 .48-.34.674-.75.434L20.75 49.33c-.415-.24-.749-.83-.749-1.315V28.001c0-.486.344-.683.763-.438L38.097 37.57c.42.245.763.829.763 1.31v8.23c0 .481-.34.67-.754.434l-8.73-5.037c-.415-.24-.754-.042-.754.434v10.078-.01Z"/><path fill="#252A2E" d="M50.7 32.971c0-.48.34-1.064.75-1.3l7.128-4.113c.414-.24.749-.038.749.447v20.02c0 .485-.344 1.078-.764 1.319L41.23 59.35c-.42.245-.763.052-.763-.424v-8.231c0-.48.339-1.065.754-1.3l8.725-5.037c.415-.24.754-.83.754-1.305V32.97Zm-8.678-6.812c-.415-.24-.415-.627 0-.867l7.128-4.114c.415-.24 1.088-.235 1.503 0l7.128 4.118c.415.24.415.627 0 .867l-7.128 4.118c-.415.24-1.088.236-1.503 0l-7.128-4.118v-.005Zm34.704 6.727h-5.64V45.67h2.884v-4.344h2.445c2.992 0 4.618-2.007 4.618-4.415 0-2.615-1.97-4.019-4.307-4.019v-.005Zm-.381 6.026H73.95V35.3h2.394c.966 0 1.682.622 1.682 1.79 0 1.098-.712 1.828-1.682 1.828v-.005Zm12.212-.527v-2.813h-.876c-1.004 0-1.97.438-2.465 1.277v-1.277h-2.718V45.67h2.813v-5.367c0-1.404.82-1.936 2.21-1.936l1.04.019h-.004Zm5.715-2.94c-2.902 0-4.985 1.752-4.985 5.187 0 3.435 2.083 5.169 4.985 5.169s5.003-1.753 5.003-5.169c0-3.416-2.082-5.187-5.003-5.187Zm0 8.07c-1.187 0-2.12-.82-2.12-2.883s.933-2.902 2.12-2.902 2.134.82 2.134 2.902c0 2.083-.914 2.884-2.134 2.884Zm11.939 2.116v-2.337l-1.225.057c-.584 0-.787-.165-.787-.787v-4.73h2.134v-2.267h-2.134v-2.685h-2.832v2.685h-1.46v2.267h1.46v4.876c0 1.88.274 3.03 2.629 3.03l2.21-.109h.005Zm5.842-10.186c-2.902 0-4.985 1.752-4.985 5.187 0 3.435 2.083 5.169 4.985 5.169s5.004-1.753 5.004-5.169c0-3.416-2.083-5.187-5.004-5.187Zm0 8.07c-1.187 0-2.12-.82-2.12-2.883s.933-2.902 2.12-2.902 2.134.82 2.134 2.902c0 2.083-.914 2.884-2.134 2.884Zm12.782-1.663c-.183 1.207-1.003 1.664-1.898 1.664-1.15 0-2.064-.82-2.064-2.884 0-2.063.895-2.902 2.101-2.902.947 0 1.682.476 1.828 1.715h2.832c-.236-2.667-2.134-4-4.674-4-2.902 0-4.985 1.81-4.985 5.22 0 3.411 2.135 5.131 5.042 5.131 2.591 0 4.344-1.333 4.636-3.944h-2.818Zm8.618-6.407c-2.907 0-4.985 1.752-4.985 5.187 0 3.435 2.082 5.169 4.985 5.169 2.902 0 5.003-1.753 5.003-5.169 0-3.416-2.082-5.187-5.003-5.187Zm0 8.07c-1.188 0-2.12-.82-2.12-2.883s.932-2.902 2.12-2.902c1.187 0 2.134.82 2.134 2.902 0 2.083-.914 2.884-2.134 2.884Zm6.37-11.359h2.812V45.67h-2.812V32.156Zm17.866 13.447v-2.52h-6.172V32.824h-2.889v12.778h9.061Zm10.662 0s-.222-.768-.222-1.498v-5.442c0-1.46-.805-3.284-4.509-3.284-3.703 0-4.452 1.95-4.49 3.43h2.719c0-.4.108-1.244 1.771-1.244 1.353 0 1.682.476 1.682 1.169v.348l-3.321.476c-.933.127-3.176.697-3.176 2.996 0 2.026 1.55 3.176 3.633 3.176 1.734 0 2.502-.584 2.94-1.041v.914h2.977-.004Zm-3.053-3.868c0 .857-.585 1.95-2.243 1.95-1.079 0-1.371-.674-1.371-1.13 0-.641.495-1.042 1.168-1.169.693-.146 2.446-.367 2.446-.367v.716Zm10.153-6.356c-1.112 0-2.172.476-2.686 1.112v-4.4h-2.812v13.512h2.812v-.985c.514.636 1.404 1.112 2.521 1.112 2.737 0 4.617-1.753 4.617-5.168 0-3.416-1.917-5.188-4.452-5.188v.005Zm-.547 8.07c-1.371 0-2.12-.64-2.12-2.883 0-2.242.749-2.902 2.12-2.902 1.221 0 2.135.82 2.135 2.902 0 2.083-.914 2.884-2.135 2.884Zm14.79-4.946c0-.787-.401-3.124-4.344-3.124-2.413 0-4.325 1.079-4.325 3.157 0 2.355 1.898 2.85 4.07 3.142l.547.076c.787.108 1.517.273 1.517.895 0 .73-.787 1.022-1.682 1.022-.966 0-1.828-.292-1.828-1.258h-2.832c0 .528.236 3.322 4.49 3.322 3.779 0 4.693-1.843 4.693-3.397 0-4.071-6.172-2.446-6.172-4 0-.693.768-.914 1.479-.914.966 0 1.626.381 1.626 1.079h2.761Z"/></svg>