<svg xmlns="http://www.w3.org/2000/svg" fill="none" viewBox="0 0 210 80"><path fill="#000" d="M57.242 24.035c1.215 0 2.333.102 3.355.31 1.022.207 1.963.51 2.824.91.86.4 1.654.885 2.393 1.447.734.562 1.432 1.21 2.1 1.943l-3.304 3.269c-1.053-1.103-2.171-1.938-3.355-2.51-1.18-.572-2.505-.86-3.972-.86-1.24 0-2.379.223-3.426.673a8.494 8.494 0 0 0-2.702 1.806 8.182 8.182 0 0 0-1.771 2.652 8.265 8.265 0 0 0-.638 3.233c0 1.144.228 2.313.688 3.355a8.535 8.535 0 0 0 1.878 2.717 8.564 8.564 0 0 0 2.803 1.807 9.197 9.197 0 0 0 3.476.653c1.65 0 3.026-.34 4.13-1.017 1.103-.678 1.983-1.736 2.65-3.183h-7.154v-4.473h12.458v.035c0 1.994-.294 3.8-.876 5.42-.587 1.619-1.411 3-2.479 4.144-1.068 1.148-2.358 2.029-3.87 2.651-1.514.617-3.199.931-5.061.931-2.065 0-3.922-.354-5.576-1.068-1.65-.713-3.056-1.664-4.215-2.853a12.328 12.328 0 0 1-2.667-4.18A13.745 13.745 0 0 1 44 36.842c0-1.74.319-3.39.961-4.938a12.468 12.468 0 0 1 2.718-4.079c1.169-1.168 2.57-2.094 4.2-2.767 1.624-.684 3.415-1.023 5.363-1.023ZM73.48 31.054h3.957v2.307c.435-.961.997-1.67 1.685-2.115.688-.445 1.412-.673 2.166-.673.46 0 .85.05 1.169.157.319.101.597.212.825.329L81.87 34.98a5.549 5.549 0 0 0-.618-.258 2.152 2.152 0 0 0-.723-.121c-.714 0-1.3.415-1.771 1.24-.47.824-.704 2.155-.704 3.992v9.498H73.48V31.054ZM102.611 36.488c-.471-1.214-1.128-2.257-1.978-3.127a9.004 9.004 0 0 0-3.062-2.05c-1.194-.495-2.515-.738-3.957-.738-1.442 0-2.788.263-3.957.79a9.054 9.054 0 0 0-2.995 2.135 9.347 9.347 0 0 0-1.893 3.076 10.153 10.153 0 0 0-.653 3.598c0 1.33.223 2.586.668 3.77a8.902 8.902 0 0 0 1.928 3.061 9.176 9.176 0 0 0 3.031 2.044c1.18.506 2.495.76 3.937.76 1.012 0 1.933-.092 2.773-.279.835-.182 1.599-.43 2.287-.739a10.105 10.105 0 0 0 1.857-1.067c.552-.4 1.032-.83 1.447-1.29l-3.269-2.718c-.784.668-1.548 1.174-2.307 1.513-.759.344-1.685.516-2.788.516-1.306 0-2.429-.36-3.37-1.083-.941-.718-1.528-1.77-1.756-3.147h14.725c.025-.207.035-.38.035-.516v-.516c0-1.448-.232-2.773-.703-3.993ZM88.761 37.9c.456-1.169 1.109-2.034 1.944-2.596.835-.561 1.831-.845 2.975-.845 1.24 0 2.307.304 3.203.911.89.607 1.503 1.452 1.822 2.53H88.76ZM125.235 36.301c-.461-1.184-1.078-2.196-1.857-3.046a8.344 8.344 0 0 0-2.753-1.979 8.125 8.125 0 0 0-3.34-.703c-2.181 0-4.093.825-5.748 2.474v-1.993h-4.574V56h4.574v-8.602c.83.804 1.68 1.407 2.565 1.806.881.4 1.908.602 3.082.602a8.072 8.072 0 0 0 3.335-.708 8.626 8.626 0 0 0 2.788-1.973c.804-.85 1.437-1.868 1.907-3.047.471-1.184.709-2.474.709-3.87 0-1.397-.233-2.728-.688-3.907Zm-4.301 6.037a5.362 5.362 0 0 1-1.033 1.72c-.435.48-.961.86-1.568 1.139a4.762 4.762 0 0 1-1.979.41 4.915 4.915 0 0 1-1.978-.395 4.743 4.743 0 0 1-1.579-1.103c-.45-.466-.805-1.043-1.068-1.72-.263-.674-.394-1.428-.394-2.252 0-.825.121-1.529.374-2.186a5.023 5.023 0 0 1 1.053-1.685c.445-.47.971-.835 1.583-1.098.608-.269 1.275-.4 2.009-.4s1.442.147 2.05.43a4.945 4.945 0 0 1 1.563 1.154c.435.48.769 1.052 1.002 1.705.228.653.344 1.356.344 2.115a6.11 6.11 0 0 1-.379 2.166ZM144.812 24h-4.574v25.326h4.574V24ZM151.628 31.054l4.918 11.628 5.096-11.628h4.711L154.861 56h-4.716l4.099-8.329-7.297-16.617h4.681Z"/><path fill="#D2031B" d="M132.081 49.179a3.542 3.542 0 1 0 0-7.084 3.542 3.542 0 0 0 0 7.084Z"/></svg>