<svg xmlns="http://www.w3.org/2000/svg" fill="none" viewBox="0 0 210 80"><path fill="#000" d="M164.167 56.753c.135.225.27.473.36.743 1.036 2.68.991 5.427.271 8.174-.136.518-.428.99-.744 1.419-1.576 2.026-6.124 2.386-8.308-.698-1.239-1.712-1.667-3.626-1.509-5.72.045-.675.135-1.35.293-2.004l-3.806.586c-.18 1.238-.157 2.5-.022 3.783.608 5.584 4.728 9.12 10.335 8.894 3.67-.158 6.192-2.117 7.251-5.63.518-1.71.653-3.467.653-5.246v-5.652c-1.441.473-3.04.923-4.774 1.351ZM52.842 58.194c-.248.158-.54.293-.833.406-1.306.473-2.657.405-3.986.315-.946-.068-1.914-.248-2.814-.608-.406-.158-.608-.383-.586-.833v-1.036a64.574 64.574 0 0 1-3.58-1.036v13.51c0 2.005.788 2.748 2.77 2.77.675 0 .833-.248.833-.878v-8.737c0-.247-.09-.54.135-.81.248.09.495.202.743.27 2.702.833 5.381.946 8.016-.203 1.351-.585 2.432-1.44 3.22-2.454l-3.918-.676Zm68.43 3.626c.022 1.846-.293 3.512-1.396 4.998-1.869 2.477-6.035 2.41-8.129-.135-.901-1.08-1.351-2.364-1.531-3.737-.045-.27-.068-.563-.09-.834l-3.603.023v.405c.18 5.112 3.828 9.638 9.682 9.412 3.265-.135 5.742-1.553 7.228-4.458a12.54 12.54 0 0 0 1.419-5.854c-1.148.09-2.364.135-3.58.18Zm-30.173 7.408c-1.036 1.576-2.612 2.274-4.391 2.59-6.373 1.103-12.295-2.883-13.78-9.39a13.978 13.978 0 0 1-.293-1.644l3.67.315c.338 1.554 1.036 3.063 2.116 4.504 1.51 2.026 3.716 2.882 6.215 3.04 2.5.157 4.774-.428 6.575-2.297.09-.09.18-.136.406-.068.18 1.013.09 2.027-.518 2.95Zm54.852-4.256c-.428 4.12-3.446 6.913-7.589 6.98-1.148.023-2.274 0-3.4-.36-2.792-.878-4.368-2.86-5.111-5.584a12.132 12.132 0 0 1-.428-3.265v-1.351l3.58-.248v2.117c0 1.013.27 1.959.721 2.837.923 1.824 2.814 2.815 4.796 2.477 2.274-.36 3.423-1.531 3.828-3.783.112-.72.157-1.419.157-2.14v-2.364l3.558-.405c0 1.734.068 3.4-.112 5.09Zm-43.549 6.733c-.855.135-1.688 0-2.59-.113-2.746-.608-4.277-2.432-4.277-5.224v-4.346l3.58.068v3.22c0 2.206.946 3.13 3.175 3.152h1.689c.292 0 .45.113.495.406.248 1.598-.495 2.59-2.072 2.837Zm-34.721.09c-2.05-.09-3.918-.586-5-2.567-.584-1.103-.765-2.297-.765-3.513v-6.102l3.536.45v4.796c0 .54.067 1.081.18 1.6.247 1.238 1.17 1.98 2.5 2.026.472.022.945 0 1.418.022.225 0 .428.023.495.338.405 1.734-.585 3.017-2.364 2.95Z"/><path fill="#6AC3D1" d="M118.253 22.954h-1.059c-.517 0-.855-.315-.878-.833v-2.049c0-.473.383-.81.833-.833h2.185c.472 0 .81.36.833.833v2.072c0 .473-.361.788-.811.788l-1.103.022ZM127.665 15.298c.54 0 .878.338.878.879v1.914c0 .563-.36.923-.946.923h-1.981c-.586 0-.923-.338-.923-.923v-1.914c0-.54.315-.856.855-.879h2.117Zm4.076-3.985c.54 0 .878.338.878.878v1.914c0 .563-.36.923-.946.923h-1.981c-.586 0-.924-.338-.924-.923v-1.914c0-.54.316-.856.856-.878h2.117ZM121.45 15.028a.828.828 0 0 1-.855-.855V12.19c0-.495.36-.856.855-.856h2.139c.518 0 .879.36.879.856v1.959c0 .54-.361.878-.901.878h-2.117Zm-.022 11.957a.817.817 0 0 1-.833-.833V24.17c0-.518.36-.878.878-.878h2.139c.45 0 .833.315.856.766.022.743.067 1.508-.023 2.251-.045.383-.383.653-.766.676h-2.251ZM129.286 26.985a.828.828 0 0 1-.855-.856v-2.026c0-.45.337-.811.788-.811.765-.023 1.508 0 2.274 0 .405 0 .766.338.788.766.023.743.068 1.508-.023 2.251a.742.742 0 0 1-.765.676h-2.207ZM126.719 43.085h-1.081c-.472 0-.81-.338-.81-.811v-2.049c0-.518.338-.833.855-.833h2.117c.473 0 .833.36.833.833v2.026c0 .518-.338.834-.855.856l-1.059-.022ZM140.32 27.255c.473.023.788.315.788.788v2.094c0 .45-.338.81-.788.81h-2.185c-.495 0-.833-.382-.833-.877v-1.982c0-.495.338-.833.833-.833h2.185Zm-9.66 7.633h-1.081a.784.784 0 0 1-.811-.765v-2.117a.823.823 0 0 1 .833-.788h2.185c.473 0 .81.338.81.81v2.117c0 .45-.337.766-.765.766l-1.171-.023ZM117.149 39.1c-.472 0-.81-.316-.833-.789v-2.094c0-.473.361-.788.811-.788h2.184a.855.855 0 0 1 .856.855v1.96c0 .517-.338.855-.856.855h-2.162ZM112.398 23c.158-.991.428-1.937.676-2.905.045-.18.157-.36.225-.54h1.936c.518 0 .856.337.856.855v1.959c0 .518-.338.833-.856.855h-1.576c-.428 0-.855.068-1.261-.225Zm1.171 12.181c-.428-1.013-.72-2.072-.946-3.13-.022-.135-.067-.293-.09-.428.924-.225 1.847-.067 2.77-.112.45-.023.788.338.788.788.023.698.023 1.396 0 2.094 0 .45-.36.766-.81.788h-1.712Z"/><path fill="#A8AAAE" d="M122.508 34.89h-1.081a.809.809 0 0 1-.833-.788v-2.14c0-.427.383-.765.811-.788h2.207c.45 0 .81.383.81.834v2.049c0 .472-.36.81-.833.81h-.022l-1.059.023Zm-5.314 0c-.518 0-.855-.316-.878-.833v-2.05c0-.472.383-.81.833-.81h2.162c.495 0 .856.36.856.856v2.026c0 .473-.361.81-.834.81h-2.139ZM118.253 30.95h-1.059c-.518 0-.878-.361-.878-.879v-1.959c0-.518.338-.856.878-.856h2.139c.518 0 .856.338.856.878v1.937c0 .54-.36.9-.901.9l-1.035-.022Zm-4.121-3.739h-1.058c-.518 0-.879-.36-.879-.878v-1.959c0-.518.338-.855.879-.855h2.139c.518 0 .855.337.855.878v1.936c0 .54-.36.9-.9.9l-1.036-.022ZM133.699 34.89c-.472 0-.833-.316-.833-.81v-2.072c.023-.496.383-.811.856-.834h2.094c.45 0 .878.36.856.879v2.026c0 .518-.316.81-.834.81h-2.139ZM123.477 15.3c.472.022.81.337.81.833v2.026c0 .473-.338.856-.833.856h-2.162c-.518 0-.833-.338-.833-.856v-2.026c0-.518.315-.81.833-.833h2.185ZM142.368 26.986c-.472 0-.833-.338-.833-.81v-2.072c0-.45.338-.81.811-.81h2.229c.428 0 .766.337.788.765v2.162c0 .45-.36.765-.81.765h-2.185ZM130.862 39.1h-1.081c-.495 0-.833-.315-.855-.81v-2.05c0-.495.337-.81.833-.81h2.184c.473 0 .811.338.811.788v2.094c0 .45-.316.766-.766.766l-1.126.022Zm-8.331 3.963h-1.081c-.495 0-.833-.315-.856-.81v-2.05c0-.495.338-.81.833-.81h2.185c.473 0 .81.338.81.788v2.094c0 .45-.315.766-.765.766l-1.126.023Zm27.088-9.457a8.644 8.644 0 0 1-2.477 1.284h-.518c-.45 0-.81-.316-.81-.766a34.576 34.576 0 0 1 0-2.184c0-.405.36-.743.765-.743a38.313 38.313 0 0 1 2.274 0c.451 0 .766.36.766.81.023.54 0 1.059 0 1.6ZM120.076 42.703c-.9-.338-1.666-.856-2.409-1.463a7.837 7.837 0 0 1-1.283-1.306c.18-.406.472-.586.923-.563h2.004c.518 0 .878.337.878.855v2.004c0 .18-.068.316-.113.473Z"/><path fill="#818488" d="M122.576 30.97h-.991c-.563 0-.923-.337-.946-.9v-1.96c0-.517.383-.877.901-.9h2.094c.518 0 .878.383.878.9v1.96c0 .518-.337.878-.855.878l-1.081.022Zm-8.444.293h-.991c-.563 0-.923-.338-.946-.9v-1.96c0-.517.383-.878.901-.9h2.094c.518 0 .878.383.878.9v1.96c0 .517-.337.878-.855.878l-1.081.022Zm12.632-.293h-1.013c-.541 0-.901-.36-.901-.9v-1.892c0-.585.315-.945.901-.968h2.071c.563.023.879.383.879.946v1.846c0 .586-.361.946-.946.946l-.991.022Zm-8.534-11.956h-1.013c-.518 0-.878-.383-.878-.9v-1.915c0-.585.337-.923.923-.946h2.049c.563.045.923.27.923.969v1.846c0 .563-.36.923-.901.923l-1.103.023Zm8.376 20.13h-1.058c-.518 0-.878-.36-.878-.878V36.33c0-.518.338-.901.878-.924h2.117c.473 0 .855.428.878.901v1.959c0 .54-.36.878-.923.9l-1.014-.022Zm-1.103-16.19c-.473 0-.811-.36-.811-.833v-2.049c0-.473.361-.833.811-.833h2.229c.451 0 .811.383.811.856v2.026c0 .495-.36.833-.856.833h-2.184Zm7.701 0c-.495 0-.833-.338-.833-.833v-2.004c0-.518.36-.878.878-.878h2.117c.518 0 .878.36.878.878V22.1c0 .517-.36.855-.878.855h-2.162ZM133.722 43.085c-.495 0-.856-.316-.856-.811v-2.162c0-.36.406-.743.788-.743h2.275c.427 0 .788.383.81.834v2.071c0 .45-.36.788-.81.81h-2.207ZM118.23 26.985h-1.013c-.518 0-.878-.36-.878-.856V24.17c0-.54.36-.9.9-.9h2.004c.721 0 .991.472.969.968v1.756c0 .653-.316.968-.969.968l-1.013.023ZM125.526 15.028c-.518 0-.856-.338-.879-.855V12.19c0-.518.338-.856.856-.878h2.117c.518 0 .855.338.855.855v1.982c0 .54-.337.878-.878.878h-2.071ZM116.384 14.443a9.89 9.89 0 0 1 1.756-1.599c.608-.45 1.238-.856 1.936-1.148.113.18.136.383.136.608v1.823c0 .563-.338.901-.901.901h-2.094c-.428 0-.698-.202-.833-.585Zm-2.995 4.841c.495-1.329 1.126-2.59 2.004-3.715.563.202.698.405.698 1.035v1.802c0 .54-.36.878-.878.878-.608.023-1.216 0-1.824 0Zm2.274 19.748c-.428-.496-.743-1.059-1.058-1.622-.315-.54-.563-1.125-.833-1.711-.045-.067-.045-.158-.068-.248a14.104 14.104 0 0 1 1.689-.022c.383.022.698.405.698.81v2.095c0 .315-.113.585-.428.698Z"/><path fill="#4C4E50" d="M149.623 33.605c.743-.45 1.396-1.036 1.981-1.667.698-.765 1.284-1.643 1.667-2.612a8.824 8.824 0 0 0 .473-1.914c.09-.653.022-1.283 0-1.936a7.534 7.534 0 0 0-.451-2.14c-.878-2.454-2.387-4.368-4.751-5.538-1.193-.586-2.477-.721-3.805-.563-1.509.18-2.905.675-4.256 1.306a.24.24 0 0 1-.18.022c1.081-1.351 2.477-2.162 4.143-2.522.813-.18 1.644-.27 2.477-.27 1.554 0 3.017.36 4.368 1.103a11.217 11.217 0 0 1 3.963 3.513c.631.946 1.126 1.936 1.419 3.04.202.833.338 1.666.383 2.522.022.45.022.923-.023 1.373a8.068 8.068 0 0 1-.45 2.162c-.248.675-.518 1.328-.923 1.936-.653.991-1.397 1.87-2.32 2.612a11.75 11.75 0 0 1-4.075 2.117c-.698.203-1.396.27-2.117.36a15.57 15.57 0 0 1-2.882.158c-.563-.023-1.149-.045-1.711-.158-.023 0-.068-.045-.136-.067.563-.135 1.081-.27 1.599-.428 1.013-.27 2.004-.63 2.995-1.013.045-.023.09-.068.135-.09a8.984 8.984 0 0 0 2.477-1.306Zm-13.443 10.74c1.171-.022 2.229-.383 3.22-.968 1.509-.9 2.522-2.23 3.243-3.805.247-.563.45-1.126.608-1.712.022-.045.045-.09.067-.157.473 3.017-.833 6.057-3.76 7.43-2.95 1.396-5.877.608-8.016-1.666 1.373.563 2.792.968 4.3.923.136.023.248.045.338-.045ZM112.402 22.999c-.068.338-.135.653-.135.99-.045.248-.135.519-.09.766-.09.45-.09.924-.113 1.374v1.734l.113 1.35c-.023.136 0 .248.022.383l.203 1.397.113.585.09.428c.247 1.058.518 2.117.945 3.13.068.09-.022.247.135.292.023.09.023.158.068.248.27.563.518 1.148.833 1.712.315.562.631 1.148 1.058 1.62.181.338.428.631.699.901.382.473.81.924 1.283 1.306.743.586 1.531 1.126 2.409 1.464.248.158.563.203.833.27.158.045.338.09.496.158 1.554.428 3.13.563 4.728.383 1.599-.18 3.108-.63 4.594-1.239-.405.338-.856.608-1.306.856a12.587 12.587 0 0 1-3.67 1.328c-1.239.248-2.477.293-3.738.225-.788-.044-1.599-.135-2.364-.337-1.216-.338-2.342-.9-3.378-1.621-1.148-.811-2.117-1.78-2.995-2.883-.202-.247-.338-.563-.608-.765a1.497 1.497 0 0 0-.428-.63c-.135-.451-.45-.789-.653-1.194-.427-.833-.833-1.666-1.148-2.522a20.786 20.786 0 0 1-.923-3.062 21.555 21.555 0 0 1-.36-2.05 22.371 22.371 0 0 1-.226-3.242c0-.563.023-1.126.045-1.689.023-.585.09-1.148.181-1.734.135-.968.337-1.936.562-2.882.428-1.666 1.014-3.242 1.937-4.706a16.744 16.744 0 0 1 4.391-4.774 13.936 13.936 0 0 1 3.873-1.959 9.335 9.335 0 0 1 2.094-.427c.788-.068 1.599-.203 2.387-.18 1.08.022 2.139.157 3.197.382a15.27 15.27 0 0 1 4.278 1.69c1.509.877 2.77 2.026 3.941 3.31.878.967 1.711 1.958 2.432 3.062a9.004 9.004 0 0 1 1.013 2.094c.158.45 0 .855.045 1.283l-.203-.585c-.337-.969-.968-1.734-1.643-2.477-.946-1.081-2.027-2.05-3.153-2.973-.54-.45-1.081-.923-1.734-1.238l-.247-.18c-.743-.428-1.554-.766-2.365-1.059-.653-.157-1.283-.36-1.936-.472-.54-.09-1.081-.203-1.621-.203-.338 0-.676-.045-1.014-.045a13.42 13.42 0 0 0-2.994.338c-.811.18-1.622.405-2.365.81-.698.293-1.328.698-1.936 1.149-.653.45-1.239.99-1.757 1.599-.405.315-.698.72-.968 1.148-.878 1.126-1.508 2.387-2.004 3.715.023.113-.067.18-.09.27-.067.18-.18.36-.225.54-.158.901-.428 1.87-.608 2.838Zm-55.663 35.87a140.26 140.26 0 0 1-3.895-.653c1.351-.833 2.004-2.32 1.937-4.504-.158-2.68-1.352-4.03-3.986-4.368-1.846-.248-3.715-.135-5.562.158-.473.067-.63.315-.63.788v6.147a64.556 64.556 0 0 1-3.58-1.036L41 47.925c0-.675.225-.945.856-1.125 1.35-.338 2.702-.676 4.143-.788 2.184-.18 4.323-.293 6.417.225 3.67.9 5.81 3.377 6.012 7.138.09 1.981-.473 3.94-1.688 5.494Zm8.737 1.193-3.535-.45-.023-7.34c0-.901.518-.744 1.104-.744 1.531.068 2.454 1.014 2.454 2.522v6.012Zm.27-11.529c-.022.676-.292.991-.968 1.036-.563.045-1.126.023-1.734.023-1.125-.045-1.418-.338-1.418-1.374v-1.621c.022-.63.36-1.013.99-1.036a16.964 16.964 0 0 1 2.14 0c.63.023.99.383.968 1.036l.022 1.936Zm103.197 1.577v5.314a88.196 88.196 0 0 1-4.796 1.328c-.946-1.576-2.658-2.342-4.977-2.297-1.981.046-3.625 1.239-4.368 3.22a8.736 8.736 0 0 0-.315 1.014l-3.806.585c.225-1.621.743-3.197 1.689-4.66 2.297-3.581 7.611-4.617 10.988-2.207.766.562 1.329 1.306 1.892 2.161.135-.878.09-1.666.09-2.454v-6.8c0-.54.158-.743.72-.743 1.869 0 2.815.878 2.86 2.792.045.878.023 1.779.023 2.747Zm-22.878 8.466-.022 1.306-3.558.406v-7.859c0-.878.022-.9.901-.9 1.801 0 2.634.81 2.657 2.611.045 1.464.022 2.928.022 4.436Zm-16.64 2.837V52.34c0-.608.18-.788.788-.81 2.139-.113 2.77 1.148 2.77 2.791l.022 6.846-3.58.247Zm-4.526.248-3.625.158-.023-.54a9.75 9.75 0 0 0-.428-2.906c-.788-2.476-2.567-3.782-5.291-3.85-2.387-.045-4.121 1.194-4.954 3.558-.45 1.306-.54 2.657-.428 4.008l-3.602.022c-.023-1.62.18-3.22.675-4.818 2.207-6.755 9.84-7.498 13.871-4.549 1.891 1.396 3.017 3.288 3.467 5.562.225 1.17.361 2.274.338 3.355Zm-25.782.45-3.58-.067V45.269c0-.518.18-.698.698-.698 1.869-.023 2.882.923 2.882 2.814v14.726ZM91.64 51.956c-3.13-3.378-6.778-3.603-10.673-2.004-1.891.766-3.175 2.23-4.03 4.12-.856 2.433-1.104 4.774-.631 7.004l-3.67-.316c-.54-3.895.27-7.565 2.904-10.718 3.108-3.738 7.228-4.954 11.98-4.008 1.283.248 2.341.968 3.22 1.96.99 1.102 1.103 2.408.9 3.962Z"/></svg>