<svg xmlns="http://www.w3.org/2000/svg" fill="none" viewBox="0 0 210 80"><path fill="#6733FF" d="M9.06 31.223H0v9.207h6.797v9.208h4.525l9.06-9.208v9.208h4.525l9.06-9.208h2.262v-9.207h-4.526l-9.059 9.207v-9.207H18.12l-9.06 9.207v-9.207Z"/><path fill="#000" fill-rule="evenodd" d="M150.654 40.43c0-5.424 3.765-9.43 9.199-9.43 5.434 0 9.226 4.006 9.226 9.43 0 5.425-3.737 9.43-9.226 9.43-5.49 0-9.199-4.005-9.199-9.43Zm15.653 0c0-4.163-2.615-6.926-6.454-6.926-3.839 0-6.426 2.763-6.426 6.926 0 4.164 2.615 6.927 6.426 6.927s6.454-2.763 6.454-6.927ZM47.866 31.39h-2.847l5.063 18.081h3.097l4.609-14.085h.046l4.488 14.085h3.125L70.65 31.39h-2.847l-4.219 14.205h-.046L59.142 31.39h-2.615l-4.479 14.205h-.046L47.866 31.39Zm48.116 14.623h9.885l1.474 3.458h2.949l-8.002-18.081h-2.745L91.541 49.47h2.976l1.475-3.458h-.01Zm4.952-11.499 3.885 9.07h-7.798l3.867-9.07h.046Zm12.231-3.125h9.17c3.784 0 6.278 2.17 6.278 5.685 0 3.514-2.466 5.628-6.278 5.628h-6.426v6.77h-2.744V31.39Zm9.05 8.81c2.411 0 3.663-1.03 3.663-3.153 0-2.124-1.197-3.153-3.663-3.153h-6.306V40.2h6.306Zm19.296-8.81h-9.244v18.082h8.716c4.219 0 6.407-1.863 6.407-5.424 0-2.04-1.038-3.617-2.642-4.266v-.055c1.214-.622 1.984-1.938 1.984-3.617 0-2.819-2.105-4.729-5.211-4.729l-.01.01Zm2.467 4.961c0 1.679-.992 2.56-3.023 2.56h-5.944v-5.017h5.944c1.984 0 3.023.853 3.023 2.457Zm.658 7.697c0 2.012-1.14 2.92-3.783 2.92h-5.842V41.21h5.898c2.615 0 3.737.881 3.737 2.847l-.01-.01ZM181.458 31c-5.433 0-9.198 4.006-9.198 9.43 0 5.425 3.765 9.43 9.198 9.43 5.434 0 9.227-4.005 9.227-9.43 0-5.424-3.737-9.43-9.227-9.43Zm0 2.504c3.839 0 6.454 2.763 6.454 6.926 0 4.164-2.642 6.927-6.454 6.927-3.811 0-6.426-2.763-6.426-6.927 0-4.163 2.615-6.926 6.426-6.926Zm13.094-2.114h2.744v9.124h.056l8.503-9.125h3.839l-7.52 7.827L210 49.47h-3.403l-6.278-8.373h-.046l-2.977 3.2v5.164h-2.744V31.389ZM89.306 49.47 84.67 42.22v-.028c2.568-.556 4.237-2.3 4.237-5.304 0-3.412-2.309-5.498-6.148-5.498h-8.864V49.47h2.744v-7.075h5.1l4.423 7.075h3.153-.01Zm-3.144-12.61c0 1.993-1.224 3.022-3.607 3.022H76.63v-5.99h5.87c2.494 0 3.662.983 3.662 2.967Z" clip-rule="evenodd"/></svg>