<svg xmlns="http://www.w3.org/2000/svg" fill="none" viewBox="0 0 210 80"><path fill="#1B2353" d="M58.18 13.452h2.374v43.605H58.18V13.452Z"/><path fill="#1B2353" d="M93.02 67.429h-7.892c-5.252 0-9.525-4.272-9.525-9.524l-.024-12.012 6.644-.03c4.63 0 8.395-3.764 8.395-8.39 0-4.626-3.764-8.39-8.39-8.39H47.676V26.71h34.552c5.934 0 10.762 4.827 10.762 10.762 0 5.935-4.828 10.762-10.762 10.762l-4.27.02.02 9.647c0 3.946 3.209 7.152 7.15 7.152h7.891v2.377Zm10.486-38.302h6.426c3.165 0 5.213 1.889 5.213 4.678 0 1.856-1.019 3.379-2.714 4.108l3.293 5.782h-3.175l-2.971-5.298h-3.165v5.288h-2.907V29.127Zm2.907 6.753h3.337c1.599 0 2.424-.977 2.424-2.082 0-1.213-.825-2.166-2.424-2.166h-3.337v4.248Zm24.159-6.753v2.51h-7.467v3.356h6.48v2.51h-6.48v3.69h7.626v2.5h-10.523V29.128h10.364Zm5.026 12.496 7.518-9.966h-7.412v-2.532h11.208v2.102l-7.53 9.944h7.638v2.522h-11.424v-2.07h.002Zm14.678-5.18c0-4.41 3.219-7.531 7.627-7.531 4.407 0 7.638 3.133 7.638 7.53 0 4.398-3.206 7.467-7.638 7.467s-7.627-3.07-7.627-7.467Zm7.639 4.772c2.725 0 4.655-1.93 4.655-4.783 0-2.853-1.93-4.817-4.655-4.817-2.726 0-4.655 1.984-4.655 4.817 0 2.834 1.961 4.783 4.655 4.783Z"/><path fill="#F58041" d="M47.757 31.804a3.757 3.757 0 1 0 0-7.514 3.757 3.757 0 0 0 0 7.514Z"/><path fill="#3BC4F3" d="M59.3 17.514a3.757 3.757 0 1 0 0-7.514 3.757 3.757 0 0 0 0 7.514Z"/><path fill="#EE3785" d="M76.765 50.865a3.757 3.757 0 1 0 0-7.514 3.757 3.757 0 0 0 0 7.514Z"/><path fill="#4CBD93" d="M92.798 70a3.757 3.757 0 1 0 0-7.513 3.757 3.757 0 0 0 0 7.513Z"/><path fill="#644DA0" d="M59.3 59.997a3.757 3.757 0 1 0 0-7.514 3.757 3.757 0 0 0 0 7.514Z"/></svg>