<svg xmlns="http://www.w3.org/2000/svg" fill="none" viewBox="0 0 210 80"><path fill="#000" d="M83.407 52.618c-2.598-.256-5.197-.494-7.796-.767-.333-.034-.7-.136-.955-.332-1.414-1.048-2.692-.75-4.218-.043-1.32.614-2.914.767-4.397.878-1.84.145-3.706.017-5.564.042-2.215.026-4.269-.51-6.212-1.559-.298-.162-.843-.153-1.15 0-1.892 1.014-3.886 1.568-6.033 1.55-1.824-.008-3.647 0-5.47 0-4.534-.008-8.01-1.908-10.413-5.785-2.889-4.678-5.82-9.33-8.718-14-1.678-2.701-4.039-4.457-7.14-5.198-.11-.026-.213-.077-.341-.12.06-.085.094-.17.136-.17 4.568-.324 9.016-.196 12.356 3.63.707.81 1.304 1.721 1.883 2.633a1667.7 1667.7 0 0 1 8.334 13.37c1.312 2.122 3.101 3.647 5.368 4.66.75.333 1.449.393 2.216.06a12.204 12.204 0 0 0 4.746-3.604c.34-.417.392-.75.093-1.235-3.007-4.79-5.964-9.604-8.998-14.376-1.687-2.65-4.15-4.26-7.251-4.933 1.099-.673 6.85-.18 8.82.707 2.88 1.295 4.694 3.63 6.211 6.493.392-.58.716-1.014.98-1.465 2.42-4.09 5.965-6.119 10.737-6.017 1.942.043 3.894-.025 5.837.018 4.354.093 7.566 2.138 9.79 5.837.043.076.043.17.103.391-.316.035-.597.086-.878.086-1.449 0-2.906-.034-4.354.017-.708.025-1.117-.205-1.483-.818-1.338-2.207-3.221-3.818-5.667-4.695-.502-.18-1.176-.188-1.678 0-2.31.826-4.142 2.317-5.47 4.38a321.535 321.535 0 0 0-4.219 6.765c-.17.273-.324.767-.196.98 1.807 2.872 3.588 5.769 5.556 8.538 1.108 1.56 2.812 2.489 4.636 3.093.323.111.74.103 1.065 0 2.164-.732 3.953-2.019 5.308-3.86.162-.221.264-.673.145-.886-1.56-2.897-3.587-5.334-6.825-6.459-.708-.247-1.449-.409-2.429-.681 5.445-.401 10.447-.265 13.958 4.439.554.741 1.04 1.534 1.517 2.326 1.695 2.855 4.132 4.704 7.362 5.488.238.06.468.136.707.213.017 0 .034.042.043.068-.017.12-.035.23-.043.35l-.008-.01Zm16.591-25.29v5.29c0 3.069-1.798 4.313-4.013 4.313h-.017c-2.207 0-4.014-1.244-4.014-4.312v-5.292h1.048v5.292c0 2.411 1.432 3.289 2.957 3.289h.017c1.525 0 2.957-.87 2.957-3.29v-5.29h1.065Zm7.916 0v8.427h5.53v1.014h-6.578v-9.442h1.048Zm16.872 0v1.013h-3.178v8.428h-1.048V28.34h-3.179v-1.014h7.405Zm6.306 0h1.048v9.44h-1.048v-9.44Zm12.764 6.126 3.545-6.127h1.091v9.442h-1.031v-7.746l-3.264 5.743h-.665l-3.263-5.743v7.746h-1.031v-9.442h1.091l3.527 6.127Zm16.156-6.127h-1.116l-4.116 9.442h1.117l1.031-2.429h5.036l1.039 2.429h1.116l-4.107-9.442Zm-2.726 6.076 2.172-4.968 2.148 4.968h-4.32Zm-58.046 10.2c-.682-.563-1.653-.836-2.65-.836h-.017c-2.378 0-3.886 1.611-3.886 3.886v.017c0 2.267 1.517 3.903 3.724 3.903h.017c1.61 0 2.675-.75 2.752-1.858v-1.142h-2.343v-.869h3.246V51.4h-.681l-.052-1.295c-.46.938-1.525 1.457-2.999 1.457h-.017c-2.82 0-4.695-1.994-4.695-4.882v-.017c0-2.863 1.892-4.866 4.934-4.866h.017c1.184 0 2.343.29 3.23 1.023l-.589.792.009-.008Zm13.702-1.654v.989h-5.122v3.272h4.653v.98h-4.653v3.221h5.122v.98h-6.17V41.95h6.17Zm13.48 0h1.04v9.442h-1.023l-5.914-7.729v7.729h-1.031V41.95h1.023l5.905 7.737V41.95Zm12.39-.161h-.009c-2.905 0-4.806 1.985-4.806 4.874v.017c0 2.897 1.901 4.882 4.806 4.882h.009c2.905 0 4.789-1.985 4.789-4.882v-.017c0-2.889-1.884-4.874-4.789-4.874Zm3.741 4.89c0 2.327-1.492 3.895-3.741 3.895h-.009c-2.266 0-3.758-1.568-3.758-3.894v-.017c0-2.318 1.492-3.886 3.758-3.886h.009c2.249 0 3.741 1.568 3.741 3.886v.017Zm12.21 1.398 3.545-6.127h1.091v9.442h-1.031v-7.746l-3.264 5.743h-.665l-3.263-5.743v7.746h-1.031V41.95h1.091l3.527 6.126Zm11.725-6.127h1.048v9.442h-1.048V41.95Zm14.904 1.654c-.682-.563-1.568-.836-2.522-.836h-.018c-2.224 0-3.723 1.628-3.723 3.886v.017c.017 2.292 1.499 3.903 3.723 3.903h.018c.997 0 1.857-.29 2.522-.835l.588.792c-.869.724-1.909 1.023-3.11 1.023h-.018c-2.905 0-4.771-1.969-4.771-4.883v-.017c0-2.906 1.866-4.865 4.771-4.865h.018c1.141 0 2.224.29 3.11 1.022l-.588.793Zm12.841.75c-.434-.98-1.338-1.62-2.769-1.62h-.017c-1.551 0-2.429.614-2.429 1.526 0 .639.384 1.244 1.611 1.55l2.207.546c1.704.409 2.164 1.517 2.164 2.633 0 1.542-1.321 2.565-3.519 2.565h-.017c-1.935 0-3.289-.793-3.843-2.207l.869-.597c.503 1.27 1.525 1.866 2.999 1.866h.017c1.585 0 2.429-.664 2.429-1.636 0-.75-.409-1.389-1.542-1.678l-2.335-.597c-1.56-.409-2.113-1.346-2.113-2.411 0-1.551 1.312-2.497 3.536-2.497h.017c1.687 0 2.863.707 3.366 1.824l-.639.732h.008Z"/></svg>