<svg xmlns="http://www.w3.org/2000/svg" fill="none" viewBox="0 0 210 80"><path fill="#333" d="M4.651 45.996c.225 0 .44-.061.625-.215.266-.215.379-.46.41-.84.02-.215.02-.44.02-.707v-6.433l.02-.246v-.277a.986.986 0 0 1 1.005-1.004h1.045c.297 0 .573-.051.82-.143.46-.185.655-.492.675-.902v-.071c0-.461-.307-.728-.594-.881a1.214 1.214 0 0 0-.543-.134h-.133c-.113-.02-.225-.02-.328-.02H1.526c-.143 0-.297 0-.46.02-.308.031-.595.164-.8.38-.215.215-.266.44-.266.686.02.225.061.46.277.676.348.328.788.379 1.116.39h1.168c.348 0 .574.081.758.245.144.143.226.328.256.594v.144c.031.133.031.297.031.43v6.587c0 .226.02.492.051.707.031.359.133.594.39.789.184.143.41.225.624.225h-.02Zm17.129-1.393c-.093-.277-.277-.523-.461-.758l-.082-.113c-.338-.42-.748-.963-1.066-1.373-.143-.194-.215-.379-.215-.563 0-.174.072-.359.215-.553.082-.113.185-.215.287-.308l.195-.204a3.916 3.916 0 0 0 .963-2.305v-.154a3.75 3.75 0 0 0-.738-2.244c-.82-1.096-1.916-1.72-3.258-1.833-.625-.041-1.26-.052-1.874-.052h-.912c-.359.02-.727.02-1.086.02h-.195l-.03.032c-.656.102-1.117.553-1.178 1.209 0 .112-.021.225-.021.348v8.892c0 .092 0 .195.02.307.031.287.083.451.175.605.082.112.194.225.245.256a.912.912 0 0 0 .574.184c.256 0 .512-.102.687-.266.4-.328.43-.717.45-1.127v-1.29c.01-.626.359-.954.963-.984h1.168c.45 0 .768.123 1.107.45.163.164.327.37.46.533.246.308.523.666.79 1.014.225.297.47.605.686.881.246.297.46.492.707.646.184.112.379.164.543.164.276 0 .522-.123.737-.37a.943.943 0 0 0 .236-.614c0-.133-.03-.276-.092-.43Zm-2.684-5.43c-.461.615-1.117.943-1.988.984-.266.02-.533.02-.789.02-.348 0-.676-.01-.963-.02a.901.901 0 0 1-.624-.246.922.922 0 0 1-.246-.615c-.01-.164-.01-.328-.01-.491v-.892c0-.245 0-.491.01-.717.02-.512.327-.85.809-.891.287-.01.615-.03.963-.03.44 0 .901.03 1.362.102.574.092 1.045.389 1.424.87.256.308.38.646.38.984 0 .317-.113.645-.328.942ZM29.719 46.1c.543 0 1.117-.082 1.7-.226.953-.266 1.824-.799 2.428-1.536.349-.39.605-.871.8-1.373.194-.543.276-1.148.276-1.783 0-.655-.01-1.331-.01-2.008 0-.676 0-1.362.01-2.038V35.72c0-.246 0-.574-.082-.799-.164-.512-.471-.758-.983-.758-.625 0-.85.246-1.014.686-.062.174-.082.39-.082.605v5.808c-.02.922-.39 1.64-1.117 2.131a2.967 2.967 0 0 1-1.752.553c-.266 0-.543-.03-.83-.092a2.776 2.776 0 0 1-1.506-.85 2.27 2.27 0 0 1-.614-1.568v-5.47c0-.348 0-.758-.113-1.086-.184-.461-.512-.707-.983-.707-.43 0-.769.246-.953.687-.092.215-.113.532-.113.737v4.026c0 .656 0 1.342.02 2.018 0 1.096.41 2.05 1.169 2.838 1.065 1.096 2.315 1.64 3.739 1.64l.01-.021Zm9.486-.103c.328 0 .574-.102.758-.307.215-.267.308-.687.308-1.29v-2.265c.02-.543.358-.881.901-.901.133-.02.246-.02.38-.02h.706c.154 0 .267 0 .359.01h.102c.133 0 .256 0 .471-.01.513 0 .933-.144 1.178-.523a.982.982 0 0 0 .144-.523c0-.195-.051-.39-.144-.574-.194-.327-.553-.47-.952-.512-.113-.02-.246-.02-.38-.02h-1.69c-.758-.02-1.065-.349-1.085-1.096v-.82c.03-.471.378-.799.85-.84.102-.02.215-.02.307-.02h3.094c.133.02.246.02.358 0 .328-.031.769-.113 1.035-.492.113-.185.174-.369.174-.564 0-.215-.071-.43-.205-.655-.225-.297-.594-.44-1.096-.44h-5.173c-.43 0-.82.163-1.096.46a1.34 1.34 0 0 0-.4.963v.359l-.02.164v5.306c0 1.035 0 2.08.02 3.033 0 .604.103 1.014.297 1.26.113.133.308.297.79.297l.01.02Zm10.85 0c.327 0 .573-.102.757-.307.215-.267.308-.687.308-1.29v-2.265c.02-.543.358-.881.901-.901.133-.02.246-.02.38-.02h.706c.154 0 .266 0 .358.01h.103c.133 0 .256 0 .471-.01.512 0 .932-.144 1.178-.523a.982.982 0 0 0 .144-.523c0-.195-.051-.39-.144-.574-.194-.327-.553-.47-.952-.512-.113-.02-.246-.02-.38-.02h-1.69c-.758-.02-1.065-.349-1.086-1.096v-.82c.031-.471.38-.799.85-.84.103-.02.216-.02.308-.02h3.094c.133.02.246.02.358 0 .328-.031.769-.113 1.035-.492.113-.185.174-.369.174-.564 0-.215-.072-.43-.205-.655-.225-.297-.594-.44-1.096-.44h-5.173c-.43 0-.82.163-1.096.46a1.34 1.34 0 0 0-.4.963v.359l-.02.164v5.306c0 1.035 0 2.08.02 3.033 0 .604.102 1.014.297 1.26.113.133.307.297.789.297l.01.02Zm16.144 0c.113 0 .226 0 .349-.02.43-.031.758-.195.952-.471v-.021a.992.992 0 0 0 .185-.553c0-.185-.062-.39-.185-.594v-.02c-.225-.329-.624-.493-1.178-.493H62.88a.934.934 0 0 1-.88-.84c-.021-.102-.021-.215-.021-.307V35.67c0-.226 0-.471-.062-.707-.164-.471-.574-.82-.983-.82h-.02c-.41 0-.82.349-.964.8-.061.194-.102.41-.112.594a.725.725 0 0 0 0 .297v8.328c0 .246 0 .543.102.82.133.44.44.758.902.922.184.082.379.092.563.102h4.815l-.02-.01Zm11.085 0c.297 0 .522-.03.758-.082.266-.061.573-.184.758-.512a1.142 1.142 0 0 0-.01-1.014c-.185-.297-.523-.492-.933-.523-.143-.02-.297-.02-.44-.02h-3.545c-.307 0-.624-.133-.84-.348a.986.986 0 0 1-.245-.656v-.062c.02-.133.02-.266.02-.389 0-.082-.02-.184 0-.266.02-.717.328-1.045 1.045-1.066h2.038c.257 0 .492-.04.718-.102.47-.144.706-.594.706-.963v-.041c0-.318-.174-.717-.604-.922-.246-.102-.492-.102-.717-.102-.195 0-.39-.02-.594-.02-.512 0-1.045 0-1.578.02-.266 0-.543-.113-.758-.328a.99.99 0 0 1-.276-.676c.02-.113.02-.246.02-.359v-.297c.02-.635.379-.983 1.004-.983.574-.021 1.147-.021 1.7-.021h2.162c.266 0 .922-.051 1.199-.512a1.11 1.11 0 0 0 .133-.533c0-.256-.092-.512-.266-.707v-.02c-.277-.246-.636-.38-1.086-.38h-4.641c-.308 0-.656 0-.984.021-.686.03-1.168.43-1.331 1.117a1.761 1.761 0 0 0-.062.543v8.492c0 .216.02.39.062.595.143.542.47.87 1.014 1.034.266.062.522.082.768.082h4.805Zm14.557.113c.359 0 .717-.03 1.096-.082 1.066-.184 1.916-.686 2.52-1.506a3.19 3.19 0 0 0 .646-1.906v-.194a2.904 2.904 0 0 0-.932-1.967 4.479 4.479 0 0 0-1.332-.87c-.625-.298-1.28-.472-1.834-.605-.492-.113-1.045-.246-1.557-.461a1.795 1.795 0 0 1-.84-.656.859.859 0 0 1-.144-.44c0-.144.041-.277.144-.42.276-.43.686-.677 1.209-.759.256-.04.502-.06.727-.06.707 0 1.322.184 1.854.552.246.164.461.297.676.38.144.06.287.091.42.091.205 0 .4-.071.564-.215.266-.205.4-.481.4-.758 0-.184-.062-.379-.175-.563-.225-.38-.573-.707-1.086-.984-.768-.44-1.618-.655-2.674-.676h-.358c-.215.031-.359.031-.574.062-1.096.164-1.936.594-2.571 1.331a3.084 3.084 0 0 0-.8 2.07v.061c.021.8.36 1.537.964 2.1.358.328.758.595 1.23.8.604.276 1.249.44 1.853.594.492.112 1.035.245 1.537.47.359.144.625.35.82.595.153.195.235.39.235.574 0 .184-.082.379-.235.573-.277.359-.676.574-1.148.656-.215.03-.43.051-.635.051a3.829 3.829 0 0 1-2.12-.625 1.747 1.747 0 0 1-.267-.184c-.102-.061-.215-.143-.328-.215a2.063 2.063 0 0 0-.47-.246.89.89 0 0 0-.933.143c-.266.236-.41.482-.41.748 0 .195.072.39.215.615.195.328.492.604.932.901a5.968 5.968 0 0 0 3.36 1.015l.021.01Zm13.994-.113c.297 0 .522-.03.758-.082.266-.061.574-.184.758-.512a1.147 1.147 0 0 0-.01-1.014c-.185-.297-.523-.492-.932-.523-.144-.02-.297-.02-.441-.02h-3.544c-.308 0-.625-.133-.841-.348a.987.987 0 0 1-.245-.656v-.062c.02-.133.02-.266.02-.389 0-.082-.02-.184 0-.266.021-.717.328-1.045 1.045-1.066h2.039c.256 0 .491-.04.717-.102.471-.144.707-.594.707-.963v-.041c0-.318-.174-.717-.605-.922-.246-.102-.491-.102-.717-.102-.195 0-.389-.02-.594-.02-.512 0-1.045 0-1.578.02-.266 0-.543-.113-.758-.328a.986.986 0 0 1-.276-.676c.02-.113.02-.246.02-.359 0-.102-.02-.195 0-.297.021-.635.379-.983 1.004-.983.574-.021 1.147-.021 1.701-.021h2.161c.267 0 .922-.051 1.199-.512.092-.164.133-.359.133-.533 0-.256-.092-.512-.266-.707v-.02c-.277-.246-.636-.38-1.086-.38h-4.641c-.307 0-.656 0-.983.021-.687.03-1.168.43-1.332 1.117a1.758 1.758 0 0 0-.062.543v8.492c0 .216.02.39.062.595.143.542.471.87 1.014 1.034.266.062.522.082.768.082h4.805Zm9.947.113c.41 0 .82-.051 1.23-.133.922-.185 1.751-.553 2.438-1.117.215-.184.491-.43.676-.758.092-.174.143-.338.143-.502a.82.82 0 0 0-.174-.492c-.225-.307-.492-.46-.809-.46-.072 0-.144 0-.215.02-.185.03-.349.112-.554.225-.102.062-.194.144-.307.215-.113.082-.246.164-.358.246-.656.39-1.322.594-1.988.594h-.205a3.88 3.88 0 0 1-2.766-1.362 3.873 3.873 0 0 1-.963-2.52v-.236a3.863 3.863 0 0 1 1.148-2.51c.707-.707 1.588-1.117 2.51-1.147h.174c.789 0 1.506.215 2.172.645.061.051.133.103.194.133.226.144.461.308.717.43.154.062.297.093.431.093.266 0 .502-.123.727-.4a.822.822 0 0 0 .225-.563c0-.205-.071-.41-.205-.635-.194-.328-.43-.513-.706-.707-1.086-.789-2.264-1.148-3.719-1.148-.215 0-.594.031-.984.113a6.166 6.166 0 0 0-2.684 1.28 6.236 6.236 0 0 0-1.69 2.296 5.899 5.899 0 0 0-.492 2.366 5.836 5.836 0 0 0 .963 3.237 6.072 6.072 0 0 0 2.684 2.315 5.95 5.95 0 0 0 2.377.492l.01-.01Zm12.345-.01c.543 0 1.116-.082 1.7-.226.953-.266 1.824-.799 2.428-1.536.349-.39.605-.871.799-1.373.195-.543.277-1.148.277-1.783 0-.655-.01-1.331-.01-2.008 0-.676 0-1.362.01-2.038V35.72c0-.246 0-.574-.082-.799-.164-.512-.471-.758-.984-.758-.624 0-.85.246-1.014.686-.082.215-.082.512-.082.758v5.655c-.02.922-.389 1.64-1.116 2.131a2.97 2.97 0 0 1-1.752.553c-.266 0-.543-.03-.83-.092a2.775 2.775 0 0 1-1.506-.85 2.27 2.27 0 0 1-.614-1.568v-5.47c0-.348 0-.758-.113-1.086-.185-.461-.512-.707-.984-.707-.43 0-.768.246-.952.687-.093.215-.113.532-.113.737v4.026c0 .656 0 1.342.02 2.018 0 1.096.41 2.05 1.168 2.838 1.066 1.096 2.316 1.64 3.739 1.64l.011-.021Zm17.886-1.496c-.102-.277-.286-.523-.461-.758l-.081-.113c-.349-.42-.759-.963-1.066-1.373-.154-.194-.225-.379-.225-.563 0-.174.071-.359.225-.553.082-.113.174-.215.277-.308l.194-.204c.574-.666.922-1.476.974-2.305v-.154c0-.8-.246-1.578-.738-2.244-.82-1.096-1.926-1.72-3.268-1.833-.625-.041-1.25-.052-1.864-.052h-.922c-.359.02-.718.02-1.076.02h-.205l-.031.032c-.655.102-1.116.553-1.178 1.209-.01.112-.01.225-.02.348v8.892c0 .092 0 .195.02.307.031.287.082.451.185.605.081.112.194.225.245.256.123.102.308.184.574.184.266 0 .502-.102.686-.266.39-.328.42-.717.441-1.127v-1.29c.02-.626.359-.954.963-.984h1.168c.461 0 .768.123 1.116.45.164.164.328.37.461.533.246.308.523.666.779 1.014.236.297.481.605.697.881.245.297.45.492.696.646.185.112.379.164.543.164.277 0 .523-.123.738-.37a.94.94 0 0 0 .235-.614c0-.133-.02-.276-.082-.43Zm-2.694-5.43c-.461.615-1.116.943-1.977.984-.266.02-.533.02-.789.02-.348 0-.686-.01-.973-.02a.877.877 0 0 1-.615-.246.88.88 0 0 1-.246-.615c-.01-.164-.02-.328-.02-.491v-.892c0-.245 0-.491.02-.717.011-.512.328-.85.8-.891.297-.01.624-.03.973-.03.43 0 .891.03 1.352.102.574.092 1.055.389 1.424.87.256.308.379.646.379.984 0 .317-.113.645-.328.942Zm6.905 6.813c.451 0 .778-.256.963-.748.143-.379.154-.779.154-.932V35.7c0-.103 0-.216-.011-.308v-.03c-.02-.144-.051-.451-.205-.718a.913.913 0 0 0-.86-.512.956.956 0 0 0-.85.482 1.78 1.78 0 0 0-.216.655c-.02.164-.02.328-.02.492v8.595c0 .133 0 .533.123.902.164.47.471.727.901.727h.021Zm8.82.01a.946.946 0 0 0 .625-.215c.267-.215.379-.46.41-.84.021-.215.021-.44.021-.707v-6.433l.02-.246v-.277a.987.987 0 0 1 1.004-1.004h1.045c.297 0 .574-.051.819-.143.461-.185.656-.492.677-.902v-.071c0-.461-.308-.728-.595-.881a1.213 1.213 0 0 0-.543-.134h-.133c-.112-.02-.225-.02-.328-.02h-6.146c-.144 0-.297 0-.461.02-.308.031-.594.164-.799.38-.215.215-.267.44-.267.686.021.225.062.46.277.676.348.328.789.379 1.117.39h1.168c.348 0 .573.081.758.245.143.143.225.328.256.594v.144c.03.133.03.297.03.43v6.587c0 .226.021.492.052.707.03.359.133.594.389.789.184.143.41.225.625.225h-.021Zm12.683-.02c.225 0 .461-.113.676-.328.266-.267.389-.605.389-1.045v-2.356c0-.461.113-.881.379-1.291l.349-.492s.03-.051.061-.082c.471-.635.953-1.331 1.424-1.987.471-.676.984-1.373 1.475-2.029.185-.266.359-.522.472-.84.02-.102.041-.235.041-.379 0-.276-.082-.594-.39-.809a.972.972 0 0 0-.563-.184c-.215 0-.441.082-.646.235a4.056 4.056 0 0 0-.717.769c-.328.44-.655.922-.963 1.362-.327.461-.676.953-1.014 1.393-.031.052-.051.103-.082.134l-.225.297c-.226.307-.441.46-.676.46h-.031c-.164 0-.389-.143-.625-.44a9.055 9.055 0 0 1-.246-.328l-.543-.717a185.383 185.383 0 0 0-1.536-2.1c-.195-.266-.441-.574-.769-.799a1.057 1.057 0 0 0-.614-.225c-.072 0-.134 0-.205.02-.267.062-.492.266-.635.553a.97.97 0 0 0-.103.42c0 .154.031.308.103.472.112.297.276.543.461.768.44.604.881 1.209 1.342 1.823l.276.39.441.604c.348.471.686.953 1.045 1.424.379.502.584 1.014.584 1.557v2.387c.02.461.143.789.389 1.045.215.215.44.328.676.328h.02l-.02-.01Zm19.28.133c.41 0 .819-.051 1.229-.133.922-.185 1.752-.553 2.438-1.117.216-.184.492-.43.677-.758.092-.174.143-.338.143-.502a.827.827 0 0 0-.174-.492c-.226-.307-.492-.46-.81-.46-.071 0-.143 0-.215.02-.184.03-.348.112-.553.225-.102.062-.194.144-.307.215l-.359.246c-.655.39-1.321.594-1.987.594h-.205a3.876 3.876 0 0 1-2.766-1.362 3.868 3.868 0 0 1-.963-2.52v-.236a3.861 3.861 0 0 1 1.147-2.51c.707-.707 1.588-1.117 2.51-1.147h.174c.789 0 1.506.215 2.172.645a1.1 1.1 0 0 0 .195.133c.225.144.461.308.717.43.154.062.297.093.43.093.267 0 .502-.123.728-.4a.827.827 0 0 0 .225-.563c0-.205-.072-.41-.205-.635-.195-.328-.43-.513-.707-.707-1.086-.789-2.264-1.148-3.719-1.148-.215 0-.594.031-.983.113a6.166 6.166 0 0 0-2.684 1.28 6.225 6.225 0 0 0-1.69 2.296 5.899 5.899 0 0 0-.492 2.366 5.82 5.82 0 0 0 .963 3.237 6.067 6.067 0 0 0 2.684 2.315 5.95 5.95 0 0 0 2.377.492l.01-.01Zm17.19-10.378a6.255 6.255 0 0 0-1.916-1.27 6.228 6.228 0 0 0-2.325-.461c-.84 0-1.639.164-2.397.471a6.087 6.087 0 0 0-1.885 1.301 6.136 6.136 0 0 0-1.803 4.303c.02.82.184 1.629.522 2.397a6.264 6.264 0 0 0 1.342 1.936 5.798 5.798 0 0 0 1.936 1.26c.656.287 1.353.43 2.07.43h.338a5.69 5.69 0 0 0 2.12-.41 6.034 6.034 0 0 0 1.978-1.3 5.857 5.857 0 0 0 1.311-1.885c.328-.748.492-1.588.512-2.438 0-1.64-.635-3.186-1.803-4.334Zm-.389 4.344a3.854 3.854 0 0 1-1.189 2.776 3.924 3.924 0 0 1-2.684 1.076h-.051c-.471 0-.963-.092-1.444-.307a3.926 3.926 0 0 1-1.23-.84 3.792 3.792 0 0 1-.85-1.24 4.363 4.363 0 0 1-.297-1.424V39.9c0-.297.102-.85.297-1.312.195-.481.492-.922.84-1.28a3.372 3.372 0 0 1 1.199-.8 3.855 3.855 0 0 1 1.536-.327c1.045 0 2.018.41 2.756 1.147a3.782 3.782 0 0 1 1.117 2.684v.062Z"/></svg>