<svg xmlns="http://www.w3.org/2000/svg" fill="none" viewBox="0 0 210 80"><path fill="#0F1013" d="M35.394 39.325c4.772 0 8.632-3.88 8.632-8.663 0-4.782-3.87-8.662-8.632-8.662a8.641 8.641 0 0 0-6.108 2.54 8.683 8.683 0 0 0-2.534 6.123c0 4.783 3.87 8.662 8.632 8.662h.01Zm15.51-5.53c2.4 0 4.341-1.944 4.341-4.35a4.342 4.342 0 1 0-8.681 0c0 2.406 1.94 4.35 4.34 4.35ZM26.341 46.642c2.4 0 4.34-1.945 4.34-4.35a4.341 4.341 0 1 0-8.681 0c0 2.405 1.94 4.35 4.34 4.35Zm23.486 7.572c4.977 0 9.014-4.046 9.014-9.035 0-4.99-4.037-9.036-9.014-9.036-4.978 0-9.015 4.046-9.015 9.036 0 4.989 4.037 9.035 9.015 9.035Zm-15.393 3.143c2.998 0 5.418-2.436 5.418-5.44a5.45 5.45 0 0 0-.915-3.025 5.416 5.416 0 0 0-8.354-.82 5.445 5.445 0 0 0-1.171 5.933 5.438 5.438 0 0 0 2.003 2.44 5.418 5.418 0 0 0 3.019.912ZM84.06 40.975c-.705-.913-1.626-1.493-2.783-1.738 1.02-.305 1.833-.845 2.44-1.63.627-.777.94-1.759.94-2.937 0-1.591-.577-2.858-1.733-3.791-1.137-.934-2.724-1.395-4.752-1.395h-8.985V49.49h9.298c2.087 0 3.704-.481 4.86-1.453 1.176-.983 1.764-2.318 1.764-3.988 0-1.159-.343-2.18-1.049-3.074Zm-10.014-7.582h3.185c.803 0 1.41.177 1.822.54.441.363.657.884.657 1.562 0 .677-.216 1.208-.657 1.571-.411.344-1.019.51-1.822.51h-3.184v-4.183Zm5.468 11.628c-.441.364-1.068.54-1.881.54h-3.587v-4.419h3.528c.823 0 1.45.196 1.91.6.47.402.706.952.706 1.65 0 .696-.225 1.246-.676 1.63Zm22.526-3.732c0-1.6-.343-2.995-1.029-4.194a6.82 6.82 0 0 0-2.783-2.77c-1.195-.638-2.557-.962-4.095-.962-1.539 0-2.97.334-4.184.992a7.176 7.176 0 0 0-2.842 2.858c-.666 1.228-.99 2.672-.99 4.332 0 1.66.334 3.093 1.02 4.33a7.09 7.09 0 0 0 2.841 2.85c1.215.667 2.597 1 4.155 1 1.293 0 2.459-.235 3.498-.716a7.084 7.084 0 0 0 2.586-1.964 6.963 6.963 0 0 0 1.45-2.82h-5.173c-.47 1.022-1.323 1.533-2.528 1.533-.823 0-1.509-.255-2.077-.766-.549-.53-.862-1.296-.94-2.279h11.002c.058-.472.087-.948.089-1.424Zm-11.062-1.286c.127-.874.47-1.552 1.019-2.023.568-.472 1.264-.717 2.077-.717s1.567.255 2.136.746c.568.491.852 1.159.852 1.994H90.98Zm23.691-6.404v2.25c-.45-.737-1.107-1.336-1.959-1.798-.833-.452-1.813-.678-2.93-.678-1.313 0-2.498.334-3.557.992-1.058.668-1.9 1.62-2.527 2.858-.608 1.228-.912 2.662-.912 4.302 0 1.64.304 3.074.912 4.331.627 1.238 1.469 2.19 2.527 2.878 1.059.668 2.234 1.002 3.528 1.002 1.117 0 2.097-.236 2.929-.688.853-.452 1.519-1.05 1.989-1.797V49.5h4.86V33.6h-4.86Zm-1.019 10.833c-.666.697-1.479 1.051-2.449 1.051-.97 0-1.793-.353-2.469-1.05-.666-.728-1-1.69-1-2.908s.334-2.17 1-2.848c.676-.707 1.499-1.06 2.469-1.06a3.229 3.229 0 0 1 2.449 1.06c.676.697 1.019 1.66 1.019 2.877 0 1.218-.343 2.171-1.019 2.878Zm7.574-2.887c0-1.65.333-3.094 1-4.332.686-1.237 1.616-2.19 2.812-2.848 1.215-.668 2.596-1.002 4.154-1.002 1.989 0 3.645.52 4.978 1.572 1.342 1.04 2.224 2.514 2.645 4.42h-5.173c-.441-1.218-1.284-1.827-2.528-1.827-.892 0-1.607.353-2.136 1.05-.529.688-.794 1.67-.794 2.967 0 1.296.265 2.288.794 2.995.529.688 1.244 1.022 2.136 1.022 1.254 0 2.097-.61 2.528-1.827h5.173c-.421 1.866-1.303 3.33-2.645 4.39-1.343 1.06-3.008 1.6-4.978 1.6-1.558 0-2.939-.333-4.154-1a7.077 7.077 0 0 1-2.812-2.85c-.667-1.237-1-2.68-1-4.33Zm31.785-4.302c-.725-1.257-1.704-2.22-2.959-2.888-1.254-.658-2.655-.992-4.203-.992-1.548 0-2.959.334-4.213.992-1.254.668-2.234 1.63-2.959 2.888-.715 1.227-1.078 2.661-1.078 4.302 0 1.64.353 3.093 1.048 4.33a7.429 7.429 0 0 0 2.93 2.85c1.254.667 2.655 1 4.213 1 1.558 0 2.959-.333 4.204-1 1.273-.669 2.273-1.612 2.988-2.85.745-1.256 1.107-2.7 1.107-4.33s-.362-3.075-1.078-4.302Zm-4.859 7.238c-.647.678-1.431 1.022-2.362 1.022a3.038 3.038 0 0 1-2.332-1.022c-.607-.687-.911-1.67-.911-2.936 0-1.267.314-2.27.941-2.937a3.056 3.056 0 0 1 2.361-1.031c.95 0 1.705.343 2.332 1.031.637.678.96 1.66.96 2.937 0 1.276-.333 2.249-.989 2.936Zm17.332-11.059c1.862 0 3.332.61 4.439 1.827 1.117 1.198 1.675 2.848 1.675 4.96V49.5h-4.83v-8.633c0-1.06-.274-1.896-.823-2.485-.549-.59-1.293-.884-2.214-.884-.922 0-1.666.295-2.215.884-.549.59-.823 1.414-.823 2.485V49.5h-4.86V33.6h4.86v2.11c.49-.706 1.156-1.256 1.989-1.65.833-.422 1.774-.628 2.812-.628l-.01-.01Zm15.099 16.304c-1.381 0-2.616-.236-3.694-.717-1.077-.471-1.93-1.12-2.557-1.935a5.136 5.136 0 0 1-1.048-2.79h4.801a1.847 1.847 0 0 0 .764 1.337c.451.343 1.019.51 1.675.51.608 0 1.068-.118 1.392-.343.343-.246.509-.56.509-.943 0-.452-.235-.786-.715-1.002-.47-.226-1.244-.472-2.303-.737-1.136-.265-2.087-.54-2.841-.825a5.108 5.108 0 0 1-1.96-1.394c-.548-.649-.823-1.513-.823-2.593 0-.914.245-1.739.735-2.485.51-.756 1.254-1.355 2.215-1.797.989-.442 2.155-.658 3.498-.658 1.989 0 3.556.49 4.693 1.483 1.156.992 1.822 2.298 1.989 3.938h-4.498c-.078-.55-.323-.992-.734-1.316-.402-.324-.931-.481-1.588-.481-.568 0-1.009.117-1.313.343-.303.207-.45.501-.45.884 0 .452.235.796.715 1.022.49.226 1.254.452 2.273.687 1.176.305 2.136.61 2.871.914.735.284 1.381.756 1.93 1.424.568.648.862 1.522.882 2.622 0 .933-.265 1.768-.794 2.505-.509.726-1.264 1.296-2.243 1.709-.97.422-2.097.628-3.381.628v.01Z"/></svg>