<svg xmlns="http://www.w3.org/2000/svg" fill="none" viewBox="0 0 210 80"><path fill="#1E3239" d="M152.89 79.526a8.457 8.457 0 0 1-1.002.28c-.581.13-1.227.183-1.916.183-2.111 0-3.747-.56-4.673-1.68-.937-1.12-1.4-2.799-1.4-5.07l.032-19.532 3.5-.022v6.191h5.469v3.349h-5.469v9.593c0 1.519.28 2.574.84 3.166.559.592 1.388.894 2.476.894.549 0 1.023-.043 1.432-.151.226-.065.474-.13.711-.205v3.004Zm-117.707-9.97c0-5.836 3.822-10.477 10.197-10.477 6.374 0 10.12 4.609 10.12 10.477S51.787 80 45.348 80c-6.59 0-10.153-4.5-10.153-10.444h-.011Zm16.786 0c0-4.468-2.197-7.559-6.59-7.559-4.392 0-6.632 3.209-6.632 7.559s2.132 7.494 6.59 7.494c4.457 0 6.632-3.133 6.632-7.494Zm5.588 0c0-5.836 3.822-10.477 10.197-10.477 6.374 0 10.12 4.609 10.12 10.477S74.16 80 67.722 80c-6.59 0-10.153-4.5-10.153-10.444h-.01Zm16.786 0c0-4.468-2.196-7.559-6.59-7.559-4.392 0-6.632 3.209-6.632 7.559s2.132 7.494 6.59 7.494c4.457 0 6.632-3.133 6.632-7.494Zm23.58 0c0-5.836 3.823-10.477 10.197-10.477 6.374 0 10.121 4.609 10.121 10.477S114.526 80 108.087 80c-6.589 0-10.153-4.5-10.153-10.444h-.01Zm16.786 0c0-4.468-2.196-7.559-6.589-7.559-4.393 0-6.633 3.209-6.633 7.559s2.132 7.494 6.59 7.494c4.468 0 6.632-3.133 6.632-7.494Zm25.292 9.96h-3.596l-.011-5.276c-1.378 3.757-4.08 5.717-7.526 5.717-5.287.01-7.666-3.51-7.677-8.721l-.032-11.338h3.639l.032 10.38c.011 3.897 1.336 6.632 5.416 6.621 3.564-.01 6.148-2.907 6.127-8.226l-.033-8.797h3.597l.064 19.618v.022Z"/><path fill="#1E3239" d="m89.643 69.642 9.239-9.755h-4.663s-8.161 8.98-9.733 10.649l-.119-16.7H80.75v25.69h3.617v-2.12c0-2.79 1.659-3.802 2.93-5.234a221.03 221.03 0 0 0 2.303 2.67l4.103 4.684h4.866l-8.926-9.884Zm-66.82-15.87H19V79.58h15.537v-3.532H22.822V53.76v.011Z"/><path fill="#00C55F" d="M164.001 30.051c-.01-.204-.021-.42-.021-.635V0h-.259c-.355 0-.699 0-1.044.022v15.074l1.303 15.052.021.27v.032c0-.13-.01-.259-.021-.388l.021-.01Zm.011 15.979-.14-2.132-1.163-.011v14.977c.334.01.668.022 1.012.022h.28V46.04l.011-.01Z"/><path fill="#0DC959" d="M164.001 30.159 161.396.097c-.431.032-.862.075-1.292.13l1.313 15.18 2.595 15.021-.021-.27h.01Zm1.303 15.87-.301-2.142-1.131-.01.14 2.142.818 12.834c.431-.021.862-.043 1.292-.075l-.818-12.76v.012Z"/><path fill="#1BCD52" d="M164.034 30.45v-.033L158.833.398c-.431.076-.851.151-1.27.248l2.95 17.023 3.564 13.233a5.755 5.755 0 0 1-.043-.453Zm2.476 14.837-.312-1.39v-.02h-1.195l.301 2.153 1.744 12.662c.431-.043.851-.108 1.282-.172l-1.82-13.233Z"/><path fill="#28D14C" d="m167.877 45.459-.506-1.561v-.022h-1.173v.022l.312 1.389 2.896 13.05c.431-.087.84-.173 1.271-.27l-2.8-12.608Zm-3.8-14.557-3.564-13.233-4.479-16.646c-.42.108-.829.237-1.239.366l5.093 18.918 4.318 11.435a9.62 9.62 0 0 1-.129-.84Z"/><path fill="#36D446" d="M164.195 31.73 152.976 2.014a30.36 30.36 0 0 0-1.195.496l7.795 20.63 4.856 9.636c-.086-.344-.161-.7-.226-1.055l-.011.01Zm5.168 14.138-.829-1.97v-.022h-1.163v.022l.506 1.56 3.974 12.297c.42-.118.829-.248 1.238-.388l-3.715-11.499h-.011Z"/><path fill="#43D83F" d="m164.421 32.797-14.74-29.244c-.377.205-.754.42-1.12.646l10.401 20.64 5.75 8.916a15.883 15.883 0 0 1-.291-.958Zm6.31 12.963-1.023-1.862v-.022h-1.184v.022l.839 1.97 4.716 11.144c.41-.15.808-.312 1.196-.484L170.72 45.76h.011Z"/><path fill="#50DC39" d="M164.712 33.744 146.515 5.545c-.344.258-.689.506-1.033.786l14.675 22.73 5.201 6.19c-.248-.484-.452-.99-.646-1.517v.01Zm7.451 11.941-1.292-1.798v-.022h-1.174v.022l1.034 1.863 5.653 10.282c.387-.183.775-.377 1.162-.581l-5.372-9.777-.011.011Z"/><path fill="#5EE033" d="m173.896 45.868-1.852-1.981-.021-.022h-1.163v.022l1.303 1.798 6.546 9.098c.377-.215.732-.452 1.099-.678l-5.922-8.237h.01Zm-8.538-10.606-22.396-26.68c-.312.312-.603.613-.904.936l17.744 21.158 6.245 5.835a12.865 12.865 0 0 1-.7-1.238l.011-.01Z"/><path fill="#6BE42C" d="m176.028 46.267-2.821-2.38-.021-.022h-1.174l.022.022 1.852 1.981 7.009 7.483c.355-.258.7-.506 1.044-.786l-5.9-6.298h-.011Zm-9.97-9.766-26.121-24.399c-.259.356-.506.71-.754 1.077l21.868 20.414 6.051 4.318a15.042 15.042 0 0 1-1.044-1.421v.01Z"/><path fill="#79E826" d="m177.622 45.911-3.23-2.024-.033-.022h-1.163l.022.022 2.821 2.38 6.708 5.652c.334-.28.657-.57.98-.872l-6.105-5.147v.011Zm-10.52-7.99-29.868-21.329c-.194.388-.377.797-.549 1.195l25.4 18.132 6.331 3.338c-.474-.42-.905-.872-1.314-1.346v.01Z"/><path fill="#86EC20" d="m168.416 39.268-33.131-17.465c-.107.431-.215.862-.312 1.293l26.961 14.212 7.677 2.897c-.42-.28-.818-.603-1.195-.937Zm11.37 6.47-4.124-1.84-.043-.022h-1.26l.033.022 3.23 2.024 6.945 4.34c.312-.313.613-.625.915-.96l-5.696-3.552v-.011Z"/><path fill="#93F019" d="m182.499 45.534-5.803-1.658h-1.077l.043.022 4.124 1.84 6.331 2.833a16.5 16.5 0 0 0 .851-1.045l-4.469-1.992Zm-12.888-5.33-7.677-2.896-27.542-10.38c-.033.442-.065.894-.086 1.357l28.393 10.703.462.183 8.054 2.003c-.56-.28-1.098-.614-1.615-.97h.011Z"/><path fill="#A1F313" d="m184.502 44.76-5.847-.755-.796-.118-.14-.022h-1.012l10.724 3.069c.269-.366.538-.743.786-1.12l-3.704-1.055h-.011Zm-13.265-3.586-8.054-2.003-28.791-7.192c.043.452.086.915.15 1.367l27.952 6.977 10.315 1.518a13.895 13.895 0 0 1-1.594-.678l.022.01Z"/><path fill="#AEF70D" d="m172.82 41.841-37.728-5.556c.107.453.226.905.355 1.357l24.377 3.585 14.32.991a13.313 13.313 0 0 1-1.324-.377Zm6.665 2.057-.324-.022h-1.453l.14.022.797.118 5.846.754 4.049.517c.15-.237.301-.485.441-.722l-9.507-.657.011-.01Z"/><path fill="#BCFB06" d="M189.401 43.865h-10.229l.323.033 9.508.656s0-.01.01-.021c.097-.15.183-.312.27-.474.032-.064.064-.107.097-.172 0-.01.01-.022.01-.032l.011.01Zm-12.253-1.28a13.18 13.18 0 0 1-3.004-.356l-38.051-2.627c.161.452.334.893.527 1.335l23.936 1.647h16.592Z"/><path fill="#C8FF00" d="M160.567 42.584h-23.171c.215.452.441.883.689 1.303l51.327-.032s.054-.097.086-.151c.075-.14.151-.27.226-.41.129-.247.258-.484.377-.731h-29.534v.021Z"/></svg>