<svg xmlns="http://www.w3.org/2000/svg" fill="none" viewBox="0 0 210 80"><path fill="#000" d="M27.705 51.731V32.058H20V29.28h18.572v2.778h-7.687v19.673h-3.18Zm22.067-22.45h3.215v22.45h-3.215v-22.45Z"/><path fill="#000" d="M52.655 38.924H66.16v2.795H52.655v-2.795Z"/><path fill="#000" d="M65.88 29.28h3.216v22.451H65.88v-22.45Zm14.24 22.451 10.169-22.45h3.18l10.203 22.45H100.3l-9.085-20.669h1.293l-9.086 20.67H80.12Z"/><path fill="#000" d="m84.453 46.122.874-2.568h12.632l.926 2.568H84.453Zm33.581 5.609V32.058h-7.688v-2.779h18.573v2.779h-7.705V51.73h-3.18Zm31.798.262c-1.712 0-3.284-.28-4.734-.856a11.098 11.098 0 0 1-6.238-6.045c-.594-1.38-.891-2.918-.891-4.596 0-1.677.297-3.197.891-4.595a11.172 11.172 0 0 1 6.273-6.045c1.45-.577 3.022-.856 4.734-.856 1.713 0 3.338.297 4.805.874 1.468.594 2.708 1.45 3.739 2.62l-2.079 2.027c-.856-.891-1.817-1.572-2.883-2.01a8.99 8.99 0 0 0-3.424-.663c-1.206 0-2.429.21-3.512.646a8.725 8.725 0 0 0-2.813 1.8 8.355 8.355 0 0 0-1.852 2.743 8.946 8.946 0 0 0-.664 3.442c0 1.24.21 2.394.664 3.442a7.85 7.85 0 0 0 1.852 2.743c.786.769 1.73 1.363 2.813 1.8 1.083.436 2.254.646 3.512.646s2.358-.21 3.424-.664c1.066-.437 2.027-1.118 2.883-2.044l2.079 2.027a10.18 10.18 0 0 1-3.739 2.638c-1.467.594-3.075.89-4.822.89l-.018.036Zm20.862-22.714h3.215v22.452h-3.215V29.279Z"/><path fill="#000" d="M173.577 38.924h13.505v2.795h-13.505v-2.795Z"/><path fill="#000" d="M186.785 29.28H190v22.451h-3.215v-22.45Z"/></svg>