<svg xmlns="http://www.w3.org/2000/svg" fill="none" viewBox="0 0 210 80"><path fill="#0A0A0A" d="M149.352 51.347c-5.454 0-9.872-4.422-9.872-9.871 0-5.45 4.422-9.871 9.872-9.871 5.449 0 9.871 4.42 9.871 9.87a9.883 9.883 0 0 1-9.871 9.872Zm0-16.452a6.58 6.58 0 0 0-6.079 4.064 6.578 6.578 0 0 0 1.427 7.171 6.58 6.58 0 0 0 11.236-4.651 6.588 6.588 0 0 0-6.581-6.58l-.003-.004Zm-15.77-2.28h3.269v17.93h-3.269v-17.93Zm1.629-9.055a2.525 2.525 0 0 0-2.513 2.535 2.525 2.525 0 0 0 5.051-.018v-.007a2.533 2.533 0 0 0-2.531-2.524m-14.554 8.059a9.833 9.833 0 0 0-6.588 2.53V21.861h-3.269v19.23a9.882 9.882 0 0 0 6.089 9.507 9.874 9.874 0 0 0 12.897-12.9 9.87 9.87 0 0 0-9.122-6.09l-.007-.003Zm0 16.451a6.583 6.583 0 0 1-6.581-6.58 6.583 6.583 0 0 1 6.581-6.581 6.583 6.583 0 0 1 6.581 6.58 6.587 6.587 0 0 1-6.581 6.581Z"/><path fill="#0869E9" fill-rule="evenodd" d="M97.232 53.538a6.736 6.736 0 0 0-6.698 6.761 6.734 6.734 0 0 0 13.466-.05v-.024a6.74 6.74 0 0 0-6.75-6.726h-.015M73.612 13c13.042-.01 23.627 10.56 23.638 23.605.01 13.049-10.56 23.634-23.606 23.645h-.01C60.596 60.241 50.02 49.681 50 36.643 49.979 23.603 60.56 13.011 73.605 13M88.39 36.623c0 8.154-6.609 14.766-14.766 14.766S58.857 44.78 58.857 36.623s6.609-14.766 14.766-14.766 14.766 6.609 14.766 14.766Z" clip-rule="evenodd"/></svg>