<svg xmlns="http://www.w3.org/2000/svg" fill="none" viewBox="0 0 210 80"><path fill="#000" d="M20 30.438h12.742v2.183H22.21v5.688h9.35v2.183h-9.35v8.386H20v-18.44Zm13.979 9.293c0-5.465 3.593-9.731 9.102-9.731 5.51 0 9.033 4.289 9.033 9.73 0 5.443-3.74 9.609-9.033 9.609-5.293 0-9.102-4.074-9.102-9.608Zm15.771-.023c0-4.266-2.612-7.502-6.669-7.502-4.056 0-6.692 3.236-6.692 7.502s2.829 7.448 6.692 7.448c3.864 0 6.669-3.067 6.669-7.448Zm5.07 2.206V30.438h2.232v11.468c0 3.428 1.747 5.22 4.9 5.22 3.152 0 5.022-1.761 5.022-5.197V30.44h2.233v11.498c0 4.78-2.75 7.402-7.256 7.402-4.505 0-7.132-2.575-7.132-7.425Zm17.926-11.476h7.681c3.57 0 5.927 2.23 5.927 5.296 0 2.083-1.105 3.774-3.168 4.612 2.364 1.368 1.553 4.512 3.64 8.532h-2.512c-1.453-2.744-1.136-7.94-4.482-7.94h-4.868v7.94h-2.21v-18.44h-.008Zm7.627 8.309c2.195 0 3.71-1.276 3.71-3.113s-1.454-3.013-3.71-3.013h-5.409v6.126h5.41Zm8.369 4.85 2.218-.438c.44 2.621 2.117 3.974 4.899 3.974 2.781 0 4.551-1.276 4.551-3.09 0-1.591-1.453-2.698-4.992-3.72-4.304-1.23-6.15-3.044-6.15-5.588 0-2.913 2.41-4.727 6.274-4.727s6.027 1.721 6.792 5.003l-2.287.492c-.495-2.206-1.97-3.305-4.551-3.305-2.411 0-3.91.93-3.91 2.53 0 1.467 1.251 2.474 4.767 3.558 4.629 1.399 6.344 3.205 6.344 5.78 0 3.213-2.635 5.296-6.722 5.296-4.088 0-6.607-2.014-7.225-5.742l-.008-.023Zm15.887-3.866c0-5.465 3.593-9.731 9.103-9.731 5.509 0 9.033 4.289 9.033 9.73 0 2.699-.889 5.05-2.411 6.742.742.73 1.453 1.468 2.141 2.229l-1.577 1.545a194.288 194.288 0 0 0-2.241-2.33c-1.398.908-3.075 1.423-4.945 1.423-5.317 0-9.103-4.066-9.103-9.608Zm12.379 6.572c-.742-.692-1.453-1.368-2.194-2.014l1.553-1.545c.788.692 1.576 1.399 2.333 2.106 1.059-1.299 1.7-3.067 1.7-5.15 0-4.266-2.611-7.502-6.668-7.502s-6.692 3.236-6.692 7.502 2.828 7.448 6.692 7.448c1.213 0 2.318-.292 3.276-.853v.008Zm8.57-4.39V30.439h2.233v11.468c0 3.428 1.746 5.22 4.899 5.22s5.023-1.761 5.023-5.197V30.44h2.233v11.498c0 4.78-2.751 7.402-7.256 7.402-4.505 0-7.132-2.575-7.132-7.425Zm22.695-11.475h2.612l7.186 18.432h-2.365l-2.071-5.319h-8.144l-2.04 5.319h-2.411l7.233-18.432Zm4.474 10.96-3.153-8.285-3.23 8.286h6.383Zm7.294-10.96h7.681c3.57 0 5.927 2.23 5.927 5.296 0 2.083-1.105 3.774-3.168 4.612 2.364 1.368 1.553 4.512 3.639 8.532h-2.511c-1.453-2.744-1.136-7.94-4.482-7.94h-4.868v7.94h-2.21v-18.44h-.008Zm7.627 8.309c2.195 0 3.709-1.276 3.709-3.113s-1.452-3.013-3.709-3.013h-5.409v6.126h5.409Zm9.211-8.309h12.897v2.183h-10.679v5.688h9.868v2.183h-9.868v6.172H190v2.206h-13.121V30.438Z"/></svg>