<svg xmlns="http://www.w3.org/2000/svg" fill="none" viewBox="0 0 210 80"><path fill="#FFC63B" d="M62.968 53.784c.567-.507 1.189-.965 1.692-1.53 2.586-2.901 5.044-5.9 6.754-9.429.935-1.93 1.81-3.894 2.742-5.827.344-.715.093-1.276-.386-1.889.79-.238 1.514-.458 2.244-.672a441.2 441.2 0 0 1 3.267-.947c.877-.25.947-.196.884.709.678-.477 1.333-.936 1.987-1.4a8.066 8.066 0 0 1 3.204-1.36c1.61-.305 2.12-.067 2.784 1.387.374-.38.75-.739 1.098-1.122 1.647-1.819 3.577-3.164 6.023-3.668 2.35-.483 3.744 1.005 2.996 3.306-.592 1.822-1.346 3.593-2.027 5.387-.61 1.599-1.234 3.191-1.816 4.8-.16.443-.2.928-.293 1.396l.202.136c.44-.368.932-.694 1.313-1.117 1.954-2.16 3.562-4.57 5.073-7.052.926-1.52 1.858-3.043 2.896-4.488 1.267-1.768 2.92-3.04 5.121-3.475.142-.027.332-.142.384-.265.199-.48.349-.98.555-1.58-.39 0-.709.008-1.029 0-2.404-.073-4.651-.71-6.687-1.992-1.159-.73-1.478-2.485-.631-3.74.561-.832 1.285-1.566 1.991-2.286.199-.203.63-.326.896-.257.175.046.308.489.35.77.323 2.063 1.559 3.369 3.457 4.035.877.308 1.837.398 2.763.54.156.024.407-.154.518-.308.794-1.085 1.551-2.198 2.338-3.29a24.82 24.82 0 0 1 6.31-6.154c2.314-1.553 4.832-2.473 7.665-2.398 2.304.064 4.307 1.55 4.778 3.62.319 1.4-.055 2.672-.851 3.822-1.083 1.571-2.543 2.735-4.184 3.667-2.796 1.59-5.857 2.423-8.985 3.041-.857.169-1.72.296-2.585.425-.386.058-.613.248-.785.598-1.073 2.177-1.598 4.494-1.846 6.892-.187 1.804-.168 3.592.314 5.354.015.051.021.102.039.15 1.141 3.255 3.336 4.827 6.992 3.862 1.62-.426 3.041-1.222 4.317-2.287 2.573-2.141 4.886-4.521 6.231-7.646 1.436-3.333 2.766-6.711 4.139-10.072.434-1.064.86-2.135 1.279-3.21.389-.994.383-.998-.178-2.002.398-.075.763-.214 1.122-.202 1.134.036 2.268.118 3.399.205.646.051.803.386.519 1.089-.832 2.054-1.689 4.1-2.515 6.153-1.711 4.256-3.623 8.437-4.932 12.847-.145.492-.145 1.029-.175 1.547-.024.383.217.525.543.36.395-.203.832-.402 1.125-.719 1.701-1.86 3.052-3.948 3.921-6.328.751-2.051 2.109-3.592 3.924-4.766 1.183-.763 2.486-.998 3.861-.862a2.55 2.55 0 0 1 1.858 1.061c.209.284.441.38.785.398.905.049 1.81.13 2.714.227.788.084.933.322.67 1.083-.878 2.557-1.801 5.1-2.63 7.673-.263.818-.305 1.707-.416 2.567-.022.16.072.425.193.489.108.057.383-.048.488-.166.709-.79 1.514-1.526 2.063-2.42 1.307-2.12 2.492-4.319 3.72-6.487.316-.561.6-1.144.911-1.71.811-1.482 2.754-1.617 3.803-.284.552.7.812 1.372.314 2.25-.223.395-.29.947-.256 1.415.159 2.195.38 4.385.576 6.575.039.45.06.9.093 1.44.148-.164.25-.266.341-.378 1.719-2.066 2.769-4.515 3.93-6.901.329-.676.631-1.36.966-2.033.431-.863 1.342-1.186 2.211-.806 1.158.507 1.728 1.668 1.357 2.875-.413 1.345-.272 2.696-.127 4.054.175 1.65.359 3.297.54 4.947.012.1.036.199.073.386.651-.48 1.224-.962 1.858-1.346.621-.374 1.273-.772 1.963-.932 1.288-.298 2.377.175 3.167 1.25.839 1.142 1.319 2.424 1.303 3.851-.009.854 0 1.725-.165 2.555-.471 2.359-2.202 3.843-4.73 4.25-2.003.323-3.921-.072-5.849-.531-4.518-1.08-9.055-2.096-13.682-2.567-4.274-.434-8.56-.853-12.868-.452-5.728.534-11.396 1.435-16.976 2.853-6.367 1.617-12.533 3.87-18.743 5.982-9.02 3.067-18.03 6.159-27.09 9.09-3.677 1.192-7.45 2.148-11.24 2.927-4.068.835-8.204 1.336-12.384 1.267-.19-.003-.396 0-.568-.067-.175-.066-.32-.217-.48-.329.137-.162.24-.377.411-.48.703-.418 1.49-.717 2.124-1.218a13.498 13.498 0 0 0 2.153-2.117c1.334-1.662 2.534-3.43 3.88-5.083.95-1.17 2.063-2.172 3.643-2.488 4.862-.975 9.643-2.263 14.379-3.723 9.704-2.992 19.407-5.98 29.108-8.976.295-.09.573-.235.857-.353-.025-.081-.025-.12-.043-.136-2.087-1.433-2.941-3.565-3.357-5.939-.145-.824-.205-1.662-.314-2.495-.063-.482-.184-.959-.208-1.441-.027-.552.006-1.11.042-1.662.037-.516.109-1.032.172-1.587-.841.06-1.559.314-2.126.808-.612.534-1.213 1.123-1.668 1.79-1.171 1.715-2.247 3.495-3.385 5.236-1.1 1.686-2.31 3.29-3.779 4.68-1.318 1.25-2.802 2.203-4.66 2.417-1.517.175-2.619-.727-2.757-2.256-.145-1.59.25-3.086.814-4.549.754-1.955 1.541-3.894 2.287-5.849.229-.6.395-1.23.537-1.858.084-.374.063-.772.087-1.161-.054-.027-.109-.057-.166-.084-.561.43-1.152.83-1.674 1.303-2.28 2.048-3.837 4.597-5.04 7.384-.98 2.274-1.955 4.554-2.941 6.826-.537 1.233-1.2 2.428-.9 3.827-1.682.498-3.293 1.017-4.93 1.427-.39.097-.87-.166-1.385-.28 2.44-5.786 5.215-11.254 7.272-17.121-.841.18-1.436.636-1.99 1.158a22.789 22.789 0 0 0-4.368 5.599c-1.593 2.877-2.848 5.902-3.949 9-.35.984-.775 1.949-1.255 2.878-.153.295-.558.522-.898.651-2.154.824-4.362 1.52-6.468 2.444-1.56.684-3.037 1.62-4.102 2.995-.558.72-.83 1.659-1.354 2.413-.96 1.387-1.876 2.844-3.053 4.039-1.81 1.837-4.072 2.512-6.636 1.755-1.496-.443-2.564-1.74-2.675-3.284-.051-.73-.067-1.475.024-2.196.108-.884.742-1.475 1.405-2.01.809-.648 1.813-.777 2.776-1.013 1.746-.422 3.498-.823 5.23-1.294.344-.093.715-.41.893-.727.395-.709.675-1.484 1.064-2.373-.757.358-1.369.711-2.024.95-1.483.537-3.11.081-3.704-1.291-.552-1.28-.639-2.595-.135-3.88 1.252-3.2 2.549-6.382 3.858-9.558.208-.507.22-.956.075-1.46-.15-.528-.06-.655.486-.721 1.351-.166 2.705-.323 4.06-.47.67-.076.874.198.609.84-.293.71-.627 1.404-.944 2.103-1.5 3.306-3.077 6.576-4.202 10.039-.063.199-.142.395-.187.6-.157.688.066.974.745.77.486-.149.971-.48 1.318-.86 2.13-2.323 3.78-4.971 5.1-7.825.58-1.252 1.111-2.525 1.723-3.761.36-.721.407-1.427.202-2.178-.036-.13-.05-.266-.084-.444 1.463-.304 2.893-.603 4.325-.895.393-.082.785-.175 1.183-.227.422-.054.546.112.428.52-.033.117-.093.225-.145.337-2.488 5.33-4.977 10.657-7.462 15.99-.094.199-.16.41-.238.618.042.033.084.067.126.103l.012.009Zm63.208-11.559.051.118c.815-.06 1.632-.133 2.45-.184 1.9-.121 3.8-.332 5.701-.326 5.592.024 11.175.353 16.74.896 4.229.413 8.404 1.182 12.479 2.383 2.609.766 5.155 1.743 7.737 2.597 1.152.38 2.338.555 3.562.38 1.635-.232 2.646-1.04 2.956-2.47.26-1.177-.024-2.26-.709-3.228-.476-.676-1.275-.947-2.042-.633a8.395 8.395 0 0 0-1.71.983c-.473.347-.853.823-1.3 1.215-2.208 1.955-5.263 1.617-6.971-.766-.232-.325-.434-.675-.639-1.02-.22-.37-.422-.75-.664-1.182-1.417 1.937-3.342 2.498-5.568 2.305-2.443-.211-3.638-1.885-4.567-3.949-.22.254-.383.48-.588.664-.528.477-1.022 1.017-1.623 1.384-1.565.957-4.011.396-4.678-1.538-.13-.374-.323-.727-.546-1.215-.658.693-1.21 1.381-1.864 1.945-1.041.899-2.259 1.14-3.575.66-.923-.337-1.514-1.034-1.93-1.897-.214-.443-.425-.892-.661-1.387-.22.317-.383.564-.558.802-.874 1.18-1.957 2.088-3.384 2.525-1.943.597-3.761-.31-4.467-2.22-.061-.166-.136-.329-.22-.54l-3.418 3.692.006.006Zm-9.432-20.544c.142.009.193.02.241.012 3.56-.628 6.814-1.925 9.481-4.443.947-.896 1.574-2 1.819-3.294.174-.92-.178-1.39-1.114-1.264-.829.111-1.707.304-2.434.703-3.49 1.912-5.879 4.92-7.996 8.286h.003Zm31.503 8.011-.121-.036c-.009-.157-.003-.317-.027-.47-.097-.61-.19-1.256-.863-1.503-.648-.241-1.215.067-1.662.5a9 9 0 0 0-1.155 1.413c-1.246 1.867-1.876 3.954-2.096 6.171-.052.513-.136 1.059-.015 1.544.274 1.123.941 1.282 1.755.474 1.56-1.553 2.654-3.405 3.412-5.454.316-.856.518-1.758.775-2.639h-.003Zm9.58 2.787c-.112.136-.184.205-.236.287-.663 1.062-1.375 2.102-1.963 3.203-.238.444-.32 1.038-.281 1.547.088 1.162.745 1.973 1.59 2.166.618.142.811.006.965-.6.555-2.18.187-4.35-.075-6.603Zm9.637 2.06c-.142.23-.241.368-.32.516-.5.938-1.001 1.876-1.493 2.82-.573 1.104-.178 2.824.821 3.593.509.395 1.04.265 1.233-.356.133-.425.22-.89.199-1.333-.069-1.481-.193-2.96-.304-4.437-.018-.236-.079-.468-.139-.803h.003ZM54.616 60.89c-.027-.045-.057-.09-.084-.136-1.388.447-2.788.866-4.157 1.36-.362.134-.72.453-.938.782a.865.865 0 0 0 .739 1.345c.458 0 .986-.027 1.363-.25a8.527 8.527 0 0 0 3.077-3.104v.003ZM41.637 54.143c-.383 0-.77.039-1.147-.006-1.089-.13-2.196-.203-3.251-.468-1.913-.476-3.023-1.87-3.677-3.64-.727-1.961-.67-4.012-.573-6.06.126-2.7 1.221-5.104 2.29-7.514.608-1.379.614-1.382-.674-2.133-1.227-.718-2.283-1.617-2.986-2.871-.784-1.397-.856-2.809-.027-4.23.35-.603.872-.907 1.535-.94.661-.037 1.334-.058 1.991.015 1.044.111 1.873.651 2.459 1.523.328.492.59 1.029.898 1.538.206.341.432.67.691 1.068l.459-.5c2.85-3.135 6.174-5.554 10.298-6.73 1.752-.5 3.544-.845 5.375-.486a6.484 6.484 0 0 1 1.764.628c.887.47 1.321 1.221 1.409 2.28.187 2.235-.673 4.057-1.997 5.734-.19.241-.458.428-.7.628-2.274 1.867-4.717 3.447-7.646 4.056-1.225.257-2.486.353-3.737.438-.498.033-.785.214-.972.627-.334.748-.715 1.481-.977 2.256-.941 2.782-1.566 5.62-1.222 8.585.058.5.28.983.48 1.656.805-.694 1.547-1.2 2.12-1.858.987-1.131 1.88-2.34 2.782-3.538.693-.92 1.345-1.873 2.012-2.812.413-.585.72-1.194.476-1.951-.09-.284 0-.576.338-.58 1.792-.017 3.586-.008 5.426-.008-.039.093-.063.187-.114.262-2.223 3.237-4.003 6.712-5.553 10.31-.691 1.602-1.328 3.225-2.06 4.805-.821 1.77-1.687 3.523-2.595 5.252a86.139 86.139 0 0 1-2.642 4.693c-.88 1.445-2.23 2.407-3.74 3.095-1.25.567-2.462.332-3.42-.655-1.298-1.33-1.998-2.935-1.868-4.832.015-.214.12-.422.196-.67 1.49.857 2.706.112 3.891-.59 1.017-.601 1.653-1.59 2.305-2.54.832-1.222 1.647-2.456 2.47-3.683-.03-.052-.057-.103-.087-.154Zm-.203-20.316.028.209c.953 0 1.933.138 2.853-.034 1.379-.259 2.751-.645 4.066-1.14 2.021-.763 3.623-2.135 4.956-3.822.603-.766 1.01-1.628 1.173-2.593.133-.794-.235-1.482-.817-1.418-.947.102-1.93.166-2.811.488-4.223 1.533-7.031 4.712-9.447 8.314v-.004Z"/></svg>