<svg xmlns="http://www.w3.org/2000/svg" fill="none" viewBox="0 0 210 80"><path fill="#59A0D0" d="M181.686 54.89c-.027.135-.163.108-.271.108h-.893c-1.326 0-2.652-.027-3.978 0-.676 0-1.19-.217-1.623-.758-1.489-1.84-3.085-3.572-4.736-5.277-1.001-1.028-1.867-2.192-2.895-3.193-.406-.379-.758-.812-1.137-1.19-.081-.082-.135-.163-.135-.217h6.224c0 .162.108.298.351.595 2.544 2.923 5.25 5.683 7.848 8.551.352.406.758.785 1.136 1.164.055.027.136.108.109.216Z"/><path fill="#D5C800" d="M182.2 34.486c-1.488 1.272-2.841 2.679-4.194 4.059-1.732 1.759-3.518 3.463-5.277 5.168l-.054.054c-.271.27-.406.406-.406.569h-6.224c-.027-.109.027-.19.108-.298.271-.298.596-.541.893-.785 1.001-.812 1.867-1.786 2.787-2.652 1.678-1.57 3.275-3.22 4.898-4.816.352-.352.731-.677 1.083-1.002a2.41 2.41 0 0 1 1.569-.65c1.056 0 2.111-.026 3.193-.053.515 0 1.002-.027 1.462-.027.135 0 .297-.027.351.135.028.135-.108.216-.189.298Z"/><path fill="#686A6B" d="m22 29.318 2.652-.352 1.759-.27c.406-.055.487 0 .514.405.054.758.027 1.516.027 2.273l-.054 2.76c0 .38.162.515.541.515 2.165-.055 4.357-.055 6.522 0 .65 0 .758.162.812.784.027.65.027 1.3 0 1.949-.027.676-.082.758-.758.785l-5.033.027c-.487 0-.974-.028-1.462-.028-.405 0-.514.082-.54.488-.028.703-.082 1.434-.082 2.137l.108 7.199c.027.568.136 1.082.406 1.596.568 1.11 1.543 1.489 2.706 1.57 1.34.082 2.683-.055 3.978-.406.65-.163.73-.136.92.487l.541 2.138c.055.243-.054.406-.27.487-.65.27-1.299.487-1.976.65-1.596.378-3.22.351-4.843.243-1.922-.136-3.654-.785-4.898-2.355-.433-.514-.677-1.136-.893-1.758-.19-.542-.298-1.11-.406-1.678-.027-.163-.055-.352-.19-.487L22 29.317Zm101.532 15.018.027 8.93v.406c-.027.677-.054.731-.73.731h-3.031c-1.299 0-1.137.054-1.137-1.136l.027-9.526c0-.947 0-1.894-.216-2.841-.244-1.11-.704-2.084-1.813-2.625-.406-.19-.839-.27-1.272-.325-1.57-.19-3.085.027-4.519.73-.379.19-.514.407-.406.758.487 1.651.46 3.329.487 5.007l.027 9.417c0 .46-.081.541-.541.541h-3.87c-.406 0-.514-.108-.514-.541V42.55c-.027-1.136-.217-2.219-.812-3.247-.352-.595-.839-.947-1.488-1.136-1.11-.325-2.219-.325-3.356-.244-.487.027-.947.108-1.434.19-.487.08-.541.135-.541.622l-.027 3.68.054 11.122c0 .785-.054.839-.839.839h-3.464c-.541 0-.595-.054-.595-.595l.054-14.1.027-3.544c0-.73.19-.92.893-1.055 1.137-.217 2.273-.433 3.41-.569 1.813-.216 3.599-.27 5.412-.243 1.732.027 3.274.595 4.654 1.623.325.217.569.217.893.055 1.597-.785 3.221-1.489 5.007-1.651 1.894-.162 3.761-.081 5.547.65 1.624.676 2.733 1.866 3.329 3.517.405 1.137.595 2.3.676 3.518.027.785.081 1.543.081 2.354Zm-56.8-8.66.027-10.147c0-.487-.082-.568-.542-.487l-3.193.433a2.997 2.997 0 0 0-.703.19c-.271.08-.406.243-.406.54l-.027 1.164c.08 2.382.054 4.763.054 7.144 0 .163 0 .298-.027.46-.054.352-.19.433-.541.325a4.66 4.66 0 0 1-.65-.27c-2.273-.975-4.627-1.002-6.955-.406-2.841.757-4.816 2.57-5.845 5.358-1.001 2.706-1.11 5.439-.243 8.2.487 1.596 1.326 3.003 2.625 4.058 1.948 1.624 4.221 2.436 6.765 2.571 1.813.081 3.626 0 5.412-.244 1.218-.162 2.435-.351 3.626-.649.596-.135.677-.27.677-.812l-.054-17.427Zm-4.79 14.614c0 .46-.054.487-.487.568-1.489.298-3.004.379-4.52.162-2.408-.351-4.086-1.948-4.627-4.33a13.035 13.035 0 0 1-.27-2.3c0-1.271.189-2.462.649-3.599.677-1.65 1.948-2.57 3.707-2.84 1.867-.299 3.6.053 5.223.946.244.136.325.298.325.569V50.29Zm27.223-10.797c-.758-2.111-2.165-3.573-4.222-4.465-1.325-.596-2.706-.812-4.14-.84-2.922-.08-5.493.866-7.604 2.896-1.488 1.434-2.246 3.274-2.679 5.25-.325 1.488-.27 3.004 0 4.52.325 1.812 1.028 3.463 2.273 4.816 1.732 1.894 3.978 2.787 6.468 3.058 1.948.216 3.897.19 5.845-.163a.837.837 0 0 1 .243-.027 12.205 12.205 0 0 0 2.571-.595c.27-.081.514-.216.487-.541-.08-.893-.19-1.76-.46-2.625-.135-.406-.243-.46-.622-.325a9.559 9.559 0 0 1-1.516.379c-1.542.27-3.084.379-4.654.298-1.38-.081-2.652-.433-3.788-1.218-1.272-.893-1.868-2.165-1.976-3.68-.027-.38.108-.487.487-.487.162 0 .298.027.46.027h12.935c.487 0 .596-.109.623-.596.08-1.921-.082-3.815-.731-5.682ZM84.7 42.658h-8.362c-.162 0-.325 0-.487.027-.352.027-.514-.108-.433-.46.27-1.38.704-2.68 1.867-3.627.758-.622 1.651-.838 2.598-.892a8.009 8.009 0 0 1 1.597.054c1.65.162 2.652 1.082 3.247 2.516.27.596.379 1.218.433 1.867 0 .352-.108.488-.46.515Zm59.29.812c0-.92-.027-1.84-.108-2.76-.135-1.49-.514-2.923-1.542-4.114-.758-.866-1.678-1.38-2.707-1.786-1.298-.514-2.679-.595-4.032-.622a29.69 29.69 0 0 0-5.141.379c-.46.08-.893.189-1.353.324-.379.108-.514.244-.46.541.135.84.189 1.651.352 2.49.081.325.189.406.487.325 1.407-.325 2.868-.46 4.329-.487 1.11-.027 2.219-.055 3.302.378.866.352 1.542.866 1.867 1.786.271.812.352 1.624.325 2.49 0 .244-.163.352-.379.325-.217-.027-.433-.081-.677-.108-1.786-.217-3.572-.298-5.358-.054-1.407.216-2.787.514-4.005 1.298-1.136.758-2.002 1.705-2.381 3.058-.217.84-.189 1.678-.108 2.544.162 1.597.893 2.841 2.192 3.761 1.461 1.029 3.139 1.408 4.871 1.489 1.948.108 3.896.108 5.845-.136 1.353-.162 2.733-.27 4.059-.568.46-.108.541-.19.568-.65.027-.46.027-.892.027-1.352.054-2.869.027-5.71.027-8.551Zm-5.06 7.712a9.162 9.162 0 0 1-1.732.162c-1.082 0-2.165.081-3.22-.108-.623-.108-1.272-.244-1.813-.623a1.964 1.964 0 0 1-.839-1.325c-.163-.812-.163-1.624.243-2.382.379-.676 1.029-1.001 1.732-1.217.65-.19 1.326-.325 2.03-.325 1.163 0 2.3-.027 3.464.19.433.08.541.189.541.595v4.6c0 .27-.163.406-.406.433ZM150.133 54.403h-2.057c-.351 0-.433-.081-.433-.433l.055-16.994c0-.27.027-.541.054-.812.054-.406.27-.677.676-.785 3.302-.974 6.657-1.326 10.094-.974.649.081 1.326.19 1.948.406.244.081.352.217.298.487a32.028 32.028 0 0 1-.677 2.68c-.108.297-.243.378-.541.324-1.786-.352-3.572-.514-5.358-.325-.406.054-.812.135-1.218.19-.27.054-.378.216-.378.487-.027.46-.027.947-.027 1.407l.027 13.503c0 .568-.298.866-.893.866-.515-.027-1.029-.027-1.57-.027ZM43.622 39.005l.027 14.803c0 .514-.081.595-.596.568-1.217 0-2.462 0-3.68-.027-.514 0-.568-.054-.568-.568l.027-17.671v-1.056c.027-.351.135-.487.541-.487h3.518c.622 0 .73.109.73.731v3.707Zm124.29-9.092v8.524c0 .623-.189 1.11-.676 1.543-1.272 1.136-2.409 2.381-3.6 3.599-.135.135-.243.352-.433.27-.162-.08-.108-.324-.108-.514l.054-5.683-.027-9.93c0-.488.027-1.002.027-1.49 0-.297.163-.486.433-.595.244-.08.487-.162.731-.19l3.085-.432c.352-.054.433.027.433.433.081 1.488.081 2.977.081 4.465Zm-2.895 16.832 2.191 2.544c.433.487.677 1.028.677 1.677a35.17 35.17 0 0 1-.027 2.923c-.027.433-.081.487-.514.487h-3.87c-.298 0-.433-.108-.433-.433l.054-7.144v-1.57c0-.135-.054-.324.108-.378.136-.055.244.135.325.243a43.985 43.985 0 0 1 1.489 1.65ZM182.606 52.428h1.84v.406h-.703v2.137h-.46v-2.137h-.704l.027-.406Zm2.787.676v1.84h-.433V52.4h.46l.839 1.3.839-1.3h.433v2.544h-.406v-1.867l-.757 1.164h-.217l-.758-1.137Z"/></svg>