<svg xmlns="http://www.w3.org/2000/svg" fill="none" viewBox="0 0 210 80"><path fill="#000" d="M59.724 46.804v2.41h.057a7.342 7.342 0 0 1 2.242-2.13 6.084 6.084 0 0 1 3.027-.785c1.12 0 2.074.224 2.97.673.898.448 1.57 1.233 2.075 2.298.504-.785 1.233-1.457 2.074-2.074.897-.617 1.906-.897 3.139-.897.897 0 1.738.112 2.522.336.75.215 1.44.598 2.019 1.122a4.801 4.801 0 0 1 1.289 1.962c.336.84.448 1.793.448 2.97v11.94h-4.764V54.54l-.056-1.681c-.057-.505-.169-1.01-.393-1.402-.224-.392-.504-.729-.897-.953-.392-.224-.897-.336-1.57-.336-.672 0-1.233.112-1.625.392-.392.28-.729.617-.953 1.01-.224.448-.392.896-.448 1.457l-.112 1.625v9.922h-4.765v-9.978l-.056-1.57a4.21 4.21 0 0 0-.28-1.457c-.169-.448-.449-.784-.841-1.065-.393-.28-.953-.392-1.738-.392-.224 0-.505.056-.897.168a2.793 2.793 0 0 0-1.065.56c-.336.28-.617.73-.897 1.234-.224.56-.392 1.233-.392 2.13v10.37h-4.765V46.748l4.652.056Zm26.347 5.493c.056-1.177.336-2.13.84-2.859.505-.785 1.122-1.345 1.85-1.85a9.507 9.507 0 0 1 2.579-1.009c.953-.168 1.906-.28 2.859-.28.88 0 1.76.056 2.635.168.896.112 1.681.393 2.466.729.729.392 1.345.897 1.794 1.514.448.616.728 1.513.728 2.578v9.25l.113 2.298c.112.728.224 1.289.448 1.681h-4.82a4.667 4.667 0 0 1-.225-.84 4.353 4.353 0 0 1-.112-.898c-.785.785-1.626 1.346-2.69 1.682a9.947 9.947 0 0 1-3.14.505c-.84 0-1.57-.112-2.298-.337-.729-.224-1.346-.504-1.85-.953-.56-.448-.953-1.009-1.233-1.681a6.078 6.078 0 0 1-.449-2.355c0-1.009.168-1.85.505-2.522.307-.63.77-1.17 1.345-1.57.56-.392 1.177-.672 1.85-.897l2.13-.448 2.13-.28a9.06 9.06 0 0 0 1.85-.337c.56-.168.953-.336 1.29-.616.336-.28.448-.673.448-1.177 0-.505-.056-.953-.225-1.234-.168-.28-.392-.56-.672-.728a2.762 2.762 0 0 0-.953-.337l-1.177-.112c-.953 0-1.682.224-2.186.617-.505.392-.841 1.12-.953 2.074H86.07v.224Zm10.987 3.644c-.225.168-.449.336-.729.448-.28.112-.617.168-.953.28l-1.065.169-1.121.168a7.461 7.461 0 0 0-1.065.28c-.337.112-.673.28-.897.448-.28.169-.449.449-.617.73-.168.28-.224.672-.224 1.12 0 .449.056.785.224 1.121.168.28.393.561.617.73a2.4 2.4 0 0 0 .953.335c.336.057.729.113 1.12.113.954 0 1.683-.169 2.187-.505.505-.336.897-.729 1.121-1.177.225-.449.393-.897.449-1.345.056-.449.056-.841.056-1.122v-1.793h-.056ZM110.343 60.201c.224.392.504.673.841.953.336.28.728.392 1.177.56.448.113.897.169 1.345.169.337 0 .673-.056 1.065-.113.393-.056.729-.224 1.009-.392.281-.168.561-.392.729-.672.224-.28.28-.673.28-1.066 0-.728-.448-1.289-1.401-1.681-.953-.393-2.242-.729-3.98-1.121l-2.018-.56a7.163 7.163 0 0 1-1.738-.842c-.504-.336-.953-.785-1.233-1.345-.336-.56-.448-1.177-.448-1.962 0-1.177.224-2.074.672-2.803a5.156 5.156 0 0 1 1.738-1.738c.729-.448 1.513-.728 2.41-.897.897-.168 1.794-.28 2.747-.28.953 0 1.85.112 2.747.28a6.31 6.31 0 0 1 2.354.953c.673.449 1.289 1.01 1.738 1.738.448.729.729 1.626.841 2.747h-4.541c-.056-.953-.392-1.57-1.009-1.906-.616-.336-1.345-.505-2.186-.505-.28 0-.561 0-.897.057-.336.056-.616.112-.841.224-.28.112-.448.28-.672.504-.169.224-.281.505-.281.897 0 .449.169.785.449 1.065a3.7 3.7 0 0 0 1.233.673c.505.168 1.065.336 1.738.448.672.113 1.289.28 1.962.449l2.018.56c.672.225 1.233.56 1.737.897.497.385.915.86 1.234 1.402.336.56.448 1.233.448 2.074 0 1.177-.224 2.13-.673 2.97-.448.785-1.065 1.458-1.793 1.907-.729.504-1.57.84-2.523 1.009-.953.168-1.906.28-2.915.28-1.009 0-1.962-.112-2.915-.337a9.505 9.505 0 0 1-2.578-1.008 6.659 6.659 0 0 1-1.85-1.906c-.505-.785-.729-1.794-.785-2.971h4.541c-.112.504 0 .953.224 1.289ZM129.178 60.201c.224.392.504.673.841.953.336.28.728.392 1.177.56.448.113.897.169 1.345.169.336 0 .673-.056 1.065-.113.392-.056.729-.224 1.009-.392.28-.168.561-.392.729-.672.224-.28.28-.673.28-1.066 0-.728-.448-1.289-1.401-1.681-.953-.393-2.243-.729-3.98-1.121l-2.018-.56a7.145 7.145 0 0 1-1.738-.842c-.505-.336-.953-.785-1.233-1.345-.337-.56-.449-1.177-.449-1.962 0-1.177.225-2.074.673-2.803a5.156 5.156 0 0 1 1.738-1.738c.728-.448 1.513-.728 2.41-.897.897-.168 1.794-.28 2.747-.28.953 0 1.85.112 2.747.28a6.318 6.318 0 0 1 2.354.953c.673.449 1.289 1.01 1.738 1.738.448.729.728 1.626.84 2.747h-4.54c-.056-.953-.392-1.57-1.009-1.906-.617-.336-1.345-.505-2.186-.505-.28 0-.561 0-.897.057-.336.056-.617.112-.841.224-.28.112-.448.28-.673.504-.168.224-.28.505-.28.897 0 .449.168.785.449 1.065.336.28.728.505 1.233.673.504.168 1.065.336 1.738.448.672.113 1.289.28 1.961.449l2.018.56c.673.225 1.234.56 1.738.897.497.385.915.86 1.233 1.402.337.56.449 1.233.449 2.074 0 1.177-.224 2.13-.673 2.97-.448.785-1.065 1.458-1.794 1.907-.728.504-1.569.84-2.522 1.009-.953.168-1.906.28-2.915.28-1.009 0-1.962-.112-2.915-.337a9.492 9.492 0 0 1-2.578-1.008 6.659 6.659 0 0 1-1.85-1.906c-.505-.785-.729-1.794-.785-2.971h4.54c-.112.504 0 .953.225 1.289ZM144.145 44.057V40.02h4.764v4.036h-4.764Zm4.764 2.747v17.825h-4.764V46.804h4.764Zm8.857 17.825-5.942-17.825h4.989l3.644 12.164h.056l3.643-12.164h4.709l-5.83 17.825h-5.269Zm19.059-4.26c.729.729 1.738 1.065 3.083 1.065.953 0 1.794-.224 2.467-.728.672-.505 1.121-1.01 1.289-1.57h4.204c-.673 2.13-1.682 3.643-3.083 4.596-1.401.897-3.027 1.402-4.989 1.402-1.345 0-2.579-.224-3.7-.673-1.065-.448-2.018-1.065-2.802-1.906-.785-.84-1.346-1.794-1.738-2.97a11.796 11.796 0 0 1-.617-3.813c0-1.4.224-2.578.617-3.7.448-1.176 1.009-2.13 1.794-2.97a8.173 8.173 0 0 1 2.802-1.962c1.065-.505 2.299-.729 3.588-.729 1.457 0 2.747.28 3.868.897s1.962 1.401 2.691 2.355a9.151 9.151 0 0 1 1.513 3.363 11.75 11.75 0 0 1 .336 3.98h-12.5c.112 1.513.448 2.634 1.177 3.363Zm5.381-9.361c-.56-.617-1.457-.953-2.578-.953-.785 0-1.401.112-1.906.392-.505.28-.897.617-1.177 1.01-.28.392-.505.784-.617 1.233-.112.448-.168.84-.224 1.177h7.736c-.281-1.29-.673-2.243-1.234-2.86Z"/><path fill="#8A2119" d="m61.07 37.386-.056 3.98-.056 1.178H50.98l-.168 8.969v.84h-4.653l.169-9.81h-9.922l.056-3.475v-1.681h9.978l.112-8.465v-.785h4.652l-.168 9.25H61.07Z"/><path fill="#656565" d="M75.982 27.744v.393c-.056 3.307-1.29 6.614-3.588 9.249-.224.28-.504.56-.729.785a14.974 14.974 0 0 1-10.594 4.372h-.056V41.31l.056-3.98h.112a9.114 9.114 0 0 0 6.503-2.69 9.465 9.465 0 0 0 2.802-6.727 9.465 9.465 0 0 0-2.802-6.727c-3.756-3.7-9.81-3.476-13.566.224l-.112.112c-1.738 1.738-2.748 4.149-2.804 6.615h-4.596v-1.01c.057-3.699 1.57-7.23 4.149-9.809.224-.224.392-.392.616-.56 2.86-2.523 6.447-3.812 10.09-3.756 3.7.056 7.4 1.513 10.202 4.316a14.68 14.68 0 0 1 4.317 10.426ZM50.812 52.353v1.682a12.47 12.47 0 0 1-3.643 8.632c-.336.337-.729.673-1.121 1.01-2.915 2.354-6.447 3.475-9.978 3.307-3.532-.169-7.063-1.57-9.754-4.317C23.458 59.808 22 56.11 22 52.353v-.112c0-3.756 1.457-7.568 4.316-10.426l.337-.337a14.045 14.045 0 0 1 9.922-4.092v1.682l-.056 3.475c-2.187 0-4.317.897-5.886 2.41l-.28.28a9.465 9.465 0 0 0-2.804 6.728v.392c.113 2.298 1.01 4.596 2.747 6.334 1.626 1.626 3.756 2.579 5.886 2.747 2.69.224 5.494-.673 7.512-2.747a8.879 8.879 0 0 0 2.578-6.054v-.28h4.54Z"/></svg>