<svg xmlns="http://www.w3.org/2000/svg" fill="none" viewBox="0 0 210 80"><path fill="#24175B" d="M57.662 40.94c.397.488.795.912 1.111 1.382.769 1.148.678 2.558-.171 3.544-.877 1.012-2.387 1.338-3.634.777-1.257-.57-1.926-1.772-1.718-3.145.118-.787.579-1.402 1.103-1.971.163-.172.362-.307.588-.497-.497-.516-.931-.95-1.356-1.401-1.916-2.07-3.715-4.24-5.09-6.726-1.102-1.997-1.68-4.085-1.102-6.354.66-2.585 2.17-4.502 4.619-5.596 1.555-.696 3.2-1.084 4.908-.913 2.938.299 5.514 1.32 7.15 3.978 1.646 2.666 1.664 5.414.29 8.19-1.438 2.91-3.498 5.36-5.713 7.7-.326.344-.66.688-.985 1.031Zm-1.772-1.872s.063-.018.1-.036V21.785c-.145.01-.245.01-.335.036-1.14.28-1.907 1.03-2.405 2.043-1.03 2.106-1.202 4.339-.759 6.608.542 2.775 1.718 5.315 2.992 7.819l.407.786v-.009Zm2.513-17.202c.452.642 1.012 1.248 1.356 1.962 1.012 2.106 1.175 4.339.74 6.608-.55 2.874-1.753 5.514-3.082 8.108a9.578 9.578 0 0 0-.198.416c.09-.018.126-.01.144-.027.226-.235.443-.461.66-.706 1.772-1.934 3.408-3.959 4.673-6.273 1.112-2.043 1.374-4.14.452-6.31-.904-2.132-2.603-3.29-4.754-3.778h.009ZM56.27 44.953c.605 0 1.102-.434 1.102-.958 0-.452-.813-1.537-1.139-1.519-.316.01-1.084 1.067-1.084 1.51 0 .578.452.976 1.12.976v-.01ZM105.29 30.472h7.34c.334 0 .678.045 1.003.126.551.145.85.552.895 1.112.099 1.202.181 2.405.253 3.607.027.497-.09.949-.597 1.193-.452.217-.994.118-1.392-.316a6.471 6.471 0 0 1-.75-1.022c-.75-1.283-1.871-2.034-3.344-2.106a43.904 43.904 0 0 0-4.629 0c-1.093.054-1.292.353-1.292 1.455 0 2.007.009 4.005 0 6.012 0 .415.108.569.542.551a53.551 53.551 0 0 1 2.956 0c.904.018 1.609-.316 2.142-1.049.217-.298.461-.587.732-.85.317-.307.706-.397 1.13-.207.398.18.588.506.588.93v4.737c0 .452-.208.787-.624.959-.425.171-.813.081-1.121-.254-.352-.37-.669-.768-1.003-1.148a1.974 1.974 0 0 0-1.528-.686c-1.121 0-2.241 0-3.362-.018-.326 0-.443.108-.443.442.009 1.61 0 3.227.009 4.836 0 .796.325 1.438.904 1.98.262.244.524.497.705.795.389.624.108 1.311-.606 1.528a1.152 1.152 0 0 1-.352.063c-1.989 0-3.978.01-5.957 0-.461 0-.886-.18-1.058-.65-.18-.488-.045-.931.335-1.302.045-.045.09-.1.144-.145.958-.714 1.257-1.69 1.248-2.856-.027-4.33-.018-8.66 0-12.99 0-.958-.262-1.762-1.004-2.404-.226-.199-.452-.425-.605-.678-.434-.687-.09-1.437.696-1.591.217-.045.443-.045.66-.045h7.385v-.01ZM167.806 35.968c2.72.027 5.496 1.365 7.005 4.6 2.296 4.927-.126 11.11-5.387 12.629-4.339 1.247-8.85-.226-10.775-4.818-1.609-3.851-.615-8.877 3.977-11.39 1.365-.75 2.866-1.012 5.18-1.012v-.01Zm3.245 10.07s-.045 0-.073-.01v-.46c-.072-2.107-.569-4.068-2.079-5.641-.822-.85-1.78-1.428-3.028-1.266-1.654.226-2.847 1.501-3.118 3.3a11.117 11.117 0 0 0 .316 4.691c.407 1.465 1.175 2.703 2.423 3.616 1.256.913 2.693.868 3.914-.081.696-.543 1.184-1.23 1.355-2.088.136-.678.199-1.374.29-2.061ZM134.667 48.867c.082-.163.145-.262.181-.362.967-2.45 1.935-4.9 2.884-7.349.135-.343.244-.705.325-1.066.127-.534.036-1.013-.388-1.402-.1-.09-.181-.198-.263-.307-.506-.714-.144-1.609.733-1.645a41.361 41.361 0 0 1 3.67 0c.885.045 1.238.922.723 1.645-.109.154-.226.307-.38.407-.823.57-1.265 1.383-1.636 2.278-1.745 4.203-3.471 8.406-5.261 12.592-.804 1.889-1.862 3.633-3.534 4.917-1.573 1.211-3.345 1.726-5.315 1.247-1.564-.38-2.287-1.744-1.673-3.1.588-1.32 2.125-1.654 3.2-.705.895.777 1.6.822 2.558.136.823-.597 1.347-1.429 1.772-2.324.054-.126.018-.334-.054-.479-1.935-4.158-3.86-8.316-5.84-12.447-.325-.687-.913-1.247-1.392-1.853-.063-.081-.153-.136-.226-.208-.415-.407-.777-.858-.515-1.482.253-.606.796-.66 1.374-.651h4.791c.235 0 .479.018.705.081.542.172.804.66.633 1.203a1.72 1.72 0 0 1-.344.614c-.596.633-.596 1.32-.271 2.07.669 1.537 1.32 3.092 1.98 4.637.452 1.058.904 2.125 1.365 3.182.045.1.099.19.189.362l.009.009ZM38.119 56.216c1.527.298 2.621-.47 3.67-1.392 2.35-2.08 4.718-4.15 7.077-6.22.67-.587.977-.596 1.682-.017 1.69 1.392 3.39 2.775 5.08 4.167.09.072.18.144.307.235.588-.48 1.157-.95 1.736-1.42.66-.542.958-.542 1.609-.009 1.889 1.546 3.796 3.092 5.676 4.656.986.822 2.088 1.383 3.354 1.627.108.018.208.072.307.226h-.687c-.85 0-1.7-.018-2.549 0-.642.009-1.175-.199-1.672-.624-1.591-1.356-3.21-2.675-4.81-4.022-.28-.244-.451-.272-.758 0-1.636 1.41-3.273 2.81-4.954 4.158-.352.28-.895.452-1.347.46-3.091.037-6.183.046-9.274.01-1.555-.018-2.956-.579-4.212-1.474-.09-.063-.172-.153-.254-.235 0-.045.01-.081.019-.126ZM121.777 39.502c0 2.974.018 5.939-.009 8.913-.009 1.094.208 2.043 1.103 2.766.416.334.588.795.389 1.32-.199.524-.678.632-1.166.641-1.682 0-3.363.01-5.044 0-.479 0-.931-.117-1.13-.614-.217-.524-.036-.986.38-1.32.876-.705 1.111-1.627 1.102-2.712-.027-4.8-.027-9.609 0-14.409 0-.994-.208-1.834-1.03-2.467-.389-.299-.651-.714-.488-1.248.153-.515.569-.74 1.048-.858 1.004-.253 2.007-.497 3.019-.742.199-.045.398-.08.606-.09.768-.045 1.229.38 1.238 1.148.01 1.175 0 2.341 0 3.516v6.165l-.018-.009ZM155.223 43.317v5.496c0 .795.163 1.51.795 2.06.199.172.38.39.534.615.461.642.189 1.528-.579 1.564a72.468 72.468 0 0 1-5.948 0c-.777-.036-1.039-.922-.56-1.564.172-.226.379-.434.596-.623.516-.462.742-1.04.742-1.718v-7.945c0-.688-.226-1.257-.787-1.69-.135-.1-.253-.227-.379-.344-.678-.696-.498-1.6.433-1.871a43.416 43.416 0 0 1 3.707-.895c.967-.19 1.437.262 1.446 1.256V43.317ZM147.024 50.955c-.009 1.455-1.075 2.45-2.612 2.44-1.564-.009-2.631-1.039-2.612-2.512.009-1.456 1.129-2.468 2.675-2.45 1.519.018 2.558 1.048 2.549 2.513v.009ZM152.764 29.568c1.944.027 3.055 1.464 2.45 3.173-.344.958-1.428 1.572-2.603 1.464a3.5 3.5 0 0 1-.751-.117c-1.175-.317-1.744-1.148-1.69-2.441.036-1.012.732-1.772 1.844-1.998.244-.054.506-.063.759-.09l-.009.009ZM68.906 48.487c0 1.04-.885 1.907-1.916 1.907-1.021 0-1.925-.904-1.925-1.916s.913-1.907 1.934-1.907c1.04 0 1.916.886 1.907 1.916Z"/><path fill="url(#a)" fill-rule="evenodd" d="M64.622 25.13h4.881a7.87 7.87 0 0 1 7.864 7.864V50.14a7.87 7.87 0 0 1-7.864 7.865h-.389c-2.232-.353-3.2-1.022-3.95-1.582l-6.2-5.099a.859.859 0 0 0-1.094 0l-2.016 1.655-5.677-4.665a.859.859 0 0 0-1.094 0l-7.882 6.934c-1.582 1.292-2.64 1.048-3.318.976A7.876 7.876 0 0 1 35 50.14V32.994a7.87 7.87 0 0 1 7.864-7.864h4.863v.018l-.171.479-.055.162-.217.977-.027.171-.1.986v.27l-.017.091v.452l.027.262.054.416.073.37.08.344.11.37.28.787.09.235.488 1.022.172.316.56.958.217.344.787 1.148.108.154 1.022 1.328.325.407 1.166 1.356.235.262.958 1.03.38.39.623.623-.126.108-.081.073a6.668 6.668 0 0 0-.868.967 4.247 4.247 0 0 0-.335.551c-.054.1-.099.2-.135.308a2.85 2.85 0 0 0-.181.831v.244c0 .344.072.687.208 1.004.127.325.316.623.56.877.172.19.371.343.588.479.18.117.38.208.587.28.443.154.922.208 1.392.154a3.064 3.064 0 0 0 1.582-.624 2.92 2.92 0 0 0 .886-1.175 2.88 2.88 0 0 0 .208-1.13v-.2a3.173 3.173 0 0 0-.199-.776c-.045-.109-.09-.217-.144-.317-.1-.19-.217-.37-.344-.551l-.18-.235a6.24 6.24 0 0 0-.679-.705l-.171-.145.289-.28 1.238-1.293.425-.47.66-.75.434-.506.615-.75.415-.525.615-.822.307-.425.443-.66.362-.56.687-1.203.398-.786v-.027l.316-.732c0-.01 0-.019.01-.028L65 30.047l.037-.145.144-.804.027-.217v-.136l.019-.506v-.09l-.028-.452-.036-.353-.163-1.012s0-.027-.009-.036l-.208-.75-.072-.209-.09-.226v.019Zm2.314 21.387a1.895 1.895 0 0 0-1.862 1.862 1.895 1.895 0 0 0 1.862 1.862 1.895 1.895 0 0 0 1.862-1.862 1.895 1.895 0 0 0-1.862-1.862Z" clip-rule="evenodd"/><defs><radialGradient id="a" cx="0" cy="0" r="1" gradientTransform="translate(56.76 40.67) scale(30.6465)" gradientUnits="userSpaceOnUse"><stop stop-color="#BA7BF0"/><stop offset=".45" stop-color="#996BEC"/><stop offset="1" stop-color="#5046E4"/></radialGradient></defs></svg>