<svg xmlns="http://www.w3.org/2000/svg" fill="none" viewBox="0 0 210 80"><path fill="#E5028D" d="M29.819 62.596c0 .263-.044.439-.175.57a.727.727 0 0 1-.527.22h-2.37a.727.727 0 0 1-.526-.22c-.131-.131-.175-.35-.175-.57V49.302c0-.264-.044-.44-.176-.57a.727.727 0 0 0-.526-.22h-3.642a.727.727 0 0 1-.527-.22c-.131-.131-.175-.35-.175-.57v-2.106c0-.263.044-.439.175-.57a.727.727 0 0 1 .527-.22h12.46c.22 0 .395.088.527.22.132.131.176.35.176.57v2.106c0 .263-.044.439-.176.57a.727.727 0 0 1-.526.22H30.52a.727.727 0 0 0-.527.22c-.131.13-.175.35-.175.57v13.294Zm18.12-1.667c-.043-.176-.175-.308-.307-.395a1.043 1.043 0 0 0-.526-.132h-6.23c-.176 0-.351.044-.527.132a.559.559 0 0 0-.307.395l-.658 1.93c-.044.175-.176.307-.307.395a1.042 1.042 0 0 1-.527.132h-2.808c-.35 0-.614-.088-.79-.308-.175-.175-.175-.438-.044-.79l6.23-16.98c.045-.175.176-.306.308-.394a.884.884 0 0 1 .483-.132h4.036c.439 0 .702.176.834.527l6.23 16.98a.823.823 0 0 1-.044.79c-.175.175-.395.306-.79.306h-2.808c-.175 0-.35-.043-.526-.131a.557.557 0 0 1-.307-.395l-.614-1.93Zm-6.01-5.31c-.132.308-.088.571.043.746.132.176.395.308.746.308h2.545c.351 0 .614-.088.746-.308.132-.175.175-.438.044-.745l-1.229-3.598c-.263-.702-.526-1.053-.833-1.053-.307 0-.57.35-.834 1.053L41.93 55.62Zm20.27 4.3c.57.088 1.097.132 1.536.088a4.698 4.698 0 0 0 1.184-.263c.308-.132.57-.307.79-.483.176-.22.307-.395.351-.614.044-.175 0-.351-.044-.526-.044-.176-.088-.264-.131-.308-.22-.35-.659-.658-1.229-.921a10.403 10.403 0 0 0-1.974-.658l-2.106-.614a8.308 8.308 0 0 1-2.062-1.053 6.371 6.371 0 0 1-1.58-1.668c-.439-.702-.614-1.535-.614-2.544 0-1.01.175-1.843.57-2.59a6.314 6.314 0 0 1 1.492-1.886c.614-.482 1.272-.877 2.062-1.14a6.932 6.932 0 0 1 2.282-.395c1.404 0 2.632.307 3.729.877 1.097.57 2.018 1.36 2.808 2.37.132.175.176.394.176.614-.044.219-.132.395-.351.526L67.2 50.18a.965.965 0 0 1-.57.175.93.93 0 0 1-.527-.35c-.395-.483-.877-.878-1.448-1.229-.57-.351-1.185-.483-1.843-.483-.219 0-.482.044-.79.088-.263.088-.57.176-.833.351-.263.132-.483.351-.658.57-.176.22-.263.527-.263.834 0 .263.087.527.263.746.175.22.395.395.658.526.263.132.614.308 1.01.395l1.228.351c.702.176 1.448.44 2.193.702.79.264 1.492.659 2.15 1.097.658.44 1.185 1.053 1.624 1.755.438.702.658 1.58.658 2.633 0 .965-.22 1.799-.614 2.5-.44.703-.966 1.317-1.624 1.756-.658.482-1.448.833-2.281 1.053-.878.22-1.712.35-2.589.35a7.308 7.308 0 0 1-1.93-.263c-.659-.175-1.273-.394-1.843-.701-.57-.308-1.141-.659-1.624-1.097a8.214 8.214 0 0 1-1.36-1.404.965.965 0 0 1-.175-.57c.044-.176.175-.352.35-.483l2.019-1.317c.175-.131.395-.175.57-.131.176.044.351.175.483.35.175.22.395.396.658.615l.79.483.79.395c.131-.044.35 0 .526.043Zm19.437 2.677c0 .263-.044.439-.176.57a.727.727 0 0 1-.526.22h-2.37a.727.727 0 0 1-.526-.22c-.132-.131-.175-.35-.175-.57V49.302c0-.264-.044-.44-.176-.57a.727.727 0 0 0-.526-.22h-3.642a.727.727 0 0 1-.526-.22c-.132-.131-.176-.35-.176-.57v-2.106c0-.263.044-.439.176-.57a.727.727 0 0 1 .526-.22h12.504c.22 0 .395.088.527.22.132.131.175.35.175.57v2.106c0 .263-.043.439-.175.57a.727.727 0 0 1-.526.22h-3.642a.727.727 0 0 0-.527.22c-.131.13-.175.35-.175.57v13.294h-.044ZM100.327 44.256v5.704c0 1.14-.57 2.15-1.448 2.764a3.418 3.418 0 0 1-3.773 0 3.368 3.368 0 0 1-1.448-2.764v-5.704h-3.642v5.221c0 3.203 2.15 5.88 5.09 6.713v6.186c0 .264.044.44.175.57.132.132.307.22.527.22h2.369c.22 0 .395-.088.526-.22.132-.13.176-.35.176-.57V56.19c2.94-.834 5.09-3.51 5.09-6.713v-5.221h-3.642ZM140.605 21.002a2.501 2.501 0 1 0 0-5.002 2.501 2.501 0 0 0 0 5.002ZM138.937 28.46a1.975 1.975 0 1 0 .001-3.948 1.975 1.975 0 0 0-.001 3.949ZM146.001 31.4a2.94 2.94 0 1 0 0-5.879 2.94 2.94 0 0 0 0 5.88Z"/><path fill="#000" d="M128.626 59.656c.219 0 .394.088.526.22s.176.35.176.57v2.106c0 .264-.044.439-.176.57a.727.727 0 0 1-.526.22h-10.355a.73.73 0 0 1-.527-.22c-.131-.131-.175-.35-.175-.57v-16.98c0-.263.044-.438.175-.57a.73.73 0 0 1 .527-.22h2.369c.22 0 .395.088.527.22.131.132.175.351.175.57v13.295c0 .263.044.438.176.57.131.132.307.22.526.22h6.582Zm37.162 3.73h-8.556a.727.727 0 0 1-.526-.22c-.132-.131-.176-.35-.176-.57v-16.98c0-.263.044-.438.176-.57a.727.727 0 0 1 .526-.22h7.152c1.053.132 1.975.483 2.764 1.053.79.57 1.36 1.36 1.755 2.37.264.746.395 1.492.395 2.281a5.91 5.91 0 0 1-.439 2.194c-.175.395-.087.746.176 1.053.483.57.877 1.185 1.141 1.843.263.658.395 1.404.395 2.15 0 .79-.132 1.492-.395 2.15a5.645 5.645 0 0 1-1.053 1.71 5.146 5.146 0 0 1-1.536 1.185 3.935 3.935 0 0 1-1.799.57Zm-2.15-14.874h-2.588a.727.727 0 0 0-.527.22c-.132.131-.175.35-.175.57v2.194c0 .263.043.438.175.57.132.132.307.22.527.22h2.588c.483-.044.878-.22 1.185-.615.307-.35.483-.79.483-1.316 0-.527-.176-.965-.483-1.36-.351-.307-.746-.483-1.185-.483Zm1.229 7.371h-3.861a.727.727 0 0 0-.527.22c-.131.131-.175.35-.175.57v2.194c0 .263.044.438.175.57.132.132.307.22.527.22h3.861c.219 0 .439-.044.658-.132.209-.08.391-.217.526-.395.132-.176.264-.395.351-.614.086-.224.131-.462.132-.702 0-.527-.175-.966-.526-1.36-.264-.395-.659-.57-1.141-.57Zm16.848 4.037c.57.087 1.097.131 1.536.087a4.705 4.705 0 0 0 1.184-.263c.307-.131.571-.307.79-.482.176-.22.307-.395.351-.615.044-.175 0-.35-.044-.526-.044-.176-.088-.263-.131-.307-.22-.351-.659-.658-1.229-.922a10.41 10.41 0 0 0-1.974-.658l-2.106-.614a8.323 8.323 0 0 1-2.063-1.053 6.375 6.375 0 0 1-1.579-1.667c-.439-.702-.614-1.536-.614-2.545 0-1.01.175-1.843.57-2.589a6.321 6.321 0 0 1 1.492-1.886c.614-.483 1.272-.878 2.062-1.141a6.936 6.936 0 0 1 2.281-.395c1.405 0 2.633.307 3.73.877 1.097.57 2.018 1.36 2.808 2.37.132.175.219.395.175.614-.043.22-.131.395-.351.526l-1.886 1.448a.966.966 0 0 1-.571.176.928.928 0 0 1-.526-.351c-.395-.483-.878-.878-1.448-1.229-.57-.35-1.185-.482-1.843-.482-.219 0-.482.044-.79.087-.263.088-.57.176-.833.351-.263.132-.483.352-.658.57-.176.22-.264.527-.264.834 0 .264.088.527.264.746.175.22.395.395.658.527.263.131.614.307 1.009.395l1.228.35c.702.176 1.448.44 2.194.703.79.263 1.492.658 2.15 1.097.658.438 1.185 1.053 1.624 1.755.438.702.658 1.58.658 2.632 0 .965-.22 1.8-.615 2.501-.438.702-.965 1.316-1.623 1.755-.658.483-1.448.834-2.282 1.053-.877.22-1.711.351-2.588.351a7.312 7.312 0 0 1-1.931-.263c-.658-.176-1.272-.395-1.842-.702-.571-.307-1.141-.658-1.624-1.097a8.239 8.239 0 0 1-1.36-1.404.962.962 0 0 1-.175-.57c.043-.176.175-.351.351-.483l2.018-1.316c.175-.132.395-.176.57-.132.176.044.351.176.483.351.175.22.395.395.658.614l.79.483.789.395c.264.132.308 0 .527.044ZM145.737 44.52v-8.425h1.755V33.99h-9.345v2.106h2.062v8.337l-8.468 14.479c-1.185 2.018.263 4.519 2.588 4.519h17.243c2.326 0 3.774-2.501 2.589-4.52l-8.424-14.39Z"/></svg>