<svg xmlns="http://www.w3.org/2000/svg" fill="none" viewBox="0 0 210 80"><path fill="#000" fill-rule="evenodd" d="m186.219 42.364 4.414 6.132H193l-5.606-7.36 5.117-5.321v-.054h-2.314l-5.242 5.5-.587.64-.534.686V30.67h-1.869v17.825h1.869v-3.64l2.385-2.5v.008ZM75.488 44.51c0-2.518-1.335-3.417-2.919-3.8 1.904-.427 3.31-2.065 3.31-4.485 0-2.723-1.672-4.69-5.125-4.69h-8.455v16.97h4.094v-6.14h2.785c1.309 0 2.252.739 2.252 2.376v.686a12.224 12.224 0 0 0 .276 3.06h4.093a15.391 15.391 0 0 1-.302-3.06v-.917h-.01Zm-5.82-5.375H66.41v-4.156h3.284c1.361 0 1.957.659 1.957 1.985 0 1.45-.57 2.171-1.984 2.171Zm18.937 5.82h-6.38v-13.42h-3.8v16.97h10.18v-3.55Zm9.175-13.42h4.414L96.579 43.61v4.904h-4.005V43.61l-5.66-12.067h4.503l2.154 5.562.996 2.883.65-1.86.374-1.014 2.198-5.57-.009-.01Zm18.839 0h-1.833v15.52l-.952-2.189-6.799-13.33h-3.15v16.97h1.869v-15.52l.943 2.216 6.79 13.277h3.132V31.534Zm13.571 10.199c0-3.489-1.94-5.954-5.366-5.954-3.8 0-5.659 2.723-5.659 6.336 0 3.613 1.735 6.39 5.659 6.39 3.925 0 5.117-2.243 5.349-4.067h-1.664c-.348 1.522-1.326 2.59-3.613 2.59-2.288 0-3.791-1.175-3.925-4.459h9.175c.018-.116.027-.24.036-.356v-.267l.008-.107v-.106Zm-9.183-.597c.258-2.812 1.708-3.898 3.835-3.898s3.471 1.148 3.56 3.898h-7.395Zm12.174 4.423c0 1.994.56 2.919 2.714 2.919l2.652.027v-1.62h-3.569v-9.29h3.702v-1.576h-3.702v-2.785h-.97l-.676 2.59-2.296.631v1.122h2.136v7.982h.009Zm24.098-9.789h1.771l-3.471 12.735h-2.598l-3.275-10.314-3.248 10.314h-2.59L140.38 35.77h1.913l2.937 11.213 3.595-11.213h1.887l3.595 11.213 2.972-11.213Zm8.579.009c-3.996 0-5.954 2.777-5.954 6.336 0 3.56 1.985 6.39 5.954 6.39 3.969 0 5.927-2.848 5.927-6.39s-1.94-6.336-5.927-6.336Zm0 11.177c-2.67 0-4.04-1.433-4.04-4.814 0-3.382 1.37-4.815 4.04-4.815s4.013 1.469 4.013 4.815-1.352 4.814-4.013 4.814Zm14.407-11.186v1.985h-.498c-3.586-.125-4.36 2.59-4.36 6.122v4.619h-1.932V35.939h1.932v3.39c.729-2.206 2.135-3.568 4.449-3.568h.409v.01ZM32.399 23l14.639 8.294V48.13l-14.64 8.054L18 48.13V31.294L32.399 23Zm-9.522 11.222 9.513-5.616 9.513 5.616-4.396 2.687-5.126-3.168-4.637 3.168v11.222l-4.876-2.928V34.222h.009Z" clip-rule="evenodd"/></svg>