<svg xmlns="http://www.w3.org/2000/svg" fill="none" viewBox="0 0 210 80"><path fill="#000" d="m171.39 40.275-7.077-9.318h8.203L187 49.917h-8.288l-3.22-4.237-3.22 4.236h-8.246l7.364-9.64Zm7.141-9.318h8.171l-6.269 8.306-4.144-5.322 2.253-2.984h-.011ZM58.879 47.82c-1.976-1.67-2.954-4.121-2.954-7.377 0-3.255 1.01-5.718 3.018-7.377 2.009-1.67 4.76-2.504 8.246-2.504 1.445 0 2.731.094 3.847.302a12.69 12.69 0 0 1 3.198 1.023v5.28c-1.583-.741-3.379-1.117-5.387-1.117-1.775 0-3.082.334-3.921 1.002-.85.668-1.265 1.795-1.265 3.401 0 1.607.415 2.672 1.243 3.36.83.7 2.147 1.044 3.943 1.044 1.902 0 3.719-.438 5.43-1.315v5.52c-1.902.855-4.283 1.283-7.12 1.283-3.549 0-6.301-.834-8.267-2.504l-.01-.02Zm17.109-7.377c0-3.224.924-5.676 2.773-7.356 1.849-1.68 4.644-2.515 8.374-2.515 3.73 0 6.567.845 8.426 2.515 1.86 1.68 2.795 4.132 2.795 7.356 0 6.584-3.74 9.881-11.221 9.881-7.428 0-11.147-3.286-11.147-9.88Zm13.824 3.36c.553-.7.819-1.816.819-3.36 0-1.544-.277-2.63-.819-3.339-.552-.71-1.445-1.064-2.677-1.064-1.233 0-2.083.355-2.615 1.064-.53.71-.807 1.816-.807 3.34 0 1.523.266 2.67.808 3.359.53.699 1.402 1.043 2.614 1.043 1.21 0 2.125-.344 2.677-1.043Zm17.385-12.845.202 1.44c.776-.532 1.774-.97 2.975-1.315a13.604 13.604 0 0 1 3.741-.521c2.39 0 4.133.584 5.228 1.763 1.105 1.169 1.647 2.984 1.647 5.436v12.157h-7.566V38.511c0-.856-.191-1.461-.585-1.837-.393-.375-1.041-.553-1.955-.553-.563 0-1.137.125-1.732.376a4.7 4.7 0 0 0-1.488.98v12.438h-7.565V30.957h7.098Zm13.825 0h7.884l3.624 11.123 3.623-11.123h7.885l-7.523 18.96h-7.97l-7.523-18.96Zm25.396 17.332c-2.274-1.69-3.336-4.633-3.336-7.805 0-3.172.839-5.645 2.773-7.398 1.934-1.764 4.878-2.515 8.586-2.515 3.422 0 6.1.783 8.066 2.358 1.955 1.576 2.943 3.725 2.943 6.438v3.318h-14.377c.361.992.807 1.701 1.923 2.14 1.116.438 2.667.657 4.654.657a24.1 24.1 0 0 0 3.634-.282l1.52-.25v4.612c-1.881.511-4.389.761-7.205.761-3.804 0-6.907-.344-9.181-2.034Zm11.094-9.683c0-.94-1.084-2.964-3.273-2.964-1.976 0-3.273 1.993-3.273 2.964h6.546Z"/><path fill="#F3B01C" d="M39.662 48.19c4.159-.45 8.085-2.635 10.244-6.273-1.027 9.002-11.038 14.689-19.207 11.197a4.172 4.172 0 0 1-1.842-1.537c-1.84-2.833-2.444-6.44-1.576-9.712 2.476 4.203 7.524 6.785 12.381 6.335v-.01Z"/><path fill="#8D2676" d="M27.133 39.21c-1.683 3.836-1.757 8.321.306 12.012-7.28-5.384-7.196-16.905-.084-22.237a4.123 4.123 0 0 1 2.264-.826c3.376-.177 6.794 1.109 9.197 3.492-4.879.052-9.641 3.126-11.684 7.559Z"/><path fill="#EE342F" d="M41.165 32.833c-2.466-3.377-6.318-5.677-10.54-5.74 8.159-3.638 18.202 2.258 19.302 10.998a4.038 4.038 0 0 1-.402 2.363c-1.524 3.042-4.35 5.405-7.662 6.283a13.26 13.26 0 0 0-.698-13.894v-.01Z"/></svg>