<svg xmlns="http://www.w3.org/2000/svg" fill="none" viewBox="0 0 210 80"><path fill="#65BD52" d="M21.864 17c1.792 1.184 3.652 2.13 5.444 3.213.71.405 1.42.811 2.164 1.285l-5.174 3.077L9.791 33.13c-.372.203-.44.474-.44.846v9.029c0 .71 0 .71-.608.338l-6.628-3.855c-.17-.237-.102-.507-.102-.744v-9.976c-.033-.44.27-.575.541-.744l11.971-6.966 6.02-3.517a6 6 0 0 1 1.048-.507c.102-.034.17-.034.27-.034Zm12.275 16.908c.034-.507-.135-.778-.575-1.048l-8.014-4.667c-.203-.101-.406-.27-.677-.44l7.27-4.226c.271-.17.508-.237.846-.034l8.454 4.87c.305.168.372.371.372.71v21.946c0 .27-.034.508-.304.643l-7.034 4.16c-.101.067-.203.067-.338.134V33.909ZM2.115 51.628v-8.353l6.594 3.653 12.478 7.169c.508.304.88.27 1.387-.034l8.082-4.836.203-.101c.169.101.101.236.101.372l.034 7.845c0 .338-.034.575-.372.744l-8.116 4.768c-.304.17-.541.203-.845.034L2.115 51.628Z"/><path fill="#505B5D" d="M19.733 30.797c.744-.406 1.42-1.116 2.13-1.116.677 0 1.387.71 2.063 1.116l1.184.71c-.034.237-.237.27-.372.372l-8.184 4.768c-.405.237-.54.508-.54.947.033 1.218 0 2.435 0 3.788-.846-.474-1.556-.981-2.368-1.32-.947-.405-1.251-.98-1.15-1.994.102-.88.034-1.759 0-2.672 0-.338.102-.507.406-.676l6.831-3.923Zm-1.758 17.821-5.039-2.908c-.304-.169-.44-.372-.406-.744v-2.739c-.034-.541.136-.541.541-.304l8.184 4.768c.372.236.642.236 1.014 0 1.083-.677 2.198-1.285 3.382-1.995v3.55c0 .237-.101.372-.304.474L22.1 50.647c-.27.17-.44.068-.676-.067-1.116-.609-2.266-1.285-3.45-1.962Zm11.97-14.236c.812.27 1.049.777 1.015 1.623-.067 2.942-.034 5.884 0 8.826 0 .473-.135.71-.54.913-.914.473-1.793 1.048-2.774 1.623 0-.304-.034-.54-.034-.744l.034-9.096c0-.372-.101-.575-.44-.778-1.15-.643-2.265-1.319-3.482-2.03l3.246-1.893c.203-.135.372.034.54.102l2.436 1.454Z"/><path fill="#505B5D" fill-rule="evenodd" d="M206.602 34.213c-.101-.136-.101-.17-.101-.17a.806.806 0 0 0 .575-.845v-.101c-.034-.508-.44-.846-.947-.846h-1.116v3.145h.44v-1.285h.608l.643 1.285h.507l-.609-1.183Zm-.541-.44h-.608v-1.15h.676c.271.034.507.27.473.541v.068c0 .338-.236.575-.541.541Zm.541.44c-.101-.136-.101-.17-.101-.17a.806.806 0 0 0 .575-.845v-.101c-.034-.508-.44-.846-.947-.846h-1.116v3.145h.44v-1.285h.608l.643 1.285h.507l-.609-1.183Zm-.541-.44h-.608v-1.15h.676c.271.034.507.27.473.541v.068c0 .338-.236.575-.541.541Zm.541.44c-.101-.136-.101-.17-.101-.17a.806.806 0 0 0 .575-.845v-.101c-.034-.508-.44-.846-.947-.846h-1.116v3.145h.44v-1.285h.608l.643 1.285h.507l-.609-1.183Zm-.541-.44h-.608v-1.15h.676c.271.034.507.27.473.541v.068c0 .338-.236.575-.541.541Zm.541.44c-.101-.136-.101-.17-.101-.17a.806.806 0 0 0 .575-.845v-.101c-.034-.508-.44-.846-.947-.846h-1.116v3.145h.44v-1.285h.608l.643 1.285h.507l-.609-1.183Zm-.541-.44h-.608v-1.15h.676c.271.034.507.27.473.541v.068c0 .338-.236.575-.541.541Zm.541.44c-.101-.136-.101-.17-.101-.17a.806.806 0 0 0 .575-.845v-.101c-.034-.508-.44-.846-.947-.846h-1.116v3.145h.44v-1.285h.608l.643 1.285h.507l-.609-1.183Zm-.541-.44h-.608v-1.15h.676c.271.034.507.27.473.541v.068c0 .338-.236.575-.541.541Zm.541.44c-.101-.136-.101-.17-.101-.17a.806.806 0 0 0 .575-.845v-.101c-.034-.508-.44-.846-.947-.846h-1.116v3.145h.44v-1.285h.608l.643 1.285h.507l-.609-1.183Zm-.541-.44h-.608v-1.15h.676c.271.034.507.27.473.541v.068c0 .338-.236.575-.541.541Zm-.101-2.874h-.068a2.872 2.872 0 0 0-2.806 2.942 2.872 2.872 0 0 0 2.874 2.874 2.872 2.872 0 0 0 2.874-2.874v-.068a2.872 2.872 0 0 0-2.874-2.874Zm2.435 2.942v.067a2.43 2.43 0 0 1-1.502 2.252 2.424 2.424 0 0 1-.933.183h-.068a2.44 2.44 0 0 1-2.333-2.502v-.27c.068-1.32 1.217-2.368 2.536-2.3 1.319.067 2.401 1.25 2.3 2.57Zm-1.894.203a.806.806 0 0 0 .575-.846v-.101c-.034-.508-.44-.846-.947-.846h-1.116v3.145h.44v-1.285h.608l.643 1.285h.507l-.609-1.183c-.101-.136-.101-.17-.101-.17Zm-.44-.271h-.608v-1.15h.676c.271.034.507.27.473.541v.068c0 .338-.236.575-.541.541Zm.541.44c-.101-.136-.101-.17-.101-.17a.806.806 0 0 0 .575-.845v-.101c-.034-.508-.44-.846-.947-.846h-1.116v3.145h.44v-1.285h.608l.643 1.285h.507l-.609-1.183Zm-.541-.44h-.608v-1.15h.676c.271.034.507.27.473.541v.068c0 .338-.236.575-.541.541Zm.541.44c-.101-.136-.101-.17-.101-.17a.806.806 0 0 0 .575-.845v-.101c-.034-.508-.44-.846-.947-.846h-1.116v3.145h.44v-1.285h.608l.643 1.285h.507l-.609-1.183Zm-.541-.44h-.608v-1.15h.676c.271.034.507.27.473.541v.068c0 .338-.236.575-.541.541Z" clip-rule="evenodd"/><path fill="#505B5D" d="M164.4 46.758V56.87h-2.739V31.238h2.739v2.739l.27-.203c1.657-2.13 3.889-2.874 6.459-2.874 5.411 0 8.353 4.362 8.725 8.082.338 3.212-.406 6.053-2.672 8.488-2.874 3.077-9.57 3.584-12.478-.372-.068-.068-.135-.17-.304-.339Zm-.102-6.323v.744l.102.845c.473 2.435 1.69 4.329 4.125 5.039 2.536.778 4.904.372 6.764-1.657 1.859-2.03 2.231-4.498 1.555-7.068-1.454-5.715-7.879-5.918-10.517-3.314-1.454 1.522-2.063 3.348-2.029 5.41Zm21 1.082c.102 3.043 2.807 5.715 5.918 5.85 2.401.102 4.396-.609 5.715-2.773.068-.135.304-.27.44-.27.879-.034 1.758 0 2.739 0-.507 1.42-1.251 2.604-2.367 3.517-2.909 2.468-6.256 2.671-9.672 1.42-3.348-1.218-5.14-3.855-5.613-7.338-.339-2.401-.034-4.735 1.285-6.831 1.792-2.908 4.497-4.193 7.879-4.16 5.208.068 8.86 3.686 9.029 8.894.034.541 0 1.082 0 1.725h-15.353v-.034Zm12.411-2.638c-.237-3.178-2.976-5.478-6.425-5.444-3.111.034-5.783 2.502-5.918 5.444h12.343Zm-43.657-4.835V31.27h2.739v18.328h-2.739v-2.773l-.643.71c-1.961 2.13-4.497 2.604-7.236 2.3-4.397-.474-7.203-4.16-7.575-8.15-.271-3.01.304-5.749 2.401-8.048 3.043-3.348 8.86-3.686 12.005-.71.338.304.642.642 1.048 1.116Zm-12.715 6.864c.101.474.169 1.387.473 2.266 1.826 5.14 8.082 5.208 10.551 2.4 1.556-1.758 2.029-3.854 1.758-6.12-.574-5.444-5.444-7.135-9.231-5.31-2.57 1.218-3.517 3.552-3.551 6.764Zm-22.454-16.976h2.705V34.01l.575-.609c2.164-2.435 4.903-3.044 7.913-2.097 3.01.947 4.633 3.213 4.937 6.29.203 2.198.102 4.396.135 6.628V49.6h-2.772v-10.45c0-1.453-.271-2.806-1.252-3.956-1.454-1.69-3.348-2.096-5.41-1.555-2.165.575-3.483 1.995-3.923 4.193a7.752 7.752 0 0 0-.135 1.522v10.212h-2.739l-.034-25.633Zm-42.27 17.145c-.034 2.909-1.252 5.884-4.465 7.677-5.14 2.874-13.29.71-13.796-7.575-.136-2.334.236-4.532 1.589-6.493 1.86-2.672 4.497-3.821 7.676-3.787 5.445.135 8.995 3.956 8.995 10.178Zm-2.808-.947c-.033-.372-.067-1.014-.202-1.657-.541-2.671-2.503-4.531-5.14-4.937-2.74-.406-5.208.744-6.493 3.145-.947 1.759-1.082 3.686-.71 5.614.879 4.565 6.053 6.73 9.806 4.058 1.996-1.455 2.706-3.551 2.74-6.223Zm40.918-3.99h-2.806c-.305-1.826-1.624-2.604-3.281-2.705-1.183-.102-2.434 0-3.618.203-.541.067-1.116.473-1.488.913-.879 1.014-.609 2.671.676 3.178 1.556.61 3.213.981 4.802 1.488 1.353.44 2.773.778 4.058 1.42 3.382 1.624 2.739 6.493.169 7.981-.913.508-1.927.947-2.942 1.116-2.536.474-5.038.406-7.338-.913-1.86-1.082-2.976-2.637-3.11-4.903h2.806s.068.034.068.068c.541 2.265 1.995 3.449 4.294 3.584 1.353.068 2.672-.034 3.923-.541 1.319-.541 1.927-1.826 1.522-3.044-.271-.777-.88-1.217-1.556-1.42-1.589-.507-3.246-.879-4.836-1.352-1.149-.339-2.333-.71-3.415-1.218-3.45-1.623-2.672-6.357-.169-7.88 2.198-1.352 7.642-1.724 10.212.305 1.15.88 1.86 2.13 2.029 3.72ZM83.037 49.6h-2.739V31.237h2.706v2.671l1.555-1.488c3.314-2.976 10.585-1.86 11.768 4.633.136.643.17 1.319.17 1.962v10.55h-2.774v-.744l-.033-10.348c-.068-2.975-2.165-5.038-5.04-5.038-3.043 0-5.477 2.13-5.579 5.072-.101 3.416-.034 6.831-.034 10.28v.812Z"/></svg>