<svg xmlns="http://www.w3.org/2000/svg" fill="none" viewBox="0 0 210 80"><path fill="#192A3B" d="m59.214 64-1.118-.21c-1.484-.3-2.834-.92-4.104-1.735-.018-.01-.029-.033-.073-.084l1.165-2.058.345.216c1.194.763 2.464 1.34 3.864 1.589.9.161 1.794.161 2.682-.088 1.94-.543 2.864-2.224 2.707-4.073-.087-1.031-.553-1.835-1.35-2.466-.687-.546-1.455-.95-2.245-1.32l-2.146-.991a11.585 11.585 0 0 1-2.03-1.273c-2.41-1.872-2.366-4.851-1.292-6.766.865-1.545 2.194-2.521 3.864-2.987 2.5-.694 4.857-.279 7.077 1.038.029.019.058.037.087.059.018.015.033.033.073.08l-1.074 2-.305-.187c-1.245-.763-2.584-1.196-4.054-1.126-.782.036-1.535.213-2.22.616-1.505.888-1.891 2.54-1.59 3.79.146.61.507 1.094.954 1.52.571.539 1.23.95 1.932 1.291.782.382 1.583.715 2.354 1.115.699.364 1.372.778 2.045 1.186.226.135.43.315.637.484 1.175.969 1.736 2.23 1.805 3.75.142 3.155-1.889 5.533-4.661 6.337-.342.099-.703.15-1.052.227-.065.015-.127.044-.193.062h-2.084V64Zm120.021-6.094c-.018.077-.051.154-.058.234-.167 1.86-1.102 3.262-2.587 4.315-1.15.819-2.452 1.196-3.846 1.255-2.431.1-4.635-.62-6.669-1.922-.037-.026-.07-.06-.124-.103l1.171-2.07.332.206c1.12.723 2.314 1.273 3.624 1.552.942.198 1.881.231 2.823-.008 1.965-.495 3.031-2.164 2.809-4.23-.102-.932-.535-1.673-1.244-2.264-.604-.503-1.277-.888-1.98-1.225l-2.212-1.013c-.808-.385-1.579-.833-2.281-1.394-.983-.786-1.707-1.75-1.918-3.027-.386-2.308.382-4.18 2.191-5.622 1.066-.847 2.306-1.284 3.645-1.412 1.947-.191 3.777.213 5.476 1.189.091.051.179.11.266.165.029.018.051.044.113.095l-1.081 2.01-.364-.223c-1.273-.77-2.638-1.181-4.133-1.082-.666.044-1.306.194-1.899.502-1.681.873-2.06 2.609-1.787 3.823.109.478.346.889.659 1.255.364.43.793.79 1.28 1.068.615.349 1.238.683 1.878.98.979.455 1.968.884 2.874 1.475.535.345 1.052.726 1.529 1.148.76.675 1.229 1.538 1.411 2.55.044.239.07.477.102.716v1.057Zm-27.158 5.793c-.306.132-.309.136-.513-.106L137.483 47.21a.694.694 0 0 0-.288-.217l.058 16.427h-2.463V41.291l.44-.12 14.307 16.595.069-.015-.011-5.35-.021-5.426V41.57h2.441l.062 22.13ZM92.812 41.923l.775-.11c1.856-.199 3.711-.353 5.582-.232 1.433.096 2.823.382 4.108 1.053 1.63.848 2.758 2.125 3.147 3.96.455 2.153.076 4.131-1.408 5.815-.772.873-1.747 1.446-2.827 1.85l-.357.135c-.011.004-.018.015-.069.052l6.473 9.044c-.135.011-.222.026-.306.026-.764.003-1.528-.004-2.292.018-.266.007-.415-.08-.564-.297l-5.509-7.951c-.167-.246-.335-.345-.644-.334-1.077.03-2.154.01-3.23.01h-.394l.018 8.587h-2.448l-.055-21.626Zm2.481 10.868c.095.022.171.051.252.055 1.142.099 2.288.154 3.434.07.975-.07 1.925-.276 2.802-.742 1.037-.554 1.721-1.394 2.019-2.542.07-.268.117-.547.142-.826.182-1.842-.567-3.453-2.223-4.355-.724-.397-1.503-.598-2.314-.697-.997-.121-1.99-.048-2.984.022-.378.025-.75.099-1.128.15v8.865ZM40.96 41.479c.269-.03.453.063.553.279l9.806 21.567.145.341-1.299.011h-1.31l-.16-.337-2.383-5.405c-.105-.242-.236-.316-.491-.312l-7.434.03h-2.208l-2.638 6.05H31l9.959-22.232v.008Zm4.319 14.155L41.152 46.3l-.128.246-3.915 9.037c-.004.007 0 .022.007.033.004.011.011.018.011.018h8.15Zm85.401 7.816-.521.025c-.6 0-1.204-.01-1.804.008-.241.007-.342-.088-.433-.298l-2.384-5.4-.149-.32h-10.002l-2.635 6.043h-2.539l9.966-22.246h.418l10.09 22.191-.007-.003Zm-10.294-17.297h-.076l-4.032 9.265h8.201l-4.093-9.265Zm-49.677-4.322c.327-.085 16.515-.165 17.29-.088.077.268.091 1.743.011 2.146h-7.386l.054 19.689h-2.46l-.047-19.663h-7.462v-2.084Z"/><path fill="#00CEC4" d="M161.072 63.365h-2.449l1.088-40.463h.043l1.318 40.463Z"/><path fill="#192A3B" d="M159.722 16c1.124 0 2.008.87 2.004 1.974 0 1.079-.891 1.952-1.99 1.96-1.106.007-2.03-.881-2.034-1.964-.003-1.086.903-1.97 2.02-1.97Zm-.026 3.313c.771.011 1.401-.587 1.405-1.335a1.373 1.373 0 0 0-1.376-1.373c-.753-.003-1.397.624-1.397 1.362 0 .73.619 1.339 1.368 1.35v-.004Z"/></svg>