<svg xmlns="http://www.w3.org/2000/svg" fill="none" viewBox="0 0 210 80"><path fill="#707170" d="M172.199 67.617c-.285.505-.549.966-1.098 1.163-.943.33-1.887.044-2.502-.856l-11.984-18.063c-.066-.11-.088-.286-.307-.352v17.384c0 1.492-1.054 2.305-2.48 1.888-.703-.198-1.142-.703-1.208-1.45-.021-.175-.021-.328-.021-.504V43.87c0-1.34.812-2.151 2.041-1.976.724.088 1.185.57 1.58 1.142l5.817 8.735 5.838 8.582c.154.22.329.44.593.812v-.724l-.066-16.22c0-.264 0-.527.022-.79.131-.966.746-1.493 1.756-1.537 1.031-.044 1.668.44 1.909 1.449.11 1.404.022 2.765.044 4.148v11.413l.022 5.18c.044 1.23.044 2.349.044 3.534ZM107.099 69c-1.098-.527-1.273-1.449-1.252-2.524l.022-20.083c0-.483-.109-.615-.614-.615-1.537.044-3.095.022-4.653 0-1.493-.022-2.283-1.097-1.866-2.524.242-.834.856-1.23 1.888-1.23h14.222c1.471 0 2.261 1.12 1.844 2.547-.197.636-.592 1.01-1.229 1.141-.615.132-1.229.066-1.844.088h-3.468c-.439-.022-.548.11-.548.549v20.588c0 1.163-.373 1.712-1.317 2.041-.373.022-.746.022-1.185.022Z"/><path fill="#707170" d="M89.957 42.135c-.33-.066-.461-.176-.461-.527a76.743 76.743 0 0 0 0-3.183c-.022-.395.153-.46.482-.505 7.266-1.14 12.38-8.318 11.107-15.561-1.295-7.375-8.1-12.292-15.43-11.172-7.244 1.097-12.314 7.835-11.37 15.123.746 5.86 5.246 10.579 11.084 11.61.307.044.395.154.395.461a82.504 82.504 0 0 0 0 3.293c0 .373-.175.439-.439.483-2.304.35-4.324 1.317-6.167 2.809-3.82 3.248-5.488 7.353-4.873 12.291.944 7.66 8.516 12.994 16.089 11.414 7.506-1.58 12.313-9.131 10.337-16.528-1.47-5.53-5.136-8.889-10.754-10.008Zm-11.37-14.048c-2.458-6.32 2.195-13.147 8.977-13.3 5.158-.11 9.306 4.06 9.833 8.45.637 5.443-3.007 10.228-8.45 10.996-.044 0-.11.022-.22.044-4.675.241-8.56-2.13-10.14-6.19Zm11.106 36.83c-6.804 1.361-11.216-3.884-11.677-8.186-.834-5.773 3.688-10.909 9.548-11.04 5.092-.11 9.263 4.06 9.723 8.493.55 5.115-2.655 9.724-7.594 10.734ZM72.244 57.938l-.022 8.89c0 1.557-1.076 2.37-2.568 1.953-.615-.176-.988-.55-1.142-1.186-.065-.307-.065-.636-.065-.944l-.022-16.33v-.702c-.55.834-.988 1.537-1.427 2.239l-9.79 15.562c-.109.175-.219.35-.328.504-.615.856-1.405 1.142-2.283.856-.768-.263-1.295-1.053-1.273-2.04l.439-17.274c-.198.263-.285.416-.395.548L41.559 67.595c-.241.373-.526.725-.9.988-.68.46-1.47.439-2.085-.066-.548-.439-.724-1.207-.439-1.931.088-.22.22-.44.351-.637l14.245-21.927c.33-.527.703-1.01 1.163-1.426.659-.615 1.45-.725 2.305-.55.637.133.988.572 1.12 1.186.175.9.197 1.822.197 2.722.066 4.346-.088 8.691-.11 13.037v.68c.176-.24.286-.372.373-.526l10.909-16.023c.285-.417.593-.768 1.054-.987 1.229-.593 2.326.022 2.458 1.382.022.308.022.593.022.9l.022 13.52ZM155.781 21.24c-1.712-6.585-8.033-10.778-14.859-9.9-8.89 1.164-14.816 11.238-9.768 20.062 2.13 3.709 5.422 5.926 9.746 6.584 3.314.373 6.387-.197 9.174-2.019.856-.549 1.625-1.23 2.415-2.02v2.503c.022.9.549 1.492 1.383 1.668 1.36.263 2.326-.483 2.326-1.888V24.444c0-1.076-.153-2.151-.417-3.205Zm-7.858 11.654c-5.728 3.512-13.191.417-14.618-6.08-1.514-7.023 4.324-12.423 10.404-11.852 4.478.439 7.748 4.126 8.494 7.33.944 4.105-.614 8.1-4.28 10.602ZM150.645 52.45c-1.075-4.587-3.929-7.704-8.231-9.613a13.33 13.33 0 0 0-6.914-.768c-7.55 1.12-12.686 8.34-11.281 15.803 1.339 7.155 8.033 11.918 15.276 10.887 7.66-1.12 12.906-8.78 11.15-16.308Zm-10.996 12.424c-6.607 1.492-12.555-3.93-11.831-10.667.439-4.105 4.127-8.122 8.626-8.495 4.851-.395 9.109 2.48 10.382 6.958.263.922.351 1.866.373 2.875-.241 4.72-3.226 8.385-7.55 9.329Z"/><path fill="#707170" d="M116.69 11.209c4.17 0 7.529 1.602 10.25 4.653.9 1.01.922 2.217.022 2.963-.614.505-1.339.549-2.063.088-.549-.33-.966-.812-1.427-1.251-2.721-2.59-5.948-3.337-9.46-2.305-3.467 1.01-5.75 3.402-6.65 6.914-1.58 6.146 3.117 12.094 9.482 12.072 2.59-.022 4.807-.9 6.65-2.7.286-.285.571-.593.922-.812.79-.483 1.559-.417 2.261.175.593.505.724 1.274.373 2.086-.197.439-.483.79-.834 1.12-5.751 5.64-14.837 5.135-19.908-1.142-6.343-7.836-2.107-19.776 8.165-21.686.703-.132 1.427-.153 2.217-.175ZM64.496 31.84l-.022 1.91c-.022.416.132.482.505.482h7.001c.395 0 .79.044 1.142.198.9.395 1.426 1.317 1.25 2.26-.153.856-.877 1.427-1.93 1.427H64.1c-.176 0-.373-.022-.549 0-1.822.132-2.634-1.251-2.722-2.59-.022-.198-.022-.417-.022-.615l-.066-20.983c0-.417.023-.856.088-1.273.154-1.01.812-1.602 1.778-1.602.922-.022 1.624.57 1.8 1.58.066.417.11.856.11 1.273l-.022 17.933Zm97.76-18.218v19.995c0 .44.066.593.571.593 2.217-.044 4.433-.022 6.65-.022.461 0 .9.044 1.317.22.9.395 1.405 1.229 1.251 2.085-.175.965-.878 1.58-1.931 1.602-.988.022-1.976 0-2.963 0h-5.883c-1.624 0-2.568-.834-2.699-2.48-.022-.198-.022-.417-.022-.615l-.088-21.246c0-.549.022-1.076.197-1.603.22-.746.769-1.075 1.493-1.14.746-.067 1.361.153 1.734.855.285.527.373 1.098.373 1.756Zm-39.859 41.264v12.028c0 1.492-1.098 2.282-2.524 1.865-.681-.197-1.076-.636-1.185-1.338a5.306 5.306 0 0 1-.066-.834V43.67c.087-1.185.812-1.822 1.997-1.756 1.097.044 1.756.746 1.756 1.888l.022 11.084Z"/><path fill="#F7A700" d="M93.25 25.3c-.462 2.612-2.174 4.39-4.588 4.85-2.239.418-4.566-.636-5.75-2.59a5.653 5.653 0 0 1 .197-6.21c1.317-1.845 3.643-2.723 5.816-2.218a5.602 5.602 0 0 1 4.28 4.566c.088.483.088 1.01.044 1.602ZM93.205 55.436c-.044 2.678-1.887 4.872-4.521 5.421-2.985.615-6.036-1.405-6.585-4.368-.593-3.116 1.383-6.058 4.434-6.628a5.456 5.456 0 0 1 2.15 0c2.788.68 4.566 2.897 4.522 5.575ZM138.508 61.01c-2.832.572-5.795-1.272-6.475-4.104-.549-2.282.11-4.214 1.909-5.794 3.622-2.678 8.451-.724 9.087 3.665.417 2.92-1.58 5.641-4.521 6.234Z"/></svg>