<svg xmlns="http://www.w3.org/2000/svg" fill="none" viewBox="0 0 210 80"><path fill="#F46353" d="m3.067 37.97.5-2.968c.7-3.634 2.167-6.902 4.334-9.902.2-.267.4-.367.734-.367 3.9-.067 7.201 1.3 9.969 3.968 1.8 1.733 2.9 3.867 3.434 6.268.066.266 0 .466-.167.666-1.934 3.201-3.568 6.502-4.801 10.003-.667 1.9-1.2 3.8-1.3 5.801-.067 1.334.033 2.667.866 3.8.934 1.235 2.501 1.468 3.768.601 1.2-.834 1.834-2.067 2.334-3.367 1.033-2.568 1.467-5.268 1.667-8.035.2-2.701.2-5.435-.2-8.136-.067-.4.033-.7.267-1.067 1.233-1.9 2.567-3.7 4.134-5.334 1.533-1.6 3.2-2.934 5.468-3.367 2.5-.467 4.367.666 5.068 3.1.6 2.1.366 4.168-.167 6.235-.534 2-1.367 3.834-2.9 5.268-2.001 1.867-4.369 2.734-7.17 2.2-.6-.133-1.133-.4-1.666-.733-.534-.334-1.1-.267-1.434.2-.3.433-.2 1.033.3 1.4.967.734 2.1 1.1 3.334 1.2 4.268.267 7.502-1.5 9.736-5.1 1.567-2.501 2.267-5.269 2.267-8.203 0-1.8-.333-3.5-1.367-5.034-1.434-2.134-3.5-2.834-5.968-2.5-2.534.333-4.501 1.633-6.268 3.367-1.434 1.4-2.667 2.934-3.834 4.534-.134.2-.3.4-.467.634-2.467-6.202-7.102-9.47-13.603-10.336-.033-.067.067-.167.167-.233 3.967-4.001 8.735-6.502 14.336-7.269 6.768-.933 13.003.6 18.504 4.701 4.835 3.601 8.035 8.335 9.336 14.204 2.1 9.602-.467 17.837-7.702 24.505-3.668 3.4-8.069 5.401-13.003 6.068-7.768 1.034-14.637-1.034-20.471-6.301C6.667 54.44 4.1 49.405 3.2 43.504c-.067-.467-.1-.934-.2-1.434.067-1.433.067-2.734.067-4.1Zm16.503 6.534c.867-2.034 1.767-4 2.901-5.868.133 1 .133 1.967.1 2.967-.033 3.101-.367 6.169-1.3 9.136-.334 1.1-.8 2.134-1.567 3.034-.3.333-.6.633-1.067.567-.434-.067-.6-.467-.734-.834-.333-1.033-.266-2.067-.1-3.1.367-2.034 1-3.968 1.767-5.902Zm187.309-2.8c-.233 1-.5 1.967-1.1 2.834-.9 1.333-2.1 2.267-3.701 2.567-.933.167-1.934.3-2.9.2-2.734-.234-4.735-1.667-5.768-4.201-1.101-2.734-.834-5.435 1.066-7.802.967-1.2 2.234-2 3.768-2.334 1.734-.367 3.434-.3 5.068.4 1.233.567 2.2 1.434 2.934 2.7-.767.401-1.467.835-2.234 1.201-.1.067-.4-.133-.5-.3-.734-1.033-1.667-1.667-2.934-1.8-2.067-.234-4.068 1.167-4.668 3.267-.6 2.134-.167 4.034 1.534 5.535 1.834 1.633 5.268 1.233 6.135-1.3.1-.267.133-.534.233-.867h-3.234v-2.2H206.479c.134 0 .3.032.434.032l-.034 2.067Zm-78.917-4.001v8.635c0 .467-.134.633-.601.6-.6-.033-1.167-.033-1.767 0-.366.033-.5-.133-.466-.467V33.235c0-.434.133-.533.566-.6 1.001-.1 1.634.233 2.268 1 1.733 2.1 3.534 4.134 5.334 6.168.667.767 1.367 1.5 2.101 2.334.033-.2.066-.3.066-.434v-8.168c0-.4.1-.567.534-.533.733.033 1.5 0 2.267 0 0 .233.033.466.033.666v12.87c0 .633 0 .567-.6.667-1.034.166-1.667-.3-2.334-1.067l-7.101-8.135c-.067-.134-.134-.167-.3-.3Zm51.044.066v9.136h-2.5c-.1 0-.267-.167-.267-.3-.033-.234 0-.5 0-.734v-12.77c0-.366.067-.5.5-.533 1-.1 1.701.2 2.367 1 2.168 2.601 4.468 5.135 6.702 7.702.233.267.467.5.8.867v-9.135h2.767v14.136h-1.8c-.1 0-.2-.1-.267-.167l-6.135-6.968-2-2.234c-.133-.033-.167 0-.167 0ZM90.02 46.905c-1 0-1.934 0-2.834-.034-.1 0-.234-.2-.3-.333l-.967-2.3c-.067-.134-.267-.267-.4-.267-1.634-.034-3.268 0-4.901-.034-.3 0-.467.1-.567.4-.3.767-.6 1.5-.934 2.234a.551.551 0 0 1-.433.267c-.7.033-1.4.033-2.1 0-.468 0-.534-.067-.334-.5l2.034-4.801 2.533-6.002c.367-.9.767-1.8 1.168-2.667.066-.133.3-.267.466-.3.4-.033.8 0 1.234-.033.4-.033.6.167.733.5l3.334 8.102 2.1 5.068c0 .266.068.433.168.7Zm-6.902-9.836c-.033 0-.1 0-.133-.033L81.15 41.67h3.767l-1.8-4.6Zm-17.604 2.8v-6.367c0-.367.067-.534.534-.534l4.734.034c1.534.066 2.734.766 3.467 2.133 1.067 1.968.5 4.635-1.2 5.768-.833.534-1.734.734-2.7.767-.534 0-1.034.033-1.568 0-.333 0-.466.134-.433.467.033 1.4 0 2.8.033 4.2 0 .401-.1.601-.533.568a15.64 15.64 0 0 0-1.767 0c-.4.033-.5-.167-.5-.5v-2.1c-.067-1.468-.067-2.968-.067-4.435Zm2.834-.566c.133.033.233.067.367.067.533-.034 1.067-.034 1.6-.1.7-.067 1.334-.634 1.5-1.267.234-1.034 0-1.834-.666-2.267-.867-.567-1.8-.4-2.8-.467v4.034Zm52.245 7.568h-7.702l-.066-1.067V33.902c0-.934 0-.934.933-.934h6.468c.1 0 .2 0 .334.034v2.333h-4.868l-.067.5v2.001c0 .367.134.467.467.467h4.301v2.234c0 .066-.267.2-.4.233a71.035 71.035 0 0 1-3.767 0c-.467 0-.634.1-.601.6.034.867.034 1.734 0 2.6 0 .367.1.5.467.468 1.334-.034 2.634 0 3.968-.034.366 0 .567.1.533.534a18.896 18.896 0 0 0 0 1.933Zm35.375-13.903h.7c1.334 0 2.634.067 3.968 0 3.1-.1 4.867 2.3 4.401 5.301-.301 2-1.801 3.235-3.768 3.368-.834.066-1.667 0-2.601 0V46.404c0 .367-.1.534-.5.5-.633-.033-1.267 0-1.9 0-.267 0-.367-.066-.367-.366l.033-13.403c0-.033 0-.067.034-.167Zm2.7 4.335v1.667c0 .3.1.4.401.4.533-.034 1.033-.034 1.567-.1.766-.067 1.3-.5 1.533-1.234.267-.8.2-1.567-.433-2.167-.8-.767-1.834-.567-2.834-.6-.067 0-.2.233-.2.367-.034.566 0 1.1-.034 1.667Zm-10.069-1.934V46.438c0 .333-.066.5-.466.5-.734-.033-1.501 0-2.334 0l-.033-1.067v-9.735c0-.867.033-.734-.734-.734h-2.301c0-.167-.033-.3-.033-.433v-1.934h9.036v2.067c0 .334-.234.3-.467.3l-2.668-.033Zm-53.878 0H91.62v-2.367h8.969l-.034 2.167c0 .066-.266.2-.4.2h-2.667v11.536h-2.767V35.369Zm76.95-2.4v13.269c0 .667 0 .667-.666.667h-1.701c-.3 0-.4-.1-.4-.4v-13.07c0-.4.1-.5.5-.5.7.067 1.434.033 2.267.033Zm-66.781 0h2.333c.334 0 .434.1.434.4V46.47c0 .2 0 .434-.3.434h-2.434c-.033 0-.033-13.937-.033-13.937Z"/></svg>