<svg xmlns="http://www.w3.org/2000/svg" fill="none" viewBox="0 0 210 80"><path fill="#141414" fill-rule="evenodd" d="M17.33 28.517H12V51.46h6.654v-9.453h-1.335V28.517h.011Zm2.66 22.944v-9.453h1.335V28.517h3.994v13.49h1.336v9.454h-6.666Zm7.989.011h6.654V28.517h-5.32v13.49H27.98v9.465Z" clip-rule="evenodd"/><path fill="#000" d="M59.517 29.698h-2.999L50.86 45.725h2.705l1.143-3.27h6.608l1.132 3.27h2.738l-5.669-16.027Zm-4.085 10.623 2.591-7.445 2.57 7.445h-5.161Zm16.307-6.952c.633-.355 1.369-.539 2.24-.539v2.72h-.656c-1.019 0-1.788.263-2.309.78-.52.515-.78 1.422-.78 2.718v6.677h-2.592V33.037h2.592v1.847a4.112 4.112 0 0 1 1.516-1.515h-.011Zm16.691 2.57c-.52-.986-1.222-1.744-2.127-2.294a5.734 5.734 0 0 0-2.988-.815c-.95 0-1.81.195-2.569.597-.758.401-1.358.895-1.799 1.48v-1.87h-2.591V51.77h2.591v-7.882c.475.585 1.075 1.067 1.822 1.457.747.39 1.596.597 2.546.597a5.556 5.556 0 0 0 2.988-.85c.905-.561 1.607-1.341 2.127-2.351.51-.998.77-2.145.77-3.419 0-1.273-.26-2.397-.77-3.384Zm-2.399 5.69c-.362.666-.826 1.159-1.415 1.515-.564.34-1.21.519-1.867.516a3.671 3.671 0 0 1-1.855-.505c-.589-.344-1.053-.837-1.404-1.491-.362-.654-.543-1.411-.543-2.295 0-.883.181-1.629.543-2.283.351-.642.815-1.135 1.404-1.468a3.702 3.702 0 0 1 1.855-.505 3.7 3.7 0 0 1 1.868.493c.588.333 1.052.815 1.414 1.446.35.642.532 1.4.532 2.271 0 .872-.181 1.652-.532 2.306Zm17.212-2.558c0-1.227-.26-2.317-.769-3.258a5.585 5.585 0 0 0-2.162-2.203c-.928-.516-1.98-.78-3.157-.78s-2.32.264-3.26.803a5.564 5.564 0 0 0-2.206 2.295c-.52.986-.78 2.133-.78 3.441 0 1.308.26 2.455.803 3.442a5.648 5.648 0 0 0 2.23 2.306c.938.55 2.013.826 3.213.826 1.471 0 2.693-.379 3.689-1.124a5.727 5.727 0 0 0 2.06-2.869h-2.795c-.578 1.182-1.562 1.779-2.954 1.779-.973 0-1.788-.31-2.456-.918-.667-.62-1.04-1.434-1.109-2.444h9.563c.056-.39.09-.814.09-1.296Zm-9.63-.826c.113-.987.498-1.767 1.132-2.34.633-.574 1.403-.86 2.297-.86.984 0 1.81.286 2.478.871.668.585 1.007 1.365 1.019 2.329h-6.926Zm21.557-5.208v1.847c-.418-.585-1.007-1.079-1.754-1.469-.758-.39-1.618-.585-2.58-.585a5.677 5.677 0 0 0-2.987.815 5.774 5.774 0 0 0-2.139 2.294c-.52.987-.781 2.111-.781 3.384 0 1.274.261 2.421.781 3.419.521 1.01 1.234 1.79 2.139 2.352a5.5 5.5 0 0 0 2.987.849c.951 0 1.8-.207 2.558-.62.747-.401 1.335-.906 1.776-1.503v2.123c0 1.227-.316 2.157-.961 2.81-.645.643-1.494.964-2.535.964-.894 0-1.664-.206-2.309-.608-.645-.413-1.064-.94-1.256-1.606h-2.569c.147 1.388.781 2.478 1.901 3.281 1.121.815 2.535 1.216 4.233 1.216 1.267 0 2.365-.264 3.281-.792a5.29 5.29 0 0 0 2.105-2.145c.487-.918.725-1.962.725-3.12V33.037h-2.615Zm-.531 8.627a3.83 3.83 0 0 1-1.392 1.491c-.577.333-1.2.505-1.867.505a3.572 3.572 0 0 1-1.856-.516 3.846 3.846 0 0 1-1.404-1.515c-.362-.654-.543-1.422-.543-2.306 0-.883.181-1.629.543-2.271.351-.631.815-1.113 1.392-1.446a3.672 3.672 0 0 1 1.868-.493c.667 0 1.29.172 1.867.505.587.351 1.069.86 1.392 1.468.35.654.531 1.411.531 2.283 0 .872-.181 1.64-.531 2.295Zm15.944-8.627v1.847c-.43-.585-1.018-1.079-1.765-1.469-.747-.39-1.607-.585-2.58-.585a5.737 5.737 0 0 0-2.988.815c-.905.55-1.607 1.307-2.138 2.294-.521.987-.781 2.111-.781 3.384 0 1.274.26 2.421.781 3.419.531 1.01 1.233 1.79 2.138 2.352a5.559 5.559 0 0 0 2.988.849c.962 0 1.81-.207 2.557-.62.747-.401 1.347-.906 1.788-1.503v2.123c0 1.227-.328 2.157-.973 2.81-.645.643-1.482.964-2.535.964-.894 0-1.663-.206-2.297-.608-.645-.413-1.064-.94-1.267-1.606h-2.569c.158 1.388.792 2.478 1.912 3.281 1.121.815 2.535 1.216 4.221 1.216 1.279 0 2.377-.264 3.293-.792a5.205 5.205 0 0 0 2.094-2.145c.486-.918.735-1.962.735-3.12V33.037h-2.614Zm-.543 8.627c-.351.654-.815 1.147-1.392 1.491a3.68 3.68 0 0 1-1.867.505 3.507 3.507 0 0 1-1.845-.516c-.588-.356-1.052-.85-1.414-1.515-.351-.654-.532-1.422-.532-2.306 0-.883.181-1.629.532-2.271.362-.631.826-1.113 1.403-1.446a3.63 3.63 0 0 1 1.856-.493c.668 0 1.29.172 1.867.505s1.041.826 1.392 1.468c.362.654.543 1.411.543 2.283 0 .872-.181 1.64-.543 2.295Zm6.699-10.796a1.638 1.638 0 0 1-.475-1.193c0-.47.158-.872.475-1.193a1.594 1.594 0 0 1 1.177-.482 1.53 1.53 0 0 1 1.154.482c.317.322.476.723.476 1.193 0 .47-.159.872-.476 1.194a1.559 1.559 0 0 1-1.154.481c-.452 0-.86-.16-1.177-.482Zm-.136 2.169h2.592v12.688h-2.592V33.037ZM151.1 43.602h5.341v2.123h-7.933V29.72h2.592v13.881Zm16.884-10.565v1.847c-.442-.585-1.03-1.079-1.766-1.469-.735-.39-1.595-.585-2.58-.585a5.731 5.731 0 0 0-2.987.815 5.833 5.833 0 0 0-2.128 2.294c-.532.987-.792 2.111-.792 3.384 0 1.274.26 2.421.792 3.419.521 1.01 1.222 1.79 2.116 2.352.885.561 1.91.856 2.954.849.973 0 1.833-.207 2.591-.608.758-.39 1.358-.895 1.8-1.492v1.882h2.614V33.037h-2.614Zm-.532 8.627c-.362.654-.826 1.147-1.404 1.491a3.638 3.638 0 0 1-1.855.505 3.543 3.543 0 0 1-1.856-.516c-.589-.356-1.053-.85-1.415-1.515-.351-.654-.532-1.422-.532-2.306 0-.883.181-1.629.532-2.271.362-.631.826-1.113 1.403-1.446a3.675 3.675 0 0 1 1.868-.493 3.638 3.638 0 0 1 1.855.505c.578.333 1.042.826 1.404 1.468.35.654.532 1.411.532 2.283 0 .872-.182 1.64-.532 2.295Zm18.615-5.736c-.509-.987-1.211-1.756-2.105-2.295-.894-.539-1.901-.803-2.999-.803-.939 0-1.799.195-2.557.585-.77.39-1.369.895-1.811 1.515v-6.241h-2.591v17.036h2.591v-1.836c.442.597 1.03 1.09 1.788 1.469.747.39 1.607.585 2.58.585a5.559 5.559 0 0 0 2.988-.85 5.806 5.806 0 0 0 2.116-2.351c.52-.998.781-2.145.781-3.419 0-1.273-.261-2.409-.781-3.395Zm-2.388 5.701c-.362.666-.826 1.159-1.414 1.515a3.653 3.653 0 0 1-3.723.011c-.589-.344-1.053-.837-1.415-1.491-.351-.654-.532-1.411-.532-2.295 0-.883.181-1.629.532-2.283.362-.642.826-1.135 1.415-1.468a3.658 3.658 0 0 1 1.844-.505c.645 0 1.29.16 1.879.493.588.333 1.052.815 1.414 1.446.351.642.532 1.4.532 2.271 0 .872-.181 1.652-.532 2.306Zm7.627 3.763c-.78-.356-1.392-.849-1.855-1.48a3.663 3.663 0 0 1-.725-2.088h2.682c.045.54.294.987.758 1.343.464.355 1.041.539 1.743.539.702 0 1.29-.138 1.698-.425.396-.287.599-.654.599-1.09 0-.481-.226-.826-.667-1.055-.453-.23-1.155-.482-2.128-.757l-2.297-.757a4.094 4.094 0 0 1-1.539-1.125c-.43-.504-.645-1.17-.645-2.007a3.15 3.15 0 0 1 .588-1.859c.396-.562.962-.998 1.698-1.319.735-.321 1.584-.482 2.535-.482 1.426 0 2.568.367 3.44 1.09.871.734 1.335 1.72 1.403 2.983h-2.591c-.046-.574-.272-1.021-.679-1.365-.408-.333-.962-.505-1.664-.505-.701 0-1.199.126-1.562.39-.362.264-.543.608-.543 1.032a1.154 1.154 0 0 0 .362.849c.256.239.556.422.883.54l1.55.493c.906.24 1.653.493 2.241.745.577.253 1.086.631 1.505 1.113.43.493.645 1.148.656 1.962 0 .723-.192 1.365-.588 1.939-.396.573-.951 1.01-1.675 1.33-.724.322-1.561.482-2.535.482-.973 0-1.867-.183-2.648-.539v.023Z"/></svg>