<svg xmlns="http://www.w3.org/2000/svg" fill="none" viewBox="0 0 210 80"><path fill="#000" d="M32.885 26c.255.036.505.073.76.105 4.257.536 7.601 2.579 10.044 6.095.414.596.728 1.265 1.087 1.902.032.055.046.114.055.132L26.266 52.799a12.491 12.491 0 0 1-2.211-1.256L35.5 40.098l-.028-.064h-.264c-.946 0-1.892.005-2.838 0a.664.664 0 0 0-.514.214l-9.408 9.416c-.086.087-.16.192-.26.314-.117-.109-.2-.182-.277-.259-2.015-2.152-3.257-4.676-3.712-7.588-.036-.245-.05-.491-.086-.737-.028-.19-.073-.377-.114-.568V39.22c.036-.169.096-.337.11-.51.168-1.856.668-3.62 1.578-5.25 2.36-4.235 5.95-6.7 10.772-7.35l.819-.11h1.606ZM193 43.232c-.027.073-.059.15-.096.25h-11.759c0 .073-.014.123 0 .169.532 1.67 1.542 2.902 3.239 3.461 2.002.665 4.212-.145 5.336-1.928.127-.205.259-.273.491-.264.701.013 1.402.004 2.102.004.068 0 .137.014.232.023-.018.064-.027.114-.045.16-.997 2.333-2.68 3.907-5.177 4.49-2.47.577-4.649-.074-6.506-1.78-1.323-1.219-2.16-2.733-2.37-4.526-.277-2.429.378-4.59 2.075-6.387 1.078-1.146 2.411-1.86 3.962-2.106 3.849-.6 7.643 1.779 8.425 5.891.032.168.059.337.086.505v2.038H193Zm-2.702-2.106c-.187-2.043-2.252-4.135-4.931-3.949-1.247.087-2.289.637-3.13 1.551a4.238 4.238 0 0 0-1.124 2.398h9.185Zm-158.15 12.92c.059-.078.113-.169.182-.237 4.499-4.5 8.993-8.998 13.492-13.497.069-.069.146-.137.269-.25v.359c-.114 3.089-1.087 5.873-3.016 8.293-2.248 2.82-5.164 4.544-8.726 5.154-.382.064-.768.118-1.155.173h-1.05l.004.004Zm52.624-16.914v-2.02h2.684v14.302h-2.67v-2.142s-.041-.014-.06-.018c-.036.04-.077.081-.104.127-.865 1.32-2.097 2.106-3.635 2.315-2.898.392-5.35-.5-7.215-2.788-1.183-1.451-1.628-3.157-1.501-5.023.091-1.282.414-2.497 1.083-3.598 1.25-2.06 3.093-3.22 5.481-3.52 1.097-.137 2.18-.055 3.226.308 1.01.35 1.842.947 2.493 1.797.054.069.113.132.218.26ZM79.59 47.335c1.105 0 1.901-.209 2.624-.61 2.439-1.35 3.321-4.38 2.025-6.928-1.406-2.765-4.995-3.402-7.265-1.66-2.243 1.724-2.698 4.968-.983 7.215.97 1.27 2.252 1.952 3.603 1.983h-.004Zm89.954 2.08v-2.148s-.037-.014-.059-.018c-.032.032-.064.064-.087.105-.864 1.328-2.102 2.133-3.653 2.338-3.025.4-5.545-.569-7.401-3.035-1.051-1.396-1.433-3.006-1.315-4.744.091-1.351.441-2.616 1.165-3.762 1.155-1.834 2.811-2.939 4.945-3.321 1.246-.223 2.479-.169 3.684.245a5.232 5.232 0 0 1 2.475 1.775c.055.072.118.14.178.209 0 0 .018 0 .059-.01v-1.937h2.684v14.302h-2.675Zm-4.959-2.075c.755 0 1.474-.164 2.152-.496 2.215-1.083 3.321-3.557 2.661-6.005-1.014-3.744-5.322-4.676-7.829-2.58-1.933 1.62-2.452 4.432-1.155 6.593.941 1.569 2.333 2.415 4.176 2.483l-.005.005Zm-37.425-2.361h2.961c.014.027.041.06.055.096.309.868.923 1.446 1.756 1.8.9.388 1.847.483 2.811.406.705-.06 1.383-.214 2.011-.55.755-.406 1.324-.979 1.528-1.843.228-.969-.013-1.792-.814-2.42-.5-.391-1.078-.65-1.679-.833-.955-.286-1.919-.55-2.879-.814-.787-.214-1.561-.45-2.293-.814-.61-.305-1.178-.673-1.665-1.16-.946-.947-1.347-2.102-1.274-3.421.105-1.888 1.065-3.257 2.675-4.172 2.238-1.274 5.605-1.424 8.093.214 1.101.723 1.965 1.656 2.447 2.902.082.21.132.428.196.642-.241.068-2.557.086-2.971.032-.009-.019-.027-.032-.031-.05-.378-1.179-1.224-1.852-2.38-2.166-1.11-.3-2.22-.268-3.302.146-.478.182-.896.46-1.242.841-.824.901-1.028 2.484.227 3.508a4.606 4.606 0 0 0 1.602.846c.964.287 1.942.541 2.916.8.887.237 1.751.537 2.556.983.755.423 1.419.95 1.915 1.665.692.996.906 2.11.76 3.294-.277 2.233-1.619 3.603-3.657 4.358-1.388.514-2.83.596-4.295.477a8.443 8.443 0 0 1-2.37-.523c-1.342-.514-2.425-1.342-3.116-2.63a4.81 4.81 0 0 1-.537-1.614h-.004Zm-9.121-.036c-.087.204-.146.368-.223.523-1.028 2.133-2.657 3.575-4.982 4.126-2.479.587-4.671-.055-6.537-1.765-1.26-1.156-2.069-2.589-2.338-4.281-.596-3.708 1.488-7.624 5.418-8.62 3.953-1.001 8.229 1.428 9.012 5.818.159.9.155 1.801.036 2.734-.8.032-1.587.009-2.374.013h-9.449c0 .06-.013.091-.004.119.532 1.706 1.555 2.961 3.298 3.516a4.61 4.61 0 0 0 5.304-1.956c.109-.177.223-.26.437-.255.7.014 1.401.005 2.101.005.082 0 .16.009.301.018v.005Zm-11.446-3.822h9.18c-.214-2.056-2.188-3.935-4.572-3.958-2.265-.022-4.371 1.788-4.603 3.958h-.005Zm-50.386 2.37v5.919h-2.661V30.29c.114-.005.214-.014.314-.014h6.332c3.33.01 5.937 2.211 6.5 5.496.301 1.756.042 3.407-.991 4.89-1.1 1.578-2.643 2.47-4.53 2.757-.374.059-.76.068-1.138.072-1.142.01-2.284 0-3.426 0h-.4Zm.018-2.36c.082.004.141.013.2.013 1.288 0 2.57.01 3.858-.01a3.77 3.77 0 0 0 1-.163c1.82-.546 3.108-2.434 2.949-4.422-.164-2.001-1.81-3.962-4.227-3.912-1.132.023-2.26 0-3.393 0h-.378v8.489l-.009.004Zm36.22 8.288h-2.843V35.107h2.661v1.465c.032.018.069.036.1.06.032-.064.055-.133.1-.187.933-1.106 2.148-1.629 3.567-1.724 1.037-.069 2.056.05 3.03.45 1.683.687 2.716 1.943 3.189 3.68a6.65 6.65 0 0 1 .241 1.77c.009 2.861.004 5.723.004 8.584 0 .06-.004.118-.009.173-.241.064-2.306.077-2.693.014v-7.83c0-.705-.05-1.4-.268-2.074-.1-.31-.228-.618-.392-.9-.513-.879-1.332-1.288-2.315-1.397-.65-.073-1.296-.046-1.92.177-.978.35-1.642 1.033-2.042 1.98-.305.722-.414 1.482-.414 2.26v7.802l.004.009Zm64.015-4.454c-.027.1-.04.169-.068.232-1.014 2.316-2.702 3.862-5.199 4.413-4.427.978-8.312-1.96-8.917-6-.405-2.716.314-5.118 2.343-7.024 1.601-1.506 3.548-2.061 5.723-1.829 1.76.187 3.28.905 4.535 2.156a6.528 6.528 0 0 1 1.511 2.343c.027.078.054.155.077.232.005.018-.005.041-.009.078-.073.004-.155.013-.232.013-.833 0-1.67-.004-2.502.005-.191 0-.296-.069-.382-.228a4.193 4.193 0 0 0-.378-.564c-.805-1.046-1.869-1.574-3.189-1.62-1.151-.04-2.206.242-3.116.965-.905.723-1.437 1.683-1.665 2.807-.277 1.365-.159 2.688.501 3.93 1.364 2.58 4.18 2.916 6.027 2.011a4.132 4.132 0 0 0 1.779-1.66c.123-.214.259-.269.491-.269.783.014 1.565.005 2.348.005h.327l-.005.004Zm-30.524 2.27c.327.71.732 1.338 1.255 1.92-.081.055-.145.105-.213.141a4.448 4.448 0 0 1-1.502.45c-.773.096-1.542.073-2.292-.154-1.561-.464-2.507-1.692-2.575-3.321-.005-.146 0-.287 0-.432V37.44h-2.093v-2.343h2.088v-4.8h2.693v4.791h2.989v2.343h-2.943c-.014.105-.032.182-.032.26v7.906c0 .223.032.455.086.668.155.61.596.978 1.224 1.056.432.054.86.022 1.319-.082l-.004-.005ZM68.217 30.3h2.612c.068.246.095 18.351.036 19.074-.213.069-2.242.087-2.647.019V30.299Zm106.136-.01h2.648v19.125c-.874.032-1.752.01-2.648.018V30.29Z"/></svg>