<svg xmlns="http://www.w3.org/2000/svg" fill="none" viewBox="0 0 210 80"><path fill="#000" fill-rule="evenodd" d="m125.985 31.732.624-3.052c-1.259-.39-2.697-.68-4.078-.68-3.131 0-5.849 1.57-5.849 5.715v1.226h-2.24v3.743h2.24v12.79h4.824v-12.79h4.378v-3.743h-4.378v-1.092c0-1.682 1.092-2.529 2.484-2.54.635 0 1.326.156 1.995.412v.011Zm-54.103-3.409v8.746c-1.381-1.526-3.253-2.462-5.336-2.462-4.479 0-7.298 3.843-7.298 8.6 0 4.758 2.82 8.602 7.298 8.602 2.072 0 3.977-.936 5.336-2.462v2.128h4.825V28.323h-4.825Zm0 17.28c-.757 1.226-2.083 2.028-3.587 2.028-2.362 0-4.3-1.972-4.3-4.423s1.938-4.423 4.3-4.423c1.504 0 2.83.802 3.587 2.016v4.802ZM34.114 34.607c-5.025 0-9.114 3.843-9.114 8.6 0 4.758 4.089 8.602 9.114 8.602 5.024 0 9.102-3.844 9.102-8.601 0-4.758-4.089-8.601-9.102-8.601ZM34.08 47.63c-2.395 0-4.356-1.972-4.356-4.423s1.96-4.423 4.356-4.423c2.395 0 4.345 1.972 4.345 4.423 0 2.45-1.96 4.423-4.345 4.423Zm17.436-5.96c1.683-1.973 3.822-3.076 6.083-3.076v-3.977c-2.128 0-4.345 1.214-6.083 3.41v-3.076h-4.824v16.534h4.824V41.67Zm45.512 1.537c0-4.758-3.13-8.601-8.422-8.601-4.635 0-8.423 3.843-8.423 8.6 0 4.758 3.855 8.602 8.59 8.602a9.92 9.92 0 0 0 6.974-2.841l-2.518-2.306c-1.047 1.025-2.529 1.593-4.044 1.593-2.273 0-4.256-1.504-4.345-3.8h12.188v-1.247Zm-12.155-1.08c0-2.24 1.727-4.034 3.833-4.034 2.395 0 3.821 1.783 3.821 4.033h-7.654Zm26.383-3.533c-2.262 0-4.401 1.103-6.083 3.075v9.805h-4.824V34.94h4.824v3.075c1.738-2.195 3.955-3.41 6.083-3.41v3.99Zm22.193 6.095c0 2.05 1.148 3.142 2.864 3.142 1.715 0 3.186-.591 4.4-1.65V34.942h4.825v16.534h-4.825V49.48c-1.838 1.493-4.133 2.318-6.317 2.318-3.231 0-5.76-1.839-5.76-5.66V34.941h4.824v9.737l-.011.012Z" clip-rule="evenodd"/><path fill="#000" d="M149.693 28.323h4.824v23.151h-4.824V28.323Z"/><path fill="#F15B43" fill-rule="evenodd" d="m185 38.139-7.509-.758h-.011l3.576-7.242-3.042-1.972-5.035 6.551-.067-.033-4.925-6.518-3.041 1.972 3.587 7.242-7.531.758.022 3.676 7.91.724-3.353 6.93 3.064 1.928 4.356-5.883 4.356 5.883 3.064-1.928-3.354-6.93 7.911-.724.022-3.676Z" clip-rule="evenodd"/></svg>