<svg xmlns="http://www.w3.org/2000/svg" fill="none" viewBox="0 0 210 80"><g clip-path="url(#a)"><path fill="url(#b)" fill-rule="evenodd" d="m65.907 64 .038-.02.037.02 10.414-5.956 10.493-5.998v-24l-4.716 2.696-2.755 1.724-6.019 3.477v5.489l8.77-5.047v8.736l-.071 4.128-16.157 9.237-16.158-9.237-.07-4.128V30.742l.037-.02.033.02 16.162-9.232 11.39 6.51 4.838-2.762L65.983 16l-.038.02-.038-.02L45 27.954v24.092l10.493 5.998L65.907 64Z" clip-rule="evenodd"/><path fill="url(#c)" fill-rule="evenodd" d="m53.548 33.143 5.096 3.026v7.943l7.3 4.32 7.3-4.32V42.7l5.097-3.018v7.555l-12.396 7.338-12.397-7.338V33.143Z" clip-rule="evenodd"/><path fill="#002270" d="M114.016 53.566h-5.013l-9.667-24.627h4.875l7.313 19.614 7.175-19.613h4.846l-9.529 24.625ZM137.26 50.055c1.657 0 2.838-.334 4.049-.885v-8.69h4.357v11.487c-2.391 1.465-5.063 2.438-8.464 2.438-6.833 0-12.823-5.038-12.823-12.927 0-7.889 5.932-12.952 12.852-12.952 2.926 0 5.539.718 7.563 1.854v4.679c-2.191-1.495-4.696-2.133-7.058-2.133-4.95 0-8.519 3.627-8.519 8.606 0 4.98 3.514 8.523 8.072 8.523h-.029ZM164.249 30.162v4.32c-1.674-1.177-4.049-1.862-6.086-1.862-2.316 0-4.078.985-4.078 2.788 0 1.67 1.507 2.463 4.383 3.636 3.631 1.478 7.233 3.01 7.233 7.467 0 4.458-3.685 7.467-8.878 7.467-3.042 0-5.751-1.04-7.4-2.241v-4.62c1.732 1.615 4.412 2.762 7.008 2.762s4.466-1.202 4.466-3.226c0-1.832-1.786-2.734-4.716-3.965-3.294-1.34-6.729-2.926-6.729-7.113 0-4.186 3.46-7.054 8.49-7.054 2.483 0 4.716.685 6.336 1.64h-.029Z"/></g><defs><linearGradient id="b" x1="73.232" x2="58.469" y1="17.837" y2="62.727" gradientUnits="userSpaceOnUse"><stop stop-color="#7266B5"/><stop offset=".11" stop-color="#8779D5"/><stop offset=".26" stop-color="#4B91E1"/><stop offset=".77" stop-color="#41D8F1"/><stop offset="1" stop-color="#81ECD3"/></linearGradient><linearGradient id="c" x1="67.652" x2="62.459" y1="33.314" y2="54.237" gradientUnits="userSpaceOnUse"><stop stop-color="#7266B5"/><stop offset=".11" stop-color="#8779D5"/><stop offset=".26" stop-color="#4B91E1"/><stop offset=".77" stop-color="#41D8F1"/><stop offset="1" stop-color="#81ECD3"/></linearGradient><clipPath id="a"><path fill="#fff" d="M45 16h120.701v48H45z"/></clipPath></defs></svg>