<svg xmlns="http://www.w3.org/2000/svg" fill="none" viewBox="0 0 210 80"><path fill="#000" d="M138.666 24.13c5.621 1.657 8.131 5.897 9.202 11.246.904 4.517.703 8.982-1.136 13.28-1.704 3.987-4.645 6.47-8.941 7.282-.861.081-1.736.084-2.626 0-6.018-1.652-8.431-6.187-9.412-11.828-.612-3.528-.557-7.056.45-10.52 1.392-4.798 4.234-8.2 9.253-9.46.969-.179 2.046-.167 3.21 0Zm-8.136 7.592a35.119 35.119 0 0 0-.399 11.297c.038.286.076.569.122.855.496 3.146 1.334 6.2 3.671 8.562 2.65 2.676 6.339 2.209 8.221-1.05.502-.87.893-1.845 1.138-2.823 1.086-4.322.876-8.673.146-13.02-.473-2.814-1.278-5.516-3.274-7.655-2.965-3.181-7.433-2.539-8.956 1.5-.237.438-.464 1.313-.669 2.337v-.003Zm-70.746-7.006H76.57v6.504l-.266.275c-2.515-4.736-6.697-5.738-11.626-5.498v12.659c3.432.236 6.78.047 9.444-3.172v7.106c-1.45-.7-2.878-1.637-4.448-2.072-1.59-.444-3.32-.388-4.946-.549v13.768c5.06.438 9.046-.919 11.795-5.36v6.685H59.79a141.952 141.952 0 0 0-.008-30.343l.002-.003ZM38 47.959l3.712-2.124c.598 1.415 1.065 2.737 1.695 3.977 1.51 2.98 4.01 4.471 6.473 3.96 1.634-.338 2.915-1.161 3.373-2.842.56-2.057.225-4.01-1.336-5.518-1.001-.97-2.2-1.751-3.368-2.527-2.06-1.372-4.24-2.574-6.233-4.03-5.186-3.785-3.779-10.915 1.865-13.486 3.42-1.558 7.01-1.33 10.56-.373.307.082.748.575.721.837-.195 1.924-.49 3.838-.79 6-.739-.936-1.278-1.713-1.912-2.401-1.596-1.74-3.481-2.904-5.944-2.977-1.815-.052-3.283.508-4.109 2.183-.86 1.748-.887 3.616.461 5.054 1.275 1.36 2.845 2.469 4.383 3.554 1.623 1.147 3.388 2.093 5.037 3.208 3.4 2.3 4.602 5.404 3.587 9.046-.987 3.543-4.144 6.012-7.938 6.207-4.984.26-8.471-2.334-10.237-7.745v-.003Zm83.216-22.77c-.316 2.24-.61 4.333-.934 6.615-.797-.986-1.407-1.853-2.131-2.615-1.558-1.64-3.411-2.681-5.757-2.737-1.815-.04-3.271.528-4.077 2.224-.861 1.82-.829 3.709.587 5.17 1.263 1.308 2.81 2.368 4.313 3.415 1.751 1.22 3.65 2.232 5.384 3.476 3.032 2.177 4.115 5.162 3.251 8.535-.849 3.313-3.663 5.854-7.045 6.368-5.223.794-9.761-2.308-11.13-7.698l3.496-2.046c.995 1.882 1.842 3.788 2.962 5.513 1.162 1.788 2.962 2.67 5.139 2.38 1.757-.233 3.152-1.114 3.63-2.926.561-2.125.225-4.208-1.52-5.591-2.2-1.74-4.64-3.175-6.977-4.74-.765-.513-1.553-.995-2.303-1.532-5.302-3.802-3.834-10.686.989-13.263 3.919-2.092 7.938-1.666 12.123-.557v.009Zm-18.551 29.943h-7.144c0-1.832.175-3.624-.035-5.37-.537-4.508-.604-4.5-5.055-4.5-1.36 0-2.728-.07-4.08.042-.431.035-1.058.467-1.199.86-1.024 2.863-1.643 5.79-.755 8.933h-4.769c4.477-9.347 6.566-19.464 9.94-29.135.265-.762.397-1.38 1.485-1.363 1.013.015 1.278.467 1.54 1.293 2.694 8.454 5.4 16.905 8.172 25.333.432 1.313 1.211 2.515 1.9 3.913v-.006ZM89.582 30.71l-.265-.006-3.975 13.202h8.168L89.585 30.71h-.003Zm79.571 17.276c-.59-7.71.878-15.505-1.121-23.253h4.098c-2.084 5.381-1.165 10.92-1.299 16.374-.114 4.614-.023 9.23-.023 13.83-2.344.665-2.726.496-3.832-1.532-4.001-7.325-8.008-14.644-12.213-21.94.313 7.839-1.036 15.72.861 23.612h-3.613c1.392-10.106 1.226-20.203.17-30.361h4.765c.49 1.576.712 3.07 1.383 4.327 3.406 6.374 6.928 12.683 10.407 19.016.14-.024.277-.047.417-.073Z"/></svg>