<svg xmlns="http://www.w3.org/2000/svg" fill="none" viewBox="0 0 210 80"><path fill="#3A715D" d="M37.41 27a97.596 97.596 0 0 0-.223 3.134 96.468 96.468 0 0 0-.04 2.333c0 .494 0 .96.04 1.4.026.44.053.814.079 1.107h-.83c-.237-1.8-.619-3.214-1.12-4.254-.513-1.053-1.171-1.8-2-2.213-.804-.44-1.739-.667-2.832-.667h-1.488c-.698 0-1.238.067-1.593.187a1.077 1.077 0 0 0-.725.733c-.118.373-.184.933-.184 1.694v19.201c0 .76.066 1.334.184 1.694.119.373.369.613.724.733.37.12.896.187 1.594.187h1.778c1.093 0 2.04-.24 2.87-.707.843-.493 1.568-1.32 2.147-2.48.606-1.16 1.067-2.72 1.383-4.694h.83c-.08.787-.106 1.827-.106 3.107 0 .56 0 1.36.04 2.4.026 1.04.092 2.107.223 3.214a97.452 97.452 0 0 0-4.174-.08c-1.554-.027-2.924-.04-4.135-.04h-2.318c-.948 0-1.962 0-3.055.04-1.093 0-2.186 0-3.305.04-1.12 0-2.16 0-3.16.04v-.734c.776-.053 1.355-.146 1.737-.293.382-.147.646-.44.764-.88.145-.44.224-1.107.224-2V30.92c0-.906-.079-1.573-.224-2a1.213 1.213 0 0 0-.286-.548 1.19 1.19 0 0 0-.517-.332c-.382-.173-.961-.267-1.712-.293v-.734c.988.027 2.041.054 3.16.08 1.12 0 2.213 0 3.306.04h9.152a216.4 216.4 0 0 0 3.806-.106L37.411 27Zm-5.662 12.628v.733h-6.347v-.733h6.347Zm1.054-4.88c-.093 1.4-.145 2.48-.145 3.213.026.733.04 1.413.04 2.027 0 .613 0 1.293.039 2.026.026.734.079 1.814.184 3.214h-.83a8.721 8.721 0 0 0-.684-2.4c-.316-.734-.777-1.334-1.383-1.774-.606-.466-1.396-.706-2.357-.706v-.734c.724 0 1.343-.146 1.857-.44a3.87 3.87 0 0 0 1.238-1.213c.342-.52.605-1.054.803-1.627.197-.56.342-1.093.434-1.587h.83-.026Zm12.102 18.667c-1.093 0-2.002-.213-2.726-.626-.724-.414-1.264-.974-1.593-1.667a5.349 5.349 0 0 1-.514-2.334c0-1.053.224-1.92.685-2.586.487-.667 1.106-1.2 1.856-1.627.751-.414 1.541-.76 2.358-1.04.843-.267 1.646-.534 2.396-.774.777-.267 1.396-.573 1.857-.92.487-.373.724-.84.724-1.4v-2.88c0-.64-.105-1.2-.329-1.694a2.358 2.358 0 0 0-.948-1.186c-.408-.267-.961-.4-1.633-.4-.487 0-.974.08-1.448.226-.488.12-.883.347-1.199.667.672.24 1.199.627 1.567 1.147.38.48.585 1.078.58 1.693 0 .84-.29 1.507-.87 2-.553.494-1.224.734-2.001.734-.87 0-1.54-.267-2.002-.814-.434-.56-.658-1.24-.658-2.026 0-.72.171-1.307.514-1.774.368-.467.855-.907 1.487-1.333.672-.4 1.489-.707 2.437-.92.961-.227 2.001-.334 3.12-.334 1.12 0 2.12.12 3.016.373.896.227 1.647.64 2.252 1.254.553.56.922 1.267 1.093 2.107.172.813.25 1.853.25 3.107v10.04c0 .614.066 1.04.185 1.294.118.227.33.333.619.333.224 0 .421-.066.619-.186.224-.12.447-.267.684-.44l.37.626a5.91 5.91 0 0 1-1.779 1.04c-.658.227-1.395.334-2.212.334-.895 0-1.607-.12-2.146-.374-.527-.266-.922-.626-1.16-1.066-.223-.44-.328-.96-.328-1.547-.58.933-1.278 1.68-2.108 2.213-.816.52-1.83.774-3.015.774v-.014Zm2.58-2.36c.488 0 .923-.106 1.305-.333.408-.24.803-.64 1.158-1.187v-7.574a3.593 3.593 0 0 1-.908 1c-.382.294-.803.6-1.238.92a10.95 10.95 0 0 0-1.264 1 4.625 4.625 0 0 0-.948 1.36c-.237.547-.37 1.2-.37 1.96 0 .96.212 1.68.62 2.148.408.466.961.706 1.633.706h.013Zm22.967-17.521c.777 0 1.41.173 1.884.52.487.32.83.733 1.053 1.253.237.52.369 1.054.369 1.627 0 .907-.264 1.667-.804 2.254-.513.56-1.185.853-2.028.853-.842 0-1.514-.213-2.001-.627-.461-.44-.685-1.026-.685-1.733 0-.707.145-1.254.434-1.694a4.489 4.489 0 0 1 1.16-1.186 1.65 1.65 0 0 0-1.015.04c-.46.08-.895.266-1.303.586-.409.294-.764.68-1.054 1.147-.29.44-.527.934-.685 1.48a4.834 4.834 0 0 0-.25 1.52v9.788c0 1.186.277 1.986.83 2.4.58.413 1.435.627 2.58.627v.773c-.552-.027-1.369-.053-2.435-.08a66.845 66.845 0 0 0-3.345-.08c-.962 0-1.95.027-2.937.08-.988.027-1.738.053-2.252.08v-.773c.843 0 1.436-.187 1.778-.56.369-.374.54-1.067.54-2.107V38.08c0-1.107-.171-1.92-.514-2.44-.316-.547-.921-.814-1.817-.814v-.773c.777.08 1.528.106 2.252.106 1.014 0 1.962-.04 2.831-.106.896-.093 1.712-.24 2.463-.4v3.44a6.726 6.726 0 0 1 1.159-1.813 5.081 5.081 0 0 1 1.672-1.254c.632-.32 1.33-.48 2.107-.48l.013-.013Zm17.225 0c1.014 0 1.844.133 2.463.4.658.24 1.159.587 1.527 1.04.382.467.672 1.067.83 1.813.197.734.29 1.734.29 2.987v9.934c0 1.04.17 1.734.513 2.107.369.374.975.56 1.817.56v.774a77.412 77.412 0 0 0-2.067-.08 47.174 47.174 0 0 0-5.452 0c-.87.026-1.54.053-2.002.08v-.774c.725 0 1.238-.186 1.528-.56.29-.373.435-1.066.435-2.107v-11.48c0-.614-.066-1.147-.185-1.587-.118-.467-.342-.827-.658-1.067-.316-.267-.79-.4-1.41-.4-.618 0-1.264.187-1.817.56-.526.373-.96.88-1.303 1.547-.316.64-.474 1.36-.474 2.173v10.268c0 1.04.145 1.733.434 2.107.316.373.817.56 1.528.56v.773a70.906 70.906 0 0 0-1.923-.08 39.879 39.879 0 0 0-2.58-.08c-.896 0-1.858.027-2.832.08-.962.027-1.699.053-2.173.08v-.773c.843 0 1.435-.187 1.778-.56.368-.374.54-1.067.54-2.107V38.08c0-1.107-.172-1.92-.514-2.44-.316-.547-.922-.814-1.817-.814v-.773c.777.08 1.527.106 2.252.106 1.014 0 1.962-.04 2.83-.106.896-.093 1.713-.24 2.464-.4v3.32c.605-1.253 1.422-2.147 2.462-2.653 1.04-.52 2.2-.774 3.49-.774l.026-.013ZM96.104 27c.632.027 1.449.053 2.463.08 1.014.027 2.028.04 3.055.04 1.159 0 2.291 0 3.371-.04 1.093-.027 1.857-.04 2.318-.04 3.002 0 5.241.547 6.716 1.627 1.501 1.08 2.252 2.48 2.252 4.173 0 .867-.25 1.734-.764 2.627-.514.88-1.291 1.68-2.357 2.36-1.067.694-2.45 1.2-4.135 1.52v.08c2.278.174 4.082.587 5.412 1.254s2.291 1.467 2.871 2.4c.579.934.869 1.907.869 2.92 0 1.547-.395 2.854-1.198 3.92-.804 1.054-1.949 1.868-3.451 2.44-1.501.548-3.292.814-5.372.814-.58 0-1.409 0-2.502-.04a82.89 82.89 0 0 0-3.951-.08c-1.067 0-2.107 0-3.121.04-1.014 0-1.844.027-2.463.08v-.733c.777-.053 1.357-.147 1.739-.293.382-.147.645-.44.763-.88.145-.44.224-1.107.224-2V30.92c0-.906-.079-1.573-.224-2a1.214 1.214 0 0 0-.286-.548 1.191 1.191 0 0 0-.517-.332c-.382-.173-.961-.267-1.712-.293V27Zm10.746.733c-.948 0-1.567.214-1.857.627-.263.413-.395 1.267-.395 2.547v18.321c0 .867.066 1.52.184 1.96.145.44.382.734.725.88.368.147.895.227 1.593.227 1.738 0 3.016-.56 3.806-1.666.816-1.134 1.238-2.734 1.238-4.8 0-1.894-.474-3.361-1.409-4.401-.922-1.04-2.45-1.547-4.609-1.547h-3.082v-.627h3.121c1.133 0 2.015-.266 2.608-.813.605-.56 1.027-1.307 1.264-2.214.237-.933.368-1.933.368-2.986 0-1.827-.276-3.187-.829-4.094-.553-.934-1.462-1.4-2.726-1.4v-.014Zm21.913 5.8c2.133 0 3.792.64 5.004 1.921 1.211 1.28 1.817 3.374 1.817 6.28H123.64l-.079-.706h7.44c.027-1.2-.052-2.32-.223-3.32-.172-1.04-.435-1.854-.804-2.48-.368-.614-.843-.92-1.448-.92-.843 0-1.567.546-2.173 1.626-.58 1.08-.935 2.88-1.054 5.387l.106.227-.079.92v1c0 1.693.224 3.08.684 4.134.488 1.053 1.093 1.84 1.818 2.333.724.467 1.462.707 2.212.707a5.93 5.93 0 0 0 1.567-.227 5.637 5.637 0 0 0 1.673-.88c.553-.44 1.079-1.053 1.567-1.84l.658.227c-.29.933-.75 1.84-1.383 2.733a7.559 7.559 0 0 1-2.396 2.174c-.975.56-2.134.853-3.49.853-1.646 0-3.095-.36-4.359-1.067-1.264-.72-2.252-1.8-2.976-3.253-.698-1.454-1.054-3.294-1.054-5.547 0-2.254.369-4.2 1.12-5.72.777-1.52 1.83-2.654 3.16-3.401 1.357-.76 2.897-1.147 4.609-1.147l.027-.013ZM144.341 28v6.054h4.28v.733h-4.28v14.921c0 .734.132 1.267.396 1.587.263.294.671.44 1.198.44.434 0 .869-.16 1.304-.48.434-.347.816-.92 1.158-1.733l.619.333c-.382 1.107-.974 2.014-1.777 2.734-.777.72-1.844 1.066-3.2 1.066-.804 0-1.502-.106-2.107-.333-.606-.2-1.12-.507-1.528-.92a4.024 4.024 0 0 1-1.054-2c-.171-.814-.25-1.854-.25-3.134v-12.48h-3.055v-.734h3.055v-4.88c1.014 0 1.949-.08 2.792-.254a9.4 9.4 0 0 0 2.436-.92h.013Z"/><path fill="#3A715D" d="M155.337 28v6.054h4.28v.733h-4.28v14.921c0 .734.132 1.267.395 1.587.264.294.672.44 1.199.44.434 0 .869-.16 1.303-.48.435-.347.817-.92 1.159-1.733l.619.333a6.512 6.512 0 0 1-1.778 2.734c-.777.72-1.843 1.066-3.2 1.066-.803 0-1.501-.106-2.107-.333-.605-.2-1.119-.507-1.527-.92-.54-.547-.883-1.2-1.054-2-.171-.814-.25-1.854-.25-3.134v-12.48h-3.042v-.734h3.042v-4.88c1.014 0 1.949-.08 2.792-.254a9.41 9.41 0 0 0 2.436-.92h.013Zm13.893 5.534c2.134 0 3.793.64 5.004 1.92 1.212 1.28 1.818 3.373 1.818 6.28h-11.944l-.079-.706h7.44c.026-1.2-.053-2.32-.224-3.32-.171-1.04-.434-1.854-.803-2.48-.369-.614-.843-.92-1.449-.92-.843 0-1.567.546-2.173 1.626-.579 1.08-.935 2.88-1.053 5.387l.105.227-.079.92v1c0 1.693.224 3.08.685 4.133.487 1.054 1.093 1.84 1.817 2.334.725.467 1.462.707 2.213.707.513 0 1.027-.08 1.554-.227a5.632 5.632 0 0 0 1.672-.88c.553-.44 1.08-1.053 1.567-1.84l.659.227c-.29.933-.751 1.84-1.383 2.733a7.554 7.554 0 0 1-2.397 2.174c-.974.56-2.133.853-3.49.853-1.646 0-3.094-.36-4.358-1.067-1.265-.72-2.252-1.8-2.977-3.253-.698-1.454-1.053-3.294-1.053-5.547 0-2.254.382-4.2 1.119-5.72.777-1.521 1.831-2.654 3.161-3.401 1.356-.76 2.897-1.147 4.609-1.147l.039-.013Zm20.478 0c.777 0 1.409.173 1.883.52.487.32.83.733 1.053 1.253.237.52.356 1.054.356 1.627 0 .907-.263 1.667-.803 2.254-.514.56-1.185.853-2.028.853s-1.515-.213-2.002-.627c-.461-.44-.685-1.026-.685-1.733 0-.707.145-1.254.435-1.694a4.488 4.488 0 0 1 1.159-1.187 1.65 1.65 0 0 0-1.014.04c-.461.08-.896.267-1.304.587-.408.294-.764.68-1.054 1.147-.289.44-.526.933-.684 1.48a4.811 4.811 0 0 0-.25 1.52v9.788c0 1.186.276 1.986.829 2.4.58.413 1.436.627 2.581.627v.773c-.553-.027-1.369-.053-2.436-.08a66.858 66.858 0 0 0-3.345-.08c-.961 0-1.949.027-2.937.08-.987.027-1.738.053-2.251.08v-.773c.842 0 1.435-.187 1.777-.56.369-.374.54-1.067.54-2.107V38.08c0-1.107-.171-1.92-.513-2.44-.316-.547-.922-.814-1.818-.814v-.773c.777.08 1.528.106 2.252.106 1.014 0 1.962-.04 2.832-.106.895-.093 1.712-.24 2.462-.4v3.44a6.738 6.738 0 0 1 1.159-1.813 5.079 5.079 0 0 1 1.672-1.254c.633-.32 1.331-.48 2.107-.48l.027-.013Z"/></svg>