<svg xmlns="http://www.w3.org/2000/svg" fill="none" viewBox="0 0 210 80"><path fill="#000" d="M120.772 52.385v-.637c-.006-3.194.012-6.382-.035-9.575-.017-.934-.162-1.873-.371-2.783-.272-1.182-1.124-1.802-2.312-1.918-1.786-.18-3.461.25-5.037 1.06-.168.088-.29.435-.29.667-.017 4.133-.012 8.266-.012 12.398v.777h-2.544V35.513h2.463c.018.336.035.678.052 1.055 3.165-1.46 6.295-2.458 9.315.087 1.42-.447 2.84-1.032 4.318-1.316 1.124-.22 2.347-.203 3.489-.04 2.127.307 3.31 1.674 3.64 4.074a30.81 30.81 0 0 1 .29 3.797c.041 2.938.012 5.877.012 8.81 0 .116-.024.232-.035.382h-2.539v-.678c0-3.037.041-6.069-.012-9.106-.017-1.066-.179-2.144-.399-3.188-.244-1.136-1.067-1.767-2.203-1.9-1.988-.233-3.831.29-5.57 1.135.637 4.585.209 9.14.377 13.76h-2.597Zm47.337-16.866v-7.396h2.469V52.35h-2.446V51.29c-.278.127-.481.214-.678.307-1.82.846-3.704 1.333-5.738 1.067-2.452-.32-3.773-1.855-4.33-4.104-.724-2.933-.759-5.906 0-8.833.783-3.032 2.927-4.614 6.191-4.585 1.385.011 2.764.226 4.144.348.11.011.226.011.388.023v.006Zm.012 7.987c0-1.745.011-3.484-.012-5.228 0-.192-.18-.54-.307-.551-1.397-.15-2.805-.354-4.202-.33-1.855.029-3.066.98-3.559 2.764-.29 1.044-.412 2.15-.475 3.235-.087 1.64-.035 3.292.55 4.863.545 1.449 1.467 2.15 3.003 2.185 1.657.04 3.211-.412 4.689-1.119.162-.075.295-.388.301-.591.023-1.745.012-3.484.012-5.228Zm-85.54-.244c1.913 3.032 3.802 6.04 5.756 9.135-.991 0-1.867.017-2.736-.017-.15-.006-.325-.238-.435-.406a884.16 884.16 0 0 1-4.474-6.955c-.22-.348-.447-.464-.852-.435-.661.046-1.328.011-2.076.011v7.767h-2.55V28.128h2.51V42.44c.88-.052 1.675-.07 2.463-.156.18-.023.36-.267.487-.447 1.397-1.959 2.794-3.918 4.162-5.894.237-.342.475-.505.904-.481.742.04 1.484.011 2.359.011l-5.518 7.796v-.006Zm92.773.563c.145-1.212.209-2.51.458-3.768.563-2.805 2.151-4.306 5.002-4.788 1.594-.272 3.2-.22 4.771.209 2.312.632 3.547 2.272 4.011 4.521.55 2.655.539 5.332-.035 7.981-.632 2.927-2.191 4.33-5.194 4.637-1.269.134-2.596.134-3.854-.07-2.759-.451-4.231-1.993-4.73-4.798-.226-1.264-.295-2.562-.44-3.93l.011.005Zm12.051.144a.854.854 0 0 1-.122-.011c0-.667.046-1.333-.012-1.994a12.397 12.397 0 0 0-.336-1.96c-.371-1.425-1.304-2.294-2.765-2.52a9.722 9.722 0 0 0-1.924-.116c-2.203.092-3.373.95-3.808 2.944-.528 2.452-.481 4.933.012 7.39.289 1.432 1.153 2.417 2.631 2.643.933.14 1.918.18 2.852.07 1.878-.22 2.793-1.113 3.118-2.962.203-1.148.243-2.324.359-3.49l-.005.006Zm-49.198-.127c.214-1.45.33-2.921.672-4.336.586-2.41 2.209-3.79 4.66-4.196 1.704-.284 3.397-.267 5.06.209 2.18.626 3.385 2.185 3.861 4.312a18.52 18.52 0 0 1-.035 8.323c-.673 2.858-2.18 4.173-5.141 4.463-1.362.134-2.777.07-4.139-.127-2.284-.336-3.733-1.768-4.248-3.988-.348-1.513-.464-3.084-.684-4.654l-.006-.006Zm12.085.255c-.093-1.16-.134-2.197-.267-3.217-.255-1.959-1.258-3.113-2.956-3.39a9.677 9.677 0 0 0-2.046-.11c-2.179.115-3.327 1.014-3.744 3.1a17.893 17.893 0 0 0 .075 7.338c.302 1.385 1.183 2.319 2.597 2.539.956.145 1.953.185 2.909.07 1.826-.22 2.719-1.079 3.055-2.887.215-1.165.261-2.365.371-3.431l.006-.012Zm-59.538-.516c.18-1.194.29-2.7.655-4.15.58-2.33 2.173-3.675 4.544-4.104 1.617-.29 3.228-.278 4.834.11 2.034.493 3.408 1.745 3.982 3.745.91 3.17.852 6.387.006 9.558-.568 2.144-2.064 3.379-4.249 3.79-1.536.29-3.084.325-4.608.04-2.765-.515-4.249-2.057-4.735-4.949-.21-1.229-.267-2.487-.424-4.046l-.005.006Zm12.05.574c-.093-1.17-.133-2.168-.255-3.153-.244-2-1.188-3.16-2.858-3.478a9.09 9.09 0 0 0-2.098-.139c-2.324.11-3.512 1.095-3.843 3.39-.22 1.52-.226 3.078-.203 4.614.012.928.203 1.867.435 2.765.307 1.165 1.107 1.97 2.307 2.156 1.008.157 2.07.226 3.078.11 1.826-.202 2.736-1.09 3.054-2.88.209-1.165.267-2.365.377-3.38l.006-.005Z"/><path fill="#997660" d="M60.463 28.726V52.17L40.159 63.897v-8.34l13.47-7.785V32.447l6.735-3.78.099.059Z"/><path fill="#EDDAC9" d="m60.364 28.668-6.735 3.779v-.22l-13.47-7.785V40l6.915-3.878 6.555-3.674v15.325l-13.47 7.784-13.476-7.784v-15.36L20 28.639 40.159 17l20.205 11.668Z"/><path fill="#6ACBE8" d="M53.63 32.447v15.325l-13.471 7.784-13.476-7.784V32.226l13.476-7.784V40l6.915-3.878 6.555-3.674Z"/><path fill="#000" d="M47.074 36.121v7.872l-6.915 3.993-6.92-3.993v-7.988l6.92-3.993v7.987l6.915-3.878Z"/></svg>