<svg xmlns="http://www.w3.org/2000/svg" fill="none" viewBox="0 0 210 80"><path fill="#000" d="m33.865 35.668.47-10.439a.258.258 0 0 1 .063-.164.18.18 0 0 1 .138-.065h1.262c.053 0 .103.026.142.07a.275.275 0 0 1 .061.167l.774 24.031a.367.367 0 0 1-.014.096.214.214 0 0 1-.043.08.208.208 0 0 1-.066.056.176.176 0 0 1-.078.02h-3.167a.206.206 0 0 1-.08-.018.21.21 0 0 1-.067-.055.261.261 0 0 1-.043-.083.35.35 0 0 1-.014-.096l.276-8.066a.293.293 0 0 0-.038-.15l-3.577-6.016a.26.26 0 0 1-.038-.136c0-.05.01-.096.031-.135l.974-1.832a.223.223 0 0 1 .066-.076.18.18 0 0 1 .177-.02.225.225 0 0 1 .076.06l2.368 2.935a.201.201 0 0 0 .102.067.17.17 0 0 0 .117-.01.209.209 0 0 0 .091-.086.269.269 0 0 0 .037-.133v-.002Zm3.279-2.014s.502-3.385 1.614-4.499c1.112-1.113 2.98-.947 2.98-.947s-.252 3.13-1.545 4.457c-.747.776-1.293.947-3.051.989h.002ZM17.099 49.513V35.749l-1.22-.23a1.204 1.204 0 0 1-.639-.327c-.16-.164-.24-.393-.24-.69v-1.657h2.099v-1.241c0-.963.12-1.824.363-2.59a5.474 5.474 0 0 1 1.046-1.953 4.387 4.387 0 0 1 1.649-1.226c.649-.283 1.38-.427 2.195-.427a5.161 5.161 0 0 1 1.81.313l-.065 2.032c-.017.315-.142.512-.371.59-.26.081-.526.12-.793.115a3.46 3.46 0 0 0-1.077.159c-.302.094-.578.28-.801.54a2.57 2.57 0 0 0-.5 1.016c-.114.421-.17.942-.17 1.563v1.114h3.662v2.883H20.49V49.51h-3.39v.003Zm34.428-17.074c1.053 0 2.005.203 2.861.606.824.38 1.57.968 2.189 1.72a7.988 7.988 0 0 1 1.4 2.719c.33 1.07.494 2.266.494 3.588s-.164 2.534-.494 3.604a8.154 8.154 0 0 1-1.4 2.732 6.127 6.127 0 0 1-2.189 1.735c-.856.403-1.808.606-2.861.606-1.053 0-2.008-.203-2.868-.606a6.15 6.15 0 0 1-2.202-1.735 8.207 8.207 0 0 1-1.413-2.738c-.334-1.069-.502-2.271-.5-3.603 0-1.322.166-2.519.5-3.588a8.015 8.015 0 0 1 1.413-2.72 6.211 6.211 0 0 1 2.202-1.717c.858-.403 1.815-.606 2.868-.606v.003Zm0 14.206c1.17 0 2.038-.47 2.6-1.41.56-.94.842-2.316.842-4.13 0-1.813-.282-3.194-.843-4.144-.561-.95-1.428-1.426-2.6-1.426-1.17 0-2.068.479-2.633 1.434-.566.955-.85 2.334-.852 4.137 0 1.803.284 3.177.852 4.121.568.945 1.446 1.418 2.634 1.418Zm22.419-10.39a1.894 1.894 0 0 1-.295.362c-.096.089-.236.133-.42.13a.798.798 0 0 1-.506-.19c-.164-.124-.36-.267-.59-.426a4.12 4.12 0 0 0-.817-.427c-.38-.135-.775-.2-1.173-.19-.594 0-1.116.128-1.564.385a3.162 3.162 0 0 0-1.118 1.106 5.536 5.536 0 0 0-.666 1.746 11.132 11.132 0 0 0-.219 2.318c-.008.807.072 1.611.24 2.392.136.634.372 1.233.695 1.761.288.46.664.833 1.097 1.082.456.253.952.378 1.454.37.54 0 .977-.078 1.31-.237.298-.135.582-.312.844-.523.23-.192.426-.367.594-.523a.804.804 0 0 1 .57-.237c.275 0 .48.125.618.378l.975 1.475a6.663 6.663 0 0 1-1.221 1.32 6.317 6.317 0 0 1-1.366.85 6.01 6.01 0 0 1-1.46.45c-.497.086-.997.13-1.497.13a5.381 5.381 0 0 1-2.455-.583 5.851 5.851 0 0 1-2.01-1.696c-.572-.744-1.026-1.652-1.358-2.73-.332-1.077-.5-2.302-.5-3.679a12.636 12.636 0 0 1 .445-3.431 8.237 8.237 0 0 1 1.31-2.738c.595-.783 1.324-1.402 2.141-1.81.852-.438 1.83-.656 2.936-.656 1.105 0 1.974.203 2.765.606.797.411 1.523.999 2.134 1.735l-.891 1.476-.002.005Zm9.567-11.091v13.944h.63c.184.01.368-.03.536-.115.16-.11.3-.252.413-.427l3.499-5.162c.14-.202.307-.376.494-.515.172-.125.402-.19.686-.19h3.101l-4.377 6.242c-.149.221-.31.432-.48.632-.162.19-.344.357-.536.5.19.161.363.356.51.575.145.218.292.453.438.705l4.694 8.16h-3.06a1.293 1.293 0 0 1-.673-.164 1.431 1.431 0 0 1-.493-.557l-3.58-6.375c-.138-.25-.276-.413-.413-.492-.138-.075-.343-.114-.618-.114h-.77v7.702h-3.391v-24.35h3.392-.002Zm31.228 10.813c-.07.149-.169.276-.289.37a.644.644 0 0 1-.384.107 1.062 1.062 0 0 1-.529-.164c-.188-.11-.404-.232-.651-.37a5.475 5.475 0 0 0-.843-.37 3.418 3.418 0 0 0-1.118-.163c-.668 0-1.193.169-1.579.507-.385.338-.577.78-.577 1.327-.004.167.02.333.07.49.05.155.126.298.223.418.225.27.491.49.782.648.356.2.725.367 1.105.5.411.148.832.31 1.262.484.431.174.852.374 1.263.598.402.216.775.502 1.107.85.326.347.592.768.782 1.237.197.481.295 1.059.295 1.735.007.768-.12 1.53-.369 2.238a4.974 4.974 0 0 1-1.083 1.77 4.934 4.934 0 0 1-1.763 1.162c-.699.279-1.503.417-2.409.417-.476 0-.953-.053-1.42-.16a7.435 7.435 0 0 1-1.33-.434 6.847 6.847 0 0 1-1.18-.655 5.965 5.965 0 0 1-.954-.82l.782-1.54c.089-.175.212-.32.356-.427a.879.879 0 0 1 .522-.148c.212 0 .417.075.594.213.188.143.404.294.651.458.279.182.57.336.871.458.335.143.756.213 1.269.213a2.83 2.83 0 0 0 1.036-.171c.26-.097.502-.25.714-.45.179-.172.32-.394.411-.646.087-.242.131-.5.133-.762a1.518 1.518 0 0 0-.295-.965 2.626 2.626 0 0 0-.782-.656 6.512 6.512 0 0 0-1.112-.5 26.792 26.792 0 0 1-1.275-.484c-.435-.174-.863-.38-1.278-.614a4.397 4.397 0 0 1-1.112-.892 4.118 4.118 0 0 1-.782-1.325c-.196-.525-.295-1.16-.295-1.899 0-.676.116-1.348.343-1.967a4.62 4.62 0 0 1 1.009-1.629 4.892 4.892 0 0 1 1.66-1.113c.664-.279 1.429-.42 2.298-.42.97 0 1.852.193 2.647.576a5.993 5.993 0 0 1 1.99 1.506l-.771 1.457.005.005Zm17.604 13.536h-1.52c-.321 0-.572-.058-.756-.172-.183-.115-.321-.346-.41-.697l-.302-1.197c-.333.36-.684.696-1.05 1.007-.334.283-.69.527-1.064.728-.373.2-.764.349-1.166.442a5.816 5.816 0 0 1-1.372.149 4.662 4.662 0 0 1-1.647-.286 3.402 3.402 0 0 1-1.295-.864 3.92 3.92 0 0 1-.843-1.429c-.201-.57-.302-1.233-.302-1.99a4.532 4.532 0 0 1 .42-1.884c.279-.62.742-1.179 1.391-1.676.649-.5 1.514-.913 2.593-1.24 1.079-.329 2.42-.495 4.021-.495v-.991c0-1.135-.199-1.973-.594-2.519-.398-.544-.977-.817-1.737-.817-.548 0-1.007.075-1.371.229a5.087 5.087 0 0 0-.955.515c-.271.19-.52.364-.747.515a1.336 1.336 0 0 1-.756.23.863.863 0 0 1-.589-.214 1.62 1.62 0 0 1-.398-.523l-.618-1.296c1.618-1.77 3.571-2.654 5.86-2.654.824 0 1.558.161 2.202.484.62.302 1.179.76 1.64 1.343a6.07 6.07 0 0 1 1.023 2.053c.24.843.358 1.73.349 2.622l-.007 10.627Zm-6.585-2.527c.323.003.644-.034.961-.112.288-.073.566-.187.83-.338.267-.154.52-.338.754-.552.26-.239.506-.502.734-.783v-2.815c-.988 0-1.813.075-2.477.224-.664.148-1.197.338-1.599.57-.402.231-.688.502-.859.809a2.045 2.045 0 0 0-.253 1.007c0 .715.177 1.225.529 1.535.351.307.812.463 1.378.463l.002-.008Zm13.459 2.527V35.749l-1.221-.23a1.208 1.208 0 0 1-.638-.327c-.159-.164-.24-.393-.24-.69v-1.657h2.099v-1.241c0-.963.12-1.824.363-2.59a5.481 5.481 0 0 1 1.046-1.953 4.402 4.402 0 0 1 1.649-1.226c.649-.283 1.381-.427 2.195-.427a5.164 5.164 0 0 1 1.811.313l-.066 2.032c-.017.315-.142.512-.371.59-.258.081-.526.12-.793.115a3.465 3.465 0 0 0-1.077.159c-.302.094-.578.28-.801.54a2.56 2.56 0 0 0-.5 1.016c-.114.421-.173.942-.171 1.563v1.114h3.663v2.883h-3.554V49.51h-3.394v.003Zm17.769-17.074a5.854 5.854 0 0 1 2.448.507 5.35 5.35 0 0 1 1.929 1.483 7.09 7.09 0 0 1 1.263 2.392c.301.947.454 2.026.452 3.236.002.255-.009.51-.035.763a1.375 1.375 0 0 1-.123.473.518.518 0 0 1-.24.245.853.853 0 0 1-.384.073h-8.7c.1 1.727.489 2.994 1.166 3.801.677.81 1.573 1.212 2.689 1.212a3.96 3.96 0 0 0 1.42-.229 6.088 6.088 0 0 0 1.042-.507c.297-.185.559-.356.782-.507.196-.143.421-.221.651-.23a.64.64 0 0 1 .358.1.86.86 0 0 1 .26.278l.987 1.475a6.05 6.05 0 0 1-1.262 1.32 6.722 6.722 0 0 1-1.462.85 6.98 6.98 0 0 1-1.551.45 9.14 9.14 0 0 1-1.528.13 6.421 6.421 0 0 1-2.731-.582 6.126 6.126 0 0 1-2.195-1.72c-.622-.76-1.112-1.7-1.468-2.818-.356-1.119-.535-2.417-.535-3.892a10.898 10.898 0 0 1 .468-3.237 8.178 8.178 0 0 1 1.338-2.639 6.412 6.412 0 0 1 2.128-1.777c.837-.434 1.782-.653 2.833-.653v.003Zm.065 2.901c-.987 0-1.76.333-2.317 1-.557.665-.915 1.61-1.07 2.833h6.367a6.04 6.04 0 0 0-.179-1.483 3.708 3.708 0 0 0-.549-1.22 2.692 2.692 0 0 0-.932-.828 2.761 2.761 0 0 0-1.315-.305l-.005.003Zm16.345 14.435c-1.217 0-2.154-.41-2.813-1.236-.66-.824-.988-1.961-.988-3.413v-9.39h-1.428a.63.63 0 0 1-.474-.214c-.131-.14-.199-.354-.199-.637v-1.606l2.265-.442.714-4.587a.853.853 0 0 1 .254-.508.718.718 0 0 1 .502-.18h1.756v5.29h3.703v2.884h-3.703v9.109c0 .525.11.936.33 1.228.221.294.513.44.878.442.179.005.358-.026.529-.09a2.71 2.71 0 0 0 .371-.188c.105-.065.199-.128.282-.19a.422.422 0 0 1 .247-.091.332.332 0 0 1 .247.09c.078.079.146.17.205.271l1.013 1.968a4.952 4.952 0 0 1-1.701 1.113 5.378 5.378 0 0 1-1.99.38v-.003Zm13.929 4.359a1.606 1.606 0 0 1-.391.647c-.16.149-.404.222-.734.222h-2.525l2.636-6.734-5.694-15.565h2.964c.275 0 .485.076.631.23.142.142.254.322.33.522l3.006 8.717c.102.288.187.582.26.884.072.307.137.612.192.919.072-.315.153-.622.24-.919.087-.296.181-.596.282-.903l2.826-8.7c.074-.219.201-.409.363-.542a.863.863 0 0 1 .57-.213H195l-7.673 21.432v.003Z"/></svg>