<svg xmlns="http://www.w3.org/2000/svg" fill="none" viewBox="0 0 210 80"><path fill="#590F00" d="M57.79 47.156V45.27h-1.886v-1.885h-1.873v-5.65h1.873v-1.884h1.885v-1.885h15.08v1.885H69.1v1.885h1.885v5.649H69.1v1.885h-1.885v1.885H57.79Zm13.194 15.068v-3.77H69.1V56.57H57.79v-1.873h-1.885v-1.873h-1.873v-3.77h1.873v-1.885h1.885v3.77h1.885v1.885h11.31v1.873h1.885v1.873h1.885v3.77H72.87v1.885h-1.885ZM57.79 64.11h-1.885v-1.885h-1.873v-3.77h1.873V56.57h1.885v5.661h1.885v1.885h9.42V66h-11.31.005v-1.89Zm7.546-18.844V43.38h1.873v-5.65h-1.873v-1.884h-5.66v1.885h-1.886v5.649h1.885v1.885h5.661Zm3.764 18.844v-1.885h1.885v1.885H69.1ZM80.415 54.69v-1.873H78.53v-1.885h-1.885v-3.77h-1.873v-5.65h1.873v-3.775h1.885v1.885h11.31v-1.885h-1.885v-1.885h-7.534v-1.885h9.419v1.885h1.885v1.885h1.885v3.776H78.53v5.649h1.885v3.77H82.3v1.885h7.534v1.873h-9.419ZM78.53 37.737v-1.885h1.885v1.885H78.53Zm11.31 15.08v-1.885h1.885v1.885H89.84Zm1.885-1.885v-1.885h1.885v1.885h-1.885ZM96.446 54.69v-1.873h1.874v-15.08h-1.874v-1.885h1.874v-1.885h1.885v-1.885h1.885v3.77h1.885v1.885h-1.885v15.08h1.885v1.873H96.44h.006Zm14.123 0v-1.873h1.885v-15.08h-1.885v-1.885h-6.589v-1.885h8.48v1.885h1.885v1.885h1.885v15.08h1.885v1.873h-7.546ZM122.83 54.69v-1.873h-1.873V48.1h1.873v2.83h1.885v1.886h5.661v-1.885h1.885v-3.77h-1.885v-1.885h-3.77v-1.885h-3.77v-1.873h-1.873v-3.776h1.873v-1.885h1.885v3.77h1.885v1.885h3.77v1.873h3.764v1.885h1.885v5.66h-1.885v1.886h-1.873v1.873h-9.437Zm10.365-15.068v-1.885h-1.873v-1.885h-6.601v-1.885h8.48v1.885h1.885v3.77h-1.891ZM145.439 58.454v-8.468h-1.885v-4.715h-1.885v-4.704h-1.874v-4.715h-2.818v-1.885h9.407v1.885h-2.83v4.715h1.885v4.704h1.885v4.715h1.885v4.704h-1.885v3.764h-1.885ZM137.916 66v-3.77h5.638v1.885h-1.885V66h-3.753Zm5.638-3.77v-3.77h1.885v3.77h-1.885Zm5.661-12.238v-4.715h1.885v4.715h-1.885Zm3.764-9.419v-4.715h-2.819v-1.885h7.534v1.885h-2.83v4.715h-1.885Zm-1.874 4.704v-4.704h1.874v4.704h-1.874ZM159.585 54.69v-1.873h1.873v-15.08h-1.873v-1.885h1.873v-1.885h1.885v-1.885h1.885v3.77h1.885v1.885h-1.885v15.08h1.885v1.873h-7.534.006Zm14.123 0v-1.873h1.885v-15.08h-1.885v-1.885h-6.589v-1.885h8.48v1.885h1.885v1.885h1.885v15.08h1.885v1.873h-7.546ZM50.491 31.343h-4.16v3.664h4.16v-3.664Z"/><path fill="#590F00" d="M47.218 33.99h-4.16v3.664h4.16V33.99ZM35.66 31.337H31.5v3.664h4.16v-3.664Z"/><path fill="#590F00" d="M39.306 33.984h-4.16v3.664h4.16v-3.664Z"/><path fill="#590F00" d="M43.306 36.437h-4.16V40.1h4.16v-3.663ZM35.66 19.094H31.5v3.663h4.16v-3.663Z"/><path fill="#590F00" d="M38.927 16.452h-4.16v3.664h4.16v-3.664ZM50.491 19.094h-4.16v3.663h4.16v-3.663Z"/><path fill="#590F00" d="M46.84 16.446h-4.16v3.664h4.16v-3.664Z"/><path fill="#590F00" d="M42.845 14h-4.16v3.664h4.16V14ZM32.74 22.332H29v10.087h3.74V22.332ZM52.938 22.332h-3.74v10.087h3.74V22.332Z"/></svg>