<svg xmlns="http://www.w3.org/2000/svg" fill="none" viewBox="0 0 210 80"><path fill="#000" d="M93.224 34.663h-4.175c-.434-.948-.681-1.918-1.247-2.648-1.464-1.918-3.547-2.135-5.739-1.692-2.168.434-3.423 1.902-3.779 3.998-.472 2.81-.558 5.675.062 8.47.875 3.952 5.925 5.504 9.023 2.857 1.115-.955 1.549-2.205 1.54-3.742h-5.18v-3.797h9.61c.93 6.67-1.858 12.127-9.37 12.477-2.672.124-5.174-.474-7.265-2.252-1.843-1.568-2.827-3.64-3.129-5.986-.348-2.74-.426-5.512.085-8.245.868-4.65 4.175-7.5 8.93-7.755 2.742-.148 5.352.295 7.575 2.05 2.005 1.575 2.927 3.687 3.05 6.288l.009-.023ZM106.25 51.19c1.449 0 2.757-.015 4.066.016.194 0 .45.178.558.35 1.1 1.63 4.825 1.754 6.258.48.712-.628 1.007-1.436 1.038-2.352.023-.8 0-1.607 0-2.407-.07-.015-.148-.046-.171-.023-2.215 2.244-4.864 2.593-7.69 1.553-2.727-1.01-4.043-3.199-4.221-6.01-.109-1.7-.085-3.446.217-5.116.48-2.655 2.184-4.386 4.825-5.015 2.695-.636 5.158-.233 7.202 2.058v-1.88h4.33c.015.296.038.575.038.863v15.2c0 3.72-1.735 6.025-5.328 7.027-2.595.722-5.15.574-7.606-.56-1.75-.807-2.997-2.103-3.531-4.176l.015-.008Zm11.935-10.193h.047c-.055-.668-.062-1.343-.171-1.996-.325-1.84-1.851-2.996-3.826-2.934-2.114.07-3.423 1.149-3.593 3.128a20.635 20.635 0 0 0 .023 3.603c.139 1.452 1.146 2.469 2.509 2.787 2.812.652 4.98-1.056 5.011-3.936v-.652ZM172.197 43h-11.121c-.612 2.57 1.548 4.635 4.282 4.153 1.139-.202 2.053-.73 2.649-1.762.101-.171.349-.357.535-.365 1.146-.031 2.3-.016 3.647-.016-.271.668-.426 1.258-.72 1.77-1.293 2.252-3.346 3.401-5.84 3.587-1.363.101-2.811-.023-4.12-.396-2.958-.846-4.6-2.973-4.863-6.016-.155-1.755-.186-3.556.054-5.288.519-3.718 3.253-6.078 7.055-6.226 1.162-.047 2.378.039 3.493.357 2.966.854 4.562 2.997 4.926 6.002.162 1.343.031 2.724.031 4.192l-.008.008Zm-4.12-3.23c.023-1.576-.225-2.966-1.681-3.719-1.378-.714-2.819-.699-4.097.218-1.169.838-1.378 2.119-1.316 3.5h7.102-.008Zm-27.703-1.615h-3.795c-.48-2.313-2.773-3.307-4.848-2.135-.69.388-.922.994-.852 1.762.069.715.557 1.01 1.161 1.157 1.944.505 3.904.924 5.832 1.49 3.532 1.033 4.616 4.93 2.068 7.61-.767.799-1.804 1.459-2.85 1.855-2.44.916-4.949.792-7.381-.132-2.315-.877-3.578-2.92-3.229-5.07.116-.015.248-.039.371-.039h3.47c0 1.173.565 1.972 1.642 2.322 1.394.45 2.796.473 4.136-.202.712-.365 1.061-.97.991-1.778-.07-.83-.651-1.172-1.386-1.343-1.797-.42-3.602-.8-5.391-1.266-2.37-.613-3.407-1.731-3.647-3.812-.256-2.298.658-4.215 2.679-5.21 2.703-1.327 5.491-1.342 8.217-.1 1.952.885 2.943 2.717 2.796 4.899l.016-.008Zm5.22-1.708h-2.401V32.8h2.385v-4.681h4.562v4.635h3.64v3.672h-3.532c-.031.256-.077.435-.077.613 0 2.57-.008 5.147 0 7.717 0 1.312.372 1.662 1.673 1.685.557.008 1.107 0 1.704 0v3.548c-1.503 0-2.982.155-4.415-.039-2.099-.28-3.346-1.708-3.431-3.835-.116-2.834-.077-5.675-.108-8.517v-1.149Zm34.828 13.633h-4.461V32.815h4.221v2.616c.619-1.025 1.301-1.933 2.416-2.275 1.023-.318 2.107-.442 3.245-.667v4.596c-.418.03-.836.054-1.254.093-2.781.248-4.09 1.584-4.152 4.394-.054 2.515-.015 5.039-.023 7.554v.955h.008Z"/><path fill="#4FAAED" d="M65.784 40.346s-.039.077-.062.116c-3.137 5.388-6.235 10.8-9.348 16.195-.062.116-.147.217-.279.411-1.65-2.864-3.253-5.66-4.895-8.516 4.849-2.834 9.658-5.652 14.584-8.54L51.2 31.464c1.65-2.865 3.246-5.644 4.91-8.532.187.295.318.504.45.722 3.013 5.24 6.025 10.48 9.038 15.729.07.124.14.233.186.357.077.178.1.365 0 .605ZM48.66 47.93c-3.988 2.336-7.946 4.65-11.989 7.018V40.95c2.595 0 5.112 0 7.621.016.194 0 .45.178.55.349 1.27 2.166 2.517 4.348 3.818 6.615Zm0-15.846c-.836 1.452-1.642 2.857-2.455 4.262-.503.885-.828 2.104-1.595 2.539-.798.45-2.03.155-3.067.163-1.557.008-3.114-.008-4.663-.016-.054 0-.1-.038-.209-.077v-13.89c4.043 2.369 7.977 4.667 11.99 7.019Z"/><path fill="#4FAAED" d="M62.198 40.012c-4.012 2.344-7.907 4.627-11.888 6.956-.356-.598-.69-1.165-1.022-1.731-.906-1.576-1.828-3.145-2.703-4.736-.132-.233-.186-.645-.07-.854 1.224-2.19 2.486-4.363 3.78-6.607 3.98 2.337 7.876 4.611 11.903 6.972Zm-27.432.993v16.661c-.046.024-.093.047-.14.078-3.19-5.551-6.38-11.102-9.626-16.739h9.766ZM54.47 22c-1.65 2.865-3.26 5.66-4.903 8.509-4.848-2.834-9.588-5.613-14.529-8.509H54.47Zm-19.71.31v16.67h-9.736c3.222-5.598 6.405-11.142 9.596-16.693l.14.024ZM54.452 58h-19.09a.834.834 0 0 1-.055-.148c4.717-2.756 9.433-5.52 14.258-8.345 1.62 2.818 3.222 5.613 4.887 8.493Z"/><path fill="#000" d="M97.67 32.8h4.406v17.258h-4.407V32.799Zm2.175-7.182c1.549-.008 2.641 1.063 2.641 2.608 0 1.514-1.045 2.593-2.548 2.617-1.549.03-2.664-1.033-2.687-2.562-.023-1.537 1.061-2.648 2.594-2.655v-.008Z"/></svg>