<svg xmlns="http://www.w3.org/2000/svg" fill="none" viewBox="0 0 210 80"><path fill="#000" d="m51.612 34.264-.614-.025h-2.52c-.18 0-.366.035-.55-.078-.016-.055-.055-.128-.055-.197l.005-4.363c0-.05.04-.099.073-.168.078-.014.166-.044.254-.049l.492-.005h23.019c.234 0 .473-.024.726.05.025.088.068.177.068.26v4.25c0 .069-.029.143-.039.192-.156.148-.326.108-.487.108h-2.632c-.18 0-.366-.044-.542.084-.097.182-.053.39-.058.586V49.544l-.02.68c-.15.03-.272.074-.394.074h-4.222c-.122 0-.248-.035-.38-.054-.024-.109-.054-.197-.059-.286l-.005-.552V34.998l-.01-.626c-.209-.187-.419-.133-.609-.133h-5.756c-.181 0-.366-.039-.561.099-.015.084-.04.187-.04.29-.009.183 0 .37 0 .552v14.3l-.019.739c-.15.03-.273.074-.39.074h-4.221c-.122 0-.244-.04-.351-.054-.122-.237-.078-.463-.078-.68V34.924l-.02-.665-.005.005Zm105.553-4.811c.117-.015.244-.05.366-.05l4.275-.01c.331 0 .497.144.634.41l1.525 2.935 1.453 2.782 1.77 3.363.77 1.463c.039.074.097.133.19.256.039-.138.068-.202.068-.266l.005-.552v-9.661c0-.217-.039-.439.068-.675.541-.088 1.087-.03 1.633-.04.567-.01 1.135-.01 1.702 0 .546.01 1.092-.044 1.662.04.024.113.053.217.058.32.01.163 0 .33 0 .498V49.48l-.014.665c-.142.187-.293.158-.434.163h-4.553c-.093-.138-.185-.252-.249-.38l-2.886-5.51-1.828-3.457-.921-1.758c-.039-.074-.102-.138-.185-.25-.039.122-.078.186-.083.25l-.01.552v9.829c0 .216.049.443-.088.66-.058.02-.126.054-.195.054-1.53 0-3.066 0-4.601-.01-.049 0-.098-.04-.156-.07-.015-.068-.044-.142-.044-.21l.005-20.373c0-.054.029-.103.053-.177l.01-.005ZM126.986 29c1.594 0 3.124.325 4.567 1a9.821 9.821 0 0 1 2.428 1.58c.546.493 1.053 1.01 1.501 1.596.426.552.795 1.146 1.102 1.773.829 1.679 1.224 3.461 1.131 5.338-.117 2.343-.873 4.456-2.325 6.308a10.336 10.336 0 0 1-4.227 3.23c-2.232.93-4.538 1.078-6.873.507a10.422 10.422 0 0 1-3.427-1.551 10.551 10.551 0 0 1-2.55-2.477 10.409 10.409 0 0 1-1.75-3.713c-.19-.788-.341-1.58-.36-2.398a11.116 11.116 0 0 1 .975-4.875 10.56 10.56 0 0 1 1.564-2.511 10.356 10.356 0 0 1 3.086-2.517 10.444 10.444 0 0 1 4.446-1.246l.712-.04V29Zm-.005 5.116c-3.174.035-5.665 2.408-5.67 5.703-.004 3.294 2.53 5.707 5.655 5.722 3.071.015 5.665-2.359 5.669-5.702.01-3.285-2.471-5.678-5.654-5.718v-.005Zm48.918-4.653c.078-.02.165-.054.253-.054l5.64.034a12.41 12.41 0 0 1 3.027.463c1.551.438 2.969 1.123 4.168 2.23a8.337 8.337 0 0 1 1.77 2.3c.843 1.61 1.238 3.33 1.243 5.146 0 .72-.005 1.433-.127 2.147-.287 1.67-.819 3.24-1.847 4.61a8.983 8.983 0 0 1-2.457 2.25c-1.365.842-2.852 1.3-4.422 1.526-.921.133-1.847.207-2.783.197-1.277-.014-2.554 0-3.836 0-.195 0-.395-.014-.615-.02-.034-.127-.068-.23-.078-.334-.014-.148-.005-.295-.005-.443V30.197c0-.237-.048-.478.074-.724l-.005-.01Zm5.099 15.59c.083.025.131.05.185.055 1.111.049 2.184-.119 3.183-.646 1.029-.546 1.755-1.369 2.155-2.462.473-1.3.487-2.64.141-3.964-.341-1.31-1.141-2.28-2.364-2.88-.995-.483-2.047-.63-3.139-.591-.049 0-.098.034-.176.059-.015.118-.044.24-.044.369-.073 2.659-.034 9.533.064 10.065l-.005-.005ZM29.306 39.898l.492.61c.6.808.853 1.743.926 2.728a7.129 7.129 0 0 1-.39 2.935c-.356 1-.936 1.861-1.803 2.512a7.213 7.213 0 0 1-2.72 1.245c-1.107.257-2.233.37-3.37.375h-4.767c-.195 0-.404.044-.614-.089l-.053-.3c-.01-.148 0-.296 0-.444V38.484c0-.093.01-.187 0-.276-.04-.325.097-.551.331-.763l2.998-2.748c.088-.083.166-.177.239-.26-.102-.173-.244-.129-.36-.129h-2.521c-.2 0-.4.025-.62-.069-.019-.078-.058-.162-.058-.25v-4.196c0-.07.025-.143.04-.202.17-.148.36-.099.536-.104h3.729l2.413.03c.916.04 1.818.168 2.695.458.858.286 1.668.665 2.35 1.266.726.64 1.277 1.418 1.58 2.349.263.807.4 1.64.4 2.496 0 .483-.064.955-.166 1.423a4.72 4.72 0 0 1-1.097 2.133l-.142.167c-.01.015-.014.034-.029.089h-.02Zm-7.57 5.55c.818.048 1.613.044 2.398-.158.175-.045.35-.094.521-.163.546-.226.882-.625.994-1.221a3.113 3.113 0 0 0-.019-1.256c-.127-.566-.473-.95-.975-1.186-.366-.168-.75-.291-1.155-.31l-1.477-.045c-.103 0-.205.04-.293.054-.073.438-.112 2.974-.058 3.94.005.108.039.211.068.34l-.005.004Zm0-6.826c.696 0 1.35.06 1.998-.079.336-.074.672-.172.984-.315.498-.221.8-.62.917-1.162.088-.399.088-.798.02-1.202-.108-.645-.493-1.048-1.073-1.28-.151-.059-.312-.093-.473-.133-.717-.172-1.448-.152-2.174-.133-.068 0-.136.04-.21.064-.02.08-.053.148-.053.217v3.743c0 .068.034.137.063.275v.005Zm79.618 11.572c-.014-.083-.049-.187-.053-.295-.01-.182 0-.37 0-.552v-10.71c0-.148.014-.295 0-.443-.035-.325.102-.552.336-.764l3.042-2.782c.073-.069.131-.152.209-.25-.18-.129-.346-.095-.502-.095h-2.466c-.6 0-.615-.014-.615-.62v-3.59c0-.177-.039-.37.093-.556.049-.015.117-.05.185-.05l6.464.025c.712.01 1.414.133 2.111.3a7.442 7.442 0 0 1 1.838.705c1.638.886 2.588 2.275 2.9 4.116.034.217.064.439.093.655.131 1.123 0 2.207-.478 3.23-.17.36-.424.68-.648 1.015-.068.104-.161.197-.259.306.039.068.064.142.108.192.697.748 1.082 1.64 1.238 2.654.195 1.23.049 2.427-.361 3.585-.526 1.477-1.57 2.491-2.978 3.141-1.253.581-2.584.778-3.939.847-1.019.05-2.043.035-3.066.04h-2.686c-.181 0-.366.044-.551-.104h-.015Zm4.656-4.752c.76.05 1.486.035 2.208-.108a3.79 3.79 0 0 0 .731-.217c.585-.246.936-.69 1.014-1.33.029-.254.034-.511.015-.767-.054-.823-.483-1.36-1.248-1.64-.863-.32-1.755-.296-2.647-.251-.034 0-.064.034-.112.064-.01.054-.039.123-.039.192l.004 3.86c0 .05.035.099.069.197h.005Zm-.078-6.913c.121.044.17.078.219.078.546-.005 1.092 0 1.638-.034a3.238 3.238 0 0 0 1.204-.335 1.674 1.674 0 0 0 .955-1.26 3.07 3.07 0 0 0 .005-1.099 1.587 1.587 0 0 0-.638-1.053c-.268-.202-.58-.3-.902-.38-.756-.177-1.521-.162-2.286-.123-.049 0-.098.044-.171.079-.01.084-.034.167-.034.256v3.875l.01-.004Zm33.601-9.051c.512-.099 2.915-.128 4.66-.07.122 0 .249.035.361.05.103.236.064.463.064.68v12.31c0 .537.048 1.069.209 1.581.278.886.873 1.428 1.794 1.57.4.065.799.06 1.199-.019.805-.157 1.351-.645 1.624-1.403.126-.36.185-.749.238-1.128.039-.27.03-.551.03-.827V30.187c0-.237-.035-.478.068-.729l.429-.044 4.567.073c.02.09.054.193.064.296.01.128 0 .256 0 .389v11.927c0 1.295-.151 2.575-.595 3.796-.619 1.71-1.701 3.034-3.32 3.87-.75.39-1.55.65-2.393.754-1.243.158-2.486.133-3.7-.197a6.81 6.81 0 0 1-2.574-1.31 6.711 6.711 0 0 1-1.74-2.171c-.697-1.374-1.004-2.837-1.009-4.368V29.995c0-.163.014-.325.029-.512l-.005-.005ZM49.121 50.179l-.38.055c-1.301.054-4.11.02-4.587-.06-.244-.467-.302-1.029-.473-1.54-.17-.523-.287-1.064-.434-1.611-.141-.025-.258-.069-.385-.069h-5.206l-.22.01a.262.262 0 0 0-.243.187 3.504 3.504 0 0 0-.107.37l-.615 2.29-.063.211a.266.266 0 0 1-.239.197c-.127.015-.253.015-.385.02h-3.89c-.175 0-.366.03-.512-.08-.02-.058-.044-.093-.034-.122l5.45-20.352c.024-.084.078-.158.112-.227.454-.069 6.06-.079 6.62-.01.039.079.093.172.127.271.063.172.117.35.166.527l1.199 4.535 1.067 3.94.975 3.678 1.536 5.643c.166.601.312 1.212.463 1.817.02.09.03.178.053.325l.005-.005Zm-8.94-14.127c-.039.103-.068.167-.088.24l-.892 3.354-.804 3.039c-.034.133-.127.276 0 .423.044.01.093.035.146.035h3.393c.063 0 .132-.04.21-.064-.005-.094 0-.168-.015-.237l-1.73-6.495a.82.82 0 0 0-.088-.202c-.015-.03-.054-.044-.132-.098v.005Zm47.26 14.177c-.092-.581-.13-17.2-.058-20.288 0-.124.03-.252.04-.355.184-.148.375-.098.55-.098h10.52c.214 0 .439-.03.677.059.02.103.064.206.064.31v4.028c0 .089-.025.177-.044.29-.107.03-.21.074-.312.084-.166.015-.327.005-.493.01h-5.152c-.215 0-.439-.04-.668.069-.136.36-.049.748-.063 1.128-.015.384-.01.773 0 1.157.005.379-.03.763.029 1.118.234.133.439.088.638.088h4.822c.2 0 .4.01.614.015.034.133.078.231.078.335v3.092c0 .09-.025.178-.04.291-.106.03-.209.074-.311.079-.239.015-.473.005-.712.005h-4.436c-.2 0-.404-.04-.619.078-.02.084-.058.188-.058.291v2.98c0 .108.029.211.043.314.205.128.405.094.605.094H98.746c.142 0 .283.03.454.05.02.167.048.31.048.452v3.866c0 .074 0 .148-.005.221-.02.188-.092.271-.268.286-.146.015-.292.01-.438.01H88.07c-.194 0-.4.03-.619-.07l-.01.01Zm-2.052-4.787c.03.143.059.212.059.281v4.25c0 .074-.024.142-.044.241-.102.03-.2.069-.302.084-.127.014-.254.005-.385.005H75.02c-.215 0-.439.039-.658-.084l-.049-.374c-.083-2.748-.034-19.84.059-20.387.073-.02.155-.069.238-.069h4.495c.053 0 .107.02.185.04.03.093.073.192.083.295.015.182.01.37.01.551v14.296c-.002.184.001.367.01.551.014.192.087.271.268.286.165.015.326.01.492.01h4.602c.195 0 .395.014.629.024h.004Z"/></svg>