<svg xmlns="http://www.w3.org/2000/svg" fill="none" viewBox="0 0 210 80"><path fill="#21232E" d="m105.627 52.323-6.674-9.216c2.735-1.175 4.34-3.345 4.34-6.54 0-4.743-3.27-7.27-8.844-7.27h-8.042v23.026h5.678v-7.908h1.442l5.069 7.908h7.031Zm-7.938-15.415c0 2.2-1.397 3.404-3.865 3.404h-1.769v-6.704h1.829c2.467 0 3.805 1.174 3.805 3.3Z"/><path fill="#21232E" d="m119.808 50.822-.505-3.568c-1.799 1.07-3.568 1.74-5.366 1.74-2.23 0-3.776-.967-4.044-3.568h9.886c.029-.268.059-.803.059-1.308 0-4.742-2.2-8.473-7.239-8.473-4.445 0-7.715 3.24-7.715 8.577 0 5.812 3.508 8.443 8.413 8.443 2.572 0 4.742-.699 6.511-1.828v-.015Zm-7.343-11.907c1.531 0 2.408 1.263 2.572 3.731h-5.173c.163-2.497 1.174-3.731 2.601-3.731ZM139.341 35.972l-2.17 9.513-2.334-9.513h-4.534l-2.304 9.513-2.23-9.751-5.203.639 4.475 15.95h4.846l2.363-9.35 2.408 9.35h4.802l4.578-16.351h-4.697ZM151.233 31.126c0-1.665-1.234-2.765-2.869-2.765-1.635 0-2.869 1.1-2.869 2.765s1.264 2.705 2.869 2.705c1.605 0 2.869-1.07 2.869-2.705Zm-.327 21.197V35.972h-5.069v16.351h5.069ZM168.684 52.323v-11.61c0-3.21-1.605-5.068-4.637-5.068-2.067 0-3.642 1.1-5.099 2.571l-.372-2.23h-4.444v16.352h5.039V41.59c.907-.907 1.798-1.472 2.765-1.472 1.204 0 1.665.803 1.665 1.962v10.242h5.083ZM186.403 52.323V28.227l-5.039.803v7.373c-.936-.327-1.977-.565-3.478-.565-3.598 0-6.912 2.542-6.912 8.77 0 5.5 2.571 8.042 5.901 8.042 2.096 0 3.597-1.234 4.712-2.468l.327 2.141h4.489Zm-5.039-5.812c-.862.966-1.739 1.665-2.809 1.665-1.442 0-2.498-1.13-2.498-3.94 0-3.136 1.264-4.444 2.944-4.444 1.07 0 1.635.134 2.363.46v6.259Z"/><path fill="url(#a)" fill-rule="evenodd" d="m47.118 38.29 21.48-12.843c1.531-.907 3.404.461 2.988 2.2l-.728 3.033a40.091 40.091 0 0 0 0 18.685l.728 3.032c.416 1.725-1.457 3.107-2.988 2.2l-21.48-12.843a2.898 2.898 0 0 1-.341-.253c.104 2.646.46 5.277 1.07 7.864l.728 3.032c.416 1.725-1.457 3.107-2.988 2.2L24.122 41.74c-1.308-.788-1.308-2.675 0-3.448l21.48-12.844c1.531-.907 3.404.461 2.988 2.2l-.728 3.033a39.252 39.252 0 0 0-1.07 7.863c.103-.089.207-.178.341-.252h-.015Z" clip-rule="evenodd"/><path fill="url(#b)" fill-opacity=".3" fill-rule="evenodd" d="m47.118 38.29 21.48-12.843c1.531-.907 3.404.461 2.988 2.2l-.728 3.033a40.091 40.091 0 0 0 0 18.685l.728 3.032c.416 1.725-1.457 3.107-2.988 2.2l-21.48-12.843a2.898 2.898 0 0 1-.341-.253c.104 2.646.46 5.277 1.07 7.864l.728 3.032c.416 1.725-1.457 3.107-2.988 2.2L24.122 41.74c-1.308-.788-1.308-2.675 0-3.448l21.48-12.844c1.531-.907 3.404.461 2.988 2.2l-.728 3.033a39.252 39.252 0 0 0-1.07 7.863c.103-.089.207-.178.341-.252h-.015Z" clip-rule="evenodd"/><path fill="url(#c)" fill-opacity=".2" fill-rule="evenodd" d="m47.118 38.29 21.48-12.843c1.531-.907 3.404.461 2.988 2.2l-.728 3.033a40.091 40.091 0 0 0 0 18.685l.728 3.032c.416 1.725-1.457 3.107-2.988 2.2l-21.48-12.843a2.898 2.898 0 0 1-.341-.253c.104 2.646.46 5.277 1.07 7.864l.728 3.032c.416 1.725-1.457 3.107-2.988 2.2L24.122 41.74c-1.308-.788-1.308-2.675 0-3.448l21.48-12.844c1.531-.907 3.404.461 2.988 2.2l-.728 3.033a39.252 39.252 0 0 0-1.07 7.863c.103-.089.207-.178.341-.252h-.015Z" clip-rule="evenodd"/><path fill="url(#d)" fill-opacity=".4" fill-rule="evenodd" d="m47.118 38.29 21.48-12.843c1.531-.907 3.404.461 2.988 2.2l-.728 3.033a40.091 40.091 0 0 0 0 18.685l.728 3.032c.416 1.725-1.457 3.107-2.988 2.2l-21.48-12.843a2.898 2.898 0 0 1-.341-.253c.104 2.646.46 5.277 1.07 7.864l.728 3.032c.416 1.725-1.457 3.107-2.988 2.2L24.122 41.74c-1.308-.788-1.308-2.675 0-3.448l21.48-12.844c1.531-.907 3.404.461 2.988 2.2l-.728 3.033a39.252 39.252 0 0 0-1.07 7.863c.103-.089.207-.178.341-.252h-.015Z" clip-rule="evenodd"/><path fill="#000" d="m46.777 41.486.104-.104-.268-.237v.356h.164v-.014Zm.014-2.943h-.148v.357l.267-.238-.119-.119Zm21.733-13.23-21.48 12.844.149.252 21.48-12.843-.149-.253Zm3.21 2.35c.447-1.86-1.575-3.33-3.21-2.35l.149.253c1.412-.847 3.151.431 2.765 2.037l.282.074.015-.015Zm-.727 3.032.728-3.033-.283-.074-.728 3.032.282.075Zm0 18.61a40.173 40.173 0 0 1 0-18.61l-.283-.075a40.406 40.406 0 0 0 0 18.76l.282-.075Zm.728 3.033-.728-3.032-.283.074.728 3.032.283-.074Zm-3.211 2.349c1.635.98 3.657-.49 3.21-2.35l-.282.075c.387 1.606-1.352 2.884-2.764 2.037l-.15.253-.014-.015Zm-21.48-12.844 21.48 12.844.149-.253-21.48-12.843-.149.252Zm-.357-.267c.104.104.223.193.357.267l.149-.252a1.73 1.73 0 0 1-.312-.238l-.209.223h.015Zm1.323 7.73a41.206 41.206 0 0 1-1.07-7.834h-.297c.104 2.66.46 5.306 1.07 7.908l.282-.075h.015Zm.729 3.032-.729-3.032-.282.074.728 3.032.283-.074Zm-3.211 2.349c1.635.98 3.657-.49 3.21-2.35l-.282.075c.387 1.606-1.352 2.884-2.765 2.037l-.148.253-.015-.015Zm-21.48-12.814 21.48 12.843.148-.252-21.48-12.844-.148.253Zm0-3.701c-1.397.832-1.397 2.869 0 3.701l.149-.253a1.865 1.865 0 0 1 0-3.196l-.149-.252Zm21.465-12.859L24.048 38.157l.149.252 21.48-12.843-.15-.253h-.014Zm3.21 2.35c.447-1.86-1.575-3.33-3.21-2.35l.149.253c1.412-.847 3.151.431 2.765 2.037l.282.074.015-.015Zm-.727 3.032.728-3.033-.283-.074-.728 3.032.282.075Zm-1.07 7.833c.088-2.63.445-5.262 1.07-7.833l-.283-.075a39.534 39.534 0 0 0-1.07 7.893h.297l-.015.015Zm.118-.371a1.602 1.602 0 0 0-.357.267l.209.223c.089-.089.193-.163.312-.238l-.149-.252h-.015Z"/><defs><linearGradient id="a" x1="94.512" x2="96.938" y1="14.024" y2="65.68" gradientUnits="userSpaceOnUse"><stop stop-color="#A73EFF"/><stop offset=".07" stop-color="#A63EFF"/><stop offset=".13" stop-color="#A33CFD"/><stop offset=".2" stop-color="#9E3AFB"/><stop offset=".27" stop-color="#9636F8"/><stop offset=".33" stop-color="#8D32F4"/><stop offset=".4" stop-color="#812CF0"/><stop offset=".47" stop-color="#7426EB"/><stop offset=".53" stop-color="#6720E6"/><stop offset=".6" stop-color="#5B1AE0"/><stop offset=".67" stop-color="#4F15DC"/><stop offset=".73" stop-color="#4611D8"/><stop offset=".8" stop-color="#3E0DD5"/><stop offset=".87" stop-color="#390BD3"/><stop offset=".93" stop-color="#3609D2"/><stop offset="1" stop-color="#3509D1"/></linearGradient><linearGradient id="b" x1="104.678" x2="104.678" y1="24.991" y2="57.186" gradientUnits="userSpaceOnUse"><stop stop-color="#fff"/><stop offset=".07" stop-color="#FDFDFD"/><stop offset=".13" stop-color="#F6F6F6"/><stop offset=".2" stop-color="#EAEAEA"/><stop offset=".27" stop-color="#D9D9D9"/><stop offset=".33" stop-color="#C4C4C4"/><stop offset=".4" stop-color="#AAA"/><stop offset=".47" stop-color="#8E8E8E"/><stop offset=".53" stop-color="#717171"/><stop offset=".6" stop-color="#555"/><stop offset=".67" stop-color="#3B3B3B"/><stop offset=".73" stop-color="#262626"/><stop offset=".8" stop-color="#151515"/><stop offset=".87" stop-color="#090909"/><stop offset=".93" stop-color="#020202"/><stop offset="1"/></linearGradient><linearGradient id="c" x1="104.678" x2="104.678" y1="24.991" y2="54.996" gradientUnits="userSpaceOnUse"><stop stop-color="#fff"/><stop offset=".07" stop-color="#FDFDFD" stop-opacity=".99"/><stop offset=".13" stop-color="#F6F6F6" stop-opacity=".96"/><stop offset=".2" stop-color="#EAEAEA" stop-opacity=".92"/><stop offset=".27" stop-color="#D9D9D9" stop-opacity=".85"/><stop offset=".33" stop-color="#C4C4C4" stop-opacity=".77"/><stop offset=".4" stop-color="#AAA" stop-opacity=".67"/><stop offset=".47" stop-color="#8E8E8E" stop-opacity=".56"/><stop offset=".53" stop-color="#717171" stop-opacity=".44"/><stop offset=".6" stop-color="#555" stop-opacity=".33"/><stop offset=".67" stop-color="#3B3B3B" stop-opacity=".23"/><stop offset=".73" stop-color="#262626" stop-opacity=".15"/><stop offset=".8" stop-color="#151515" stop-opacity=".08"/><stop offset=".87" stop-color="#090909" stop-opacity=".04"/><stop offset=".93" stop-color="#020202" stop-opacity="0"/><stop offset="1" stop-opacity="0"/></linearGradient><linearGradient id="d" x1="104.678" x2="104.678" y1="24.991" y2="54.996" gradientUnits="userSpaceOnUse"><stop offset=".48" stop-color="#fff" stop-opacity=".17"/><stop offset="1" stop-color="#fff"/></linearGradient></defs></svg>