<svg xmlns="http://www.w3.org/2000/svg" fill="none" viewBox="0 0 210 80"><path fill="#7331FF" d="M57.79 14H29.36C23.089 14 18 19.088 18 25.374V53.79c0 6.273 5.088 11.36 11.36 11.36h28.43c6.272 0 11.36-5.087 11.36-11.36V25.374C69.15 19.088 64.062 14 57.79 14Zm0 39.79H40.25a5.707 5.707 0 0 1-4.025-1.67l-5.195-5.196a5.707 5.707 0 0 1-1.67-4.024V25.374h11.375v17.041h17.054V53.79Z"/><path fill="#000" fill-rule="evenodd" d="M87.995 28.806v21.12h3.715v-21.12h-3.715Zm9.61 20.635c1.158.606 2.464.902 3.917.902 1.454 0 2.76-.296 3.917-.902a6.776 6.776 0 0 0 2.746-2.624c.673-1.145.996-2.518.996-4.133V42.2c0-1.616-.336-2.989-.996-4.133a6.776 6.776 0 0 0-2.746-2.625c-1.157-.605-2.463-.901-3.917-.901-1.453 0-2.759.296-3.917.901a6.779 6.779 0 0 0-2.746 2.625c-.673 1.144-.996 2.517-.996 4.133v.484c0 1.615.337 2.988.996 4.133a6.778 6.778 0 0 0 2.746 2.624Zm6.758-3.594c-.754.74-1.696 1.037-2.827 1.037s-2.087-.283-2.827-1.037c-.754-.767-1.117-1.844-1.117-3.257v-.296c0-1.413.377-2.477 1.117-3.23.754-.768 1.696-1.064 2.827-1.064s2.1.296 2.827 1.063c.753.74 1.117 1.817 1.117 3.23v.297c0 1.413-.377 2.49-1.117 3.257Zm14.039 4.496c-1.454 0-2.76-.296-3.917-.902a6.776 6.776 0 0 1-2.746-2.624c-.673-1.145-.996-2.518-.996-4.133V42.2c0-1.616.336-2.989.996-4.133a6.776 6.776 0 0 1 2.746-2.625c1.157-.605 2.463-.901 3.917-.901 1.454 0 2.759.296 3.917.901a6.776 6.776 0 0 1 2.746 2.625c.673 1.144.996 2.517.996 4.133v.484c0 1.615-.337 2.988-.996 4.133a6.776 6.776 0 0 1-2.746 2.624c-1.158.606-2.463.902-3.917.902Zm0-3.46c1.144 0 2.086-.282 2.827-1.036.753-.767 1.117-1.844 1.117-3.257v-.296c0-1.413-.377-2.477-1.117-3.23-.727-.768-1.67-1.064-2.827-1.064-1.158 0-2.086.296-2.827 1.063-.754.74-1.117 1.817-1.117 3.23v.297c0 1.413.377 2.49 1.117 3.257.754.74 1.696 1.037 2.827 1.037Zm10.526 2.141c.606.606 1.4.902 2.356.902h4.132v-3.46h-2.813c-.552 0-.821-.35-.821-.942v-7.403h3.97v-3.19h-3.97v-4.132h-3.715V46.56c0 1.023.282 1.844.861 2.463Zm50.76-20.204h3.472v6.11h2.814c1.319 0 2.517.284 3.567.836a6.226 6.226 0 0 1 2.53 2.409c.619 1.05.929 2.315.929 3.782v7.969h-3.554v-7.928c0-1.292-.215-2.248-.901-2.948-.673-.673-1.535-1.01-2.571-1.01h-2.06c-.417 0-.74.35-.74.781v11.118h-3.473V28.833l-.013-.013Zm-8.157 21.537c-1.912 0-3.473-.418-4.685-1.266-1.211-.848-1.952-2.046-2.207-3.62l3.419-.902c.134.7.363 1.252.673 1.655.336.404.74.7 1.211.875a5.04 5.04 0 0 0 1.589.243c.861 0 1.507-.149 1.911-.458.417-.323.619-.714.619-1.171 0-.458-.202-.808-.592-1.05-.391-.256-1.023-.471-1.885-.633l-.821-.148a14.859 14.859 0 0 1-2.8-.82c-.848-.364-1.521-.849-2.032-1.482-.512-.619-.767-1.426-.767-2.409 0-1.494.525-2.625 1.588-3.405 1.063-.808 2.45-1.212 4.186-1.212 1.629 0 2.988.377 4.065 1.117 1.077.74 1.791 1.723 2.127 2.921l-3.446 1.09c-.161-.767-.484-1.305-.969-1.628-.471-.323-1.063-.485-1.763-.485s-1.252.135-1.629.39a1.137 1.137 0 0 0-.565 1.023c0 .485.202.849.592 1.09.39.216.929.391 1.588.512l.821.148c1.104.202 2.1.471 2.975.808.902.323 1.615.794 2.127 1.413.525.606.794 1.427.794 2.477 0 1.575-.565 2.786-1.683 3.648-1.103.848-2.584 1.265-4.455 1.265l.014.014ZM146.642 34.93h-4.711c-1.642 0-2.975 1.386-2.975 3.096v11.886h3.715V39.144c0-.43.337-.78.741-.78h3.217v-3.447l.013.014Zm1.898 0h3.554v7.753c0 1.292.215 2.248.901 2.948.687.687 1.562 1.023 2.612 1.023s1.925-.337 2.611-1.023c.687-.7.983-1.656.983-2.948v-7.753h3.472V42.9c0 1.467-.309 2.732-.928 3.782a6.23 6.23 0 0 1-2.531 2.41c-1.063.551-2.275.834-3.607.834-1.333 0-2.544-.283-3.608-.835a6.225 6.225 0 0 1-2.53-2.41c-.619-1.049-.929-2.314-.929-3.781v-7.97Z" clip-rule="evenodd"/></svg>