<svg xmlns="http://www.w3.org/2000/svg" fill="none" viewBox="0 0 210 80"><path fill="#060809" fill-rule="evenodd" d="M54.805 43.112c-3.23 0-6.975 1.548-9.005 3.152l1.858 3.897c1.63-1.49 4.26-2.75 6.633-2.75 2.372 0 3.487.744 3.487 2.263 0 1.031-.829 1.547-2.373 1.748C49.574 52.167 45 53.772 45 58.27c0 3.552 2.544 5.73 6.49 5.73 2.83 0 5.345-1.576 6.545-3.639v3.066h5.26V50.562c0-5.3-3.687-7.45-8.49-7.45Zm-1.972 16.762c-1.487 0-2.23-.716-2.23-1.92 0-2.235 2.487-2.98 7.032-3.467.029 2.98-2 5.387-4.802 5.387Zm60.06-12.865v-3.324h-5.26v19.742h5.631v-9.513c0-4.527 2.716-5.845 4.631-5.845.744 0 1.744.23 2.402.716l1.029-5.214c-.858-.373-1.773-.459-2.516-.459-2.887 0-4.717 1.29-5.917 3.897Zm34.561-3.897c-2.973 0-5.203 1.777-6.375 3.467-1.086-2.206-3.345-3.467-6.089-3.467-2.973 0-5.031 1.662-6.003 3.553v-2.98h-5.432v19.742h5.632V53.255c0-3.639 1.915-5.386 3.688-5.386 1.6 0 3.087 1.031 3.087 3.724v11.834h5.66V53.255c0-3.696 1.858-5.386 3.716-5.386 1.487 0 3.059 1.088 3.059 3.696v11.862h5.632V49.788c0-4.44-2.973-6.676-6.575-6.676Zm-64.263-.888v1.461h-8.547V41.68c0-2.608 1.487-3.353 2.773-3.353.743 0 1.715.172 2.516.63l1.743-3.982c-1.029-.602-2.715-1.146-4.974-1.146-3.602 0-7.69 2.034-7.69 8.424v1.461h-3.258v4.355h3.259v15.358h5.631V48.041h8.547v15.386h5.632V48.041h5.117v-4.356h-5.117V41.68c0-2.608 1.486-3.353 2.773-3.353 1.43 0 2.515.63 2.515.63l1.744-3.982s-1.772-1.146-4.974-1.146c-3.573-.029-7.69 2.006-7.69 8.395Z" clip-rule="evenodd"/><path fill="#060809" d="M97.114 43.429h6.172v19.885h-6.172V43.43Z"/><path fill="#0FA0EA" fill-rule="evenodd" d="M130.427 16c-15.226 0-28.792 10.581-32.627 24.202h5.524c3.205-10.151 14.109-19.04 27.103-19.04 15.798 0 29.421 12.043 29.421 30.797 0 4.215-.543 8-1.574 11.355h5.352l.057-.172c.888-3.47 1.317-7.226 1.317-11.183C165 31.054 149.803 16 130.427 16Z" clip-rule="evenodd"/></svg>