<svg xmlns="http://www.w3.org/2000/svg" fill="none" viewBox="0 0 210 80"><path fill="#000" d="M184.976 26.908c-6.865 3.967-13.639 7.876-20.494 11.834L185 50.59c-1.103.639-2.124 1.249-3.169 1.81-.14.077-.435-.034-.61-.136-4.402-2.535-8.8-5.075-13.203-7.62-1.891-1.093-3.773-2.191-5.675-3.265-1.906-1.08-2.859-2.68-2.859-4.882.01-6.696.01-13.392-.005-20.088 0-.44.111-.696.523-.9.909-.45 1.79-.962 2.796-1.509v21.834c.774-.44 1.442-.817 2.105-1.2 5.418-3.13 10.842-6.26 16.256-9.4.338-.198.59-.227.938-.01.915.566 1.863 1.089 2.879 1.674v.01ZM25 38.834c1.03 0 1.993-.024 2.956.02.184.009.407.246.523.43 1.959 3.15 3.909 6.309 5.858 9.463.073.116.146.227.262.411.12-.179.227-.324.324-.474 1.945-3.14 3.89-6.275 5.815-9.42.199-.324.402-.454.78-.44.885.03 1.775.01 2.709.01v19.284h-3.184V44.562c-.034-.01-.068-.024-.102-.034-.101.15-.208.3-.304.455-1.587 2.54-3.179 5.08-4.746 7.63-.228.367-.47.483-.91.541-1.006.131-1.539-.275-2.042-1.132-1.364-2.336-2.84-4.605-4.272-6.899a1.57 1.57 0 0 0-.455-.508v13.499H25v-19.28ZM60.086 61.62l1.277-2.056c.963.789 1.998 1.364 3.188 1.62 1.268.272 2.53.33 3.76-.183 1.262-.527 2.05-1.427 2.104-2.85.024-.61 0-1.224 0-1.843-.063 0-.111-.014-.126 0-3.382 3.26-8.902 1.587-10.03-3.087-.802-3.348.315-6.618 3.175-8.273 2.303-1.33 4.64-1.253 6.894.223.077.053.16.101.314.203.054-.368.097-.682.145-1.03h2.816v13.019c0 3.42-1.616 5.54-4.949 6.323-2.85.668-5.52.189-7.93-1.543-.125-.092-.242-.194-.362-.29-.073-.063-.146-.126-.281-.238l.005.005Zm10.363-11.558c0-.658.02-1.316-.01-1.974-.01-.189-.097-.426-.232-.542-1.37-1.214-3.967-1.243-5.39-.082-1.645 1.345-2.07 4.36-.885 6.265.861 1.389 2.337 1.994 3.948 1.616 1.466-.343 2.4-1.475 2.525-3.14.054-.71.01-1.427.01-2.143h.034Zm68.691-5.733h2.791c.044.668.088 1.326.136 1.998.082-.02.135-.02.15-.039 1.993-3.009 6.889-3.072 9.255.295 2.022 2.874 1.655 7.485-.779 9.986-2.167 2.23-5.888 2.56-8.355.542v6.536h-3.193V44.33h-.005Zm3.169 7.659c0 .696-.02 1.393.009 2.085.01.208.088.46.223.61 1.524 1.673 4.446 1.625 5.864-.126 1.311-1.621 1.335-3.498.779-5.39-.537-1.81-2.182-2.816-3.914-2.53-1.766.29-2.937 1.712-2.961 3.604-.005.58 0 1.161 0 1.742v.005Zm-8.472-1.965c.145-2.008-.929-3.236-2.99-3.396-1.543-.116-2.941.324-4.199 1.214-.126.087-.247.184-.377.271-.029.02-.073.025-.155.049-.387-.6-.779-1.21-1.171-1.815 2.177-2.21 6.318-2.97 9.037-1.654 1.868.904 2.908 2.453 2.971 4.504.087 2.917.024 5.844.029 8.767 0 .053-.024.106-.048.193h-2.705l-.145-1.65c-.048-.043-.097-.087-.14-.13-.082.145-.141.31-.252.425-1.688 1.771-4.867 2.187-6.967.93-2.457-1.476-2.709-4.94-.474-6.827 1.519-1.282 3.339-1.534 5.24-1.34.779.082 1.548.29 2.346.45v.01Zm0 2.056c-.367-.106-.73-.241-1.108-.31-1.146-.207-2.302-.328-3.415.156-.91.392-1.423 1.228-1.355 2.157.063.93.634 1.63 1.621 1.878 1.301.319 2.477.067 3.478-.88.862-.814.862-1.844.779-2.99v-.01ZM58.31 58.168h-2.69c-.043-.571-.087-1.118-.13-1.665l-.126-.082c-.111.15-.208.32-.339.45-1.713 1.727-4.857 2.114-6.928.852-1.427-.871-2.047-2.187-1.955-3.818.097-1.717 1.021-2.941 2.54-3.677 1.96-.953 4.002-.885 6.048-.29.165.049.324.097.489.15.29-1.92-.92-3.314-2.995-3.464-1.505-.106-2.864.31-4.103 1.156-.189.131-.372.266-.59.421-.407-.633-.803-1.243-1.21-1.882 1.611-1.417 3.445-2.172 5.55-2.259 1.582-.063 3.091.198 4.398 1.161 1.306.963 2.041 2.293 2.075 3.91.053 2.902.014 5.805.014 8.703 0 .092-.028.189-.048.334Zm-4.49-6.416c-.9-.174-1.838-.188-2.723.059a4.842 4.842 0 0 0-.349.11c-1.01.383-1.504 1.293-1.369 2.357.111.876.842 1.563 1.843 1.742 2.39.425 4.166-1.113 4.04-3.527-.01-.184-.218-.47-.382-.508a18.994 18.994 0 0 0-1.07-.233h.01Zm59.697.562c.267 1.49 1.012 2.564 2.318 3.125 2.322 1.006 4.446.508 6.444-1.079.416.615.832 1.23 1.258 1.863-1.321 1.33-2.917 1.993-4.712 2.163-3.024.285-5.612-.547-7.32-3.223-2.11-3.304-1.442-9.526 4.257-10.929 3.285-.813 6.498.832 7.441 3.813a5.63 5.63 0 0 1 .247 1.707c-.019 1.626-.948 2.535-2.584 2.555-2.22.024-4.446.005-6.671.005h-.682.004Zm-.053-2.298c2.182 0 4.321.01 6.459-.01.402 0 .595-.286.619-.702.063-1.175-.967-2.4-2.293-2.7-2.366-.536-4.383.867-4.785 3.407v.005ZM98.113 38.858h3.222v16.469h8.772c-.078.972-.15 1.882-.228 2.83H98.113V38.858Zm-6.27 15.54c.43.634.856 1.272 1.282 1.896-2.1 2.705-7.359 2.884-10.107.373-2.985-2.729-3.028-7.823-.092-10.6 2.87-2.71 7.964-2.68 10.233.111-.436.629-.88 1.277-1.326 1.926-2.898-2.24-5.467-1.355-6.72.053-1.427 1.606-1.456 4.48-.048 6.168 1.504 1.805 3.875 1.839 6.773.073h.005Zm67.694-10.828c1.065.615 2.071 1.176 3.053 1.786.155.096.247.41.247.624.014 2.569.009 5.143.009 7.712 0 3.072-.009 6.149.015 9.22 0 .475-.15.727-.556.94-.915.488-1.805 1.025-2.768 1.577V43.57Zm-22.202-16.667c1.108-.638 2.139-1.243 3.184-1.819.111-.063.334 0 .464.073 4.969 2.859 9.938 5.728 14.897 8.602.13.077.29.246.29.377.024 1.176.014 2.351.014 3.653-6.318-3.648-12.545-7.243-18.849-10.886ZM78.974 58.196H75.9V44.364h3.073v13.832ZM77.45 42.008c-1.162 0-2.042-.847-2.052-1.984-.01-1.137.857-1.993 2.027-2.003 1.195-.01 2.11.866 2.09 2.008-.019 1.142-.89 1.974-2.065 1.979Z"/></svg>