<svg xmlns="http://www.w3.org/2000/svg" fill="none" viewBox="0 0 210 80"><path fill="#000" d="M63.684 34h1.955l5.475 12.856h-2.592l-1.181-2.943h-5.513l-1.144 2.943h-2.536L63.675 34h.014-.005Zm2.87 7.951-1.956-5.226-1.992 5.226h3.947ZM73.541 34h2.606l3.47 9.714L83.188 34h2.447l-5.142 12.856h-1.955L73.542 34ZM93.713 34h1.954l5.475 12.856H98.55l-1.181-2.943h-5.513l-1.143 2.943h-2.527L93.712 34Zm2.868 7.951-1.954-5.226-1.993 5.226h3.947ZM106.148 34h2.26v10.785h5.409v2.07h-7.669V34ZM123.159 34h1.955l5.475 12.856h-2.592l-1.181-2.943h-5.513l-1.144 2.943h-2.526L123.159 34Zm2.869 7.951-1.955-5.226-1.992 5.226h3.947ZM135.595 34.303h3l6.155 9.553h.037v-9.553h2.26V47.16h-2.869l-6.286-9.86h-.037v9.86h-2.26V34.303Zm26.602 3.01c-.464-.513-.919-.849-1.369-1.02a3.411 3.411 0 0 0-1.317-.255c-.666 0-1.261.123-1.795.365-.53.227-.985.55-1.369.98-.385.417-.68.9-.905 1.45a5.232 5.232 0 0 0-.305 1.801c0 .687.108 1.332.305 1.91.211.578.52 1.09.905 1.502.384.431.839.753 1.369.995a4.371 4.371 0 0 0 1.795.365c.52 0 1.008-.123 1.486-.365.492-.256.942-.659 1.369-1.194l1.861 1.34c-.572.792-1.275 1.385-2.1 1.745a6.528 6.528 0 0 1-2.644.55 7.837 7.837 0 0 1-2.71-.47 6.444 6.444 0 0 1-2.114-1.355 6.41 6.41 0 0 1-1.382-2.123c-.333-.82-.507-1.734-.507-2.739 0-1.004.174-1.962.507-2.796.332-.848.796-1.573 1.382-2.16a6.018 6.018 0 0 1 2.114-1.356c.825-.322 1.725-.483 2.71-.483.862 0 1.659.161 2.39.47.746.307 1.435.819 2.058 1.558l-1.753 1.303.014-.014.005-.005Zm7.158-3.01h2.259v5.118h5.939v-5.118h2.274V47.16h-2.274v-5.667h-5.939v5.667h-2.259V34.303Zm16.903 0h8.409v2.071h-6.15v3.156h5.831v2.066h-5.831v3.492H195v2.071h-8.742V34.303Z"/><path fill="#E84142" fill-rule="evenodd" d="M51.46 40.429c0 10.183-8.157 18.428-18.23 18.428C23.156 58.857 15 50.612 15 40.43 15 30.245 23.156 22 33.23 22c10.073 0 18.23 8.245 18.23 18.429Zm-23.4 7.335h-3.535c-.745 0-1.116 0-1.327-.147a.951.951 0 0 1-.412-.71c-.014-.27.173-.593.53-1.252l8.742-15.566c.37-.659.558-.995.797-1.114a.876.876 0 0 1 .81 0c.24.123.427.455.797 1.114l1.796 3.17.014.014c.398.711.61 1.076.689 1.45.094.417.094.849 0 1.26-.094.375-.29.74-.703 1.465l-4.585 8.207-.014.029c-.398.71-.609 1.075-.89 1.355-.305.294-.68.512-1.088.644-.37.11-.783.11-1.622.11v-.029Zm8.93 0h5.076c.745 0 1.13 0 1.34-.147a.934.934 0 0 0 .413-.71c.014-.257-.174-.579-.52-1.18-.015-.03-.029-.043-.043-.067l-2.536-4.393-.028-.052c-.36-.606-.53-.914-.769-1.033a.876.876 0 0 0-.81 0c-.24.123-.427.446-.797 1.09l-2.527 4.393-.014.014c-.37.644-.558.967-.544 1.237.014.294.16.55.413.71.225.148.6.148 1.34.148l.005-.01Z" clip-rule="evenodd"/></svg>