<svg xmlns="http://www.w3.org/2000/svg" fill="none" viewBox="0 0 210 80"><path fill="#000" d="M77.77 49.747c-1.756 0-3.379-.392-4.856-1.186a9.216 9.216 0 0 1-3.492-3.29c-.85-1.422-1.276-3.022-1.276-4.78 0-1.757.425-3.357 1.276-4.756a9.132 9.132 0 0 1 3.492-3.29c1.477-.784 3.089-1.186 4.857-1.186 1.768 0 3.369.391 4.823 1.186a8.772 8.772 0 0 1 3.47 3.29c.85 1.41 1.276 2.988 1.276 4.757 0 1.768-.426 3.357-1.276 4.778a8.841 8.841 0 0 1-3.47 3.29c-1.454.784-3.066 1.187-4.823 1.187Zm0-4.018c1.49 0 2.687-.481 3.571-1.443.907-.963 1.365-2.228 1.365-3.806 0-1.578-.458-2.865-1.365-3.805-.884-.962-2.082-1.443-3.57-1.443-1.489 0-2.72.47-3.626 1.41-.884.94-1.332 2.216-1.332 3.827 0 1.612.448 2.877 1.332 3.828.906.94 2.115 1.41 3.626 1.41v.022Zm16.676-8.483c.448-.671 1.064-1.209 1.836-1.623.783-.414 1.7-.615 2.742-.615 1.231 0 2.339.302 3.335.895.996.604 1.779 1.455 2.35 2.574.582 1.12.884 2.406.884 3.884 0 1.477-.291 2.775-.884 3.906-.571 1.119-1.354 1.98-2.35 2.596-.996.604-2.104.895-3.335.895-1.03 0-1.948-.201-2.742-.615-.784-.414-1.4-.94-1.836-1.59v6.279h-4.555V35.209h4.555v2.037Zm6.503 5.115c0-1.097-.325-1.959-.963-2.574-.627-.638-1.399-.952-2.317-.952-.917 0-1.678.314-2.316.952-.627.638-.929 1.5-.929 2.596 0 1.097.313 1.959.929 2.596.638.638 1.41.952 2.317.952.906 0 1.678-.314 2.316-.952.638-.649.963-1.522.963-2.618Zm21.062-.202c0 .414-.022.84-.078 1.287h-10.319c.067.896.37 1.578.884 2.06.538.458 1.187.693 1.948.693 1.141 0 1.925-.459 2.372-1.387h4.857a6.294 6.294 0 0 1-1.365 2.551 6.686 6.686 0 0 1-2.428 1.78c-.974.425-2.071.638-3.28.638-1.455 0-2.753-.303-3.894-.896a6.484 6.484 0 0 1-2.664-2.574c-.638-1.119-.962-2.417-.962-3.906 0-1.488.313-2.797.929-3.906a6.548 6.548 0 0 1 2.663-2.574c1.13-.604 2.44-.895 3.917-.895 1.477 0 2.72.291 3.839.873a6.236 6.236 0 0 1 2.608 2.496c.637 1.085.962 2.339.962 3.783l.011-.023Zm-4.667-1.153c0-.75-.268-1.354-.794-1.801-.526-.448-1.198-.672-2.004-.672-.805 0-1.41.213-1.947.638-.515.425-.839 1.04-.962 1.824h5.707v.011Zm16.139-5.942c1.745 0 3.133.548 4.163 1.645 1.052 1.085 1.578 2.574 1.578 4.476v8.383h-4.533v-7.79c0-.962-.257-1.7-.772-2.238-.515-.526-1.209-.794-2.082-.794-.873 0-1.566.268-2.081.794-.515.526-.772 1.276-.772 2.239v7.789h-4.555V35.22h4.555v1.903c.458-.638 1.085-1.13 1.869-1.488.783-.381 1.656-.571 2.641-.571h-.011Zm15.668 14.683c-1.366 0-2.597-.213-3.682-.638-1.086-.425-1.959-1.063-2.608-1.902-.638-.84-.974-1.847-1.018-3.033h4.857c.067.671.313 1.186.716 1.544.414.347.94.515 1.6.515.661 0 1.209-.146 1.601-.437.392-.313.582-.727.582-1.264 0-.448-.157-.817-.481-1.108-.303-.291-.683-.526-1.142-.716-.448-.19-1.086-.403-1.925-.638-1.209-.358-2.193-.717-2.954-1.086a5.472 5.472 0 0 1-1.97-1.59c-.549-.704-.828-1.622-.828-2.752 0-1.679.626-2.988 1.891-3.94 1.265-.962 2.91-1.443 4.935-1.443 2.026 0 3.727.48 4.992 1.443 1.265.94 1.936 2.261 2.026 3.962h-4.936c-.033-.582-.257-1.04-.671-1.365-.414-.347-.929-.515-1.578-.515-.549 0-.996.145-1.332.436-.336.28-.504.683-.504 1.21 0 .581.28 1.04.851 1.364.571.325 1.455.683 2.663 1.053 1.209.391 2.183.772 2.933 1.13a5.531 5.531 0 0 1 1.969 1.567c.549.682.828 1.567.828 2.652 0 1.086-.279 1.959-.828 2.798-.537.84-1.32 1.51-2.35 2.003-1.03.493-2.249.75-3.648.75h.011Zm23.659-7.588c0 .414-.023.84-.079 1.287h-10.318c.067.896.369 1.578.884 2.06.537.458 1.186.693 1.947.693 1.142 0 1.925-.459 2.373-1.387h4.857a6.405 6.405 0 0 1-1.354 2.551 6.681 6.681 0 0 1-2.429 1.78c-.973.425-2.07.638-3.279.638-1.455 0-2.753-.303-3.895-.896a6.487 6.487 0 0 1-2.663-2.574c-.638-1.119-.963-2.417-.963-3.906 0-1.488.314-2.797.929-3.906a6.557 6.557 0 0 1 2.664-2.574c1.141-.604 2.44-.895 3.917-.895 1.477 0 2.719.291 3.839.873a6.228 6.228 0 0 1 2.607 2.496c.638 1.085.963 2.339.963 3.783v-.023Zm-4.667-1.153c0-.75-.269-1.354-.795-1.801-.537-.448-1.197-.672-2.003-.672s-1.41.213-1.947.638c-.515.425-.84 1.04-.963 1.824h5.708v.011Zm6.166 1.355c0-1.478.28-2.765.851-3.884.582-1.119 1.377-1.97 2.373-2.574.996-.604 2.104-.895 3.335-.895 1.052 0 1.969.201 2.742.615.794.414 1.41.952 1.835 1.623V35.21H190v14.348h-4.555V47.52c-.448.671-1.063 1.209-1.869 1.623-.783.414-1.701.615-2.742.615a6.324 6.324 0 0 1-3.301-.895c-.996-.616-1.791-1.489-2.373-2.596-.571-1.13-.851-2.44-.851-3.906Zm11.147.022c0-1.097-.324-1.959-.962-2.596-.627-.638-1.388-.952-2.295-.952-.906 0-1.678.314-2.316.952-.627.615-.929 1.477-.929 2.574 0 1.096.313 1.97.929 2.618.638.638 1.41.952 2.316.952.907 0 1.668-.314 2.295-.952.638-.637.962-1.5.962-2.596Z"/><path fill="#2081E2" d="M40.156 20C29.02 20 20 29.032 20 40.156c0 11.124 9.02 20.156 20.156 20.156a20.156 20.156 0 1 0 0-40.312ZM29.938 40.839l.09-.135 5.248-8.203c.068-.123.258-.112.314.022.873 1.959 1.634 4.399 1.276 5.92-.157.627-.571 1.478-1.03 2.261l-.201.336a.191.191 0 0 1-.146.078h-5.394c-.146 0-.235-.167-.157-.28Zm23.38 2.82a.172.172 0 0 1-.113.168c-.414.179-1.801.817-2.372 1.623-1.477 2.048-2.608 4.98-5.126 4.98H35.198c-3.715 0-6.737-3.022-6.737-6.76v-.123c0-.1.078-.179.179-.179h5.864c.112 0 .19.112.19.224-.045.385.025.774.202 1.119a2.073 2.073 0 0 0 1.847 1.153h2.898v-2.261h-2.865c-.145 0-.235-.179-.145-.291.033-.056.067-.1.1-.157.269-.38.66-.985 1.041-1.667.276-.464.519-.946.728-1.444.044-.09.078-.179.112-.268.055-.157.111-.303.156-.448l.101-.38a5.621 5.621 0 0 0 .112-1.87c0-.19-.034-.391-.056-.593a4.574 4.574 0 0 0-.078-.526c-.045-.257-.101-.515-.168-.783l-.023-.101a9.305 9.305 0 0 0-.145-.526 25.442 25.442 0 0 0-.549-1.634 9.79 9.79 0 0 0-.246-.604l-.358-.817-.157-.325-.167-.37c-.045-.089-.09-.167-.123-.245l-.359-.66a.118.118 0 0 1 .135-.168l2.216.604h.01l.292.078.324.09.112.033v-1.31c0-.637.515-1.152 1.142-1.152.313 0 .604.123.806.336.201.212.335.492.335.817v1.947l.235.067s.034.023.056.034c.08.062.163.122.246.179.079.067.168.145.28.235.258.207.508.424.75.65.067.066.146.122.213.19.397.37.778.76 1.141 1.163.112.123.213.247.325.38l.324.392c.123.18.269.359.392.549.056.09.123.179.18.268.156.235.29.482.424.728.056.112.112.235.168.358.142.325.255.662.336 1.007a.722.722 0 0 1 .045.213v.022c.033.101.033.202.045.314a3.54 3.54 0 0 1-.056 1.03 6.352 6.352 0 0 1-.123.436c-.056.134-.101.29-.168.425-.123.291-.269.57-.437.84a4.68 4.68 0 0 1-.19.313c-.078.1-.146.201-.213.302-.1.123-.19.246-.29.37a2.9 2.9 0 0 1-.28.346 5.64 5.64 0 0 1-.415.47c-.08.102-.165.2-.257.291l-.269.269c-.134.134-.246.246-.347.336l-.235.212s-.067.045-.111.045h-1.769v2.26h2.216a2.07 2.07 0 0 0 1.354-.503c.135-.112.694-.604 1.377-1.343a.129.129 0 0 1 .078-.056l6.133-1.768c.112-.034.235.045.235.168v1.298Z"/></svg>