<svg xmlns="http://www.w3.org/2000/svg" fill="none" viewBox="0 0 210 80"><path fill="#5A38B2" d="M73.01 39.298c0-6.103 4.777-10.933 10.723-10.933 3.262 0 5.83 1.42 7.513 3.683v-2.02c0-.916.737-1.653 1.652-1.653.916 0 1.653.747 1.653 1.652v18.51c0 .916-.737 1.653-1.653 1.653a1.655 1.655 0 0 1-1.652-1.652v-2.02c-1.683 2.262-4.262 3.682-7.513 3.682-5.935 0-10.723-4.84-10.723-10.88v-.022Zm18.236.053c0-4.578-3.525-7.682-7.513-7.682-3.989 0-7.409 3.315-7.409 7.63 0 4.314 3.315 7.576 7.409 7.576 4.093 0 7.513-3.104 7.513-7.524Zm29.57 9.176V17.652c0-.915.737-1.652 1.652-1.652.916 0 1.653.747 1.653 1.652v30.864c0 .916-.737 1.653-1.653 1.653a1.655 1.655 0 0 1-1.652-1.652v.01Zm9.303-9.123c0-6.104 4.567-11.04 10.355-11.04 5.061 0 9.186 3.789 10.144 8.82.221 1.157-.705 2.23-1.884 2.23h-15.458c0 4.157 3.262 7.471 7.198 7.471 2.43 0 4.619-1.252 5.914-3.01.305-.41.768-.673 1.283-.673 1.242 0 1.947 1.39 1.242 2.41-1.862 2.705-4.862 4.578-8.45 4.578-5.777 0-10.355-4.893-10.355-10.786h.011Zm17.026-3.052c-1.157-2.789-3.63-4.683-6.671-4.683-3.042 0-5.567 1.947-6.672 4.683h13.343Zm9.04 19.005c.652 0 1.262.368 1.536.968 1.179 2.578 3.704 4.293 6.577 4.293 3.946 0 7.408-3.315 7.408-7.577V47.77c-1.736 1.737-3.315 2.42-5.672 2.42-5.251 0-9.302-3.946-9.302-9.26V30.017c0-.916.736-1.652 1.652-1.652.915 0 1.652.747 1.652 1.652v10.912c0 3.262 2.578 5.893 5.988 5.893 3.094 0 5.672-2.63 5.672-5.577V30.017c0-.916.747-1.652 1.652-1.652.905 0 1.652.747 1.652 1.652v23.077c0 6.05-4.935 10.839-10.723 10.839-4.167 0-7.892-2.526-9.618-6.24-.505-1.084.315-2.336 1.515-2.336h.011ZM63.76 29.743a8.883 8.883 0 0 0-5.262-1.82h-.442c-1.81.042-3.704.558-5.04 1.505-.8.535-1.5 1.204-2.073 1.978a8.873 8.873 0 0 0-1.968-1.905c-.021-.01-.042-.031-.074-.042-1.336-.957-3.157-1.494-4.988-1.526h-.442a8.857 8.857 0 0 0-5.261 1.82c-2.063 1.569-3.21 4.02-3.21 6.799V48.59a1.694 1.694 0 1 0 3.389 0V36.71c0-2.873 2.272-5.23 5.156-5.378h.273c2.989.032 5.388 2.442 5.388 5.388v11.85a1.727 1.727 0 0 0 3.452 0V36.72c0-2.946 2.389-5.356 5.388-5.388h.284c2.883.148 5.156 2.505 5.156 5.378v11.88a1.694 1.694 0 0 0 3.389 0V36.552c0-2.768-1.063-5.22-3.115-6.788v-.02Zm22.677 34.18v-7.746h1.179v1.042c.316-.694 1.042-1.231 2.052-1.231s1.736.505 2.273 1.294c.579-.778 1.441-1.294 2.557-1.294 1.568 0 2.968 1.01 2.968 2.947v4.987h-1.18v-4.82c0-1.325-.841-1.946-1.862-1.946-1.02 0-1.883.653-1.883 1.926v4.84h-1.179v-4.84c0-1.273-.873-1.926-1.884-1.926-1.104 0-1.862.779-1.862 2.094v4.672h-1.179Zm19.836-2.347h1.21c-.536 1.441-1.862 2.536-3.525 2.536-2.104 0-3.767-1.642-3.767-3.978 0-2.336 1.663-4.146 3.715-4.146 2.273 0 3.82 1.957 3.82 4.272h-6.399c.053 1.684 1.274 2.631 2.631 2.631a2.649 2.649 0 0 0 2.315-1.326v.01Zm.116-2.368c-.337-1.126-1.231-2-2.431-2-1.199 0-2.094.8-2.431 2h4.862Zm11.555-6.408v11.122h-1.179v-1.136c-.242.463-1.273 1.326-2.757 1.326-2.126 0-3.862-1.663-3.862-4.052 0-2.388 1.736-4.072 4.009-4.072 1.81 0 2.484.916 2.61 1.105v-4.294h1.179Zm-1.179 7.47v-.43c0-1.516-1.273-2.631-2.726-2.631-1.452 0-2.683 1.105-2.683 2.851 0 1.747 1.2 2.842 2.683 2.842 1.484 0 2.726-1.21 2.726-2.631Zm6.387 3.652h-1.178v-6.566h-.747v-1.179h1.925v7.745Zm-1.567-10.228a.894.894 0 1 1 1.788 0c0 .484-.41.894-.894.894a.893.893 0 0 1-.894-.894Zm12.427 7.524c-.578 1.957-2.167 2.894-3.767 2.894-2.105 0-3.883-1.663-3.883-4.052 0-2.388 1.81-4.072 3.883-4.072 1.694 0 3.21 1.031 3.767 2.915h-1.231c-.484-1.21-1.452-1.694-2.536-1.694-1.452 0-2.662 1.23-2.662 2.851 0 1.716 1.21 2.842 2.662 2.842 1.116 0 2.094-.505 2.536-1.684h1.231Zm10.218-5.135v7.84h-1.178v-1.137c-.242.463-1.274 1.326-2.757 1.326-2.126 0-3.862-1.59-3.862-4.052 0-2.336 1.568-4.072 3.893-4.072 1.01 0 2.126.316 2.726 1.136v-1.041h1.178Zm-1.178 4.177v-.431c0-1.515-1.116-2.63-2.726-2.63-1.61 0-2.683 1.199-2.683 2.85 0 1.832 1.273 2.842 2.683 2.842 1.526 0 2.726-1.21 2.726-2.63Zm5.998 3.662h-1.179V52.8h1.179v11.122Zm-47.365-15.395V29.922c0-.915.737-1.652 1.652-1.652.916 0 1.653.747 1.653 1.652v2.126c1.104-1.842 3.525-4.525 7.46-4.525h.863c.916 0 1.652.747 1.652 1.652 0 .905-.736 1.652-1.652 1.652h-.863c-4.051 0-7.46 3.578-7.46 7.524v10.155c0 .916-.737 1.652-1.653 1.652a1.655 1.655 0 0 1-1.652-1.652v.021Z"/></svg>