<svg xmlns="http://www.w3.org/2000/svg" fill="none" viewBox="0 0 210 80"><path fill="#EE3423" d="m22 42.86.004-12.004c0-.513-.079-.49.488-.49l12.784.01c1.727.013 3.342.48 4.727 1.566 1.185.932 1.915 2.161 2.218 3.646.13.64.195 1.285.156 1.936-.065 1.157-.339 2.252-1.104 3.165-.495.592-1.068 1.095-1.769 1.435-.312.154-.645.236-.98.298-.085.016-.192.013-.182.13.006.08.104.082.175.092.505.079 1.004.187 1.473.4 1.52.69 2.52 1.847 2.898 3.475.45 1.916.29 3.783-.687 5.53-.524.938-1.283 1.647-2.198 2.187-.548.324-1.118.624-1.727.791-.625.17-1.276.245-1.925.317-.387.043-.775.05-1.166.05H22.49c-.55 0-.485.071-.485-.481V42.867L22 42.86Zm9.375 7.57 2.556.003c.328.008.655-.033.971-.121.993-.275 1.694-.863 1.886-1.92.163-.895.13-1.765-.534-2.485a2.864 2.864 0 0 0-2.15-.954l-5.632-.004c-.306 0-.312.007-.312.305v4.872c0 .297.006.304.312.304h2.902Zm-.118-15.094h-2.726c-.368 0-.371.003-.371.383v4.823c0 .13.065.18.189.176h4.762c.443 0 .879-.026 1.315-.124 1.723-.38 2.583-2.289 1.91-3.783-.46-1.017-1.32-1.449-2.395-1.475-.896-.023-1.788-.003-2.684-.003v.003Zm149.787 2.825v-9.178c0-.543-.066-.48.488-.48h5.202c.185-.01.26.09.264.264v26.146c0 .543.065.48-.489.48h-5.286c-.127 0-.179-.062-.176-.186v-.782c0-.094.039-.212-.091-.261-.105-.04-.196-.01-.277.065-.704.664-1.613.962-2.443 1.4-.681.065-1.339.281-2.026.337-.798.065-1.59.045-2.371-.063a8.33 8.33 0 0 1-1.968-.532 8.14 8.14 0 0 1-2.022-1.187c-.551-.439-1.114-.887-1.515-1.501-.221-.34-.521-.631-.733-.994a15.38 15.38 0 0 1-.944-1.933 4.761 4.761 0 0 1-.313-1.164c-.059-.428-.146-.863-.15-1.305 0-.3-.036-.605-.055-.905-.049-.71.049-1.416.098-2.122a5.389 5.389 0 0 1 .342-1.505c.198-.533.348-1.085.622-1.589.43-.784.876-1.556 1.553-2.168.267-.238.476-.552.756-.775.362-.287.713-.591 1.111-.83a8.404 8.404 0 0 1 3.508-1.194 9.94 9.94 0 0 1 2.999.115c.955.186 1.844.477 2.684.951.414.233.772.543 1.238.903l-.006-.007Zm-8.958 7.946c-.019.396.017.827.108 1.252.397 1.848 1.759 3.345 3.788 3.535 1.508.14 2.788-.353 3.814-1.432 1.218-1.279 1.524-2.845 1.169-4.542-.244-1.16-.84-2.09-1.824-2.815-1.003-.74-2.094-1.034-3.286-.883-1.208.154-2.173.794-2.889 1.782-.658.909-.922 1.946-.883 3.103h.003Zm-68.468-3.162V30.85c0-.54-.075-.484.485-.484l16.905.006c.514 0 .469-.045.472.462v4.48c0 .45 0 .454-.446.454h-10.879c-.375.006-.378.006-.378.389v4.48c0 .428 0 .428.424.428h9.794c.602 0 .531-.062.531.533v4.437c0 .448.032.425-.42.425h-9.795c-.638 0-.531-.023-.534.533v8.005c0 .53.026.47-.462.47h-5.505c-.12.004-.192-.042-.189-.176V42.938l-.003.007Zm53.567 4.653h-6.325c-.505 0-.495 0-.362.51.303 1.168.98 2.044 2.052 2.587.612.31 1.27.506 1.967.516.606.01 1.209.026 1.811-.081 1.225-.216 2.372-.622 3.417-1.308.209-.138.424-.262.629-.412.26-.19.309-.157.485.147l1.971 3.446c.078.134.078.203-.056.317-.439.376-.925.687-1.41.994-1.062.67-2.228 1.096-3.449 1.364-1.583.347-3.179.389-4.792.19-.948-.118-1.853-.386-2.742-.697-.818-.284-1.567-.732-2.261-1.279-.263-.206-.475-.474-.785-.634a.74.74 0 0 1-.381-.454c-.013-.053-.062-.098-.107-.134-.573-.478-.87-1.151-1.218-1.782a6.118 6.118 0 0 1-.622-1.527c-.079-.32-.189-.645-.277-.968-.085-.314-.052-.638-.088-.955a13.252 13.252 0 0 1-.01-2.767c.059-.666.169-1.33.378-1.961a9.41 9.41 0 0 1 1.026-2.185c.397-.611.909-1.124 1.404-1.657.658-.707 1.439-1.233 2.273-1.684.739-.403 1.544-.641 2.362-.831.771-.177 1.56-.245 2.351-.245.629 0 1.251.095 1.88.19 1.146.176 2.182.591 3.159 1.18 1.218.732 2.199 1.723 2.971 2.913.768 1.184 1.211 2.492 1.436 3.891.156.978.16 1.956.163 2.937 0 .37-.004.373-.391.373h-6.459v.006Zm.967-3.715c-.361-1.272-1.065-2.203-2.293-2.684-.713-.278-1.436-.317-2.195-.183-1.036.186-1.84.713-2.485 1.514-.316.392-.531.843-.681 1.35h7.654v.003Zm-29.483 3.78c.123.707.371 1.338.788 1.9.459.618 1.062 1.037 1.772 1.318 1.124.448 2.277.399 3.436.239 1.127-.157 2.153-.615 3.146-1.142.303-.16.574-.385.867-.568.238-.15.273-.154.414.091l1.973 3.443c.111.19.088.288-.081.429-.951.781-2.01 1.37-3.146 1.824-1.163.464-2.381.66-3.622.769-1.118.098-2.219-.043-3.319-.148-.378-.035-.746-.19-1.124-.274-1.244-.275-2.355-.847-3.358-1.602a8.532 8.532 0 0 1-2-2.136 8.938 8.938 0 0 1-.977-1.984c-.192-.547-.394-1.096-.486-1.665-.094-.585-.084-1.183-.123-1.779-.053-.784.061-1.56.127-2.334.032-.36.166-.733.26-1.099.17-.654.456-1.249.759-1.838a7.591 7.591 0 0 1 1.209-1.693c.657-.713 1.364-1.36 2.205-1.851.889-.52 1.811-.955 2.84-1.154.615-.121 1.228-.255 1.853-.278.805-.03 1.606-.017 2.401.16.661.147 1.316.294 1.938.566.886.382 1.706.86 2.452 1.49.486.413.929.857 1.306 1.354.443.582.854 1.194 1.137 1.88.264.645.538 1.282.681 1.969.173.82.296 1.645.28 2.485-.01.435-.006.87 0 1.305 0 .18-.049.274-.244.258-.114-.01-.232 0-.346 0l-12.523.01c-.157 0-.316-.033-.508.056h.013Zm7.748-3.773c-.215-.857-.599-1.566-1.237-2.073-1.069-.85-2.31-1.08-3.629-.733-1.251.327-2.088 1.155-2.609 2.319-.068.15-.169.297-.12.484h7.592l.003.003Zm-72.074 2.142v9.178c.004.128-.052.187-.179.18h-5.332c-.38 0-.38 0-.384-.37v-1.042c0-.079.042-.187-.072-.223-.104-.033-.153.066-.208.124-.368.41-.811.723-1.277 1.008-.394.238-.814.428-1.244.614-.635.272-1.297.367-1.964.448-.675.079-1.349.056-2.03-.006a6.675 6.675 0 0 1-1.338-.245c-.635-.197-1.258-.484-1.798-.9-.655-.5-1.248-1.076-1.713-1.742-.476-.68-.808-1.45-1.036-2.26-.235-.837-.27-1.687-.27-2.544V37.115c0-.477-.082-.474.459-.474h5.159c.173-.01.228.081.218.238-.006.102 0 .203 0 .305l.007 9.659c.003.634.036 1.275.306 1.88.492 1.102 1.296 1.775 2.521 1.873 1.17.092 2.215-.186 3.042-1.075.511-.55.779-1.22.951-1.936a7.417 7.417 0 0 0 .196-1.76v-8.962c-.01-.154.023-.225.211-.225h5.463c.234 0 .312.091.283.31-.006.043 0 .088 0 .13v8.964h.03v-.01Zm29.21 4.568c.154.078.316.042.47.042h6.458c.28 0 .422.142.424.425l.026 3.914c0 .448.036.41-.385.41H85.423c-.123.002-.185-.047-.185-.177-.003-.517 0-1.004.303-1.488.674-1.086 1.27-2.22 1.902-3.332l1.521-2.665 2.055-3.587 1.202-2.106c.108-.183.186-.376.287-.562-.183-.072-.342-.043-.498-.043h-6.284c-.309-.01-.316-.01-.316-.314v-4.045c0-.428-.071-.438.453-.438l14.602.007c.371.006.358.006.381.38.026.473-.081.885-.329 1.31L93.628 50.32c-.042.072-.107.14-.075.28Zm-11.2.046c.237-.027.289.091.286.31v4.176c0 .21-.059.271-.27.268l-2.776-.007H67.415c-.531 0-.437.046-.482-.454-.052-.55.143-.99.433-1.436.303-.457.55-.951.827-1.428l1.205-2.09 1.111-1.952 1.485-2.567 1.105-1.952 1.042-1.798c.127-.22.1-.275-.14-.291-.13-.01-.26-.004-.391-.004h-5.85c-.1 0-.202-.01-.303 0-.238.026-.286-.091-.286-.304v-4.175c0-.216.048-.337.286-.308.085.01.173 0 .26 0h14.345c.557 0 .505-.042.525.514.013.385-.06.719-.264 1.062l-2.531 4.333-1.463 2.577-1.468 2.524-1.098 1.955c-.163.295-.42.543-.437.91-.061.019-.146.035-.12.123.016.063.078.063.124.014h7.022Z"/><path fill="#FA9990" d="M104.626 23.137c-.049.046-.107.05-.123-.013-.023-.088.058-.101.12-.124l.003.137Z"/></svg>