<svg xmlns="http://www.w3.org/2000/svg" fill="none" viewBox="0 0 210 80"><path fill="#45D1FE" d="M36.043 13.503c.315-.44.691-.503 1.194-.503H52.85L18.23 47.777l-8.23-8.2 26.043-26.074ZM30.357 43.724l4.9-4.932 1.07-1.037c.156-.125.376-.251.565-.251H52.85c.032 0 .032 0 .126.031L38.682 51.798l-6.628-6.503-1.351-1.35a1.296 1.296 0 0 0-.346-.22Z"/><path fill="#09589D" d="m38.713 51.892 1.728 1.697 12.22 12.252c.095.094.19.157.284.22-.032.03-.032.062-.032.094h-15.99c-.22 0-.503-.126-.66-.283l-5.812-5.843 6.283-6.22 1.98-1.917Z"/><path fill="#1FBDFE" d="m38.713 51.892-1.947 1.948-6.283 6.22c-.094-.031-.157-.094-.22-.157l-8.01-8.01 8.104-8.106c.126.063.252.126.346.22l1.35 1.35 6.63 6.535c0-.063.03-.031.03 0Z"/><path fill="#767676" d="M181.622 45.232H165.38c.063 2.985 1.634 5.843 4.524 7.037 2.859 1.163 6.912.88 9.456-3.393l3.142 1.508c-.063.157-.126.314-.22.44-1.885 3.079-4.524 4.932-8.168 5.34-1.791.19-3.581.19-5.309-.44-3.205-1.161-5.372-3.423-6.44-6.628-1.289-3.832-1.069-7.602.973-11.152 1.822-3.173 4.618-4.964 8.325-5.184 2.985-.157 5.687.534 7.917 2.64 1.916 1.79 2.953 4.02 3.204 6.596.095 1.069.032 2.137.032 3.267-.346-.03-.754-.03-1.194-.03Zm-2.576-3.047c-.408-3.801-3.204-6.158-6.943-6.032-3.204.094-6.408 3.079-6.471 6.032h13.414Zm-96.32-3.487h9.96v3.55H79.804v13.414h-3.613V24.561H94.13v3.518H80.402c-.534 0-.566.063-.566.566v9.424c0 .503.063.597.597.597l2.294.032Zm28.777 16.776c-2.168-1.131-3.299-2.985-3.77-5.278a15.304 15.304 0 0 1-.314-3.173V33.45h3.55c.063 0 .22.189.22.283v6.535l.063 7.602c.063 2.482 1.413 4.273 3.581 4.806 2.199.535 4.178.063 5.812-1.539 1.382-1.382 2.105-3.047 2.105-4.995l.063-12.377v-.315h3.738v22.18h-3.581v-3.11c-3.11 3.832-6.943 4.712-11.467 2.953ZM146.374 36.436V33.45h3.801v-6.22c.095-.063.126-.063.157-.063l3.299.032c.283 0 .346.094.346.377v4.932c0 .314.031.628.062.942h5.215v3.393h-5.277v12.598c0 .534.094 1.068.22 1.602.314 1.1 1.13 1.665 2.23 1.822.911.126 1.759-.094 2.576-.503l.44-.22V55.6c0 .095-.189.252-.314.283-1.194.44-2.419.565-3.707.408-1.445-.157-2.702-.722-3.739-1.79-.942-.943-1.319-2.137-1.476-3.425-.063-.44-.063-.88-.063-1.319v-12.88c-.157 0-.283-.032-.408-.032-1.006 0-2.011-.031-3.016 0-.283.032-.409-.063-.346-.408Zm-11.812-4.116V27.2h3.707v6.283h5.403v3.393H138.3c0 .157-.031.282-.031.44v11.906c0 .628.126 1.288.314 1.916.314 1.068 1.162 1.602 2.231 1.728.911.126 1.727-.094 2.544-.471.126-.063.22-.094.377-.189v3.299c0 .126-.094.314-.188.345-2.074.849-5.624.849-7.666-1.476-1.036-1.194-1.35-2.608-1.35-4.147V37.41c0-.503 0-.534-.503-.534h-3.393V33.42h3.896c.031-.408.031-.754.031-1.1ZM193.811 37.598c-1.79 1.383-2.764 3.173-2.796 5.404-.063 4.115 0 8.262 0 12.377v.283h-3.738v-22.18h3.518v3.456c.44-.628.786-1.225 1.194-1.727 1.791-2.168 5.058-3.048 7.666-2.137.251.095.345.189.345.472-.031 1.1 0 2.167 0 3.267v.377c-2.105-.786-4.178-1.037-6.189.408ZM102.141 55.6h-3.613V24.561h3.613v31.038Z"/></svg>