<svg xmlns="http://www.w3.org/2000/svg" fill="none" viewBox="0 0 210 80"><path fill="#000" fill-rule="evenodd" d="M85.542 32.86H70c0 3.75 3.71 3.801 3.71 3.801h10.6L70 60.415c0 3.568 3.62 3.58 3.62 3.58h15.32c0-3.541-3.398-3.58-3.398-3.58H73.71l15.23-23.754c0-3.8-3.398-3.8-3.398-3.8Zm28.955 27.555s.039 3.58-3.645 3.58H98.956c-.364 0-3.451-.207-3.451-3.58h18.992Z" clip-rule="evenodd"/><path fill="#000" d="M95.505 46.6h19.031v3.581H95.505v-3.58Z"/><path fill="#000" fill-rule="evenodd" d="M110.852 32.86c3.477 0 3.684 3.801 3.684 3.801H95.505c0-3.412 3.49-3.8 3.49-3.8h11.857Z" clip-rule="evenodd"/><path fill="#000" d="M136.097 36.666V57.98s-.039 2.425-2.166 2.425l-7.719.026s-2.167 0-2.167-2.464V38.236s.013-1.557 2.128-1.557h9.924v-.013Zm3.581 23.754V16h-3.581v16.865h-11.922c-3.541 0-3.58 3.8-3.58 3.8V60.42c0 3.567 3.45 3.58 3.45 3.58h12.104c3.697 0 3.529-3.58 3.529-3.58Z"/></svg>