<svg xmlns="http://www.w3.org/2000/svg" fill="none" viewBox="0 0 210 80"><path fill="#1070FC" d="M27.037 28C20.39 28 15 33.565 15 40.429s5.39 12.429 12.037 12.429c6.648 0 12.037-5.565 12.037-12.43C39.074 33.566 33.685 28 27.037 28Zm0 20.596c-.95 0-1.72-.795-1.72-1.775 0-.98.77-1.776 1.72-1.776s1.72.796 1.72 1.776-.767 1.775-1.72 1.775Zm6.535-5.681h-3.257l-3.23-6.833h-.093l-3.26 6.833h-3.23v-.26l5.05-10.039h3.005l5.015 10.04v.259Z"/><path fill="#001F44" d="M184.848 36.569h2.586l.223 1.317h.097c.736-.99 1.788-1.516 3.191-1.516 2.459 0 4.055 1.616 4.055 4.155v7.55h-2.875v-6.659c0-1.516-.702-2.308-2.074-2.308-1.372 0-2.297 1.023-2.297 2.638v6.396h-2.906V36.569Zm-10.6 10.12c-.925-1.086-1.407-2.539-1.407-4.286 0-1.747.478-3.231 1.407-4.318.96-1.122 2.266-1.648 4.024-1.648 1.757 0 3.033.562 3.989 1.648.96 1.122 1.403 2.54 1.403 4.318 0 1.78-.478 3.2-1.403 4.286-.925 1.087-2.266 1.648-3.989 1.648-1.723 0-3.064-.561-4.024-1.648Zm4.055-7.68c-1.661 0-2.49 1.121-2.49 3.362s.829 3.331 2.49 3.331c1.661 0 2.49-1.122 2.49-3.33 0-2.21-.863-3.364-2.49-3.364ZM168.821 48.106V36.57h2.875v11.537h-2.875Zm3.161-14.474c0-.99-.767-1.78-1.723-1.78-.957 0-1.724.793-1.724 1.78s.767 1.78 1.724 1.78c.956 0 1.723-.793 1.723-1.78ZM161.925 44.775v-5.67h-1.499v-2.54h1.627v-2.471l2.555-.299h.223v2.738h2.043v2.54h-2.043v5.042c0 1.087.448 1.548 1.438 1.548.416 0 .767-.067 1.087-.163h.223v2.471c-.35.1-1.148.299-2.108.299-2.521 0-3.542-1.45-3.542-3.495h-.004ZM156.175 48.106V36.57h2.875v11.537h-2.875Zm3.161-14.474c0-.99-.767-1.78-1.723-1.78-.956 0-1.723.793-1.723 1.78s.767 1.78 1.723 1.78c.956 0 1.723-.793 1.723-1.78ZM144.203 44.15V36.6h2.875v6.727c0 1.516.702 2.308 2.074 2.308 1.372 0 2.298-1.023 2.298-2.639v-6.395h2.875v11.537h-2.586l-.224-1.317h-.096c-.736.99-1.789 1.516-3.192 1.516-2.459-.032-4.024-1.648-4.024-4.187Zm-6.737.625v-5.67h-1.5v-2.54h1.631v-2.471l2.555-.299h.223v2.738h2.043v2.54h-2.043v5.042c0 1.087.448 1.548 1.438 1.548.416 0 .767-.067 1.087-.163h.223v2.471a7.908 7.908 0 0 1-2.108.299c-2.521 0-3.542-1.45-3.542-3.495h-.007Zm-12.357 3.331V36.57h2.586l.224 1.317h.096c.736-.99 1.788-1.516 3.192-1.516 2.459 0 4.054 1.616 4.054 4.155v7.55h-2.875v-6.659c0-1.516-.701-2.308-2.074-2.308-1.372 0-2.3 1.023-2.3 2.638v6.396h-2.907v-.032l.004-.004Zm-4.884-15.493h2.968v15.529h-2.968v-15.53Zm-15.101 14.076c-.829-1.086-1.214-2.539-1.214-4.318 0-1.779.416-3.2 1.214-4.286.798-1.087 1.946-1.648 3.384-1.648 1.341 0 2.363.494 3.064 1.45h.097v-5.274h2.875v15.529h-2.587l-.288-1.254h-.097c-.701.956-1.723 1.45-3.064 1.45-1.403-.033-2.521-.562-3.384-1.649Zm4.182-.99c1.692 0 2.459-1.385 2.459-3.363s-.767-3.363-2.459-3.363c-1.692 0-2.459 1.317-2.459 3.363 0 2.045.767 3.363 2.459 3.363Zm-15.614.959c-.96-1.123-1.438-2.54-1.438-4.287 0-1.747.447-3.132 1.373-4.286.925-1.154 2.266-1.715 3.958-1.715 1.596 0 2.875.53 3.8 1.584.926 1.054 1.407 2.407 1.407 4.023v1.154h-7.6c.03 1.648.828 2.67 2.459 2.67 1.18 0 1.915-.429 2.204-1.317h2.81c-.158 1.087-.702 2.01-1.596 2.738-.894.724-2.012 1.055-3.415 1.055-1.692.032-3.002-.494-3.959-1.616l-.003-.004Zm6.163-5.44c-.065-1.386-.829-2.341-2.266-2.341-1.534 0-2.332.923-2.394 2.34h4.66ZM87.976 48.106V36.57h2.875v11.537h-2.875Zm3.16-14.474c0-.99-.766-1.78-1.722-1.78-.957 0-1.723.793-1.723 1.78s.766 1.78 1.723 1.78c.956 0 1.723-.793 1.723-1.78ZM83.189 32.613h2.871v15.529H83.19v-15.53Zm-14.4 5.44c-.829-1.122-1.947-1.647-3.319-1.647-1.372 0-2.394.493-3.099 1.448h-.096l-.285-1.253h-3.385v1.417l.798.855v13.353h2.872v-5.341h.096c.702.955 1.723 1.449 3.099 1.449 1.376 0 2.521-.562 3.353-1.648.83-1.122 1.214-2.54 1.214-4.286 0-1.747-.416-3.264-1.245-4.35l-.003.003Zm-4.151 7.65c-.864 0-1.469-.3-1.885-.924-.382-.625-.574-1.417-.574-2.408 0-.99.192-1.779.605-2.407.416-.66 1.022-.956 1.885-.956 1.723 0 2.459 1.353 2.459 3.363s-.767 3.331-2.49 3.331Zm15.9-7.65c-.83-1.122-1.947-1.647-3.32-1.647-1.372 0-2.393.493-3.098 1.448h-.097l-.289-1.253H70.35v1.417l.798.855v13.353h2.875v-5.341h.097c.701.955 1.723 1.449 3.098 1.449 1.376 0 2.521-.562 3.353-1.648.83-1.122 1.215-2.54 1.215-4.286 0-1.747-.386-3.264-1.246-4.35l-.003.003Zm-4.121 7.65c-.863 0-1.469-.3-1.885-.924-.382-.625-.574-1.417-.574-2.408 0-.99.192-1.779.605-2.407.416-.66 1.022-.956 1.885-.956 1.723 0 2.459 1.353 2.459 3.363-.031 1.978-.798 3.331-2.49 3.331Zm-23.18-13.09 5.269 15.298v.23h-3.257l-1.022-3.263h-5.874l-1.021 3.264h-3.099v-.231l5.269-15.298h3.735Zm-4.024 9.56h4.151l-2.043-6.464h-.096l-2.012 6.463Z"/></svg>