<svg xmlns="http://www.w3.org/2000/svg" fill="none" viewBox="0 0 210 80"><path fill="#001B50" d="M154.237 34.335v15.717c.36.209.96.298 1.889.298.93 0 1.56-.09 1.92-.298V34.335c-.36-.208-.96-.297-1.92-.297-.959 0-1.529.09-1.889.297ZM82.879 47.73c-3.42 0-5.4-1.34-5.58-4.316h10.589c.3-.893.42-1.905.42-2.947 0-4.107-2.16-6.995-6.75-6.995-5.038 0-8.158 3.602-8.158 8.9 0 5.299 3.03 8.543 8.579 8.543 2.25 0 4.05-.565 5.099-1.19.63-.655 1.05-2.114.96-3.156-1.23.626-3.03 1.161-5.16 1.161Zm-1.44-11.281c2.76 0 3.42 2.084 3.18 4.048h-7.29c.15-2.44 1.65-4.048 4.11-4.048Zm13.828-.03h-.21l-.24-2.56c-1.26 0-2.37.209-3.09.596v15.627c.36.208.96.298 1.89.298.93 0 1.56-.09 1.92-.298V39.187c.63-1.16 1.83-2.202 3.899-2.202 2.37 0 3.059 1.34 3.059 3.512v9.585c.36.208.96.298 1.89.298.93 0 1.56-.09 1.92-.298v-10.3c0-5.357-2.97-6.25-5.519-6.25-3.06-.06-4.77 1.25-5.52 2.887Zm14.097 5.953c0 5.299 2.82 8.543 7.979 8.543 1.89 0 3.419-.416 4.469-.982.69-.744 1.17-2.44 1.02-3.512-1.23.654-2.61 1.101-4.289 1.101-3.21 0-5.309-1.667-5.309-5.358s2.069-5.298 5.279-5.298c1.559 0 2.729.357 3.959 1.101.21-1.131-.09-2.739-.66-3.483-.93-.595-2.399-.922-4.049-.922-4.769-.09-8.399 2.708-8.399 8.81Zm56.271-5.953h-.21l-.24-2.56c-1.26 0-2.37.209-3.09.596v15.627c.36.208.96.298 1.89.298.93 0 1.56-.09 1.92-.298V39.187c.63-1.16 1.83-2.202 3.869-2.202 2.37 0 3.06 1.34 3.06 3.512v9.585c.36.208.96.298 1.889.298.93 0 1.56-.09 1.92-.298v-10.3c0-5.357-2.939-6.25-5.519-6.25-3.03-.06-4.709 1.25-5.489 2.887Zm23.216-2.977c-5.669.03-9.058 3.096-9.058 8.96 0 5.299 2.789 7.77 6.658 7.77 2.43 0 3.99-.953 4.86-2.412h.21c-.21.774-.36 2.114-.36 3.096 0 2.917-1.11 4.435-4.38 4.435-1.769 0-3.929-.506-5.999-1.637-.36 1.131-.21 2.828.51 3.87 1.68.803 3.99 1.19 5.939 1.19 6.239 0 7.769-3.661 7.769-8.572V35.139c-1.8-1.131-3.719-1.697-6.149-1.697Zm2.34 11.43c-.66 1.043-1.74 1.906-3.51 1.906-2.519 0-3.989-1.637-3.989-4.763 0-3.125 1.56-5.417 5.069-5.417 1.05 0 1.8.208 2.43.506v7.769Zm-124.93-6.756v-.209c2.07-.565 3.42-2.38 3.42-4.97 0-4.495-3.99-6.192-9.538-6.192-2.61 0-4.86.268-6.9.625v22.771c2.13.239 5.04.328 7.83.328 5.548 0 9.838-1.875 9.838-6.817 0-3.214-1.86-4.822-4.65-5.536Zm-9.058-7.77c.87-.178 1.83-.237 3.03-.237 3.329 0 5.399.982 5.399 3.333 0 2.144-1.74 3.185-4.47 3.185h-3.959v-6.28Zm3.75 16.76c-1.38-.03-2.76-.09-3.75-.18v-6.905h3.99c3.479 0 5.638 1.131 5.638 3.572 0 2.44-2.19 3.512-5.879 3.512Zm92.804-18.426c0 1.488.87 2.351 2.369 2.351 1.5 0 2.4-.833 2.4-2.381 0-1.548-.93-2.411-2.37-2.411-1.439 0-2.399.863-2.399 2.44Zm-27.925-2.024v23.396c.359.209.959.298 1.889.298s1.56-.09 1.92-.298V39.158c.66-1.191 1.86-2.203 3.989-2.203 2.4 0 3.12 1.31 3.12 3.512v9.585c.36.209.96.298 1.889.298.93 0 1.56-.09 1.92-.298V39.753c0-5.358-3.029-6.251-5.639-6.251-3.179 0-4.709 1.31-5.459 2.828h-.18c.24-1.28.36-2.739.36-4.554v-5.894c-1.77-.03-2.94.238-3.809.774Zm18.686 0V46.45c0 2.769 1.05 4.436 3.81 4.436 1.11 0 2.039-.268 2.669-.655.6-.685.99-2.203.81-3.364-.57.387-1.29.625-2.069.625-.87 0-1.38-.268-1.38-1.607V25.852c-1.8 0-2.97.268-3.84.804ZM25.198 50.707c-.48.417-.81.863-.96 1.4h5.52a3.271 3.271 0 0 0-.96-1.4h-3.6Zm5.13-2.679c-.48.298-1.02.566-1.59.804l-.12.06.12.059c1.68 1.012 2.52 2.322 2.52 4.048 0 .476.39.863.87.863s.869-.387.869-.863c0-2.024-.87-3.72-2.58-5l-.03-.03-.06.06Zm-6.12-5.507c.18.536.48.983.96 1.4h3.57c.48-.417.78-.864.96-1.4h-5.49Zm.99-3.393c-.48.417-.81.863-.96 1.399h5.52a3.271 3.271 0 0 0-.96-1.4h-3.6ZM21.03 29.81a.997.997 0 0 1 .628-.938c.124-.05.258-.075.392-.074a1.016 1.016 0 0 1 .945.623c.05.123.076.256.075.389a.997.997 0 0 1-.628.937 1.036 1.036 0 0 1-1.11-.225 1.02 1.02 0 0 1-.302-.712Zm9.838 0a.997.997 0 0 1 .628-.938c.125-.05.258-.075.392-.074a1.017 1.017 0 0 1 .945.623c.05.123.076.256.075.389a.995.995 0 0 1-.296.718 1.013 1.013 0 0 1-.724.294 1.036 1.036 0 0 1-.718-.3 1.02 1.02 0 0 1-.302-.712Zm-13.677-.506c-.09.387-.18.744-.27.923-.66 1.696-1.53 2.47-1.53 2.5a.823.823 0 0 0-.39.595v.298c.09.328.36.595.72.625 4.59.417 7.169 1.072 8.878 1.548-2.4 1.34-3.629 3.245-3.629 5.685 0 2.441 1.29 4.436 3.81 5.775-2.52 1.34-3.81 3.304-3.81 5.775 0 .476.39.863.87.863s.87-.387.87-.863c0-2.947 2.43-4.197 4.259-4.882l.27-.09c.63-.237 1.23-.475 1.77-.743 2.61-1.34 3.929-3.304 3.929-5.864 0-1.876-.75-3.483-2.22-4.733l-.03-.03h-.03c-.72.179-1.38.357-1.95.536l-.15.06.15.089c1.68 1.012 2.49 2.321 2.49 4.048 0 2.947-2.43 4.197-4.259 4.852-1.83-.685-4.26-1.905-4.26-4.852s2.43-4.197 4.26-4.882l.12-.03c.42-.178 1.02-.416 2.1-.714 1.74-.506 4.319-1.16 9.058-1.607.36-.03.63-.268.72-.625a.777.777 0 0 0-.36-.864s-.87-.803-1.53-2.5c-.09-.209-.15-.536-.27-.923-.63-2.47-2.13-8.275-9.778-8.275-7.679.03-9.178 5.834-9.808 8.305Z"/></svg>