<svg xmlns="http://www.w3.org/2000/svg" fill="none" viewBox="0 0 210 80"><path fill="#000" d="M35.578 18a12.609 12.609 0 0 0-8.918 3.766A12.754 12.754 0 0 0 23 30.775v4.22H33.22v-6.113a2.206 2.206 0 0 1 .636-1.546 2.173 2.173 0 0 1 1.537-.638h.368a2.172 2.172 0 0 1 2.172 2.184V45.27a10.193 10.193 0 0 0 7.228-3.009 10.26 10.26 0 0 0 2.216-3.334c.513-1.248.777-2.582.777-3.932v-4.22a12.836 12.836 0 0 0-3.684-9.032 12.472 12.472 0 0 0-4.073-2.77A12.398 12.398 0 0 0 35.578 18Z"/><path fill="#000" d="M35.762 53.566h-.368a2.173 2.173 0 0 1-2.173-2.184V34.993a10.19 10.19 0 0 0-7.227 3.01 10.26 10.26 0 0 0-2.216 3.333 10.353 10.353 0 0 0-.777 3.93v4.161c-.016 1.67.295 3.33.92 4.88a12.652 12.652 0 0 0 2.718 4.148 12.523 12.523 0 0 0 17.877 0 12.65 12.65 0 0 0 2.719-4.148c.625-1.55.936-3.207.92-4.88v-4.161H37.937v6.114a2.205 2.205 0 0 1-.636 1.545 2.17 2.17 0 0 1-1.537.639l-.002.002Zm29.863-22.6h-3.581v18.268h10.511v-3.443h-6.93V30.966Zm18.403 6.759a5.067 5.067 0 0 0-1.889-1.464 5.073 5.073 0 0 0-2.343-.44 5.834 5.834 0 0 0-2.441.513 5.89 5.89 0 0 0-2.011 1.484 7.374 7.374 0 0 0 0 9.787 5.888 5.888 0 0 0 4.452 1.997c1.818 0 3.227-.634 4.232-1.904v1.54h3.347V36.192h-3.347v1.539-.005Zm-1.025 7.634a3.506 3.506 0 0 1-2.584 1.032 3.462 3.462 0 0 1-2.568-1.03 3.968 3.968 0 0 1 0-5.3 3.45 3.45 0 0 1 2.568-1.03 3.506 3.506 0 0 1 2.584 1.033 3.937 3.937 0 0 1 0 5.3v-.005Zm13.002-.402-3.384-8.77h-3.66l5.321 12.631a4.029 4.029 0 0 1-1.259 1.932 3.352 3.352 0 0 1-2.14.575v3.132a6.145 6.145 0 0 0 4.16-1.137c1.114-.845 2.01-2.2 2.685-4.06l4.731-13.071h-3.581l-2.869 8.77-.004-.002ZM109.7 35.82a6.582 6.582 0 0 0-4.929 1.97 7.239 7.239 0 0 0 .025 9.852c1.297 1.305 3.02 1.957 5.166 1.957 2.491 0 4.377-.932 5.659-2.79l-2.7-1.567a3.42 3.42 0 0 1-2.907 1.307c-1.991 0-3.211-.818-3.661-2.452h9.786c.084-.457.127-.92.129-1.384a6.91 6.91 0 0 0-1.856-4.907 6.176 6.176 0 0 0-4.712-1.982v-.005Zm-3.4 5.663a3.306 3.306 0 0 1 1.168-1.945 3.502 3.502 0 0 1 2.232-.691 3.388 3.388 0 0 1 2.039.652 3.15 3.15 0 0 1 1.179 1.982H106.3v.002Zm15.653-3.052v-2.246h-3.348v13.05h3.348V43c0-1.252.402-2.148 1.206-2.689a3.943 3.943 0 0 1 2.739-.627v-3.757a4.672 4.672 0 0 0-2.402.628 3.519 3.519 0 0 0-1.546 1.88l.003-.003Zm20.272-7.464h-11.911v3.446h7.373l-7.564 11.945v2.877h12.248v-3.443h-7.709l7.563-11.998v-2.827Zm8.05 4.853a6.6 6.6 0 0 0-4.934 1.97 7.233 7.233 0 0 0-1.92 4.932c.004 1.83.7 3.588 1.947 4.92 1.298 1.305 3.021 1.957 5.166 1.957 2.491 0 4.377-.932 5.659-2.79l-2.7-1.567a3.413 3.413 0 0 1-2.906 1.307c-1.991 0-3.212-.818-3.66-2.452h9.787c.084-.457.127-.92.129-1.384a6.907 6.907 0 0 0-1.857-4.907 6.163 6.163 0 0 0-4.711-1.982v-.005Zm-3.4 5.663a3.306 3.306 0 0 1 1.168-1.945 3.502 3.502 0 0 1 2.232-.691 3.372 3.372 0 0 1 2.039.652 3.15 3.15 0 0 1 1.179 1.982h-6.618v.002Zm15.65-5.298h-3.348v13.05h3.348V43c0-1.252.402-2.148 1.207-2.689a3.94 3.94 0 0 1 2.739-.627v-3.757a4.66 4.66 0 0 0-2.4.628 3.506 3.506 0 0 0-1.546 1.88v-2.249Zm11.577-.365a6.793 6.793 0 0 0-4.293 1.595 6.847 6.847 0 0 0-2.316 3.968 6.877 6.877 0 0 0 .707 4.546 6.809 6.809 0 0 0 3.411 3.066 6.773 6.773 0 0 0 4.573.2 6.81 6.81 0 0 0 3.664-2.757 6.869 6.869 0 0 0-.866-8.623 6.6 6.6 0 0 0-4.88-1.998v.003Zm2.518 9.472a3.395 3.395 0 0 1-2.518 1.016 3.362 3.362 0 0 1-2.506-1.016 3.832 3.832 0 0 1 0-5.168 3.355 3.355 0 0 1 1.147-.77 3.351 3.351 0 0 1 1.359-.246 3.395 3.395 0 0 1 2.518 1.016 3.806 3.806 0 0 1 1.014 2.584 3.789 3.789 0 0 1-1.014 2.584Zm11.38-.077h-4.075v4.018H188v-4.018Z"/></svg>