<svg xmlns="http://www.w3.org/2000/svg" fill="none" viewBox="0 0 210 80"><path fill="#000" d="M169.096 54.748h-.871c-49.929 0-99.865-.008-149.794.029-1.879 0-3.445-1.422-3.43-3.46.064-9.648.057-19.296 0-28.944C14.985 20.581 16.37 19 18.321 19c57.785.044 115.571.044 173.356 0 2.103 0 3.336 1.647 3.322 3.351-.065 9.677-.065 19.354 0 29.023.014 1.901-1.415 3.577-3.402 3.373a5.354 5.354 0 0 0-.965 0c-.559.037-.718-.203-.522-.797.573 0 1.16.014 1.741 0 1.421-.044 2.27-.864 2.27-2.264.007-9.887.007-19.781 0-29.668 0-1.364-.856-2.184-2.22-2.227-.268-.008-.536 0-.805 0H18.707c-2.147 0-2.815.674-2.815 2.85v28.305c0 2.394.61 3.01 2.982 3.01h148.989c.268 0 .537.008.805 0 .58-.02.588.291.428.799v-.008Z"/><path fill="#000" d="M45.329 25.651c6.144 6.478 12.136 12.803 18.294 19.303V25.97h1.357v22.48c-6.115-6.5-12.1-12.861-18.258-19.404v18.7h-1.393V25.652Zm44.133 5.07c-.435.349-.769.61-1.139.907-.232-.297-.428-.551-.624-.798-3.083-3.88-8.073-4.99-12.324-2.727-4.287 2.278-6.391 7.196-4.991 11.65 2.234 7.101 11.084 9.357 16.38 4.178 1.45-1.414 2.313-3.576 2.103-5.368h-.841c-2.039 0-4.077-.007-6.108 0-.486 0-.813-.036-.798-.675.014-.58.275-.645.747-.645 2.785.014 5.564 0 8.45 0 .088 2.713-.318 5.172-2.168 7.225-3.917 4.33-10.758 4.824-15.357 1.095-5.1-4.127-5.687-11.425-1.305-16.198 4.512-4.918 12.048-5.005 16.662-.181.442.464.834.964 1.32 1.53l-.007.008Zm55.268 6.79c2.372 3.431 4.679 6.768 6.993 10.112-1.074.378-1.429.276-2.024-.594l-6.065-8.807c-.108-.152-.181-.348-.326-.45-.196-.137-.45-.21-.675-.304-.079.21-.217.413-.217.624-.015 2.894-.007 5.788-.007 8.683v.957h-1.342V25.803c2.052.145 4.098.124 6.078.472 1.625.29 2.771 1.45 3.373 3.047 1.553 4.12-.652 7.667-5.026 8.073-.204.022-.407.066-.748.116h-.014Zm-2.329-5.832c0 1.262.015 2.517 0 3.78-.007.464.116.703.631.674.885-.05 1.77-.015 2.648-.109 2.408-.26 3.881-2.024 3.837-4.519-.043-2.394-1.574-4.011-3.996-4.2-.798-.058-1.611-.022-2.409-.073-.587-.043-.725.218-.711.755.029 1.233.008 2.466.008 3.7l-.008-.008Zm-12.897-6.26c2.996 7.414 5.992 14.82 8.995 22.24-1.241.327-1.328.284-1.749-.747-.768-1.886-1.552-3.764-2.292-5.658-.181-.457-.399-.667-.921-.66-2.757.03-5.52.022-8.277 0-.515 0-.74.182-.928.653-.733 1.872-1.574 3.7-2.242 5.593-.326.928-.841 1.124-1.821.87 3.018-7.435 6.029-14.856 9.032-22.277.065 0 .137-.007.203-.014Zm-4.36 13.811h8.487c-1.4-3.467-2.763-6.847-4.229-10.467-1.465 3.605-2.843 6.986-4.258 10.467ZM93.618 25.97c.32-.014.523-.036.733-.036.181 0 .363.022.653.043v.973c.029 4.715-.05 9.437.109 14.145.145 4.2 3.547 6.536 7.638 5.447 2.778-.732 4.135-2.248 4.207-5.128.124-4.795.088-9.59.124-14.385V26h1.335c.021.189.058.392.058.602 0 4.556 0 9.111-.015 13.667 0 .827-.065 1.661-.196 2.48-.297 1.945-1.414 3.345-3.105 4.259-2.72 1.48-5.49 1.48-8.226.014-2.314-1.24-3.271-3.3-3.286-5.846-.021-4.338-.029-8.683-.043-13.021v-2.177l.014-.007ZM22.414 43.373c.333-.16.689-.334 1.095-.53.254.45.471.878.725 1.277 1.284 2.053 3.294 2.96 5.622 2.538 2.118-.377 3.816-2.009 4.265-4.083.305-1.408-.036-2.62-1.16-3.533-.595-.486-1.27-.9-1.944-1.262-1.53-.827-3.09-1.603-4.628-2.416-2.082-1.095-2.967-2.648-2.75-4.81.225-2.306 1.64-4.105 3.802-4.67 2.517-.66 4.722-.059 6.485 1.9.783.878.747.972-.349 1.646-.333-.377-.638-.783-1-1.131-2.003-1.944-5.151-1.8-6.732.304-1.371 1.828-1.081 4.084.841 5.318 1.436.92 3.003 1.639 4.52 2.437.47.254.942.515 1.428.74 3.736 1.748 3.57 5.781 1.93 8.015-1.683 2.293-4.004 3.25-6.811 2.866-2.597-.356-4.266-1.959-5.281-4.302-.03-.072-.022-.152-.044-.312l-.014.008Zm156.924 4.38c-.014-.297-.036-.58-.036-.862 0-2.568.015-5.143-.014-7.711 0-.457-.138-.958-.363-1.35-2.089-3.648-4.207-7.275-6.318-10.91-.16-.275-.305-.55-.464-.834 1.175-.348 1.378-.268 1.944.704l5.411 9.307c.145.246.305.486.522.841.218-.348.385-.61.544-.878 1.792-3.075 3.577-6.158 5.368-9.234.61-1.044.639-1.059 1.966-.769-.145.269-.268.523-.413.77-2.111 3.633-4.237 7.26-6.319 10.91a3.4 3.4 0 0 0-.42 1.573c-.044 2.779-.022 5.564-.022 8.444h-1.386Zm-14.718-.006V27.262h-5.622v-1.27h12.55c.254 1.211.217 1.248-.972 1.248-1.233 0-2.467.043-3.693-.015-.71-.036-.899.196-.899.9.029 6.216.014 12.426.014 18.642v.98h-1.378Zm-51.612-21.784h1.349v20.5h5.506v1.29h-6.855v-21.79Zm43.459 21.79h-1.299V25.978h1.299v21.777ZM39.344 25.97h1.277v21.762h-1.277V25.97Zm148.351 23.924c-.696 1.313-1.349 2.655-2.104 3.931-.413.69-.391 1.212.015 1.894.791 1.327 1.48 2.713 2.212 4.076-.05.073-.348.24-.406.312-.232-.174-.312-.384-.442-.616-.74-1.299-1.437-2.626-2.22-4.084-.254.428-.45.747-.631 1.08-.53.987-1.037 1.995-1.596 2.968a2.317 2.317 0 0 1-.544.652c-.065-.065-.283-.203-.348-.268.805-1.502 1.588-3.01 2.423-4.497.239-.428.224-.762 0-1.176-.777-1.392-1.524-2.814-2.293-4.25.334-.196.479-.305.624-.167.109.108.24.42.312.566.653 1.218 1.299 2.444 2.031 3.822.74-1.378 1.386-2.618 2.075-3.837.145-.254.246-.479.479-.682.072.073.348.203.428.269l-.015.007Zm-10.982 1.182c-.53-.558-1.147-.863-1.923-.82-.848.051-1.501.574-1.741 1.415-.217.784.022 1.444.805 1.908.733.435 1.509.805 2.271 1.197 1.531.783 2.067 1.719 1.726 3.04-.333 1.276-1.784 2.371-3.257 2.357-1.044-.138-2.023-.624-2.597-1.712l.523-.298c1.117 1.618 2.996 1.814 4.2.421.885-1.023.747-2.234-.392-2.945-.812-.508-1.697-.914-2.546-1.364-1.335-.71-1.777-1.77-1.291-3.047.457-1.19 1.791-1.878 3.097-1.48.559.175 1.052.588 1.545.937m2.488-.994c-.029 1.494-.014 3.706-.014 5.208 0 1.494-.007 3.656.014 5.15l.588-.014c.022-2.996.022-7.363 0-10.359"/></svg>