<svg xmlns="http://www.w3.org/2000/svg" fill="none" viewBox="0 0 210 80"><path fill="#154726" d="M91.835 31.627H85.66l-8.98 24.06h5.97l1.408-4.274h9.185l1.444 4.286h6.103l-8.955-24.072Zm-6.224 15.17 3.094-9.17 3.046 9.17h-6.14Zm27.47-9.342c-1.905 0-4.271.858-5.411 2.817v-2.425h-5.412l-.024 23.667h5.424v-8.203c1.14 1.971 3.506 2.828 5.399 2.828 4.562.013 7.778-3.514 7.79-9.354 0-5.84-3.203-9.33-7.766-9.33Zm-1.783 14.436c-2.136 0-3.895-1.433-3.895-5.118 0-3.685 1.771-5.069 3.907-5.069 2.135 0 3.931 1.763 3.931 5.081-.012 3.318-1.82 5.118-3.943 5.106Zm20.348-14.546c-5.157 0-9.465 3.637-9.465 9.355 0 5.717 3.932 9.464 9.671 9.464 3.506 0 7.219-1.812 8.797-6.024h-4.975c-.631 1.053-1.917 1.775-3.98 1.775-2.063 0-3.907-1.163-4.065-3.722h13.092c.364-6.354-3.203-10.848-9.075-10.848Zm-3.944 7.542c.291-2.363 2.002-3.354 3.944-3.354 2.062 0 3.603 1.09 3.7 3.354h-7.644Zm23.952-7.542c-5.145 0-9.452 3.649-9.452 9.355-.012 5.95 3.931 9.476 9.67 9.476 3.507 0 7.208-1.812 8.785-6.036h-4.963c-.643 1.065-1.917 1.8-3.98 1.8-2.062 0-3.907-1.163-4.064-3.722h13.08c.376-6.38-3.204-10.873-9.076-10.873ZM147.71 44.9c.304-2.376 2.015-3.355 3.944-3.355 2.062 0 3.603 1.09 3.701 3.355h-7.645Zm15.548 10.872.026-24.071 5.411.006-.025 24.071-5.412-.006Zm6.887-23.532v-.54l2.888.013v.539h-1.189v3.11h-.534v-3.11l-1.165-.012Zm3.276 3.122h.534l.012-3.184 1.117 3.184h.643l1.128-3.184v3.184h.534v-3.649l-.946-.012-1.02 3.012-1.043-3.012h-.947l-.012 3.66ZM44.199 18a10.828 10.828 0 0 0-2.985 7.648 10.821 10.821 0 0 0 3.228 7.547 10.827 10.827 0 0 0 2.985-7.648A10.821 10.821 0 0 0 44.2 18ZM33 34.1c2.997 2.951 7.802 2.878 10.726-.146 0 0 .024-.025.024-.037a7.54 7.54 0 0 0-10.726.147s-.012.024-.024.024v.013Zm31.802-2.436a15.96 15.96 0 0 0-12.18-1.893 16.036 16.036 0 0 0-5.695 2.68 16.193 16.193 0 0 0-4.244 4.674.576.576 0 0 1-.061.122l-.291.502a16.465 16.465 0 0 0-1.405 12.415 16.307 16.307 0 0 0 7.702 9.783 16.032 16.032 0 0 0 12.304 1.422c2.043-.59 3.95-1.58 5.614-2.914a16.286 16.286 0 0 0 4.08-4.862c4.235-7.702 1.662-17.399-5.824-21.929Zm.352 18.647a12.218 12.218 0 0 1-3.19 3.537 12.099 12.099 0 0 1-4.289 2.035 12.038 12.038 0 0 1-9.193-1.396c-5.399-3.282-7.401-10.187-4.635-15.905.286-.577.61-1.133.971-1.665 3.846-5.559 11.418-6.918 16.914-3.049 5.278 3.71 6.77 10.91 3.422 16.443Z"/></svg>