<svg xmlns="http://www.w3.org/2000/svg" fill="none" viewBox="0 0 210 80"><path fill="#000" d="M80.217 60.996c-6.468 0-11.38-4.83-11.38-11.543 0-6.713 4.83-11.543 11.462-11.543 2.62-.081 5.157.901 6.958 2.62v-2.292h3.766v7.94h-4.257c-.9-2.619-3.439-4.42-6.222-4.256-4.257 0-7.04 3.193-7.04 7.45 0 4.666 3.11 7.45 7.122 7.45 3.193 0 5.24-1.802 5.812-3.685h-5.894v-3.602h10.479v11.052H87.42v-3.111c-1.556 2.374-4.421 3.602-7.204 3.52Zm13.344-.327v-3.357h1.473v-7.94H93.56v-3.357h5.485v2.456c.573-1.637 2.129-2.702 3.766-2.62.409 0 .737.082 1.146.164v4.093h-1.719c-2.128 0-3.11.983-3.11 3.52v3.602h1.8v3.357l-7.367.082Zm16.782.327c-3.357 0-5.24-2.21-5.24-4.584 0-2.784 2.047-4.503 5.321-4.503h2.866c.736 0 1.064-.327 1.064-.9v-.082c0-.819-.655-1.637-2.21-1.637a2.669 2.669 0 0 0-2.538 1.391h-3.357V46.18h3.602v.982c.901-.9 2.211-1.392 3.439-1.392 2.947 0 5.239 1.556 5.239 5.404v6.303h1.473v3.356h-5.648V59.36c-.819 1.064-2.538 1.637-4.011 1.637Zm4.011-5.567v-1.064c-.328.246-.819.328-1.228.328h-1.555c-1.31 0-2.129.573-2.129 1.637s.737 1.719 2.129 1.719c1.391 0 2.783-.819 2.783-2.62Zm7.286 5.24v-3.357h1.473v-7.94h-1.473v-3.357h5.567v.573c0 .41-.082.819-.082 1.31 1.064-1.392 2.783-2.21 4.502-2.21 3.193 0 5.485 2.046 5.485 5.484v6.304h1.474v3.275h-7.123v-3.357h1.474v-5.157c.164-1.228-.737-2.456-2.128-2.62h-.41c-1.228.082-2.374.655-3.111 1.637v6.222h1.801v3.356h-7.531v-.163h.082Zm23.904.327c-3.193 0-5.239-2.047-5.239-5.485V49.29h-1.474v-3.275h5.649v8.596c0 1.883.982 2.62 2.21 2.62 1.228-.083 2.292-.737 3.029-1.638V49.29h-2.374v-3.357h6.631V57.23h1.474v3.357h-5.567v-.573c0-.328.082-.737.082-1.228-1.065 1.392-2.702 2.21-4.421 2.21Zm11.543-.327v-3.357h1.555V41.676h-1.555V38.32h5.648v18.992h1.556v3.357h-7.204Zm13.835.327c-3.357 0-5.239-2.21-5.239-4.584 0-2.784 2.046-4.503 5.321-4.503h2.865c.737 0 1.064-.327 1.064-.9v-.082c0-.819-.737-1.637-2.21-1.637-1.064-.082-2.047.49-2.62 1.391h-3.274V46.18h3.602v.982c.9-.9 2.21-1.392 3.438-1.392 2.947 0 5.239 1.556 5.239 5.404v6.303h1.474v3.356h-5.649V59.36c-.737 1.064-2.456 1.637-4.011 1.637Zm4.093-5.567v-1.064c-.327.246-.819.328-1.228.328h-1.555c-1.31 0-2.129.573-2.129 1.637s.737 1.719 2.129 1.719c1.473 0 2.783-.819 2.783-2.62Zm7.368 5.24v-3.357h1.473v-7.94h-1.473v-3.357h5.567v2.456c.491-1.637 2.128-2.702 3.765-2.62.41 0 .737.082 1.146.164v4.093h-1.719c-2.128 0-3.111.983-3.111 3.52v3.602h1.801v3.357l-7.449.082Z"/><path fill="#C03131" d="M18 38.238V19h41.832v19.238H18Zm0 22.349v-19.32h19.402v19.238L18 60.587ZM50.91 50.19v-8.923h9.004v8.923H50.91ZM40.43 60.587v-7.368h19.402v7.368H40.431Z"/></svg>