<svg xmlns="http://www.w3.org/2000/svg" fill="none" viewBox="0 0 210 80"><path fill="#FF6702" d="m107.701.038 3.628.768c12.699 3.03 21.577 14.005 21.732 26.935l.038 24.595c0 2.148-.926 3.03-3.126 3.03h-5.211c-2.509 0-3.242-.767-3.32-3.26 0-.307-.038-.653-.077-1.152-11.232 6.984-22.349 6.984-33.813-.345l2.663-2.379 6.254-6.216c.733-.767 1.312-.882 2.316-.422 10.576 4.988 22.773-2.8 22.503-14.311-.193-8.058-6.716-14.734-14.899-15.156-8.068-.422-15.247 5.371-16.405 13.199-.618 4.259.463 8.057 3.05 11.78l-4.787 4.642a204.433 204.433 0 0 0-4.67 4.95c-.618-.73-1.043-1.152-1.39-1.612C69.835 29.237 78.018 5.87 97.665.882c1.39-.345 2.818-.575 4.246-.882l5.79.038Zm-2.046 36.528c-4.941 0-8.916-3.99-8.878-8.863.039-4.796 4.053-8.71 8.917-8.71 4.863 0 8.878 3.914 8.878 8.71a8.813 8.813 0 0 1-2.606 6.273 8.94 8.94 0 0 1-6.311 2.59ZM79.678 67.799l-.232 1.266c-.347-.73-1.274-1.65-3.204-1.65-3.165 0-6.407 2.417-7.102 6.292C68.484 77.084 70.144 80 73.888 80c1.39 0 2.972-.537 3.821-1.688l-.231 1.266h3.55l2.2-11.78h-3.55Zm-1.12 6.062a3.965 3.965 0 0 1-.772 1.496c-.579.73-1.466 1.305-2.74 1.305-2.123 0-2.586-1.88-2.393-2.955v-.038c.27-1.343 1.466-3.031 3.512-3.031 1.506 0 2.123.844 2.355 1.65.154.537.154 1.074.038 1.573Zm6.176-6.062h3.32l-.232 1.266s.309-.422.888-.844 1.505-.845 2.74-.845c.811 0 1.815.23 2.51 1.113.193.269.386.576.501.96.31-.346.657-.73 1.043-1.037a4.85 4.85 0 0 1 3.087-1.074c.85 0 2.123.192 2.895 1.19.888 1.15.927 1.956.425 4.566l-1.197 6.446h-3.55l1.157-6.255c.078-.498.193-1.112.078-1.65-.116-.537-.502-.959-1.39-.959-.965 0-1.544.46-1.891.96-.348.537-.464 1.112-.54 1.458L93.38 79.54h-3.55l1.196-6.408c.077-.307.154-.921.077-1.458-.116-.537-.502-.998-1.39-.998-1.003 0-1.582.46-1.93 1.036-.347.576-.463 1.228-.54 1.573l-1.158 6.255h-3.55l2.2-11.741Zm19.609 0h3.551l-2.2 11.779h-3.551l2.2-11.78Zm.733-3.914h3.551l-.501 2.686h-3.552l.502-2.686Zm13.201 3.914-.231 1.266c-.348-.73-1.274-1.65-3.204-1.65-3.165 0-6.408 2.417-7.102 6.292-.657 3.377 1.003 6.293 4.747 6.293 1.39 0 2.972-.537 3.822-1.688l-.232 1.266h3.551l2.2-11.78h-3.551Zm-1.119 6.062c-.155.537-.386 1.036-.772 1.496-.618.73-1.467 1.305-2.741 1.305-2.123 0-2.586-1.88-2.393-2.955v-.038c.27-1.343 1.467-3.031 3.513-3.031 1.505 0 2.123.844 2.354 1.65.155.537.155 1.074.039 1.573Zm6.407-3.377h-1.737l.463-2.685h1.776l.733-3.914h3.513l-.695 3.914h1.699l-.502 2.685h-1.699l-1.698 9.094h-3.551l1.698-9.094Zm11.657-3.07c-4.323 0-6.986 3.377-7.527 6.255-.54 2.878.888 6.254 5.211 6.254s6.987-3.376 7.566-6.254c.54-2.878-.927-6.254-5.25-6.254Zm1.699 6.293c-.309 1.727-1.853 2.955-3.397 2.955-1.544 0-2.586-1.266-2.316-2.955l.039-.038c.308-1.727 1.852-2.954 3.358-2.954 1.544 0 2.624 1.266 2.316 2.992Z"/></svg>