<svg xmlns="http://www.w3.org/2000/svg" fill="none" viewBox="0 0 210 80"><path fill="#163300" d="M113.307 24.484h8.661l-4.359 31.094h-8.66l4.358-31.094Zm-10.921 0-5.85 17.912-2.547-17.912h-6.057l-7.654 17.855-.956-17.855h-8.397l2.925 31.094h6.962l8.61-19.667 3.032 19.667h6.855l11.316-31.094h-8.239Zm72.734 18.07h-20.567c.107 4.037 2.525 6.697 6.085 6.697 2.683 0 4.808-1.434 6.456-4.173l6.946 3.155C171.655 52.935 166.627 56 160.424 56c-8.452 0-14.059-5.686-14.059-14.83 0-10.045 6.591-17.17 15.893-17.17 8.182 0 13.34 5.528 13.34 14.139 0 1.434-.158 2.868-.478 4.409v.005Zm-7.705-5.95c0-3.617-2.019-5.9-5.264-5.9s-6.113 2.39-6.856 5.9h12.12Zm-123.569-2.75L35 44.19h15.792l1.777-4.876h-6.766l4.134-4.78.011-.13-2.688-4.628h12.092l-9.375 25.797h6.416l11.321-31.09h-29.25l5.377 9.37h.005Zm92.21-3.15c3.054 0 5.736 1.642 8.07 4.46l1.226-8.763c-2.176-1.473-5.129-2.39-9.037-2.39-7.761 0-12.12 4.544-12.12 10.309 0 3.998 2.233 6.445 5.9 8.025l1.754.799c3.268 1.395 4.145 2.086 4.145 3.56 0 1.473-1.473 2.497-3.723 2.497-3.706.011-6.709-1.89-8.97-5.13l-1.254 8.931c2.57 1.963 5.871 2.998 10.218 2.998 7.373 0 11.906-4.252 11.906-10.151 0-4.01-1.783-6.591-6.27-8.61l-1.913-.906c-2.66-1.18-3.56-1.833-3.56-3.138 0-1.406 1.238-2.497 3.617-2.497l.011.006Z"/></svg>