<svg xmlns="http://www.w3.org/2000/svg" fill="none" viewBox="0 0 210 80"><path fill="#000" d="m62.393 32.45-3.462 13.557-3.463-13.556h1.872v-3.448h-7.754v3.448h2.08l4.95 18.543h4.963l4.616-18.543h2.074v-3.448h-7.751v3.448h1.875Zm-17.958-3.447h-6.452c-2.643 0-3.983 1.326-3.983 3.932v13.422c0 1.02.077 2.31.68 3.234.616.945 1.698 1.403 3.303 1.403h6.45c1.099 0 2.092-.416 2.802-1.174.773-.826 1.18-2.024 1.18-3.462V33.642c.003-2.646-1.709-4.64-3.98-4.64Zm.5 18.546H37.45V32.451h7.48v15.101l.004-.003Zm60.023 0-2.652-7.279.078-.03a3.802 3.802 0 0 0 1.082-.617c.722-.586 1.581-1.73 1.581-3.864v-2.827c0-1.661-.274-2.615-.913-3.192-.68-.615-1.732-.74-3.103-.74H88.709v3.448h1.988v15.098H88.71v3.448h7.421v-3.448h-1.988v-3.652l5.01-2.357 2.292 6.012h-1.807v3.448h7.422v-3.448h-2.104.003Zm-3.329-10.845v.056l-.051.024-7.433 3.27V32.45h7.481v4.253h.003Zm71.29-1.605h3.448v-6.096h-16.365v3.448h1.989v15.101h-1.989V51h16.344v-6.096h-3.427v2.648h-7.484v-5.825h3.84v1.985h3.448v-7.421h-3.448v1.985h-3.84v-5.825h7.484v2.65-.002Zm-65.97-.003 3.471.03-.023-2.678h2.844v15.101h-2.318v3.448h8.087l-.003-3.448h-2.318V32.451h2.847v2.645l3.454.03v-6.12h-16.041v6.09Zm49.195 12.453V32.451h1.986v-3.448h-5.309l-6.345 11.8-6.12-11.797h-5.543v3.445h1.985v15.101h-1.985V51h7.751v-3.448h-2.318V36.64l5.323 10.051h1.804l5.324-10.051v10.913h-1.989V51h7.386l.039-3.448h-1.992l.003-.003ZM72.133 32.451v15.101h-1.986V51h16.344v-6.096h-3.43v2.648h-7.48v-5.825h3.84v1.985h3.447v-7.421h-3.447v1.985h-3.84v-5.825h7.48v2.65h3.448v-6.098H70.145v3.448h1.988Zm58.489 15.098V32.451h2.319v-3.448h-8.085v3.448h2.319v15.101h-2.319V51h8.088v-3.448h-2.319l-.003-.003Z"/></svg>