<svg xmlns="http://www.w3.org/2000/svg" fill="none" viewBox="0 0 210 80"><path fill="#12C97A" d="M39.294 24c.928.22 1.87.412 2.79.677 10.332 2.951 15.483 14.845 10.604 24.412-.324.626-.677.876-1.413.876-9.324-.03-18.648-.03-27.98 0-.713 0-1.088-.206-1.42-.854C16.54 38.72 23.142 25.87 34.674 24.2c.235-.037.456-.133.684-.199h3.938Z"/><path fill="#4D4C4D" d="M181.714 56.383c-1.016-.405-2.09-.7-3.032-1.23-1.443-.802-2.304-2.12-2.797-3.812 1.097-.397 2.149-.78 3.194-1.163 1.457 2.657 2.9 3.452 5.041 2.826 1.766-.522 2.392-1.957 2.134-4.997-.132.074-.25.118-.331.199-1.597 1.685-3.518 1.935-5.6 1.192-2.09-.743-3.319-2.296-3.407-4.497-.118-2.892-.03-5.792-.03-8.758h3.599c.014.39.051.788.051 1.185.03 2.311-.015 4.63.103 6.94.066 1.355.883 2.113 2.112 2.326 1.222.206 2.466-.302 2.951-1.413a7.036 7.036 0 0 0 .545-2.487c.073-2.135.022-4.284.022-6.632H190V50.59c-.648 2.723-2.178 4.644-4.945 5.44l-1.281.375h-2.075l.015-.023Zm-22.637-20.254c-.103.346-.176.64-.279.92-1.487 4.01-2.988 8.022-4.445 12.047-.243.663-.545.928-1.259.869-.853-.066-1.722-.015-2.605-.015-.993-2.627-1.957-5.203-3.032-8.051-.574 1.53-1.059 2.818-1.545 4.099-.419 1.133-.787 2.289-1.288 3.385-.125.28-.692.575-1.001.53-.949-.147-2.34.685-2.796-.456-1.744-4.35-3.282-8.78-4.96-13.358 1.325 0 2.517-.044 3.694.037.236.015.552.449.648.75.809 2.422 1.582 4.858 2.443 7.544.213-.522.361-.831.471-1.155.758-2.15 1.531-4.29 2.259-6.447.184-.537.434-.744 1.023-.75 2.833-.038 2.833-.052 3.775 2.59.655 1.847 1.317 3.687 2.193 5.549.876-2.694 1.744-5.387 2.62-8.088h4.084Zm-85.173-5.365v7.653h8.426v-7.61h3.738V49.87h-3.694v-7.705H74v7.705h-3.76V30.764h3.664Zm56.996 0h3.635v19.105h-3.562c-.037-.449-.073-.905-.11-1.39-3.672 2.487-7.3 2.215-9.707-.685-2.303-2.775-2.127-7.595.376-10.098 2.509-2.517 6.299-2.539 9.368.015v-6.947Zm-3.776 8.14c-2.281-.052-3.79 1.486-3.848 3.922-.067 2.48 1.405 4.195 3.65 4.261 2.384.066 3.878-1.457 3.951-4.04.074-2.444-1.412-4.085-3.753-4.136v-.008Zm-9.427 11.01h-3.554c-.029-.464-.066-.906-.11-1.56-1.546 1.508-3.305 2.082-5.321 1.824-2.002-.257-3.584-1.207-4.71-2.877-1.957-2.893-1.472-7.338 1.008-9.634 2.576-2.385 6.02-2.48 9.045-.184.022-.442.044-.84.073-1.31h3.569v13.74Zm-3.753-6.97c0-2.304-1.552-4.004-3.687-4.026-2.178-.022-3.76 1.678-3.76 4.063 0 2.325 1.575 4.07 3.665 4.055 2.163-.022 3.782-1.767 3.782-4.085v-.007Zm56.201-5.469c.052-.485.089-.86.133-1.302h3.547v13.71h-3.533c-.051-.433-.095-.86-.169-1.478-1.722 1.685-3.701 2.134-5.88 1.678-1.604-.339-2.929-1.178-3.915-2.517-2.134-2.908-1.759-7.47.817-9.884 2.554-2.385 6.277-2.51 9.008-.207h-.008Zm-7.499 5.461c-.014 2.355 1.509 4.085 3.606 4.092 2.142 0 3.82-1.759 3.842-4.04.022-2.326-1.59-4.07-3.768-4.07-2.134 0-3.672 1.678-3.687 4.018h.007Zm-61.168 1.524h-9.427c.53 2.936 4.21 3.282 7.183.787.691.714 1.376 1.435 2.09 2.171-1.347 2.142-4.688 3.305-7.72 2.606-3.054-.707-5.093-2.907-5.387-5.822-.257-2.568.206-4.938 2.252-6.69 2.215-1.898 4.798-2.31 7.462-1.163 2.76 1.185 3.628 3.614 3.68 6.433.007.508-.081 1.023-.14 1.693l.007-.015Zm-3.547-2.87c0-1.605-1.074-2.628-2.767-2.665-1.788-.044-3.04 1.038-3.083 2.665h5.85Z"/></svg>