<svg xmlns="http://www.w3.org/2000/svg" fill="none" viewBox="0 0 210 80"><path fill="#EF8200" fill-rule="evenodd" d="M35.566 33.05h2.072v4.229c0 .69-.087 1.295-.173 1.985h.086c1.727-4.143 5.87-6.82 10.359-6.82 6.301 0 8.028 3.713 8.028 9.496v15.366h-2.072V42.63c0-4.23-.518-8.2-5.956-8.2-4.662.086-8.632 3.28-9.84 7.768-.26 1.036-.432 2.158-.432 3.28v11.827h-2.072V33.049Zm35.65 22.874c5.784 0 10.445-4.747 10.445-10.876.173-5.784-4.402-10.618-10.186-10.79-5.783-.173-10.617 4.402-10.79 10.186v.604a10.54 10.54 0 0 0 10.273 10.876h.258Zm0-23.48c6.906-.085 12.517 5.525 12.604 12.431v.173c.172 6.992-5.352 12.775-12.258 12.948-6.992.173-12.776-5.352-12.948-12.258v-.69c0-6.906 5.524-12.517 12.43-12.603h.172Zm12.345.605h2.157l6.647 19.077.864 2.59h.086l.863-2.59 6.647-18.99h2.33l6.647 18.99.863 2.59h.087s.345-1.381.863-2.59l6.474-19.077h2.158l-8.546 24.343h-2.158l-6.733-18.905-.863-2.59h-.086s-.346 1.468-.864 2.59l-6.646 18.905h-2.158c0-.087-8.632-24.343-8.632-24.343Zm38.413 0h2.071v4.23c0 .69-.086 1.295-.172 1.985h.086c1.208-3.625 5.525-6.82 9.323-6.82 4.834 0 7.164 2.245 7.682 6.648h.087c1.381-3.367 5.093-6.647 9.236-6.647 6.301 0 8.114 3.712 8.114 9.495v15.366h-2.071V42.63c0-4.575-.95-8.287-6.043-8.287-4.057 0-7.51 3.625-8.546 7.424a13.765 13.765 0 0 0-.518 3.711v11.827h-2.071V42.63c0-4.144-.605-8.287-5.957-8.287-4.316 0-7.769 3.798-8.891 7.855-.259 1.036-.431 2.158-.345 3.28v11.827h-2.072l.087-24.257Zm41.002 24.257h2.072V33.049h-2.072v24.257Zm-.259-30.472h2.417v-3.54h-2.417v3.54Zm13.466 29.177c5.266 0 8.287-5.525 8.287-10.273v-1.294h-1.553c-4.144 0-13.035 0-13.035 6.301.086 2.59 2.244 5.266 6.301 5.266Zm6.734-13.553h1.64v-.863c0-5.352-2.763-7.251-6.647-7.251-2.503 0-5.007.777-6.992 2.33l-1.209-1.64a12.822 12.822 0 0 1 8.201-2.675c5.611 0 8.632 3.107 8.632 9.15v15.71h-2.072v-3.194c0-.69.087-1.467.173-2.158.086 0-2.158 5.956-8.546 5.956-3.971 0-8.287-2.158-8.287-7.078.087-8.114 10.79-8.287 15.107-8.287Zm11.394-17.005c.345 0 .691-.26.691-.604v-.087c0-.345-.259-.604-.605-.69H193.62v1.38h.691Zm-1.209-1.813h1.382c.604 0 1.122.432 1.122 1.036v.086a1.122 1.122 0 0 1-.691 1.036s0 .087.087.173l.776 1.467h-.604l-.777-1.553h-.777v1.553h-.518V23.64Zm1.123 4.92a2.91 2.91 0 0 0 2.935-2.934v-.087c.086-1.554-1.123-2.935-2.763-3.021-1.64-.086-2.935 1.122-3.021 2.762v.345c-.086 1.554 1.209 2.85 2.849 2.935Zm0-6.56a3.463 3.463 0 0 1 3.453 3.453v.086c0 1.9-1.554 3.453-3.453 3.453a3.463 3.463 0 0 1-3.453-3.453c-.087-1.899 1.467-3.453 3.366-3.539h.087ZM12 23.295h2.072v15.192h.259l15.797-15.192h2.59L16.142 39.35v.086l17.265 17.869h-2.59l-16.487-16.92h-.26v16.92H12V23.294Z" clip-rule="evenodd"/></svg>