<svg xmlns="http://www.w3.org/2000/svg" fill="none" viewBox="0 0 210 80"><path fill="#1D2B65" d="M87.526 46.454c1.459-3.201 2.801-6.156 4.143-9.112.918-2.013 1.817-4.044 2.795-6.033.16-.32.653-.646 1.016-.677 2.937-.21 2.937-.185 2.937 2.74 0 5.799-.019 11.605.018 17.404 0 .905-.184 1.268-1.17 1.25-2.376-.03-2.376.012-2.376-2.401V38.414c-.092-.013-.184-.031-.277-.043-.665 1.44-1.336 2.88-1.995 4.322-1.293 2.825-2.592 5.651-3.86 8.49-.246.554-.535.843-1.182.843-.646 0-1.04-.179-1.324-.807-1.773-3.946-3.577-7.874-5.38-11.808-.154-.345-.339-.671-.764-.967v1.102c0 3.8-.018 7.592.013 11.39.006.77-.198 1.096-1.023 1.078-3.14-.074-2.505.35-2.524-2.445-.037-5.91.013-11.82-.037-17.73-.006-1.004.32-1.183 1.262-1.293 1.854-.216 2.759.467 3.473 2.204 1.742 4.223 3.737 8.348 5.64 12.51.14.314.32.616.609 1.176l.006.018Zm50.811 4.218v8.04h-3.658V37.478h3.411c.043.455.086.936.154 1.631 2.531-2.185 5.356-2.672 8.385-1.853 1.552.419 2.851 1.312 3.781 2.666 2.087 3.017 1.785 7.511-.554 10.183-2.112 2.401-7.056 3.553-11.526.567h.007Zm.006-6.034c0 3.035 1.914 4.993 4.87 4.974 2.77-.012 4.857-2.123 4.882-4.925.024-2.807-2.026-4.863-4.87-4.888-2.968-.025-4.882 1.878-4.882 4.839Zm16.715-15.176h3.743v9.364c1.355-.622 2.574-1.471 3.903-1.73 3.405-.652 6.132.277 7.136 3.442.203.64.308 1.33.32 2 .037 2.827-.006 5.659.031 8.484.012.745-.228.986-.973 1.004-2.801.074-2.801.092-2.801-2.697v-6.015c0-2.77-1.373-3.928-4.1-3.429-1.318.246-2.408.936-3.177 2.026-.24.344-.327.861-.333 1.299-.03 2.58-.037 5.153 0 7.732.013.77-.178 1.072-1.003 1.084-2.752.043-2.752.074-2.752-2.666V29.462h.006Zm17.786 15.25c0-4.316 2.783-7.351 7.148-7.739 2.746-.24 5.406.068 7.542 2.013 2.487 2.266 2.931 5.147 2.05 8.256-.874 3.072-3.164 4.624-6.169 5.043-1.527.209-3.158.172-4.666-.142-3.848-.8-5.898-3.51-5.905-7.431Zm8.417-4.907c-2.931.08-4.686 1.989-4.624 5.024.061 2.906 2.087 4.87 4.931 4.783 2.752-.08 4.636-2.154 4.587-5.036-.055-2.96-1.989-4.851-4.894-4.777v.006Zm-71.491-2.924c3.903.117 6.827 1.133 8.342 4.439 1.816 3.958.554 10.263-6.194 11.002a14.622 14.622 0 0 1-4.66-.247c-3.411-.75-5.486-3.49-5.547-6.963-.074-3.965 1.779-6.717 5.294-7.72 1.053-.302 2.161-.4 2.759-.505l.006-.006Zm.542 2.918c-2.913-.025-4.766 1.804-4.803 4.734-.043 3.03 1.872 5.08 4.741 5.08 2.783 0 4.722-1.964 4.765-4.846.043-2.986-1.804-4.944-4.703-4.968Zm11.796-2.364h3.497c.037.683.073 1.311.123 2.16 1.785-1.674 3.823-2.271 6.156-2.185v2.567c-1.176.259-2.315.42-3.386.77-2.068.683-2.764 1.73-2.764 3.885 0 2.142-.019 4.291.012 6.434.006.677-.203.935-.911.966-2.734.117-2.734.136-2.734-2.567V37.44l.007-.006Z"/><path fill="#2E4B86" d="M24.71 46.786v10.62c0 .653.554.924.726.986.173.074.751.234 1.269-.247l9.087-8.705c.837-1.084 1.145-1.76 1.145-1.76.492-.998.492-1.959.012-2.925-.714-1.428-2.542-2.888-5.288-4.267l-4.698 2.617c-1.391.788-2.26 2.185-2.26 3.688l.007-.007Z" opacity=".9"/><path fill="url(#a)" d="M20 23.17v11.137c0 1.392.936 2.629 2.272 3.023 4.537 1.305 12.442 4.119 14.357 8.25.246.542.394 1.071.443 1.625a13.119 13.119 0 0 0 1.576-7.646 13.12 13.12 0 0 0-5.547-9.481l-11.266-7.856A1.107 1.107 0 0 0 21.17 22c-.197 0-.37.037-.554.135-.37.21-.616.591-.616 1.035Z"/><path fill="#2E4B86" d="M54.686 46.786v10.62c0 .653-.554.924-.726.986a1.187 1.187 0 0 1-1.268-.247l-9.087-8.705c-.838-1.084-1.146-1.76-1.146-1.76-.492-.998-.492-1.959-.012-2.925.714-1.428 2.543-2.888 5.289-4.267l4.697 2.617c1.404.788 2.26 2.185 2.26 3.688l-.007-.007Z" opacity=".9"/><path fill="url(#b)" d="M59.402 23.17v11.137a3.171 3.171 0 0 1-2.271 3.023c-4.538 1.305-12.443 4.119-14.358 8.25a4.929 4.929 0 0 0-.443 1.625 13.119 13.119 0 0 1-1.576-7.646 13.12 13.12 0 0 1 5.547-9.481l11.26-7.856c.198-.148.432-.222.666-.222.197 0 .369.037.554.135.369.21.615.591.615 1.035h.006Z"/><defs><linearGradient id="a" x1="39.313" x2="20" y1="34.603" y2="34.603" gradientUnits="userSpaceOnUse"><stop offset=".07" stop-color="#0092FB"/><stop offset="1" stop-color="#1D2B65"/></linearGradient><linearGradient id="b" x1="40.742" x2="59.255" y1="34.603" y2="34.603" gradientUnits="userSpaceOnUse"><stop offset=".07" stop-color="#0092FB"/><stop offset="1" stop-color="#1D2B65"/></linearGradient></defs></svg>