<svg xmlns="http://www.w3.org/2000/svg" fill="none" viewBox="0 0 210 80"><path fill="#0A3C23" d="m63 52.885 9.302-7.426c1.714 2.774 4.162 4.243 6.447 4.243 1.876 0 3.345-1.142 3.345-2.285 0-1.632-2.856-2.121-6.283-3.1-4.896-1.388-11.097-3.672-11.097-11.67C64.632 25.305 70.262 20 78.504 20c7.344 0 11.75 3.264 14.443 6.691l-8.65 6.773c-1.305-2.285-3.508-3.917-5.712-3.917-1.795 0-3.019.98-3.019 2.203 0 1.632 2.938 2.285 6.365 3.264 5.14 1.47 11.505 3.835 11.505 11.832 0 7.018-5.385 13.138-14.85 13.138-6.039.244-11.832-2.367-15.586-7.1ZM94.497 20.57h11.098v11.26H94.497v-11.26Zm0 12.403h11.098v26.438H94.497V32.974Zm12.322-12.403H117.1v38.841h-10.281v-38.84Zm25.377 11.75c-8.535 0-14.076 6.157-14.117 13.79-.012.364-.008.723.009 1.086.367 7.426 6.683 13.15 14.108 12.787.306.012.608.016.914.008 7.434-.188 13.309-6.365 13.121-13.799 0-7.67-5.875-13.871-14.035-13.871Zm-.081 17.87c-2.04 0-3.509-1.55-3.509-3.998 0-2.448 1.469-4.08 3.509-4.08s3.557 1.596 3.59 3.999c0 2.448-1.469 4.08-3.59 4.08Z"/></svg>