<svg xmlns="http://www.w3.org/2000/svg" fill="none" viewBox="0 0 210 80"><path fill="#D9A461" d="M61.148 59.96c-2.88 0-5.681-.02-8.482.019-.548 0-.666-.157-.666-.686V20.666c0-.588.196-.666.705-.666h25.23c.567 0 .744.117.744.725-.04 1.75-.04 3.5 0 5.25.02.587-.157.724-.725.724-6.131-.02-12.262 0-18.393-.04-.745 0-.882.197-.882.902v24.896c0 .783.235.881.921.881l18.315-.02c.587 0 .803.099.783.745a75.374 75.374 0 0 0 0 5.152c.02.627-.137.783-.764.764l-16.786-.02Zm47.461-26.072c0-.53-.216-.568-.627-.568h-4.486c-1.488 0-1.508 0-1.567 1.547 0 .04-.059.079-.078.118-7.306-3.722-14.084-.568-17.218 3.663-3.604 4.838-3.545 11.478.157 16.218 3.741 4.78 10.107 6.386 15.846 3.977.451-.196.843-.392 1.293-.588 0 .392.039.705 0 .999-.078.568.098.744.705.744 1.802-.039 3.605-.02 5.407 0 .411 0 .568-.098.568-.548V33.888Zm-9.872 18.451a6.615 6.615 0 0 1-7.992-.803 14.243 14.243 0 0 1-.51-.529c-1.802-2.272-2.174-4.7-.94-7.267 1.175-2.428 3.212-3.682 5.916-3.74 3.016-.06 5.661 1.958 6.483 4.857.803 2.84-.411 5.935-2.957 7.482Zm55.217-15.748c3.076 2.781 4.584 6.17 4.584 10.264l.02 12.399c0 .568-.118.744-.725.744-1.744-.039-3.487-.039-5.25 0-.587.02-.724-.137-.724-.724V46.62c-.02-3.389-2.508-6.15-5.877-6.582-3.193-.411-6.268 1.646-7.189 4.78-.195.705-.254 1.41-.254 2.135l.019 12.223c0 .685-.195.803-.822.803-1.717-.04-3.435-.04-5.152 0-.49 0-.705-.06-.705-.647V33.946c0-.548.176-.626.666-.626 1.743.02 3.487.059 5.249 0 .706-.02.862.215.784.842-.039.274 0 .548 0 .881 5.445-2.663 10.577-2.31 15.376 1.548Zm-34.846 7.463a7.503 7.503 0 0 0-.529 2.82l.019 12.321c0 .686-.195.823-.822.803-1.724-.039-3.448-.02-5.152 0-.49 0-.705-.058-.705-.646V33.966c0-.548.176-.627.666-.627 1.743.02 3.487.059 5.25 0 .705-.02.861.216.783.843-.039.274 0 .548 0 .803.098.02.157.039.196.02 2.919-1.685 6.131-1.744 9.363-1.666.392 0 .431.177.431.51v5.66c0 .392-.098.53-.509.51-.823-.02-1.665 0-2.488 0-3.017-.04-5.152 1.293-6.503 4.035ZM61.5 43.329h-.96c-.176-.235.04-.313.137-.43l7.483-9.011c.353-.431.51-.53.92-.04l7.875 9.481H61.5Z"/></svg>