<svg xmlns="http://www.w3.org/2000/svg" fill="none" viewBox="0 0 210 80"><path fill="#1F1F30" fill-rule="evenodd" d="M38.048 20C27.026 20.114 18.114 29.013 18 40.023a7.69 7.69 0 0 1 1.808-4.753c1.77-6.535 6.927-11.693 13.475-13.462a18.731 18.731 0 0 1 4.79-.658h.355c2.667.064 4.93 1.732 5.89 4.07.19.456.329.936.405 1.442.05.341.088.695.088 1.049 0 1.492-.505 2.87-1.34 3.97.329.201.645.416.948.656a7.654 7.654 0 0 0 1.543-4.626v-.367a15.103 15.103 0 0 1 5.182 5.196h-.379a7.654 7.654 0 0 0-4.627 1.542 6.344 6.344 0 0 0-.872.771 7.594 7.594 0 0 0-1.706 2.667 7.537 7.537 0 0 0-.506 2.73 4.821 4.821 0 0 1-4.727 4.817h-.051a4.823 4.823 0 0 1-4.816-4.816c0 .96-.177 1.883-.506 2.73a5.968 5.968 0 0 0 5.322 3.249 6.506 6.506 0 0 1 5.208 2.579 6.557 6.557 0 0 1 1.34 3.969c0 .354-.025.695-.076 1.024-.013 0-.025 0-.038.012-1.1.531-2.288.923-3.527 1.163a3.644 3.644 0 0 0-.543-4.993 3.637 3.637 0 0 0-2.377-.872 8.847 8.847 0 0 1-5.397-1.833 8.662 8.662 0 0 1-1.631-1.63c-.265.277-.569.53-.872.77a10.203 10.203 0 0 0 2.68 2.39c.872.53 1.82.935 2.844 1.175.758.19 1.555.278 2.376.278a2.5 2.5 0 0 1 2.503 2.503 2.509 2.509 0 0 1-2.503 2.503h.405-.43a2.5 2.5 0 0 1-2.503-2.503 2.509 2.509 0 0 1 2.503-2.503c-.822 0-1.618-.1-2.377-.278a3.617 3.617 0 0 0-1.289 2.781c0 .834.278 1.605.759 2.225a3.658 3.658 0 0 0 2.907 1.44 16.11 16.11 0 0 0 7.496-1.832 16.382 16.382 0 0 0 6.864-6.851 7.785 7.785 0 0 1-1.428.202 15.212 15.212 0 0 1-5.183 5.195v-.366a7.653 7.653 0 0 0-1.542-4.627 10.531 10.531 0 0 0 1.706-1.732 7.653 7.653 0 0 0 4.627 1.543h.392a7.48 7.48 0 0 0 1.428-.203 7.731 7.731 0 0 0 4.083-2.528 7.689 7.689 0 0 0 1.808-4.753v-.404c-.152-11.023-9-19.897-19.96-20.074h-.48Zm7.193 25.623a9.26 9.26 0 0 1-1.605 1.618 7.692 7.692 0 0 0-2.655-1.694h-.025a6.074 6.074 0 0 0 2.578-2.591 6.002 6.002 0 0 0 .658-2.73c0-1.694.645-3.25 1.719-4.412a6.558 6.558 0 0 1 4.841-2.137c.354 0 .708.026 1.05.089a14.744 14.744 0 0 1 1.175 3.565 3.692 3.692 0 0 0-2.224-.759 3.706 3.706 0 0 0-2.794 1.29 3.628 3.628 0 0 0-.872 2.363 8.846 8.846 0 0 1-1.833 5.398h-.013Zm5.499-7.9a2.497 2.497 0 0 1 2.503 2.401v.114a2.509 2.509 0 0 1-2.503 2.503 2.491 2.491 0 0 1-2.503-2.414v-.089a2.509 2.509 0 0 1 2.503-2.503v-.013Zm-3.97 7.71c.531-.872.936-1.82 1.176-2.844a3.665 3.665 0 0 0 5.019.531 3.658 3.658 0 0 0 1.44-2.907 16.208 16.208 0 0 0-1.832-7.496 16.278 16.278 0 0 0-6.814-6.826v-.026a7.72 7.72 0 0 0-2.515-4.057c6.51 1.77 11.655 6.927 13.412 13.437.417 1.53.644 3.135.657 4.79v.355c-.063 2.654-1.732 4.93-4.07 5.89-.455.19-.936.329-1.441.405a6.476 6.476 0 0 1-5.019-1.252h-.012Zm-3.248-7.938a5.968 5.968 0 0 0-5.322-3.249 6.506 6.506 0 0 1-5.208-2.579 6.558 6.558 0 0 1-1.34-3.969c0-.354.025-.695.076-1.024h.038a13.97 13.97 0 0 1 3.527-1.188 3.644 3.644 0 0 0 .543 4.993 3.637 3.637 0 0 0 2.377.873 8.846 8.846 0 0 1 5.397 1.832 8.662 8.662 0 0 1 1.631 1.631c.266-.278.569-.53.872-.771a10.204 10.204 0 0 0-2.68-2.39 9.725 9.725 0 0 0-2.844-1.175 9.788 9.788 0 0 0-2.376-.278 2.5 2.5 0 0 1-2.503-2.503 2.509 2.509 0 0 1 2.503-2.503h-.405.443a2.5 2.5 0 0 1 2.503 2.503 2.509 2.509 0 0 1-2.503 2.503c.821 0 1.618.101 2.376.278a3.617 3.617 0 0 0 1.29-2.78c0-.835-.279-1.606-.759-2.226a3.658 3.658 0 0 0-2.907-1.44 16.11 16.11 0 0 0-7.496 1.832 16.382 16.382 0 0 0-6.864 6.852 7.777 7.777 0 0 1 1.428-.203 15.211 15.211 0 0 1 5.183-5.195v.367c0 1.731.569 3.337 1.542 4.626h.013a10.05 10.05 0 0 0-1.707 1.732 7.652 7.652 0 0 0-4.626-1.542h-.392a7.48 7.48 0 0 0-1.429.202 7.73 7.73 0 0 0-4.083 2.528A7.791 7.791 0 0 0 18 40.023v.405c.114 10.972 8.962 19.846 19.922 20.01h.48c11.01-.114 19.922-9.013 20.036-20.01a7.69 7.69 0 0 1-1.808 4.753c-1.757 6.535-6.927 11.692-13.462 13.45-1.53.417-3.135.644-4.79.657h-.355a6.546 6.546 0 0 1-5.89-4.07 6.083 6.083 0 0 1-.405-1.442 6.475 6.475 0 0 1 1.251-5.018 9.727 9.727 0 0 1-.948-.657 7.652 7.652 0 0 0-1.542 4.626v.367a15.104 15.104 0 0 1-5.183-5.196h.38a7.654 7.654 0 0 0 4.626-1.542c.316-.227.607-.493.872-.77a7.594 7.594 0 0 0 1.707-2.668c.329-.847.506-1.77.506-2.73a4.821 4.821 0 0 1 4.727-4.817h.05a4.823 4.823 0 0 1 4.817 4.816c0-.96.177-1.883.493-2.73l.038.038Zm-12.818 17.04a16.206 16.206 0 0 1-6.813-6.826c-.24-.468-.468-.936-.658-1.429a16.112 16.112 0 0 1-1.175-6.067c0-1.188.569-2.238 1.44-2.908a3.692 3.692 0 0 1 2.226-.758c1.112 0 2.11.506 2.793 1.29a9.872 9.872 0 0 1 1.176-2.845 6.558 6.558 0 0 0-3.97-1.34c-.353 0-.707.025-1.049.089a6.565 6.565 0 0 0-5.511 6.295v.354c.013 1.656.24 3.261.657 4.79 1.757 6.523 6.902 11.668 13.412 13.438a7.72 7.72 0 0 1-2.515-4.058v-.025h-.013Zm-6.042-7.85a6.476 6.476 0 0 0 5.018-1.252 6.543 6.543 0 0 0 2.592-5.208c0-.986.24-1.908.657-2.73a5.91 5.91 0 0 1 2.579-2.579h-.013a7.69 7.69 0 0 1-2.655-1.694 8.84 8.84 0 0 0-1.605 1.618 8.845 8.845 0 0 0-1.833 5.398 3.666 3.666 0 0 1-5.89 2.895c.24 1.251.644 2.44 1.175 3.564l-.025-.012Zm-1.454-6.358a2.506 2.506 0 0 0 2.503 2.401c1.353 0 2.503-1.125 2.503-2.503v-.088a2.508 2.508 0 0 0-2.503-2.415c-1.353 0-2.503 1.125-2.503 2.503v.114-.012Zm50.728-7.471h3.982l3.716 10.176h.063l3.679-10.176h4.007v14.322h-2.528V35.662h-.038l-4.349 11.516h-1.782l-4.285-11.516h-.038v11.516h-2.427V32.856Zm22.425 0h9.48v2.224h-6.94v3.641h6.574v2.15h-6.573v4.044h7.306v2.263h-9.847V32.856Zm23.132 7.963c1.012-.227 1.808-.67 2.402-1.314.582-.658.872-1.504.872-2.541 0-.758-.139-1.403-.442-1.921a3.603 3.603 0 0 0-1.188-1.277c-.481-.329-1.049-.556-1.681-.695a9.14 9.14 0 0 0-1.96-.215h-4.98v14.322h2.553V41.11h1.858l3.312 6.068h3.072l-3.818-6.358Zm-1.251-1.87c-.367.05-.733.076-1.1.076h-2.073v-4.02h2.301c.328 0 .657.025.998.075.342.051.658.152.923.304.266.152.493.354.67.594.177.253.266.569.266.96 0 .43-.102.784-.291 1.063a1.96 1.96 0 0 1-.721.644c-.278.14-.606.24-.973.304Zm21.148-2.73a3.27 3.27 0 0 0-1.479-1.126 4.98 4.98 0 0 0-3.805.05 4.783 4.783 0 0 0-2.578 2.77 5.766 5.766 0 0 0-.354 2.06c0 .783.113 1.491.341 2.148.227.645.556 1.201.986 1.67.43.467.935.82 1.529 1.086.595.253 1.265.38 1.998.38.733 0 1.453-.152 2.047-.456a4.078 4.078 0 0 0 1.442-1.2l2.047 1.44a6.367 6.367 0 0 1-2.326 1.846c-.922.443-1.984.657-3.21.657-1.125 0-2.149-.19-3.085-.556a6.969 6.969 0 0 1-2.414-1.555 7.224 7.224 0 0 1-1.58-2.389c-.379-.922-.569-1.946-.569-3.059 0-1.112.202-2.187.594-3.11a6.803 6.803 0 0 1 1.643-2.35 7.228 7.228 0 0 1 2.453-1.492 8.713 8.713 0 0 1 3.071-.531c.456 0 .936.038 1.441.126.493.089.974.228 1.442.405.455.177.884.404 1.289.682.404.278.746.594 1.036.974l-1.946 1.542-.013-.013Zm18.974 5.7c0 .86-.152 1.644-.442 2.339a5.029 5.029 0 0 1-1.214 1.77c-.506.48-1.112.86-1.82 1.125a6.45 6.45 0 0 1-2.288.391c-.822 0-1.58-.126-2.288-.391a5.311 5.311 0 0 1-1.833-1.125 5.029 5.029 0 0 1-1.214-1.77c-.29-.695-.429-1.48-.429-2.339v-9.063h2.553v8.962c0 .417.051.834.164 1.239.102.417.291.784.531 1.1.253.328.582.581.986.783.405.203.923.304 1.53.304s1.112-.101 1.529-.304a2.68 2.68 0 0 0 .986-.783 2.96 2.96 0 0 0 .531-1.1c.114-.417.165-.822.165-1.239v-8.962h2.553v9.063Zm13.829-1.1c1.011-.227 1.808-.67 2.402-1.314.581-.658.872-1.504.872-2.541 0-.758-.139-1.403-.442-1.921a3.57 3.57 0 0 0-1.176-1.277 4.938 4.938 0 0 0-1.694-.695 9.123 9.123 0 0 0-1.959-.215h-4.981v14.322h2.554V41.11h1.858l3.312 6.068h3.072l-3.818-6.358Zm-1.251-1.87c-.367.05-.733.076-1.1.076h-2.073v-4.02h2.3c.329 0 .658.025.999.075.341.051.657.152.923.304.278.152.493.354.67.594.177.253.265.569.265.96 0 .43-.101.784-.29 1.063-.19.278-.418.493-.721.644-.278.14-.607.24-.973.304Zm14.132 2.022-5.372-8.115h3.109l3.603 6.03 3.641-6.03H193l-5.372 8.115v6.207h-2.554V40.97Z" clip-rule="evenodd"/></svg>