<svg xmlns="http://www.w3.org/2000/svg" fill="none" viewBox="0 0 210 80"><path fill="#000" d="m74.334 4.566-3.32 9.298c-1.754 4.964-3.724 10.826-6.555 19.493l6.375-26.915-5.131-1.866L50.57 46.265l3.684 1.404 3.327-9.294c1.736-4.783 3.607-10.4 6.528-19.399L57.752 45.79l5.128 1.87L78.02 5.968l-3.685-1.403ZM83.52 23.517l-6.973 19.295c-1.874.718-2.426.898-2.76.927.03-.339.108-.672.235-.987L85.399 11.31c1.049-2.82 1.559-2.82 1.97-2.82.377 0 .81.12.81 1.06 0 1.006-.524 2.573-1.089 4.116l-.389 1.034 3.834 1.395.308-.926c.837-2.524 1.218-3.97 1.218-5.867 0-1.411-.419-2.594-1.214-3.422-.794-.829-1.932-1.27-3.29-1.27-1.508 0-2.683.493-3.697 1.553-.99 1.033-1.871 2.665-2.773 5.133L70.132 41.431c-.814 2.281-.845 4.053-.09 5.125.493.697 1.292 1.07 2.31 1.07 1.774 0 2.763-1.108 4.863-3.529l2.79.996 7.324-20.19-3.809-1.386ZM84.759 46.149l4.19 1.509 3.14-8.565-4.19-1.507-3.14 8.563ZM102.584 40.925c-1.048 2.82-1.559 2.82-1.97 2.82-.377 0-.809-.122-.809-1.06 0-.88.384-2.127 1.091-4.121l9.876-27.254c1.049-2.82 1.559-2.82 1.971-2.82.376 0 .81.12.81 1.06 0 1.006-.524 2.573-1.089 4.116l-.389 1.034 3.834 1.395.308-.926c.836-2.524 1.217-3.97 1.217-5.867 0-1.411-.418-2.594-1.212-3.422-.793-.829-1.934-1.27-3.292-1.27-1.508 0-2.682.493-3.696 1.553-.99 1.033-1.872 2.665-2.774 5.135l-8.436 23.255c-1.908 5.276-2.092 6.547-2.092 8.381 0 1.41.419 2.594 1.213 3.421.796.827 1.933 1.27 3.292 1.27 1.507 0 2.682-.493 3.695-1.551.991-1.035 1.872-2.667 2.776-5.137l1.319-3.666-3.817-1.301-1.826 4.955ZM141.965 11.31c1.05-2.82 1.561-2.82 1.971-2.82.378 0 .81.12.81 1.06 0 1.006-.523 2.573-1.089 4.116l-.388 1.034 3.833 1.395.309-.926c.837-2.524 1.218-3.97 1.218-5.867 0-1.411-.419-2.594-1.214-3.422a3.471 3.471 0 0 0-.233-.22l1.553-4.274L144.92 0l-1.688 4.673a4.921 4.921 0 0 0-2.65 1.237c-.96.862-1.755 2.173-2.428 4.011-1.466 4.045-1.929 10.285-2.371 16.325-.43 5.814-.837 11.307-2.061 14.68-1.049 2.82-1.559 2.82-1.971 2.82-.376 0-.81-.121-.81-1.06 0-1.005.524-2.573 1.089-4.115l.389-1.035-3.834-1.395-.308.926c-.837 2.526-1.217 3.972-1.217 5.869 0 1.333.375 2.462 1.086 3.281l-1.533 4.176 3.815 1.394 1.514-4.171a4.971 4.971 0 0 0 3.156-1.289c.961-.86 1.756-2.172 2.43-4.01 1.465-4.044 1.927-10.283 2.37-16.316l-.23-.018.232.011c.436-5.821.842-11.312 2.065-14.684ZM162.601 4.574l-7.122 19.666h-2.549l6.607-18.28-3.811-1.386-15.141 41.699 3.814 1.386 7.121-19.538h2.548l-6.607 18.152 3.815 1.386 15.139-41.697-3.814-1.388ZM127.379 4.585 109.041 46.26l3.823 1.395 8.253-19.524h1.431l-5.376 18.167 3.885 1.38 11.751-41.094-5.429-1.999Zm-3.33 19.655h-1.628l6.04-14.747.258.1-4.584 14.644-.086.003ZM57.832 72.88l14.184-.83 86.489-9.03-.194-3.737H44.205v3.732h51.624l50.017-1.022-37.81 2.542L44 71.221l.09 3.74L134.977 80l.207-3.726-63.163-3.502-14.188.109Z"/></svg>