<svg xmlns="http://www.w3.org/2000/svg" fill="none" viewBox="0 0 210 80"><path fill="#3B454F" fill-rule="evenodd" d="M101.033 31.642c.065 0 .104.052.091.116l-5.163 17.464s-.09.116-.155.116H91.03s-.129-.052-.155-.116L88.061 38.25c0-.065-.038-.065-.064 0l-3.911 10.984s-.09.116-.155.116h-4.246s-.13-.052-.155-.116L74.767 31.77s.026-.116.09-.116h5.073s.129.051.142.116l2.297 10.739c0 .065.04.065.052 0l3.51-10.571s.091-.116.156-.116l4.143-.22s.129.052.142.116l2.504 10.804c0 .064.039.064.052 0l3.33-10.752s.09-.116.155-.116h4.62v-.013Zm-28.486 8.97c.4.388.684.84.852 1.317.168.503.258 1.097.258 1.768a6.01 6.01 0 0 1-.49 2.44c-.323.723-.814 1.342-1.446 1.871-.646.53-1.459.943-2.414 1.227-.968.297-2.117.451-3.395.451-1.277 0-2.581-.116-3.781-.348a20.217 20.217 0 0 1-3.06-.852.14.14 0 0 1-.09-.155l.813-3.653s.078-.09.142-.077c.362.142.749.271 1.162.387l1.846.452 1.781.284 1.536.103c.684 0 1.187-.103 1.549-.31.542-.31.658-.735.658-1.032 0-.167-.026-.332-.077-.49a1.31 1.31 0 0 0-.349-.517 2.214 2.214 0 0 0-.632-.387c-.258-.116-.568-.207-.981-.297a21.75 21.75 0 0 1-2.646-.762 12.39 12.39 0 0 1-1.872-.826c-.49-.284-.903-.58-1.2-.877a3.857 3.857 0 0 1-.697-.943 3.834 3.834 0 0 1-.336-1.071 7.713 7.713 0 0 1-.09-1.252c-.001-.594.081-1.185.245-1.755.161-.522.396-1.017.697-1.472a5.605 5.605 0 0 1 1.097-1.187c.433-.354.91-.649 1.42-.878a7.746 7.746 0 0 1 1.704-.555 9.218 9.218 0 0 1 1.91-.194l1.678.065a12.97 12.97 0 0 1 1.69.232c.569.104 1.163.258 1.743.452.474.152.94.329 1.394.53.065.025.09.102.078.154l-1.175 3.524s-.09.09-.155.064l-.813-.27-1.38-.35-.233-.05-1.317-.22a8.591 8.591 0 0 0-1.174-.09c-.62 0-1.085.103-1.42.335a1.21 1.21 0 0 0-.555 1.033c0 .232.039.451.129.632.09.206.271.387.53.568.219.155.528.297.928.439.375.142.865.297 1.498.465 1.097.296 2.013.619 2.736.968.697.322 1.265.697 1.678 1.097h.026v.012Zm36.089-9.177a.116.116 0 0 1 .116.117v17.67s-.052.116-.116.116h-5.421a.115.115 0 0 1-.116-.116v-17.4s.051-.116.116-.116l5.421-.258v-.013Z" clip-rule="evenodd"/><path fill="#3B454F" d="M108.481 23.588h-5.189a.116.116 0 0 0-.116.116v4.427c0 .064.052.116.116.116h5.189a.116.116 0 0 0 .116-.116v-4.427a.116.116 0 0 0-.116-.116Z"/><path fill="#3B454F" fill-rule="evenodd" d="M174.244 35.72c-.31-1.11-.749-2.013-1.304-2.697l-.051-.026a4.862 4.862 0 0 0-1.936-1.484c-.762-.323-1.601-.478-2.491-.478a7.05 7.05 0 0 0-2.775.555c-.852.375-1.678.942-2.466 1.691l-.452.439s-.103.026-.103-.039l-.103-.62-.09-.49c0-.064-.039-.168-.039-.232a4.62 4.62 0 0 1-.09-.426l-.117-.465c0-.026-.025-.064-.025-.09-.013-.039-.078-.078-.142-.078l-4.841.259s-.116.064-.116.129v25.608s.052.116.116.116l5.538-.297s.116-.064.116-.129v-7.563c0-.078.051-.117.116-.117l.31.026c.09.013.232.026.439.026l.658.026h1.149c1.161 0 2.207-.116 3.11-.349a8.545 8.545 0 0 0 2.362-.98 6.787 6.787 0 0 0 1.704-1.485 8.246 8.246 0 0 0 1.149-1.923c.297-.71.516-1.472.645-2.272a14.54 14.54 0 0 0 .207-2.517c0-1.613-.155-3.007-.478-4.13v.013Zm-5.537 7.138h-.013c-.155.697-.374 1.265-.671 1.717-.31.478-.697.826-1.175 1.033-.452.206-.981.31-1.575.31h-.542l-.568-.065-.529-.09-.477-.117-.168-.051s-.116-.09-.116-.155v-8.648c0-.065.026-.142.077-.18l.091-.065c.451-.297.89-.555 1.303-.736a3.558 3.558 0 0 1 1.433-.297 2.72 2.72 0 0 1 1.316.323c.401.206.736.529 1.007.955.271.413.465.93.607 1.536.142.594.206 1.29.206 2.09 0 .956-.064 1.782-.206 2.453v-.013Zm-13.14-11.216c.065 0 .103.052.078.116l-8.171 21.53c-.297.8-.684 1.51-1.123 2.078a5.692 5.692 0 0 1-1.613 1.42c-.646.387-1.407.684-2.285.877-.879.198-1.772.323-2.672.375-.064 0-.129-.04-.142-.117l-.129-.606-.167-.671-.233-1.007-.155-.723-.142-.62c0-.064.026-.129.091-.129l1.51-.284a5.967 5.967 0 0 0 1.42-.529c.4-.206.722-.464.942-.748.219-.271.387-.594.516-.943l.736-1.858s.026-.168 0-.22l-6.209-17.838s.013-.116.078-.116h5.473c.064 0 .142.052.155.116l3.472 11.075s.051.064.077 0l3.653-11.075s.09-.116.155-.116h4.685v.013Zm-36.631-5.137a2.954 2.954 0 0 0-.052.632v4.389s.052.116.117.116h3.497c.031 0 .061.012.083.034a.12.12 0 0 1 .034.082l-.297 3.498c0 .065-.065.116-.129.116h-3.188a.117.117 0 0 0-.117.116v13.708s-.051.116-.116.116h-5.498a.116.116 0 0 1-.117-.116V35.514c0-.064-.051-.129-.116-.129l-1.884-.129a.109.109 0 0 1-.103-.13l.271-3.38c0-.065.064-.117.129-.117h1.6a.12.12 0 0 0 .045-.009.107.107 0 0 0 .037-.025.118.118 0 0 0 .026-.038.134.134 0 0 0 .008-.044v-3.937c0-1.045.104-1.962.297-2.71.181-.723.491-1.317.917-1.782.413-.451.981-.8 1.665-1.02.723-.232 1.613-.348 2.684-.348.414 0 .839.026 1.278.065l1.304.155 1.213.219.517.116c.064 0 .103.078.09.142l-.645 3.317c0 .065-.078.104-.142.09-.865-.167-1.601-.245-2.182-.245-.219 0-.387.026-.542.078a.853.853 0 0 0-.439.323 1.17 1.17 0 0 0-.206.516h-.039v.013Zm72.501 18.186c0-.077-.078-.103-.142-.077l-.865.31c-.465.167-.968.31-1.484.438l-1.562.31c-.522.077-1.048.116-1.575.116-1.2 0-2.155-.284-2.827-.826-.684-.555-1.097-1.42-1.252-2.555l-.038-.336s.038-.116.103-.116h10.145c.065 0 .129-.052.129-.116 0-.078.026-.155.026-.245l.065-.788c0-.245.038-.49.038-.71v-.503c0-1.355-.142-2.582-.413-3.64-.271-1.046-.684-1.923-1.252-2.633a5.25 5.25 0 0 0-2.142-1.614c-.865-.374-1.949-.567-3.201-.567-1.407 0-2.698.206-3.834.62-1.123.412-2.091 1.032-2.878 1.845-.788.813-1.42 1.858-1.846 3.085-.439 1.239-.658 2.723-.658 4.388 0 1.523.18 2.853.542 3.937.361 1.058.89 1.936 1.6 2.62.71.684 1.601 1.188 2.672 1.51 1.084.323 2.388.49 3.859.49.788 0 1.562-.05 2.298-.141.736-.09 1.459-.233 2.143-.4a17.241 17.241 0 0 0 1.949-.607l1.316-.58c.065-.027.065-.169.065-.169l-.994-3.046h.013Zm-8.855-8.764c.53-.632 1.317-.955 2.324-.955.839 0 1.471.336 1.91.994.413.62.607 1.458.607 2.594v.426s-.052.116-.117.116h-5.459c-.065 0-.104-.051-.091-.116v-.297h-.026c.065-1.252.336-2.142.852-2.762Zm-46.595 9.397s.129.026.142.09l.8 3.188s-.013.142-.078.168c-.555.232-1.252.439-2.052.594-1.02.206-2.233.297-3.64.297-.852 0-1.613-.09-2.259-.258-.619-.168-1.135-.426-1.548-.8a3.355 3.355 0 0 1-.93-1.395c-.219-.593-.322-1.33-.322-2.194V35.54c0-.065-.052-.13-.117-.13l-1.884-.167c-.065 0-.116-.065-.116-.129l.271-3.343c0-.065.064-.116.129-.116h1.742c.065 0 .129-.052.129-.116l.633-5.292s.064-.116.129-.13l4.737-.413c.065 0 .116.04.116.104v5.718s.052.116.116.116h4.57c.064 0 .116.052.103.116l-.323 3.498c0 .065-.064.116-.129.116h-4.221s-.116.052-.116.116v9.28c0 .336.103.569.31.724.168.116.413.18.774.18l.762-.026.942-.09c.323-.039.646-.103.968-.168l.349-.077.013.013Z" clip-rule="evenodd"/><path fill="#F9533B" fill-rule="evenodd" d="M49.713 27.912c-.555-1.897-1.432-3.446-2.62-4.62v.025c-1.187-1.187-2.697-2.026-4.53-2.543-1.833-.516-4.04-.774-6.596-.774-3.059 0-5.73.478-7.977 1.433-2.258.955-4.13 2.452-5.601 4.479-1.485 2.039-2.582 4.633-3.305 7.809C18.361 36.896 18 40.716 18 45.157c0 2.581.232 4.801.697 6.66.465 1.858 1.252 3.407 2.362 4.62 1.097 1.214 2.581 2.117 4.414 2.698 1.833.581 4.13.865 6.867.865 1.833 0 3.55-.168 5.163-.49a14.785 14.785 0 0 0 4.427-1.64c1.343-.774 2.543-1.78 3.627-3.033 1.072-1.252 1.975-2.814 2.71-4.672.736-1.86 1.292-4.04 1.692-6.557.4-2.504.593-5.396.593-8.661 0-2.788-.283-5.137-.839-7.035Zm-10.08-2.259-6.454 15.644h-7.15l13.604-15.644Zm-11.63 28.268 5.202-12.624 5.215-4.078h4.091L28.003 53.92Z" clip-rule="evenodd"/></svg>