<svg xmlns="http://www.w3.org/2000/svg" fill="none" viewBox="0 0 210 80"><path fill="#FF3621" d="M41.105 46.31v-4.832l-.52-.327-12.5 6.857-11.848-6.53v-2.809l11.848 6.466 13.085-7.119V33.25l-.52-.327-12.565 6.923-11.392-6.27 11.392-6.269 9.179 5.029.716-.392v-.523L28.085 26 15 33.118v.719l13.085 7.183 11.848-6.53v2.873l-11.848 6.53-12.564-6.922-.521.327v4.833l13.085 7.118 11.848-6.465v2.808l-11.848 6.53-12.564-6.857-.521.327v.718l13.085 7.119 13.02-7.119Z"/><path fill="#1B3139" fill-rule="evenodd" d="M65.973 27.437v22.008h-3.515v-1.633c0-.13-.066-.261-.196-.261-.13-.065-.26 0-.325.065-1.237 1.372-3.06 2.22-5.078 2.22-2.018 0-4.036-.848-5.468-2.285-1.433-1.502-2.214-3.526-2.214-5.747 0-4.506 3.385-8.033 7.682-8.033 2.018 0 3.906.784 5.078 2.09.065.066.195.13.325.066.13-.066.196-.131.196-.262v-8.228h3.515Zm-13.28 14.367c0 2.808 2.148 4.963 4.947 4.963 2.8 0 4.948-2.155 4.948-4.963 0-2.808-2.149-4.963-4.948-4.963-2.8 0-4.947 2.155-4.947 4.963Zm31.898-7.706v15.347h-3.45v-1.633c0-.13-.065-.261-.195-.261-.13-.065-.26 0-.326.065-1.237 1.437-3.06 2.22-5.078 2.22-4.296 0-7.681-3.526-7.681-8.032s3.385-8.033 7.681-8.033c2.084 0 3.906.719 5.078 2.09.065.066.195.13.326.066.13-.066.195-.131.195-.262v-1.567h3.45Zm-13.215 7.706c0 2.808 2.148 4.963 4.948 4.963 2.799 0 4.947-2.155 4.947-4.963 0-2.808-2.148-4.963-4.947-4.963-2.8 0-4.948 2.155-4.948 4.963Zm42.836-7.706v15.347h-3.451v-1.633c0-.13-.065-.261-.195-.261-.13-.065-.26 0-.325.065-1.237 1.437-3.06 2.22-5.078 2.22-4.297 0-7.682-3.526-7.682-8.032s3.385-8.033 7.682-8.033c2.083 0 3.906.719 5.078 2.09.065.066.195.13.325.066.13-.066.195-.131.195-.262v-1.567h3.451Zm-13.216 7.706c0 2.808 2.149 4.963 4.948 4.963 2.799 0 4.948-2.155 4.948-4.963 0-2.808-2.149-4.963-4.948-4.963-2.799 0-4.948 2.155-4.948 4.963Zm19.726 5.812h-.131c-.13.066-.195.13-.195.261v1.568h-3.515V27.437h3.515v8.294c0 .13.065.26.195.26.131.066.261 0 .326-.065 1.237-1.37 3.059-2.22 5.078-2.22 2.018 0 4.036.85 5.468 2.286 1.432 1.502 2.213 3.526 2.213 5.747 0 4.506-3.385 8.032-7.681 8.032-2.019 0-3.906-.783-5.078-2.09-.065 0-.13-.065-.195-.065Zm4.491-10.775c-2.799 0-4.947 2.155-4.947 4.963 0 2.808 2.148 4.963 4.947 4.963 2.8 0 4.948-2.155 4.948-4.963 0-2.808-2.213-4.963-4.948-4.963Z" clip-rule="evenodd"/><path fill="#1B3139" d="M143.767 37.233c.325 0 .651 0 .846.065v-3.461c-.13 0-.325-.066-.586-.066-1.823 0-3.515.915-4.362 2.351-.065.131-.195.196-.325.131s-.195-.13-.195-.261v-1.894h-3.451v15.347h3.516v-6.727c-.13-3.396 1.692-5.485 4.557-5.485Zm2.994-3.135h3.516v15.347h-3.516V34.098Zm1.758-6.661c-1.172 0-2.148.914-2.148 2.09 0 1.175.976 2.09 2.148 2.09 1.172 0 2.148-.915 2.148-2.09 0-1.11-.976-2.09-2.148-2.09Zm12.174 6.334c-4.818 0-8.333 3.396-8.333 8.033 0 2.286.846 4.31 2.343 5.747 1.498 1.437 3.646 2.286 5.99 2.286 1.953 0 3.515-.392 6.379-2.417l-1.953-2.024c-1.432.914-2.734 1.371-4.036 1.371-2.929 0-5.143-2.155-5.143-4.963 0-2.808 2.214-4.963 5.143-4.963 1.367 0 2.669.457 3.971 1.371l2.214-2.024c-2.669-2.22-5.013-2.417-6.575-2.417Zm12.434 8.947c.065-.065.13-.065.195-.065s.13.065.195.13l5.599 6.727h4.296l-7.226-8.49c-.13-.13-.065-.26 0-.392l6.64-6.465h-4.231l-5.729 5.551c-.065.066-.195.13-.325.066-.131-.066-.196-.131-.196-.262V27.437h-3.515v22.008h3.515v-5.943c0-.065.065-.13.065-.196l.717-.588Z"/><path fill="#1B3139" d="M189.206 49.837c2.865 0 5.794-1.698 5.794-4.898 0-2.09-1.367-3.527-4.166-4.441l-1.888-.588c-1.302-.392-1.888-.98-1.888-1.828 0-.915.846-1.568 2.083-1.568 1.172 0 2.213.719 2.864 2.025l2.8-1.437c-1.042-2.09-3.19-3.33-5.664-3.33-3.125 0-5.403 1.959-5.403 4.636 0 2.155 1.302 3.592 3.971 4.376l1.953.587c1.367.392 1.953.915 1.953 1.829 0 1.306-1.237 1.763-2.279 1.763-1.432 0-2.669-.914-3.32-2.35l-2.864 1.436c.911 2.351 3.255 3.788 6.054 3.788Zm-94.915-.13c1.107 0 2.083-.066 2.67-.197v-2.939c-.457.066-1.238.131-1.758.131-1.433 0-2.474-.261-2.474-3.2v-6.27c0-.13.13-.26.325-.26h3.385v-2.743h-3.385c-.195 0-.325-.131-.325-.262v-4.571h-3.45v4.44c0 .131-.13.262-.326.262h-2.409v2.743h2.409c.195 0 .325.13.325.261v7.118c-.065 5.486 3.646 5.486 5.013 5.486Z"/></svg>