<svg xmlns="http://www.w3.org/2000/svg" fill="none" viewBox="0 0 210 80"><path fill="#279E92" d="M37.44 17s-.735 1.594-6.083 11.156c-3.531 6.303-3.04 11.552 1.006 17.192 4.366 6.107 4.586 6.45 4.586 6.45h-8.337C16.522 51.774 15 62 15 62h15.866l6.083-10.226h21.523L37.44 17Z"/><path fill="#000" d="m66.279 51.747 2.576-2.549 7.062-16.408-.979-2.305h4.046l8.9 21.296H79.62l3.163-2.524-1.913-4.551h-8.9l-1.82 4.32 3.926 2.748h-7.797v-.027Zm6.107-8.044h8.044l-3.974-9.646-4.07 9.645Zm24.058 8.387a6.62 6.62 0 0 1-3.751-1.054 7.16 7.16 0 0 1-2.504-2.82 8.422 8.422 0 0 1-.855-3.823 8.873 8.873 0 0 1 .882-3.902 6.879 6.879 0 0 1 2.625-2.94 7.295 7.295 0 0 1 4.142-1.13c1.024 0 2.044.168 3.016.49 1.003.358 1.951.853 2.82 1.471l-2.425 2.748-3.679-3.981c-.883.103-1.71.47-2.38 1.054a5.908 5.908 0 0 0-1.57 2.185 6.842 6.842 0 0 0-.54 2.72 5.856 5.856 0 0 0 .787 3.068 5.062 5.062 0 0 0 2.082 1.985c.876.467 1.855.7 2.847.687.972 0 1.934-.21 2.82-.611a7.332 7.332 0 0 0 2.477-1.89 9.238 9.238 0 0 1-1.154 2.748 6.816 6.816 0 0 1-2.23 2.185 7.317 7.317 0 0 1-3.41.81Zm15.134 0a6.606 6.606 0 0 1-3.755-1.054 7.102 7.102 0 0 1-2.5-2.82 8.426 8.426 0 0 1-.859-3.823 8.974 8.974 0 0 1 .883-3.902 6.876 6.876 0 0 1 2.624-2.94 7.308 7.308 0 0 1 4.146-1.13 9.58 9.58 0 0 1 3.016.49c1.003.358 1.951.853 2.82 1.471l-2.429 2.748-3.678-3.981c-.88.103-1.711.47-2.377 1.054a5.905 5.905 0 0 0-1.57 2.185 6.842 6.842 0 0 0-.539 2.72 5.885 5.885 0 0 0 .783 3.068 5.07 5.07 0 0 0 2.085 1.985 5.87 5.87 0 0 0 2.844.687 6.83 6.83 0 0 0 2.82-.611 7.294 7.294 0 0 0 2.476-1.89 9.281 9.281 0 0 1-1.15 2.748 6.86 6.86 0 0 1-2.233 2.185 7.3 7.3 0 0 1-3.407.81Zm15.621 0a7.631 7.631 0 0 1-4.046-1.03 6.994 6.994 0 0 1-2.624-2.796 8.528 8.528 0 0 1-.917-3.995 8.254 8.254 0 0 1 .982-4.073 6.879 6.879 0 0 1 2.748-2.796 8.13 8.13 0 0 1 4.046-1.003 7.582 7.582 0 0 1 4.023 1.03 6.93 6.93 0 0 1 2.648 2.793 8.604 8.604 0 0 1 .931 3.998 8.295 8.295 0 0 1-.979 4.073 6.982 6.982 0 0 1-2.748 2.793 8.234 8.234 0 0 1-4.064 1.006Zm.44-.882a2.746 2.746 0 0 0 2.576-1.618c.564-1.079.859-2.552.859-4.414a15.012 15.012 0 0 0-.471-3.85 6.884 6.884 0 0 0-1.422-2.896 2.991 2.991 0 0 0-2.353-1.102 2.747 2.747 0 0 0-2.576 1.617c-.563 1.079-.834 2.552-.834 4.414a14.834 14.834 0 0 0 .467 3.85 6.926 6.926 0 0 0 1.398 2.896 3.035 3.035 0 0 0 2.356 1.103Zm9.075.539 2.672-2.109V33.185l-3.015-1.67 6.474-2.036v20.186l2.673 2.11h-8.804v-.028Zm19.596-2.796a8.515 8.515 0 0 1-2.381 2.308 5.157 5.157 0 0 1-2.747.807 4.2 4.2 0 0 1-2.968-1.126 3.859 3.859 0 0 1-1.254-3.016 3.587 3.587 0 0 1 1.007-2.652 6.98 6.98 0 0 1 2.943-1.642 36.068 36.068 0 0 1 5.249-1.126v-1.522c0-1.202-.272-2.133-.811-2.796a2.878 2.878 0 0 0-2.009-1.102l-3.703 4.465-2.576-2.796a25.06 25.06 0 0 1 2.133-1.298 9.8 9.8 0 0 1 2.109-.787 9.25 9.25 0 0 1 2.38-.292c1.766 0 3.188.44 4.29 1.298 1.103.86 1.67 2.061 1.67 3.631v7.258l3.015 1.67-6.327 1.985v-3.264h-.02v-.003Zm-3.287.739c1.126 0 2.181-.54 3.139-1.622V43.26c-1.937.392-3.311.907-4.17 1.57a3.039 3.039 0 0 0-1.274 2.525c0 .786.22 1.374.663 1.741a2.461 2.461 0 0 0 1.642.595Zm21.385-.615a6.707 6.707 0 0 1-2.061 2.232c-.8.526-1.738.8-2.696.783a5.45 5.45 0 0 1-3.411-1.054 6.78 6.78 0 0 1-2.133-2.748 9.57 9.57 0 0 1-.711-3.679c0-1.367.275-2.717.811-3.974a7.22 7.22 0 0 1 2.376-3.064 6.21 6.21 0 0 1 3.827-1.178 5.154 5.154 0 0 1 3.816 1.525v-4.733l-2.968-1.67 6.451-2.036v19.129l3.04 1.669-6.341 1.985v-3.187Zm-3.04.123a4.711 4.711 0 0 0 1.542-.271 2.9 2.9 0 0 0 1.302-.883v-4.681c0-1.99-.271-3.483-.834-4.514a2.772 2.772 0 0 0-2.601-1.546 2.966 2.966 0 0 0-2.061.811 5.023 5.023 0 0 0-1.322 2.109 8.518 8.518 0 0 0-.443 2.769c0 1.027.165 2.047.491 3.019a5.488 5.488 0 0 0 1.498 2.304 3.62 3.62 0 0 0 2.428.883Zm17.216 2.892a6.691 6.691 0 0 1-3.779-1.054 7.193 7.193 0 0 1-2.5-2.844 8.607 8.607 0 0 1-.866-3.899c0-1.332.292-2.645.859-3.85a6.899 6.899 0 0 1 6.451-4.022 6.443 6.443 0 0 1 3.139.735 5.25 5.25 0 0 1 2.109 2.208 8.824 8.824 0 0 1 .859 3.655h-11.699v-1.006h8.092a5.385 5.385 0 0 0-.099-2.281 3.668 3.668 0 0 0-.979-1.766 2.36 2.36 0 0 0-1.742-.687c-.769 0-1.518.265-2.109.76a4.858 4.858 0 0 0-1.473 2.036 7.858 7.858 0 0 0 .075 5.912 4.89 4.89 0 0 0 1.862 2.18 5.752 5.752 0 0 0 3.067.787 6.66 6.66 0 0 0 5.273-2.624 8.828 8.828 0 0 1-2.133 4.07c-1.072 1.127-2.546 1.69-4.407 1.69Z"/></svg>