<svg xmlns="http://www.w3.org/2000/svg" fill="none" viewBox="0 0 210 80"><path fill="#000" d="m86.887 39.39 8.485-11.415h-6.583l-5.29 7.648-5.364-7.648h-6.888l8.372 11.682-8.828 11.949h6.544l5.708-8.067 5.67 8.067h6.925L86.887 39.39Zm26.978 5.024h-.076l-5.361-16.44h-8.984v23.669h5.555V34.214h.151l5.86 17.429h5.213l5.821-17.429h.152v17.429h5.936V27.975h-8.866l-5.404 16.439h.003Zm18.227-16.478v4.985h8.354l-.022 18.684h5.975l.011-18.684h8.323v-4.985h-22.641Zm26.522 0v23.669h5.975v-7.383h5.708c6.062 0 9.703-2.908 9.703-8.257 0-5.35-3.648-7.995-9.58-7.995l-.008-.034h-11.798Zm5.975 11.378V32.92h5.251c2.497 0 4.147.835 4.147 3.234s-1.634 3.12-4.262 3.12l-5.136.039Z"/><path fill="#FC4F37" d="M30 39.58C30 29.872 37.871 22 47.58 22c9.71 0 17.2 7.724 17.428 17.504 0 3.12-1.065 5.746-3.73 8.219-2.25 2.09-6.087 2.397-8.903.836-2.009-1.16-3.558-3.628-4.871-5.441l-2.436 3.728h-5.251l4.946-7.344-4.795-7.229h5.403l2.17 3.729 2.13-3.729h5.442l-4.947 7.23s2.36 3.616 3.653 5.024c1.294 1.408 3.653 1.446 5.174-.077 1.673-1.673 2.05-3.005 2.055-4.946.025-7.512-5.94-13.547-13.47-13.547s-13.621 6.1-13.621 13.623c0 7.524 6.1 13.624 13.622 13.624 1.04 0 2.037-.088 3.006-.305l.836 3.843c-1.378.31-2.49.419-3.843.419C37.87 57.16 30 49.289 30 39.58Z"/></svg>