<svg xmlns="http://www.w3.org/2000/svg" fill="none" viewBox="0 0 210 80"><path fill="#000" fill-rule="evenodd" d="M166.019 37.099c-1.2-1.366-2.81-2.078-4.776-2.078-1.965 0-3.602.823-4.722 2.447v-7.682h-2.177V50.05h2.073v-2.278c1.12 1.763 2.73 2.617 4.83 2.617 1.962 0 3.575-.681 4.772-2.105 1.201-1.424 1.773-3.245 1.773-5.581 0-2.336-.603-4.184-1.773-5.604Zm-1.776 9.703c-.83 1.024-1.903 1.54-3.266 1.54h-.004c-1.39 0-2.483-.486-3.301-1.51-.819-.965-1.228-2.363-1.228-4.125 0-1.763.409-3.16 1.228-4.157.818-.997 1.919-1.478 3.301-1.478 1.382 0 2.483.512 3.301 1.478.819.966 1.228 2.336 1.228 4.041 0 1.705-.425 3.187-1.255 4.21h-.004ZM52.838 30.006h12.845v2.166H55.131V38.4h9.464v2.163H55.13v9.48h-2.29V30.006h-.003Zm20.791 17.481v2.563h-1.961a1.476 1.476 0 0 1-1.066-.454l-2.131-2.224a1.591 1.591 0 0 1-.425-1.14v-16.23h2.263v16.854a.648.648 0 0 0 .185.446.635.635 0 0 0 .201.135c.073.03.154.046.236.042l2.695.008h.003Zm13.22-10.361a6.613 6.613 0 0 0-2.239-1.59 6.343 6.343 0 0 0-2.66-.515c-1.989 0-3.622.712-4.9 2.105-1.278 1.393-1.919 3.245-1.919 5.577s.626 4.214 1.92 5.58c1.277 1.425 2.918 2.106 4.899 2.106 1.98 0 3.59-.681 4.9-2.105 1.254-1.367 1.918-3.245 1.918-5.581 0-2.336-.652-4.184-1.919-5.577Zm-1.61 9.707c-.818 1.023-1.938 1.508-3.3 1.508-1.364 0-2.48-.485-3.302-1.508-.819-.966-1.228-2.364-1.228-4.126 0-1.763.41-3.16 1.228-4.157.819-.997 1.919-1.478 3.301-1.478.622-.023 1.24.1 1.807.354a4.219 4.219 0 0 1 1.494 1.124c.819.997 1.228 2.394 1.228 4.157 0 1.762-.41 3.16-1.228 4.126Zm39.437 2.105c-1.093.97-2.456 1.451-4.039 1.451-1.961 0-3.517-.681-4.718-2.105s-1.799-3.245-1.799-5.577c0-2.333.602-4.21 1.799-5.604 1.143-1.367 2.726-2.078 4.718-2.078 1.664 0 3.027.484 4.12 1.424 1.092.939 1.718 2.247 1.938 3.898h-2.266a3.73 3.73 0 0 0-1.309-2.42 3.834 3.834 0 0 0-2.479-.859 3.693 3.693 0 0 0-1.707.358 3.83 3.83 0 0 0-1.374 1.12c-.765.97-1.147 2.363-1.147 4.157 0 1.793.382 3.187 1.147 4.157.764.966 1.799 1.481 3.081 1.481a3.793 3.793 0 0 0 2.51-.889 3.743 3.743 0 0 0 1.308-2.444h2.236c-.251 1.66-.931 2.96-2.023 3.938l.004-.008Zm16.065-1.062a.353.353 0 0 1-.258-.112.389.389 0 0 1-.108-.27l.135-8.194c0-2.844-1.773-4.268-5.29-4.268-3.517 0-5.564 1.624-5.726 4.869h2.182c.054-1.082.355-1.82.899-2.248.545-.427 1.421-.654 2.645-.654 1.147 0 1.938.2 2.429.543.49.342.737.966.737 1.762 0 1.197-.737 1.852-2.208 2.021l-2.02.223c-3.494.4-5.208 1.91-5.208 4.553 0 1.367.436 2.448 1.309 3.187.872.743 2.1 1.113 3.656 1.113 2.066 0 3.591-.766 4.571-2.352a.906.906 0 0 0 .24.446l1.278 1.305c.174.173.401.27.637.27h1.324v-2.19h-1.22l-.004-.004Zm-2.363-3.637c0 1.366-.436 2.394-1.309 3.113a4.613 4.613 0 0 1-3.054 1.101c-.926 0-1.637-.2-2.1-.627-.463-.428-.71-1.024-.71-1.794a2.292 2.292 0 0 1 .17-.985c.127-.312.32-.59.567-.808.49-.397 1.336-.682 2.537-.855l2.046-.254c.819-.085 1.448-.285 1.857-.623v1.735l-.004-.003Zm8.417-6.282c.927-1.878 2.456-2.82 4.529-2.82h.745v2.212h-.544c-1.471 0-2.591.397-3.409 1.14-.819.738-1.201 1.82-1.201 3.186v8.368h-2.189v-14.68h2.073v2.594h-.004Zm40.653-.4c1.066-1.678 2.537-2.532 4.421-2.532 1.552 0 2.768.454 3.652 1.335.884.877 1.309 2.163 1.309 3.757v9.933h-2.181v-9.703c0-2.163-1.089-3.271-3.217-3.271-.505 0-1.003.1-1.467.304-.468.208-.887.51-1.231.889-.792.797-1.174 1.967-1.174 3.472v8.31h-2.182V35.362h2.074v2.194h-.004Zm-6.247-.462a6.61 6.61 0 0 0-2.24-1.59 6.33 6.33 0 0 0-2.66-.515c-1.981 0-3.621.712-4.899 2.105s-1.919 3.245-1.919 5.577c0 2.333.637 4.21 1.919 5.577 1.278 1.424 2.946 2.11 4.899 2.11 1.954 0 3.591-.686 4.9-2.11 1.262-1.366 1.919-3.245 1.919-5.577s-.653-4.195-1.919-5.577Zm-1.599 9.707c-.818 1.024-1.919 1.509-3.301 1.509-1.382 0-2.479-.485-3.297-1.51-.819-.969-1.228-2.362-1.228-4.125s.409-3.187 1.228-4.157c.818-.97 1.907-1.482 3.297-1.482.622-.019 1.24.1 1.807.358a4.163 4.163 0 0 1 1.49 1.124c.819.997 1.228 2.394 1.228 4.157s-.409 3.156-1.228 4.126h.004Z" clip-rule="evenodd"/><path fill="#000" d="M111.768 35.355v10.58c0 2.545-2.073 4.454-4.629 4.454-2.556 0-4.633-1.894-4.633-4.453v-8.01a.927.927 0 0 0-1.533-.658c-.012.012-.023.02-.035.031l-.031.03a.458.458 0 0 0-.054.066.931.931 0 0 0-.197.535l.008 8.599a1.46 1.46 0 0 1-.428 1.085l-2.09 2.117a1.51 1.51 0 0 1-1.065.435h-2.174c-.397 0-.78-.158-1.065-.435l-2.124-2.117a1.503 1.503 0 0 1-.328-.5 1.438 1.438 0 0 1-.1-.585V35.382h2.266v12.336a.61.61 0 0 0 .19.43.609.609 0 0 0 .436.17h3.59a.608.608 0 0 0 .436-.17.61.61 0 0 0 .19-.431v-9.529c0-1.732 1.413-3.033 3.154-3.033 1.741 0 3.267 1.29 3.267 3.033v7.863c.023.624.189 1.213.64 1.644a2.421 2.421 0 0 0 3.352 0c.452-.431.664-1.02.687-1.644V35.36h2.278l-.008-.004ZM22.803 30.54a1.73 1.73 0 0 0 1.734-1.727 1.73 1.73 0 0 0-1.734-1.729 1.73 1.73 0 0 0-1.733 1.729 1.73 1.73 0 0 0 1.733 1.728ZM22.803 36.437a1.73 1.73 0 0 0 1.734-1.728c0-.955-.776-1.728-1.734-1.728-.957 0-1.733.773-1.733 1.728a1.73 1.73 0 0 0 1.733 1.728ZM22.803 47.21a1.73 1.73 0 0 0 1.734-1.728 1.73 1.73 0 0 0-1.734-1.728 1.73 1.73 0 0 0-1.733 1.728 1.73 1.73 0 0 0 1.733 1.728ZM22.803 58.19a1.73 1.73 0 0 0 1.734-1.728 1.73 1.73 0 0 0-1.734-1.728 1.73 1.73 0 0 0-1.733 1.728 1.73 1.73 0 0 0 1.733 1.728ZM22.73 41.517c.731 0 1.324-.59 1.324-1.32 0-.729-.593-1.32-1.324-1.32-.732 0-1.325.591-1.325 1.32 0 .73.593 1.32 1.325 1.32ZM22.73 24.64c.731 0 1.324-.59 1.324-1.32 0-.729-.593-1.32-1.324-1.32-.732 0-1.325.591-1.325 1.32 0 .73.593 1.32 1.325 1.32ZM28.02 44.161c.73 0 1.324-.59 1.324-1.32 0-.729-.593-1.32-1.325-1.32-.731 0-1.324.591-1.324 1.32 0 .73.593 1.32 1.324 1.32ZM22.73 52.294c.731 0 1.324-.591 1.324-1.32 0-.73-.593-1.32-1.324-1.32-.732 0-1.325.59-1.325 1.32 0 .729.593 1.32 1.325 1.32ZM28.02 26.969c.73 0 1.324-.591 1.324-1.32 0-.73-.593-1.32-1.325-1.32-.731 0-1.324.59-1.324 1.32 0 .729.593 1.32 1.324 1.32ZM33.374 46.833c.732 0 1.325-.591 1.325-1.32 0-.73-.593-1.32-1.325-1.32-.73 0-1.324.59-1.324 1.32 0 .729.593 1.32 1.325 1.32ZM33.374 29.294c.732 0 1.325-.591 1.325-1.32 0-.73-.593-1.32-1.325-1.32-.73 0-1.324.59-1.324 1.32 0 .729.593 1.32 1.325 1.32ZM27.973 33.18a1.73 1.73 0 0 0 1.733-1.727 1.73 1.73 0 0 0-1.733-1.728 1.73 1.73 0 0 0-1.734 1.728 1.73 1.73 0 0 0 1.734 1.728ZM27.973 39.077a1.73 1.73 0 0 0 1.733-1.728 1.73 1.73 0 0 0-1.733-1.728 1.73 1.73 0 0 0-1.734 1.728 1.73 1.73 0 0 0 1.734 1.728ZM33.328 35.417a1.73 1.73 0 0 0 1.734-1.728 1.73 1.73 0 0 0-1.734-1.728 1.73 1.73 0 0 0-1.733 1.728 1.73 1.73 0 0 0 1.733 1.728ZM33.328 41.517a1.73 1.73 0 0 0 1.734-1.728 1.73 1.73 0 0 0-1.734-1.728 1.73 1.73 0 0 0-1.733 1.728 1.73 1.73 0 0 0 1.733 1.728ZM38.533 37.657a1.73 1.73 0 0 0 1.733-1.728 1.73 1.73 0 0 0-1.733-1.728 1.73 1.73 0 0 0-1.734 1.728 1.73 1.73 0 0 0 1.734 1.728ZM38.533 43.754a1.73 1.73 0 0 0 1.733-1.729 1.73 1.73 0 0 0-1.733-1.728 1.73 1.73 0 0 0-1.734 1.728 1.73 1.73 0 0 0 1.734 1.729ZM17.232 44.161c.731 0 1.324-.59 1.324-1.32 0-.729-.593-1.32-1.324-1.32-.732 0-1.325.591-1.325 1.32 0 .73.593 1.32 1.325 1.32ZM17.232 26.969c.731 0 1.324-.591 1.324-1.32 0-.73-.593-1.32-1.324-1.32-.732 0-1.325.59-1.325 1.32 0 .729.593 1.32 1.325 1.32ZM11.876 46.833c.732 0 1.325-.591 1.325-1.32 0-.73-.593-1.32-1.325-1.32-.731 0-1.324.59-1.324 1.32 0 .729.593 1.32 1.324 1.32ZM11.876 29.294c.732 0 1.325-.591 1.325-1.32 0-.73-.593-1.32-1.325-1.32-.731 0-1.324.59-1.324 1.32 0 .729.593 1.32 1.324 1.32ZM17.324 33.18c.958 0 1.734-.773 1.734-1.727a1.73 1.73 0 0 0-1.734-1.728 1.73 1.73 0 0 0-1.733 1.728c0 .954.776 1.728 1.733 1.728ZM17.324 39.077a1.73 1.73 0 0 0 1.734-1.728 1.73 1.73 0 0 0-1.734-1.728 1.73 1.73 0 0 0-1.733 1.728 1.73 1.73 0 0 0 1.733 1.728ZM11.97 35.417a1.73 1.73 0 0 0 1.733-1.728 1.73 1.73 0 0 0-1.734-1.728 1.73 1.73 0 0 0-1.733 1.728 1.73 1.73 0 0 0 1.733 1.728ZM11.97 41.517a1.73 1.73 0 0 0 1.733-1.728 1.73 1.73 0 0 0-1.734-1.728 1.73 1.73 0 0 0-1.733 1.728 1.73 1.73 0 0 0 1.733 1.728ZM6.734 37.657a1.73 1.73 0 0 0 1.733-1.728A1.73 1.73 0 0 0 6.734 34.2 1.73 1.73 0 0 0 5 35.929a1.73 1.73 0 0 0 1.734 1.728ZM6.734 43.754a1.73 1.73 0 0 0 1.733-1.729 1.73 1.73 0 0 0-1.733-1.728A1.73 1.73 0 0 0 5 42.025a1.73 1.73 0 0 0 1.734 1.729ZM201.888 36.768v-3.079h.869l.672 2.348h.011l.684-2.348H205v3.079h-.564v-2.36h-.023l-.251.874-.444 1.486h-.575l-.444-1.486-.24-.873h-.023v2.359h-.552.004Zm-3.066-2.575v-.504h2.556v.504h-.976v2.575h-.607v-2.575h-.976.003Z"/></svg>