<svg xmlns="http://www.w3.org/2000/svg" fill="none" viewBox="0 0 210 80"><path fill="#000" d="M72.085 28.425v18.067l-6.398-7.815V28.425c0-1.225.422-1.647 1.724-1.647h2.911c1.303 0 1.763.422 1.763 1.647Zm-6.398 14.572 6.398 7.813v1.52c0 1.264-.5 1.647-1.763 1.647h-2.91c-1.265 0-1.725-.383-1.725-1.647v-9.333Zm20.419-7.945c-8.238 0-10.268 5.21-10.268 9.731 0 4.522 2.03 9.732 10.268 9.732 8.237 0 10.268-5.21 10.268-9.732 0-4.521-2.03-9.731-10.268-9.731Zm0 14.597c-3.141 0-3.87-2.605-3.87-4.866 0-2.26.729-4.827 3.87-4.827s3.83 2.605 3.83 4.827-.689 4.866-3.83 4.866Zm42.649-12.553a3.083 3.083 0 0 1-.047.178l-4.866 14.748c-.614 1.61-1.186 2.069-2.872 2.069h-2.453c-1.685 0-2.299-.498-2.835-2.07l-2.222-8.543-2.144 8.544c-.614 1.61-1.228 2.069-2.914 2.069h-2.452c-1.722 0-2.258-.498-2.872-2.07l-4.866-14.747c-.383-1.303-.153-1.764 1.111-1.764h3.103c1.419 0 1.802.306 2.146 1.839l2.605 11.456 2.95-11.456c.306-1.455.689-1.839 2.069-1.839h2.489c1.419 0 1.763.384 2.069 1.839l2.988 11.456 2.644-11.456c.345-1.533.689-1.839 2.145-1.839h3.066c1.168 0 1.466.418 1.158 1.586Zm3.057 5.212 6.358 7.763v2.26c0 1.265-.458 1.648-1.722 1.648h-2.913c-1.264 0-1.723-.383-1.723-1.647V42.308Zm19.231 10.902c0 .498-.497.767-1.686.767h-2.872c-1.533 0-1.877-.308-2.76-1.456l-5.555-6.782v.01l-6.358-7.766v-9.56c0-1.225.42-1.648 1.723-1.648h2.913c1.302 0 1.722.423 1.722 1.648v14.405l4.791-5.862c.88-1.15 1.339-1.456 2.68-1.456h2.911c1.188 0 1.686.27 1.686.767 0 .305-.192.727-.573 1.225l-5.749 6.551 6.513 7.93c.384.5.614.92.614 1.227Zm19.808-8.732c0-6.552-3.716-9.349-9.271-9.349-6.438 0-9.809 3.755-9.809 9.463 0 6.321 4.215 9.846 10.804 9.846 2.374 0 4.904-.459 6.398-1.495.842-.575 1.456-1.341 1.456-2.488 0-.997-.422-1.648-1.036-1.648-.803 0-3.561.956-6.282.956-2.528 0-4.597-.803-5.056-3.141h10.727c1.761 0 2.069-.306 2.069-2.144Zm-12.873-1.61c.192-2.184 1.302-3.334 3.638-3.334s3.333 1.075 3.333 3.333h-6.971Zm33.6-7.355c1.341 0 1.725.536 1.189 1.916l-6.399 15.861c-2.3 5.824-5.058 8.313-9.31 8.313-3.18 0-4.56-1.072-4.56-2.875 0-.88.23-1.224.997-1.224 2.605 0 4.788-.078 5.669-2.606l.305-.88-6.935-16.59c-.536-1.34-.152-1.915 1.189-1.915h3.257c1.609 0 1.917.344 2.336 2.03l3.333 11.301 3.372-11.34c.422-1.647.689-1.991 2.299-1.991h3.258Z"/><path fill="url(#a)" d="M52.426 27.843 37.954 19.49a3.657 3.657 0 0 0-3.655 0l-14.47 8.354A3.66 3.66 0 0 0 18 31.01v16.708c0 1.307.698 2.514 1.83 3.166l14.47 8.354a3.646 3.646 0 0 0 3.654 0l14.472-8.354a3.658 3.658 0 0 0 1.827-3.166V31.01a3.657 3.657 0 0 0-1.827-3.167ZM24.814 47.43a.453.453 0 0 1-.454-.452V45.71c0-.251.203-.454.454-.454h13.325l2.174 2.174H24.814Zm23.08-.452a.453.453 0 0 1-.453.452h-4.548l-2.174-2.174h6.722c.25 0 .452.203.452.454v1.268Zm0-3.563H24.36v-9.96c0-.408.5-.611.785-.315l3.237 3.356 3.09-5.179a.456.456 0 0 1 .756-.04l3.899 5.175 3.839-5.169a.455.455 0 0 1 .757.037l3.217 5.347 3.16-3.47a.457.457 0 0 1 .793.308v9.91Z"/><defs><linearGradient id="a" x1="28.539" x2="46.141" y1="53.026" y2="21.333" gradientUnits="userSpaceOnUse"><stop stop-color="#B53BCA"/><stop offset=".87" stop-color="#F96F84"/></linearGradient></defs></svg>