<svg xmlns="http://www.w3.org/2000/svg" fill="none" viewBox="0 0 210 80"><path fill="#03313F" d="M123.581 22c2.411 0 4.844 1.797 4.844 5.347v5.89h-2.464v-5.805c0-1.446-.857-2.7-2.359-2.7-1.682 0-2.221 1.393-2.221 2.806 0 1.414.486 3.413.941 4.773l4.971 14.415c.593 1.743 1.121 4.06 1.121 5.857 0 3.848-2.358 5.56-4.706 5.56-2.348 0-4.813-1.797-4.813-5.347v-5.943h2.486v5.858c0 1.446.909 2.7 2.358 2.7 1.629 0 2.222-1.393 2.222-2.806 0-1.414-.508-3.679-.995-4.986l-5.024-14.415c-.592-1.743-1.068-3.848-1.068-5.644 0-3.902 2.359-5.56 4.707-5.56Zm-12.999 0c2.411 0 4.844 1.797 4.844 5.347v5.89h-2.464v-5.805c0-1.446-.857-2.7-2.359-2.7-1.682 0-2.221 1.393-2.221 2.806 0 1.414.486 3.413.941 4.773l4.971 14.415c.593 1.743 1.121 4.06 1.121 5.857 0 3.848-2.358 5.56-4.706 5.56-2.348 0-4.813-1.797-4.813-5.347v-5.943h2.486v5.858c0 1.446.909 2.7 2.358 2.7 1.629 0 2.222-1.393 2.222-2.806 0-1.414-.508-3.679-.995-4.986l-5.024-14.415c-.592-1.743-1.068-3.848-1.068-5.644 0-3.902 2.359-5.56 4.707-5.56Zm-13.073 0c-2.486 0-4.813 2.01-4.813 5.421v25.237c0 3.465 2.264 5.421 4.76 5.421s4.812-2.009 4.812-5.421V27.42c0-3.465-2.274-5.421-4.76-5.421Zm2.274 30.764c0 1.775-1.132 2.7-2.327 2.7-1.132 0-2.274-.893-2.274-2.7V27.336c0-1.796 1.142-2.668 2.274-2.668 1.195 0 2.327.872 2.327 2.668v25.428Zm73.763-30.19 4.411 24.556.613 4.06.592-4.06 4.411-24.556H187v34.942h-2.486v-24.12l.053-4.284-.645 4.39-4.326 24.014h-2.062l-4.337-24.014-.645-4.39.063 4.284v24.12h-2.496V22.574h3.427Zm-10.323-.01h-2.972l-4.062 34.952h2.433l.857-7.388h4.463l.804 7.388h2.539l-4.062-34.953Zm-3.533 25.108 1.682-15.371.349-4.444.296 4.444 1.714 15.371h-4.041Zm-5.701-25.098v2.477h-5.986v13.607h4.336v2.477h-4.336v13.904h5.986v2.477h-8.472V22.574h8.472Zm-12.353 30.169v-8.78c0-2.01-.931-3.381-2.274-3.977 1.343-.542 2.274-1.966 2.274-4.007v-8.61c0-3.084-2.137-4.806-4.358-4.806h-5.193v34.953h5.246c2.221 0 4.336-1.722 4.336-4.773h-.031Zm-2.433-.543c0 1.85-1.121 2.807-2.412 2.807h-2.189V41.294h2.221c1.227 0 2.359 1.031 2.359 2.966h.021v7.94Zm0-16.19c0 1.85-1.153 2.882-2.412 2.882h-2.189V25.05h2.221c1.227 0 2.359.978 2.359 2.806h.021v8.154Zm-50.367.054v-8.345c0-3.434-2.137-5.156-4.549-5.156h-5.024v34.953h2.486V41.4h2.2c1.248 0 2.401.989 2.401 2.924v13.192h2.486V44.292c0-2.041-.963-3.625-2.327-4.22 1.343-.607 2.327-2.052 2.327-4.008Zm-2.486-.17c0 1.828-1.153 2.923-2.401 2.923h-2.2V25.051h2.2c1.28 0 2.401 1.01 2.401 2.806v8.037ZM75.414 52.668c0 3.413-2.328 5.422-4.813 5.422-2.486 0-4.76-1.967-4.76-5.422V27.421c0-3.412 2.327-5.421 4.813-5.421 2.485 0 4.76 1.967 4.76 5.421v9.483h-2.486v-9.557c0-1.797-1.121-2.668-2.327-2.668-1.121 0-2.274.872-2.274 2.668v25.428c0 1.796 1.153 2.7 2.274 2.7 1.206 0 2.327-.925 2.327-2.7v-9.6h2.486v9.493Z"/><path fill="#F53251" d="M35.316 46.662H22v10.854h34.312V46.662H42.995l-3.85-6.622-3.829 6.622Z"/><path fill="#77D9E2" d="M22 22.574v10.843h13.316l3.83 6.623 3.85-6.623h13.316V22.574H22Z"/></svg>