<svg xmlns="http://www.w3.org/2000/svg" fill="none" viewBox="0 0 210 80"><path fill="#FF774A" fill-rule="evenodd" d="M117.175 30.852V20.72c0-4.605 3.762-8.355 8.39-8.355V5c-8.709 0-15.787 7.056-15.787 15.719v10.133h-3.739c-1.653-6.554-7.615-11.421-14.705-11.421-8.366 0-15.172 6.77-15.172 15.103s6.806 15.104 15.172 15.104c7.09 0 13.052-4.868 14.705-11.422h3.739V75h7.397V38.216h10.487l2.098-7.364h-12.585Zm-25.84 12.152c-4.697 0-8.516-3.796-8.516-8.47 0-4.673 3.819-8.48 8.515-8.48 4.697 0 8.504 3.807 8.504 8.48 0 4.674-3.819 8.47-8.504 8.47Zm49.561-12.151h5.175v7.363h-5.175v24.257h-7.409V21.209h7.409v9.643Z" clip-rule="evenodd"/><path fill="#FF774A" fill-rule="evenodd" d="M64 41.59c0 11.24 9.187 20.393 20.484 20.393v-7.364c-7.216 0-13.086-5.847-13.086-13.029V21.21H64v20.38Z" clip-rule="evenodd"/></svg>