<svg xmlns="http://www.w3.org/2000/svg" fill="none" viewBox="0 0 210 80"><path fill="#1F0256" d="M99.54 48.667a7.739 7.739 0 0 1-2.57 1.758 7.935 7.935 0 0 1-3.047.605 6.604 6.604 0 0 1-2.589-.458 6.762 6.762 0 0 1-2.203-1.447c-1.138-1.19-1.78-2.876-1.78-4.89 0-4.03 2.625-6.777 6.572-6.777 1.065 0 2.111.202 3.066.641a7.206 7.206 0 0 1 2.497 1.887l3.415-3.004c-2.222-2.692-5.839-4.084-9.253-4.084-6.701 0-11.456 4.615-11.456 11.392 0 3.351 1.175 6.172 3.176 8.168 2 1.996 4.828 3.169 8.114 3.169 4.26 0 7.656-1.722 9.547-3.883l-3.488-3.059v-.018Zm6.573-24.377h5.086v30.97h-5.086V24.29Zm29.54 21.703c.092-.678.128-1.355.147-2.033 0-6.428-4.223-11.08-10.74-11.08a10.391 10.391 0 0 0-4.204.787 10.587 10.587 0 0 0-3.544 2.381c-1.909 1.996-3.047 4.817-3.047 8.187 0 6.868 4.846 11.392 11.29 11.392 4.315 0 7.417-1.74 9.29-4.103l-3.323-2.949-.165-.146a6.816 6.816 0 0 1-2.46 1.923c-.955.44-2.001.66-3.066.64-3.268 0-5.618-1.904-6.297-5.017h16.119v.018Zm-16.027-4.066c.22-.989.697-1.886 1.358-2.656a5.798 5.798 0 0 1 1.983-1.392 5.85 5.85 0 0 1 2.368-.44c2.901 0 4.718 1.814 5.343 4.47h-11.052v.018Zm31.852-9.102v5.64l-1.542-.091c-3.837 0-6.022 2.747-6.022 6.373V55.26h-5.067V33.136h5.067v3.352h.037c1.726-2.345 4.186-3.663 6.885-3.663h.642Zm11.842 13.168-3.672 4.066v5.201h-5.067V24.29h5.067v18.992l9.051-10.073h6.022l-7.968 8.901 8.115 13.15h-5.71l-5.746-9.267h-.092Z"/><path fill="url(#a)" d="m70.111 23.795-5.287 5.275a.998.998 0 0 1-.624.293.92.92 0 0 1-.661-.147 12.69 12.69 0 0 0-6.903-1.794c-2.424.073-4.773.86-6.775 2.234a12.737 12.737 0 0 0-3.139 3.132 12.591 12.591 0 0 0-2.24 6.758c-.074 2.42.55 4.81 1.8 6.886.119.198.17.43.146.66-.036.238-.128.44-.293.604l-5.288 5.275c-.11.106-.24.188-.385.238a.92.92 0 0 1-.441.055.874.874 0 0 1-.422-.129 1.01 1.01 0 0 1-.33-.292 21.503 21.503 0 0 1-4.26-13.48 21.826 21.826 0 0 1 4.957-13.278 22.036 22.036 0 0 1 3.14-3.132 22.258 22.258 0 0 1 13.31-4.945 22.072 22.072 0 0 1 13.567 4.194c.121.087.221.2.294.33.073.128.11.274.128.42 0 .147 0 .312-.055.44-.05.144-.132.276-.239.385v.018Z"/><path fill="#1F0256" d="m70.093 56.157-5.287-5.274a.998.998 0 0 0-.624-.293.92.92 0 0 0-.661.146 12.69 12.69 0 0 1-6.5 1.813c-2.294 0-4.534-.622-6.498-1.813-.199-.119-.431-.17-.661-.146a1.102 1.102 0 0 0-.625.293l-5.287 5.274a1.09 1.09 0 0 0-.257.385 1.262 1.262 0 0 0-.073.458c.008.154.052.305.128.44.074.128.184.256.312.347A22.084 22.084 0 0 0 57.022 62a21.96 21.96 0 0 0 12.961-4.213c.127-.086.233-.198.312-.33a.878.878 0 0 0 .129-.439c0-.146 0-.311-.074-.458a1.09 1.09 0 0 0-.257-.384v-.019ZM57.04 46.25c1.67 0 3.272-.662 4.453-1.84a6.274 6.274 0 0 0 1.844-4.442 6.276 6.276 0 0 0-6.297-6.282 6.276 6.276 0 0 0-6.297 6.282 6.276 6.276 0 0 0 6.297 6.282Z"/><defs><linearGradient id="a" x1="65.136" x2="20.65" y1="14.784" y2="59.378" gradientUnits="userSpaceOnUse"><stop stop-color="#17CCFC"/><stop offset=".5" stop-color="#5D31FF"/><stop offset="1" stop-color="#F35AFF"/></linearGradient></defs></svg>