<svg xmlns="http://www.w3.org/2000/svg" fill="none" viewBox="0 0 210 80"><path fill="#FACF03" d="M57.577 52.534c-.055.035-.11.031-.125-.034-.027-.13.087-.113.16-.116.492-.028.977-.113 1.458-.205.963-.182 1.92-.404 2.851-.699a8.51 8.51 0 0 0 1.157-.451c.222-.106.336-.11.336.171v5.208c0 .684-.145 1.372-.457 1.95a5.169 5.169 0 0 1-1.167 1.44c-.572.49-1.254.685-1.92.945-.363.14-.73.106-1.094.106-10.698.007-21.392-.003-32.09.017-1.303 0-2.408-.445-3.308-1.273-.655-.602-1.081-1.416-1.262-2.333-.1-.503-.086-1-.086-1.495v-30.42c0-.567-.114-1.16.104-1.696.211-.52.26-1.082.648-1.564.391-.486.748-.972 1.285-1.314.554-.352 1.167-.572 1.788-.712.273-.072.623-.058.945-.058l31.8.003c1.752 0 3.152.695 4.122 2.153.485.729.686 1.55.692 2.415v3.566c0 .492.01.458-.457.294-.6-.212-1.212-.383-1.829-.537-.973-.243-1.968-.4-2.955-.589-2.934-.56-5.89-.386-8.827-.191-1.264.082-2.577.191-3.797.588-1.091.356-2.214.613-3.288 1.047-1.022.418-2.06.808-3.027 1.325-1.182.63-2.335 1.324-3.364 2.19a21.693 21.693 0 0 0-1.798 1.67c-.454.478-.783 1.032-1.164 1.56-.561.773-.807 1.638-1.095 2.518-.322.989-.367 1.984-.325 2.99.044 1.047.346 2.033.81 2.984.364.753.977 1.334 1.327 2.087.01.024.035.041.055.059.877.656 1.587 1.515 2.53 2.093.952.582 1.87 1.219 2.882 1.708 1.077.52 2.168 1.02 3.305 1.386 1.288.417 2.619.68 3.949.954.984.202 1.971.223 2.955.346 1.763.216 3.53.14 5.29.075.942-.034 1.895-.072 2.837-.198.056-.007.108-.02.146.03l.003.007Z"/><path fill="#333" d="m155.683 45.951 11.113-.01c.357 0 .433.102.426.431a83.461 83.461 0 0 0 0 3.319c.007.356-.076.448-.447.448l-20.117-.01c-1.302 0-2.605-.014-3.908.007-.339.007-.405-.1-.405-.41V31.278c0-.246.049-.328.312-.328h3.866c.253 0 .329.068.329.321l-.003 18.04c0 .13-.077.29.083.369.204.099.253-.12.336-.212a48.2 48.2 0 0 0 2.612-3.114c.436-.568.942-1.081 1.4-1.636l4.229-5.026 3.829-4.585h-.458c-3.007 0-6.014-.007-9.021.007-.325 0-.416-.08-.412-.404a110.18 110.18 0 0 0 0-3.401c0-.25.038-.36.333-.36l18.291.007c.024 0 .049.01.135.034l-12.53 14.957.007.003Zm-42.691 2.207v4.49l.01 7.377c0 .403-.072.554-.526.54a67.704 67.704 0 0 0-3.534-.003c-.357.007-.454-.072-.454-.438l.011-19.223-.007-9.51c0-.324.055-.444.419-.437 1.247.024 2.494.017 3.742.003.266 0 .363.062.349.342-.024.449-.01.9-.003 1.352 0 .086-.062.209.062.25.111.037.163-.082.229-.144.662-.578 1.344-1.126 2.151-1.502 1.604-.75 3.257-.941 5.027-.674 3.492.53 5.605 2.645 6.967 5.663.422.94.603 1.96.706 2.997.073.709.125 1.41.077 2.115-.142 2.022-.662 3.928-1.875 5.601-.859 1.187-1.933 2.163-3.249 2.83-.846.428-1.76.709-2.702.831-1.788.236-3.489.035-5.075-.835-.724-.397-1.407-.869-1.999-1.45-.077-.076-.142-.161-.319-.175h-.007Zm5.145-1.444c1.669.031 2.927-.585 3.952-1.718 1.06-1.17 1.5-2.57 1.532-4.099a6.573 6.573 0 0 0-.278-2.053c-.19-.636-.287-1.28-.651-1.871-.312-.507-.7-.934-1.122-1.335-.485-.458-1.081-.75-1.726-.937-.737-.216-1.475-.25-2.251-.185-1.171.1-2.162.517-3 1.286-.61.558-.977 1.263-1.324 2.016-.277.602-.457 1.208-.506 1.83-.11 1.424-.017 2.83.662 4.14.423.815.977 1.54 1.739 2.043.922.606 1.951.972 2.976.887l-.003-.004ZM102.398 33.07l-.007-1.76c-.007-.26.052-.355.34-.352h3.824c.257 0 .361.055.361.346l-.007 18.2c0 .626-.007.626-.627.626-1.137 0-2.273-.02-3.409.01-.419.014-.513-.12-.482-.5.035-.407.011-.817.007-1.228 0-.061.049-.15-.031-.181-.107-.044-.152.048-.225.116-1.393 1.28-3.024 2.115-4.912 2.324a8.157 8.157 0 0 1-2.62-.117c-1.222-.26-2.352-.68-3.363-1.413a9.374 9.374 0 0 1-2.453-2.597c-.589-.934-1.053-1.926-1.313-2.98a11.866 11.866 0 0 1-.305-3.638c.052-.762.121-1.515.277-2.271.229-1.126.984-2.724 1.83-3.778.661-.825 1.461-1.482 2.279-2.145.554-.452 1.226-.541 1.819-.849.183-.096.447-.041.543-.29.01-.028.073-.059.104-.052.825.168 1.622-.164 2.443-.11 1.943.127 3.682.736 5.134 2.043.239.216.571.318.79.592l.003.004Zm-5.72 13.652c.856.014 1.445-.003 1.996-.168 1.649-.489 2.799-1.587 3.447-3.124.717-1.693.752-3.48.177-5.21-.627-1.886-1.85-3.224-3.936-3.628-1.306-.253-2.56-.191-3.72.496-1.992 1.18-2.796 3.042-2.938 5.235-.055.846.087 1.687.34 2.495.339 1.084.914 2.063 1.797 2.795.88.733 1.906 1.201 2.834 1.116l.004-.007Zm85.805-13.567-.004-1.844c-.007-.25.038-.363.333-.356h3.866c.26 0 .322.079.322.325v18.525c0 .24-.042.328-.312.325a185.802 185.802 0 0 0-3.908 0c-.235 0-.308-.058-.301-.294.017-.53.007-1.058.007-1.667l-.669.534c-1.264 1.05-2.719 1.78-4.344 1.96-1.871.21-3.714-.03-5.38-1.05a12.477 12.477 0 0 1-2.238-1.755c-.332-.325-.551-.732-.821-1.105-.942-1.297-1.438-2.762-1.652-4.318-.267-1.92-.208-3.836.426-5.68a9.77 9.77 0 0 1 1.42-2.69c1.015-1.345 2.252-2.409 3.828-3.014 2.003-.774 4.053-.849 6.09-.093 1.019.377 1.94.931 2.723 1.687.174.168.371.308.62.513l-.006-.003Zm-10.622 7.38a5.873 5.873 0 0 0 .669 3.203c.945 1.814 2.383 2.93 4.524 2.977 2.127.048 3.762-.8 4.847-2.628.602-1.016.762-2.145.841-3.288a6.242 6.242 0 0 0-.405-2.696c-.658-1.7-1.746-2.953-3.676-3.429-1.41-.349-2.674-.215-3.938.404-1.383.678-2.089 1.906-2.595 3.237a4.57 4.57 0 0 0-.267 2.224v-.003Z"/><path fill="#FACF03" d="M53.215 31.518c1.185-.02 2.311.048 3.34.48.783.328 1.562.687 2.207 1.31.828.8 1.108 1.724.97 2.813-.04.291-.117.577-.225.852-.187.472-.115.636.388.728 1.053.192 2.11.37 3.187.336.298-.01.336.12.332.363v7.13c0 .356-.104.555-.502.712-.96.383-1.96.571-2.952.828-.658.171-1.33.133-1.974.322-.284.082-.613.01-.922.027-1.451.075-2.91.048-4.358-.034-1.001-.055-1.94-.462-2.903-.74-.776-.222-1.403-.69-2.01-1.16-.893-.694-1.478-1.6-1.856-2.699-.388-1.13-.495-2.262-.482-3.425.014-1.006.194-1.981.468-2.953.177-.636.353-1.26.71-1.813a5.857 5.857 0 0 1 1.923-1.9c1.067-.653 2.217-.964 3.44-1.111.426-.052.852-.09 1.216-.072l.003.006Z"/><path fill="#333" d="M87.013 49.092c0 .165-.059.223-.232.308-.994.49-2.02.866-3.114 1.071-1.237.233-2.467.28-3.721.154a10.485 10.485 0 0 1-2.501-.554c-.807-.288-1.542-.78-2.266-1.273-1.725-1.174-2.854-2.765-3.62-4.657-.468-1.157-.6-2.354-.589-3.582 0-.274.156-.568-.097-.842-.052-.058.121-.284.135-.469.108-1.232.586-2.35 1.15-3.439.135-.256.343-.486.336-.804 0-.051.014-.089.063-.133.679-.667 1.313-1.386 2.033-2.005a9.66 9.66 0 0 1 2.297-1.451c.787-.36 1.625-.54 2.46-.756.817-.21 1.628-.14 2.439-.233.408-.044.831.298 1.219-.051.274.219.606.253.939.321.973.192 1.891.555 2.792.958.204.093.28.202.28.431l-.01 5.287c0 .075.097.205-.066.23-.114.016-.207-.038-.273-.148-.68-1.095-1.642-1.92-2.782-2.467-.918-.441-1.933-.609-3.014-.486-.8.093-1.542.257-2.234.62a5.227 5.227 0 0 0-2.322 2.384c-.249.503-.516.982-.613 1.533-.505 2.878.24 6.016 3.569 7.333 1.843.732 3.748.5 5.435-.68.863-.607 1.555-1.39 2.307-2.273v5.673Zm46.398-16.465c.776-.732 1.472-1.42 2.411-1.796a5.164 5.164 0 0 1 3.017-.277 9.963 9.963 0 0 1 2.512.872c.183.093.28.158.159.394l-1.815 3.568c-.114.226-.204.27-.43.103-1.188-.88-2.497-.903-3.835-.42-.329.119-.654.386-.859.67-.533.742-.939 1.546-1.056 2.484-.087.691-.101 1.382-.101 2.073l.007 9.427c0 .315-.066.418-.405.41-1.261-.02-2.522-.016-3.78 0-.256 0-.322-.064-.322-.317V31.214c0-.195.035-.257.243-.253h3.987c.225 0 .281.082.274.287-.014.435-.004.87-.004 1.382l-.003-.003Zm11.456-6.676c-1.15-.024-1.791-.359-2.425-.917-.644-.571-.852-1.3-.866-2.001-.014-.774.374-1.533.974-2.105.474-.451 1.053-.69 1.714-.739.936-.068 1.732.202 2.443.828.796.702.672 1.677.904 2.55-.295.53-.492 1.108-.974 1.54-.602.54-1.257.885-1.773.848l.003-.004Z"/></svg>