<svg xmlns="http://www.w3.org/2000/svg" fill="none" viewBox="0 0 210 80"><path fill="#fff" d="M74.26 32.479c-.959-.795-2.106-1.376-3.443-1.745-1.337-.37-2.825-.554-4.465-.555-.775 0-1.701.033-2.78.097a25.491 25.491 0 0 0-3.111.375v18.694c1.003.205 2.02.339 3.042.402 1.031.064 1.935.096 2.71.096 1.696 0 3.227-.203 4.59-.609 1.365-.406 2.521-1.016 3.47-1.831a8.062 8.062 0 0 0 2.2-3.072c.515-1.237.773-2.687.773-4.35 0-1.735-.258-3.221-.774-4.458a7.767 7.767 0 0 0-2.212-3.044Zm-3.028 12.016c-1.042 1.089-2.64 1.633-4.797 1.633-.37 0-.688 0-.955-.013-.268-.014-.503-.023-.705-.042V33.942a8.67 8.67 0 0 1 .885-.07c.313-.008.617-.013.91-.013 2.156 0 3.732.517 4.729 1.55.996 1.033 1.496 2.557 1.5 4.57 0 1.92-.523 3.426-1.567 4.516ZM90.092 36.24c-.489-.516-1.138-.913-1.95-1.19-.81-.278-1.824-.417-3.041-.416-.48 0-.954.023-1.424.07-.47.045-.917.1-1.341.166a15.447 15.447 0 0 0-2.074.457l.525 3.324a8.836 8.836 0 0 1 1.768-.429 14.13 14.13 0 0 1 2.076-.153c1.05 0 1.788.213 2.212.638.424.426.636.99.637 1.69v.388a6.356 6.356 0 0 0-1.01-.182 13.166 13.166 0 0 0-1.423-.07c-.771-.002-1.54.078-2.295.236a6.194 6.194 0 0 0-1.964.762 3.946 3.946 0 0 0-1.365 1.413c-.34.59-.511 1.31-.511 2.16 0 .886.147 1.634.442 2.243.286.599.726 1.11 1.274 1.482.6.4 1.271.678 1.977.82.841.174 1.699.257 2.558.25 1.494 0 2.766-.088 3.816-.263 1.05-.175 1.87-.327 2.458-.456v-8.587a9.304 9.304 0 0 0-.305-2.462 4.4 4.4 0 0 0-1.04-1.89ZM87.477 46.6a7.9 7.9 0 0 1-.884.083c-.369.018-.756.027-1.162.027-.756 0-1.35-.125-1.784-.374-.433-.249-.65-.697-.65-1.343a1.461 1.461 0 0 1 .222-.831c.153-.227.363-.408.609-.526a2.87 2.87 0 0 1 .898-.264 8.275 8.275 0 0 1 2.002-.013c.332.037.581.073.747.11l.002 3.13ZM102.119 46.309a7.86 7.86 0 0 1-1.365.124c-.923 0-1.536-.258-1.84-.775-.304-.517-.456-1.21-.455-2.078v-5.123h4.95v-3.435h-4.954V30.73l-4.12.665v12.242c-.008.865.08 1.73.263 2.575.15.724.468 1.402.927 1.981a4.381 4.381 0 0 0 1.769 1.277c.737.304 1.668.456 2.793.456a9.641 9.641 0 0 0 2.239-.222c.566-.133 1.121-.31 1.66-.526l-.581-3.213c-.417.156-.848.271-1.286.345ZM116.761 38.124a4.392 4.392 0 0 0-1.037-1.884c-.488-.516-1.138-.913-1.949-1.19-.811-.278-1.825-.417-3.042-.416-.479 0-.954.023-1.425.07-.47.045-.917.1-1.34.166a15.363 15.363 0 0 0-2.075.457l.526 3.324a8.818 8.818 0 0 1 1.77-.43 14.082 14.082 0 0 1 2.073-.152c1.052 0 1.79.213 2.213.638.424.426.636.99.637 1.69v.388a6.369 6.369 0 0 0-1.009-.182 13.188 13.188 0 0 0-1.425-.07c-.771-.002-1.54.078-2.294.236a6.178 6.178 0 0 0-1.964.762 3.946 3.946 0 0 0-1.366 1.413c-.341.59-.511 1.31-.511 2.16 0 .886.147 1.634.442 2.243.286.599.726 1.11 1.274 1.482.6.4 1.272.678 1.978.82a12.1 12.1 0 0 0 2.558.25c1.493 0 2.764-.088 3.815-.263a52.128 52.128 0 0 0 2.458-.456v-8.587a9.347 9.347 0 0 0-.307-2.47Zm-3.65 8.478a7.93 7.93 0 0 1-.885.083c-.369.019-.756.028-1.162.028-.755 0-1.35-.125-1.783-.374-.433-.25-.65-.697-.65-1.343a1.468 1.468 0 0 1 .221-.831c.153-.226.363-.408.608-.526.284-.137.588-.226.9-.264a8.238 8.238 0 0 1 2.002-.014c.332.038.581.074.747.112l.002 3.13Z"/><path fill="#1D3299" d="M74.26 32.479c-.959-.795-2.106-1.376-3.443-1.745-1.337-.37-2.825-.554-4.465-.555-.775 0-1.701.033-2.78.097a25.491 25.491 0 0 0-3.111.375v18.694c1.003.205 2.02.339 3.042.402 1.031.064 1.935.096 2.71.096 1.696 0 3.227-.203 4.59-.609 1.365-.406 2.521-1.016 3.47-1.831a8.062 8.062 0 0 0 2.2-3.072c.515-1.237.773-2.687.773-4.35 0-1.735-.258-3.221-.774-4.458a7.767 7.767 0 0 0-2.212-3.044Zm-3.028 12.016c-1.042 1.089-2.64 1.633-4.797 1.633-.37 0-.688 0-.955-.013-.268-.014-.503-.023-.705-.042V33.942a8.67 8.67 0 0 1 .885-.07c.313-.008.617-.013.91-.013 2.156 0 3.732.517 4.729 1.55.996 1.033 1.496 2.557 1.5 4.57 0 1.92-.523 3.426-1.567 4.516ZM90.092 36.24c-.489-.516-1.138-.913-1.95-1.19-.81-.278-1.824-.417-3.041-.416-.48 0-.954.023-1.424.07-.47.045-.917.1-1.341.166a15.447 15.447 0 0 0-2.074.457l.525 3.324a8.836 8.836 0 0 1 1.768-.429 14.13 14.13 0 0 1 2.076-.153c1.05 0 1.788.213 2.212.638.424.426.636.99.637 1.69v.388a6.356 6.356 0 0 0-1.01-.182 13.166 13.166 0 0 0-1.423-.07c-.771-.002-1.54.078-2.295.236a6.194 6.194 0 0 0-1.964.762 3.946 3.946 0 0 0-1.365 1.413c-.34.59-.511 1.31-.511 2.16 0 .886.147 1.634.442 2.243.286.599.726 1.11 1.274 1.482.6.4 1.271.678 1.977.82.841.174 1.699.257 2.558.25 1.494 0 2.766-.088 3.816-.263 1.05-.175 1.87-.327 2.458-.456v-8.587a9.304 9.304 0 0 0-.305-2.462 4.4 4.4 0 0 0-1.04-1.89ZM87.477 46.6a7.9 7.9 0 0 1-.884.083c-.369.018-.756.027-1.162.027-.756 0-1.35-.125-1.784-.374-.433-.249-.65-.697-.65-1.343a1.461 1.461 0 0 1 .222-.831c.153-.227.363-.408.609-.526a2.87 2.87 0 0 1 .898-.264 8.275 8.275 0 0 1 2.002-.013c.332.037.581.073.747.11l.002 3.13ZM102.119 46.309a7.86 7.86 0 0 1-1.365.124c-.923 0-1.536-.258-1.84-.775-.304-.517-.456-1.21-.455-2.078v-5.123h4.95v-3.435h-4.954V30.73l-4.12.665v12.242c-.008.865.08 1.73.263 2.575.15.724.468 1.402.927 1.981a4.381 4.381 0 0 0 1.769 1.277c.737.304 1.668.456 2.793.456a9.641 9.641 0 0 0 2.239-.222c.566-.133 1.121-.31 1.66-.526l-.581-3.213c-.417.156-.848.271-1.286.345ZM116.761 38.124a4.392 4.392 0 0 0-1.037-1.884c-.488-.516-1.138-.913-1.949-1.19-.811-.278-1.825-.417-3.042-.416-.479 0-.954.023-1.425.07-.47.045-.917.1-1.34.166a15.363 15.363 0 0 0-2.075.457l.526 3.324a8.818 8.818 0 0 1 1.77-.43 14.082 14.082 0 0 1 2.073-.152c1.052 0 1.79.213 2.213.638.424.426.636.99.637 1.69v.388a6.369 6.369 0 0 0-1.009-.182 13.188 13.188 0 0 0-1.425-.07c-.771-.002-1.54.078-2.294.236a6.178 6.178 0 0 0-1.964.762 3.946 3.946 0 0 0-1.366 1.413c-.341.59-.511 1.31-.511 2.16 0 .886.147 1.634.442 2.243.286.599.726 1.11 1.274 1.482.6.4 1.272.678 1.978.82a12.1 12.1 0 0 0 2.558.25c1.493 0 2.764-.088 3.815-.263a52.128 52.128 0 0 0 2.458-.456v-8.587a9.347 9.347 0 0 0-.307-2.47Zm-3.65 8.478a7.93 7.93 0 0 1-.885.083c-.369.019-.756.028-1.162.028-.755 0-1.35-.125-1.783-.374-.433-.25-.65-.697-.65-1.343a1.468 1.468 0 0 1 .221-.831c.153-.226.363-.408.608-.526.284-.137.588-.226.9-.264a8.238 8.238 0 0 1 2.002-.014c.332.038.581.074.747.112l.002 3.13ZM120.107 35.52a22.801 22.801 0 0 1 2.71-.567 22.257 22.257 0 0 1 3.484-.264c1.235 0 2.263.162 3.083.486.82.323 1.469.779 1.949 1.367a5.328 5.328 0 0 1 1.023 2.105c.212.889.315 1.8.305 2.714v8.23h-4.12v-7.727c0-1.33-.175-2.272-.525-2.827-.35-.554-1.005-.831-1.964-.831-.295 0-.608.014-.94.042-.331.027-.627.06-.884.096v11.247h-4.121V35.52ZM149.307 42.278a9.477 9.477 0 0 1-.498 3.147 6.827 6.827 0 0 1-1.437 2.436 6.468 6.468 0 0 1-2.254 1.566 7.51 7.51 0 0 1-2.945.553 7.439 7.439 0 0 1-2.913-.553 6.456 6.456 0 0 1-2.253-1.566 7.151 7.151 0 0 1-1.466-2.436 9.028 9.028 0 0 1-.525-3.145 8.701 8.701 0 0 1 .539-3.13 7.095 7.095 0 0 1 1.494-2.41 6.684 6.684 0 0 1 2.267-1.55 7.735 7.735 0 0 1 5.751 0c.852.353 1.62.881 2.254 1.55a7.039 7.039 0 0 1 1.465 2.41 8.911 8.911 0 0 1 .521 3.128Zm-4.203 0c0-1.276-.254-2.279-.76-3.008-.507-.73-1.231-1.094-2.171-1.094-.941 0-1.669.364-2.185 1.094-.515.73-.773 1.732-.774 3.008 0 1.277.258 2.288.774 3.034.517.745 1.245 1.12 2.185 1.122.94 0 1.663-.374 2.171-1.122.507-.749.76-1.76.76-3.034ZM159.787 41.864c0-1.33-.17-2.272-.511-2.827-.341-.554-.927-.831-1.756-.831a8.17 8.17 0 0 0-.802.042c-.277.027-.546.06-.802.096v11.247h-4.12V35.52a26.6 26.6 0 0 1 2.724-.564 22.685 22.685 0 0 1 1.617-.195 19.13 19.13 0 0 1 1.632-.069c1.051 0 1.903.134 2.558.402.588.228 1.134.55 1.617.956a7.692 7.692 0 0 1 4.15-1.361c1.161 0 2.115.161 2.862.485.705.29 1.32.761 1.783 1.367a5.19 5.19 0 0 1 .911 2.105c.173.894.256 1.803.248 2.714v8.23h-4.12v-7.727c0-1.33-.171-2.272-.512-2.827-.341-.554-.926-.831-1.756-.831a3.698 3.698 0 0 0-.926.167 3.588 3.588 0 0 0-.981.415c.13.437.214.888.248 1.343.037.47.056.975.056 1.51v7.95h-4.121l.001-7.727ZM179.448 30.812c0 .758-.243 1.353-.728 1.786a2.62 2.62 0 0 1-3.459 0c-.489-.433-.732-1.028-.728-1.786.004-.758.247-1.354.728-1.787a2.622 2.622 0 0 1 3.459 0c.485.434.728 1.03.728 1.787Zm-.387 18.78h-4.12v-14.57h4.12v14.57ZM186.361 40.253c.405-.44.824-.9 1.257-1.376.433-.477.852-.95 1.257-1.418.405-.469.787-.914 1.146-1.336.359-.421.667-.788.926-1.1h4.898a182.922 182.922 0 0 1-2.861 3.218 80.577 80.577 0 0 1-3.056 3.165 19.186 19.186 0 0 1 1.714 1.79c.59.693 1.162 1.41 1.715 2.15.553.74 1.06 1.48 1.521 2.22.46.74.848 1.415 1.161 2.025h-4.733a77.909 77.909 0 0 0-1.007-1.596 37.65 37.65 0 0 0-1.205-1.75 24.968 24.968 0 0 0-1.339-1.68 11.287 11.287 0 0 0-1.394-1.36v6.382h-4.12V28.763l4.12-.66v12.15Z"/><path fill="url(#a)" d="M29.972 24H14v23.612h6.534a1.064 1.064 0 0 0 1.065-1.066v-5.561a.986.986 0 0 1 .983-.985h5.686a1.064 1.064 0 0 0 1.065-1.067v-5.401a1.277 1.277 0 0 1 1.274-1.277h5.818a1.273 1.273 0 0 1 1.274 1.277v5.826a1.278 1.278 0 0 1-1.274 1.277h-5.388a1.064 1.064 0 0 0-1.065 1.066v5.695a.986.986 0 0 1-.983.984h-5.552a1.063 1.063 0 0 0-1.063 1.07V56h7.6a15.95 15.95 0 0 0 11.296-4.687 16 16 0 0 0 4.678-11.315 16.021 16.021 0 0 0-4.68-11.313A15.972 15.972 0 0 0 29.973 24Z"/><defs><linearGradient id="a" x1="13.885" x2="41.287" y1="47.446" y2="28.29" gradientUnits="userSpaceOnUse"><stop stop-color="#26F596"/><stop offset=".16" stop-color="#23EF9D"/><stop offset=".4" stop-color="#1CDEB2"/><stop offset=".69" stop-color="#10C2D3"/><stop offset="1" stop-color="#009EFF"/></linearGradient></defs></svg>