<svg xmlns="http://www.w3.org/2000/svg" fill="none" viewBox="0 0 210 80"><path fill="#BCBEC0" d="M157.663 25.28h2.696c.105 0 .209 0 .314.01.032 0 .063.032.084.052.032.063.053.126.074.19.272.88.535 1.761.807 2.642l3.713 12.24c.755 2.485 1.5 4.96 2.255 7.446.084.283.136.587.199.88.052.263.105.514.157.777l.021.02s.021-.01.021-.02c.021-.084.053-.179.074-.263l.157-.88c.031-.137.063-.273.105-.4.891-2.946 1.783-5.893 2.674-8.83 1.259-4.142 2.517-8.295 3.776-12.438.115-.388.231-.776.346-1.154.021-.063.042-.136.073-.189.011-.02.053-.052.084-.052h5.779c.042 0 .084.052.073.094a2.412 2.412 0 0 1-.084.262c-.943 2.78-1.898 5.559-2.842 8.338l-5.569 16.33c-.535 1.583-1.08 3.167-1.615 4.74a3.24 3.24 0 0 1-.115.294c-.021.042-.063.073-.105.073h-5.569c-.346 0-.304 0-.409-.294-.902-2.61-1.804-5.233-2.695-7.844-1.49-4.342-2.979-8.674-4.468-13.016-.986-2.863-1.972-5.736-2.958-8.6l-.094-.293c-.011-.042.031-.095.073-.095h2.979l-.011-.02Z"/><path fill="#FF6C0E" d="M101.47 45.678h-5.569c-.042 0-.084-.052-.073-.094 0-.021 0-.042.01-.063.273-.818.65-1.573 1.206-2.234.168-.2.357-.388.577-.545.262-.19.556-.336.87-.399.106-.021.2-.031.305-.042H102.435c.094 0 .136-.052.147-.157a5.005 5.005 0 0 0-.357-2.475 3.588 3.588 0 0 0-.598-.976c-.43-.503-.954-.87-1.583-1.059a3.454 3.454 0 0 0-1.27-.136c-1.31.084-2.338.702-3.135 1.73-.2.252-.367.525-.514.818a7.32 7.32 0 0 0-.766 2.433c-.094.661-.136 1.332-.115 2.004.021.891.105 1.772.325 2.632.147.577.346 1.122.619 1.646a5.88 5.88 0 0 0 1.332 1.71c.776.682 1.689 1.07 2.706 1.196a7.961 7.961 0 0 0 1.657 0c.765-.063 1.51-.2 2.234-.42a15.338 15.338 0 0 0 1.688-.608c.252-.105.514-.22.766-.325l.22-.095c.042-.02.094 0 .115.042.032.063.053.126.074.189.252.671.493 1.342.744 2.014.158.42.315.839.472 1.269a.847.847 0 0 1 .074.23c0 .032 0 .074-.032.095-.031.031-.073.052-.115.073-1.196.577-2.433 1.06-3.723 1.374a17.65 17.65 0 0 1-3.797.493c-.618.01-1.248-.02-1.866-.094a10.705 10.705 0 0 1-1.993-.43 7.719 7.719 0 0 1-1.06-.43c-2.076-1.028-3.65-2.56-4.698-4.625-.44-.86-.745-1.762-.975-2.696a14.044 14.044 0 0 1-.325-1.877c-.074-.797-.105-1.584-.042-2.38.042-.483.084-.966.167-1.448.315-1.794 1.018-3.42 2.16-4.845.987-1.217 2.214-2.119 3.64-2.748a11.065 11.065 0 0 1 2.81-.818 10.66 10.66 0 0 1 2.004-.137c1.353.032 2.653.294 3.88.881.787.378 1.5.86 2.129 1.469a7.54 7.54 0 0 1 2.056 3.503 9.16 9.16 0 0 1 .336 2.768c-.021.64-.095 1.27-.221 1.888-.104.493-.23.986-.388 1.468-.021.063-.052.126-.083.19 0 .02-.032.03-.053.041-.031 0-.063.01-.105.01h-5.537l.031-.01Z"/><path fill="#BCBEC0" d="M140.463 42.458V29.663c0-.042-.041-.094-.083-.094H132.87c-.042 0-.094-.042-.094-.084 0-.052-.01-.115-.01-.168V25.416c0-.032.052-.095.083-.095h21.007c.042 0 .084.042.095.084 0 .074.01.137.01.21v3.67c0 .085 0 .158-.021.242 0 .021-.031.042-.042.042-.031.01-.063.01-.105.021H146.358c-.042 0-.095.042-.095.084s-.01.094-.01.136v25.507c0 .083-.053.125-.126.136h-5.496c-.084 0-.136-.053-.136-.126V42.49l-.032-.032Z"/><path fill="#FF6C0E" d="M76.1 55.421h-2.947c-.052 0-.084-.031-.105-.073-.031-.074-.052-.147-.084-.23-.314-.913-.64-1.826-.954-2.749-2.066-5.967-4.142-11.935-6.209-17.902-.031-.074-.052-.158-.084-.231-.083-.241-.073-.252.179-.252h5.632c.063 0 .115.021.136.084.021.074.052.157.073.23.41 1.48.829 2.948 1.238 4.427.892 3.188 1.772 6.376 2.664 9.554.157.577.315 1.154.44 1.741 0 .042.021.084.032.136 0 .032.031.032.052.021 0 0 .021 0 .021-.02.021-.064.042-.126.053-.2.178-.818.42-1.626.64-2.444.954-3.481 1.919-6.953 2.873-10.435.262-.933.514-1.867.776-2.8.021-.073.042-.157.074-.23a.144.144 0 0 1 .105-.085H86.2c.262 0 .315 0 .21.283-.504 1.458-1.007 2.916-1.51 4.384-1.815 5.255-3.619 10.499-5.433 15.753l-.283.818c-.021.052-.042.105-.074.157 0 .021-.031.032-.052.032-.105 0-.21.01-.315.01H76.08l.021.021ZM34.642 39.732v15.217c0 .126 0 .252-.01.378 0 .042-.052.084-.094.084h-5.433c-.042 0-.084-.053-.095-.084 0-.032-.01-.063-.01-.105V24.189c0-.157.032-.189.21-.189h5.327c.043 0 .095.042.095.084V39.72l.01.01ZM118.408 39.721v15.575c0 .073-.053.125-.137.125h-5.39c-.042 0-.084-.042-.095-.084V24.136c0-.073.053-.115.137-.125H118.313c.042 0 .095.041.095.083s.01.095.01.137v15.49h-.01ZM55.188 33.984h2.59c.105 0 .21 0 .315.01.031 0 .063.032.073.064.032.073.053.147.074.23.314 1.144.64 2.287.954 3.43.818 2.936 1.636 5.883 2.454 8.82l.661 2.36c.105.388.189.786.283 1.174 0 .032.021.063.032.095 0 .02.031.02.052.031 0 0 .021-.01.021-.02.052-.21.115-.42.157-.64.053-.252.126-.493.21-.724.913-2.454 1.815-4.908 2.727-7.362.042-.105.084-.21.136-.315h.053c.042.052.084.115.115.178.241.483.44.986.63 1.5.366 1.028.618 2.077.786 3.146.168 1.07.2 2.14.115 3.21a8.894 8.894 0 0 1-.619 2.653c-.461 1.133-.933 2.255-1.405 3.388-.02.052-.042.104-.073.157a.228.228 0 0 1-.084.052c-.032.01-.063 0-.105 0H59.666c-.052 0-.094-.031-.105-.073a2.435 2.435 0 0 1-.105-.294c-.86-2.486-1.71-4.971-2.57-7.446-1.52-4.405-3.03-8.8-4.55-13.204-.032-.095-.064-.2-.095-.294-.021-.063.01-.115.084-.115h2.874l-.011-.01ZM46.095 33.984H49c.094 0 .189 0 .273.01 0 0 .02.011.02.022 0 .02.011.052 0 .063a1.709 1.709 0 0 1-.178.21c-1.824 1.982-3.65 3.974-5.485 5.956-.293.326-.597.64-.891.965-.031.032-.063.063-.094.105-.063.074-.063.116-.032.189.042.084.094.157.136.241 1.248 2.16 2.486 4.31 3.734 6.471 1.311 2.276 2.622 4.552 3.943 6.828.053.094.105.199.158.304 0 .01-.01.042-.032.052-.031.01-.063.01-.105.021H44.49c-.084 0-.126-.042-.167-.105l-.126-.251c-1.144-2.308-2.287-4.604-3.43-6.912-.356-.713-.703-1.426-1.059-2.14a3.44 3.44 0 0 1-.21-.545c-.052-.199-.126-.398-.178-.597 0-.032-.063-.032-.084 0-.031.041-.073.084-.105.136-.094.147-.189.283-.294.43a1.79 1.79 0 0 1-.22.273c-.629.681-1.258 1.352-1.888 2.024-.041.042-.084.073-.125.115-.021.021-.074 0-.084-.031 0-.021-.021-.042-.021-.063-.095-.787-.158-1.584-.105-2.381.063-1.049.273-2.056.64-3.031a14.502 14.502 0 0 1 2.317-4.07c1.08-1.331 2.16-2.674 3.241-4.006.273-.346.168-.293.598-.293h2.873l.032.01ZM129.703 44.745v10.55c0 .074-.052.126-.136.126H124.48c-.514 0-.472.063-.472-.45V34.12c0-.084.053-.116.137-.126h5.149c.43 0 .399-.042.399.42v10.34l.01-.01ZM126.829 31.163c-.293 0-.629-.031-.954-.126-.965-.272-1.888-1.09-2.213-2.244a3.772 3.772 0 0 1 .042-2.182c.241-.755.692-1.342 1.343-1.793.471-.336 1.006-.493 1.583-.535.409-.02.808 0 1.196.126a2.9 2.9 0 0 1 .954.472c.797.608 1.269 1.405 1.385 2.412a3.768 3.768 0 0 1-.158 1.636c-.314.955-1.153 1.804-2.15 2.087-.325.095-.65.126-1.028.126v.021Z"/></svg>