<svg xmlns="http://www.w3.org/2000/svg" fill="none" viewBox="0 0 210 80"><path fill="#4BE1C4" d="M158.296 70h-4.547l3.679-17.499.932-4.483h6.09l1.318 6.364L169.046 70h-4.692l-.643-3.6h-4.756l-.659 3.6Zm2.667-15.12-.98 7.728h2.828l-.996-7.728h-.852ZM141.617 48.002l-3.23 8.854h-.9v-8.854h-4.772v21.982h4.772v-9.111h.9l3.471 9.11h5.206l-4.467-11.28 4.178-10.701h-5.158ZM117.643 69.95a6.292 6.292 0 0 1-5.512-2.795 14.482 14.482 0 0 1-1.928-8.147 14.446 14.446 0 0 1 1.928-8.146 6.292 6.292 0 0 1 5.512-2.796 6.318 6.318 0 0 1 5.527 2.796 14.483 14.483 0 0 1 1.929 8.146 14.455 14.455 0 0 1-1.929 8.147 6.335 6.335 0 0 1-5.527 2.796Zm0-17.32c-.868 0-1.495.545-1.896 1.686a14.92 14.92 0 0 0-.563 4.692 14.52 14.52 0 0 0 .563 4.692c.401 1.125 1.028 1.688 1.896 1.688.868 0 1.494-.547 1.896-1.688a14.89 14.89 0 0 0 .562-4.692 14.492 14.492 0 0 0-.562-4.692c-.402-1.125-1.012-1.687-1.88-1.687h-.016ZM89.7 48.002v4.113h4.756v17.869h4.82V52.116h4.757v-4.114H89.7ZM51.473 25.586H40l11.746 13.947V25.86a.27.27 0 0 0-.273-.273ZM89.54 10.257a.254.254 0 0 0-.258-.257h-9.175a.254.254 0 0 0-.257.257v15.586H64.167v43.883c0 .145.112.258.257.258H73.6a.254.254 0 0 0 .257-.257V27.145H89.54V10.257Z"/></svg>