<svg xmlns="http://www.w3.org/2000/svg" fill="none" viewBox="0 0 210 80"><path fill="#FE812C" fill-rule="evenodd" d="M31.084 58.024s-2.802-2.196-5.815-.372c-2.666 1.62-1.178 3.644-7.565 6.282a198.237 198.237 0 0 0-9.236 4.082.131.131 0 0 0 .09.244c1.788-.5 5.21-1.481 9.613-2.875 6.588-2.082 6.748.424 9.834-.05 3.48-.537 4.217-4.024 4.217-4.024s.427-1.871-1.134-3.287h-.004Z" clip-rule="evenodd"/><path fill="#FFA669" fill-rule="evenodd" d="M31.39 59.111s-2.072-1.805-5.085.022c-2.67 1.62-1.4 2.302-4.8 3.925-.671.321-1.372.646-1.981.923a.133.133 0 0 0-.07.164.132.132 0 0 0 .158.08c.656-.185 1.411-.39 2.123-.565 3.64-.883 3.173.606 6.205-.171 3.469-.89 3.837-2.9 3.837-2.9s1.175-.066-.387-1.478Z" clip-rule="evenodd"/><path fill="#FED553" fill-rule="evenodd" d="M30.5 59.385s-3.658-.722-5.712 2.484a.44.44 0 0 0 .24.657c1.091.313 3.707.674 5.88-2.054l-.404-1.087H30.5Z" clip-rule="evenodd"/><path fill="#EA3427" d="M8.526 68.661a.524.524 0 0 1-.23-.996 197.297 197.297 0 0 1 9.258-4.092c3.903-1.613 4.76-2.959 5.516-4.148.478-.748.926-1.455 1.995-2.105 3.21-1.944 6.234.372 6.263.398a.098.098 0 0 1 .022.018c1.715 1.55 1.277 3.582 1.255 3.666-.007.033-.832 3.754-4.541 4.323-1.237.19-2.036-.062-2.882-.328-1.343-.424-2.867-.905-6.89.368a301.673 301.673 0 0 1-9.628 2.878.476.476 0 0 1-.142.018h.004Zm19.293-11.34c-.722 0-1.525.174-2.342.67-.912.555-1.295 1.157-1.74 1.853-.82 1.288-1.747 2.747-5.88 4.455a207.066 207.066 0 0 0-6.114 2.637 325.687 325.687 0 0 0 6.311-1.926c4.26-1.35 5.913-.828 7.369-.369.788.248 1.47.464 2.524.303 3.163-.489 3.863-3.582 3.888-3.713.015-.073.347-1.671-1.003-2.904-.146-.11-1.379-1.01-3.013-1.01v.003Z"/><path fill="#444" fill-rule="evenodd" d="M53.872 50.59s-.044-1.135-1.445-1.262c-1.397-.128-2.064.244-2.51.923-.444.678-1.243 1.244-1.37 1.295-.129.047.648 1.163.648 1.163s1.762-.569 2.528-.871c.77-.303 2.149-1.252 2.149-1.252v.004Z" clip-rule="evenodd"/><path fill="#394246" fill-rule="evenodd" d="M47.452 45.045c-1.846-.032-4.053 3.305-1.496 3.896.766.179 2.503 2.152 2.503 2.152s.831-.649 1.56-1.21c.73-.562 2.23-.8 2.23-.8s-.865-2.619-1.737-3.45c-.871-.832-3.064-.588-3.064-.588h.004Z" clip-rule="evenodd"/><path fill="#282E31" fill-rule="evenodd" d="M49.772 45.618s.182.401-.19.474c0 0-1.116-.124-1.448 1.255-.332 1.383-.182 1.703-.777 2.313l1.266 1.736s.992-.846 1.503-1.543c.518-.704 2.057-.93 2.057-.93s-.657-1.248-1.109-2c-.452-.754-1.302-1.305-1.302-1.305Z" clip-rule="evenodd"/><path fill="#000" d="M49.469 53.085c-.507 0-.985-.303-1.186-.802a15.197 15.197 0 0 0-.875-1.78c-.438-.752-1.156-1.015-2.243-1.416a20.389 20.389 0 0 1-2.105-.872.39.39 0 0 1-.179-.529.391.391 0 0 1 .529-.178c.766.375 1.437.623 2.028.839 1.156.423 2.072.758 2.652 1.758.135.23.266.47.39.718.646-.284.796-.518.967-.78.193-.296.412-.635 1.105-1 .993-.521 2.043-.467 3.032.157a1.356 1.356 0 0 1-.102 2.357c-1.299.623-2.802 1.178-3.586 1.451a1.278 1.278 0 0 1-.43.077h.003Zm-.646-1.55c.066.146.132.295.194.448a.493.493 0 0 0 .62.285c.766-.27 2.232-.81 3.498-1.415a.571.571 0 0 0 .3-.478.577.577 0 0 0-.267-.504c-.752-.474-1.503-.518-2.243-.127-.511.27-.65.481-.81.73-.212.32-.445.681-1.292 1.064v-.003Z"/><path fill="#000" d="M52.18 49.35a.394.394 0 0 1-.362-.234c-.007-.018-.784-1.758-1.517-2.67-.668-.828-1.755-.974-1.766-.977a.4.4 0 0 1-.343-.442.394.394 0 0 1 .438-.343c.058.008 1.412.183 2.283 1.266.8.992 1.595 2.769 1.627 2.845a.396.396 0 0 1-.36.555Z"/><path fill="#E7E7E7" fill-rule="evenodd" d="M33.867 61.953s3.491 3.513 12.68.025c8.31-3.155 11.772-8.608 13.048-11.377.216-.47.234-1.007.051-1.492a1.959 1.959 0 0 0-1.021-1.09c-2.801-1.252-9.05-3.105-17.393.021-9.203 3.447-9.506 8.39-9.506 8.39-.077 1.094 1.339 4.655 2.141 5.526v-.003Z" clip-rule="evenodd"/><path fill="#F80408" fill-rule="evenodd" d="M36.122 50.524s-2.149 1.19-2.634 2.101c-.482.912-1.67 2.962-1.67 2.962s-.355-2.218-1.486-2.546c-1.13-.328-3.36-.445-3.36-.445s-.729-.824-.189-1.448c.54-.627 4.25-2.327 4.845-2.393.594-.062 1.207.646 1.995.883s2.499.886 2.499.886Z" clip-rule="evenodd"/><path fill="#B80009" fill-rule="evenodd" d="M26.852 52.246s2.922-1.846 4.075-2.207c1.153-.361 1.397.04 1.923.332.525.288 2.133.905 2.133.905s-2.064 2.01-2.546 2.965a5.47 5.47 0 0 0-.54 1.894s-.528-2.233-1.145-2.718c-.616-.485-3.407-.416-3.896-1.171h-.004ZM34.389 62.8s.77 2.297.686 2.8c-.084.504-2.021 2.66-2.021 2.66s-.558 1.138.445 1.299c1.003.16 5.227-1.38 5.227-1.38s.803-.54 1.043-1.287c.238-.748.883-2.842 1.755-3.367 0 0-3.611.113-4.57-.204-.96-.317-2.561-.526-2.561-.526l-.004.004Z" clip-rule="evenodd"/><path fill="#ED1A24" fill-rule="evenodd" d="M55.991 47.066s-.726 1.375.154 3.305c.879 1.926 2.148 2.382 2.148 2.382s2.014-2.78 1.346-3.874c-.664-1.094-3.648-1.81-3.648-1.81v-.003Z" clip-rule="evenodd"/><path fill="#fff" fill-rule="evenodd" d="M55.63 48.562s-5.25-.566-11.695 1.357l.752-2.784s7.255-1.532 11.002-.084l-.059 1.514v-.003Z" clip-rule="evenodd"/><path fill="#FF6D74" fill-rule="evenodd" d="M59.35 49.514s-1.433-.785-3.264-.916l-.058-1.302s2.98.372 3.323 2.218Z" clip-rule="evenodd"/><path fill="#B9AEAC" fill-rule="evenodd" d="M34.608 52.104s2.947-.168 4.745 1.054c1.967 1.335 1.088 2.484 2.846 3.104 1.317.577 5.37-1.189 5.647-2.152.532-1.86-2.145-2.294-2.145-2.294s-7.635-3.666-11.09.284l-.003.004Z" clip-rule="evenodd"/><path fill="#BAAFAD" fill-rule="evenodd" d="M59.508 49.317s-3.973 5.344-10.003 8.153c-5.869 2.736-7.303 2.593-8.2 2.276-.941-.332-2.7-2.597-2.7-2.597s.056.879-.878 1.357c-.934.477-7.08 2.746-7.08 2.746s1.145 1.853 1.787 1.602c.642-.255 1.28-.77 1.28-.77s3.52 2.295 8.562 1.094c5.04-1.2 10.615-4.216 12.672-6.2 2.057-1.985 5.402-6.472 4.56-7.661Z" clip-rule="evenodd"/><path fill="#B80009" fill-rule="evenodd" d="M57.18 51.936c.602.631 1.113.813 1.113.813s.686-.948 1.127-1.955c.248-.645.307-1.17.091-1.477 0 0-.839 1.127-2.33 2.619Z" clip-rule="evenodd"/><path fill="#000" d="M39.186 63.923c-3.852 0-5.497-1.59-5.6-1.693l-.01-.01c-.85-.924-2.335-4.557-2.248-5.823.015-.208.427-5.234 9.762-8.733 8.386-3.14 14.682-1.353 17.692-.01a2.344 2.344 0 0 1 1.17 3.107c-1.367 2.966-4.905 8.412-13.266 11.582-3.105 1.178-5.578 1.576-7.5 1.576v.004Zm-5.034-2.247c.07.065.926.839 2.768 1.225 1.784.376 4.878.456 9.488-1.295 8.095-3.071 11.513-8.32 12.83-11.173a1.546 1.546 0 0 0-.777-2.057c-2.896-1.295-8.97-3.01-17.09.029-8.86 3.32-9.247 7.996-9.251 8.043-.066.945 1.277 4.396 2.032 5.228Z"/><path fill="#BAAFAD" fill-rule="evenodd" d="M31.358 62.055c.19.255.346.532.642.66a1.199 1.199 0 0 0 1.58-.627c.127-.292-.048-.562-.209-.84-.624-1.083-1.134-2.389-1.459-3.621-.08-.31-.12-.668-.416-.796a1.198 1.198 0 0 0-1.58.628c-.127.291-.05.605-.014.919.142 1.178.77 2.743 1.456 3.673v.004Z" clip-rule="evenodd"/><path fill="#E7E7E7" fill-rule="evenodd" d="M31.08 57.032s.248.978-.806 1.404c0 0-.328-.882-.018-1.189.31-.306.824-.215.824-.215Z" clip-rule="evenodd"/><path fill="#000" d="M32.474 63.208a1.61 1.61 0 0 1-.635-.132c-.346-.15-.543-.426-.715-.667l-.087-.12c-.737-.996-1.383-2.62-1.532-3.86-.008-.047-.011-.095-.019-.146-.04-.295-.087-.63.062-.977.168-.39.482-.694.88-.85.397-.157.831-.15 1.221.018.43.186.533.613.606.926l.033.132c.332 1.258.835 2.51 1.422 3.524l.03.047c.167.288.397.686.2 1.142a1.594 1.594 0 0 1-1.466.963Zm-1.456-6.078a.817.817 0 0 0-.744.489c-.062.146-.036.336-.004.558l.022.16c.132 1.102.726 2.598 1.38 3.484.032.044.065.088.094.132.128.182.24.34.387.401a.811.811 0 0 0 1.065-.42c.036-.087-.037-.222-.157-.433l-.03-.051c-.62-1.077-1.152-2.397-1.498-3.718a1.815 1.815 0 0 1-.037-.15c-.036-.156-.084-.353-.153-.382a.821.821 0 0 0-.321-.07h-.004ZM58.282 53.348a.399.399 0 0 1-.168-.037c-.058-.029-1.462-.711-2.316-2.706-.872-2.029-.281-3.623-.255-3.688a.392.392 0 0 1 .51-.227.393.393 0 0 1 .23.507c-.007.026-.492 1.387.245 3.097.733 1.708 1.922 2.302 1.933 2.306a.392.392 0 0 1 .182.525.387.387 0 0 1-.354.223h-.007Z"/><path fill="#52DEF3" fill-rule="evenodd" d="M52.216 54.639a2.632 2.632 0 0 0 1.623-3.352 2.632 2.632 0 0 0-3.352-1.624 2.632 2.632 0 0 0-1.624 3.353 2.632 2.632 0 0 0 3.353 1.623Z" clip-rule="evenodd"/><path fill="#42A8B5" fill-rule="evenodd" d="M51.73 54.53a1.472 1.472 0 1 0-.966-2.784 1.472 1.472 0 1 0 .967 2.784Z" clip-rule="evenodd"/><path fill="#fff" fill-rule="evenodd" d="M52.033 51.655a.802.802 0 1 0-.525-1.517.802.802 0 1 0 .525 1.517Z" clip-rule="evenodd"/><path fill="#000" d="M51.355 55.179a3.032 3.032 0 0 1-2.864-2.036 3.035 3.035 0 0 1 1.868-3.855 2.997 2.997 0 0 1 2.313.135c.73.353 1.277.966 1.54 1.732a2.995 2.995 0 0 1-.136 2.313 2.992 2.992 0 0 1-1.733 1.54 3.047 3.047 0 0 1-.992.167l.004.004Zm0-5.268a2.24 2.24 0 0 0-2.12 2.973 2.242 2.242 0 0 0 2.85 1.383 2.226 2.226 0 0 0 1.28-1.138 2.23 2.23 0 0 0 .102-1.711 2.226 2.226 0 0 0-1.138-1.28 2.24 2.24 0 0 0-.974-.227ZM31.697 56.5a.394.394 0 0 1-.39-.343c-.113-.858-.518-2.339-1.142-2.66-.23-.12-.938-.335-3.079-.445a1.212 1.212 0 0 1-1.09-.85 1.2 1.2 0 0 1 .426-1.313c1.423-1.076 3.2-1.853 4.436-2.313a2.487 2.487 0 0 1 2.218.252c1.783 1.171 3.257 1.211 3.272 1.211.219.004.39.182.386.401a.397.397 0 0 1-.397.39c-.07 0-1.704-.036-3.692-1.338a1.697 1.697 0 0 0-1.514-.171c-1.189.44-2.889 1.181-4.235 2.203a.415.415 0 0 0 .23.744c2.634.135 3.21.434 3.404.532 1.189.617 1.528 2.992 1.56 3.262a.394.394 0 0 1-.338.441H31.7l-.004-.004ZM33.608 70a1.204 1.204 0 0 1-.85-2.057c1.518-1.514 1.9-2.149 1.992-2.39.248-.656-.438-2.028-.93-2.74a.39.39 0 0 1 .102-.546.393.393 0 0 1 .547.098c.153.223 1.492 2.214 1.018 3.47-.077.2-.306.809-2.174 2.67a.413.413 0 0 0 .328.703c1.685-.142 3.444-.73 4.626-1.196a1.691 1.691 0 0 0 1.006-1.138c.606-2.302 1.799-3.422 1.85-3.466a.397.397 0 0 1 .558.022.397.397 0 0 1-.022.558c-.022.022-1.08 1.036-1.623 3.086a2.496 2.496 0 0 1-1.478 1.675c-1.229.485-3.071 1.098-4.847 1.247-.037 0-.07.004-.106.004h.003ZM33.743 62.16a.396.396 0 0 1-.39-.342.392.392 0 0 1 .34-.441c.058-.008 6.036-.825 11.763-3.66a2.704 2.704 0 0 1 2.2-.094c1.05.412 3.159 1 5.475.27a.396.396 0 0 1 .237.755c-2.55.803-4.855.164-6.004-.288a1.903 1.903 0 0 0-1.557.07c-5.848 2.892-11.95 3.724-12.009 3.73H33.743ZM31.872 57.379a.393.393 0 0 1-.223-.719c.052-.037 5.144-3.498 11.422-5.26a1.915 1.915 0 0 0 1.204-.992c.55-1.106 1.838-3.12 4.271-4.228a.394.394 0 1 1 .325.718c-2.21 1.007-3.385 2.853-3.892 3.863a2.698 2.698 0 0 1-1.7 1.401c-6.154 1.726-11.137 5.114-11.188 5.15a.39.39 0 0 1-.223.07l.004-.003Z"/><path fill="#F80408" fill-rule="evenodd" d="m30.471 58.958 6.727-2.459s1.043-.076 1.262.57c.219.645-.197 1.375-.197 1.375l-7.026 2.63s-1.393.726-1.769 0c-.372-.73-.463-1.576 1-2.112l.003-.004Z" clip-rule="evenodd"/><path fill="#B80009" fill-rule="evenodd" d="m36.603 56.926-6.519 2.495s-1.065.715-.736 1.303c.324.583 1.152.503 1.152.503l6.793-2.623s.5-1.054-.69-1.678Z" clip-rule="evenodd"/><path fill="#000" d="M30.289 61.741c-.577 0-1.117-.35-1.332-.919l-.007-.018a1.422 1.422 0 0 1 .828-1.831l7.318-2.758a1.422 1.422 0 0 1 1.83.828v.014a1.39 1.39 0 0 1-.028 1.095 1.41 1.41 0 0 1-.796.744l-7.317 2.758a1.42 1.42 0 0 1-.5.09l.004-.003Zm-.595-1.196a.633.633 0 0 0 .817.368l7.318-2.757a.632.632 0 0 0 .368-.818l-.007-.022a.633.633 0 0 0-.813-.364l-7.318 2.758a.636.636 0 0 0-.369.817l.008.018h-.004Z"/><path fill="#444" fill-rule="evenodd" d="M47.426 53.1s-.047-1.135-1.444-1.263c-1.398-.127-2.065.248-2.51.927-.445.678-1.244 1.244-1.375 1.295-.128.051.649 1.167.649 1.167s1.762-.569 2.528-.871c.766-.303 2.148-1.252 2.148-1.252l.004-.003Z" clip-rule="evenodd"/><path fill="#394246" fill-rule="evenodd" d="M34.838 47.675s.302 1.915 1.725 2.623c1.423.708 3.298 1.018 3.852 1.572.558.555 1.598 1.73 1.598 1.73s.831-.65 1.561-1.212c.73-.558 2.229-.799 2.229-.799s-.905-1.999-1.777-2.83c-.871-.832-.477-1.168.292-1.558.774-.39-2.017-3.05-2.017-3.05l-7.463 3.52v.004Z" clip-rule="evenodd"/><path fill="#282E31" fill-rule="evenodd" d="M35.771 49.16s1.897.449 3.583-.277c1.688-.73 2.838-.7 3.779-.278 0 0-1.12-.123-1.448 1.255-.332 1.383-.183 1.704-.777 2.313l1.265 1.736s.993-.846 1.503-1.543c.518-.704 2.058-.93 2.058-.93s-.657-1.247-1.11-1.999c-.452-.755-1.302-1.306-1.302-1.306l.836-1.01-2.167-1.375s-1.302 1.765-3.133 2.25c-1.835.49-3.641.369-3.641.369l.558.799-.004-.004Z" clip-rule="evenodd"/><path fill="#000" d="M43.02 55.599c-.507 0-.985-.303-1.186-.803a14.693 14.693 0 0 0-.875-1.78c-.438-.752-1.157-1.014-2.244-1.416a20.389 20.389 0 0 1-2.105-.871c-2.37-1.171-2.407-4.035-2.41-4.155 0-.22.174-.394.393-.398.22 0 .394.175.394.394 0 .033.044 2.502 1.97 3.45.766.377 1.437.625 2.028.84 1.157.423 2.072.759 2.652 1.758.135.23.266.47.39.719.646-.285.8-.518.967-.78.193-.296.412-.636 1.105-.997.993-.521 2.043-.467 3.032.157a1.356 1.356 0 0 1-.102 2.357c-1.303.623-2.806 1.178-3.586 1.451a1.276 1.276 0 0 1-.43.077l.007-.003Zm-.646-1.55c.066.145.131.295.193.448a.491.491 0 0 0 .62.284c.767-.27 2.233-.81 3.499-1.415a.571.571 0 0 0 .299-.478.576.576 0 0 0-.267-.503c-.75-.474-1.506-.518-2.243-.128-.51.27-.65.482-.81.73-.208.32-.441.682-1.291 1.065v-.004Z"/><path fill="#000" d="M45.73 51.863a.39.39 0 0 1-.365-.244c-.007-.019-.737-1.784-1.565-2.561-.817-.766-1.732-1.003-1.74-1.007a.395.395 0 0 1 .19-.766c.044.011 1.116.285 2.09 1.196.956.894 1.726 2.758 1.758 2.838a.395.395 0 0 1-.364.544h-.004Z"/><path fill="#000" d="M43.279 48.522a.396.396 0 0 1-.025-.791c.017 0 1.83-.143 3.227-1.796a.398.398 0 0 1 .558-.047c.168.142.187.39.048.558-1.623 1.922-3.695 2.068-3.783 2.072h-.025v.004Z"/><path fill="#394246" fill-rule="evenodd" d="M50.315 34.558s-.204 1.689.442 2.564c.649.876 1.382 1.5 1.382 1.5l-2.973 1.74-.755 4.65s-2.666-1.236-2.995-1.79c-.328-.555.675-6.91.675-6.91l4.224-1.754Z" clip-rule="evenodd"/><path fill="#282E31" fill-rule="evenodd" d="M49.874 35.003s-.361 1.776-1.616 3.71a.187.187 0 0 0 .018.226c.058.062.15.076.223.033l2.48-1.412.843 1.134-2.576 1.748-.718 4.614-3.422-2.254s.704-3.805.682-5.417l4.086-2.382Z" clip-rule="evenodd"/><path fill="#FED6B5" fill-rule="evenodd" d="m57.246 30.545-4.837 2.81s-.963 1.035-.299 2.461c.664 1.43 3.028 1.697 3.91 1.084.883-.613 1.317-2.379 1.16-2.951-.156-.573-.565-1.102-.565-1.102s1.514-1.492.631-2.305v.003Z" clip-rule="evenodd"/><path fill="#FD987F" fill-rule="evenodd" d="M52.249 35.543s1.12.193 1.805-.496a.417.417 0 0 1 .372-.117c.416.073 1.262.197 1.5.022 0 0-.3-.617-.602-.733a4.684 4.684 0 0 1-.372-.172.5.5 0 0 1-.117-.828c.762-.642 2.075-1.762 2.451-2.181 0 0 .3.35.132.645-.172.292-1.022 1.339-1.022 1.339s.854 1.062.595 2.43c-.26 1.367-.97 1.743-1.886 1.947-.912.208-3.064-.547-2.856-1.856Z" clip-rule="evenodd"/><path fill="#fff" fill-rule="evenodd" d="M51.833 33.825s-.504 1.145.273 2.24c.774 1.097 1.715 1.59 1.715 1.59l-1.74.956s-1.244-.599-1.67-1.678c-.431-1.084-.34-2.368-.34-2.368l1.762-.74Z" clip-rule="evenodd"/><path fill="#ACC2CF" fill-rule="evenodd" d="M51.078 37.593c.653-.376 1.327-.631 1.43-1.12l1.284 1.277-1.657.948-1.057-1.105ZM39.489 37.976s3.232 4.18 5.176 5.621c0 0 1.733-2.276 1.003-6.745l-6.18 1.124Z" clip-rule="evenodd"/><path fill="#000" d="M44.665 43.991a.397.397 0 0 1-.234-.077c-1.966-1.455-5.121-5.522-5.252-5.697a.392.392 0 0 1-.055-.383.4.4 0 0 1 .299-.248l6.18-1.124a.399.399 0 0 1 .298.066.38.38 0 0 1 .16.259c.749 4.581-1.002 6.945-1.075 7.044a.39.39 0 0 1-.314.156l-.007.004Zm-4.461-5.745c.853 1.069 2.885 3.538 4.355 4.764.398-.74 1.186-2.66.777-5.698l-5.132.93v.004Z"/><path fill="#B80009" fill-rule="evenodd" d="M41.13 38.414s1.973 1.006 2.783.992c.81-.015 1.525-.47 1.525-.47l.215-1.387-4.523.865Z" clip-rule="evenodd"/><path fill="#000" d="M45.059 39.54a.395.395 0 0 1-.383-.496c0-.007.237-.897.248-1.484 0-.219.182-.387.401-.387.219 0 .39.183.39.401-.01.686-.262 1.638-.273 1.678a.396.396 0 0 1-.38.292l-.003-.003Z"/><path fill="#000" d="M44.763 44.017a.395.395 0 0 1-.212-.726c1.102-.704 2.376-1.609 2.62-1.92-.026-.236-.208-.729-.387-1.09a.395.395 0 0 1 .07-.445c.331-.346.656-.744.78-.94-.233-.267-.956-.87-1.587-1.34a.392.392 0 0 1-.08-.55.392.392 0 0 1 .55-.08c1.956 1.458 1.949 1.765 1.945 1.947 0 .11-.007.387-.853 1.31.146.335.364.904.35 1.28-.008.197-.022.602-2.984 2.492a.407.407 0 0 1-.212.062ZM54.448 37.786c-1.105 0-2.16-.631-2.692-1.725a3.167 3.167 0 0 1-.277-1.86c-2.145 1.221-3.918 2.173-3.95 2.192a.395.395 0 0 1-.533-.16.396.396 0 0 1 .16-.533c.059-.033 5.833-3.134 9.149-5.326a1.115 1.115 0 0 1 1.397.058c.398.35.493.934.226 1.394-.27.463-.605.86-.996 1.185.12.204.201.394.223.452a3.026 3.026 0 0 1-1.404 4.028 2.933 2.933 0 0 1-1.303.302v-.007Zm-1.999-4.148c-.116.26-.438 1.142.015 2.076.547 1.127 1.842 1.594 2.94 1.058a2.236 2.236 0 0 0 1.032-2.988c-.003-.01-.01-.021-.014-.032 0 0-.095-.241-.234-.445a.594.594 0 0 1 .124-.829c.365-.277.679-.634.927-1.061a.322.322 0 0 0-.066-.401.324.324 0 0 0-.408-.015c-.008.004-.015.011-.022.015-1.233.817-2.805 1.758-4.297 2.623h.003Zm-.12.07h-.004c.018-.008.033-.018.048-.026 0 0-.004 0-.008.004l-.036.022Z"/><path fill="#000" d="M53.314 36.608c-1.193 0-1.682-.744-1.777-1.153a.393.393 0 0 1 .3-.47.393.393 0 0 1 .47.299c.015.054.19.587 1.13.536.46-.026.705-.277.712-.288a.404.404 0 0 1 .372-.117c.245.051.489.073.73.058a.425.425 0 0 0 .401-.36.433.433 0 0 0-.27-.468 3.105 3.105 0 0 0-.613-.175.397.397 0 0 1 .113-.784c.015 0 .35.051.785.219.532.204.853.762.766 1.324a1.22 1.22 0 0 1-1.138 1.025c-.245.015-.493 0-.737-.036a1.95 1.95 0 0 1-1.076.386c-.059 0-.114.004-.168.004ZM48.305 45.443h-.047a.395.395 0 0 1-.343-.441c.022-.168.518-4.148 1.105-5.84a.4.4 0 0 1 .504-.245c.204.07.313.295.244.503-.562 1.616-1.061 5.64-1.065 5.68a.396.396 0 0 1-.39.346l-.008-.003Z"/><path fill="#000" d="M49.075 40.905a.396.396 0 0 1-.204-.733l5.063-3.075a.396.396 0 0 1 .412.675l-5.063 3.075a.378.378 0 0 1-.204.058h-.004Z"/><path fill="#000" d="M52.132 39.012a.392.392 0 0 1-.179-.044c-.044-.022-1.083-.57-1.78-1.915a4.129 4.129 0 0 1-.358-2.678.395.395 0 0 1 .767.19c-.004.022-.248 1.087.291 2.127.577 1.112 1.438 1.572 1.445 1.576a.393.393 0 0 1-.182.744h-.004Z"/><path fill="#fff" fill-rule="evenodd" d="m43.647 46.745 1.124.697 2.268-2.958-1.006-.694s-2.072.694-2.386 2.955Z" clip-rule="evenodd"/><path fill="#FED6B5" fill-rule="evenodd" d="M47.609 44.655s-2.353 2.141-2.251 3.159c.098 1.018 1.693 2.703 2.78 1.412 1.087-1.292 1.477-2.882 1.98-3.046.504-.16.599-.573-.113-.92-.711-.346-2.218-.496-2.393-.609l-.003.004Z" clip-rule="evenodd"/><path fill="#FFF6EF" fill-rule="evenodd" d="M46.97 45.48s.846.725 1.562.426c.71-.299 1.48-.168 1.732.004 0 0-.317-.657-1.043-.795-.726-.143-1.744-.467-1.744-.467l-.507.835v-.004Z" clip-rule="evenodd"/><path fill="#FD987F" fill-rule="evenodd" d="M46.547 46.245s-.087 1.864.777 1.905c.865.04 1.109-2.616 3.028-2.357 0 0-.901.97-1.237 1.992-.34 1.021-1.434 2.2-2.619 1.7-1.186-.5-1.15-1.38-1.069-2.058.08-.678 1.124-1.181 1.124-1.181h-.004Z" clip-rule="evenodd"/><path fill="#394246" fill-rule="evenodd" d="M45.985 43.63s-1.732 1.44-2.356 3.17l-1.762-.825s-2.236 1.839-4.63 2.35c-2.392.507-4.107-.723-4.201-1.573-.095-.85 1.867-1.915 1.867-1.915s1.186-4.859 3.984-5.213c2.797-.353 4.702 2.054 4.702 2.054l2.393 1.952h.003Z" clip-rule="evenodd"/><path fill="#6E7070" fill-rule="evenodd" d="M42.545 41.452s.183 1.299 2.605 2.893l.777-.803-3.385-2.09h.003Z" clip-rule="evenodd"/><path fill="#ACC2CF" fill-rule="evenodd" d="m44.479 45.17 1.353.922-.755 1.718-1.507-.97.909-1.67Z" clip-rule="evenodd"/><path fill="#282E31" fill-rule="evenodd" d="M37.165 48.044s1.127-.482 1.875-1.747c.58-.985.434-1.941.434-1.941l2.473 1.463s-1.587 1.94-4.782 2.225ZM35.739 43.834s1.736-2.243 3.44-2.309c1.703-.066 2.776.5 3.826.051 0 0-2.842-3.542-5.15-1.583-2.31 1.962-2.116 3.837-2.116 3.837v.004Z" clip-rule="evenodd"/><path fill="#282E31" fill-rule="evenodd" d="m39.915 44.41-.291-.204a.485.485 0 0 1-.187-.532.485.485 0 0 1 .446-.343c.893-.022 2.32.266 4.311 1.627l-.722 2.134-3.557-2.681Z" clip-rule="evenodd"/><path fill="#000" d="M45.168 48.354a.374.374 0 0 1-.215-.066l-5.355-3.52a.395.395 0 1 1 .434-.66l4.947 3.254c.4-.982.904-1.843 1.794-2.678-1.74-1.408-5.479-4.304-6.712-4.655-1.295-.368-3.104.49-3.768 2.517-.73 2.233-1.211 3.39-1.233 3.437a.393.393 0 1 1-.726-.303c.004-.011.489-1.178 1.211-3.378.821-2.506 3.05-3.51 4.735-3.031 1.755.5 7.128 4.91 7.358 5.096a.388.388 0 0 1 .142.303c0 .116-.051.23-.142.302-1.138.956-1.645 1.904-2.094 3.126a.383.383 0 0 1-.248.238.355.355 0 0 1-.124.021l-.004-.003Z"/><path fill="#000" d="M43.621 47.336a.37.37 0 0 1-.123-.022.395.395 0 0 1-.252-.5c.923-2.794 2.586-3.538 2.655-3.57.201-.088.43.003.518.203.088.201-.003.43-.204.518-.025.011-1.419.672-2.221 3.094a.39.39 0 0 1-.376.27l.003.007ZM47.149 50.032c-.27 0-.54-.051-.803-.153a2.146 2.146 0 0 1-1.335-2.31c.07-.495.237-.82.256-.857a.394.394 0 0 1 .7.361c-.003.008-.124.249-.175.606a1.367 1.367 0 0 0 2.47.985c.109-.153.204-.317.273-.485.423-.985.952-1.992 1.711-2.375-.255-.24-.693-.485-1.386-.398a2.32 2.32 0 0 1-1.255-.197c-.208-.094-.398-.182-.398-.182a.397.397 0 0 1 .332-.718l.394.178c.263.12.547.164.828.131 1.467-.19 2.277.737 2.5 1.255a.4.4 0 0 1-.03.369.405.405 0 0 1-.325.182c-.521.011-1.047.664-1.645 2.061-.095.22-.215.43-.357.631a2.14 2.14 0 0 1-1.755.912v.004ZM36.676 48.803c-1.718 0-3.356-.675-3.808-1.773-.562-1.361 1.058-2.466 2.1-2.904a.395.395 0 1 1 .306.73c-.032.014-2.074.911-1.677 1.875.434 1.05 3.013 1.718 4.965.94 2.072-.824 2.882-2.013 2.893-2.024a.397.397 0 0 1 .547-.11c.182.121.233.366.113.544-.037.059-.938 1.401-3.258 2.324a5.971 5.971 0 0 1-2.177.398h-.004Z"/><path fill="#FED6B5" fill-rule="evenodd" d="M29.625 27.634c-.018-5.72 4.815-10.086 10.622-10.502 6.205-.441 11.392 3.706 11.808 9.535.416 5.826-2.29 9.985-8.674 11.243-5.11 1.007-10.692-1.408-12.844-6.088a.542.542 0 0 0-.328-.292.528.528 0 0 0-.438.051 2.252 2.252 0 1 1-.146-3.947Z" clip-rule="evenodd"/><path fill="#FFF6EF" fill-rule="evenodd" d="M46.77 18.985s3.352 3.156 3.636 9.08c.267 5.508-3.863 8.521-7.343 9.444 0 0 6.402-.03 8.321-5.957 1.984-6.132-1.44-12.286-4.618-12.567h.004Z" clip-rule="evenodd"/><path fill="#FD987F" fill-rule="evenodd" d="M47.419 19.098s-1.612 2.247-4.691 2.674c-3.079.427-7.49-.737-7.61 2.379-.12 3.115 6.355 4.662 6.749 3.633.394-1.029.941-3.104.941-3.104s2.656-1.099 3.714-.668l5.73 2.91-.124 2.018s-1.182.854-3.987.489c0 0-1.364-.226-2.12-1.36-.758-1.142-1.126-1.372-1.553-1.307-.496.077-.733.354-.799.74-.066.388-.441 2.146-3.21 3.248-2.743 1.09-4.042.419-4.487 1.32-.412.835.288 2.761 2.798 4.148 2.524 1.393 5.723 1.087 5.723 1.087s-3.564 1.284-5.716.81c-2.152-.475-5.479-2.59-6.43-3.52-.953-.93-1.923-3.101-1.923-3.101s-1.974.908-3.017-.062-1.087-1.642-.595-2.904c.49-1.262 2.565-.726 3.386-.212.82.515 1.101.321 1.316-.182.216-.503.427-3.626.427-3.626s1.084-2.925 3.68-3.389c2.594-.463 6.403-.138 8.18-.893 1.776-.755 3.622-1.131 3.622-1.131l-.004.003Z" clip-rule="evenodd"/><path fill="#F9C612" fill-rule="evenodd" d="m47.182 18.482 3.487 3.45s1.08-1.593.226-3.18c-.85-1.587-2.557-1.55-2.557-1.55l-1.16 1.276.004.004Z" clip-rule="evenodd"/><path fill="#FFF4CE" fill-rule="evenodd" d="M48.094 18.044s1.149.525 1.638 1.135c.488.609.354 1.871.354 1.871l1.076.744s.313-1.951-.321-3.18c-.632-1.23-2.372-1.639-2.372-1.639l-.375 1.066v.003Z" clip-rule="evenodd"/><path fill="#000" d="M41.046 38.53c-1.838 0-3.68-.397-5.362-1.174-2.484-1.146-4.44-3.054-5.505-5.37a.142.142 0 0 0-.09-.08.144.144 0 0 0-.118.014 2.628 2.628 0 0 1-1.813.332 2.637 2.637 0 0 1-1.707-1.087 2.625 2.625 0 0 1-.438-1.977 2.637 2.637 0 0 1 1.088-1.707 2.625 2.625 0 0 1 2.148-.401c.135-2.623 1.27-5.078 3.236-6.968 2.039-1.962 4.79-3.159 7.74-3.37 3.108-.223 6.074.667 8.35 2.502a10.338 10.338 0 0 1 3.878 7.398c.219 3.071-.409 5.629-1.864 7.598-1.525 2.061-3.922 3.43-7.128 4.06-.791.157-1.601.234-2.411.234l-.004-.004Zm-10.998-7.42a.944.944 0 0 1 .854.547c1.995 4.345 7.328 6.866 12.406 5.863 5.891-1.16 8.78-4.907 8.357-10.827a9.575 9.575 0 0 0-3.586-6.84c-2.123-1.71-4.892-2.535-7.799-2.33-5.866.419-10.276 4.764-10.258 10.108 0 .138-.069.262-.185.335a.388.388 0 0 1-.384.018 1.861 1.861 0 0 0-2.36 2.729 1.86 1.86 0 0 0 2.474.532.934.934 0 0 1 .477-.13l.004-.004Z"/><path fill="#F9C612" fill-rule="evenodd" d="M31.85 24.26s1.153-2.718 3.18-3.155c2.03-.438 6.87-.011 8.646-.76 1.777-.743 5.166-2.075 4.772-4.49-.39-2.414-3.579-4.41-7.544-4.227-3.969.182-5.6-1.007-5.6-1.007l.92 2.2s-1.81.291-3.378.364c-1.569.073-5.311-.12-5.311-.12l1.55 2.178s-1.364.598-2.284.448c-.919-.15-2.064-.412-2.064-.412l2.82 3.765s-2.434.554-4.301 2.808c0 0 2.418.43 4.114.606 1.697.179 4.947-.27 4.947-.27l-.467 2.076v-.004Z" clip-rule="evenodd"/><path fill="#FFF4CE" fill-rule="evenodd" d="M35.618 11.113s.602.832 3.695 1.182c3.283.044 6.6.719 7.683 2.645 1.083 1.933-.059 3.607-.059 3.607s1.901-1.645 1.35-3.512c-.55-1.868-3.691-3.002-6.832-3.39a94.207 94.207 0 0 0-5.84-.528l.003-.004Z" clip-rule="evenodd"/><path fill="#FFF4CE" fill-rule="evenodd" d="M43.79 16.03s-3.116-1.878-9.467-1.882c-4.363-.047-5.326-.047-6.719-.864 0 0 2.933 0 4.403-.234 1.47-.233 9.083-.463 11.786 2.98h-.004ZM34.604 17.008s-2.827-.507-4.724-.3c-2.115.234-3.567-.218-4.702-.89 0 0 1.156-.218 2.386-.331 1.23-.113 5.906.095 7.04 1.517v.004Z" clip-rule="evenodd"/><path fill="#F78B0E" fill-rule="evenodd" d="M23.5 21.718s1.853-.927 4.553-.577c2.579.336 4.837-.791 6.318-1.5 1.48-.707 2.652-1.33 2.652-1.33s-1.605-1.78-3.24-2.142c-1.634-.361-3.983-.594-4.512-.824-.529-.23-1.685-2.412-1.685-2.412s.532 1.24 3.63 1.606c1.805.211 3.614.492 5.38.937 1.116.285 1.977.886 2.907 1.532 1.076.744 3.207.777 4.25-.066.47-.379.102-1.218-.463-1.674-.256-.204-.704-.317-.996-.481-.551-.307-1.09-.577-1.697-.76a20.311 20.311 0 0 0-4.14-.78l-1.069-2.542s.635 1.244 2.306 1.714c1.773.496 5.749.248 8.018 3.539 2.32 3.363-.329 3.936-.329 3.936s-3.071.81-4.957.773c-1.89-.037-4.002.033-4.92.354-.92.32-1.602.222-2.386 1.24-.781 1.014-1.124 2.47-1.28 3.29-.154.817.05 2.638-.559 2.933-.61.296-.817-.098-1.364-.343-.544-.244-1.193-.638-2.244-.507l-1.017-.324s.003-1.441.623-1.974h-1.616s.245-2.046 1.664-2.681l1.116-.044s-.854-.448-1.82-.536c-.967-.088-3.4.091-3.4.091l.28-.438-.003-.01Z" clip-rule="evenodd"/><path fill="#F78B0E" fill-rule="evenodd" d="M25.193 15.59s1.368 1.896 4.705 2.593a.42.42 0 0 1 .04.814 7.034 7.034 0 0 1-1.966.364s-1.185-.766-1.758-1.372c-.572-.605-1.025-2.404-1.025-2.404l.004.004Z" clip-rule="evenodd"/><path fill="#000" d="M29.06 30.366a.39.39 0 0 1-.318-.16c-.073-.095-.28-.3-.449-.303-.014 0-.032 0-.047-.003-.146-.022-.223.05-.223.05a.398.398 0 0 1-.554.073.398.398 0 0 1-.073-.554 1.02 1.02 0 0 1 .934-.354c.584.026.996.558 1.043.62a.391.391 0 0 1-.317.628l.003.003ZM29.57 22.976a7.02 7.02 0 0 1-1.448-.153c-3.51-.748-4.88-.3-4.892-.296a.4.4 0 0 1-.423-.11.39.39 0 0 1-.062-.43c.952-1.988 2.845-2.717 4.06-2.98-1.86-1.426-2.513-3.626-2.543-3.732a.4.4 0 0 1 .136-.42.398.398 0 0 1 .44-.028c.646.376 1.828.343 3.2.31 1.707-.044 3.83-.099 5.84.634 3.345 1.215 5.1 3.94 5.44 4.513 2.45.04 5.102-.106 7.43-1.766a2.972 2.972 0 0 0 1.247-2.568c-.16-3.578-5.84-3.921-6.49-3.95-4.074-.175-4.982-.43-5.785-.861.124.532.38 1.236.901 1.71.16.146.172.398.026.559a.397.397 0 0 1-.558.025c-1.19-1.087-1.27-2.944-1.273-3.024a.4.4 0 0 1 .186-.35.397.397 0 0 1 .397-.01c.135.072.26.145.372.21.843.49 1.306.76 5.764.95 3.25.138 7.099 1.45 7.245 4.701a3.767 3.767 0 0 1-1.58 3.247c-2.885 2.057-6.117 1.966-8.974 1.886-1.721-.044-3.162.477-4.556.988-1.284.47-2.604.952-4.1.952v-.007Zm-4.98-1.375c.847 0 2.055.102 3.696.452 1.9.405 3.462-.164 5.11-.766 1.463-.533 2.977-1.087 4.849-1.036h.105c-.638-.912-2.214-2.827-4.75-3.75-1.867-.678-3.822-.631-5.547-.587-1.04.025-1.977.05-2.736-.102.412.886 1.273 2.32 2.783 3.078a.394.394 0 0 1-.168.748c-.029 0-2.64.099-4.06 1.988.2-.014.438-.025.715-.025h.004Z"/><path fill="#000" d="M44.355 20.528a.395.395 0 0 1-.19-.74c.022-.011.715-.412.839-1.153.106-.627-.204-1.35-.923-2.145-2.105-2.338-6.88-3.075-10.648-2.984-.802.018-1.459.051-2.039.077-1.506.07-2.393.113-3.396-.164.42.638 1.05 1.426 1.77 1.718.2.08.298.314.218.514-.08.2-.314.3-.514.22-1.562-.636-2.667-2.927-2.714-3.025a.392.392 0 0 1 .514-.529c1.364.61 2.16.573 4.082.482.584-.03 1.247-.059 2.057-.077 1.915-.047 8.38.051 11.254 3.247.89.988 1.262 1.937 1.112 2.816-.197 1.13-1.193 1.681-1.236 1.707a.382.382 0 0 1-.186.047v-.01ZM30.77 29.13c-.317 0-.627-.12-.86-.343a6.052 6.052 0 0 0-.65-.54c-.368-.266-1.047-.361-1.904-.263a1.072 1.072 0 0 1-.93-.354c-.234-.266-.321-.627-.234-.97.088-.343.215-.653.38-.93l-.482.08a.845.845 0 0 1-.788-.299.845.845 0 0 1-.135-.831c.26-.675.595-1.2.989-1.566.908-.828 1.999-.871 2.725-.897.175-.007.328-.01.438-.029a.395.395 0 0 1 .116.78c-.15.023-.32.03-.521.037-.646.026-1.529.059-2.222.693-.38.347-.638.88-.784 1.266-.008.015 0 .037.007.047.011.015.03.022.047.019l1.598-.263a.395.395 0 0 1 .288.715c-.434.3-.736.762-.893 1.375a.277.277 0 0 0 .306.343c1.087-.124 1.915.011 2.459.405.24.175.489.38.733.61a.46.46 0 0 0 .452.109.461.461 0 0 0 .314-.343c.204-.93.296-1.759.274-2.463-.059-1.893.879-3.414 2.787-4.512a.395.395 0 1 1 .393.686c-1.66.956-2.444 2.203-2.392 3.805.025.766-.073 1.66-.292 2.655a1.244 1.244 0 0 1-1.219.981v-.003ZM51.045 22.994a.378.378 0 0 1-.11-.014.4.4 0 0 1-.27-.49c.008-.021.606-2.155-.113-3.563-.77-1.51-2.243-1.492-2.254-1.492a.397.397 0 0 1-.405-.383.398.398 0 0 1 .387-.405c.08-.004 1.984-.025 2.976 1.922.861 1.69.194 4.042.168 4.14a.397.397 0 0 1-.38.285Z"/><path fill="#000" fill-rule="evenodd" d="m32.9 25.252-5.72 1.69a.799.799 0 0 0-.54.991c1.825-.915 2.16.19 2.58.062l4.13-1.214a.799.799 0 0 0-.453-1.532l.004.003ZM43.13 25.445s.696-.733 1.542-.82c.69-.07 1.102.42 1.102.42a.795.795 0 1 0 1.237-1.003s-.93-1.165-2.503-1c-1.368.142-2.517 1.287-2.517 1.287a.796.796 0 1 0 1.138 1.116Z" clip-rule="evenodd"/><path fill="#000" fill-rule="evenodd" d="M47.966 22.247s-1.828-.066-1.663 1.586c.164 1.653.736 3.707 2.462 3.998 1.729.292 3.476-.28 3.892-1.152.416-.876.533-3.6.296-4.086-.238-.489-4.987-.343-4.987-.343v-.003ZM32.266 25.106s.726 3.47 2.608 4.473c1.882 1.003 5.815-.139 6.978-1.284 1.164-1.146.427-4.174.427-4.174s-.007-1.035-1.554-1.057c-2.017-.033-5.227.4-8.46 2.046v-.004Z" clip-rule="evenodd"/><path fill="#000" d="M36.778 30.36c-.788 0-1.517-.129-2.09-.435-1.59-.846-2.397-3.2-2.685-4.239-.065.037-.135.073-.2.11a.394.394 0 0 1-.387-.686c.219-.12.438-.237.664-.35l.022-.011c2.958-1.474 6.475-2.112 8.63-2.083 1.478.022 1.908.897 1.941 1.4.113.479.7 3.284-.543 4.51-.945.933-3.33 1.783-5.352 1.783Zm-4.053-5.038c.22.831.942 3.166 2.335 3.906 1.667.887 5.435-.153 6.515-1.218.82-.81.51-3.017.321-3.801a.368.368 0 0 1-.01-.091c0-.059-.067-.65-1.165-.668-1.677-.025-5.03.463-7.992 1.868l-.004.003Z"/><path fill="#fff" fill-rule="evenodd" d="M39.27 23.695a1.012 1.012 0 0 0-.42 1.838 5.35 5.35 0 0 0 2.014.817.939.939 0 0 0 .802-.23.944.944 0 0 0 .3-.78 9.12 9.12 0 0 0-.14-.93 1.061 1.061 0 0 0-1.13-.836c-.409.03-.92.07-1.423.117l-.003.004Z" clip-rule="evenodd"/><path fill="#000" d="M49.82 28.524c-.763 0-1.511-.11-2.073-.291-1.878-.62-2.178-4.568-2.181-4.608-.059-1.276.664-1.718 3.37-2.046 1.813-.219 3.214.095 4.024.368.07.004.139.03.193.07.358.13.558.244.584.255a.395.395 0 0 1-.31.722c.153 1.178.317 3.422-.423 4.45-.555.77-1.89 1.077-3.181 1.077l-.004.003Zm.31-6.227c-.344 0-.712.019-1.102.066-2.718.329-2.7.704-2.678 1.226.047.97.602 3.55 1.642 3.892 1.386.456 3.797.295 4.366-.496.61-.846.394-3.214.219-4.326a8.217 8.217 0 0 0-2.451-.361h.003Z"/><path fill="#fff" fill-rule="evenodd" d="M50.932 22.44c-.43.01-.81.291-.941.704-.132.412.014.86.36 1.12.38.284.85.547 1.416.736a.932.932 0 0 0 1.226-.886c0-.215-.008-.441-.026-.671a1.06 1.06 0 0 0-1.036-.97c-.295-.011-.645-.022-1-.03v-.003Z" clip-rule="evenodd"/><path fill="#000" d="M42.699 32.595a.479.479 0 0 1-.306-.846c.036-.03.871-.715 1.82-.927 1.189-.262 2.155-.08 2.195-.073a.476.476 0 1 1-.186.934c-.007 0-.82-.15-1.805.066-.723.16-1.412.722-1.42.73a.476.476 0 0 1-.302.109l.004.007Z"/><path fill="#F80408" fill-rule="evenodd" d="m44.96 39.143-1.32.255s-.675.18-2.893-.89c-2.116-1.021-3.746-1.853-6.85-.915a.886.886 0 0 0-.588.572c-.208.632-.602 1.824-.853 2.594a.698.698 0 0 0 .5.897c.652.157 1.594.383 2.174.526a.864.864 0 0 0 .853-.27c.631-.708 2.16-2.05 4.239-1.485 2.95.803 4.33.795 4.735-1.28l.003-.004Z" clip-rule="evenodd"/><path fill="#B80009" fill-rule="evenodd" d="M35.345 37.312s3.425 1.258 4.884 3.05c0 0 1.372.707 2.612.583s1.853-1.568 1.853-1.568-.876.466-2.222-.059c-1.346-.529-3.855-2.17-7.127-2.006Z" clip-rule="evenodd"/><path fill="#000" d="M35.334 42.594c-.099 0-.197-.011-.296-.037l-2.174-.525a1.088 1.088 0 0 1-.78-1.4c.207-.639.517-1.573.733-2.23l.12-.36c.131-.398.445-.705.846-.825 3.196-.967 4.972-.11 7.026.886l.11.055c1.824.883 2.531.868 2.63.861H43.563l1.32-.255a.387.387 0 0 1 .355.11.407.407 0 0 1 .109.353c-.168.857-.503 1.434-1.032 1.762-.898.558-2.27.346-4.195-.179-1.835-.5-3.196.642-3.841 1.364a1.26 1.26 0 0 1-.945.427v-.007Zm1.061-5.02c-.697 0-1.474.117-2.39.394a.495.495 0 0 0-.324.318l-.12.36c-.219.661-.525 1.591-.733 2.23a.307.307 0 0 0 .022.24c.04.073.113.128.193.146l2.174.526c.172.04.35-.015.467-.146.62-.697 2.309-2.24 4.64-1.605 1.67.456 2.915.675 3.568.27.218-.135.386-.35.51-.657l-.69.135c-.185.04-1.006.113-3.144-.92l-.11-.054c-1.41-.682-2.552-1.233-4.063-1.233v-.004ZM77.302 49.682c5.096 0 8.065-2.419 8.065-6.235v-.014c0-2.995-1.882-4.607-5.836-5.326l-1.857-.332c-1.842-.332-2.638-.73-2.638-1.561v-.015c0-.846.767-1.499 2.266-1.499 1.5 0 2.56.638 2.663 1.652l.014.128h4.99l-.014-.28c-.153-3.455-2.78-5.659-7.719-5.659-4.377 0-7.576 2.342-7.576 6.056v.014c0 2.868 2.01 4.724 5.683 5.377l1.857.332c2.05.372 2.79.73 2.79 1.602v.014c0 .923-1 1.587-2.622 1.587-1.536 0-2.791-.664-3.01-1.663l-.026-.117h-4.99l.015.244c.193 3.648 3.162 5.698 7.948 5.698l-.003-.003ZM96.278 49.35h5.428V35.18h4.862v-4.3H91.415v4.3h4.863V49.35ZM121.619 30.545c-5.698 0-9.294 3.663-9.294 9.55v.026c0 5.902 3.571 9.56 9.294 9.56 5.724 0 9.317-3.673 9.317-9.56v-.026c0-5.877-3.582-9.55-9.317-9.55Zm3.787 9.576c0 3.148-1.445 5.132-3.787 5.132-2.342 0-3.764-1.944-3.764-5.132v-.026c0-3.188 1.499-5.121 3.764-5.121 2.265 0 3.787 1.948 3.787 5.121v.026ZM138.29 49.35h5.428v-9.601h.091l6.577 9.6h4.468V30.882h-5.427v9.444h-.088l-6.53-9.444h-4.519V49.35ZM162.657 49.35h5.428v-4.837l1.448-1.96 4.031 6.797h6.311l-6.362-10.28 6.081-8.19h-5.698l-5.709 7.833h-.102V30.88h-5.428V49.35ZM193.605 49.682c5.096 0 8.066-2.419 8.066-6.235v-.014c0-2.995-1.883-4.607-5.837-5.326l-1.857-.332c-1.842-.332-2.637-.73-2.637-1.561v-.015c0-.846.77-1.499 2.265-1.499 1.496 0 2.561.638 2.663 1.652l.015.128h4.99l-.015-.28c-.153-3.455-2.776-5.659-7.718-5.659-4.378 0-7.577 2.342-7.577 6.056v.014c0 2.868 2.01 4.724 5.683 5.377l1.857.332c2.047.372 2.791.73 2.791 1.602v.014c0 .923-1 1.587-2.623 1.587-1.536 0-2.791-.664-3.01-1.663l-.025-.117h-4.99l.014.244c.194 3.648 3.163 5.698 7.949 5.698l-.004-.003Z"/></svg>