<svg xmlns="http://www.w3.org/2000/svg" fill="none" viewBox="0 0 210 80"><path fill="#090D12" d="m82.939 45.48 3.112-1.759c.721 1.86 2.176 3.101 4.78 3.101 2.437 0 3.327-1.037 3.327-2.12 0-1.5-1.398-2.075-4.465-2.954-3.169-.88-6.236-2.222-6.236-6.055 0-3.834 3.27-6.056 6.8-6.056s6.021 1.703 7.374 4.556l-3.427 1.962c-.722-1.556-1.872-2.594-3.947-2.594-1.714 0-2.695.88-2.695 2.019 0 1.24.778 1.917 3.947 2.841 3.27 1.038 6.754 2.075 6.754 6.214 0 3.777-3.112 6.111-7.533 6.111-4.048 0-6.754-1.815-7.95-4.612-.202-.26-.1-.563.159-.676v.022Zm32.554-2.582c0 4.398-3.27 7.77-7.217 7.77-2.176 0-3.743-.779-4.781-2.177v7.611h-3.789V36.076c0-.316.203-.519.519-.519h2.909l.418 1.76c1.037-1.343 2.649-2.177 4.781-2.177 3.89 0 7.171 3.36 7.171 7.77l-.011-.012Zm-3.845 0c0-2.436-1.77-4.093-4.105-4.093-2.334 0-4.104 1.657-4.104 4.093s1.77 4.093 4.104 4.093c2.335 0 4.105-1.657 4.105-4.093Zm4.736-.102c0-4.397 3.484-7.814 7.792-7.814 4.307 0 7.837 3.417 7.837 7.815 0 4.397-3.485 7.814-7.837 7.814-4.308-.056-7.792-3.417-7.792-7.814Zm11.896 0c0-2.379-1.77-4.093-4.104-4.093s-4.105 1.703-4.105 4.093c0 2.391 1.771 4.094 4.105 4.094 2.334 0 4.104-1.703 4.104-4.093Zm10.126 2.481v-6.111l2.233-.361c.102-1.14.316-2.278.62-3.316h-2.853v-4.138l-3.428 1.038c-.202.056-.36.259-.36.518v2.594h-2.075c-.316 0-.519.203-.519.519v3.1h2.549v6.112c0 3.98 1.815 5.537 7.171 4.973v-3.473c-2.176.203-3.326.158-3.326-1.455h-.012ZM142.917 40c0-6.055 4.781-10.712 10.746-10.712 5.965 0 10.747 4.657 10.747 10.712s-4.782 10.712-10.747 10.712S142.917 46 142.917 40Zm17.399 0c0-3.935-2.909-6.676-6.698-6.676-3.789 0-6.698 2.74-6.698 6.676 0 3.935 2.909 6.63 6.698 6.63 3.789 0 6.698-2.74 6.698-6.63Zm19.531 1.24v9.055h-3.789v-8.592c0-2.019-1.195-3.056-2.909-3.056-1.872 0-3.27 1.082-3.27 3.676v7.972h-3.846v-14.23c0-.316.203-.52.519-.52h2.909l.418 1.658c.879-1.341 2.446-2.074 4.42-2.074 3.112 0 5.559 2.176 5.559 6.111h-.011ZM53.067 18C40.868 18 31 27.574 31 40s9.867 22 22.068 22c12.2 0 22.067-9.574 22.067-22 .057-12.426-9.866-22-22.067-22Zm0 32.611c-5.863 0-10.599-4.612-10.599-10.555 0-5.942 4.725-10.554 10.6-10.554 5.863-.057 10.645 4.555 10.645 10.51 0 5.953-4.782 10.61-10.645 10.61v-.011Z"/><path fill="#090D12" d="M53.068 18C40.867 18 31 27.574 31 40s9.867 22 22.068 22c12.2 0 22.067-9.574 22.067-22 .057-12.426-9.866-22-22.067-22Zm0 32.611c-5.864 0-10.6-4.612-10.6-10.555 0-5.942 4.725-10.554 10.6-10.554 5.863-.057 10.645 4.555 10.645 10.51 0 5.953-4.782 10.61-10.645 10.61v-.011Z"/></svg>