<svg xmlns="http://www.w3.org/2000/svg" fill="none" viewBox="0 0 210 80"><path fill="#000" d="m159.98 25.98-3.61-2.09V19.7h-.02l-10.86-6.28h-21.76l-10.88 6.29v4.19h-.02l-3.61 2.09v29.34L134.61 70l25.38-14.67V25.99h-.01v-.01Zm-25.39 11.26 7.25-4.19v-8.38l3.63-2.1v12.58l-10.88 6.28-10.88-6.28V22.57l3.63 2.1v8.38l7.25 4.19Zm7.25 8.38-10.88 6.29v-4.19l10.88-6.29v4.19Z"/><path fill="url(#a)" fill-rule="evenodd" d="M145.47 10h-21.76l-10.88 6.29v4.19h.02l10.86-6.29h21.76l10.88 6.29v-4.19L145.47 10Zm10.9 10.49h-.02v29.33l-21.76 12.57-21.76-12.57V20.48l-3.63 2.09v29.34h.02l25.37 14.67 25.39-14.67V22.57l-3.61-2.08Z" clip-rule="evenodd"/><path fill="#000" d="m50 20.17 1.24.72v2.87l2.49 1.44 2.49-1.44v-2.87l1.24-.72v4.31l-3.73 2.15L50 24.48v-4.31Zm2.49 8.62 3.73-2.15v1.44l-3.73 2.15v-1.44Zm8.71-6.46v-1.44l1.25-.72h2.49l1.24.72v1.44l-1.24-.72h-2.49l-1.25.72Zm1.87-.36.62.36.62-.36v6.47l-.62-.36-.62.36v-6.47Zm-1.87 6.11 1.24.72h2.49l1.24-.72v1.44l-1.24.72h-2.49l-1.24-.72v-1.44Zm9.96 7.19v-1.44l1.25-.72h2.49l1.24.72v1.44l-1.24-.72h-2.49l-1.25.72Zm1.87-.36.62.36.62-.36v6.47l-.62-.36-.62.36v-6.47Zm-1.87 6.11 1.24.72h2.49l1.24-.72v1.44l-1.24.72H72.4l-1.24-.72v-1.44Zm-1.24-16.53v-2.88l2.49-1.44h2.49l2.49 1.44-1.24.72-1.24-.72h-2.49l-1.24.72v1.44l-1.25.72h-.01Z"/><path fill="#000" d="m76.14 26.64-1.25-.72h-4.98v-1.44h4.98l1.25-.72v2.88Zm-4.98 0v1.44l1.24.72h2.49l1.24-.72 1.25.72-2.49 1.44H72.4l-2.49-1.44v-2.87l1.25.72v-.01Zm8.71 23.71v-2.88l2.49-1.44h2.49l2.49 1.44-1.24.72-1.24-.72h-2.49l-1.24.72v1.44l-1.25.72h-.01Z"/><path fill="#000" d="m86.09 52.5-1.25-.72h-4.98v-1.44h4.98l1.25-.72v2.88ZM81.11 52.5v1.44l1.24.72h2.49l1.25-.72 1.25.72-2.49 1.44h-2.49l-2.49-1.44v-2.87l1.25.72-.01-.01Zm-1.25-32.33 1.24.72v7.18l1.24.72h4.98v1.44h-4.98l-2.49-1.44v-8.62h.01Zm0 12.93 1.24.72V41l1.24.72h4.98v1.44h-4.98l-2.49-1.44V33.1h.01Zm14.93-12.93h-4.98v10.06h4.98l2.49-1.44V21.6l-2.49-1.44v.01Zm1.25 7.9-1.24.72h-4.98l1.25-.72v-5.75l-1.25-.72h4.98l1.24.72v5.75Zm-1.25 5.03h-4.98v10.06h4.98l2.49-1.44v-7.19l-2.49-1.44v.01Zm1.25 7.9-1.24.72h-4.98l1.25-.72v-5.75l-1.25-.72h4.98l1.24.72V41ZM50 41.73v-7.19l2.49-1.44h2.49l2.49 1.44-1.24.72-1.24-.72H52.5l-1.24.72v5.75l1.24.72h2.49l1.24-.72v-1.44l-1.24-.72-1.24.72-1.25-.72 2.49-1.44 2.49 1.44v2.87l-2.49 1.44H52.5l-2.49-1.44-.01.01Zm0 12.94v-7.19l2.49-1.44h2.49l2.49 1.44-1.24.72-1.24-.72H52.5l-1.24.72v5.75l1.24.72h2.49l1.24-.72v-1.44l-1.24-.72-1.24.72-1.25-.72 2.49-1.44 2.49 1.44v2.87l-2.49 1.44H52.5l-2.49-1.44-.01.01Zm9.96-21.56 1.24.72v7.18l1.24.72h2.49l1.24-.72v-7.19l1.24-.72v8.62l-2.49 1.44h-2.49l-2.49-1.44V33.1l.02.01Zm0 18.68 1.25.72v2.88l-1.25.72v-4.32ZM67.42 50.35h-7.47v1.44h7.47v-1.44ZM59.96 47.48l2.49-1.44h2.49l2.49 1.44v2.87l-1.25-.72v-1.44l-1.24-.72h-2.49l-1.24.72v1.44l-1.25.72v-2.88.01Zm6.22 7.91v-2.88l1.24-.72v4.31l-1.24-.72v.01Zm3.74-7.9 2.49-1.44 1.24.72 1.24-.72 2.48 1.43v8.62l-1.24-.71V48.2l-1.24-.73-.61.37v4.31l-.63.37-.61-.37v-4.31l-.62-.36-1.25.71v7.2l-1.25.72v-8.63.01Zm2.49 7.19 1.24-.72 1.24.71-1.24.73-1.24-.72Zm24.88-7.19-1.24.72-1.24-.72h-2.49l-1.24.72v1.44l1.24.72h2.49l2.49 1.44v2.87l-2.49 1.44h-2.49l-2.49-1.44 1.24-.72 1.24.72h2.49l1.24-.72v-1.44l-1.24-.72h-2.49l-2.49-1.44v-2.87l2.49-1.44h2.49l2.49 1.44Z"/><defs><linearGradient id="a" x1="91.782" x2="97.816" y1="5.557" y2="69.048" gradientUnits="userSpaceOnUse"><stop stop-color="#FFE600"/><stop offset=".22" stop-color="#FDFF85"/><stop offset=".48" stop-color="#66F6FF"/><stop offset="1" stop-color="#CD9BFF"/></linearGradient></defs></svg>