<svg xmlns="http://www.w3.org/2000/svg" fill="none" viewBox="0 0 210 80"><path fill="#007AFF" fill-rule="evenodd" d="M34.163 20 44.17 35.664l-10.006 5.833-10.005-5.833L34.163 20Zm-6.942 14.923 6.942-10.869 6.942 10.869-6.942 4.047-6.942-4.047Z" clip-rule="evenodd"/><path fill="#007AFF" d="m34.149 44.94-11.607-6.767-.317.496a14.15 14.15 0 0 0 1.92 17.622c5.526 5.526 14.485 5.526 20.01 0a14.15 14.15 0 0 0 1.92-17.622l-.317-.496-11.609 6.767Z"/><path fill="#000" d="M75.295 53.542V33.281h4.138v16.808h10.245v3.453H75.295Zm33.799-20.433h4.138v20.433h-4.138V33.11Zm41.124 5.584c-.447-1.307-1.094-2.411-1.95-3.31a6.79 6.79 0 0 0-3.072-1.883c-.891-.262-2.184-.39-3.882-.39h-7.525v20.433h7.749c1.522 0 2.735-.143 3.643-.433 1.213-.39 2.178-.932 2.892-1.631.946-.918 1.674-2.122 2.183-3.61.418-1.218.628-2.664.628-4.348 0-1.912-.224-3.524-.666-4.828Zm-4.005 8.381c-.276.913-.633 1.57-1.075 1.97-.437.399-.989.684-1.66.85-.509.13-1.336.196-2.483.196h-3.067V36.563h1.845c1.674 0 2.801.066 3.372.195.771.166 1.403.49 1.903.96.499.476.889 1.132 1.165 1.979.281.846.419 2.055.419 3.634 0 1.579-.138 2.83-.419 3.743Zm41.076-11.53c-1.812-1.868-4.219-2.805-7.235-2.805-1.664 0-3.134.27-4.409.808-.955.405-1.836 1.018-2.64 1.846a9.572 9.572 0 0 0-1.901 2.806c-.624 1.418-.938 3.167-.938 5.25 0 3.264.899 5.823 2.693 7.677 1.792 1.86 4.214 2.788 7.252 2.788 3.039 0 5.404-.933 7.197-2.801 1.793-1.865 2.692-4.452 2.692-7.758s-.904-5.936-2.711-7.81Zm-3.125 13.052c-1.061 1.185-2.412 1.779-4.062 1.779-1.65 0-3.006-.6-4.076-1.793-1.07-1.198-1.607-2.953-1.607-5.27 0-2.317.522-4.114 1.564-5.284 1.042-1.165 2.416-1.75 4.119-1.75 1.703 0 3.073.575 4.1 1.73 1.032 1.152 1.546 2.902 1.546 5.247 0 2.344-.528 4.152-1.584 5.341Z"/></svg>