<svg xmlns="http://www.w3.org/2000/svg" fill="none" viewBox="0 0 210 80"><path fill="#222" d="M87.87 56.1V23.9h5.9v32.2h-5.9Zm56.653-21.893h5.616v2.7c1.208-2.132 3.981-3.269 6.397-3.269 2.986 0 5.403 1.28 6.469 3.625 1.706-2.7 4.052-3.625 6.895-3.625 4.052 0 7.89 2.417 7.89 8.317V56.1h-5.758V43.092c0-2.346-1.137-4.123-3.838-4.123-2.559 0-4.052 1.99-4.052 4.336V56.1h-5.829V43.092c0-2.346-1.208-4.123-3.838-4.123s-4.123 1.92-4.123 4.336V56.1h-5.9l.071-21.893ZM107.134 56.74c-6.682 0-11.444-4.905-11.444-11.587 0-6.681 4.833-11.586 11.444-11.586 6.611 0 11.444 5.118 11.444 11.587.071 6.54-4.762 11.586-11.444 11.586Zm0-17.842c-3.412 0-6.255 2.772-6.255 6.255a6.22 6.22 0 0 0 6.255 6.256 6.22 6.22 0 0 0 6.255-6.255c0-3.484-2.843-6.256-6.255-6.256Zm24.097 17.842c-6.682 0-11.444-4.905-11.444-11.587 0-6.681 4.833-11.586 11.444-11.586 6.611 0 11.444 5.118 11.444 11.587 0 6.54-4.762 11.586-11.444 11.586Zm0-17.913c-3.483 0-6.326 2.843-6.326 6.327 0 3.482 2.843 6.326 6.326 6.326 3.483 0 6.326-2.843 6.326-6.326 0-3.484-2.843-6.327-6.326-6.327Z"/><path fill="#625DF5" d="M76 37.548H63.134l11.16-6.398-2.417-4.265-11.16 6.398 6.398-11.16-4.265-2.417-6.398 11.16V18h-4.904v12.866l-6.398-11.16-4.265 2.417 6.398 11.16-11.16-6.398-2.417 4.265 11.16 6.398H32v4.904h12.866l-11.16 6.398 2.417 4.265 11.16-6.398-6.398 11.16 4.265 2.417 6.398-11.16V62h4.904V49.134l6.398 11.16 4.265-2.417-6.398-11.16 11.16 6.398 2.417-4.265-11.16-6.398H76v-4.904Zm-22.035 9.098a6.674 6.674 0 0 1-6.682-6.681 6.674 6.674 0 0 1 6.681-6.682 6.674 6.674 0 0 1 6.682 6.681 6.674 6.674 0 0 1-6.681 6.682Z"/></svg>