<svg xmlns="http://www.w3.org/2000/svg" fill="none" viewBox="0 0 210 80"><path fill="#164951" fill-rule="evenodd" d="M182.211 33.716V30.42h-4.317V24l-3.706 3.767v1.51l1.159 1.16h-5.125v3.294h3.966v11.135c0 2.593 1.449 4.026 4.057 4.026h3.92v-3.355h-3.203c-.824-.03-1.083-.244-1.083-1.099V33.731h4.316l.016-.015Zm-59.501-1.434a7.397 7.397 0 0 0-2.455-1.647 7.26 7.26 0 0 0-2.898-.55h-.107a7.815 7.815 0 0 0-5.522 2.243v-1.876h-3.721V56h3.737v-8.984a6.318 6.318 0 0 0 1.784 1.388 7.471 7.471 0 0 0 3.478.854h.091a7.882 7.882 0 0 0 3.02-.58 7.818 7.818 0 0 0 2.563-1.692 10.013 10.013 0 0 0 2.059-3.386 10.03 10.03 0 0 0 .595-3.905c.03-3.05-.9-5.69-2.624-7.413Zm-5.857 13.712h-.335a4.005 4.005 0 0 1-1.632-.335 4.361 4.361 0 0 1-1.373-.93 8.1 8.1 0 0 1-1.8-5.08 8.1 8.1 0 0 1 1.8-5.079 4.26 4.26 0 0 1 1.388-.93 3.94 3.94 0 0 1 1.617-.336h.335c2.868 0 4.744 2.502 4.744 6.345 0 3.844-1.876 6.345-4.744 6.345Zm-26.692-3.02-.046.275c-.396 1.723-1.769 2.745-3.721 2.745h-.32c-2.227 0-4.515-1.891-4.744-5.567h12.538v-2.135a8.328 8.328 0 0 0-2.304-6.086 7.51 7.51 0 0 0-2.501-1.617 7.46 7.46 0 0 0-2.944-.473 8.675 8.675 0 0 0-3.172.595 8.414 8.414 0 0 0-2.7 1.785 9.83 9.83 0 0 0-2.029 3.294 9.913 9.913 0 0 0-.58 3.829c0 3.02.885 5.536 2.64 7.275a8.222 8.222 0 0 0 5.826 2.319h.107c3.98 0 6.97-2.288 7.657-5.827l.076-.412H90.16Zm-4.24-9.67h.32c2.212 0 3.676 1.525 3.874 3.981h-8.572c.55-2.501 2.151-3.98 4.378-3.98ZM101.829 24l-3.706 3.767v1.709l.96.96h-4.926v3.295h3.966v11.135c0 2.593 1.449 4.026 4.057 4.026h3.92v-3.355h-3.188c-.823-.03-1.083-.244-1.083-1.099V33.731h4.317v-3.294h-4.317V24ZM63.53 32.1a7.65 7.65 0 0 1 5.476-2.03c4.392 0 7.168 2.35 7.245 6.147v.351h-3.722v-.305a3.06 3.06 0 0 0-.305-1.205 3.256 3.256 0 0 0-1.25-1.357 3.11 3.11 0 0 0-1.8-.412h-.32c-1.755 0-3.082.945-3.02 2.212 0 .96.411 1.677 2.44 2.09l2.776.579a7.539 7.539 0 0 1 3.645 1.708 4.653 4.653 0 0 1 1.403 3.63c0 3.401-2.883 5.674-7.184 5.674-4.576 0-7.458-2.349-7.535-6.132v-.35h3.691v.32c.168 1.86 1.556 2.944 3.798 2.944h.306a4.023 4.023 0 0 0 2.348-.64c.26-.184.473-.413.626-.703.152-.274.213-.594.213-.915 0-.823-.29-1.662-2.38-2.09l-2.577-.518a8.267 8.267 0 0 1-3.843-1.739 4.44 4.44 0 0 1-1.16-1.632 4.594 4.594 0 0 1-.35-1.967 5.21 5.21 0 0 1 .35-1.998c.26-.64.64-1.205 1.129-1.693v.03Z" clip-rule="evenodd"/><path fill="#164951" d="M146.382 24.184h3.707v4.148h-3.707v-4.148Z"/><path fill="#164951" fill-rule="evenodd" d="M159.652 30.62a6.972 6.972 0 0 1 3.005-.55c4.057 0 6.68 2.608 6.696 6.62v12.172h-3.707v-11.44c0-2.76-1.159-4.118-3.477-4.118h-.26c-2.745 0-4.743 2.364-4.743 5.628v9.945h-3.722v-18.44h3.722v1.936a7.155 7.155 0 0 1 2.501-1.754h-.015Z" clip-rule="evenodd"/><path fill="#164951" d="M146.382 30.436h3.707v18.44h-3.707v-18.44Z"/><path fill="#164951" fill-rule="evenodd" d="M141.41 32.51a8.513 8.513 0 0 0-2.761-1.814 8.477 8.477 0 0 0-3.249-.61 8.039 8.039 0 0 0-3.218.594 8.485 8.485 0 0 0-2.745 1.83 10.568 10.568 0 0 0-2.761 7.139c0 2.639.991 5.201 2.761 7.153a8.569 8.569 0 0 0 2.669 1.8 8.189 8.189 0 0 0 3.142.626h.32a8.32 8.32 0 0 0 3.157-.626 8.653 8.653 0 0 0 2.685-1.8 10.646 10.646 0 0 0 2.761-7.138c0-2.639-.992-5.201-2.761-7.153Zm-5.842 13.484h-.32c-2.913 0-4.866-2.547-4.866-6.345 0-3.798 1.937-6.33 4.835-6.33h.351c2.898 0 4.866 2.547 4.866 6.33 0 3.782-1.953 6.345-4.866 6.345Z" clip-rule="evenodd"/><path fill="#164951" d="M27 25.86v27.501h27.516v-27.5H27Zm25.335 25.335h-7.81v-7.809l-7.535 7.535h-7.534v-7.535l7.534-7.535h-7.809v-7.824h7.81v7.809l7.534-7.535h7.535v7.535l-7.535 7.535h7.81v7.824Zm-7.81-15.344H36.99v7.535h7.535v-7.535Z"/></svg>