<svg xmlns="http://www.w3.org/2000/svg" fill="none" viewBox="0 0 210 80"><path fill="#000" fill-rule="evenodd" d="M40.796 40c-1.263 0-2.523-.13-3.76-.388V40a19.045 19.045 0 0 1-7.518 15.2 18.901 18.901 0 0 1-5.539-6.7A19.117 19.117 0 0 1 22 40c-.004-2.95.674-5.86 1.98-8.5a18.901 18.901 0 0 1 5.538-6.7A18.613 18.613 0 0 1 40.796 21c6.967 0 13.032 3.817 16.29 9.509-3.258 5.674-9.323 9.508-16.29 9.508V40Zm-12.915-9.491a15.86 15.86 0 0 0 5.697 4.897 16.103 16.103 0 0 0-4.043-6.84c-.267.27-.535.558-.768.845-.301.354-.602.726-.87 1.098h-.016Zm-1.537 2.634a18.92 18.92 0 0 0 7.852 5.658 16.207 16.207 0 0 1-4.645 12.667c-2.906-2.922-4.694-6.976-4.694-11.451a16.327 16.327 0 0 1 1.504-6.874h-.017Zm5.363-6.4a18.956 18.956 0 0 1 5.046 9.896c1.326.346 2.69.522 4.06.524 5.313 0 10.024-2.618 12.931-6.654-2.907-4.037-7.618-6.655-12.931-6.655a15.83 15.83 0 0 0-9.106 2.871v.017ZM55.85 40c1.262.003 2.521.128 3.76.372C59.409 50.69 51.07 59 40.813 59a19.708 19.708 0 0 1-3.76-.372C37.255 48.31 45.591 40 55.85 40ZM40.813 56.163h-.685c1.336-7.55 7.869-13.292 15.738-13.292h.685c-1.336 7.55-7.869 13.292-15.738 13.292Z" clip-rule="evenodd"/><path fill="#000" d="M79.474 50.049c2.105 0 3.826-.473 4.996-1.385 1.436-1.098 2.339-2.685 2.573-4.543a.632.632 0 0 0-.124-.579.619.619 0 0 0-.545-.215h-1.988c-.434 0-.785.237-.902.676-.2.675-.585 1.216-1.17 1.689-.735.506-1.72.793-2.84.793-1.12 0-2.139-.32-2.84-.912-1.086-.86-1.604-2.212-1.604-4.256 0-.236.15-.388.384-.388h11.077a.781.781 0 0 0 .555-.233.799.799 0 0 0 .23-.56V37.77c0-2.635-.785-4.814-2.222-6.232-1.37-1.335-3.24-2.01-5.496-2.01-2.373 0-4.294.71-5.698 2.128-1.67 1.74-2.573 4.543-2.573 8.124 0 3.985.852 6.586 2.807 8.444 1.32 1.216 3.125 1.807 5.38 1.807v.017Zm-4.026-12.143c-.234 0-.385-.152-.385-.389 0-1.503.435-2.719 1.287-3.58.785-.794 1.904-1.216 3.19-1.216 1.287 0 2.306.44 3.042 1.216.852.861 1.286 2.094 1.286 3.58 0 .237-.15.389-.384.389h-8.036Zm23.69 12.143c1.906 0 3.71-.557 4.963-1.57 1.52-1.217 2.372-3.075 2.372-5.135 0-.507-.2-.794-.584-.794h-2.222c-.468 0-.736.237-.736.676 0 .946-.35 1.807-1.052 2.398-.702.557-1.671.861-2.723.861-1.52 0-2.807-.557-3.593-1.57-.852-1.098-.969-2.838-.969-5.134 0-2.753.2-4.138 1.02-5.253.701-.946 2.071-1.452 3.508-1.452 1.019 0 1.955.27 2.607.827a3.178 3.178 0 0 1 1.169 2.483c0 .354.317.625.735.625h2.072c.384 0 .668-.321.668-.794a6.785 6.785 0 0 0-.559-2.692 6.727 6.727 0 0 0-1.579-2.24c-1.287-1.148-3.075-1.773-5.113-1.773-2.222 0-4.41.743-5.78 2.162-1.956 2.043-2.373 4.695-2.373 8.09 0 3.394.317 6.198 2.456 8.157 1.437 1.419 3.508 2.094 5.73 2.094l-.016.034Zm18.396 0c3.041 0 5.313-1.267 6.633-3.276 1.32-2.01 1.437-4.223 1.437-6.976 0-2.752-.117-4.965-1.437-6.975s-3.592-3.276-6.633-3.276-5.313 1.267-6.633 3.276c-1.32 2.01-1.437 4.222-1.437 6.975 0 2.753.117 4.966 1.437 6.976s3.592 3.276 6.633 3.276Zm0-3.547c-1.754 0-2.957-.912-3.592-1.858-.702-1.063-.852-2.567-.852-4.847 0-2.28.15-3.783.852-4.847.618-.946 1.838-1.858 3.592-1.858s2.957.913 3.592 1.858c.702 1.064.852 2.567.852 4.847 0 2.28-.15 3.784-.852 4.848-.618.945-1.838 1.857-3.592 1.857Zm30.541 3.547c3.041 0 5.313-1.267 6.633-3.276 1.32-2.01 1.437-4.223 1.437-6.976 0-2.752-.117-4.965-1.437-6.975s-3.592-3.276-6.633-3.276c-3.04 0-5.313 1.267-6.633 3.276-1.319 2.01-1.436 4.222-1.436 6.975 0 2.753.117 4.966 1.436 6.976 1.32 2.01 3.593 3.276 6.633 3.276Zm0-3.547c-1.754 0-2.957-.912-3.592-1.858-.702-1.063-.852-2.567-.852-4.847 0-2.28.15-3.783.852-4.847.618-.946 1.838-1.858 3.592-1.858 1.755 0 2.958.913 3.592 1.858.702 1.064.853 2.567.853 4.847 0 2.28-.151 3.784-.853 4.848-.618.945-1.837 1.857-3.592 1.857Zm15.171 3.158a.78.78 0 0 0 .555-.232.8.8 0 0 0 .23-.561v-9.458c0-4.188 2.773-5.76 5.848-5.76h.785a.78.78 0 0 0 .555-.232.8.8 0 0 0 .23-.56v-2.129a.8.8 0 0 0-.23-.561.78.78 0 0 0-.555-.233h-.785c-4.177 0-4.846 2.162-5.781 2.162-.585 0-.585-.861-.702-1.385-.117-.557-.351-.794-.785-.794h-1.32a.78.78 0 0 0-.555.233.795.795 0 0 0-.23.561V48.85c0 .21.082.412.23.561a.78.78 0 0 0 .555.233h1.955v.017Zm21.569 1.183c0 2.01-1.554 3.546-3.625 3.546-1.905 0-3.158-.59-3.509-1.976-.117-.439-.267-.793-1.019-.793h-1.871c-.552 0-.786.32-.702.912.468 3.276 3.275 5.404 7.101 5.404s7.134-3.108 7.134-7.093V30.728a.8.8 0 0 0-.23-.561.78.78 0 0 0-.555-.233h-1.32c-.268 0-.468.085-.552.27-.267.625-.467.828-.785.828-.819 0-1.403-1.503-4.561-1.503-2.924 0-5.313 1.267-6.316 3.395-.818 1.688-1.202 3.816-1.202 6.67 0 3.159.35 5.135 1.253 6.706 1.136 2.094 3.358 3.344 5.964 3.344 2.607 0 3.392-1.267 4.094-1.267.501 0 .701.355.701 1.267v1.199Zm-4.143-17.75c1.637 0 3.007.624 3.675 1.807.669 1.182.702 2.482.702 4.695 0 2.212-.033 3.394-.702 4.695-.618 1.216-2.021 1.807-3.675 1.807s-3.041-.591-3.676-1.807c-.668-1.3-.702-2.483-.702-4.695 0-2.213.034-3.513.702-4.695.702-1.267 2.022-1.807 3.676-1.807Zm-47.984 15.841a2.445 2.445 0 0 0 2.439-2.465 2.445 2.445 0 0 0-2.439-2.466 2.445 2.445 0 0 0-2.44 2.465 2.445 2.445 0 0 0 2.44 2.466Z"/></svg>