<svg xmlns="http://www.w3.org/2000/svg" fill="none" viewBox="0 0 210 80"><g clip-path="url(#a)"><path fill="url(#b)" d="M105.03 51.806c7.168.034 13.022-5.786 13.03-12.937.009-7.219-5.819-13.073-12.996-13.056-7.185.017-12.98 5.812-12.988 12.988 0 7.177 5.769 12.98 12.962 13.013l-.008-.008Zm.179-24.175c6.05.068 11.017 5.077 11 11.17-.018 6.204-5.001 11.145-11.23 11.119-6.187-.017-11.128-5.043-11.051-11.34.068-6.239 5.248-11.026 11.281-10.958v.009ZM94.978 65.493c-.043.785-.512 1.349-1.263 1.528h-.035c-.426.077-.921.213-1.254 0-.247-.162-.051-.683-.077-1.041-.017-.205 0-.418 0-.623 0-.47.009-.939 0-1.408 0-.23.043-.333.299-.316.427.026.862-.026 1.272.128.725.256 1.109.896 1.066 1.724l-.008.008Zm18.372.64c.008.675-.444 1.187-1.058 1.195-.598.008-1.075-.512-1.075-1.186 0-.64.469-1.17 1.049-1.178.632 0 1.075.461 1.084 1.16v.01Zm-12.297-.648c.052.179.017.239-.17.23-.231-.008-.47 0-.7 0h-.546c-.384 0-.401-.043-.23-.392.179-.384.494-.58.861-.538.376.043.691.333.794.708l-.009-.008Zm5.786-.094c.077.213.068.35-.213.324-.205-.017-.41 0-.623 0-.205 0-.418-.017-.623 0-.307.034-.273-.12-.197-.316.154-.4.47-.64.845-.623.367.01.683.257.811.615Zm-1.758-17.963c4.736 0 8.619-3.908 8.61-8.67 0-4.753-3.857-8.593-8.627-8.601a8.646 8.646 0 0 0-8.661 8.661c0 4.745 3.891 8.619 8.67 8.61h.008Zm-3.857-5.896a1.803 1.803 0 0 1 1.519-.333c.316.068.341-.043.35-.299.06-1.587.128-3.174.179-4.761 0-.248.085-.359.307-.461 1.63-.717 3.251-1.434 4.881-2.16.256-.11.333-.084.316.214a824.268 824.268 0 0 0-.256 6.477c-.009.324-.162.572-.401.768-.674.563-1.912.555-2.577-.017-.555-.478-.529-1.195.085-1.621a1.926 1.926 0 0 1 1.562-.316c.281.06.316-.043.316-.265 0-.29.008-.571.017-.861v-.82h.085c0-.529-.009-1.066 0-1.595.008-.282-.068-.3-.307-.188-.896.41-1.801.82-2.705 1.203-.222.094-.273.23-.282.444-.043 1.766-.111 3.533-.145 5.307-.009.453-.188.769-.555 1.008-.665.426-1.723.383-2.363-.086-.606-.452-.623-1.186-.017-1.647l-.009.009Zm11.469 4.24c0 .368-.29.675-.657.675-.342 0-.666-.324-.666-.683 0-.333.333-.665.674-.674.35 0 .649.307.649.683Zm-1.34-13.994c.017-.367.341-.674.691-.657.35.017.649.35.64.708 0 .342-.35.666-.691.657-.341-.008-.657-.358-.64-.708ZM98.733 45.79c0 .358-.29.623-.658.631-.392 0-.665-.273-.665-.657 0-.341.332-.674.682-.674.333 0 .657.341.649.7h-.009Zm5.657-16.922c0-.324.316-.631.665-.64.359 0 .666.299.666.666a.632.632 0 0 1-.666.648.67.67 0 0 1-.657-.682l-.008.008Zm9.873 9.924a.66.66 0 0 1 .674-.657c.35 0 .632.282.64.64a.667.667 0 0 1-.648.683c-.359 0-.675-.298-.666-.666ZM97.401 31.83c0-.392.248-.665.64-.674.393 0 .649.256.649.657a.667.667 0 0 1-.657.674c-.333 0-.623-.307-.632-.657Zm-1.57 6.972a.654.654 0 0 1-.649.674.647.647 0 0 1-.665-.648c0-.376.299-.674.657-.666.341 0 .64.299.657.64Zm9.882 9.882a.647.647 0 0 1-.632.657.658.658 0 0 1-.683-.657c0-.359.316-.657.683-.649.367 0 .632.282.632.649Zm16.435 12.202a1.85 1.85 0 0 0-1.835 1.843 1.85 1.85 0 0 0 1.835 1.844c1.007 0 1.869-.81 1.869-1.844 0-1.032-.837-1.843-1.869-1.843Zm.614 3.021-.341-.512a2.306 2.306 0 0 0-.273-.341c-.017-.051-.069-.077-.12-.103-.051-.025-.145-.025-.247-.025h-.094v.981h-.469v-2.355h.981c.273 0 .444.026.563.077a.445.445 0 0 1 .273.222.749.749 0 0 1 .103.367c0 .17-.052.315-.154.443-.119.094-.265.17-.461.214.094.05.171.128.239.196.077.051.154.196.273.375l.299.461h-.572Zm22.101-27.238c-.546-6.494-2.551-12.51-6.041-18.006-3.729-5.896-8.67-10.513-14.797-13.84A39.027 39.027 0 0 0 110.474.383a32.988 32.988 0 0 0-3.302-.307c-.103-.009-.214 0-.299-.068h-3.746c-.486.145-.981.093-1.468.136-6.485.546-12.484 2.552-17.988 6.016-5.419 3.422-9.77 7.902-13.065 13.406a39.114 39.114 0 0 0-4.992 13.449c-1.16 6.621-.708 13.14 1.391 19.532a39.316 39.316 0 0 0 8.721 14.712c5.718 6.101 12.664 10.06 20.83 11.852 3.874.854 7.8 1.084 11.759.76 6.511-.546 12.536-2.552 18.057-6.05 6.093-3.866 10.82-9.028 14.157-15.428a39.205 39.205 0 0 0 3.857-11.367 37.18 37.18 0 0 0 .546-4.847c.008-.102 0-.205.068-.298v-3.746c-.137-.478-.094-.982-.137-1.468Zm-41.48-19.798v-3.2c0-.81.324-1.305 1.007-1.544.742-.265 1.63-.06 2.073.478.239.29.308.631.308.981v6.596c-.009.973-.666 1.553-1.716 1.553-1.049 0-1.664-.597-1.672-1.553-.009-1.1 0-2.21 0-3.31ZM80.539 47.906c-.717-.358-1.229-.947-1.698-1.578-1.1-1.502-1.63-3.218-1.869-5.027-.35-2.696.154-5.23 1.502-7.594.282-.495.632-.956 1.16-1.238.547-.298.862-.145.948.47.026.153.026.315.026.469v6.485c0 1.963.016 3.934 0 5.897-.01.657.085 1.297.196 1.937.05.29-.06.282-.265.18Zm6.716-8.15v6.64c0 .972-.265 1.868-.905 2.628-.452.538-1.032.828-1.74.81-.188 0-.367.01-.546 0-1.75-.11-2.774-1.151-2.893-2.952-.009-.136-.009-.264-.009-.392V33.016c.009-.956.273-1.818.905-2.552.435-.512.981-.802 1.672-.768.12 0 .23 0 .35-.009 1.715-.042 2.842.913 3.098 2.612.05.341.076.674.076 1.015v6.443h-.008Zm.717 8.995c.008-6.639.008-13.278 0-19.917 0-.316.077-.58.247-.836 3.234-4.847 7.697-7.825 13.432-8.9.597-.114.899.139.904.76 0 1.441.623 2.329 1.86 2.602 1.656.367 3.09-.683 3.107-2.227 0-.316.034-.632.017-.94-.017-.28.102-.323.341-.29 1.613.24 3.191.64 4.702 1.255 3.831 1.587 6.903 4.113 9.199 7.57.179.264.273.537.273.861-.009 3.38-.009 6.75-.009 10.12h.009c0 3.388-.009 6.776 0 10.155 0 .248-.051.453-.188.666-3.277 4.94-7.825 8.013-13.687 8.934-6.085.956-11.52-.665-16.222-4.65-1.45-1.23-2.663-2.671-3.712-4.25a1.556 1.556 0 0 1-.273-.913Zm7.885 19.063c-.692.658-1.57.896-2.5.93-.871.035-1.75 0-2.62.018-.23.008-.273-.086-.273-.29.008-1.033 0-2.057 0-3.09 0-1.032.008-2.005 0-3.003 0-.282.05-.393.358-.384 1.126.05 2.27-.12 3.388.128 1.263.273 2.227.964 2.551 2.287.316 1.28.094 2.457-.904 3.404Zm6.69-1.109c-.495-.008-.99 0-1.485 0-.495 0-.956 0-1.442-.008-.333-.009-.308.136-.18.35.325.52 1.17.7 1.733.273.358-.274.589-.256.853.068.017.025.043.034.06.05.58.487.58.513-.051.974-1.127.81-3.021.572-3.943-.504-.836-.972-.75-2.705.188-3.686.75-.785 1.698-.939 2.697-.666.989.265 1.536.973 1.749 1.954.068.308.085.615.085.93.009.197-.06.274-.264.265Zm5.205 0h-.862c-.495 0-.99 0-1.485-.008-.273 0-.273.102-.162.298.299.555 1.169.777 1.741.333.41-.333.614-.18.922.085.58.52.588.547-.052.999-1.203.844-3.165.537-4.01-.615-.828-1.152-.572-2.986.563-3.831.836-.614 1.758-.683 2.705-.307.913.375 1.365 1.117 1.485 2.073.119.965.111.973-.845.973Zm6.878 1.263c-.725 1.007-2.338 1.22-3.192.333-.034-.043-.085-.085-.187-.17 0 .656-.017 1.254 0 1.842 0 .256-.069.342-.325.325a19.1 19.1 0 0 0-1.211 0c-.222.008-.29-.077-.29-.29.008-2.074.008-4.14 0-6.213 0-.23.085-.281.298-.273.376.009.751.026 1.127-.008.324-.026.46.076.401.4-.009.069 0 .137 0 .188.068.052.102.009.136-.025.743-.973 2.526-.853 3.328.358.649.999.615 2.56-.085 3.533Zm4.779-2.901c0 .222-.052.315-.299.333-.794.05-1.237.486-1.297 1.28-.043.58-.026 1.168-.017 1.757 0 .248-.069.342-.333.325a20.22 20.22 0 0 0-1.246 0c-.196 0-.282-.034-.282-.256.009-1.57.009-3.15 0-4.72 0-.213.069-.272.274-.264.409.009.827.017 1.245 0 .256-.017.316.086.291.316-.009.18 0 .358 0 .538.341-.41.648-.811 1.194-.914.427-.076.47-.05.47.393 0 .401-.009.81 0 1.212Zm2.739-.18a2.161 2.161 0 0 1-2.159-2.159c0-1.203.981-2.158 2.159-2.158 1.177 0 2.193.955 2.193 2.158 0 1.204-.99 2.16-2.193 2.16Zm6.741-18.303c0 .836-.239 1.612-.759 2.295-.401.538-.939.845-1.613.896-.299.026-.598.043-.896.06-1.058.068-1.784-.453-2.287-1.331a3.876 3.876 0 0 1-.529-1.895V33.101c-.009-1.178.358-2.202 1.288-2.97.359-.29.76-.444 1.221-.444.401 0 .81-.008 1.211.009.683.034 1.195.401 1.596.93.521.683.768 1.485.768 2.33.009 4.54.009 9.088 0 13.627Zm3.192-1.886c-.461 1.05-1.093 1.98-1.955 2.747-.273.24-.563.453-.879.52.265-4.838.12-9.659.171-14.48 0-.188 0-.384.026-.58.059-.547.375-.717.87-.47.435.213.76.555 1.016.947a11.069 11.069 0 0 1 1.698 4.685c.273 2.287-.009 4.514-.947 6.63Zm-9.609 17.809c-.077.025-.196.05-.444.05h-.341v-.614h.367c.196 0 .316 0 .341.026.077 0 .145.026.171.077.051.043.077.12.077.196a.36.36 0 0 1-.052.17c-.025.052-.068.095-.119.095Z"/></g><defs><linearGradient id="b" x1="105.004" x2="105.004" y1="80" y2="0" gradientUnits="userSpaceOnUse"><stop stop-color="#115198"/><stop offset="1" stop-color="#1FB3F0"/></linearGradient><clipPath id="a"><path fill="#fff" d="M0 0h210v80H0z"/></clipPath></defs></svg>