<svg xmlns="http://www.w3.org/2000/svg" fill="none" viewBox="0 0 210 80"><path fill="#31006F" d="M116.87 47.574c-2.389 0-4.314 1.945-4.314 4.333v8.649c0 2.388 1.944 4.333 4.314 4.333.908 0 1.741-.278 2.426-.74l-4.037-4.038 3.056-3.055 2.87 2.87v-8a4.304 4.304 0 0 0-4.315-4.352ZM93.111 15.13h-4.333v17.296h4.333a4.339 4.339 0 0 0 4.333-4.333v-8.649c-.018-2.37-1.944-4.314-4.333-4.314Z"/><path fill="#31006F" d="M65 0v80h80V0H65Zm36.759 47.574h-6.481V64.87h6.481v4.334H84.463V64.87h6.481V47.574h-6.481v-4.333h17.296v4.333Zm0-19.463a8.646 8.646 0 0 1-8.648 8.648h-8.648V10.815h8.648a8.646 8.646 0 0 1 8.648 8.648v8.648Zm6.482 1.074a7.571 7.571 0 0 1 7.574-7.574h2.166a3.232 3.232 0 0 0 3.241-3.24 3.232 3.232 0 0 0-3.241-3.241h-9.722v-4.315h9.722a7.572 7.572 0 0 1 7.575 7.574 7.572 7.572 0 0 1-7.575 7.574h-2.166a3.233 3.233 0 0 0-3.241 3.24v3.241h12.945v4.334h-17.297l.019-7.593Zm17.407 41.278-3.259-3.26a8.632 8.632 0 0 1-5.519 1.982 8.647 8.647 0 0 1-8.648-8.648v-8.648a8.647 8.647 0 0 1 8.648-8.648 8.647 8.647 0 0 1 8.649 8.648v8.648a8.662 8.662 0 0 1-.575 3.111l3.76 3.76-3.056 3.055Z"/></svg>