<svg xmlns="http://www.w3.org/2000/svg" fill="none" viewBox="0 0 210 80"><g clip-path="url(#a)"><path fill="#2A7295" d="m109.136.048 14.899-.024c1.756-.024 3.345 1.66 3.345 3.321l-.023 38.648c0 1.827-1.542 3.298-3.322 3.298-12.93-.024-25.883 0-38.813-.024-1.78 0-3.274-1.471-3.274-3.274V3.417c0-1.685 1.4-3.44 3.369-3.417l23.819.048ZM97.701 15.445l.024-4.342c.023-.759.237-1.518 1.115-1.755.664-.19 1.376-.261 2.087-.38V7.853h-7.995V37.58h7.948v-1.257c-.214-.024-.38-.024-.522-.048-1.922-.07-2.728-.806-2.705-2.704l.048-18.126Zm18.671-5.955V7.782h-8.043v1.305c.546 0 1.044-.024 1.543 0 .83.047 1.66.878 1.66 1.684V34.52c0 .782-.45 1.28-1.162 1.47-.641.167-1.329.261-2.017.404v1.162h8.019V9.49ZM54 70.676V57.793c0-.308.19-.498.498-.498h7.592c3.322 0 4.626 1.305 4.674 3.82v.19c0 1.637-.664 2.396-1.424 2.87.783.475 1.542 1.329 1.542 3.037v.19c0 2.515-1.304 3.748-4.626 3.748h-7.758c-.332.024-.498-.142-.498-.474Zm8.138-7.544c1.02 0 1.779-.261 1.779-1.4v-.309c0-1.186-.76-1.494-2.017-1.494h-5.195v3.203h5.433Zm-.095 5.456c1.21 0 2.016-.284 2.016-1.447v-.308c0-1.163-.759-1.495-1.826-1.495h-5.528v3.25h5.338ZM79.29 67.26l2.325 3.321c.238.332.072.593-.308.593h-2.04c-.261 0-.451-.095-.593-.308l-2.136-3.322h-4.84v3.132c0 .308-.165.498-.498.498h-1.755c-.309 0-.498-.19-.498-.498V57.793c0-.308.19-.498.498-.498h7.117c4.033 0 5.552 1.685 5.552 5.006v.285c.047 2.42-.736 4.057-2.824 4.674Zm.12-4.911c0-2.04-.879-2.42-3.038-2.42H71.7v5.03h4.673c2.112 0 3.037-.356 3.037-2.35v-.26Zm16.559 8.446-.925-2.017H87.12l-.95 2.017c-.118.237-.308.38-.593.38h-1.992c-.38 0-.522-.238-.38-.57l6.24-12.93c.118-.237.284-.356.569-.356h2.088c.284 0 .45.119.57.356l6.215 12.93c.166.332 0 .57-.38.57h-1.992c-.214 0-.427-.12-.546-.38Zm-1.922-4.247-2.918-6.382-2.966 6.382h5.884Zm5.67-.142V62.11c0-2.941 1.4-4.792 4.65-4.792h4.389c3.251 0 4.651 1.85 4.651 4.792v.048c0 .308-.167.498-.499.498h-1.732c-.308 0-.498-.142-.498-.332v-.309c0-1.708-.569-2.087-1.922-2.087h-4.389c-1.352 0-1.921.38-1.921 2.087v4.508c0 1.685.617 2.064 1.921 2.064h4.389c1.329 0 1.922-.38 1.922-2.064v-.38c0-.308.19-.498.498-.498h1.756c.308 0 .498.143.498.38v.403c0 2.918-1.4 4.769-4.65 4.769h-4.389c-3.274-.024-4.674-1.874-4.674-4.792Zm15.73 4.27V57.793c0-.308.19-.498.498-.498h1.756c.308 0 .498.166.498.498v5.267h2.586l4.602-5.48a.76.76 0 0 1 .617-.285h2.136c.403 0 .545.285.284.617l-5.385 6.31 5.338 6.335c.284.332.142.617-.285.617h-2.135c-.261 0-.451-.071-.617-.285l-4.603-5.409h-2.586v5.196c0 .308-.166.498-.498.498h-1.732c-.308 0-.474-.166-.474-.498Zm14.899 0V57.793c0-.308.19-.498.498-.498h10.747c.309 0 .499.166.499.498v1.638c0 .308-.19.498-.499.498h-8.517v3.036h5.528c.309 0 .498.19.498.499v1.423c0 .309-.189.498-.498.498h-5.528v3.18h8.517c.309 0 .499.19.499.498V70.7c0 .308-.19.498-.499.498h-10.747c-.332-.024-.498-.19-.498-.522Zm17.509 0V59.929h-4.247c-.308 0-.498-.19-.498-.498v-1.637c0-.309.166-.499.498-.499h11.222c.308 0 .498.166.498.498v1.638c0 .308-.19.498-.498.498h-4.247v10.747c0 .308-.19.498-.498.498h-1.756c-.308 0-.474-.19-.474-.498Zm-93.713 7.9V77.32c0-.902.38-1.4 1.376-1.4H56.8c.996 0 1.376.498 1.376 1.4v.047a.11.11 0 0 1-.033.087.11.11 0 0 1-.086.032h-.332c-.071 0-.119-.024-.119-.095v-.095c0-.664-.213-.83-.806-.83h-1.282c-.593 0-.806.19-.806.83V78.6c0 .664.237.83.806.83H56.8c.569 0 .806-.19.806-.83v-.119a.112.112 0 0 1 .119-.118h.332a.112.112 0 0 1 .118.118v.119c0 .901-.38 1.4-1.375 1.4h-1.282c-.996-.024-1.376-.522-1.376-1.424Zm11.981 0V77.32c0-.902.38-1.4 1.376-1.4h1.448c.996 0 1.376.498 1.376 1.4v1.257c0 .902-.38 1.4-1.376 1.4h-1.448c-.996 0-1.376-.522-1.376-1.4Zm2.8.854c.57 0 .806-.19.806-.83v-1.305c0-.664-.213-.83-.806-.83h-1.447c-.594 0-.807.19-.807.83V78.6c0 .664.237.83.807.83h1.447Zm9.466.427v-3.843a.112.112 0 0 1 .072-.112.11.11 0 0 1 .047-.007h.427c.07 0 .094.024.142.072l1.637 2.633 1.637-2.633c.047-.048.071-.072.142-.072h.404a.11.11 0 0 1 .086.033.11.11 0 0 1 .032.086v3.843a.112.112 0 0 1-.118.119h-.333a.11.11 0 0 1-.086-.032.11.11 0 0 1-.032-.087v-3.013l-1.495 2.35c-.047.047-.071.07-.142.07h-.237c-.072 0-.095-.023-.143-.07l-1.494-2.35v3.037a.11.11 0 0 1-.033.086.11.11 0 0 1-.086.033h-.332c-.071-.024-.095-.071-.095-.143Zm12.788 0v-3.843a.112.112 0 0 1 .072-.112.11.11 0 0 1 .046-.007h2.088c1.21 0 1.59.451 1.59 1.376v.095c0 .878-.38 1.353-1.59 1.353h-1.637v1.115a.11.11 0 0 1-.072.111.11.11 0 0 1-.047.007h-.332c-.095.024-.118-.023-.118-.095Zm2.158-1.66c.807 0 1.044-.214 1.044-.83v-.096c0-.688-.26-.83-1.044-.83h-1.613v1.756h1.614Zm9.68.38v-2.563a.107.107 0 0 1 .033-.086.112.112 0 0 1 .086-.032h.332a.112.112 0 0 1 .086.032c.011.011.02.025.026.04.005.014.008.03.007.046v2.562c0 .665.213.83.806.83h1.234c.569 0 .806-.19.806-.83v-2.562a.123.123 0 0 1 .007-.047.116.116 0 0 1 .065-.065.112.112 0 0 1 .047-.007h.332a.112.112 0 0 1 .112.072c.006.015.008.031.007.047v2.562c0 .902-.38 1.4-1.376 1.4h-1.234c-.996 0-1.376-.522-1.376-1.4Zm13.405 1.28v-3.416h-1.4a.114.114 0 0 1-.047-.007.106.106 0 0 1-.039-.025.107.107 0 0 1-.033-.087v-.308a.107.107 0 0 1 .033-.086.112.112 0 0 1 .086-.032h3.345a.112.112 0 0 1 .086.032c.011.011.02.025.026.04.005.014.008.03.007.046v.308a.123.123 0 0 1-.007.047.114.114 0 0 1-.065.065.114.114 0 0 1-.047.007h-1.4v3.416a.106.106 0 0 1-.007.047.11.11 0 0 1-.065.065.11.11 0 0 1-.046.007h-.333c-.047 0-.094-.047-.094-.119Zm9.964 0v-3.843a.106.106 0 0 1 .007-.047.105.105 0 0 1 .025-.04.112.112 0 0 1 .087-.032h.332a.11.11 0 0 1 .118.119v3.843a.106.106 0 0 1-.007.047.11.11 0 0 1-.065.065.108.108 0 0 1-.046.007h-.332a.112.112 0 0 1-.112-.072.106.106 0 0 1-.007-.047Zm8.731 0v-3.843a.122.122 0 0 1 .006-.047.11.11 0 0 1 .112-.072h.356c.048 0 .119.024.142.072l2.61 3.179v-3.132a.107.107 0 0 1 .033-.086.112.112 0 0 1 .086-.032h.332a.112.112 0 0 1 .086.032c.011.011.02.025.026.04.005.014.008.03.007.046v3.843a.123.123 0 0 1-.007.047.114.114 0 0 1-.065.065.112.112 0 0 1-.047.007h-.38c-.047 0-.118-.024-.142-.071l-2.61-3.156v3.108a.106.106 0 0 1-.007.047.11.11 0 0 1-.065.065.11.11 0 0 1-.046.007h-.333c-.047 0-.094-.047-.094-.119Zm11.862-1.28v-1.258c0-.902.379-1.4 1.376-1.4h1.305c.949 0 1.328.427 1.376 1.258a.107.107 0 0 1-.033.086.106.106 0 0 1-.039.025.112.112 0 0 1-.047.007h-.356a.11.11 0 0 1-.111-.072.106.106 0 0 1-.007-.046c-.024-.546-.238-.712-.807-.712h-1.305c-.593 0-.806.19-.806.83V78.6c0 .664.237.83.806.83h1.305c.569 0 .807-.19.807-.83v-.261h-1.258a.108.108 0 0 1-.046-.007.11.11 0 0 1-.072-.112v-.284a.106.106 0 0 1 .007-.047.11.11 0 0 1 .111-.072h1.708a.112.112 0 0 1 .112.072c.006.015.008.03.007.047v.64c0 .902-.379 1.4-1.376 1.4h-1.305c-.973 0-1.352-.522-1.352-1.4Z"/></g><defs><clipPath id="a"><path fill="#fff" d="M0 0h210v80H0z"/></clipPath></defs></svg>