<svg xmlns="http://www.w3.org/2000/svg" fill="none" viewBox="0 0 210 80"><path fill="#AAC9A5" d="M101.808 63.712c.706 0 1.384-.009 2.064.009.094 0 .22.108.276.2.293.492.569.996.854 1.495.055.097.12.19.208.326.361-.625.692-1.215 1.044-1.793.065-.108.217-.225.331-.228.666-.02 1.335-.012 2.03-.012v6.1h-1.918v-2.997c-.029-.009-.059-.017-.085-.03-.469.799-.939 1.596-1.437 2.441-.475-.833-.927-1.622-1.379-2.41-.023.008-.05.014-.073.023v2.98h-1.915v-6.107.003ZM114.98 68.197h3.56v1.616h-5.282v-6.08h5.288v1.6h-3.555v.564h3.194v1.642h-3.205v.657ZM87.495 64.542c-.45.416-.886.821-1.358 1.255-.355-.416-.866-.616-1.476-.601-.953.026-1.61.663-1.604 1.59 0 .909.651 1.554 1.587 1.566.196 0 .399-.015.592-.053.505-.097.502-.103.44-.651h-1.023v-1.379h2.844c.01.06.024.124.027.191 0 .88.009 1.76-.006 2.637 0 .111-.08.284-.167.326-1.267.574-2.587.76-3.936.375-1.47-.42-2.37-1.698-2.273-3.124.111-1.636 1.126-2.766 2.713-3.03a5.349 5.349 0 0 1 2.399.141c.466.135.877.373 1.24.76v-.003ZM126.489 65.665c-.434-.448-.933-.545-1.478-.404-.141.035-.256.17-.382.26.109.103.203.253.335.3.328.12.674.19 1.009.29.258.076.516.156.762.258 1.484.625 1.209 2.317.376 2.96-.637.49-1.367.636-2.144.65-1.112.024-2.048-.293-2.746-.95.475-.43.951-.859 1.443-1.308.358.414.798.651 1.347.625.284-.015.683.006.733-.331.047-.326-.355-.344-.593-.426-.475-.164-.973-.26-1.44-.44-.592-.228-1.061-.604-1.132-1.302-.076-.762.232-1.346.862-1.763 1.215-.8 3.3-.671 4.464.3-.466.422-.929.838-1.41 1.272l-.006.01ZM91.272 69.836c.305-.774.59-1.502.874-2.229.473-1.208.954-2.414 1.411-3.628.082-.217.185-.282.405-.273.434.018.868-.006 1.3.012.099 0 .248.088.284.17.777 1.944 1.542 3.892 2.308 5.84.009.017 0 .044-.006.105-.578 0-1.158 0-1.74-.006-.06 0-.128-.073-.181-.123-.03-.03-.035-.085-.053-.129-.138-.308-.2-.724-.434-.889-.223-.155-.633-.047-.959-.047-.845 0-.862-.005-1.14.775-.118.325-.268.46-.626.43-.46-.037-.93-.008-1.443-.008Zm3.27-3.877c-.134.44-.24.774-.348 1.126h.698l-.352-1.126h.003ZM93.739 11.396h-.481v19.642h.481V11.396Z"/><path fill="#AAC9A5" d="M120.758 16.517H88.451v.481h32.307v-.48ZM120.758 24.33H88.451v.482h32.307v-.481Z"/><path fill="#AAC9A5" d="M101.462 11.396h-.479v19.642h.479V11.396ZM108.307 11.396h-.481v19.642h.481V11.396Z"/><path fill="#5F8E90" d="M120.409 10H88.641a1.48 1.48 0 0 0-1.48 1.481v19.311a1.48 1.48 0 0 0 1.48 1.481h31.768c.818 0 1.484-.663 1.484-1.481v-19.31c0-.82-.666-1.482-1.484-1.482Zm.349 20.813c0 .123-.1.225-.226.225H88.677a.226.226 0 0 1-.226-.226v-19.19c0-.123.1-.226.226-.226h31.855c.126 0 .226.103.226.226v19.19Z"/><path fill="#AAC9A5" d="M116.03 11.396h-.481v19.642h.481V11.396Z"/><path fill="#000" d="M95.173 21.967a4.106 4.106 0 1 0 0-8.213 4.106 4.106 0 0 0 0 8.213ZM114.079 21.967a4.106 4.106 0 1 0 0-8.212 4.106 4.106 0 0 0 0 8.212ZM110.255 22.324v.924a5.613 5.613 0 0 1-11.225 0v-.924h1.566v.957a4.045 4.045 0 1 0 8.092 0v-.957h1.567ZM173.05 58.708c-1.326-.003-2.648-.011-3.974-.003-.226 0-.329-.07-.411-.284-.724-1.904-1.463-3.801-2.191-5.702-.525-1.367-1.038-2.74-1.557-4.109-.073-.194-.126-.42-.466-.305.049.402.093.812.152 1.22.094.66.197 1.317.299 1.977.367 2.332.118 4.68.191 7.021 0 .041-.006.085-.012.15h-4.904V37.251h4.189c.598 1.548 1.205 3.114 1.806 4.684.707 1.841 1.402 3.69 2.118 5.528.044.109.226.164.343.246l.088-.076c-.141-.93-.296-1.86-.416-2.792-.091-.704-.182-1.417-.194-2.123-.026-1.707-.009-3.412-.009-5.119v-.38h4.951v21.49h-.003ZM144.829 47.98c0-2.3-.006-4.6 0-6.899.006-2.044 1.381-3.728 3.393-4.045a9.37 9.37 0 0 1 1.344-.123 108.38 108.38 0 0 1 3.909 0c.904.024 1.775.208 2.549.73 1.015.684 1.584 1.634 1.757 2.834.038.27.062.542.062.812.002 4.546.008 9.093 0 13.636a4.02 4.02 0 0 1-1.138 2.836 3.897 3.897 0 0 1-2.391 1.185 9.854 9.854 0 0 1-1.1.064c-1.419.006-2.839.018-4.258 0-1.162-.017-2.194-.413-3.004-1.26-.715-.752-1.106-1.673-1.114-2.714-.021-2.352-.006-4.704-.006-7.057h-.003Zm4.942.014v5.309c0 .554.22.9.771 1.018.405.085.836.067 1.253.07.665.006 1.108-.428 1.108-1.088v-10.68c0-.55-.407-1.064-1.047-1.032a7.877 7.877 0 0 1-.985 0c-.704-.053-1.106.446-1.103 1.097.006 1.769 0 3.537 0 5.309l.003-.003ZM46.526 50.4c.66 1.583 1.314 3.155 1.974 4.727.141.337.3.666.429 1.006.064.17.114.36.12.543.015.663.006 1.328.006 2.026h-.276c-1.334 0-2.669-.002-4.004.003-.214 0-.29-.064-.351-.281-.311-1.12-.652-2.232-.977-3.347-.332-1.135-.666-2.27-.983-3.41-.082-.291-.193-.453-.53-.412-.303.036-.61.006-.942.006v7.415H36V37.227h.349c2.637 0 5.277-.02 7.913.009 1.481.015 2.743.572 3.596 1.827.423.625.678 1.337.69 2.115.02 1.798.055 3.596.058 5.39 0 .886-.153 1.743-.645 2.508-.364.563-.807 1.044-1.431 1.323h-.004Zm-5.537-3.828c.61 0 1.19.017 1.772-.006.454-.018.835-.434.838-.895.01-.953.01-1.906 0-2.86-.002-.407-.237-.774-.63-.824-.651-.082-1.311-.073-1.98-.102v4.687ZM93.117 58.69H88.59c-.264-.9-.528-1.794-.792-2.689-.288-.985-.572-1.974-.863-2.96-.155-.527-.305-1.055-.478-1.577-.029-.085-.161-.19-.252-.194-.37-.02-.739-.009-1.147-.009v7.418h-4.936V37.227h.337c2.628 0 5.256-.018 7.884.009 1.194.012 2.288.37 3.142 1.255.657.68 1.088 1.505 1.114 2.452.056 2.07.088 4.147.059 6.218-.015.983-.44 1.862-1.118 2.587-.202.217-.472.378-.727.534-.159.097-.194.167-.117.346a993.42 993.42 0 0 1 2.328 5.482.9.9 0 0 1 .088.328c.01.74.003 1.481.003 2.25l.003.003Zm-8.054-16.776v4.657c.601 0 1.185.018 1.763-.005a.88.88 0 0 0 .833-.798c.047-.684.058-1.367.064-2.05a8.16 8.16 0 0 0-.064-1.036c-.044-.366-.425-.753-.772-.765-.6-.018-1.205-.006-1.827-.006l.003.003ZM77.385 58.7h-.376c-2.754 0-5.508.026-8.262-.01-1.863-.023-3.429-1.202-3.895-3.07a4.865 4.865 0 0 1-.132-1.15c-.009-4.417-.035-8.837.012-13.254.014-1.47.721-2.637 2.023-3.39.73-.423 1.534-.593 2.364-.596 2.332-.012 4.66-.003 6.993-.003h.41v1.446c0 .572.01 1.144-.006 1.716a.631.631 0 0 1-.155.381c-.373.39-.704.9-1.167 1.097-.44.188-1.021.047-1.54.047h-2.989c-.601 0-1.009.39-1.009.994-.003 3.39-.003 6.781 0 10.172 0 .54.402.968.968.991.707.03 1.414.006 2.15.006v-7.285h4.61v11.907ZM122.465 58.7v-4.623h.355c1.927 0 3.857-.006 5.783.003.71.003 1.25-.138 1.332-1.088.047-.531-.009-1.07-.047-1.604-.038-.493-.381-.757-.815-.883-1.144-.332-2.3-.64-3.447-.96-.788-.22-1.539-.507-2.149-1.09a2.844 2.844 0 0 1-.886-1.79c-.097-.918-.115-1.847-.138-2.771a44.712 44.712 0 0 1 0-2.51c.038-1.124.416-2.127 1.22-2.934.713-.716 1.593-1.138 2.599-1.15 2.707-.029 5.414-.011 8.174-.011v.249c0 .941.009 1.886-.009 2.827 0 .147-.085.32-.185.431-.352.382-.671.877-1.114 1.065-.443.185-1.021.05-1.54.053h-3.018c-.716 0-1.035.211-1.156.91a4.71 4.71 0 0 0-.008 1.422c.085.598.548.85 1.099.997 1.282.343 2.57.674 3.834 1.082 1.346.434 2.203 1.352 2.411 2.792.07.496.117 1 .126 1.502.018 1.217.015 2.437.003 3.655-.012 1.316-.387 2.487-1.405 3.393a3.914 3.914 0 0 1-2.065.962c-.434.065-.88.068-1.323.068-2.416.005-4.83 0-7.247 0h-.39l.006.002ZM120.775 37.289c0 1.064 0 2.152-.003 3.24 0 .056-.044.112-.073.165-.02.035-.059.058-.088.09-.375.373-.692.892-1.144 1.08-.451.188-1.041.05-1.572.05h-3.05c-.619 0-1 .25-1.088.848-.071.495-.053 1.014.003 1.513.07.613.56.818 1.088.965 1.279.352 2.569.677 3.83 1.085 1.344.434 2.215 1.35 2.408 2.792.088.663.118 1.338.129 2.01a86.4 86.4 0 0 1 0 3.179c-.017 1.355-.437 2.546-1.498 3.449a3.82 3.82 0 0 1-1.974.874c-.478.068-.965.068-1.449.07-2.373.006-4.746 0-7.119 0h-.387v-4.622H114.994c.857 0 1.215-.3 1.273-1.153.033-.49-.026-.985-.05-1.48-.029-.543-.375-.816-.853-.951-1.138-.323-2.279-.63-3.417-.95-.798-.226-1.56-.517-2.17-1.118a2.917 2.917 0 0 1-.863-1.765c-.094-.769-.117-1.55-.135-2.326a73.676 73.676 0 0 1 0-2.86c.018-1.188.411-2.235 1.27-3.07.716-.696 1.59-1.098 2.587-1.107 2.696-.023 5.394-.008 8.139-.008ZM51.633 37.242H62.98v.83c0 .794.005 1.59-.006 2.384 0 .13-.07.282-.159.379a11.84 11.84 0 0 1-.9.897.73.73 0 0 1-.434.176c-1.493.012-2.989.009-4.482.009h-.358v3.76h4.153v4.622h-4.153v3.766h6.312v4.611H51.633V37.242ZM95.757 37.239h11.348v.7c0 .816.005 1.632-.006 2.447a.6.6 0 0 1-.156.378c-.372.39-.704.898-1.167 1.097-.44.188-1.021.047-1.54.047h-3.537v3.76h4.156v4.623h-4.153v3.766h6.376v4.61H95.757V37.236v.003ZM137.341 37.242h4.91v21.44h-4.91v-21.44Z"/></svg>