<svg xmlns="http://www.w3.org/2000/svg" fill="none" viewBox="0 0 210 80"><path fill="#333" fill-rule="evenodd" d="M102.626 36.904h-5.061v12.385c0 .151.117.268.268.268h7.639c.151 0 .268.116.268.268v3.359a.264.264 0 0 1-.268.268h-6.823c-.688 0-1.037 0-1.352-.128-.315-.129-.56-.362-1.05-.852l-2.076-2.04c-.49-.479-.734-.724-.863-1.027-.128-.303-.128-.641-.128-1.318V36.892h-2.869c-.221 0-.396-.117-.396-.268v-3.359c0-.151.175-.268.396-.268h2.869v-6.729c0-.151.117-.268.268-.268h3.825c.152 0 .269.117.269.268v6.73h5.061c.151 0 .268.116.268.267v3.359a.264.264 0 0 1-.268.268l.023.012Zm31.102 16.28a.263.263 0 0 1-.268.268h-3.825a.263.263 0 0 1-.268-.268V26.268c0-.151.116-.268.268-.268h3.825c.152 0 .268.117.268.268v26.916Zm33.703-7.23c.151 0 .268.116.268.268v.28c0 1.27.257 2.134.863 2.693.606.572 1.703.957 3.65.957 1.948 0 3.219-.304 3.988-.793.735-.467 1.062-1.12 1.062-2.018 0-.35-.117-.595-.292-.793-.198-.21-.513-.396-.979-.56-.933-.326-2.228-.478-3.721-.641h-.058c-1.936-.222-4.151-.467-5.889-1.283-.886-.42-1.679-.991-2.251-1.807-.571-.828-.874-1.855-.874-3.114 0-2.041.921-3.732 2.519-4.91 1.597-1.154 3.836-1.772 6.483-1.772 2.648 0 4.84.676 6.368 1.994 1.539 1.33 2.332 3.254 2.332 5.61v.279a.263.263 0 0 1-.268.268h-3.953a.264.264 0 0 1-.269-.268v-.28c-.023-1.388-.408-2.286-1.049-2.857-.653-.571-1.679-.898-3.161-.898-1.586 0-2.717.338-3.451.851-.712.49-1.062 1.167-1.062 1.971 0 .455.14.782.35 1.038.233.268.583.49 1.085.665 1.014.373 2.414.525 4 .688h.058c1.878.198 3.977.42 5.609 1.154.84.374 1.586.91 2.123 1.668.536.758.828 1.714.828 2.892 0 2.11-.851 3.825-2.519 5.003-1.644 1.155-4.012 1.75-6.997 1.75-3.312 0-5.598-.805-7.056-2.193-1.457-1.4-1.994-3.289-1.994-5.283v-.28c0-.151.129-.268.268-.268h3.954l.035-.012Zm-20.467-12.689a.263.263 0 0 0-.268-.268h-3.953a.263.263 0 0 0-.268.268V46.49c0 2.367.723 4.268 2.122 5.574 1.399 1.295 3.394 1.936 5.808 1.936 2.414 0 4.863-.653 6.658-2.647l.117 1.854c0 .14.128.257.268.257h3.301a.264.264 0 0 0 .268-.269v-19.93a.264.264 0 0 0-.268-.268h-3.965a.264.264 0 0 0-.269.268v10.496c0 1.854-.454 3.452-1.329 4.571-.863 1.097-2.169 1.785-4.023 1.785-1.435 0-2.461-.408-3.137-1.073-.677-.677-1.062-1.68-1.062-3.02V33.264Zm-6.682 19.919a.264.264 0 0 1-.268.268h-3.825a.263.263 0 0 1-.268-.268V26.268c0-.151.116-.268.268-.268h3.825c.151 0 .268.117.268.268v26.916Zm-13.563-8.852h-15.731c.117.972.435 1.91.933 2.752 1.002 1.691 2.67 2.764 4.734 2.764 2.834 0 5.015-1.48 5.586-3.463l.059-.21a.273.273 0 0 1 .256-.198h4.257c.175 0 .303.163.268.338l-.093.35c-1.272 4.921-5.54 7.312-10.344 7.312-4.805 0-8.14-2.73-9.61-6.6a11.667 11.667 0 0 1-.746-4.164c0-1.05.128-2.064.373-3.032 1.12-4.455 4.77-7.732 9.994-7.732 6.379 0 10.356 4.875 10.356 10.764 0 .198 0 .385-.012.583v.268c-.023.14-.14.257-.28.257v.011Zm-15.335-3.86h10.554c-.828-2.309-2.717-3.86-5.283-3.86-2.565 0-4.455 1.551-5.283 3.86h.012Zm-69.76-14.017c-.502 0-.98.198-1.33.536l-11.16 10.997a.467.467 0 0 0 .326.793H43.5c.257 0 .467.21.467.467v13.83c0 .409.502.619.805.327l8.501-8.373v7.615c0 .502.408.898.922.898h10.682c.501 0 .921-.408.921-.898v-13.4c0-.244.21-.454.455-.454H79.85c.501 0 .92-.408.92-.898V27.353a.904.904 0 0 0-.92-.898H69.297a9.18 9.18 0 0 0-6.473 2.647l-6.32 6.24V26.91a.468.468 0 0 0-.467-.467h-14.39l-.024.012Z" clip-rule="evenodd"/></svg>