<svg xmlns="http://www.w3.org/2000/svg" fill="none" viewBox="0 0 210 80"><path fill="#000" d="m158.051 50.215-1.345-.304c-5.092-1.123-8.54-5.516-8.299-10.573.253-5.298 4.081-9.426 9.328-10.046 4.46-.527 8.259.729 10.908 4.456 4.54 6.387.581 15.2-7.259 16.318-.184.029-.356.098-.534.15h-2.805.006Zm1.437-15.997c-3.19-.017-5.707 2.39-5.707 5.464 0 3.04 2.471 5.43 5.632 5.453 3.213.023 5.696-2.356 5.684-5.459-.006-3.073-2.442-5.441-5.609-5.458Zm-25.667 15.997-1.661-.384c-4.937-1.244-8.253-5.608-7.977-10.493.298-5.258 3.954-9.317 9.086-10.017 4.23-.579 7.954.47 10.707 3.848 2.54 3.113 3.04 6.708 1.563 10.43-1.488 3.75-4.448 5.78-8.379 6.473-.184.034-.357.097-.535.15h-2.804v-.007Zm7.052-10.544c-.006-3.08-2.437-5.447-5.61-5.459-3.195-.011-5.701 2.391-5.701 5.464 0 3.08 2.5 5.465 5.713 5.453 3.172-.011 5.603-2.385 5.598-5.464v.006ZM34.589 29c1.701.31 3.39.648 4.885 1.577l2.161 1.462-3.04 3.882-2.253-1.267c-3.04-1.342-6.707.275-7.62 3.365-.627 2.11-.116 3.974 1.528 5.448 1.695 1.53 3.684 1.909 5.822 1.095.856-.327 1.62-.895 2.557-1.428l2.972 3.916c-1.684 1.508-3.558 2.495-5.736 2.787-4.293.573-7.989-.642-10.701-4.077-4.776-6.05-1.219-14.96 6.494-16.445.644-.126 1.293-.212 1.937-.315h.994Z"/><path fill="#56A9EC" d="m54.532 29-.213 2.73c-.074.705.023 1.605-.373 2.046-.35.396-1.282.264-1.943.407-2.172.453-3.655 1.72-4.253 3.87-.597 2.145-.023 3.992 1.604 5.517l.552.499-4.196 3.274c-1.828-1.548-2.96-3.458-3.397-5.763-1.15-6.072 2.891-11.605 9.035-12.437.184-.023.368-.097.546-.143h2.638Z"/><path fill="#000" d="m78.504 41.557 5.362 7.982c-2.12 0-4.064.017-5.995-.023-.212 0-.477-.327-.62-.562l-4.34-6.984c-.155-.252-.327-.493-.649-.705v8.216H66.93V29.654c.04-.03.063-.058.086-.058 3.098.029 6.213-.149 9.282.155 3.029.298 5.281 2.747 5.609 5.539.287 2.489-.684 4.432-2.741 5.843-.202.137-.409.264-.661.418v.006Zm-6.242-3.228h1.943c.218 0 .436-.023.65-.063 1.062-.195 1.718-.975 1.695-1.99a1.957 1.957 0 0 0-1.788-1.92c-.804-.075-1.626-.018-2.5-.018v3.991ZM99.47 49.522H86.63v-19.77h12.857v4.844h-7.615v2.758h6.253v4.415h-6.253v2.799h7.597v4.954Zm78.72-.023h-5.379l-.04-.9-.018-18.16c0-.717.173-.94.914-.923 2.385.052 4.776-.011 7.161.04 3.362.075 6.414 2.552 7.041 5.642.758 3.745-1.822 7.512-5.753 8.246-1.253.235-2.558.195-3.926.28V49.5Zm0-10.757h2.069c.167 0 .328 0 .495-.023 1.155-.11 1.988-.912 2.057-1.978.069-1.113-.603-2.059-1.759-2.214-.931-.126-1.89-.023-2.862-.023v4.238Zm-69.397-9.163h5.264v14.989h7.707v4.93h-12.971V29.58Z"/><path fill="#56A9EC" d="m57.4 35.806 3.764-3.463c2.052 1.405 4.018 6.043 2.58 10.453-1.367 4.209-5.896 7.43-10.396 7.179V45.02c2.167-.212 4.04-1.095 4.994-3.285.937-2.139.506-4.111-.942-5.929Z"/></svg>