<svg xmlns="http://www.w3.org/2000/svg" xml:space="preserve" id="Layer_1" x="0" y="0" style="enable-background:new 0 0 499.8 102.4" version="1.1" viewBox="0 0 499.8 102.4"><style>.st0{fill:#fff}</style><path d="m303.4 0 5.7.6c6.2.8 12.2 2.4 17.7 5.5 7.3 4.2 12.2 10.4 14.7 18.5 3.2 10.5 3.4 21.1 0 31.6-3.6 11.4-11.6 18.6-23 22.1-5.4 1.7-10.9 2.3-16.5 2.3h-21.8c0-.3-.1-.5-.1-.8V-.1l23.3.1zm-11.3 70.6h6.7c5.3 0 10.5-.4 15.6-2 7.8-2.4 13.1-7.4 15.5-15.3 1.9-6.4 2.2-12.9 1.2-19.5-.7-4.7-2.2-9-5.1-12.8-4.3-5.8-10.2-8.7-17.1-10.1-5.4-1.1-11-.8-16.4-.7-.1 0-.2.1-.4.1v60.3zM29.1 0l5.7.6c6.3 1 12 3.5 16.1 8.6 3.4 4.2 4.8 9.1 4.9 14.4.1 6.7-1.7 12.7-6.4 17.6-3.8 3.9-8.5 6.2-13.8 6.8-4 .5-8 .7-12 .8H0V0h29.1zM11.9 10.4v28.2c.3 0 .6.1.8.1h13.2c2.2 0 4.5-.2 6.7-.7 5.2-1.1 9.1-3.9 10.4-9.3.4-1.8.5-3.7.5-5.5-.1-5.9-3.2-9.9-8.9-11.6-3.3-1-6.6-1.1-10-1.1-4.2-.1-8.4-.1-12.7-.1zM0 59.3c.3 0 .7-.1 1.1-.1h10.8v21.6H0V59.3zm161.1-30.6v-7.2h11.3c0 .2.1.5.1.8v48.4c0 5.7-.9 11.3-3.2 16.5-3.2 7.4-8.9 12.1-16.7 14-7.4 1.8-14.7 1.8-21.9-1-7.9-3.1-12.5-9.1-14.8-17.1v-.2h11.4c.3 0 .6.4.8.8 1.6 3.6 3.9 6.5 7.6 8 1.8.7 3.7 1.1 5.6 1.3 2.8.4 5.6 0 8.3-.7 3.9-1.1 6.8-3.4 8.7-7 2.7-5.2 3-10.8 3.1-16.6-.2.1-.3.1-.4.1-3.2 5-8 7.7-13.6 8.7-7 1.3-13.8.7-20.1-2.9-6.8-3.8-10.7-9.8-12.4-17.3-1.9-8.6-1.2-17 3.2-24.7 4.3-7.5 10.9-11.7 19.5-12.7 5.6-.7 11-.1 16.1 2.4 2.8 1.4 5.2 3.5 7.4 6.4zm-34.9 20.2c.2 1.7.3 3.4.6 5.1 1.5 8.9 7.8 14.4 16.8 14.7 7.5.2 13.8-3.9 16.4-11 2-5.5 2.1-11.2.4-16.8-1.2-4-3.6-7.2-7.2-9.3-3.8-2.2-7.8-2.7-12.1-2.1-5.1.7-9 3.1-11.7 7.5-2.4 3.6-3.1 7.7-3.2 11.9zm65 5.2c-.5 8.1 5.7 16.3 13.7 18.1 3.1.7 6.1.7 9.2.1 4.6-.9 7.8-3.7 10.2-7.6.5-.8 1-1 1.8-1H236.5c-.6 1.5-1.1 2.9-1.8 4.2-4.1 7.9-10.8 12.3-19.5 13.8-5.7.9-11.4.6-16.9-1.3-7.9-2.7-13.4-8-16.3-15.8-3.6-10-3.4-19.9 1.4-29.5 4.4-8.9 11.9-13.7 21.6-15 5.5-.7 10.9-.3 16.1 1.9 7.2 3 11.7 8.4 14.4 15.5 2 5.3 2.3 10.8 2.2 16.3 0 .1-.1.1-.1.3h-46.4zm34.4-9.1c-.9-10.2-7.9-16.4-18-15.9-8.6.4-16.2 8-16 15.9h34zM107.9 80.7H97.2l-.5-8c-.4.5-.7.8-.9 1.2-3.3 4.2-7.7 6.6-12.9 7.5-5.6.9-11.1.8-16.4-1.2-5.6-2.1-9.5-5.7-10.7-11.7-1.6-8 1.5-14.2 8.9-17.9 4.3-2.2 8.9-3.3 13.6-4.1 5.7-.9 11.5-1.6 17.2-2.3.4-7.4-3.1-14.5-12.1-15-3-.2-5.8.4-8.3 2.1-2.7 1.9-4.3 4.6-4.5 7.9 0 .2 0 .4-.1.6 0 .1-.1.1-.1.2h-11c-.1-2.5.4-5 1.3-7.3 2.1-5.4 6.1-8.9 11.4-10.9 7-2.6 14.1-2.5 21-.2 6.2 2 9.8 6.6 11.7 12.7 1.2 3.8 1.7 7.7 1.7 11.6.1 4.9 0 9.9 0 14.8 0 6.5.2 13 1.3 19.4.2.1.2.3.1.6zM95.6 52.5h-.5l-13.6 1.8c-3.2.5-6.4 1.3-9.4 2.9-2 1.1-3.5 2.5-4.2 4.8-1.3 4.3.6 8.5 4.8 10.4 3.2 1.4 6.6 1.5 9.9 1 5.2-.8 9.1-3.4 11.2-8.3 1.8-4.1 1.9-8.3 1.8-12.6zm404.2-31.1-1.3 3.3-25.2 63c-3.7 9.1-11.9 14.6-21.7 14.6h-5.4V92.2c1.8 0 3.5.1 5.3 0 1.7-.2 3.5-.4 5-.9 3.2-1.2 5.2-3.6 6.7-6.7 1.3-2.6 1.2-4.9.2-7.7l-20.9-54.2c-.1-.4-.3-.8-.4-1.3h12.2c.6 0 .9.1 1 .7l15.1 44.7c.1.3.2.7.4 1.2.2-.4.3-.7.4-.9l15.6-44.6c.3-.8.6-1.1 1.5-1 3.4.1 6.8 0 10.2 0l1.3-.1zm-109.9.1h11.4v59.1h-10.8v-8.1c-.2.2-.4.2-.4.3-4.5 6.7-11 9.4-18.8 9.3-4.5 0-8.7-.9-12.4-3.5-3.9-2.8-6.1-6.8-7-11.5-.6-2.8-.9-5.8-.9-8.7V21.5h11.4V55.7c0 3.1.5 6.1 1.5 9 2.2 6 6.8 8.4 12.8 7.9 6.5-.5 10.2-4 11.9-11 .9-3.6 1.2-7.3 1.2-11V22.7c.2-.3.2-.7.1-1.2zm25.6 8.7h-8.8v-8.8h8.8v-16H427v15.9h11v8.8h-11v35c0 .9 0 1.8.2 2.6.5 3.3 2.5 5 6 5.2 1.3.1 2.5 0 3.9 0v7.5c0 .3-.3.8-.5.8-4.4.7-8.8.6-13-1-4.6-1.7-7-5.1-7.7-9.8-.2-1.6-.3-3.2-.4-4.8V30.2zM245 21.5h10.8v6.9c1.6-3.2 4-5.5 7.3-6.9 3.2-1.4 6.5-1.7 10-1.3v10.4c-2.5-.4-5-.5-7.4 0-3.5.7-5.9 2.8-7.4 6.1-1.2 2.9-1.7 5.9-1.8 9l-.1 17.8v17.1H245V21.5z" class="st0"/></svg>