<svg xmlns="http://www.w3.org/2000/svg" xml:space="preserve" style="enable-background:new 0 0 611.3 149.9" viewBox="0 0 611.3 149.9"><path d="m0 69.1 1.5-8.9c2.1-10.9 6.5-20.7 13-29.7.6-.8 1.2-1.1 2.2-1.1 11.7-.2 21.6 3.9 29.9 11.9 5.4 5.2 8.7 11.6 10.3 18.8.2.8 0 1.4-.5 2-5.8 9.6-10.7 19.5-14.4 30-2 5.7-3.6 11.4-3.9 17.4-.2 4 .1 8 2.6 11.4 2.8 3.7 7.5 4.4 11.3 1.8 3.6-2.5 5.5-6.2 7-10.1 3.1-7.7 4.4-15.8 5-24.1.6-8.1.6-16.3-.6-24.4-.2-1.2.1-2.1.8-3.2 3.7-5.7 7.7-11.1 12.4-16 4.6-4.8 9.6-8.8 16.4-10.1 7.5-1.4 13.1 2 15.2 9.3 1.8 6.3 1.1 12.5-.5 18.7-1.6 6-4.1 11.5-8.7 15.8-6 5.6-13.1 8.2-21.5 6.6-1.8-.4-3.4-1.2-5-2.2s-3.3-.8-4.3.6c-.9 1.3-.6 3.1.9 4.2 2.9 2.2 6.3 3.3 10 3.6 12.8.8 22.5-4.5 29.2-15.3 4.7-7.5 6.8-15.8 6.8-24.6 0-5.4-1-10.5-4.1-15.1-4.3-6.4-10.5-8.5-17.9-7.5-7.6 1-13.5 4.9-18.8 10.1-4.3 4.2-8 8.8-11.5 13.6-.4.6-.9 1.2-1.4 1.9-7.4-18.6-21.3-28.4-40.8-31-.1-.2.2-.5.5-.7C33 10.8 47.3 3.3 64.1 1c20.3-2.8 39 1.8 55.5 14.1 14.5 10.8 24.1 25 28 42.6 6.3 28.8-1.4 53.5-23.1 73.5-11 10.2-24.2 16.2-39 18.2-23.3 3.1-43.9-3.1-61.4-18.9-13.3-12-21-27.1-23.7-44.8-.2-1.4-.3-2.8-.6-4.3.2-4.3.2-8.2.2-12.3zm49.5 19.6c2.6-6.1 5.3-12 8.7-17.6.4 3 .4 5.9.3 8.9-.1 9.3-1.1 18.5-3.9 27.4-1 3.3-2.4 6.4-4.7 9.1-.9 1-1.8 1.9-3.2 1.7-1.3-.2-1.8-1.4-2.2-2.5-1-3.1-.8-6.2-.3-9.3 1.1-6.1 3-11.9 5.3-17.7zm561.8-8.4c-.7 3-1.5 5.9-3.3 8.5-2.7 4-6.3 6.8-11.1 7.7-2.8.5-5.8.9-8.7.6-8.2-.7-14.2-5-17.3-12.6-3.3-8.2-2.5-16.3 3.2-23.4 2.9-3.6 6.7-6 11.3-7 5.2-1.1 10.3-.9 15.2 1.2 3.7 1.7 6.6 4.3 8.8 8.1-2.3 1.2-4.4 2.5-6.7 3.6-.3.2-1.2-.4-1.5-.9-2.2-3.1-5-5-8.8-5.4-6.2-.7-12.2 3.5-14 9.8-1.8 6.4-.5 12.1 4.6 16.6 5.5 4.9 15.8 3.7 18.4-3.9.3-.8.4-1.6.7-2.6h-9.7V74h17.7c.4 0 .9.1 1.3.1l-.1 6.2zm-236.7-12V94.2c0 1.4-.4 1.9-1.8 1.8-1.8-.1-3.5-.1-5.3 0-1.1.1-1.5-.4-1.4-1.4V54.9c0-1.3.4-1.6 1.7-1.8 3-.3 4.9.7 6.8 3 5.2 6.3 10.6 12.4 16 18.5 2 2.3 4.1 4.5 6.3 7 .1-.6.2-.9.2-1.3V55.8c0-1.2.3-1.7 1.6-1.6 2.2.1 4.5 0 6.8 0 0 .7.1 1.4.1 2v38.6c0 1.9 0 1.7-1.8 2-3.1.5-5-.9-7-3.2l-21.3-24.4c-.2-.4-.4-.5-.9-.9zm153.1.2v27.4h-7.5c-.3 0-.8-.5-.8-.9-.1-.7 0-1.5 0-2.2V54.5c0-1.1.2-1.5 1.5-1.6 3-.3 5.1.6 7.1 3 6.5 7.8 13.4 15.4 20.1 23.1.7.8 1.4 1.5 2.4 2.6V54.2h8.3v42.4h-5.4c-.3 0-.6-.3-.8-.5l-18.4-20.9-6-6.7c-.4-.1-.5 0-.5 0zM260.8 95.9c-3 0-5.8 0-8.5-.1-.3 0-.7-.6-.9-1l-2.9-6.9c-.2-.4-.8-.8-1.2-.8-4.9-.1-9.8 0-14.7-.1-.9 0-1.4.3-1.7 1.2-.9 2.3-1.8 4.5-2.8 6.7-.2.4-.8.8-1.3.8-2.1.1-4.2.1-6.3 0-1.4 0-1.6-.2-1-1.5l6.1-14.4 7.6-18c1.1-2.7 2.3-5.4 3.5-8 .2-.4.9-.8 1.4-.9 1.2-.1 2.4 0 3.7-.1 1.2-.1 1.8.5 2.2 1.5l10 24.3 6.3 15.2c0 .8.2 1.3.5 2.1zm-20.7-29.5c-.1 0-.3 0-.4-.1l-5.5 13.9h11.3l-5.4-13.8zm-52.8 8.4V55.7c0-1.1.2-1.6 1.6-1.6l14.2.1c4.6.2 8.2 2.3 10.4 6.4 3.2 5.9 1.5 13.9-3.6 17.3-2.5 1.6-5.2 2.2-8.1 2.3-1.6 0-3.1.1-4.7 0-1 0-1.4.4-1.3 1.4.1 4.2 0 8.4.1 12.6 0 1.2-.3 1.8-1.6 1.7-1.8-.1-3.5-.1-5.3 0-1.2.1-1.5-.5-1.5-1.5v-6.3c-.2-4.4-.2-8.9-.2-13.3zm8.5-1.7c.4.1.7.2 1.1.2 1.6-.1 3.2-.1 4.8-.3 2.1-.2 4-1.9 4.5-3.8.7-3.1 0-5.5-2-6.8-2.6-1.7-5.4-1.2-8.4-1.4v12.1zm156.7 22.7h-23.1l-.2-3.2V56.9c0-2.8 0-2.8 2.8-2.8h19.4c.3 0 .6 0 1 .1v7h-14.6l-.2 1.5v6c0 1.1.4 1.4 1.4 1.4h12.9v6.7c0 .2-.8.6-1.2.7-3.8.1-7.5.1-11.3 0-1.4 0-1.9.3-1.8 1.8.1 2.6.1 5.2 0 7.8 0 1.1.3 1.5 1.4 1.4 4-.1 7.9 0 11.9-.1 1.1 0 1.7.3 1.6 1.6-.1 1.9-.1 3.8 0 5.8zm106.1-41.7h2.1c4 0 7.9.2 11.9 0 9.3-.3 14.6 6.9 13.2 15.9-.9 6-5.4 9.7-11.3 10.1-2.5.2-5 0-7.8 0V94.4c0 1.1-.3 1.6-1.5 1.5-1.9-.1-3.8 0-5.7 0-.8 0-1.1-.2-1.1-1.1l.1-40.2c0-.1 0-.2.1-.5zm8.1 13v5c0 .9.3 1.2 1.2 1.2 1.6-.1 3.1-.1 4.7-.3 2.3-.2 3.9-1.5 4.6-3.7.8-2.4.6-4.7-1.3-6.5-2.4-2.3-5.5-1.7-8.5-1.8-.2 0-.6.7-.6 1.1-.1 1.7 0 3.3-.1 5zm-30.2-5.8V94.5c0 1-.2 1.5-1.4 1.5-2.2-.1-4.5 0-7 0l-.1-3.2V63.6c0-2.6.1-2.2-2.2-2.2h-6.9c0-.5-.1-.9-.1-1.3v-5.8h27.1v6.2c0 1-.7.9-1.4.9l-8-.1zm-161.6 0h-9.3v-7.1h26.9l-.1 6.5c0 .2-.8.6-1.2.6h-8v34.6h-8.3V61.3zm230.8-7.2V93.9c0 2 0 2-2 2h-5.1c-.9 0-1.2-.3-1.2-1.2V55.5c0-1.2.3-1.5 1.5-1.5 2.1.2 4.3.1 6.8.1zm-200.3 0h7c1 0 1.3.3 1.3 1.2v39.3c0 .6 0 1.3-.9 1.3h-7.3c-.1 0-.1-41.8-.1-41.8z" style="fill:#fff"/></svg>