<svg xmlns="http://www.w3.org/2000/svg" xml:space="preserve" style="enable-background:new 0 0 677.3 298.3" viewBox="0 0 677.3 298.3"><path d="M130.9 47.4c-.1-14.8 5.2-27.2 16.5-36.8 8.9-7.5 19.3-11 31-10.6 24.4.9 43.7 20.8 44.1 44.8 31.5-15.8 60.3-12 86.6 11.5 18.3-24.5 42.8-37.6 73.9-36.2 31.1 1.4 54.2 16.7 70.5 43 17-9.2 33.2-7.7 48.1 4.5 37.2-23.3 74.3-23.4 111.5-.5 2.7-2 5.5-4.3 8.5-6.2 22.1-13.1 51.3.7 55.3 26 2.7 17.5-6.3 33.7-22.6 40.6-1 .4-1.1.9-.9 1.8 5.3 30.8-2 58.3-22.3 82-14.2 16.5-32.1 27-53.5 31.3-25.9 5.2-50.1.7-72.4-13.4-2.1-1.3-2-1.3-3.9.2-11.9 9.9-25.5 15.9-40.9 17.6-3.2.4-6.5.5-9.8.5-3.2 0-6.4-.4-9.5-.6-6.7 22.9-21.4 37.3-45.6 39.5-21.6 2-37.7-8-49-26.4l-.5 1.1c-8.9 21.7-24.8 34.4-48.2 36.6-24.9 2.3-48-12.6-56.8-36.1-.3-.8-.6-1.1-1.5-1.1-19.6.2-36.9-6.1-52.1-18.4-4.9-4-9.3-8.6-13.1-13.7-.2-.3-.4-.5-.7-.8l-7.8 4.8c-17.6 10.1-36.5 14.4-56.6 13.1-43.4-2.8-80.4-34.1-90.4-76.4-2.4-10.2-3.2-20.6-2.4-31.1.1-.9-.1-1.5-.8-2.1-8.1-7.5-13.3-16.9-15-28-2.5-17 2.2-31.9 14.5-44C26.2 53 39.7 48.5 55.2 49.7c6.3.5 12.3 2.3 18 5.2.8.4 1.4.4 2.1 0 16.1-7.2 33-9.9 50.6-8.1l5 .6zM160 162.6c-2.7-6.2-6.9-11-12.4-14.8-6.4-4.5-13.5-7.4-20.9-9.4-9.4-2.5-18.9-4.6-28.3-6.8-3.8-.9-7.7-1.8-10.9-4.2-5.3-3.9-5-11.6.6-15.1 1.1-.7 2.3-1.3 3.6-1.6 6.6-2 13.3-2.2 20.1-.9 5.8 1.1 10.5 4.2 14.8 8.1 2 1.8 4 3.7 6.3 5.1 5.4 3.3 11.1 3.3 16.4-.2 5.3-3.6 7-9 6.2-15.2-.6-4.8-3.5-8.3-7.1-11.4-4.5-3.8-9.8-6.4-15.3-8.3-13.1-4.5-26.5-6-40.2-4.7-8.7.8-17 3-24.7 7.1-7.3 3.9-13.2 9.2-16.7 16.8-3.2 6.8-3.7 13.9-2.8 21.2 1.1 8.7 4.9 15.8 11.9 21.1 6.4 4.8 13.8 7.5 21.4 9.5l28.6 7.1c3.8 1 7.8 1.9 11.2 4 3.5 2.2 5.1 5.8 4.4 9.9-.7 4.3-3.5 6.9-7.2 8.7-7.2 3.4-14.8 3.4-22.4 1.7-6.7-1.5-12-5.4-16.7-10.1-2.3-2.3-4.6-4.6-7.1-6.8-3.3-2.9-7.3-4.2-11.8-3.9-5.6.4-10 3.6-11.8 8.9-2.3 7-.4 13.2 4.2 18.7 5.1 6.1 11.9 9.9 19.2 12.8 13.1 5.1 26.7 6.8 40.6 5.9 9.2-.6 17.9-2.8 26.1-7.1 9.4-4.9 16.7-11.9 20.3-22.1.1-.1.2-.2.4-.6v1.9c.1 4.4-.1 8.9.2 13.3.5 7.6 5.5 13.1 13 14.4 2.5.4 5.1.4 7.7.2 7.1-.6 12.2-5 13.9-11.8.5-1.9.6-3.9.7-5.9l.1-25.6c0-.5.1-1.2.4-1.5l11.9-10.6.9 1.1 9.2 13.1 24.3 34.2c6.9 9.4 21 9.8 28.1.9 5.2-6.5 5.2-15.6-.1-22.8l-24.9-33.4-11.7-15.5 29.1-30.4 3.4 9.9 36.2 103c.2.5.4 1.2.2 1.7-.7 2-1.3 4-2.3 5.8-1.6 3-4.2 4.6-7.7 4.8-2.8.1-5.6.1-8.4.2-10 .7-15.9 8.9-13.2 18.4 1.6 5.7 5.8 8.8 11.2 10.6 5.4 1.7 10.9 1.7 16.4 1.1 9-1 16.5-4.8 22.2-11.9 5.1-6.3 8.5-13.6 11.2-21.1l40.5-114.6.5-1.3.2.1v129.9c0 1.2 0 2.4.1 3.7.4 7.4 4.7 13.1 11.6 14.7 2.7.6 5.6.8 8.3.6 7.5-.4 12.9-4.7 14.6-11.6.5-2.2.7-4.5.7-6.7v-45.2c0-.5.1-1 .1-1.5.3.1.4.1.5.2.2.2.3.4.4.7 4.3 7 10.4 11.7 18.1 14.5 7.6 2.7 15.5 3.1 23.4 2.2 12.1-1.4 22.4-6.3 30.6-15.2 7.4-8 11.8-17.6 14.5-28.2l.8-3.1.3 1c6 21.7 19.6 36 41.2 42.5 11.3 3.4 22.8 4.1 34.5 2.7 9.7-1.1 19.1-3.6 27.9-7.9 5.7-2.8 10.9-6.3 14.5-11.7 3.1-4.6 4.6-9.6 2.8-15-3.1-9-13.7-12.7-21.8-7.6-2.5 1.6-4.7 3.7-7 5.6-3 2.5-6 4.9-9.7 6.5-7.3 3.2-14.9 3.8-22.6 2.6-12.2-1.8-20.8-8.3-24.9-20.1-1.3-3.7-1.8-7.6-1.8-11.7h79c2.4 0 4.8-.1 7.2-.4 4.3-.5 7.5-2.5 8.7-6.9.3-1.1.5-2.3.7-3.5.9-10.2-1-19.9-5.5-29.1-8.6-17.1-22.7-27.2-41.2-31.6-9.8-2.3-19.7-2.4-29.7-1-9.6 1.4-18.6 4.4-26.8 9.8-12.5 8.2-20.2 19.8-24.5 33.9l-1.2 4.2c-.6-2.6-1.2-5-1.8-7.3-3.1-10.8-8.1-20.5-16.5-28-14-12.5-30.5-15.9-48.5-11.9-11.3 2.5-19.7 9.1-24.4 20-.1.2-.3.5-.7 1l-.1-1.8c-.1-2.5 0-5.1-.3-7.6-.6-6.5-4.2-10.9-10.2-12.6-2.8-.8-5.7-.8-8.6-.5-5.2.6-9.2 2.9-11.4 7.8 0 .1-.1.1-.3.2-3.2-4.9-7.8-7.5-13.6-8.1-4.9-.4-9.4.6-13 4.1-3.3 3.2-5 7.4-6.1 11.8l-21.2 78.8c-.1.5-.3 1-.5 1.5-.5-.5-.6-.9-.8-1.4l-15-56.1-7.4-26.4c-2.4-7.6-8-11.5-15.8-12.2-7.2-.7-12.9 2-16.9 8.2-.2.2-.3.5-.5.7l-1.1-1.6c-6-8.3-16.3-9.8-24.3-3.5-1.6 1.3-3 2.7-4.4 4.2l-37.2 41.3c-.3.3-.4.7-.6 1-.1-.1-.3-.2-.4-.3V53.6c0-1.6-.1-3.2-.3-4.7-.8-6.6-5-11.6-11.4-13.1-2.6-.6-5.5-.8-8.2-.7-7.4.3-12.9 4.5-14.7 11.3-.6 2.3-.9 4.8-.9 7.2V161l.1 1.6zm477.7-77.3v22.3h4.5V92.7c1.7 4.2 3.2 8.4 4.7 12.6.8 2.4.8 2.4 3.4 2.4 1 0 1.3-.3 1.6-1.2l4.5-12.9c.1-.3.3-.7.4-1 .1 0 .2 0 .2.1v14.9h4.5V85.3c-1.8 0-3.6.1-5.4 0-1.1-.1-1.6.3-1.9 1.3l-3 9.6-1.5 4.5c-.2-.5-.3-.8-.4-1l-4.6-13.3c-.1-.4-.7-.9-1-1-1.9-.1-3.9-.1-6-.1zm-20.9.1v4.1h6.6v18.1h4.9V89.4h6.6v-4.1l-18.1.1zm-209.9 63c.1-7.6 1.1-15.7 4.8-23.2 4-8.1 10.2-13.3 19.3-14.4 12.7-1.5 22.5 4 28 15.7 3.9 8.3 4.9 17.1 4.4 26.2-.3 6.5-1.4 12.8-3.9 18.9-2.8 6.6-6.9 12-13.7 14.9-10.7 4.4-26.8 3.1-34.4-13.9-2.9-6.6-4.5-14.6-4.5-24.2zm124-12.7c3.8-18.2 16-28.7 33.5-28.1 14.5.6 25.6 11.3 28.3 25.8.1.7.2 1.4.3 2.2h-62.1z" style="fill:#fff"/></svg>