<svg xmlns="http://www.w3.org/2000/svg" xml:space="preserve" id="Layer_2_00000103237262360690192590000012822997319201514175_" x="0" y="0" style="enable-background:new 0 0 1875.9 425.5" version="1.1" viewBox="0 0 1875.9 425.5"><style>.st0{fill:#fff}</style><g id="Layer_1-2"><path d="M766.2 314.6c-1.5-11.6-2.8-22.9-4.3-34.2-1.4-10.9-3-21.8-4.4-32.7-1.1-9-2-18-3.1-26.9-1.4-11.1-3-22.1-4.4-33.1-.9-6.8-1.5-13.5-2.3-20.3-1.1-9.1-2.2-18.2-4-27.5-1.6 3.6-3.3 7.1-4.8 10.8-6.8 16.1-13.6 32.2-20.5 48.3-7.5 17.8-15 35.7-22.6 53.5-5.9 13.8-11.8 27.6-17.8 41.4-7.7 17.9-15.4 35.8-23 53.7l-18.3 43.2c-3.3 7.8-6.5 15.6-10 23.3-.5 1.1-2.1 2.3-3.1 2.3-33.5.1-67 .1-100.5.1-.5 0-1-.2-1.8-.3C503.1 281 485 145.9 466.8 10.3h95.5c10.2 96.7 20.4 193.4 30.6 290 .3 0 .6.1.8.1 2-4.7 4.1-9.5 6.1-14.2 6.2-14.7 12.5-29.5 18.7-44.2 11.8-27.8 23.5-55.5 35.3-83.3 11.8-27.8 23.5-55.5 35.3-83.3 8.8-20.9 17.6-41.8 26.6-62.7.5-1.2 2.2-2.6 3.4-2.6 30.5-.1 61-.1 92.3-.1 10.9 97.8 21.8 195.5 32.7 293.2h.8c5.2-12.9 10.5-25.7 15.7-38.5 8.8-21.9 17.7-43.7 26.5-65.6 9.3-23.1 18.5-46.3 27.9-69.4 10.9-26.9 21.9-53.8 32.9-80.7 5-12.2 9.8-24.4 14.9-36.5.5-1.1 2.2-2.5 3.3-2.5 30.2-.1 60.5-.1 90.8-.1.6 0 1.2.2 2 .3-3.9 9.3-7.7 18.3-11.5 27.3-6.7 15.8-13.3 31.5-20 47.3-6.6 15.5-13.2 31-19.8 46.6-6.4 15.2-12.7 30.4-19.2 45.6-5.9 13.9-11.9 27.8-17.8 41.8-12.1 28.5-24.3 57.1-36.4 85.6-12.5 29.7-25 59.5-37.5 89.2-2.8 6.6-5.6 13.2-8.4 19.9-.8 1.8-1.7 3-4.1 2.9-34.2-.1-68.5-.1-102.8-.1-.8 0-1.7-.1-2.7-.2-1.1-8.9-2.2-17.6-3.3-26.3-1.2-9.3-2.4-18.6-3.6-28-1.1-8.6-2.1-17.2-3.1-25.8-.8-7-1.5-14.1-2.5-21.4zM1833.7 247.5h-269.8c1.1 6.8 1.8 13 3.1 19.1 3.2 14.5 9 27.9 18.5 39.4 8.9 10.8 19.5 19.2 32.4 24.9 16.2 7.2 33.1 9.7 50.6 8.8 22.4-1.2 43.3-7.3 61.1-21.6 4.9-3.9 8.7-9.2 12.8-14 1.4-1.6 2.5-2.7 4.8-2.7 34.5.1 69 .1 103.5.1 1 0 2 .1 3.6.3-1.3 3.1-2.4 6-3.6 8.7-7.3 16-16.5 30.9-27.9 44.3-14.1 16.4-30.6 30-49.4 40.8-12 6.8-24.5 12.6-37.6 17-15.2 5.1-30.8 8.4-46.7 10.6-16.9 2.4-33.8 2.7-50.7 1.9-21.8-1-43-5.7-63.2-14.1-18-7.5-34.4-17.5-49.1-30.5-18.8-16.6-32.7-36.5-42.8-59.3-7.4-16.8-12.4-34.4-14.4-52.5-1.6-14.9-2.2-30.1-1.6-45.1 1.2-27.2 6.1-53.9 15.5-79.6 8.6-23.5 20.3-45.3 36.1-64.8 15.5-19.2 33.8-35.5 55-48.1 22.2-13.1 46.1-22.2 71.5-26.5 11-1.9 22.1-2.8 33.2-3.8 7.1-.6 14.2-1 21.3-.7 24.8 1.1 48.9 5.5 71.9 15.6 14.6 6.5 28.3 14.5 40.5 24.7 15.7 13 28.7 28.5 38.8 46.3 10.6 18.6 17.7 38.5 21.6 59.5 2.5 13.7 3.2 27.6 3.3 41.6.1 19-2 37.6-5.3 56.2-.5 2.7-1.6 3.5-4.2 3.4-10.9.1-21.6.1-32.8.1M1611 111.4c-19.6 16.1-32.9 36.2-38.3 61.9H1731.6c14.2 0 28.5-.1 42.8.1 3.2 0 4.1-1 3.9-4.1-.4-9.6-2.1-18.9-5.2-28-4.8-13.8-12.6-25.4-23.4-35.3-7.7-7-16.5-12.2-26.1-16-17.7-7-36.1-7.4-54.7-4.5-21.5 3.4-40.6 11.9-57.9 25.9zM318.7 9.8h64c-57.5 135.8-114.8 271-172.1 406.4h-58C203.2 296.7 253.7 177.4 304.2 58H141.6c11.6 20 23.1 39.8 34.5 59.5l-59.3 59.3c.2.3.3.6.5.9h95.6c-7 16.4-13.6 32.2-20.3 48H0c2.6-2.7 4.6-4.9 6.8-7 1.4-1.4 3.1-2.4 4.5-3.8 9.5-9.2 18.9-18.5 28.4-27.6 10.8-10.4 21.8-20.7 32.6-31.1l34.2-32.7c1.9-1.8 4.1-3.5 6.4-5.4-21.2-36.2-42.2-72-63.6-108.3h269.4zM1296.8 118.6c5-12.7 9.4-25.5 15.1-37.6 7.4-15.6 17.6-29.4 30.7-40.9 16.6-14.6 36.1-23.5 57.8-27.3 9.7-1.7 19.7-2 29.6-3.2 14.8-1.7 29.5.8 44.2 1.5 2.6.1 2.8 1.8 2.4 3.6-1.5 8.3-3.2 16.5-4.7 24.8-3.2 17-6.3 34.1-9.4 51.1-1.5 8-3 16.1-4.5 24.1-.4 2.3-1.9 2.1-3.7 1.8-9.4-1.6-18.8-2.1-28.1.1-12.6 3.1-21.8 10.8-28.5 21.8-9.4 15.4-13.6 32.7-17.6 50-3.7 16-6.5 32.3-9.8 48.4-4 19.4-7.7 38.9-12.2 58.2-3.5 15.1-8.8 29.7-15.3 43.9-5.2 11.3-11.4 22-19 31.9-9.3 12.1-20.5 21.9-33.7 29.5-16.3 9.4-34.1 14.2-52.5 16.4-9.5 1.1-19.1 1.7-28.7 1.5-10.8-.2-21.6-1.4-32.3-2.2-1.2-.1-2.3-.7-3.7-1.1 4.2-22 8.4-43.7 12.5-65.5 2.2-11.7 4.1-23.4 6.2-35.1.5-2.8 1.1-4.3 5.1-3.6 9.6 1.8 19.3 2.8 29.2.5 12.9-2.9 21.9-10.6 28.2-21.8 7.9-14.1 11.9-29.6 15.4-45.2 2.6-11.3 4.8-22.8 7.1-34.2 3.7-18.9 7.1-38 11.1-56.8 2.6-11.4 6-22.8 9.1-34.6zM1071.7 168c3.8-20.8 7.5-41.2 11.3-61.7 3.4-18.8 7-37.5 10.4-56.2 2.4-13.3 4.7-26.5 7.1-40h98.4c-.9 5.5-1.8 10.8-2.7 16.1-2.9 16.1-5.9 32.1-8.9 48.2-3.7 20.2-7.5 40.4-11.1 60.6-4.6 25.6-9.1 51.2-13.7 76.8-2.6 14.4-5.4 28.7-8 43.1-3.6 20.2-7.1 40.5-10.8 60.7-3.3 18.3-6.9 36.5-10.2 54.7-2.6 14.4-5.2 28.8-7.7 43.1-.3 2-1 2.9-3 2.9-31.5 0-63 0-94.5-.1-.3 0-.7-.2-1.7-.5.6-3.9 1.2-7.9 1.9-11.9 3.1-17.4 6.3-34.8 9.5-52.2 2.4-12.9 4.9-25.8 7.3-38.7 3.1-16.9 6.1-33.9 9.2-50.8 3.4-18.6 6.9-37.2 10.4-55.9 2.3-12.5 4.5-25.2 6.8-38.2z" class="st0"/></g></svg>