<?xml version="1.0" standalone="no"?>
<!DOCTYPE svg PUBLIC "-//W3C//DTD SVG 20010904//EN"
 "http://www.w3.org/TR/2001/REC-SVG-20010904/DTD/svg10.dtd">
<svg version="1.0" xmlns="http://www.w3.org/2000/svg"
 width="3615.000000pt" height="3615.000000pt" viewBox="0 0 3615.000000 3615.000000"
 preserveAspectRatio="xMidYMid meet">
<metadata>
Created by potrace 1.14, written by Peter Selinger 2001-2017
</metadata>
<g transform="translate(0.000000,3615.000000) scale(0.100000,-0.100000)"
fill="#000000" stroke="none">
<path d="M6271 27290 c-4 -3 -7 -1412 -6 -3131 l0 -3126 -3130 0 -3130 0 -1
-2944 c0 -1619 2 -2949 4 -2956 3 -8 758 -11 3090 -12 1698 0 3105 0 3127 0
l40 -1 0 -3121 c0 -1716 2 -3124 5 -3128 8 -11 5900 -8 5900 4 1 5 1 1413 1
3128 l1 3117 86 1 c48 0 1377 0 2953 0 l2866 1 0 2951 0 2952 2954 5 2954 5 0
3128 0 3127 -25 1 c-168 5 -5872 0 -5878 -5 -4 -4 -7 -1412 -7 -3129 l0 -3122
-2952 -1 -2951 -1 0 3124 c0 1718 -2 3127 -6 3130 -7 7 -5885 10 -5895 3z"/>
<path d="M29889 27250 c0 -59 0 -6180 0 -6202 1 -17 157 -18 3131 -18 l3130 0
0 3130 c0 1722 -3 3130 -7 3131 -5 0 -1413 1 -3131 2 l-3122 2 -1 -45z"/>
<path d="M18082 15115 c-7 -10 -11 -6221 -5 -6240 2 -7 987 -10 2951 -9 1621
1 2949 2 2952 3 7 1 7 6251 0 6252 -3 1 -1330 2 -2948 3 -1956 1 -2946 -2
-2950 -9z"/>
<path d="M29889 15080 c0 -57 0 -6180 0 -6200 1 -13 351 -15 3131 -15 l3130 0
0 3130 0 3130 -3130 0 -3130 0 -1 -45z"/>
</g>
</svg>
