<svg xmlns="http://www.w3.org/2000/svg" fill="none" viewBox="0 0 103 103"><path fill="url(#a)" d="M51.124 98.028c-25.85 0-46.81-20.95-46.81-46.81 0-25.86 20.96-46.81 46.81-46.81s46.81 20.96 46.81 46.81-20.96 46.81-46.81 46.81Z"/><path fill="#F2F1F0" fill-rule="evenodd" d="M97.024 51.218c0 25.35-20.55 45.9-45.9 45.9-25.35 0-45.9-20.55-45.9-45.9 0-25.35 20.55-45.9 45.9-45.9 25.35 0 45.9 20.55 45.9 45.9Zm-45.9-49.64c27.42 0 49.64 22.22 49.64 49.64s-22.23 49.64-49.64 49.64c-27.42 0-49.64-22.23-49.64-49.64 0-27.42 22.22-49.64 49.64-49.64Z" clip-rule="evenodd"/><path fill="url(#b)" fill-rule="evenodd" d="M94.214 51.218c0 23.8-19.29 43.09-43.09 43.09-23.8 0-43.09-19.29-43.09-43.09 0-23.8 19.29-43.09 43.09-43.09 23.8 0 43.09 19.29 43.09 43.09Zm-43.09-46.83c25.86 0 46.83 20.97 46.83 46.83s-20.97 46.83-46.83 46.83-46.83-20.97-46.83-46.83 20.96-46.83 46.83-46.83Z" clip-rule="evenodd"/><path fill="#1F1D20" d="m82.666 78.06-9.11-9.05c3.84-5 6.12-11.25 6.12-18.03 0-16.38-13.29-29.64-29.65-29.64s-29.65 13.26-29.65 29.64c0 16.38 13.26 29.64 29.64 29.64 6.57 0 12.62-2.13 17.56-5.75l9.16 9.11s2.32.91 4.75-1.67c2.43-2.57 1.18-4.25 1.18-4.25Zm-57.87-26.97c0-13.88 11.26-25.14 25.14-25.14s25.14 11.26 25.14 25.14-11.29 25.14-25.17 25.14c-13.88 0-25.11-11.26-25.11-25.14Z" opacity=".15"/><path fill="#F2F2F2" d="M49.735 76.43c15.133 0 27.4-12.267 27.4-27.4 0-15.132-12.267-27.4-27.4-27.4s-27.4 12.268-27.4 27.4c0 15.133 12.267 27.4 27.4 27.4Z"/><path fill="url(#c)" d="m84.586 78.07-11.04-11.04c3.84-5 6.12-11.25 6.12-18.03 0-16.38-13.29-29.64-29.65-29.64S20.376 32.62 20.376 49c0 16.38 13.26 29.64 29.64 29.64 6.57 0 12.62-2.13 17.56-5.75l11.07 11.1s1.12.01 3.56-2.56c2.43-2.58 2.38-3.36 2.38-3.36ZM24.796 49.1c0-13.88 11.26-25.14 25.14-25.14s25.14 11.26 25.14 25.14-11.29 25.14-25.17 25.14c-13.88 0-25.11-11.26-25.11-25.14Z"/><path fill="#1F1D21" d="M39.972 59.091h-4.447v5.819h4.447v-5.82Zm2.136-3.864v9.683h4.533v-9.683h-4.533Zm12.566-6.279h-5.819v15.935h5.819V48.948Zm9.118-6.514h-6.687v22.448h6.687V42.434ZM36.837 55.539a2.006 2.006 0 0 0 2.457-1.416 1.988 1.988 0 0 0-.408-1.823l4.194-7.538c.076.036.154.065.235.087a2.006 2.006 0 0 0 2.458-1.416v-.078l3.838.365a1.998 1.998 0 1 0 3.847-1.016l5.558-4.455c.069.06.141.115.217.165a2.014 2.014 0 1 0-1.016-1.737c.006.303.084.6.226.868l-5.515 4.342a1.928 1.928 0 0 0-.868-.469 2.006 2.006 0 0 0-2.414 1.312l-3.934-.391a2.006 2.006 0 1 0-3.474 1.858l-4.16 7.547a2.008 2.008 0 0 0-2.834 2.092 2.006 2.006 0 0 0 1.514 1.677l.079.026Z" opacity=".2"/><path fill="#018AF0" d="M39.98 58.223h-4.455v5.818h4.447v-5.818h.008Z"/><path fill="#016ED2" d="M46.624 54.359h-4.516v9.682h4.533V54.36h-.017Z"/><path fill="#0153B4" d="M54.674 48.08h-5.819v15.935h5.819V48.08Z"/><path fill="#012E4D" d="M63.792 41.566H57.15v22.448h6.687l-.044-22.448Z"/><path fill="#32B0E7" d="m38.148 52.752-.808-.382 6.08-11.098 8.162.807 8.467-6.686.66.599-8.77 7.077-7.973-.755-5.818 10.438Z"/><path fill="#018AF0" d="M36.837 54.671a2.006 2.006 0 1 0 1.043-3.874 2.006 2.006 0 0 0-1.043 3.874Z"/><path fill="#016ED2" d="M43.315 43.982a2.006 2.006 0 1 0 1.044-3.874 2.006 2.006 0 0 0-1.044 3.874Z"/><path fill="#0153B4" d="M51.07 44.45a2.006 2.006 0 1 0 1.043-3.873 2.006 2.006 0 0 0-1.043 3.874Z"/><path fill="#012E4D" d="M59.25 37.546a2.015 2.015 0 1 0 1.998-3.5 2.015 2.015 0 0 0-1.998 3.5Z"/><defs><linearGradient id="a" x1="49.35" x2="53.332" y1="-13.572" y2="132.198" gradientUnits="userSpaceOnUse"><stop stop-color="#00ABDE"/><stop offset="1" stop-color="#007ED8"/></linearGradient><linearGradient id="b" x1="2.554" x2="98.082" y1="-20.405" y2="120.476" gradientUnits="userSpaceOnUse"><stop stop-color="#007ED8"/><stop offset=".707" stop-color="#002D4C"/></linearGradient><linearGradient id="c" x1="27.963" x2="73.745" y1="23.956" y2="75.948" gradientUnits="userSpaceOnUse"><stop stop-color="#007ED8"/><stop offset=".707" stop-color="#002D4C"/></linearGradient></defs></svg>