<svg xmlns="http://www.w3.org/2000/svg" fill="none" viewBox="0 0 181 191"><path fill="#F2F1F0" d="M90.315 189.292c3.06 0 6.07-.85 8.73-2.47l61.97-37.66c5.54-3.37 8.97-9.7 8.97-16.54v-74.71c0-6.82-3.43-13.16-8.97-16.54l-61.97-37.66c-5.33-3.24-12.15-3.22-17.45 0l-61.97 37.68c-5.54 3.37-8.99 9.7-8.99 16.54v74.7c0 5.76 2.45 11.18 6.55 14.75v.03l64.41 39.43c2.64 1.6 5.66 2.45 8.72 2.45Zm.65-181.05c1.95 0 4.43 1.21 6.14 2.26l60.76 37.19c3.75 2.28 5.87 8.88 5.87 13.63l-.63 71.3c0 4.75-3.2 9.02-6.95 11.3l-60.4 36.38c-3.43 2.09-6.22 2.09-9.66 0l-61.21-36.47c-3.75-2.28-6.77-6.48-6.77-11.21v-73.64c0-4.74 2.73-9.63 6.5-11.92l60.58-36.56c1.7-1.04 3.82-2.26 5.77-2.26Z"/><path fill="url(#a)" fill-rule="evenodd" d="M98.215 11.821c-2.45-1.5-5.17-2.25-7.9-2.25-2.73 0-5.45.76-7.9 2.25l-56.13 34.33c-5.02 3.07-8.13 8.82-8.13 15.07v68.1c0 6.23 3.1 12 8.13 15.07l56.13 34.33c2.45 1.5 5.17 2.25 7.9 2.25 2.73 0 5.45-.74 7.9-2.25l56.13-34.33c5.02-3.07 8.13-8.84 8.13-15.07v-68.1c0-6.23-3.1-11.98-8.13-15.07l-56.13-34.33Z" clip-rule="evenodd"/><path fill="url(#b)" fill-rule="evenodd" d="M90.315 11.041c1.68 0 3.57.87 5.63 2.12l58.47 35.54c3.65 2.22 6.06 6.49 6.06 11.32v70.481c0 4.82-2.41 9.1-6.06 11.32l-58.46 35.54c-1.96 1.19-3.88 1.939-5.63 1.939s-3.67-.749-5.63-1.939l-58.48-35.531c-2.01-1.23-3.46-2.429-4.44-4.039-.98-1.6-1.62-3.82-1.62-7.28v-70.48c0-4.83 2.41-9.1 6.06-11.32l58.46-35.54c2.09-1.25 3.95-2.13 5.64-2.13Zm7.71 169.751 58.46-35.54c4.92-2.99 7.98-8.61 7.98-14.74v-70.48c0-6.13-3.06-11.75-7.98-14.74l-58.46-35.54c-2.11-1.28-4.82-2.71-7.71-2.71-2.9 0-5.61 1.44-7.7 2.7h-.01l-58.47 35.55c-4.92 2.99-7.98 8.61-7.98 14.74v70.48c0 3.96.74 6.95 2.2 9.36 1.46 2.4 3.52 4 5.78 5.37l58.46 35.54c2.22 1.35 4.89 2.53 7.71 2.53 2.82 0 5.5-1.17 7.72-2.52Z" clip-rule="evenodd"/><path fill="#E6F6FC" d="M90.31 20.17a2.11 2.11 0 0 1 .947 1.662c0 .608-.429.859-.965.555a2.145 2.145 0 0 1-.966-1.663c0-.555.376-.787.984-.555Z"/><path fill="#DAF2FB" d="M96.855 23.997a2.094 2.094 0 0 1 .966 1.663c0 .59-.447.84-.966.537a2.129 2.129 0 0 1-.966-1.663c-.035-.59.394-.787.966-.537Z"/><path fill="#CEEEF9" d="M103.347 27.77a2.058 2.058 0 0 1 .948 1.663c0 .608-.411.877-.948.555a2.094 2.094 0 0 1-.965-1.664c0-.626.429-.858.965-.554Z"/><path fill="#C1E9F8" d="M109.875 31.544a2.053 2.053 0 0 1 .948 1.645c0 .626-.429.876-.966.572a2.16 2.16 0 0 1-.948-1.68c0-.609.466-.86.966-.537Z"/><path fill="#B5E5F6" d="M116.385 35.302a2.144 2.144 0 0 1 .966 1.663c0 .626-.429.876-.966.554a2.111 2.111 0 0 1-.966-1.663c0-.626.43-.858.966-.554Z"/><path fill="#A9E1F5" d="M122.895 39.056a2.142 2.142 0 0 1 .966 1.663c0 .626-.429.876-.966.554a2.111 2.111 0 0 1-.966-1.663c-.035-.608.43-.858.966-.554Z"/><path fill="#C6EBF8" d="M90.256 35.229a2.11 2.11 0 0 1 .966 1.663.59.59 0 0 1-.966.554 2.058 2.058 0 0 1-.966-1.68c0-.59.412-.841.966-.537Z"/><path fill="#BAE7F7" d="M96.856 38.984a2.058 2.058 0 0 1 .947 1.664c0 .59-.447.858-.947.554a2.076 2.076 0 0 1-.966-1.681c-.072-.626.357-.84.966-.537Z"/><path fill="#AFE3F6" d="M103.312 42.757a2.09 2.09 0 0 1 .948 1.663c0 .608-.43.859-.966.555a2.128 2.128 0 0 1-.966-1.681c0-.59.447-.84.984-.537Z"/><path fill="#A2DFF4" d="M109.822 46.53a2.074 2.074 0 0 1 .965 1.646c0 .626-.429.876-.965.572a2.146 2.146 0 0 1-.966-1.681c0-.59.519-.859.966-.537Z"/><path fill="#96DAF3" d="M116.349 50.287a2.105 2.105 0 0 1 .966 1.663c0 .626-.447.858-.983.554a2.097 2.097 0 0 1-.948-1.663c0-.608.429-.858.965-.554Z"/><path fill="#8AD6F1" d="M122.859 54.042c.28.183.513.429.68.718.168.288.266.612.286.946 0 .625-.447.876-.983.554a2.094 2.094 0 0 1-.948-1.663c0-.608.429-.859.965-.555Z"/><path fill="#D5F0FA" d="M90.292 27.735a2.147 2.147 0 0 1 .948 1.663c0 .608-.43.859-.966.555a2.111 2.111 0 0 1-.966-1.664c0-.608.394-.858.984-.554Z"/><path fill="#CBEDF9" d="M96.712 31.275a2.074 2.074 0 0 1 .966 1.664c0 .59-.43.858-.966.554a2.11 2.11 0 0 1-.966-1.663c0-.608.43-.93.966-.555Z"/><path fill="#BEE8F7" d="M103.329 35.264a2.133 2.133 0 0 1 .948 1.663c0 .609-.429.877-.965.555a2.105 2.105 0 0 1-.966-1.663c0-.608.447-.859.983-.555Z"/><path fill="#B2E4F6" d="M109.84 39.038a2.111 2.111 0 0 1 .965 1.645c0 .626-.429.877-.965.572a2.068 2.068 0 0 1-.948-1.68c0-.59.483-.86.948-.537Z"/><path fill="#A6E0F4" d="M116.367 42.793a2.154 2.154 0 0 1 .966 1.663c0 .627-.429.877-.966.555a2.113 2.113 0 0 1-.965-1.663c0-.608.429-.859.965-.555Z"/><path fill="#99DCF3" d="M122.877 46.548a2.153 2.153 0 0 1 .966 1.663c0 .626-.447.877-.984.555a2.09 2.09 0 0 1-.947-1.663c-.018-.608.429-.859.965-.555Z"/><path fill="#B7E6F6" d="M90.238 42.722a2.111 2.111 0 0 1 .966 1.663.59.59 0 0 1-.966.555 2.055 2.055 0 0 1-.966-1.681c0-.59.43-.84.966-.537Z"/><path fill="#AAE2F5" d="M96.855 46.46a2.145 2.145 0 0 1 .948 1.663.589.589 0 0 1-.965.554 2.162 2.162 0 0 1-.966-1.681c-.09-.59.34-.858.983-.537Z"/><path fill="#9FDDF4" d="M103.276 50.251a2.111 2.111 0 0 1 .966 1.663c0 .608-.43.859-.966.555a2.128 2.128 0 0 1-.966-1.681c0-.59.429-.84.966-.537Z"/><path fill="#93D9F2" d="M109.804 54.025a2.016 2.016 0 0 1 .948 1.645c0 .627-.412.877-.948.573a2.144 2.144 0 0 1-.966-1.681c0-.608.429-.859.966-.537Z"/><path fill="#86D5F1" d="M116.331 57.728a2.107 2.107 0 0 1 .966 1.664c0 .608-.447.858-.983.554a2.093 2.093 0 0 1-.948-1.663c0-.555.429-.805.965-.555Z"/><path fill="#7AD1EF" d="M122.824 61.535a2.131 2.131 0 0 1 .983 1.664c0 .626-.447.858-.983.554a2.096 2.096 0 0 1-.948-1.663c.018-.608.411-.787.948-.555Z"/><path fill="#A7E0F5" d="M90.22 50.215a2.164 2.164 0 0 1 .966 1.663c0 .608-.447.859-.966.555a2.073 2.073 0 0 1-.966-1.663c0-.609.447-.859.966-.555Z"/><path fill="#9ADCF3" d="M96.748 53.953a2.146 2.146 0 0 1 .948 1.663.59.59 0 0 1-.966.555 2.163 2.163 0 0 1-.966-1.682c0-.59.43-.858.984-.536Z"/><path fill="#8FD8F2" d="M103.258 57.727a2.113 2.113 0 0 1 .966 1.664c0 .608-.429.858-.966.554a2.113 2.113 0 0 1-.966-1.663c-.071-.555.429-.84.966-.555Z"/><path fill="#82D4F0" d="M109.786 61.501a2.126 2.126 0 0 1 .948 1.681c0 .608-.43.859-.966.537a2.051 2.051 0 0 1-.948-1.645c0-.626.429-.877.966-.573Z"/><path fill="#77D0EF" d="M116.296 65.273a2.07 2.07 0 0 1 .965 1.682c0 .59-.429.84-.965.536a2.054 2.054 0 0 1-.948-1.663c0-.608.411-.859.948-.555Z"/><path fill="#6BCBED" d="M122.806 69.03a2.132 2.132 0 0 1 .965 1.681c0 .59-.429.84-.965.537a2.118 2.118 0 0 1-.966-1.664c.054-.608.429-.858.966-.554Z"/><path fill="#97DBF3" d="M90.202 57.728a2.145 2.145 0 0 1 .948 1.681c0 .59-.429.84-.948.537a2.112 2.112 0 0 1-.983-1.664c.018-.554.483-.894.983-.554Z"/><path fill="#8BD7F1" d="M96.712 61.446a2.128 2.128 0 0 1 .966 1.664.59.59 0 0 1-.966.554 2.163 2.163 0 0 1-.966-1.681c0-.59.43-.859.966-.537Z"/><path fill="#7FD3F0" d="M103.24 65.22a2.054 2.054 0 0 1 .948 1.664c0 .608-.411.858-.948.554a2.076 2.076 0 0 1-.966-1.663c-.053-.608.43-.894.966-.554Z"/><path fill="#73CEEE" d="M109.768 68.994a2.075 2.075 0 0 1 .948 1.663c0 .608-.429.858-.966.554a2.122 2.122 0 0 1-.948-1.663c0-.608.429-.876.966-.554Z"/><path fill="#67CAED" d="M116.278 72.75a2.136 2.136 0 0 1 .966 1.681c0 .608-.43.84-.966.537a2.117 2.117 0 0 1-.966-1.645c0-.627.429-.877.966-.573Z"/><path fill="#5AC6EC" d="M122.788 76.506a2.148 2.148 0 0 1 .966 1.681c0 .608-.43.858-.966.536a2.11 2.11 0 0 1-.966-1.645c.072-.626.429-.876.966-.572Z"/><path fill="#9CDDF3" d="M129.423 42.83a2.094 2.094 0 0 1 .966 1.663c0 .608-.447.859-.984.555a2.18 2.18 0 0 1-.948-1.664c0-.626.43-.858.966-.554Z"/><path fill="#91D9F2" d="M135.951 46.603a2.092 2.092 0 0 1 .966 1.663c0 .608-.448.859-.984.555a2.115 2.115 0 0 1-.948-1.681c0-.608.429-.84.966-.537Z"/><path fill="#85D4F1" d="M142.479 50.376a2.062 2.062 0 0 1 .948 1.645c0 .626-.43.877-.948.572a2.145 2.145 0 0 1-.966-1.68c.054-.627.429-.86.966-.537Z"/><path fill="#79D0EF" d="M148.989 54.15a2.106 2.106 0 0 1 .948 1.645c0 .626-.43.877-.948.573a2.184 2.184 0 0 1-.984-1.681c.018-.537.447-.877.984-.537Z"/><path fill="#6CCCEE" d="M155.499 57.888a2.093 2.093 0 0 1 .966 1.663.595.595 0 0 1-.287.62.589.589 0 0 1-.679-.065 2.098 2.098 0 0 1-.966-1.681c0-.608.429-.841.966-.537Z"/><path fill="#7DD2F0" d="M129.369 57.816a2.107 2.107 0 0 1 .966 1.663c0 .608-.429.858-.966.554a2.133 2.133 0 0 1-.965-1.68c0-.627.447-.841.965-.537Z"/><path fill="#71CEEE" d="M135.897 61.59a2.069 2.069 0 0 1 .966 1.663c0 .608-.429.859-.966.555a2.113 2.113 0 0 1-.948-1.681c0-.608.43-.823.948-.537Z"/><path fill="#65C9ED" d="M142.443 65.347a2.15 2.15 0 0 1 .948 1.663c0 .608-.429.858-.966.554a2.075 2.075 0 0 1-.966-1.663c0-.608.447-.858.984-.554Z"/><path fill="#59C5EB" d="M148.953 69.12a2.088 2.088 0 0 1 .948 1.645c0 .626-.43.858-.966.572a2.123 2.123 0 0 1-.966-1.681c0-.608.447-.858.984-.536Z"/><path fill="#4DC1EA" d="M155.463 72.875a2.172 2.172 0 0 1 .966 1.663c0 .608-.447.859-.966.555a2.088 2.088 0 0 1-.966-1.682c0-.59.429-.84.966-.536Z"/><path fill="#8DD7F2" d="M129.387 50.323a2.08 2.08 0 0 1 .966 1.663c0 .608-.429.859-.966.555a2.113 2.113 0 0 1-.948-1.681c0-.59.43-.841.948-.537Z"/><path fill="#81D3F0" d="M135.933 54.151a2.114 2.114 0 0 1 .966 1.664c0 .608-.447.858-.984.554a2.133 2.133 0 0 1-.948-1.68c0-.645.43-.895.966-.538Z"/><path fill="#75CFEF" d="M142.461 57.87a2.089 2.089 0 0 1 .948 1.645c0 .626-.429.859-.966.555a2.144 2.144 0 0 1-.966-1.681c.09-.662.447-.841.984-.52Z"/><path fill="#69CBED" d="M148.971 61.625a2.107 2.107 0 0 1 .948 1.646c0 .626-.43.876-.966.572a2.181 2.181 0 0 1-.966-1.681c0-.608.447-.858.984-.537Z"/><path fill="#5CC6EC" d="M155.481 65.381a2.111 2.111 0 0 1 .966 1.664.594.594 0 0 1-.287.619.59.59 0 0 1-.679-.065 2.136 2.136 0 0 1-.966-1.681c0-.59.429-.84.966-.537Z"/><path fill="#6ECDEE" d="M129.352 65.31a2.113 2.113 0 0 1 .965 1.663c0 .608-.429.858-.965.554a2.125 2.125 0 0 1-.966-1.68c0-.591.447-.841.966-.537Z"/><path fill="#62C8EC" d="M135.879 69.066a2.159 2.159 0 0 1 .966 1.663c0 .626-.429.877-.966.555a2.113 2.113 0 0 1-.965-1.664c.018-.608.447-.84.965-.554Z"/><path fill="#56C4EB" d="M142.407 72.84a2.105 2.105 0 0 1 .966 1.663.594.594 0 0 1-.286.62.592.592 0 0 1-.68-.065 2.075 2.075 0 0 1-.965-1.664c0-.608.429-.858.965-.554Z"/><path fill="#4BBFE9" d="M148.917 76.594a2.108 2.108 0 0 1 .966 1.663c0 .626-.447.859-.966.555a2.025 2.025 0 0 1-.966-1.663c0-.609.43-.859.966-.555Z"/><path fill="#45B9E8" d="M155.445 80.37a2.151 2.151 0 0 1 .948 1.663c0 .608-.429.858-.948.554a2.154 2.154 0 0 1-.983-1.68c.017-.609.447-.841.983-.537Z"/><path fill="#5EC7EC" d="M129.334 72.804a2.111 2.111 0 0 1 .965 1.663c0 .608-.447.859-.983.555a2.15 2.15 0 0 1-.948-1.663c0-.626.429-.859.966-.555Z"/><path fill="#52C3EB" d="M135.861 76.56a2.173 2.173 0 0 1 .966 1.68c0 .609-.429.86-.966.537a2.062 2.062 0 0 1-.965-1.645c0-.626.447-.877.965-.573Z"/><path fill="#49BEE9" d="M142.389 80.333a2.127 2.127 0 0 1 .966 1.681c0 .59-.447.841-.966.537a2.077 2.077 0 0 1-.965-1.663c0-.608.429-.859.965-.555Z"/><path fill="#43B7E7" d="M148.899 84.089a2.13 2.13 0 0 1 .966 1.681c0 .59-.447.84-.966.537a2.026 2.026 0 0 1-.965-1.664c0-.608.429-.858.965-.554Z"/><path fill="#3CB1E5" d="M155.427 87.863a2.152 2.152 0 0 1 .948 1.663c0 .608-.429.859-.966.555a2.17 2.17 0 0 1-.966-1.664c0-.626.448-.858.984-.554Z"/><path fill="#5DC7EC" d="M129.316 80.279a2.115 2.115 0 0 1 .966 1.663c0 .608-.448.859-.984.555a2.15 2.15 0 0 1-.948-1.664c0-.608.429-.858.966-.554Z"/><path fill="#47BBE8" d="M135.844 84.053a2.113 2.113 0 0 1 .966 1.663c0 .608-.448.859-.984.555a2.112 2.112 0 0 1-.948-1.663c0-.626.429-.859.966-.555Z"/><path fill="#40B5E6" d="M142.372 87.809a2.112 2.112 0 0 1 .947 1.681c0 .59-.429.84-.947.537a2.079 2.079 0 0 1-.966-1.664c0-.608.429-.858.966-.554Z"/><path fill="#3AAFE5" d="M148.882 91.582a2.038 2.038 0 0 1 .947 1.663c0 .608-.429.84-.947.555a2.069 2.069 0 0 1-.966-1.664c0-.626.429-.876.966-.554Z"/><path fill="#34A9E3" d="M155.409 95.285a2.142 2.142 0 0 1 .948 1.663c0 .608-.429.858-.966.554a2.095 2.095 0 0 1-.965-1.663c0-.554.447-.805.983-.554Z"/><path fill="#88D6F1" d="M90.184 65.185a2.149 2.149 0 0 1 .948 1.663c0 .608-.429.858-.966.554a2.144 2.144 0 0 1-.965-1.663c0-.608.5-.858.983-.554Z"/><path fill="#7CD2F0" d="M96.694 68.96a2.074 2.074 0 0 1 .966 1.663.59.59 0 0 1-.966.554 2.2 2.2 0 0 1-.965-1.663c0-.608.429-.876.965-.554Z"/><path fill="#70CDEE" d="M103.222 72.713a2.088 2.088 0 0 1 .948 1.663c0 .608-.429.859-.966.555a2.114 2.114 0 0 1-.965-1.664c-.018-.608.447-.858.983-.554Z"/><path fill="#63C9ED" d="M109.732 76.489a2.093 2.093 0 0 1 .966 1.663c0 .608-.429.858-.966.554a2.074 2.074 0 0 1-.948-1.663c0-.626.412-.876.948-.554Z"/><path fill="#57C5EB" d="M116.26 80.243a2.126 2.126 0 0 1 .966 1.681c0 .59-.429.84-.966.537a2.111 2.111 0 0 1-.966-1.664c0-.608.429-.858.966-.554Z"/><path fill="#4CC0EA" d="M122.77 84a2.128 2.128 0 0 1 .966 1.68c0 .609-.429.841-.966.537a2.105 2.105 0 0 1-.876-1.663c0-.608.34-.859.876-.555Z"/><path fill="#69CBED" d="M90.13 80.19a2.111 2.111 0 0 1 .967 1.663.59.59 0 0 1-.966.555 2.057 2.057 0 0 1-.966-1.663c0-.627.43-.859.966-.555Z"/><path fill="#5DC6EC" d="M96.659 83.928a2.055 2.055 0 0 1 .948 1.663.591.591 0 0 1-.948.554 2.165 2.165 0 0 1-.984-1.663c.018-.608.43-.876.984-.554Z"/><path fill="#50C2EA" d="M103.169 87.72a2.111 2.111 0 0 1 .965 1.663c0 .608-.429.859-.965.555a2.142 2.142 0 0 1-.966-1.663c.018-.627.429-.859.966-.555Z"/><path fill="#49BDE9" d="M109.696 91.493a2.016 2.016 0 0 1 .948 1.645c0 .626-.411.859-.948.555a2.072 2.072 0 0 1-.966-1.646c0-.626.43-.858.966-.554Z"/><path fill="#42B6E7" d="M116.224 95.285a2.144 2.144 0 0 1 .966 1.663c0 .626-.447.859-.984.555a2.135 2.135 0 0 1-.948-1.663c0-.555.43-.895.966-.555Z"/><path fill="#3BB0E5" d="M122.734 99.004a2.154 2.154 0 0 1 .966 1.663c0 .626-.447.859-.984.555a2.106 2.106 0 0 1-.948-1.664c0-.608.43-.858.966-.554Z"/><path fill="#77D0EF" d="M90.166 72.696a2.147 2.147 0 0 1 .948 1.664c0 .626-.429.858-.966.554a2.146 2.146 0 0 1-.965-1.663c0-.626.518-.877.983-.555Z"/><path fill="#6CCCEE" d="M96.677 76.452a2.075 2.075 0 0 1 .965 1.663.59.59 0 0 1-.965.537 2.075 2.075 0 0 1-.966-1.646c0-.608.411-.876.966-.554Z"/><path fill="#61C8EC" d="M103.204 80.225a2.096 2.096 0 0 1 .948 1.664c0 .626-.429.858-.966.554a2.16 2.16 0 0 1-.965-1.663c0-.626.447-.876.983-.555Z"/><path fill="#55C4EB" d="M109.714 83.983a2.145 2.145 0 0 1 .966 1.68c0 .609-.429.86-.966.537a2.119 2.119 0 0 1-.965-1.645c0-.626.429-.876.965-.572Z"/><path fill="#4ABEE9" d="M116.242 87.755a2.114 2.114 0 0 1 .966 1.663c0 .626-.447.858-.984.554a2.14 2.14 0 0 1-.948-1.663c0-.608.43-.876.966-.554Z"/><path fill="#44B9E7" d="M122.752 91.511a2.114 2.114 0 0 1 .966 1.664c0 .626-.447.858-.984.554a2.14 2.14 0 0 1-.948-1.663c0-.608.43-.877.966-.555Z"/><path fill="#59C5EB" d="M90.113 87.684a2.076 2.076 0 0 1 .966 1.645c0 .626-.448.859-.966.555a2.076 2.076 0 0 1-.966-1.664c0-.626.43-.858.966-.536Z"/><path fill="#4DC1EA" d="M96.64 91.422a2.094 2.094 0 0 1 .948 1.663.59.59 0 0 1-.965.554 2.2 2.2 0 0 1-.966-1.663c0-.608.43-.876.984-.554Z"/><path fill="#46BBE8" d="M103.151 95.285a2.072 2.072 0 0 1 .966 1.646c0 .626-.43.858-.966.554a2.154 2.154 0 0 1-.966-1.663c.036-.698.429-.93.966-.537Z"/><path fill="#40B5E6" d="M109.679 98.969a2.082 2.082 0 0 1 .947 1.663c0 .608-.429.858-.965.536a2.092 2.092 0 0 1-.948-1.645c0-.662.429-.858.966-.554Z"/><path fill="#3AAFE4" d="M116.189 102.742a2.036 2.036 0 0 1 .965 1.646c0 .626-.429.858-.965.554a2.063 2.063 0 0 1-.677-.716 2.061 2.061 0 0 1-.271-.947c0-.608.411-.841.948-.537Z"/><path fill="#34A9E3" d="M122.698 106.498a2.036 2.036 0 0 1 .966 1.663c0 .608-.429.841-.966.536a2.046 2.046 0 0 1-.947-1.663c0-.608.411-.858.947-.536Z"/><path fill="#4BBFE9" d="M90.095 95.16a2.094 2.094 0 0 1 .948 1.663c0 .626-.43.858-.948.554a2.023 2.023 0 0 1-.966-1.663c0-.626.43-.858.966-.555Z"/><path fill="#44B9E8" d="M96.623 98.863a2.129 2.129 0 0 1 .948 1.663c0 .608-.447.841-.966.537a2.134 2.134 0 0 1-.966-1.646c0-.554.43-.805.984-.554Z"/><path fill="#3EB3E6" d="M103.133 102.688a2.15 2.15 0 0 1 .966 1.663c0 .626-.43.876-.966.554a2.108 2.108 0 0 1-.966-1.663c.054-.626.429-.804.966-.554Z"/><path fill="#38ADE4" d="M109.661 106.462a2.079 2.079 0 0 1 .947 1.663c0 .608-.429.858-.965.554a2.082 2.082 0 0 1-.948-1.663c0-.626.429-.859.966-.554Z"/><path fill="#31A6E2" d="M116.17 110.219a2.14 2.14 0 0 1 .966 1.663c0 .626-.429.877-.966.555a2.099 2.099 0 0 1-.965-1.664c.018-.608.429-.858.965-.554Z"/><path fill="#2BA0E0" d="M122.681 113.993a2.075 2.075 0 0 1 .965 1.645c0 .626-.429.876-.965.572a2.138 2.138 0 0 1-.966-1.681c0-.608.429-.858.966-.536Z"/><path fill="#5CC2EB" d="M129.28 87.771a2.125 2.125 0 0 1 .984 1.663c0 .609-.447.859-.984.555a2.151 2.151 0 0 1-.948-1.663c0-.608.429-.859.948-.555Z"/><path fill="#3FB4E6" d="M135.826 91.53a2.183 2.183 0 0 1 .966 1.68c0 .609-.447.859-.984.537a2.033 2.033 0 0 1-.948-1.645c0-.626.429-.859.966-.573Z"/><path fill="#39AEE4" d="M142.354 95.285a2.144 2.144 0 0 1 .947 1.682c0 .59-.429.84-.947.536a2.097 2.097 0 0 1-.984-1.663c.018-.555.447-.84.984-.555Z"/><path fill="#32A8E2" d="M148.864 99.058a2.143 2.143 0 0 1 .948 1.681c0 .608-.43.841-.966.537a2.111 2.111 0 0 1-.966-1.664c0-.608.447-.858.984-.554Z"/><path fill="#2BA1E0" d="M155.374 102.833a2.114 2.114 0 0 1 .965 1.663.586.586 0 0 1-.286.619.586.586 0 0 1-.679-.064 2.092 2.092 0 0 1-.966-1.664c0-.626.429-.858.966-.554Z"/><path fill="#35AAE3" d="M129.244 102.778a2.092 2.092 0 0 1 .966 1.663c0 .608-.429.841-.966.537a2.078 2.078 0 0 1-.965-1.646c0-.626.447-.894.965-.554Z"/><path fill="#2FA4E1" d="M135.772 106.552c.282.179.518.424.685.714.169.289.265.615.281.949 0 .608-.429.84-.966.536a2.102 2.102 0 0 1-.966-1.663c.018-.608.447-.84.966-.536Z"/><path fill="#289EDF" d="M142.3 110.325a2.075 2.075 0 0 1 .966 1.646c0 .626-.447.858-.966.554a2.074 2.074 0 0 1-.966-1.663c0-.626.43-.859.966-.537Z"/><path fill="#2197DD" d="M148.81 114.081a2.075 2.075 0 0 1 .966 1.646c0 .626-.447.858-.966.554a2.051 2.051 0 0 1-.966-1.663c0-.608.429-.858.966-.537Z"/><path fill="#1B92DC" d="M155.338 117.838a2.07 2.07 0 0 1 .948 1.663c0 .608-.43.841-.948.536a2.033 2.033 0 0 1-.966-1.645c0-.626.429-.859.966-.554Z"/><path fill="#3DB2E6" d="M129.262 95.284a2.145 2.145 0 0 1 .966 1.681c0 .608-.429.859-.966.537a2.17 2.17 0 0 1-.966-1.645c.018-.573.447-.895.966-.573Z"/><path fill="#37ACE4" d="M135.79 99.041a2.148 2.148 0 0 1 .984 1.681c0 .608-.447.841-.984.537a2.073 2.073 0 0 1-.948-1.646c0-.626.429-.876.948-.572Z"/><path fill="#30A6E2" d="M142.336 102.814a2.147 2.147 0 0 1 .948 1.663c0 .626-.43.859-.966.555a2.097 2.097 0 0 1-.966-1.664c0-.608.447-.93.984-.554Z"/><path fill="#2AA0E0" d="M148.846 106.571a2.148 2.148 0 0 1 .948 1.663c0 .626-.43.858-.966.554a2.133 2.133 0 0 1-.966-1.663c0-.608.447-.858.984-.554Z"/><path fill="#2399DE" d="M155.356 110.342a2.099 2.099 0 0 1 .965 1.663.588.588 0 0 1-.965.555 2.149 2.149 0 0 1-.966-1.663c0-.626.429-.877.966-.555Z"/><path fill="#2CA2E1" d="M129.226 110.254a2.108 2.108 0 0 1 .966 1.663c0 .626-.429.858-.966.537a2.075 2.075 0 0 1-.965-1.646c0-.626.447-.858.965-.554Z"/><path fill="#269CDF" d="M135.754 114.028a2.092 2.092 0 0 1 .966 1.663c0 .609-.429.859-.966.537a2.106 2.106 0 0 1-.966-1.645c0-.626.448-.859.966-.555Z"/><path fill="#1F96DD" d="M142.282 117.802a2.075 2.075 0 0 1 .966 1.645c0 .626-.447.859-.966.555a2.099 2.099 0 0 1-.966-1.664c0-.608.429-.858.966-.536Z"/><path fill="#1990DB" d="M148.72 121.557a2.092 2.092 0 0 1 .966 1.663c0 .608-.447.841-.966.537a2.059 2.059 0 0 1-.965-1.663c.071-.609.5-.841.965-.537Z"/><path fill="#1289D9" d="M155.32 125.313a2.148 2.148 0 0 1 .948 1.663c0 .608-.43.859-.966.555a2.17 2.17 0 0 1-.966-1.663c0-.626.447-.859.984-.555Z"/><path fill="#249ADE" d="M129.209 117.748a2.099 2.099 0 0 1 .965 1.663c0 .608-.447.859-.983.555a2.136 2.136 0 0 1-.948-1.664c0-.626.429-.858.966-.554Z"/><path fill="#1E94DD" d="M135.736 121.522a2.093 2.093 0 0 1 .966 1.663c0 .608-.429.858-.966.554a2.066 2.066 0 0 1-.965-1.663c0-.626.447-.858.965-.554Z"/><path fill="#178EDB" d="M142.264 125.295a2.129 2.129 0 0 1 .966 1.646c0 .626-.447.876-.966.572a2.138 2.138 0 0 1-.966-1.681c0-.608.43-.859.966-.537Z"/><path fill="#1088D9" d="M148.72 129.05a2.049 2.049 0 0 1 .948 1.645c0 .626-.429.876-.948.572a2.066 2.066 0 0 1-.965-1.681c.053-.608.482-.84.965-.536Z"/><path fill="#0A81D7" d="M155.302 132.842a2.103 2.103 0 0 1 .948 1.663c0 .608-.429.859-.966.555a2.083 2.083 0 0 1-.966-1.664c0-.661.448-.894.984-.554Z"/><path fill="#5EA0EF" d="m150.726 61.422-.12 22.335-31.118-17.263.128-22.336 31.11 17.264Z"/><path fill="#004375" d="m150.725 61.422 2.656-1.645v22.336l-2.775 1.645.119-22.336Z"/><path fill="#1D6EAA" d="m119.608 44.158 2.784-1.645 30.989 17.264-2.656 1.645-31.117-17.264Z"/><path fill="#1F1D20" d="m119.608 70.718 2.784-1.645 30.989 17.264-2.656 1.645-31.117-17.264Z" opacity=".1"/><path fill="#74CFEB" d="M142.201 69.647v2.27l-15.02-8.705v-2.27l15.02 8.705Z"/><path fill="#fff" d="M144.094 65.483v2.27L127.19 57.91v-2.142l16.904 9.716Z"/><path fill="#5EA0EF" d="m151.261 96.77-.12 22.335-31.118-17.264.129-22.336 31.109 17.264Z"/><path fill="#004375" d="m151.261 96.77 2.656-1.645v22.336l-2.776 1.645.12-22.336Z"/><path fill="#1D6EAA" d="m120.143 79.506 2.785-1.645 30.989 17.264-2.656 1.645-31.118-17.264Z"/><path fill="#1F1D20" d="m120.143 106.066 2.785-1.645 30.989 17.264-2.656 1.645-31.118-17.264Z" opacity=".1"/><path fill="#74CFEB" d="M142.736 104.994v2.271l-15.019-8.705v-2.27l15.019 8.704Z"/><path fill="#fff" d="M144.63 100.83v2.271l-16.904-9.844v-2.142l16.904 9.715Z"/><path fill="#CDCDD0" d="m57.1 58.14 1.86-3.75c-1.32-.538.986.061-.213-.078-1.925-.218-3.674.09-5.17.87l-5.436 2.82c2.428-1.27 5.54-1.277 8.96.139Zm13.04-6.496c3.457 2.208 6.508 5.855 8.615 9.944l2.84-3.726c-.497-.968 1.543-1.004.943-1.9-1.93-2.92-4.334-5.443-6.967-7.137-3.505-2.25-6.75-2.613-9.13-1.373l-5.436 2.819c2.38-1.24 5.63-.871 9.135 1.373Zm31.661 3.98 5.437-2.819c-6.43-4.131-12.38-4.809-16.727-2.547l-5.436 2.825c4.346-2.262 10.297-1.59 16.726 2.54Zm45.107 74.496c.472-9.333-5.824-21.231-14.039-26.494-2.191-1.409-4.286-2.165-6.223-2.401l-5.436 2.825c1.931.23 4.019.998 6.223 2.395 8.209 5.263 14.51 17.148 14.038 26.494-.224 4.53-2.003 7.651-4.709 9.049l5.436-2.819c2.706-1.415 4.486-4.518 4.71-9.049Z"/><path fill="#CDCDD0" d="M123.153 95.908c-.164 3.212-.854 5.927-1.931 8.141l5.436-2.819c1.083-2.207 1.774-4.917 1.931-8.147.714-14.239-8.844-32.276-21.345-40.291l-5.437 2.825c12.501 8.02 22.054 26.046 21.346 40.29Z"/><g opacity=".8"><path fill="#003067" d="M129.758 140.89a1.095 1.095 0 0 1 .548 1.675c-.132.187-.32.328-.536.403l-2.251 1.308a3.95 3.95 0 0 1-3.567-.012l-43.57-27.846a1.086 1.086 0 0 1-.012-2.053l2.251-1.308a3.944 3.944 0 0 1 3.567-.013l43.57 27.846Z" opacity=".2"/><path fill="#2E76BC" d="M78.749 61.588c-2.107-4.089-5.158-7.736-8.615-9.944-6.816-4.373-12.634-1.621-13.021 6.14l-.018.362c-7.616-3.145-13.682.762-14.136 9.848-.514 10.307 6.423 23.396 15.467 29.19l67.318 43.159c8.209 5.262 15.261 1.929 15.721-7.404.472-9.333-5.83-21.231-14.038-26.493-2.192-1.41-4.286-2.166-6.224-2.396 1.084-2.208 1.768-4.917 1.932-8.147.708-14.24-8.845-32.27-21.346-40.291-10.781-6.92-20.22-4.12-23.04 5.976Z" opacity=".8"/></g><path fill="#fff" d="m59.056 57.867-.006.17-.006.175a1.923 1.923 0 0 1-.902 1.537 1.98 1.98 0 0 1-1.126.302 1.834 1.834 0 0 1-.648-.145c-1.338-.55-2.62-.865-3.826-.92-4.485-.205-7.337 3.182-7.627 9.074-.23 4.645 1.162 10.07 3.922 15.29 2.773 5.22 6.55 9.558 10.661 12.183l67.299 43.17c2.089 1.349 4.165 2.099 5.981 2.178 3.965.187 6.49-2.825 6.756-8.045.206-4.168-1.053-9.061-3.547-13.773-2.507-4.724-5.909-8.626-9.608-10.991-1.858-1.191-3.674-1.899-5.406-2.117a1.968 1.968 0 0 1-1.471-1.004 1.909 1.909 0 0 1-.03-1.778c1.011-2.063 1.598-4.537 1.744-7.38.327-6.545-1.623-14.172-5.491-21.473-3.881-7.313-9.19-13.386-14.959-17.088-3.354-2.141-6.677-3.357-9.625-3.496-5.2-.242-8.942 2.716-10.503 8.353a1.928 1.928 0 0 1-1.677 1.404c-.091.006-.2.018-.29.012a1.93 1.93 0 0 1-1.635-1.053c-2.01-3.907-4.904-7.252-7.943-9.206-1.695-1.089-3.353-1.694-4.806-1.766-4.42-.17-5.134 4.41-5.23 6.387Zm11.09-6.224c3.457 2.214 6.508 5.855 8.615 9.95 1.84-6.575 6.478-10.059 12.465-9.78 3.22.15 6.81 1.379 10.587 3.798 12.507 8.02 22.06 26.046 21.352 40.297-.164 3.218-.854 5.928-1.931 8.142 1.937.236 4.019.998 6.223 2.401 8.185 5.256 14.48 17.142 14.02 26.488-.327 6.538-3.874 10.119-8.784 9.889-2.106-.096-4.473-.907-6.943-2.486L58.433 97.184C49.376 91.378 42.445 78.3 42.965 67.993c.358-7.222 4.262-11.16 9.656-10.912 1.398.06 2.906.417 4.474 1.065l.018-.37c.278-5.419 3.19-8.395 7.264-8.201 1.744.078 3.711.756 5.77 2.068Z"/><path fill="#fff" d="M107.916 93.144a.996.996 0 0 0-.388-.108.501.501 0 0 0-.26.048c-.158.09-.212.29-.218.441-.03.623.381 1.416.956 1.833.23.121.491.158.66.06.164-.096.212-.29.218-.44v-.037c.109-.593-.405-1.373-.968-1.797Zm-.194 4.87a.957.957 0 0 0-.43-.133.466.466 0 0 0-.26.049c-.158.096-.212.29-.218.435-.031.63.381 1.415.956 1.833.236.127.491.157.666.066.157-.09.212-.29.218-.441.03-.653-.418-1.518-.932-1.809Zm.708-11.82c.236.127.49.157.66.06.163-.084.212-.29.218-.441v-.036c.121-.642-.315-1.482-.926-1.773a.93.93 0 0 0-.442-.133.494.494 0 0 0-.255.049c-.157.09-.212.29-.218.441-.018.611.388 1.397.963 1.833Zm-.224 4.742c.236.127.491.157.66.06.164-.097.212-.29.218-.435v-.043c.109-.599-.29-1.367-.944-1.79a.864.864 0 0 0-.412-.121.467.467 0 0 0-.26.048c-.164.097-.212.29-.218.436-.024.623.387 1.41.956 1.845ZM107.498 102a.998.998 0 0 0-.388-.108.495.495 0 0 0-.26.048c-.157.091-.212.29-.218.441-.03.617.375 1.404.95 1.833.23.121.491.158.66.061.158-.091.212-.291.218-.442.037-.623-.387-1.409-.962-1.833Zm-.194 4.863a1.04 1.04 0 0 0-.43-.127.47.47 0 0 0-.26.048c-.163.085-.212.291-.218.436-.03.629.381 1.415.957 1.833.236.127.49.157.659.06.164-.097.212-.284.218-.436.037-.665-.411-1.524-.926-1.814Zm-3.281-16.121a.99.99 0 0 0-.387-.109.506.506 0 0 0-.261.049c-.157.102-.212.29-.218.441-.03.653.412 1.422 1.048 1.827.242.139.502.17.672.072.163-.084.199-.272.217-.417-.084-.677-.526-1.458-1.071-1.863Zm-.224 4.745a.987.987 0 0 0-.387-.11.506.506 0 0 0-.261.05c-.157.09-.211.29-.218.44-.03.654.412 1.422 1.048 1.828.242.139.502.169.672.072.157-.085.2-.272.218-.417-.085-.684-.527-1.452-1.072-1.863Zm.678-13.884a.977.977 0 0 0-.43-.133.525.525 0 0 0-.26.049c-.158.09-.212.29-.218.441-.03.641.424 1.422 1.047 1.827.242.133.503.17.672.072.158-.09.212-.29.218-.441.036-.605-.472-1.506-1.029-1.815Zm-.242 4.719a.9.9 0 0 0-.388-.11.449.449 0 0 0-.26.049c-.163.097-.212.29-.218.436-.03.659.412 1.427 1.047 1.826.243.14.503.176.672.079.158-.09.2-.272.218-.418-.091-.677-.532-1.457-1.071-1.862Zm-.63 13.278a.907.907 0 0 0-.387-.116.446.446 0 0 0-.26.055c-.164.084-.212.29-.218.435-.031.647.423 1.428 1.047 1.827.242.139.502.169.672.073.163-.085.2-.267.218-.418-.085-.671-.539-1.464-1.072-1.857Zm-.218 4.741a.994.994 0 0 0-.387-.108.503.503 0 0 0-.26.048c-.158.103-.212.29-.218.442-.031.653.411 1.421 1.047 1.826.242.139.502.17.672.073.157-.085.2-.272.218-.418-.091-.677-.533-1.457-1.072-1.863Zm-3.268-15.993a.996.996 0 0 0-.388-.11.503.503 0 0 0-.26.05c-.164.096-.212.29-.218.44-.03.624.381 1.41.956 1.828.236.127.491.163.666.066.164-.097.212-.29.218-.441.024-.617-.399-1.41-.974-1.833Zm-.315 4.749a.863.863 0 0 0-.412-.121.47.47 0 0 0-.26.048c-.158.085-.212.29-.218.436-.03.629.381 1.415.956 1.833.236.126.49.157.66.06.163-.097.212-.29.218-.435v-.043c.127-.599-.285-1.36-.944-1.778Zm.781-13.894a.98.98 0 0 0-.43-.133.528.528 0 0 0-.26.048c-.158.091-.212.29-.219.442-.03.623.382 1.415.957 1.833.23.12.49.157.66.06.157-.09.212-.29.218-.441.036-.66-.412-1.525-.926-1.809Zm-.255 4.724a.908.908 0 0 0-.393-.115.449.449 0 0 0-.26.055c-.158.096-.213.29-.219.435-.03.623.382 1.415.957 1.833.236.127.49.157.666.06.157-.084.212-.29.218-.435.024-.63-.394-1.416-.969-1.833Zm-.72 13.276a.936.936 0 0 0-.412-.12.468.468 0 0 0-.26.048c-.164.084-.212.29-.218.441-.03.623.381 1.41.956 1.827.236.127.491.157.666.067.158-.091.212-.29.218-.442v-.042c.121-.6-.29-1.367-.95-1.779Zm-.23 4.723a.982.982 0 0 0-.388-.109.506.506 0 0 0-.26.048c-.157.091-.212.291-.218.442-.03.623.382 1.415.957 1.833.23.121.49.157.659.06.158-.09.212-.29.218-.441v-.037c.109-.586-.405-1.373-.968-1.796ZM96.165 85.97a.907.907 0 0 0-.442-.145.491.491 0 0 0-.254.048c-.157.103-.212.29-.218.442-.03.623.381 1.415.956 1.833.237.127.49.157.666.06.158-.085.212-.29.218-.442v-.036c.115-.629-.326-1.47-.926-1.76Zm-.272 4.718a.897.897 0 0 0-.388-.109.406.406 0 0 0-.26.049c-.157.096-.212.29-.218.435-.03.63.382 1.415.957 1.833.236.127.49.157.66.06.163-.097.211-.29.217-.435v-.043c.11-.598-.405-1.379-.968-1.79Zm.738-11.698c.23.12.49.157.66.06.157-.091.212-.29.218-.442v-.042c.127-.635-.315-1.476-.926-1.766a.973.973 0 0 0-.442-.145.439.439 0 0 0-.254.054c-.158.085-.212.284-.218.435-.025.617.387 1.41.962 1.845Zm-.26 2.552a1.027 1.027 0 0 0-.442-.145.493.493 0 0 0-.254.054c-.157.085-.212.29-.218.442-.03.623.381 1.41.957 1.827.284.139.593.17.774.054.127-.072.2-.218.206-.423.024-.605-.393-1.5-1.023-1.809Zm-.641 13.266a.977.977 0 0 0-.43-.133.439.439 0 0 0-.255.048c-.157.091-.212.29-.218.442-.03.623.382 1.415.957 1.833.236.127.49.157.666.06.157-.097.212-.29.218-.441.024-.654-.424-1.513-.939-1.809Zm-.255 4.724a.992.992 0 0 0-.387-.109.503.503 0 0 0-.26.048c-.158.091-.213.29-.219.442-.03.623.382 1.409.957 1.827.236.127.49.163.666.066.157-.09.212-.29.218-.441.018-.617-.388-1.404-.975-1.833Zm-3.221-15.969a.997.997 0 0 0-.43-.127.47.47 0 0 0-.26.048c-.163.097-.211.29-.217.435-.03.648.423 1.428 1.047 1.827.242.14.514.176.672.079.157-.09.2-.272.218-.424-.067-.653-.497-1.542-1.03-1.838ZM92 88.282a.988.988 0 0 0-.387-.11.502.502 0 0 0-.26.05c-.164.096-.212.29-.218.44-.03.642.423 1.422 1.047 1.828.242.139.514.169.672.072.163-.085.2-.272.218-.417-.079-.684-.527-1.452-1.072-1.863Zm.666-14.003a.896.896 0 0 0-.411-.127.528.528 0 0 0-.26.048c-.158.103-.213.29-.219.441-.03.648.424 1.428 1.048 1.827.242.14.514.17.672.073.163-.097.212-.29.218-.436.042-.647-.4-1.421-1.048-1.826Zm-.206 4.857a.976.976 0 0 0-.43-.133.44.44 0 0 0-.254.054c-.157.085-.212.29-.218.436-.03.647.424 1.427 1.048 1.826.242.14.514.176.672.073.163-.085.212-.29.218-.436.03-.605-.485-1.512-1.035-1.82Zm-.623 13.276a.976.976 0 0 0-.43-.133.491.491 0 0 0-.254.049c-.157.09-.212.29-.218.441-.03.648.424 1.428 1.047 1.827.242.14.515.17.672.073.164-.085.2-.272.218-.418-.073-.653-.496-1.536-1.035-1.839Zm-.254 4.724a.992.992 0 0 0-.388-.108.503.503 0 0 0-.26.048c-.158.09-.212.29-.218.442-.03.64.424 1.42 1.047 1.826.242.14.515.17.672.073.158-.085.2-.272.218-.418-.079-.671-.539-1.47-1.071-1.863ZM88.35 81.157c-.181-.114-.345-.181-.478-.187a.318.318 0 0 0-.188.03c-.139.06-.218.248-.23.496-.03.623.382 1.416.957 1.833.236.127.49.157.665.06.158-.084.212-.29.219-.435.018-.641-.43-1.506-.945-1.797Zm-.315 4.741a.939.939 0 0 0-.442-.139.439.439 0 0 0-.254.048c-.163.097-.212.29-.218.442-.03.623.382 1.41.957 1.833.23.12.49.157.66.06.157-.09.211-.29.217-.441v-.037c.127-.623-.314-1.463-.92-1.766Zm.72-14.028a.988.988 0 0 0-.387-.11.45.45 0 0 0-.26.055c-.158.097-.212.285-.218.436-.03.623.381 1.415.956 1.833.236.127.49.157.666.06.157-.085.212-.29.218-.435.018-.63-.393-1.416-.975-1.84Zm-.199 4.872a.976.976 0 0 0-.43-.133.491.491 0 0 0-.254.048c-.158.09-.212.29-.218.442-.03.623.381 1.415.956 1.832.236.127.49.158.66.06.157-.084.212-.29.218-.435.036-.665-.412-1.536-.932-1.814Zm-.351 15.525c.133.03.242.018.327-.043.302-.205.333-.889-.085-1.542-.26-.502-.672-.805-.957-.883-.042-.012-.084-.012-.12-.012a.263.263 0 0 0-.188.042c-.303.2-.333.89.09 1.536.255.496.612.823.933.902Zm-.588 2.481a.888.888 0 0 0-.442-.145.492.492 0 0 0-.254.048c-.157.09-.212.29-.218.442-.03.623.382 1.415.957 1.832.236.127.49.158.66.06.157-.084.211-.29.217-.44v-.037c.127-.623-.308-1.458-.92-1.76Z"/><path fill="#0078D4" d="M94.03 113.146c.169.444.37.876.6 1.292a8.554 8.554 0 0 1-.52-1.209c-.026-.031-.055-.052-.08-.083Zm0-39.957c.169.445.37.877.6 1.293a8.578 8.578 0 0 1-.52-1.21c-.026-.03-.055-.052-.08-.083Z"/><path fill="#003067" d="M77.748 148.342a1.103 1.103 0 0 1 .75 1.035 1.097 1.097 0 0 1-.738 1.043l-2.25 1.308a3.937 3.937 0 0 1-3.568-.012l-33.559-19.375a1.088 1.088 0 0 1-.011-2.054l2.25-1.308a3.943 3.943 0 0 1 3.567-.012l33.56 19.375Z" opacity=".2"/><path fill="#E8E8E8" d="M69.708 81.734c-7.088-4.092-13.513-4.473-18.153-1.776l-5.102 2.965c4.64-2.697 11.066-2.316 18.153 1.776a56.017 56.017 0 0 1 25.428 44.043c-.023 8.036-2.859 13.691-7.436 16.35l5.102-2.964c4.577-2.66 7.413-8.314 7.436-16.35a56.021 56.021 0 0 0-25.428-44.044Z"/><path fill="#0078D4" d="M73.08 115.993c.941.401 1.652-.11 1.656-1.225a4.213 4.213 0 0 0-1.643-3.129l-.262-.169-16.576-9.571-.262-.133c-.94-.401-1.651.11-1.655 1.225a4.213 4.213 0 0 0 1.643 3.129l.261.169 16.577 9.571.262.133Zm-5.128 7.306c.94.401 1.652-.111 1.655-1.226a4.24 4.24 0 0 0-1.642-3.129l-.262-.169-11.477-6.626-.262-.134c-.94-.383-1.652.11-1.655 1.226a4.221 4.221 0 0 0 1.642 3.129l.262.169 11.477 6.626.262.133"/><path fill="url(#c)" d="M64.605 84.699a56.017 56.017 0 0 1 25.429 44.043c-.046 16.18-11.499 22.706-25.595 14.568a45.678 45.678 0 0 1-11.837-10.185l-10.947-3.04a2.436 2.436 0 0 1-.562-.24 4.827 4.827 0 0 1-2.083-3.06 2.859 2.859 0 0 1 .003-1.257l2.886-10.923a45.471 45.471 0 0 1-2.889-15.32c.047-16.198 11.515-22.716 25.595-14.586Zm8.476 31.294c.94.401 1.651-.11 1.654-1.225a4.217 4.217 0 0 0-1.642-3.129l-.262-.169-16.576-9.571-.262-.133c-.94-.401-1.652.11-1.655 1.226a4.214 4.214 0 0 0 1.642 3.129l.262.168 16.576 9.571.262.133Zm-5.129 7.306c.94.401 1.651-.111 1.655-1.226a4.244 4.244 0 0 0-1.643-3.129l-.262-.169-11.477-6.626-.262-.134c-.94-.383-1.651.111-1.654 1.226a4.217 4.217 0 0 0 1.642 3.129l.262.169 11.477 6.626.262.134"/><defs><linearGradient id="a" x1="90.315" x2="90.315" y1="9.571" y2="180.971" gradientUnits="userSpaceOnUse"><stop stop-color="#00ABDE"/><stop offset="1" stop-color="#007ED8"/></linearGradient><linearGradient id="b" x1="36.435" x2="203.112" y1="4.363" y2="286.693" gradientUnits="userSpaceOnUse"><stop stop-color="#007ED8"/><stop offset=".707" stop-color="#002D4C"/></linearGradient><linearGradient id="c" x1="64.488" x2="64.488" y1="144.458" y2="82.629" gradientUnits="userSpaceOnUse"><stop stop-color="#F2F2F2"/><stop offset=".44" stop-color="#FBFBFB"/><stop offset="1" stop-color="#fff"/></linearGradient></defs></svg>