<svg xmlns="http://www.w3.org/2000/svg" fill="none" viewBox="0 0 103 103"><path fill="url(#a)" d="M51.071 98.236c25.852 0 46.806-20.954 46.806-46.806 0-25.852-20.954-46.806-46.806-46.806-25.852 0-46.806 20.954-46.806 46.806 0 25.852 20.954 46.806 46.806 46.806Z"/><path fill="#D9D9D9" fill-rule="evenodd" d="M51.071 1.43c-27.613 0-50 22.387-50 50s22.387 50 50 50 50-22.387 50-50-22.387-50-50-50Zm0 95.757c-25.272 0-45.757-20.485-45.757-45.757S25.8 5.673 51.071 5.673 96.828 26.158 96.828 51.43 76.343 97.187 51.07 97.187Z" clip-rule="evenodd"/><path fill="#F2F1F0" fill-rule="evenodd" d="M5.174 51.43c0 25.347 20.55 45.897 45.897 45.897 25.347 0 45.897-20.55 45.897-45.897 0-25.347-20.55-45.897-45.897-45.897-25.346 0-45.897 20.55-45.897 45.897ZM51.07 1.786c-27.417 0-49.644 22.227-49.644 49.644 0 27.417 22.227 49.644 49.644 49.644 27.417 0 49.644-22.227 49.644-49.644 0-27.417-22.227-49.644-49.644-49.644Z" clip-rule="evenodd"/><path fill="#0078D4" fill-rule="evenodd" d="M7.984 51.43c0 23.801 19.286 43.087 43.087 43.087 23.801 0 43.087-19.286 43.087-43.087 0-23.801-19.286-43.087-43.087-43.087-23.801 0-43.087 19.286-43.087 43.087ZM51.07 4.596c-25.86 0-46.833 20.972-46.833 46.834 0 25.862 20.972 46.834 46.834 46.834 25.862 0 46.834-20.972 46.834-46.834 0-25.862-20.963-46.834-46.834-46.834Z" clip-rule="evenodd"/><path fill="url(#b)" d="M62.648 74.978h-23.51l-2.473 4.609-1.649-.89 6.848-12.748 1.648.89-3.363 6.256h21.507l-3.363-6.257 1.648-.89 6.848 12.749-1.649.89-2.492-4.609Z"/><path stroke="url(#c)" stroke-width="3" d="M50.762 29.062c2.089 0 3.775-1.705 3.775-3.803s-1.686-3.803-3.775-3.803-3.775 1.705-3.775 3.803c.01 2.098 1.696 3.803 3.775 3.803Z"/><path fill="url(#d)" d="M76.549 30.327H25.603v34.245h50.946V30.327Z"/><path fill="url(#e)" d="M24.947 25.25h52.257a1.88 1.88 0 0 1 1.874 1.873v1.958c0 1.03-.843 1.873-1.874 1.873H24.947a1.879 1.879 0 0 1-1.873-1.873v-1.958c0-1.03.833-1.873 1.873-1.873Z"/><path fill="url(#f)" d="M24.657 63.85h52.828c.871 0 1.583.712 1.583 1.583s-.712 1.583-1.583 1.583H24.657a1.587 1.587 0 0 1-1.583-1.583c0-.87.711-1.583 1.583-1.583Z"/><path stroke="url(#g)" stroke-linecap="round" d="M36.243 49.444s4.281-6.978 9.152-5.61c4.861 1.377 3.971 5.01 9.057 4.44 5.096-.572 11.063-7.25 11.063-7.25"/><path stroke="url(#h)" stroke-linecap="round" stroke-width="1.5" d="M65.552 56.77H36.075V35.45"/><path stroke="url(#i)" stroke-width="3" d="M50.762 29.062c2.089 0 3.775-1.705 3.775-3.803s-1.686-3.803-3.775-3.803-3.775 1.705-3.775 3.803c.01 2.098 1.696 3.803 3.775 3.803Z"/><path fill="url(#j)" d="M76.549 30.327H25.603v34.245h50.946V30.327Z"/><path fill="url(#k)" d="M24.947 25.25h52.257a1.88 1.88 0 0 1 1.874 1.873v1.958c0 1.03-.843 1.873-1.874 1.873H24.947a1.879 1.879 0 0 1-1.873-1.873v-1.958c0-1.03.833-1.873 1.873-1.873Z"/><path fill="url(#l)" d="M24.657 63.85h52.828c.871 0 1.583.712 1.583 1.583s-.712 1.583-1.583 1.583H24.657a1.587 1.587 0 0 1-1.583-1.583c0-.87.711-1.583 1.583-1.583Z"/><path stroke="url(#m)" stroke-linecap="round" d="M36.243 49.444s4.281-6.978 9.152-5.61c4.861 1.377 3.971 5.01 9.057 4.44 5.096-.572 11.063-7.25 11.063-7.25"/><path stroke="url(#n)" stroke-linecap="round" stroke-width="1.5" d="M65.552 56.77H36.075V35.45"/><defs><linearGradient id="a" x1="52.842" x2="48.859" y1="-13.363" y2="132.405" gradientUnits="userSpaceOnUse"><stop stop-color="#00ABDE"/><stop offset="1" stop-color="#007ED8"/></linearGradient><linearGradient id="b" x1="50.891" x2="50.891" y1="67.178" y2="78.368" gradientUnits="userSpaceOnUse"><stop stop-color="#D2EBFF"/><stop offset="1" stop-color="#F0FFFD"/></linearGradient><linearGradient id="c" x1="50.767" x2="50.767" y1="21.462" y2="29.058" gradientUnits="userSpaceOnUse"><stop stop-color="#0099BE"/><stop offset="1" stop-color="#006E97"/></linearGradient><linearGradient id="d" x1="51.081" x2="51.081" y1="64.573" y2="30.326" gradientUnits="userSpaceOnUse"><stop stop-color="#D2EBFF"/><stop offset="1" stop-color="#F0FFFD"/></linearGradient><linearGradient id="e" x1="51.071" x2="51.071" y1="25.263" y2="30.96" gradientUnits="userSpaceOnUse"><stop stop-color="#0099BE"/><stop offset="1" stop-color="#006E97"/></linearGradient><linearGradient id="f" x1="51.071" x2="51.071" y1="63.859" y2="67.024" gradientUnits="userSpaceOnUse"><stop stop-color="#0099BE"/><stop offset="1" stop-color="#006E97"/></linearGradient><linearGradient id="g" x1="50.881" x2="50.881" y1="41.047" y2="49.448" gradientUnits="userSpaceOnUse"><stop stop-color="#0099BE"/><stop offset="1" stop-color="#006E97"/></linearGradient><linearGradient id="h" x1="50.811" x2="50.811" y1="35.447" y2="56.764" gradientUnits="userSpaceOnUse"><stop stop-color="#5CBADA"/><stop offset="1" stop-color="#0099BE"/></linearGradient><linearGradient id="i" x1="50.767" x2="50.767" y1="21.462" y2="29.058" gradientUnits="userSpaceOnUse"><stop stop-color="#0099BE"/><stop offset="1" stop-color="#006E97"/></linearGradient><linearGradient id="j" x1="51.081" x2="51.081" y1="64.573" y2="30.326" gradientUnits="userSpaceOnUse"><stop stop-color="#D2EBFF"/><stop offset="1" stop-color="#F0FFFD"/></linearGradient><linearGradient id="k" x1="51.071" x2="51.071" y1="25.263" y2="30.96" gradientUnits="userSpaceOnUse"><stop stop-color="#0099BE"/><stop offset="1" stop-color="#006E97"/></linearGradient><linearGradient id="l" x1="51.071" x2="51.071" y1="63.859" y2="67.024" gradientUnits="userSpaceOnUse"><stop stop-color="#0099BE"/><stop offset="1" stop-color="#006E97"/></linearGradient><linearGradient id="m" x1="50.881" x2="50.881" y1="41.047" y2="49.448" gradientUnits="userSpaceOnUse"><stop stop-color="#0099BE"/><stop offset="1" stop-color="#006E97"/></linearGradient><linearGradient id="n" x1="50.811" x2="50.811" y1="35.447" y2="56.764" gradientUnits="userSpaceOnUse"><stop stop-color="#5CBADA"/><stop offset="1" stop-color="#0099BE"/></linearGradient></defs></svg>