<svg xmlns="http://www.w3.org/2000/svg" xmlns:xlink="http://www.w3.org/1999/xlink" viewBox="0 0 101 101"><defs><linearGradient id="d" x1="77.83%" x2="-99.689%" y1="11.2%" y2="253.808%"><stop offset="0%" stop-color="#FFF"/><stop offset="100%" stop-opacity=".5"/></linearGradient><linearGradient id="j" x1="50%" x2="50%" y1="100%" y2="0%"><stop offset="15%" stop-color="#CCC"/><stop offset="100%" stop-color="#707070"/></linearGradient><linearGradient id="l" x1="50%" x2="50%" y1=".67%" y2="100%"><stop offset="0%" stop-color="#6A6A6A"/><stop offset="100%" stop-color="#343333"/></linearGradient><linearGradient id="n" x1="0%" x2="100.2%" y1="50%" y2="50%"><stop offset="0%" stop-color="#50C7E8"/><stop offset="25%" stop-color="#4CC3E4"/><stop offset="51%" stop-color="#41B6DA"/><stop offset="77%" stop-color="#2FA2C8"/><stop offset="100%" stop-color="#1989B2"/></linearGradient><linearGradient id="o" x1="50%" x2="50%" y1="100%" y2="0%"><stop offset="0%" stop-color="#D2EBFF"/><stop offset="100%" stop-color="#F0FFFD"/></linearGradient><linearGradient id="p" x1="50%" x2="50%" y1="100%" y2="0%"><stop offset="0%" stop-color="#D2EBFF"/><stop offset="100%" stop-color="#F0FFFD"/></linearGradient><linearGradient id="q" x1="50%" x2="50%" y1="100%" y2="0%"><stop offset="0%" stop-color="#D2EBFF"/><stop offset="100%" stop-color="#F0FFFD"/></linearGradient><path id="c" d="M0 0h94.34v94.34H0z"/><path id="g" d="M50 2.83c26.051 0 47.17 21.12 47.17 47.17 0 26.051-21.119 47.17-47.17 47.17C23.949 97.17 2.83 76.05 2.83 50 2.83 23.949 23.95 2.83 50 2.83Zm0 3.774C26.033 6.604 6.604 26.033 6.604 50c0 23.967 19.429 43.396 43.396 43.396 23.967 0 43.396-19.429 43.396-43.396C93.396 26.033 73.967 6.604 50 6.604Z"/><path id="k" d="M0 .049h67.321v44.423H0z"/><filter id="e" width="102%" height="102%" x="-.5%" y="-.5%" filterUnits="objectBoundingBox"><feOffset dx="1" dy="1" in="SourceAlpha" result="shadowOffsetOuter1"/><feMorphology in="SourceAlpha" radius="4" result="shadowInner"/><feOffset dx="1" dy="1" in="shadowInner" result="shadowInner"/><feComposite in="shadowOffsetOuter1" in2="shadowInner" operator="out" result="shadowOffsetOuter1"/><feColorMatrix in="shadowOffsetOuter1" values="0 0 0 0 0 0 0 0 0 0 0 0 0 0 0 0 0 0 0.15 0"/></filter><filter id="i" width="135.3%" height="138.7%" x="-17.6%" y="-19.4%" filterUnits="objectBoundingBox"><feOffset dy="2" in="SourceAlpha" result="shadowOffsetOuter1"/><feGaussianBlur in="shadowOffsetOuter1" result="shadowBlurOuter1" stdDeviation="2"/><feColorMatrix in="shadowBlurOuter1" result="shadowMatrixOuter1" values="0 0 0 0 0 0 0 0 0 0 0 0 0 0 0 0 0 0 0.1 0"/><feMerge><feMergeNode in="shadowMatrixOuter1"/><feMergeNode in="SourceGraphic"/></feMerge></filter><rect id="a" width="94.34" height="94.34" x="0" y="0" rx="47.17"/><rect id="f" width="100" height="100" x="0" y="0" rx="50"/></defs><g fill="none" fill-rule="evenodd"><g transform="translate(2.83 2.83)"><mask id="b" fill="#fff"><use xlink:href="#a"/></mask><g mask="url(#b)"><use xlink:href="#c" fill="#0078D4"/><use xlink:href="#c" fill="url(#d)" fill-opacity=".4"/></g></g><use xlink:href="#f" fill="#000" filter="url(#e)"/><rect width="96" height="96" x="2" y="2" stroke="#F2F1F0" stroke-linejoin="square" stroke-width="4" rx="48"/><mask id="h" fill="#fff"><use xlink:href="#g"/></mask><use xlink:href="#g" fill="#0078D4" fill-rule="nonzero"/><g fill="#27C0F5" mask="url(#h)"><path d="M2.83 2.83h94.34v94.34H2.83z"/></g><g filter="url(#i)" transform="translate(16 25)"><path fill="url(#j)" fill-rule="nonzero" d="M47.704 57.765c-6.898-1.106-7.17-6.161-7.17-14.336H26.856c0 8.175-.232 13.23-7.13 14.336-1.972.222-3.461 1.927-3.45 3.95h34.878c.012-2.023-1.477-3.728-3.45-3.95Z"/><mask id="m" fill="#fff"><use xlink:href="#k"/></mask><path fill="url(#l)" d="M65.092.049c1.231 0 2.23.988 2.23 2.207v40.008a2.22 2.22 0 0 1-2.23 2.208H2.229A2.218 2.218 0 0 1 0 42.264V2.256C0 1.037 1 .05 2.23.05h62.863Z" mask="url(#m)"/></g><g fill-rule="nonzero"><path fill="#198AB3" d="M55.256 84.964H44.89l-.838-3.125h12.042z"/><path fill="url(#n)" d="M4.497.381V5.26l-4.42 4.954.838 3.125 6.783-8.08V.382z" transform="translate(43.976 71.626)"/><path fill="#32BEDD" d="m55.256 84.964-4.726-4.878 1.982-2.286 3.582 4.039z"/></g><g fill="url(#o)" transform="translate(29 31)"><circle cx="4" cy="4" r="1"/><circle cx="4" cy="7" r="1"/><circle cx="6" cy="5" r="1"/><circle cx="5" cy="3" r="1"/><circle cx="3" cy="1" r="1"/><circle cx="1" cy="3" r="1"/><circle cx="2" cy="4" r="1"/><circle cx="1" cy="6" r="1"/><circle cx="6" cy="1" r="1"/><circle cx="8" cy="3" r="1"/><circle cx="2" cy="8" r="1"/><circle cx="6" cy="8" r="1"/><circle cx="9" cy="6" r="1"/><circle cx="4" cy="9" r="1"/><circle cx="8" cy="8" r="1"/></g><g fill="url(#o)" transform="translate(43 47)"><circle cx="4" cy="4" r="1"/><circle cx="4" cy="7" r="1"/><circle cx="6" cy="5" r="1"/><circle cx="5" cy="3" r="1"/><circle cx="3" cy="1" r="1"/><circle cx="1" cy="3" r="1"/><circle cx="2" cy="4" r="1"/><circle cx="1" cy="6" r="1"/><circle cx="6" cy="1" r="1"/><circle cx="8" cy="3" r="1"/><circle cx="2" cy="8" r="1"/><circle cx="6" cy="8" r="1"/><circle cx="9" cy="6" r="1"/><circle cx="4" cy="9" r="1"/><circle cx="8" cy="8" r="1"/></g><g fill="url(#o)" transform="translate(65 36)"><circle cx="4" cy="4" r="1"/><circle cx="4" cy="7" r="1"/><circle cx="6" cy="5" r="1"/><circle cx="5" cy="3" r="1"/><circle cx="3" cy="1" r="1"/><circle cx="1" cy="3" r="1"/><circle cx="2" cy="4" r="1"/><circle cx="1" cy="6" r="1"/><circle cx="6" cy="1" r="1"/><circle cx="8" cy="3" r="1"/><circle cx="2" cy="8" r="1"/><circle cx="6" cy="8" r="1"/><circle cx="9" cy="6" r="1"/><circle cx="4" cy="9" r="1"/><circle cx="8" cy="8" r="1"/></g><path fill="url(#p)" d="M24 32h2v30h-2z"/><path fill="url(#q)" d="M49.5 34.5h2v53h-2z" transform="rotate(90 50.5 61)"/></g></svg>