<svg xmlns="http://www.w3.org/2000/svg" xmlns:xlink="http://www.w3.org/1999/xlink" viewBox="0 0 101 101"><defs><filter id="e" width="102%" height="102%" x="-.5%" y="-.5%" filterUnits="objectBoundingBox"><feOffset dx="1" dy="1" in="SourceAlpha" result="shadowOffsetOuter1"/><feMorphology in="SourceAlpha" radius="4" result="shadowInner"/><feOffset dx="1" dy="1" in="shadowInner" result="shadowInner"/><feComposite in="shadowOffsetOuter1" in2="shadowInner" operator="out" result="shadowOffsetOuter1"/><feColorMatrix in="shadowOffsetOuter1" values="0 0 0 0 0 0 0 0 0 0 0 0 0 0 0 0 0 0 0.15 0"/></filter><filter id="i" width="187.5%" height="187.5%" x="-43.8%" y="-31.2%" filterUnits="objectBoundingBox"><feOffset dy="2" in="SourceAlpha" result="shadowOffsetOuter1"/><feGaussianBlur in="shadowOffsetOuter1" result="shadowBlurOuter1" stdDeviation="2"/><feColorMatrix in="shadowBlurOuter1" values="0 0 0 0 0 0 0 0 0 0 0 0 0 0 0 0 0 0 0.1 0"/></filter><filter id="l" width="187.5%" height="187.5%" x="-43.8%" y="-31.2%" filterUnits="objectBoundingBox"><feOffset dy="2" in="SourceAlpha" result="shadowOffsetOuter1"/><feGaussianBlur in="shadowOffsetOuter1" result="shadowBlurOuter1" stdDeviation="2"/><feColorMatrix in="shadowBlurOuter1" values="0 0 0 0 0 0 0 0 0 0 0 0 0 0 0 0 0 0 0.1 0"/></filter><filter id="n" width="200%" height="200%" x="-50%" y="-37.5%" filterUnits="objectBoundingBox"><feMorphology in="SourceAlpha" operator="dilate" radius="1" result="shadowSpreadOuter1"/><feOffset dy="2" in="shadowSpreadOuter1" result="shadowOffsetOuter1"/><feMorphology in="SourceAlpha" radius="1" result="shadowInner"/><feOffset dy="2" in="shadowInner" result="shadowInner"/><feComposite in="shadowOffsetOuter1" in2="shadowInner" operator="out" result="shadowOffsetOuter1"/><feGaussianBlur in="shadowOffsetOuter1" result="shadowBlurOuter1" stdDeviation="2"/><feColorMatrix in="shadowBlurOuter1" values="0 0 0 0 0 0 0 0 0 0 0 0 0 0 0 0 0 0 0.1 0"/></filter><filter id="p" width="160%" height="160%" x="-30%" y="-30%" filterUnits="objectBoundingBox"><feOffset dy="2" in="SourceAlpha" result="shadowOffsetOuter1"/><feGaussianBlur in="shadowOffsetOuter1" result="shadowBlurOuter1" stdDeviation="2"/><feColorMatrix in="shadowBlurOuter1" result="shadowMatrixOuter1" values="0 0 0 0 0 0 0 0 0 0 0 0 0 0 0 0 0 0 0.1 0"/><feMerge><feMergeNode in="shadowMatrixOuter1"/><feMergeNode in="SourceGraphic"/></feMerge></filter><filter id="q" width="100%" height="100%" x="0%" y="0%" filterUnits="objectBoundingBox"><feOffset in="SourceAlpha" result="shadowOffsetOuter1"/><feColorMatrix in="shadowOffsetOuter1" values="0 0 0 0 0 0 0 0 0 0 0 0 0 0 0 0 0 0 0.1 0"/></filter><rect id="a" width="94.34" height="94.34" x="0" y="0" rx="47.17"/><rect id="f" width="100" height="100" x="0" y="0" rx="50"/><rect id="j" width="16" height="16" x="26" y="19" rx="2"/><rect id="m" width="16" height="16" x="26" y="42" rx="2"/><rect id="o" width="16" height="16" x="26" y="65" rx="2"/><linearGradient id="d" x1="77.83%" x2="-99.689%" y1="11.2%" y2="253.808%"><stop offset="0%" stop-color="#FFF"/><stop offset="100%" stop-opacity=".5"/></linearGradient><linearGradient id="k" x1="50%" x2="50%" y1="100%" y2="0%"><stop offset="0%" stop-color="#D2EBFF"/><stop offset="100%" stop-color="#F0FFFD"/></linearGradient><linearGradient id="s" x1="50%" x2="50%" y1="0%" y2="100%"><stop offset="0%" stop-color="#1E5CA5"/><stop offset="100%" stop-color="#225496"/></linearGradient><linearGradient id="t" x1="0%" x2="100.2%" y1="50%" y2="50%"><stop offset="0%" stop-color="#50C7E8"/><stop offset="25%" stop-color="#4CC3E4"/><stop offset="51%" stop-color="#41B6DA"/><stop offset="77%" stop-color="#2FA2C8"/><stop offset="100%" stop-color="#1989B2"/></linearGradient><path id="c" d="M0 0h94.34v94.34H0z"/><path id="g" d="M50 2.83c26.051 0 47.17 21.12 47.17 47.17 0 26.051-21.119 47.17-47.17 47.17C23.949 97.17 2.83 76.05 2.83 50 2.83 23.949 23.95 2.83 50 2.83Zm0 3.774C26.033 6.604 6.604 26.033 6.604 50c0 23.967 19.429 43.396 43.396 43.396 23.967 0 43.396-19.429 43.396-43.396C93.396 26.033 73.967 6.604 50 6.604Z"/><path id="r" d="M40 21.81v-4.608l-4.71-1.646-1.158-3.128 2.314-4.856v-.494L34.96 5.597 33.223 3.62h-.661l-4.628 2.47-3.14-.906L22.726 0h-4.545l-1.57 4.691-3.472 1.4L7.77 3.539 4.545 6.75v.576l2.397 4.61-1.405 3.456L0 17.449v4.609h.661l4.876 1.646L6.86 26.83l-2.48 5.35 3.223 3.292h.661l4.546-2.304 3.223 1.317L18.017 40h4.628v-.658l1.57-4.939 3.14-1.317 5.455 2.552 3.223-3.21v-.658l-2.314-4.61.91-3.21L40 21.81Zm-19.669 3.904c-3.443-.37-6.045-3.137-6.045-6.428 0-3.292 2.602-6.059 6.045-6.428 1.799-.022 3.532.641 4.811 1.841 1.28 1.2 2 2.838 2 4.546.024 1.722-.686 3.38-1.969 4.599-1.282 1.218-3.028 1.892-4.842 1.87Z"/></defs><g fill="none" fill-rule="evenodd"><g transform="translate(2.83 2.83)"><mask id="b" fill="#fff"><use xlink:href="#a"/></mask><g mask="url(#b)"><use xlink:href="#c" fill="#0078D4"/><use xlink:href="#c" fill="url(#d)" fill-opacity=".4"/></g></g><use xlink:href="#f" fill="#000" filter="url(#e)"/><rect width="96" height="96" x="2" y="2" stroke="#F2F1F0" stroke-linejoin="square" stroke-width="4" rx="48"/><mask id="h" fill="#fff"><use xlink:href="#g"/></mask><use xlink:href="#g" fill="#0078D4" fill-rule="nonzero"/><g fill="#27C0F5" mask="url(#h)"><path d="M2.83 2.83h94.34v94.34H2.83z"/></g><use xlink:href="#j" fill="#000" filter="url(#i)"/><use xlink:href="#j" fill="url(#k)"/><use xlink:href="#m" fill="#000" filter="url(#l)"/><use xlink:href="#m" fill="url(#k)"/><use xlink:href="#o" fill="#000" filter="url(#n)"/><use xlink:href="#o" stroke="url(#k)" stroke-width="2"/><path stroke="#FFF" stroke-width="2" d="M41 28.5h26.682a1 1 0 0 1 1 1v43a1 1 0 0 1-1 1H45.668"/><path fill="#FFF" d="M50 68.5v10l-6-5z"/><g filter="url(#p)" transform="translate(49 31)"><g fill-rule="nonzero"><use xlink:href="#r" fill="#000" filter="url(#q)"/><use xlink:href="#r" fill="url(#s)"/></g><circle cx="20.645" cy="19.677" r="6.774" fill="#FFF"/></g><g fill-rule="nonzero"><path fill="#198AB3" d="M73.794 55.694h-8.31l-.673-2.505h9.656z"/><path fill="url(#t)" d="M3.606.306v3.91L.06 8.19l.672 2.505 5.44-6.477V.306z" transform="translate(64.75 45)"/><path fill="#32BEDD" d="m73.794 55.694-3.788-3.91 1.588-1.834 2.873 3.239z"/></g></g></svg>