<svg xmlns="http://www.w3.org/2000/svg" fill="none" viewBox="0 0 103 103"><path fill="url(#a)" d="M51.76 98.461c-25.85 0-46.81-20.95-46.81-46.81 0-25.86 20.96-46.81 46.81-46.81s46.81 20.96 46.81 46.81-20.96 46.81-46.81 46.81Z"/><path fill="#F2F1F0" fill-rule="evenodd" d="M97.66 51.651c0 25.35-20.55 45.9-45.9 45.9-25.35 0-45.9-20.55-45.9-45.9 0-25.35 20.55-45.9 45.9-45.9 25.35 0 45.9 20.55 45.9 45.9Zm-45.9-49.64c27.42 0 49.64 22.22 49.64 49.64s-22.23 49.641-49.64 49.641c-27.42 0-49.64-22.23-49.64-49.64 0-27.42 22.22-49.64 49.64-49.64Z" clip-rule="evenodd"/><path fill="url(#b)" fill-rule="evenodd" d="M94.85 51.651c0 23.8-19.29 43.09-43.09 43.09-23.8 0-43.09-19.29-43.09-43.09 0-23.8 19.29-43.09 43.09-43.09 23.8 0 43.09 19.29 43.09 43.09ZM51.76 4.821c25.86 0 46.83 20.97 46.83 46.83s-20.97 46.83-46.83 46.83-46.83-20.97-46.83-46.83 20.96-46.83 46.83-46.83Z" clip-rule="evenodd"/><path fill="#1F1D20" d="M82.386 28.442H71.43a1.208 1.208 0 0 0-1.208 1.208v6.681a1.208 1.208 0 0 0 1.208 1.209h10.965a1.2 1.2 0 0 0 1.209-1.209v-6.699a1.208 1.208 0 0 0-1.218-1.19Zm0 22.328H71.43a1.208 1.208 0 0 0-1.208 1.208v6.718a1.209 1.209 0 0 0 1.208 1.208h10.965a1.207 1.207 0 0 0 1.209-1.208v-6.7a1.218 1.218 0 0 0-1.218-1.226Zm0-11.186H71.43a1.208 1.208 0 0 0-1.208 1.208V47.5a1.209 1.209 0 0 0 1.208 1.209h10.965a1.202 1.202 0 0 0 1.209-1.209v-6.726a1.208 1.208 0 0 0-1.218-1.19Zm0 22.328H71.43a1.208 1.208 0 0 0-1.208 1.208v6.718a1.209 1.209 0 0 0 1.208 1.208h10.965a1.207 1.207 0 0 0 1.209-1.208V63.13a1.217 1.217 0 0 0-1.218-1.218Z" opacity=".15"/><path fill="#fff" d="M76.388 54.102H63.887v.888h12.501v-.889Zm0-11.018H63.887v.888h12.501v-.888Z"/><path fill="#fff" d="M76.388 66H63.887a.444.444 0 0 1-.445-.445V32.493a.444.444 0 0 1 .445-.444h12.501v.889H64.331V65.11h12.057V66Z"/><path fill="#0273D6" d="M82.386 27.642H71.43a1.207 1.207 0 0 0-1.208 1.208v6.708a1.21 1.21 0 0 0 1.208 1.209h10.965a1.2 1.2 0 0 0 1.209-1.209v-6.7a1.217 1.217 0 0 0-1.218-1.216Z"/><path fill="#14447D" d="M82.386 49.97H71.43a1.208 1.208 0 0 0-1.208 1.209v6.717a1.208 1.208 0 0 0 1.208 1.208h10.965a1.208 1.208 0 0 0 1.209-1.208v-6.7a1.218 1.218 0 0 0-1.218-1.226Z"/><path fill="#0364B8" d="M82.386 38.792H71.43a1.208 1.208 0 0 0-1.208 1.209v6.709a1.208 1.208 0 0 0 1.208 1.208h10.965a1.2 1.2 0 0 0 1.209-1.209v-6.708a1.207 1.207 0 0 0-1.218-1.209Z"/><path fill="#0F335E" d="M82.386 61.121H71.43a1.208 1.208 0 0 0-1.208 1.208v6.718a1.21 1.21 0 0 0 1.208 1.208h10.965a1.208 1.208 0 0 0 1.209-1.208v-6.708a1.217 1.217 0 0 0-1.218-1.218Z"/><path fill="#fff" d="M63.931 48.904H52.523v.888H63.93v-.888Z"/><path fill="#1F1D21" d="M78.1 27.271H23.41v50.56c0 1.54 1.25 2.79 2.79 2.79h5.96v7.18c0 .54.65.81 1.04.43l7.67-7.61h34.44c1.54 0 2.79-1.25 2.79-2.79v-50.56Z" opacity=".2"/><g filter="url(#c)"><path fill="#fff" d="M78.1 26.451v-.85a1.9 1.9 0 0 0-1.9-1.9H25.31a1.9 1.9 0 0 0-1.9 1.9v50.5c0 1.05.85 1.9 1.9 1.9h6.85v7.18c0 .54.65.81 1.04.43l7.67-7.61h35.34a1.9 1.9 0 0 0 1.9-1.9v-49.56c0-.03-.01-.06-.01-.09Z"/></g><path fill="#1F1D20" d="M73.9 63.78H27.613v.117c0 1.111.898 2.009 2.01 2.009h42.273c1.112 0 2.01-.898 2.01-2.01v-.117h-.008Z" opacity=".15"/><path fill="url(#d)" d="M69.543 38.002H32.006V61.59h37.537V38.002Z"/><path fill="#282828" d="M69.846 36.952h-38.18a.934.934 0 0 0-.932.94v24.264a.94.94 0 0 0 .939.939h38.178a.94.94 0 0 0 .94-.94V37.892a.95.95 0 0 0-.947-.939Zm-1.43 23.933H33.103V39.051h35.313v21.834Z"/><path fill="#F3F3F3" d="M73.9 63.095H27.613v.117c0 1.112.898 2.01 2.01 2.01h42.273c1.112 0 2.01-.898 2.01-2.01v-.117h-.008Z"/><path fill="url(#e)" fill-rule="evenodd" d="M53.925 45.182a7.114 7.114 0 0 0-5.543-2.643 7.123 7.123 0 0 0-6.902 8.9 2.67 2.67 0 0 0 .073 5.341h18.414a2.674 2.674 0 0 0 2.674-2.672 2.674 2.674 0 0 0-2.674-2.671h-.048a4.752 4.752 0 0 0-4.408-6.53 4.996 4.996 0 0 0-1.586.275Z" clip-rule="evenodd"/><defs><linearGradient id="a" x1="49.986" x2="53.968" y1="-13.138" y2="132.632" gradientUnits="userSpaceOnUse"><stop stop-color="#00ABDE"/><stop offset="1" stop-color="#007ED8"/></linearGradient><linearGradient id="b" x1="3.191" x2="98.718" y1="-19.971" y2="120.91" gradientUnits="userSpaceOnUse"><stop stop-color="#007ED8"/><stop offset=".707" stop-color="#002D4C"/></linearGradient><linearGradient id="d" x1="39.587" x2="67.761" y1="38.873" y2="66.379" gradientUnits="userSpaceOnUse"><stop stop-color="#007ED8"/><stop offset=".707" stop-color="#002D4C"/></linearGradient><linearGradient id="e" x1="50.116" x2="50.909" y1="34.423" y2="58.692" gradientUnits="userSpaceOnUse"><stop offset=".474" stop-color="#50E6FF"/><stop offset="1" stop-color="#0078D4"/></linearGradient><filter id="c" width="62.7" height="70.088" x="19.41" y="21.701" color-interpolation-filters="sRGB" filterUnits="userSpaceOnUse"><feFlood flood-opacity="0" result="BackgroundImageFix"/><feColorMatrix in="SourceAlpha" result="hardAlpha" values="0 0 0 0 0 0 0 0 0 0 0 0 0 0 0 0 0 0 127 0"/><feOffset dy="2"/><feGaussianBlur stdDeviation="2"/><feComposite in2="hardAlpha" operator="out"/><feColorMatrix values="0 0 0 0 0 0 0 0 0 0 0 0 0 0 0 0 0 0 0.25 0"/><feBlend in2="BackgroundImageFix" result="effect1_dropShadow_1209_1636"/><feBlend in="SourceGraphic" in2="effect1_dropShadow_1209_1636" result="shape"/></filter></defs></svg>