<svg xmlns="http://www.w3.org/2000/svg" viewBox="0 0 14 14"><path d="M3.518 7.93a.384.384 0 0 0-.377.388.384.384 0 0 0 .386.38.384.384 0 0 0 .382-.384v-.01a.384.384 0 0 0-.39-.374Zm-.172.383a.13.13 0 0 1 .133.128v.003a.13.13 0 0 1-.13.13.13.13 0 0 1-.131-.129.13.13 0 0 1 .128-.132Z" style="fill:#000;fill-opacity:1;stroke:#fa0000;stroke-width:0;stroke-linecap:round;stroke-linejoin:round;stroke-miterlimit:4;stroke-dasharray:none"/><path d="M5.758 2.976a.234.234 0 0 0-.08.014l-.124.088c-.243.178-.372.35-.513.521-.035.042-.034.053-.142.058-.521.043-.999-.062-1.712.331a4.633 4.633 0 0 0-.812.55c-.18.178-.546.426-.55 1.032l.496.196c.055.027.11.046.162.124l5.659.006.005-.302 3.872.012-.05-.17c-.061-.177-.082-.353.037-.524.1-.15.149-.322.167-.507l-.008-.37c.005-.069-.01-.117-.124-.071l-1.48.527c-.172.043-.22.015-.301.003l-.367-.095-.568-.195c-.262-.06-.504-.125-.799-.176l-.17-.046a.724.724 0 0 1-.224-.174c-.093-.148-.204-.27-.37-.317-.505-.16-.843-.31-1.883-.497-.04-.009-.08-.018-.121-.018Zm-2.142 1.57a.5.5 0 0 1 .508.488v.012a.5.5 0 0 1-.496.5.5.5 0 0 1-.503-.494.5.5 0 0 1 .491-.506Z" style="fill:#ff7698;fill-opacity:1;stroke:#000;stroke-width:0;stroke-linecap:butt;stroke-linejoin:miter;stroke-miterlimit:4;stroke-dasharray:none;stroke-opacity:1"/><path d="M5.032 4.356a.108.108 0 0 0-.1.05.134.134 0 0 0 .02.137c.23.423.367.737.102 1.35h.237l-.068.143c.234-.44.265-.95-.084-1.596-.026-.032-.04-.071-.107-.084Zm-.003 1.592-.001.004-.003.006zm-.012.034a.153.153 0 0 0 .001.087l.001.001a.168.168 0 0 1-.002-.088zm.012.104a.1.1 0 0 0 .048.03.165.165 0 0 0 .041.005c-.04-.004-.066-.01-.09-.035zM5.61 4.23c-.035.001-.069.006-.086.028a.089.089 0 0 0-.032.054c-.004.033-.01.066.014.11.093.199.145.387.191.573a.735.735 0 0 1 .026.33 3.82 3.82 0 0 1-.122.57l.243-.002-.006.022c.135-.457.224-.795-.044-1.428 2.155.08 3.17.32 4.7 1.058.055.017.109.04.161.028.032-.016.05-.044.065-.1a.19.19 0 0 0-.05-.115c-1.985-.99-3.277-1.025-5.023-1.127H5.61Zm-.009 1.666c-.031.111-.065.221-.098.331a7.18 7.18 0 0 0 .098-.331zm.094.55a.17.17 0 0 1-.064.08.16.16 0 0 0 .064-.08z" style="fill:#2800ff;fill-opacity:1;stroke:#000;stroke-width:0;stroke-linecap:butt;stroke-linejoin:miter;stroke-miterlimit:4;stroke-dasharray:none;stroke-opacity:1"/><path d="M3.51 4.674a.384.384 0 0 0-.378.389.384.384 0 0 0 .387.38.384.384 0 0 0 .382-.385V5.05a.384.384 0 0 0-.391-.375Zm-.173.384a.13.13 0 0 1 .133.127v.003a.13.13 0 0 1-.13.13.13.13 0 0 1-.13-.128.13.13 0 0 1 .127-.132Z" style="fill:#000;fill-opacity:1;stroke:#fa0000;stroke-width:0;stroke-linecap:round;stroke-linejoin:round;stroke-miterlimit:4;stroke-dasharray:none"/><path d="m8.147 5.594-.005.302-2.298-.003c-.048.163-.102.34-.15.551-.022.053-.052.08-.086.089-.052.008-.097.004-.131-.042-.032-.082-.014-.12-.008-.155.044-.148.09-.293.132-.443h-.31c-.025.059-.053.117-.084.174-.027.044-.067.064-.13.05-.02-.007-.045-.018-.059-.048a.165.165 0 0 1 .01-.117l.025-.06-2.57-.002c-.091.157-.437.237-.556.271.401.461 1.05.7 1.677.875l2.308.014.001-.295 3.684-.001.001.068.726-.247a.367.367 0 0 1 .156.002c.538.156 1.014.331 1.52.492.066 0 .143.014.136-.124-.07-.168-.148-.334-.186-.509a.76.76 0 0 1 .025-.296.84.84 0 0 0 .044-.534z" style="fill:#fec1ee;fill-opacity:1;stroke:#000;stroke-width:0;stroke-linecap:butt;stroke-linejoin:miter;stroke-miterlimit:4;stroke-dasharray:none;stroke-opacity:1"/><path d="M5.053 5.892h.238l-.084.178c-.021.028-.036.045-.082.052-.048-.005-.079-.01-.104-.046a.178.178 0 0 1-.002-.103zM5.601 5.893l.243-.001-.15.552a.17.17 0 0 1-.078.089c-.066.012-.116.002-.142-.041-.028-.053-.016-.094-.015-.137.052-.15.1-.304.142-.462Z" style="fill:#5a78ff;fill-opacity:1;stroke:#000;stroke-width:0;stroke-linecap:butt;stroke-linejoin:miter;stroke-miterlimit:4;stroke-dasharray:none;stroke-opacity:1"/><path d="M9.597 6.754H5.913v.296l-2.31-.014a4.37 4.37 0 0 0-1.496.988c-.08.132-.274.31-.28.79.204.075.418.13.594.255.02.018.042.024.057.082l4.257.01-.002-.312 5.29.005-.074-.272c-.023-.128-.039-.256.039-.387.087-.16.165-.331.187-.562l-.003-.34c-.004-.045-.007-.075-.02-.093a.101.101 0 0 0-.05-.02.233.233 0 0 0-.048.002l-.102.032-.999.383-.407.125a.629.629 0 0 1-.273.002 3.152 3.152 0 0 1-.507-.14l-.418-.144c-.308-.08-.625-.145-.946-.207a.686.686 0 0 1-.144-.093c.454-.083.9-.19 1.34-.318ZM3.622 7.808a.5.5 0 0 1 .508.487v.012a.5.5 0 0 1-.496.5.5.5 0 0 1-.503-.494.5.5 0 0 1 .49-.505Z" style="fill:#2800ff;fill-opacity:1;stroke:#000;stroke-width:0;stroke-linecap:butt;stroke-linejoin:miter;stroke-miterlimit:4;stroke-dasharray:none;stroke-opacity:1"/><path d="M5.026 7.607a.108.108 0 0 0-.1.05.135.135 0 0 0 .02.138c.238.436.376.756.076 1.409a.189.189 0 0 0-.01.03l.033-.076h.234c.175-.41.17-.883-.146-1.466-.025-.032-.04-.071-.107-.085Zm.253 1.551L5.2 9.32c.03-.053.056-.106.08-.16zm-.268.077z" style="fill:#ff7698;fill-opacity:1;stroke:#000;stroke-width:0;stroke-linecap:butt;stroke-linejoin:miter;stroke-miterlimit:4;stroke-dasharray:none;stroke-opacity:1"/><path d="M5.045 9.158h.238l-.084.177c-.021.029-.036.046-.082.053-.048-.006-.079-.01-.104-.046a.178.178 0 0 1-.002-.104z" style="fill:#fec1ee;fill-opacity:1;stroke:#000;stroke-width:0;stroke-linecap:butt;stroke-linejoin:miter;stroke-miterlimit:4;stroke-dasharray:none;stroke-opacity:1"/><path d="M5.605 7.48c-.036.001-.07.006-.087.028a.089.089 0 0 0-.031.054c-.005.033-.01.066.013.11.093.199.145.386.191.573a.735.735 0 0 1 .026.33c-.045.354-.146.654-.238.963a6.16 6.16 0 0 0 .104-.346l.013-.033h.261l-.055.177c.144-.441.285-.94-.013-1.6 2.154.08 3.17.32 4.7 1.06.054.016.108.04.16.027.032-.016.051-.045.065-.1a.19.19 0 0 0-.05-.115C8.68 7.617 7.389 7.583 5.642 7.481h-.036Zm.047 2.274zm-.009.008z" style="fill:#ff7698;fill-opacity:1;stroke:#000;stroke-width:0;stroke-linecap:butt;stroke-linejoin:miter;stroke-miterlimit:4;stroke-dasharray:none;stroke-opacity:1"/><path d="m6.733 8.849.002.312-4.257-.01c-.185.156-.393.197-.576.235.565.536 1.174.727 1.686.878.305.013.61.024.985-.059.071.183.208.343.35.5.215.212.507.292.833.316.295.009.59-.002.89-.056.003-.154-.003-.307-.1-.453h.396c.28-.01.54-.027.771-.057a9.247 9.247 0 0 0 1.733-.356c.298-.095.659-.218.87-.272a.387.387 0 0 1 .151-.003l.198.047c.257.076.503.16.735.256l.619.179c.035.003.065.007.113-.025a.156.156 0 0 0 .012-.104l-.131-.315a.664.664 0 0 1 0-.575.674.674 0 0 0 .01-.433zm-1.688.31h.238l-.084.176c-.021.029-.036.046-.082.053-.048-.006-.079-.01-.104-.046a.178.178 0 0 1-.002-.104zm.55 0h.262l-.168.539a.167.167 0 0 1-.079.086c-.065.012-.115.002-.142-.04-.028-.051-.016-.091-.014-.134.052-.146.087-.264.13-.418Z" style="fill:#5a78ff;fill-opacity:1;stroke:#000;stroke-width:0;stroke-linecap:butt;stroke-linejoin:miter;stroke-miterlimit:4;stroke-dasharray:none;stroke-opacity:1"/><path d="M5.596 9.16h.261l-.168.538a.167.167 0 0 1-.079.086c-.065.012-.115.002-.142-.04-.028-.051-.016-.091-.014-.134.052-.146.087-.264.13-.418Z" style="fill:#fec1ee;fill-opacity:1;stroke:#000;stroke-width:0;stroke-linecap:butt;stroke-linejoin:miter;stroke-miterlimit:4;stroke-dasharray:none;stroke-opacity:1"/><path d="m6.905 6.88.236.001-.083.184a.15.15 0 0 1-.081.054.157.157 0 0 1-.104-.048.157.157 0 0 1-.007-.113z" style="fill:#f5f507;fill-opacity:.35873;stroke:#000;stroke-width:0;stroke-linecap:butt;stroke-linejoin:miter;stroke-miterlimit:4;stroke-dasharray:none;stroke-opacity:1"/></svg>