<svg xmlns="http://www.w3.org/2000/svg" viewBox="0 0 72 72"><path fill="#62A945" d="m7.555 18.003-1.33-.8-.493-2.158 1.347.777.476 2.181z"/><path fill="#62A945" d="m8.932 18.832-1.377-.827-.477-2.181 1.398.806.456 2.202zm1.43.857-1.43-.858-.455-2.202 1.454.838c.171.887.258 1.333.431 2.222z"/><path fill="#569843" d="m11.848 20.58-1.487-.892c-.173-.89-.26-1.334-.43-2.222l1.514.875c.16.895.241 1.344.403 2.239z"/><path fill="#569843" d="m13.398 21.509-1.55-.928-.403-2.24 1.58.913c.148.903.223 1.355.373 2.255z"/><path fill="#62A945" d="m15.015 22.476-1.617-.969c-.15-.9-.224-1.351-.373-2.255l1.65.953c.135.911.203 1.366.34 2.271z"/><path fill="#569843" d="m16.705 23.491-1.69-1.012c-.137-.905-.205-1.36-.34-2.27l1.723.996.307 2.286z"/><path fill="#62A945" d="m18.471 24.548-1.767-1.058c-.123-.91-.185-1.368-.307-2.287l1.803 1.043c.108.926.162 1.386.271 2.302z"/><path fill="#79AE47" d="m20.321 25.657-1.85-1.107c-.109-.916-.163-1.377-.271-2.302l1.886 1.09c.094.934.14 1.398.235 2.319zm1.939 1.159-1.938-1.16c-.094-.921-.14-1.385-.234-2.32l1.974 1.143.198 2.337z"/><path fill="#62A945" d="m24.289 28.031-2.03-1.216c-.08-.927-.12-1.395-.199-2.337l2.067 1.196.162 2.357zm2.129 1.275-2.128-1.275-.162-2.357 2.164 1.252.126 2.38z"/><path fill="#79AE47" d="m28.648 30.645-2.231-1.337-.126-2.38 2.266 1.311.091 2.406z"/><path fill="#62A945" d="m30.988 32.047-2.339-1.403-.091-2.405 2.372 1.373.058 2.435z"/><path fill="#43823D" d="m33.44 33.517-2.452-1.471-.058-2.435 2.483 1.439.027 2.467z"/><path fill="#62A945" d="m36.01 35.061-2.57-1.542c-.01-.974-.015-1.467-.027-2.468l2.598 1.505-.001 2.505zM8.036 20.199c-.533-.332-.796-.495-1.313-.819l-.497-2.175 1.33.8.48 2.194z"/><path fill="#569843" d="M9.391 21.04c-.551-.343-.822-.51-1.355-.843l-.48-2.193 1.376.827.46 2.209z"/><path fill="#79AE47" d="m10.795 21.913-1.404-.871-.46-2.21c.561.337.847.51 1.43.859l.434 2.222zm1.46.899-1.459-.903-.434-2.223 1.487.892.406 2.234z"/><path fill="#79AE47" d="M13.774 23.754c-.62-.383-.924-.57-1.519-.94l-.406-2.233 1.55.928c.15.9.224 1.35.375 2.245z"/><path fill="#452F20" d="m15.357 24.733-1.584-.978c-.15-.896-.226-1.345-.375-2.245l1.616.968.343 2.255z"/><path fill="#62A945" d="m17.012 25.755-1.655-1.022c-.137-.898-.206-1.35-.342-2.254l1.69 1.011c.122.91.184 1.364.307 2.265z"/><path fill="#569843" d="m18.744 26.821-1.732-1.068-.307-2.265 1.767 1.058.272 2.275z"/><path fill="#569843" d="m20.557 27.941-1.813-1.119c-.11-.904-.164-1.359-.272-2.275l1.85 1.108.235 2.286z"/><path fill="#8CC35A" d="m22.458 29.112-1.9-1.173c-.095-.908-.142-1.365-.236-2.286l1.937 1.16.199 2.299z"/><path fill="#8CC35A" d="m24.45 30.342-1.994-1.23-.198-2.3 2.03 1.216.162 2.314z"/><path fill="#79AE47" d="m26.544 31.634-2.092-1.292-.162-2.314 2.129 1.275.125 2.331z"/><path fill="#569843" d="m28.74 32.991-2.196-1.357-.126-2.33 2.232 1.336.09 2.351z"/><path fill="#79AE47" d="M31.045 34.417 28.74 32.99l-.09-2.35 2.339 1.403.056 2.374z"/><path fill="#62A945" d="m33.465 35.917-2.42-1.498-.057-2.374 2.452 1.47.025 2.402z"/><path fill="#62A945" d="m36.005 37.493-2.54-1.574-.026-2.401 2.57 1.542-.004 2.433z"/><path fill="#79AE47" d="m8.518 22.395-1.295-.832-.5-2.183 1.312.818.482 2.197z"/><path fill="#452F20" d="m9.851 23.249-1.334-.854-.482-2.196 1.356.842.46 2.208z"/><path fill="#8CC35A" d="m11.231 24.125-1.38-.88-.46-2.208 1.405.872.435 2.216z"/><path fill="#569843" d="m12.662 25.037-1.43-.91-.436-2.217 1.459.903c.162.892.244 1.338.407 2.224z"/><path fill="#569843" d="m14.15 25.982-1.488-.945-.407-2.223 1.519.939.376 2.229z"/><path fill="#452F20" d="m15.7 26.966-1.55-.984-.377-2.23 1.584.98.343 2.234z"/><path fill="#62A945" d="m17.32 27.994-1.62-1.027-.343-2.234 1.655 1.021.308 2.24z"/><path fill="#452F20" d="m19.016 29.067-1.695-1.074-.308-2.24c.677.418 1.023.63 1.731 1.068l.272 2.246z"/><path fill="#79AE47" d="m20.792 30.193-1.777-1.125-.271-2.246 1.813 1.119.235 2.252zm1.864 1.181-1.863-1.18-.235-2.253 1.9 1.173.198 2.26z"/><path fill="#8CC35A" d="m24.612 32.615-1.956-1.24c-.08-.896-.119-1.349-.198-2.26l1.993 1.23.161 2.27zm2.055 1.304-2.055-1.305-.16-2.27 2.091 1.293.124 2.282z"/><path fill="#452F20" d="m28.828 35.294-2.16-1.372-.125-2.282 2.196 1.357.089 2.297z"/><path fill="#569843" d="m31.1 36.736-2.272-1.445-.088-2.297 2.305 1.426.055 2.316z"/><path fill="#62A945" d="M33.489 38.258 31.1 36.737l-.055-2.316c.945.585 1.43.884 2.42 1.498l.024 2.339z"/><path fill="#452F20" d="M35.999 39.859c-1.03-.657-1.531-.978-2.511-1.602l-.023-2.339 2.54 1.575-.006 2.366zM9 24.581c-.518-.34-.773-.508-1.278-.842l-.5-2.18 1.296.832.481 2.19z"/><path fill="#5B5A59" d="m10.311 25.446-1.313-.861-.481-2.19 1.334.854.46 2.197z"/><path fill="#452F20" d="m11.666 26.329-1.354-.885-.46-2.197c.543.347.818.523 1.38.88.173.884.26 1.325.434 2.202z"/><path fill="#452F20" d="m13.068 27.244-1.403-.914-.434-2.202 1.43.91.407 2.206z"/><path fill="#62A945" d="m14.525 28.188-1.457-.947-.406-2.206 1.487.945.376 2.208z"/><path fill="#452F20" d="m16.043 29.178-1.518-.986-.375-2.208 1.55.984.343 2.21z"/><path fill="#452F20" d="m17.627 30.205-1.585-1.028c-.137-.878-.205-1.32-.342-2.21l1.62 1.027c.123.89.184 1.333.307 2.211zm1.66 1.075-1.659-1.076-.307-2.21 1.695 1.074c.108.892.163 1.334.271 2.212z"/><path fill="#62A945" d="m21.026 32.408-1.74-1.128-.27-2.212 1.776 1.125c.094.894.14 1.336.234 2.215z"/><path fill="#452F20" d="m22.852 33.593-1.826-1.185-.234-2.215 1.863 1.18.197 2.22z"/><path fill="#79AE47" d="m24.771 34.839-1.92-1.247-.196-2.22 1.956 1.241.16 2.226z"/><path fill="#452F20" d="M26.79 36.153c-.828-.54-1.232-.801-2.019-1.313l-.16-2.226 2.056 1.305.123 2.234z"/><path fill="#64462E" d="M28.916 37.539c-.872-.569-1.297-.845-2.126-1.384l-.123-2.234c.843.535 1.275.808 2.161 1.372l.088 2.246z"/><path fill="#452F20" d="m31.154 38.996-2.237-1.46-.088-2.246 2.271 1.445.054 2.261z"/><path fill="#452F20" d="m33.511 40.539-2.357-1.54-.054-2.262 2.39 1.521.021 2.281z"/><path fill="#64462E" d="M35.992 42.164a2880.22 2880.22 0 0 0-2.482-1.625l-.022-2.28c.98.624 1.481.944 2.511 1.602l-.007 2.303z"/><path fill="#815C3B" d="M9.477 26.755c-.51-.342-.761-.512-1.26-.849l-.496-2.167L9 24.58l.478 2.175z"/><path fill="#64462E" d="M10.769 27.623c-.524-.35-.781-.523-1.29-.866l-.48-2.174 1.313.861.457 2.179z"/><path fill="#815C3B" d="m12.098 28.508-1.33-.887-.456-2.18c.533.35.803.526 1.354.885l.432 2.182z"/><path fill="#AA754E" d="m13.471 29.427-1.374-.914-.432-2.182c.55.36.83.542 1.402.914l.404 2.182z"/><path fill="#452F20" d="m14.897 30.373-1.426-.947-.404-2.181 1.457.947.373 2.181z"/><path fill="#815C3B" d="m16.383 31.354-1.485-.984-.373-2.181 1.518.986.34 2.179z"/><path fill="#64462E" d="m17.933 32.384-1.55-1.027-.34-2.18 1.585 1.028.305 2.179z"/><path fill="#64462E" d="m19.556 33.458-1.623-1.075c-.122-.864-.183-1.3-.305-2.18l1.659 1.077.269 2.178z"/><path fill="#452F20" d="m21.258 34.584-1.703-1.128-.269-2.178 1.74 1.128.232 2.178z"/><path fill="#452F20" d="m23.047 35.773-1.789-1.187-.232-2.178 1.826 1.185.195 2.18zm1.883 1.25-1.882-1.25-.195-2.18 1.919 1.247.158 2.183z"/><path fill="#5B5A59" d="m26.912 38.34-1.982-1.319-.158-2.183 2.018 1.313.122 2.189z"/><path fill="#64462E" d="m29.002 39.734-2.09-1.393-.122-2.188 2.126 1.384.086 2.197z"/><path fill="#815C3B" d="m31.206 41.21-2.204-1.473-.086-2.197L31.153 39l.053 2.21z"/><path fill="#452F20" d="m33.532 42.763-2.325-1.556-.053-2.21 2.357 1.54.021 2.226z"/><path fill="#64462E" d="m35.983 44.409-2.452-1.645-.021-2.226 2.482 1.625-.009 2.246zM9.951 28.907l-1.242-.854-.49-2.144 1.259.849.473 2.149z"/><path fill="#452F20" d="M11.221 29.775c-.514-.35-.768-.524-1.27-.868l-.473-2.15 1.29.866.453 2.152z"/><path fill="#815C3B" d="m12.525 30.66-1.304-.887-.453-2.152 1.33.888.427 2.151z"/><path fill="#815C3B" d="m13.871 31.577-1.346-.914-.427-2.151 1.374.914.399 2.151z"/><path fill="#64462E" d="m15.266 32.521-1.395-.944c-.16-.854-.24-1.284-.4-2.151l1.426.946.369 2.149z"/><path fill="#815C3B" d="m16.719 33.504-1.452-.981-.369-2.149c.582.386.878.583 1.485.984l.336 2.146z"/><path fill="#452F20" d="m18.234 34.528-1.516-1.024-.336-2.146 1.55 1.027.302 2.143zm1.588 1.071-1.587-1.072-.302-2.143 1.623 1.075.266 2.14zm1.667 1.125-1.666-1.126c-.106-.848-.16-1.276-.266-2.14l1.702 1.128.23 2.138z"/><path fill="#64462E" d="m23.24 37.91-1.752-1.186-.23-2.138 1.79 1.186.192 2.138z"/><path fill="#64462E" d="M25.086 39.162 23.24 37.91l-.193-2.138 1.883 1.25c.062.865.094 1.293.156 2.14z"/><path fill="#452F20" d="m27.032 40.487-1.946-1.322-.157-2.14 1.983 1.319.12 2.143z"/><path fill="#64462E" d="m29.087 41.887-2.055-1.4-.12-2.143 2.09 1.392.085 2.151zm2.171 1.48-2.17-1.482-.085-2.151 2.203 1.473.052 2.16z"/><path fill="#64462E" d="M33.552 44.939c-.943-.647-1.401-.96-2.294-1.57l-.051-2.161 2.325 1.556.02 2.175z"/><path fill="#AA754E" d="m35.974 46.602-2.423-1.665-.02-2.175 2.452 1.646-.009 2.194zM10.417 31.021c-.494-.345-.74-.516-1.226-.858l-.482-2.11c.492.34.74.51 1.242.854l.466 2.114z"/><path fill="#452F20" d="m11.666 31.891-1.25-.87-.465-2.114 1.27.868.445 2.116z"/><path fill="#64462E" d="m12.946 32.779-1.28-.887-.445-2.116 1.304.888.421 2.115zm1.319.908-1.319-.911-.42-2.116c.529.36.797.543 1.345.914l.394 2.113z"/><path fill="#777676" d="m15.63 34.633-1.365-.941-.394-2.113 1.395.944.364 2.11z"/><path fill="#64462E" d="m17.051 35.606-1.42-.978-.363-2.11 1.451.982.332 2.106z"/><path fill="#64462E" d="m18.532 36.628-1.482-1.02-.331-2.107 1.516 1.025.297 2.102z"/><path fill="#AA754E" d="m20.084 37.698-1.552-1.069-.298-2.102 1.588 1.072.262 2.099zm1.631 1.122-1.63-1.124-.262-2.099 1.666 1.127.226 2.096z"/><path fill="#64462E" d="m23.43 40.008-1.716-1.185-.226-2.096 1.752 1.186.19 2.095z"/><path fill="#AA754E" d="m25.24 41.258-1.81-1.253-.19-2.095 1.846 1.253.154 2.095z"/><path fill="#AA754E" d="m27.151 42.585-1.911-1.326-.154-2.095 1.946 1.322.119 2.099z"/><path fill="#64462E" d="M29.171 43.988c-.831-.58-1.235-.86-2.02-1.406l-.12-2.099 2.056 1.4.084 2.105z"/><path fill="#815C3B" d="M31.309 45.482c-.88-.615-1.306-.913-2.138-1.492l-.084-2.105c.845.576 1.279.872 2.17 1.482l.052 2.115z"/><path fill="#64462E" d="M33.572 47.066a939.85 939.85 0 0 0-2.263-1.584l-.051-2.115 2.294 1.57.02 2.129z"/><path fill="#815C3B" d="M35.967 48.748c-.986-.694-1.464-1.03-2.395-1.682l-.02-2.129 2.423 1.665-.008 2.146z"/><path fill="#AA754E" d="M10.874 33.09c-.487-.346-.729-.518-1.21-.863-.186-.815-.28-1.23-.472-2.065.487.342.731.513 1.226.858l.456 2.07z"/><path fill="#64462E" d="m12.103 33.962-1.23-.871-.455-2.07 1.25.87.435 2.071z"/><path fill="#AA754E" d="m13.359 34.85-1.256-.887-.436-2.071c.505.35.76.528 1.28.887l.412 2.071z"/><path fill="#AA754E" d="M14.652 35.76c-.525-.369-.783-.55-1.292-.91l-.413-2.07 1.319.91.386 2.07z"/><path fill="#815C3B" d="M15.987 36.697c-.544-.382-.81-.57-1.336-.938l-.386-2.07 1.366.942.356 2.066z"/><path fill="#815C3B" d="m17.376 37.673-1.388-.974-.357-2.066 1.42.977.325 2.063z"/><path fill="#64462E" d="m18.824 38.686-1.448-1.016c-.13-.815-.194-1.229-.326-2.063l1.482 1.02.292 2.059z"/><path fill="#64462E" d="m20.341 39.75-1.518-1.065-.292-2.059 1.552 1.07.258 2.054z"/><path fill="#815C3B" d="m21.937 40.874-1.595-1.121-.257-2.055 1.63 1.124.222 2.052z"/><path fill="#452F20" d="m23.616 42.057-1.68-1.184-.222-2.052 1.716 1.185.186 2.051z"/><path fill="#815C3B" d="m25.391 43.311-1.774-1.254-.187-2.05c.705.486 1.066.737 1.81 1.252.06.83.091 1.24.151 2.052zm1.876 1.329-1.876-1.33-.151-2.052 1.91 1.326.117 2.056z"/><path fill="#64462E" d="m29.254 46.052-1.987-1.412-.116-2.056c.786.546 1.19.827 2.02 1.406l.083 2.062zm2.105 1.501c-.867-.62-1.287-.92-2.105-1.502l-.083-2.062 2.138 1.493.05 2.071z"/><path fill="#815C3B" d="M33.592 49.15c-.92-.66-1.366-.979-2.233-1.598l-.05-2.071c.88.615 1.332.931 2.263 1.584l.02 2.085z"/><path fill="#815C3B" d="M35.959 50.852a1443.51 1443.51 0 0 0-2.367-1.7c-.009-.827-.012-1.243-.02-2.085.93.652 1.409.988 2.394 1.682l-.007 2.103zM11.317 35.107c-.48-.348-.719-.521-1.195-.868l-.459-2.01c.481.344.723.516 1.21.862l.444 2.016z"/><path fill="#64462E" d="M12.528 35.98c-.488-.352-.73-.526-1.21-.874l-.444-2.016c.487.346.732.52 1.229.871l.425 2.019z"/><path fill="#64462E" d="M13.761 36.871c-.5-.358-.746-.536-1.234-.887l-.425-2.02c.497.352.747.53 1.256.888l.403 2.019z"/><path fill="#815C3B" d="m15.028 37.777-1.266-.908-.403-2.02 1.292.91.377 2.018z"/><path fill="#64462E" d="m16.335 38.712-1.308-.936-.376-2.019 1.336.939c.14.817.21 1.22.348 2.016z"/><path fill="#815C3B" d="m17.693 39.683-1.358-.971-.348-2.017 1.388.974c.13.816.193 1.219.318 2.014z"/><path fill="#64462E" d="m19.11 40.698-1.417-1.013-.317-2.014 1.448 1.016.286 2.011z"/><path fill="#452F20" d="m20.594 41.76-1.484-1.063-.286-2.011 1.518 1.065.252 2.009z"/><path fill="#64462E" d="m22.154 42.879-1.56-1.12-.253-2.008 1.595 1.121.218 2.007z"/><path fill="#815C3B" d="m23.8 44.066-1.645-1.184-.218-2.007 1.68 1.184.183 2.007zm1.74 1.252c-.716-.517-1.063-.768-1.74-1.255l-.183-2.007 1.775 1.253.148 2.009z"/><path fill="#64462E" d="m27.382 46.652-1.842-1.334-.149-2.008 1.876 1.329.115 2.013z"/><path fill="#64462E" d="M29.335 48.074a925.59 925.59 0 0 0-1.954-1.419l-.114-2.013 1.987 1.412.081 2.02z"/><path fill="#64462E" d="M31.41 49.586c-.855-.625-1.27-.927-2.074-1.513-.033-.8-.05-1.204-.082-2.02l2.105 1.502.051 2.031z"/><path fill="#452F20" d="M33.613 51.198c-.908-.666-1.348-.988-2.203-1.612l-.051-2.031c.867.62 1.313.938 2.233 1.598l.021 2.045z"/><path fill="#64462E" d="M35.954 52.917c-.965-.71-1.432-1.054-2.34-1.72-.01-.81-.014-1.22-.022-2.045l2.368 1.7-.006 2.065z"/><path fill="#815C3B" d="M11.746 37.056c-.474-.35-.71-.525-1.181-.876l-.443-1.945 1.195.869.429 1.952z"/><path fill="#815C3B" d="M12.939 37.938c-.48-.353-.718-.529-1.192-.88l-.43-1.952 1.21.875.412 1.957z"/><path fill="#452F20" d="m14.151 38.826-1.212-.89-.412-1.958 1.234.888.39 1.96z"/><path fill="#64462E" d="M15.393 39.738c-.504-.368-.751-.55-1.242-.91l-.39-1.96 1.267.909.365 1.961zm1.281.936-1.28-.936-.366-1.961 1.308.936.338 1.961z"/><path fill="#452F20" d="m18.002 41.647-1.328-.97-.338-1.961 1.357.971.309 1.96z"/><path fill="#452F20" d="m19.387 42.656-1.385-1.013-.31-1.96 1.418 1.014.277 1.959z"/><path fill="#64462E" d="m20.838 43.722-1.452-1.063-.277-1.959 1.484 1.063.245 1.959zm1.528 1.118-1.527-1.12-.245-1.959 1.56 1.12.212 1.959zm1.612 1.186-1.612-1.186-.212-1.96c.64.461.97.697 1.646 1.185l.178 1.961zm1.707 1.259-1.706-1.26-.178-1.96 1.74 1.255.144 1.965z"/><path fill="#64462E" d="M27.493 48.625a1147.3 1147.3 0 0 0-1.81-1.34l-.144-1.965c.716.517 1.084.783 1.842 1.334l.112 1.971z"/><path fill="#AA754E" d="m29.417 50.051-1.923-1.429-.111-1.97 1.954 1.418.08 1.981z"/><path fill="#AA754E" d="M31.46 51.577c-.843-.63-1.251-.935-2.044-1.525l-.08-1.98c.805.585 1.219.887 2.074 1.512l.05 1.993z"/><path fill="#64462E" d="m33.635 53.207-2.175-1.63-.05-1.992c.854.624 1.295.946 2.203 1.612l.022 2.01z"/><path fill="#815C3B" d="M35.95 54.949c-.955-.72-1.418-1.067-2.315-1.74-.01-.798-.013-1.2-.022-2.011.908.666 1.376 1.01 2.34 1.72l-.003 2.031zM12.16 38.938c-.468-.354-.701-.53-1.169-.886l-.425-1.87c.471.351.707.526 1.181.876l.413 1.88zm1.175.886-1.175-.887-.413-1.88c.474.351.712.527 1.192.88l.396 1.887z"/><path fill="#64462E" d="M14.528 40.722a938.5 938.5 0 0 1-1.192-.896l-.396-1.887 1.212.89.376 1.893z"/><path fill="#AA754E" d="m15.745 41.632-1.218-.913-.376-1.893 1.242.91.352 1.896zm1.256.943-1.254-.939-.353-1.896 1.28.936c.134.772.199 1.152.327 1.899z"/><path fill="#64462E" d="m18.3 43.547-1.3-.973-.326-1.9 1.328.97.298 1.903z"/><path fill="#AA754E" d="M19.655 44.56 18.3 43.546l-.298-1.902 1.385 1.012.268 1.904z"/><path fill="#815C3B" d="m21.076 45.626-1.42-1.066-.269-1.904 1.452 1.063.237 1.907z"/><path fill="#452F20" d="m22.572 46.75-1.495-1.124-.238-1.907 1.528 1.12.205 1.911z"/><path fill="#AA754E" d="m24.151 47.943-1.58-1.19-.205-1.91 1.612 1.185.173 1.915zm1.675 1.262-1.674-1.266-.173-1.915c.663.489 1.004.74 1.706 1.26l.141 1.921z"/><path fill="#64462E" d="m27.603 50.554-1.778-1.35-.14-1.92c.702.519 1.063.786 1.808 1.34l.11 1.93z"/><path fill="#815C3B" d="M29.495 51.996c-.78-.596-1.159-.883-1.892-1.44l-.11-1.931 1.923 1.428.079 1.943z"/><path fill="#815C3B" d="M31.51 53.536c-.832-.637-1.234-.945-2.015-1.54l-.08-1.944c.793.59 1.201.895 2.045 1.525l.05 1.959z"/><path fill="#777676" d="M33.659 55.185c-.887-.682-1.316-1.011-2.148-1.648l-.05-1.96 2.175 1.63.023 1.978z"/><path fill="#64462E" d="M35.949 56.948c-.946-.73-1.403-1.083-2.29-1.765l-.024-1.978c.897.673 1.36 1.02 2.315 1.74l-.001 2.003z"/><path fill="#815C3B" d="m12.553 40.736-1.158-.9-.404-1.783 1.168.885.394 1.798z"/><path fill="#64462E" d="m13.714 41.634-1.16-.899-.394-1.797 1.176.887.378 1.809z"/><path fill="#64462E" d="m14.887 42.54-1.173-.905-.38-1.81 1.193.897.36 1.818z"/><path fill="#815C3B" d="m16.084 43.459-1.197-.921-.36-1.819 1.219.913.338 1.827z"/><path fill="#815C3B" d="m17.314 44.407-1.23-.945-.338-1.827 1.254.939c.129.747.192 1.114.314 1.833z"/><path fill="#AA754E" d="m18.587 45.385-1.273-.979L17 42.573l1.3.973.287 1.839z"/><path fill="#64462E" d="M19.914 46.407c-.543-.418-.807-.622-1.327-1.02l-.287-1.84 1.356 1.015.258 1.845z"/><path fill="#815C3B" d="m21.305 47.478-1.39-1.072-.26-1.845 1.421 1.065c.093.752.14 1.123.229 1.852z"/><path fill="#5B5A59" d="M22.77 48.608c-.602-.466-.894-.69-1.465-1.13l-.229-1.853 1.495 1.124.199 1.859z"/><path fill="#815C3B" d="m24.319 49.808-1.55-1.2c-.077-.732-.117-1.104-.198-1.858l1.58 1.19.168 1.868zm1.644 1.278L24.32 49.81l-.168-1.868c.65.49.984.743 1.674 1.266a2214 2214 0 0 1 .137 1.878z"/><path fill="#64462E" d="m27.711 52.448-1.748-1.363-.137-1.878c.69.522 1.044.792 1.778 1.35l.107 1.891z"/><path fill="#452F20" d="m29.574 53.902-1.863-1.456-.107-1.892 1.892 1.44.078 1.908z"/><path fill="#815C3B" d="M31.561 55.463c-.821-.646-1.218-.958-1.988-1.56l-.078-1.908 2.015 1.54.051 1.928z"/><path fill="#64462E" d="m33.684 57.136-2.123-1.673-.05-1.927 2.147 1.649.026 1.951z"/><path fill="#452F20" d="M35.952 58.929c-.937-.743-1.39-1.1-2.268-1.793l-.026-1.951c.887.682 1.345 1.035 2.291 1.765 0 .796.001 1.191.003 1.979z"/><path fill="#64462E" d="m12.925 42.44-1.148-.92-.382-1.686c.464.362.695.541 1.158.9l.372 1.706z"/><path fill="#452F20" d="M14.072 43.356c-.46-.366-.689-.548-1.147-.915l-.372-1.705 1.16.898.359 1.722z"/><path fill="#815C3B" d="m15.229 44.277-1.157-.92-.358-1.722 1.173.905c.14.712.21 1.06.342 1.737z"/><path fill="#64462E" d="m16.405 45.208-1.177-.934c-.132-.677-.2-1.025-.341-1.736l1.197.921.321 1.749z"/><path fill="#815C3B" d="m17.613 46.166-1.207-.957-.322-1.749 1.23.945.299 1.761z"/><path fill="#815C3B" d="m18.861 47.158-1.248-.99a987.42 987.42 0 0 0-.3-1.76l1.274.978.274 1.772z"/><path fill="#AA754E" d="m20.161 48.189-1.3-1.032-.274-1.771 1.327 1.02.247 1.783z"/><path fill="#64462E" d="m21.523 49.27-1.363-1.083c-.096-.7-.146-1.057-.247-1.782l1.39 1.072.22 1.793zm1.438 1.146-1.436-1.143a929.87 929.87 0 0 0-.22-1.794l1.466 1.131.19 1.806z"/><path fill="#64462E" d="m24.48 51.628-1.52-1.213-.19-1.806 1.549 1.2.161 1.819z"/><path fill="#64462E" d="m26.094 52.916-1.614-1.292-.162-1.82 1.644 1.277.132 1.835z"/><path fill="#64462E" d="m27.814 54.301-1.72-1.38-.132-1.835 1.748 1.363.104 1.852zm1.836 1.476c-.759-.612-1.125-.907-1.836-1.478-.04-.733-.062-1.104-.104-1.852.722.563 1.094.853 1.863 1.456l.077 1.874zm1.963 1.586-1.962-1.585-.077-1.874 1.988 1.56.051 1.899z"/><path fill="#AA754E" d="M33.711 59.064c-.869-.705-1.288-1.044-2.1-1.7l-.05-1.9 2.122 1.674c.01.775.016 1.16.028 1.926zm2.249 1.821-2.247-1.826-.027-1.926c.877.692 1.33 1.05 2.268 1.793.001.787.003 1.178.006 1.959z"/><path fill="#64462E" d="M13.273 44.047c-.455-.376-.682-.564-1.14-.945l-.357-1.579c.461.37.69.554 1.149.92l.348 1.604z"/><path fill="#815C3B" d="m14.41 44.984-1.136-.937-.348-1.604 1.147.915c.14.67.207.996.337 1.626z"/><path fill="#64462E" d="m15.551 45.921-1.141-.94-.337-1.626 1.156.92c.133.677.198 1.006.322 1.646z"/><path fill="#64462E" d="m16.709 46.876-1.158-.953c-.124-.64-.189-.969-.322-1.646l1.177.934.303 1.665z"/><path fill="#452F20" d="m17.895 47.849-1.186-.974-.303-1.665 1.207.956c.116.69.173 1.026.282 1.683z"/><path fill="#64462E" d="m19.12 48.858-1.225-1.007c-.11-.656-.166-.993-.283-1.682l1.249.99c.107.695.158 1.034.259 1.699z"/><path fill="#815C3B" d="m20.396 49.906-1.276-1.048c-.1-.665-.152-1.005-.26-1.7l1.301 1.032c.097.7.144 1.043.235 1.716z"/><path fill="#815C3B" d="m21.733 51.005-1.337-1.1a681.85 681.85 0 0 0-.235-1.716l1.364 1.083.208 1.733z"/><path fill="#64462E" d="M23.142 52.166c-.58-.478-.86-.71-1.41-1.16-.08-.681-.122-1.028-.208-1.734l1.436 1.144c.075.71.111 1.06.182 1.75z"/><path fill="#452F20" d="m24.634 53.396-1.493-1.232c-.07-.69-.107-1.04-.181-1.751l1.52 1.213.154 1.77z"/><path fill="#AA754E" d="M26.222 54.711c-.655-.543-.972-.805-1.588-1.313-.06-.698-.09-1.052-.154-1.77l1.614 1.292.128 1.791z"/><path fill="#452F20" d="m27.916 56.114-1.693-1.404-.128-1.791c.666.533 1.01.809 1.72 1.38l.101 1.815z"/><path fill="#64462E" d="m29.726 57.62-1.81-1.504-.102-1.816 1.836 1.478.076 1.842z"/><path fill="#AA754E" d="M31.664 59.233c-.802-.67-1.19-.991-1.938-1.614l-.076-1.842c.759.611 1.15.928 1.962 1.584l.052 1.872z"/><path fill="#815C3B" d="M33.742 60.965c-.86-.72-1.275-1.066-2.077-1.735l-.052-1.872 2.099 1.701c.012.766.017 1.147.03 1.906z"/><path fill="#815C3B" d="m35.969 62.832-2.228-1.865c-.013-.759-.018-1.14-.03-1.906l2.247 1.826.011 1.945zM13.596 45.539l-1.135-.976-.328-1.462c.459.38.686.57 1.14.945l.323 1.493z"/><path fill="#64462E" d="m14.722 46.504-1.126-.966-.322-1.493 1.135.937.313 1.522z"/><path fill="#452F20" d="m15.85 47.472-1.128-.967-.313-1.522 1.141.94c.125.64.185.95.3 1.549z"/><path fill="#AA754E" d="m16.993 48.45-1.142-.978c-.115-.599-.175-.91-.3-1.55.46.379.69.57 1.158.954.118.648.175.963.284 1.574z"/><path fill="#64462E" d="m18.16 49.45-1.167-.999c-.11-.61-.166-.926-.284-1.574l1.186.974c.11.657.163.977.265 1.599z"/><path fill="#452F20" d="m19.364 50.475-1.204-1.03c-.102-.622-.155-.942-.265-1.6l1.225 1.008c.1.664.15.99.244 1.622z"/><path fill="#64462E" d="m20.617 51.55-1.253-1.071a414.67 414.67 0 0 0-.244-1.623l1.276 1.049.221 1.645z"/><path fill="#452F20" d="m21.93 52.673-1.313-1.124-.22-1.645 1.336 1.1.197 1.669z"/><path fill="#64462E" d="m23.314 53.86-1.385-1.186c-.076-.655-.116-.988-.197-1.67l1.41 1.162.172 1.694zm1.468 1.257-1.468-1.259a595.44 595.44 0 0 0-.172-1.694l1.493 1.232.147 1.721z"/><path fill="#64462E" d="m26.345 56.458-1.562-1.341-.148-1.72 1.588 1.312.122 1.749z"/><path fill="#452F20" d="M28.014 57.893c-.69-.594-1.024-.88-1.67-1.434l-.121-1.749 1.693 1.405.098 1.778z"/><path fill="#64462E" d="m29.801 59.43-1.787-1.538-.098-1.779 1.81 1.505.075 1.812z"/><path fill="#64462E" d="m31.718 61.084-1.917-1.651-.074-1.813 1.938 1.615.053 1.849z"/><path fill="#815C3B" d="m33.775 62.857-2.058-1.776-.053-1.849 2.077 1.735.034 1.89zm2.211 1.911-2.21-1.91-.034-1.89 2.228 1.865c.005.776.008 1.162.016 1.935zM13.89 46.911l-1.132-1.016-.297-1.334c.457.394.683.59 1.135.977l.294 1.373z"/><path fill="#64462E" d="m15.009 47.917-1.119-1.003c-.111-.524-.17-.8-.294-1.373l1.126.966.287 1.41z"/><path fill="#AA754E" d="m16.126 48.917-1.118-1.001a495 495 0 0 0-.286-1.41l1.128.967.276 1.444z"/><path fill="#815C3B" d="m17.254 49.93-1.128-1.011a465.5 465.5 0 0 0-.276-1.445c.453.389.68.584 1.142.978.11.611.162.907.262 1.478z"/><path fill="#815C3B" d="m18.405 50.958-1.15-1.03-.263-1.478 1.168.998c.102.622.15.925.245 1.51z"/><path fill="#64462E" d="m19.59 52.018-1.186-1.06c-.094-.586-.143-.888-.245-1.51l1.204 1.03c.094.632.14.94.227 1.54z"/><path fill="#777676" d="M20.823 53.121c-.504-.45-.75-.67-1.232-1.103-.087-.6-.133-.907-.227-1.54l1.253 1.071c.085.644.127.959.206 1.572z"/><path fill="#815C3B" d="m22.115 54.275-1.291-1.155c-.08-.614-.12-.928-.206-1.572l1.313 1.124c.076.655.113.975.184 1.603z"/><path fill="#815C3B" d="m23.476 55.496-1.362-1.218c-.071-.628-.108-.949-.185-1.603.54.46.815.697 1.385 1.185.067.666.1.994.162 1.636z"/><path fill="#815C3B" d="m24.921 56.786-1.445-1.292c-.063-.642-.095-.97-.162-1.636l1.468 1.259.139 1.669z"/><path fill="#64462E" d="m26.461 58.164-1.54-1.377a419.45 419.45 0 0 0-.14-1.67l1.563 1.342.117 1.705zm1.647 1.472-1.647-1.473-.117-1.705 1.67 1.434.094 1.744z"/><path fill="#815C3B" d="m29.875 61.213-1.766-1.579-.095-1.743c.69.593 1.048.9 1.788 1.538l.073 1.784z"/><path fill="#815C3B" d="m31.771 62.913-1.897-1.696-.074-1.784 1.917 1.65.054 1.83z"/><path fill="#64462E" d="m33.812 64.739-2.04-1.825-.055-1.829 2.058 1.776c.014.753.021 1.129.037 1.878z"/><path fill="#452F20" d="m36.007 66.699-2.195-1.963c-.016-.749-.023-1.124-.037-1.878l2.21 1.91c.008.773.012 1.159.022 1.931z"/><path fill="#62A945" d="m38.556 33.321-2.554 1.565c.003-.93.005-1.397.01-2.328l2.58-1.501-.036 2.264z"/><path fill="#62A945" d="m41.008 31.816-2.452 1.504.035-2.264 2.476-1.441c-.022.875-.035 1.315-.059 2.201z"/><path fill="#62A945" d="m43.36 30.372-2.352 1.444.06-2.201 2.374-1.381c-.031.846-.048 1.275-.082 2.138z"/><path fill="#569843" d="m45.615 28.989-2.255 1.386.082-2.138 2.275-1.324c-.039.82-.059 1.235-.102 2.076z"/><path fill="#569843" d="m47.773 27.658-2.158 1.327c.043-.84.063-1.256.102-2.076l2.179-1.267a392.94 392.94 0 0 1-.123 2.016z"/><path fill="#62A945" d="m49.84 26.389-2.066 1.272c.051-.82.076-1.223.122-2.016l2.085-1.211c-.053.765-.081 1.157-.141 1.955z"/><path fill="#569843" d="m51.816 25.174-1.976 1.217c.06-.798.088-1.19.142-1.956l1.994-1.158c-.06.74-.092 1.12-.16 1.897z"/><path fill="#62A945" d="m53.703 24.012-1.888 1.163c.068-.777.1-1.158.16-1.897l1.906-1.106c-.067.715-.102 1.084-.178 1.84z"/><path fill="#79AE47" d="m55.504 22.897-1.802 1.11c.076-.757.112-1.126.178-1.84l1.82-1.055c-.073.69-.113 1.048-.196 1.785z"/><path fill="#79AE47" d="m57.222 21.838-1.718 1.059c.083-.737.123-1.095.196-1.784l1.737-1.005c-.08.665-.124 1.012-.215 1.73z"/><path fill="#62A945" d="m58.861 20.832-1.638 1.008c.092-.717.135-1.065.215-1.73l1.657-.956c-.087.642-.135.978-.234 1.678z"/><path fill="#62A945" d="m60.421 19.874-1.56.96c.1-.7.147-1.037.234-1.679l1.578-.91c-.094.62-.144.946-.252 1.629z"/><path fill="#79AE47" d="m61.903 18.963-1.482.911c.107-.682.158-1.01.252-1.629l1.504-.864c-.102.598-.157.916-.274 1.582z"/><path fill="#62A945" d="m63.312 18.1-1.41.864c.118-.666.173-.984.275-1.582l1.43-.82c-.11.578-.169.887-.295 1.538z"/><path fill="#43823D" d="m64.65 17.28-1.337.82c.126-.651.185-.96.295-1.538l1.36-.778-.318 1.496z"/><path fill="#62A945" d="m65.919 16.503-1.269.775.32-1.496 1.293-.737-.344 1.458zM38.521 35.596c-.99.634-1.494.958-2.525 1.617l.007-2.327 2.554-1.565-.036 2.275z"/><path fill="#569843" d="m40.946 34.04-2.425 1.555.036-2.275 2.452-1.504-.063 2.224z"/><path fill="#79AE47" d="m43.273 32.549-2.327 1.494c.026-.893.039-1.338.063-2.224l2.352-1.444-.088 2.174z"/><path fill="#79AE47" d="m45.503 31.112-2.231 1.435.088-2.174 2.255-1.386c-.043.841-.066 1.267-.112 2.125z"/><path fill="#79AE47" d="M47.639 29.737c-.836.54-1.263.814-2.136 1.376.047-.858.07-1.284.112-2.124l2.158-1.328c-.051.82-.078 1.235-.134 2.076z"/><path fill="#452F20" d="m49.684 28.414-2.044 1.32c.056-.84.083-1.257.134-2.076l2.066-1.272c-.06.798-.09 1.204-.156 2.028z"/><path fill="#62A945" d="m51.638 27.154-1.955 1.263c.066-.824.097-1.23.157-2.028l1.976-1.217a412.05 412.05 0 0 1-.178 1.982z"/><path fill="#569843" d="m53.504 25.947-1.867 1.208c.075-.808.11-1.205.178-1.982l1.888-1.163a323.65 323.65 0 0 1-.199 1.937z"/><path fill="#569843" d="m55.286 24.794-1.781 1.153c.083-.791.123-1.18.199-1.936l1.801-1.11c-.083.737-.127 1.116-.219 1.893z"/><path fill="#8CC35A" d="m56.983 23.693-1.697 1.1c.092-.777.136-1.157.22-1.894l1.717-1.059c-.09.718-.14 1.09-.24 1.853z"/><path fill="#8CC35A" d="m58.599 22.645-1.616 1.048c.101-.763.15-1.135.24-1.853l1.638-1.008c-.099.7-.152 1.063-.262 1.813z"/><path fill="#79AE47" d="m60.136 21.648-1.537.996c.11-.749.163-1.113.262-1.813l1.56-.96c-.108.683-.165 1.04-.285 1.777z"/><path fill="#569843" d="m61.595 20.704-1.46.946c.12-.736.178-1.093.286-1.776l1.482-.911c-.117.666-.178 1.016-.308 1.741z"/><path fill="#79AE47" d="m62.979 19.808-1.384.896c.13-.725.191-1.075.308-1.741l1.409-.864-.333 1.709z"/><path fill="#62A945" d="m64.291 18.96-1.312.849c.14-.715.208-1.058.334-1.71l1.337-.819-.359 1.68zm1.241-.805-1.24.802.359-1.68c.52-.319.775-.474 1.268-.775l-.387 1.653z"/><path fill="#79AE47" d="M38.485 37.877c-.978.65-1.476.982-2.494 1.657l.005-2.32 2.525-1.617-.036 2.28z"/><path fill="#452F20" d="M40.88 36.28c-.939.626-1.417.945-2.395 1.595l.036-2.28 2.424-1.555-.065 2.24z"/><path fill="#8CC35A" d="M43.179 34.748c-.9.602-1.36.908-2.299 1.534l.066-2.24 2.327-1.494-.094 2.2z"/><path fill="#569843" d="m45.384 33.273-2.204 1.474.093-2.2 2.23-1.435c-.046.858-.07 1.29-.119 2.161z"/><path fill="#569843" d="m47.494 31.859-2.11 1.414.12-2.161 2.135-1.376c-.056.84-.085 1.266-.145 2.123z"/><path fill="#452F20" d="m49.515 30.502-2.02 1.357c.06-.858.089-1.283.145-2.124l2.044-1.32c-.065.824-.1 1.242-.169 2.087z"/><path fill="#62A945" d="m51.445 29.204-1.93 1.298c.07-.844.103-1.263.168-2.087l1.955-1.262c-.074.807-.113 1.219-.193 2.051z"/><path fill="#452F20" d="m53.288 27.961-1.843 1.242c.08-.833.119-1.244.193-2.052l1.867-1.207c-.084.792-.128 1.196-.217 2.017z"/><path fill="#79AE47" d="m55.046 26.779-1.758 1.185c.09-.82.133-1.225.216-2.017l1.782-1.153c-.093.777-.14 1.175-.24 1.985z"/><path fill="#79AE47" d="m56.72 25.647-1.673 1.13c.099-.81.147-1.208.239-1.985l1.697-1.1c-.1.763-.154 1.155-.263 1.955z"/><path fill="#8CC35A" d="m58.312 24.57-1.592 1.076c.11-.8.162-1.192.263-1.954l1.616-1.048c-.11.75-.168 1.136-.287 1.926z"/><path fill="#8CC35A" d="m59.825 23.549-1.512 1.023c.12-.79.177-1.177.287-1.926l1.537-.996c-.12.736-.182 1.117-.312 1.899z"/><path fill="#452F20" d="m61.258 22.577-1.433.97c.13-.782.192-1.163.312-1.9l1.459-.946-.338 1.876z"/><path fill="#569843" d="m62.614 21.661-1.357.918c.14-.774.209-1.151.338-1.877l1.384-.896-.365 1.855z"/><path fill="#62A945" d="m63.897 20.794-1.283.868.365-1.855 1.312-.85-.394 1.837z"/><path fill="#452F20" d="m65.106 19.975-1.21.817.394-1.836 1.241-.801-.425 1.82zM38.449 40.154l-2.46 1.688c0-.92.001-1.382.003-2.308 1.017-.675 1.516-1.006 2.494-1.657l-.037 2.277z"/><path fill="#5B5A59" d="m40.812 38.526-2.364 1.626.036-2.277 2.396-1.595-.068 2.246z"/><path fill="#452F20" d="M43.082 36.964c-.889.614-1.342.926-2.269 1.564l.068-2.246 2.299-1.534-.098 2.216z"/><path fill="#452F20" d="m45.257 35.458-2.176 1.504c.04-.889.06-1.333.098-2.217l2.204-1.474-.126 2.187z"/><path fill="#62A945" d="m47.341 34.017-2.083 1.442c.05-.878.077-1.316.126-2.186l2.11-1.414c-.06.857-.09 1.29-.153 2.158z"/><path fill="#452F20" d="m49.335 32.634-1.994 1.383c.063-.868.094-1.3.153-2.158l2.02-1.356c-.07.844-.105 1.271-.179 2.131z"/><path fill="#452F20" d="m51.24 31.308-1.905 1.324c.074-.86.11-1.286.18-2.13l1.93-1.299c-.08.832-.12 1.254-.205 2.105z"/><path fill="#452F20" d="m53.057 30.044-1.818 1.266c.084-.85.126-1.273.206-2.105l1.843-1.242c-.09.821-.136 1.238-.231 2.081z"/><path fill="#62A945" d="m54.789 28.836-1.732 1.209c.095-.843.14-1.26.23-2.08l1.759-1.186c-.1.81-.152 1.222-.257 2.057z"/><path fill="#452F20" d="M56.438 27.685c-.643.45-.973.679-1.649 1.15.106-.835.157-1.247.257-2.057l1.673-1.13c-.109.8-.165 1.208-.281 2.037z"/><path fill="#79AE47" d="m58.004 26.591-1.566 1.095c.116-.828.173-1.237.282-2.037l1.592-1.076c-.12.79-.181 1.195-.308 2.018z"/><path fill="#452F20" d="m59.489 25.55-1.485 1.04c.127-.823.188-1.228.308-2.018l1.512-1.023c-.13.781-.197 1.183-.335 2.001z"/><path fill="#64462E" d="m60.895 24.564-1.406.985c.138-.818.205-1.22.335-2.002.59-.398.875-.592 1.433-.97-.14.775-.213 1.173-.362 1.987z"/><path fill="#452F20" d="m62.222 23.634-1.327.93c.149-.814.222-1.212.362-1.986l1.357-.918c-.152.767-.23 1.164-.392 1.974z"/><path fill="#452F20" d="m63.475 22.756-1.252.876.392-1.974 1.282-.868-.422 1.966z"/><path fill="#64462E" d="m64.651 21.936-1.177.824.423-1.966 1.21-.817c-.177.758-.269 1.151-.456 1.959z"/><path fill="#815C3B" d="m38.414 42.42-2.425 1.712.001-2.292 2.46-1.688-.036 2.268z"/><path fill="#64462E" d="m40.744 40.775-2.331 1.649.036-2.268 2.364-1.626-.069 2.245z"/><path fill="#815C3B" d="M42.981 39.188c-.876.622-1.324.94-2.238 1.586l.07-2.245 2.268-1.564c-.04.888-.059 1.334-.1 2.223z"/><path fill="#AA754E" d="m45.127 37.664-2.146 1.525.1-2.223 2.176-1.504-.13 2.202z"/><path fill="#452F20" d="m47.181 36.201-2.054 1.463.13-2.202c.851-.59 1.268-.877 2.083-1.443a624.2 624.2 0 0 1-.159 2.182z"/><path fill="#815C3B" d="m49.147 34.795-1.966 1.403.16-2.181 1.993-1.384c-.073.86-.11 1.293-.187 2.162z"/><path fill="#64462E" d="m51.025 33.452-1.878 1.342c.077-.87.114-1.302.188-2.162.78-.541 1.16-.806 1.904-1.324-.084.85-.126 1.28-.214 2.144z"/><path fill="#64462E" d="m52.816 32.17-1.79 1.283.214-2.144 1.818-1.267-.242 2.128z"/><path fill="#452F20" d="m54.521 30.95-1.705 1.223.242-2.128 1.732-1.208c-.105.835-.16 1.26-.269 2.113z"/><path fill="#452F20" d="m56.142 29.784-1.621 1.165c.11-.854.163-1.278.268-2.113l1.649-1.151c-.116.829-.175 1.249-.296 2.099z"/><path fill="#452F20" d="m57.68 28.676-1.538 1.106.296-2.1 1.566-1.095-.324 2.089z"/><path fill="#5B5A59" d="m59.137 27.627-1.457 1.048c.133-.847.197-1.266.324-2.088l1.485-1.04a618.89 618.89 0 0 1-.352 2.08z"/><path fill="#64462E" d="m60.513 26.636-1.376.99c.144-.844.215-1.261.352-2.079l1.406-.985-.382 2.074z"/><path fill="#815C3B" d="m61.81 25.705-1.297.933.382-2.073 1.327-.93-.412 2.07z"/><path fill="#452F20" d="m63.029 24.827-1.22.878c.17-.843.252-1.26.413-2.07l1.252-.876-.445 2.068z"/><path fill="#64462E" d="m64.172 24.007-1.143.821.446-2.068 1.176-.824-.479 2.071zM38.377 44.675l-2.39 1.728v-2.269c.99-.697 1.475-1.04 2.426-1.712l-.036 2.253z"/><path fill="#452F20" d="m40.673 43.011-2.296 1.665.036-2.253c.951-.672 1.417-1.001 2.33-1.648-.027.897-.042 1.344-.07 2.236z"/><path fill="#815C3B" d="m42.879 41.407-2.205 1.602.07-2.237 2.238-1.586c-.04.89-.061 1.334-.103 2.221z"/><path fill="#815C3B" d="m44.993 39.867-2.115 1.54c.042-.887.063-1.331.103-2.221l2.146-1.525-.134 2.206z"/><path fill="#64462E" d="m47.017 38.392-2.024 1.477.134-2.206c.84-.597 1.25-.89 2.054-1.463l-.164 2.192z"/><path fill="#815C3B" d="M48.954 36.978c-.757.554-1.144.837-1.937 1.415l.165-2.191 1.966-1.404-.194 2.18z"/><path fill="#452F20" d="M50.803 35.625c-.722.53-1.092.8-1.85 1.354.079-.874.118-1.31.194-2.18l1.878-1.342-.222 2.168z"/><path fill="#452F20" d="m52.565 34.331-1.762 1.292.222-2.167 1.79-1.283c-.098.858-.149 1.29-.25 2.158z"/><path fill="#452F20" d="m54.242 33.096-1.677 1.232.25-2.158 1.705-1.224c-.11.854-.165 1.285-.278 2.15z"/><path fill="#64462E" d="m55.835 31.929-1.593 1.17c.113-.864.17-1.295.279-2.148l1.621-1.165c-.12.85-.183 1.28-.307 2.143z"/><path fill="#64462E" d="m57.345 30.816-1.51 1.11c.125-.863.187-1.293.308-2.143l1.538-1.106c-.132.847-.2 1.276-.336 2.139z"/><path fill="#452F20" d="m58.772 29.768-1.427 1.05.335-2.138 1.457-1.048-.365 2.136z"/><path fill="#64462E" d="m60.116 28.779-1.345.99.365-2.136 1.376-.99-.396 2.136zm1.267-.932-1.266.93.397-2.136 1.297-.933-.428 2.139z"/><path fill="#64462E" d="m62.567 26.969-1.186.872.428-2.14 1.22-.877c-.183.844-.275 1.275-.462 2.145z"/><path fill="#AA754E" d="m63.675 26.158-1.107.813.461-2.145 1.143-.821-.497 2.153zM38.341 46.907l-2.352 1.74-.001-2.242 2.389-1.728-.036 2.23z"/><path fill="#452F20" d="M40.603 45.229c-.886.658-1.34.993-2.262 1.676l.036-2.23 2.296-1.665-.07 2.219z"/><path fill="#64462E" d="m42.774 43.616-2.171 1.613.07-2.22c.9-.653 1.341-.973 2.205-1.602l-.104 2.209z"/><path fill="#64462E" d="m44.857 42.065-2.083 1.55.104-2.21 2.115-1.54-.136 2.2z"/><path fill="#777676" d="m46.85 40.58-1.994 1.486.137-2.2 2.024-1.476-.167 2.19z"/><path fill="#64462E" d="m48.758 39.16-1.907 1.423.167-2.19 1.936-1.415-.196 2.182z"/><path fill="#64462E" d="m50.577 37.799-1.82 1.36c.08-.872.119-1.309.197-2.182l1.849-1.354-.226 2.176z"/><path fill="#AA754E" d="M52.311 36.502 50.577 37.8c.091-.87.137-1.306.226-2.176l1.763-1.293-.255 2.171z"/><path fill="#AA754E" d="m53.958 35.264-1.648 1.234.254-2.17 1.678-1.232-.284 2.168z"/><path fill="#64462E" d="m55.522 34.092-1.563 1.173.283-2.169 1.593-1.17-.313 2.166z"/><path fill="#AA754E" d="m57.002 32.983-1.48 1.11.313-2.167 1.509-1.11-.342 2.167zm1.397-1.047-1.396 1.048.342-2.167 1.427-1.051-.373 2.17z"/><path fill="#64462E" d="m59.712 30.952-1.314.986.374-2.17 1.345-.991-.405 2.175z"/><path fill="#815C3B" d="m60.944 30.03-1.232.923.404-2.175 1.266-.93-.438 2.182z"/><path fill="#64462E" d="M62.096 29.166c-.445.332-.675.504-1.151.862l.437-2.183 1.186-.872-.472 2.193z"/><path fill="#815C3B" d="m63.167 28.367-1.07.8.471-2.194 1.107-.813-.508 2.207z"/><path fill="#AA754E" d="m38.306 49.102-2.314 1.747-.002-2.208c.959-.708 1.428-1.056 2.351-1.74l-.035 2.201z"/><path fill="#64462E" d="m40.532 47.423-2.226 1.683.035-2.2 2.262-1.676-.071 2.193z"/><path fill="#AA754E" d="M42.67 45.803c-.838.635-1.265.96-2.138 1.62l.071-2.193 2.171-1.613-.104 2.186z"/><path fill="#AA754E" d="m44.72 44.247-2.05 1.555.104-2.186c.85-.632 1.268-.942 2.083-1.55l-.137 2.181z"/><path fill="#815C3B" d="M46.683 42.754c-.768.584-1.16.882-1.963 1.49.055-.866.083-1.303.137-2.18l1.994-1.485-.168 2.175z"/><path fill="#815C3B" d="m48.559 41.329-1.877 1.427.168-2.175 1.907-1.423-.198 2.171z"/><path fill="#64462E" d="m50.349 39.965-1.79 1.363c.08-.865.119-1.3.198-2.171l1.82-1.36c-.09.87-.137 1.304-.228 2.168zm1.705-1.296-1.704 1.298.228-2.168 1.733-1.298c-.102.87-.154 1.304-.257 2.168z"/><path fill="#815C3B" d="m53.672 37.433-1.619 1.234c.103-.864.155-1.299.257-2.168.676-.506 1.006-.752 1.648-1.234l-.286 2.168z"/><path fill="#452F20" d="M55.206 36.264c-.597.455-.903.69-1.534 1.17l.286-2.168 1.564-1.172-.316 2.17z"/><path fill="#815C3B" d="m56.656 35.158-1.45 1.105.316-2.17 1.48-1.11-.346 2.175z"/><path fill="#815C3B" d="m58.022 34.117-1.366 1.041.346-2.174 1.396-1.048-.376 2.181z"/><path fill="#64462E" d="m59.304 33.141-1.282.977.376-2.181 1.314-.986-.408 2.19zm1.199-.911-1.199.912.408-2.19 1.232-.923-.441 2.201z"/><path fill="#815C3B" d="m61.621 31.384-1.117.847.442-2.201 1.151-.862-.476 2.216z"/><path fill="#815C3B" d="M62.654 30.599c-.398.3-.604.457-1.034.783l.476-2.216 1.07-.8-.512 2.233zM38.271 51.271l-2.277 1.753-.003-2.17 2.314-1.747-.034 2.164z"/><path fill="#64462E" d="m40.462 49.578-2.19 1.689.034-2.165 2.226-1.683-.07 2.159zm2.104-1.621c-.824.637-1.245.96-2.104 1.623l.07-2.158c.873-.66 1.3-.985 2.138-1.62l-.104 2.155z"/><path fill="#815C3B" d="m44.584 46.401-2.019 1.56.104-2.156c.838-.635 1.248-.945 2.05-1.555l-.135 2.151z"/><path fill="#64462E" d="m46.516 44.907-1.931 1.494.135-2.151 1.963-1.491-.167 2.148z"/><path fill="#815C3B" d="m48.363 43.479-1.846 1.429.166-2.149 1.877-1.427-.197 2.147z"/><path fill="#64462E" d="m50.123 42.112-1.76 1.364.196-2.147 1.79-1.363-.226 2.146z"/><path fill="#452F20" d="m51.798 40.817-1.675 1.298.226-2.146 1.704-1.299-.255 2.147z"/><path fill="#64462E" d="m53.388 39.583-1.59 1.232.255-2.147 1.62-1.234-.285 2.149z"/><path fill="#815C3B" d="m54.892 38.418-1.504 1.165.284-2.15 1.534-1.17-.314 2.155zm1.42-1.097-1.42 1.1.314-2.156 1.45-1.105-.344 2.161z"/><path fill="#64462E" d="m57.648 36.29-1.335 1.033.344-2.161 1.366-1.041-.375 2.169z"/><path fill="#64462E" d="m58.898 35.322-1.251.965.375-2.17 1.282-.976-.406 2.181z"/><path fill="#64462E" d="m60.064 34.423-1.166.898.406-2.181 1.2-.912-.44 2.195z"/><path fill="#452F20" d="m61.145 33.594-1.082.832.44-2.195 1.116-.848-.474 2.211z"/><path fill="#64462E" d="m62.143 32.83-.998.763.474-2.21c.43-.327.637-.483 1.035-.783-.206.894-.308 1.342-.511 2.23z"/><path fill="#815C3B" d="m38.237 53.394-2.24 1.757-.004-2.126 2.278-1.753-.034 2.122zm2.157-1.692-2.156 1.693.034-2.122 2.19-1.689-.068 2.118z"/><path fill="#452F20" d="m42.465 50.072-2.07 1.627.068-2.118 2.103-1.623-.101 2.114z"/><path fill="#64462E" d="m44.452 48.511-1.987 1.562.102-2.114 2.018-1.559-.133 2.111z"/><path fill="#64462E" d="m46.352 47.012-1.901 1.496.133-2.111 1.931-1.494-.163 2.109z"/><path fill="#452F20" d="m48.17 45.584-1.817 1.43.164-2.109 1.846-1.428-.193 2.107z"/><path fill="#452F20" d="m49.9 44.219-1.731 1.363.193-2.107 1.76-1.364-.222 2.108z"/><path fill="#64462E" d="m51.548 42.924-1.647 1.295.223-2.108 1.675-1.297-.251 2.11z"/><path fill="#64462E" d="m53.108 41.697-1.561 1.228.25-2.11 1.59-1.232-.279 2.114zm1.476-1.159-1.475 1.16.28-2.114 1.503-1.165-.308 2.119z"/><path fill="#64462E" d="m55.974 39.446-1.39 1.091.308-2.119 1.42-1.099-.338 2.127zm1.306-1.02-1.305 1.023.338-2.126c.55-.427.818-.633 1.335-1.033-.15.862-.223 1.292-.368 2.136z"/><path fill="#AA754E" d="m58.499 37.468-1.22.954.368-2.136 1.252-.966-.4 2.148z"/><path fill="#AA754E" d="m59.632 36.584-1.133.883.4-2.147 1.165-.898-.432 2.162z"/><path fill="#64462E" d="M60.68 35.772a286.6 286.6 0 0 0-1.048.814l.432-2.162 1.082-.832-.466 2.18z"/><path fill="#815C3B" d="m61.642 35.03-.962.743.466-2.18.998-.763-.502 2.2zM38.206 55.464l-2.205 1.763-.003-2.078 2.24-1.757-.032 2.072z"/><path fill="#815C3B" d="m40.327 53.766-2.122 1.698.032-2.072 2.156-1.693-.066 2.067z"/><path fill="#64462E" d="m42.367 52.134-2.04 1.632.067-2.068 2.071-1.627-.098 2.063z"/><path fill="#AA754E" d="m44.322 50.569-1.956 1.566.099-2.063 1.986-1.562-.129 2.059zm1.872-1.499-1.871 1.498.129-2.06c.777-.61 1.157-.91 1.9-1.495l-.158 2.057z"/><path fill="#64462E" d="m47.982 47.637-1.788 1.432.158-2.057 1.817-1.43-.187 2.055z"/><path fill="#AA754E" d="m49.686 46.276-1.703 1.363c.073-.81.11-1.222.187-2.055l1.731-1.363-.215 2.055z"/><path fill="#815C3B" d="m51.304 44.982-1.619 1.294.215-2.055 1.647-1.295-.243 2.056z"/><path fill="#452F20" d="m52.838 43.758-1.533 1.225.243-2.055 1.561-1.229-.271 2.059z"/><path fill="#AA754E" d="m54.285 42.601-1.448 1.155.271-2.059 1.476-1.16-.299 2.064z"/><path fill="#AA754E" d="m55.647 41.514-1.362 1.085c.117-.812.177-1.226.3-2.064l1.39-1.091-.328 2.07z"/><path fill="#64462E" d="m56.922 40.502-1.276 1.014.328-2.07 1.305-1.023-.357 2.079z"/><path fill="#815C3B" d="m58.112 39.559-1.189.942.357-2.079 1.219-.953-.387 2.09z"/><path fill="#815C3B" d="m59.213 38.69-1.101.87.386-2.09c.47-.368.697-.544 1.133-.884l-.418 2.104z"/><path fill="#777676" d="m60.228 37.893-1.015.797.419-2.104c.436-.34.646-.502 1.048-.813l-.452 2.12z"/><path fill="#64462E" d="m61.155 37.169-.927.724.452-2.12.962-.744-.487 2.14z"/><path fill="#815C3B" d="m38.174 57.481-2.17 1.77L36 57.228c.899-.718 1.34-1.07 2.205-1.763l-.031 2.016z"/><path fill="#64462E" d="m40.265 55.777-2.09 1.704.032-2.015 2.121-1.698-.063 2.009z"/><path fill="#64462E" d="m42.272 54.137-2.008 1.639.063-2.01 2.04-1.631c-.04.813-.058 1.214-.095 2.002z"/><path fill="#815C3B" d="m44.199 52.565-1.927 1.571.095-2.002 1.956-1.566-.124 1.997zm1.843-1.503-1.843 1.503.124-1.997 1.871-1.498-.152 1.992z"/><path fill="#AA754E" d="m47.802 49.629-1.76 1.435.152-1.992 1.788-1.431-.18 1.988z"/><path fill="#64462E" d="m49.479 48.262-1.677 1.365.18-1.988 1.704-1.363c-.085.81-.127 1.207-.207 1.986z"/><path fill="#815C3B" d="m51.071 46.969-1.592 1.295c.08-.779.122-1.177.207-1.986l1.618-1.294-.233 1.985z"/><path fill="#5B5A59" d="m52.578 45.744-1.507 1.224c.09-.777.137-1.175.233-1.985l1.533-1.225-.259 1.986z"/><path fill="#815C3B" d="M54 44.586c-.551.447-.836.677-1.421 1.153.1-.778.153-1.176.26-1.986l1.446-1.155L54 44.586z"/><path fill="#815C3B" d="m55.333 43.507-1.335 1.08.286-1.989 1.362-1.084c-.129.814-.191 1.214-.313 1.993z"/><path fill="#64462E" d="m56.582 42.504-1.248 1.007.313-1.993 1.276-1.014c-.14.817-.209 1.219-.341 2z"/><path fill="#452F20" d="m57.742 41.569-1.16.933c.132-.781.2-1.183.34-2 .493-.391.731-.58 1.19-.942a982.69 982.69 0 0 0-.37 2.009z"/><path fill="#815C3B" d="m58.813 40.712-1.071.858c.143-.784.218-1.188.37-2.01l1.1-.87-.399 2.022z"/><path fill="#64462E" d="m59.796 39.928-.983.783.4-2.021c.423-.334.626-.493 1.015-.798-.178.833-.264 1.242-.432 2.036z"/><path fill="#452F20" d="M60.69 39.222c-.34.267-.518.408-.893.706l.431-2.035c.388-.305.574-.45.927-.724l-.465 2.053z"/><path fill="#64462E" d="m38.145 59.434-2.137 1.782-.004-1.965 2.17-1.77-.029 1.953z"/><path fill="#452F20" d="m40.204 57.718-2.059 1.715.03-1.953 2.09-1.705-.061 1.943z"/><path fill="#815C3B" d="m42.183 56.067-1.98 1.649.061-1.943 2.008-1.638-.089 1.932z"/><path fill="#64462E" d="m44.082 54.491-1.9 1.58.09-1.932 1.927-1.572c-.049.785-.072 1.17-.117 1.924z"/><path fill="#815C3B" d="m45.899 52.975-1.816 1.512.116-1.924 1.843-1.503-.143 1.915zm1.735-1.438-1.735 1.442.143-1.915 1.76-1.435c-.07.78-.103 1.163-.168 1.908z"/><path fill="#AA754E" d="m49.286 50.165-1.651 1.371.168-1.907 1.677-1.366c-.08.779-.12 1.16-.194 1.902z"/><path fill="#64462E" d="m50.853 48.865-1.568 1.3.194-1.902 1.592-1.295-.218 1.897z"/><path fill="#64462E" d="m52.335 47.637-1.482 1.227c.085-.74.128-1.12.219-1.897.62-.504.921-.75 1.507-1.225l-.244 1.895zm1.397-1.152-1.397 1.154.244-1.895L54 44.591c-.11.778-.165 1.158-.268 1.894z"/><path fill="#64462E" d="m55.04 45.407-1.31 1.079.269-1.894 1.335-1.08c-.122.78-.181 1.16-.294 1.895z"/><path fill="#64462E" d="m56.262 44.4-1.222 1.004.293-1.895 1.248-1.007-.319 1.898z"/><path fill="#64462E" d="M57.395 43.474c-.435.356-.662.54-1.133.927.123-.736.187-1.117.32-1.898l1.16-.933c-.144.784-.214 1.167-.347 1.904z"/><path fill="#64462E" d="M58.438 42.622c-.4.324-.608.494-1.043.85l.346-1.904 1.072-.858c-.156.788-.23 1.172-.375 1.912z"/><path fill="#AA754E" d="m59.391 41.854-.953.772c.144-.74.22-1.124.375-1.912.411-.328.607-.485.983-.783-.168.794-.25 1.18-.405 1.923zm.862-.694-.861.692.405-1.922c.375-.298.554-.44.893-.707l-.437 1.937z"/><path fill="#64462E" d="m38.117 61.317-2.108 1.797c0-.746 0-1.126-.002-1.9l2.138-1.781-.028 1.884z"/><path fill="#815C3B" d="m40.147 59.588-2.03 1.732.027-1.885 2.06-1.715-.057 1.868z"/><path fill="#64462E" d="m42.1 57.922-1.952 1.663c.021-.731.032-1.105.056-1.868l1.98-1.649-.084 1.854z"/><path fill="#64462E" d="M43.973 56.33 42.1 57.925c.032-.724.048-1.096.083-1.854l1.9-1.58-.11 1.839z"/><path fill="#452F20" d="M45.766 54.804c-.7.596-1.06.9-1.793 1.525l.11-1.839 1.815-1.512-.132 1.826z"/><path fill="#64462E" d="M47.478 53.346 45.766 54.8l.133-1.825 1.735-1.443-.156 1.814z"/><path fill="#815C3B" d="m49.106 51.964-1.629 1.382c.06-.705.092-1.068.157-1.813l1.651-1.372c-.075.742-.11 1.104-.179 1.803z"/><path fill="#815C3B" d="m50.651 50.659-1.545 1.31c.068-.7.104-1.061.18-1.803l1.567-1.3c-.084.74-.125 1.099-.202 1.793z"/><path fill="#64462E" d="m52.111 49.42-1.46 1.235c.077-.694.118-1.054.202-1.793l1.482-1.227a350.37 350.37 0 0 0-.224 1.785z"/><path fill="#452F20" d="M53.485 48.265c-.532.449-.807.68-1.374 1.16.085-.69.13-1.049.224-1.786l1.397-1.154c-.104.736-.153 1.094-.247 1.78z"/><path fill="#AA754E" d="m54.772 47.181-1.286 1.083c.093-.687.143-1.044.246-1.78.541-.447.803-.662 1.31-1.079-.114.736-.168 1.092-.27 1.776z"/><path fill="#452F20" d="m55.969 46.174-1.198 1.005c.103-.683.157-1.04.27-1.775.506-.417.75-.618 1.222-1.004-.123.736-.182 1.092-.294 1.774z"/><path fill="#64462E" d="M57.077 45.246a510 510 0 0 0-1.108.927c.112-.682.17-1.038.294-1.774.47-.386.697-.572 1.133-.927-.134.737-.198 1.093-.319 1.774z"/><path fill="#AA754E" d="m58.095 44.402-1.017.847c.12-.681.185-1.037.318-1.775l1.043-.85-.344 1.778z"/><path fill="#815C3B" d="M59.019 43.634c-.351.29-.536.443-.924.766.13-.681.2-1.038.344-1.778.4-.324.59-.48.953-.772a846.05 846.05 0 0 0-.373 1.784zm.833-.685-.832.684.373-1.785.861-.692-.402 1.793zM38.091 63.125l-2.08 1.82-.001-1.83 2.107-1.797-.026 1.807z"/><path fill="#64462E" d="m40.095 61.369-2.004 1.754.026-1.808 2.03-1.731-.052 1.785z"/><path fill="#452F20" d="m42.023 59.686-1.929 1.685c.02-.697.03-1.054.053-1.786l1.952-1.663-.076 1.764z"/><path fill="#AA754E" d="m43.874 58.071-1.85 1.616c.028-.687.043-1.04.075-1.764l1.874-1.595c-.042.717-.062 1.066-.099 1.743z"/><path fill="#64462E" d="m45.645 56.526-1.77 1.544c.037-.677.056-1.026.098-1.743l1.793-1.525c-.051.71-.075 1.057-.121 1.724z"/><path fill="#452F20" d="m47.336 55.056-1.691 1.473c.045-.667.07-1.013.12-1.724l1.712-1.454c-.06.705-.088 1.047-.141 1.705z"/><path fill="#64462E" d="m48.944 53.654-1.609 1.4c.054-.66.082-1.001.142-1.706l1.629-1.382c-.069.7-.101 1.038-.162 1.688z"/><path fill="#452F20" d="m50.47 52.331-1.526 1.325c.061-.65.093-.988.162-1.687l1.545-1.31c-.077.694-.113 1.03-.181 1.672z"/><path fill="#64462E" d="m51.91 51.082-1.44 1.249c.068-.643.104-.978.181-1.672.601-.51.893-.756 1.46-1.235-.085.69-.126 1.023-.201 1.658z"/><path fill="#64462E" d="m53.264 49.909-1.354 1.172c.075-.635.116-.968.201-1.658.567-.48.842-.71 1.374-1.16-.094.687-.138 1.017-.221 1.646z"/><path fill="#64462E" d="m54.53 48.814-1.266 1.093c.083-.628.127-.959.221-1.645l1.286-1.083c-.102.683-.15 1.012-.241 1.635z"/><path fill="#452F20" d="m55.706 47.801-1.177 1.014c.091-.623.14-.952.242-1.635.497-.418.736-.62 1.198-1.006a292.31 292.31 0 0 0-.263 1.627z"/><path fill="#64462E" d="m56.792 46.871-1.085.932c.098-.618.15-.945.262-1.626l1.108-.928c-.12.681-.178 1.007-.285 1.622z"/><path fill="#64462E" d="m57.785 46.019-.994.85c.107-.615.165-.941.286-1.622.425-.355.629-.524 1.017-.846-.131.68-.194 1.006-.309 1.618z"/><path fill="#815C3B" d="m58.685 45.255-.9.766c.116-.612.178-.937.31-1.618.388-.323.573-.476.924-.765-.142.681-.209 1.007-.334 1.617z"/><path fill="#815C3B" d="m59.49 44.57-.805.68.334-1.617c.352-.29.518-.427.832-.683l-.361 1.62zM38.066 64.849l-2.054 1.85v-1.755l2.079-1.82-.025 1.725z"/><path fill="#64462E" d="m40.048 63.066-1.982 1.783.025-1.724 2.004-1.754c-.02.697-.03 1.036-.047 1.695z"/><path fill="#AA754E" d="m41.955 61.35-1.907 1.714a918 918 0 0 1 .047-1.695l1.929-1.684c-.03.686-.044 1.02-.069 1.665z"/><path fill="#815C3B" d="m43.786 59.708-1.831 1.644c.025-.645.04-.979.068-1.665l1.851-1.616-.088 1.637z"/><path fill="#815C3B" d="m45.538 58.134-1.753 1.572.088-1.637 1.771-1.544c-.045.668-.067.99-.106 1.609z"/><path fill="#64462E" d="m47.212 56.637-1.673 1.5c.04-.62.06-.942.106-1.61l1.691-1.473c-.053.659-.078.976-.124 1.583z"/><path fill="#777676" d="m48.804 55.215-1.591 1.425c.046-.607.07-.925.124-1.583l1.608-1.4c-.06.65-.09.963-.141 1.558z"/><path fill="#815C3B" d="m50.312 53.865-1.509 1.349c.052-.595.081-.908.142-1.558l1.525-1.325c-.068.642-.1.95-.158 1.534z"/><path fill="#815C3B" d="m51.735 52.592-1.423 1.271c.058-.584.09-.892.158-1.534l1.44-1.249c-.076.635-.11.939-.175 1.512z"/><path fill="#815C3B" d="m53.072 51.402-1.337 1.192c.064-.573.1-.877.175-1.512l1.354-1.172c-.083.629-.122.929-.192 1.492z"/><path fill="#64462E" d="M54.32 50.289c-.482.428-.731.65-1.248 1.112.07-.564.109-.863.192-1.492l1.266-1.093c-.09.623-.133.919-.21 1.473z"/><path fill="#64462E" d="m55.478 49.259-1.158 1.03c.076-.555.119-.85.21-1.474.488-.422.723-.625 1.176-1.014-.099.619-.145.912-.228 1.458z"/><path fill="#815C3B" d="M56.546 48.311c-.408.361-.622.55-1.067.946.083-.546.13-.84.228-1.458.452-.39.67-.576 1.085-.932-.107.615-.156.905-.246 1.444z"/><path fill="#815C3B" d="m57.518 47.451-.973.86c.09-.538.14-.829.246-1.444l.994-.85c-.115.613-.17.901-.267 1.434z"/><path fill="#64462E" d="M58.396 46.674c-.332.292-.507.448-.877.775.097-.533.151-.821.267-1.433.378-.323.558-.477.9-.767-.126.61-.184.897-.29 1.425z"/><path fill="#452F20" d="M59.176 45.992c-.293.257-.45.394-.78.686.105-.527.163-.814.289-1.424.34-.29.502-.426.804-.681l-.313 1.419z"/><path fill="#79AE47" d="m9.116 15.152-2.03.692-1.343-.771 1.987-.652 1.386.731zm2.035-.694-2.034.691-1.387-.73 1.996-.654c.56.271.845.41 1.425.693z"/><path fill="#62A945" d="M13.184 13.772c-.813.275-1.22.413-2.033.69-.58-.284-.865-.423-1.425-.694l2.001-.656c.573.258.864.39 1.457.66z"/><path fill="#62A945" d="m15.212 13.088-2.028.685c-.593-.27-.884-.401-1.456-.66l2.001-.654c.583.246.88.372 1.483.629z"/><path fill="#79AE47" d="M17.229 12.408c-.805.27-1.208.407-2.018.68-.603-.258-.9-.383-1.482-.63.8-.26 1.2-.391 1.996-.652l1.504.602zm2.003-.676-2.003.673c-.613-.247-.913-.367-1.504-.602l1.987-.65c.598.227.901.342 1.52.579z"/><path fill="#79AE47" d="M21.217 11.072c-.79.264-1.187.396-1.985.664a314.46 314.46 0 0 0-1.52-.579l1.974-.642c.601.217.907.329 1.531.557zm1.962-.655-1.962.653c-.623-.228-.93-.34-1.53-.557l1.953-.634c.605.21.913.317 1.539.538z"/><path fill="#8CC35A" d="m25.112 9.773-1.934.64c-.626-.22-.934-.328-1.538-.538l1.93-.625c.606.204.914.308 1.542.523z"/><path fill="#8CC35A" d="m27.014 9.151-1.902.628a308.06 308.06 0 0 0-1.542-.523l1.901-.614c.606.198.915.3 1.543.51z"/><path fill="#569843" d="M28.879 8.536c-.738.241-1.111.364-1.865.612-.628-.21-.937-.311-1.543-.51l1.868-.6c.605.194.913.293 1.54.498z"/><path fill="#79AE47" d="m30.704 7.94-1.824.596a291.99 291.99 0 0 0-1.54-.497l1.83-.586c.602.19.909.288 1.534.488z"/><path fill="#79AE47" d="M32.482 7.363c-.702.227-1.058.342-1.779.577-.625-.2-.932-.298-1.535-.488l1.787-.569c.6.187.905.283 1.527.48z"/><path fill="#8CC35A" d="M34.211 6.812c-.68.218-1.027.328-1.728.555-.623-.197-.928-.293-1.528-.48l1.738-.55c.596.185.9.28 1.518.475z"/><path fill="#569843" d="m35.886 6.274-1.675.535a315.2 315.2 0 0 0-1.518-.475l1.685-.53 1.508.47z"/><path fill="#8CC35A" d="m37.502 5.763-1.615.511c-.615-.193-.916-.286-1.508-.47l1.628-.507 1.495.466z"/><path fill="#62A945" d="m10.556 15.912-2.075.734-1.396-.803 2.03-.692c.566.298.854.45 1.44.761z"/><path fill="#62A945" d="M12.628 15.186c-.828.29-1.243.436-2.073.729l-1.44-.761 2.035-.692 1.478.724z"/><path fill="#79AE47" d="m14.695 14.459-2.065.723-1.479-.723 2.033-.69c.594.27.896.408 1.511.69z"/><path fill="#569843" d="m16.749 13.746-2.054.716-1.511-.69 2.028-.685 1.537.659z"/><path fill="#62A945" d="M18.788 13.04c-.812.28-1.22.423-2.039.708-.626-.27-.933-.402-1.537-.66l2.018-.68 1.558.632z"/><path fill="#79AE47" d="m20.808 12.343-2.02.697c-.635-.259-.946-.385-1.558-.631.804-.27 1.205-.406 2.003-.673.619.237.934.358 1.575.607z"/><path fill="#79AE47" d="M22.804 11.658a943.3 943.3 0 0 0-1.997.686c-.64-.249-.956-.37-1.575-.607l1.985-.664c.624.228.941.345 1.587.585z"/><path fill="#62A945" d="M24.773 10.986c-.782.266-1.176.4-1.97.672-.645-.24-.963-.357-1.586-.585l1.961-.653c.627.22.946.334 1.595.566zm1.938-.661-1.938.658c-.649-.232-.968-.345-1.594-.566.779-.26 1.166-.387 1.933-.641.628.214.948.324 1.599.549z"/><path fill="#569843" d="m28.614 9.683-1.903.642c-.65-.225-.97-.335-1.598-.55a1402 1402 0 0 1 1.902-.627c.628.209.948.316 1.599.535z"/><path fill="#569843" d="M30.476 9.059c-.737.246-1.11.37-1.863.624-.65-.22-.97-.327-1.599-.536l1.865-.612 1.597.524z"/><path fill="#79AE47" d="m32.296 8.453-1.819.605c-.65-.215-.97-.32-1.597-.524l1.824-.595c.625.2.944.303 1.592.514z"/><path fill="#529A5E" d="m34.068 7.867-1.772.585-1.592-.514 1.78-.577 1.584.506z"/><path fill="#62A945" d="M35.787 7.309a528.7 528.7 0 0 0-1.72.562c-.645-.207-.962-.308-1.585-.506l1.729-.555c.619.195.934.294 1.576.499z"/><path fill="#79AE47" d="M37.45 6.77c-.654.211-.987.32-1.664.54l-1.576-.5c.68-.218 1.016-.325 1.675-.534.615.192.927.292 1.565.494z"/><path fill="#79AE47" d="M39.056 6.255c-.63.2-.95.303-1.605.514-.637-.202-.95-.301-1.565-.494.658-.21.982-.311 1.615-.51.61.19.922.29 1.555.49z"/><path fill="#8CC35A" d="m12.052 16.708-2.12.776-1.452-.837 2.075-.733c.587.31.886.47 1.497.794z"/><path fill="#569843" d="M14.163 15.94c-.842.305-1.265.46-2.111.768-.61-.325-.91-.483-1.497-.794l2.073-.73c.602.296.91.447 1.535.756z"/><path fill="#62A945" d="M16.261 15.179c-.836.301-1.256.452-2.098.757-.626-.308-.932-.46-1.535-.755l2.066-.723 1.567.721z"/><path fill="#79AE47" d="m18.342 14.434-2.081.748c-.639-.295-.952-.44-1.567-.722.824-.288 1.235-.43 2.054-.715.626.27.945.407 1.594.689z"/><path fill="#62A945" d="M20.402 13.698c-.82.291-1.232.439-2.06.736-.65-.283-.968-.42-1.594-.69l2.04-.707c.634.258.956.39 1.614.661zm2.037-.724c-.81.286-1.217.43-2.036.722-.658-.27-.98-.402-1.615-.66a497.01 497.01 0 0 1 2.02-.697c.64.248.967.374 1.631.635z"/><path fill="#569843" d="m24.448 12.268-2.009.708-1.63-.636 1.996-.686c.646.24.974.363 1.643.614z"/><path fill="#62A945" d="m26.424 11.577-1.977.692c-.669-.251-.997-.374-1.643-.614l1.97-.672c.648.232.978.35 1.65.594z"/><path fill="#8CC35A" d="M28.366 10.901c-.769.266-1.158.401-1.942.675-.672-.243-1.002-.362-1.65-.594l1.937-.658c.651.225.981.34 1.655.577z"/><path fill="#62A945" d="M30.269 10.244c-.753.259-1.134.39-1.903.657-.674-.236-1.004-.352-1.655-.577l1.903-.642c.65.22.981.332 1.655.562z"/><path fill="#79AE47" d="M32.131 9.608c-.735.25-1.108.378-1.86.637-.674-.23-1.005-.343-1.656-.562l1.863-.624c.65.214.98.324 1.653.549z"/><path fill="#79AE47" d="M33.944 8.993c-.716.242-1.079.365-1.814.616-.673-.225-1.003-.335-1.653-.549.736-.246 1.1-.367 1.819-.605.648.21.977.318 1.648.538z"/><path fill="#8CC35A" d="M35.709 8.4c-.695.232-1.049.35-1.765.593-.671-.22-1-.328-1.648-.538a569.51 569.51 0 0 1 1.772-.585c.645.207.973.313 1.641.53z"/><path fill="#62A945" d="M37.42 7.829c-.673.223-1.016.337-1.71.57-.669-.217-.997-.323-1.642-.53.698-.23 1.042-.342 1.72-.563.64.205.968.309 1.632.523z"/><path fill="#569843" d="M39.073 7.285c-.65.213-.98.322-1.654.545a452.94 452.94 0 0 0-1.632-.522l1.664-.54 1.622.517z"/><path fill="#79AE47" d="M40.666 6.769c-.625.202-.943.305-1.593.518l-1.622-.516c.654-.21.975-.314 1.605-.515.632.201.955.303 1.61.513zM13.611 17.537c-.863.325-1.296.49-2.165.819l-1.514-.873c.85-.311 1.274-.467 2.12-.775.612.324.923.49 1.559.829z"/><path fill="#8CC35A" d="M15.76 16.73c-.856.32-1.286.481-2.15.806l-1.557-.829c.846-.309 1.269-.462 2.11-.768l1.597.791z"/><path fill="#62A945" d="m17.89 15.935-2.13.794a686.3 686.3 0 0 0-1.595-.79c.842-.306 1.261-.457 2.097-.758.639.295.964.445 1.628.754z"/><path fill="#62A945" d="M19.997 15.155c-.838.309-1.26.465-2.107.78l-1.628-.755 2.08-.747c.65.282.98.426 1.655.722z"/><path fill="#79AE47" d="m22.077 14.393-2.081.765c-.674-.296-1.005-.44-1.655-.722l2.06-.736c.659.27.994.41 1.676.693z"/><path fill="#8CC35A" d="M24.13 13.643c-.815.296-1.225.446-2.052.749-.683-.284-1.018-.422-1.676-.693l2.037-.723c.664.26 1.002.394 1.691.667z"/><path fill="#62A945" d="m26.15 12.913-2.02.73a366.84 366.84 0 0 0-1.691-.666l2.008-.708c.67.252 1.01.38 1.703.644z"/><path fill="#79AE47" d="M28.135 12.198c-.786.281-1.183.424-1.984.713-.694-.264-1.034-.393-1.703-.644l1.977-.692c.672.244 1.014.368 1.71.623z"/><path fill="#8CC35A" d="M30.08 11.507c-.77.273-1.16.411-1.945.693-.696-.255-1.038-.38-1.71-.623.783-.274 1.172-.408 1.941-.675.674.236 1.017.357 1.714.605z"/><path fill="#62A945" d="M31.983 10.834c-.753.265-1.133.4-1.904.673-.697-.248-1.04-.369-1.714-.605.77-.267 1.15-.398 1.904-.657.674.23 1.017.348 1.714.589z"/><path fill="#79AE47" d="m33.84 10.182-1.857.65c-.698-.24-1.04-.359-1.715-.589l1.86-.636c.674.224 1.016.34 1.712.575z"/><path fill="#8CC35A" d="M35.649 9.557c-.713.247-1.075.372-1.809.628-.696-.236-1.038-.35-1.711-.575.735-.251 1.098-.374 1.814-.616.67.22 1.012.333 1.706.563z"/><path fill="#62A945" d="M37.407 8.955c-.692.236-1.044.357-1.758.603a454.72 454.72 0 0 0-1.706-.564c.716-.242 1.07-.36 1.765-.593.669.217 1.008.327 1.699.554z"/><path fill="#569843" d="M39.109 8.374c-.67.226-1.01.342-1.702.578l-1.698-.554a457.67 457.67 0 0 1 1.71-.57l1.69.546z"/><path fill="#62A945" d="M40.753 7.826c-.645.215-.974.325-1.643.551l-1.69-.546 1.654-.545c.66.211.996.32 1.679.54zm1.581-.529c-.62.204-.936.31-1.581.525l-1.68-.54c.65-.213.969-.316 1.594-.518l1.667.533z"/><path fill="#79AE47" d="M15.234 18.405c-.879.342-1.32.515-2.208.863l-1.58-.911 2.165-.82 1.623.868z"/><path fill="#62A945" d="M17.42 17.554c-.87.336-1.307.505-2.186.848-.663-.355-.987-.529-1.623-.868.863-.325 1.293-.486 2.149-.806l1.66.826z"/><path fill="#62A945" d="M19.581 16.729c-.859.329-1.29.495-2.16.83l-1.66-.826c.855-.32 1.281-.479 2.129-.793.663.308 1.001.466 1.691.789z"/><path fill="#79AE47" d="M21.714 15.913c-.847.322-1.274.485-2.133.814-.69-.324-1.028-.481-1.691-.79.847-.315 1.269-.47 2.107-.78l1.717.756zm2.101-.795c-.834.314-1.254.473-2.101.795-.7-.31-1.043-.46-1.717-.755.837-.31 1.254-.463 2.08-.765.683.283 1.03.428 1.738.725z"/><path fill="#8CC35A" d="M25.882 14.343c-.82.306-1.234.461-2.067.776-.708-.297-1.056-.442-1.738-.726l2.052-.749c.689.273 1.04.413 1.753.699z"/><path fill="#62A945" d="m27.913 13.585-2.03.755c-.714-.286-1.065-.426-1.753-.699l2.02-.73c.693.263 1.045.398 1.763.674z"/><path fill="#62A945" d="M29.905 12.85c-.788.29-1.187.437-1.991.735-.718-.276-1.07-.41-1.764-.674a699.35 699.35 0 0 1 1.985-.713c.696.255 1.05.385 1.77.652z"/><path fill="#79AE47" d="M31.854 12.138c-.77.28-1.16.423-1.948.712-.72-.267-1.074-.397-1.77-.652.786-.281 1.175-.42 1.945-.693.697.248 1.052.374 1.773.633z"/><path fill="#529A5E" d="M33.756 11.453c-.752.27-1.132.409-1.903.69-.721-.26-1.076-.386-1.773-.634a612.9 612.9 0 0 1 1.904-.672c.697.24 1.051.364 1.772.616z"/><path fill="#62A945" d="M35.61 10.785c-.732.261-1.103.394-1.855.665a444.93 444.93 0 0 0-1.772-.616l1.857-.65c.696.235 1.05.355 1.77.601z"/><path fill="#569843" d="M37.414 10.146c-.71.25-1.071.379-1.803.64-.72-.246-1.073-.366-1.77-.601.734-.256 1.096-.381 1.81-.628.693.23 1.046.349 1.763.589z"/><path fill="#79AE47" d="M39.163 9.531c-.689.24-1.039.364-1.75.614-.716-.24-1.069-.358-1.763-.588.714-.247 1.066-.367 1.758-.604l1.755.578z"/><path fill="#8CC35A" d="M40.854 8.943c-.665.23-1.003.347-1.691.587l-1.755-.577c.692-.237 1.032-.352 1.701-.578.687.222 1.036.336 1.745.568z"/><path fill="#62A945" d="M42.486 8.384c-.64.218-.967.33-1.632.56l-1.745-.569c.669-.226.998-.336 1.643-.552.683.22 1.03.332 1.734.561z"/><path fill="#62A945" d="M44.055 7.855c-.614.207-.929.313-1.569.531l-1.734-.56c.645-.216.962-.32 1.582-.525l1.721.554zM16.926 19.311c-.895.36-1.345.541-2.25.908l-1.65-.952c.887-.348 1.329-.52 2.208-.863l1.692.907z"/><path fill="#569843" d="M19.149 18.422c-.883.352-1.328.53-2.223.889l-1.692-.907c.88-.342 1.317-.512 2.187-.847l1.728.865z"/><path fill="#62A945" d="M21.339 17.555c-.87.344-1.308.517-2.19.869a803.62 803.62 0 0 0-1.73-.865 691.1 691.1 0 0 1 2.161-.831c.69.323 1.042.489 1.759.827z"/><path fill="#79AE47" d="M23.497 16.705c-.856.335-1.287.505-2.157.849-.718-.339-1.07-.504-1.76-.828.86-.329 1.287-.492 2.134-.813l1.783.792z"/><path fill="#8CC35A" d="M25.618 15.878c-.84.326-1.265.492-2.12.827-.728-.324-1.084-.483-1.784-.792.847-.322 1.268-.481 2.102-.795.707.297 1.068.449 1.802.76z"/><path fill="#569843" d="M27.7 15.073c-.825.317-1.241.478-2.082.804-.734-.31-1.095-.463-1.802-.76.834-.314 1.248-.47 2.067-.776.714.286 1.077.432 1.817.732z"/><path fill="#569843" d="M29.74 14.29c-.807.308-1.216.464-2.04.781-.74-.299-1.103-.445-1.817-.731.82-.307 1.226-.458 2.03-.755.719.275 1.084.416 1.827.705z"/><path fill="#79AE47" d="M31.737 13.534c-.79.298-1.19.45-1.997.757-.743-.288-1.108-.43-1.826-.705.805-.298 1.203-.446 1.991-.735.72.267 1.087.404 1.832.683z"/><path fill="#79AE47" d="M33.686 12.805c-.77.288-1.16.435-1.95.733-.746-.28-1.112-.416-1.832-.683.788-.29 1.178-.432 1.948-.712.721.259 1.088.391 1.834.662z"/><path fill="#62A945" d="M35.589 12.094c-.75.278-1.13.42-1.901.708-.746-.27-1.113-.403-1.835-.662.771-.28 1.152-.419 1.904-.69.72.252 1.087.38 1.832.644z"/><path fill="#79AE47" d="M37.438 11.414c-.73.267-1.1.403-1.85.681-.745-.263-1.111-.392-1.832-.643a488.17 488.17 0 0 1 1.854-.666c.72.246 1.085.372 1.828.628zm1.797-.656c-.707.256-1.067.387-1.796.654-.744-.257-1.109-.382-1.828-.628a508.54 508.54 0 0 1 1.803-.64c.717.24 1.081.363 1.821.614z"/><path fill="#569843" d="M40.975 10.131c-.684.245-1.032.37-1.74.627l-1.821-.614c.71-.25 1.06-.374 1.75-.614l1.811.601z"/><path fill="#62A945" d="M42.655 9.534c-.66.233-.996.353-1.68.598l-1.813-.601c.689-.24 1.027-.358 1.692-.588.709.232 1.07.35 1.801.591z"/><path fill="#79AE47" d="M44.275 8.966c-.635.222-.96.336-1.62.569-.73-.24-1.092-.359-1.8-.59.664-.23.991-.342 1.631-.56.705.228 1.063.344 1.789.581z"/><path fill="#8CC35A" d="M45.83 8.428c-.609.209-.92.316-1.555.538l-1.789-.582c.64-.218.955-.324 1.57-.53.699.225 1.053.34 1.774.574z"/><path fill="#529A5E" d="M18.692 20.259c-.91.378-1.368.569-2.292.955l-1.725-.996a670.2 670.2 0 0 1 2.25-.908c.692.37 1.045.56 1.767.949z"/><path fill="#62A945" d="M20.95 19.326c-.896.368-1.347.555-2.257.933l-1.766-.95c.895-.36 1.34-.537 2.222-.889.706.354 1.066.535 1.801.906z"/><path fill="#79AE47" d="M23.169 18.418c-.88.359-1.324.54-2.22.909l-1.8-.906c.882-.351 1.32-.525 2.19-.869.718.338 1.084.511 1.83.866z"/><path fill="#8CC35A" d="M25.35 17.532c-.864.35-1.3.526-2.18.885l-1.83-.866c.87-.343 1.302-.513 2.158-.848l1.852.829z"/><path fill="#569843" d="M27.487 16.676c-.847.339-1.274.51-2.138.86-.756-.34-1.126-.506-1.853-.83.856-.335 1.28-.5 2.12-.826.735.31 1.109.47 1.871.796z"/><path fill="#8CC35A" d="M29.583 15.837c-.829.329-1.248.496-2.095.835-.762-.326-1.136-.485-1.87-.797.84-.326 1.257-.487 2.082-.804l1.883.766z"/><path fill="#569843" d="M31.632 15.03c-.81.318-1.22.48-2.049.808a516 516 0 0 0-1.883-.766c.825-.317 1.233-.473 2.04-.781.744.289 1.122.437 1.892.739z"/><path fill="#62A945" d="M33.632 14.248c-.79.307-1.191.464-2.001.782-.77-.302-1.148-.45-1.892-.739.808-.308 1.207-.46 1.997-.757.746.28 1.125.422 1.896.714zm1.951-.756c-.77.296-1.16.448-1.95.755-.772-.292-1.15-.435-1.896-.714a622.6 622.6 0 0 1 1.95-.733c.746.271 1.125.41 1.896.692z"/><path fill="#62A945" d="M37.483 12.766c-.749.285-1.129.43-1.9.727-.77-.283-1.15-.421-1.895-.692.77-.288 1.15-.43 1.901-.708l1.894.673z"/><path fill="#569843" d="M39.326 12.069c-.726.274-1.095.414-1.844.699-.77-.275-1.148-.41-1.894-.673.75-.277 1.12-.414 1.85-.68.743.256 1.121.387 1.888.654z"/><path fill="#62A945" d="M41.113 11.4c-.703.262-1.061.396-1.788.67-.767-.267-1.144-.399-1.887-.655.729-.267 1.089-.398 1.796-.654.74.25 1.116.379 1.879.639z"/><path fill="#62A945" d="M42.843 10.759c-.68.25-1.026.379-1.73.64-.763-.26-1.138-.388-1.878-.638.707-.256 1.055-.382 1.74-.627.736.245 1.11.37 1.868.625z"/><path fill="#62A945" d="M44.512 10.149c-.655.238-.989.36-1.668.61-.759-.254-1.133-.38-1.869-.625.684-.245 1.02-.364 1.68-.598l1.857.613z"/><path fill="#529A5E" d="M46.116 9.566c-.63.225-.95.341-1.605.579-.754-.25-1.125-.372-1.857-.613.66-.233.985-.347 1.62-.568l1.842.602z"/><path fill="#79AE47" d="M47.657 9.019c-.603.212-.911.322-1.54.548-.748-.245-1.116-.366-1.843-.602.635-.222.946-.33 1.555-.539l1.828.593zM20.536 21.253c-.924.396-1.39.598-2.331 1.004L16.4 21.215c.924-.386 1.382-.578 2.292-.955.721.388 1.09.586 1.843.993z"/><path fill="#569843" d="M22.827 20.278c-.908.386-1.366.581-2.29.978l-1.843-.994c.91-.377 1.361-.564 2.257-.932.735.37 1.11.56 1.876.948z"/><path fill="#79AE47" d="M25.072 19.327c-.89.375-1.339.564-2.246.95-.766-.388-1.142-.578-1.877-.948.896-.368 1.34-.55 2.22-.909.746.354 1.127.536 1.903.907z"/><path fill="#62A945" d="M27.274 18.4c-.871.364-1.312.548-2.202.923a681.22 681.22 0 0 0-1.903-.907c.88-.359 1.317-.536 2.18-.885.756.34 1.14.513 1.925.869z"/><path fill="#79AE47" d="M29.428 17.507c-.852.352-1.283.532-2.154.895-.785-.355-1.17-.529-1.924-.868.863-.35 1.291-.521 2.138-.86.762.326 1.15.492 1.94.833z"/><path fill="#79AE47" d="M31.535 16.64c-.833.341-1.254.514-2.106.867-.79-.342-1.178-.508-1.94-.834.847-.339 1.266-.506 2.095-.834.766.313 1.156.473 1.951.801z"/><path fill="#62A945" d="M33.59 15.803c-.812.33-1.224.497-2.056.838-.794-.328-1.184-.488-1.951-.802.829-.328 1.239-.49 2.049-.808.77.302 1.161.456 1.958.772z"/><path fill="#569843" d="M35.594 14.993c-.79.318-1.192.48-2.004.809-.797-.316-1.188-.47-1.958-.772.81-.319 1.21-.475 2.001-.783.771.292 1.163.441 1.961.746z"/><path fill="#62A945" d="M37.543 14.217c-.769.305-1.158.462-1.949.779a669.46 669.46 0 0 0-1.96-.746c.79-.307 1.18-.459 1.95-.755.77.283 1.162.427 1.959.722z"/><path fill="#8CC35A" d="M39.437 13.467c-.746.293-1.126.443-1.895.749-.796-.295-1.188-.44-1.959-.722.77-.297 1.15-.442 1.9-.727.769.274 1.16.414 1.954.7z"/><path fill="#569843" d="M41.274 12.748c-.723.281-1.09.425-1.837.718-.794-.286-1.185-.426-1.954-.7.748-.285 1.117-.425 1.843-.699.767.267 1.157.403 1.948.681z"/><path fill="#62A945" d="M43.051 12.062c-.699.269-1.054.406-1.777.688-.791-.278-1.18-.415-1.948-.681.727-.274 1.085-.408 1.788-.67.763.26 1.15.393 1.937.663z"/><path fill="#8CC35A" d="M44.768 11.406c-.674.256-1.018.387-1.717.656-.786-.27-1.174-.403-1.937-.663.703-.262 1.05-.39 1.73-.641l1.924.648z"/><path fill="#62A945" d="M46.422 10.783c-.649.243-.98.368-1.654.624l-1.925-.648c.68-.25 1.013-.372 1.668-.61l1.911.634z"/><path fill="#569843" d="M48.012 10.187c-.623.23-.94.349-1.59.592l-1.91-.634c.654-.238.975-.354 1.605-.58l1.895.622z"/><path fill="#79AE47" d="M49.535 9.63c-.596.217-.9.33-1.524.56l-1.895-.622c.63-.225.938-.335 1.54-.548l1.879.61zM22.461 22.294c-.938.416-1.412.628-2.369 1.056l-1.887-1.092c.941-.407 1.407-.608 2.331-1.005l1.925 1.041z"/><path fill="#62A945" d="M24.781 21.272c-.919.404-1.383.608-2.321 1.024a1458.1 1458.1 0 0 0-1.925-1.04 616.61 616.61 0 0 1 2.29-.978l1.956.994zm2.272-.997c-.898.392-1.353.59-2.271.994l-1.955-.993a620.22 620.22 0 0 1 2.246-.95c.776.37 1.172.56 1.98.949zm2.22-.966c-.878.38-1.322.572-2.22.964l-1.981-.95c.89-.375 1.33-.56 2.202-.923.784.356 1.184.537 1.999.909z"/><path fill="#529A5E" d="M31.442 18.379c-.857.366-1.29.552-2.168.932-.815-.373-1.215-.554-2-.91.871-.363 1.302-.542 2.154-.895.791.341 1.194.516 2.014.873z"/><path fill="#569843" d="M33.557 17.481c-.835.354-1.258.534-2.115.9-.82-.356-1.223-.531-2.014-.872.853-.352 1.274-.526 2.106-.866.795.328 1.2.495 2.023.838z"/><path fill="#62A945" d="M35.617 16.61c-.813.341-1.225.515-2.06.869-.824-.343-1.228-.51-2.023-.839.833-.34 1.244-.508 2.056-.837.797.315 1.202.477 2.027.807z"/><path fill="#62A945" d="M37.621 15.773c-.79.328-1.191.496-2.004.837-.825-.33-1.23-.491-2.027-.807.812-.33 1.213-.49 2.004-.809.798.305 1.202.46 2.027.779z"/><path fill="#79AE47" d="M39.567 14.969c-.767.315-1.156.476-1.946.804-.825-.318-1.23-.474-2.027-.778.79-.318 1.18-.474 1.949-.78.796.295 1.201.446 2.024.754z"/><path fill="#8CC35A" d="M41.454 14.198c-.743.302-1.12.457-1.888.773-.822-.308-1.227-.459-2.024-.754.77-.305 1.148-.455 1.895-.748.794.286 1.197.431 2.017.729z"/><path fill="#569843" d="m43.281 13.458-1.827.74c-.82-.297-1.223-.444-2.017-.73a407.77 407.77 0 0 1 1.836-.717c.791.277 1.192.419 2.008.707z"/><path fill="#79AE47" d="M45.047 12.751c-.694.276-1.047.417-1.765.706-.815-.289-1.217-.43-2.008-.707.723-.282 1.078-.42 1.777-.688.787.27 1.186.409 1.996.689z"/><path fill="#79AE47" d="M46.749 12.076c-.668.263-1.009.398-1.702.674l-1.996-.689c.7-.268 1.043-.4 1.717-.656l1.981.671z"/><path fill="#8CC35A" d="M48.387 11.435c-.642.25-.97.377-1.638.64l-1.98-.67c.674-.257 1.005-.382 1.654-.625l1.964.655z"/><path fill="#62A945" d="M49.959 10.831c-.616.236-.93.357-1.572.606l-1.965-.655c.65-.243.967-.361 1.59-.591l1.947.64z"/><path fill="#62A945" d="M51.464 10.258c-.588.222-.89.337-1.505.573-.79-.26-1.179-.389-1.947-.64.623-.231.928-.343 1.524-.56l1.928.627z"/><path fill="#79AE47" d="M24.471 23.383c-.95.437-1.431.658-2.404 1.108l-1.975-1.143c.957-.428 1.43-.64 2.368-1.056l2.011 1.091z"/><path fill="#62A945" d="M26.82 22.309c-.929.423-1.399.638-2.35 1.074l-2.01-1.09c.938-.416 1.402-.62 2.321-1.025l2.039 1.041z"/><path fill="#569843" d="M29.114 21.268c-.906.41-1.365.617-2.294 1.04a980.93 980.93 0 0 0-2.039-1.04c.919-.404 1.373-.603 2.272-.995l2.061.995z"/><path fill="#62A945" d="M31.352 20.267c-.884.396-1.331.597-2.238 1.006l-2.061-.995a600.23 600.23 0 0 1 2.22-.964c.816.373 1.232.563 2.079.953z"/><path fill="#79AE47" d="M33.532 19.294c-.86.382-1.296.576-2.18.971-.847-.39-1.262-.58-2.078-.953a568.43 568.43 0 0 1 2.168-.931c.82.357 1.238.54 2.09.913z"/><path fill="#8CC35A" d="M35.653 18.357a510.3 510.3 0 0 0-2.121.937 702.2 702.2 0 0 0-2.09-.913c.857-.367 1.28-.547 2.115-.901.823.343 1.243.519 2.096.877z"/><path fill="#62A945" d="M37.715 17.456c-.813.354-1.225.534-2.062.902a618.41 618.41 0 0 0-2.096-.877c.835-.354 1.247-.527 2.06-.869.825.33 1.244.5 2.098.844z"/><path fill="#79AE47" d="M39.717 16.587c-.789.34-1.19.513-2.002.868-.854-.345-1.274-.514-2.099-.844a502.01 502.01 0 0 1 2.004-.837c.825.318 1.245.481 2.097.813z"/><path fill="#569843" d="M41.658 15.754c-.764.326-1.152.493-1.94.833-.853-.332-1.272-.495-2.097-.813.79-.328 1.18-.489 1.946-.804.823.307 1.242.464 2.091.784z"/><path fill="#62A945" d="M43.536 14.955c-.739.313-1.114.472-1.878.798-.85-.32-1.268-.477-2.091-.784.767-.315 1.144-.47 1.887-.773l2.082.759zm1.815-.766c-.713.298-1.076.451-1.815.763a734.88 734.88 0 0 0-2.081-.758c.743-.303 1.108-.451 1.827-.74.815.288 1.229.435 2.069.735z"/><path fill="#569843" d="M47.101 13.463c-.687.284-1.037.43-1.75.728-.84-.3-1.254-.446-2.07-.735.719-.29 1.072-.43 1.766-.706.81.28 1.22.422 2.054.713z"/><path fill="#79AE47" d="M48.787 12.77c-.661.27-.999.41-1.687.694-.833-.29-1.244-.433-2.054-.713a375.2 375.2 0 0 1 1.702-.674c.805.272 1.213.411 2.039.693z"/><path fill="#62A945" d="M50.406 12.112c-.634.256-.958.388-1.62.658l-2.038-.694 1.638-.64 2.02.676z"/><path fill="#8CC35A" d="M51.958 11.485c-.607.242-.917.367-1.552.623-.818-.274-1.223-.41-2.02-.675.643-.25.957-.37 1.573-.607l1.999.659z"/><path fill="#62A945" d="M53.442 10.898c-.58.228-.877.346-1.484.588l-1.999-.659c.616-.235.917-.35 1.505-.572l1.978.643zM26.57 24.523c-.962.458-1.45.691-2.436 1.164l-2.067-1.197c.972-.45 1.453-.671 2.403-1.108l2.1 1.141z"/><path fill="#62A945" d="M28.946 23.402c-.938.443-1.413.668-2.375 1.126l-2.1-1.141c.951-.437 1.421-.651 2.35-1.074.832.425 1.257.643 2.125 1.089z"/><path fill="#8CC35A" d="M31.258 22.31c-.913.428-1.375.645-2.313 1.088l-2.125-1.09c.928-.422 1.387-.63 2.293-1.04l2.145 1.042z"/><path fill="#62A945" d="M33.51 21.261c-.888.413-1.338.623-2.251 1.051l-2.145-1.041c.906-.41 1.354-.61 2.237-1.006.848.39 1.279.589 2.159.996z"/><path fill="#79AE47" d="m35.699 20.249-2.189 1.012-2.158-.996c.883-.395 1.32-.589 2.18-.97.85.373 1.284.564 2.167.954z"/><path fill="#8CC35A" d="M37.824 19.272c-.837.383-1.262.578-2.125.976l-2.168-.955c.86-.382 1.285-.569 2.121-.937.854.359 1.288.541 2.172.916z"/><path fill="#62A945" d="M39.886 18.332c-.812.368-1.224.555-2.062.938a637 637 0 0 0-2.171-.916c.837-.368 1.249-.548 2.062-.902.853.344 1.288.52 2.171.88z"/><path fill="#79AE47" d="M41.884 17.434c-.786.353-1.185.533-1.997.9-.883-.359-1.318-.535-2.171-.88.813-.353 1.213-.527 2.002-.867.852.332 1.285.501 2.166.847z"/><path fill="#79AE47" d="M43.815 16.57c-.76.338-1.146.51-1.931.864-.881-.346-1.314-.515-2.167-.847.789-.34 1.177-.507 1.941-.833.85.32 1.28.483 2.157.816z"/><path fill="#8CC35A" d="M45.682 15.743c-.733.323-1.107.488-1.867.827a707.4 707.4 0 0 0-2.157-.817c.764-.326 1.14-.486 1.878-.798.846.31 1.275.467 2.146.788z"/><path fill="#62A945" d="M47.482 14.953c-.707.308-1.067.467-1.8.79a803 803 0 0 0-2.146-.789c.74-.312 1.102-.465 1.815-.763.84.3 1.267.451 2.131.762z"/><path fill="#62A945" d="M49.214 14.201c-.68.294-1.026.444-1.733.752a799.53 799.53 0 0 0-2.13-.761 404.73 404.73 0 0 1 1.75-.729l2.113.738z"/><path fill="#62A945" d="M50.88 13.486c-.653.279-.986.422-1.665.716l-2.115-.738c.688-.285 1.026-.423 1.687-.694l2.093.716z"/><path fill="#62A945" d="M52.478 12.807c-.625.264-.945.4-1.598.68l-2.093-.717c.661-.27.985-.401 1.62-.658l2.071.695z"/><path fill="#79AE47" d="M54.008 12.166c-.598.25-.904.378-1.53.642l-2.07-.695c.633-.256.944-.38 1.551-.623l2.049.676z"/><path fill="#569843" d="M55.467 11.56c-.57.235-.862.356-1.46.606l-2.049-.676c.607-.242.904-.36 1.484-.588l2.025.658z"/><path fill="#62A945" d="M28.764 25.718c-.973.48-1.465.725-2.465 1.223l-2.164-1.254c.986-.473 1.473-.706 2.435-1.164l2.194 1.195z"/><path fill="#569843" d="M31.161 24.538c-.946.464-1.426.7-2.398 1.18l-2.194-1.195a710.08 710.08 0 0 1 2.376-1.126l2.216 1.141z"/><path fill="#569843" d="M33.491 23.403c-.918.447-1.384.675-2.33 1.14-.905-.468-1.348-.696-2.216-1.142.938-.443 1.4-.66 2.313-1.088.876.426 1.322.644 2.233 1.09z"/><path fill="#62A945" d="M35.754 22.306c-.892.431-1.344.65-2.262 1.099-.911-.446-1.357-.664-2.233-1.09.913-.428 1.363-.639 2.251-1.051.88.407 1.33.616 2.244 1.042zm2.194-1.061c-.864.415-1.303.627-2.194 1.058-.915-.427-1.363-.635-2.244-1.043a480.75 480.75 0 0 1 2.189-1.012c.883.39 1.333.589 2.249.997z"/><path fill="#62A945" d="m40.074 20.231-2.126 1.016-2.249-.997c.863-.398 1.288-.593 2.125-.975.884.374 1.334.565 2.25.956z"/><path fill="#62A945" d="M42.132 19.253c-.81.383-1.221.578-2.058.977-.916-.391-1.365-.582-2.25-.957.838-.383 1.25-.57 2.063-.938.883.36 1.331.543 2.245.918z"/><path fill="#62A945" d="m44.121 18.318-1.99.936c-.913-.375-1.362-.558-2.245-.918.812-.367 1.211-.547 1.997-.9.88.345 1.328.522 2.238.882z"/><path fill="#79AE47" d="M46.042 17.421c-.754.35-1.138.53-1.92.897-.91-.36-1.357-.536-2.238-.882a522.61 522.61 0 0 1 1.932-.864 746.5 746.5 0 0 1 2.226.849z"/><path fill="#8CC35A" d="M47.893 16.562c-.727.335-1.097.506-1.851.857a871.27 871.27 0 0 0-2.227-.849c.76-.338 1.134-.503 1.867-.826.871.321 1.313.485 2.211.818z"/><path fill="#569843" d="M49.673 15.74a507.6 507.6 0 0 0-1.782.818 861.76 861.76 0 0 0-2.21-.818 449.26 449.26 0 0 1 1.8-.79c.864.31 1.302.468 2.192.79z"/><path fill="#529A5E" d="M51.387 14.964c-.671.304-1.014.46-1.712.779-.89-.321-1.328-.48-2.193-.79.707-.308 1.053-.459 1.733-.752l2.172.763z"/><path fill="#79AE47" d="m53.03 14.222-1.643.74a996.6 996.6 0 0 0-2.172-.762c.68-.294 1.013-.437 1.665-.716l2.15.738z"/><path fill="#62A945" d="M54.602 13.521c-.615.273-.93.413-1.573.702l-2.15-.738c.653-.279.973-.415 1.598-.68l2.125.716z"/><path fill="#62A945" d="M56.106 12.857c-.587.258-.888.39-1.503.664l-2.125-.715c.625-.264.931-.393 1.53-.642l2.098.693z"/><path fill="#62A945" d="M57.539 12.232c-.559.243-.845.369-1.433.627l-2.098-.694c.598-.25.89-.37 1.46-.605l2.071.672z"/><path fill="#79AE47" d="M31.055 26.975c-.981.504-1.48.76-2.49 1.283l-2.266-1.312c1-.498 1.492-.742 2.465-1.223l2.291 1.252z"/><path fill="#62A945" d="M33.472 25.732c-.952.486-1.436.734-2.417 1.238l-2.291-1.252c.972-.48 1.452-.716 2.398-1.18l2.31 1.194z"/><path fill="#62A945" d="M35.815 24.542c-.922.468-1.39.707-2.343 1.193-.943-.489-1.405-.727-2.31-1.194a761.43 761.43 0 0 1 2.33-1.14l2.323 1.141z"/><path fill="#62A945" d="M38.085 23.393c-.893.45-1.347.68-2.27 1.149-.948-.467-1.412-.695-2.323-1.14.918-.448 1.37-.668 2.262-1.1.915.427 1.38.645 2.331 1.091z"/><path fill="#569843" d="M40.281 22.291c-.864.433-1.303.654-2.196 1.105a770.78 770.78 0 0 0-2.33-1.09c.89-.431 1.33-.643 2.194-1.058.916.408 1.382.617 2.332 1.043z"/><path fill="#79AE47" d="m42.404 21.227-2.124 1.06c-.95-.426-1.416-.634-2.332-1.042.864-.415 1.289-.618 2.126-1.017.915.391 1.382.59 2.33.999z"/><path fill="#8CC35A" d="m44.455 20.211-2.05 1.018c-.948-.408-1.415-.607-2.33-.998.836-.399 1.248-.595 2.057-.977.914.375 1.378.566 2.323.957z"/><path fill="#62A945" d="M46.432 19.234c-.776.382-1.172.576-1.978.975-.945-.391-1.409-.582-2.322-.957.81-.383 1.207-.57 1.99-.937.909.36 1.37.544 2.31.919zm1.905-.935-1.905.933a761.72 761.72 0 0 0-2.31-.919c.781-.366 1.165-.546 1.92-.897.904.347 1.363.523 2.295.883z"/><path fill="#62A945" d="M50.17 17.41c-.719.348-1.085.526-1.833.891a790.91 790.91 0 0 0-2.296-.882c.755-.351 1.125-.522 1.852-.858.898.334 1.353.503 2.277.849z"/><path fill="#62A945" d="M51.931 16.561c-.69.332-1.042.502-1.76.85-.925-.346-1.38-.516-2.278-.85.727-.334 1.083-.498 1.782-.817.89.321 1.341.485 2.256.817z"/><path fill="#62A945" d="M53.618 15.753c-.66.315-.999.476-1.688.808-.915-.332-1.366-.496-2.256-.817.699-.32 1.041-.475 1.712-.779l2.232.788zm1.618-.771c-.632.3-.956.453-1.617.769-.905-.32-1.35-.478-2.232-.788.672-.304 1-.452 1.644-.741l2.205.76z"/><path fill="#569843" d="M56.78 14.257c-.604.283-.912.43-1.545.729-.893-.309-1.334-.46-2.205-.76.643-.289.958-.429 1.573-.702l2.177.733z"/><path fill="#62A945" d="m58.254 13.565-1.474.688-2.177-.733c.615-.273.916-.406 1.503-.664l2.148.709zm1.402-.651c-.547.252-.827.382-1.402.65l-2.148-.71c.587-.257.874-.383 1.433-.626.838.272 1.261.41 2.117.686z"/><path fill="#79AE47" d="M33.448 28.283c-.989.53-1.491.798-2.512 1.347l-2.37-1.374c1.01-.522 1.508-.779 2.49-1.283l2.392 1.31z"/><path fill="#62A945" d="M35.88 26.983c-.957.51-1.444.769-2.432 1.298l-2.393-1.31c.982-.504 1.465-.752 2.417-1.238l2.408 1.25z"/><path fill="#8CC35A" d="M38.232 25.734c-.925.49-1.395.74-2.352 1.25l-2.408-1.25c.952-.486 1.42-.725 2.343-1.193.948.466 1.43.705 2.417 1.193z"/><path fill="#62A945" d="M40.505 24.531c-.893.471-1.348.712-2.273 1.202-.986-.488-1.47-.726-2.417-1.193.923-.468 1.377-.698 2.27-1.148.95.446 1.433.673 2.42 1.139z"/><path fill="#79AE47" d="M42.7 23.378c-.862.453-1.3.683-2.194 1.155a915.09 915.09 0 0 0-2.42-1.14c.893-.45 1.331-.671 2.195-1.104.95.426 1.434.644 2.419 1.089z"/><path fill="#79AE47" d="m44.816 22.27-2.117 1.108c-.985-.445-1.469-.663-2.419-1.089.864-.433 1.29-.645 2.124-1.06.948.407 1.43.616 2.412 1.041z"/><path fill="#8CC35A" d="m46.855 21.208-2.04 1.062c-.98-.426-1.463-.634-2.411-1.041.834-.416 1.244-.62 2.05-1.019.945.391 1.425.591 2.401.998z"/><path fill="#62A945" d="M48.818 20.19c-.77.398-1.162.602-1.962 1.018-.977-.408-1.457-.607-2.401-.998.805-.399 1.201-.593 1.978-.975.938.375 1.415.565 2.385.955z"/><path fill="#62A945" d="M50.703 19.217c-.74.38-1.116.574-1.886.972-.97-.39-1.446-.58-2.386-.955.777-.382 1.158-.569 1.905-.934.933.36 1.406.544 2.367.917z"/><path fill="#79AE47" d="m52.514 18.29-1.811.928c-.96-.373-1.434-.557-2.367-.916l1.833-.892c.925.346 1.394.522 2.345.88z"/><path fill="#62A945" d="M54.249 17.407c-.68.345-1.026.522-1.735.885l-2.344-.88c.718-.348 1.07-.518 1.76-.85.915.332 1.379.502 2.319.845z"/><path fill="#79AE47" d="M55.909 16.566c-.65.328-.981.496-1.66.841l-2.319-.845c.69-.332 1.027-.493 1.688-.808.905.32 1.363.482 2.291.812z"/><path fill="#8CC35A" d="M57.496 15.767c-.62.311-.937.471-1.587.8l-2.29-.813c.66-.315.984-.47 1.617-.768l2.26.781z"/><path fill="#569843" d="m59.01 15.009-1.514.758-2.26-.781c.632-.3.94-.446 1.545-.73l2.229.753z"/><path fill="#79AE47" d="M60.449 14.288c-.562.279-.85.422-1.44.717l-2.23-.752c.604-.284.9-.421 1.474-.689l2.196.724z"/><path fill="#8CC35A" d="M61.817 13.614c-.533.262-.806.397-1.368.676l-2.195-.724c.575-.268.855-.398 1.402-.65l2.161.698z"/><path fill="#62A945" d="m35.948 29.655-2.53 1.415-2.481-1.439c1.02-.548 1.523-.818 2.512-1.347l2.499 1.371z"/><path fill="#79AE47" d="M38.39 28.291c-.96.534-1.448.807-2.443 1.362l-2.5-1.371c.99-.53 1.476-.789 2.433-1.298.983.511 1.485.772 2.51 1.307z"/><path fill="#79AE47" d="M40.747 26.982a1679 1679 0 0 0-2.357 1.31l-2.51-1.308c.957-.51 1.427-.76 2.352-1.25.986.488 1.49.738 2.515 1.248z"/><path fill="#8CC35A" d="m43.02 25.723-2.273 1.26c-1.026-.51-1.528-.76-2.515-1.248l2.273-1.202c.987.466 1.49.703 2.515 1.19z"/><path fill="#62A945" d="M45.208 24.514c-.859.473-1.296.715-2.188 1.208l-2.515-1.19a972.87 972.87 0 0 1 2.194-1.155c.986.445 1.487.672 2.509 1.137z"/><path fill="#529A5E" d="M47.314 23.355c-.826.454-1.247.685-2.106 1.159a926.77 926.77 0 0 0-2.509-1.137l2.117-1.108c.982.425 1.482.643 2.498 1.086z"/><path fill="#62A945" d="m49.338 22.245-2.024 1.11a871.961 871.961 0 0 0-2.498-1.086c.831-.434 1.24-.646 2.04-1.062.976.407 1.473.614 2.482 1.038z"/><path fill="#569843" d="M51.281 21.182c-.76.415-1.15.627-1.943 1.062-1.01-.424-1.506-.631-2.483-1.038.8-.416 1.193-.62 1.963-1.018.97.39 1.462.589 2.463.994z"/><path fill="#79AE47" d="m53.143 20.17-1.862 1.015c-1-.405-1.494-.604-2.463-.994.769-.398 1.146-.592 1.885-.972.962.373 1.45.564 2.44.951z"/><path fill="#62A945" d="M54.927 19.201c-.698.378-1.055.571-1.784.968-.99-.387-1.479-.577-2.44-.951l1.811-.928c.951.358 1.434.54 2.413.911z"/><path fill="#62A945" d="m56.633 18.278-1.705.923-2.413-.911c.709-.363 1.055-.54 1.735-.885.94.344 1.417.518 2.383.873z"/><path fill="#569843" d="m58.26 17.399-1.628.877c-.967-.355-1.443-.53-2.384-.873l1.66-.841c.93.33 1.4.497 2.352.837z"/><path fill="#79AE47" d="m59.813 16.567-1.553.834c-.952-.34-1.422-.507-2.351-.837l1.586-.8 2.318.803z"/><path fill="#8CC35A" d="m61.29 15.776-1.477.79-2.318-.802c.62-.312.923-.463 1.514-.758l2.281.77z"/><path fill="#569843" d="m62.692 15.032-1.402.747-2.281-.77c.59-.295.878-.438 1.44-.717l2.243.74z"/><path fill="#62A945" d="m64.021 14.324-1.33.706-2.242-.74c.561-.278.835-.413 1.368-.675l2.204.709z"/><path fill="#569843" d="m38.555 31.09-2.542 1.486-2.595-1.505c1.029-.577 1.535-.86 2.53-1.415l2.607 1.434z"/><path fill="#79AE47" d="m41.005 29.656-2.45 1.43-2.607-1.435 2.443-1.362 2.614 1.367z"/><path fill="#79AE47" d="m43.363 28.287-2.358 1.374c-1.067-.56-1.59-.833-2.614-1.367.96-.535 1.431-.796 2.357-1.31 1.026.51 1.548.77 2.615 1.303z"/><path fill="#8CC35A" d="m45.629 26.966-2.268 1.32c-1.066-.533-1.589-.793-2.615-1.303l2.273-1.26c1.025.487 1.546.735 2.61 1.243z"/><path fill="#569843" d="M47.808 25.7c-.854.496-1.29.748-2.178 1.265a1271.45 1271.45 0 0 0-2.61-1.243l2.188-1.208c1.022.465 1.542.702 2.6 1.186z"/><path fill="#62A945" d="m49.898 24.489-2.09 1.213c-1.059-.484-1.578-.722-2.6-1.186l2.107-1.159c1.015.444 1.532.67 2.583 1.132z"/><path fill="#79AE47" d="m51.902 23.329-2.004 1.16a952.916 952.916 0 0 0-2.584-1.13 702.3 702.3 0 0 1 2.024-1.111c1.01.424 1.522.64 2.564 1.081z"/><path fill="#62A945" d="m53.821 22.215-1.92 1.11c-1.042-.44-1.554-.656-2.563-1.08l1.943-1.062c1 .405 1.508.611 2.54 1.032z"/><path fill="#79AE47" d="m55.656 21.156-1.835 1.06c-1.032-.42-1.54-.627-2.54-1.032a1159.3 1159.3 0 0 1 1.863-1.014c.99.387 1.492.585 2.512.986zm1.752-1.015-1.753 1.012c-1.02-.401-1.522-.599-2.512-.986.729-.397 1.086-.59 1.784-.968.979.37 1.475.559 2.481.942z"/><path fill="#8CC35A" d="m59.08 19.176-1.671.964a744.88 744.88 0 0 0-2.482-.942c.698-.379 1.039-.563 1.706-.923l2.447.901z"/><path fill="#62A945" d="M60.671 18.261c-.621.358-.939.54-1.591.917-.993-.366-1.482-.547-2.448-.901l1.628-.877c.953.34 1.435.511 2.411.861z"/><path fill="#62A945" d="m62.185 17.392-1.513.871c-.977-.35-1.459-.521-2.411-.861.636-.342.947-.51 1.553-.834l2.371.824z"/><path fill="#62A945" d="m63.622 16.567-1.437.826-2.371-.824 1.477-.79 2.331.788z"/><path fill="#569843" d="m64.982 15.783-1.36.782-2.332-.788c.576-.307.856-.457 1.403-.747l2.289.753z"/><path fill="#79AE47" d="m66.268 15.043-1.286.74-2.29-.754 1.33-.706 2.246.72z"/></svg>