<svg xmlns="http://www.w3.org/2000/svg" fill="none" viewBox="0 0 120 30"><g fill="#000" clip-path="url(#a)"><path d="M18.602 5.474h2.926l-4.254 12.858h-3.357l-3.18-9.703-3.179 9.703H4.254L0 5.474h2.994l3.019 9.771L9.18 5.474h3.18l3.22 9.824 3.022-9.824ZM34.076 12.935h-9.49c.088.663.336 1.295.725 1.84.343.476.81.852 1.348 1.086a4.273 4.273 0 0 0 1.739.35 5.607 5.607 0 0 0 1.94-.354 6.311 6.311 0 0 0 1.778-1.002l1.397 2.012a7.082 7.082 0 0 1-2.44 1.389 9.22 9.22 0 0 1-2.849.423 6.814 6.814 0 0 1-3.409-.838 5.937 5.937 0 0 1-2.33-2.374 7.298 7.298 0 0 1-.837-3.55 7.465 7.465 0 0 1 .805-3.526 5.932 5.932 0 0 1 2.262-2.386 6.411 6.411 0 0 1 3.328-.853 5.727 5.727 0 0 1 5.309 3.22c.532 1.094.796 2.3.773 3.517.004.27-.013.62-.049 1.046Zm-2.817-2.133a3.976 3.976 0 0 0-1.075-2.35 2.99 2.99 0 0 0-2.189-.805 3.147 3.147 0 0 0-2.302.853 4.086 4.086 0 0 0-1.107 2.314l6.673-.012ZM46.082 6.013a6.262 6.262 0 0 1 2.322 2.415 7.075 7.075 0 0 1 .854 3.477 7.06 7.06 0 0 1-.854 3.473 6.246 6.246 0 0 1-5.578 3.288 5.256 5.256 0 0 1-2.322-.486 4.79 4.79 0 0 1-1.702-1.377v1.53h-2.818V0h2.818v7.003a4.83 4.83 0 0 1 1.702-1.368 5.2 5.2 0 0 1 2.322-.491 6.246 6.246 0 0 1 3.256.869Zm-1.537 9.462a3.622 3.622 0 0 0 1.356-1.493 4.83 4.83 0 0 0 0-4.158 3.65 3.65 0 0 0-1.356-1.493 4.101 4.101 0 0 0-4.073 0 3.67 3.67 0 0 0-1.369 1.477 4.451 4.451 0 0 0-.49 2.11 4.426 4.426 0 0 0 .49 2.104 3.67 3.67 0 0 0 1.369 1.477 4.102 4.102 0 0 0 4.073 0v-.024ZM63.16 12.935h-9.486c.088.663.336 1.295.724 1.84.344.476.81.851 1.349 1.086a4.275 4.275 0 0 0 1.738.35 5.634 5.634 0 0 0 1.94-.354 6.309 6.309 0 0 0 1.78-1.002l1.392 2.012a7.022 7.022 0 0 1-2.435 1.389 9.251 9.251 0 0 1-2.854.422 6.842 6.842 0 0 1-3.409-.837 5.952 5.952 0 0 1-2.326-2.374 7.3 7.3 0 0 1-.841-3.55 7.47 7.47 0 0 1 .805-3.526 5.932 5.932 0 0 1 2.262-2.386 6.411 6.411 0 0 1 3.352-.865 5.74 5.74 0 0 1 5.309 3.22c.532 1.094.797 2.3.773 3.517-.016.281-.045.632-.073 1.058Zm-2.817-2.133a4 4 0 0 0-1.079-2.334 2.999 2.999 0 0 0-2.181-.821 3.14 3.14 0 0 0-2.302.853 4.06 4.06 0 0 0-1.107 2.314l6.669-.012ZM76.541 18.332h-3.449l-3.26-4.471-3.22 4.471h-3.288l4.83-6.564L63.4 5.474h3.453l3.14 4.294 3.138-4.294h3.337l-4.773 6.27 4.845 6.588ZM49.822 28.89h-.45v-4.098h.534v1.55a1.13 1.13 0 0 1 .99-.495 1.171 1.171 0 0 1 1.023.454c.222.318.333.7.314 1.087a1.665 1.665 0 0 1-.427 1.207 1.239 1.239 0 0 1-.918.359 1.095 1.095 0 0 1-.982-.455l-.084.39Zm1.819-1.522a1.144 1.144 0 0 0-.278-.837.805.805 0 0 0-.58-.226.805.805 0 0 0-.66.302c-.158.22-.235.49-.217.76-.022.316.078.627.278.87a.806.806 0 0 0 .616.266.745.745 0 0 0 .648-.314c.149-.247.216-.534.193-.821ZM55.138 25.931l-1.03 2.998c-.087.29-.223.563-.403.805a.722.722 0 0 1-.576.258 1.388 1.388 0 0 1-.35-.052v-.443a1.1 1.1 0 0 0 .282.04.318.318 0 0 0 .273-.125c.105-.165.188-.344.246-.53h-.177L52.32 25.93h.592l.837 2.515.837-2.515h.552ZM62.784 24.8H61.75v4.105h1.034V24.8ZM71.12 25.975a1.75 1.75 0 0 0-.869-.221 1.098 1.098 0 1 0 0 2.193c.304.002.602-.073.87-.217v1.103a3.321 3.321 0 0 1-.946.145 2.128 2.128 0 1 1 0-4.254c.32.001.64.051.946.148v1.103ZM60.306 25.975a1.77 1.77 0 0 0-.873-.221 1.098 1.098 0 1 0 0 2.193c.304.002.605-.073.873-.217v1.103a3.321 3.321 0 0 1-.946.145 2.129 2.129 0 1 1 0-4.254c.321.001.64.051.946.148v1.103ZM74.38 25.758a1.082 1.082 0 1 0 1.07 1.079 1.058 1.058 0 0 0-1.07-1.079Zm2.17 1.079a2.169 2.169 0 1 1-2.17-2.125 2.107 2.107 0 0 1 2.17 2.125ZM66.694 25.73a3.566 3.566 0 0 0-.805-.125c-.403 0-.64.14-.64.338 0 .197.306.338.475.403l.286.092a1.232 1.232 0 0 1 .978 1.171c0 1.035-.906 1.38-1.699 1.38a6.073 6.073 0 0 1-1.119-.112v-.958c.318.093.647.145.978.153.515 0 .753-.149.753-.402 0-.254-.205-.33-.463-.403l-.221-.068c-.576-.185-1.059-.523-1.059-1.208 0-.768.576-1.284 1.534-1.284.339.005.677.05 1.006.133l-.004.89Z"/></g><defs><clipPath id="a"><path fill="#fff" d="M0 0h76.549v30H0z"/></clipPath></defs></svg>