<svg xmlns="http://www.w3.org/2000/svg" width="74" height="62.393" viewBox="0 0 74 62.393">
  <g id="Group_3004" data-name="Group 3004" transform="translate(-1721.564 -3107.392)">
    <path id="Path_6041" data-name="Path 6041" d="M2096.152,269.785h55.419a5.548,5.548,0,0,0,5.548-5.548V214.824a3.431,3.431,0,0,0-3.431-3.432h-59.652a3.431,3.431,0,0,0-3.431,3.432v49.413A5.548,5.548,0,0,0,2096.152,269.785Z" transform="translate(-363.555 2898)" fill="none" stroke="#fff" stroke-width="4"/>
    <path id="Path_6042" data-name="Path 6042" d="M2154.231,211.392h-60.74a2.888,2.888,0,0,0-2.887,2.888v19.915h6.4v.82a5.574,5.574,0,0,0,5.574,5.574h42.571a5.574,5.574,0,0,0,5.574-5.574v-.82h6.4V214.28A2.888,2.888,0,0,0,2154.231,211.392Z" transform="translate(-363.555 2898)" fill="none" stroke="#fff" stroke-width="4"/>
    <path id="Path_6043" data-name="Path 6043" d="M2079.049,241.846h-2.668a.817.817,0,0,1-.817-.818V226.9a.817.817,0,0,1,.817-.817h2.668Z" transform="translate(-352 2886.714)" fill="none" stroke="#fff" stroke-width="4"/>
    <path id="Path_6044" data-name="Path 6044" d="M2115.5,373.422h0a.4.4,0,0,1-.4-.4V359.183a.4.4,0,0,1,.8,0v13.841A.4.4,0,0,1,2115.5,373.422Z" transform="translate(-382.372 2784.761)" fill="none" stroke="#fff" stroke-width="4"/>
    <path id="Path_6045" data-name="Path 6045" d="M2339.246,376.723h0a.4.4,0,0,1-.4-.4V363.48a.4.4,0,1,1,.8,0v12.845A.4.4,0,0,1,2339.246,376.723Z" transform="translate(-554.276 2781.459)" fill="none" stroke="#fff" stroke-width="4"/>
    <rect id="Rectangle_1323" data-name="Rectangle 1323" width="14.637" height="14.637" transform="translate(1773.167 3143.546)" fill="none" stroke="#fff" stroke-width="4"/>
  </g>
</svg>
