<svg xmlns="http://www.w3.org/2000/svg" width="250" height="28.761" viewBox="0 0 250 28.761">
  <g id="Club_Sil" data-name="Club Sil" transform="translate(-1177.5 -1106.397)">
    <g id="Group_2941" data-name="Group 2941" transform="translate(1177.5 1100.109)">
      <g id="Group_1396" data-name="Group 1396" transform="translate(35.583 9.935)">
        <path id="Path_3334" data-name="Path 3334" d="M442.774,120.571A11.466,11.466,0,0,0,438.8,118.8a8.4,8.4,0,0,1-2.873-1.2,2.086,2.086,0,0,1-.8-1.724,2.351,2.351,0,0,1,.837-1.805,3.925,3.925,0,0,1,2.676-.755,9.393,9.393,0,0,1,4.334,1.116l.262-1.478a11.44,11.44,0,0,0-2.084-.755,9.676,9.676,0,0,0-2.447-.3,6.9,6.9,0,0,0-2.085.3,4.874,4.874,0,0,0-1.609.837,3.689,3.689,0,0,0-1.034,1.3,3.754,3.754,0,0,0-.361,1.642,3.409,3.409,0,0,0,1.133,2.741,9.3,9.3,0,0,0,3.595,1.625,15.847,15.847,0,0,1,2.068.673,5.528,5.528,0,0,1,1.313.739,2.218,2.218,0,0,1,.69.87,2.781,2.781,0,0,1,.2,1.068,2.406,2.406,0,0,1-1.034,2.1,4.765,4.765,0,0,1-2.775.722,9.32,9.32,0,0,1-2.906-.443A12.89,12.89,0,0,1,433.449,125l-.3,1.51a12.773,12.773,0,0,0,2.478.969,10.826,10.826,0,0,0,3,.411,6.537,6.537,0,0,0,3.956-1.117,3.742,3.742,0,0,0,1.526-3.218A3.568,3.568,0,0,0,442.774,120.571Z" transform="translate(-433.154 -106.716)" fill="#1fc2de"/>
        <rect id="Rectangle_319" data-name="Rectangle 319" width="1.51" height="15.431" transform="translate(15.628 5.483)" fill="#1fc2de"/>
        <rect id="Rectangle_320" data-name="Rectangle 320" width="1.51" height="20.896" transform="translate(23.011 0.018)" fill="#1fc2de"/>
        <path id="Path_3335" data-name="Path 3335" d="M801.287,55.239a5.943,5.943,0,0,0-2.856.706,15.494,15.494,0,0,0-2.725,1.921L795.7,50.1h-1.543l.008,20.9h1.543V59.441a13.516,13.516,0,0,1,2.807-2.084,5.539,5.539,0,0,1,2.61-.707,3.177,3.177,0,0,1,2.5.919,3.926,3.926,0,0,1,.821,2.692V71h1.543V60.065a5.109,5.109,0,0,0-1.149-3.562A4.564,4.564,0,0,0,801.287,55.239Z" transform="translate(-763.957 -50.084)" fill="#1fc2de"/>
        <path id="Path_3336" data-name="Path 3336" d="M997.844,113.611a6.238,6.238,0,0,0-2.167-1.56,6.692,6.692,0,0,0-2.692-.542,6.489,6.489,0,0,0-2.643.542,6.279,6.279,0,0,0-2.151,1.56,7.517,7.517,0,0,0-1.461,2.512,10.028,10.028,0,0,0-.542,3.431,10.21,10.21,0,0,0,.525,3.4,7.653,7.653,0,0,0,1.428,2.528,6,6,0,0,0,2.151,1.577,6.688,6.688,0,0,0,2.692.541,6.611,6.611,0,0,0,2.659-.541,6.161,6.161,0,0,0,2.167-1.577,7.712,7.712,0,0,0,1.461-2.528,9.93,9.93,0,0,0,.542-3.4,10.333,10.333,0,0,0-.525-3.431A7.312,7.312,0,0,0,997.844,113.611Zm.016,8.684a6.458,6.458,0,0,1-1,2.118,4.4,4.4,0,0,1-1.642,1.362,5.072,5.072,0,0,1-2.232.476,4.688,4.688,0,0,1-2.216-.509,4.747,4.747,0,0,1-1.625-1.4,6.435,6.435,0,0,1-1-2.117,9.906,9.906,0,0,1-.345-2.676,10.039,10.039,0,0,1,.345-2.709,6.435,6.435,0,0,1,1-2.117,4.6,4.6,0,0,1,1.625-1.379,5.192,5.192,0,0,1,4.449.017,4.706,4.706,0,0,1,1.642,1.4,6.439,6.439,0,0,1,1,2.117,9.891,9.891,0,0,1,.345,2.676A10.151,10.151,0,0,1,997.86,122.3Z" transform="translate(-939.929 -106.355)" fill="#1fc2de"/>
        <path id="Path_3337" data-name="Path 3337" d="M1209.99,127a13.506,13.506,0,0,1-2.807,2.085,5.545,5.545,0,0,1-2.611.706,3.175,3.175,0,0,1-2.495-.919,3.921,3.921,0,0,1-.821-2.693V115.44h-1.543v10.867a5.22,5.22,0,0,0,1.149,3.612,4.532,4.532,0,0,0,3.546,1.28,6.036,6.036,0,0,0,2.873-.706,14.351,14.351,0,0,0,2.741-1.953v2.331h1.51V115.44h-1.543Z" transform="translate(-1135.592 -109.957)" fill="#1fc2de"/>
        <path id="Path_3338" data-name="Path 3338" d="M1405.018,113.775a5.215,5.215,0,0,0-4.449-2.265,6.11,6.11,0,0,0-2.61.558,6.032,6.032,0,0,0-2.084,1.609,7.563,7.563,0,0,0-1.379,2.544,11.639,11.639,0,0,0,0,6.7,7.367,7.367,0,0,0,1.379,2.528,5.964,5.964,0,0,0,2.15,1.593,6.8,6.8,0,0,0,2.775.558,7.577,7.577,0,0,0,3.136-.656,9.507,9.507,0,0,0,2.512-1.61l-.23-1.444a10.161,10.161,0,0,1-2.545,1.708,6.538,6.538,0,0,1-2.807.657,5.1,5.1,0,0,1-2.281-.493,4.493,4.493,0,0,1-1.658-1.379,6.409,6.409,0,0,1-1-2.118,10.035,10.035,0,0,1-.344-2.708h10.9v-.329a11.956,11.956,0,0,0-.361-3A7.468,7.468,0,0,0,1405.018,113.775Zm-9.374,4.5a7.423,7.423,0,0,1,1.494-3.957,4.161,4.161,0,0,1,3.43-1.527,3.647,3.647,0,0,1,1.79.427,3.974,3.974,0,0,1,1.313,1.181,5.818,5.818,0,0,1,.838,1.74,8.206,8.206,0,0,1,.328,2.134Z" transform="translate(-1313.631 -106.355)" fill="#1fc2de"/>
        <path id="Path_3339" data-name="Path 3339" d="M1827.1,113.775a5.214,5.214,0,0,0-4.448-2.265,6.109,6.109,0,0,0-2.61.558,6.029,6.029,0,0,0-2.084,1.609,7.556,7.556,0,0,0-1.379,2.544,11.633,11.633,0,0,0,0,6.7,7.361,7.361,0,0,0,1.379,2.528,5.956,5.956,0,0,0,2.151,1.593,6.794,6.794,0,0,0,2.774.558,7.57,7.57,0,0,0,3.135-.656,9.5,9.5,0,0,0,2.512-1.61l-.23-1.444a10.184,10.184,0,0,1-2.544,1.708,6.54,6.54,0,0,1-2.807.657,5.1,5.1,0,0,1-2.282-.493,4.5,4.5,0,0,1-1.658-1.379,6.426,6.426,0,0,1-1-2.118,10.025,10.025,0,0,1-.344-2.708h10.9v-.329a11.979,11.979,0,0,0-.361-3A7.472,7.472,0,0,0,1827.1,113.775Zm-9.374,4.5a7.424,7.424,0,0,1,1.495-3.957,4.159,4.159,0,0,1,3.43-1.527,3.645,3.645,0,0,1,1.789.427,3.985,3.985,0,0,1,1.314,1.181,5.837,5.837,0,0,1,.837,1.74,8.226,8.226,0,0,1,.329,2.134Z" transform="translate(-1700.408 -106.355)" fill="#1fc2de"/>
        <path id="Path_3340" data-name="Path 3340" d="M616.164,50.1a1.155,1.155,0,0,0-.828.328,1.081,1.081,0,0,0-.343.813,1.14,1.14,0,0,0,.343.813,1.1,1.1,0,0,0,.828.357,1.06,1.06,0,0,0,.813-.357,1.169,1.169,0,0,0,.328-.813,1.121,1.121,0,0,0-1.141-1.142Z" transform="translate(-599.783 -50.084)" fill="#1fc2de"/>
        <path id="Path_3341" data-name="Path 3341" d="M1596.779,49.9l-1.543-.018V67.551a3.274,3.274,0,0,0,1,2.725,4.152,4.152,0,0,0,2.642.788,7.233,7.233,0,0,0,1.232-.1,3.856,3.856,0,0,0,.87-.23l-.229-1.248q-.263.066-.723.148a4.717,4.717,0,0,1-.82.082,2.7,2.7,0,0,1-1.855-.525,2.521,2.521,0,0,1-.575-1.9V56.683h4.2V55.37h-4.2Z" transform="translate(-1498.031 -49.887)" fill="#1fc2de"/>
        <path id="Path_3342" data-name="Path 3342" d="M1719.349,69.636a4.714,4.714,0,0,1-.82.082,2.7,2.7,0,0,1-1.855-.525,2.521,2.521,0,0,1-.575-1.9V56.683h4.2V55.37h-4.2V49.9l-1.543-.018V67.551a3.275,3.275,0,0,0,1,2.725,4.153,4.153,0,0,0,2.643.788,7.233,7.233,0,0,0,1.231-.1,3.856,3.856,0,0,0,.87-.23l-.229-1.248Q1719.809,69.554,1719.349,69.636Z" transform="translate(-1607.37 -49.887)" fill="#1fc2de"/>
      </g>
      <g id="Group_1397" data-name="Group 1397" transform="translate(0 6.288)">
        <path id="Path_3343" data-name="Path 3343" d="M55.322,6.288A14.354,14.354,0,0,0,43.97,11.846l.08-.059A11.581,11.581,0,0,1,50.753,10c.719,0,1.414.04,2.089.1a23.993,23.993,0,0,1,5.087,1.145c-.135.2-1.449,1.954-1.449,1.954a7.166,7.166,0,0,0-5.76-2.459,7.128,7.128,0,0,0-4.413,1.28,4.036,4.036,0,0,0-1.752,3.3,3.49,3.49,0,0,0,.135.993,3.219,3.219,0,0,0,1.92,2.072,22.055,22.055,0,0,0,4.851,1.179q.774.1,1.347.185t.977.151A8.669,8.669,0,0,1,58.2,21.691a4.382,4.382,0,0,1,1.448,3.4,6.456,6.456,0,0,1-2.729,5.289,10.931,10.931,0,0,1-3.166,1.549,13.246,13.246,0,0,1-3.907.539,24.273,24.273,0,0,1-3-.183,14.38,14.38,0,1,0,8.474-26Z" transform="translate(-40.941 -6.288)" fill="#1fc2de"/>
        <path id="Path_3344" data-name="Path 3344" d="M16.629,146.511a7.808,7.808,0,0,0,4.783-1.448,4.881,4.881,0,0,0,1.819-3.739,3.53,3.53,0,0,0-.573-2.088,4.3,4.3,0,0,0-1.684-1.347,12.733,12.733,0,0,0-3.3-.775q-1.179-.168-2.021-.269a10.162,10.162,0,0,1-1.348-.236,16.855,16.855,0,0,1-2.662-.842,7.008,7.008,0,0,1-1.886-1.145,4.335,4.335,0,0,1-1.128-1.583,4.949,4.949,0,0,1-.33-1.452,14.334,14.334,0,0,0,1.638,11.492,8.556,8.556,0,0,0,2.757,2.494,8.416,8.416,0,0,0,2.047.748A10.218,10.218,0,0,0,16.629,146.511Z" transform="translate(-7.759 -121.104)" fill="#1fc2de"/>
      </g>
      <g id="Group_1398" data-name="Group 1398" transform="translate(167.029 9.935)">
        <path id="Path_3345" data-name="Path 3345" d="M2014.228,120.379a11.5,11.5,0,0,0-3.982-1.777,8.418,8.418,0,0,1-2.88-1.2,2.092,2.092,0,0,1-.807-1.728,2.357,2.357,0,0,1,.839-1.81,3.937,3.937,0,0,1,2.682-.757,9.416,9.416,0,0,1,4.344,1.119l.264-1.481a11.47,11.47,0,0,0-2.09-.757,9.7,9.7,0,0,0-2.452-.3,6.917,6.917,0,0,0-2.09.3,4.888,4.888,0,0,0-1.613.839,3.7,3.7,0,0,0-1.037,1.3,3.761,3.761,0,0,0-.362,1.646,3.419,3.419,0,0,0,1.135,2.748,9.3,9.3,0,0,0,3.6,1.629,16.02,16.02,0,0,1,2.073.674,5.581,5.581,0,0,1,1.317.741,2.216,2.216,0,0,1,.691.872,2.777,2.777,0,0,1,.2,1.07,2.407,2.407,0,0,1-1.037,2.106,4.768,4.768,0,0,1-2.781.724,9.349,9.349,0,0,1-2.913-.445,12.867,12.867,0,0,1-2.452-1.07l-.3,1.514a12.876,12.876,0,0,0,2.485.971,10.863,10.863,0,0,0,3.012.411,6.556,6.556,0,0,0,3.966-1.119,3.751,3.751,0,0,0,1.531-3.226A3.578,3.578,0,0,0,2014.228,120.379Z" transform="translate(-2004.585 -106.52)" fill="#505257"/>
        <path id="Path_3346" data-name="Path 3346" d="M2314.813,126.817a13.536,13.536,0,0,1-2.814,2.09,5.55,5.55,0,0,1-2.617.708,3.183,3.183,0,0,1-2.5-.922,3.931,3.931,0,0,1-.823-2.7V115.232h-1.547v10.894a5.232,5.232,0,0,0,1.152,3.62,4.54,4.54,0,0,0,3.555,1.284,6.053,6.053,0,0,0,2.88-.707,14.436,14.436,0,0,0,2.748-1.958V130.7h1.514V115.232h-1.547Z" transform="translate(-2279.423 -109.766)" fill="#505257"/>
        <path id="Path_3347" data-name="Path 3347" d="M2806.452,113.4a6.262,6.262,0,0,0-2.172-1.563,6.7,6.7,0,0,0-2.7-.543,6.5,6.5,0,0,0-2.649.543,6.3,6.3,0,0,0-2.156,1.563,7.535,7.535,0,0,0-1.465,2.518,10.073,10.073,0,0,0-.543,3.439,10.228,10.228,0,0,0,.527,3.406,7.653,7.653,0,0,0,1.431,2.534,6,6,0,0,0,2.156,1.58,6.7,6.7,0,0,0,2.7.543,6.62,6.62,0,0,0,2.666-.543,6.16,6.16,0,0,0,2.172-1.58,7.733,7.733,0,0,0,1.465-2.534,9.957,9.957,0,0,0,.543-3.406,10.36,10.36,0,0,0-.526-3.439A7.341,7.341,0,0,0,2806.452,113.4Zm.016,8.706a6.459,6.459,0,0,1-1,2.123,4.412,4.412,0,0,1-1.646,1.366,5.081,5.081,0,0,1-2.238.477,4.7,4.7,0,0,1-2.222-.51,4.753,4.753,0,0,1-1.629-1.4,6.45,6.45,0,0,1-1-2.123,9.92,9.92,0,0,1-.346-2.682,10.056,10.056,0,0,1,.346-2.715,6.448,6.448,0,0,1,1-2.123,4.6,4.6,0,0,1,1.629-1.382,5.205,5.205,0,0,1,4.46.017,4.724,4.724,0,0,1,1.646,1.4,6.463,6.463,0,0,1,1,2.123,9.919,9.919,0,0,1,.346,2.683A10.18,10.18,0,0,1,2806.469,122.109Z" transform="translate(-2728.672 -106.16)" fill="#505257"/>
        <rect id="Rectangle_321" data-name="Rectangle 321" width="1.51" height="15.431" transform="translate(59.944 5.623)" fill="#505257"/>
        <path id="Path_3348" data-name="Path 3348" d="M2717.394,51.766a1.156,1.156,0,0,0-.828.328,1.081,1.081,0,0,0-.343.813,1.14,1.14,0,0,0,.343.813,1.1,1.1,0,0,0,.828.357,1.059,1.059,0,0,0,.813-.357,1.168,1.168,0,0,0,.328-.813,1.121,1.121,0,0,0-1.141-1.142Z" transform="translate(-2656.697 -51.609)" fill="#505257"/>
        <path id="Path_3349" data-name="Path 3349" d="M2192.879,69.636a4.717,4.717,0,0,1-.82.082,2.7,2.7,0,0,1-1.855-.525,2.521,2.521,0,0,1-.575-1.9V56.683h4.2V55.37h-4.2V49.9l-1.543-.018V67.551a3.274,3.274,0,0,0,1,2.725,4.155,4.155,0,0,0,2.643.788,7.237,7.237,0,0,0,1.232-.1,3.85,3.85,0,0,0,.869-.23l-.229-1.248Q2193.339,69.554,2192.879,69.636Z" transform="translate(-2172.736 -49.887)" fill="#505257"/>
        <path id="Path_3350" data-name="Path 3350" d="M2511.319,55.945a10.294,10.294,0,0,0-1.942-.609,10.765,10.765,0,0,0-2.205-.214,7.049,7.049,0,0,0-2.7.527,6.535,6.535,0,0,0-2.271,1.563,7.407,7.407,0,0,0-1.563,2.616,10.742,10.742,0,0,0-.576,3.686,10.19,10.19,0,0,0,.51,3.39,6.73,6.73,0,0,0,1.383,2.386,5.542,5.542,0,0,0,2.024,1.4,6.5,6.5,0,0,0,2.436.461,5.044,5.044,0,0,0,2.847-.774,10.346,10.346,0,0,0,2.09-1.827v2.271h1.514V49.887h-1.547Zm0,10.96a12.553,12.553,0,0,1-2.3,2.057,4.5,4.5,0,0,1-2.567.774,4.269,4.269,0,0,1-3.423-1.613,7.106,7.106,0,0,1-1.35-4.673,10.032,10.032,0,0,1,.428-3.094,6.217,6.217,0,0,1,1.185-2.189,4.647,4.647,0,0,1,1.76-1.283,5.632,5.632,0,0,1,2.156-.412,8.665,8.665,0,0,1,2.172.263,9.84,9.84,0,0,1,1.942.724Z" transform="translate(-2458.618 -49.887)" fill="#505257"/>
        <path id="Path_3351" data-name="Path 3351" d="M2956.462,69.7a1.67,1.67,0,0,0-.567-.387,1.886,1.886,0,0,0-.736-.14,1.967,1.967,0,0,0-.739.135,1.624,1.624,0,0,0-.572.384,1.776,1.776,0,0,0-.366.586,2.019,2.019,0,0,0-.131.735,2.072,2.072,0,0,0,.131.746,1.767,1.767,0,0,0,.366.59,1.663,1.663,0,0,0,.571.387,1.914,1.914,0,0,0,.74.139,1.885,1.885,0,0,0,.736-.139,1.7,1.7,0,0,0,.567-.383,1.737,1.737,0,0,0,.367-.582,2.168,2.168,0,0,0,0-1.485A1.781,1.781,0,0,0,2956.462,69.7Zm.123,1.964a1.485,1.485,0,0,1-.311.5,1.425,1.425,0,0,1-.485.332,1.716,1.716,0,0,1-1.259,0,1.427,1.427,0,0,1-.486-.332,1.475,1.475,0,0,1-.31-.508,1.874,1.874,0,0,1-.109-.644,1.817,1.817,0,0,1,.109-.632,1.434,1.434,0,0,1,.31-.5,1.466,1.466,0,0,1,.482-.329,1.591,1.591,0,0,1,.626-.12,1.612,1.612,0,0,1,.629.12,1.421,1.421,0,0,1,.485.332,1.521,1.521,0,0,1,.315.505,1.78,1.78,0,0,1,.113.639A1.8,1.8,0,0,1,2956.585,71.666Z" transform="translate(-2873.989 -67.562)" fill="#505257"/>
        <path id="Path_3352" data-name="Path 3352" d="M2969.542,79.529a.5.5,0,0,0,.132-.367.518.518,0,0,0-.182-.422.761.761,0,0,0-.5-.151h-.5v2h.24v-.828h.232l.6.843.264-.054-.6-.828A.71.71,0,0,0,2969.542,79.529Zm-.812.019v-.743h.248a.521.521,0,0,1,.34.1.337.337,0,0,1,.116.275.325.325,0,0,1-.128.275.542.542,0,0,1-.336.1Z" transform="translate(-2887.868 -76.188)" fill="#505257"/>
      </g>
    </g>
  </g>
</svg>
