<svg xmlns="http://www.w3.org/2000/svg" viewBox="0 0 80 80"><g fill="none" fill-rule="evenodd"><path fill="#8C4FFF" d="M0 0h80v80H0z"/><path fill="#FFF" d="M31.014 24c0-5.514 4.486-10 10-10s10 4.486 10 10v1h2v-1c0-6.617-5.383-12-12-12s-12 5.383-12 12v1h2v-1Zm7 26c0 1.654 1.346 3 3 3s3-1.346 3-3-1.346-3-3-3-3 1.346-3 3Zm-2 0c0-2.757 2.243-5 5-5s5 2.243 5 5a5.009 5.009 0 0 1-4 4.899V61h-2v-6.101a5.009 5.009 0 0 1-4-4.899Zm-11 16h32V40h-32v26Zm28-28h6v30h-36V38h6v-6h2v6h20v-6h2v6Zm14.414-9-6.707 6.707-1.414-1.414L63.6 30H18.428l4.293 4.293-1.414 1.414L14.6 29l6.707-6.707 1.414 1.414L18.428 28H63.6l-4.293-4.293 1.414-1.414L67.428 29Z"/></g></svg>