<svg xmlns="http://www.w3.org/2000/svg" viewBox="0 0 1716.547 480"><defs><clipPath id="a" clipPathUnits="userSpaceOnUse"><path d="M0 360h1287.41V0H0Z"/></clipPath></defs><g clip-path="url(#a)" transform="matrix(1.33333 0 0 -1.33333 0 480)"><path d="M0 0c-3.094 0-5.519-1.016-7.271-3.043-1.754-2.029-2.631-4.729-2.631-8.098v-.825H9.077v.929c0 3.301-.739 5.965-2.218 7.994C5.38-1.016 3.095 0 0 0m.31-45.386c-4.126 0-7.806.67-11.038 2.011-3.232 1.341-5.966 3.231-8.2 5.673-2.235 2.441-3.92 5.416-5.054 8.923-1.135 3.507-1.702 7.427-1.702 11.759 0 4.263.549 8.131 1.651 11.604 1.098 3.472 2.733 6.447 4.899 8.923 2.166 2.475 4.83 4.384 7.994 5.725 3.162 1.341 6.773 2.011 10.83 2.011 4.47 0 8.304-.757 11.502-2.269 3.198-1.514 5.81-3.543 7.839-6.086 2.028-2.545 3.508-5.485 4.436-8.819.929-3.337 1.392-6.826 1.392-10.47v-4.538H-9.902v-.819c0-3.546.963-6.36 2.888-8.439 1.924-2.081 4.951-3.121 9.077-3.121 3.163 0 5.742.63 7.737 1.893a30.405 30.405 0 0 1 5.57 4.552l7.633-9.515c-2.408-2.827-5.554-5.033-9.439-6.619C9.679-44.593 5.261-45.386.31-45.386m-42.705 1.238c-5.295 0-9.3 1.34-12.016 4.023-2.718 2.681-4.074 6.601-4.074 11.758v26.51h-7.634v11.862h3.817c2.063 0 3.472.498 4.229 1.496.756.996 1.135 2.424 1.135 4.281v8.871h13.718V10.005h10.728V-1.857H-43.22v-30.429h9.903v-11.862zm-58.173 9.386c2.543 0 4.726.545 6.549 1.637 1.822 1.092 2.734 2.866 2.734 5.324v6.345h-7.427c-5.982 0-8.974-2.012-8.974-6.039v-1.535c0-1.98.619-3.428 1.857-4.35 1.237-.922 2.991-1.382 5.261-1.382m21.145-9.386c-2.751 0-5.038.858-6.859 2.578-1.823 1.718-2.976 4.023-3.456 6.911h-.618c-.826-3.507-2.649-6.173-5.468-7.994-2.821-1.821-6.292-2.733-10.418-2.733-5.433 0-9.593 1.439-12.481 4.318-2.888 2.878-4.333 6.683-4.333 11.414 0 5.689 2.079 9.922 6.242 12.698 4.159 2.776 9.815 4.165 16.967 4.165h8.562v3.404c0 2.613-.689 4.694-2.064 6.241-1.376 1.547-3.678 2.321-6.91 2.321-3.027 0-5.433-.655-7.22-1.96-1.79-1.307-3.268-2.785-4.436-4.436L-120.992.87c2.2 3.249 4.967 5.791 8.304 7.624 3.334 1.832 7.855 2.749 13.563 2.749 7.701 0 13.478-1.686 17.33-5.054 3.85-3.37 5.776-8.288 5.776-14.751v-23.724h5.054v-11.862zm-80.252 0v54.153h15.267V-1.754h.515a16.75 16.75 0 0 0 1.445 4.384 13.357 13.357 0 0 0 2.733 3.765c1.135 1.099 2.491 1.976 4.074 2.63 1.581.653 3.438.98 5.571.98h2.681V-4.229h-3.816c-4.471 0-7.788-.585-9.954-1.754-2.166-1.17-3.249-3.336-3.249-6.498v-31.667zm-20.526 0c-5.296 0-9.301 1.34-12.017 4.023-2.718 2.681-4.074 6.601-4.074 11.758v26.51h-7.634v11.862h3.818c2.062 0 3.471.498 4.228 1.496.756.996 1.135 2.424 1.135 4.281v8.871h13.719V10.005h10.727V-1.857h-10.727v-30.429h9.902v-11.862zm-51.78-1.238c-5.228 0-9.629.843-13.205 2.527-3.576 1.684-6.773 4.074-9.592 7.169l8.974 9.077c1.924-2.132 4.057-3.817 6.395-5.054 2.338-1.238 4.985-1.857 7.943-1.857 3.025 0 5.122.464 6.292 1.393 1.168.928 1.753 2.182 1.753 3.764 0 2.544-1.822 4.057-5.467 4.539l-5.879.722c-12.171 1.512-18.257 7.082-18.257 16.71 0 2.613.498 5.003 1.495 7.169a16.001 16.001 0 0 0 4.229 5.571c1.821 1.547 4.024 2.749 6.602 3.61 2.579.859 5.483 1.289 8.717 1.289 2.818 0 5.311-.19 7.477-.567 2.167-.379 4.091-.928 5.776-1.651a22.13 22.13 0 0 0 4.643-2.681 49.925 49.925 0 0 0 4.177-3.559l-8.768-8.974a20.056 20.056 0 0 1-5.828 4.074c-2.166.996-4.384 1.496-6.652 1.496-2.615 0-4.472-.413-5.571-1.238-1.1-.825-1.65-1.926-1.65-3.301 0-1.444.395-2.562 1.186-3.352.79-.791 2.286-1.359 4.487-1.702l6.086-.825c11.896-1.583 17.845-7.014 17.845-16.298 0-2.614-.551-5.02-1.651-7.221-1.1-2.201-2.665-4.11-4.693-5.724-2.029-1.617-4.471-2.872-7.323-3.765-2.855-.893-6.035-1.341-9.541-1.341M-286.032 0c-3.094 0-5.519-1.016-7.272-3.043-1.754-2.029-2.631-4.729-2.631-8.098v-.825h18.98v.929c0 3.301-.739 5.965-2.218 7.994C-280.652-1.016-282.937 0-286.032 0m.309-45.386c-4.126 0-7.805.67-11.037 2.011-3.232 1.341-5.967 3.231-8.2 5.673-2.235 2.441-3.92 5.416-5.055 8.923-1.134 3.507-1.701 7.427-1.701 11.759 0 4.263.549 8.131 1.651 11.604 1.098 3.472 2.733 6.447 4.899 8.923 2.166 2.475 4.83 4.384 7.994 5.725 3.162 1.341 6.773 2.011 10.83 2.011 4.47 0 8.304-.757 11.502-2.269 3.197-1.514 5.81-3.543 7.839-6.086 2.027-2.545 3.508-5.485 4.436-8.819.928-3.337 1.392-6.826 1.392-10.47v-4.538h-34.762v-.819c0-3.546.963-6.36 2.889-8.439 1.924-2.081 4.951-3.121 9.077-3.121 3.162 0 5.741.63 7.737 1.893a30.405 30.405 0 0 1 5.57 4.552l7.633-9.515c-2.408-2.827-5.554-5.033-9.439-6.619-3.886-1.586-8.303-2.379-13.255-2.379m-84.066 77.569h15.267V.825h.619c.962 2.819 2.645 5.26 5.053 7.323 2.407 2.063 5.742 3.095 10.006 3.095 5.571 0 9.782-1.857 12.636-5.57 2.853-3.714 4.28-9.009 4.28-15.885v-33.936h-15.265v32.698c0 3.507-.552 6.102-1.651 7.788-1.1 1.684-3.06 2.527-5.88 2.527a14.07 14.07 0 0 1-3.61-.464 9.171 9.171 0 0 1-3.145-1.496 7.813 7.813 0 0 1-2.218-2.527c-.552-.998-.825-2.15-.825-3.456v-35.07h-15.267zm-31.46-77.569c-4.059 0-7.669.67-10.831 2.011-3.164 1.341-5.812 3.231-7.942 5.673-2.133 2.441-3.749 5.416-4.848 8.923-1.102 3.507-1.651 7.427-1.651 11.759 0 4.332.549 8.234 1.651 11.708 1.099 3.471 2.715 6.446 4.848 8.922 2.13 2.475 4.778 4.366 7.942 5.673 3.162 1.306 6.772 1.96 10.831 1.96 5.501 0 10.091-1.238 13.77-3.713 3.678-2.476 6.309-5.949 7.891-10.418l-12.378-5.364c-.481 2.063-1.479 3.816-2.991 5.26-1.514 1.445-3.61 2.167-6.292 2.167-3.095 0-5.434-1.016-7.015-3.043-1.582-2.029-2.372-4.763-2.372-8.201v-10.108c0-3.44.79-6.156 2.372-8.149 1.581-1.996 3.92-2.992 7.015-2.992 2.749 0 4.934.738 6.55 2.218 1.615 1.478 2.801 3.42 3.558 5.828l11.863-5.158c-1.789-5.157-4.557-8.94-8.304-11.346-3.749-2.406-8.304-3.61-13.667-3.61m-63.025 1.238v54.153h15.266V-1.754h.516a16.747 16.747 0 0 0 1.444 4.384 13.38 13.38 0 0 0 2.734 3.765c1.134 1.099 2.491 1.976 4.074 2.63 1.581.653 3.437.98 5.57.98h2.682V-4.229h-3.817c-4.47 0-7.788-.585-9.954-1.754-2.166-1.17-3.249-3.336-3.249-6.498v-31.667zm-43.942 12.687c4.745 0 8.442 1.547 11.089 4.642 2.647 3.094 3.972 7.53 3.972 13.306v10.728c0 5.776-1.325 10.212-3.972 13.306-2.647 3.095-6.344 4.642-11.089 4.642-4.744 0-8.441-1.547-11.088-4.642-2.648-3.094-3.971-7.53-3.971-13.306v-10.728c0-5.776 1.323-10.212 3.971-13.306 2.647-3.095 6.344-4.642 11.088-4.642m0-13.925c-4.744 0-9.077.791-12.996 2.372-3.92 1.581-7.257 3.936-10.006 7.066-2.751 3.128-4.884 7.014-6.395 11.656-1.514 4.642-2.27 10.021-2.27 16.143 0 6.12.756 11.501 2.27 16.143 1.511 4.642 3.644 8.526 6.395 11.656 2.749 3.128 6.086 5.483 10.006 7.066 3.919 1.581 8.252 2.372 12.996 2.372 4.745 0 9.077-.791 12.997-2.372 3.92-1.583 7.255-3.938 10.006-7.066 2.749-3.13 4.882-7.014 6.396-11.656 1.511-4.642 2.268-10.023 2.268-16.143 0-6.122-.757-11.501-2.268-16.143-1.514-4.642-3.647-8.528-6.396-11.656-2.751-3.13-6.086-5.485-10.006-7.066-3.92-1.581-8.252-2.372-12.997-2.372m-169.164 1.238v54.153h15.267V.825h.619c.962 2.819 2.645 5.26 5.054 7.323 2.406 2.063 5.741 3.095 10.005 3.095 5.571 0 9.782-1.857 12.636-5.57 2.853-3.714 4.28-9.009 4.28-15.885v-33.936h-15.265v32.698c0 3.507-.552 6.102-1.651 7.788-1.1 1.684-3.06 2.527-5.879 2.527-1.238 0-2.442-.155-3.611-.464a9.171 9.171 0 0 1-3.145-1.496 7.813 7.813 0 0 1-2.218-2.527c-.552-.998-.825-2.15-.825-3.456v-35.07zm-36.205 10.83c3.025 0 5.364.929 7.015 2.785 1.65 1.857 2.475 4.504 2.475 7.943v11.037c0 3.438-.825 6.086-2.475 7.943-1.651 1.856-3.99 2.785-7.015 2.785-3.026 0-5.363-.929-7.014-2.785-1.65-1.857-2.475-4.505-2.475-7.943V-22.59c0-3.439.825-6.086 2.475-7.943 1.651-1.856 3.988-2.785 7.014-2.785m0-12.068c-3.988 0-7.547.654-10.676 1.96-3.13 1.305-5.776 3.197-7.942 5.673-2.166 2.476-3.834 5.467-5.003 8.974-1.17 3.507-1.753 7.427-1.753 11.759 0 4.332.583 8.252 1.753 11.759 1.169 3.507 2.837 6.481 5.003 8.923 2.166 2.44 4.812 4.314 7.942 5.621 3.129 1.306 6.688 1.96 10.676 1.96 3.988 0 7.547-.654 10.677-1.96 3.128-1.307 5.776-3.181 7.942-5.621 2.166-2.442 3.833-5.416 5.003-8.923 1.168-3.507 1.753-7.427 1.753-11.759 0-4.332-.585-8.252-1.753-11.759-1.17-3.507-2.837-6.498-5.003-8.974s-4.814-4.368-7.942-5.673c-3.13-1.306-6.689-1.96-10.677-1.96m-55.598 0c-5.227 0-9.629.843-13.203 2.527-3.577 1.684-6.774 4.074-9.593 7.169l8.974 9.077c1.924-2.132 4.057-3.817 6.395-5.054 2.337-1.238 4.985-1.857 7.943-1.857 3.025 0 5.122.464 6.292 1.393 1.168.928 1.753 2.182 1.753 3.764 0 2.544-1.822 4.057-5.466 4.539l-5.88.722c-12.172 1.512-18.258 7.082-18.258 16.71 0 2.613.498 5.003 1.496 7.169a15.99 15.99 0 0 0 4.229 5.571c1.821 1.547 4.023 2.749 6.602 3.61 2.579.859 5.483 1.289 8.716 1.289 2.819 0 5.312-.19 7.478-.567 2.166-.379 4.091-.928 5.777-1.651a22.14 22.14 0 0 0 4.641-2.681 49.775 49.775 0 0 0 4.178-3.559l-8.767-8.974a20.074 20.074 0 0 1-5.829 4.074c-2.166.996-4.383 1.496-6.653 1.496-2.614 0-4.471-.413-5.57-1.238-1.101-.825-1.65-1.926-1.65-3.301 0-1.444.394-2.562 1.186-3.352.789-.791 2.285-1.359 4.487-1.702l6.086-.825c11.896-1.583 17.844-7.014 17.844-16.298 0-2.614-.55-5.02-1.65-7.221-1.101-2.201-2.665-4.11-4.693-5.724-2.029-1.617-4.471-2.872-7.324-3.765-2.854-.893-6.034-1.341-9.541-1.341m-38.887 1.238c-5.296 0-9.301 1.34-12.017 4.023-2.717 2.681-4.075 6.601-4.075 11.758v26.51h-7.632v11.862h3.816c2.063 0 3.472.498 4.229 1.496.756.996 1.135 2.424 1.135 4.281v8.871h13.719V10.005h10.728V-1.857h-10.728v-30.429h9.902v-11.862zm-58.176 9.386c2.544 0 4.728.545 6.551 1.637 1.821 1.092 2.733 2.866 2.733 5.324v6.345h-7.427c-5.983 0-8.974-2.012-8.974-6.039v-1.535c0-1.98.619-3.428 1.857-4.35 1.238-.922 2.991-1.382 5.26-1.382m21.146-9.386c-2.751 0-5.038.858-6.859 2.578-1.823 1.718-2.976 4.023-3.456 6.911h-.619c-.825-3.507-2.648-6.173-5.466-7.994-2.821-1.821-6.292-2.733-10.418-2.733-5.434 0-9.594 1.439-12.482 4.318-2.888 2.878-4.332 6.683-4.332 11.414 0 5.689 2.079 9.922 6.24 12.698 4.16 2.776 9.816 4.165 16.969 4.165h8.561v3.404c0 2.613-.688 4.694-2.063 6.241-1.376 1.547-3.68 2.321-6.911 2.321-3.027 0-5.433-.655-7.22-1.96-1.789-1.307-3.267-2.785-4.436-4.436L-886.669.87c2.2 3.249 4.967 5.791 8.303 7.624 3.335 1.832 7.856 2.749 13.565 2.749 7.7 0 13.477-1.686 17.329-5.054 3.85-3.37 5.776-8.288 5.776-14.751v-23.724h5.054v-11.862zm-130.484 54.153h14.751l5.26-21.867 3.714-16.505h.412l4.332 16.505 6.189 21.867H-927l6.292-21.867 4.435-16.505h.413l3.713 16.505 5.261 21.867h14.132l-14.957-54.153H-923.7l-6.601 22.899-3.817 14.028h-.309l-3.714-14.028-6.601-22.899h-15.679z" style="fill:#000;fill-opacity:1;fill-rule:nonzero;stroke:none" transform="translate(1118.552 188.147)"/><path d="m0 0 17.846 27.541L.207 54.154h17.329l10.109-17.02h.412l9.799 17.02h16.092L36 27.025 54.051 0H36.722L26.304 17.639h-.413L15.886 0Z" style="fill:#0f62fe;fill-opacity:1;fill-rule:nonzero;stroke:none" transform="translate(497.388 143.999)"/></g></svg>