<svg xmlns="http://www.w3.org/2000/svg" fill="none" viewBox="0 0 193 35"><linearGradient id="a" x1="77.475" x2="184.535" y1="1.5" y2="23.099" gradientUnits="userSpaceOnUse"><stop offset="0" stop-color="#5151ff"/><stop offset="1" stop-color="#003592"/></linearGradient><path fill="url(#a)" d="M82.064 3.672V25h-4.028V3.672zm12.803 0-8.555 10.4-4.892 5.23-.718-3.911 3.399-4.41 5.83-7.31zM90.385 25l-6.636-9.99 2.886-2.608L95.175 25zm5.273-7.764v-.307c0-1.162.166-2.232.498-3.208.332-.987.816-1.841 1.45-2.564a6.53 6.53 0 0 1 2.33-1.684c.918-.41 1.962-.616 3.134-.616 1.192 0 2.246.206 3.164.616a6.5 6.5 0 0 1 2.344 1.684c.635.723 1.118 1.577 1.45 2.564.332.976.498 2.046.498 3.208v.307c0 1.153-.166 2.222-.498 3.208a7.6 7.6 0 0 1-1.45 2.564c-.635.723-1.411 1.284-2.329 1.684s-1.968.601-3.149.601c-1.172 0-2.222-.2-3.15-.6a6.499 6.499 0 0 1-2.344-1.685 7.608 7.608 0 0 1-1.45-2.564c-.332-.986-.498-2.055-.498-3.208zm3.867-.307v.307c0 .694.069 1.343.205 1.949a5.2 5.2 0 0 0 .63 1.596c.284.46.65.82 1.099 1.084.459.254 1.006.381 1.641.381.625 0 1.162-.127 1.611-.38a3.163 3.163 0 0 0 1.099-1.085c.293-.459.507-.991.644-1.596a8.816 8.816 0 0 0 .205-1.949v-.307c0-.684-.068-1.323-.205-1.92a4.985 4.985 0 0 0-.644-1.596 3.084 3.084 0 0 0-1.114-1.099c-.449-.273-.991-.41-1.626-.41-.625 0-1.162.137-1.611.41-.449.264-.815.63-1.099 1.1a5.201 5.201 0 0 0-.63 1.596 8.566 8.566 0 0 0-.205 1.919zm17.608-4.395V25h-3.867V9.15h3.632zm-.615 3.97h-1.143c.01-1.152.166-2.197.469-3.135.302-.937.727-1.743 1.274-2.417a5.73 5.73 0 0 1 1.978-1.553c.761-.36 1.611-.542 2.549-.542.761 0 1.45.108 2.065.323a3.894 3.894 0 0 1 1.582 1.025c.449.469.791 1.084 1.025 1.846.245.752.367 1.68.367 2.783V25h-3.897V14.805c0-.723-.107-1.294-.322-1.714a1.798 1.798 0 0 0-.908-.894c-.391-.175-.874-.263-1.451-.263-.595 0-1.118.122-1.567.366-.439.234-.81.561-1.113.981-.293.42-.518.904-.674 1.45a6.439 6.439 0 0 0-.234 1.773zm17.373-3.97V25h-3.868V9.15h3.633zm-.616 3.97h-1.142c.01-1.152.166-2.197.469-3.135.302-.937.727-1.743 1.274-2.417a5.73 5.73 0 0 1 1.978-1.553c.761-.36 1.611-.542 2.548-.542.762 0 1.451.108 2.066.323a3.9 3.9 0 0 1 1.582 1.025c.449.469.791 1.084 1.025 1.846.244.752.366 1.68.366 2.783V25h-3.896V14.805c0-.723-.107-1.294-.322-1.714a1.796 1.796 0 0 0-.909-.894c-.39-.175-.874-.263-1.45-.263-.595 0-1.118.122-1.567.366-.44.234-.811.561-1.113.981-.293.42-.518.904-.674 1.45a6.438 6.438 0 0 0-.235 1.773zm20.699 8.789c-1.202 0-2.281-.195-3.238-.586a7.11 7.11 0 0 1-2.446-1.626 7.472 7.472 0 0 1-1.538-2.446 8.514 8.514 0 0 1-.527-3.018v-.586c0-1.22.175-2.329.527-3.325.352-1.006.85-1.87 1.494-2.593a6.577 6.577 0 0 1 2.315-1.67c.898-.39 1.889-.586 2.973-.586 1.123 0 2.114.19 2.974.572.859.37 1.577.898 2.153 1.582s1.011 1.504 1.304 2.46c.293.948.439 1.998.439 3.15v1.626h-12.422v-2.666h8.614v-.293a4.675 4.675 0 0 0-.352-1.685 2.694 2.694 0 0 0-.996-1.23c-.449-.312-1.03-.469-1.743-.469-.576 0-1.079.127-1.509.381-.42.244-.771.596-1.055 1.055-.273.45-.478.986-.615 1.611s-.205 1.319-.205 2.08v.586c0 .664.088 1.28.264 1.846a4.42 4.42 0 0 0 .805 1.48c.362.41.791.732 1.289.966.508.225 1.084.337 1.729.337.811 0 1.543-.156 2.197-.469a4.893 4.893 0 0 0 1.729-1.42l1.948 2.02c-.332.49-.781.958-1.348 1.407-.556.45-1.23.816-2.021 1.099-.791.273-1.704.41-2.739.41zm15.527-3.047c.547 0 1.035-.107 1.465-.322.43-.215.771-.518 1.025-.908.264-.391.405-.845.425-1.363h3.647c-.019 1.074-.322 2.036-.908 2.886s-1.367 1.523-2.343 2.021c-.967.489-2.051.733-3.252.733-1.221 0-2.286-.205-3.194-.615a6.213 6.213 0 0 1-2.27-1.714 7.586 7.586 0 0 1-1.348-2.549 10.655 10.655 0 0 1-.439-3.105v-.47c0-1.103.146-2.138.439-3.105a7.585 7.585 0 0 1 1.348-2.549 6.214 6.214 0 0 1 2.27-1.713c.908-.41 1.968-.616 3.179-.616 1.279 0 2.402.25 3.369.747a5.546 5.546 0 0 1 2.285 2.11c.557.908.845 1.977.864 3.208h-3.647a3.51 3.51 0 0 0-.381-1.524 2.793 2.793 0 0 0-.996-1.083c-.43-.274-.952-.41-1.567-.41-.655 0-1.201.136-1.641.41-.43.273-.767.649-1.011 1.127-.234.47-.4.997-.498 1.582a12.028 12.028 0 0 0-.132 1.817v.469c0 .644.044 1.26.132 1.845.098.586.264 1.114.498 1.582a2.88 2.88 0 0 0 1.011 1.099c.44.273.996.41 1.67.41zM186.142 9.15v2.784h-9.082V9.15zm-6.651-3.896h3.882V20.43c0 .468.064.83.19 1.084.127.254.318.424.572.512s.556.132.908.132c.254 0 .488-.014.703-.044s.396-.058.542-.088l.015 2.9a7.294 7.294 0 0 1-1.099.264c-.4.069-.854.103-1.362.103-.869 0-1.631-.147-2.285-.44-.655-.302-1.162-.786-1.524-1.45-.361-.674-.542-1.562-.542-2.666z"/><path fill="#35363a" fill-rule="evenodd" d="M57.484 20.418h5.658v-8.773h-5.658zm5.627-12.22h4.345v16.293c0 2.695-.282 3.165-1 3.886-.563.595-1.47.877-3.033.877h-6.345l-1.97-2.193v-.909h8.003v-2.225h-5.47c-1.657 0-2.501-.313-3.189-1.002-.906-.94-1.281-2.977-1.281-6.83s.437-5.986 1.375-6.957c.719-.69 1.594-.971 3.157-.971l3.251.031 2.157 1.974zM11.847 3.874h5.126l-7.377 9.4 7.69 10.622h-5.439L6.002 15.56H4.626v8.335H0V3.874h4.626v7.77h1.376zm33.76 9.275v-1.442H40.291v12.126h-4.314V8.198h4.315v1.974l2.156-1.974h1.25c.188-.031.407-.031.626-.031H46.2c1.313 0 2.157.282 2.75.877.657.627.907 1.441.907 3.76v11.03h-4.313V13.336c.062-.063.062-.126.062-.188zM22.88 20.386h5.658v-8.773h-5.658zm.188 3.447c-1.563 0-2.407-.25-3.063-.971-1-1.034-1.407-2.444-1.407-6.862 0-4.45.406-5.828 1.406-6.893.657-.69 1.501-.94 3.064-.94h5.251c1.563 0 2.407.25 3.064.94 1 1.065 1.406 2.444 1.406 6.893s-.406 5.828-1.406 6.862c-.688.72-1.5.971-3.064.971z" clip-rule="evenodd"/></svg>