<svg xmlns="http://www.w3.org/2000/svg" fill="none" viewBox="0 0 124 41"><path fill="#003459" fill-rule="evenodd" d="M14.861 33.567h8.297l4.311 5.425-.73 1.854H16.006l.265-1.85L13.74 35zm5.942-23.853h4.467l20.006 23.879-1.558 7.253h-8.584l.533-2.045-18.694-22.319zM28.669 0l9.305 7.317-1.19 1.232 1.596 2.234v2.406l-4.628 3.797-7.796-9.225H21.42l1.828-3.354zM9.149 23.439l6.488-5.645 8.615 10.374-2.444 3.8h-7.946L8.37 39.188l-1.254 1.66H0V31.99l6.634-8.552zm68.714 6.985c-1.611 0-2.444-.262-3.133-.986-1.034-1.043-1.44-2.489-1.44-6.979s.402-5.935 1.44-7.02c.66-.696 1.522-.958 3.133-.958h5.374c1.596 0 2.441.262 3.13.958 1.035 1.072 1.437 2.489 1.437 7.02s-.402 5.936-1.436 6.979c-.69.724-1.523.986-3.13.986zm-.204-3.51h5.78v-8.916h-5.783v8.92zm23.212-7.381v-1.474h-5.406v12.365h-4.394V14.497h4.379v2.014l2.217-2.014h1.277a7.44 7.44 0 0 1 .654-.028h1.915c1.349 0 2.211.29 2.817.9.661.638.919 1.474.919 3.829V30.42h-4.378V19.536zm-34.464-9.446h5.234l-7.5 9.59 7.835 10.805h-5.56L60.46 21.99h-1.414v8.492h-4.713V10.09h4.704v7.905h1.41zm52.334 4.404h4.436v16.594c0 2.75-.287 3.216-1.005 3.97-.575.609-1.494.9-3.105.9h-6.484l-1.998-2.234v-.939h8.172V30.51h-5.587c-1.698 0-2.553-.319-3.271-1.014-.919-.958-1.293-3.048-1.293-6.957 0-3.91.46-6.089 1.408-7.072.718-.695 1.64-.986 3.22-.986l3.302.029 2.215 2.014v-2.03zm-5.744 12.426h5.776v-8.935h-5.776z" clip-rule="evenodd"/></svg>