<svg xmlns="http://www.w3.org/2000/svg" xmlns:xlink="http://www.w3.org/1999/xlink" height="28" viewBox="0 0 117 28" width="117"><mask id="a" fill="#fff"><path d="m0 .03898816h116.10382v27.25272464h-116.10382z" fill="#fff" fill-rule="evenodd"/></mask><mask id="b" fill="#fff"><path d="m0 .03898816h116.10382v27.25272464h-116.10382z" fill="#fff" fill-rule="evenodd"/></mask><mask id="c" fill="#fff"><path d="m0 .03898816h116.10382v27.25272464h-116.10382z" fill="#fff" fill-rule="evenodd"/></mask><mask id="d" fill="#fff"><path d="m0 .03898816h116.10382v27.25272464h-116.10382z" fill="#fff" fill-rule="evenodd"/></mask><mask id="e" fill="#fff"><path d="m0 .03898816h116.10382v27.25272464h-116.10382z" fill="#fff" fill-rule="evenodd"/></mask><mask id="f" fill="#fff"><path d="m0 .03898816h116.10382v27.25272464h-116.10382z" fill="#fff" fill-rule="evenodd"/></mask><mask id="g" fill="#fff"><path d="m0 .03898816h116.10382v27.25272464h-116.10382z" fill="#fff" fill-rule="evenodd"/></mask><mask id="h" fill="#fff"><path d="m0 .03898816h116.10382v27.25272464h-116.10382z" fill="#fff" fill-rule="evenodd"/></mask><mask id="i" fill="#fff"><path d="m0 .03898816h116.10382v27.25272464h-116.10382z" fill="#fff" fill-rule="evenodd"/></mask><mask id="j" fill="#fff"><path d="m0 .03898816h116.10382v27.25272464h-116.10382z" fill="#fff" fill-rule="evenodd"/></mask><mask id="k" fill="#fff"><path d="m0 .03898816h116.10382v27.25272464h-116.10382z" fill="#fff" fill-rule="evenodd"/></mask><mask id="l" fill="#fff"><path d="m0 .03898816h116.10382v27.25272464h-116.10382z" fill="#fff" fill-rule="evenodd"/></mask><mask id="m" fill="#fff"><path d="m0 .03898816h116.10382v27.25272464h-116.10382z" fill="#fff" fill-rule="evenodd"/></mask><g fill="none" fill-rule="nonzero"><path d="m27.9866768 8.64562475h4.3393824v4.39786455h2.1940587c1.0136922 0 2.0546761-.1783708 3.0147596-.5019725.5100456-.1673127 1.0013333-.3871509 1.4659548-.6559759-.6130888-.7924343-.9259688-1.7934554-1.017591-2.78083056-.1247621-1.34314215.1471804-3.09078648 1.0643768-4.14249212l.4561615-.52244136.5429102.43374329c1.3694591 1.09069381 2.5196099 2.6131815 2.7223483 4.35010409 1.6472498-.48052909 3.5820373-.36648872 5.035321.46395911l.5945695.34114645-.31288.6072406c-1.2281271 2.3773031-3.7964722 3.1141794-6.3063351 2.9825943-3.7584587 9.2801571-11.9362255 13.6731481-21.853839 13.6731481-5.1230444 0-9.8240419-1.8996981-12.4996045-6.4067296l-.04386168-.0740775-.38988161-.7865861c-.90452534-1.9844974-1.20570888-4.1580874-1.00199574-6.329728l.06140635-.6511023h3.71069824v-4.39786455h4.33840764v-4.3033183h8.67779v-4.30331829h5.2068689v8.60663659z" fill="#394d54" mask="url(#a)"/><path d="m42.044833 10.2733805c.2914365-2.2437687-1.4006497-4.00505888-2.4504059-4.84135494-1.2096077 1.38700383-1.3977256 5.01972574.4990485 6.55001104-1.0585286.9327918-3.2886514 1.7788349-5.5733577 1.7788349h-27.80830595c-.22223252 2.364632.19689021 4.5421208 1.15307487 6.4067296l.3158041.5741007c.20078903.3372476.41912274.6627987.65597582.974704 1.14332782.0731028 2.19698286.0974704 3.16096516.0779763 1.8957993-.0419123 3.4416799-.2631701 4.6142489-.6666975.173849-.0603637.3637937.0311234.4249709.2046878.0288257.0831012.0233283.1742659-.0152745.253301-.0386029.0790352-.1071247.1394171-.190388.1677711-.1559527.0536088-.3187282.1033187-.487352.1520539-.92207.2612206-1.9123693.4366674-3.1892316.5146437.0760269.0009747-.0779763.0116964-.0779763.0116964-.0438617.0029242-.0984451.0087724-.1423068.0107218-.5029473.0292411-1.0448827.0341146-1.5994893.0341146-.6062659 0-1.2037595-.0116964-1.87143177-.0448364l-.01754468.0107218c2.31784615 2.5829657 5.93984635 4.1317704 10.48196715 4.1317704 9.6105817 0 17.7620315-4.225342 21.3723353-13.7111616 2.5605474.2612207 5.0226498-.3859828 6.1425848-2.5537246-1.7837084-1.02051509-4.077187-.69496395-5.397911-.0370387" fill="#00aada"/><path d="m42.044833 10.2733805c.2914365-2.2437687-1.4006497-4.00505888-2.4504059-4.84135494-1.2096077 1.38700383-1.3977256 5.01972574.4990485 6.55001104-1.0585286.9327918-3.2886514 1.7788349-5.5733577 1.7788349h-26.16105614c-.11404037 3.6210255 1.24079823 6.3706655 3.63857014 8.0335106 1.8957993-.0419123 3.4416799-.2631701 4.6142489-.6666975.173849-.0603637.3637937.0311234.4249709.2046878.0288257.0831012.0233283.1742659-.0152745.253301-.0386029.0790352-.1071247.1394171-.190388.1677711-.1559527.0536088-.3187282.1033187-.487352.1520539-.92207.2612206-1.9971686.4590856-3.2740309.5370619l-.0302158-.0292411c3.270132 1.6638197 8.0120671 1.6569968 13.4509156-.4132745 6.0967737-2.3227197 11.7695512-6.7488507 15.7278243-11.8104888-.0584823.0282664-.1169645.0545835-.1734974.0828499" fill="#24b8ec"/><path d="m6.76444597 16.634299c.17252261 1.2671152.54583425 2.45333 1.10044085 3.5333021l.3158041.573126c.20078903.3382223.41912274.6627987.65597582.9766534 1.14332782.0721281 2.19698286.0974704 3.16193986.0770016 1.8948246-.0419123 3.4407052-.2631701 4.6132742-.6666975.173849-.0603637.3637937.0311234.4249709.2046878.0288257.0831012.0233283.1742659-.0152745.253301-.0386029.0790352-.1071247.1394171-.190388.1677711-.1559527.0536088-.3187282.1033187-.487352.1520539-.9230447.2612206-1.9913204.4483638-3.2681826.5263401-.0438617.0029242-.1198886.0029242-.164725.0048736-.5019726.0292411-1.0390345.0458111-1.5926664.0458111-.6062659 0-1.2271524-.0116965-1.89482464-.0458111 2.31784614 2.5829656 5.96226454 4.1376186 10.50438534 4.1376186 8.2274767 0 15.3857031-3.0976094 19.5408664-9.9400317z" fill="#008bb8"/><path d="m8.60858599 16.634299c.49222554 2.2242746 1.67454151 3.9699695 3.39002061 5.1600831 1.8948246-.0419123 3.4407052-.2631701 4.6132742-.6666975.173849-.0603637.3637937.0311234.4249709.2046878.0288257.0831012.0233283.1742659-.0152745.253301-.0386029.0790352-.1071247.1394171-.190388.1677711-.1559527.0536088-.3187282.1033187-.487352.1520539-.9230447.2612206-2.0137386.4483638-3.2906008.5263401 3.270132 1.6638198 7.9993959 1.6394522 13.4372697-.4317938 3.2886514-1.2534694 6.4544901-3.1190529 9.2947777-5.3657457z" fill="#039bc6"/><path d="m10.485866 9.36203221h3.7604081v3.72921759h-3.7604081zm.3138547.31093058h.29631v3.10833111h-.29631v-3.10930581zm.5575307 0h.3089811v3.10833111h-.3089811v-3.10930581zm.5702018 0h.3080065v3.10833111h-.3080065v-3.10930581zm.5692272 0h.3089811v3.10833111h-.3089811v-3.10930581zm.5702018 0h.3080065v3.10833111h-.3080065v-3.10930581zm.5692272 0h.2972847v3.10833111h-.2972847v-3.10930581zm1.1891389-4.61424887h3.7604081v3.73019232h-3.7604081zm.31288.31093058h.2972847v3.10833115h-.2972847zm.5585054 0h.3089812v3.10833115h-.3089812zm.5692272 0h.3089811v3.10833115h-.3089811zm.5702018 0h.3080065v3.10833115h-.3080065zm.5702019 0h.3080064v3.10833115h-.3080064zm.5692271 0h.2972847v3.10833115h-.2972847z" fill="#00acd3" mask="url(#b)"/><path d="m14.8252483 9.36203221h3.7604081v3.72921759h-3.7604081zm.31288.31093058h.2972847v3.10833111h-.2972847v-3.10930581zm.5585054 0h.3089812v3.10833111h-.3089812v-3.10930581zm.5692272 0h.3089811v3.10833111h-.3089811v-3.10930581zm.5702018 0h.3080065v3.10833111h-.3080065v-3.10930581zm.5702019 0h.3080064v3.10833111h-.3080064v-3.10930581zm.5692271 0h.2972847v3.10833111h-.2972847v-3.10930581z" fill="#1fc2ef" mask="url(#c)"/><path d="m19.1646306 9.36203221h3.7604082v3.72921759h-3.7604082zm.3119053.31093058h.2972848v3.10833111h-.2963101v-3.10930581zm.5585054 0h.3089812v3.10833111h-.3089812v-3.10930581zm.5711766 0h.3080065v3.10833111h-.3080065v-3.10930581zm.5692271 0h.3089812v3.10833111h-.3089812v-3.10930581zm.5692272 0h.3089812v3.10833111h-.3089812v-3.10930581zm.5702019 0h.29631v3.10833111h-.29631v-3.10930581z" fill="#00acd3" mask="url(#d)"/><path d="m19.1646306 5.05871392h3.7604082v3.73019232h-3.7604082zm.3119053.31093058h.2972848v3.10833115h-.2963101v-3.10833115zm.5585054 0h.3089812v3.10833115h-.3089812zm.5711766 0h.3080065v3.10833115h-.3080065zm.5692271 0h.3089812v3.10833115h-.3089812zm.5692272 0h.3089812v3.10833115h-.3089812zm.5702019 0h.29631v3.10833115h-.29631zm1.1881642 3.99238771h3.7613828v3.72921759h-3.7613828zm.3138547.31093058h.29631v3.10833111h-.29631v-3.10930581zm.5575307 0h.3089812v3.10833111h-.3089812v-3.10930581zm.5702018 0h.3089812v3.10833111h-.3089812v-3.10930581zm.5702019 0h.3080065v3.10833111h-.3080065v-3.10930581zm.5692271 0h.3089812v3.10833111h-.3089812v-3.10930581zm.5702019 0h.2972847v3.10833111h-.2972847v-3.10930581z" fill="#1fc2ef" mask="url(#e)"/><path d="m23.5030383 5.05871392h3.7613828v3.73019232h-3.7613828zm.3138547.31093058h.29631v3.10833115h-.29631zm.5575307 0h.3089812v3.10833115h-.3089812zm.5702018 0h.3089812v3.10833115h-.3089812zm.5702019 0h.3080065v3.10833115h-.3080065zm.5692271 0h.3089812v3.10833115h-.3089812zm.5702019 0h.2972847v3.10833115h-.2972847z" fill="#00acd3" mask="url(#f)"/><path d="m23.5030383.75539562h3.7613828v3.73019233h-3.7613828zm.3138547.31093059h.29631v3.10833115h-.29631v-3.10930586zm.5575307 0h.3089812v3.10833115h-.3089812v-3.10930586zm.5702018 0h.3089812v3.10833115h-.3089812v-3.10930586zm.5702019 0h.3080065v3.10833115h-.3080065v-3.10930586zm.5692271 0h.3089812v3.10833115h-.3089812v-3.10930586zm.5702019 0h.2972847v3.10833115h-.2972847v-3.10930586z" fill="#1fc2ef" mask="url(#g)"/><path d="m27.8424206 9.36203221h3.7604082v3.72921759h-3.7604082zm.3138547.31093058h.29631v3.10833111h-.29631v-3.10930581zm.5575307 0h.3080065v3.10833111h-.3080065v-3.10930581zm.5692272 0h.3089811v3.10833111h-.3089811v-3.10930581zm.5702018 0h.3080065v3.10833111h-.3080065v-3.10930581zm.5702019 0h.3080065v3.10833111h-.3080065v-3.10930581zm.5692271 0h.2972848v3.10833111h-.2972848v-3.10930581z" fill="#00acd3" mask="url(#h)"/><path d="m18.3507528 19.1383136c.2740189-.0012956.5373291.1063171.7320038.2991638.1946746.1928467.3047665.45513.306056.729149-.0010317.2741882-.1110099.5367218-.3057126.7297791-.1947026.1930573-.4581601.3008036-.7323472.2995083-.2740187.001036-.5372255-.1068249-.7317171-.2998542-.1944916-.1930292-.3043359-.4554146-.305368-.7294332.0026857-.5702335.4668494-1.0304709 1.0370851-1.0283128" fill="#d4edf1" mask="url(#i)"/><path d="m18.3507528 19.4297501c.0916333.000068.1824795.0169158.2680436.0497099-.1176737.0685492-.1747082.207532-.1391076.3389804s.1549775.2226531.2911614.2224492c.1105485.0006077.2126038-.0592049.2660942-.1559527.0927544.2283617.0658501.4879008-.0717734.6923811-.1376235.2044804-.3679381.327116-.6144182.3271593-.1964663.0007771-.3851943-.0765244-.5246652-.2148986-.139471-.1383742-.21826-.3264861-.219034-.5229523.0021481-.4087388.3349579-.7384954.7436992-.7368763m-18.3507528-2.4240889h48.2614953c-1.0517056-.2641448-3.3256901-.6208865-2.9504291-1.9874215-1.9104199 2.1930841-6.5188205 1.5390577-7.6816424.4581109-1.294407 1.8616847-8.8347173 1.1540496-9.3600828-.2972847-1.6228822 1.8899511-6.6543044 1.8899511-8.2781613 0-.5263402 1.452309-8.0647012 2.1599441-9.3591081.2972847-1.16379665 1.0809468-5.7712226 1.7349732-7.6816425-.4581109.37428635 1.366535-1.89969816 1.7232767-2.9504291 1.9883962" fill="#394d54" mask="url(#j)"/><path d="m21.1081905 26.5519125c-2.5693199-1.208633-3.9797166-2.851984-4.7643533-4.6464141-.9542353.269993-2.1014619.4425156-3.4338823.5165931-.5029473.0292411-1.0302622.0419123-1.5848688.0419123-.6394058 0-1.3129263-.0194941-2.01958673-.0555582 2.35683433 2.3353909 5.25462943 4.1327451 10.62232453 4.1658851.3957298 0 .7895103-.0077977 1.1803666-.0224182" fill="#bfdbe0" mask="url(#k)"/><path d="m17.2980724 23.5605458c-.3761878-.5158999-.6957803-1.0707753-.9532605-1.6550474-.95521.269993-2.1024366.4425156-3.434857.5165931.9152471.4932002 2.2252493.9493617 4.3881175 1.1384543" fill="#d4edf1" mask="url(#l)"/><path d="m60.06906 12.0687853v-4.18927792c0-.54973308.3460199-.99322341.9210953-.99322341h.1588767c.5750754 0 .9201206.44349033.9201206.99419811v8.81814732c0 2.1501971-1.0721744 3.8617774-2.9377579 4.9514965-.8570797.5025435-1.8330973.7664048-2.8266417.764168h-.3967045c-2.1687165 0-3.8919932-1.0624274-4.9924341-2.9133904-.5070105-.846567-.7732562-1.8154991-.7700162-2.8022741v-.3937804c0-2.1501971 1.0711998-3.8598279 2.9367833-4.9524712.8564233-.5042169 1.8328186-.768517 2.8266417-.7651426h.3957298c1.4679043 0 2.713576.5653283 3.764307 1.4815501zm-7.9243438 4.4329539c0 1.5536783.7602691 2.7213737 2.1326524 3.4670223.5485597.3019622 1.1643543.4608553 1.7905313.4620097 1.5371083 0 2.677512-.7193316 3.4640981-2.0117891.365514-.6004177.5360873-1.2583429.5360873-1.9572057 0-1.347041-.6433047-2.397772-1.7369226-3.1775352-.646689-.4680823-1.4259805-.7173736-2.2242746-.7115339-1.676491 0-2.8821998.8392202-3.6064049 2.331492-.2392679.4986218-.3609775 1.0454815-.355767 1.5985146zm16.8643291-5.914504h.2777907c2.3178461 0 4.080111 1.1150614 5.1971219 3.121977.4464144.8021814.6852169 1.6784403.6852169 2.5956368v.3937804c0 2.1501971-1.0682756 3.8647015-2.937758 4.9514965-.8572645.5021026-1.8331597.7659308-2.8266416.764168h-.3957299c-2.1687164 0-3.8919932-1.0624274-4.992434-2.9133904-.5071231-.8465665-.7736897-1.8154401-.7709909-2.8022741v-.3937804c0-2.1501971 1.0760732-3.8549544 2.9358085-4.9514965.8561763-.5057593 1.8332265-.7704823 2.8276164-.7661173zm-3.7633322 5.914504c0 1.5078672.7466232 2.6170803 2.0312832 3.3968436.5948225.3577201 1.2777944.5420516 1.9718262.5321884 1.5010442 0 2.6122068-.7553957 3.3851471-2.0127639.358837-.5887578.5443104-1.2667999.5351125-1.9562309 0-1.4035738-.6803434-2.4728242-1.8451147-3.2496633-.6248454-.4214327-1.3624158-.6443006-2.1160825-.6394058-1.6764909 0-2.8821998.8392202-3.6064049 2.331492-.2397643.4984498-.3615 1.0454267-.3557669 1.5985146zm18.2396365-3.7701552c-.3021583-.1403573-.8674866-.1871431-1.1930378-.1988396-1.6716174-.0633557-2.8812251.8704107-3.5908096 2.3324668-.2393066.4979154-.3610261 1.0441525-.355767 1.5965652 0 1.6989091.8986771 2.8890227 2.4289625 3.6142025.5585054.2631701 1.2797864.3148294 1.8899511.3148294.5370619 0 1.2963563-.3265258 1.7729866-.5507078l.0818751-.0389881h.3703876l.0399628.0077976c.4561615.0945463.7992573.3801346.7992573.8655372v.1968902c0 1.2066836-2.226224 1.4844742-3.0751912 1.5419818-2.9972149.2066372-5.2390341-1.425992-6.0938496-4.2604313-.1454024-.4849691-.2176754-.9889092-.2144348-1.495196v-.3928058c0-2.1511717 1.0750985-3.8549544 2.9358085-4.9514964.8559891-.5052485 1.8326733-.7696268 2.8266417-.7651427h.3976792c1.0653515 0 2.0478532.3002089 2.9280109.8967277l.0731028.0497099.0448364.0740775c.095521.1569274.1773961.3382223.1773961.5234161v.1968902c0 .5068461-.3820839.7778138-.8440936.8665119l-.0370388.0058482h-.1189139c-.2982594 0-.9766534-.3050823-1.2437223-.4298445zm6.4886047 1.3431422c.7768391-.7719656 1.557577-1.5419818 2.3461126-2.3003015.2193084-.2115108 1.0507309-1.1082385 1.3782315-1.1082385h.3586911l.0409375.0087723c.4561615.0935716.7992574.3801346.7992574.8665119v.1968902c0 .3313994-.3928058.7173822-.6091901.9444882-.4590856.4824785-.9435135.9493618-1.4133208 1.4230679l-2.417266 2.4328613c1.0415045 1.0336324 2.0792462 2.0710492 3.1132047 3.1122299.2846135.2875377.5702018.5770248.8518913.8684613.0984451.1033187.2466001.233929.32945.3762358.0914608.1322192.1416621.2885895.1442561.4493386v.2046878l-.0116964.0467858c-.112091.4532374-.4025528.8187514-.9084242.8187514h-.1588767c-.3313994 0-.704711-.372337-.9308424-.5848224-.4678579-.4356927-.9181712-.895753-1.3772568-1.3411928l-1.5351588-1.495196v2.3899743c0 .5487584-.3469946.991274-.9210953.991274h-.1598515c-.5750753 0-.9210953-.4425156-.9210953-.991274v-13.46553616c0-.55070778.3469947-.991274.9210953-.991274h.1579021c.5741007 0 .9210953.44056622.9210953.991274v6.15623066zm24.9319547-3.40854h.197865c.600417 0 1.001021.4015781 1.001021.9932234 0 .8216755-.79146 1.0312369-1.476677 1.0312369-.898677 0-1.755442.5390113-2.375354 1.1433278-.77294.7563703-1.111162 1.722302-1.111162 2.7857041v4.8023668c0 .5507077-.34602.9922487-.920121.9922487h-.157902c-.575075 0-.92207-.441541-.92207-.9922487v-5.078208c0-1.9494081.957159-3.5410998 2.553725-4.6590853.93834-.6649872 2.060595-1.0210154 3.210675-1.0185657zm-14.218983 9.5179849c.728104.2514736 1.557577.2163842 2.305175.0877233.38111-.1618009 1.358738-.5848224 1.717429-.5224413l.057507.009747.050685.0243676c.219308.1062427.42887.2553725.540961.4766303.26317.5185425.136458 1.0400092-.378185 1.3353445l-.170574.0974704c-1.897748 1.086795-3.91636.9357159-5.8072863-.0779763-.9045253-.4854026-1.5965652-1.2047342-2.1063354-2.0829425l-.1198886-.2046879c-1.21838-2.0917148-1.0526803-4.2925965.3206776-6.2819675.4737062-.6871663 1.093618-1.21838 1.8178231-1.6345786l.2748665-.1559527c1.7866321-1.0234392 3.7019261-.9542352 5.5372931-.0565328.986401.4834532 1.785658 1.2037595 2.336366 2.1492224l.09942.1705732c.399629.688141-.117939 1.2866093-.653052 1.6969597-.621861.4746809-1.247621 1.0468321-1.84414 1.5556276-1.326572 1.1365049-2.651195 2.2759339-3.978742 3.4134136zm-1.7174282-1.1969366c1.4844742-1.2622417 2.9689482-2.5254581 4.4495242-3.7935481.505871-.4317939 1.060478-.8811324 1.563425-1.3363192-.403528-.5029473-1.076073-.8665119-1.64725-1.0819215-1.154049-.4356927-2.291529-.2894871-3.3500576.3158041-1.3840797.7924344-1.9757251 2.0566255-1.9240658 3.6278484.0214435.6189371.1890926 1.215456.520492 1.7417961.1169645.1851938.2466001.3606405.3879322.5263402z" fill="#394d54" mask="url(#m)"/></g></svg>