<svg xmlns="http://www.w3.org/2000/svg" xmlns:xlink="http://www.w3.org/1999/xlink" viewBox="0 0 102.351 17.351" fill="#fff" fill-rule="evenodd" stroke="#000" stroke-linecap="round" stroke-linejoin="round"><use xlink:href="#A" x="1.175" y="1.175"/><symbol id="A" overflow="visible"><path d="M100 12.35v1.775h-.25V12.75l-.5 1.375h-.375l-.5-1.375v1.375h-.25l-.009-1.775h.455l.501 1.41.474-1.41H100m-2.079 0v.26h-.585v1.54h-.302v-1.54h-.585v-.26h1.471m-7.56-2.687c.455-1.472.455-2.339.019-2.905-.325-.39-.799-.585-1.517-.585-1.601 0-2.488.91-3.203 3.188-.459 1.494-.459 2.362-.023 2.924.302.371.802.566 1.517.566 1.579 0 2.492-.89 3.207-3.188zm6.261-3.295c.627.784.761 1.777.39 2.993-1.04 3.36-4.961 5.286-10.771 5.286-3.467 0-5.825-.673-6.868-1.972-.627-.78-.734-1.796-.367-3.012 1.04-3.36 4.961-5.286 10.771-5.286 3.444 0 5.829.692 6.846 1.991M74.953 4.701h6.154l-7.174 9.644h-9.445c-.046-.283-1.173-9.296-1.215-9.643h5.787c.042.283.845 6.762.845 6.762l5.049-6.761M55.861 9.663c.455-1.472.478-2.339.023-2.905-.306-.39-.802-.585-1.494-.585-1.605 0-2.515.91-3.207 3.188-.478 1.494-.478 2.362-.023 2.924.302.371.803.566 1.495.566 1.605 0 2.515-.89 3.207-3.188zm6.284-3.295c.631.784.761 1.777.371 2.993-1.04 3.36-4.965 5.286-10.748 5.286-3.467 0-5.829-.673-6.872-1.972-.627-.78-.757-1.796-.39-3.012 1.063-3.36 4.984-5.286 10.771-5.286 3.467 0 5.829.692 6.868 1.991m-18.113-.474c.237.302.367.604.302 1.04l-2.404 7.431h-6.371l2.255-6.933c.084-.302-.023-.562-.195-.757-.306-.371-.956-.608-3.188-.455l-2.687 8.145h-6.368c.061-.172 2.989-9.12 3.031-9.208 2.213-.39 5.137-.757 8.172-.757 4.116 0 6.627.497 7.453 1.495m-23.25 2.037c.13-.608-.065-1.063-.283-1.323-.237-.306-.761-.696-1.842-.696-1.537 0-2.687.738-3.077 1.972l-.757 2.84 5.959-2.794zm5.351-.023c0 .455-.107.845-.195 1.017l-11.31 2.515s-.111.543.302.825c.543.39 1.128.497 2.121.539 2.45.107 5.768-1.322 6.697-1.732-.149.474-1.105 2.557-1.147 2.664-.413.153-2.71.887-7.216.91-1.712.023-4.766-.195-6.024-1.777-.627-.78-.738-1.884-.306-3.272 1.021-3.314 4.835-5.221 10.423-5.221 3.123 0 5.16.585 6.093 1.731.367.478.562 1.085.562 1.8M4.441 0h6.307L6.303 14.345H0L4.441 0" fill="#003d7b" fill-rule="nonzero" stroke="none"/></symbol></svg>