<svg xmlns="http://www.w3.org/2000/svg" xmlns:xlink="http://www.w3.org/1999/xlink" viewBox="0 0 101 34" fill="#fff" fill-rule="evenodd" stroke="#000" stroke-linecap="round" stroke-linejoin="round"><use xlink:href="#A" x=".5" y=".5"/><symbol id="A" overflow="visible"><g fill-rule="nonzero" stroke="none"><path d="M0 0h100v33H0z" fill="#e32726"/><path d="M43.563 11.655c3.099 0 5.21 2.152 5.21 5.117v7.993H45.25v-7.336c0-1.706-1.508-2.724-2.966-2.724-1.886 0-2.905 1.403-2.905 2.724v7.336h-3.523V11.871h3.524l-.001 1.848.001-.001-.001.002c1.027-1.378 2.707-2.066 4.183-2.066m30.25.217l-3.185 8.783-3.185-8.783h-4.024l5.279 12.889h3.86l5.279-12.889h-4.024zm-39.477 10.65c-1.14 1.326-3.578 2.462-5.962 2.462-4.255 0-7.183-2.773-7.183-6.664 0-3.793 2.921-6.665 6.795-6.665 2.132 0 3.884.731 5.067 2.112.813.95 1.342 2.2 1.538 3.599l-9.006 3.755c.672.666 1.624 1.046 2.841 1.046 1.352 0 2.199-.264 3.682-1.367l2.228 1.721zm-8.996-6.766c-.548.739-.883 1.769-.714 3.085l6.154-2.566c-.498-1.075-1.461-1.804-2.73-1.804-1.154 0-2.11.475-2.71 1.284m-4.485 5.758h-8.007V8.016H9.277v16.749h11.578v-3.251zm63.307 3.468c3.88 0 6.919-2.928 6.919-6.664 0-3.78-3.018-6.664-6.871-6.664-3.88 0-6.919 2.927-6.919 6.664 0 3.779 3.018 6.664 6.872 6.664m0-10.294c1.931 0 3.443 1.595 3.443 3.63 0 2.09-1.428 3.63-3.396 3.63-1.93 0-3.443-1.595-3.443-3.63 0-2.132 1.428-3.63 3.396-3.63M57.038 24.983c3.88 0 6.919-2.928 6.919-6.664 0-3.78-3.019-6.664-6.871-6.664-3.88 0-6.919 2.927-6.919 6.664 0 3.779 3.019 6.664 6.871 6.664m0-10.294c1.931 0 3.444 1.595 3.444 3.63 0 2.09-1.428 3.63-3.396 3.63-1.93 0-3.443-1.595-3.443-3.63 0-2.132 1.427-3.63 3.395-3.63m34.523 10.076h.354v-1.531h.57v-.325h-1.493v.325h.569v1.531zm1.32 0h.342v-1.32l.569.892h.037l.57-.892v1.32h.342v-1.856h-.366l-.558.88-.558-.88h-.377v1.856z"/></g></symbol></svg>