<svg xmlns="http://www.w3.org/2000/svg" xmlns:xlink="http://www.w3.org/1999/xlink" viewBox="0 0 99 26" fill="#fff" fill-rule="evenodd" stroke="#000" stroke-linecap="round" stroke-linejoin="round"><use xlink:href="#A" x=".5" y=".5"/><symbol id="A" overflow="visible"><g fill="#000" fill-rule="nonzero" stroke="none"><path d="M46.118 20.108c0 1.17.358 1.43 1.073 1.43.683 0 1.04-.26 1.04-1.43V17.67c0-3.251-5.558-6.436-5.558-10.206V4.15c0-3.022 2.373-3.9 4.485-3.9 2.145 0 4.518.877 4.518 3.9v4.875h-3.445V4.442c0-1.17-.357-1.43-1.04-1.43-.715 0-1.073.26-1.073 1.43v2.86c0 1.657 5.558 6.663 5.558 9.003V20.4c0 3.022-2.373 3.9-4.518 3.9-2.112 0-4.485-.878-4.485-3.9v-5.33h3.445v5.038zm14.853-3.575v4.42c0 1.918-1.495 3.12-3.868 3.12s-3.867-1.202-3.867-3.12V8.147c0-1.917 1.495-3.12 3.867-3.12s3.868 1.203 3.868 3.12v6.825h-4.615v5.915c0 .846.292.91.747.91s.748-.064.748-.91v-4.354h3.12zm-3.12-8.321c0-.845-.293-.91-.748-.91s-.747.065-.747.91v4.583h1.495V8.212z"/><use xlink:href="#C"/><path d="M70.721 5.255h3.12l.747 6.468c.357 3.056.357 5.688.423 8.516h.13l.39-6.468.976-8.516h3.087l-2.568 18.591h-3.9L70.721 5.255zm17.356 11.278v4.42c0 1.918-1.495 3.12-3.868 3.12s-3.867-1.202-3.867-3.12V8.147c0-1.917 1.495-3.12 3.867-3.12s3.868 1.203 3.868 3.12v6.825h-4.615v5.915c0 .846.292.91.747.91s.748-.064.748-.91v-4.354h3.12zm-3.121-8.321c0-.845-.293-.91-.748-.91s-.747.065-.747.91v4.583h1.495V8.212z"/><use xlink:href="#C" x="27.105"/><path d="M9.458.705v3.022h-2.99v20.119H3.023V3.727H0V.705h9.458zm4.16 5.623h.065c.455-.877 1.3-1.3 2.145-1.3 2.373 0 2.405 1.397 2.405 3.348v15.47h-3.12V8.83c0-.52-.032-1.138-.683-1.138-.78 0-.813.618-.813 1.138v15.016h-3.12V.705h3.12v5.623zm6.11 17.518V5.255h3.12v18.591h-3.12zm4.615-18.591h3.12v1.073h.065c.455-.877 1.3-1.3 2.146-1.3 2.373 0 2.405 1.397 2.405 3.348v15.47h-3.12V8.83c0-.52-.032-1.138-.683-1.138-.78 0-.813.618-.813 1.138v15.016h-3.12V5.255zm9.1 18.591V.705h3.12v13.098h.13l1.69-8.548h3.12l-1.788 8.386L41.6 23.846h-3.185l-1.722-9.783h-.13v9.783h-3.12z"/></g><circle cx="21.25" cy="2" fill="#e32726" stroke="none" r="2"/></symbol><defs ><path id="C" d="M62.271 5.255h3.12v1.073h.064c.455-.877 1.3-1.3 2.146-1.3 2.47 0 2.405 1.593 2.405 3.543v6.402h-3.12V8.83c0-.52-.033-1.138-.683-1.138-.78 0-.813.618-.813 1.138v15.016h-3.12V5.255z"/></defs></svg>