<svg xmlns="http://www.w3.org/2000/svg" fill="none" viewBox="0 0 32 32"><path fill="#535966" fill-rule="evenodd" d="M21.733 30.446c-.159.865-.897 1.554-1.828 1.554H18v-2h1.781l.788-4.313.526-.201a8.897 8.897 0 0 0 2.69-1.629l.446-.39 3.93 1.433 1.823-3.324L26.83 18.7l.09-.537c.09-.543.139-1.098.139-1.664 0-.566-.05-1.121-.14-1.664l-.089-.537 3.155-2.875-1.823-3.323-3.93 1.433-.445-.39a8.904 8.904 0 0 0-2.691-1.63l-.526-.2L19.781 3H18V1h1.905c.93 0 1.67.688 1.828 1.553l.604 3.311c.826.367 1.599.836 2.305 1.391l2.97-1.083a1.84 1.84 0 0 1 2.244.86l1.906 3.473c.422.77.276 1.754-.385 2.356l-2.407 2.193a11.997 11.997 0 0 1 0 2.892l2.407 2.193c.66.602.807 1.585.385 2.355l-1.906 3.473c-.43.787-1.368 1.18-2.244.861l-2.97-1.083a10.893 10.893 0 0 1-2.305 1.391l-.604 3.31ZM15 2H9v2h6V2Zm0 26H9v2h6v-2ZM5 21h10v2H5v-2Zm10-11H5v2h10v-2Z" clip-rule="evenodd"/><path fill="#00BFB3" fill-rule="evenodd" d="M7 2a1 1 0 1 1 0 2 1 1 0 0 1 0-2Zm3 1a3 3 0 1 0-6 0 3 3 0 0 0 6 0Zm10.02 16.8c.586-.806.98-1.97.98-3.3 0-1.33-.394-2.494-.98-3.3-.588-.809-1.314-1.2-2.02-1.2v-2c1.503 0 2.777.84 3.637 2.023C22.498 13.207 23 14.793 23 16.5c0 1.707-.502 3.293-1.363 4.477C20.777 22.16 19.503 23 18 23v-2c.706 0 1.432-.391 2.02-1.2ZM4 11a1 1 0 1 0-2 0 1 1 0 0 0 2 0ZM3 8a3 3 0 1 1 0 6 3 3 0 0 1 0-6Zm0 13a1 1 0 1 1 0 2 1 1 0 0 1 0-2Zm3 1a3 3 0 1 0-6 0 3 3 0 0 0 6 0Zm2 7a1 1 0 1 0-2 0 1 1 0 0 0 2 0Zm-1-3a3 3 0 1 1 0 6 3 3 0 0 1 0-6Z" clip-rule="evenodd"/></svg>