<svg xmlns="http://www.w3.org/2000/svg" fill="none" viewBox="0 0 128 128"><path fill="#fff" d="M65.34 5.9c.27.16.82.63 1.18.26s-.07-.94-.22-1.24c-.15-.3-.66-.28-1 0-.34.28-.3.74.04.98ZM41.86 9C42.6 8.75 43 8.29 43 7.81c-.69.26-1.38.53-2.06.81a.702.702 0 0 0 .92.38ZM88 9h.07l-.72-.32A.79.79 0 0 0 88 9ZM86 9.86a.88.88 0 0 0 .7-.86.851.851 0 0 0-1-.68.67.67 0 0 0-.65.85.832.832 0 0 0 .95.69ZM83.6 7.79c.36.52.77.68 1.11.45a.68.68 0 0 0 .3-.52c-.69-.26-1.39-.49-2.09-.72.104.129.221.246.35.35.129.132.24.28.33.44ZM72.53 5.73a.77.77 0 0 0 .19.5 1.36 1.36 0 0 0 1.38.1s0-.09.07-.14a1.47 1.47 0 0 0 .61-1.25c-.7-.13-1.41-.25-2.12-.35a.93.93 0 0 0-.26.93c.036.074.08.145.13.21ZM62.14 5.27A1.94 1.94 0 0 0 62.49 4c-1.14 0-2.28.09-3.4.18a1.9 1.9 0 0 0 .64 1.49 1.79 1.79 0 0 0 2.41-.4ZM58.35 9.17c.19-.19.14-.62.18-.84-.46-.44-.79-.32-1-.08-.21.24-.39.65 0 .88a1 1 0 0 0 .82.04ZM79.26 7.14a.79.79 0 0 0 .44-1L79.64 6l-1.31-.33a1 1 0 0 0-.3 1 1 1 0 0 0 1.23.47ZM75.21 10a1.85 1.85 0 0 0 2.29 0 1.56 1.56 0 0 0 .12-2.15 2.49 2.49 0 0 0-2.58 0 1.59 1.59 0 0 0 .17 2.15ZM68.85 5.82a1 1 0 0 0 .36-.22 1 1 0 0 0 .2.33c.33.31 1.56.07 1.94-.39a1.2 1.2 0 0 0 0-1.11 58.25 58.25 0 0 0-4-.36 1.53 1.53 0 0 0-.18 1.08 1.33 1.33 0 0 0 1.68.67ZM56.69 5.63A.59.59 0 0 0 56.6 5c-.15-.11-.46-.32-.59-.15a.57.57 0 0 0 0 .59c.09.16.55.36.68.19ZM81.63 10.26a1.55 1.55 0 0 0 1.74-1 1.61 1.61 0 0 0-.67-1.38 1.832 1.832 0 0 0 0-.4.51.51 0 0 0-.76-.39c-.27.13-.51.3-.54.58a1.49 1.49 0 0 0-1 1c-.31.57.41 1.33 1.23 1.59Z"/><g clip-path="url(#a)"><path fill="#ECF0F6" d="M64 124c33.137 0 60-26.863 60-60S97.137 4 64 4 4 30.863 4 64s26.863 60 60 60Z"/><path fill="#fff" d="M115.58 51.77c-.17.06-.52.19-.46.39a.559.559 0 0 0 .48.35c.15 0 .59-.26.52-.46a.557.557 0 0 0-.54-.28ZM118.03 47.87a.95.95 0 0 0 .519-.554.947.947 0 0 0-.059-.756.791.791 0 0 0-1.16-.24c-.34.22-.72.46-.54.84.36.66.85.9 1.24.71ZM116.38 49.08c-.6.33-.52.9-.49 1.44.9.43 1.31.44 1.63 0a.84.84 0 0 0 0-1 1.003 1.003 0 0 0-1.14-.44ZM118.03 60.66a1.565 1.565 0 0 0-.62-1.82c-.52-.35-1.38.18-1.89.9a1.558 1.558 0 0 0 .55 1.93 1.6 1.6 0 0 0 1.96-1.01ZM118.32 55.35c-.433-.433-.89-.84-1.37-1.22a.778.778 0 0 0-1.12.18.807.807 0 0 0 .1 1.13c.189.176.348.382.47.61a1.22 1.22 0 0 0 1.45.74c.64-.08.87-.54.47-1.44ZM118.15 64.55a.88.88 0 0 0-.55-1 .65.65 0 0 0-.89.19c-.41.52-.17 1 .19 1.46.56-.08 1.13-.01 1.25-.65ZM115.7 67.16a.876.876 0 0 0 .17-.79c-.09-.18-.66-.51-.87-.4a.996.996 0 0 0-.16.92c.19.18.7.46.86.27ZM109.41 38.86a.791.791 0 0 0 .392.468.778.778 0 0 0 .608.042 1.001 1.001 0 0 0 .57-1.28 2.562 2.562 0 0 0-.92-.35c-.49-.01-.79.61-.65 1.12ZM110.94 34.73a.804.804 0 0 0-.513.413.801.801 0 0 0-.037.657.829.829 0 0 0 1 .49.862.862 0 0 0 .51-1.1.665.665 0 0 0-.366-.467.672.672 0 0 0-.594.007ZM114.8 71.24a1.002 1.002 0 0 0 .44-1.15 1.003 1.003 0 0 0-1-.48 41.6 41.6 0 0 1-.21 1.61.768.768 0 0 0 .77.02ZM76.67 11.92a.86.86 0 0 0-.59 1.06.66.66 0 0 0 .93.53.809.809 0 0 0 .262-1.487.83.83 0 0 0-.602-.103ZM105.88 35.75c.16-.15.28-.31.25-.46-.03-.15-.48-.31-.8-.32l.55.78ZM107.34 27.07a1.294 1.294 0 0 0 1-1.35 1.09 1.09 0 0 0-1-.88c-.86.11-1.47.63-1.39 1.2a1.462 1.462 0 0 0 1.39 1.03ZM107.93 24.56c.185.19.382.366.59.53a1.234 1.234 0 0 0 1.42.33c-.85-1-1.75-2-2.67-3a1.668 1.668 0 0 0-.07.32c0 .401.089.797.26 1.16.112.249.272.473.47.66ZM109.58 27.91c.52.488 1.09.92 1.7 1.29a2.065 2.065 0 0 0 .75 2.15 1.93 1.93 0 0 0 2.13-.25 60.788 60.788 0 0 0-3.81-5.2l-.3.11a1.166 1.166 0 0 0-.745 1.397c.048.188.143.36.275.503ZM104.64 31.01a1.867 1.867 0 0 0-1.45-.64 1.62 1.62 0 0 0-1 .67c.65.75 1.28 1.51 1.89 2.29a1.497 1.497 0 0 0 1-1.41 1.267 1.267 0 0 0-.14-.4l.48.3a.325.325 0 0 0 .267.096.33.33 0 0 0 .243-.146.999.999 0 0 0-.26-1.29.772.772 0 0 0-1.03.53ZM103.78 19.77c.078.128.172.245.28.35a1.475 1.475 0 0 0 1.24.38c-.85-.81-1.73-1.59-2.62-2.35a.547.547 0 0 0 0 .14c-.08.83.35 1.66 1.1 1.48ZM120.61 44.28a.827.827 0 0 0 0 .35.628.628 0 0 0 .38.55 57.13 57.13 0 0 0-1.24-3.39 1.42 1.42 0 0 0-.68 1.66 1.46 1.46 0 0 0 1.54.83ZM116.73 38.63c-.66.12-1 .56-.92 1.05.08.49 1.11 1.25 1.49 1.19a1.127 1.127 0 0 0 .9-1.08 1 1 0 0 0 .58-.07l.06-.06c-.22-.5-.44-1-.68-1.49a.705.705 0 0 0-.17.06.87.87 0 0 0-.37.43 1.53 1.53 0 0 0-.89-.03ZM119.03 53.68a.673.673 0 0 0 .24-.21h.1c.26-.1.59-.49.56-.71a.85.85 0 0 0-.35-.44.65.65 0 0 0-.07-.21 1.572 1.572 0 0 0-1.66-.36.793.793 0 0 0-.429.848c.02.112.064.218.129.312.48.81.92 1.06 1.48.77ZM114.03 43.35a1.125 1.125 0 0 0 .7.54c-.01.08-.01.16 0 .24a1.738 1.738 0 0 0 1.8 1.06c.78-.15 1.2-1 1-2a1.247 1.247 0 0 0-1.37-1.09 1.695 1.695 0 0 0-1.67-.38 1.461 1.461 0 0 0-.46 1.63ZM113.52 33.74a.89.89 0 0 0-.903 1.108 1.009 1.009 0 0 0 .863.772 1.082 1.082 0 0 0 .86-1.29.692.692 0 0 0-.284-.47.705.705 0 0 0-.536-.12ZM116.64 38.14a.872.872 0 0 0 .51-.85c.2.045.405.069.61.07-.52-1-1.08-2.09-1.66-3.11a1.366 1.366 0 0 0 0 .51.431.431 0 0 0 .18.28.804.804 0 0 0-.53.91v.07a1.867 1.867 0 0 0-.72 1.66 1.115 1.115 0 0 0 .7.596 1.113 1.113 0 0 0 .91-.136ZM89.15 18.64a.31.31 0 0 0 .06-.49c-.15-.19-.3-.24-.51-.08a.32.32 0 0 0-.06.52.309.309 0 0 0 .51.05ZM71.55 14.03c.27-.07.37-.68.36-.93a.6.6 0 0 0-.87-.41.83.83 0 0 0-.22.74c.06.2.46.66.73.6Z"/><path fill="#fff" d="M72.9 14.55c.74.13 1.49.27 2.22.43a1.36 1.36 0 0 0 .16-.84.82.82 0 0 0 .76-.42c.31-.51 0-.91-.39-1.34-.53.13-1.13.15-1.16.85-.01.06-.01.12 0 .18a2 2 0 0 0-1.45.55.75.75 0 0 0-.14.59ZM103.03 23.01a1.863 1.863 0 0 0 .84-1.47c-.07-.48-.49-.67-1.16-.53-.67.14-1 .48-.93 1 .14.73.67 1.15 1.25 1ZM81.21 16.6c1.53.93 2.43-.08 2.87-1.22.13-.38.13-.79 0-1.17a1.731 1.731 0 0 0-.92-1c-.09-.22-.33-.51-.5-.51a.34.34 0 0 0-.15.07 1.38 1.38 0 0 0-.92-.54 2.591 2.591 0 0 0-2.58 1.74 2.1 2.1 0 0 0 .21 2c.049.06.106.115.17.16l.67.23c.396-.004.788.078 1.15.24ZM85.55 16.66a.9.9 0 0 0 0-1.26 2.771 2.771 0 0 0-.87.26.53.53 0 0 0 0 .87c.24.23.53.42.87.13ZM48.53 15.48a1 1 0 0 0-1.38-.52 1.069 1.069 0 0 0-.69 1.6c.066.173.165.333.29.47.59-.22 1.19-.43 1.79-.63a1.6 1.6 0 0 0-.01-.92ZM120.27 53.45a1.768 1.768 0 0 0 1.52 1c.39 0 1-.05 1-.56a1.76 1.76 0 0 1 .23-.69c-.12-.68-.25-1.36-.4-2 0 0-.1.07-.13.12a1.449 1.449 0 0 1-1.34.86 1.335 1.335 0 0 0-.88 1.27ZM120.71 47.68c-1.17.07-1.46.86-.83 2.22-.058.093-.125.18-.2.26a.738.738 0 0 0-.11 1 .81.81 0 0 0 .84.44c.92 0 1.22-.32 1.15-1.25v-.81a.65.65 0 0 0 .19 0 .998.998 0 0 0 .42-.45c-.17-.67-.36-1.32-.56-2a1.342 1.342 0 0 0-.28.39.999.999 0 0 0-.5.11l-.12.09ZM32.63 24.42a1.26 1.26 0 0 0-.87 1.52c.62-.54 1.25-1.06 1.9-1.56a1.52 1.52 0 0 0-1.03.04ZM39.03 20.12a.87.87 0 0 0 .48-1.11.88.88 0 0 0-1.06-.61.91.91 0 0 0-.58 1.08 1 1 0 0 0 1.16.64ZM32.03 21.05c.3.15 1.17-1.05 1.06-1.42-.11-.37-.94-.35-1.42.11-.48.46.04 1.16.36 1.31ZM113.34 38.91a1.215 1.215 0 0 0-.09-.34 1.052 1.052 0 0 0-1.39-.32 1.148 1.148 0 0 0-.63 1.59c.28.58 1 .92 1.37.71l.07-.05a.66.66 0 0 0 .46 0 .932.932 0 0 0 .64-1.12.87.87 0 0 0-.43-.47ZM108.38 29.95c.22 0 .5-.31.6-.55a.682.682 0 0 0-.17-.65c-.45-.33-.85-.14-1.2.29.11.44.18.94.77.91ZM114.97 58.35c.11-.59-.38-.71-.82-.85.06.46.13.93.18 1.4a1.006 1.006 0 0 0 .64-.55ZM112.97 48.35c.15.64.35 1.15 1 1.11a.828.828 0 0 0 .61-.5 1.314 1.314 0 0 0-.31-1c-.5-.38-.86.12-1.3.39ZM110.55 41.62a1 1 0 0 0-1.27-.41l-.12.09c.33.65.64 1.31.95 2a.821.821 0 0 0 .45-1 .85.85 0 0 0-.01-.68ZM107.4 33.73a.856.856 0 0 0-.795-.606.861.861 0 0 0-.795 1.246 1.001 1.001 0 0 0 1.18.39.747.747 0 0 0 .17-.12c-.005.07-.005.14 0 .21a1.574 1.574 0 0 0 1.57 1 1.237 1.237 0 0 0 .74-1.45c-.17-.82-.55-1.16-1.18-1.05a1.422 1.422 0 0 0-.85.57.95.95 0 0 0-.04-.19ZM94.95 21.94a1.51 1.51 0 0 0 .23 1.13 1.48 1.48 0 0 0 1.82-.42c.41-.48.32-1-.23-1.53a1.5 1.5 0 0 0 0-.42c-.15-.66-.7-.9-1.52-.69a1.21 1.21 0 0 0-.78 1.22c.096.274.261.52.48.71ZM104.15 25.03a1.183 1.183 0 0 0 .21-1.52 1.34 1.34 0 0 0-1.55-.11c-.37.37-.21 1.16.35 1.68a.651.651 0 0 0 .99-.05ZM96.4 19.35c.57-.68.66-1.36.24-1.71a1.5 1.5 0 0 0-1.76.25 1.47 1.47 0 0 0 .29 1.56 1 1 0 0 0 1.23-.1ZM92.95 18.8a.45.45 0 0 0-.24-.51.64.64 0 0 0-.63.26c-.09.18.15.44.33.51.18.07.49-.04.54-.26ZM101.59 26.29a1.314 1.314 0 0 0-.18-.23 1.001 1.001 0 0 0-1.24 0 1.228 1.228 0 0 0-.06 1.35 1.198 1.198 0 0 0 1.44-.11.534.534 0 0 1 0-.08c.395.36.884.603 1.41.7-.12.56-.31 1.12.41 1.36a.89.89 0 0 0 1.1-.34.633.633 0 0 0 .1-.52 9.724 9.724 0 0 0-.76-1.07c.25-1 0-1.83-.59-2a1.767 1.767 0 0 0-1.63.94ZM98.42 26.98c.44-.47.36-1-.23-1.55a.86.86 0 0 0-.79-.25.72.72 0 0 0 0-.38 1 1 0 0 0-1.14-.69.79.79 0 0 0-.59.68c.9.72 1.78 1.46 2.63 2.24l.12-.05ZM65.21 5.93c.27.16.82.63 1.19.25s-.08-.93-.23-1.23c-.15-.3-.66-.28-1 0-.34.28-.35.74.04.98ZM114.69 73.62a.269.269 0 0 0-.34-.08c-.08 0-.11.24-.07.3.04.06.17.17.28.12a.27.27 0 0 0 .13-.34ZM29.09 18.05c.12 0 .55 0 .63-.27.08-.27-.31-.49-.44-.5a.599.599 0 0 0-.53.27c-.07.18.18.43.34.5ZM27.78 21.25c.51 0 .87-1.16.59-1.41s-1.4.12-1.39.63a.87.87 0 0 0 .8.78ZM25.19 25.25a.85.85 0 0 0 .35-.68.539.539 0 0 0-.77-.42c-.21.1-.73.46-.53.93.2.47.79.27.95.17ZM36.54 18.59a1 1 0 0 0 .86-.29 1 1 0 0 0-.46-1.47.87.87 0 0 0-1.07 1 1.18 1.18 0 0 0 .67.76ZM31.39 17.09a6.781 6.781 0 0 0 1.64-.74 1.72 1.72 0 0 0 .45-1.94c-.17-.36-.44-.58-.8-.48a4.83 4.83 0 0 0-2.51 1.37 1.67 1.67 0 0 0-.2.41c-.19 1 .49 1.64 1.42 1.38ZM49.54 14.35a.87.87 0 0 0 1.07.56.8.8 0 0 0 .16-.08c.086.311.28.581.55.76.8-.21 1.6-.41 2.41-.58a1.46 1.46 0 0 0 .08-.48c0-1.15-.69-1.82-1.41-1.85a2 2 0 0 0-1.44.92.79.79 0 0 0-1-.37.9.9 0 0 0-.42 1.12ZM45.83 11.54c.44.29.87.46.87 1.14 0 .49.48.61 1 .56.41-.51.37-1-.08-1.27.269-.467.49-.96.66-1.47a2 2 0 0 0-.56-1.51 1.75 1.75 0 0 0 1.08-.19c1.09-.53 1.3-1 1-2a1.48 1.48 0 0 0-.89-.89c-.92.24-1.83.5-2.74.78a.77.77 0 0 0 .49 0l.18-.1a1.749 1.749 0 0 0-.08 1.47c.071.173.173.332.3.47a2.26 2.26 0 0 0-1.85 1.06 1.63 1.63 0 0 0 .62 1.95ZM38.7 13.79a.942.942 0 0 0 .22-.12c-.056.24-.056.49 0 .73a2.69 2.69 0 0 0 1 1.57c.18.157.312.361.38.59a1.11 1.11 0 0 0 1.61.92.56.56 0 0 0 0 .32 1 1 0 0 0 1.22.29 1 1 0 0 0 .68-1.26.84.84 0 0 0-1.15-.4 1.59 1.59 0 0 0-.27-.8 1.6 1.6 0 0 1-.36-1.13 1.83 1.83 0 0 0-.84-1.52 1.56 1.56 0 0 0-1.7 0l-.13.1a1.5 1.5 0 0 0 0-1.08c-.21-.5-.83-.65-1.56-.38-.55.2-1 .87-.82 1.29a1.59 1.59 0 0 0 1.72.88ZM41.74 9.04c.74-.27 1.15-.72 1.13-1.2-.69.26-1.37.53-2.05.81a.691.691 0 0 0 .92.39ZM42.12 9.1a.88.88 0 0 0-.47 1.12.923.923 0 0 0 1.72-.67 1 1 0 0 0-1.25-.45ZM124.03 63.43a.249.249 0 0 0-.12.08.998.998 0 0 0 .06 1.21v-.76c0-.26.06-.34.06-.53ZM121.53 58.5a1.62 1.62 0 0 0 0-1.47 1.649 1.649 0 0 0-2.09-.55 1.39 1.39 0 0 0-.63 1.74 2.183 2.183 0 0 0 1.89.85.93.93 0 0 0-.22.63c.06.5-1.09.3-1.05 1 .04.7-.74 1-.59 1.84.15.84.81 1.55 1.46 1.18.57-.377.988-.944 1.18-1.6.23-.5-.32-.94.3-1.12.62-.18 1.85-.7 1.38-1.8a1.468 1.468 0 0 0-1.63-.7ZM123.39 56.56v-.05c.06.16.14.32.21.48 0-.18 0-.36-.07-.54l-.14.11ZM122.03 71.06c0-1.05-.4-1.78-1-1.8a1.75 1.75 0 0 0-1.44 1.5c0 .73.32 1 1.78 1.06 0 .57 0 1.16.71 1.22a.891.891 0 0 0 1-.58.63.63 0 0 0 0-.54 10.55 10.55 0 0 0-1.05-.86ZM123.74 69.35v-.67a.807.807 0 0 0 0 .67ZM51.61 8.1a2.48 2.48 0 0 0 .46 1.87c.217.339.54.596.92.73a1.9 1.9 0 0 0 1.55-.21c.55-.29 1.16-.11 1.54-.6a2.57 2.57 0 0 0 .15-3.1 2.09 2.09 0 0 0-1.72-1c-.72 0-1 .89-1.7 1.17a2.28 2.28 0 0 0-.35.17.77.77 0 0 0-.53-.65.66.66 0 0 0-1 .29c-.13.32-.13.68 0 1a.66.66 0 0 0 .68.33ZM117.43 74.14a.998.998 0 0 0-.55 1.22 1.23 1.23 0 0 0 1.53.6.84.84 0 0 0 .62-1.05 1.432 1.432 0 0 0-1.6-.77ZM122.12 74.18a1.638 1.638 0 0 0-.78 2 1.693 1.693 0 0 0 1.2.95c.21-1 .41-1.95.58-2.94a1.44 1.44 0 0 0-1-.01ZM115.58 87.01a.66.66 0 0 0-.9.19c-.4.52-.16 1 .19 1.47.56-.09 1.13 0 1.25-.66a.891.891 0 0 0-.54-1ZM116.62 78.78a1.17 1.17 0 0 0-.41 1.75 1.157 1.157 0 0 0 1.221.739c.17-.02.334-.078.479-.169a1.358 1.358 0 0 0 .52-1.86 1.428 1.428 0 0 0-1.81-.46ZM119.1 87.35a.52.52 0 0 0 .14.11c.09-.21.17-.42.25-.64a.27.27 0 0 0-.18 0c-.28.05-.28.46-.21.53ZM120.26 67.06a1.86 1.86 0 0 0 .47-1.62c-.18-.45-.63-.54-1.25-.26s-.91.71-.68 1.2c.32.68.93.97 1.46.68ZM87.86 16.23c.352.072.71.109 1.07.11a1.26 1.26 0 0 0 1.17-1 1.38 1.38 0 0 0-.92-1.5 1.23 1.23 0 0 0-.9.16 1.63 1.63 0 0 0-.42 2.23ZM87.9 9h.06l-.72-.32a.81.81 0 0 0 .66.32ZM90.61 10.59a.62.62 0 0 0 .72.46h.07a.94.94 0 0 0 .64-.06c-.61-.32-1.22-.64-1.84-1 .069.23.209.434.4.58l.01.02ZM101.23 16.97c-.5-.39-1-.79-1.5-1.17a1.33 1.33 0 0 0 .41 1 1.47 1.47 0 0 0 1.09.17ZM85.95 10.28c-.25.09-.35.4-.39.7a1.59 1.59 0 0 0-.48 2.09 2 2 0 0 0 2.4.34 1.53 1.53 0 0 0 .37-2 1.68 1.68 0 0 0-1-.81 1.001 1.001 0 0 0-.9-.32ZM85.89 9.89a.88.88 0 0 0 .68-.89.841.841 0 0 0-1-.68.66.66 0 0 0-.64.85.831.831 0 0 0 .96.72ZM100.03 19.35a1.444 1.444 0 0 0 .12 1.13c.57 0 1.11.25 1.37-.35a.878.878 0 0 0-.3-1.1.99.99 0 0 0-.25-.14 1.308 1.308 0 0 0 0-.89 1.24 1.24 0 0 0-1.35-.13.64.64 0 0 0-.09 1 2 2 0 0 0 .5.48ZM99.61 24.04a1.83 1.83 0 0 1 1.13-.38c.18 0 .43-.44.43-.69a1.011 1.011 0 0 0-.4-.73.8.8 0 0 0-.7.12c-.36.273-.695.578-1 .91-.27.27-.2.54.12.81.14-.01.34.04.42-.04ZM83.47 7.82c.36.51.78.68 1.11.45a.69.69 0 0 0 .31-.52c-.69-.26-1.39-.49-2.09-.73.098.134.216.252.35.35.129.133.236.285.32.45ZM97.79 21.6c.16.22.58.57.78.46a.88.88 0 0 0 .34-.73c0-.2-.52-.66-.75-.59-.23.07-.45.75-.37.86ZM91.44 15.06c0 .1.3.31.36.28a.566.566 0 0 0 .13-.08c-.04.351.045.705.24 1a1.1 1.1 0 0 0 1.59-.16c.53-.52.51-.94-.1-1.53-.61-.59-1.11-.6-1.48-.21a.659.659 0 0 0-.12.22.37.37 0 0 0-.34-.17c-.34.03-.27.48-.28.65ZM96.03 15.74a1.35 1.35 0 0 0 1.12-1.13c.062.215.187.407.36.55a.651.651 0 0 0 .94-.28c-1.09-.77-2.2-1.51-3.35-2.2a1.77 1.77 0 0 0-1 1.8 1.87 1.87 0 0 0 1.93 1.26ZM72.41 5.76a.679.679 0 0 0 .19.49 1.34 1.34 0 0 0 1.37.11.607.607 0 0 0 .07-.14 1.46 1.46 0 0 0 .61-1.25c-.7-.13-1.41-.25-2.12-.35a.9.9 0 0 0-.25.93.798.798 0 0 0 .13.21ZM58.79 9.56c.14.17.3.33.46.5a2.78 2.78 0 0 0-.26 1.57 3.152 3.152 0 0 0-.36.19 1.54 1.54 0 0 0-.24 2c.172.163.387.274.62.32l1.1-.1c.187-.088.351-.218.48-.38a1.72 1.72 0 0 0 .38-1.22l.22-.07c.87-.27 1-.94.92-1.72.48-.1 1.07 0 1.13-.69a.78.78 0 0 0-.55-.88c-.67-.24-.9.3-1.15.77l-.88-.22v-.24c.136-.077.266-.164.39-.26.53-.45 1.09-.88 1.63-1.3.87.93 1 .92 1.64 0 .247.079.513.079.76 0a.76.76 0 0 0 .45-1 1.15 1.15 0 0 0-1.31-.8 1 1 0 0 0-.66 1.13 1.49 1.49 0 0 0-.53.07c-.82-1.37-1.73-1.27-2.58.2a1.151 1.151 0 0 1-.32 0 .68.68 0 0 0-.76.28 1.4 1.4 0 0 0-.84.28 1.26 1.26 0 0 0 .26 1.57ZM65.25 11.25a1.14 1.14 0 0 0-.61 1.58c.132.318.364.585.66.76.05.093.111.18.18.26.67 0 1.34 0 2 .07.125-.086.24-.187.34-.3a1.162 1.162 0 0 0-.17-1.7 1.509 1.509 0 0 0-1.09-.41 1.06 1.06 0 0 0-1.31-.26ZM62.03 5.35a2 2 0 0 0 .36-1.26c-1.14 0-2.28.1-3.41.19a1.89 1.89 0 0 0 .65 1.49 1.78 1.78 0 0 0 2.4-.42ZM55.77 13.96a.69.69 0 0 0-.52.71c.52-.09 1-.2 1.58-.28a.92.92 0 0 0-1.06-.43Z"/><path fill="#fff" d="M58.22 9.2c.2-.19.15-.62.19-.84-.46-.45-.79-.32-1-.08-.21.24-.4.65 0 .87a1 1 0 0 0 .81.05ZM69.56 7.96a.86.86 0 0 0-.34 1.16.72.72 0 0 0 1 .39 2.25 2.25 0 0 0 .6 1.41c.082.078.172.145.27.2v.1c.22.57.67.85 1.13.7a1.83 1.83 0 0 0 .93-1.62 1.45 1.45 0 0 0-.36-1.93 1.66 1.66 0 0 0-2.14 0 .91.91 0 0 0-1.09-.41ZM79.14 7.17a.79.79 0 0 0 .43-1 .598.598 0 0 0-.06-.11c-.43-.12-.87-.22-1.31-.33a.92.92 0 0 0-.29 1 1 1 0 0 0 1.23.44ZM75.09 10.06a1.85 1.85 0 0 0 2.29 0 1.56 1.56 0 0 0 .11-2.15 2.45 2.45 0 0 0-2.57 0 1.59 1.59 0 0 0 .17 2.15ZM68.72 5.85c.136-.053.262-.131.37-.23a.83.83 0 0 0 .2.34c.33.31 1.56.06 1.93-.39a1.14 1.14 0 0 0 0-1.11c-1.32-.16-2.65-.29-4-.37a1.55 1.55 0 0 0-.17 1.09 1.32 1.32 0 0 0 1.67.67ZM56.56 5.66a.55.55 0 0 0-.09-.6c-.15-.11-.46-.32-.58-.15a.55.55 0 0 0 0 .59c.08.12.55.33.67.16ZM81.51 10.29a1.55 1.55 0 0 0 1.74-1 1.629 1.629 0 0 0-.67-1.38 2.429 2.429 0 0 0 0-.4.51.51 0 0 0-.77-.39.82.82 0 0 0-.54.58 1.48 1.48 0 0 0-1 1c-.3.56.42 1.27 1.24 1.59Z"/><path fill="#00BFB3" d="M64.42 114.14c27.702 0 50.16-22.457 50.16-50.16 0-27.702-22.458-50.16-50.16-50.16-27.703 0-50.16 22.458-50.16 50.16 0 27.703 22.457 50.16 50.16 50.16Z"/><path fill="#7DE2D1" d="M14.27 63.98h50.15V13.82a50.15 50.15 0 0 0-50.15 50.16ZM114.58 63.98H64.42v50.16a50.161 50.161 0 0 0 50.16-50.16Z"/><path fill="#42D4C6" d="M88.03 75.26a.655.655 0 0 0-.08-.92.651.651 0 0 0-.92.08.72.72 0 0 0 .13.91.62.62 0 0 0 .87-.07ZM87.82 83.94a1.07 1.07 0 0 0 0-1.38c-.23-.2-.75-.08-1.06.24a.77.77 0 0 0-.09 1.06 1 1 0 0 0 1.15.08ZM85.28 71.93a1.061 1.061 0 0 0-.11-.21c-.19.5-.39 1-.61 1.47a1.17 1.17 0 0 0 .52-.36.999.999 0 0 0 .2-.34 1.6 1.6 0 0 0 1.25.81 1.14 1.14 0 0 0 .92-1.05c0-.37 0-.7.43-.91.43-.21.22-.5 0-.78-.45-.09-.72.09-.76.47a6.309 6.309 0 0 0-1.13.06 1.4 1.4 0 0 0-.71.84ZM84.03 76.42c.088.245.24.463.44.63a1 1 0 0 0-.42.25 1.28 1.28 0 0 0 .09 1.59.94.94 0 0 0 1.33 0 1.138 1.138 0 0 0 .11-1.62 1.06 1.06 0 0 0-.43-.2.56.56 0 0 0 .23-.46.62.62 0 0 0-.43-.68c-.4-.18-.6.19-.92.49ZM85.58 89.56a.52.52 0 0 0 0 .77.58.58 0 0 0 .84 0 .63.63 0 0 0-.05-.86.56.56 0 0 0-.79.09ZM88.29 78.43a1.32 1.32 0 0 0-1.67.08 1.25 1.25 0 0 0 .16 1.58 1 1 0 0 0 1.36 0 1.29 1.29 0 0 0 .15-1.66ZM84.86 82.99c-.11.16-.28.46-.09.64.19.18.51.1.72 0 .21-.1.2-.47 0-.66a.39.39 0 0 0-.63.02ZM83.21 99.58a.81.81 0 0 0 .12-1.07.94.94 0 0 0-1.08 0c-.26.27-.13.81.27 1.17a.449.449 0 0 0 .69-.1ZM82.82 90.43a.62.62 0 0 0 .11.85.46.46 0 0 0 .69-.12.581.581 0 0 0 0-.85.53.53 0 0 0-.8.12ZM83.83 74.64c.124-.06.235-.14.33-.24a.92.92 0 0 0 .23-.85c-.18.37-.36.73-.56 1.09ZM83.35 81.95a1.001 1.001 0 0 0 1.51-.15 1 1 0 0 0 0-1.53 1.19 1.19 0 0 0-1.58 0 1.21 1.21 0 0 0 .07 1.68ZM90.46 69.09a1.24 1.24 0 0 0-1.44.2.7.7 0 0 0 .12 1 .76.76 0 0 0 1.22-.1.84.84 0 0 0 .1-1.1ZM83.03 85.57c.4.17.87.14 1 .3.13.16.28.39 0 .6-.28.21-.34.75.13 1.26.47.51 1.36.35 1.47-.14.11-.49-.15-.69 0-.8.15-.11.57-.15.61-.48.04-.33-.84-.85-1-.86-.16-.01-.62.17-.7-.16-.08-.33.07-.75-.21-1s-.9-.84-1.44-.61c-.54.23-.2.63-.3.95a.77.77 0 0 0 .44.94ZM86.19 68.04c.245.204.543.333.86.37a.55.55 0 0 0 .07.71.64.64 0 0 0 .85-.08.6.6 0 0 0 0-.84l-.1-.07a1.08 1.08 0 0 0 .23-1.15.244.244 0 0 0 0-.08 1 1 0 0 0 1.08-.39c.12-.125.214-.27.28-.43a.51.51 0 0 0 .36.22c.41.07.79-.38.79-.8a1 1 0 0 0-.62-.89.78.78 0 0 0-.88.38 1.12 1.12 0 0 0-1.42.08 1.14 1.14 0 0 0-.26 1.19.84.84 0 0 0-.71.09 1.3 1.3 0 0 0-.29.22c-.08.49-.15.98-.24 1.47ZM83.03 88.35a.86.86 0 0 0 .08-1.14 1.309 1.309 0 0 0-1.58.21.82.82 0 0 0 .29 1.08.75.75 0 0 0 1.21-.15ZM80.83 103.35a.429.429 0 0 0 0-.63.452.452 0 0 0-.68-.07.52.52 0 0 0-.16.38.527.527 0 0 0 .16.38.458.458 0 0 0 .68-.06ZM81.31 100.35a.69.69 0 0 0-.87 0 .88.88 0 0 0 0 1 .839.839 0 0 0 1-.11.618.618 0 0 0 .13-.474.608.608 0 0 0-.26-.416ZM90.27 80.05a1.19 1.19 0 0 0 .11 1.45.87.87 0 0 0 1.06-.25.759.759 0 0 0-.12-1.17c-.39-.31-.83-.33-1.05-.03ZM90.26 66.92a.64.64 0 0 0 0 .91.601.601 0 0 0 .84-.13.55.55 0 0 0 0-.77.54.54 0 0 0-.84-.01ZM84.44 96.18a1.19 1.19 0 0 0-.25-1.56.79.79 0 0 0-1.19.06 1 1 0 0 0 .07 1.47 1 1 0 0 0 1.37.03ZM86.55 64.45v.8a.56.56 0 0 0 0-.8ZM91.1 73.04a1.12 1.12 0 0 1-.58.59c-.44.17-.56.61-.67 1a1.1 1.1 0 0 0 .54 1.06h.1a1 1 0 0 0-.68.32c-.24.29-.13.73.27 1.09a.87.87 0 0 0 1.07.09 1.11 1.11 0 0 0 0-1.32.45.45 0 0 0-.14-.1 1.14 1.14 0 0 0 .46-.22 1.93 1.93 0 0 0 .64-1.14.86.86 0 0 1 .25-.42.78.78 0 0 0 0-1.3.38.38 0 0 0 .19-.13.67.67 0 0 0-.22-.84.702.702 0 0 0-1 0 .59.59 0 0 0 .13.84 1.14 1.14 0 0 0-.36.48ZM86.03 75.35a.809.809 0 0 0 1.27 1 .49.49 0 0 0 0-.75c-.53-.44-1.02-.52-1.27-.25ZM94.28 82.58a.54.54 0 0 0-.77.07.42.42 0 0 0 .08.67.77.77 0 0 0 .6.07c.15-.04.29-.63.09-.81ZM94.92 89.63v-.18c0-.01-.18-.1-.24 0s0 .13 0 .22.19-.01.24-.04ZM94.03 67.54a1.919 1.919 0 0 0-.55-.08.6.6 0 0 0 .08.86c.23.16.39 0 .54-.12a.4.4 0 0 0-.07-.66ZM94.64 70.35a1.251 1.251 0 0 0-.1 1.23.822.822 0 0 0 1.19-.08c.27-.27.19-.73-.2-1.11a.58.58 0 0 0-.89-.04ZM93.61 76.03a.61.61 0 0 0 1 .34.851.851 0 0 0 .27-.67.64.64 0 0 0-1.23.33h-.04ZM95.79 91l.08-.17a.54.54 0 0 0-.31-.59.76.76 0 0 0-.5-.17c-.06.27-.44.66-.22.91s.67.02.95.02ZM94.1 74.57a.62.62 0 0 0 .85 0 .7.7 0 0 0 0-.93.63.63 0 0 0-.87.91l.02.02ZM96.35 95.63a.52.52 0 0 0 0-.77c-.28-.25-.84-.3-1-.09-.16.21 0 .73.2.94a.57.57 0 0 0 .8-.08ZM97.84 77.71c0-.24-1-.38-1.23-.2-.23.18.09.7.52.85.43.15.71-.42.71-.65ZM98.03 86.35a.35.35 0 0 0 0-.48c-.07-.1-.37-.31-.58-.13-.21.18 0 .5.11.58.11.08.35.19.47.03ZM97.29 73.22c.17-.29.48-.58.15-1a.56.56 0 0 0-.77-.12.76.76 0 0 0-.27.5c-.01.41.24.54.89.62ZM96.92 80.49c0-.09-.2-.33-.37-.3-.17.03-.2.35-.16.43a.39.39 0 0 0 .33.24c.14-.01.21-.25.2-.37ZM86.67 93.68a1 1 0 0 0 0-1.41 1.32 1.32 0 0 0-1.73 0 1.37 1.37 0 0 0 0 1.68c.46.4 1.18.29 1.73-.27ZM88.44 96.35a.85.85 0 0 0-.06-1.31.82.82 0 0 0-1.12 0 1.22 1.22 0 0 0 .12 1.52.85.85 0 0 0 1.06-.21ZM89.93 100.11c.08-.08 0-.29-.05-.4-.05-.11-.3-.16-.42 0s.06.36.14.45a.292.292 0 0 0 .33-.05ZM95.2 83.03a.94.94 0 0 0 0 .7c.1.21.6.16.73-.08.056-.16.077-.331.06-.5-.34-.31-.69-.35-.79-.12ZM84.25 104.35a.24.24 0 0 0 .36-.05.72.72 0 0 0-.21-.9.527.527 0 0 0-.5.021.534.534 0 0 0-.26.429c.01.14.39.31.61.5ZM88.4 88.61a.59.59 0 0 0-.11-.78.9.9 0 0 0-1.08-.22c-.48.43-.19 1 0 1.34.19.34.9.13 1.19-.34ZM89.52 91.71a1.06 1.06 0 0 0-.13-1.24 1 1 0 0 0-1.15.18.73.73 0 0 0 0 .88c.45.4 1.02.48 1.28.18ZM90.51 94.01c.07-.18.29-.58 0-.75-.29-.17-.63.08-.78.22-.15.14-.07.43.13.6.2.17.57.17.65-.07ZM95.18 80.7a.76.76 0 0 0 .4-1.33c-.297-.3-.633-.56-1-.77a1.2 1.2 0 0 0-1.35.35c-.17.22-.22.46 0 .65.424.53 1 .917 1.65 1.11a1 1 0 0 0 .3-.01ZM96.14 65.86a1.921 1.921 0 0 0-.55-.08.58.58 0 0 0 .08.85c.23.17.39 0 .54-.12a.39.39 0 0 0-.07-.65ZM93.76 88.7a1.06 1.06 0 0 0 0-1.31 1 1 0 0 0-1.22.2.73.73 0 0 0 0 1 1 1 0 0 0 1.22.11ZM81.17 91.35c.16-.39-.1-.61-.43-.75a.66.66 0 0 0-.45.94c.35.1.74.2.88-.19ZM67.42 101.27c-.06.11-.19.25-.05.4.02.023.044.042.072.055a.223.223 0 0 0 .088.019c.03 0 .06-.007.088-.019a.217.217 0 0 0 .072-.055c.08-.09.26-.33.14-.46s-.37 0-.41.06ZM69.03 93.15v-.11a.659.659 0 0 0 .51-.16 1 1 0 0 0 .08-1.17.8.8 0 0 0-1 .09 1.843 1.843 0 0 0-.39-.24c-.39-.17-.55-.59-1-.59a1.8 1.8 0 0 0-1.78 1.26 1.49 1.49 0 0 0 .18 1.38c.31.4.92.17 1.38.43 1.13.63 1.74-.09 2.02-.89ZM69.75 98.93a.608.608 0 0 0 .89.23.898.898 0 0 0 .29-1.25c-.26-.44-.55-.36-.69-.66-.14-.3-.35-.32-.7-.25s-.86.2-.75.67c.11.47.44.47.58.42.14-.05.42.09.29.19s-.16.31.09.65ZM72.52 102.09c-.35.22-.8.36-1 .85l.24.54c-.27.49-.3 1 0 1.21a.56.56 0 0 0 .69 0c.41-.3.44-.51.21-1.06.165-.343.306-.697.42-1.06a.389.389 0 0 0-.328-.532.393.393 0 0 0-.232.052ZM93.11 84.77a1.07 1.07 0 0 0-1.43-.69c-.82.28-.39 1.07-1 1-.61-.07-.31-.54-1.12-.51-.81.03-1.28.74-1 1.21s.82.39.86.52c.04.13.07.75.53.72 1 0 .69-.89 1-1 .31-.11.87.06 1.29-.06.66-.1 1.11-.61.87-1.19ZM64.42 88.18v1.1a1 1 0 0 0 0-1.1ZM91.84 89.82c-.16-.1-.62-.32-.77-.1-.15.22.06.69.2.82a.47.47 0 0 0 .7-.12.38.38 0 0 0-.13-.6ZM66.14 89.92a.94.94 0 0 0 1.22-.11.76.76 0 0 0 .11-.16 1.13 1.13 0 0 0 .89-.74 1.11 1.11 0 0 0-1-1.14 1.08 1.08 0 0 0-1.11.75.089.089 0 0 0 0 .05h-.1a1.05 1.05 0 0 0-.01 1.35ZM66.62 98.57a.54.54 0 0 0-.46.54c0 .3.22.37.84.29a.532.532 0 0 0-.38-.83ZM65.08 94.14a.54.54 0 0 0-.51.59.535.535 0 0 0 0 .12c0 .38-.1.76.33.92a.5.5 0 0 0 .68-.24.76.76 0 0 0 0-.51c.065-.088.122-.182.17-.28-.1-.3-.26-.63-.67-.6ZM64.73 86.11h-.31v.78a.2.2 0 0 0 .07-.06 1 1 0 0 0 .24-.72ZM31.7 63.73a1.88 1.88 0 0 0-.61-.15 1 1 0 0 0 .47-.47 1.09 1.09 0 0 0-.55-1.51.88.88 0 0 0-1.21.37 1.37 1.37 0 0 0 .5 1.66c.15.04.31.04.46 0a.39.39 0 0 0 0 .31h1.1a.48.48 0 0 0-.16-.21ZM67.32 86.05c.14 0 .3-.11.54-.2-.57.09-1.14.15-1.72.2a1.06 1.06 0 0 0 1.18 0ZM103.46 68.45a1.68 1.68 0 0 0-1.78.09 1.162 1.162 0 0 0 .18 1.57 1.289 1.289 0 0 0 1.59-.09 1.152 1.152 0 0 0 .01-1.57ZM36.57 63.98h.68a.39.39 0 0 0-.08-.1c-.14-.14-.43-.02-.6.1ZM102.11 80.57a.38.38 0 0 0 0 .61c.13.1.53.3.75 0 .22-.3-.09-.56-.2-.64a.6.6 0 0 0-.55.03ZM34.24 63.72c0 .09-.05.17-.07.26h1.08c-.1-.32-.38-.38-1.01-.26ZM103.93 74.78a.5.5 0 0 0 .38-.27c0-.09-.08-.43-.25-.48-.17-.05-.42.29-.43.4a.459.459 0 0 0 .3.35ZM91.61 94.8c-.12 0-.37 0-.51.1a.72.72 0 0 0-.14 1 .71.71 0 0 0 .94 0c.2-.21.13-.71-.29-1.1ZM90.92 100.4c-.11.1-.05.32 0 .4a.539.539 0 0 0 .38.13l.11-.09a.509.509 0 0 0-.1-.43c-.07-.06-.28-.12-.39-.01ZM91.78 93.06a.999.999 0 0 0 0-.46c-.33-.25-.68-.22-.78 0a.72.72 0 0 0 0 .56.49.49 0 0 0 .78-.1ZM101.03 74.51a.998.998 0 0 0-1.36.11 1.09 1.09 0 0 0 .07 1.61.88.88 0 0 0 1.27 0 1.374 1.374 0 0 0 .02-1.72ZM100.77 88.35c-.16.21 0 .38.14.45s.31 0 .36-.06a.434.434 0 0 0 0-.4c-.1-.05-.35-.18-.5.01ZM80.03 98.96a1.29 1.29 0 0 1 .77-.29c.13 0 .3-.31.3-.48a.69.69 0 0 0-.29-.5.56.56 0 0 0-.49.09 4.57 4.57 0 0 0-.67.65c-.18.19-.13.38.1.56.08-.01.22.03.28-.03ZM80.92 80.91c.124.043.245.097.36.16.23.4.49.44.75.36.26-.08.36-.36.35-.65-.01-.29 0-.61 0-.92 0-.31 0-.69-.4-.88a.47.47 0 0 1-.18-.29 1.86 1.86 0 0 0-.24-.67c-.47.57-1 1.11-1.48 1.63a1.15 1.15 0 0 0 .84 1.26ZM98.27 67.66c.09-.11 0-.42-.09-.48s-.31-.13-.41 0a.33.33 0 0 0 0 .4c.09.06.4.18.5.08ZM81.03 88.74a.499.499 0 0 0-.76 0 .61.61 0 0 0 0 .85.571.571 0 0 0 .83-.07.53.53 0 0 0-.07-.78ZM68.26 87.57c.093.089.174.19.24.3.25.36.55.47.78.3.23-.17.29-.59-.06-1 0 0-.11 0-.14-.07-.17-.2-.18-.38.1-.49.09 0 .21 0 .3-.08a1.05 1.05 0 0 0 .6-1v-.08l.16.06c-.1.24-.2.45-.27.68a.569.569 0 0 0 .37.82.93.93 0 0 0 .63.06.9.9 0 0 0-.3.38c-.09.33.1.53.3.74.2.21.3.43.65.42a.8.8 0 0 0 .63-.93 1.159 1.159 0 0 0-.31-.53.62.62 0 0 0 0-.9.53.53 0 0 0-.31-.11 1.122 1.122 0 0 0-.06-.23 4.46 4.46 0 0 0-.43-.67c.258.024.517-.01.76-.1a4.8 4.8 0 0 0 .88.5.67.67 0 0 0 .85-.43v-.08a.5.5 0 0 0 .15-.82v-.26a21.696 21.696 0 0 1-5.83 1.79c0 .28.09.5 0 .64a.771.771 0 0 0 .31 1.09ZM76.85 90.04a1.23 1.23 0 0 0 1.53-.06 1.21 1.21 0 0 0 .22-1.26 1.133 1.133 0 0 0-1.79-1.39.9.9 0 0 0-.07 1.16.429.429 0 0 0-.09.1 1.16 1.16 0 0 0 .2 1.45ZM79.09 81.02a1.632 1.632 0 0 0-.61.06 23.848 23.848 0 0 1-2.07 1.51c.25-.06.45-.18.53-.14.08.04.16 1 .77 1.41a1.76 1.76 0 0 0 2-.43 1.79 1.79 0 0 0 .43-1.2 1.419 1.419 0 0 0-1.05-1.21ZM79.91 86.7a.87.87 0 0 0 .53-.78.61.61 0 0 0-.12-.5.79.79 0 0 0 .74-.29.46.46 0 0 0-.07-.7.94.94 0 0 0-.7-.18.65.65 0 0 0-.31 1c-.21-.096-.4-.232-.56-.4a.72.72 0 0 0-.58-.08c-.282.077-.57.131-.86.16a.73.73 0 0 0-.62.77c.06.52.28.75.77.71.275-.057.544-.145.8-.26l.28.37a.63.63 0 0 0 .7.18ZM79.23 101.03c.31-.34.24-.72-.18-1.08-.42-.36-.71-.23-1.06.2a.599.599 0 0 0-.06.84 1.271 1.271 0 0 0 1.3.04ZM77.71 95.71c.38-.48.44-1 .14-1.2a1.06 1.06 0 0 0-1.23.2 1 1 0 0 0 .23 1.09.69.69 0 0 0 .86-.09ZM78.4 92.78a.45.45 0 0 0 .65-.21c.24-.43.26-.79.06-.92a1 1 0 0 0-1 .24.84.84 0 0 0 .29.89ZM78.17 98.03c.31-.37.22-.78-.25-1.15a.84.84 0 0 0-1 .08 1.4 1.4 0 0 0 0 1.39 1 1 0 0 0 1.25-.32ZM79.93 94.61a.451.451 0 0 0-.05.68c.31.39.63.55.83.41a.999.999 0 0 0 .16-1 .85.85 0 0 0-.94-.09ZM72.31 94.96a.22.22 0 0 0 0 .36.253.253 0 1 0 .4-.31c-.15-.14-.26-.17-.4-.05ZM72.44 93.74a.9.9 0 0 0 .81-.73 1 1 0 0 0-.67-1 .81.81 0 0 0-.63.13 1.14 1.14 0 0 0-.26 1.58c.249.037.5.044.75.02ZM71.61 90.35a1 1 0 0 0-1.5-.37 1.16 1.16 0 0 0-.41 1.57 1.37 1.37 0 0 0 1.68.2 1.07 1.07 0 0 0 .23-1.4ZM69.47 93.94c.17.16.38.29.62.08a.64.64 0 0 0 0-.88 1.89 1.89 0 0 0-.6.19.381.381 0 0 0-.02.61ZM73.52 89.7c.71.5 1 .38 1.58-.19a1 1 0 0 0-.14-1.4 1.25 1.25 0 0 0-1.6.35.83.83 0 0 0 .16 1.24ZM76.64 86.35a.69.69 0 0 0-.15-.91l-.1-.06a1.11 1.11 0 0 0-.08-1.41 1.14 1.14 0 0 0-1.45-.06 1.5 1.5 0 0 0 .1 1.76.91.91 0 0 0 .59.16.7.7 0 0 0 .25.58.6.6 0 0 0 .84-.06ZM75.72 92.45c-.38-.36-.79-.41-1-.12a1.37 1.37 0 0 0 0 1.32.77.77 0 0 0 1.11-.14c.35-.37.32-.66-.11-1.06ZM74.46 99.28a.61.61 0 0 0 .19-.49.93.93 0 0 0-.08-.57 1.231 1.231 0 0 0-.91-.6.93.93 0 0 0-.87.45.82.82 0 0 0 0 .81 1 1 0 0 0 .75.5c.36-.03.73.11.92-.1ZM75.21 105.72c.28-.26.32-.81.06-1-.26-.19-1.12.32-1.13.67-.01.35.78.59 1.07.33ZM74.79 103.84c.12 0 .28.1.4 0a.208.208 0 0 0 .055-.248.208.208 0 0 0-.055-.072c-.1-.07-.32-.19-.47 0-.15.19.01.29.07.32ZM74.92 95.59c.11 0 .34 0 .37-.19a.31.31 0 0 0-.18-.35.43.43 0 0 0-.43.19c-.06.11.1.3.24.35ZM40.25 34.07a.45.45 0 0 0-.64.26.81.81 0 0 0 .2 1 .94.94 0 0 0 1.05-.28c.17-.28-.12-.76-.61-.98ZM49.53 47.6a1.78 1.78 0 0 0-1.63 1 2.63 2.63 0 0 0-.14.78 21.559 21.559 0 0 1 1.77-1.78ZM46.81 40.09c.07-.23-.25-.67-.55-.76a.449.449 0 0 0-.55.4c-.1.49 0 .84.23.9a.999.999 0 0 0 .87-.54ZM49.94 38.63a1.35 1.35 0 0 0-.42-1.25.77.77 0 0 0-1 .47c-.23.46-.12.73.41 1s.86.13 1.01-.22ZM42.66 59.69c.07-.38.15-.75.25-1.12a.56.56 0 0 0-.48.35v.09a.359.359 0 0 0-.53.15 1.617 1.617 0 0 0-.06.56.59.59 0 0 0 .82-.03ZM43.42 56.99a.57.57 0 0 0-.26.12.42.42 0 0 0-.06.28 1 1 0 0 0-.26.3.49.49 0 0 0 .17.66c.12-.46.26-.92.41-1.36ZM41.22 56.02a1.34 1.34 0 0 0 1.57-.59 1.26 1.26 0 0 0-.64-1.46 1 1 0 0 0-1.29.42 1.29 1.29 0 0 0 .36 1.63ZM54.03 27.51a.22.22 0 0 0-.32.1c0 .1-.14.39 0 .47.14.08.35-.11.37-.18.02-.07.15-.3-.05-.39ZM53.41 32.61c.31-.17.76-.45.51-.87s-.56-.3-.68-.22c-.12.08-.43 0-.33-.09.1-.09 0-.35-.28-.59a.63.63 0 0 0-.93 0 .92.92 0 0 0 .11 1.28c.38.34.63.18.86.42.23.24.43.24.74.07ZM52.38 36.43c-.252.032-.5.089-.74.17a.9.9 0 0 0-.54 1 1 1 0 0 0 1 .78.81.81 0 0 0 .56-.31 1.141 1.141 0 0 0-.28-1.64ZM52.11 39.82c-1.23-.39-1.52-.1-2.14 1a1.44 1.44 0 0 0 .83 1.91c.69.29 1.71-.3 2.1-1.21a1.251 1.251 0 0 0-.79-1.7ZM51.4 35.4a.21.21 0 0 0-.08-.35.22.22 0 0 0-.35.08.22.22 0 0 0 .07.34c.15.09.26.09.36-.07ZM32.37 56.69c0 .08.3.25.45.17.15-.08.08-.39 0-.46a.37.37 0 0 0-.39-.12c-.11.07-.1.3-.06.41ZM34.41 48.58a.732.732 0 0 0-.28-1 1 1 0 0 0-1.25.33 1.05 1.05 0 0 0 .44 1.24c.3.14.89-.16 1.09-.57ZM38.84 55.08a1.19 1.19 0 0 0-.54-1.35.89.89 0 0 0-.94.56.76.76 0 0 0 .48 1.08c.46.18.88.06 1-.29ZM34.97 53.59a.419.419 0 0 0-.29-.61.75.75 0 0 0-.59.12c-.12.12-.09.69.16.8a.56.56 0 0 0 .72-.31ZM38.95 56.04a.31.31 0 0 0 0-.34c-.08-.07-.29 0-.39.07-.1.07-.15.3 0 .41.15.11.3-.06.39-.14ZM38.35 47.07c.37.2.93.15 1.09-.12.33-.56-.12-1.05-.37-1.29s-.93.17-1.06.69a.59.59 0 0 0 .34.72ZM32.47 53.87c.4.2.74.12.77-.12a.92.92 0 0 0-.2-.67c-.16-.18-.61 0-.67.3a1 1 0 0 0 .1.49ZM53.8 35.62a.63.63 0 0 0 .31.82c.192-.09.368-.212.52-.36.16-.23 0-.46-.21-.57-.21-.11-.46-.16-.62.11ZM38.11 41a1 1 0 0 0 .43 1.34 1.3 1.3 0 0 0 1.66-.49 1.35 1.35 0 0 0-.56-1.58c-.52-.28-1.17.08-1.53.73ZM32.35 59.62c.08.22 1.1 0 1.23-.19.13-.19-.3-.64-.76-.64s-.55.61-.47.83ZM33.44 43.15c.009.155.053.305.13.44.39.14.72 0 .74-.25a.69.69 0 0 0-.21-.52c-.2-.16-.64.06-.66.33ZM34.03 45.72a.378.378 0 0 0 .3.54c.19 0 .7.11.77-.15.07-.26-.27-.63-.45-.72-.18-.09-.47.04-.62.33ZM34.97 41.59c-.27-.11-.61 0-.62.27-.01.27-.09.64.24.71.33.07.58-.27.68-.45.1-.18-.07-.43-.3-.53ZM28.3 42.1a.51.51 0 0 0 .25.72c.35.15.89 0 1-.22.11-.22-.19-.7-.47-.83a.57.57 0 0 0-.78.33ZM31.16 46.07c-.28-.17-.65.18-.91.26v.19a.55.55 0 0 0 .47.47.77.77 0 0 0 .53 0c-.05-.26.19-.75-.09-.92ZM31.49 47.35v.17h.24c.05 0 0-.12-.07-.2a.47.47 0 0 0-.17.03ZM28.16 52.73c-.21.38-.22.7.32.84s.83-.61.67-.83c-.16-.22-.84-.29-.99-.01ZM30.03 51.35c-.13 0-.38-.09-.48.11a.37.37 0 0 0 .17.46c.1.07.44.18.59-.05.15-.23-.22-.47-.28-.52ZM31.14 57.23c0-.26-.76-.63-1-.37a.6.6 0 0 0 0 .78c.29.23 1.01-.14 1-.41ZM99.68 84.65c-.47-.3-1 .33-.9.59.1.26.71.52.94.31.23-.21.43-.6-.04-.9ZM64.49 98.25s0-.06-.07-.08v1.42a1.36 1.36 0 0 0 .07-1.34ZM26.51 57.82c-.14.33.25.5.39.54a.56.56 0 0 0 .5-.16.38.38 0 0 0-.17-.59c-.2-.05-.59-.12-.72.21ZM25.86 50.52c.09 0 .37.08.45-.16.08-.24-.17-.34-.27-.38a.389.389 0 0 0-.33.17.44.44 0 0 0 .15.37ZM58.36 32.85c-.44 0-.61.33-.68.75.22.27.47.53.85.37a.53.53 0 0 0 .31-.71.76.76 0 0 0-.48-.41ZM57.36 25.56c-.18.46.35.77.62.68a.55.55 0 0 0 .27-.66.51.51 0 0 0-.89-.02ZM59.61 39.45c0-.53-.76-.89-1.49-.92a1.29 1.29 0 0 0-1.11 1.26 1.33 1.33 0 0 0 1.6.93 1.32 1.32 0 0 0 1-1.27ZM32.03 35.9c.07-.13-.06-.32-.15-.38s-.42-.07-.48.06.14.39.23.43a.37.37 0 0 0 .4-.11ZM59.45 29.03v-.39c.25 0 .49.07.72.07.45 0 .63-.14.69-.57a.89.89 0 0 0-.42-1 .79.79 0 0 0-1 .11c-.2.175-.377.373-.53.59h-.38a1.17 1.17 0 0 0-1.12.72 1.35 1.35 0 0 0 .34 1.31.71.71 0 0 0 .48.21 1.101 1.101 0 0 0 1.22-1.05ZM55.72 30.23a.54.54 0 0 0 .27-.65c-.12-.28-.32-.29-.89 0a.52.52 0 0 0 .62.65ZM56.29 37.4c.43.05.71.39 1.13.26a1.8 1.8 0 0 0 1.3-1.73 1.46 1.46 0 0 0-.59-1.27c-.42-.29-.93.12-1.44 0-1.23-.27-1.59.61-1.62 1.46-.006.28.078.553.24.78a1.33 1.33 0 0 0 .98.5ZM58.91 42.35a2.436 2.436 0 0 0-.41.31c.42-.12.85-.23 1.28-.32a.82.82 0 0 0-.87.01ZM62.67 34.56a.588.588 0 0 0-.38-.75.829.829 0 0 0-1.15.31 1 1 0 0 0 0 .83.55.55 0 0 0-.41.45c-.09.4.24.59.56.79.32-.2.71-.36.57-.82a.341.341 0 0 0-.06-.12 1.43 1.43 0 0 0 .87-.69ZM99.1 81.01a.6.6 0 0 0 .23-.75c-.19-.3-1-.16-1.07.09-.07.25.54.83.84.66ZM61.03 32.54a1 1 0 0 0-.37-1.32 1.07 1.07 0 0 0-1.33.54.742.742 0 0 0 .41 1c.44.2 1.15.1 1.29-.22ZM61.03 40.06a1.62 1.62 0 0 0 1.76-.73 1.5 1.5 0 0 0-.62-1.72 1.24 1.24 0 0 0-1.56.65 1.5 1.5 0 0 0 .42 1.8ZM36.03 61.71a.7.7 0 0 0 .26.89.6.6 0 0 0 .79-.32.62.62 0 0 0-.23-.82.63.63 0 0 0-.82.25ZM36.35 57.03a.48.48 0 0 0-.17-.63 3.321 3.321 0 0 0-1.91-.54 1.123 1.123 0 0 0-.31.1.76.76 0 0 0 0 1.38c.37.202.768.35 1.18.44a1.19 1.19 0 0 0 1.21-.75ZM38.2 59.35a1.43 1.43 0 0 0-.58-1.83c-.46-.2-.78.36-.72.71.06.35 0 .25-.28.48a.63.63 0 0 0-.15.94.58.58 0 0 0-.6.24.8.8 0 0 0-.05.71.68.68 0 0 0 .57.28.7.7 0 0 0 .49-1 1.3 1.3 0 0 0 1.32-.53ZM43.74 54.78a1.32 1.32 0 0 0 0 1.23c.226-.6.483-1.187.77-1.76a.9.9 0 0 0-.77.53ZM40.56 61.27a1.27 1.27 0 0 0 .33-1.16 1.08 1.08 0 0 0-.84-.85h-.11a1 1 0 0 0 .55-.51c.14-.35-.09-.73-.58-1a.86.86 0 0 0-1 .24 1.11 1.11 0 0 0 .39 1.26l.17.05a1 1 0 0 0-.37.35 1.87 1.87 0 0 0-.27 1.28c.01.09.01.18 0 .27a.5.5 0 0 0-.42.15.64.64 0 0 0 0 .91c.14.172.245.369.31.58a.879.879 0 0 0 .66.78c.056.01.114.01.17 0a.68.68 0 0 0 .86-.32.561.561 0 0 0 0-.46c.06-.27.11-.54-.12-.74V62c0-.268.096-.527.27-.73ZM36.03 43.75a1.08 1.08 0 0 0 .5 1.14 1 1 0 0 0 1-.52.72.72 0 0 0-.29-.83c-.52-.26-1.09-.19-1.21.21ZM45.9 51.86a.538.538 0 0 0-.09-.12 1.25 1.25 0 0 0-.57-.24 1 1 0 0 0-.39-.34 1.14 1.14 0 1 0-.64 2.12 1 1 0 0 0 .18.28 1 1 0 0 0 .41.18 19.63 19.63 0 0 1 1.1-1.88ZM37.91 30.43c-.06-.17-.47-.22-.74-.29a.23.23 0 0 0-.32.16.72.72 0 0 0 .47.79.531.531 0 0 0 .59-.66ZM33.62 36.15c.08-.15-.16-.33-.26-.39a.31.31 0 0 0-.32.11c0 .1.08.28.18.36.1.08.33.12.4-.08ZM32.45 40.48c-.12.27.12.71.62 1 .1-.06.35-.1.45-.25a.65.65 0 1 0-1.07-.71v-.04ZM33.63 61.35c-.11.11 0 .37.13.47.13.1.24.09.31 0a.42.42 0 0 0 0-.39c-.04-.08-.33-.23-.44-.08ZM56.65 42.52a1 1 0 0 0-.33.86 19 19 0 0 1 2-.67c-.09-.23-.2-.4-.18-.54a.759.759 0 0 0-.6-1 1.658 1.658 0 0 1-.32-.22c-.35-.26-.67-.28-.83 0-.16.28-.1.66.34.89h.16c.21.13.28.3.05.49-.23.19-.22.12-.29.19ZM63.39 30.7a.941.941 0 0 0 .18 1.08 1 1 0 0 0 .85 0v-1.45c-.39-.29-.77-.14-1.03.37ZM64.13 40.67c.09.045.19.07.29.07v-1.23a.6.6 0 0 0-.29 1.16ZM63.55 36.62a1.049 1.049 0 0 0 .56 1.57.87.87 0 0 0 .31.07v-2.28a1 1 0 0 0-.87.64ZM92.52 64.08c.28.07.57.14.79-.1h-1a.59.59 0 0 0 .21.1ZM35.62 39.05a.86.86 0 0 0 .46 1.23.83.83 0 0 0 1.08-.32 1.23 1.23 0 0 0-.57-1.41.87.87 0 0 0-.97.5ZM48.3 47.13a5.58 5.58 0 0 1 .76-.41.73.73 0 0 0 .37-.92c-.22-.48-.5-.63-1-.44a4.006 4.006 0 0 0-.69.49l-.38-.26a.6.6 0 0 0-.73 0 .86.86 0 0 0-.26.9.571.571 0 0 0 .25.44.79.79 0 0 0-.61.5.47.47 0 0 0 .28.65 1 1 0 0 0 .73 0 .661.661 0 0 0 0-1c.227.027.447.095.65.2a.66.66 0 0 0 .63-.15ZM54.74 41.42c-.23-.13-.41-.32-.74-.21a.79.79 0 0 0-.32 1.08 1 1 0 0 0 .46.41.62.62 0 0 0 .31.85.61.61 0 0 0 .73-.29.739.739 0 0 0-.14-.71.88.88 0 0 0 .21-.52c-.02-.34-.22-.47-.51-.61ZM46.34 51.21h-.08a.46.46 0 0 0-.19.35l.27-.35ZM50.78 46.72c.68-.55 1.38-1.06 2.1-1.54a1.47 1.47 0 0 0-.63-.65 1.09 1.09 0 0 0-.79 0 .91.91 0 0 0-.54-.63.79.79 0 0 0-1 .41.91.91 0 0 0 .55 1.07c.049.011.1.011.15 0a1.539 1.539 0 0 0 .16 1.34ZM54.93 37.88a1.37 1.37 0 0 0-1.66.32 1.09 1.09 0 0 0 .21 1.41 1 1 0 0 0 1.54-.11 1.15 1.15 0 0 0-.09-1.62ZM53.17 44.91c.28-.16.56-.32.85-.47h-.19a.71.71 0 0 0-.66.47ZM34.7 51.45a1.061 1.061 0 0 0 1.57.22c.7-.52 0-1.14.6-1.29.6-.15.45.42 1.22.14.77-.28 1-1.09.53-1.44-.47-.35-.9-.12-1-.23-.1-.11-.29-.69-.72-.53-.9.34-.39 1.06-.63 1.25-.24.19-.84.2-1.21.44a.998.998 0 0 0-.36 1.44ZM44.32 44.48c-.55-.21-.87 0-1.11.52a.85.85 0 0 0 .28 1.1 1.28 1.28 0 0 0 1.43-.67c.11-.34-.14-.78-.6-.95ZM44.25 38.06a.461.461 0 0 0-.16-.67c-.42-.27-.77-.32-.92-.13a1 1 0 0 0 .16 1 .85.85 0 0 0 .92-.2ZM42.03 43.27a.54.54 0 0 0 .7-.35.61.61 0 0 0-.36-.77.481.481 0 0 0-.63.33.58.58 0 0 0 .29.79ZM40.41 44.6a.53.53 0 0 0-.23-.74.57.57 0 0 0-.8.26.64.64 0 0 0 .31.8.58.58 0 0 0 .72-.32ZM45.71 43.76a.61.61 0 0 0-.22-.82.58.58 0 0 0-.77.33.521.521 0 0 0 .26.72.51.51 0 0 0 .73-.23ZM42.17 34.46a.63.63 0 0 0-.13.55.721.721 0 0 0 .43.39.571.571 0 0 0 .44-.24c.169-.26.313-.534.43-.82.12-.24 0-.4-.26-.51-.07 0-.22 0-.25.11a1.3 1.3 0 0 1-.66.52ZM41.74 31.85a.85.85 0 0 0-.93.41.62.62 0 0 0 .37.76.69.69 0 0 0 .83-.26.86.86 0 0 0-.27-.91ZM40.19 39.35a.788.788 0 0 0 1.11-.42 1 1 0 0 0-.51-1.38 1 1 0 0 0-1.31.39c-.24.41.12 1.14.71 1.41ZM41.38 29.78a.48.48 0 0 0-.65.27.438.438 0 0 0 .2.6.479.479 0 0 0 .68-.14.531.531 0 0 0-.23-.73ZM40.43 51.93c.28.12.75-.15.94-.55a.76.76 0 0 0-.24-1 1 1 0 0 0-1.14.29 1.07 1.07 0 0 0 .44 1.26ZM44.21 31.35a1.29 1.29 0 0 0-1.26.36c-.18.42 0 .76.5 1s.75 0 1-.52a.62.62 0 0 0-.24-.84ZM44.03 41.57c0 .42.29.55.64.59a.669.669 0 0 0 .14-1c-.33-.05-.7-.04-.78.41ZM48.72 35.6c-.11 0-.31.14-.29.29a.3.3 0 0 0 .27.28.44.44 0 0 0 .36-.31c.02-.14-.2-.26-.34-.26ZM43.03 49.99c-.24-.11-.52.06-.7.2-.18.14 0 .5.18.63s.55 0 .62-.19c.07-.19.1-.52-.1-.64ZM47.8 32.48a1 1 0 0 0 .29.62 1.529 1.529 0 0 0 1.27.37 1.16 1.16 0 0 0 .85-.85 1 1 0 0 0-.33-.93 1.189 1.189 0 0 0-1-.3c-.38.14-.86.14-1 .45a.72.72 0 0 0-.08.64ZM48.95 25.97a.55.55 0 0 0-.65.22c-.29.41-.26.63.12 1.08 0 .41-.09.78-.08 1.14a.389.389 0 0 0 .68.27c.27-.32.65-.6.65-1.11l-.39-.44c.11-.54-.02-1.06-.33-1.16ZM46.82 35.98a.7.7 0 0 0-.79.36c-.22.57-.13 1 .23 1.18a.82.82 0 1 0 .56-1.54ZM47.14 42a1.178 1.178 0 0 0 .17 1.26 1.16 1.16 0 0 0 .53 1.35 1.149 1.149 0 0 0 1.6-.57.91.91 0 0 0-.29-1.13.672.672 0 0 0 .06-.12 1.14 1.14 0 0 0-.64-1.31 1.2 1.2 0 0 0-1.43.52ZM44.69 49.35c.42-.36 0-.66 0-1a.76.76 0 0 0-.67-.76c-.44 0-.87.13-1.07 0-.2-.13-.39-.29-.2-.57.19-.28.1-.82-.51-1.16-.61-.34-1.4.07-1.35.58.05.51.35.61.24.75-.11.14-.5.33-.44.66s1.06.55 1.22.5c.16-.05.54-.35.73-.06.19.29.16.74.5.89.34.15 1.11.6 1.55.17ZM44.88 34.27c-.18.44 0 .8.59 1a.82.82 0 0 0 .93-.38 1.38 1.38 0 0 0-.42-1.32 1 1 0 0 0-1.1.7ZM45.36 26.04c-.19.34-.06.87.24.94.3.07 1-.64.87-1s-.93-.28-1.11.06ZM46.32 27.71c-.12 0-.29 0-.36.15a.209.209 0 0 0 .048.256.21.21 0 0 0 .082.044c.11 0 .35.08.46-.1.11-.18-.16-.35-.23-.35Z"/><path fill="#20377D" d="M64.42 86.12c12.227 0 22.14-9.912 22.14-22.14 0-12.227-9.913-22.14-22.14-22.14-12.228 0-22.14 9.912-22.14 22.14s9.912 22.14 22.14 22.14Z"/><path fill="#7DE2D1" d="M62.65 75.92v-3a5.77 5.77 0 0 1-5.1-4.54l3.26-.84c.2 1.54 1.78 2.51 3.65 2.51 1.87 0 2.87-.94 2.87-2.51 0-4.12-9.5-1.14-9.5-8.33a5.49 5.49 0 0 1 4.82-5.55v-3h2.93v2.9a5.69 5.69 0 0 1 5.1 4.26l-3.35 1a3 3 0 0 0-3.15-2.29c-1.64 0-2.65.78-2.65 2.26 0 4.12 9.46 1.17 9.46 8.36 0 3.07-2.18 5.33-5.41 5.8v2.9l-2.93.07Z"/><path fill="#20377D" d="M32.12 38.26h13.43v3H32.12v-3ZM93.25 46.87l-3.58-5.11-3.61 5.11h-3.5l5.17-7.21-4.91-7h3.6l3.43 4.86 3.42-4.86h3.48l-5 6.88 5.19 7.31-3.69.02ZM31.11 86.28h6.59v-6.93h3.33v6.93h6.59v3.28h-6.59v6.93h-3.28v-6.93h-6.59l-.05-3.28ZM83.13 83.82h12.83v2.76H83.13v-2.76Zm0 6.79h12.83v2.74H83.13v-2.74Z"/></g><defs><clipPath id="a"><path fill="#fff" d="M4 4h120v120H4z"/></clipPath></defs></svg>