<svg xmlns="http://www.w3.org/2000/svg" fill="none" viewBox="0 0 128 128"><path fill="#ECF0F6" d="M64 124c33.137 0 60-26.863 60-60S97.137 4 64 4 4 30.863 4 64s26.863 60 60 60Z"/><path fill="#fff" d="M115.17 49.54c.16-.26-.07-.47-.33-.58-.26-.11-.66 0-.67.29-.01.29-.11.69.25.78.36.09.63-.29.75-.49ZM114.1 50.86a.725.725 0 0 0-.22-.57c-.22-.18-.7.06-.73.36.005.17.053.334.14.48.42.16.79.01.81-.27ZM116.16 47.55a.87.87 0 0 0 1.11-.35 1.32 1.32 0 0 0-.61-1.55.87.87 0 0 0-.92.33 1.325 1.325 0 0 0-1.07-.19 1.26 1.26 0 0 0-.64 1.53 1.228 1.228 0 0 0 1.48.73c.26-.102.485-.275.65-.5ZM106.14 21.46s.06 0 .1-.07c-.31-.31-.64-.6-.95-.9a.608.608 0 0 0-.05.56.644.644 0 0 0 .356.413.646.646 0 0 0 .544-.003ZM112.1 47.71c-.14.29.13.78.66 1 .12 0 .39-.1.5-.26a.705.705 0 0 0 .155-.261c.032-.097.043-.2.032-.302a.718.718 0 0 0-.306-.508.714.714 0 0 0-.855.041.717.717 0 0 0-.186.24v.05ZM114.67 44.92a.692.692 0 0 0 .815-.635c0-.07-.015-.14-.045-.205-.22-.24-.48-.44-.74-.68 0-.81-.27-1.38-.75-1.4a1.21 1.21 0 0 0-.9.53.325.325 0 0 0-.24.13.255.255 0 0 0 0 .23.834.834 0 0 0-.06.23c0 .56.23.73 1.35.84.05.44-.01.89.57.96ZM112.84 38.84c-.53.23-.71.53-.54.91a.816.816 0 0 0 .753.605.818.818 0 0 0 .337-.055 1.409 1.409 0 0 0 .4-1.24c-.12-.35-.47-.43-.95-.22ZM110 31.35a.7.7 0 0 0 .32 0c.127.14.238.294.33.46a1.002 1.002 0 0 0 1.1.61c.49-.08.68-.43.39-1.1-.22-.21-.55-.57-.93-.88a.206.206 0 0 0 0-.07.807.807 0 0 0-.426-.799.808.808 0 0 0-.304-.091c-.51-.11-1.22.22-1.3.6a1.148 1.148 0 0 0 .82 1.27ZM112.77 30a.762.762 0 0 0 .35-.44c-.45-.65-.91-1.29-1.39-1.91a.52.52 0 0 0-.29.12.586.586 0 0 0-.243.4.583.583 0 0 0 .133.45.777.777 0 0 0 .27.2.717.717 0 0 0 .05.55c.35.63.66.85 1.12.63ZM117.06 36.6a.779.779 0 0 0 .5.87.431.431 0 0 0 .25 0c-.17-.35-.35-.69-.53-1a.241.241 0 0 0-.22.13ZM120.44 43.6c-.29-.8-.6-1.58-.92-2.36a3.725 3.725 0 0 0-.37.21.909.909 0 0 0-.07 1.5c.428.266.884.484 1.36.65ZM116.87 40.31c.124.155.277.284.45.38.166.115.34.218.52.31.59.31 1 .26 1.32-.16a1.16 1.16 0 0 0 .11-.23c-.22-.52-.46-1-.7-1.54a8.395 8.395 0 0 1-1-1c-.33-.41-1-.66-1.28-.41a.78.78 0 0 0 0 .93c.39.28.2.58.24.9.05.295.167.575.34.82ZM110.4 27.52c.68.36 1 .37 1.25 0-.28-.38-.57-.74-.87-1.11-.43.28-.39.71-.38 1.11ZM109 26.71a.662.662 0 0 0 .48-.37 1.093 1.093 0 0 0-.21-.76c-.38-.35-.67 0-1 .25.04.5.18.89.73.88ZM45.27 18.14a.85.85 0 0 0 .09-1c-.49-.51-1.11-.66-1.43-.34a1.24 1.24 0 0 0 .07 1.41 1.14 1.14 0 0 0 1.27-.07ZM67.16 4.65c-.32.56-.21.94.37 1.29a.93.93 0 0 0 1.24-.11 1.41 1.41 0 0 0-.47-1.66h-.51a1.13 1.13 0 0 0-.63.48ZM115.25 53.46c.25-.14.41-.39.23-.64-.18-.25-.58-.61-.8-.5-.22.11-.19.55-.17.83a.502.502 0 0 0-.69.34.424.424 0 0 0 .007.381.42.42 0 0 0 .313.219c.21 0 .76.13.84-.15a.59.59 0 0 0-.1-.41.53.53 0 0 0 .37-.07ZM61.37 10.81c-.11.1-.2.61-.06.73s.67 0 .71-.13c.04-.13.12-.61 0-.69a.679.679 0 0 0-.65.09ZM64.57 4.59a1.105 1.105 0 0 0-.12-.27.809.809 0 0 0 .19-.3L64 4h-.42v.1a.271.271 0 0 0-.08.07 6.848 6.848 0 0 0-.36.94c-.77.26-1.19.74-1 1.21a1.33 1.33 0 0 0 1.43.68c.54-.17.61-.48.3-1.56.41-.18.85-.29.7-.85ZM71.25 7.09c.32-.08.69-.06.88-.35.19-.29.76-1.11.42-1.66-.34-.55-.73-.12-1.09-.17a.87.87 0 0 0-.83.37 1.2 1.2 0 0 0-.64.33 1.07 1.07 0 0 0 .01 1.3.42.42 0 0 1-.33-.11c-.27-.25-.86-.25-1.33.35-.47.6-.16 1.53.4 1.56.56.03.71-.27.85-.13s.27.6.64.59c.37-.01.77-1.06.77-1.24 0-.18-.21-.5-.06-.7.11-.033.213-.08.31-.14ZM82.05 7a1.19 1.19 0 0 0-1.26.23 1.23 1.23 0 0 0 .43 1.3.56.56 0 0 0 .78-.18c.42-.59.43-1.13.05-1.35ZM72.9 7c-.16.24 0 .57.1.79.1.22.54.14.71-.09.17-.23.14-.59-.1-.7-.24-.11-.54-.21-.71 0ZM62.08 13.73a.91.91 0 0 0 1.11 0 1.52 1.52 0 0 0 .1-1.52 1.12 1.12 0 0 0-1.4.27c-.36.36-.29.82.19 1.25ZM44.15 13.06a1.48 1.48 0 0 0-1.58 0 1 1 0 0 0 0 1.35 1.11 1.11 0 0 0 1.41.08 1.08 1.08 0 0 0 .17-1.43ZM82.52 9.11a.703.703 0 1 0 .75-1.19.77.77 0 0 0-1 .29.68.68 0 0 0 .25.9ZM117.27 42.66a1.001 1.001 0 0 0 .51-1.15.837.837 0 0 0-.9-.51c-.63.22-1 .71-.86 1.12a1.102 1.102 0 0 0 1.25.54ZM60.88 8.27A.861.861 0 0 0 60.63 7a1.06 1.06 0 0 0-1.58.32 1.13 1.13 0 0 0 .2 1.49.94.94 0 0 0 .87.06.5.5 0 0 0 .5-.17 1.09 1.09 0 0 0 .26-.43ZM59.47 9.63a.68.68 0 0 0-.58.66.5.5 0 0 0 .36.59c.49.16.74-.13 1-.51-.19-.37-.25-.82-.78-.74ZM57.16 4.4a1.46 1.46 0 0 0-.16.5.74.74 0 0 0-.17-.3l-.16-.14-1 .14c.154.201.263.433.32.68a.68.68 0 0 0 .58.23.72.72 0 0 0 .43-.35.69.69 0 0 0 .26.62.79.79 0 0 0 .86-.36c.12-.47.46-.4.75-.55a.999.999 0 0 0 .28-.23 1.12 1.12 0 0 0 1.13 0 .65.65 0 0 0 .12-.47c.38.31.82.39 1.08.15a.64.64 0 0 0 .19-.29c-1.52.09-3.03.2-4.51.37ZM45.26 9.25a1 1 0 0 0-1.6.06 1 1 0 0 0-.12 1.59 1.17 1.17 0 0 0 1.77-.07 1.2 1.2 0 0 0-.05-1.58ZM116.78 49c-.12.06-.17.4-.12.58a.319.319 0 0 0 .376.275.322.322 0 0 0 .154-.075c.16-.14.56-.51.45-.73-.11-.22-.64-.16-.86-.05ZM93.39 16.53a.42.42 0 0 0 .69-.17 2.14 2.14 0 0 0 0-.62.64.64 0 0 0-.91.24c-.17.27.02.42.22.55ZM92.83 12.62a.72.72 0 0 0 .57-.24.51.51 0 0 0 0-.52c-.23-.35-.57-.32-.94-.09.01.34-.07.73.37.85ZM90.68 22.72a.64.64 0 0 0 .63-.61c0-.53-.61-.88-.82-.88a.94.94 0 0 0-.57 1.05.65.65 0 0 0 .76.44ZM67.63 6.48a.65.65 0 0 0-.92-.18 1.1 1.1 0 0 0-.14 1.36.75.75 0 0 0 1 .08.94.94 0 0 0 .06-1.26ZM88.52 14a1.25 1.25 0 0 0 1.48-.76 1.61 1.61 0 0 0-1-1.62 1.27 1.27 0 0 0-1.33 1 1.23 1.23 0 0 0 .85 1.38ZM88.07 9.52a.82.82 0 0 0 .31 1.3 1 1 0 0 0 1.07.07.66.66 0 0 0 .84 0 .55.55 0 0 0 .21-.35 3.744 3.744 0 0 0-.12-.45c-.667-.313-1.317-.613-1.95-.9a1.07 1.07 0 0 0-.36.33ZM95.1 18a.84.84 0 0 0 1-.72.55.55 0 0 0-.45-.64.7.7 0 0 0-.939.58.78.78 0 0 0 .389.78ZM91.23 11.19a.61.61 0 0 0 .84-.13v-.07c-.39-.21-.79-.41-1.19-.61a.68.68 0 0 0 .35.81ZM103 19.43a.757.757 0 0 0 0 .68.392.392 0 0 0 .6.27c.26-.15.48-.33.37-.68-.11-.35-.84-.43-.97-.27ZM103.19 23.83a1.002 1.002 0 0 0 .9-.54.893.893 0 0 0-.62-.83.66.66 0 0 0-.8.58.733.733 0 0 0 .52.79Z"/><path fill="#fff" d="M104.45 20.11a.77.77 0 0 0 .39-.05l-1.07-1a1.194 1.194 0 0 0 .68 1.05ZM67.18 10a.19.19 0 0 0 0-.23.2.2 0 0 0-.28 0 .2.2 0 0 0 0 .27c.1.05.24.01.28-.04ZM97.62 14.3c-.87-.59-1.75-1.15-2.65-1.69.055.063.105.13.15.2a1.57 1.57 0 0 0 0 1.75 1.65 1.65 0 0 0 2.45-.22l.05-.04ZM96.55 22.77a.94.94 0 0 0 1-.92c.06-.46-.26-.76-.88-.85-.62-.09-.9.15-.93.53a1.689 1.689 0 0 0 .81 1.24ZM91.9 14.32a1.76 1.76 0 0 0 0-.61.64.64 0 0 0-.91.23c-.14.28 0 .43.22.56a.441.441 0 0 0 .69-.18ZM65.93 9.94a.69.69 0 0 0 .92-.2.63.63 0 0 0-.23-.83.57.57 0 0 0-.84.12.63.63 0 0 0 .15.91ZM118.48 55a1 1 0 0 0 1.21-.12c.36-.6-.13-1.15-.4-1.42s-1 .17-1.17.75a.647.647 0 0 0 .36.79ZM121.49 51.42a.786.786 0 0 0 .23-1.05 2.151 2.151 0 0 0-.75-.12c-.36.07-.49.58-.3 1a.603.603 0 0 0 .375.256.589.589 0 0 0 .445-.086ZM119.84 45c-.26.47.12 1.25.76 1.56a.878.878 0 0 0 .82 0c-.21-.69-.44-1.37-.68-2.05a1.089 1.089 0 0 0-.9.49ZM116.48 52.6a1.07 1.07 0 0 0 1.15-.56.832.832 0 0 0-.3-.92c-.59-.28-1.21-.18-1.38.22a1.188 1.188 0 0 0 .53 1.26ZM118.5 44.67a.729.729 0 0 0 .37-.51.548.548 0 0 0-.24-.46c-.38-.18-.65 0-.85.41.15.3.29.67.72.56ZM117.56 56.23a.72.72 0 0 0 .43-.84.712.712 0 0 0-.8-.36.83.83 0 0 0-.43.86.65.65 0 0 0 .8.34ZM120.58 49.31a1.491 1.491 0 0 0-.59-1.74l-.17-.07a.642.642 0 0 0-.84-.24 1.169 1.169 0 0 0-.65 1v.05a1.096 1.096 0 0 0 .45 1.48 1.44 1.44 0 0 0 1.8-.48ZM64.56 7.06a.64.64 0 0 0 .91-.18.582.582 0 0 0-.26-.81.67.67 0 0 0-.9.26.51.51 0 0 0 .25.73ZM122.53 50.84c-.06-.29-.13-.58-.2-.87v.05a.646.646 0 0 0 .2.82ZM55 4.72l-.89.15c.305.056.62.003.89-.15ZM67 4.31c.06-.068.114-.142.16-.22-.65 0-1.31 0-2-.06.032.088.08.169.14.24a1.27 1.27 0 0 0 1.7.04ZM54.21 6.1a.74.74 0 0 0-.14-.93c-.27-.17-.91-.09-1 .13a.92.92 0 0 0 .28 1.08.66.66 0 0 0 .86-.28ZM123.9 60.65a1.18 1.18 0 0 0 0 .59v-.59ZM96.52 35.72a.59.59 0 0 0-.27.53c0 .14.39.49.56.43.17-.06.25-.52.2-.62-.05-.1-.35-.37-.49-.34ZM79.58 17.67c.17-.27.317-.555.44-.85a1.31 1.31 0 0 0-.61-1.4.53.53 0 0 0-.72.07 3.76 3.76 0 0 0-.91 2c.004.116.024.23.06.34a.83.83 0 0 0 1.23.46.49.49 0 0 0 .32-.17.61.61 0 0 0 .19-.45ZM79 22.24c.3-.26 0-1.11-.27-1.14-.27-.03-.81.72-.57 1a.65.65 0 0 0 .84.14ZM78.62 19.22c-.05-.18-.41-.16-.49-.11a.44.44 0 0 0-.2.41c0 .15.3.18.43.15s.32-.28.26-.45ZM87.93 32.56c0 .07.13.29.19.29s.33-.1.37-.21a.37.37 0 0 0-.2-.47c-.29-.08-.29.26-.36.39ZM89.6 30.77a.34.34 0 0 0 .27.39.36.36 0 0 0 .46-.35.37.37 0 0 0-.33-.41.41.41 0 0 0-.4.37ZM90.7 26c.07-.47-.12-.76-.53-.82-.58-.09-1.24.29-1.29.74-.05.45.43.86.9.91a.91.91 0 0 0 .92-.83ZM84 8.18c0 .07 0 .18.13.19a.18.18 0 0 0 .22-.16c0-.13-.12-.19-.18-.2-.06-.01-.17.12-.17.17ZM60.08 17.81a.38.38 0 0 0-.12.5c.15.22.41 0 .52-.09a.35.35 0 0 0 0-.34.52.52 0 0 0-.4-.07ZM61.21 12.86a.9.9 0 0 0-.16-1.22 1.34 1.34 0 0 0-1.63.39 1 1 0 0 0 1.79.83ZM59 15a1.19 1.19 0 0 0-1.75.11 1.08 1.08 0 0 0-.06 1.6 1.36 1.36 0 0 0 1.8.05A1.43 1.43 0 0 0 59 15ZM73.58 14.6c-.44-.85-1.22-.24-1.3-.87-.08-.63.53-.42.37-1.3-.16-.88-1-1.25-1.48-.82-.48.43-.28 1-.41 1-.13 0-.79.2-.7.69-.12-.06-.26-.09-.33 0s0 .45.06.53a.39.39 0 0 0 .45.05.298.298 0 0 0 0-.08c.34.39.9.19 1 .41.1.22.08.95.28 1.39.27.62.87 1 1.49.66a1.161 1.161 0 0 0 .57-1.66ZM72.17 21.36c-.08.12-.17.39 0 .53a.4.4 0 0 0 .52-.1c.09-.1.27-.45 0-.65s-.45.1-.52.22ZM69 11.56a1 1 0 0 0 0-1.21c-.54-.44-1.15 0-1.45.19-.3.19 0 1 .57 1.26a.632.632 0 0 0 .88-.24ZM68.08 18.8v.25a.24.24 0 0 0 .19 0c0-.09.08-.21 0-.27-.08-.06-.1.01-.19.02ZM89.12 16.45c.03-.048.057-.098.08-.15.24-.05.63-.16.65-.38.02-.22-.52-.46-.72-.48a.16.16 0 0 0-.1 0 1.38 1.38 0 0 0-1.35.1.89.89 0 0 0 .32 1.31c.3.24.78.08 1.12-.4ZM115.11 85c.08-.16-.17-.36-.28-.43a.36.36 0 0 0-.36.12c0 .11.09.31.19.4.1.09.34.12.45-.09ZM94.57 31.85c0 .26 0 .58.36.57.36-.01.54-.21.57-.37.03-.16-.18-.45-.25-.61-.49-.07-.64.16-.68.41ZM116.16 65.91c.1-.28.08-.55-.18-.69a3.702 3.702 0 0 0-2.09-.63.883.883 0 0 0-.33.12.83.83 0 0 0 0 1.51c.41.222.847.39 1.3.5a1.318 1.318 0 0 0 1.3-.81ZM115.21 79.73a.383.383 0 0 0-.15-.41c-.1-.07-.47-.09-.54.05-.07.14.15.43.25.47a.38.38 0 0 0 .44-.11ZM120.72 70.61a1.385 1.385 0 0 0 .38-1.27 1.166 1.166 0 0 0-.91-.93h-.12c.266-.099.485-.295.61-.55.16-.38-.09-.81-.63-1.06a.94.94 0 0 0-1.15.25 1.221 1.221 0 0 0 .41 1.39c.056.03.117.05.18.06a1.213 1.213 0 0 0-.41.38 2.056 2.056 0 0 0-.31 1.4.927.927 0 0 1-.12.52.851.851 0 0 0 .37 1.37.414.414 0 0 0-.15.2c-.1.28.14.66.5.82a.78.78 0 0 0 1-.31.66.66 0 0 0-.37-.88c.145-.165.245-.365.29-.58.034-.315.188-.605.43-.81ZM123.71 67.74a.688.688 0 0 0-.87.35.72.72 0 0 0 .37.93.71.71 0 0 0 .57 0c0-.39.06-.77.08-1.16l-.15-.12ZM122 77a.611.611 0 0 0 .26.81h.08c.11-.42.21-.85.3-1.28a.688.688 0 0 0-.64.47ZM114.87 73.53c-.11-.37-.4-.44-1.12-.31-.08.37-.31.76.15 1a.6.6 0 0 0 .85-.13.775.775 0 0 0 .12-.56ZM104.15 27.53a1.002 1.002 0 0 0 1.18-1 1.785 1.785 0 0 0 0-.61c.28.066.573.045.84-.06a.76.76 0 0 0 .37-.76 1.429 1.429 0 0 0 1.33-1 1.184 1.184 0 0 0-.87-1.4 1.892 1.892 0 0 0-1.61 1.13.828.828 0 0 0 .09.55h-.06a1.28 1.28 0 0 0-.59.84 1.624 1.624 0 0 0-.55-.17 1.28 1.28 0 0 0-1.39 1.14c-.07.55.58 1.23 1.26 1.34ZM97.7 29.19c1 .19 1 .12 1-.72-.42-.3-.76-.18-1.06.22-1.12-.49-1.65 0-1.53 1.27a1.102 1.102 0 0 1-.21.14c-.33.13-.37.4-.33.71.04.31.22.43.5.53.67.22 1 .07 1.14-.62.18-.51.34-1.03.49-1.53ZM96.1 24.53a1.001 1.001 0 0 0-.84-1.17 1.32 1.32 0 0 0-1.41 1.14 1.33 1.33 0 0 0 1 1.22c.65.08 1.15-.41 1.25-1.19ZM103.12 32.37c-.09-.22-.5-.28-.84-.13a.378.378 0 0 0-.22.56c.14.27.34.47.69.35a.69.69 0 0 0 .37-.78ZM102.37 51.15c-.08 0-.3.22-.24.39s.39.12.51.08a.321.321 0 0 0 .15-.34c-.05-.11-.29-.14-.42-.13ZM102.61 29.57a1.142 1.142 0 0 0-1.31 1.08 1.148 1.148 0 0 0 1 1.15c.56.07 1.11-.51 1.19-1.24a.877.877 0 0 0-.516-.914.882.882 0 0 0-.364-.076ZM57.1 19.92c-.17.16-.08.57.19.83a.36.36 0 0 0 .59 0c.2-.23.32-.49.08-.77a.68.68 0 0 0-.86-.06ZM116.81 58.62c.61-.16.5.46 1.34.17.84-.29 1.1-1.18.6-1.57-.5-.39-1-.15-1.07-.27-.07-.12-.31-.76-.78-.59-1 .36-.44 1.17-.71 1.36-.27.19-.92.22-1.33.48-.57.36-.89 1-.44 1.57.099.125.217.233.35.32.063.073.142.13.23.17.3.16.8.65 1.21.39.41-.26.12-.6.15-.82.4-.52-.08-1.07.45-1.21ZM33.62 14.48c.33.14.92-.45.8-.71-.12-.26-.9-.36-1.05 0a.61.61 0 0 0 .25.71ZM111.89 65c-.14.06-.14.33-.09.45.05.12.32.28.49.2.17-.08.09-.43 0-.51a.432.432 0 0 0-.4-.14ZM112.79 62.27a1.062 1.062 0 0 0-.21-.74c-.17-.19-.67 0-.74.32-.002.185.032.368.1.54.44.22.82.15.85-.12ZM25.33 18.16c-.13.22-.36.81-.2 1 .16.19.76-.13.78-.22.08-.28.24-.63 0-.88s-.51-.06-.58.1ZM123 59.17a.424.424 0 0 0 .392.09.422.422 0 0 0 .288-.28c.06-.2.15-.58-.11-.7a.35.35 0 0 0-.2-.05.888.888 0 0 0 .21-.91l.09.08c-.06-.59-.14-1.18-.22-1.76a.368.368 0 0 1-.181-.251.369.369 0 0 1 .081-.299v-.07c0-.28-.1-.56-.14-.85a1.68 1.68 0 0 0-.42-.36 1.169 1.169 0 0 0-.68-.13.339.339 0 0 0 0-.09.998.998 0 0 0-1.16-.33 1.004 1.004 0 0 0 .06 1.19.61.61 0 0 0 .35.15c.1.4.33.52.22.66-.11.14-.56.35-.49.71.07.36 1.15.62 1.33.57.18-.05.6-.38.8 0 .075.132.132.273.17.42a.589.589 0 0 0-.7-.15c-.55.23-.92.89-.73 1.3a.911.911 0 0 0 .87.41c-.28.12-.13.48.17.65ZM118.92 63.8a1.312 1.312 0 0 0-.58-1.49 1.001 1.001 0 0 0-1 .61.828.828 0 0 0-.092.355.85.85 0 0 0 .602.835c.46.2.93.08 1.07-.31ZM117.57 79.61c-.29-.1-.42.08-.52.3a.433.433 0 0 0 .28.66c.206-.001.412-.031.61-.09a.65.65 0 0 0-.37-.87ZM85.09 10.23a.93.93 0 0 0 .74 1 .629.629 0 0 0 .83-.42 1.08 1.08 0 0 0-.72-1.16.75.75 0 0 0-.85.58ZM91.34 19.34a.59.59 0 0 0 .59.61.78.78 0 0 0 .73-.78c-.14-.12-.33-.4-.58-.49-.25-.09-.71.25-.74.66ZM85.54 8l-.8-.32c.226.19.506.302.8.32ZM91.91 15.09a1.13 1.13 0 0 0-1.19.78A1.2 1.2 0 0 0 91.6 17c.37.06.83-.38.9-.87.07-.49-.11-.96-.59-1.04ZM100.24 23.9a1.119 1.119 0 0 0 .74 1.22c.35.05 1-.66 1-1.1a.898.898 0 0 0-1.444-.657.904.904 0 0 0-.336.537h.04ZM101.68 28c-.13.07-.37.22-.29.36a.444.444 0 0 0 .42.19c.11 0 .4-.29.32-.43a.434.434 0 0 0-.45-.12ZM46.4 14.05a.61.61 0 0 0 .12.9c.25.18.52.39.75.17.39-.42.43-.83.19-1.08a.7.7 0 0 0-1.06.01ZM44.46 8.27a1.41 1.41 0 0 0 2-.08 1.32 1.32 0 0 0 .22-1.65c-.86.26-1.72.54-2.56.84a1.06 1.06 0 0 0 .34.89ZM34.32 23.31a.71.71 0 0 0 0 1 .659.659 0 0 0 1 0 .7.7 0 0 0 0-.93.67.67 0 0 0-1-.07ZM53.51 22.39a.43.43 0 0 0 .05.46c.11.09.34.26.45.14a.45.45 0 0 0 0-.46c-.01-.09-.39-.27-.5-.14ZM49.94 19.45a.78.78 0 0 0-1 .07.92.92 0 0 0-.08 1.19 1.2 1.2 0 0 0 1.37.09c.22-.25.07-.98-.29-1.35ZM49.19 27.3a.48.48 0 0 0 .05.52.45.45 0 0 0 .42 0 .4.4 0 0 0 0-.41c-.04-.08-.34-.27-.47-.11ZM47.71 11a1.06 1.06 0 0 0-1.28 0 .94.94 0 0 0 .14 1.17.571.571 0 0 0 .84-.11c.42-.47.53-.85.3-1.06ZM37.75 13.64a.881.881 0 0 0-1.31.06 1.05 1.05 0 0 0-.15 1.3 1.27 1.27 0 0 0 1.44 0 .87.87 0 0 0 .02-1.36ZM35.71 11.14c.46.52 1 .39 1.49.1.22.31.32.76.84.58a.6.6 0 0 0 .44-.66c0-.54-.49-.54-.9-.57 0-.15 0-.29-.08-.43l-1.83.94s.02.03.04.04ZM54 11.85c-.26-.42-.65-.47-1.17 0-.197.427-.37.864-.52 1.31-.024.077-.032.158-.024.238a.59.59 0 0 0 .444.512.62.62 0 0 0 .79-.36c.08-.18.187-.345.32-.49a1 1 0 0 0 .16-1.21ZM35.48 16.42a.83.83 0 0 0-1.48-.06c-.244.394-.429.822-.55 1.27a1.29 1.29 0 0 0 .71 1.37c.28.12 1 .14 1.05-.47-.35-1 .39-1 .37-1.74a1 1 0 0 0-.1-.37ZM38.52 18.88a.47.47 0 0 0 0-.74.65.65 0 0 0-.59.07c-.13.11-.32.54-.19.7.13.16.62.09.78-.03ZM40.81 17.58c-.32-.33-.78-.27-1.21.16a.71.71 0 0 0-.14 1 1.399 1.399 0 0 0 1.44.13.85.85 0 0 0-.09-1.29ZM31.45 19.94a.19.19 0 0 0 0 .26c0 .05.2 0 .24 0a.181.181 0 0 0 .048-.213.18.18 0 0 0-.318-.017l.03-.03ZM82.64 15.33a.67.67 0 0 0-.21 1.1.94.94 0 0 0 .77.17.751.751 0 0 0 .39-.57.771.771 0 0 0-.95-.7ZM81.53 20.19c.19 0 .23-.67.14-1.07.035.06.08.113.13.16 0 0 .31-.09.31-.16s0-.4-.16-.48c-.16-.08-.36.2-.36.26l-.06-.08c-.23-.18-.75.21-.83.71-.08.5.58.71.83.66Z"/><path fill="#fff" d="M98.57 28.32a.48.48 0 0 0 .21-.37c0-.09-.31-.34-.41-.3-.1.04-.14.39-.11.52.03.13.26.19.31.15ZM85.22 15.5a.647.647 0 0 0-.92.11.68.68 0 0 0 .13.93.75.75 0 0 0 1-.14.65.65 0 0 0-.21-.9ZM93.61 21.49a.684.684 0 0 0 .14-1.36.75.75 0 0 0-.71.63.66.66 0 0 0 .57.73ZM98.48 33.12a.66.66 0 0 0 .38-.77A.648.648 0 0 0 98 32a.528.528 0 0 0-.36.75.63.63 0 0 0 .84.37ZM93 18.34a.36.36 0 0 0-.43.09c-.08.08-.16.44 0 .53.16.09.45-.08.51-.18.06-.1 0-.35-.08-.44ZM92.51 24.73a1.85 1.85 0 0 0-.4-1.92 1.25 1.25 0 0 0-1.66.46 1.39 1.39 0 0 0 .36 1.7 1.26 1.26 0 0 0 1.7-.24ZM87.36 18.85a.62.62 0 0 0 0-.87.83.83 0 0 0-.59-.2c-.38 0-.49.34-.46 1.06.34.16.69.43 1.05.01ZM92.4 30.78c.11 0 .49 0 .49-.21s-.23-.33-.32-.33-.42 0-.43.16a.47.47 0 0 0 .26.38ZM75.45 16.33a.47.47 0 0 0-.72.21.83.83 0 0 0 0 .66c.11.15.73.21.89 0a.61.61 0 0 0-.17-.87ZM74.13 9a.84.84 0 0 0-1.13.1 1.06 1.06 0 0 0 .12 1.29 1.16 1.16 0 0 0 1.48-.26c.15-.29-.07-.83-.47-1.13ZM74.77 19.11c.18.042.369.042.55 0 .28-.4.26-.79 0-.86a.998.998 0 0 0-.76.1c-.22.12-.08.65.21.76ZM99.28 26.54c.06-.4-.47-.55-.69-.67-.22-.12-.54.11-.6.45-.06.34.09.61.43.58.34-.03.8.04.86-.36ZM74.32 23.36c.24-.55-.53-1-.79-.87s-.45.86-.18 1.07c.27.21.73.36.97-.2ZM70.34 17.36c.22-.3 0-1-.42-1.28a.799.799 0 0 0-1.15.14 1.08 1.08 0 0 0 .16 1.41 1.14 1.14 0 0 0 1.41-.27ZM70.15 25.77a.44.44 0 0 0 .42-.09.36.36 0 0 0-.09-.51c-.25-.14-.4.12-.46.22a.38.38 0 0 0 .13.38ZM75.31 13.84c.14-.12 0-.4-.11-.5a.33.33 0 0 0-.37 0c-.09.08 0 .32 0 .44s.34.22.48.06ZM76.61 13.86a.84.84 0 0 0 1.25-.33c.27-.47.22-.95-.14-1.15a1.32 1.32 0 0 0-1.56.37 1 1 0 0 0 .45 1.11ZM80.13 6.38a.65.65 0 0 0 .54.17.76.76 0 0 0 .31-.1c-1-.3-2-.56-3.06-.81a1 1 0 0 0 .3 1.36c.338.227.75.313 1.15.24a.29.29 0 0 0 .14.08c.11 0 .46 0 .49-.2a.26.26 0 0 0-.1-.2.727.727 0 0 0 .1-.05c.08-.151.125-.319.13-.49ZM82.33 12.66a.561.561 0 0 0 .09-.17 1 1 0 0 0 .22.35 1.299 1.299 0 0 0-.11.46.888.888 0 0 0 .86 1.07 1 1 0 0 0 1-.8c.046.022.09.049.13.08a.85.85 0 0 0 1.48-.17.52.52 0 0 0 .18.18.77.77 0 0 0 .88-.38.79.79 0 0 0-.16-1.09.64.64 0 0 0-.89.28 1.23 1.23 0 0 0-.54-.37 1.27 1.27 0 0 1-.74-.53 1.362 1.362 0 0 0-1.2-.55 1.19 1.19 0 0 0-1.06.76v.12a1.08 1.08 0 0 0-.46-.68c-.35-.22-.81 0-1.13.47a.93.93 0 0 0 .08 1.17 1.21 1.21 0 0 0 1.37-.2ZM85.52 18.51c.29 0 .56-.13.53-.43-.03-.3-.18-.83-.42-.85-.24-.02-.53.5-.62.72-.09.22.21.55.51.56ZM76 10.25c0-.13-.18-.28-.3-.33-.12-.05-.37 0-.4.21-.03.21.27.3.39.33a.34.34 0 0 0 .31-.21ZM77.31 10.08a1.42 1.42 0 0 0 1.83-.08 1.47 1.47 0 0 0-.38-1.8 1.37 1.37 0 0 0-1.68.44 1.07 1.07 0 0 0 .23 1.44ZM76.56 6.58c.064-.104.108-.22.13-.34.48.16.74-.13 1-.52l-.07-.15c-1-.23-1.93-.43-2.91-.6a.879.879 0 0 0-.24.23 1.091 1.091 0 0 0 .41 1.62 1.1 1.1 0 0 0 1.68-.24ZM116.05 72a.7.7 0 0 0 .62-1.24.68.68 0 0 0-.9.26.759.759 0 0 0 .28.98ZM67.79 18.22a.39.39 0 0 0-.66 0c-.13.17-.33.68-.2.81s.64 0 .85-.08c.21-.08.22-.45.01-.73ZM116.15 70.14a.767.767 0 0 0 .598-.681.765.765 0 0 0-.038-.319.668.668 0 0 0-.878-.222.668.668 0 0 0-.242.222.881.881 0 0 0-.06.78.713.713 0 0 0 .62.22ZM116.53 75.67a.639.639 0 0 0 1-.24 1.397 1.397 0 0 0-.29-1.32.888.888 0 0 0-1.22.47c-.25.42-.02.82.51 1.09ZM111.26 55.41c0-.08 0-.14-.07-.23s-.19 0-.24.08a.282.282 0 0 0 0 .19c.13.01.26.04.31-.04ZM113.09 68.51c.14-.26-.32-.71-.83-.72-.51-.01-.6.66-.52.9.08.24 1.26.07 1.35-.18ZM117.74 86.15c.36-.16.26-.06.59.17a.669.669 0 0 0 1.13-.33 1.332 1.332 0 0 0-.91-1.52 1.552 1.552 0 0 0-1.77 1.13c-.08.54.61.72.96.55ZM111.74 49.59a1.104 1.104 0 0 0-1.38-.39 1.023 1.023 0 0 0-.499.596A1.015 1.015 0 0 0 111.3 51a1.053 1.053 0 0 0 .44-1.41ZM98.83 22.74c.11 0 .4-.25.3-.42a.48.48 0 0 0-.5-.15.42.42 0 0 0-.16.39.4.4 0 0 0 .36.18ZM110.24 70.85a1.001 1.001 0 0 0-1.33.4 1.496 1.496 0 0 0 .52 1.82 1.119 1.119 0 0 0 1.4-.56 1.201 1.201 0 0 0-.59-1.66ZM122 74.13c-.22.5-.1 1.07.26 1.22a1 1 0 0 0 .67 0c.11-.55.21-1.1.3-1.66a.818.818 0 0 0-1.23.44ZM106.72 74a.516.516 0 0 0-.43-.26.544.544 0 0 0-.31.4c0 .11.23.43.42.43.19 0 .35-.45.32-.57ZM120.84 81.79c-.08.37-.2.73-.31 1.09a.544.544 0 0 0-.159.468.533.533 0 0 0 .289.401c.28-.81.55-1.63.8-2.47a.602.602 0 0 0-.62.51ZM121.52 64.86a1.45 1.45 0 0 0 1.72-.62 1.37 1.37 0 0 0-.68-1.61 1.08 1.08 0 0 0-1.42.44 1.407 1.407 0 0 0 .38 1.79ZM64.22 15.3a.782.782 0 0 0-.6.14c-.21.19 0 .71.25.78.17.017.341-.008.5-.07.22-.4.13-.79-.15-.85ZM119.27 77.15c-.29-.1-.42.09-.52.3a.434.434 0 0 0-.037.409.446.446 0 0 0 .317.261c.207.001.414-.033.61-.1a.65.65 0 0 0-.37-.87ZM100.8 42.94a.383.383 0 0 0 .288-.24.383.383 0 0 0-.058-.37c-.11-.19-.51-.56-.68-.49-.17.07-.25.6-.23.82.02.22.33.39.68.28ZM108.82 80.21a1.838 1.838 0 0 0 1.84-.67A1.258 1.258 0 0 0 110 78a1.41 1.41 0 0 0-1.64.6 1.258 1.258 0 0 0 .46 1.61ZM103.78 36.29a.481.481 0 0 0 .21-.37.36.36 0 0 0-.41-.3c-.26.06-.14.39-.12.52a.42.42 0 0 0 .32.15ZM100 35.16a.773.773 0 0 0 .55-.31c.23-.46 0-.76-.51-1-.35.22-.76.35-.67.84a.57.57 0 0 0 .63.47ZM100.15 20.31a1.212 1.212 0 0 0-.18-.62.592.592 0 0 0 .64-.5.683.683 0 0 0-.216-.587.678.678 0 0 0-.604-.163c-.45.07-.61-.2-.89-.46.09-.108.174-.221.25-.34a.47.47 0 0 0 .21-.06c.006.07.027.138.06.2a.73.73 0 0 0 .79.33c.31-.12.31-.66.25-.94a1.17 1.17 0 0 0-.83-.59c0-.17.06-.16.29-.39L100 16c-.43-.32-.87-.63-1.31-.94a1.9 1.9 0 0 0-.62.61.89.89 0 0 0-.09.38c-.33 0-.52.22-.6.66a1 1 0 0 0 .62 1.35c-.22.099-.452.17-.69.21a.63.63 0 0 0-.68.53.92.92 0 0 0 .26 1c1.09.82 1.49.8 2.45-.14l.09-.06a1.538 1.538 0 0 0-.28.45.42.42 0 0 0 .31.6.511.511 0 0 0 .69-.34ZM104.36 47c.11 0 .38-.28.32-.43-.06-.15-.42-.18-.52-.13a.393.393 0 0 0-.21.4c.05.16.3.16.41.16ZM99.54 26.67a.19.19 0 0 0 .1-.26.21.21 0 0 0-.26-.07c-.06 0-.08.19 0 .23.08.04.07.14.16.1ZM101.34 27.21a1.07 1.07 0 0 0 .43-1.05.678.678 0 0 0-1.103-.11.624.624 0 0 0-.142.486c.011.086.04.17.085.244.18.4.47.57.73.43ZM108.05 41a1.126 1.126 0 0 0 .26-1.41c-.22-.46-.67-.56-1.25-.27a.89.89 0 0 0-.39 1c.17.36 1.08.79 1.38.68ZM107.57 62c.58.16.92-.66.75-.91-.17-.25-.91-.32-1.09 0-.18.32-.23.76.34.91ZM104.74 58.63a.359.359 0 0 0 .5-.16c.09-.27-.18-.38-.3-.43a.389.389 0 0 0-.35.19.443.443 0 0 0 .15.4ZM106.85 43.4c-.14-.19-.57-.59-.81-.49-.24.1-.14.72-.07.94.07.22.34.35.63.18.29-.17.4-.38.25-.63ZM106 36.74c.1-.4-.32-.85-.91-1a.75.75 0 0 0-.79.53.932.932 0 0 0 .56 1.05 1.09 1.09 0 0 0 1.14-.58ZM105.77 67.25a.651.651 0 0 0 .56-.18.405.405 0 0 0 .074-.366.416.416 0 0 0-.254-.274c-.17-.07-.65-.15-.8.21-.15.36.27.56.42.61ZM110.05 39.67c-.07-.14-.5-.41-.66-.32-.16.09-.22.64-.15.7.07.06.53.34.66.23a.68.68 0 0 0 .15-.61ZM114.69 62.12a.468.468 0 0 0 .013-.417.469.469 0 0 0-.323-.263.826.826 0 0 0-.64.13.74.74 0 0 0 .16.88.61.61 0 0 0 .79-.33ZM119.58 61.57a.68.68 0 0 0 .37-.79.567.567 0 0 0-.75-.38.66.66 0 0 0-.264 1 .56.56 0 0 0 .644.17ZM120.77 52.33a.567.567 0 0 0-.049-.675.577.577 0 0 0-.191-.145.63.63 0 0 0-.88.28.693.693 0 0 0 .33.88.63.63 0 0 0 .79-.34ZM114.15 56.61a.806.806 0 0 0 .085-.619.801.801 0 0 0-.385-.491 1.15 1.15 0 0 0-1.24.19c-.06-.13-.17-.32-.36-.28-.19.04-.21.36-.17.41a.562.562 0 0 0 .36.21 1.153 1.153 0 0 0 .5 1.19c.33.17.98-.16 1.21-.61ZM111.83 38.33a.68.68 0 0 0-.39-.78.498.498 0 0 0-.69.12c-.32.39-.15.74.11 1.13.43-.05.87.02.97-.47ZM111.53 42.26c-.09-.06-.46-.09-.53.06s.15.43.25.47a.369.369 0 0 0 .43-.11c.08-.15-.05-.35-.15-.42ZM111.79 47.08c.41-.15.6-.46.5-.79a1.09 1.09 0 0 0-1.21-.63.752.752 0 0 0-.45.92.942.942 0 0 0 1.16.5ZM120.71 60.37c.3.13.81-.16 1-.59a.839.839 0 0 0-.25-1.14 1.06 1.06 0 0 0-1.26.3 1.167 1.167 0 0 0 .51 1.43ZM40.92 12.49a.89.89 0 0 0 .15-1.17.74.74 0 0 0-1-.11 1 1 0 0 0 0 1.28.571.571 0 0 0 .85 0ZM29.48 15a.1.1 0 0 0 0-.05l-.26.19a.591.591 0 0 0 .26-.14ZM110.26 36.07a1.249 1.249 0 0 0 1.43-.51.996.996 0 0 0 .76-.43c.145-.253.269-.517.37-.79.13 0 .28 0 .41-.08l.23-.11c.139.019.281.019.42 0a.719.719 0 0 0-.18.48c0 .38-.84.21-.83.74.01.53-.58.76-.49 1.4.09.64.59 1.2 1.1.93.43-.266.755-.672.92-1.15a.554.554 0 0 0 .513.075.543.543 0 0 0 .347-.385.562.562 0 0 0-.58-.59c.49-.12 1.42-.5 1.09-1.35a1.138 1.138 0 0 0-1.22-.58 1.265 1.265 0 0 0 0-1.12 1.13 1.13 0 0 0-.85-.55 1.576 1.576 0 0 0-.29-.22.749.749 0 0 0-.57-.07 1.187 1.187 0 0 0-.889.992c-.021.157-.012.316.029.468 0 .14.05.28.08.43-.262.033-.523.08-.78.14h-.08c-.4-.12-1 .23-1.32.71a1.172 1.172 0 0 0 .38 1.57ZM41.39 15.63a.66.66 0 0 0-.92.12.55.55 0 0 0 .05.83.71.71 0 0 0 .94 0 .68.68 0 0 0-.07-.95ZM31 24.72a.59.59 0 0 0 .12-.88.53.53 0 0 0-.51-.1.68.68 0 0 0-.37.48c-.02.43.5.57.76.5ZM123.53 67.5c.112.052.23.092.35.12 0-.48.05-1 .07-1.45-.283.1-.523.294-.68.55a.536.536 0 0 0-.05.45.539.539 0 0 0 .31.33ZM30.21 18.5a.93.93 0 0 0-.21-1.24.87.87 0 0 0-1.31 0 .861.861 0 0 0-.12 1.23 1.28 1.28 0 0 0 1.64.01ZM110.44 66.06c0-.29-.83-.7-1.09-.42a.67.67 0 0 0 0 .86c.3.25 1.1-.15 1.09-.44ZM108.64 28.43a1.089 1.089 0 0 0-.28-.86.604.604 0 0 0 .29-.6c0-.45-.43-.54-.84-.66-.27.31-.64.6-.34 1a.44.44 0 0 0 .09.11 1.527 1.527 0 0 0-.66 1 .643.643 0 0 0 .173.472.645.645 0 0 0 .457.208c.58.08 1.08-.23 1.11-.67ZM109.07 33.94a.725.725 0 0 0 .46-.41c.1-.45-.28-.56-.61-.67-.35.22-.55.49-.34.86a.57.57 0 0 0 .49.22ZM108.34 31.81a.306.306 0 0 0 .059-.27.305.305 0 0 0-.179-.21.723.723 0 0 0-.56.11c-.17.08-.36.13-.45.31-.09.18.13.43.42.42a.997.997 0 0 0 .71-.36ZM105.64 28.52c-.17.15-.36.31-.34.52.02.21.6.47.89.31.29-.16.22-.37.13-.58a.442.442 0 0 0-.68-.25ZM107 35.93c.61-.21.83-.91.54-1.67a1.06 1.06 0 0 0-.587-.646 1.072 1.072 0 0 0-.873.006 1.36 1.36 0 0 0-.71 1.66 1.428 1.428 0 0 0 1.63.65ZM108.23 43a.655.655 0 0 0 .355.413.654.654 0 0 0 .545-.003.718.718 0 0 0 .35-.87.76.76 0 0 0-1-.34.608.608 0 0 0-.25.8ZM105.85 31.85a.522.522 0 0 0 .37-.73.582.582 0 0 0-.71-.34c-.26.06-.5.73-.31.92a.737.737 0 0 0 .65.15Z"/><path fill="#fff" d="M67 20.28a.62.62 0 0 0 .59-.44.88.88 0 0 0 .1-.56c-.31 0-.8-.37-1-.1-.2.27.1.73.14 1l.17.1ZM108.9 60.21c.11.08.49.21.65 0 .16-.21-.18-.52-.31-.58-.13-.06-.41-.1-.52.12a.397.397 0 0 0 .011.261.397.397 0 0 0 .169.199ZM43.05 8.36a.72.72 0 0 0 0-.58c-1 .37-2 .77-2.92 1.19.214.253.494.44.81.54a2.26 2.26 0 0 0 2.11-1.15ZM110.66 54.84c0-.3.25-.83 0-1-.25-.17-.71.19-1 .27v.21c.1.38.23.43.51.53a.82.82 0 0 0 .49-.01ZM107.53 49.43a.546.546 0 0 0-.05.454.547.547 0 0 0 .31.336c.38.17 1 .05 1.09-.22.09-.27-.2-.78-.51-.92a.609.609 0 0 0-.84.35ZM109.78 56.27a.666.666 0 0 0-.39-.78.501.501 0 0 0-.69.12c-.33.39-.15.74.11 1.13.43-.05.87.01.97-.47ZM105.61 32.44a.997.997 0 0 0 .81 1.07c.48.1.79-.17.91-.79.08-.42-.2-1-.52-1.07a1.151 1.151 0 0 0-1.2.79ZM108.73 45.13c-.06 0-.08.19-.06.24.02.05.13.13.21.09a.183.183 0 0 0 .064-.04.189.189 0 0 0 .046-.21.22.22 0 0 0-.26-.08ZM59.44 24.88a.63.63 0 0 0 .05-.92.66.66 0 0 0-.86-.06.65.65 0 0 0 0 .93.511.511 0 0 0 .81.05ZM57.94 11.92a1.21 1.21 0 0 0-2.39-.23c-.11.46.49 1 1.14 1.12a1.18 1.18 0 0 0 1.25-.89ZM62 16.33c0-.12-.05-.4-.19-.54a.71.71 0 1 0-.95 1c.22.21.74.03 1.14-.46ZM56.34 15.28a.36.36 0 0 0 0-.45c-.15-.11-.38.12-.46.22a.32.32 0 0 0 .07.36c.05.07.29-.04.39-.13ZM55.77 16.53c-.13-.1-.35 0-.43.09-.08.09-.15.44 0 .53.15.09.45-.08.5-.18.05-.1.07-.35-.07-.44ZM43.44 21c.34-.35.42-.93.16-1.17a1.29 1.29 0 0 0-1.6 0 .811.811 0 0 0 .13 1.17.88.88 0 0 0 1.31 0ZM56.39 13.81a.71.71 0 0 0-.55-.28c-.45.07-.41.46-.4.81.33.24.66.33.93 0a.559.559 0 0 0 .02-.53ZM61.86 21.6a.569.569 0 0 0 .83-.14c.22-.35.18-1-.07-1.11-.25-.11-.8.09-1 .37a.61.61 0 0 0 .24.88ZM66 13.41c.26-.052.503-.165.71-.33.22-.18.2-.45-.07-.65a.57.57 0 0 0-.52-.15.72.72 0 0 0-.27-.3.79.79 0 0 0-1 .17c-.37.54-.36 1.17 0 1.4a1.15 1.15 0 0 0 1.15-.14ZM65.11 11.3a.66.66 0 0 0 0-1 .71.71 0 0 0-.94 0 .75.75 0 0 0 .21 1.163.61.61 0 0 0 .73-.163ZM66.76 16a.41.41 0 0 0 .63-.24c.08-.2.25-.73 0-.85s-.73.18-.86.36-.07.53.23.73ZM63.07 14.06c-.24-.2-.48 0-.63.24-.15.24-.08.65.19.71.27.06.67.21.81-.14s-.2-.67-.37-.81ZM63.21 24.9c.13-.07.33-.54.21-.67-.12-.13-.58-.06-.65 0-.07.06-.23.46-.14.58.09.12.45.19.58.09ZM63.61 8.67A1.5 1.5 0 0 0 61.8 9c-.39.51-.16 1.27.54 1.78a1.07 1.07 0 0 0 1.52-.24 1.43 1.43 0 0 0-.25-1.87ZM55.71 18.23a.728.728 0 0 0-.09-.66.51.51 0 0 0-.81-.08.57.57 0 0 0-.06.78c.15.23.86.2.96-.04ZM48.75 14a.72.72 0 0 0 0 .94c.39.34.78.14 1.16 0 .08-.77 0-1.06-.42-1.18a.65.65 0 0 0-.74.24ZM51.21 13.07c.48-.52.54-.92.18-1.28a1.08 1.08 0 0 0-1.27.07 1.21 1.21 0 0 0 .17 1.29.619.619 0 0 0 .92-.08ZM49.16 17.57c.42-.28.74-.55.54-1a.64.64 0 0 0-.52-.3 1 1 0 0 0-.63.47c-.18.46.27.59.61.83ZM48.79 10a1.11 1.11 0 0 1 1 .74 1 1 0 0 0 1.16.3c.227-.212.366-.5.39-.81a.54.54 0 0 0 .16-.21.581.581 0 0 0-.5-.78.39.39 0 0 0-.45-.18 1.56 1.56 0 0 1-1.28-.29.53.53 0 0 0-.81.23c-.16.35-.04.91.33 1ZM45.84 21.08a.73.73 0 0 0-.94 0 .77.77 0 0 0 0 1 .61.61 0 0 0 .85 0 .658.658 0 0 0 .09-1ZM55 26a.399.399 0 0 0 0-.35.5.5 0 0 0-.42-.06c-.09.05-.2.41-.13.49.07.08.4-.03.55-.08ZM53.17 18.16c-.24-.2-.42-.07-.59.09a.43.43 0 0 0 0 .72c.19.11.42.23.6.13a.77.77 0 0 0-.01-.94ZM54.87 9.23a.69.69 0 0 0 .51 0c.34-.17.5.71 1 .5.5-.21.92.27 1.49-.05s.9-1 .46-1.36a2.22 2.22 0 0 0-1.46-.44.59.59 0 0 0-.32.08 1 1 0 0 0-.13-1.16c-.33-.22-.88 0-1.2.47a.77.77 0 0 0-.89.15 1.14 1.14 0 0 0-.09 1.35 1.25 1.25 0 0 0-1.06.38 1.27 1.27 0 0 0 .14 1.65 1.07 1.07 0 0 0 1.43 0 1.73 1.73 0 0 0 .12-1.57ZM52.34 7.93l.7-.67a5.172 5.172 0 0 0-.31-.54.71.71 0 0 0-.64-.26.9.9 0 0 0-.26-.64l-.09-.09a.458.458 0 0 0-.11-.47l-1.79.41a.13.13 0 0 0 .07.06c.54.16.48.63.57 1a.66.66 0 0 0 1 .51l.13-.06a.6.6 0 0 0 .14.29c.175.179.374.333.59.46ZM55 16.33c.25 0 .35-.27.23-.54a1 1 0 0 0-.59-.53.32.32 0 0 0-.4.29c0 .2.15.33.31.48.16.15.27.29.45.3ZM53.09 25.56a.19.19 0 0 0 0-.23.2.2 0 0 0-.28 0 .21.21 0 0 0 0 .27s.24.01.28-.04ZM52.81 24.29c.31-.31.36-.65.14-.83a1.09 1.09 0 0 0-1.14 0 .66.66 0 0 0 .08.93.62.62 0 0 0 .92-.1Z"/><path fill="#00BFB3" d="M77.16 55.13 80.27 52a35.44 35.44 0 0 0 10.39-25v-4.95H36.38V27a35.47 35.47 0 0 0 10.38 25l3.12 3.11a10.101 10.101 0 0 1 3 7.15 10.1 10.1 0 0 1-3 7.15l-3.12 3.11A35.47 35.47 0 0 0 36.38 97.6v4.91h54.28V97.6a35.44 35.44 0 0 0-10.39-25.06l-3.11-3.11a10.101 10.101 0 0 1-3-7.15 10.1 10.1 0 0 1 3-7.15Z"/><path fill="#20377D" d="M45.34 94.42h37c.14-5.3-4-11.72-4-11.72h-4.5a8.76 8.76 0 0 1-4.6-1.3l-1-.59a8.79 8.79 0 0 0-9.65.29 8.8 8.8 0 0 1-5.05 1.6h-4.7a19.79 19.79 0 0 0-3.5 11.72Z"/><path fill="#7DE2D1" d="M31.78 21.44h63.53v5a3.88 3.88 0 0 1-3.88 3.88H35.66a3.88 3.88 0 0 1-3.88-3.88v-5ZM35.66 99.93h55.77a3.883 3.883 0 0 1 3.88 3.88v5H31.78v-5a3.882 3.882 0 0 1 3.88-3.88Z"/><path fill="#01ADA1" d="M39.92 98.31c-.22 0-.38.25-.38.34 0 .09 0 .39.21.44a.26.26 0 0 0 .34-.22c.02-.15.04-.52-.17-.56ZM44.43 85.52a1 1 0 0 0 .35.62.59.59 0 0 0 0 .17.77.77 0 0 0 .87.48.58.58 0 0 0 .57-.54.932.932 0 0 0 0-.39v-.07c.06-.76-.22-1.29-.69-1.33a1.279 1.279 0 0 0-1.1 1.06ZM46.29 87.62a.799.799 0 0 0 0 .29c.08-.27.17-.53.26-.78a.87.87 0 0 0-.26.49ZM50.42 99c-.58-.36-1-.39-1.24-.08a.72.72 0 0 0-.1.43.49.49 0 0 0-.47-.35c-.86 0-1 .54-1.09.89h3.22a.63.63 0 0 0-.32-.89ZM57.38 98.06a1.06 1.06 0 0 0-.19 1.4 1.61 1.61 0 0 0 2-.13 1 1 0 0 0-.3-1.33.93.93 0 0 0-1.51.06ZM45.4 83.27a.78.78 0 0 0 .25.66c.15.09.72.07.82-.11.1-.18-.19-.74-.31-.76-.12-.02-.7.02-.76.21ZM54.65 96a1.151 1.151 0 0 0 .67.58c.58.09.61-.44.79-.88-.41-.39-.79-.67-1.25-.34a.68.68 0 0 0-.21.64Z"/><path fill="#01ADA1" d="M53.29 96.83a.74.74 0 0 0 .1-.44.7.7 0 0 0 .93-.07.64.64 0 0 0 .08-.95.71.71 0 0 0-1-.06.7.7 0 0 0-.2.48l-.2-.25c-.87.1-1.17.29-1.2.76a.74.74 0 0 0 .09.43 1.421 1.421 0 0 0-1.12.54.921.921 0 0 0-.14.35c0-.42-.28-.87-.61-.85-.33.02-.92 1.1-.7 1.47.22.37 1.19 0 1.31-.42.028.16.1.31.21.43a1.12 1.12 0 0 0 1.32.35 1.21 1.21 0 0 0 .21-1.5.79.79 0 0 0 .92-.27ZM46.72 81.47a1.27 1.27 0 0 0 .64 1.53.86.86 0 0 0 .42.13.552.552 0 0 0 .38.71c.227-.392.477-.769.75-1.13H49a.662.662 0 0 0-.2-.16.33.33 0 0 0-.14 0s0-.06.08-.11a1 1 0 0 0-.29-1.21 1.71 1.71 0 0 0-1.73.24ZM53.45 99.93h2.68a1.23 1.23 0 0 0-.29-1.24c-.53-.65-1.61-.55-1.81 0a.34.34 0 0 0-.16-.29c-.55-.33-1-.27-1.24.06a.8.8 0 0 0 .27 1.16.69.69 0 0 0 1-.35l.1-.24c0 .38.13.57 0 .67-.13.1-.37.14-.55.23ZM48.52 76.16a.64.64 0 0 0-.7.65.77.77 0 0 0 .7.8c.4 0 .58-.23.63-.61a.722.722 0 0 0-.63-.84ZM41.48 99.63a.41.41 0 0 1 0 .09.82.82 0 0 0-1-.28 1.2 1.2 0 0 0-.62.49h2.64a.85.85 0 0 0-.2-.46.44.44 0 0 0-.82.16ZM57.2 70.45a.459.459 0 0 0-.54-.53c-.24 0-.87.1-.86.44.01.34.54.66.78.7.24.04.59-.22.62-.61ZM56.7 99.93h1a1 1 0 0 0-1 0ZM57.67 74.38c-.42 0-.59.53-.65.78-.06.25.23.48.54.52.31.04.72-.23.64-.54-.08-.31-.11-.79-.53-.76ZM54.8 56.76c-.15.15 0 .49.14.56a.47.47 0 0 0 .5 0c.14-.11.05-.4 0-.51-.05-.11-.44-.19-.64-.05ZM55.39 60.61c.056.293.22.553.46.73.25.15.73-.24.7-.59a1.431 1.431 0 0 0-.29-.55c-.54-.1-.93.11-.87.41ZM55.52 78.38a1.52 1.52 0 0 0 1.18 1.48 1 1 0 0 0 .82-.52.56.56 0 0 0 .34-.5c0-.1-.09-.2-.21-.29a1 1 0 0 0-1-.92c-.54-.05-1.1.31-1.13.75ZM65.18 98.34a.63.63 0 0 0 .12-.11 1.43 1.43 0 0 0-.14-1.81 1.39 1.39 0 0 0-2.27 1.49 1.44 1.44 0 0 0 0 1.8c.078.087.17.161.27.22h1.65c.06-.05.12-.09.18-.15a1.12 1.12 0 0 0 .19-1.44ZM75.33 99.77c-.29-.46-.65-.62-.94-.43a.57.57 0 0 0-.29.59h1.32l-.09-.16ZM78.21 99.14c.21-.49-.39-1.14-1.09-1.44a1.35 1.35 0 0 0-1.54.79 1.42 1.42 0 0 0 .89 1.44h.86a1.28 1.28 0 0 0 .88-.79ZM82 90.1a.722.722 0 0 0-.18.25c.1.36.18.73.26 1.09.4.42 1.21.61 1.54.33a1.32 1.32 0 0 0 .17-1.7 1.34 1.34 0 0 0-1.79.03ZM68.8 79.51c-.14-.06-.33-.15-.49 0a.26.26 0 0 0 0 .4c.12.09.37.25.58.09.21-.16-.01-.45-.09-.49ZM53.53 73.27a.93.93 0 0 0 .63.89c.73.12 1.37-.2 1.43-.69a1.34 1.34 0 0 0-1-1.18c-.4-.06-1.02.51-1.06.98ZM61.29 79.69a.66.66 0 0 0-.14.2c.32-.09.65-.18 1-.24a.58.58 0 0 0-.86.04ZM60 78.38c-.12.16.08.65.2.7.12.05.56.14.67 0a.66.66 0 0 0-.08-.67c-.15-.09-.71-.2-.79-.03ZM84.47 93.79a1.001 1.001 0 0 0-1.47-.16 1.22 1.22 0 0 0-.34 1 .68.68 0 0 0-.68.33c-.29.43 0 .79.29 1.18.46-.1 1-.1 1-.7a.31.31 0 0 0 0-.16 1.722 1.722 0 0 0 1.28-.42.73.73 0 0 0-.08-1.07ZM82.67 98.13a1.61 1.61 0 0 0-2-.08 1.36 1.36 0 0 0-.18 1.86h2.25a1.4 1.4 0 0 0-.07-1.78ZM61.53 68.4c.005-.08.005-.16 0-.24a.69.69 0 0 0-.73-.4.92.92 0 0 0-.62.18c.12.32 0 1 .4 1.09.4.09.66-.45.95-.63ZM46.76 72.54l-.1.11c.198.205.452.347.73.41.84.19 1.65-.59 1.42-1.17-.23-.58-.63-.6-.56-.81v-.07l-1.49 1.53ZM59.43 75.65a.8.8 0 1 0 1.51.48c.06-.36-.39-.81-1.06-.93-.11.1-.39.24-.45.45ZM42.94 79.44A1.49 1.49 0 0 0 42.3 78c-.51.76-1 1.55-1.42 2.34.159.11.34.185.53.22a1.51 1.51 0 0 0 1.53-1.12ZM40.78 84.42a1.65 1.65 0 0 0 .94 1.34c.116.02.234.02.35 0 .007.419.167.82.45 1.13.34.25.72.11 1-.39s.33-.94-.07-1.19a1.18 1.18 0 0 0-.8-.21.81.81 0 0 0 .07-.22c.12-.63-.11-.92-.83-1-.72-.08-1.05.12-1.11.54ZM72.3 99.16c-.2-.25-.32-.56-.76-.58a1 1 0 0 0-.85 1.1.81.81 0 0 0 .08.25h1.87a1 1 0 0 0-.34-.77ZM43.44 78s0-.22-.09-.25-.21 0-.26 0a.23.23 0 0 0 .06.31.24.24 0 0 0 .29-.06ZM41.49 88a.63.63 0 0 0-.05.94c.34.33 1 .44 1.25.2a1.17 1.17 0 0 0-.17-1.18.691.691 0 0 0-1.03.04ZM75.92 95.22c.48.25.64.78 1.18.81a2.24 2.24 0 0 0 2.29-1.41c.024-.065.044-.132.06-.2h-4.36c.18.35.472.632.83.8ZM67.29 97.22a1.209 1.209 0 0 0 .06 1.78 1.36 1.36 0 0 0 1.52.05c.21.14 1 .22 1.21-.08.21-.3-.16-.72-.43-1a1 1 0 0 0-.39-.82c-.84-.72-1.15-.59-1.97.07ZM72.07 94.78a1.31 1.31 0 0 0-.4 1.71 1.239 1.239 0 0 0 1.83.58 1.45 1.45 0 0 0 .63-1.91 1.7 1.7 0 0 0-2.06-.38ZM60.94 96.72a.72.72 0 0 0-1 0 .66.66 0 0 0 0 1 .62.62 0 0 0 1 .07.75.75 0 0 0 0-1.07ZM62.14 99.29a.69.69 0 0 0-.23-.93.75.75 0 0 0-1.11.18.82.82 0 0 0 .22 1 .86.86 0 0 0 1.12-.25ZM46 79.69c.44-.12.88-.27.77-.81a.57.57 0 0 0-.32-.43c.3.07.81.13.95-.08.14-.21-.32-.77-.53-.93-.21-.16-.55-.12-.7.23-.15.35-.17.6.14.73a1.4 1.4 0 0 0-.5 0 .83.83 0 0 0 .19 1.29ZM41.31 95.71a1.34 1.34 0 0 0-.89-.14c-.36.11-.38.48-.26.83s.17.54.26.81a2.05 2.05 0 0 0 2.36.79s.12-.1.12-.15c.05-.64.59-.69 1-.89a.993.993 0 0 0 .13-.09 1.29 1.29 0 0 0 0 1.49 1.25 1.25 0 0 0 1.51-.16c.12.54.4 1 .74 1a.68.68 0 0 0 .7-.49c.37 0 .75-.25.71-.58a1.27 1.27 0 0 1 .59-1.25 1.39 1.39 0 0 0 .23-.72.52.52 0 0 0 .28.1c.15 0 .35-.09.38-.32a.28.28 0 0 0 0-.13.77.77 0 0 0 .31.37 1.36 1.36 0 0 0 1.38-.5.62.62 0 0 0 0-.7.812.812 0 0 0 .18-.12.77.77 0 0 0 .16-.34h-1.74a.91.91 0 0 0-.27.28 1.17 1.17 0 0 0 .05 1 .269.269 0 0 0-.23-.14.56.56 0 0 0-.44.16.748.748 0 0 0-.15-.28 1.28 1.28 0 0 0-.83-.23 1.24 1.24 0 0 0-.23-.54.579.579 0 0 0-.87.09.47.47 0 0 0 .11.76h.06c-.23.19-.45.42-.29.74.15.29.195.621.13.94a8.314 8.314 0 0 0-.26-1.3.489.489 0 0 0-.9-.08c-.09.2-.2.41-.29.62a1.11 1.11 0 0 0-.75.07.73.73 0 0 0-.06-.87.635.635 0 0 0-.1-.13.64.64 0 0 0 .29-.22c.124-.257.212-.53.26-.81l-.9-.6a3.519 3.519 0 0 0-.52.48.78.78 0 0 0-.14.76 1 1 0 0 0-.63.44c-.21.3-.33.65-.9.59-.06-.16-.12-.45-.29-.54ZM56.85 95.55a.638.638 0 0 0 .95-.09.88.88 0 0 0 .17-.4.76.76 0 0 0 .36.47 1 1 0 0 0 1.32-.2 1.33 1.33 0 0 0 .11-.91H58a.659.659 0 0 0-.07.25.642.642 0 0 0-.18-.25H57l-.1.08a.719.719 0 0 0-.05 1.05Z"/><path fill="#01ADA1" d="M41.81 93.72c-.04.068-.077.138-.11.21a.67.67 0 0 0 .33.76.92.92 0 0 0 .6.24c.1-.32.6-.78.36-1.1-.24-.32-.83-.08-1.18-.11ZM60.39 95.46a.811.811 0 0 0 .65-1H60v.07c-.31.47 0 .73.39.93ZM53.47 81.6c.13-.6-.54-1.31-1.34-1.43a.998.998 0 0 0-1.18.89 1.198 1.198 0 0 0 1.1 1.46 1.29 1.29 0 0 0 1.42-.92ZM56.89 66.12c-.41-.07-1 .49-1.1 1.06a.9.9 0 0 0 .69 1.1c.62.09 1.33-.35 1.37-.84a1.31 1.31 0 0 0-.96-1.32ZM53.25 42.71a1.58 1.58 0 0 0 1.57-1.18 1.44 1.44 0 0 0-1.07-1.63A2.09 2.09 0 0 0 52 41.23a1.41 1.41 0 0 0 1.25 1.48ZM54.4 53.32c-.17-.24-1.33.33-1.4.65-.07.32.58.66 1.13.5.55-.16.43-.91.27-1.15ZM53.43 58.46c.118-.06.226-.138.32-.23a.94.94 0 0 0-.51-1.63 5.432 5.432 0 0 0-1.56-.11.92.92 0 0 0-.52.22 9.451 9.451 0 0 1 1 1.95 3.31 3.31 0 0 0 1.27-.2ZM51.86 68c.13.1.58.71 1 .38 1-.72.09-1.41.31-1.71.22-.3.93-.54 1.28-1a1.191 1.191 0 0 0 0-1.85 1.31 1.31 0 0 0-1.76.08 8.807 8.807 0 0 1-.31 1.35c.08.24.13.44-.14.61h-.09A10.062 10.062 0 0 1 51 68.12c.43.03.75-.22.86-.12ZM50.72 49.09c0-.42.09-.93-.5-1.09a.7.7 0 0 0-.88.43.9.9 0 0 0 .07.7c.24.36.59.33 1.31-.04ZM53.38 61.4a.53.53 0 0 0 .56.63.91.91 0 0 0 .65-.35c.11-.18-.13-.85-.46-.89a.69.69 0 0 0-.75.61ZM54.11 48.89a1.36 1.36 0 0 0 1.19 1.6 1.08 1.08 0 0 0 1.31-.86c.11-.77-.54-1.76-1.17-1.8a1.27 1.27 0 0 0-1.33 1.06ZM57.74 73.38a.839.839 0 0 0 .43.54c.29.12.74-.3.67-.63-.07-.33-.24-.37-.31-.47-.53-.03-.86.24-.79.56ZM48.38 52.7a.78.78 0 0 0 .88-.58.86.86 0 0 0-.62-1 .79.79 0 0 0-.26 1.55v.03ZM60.1 62.33c.17 0 .48 0 .53-.3a.45.45 0 0 0-.36-.48c-.14 0-.59-.06-.69.26-.1.32.42.51.52.52ZM58 55.83a.76.76 0 0 0-.28-.93c-.41-.17-1.15.53-1 .84.15.31 1.08.48 1.28.09ZM58.62 46.07a.6.6 0 0 0 .2-.53c0-.12-.38-.39-.59-.32-.21.07-.23.58-.16.71a.569.569 0 0 0 .55.14ZM59.46 67.74c.09-.06.2-.09.23-.16s-.08-.19-.11-.19-.25 0-.27.13c-.02.13.09.13.15.22ZM40.23 42.18v-1.29a.62.62 0 0 0-.43-.91.73.73 0 0 0-.79.27c.33.83.7 1.64 1.1 2.44a.65.65 0 0 0 .12-.51ZM39.66 90.16c.57.18 1.36 0 1.46-.43a.818.818 0 0 0-.38-.74.26.26 0 0 0-.2-.37c-.2-.06-.34 0-.4.2-.22-.13-.28-.39-.44-.59a1.997 1.997 0 0 0-.72-.47c.161-.074.312-.168.45-.28a1.1 1.1 0 0 0 .31-1.31 1.23 1.23 0 0 0-1.2-.64c-.22.59-.42 1.18-.61 1.79.072.118.16.226.26.32h-.34c-.21.71-.4 1.44-.56 2.16.068.03.138.053.21.07.727.036 1.45.133 2.16.29ZM39.21 83.74c.44.5.93.7 1.32.47a1.52 1.52 0 0 0 .36-1.77.662.662 0 0 0-.89-.34c-.3.54-.55 1.09-.79 1.64ZM37.55 98.09a1 1 0 0 0 .39-1.09c-.11-1.14-.49-1.5-1.5-1.39 0 .66-.06 1.32-.06 2V98a.8.8 0 0 0 1.17.09ZM38 94.61c.21-.29.18-.93-.12-1.06a2.772 2.772 0 0 0-1.18-.37c-.07.57-.13 1.14-.17 1.71a1.17 1.17 0 0 0 1.47-.28ZM41.81 38.52a1.78 1.78 0 0 0 1.55-1.81c-.1-.6-.9-.58-1.22-.28-.32.3-.26.16-.7 0-.44-.16-1.11-.07-1.11.73a1.5 1.5 0 0 0 1.48 1.36ZM46 47.93a1.588 1.588 0 0 0 .76 1.34 1 1 0 0 0 1.16-.92c.09-.46-.31-.87-1-1-.51-.08-.92.15-.92.58ZM45.8 37.13a.38.38 0 0 0 .34-.24c0-.14-.2-.31-.34-.37s-.41 0-.45.24c-.04.24.3.34.45.37ZM44.48 43.45c.35 0 .43-.23.47-.49.04-.26-.18-.69-.52-.63a2.171 2.171 0 0 0-.63.3.729.729 0 0 0 .68.82ZM43.45 46.67c.35 0 .43-.23.47-.5.04-.27-.18-.68-.52-.63-.226.067-.44.171-.63.31a.749.749 0 0 0 .68.82ZM47.3 42.93c.12 0 .53 0 .56-.23.03-.23-.3-.42-.43-.43-.13-.01-.4.08-.43.26-.03.18.17.37.3.4ZM88.48 92.15a1.19 1.19 0 0 0 0-1.52c-.36-.42-.82-.4-1.36.08a1.16 1.16 0 0 0-.26 1.29 1.31 1.31 0 0 0 1.62.15ZM39.23 99.39c-.12-.12-.4-.28-.6-.09a.47.47 0 0 0 0 .61h.8a.718.718 0 0 0-.2-.52ZM43.65 87.9a2.54 2.54 0 0 0-.12 1.72c.06.4.5.51.4.79a1.13 1.13 0 0 0-.52.15 1.14 1.14 0 0 0-.58 1.07 1 1 0 0 0 .59.82l.22.08a1.27 1.27 0 0 0 1.5-.23c.016.223.092.437.22.62 0-.5.08-1 .15-1.44a.749.749 0 0 0-.13-.56c-.27-.34.66-.73.31-1.22-.35-.49.07-1.08-.42-1.63-.49-.55-1.27-.74-1.62-.17ZM44 76.84a.75.75 0 0 0 .54.9.71.71 0 0 0 .81-.66.649.649 0 0 0-.56-.76.62.62 0 0 0-.79.52ZM43.28 87.61a.42.42 0 0 0 .26-.46.38.38 0 0 0-.43-.23.52.52 0 0 0-.31.49c.02.17.32.24.48.2ZM61.78 60.06c.13-.53 0-.91-.67-.9-.67.01-.77 1-.51 1.23.26.23 1.1.05 1.18-.33ZM44.91 82.31a.56.56 0 0 0 .52-.67 1.759 1.759 0 0 0-.22-.76.68.68 0 0 0 .07-1.19.74.74 0 0 0-1.11.18.81.81 0 0 0 .22 1 1.12 1.12 0 0 0-.4.68c.01.34.54.76.92.76ZM51.63 70.34c-.51-.11-1.16.14-1.26.53-.2.77.52 1.2.89 1.4.37.2 1.05-.52 1-1.2a.73.73 0 0 0-.63-.73ZM52.26 75a.44.44 0 0 0 .17.73c.22.1.84.2.94 0 .1-.2-.14-.71-.29-.91-.15-.2-.57-.12-.82.18ZM49.14 53.21a.79.79 0 0 0-.42.76l.73.74a.78.78 0 0 0 .67-.5 1.001 1.001 0 0 0-.2-.86.85.85 0 0 0-.78-.14ZM50 74a.652.652 0 0 0 .53.8.708.708 0 0 0 .86-.59.78.78 0 0 0-.64-.84.71.71 0 0 0-.75.63ZM46.32 73.6a.79.79 0 0 0-.32-.26c-.51.55-1 1.1-1.48 1.67a1.21 1.21 0 0 0 .91.49c.72.06 1.06-.24 1.14-1 .016-.13.016-.26 0-.39a.69.69 0 0 0 .37-.22.41.41 0 0 0-.06-.5.41.41 0 0 0-.48.1.36.36 0 0 0-.08.11ZM40.67 92.72a.51.51 0 0 0-.17-.26.86.86 0 0 0-.93.07c-.31-.15-.54 0-.82.26-.28.26-.75.8-.31 1.21.44.41.67.23.82.1.066.061.136.118.21.17a1 1 0 0 0 .44.14c.113.1.246.175.39.22a.78.78 0 0 0 1.08-.38 1.14 1.14 0 0 0-.58-1.49l-.13-.04ZM69.75 77.61c0-.43-.94-.76-1.3-.46-.36.3-.46 1-.16 1.2.3.2 1.41-.35 1.46-.74ZM65.26 62.59c.11 0 .34-.21.33-.32-.01-.11-.18-.37-.3-.38-.12-.01-.46 0-.48.34-.02.34.32.35.45.36ZM64.52 73.41a.7.7 0 0 0 .8-.66.64.64 0 0 0-.55-.77c-.47-.06-1.07.27-1.1.61-.03.34.48.76.85.82ZM71.48 81.86c.45-.25 1-.39 1.26-1l-.26-.69c.37-.58.45-1.23.15-1.49a.69.69 0 0 0-.86 0c-.52.34-.58.6-.34 1.3-.228.414-.432.842-.61 1.28a.49.49 0 0 0 .66.6ZM61.19 53.92c.2 0 .75-.05.79-.49.04-.44-.48-.51-.66-.52a.73.73 0 0 0-.54.38.47.47 0 0 0 .41.63ZM82.92 83.1a.68.68 0 0 0 .62-.63.63.63 0 0 0-1-.43.65.65 0 0 0 .38 1.06ZM51.25 77.19a1.68 1.68 0 0 0 1.22 1.69c.71.16 1.38-.44 1.56-1.4a1.23 1.23 0 0 0-1-1.45 1.62 1.62 0 0 0-1.78 1.16ZM84.65 97.61a1.3 1.3 0 0 0-.07 2.07c.108.109.237.194.38.25h1.21a1.32 1.32 0 0 0 .44-.3 1.75 1.75 0 0 0-.22-2.09 1.179 1.179 0 0 0-1.74.07ZM81.58 87.7a1.352 1.352 0 0 0 1.78-.7l.22-.44c.26.154.526.294.8.42a.71.71 0 0 0 1.06-.35 1.11 1.11 0 0 0 0-1.29 1 1 0 0 0-1.21-.34 4.816 4.816 0 0 0-.88.44 4.092 4.092 0 0 0-.42-.21 1.5 1.5 0 0 0-1.62.32 1.7 1.7 0 0 0-.2 1.67.88.88 0 0 0 .47.48ZM77.7 82.7a.2.2 0 0 0-.17 0h.17ZM90.64 97.07c0-.76 0-1.52-.11-2.27a1.639 1.639 0 0 0-1.44.51.998.998 0 0 0 .08 1.48 1.27 1.27 0 0 0 1.47.28Z"/><path fill="#7DE2D1" d="M66.22 54.05h-5.86l-2-15.35h9.86l-2 15.35ZM66.22 59.21h-5.86v5.29h5.86v-5.29Z"/><path fill="#CED5E1" d="M100.49 83c5.83-4.47 7.82-12.91 8.43-19.88.63-7.24-.94-16.26-6.18-21.6-.82-.85-2.61 0-2.11 1.23 2.58 6.37 5.6 11.83 5.62 18.92.148 3.67-.607 7.32-2.2 10.63-1.57 3.12-3.44 6.21-4.88 9.38-.35.76.46 2 1.32 1.32Z"/><path fill="#CED5E1" d="M97.47 72.84a8.3 8.3 0 0 0-1.1 4.16c.008 1.126.108 2.25.3 3.36.08 1.53-.19 3.14 1.19 4.21a5.26 5.26 0 0 0 3.77.66c2.71-.25 5.78-.18 8.06-1.84.75-.55.9-2.14-.3-2.32-2.33-.33-4.37.46-6.59 1.06-.69.18-2.67.71-3.36.24s-.64-2.17-.45-2.84c.55-1.93 1-4.55.25-6.47a1 1 0 0 0-1.77-.23v.01ZM29.6 41.93c-5.92 4.8-7.74 14.46-8.24 21.65-.5 7.19.82 16.42 6.26 21.7 1.1 1.07 2.54-.27 2-1.53-3.08-7.07-5.8-13-5.51-20.9.28-7.73 4.23-13.11 7.12-20 .42-1-1-1.46-1.62-.94l-.01.02Z"/><path fill="#CED5E1" d="M32 53.86c.698-1.569.98-3.29.82-5 0-1.21-.48-2.21-.41-3.42s.32-3.2-1-4.08c-1.12-.75-2.72-.42-3.93-.2-2.86.53-5.89.75-8.22 2.65-.91.76-.09 2.1.9 2.17 3.31.21 6.9-2.76 9.92-2.26-.44-.07-.3-.54-.26-.09 0 .29.14.61.19.9.2.832.2 1.699 0 2.53-.54 2.09-.69 4.84.3 6.81a1 1 0 0 0 1.67 0l.02-.01Z"/></svg>