<svg xmlns="http://www.w3.org/2000/svg" fill="none" viewBox="0 0 128 128"><path fill="#fff" d="M90.73 10.56a.64.64 0 0 0 .72.46h.08a.87.87 0 0 0 .63-.07c-.6-.32-1.22-.64-1.84-.94.08.22.222.41.41.55ZM93.79 14.56c-.54-.52-1.12-.6-1.48-.2a.837.837 0 0 0-.13.21.4.4 0 0 0-.33-.17c-.35 0-.28.46-.28.64s.29.3.36.27l.13-.08a1.5 1.5 0 0 0 .23 1 1.1 1.1 0 0 0 1.6-.16c.53-.5.5-.92-.1-1.51ZM93.08 18.77a.46.46 0 0 0-.24-.5.63.63 0 0 0-.63.25c-.09.18.14.45.33.51a.46.46 0 0 0 .54-.26ZM85 9.14a.831.831 0 0 0 1 .72.88.88 0 0 0 .7-.86.851.851 0 0 0-1-.68.67.67 0 0 0-.7.82ZM90.23 15.29a1.39 1.39 0 0 0-.92-1.51 1.21 1.21 0 0 0-.91.17 1.64 1.64 0 0 0-.4 2.26 5.49 5.49 0 0 0 1.08.1 1.27 1.27 0 0 0 1.15-1.02ZM82.92 7c.104.129.221.246.35.35.129.132.24.28.33.44.36.52.77.68 1.11.45a.68.68 0 0 0 .3-.52c-.69-.26-1.39-.49-2.09-.72ZM88.83 18.05a.31.31 0 0 0-.07.51.32.32 0 0 0 .52.05.3.3 0 0 0 .06-.48.31.31 0 0 0-.51-.08ZM99 21.3c0-.2-.53-.65-.76-.59-.23.06-.45.76-.37.86.08.1.59.57.79.46a.91.91 0 0 0 .34-.73ZM84.8 16.5c.24.23.54.42.88.13a.9.9 0 0 0 0-1.25 2.438 2.438 0 0 0-.87.25.52.52 0 0 0-.01.87ZM78 6.65a1 1 0 0 0 1.24.49.8.8 0 0 0 .43-1L79.64 6l-1.31-.33a1 1 0 0 0-.33.98ZM64.76 12.81c.138.317.373.583.67.76.072.171.182.325.32.45A1.64 1.64 0 0 0 68 13.6a1.16 1.16 0 0 0-.17-1.71 1.51 1.51 0 0 0-1.08-.41 1.06 1.06 0 0 0-1.32-.26 1.14 1.14 0 0 0-.67 1.59ZM72.54 5.73a.71.71 0 0 0 .18.5 1.36 1.36 0 0 0 1.38.1s0-.09.07-.14a1.47 1.47 0 0 0 .61-1.25c-.7-.13-1.41-.25-2.12-.35a.93.93 0 0 0-.26.93.853.853 0 0 0 .14.21ZM65.34 5.9c.27.16.82.63 1.18.26s-.07-.94-.22-1.24c-.15-.3-.66-.28-1 0-.34.28-.3.74.04.98ZM74.62 13.2a.687.687 0 0 0 0 .19 2 2 0 0 0-1.46.54.843.843 0 0 0 .16 1.19 1.213 1.213 0 0 0 1.71.12 1.428 1.428 0 0 0 .34-1.13.8.8 0 0 0 .77-.42c.31-.51 0-.91-.39-1.34-.51.13-1.11.16-1.13.85ZM67.22 5.15a1.33 1.33 0 0 0 1.63.67 1 1 0 0 0 .36-.22 1 1 0 0 0 .2.33c.33.31 1.56.07 1.94-.39a1.2 1.2 0 0 0 0-1.11 58.25 58.25 0 0 0-4-.36 1.53 1.53 0 0 0-.13 1.08ZM76.27 17.75a1.59 1.59 0 0 0-1.84-.34 1.52 1.52 0 0 0-.11 2 1.14 1.14 0 0 0 .84.32.78.78 0 0 0-.07.74.93.93 0 0 0 1.21.5.848.848 0 0 0 .49-1.19.84.84 0 0 0-.49-.45h.08a1.072 1.072 0 0 0-.11-1.58ZM100.31 20.4c.56.05 1.1.25 1.36-.34a.862.862 0 0 0-.29-1.1.992.992 0 0 0-.25-.15c.1-.288.1-.602 0-.89a1.207 1.207 0 0 0-1.34-.12.64.64 0 0 0-.09 1c.15.195.329.367.53.51-.119.36-.09.752.08 1.09ZM52.93 6.91l-.35.17a.76.76 0 0 0-.52-.65c-.38-.16-.8-.11-1 .29-.13.32-.13.68 0 1a.66.66 0 0 0 .68.32 2.48 2.48 0 0 0 .46 1.87c.211.344.537.602.92.73a1.86 1.86 0 0 0 1.55-.21c.54-.29 1.15-.1 1.53-.59a2.59 2.59 0 0 0 .16-3.11 2.13 2.13 0 0 0-1.72-1c-.73.01-1 .9-1.71 1.18ZM71.17 12.66a.84.84 0 0 0-.23.74c.07.2.47.66.74.6.27-.06.37-.68.36-.92-.01-.24-.61-.64-.87-.42ZM72.37 11.89a1.82 1.82 0 0 0 .94-1.62c.192-.31.26-.68.192-1.037a1.45 1.45 0 0 0-.562-.893 1.67 1.67 0 0 0-2.13 0 .9.9 0 0 0-1.12-.37.84.84 0 0 0-.34 1.16.71.71 0 0 0 1 .38 2.29 2.29 0 0 0 .65 1.38c.077.078.165.146.26.2a.539.539 0 0 1 0 .1c.21.57.66.81 1.11.7ZM70.68 17.27a1.24 1.24 0 0 0-.73-.33 1.757 1.757 0 0 0-.14-.12c-1.34-.1-.94-1-1.87-1.36a1.39 1.39 0 0 0-.45-.06 1.09 1.09 0 0 0-.88 1.77c.35.492.76.939 1.22 1.33a1.3 1.3 0 0 0 .89.23.88.88 0 0 0 .14.23c.44.467.96.417 1.56-.15a1.33 1.33 0 0 0 .26-1.54ZM52.41 20a1.46 1.46 0 0 0 1.55-.2 1.129 1.129 0 0 0 .1-1.36 1.59 1.59 0 0 0 .84-1.85 1.639 1.639 0 0 0-1.34-1.13 1.228 1.228 0 0 0 .37-1c0-1.15-.68-1.82-1.4-1.84a1.91 1.91 0 0 0-1.44.92.8.8 0 0 0-1-.38.91.91 0 0 0-.46 1.12.86.86 0 0 0 1.07.56l.15-.07a1.581 1.581 0 0 0 1.3 1.06h.12a1.45 1.45 0 0 0-.22 1.63c.077.235.2.453.36.64a.78.78 0 0 0-.53.32 1.13 1.13 0 0 0 .53 1.58ZM50.84 18.61a.921.921 0 0 0-1.16-.61.86.86 0 0 0-.39 1.15.81.81 0 0 0 1 .51.77.77 0 0 0 .55-1.05ZM77.5 10a1.56 1.56 0 0 0 .12-2.15 2.49 2.49 0 0 0-2.58 0 1.59 1.59 0 0 0 .17 2.15 1.85 1.85 0 0 0 2.29 0ZM84.2 15.36a1.84 1.84 0 0 0 0-1.18 1.75 1.75 0 0 0-.92-1c-.1-.23-.33-.52-.51-.51a.24.24 0 0 0-.14.06 1.39 1.39 0 0 0-.93-.53 2.56 2.56 0 0 0-2.57 1.73 2.07 2.07 0 0 0 .21 2c.43.58 1.3.27 2 .66 1.53.92 2.43-.1 2.86-1.23ZM69.69 21.74a.25.25 0 0 0-.15.32.28.28 0 0 0 .33.12c.08 0 .12-.24.09-.31a.26.26 0 0 0-.27-.13ZM32.13 21c.3.15 1.17-1.06 1.07-1.42-.1-.36-1-.36-1.42.1-.42.46.05 1.2.35 1.32ZM33.61 14.38c-.17-.36-.43-.58-.8-.48a4.87 4.87 0 0 0-2.5 1.37 1.5 1.5 0 0 0-.2.41c-.2 1 .48 1.65 1.41 1.39a7.11 7.11 0 0 0 1.64-.74 1.7 1.7 0 0 0 .45-1.95ZM38.59 18.38a.89.89 0 0 0-.59 1.07 1 1 0 0 0 1.16.64.91.91 0 0 0-.58-1.71h.01ZM27.11 20.44a.85.85 0 0 0 .79.78c.52 0 .88-1.15.6-1.41s-1.41.12-1.39.63ZM28.88 17.52c-.08.19.18.44.33.5.15.06.56 0 .63-.27.07-.27-.3-.48-.44-.5a.6.6 0 0 0-.52.27ZM56.69 5.63A.59.59 0 0 0 56.6 5c-.15-.11-.46-.32-.59-.15a.57.57 0 0 0 0 .59c.09.16.55.36.68.19ZM46.69 6.74l.17-.09a1.71 1.71 0 0 0-.07 1.47c.07.174.172.333.3.47a2.25 2.25 0 0 0-1.85 1.06 1.63 1.63 0 0 0 .76 1.86c.45.29.88.47.87 1.15 0 .49.48.6 1 .56.41-.51.37-1-.08-1.28.264-.465.485-.954.66-1.46A2 2 0 0 0 47.79 9c.375.05.757-.02 1.09-.2 1.09-.53 1.29-1 .95-1.95a1.511 1.511 0 0 0-.9-.9c-.92.24-1.83.5-2.73.78a.65.65 0 0 0 .49.01ZM56.44 15.55a.89.89 0 0 0 .56-1.09.94.94 0 0 0-1.12-.53.74.74 0 0 0-.5 1 .828.828 0 0 0 1.06.62ZM44 16.8a.85.85 0 0 0-1.15-.4 1.59 1.59 0 0 0-.27-.8 1.64 1.64 0 0 1-.37-1.13 1.76 1.76 0 0 0-.88-1.47 1.52 1.52 0 0 0-1.7 0h-.13a1.45 1.45 0 0 0 0-1.08c-.2-.49-.83-.65-1.55-.38-.55.2-1 .88-.83 1.29a1.59 1.59 0 0 0 1.66.9.57.57 0 0 0 .23-.12 1.47 1.47 0 0 0 0 .73c.12.655.47 1.244.99 1.66.18.155.308.36.37.59a1.1 1.1 0 0 0 1.61.91.61.61 0 0 0 .05.33 1 1 0 0 0 1.22.28A1 1 0 0 0 44 16.8ZM48 17.41a1.76 1.76 0 0 0 .71-1.95 1 1 0 0 0-1.38-.53 1.07 1.07 0 0 0-.69 1.6c.2.66.85 1.08 1.36.88ZM95 17.83a1.49 1.49 0 0 0 .28 1.57 1 1 0 0 0 1.24-.11c.56-.67.66-1.35.24-1.71a1.49 1.49 0 0 0-1.76.25ZM96.13 15.71a1.33 1.33 0 0 0 1.11-1.12c.072.21.2.397.37.54a.63.63 0 0 0 .93-.28c-1.09-.76-2.2-1.51-3.34-2.2a1.78 1.78 0 0 0-1 1.8 1.86 1.86 0 0 0 1.93 1.26ZM81.63 10.26a1.55 1.55 0 0 0 1.74-1 1.61 1.61 0 0 0-.67-1.38 1.832 1.832 0 0 0 0-.4.51.51 0 0 0-.76-.39c-.27.13-.51.3-.54.58a1.49 1.49 0 0 0-1 1c-.31.57.41 1.33 1.23 1.59ZM105.42 20.47c-.85-.81-1.72-1.59-2.62-2.35a.655.655 0 0 0 0 .14c-.06.83.42 1.67 1.13 1.49.077.123.168.237.27.34a1.46 1.46 0 0 0 1.22.38ZM101.35 16.94c-.49-.39-1-.79-1.49-1.16a1.332 1.332 0 0 0 .41 1 1.51 1.51 0 0 0 1.08.16ZM88 9h.07l-.72-.32A.79.79 0 0 0 88 9ZM64.2 16.59c.33-.33-.06-1.34-.43-1.33-.37.01-.9.88-.59 1.23a.81.81 0 0 0 1.02.1ZM63.37 9.91a.8.8 0 0 0-.55-.91c-.67-.23-.91.3-1.16.77l-.88-.22v-.24c.137-.07.264-.158.38-.26.54-.45 1.09-.87 1.63-1.3.87.93 1 .93 1.64 0 .25.084.52.084.77 0a.76.76 0 0 0 .45-1A1.15 1.15 0 0 0 64.38 6a.94.94 0 0 0-.66 1.13 1.23 1.23 0 0 0-.52.07c-.82-1.37-1.74-1.27-2.58.2-.11.01-.22.01-.33 0a.65.65 0 0 0-.75.27 1.47 1.47 0 0 0-.85.28 1.26 1.26 0 0 0 .23 1.55c.14.18.3.33.45.5a2.999 2.999 0 0 0-.26 1.57c-.12.057-.237.12-.35.19a1.56 1.56 0 0 0-.25 2 1.6 1.6 0 0 0 2.2-.16 1.71 1.71 0 0 0 .39-1.23l.22-.06c.87-.27 1-.95.92-1.73.48-.08 1.07.05 1.13-.67ZM66 22.06c.4-.34.29-1.14-.23-1.72a1 1 0 0 0-1.25 0 1.21 1.21 0 0 0-.19 1.53 1.4 1.4 0 0 0 1.67.19ZM88 11.39a1.68 1.68 0 0 0-1-.81.93.93 0 0 0-.91-.32c-.25.08-.35.39-.38.7a1.61 1.61 0 0 0-.49 2.09 2 2 0 0 0 2.4.34 1.52 1.52 0 0 0 .38-2ZM78.23 18.25c.59.22 1-.16 1.26-.69-.17-.47-.38-.94-1-.91a.761.761 0 0 0-.75.83 1.001 1.001 0 0 0 .49.77Z"/><path fill="#fff" d="M77.77 12.45a.84.84 0 0 0-1-.56.86.86 0 0 0-.56 1.11.67.67 0 0 0 .93.54.83.83 0 0 0 .63-1.09ZM59.73 5.69a1.79 1.79 0 0 0 2.41-.42A1.94 1.94 0 0 0 62.49 4c-1.14 0-2.28.09-3.4.18a1.902 1.902 0 0 0 .64 1.51ZM41.86 9C42.6 8.75 43 8.29 43 7.81c-.69.26-1.38.53-2.06.81a.702.702 0 0 0 .92.38ZM43 10.71a1 1 0 0 0 .51-1.19 1 1 0 0 0-1.24-.44.88.88 0 0 0-.48 1.11 1 1 0 0 0 1.21.52ZM36.67 18.56a1 1 0 0 0 .86-.29 1 1 0 0 0-.46-1.47.88.88 0 0 0-1.07 1 1.16 1.16 0 0 0 .67.76ZM58.35 9.17c.19-.19.15-.62.18-.84-.46-.44-.79-.32-1-.08-.21.24-.39.65 0 .88a1 1 0 0 0 .82.04ZM59.65 19.71a.85.85 0 0 0-1.17-.52 1 1 0 0 0-.39 1.27.93.93 0 0 0 1.16.39.84.84 0 0 0 .4-1.14ZM60.71 15.81a.544.544 0 0 0 .12.09 1 1 0 0 0 .82.09c.59-.32.51-.85.22-1.48a2.898 2.898 0 0 0-.88 0h-.11a.69.69 0 0 0-.6.27 1.08 1.08 0 0 0 .08.89.5.5 0 0 0 .35.14Z"/><g clip-path="url(#a)"><path fill="#ECF0F6" d="M67.33 124c33.137 0 60-26.863 60-60s-26.863-60-60-60-60 26.863-60 60 26.863 60 60 60Z"/><path fill="#fff" d="M93.94 10.58a.64.64 0 0 0 .72.46h.08a.87.87 0 0 0 .63-.07c-.6-.32-1.22-.64-1.84-.94.08.22.222.41.41.55ZM97 14.58c-.54-.52-1.12-.6-1.48-.2a.843.843 0 0 0-.13.21.4.4 0 0 0-.33-.17c-.35 0-.28.46-.28.64s.29.31.36.27l.13-.08a1.5 1.5 0 0 0 .23 1 1.09 1.09 0 0 0 1.59-.16c.54-.5.51-.92-.09-1.51ZM96.29 18.79a.46.46 0 0 0-.24-.5.63.63 0 0 0-.63.25c-.09.18.14.45.33.51a.46.46 0 0 0 .54-.26ZM96.69 25.96c.35-.13.65-.36.49-.73-.16-.37-.58-.91-.91-.85-.33.06-.37.89-.34 1.19.03.3.35.55.76.39ZM88.25 9.17a.83.83 0 0 0 1 .71.88.88 0 0 0 .69-.89.847.847 0 0 0-1-.68.68.68 0 0 0-.69.86ZM95.17 30.26c-.23.2.06.55.14.58.08.03.39.16.57 0a.3.3 0 0 0 0-.46c-.18-.13-.48-.31-.71-.12ZM93.44 15.31a1.39 1.39 0 0 0-.92-1.51 1.21 1.21 0 0 0-.91.17 1.64 1.64 0 0 0-.42 2.26c.355.073.717.11 1.08.11a1.29 1.29 0 0 0 1.17-1.03ZM86.13 7.02c.104.129.221.246.35.35.129.132.24.28.33.44.36.52.77.68 1.11.45a.68.68 0 0 0 .3-.52c-.69-.26-1.39-.49-2.09-.72ZM92 18.07a.31.31 0 0 0-.07.51c.16.21.32.21.52 0a.3.3 0 0 0 .06-.48c-.11-.14-.27-.19-.51-.03ZM103.69 43.96a.567.567 0 0 0-.21.51.538.538 0 0 0 .49.22c.14 0 .51-.34.38-.56a.6.6 0 0 0-.66-.17ZM114.46 55.97c-.35 0-.28.46-.28.64s.29.3.36.27c.07-.03.36-.26.37-.42.01-.16-.1-.5-.45-.49ZM115.93 40.55h.08a.77.77 0 0 0 .45 0 .94.94 0 0 0 .65-1.13.999.999 0 0 0-.43-.51 1.901 1.901 0 0 0-.09-.34.998.998 0 0 0-1.39-.31 1.145 1.145 0 0 0-.675.652 1.143 1.143 0 0 0 .035.938c.28.54.96.91 1.37.7ZM125.09 61.01c.62-.18 1.85-.71 1.38-1.81a1.46 1.46 0 0 0-1.61-.7 1.636 1.636 0 0 0 0-1.46 1.653 1.653 0 0 0-2.09-.56 1.379 1.379 0 0 0-.63 1.75 2.18 2.18 0 0 0 1.89.84.847.847 0 0 0-.22.64c.06.49-1.1.3-1.06 1 .04.7-.73 1-.59 1.85.14.85.81 1.54 1.47 1.17.564-.384.98-.948 1.18-1.6.19-.51-.35-.95.28-1.12ZM113.88 41.61a.998.998 0 0 0-1.26-.4.772.772 0 0 0-.43.76 1.208 1.208 0 0 0 .07 1.12.94.94 0 0 0 1.63-.8.817.817 0 0 0-.01-.68ZM102.25 21.32c0-.2-.53-.65-.76-.59-.23.06-.45.76-.37.86.08.1.59.57.78.46a.89.89 0 0 0 .35-.73ZM99.88 26.87a1.809 1.809 0 0 0 1.87.1c.44-.47.36-1-.22-1.55a.877.877 0 0 0-.8-.24.665.665 0 0 0 0-.39 1 1 0 0 0-1.13-.68.79.79 0 0 0-.59.94.86.86 0 0 0 .85.77.8.8 0 0 0 .02 1.05ZM88 16.52c.25.23.55.42.89.13a.9.9 0 0 0 0-1.25 2.438 2.438 0 0 0-.87.25.53.53 0 0 0-.02.87ZM114.31 38.09c-.284-.179-.6-.3-.93-.36-.48 0-.77.61-.63 1.13a.774.774 0 0 0 1 .5.996.996 0 0 0 .56-1.27ZM106.76 29.24a.881.881 0 0 0 1.09-.33.624.624 0 0 0 .11-.53 11.285 11.285 0 0 0-.77-1.06c.26-1 0-1.83-.58-2a1.757 1.757 0 0 0-1.69.95.754.754 0 0 0-.18-.22.999.999 0 0 0-1.24 0 1.247 1.247 0 0 0-.06 1.36 1.221 1.221 0 0 0 1.45-.12v-.08c.395.362.884.608 1.41.71-.07.53-.3 1.09.46 1.32ZM118.93 52.51c.16 0 .59-.27.53-.47a.561.561 0 0 0-.54-.27c-.18 0-.53.19-.46.39a.573.573 0 0 0 .47.35ZM120.86 50.51a.841.841 0 0 0 0-1 1.001 1.001 0 0 0-1.17-.4c-.59.33-.51.91-.49 1.44.93.4 1.34.4 1.66-.04ZM122.17 39.66c-.22-.5-.44-1-.67-1.5l-.17.06a.851.851 0 0 0-.37.44 1.65 1.65 0 0 0-.9 0c-.65.13-1 .57-.92 1 .08.43 1.11 1.25 1.49 1.19a1.133 1.133 0 0 0 .91-1.08.8.8 0 0 0 .57-.07s.04-.03.06-.04ZM81.24 6.67a1 1 0 0 0 1.23.49.8.8 0 0 0 .44-1l-.06-.11-1.31-.33a1 1 0 0 0-.3.95ZM127.32 63.39a.416.416 0 0 0-.11.07.998.998 0 0 0 0 1.22h.06v-.76c0-.25.05-.3.05-.53ZM68 12.83c.139.317.373.583.67.76.073.171.182.325.32.45a1.64 1.64 0 0 0 2.2-.42 1.16 1.16 0 0 0-.17-1.71 1.51 1.51 0 0 0-1.08-.41 1.06 1.06 0 0 0-1.32-.26 1.141 1.141 0 0 0-.62 1.59ZM75.74 5.75a.75.75 0 0 0 .19.5 1.34 1.34 0 0 0 1.37.1s0-.09.08-.14a1.47 1.47 0 0 0 .61-1.25c-.7-.13-1.41-.25-2.12-.35a.93.93 0 0 0-.26.93c.036.074.08.145.13.21ZM124 44.27a.826.826 0 0 0 0 .35.628.628 0 0 0 .38.56c-.38-1.15-.8-2.28-1.24-3.4a1.449 1.449 0 0 0-.69 1.67 1.464 1.464 0 0 0 1.55.82ZM118 43.9a1.488 1.488 0 0 0 .613 1.077 1.482 1.482 0 0 0 1.217.233c.79-.16 1.2-1 1-2a1.25 1.25 0 0 0-1.37-1.09 1.698 1.698 0 0 0-1.66-.38 1.492 1.492 0 0 0-.49 1.6 1.118 1.118 0 0 0 .69.56ZM68.55 5.92c.27.16.81.63 1.18.26.37-.37-.07-.94-.22-1.23-.15-.29-.66-.29-1 0-.34.29-.35.73.04.97ZM121.39 47.86a.919.919 0 0 0 .45-1.3.797.797 0 0 0-.524-.388.792.792 0 0 0-.636.138c-.34.22-.71.46-.54.85.34.65.86.89 1.25.7ZM77.83 13.22a.68.68 0 0 0 0 .19 2.001 2.001 0 0 0-1.46.54.84.84 0 0 0 .16 1.19 1.2 1.2 0 0 0 1.7.12 1.41 1.41 0 0 0 .35-1.13.8.8 0 0 0 .77-.42c.31-.51-.05-.91-.4-1.34-.5.13-1.1.16-1.12.85ZM70.43 5.17a1.33 1.33 0 0 0 1.63.67 1 1 0 0 0 .36-.22c.042.123.11.236.2.33.33.31 1.56.07 1.94-.39a1.2 1.2 0 0 0 0-1.11 58.25 58.25 0 0 0-4-.36 1.53 1.53 0 0 0-.13 1.08ZM79.48 17.78a1.58 1.58 0 0 0-1.84-.35 1.52 1.52 0 0 0-.11 2 1.14 1.14 0 0 0 .84.32.78.78 0 0 0-.07.74.93.93 0 0 0 1.21.5.86.86 0 0 0 .49-1.19.8.8 0 0 0-.49-.44l.08-.05a1.062 1.062 0 0 0-.11-1.53ZM125.46 49.08c-.17-.66-.36-1.32-.55-2a1.161 1.161 0 0 0-.28.39c-.176.003-.35.044-.51.12l-.07.06c-1.18.07-1.46.85-.84 2.22a1.166 1.166 0 0 1-.2.25.762.762 0 0 0-.1 1 .81.81 0 0 0 .84.43c.92 0 1.21-.31 1.14-1.24v-.82a.402.402 0 0 0 .19 0 1 1 0 0 0 .38-.41ZM119.39 34.76a.468.468 0 0 0 .19.28.787.787 0 0 0-.54.9v.08a1.813 1.813 0 0 0-.72 1.65 1.108 1.108 0 0 0 1.63.47.852.852 0 0 0 .51-.86c.203.049.411.075.62.08a65.97 65.97 0 0 0-1.67-3.11 1.98 1.98 0 0 0-.02.51ZM106 21c-.74.15-1 .48-.93 1 .15.73.68 1.15 1.26 1a1.857 1.857 0 0 0 .83-1.47c-.04-.47-.46-.67-1.16-.53ZM116.85 33.73a.9.9 0 0 0-.91.71 1.004 1.004 0 0 0 .177.78 1.006 1.006 0 0 0 .693.4 1.09 1.09 0 0 0 .86-1.3.723.723 0 0 0-.287-.466.712.712 0 0 0-.533-.124ZM103.52 20.39c.56.05 1.1.25 1.36-.34a.861.861 0 0 0-.29-1.1.995.995 0 0 0-.25-.15 1.37 1.37 0 0 0 0-.89 1.207 1.207 0 0 0-1.34-.12.63.63 0 0 0-.287.478.637.637 0 0 0 .197.522c.148.198.327.37.53.51-.119.36-.09.752.08 1.09ZM106.49 25.07a.645.645 0 0 0 .5.24.637.637 0 0 0 .5-.24 1.162 1.162 0 0 0 .21-1.52 1.37 1.37 0 0 0-1.55-.11c-.38.33-.21 1.11.34 1.63ZM56.14 6.93l-.35.18a.76.76 0 0 0-.52-.66c-.39-.16-.8-.11-1 .29-.13.32-.13.68 0 1a.66.66 0 0 0 .68.32 2.43 2.43 0 0 0 .46 1.87 1.72 1.72 0 0 0 1.719.8 1.82 1.82 0 0 0 .75-.28c.54-.29 1.15-.1 1.53-.59a2.59 2.59 0 0 0 .16-3.11 2.09 2.09 0 0 0-1.72-1c-.73.01-1 .9-1.71 1.18ZM74.38 12.68a.85.85 0 0 0-.23.74c.06.2.47.66.74.6.27-.06.37-.68.35-.92a.6.6 0 0 0-.86-.42ZM75.58 11.91a1.78 1.78 0 0 0 .93-1.62 1.44 1.44 0 0 0-.36-1.93 1.67 1.67 0 0 0-2.13 0 .9.9 0 0 0-1.12-.37.84.84 0 0 0-.34 1.16.71.71 0 0 0 1 .38 2.29 2.29 0 0 0 .61 1.41c.077.078.165.145.26.2a.539.539 0 0 1 0 .1c.25.54.7.82 1.15.67ZM78.18 28.15a.73.73 0 0 0 1.2.45.76.76 0 0 0-.52-1.21.81.81 0 0 0-.68.76ZM80.75 22.53a1 1 0 0 0-.56-.5 1.57 1.57 0 0 0-2 .9c-.08.17-.15.34-.23.52-.33-.16-.63-.33-.94-.45a.829.829 0 0 0-1.21.46 1.3 1.3 0 0 0 .13 1.49 1 1 0 0 0 .93.38.74.74 0 0 0 .34.52c.52.21 1-.34 1-.64a.5.5 0 0 0-.17-.37l.23-.14c.16.07.33.16.5.22a1.72 1.72 0 0 0 1.85-.45 2 2 0 0 0 .13-1.94ZM73.89 17.29a1.24 1.24 0 0 0-.74-.33.77.77 0 0 0-.13-.12c-1.34-.1-.94-1-1.87-1.36a1.391 1.391 0 0 0-.45-.06 1.09 1.09 0 0 0-.88 1.77c.35.492.76.939 1.22 1.33.257.187.575.27.89.23.037.085.084.166.14.24.44.46 1 .41 1.56-.16a1.33 1.33 0 0 0 .26-1.54ZM55.62 19.99a1.45 1.45 0 0 0 1.54-.19 1.14 1.14 0 0 0 .11-1.37 1.59 1.59 0 0 0 .84-1.85 1.64 1.64 0 0 0-1.34-1.13 1.23 1.23 0 0 0 .37-1c0-1.15-.68-1.82-1.4-1.84a1.91 1.91 0 0 0-1.44.92.8.8 0 0 0-1-.38.91.91 0 0 0-.46 1.13.86.86 0 0 0 1.07.55l.15-.07a1.58 1.58 0 0 0 1.3 1.06h.12a1.47 1.47 0 0 0-.23 1.63c.084.234.209.45.37.64a.778.778 0 0 0-.53.32 1.13 1.13 0 0 0 .53 1.58ZM54.05 18.63a.919.919 0 0 0-1.16-.62.86.86 0 0 0-.39 1.15.8.8 0 0 0 1 .51.77.77 0 0 0 .55-1.04ZM52.92 32.81a.46.46 0 0 0-.22.44c.06.15.37.21.55.19.18-.02.4-.26.32-.49-.08-.23-.49-.18-.65-.14ZM28.11 24.14c-.22.1-.73.47-.53.94.2.47.76.26.94.16a.82.82 0 0 0 .35-.67.54.54 0 0 0-.76-.43ZM80.71 10.05a1.56 1.56 0 0 0 .12-2.15 2.49 2.49 0 0 0-2.58 0 1.59 1.59 0 0 0 .17 2.15 1.85 1.85 0 0 0 2.29 0ZM83.11 23.81c0 .43.3.54 1.2.44a.76.76 0 0 0-.52-1.2.78.78 0 0 0-.68.76ZM103.83 51.98a.644.644 0 0 0 .26-.49c0-.13-.42-.43-.55-.37-.13.06-.17.51-.13.68.04.17.36.23.42.18ZM104.74 49.63c0 .07.17.17.28.12a.27.27 0 0 0 .13-.34.28.28 0 0 0-.25-.11v-.61c.29-.74-.16-1.74-.81-1.82a1.261 1.261 0 0 0-1.31.7 1.003 1.003 0 0 0 .27 1.32c.33.28.84 1 1.43.81a.617.617 0 0 0 .26-.07ZM98.51 23.06a1.47 1.47 0 0 0 1.82-.42c.41-.47.32-1-.22-1.53a1.873 1.873 0 0 0 0-.41c-.16-.66-.71-.91-1.53-.69a1.18 1.18 0 0 0-.77 1.21c.1.282.281.529.52.71a1.51 1.51 0 0 0 .18 1.13ZM102.78 57.77a.824.824 0 0 0 .454.474.826.826 0 0 0 .656-.004.871.871 0 0 0 .46-1 .84.84 0 0 0-1.14-.43.668.668 0 0 0-.43.96ZM90.07 22.55a.668.668 0 0 0 0-.24c-.09-.26-.51-.85-.74-.79a.72.72 0 0 1-.23-.28c-.19-.43-.5-.46-1-.37-.5.09-1.23.25-1.09.93.14.68.62.68.82.61.2-.07.59.15.4.29-.19.14-.23.44.11.93a.88.88 0 0 0 1.27.36 1.26 1.26 0 0 0 .46-1.44ZM89.39 33.94c-.1 0-.44.2-.4.43.04.23.46.26.63.24a.45.45 0 0 0 .28-.4c-.03-.15-.33-.26-.51-.27ZM87.41 15.39a1.84 1.84 0 0 0 0-1.18 1.81 1.81 0 0 0-.92-1c-.1-.23-.33-.52-.51-.51a.24.24 0 0 0-.14.06 1.39 1.39 0 0 0-.93-.53 2.56 2.56 0 0 0-2.57 1.73 2.07 2.07 0 0 0 .21 2c.43.58 1.3.27 2 .67 1.53.9 2.45-.12 2.86-1.24ZM84.85 26.95c-.1.14-.28.34-.09.56a.3.3 0 0 0 .47 0c.11-.12.37-.46.2-.65-.17-.19-.53 0-.58.09ZM93.05 29.13c.15 0 .56-.26.52-.46-.04-.2-.48-.35-.63-.31l-.13.06a.52.52 0 0 0-.7-.15c-.5.31-1.16.5-1.39 1.2l.32.77c-.4.69-.46 1.45-.09 1.73a.78.78 0 0 0 1 0c.59-.42.65-.72.34-1.52.21-.48.43-.91.58-1.36a.539.539 0 0 0 .18.04ZM72.9 21.76a.26.26 0 0 0-.15.33.28.28 0 0 0 .33.11c.08 0 .12-.24.09-.31a.26.26 0 0 0-.27-.13ZM35.34 21.05c.3.15 1.17-1.06 1.07-1.42-.1-.36-1-.36-1.42.1-.42.46.01 1.17.35 1.32ZM43.32 34.33a2.38 2.38 0 0 0 1.07-2.31 1.63 1.63 0 0 0-2.09-.82 1.84 1.84 0 0 0-1 2.07 1.65 1.65 0 0 0 2.02 1.06ZM41.38 23.39c.26.42.42 1 1.11.83a.81.81 0 0 0 .67-.91 1.13 1.13 0 0 0-.46-.67c-.45-.25-.78-.07-1.32.75ZM36.82 14.39c-.17-.36-.43-.58-.8-.48a4.87 4.87 0 0 0-2.5 1.37 1.653 1.653 0 0 0-.2.41c-.2 1 .48 1.65 1.41 1.39a7.11 7.11 0 0 0 1.64-.74 1.7 1.7 0 0 0 .45-1.95ZM41.8 18.39a.9.9 0 0 0-.59 1.07 1 1 0 0 0 1.17.64.91.91 0 0 0-.58-1.71ZM30.32 20.46a.85.85 0 0 0 .79.78c.52 0 .88-1.15.6-1.41s-1.41.13-1.39.63ZM32.09 17.54c-.08.19.18.44.33.5.15.06.56 0 .63-.27.07-.27-.3-.48-.44-.49a.56.56 0 0 0-.52.26ZM37.27 27.2a1.44 1.44 0 0 0 .77-1.8 1.558 1.558 0 0 0-2.08-1 1.259 1.259 0 0 0-.86 1.59 2 2 0 0 0 2.17 1.21ZM35.87 31.39c.18-.18-.09-.72-.23-.81a.66.66 0 0 0-.64.15.69.69 0 0 0 .09.66.77.77 0 0 0 .78 0ZM45.36 20.98a1.16 1.16 0 0 0-.68 1.56c.16.52.79.72 1.52.49.57-.19.84-.64.66-1.11a1.82 1.82 0 0 0-1.5-.94ZM57 31.53c.18-.48.18-.3.7-.39.52-.09 1.17-.53.73-1.35a1.74 1.74 0 0 0-2.24-.56 2 2 0 0 0-.59 2.68c.45.57 1.25.1 1.4-.38ZM59.9 5.65a.59.59 0 0 0-.09-.6c-.15-.11-.46-.31-.59-.15a.61.61 0 0 0 0 .6c.09.12.55.32.68.15ZM49.9 6.76a.914.914 0 0 0 .17-.09A1.71 1.71 0 0 0 50 8.14c.07.174.172.333.3.47a2.25 2.25 0 0 0-1.85 1.06 1.63 1.63 0 0 0 .71 1.86c.45.29.88.47.87 1.15 0 .49.48.6 1 .56.41-.51.37-1-.08-1.28.26-.468.48-.956.66-1.46a2 2 0 0 0-.57-1.51 1.85 1.85 0 0 0 1.09-.19c1.09-.54 1.29-1 1-2a1.509 1.509 0 0 0-.9-.9c-.92.24-1.83.5-2.73.78a.65.65 0 0 0 .4.08ZM57.92 23.13a1.75 1.75 0 0 0-1.78.24c-.32.36-.69.72-.31 1.28.38.56.48.86.73 1.29a.72.72 0 0 0 .93.69 1 1 0 0 0 .68-1.12c-.06-.31-.06-.63 0-.94a1.24 1.24 0 0 0-.25-1.44ZM59.65 15.57a.89.89 0 0 0 .58-1.09.94.94 0 0 0-1.12-.53.749.749 0 0 0-.5 1 .83.83 0 0 0 1.04.62ZM47.16 16.82a.85.85 0 0 0-1.15-.4 1.689 1.689 0 0 0-.27-.8 1.64 1.64 0 0 1-.37-1.13 1.79 1.79 0 0 0-.83-1.51 1.52 1.52 0 0 0-1.7 0l-.13.09a1.47 1.47 0 0 0 0-1.07c-.2-.5-.83-.66-1.55-.39-.55.2-1 .88-.83 1.29a1.59 1.59 0 0 0 1.66.9.7.7 0 0 0 .23-.11 1.43 1.43 0 0 0 0 .72 2.76 2.76 0 0 0 1 1.58c.18.155.308.36.37.59a1.1 1.1 0 0 0 1.61.91.61.61 0 0 0 0 .33 1 1 0 0 0 1.22.28 1 1 0 0 0 .74-1.28ZM51.47 26.78c.192-.187.354-.403.48-.64a.84.84 0 0 0-1.14-.47c-.36.18-.31.47-.21.76.1.29.56.6.87.35ZM50.76 22.96c.192-.19.354-.41.48-.65a.84.84 0 0 0-1.14-.47c-.36.18-.31.47-.21.76.1.29.56.6.87.36ZM51.16 17.39a1.749 1.749 0 0 0 .71-1.95 1 1 0 0 0-1.38-.53 1.079 1.079 0 0 0-.7 1.6c.26.7.91 1.12 1.37.88ZM110.67 27.06a1.277 1.277 0 0 0 1-1.34 1.09 1.09 0 0 0-1-.89c-.87.11-1.48.64-1.39 1.2a1.434 1.434 0 0 0 1.39 1.03ZM107.4 50.39a1.39 1.39 0 0 0 .52-1.39.871.871 0 0 0-1.18-.31.82.82 0 0 0-.3 1.17c.24.53.63.76.96.53ZM106.51 43.82a.84.84 0 0 0 .93.64.816.816 0 0 0 .754-.565.822.822 0 0 0-.274-.901.83.83 0 0 0-.63-.164 1.07 1.07 0 0 0-.78.99ZM107 33.46c.88-.13 1.58-.86 1.49-1.55a1.139 1.139 0 0 0-.14-.4l.48.31a.343.343 0 0 0 .269.086.336.336 0 0 0 .241-.146 1 1 0 0 0-.26-1.29.77.77 0 0 0-1.1.54 1.825 1.825 0 0 0-1.44-.65 1.65 1.65 0 0 0-1.23 1.79 1.586 1.586 0 0 0 1.69 1.31ZM107.26 70.96a.501.501 0 0 0 .28-.81c-.14-.24-.69-.71-.9-.6-.21.11-.3.78-.28 1.07.02.29.46.5.9.34ZM108.69 36.1c.24-.13.85-.5.77-.82-.08-.32-.85-.35-1.09-.29-.24.06-.32.47-.31.71a.42.42 0 0 0 .63.4ZM108.06 52.17a.938.938 0 0 0 .36-.34c.06.01.12.01.18 0a.894.894 0 0 0 .69-.92.759.759 0 0 0-.87-.68.858.858 0 0 0-.67.91.76.76 0 0 0 .11.33c-.16.1-.46.3-.35.48a.577.577 0 0 0 .55.22ZM110.91 62.18a.644.644 0 0 0 .26-.49c0-.13-.22-.47-.55-.38-.33.09-.17.51-.13.69.04.18.36.23.42.18ZM97.5 42.44a.88.88 0 0 0-.3-1.1.66.66 0 0 0-.91 0c-.52.41-.39.9-.16 1.47.57.02 1.1.22 1.37-.37ZM109.45 58.12a.922.922 0 0 0 .46-1c-.13-.28-.67-.34-1.11-.13a.48.48 0 0 0-.25.73c.19.31.45.57.9.4ZM102.51 31.24a.85.85 0 0 0 .82-.72.721.721 0 0 0 .63-.24.617.617 0 0 0 .143-.695.618.618 0 0 0-.143-.205.647.647 0 0 0-1-.12.718.718 0 0 0-.18.27 1.35 1.35 0 0 0-.85-.29.997.997 0 0 0-.81 1.06 1.232 1.232 0 0 0 1.39.94ZM99.22 28.39a.24.24 0 0 0 .2-.3c0-.15-.23-.17-.31-.16-.08.01-.15.22-.13.29.02.07.13.17.24.17ZM98.22 17.85a1.48 1.48 0 0 0 .28 1.57 1 1 0 0 0 1.24-.11c.56-.67.66-1.35.24-1.71a1.51 1.51 0 0 0-1.76.25ZM99.34 15.73a1.33 1.33 0 0 0 1.11-1.12c.068.212.197.4.37.54a.629.629 0 0 0 .93-.28c-1.09-.76-2.2-1.51-3.34-2.2a1.78 1.78 0 0 0-1 1.81 1.86 1.86 0 0 0 1.93 1.25ZM100.84 36.13a1.372 1.372 0 0 0 .93-1.69 1.422 1.422 0 0 0-1.65-.87 1.34 1.34 0 0 0 .72 2.56ZM105.69 39.56c-.13-.28-.58-.94-.88-.86-.3.08-.44.83-.46 1.15-.02.32.5.58.87.46.37-.12.64-.39.47-.75ZM105.89 37.39c-.05-.24-.84-.87-1.24-.7-.4.17-.26 1.21-.1 1.54a1 1 0 0 0 1 .4c.45-.24.45-.9.34-1.24ZM112.07 35.89c.5-.08.87-.83.74-1.45-.17-.83-.55-1.17-1.17-1.06-.343.08-.645.283-.85.57a.899.899 0 0 0 0-.22.876.876 0 0 0-.447-.566.873.873 0 0 0-1.219.488.86.86 0 0 0 .066.718 1.001 1.001 0 0 0 1.19.38.893.893 0 0 0 .17-.12.544.544 0 0 0 0 .22 1.566 1.566 0 0 0 1.52 1.04ZM101 42.85c.07 0 .34-.24.32-.32-.02-.08-.11-.53-.4-.53-.29 0-.36.4-.33.48.087.17.233.3.41.37ZM101.83 62.94c.22-.08.32-.69.24-.81-.08-.12-.46-.48-.65-.43-.19.05-.37.49-.33.69.04.2.52.64.74.55ZM110.46 40.54c-.13-.35-1-.53-1.21-.32a.995.995 0 0 0 0 .89.526.526 0 0 0 .312.38.519.519 0 0 0 .488-.05c.29-.2.58-.44.41-.9ZM127.08 69.39l.06-.67a.765.765 0 0 0-.06.67ZM124.7 71.81c0 .57 0 1.16.72 1.22a.88.88 0 0 0 1-.58.638.638 0 0 0 0-.53 10.638 10.638 0 0 0-1-.86c0-1.06-.39-1.79-1-1.8a1.75 1.75 0 0 0-1.45 1.49c-.08.73.27.96 1.73 1.06ZM123.59 67.05a1.838 1.838 0 0 0 .47-1.62c-.17-.45-.63-.54-1.25-.25-.62.29-.9.71-.67 1.2.31.67.93 1.01 1.45.67ZM122.36 74.91a1.402 1.402 0 0 0-1.59-.77.998.998 0 0 0-.55 1.21 1.227 1.227 0 0 0 1.53.61c.52-.21.76-.57.61-1.05ZM84.84 10.28a1.54 1.54 0 0 0 1.74-1 1.61 1.61 0 0 0-.67-1.38 1.834 1.834 0 0 0-.05-.4.51.51 0 0 0-.76-.39c-.27.13-.51.3-.54.58a1.511 1.511 0 0 0-1 1c-.26.57.44 1.28 1.28 1.59ZM122.64 86.8c-.28.07-.25.47-.2.54.036.047.08.088.13.12.09-.21.17-.43.26-.64a.402.402 0 0 0-.19-.02ZM125.45 74.18a1.634 1.634 0 0 0-.78 2 1.69 1.69 0 0 0 1.2 1c.22-1 .41-2 .58-2.93a1.34 1.34 0 0 0-1-.07ZM110.16 81.76c-.07-.15-.38-.18-.55-.15-.17.03-.39.29-.3.52.09.23.51.14.67.08a.416.416 0 0 0 .18-.45ZM121.25 81.1a1.38 1.38 0 0 0 .52-1.86 1.42 1.42 0 0 0-1.81-.46 1.15 1.15 0 0 0-.41 1.74 1.183 1.183 0 0 0 .715.688 1.167 1.167 0 0 0 .985-.108ZM118.14 71.23a.999.999 0 0 0 .43-1.15.997.997 0 0 0-1.26-.4.788.788 0 0 0-.36 1.05.855.855 0 0 0 .838.59.847.847 0 0 0 .352-.09ZM119.46 88.01a.88.88 0 0 0-.55-1 .648.648 0 0 0-.89.18c-.41.52-.17 1 .18 1.47.57-.09 1.14-.01 1.26-.65ZM113.45 56.32a.68.68 0 0 0 .45-1 .759.759 0 0 0-.93-.42c-.35.09-.63 1-.37 1.21a.993.993 0 0 0 .85.21ZM115.08 61.6c.79-.3 1.05-1.22.64-2.21a1.414 1.414 0 0 0-.789-.81 1.412 1.412 0 0 0-1.131.03 1.772 1.772 0 0 0-.86 2.2 1.861 1.861 0 0 0 2.14.79ZM113.22 48.63c.245.094.513.115.77.06a1.188 1.188 0 0 0 .8-1.41c-.13-.61-.47-.88-1-.79a1.76 1.76 0 0 0-.42.15.87.87 0 0 0-.77 0 1.54 1.54 0 0 0-.72 1.64c.12.29.78.44 1.34.35ZM113.06 51.99c-.22.19-.47.41-.43.68.04.27.8.59 1.17.38.37-.21.27-.49.15-.77-.12-.28-.6-.56-.89-.29ZM112.06 76.09c.14-.05.48-.38.39-.57-.09-.19-.55-.23-.68-.16a.481.481 0 0 0-.25.52c.08.21.39.25.54.21ZM114.87 72.17c.31-.21.55-.51.3-.83-.25-.32-.77-.75-1.07-.62-.3.13-.16.95-.06 1.24.1.29.46.43.83.21ZM117.89 73.96a.248.248 0 0 0 .13-.34.28.28 0 0 0-.34-.09c-.07 0-.1.25-.06.31a.258.258 0 0 0 .27.12ZM116.64 68.1a1.472 1.472 0 0 0 .3-1.84c-.31-.6-.89-.72-1.64-.32a1.181 1.181 0 0 0-.48 1.36c.24.49 1.43 1.02 1.82.8ZM68.48 29.2c.31-.09.24-1 .14-1-.29-.23-.62-.61-1-.49s-.3.63-.2.77c.1.14.74.82 1.06.72ZM119 67.15a.876.876 0 0 0 .16-.79c-.08-.18-.66-.51-.87-.4-.21.11-.26.84-.16.93.1.09.74.42.87.26ZM121.31 60.66a1.58 1.58 0 0 0-.62-1.83c-.52-.34-1.38.19-1.88.9a1.54 1.54 0 0 0 .54 1.93 1.59 1.59 0 0 0 1.96-1ZM117.72 58.92a.933.933 0 0 0 .59-.55c.11-.59-.39-.71-.82-.85-.45.3-.7.66-.41 1.14a.702.702 0 0 0 .286.215c.112.045.234.06.354.045ZM117.91 49a1.26 1.26 0 0 0-.043-.532 1.259 1.259 0 0 0-.257-.468c-.5-.44-.86.06-1.31.37.15.64.35 1.15 1 1.11.23.01.6-.29.61-.48ZM121.65 55.39c-.43-.435-.888-.843-1.37-1.22a.756.756 0 0 0-.89-.035.763.763 0 0 0-.22.225.799.799 0 0 0 .1 1.12c.181.18.336.386.46.61a1.239 1.239 0 0 0 1.46.75c.63-.14.86-.6.46-1.45ZM125.82 51.3a1.462 1.462 0 0 1-1.34.85 1.363 1.363 0 0 0-.88 1.3 1.803 1.803 0 0 0 1.52 1c.4-.05 1-.06 1-.57a1.53 1.53 0 0 1 .23-.69c-.13-.68-.26-1.35-.4-2-.05.03-.1.05-.13.11ZM122.41 53.67a.674.674 0 0 0 .24-.21h.1c.25-.1.58-.49.55-.7-.03-.21-.19-.32-.35-.45a.477.477 0 0 0-.07-.2 1.568 1.568 0 0 0-1.65-.37.806.806 0 0 0-.417.51.797.797 0 0 0 .107.65c.42.81.89 1.06 1.49.77ZM115.78 56.66a1.273 1.273 0 0 0 .91-.49.418.418 0 0 0 .073-.166.41.41 0 0 0-.095-.34.399.399 0 0 0-.148-.104.91.91 0 0 0-.72.15c-.22.12-.47.18-.58.43-.11.25.19.55.56.52ZM121.48 64.55a.87.87 0 0 0-.54-1 .659.659 0 0 0-.9.18c-.4.52-.16 1 .19 1.47.56-.09 1.13-.01 1.25-.65ZM115.75 53.09a.54.54 0 0 0-.28.6.46.46 0 0 0 .51.37.513.513 0 1 0-.23-1v.03ZM103 24.04c.319-.252.713-.39 1.12-.39.19 0 .43-.44.44-.68a1.011 1.011 0 0 0-.4-.73.82.82 0 0 0-.71.12c-.36.27-.695.57-1 .9-.26.28-.19.54.12.81.1-.01.3.05.43-.03ZM108.63 20.49c-.85-.8-1.72-1.59-2.62-2.35a.655.655 0 0 0 0 .14c-.06.83.42 1.67 1.12 1.49.084.12.178.234.28.34a1.447 1.447 0 0 0 1.22.38ZM104.56 16.96c-.49-.39-1-.78-1.49-1.16-.006.186.028.371.099.544.07.172.176.327.311.456a1.51 1.51 0 0 0 1.08.16ZM91.23 9h.07l-.72-.32a.79.79 0 0 0 .65.32ZM126.84 56.44l-.12.11.21.47c-.04-.22-.06-.4-.09-.58ZM114.62 29.19a2.066 2.066 0 0 0 .76 2.17 1.94 1.94 0 0 0 2.12-.26 60.788 60.788 0 0 0-3.81-5.2l-.29.11a1.167 1.167 0 0 0-.757 1.385c.046.188.138.361.267.505.523.49 1.096.922 1.71 1.29ZM114.73 36.29a.862.862 0 0 0 .51-1.1.67.67 0 0 0-1-.47.83.83 0 0 0-.507.421.82.82 0 0 0 .385 1.108c.191.092.41.106.612.04ZM111.72 29.95c.22 0 .5-.32.6-.55a.725.725 0 0 0-.18-.66c-.44-.33-.84-.14-1.2.3.11.43.19.94.78.91ZM113.28 25.39c-.86-1-1.75-2-2.67-3 0 .11-.06.21-.08.32a2.69 2.69 0 0 0 .26 1.16c.121.232.28.441.47.62.187.187.384.364.59.53a1.28 1.28 0 0 0 1.43.37ZM48.45 28.48c.15-.06.36-.3.3-.5a.47.47 0 0 0-.52-.24c-.15 0-.51.34-.44.54s.53.26.66.2ZM67.41 16.61c.33-.32-.06-1.34-.43-1.33-.37.01-.9.88-.59 1.23a.81.81 0 0 0 1.02.1ZM69.58 24.74a1.66 1.66 0 0 0 .8-1.93 1.2 1.2 0 0 0-1.57-.45 1.12 1.12 0 0 0-.63 1.59c.27.68.89 1.03 1.4.79ZM65.21 22.84a.809.809 0 0 0 .57-1.05.841.841 0 0 0-1.07-.55 1 1 0 0 0-.59 1.09.838.838 0 0 0 1.09.51ZM66.58 9.93a.8.8 0 0 0-.55-.88c-.67-.23-.91.3-1.16.77l-.88-.21v-.25a1.84 1.84 0 0 0 .38-.26c.54-.45 1.09-.87 1.63-1.3.87.93 1 .93 1.64 0 .25.084.52.084.77 0a.759.759 0 0 0 .45-1 1.15 1.15 0 0 0-1.32-.8.94.94 0 0 0-.66 1.13 1.23 1.23 0 0 0-.52.07c-.82-1.37-1.74-1.27-2.58.2-.11.01-.22.01-.33 0a.65.65 0 0 0-.75.27 1.44 1.44 0 0 0-.85.28 1.26 1.26 0 0 0 .23 1.55c.14.18.3.33.45.5a3 3 0 0 0-.26 1.57 3.89 3.89 0 0 0-.35.19 1.56 1.56 0 0 0-.25 2 1.6 1.6 0 0 0 2.2-.16 1.75 1.75 0 0 0 .39-1.23l.22-.06c.87-.27 1-1 .91-1.73.54-.06 1.13.07 1.19-.65ZM69.16 22.08c.41-.34.3-1.14-.22-1.72a1 1 0 0 0-1.25 0 1.21 1.21 0 0 0-.19 1.53 1.37 1.37 0 0 0 1.66.19ZM95 24.32a.851.851 0 0 0 .28-.7 1.33 1.33 0 0 0-.09-.81 1.76 1.76 0 0 0-1.28-.89 1.32 1.32 0 0 0-1.26.62 1.14 1.14 0 0 0 0 1.16 1.381 1.381 0 0 0 1 .74c.52-.05 1.05.17 1.35-.12ZM91.18 11.39a1.678 1.678 0 0 0-1-.81.93.93 0 0 0-.91-.32c-.25.08-.35.39-.38.7a1.61 1.61 0 0 0-.49 2.09 2 2 0 0 0 2.4.34 1.52 1.52 0 0 0 .38-2ZM81.44 18.27c.58.22 1-.16 1.26-.69-.17-.47-.38-.94-1-.91a.76.76 0 0 0-.75.83 1 1 0 0 0 .49.77Z"/><path fill="#fff" d="M81 12.48a.82.82 0 0 0-1-.57.86.86 0 0 0-.59 1.06.67.67 0 0 0 .93.54.81.81 0 0 0 .66-1.03ZM63.27 30.05c.21-.06.2-.49.17-.67a.288.288 0 0 0-.39-.21.599.599 0 0 0-.31.47c.02.13.32.48.53.41ZM62.94 5.71a1.79 1.79 0 0 0 2.41-.42 1.94 1.94 0 0 0 .35-1.25c-1.14 0-2.28.09-3.4.18a1.899 1.899 0 0 0 .64 1.49ZM45.07 9.04c.74-.27 1.16-.73 1.14-1.21-.69.26-1.38.53-2.06.81a.7.7 0 0 0 .92.4ZM95.84 33.55c.41-.37.48-1.15.12-1.39s-1.61.42-1.64.92c-.03.5 1.11.84 1.52.47ZM46.19 10.73a1 1 0 0 0 .51-1.19 1 1 0 0 0-1.24-.44.88.88 0 0 0-.48 1.11 1 1 0 0 0 1.21.52ZM61.73 24.63a.558.558 0 0 0 .53-.7c-.09-.41-.59-.79-.9-.59-.31.2-.82.62-.65 1 .17.38.75.32 1.02.29ZM39.88 18.58a1 1 0 0 0 .86-.29 1 1 0 0 0-.46-1.47.881.881 0 0 0-1.07 1 1.16 1.16 0 0 0 .67.76ZM61.56 9.19c.19-.19.14-.62.18-.84-.46-.44-.79-.31-1-.08-.21.23-.39.65 0 .88a1 1 0 0 0 .82.04ZM62.86 19.73a.86.86 0 0 0-1.18-.52 1 1 0 0 0-.38 1.27.93.93 0 0 0 1.16.39.839.839 0 0 0 .4-1.14ZM63.92 15.83a.541.541 0 0 0 .12.09.999.999 0 0 0 .82.09c.59-.32.51-.85.22-1.48a3.258 3.258 0 0 0-.88 0h-.11c-.19 0-.57.13-.6.27a1.081 1.081 0 0 0 .08.89.5.5 0 0 0 .35.14Z"/><path fill="#CED5E1" d="M47.43 42.39H32v3.62h15.43v-3.62ZM26.41 42.75a.83.83 0 0 0 .21.24 1.41 1.41 0 0 1 .27-.58h-.5a.61.61 0 0 0 .02.34ZM30.19 43.05h.09a1.162 1.162 0 0 0-.48 0 .37.37 0 0 0-.26.56.46.46 0 0 0 .64.28c.159-.124.28-.29.35-.48a.54.54 0 0 0 .72.18c0-.14.08-.28.11-.41a.32.32 0 0 1 .14-.17.64.64 0 0 0-.2-.4.67.67 0 0 1-.17-.27c-.05.01-.1.01-.15 0h-2.15c.22.45.6.6 1.36.71ZM23.46 43.31a1.07 1.07 0 0 0 1.43.11.87.87 0 0 0 .45-1h-1.67a.87.87 0 0 1-.21.89ZM24.41 46.01h.92c0-.26-.39-.32-.66-.18a.56.56 0 0 0-.26.18ZM18.74 44.48a.39.39 0 0 0 .06-.42c-.07-.1-.24-.3-.36-.22a.429.429 0 0 0-.13.4c.04.15.31.33.43.24ZM17 42.83a.38.38 0 0 0 .13-.06.33.33 0 0 0 .15-.38H17v.44ZM27.21 45.39a.81.81 0 0 0-1 .6h1.94c-.09-.28-.38-.45-.94-.6ZM21.53 45.1a1.15 1.15 0 0 0-1.42.52 1.07 1.07 0 0 0-.1.39h2.07a1.25 1.25 0 0 0-.55-.91Z"/><path fill="#CED5E1" d="M26.62 42.99a1.824 1.824 0 0 0 0 .19 1.414 1.414 0 0 0 0 .54c0 .18.08.36.12.54.16.58.46.83.93.78a.93.93 0 0 0 .83-1 12.205 12.205 0 0 1 0-1.6h-1.55a1.41 1.41 0 0 0-.33.55ZM22.43 43.62c-.29.27-.63.51-.31.94a.61.61 0 0 0 .76.25c.11 0 .26-.16.27-.26v-.91a3.14 3.14 0 0 0 .31-.33.871.871 0 0 0 .21-.92H22c-.18.26-.06.58.43 1.23ZM17 44.69v1.06c.065-.081.122-.168.17-.26a.868.868 0 0 0-.17-.8ZM31.4 43.24c0 .13-.07.27-.11.41a1.19 1.19 0 0 0 0 .81c.27.6.32.64 1 .47l.08-.23v-1.53a1 1 0 0 0-.19-.16.821.821 0 0 0-.7.06.32.32 0 0 0-.08.17ZM31.17 42.39H31a.381.381 0 0 0 .17 0ZM24.83 43.73a1 1 0 0 0 .4 1.17.89.89 0 0 0 1.09-.37.76.76 0 0 0-.22-.92c-.53-.29-1.1-.22-1.27.12ZM18.88 43.97a.59.59 0 0 0 .84-.16 1 1 0 0 0-.33-1.19.68.68 0 0 0-.89.27.86.86 0 0 0 .38 1.08ZM31.53 46.01h.62a1.626 1.626 0 0 1-.18-.2c-.153.05-.3.118-.44.2ZM30.33 45.47c-.19-.11-.61.15-.7.54h1.1a.86.86 0 0 0-.4-.54ZM37.43 63.39H22v3.62h15.43v-3.62ZM16.41 63.75a.83.83 0 0 0 .21.24 1.41 1.41 0 0 1 .27-.58h-.5a.61.61 0 0 0 .02.34ZM20.19 64.05h.09a1.162 1.162 0 0 0-.48 0 .37.37 0 0 0-.26.56.46.46 0 0 0 .64.28c.159-.124.28-.29.35-.48a.54.54 0 0 0 .72.18c0-.14.08-.28.11-.41a.32.32 0 0 1 .14-.17.64.64 0 0 0-.2-.4.67.67 0 0 1-.17-.27c-.05.01-.1.01-.15 0h-2.15c.22.45.6.6 1.36.71ZM13.46 64.31a1.07 1.07 0 0 0 1.43.11.87.87 0 0 0 .45-1h-1.67a.87.87 0 0 1-.21.89ZM14.41 67.01h.92c0-.26-.39-.32-.66-.18a.56.56 0 0 0-.26.18ZM8.74 65.48a.39.39 0 0 0 .06-.42c-.07-.1-.24-.3-.36-.22a.43.43 0 0 0-.13.4c.04.15.31.33.43.24ZM7 63.83a.38.38 0 0 0 .13-.06.33.33 0 0 0 .15-.38H7v.44ZM17.21 66.39a.81.81 0 0 0-1 .6h1.94c-.09-.28-.38-.45-.94-.6ZM11.53 66.1a1.15 1.15 0 0 0-1.42.52 1.07 1.07 0 0 0-.1.39h2.07a1.25 1.25 0 0 0-.55-.91Z"/><path fill="#CED5E1" d="M16.62 63.99a1.824 1.824 0 0 0 0 .19 1.414 1.414 0 0 0 0 .54c0 .18.08.36.12.54.16.58.46.83.93.78a.93.93 0 0 0 .83-1 12.205 12.205 0 0 1 0-1.6h-1.55a1.41 1.41 0 0 0-.33.55ZM12.43 64.62c-.29.27-.63.51-.31.94a.61.61 0 0 0 .76.25c.11 0 .26-.16.27-.26v-.91a3.14 3.14 0 0 0 .31-.33.871.871 0 0 0 .21-.92H12c-.18.26-.06.58.43 1.23ZM7 65.69v1.06c.065-.081.122-.168.17-.26a.87.87 0 0 0-.17-.8ZM21.4 64.24c0 .13-.07.27-.11.41a1.19 1.19 0 0 0 0 .81c.27.6.32.64 1 .47l.08-.23v-1.53a1 1 0 0 0-.19-.16.821.821 0 0 0-.7.06.32.32 0 0 0-.08.17ZM21.17 63.39H21a.381.381 0 0 0 .17 0ZM14.83 64.73a1 1 0 0 0 .4 1.17.89.89 0 0 0 1.09-.37.76.76 0 0 0-.22-.92c-.53-.29-1.1-.22-1.27.12ZM8.88 64.97a.59.59 0 0 0 .84-.16 1 1 0 0 0-.33-1.19.68.68 0 0 0-.89.27.86.86 0 0 0 .38 1.08ZM21.53 67.01h.62a1.626 1.626 0 0 1-.18-.2c-.153.05-.3.118-.44.2ZM20.33 66.47c-.19-.11-.61.15-.7.54h1.1a.86.86 0 0 0-.4-.54ZM40.43 31.39H25v3.62h15.43v-3.62ZM19.41 31.75a.83.83 0 0 0 .21.24 1.41 1.41 0 0 1 .27-.58h-.5a.61.61 0 0 0 .02.34ZM23.19 32.05h.09a1.162 1.162 0 0 0-.48 0 .37.37 0 0 0-.26.56.46.46 0 0 0 .64.28c.159-.124.28-.29.35-.48a.54.54 0 0 0 .72.18c0-.14.08-.28.11-.41a.32.32 0 0 1 .14-.17.64.64 0 0 0-.2-.4.67.67 0 0 1-.17-.27c-.05.01-.1.01-.15 0h-2.15c.22.45.6.6 1.36.71ZM16.46 32.31a1.07 1.07 0 0 0 1.43.11.87.87 0 0 0 .45-1h-1.67a.87.87 0 0 1-.21.89ZM17.41 35.01h.92c0-.26-.39-.32-.66-.18a.56.56 0 0 0-.26.18ZM11.74 33.48a.39.39 0 0 0 .06-.42c-.07-.1-.24-.3-.36-.22a.429.429 0 0 0-.13.4c.04.15.31.33.43.24ZM10 31.83a.38.38 0 0 0 .13-.06.33.33 0 0 0 .15-.38H10v.44ZM20.21 34.39a.81.81 0 0 0-1 .6h1.94c-.09-.28-.38-.45-.94-.6ZM14.53 34.1a1.15 1.15 0 0 0-1.42.52 1.07 1.07 0 0 0-.1.39h2.07a1.25 1.25 0 0 0-.55-.91Z"/><path fill="#CED5E1" d="M19.62 31.99a1.824 1.824 0 0 0 0 .19 1.414 1.414 0 0 0 0 .54c0 .18.08.36.12.54.16.58.46.83.93.78a.93.93 0 0 0 .83-1 12.205 12.205 0 0 1 0-1.6h-1.55a1.41 1.41 0 0 0-.33.55ZM15.43 32.62c-.29.27-.63.51-.31.94a.61.61 0 0 0 .76.25c.11 0 .26-.16.27-.26v-.91a3.14 3.14 0 0 0 .31-.33.871.871 0 0 0 .21-.92H15c-.18.26-.06.58.43 1.23ZM10 33.69v1.06c.065-.081.122-.168.17-.26a.868.868 0 0 0-.17-.8ZM24.4 32.24c0 .13-.07.27-.11.41a1.19 1.19 0 0 0 0 .81c.27.6.32.64 1 .47l.08-.23v-1.53a1 1 0 0 0-.19-.16.821.821 0 0 0-.7.06.32.32 0 0 0-.08.17ZM24.17 31.39H24a.381.381 0 0 0 .17 0ZM17.83 32.73a1 1 0 0 0 .4 1.17.89.89 0 0 0 1.09-.37.76.76 0 0 0-.22-.92c-.53-.29-1.1-.22-1.27.12ZM11.88 32.97a.59.59 0 0 0 .84-.16 1 1 0 0 0-.33-1.19.68.68 0 0 0-.89.27.86.86 0 0 0 .38 1.08ZM24.53 35.01h.62a1.626 1.626 0 0 1-.18-.2c-.153.05-.3.118-.44.2ZM23.33 34.47c-.19-.11-.61.15-.7.54h1.1a.86.86 0 0 0-.4-.54ZM48.43 53.32H33v3.62h15.43v-3.62ZM27.62 53.92c.019-.071.042-.142.07-.21a.84.84 0 0 1 .12-.39h-.4a.61.61 0 0 0 0 .36.83.83 0 0 0 .21.24ZM31.19 53.98h.09a1.462 1.462 0 0 0-.43 0 .742.742 0 0 1-.08.29 1 1 0 0 1-.2.32.441.441 0 0 0 .61.24c.159-.124.28-.29.35-.48a.64.64 0 0 0 .32.22h.06c.13-.076.267-.14.41-.19.028-.082.051-.165.07-.25a.32.32 0 0 1 .14-.17.64.64 0 0 0-.2-.4.72.72 0 0 1-.17-.26h-1.52c.13.174.203.383.21.6l.34.08ZM24.46 54.24a.83.83 0 0 0 .56.32l.49-.34h.06c.08.013.157.036.23.07l.11.07a.918.918 0 0 0 .45-.59h-.07a1.47 1.47 0 0 1-.92-.47h-.68a.87.87 0 0 1-.23.94ZM25.66 56.71a.56.56 0 0 0-.25.23h.92c-.06-.31-.4-.37-.67-.23ZM15.91 53.32h-.36a.33.33 0 0 0 .24.07.26.26 0 0 0 .12-.07ZM18.17 53.32h-.54c.039.11.062.224.07.34a.31.31 0 0 0 .43 0c.003-.114.017-.228.04-.34ZM27.65 56.65a1 1 0 0 1 .38.29h1.12c-.09-.28-.38-.45-.94-.58a.85.85 0 0 0-.82.25c.088.004.175.017.26.04ZM22.29 56.94a1 1 0 0 1-.42-.53 1 1 0 0 1 0-.41 1.1 1.1 0 0 0-.75.55 1.07 1.07 0 0 0-.1.39h1.27Z"/><path fill="#CED5E1" d="M28.32 55.28a1.82 1.82 0 0 0-.32-.78.998.998 0 0 1-.32-.78 1.722 1.722 0 0 0-.07.21 1.77 1.77 0 0 0 0 .19 1.41 1.41 0 0 0 0 .54c0 .18.08.36.12.54.15.54.42.78.82.77v-.05a.55.55 0 0 1-.23-.64ZM23.4 54.5l-.12.11a.43.43 0 0 0 0 .15c0 .15.59.29.89.56v-.8a3.14 3.14 0 0 0 .31-.33.87.87 0 0 0 .21-.92h-1.24a.892.892 0 0 1 .16.25 1.1 1.1 0 0 1-.21.98ZM17.37 56.66a.81.81 0 0 1-.53.28H17.77c-.21-.41-.12-.6.42-.85a1.08 1.08 0 0 0-.61-.78.81.81 0 0 0-1.11.59c.158-.105.33-.19.51-.25.25.33.67.57.39 1.01ZM32.4 54.17a2.328 2.328 0 0 1-.07.25c.39-.12.6.06.92.63a.59.59 0 0 0 .18.17V54.1a1.008 1.008 0 0 0-.19-.16.82.82 0 0 0-.7.06.32.32 0 0 0-.14.17ZM26.42 55.32a.59.59 0 0 1-.26.45l.07.06a.89.89 0 0 0 1.09-.37.76.76 0 0 0-.22-.92 1.17 1.17 0 0 0-1-.1.89.89 0 0 1 .32.88ZM20 53.98c.24.293.413.634.51 1a.43.43 0 0 0 .22-.2 1 1 0 0 0-.33-1.19.66.66 0 0 0-.15 0 .62.62 0 0 1-.1.2 1.08 1.08 0 0 0-.15.19ZM31.33 56.39c-.19-.11-.61.16-.7.54h1.1a.86.86 0 0 0-.4-.54ZM12.21 55.25a.82.82 0 0 0-1 .88c.032.28.106.552.22.81h1.48c.5-1.07.36-1.46-.7-1.69ZM7 56.61a1.46 1.46 0 0 0-.49-1.67 1.15 1.15 0 0 0-1.42.51 1.11 1.11 0 0 0 .43 1.44h1.07a.75.75 0 0 0 .41-.28ZM27.65 56.65a1.227 1.227 0 0 0-.26-.06 1.001 1.001 0 0 0-.89.35H28a1.002 1.002 0 0 0-.35-.29Z"/><path fill="#CED5E1" d="M33.25 55.05c-.32-.57-.53-.75-.92-.63a2.37 2.37 0 0 0-.41.19h-.06a.47.47 0 0 0-.2.68c.157.27.23.579.21.89-.004.26.08.514.24.72h1.32v-1.72a.589.589 0 0 1-.18-.13ZM11.7 54.09c.16.59.46.84.93.78a.93.93 0 0 0 .83-1v-.51h-1.89a1.635 1.635 0 0 0 0 .23c.04.14.09.32.13.5ZM17.77 56.89h1a1.29 1.29 0 0 0 .26-.64c1.13-.19 1.59-.67 1.44-1.36a2.66 2.66 0 0 0-.51-1c.036-.1.087-.195.15-.28a.62.62 0 0 0 .1-.2.411.411 0 0 0 0-.18h-2.12a1.91 1.91 0 0 0 0 .34c0 .1 0 .2.07.31.18.62.32 1.24.48 1.85-.22.08-.38.15-.53.22-.46.34-.55.53-.34.94ZM26.27 53.79h.07c.145-.092.282-.196.41-.31l.09-.11h-1.51c.253.249.586.398.94.42ZM7.12 54.39a.63.63 0 0 0 .76.26c.11 0 .26-.16.27-.26v-.92l.14-.15h-1l.09.13c-.24.27-.58.51-.26.94ZM1 55.92a1 1 0 0 0 1.17-.59 1 1 0 0 0-.59-1.17.77.77 0 0 0-.58 0v1.76ZM16.33 53.32a1.32 1.32 0 0 0 0 1c.27.59.32.63 1 .46.11-.29.19-.54.29-.77a1 1 0 0 0 .06-.33 1.279 1.279 0 0 0-.07-.34l-1.28-.02ZM25.57 54.19h-.06l-.49.34c-.11.072-.213.152-.31.24a.57.57 0 0 0 0 .5 1.19 1.19 0 0 0 1.19.58.7.7 0 0 0 .29-.11.59.59 0 0 0 .26-.45.89.89 0 0 0-.35-.88.64.64 0 0 0-.16-.11l-.11-.07a.882.882 0 0 0-.26-.04ZM9.83 53.56a1 1 0 0 0 .4 1.18.89.89 0 0 0 1.09-.38.75.75 0 0 0-.22-.91 1.505 1.505 0 0 0-.33-.13h-.63a.54.54 0 0 0-.31.24ZM3.88 53.81a.592.592 0 0 0 .84-.16.62.62 0 0 0 .08-.33H3.48a.88.88 0 0 0 .4.49ZM16.84 56.94a.81.81 0 0 0 .53-.28c.28-.44-.14-.68-.4-1-.18.06-.351.145-.51.25a.56.56 0 0 0-.25.58.52.52 0 0 0 .34.47l.29-.02ZM14.6 56a.658.658 0 0 0 .34.46.57.57 0 0 0 .75-.28c.2-.39-.15-.76-.36-.88s-.76.23-.73.7ZM10.22 56.74a.51.51 0 0 0 .17-.45c-.12-.36-.43-.42-.81-.32-.11.3-.27.61.08.84a.67.67 0 0 0 .56-.07ZM21.87 56.39a1 1 0 0 0 .42.53H24a1 1 0 0 0 .23-.22 1.13 1.13 0 0 0 0-1.27l-.08-.08c-.3-.27-.85-.41-.89-.56a.43.43 0 0 1 0-.15.892.892 0 0 1 .09-.16 1.1 1.1 0 0 0 .19-.93.892.892 0 0 0-.16-.25h-1.54a1.73 1.73 0 0 0-.46 1.23c.11.45.69.48.74.6.05.12-.23.45-.31.85a1 1 0 0 0 .06.41ZM28 54.49c.166.231.276.498.32.78a.55.55 0 0 0 .18.63v.05a1 1 0 0 0 1 .82c.88 0 1.16-.69 1.07-1-.09-.31-.47-.64-.44-.89.03-.25.15.07.38-.17a1 1 0 0 0 .2-.32.742.742 0 0 0 .08-.29.669.669 0 0 0 0-.14 1.06 1.06 0 0 0-.21-.6h-2.84a.841.841 0 0 0-.12.39 1 1 0 0 0 .38.74Z"/><path fill="#7DE2D1" d="M121.24 24.79H50.96v61.37h70.28V24.79Z"/><path fill="#20377D" d="M113.51 31.56H86.55v20.02h26.96V31.56Z"/><path fill="#7DE2D1" d="M94.96 36.91h-4.01V48.2h4.01V36.91ZM102.52 35.25h-4.01V48.2h4.01V35.25ZM110.08 40.26h-4.01v7.94h4.01v-7.94Z"/><path fill="#20377D" d="M113.52 57H58.76v23.16h54.76V57Z"/><path fill="#7DE2D1" d="M83.85 77.56c-4.43 0-6.63-3.18-8.4-5.73-1.52-2.2-2.54-3.55-4.14-3.55-1.76.09-2.57 1.21-3.83 3.18-1.54 2.41-3.46 5.41-8.72 5.41V74.3c3.86 0 5.11-2 6.56-4.23 1.26-2 2.68-4.19 5.92-4.36 3.11 0 4.74 2.37 6.33 4.66 1.59 2.29 3.2 4.62 6.28 4.62 3.33 0 5-3.06 6.82-6.3 1.82-3.24 3.56-6.42 7.12-6.42s5.11 2.64 6.59 5.19c1.76 3 3.58 6.15 9.14 6.15v2.57c-7 0-9.54-4.3-11.36-7.43-1.45-2.5-2.37-3.91-4.37-3.91s-3.11 1.93-4.87 5.1c-1.92 3.45-4.23 7.62-9.07 7.62Z"/><path fill="#00BFB3" d="M71.15 70.18a3.41 3.41 0 1 0 0-6.82 3.41 3.41 0 0 0 0 6.82ZM98.3 67.03a3.41 3.41 0 1 0 0-6.82 3.41 3.41 0 0 0 0 6.82Z"/><path fill="#20377D" d="M71.35 96.12c.689-4.37.255-8.844-1.26-13a23.46 23.46 0 0 0-14.86-14.37c-17.13-5.57-33 7-33 23.36.004 1.34.117 2.678.34 4a5.35 5.35 0 0 0 5.31 4.44H66a5.569 5.569 0 0 0 5.35-4.43Z"/><path fill="#42D4C6" d="M66.05 56.66a.39.39 0 0 0 .23-.31.42.42 0 0 0-.3-.28c-.1 0-.38.08-.35.34.03.26.3.25.42.25ZM61.63 49.98c.17 0 .61-.13.59-.5-.02-.37-.45-.37-.6-.35a.6.6 0 0 0-.41.38.389.389 0 0 0 .42.47ZM58.11 52.03c.13.25 1 .27 1.11-.08a.63.63 0 0 0-.35-.73c-.36-.1-.87.57-.76.81ZM78.57 80.39a.88.88 0 0 0 1.11-.2h-1.33c.054.085.13.155.22.2ZM53.29 67.81a.54.54 0 0 0-.71.21l1.07.25a.69.69 0 0 0-.36-.46ZM62.15 56.76a.38.38 0 0 0-.35-.36c-.13 0-.5 0-.54.3a.29.29 0 0 0 .2.3H62a.291.291 0 0 0 .15-.24ZM69 80.47c.32.63.61 1.28.87 1.94a1.09 1.09 0 0 1 .46-.82 1 1 0 0 0 0-1.13 1.25 1.25 0 0 0-1.33.01ZM52.27 35.14a.66.66 0 0 0 .06.82.78.78 0 0 0 .91 0 .62.62 0 0 0-.08-.82.67.67 0 0 0-.89 0ZM53.88 62.95a.79.79 0 0 0-.13-.9.61.61 0 0 0-.8.18.66.66 0 0 0 .12.88.66.66 0 0 0 .81-.16ZM55.27 39.86a.55.55 0 0 0 0-.4c0-.05-.29-.07-.33 0-.04.07-.24.3-.11.47.13.17.41-.01.44-.07ZM54.08 26.49a.38.38 0 0 0 .46-.12.33.33 0 0 0 0-.45.34.34 0 0 0-.55.05.35.35 0 0 0 .09.52ZM52.48 40.61a1.17 1.17 0 0 0 1.22 1.07 1.32 1.32 0 0 0 1.16-1.17 1.19 1.19 0 0 0-1.09-1.21 1.731 1.731 0 0 0-1.29 1.31ZM56.35 47.86a.901.901 0 0 0 1-.87c0-.65-.65-1.39-1.18-1.35a1.07 1.07 0 0 0-1 1 1.129 1.129 0 0 0 1.18 1.22ZM58.12 56.77c.22.09.56-.29.5-.58-.06-.29-.23-.33-.3-.42-.46 0-.76.21-.68.45a1 1 0 0 0 .48.55ZM56.72 31.84a.52.52 0 0 0 0-.79.63.63 0 0 0-.82.05.529.529 0 0 0 0 .79.63.63 0 0 0 .82-.05ZM56.05 35.81a.92.92 0 0 0 1 .4.71.71 0 0 0 .61-.77c0-.31.18-.95-.22-1.17-.4-.22-.54.17-.75.24-.55.19-.9.88-.64 1.3ZM56.76 25.72c.06 0 0-.3 0-.32a.47.47 0 0 0-.4 0c-.07.06-.23.3-.06.48s.36-.07.46-.16ZM58.55 43.81a.5.5 0 0 0 .11-.47.55.55 0 0 0-.54-.2c-.16.09-.11.52 0 .62a.488.488 0 0 0 .43.05ZM55.38 68.54a.602.602 0 0 0 .64-.59.65.65 0 0 0-.63-.63.6.6 0 0 0-.54.62.55.55 0 0 0 .53.6ZM55.65 66.39c.34.12.8-.56.69-1.11a.61.61 0 0 0-.63-.53c-.43 0-.94.26-1 .59-.04.63.6.9.94 1.05ZM56.85 69.39a.9.9 0 0 0-.33-.74 1.13 1.13 0 0 0-1.17.18c.51.12 1.01.3 1.5.56ZM53.29 54.47c0 .29.16.5.43.53a3.51 3.51 0 0 0 2-.32.88.88 0 0 0 .24-.23.789.789 0 0 0-.62-1.29 5.151 5.151 0 0 0-1.3.1 1.24 1.24 0 0 0-.75 1.21ZM51.58 58.08c-.17.43.23.52.33.72.25.52 1 .78 1.36.47a.9.9 0 0 0 .28-1 .689.689 0 0 0-.14-.27 1 1 0 0 0 .11-.47.78.78 0 0 0-.91-.81c-.51 0-.86.33-.82.71a1 1 0 0 0 .15.42.48.48 0 0 0-.36.23ZM57.58 69.25a1.21 1.21 0 0 0-.58.14c.52.22 1 .46 1.53.71a1 1 0 0 0-.95-.85ZM81.54 80.22c-.43.13-.49.52-.42.95.3.19.62.38 1 .1a.55.55 0 0 0 .08-.8.77.77 0 0 0-.66-.25ZM96 80.16h-.65a1 1 0 0 0 .65 0ZM71.27 80.99a1.12 1.12 0 0 0 1.14-.44.5.5 0 0 0 .06-.39h-1.61a1 1 0 0 0 .41.83ZM58.76 68.39v-.21a.74.74 0 0 0 0 .21ZM54.86 51.02c0 .27.56.47 1 .28.44-.19.25-.81.08-1-.17-.19-1.06.44-1.08.72ZM56.08 57.11a.442.442 0 0 0 .54.46.78.78 0 0 0 .5-.37c.06-.16-.22-.69-.5-.68a.57.57 0 0 0-.54.59ZM56.69 53.11c-.11.14.09.4.18.44a.4.4 0 0 0 .42 0c.1-.11 0-.34-.1-.42a.439.439 0 0 0-.5-.02ZM56.16 50.05c.12-.13-.07-.37-.16-.46a.32.32 0 0 0-.35 0c-.07.09 0 .31.08.41.08.1.32.18.43.05ZM56.67 41.58a.63.63 0 0 0-.47.67.47.47 0 0 0 .41.52c.47.1.68-.2.89-.6-.24-.33-.38-.72-.83-.59ZM57.64 66.91a.77.77 0 0 0 .64.66c.164 0 .326-.028.48-.08v-1.42a.81.81 0 0 0-.36-.1c-.34 0-.78.55-.76.94Z"/><path fill="#42D4C6" d="M57.26 59.01a1.11 1.11 0 0 0-1.57.48c-.44.79.45 1.09 0 1.47-.45.38-.61-.19-1.21.4-.6.59-.45 1.45.12 1.59.57.14.91-.28 1-.21.09.07.39.33.67.3v.06c-.12.25-.11.53.17.62.28.09.78.16.89 0 .11-.16-.23-.64-.39-.81a.29.29 0 0 0-.3-.05c.52-.65-.17-1.08 0-1.34s.71-.56 1-1a1.001 1.001 0 0 0-.38-1.51ZM56.76 67.02c-.06.19-.16.7 0 .81.16.11.6-.27.69-.43.09-.16-.09-.4-.23-.52a.3.3 0 0 0-.46.14ZM61.93 55.39c.24.14.91-.1.94-.42.03-.32-.1-.76-.67-.66-.57.1-.51.96-.27 1.08ZM90.2 82.54c0-.51-.6-1.13-1.24-1.22a.94.94 0 0 0-1 .72.7.7 0 0 0-.8.18c-.17.26.12.67.32.86a1 1 0 0 0 .6.1 1.23 1.23 0 0 0 .9.5 1.22 1.22 0 0 0 1.22-1.14ZM90 84.78c-.29 0-.81.31-.84.54a.85.85 0 0 0 .61.77.62.62 0 0 0 .74-.57.7.7 0 0 0-.51-.74ZM92 83.52c-.33 0-.93.64-1 1.06a.85.85 0 0 0 1.68.06 1 1 0 0 0-.68-1.12ZM86.87 83.66a1.36 1.36 0 0 0-1.33 1 1.14 1.14 0 0 0 .87 1.3 1.78 1.78 0 0 0 1.49-1.12 1.15 1.15 0 0 0-1.03-1.18ZM52.3 25.39a.369.369 0 0 0 0-.31h-.57a.48.48 0 0 0 .12.23c.15.08.37.24.45.08ZM83.92 82.13a.37.37 0 0 0-.61.12c-.13.26-.2.52.08.72.28.2.83-.08.86-.29.03-.21-.16-.4-.33-.55ZM86.14 86.17h.5a.66.66 0 0 0-.5 0ZM81.9 82.08c-.51-.16-.88.41-1.42.46-1.3.13-1.38 1.11-1.13 2 .075.281.25.526.49.69l.21.12a1.3 1.3 0 0 0 .08.86h1.37a.87.87 0 0 0 0-.8.88.88 0 0 0 .65-.11 1.85 1.85 0 0 0 .73-2.13 1.49 1.49 0 0 0-.98-1.09ZM85.83 81.57a.45.45 0 0 0-.1-.09 1.47 1.47 0 0 0 .61-1 .62.62 0 0 0-.13-.37h-1.29a.64.64 0 0 0-.23.42 1.05 1.05 0 0 0 .29.81.59.59 0 0 0-.26.57c0 .43.43.51.81.61.25-.26.59-.53.3-.95ZM94 80.16v.13a.61.61 0 0 0 .9-.13H94ZM105.63 86.17h.82a.501.501 0 0 0-.29-.16.69.69 0 0 0-.53.16ZM107 80.67a.637.637 0 0 0-.68.48.546.546 0 0 0 .45.66.618.618 0 0 0 .66-.48.517.517 0 0 0-.221-.584.527.527 0 0 0-.209-.076ZM102.55 81.65a.87.87 0 0 0-.85.81c0 .45.13.71.52.76.55.07 1.17-.3 1.2-.74a.996.996 0 0 0-.87-.83ZM109.31 82.99c-.46 0-.37.43-.51.6a1.005 1.005 0 0 0 .16 1.44.921.921 0 0 0 1.06-.2.697.697 0 0 0 .1-1c-.12-.23-.35-.87-.81-.84ZM97.75 82.79c-.58-.07-1 .41-1.11 1.15a.9.9 0 0 0 .83 1.08 1.23 1.23 0 0 0 1.29-1.11 1.25 1.25 0 0 0-1.01-1.12ZM101.8 85.5a.6.6 0 0 0-.57.6v.07h1.32a.608.608 0 0 0-.455-.675.6.6 0 0 0-.295.005ZM96.26 85.62a.81.81 0 0 0-.86.55h1.41c-.17-.28-.4-.53-.55-.55ZM78.5 84.09a.698.698 0 0 0-.29 0s0-.07-.08-.08a.79.79 0 0 0-1 .14c-.37.57-.36 1.17 0 1.39a1.15 1.15 0 0 0 1.3-.38v-.07c.159-.15.29-.326.39-.52.18-.26-.04-.45-.32-.48ZM94.38 81.76c-.23 0-.75 0-.8.37-.05.37.46.51.67.61.21.1.5-.12.55-.44.05-.32-.09-.57-.42-.54ZM52.39 47.26c-.08-.35 0-.78-.55-.84a.64.64 0 0 0-.45.11v1c.23.16.5.08 1-.27ZM51.39 49.5v.79a.6.6 0 0 0 .16-.35.66.66 0 0 0-.16-.44ZM51.39 50.29v.37a.32.32 0 0 0 0-.37ZM52.64 62.08a1.12 1.12 0 0 0-1-1 .49.49 0 0 0-.26.11v1.6a.52.52 0 0 0 .29.09 1 1 0 0 0 .97-.8ZM52.51 51.57a.87.87 0 0 0-.27-.7.73.73 0 0 0-.66 0 .79.79 0 0 0-.19.22v.7a.62.62 0 0 0 .15.2.64.64 0 0 0 .97-.42ZM51.8 43.95a.839.839 0 0 0-.18-1.28.937.937 0 0 0-.23-.1v1.74a1.15 1.15 0 0 0 .41-.36ZM52.74 30.68a1 1 0 0 0-.28-1.17.85.85 0 0 0-1.07.15v1a1 1 0 0 0 1.35.02ZM51.89 38.28a.509.509 0 0 0-.5-.06v1.07c.235-.06.456-.166.65-.31.2-.14.1-.59-.15-.7ZM74.92 83.6c.11-.27.24-.57 0-.73-.47-.26-.86-.21-1 .08a.66.66 0 0 0 .25 1 .57.57 0 0 0 .75-.35ZM75.31 84.63a.22.22 0 0 0-.32.19.23.23 0 0 0 .18.31.23.23 0 0 0 .33-.18c.04-.18-.01-.28-.19-.32ZM73.75 86.17h1.44a.579.579 0 0 0-.15-.16 1 1 0 0 0-1.29.16ZM76.79 85.65c-.235.112-.46.245-.67.4a.938.938 0 0 0-.09.12h1.36a1.56 1.56 0 0 0-.6-.52ZM52.54 67.48c.72.06 1.29-.68 1-1.14-.29-.46-.59-.42-.55-.6.04-.18.33-.52.12-.81-.21-.29-1.23-.06-1.36.06-.13.12-.22.3-.39.38v1.38l.19-.07c.03.34.33.71.99.8ZM76.59 81.56c.25-.27.61-.68.23-1a1.64 1.64 0 0 0-1.15-.22.531.531 0 0 0-.19-.16h-1a1.003 1.003 0 0 0-.17.25.64.64 0 0 0-.07.31l-.18-.24c-.72.1-1 .26-1 .66a.62.62 0 0 0 .4.63.68.68 0 0 0 .86-.23.699.699 0 0 0 .08-.27.93.93 0 0 0 .4.36c.49.22.68 0 1 .14.32.14.54.04.79-.23ZM72.92 86a.31.31 0 0 0-.17.17h.58c-.02-.16-.27-.22-.41-.17ZM71.41 85.64a.91.91 0 0 0-.59-.1c.06.21.11.42.16.63h.93c-.117-.218-.29-.4-.5-.53ZM72.75 83.53a1 1 0 0 0 .46-.91.82.82 0 0 0-.51-.66 1 1 0 0 0-.93 0c-.27.22-.66.34-.7.64a.591.591 0 0 0 .15.52l.06.1a.4.4 0 0 0-.28.16 1 1 0 0 0 .28 1.19.9.9 0 0 0 1-.4.47.47 0 0 0 0-.52.999.999 0 0 0 .47-.12Z"/><path fill="#7DE2D1" d="M44.14 93.86a3.25 3.25 0 0 1 .53-4.7l14.44-10.77a2.06 2.06 0 0 1 2.79.32 2 2 0 0 1-.13 2.81l-12.9 12.54a3.24 3.24 0 0 1-4.73-.2Z"/><path fill="#00BFB3" d="M68.44 43.17h10.18a10.18 10.18 0 1 1-10.18-10.18v10.18Z"/><path fill="#20377D" d="M68.4 43.21V31.39a11.9 11.9 0 0 1 11.84 11.85H68.4v-.03Z"/></g><defs><clipPath id="a"><path fill="#fff" d="M1 4h126.33v120H1z"/></clipPath></defs></svg>