<svg xmlns="http://www.w3.org/2000/svg" fill="none" viewBox="0 0 335 340"><g clip-path="url(#a)"><path fill="#009596" d="M334.669 150.973v14.575c-13.086 0-22.255 2.743-27.505 8.228-5.172 5.486-7.758 14.654-7.758 27.505v37.614c0 10.814-1.058 20.178-3.173 28.093-2.038 7.914-5.407 14.457-10.109 19.629-4.702 5.172-10.971 9.012-18.807 11.519-7.836 2.508-17.514 3.762-29.033 3.762v-23.039c9.09 0 16.221-1.449 21.393-4.349 5.25-2.821 8.933-7.17 11.049-13.047 2.194-5.877 3.291-13.4 3.291-22.568v-47.017c0-6.112.784-11.676 2.351-16.691 1.645-5.015 4.623-9.325 8.933-12.93 4.31-3.605 10.422-6.386 18.337-8.345 7.993-1.959 18.336-2.939 31.031-2.939ZM238.284.989c11.519 0 21.197 1.253 29.033 3.761 7.836 2.508 14.105 6.347 18.807 11.52 4.702 5.171 8.071 11.714 10.109 19.629 2.115 7.914 3.173 17.279 3.173 28.093v37.613c0 12.851 2.586 22.02 7.758 27.505 5.25 5.485 14.419 8.228 27.505 8.228v14.575c-12.695 0-23.038-.979-31.031-2.938-7.915-1.959-14.027-4.741-18.337-8.346-4.31-3.604-7.288-7.914-8.933-12.929-1.567-5.016-2.351-10.579-2.351-16.691V63.992c0-9.169-1.097-16.692-3.291-22.569-2.116-5.955-5.799-10.344-11.049-13.165-5.172-2.82-12.303-4.231-21.393-4.231V.989Zm96.385 136.349v28.21h-27.74v-28.21h27.74ZM.752 188.725l.047-14.575c13.086.042 22.263-2.671 27.53-8.139 5.19-5.469 7.806-14.629 7.847-27.48l.12-37.614c.036-10.814 1.124-20.174 3.265-28.082 2.063-7.908 5.453-14.44 10.172-19.597 4.718-5.157 10.999-8.976 18.843-11.459 7.844-2.482 17.526-3.705 29.045-3.668l-.074 23.038c-9.09-.029-16.225 1.398-21.406 4.28-5.26 2.805-8.957 7.142-11.091 13.012-2.213 5.87-3.335 13.39-3.364 22.558l-.151 47.017c-.02 6.112-.821 11.673-2.405 16.683-1.661 5.01-4.653 9.31-8.974 12.901-4.322 3.591-10.443 6.353-18.364 8.287-7.999 1.933-18.346 2.879-31.04 2.838Zm95.902 150.294c-11.519-.037-21.192-1.322-29.02-3.855-7.828-2.533-14.085-6.392-18.77-11.579-4.685-5.187-8.034-11.741-10.046-19.662-2.09-7.922-3.118-17.289-3.083-28.103l.12-37.614c.042-12.851-2.514-22.027-7.669-27.529-5.232-5.503-14.392-8.275-27.478-8.317l.047-14.575c12.694.041 23.035 1.054 31.021 3.038 7.909 1.985 14.012 4.786 18.31 8.405 4.299 3.618 7.262 7.938 8.892 12.958 1.551 5.02 2.317 10.586 2.297 16.699l-.151 47.016c-.03 9.169 1.043 16.695 3.219 22.579 2.096 5.962 5.765 10.362 11.006 13.2 5.163 2.838 12.29 4.271 21.38 4.3l-.075 23.039ZM.708 202.36l.09-28.21 27.74.089-.09 28.21-27.74-.089Z"/><path stroke="#009596" stroke-width="24" d="M97 87v203h144M238.214 253.462l.653-203-144-.462M240.977 327.471l-152-.488"/></g><defs><clipPath id="a"><path fill="#fff" d="M0 0h335v340H0z"/></clipPath></defs></svg>