<svg xmlns="http://www.w3.org/2000/svg" fill="none" viewBox="0 0 96 96"><g clip-path="url(#a)"><g clip-path="url(#b)" style="pointer-events:none"><circle cx="48" cy="48" r="48" fill="#009596"/></g><g transform="translate(-1.194 2.705)"><circle cx="31.817" cy="46.689" r="16.045" stroke="#fff" stroke-width="3" style="fill:#fff"/><path stroke="#fff" stroke-width="3" d="M84.536 45.422c0 13.051-10.58 23.635-23.63 23.635-13.051 0-23.635-10.584-23.635-23.635 0-13.052 10.584-23.63 23.635-23.63 13.05 0 23.63 10.578 23.63 23.63Z"/><path d="M48.62 25.241c15.076-.912 25.509 15.238 18.781 29.071-3.732 7.673-11.814 12.057-20.12 10.915" style="stroke:#fff;fill:#fff;transform-origin:57.739px 44.345px"/><path d="m47.436 25.227-6.512 9.929 3.335 27.934 8.26-.504-3.177-38.032z" style="fill:#fff;stroke:#fff"/></g></g><defs><clipPath id="a"><path fill="#fff" d="M0 0h96v96H0z"/></clipPath><clipPath id="b"><path fill="#fff" d="M0 0h96v96H0z"/></clipPath></defs></svg>