<svg xmlns="http://www.w3.org/2000/svg" fill="none" viewBox="0 0 96 96"><g clip-path="url(#a)"><g clip-path="url(#b)"><circle cx="48" cy="48" r="48" fill="#009596"/></g><circle cx="23.632" cy="48.053" r="5.132" stroke="#fff" stroke-width="3"/><path stroke="#fff" stroke-width="3" d="M54.184 22.632a5.132 5.132 0 1 1-10.263 0 5.132 5.132 0 0 1 10.263 0ZM54.184 73.474a5.132 5.132 0 1 1-10.263 0 5.132 5.132 0 0 1 10.263 0Z"/><path stroke="#fff" stroke-linecap="round" stroke-width="3" d="M25.842 38.105c4.421-8.842 11.421-12.158 13.263-13.263M25.842 58c3.704 6.656 6.72 9.446 13.263 13.263M59 24.842c11.053 5.526 16.605 14 15.5 26.158M67.842 44.737l6.632 6.631M75 51l6-6M59 71.263c5.526-2.21 9.947-7.737 13.263-13.263"/></g><defs><clipPath id="a"><path fill="#fff" d="M0 0h96v96H0z"/></clipPath><clipPath id="b"><path fill="#fff" d="M0 0h96v96H0z"/></clipPath></defs></svg>