<svg xmlns="http://www.w3.org/2000/svg" data-slug-id="azure-rtos" viewBox="0 0 48 48"><path fill="#50E6FF" d="M13.526 3.158a3.467 3.467 0 0 1 4.587-1.729l26.724 12.096a3.467 3.467 0 0 1 1.728 4.588L34.47 44.836a3.467 3.467 0 0 1-4.587 1.729L3.158 34.469A3.467 3.467 0 0 1 1.43 29.88L13.526 3.158Z"/><path fill="#0078D4" d="M31.166 5.867H10.133a4.267 4.267 0 0 0-4.266 4.266V38a4.267 4.267 0 0 0 4.266 4.267h27.734A4.267 4.267 0 0 0 42.133 38V16.834c0-1.132-.45-2.217-1.25-3.017l-6.7-6.7c-.8-.8-1.885-1.25-3.017-1.25Z"/><path fill="#fff" d="m24.585 21.936 1.852-6.203-7.237 9.895h4.215l-1.852 6.203 7.237-9.895h-4.215Z"/></svg>