<svg xmlns="http://www.w3.org/2000/svg" data-slug-id="azure-network-function-manager" viewBox="0 0 48 49"><path fill="url(#a)" d="M23.883 10.106c2.32 0 4.2-1.953 4.2-4.362s-1.88-4.362-4.2-4.362c-2.32 0-4.2 1.953-4.2 4.362 0 2.41 1.88 4.362 4.2 4.362Z"/><path fill="#37C2B1" d="M29.082 6.047a5.537 5.537 0 0 1-.516 2.067 18.963 18.963 0 0 1 13.8 18.441 19.476 19.476 0 0 1-2.676 9.861 5.19 5.19 0 0 1 1.713 1.2 21.684 21.684 0 0 0 3.018-11.055A21.057 21.057 0 0 0 29.082 6.047Z"/><path fill="url(#b)" d="M37.686 45.791c2.32 0 4.2-1.953 4.2-4.362s-1.88-4.362-4.2-4.362c-2.32 0-4.2 1.953-4.2 4.362 0 2.41 1.88 4.362 4.2 4.362Z"/><path fill="url(#c)" d="M9.348 45.791c2.32 0 4.2-1.953 4.2-4.362s-1.88-4.362-4.2-4.362c-2.32 0-4.2 1.953-4.2 4.362 0 2.41 1.88 4.362 4.2 4.362Z"/><path fill="#37C2B1" d="M32.793 43.283A17.659 17.659 0 0 1 14.4 42.77a5.468 5.468 0 0 1-.9 1.935 19.678 19.678 0 0 0 20.379.405 5.507 5.507 0 0 1-1.086-1.827ZM8.163 36.152a19.476 19.476 0 0 1-2.523-9.6A18.972 18.972 0 0 1 19.23 8.168a5.5 5.5 0 0 1-.54-2.061A21.069 21.069 0 0 0 3.6 26.555a21.696 21.696 0 0 0 2.7 10.5 5.08 5.08 0 0 1 1.863-.903Z"/><path fill="url(#d)" d="M32.52 36.605a7.364 7.364 0 0 0 7.08-7.218 7.217 7.217 0 0 0-6.081-7.098 9.11 9.11 0 0 0-17.748-2.7 8.55 8.55 0 0 0 1.434 17.016H32.52Z"/><path fill="#fff" d="M30.819 26.333v-1.62l-.084-.08-1.593-.559-.408-1.113.789-1.692.084-.189-.507-.528-.6-.624-.207.108-1.557.831-1.074-.315-.681-1.8h-1.536l-.078.081-.537 1.653-1.089.426-1.8-.9-1.101 1.134.105.213.798 1.617-.447 1.113-1.896.693v1.62l.222.07 1.662.57.447 1.115-.831 1.872 1.101 1.158.207-.108 1.56-.828 1.071.462.684 1.953h1.557l.066-.23.549-1.726 1.059-.462 1.821.885 1.101-1.143-.105-.219-.807-1.602.3-1.13 1.755-.706Zm-6.561 1.5a2.271 2.271 0 1 1 2.175-2.283v.01a2.235 2.235 0 0 1-2.175 2.267v.006Z"/><defs><linearGradient id="a" x1="23.883" x2="23.883" y1="10.106" y2="1.382" gradientUnits="userSpaceOnUse"><stop offset=".001" stop-color="#37C2B1"/><stop offset=".496" stop-color="#3ACEBC"/><stop offset="1" stop-color="#3CD4C2"/></linearGradient><linearGradient id="b" x1="37.686" x2="37.686" y1="45.791" y2="37.067" gradientUnits="userSpaceOnUse"><stop offset=".001" stop-color="#37C2B1"/><stop offset=".496" stop-color="#3ACEBC"/><stop offset="1" stop-color="#3CD4C2"/></linearGradient><linearGradient id="c" x1="9.348" x2="9.348" y1="45.791" y2="37.067" gradientUnits="userSpaceOnUse"><stop offset=".001" stop-color="#37C2B1"/><stop offset=".496" stop-color="#3ACEBC"/><stop offset="1" stop-color="#3CD4C2"/></linearGradient><linearGradient id="d" x1="24" x2="24" y1="13.439" y2="36.647" gradientUnits="userSpaceOnUse"><stop stop-color="#9D79EB"/><stop offset="1" stop-color="#7548D6"/></linearGradient></defs></svg>