<svg xmlns="http://www.w3.org/2000/svg" data-slug-id="chaos-studio" viewBox="0 0 400 400"><defs><linearGradient id="b" x1="200" x2="200" y1="2003.58" y2="1703.508" gradientTransform="matrix(1 0 0 -1 0 2103.508)" gradientUnits="userSpaceOnUse"><stop offset="0" stop-color="#a80000"/><stop offset="1" stop-color="#910f08"/></linearGradient><linearGradient id="c" x1="-668.26" x2="-668.26" y1="299.976" gradientTransform="translate(868.26)" gradientUnits="userSpaceOnUse"><stop offset="0" stop-color="#e83231"/><stop offset="1" stop-color="#ce1817"/></linearGradient><linearGradient id="d" x1="200" x2="200" y1="2103.508" y2="1803.532" gradientTransform="matrix(1 0 0 -1 0 2103.508)"/><clipPath id="a"><path fill="none" d="M400 99.927 299.976 0H100.024A100.006 100.006 0 0 0 0 100.024v199.952L100.024 400h199.952A100.006 100.006 0 0 0 400 299.976V99.927ZM173.731 326.2V199.952h-73.707L226.269 73.707v126.245h73.707Z"/></clipPath></defs><g clip-path="url(#a)" style="isolation:isolate"><path fill="url(#b)" d="M173.731 199.952h-73.707L0 299.976 100.024 400h199.952A100.006 100.006 0 0 0 400 299.976V99.927L299.976 199.952 173.731 326.2Z"/><path fill="url(#c)" d="M299.976 0H100.024A100.006 100.006 0 0 0 0 100.024v199.952l100.024-100.024L226.269 73.707v126.245h73.707L400 99.927Z"/><path fill="url(#d)" d="M299.976 0H100.024A100.006 100.006 0 0 0 0 100.024v199.952l100.024-100.024L226.269 73.707v126.245h73.707L400 99.927Z"/></g></svg>