<svg xmlns="http://www.w3.org/2000/svg" data-slug-id="cognitive-services" viewBox="0 0 48 48"><path fill="url(#a)" d="M47 30.393a10.222 10.222 0 0 0-8.97-9.916 13.033 13.033 0 0 0-13.417-12.47 13.417 13.417 0 0 0-12.829 8.637A12.267 12.267 0 0 0 1 28.578a12.522 12.522 0 0 0 12.957 12.037h22.105c.187.027.376.027.562 0A10.478 10.478 0 0 0 47 30.393Z"/><path fill="#9CEBFF" d="M14.85 27.868h-2.248a2.786 2.786 0 1 0 0 1.252h2.249a.511.511 0 0 1 .51.511v10.99h1.253V29.63a1.763 1.763 0 0 0-1.763-1.763Zm-4.983 2.25a1.635 1.635 0 1 1 0-3.27 1.635 1.635 0 0 1 0 3.27Z"/><path fill="#F2F2F2" d="M23.847 28.423v-2.556a1.789 1.789 0 0 0-1.79-1.789h-3.96a.51.51 0 0 1-.511-.51V9.997l-.588.306-.665.358v12.777a1.763 1.763 0 0 0 1.764 1.764h3.96a.536.536 0 0 1 .537.537v2.555a2.76 2.76 0 0 0-2.172 2.709 2.785 2.785 0 1 0 3.425-2.709v.128Zm-.64 4.344a1.636 1.636 0 1 1 0-3.271 1.636 1.636 0 0 1 0 3.271Z"/><path fill="#9CEBFF" d="M38.131 23.035a2.785 2.785 0 0 0-.639 5.494v.511a.538.538 0 0 1-.536.537h-5.111V20.58a1.764 1.764 0 0 0-1.764-1.763H27.45a2.76 2.76 0 0 0-2.709-2.172 2.786 2.786 0 1 0 2.71 3.424h2.734a.511.511 0 0 1 .51.511v20.036h1.253v-9.788h5.111a1.79 1.79 0 0 0 1.789-1.789v-.51a2.786 2.786 0 0 0 2.172-2.71 2.787 2.787 0 0 0-2.888-2.785Zm-13.39-1.968a1.635 1.635 0 1 1 0-3.27 1.635 1.635 0 0 1 0 3.27Zm13.39 6.389a1.635 1.635 0 1 1-.05-3.27 1.635 1.635 0 0 1 .05 3.27Z"/><defs><linearGradient id="a" x1="24" x2="24" y1="50.199" y2=".57" gradientUnits="userSpaceOnUse"><stop stop-color="#0078D4"/><stop offset=".16" stop-color="#1380DA"/><stop offset=".53" stop-color="#3C91E5"/><stop offset=".82" stop-color="#559CEC"/><stop offset="1" stop-color="#5EA0EF"/></linearGradient></defs></svg>