<svg xmlns="http://www.w3.org/2000/svg" data-slug-id="databox" viewBox="0 0 18 18"><defs><linearGradient id="a" x1="8.95" x2="8.95" y1="12.85" y2=".72" gradientUnits="userSpaceOnUse"><stop offset="0" stop-color="#0078d4"/><stop offset=".82" stop-color="#5ea0ef"/></linearGradient></defs><path fill="url(#a)" d="M17.51 9.05a3.85 3.85 0 0 0-3.34-3.7 4.84 4.84 0 0 0-5-4.63A5 5 0 0 0 4.42 4a4.58 4.58 0 0 0-4 4.42 4.66 4.66 0 0 0 4.82 4.47H13.68a3.9 3.9 0 0 0 3.83-3.84Z"/><path fill="#50e6ff" d="M9.4 8.26a4.51 4.51 0 1 0-4.51 4.59H9.4V8.26Z"/><path fill="#0078d4" d="m11.61 14.91-2.13 2.14a.12.12 0 0 1-.16 0l-2.13-2.14a.1.1 0 0 1 .08-.18h1.25a.11.11 0 0 0 .11-.11v-2.76a.11.11 0 0 1 .11-.11h1.32a.11.11 0 0 1 .11.11v2.76a.11.11 0 0 0 .11.11h1.25a.1.1 0 0 1 .08.18Z"/><path fill="#fff" d="M7.19 9.66 9.4 7.45l2.21 2.21a.11.11 0 0 1-.08.19h-1.25a.11.11 0 0 0-.11.11v2.86H8.63V10a.11.11 0 0 0-.11-.11H7.27a.11.11 0 0 1-.08-.23Z"/></svg>