<svg xmlns="http://www.w3.org/2000/svg" data-slug-id="fluid-relay" viewBox="0 0 102 101"><defs><clipPath id="a"><path d="M170 272h102v101H170z"/></clipPath></defs><g clip-path="url(#a)" transform="translate(-170 -272)"><path fill="#0078D4" d="M170 283.362c0-6.275 5.138-11.362 11.475-11.362h17.85c6.337 0 11.475 5.087 11.475 11.362v17.675c0 6.276-5.138 11.363-11.475 11.363h-17.85c-6.337 0-11.475-5.087-11.475-11.363ZM221 333.862c0-6.275 5.138-11.362 11.475-11.362h28.05c6.338 0 11.475 5.087 11.475 11.362v27.775c0 6.276-5.137 11.363-11.475 11.363h-28.05c-6.337 0-11.475-5.087-11.475-11.363Z"/><path fill="#50E6FF" d="M245.429 287.15h-29.53v16.11c0 7.837-6.415 14.19-14.33 14.19H185.3v29.24c-.056 6.107 4.898 11.104 11.066 11.16h19.636v-26.715c-.056-7.502 6.04-13.629 13.616-13.685H256.65v-19.19c.028-6.108-4.95-11.082-11.118-11.11h-.102Z"/></g></svg>