<svg xmlns="http://www.w3.org/2000/svg" fill="none" viewBox="0 0 246 180"><path fill="url(#a)" d="M68.465 89.618H37v33.001h31.465V89.618Z"/><path fill="url(#b)" d="M107.074 68.207H75.609v53.844h31.465V68.207Z"/><path fill="url(#c)" fill-rule="evenodd" d="M114.217 45.903h31.464v54.898c-8.261 4.867-14.707 12.457-18.084 21.526h-13.38V45.903Z" clip-rule="evenodd"/><path fill="url(#d)" fill-rule="evenodd" d="M151.926 12.894h31.465v85.298a42.266 42.266 0 0 0-16.241-3.221c-5.368 0-10.502.997-15.224 2.814V12.894Z" clip-rule="evenodd"/><path fill="#31D5F0" d="M170.964 143.249c0-1.266-.935-2.316-2.814-3.138v5.94c1.879-.303 2.814-1.233 2.814-2.802Zm-5.681-9.748v-6.21c-1.824.325-2.736 1.277-2.736 2.846 0 1.363.912 2.488 2.736 3.364Zm10.914 9.477c0 2.164-.683 3.916-2.052 5.226-1.368 1.319-3.367 2.13-5.984 2.422v4.252h-2.878v-4.132c-2.704-.022-5.18-.627-7.428-1.807v-5.42c.706.573 1.836 1.136 3.389 1.677 1.552.541 2.899.855 4.039.93v-7.129c-2.899-1.071-4.952-2.24-6.157-3.517-1.205-1.275-1.814-2.942-1.814-5.019s.739-3.83 2.227-5.258c1.476-1.428 3.399-2.261 5.744-2.499v-3.645h2.867v3.559c2.769.129 4.832.573 6.19 1.33v5.29c-1.825-1.093-3.888-1.773-6.19-2.034v7.422c2.899 1.049 4.963 2.218 6.19 3.527 1.238 1.309 1.857 2.921 1.857 4.825Z"/><mask id="e" width="63" height="62" x="135" y="106" maskUnits="userSpaceOnUse" style="mask-type:alpha"><path fill="#E9E9E9" d="M197.249 128.844v-16.228h-6.527v5.81c-5.614-7.216-14.399-11.857-24.259-11.857-16.962 0-30.699 13.685-30.699 30.584 0 16.898 13.747 30.583 30.699 30.583 16.951 0 30.699-13.696 30.699-30.583 0-.606-.022-1.201-.055-1.797h-6.005c.044.596.065 1.191.065 1.797 0 13.588-11.054 24.611-24.704 24.611s-24.705-11.023-24.705-24.611c0-13.589 11.055-24.612 24.705-24.612a24.654 24.654 0 0 1 19.655 9.714h-5.169v6.503l16.3.086Z"/></mask><g filter="url(#f)" mask="url(#e)"><path fill="url(#g)" d="M197.249 128.844v-16.228h-6.527v5.81c-5.614-7.216-14.399-11.857-24.259-11.857-16.962 0-30.699 13.685-30.699 30.584 0 16.898 13.747 30.583 30.699 30.583 16.951 0 30.699-13.696 30.699-30.583 0-.606-.022-1.201-.055-1.797h-6.005c.044.596.065 1.191.065 1.797 0 13.588-11.054 24.611-24.704 24.611s-24.705-11.023-24.705-24.611c0-13.589 11.055-24.612 24.705-24.612a24.654 24.654 0 0 1 19.655 9.714h-5.169v6.503l16.3.086Z"/></g><defs><linearGradient id="a" x1="52.733" x2="52.733" y1="98.748" y2="122.619" gradientUnits="userSpaceOnUse"><stop offset=".199" stop-color="#0078D4"/><stop offset="1" stop-color="#005FA8"/></linearGradient><linearGradient id="b" x1="91.342" x2="91.342" y1="81.069" y2="122.051" gradientUnits="userSpaceOnUse"><stop offset=".363" stop-color="#0078D4"/><stop offset="1" stop-color="#005FA8"/></linearGradient><linearGradient id="c" x1="129.949" x2="129.949" y1="45.903" y2="122.327" gradientUnits="userSpaceOnUse"><stop offset=".274" stop-color="#50E6FF"/><stop offset="1" stop-color="#09BEDC"/></linearGradient><linearGradient id="d" x1="167.659" x2="167.659" y1="42.586" y2="122.319" gradientUnits="userSpaceOnUse"><stop stop-color="#0078D4"/><stop offset="1" stop-color="#005FA8"/></linearGradient><linearGradient id="g" x1="166.506" x2="166.506" y1="106.569" y2="167.736" gradientUnits="userSpaceOnUse"><stop stop-color="#50E6FF"/><stop offset="1" stop-color="#0078D4"/></linearGradient><filter id="f" width="62.485" height="62.167" x="135.264" y="106.069" color-interpolation-filters="sRGB" filterUnits="userSpaceOnUse"><feFlood flood-opacity="0" result="BackgroundImageFix"/><feBlend in="SourceGraphic" in2="BackgroundImageFix" result="shape"/><feGaussianBlur result="effect1_foregroundBlur_1375_27827" stdDeviation=".25"/></filter></defs></svg>