<svg xmlns="http://www.w3.org/2000/svg" fill="none" viewBox="0 0 48 48"><g clip-path="url(#a)"><path fill="#50E6FF" d="M36.996 10.175c-.824 0-1.615.092-2.38.283a13.704 13.704 0 0 0-11.61-6.383c-7.583 0-13.725 6.15-13.725 13.732 0 .183 0 .375.017.558a6.86 6.86 0 0 0-2.214-.358 6.763 6.763 0 0 0-6.75 6.766c0 3.504 2.68 6.384 6.084 6.725l16.13.034v-6.85c0-6.15 4.985-11.144 11.144-11.144a11.139 11.139 0 0 1 11.144 11.144v3.454a11.012 11.012 0 0 0 1.498-2.056c.05-.091.108-.183.158-.283.283-.59.683-1.481.932-2.613.017-.108.05-.217.059-.308a10.71 10.71 0 0 0 .183-2.006c.008-5.91-4.77-10.695-10.67-10.695Z"/><path fill="#0078D4" d="M42.506 24.31c0-4.803-3.928-8.74-8.73-8.74-4.312 0-7.907 3.172-8.598 7.3h3.579c.241-.85.699-1.615 1.331-2.256a5.18 5.18 0 0 1 3.696-1.531c1.39 0 2.696.55 3.695 1.531a5.18 5.18 0 0 1 1.532 3.696v2.105H25.045v17.511h17.444V27.54c.017-1.582.017-2.863.017-3.23Z"/><path fill="#50E6FF" d="M33.734 37.317a2.138 2.138 0 1 0 .001-4.28 2.138 2.138 0 0 0-.001 4.28Z"/></g><defs><clipPath id="a"><path fill="#fff" d="M0 0h48v48H0z"/></clipPath></defs></svg>