<svg xmlns="http://www.w3.org/2000/svg" data-slug-id="quantum" viewBox="0 0 36 36"><path fill="#50E6FF" d="M13.1 6.2h.7v26.1h-.7zM8.6 8.9h.7v20.9h-.7zM17.6 3.6h.7v31.3h-.7zM22.2 1h.7v31.3h-.7zM26.7 3.6h.7v26.1h-.7z"/><path fill="#50E6FF" d="m5.41 22.876.35-.606 16.972 9.801-.35.607zM6.485 18.306l.35-.606 20.351 11.752-.35.606zM7.675 13.7l.35-.607 10.218 5.903-.35.606zM13.322 11.795l.35-.606 16.975 9.798-.35.606zM13.303 6.598l.35-.606 15.846 9.154-.35.606zM17.808 3.973l.35-.606 10.22 5.9-.35.606z"/><path fill="#50E6FF" d="m13.232 32.034 17.153-9.89.35.606-17.153 9.89zM8.74 29.47 29.53 17.48l.35.607L9.09 30.076zM17.847 18.96l10.828-6.244.35.607-10.829 6.244zM5.71 20.89 27.714 8.204l.35.607L6.058 21.497zM7.174 14.81l6.062-3.502.35.607-6.062 3.5z"/><path fill="#0062AD" d="M18 35.7c-.1 0-.2 0-.4-.1L4.1 27.8c-.2-.1-.4-.4-.4-.6s.1-.5.4-.6l13.6-7.8c.2-.1.5-.1.7 0L32 26.6c.2.1.4.4.4.6s-.1.5-.4.6l-13.6 7.8c-.2.1-.3.1-.4.1zM5.9 27.1l12.1 7 12.1-7-12.1-7-12.1 7zM13.5 12.2c-.1 0-.2 0-.4-.1L8.6 9.5c-.2-.1-.4-.4-.4-.6 0-.3.1-.5.4-.6L22.2.5c.2-.1.5-.1.7 0L27.4 3c.2.1.4.4.4.6 0 .3-.1.5-.4.6L13.8 12c-.1.2-.2.2-.3.2zm-3.1-3.3 3.1 1.8 12.1-7-3.1-1.8-12.1 7z"/><path fill="#0062AD" d="m12.762 11.653 1.375-.264 4.512 23.47-1.374.264zM17.24 19.161 21.77.914l1.359.337-4.53 18.247zM26.348 3.75l1.375-.265 4.517 23.47-1.375.264zM3.762 26.95 8.266 8.697l1.36.335L5.12 27.285z"/></svg>