<svg xmlns="http://www.w3.org/2000/svg" data-slug-id="remote-rendering" viewBox="0 0 48 48"><path fill="url(#a)" d="M47 30.395a10.337 10.337 0 0 0-8.97-9.936A13.025 13.025 0 0 0 24.615 8.006a13.362 13.362 0 0 0-12.771 8.705A12.333 12.333 0 0 0 1 28.578a12.517 12.517 0 0 0 12.958 12.027c.383 0 .764-.018 1.14-.049h20.976c.187-.002.373-.03.552-.083A10.46 10.46 0 0 0 47 30.395Z"/><path fill="url(#b)" d="m22.369 25.807 5.96-11.719a.761.761 0 0 1 1.353 0l5.935 11.195c.43.7.64 1.512.6 2.333 0 2.457-3.233 4.447-7.224 4.447s-7.226-1.99-7.226-4.447a3.055 3.055 0 0 1 .602-1.81Z"/><path fill="#fff" d="M22.369 25.906c-.49.987-.61 1.153-.61 1.79.003.127.013.254.032.38v.144h.033c.363 1.9 2.675 3.434 5.673 3.823v-.384c-2.85-.38-5.04-1.814-5.313-3.59.117-1.78 2.278-3.695 5.313-4.122v-.226l-.06.034-.259-.145a7.6 7.6 0 0 0-4.369 2.278l.042-.08 1.845-3.629-.332-.191-1.995 3.934v-.016Z"/><path fill="#9CEBFF" d="M27.49 23.58v9.083l-7.85 4.564V28.13l7.85-4.55Z" opacity=".8"/><path fill="#9CEBFF" d="m27.488 23.558-7.85 4.561-7.85-4.564 7.85-4.563 7.85 4.566Z" opacity=".85"/><path fill="#9CEBFF" d="M19.638 28.128v9.086l-7.85-4.563v-9.084l7.85 4.561Z"/><path fill="#fff" d="m19.638 37.445-8.034-4.664v-9.312l8.034-4.665 8.034 4.665v9.301l-8.034 4.675Zm-7.66-4.892 7.66 4.452 7.658-4.453V23.69l-7.658-4.454-7.66 4.452v8.866Z"/><path fill="#fff" d="M36.21 27.596c.04-.82-.17-1.634-.601-2.333l-5.935-11.195a.762.762 0 0 0-1.353 0l-3.957 7.805.332.192 3.967-7.806a.37.37 0 0 1 .34-.21.374.374 0 0 1 .337.203l5.934 11.195v.031c.237.364.396.774.467 1.203a8.53 8.53 0 0 0-6.997-3.307c-.529 0-1.056.046-1.576.137l.26.143.059-.034v.226c.42-.06.843-.09 1.267-.091 3.817 0 6.901 2.278 7.044 4.227-.33 2.073-3.258 3.68-6.813 3.68a11.237 11.237 0 0 1-1.498-.104v.386c.497.065.997.098 1.498.099 3.703 0 6.75-1.713 7.17-3.924h.037c0-.044 0-.088-.013-.132.02-.13.03-.26.031-.391Z"/><defs><linearGradient id="a" x1="24" x2="24" y1="40.605" y2="8.001" gradientUnits="userSpaceOnUse"><stop stop-color="#0078D4"/><stop offset=".156" stop-color="#1380DA"/><stop offset=".528" stop-color="#3C91E5"/><stop offset=".822" stop-color="#559CEC"/><stop offset="1" stop-color="#5EA0EF"/></linearGradient><linearGradient id="b" x1="28.985" x2="28.985" y1="13.668" y2="32.042" gradientUnits="userSpaceOnUse"><stop stop-color="#C3F1FF"/><stop offset=".107" stop-color="#BEEFFE"/><stop offset=".765" stop-color="#32BEDD"/></linearGradient></defs></svg>