<svg xmlns="http://www.w3.org/2000/svg" data-slug-id="spatial-anchors" viewBox="0 0 48 48"><path fill="#BFE1EE" d="m4.266 31.053 18.566-12.791 18.273 12.791-18.273 13.45-18.566-13.45Z"/><path fill="#4099C1" d="M22.83 45.82 2.363 31.055 22.83 16.947l20.174 14.108L22.83 45.82ZM6.164 31.055l16.666 12.06 16.446-12.06L22.83 19.579 6.164 31.055Z"/><path stroke="#4099C1" stroke-miterlimit="10" stroke-width="3" d="m4.266 31.053 18.566-12.791 18.273 12.791-18.273 13.45-18.566-13.45Z"/><path fill="#419AC2" d="M38.182 36.39a5.701 5.701 0 1 0 0-11.404 5.701 5.701 0 0 0 0 11.403Z"/><path fill="#fff" d="M38.18 33.465a2.778 2.778 0 1 0 0-5.555 2.778 2.778 0 0 0 0 5.555Z"/><path fill="#7E4E94" d="M22.174 23.597a3.947 3.947 0 1 0 0-7.894 3.947 3.947 0 0 0 0 7.894ZM22.174 47.5a3.947 3.947 0 1 0 0-7.895 3.947 3.947 0 0 0 0 7.895ZM5.654 35.074a3.947 3.947 0 1 0 0-7.894 3.947 3.947 0 0 0 0 7.894ZM46.294 8.614c0 4.458-8.114 21.855-8.114 21.855s-8.114-17.324-8.114-21.855A8.095 8.095 0 0 1 38.18.5c4.459 0 8.114 3.655 8.114 8.114Z"/><path fill="#fff" d="M38.185 13.072a4.459 4.459 0 1 0 0-8.918 4.459 4.459 0 0 0 0 8.918Z"/></svg>