<svg xmlns="http://www.w3.org/2000/svg" data-slug-id="web-application-firewall" viewBox="0 0 48 49"><path fill="url(#a)" d="M36.058 41.343a21.115 21.115 0 0 1-26.046-33.24l.248-.247a21.137 21.137 0 0 1 25.798 33.487Z"/><path fill="#83B9F9" d="M6.786 28.94a64.06 64.06 0 0 0-1.984 6.45l1.488 2.233 1.488 1.488c.532-3 1.45-5.918 2.729-8.682a6.273 6.273 0 0 1-3.72-1.488ZM9.267 17.53a33.87 33.87 0 0 1-1.737-7.194 18.734 18.734 0 0 0-2.728 3.473c.26 2.036.76 4.034 1.488 5.954a6.772 6.772 0 0 1 2.977-2.233Z"/><path fill="url(#b)" d="M11.5 30.677a6.698 6.698 0 1 0 0-13.395 6.698 6.698 0 0 0 0 13.395Z"/><path fill="#83B9F9" d="M21.422 36.382a5.224 5.224 0 0 1 1.24-3.224 22.82 22.82 0 0 1-6.2-4.713 6.825 6.825 0 0 1-3.722 1.984 47.634 47.634 0 0 0 3.721 3.473 20.278 20.278 0 0 0 4.961 2.976v-.496ZM37.05 36.879a33.064 33.064 0 0 1-6.945-.745v.248a4.106 4.106 0 0 1-1.24 2.977 32.17 32.17 0 0 0 8.433.496c.992-.992 1.985-2.232 2.977-3.224-1.06.215-2.144.298-3.225.248ZM24.647 15.05a33.408 33.408 0 0 1 14.635-3.473 16.693 16.693 0 0 0-3.72-3.473 38.039 38.039 0 0 0-11.66 2.729c-.85.362-1.679.777-2.48 1.24a46.45 46.45 0 0 1-4.961-7.194 4.713 4.713 0 0 0-2.232.744 52.397 52.397 0 0 0 5.209 7.69 24.41 24.41 0 0 0-5.457 4.217 7.07 7.07 0 0 1 3.224 2.729 22.232 22.232 0 0 1 4.713-3.721 55.475 55.475 0 0 0 9.178 7.938 5.148 5.148 0 0 1 1.489-2.481 69.189 69.189 0 0 1-7.938-6.946Z"/><path fill="#F2F2F2" d="M35.81 30.18a4.713 4.713 0 1 0 0-9.425 4.713 4.713 0 0 0 0 9.426Z"/><path fill="#83B9F9" d="M43.748 28.692c-.248-.247-.496-.247-.744-.496-.248-.248-.496-.248-.744-.496h-.248l-.744-.496h-.248l-.745-.496a3.612 3.612 0 0 1-1.488 2.233c.248.248.496.248.992.496h.248c.248.248.496.248.745.496.744.496 1.488.744 2.232 1.24.248-.744.496-1.736.744-2.48Z"/><path fill="#F2F2F2" d="M11.5 30.677a6.698 6.698 0 1 0 0-13.395 6.698 6.698 0 0 0 0 13.395ZM25.888 40.847a4.465 4.465 0 1 0 0-8.93 4.465 4.465 0 0 0 0 8.93Z"/><path fill="#821010" d="M14.477 28.94h30.015c.496 0 1.24.497 1.24.993v15.875a1.33 1.33 0 0 1-1.24 1.24H14.477a1.137 1.137 0 0 1-.992-1.24V30.181a1.136 1.136 0 0 1 .992-1.24Z"/><path fill="#E62323" d="M23.655 30.925h-8.93v3.969h8.93v-3.969Z"/><path fill="#FF7381" d="M34.074 30.925h-8.93v3.969h8.93v-3.969Z"/><path fill="#E62323" d="M44.243 30.925h-8.93v3.969h8.93v-3.969ZM18.445 36.134h-3.72v3.97h3.72v-3.97Z"/><path fill="#FF7381" d="M44.244 36.134h-3.72v3.97h3.72v-3.97ZM28.866 36.134h-8.93v3.97h8.93v-3.97Z"/><path fill="#E62323" d="M39.035 36.134h-8.93v3.97h8.93v-3.97ZM23.655 41.343h-8.93v3.97h8.93v-3.97Z"/><path fill="#FF7381" d="M34.074 41.343h-8.93v3.97h8.93v-3.97Z"/><path fill="#E62323" d="M44.243 41.343h-8.93v3.97h8.93v-3.97Z"/><defs><radialGradient id="a" cx="0" cy="0" r="1" gradientTransform="translate(23.06 24.715) scale(21.0696)" gradientUnits="userSpaceOnUse"><stop offset=".183" stop-color="#5EA0EF"/><stop offset="1" stop-color="#0078D4"/></radialGradient><linearGradient id="b" x1="11.554" x2="11.477" y1="30.918" y2="21.097" gradientUnits="userSpaceOnUse"><stop stop-color="#CCC"/><stop offset=".123" stop-color="#D7D7D7"/><stop offset=".421" stop-color="#EBEBEB"/><stop offset=".716" stop-color="#F8F8F8"/><stop offset="1" stop-color="#FCFCFC"/></linearGradient></defs></svg>