<svg xmlns="http://www.w3.org/2000/svg" viewBox="0 0 16 16"><path d="m6.691 9.89-4.654 2.62 1.754.418 2.9-1.582z"/><path d="m2.036 11.636 3.722-1.991.933.246-4.655 2.618" opacity=".333"/><path d="M1.164 4.363v8.438l.873-.291V4.582Z"/><path d="m8.145 13.964-6.109-1.455-.872.291 6.981 1.745" opacity=".333"/><path d="M0 2.91v10.763L9.31 16l.024-10.887Zm1.164 1.454 6.981 1.745v8.436L1.164 12.8Z" opacity=".667"/><path d="M16 1.745V12.8L9.31 16l.017-10.887Zm-1.164 2.037-4.654 2.327v8.146l4.654-2.328zM1.845 2.814 6.691.582v1.163L3.599 3.224"/><path d="M6.69 0 0 2.91l9.331 2.2L16 1.744Zm0 .582 6.983 1.454-4.655 2.328-7.168-1.55Z" opacity=".333"/><path d="M6.691 1.746v2.115l.903.194.01-2.106Zm0 2.74v.002l.899.213V4.7zm0 1.26v4.145l.873-.291.018-3.631Z"/><path d="M13.673 2.036 6.69.582v1.163l5.236 1.164M6.691 1.746l-.935.416v1.496l.935.203zm-.935 2.52v.002l.935.22v-.002zm0 1.246v4.142l.935.237V5.746Z" opacity=".667"/><path d="M6.691 9.89v1.456l1.454.297v-1.39zm3.49.874v1.295l1.88.382 1.61-.804z" opacity=".667"/><path d="m7.564 9.6-.873.29 1.454.364v-.516Zm2.618.623v.54l3.49.874v-.582z" opacity=".333"/><path d="m14.836 3.782-1.163.582v7.272l1.163.291" opacity=".667"/><path d="m14.836 11.927-4.654 2.328v-.873l3.49-1.746z" opacity=".333"/></svg>