<svg xmlns="http://www.w3.org/2000/svg" style="fill:#fff" viewBox="0 0 144 44"><path d="M56 8.855v24.49h13.813v-2.65H59.1V8.855H56zm24.215 5.899c-4.144 0-8.139 3.623-8.139 9.559 0 5.936 3.846 9.482 8.7 9.482 2.463 0 4.404-.86 5.972-1.867l-1.082-2.016c-1.344.859-2.8 1.418-4.518 1.418-3.472 0-5.824-2.463-6.048-6.309h12.246c.074-.448.111-1.119.111-1.753 0-5.19-2.613-8.514-7.242-8.514zm18.01 0c-2.912 0-5.451 1.27-7.131 2.353l1.195 2.127c1.419-.97 3.323-1.941 5.414-1.941 2.987 0 3.733 2.24 3.733 4.555-7.728.858-11.125 2.837-11.125 6.795 0 3.248 2.276 5.152 5.3 5.152 2.278 0 4.295-1.195 6.012-2.613h.111l.262 2.164h2.54V22.22c0-4.518-1.869-7.467-6.311-7.467zm20.716 0c-2.128 0-4.144 1.158-5.787 2.539h-.111l-.262-2.09h-2.539V41h3.063v-6.123l-.075-3.174c1.68 1.307 3.36 2.092 5.04 2.092 4.144 0 7.84-3.621 7.84-9.781 0-5.638-2.502-9.26-7.169-9.26zM80.29 17.182c2.837 0 4.48 1.978 4.48 5.636h-9.707c.374-3.584 2.688-5.636 5.227-5.636zm37.87.148c3.434 0 4.777 2.689 4.777 6.684 0 4.48-2.203 7.205-5.19 7.205-1.195 0-2.799-.523-4.441-1.905v-9.52c1.792-1.604 3.323-2.464 4.853-2.464zm-16.723 6.533v5.041c-1.755 1.568-3.174 2.426-4.928 2.426-1.792 0-3.211-.859-3.211-2.912 0-2.315 2.09-3.808 8.139-4.555zM25.928 6.66 12.922 16.792l12.933 9.917 13.006-10.134Zm14.405 12.57L25.855 30.5 11.451 19.47 8 22.15 26.072 36 44 22.053Z"/></svg>