<svg xmlns="http://www.w3.org/2000/svg" style="fill:#fff" viewBox="0 0 200 44"><path d="M91.754 8.166c-1.195 0-2.127.784-2.127 1.979 0 1.157.932 1.978 2.127 1.978 1.195 0 2.129-.821 2.129-1.978 0-1.195-.934-1.979-2.13-1.979zm66.828.895c-6.16 0-10.453 4.742-10.453 12.582 0 7.877 4.293 12.804 10.453 12.804 6.16 0 10.49-4.927 10.49-12.804 0-7.803-4.33-12.582-10.49-12.582zm22.85 0c-4.443 0-7.69 2.762-7.69 6.496 0 3.584 2.65 5.34 4.965 6.31l3.51 1.53c2.314 1.045 4.068 1.83 4.068 4.332 0 2.389-1.902 3.994-5.113 3.994-2.539 0-5.003-1.232-6.758-3.06l-1.867 2.163a11.88 11.88 0 0 0 8.588 3.621c5.152 0 8.324-3.098 8.324-6.98 0-3.622-2.202-5.301-5.04-6.533l-3.472-1.495c-1.941-.82-4.07-1.716-4.07-4.068 0-2.203 1.83-3.584 4.555-3.584 2.277 0 4.07.896 5.564 2.315l1.68-2.016a10.166 10.166 0 0 0-7.244-3.025zM63.359 9.51V34h2.801V20.523c0-2.165-.224-5.078-.373-7.244h.149l1.941 5.563 4.629 12.693h2.055l4.628-12.693 1.942-5.563h.148c-.149 2.166-.41 5.08-.41 7.244V34h2.912V9.51H80.01l-4.63 13.066c-.596 1.68-1.081 3.435-1.679 5.115h-.148c-.598-1.68-1.159-3.435-1.756-5.115L67.094 9.51h-3.735zm95.223 2.277c4.368 0 7.242 3.77 7.242 9.856 0 6.122-2.874 10.08-7.242 10.08s-7.242-3.958-7.242-10.08c0-6.086 2.874-9.856 7.242-9.856zm-51.816 3.621c-4.667 0-8.737 3.472-8.737 9.557 0 6.01 3.696 9.482 8.512 9.482 2.165 0 4.219-.858 5.861-2.314l-1.343-2.053c-1.12 1.008-2.576 1.83-4.256 1.83-3.323 0-5.6-2.801-5.6-6.945 0-4.181 2.389-7.018 5.674-7.018 1.456 0 2.578.672 3.623 1.606l1.566-2.018c-1.269-1.157-2.911-2.127-5.3-2.127zm17.662 0c-2.054 0-3.92 1.455-5.153 3.733h-.11l-.263-3.286h-2.539V34h3.06V22.352c1.233-3.062 3.064-4.182 4.595-4.182.746 0 1.156.112 1.753.299l.598-2.688c-.597-.261-1.157-.373-1.941-.373zm11.605 0c-4.442 0-8.398 3.472-8.398 9.557 0 6.01 3.956 9.482 8.398 9.482 4.443 0 8.4-3.471 8.4-9.482 0-6.085-3.957-9.557-8.4-9.557zm-45.847.447V34h3.062V15.855h-3.062zm45.847 2.092c3.136 0 5.227 2.837 5.227 7.018 0 4.144-2.09 6.945-5.227 6.945-3.098 0-5.226-2.801-5.226-6.945 0-4.181 2.128-7.018 5.226-7.018zM30.42 8c-7.715 0-14 6.284-14 14 0 7.715 6.285 14 14 14s14-6.285 14-14c0-7.716-6.285-14-14-14zm0 2.8c6.202 0 11.2 4.998 11.2 11.2 0 6.202-4.998 11.2-11.2 11.2-6.202 0-11.2-4.998-11.2-11.2 0-6.202 4.998-11.2 11.2-11.2z"/><path d="M9.42 20.6a1.4 1.4 0 1 0 0 2.8h8.4a1.4 1.4 0 1 0 0-2.8zM43.02 20.6a1.4 1.4 0 1 0 0 2.8h8.4a1.4 1.4 0 1 0 0-2.8zM30.42 16.4c-3.076 0-5.6 2.524-5.6 5.6 0 3.076 2.524 5.6 5.6 5.6 3.076 0 5.6-2.524 5.6-5.6 0-3.076-2.524-5.6-5.6-5.6zm0 2.8a2.78 2.78 0 0 1 2.8 2.8 2.78 2.78 0 0 1-2.8 2.8 2.78 2.78 0 0 1-2.8-2.8 2.78 2.78 0 0 1 2.8-2.8z"/></svg>