<svg xmlns="http://www.w3.org/2000/svg" viewBox="0 0 128 128"><path fill="#173f4f" d="M64 29.062c-18.09 0-33.027 13.836-34.791 31.472H11.547a3.497 3.497 0 1 0 0 6.994h17.662C30.973 85.164 45.91 99 64 99c18.09 0 33.027-13.836 34.791-31.472h17.662a3.497 3.497 0 1 0 0-6.994H98.791C97.027 42.898 82.09 29.062 64 29.062Zm0 6.994c15.375 0 27.762 12.304 27.948 27.634a3.497 3.497 0 0 0 0 .669C91.768 79.695 79.38 92.006 64 92.006c-15.375 0-27.762-12.304-27.948-27.633a3.497 3.497 0 0 0 0-.67C36.232 48.367 48.62 36.056 64 36.056zm0 13.988c-7.684 0-13.988 6.303-13.988 13.987S56.316 78.02 64 78.02c7.684 0 13.988-6.304 13.988-13.988 0-7.684-6.304-13.987-13.988-13.987zm0 6.993c3.904 0 6.994 3.09 6.994 6.994s-3.09 6.994-6.994 6.994-6.994-3.09-6.994-6.994 3.09-6.994 6.994-6.994z"/></svg>