<svg xmlns="http://www.w3.org/2000/svg" viewBox="0 0 16 16"><path d="M12.286 4.274c-.733 0-1.446.212-2.081.573-.617.352-1.156.83-1.635 1.35a11.664 11.664 0 0 0-.546.641 18.495 18.495 0 0 0-.49.65l-.242.335c-.161.224-.325.447-.512.65a14.324 14.324 0 0 1-.534.547c-.455.442-.94.862-1.477 1.203-.424.27-.92.527-1.435.527-1.382 0-2.62-1.095-2.62-2.762 0-1.666 1.19-2.571 2.62-2.571.827 0 1.56.353 2.27.964l-.38.39.929.236.93.235-.262-.923-.261-.922-.416.428c-.727-.65-1.63-1.17-2.763-1.17C1.524 4.655 0 5.988 0 8.035c0 1.953 1.524 3.382 3.238 3.382a3.96 3.96 0 0 0 2.005-.57c.546-.322 1.023-.747 1.46-1.202.148-.154.292-.311.434-.47.185-.205.358-.408.513-.641l.204-.307c.125-.189.24-.375.375-.558.247-.338.506-.667.784-.979.468-.523.998-1.01 1.621-1.34a3.429 3.429 0 0 1 1.604-.41c1.953 0 3.048 1.357 3.048 3.096 0 1.619-1.048 2.952-2.857 2.952-1.035 0-1.941-.28-2.897-1.106l.443-.539-.946-.157-.945-.157.336.898.337.897.376-.457c.926.833 1.935 1.383 3.248 1.383 2.19 0 3.619-1.667 3.619-3.762 0-2.19-1.476-3.714-3.714-3.714"/></svg>