<svg xmlns="http://www.w3.org/2000/svg" viewBox="0 0 80 80"><g fill="none" fill-rule="evenodd"><path fill="#7AA116" d="M0 0h80v80H0z"/><path fill="#FFF" d="M34.288 26.375c.251.086.526.069.767-.049.136-.067.237-.117 3.562-3.004l3.345 2.866a.99.99 0 0 0 .974.187l4.134-1.417L44.726 29H32.519l-2.356-4.039 4.125 1.414ZM31.945 31h13.357a1 1 0 0 0 .865-.498l3.976-6.857a1 1 0 0 0-1.189-1.447l-6.125 2.1-3.566-3.056a.998.998 0 0 0-1.307.005 464.933 464.933 0 0 1-3.545 3.056l-6.142-2.105a1.001 1.001 0 0 0-1.188 1.45l4 6.856a1 1 0 0 0 .864.496ZM69 45.989l-6.047 2.938a.994.994 0 0 1-.439.101 1.005 1.005 0 0 1-.928-.621l-2.543-6.189 1.857-.759 1.863 4.535a24.332 24.332 0 0 0 1.22-7.56c0-13.472-10.985-24.432-24.488-24.432s-24.489 10.96-24.489 24.432c0 3.296.647 6.496 1.924 9.509l-1.848.779A26.226 26.226 0 0 1 13 38.434C13 23.858 24.885 12 39.495 12 54.104 12 65.99 23.858 65.99 38.434c0 2.488-.354 4.932-1.033 7.294l3.165-1.538.878 1.799Zm-13.055-15.53h2c0 1.709-1.093 3.16-2.72 3.611a3.635 3.635 0 0 1-.967.133c-1.29 0-2.503-.709-3.253-1.959-.249-.414-.474-.598-.589-.598h-.004c-.405.016-1.193.979-1.601 1.798-.169.34-.516.556-.896.556h-16.97v-2h16.38c.519-.861 1.591-2.294 3.004-2.353.673-.033 1.585.226 2.391 1.568.473.79 1.21 1.137 1.972.927a1.718 1.718 0 0 0 1.253-1.683ZM42.962 55.56c0 1.77-1.32 3.219-3.017 3.436V52.2c1.502.417 3.017 1.479 3.017 3.36Zm-6.897-8.961c0-1.346.77-2.503 1.88-3.081v5.979c-1.043-.566-1.88-1.504-1.88-2.898Zm6.897 0h2c0-2.875-2.214-5.236-5.017-5.458V40h-2v1.353a5.484 5.484 0 0 0-3.88 5.246c0 2.307 1.518 4.216 3.88 5.082v6.96a3.475 3.475 0 0 1-1.88-3.081h-2a5.485 5.485 0 0 0 3.88 5.246V63h2v-1.982c2.803-.223 5.017-2.583 5.017-5.458 0-2.66-2.01-4.794-5.017-5.403v-6.994a3.462 3.462 0 0 1 3.017 3.436ZM38.945 66c-9.546 0-15.476-5.188-15.476-13.541 0-8.754 6.807-13.668 9.044-15.284l.242-.175h12.38l.242.176c2.237 1.615 9.045 6.529 9.045 15.283C54.422 60.812 48.491 66 38.945 66Zm7.603-30.446c-.198-.143-.354-.254-.457-.336a1 1 0 0 0-.622-.218H32.421a.996.996 0 0 0-.622.218c-.104.082-.259.193-.456.336-6.552 4.73-9.874 10.418-9.874 16.905C21.469 61.9 28.329 68 38.945 68s17.477-6.1 17.477-15.541c0-6.487-3.322-12.175-9.874-16.905Z"/></g></svg>