<svg xmlns="http://www.w3.org/2000/svg" xml:space="preserve" viewBox="0 0 191.48 88.08"><path d="M19.305 49.023c0-2.265.414-4.316 1.242-6.18a14.585 14.585 0 0 1 3.387-4.816 15.38 15.38 0 0 1 5.023-3.117c1.91-.73 4.004-1.101 6.258-1.101 4.96 0 8.937 1.71 11.933 5.136 3 3.418 4.504 7.91 4.504 13.457 0 5.715-1.476 10.266-4.433 13.645-2.961 3.379-6.918 5.066-11.867 5.066-3.918 0-7.215-.925-9.91-2.793-2.7-1.867-4.739-4.394-6.137-7.597zm0-19.921c0-3.262-.75-5.516-2.274-6.766-1.504-1.242-3.43-1.867-5.761-1.867H9.324c-2.508 0-4.52.605-6.031 1.816-1.516 1.211-2.27 3.508-2.27 6.887v80c0 .351.696.777 2.07 1.297 1.387.519 2.989.781 4.805.781 1.38 0 2.747-.215 4.083-.645 1.34-.437 2.55-1.191 3.625-2.285 1.085-1.074 1.972-2.578 2.667-4.48.692-1.906 1.032-4.328 1.032-7.277l.058-21.192c2.258 3.215 5.11 5.742 8.586 7.617 3.465 1.856 7.453 2.793 11.961 2.793 4.25 0 8.176-.781 11.77-2.343 3.601-1.563 6.699-3.77 9.297-6.622 2.609-2.87 4.648-6.355 6.113-10.468 1.484-4.121 2.215-8.692 2.215-13.72 0-4.94-.711-9.464-2.149-13.585-1.433-4.121-3.445-7.625-6.054-10.527-2.606-2.91-5.73-5.176-9.375-6.825-3.641-1.652-7.684-2.472-12.11-2.472-4.949 0-9.14 1.062-12.566 3.183-3.43 2.13-6.008 4.707-7.746 7.735v-1.035M95.418.656c-1.649-.43-3.64-.625-5.973-.586-2.347.047-4.66.301-6.957.782a26.618 26.618 0 0 0-6.433 2.207c-1.993 1.003-3.496 2.234-4.493 3.71-.996 1.473-1.355 3.204-1.101 5.196.262 2 1.473 4.207 3.64 6.629 3.028-1.297 5.938-2.207 8.711-2.735a28.163 28.163 0 0 1 7.344-.324c2.473.227 4.57 1.242 6.309 3.059.945 1.133 1.691 2.11 2.207 2.93.52.82.867 1.484 1.035 2.011.266.696.352 1.211.266 1.563-1.477.168-2.688.558-3.645 1.172-.945.605-1.73 1.554-2.336 2.851L72.148 79.824c-.078.254.137.696.653 1.297.52.61 1.23 1.195 2.14 1.762.918.555 2.004 1.082 3.262 1.562 1.25.477 2.578.711 3.965.711 2.16 0 4.113-.605 5.84-1.816 1.738-1.223 3.215-3.64 4.422-7.285l13.781-36.27 12.227 36.145c1.125 3.632 2.597 6.082 4.414 7.343 1.816 1.258 3.73 1.883 5.722 1.883a11.03 11.03 0 0 0 3.77-.652c1.211-.43 2.273-.95 3.183-1.555.911-.605 1.641-1.172 2.207-1.699.567-.516.801-.906.723-1.16l-23.144-60.586a54.867 54.867 0 0 0-2.54-5.39c-.996-1.868-2.277-3.665-3.828-5.403-1.562-1.727-3.449-3.309-5.664-4.746-2.207-1.426-4.824-2.527-7.863-3.309" style="fill:#00a650;fill-opacity:1;fill-rule:nonzero;stroke:none" transform="matrix(.13333 0 0 -.13333 0 88.08)"/><path d="M245.398 46.492c0-5.484-1.406-10.23-4.207-14.246-2.812-4.004-6.726-7.07-11.75-9.21-5.027-2.13-10.789-3.192-17.285-3.192-1.812 0-4.051.117-6.687.351-2.637.235-6.133.871-10.508 1.922-4.375 1.059-8.914 2.621-13.645 4.68V48.34c4.426-2.754 8.774-5.04 13.039-6.856 4.278-1.828 8.86-2.734 13.743-2.734 4.507 0 7.422.754 8.75 2.258 1.328 1.504 1.992 2.91 1.992 4.219 0 2.37-1.145 4.375-3.41 6.004-2.278 1.632-5.575 3.312-9.91 5.05-4.805 2.032-9.016 4.246-12.637 6.63-3.625 2.402-6.582 5.39-8.879 8.995-2.305 3.602-3.445 7.86-3.445 12.774 0 4.746 1.16 9.03 3.484 12.86 2.312 3.839 5.859 6.894 10.625 9.179 4.773 2.297 10.605 3.437 17.48 3.437 4.891 0 9.422-.476 13.575-1.426 4.16-.957 7.59-2.031 10.293-3.222 2.695-1.184 4.558-2.11 5.566-2.793V82.07c-3.594 2.578-7.598 4.883-12.012 6.914-4.414 2.032-9.14 3.047-14.16 3.047-3.301 0-5.683-.633-7.168-1.902-1.472-1.27-2.219-2.844-2.219-4.7 0-1.738.735-3.242 2.207-4.511 1.477-1.27 4.106-2.813 7.891-4.637 6.77-3.176 12.199-6.039 16.262-8.578 4.062-2.535 7.246-5.465 9.551-8.797 2.312-3.32 3.464-7.46 3.464-12.414M315.059 23.965a81.49 81.49 0 0 0-6.036-2c-2.121-.617-4.492-1.113-7.136-1.516-2.649-.398-5.539-.605-8.664-.605-7.071 0-13.047 1.191-17.942 3.586-4.89 2.39-8.648 5.39-11.297 9.011-2.644 3.614-4.472 7.305-5.488 11.075-1.016 3.761-1.523 7.082-1.523 9.96 0 2.872.507 6.192 1.55 9.961 1.04 3.762 2.844 7.403 5.422 10.91 2.586 3.505 6.328 6.454 11.211 8.817 4.883 2.363 10.907 3.555 18.067 3.555 4.773 0 8.672-.34 11.679-1.016 2.996-.672 6.043-1.582 9.141-2.722V65.038c-7.449 2.363-13.273 3.555-17.461 3.555-4.062 0-7.676-1.23-10.82-3.692-3.157-2.453-4.727-6.27-4.727-11.425 0-3.438.781-6.329 2.344-8.68 1.562-2.356 3.555-4.074 5.969-5.18 2.41-1.101 4.824-1.648 7.234-1.648 2.285 0 4.883.332 7.813 1.015 2.91.672 6.464 1.653 10.664 2.922V23.965M395.145 20.938h-22.809v33.527c0 .254.008.496.027.73.02.227.039.723.039 1.485 0 3.086-.664 5.93-1.972 8.507-1.309 2.586-3.809 3.876-7.481 3.876-2.883 0-5.422-.965-7.617-2.891-2.195-1.926-4.297-4.348-6.277-7.266V20.938h-22.817v87.968h22.817V76.309c3.758 4.015 7.476 6.757 11.16 8.222 3.672 1.457 7.578 2.188 11.726 2.188 15.469 0 23.204-8.7 23.204-26.094V20.937M477.859 20.938h-22.808v34.855c0 3.555-.586 6.648-1.75 9.305-1.16 2.636-3.711 3.965-7.649 3.965-1.863 0-3.504-.352-4.91-1.044a14.381 14.381 0 0 1-3.808-2.707c-1.121-1.093-2.063-2.156-2.825-3.171-.757-1.02-1.543-2.09-2.351-3.235V20.938h-22.813v64.687h22.813v-9.316c3.594 3.847 7.195 6.543 10.808 8.086 3.618 1.554 7.649 2.324 12.082 2.324 15.469 0 23.211-9.27 23.211-27.813V20.938M536.504 59.063c0 4.132-1.035 7.43-3.098 9.89-2.066 2.473-5.039 3.703-8.902 3.703-3.84 0-6.938-1.25-9.301-3.758-2.359-2.511-3.543-5.793-3.543-9.836zm21.406-11.25h-45.613c.887-3.946 3.074-7.176 6.551-9.676 3.476-2.512 7.422-3.762 11.836-3.762 7.722 0 16.25 2.168 25.578 6.492V26.7c-3.34-1.738-7.407-3.32-12.168-4.726-4.77-1.414-10.832-2.13-18.203-2.13-7.961 0-14.746 1.485-20.332 4.442-5.586 2.961-9.778 6.977-12.551 12.055-2.774 5.078-4.16 10.828-4.16 17.254 0 6.347 1.386 12.031 4.16 17.043 2.773 5.008 6.965 8.941 12.551 11.804 5.586 2.852 12.363 4.278 20.332 4.278 5.254 0 10.32-1.133 15.214-3.39 4.891-2.263 8.915-5.958 12.071-11.09 3.152-5.13 4.734-11.75 4.734-19.868v-4.558M591.23 100.52c0-2.668-.949-4.934-2.839-6.79-1.899-1.863-4.153-2.793-6.758-2.793-1.778 0-3.379.422-4.836 1.27a9.206 9.206 0 0 0-3.445 3.457c-.84 1.453-1.262 3.078-1.262 4.856 0 2.617.93 4.882 2.781 6.785 1.848 1.894 4.106 2.851 6.762 2.851 2.605 0 4.859-.957 6.758-2.851 1.89-1.903 2.839-4.168 2.839-6.785zm1.836-79.582h-22.812v64.687h22.812V20.937M654.434 41.453v24.73c-2.676 1.485-4.778 2.54-6.282 3.172-1.504.637-3.281.957-5.32.957-3.613 0-6.609-1.523-9.016-4.578-2.398-3.047-3.601-7.199-3.601-12.453 0-5.722 1.262-9.89 3.789-12.5 2.527-2.605 5.476-3.906 8.828-3.906 2.766 0 4.988.43 6.688 1.309 1.703.859 3.339 1.953 4.914 3.27zm22.808-20.516h-22.808v5.84c-2.414-2.011-4.969-3.672-7.664-4.98-2.7-1.3-6.418-1.953-11.165-1.953-4.707 0-9.335 1.164-13.867 3.484-4.543 2.336-8.269 5.957-11.203 10.89-2.918 4.923-4.383 11.134-4.383 18.614 0 5.879 1.106 11.387 3.313 16.535 2.207 5.137 5.664 9.317 10.371 12.527 4.707 3.215 10.469 4.825 17.293 4.825 4.238 0 7.676-.469 10.305-1.395 2.632-.937 4.961-2.12 7-3.566v27.148h22.808V20.937M736.637 59.063c0 4.132-1.035 7.43-3.086 9.89-2.071 2.473-5.039 3.703-8.906 3.703-3.848 0-6.934-1.25-9.297-3.758-2.364-2.511-3.555-5.793-3.555-9.836zm21.406-11.25h-45.605c.878-3.946 3.066-7.176 6.542-9.676 3.477-2.512 7.422-3.762 11.836-3.762 7.735 0 16.25 2.168 25.586 6.492V26.7c-3.339-1.738-7.402-3.32-12.168-4.726-4.765-1.414-10.839-2.13-18.203-2.13-7.968 0-14.746 1.485-20.332 4.442-5.586 2.961-9.785 6.977-12.558 12.055-2.774 5.078-4.161 10.828-4.161 17.254 0 6.347 1.387 12.031 4.161 17.043 2.773 5.008 6.972 8.941 12.558 11.804 5.586 2.852 12.364 4.278 20.332 4.278 5.254 0 10.313-1.133 15.215-3.39 4.883-2.263 8.906-5.958 12.07-11.09 3.145-5.13 4.727-11.75 4.727-19.868v-4.558M826.051 82.11l-8.438-22.84c-3.476 3.3-6.992 4.949-10.547 4.949-3.203 0-5.996-1.094-8.339-3.282-2.344-2.187-4.61-6.218-6.758-12.117V20.937h-22.813v64.688h22.813V70.039c1.426 3.828 3.965 7.57 7.617 11.211 3.633 3.644 7.91 5.469 12.812 5.469 2.579 0 4.844-.38 6.758-1.133 1.934-.762 4.239-1.926 6.895-3.477M887.906 95.938h42.5v-9.532h-31.718V63.437h30.781V53.75h-30.781V30.469H931.5v-9.531h-43.594v75M962.711 95.938h9.844v-75h-9.844v75M1015.07 50.625h24.85c-.26 3.945-1.41 6.992-3.48 9.14-2.09 2.13-4.86 3.204-8.38 3.204-3.49 0-6.37-1.074-8.61-3.203-2.23-2.149-3.69-5.196-4.38-9.141zm34.53-5.781h-34.68c.25-4.774 1.83-8.574 4.74-11.395 2.89-2.824 6.66-4.23 11.25-4.23 6.43 0 12.35 1.972 17.76 5.937v-9.472c-2.99-1.985-5.98-3.399-8.93-4.246-2.95-.852-6.41-1.282-10.37-1.282-5.43 0-9.82 1.133-13.18 3.39-3.36 2.267-6.06 5.302-8.09 9.13-2.01 3.816-3.03 8.242-3.03 13.261 0 7.54 2.13 13.672 6.41 18.387 4.26 4.719 9.78 7.082 16.58 7.082 6.56 0 11.8-2.293 15.69-6.883 3.9-4.59 5.85-10.734 5.85-18.437v-1.242M1118.2 32.344v-9.617c-4.94-1.82-9.77-2.727-14.47-2.727-7.78 0-13.97 2.297-18.6 6.894-4.63 4.598-6.93 10.762-6.93 18.489 0 7.793 2.24 14.082 6.78 18.855 4.51 4.778 10.44 7.168 17.81 7.168 2.56 0 4.86-.246 6.91-.722 2.03-.489 4.55-1.399 7.56-2.723V57.5c-5.02 3.223-9.65 4.844-13.93 4.844-4.47 0-8.12-1.563-10.99-4.688-2.87-3.125-4.3-7.11-4.3-11.953 0-5.098 1.54-9.14 4.63-12.137 3.09-3 7.25-4.504 12.48-4.504 3.79 0 8.13 1.094 13.05 3.282M1143.22 62.531l18.44 18.094V70.312h15.46v-8.75h-15.46V37.267c0-5.684 2.32-8.516 6.95-8.516 3.47 0 7.15 1.145 11.01 3.438v-9.044c-3.75-2.097-7.83-3.144-12.24-3.144-4.47 0-8.17 1.309-11.13 3.926-.92.793-1.7 1.68-2.31 2.668-.61.984-1.11 2.285-1.52 3.875-.41 1.601-.61 4.64-.61 9.133v21.96h-8.59v.97M1218.08 70.313V59.081l.55.86c4.74 7.636 9.51 11.464 14.26 11.464 3.71 0 7.57-1.863 11.6-5.605l-5.18-8.614c-3.42 3.223-6.58 4.844-9.51 4.844-3.16 0-5.92-1.504-8.22-4.52-2.33-3.007-3.5-6.574-3.5-10.702V20.938h-9.84v49.374h9.84M1272.4 70.313h9.84V20.937h-9.84zm4.92 20.78c1.6 0 2.99-.558 4.14-1.667 1.13-1.114 1.72-2.473 1.72-4.082 0-1.582-.59-2.942-1.72-4.094-1.15-1.14-2.54-1.719-4.14-1.719-1.5 0-2.83.586-3.99 1.75-1.15 1.16-1.71 2.52-1.71 4.063 0 1.504.56 2.84 1.71 4.004 1.16 1.16 2.49 1.746 3.99 1.746M1354.29 32.344v-9.617c-4.94-1.82-9.76-2.727-14.47-2.727-7.77 0-13.97 2.297-18.59 6.894-4.63 4.598-6.94 10.762-6.94 18.489 0 7.793 2.25 14.082 6.78 18.855 4.51 4.778 10.45 7.168 17.81 7.168 2.56 0 4.87-.246 6.92-.722 2.03-.489 4.55-1.399 7.55-2.723V57.5c-5.02 3.223-9.64 4.844-13.92 4.844-4.47 0-8.13-1.563-11-4.688-2.87-3.125-4.29-7.11-4.29-11.953 0-5.098 1.54-9.14 4.62-12.137 3.09-3 7.25-4.504 12.49-4.504 3.78 0 8.12 1.094 13.04 3.282" style="fill:#231f20;fill-opacity:1;fill-rule:nonzero;stroke:none" transform="matrix(.13333 0 0 -.13333 0 88.08)"/><path d="M6.348 198.555H1354.25" style="fill:none;stroke:#231f20;stroke-width:7.4749999;stroke-linecap:butt;stroke-linejoin:miter;stroke-miterlimit:4;stroke-dasharray:none;stroke-opacity:1" transform="matrix(.13333 0 0 -.13333 0 88.08)"/><path d="m241.926 291.145-47.973 85.527h173.305l-87.031 184.355-127.59-269.882H0l199.844 364.296h160.769l198.371-364.296H241.926M559.734 502.773h190.243c47.968 0 67.109 2.969 67.109 36.883 0 32.473-15.469 36.157-64.902 36.157h-193.2l-42.793 79.628h268.454c126.875 0 174.043-55.343 174.043-114.308 0-56.797-43.497-119.461-182.852-119.461h-63.477V291.145H558.984v211.628h.75" style="fill:#e51635;fill-opacity:1;fill-rule:nonzero;stroke:none" transform="matrix(.13333 0 0 -.13333 0 88.08)"/><path d="M1356.21 318.418c-45.73-21.387-102.5-31.727-162.99-31.727-182.89 0-245.568 101.786-245.568 185.86 0 106.16 92.908 188.047 252.968 188.047 58.24 0 109.12-8.828 151.88-25.071V530.07c-44.22 23.582-82.58 33.926-127.58 33.926-76.7 0-139.38-34.648-139.38-89.953 0-54.59 64.16-90 140.86-90 44.28 0 80.39 8.84 129.81 31.719v-97.344" style="fill:#e51635;fill-opacity:1;fill-rule:nonzero;stroke:none" transform="matrix(.13333 0 0 -.13333 0 88.08)"/><path d="M1379.17 631.152c-1.47 0-2.27.762-2.27 2.09v.227c0 1.316.8 2.031 2.27 2.031h21.6c1.47 0 2.21-.715 2.21-2.031v-.227c0-1.328-.74-2.09-2.21-2.09h-8.35v-24.148c0-1.457-.75-2.219-2.17-2.219h-.66c-1.37 0-2.08.762-2.08 2.219v24.148h-8.34M1407.2 607.004V633c0 1.648 1.09 2.695 2.79 2.695h1.26c1.9 0 2.42-.715 3.17-2.453l7.22-16.289 7.26 16.289c.76 1.789 1.33 2.453 3.12 2.453h1.18c1.75 0 2.88-1.047 2.88-2.695v-25.996c0-1.457-.62-2.219-2.03-2.219h-.67c-1.36 0-1.92.762-1.92 2.219v22.41l-6.76-15.195c-.51-1.231-1.03-2.071-3.1-2.071-2.13 0-2.55.84-3.12 2.071l-6.66 15.058v-22.273c0-1.457-.57-2.219-1.98-2.219h-.75c-1.32 0-1.89.762-1.89 2.219" style="fill:#231f20;fill-opacity:1;fill-rule:nonzero;stroke:none" transform="matrix(.13333 0 0 -.13333 0 88.08)"/></svg>