<svg xmlns="http://www.w3.org/2000/svg" fill="none" viewBox="0 0 2506 500"><g fill="#212121" clip-path="url(#a)"><path fill-rule="evenodd" d="M464.957 12h-428c-13.273 0-24 10.727-24 24v428c0 13.273 10.727 24 24 24h428c13.273 0 24-10.727 24-24V36c0-13.273-10.727-24-24-24Zm0-12h-428c-19.9 0-36 16.1-36 36v428c0 19.9 16.1 36 36 36h428c19.9 0 36-16.1 36-36V36c0-19.9-16.1-36-36-36Z" clip-rule="evenodd"/><path fill-rule="evenodd" d="M255.464 77.568a5.739 5.739 0 0 0-8.077.068L59.909 267.338a3.282 3.282 0 0 0-.952 2.308c0 1.798 1.474 3.309 3.357 3.309h40.841v139.288c0 .941.775 1.757 1.797 1.757h292.966c1.022 0 1.797-.816 1.797-1.757V272.955h40.975c.886 0 1.73-.345 2.355-.951a3.275 3.275 0 0 0 .059-4.657l-43.389-44.255v-69.411c0-.941-.775-1.757-1.797-1.757h-32.493c-1.022 0-1.797.816-1.797 1.757v32.806L255.523 77.626a2.497 2.497 0 0 0-.059-.058ZM238.852 69.2c6.85-6.931 18.037-7.025 25.003-.212l.183.181 87.59 88.203v-3.692c0-7.627 6.207-13.757 13.797-13.757h32.493c7.591 0 13.797 6.13 13.797 13.757v64.51l39.958 40.755c5.937 6.056 5.814 15.765-.271 21.67a15.385 15.385 0 0 1-10.712 4.339h-28.975v127.288c0 7.627-6.206 13.757-13.797 13.757H104.952c-7.59 0-13.797-6.13-13.797-13.757V284.955H62.314c-8.452 0-15.357-6.825-15.357-15.309a15.28 15.28 0 0 1 4.417-10.743L238.852 69.2Z" clip-rule="evenodd"/><path d="M304.425 249.534a14.931 14.931 0 0 0 1.461-6.465c0-8.281-6.712-14.994-14.993-14.994s-14.993 6.713-14.993 14.994c0 8.281 6.712 14.995 14.993 14.995 2.315 0 4.507-.525 6.464-1.462l21.524 21.525v20.849l-26.988 26.99v-19.775c5.823-2.058 9.995-7.612 9.995-14.141 0-8.281-6.713-14.994-14.993-14.994-8.281 0-14.994 6.713-14.994 14.994 0 6.529 4.173 12.083 9.996 14.141v29.771l-24.989 24.99v-146.8l20.524-20.525a14.927 14.927 0 0 0 6.464 1.461c8.281 0 14.993-6.713 14.993-14.994 0-8.281-6.712-14.994-14.993-14.994-8.28 0-14.993 6.713-14.993 14.994 0 2.315.524 4.507 1.461 6.465l-18.454 18.454-18.453-18.454a14.949 14.949 0 0 0 1.461-6.465c0-8.281-6.713-14.994-14.993-14.994-8.281 0-14.994 6.713-14.994 14.994 0 8.281 6.713 14.994 14.994 14.994 2.314 0 4.506-.524 6.464-1.461l20.524 20.525v104.817l-35.984-35.986v-28.772c5.823-2.058 9.995-7.612 9.995-14.14 0-8.281-6.713-14.995-14.993-14.995-8.281 0-14.994 6.714-14.994 14.995 0 6.528 4.173 12.082 9.996 14.14v18.776l-27.988-27.989v-27.772c5.824-2.058 9.996-7.612 9.996-14.141 0-8.281-6.713-14.994-14.993-14.994-8.281 0-14.994 6.713-14.994 14.994 0 6.529 4.173 12.083 9.996 14.141v31.912l30.915 30.917h-17.774c-2.059-5.824-7.612-9.996-14.141-9.996-8.28 0-14.993 6.713-14.993 14.994 0 8.281 6.713 14.994 14.993 14.994 6.529 0 12.082-4.172 14.141-9.996h27.77l43.052 43.054v74.829l-22.99-22.991v-28.772c5.823-2.058 9.995-7.612 9.995-14.14 0-8.281-6.712-14.995-14.993-14.995s-14.993 6.714-14.993 14.995c0 6.528 4.172 12.082 9.995 14.14v18.776l-33.447-33.449a14.934 14.934 0 0 0 1.461-6.465c0-8.281-6.712-14.994-14.993-14.994-8.28 0-14.993 6.713-14.993 14.994 0 8.281 6.713 14.994 14.993 14.994 2.315 0 4.507-.524 6.464-1.461l33.447 33.449h-17.774c-2.058-5.824-7.612-9.996-14.14-9.996-8.281 0-14.994 6.713-14.994 14.994 0 8.281 6.713 14.994 14.994 14.994 6.528 0 12.082-4.172 14.14-9.996h27.77L244.842 420h14.136l28.987-28.989h26.771c2.058 5.824 7.612 9.996 14.14 9.996 8.281 0 14.993-6.713 14.993-14.994 0-8.281-6.712-14.994-14.993-14.994-6.528 0-12.082 4.173-14.14 9.996h-30.911l-26.917 26.919v-32.845l32.057-32.059h51.759c2.059 5.824 7.612 9.996 14.141 9.996 8.28 0 14.993-6.713 14.993-14.994 0-8.281-6.713-14.994-14.993-14.994-6.529 0-12.082 4.172-14.141 9.996h-41.763l29.915-29.917v-24.99l21.523-21.525a14.935 14.935 0 0 0 6.465 1.462c8.28 0 14.993-6.714 14.993-14.995 0-8.281-6.713-14.994-14.993-14.994-8.281 0-14.994 6.713-14.994 14.994 0 2.315.525 4.508 1.462 6.465l-14.456 14.456v-45.764c5.824-2.059 9.996-7.613 9.996-14.141 0-8.281-6.713-14.994-14.994-14.994-8.28 0-14.993 6.713-14.993 14.994 0 6.528 4.172 12.082 9.996 14.141v45.764l-14.456-14.456Zm-129.48 143.477a5.998 5.998 0 1 1 0-11.996 5.998 5.998 0 0 1 0 11.996Zm43.98-44.983a5.997 5.997 0 1 1 0-11.994 5.997 5.997 0 0 1 0 11.994Zm-51.977-6.997a5.997 5.997 0 1 1 0-11.995 5.997 5.997 0 0 1 0 11.995Zm-4.998-49.98a5.998 5.998 0 1 1 .002-11.996 5.998 5.998 0 0 1-.002 11.996Zm124.945 6.997a5.998 5.998 0 1 1 0-11.996 5.998 5.998 0 0 1 0 11.996Zm67.97 45.982a5.997 5.997 0 1 1-.001-11.995 5.997 5.997 0 0 1 .001 11.995Zm-25.989 47.981a5.997 5.997 0 1 1 0-11.995 5.997 5.997 0 0 1 0 11.995Zm27.988-142.944a5.997 5.997 0 1 1-.001-11.995 5.997 5.997 0 0 1 .001 11.995Zm-32.986-38.985a5.997 5.997 0 0 1 0-11.995 5.997 5.997 0 1 1 0 11.995Zm-39.982-23.99a5.998 5.998 0 1 1 .002-11.996 5.998 5.998 0 0 1-.002 11.996Zm-63.971 0a5.997 5.997 0 1 1-.001-11.995 5.997 5.997 0 0 1 .001 11.995Zm-51.977 22.991a5.998 5.998 0 1 1 0-11.996 5.998 5.998 0 0 1 0 11.996Zm37.983 36.985a5.998 5.998 0 1 1 0-11.996 5.998 5.998 0 0 1 0 11.996Zm84.962 2.999a5.997 5.997 0 1 1 0-11.995 5.997 5.997 0 0 1 0 11.995Z"/></g><path fill="#212121" d="M767.813 345.556h-25.329v-88.337h-96.329v88.337h-25.198V154.444h25.198v82.168h96.329v-82.168h25.329v191.112ZM802.329 273.233c0-13.914 2.712-26.427 8.136-37.54 5.512-11.113 13.124-19.689 22.836-25.727 9.799-6.038 20.954-9.057 33.466-9.057 19.336 0 34.953 6.695 46.852 20.083 11.986 13.388 17.98 31.196 17.98 53.422v1.706c0 13.826-2.669 26.252-8.006 37.278-5.25 10.938-12.818 19.47-22.704 25.595-9.799 6.126-21.086 9.188-33.86 9.188-19.248 0-34.866-6.694-46.852-20.082-11.899-13.389-17.848-31.108-17.848-53.16v-1.706Zm24.41 2.887c0 15.751 3.631 28.396 10.893 37.934 7.349 9.538 17.148 14.307 29.397 14.307 12.337 0 22.136-4.813 29.398-14.438 7.261-9.713 10.892-23.277 10.892-40.69 0-15.576-3.718-28.177-11.155-37.803-7.349-9.713-17.148-14.569-29.397-14.569-11.987 0-21.655 4.769-29.004 14.307s-11.024 23.189-11.024 40.952ZM984.881 203.535l.657 15.751c10.411-12.251 24.452-18.377 42.132-18.377 19.86 0 33.37 7.613 40.55 22.839 4.72-6.825 10.85-12.338 18.37-16.538 7.61-4.2 16.58-6.301 26.91-6.301 31.14 0 46.98 16.495 47.5 49.485v95.162h-24.28v-93.718c0-10.151-2.31-17.72-6.95-22.708-4.64-5.075-12.43-7.613-23.36-7.613-9.01 0-16.49 2.713-22.44 8.138-5.95 5.338-9.41 12.557-10.37 21.658v94.243h-24.41v-93.062c0-20.651-10.11-30.977-30.32-30.977-15.92 0-26.814 6.782-32.676 20.345v103.694h-24.279V203.535h22.966ZM1256.68 348.181c-19.25 0-34.91-6.3-46.99-18.901-12.07-12.688-18.11-29.621-18.11-50.797v-4.463c0-14.088 2.67-26.645 8.01-37.671 5.42-11.113 12.95-19.776 22.57-25.989 9.71-6.3 20.21-9.451 31.5-9.451 18.46 0 32.81 6.082 43.04 18.245 10.24 12.164 15.36 29.577 15.36 52.241v10.107h-96.2c.35 14.001 4.42 25.333 12.21 33.996 7.87 8.576 17.84 12.863 29.92 12.863 8.57 0 15.83-1.75 21.78-5.25 5.95-3.5 11.16-8.138 15.62-13.913l14.83 11.55c-11.9 18.289-29.75 27.433-53.54 27.433Zm-3.02-127.32c-9.8 0-18.03 3.587-24.68 10.763-6.64 7.088-10.76 17.063-12.33 29.927h71.13v-1.838c-.7-12.338-4.02-21.876-9.97-28.614-5.95-6.826-14-10.238-24.15-10.238ZM1516.27 295.678h-80.06l-17.98 49.878h-25.98l72.96-191.112h22.05l73.1 191.112h-25.85l-18.24-49.878Zm-72.45-20.739h64.97l-32.55-89.387-32.42 89.387ZM1664.96 307.885c0-6.563-2.49-11.638-7.48-15.226-4.9-3.675-13.52-6.825-25.86-9.451-12.24-2.625-22-5.775-29.26-9.45-7.18-3.675-12.51-8.051-16.01-13.126-3.41-5.075-5.12-11.113-5.12-18.114 0-11.638 4.9-21.482 14.7-29.533 9.88-8.05 22.48-12.076 37.79-12.076 16.1 0 29.14 4.157 39.11 12.47 10.07 8.313 15.1 18.945 15.1 31.896h-24.41c0-6.651-2.85-12.382-8.53-17.195-5.6-4.813-12.69-7.219-21.27-7.219-8.83 0-15.74 1.925-20.73 5.775-4.99 3.85-7.48 8.882-7.48 15.095 0 5.863 2.32 10.282 6.95 13.257 4.64 2.975 13 5.819 25.07 8.532 12.16 2.712 22 5.95 29.53 9.713 7.52 3.762 13.08 8.313 16.67 13.651 3.67 5.25 5.51 11.682 5.51 19.295 0 12.688-5.08 22.882-15.23 30.583-10.14 7.613-23.31 11.419-39.5 11.419-11.37 0-21.43-2.012-30.18-6.038-8.75-4.025-15.62-9.625-20.61-16.801-4.9-7.263-7.35-15.094-7.35-23.495h24.28c.44 8.138 3.68 14.614 9.71 19.426 6.13 4.726 14.18 7.088 24.15 7.088 9.19 0 16.54-1.837 22.05-5.513 5.6-3.762 8.4-8.75 8.4-14.963ZM1803.55 307.885c0-6.563-2.5-11.638-7.48-15.226-4.9-3.675-13.52-6.825-25.86-9.451-12.25-2.625-22-5.775-29.26-9.45-7.18-3.675-12.52-8.051-16.01-13.126-3.42-5.075-5.12-11.113-5.12-18.114 0-11.638 4.9-21.482 14.7-29.533 9.88-8.05 22.48-12.076 37.79-12.076 16.1 0 29.14 4.157 39.11 12.47 10.06 8.313 15.09 18.945 15.09 31.896h-24.41c0-6.651-2.84-12.382-8.53-17.195-5.6-4.813-12.68-7.219-21.26-7.219-8.83 0-15.75 1.925-20.73 5.775-4.99 3.85-7.48 8.882-7.48 15.095 0 5.863 2.31 10.282 6.95 13.257 4.64 2.975 12.99 5.819 25.07 8.532 12.16 2.712 22 5.95 29.53 9.713 7.52 3.762 13.08 8.313 16.66 13.651 3.68 5.25 5.52 11.682 5.52 19.295 0 12.688-5.08 22.882-15.23 30.583-10.15 7.613-23.31 11.419-39.5 11.419-11.37 0-21.44-2.012-30.19-6.038-8.74-4.025-15.61-9.625-20.6-16.801-4.9-7.263-7.35-15.094-7.35-23.495h24.28c.44 8.138 3.67 14.614 9.71 19.426 6.13 4.726 14.18 7.088 24.15 7.088 9.19 0 16.54-1.837 22.05-5.513 5.6-3.762 8.4-8.75 8.4-14.963ZM1885.83 345.556h-24.28V203.535h24.28v142.021Zm-26.24-179.693c0-3.937 1.18-7.263 3.54-9.975 2.45-2.713 6.04-4.069 10.76-4.069 4.73 0 8.31 1.356 10.76 4.069 2.45 2.712 3.68 6.038 3.68 9.975 0 3.938-1.23 7.22-3.68 9.845-2.45 2.625-6.03 3.938-10.76 3.938-4.72 0-8.31-1.313-10.76-3.938-2.36-2.625-3.54-5.907-3.54-9.845ZM2007.49 307.885c0-6.563-2.49-11.638-7.48-15.226-4.9-3.675-13.52-6.825-25.85-9.451-12.25-2.625-22.01-5.775-29.27-9.45-7.17-3.675-12.51-8.051-16.01-13.126-3.41-5.075-5.12-11.113-5.12-18.114 0-11.638 4.9-21.482 14.7-29.533 9.89-8.05 22.49-12.076 37.8-12.076 16.1 0 29.13 4.157 39.11 12.47 10.06 8.313 15.09 18.945 15.09 31.896h-24.41c0-6.651-2.85-12.382-8.53-17.195-5.6-4.813-12.69-7.219-21.26-7.219-8.84 0-15.75 1.925-20.74 5.775-4.99 3.85-7.48 8.882-7.48 15.095 0 5.863 2.32 10.282 6.96 13.257 4.63 2.975 12.99 5.819 25.06 8.532 12.16 2.712 22.01 5.95 29.53 9.713 7.53 3.762 13.08 8.313 16.67 13.651 3.67 5.25 5.51 11.682 5.51 19.295 0 12.688-5.07 22.882-15.22 30.583-10.15 7.613-23.32 11.419-39.51 11.419-11.37 0-21.43-2.012-30.18-6.038-8.75-4.025-15.62-9.625-20.6-16.801-4.9-7.263-7.35-15.094-7.35-23.495h24.27c.44 8.138 3.68 14.614 9.72 19.426 6.12 4.726 14.17 7.088 24.14 7.088 9.19 0 16.54-1.837 22.05-5.513 5.6-3.762 8.4-8.75 8.4-14.963ZM2096.34 169.145v34.39h26.51v18.769h-26.51v88.075c0 5.688 1.18 9.976 3.54 12.863 2.37 2.8 6.39 4.2 12.08 4.2 2.8 0 6.65-.525 11.55-1.575v19.689c-6.39 1.75-12.6 2.625-18.64 2.625-10.85 0-19.03-3.281-24.54-9.844-5.51-6.563-8.27-15.882-8.27-27.958v-88.075h-25.85v-18.769h25.85v-34.39h24.28ZM2239 345.556c-1.4-2.8-2.54-7.788-3.42-14.963-11.28 11.725-24.76 17.588-40.42 17.588-14 0-25.5-3.937-34.51-11.813-8.93-7.963-13.39-18.026-13.39-30.189 0-14.789 5.6-26.252 16.8-34.39 11.29-8.226 27.12-12.338 47.51-12.338h23.62v-11.157c0-8.488-2.54-15.226-7.61-20.214-5.08-5.075-12.56-7.613-22.44-7.613-8.66 0-15.93 2.188-21.79 6.563-5.86 4.375-8.79 9.669-8.79 15.882h-24.41c0-7.088 2.49-13.913 7.48-20.476 5.07-6.651 11.9-11.901 20.47-15.751 8.66-3.851 18.16-5.776 28.48-5.776 16.36 0 29.18 4.113 38.45 12.339 9.28 8.138 14.09 19.382 14.44 33.733v65.367c0 13.038 1.66 23.408 4.99 31.108v2.1H2239Zm-40.29-18.507c7.61 0 14.83-1.969 21.65-5.907 6.82-3.938 11.77-9.057 14.83-15.357v-29.14h-19.03c-29.75 0-44.62 8.707-44.62 26.121 0 7.613 2.54 13.563 7.61 17.851 5.08 4.288 11.59 6.432 19.56 6.432ZM2320.5 203.535l.78 17.851c10.85-13.651 25.03-20.477 42.52-20.477 30.01 0 45.15 16.933 45.41 50.797v93.85h-24.28v-93.981c-.08-10.238-2.45-17.807-7.08-22.708-4.55-4.9-11.68-7.35-21.4-7.35-7.87 0-14.78 2.1-20.73 6.3-5.95 4.201-10.59 9.713-13.91 16.539v101.2h-24.28V203.535h22.97ZM2478.77 169.145v34.39h26.51v18.769h-26.51v88.075c0 5.688 1.18 9.976 3.54 12.863 2.36 2.8 6.39 4.2 12.08 4.2 2.8 0 6.65-.525 11.55-1.575v19.689c-6.39 1.75-12.6 2.625-18.64 2.625-10.85 0-19.03-3.281-24.54-9.844-5.51-6.563-8.27-15.882-8.27-27.958v-88.075h-25.85v-18.769h25.85v-34.39h24.28Z"/><defs><clipPath id="a"><path fill="#fff" d="M.957 0h500v500h-500z"/></clipPath></defs></svg>