<svg xmlns="http://www.w3.org/2000/svg" fill="none" viewBox="0 0 240 361"><path fill="#F2F4F9" d="M240 224.762c0 8.25-6.75 15-15 15H15c-8.25 0-15-6.75-15-15v-90c0-8.25 4.77-19.769 10.61-25.609l98.78-98.78c5.83-5.83 15.38-5.83 21.21 0l98.79 98.789c5.83 5.83 10.61 17.36 10.61 25.61v90-.01Z"/><path fill="#18BCF2" d="m229.39 109.153-98.78-98.78c-5.83-5.83-15.38-5.83-21.21 0l-98.79 98.78C4.78 114.983 0 126.512 0 134.762v90c0 8.25 6.75 15 15 15h92.27l-40.63-40.63c-2.09.72-4.32 1.13-6.64 1.13-11.3 0-20.5-9.2-20.5-20.5s9.2-20.5 20.5-20.5 20.5 9.2 20.5 20.5c0 2.33-.41 4.56-1.13 6.65l31.63 31.63v-115.88c-6.8-3.34-11.5-10.32-11.5-18.39 0-11.3 9.2-20.5 20.5-20.5s20.5 9.2 20.5 20.5c0 8.07-4.7 15.05-11.5 18.39v81.27l31.46-31.46c-.62-1.96-.96-4.04-.96-6.2 0-11.3 9.2-20.5 20.5-20.5s20.5 9.2 20.5 20.5-9.2 20.5-20.5 20.5c-2.5 0-4.88-.47-7.09-1.29L129 208.892v30.88h96c8.25 0 15-6.75 15-15v-90c0-8.25-4.77-19.77-10.61-25.61v-.009Z"/><path fill="#F2F4F9" d="M4.08 260h7.144v17.576l18.536.056V260h7.2v42.048h-7.2V283.96l-18.536-.056v18.144H4.08V260ZM57.864 272.856c4.352 0 7.896 1.4 10.632 4.192 2.736 2.792 4.104 6.384 4.104 10.768s-1.368 7.952-4.104 10.744c-2.736 2.792-6.28 4.192-10.632 4.192-4.352 0-7.952-1.4-10.688-4.192-2.736-2.792-4.104-6.376-4.104-10.744 0-4.368 1.368-8 4.104-10.784 2.736-2.784 6.304-4.176 10.688-4.176Zm0 23.768c2.328 0 4.216-.824 5.664-2.464 1.456-1.64 2.176-3.776 2.176-6.4 0-2.624-.728-4.752-2.176-6.368-1.456-1.624-3.344-2.432-5.664-2.432s-4.304.808-5.768 2.432c-1.464 1.624-2.192 3.744-2.192 6.368s.728 4.76 2.192 6.4c1.464 1.64 3.384 2.464 5.768 2.464ZM121.192 283.96v18.088h-6.608v-17.04c0-1.968-.504-3.504-1.52-4.616-1.016-1.112-2.392-1.656-4.136-1.656-1.856 0-3.336.608-4.44 1.816-1.104 1.208-1.656 2.904-1.656 5.08v16.424h-6.696v-17.04c0-1.968-.496-3.504-1.48-4.616-.984-1.112-2.352-1.656-4.096-1.656-1.856 0-3.344.608-4.472 1.816-1.128 1.208-1.688 2.904-1.688 5.08v16.424h-6.808v-28.408h6.328l.224 2.728c1.648-2.416 4.344-3.632 8.072-3.632 2.176 0 4.056.448 5.656 1.352 1.592.896 2.8 2.216 3.632 3.936.696-1.648 1.84-2.944 3.448-3.88 1.608-.936 3.512-1.408 5.72-1.408 3.224 0 5.784.992 7.68 2.984 1.896 1.984 2.84 4.736 2.84 8.24v-.016ZM154.2 290.344h-21.768c.224 2.136 1.032 3.768 2.416 4.896 1.384 1.128 3.152 1.688 5.288 1.688 3.472 0 5.896-1.44 7.288-4.328l5.68 2.248c-1.072 2.496-2.752 4.44-5.048 5.848-2.296 1.408-4.936 2.112-7.92 2.112-4.2 0-7.608-1.376-10.224-4.12-2.616-2.744-3.92-6.352-3.92-10.816s1.32-8.088 3.952-10.888c2.632-2.792 6.08-4.192 10.336-4.192s7.544 1.376 10.096 4.136c2.552 2.76 3.824 6.384 3.824 10.888v2.528Zm-21.656-4.784h14.736c-.128-2.304-.832-4.064-2.096-5.272-1.264-1.208-2.968-1.816-5.104-1.816s-3.84.616-5.176 1.84c-1.328 1.232-2.12 2.976-2.36 5.248ZM26.832 349.856h-16l-3.456 9.784H0l15.184-42.048h7.368l15.216 42.048h-7.536l-3.4-9.784Zm-2.08-6.048-5.88-16.816-5.936 16.816h11.816ZM51.12 354.92c1.408 0 2.52-.28 3.336-.832.816-.552 1.224-1.376 1.224-2.464 0-1.52-1.024-2.528-3.064-3.04l-3.912-1.04c-5.384-1.464-8.072-4.232-8.072-8.296 0-2.608.944-4.736 2.84-6.384 1.896-1.648 4.44-2.472 7.648-2.472 2.872 0 5.272.656 7.216 1.968 1.944 1.312 3.128 3.112 3.56 5.4l-6.104 1.432c-.128-1.032-.608-1.848-1.424-2.448-.816-.6-1.824-.896-3.024-.896s-2.2.304-2.952.912c-.752.608-1.128 1.4-1.128 2.376 0 .784.28 1.44.84 1.968.56.528 1.432.944 2.616 1.264l3.856.96c2.568.696 4.528 1.744 5.88 3.152 1.352 1.408 2.024 3.144 2.024 5.2 0 2.664-1 4.784-3.008 6.36-2.008 1.576-4.768 2.36-8.296 2.36-3.264 0-5.88-.72-7.848-2.152-1.968-1.432-3.128-3.368-3.488-5.808l6.216-1.096c.112 1.128.616 2 1.504 2.632.888.632 2.08.944 3.56.944ZM76.92 354.92c1.408 0 2.52-.28 3.336-.832.816-.552 1.224-1.376 1.224-2.464 0-1.52-1.024-2.528-3.064-3.04l-3.912-1.04c-5.384-1.464-8.072-4.232-8.072-8.296 0-2.608.944-4.736 2.84-6.384 1.896-1.648 4.44-2.472 7.648-2.472 2.872 0 5.272.656 7.216 1.968 1.944 1.312 3.128 3.112 3.56 5.4l-6.104 1.432c-.128-1.032-.608-1.848-1.424-2.448-.816-.6-1.824-.896-3.024-.896s-2.2.304-2.952.912c-.752.608-1.128 1.4-1.128 2.376 0 .784.28 1.44.84 1.968.56.528 1.432.944 2.616 1.264l3.856.96c2.568.696 4.528 1.744 5.88 3.152 1.352 1.408 2.024 3.144 2.024 5.2 0 2.664-1 4.784-3.008 6.36-2.008 1.576-4.768 2.36-8.296 2.36-3.264 0-5.88-.72-7.848-2.152-1.968-1.432-3.128-3.368-3.488-5.808l6.216-1.096c.112 1.128.616 2 1.504 2.632.888.632 2.08.944 3.56.944ZM92.6 321.4c0-1.216.416-2.24 1.248-3.064.832-.824 1.848-1.24 3.048-1.24s2.192.424 3.024 1.264c.832.84 1.248 1.856 1.248 3.04s-.416 2.2-1.248 3.048c-.832.856-1.84 1.28-3.024 1.28s-2.192-.424-3.04-1.28c-.848-.856-1.264-1.872-1.264-3.048h.008Zm7.704 9.84v28.408h-6.808V331.24h6.808ZM116.776 354.92c1.408 0 2.52-.28 3.336-.832.816-.552 1.224-1.376 1.224-2.464 0-1.52-1.024-2.528-3.064-3.04l-3.912-1.04c-5.384-1.464-8.072-4.232-8.072-8.296 0-2.608.944-4.736 2.84-6.384 1.896-1.648 4.44-2.472 7.648-2.472 2.872 0 5.272.656 7.216 1.968 1.944 1.312 3.128 3.112 3.56 5.4l-6.104 1.432c-.128-1.032-.608-1.848-1.424-2.448-.816-.6-1.824-.896-3.024-.896s-2.2.304-2.952.912c-.752.608-1.128 1.4-1.128 2.376 0 .784.28 1.44.84 1.968.56.528 1.432.944 2.616 1.264l3.856.96c2.568.696 4.528 1.744 5.88 3.152 1.352 1.408 2.024 3.144 2.024 5.2 0 2.664-1 4.784-3.008 6.36-2.008 1.576-4.768 2.36-8.296 2.36-3.264 0-5.88-.72-7.848-2.152-1.968-1.432-3.128-3.368-3.488-5.808l6.216-1.096c.112 1.128.616 2 1.504 2.632.888.632 2.08.944 3.56.944ZM148.464 359.648c-1.952.432-3.6.648-4.952.648-2.872 0-5.104-.784-6.704-2.36-1.6-1.576-2.408-3.92-2.408-7.032v-13.896h-4.36v-5.768h4.36v-8.856h6.752v8.856h6.552v5.768h-6.552v12.688c0 3.072 1.192 4.616 3.568 4.616.768 0 1.728-.2 2.872-.592l.872 5.936v-.008ZM171.256 359.648c-.224-.92-.384-2-.48-3.232-.824 1.216-1.992 2.192-3.504 2.912-1.512.72-3.256 1.08-5.248 1.08-3.112 0-5.608-.832-7.48-2.488-1.872-1.656-2.816-3.904-2.816-6.736s.92-4.944 2.768-6.512c1.848-1.568 4.376-2.352 7.576-2.352h8.52v-1.096c0-1.784-.52-3.112-1.56-3.992-1.04-.88-2.496-1.32-4.376-1.32-3.32 0-5.696 1.384-7.144 4.16l-4.952-2.896c2.4-4.52 6.552-6.776 12.456-6.776 3.584 0 6.512.92 8.8 2.76 2.304 1.856 3.456 4.848 3.456 8.968v11.304c0 3.208.168 5.28.504 6.216h-6.552.032Zm-.592-12.632h-7c-1.592 0-2.832.368-3.712 1.096-.88.728-1.32 1.736-1.32 3.008s.448 2.344 1.352 3.04c.904.696 2.184 1.04 3.856 1.04 2.008 0 3.648-.632 4.92-1.896 1.272-1.264 1.912-3.144 1.912-5.64v-.648h-.008ZM210 342.128v17.52h-6.776v-16.056c0-2.704-.64-4.544-1.912-5.544-1.216-.992-2.64-1.488-4.272-1.488-1.968 0-3.608.632-4.92 1.888-1.312 1.256-1.968 3.048-1.968 5.368v15.832h-6.808V331.24h6.384l.224 3.064c.808-1.2 1.976-2.152 3.512-2.856 1.536-.704 3.216-1.056 5.032-1.056 3.672 0 6.512 1.016 8.504 3.048s2.992 4.928 2.992 8.68l.008.008ZM231.728 359.648c-1.952.432-3.6.648-4.952.648-2.872 0-5.104-.784-6.704-2.36-1.6-1.576-2.408-3.92-2.408-7.032v-13.896h-4.36v-5.768h4.36v-8.856h6.752v8.856h6.552v5.768h-6.552v12.688c0 3.072 1.192 4.616 3.568 4.616.768 0 1.728-.2 2.872-.592l.872 5.936v-.008Z"/></svg>