<svg xmlns="http://www.w3.org/2000/svg" xmlns:xlink="http://www.w3.org/1999/xlink" viewBox="0 0 1200 630"><path fill="#03a9f4" d="M0 630h1200V0H0Z"/><defs><text id="a" x="1" y="118" fill="#fff" font-family="Roboto-Regular, Roboto" font-size="127.012" text-decoration="none" transform="translate(242.188 239.938)">Home Assistant</text></defs><use xlink:href="#a"/><g fill="#fff"><path d="m49.191 337.088.513 9.368q0 .77-.128 2.823 0 2.053-1.54 3.721-1.412 1.54-3.593 1.54-2.053 0-3.208-.128-4.235 0-4.235-3.721 0-3.08 2.823-24.767 2.823-21.816 3.593-28.104t1.284-10.523q.641-4.363.898-6.416t.77-4.106q.513-2.054 1.54-3.337Q49.833 271 55.351 271q9.239 4.62 18.992 26.179 6.93 15.399 9.239 19.505 2.31 4.107 4.492 5.646l25.665-44.657q2.695-1.925 4.106-1.925 4.107 0 6.288 3.722 2.182 3.721 3.594 9.111 1.54 5.261 2.566 11.677 1.155 6.417 1.925 13.475.898 6.929 1.668 13.602 1.797 16.041 2.695 20.147 1.027 4.107 1.027 5.903 0 1.669-1.155 3.337-1.155 1.54-3.208 1.54-2.054 0-4.107-1.54-2.053-1.668-2.566-3.978-.385-2.438-.899-6.288-.385-3.85-1.026-8.598-.642-4.876-1.283-10.138-.642-5.39-1.284-10.266-.641-4.876-1.155-8.598l-.77-5.774q0-2.567-.128-4.749-.128-2.181-1.027-2.694-.898-.514-2.823 1.283-1.796 1.668-5.133 6.93-7.186 11.164-20.789 37.599-1.796 3.208-4.748 1.412-3.465-1.925-5.903-9.881l-23.612-50.176q-3.08 6.16-5.646 40.808-.385 4.235-.513 7.186-.642 3.208-.642 6.288ZM172.769 406.897q-2.695 6.032-6.416 6.032-1.797 0-2.695-1.669-.77-1.539 0-3.721 2.823-11.934 8.084-27.205 5.39-15.271 7.187-20.532-4.492-4.492-14.116-17.966-19.762-27.718-19.762-30.413 0-.129.128-.257l4.876-4.876q10.138 9.368 26.436 31.825 4.106 5.646 6.544 9.496 2.695-5.39 4.235-9.24 1.54-3.978 2.438-6.288 1.027-2.438 2.695-6.416 4.363-10.651 12.063-27.077 1.155-.513 2.438-.513 3.208 0 4.62 1.668.513.642.513 1.54 0 .77-.257 1.54Z"/><path d="M41.301 374.928h116.39c3.254 0 6.634.594 6.634 3.849 0 3.254-3.38 7.929-6.634 7.901l-115.883-1.014c-3.254-.028-4.608-1.606-4.608-4.861s.847-5.875 4.101-5.875Z"/></g></svg>