<svg xmlns="http://www.w3.org/2000/svg" xml:space="preserve" id="Layer_1" x="0" y="0" style="enable-background:new 0 0 50 50" version="1.1" viewBox="0 0 50 50"><style>.st0{fill:#a0a1a2}.st1{fill:#7a7a7a}.st2{fill:#3e3e3e}.st6{fill:#fff}</style><path d="m12.8 20.1 12-4.8V1.1L12.7 6z" class="st0"/><path d="M36.7 5.4 24.8 1.1V25l11.9-4.9z" class="st1"/><path d="M36.7 20.1 24.8 25l-12-4.9 12-4.7z" class="st2"/><path d="m0 40.6 12.1-4.7V21.6L0 27.7z" class="st0"/><path d="m24 27-11.9-5.4v.2L12 45.5l12-4.9z" class="st1"/><path d="m24 40.6-11.9 4.9L0 40.6l12.1-4.7z" class="st2"/><path d="m26 40.6 12.1-4.7V21.6L26 27.1z" style="fill:#e5e5e5"/><path d="m50 27-11.9-5.4v.2L38 45.5l12-4.9z" class="st0"/><path d="m50 40.6-11.9 4.9L26 40.6l12.1-4.7z" style="fill:#0070c9"/><path d="M44.8 38.8H31.3c-.7 0-1.3-.6-1.3-1.3v-8.7c0-.7.5-1.2 1.2-1.2h13.5c.7 0 1.3.6 1.3 1.3v8.6c.1.7-.5 1.3-1.2 1.3z" style="fill:#000e92"/><path d="m35.8 37.8-4.5-4.5 4.6-4.4.9.9-3.8 3.5 3.6 3.7zM40.1 37.8l4.5-4.5-4.6-4.4-.8.9 3.7 3.5-3.6 3.7z" class="st6"/><path d="M40.6 27.6h-9.4c-.7 0-1.1.7-1.1 1.2v8.8c0 .5.5 1.2 1.2 1.2h3.6l5.7-11.2z" style="opacity:.25;fill:#fff;enable-background:new"/><path d="m31.1 27.6 6.6-1.6 7 1.6z" style="opacity:.2;fill:#3e3e3e"/></svg>