<svg xmlns="http://www.w3.org/2000/svg" xml:space="preserve" style="enable-background:new 0 0 226.9 230" viewBox="0 0 226.9 230"><style>.st0{fill:#fff}</style><g id="Layer_2"><path d="M36.5 134.3 82.8 161c.2.1.5.1.6 0l19.4-11.2L47 117.5c-2.3-1.3-3.8-3.8-3.8-6.5V56.4c-9.5 3.5-17.4 10.2-22.4 18.9-11.9 20.7-4.8 47 15.7 59z" class="st0"/><path d="M58.6 112 78 123.2V58.7c0-2.7 1.4-5.2 3.8-6.5l45.8-26.5 1.4-.8c-7.7-6.5-17.5-10-27.6-10-23.8 0-43.1 19.3-43.1 43.1v53.4c0 .3.1.5.3.6z" class="st0"/><path d="m88.5 129.3 24.9 14.4 24.9-14.4v-28.7l-24.9-14.4-24.9 14.4z" class="st0"/><path d="M138.3 163.8v-22.4l-55.9 32.3c-2.3 1.3-5.2 1.3-7.5 0L29 147.3l-1.4-.8c-1.7 9.9.1 20.1 5.2 28.9C44.7 196 71.1 203 91.7 191.2l46.3-26.7c.2-.2.3-.5.3-.7zM88.5 66.1v22.3l55.9-32.3c2.3-1.3 5.2-1.3 7.5 0l45.8 26.5c.4.2 1 .6 1.3.8 1.7-9.9-.1-20-5.1-28.7C182 34 155.7 26.9 135.1 38.8L88.8 65.5c-.2.1-.3.3-.3.6z" class="st0"/><path d="m190.2 95.6-46.3-26.7c-.2-.1-.5-.1-.7.1l-19.3 11.2 55.9 32.3c2.3 1.3 3.7 3.8 3.7 6.5v54.5c9.5-3.5 17.5-10.2 22.6-19 11.8-20.7 4.7-47.1-15.9-58.9z" class="st0"/><path d="m168.1 117.9-19.3-11.2v64.5c0 2.7-1.4 5.2-3.8 6.5l-45.8 26.5-1.4.8c7.7 6.5 17.5 10 27.6 10 23.8 0 43-19.3 43.1-43.1v-53.5c0-.2-.2-.4-.4-.5z" class="st0"/></g><path id="Layer_1" d="M211.9 94.1c5.2-15.6 3.4-32.8-4.9-47-12.6-21.8-37.8-33.1-62.4-27.8C133.6 6.9 117.9-.1 101.4 0 76.2-.1 53.8 16.2 46.1 40.1 29.9 43.5 16 53.6 7.8 67.9c-12.6 21.8-9.7 49.2 7.1 67.9-5.2 15.7-3.4 32.8 4.9 47 12.5 21.8 37.8 33.1 62.4 27.8 11 12.3 26.7 19.4 43.2 19.3 25.2.1 47.5-16.2 55.3-40.1 16.2-3.3 30.1-13.4 38.3-27.8 12.7-21.8 9.8-49.2-7.1-67.9zm-86.4 120.8c-10.1 0-19.9-3.5-27.6-10l1.4-.8 45.8-26.5c2.3-1.3 3.8-3.8 3.8-6.5v-64.5l19.4 11.2c.2.1.4.3.4.5v53.5c-.2 23.8-19.5 43.1-43.2 43.1zm-92.6-39.6c-5-8.7-6.9-18.9-5.1-28.9l1.4.8L75 173.7c2.3 1.3 5.2 1.3 7.5 0l55.9-32.3v22.4c0 .2-.1.5-.3.6l-46.3 26.7c-20.7 11.9-47 4.8-58.9-15.8zm-12-100c5-8.7 13-15.4 22.4-18.9V111c0 2.7 1.4 5.2 3.8 6.5l55.9 32.3L83.6 161c-.2.1-.4.1-.6 0l-46.3-26.7C16 122.3 9 96 20.9 75.3zm159 37L124 80.1l19.3-11.2c.2-.1.4-.1.6-.1l46.3 26.7c20.6 11.9 27.7 38.2 15.8 58.9-5.1 8.8-13 15.5-22.6 19v-54.5c.2-2.7-1.2-5.2-3.5-6.6zm19.3-29c-.3-.2-.9-.6-1.4-.8L152 56.1c-2.3-1.3-5.2-1.3-7.5 0l-56 32.3V66.1c0-.2.1-.5.3-.6l46.3-26.7c20.6-11.9 47-4.8 58.9 15.8 5 8.7 6.8 18.9 5.2 28.7zM78.1 123.2 58.7 112c-.2-.1-.3-.3-.4-.5V58.1c0-23.8 19.3-43.1 43.1-43.1 10.1 0 19.8 3.5 27.6 10l-1.4.8-45.8 26.4C79.5 53.5 78 56 78 58.7l.1 64.5zm10.4-22.6 24.9-14.4 24.9 14.4v28.8l-24.9 14.4-24.9-14.4v-28.8z" style="fill:#000002"/></svg>