<svg xmlns="http://www.w3.org/2000/svg" data-name="fluent_icons" viewBox="0 0 18 18"><defs><linearGradient id="a" x1="6.73" x2="6.73" y1="9.59" y2=".95" gradientUnits="userSpaceOnUse"><stop offset="0" stop-color="#0078d4"/><stop offset="1" stop-color="#5ea0ef"/></linearGradient></defs><path fill="#949494" d="m15.46 9.49 1.87-1.9c.15-.16.1-.29-.12-.29h-.94a.23.23 0 0 1-.27-.24c0-1.18-.3-4.47-4.8-4.59a.23.23 0 0 0-.2.23v1.17a.24.24 0 0 0 .25.23 2.75 2.75 0 0 1 3.33 3 .23.23 0 0 1-.23.23h-.87c-.22 0-.28.13-.13.29l1.74 1.9a.22.22 0 0 0 .37-.03Z"/><rect width="12.46" height="8.64" x=".5" y=".95" fill="url(#a)" rx=".57"/><path fill="#83b9f9" d="M1.07.95h11.48a.41.41 0 0 1 .41.41V3H.5V1.51a.57.57 0 0 1 .57-.56Z"/><rect width="7.92" height="5.49" x="9.58" y="11.56" fill="#005ba1" rx=".36"/><path fill="#fff" d="M2.29 3.8h8.87a.19.19 0 0 1 .19.18v.92a.19.19 0 0 1-.19.18H2.29a.19.19 0 0 1-.19-.18V4a.19.19 0 0 1 .19-.2Zm.01 1.84h8.87a.19.19 0 0 1 .19.18v.93a.19.19 0 0 1-.19.17H2.3a.18.18 0 0 1-.19-.17v-.93a.18.18 0 0 1 .19-.18Zm0 1.86h8.87a.19.19 0 0 1 .19.18v.92a.19.19 0 0 1-.19.18H2.3a.18.18 0 0 1-.19-.18v-.92a.18.18 0 0 1 .19-.18Z"/><rect width="7.92" height="5.49" x="8.27" y="10.38" fill="#0078d4" rx=".36"/><path fill="#83b9f9" d="M8.63 10.38h7.3a.26.26 0 0 1 .26.26v1H8.27v-.95a.36.36 0 0 1 .36-.31Z"/><path fill="#fff" d="M9.41 12.19h5.64a.12.12 0 0 1 .12.11v.59a.12.12 0 0 1-.12.12H9.41a.12.12 0 0 1-.12-.12v-.59a.11.11 0 0 1 .12-.11Zm0 1.17h5.64a.12.12 0 0 1 .12.12v.59a.11.11 0 0 1-.12.11H9.41a.12.12 0 0 1-.12-.11v-.59a.12.12 0 0 1 .12-.12Zm0 1.18h5.64a.12.12 0 0 1 .12.12v.59a.11.11 0 0 1-.12.11H9.41a.12.12 0 0 1-.12-.11v-.59a.12.12 0 0 1 .12-.12Z"/></svg>