<svg xmlns="http://www.w3.org/2000/svg" data-name="fluent_icons" viewBox="0 0 18 18"><defs><linearGradient id="a" x1="1.24" x2="17.44" y1="8.65" y2="8.65" gradientUnits="userSpaceOnUse"><stop offset=".1" stop-color="#54aef0"/><stop offset="1" stop-color="#1988d9"/></linearGradient></defs><path fill="url(#a)" d="m1.41 1.52 15.06 15.06a.57.57 0 0 0 1-.4V1.12a.56.56 0 0 0-.57-.57H1.81a.57.57 0 0 0-.4.97Z"/><path fill="#50e6ff" d="m5.47 5.58 6.94 6.94 5-5v-6.4a.56.56 0 0 0-.57-.57H10.5Z" data-name="Path 2"/><rect width="9.37" height="1.7" x="-.44" y="12.9" fill="#86d633" data-name="Rectangle 1" rx=".27" transform="rotate(-45 4.246 13.751)"/><rect width="5.99" height="1.7" x=".06" y="9.28" fill="#86d633" data-name="Rectangle 2" rx=".27" transform="rotate(-45 3.045 10.129)"/><rect width="5.99" height="1.7" x="4.83" y="14.09" fill="#86d633" data-name="Rectangle 3" rx=".27" transform="rotate(-45 7.827 14.938)"/><rect width="1.7" height="1.7" x="9.13" y="4.8" fill="#fff" data-name="Rectangle 4" rx=".38" transform="rotate(-45 9.979 5.647)"/><rect width="1.7" height="1.7" x="11.53" y="2.4" fill="#fff" data-name="Rectangle 5" rx=".38" transform="rotate(-45 12.386 3.25)"/><rect width="1.7" height="1.7" x="11.53" y="7.2" fill="#fff" data-name="Rectangle 6" rx=".38" transform="rotate(-45 12.376 8.054)"/><path fill="#fff" d="m13.85 5.38.66-.66a.38.38 0 0 1 .54 0l.66.66a.38.38 0 0 1 0 .54l-.66.66a.38.38 0 0 1-.54 0l-.66-.66a.38.38 0 0 1 0-.54" data-name="Rectangle 7"/></svg>