<svg xmlns="http://www.w3.org/2000/svg" fill="none" viewBox="0 0 18 18"><g clip-path="url(#a)"><path fill="#4FC2B1" d="M18 16.278H0l3.332-3.149a.584.584 0 0 1 .4-.16H14.68a.588.588 0 0 1 .438.2L18 16.278Z"/><path fill="#5FE8C9" d="M0 16.278h18v.41a.586.586 0 0 1-.586.586H.586A.586.586 0 0 1 0 16.688v-.41Z"/><path fill="url(#b)" d="M17.43 8.21a3.78 3.78 0 0 0-3.29-3.64A4.77 4.77 0 0 0 9.22 0a4.91 4.91 0 0 0-4.68 3.19 4.52 4.52 0 0 0-4 4.35A4.6 4.6 0 0 0 5.32 12h8.31a3.84 3.84 0 0 0 3.8-3.79Z"/><path fill="#F2F2F2" d="M6.36 6.46 9 3.87a.3.3 0 0 1 .43 0L12 6.46a.13.13 0 0 1-.1.23h-1.62a.15.15 0 0 0-.14.14l-.02 5.072a.11.11 0 0 1-.11.11H8.27a.11.11 0 0 1-.11-.11l.02-5.072a.14.14 0 0 0-.13-.14h-1.6a.13.13 0 0 1-.09-.23Z"/></g><defs><linearGradient id="b" x1="9" x2="9" y1="11.95" y2="0" gradientUnits="userSpaceOnUse"><stop stop-color="#0078D4"/><stop offset=".16" stop-color="#1380DA"/><stop offset=".53" stop-color="#3C91E5"/><stop offset=".82" stop-color="#559CEC"/><stop offset="1" stop-color="#5EA0EF"/></linearGradient><clipPath id="a"><path fill="#fff" d="M0 0h18v18H0z"/></clipPath></defs></svg>