<svg xmlns="http://www.w3.org/2000/svg" fill="none" viewBox="0 0 18 18"><g clip-path="url(#a)"><path fill="url(#b)" d="M18 14.474a3.577 3.577 0 0 0-3.098-3.428 4.492 4.492 0 0 0-4.631-4.258 4.598 4.598 0 0 0-4.407 2.959 4.258 4.258 0 0 0-3.747 4.098 4.322 4.322 0 0 0 4.47 4.152h7.868A3.609 3.609 0 0 0 18 14.473v.001Z"/><path fill="#fff" d="m7.642 16.001-1.947-1.956a.087.087 0 0 1 0-.139l1.947-1.947a.103.103 0 0 1 .147.008.11.11 0 0 1 .027.062v1.147a.095.095 0 0 0 .092.099c.01 0 .02 0 .03-.004h2.521a.096.096 0 0 1 .087.104v1.209a.096.096 0 0 1-.096.096H7.938a.095.095 0 0 0-.096.095v1.156a.106.106 0 0 1-.065.135.106.106 0 0 1-.135-.065Z"/><path fill="#fff" d="m12.44 11.959 2.016 2.016L12.44 16a.096.096 0 0 1-.165-.07v-1.147a.104.104 0 0 0-.104-.104H9.564v-1.408h2.607a.104.104 0 0 0 .113-.095v-1.148a.095.095 0 0 1 .1-.091c.021 0 .041.009.057.022h-.001Z"/><path fill="#005BA1" d="M1.414 13.873v-.049a4.963 4.963 0 0 1 .472-1.964c-1.148-.245-1.869-.599-1.869-.992v2.697c0 .344.551.657 1.455.894a5.122 5.122 0 0 1-.058-.586Z"/><path fill="#198AB3" d="M2.711 10.627c.39-.427.851-.775 1.355-1.041-2.342.166-4.049.677-4.049 1.282 0 .393.721.747 1.868.992.211-.447.487-.864.826-1.234v.001Z"/><path fill="#0078D4" d="M11.394 6.174v-.071a.404.404 0 0 1-.007.069l.007.002ZM5.369 9.115c.31-.653.75-1.224 1.279-1.691-.307.012-.621.019-.943.019-3.141 0-5.688-.6-5.688-1.34v2.698c0 .544 1.381 1.012 3.362 1.222a4.96 4.96 0 0 1 1.991-.907l-.001-.001Z"/><path fill="#32BEDD" d="M6.649 7.423a5.316 5.316 0 0 1 3.619-1.34l.15-.002c.331 0 .654.031.968.091a.323.323 0 0 0 .007-.069c0-.739-2.547-1.339-5.688-1.339-3.141 0-5.688.6-5.688 1.339s2.547 1.339 5.688 1.339c.322 0 .637-.007.944-.019Z"/><path fill="#5EA0EF" d="M5.688 2.679c-3.106 0-5.63-.587-5.683-1.315H0v2.672c0 .74 2.547 1.34 5.688 1.34 3.076 0 5.58-.575 5.683-1.293V1.339c.005.739-2.542 1.34-5.683 1.34Z"/><path fill="#9CEBFF" d="M5.688 2.678c3.141 0 5.688-.6 5.688-1.339C11.376.599 8.829 0 5.688 0 2.547 0 0 .6 0 1.339c0 .74 2.547 1.339 5.688 1.339Z"/></g><defs><linearGradient id="b" x1="10.059" x2="10.059" y1="18" y2="6.748" gradientUnits="userSpaceOnUse"><stop stop-color="#32BEDD"/><stop offset="1" stop-color="#50E6FF"/></linearGradient><clipPath id="a"><path fill="#fff" d="M0 0h18v18H0z"/></clipPath></defs></svg>