<svg xmlns="http://www.w3.org/2000/svg" xmlns:xlink="http://www.w3.org/1999/xlink" viewBox="0 0 18 18"><defs><linearGradient id="a" x1="13.24" x2="13.24" y1="8.21" y2="10.28" gradientUnits="userSpaceOnUse"><stop offset="0" stop-color="#86d633"/><stop offset="1" stop-color="#0c852e"/></linearGradient><linearGradient xlink:href="#a" id="b" x1="9.53" x2="9.53" y1="9.8" y2="11.87"/><linearGradient xlink:href="#a" id="c" x1="5.8" x2="5.8" y1="11.34" y2="13.46"/></defs><g data-name="fluent_icons" style="isolation:isolate"><path fill="#76bc2d" d="M10.83 8.42a.26.26 0 0 1-.24.27H8.5a.26.26 0 0 1-.27-.24V6.89a.26.26 0 0 1 .24-.27h2.09a.26.26 0 0 1 .27.24v1.56Z"/><path fill="url(#a)" d="M14.54 10a.26.26 0 0 1-.24.27h-2.09a.26.26 0 0 1-.27-.24V8.48a.26.26 0 0 1 .24-.27h2.09a.26.26 0 0 1 .27.24V10Z"/><path fill="url(#b)" d="M10.83 11.6a.26.26 0 0 1-.24.27H8.5a.26.26 0 0 1-.27-.24v-1.56a.26.26 0 0 1 .24-.27h2.09a.26.26 0 0 1 .27.24v1.56Z"/><path fill="#86d633" d="M7.12 6.84a.25.25 0 0 1-.23.26H4.74a.26.26 0 0 1-.27-.23V5.25A.26.26 0 0 1 4.71 5H6.8c.22 0 .32.11.32.27Z"/><path fill="#76bc2d" d="M7.12 10a.25.25 0 0 1-.23.27H4.74a.26.26 0 0 1-.27-.27V8.42a.26.26 0 0 1 .24-.26H6.8c.22 0 .32.11.32.26Z"/><path fill="url(#c)" d="M7.12 13.19a.25.25 0 0 1-.23.27H4.74a.26.26 0 0 1-.27-.24V11.6a.25.25 0 0 1 .24-.26H6.8c.22 0 .32.1.32.26Z"/><g fill="#999"><path d="M1.07 1.51h1.29v3.6a.29.29 0 0 1-.29.29H.79a.29.29 0 0 1-.29-.29v-3a.57.57 0 0 1 .57-.6Z"/><path d="M1.07 1.51h1.29v3.6a.29.29 0 0 1-.29.29H.79a.29.29 0 0 1-.29-.29v-3a.57.57 0 0 1 .57-.6Z" opacity=".5" style="mix-blend-mode:multiply"/></g><g fill="#999" style="mix-blend-mode:multiply"><path d="M15.64 1.51h1.29a.57.57 0 0 1 .57.57v3a.29.29 0 0 1-.29.29h-1.29a.29.29 0 0 1-.29-.29V1.51h.01Z"/><path d="M15.64 1.51h1.29a.57.57 0 0 1 .57.57v3a.29.29 0 0 1-.29.29h-1.29a.29.29 0 0 1-.29-.29V1.51h.01Z" opacity=".5" style="mix-blend-mode:multiply"/></g><path fill="#949494" d="M17.5 2.08v1.25H.5V2.08a.57.57 0 0 1 .57-.57h15.87a.57.57 0 0 1 .56.57Z"/><g fill="#999" style="mix-blend-mode:multiply"><path d="M.79 12.76h1.29a.29.29 0 0 1 .29.29v3.6h-1.3a.57.57 0 0 1-.57-.57V13a.29.29 0 0 1 .29-.24Z"/><path d="M.79 12.76h1.29a.29.29 0 0 1 .29.29v3.6h-1.3a.57.57 0 0 1-.57-.57V13a.29.29 0 0 1 .29-.24Z" opacity=".5" style="mix-blend-mode:multiply"/></g><g fill="#999" style="mix-blend-mode:multiply"><path d="M15.92 12.76h1.29a.29.29 0 0 1 .29.29v3a.57.57 0 0 1-.57.57h-1.29V13a.29.29 0 0 1 .28-.24Z"/><path d="M15.92 12.76h1.29a.29.29 0 0 1 .29.29v3a.57.57 0 0 1-.57.57h-1.29V13a.29.29 0 0 1 .28-.24Z" opacity=".5" style="mix-blend-mode:multiply"/></g><path fill="#949494" d="M.5 16.08v-1.25h17v1.25a.57.57 0 0 1-.57.57H1.07a.57.57 0 0 1-.57-.57Z"/></g></svg>