<svg xmlns="http://www.w3.org/2000/svg" viewBox="0 0 120 120"><g fill="none" fill-rule="evenodd"><path d="M0 0h120v120H0z"/><ellipse cx="60" cy="61.824" stroke="#0071C6" stroke-width="3" rx="1.5" ry="1.324"/><ellipse cx="69" cy="61.824" stroke="#0071C6" stroke-width="3" rx="1.5" ry="1.324"/><ellipse cx="51" cy="61.824" stroke="#0071C6" stroke-width="3" rx="1.5" ry="1.324"/><circle cx="59.5" cy="59.5" r="41.5" stroke="#0071C6" stroke-width="3.9"/><path stroke="#0071C6" stroke-width="3.9" d="m59.75 49.512 1.98-2.8c4.734-6.686 13.991-8.27 20.678-3.538a14.834 14.834 0 0 1 2.005 1.705c6.281 6.384 6.198 16.653-.187 22.935-.343.338-.702.66-1.075.967L59.75 88.021 45.851 76.564l-9.94-8.194c-6.921-5.704-7.907-15.94-2.202-22.86.303-.367.621-.72.955-1.06 5.772-5.866 15.206-5.943 21.072-.17a14.9 14.9 0 0 1 1.674 1.959l2.34 3.273Z"/></g></svg>