<svg xmlns="http://www.w3.org/2000/svg" xmlns:xlink="http://www.w3.org/1999/xlink" data-name="fluent_icons" viewBox="0 0 18 18"><defs><linearGradient id="a" x1="2986.79" x2="2986.77" y1="-5195.55" y2="-5187.71" gradientTransform="matrix(.5 0 0 -.5 -1475.35 -2591.4)" gradientUnits="userSpaceOnUse"><stop offset="0" stop-color="#198ab3"/><stop offset="0" stop-color="#198ab3"/><stop offset=".11" stop-color="#22a5cb"/><stop offset=".23" stop-color="#29bade"/><stop offset=".37" stop-color="#2ec9eb"/><stop offset=".53" stop-color="#31d1f3"/><stop offset=".78" stop-color="#32d4f5"/></linearGradient><linearGradient xlink:href="#a" id="b" x1="2979.22" x2="2979.2" y1="-5184.29" y2="-5177.67"/><linearGradient xlink:href="#a" id="c" x1="2970.39" x2="2970.38" y1="-5195.8" y2="-5190.47"/><linearGradient xlink:href="#a" id="d" x1="2981.18" x2="2981.16" y1="-5203.88" y2="-5198.55"/><linearGradient xlink:href="#a" id="e" x1="2993.44" x2="2993.43" y1="-5206.42" y2="-5200.23"/></defs><circle cx="11.4" cy="8.44" r="1.97" fill="#fff" data-name="Ellipse 7"/><circle cx="14.7" cy="14.3" r="1.55" fill="#fff" data-name="Ellipse 8"/><circle cx="8.57" cy="13.24" r="1.33" fill="#fff" data-name="Ellipse 9"/><circle cx="7.61" cy="3.11" r="1.65" fill="#fff" data-name="Ellipse 6"/><circle cx="3.19" cy="9.19" r="1.33" fill="#fff" data-name="Ellipse 10"/><path fill="#949494" d="m15.06 13.99-3.33-5.83-.33.19.27-.2L7.9 2.79l-.69.5 3.34 4.75-7.4.61.07.86 7.33-.61-2.43 4.04.73.44 2.5-4.16 2.97 5.19.74-.42z"/><circle cx="11.39" cy="8.45" r="1.96" fill="url(#a)"/><circle cx="7.62" cy="3.12" r="1.66" fill="url(#b)"/><circle cx="3.19" cy="9.18" r="1.33" fill="url(#c)"/><circle cx="8.57" cy="13.24" r="1.33" fill="url(#d)"/><path fill="#949494" d="M17.53 1.23A.73.73 0 0 0 16.8.5H13a.36.36 0 0 0-.36.36v1.41a.36.36 0 0 0 .36.36h2.35v2.3a.38.38 0 0 0 .37.37h1.4a.38.38 0 0 0 .37-.37v-3.7ZM5 15.37H2.61v-2.3a.38.38 0 0 0-.37-.37H.84a.38.38 0 0 0-.37.37v3.7a.73.73 0 0 0 .73.72H5a.36.36 0 0 0 .36-.36v-1.4a.36.36 0 0 0-.36-.36Z"/><circle cx="14.7" cy="14.31" r="1.55" fill="url(#e)"/></svg>