<svg xmlns="http://www.w3.org/2000/svg" fill="none" viewBox="0 0 72 73"><mask id="a" width="66" height="67" x="3" y="3" maskUnits="userSpaceOnUse" style="mask-type:alpha"><path fill="#fff" fill-rule="evenodd" d="M49.766 69.166a4.097 4.097 0 0 0 3.266-.125l13.553-6.522a4.114 4.114 0 0 0 2.33-3.707v-44.22a4.114 4.114 0 0 0-2.33-3.708L53.032 4.362a4.098 4.098 0 0 0-4.676.797L22.41 28.829l-11.301-8.578a2.74 2.74 0 0 0-3.501.155l-3.625 3.298a2.744 2.744 0 0 0-.003 4.056l9.801 8.942-9.8 8.941a2.744 2.744 0 0 0 .002 4.057l3.625 3.297a2.74 2.74 0 0 0 3.5.156l11.302-8.58 25.946 23.672c.41.41.892.72 1.41.921Zm2.701-47.408L32.781 36.702l19.686 14.944V21.757Z" clip-rule="evenodd"/></mask><g mask="url(#a)"><g filter="url(#b)"><path fill="#0065A9" d="M66.582 10.896 53.02 4.365a4.1 4.1 0 0 0-4.679.795L3.938 45.645A2.743 2.743 0 0 0 3.94 49.7l3.627 3.297c.977.889 2.45.954 3.502.156L64.541 12.59c1.794-1.361 4.37-.082 4.37 2.17v-.157c0-1.58-.905-3.022-2.329-3.707Z"/></g><g filter="url(#c)"><path fill="#007ACC" d="M66.582 62.51 53.02 69.04a4.1 4.1 0 0 1-4.679-.795L3.938 27.76a2.743 2.743 0 0 1 .003-4.056l3.627-3.297a2.743 2.743 0 0 1 3.502-.156l53.471 40.564c1.794 1.36 4.37.081 4.37-2.17v.157c0 1.58-.905 3.022-2.329 3.707Z"/></g><g filter="url(#d)"><path fill="#1F9CF0" d="M53.023 69.04a4.103 4.103 0 0 1-4.68-.796c1.519 1.519 4.115.443 4.115-1.704V6.863c0-2.147-2.596-3.223-4.114-1.704a4.102 4.102 0 0 1 4.679-.797l13.561 6.522a4.114 4.114 0 0 1 2.331 3.708v44.22a4.114 4.114 0 0 1-2.331 3.707l-13.561 6.522Z"/></g><path fill="url(#e)" fill-rule="evenodd" d="M49.723 69.166a4.097 4.097 0 0 0 3.266-.125l13.553-6.522a4.114 4.114 0 0 0 2.33-3.707v-44.22a4.115 4.115 0 0 0-2.33-3.708L52.989 4.362a4.098 4.098 0 0 0-4.676.797l-25.946 23.67-11.301-8.578a2.74 2.74 0 0 0-3.501.155L3.94 23.704a2.744 2.744 0 0 0-.003 4.056l9.801 8.942-9.8 8.941A2.744 2.744 0 0 0 3.94 49.7l3.625 3.297a2.74 2.74 0 0 0 3.5.156l11.302-8.58 25.946 23.672c.41.41.892.72 1.41.921Zm2.701-47.408L32.738 36.702l19.686 14.944V21.757Z" clip-rule="evenodd" opacity=".25" style="mix-blend-mode:overlay"/></g><defs><filter id="b" width="71.353" height="55.238" x=".3" y="3.959" color-interpolation-filters="sRGB" filterUnits="userSpaceOnUse"><feFlood flood-opacity="0" result="BackgroundImageFix"/><feColorMatrix in="SourceAlpha" result="hardAlpha" values="0 0 0 0 0 0 0 0 0 0 0 0 0 0 0 0 0 0 127 0"/><feOffset dy="2.743"/><feGaussianBlur stdDeviation="1.371"/><feColorMatrix values="0 0 0 0 0 0 0 0 0 0 0 0 0 0 0 0 0 0 0.25 0"/><feBlend in2="BackgroundImageFix" result="effect1_dropShadow_1152_115027"/><feBlend in="SourceGraphic" in2="effect1_dropShadow_1152_115027" result="shape"/></filter><filter id="c" width="76.839" height="60.723" x="-2.443" y="14.208" color-interpolation-filters="sRGB" filterUnits="userSpaceOnUse"><feFlood flood-opacity="0" result="BackgroundImageFix"/><feColorMatrix in="SourceAlpha" result="hardAlpha" values="0 0 0 0 0 0 0 0 0 0 0 0 0 0 0 0 0 0 127 0"/><feOffset/><feGaussianBlur stdDeviation="2.743"/><feColorMatrix values="0 0 0 0 0 0 0 0 0 0 0 0 0 0 0 0 0 0 0.25 0"/><feBlend in2="BackgroundImageFix" mode="overlay" result="effect1_dropShadow_1152_115027"/><feBlend in="SourceGraphic" in2="effect1_dropShadow_1152_115027" result="shape"/></filter><filter id="d" width="31.542" height="76.46" x="42.858" y="-1.529" color-interpolation-filters="sRGB" filterUnits="userSpaceOnUse"><feFlood flood-opacity="0" result="BackgroundImageFix"/><feColorMatrix in="SourceAlpha" result="hardAlpha" values="0 0 0 0 0 0 0 0 0 0 0 0 0 0 0 0 0 0 127 0"/><feOffset/><feGaussianBlur stdDeviation="2.743"/><feColorMatrix values="0 0 0 0 0 0 0 0 0 0 0 0 0 0 0 0 0 0 0.25 0"/><feBlend in2="BackgroundImageFix" mode="overlay" result="effect1_dropShadow_1152_115027"/><feBlend in="SourceGraphic" in2="effect1_dropShadow_1152_115027" result="shape"/></filter><linearGradient id="e" x1="35.957" x2="35.957" y1="3.957" y2="69.446" gradientUnits="userSpaceOnUse"><stop stop-color="#fff"/><stop offset="1" stop-color="#fff" stop-opacity="0"/></linearGradient></defs></svg>