<svg xmlns="http://www.w3.org/2000/svg" xml:space="preserve" overflow="hidden" viewBox="0 0 290 290"><defs><linearGradient id="b" x1="407.434" x2="407.434" y1="43.747" y2="251.615" gradientUnits="userSpaceOnUse" spreadMethod="pad"><stop offset="0" stop-color="#5EA0EF"/><stop offset=".18" stop-color="#5EA0EF"/><stop offset="1" stop-color="#0078D4"/></linearGradient><clipPath id="a"><path d="M495 215h290v290H495z"/></clipPath></defs><g clip-path="url(#a)" transform="translate(-495 -215)"><path fill="url(#b)" d="M397.296 67.223s-.071.294-.162.79c-.84.242-1.679.475-2.518.748-1.164.354-2.307.779-3.471 1.194-1.143.445-2.307.89-3.439 1.4-2.314.989-4.573 2.1-6.768 3.328a74.699 74.699 0 0 0-6.313 3.966c-.293-.141-.525-.242-.525-.242-20.972-8.013-39.595 1.628-39.595 1.628-1.699 22.307 8.376 36.369 10.37 38.918a78.883 78.883 0 0 0-1.386 4.178 97.292 97.292 0 0 0-3.429 15.61c-.1.769-.193 1.548-.284 2.326-19.374 9.571-25.12 29.187-25.12 29.187 16.177 18.605 35.034 19.757 35.034 19.757.02-.01.03-.03.05-.04a82.577 82.577 0 0 0 8.299 12.15 80.747 80.747 0 0 0 4.107 4.613 43.556 43.556 0 0 0 .83 30.895 50.243 50.243 0 0 0 32.322-9.853 77.422 77.422 0 0 0 5.443 1.619 81.653 81.653 0 0 0 16.864 2.509c1.416.06 2.833.091 4.239.081h.687l.445-.011.891-.03.88-.04.02.03c8.478 12.098 23.397 13.809 23.397 13.809 10.612-11.188 11.219-22.287 11.219-24.684v-.162c0-.2-.01-.334-.01-.334-.01-.172-.01-.334-.03-.516a68.131 68.131 0 0 0 6.363-5.037 66.116 66.116 0 0 0 11.035-12.939c.294-.445.577-.891.85-1.346 12.008.688 20.476-7.436 20.476-7.436-1.993-12.514-9.125-18.614-10.613-19.767a1.637 1.637 0 0 0-.151-.112c-.081-.06-.142-.1-.142-.1a4.54 4.54 0 0 0-.263-.172c.071-.759.142-1.507.182-2.256.091-1.346.121-2.699.132-4.036l-.011-1-.01-.506v-.264c0-.344-.01-.212-.01-.344l-.04-.839-.061-1.134c-.02-.394-.051-.728-.081-1.082-.03-.353-.061-.699-.1-1.041l-.122-1.043-.141-1.032a49.319 49.319 0 0 0-.779-4.086 51.826 51.826 0 0 0-16.277-27.225 51.163 51.163 0 0 0-12.848-8.264 50.365 50.365 0 0 0-21.346-4.4l-.88.02-.223.01c-.06 0-.334.01-.3.01l-.364.02-.881.061a42.72 42.72 0 0 0-4.582.587 40.043 40.043 0 0 0-23.397 13.667 39.447 39.447 0 0 0-6.464 10.906 38.638 38.638 0 0 0-2.57 11.664c-.061.962-.081 1.923-.061 2.874 0 .232.01.474.02.707l.031.769c.03.466.07.921.111 1.376a31.1 31.1 0 0 0 1.072 5.635 30.116 30.116 0 0 0 11.939 16.521 29.309 29.309 0 0 0 8.193 3.894 28.494 28.494 0 0 0 8.144 1.164c.324 0 .648-.011.971-.021.172 0 .344-.02.516-.02l.516-.03c.274-.031.557-.051.83-.081.078-.006.156-.016.233-.031l.253-.03c.172-.02.334-.051.506-.071.344-.04.636-.111.94-.162.304-.051.607-.121.91-.2.6-.132 1.174-.314 1.751-.486a22.68 22.68 0 0 0 3.187-1.334 23.134 23.134 0 0 0 2.751-1.68c.243-.172.475-.354.708-.536a2.065 2.065 0 0 0-2.276-3.43c-.213.121-.435.233-.657.344-.774.38-1.571.708-2.388.981-.859.272-1.734.488-2.62.648-.456.061-.911.131-1.376.172a5.412 5.412 0 0 1-.708.04c-.232.011-.485.031-.7.021-.215-.01-.445-.01-.678-.01-.283-.011-.566-.031-.85-.041 0 0-.141 0-.03-.01l-.091-.01-.192-.02c-.132-.011-.253-.021-.385-.041-.253-.03-.506-.061-.759-.1a22.146 22.146 0 0 1-6.08-1.781 21.834 21.834 0 0 1-5.616-3.677 21.331 21.331 0 0 1-4.391-5.499 20.666 20.666 0 0 1-2.62-10.603c.02-.344.031-.678.051-1.022 0 .092.01-.05.01-.06l.01-.122.02-.253c.01-.172.031-.333.051-.505.071-.667.172-1.345.293-1.999a26.46 26.46 0 0 1 11.067-17.198 25.959 25.959 0 0 1 3.764-2.144 26.41 26.41 0 0 1 4.099-1.488 25.834 25.834 0 0 1 4.319-.759 26.93 26.93 0 0 1 2.206-.091c.192 0 .344.01.5.01l.6.021.374.01c.152 0 0 0 .071.01l.152.01.6.041a33.762 33.762 0 0 1 13.728 4.117 33.064 33.064 0 0 1 13.455 13.96 31.918 31.918 0 0 1 3.054 9.399c.122.819.223 1.649.294 2.479l.05.626.031.627c.01.213.01.415.02.628.01.213.01.435.01.587v.536l-.01.607-.071 1.467c-.071.9-.142 1.811-.263 2.711-.121.901-.263 1.78-.425 2.671-.182.88-.364 1.76-.6 2.63a41.744 41.744 0 0 1-1.658 5.139 43.251 43.251 0 0 1-5.231 9.49 42.784 42.784 0 0 1-16.753 13.698 42.149 42.149 0 0 1-10.42 3.199c-1.8.304-3.618.486-5.443.546l-.333.011h-.294l-.587.01h-1.344c.253 0-.041 0-.031-.01l-.182-.011a55.9 55.9 0 0 1-14.406-2.215 56.604 56.604 0 0 1-38.919-39.373 55.824 55.824 0 0 1-1.871-11.159l-.04-.708-.01-.172v-.152l-.01-.313-.02-.618-.011-.151v-.648l-.01-.88v-.577c0-.455.021-.921.031-1.376a64.48 64.48 0 0 1 .465-5.685c.243-1.911.556-3.834.95-5.746a79.06 79.06 0 0 1 1.386-5.645 74.783 74.783 0 0 1 3.956-10.713 59.273 59.273 0 0 1 12.231-17.644 51.233 51.233 0 0 1 3.854-3.43 52.273 52.273 0 0 1 4.148-2.994 49.114 49.114 0 0 1 4.391-2.58c.748-.4 1.517-.758 2.286-1.132.385-.172.779-.344 1.164-.516.384-.172.778-.344 1.172-.5 1.569-.667 3.188-1.224 4.807-1.75.414-.121.819-.253 1.224-.374.404-.121.828-.223 1.233-.344.82-.233 1.66-.425 2.489-.638.415-.11.84-.182 1.255-.273.415-.09.84-.182 1.265-.263.425-.08.848-.152 1.263-.233l.638-.11.637-.1c.425-.062.85-.133 1.275-.194.476-.08.961-.12 1.437-.192.394-.05 1.032-.12 1.426-.172l.9-.09.599-.062.3-.03.355-.02 1.446-.09.719-.052s.263-.01.03-.01l.152-.01.3-.01 1.235-.06c1.639-.05 3.267-.05 4.876 0 3.177.127 6.341.479 9.469 1.051a66.153 66.153 0 0 1 17.197 5.717 69.267 69.267 0 0 1 14.041 9.155c.253.212.506.435.759.647.253.212.5.435.739.658.5.435.971.89 1.447 1.325.476.435.931.9 1.399 1.346.445.454.9.899 1.336 1.365a72.453 72.453 0 0 1 11.857 16.622c.121.223.233.445.344.668.111.223.223.445.323.667.212.436.435.871.627 1.306.192.434.405.859.6 1.284.195.425.364.85.546 1.254.688 1.67 1.316 3.248 1.832 4.755.85 2.418 1.467 4.6 1.952 6.5a1.592 1.592 0 0 0 3.136-.355 68.288 68.288 0 0 0-2.265-18.756 72.38 72.38 0 0 0-5.221-13.89 76.001 76.001 0 0 0-15.013-20.537c2.833-11.269-3.45-21.042-3.45-21.042-10.844-.678-17.744 3.369-20.303 5.22-.425-.181-.86-.364-1.295-.546a77.247 77.247 0 0 0-5.699-2.064 81.464 81.464 0 0 0-5.979-1.659 80.377 80.377 0 0 0-6.231-1.2c-.375-.05-.739-.1-1.113-.162-4.714-15.113-18.297-21.436-18.297-21.436-15.154 9.56-18.038 23.004-18.038 23.004" transform="matrix(1 0 0 1.00015 232.559 215)"/></g></svg>