<svg xmlns="http://www.w3.org/2000/svg" xmlns:xlink="http://www.w3.org/1999/xlink" viewBox="0 0 156 156"><defs><path id="a" d="M26.594 91.636c.878 0 1.625.307 2.24.932.617.622.923 1.363.923 2.217 0 .853-.306 1.591-.923 2.214a3.036 3.036 0 0 1-2.24.935c-.856 0-1.584-.313-2.18-.935a3.083 3.083 0 0 1-.896-2.214c0-.876.297-1.617.896-2.23a2.917 2.917 0 0 1 2.18-.919Zm71.873-34.57v4.235h-15.64v13.295h14.492v4.235H82.827v13.965H99.39v4.235H78.127V57.066h20.34Zm33.015 0v4.235h-11.556v35.73h-4.701V61.3h-11.58v-4.235h27.837Zm-88.591 0L64.43 90.82V57.066h4.672v39.965H63.4L41.49 62.75v34.28h-4.703V57.066h6.103Z"/></defs><g fill="none" fill-rule="evenodd"><g transform="translate(.5 .5)"><path fill="#512BD4" fill-rule="nonzero" d="M0 0h155v155H0z"/><use xlink:href="#a" fill="#FFFFFE"/></g></g></svg>