<svg xmlns="http://www.w3.org/2000/svg" fill="none" viewBox="0 0 18 18"><g clip-path="url(#a)"><path fill="url(#b)" d="M10.614 8.8c-.9 0-1.6-.7-1.6-1.6-1.1 0-2 .9-2 2s.9 2 2 2 2-.9 2-2v-.4h-.4Z"/><path fill="url(#c)" d="M12.914 11.2c-.1-.7-.3-1.4-.7-2-.1 1.7-1.5 3-3.2 3h-.2c-1.7 0-3.3-.7-4.6-1.9-1.1-1-1.8-2.3-2.3-3.7-.6.5-1.1 1.1-1.6 1.7-.4.3-.4.9-.1 1.3l.1.1c1.1 1.3 2.4 2.5 3.9 3.4 1.5 1 3.2 1.5 5 1.5 1.2 0 2.5-.4 3.5-.9.2-.8.286-1.7.2-2.5Z"/><path fill="url(#d)" d="M6.214 10.5c-.7-1.3-.4-2.8.6-3.8.8-1.1 1.9-1.9 3.2-2.3.7-.2 1.4-.3 2.2-.3-.6-.3-1.714-.567-1.9-.6-1.7-.3-3.5 0-5.1.8-.9.5-1.7 1-2.5 1.6.4 1.4 1.1 2.6 2.1 3.6.4.4.9.7 1.4 1Z"/><path fill="url(#e)" d="M17.714 8.4c-1-1.2-2.1-2.2-3.4-3.1-1.3-.4-2.7-.4-4 0-.4.1-.8.3-1.1.5.6 0 1.2.3 1.7.6 1.6 1 2.6 2.7 2.9 4.5.1.7.1 1.4 0 2.2 1.5-.9 2.8-2.1 3.9-3.5.4-.3.4-.8 0-1.2Z"/></g><defs><linearGradient id="b" x1="8.991" x2="8.991" y1="11.138" y2="7.18" gradientUnits="userSpaceOnUse"><stop stop-color="#29BADE"/><stop offset="1" stop-color="#50E6FF"/></linearGradient><linearGradient id="c" x1="6.46" x2="6.46" y1="14.62" y2="3.368" gradientUnits="userSpaceOnUse"><stop offset=".041" stop-color="#32BEDD"/><stop offset=".495" stop-color="#50E6FF"/><stop offset=".92" stop-color="#C3F1FF"/></linearGradient><linearGradient id="d" x1="7.478" x2="7.478" y1="10.047" y2=".254" gradientUnits="userSpaceOnUse"><stop offset=".244" stop-color="#0078D4"/><stop offset=".6" stop-color="#2E8CE1"/><stop offset=".933" stop-color="#589EED"/></linearGradient><linearGradient id="e" x1="13.642" x2="13.642" y1="14.626" y2="4.193" gradientUnits="userSpaceOnUse"><stop stop-color="#005BA1"/><stop offset=".399" stop-color="#0078D4"/><stop offset=".857" stop-color="#5EA0EF"/></linearGradient><clipPath id="a"><path fill="#fff" d="M0 0h18v18H0z"/></clipPath></defs></svg>