<svg xmlns="http://www.w3.org/2000/svg" xmlns:xlink="http://www.w3.org/1999/xlink" data-name="fluent_icons" viewBox="0 0 18 18"><defs><linearGradient id="a" x1="3155.81" x2="3155.78" y1="1287.2" y2="1277.05" gradientTransform="translate(-1571.26 -630.1) scale(.5)" gradientUnits="userSpaceOnUse"><stop offset="0" stop-color="#ef7100"/><stop offset=".29" stop-color="#f07502"/><stop offset=".57" stop-color="#f28009"/><stop offset=".85" stop-color="#f79415"/><stop offset="1" stop-color="#faa21d"/></linearGradient><linearGradient xlink:href="#a" id="b" x1="3171.64" x2="3171.62" y1="1287.16" y2="1277.01"/><linearGradient xlink:href="#a" id="c" x1="3176.76" x2="3176.73" y1="1271.96" y2="1261.81"/><linearGradient xlink:href="#a" id="d" x1="3150.91" x2="3150.88" y1="1272.03" y2="1261.88"/><linearGradient xlink:href="#a" id="e" x1="3163.81" x2="3163.79" y1="1262.94" y2="1252.79"/></defs><path fill="#e27908" d="m16.14 7.16-5.87-4.22L9 2l-1.25.92-5.89 4.24 2.26 6.91.48 1.48h8.84l.48-1.48 2.26-6.91Zm-10.46 7L3.59 7.74 9 3.85l5.41 3.89-2.09 6.38Z"/><circle cx="4.97" cy="15.06" r="2.54" fill="url(#a)"/><circle cx="12.88" cy="15.06" r="2.54" fill="url(#b)"/><circle cx="15.46" cy="7.47" r="2.54" fill="url(#c)"/><circle cx="2.54" cy="7.47" r="2.54" fill="url(#d)"/><circle cx="9" cy="2.94" r="2.54" fill="url(#e)"/></svg>