<svg xmlns="http://www.w3.org/2000/svg" viewBox="0 0 18 18"><path fill="#2272b9" d="M13.371 2.793C12.492 1.25 10.812.297 8.95.297c-1.234 0-2.37.422-3.238 1.148a5.329 5.329 0 0 1 2.96 1.512 5.347 5.347 0 0 1 1.575 3.793v4.52h2.86c2.453 0 4.453-1.918 4.453-4.274 0-2.258-1.864-4.11-4.188-4.203Zm0 0"/><path fill="#45add2" d="M5.168 2.246C2.516 2.125.324 4.316.445 6.965c.114 2.422 2.14 4.308 4.567 4.308H9.48V6.81c-.003-2.426-1.894-4.457-4.312-4.563Zm0 0"/><path fill="#fff" d="M8.5 7.145v-.547a.158.158 0 0 0-.113-.153L7.625 6.2a.15.15 0 0 1-.098-.09l-.168-.402a.164.164 0 0 1 .004-.129l.348-.738a.155.155 0 0 0-.031-.18l-.39-.39a.16.16 0 0 0-.185-.028l-.714.363a.174.174 0 0 1-.133.004l-.403-.168a.153.153 0 0 1-.09-.093l-.273-.766a.16.16 0 0 0-.152-.11h-.543a.154.154 0 0 0-.149.114l-.25.762a.15.15 0 0 1-.09.097l-.402.168a.164.164 0 0 1-.129-.004l-.734-.347a.154.154 0 0 0-.18.031l-.39.39a.16.16 0 0 0-.032.184l.364.715c.023.043.023.09.004.133l-.164.402a.17.17 0 0 1-.098.09l-.766.273a.161.161 0 0 0-.105.153v.547c0 .066.043.129.105.148l.762.25a.165.165 0 0 1 .102.09l.164.402c.02.043.02.09-.004.13l-.348.738a.162.162 0 0 0 .031.18l.39.386a.161.161 0 0 0 .184.031l.715-.363a.145.145 0 0 1 .133-.004l.402.168a.15.15 0 0 1 .09.094l.278.765c.02.063.078.106.148.106h.547a.16.16 0 0 0 .152-.11l.246-.761a.177.177 0 0 1 .09-.102l.403-.164c.043-.02.09-.02.129.004l.738.348a.162.162 0 0 0 .18-.032l.39-.39a.16.16 0 0 0 .027-.184l-.363-.715a.174.174 0 0 1-.004-.133l.168-.402a.153.153 0 0 1 .094-.09l.766-.273a.167.167 0 0 0 .109-.152ZM5.246 8.55a1.633 1.633 0 0 1-1.223-.38 1.646 1.646 0 0 1-.605-1.128 1.65 1.65 0 0 1 .379-1.227 1.641 1.641 0 0 1 1.129-.601 1.68 1.68 0 0 1 1.535.7c.16.233.262.507.293.808A1.672 1.672 0 0 1 5.246 8.55Zm0 0"/></svg>