<?xml version="1.0" encoding="UTF-8" standalone="no"?>
<!-- Created with Inkscape (http://www.inkscape.org/) -->

<svg
   width="14mm"
   height="14mm"
   viewBox="0 0 14 14"
   version="1.1"
   id="svg42460"
   inkscape:version="1.1.2 (0a00cf5339, 2022-02-04)"
   sodipodi:docname="gogs.svg"
   xmlns:inkscape="http://www.inkscape.org/namespaces/inkscape"
   xmlns:sodipodi="http://sodipodi.sourceforge.net/DTD/sodipodi-0.dtd"
   xmlns="http://www.w3.org/2000/svg"
   xmlns:svg="http://www.w3.org/2000/svg">
  <sodipodi:namedview
     id="namedview42462"
     pagecolor="#ffffff"
     bordercolor="#999999"
     borderopacity="1"
     inkscape:pageshadow="0"
     inkscape:pageopacity="0"
     inkscape:pagecheckerboard="0"
     inkscape:document-units="mm"
     showgrid="false"
     width="14mm"
     inkscape:showpageshadow="false"
     showborder="false"
     inkscape:zoom="5.3921852"
     inkscape:cx="44.879764"
     inkscape:cy="37.739802"
     inkscape:window-width="1360"
     inkscape:window-height="744"
     inkscape:window-x="0"
     inkscape:window-y="16"
     inkscape:window-maximized="0"
     inkscape:current-layer="layer1" />
  <defs
     id="defs42457" />
  <g
     inkscape:label="Слой 1"
     inkscape:groupmode="layer"
     id="layer1">
    <path
       id="path42733"
       style="fill:#e16146;fill-opacity:1;stroke:#000000;stroke-width:0;stroke-linecap:butt;stroke-linejoin:miter;stroke-miterlimit:4;stroke-dasharray:none;stroke-opacity:1"
       d="M 7.9965389,0.99926789 5.9840877,1.002686 c -0.1377168,0.00612 -0.26017,0.046689 -0.331543,0.2026363 L 5.419024,2.0814215 C 4.6762233,2.3048034 4.0622253,2.6752939 3.5514701,3.1636963 L 2.6918516,2.9321294 C 2.5274752,2.9094286 2.4228397,2.9665632 2.3470027,3.0622561 L 1.293536,4.8793939 C 1.248437,5.0096152 1.227162,5.1445467 1.310138,5.2996821 l 0.60791,0.6058346 C 1.7221951,6.8791939 1.8222907,7.508164 1.9744438,8.0765388 L 1.3239314,8.6671136 C 1.2054227,8.8685293 1.2843208,8.966223 1.3070865,9.0933828 L 2.359821,10.945434 c 0.114715,0.163408 0.2201469,0.127004 0.3262937,0.108156 l 0.8155519,-0.254762 c 0.5162901,0.494767 1.142245,0.877056 1.8852536,1.139405 l 0.2690433,0.886597 c 0.038698,0.107379 0.1192887,0.167232 0.2452394,0.175902 l 2.1595454,-0.01025 c 0.098646,-0.0063 0.1924026,-0.03194 0.2590333,-0.165161 l 0.2591556,-0.91443 C 9.2875083,11.688685 9.9337714,11.372974 10.423175,10.82178 l 0.838379,0.227416 c 0.123489,0.01675 0.246769,0.03728 0.377076,-0.110962 l 1.076415,-1.8682842 c 0.04546,-0.1145882 0.04625,-0.2291622 -0.03687,-0.3437504 L 12.031207,8.0754427 C 12.178,7.3574222 12.172404,6.6394089 12.046956,5.9213884 l 0.629882,-0.6289063 c 0.09633,-0.123137 0.087,-0.2479748 0.0049,-0.374022 L 11.620808,3.1176782 C 11.545538,3.00159 11.435062,2.9667947 11.302082,2.9841333 L 10.437336,3.1691931 C 9.8883077,2.6447908 9.2423834,2.3435034 8.5725897,2.0971703 L 8.3704417,1.2911412 C 8.2935847,1.0994339 8.1521291,1.0353983 7.9965403,0.99927073 Z M 7.175982,3.3294687 C 7.7859127,3.3251931 8.3943101,3.4633372 9.0169244,3.781616 9.425985,4.2438144 9.2729857,4.6138561 8.7621639,4.6975089 7.8699139,4.1782916 6.9124589,3.9040679 5.6658503,4.716312 4.7792584,5.2708703 4.3830101,6.1276467 4.4508845,7.2309616 4.6585346,8.5711962 5.3623582,9.5304639 6.8780083,9.7528135 7.8678552,9.8443372 8.7186502,9.6023175 9.3321101,8.791264 L 7.9402646,7.9615514 C 7.4156139,8.2484907 6.9789451,8.2984821 6.4423395,7.9506852 6.1013645,7.5453522 5.891754,7.1358356 6.110064,6.5009789 6.3665288,6.0643112 6.6928308,5.801712 7.3955865,5.8098167 8.178282,6.0138663 8.4358525,6.5417246 8.3529838,7.1984884 l 1.9621582,1.0504157 c 0.213,0.2145165 0.214721,0.4570961 0.07715,0.7181386 C 9.914502,9.6021758 9.2701083,10.156467 8.3283257,10.566775 6.7385102,10.924795 5.5823227,10.507375 4.6432672,9.7017852 3.6612928,8.6805262 3.1830321,7.4076994 3.7954889,5.590212 4.1814177,4.7317349 4.7665852,4.013112 5.916827,3.5261246 6.3406901,3.4019601 6.7586614,3.3324002 7.175982,3.3294711 Z" />
  </g>
</svg>
