<svg xmlns="http://www.w3.org/2000/svg" width="617" height="180" viewBox="0 0 617 180" fill="none">
<path d="M191.175 114.578L94.7795 56.3837L126.086 36.3623L191.642 114.031C191.907 114.346 191.528 114.791 191.175 114.578Z" fill="#39C9C1"/>
<path d="M0.55873 114.921L95.8712 56.0195L64.929 35.998L0.0868809 114.378C-0.175763 114.696 0.208225 115.138 0.55873 114.921Z" fill="#00C2FF"/>
<path d="M126.446 36.4706L95.7722 0.257486C95.4796 -0.0879262 94.9459 -0.0854413 94.6561 0.26268L64.5614 36.4706L95.1395 56.7474L126.446 36.4706Z" fill="#BDFBFF"/>
<path d="M95.5552 179.876L191.865 114.948C192.086 114.8 192.077 114.471 191.848 114.334L95.5225 56.6104C95.2903 56.4712 94.9997 56.4724 94.7689 56.6135L0.249256 114.335C0.0241128 114.473 0.0154127 114.797 0.232845 114.946L94.7362 179.872C94.983 180.042 95.3077 180.043 95.5552 179.876Z" fill="#015E71"/>
<path d="M242.65 144V66.8H255.1V74.6C257.167 71.6333 259.85 69.3333 263.15 67.7C266.45 66.0333 270.05 65.2 273.95 65.2C278.883 65.2 283.267 66.3833 287.1 68.75C290.967 71.1167 294.017 74.35 296.25 78.45C298.483 82.5167 299.6 87.1667 299.6 92.4C299.6 97.5667 298.483 102.2 296.25 106.3C294.05 110.4 291.033 113.65 287.2 116.05C283.4 118.417 279.083 119.6 274.25 119.6C270.383 119.6 266.783 118.75 263.45 117.05C260.117 115.317 257.333 112.9 255.1 109.8V144H242.65ZM270.7 108.95C273.767 108.95 276.483 108.25 278.85 106.85C281.25 105.417 283.133 103.467 284.5 101C285.867 98.5 286.55 95.65 286.55 92.45C286.55 89.25 285.85 86.4 284.45 83.9C283.083 81.3667 281.217 79.4 278.85 78C276.483 76.5667 273.767 75.85 270.7 75.85C267.633 75.85 264.9 76.5667 262.5 78C260.1 79.4 258.2 81.35 256.8 83.85C255.433 86.35 254.75 89.2 254.75 92.4C254.75 95.6 255.433 98.45 256.8 100.95C258.167 103.45 260.05 105.417 262.45 106.85C264.883 108.25 267.633 108.95 270.7 108.95ZM312.963 118V66.8H325.413V118H312.963ZM319.213 56.3C317.847 56.3 316.58 55.9667 315.413 55.3C314.28 54.6 313.363 53.6833 312.663 52.55C311.997 51.3833 311.663 50.1 311.663 48.7C311.663 47.3333 311.997 46.0833 312.663 44.95C313.363 43.8167 314.28 42.9167 315.413 42.25C316.58 41.55 317.847 41.2 319.213 41.2C320.613 41.2 321.863 41.55 322.963 42.25C324.097 42.9167 324.997 43.8167 325.663 44.95C326.363 46.0833 326.713 47.3333 326.713 48.7C326.713 50.1 326.363 51.3833 325.663 52.55C324.997 53.6833 324.097 54.6 322.963 55.3C321.863 55.9667 320.613 56.3 319.213 56.3ZM339.752 144V66.8H352.202V74.6C354.268 71.6333 356.952 69.3333 360.252 67.7C363.552 66.0333 367.152 65.2 371.052 65.2C375.985 65.2 380.368 66.3833 384.202 68.75C388.068 71.1167 391.118 74.35 393.352 78.45C395.585 82.5167 396.702 87.1667 396.702 92.4C396.702 97.5667 395.585 102.2 393.352 106.3C391.152 110.4 388.135 113.65 384.302 116.05C380.502 118.417 376.185 119.6 371.352 119.6C367.485 119.6 363.885 118.75 360.552 117.05C357.218 115.317 354.435 112.9 352.202 109.8V144H339.752ZM367.802 108.95C370.868 108.95 373.585 108.25 375.952 106.85C378.352 105.417 380.235 103.467 381.602 101C382.968 98.5 383.652 95.65 383.652 92.45C383.652 89.25 382.952 86.4 381.552 83.9C380.185 81.3667 378.318 79.4 375.952 78C373.585 76.5667 370.868 75.85 367.802 75.85C364.735 75.85 362.002 76.5667 359.602 78C357.202 79.4 355.302 81.35 353.902 83.85C352.535 86.35 351.852 89.2 351.852 92.4C351.852 95.6 352.535 98.45 353.902 100.95C355.268 103.45 357.152 105.417 359.552 106.85C361.985 108.25 364.735 108.95 367.802 108.95ZM436.515 119.6C431.048 119.6 426.148 118.417 421.815 116.05C417.515 113.683 414.098 110.45 411.565 106.35C409.065 102.25 407.815 97.6333 407.815 92.5C407.815 88.7 408.532 85.15 409.965 81.85C411.398 78.55 413.382 75.65 415.915 73.15C418.448 70.65 421.398 68.7 424.765 67.3C428.132 65.9 431.765 65.2 435.665 65.2C440.998 65.2 445.665 66.3 449.665 68.5C453.698 70.7 456.832 73.7667 459.065 77.7C461.332 81.6333 462.465 86.2167 462.465 91.45C462.465 91.8833 462.448 92.25 462.415 92.55C462.382 92.8167 462.315 93.2833 462.215 93.95H420.515C420.515 97.05 421.215 99.7833 422.615 102.15C424.015 104.483 425.965 106.317 428.465 107.65C430.998 108.95 433.898 109.6 437.165 109.6C440.265 109.6 443.015 108.983 445.415 107.75C447.848 106.483 450.048 104.567 452.015 102L461.065 106.65C458.632 110.717 455.248 113.9 450.915 116.2C446.615 118.467 441.815 119.6 436.515 119.6ZM421.065 86.15H450.115C449.682 83.8167 448.798 81.8 447.465 80.1C446.132 78.4 444.448 77.0833 442.415 76.15C440.382 75.1833 438.115 74.7 435.615 74.7C432.982 74.7 430.632 75.1667 428.565 76.1C426.498 77.0333 424.815 78.35 423.515 80.05C422.215 81.75 421.398 83.7833 421.065 86.15ZM476.545 118V32H488.995V86.35L508.495 66.8H524.645L500.195 91.55L525.795 118H509.795L488.995 96.3V118H476.545ZM536.823 118V66.8H549.273V118H536.823ZM543.073 56.3C541.706 56.3 540.439 55.9667 539.273 55.3C538.139 54.6 537.223 53.6833 536.523 52.55C535.856 51.3833 535.523 50.1 535.523 48.7C535.523 47.3333 535.856 46.0833 536.523 44.95C537.223 43.8167 538.139 42.9167 539.273 42.25C540.439 41.55 541.706 41.2 543.073 41.2C544.473 41.2 545.723 41.55 546.823 42.25C547.956 42.9167 548.856 43.8167 549.523 44.95C550.223 46.0833 550.573 47.3333 550.573 48.7C550.573 50.1 550.223 51.3833 549.523 52.55C548.856 53.6833 547.956 54.6 546.823 55.3C545.723 55.9667 544.473 56.3 543.073 56.3ZM584.511 119.6C579.878 119.6 576.261 118.1 573.661 115.1C571.094 112.1 569.811 107.883 569.811 102.45V76.25H563.561V66.8H569.811V47.65H582.261V66.8H594.061V76.25H582.261V101.6C582.261 103.833 582.711 105.55 583.611 106.75C584.511 107.917 585.794 108.5 587.461 108.5C589.194 108.5 590.778 107.967 592.211 106.9L595.361 116.85C593.861 117.717 592.144 118.383 590.211 118.85C588.278 119.35 586.378 119.6 584.511 119.6Z" fill="#BDFBFF"/>
</svg>