<svg xmlns="http://www.w3.org/2000/svg" fill="none" viewBox="0 0 20 20"><path fill="#212124" fill-rule="evenodd" d="M4 3a1 1 0 0 0-1 1v4.5a1 1 0 0 0 1 1h4.5a1 1 0 0 0 1-1V4a1 1 0 0 0-1-1H4Zm4.5 1H4v4.5h4.5V4ZM4 10.5a1 1 0 0 0-1 1V16a1 1 0 0 0 1 1h4.5a1 1 0 0 0 1-1v-4.5a1 1 0 0 0-1-1H4Zm4.5 1H4V16h4.5v-4.5ZM10.5 11.5a1 1 0 0 1 1-1H16a1 1 0 0 1 1 1V16a1 1 0 0 1-1 1h-4.5a1 1 0 0 1-1-1v-4.5Zm1 0H16V16h-4.5v-4.5Z" clip-rule="evenodd"/><path fill="#212124" d="M13.2 3.5a.5.5 0 0 1 1 0v2.25h2.25a.5.5 0 0 1 0 1H14.2V9a.5.5 0 0 1-1 0V6.75h-2.25a.5.5 0 0 1 0-1h2.25V3.5Z"/></svg>