<svg xmlns="http://www.w3.org/2000/svg" fill="none" viewBox="0 0 20 20"><path fill="#212124" fill-rule="evenodd" d="M10 2a.5.5 0 0 0-.5.5v1a.5.5 0 1 0 1 0v-1A.5.5 0 0 0 10 2Zm4 13v-5a4 4 0 0 0-8 0v5h8ZM10 5a5 5 0 0 0-5 5v5a1 1 0 0 0 1 1h8a1 1 0 0 0 1-1v-5a5 5 0 0 0-5-5ZM3 17.5a.5.5 0 0 1 .5-.5h13a.5.5 0 0 1 0 1h-13a.5.5 0 0 1-.5-.5Zm14.5-8a.5.5 0 0 1 0 1h-1a.5.5 0 0 1 0-1h1ZM2 10a.5.5 0 0 0 .5.5h1a.5.5 0 0 0 0-1h-1a.5.5 0 0 0-.5.5Zm12.951-5.656a.5.5 0 0 1 .707.707l-.707.707a.5.5 0 1 1-.707-.707l.707-.707Zm-10.608 0a.5.5 0 0 0 0 .707l.707.707a.5.5 0 1 0 .707-.707l-.707-.707a.5.5 0 0 0-.707 0Zm3.88 9.457.278-.452a2 2 0 0 0 0-2.096l-.278-.452c-.52-.846-.3-1.95.505-2.531l.649-.47-.278.453a2 2 0 0 0 0 2.096l.278.452c.52.845.3 1.95-.505 2.531l-.65.469Zm2.678-.452-.278.452.649-.469a1.896 1.896 0 0 0 .505-2.531l-.278-.452a2 2 0 0 1 0-2.096l.278-.452-.65.469a1.896 1.896 0 0 0-.504 2.53l.278.453a2 2 0 0 1 0 2.096Z" clip-rule="evenodd"/></svg>