<svg xmlns="http://www.w3.org/2000/svg" fill="none" viewBox="0 0 20 20"><path stroke="#212124" d="M14.5 10c0 2.732-.506 4.338-1.274 5.26-.748.899-1.825 1.24-3.226 1.24-1.4 0-2.477-.341-3.225-1.24C6.006 14.338 5.5 12.732 5.5 10c0-2.732.506-4.338 1.275-5.26C7.523 3.84 8.6 3.5 10 3.5c1.4 0 2.477.341 3.225 1.24.768.922 1.274 2.528 1.274 5.26Z"/><mask id="a" fill="#fff"><path fill-rule="evenodd" d="M9.435 10 7.32 7.916l.613-.602L9.618 8.97V5l3.062 3.012L10.658 10l2.022 1.989-3.062 3.012v-3.97l-1.684 1.656-.613-.602L9.435 10Zm1.042 2.944.978-.962-.977-.96v1.922Zm0-5.887.978.961-.977.961V7.057Z" clip-rule="evenodd"/></mask><path fill="#212124" fill-rule="evenodd" d="M9.435 10 7.32 7.916l.613-.602L9.618 8.97V5l3.062 3.012L10.658 10l2.022 1.989-3.062 3.012v-3.97l-1.684 1.656-.613-.602L9.435 10Zm1.042 2.944.978-.962-.977-.96v1.922Zm0-5.887.978.961-.977.961V7.057Z" clip-rule="evenodd"/><path fill="#212124" d="m9.435 10 .07.072.072-.072-.072-.07-.07.07ZM7.32 7.916l-.07-.071-.072.07.072.072.07-.071Zm.613-.602.07-.072-.07-.069-.07.07.07.07ZM9.618 8.97l-.07.071.17.168V8.97h-.1Zm0-3.97.07-.071-.17-.168V5h.1Zm3.062 3.012.07.07.072-.07-.072-.072-.07.072ZM10.658 10l-.07-.071-.073.071.072.072.07-.072Zm2.022 1.989.07.071.072-.071-.072-.071-.07.071Zm-3.062 3.012h-.1v.238l.17-.167-.07-.071Zm0-3.97h.1v-.24l-.17.168.07.071Zm-1.684 1.656-.07.071.07.07.07-.07-.07-.071Zm-.613-.602-.07-.072-.072.072.072.07.07-.07Zm3.156.859h-.1v.239l.17-.168-.07-.071Zm.978-.962.07.072.073-.072-.073-.07-.07.07Zm-.977-.96.07-.072-.17-.167v.238h.1Zm.977-3.004.07.072.073-.072-.073-.071-.07.071Zm-.977.961h-.1v.239l.17-.168-.07-.07Zm-.973.95L7.392 7.845l-.14.142 2.112 2.085.14-.143ZM7.39 7.987l.613-.602-.14-.143-.613.603.14.142Zm.473-.602L9.548 9.04l.14-.142-1.684-1.657-.14.143ZM9.718 8.97V5h-.2v3.97h.2Zm-.17-3.899 3.061 3.012.14-.143L9.689 4.93l-.14.142Zm3.061 2.87-2.021 1.988.14.143 2.022-1.99-.14-.142Zm-2.021 2.13 2.021 1.99.14-.143-2.021-1.989-.14.143Zm2.021 1.847-3.061 3.011.14.143 3.062-3.012-.14-.142ZM9.718 15v-3.97h-.2V15h.2Zm-.17-4.042-1.684 1.657.14.142 1.684-1.656-.14-.143Zm-1.544 1.657-.613-.603-.14.143.613.602.14-.142Zm-.612-.46 2.113-2.085-.14-.142-2.114 2.084.14.143Zm3.156.86.977-.962-.14-.143-.978.962.14.142Zm.977-1.105-.976-.96-.14.142.976.96.14-.142Zm-1.147-.89v1.923h.2v-1.923h-.2Zm.03-3.893.977.962.14-.143-.977-.962-.14.143Zm.977.819-.977.96.14.143.977-.96-.14-.143Zm-.807 1.032V7.057h-.2v1.922h.2Z" mask="url(#a)"/></svg>