<svg xmlns="http://www.w3.org/2000/svg" fill="none" viewBox="0 0 20 20"><path fill="#212124" fill-rule="evenodd" d="M16 7V4H4v12h12v-5.5a.5.5 0 0 1 1 0V16a1 1 0 0 1-1 1H4a1 1 0 0 1-1-1V4a1 1 0 0 1 1-1h12a1 1 0 0 1 1 1v3a1 1 0 0 1-1 1H6.5a.5.5 0 0 1 0-1H16Zm-9.25 4a.75.75 0 1 0 0-1.5.75.75 0 0 0 0 1.5Zm4-.75a.75.75 0 1 1-1.5 0 .75.75 0 0 1 1.5 0Zm2.5.75a.75.75 0 1 0 0-1.5.75.75 0 0 0 0 1.5ZM7.5 13.25a.75.75 0 1 1-1.5 0 .75.75 0 0 1 1.5 0ZM10 14a.75.75 0 1 0 0-1.5.75.75 0 0 0 0 1.5Zm4-.75a.75.75 0 1 1-1.5 0 .75.75 0 0 1 1.5 0Z" clip-rule="evenodd"/></svg>