<svg xmlns="http://www.w3.org/2000/svg" fill="none" viewBox="0 0 16 16"><path fill="#212124" fill-rule="evenodd" d="M14.633 8c0 1.36-.406 2.626-1.106 3.68a.337.337 0 0 1-.514.053.333.333 0 0 1-.04-.42 5.93 5.93 0 0 0 1-3.307c0-3.306-2.693-6-6-6A5.885 5.885 0 0 0 4.653 3a.332.332 0 1 1-.366-.554 6.565 6.565 0 0 1 3.68-1.113A6.669 6.669 0 0 1 14.633 8ZM4.127 6c.186 0 .353.073.473.193.12.12.193.287.193.473 0 .54.094 1.054.267 1.534L4.053 9.52a6.117 6.117 0 0 0 2.407 2.413l.867-.867c.44.025.788.058 1.088.087.349.033.631.06.918.06.18 0 .354.073.474.193.12.12.193.287.193.474v1.453c0 .18-.073.353-.193.473a.665.665 0 0 1-.474.194 7.31 7.31 0 0 1-5.186-2.147A7.31 7.31 0 0 1 2 6.666c0-.186.073-.353.193-.473A.665.665 0 0 1 2.667 6h1.46Zm0-.667h-1.46c-.354 0-.694.14-.94.393a1.31 1.31 0 0 0-.394.94c0 2.14.834 4.147 2.34 5.66a7.968 7.968 0 0 0 5.66 2.34c.354 0 .694-.14.94-.393.254-.253.394-.587.394-.94V11.88c0-.354-.14-.694-.394-.94a1.322 1.322 0 0 0-.94-.394c-.211 0-.427-.017-.683-.038l-.183-.015-.138-.012a32.538 32.538 0 0 0-.97-.075l-.3-.013-.212.213-.494.494a5.364 5.364 0 0 1-1.5-1.527l.734-.967.22-.286-.127-.34a3.993 3.993 0 0 1-.22-1.314c0-.353-.14-.693-.393-.94a1.322 1.322 0 0 0-.94-.393Zm7.466 4.353c.24-.513.374-1.086.374-1.686 0-2.207-1.794-4-4-4-.607 0-1.174.133-1.694.366a.335.335 0 0 0 .287.607 3.33 3.33 0 0 1 1.567-.307c1.7.087 3.086 1.467 3.166 3.167a3.33 3.33 0 0 1-.306 1.567.336.336 0 0 0 .606.286Z" clip-rule="evenodd"/></svg>