<svg xmlns="http://www.w3.org/2000/svg" fill="none" viewBox="0 0 20 20"><path fill="#212124" fill-rule="evenodd" d="M10 3a7 7 0 0 1 7 7v6.5a.5.5 0 0 1-1 0v-2.209a7.977 7.977 0 0 1-5.793 2.706h-.001a7.075 7.075 0 0 1-.412 0H9.79A7.978 7.978 0 0 1 4 14.291V16.5a.5.5 0 0 1-1 0V10a6.898 6.898 0 0 1 .072-1A7 7 0 0 1 10 3Zm.454 12.983A6.998 6.998 0 0 0 16 12.602V10c0-3.308-2.691-6-6-6-3.308 0-6 2.692-6 6v2.602a6.998 6.998 0 0 0 6.454 3.381ZM10 6.5c1.93 0 3.5 1.57 3.5 3.5s-1.57 3.5-3.5 3.5-3.5-1.57-3.5-3.5S8.07 6.5 10 6.5Zm0-1a4.5 4.5 0 1 0 0 9 4.5 4.5 0 0 0 0-9Zm0 3.75a.75.75 0 1 1 0 1.5.75.75 0 0 1 0-1.5Zm0-1a1.75 1.75 0 1 0 .001 3.501A1.75 1.75 0 0 0 10 8.25Z" clip-rule="evenodd"/></svg>