<svg xmlns="http://www.w3.org/2000/svg" fill="none" viewBox="0 0 20 20"><path fill="#212124" fill-rule="evenodd" d="M8.586 7.172a.5.5 0 0 0 .707 0l2.536-2.535a2.503 2.503 0 0 1 3.535 0 2.503 2.503 0 0 1 0 3.536l-2.535 2.535a.5.5 0 0 0 .707.707l2.536-2.535a3.5 3.5 0 1 0-4.95-4.95L8.585 6.465a.5.5 0 0 0 0 .707Zm2.828 5.657a.5.5 0 0 0-.707 0l-2.535 2.535a2.503 2.503 0 0 1-3.536 0 2.503 2.503 0 0 1 0-3.536L7.17 9.293a.5.5 0 0 0-.707-.707L3.93 11.12a3.5 3.5 0 1 0 4.95 4.95l2.535-2.535a.5.5 0 0 0 0-.707Zm-4.95.001 6.364-6.364a.5.5 0 0 1 .707.707L7.17 13.537a.5.5 0 1 1-.707-.707Z" clip-rule="evenodd"/></svg>