<svg xmlns="http://www.w3.org/2000/svg" fill="none" viewBox="0 0 20 20"><path fill="#212124" fill-rule="evenodd" d="M17 7.5v-4c0-.28-.22-.5-.5-.5h-4c-.28 0-.5.22-.5.5s.22.5.5.5H16v3.5c0 .28.22.5.5.5s.5-.22.5-.5Zm-14 9v-4c0-.28.22-.5.5-.5s.5.22.5.5V16h3.5c.28 0 .5.22.5.5s-.22.5-.5.5h-4c-.28 0-.5-.22-.5-.5Zm14 0v-4c0-.28-.22-.5-.5-.5s-.5.22-.5.5V16h-3.5c-.28 0-.5.22-.5.5s.22.5.5.5h4c.28 0 .5-.22.5-.5ZM3 3.5v4c0 .28.22.5.5.5s.5-.22.5-.5V4h3.5c.28 0 .5-.22.5-.5S7.78 3 7.5 3h-4c-.28 0-.5.22-.5.5Z" clip-rule="evenodd"/></svg>