<svg xmlns="http://www.w3.org/2000/svg" fill="none" viewBox="0 0 20 20"><path fill="#212124" fill-rule="evenodd" d="M10.65 4.447c-.039-.037-.113-.037-.15-.037-.075 0-.112 0-.187.037l-.037.037.015.075c.032.154.06.291.06.484 0 .112 0 .224-.038.373l.187-.075 4.547 2.087L10.5 9.515 8.339 8.51H6.363l3.95 1.826c.03.03.084.036.142.037h.045c.075 0 .111 0 .186-.037l5.553-2.571a.41.41 0 0 0 .223-.373c0-.149-.111-.298-.223-.373l-5.59-2.57Zm-5.405 2.72V4h-.708v3.764h2.199v-.596h-1.49Zm1.752-.707.559-.597H7.37l-1.305.597h.932ZM16.5 9.963a.414.414 0 0 0-.41-.41c-.075 0-.112 0-.187.037l-5.366 2.497L5.096 9.59c-.037-.037-.112-.037-.186-.037a.414.414 0 0 0-.41.41c.032.13.094.26.208.341l.053.031 5.552 2.572c.038.037.112.037.187.037s.111 0 .186-.037l5.553-2.572c.149-.074.261-.223.261-.372Zm-.392 2.136-.055-.012c-.075 0-.15 0-.187.037L10.5 14.621l-5.367-2.497c-.037-.037-.112-.037-.186-.037a.414.414 0 0 0-.41.41c0 .149.112.298.224.373l5.553 2.571c.037.037.111.037.186.037s.111 0 .186-.037l5.553-2.572c.149-.074.26-.223.26-.372a.562.562 0 0 0-.391-.398ZM9.755 5.458a.868.868 0 0 0 .206-.585.741.741 0 0 0-.327-.641C9.417 4.078 9.12 4 8.744 4c-.458 0-.852.12-1.184.36l.356.535a1.78 1.78 0 0 1 .41-.208c.123-.04.245-.06.364-.06.344 0 .517.138.517.416 0 .18-.066.308-.197.384-.129.073-.334.11-.615.11h-.28v.594h.275c.304 0 .526.036.665.108.14.072.209.194.209.366 0 .192-.06.332-.182.419-.12.087-.307.13-.56.13-.166 0-.333-.022-.502-.067a2.354 2.354 0 0 1-.464-.176v.66c.304.132.653.198 1.047.198.47 0 .832-.098 1.085-.294.253-.197.38-.472.38-.825 0-.242-.075-.434-.226-.576-.15-.144-.372-.234-.665-.271v-.015c.248-.06.44-.17.578-.331Z" clip-rule="evenodd"/></svg>