<svg xmlns="http://www.w3.org/2000/svg" fill="none" viewBox="0 0 20 20"><path fill="#212124" fill-rule="evenodd" d="M10.486 3.5v-1a.5.5 0 0 0-1 0v1a.5.5 0 0 0 1 0ZM6.19 4.698l-.643-.766a.5.5 0 0 0-.766.642l.643.766a.499.499 0 1 0 .766-.642ZM2.687 8.207l.985.174a.5.5 0 1 1-.173.985l-.986-.174a.5.5 0 1 1 .174-.985Zm1.42 4.61-.867.5a.5.5 0 0 0 .5.866l.866-.5a.5.5 0 0 0-.5-.866Zm12.123 1.366-.866-.5a.5.5 0 0 1 .5-.866l.866.5a.5.5 0 0 1-.5.866Zm.244-4.817.985-.174a.5.5 0 1 0-.173-.985l-.985.174a.5.5 0 1 0 .173.985Zm-1.285-4.79-.643.767a.5.5 0 1 1-.766-.642l.643-.766a.5.5 0 1 1 .766.642Zm-5.406.428a5 5 0 0 1 3.926 8.331.897.897 0 0 0-.224.6V16a2 2 0 0 1-2 2h-3a1.999 1.999 0 0 1-2-2v-2.07a.917.917 0 0 0-.237-.609A4.979 4.979 0 0 1 4.99 9.766c.117-2.573 2.22-4.661 4.793-4.762ZM8.485 17h3c.37 0 .693-.202.866-.5H7.62c.173.298.497.5.866.5Zm-1-1.5h5v-1h-5v1Zm5.05-2c.07-.31.217-.596.43-.833A3.985 3.985 0 0 0 13.985 10a4.004 4.004 0 0 0-4.163-3.997A4.02 4.02 0 0 0 5.99 9.812a3.981 3.981 0 0 0 1.006 2.844c.217.244.368.535.44.844h2.05v-2a.5.5 0 0 1 1 0v2h2.05Z" clip-rule="evenodd"/></svg>