<svg xmlns="http://www.w3.org/2000/svg" fill="none" viewBox="0 0 18 18"><path fill="#494949" fill-rule="evenodd" d="M0 1a1 1 0 0 1 1-1h16a1 1 0 0 1 1 1v16a1 1 0 0 1-1 1H1a1 1 0 0 1-1-1V1Zm14.8 0h-2l-.6 3h2l.6-3Zm-3 0h-2l-.6 3h2l.6-3Zm-3 0h-2l-.6 3h2l.6-3Zm-3 0h-2l-.6 3h2l.6-3Zm-3 0H1v3h1.2l.6-3ZM1 17h16V5H1v12ZM15.8 1l-.6 3H17V1h-1.2ZM11 10.55 8 8.82v3.46l3-1.73Zm-4-2.6c0-.29.24-.5.5-.5.09 0 .17.02.25.06l4.5 2.6c.33.2.33.68 0 .87l-4.5 2.6c-.08.05-.17.07-.25.07-.26 0-.5-.21-.5-.5v-5.2Z" clip-rule="evenodd"/></svg>