<svg xmlns="http://www.w3.org/2000/svg" fill="none" viewBox="0 0 20 20"><path fill="#212124" fill-rule="evenodd" d="M11.5 4c0 .081-.006.16-.019.238l3.017 1.646A1.5 1.5 0 1 1 16 8.414v3.171a1.5 1.5 0 1 1-1.502 2.531l-3.017 1.646a1.5 1.5 0 1 1-2.962 0l-3.017-1.646A1.5 1.5 0 1 1 4 11.586V8.414a1.5 1.5 0 1 1 1.502-2.531L8.52 4.238A1.5 1.5 0 1 1 11.5 4Zm-.498 1.116c-.145.13-.315.232-.502.299V7.55a2.512 2.512 0 0 0-1 0V5.415a1.499 1.499 0 0 1-.502-.299L5.98 6.762a1.511 1.511 0 0 1 0 .476l3.017 1.646A1.494 1.494 0 0 1 10 8.5c.385 0 .736.145 1.002.384l3.017-1.646a1.51 1.51 0 0 1 0-.476l-3.017-1.646Zm-5.5 3A1.5 1.5 0 0 1 5 8.415v3.17c.187.066.357.169.502.299l2.108-1.15c.1.326.264.624.479.878l-2.108 1.15a1.513 1.513 0 0 1 0 .476l3.017 1.646c.145-.13.315-.232.502-.299v-3.17a1.5 1.5 0 0 1-.981-1.653L5.502 8.116Zm4.998 6.47c.187.066.357.168.502.298l3.017-1.646a1.512 1.512 0 0 1 0-.476l-2.108-1.15c.215-.254.38-.552.48-.878l2.107 1.15a1.5 1.5 0 0 1 .502-.299v-3.17a1.499 1.499 0 0 1-.502-.299L11.48 9.762a1.5 1.5 0 0 1-.981 1.653v3.17ZM10 4.5a.5.5 0 1 0 0-1 .5.5 0 0 0 0 1Zm5.5 3a.5.5 0 1 0 0-1 .5.5 0 0 0 0 1ZM16 13a.5.5 0 1 1-1 0 .5.5 0 0 1 1 0Zm-6 3.5a.5.5 0 1 0 0-1 .5.5 0 0 0 0 1ZM5 13a.5.5 0 1 1-1 0 .5.5 0 0 1 1 0Zm-.5-5.5a.5.5 0 1 0 0-1 .5.5 0 0 0 0 1Zm6 2.5a.5.5 0 1 1-1 0 .5.5 0 0 1 1 0Z" clip-rule="evenodd"/></svg>