<svg xmlns="http://www.w3.org/2000/svg" fill="none" viewBox="0 0 20 20"><path fill="#212124" fill-rule="evenodd" d="M10.5 2.5a.5.5 0 0 0-1 0v3.094L6.953 3.047a.5.5 0 0 0-.707.707L9.5 7.008V9.5H7.007L3.754 6.247a.5.5 0 1 0-.707.707L5.593 9.5H2.5a.5.5 0 0 0 0 1h3.094l-2.547 2.547a.5.5 0 0 0 .707.707L7.008 10.5H9.5v2.493l-3.253 3.253a.5.5 0 1 0 .707.707L9.5 14.407V17.5a.5.5 0 0 0 1 0v-3.094l2.547 2.547a.5.5 0 0 0 .707-.707L10.5 12.992V10.5h2.493l3.253 3.253a.5.5 0 0 0 .707-.707L14.407 10.5H17.5a.5.5 0 0 0 0-1h-3.094l2.547-2.547a.5.5 0 0 0-.707-.707L12.992 9.5H10.5V7.007l3.253-3.253a.5.5 0 0 0-.707-.707L10.5 5.593V2.5Z" clip-rule="evenodd"/></svg>