<svg xmlns="http://www.w3.org/2000/svg" fill="none" viewBox="0 0 20 21"><path fill="#212124" d="m16 6.382-5.556-2.777a.99.99 0 0 0-.888 0L6.778 4.994l-1.123.561L4 6.382l-.444.222c-.341.17-.556.52-.556.903v5.87c0 .384.215.734.556.904L10 17.5l2.75-1.373 1-.5 2.694-1.347c.341-.17.556-.52.556-.903v-5.87a1.01 1.01 0 0 0-.556-.903L16 6.382ZM10 4.51l5.829 2.912-2.128 1.062-5.803-2.925L10 4.508Zm-.5 11.617L4 13.376V8.46l5.5 2.749v4.918ZM4.171 7.42 6.775 6.12l5.803 2.925L10 10.333 4.171 7.42ZM16 13.377 13.75 14.5l-1 .5-2.25 1.125v-4.918l2.25-1.124v1.87c0 .278.224.504.5.504s.5-.226.5-.504v-2.37L16 8.459v4.918Z"/></svg>