<svg xmlns="http://www.w3.org/2000/svg" fill="none" viewBox="0 0 20 20"><g stroke="#212124" clip-path="url(#a)"><path fill="#212124" stroke-width=".1" d="m7.336 4.315.017.047a8.546 8.546 0 0 1 5.22-.118l.04 1.743c.005.215.124.4.316.495h.001c.61.29 1.17.678 1.666 1.151a.56.56 0 0 0 .791-.018l1.355-1.418a.56.56 0 0 0-.018-.791c-3.797-3.628-9.837-3.49-13.465.307a.56.56 0 0 0 .018.792l1.414 1.35a.56.56 0 0 0 .792-.018 6.38 6.38 0 0 1 1.611-1.226.557.557 0 0 0 .298-.505l-.04-1.742c0-.001 0-.002.002-.002l-.018-.047Zm0 0a.052.052 0 0 0-.033.05l.04 1.742a.507.507 0 0 1-.272.46 6.43 6.43 0 0 0-1.625 1.236.51.51 0 0 1-.72.016L3.311 6.47a.51.51 0 0 1-.017-.721c3.61-3.777 9.617-3.915 13.395-.306a.51.51 0 0 1 .016.72L15.35 7.582a.51.51 0 0 1-.72.016 6.423 6.423 0 0 0-1.68-1.16.509.509 0 0 1-.289-.451l-.038-1.743a.05.05 0 0 0-.037-.047 8.596 8.596 0 0 0-5.25.12Zm.183 3.1a5.46 5.46 0 0 0-1.38 1.05 1.47 1.47 0 0 1-2.075.047L2.65 7.162a1.47 1.47 0 0 1-.048-2.077C6.576.926 13.192.775 17.352 4.75c.584.56.606 1.49.047 2.076l-1.355 1.418a1.47 1.47 0 0 1-2.076.047 5.449 5.449 0 0 0-1.428-.987l-.012-.006a1.473 1.473 0 0 1-.824-1.29l-.022-1.013v-.04l-.04-.008a7.669 7.669 0 0 0-3.326.078l-.039.01.001.04.022 1.01a1.474 1.474 0 0 1-.781 1.331Z"/><circle cx="9.922" cy="14.537" r=".5" fill="#212124" stroke-width=".138"/><circle cx="9.922" cy="9.464" r=".5" fill="#212124" stroke-width=".138"/><circle cx="12.536" cy="12.001" r=".5" fill="#212124" stroke-width=".138"/><circle cx="7.463" cy="12.001" r=".5" fill="#212124" stroke-width=".138"/><circle cx="8.152" cy="13.739" r=".5" fill="#212124" stroke-width=".138" transform="rotate(45 8.152 13.74)"/><circle cx="11.738" cy="10.152" r=".5" fill="#212124" stroke-width=".138" transform="rotate(45 11.738 10.152)"/><circle cx="11.794" cy="13.794" r=".5" fill="#212124" stroke-width=".138" transform="rotate(45 11.794 13.794)"/><circle cx="8.207" cy="10.207" r=".5" fill="#212124" stroke-width=".138" transform="rotate(45 8.207 10.207)"/><path stroke-linecap="round" stroke-linejoin="round" d="m15.322 10.3.892 2.947a3 3 0 0 1-2.872 3.87H9.95"/><path stroke-linecap="round" stroke-linejoin="round" d="m4.638 10.3-.892 2.947a3 3 0 0 0 2.87 3.87h3.395"/></g><defs><clipPath id="a"><path fill="#fff" d="M0 0h20v20H0z"/></clipPath></defs></svg>