<svg xmlns="http://www.w3.org/2000/svg" fill="none" viewBox="0 0 20 20"><path fill="#212124" fill-rule="evenodd" d="M16.375 7.625v-1.25h1.25c.21 0 .375-.165.375-.375a.371.371 0 0 0-.375-.375h-1.25v-1.25A.371.371 0 0 0 16 4a.371.371 0 0 0-.375.375v1.25h-1.25A.371.371 0 0 0 14 6c0 .21.165.375.375.375h1.25v1.25c0 .21.165.375.375.375s.375-.165.375-.375Zm-7.159 3.497-.734 4.482c-.055.34.373.537.598.276l5.573-6.458a.34.34 0 0 0-.26-.562l-3.654.004.765-4.465c.058-.34-.371-.54-.597-.279l-5.561 6.445a.34.34 0 0 0 .26.562l3.61-.005Z" clip-rule="evenodd"/></svg>