<svg xmlns="http://www.w3.org/2000/svg" fill="none" viewBox="0 0 20 20"><path fill="#212124" fill-rule="evenodd" d="M15 3H5v14h10V3ZM5 2a1 1 0 0 0-1 1v14a1 1 0 0 0 1 1h10a1 1 0 0 0 1-1V3a1 1 0 0 0-1-1H5Z" clip-rule="evenodd"/><path fill="#212124" fill-rule="evenodd" d="M13.5 5c0-.552-.392-1-.875-1h-5.25c-.483 0-.875.448-.875 1v1c0 .552.392 1 .875 1h5.25c.483 0 .875-.448.875-1V5Zm-6 0h5v1h-5V5Zm6 5.75c0-.414-.392-.75-.875-.75h-5.25c-.483 0-.875.336-.875.75v1.5c0 .414.392.75.875.75h5.25c.483 0 .875-.336.875-.75v-1.5Zm-6 .25h5v1h-5v-1Zm6-2.5A.5.5 0 0 0 13 8H7a.5.5 0 0 0 0 1h6a.5.5 0 0 0 .5-.5ZM13 14a.5.5 0 0 1 0 1H7a.5.5 0 0 1 0-1h6Z" clip-rule="evenodd"/></svg>