<svg xmlns="http://www.w3.org/2000/svg" fill="none" viewBox="0 0 20 20"><path fill="#212124" fill-rule="evenodd" d="M11 4.001a1 1 0 1 1-2 0 1 1 0 0 1 2 0Zm1 0a2 2 0 0 1-3.83.808A5.505 5.505 0 0 0 4.518 9.5a.535.535 0 0 1-.52.497.47.47 0 0 1-.479-.497 6.5 6.5 0 0 1 4.49-5.688A2 2 0 0 1 12 4.001Zm3.178 4.13c.337.933.414 1.934.23 2.898a2 2 0 1 0 .938.379 6.5 6.5 0 0 0-2.643-6.75.47.47 0 0 0-.67.162.535.535 0 0 0 .166.7 5.505 5.505 0 0 1 1.98 2.611ZM5.61 14.794a2 2 0 1 1 .796-.623 5.506 5.506 0 0 0 5.858.848.535.535 0 0 1 .689.209.47.47 0 0 1-.198.66 6.5 6.5 0 0 1-7.145-1.094Zm9.544-.781a1 1 0 1 0 0-2 1 1 0 0 0 0 2Zm-9.337-1.056a1 1 0 1 1-2 0 1 1 0 0 1 2 0Z" clip-rule="evenodd"/></svg>