<svg xmlns="http://www.w3.org/2000/svg" fill="none" viewBox="0 0 20 20"><path fill="#212124" fill-rule="evenodd" d="M9.5 17.5c-.513 0-1.194-.199-1.965-.612-.759-.406-1.547-.99-2.26-1.679-1.466-1.417-2.442-3.106-2.442-4.45V4.18l.007-.01a.065.065 0 0 1 .043-.018c1.463-.089 4.223-.43 6.572-1.672a.098.098 0 0 1 .09 0c2.349 1.242 5.109 1.583 6.572 1.672a.065.065 0 0 1 .043.019l.006.01V10.757c0 1.345-.975 3.034-2.44 4.451-.714.69-1.502 1.273-2.261 1.68-.771.412-1.452.61-1.965.61Zm0 .833c-2.813 0-7.5-4.208-7.5-7.575V4.183c0-.46.372-.834.832-.862 1.425-.086 4.043-.418 6.233-1.577a.93.93 0 0 1 .87 0c2.19 1.16 4.808 1.49 6.233 1.577.46.028.832.402.832.862v6.575c0 3.367-4.688 7.575-7.5 7.575Z" clip-rule="evenodd"/></svg>