<svg xmlns="http://www.w3.org/2000/svg" fill="none" viewBox="0 0 20 20"><path fill="#212124" fill-rule="evenodd" d="M10 7.88V3.779a.698.698 0 0 0-.024-.183.787.787 0 0 0-.064-.165l-.03-.05a1.214 1.214 0 0 0-.052-.073l-.03-.033-.03-.032-.003-.003a1.627 1.627 0 0 0-.042-.037.172.172 0 0 0-.03-.024.369.369 0 0 0-.04-.028.302.302 0 0 0-.052-.032.729.729 0 0 0-.206-.086l-.009-.002a.435.435 0 0 0-.059-.014l-.02-.003a.827.827 0 0 0-.279-.003l-.038.007-.007.001a.678.678 0 0 0-.086.022l-.043.015-.043.017a.48.48 0 0 0-.084.043.828.828 0 0 0-.109.074L6.777 4.66l.712.711L9 4.165v2.717l1 .999Zm3.163 4.574 3.671 3.668c.21.21.223.538.027.733-.195.196-.524.183-.734-.027l-1.469-1.468a6.87 6.87 0 0 1-.79.624 6.853 6.853 0 0 1-2.252 1.002.506.506 0 0 1-.616-.5c0-.118.04-.229.107-.316a.5.5 0 0 1 .276-.181 5.868 5.868 0 0 0 1.748-.742c.285-.178.555-.381.806-.607l-1.483-1.482a3.979 3.979 0 0 1-.727.447.501.501 0 0 1-.715-.454l.001-.02a.494.494 0 0 1 .283-.43c.155-.073.303-.16.442-.258L10 10.706v5.503a.714.714 0 0 1-.006.093c-.003.024-.008.048-.013.072a.647.647 0 0 1-.119.262v.001l-.049.061-.024.026-.012.013a.575.575 0 0 1-.103.087l-.012.009a.018.018 0 0 1-.007.005l-.033.021-.019.011a.74.74 0 0 1-.225.09l-.002.001h-.002l-.002.001h-.003c-.02.006-.04.01-.06.014H9.3a1.368 1.368 0 0 1-.14.012.923.923 0 0 1-.149-.012l-.063-.014a.93.93 0 0 1-.204-.08l-.003-.002-.004-.002a.03.03 0 0 1-.007-.005l-.006-.003-.006-.003-.007-.005-.007-.004-.016-.01-.009-.006a.564.564 0 0 1-.063-.046L5.14 13.99H4a.94.94 0 0 1-.153-.011l-.038-.006-.017-.004a.541.541 0 0 0-.02-.005l-.022-.005a.055.055 0 0 1-.017-.005l-.039-.011a1.006 1.006 0 0 1-.292-.151l-.007-.005-.045-.036-.003-.003a.864.864 0 0 1-.174-.196.99.99 0 0 1-.157-.384l-.004-.025A.904.904 0 0 1 3 12.991v-6a1.2 1.2 0 0 1 .02-.198.99.99 0 0 1 .308-.542l.02-.018.002-.002a.99.99 0 0 1 .045-.036l.006-.005h.001a1.002 1.002 0 0 1 .348-.167l.021-.005.021-.006.017-.003.038-.006h.003l.01-.001L3.875 6A.853.853 0 0 1 4 5.991h1.112l.094-.075-2.04-2.038c-.21-.21-.223-.538-.027-.733a.48.48 0 0 1 .342-.14c.14 0 .282.057.392.167l2.12 2.117.71.71L10 9.293l2.448 2.446.715.715Zm-7.396.76L9 15.82V9.707l-3.082-3.08-.18.145-.275.218H4v6.001h1.492l.275.222Zm11.234-3.206c0 1.398-.39 2.701-1.065 3.804l-.737-.736c.51-.903.802-1.951.802-3.068 0-2.903-1.973-5.342-4.617-5.983a.51.51 0 0 1-.383-.497.51.51 0 0 1 .501-.514.51.51 0 0 1 .115.014c3.087.746 5.384 3.589 5.384 6.98Zm-3.311 1.559a3.996 3.996 0 0 0-1.962-5.186.503.503 0 0 0-.715.454.5.5 0 0 0 .284.45 2.996 2.996 0 0 1 1.609 3.498l.784.784Z" clip-rule="evenodd"/></svg>