<svg xmlns="http://www.w3.org/2000/svg" fill="none" viewBox="0 0 20 20"><path fill="#212124" fill-rule="evenodd" d="M5 2.999h10v14h-1v-2a1 1 0 0 0-1-1H7a1 1 0 0 0-1 1v2H5v-14Zm2 14h.5v-.5a.5.5 0 0 1 1 0v.5h1v-.5a.5.5 0 0 1 1 0v.5h1v-.5a.5.5 0 1 1 1 0v.5h.5v-2H7v2Zm3 1h5a1 1 0 0 0 1-1v-14a1 1 0 0 0-1-1H5a1 1 0 0 0-1 1v14a1 1 0 0 0 1 1h5Zm-4-13.5a.5.5 0 1 0 0-1 .5.5 0 0 0 0 1Zm.5 8.5a.5.5 0 1 1-1 0 .5.5 0 0 1 1 0Zm7.5-8.5a.5.5 0 1 0 0-1 .5.5 0 0 0 0 1Zm.5 8.5a.5.5 0 1 1-1 0 .5.5 0 0 1 1 0Zm-6.5-7h4v5H8v-5Zm-1 0a1 1 0 0 1 1-1h4a1 1 0 0 1 1 1v5a1 1 0 0 1-1 1H8a1 1 0 0 1-1-1v-5Z" clip-rule="evenodd"/></svg>