<svg xmlns="http://www.w3.org/2000/svg" fill="none" viewBox="0 0 20 20"><path fill="#212124" fill-rule="evenodd" d="M13.092 2.62c.318.133.38.543.137.787a.537.537 0 0 1-.584.11A7 7 0 0 0 3 10v.5a.5.5 0 0 1-1 0V10a8 8 0 0 1 11.092-7.38Zm1.954 1.798a.528.528 0 0 0 .007.737A6.977 6.977 0 0 1 17 10v2.5a.5.5 0 0 0 1 0V10a7.974 7.974 0 0 0-2.275-5.588.476.476 0 0 0-.678.006ZM2.5 13a.5.5 0 0 1 .5.5v1a.5.5 0 0 1-1 0v-1a.5.5 0 0 1 .5-.5Zm3.735-7.672C6.556 5.07 7 5.32 7 5.732a.57.57 0 0 1-.21.434A4.99 4.99 0 0 0 5 10v5.5a.5.5 0 0 1-1 0V10c0-1.888.872-3.572 2.235-4.672ZM15 10.5a.5.5 0 0 0 1 0V10a6 6 0 0 0-6.588-5.972.465.465 0 0 0-.412.47c0 .311.285.543.595.518A5 5 0 0 1 15 10v.5Zm0 3a.5.5 0 0 1 1 0v2a.5.5 0 0 1-1 0v-2Zm-3-5.988c0-.434.466-.691.778-.39A3.988 3.988 0 0 1 14 10v6.53c0 .2-.089.372-.27.457a.513.513 0 0 1-.73-.457V10a2.99 2.99 0 0 0-.82-2.06.628.628 0 0 1-.18-.428Zm-2.498-.47c.272-.046.498-.266.498-.542s-.225-.503-.499-.47A4 4 0 0 0 6 10v.5a.5.5 0 0 0 1 0V10a3 3 0 0 1 2.502-2.959ZM7 13.5a.5.5 0 0 0-1 0v3.001c0 .199.087.37.267.455A.513.513 0 0 0 7 16.501V13.5Zm4 2.1a.5.5 0 0 1 1 0v.4a2 2 0 1 1-4 0v-2.5a.5.5 0 0 1 1 0V16a1 1 0 1 0 2 0v-.4Zm.5-2.5a.5.5 0 0 1-.5-.5V10a1 1 0 1 0-2 0v.5a.5.5 0 0 1-1 0V10a2 2 0 1 1 4 0v2.6a.5.5 0 0 1-.5.5Z" clip-rule="evenodd"/></svg>