<svg xmlns="http://www.w3.org/2000/svg" fill="none" viewBox="0 0 18 17"><path fill="#494949" fill-rule="evenodd" d="M7.12 1c1.654 0 3 1.346 3 3s-1.346 3-3 3-3-1.346-3-3 1.345-3 3-3Zm0-1a4 4 0 1 0 0 8 4 4 0 0 0 0-8Zm4.705 2.307a2.8 2.8 0 1 1-.613 4.562c.2-.284.371-.59.51-.913.33.394.824.644 1.377.644.992 0 1.8-.807 1.8-1.8a1.802 1.802 0 0 0-2.825-1.479 4.961 4.961 0 0 0-.249-1.014Zm5.89 8.421c.046.067.091.136.134.205a.996.996 0 0 1-.194 1.281 6.978 6.978 0 0 1-2.415 1.352 1.988 1.988 0 0 0-.253-.939l-.002-.004-.005-.009a.5.5 0 0 1-.008-.013 6.012 6.012 0 0 0 2.023-1.143 4.6 4.6 0 0 0-4.999-2.024h-.001a9.14 9.14 0 0 0-1.187-.645 5.563 5.563 0 0 1 2.291-.489c1.915 0 3.606.961 4.616 2.428ZM7.12 9a7.995 7.995 0 0 1 6.993 4.114 1 1 0 0 1-.195 1.22A9.955 9.955 0 0 1 7.12 17a9.955 9.955 0 0 1-6.799-2.667 1 1 0 0 1-.195-1.22A7.995 7.995 0 0 1 7.12 9Zm-6.115 4.597A8.961 8.961 0 0 0 7.12 16a8.961 8.961 0 0 0 6.115-2.403A7.003 7.003 0 0 0 7.12 10a7.003 7.003 0 0 0-6.115 3.597Z" clip-rule="evenodd"/></svg>