<svg xmlns="http://www.w3.org/2000/svg" fill="none" viewBox="0 0 20 20"><path fill="#212124" fill-rule="evenodd" d="M8.767 5.577A.5.5 0 0 0 8 6v5a.5.5 0 0 0 .763.425l4-2.475a.5.5 0 0 0 .004-.848l-4-2.525ZM9 10.103V6.907l2.557 1.614L9 10.103Z" clip-rule="evenodd"/><path fill="#212124" fill-rule="evenodd" d="M4 3a1 1 0 0 0-1 1v9a1 1 0 0 0 1 1h12a1 1 0 0 0 1-1V4a1 1 0 0 0-1-1H4Zm12 1H4v9h12V4Z" clip-rule="evenodd"/><path fill="#212124" d="M5 16.5a.5.5 0 0 1 .5-.5h9a.5.5 0 0 1 0 1h-9a.5.5 0 0 1-.5-.5Z"/></svg>