<svg xmlns="http://www.w3.org/2000/svg" fill="none" viewBox="0 0 20 20"><path fill="#212124" fill-rule="evenodd" d="M4 13.626c1.344 0 2.434 1.063 2.434 2.374H4v-2.374Zm0-3.05c1.181 0 2.276.36 3.176.972.351.456.776.854 1.257 1.179A5.306 5.306 0 0 1 9.56 16H8.107c0-2.212-1.839-4.005-4.107-4.005v-1.418Zm8.383 3.014c.231.764.355 1.573.355 2.41h-1.454c0-.834-.147-1.634-.417-2.377a5.56 5.56 0 0 0 1.516-.033Zm2.928-1.459c.435 1.21.672 2.513.672 3.869H14.53c0-1.035-.157-2.034-.45-2.976.454-.24.868-.541 1.231-.893ZM11.504 4C13.987 4 16 5.963 16 8.385c0 2.421-2.013 4.384-4.496 4.384-2.483 0-4.496-1.963-4.496-4.384C7.008 5.963 9.021 4 11.504 4Zm.12 1.455c-.383 0-.727.073-1.03.218-.303.145-.561.353-.773.624-.212.27-.373.6-.485.988a4.773 4.773 0 0 0-.167 1.319c0 .926.199 1.646.596 2.16.398.514.963.77 1.696.77.326 0 .628-.054.906-.163.277-.109.52-.257.725-.444a1.986 1.986 0 0 0 .49-2.26 1.915 1.915 0 0 0-.45-.62 2.065 2.065 0 0 0-.68-.41 2.414 2.414 0 0 0-.854-.147c-.4 0-.71.095-.927.285.012-.302.099-.535.262-.7.163-.164.385-.247.665-.247.365 0 .691.125.98.374l.085.078.902-1.021c-.55-.536-1.197-.804-1.94-.804Zm-.163 3.282c.2 0 .372.069.515.206a.664.664 0 0 1 .215.498c0 .1-.02.197-.06.289a.838.838 0 0 1-.159.243.764.764 0 0 1-.232.167.647.647 0 0 1-.558 0 .764.764 0 0 1-.232-.167.838.838 0 0 1-.159-.243.716.716 0 0 1-.06-.29c0-.195.072-.36.215-.497a.72.72 0 0 1 .515-.206ZM4 7.478c.737 0 1.453.09 2.137.257a5.185 5.185 0 0 0 .025 1.48A7.445 7.445 0 0 0 4 8.894V7.479Zm0-3.165c1.223 0 2.403.179 3.514.51A5.278 5.278 0 0 0 6.65 6.06 10.791 10.791 0 0 0 4 5.73V4.313Z" clip-rule="evenodd"/></svg>