<svg xmlns="http://www.w3.org/2000/svg" fill="none" viewBox="0 0 20 20"><path fill="#212124" d="M16.062 8a.479.479 0 0 1-.035.648.53.53 0 0 1-.773-.044A7.453 7.453 0 0 0 9.586 6a7.472 7.472 0 0 0-5.673 2.601.527.527 0 0 1-.766.046A.476.476 0 0 1 3.11 8 8.474 8.474 0 0 1 9.586 5a8.474 8.474 0 0 1 6.476 3Z"/><path fill="#212124" d="M13.609 10.531a.455.455 0 0 1-.056.592c-.229.228-.614.172-.813-.082a4 4 0 0 0-6.433.167c-.126.18-.386.217-.541.062-.246-.246-.293-.633-.075-.903A4.99 4.99 0 0 1 9.586 8.5c1.651 0 3.115.8 4.023 2.031ZM11.136 13.5a1.5 1.5 0 1 1-3 0 1.5 1.5 0 0 1 3 0Z"/></svg>