<svg xmlns="http://www.w3.org/2000/svg" fill="none" viewBox="0 0 20 20"><path fill="#212124" fill-rule="evenodd" d="M14.5 9.25A5.256 5.256 0 0 0 9.25 4 5.256 5.256 0 0 0 4 9.25a5.256 5.256 0 0 0 5.25 5.25 5.244 5.244 0 0 0 3.404-1.254l.319-.272.273-.319A5.246 5.246 0 0 0 14.5 9.25ZM3 9.25a6.25 6.25 0 1 1 12.5 0 6.221 6.221 0 0 1-1.493 4.054c.012.009.024.02.036.032l2.81 2.81A.499.499 0 0 1 16.5 17a.5.5 0 0 1-.354-.147l-2.81-2.81a.345.345 0 0 1-.032-.036A6.25 6.25 0 0 1 3 9.25Zm6.25-4a.5.5 0 0 1 .5.5v3h3a.5.5 0 0 1 0 1h-3v3a.5.5 0 0 1-1 0v-3h-3a.5.5 0 0 1 0-1h3v-3a.5.5 0 0 1 .5-.5Z" clip-rule="evenodd"/></svg>