<svg xmlns="http://www.w3.org/2000/svg" style="isolation:isolate" viewBox="0 0 799 203"><defs><clipPath id="a"><path d="M0 0h799v203H0z"/></clipPath></defs><g clip-path="url(#a)"><path d="M-1845.077 899.992h336.61v336.61h-336.61z" style="fill:#f0f0f0;stroke:none;stroke-miterlimit:10"/><g fill="#4e5372"><path d="M-1759.8 242.9V97.7h16.9v79.1l46.6-42.1 11.4 12.7-45.7 41.3 45.7 41.5-11.4 12.7-46.6-42.1v42.1zM-1583.1 143.2v99.7h-16.9v-6.8l-7.2 6.6h-45.9l-16.1-23.1v-76.4h16.9v70.7c3.2 4.7 4.4 6.8 8 11.9h30.5c4.4-4 9.1-8.5 13.8-12.7v-69.8h16.9zM-1506.3 143.4l20.5 16.5v66.4l-20.5 16.5h-63.3V97.5h16.9v45.9zm-5.9 82.5c3.4-2.5 5.5-4 9.5-7.4v-50.8c-3.2-2.5-5.7-4.2-9.5-7.4h-40.4v65.6zM-1384.2 224.2l-16.1 18.2h-56.1l-18-20.5v-57.6l17.8-21.2h53.1l17.8 21.2v36.8h-63.3v-16.9h46.3v-13.3l-8.9-10.8h-37c-3 3.6-5.5 6.3-8.9 10.6v44.9c2.5 3 5.1 6.1 8.5 9.9h41.1l11-12.3zM-1366.7 143.4h57.6l17.8 16.7v82.7h-16.9v-6.6l-7.4 6.6h-39.1l-15.9-17.1v-27.5l15.7-17.4h46.8v-13.1l-7.6-7.4h-50.8v-16.9zm13 61.4v14.4c1.9 2.1 3.2 4 5.9 6.8h25.6c4.4-4 9.3-8.5 14-12.7v-15.4h-38.9c-2.2 2-4.1 3.9-6.6 6.9zM-1207.7 160.1h-48.5l-3.2 3.4v18c.8 1.1 1.7 2.3 3.2 4h35.3l15.2 13.8v28.1l-14.4 15.4h-53.8v-16.9h46.6l4.7-4.9v-14.6l-4.7-4h-36.6l-12.5-14.8v-30l12.5-14.4h56.1v16.9zM-1196.1 143.2h81.9v21.4l-62.6 61.4h64.3v16.9h-83.4v-21.4l62.4-61.4h-62.6z"/></g><g aria-label="kubeasz" clip-path="url(#b)" style="font-size:317.8px;font-family:&quot;Open Sans&quot;;font-variant-ligatures:none"><path d="M-1284.625-1124.697q6.672-9.465 20.328-24.828l54.932-58.19h30.57l-68.898 72.466 73.708 97.606h-31.19l-60.053-80.381-19.397 16.759v63.622h-25.45v-241.454h25.45v128.02q0 8.535-1.242 26.38zM-1119.053-1207.716v110.33q0 20.794 9.466 31.035 9.466 10.242 29.639 10.242 26.69 0 38.949-14.586 12.414-14.587 12.414-47.64v-89.38h25.759v170.072h-21.26l-3.723-22.81h-1.397q-7.914 12.568-22.035 19.241-13.966 6.673-31.966 6.673-31.035 0-46.553-14.742-15.362-14.742-15.362-47.174v-111.26ZM-869.064-1210.509q33.517 0 51.983 22.966 18.621 22.811 18.621 64.708 0 41.898-18.776 65.174-18.62 23.122-51.828 23.122-16.604 0-30.415-6.052-13.655-6.207-22.966-18.932h-1.862l-5.431 21.88h-18.466v-241.454h25.759v58.657q0 19.707-1.241 35.38h1.241q18-25.449 53.38-25.449zm-3.725 21.57q-26.38 0-38.018 15.207-11.638 15.052-11.638 50.897 0 35.846 11.949 51.364 11.948 15.362 38.328 15.362 23.742 0 35.38-17.224 11.638-17.38 11.638-49.812 0-33.207-11.638-49.5-11.638-16.294-36-16.294zM-681.612-1034.54q-37.708 0-59.588-22.965-21.724-22.967-21.724-63.778 0-41.121 20.173-65.329 20.328-24.207 54.466-24.207 31.967 0 50.588 21.104 18.62 20.948 18.62 55.397v16.294h-117.157q.776 29.949 15.052 45.466 14.431 15.518 40.5 15.518 27.467 0 54.312-11.483v22.966q-13.655 5.897-25.914 8.38-12.104 2.638-29.328 2.638Zm-6.983-154.71q-20.483 0-32.742 13.345-12.104 13.345-14.276 36.932h88.915q0-24.362-10.862-37.242-10.862-13.035-31.035-13.035zM-470.573-1037.643l-5.12-24.207h-1.242q-12.725 15.983-25.45 21.724-12.568 5.587-31.5 5.587-25.293 0-39.725-13.035-14.276-13.035-14.276-37.087 0-51.519 82.398-54.001l28.863-.931v-10.552q0-20.018-8.69-29.484-8.534-9.62-27.466-9.62-21.259 0-48.104 13.034l-7.914-19.707q12.569-6.828 27.466-10.707 15.052-3.88 30.104-3.88 30.414 0 45 13.5 14.742 13.5 14.742 43.295v116.071Zm-58.191-18.156q24.052 0 37.708-13.19 13.81-13.19 13.81-36.931v-15.363l-25.759 1.086q-30.725 1.087-44.38 9.621-13.5 8.38-13.5 26.225 0 13.966 8.38 21.26 8.534 7.292 23.741 7.292zM-288.707-1084.04q0 23.741-17.69 36.62-17.69 12.88-49.656 12.88-33.829 0-52.76-10.707v-23.897q12.259 6.207 26.225 9.776 14.12 3.57 27.155 3.57 20.173 0 31.035-6.363 10.863-6.517 10.863-19.707 0-9.931-8.69-16.914-8.535-7.138-33.518-16.76-23.742-8.844-33.828-15.362-9.932-6.672-14.897-15.052-4.81-8.38-4.81-20.017 0-20.794 16.914-32.742 16.914-12.104 46.397-12.104 27.466 0 53.69 11.172l-9.155 20.95q-25.604-10.553-46.397-10.553-18.31 0-27.621 5.742-9.31 5.741-9.31 15.828 0 6.827 3.413 11.638 3.569 4.81 11.328 9.155 7.759 4.345 29.794 12.57 30.259 11.017 40.81 22.19 10.708 11.172 10.708 28.086zM-138.031-1037.643h-123.365v-17.535l92.795-132.52h-87.054v-20.018h115.296v20.018l-91.554 130.037h93.882z"/></g><defs><clipPath id="b"><path d="M-1337.385-1377.323h1214v432.785h-1214z"/></clipPath></defs><g aria-label="kubeasz" clip-path="url(#c)" style="font-size:317.8px;font-family:&quot;Open Sans&quot;;font-variant-ligatures:none"><path d="M-1775.125-1591.197q6.672-9.465 20.328-24.828l54.932-58.19h30.57l-68.898 72.466 73.708 97.606h-31.19l-60.053-80.381-19.397 16.759v63.622h-25.45v-241.454h25.45v128.02q0 8.535-1.242 26.38zM-1609.553-1674.216v110.33q0 20.794 9.466 31.035 9.466 10.242 29.639 10.242 26.69 0 38.949-14.586 12.414-14.587 12.414-47.64v-89.38h25.759v170.072h-21.26l-3.723-22.81h-1.397q-7.914 12.568-22.035 19.241-13.966 6.673-31.966 6.673-31.035 0-46.553-14.742-15.362-14.742-15.362-47.174v-111.26ZM-1359.564-1677.009q33.517 0 51.983 22.966 18.621 22.811 18.621 64.708 0 41.898-18.776 65.174-18.62 23.122-51.828 23.122-16.604 0-30.415-6.052-13.655-6.207-22.966-18.932h-1.862l-5.431 21.88h-18.466v-241.454h25.759v58.657q0 19.707-1.241 35.38h1.241q18-25.449 53.38-25.449zm-3.725 21.57q-26.38 0-38.018 15.207-11.638 15.052-11.638 50.897 0 35.846 11.949 51.364 11.948 15.362 38.328 15.362 23.742 0 35.38-17.224 11.638-17.38 11.638-49.812 0-33.207-11.638-49.5-11.638-16.294-36-16.294zM-1172.112-1501.04q-37.708 0-59.588-22.965-21.724-22.967-21.724-63.778 0-41.121 20.173-65.329 20.328-24.207 54.466-24.207 31.967 0 50.588 21.104 18.62 20.948 18.62 55.397v16.294h-117.157q.776 29.949 15.052 45.466 14.431 15.518 40.5 15.518 27.467 0 54.312-11.483v22.966q-13.655 5.897-25.914 8.38-12.104 2.638-29.328 2.638Zm-6.983-154.71q-20.483 0-32.742 13.345-12.104 13.345-14.276 36.932h88.915q0-24.362-10.862-37.242-10.862-13.035-31.035-13.035zM-961.073-1504.143l-5.12-24.207h-1.242q-12.725 15.983-25.45 21.724-12.568 5.587-31.5 5.587-25.293 0-39.725-13.035-14.276-13.035-14.276-37.087 0-51.519 82.398-54.001l28.863-.931v-10.552q0-20.018-8.69-29.484-8.534-9.62-27.466-9.62-21.259 0-48.104 13.034l-7.914-19.707q12.569-6.828 27.466-10.707 15.052-3.88 30.104-3.88 30.414 0 45 13.5 14.743 13.5 14.743 43.295v116.071Zm-58.191-18.156q24.052 0 37.708-13.19 13.81-13.19 13.81-36.931v-15.363l-25.759 1.086q-30.725 1.087-44.38 9.621-13.5 8.38-13.5 26.225 0 13.966 8.38 21.26 8.534 7.292 23.741 7.292zM-779.207-1550.54q0 23.741-17.69 36.62-17.69 12.88-49.656 12.88-33.829 0-52.76-10.707v-23.897q12.259 6.207 26.225 9.776 14.12 3.57 27.155 3.57 20.173 0 31.035-6.363 10.863-6.517 10.863-19.707 0-9.931-8.69-16.914-8.535-7.138-33.518-16.76-23.742-8.844-33.828-15.362-9.932-6.672-14.897-15.052-4.81-8.38-4.81-20.017 0-20.794 16.914-32.742 16.914-12.104 46.397-12.104 27.466 0 53.69 11.172l-9.154 20.95q-25.604-10.553-46.398-10.553-18.31 0-27.621 5.742-9.31 5.741-9.31 15.828 0 6.827 3.413 11.638 3.569 4.81 11.328 9.155 7.759 4.345 29.794 12.57 30.259 11.017 40.81 22.19 10.708 11.172 10.708 28.086zM-628.531-1504.143h-123.365v-17.535l92.795-132.52h-87.054v-20.018h115.296v20.018l-91.554 130.037h93.882z"/></g><defs><clipPath id="c"><path d="M-1827.885-1843.823h1214v432.785h-1214z"/></clipPath></defs><path fill="#017dff" d="M-1975.1 109.2c.1-26 21.3-47.2 47.3-47.4h.2c26.3 0 47.6 21.3 47.6 47.5v.1c0 3.3-1.2 6.5-3.4 9l-.5.5-.5.5c-4.4 3.9-10.7 4.6-15.8 1.6-1-.6-1.9-1.3-2.7-2.1l-.5-.5c-.2-.2-.3-.4-.4-.5-.9-1.1-1.6-2.4-2.1-3.7l-.1-.1c-1.5-2.9-2.2-5.6-2.8-8-1-3.6-1.8-7-5.1-10.2-.4-.4-.9-.8-1.5-1.3-7.7-6.4-18.8-5.9-25.9 1.2-3.3 3.3-5.3 7.7-5.6 12.5V110.2c.1 3.6 1.3 7.1 3.3 10 .6 1 1.3 1.9 2.2 2.7 3.4 3.4 7.2 4.5 11.3 5.6 2.6.7 5.2 1.5 8 2.8 1.1.5 2.1 1.2 3.1 1.9.4.3.6.5.8.8.8.8 1.5 1.7 2.1 2.7 1.2 2.1 1.9 4.4 1.9 6.8 0 3.3-1.2 6.5-3.4 9l-.5.5-.5.5c-4.4 3.9-10.7 4.6-15.8 1.6-1-.6-1.9-1.3-2.7-2.1-.2-.2-.4-.5-.7-.7l-.1-.1c-.8-.9-1.4-2-1.9-3-1.4-2.8-2.1-5.4-2.8-8-1.2-4.1-2.3-7.9-5.6-11.3-3.2-3.2-6.6-4.1-10.2-5.1-2.4-.6-5.1-1.3-8-2.8l-.1-.1c-1.3-.5-2.5-1.2-3.5-2l-.1-.1c-.1-.1-.3-.3-.5-.4l-.2.2.1-.2c-.2-.2-.4-.4-.6-.5l-.5-.5c-.5-.5-.9-1-1.2-1.6-.2-.2-.3-.5-.4-.7-1.1-2-1.7-4.3-1.8-6.6v-.1zM-1859.2 216.1c.2.2.4.3.5.5l.5.5c.5.5.9 1 1.2 1.6.2.2.3.5.4.7 1.1 2 1.7 4.3 1.8 6.6v.2c-.1 26-21.3 47.2-47.3 47.4h-.2c-26.3 0-47.6-21.3-47.6-47.5 0-3.3 1.2-6.5 3.4-8.9l.5-.5.5-.5c4.4-3.9 10.7-4.6 15.8-1.6 1 .6 1.9 1.3 2.7 2.1l.5.5c.2.2.3.4.4.5.9 1.1 1.6 2.3 2.1 3.7l.1.1c1.5 2.9 2.2 5.6 2.8 8 1 3.6 1.8 7 5.1 10.2.4.4.9.8 1.5 1.3 7.7 6.4 18.8 5.9 25.9-1.2 3.3-3.3 5.3-7.7 5.6-12.5V225.4c-.1-3.6-1.3-7.1-3.3-10-.6-1-1.3-1.9-2.2-2.7-3.4-3.4-7.2-4.5-11.3-5.6-2.5-.7-5.2-1.5-8-2.8-1.1-.5-2.1-1.2-3.1-1.9-.4-.3-.6-.5-.8-.8-.8-.8-1.5-1.7-2.1-2.7-1.2-2.1-1.9-4.4-1.9-6.8 0-3.3 1.2-6.5 3.4-9l.5-.5.5-.5c4.4-4 10.7-4.6 15.8-1.6 1 .6 1.9 1.3 2.7 2.1.2.2.4.5.7.7l.1.1c.8.9 1.4 2 1.9 3 1.4 2.8 2.1 5.4 2.8 8 1.2 4.1 2.3 7.9 5.6 11.3 3.2 3.2 6.6 4.1 10.2 5.1 2.4.6 5.1 1.3 8 2.8l.1.1c1.3.5 2.5 1.2 3.5 2 .3.1.4.2.7.4zM-1856.4 107.6c26 .1 47.2 21.3 47.4 47.3v.2c0 26.3-21.3 47.6-47.5 47.6h-.1c-3.3 0-6.5-1.2-9-3.4l-.5-.5-.5-.5c-3.9-4.4-4.6-10.7-1.6-15.8.6-1 1.3-1.9 2.1-2.7l.5-.5c.2-.2.4-.3.5-.4 1.1-.9 2.4-1.6 3.7-2.1l.1-.1c2.9-1.5 5.6-2.2 8-2.8 3.6-1 7-1.8 10.2-5.1.4-.4.8-.9 1.3-1.5 6.4-7.7 5.9-18.8-1.2-25.9-3.3-3.3-7.7-5.3-12.5-5.6H-1857.4c-3.6.1-7.1 1.3-10 3.3-1 .6-1.9 1.3-2.7 2.2-3.4 3.4-4.5 7.2-5.6 11.3-.7 2.6-1.5 5.2-2.8 8-.5 1.1-1.2 2.1-1.9 3.1-.3.4-.5.6-.8.8-.8.8-1.7 1.5-2.7 2.1-2.1 1.2-4.4 1.9-6.8 1.9-3.3 0-6.5-1.2-9-3.4l-.5-.5-.5-.5c-3.9-4.4-4.6-10.7-1.6-15.8.6-1 1.3-1.9 2.1-2.7.2-.2.5-.4.7-.7l.1-.1c.9-.8 2-1.4 3-1.9 2.8-1.4 5.4-2.1 8-2.8 4.1-1.2 7.9-2.3 11.3-5.6 3.2-3.2 4.1-6.6 5.1-10.2.6-2.4 1.3-5.1 2.8-8l.1-.1c.5-1.3 1.2-2.5 2-3.5l.1-.1c.1-.1.3-.3.4-.5l-.2-.2.2.1c.2-.2.4-.4.5-.6l.5-.5c.5-.5 1-.9 1.6-1.2.2-.2.5-.3.7-.4 2-1.1 4.3-1.7 6.6-1.8h.1zM-1963.3 223.5c-.2.2-.3.4-.5.5l-.5.5c-.5.5-1 .9-1.6 1.2-.2.2-.5.3-.7.4-2 1.1-4.3 1.7-6.6 1.8h-.2c-26-.1-47.2-21.3-47.4-47.3v-.2c0-26.3 21.3-47.6 47.5-47.6 3.3 0 6.5 1.2 8.9 3.4l.5.5.5.5c3.9 4.4 4.6 10.7 1.6 15.8-.6 1-1.3 1.9-2.1 2.7l-.5.5c-.2.2-.4.3-.5.4-1.1.9-2.3 1.6-3.7 2.1l-.1.1c-2.9 1.5-5.6 2.2-8 2.8-3.6 1-7 1.8-10.2 5.1-.4.4-.8.9-1.3 1.5-6.4 7.7-5.9 18.8 1.2 25.9 3.3 3.3 7.7 5.3 12.5 5.6H-1972.6c3.6-.1 7.1-1.3 10-3.3 1-.6 1.9-1.3 2.7-2.2 3.4-3.4 4.5-7.2 5.6-11.3.7-2.5 1.5-5.2 2.8-8 .5-1.1 1.2-2.1 1.9-3.1.3-.4.5-.6.8-.8.8-.8 1.7-1.5 2.7-2.1 2.1-1.2 4.4-1.9 6.8-1.9 3.3 0 6.5 1.2 9 3.4l.5.5.5.5c4 4.4 4.6 10.7 1.6 15.8-.6 1-1.3 1.9-2.1 2.7-.2.2-.5.4-.7.7l-.1.1c-.9.8-2 1.4-3 1.9-2.8 1.4-5.4 2.1-8 2.8-4.1 1.2-7.9 2.3-11.3 5.6-3.2 3.2-4.1 6.6-5.1 10.2-.6 2.4-1.3 5.1-2.8 8l-.1.1c-.5 1.3-1.2 2.5-2 3.5-.1.3-.2.4-.4.7z"/><path d="M-1917.3 109.4a8.4 8.4 0 0 1-8.4 8.4 8.4 8.4 0 0 1-8.4-8.4 8.4 8.4 0 0 1 8.4-8.4 8.4 8.4 0 0 1 8.4 8.4zM-1848.2 155.1a8.4 8.4 0 0 1-8.4 8.4 8.4 8.4 0 0 1-8.4-8.4 8.4 8.4 0 0 1 8.4-8.4 8.4 8.4 0 0 1 8.4 8.4zM-1893.9 227.9a8.4 8.4 0 0 1-8.4 8.4 8.4 8.4 0 0 1-8.4-8.4 8.4 8.4 0 0 1 8.4-8.4 8.4 8.4 0 0 1 8.4 8.4zM-1964.9 180.4a8.4 8.4 0 0 1-8.4 8.4 8.4 8.4 0 0 1-8.4-8.4 8.4 8.4 0 0 1 8.4-8.4 8.4 8.4 0 0 1 8.4 8.4z" style="vector-effect:non-scaling-stroke;fill:#017dff"/><path fill="none" stroke="#144770" stroke-miterlimit="10" stroke-width="7" d="M-2380.075 729.512c-8.274-8.274 6.396-36.377 32.738-62.72 26.343-26.342 54.447-41.012 62.72-32.739 8.274 8.274-6.396 36.378-32.739 62.72-26.342 26.343-54.446 41.012-62.719 32.739z" vector-effect="non-scaling-stroke"/><path fill="none" stroke="#144770" stroke-miterlimit="10" stroke-width="7" d="M-2347.337 696.773c-26.342-26.342-41.012-54.446-32.738-62.72 8.273-8.273 36.377 6.397 62.719 32.739 26.343 26.343 41.013 54.446 32.739 62.72-8.273 8.273-36.377-6.396-62.72-32.739z" vector-effect="non-scaling-stroke"/><path fill="none" stroke="#144770" stroke-miterlimit="10" stroke-width="7" d="M-2381.702 731.138c-27.24-27.24-27.24-71.471 0-98.711 27.24-27.24 71.471-27.24 98.711 0 27.241 27.24 27.241 71.471 0 98.711-27.24 27.24-71.471 27.24-98.711 0z" vector-effect="non-scaling-stroke"/><linearGradient id="d" x1=".722" x2=".304" y1="-.47" y2=".49" gradientTransform="matrix(133.663 0 0 70.262 -1795.731 762.783)" gradientUnits="userSpaceOnUse"><stop offset="0%" style="stop-color:#00b0e3"/><stop offset="100%" style="stop-color:#003866"/></linearGradient><path fill="url(#d)" d="M-1787.9 830.6c-3.5-1.5-5.9-3.8-7.1-6.7-2.7-6.9 2.1-15.6 14-25.2 10.7-8.6 26-17.1 43.1-23.8 17.1-6.7 34.1-11 47.7-11.9 15.2-1.1 24.7 2 27.4 9 2.7 6.9-2.1 15.6-14 25.2-10.7 8.6-26 17.1-43.1 23.8-17.1 6.7-34.1 11-47.7 11.9-8.7.5-15.6-.3-20.3-2.3zm115.1-59.1c-3.2-1.4-8.6-2.2-17-1.6-13 .9-29.2 5-45.7 11.4-16.5 6.5-31.1 14.5-41.2 22.7-10.4 8.4-12.9 14.4-11.8 17.2 1.1 2.8 7 5.5 20.4 4.5 13-.9 29.2-5 45.7-11.4l1.3 3.3-1.3-3.3c16.5-6.5 31.1-14.5 41.2-22.7 10.4-8.4 12.9-14.4 11.8-17.2-.4-1-1.5-2.1-3.4-2.9z"/><linearGradient id="e" x1=".923" x2=".425" y1="-.009" y2="1.134" gradientTransform="matrix(70.333 0 0 133.703 -1764.117 730.969)" gradientUnits="userSpaceOnUse"><stop offset="0%" style="stop-color:#00b0e3"/><stop offset="100%" style="stop-color:#003866"/></linearGradient><path fill="url(#e)" d="M-1712.7 863.3c-4.8-2.1-10-6.6-15.5-13.4-8.6-10.7-17.1-26-23.8-43.1-6.7-17.1-11-34.1-11.9-47.7-1.1-15.2 2-24.7 9-27.4 6.9-2.7 15.6 2.1 25.2 14 8.6 10.7 17.1 26 23.8 43.1 6.7 17.1 11 34.1 11.9 47.7 1.1 15.2-2 24.7-9 27.4-2.9 1.2-6.1 1-9.7-.6zm-32.7-59c6.5 16.5 14.5 31.1 22.7 41.2 8.4 10.4 14.4 12.9 17.2 11.8 2.8-1.1 5.5-7 4.5-20.4-.9-13-5-29.2-11.4-45.7-6.5-16.5-14.5-31.1-22.7-41.2-8.4-10.4-14.4-12.9-17.2-11.8-2.8 1.1-5.5 7-4.5 20.4.8 13.1 4.9 29.3 11.4 45.7z"/><linearGradient id="f" x1=".522" x2=".39" y1=".456" y2=".734" gradientTransform="matrix(146.575 0 0 146.738 -1802.288 724.412)" gradientUnits="userSpaceOnUse"><stop offset="0%" style="stop-color:#00b0e3"/><stop offset="100%" style="stop-color:#003866"/></linearGradient><path fill="url(#f)" d="M-1758.2 865c-17.2-7.5-31.6-21.5-39-40.4-14.8-37.6 3.8-80.3 41.4-95.1 37.6-14.8 80.3 3.8 95 41.4 14.8 37.6-3.8 80.3-41.4 95.1-18.7 7.5-38.8 6.5-56-1zm55.8-127.9c-15.6-6.8-33.7-7.6-50.7-.9-34 13.4-50.8 51.9-37.4 86 13.4 34 51.9 50.8 86 37.4 34-13.4 50.8-51.9 37.4-86-6.8-17-19.8-29.7-35.3-36.5z"/><path fill="#fff" d="m-1719.3 775.7 7-2 7.8 1.3-18.7 5.5zM-1748 832.2l18.8-5-5.7-.9-8.3 2.3zM-1760.6 780l4 14.3-2.6 6.9-6.8-26zM-1698.5 797.5l5.7 18.5-4.4-1.5-4.9-16z"/><path d="M176.9 1182v105.5" style="vector-effect:non-scaling-stroke;stroke:#144770;stroke-width:5;stroke-miterlimit:10"/><path fill="none" stroke="#144770" stroke-miterlimit="10" stroke-width="5" d="M226.9 1211.5v29h-25v45h29M259.9 1211.5v74h52v-74M340.9 1182.5v103h54v-74h-41M431.9 1240.5h44v-29h-53v74h53M501.9 1211.5h54v74h-51v-45h41M640.9 1211.5h-53v29h49v45h-49M668.9 1211.5h50v29h-49v45h52" vector-effect="non-scaling-stroke"/><linearGradient id="g" x1=".722" x2=".304" y1="-.47" y2=".491" gradientTransform="matrix(163.084 0 0 85.72 -29.292 1192.15)" gradientUnits="userSpaceOnUse"><stop offset="0%" style="stop-color:#00b0e3"/><stop offset="100%" style="stop-color:#003866"/></linearGradient><path fill="url(#g)" d="M-19.8 1274.9c-4.3-1.9-7.2-4.6-8.6-8.2-3.3-8.4 2.6-19.1 17-30.8 13-10.5 31.7-20.8 52.6-29 20.9-8.2 41.6-13.4 58.3-14.5 18.6-1.3 30.1 2.5 33.4 10.9 3.3 8.4-2.6 19.1-17 30.8-13 10.5-31.7 20.8-52.6 29-20.9 8.2-41.6 13.4-58.3 14.5-10.6.8-18.9-.2-24.8-2.7zm140.6-72.1c-3.9-1.7-10.5-2.7-20.7-2-15.9 1.1-35.6 6.1-55.7 14s-38 17.8-50.3 27.7c-12.7 10.3-15.8 17.6-14.5 21 1.3 3.4 8.6 6.7 24.9 5.5 15.9-1.1 35.6-6.1 55.7-14l1.6 4-1.6-4c20.1-7.9 38-17.8 50.3-27.7 12.7-10.3 15.8-17.6 14.5-21-.5-1.2-1.8-2.5-4.2-3.5z"/><linearGradient id="h" x1=".922" x2=".424" y1="-.01" y2="1.134" gradientTransform="matrix(85.699 0 0 163.102 9.45 1153.408)" gradientUnits="userSpaceOnUse"><stop offset="0%" style="stop-color:#00b0e3"/><stop offset="100%" style="stop-color:#003866"/></linearGradient><path fill="url(#h)" d="M72.1 1314.9c-5.8-2.5-12.2-8-18.9-16.3-10.5-13-20.8-31.7-29-52.6-8.2-20.9-13.4-41.6-14.5-58.3-1.3-18.6 2.5-30.1 10.9-33.4 8.5-3.3 19.1 2.6 30.8 17 10.5 13 20.8 31.7 29 52.6 8.2 20.9 13.4 41.6 14.5 58.3 1.3 18.6-2.5 30.1-10.9 33.4-3.6 1.4-7.6 1.2-11.9-.7zm-40-72c7.9 20.1 17.8 38 27.7 50.3 10.3 12.7 17.6 15.8 21 14.5 3.4-1.3 6.7-8.6 5.5-24.9-1.1-15.9-6.1-35.6-14-55.7s-17.8-38-27.7-50.3c-10.3-12.7-17.6-15.8-21-14.5-3.4 1.3-6.7 8.6-5.5 24.9 1.2 15.8 6.1 35.6 14 55.7z"/><linearGradient id="i" x1=".521" x2=".389" y1=".456" y2=".733" gradientTransform="matrix(178.959 0 0 178.984 -37.23 1145.47)" gradientUnits="userSpaceOnUse"><stop offset="0%" style="stop-color:#00b0e3"/><stop offset="100%" style="stop-color:#003866"/></linearGradient><path fill="url(#i)" d="M16.6 1317c-21-9.2-38.5-26.3-47.6-49.3-18.1-45.9 4.6-98 50.5-116 45.9-18.1 98 4.6 116 50.5 18.1 45.9-4.6 98-50.5 116-22.9 9.1-47.4 7.9-68.4-1.2zm68-156.2c-19-8.3-41.2-9.3-61.9-1.2-41.5 16.3-62 63.4-45.7 104.9 16.3 41.5 63.4 62 105 45.7 41.5-16.3 62-63.4 45.7-104.9-8.3-20.7-24.1-36.2-43.1-44.5z"/><path fill="#fff" d="m64 1208 8.6-2.5 9.5 1.6-22.9 6.7zM29 1277l22.9-6.1-6.9-1.2-10.2 2.8zM13.6 1213.1l4.9 17.5-3.2 8.5-8.3-31.7zM89.4 1234.6l7 22.5-5.4-1.8-6-19.6z"/><path d="M-2315.5 1327a91.2 91.2 0 0 1-91.2 91.2 91.2 91.2 0 0 1-91.2-91.2 91.2 91.2 0 0 1 91.2-91.2 91.2 91.2 0 0 1 91.2 91.2z" style="vector-effect:non-scaling-stroke;fill:none;stroke:#000;stroke-width:9;stroke-miterlimit:10"/><g fill="none" stroke="#000" stroke-miterlimit="10" stroke-width="9"><path d="M-2367.1 1244c8.4 13.8 13.2 30 13.2 47.2 0 50.4-40.8 91.2-91.2 91.2-15 0-29.1-3.6-41.5-10" vector-effect="non-scaling-stroke"/><path d="M-2329 1373.6c-11.9 5.7-25.2 8.9-39.3 8.9-50.4 0-91.2-40.8-91.2-91.2 0-17.1 4.7-33 12.9-46.7" vector-effect="non-scaling-stroke"/><path d="M-2496.2 1345.4c8.1-42 45.1-73.8 89.5-73.8s81.4 31.8 89.5 73.9" vector-effect="non-scaling-stroke"/></g><path fill="#fff" d="m-2368 1255-12.5-35.5-10 37zM-2343 1289l-21.5-13-1.5-9 22.5 15zM-2343 1307.5l-21.5-13-1.5-9 22 16.5zM-2309.6 1362.8l-24.5 5.8-7.3-5.4 27.3-3.6zM-2383.4 1370.3l-20.4 14.6-8.8-2.2 23.8-13.7zM-2401.5 1366.4l-22.7 10.8-8.3-3.6 25.9-9.3zM-2449.7 1295l-5.3 2 2-26 4.7-4 2.7-2c1.9.9-2.1 29.1-4.1 30zM-2466.3 1306.3l-3.3 3.6c-.3.7-1.4.5-1.5-.3l-.6-26.6 4.7-4 2.7-2c2 .9-.1 28.4-2 29.3z"/><path d="M-1570.3 1034.1a92.2 92.2 0 0 1-92.2 92.2 92.2 92.2 0 0 1-92.2-92.2 92.2 92.2 0 0 1 92.2-92.2 92.2 92.2 0 0 1 92.2 92.2z" style="vector-effect:non-scaling-stroke;fill:none;stroke:#000;stroke-width:7;stroke-miterlimit:10"/><g fill="none" stroke="#000" stroke-miterlimit="10" stroke-width="7"><path d="M-1640.3 944.6c.8.7 1.5 1.4 2.3 2.1 17.5 16.8 28.3 40.4 28.3 66.5 0 50.9-41.3 92.2-92.2 92.2-7.9 0-15.5-1-22.8-2.8" vector-effect="non-scaling-stroke"/><path d="M-1600.9 1102.8c-7.1 1.7-14.5 2.7-22.1 2.7-50.9 0-92.2-41.3-92.2-92.2 0-27.2 11.8-51.7 30.6-68.6" vector-effect="non-scaling-stroke"/></g><path fill="none" stroke="#000" stroke-miterlimit="10" stroke-width="7" d="M-1751.4 1060.7c10.8-39 46.5-67.6 88.9-67.6 42.4 0 78.2 28.7 88.9 67.7" vector-effect="non-scaling-stroke"/><path d="M-1894.1 1253.1a92.2 92.2 0 0 1-92.2 92.2 92.2 92.2 0 0 1-92.2-92.2 92.2 92.2 0 0 1 92.2-92.2 92.2 92.2 0 0 1 92.2 92.2z" style="vector-effect:non-scaling-stroke;fill:none;stroke:#000;stroke-width:7;stroke-miterlimit:10"/><g fill="none" stroke="#000" stroke-miterlimit="10" stroke-width="7"><path d="M-1933.6 1229.2c0 50.9-41.3 92.2-92.2 92.2-11.8 0-23-2.2-33.4-6.2-34.4-13.4-58.8-46.8-58.8-86 0-50.9 41.3-92.2 92.2-92.2 24.8 0 47.3 9.8 63.9 25.7 17.5 16.8 28.3 40.4 28.3 66.5z" vector-effect="non-scaling-stroke"/><path d="M-1854.6 1229.2c0 50.9-41.3 92.2-92.2 92.2-50.9 0-92.2-41.3-92.2-92.2 0-27.2 11.8-51.7 30.6-68.6 16.3-14.7 38-23.6 61.7-23.6 50.8 0 92.1 41.3 92.1 92.2z" vector-effect="non-scaling-stroke"/></g><path fill="none" stroke="#000" stroke-miterlimit="10" stroke-width="7" d="M-1894.1 1304.3c0 50.9-41.3 92.2-92.2 92.2-50.9 0-92.2-41.3-92.2-92.2 0-5.3.5-10.6 1.3-15.7 7.4-43.5 45.3-76.6 90.9-76.6 43.2 0 79.5 29.7 89.5 69.8 1.8 7.2 2.7 14.8 2.7 22.5z" vector-effect="non-scaling-stroke"/><path fill="#fff" d="M-1598.4 1025.1s-11.9-17.7-30.6-18.4c-18.7-.7 7.3 4.9 7.3 4.9s5.4 2.9 10.5 6.2c6.7 4.2 11.4 12.4 11.4 12.4zM-1598.7 1007.6s-13.3-14.6-31.9-15.7c-8.9-.5 7.8 5.1 7.8 5.1s8.2 5.3 10.6 6.9c3.3 2.1 12.5 8 12.5 8zM-1642.2 947.7s-12.9-11-31.6-11.7c-18.7-.7-9.3 1.5-9.3 1.5s9.3 1.2 20.8 5.7c13.8 5.4 22.2 13.5 22.2 13.5zM-1743.6 1051s-8.7 14.6-6.2 33.1c2.4 18.5 3 9 3 9s-.3-9.4 2.1-21.4c3-14.5 9.6-24.2 9.6-24.2zM-1610.7 1101.1s16.9-1.2 30.7-13.7c13.8-12.6 5.6-7.6 5.6-7.6s-7.5 5.6-18.8 10.4c-13.6 5.8-25.3 5.9-25.3 5.9zM-1718.7 1023.3s-.1-10.3 0-13.8c.2-5.8 0-13.9 0-13.9l-3.8 1s-3.8 4-3 20.2c.4 9.7 1.5 14.1 1.5 14.1zM-1702.6 1024.2s-3.7-10.6-3-18.7c1-11.8 3.9-10.4 3.9-10.4l-5.4-.8s-4.2-.1-4.6 16.5c-.2 11.4 4.6 19.6 4.6 19.6zM-1663.8 1101l11.4-5.7s4.4-1.6 4.7-.6c.6 2.2-3.4 4.3-7.2 6.3-4.5 2.3-9.4 4.9-9.4 4.9zM-1682.8 1095.6s8-.8 12.8-2.3c5-1.6 6.7-4.6 9.6-5.3 2-.5 3.4 1.5 3.4 1.5s-6.2 3.7-8.2 4.6c-2.7 1.3-11.6 4.2-11.6 4.2z"/><g clip-path="url(#j)"><path d="M64.447 0H6.074v-8.686L29.46-32.193q10.69-10.812 14.092-15.429 3.402-4.616 5.102-8.99 1.701-4.373 1.701-9.415 0-7.107-4.312-11.237-4.313-4.191-11.967-4.191-5.527 0-10.508 1.822-4.92 1.822-10.994 6.62l-5.346-6.863q12.27-10.205 26.727-10.205 12.513 0 19.62 6.439 7.106 6.378 7.106 17.19 0 8.443-4.737 16.704-4.738 8.261-17.737 20.895L18.769-9.84v.486h45.678z" aria-label="2" style="font-size:124.4px;font-family:&quot;Open Sans&quot;;font-variant-ligatures:none" transform="translate(-221.93 1290.324)"/></g><defs><clipPath id="j"><path d="M-221.93 1157.36h74v169.41h-74z"/></clipPath></defs><path d="M243.5 50.5h5V156h-5z" style="fill:#144770"/><path fill="#144770" d="M300 156.5h-31.5v-50h25V80h5v31.5h-25v40H300ZM383.5 156.5h-57V80h5v71.5h47V80h5zM466.5 156.5h-59V51h5v100.5h49v-69H423v-5h43.5zM545 156.5h-55.5v-79h58v34H501v-5h41.5v-24h-48v69H545ZM627.5 156.5h-56v-50H615v5h-38.5v40h46v-69H571v-5h56.5zM708.5 156.5H657v-5h46.5v-40h-49v-34H710v5h-50.5v24h49zM791 156.5h-54.5v-50h49v-24H738v-5h52.5v34h-49v40H791Z"/><linearGradient id="k" x1="-.154" x2="1.11" y1="-.083" y2=".933" gradientTransform="matrix(140.801 0 0 154.2 64.4 6.8)" gradientUnits="userSpaceOnUse"><stop offset="0%" style="stop-color:#00b0e3"/><stop offset="100%" style="stop-color:#003866"/></linearGradient><path fill="url(#k)" d="M177.7 35.9C160 17.8 136.3 7.4 111 6.8h-.1c-.5 0-1 .4-1 1 0 .5.4.9.8.9 9.5 3 15.9 7.8 17.2 8.9l.5.4c.5.4 1 .9 1.4 1.3 13.1 12.6 21.8 28.6 25.3 46.2l.1.5.5.2c2.6 1.2 5.2 2.7 7.7 4.4l1.9 1.3-.3-2.2c-2.2-16.7-8.6-32.2-18.7-45.5 11.8 5.7 22.4 14 30.7 24.3 12.5 15.5 19.3 35 19.3 54.9 0 3.1-.2 6.2-.5 9.3-15.9-33-49.7-54.9-87.2-54.9-14.7 0-29.5 3.5-42.7 10l-.4.2-.1.5c-.4 1.7-.7 3.7-.9 6.2-.1.8-.1 1.6-.1 2.5v1.7l1.5-.8c13.1-7.3 27.9-11.2 42.7-11.2 38.6 0 72.7 25.4 83.9 62.1-3.4 11-8.9 21.3-16.3 30.3-.2.2-.3.4-.3.7 0 .6.4 1 1 1 .2 0 .4-.1.5-.2.3-.1.5-.2.8-.3 4.3-1.8 8.5-4 12.6-6.4l.2-.1.1-.2c9.2-15.1 14.1-32.5 14.1-50.3.1-25.4-9.7-49.4-27.5-67.6z"/><linearGradient id="l" x1="-.007" x2="1.562" y1=".163" y2="1.425" gradientTransform="matrix(103.4 0 0 157 11.9 7.7)" gradientUnits="userSpaceOnUse"><stop offset="0%" style="stop-color:#00b0e3"/><stop offset="100%" style="stop-color:#003866"/></linearGradient><path fill="url(#l)" d="m24.6 129.6.1-.3-.1-.2a87.08 87.08 0 0 1 22-36.4l.3-.3v-.5c-.2-1.8-.3-3.6-.4-5.6-.1-1.2-.1-2.3-.1-3.5v-2.2L44.8 82c-9.9 8.7-17.9 19.2-23.5 30.8-.3-3.1-.5-6.2-.5-9.4 0-34.9 20.5-65.1 50.1-79.3-11.4 15.2-18.2 33.5-19.4 52.5l-.1.1v.5c0 .6 0 1.2-.1 1.7-.1 1.3-.1 3.8-.1 7.2v2.1l.2-.1c1.8 31.3 18.4 59.5 45.2 76.4l.3.2s3.9-1.4 4.9-1.8c2.3-1 5.6-2.6 5.6-2.6l-1.4-.8c-28.2-15.5-45.7-45-45.7-77v-2.4c.1-2.2.2-4.4.4-6.6 0-.4.1-.8.1-1.2l.3-2.1H61C64 50.4 73.7 31.8 88.7 18c6.4-1.5 13-2.3 19.9-2.3 1.7 0 3.5.1 5.3.2.1.1.3.1.4.1.6 0 1-.4 1-1 0-.5-.3-.8-.7-.9-1.9-.9-3.7-1.7-5.5-2.4-4.1-1.6-8.4-2.9-12.7-4H96C48 14 11.9 55.2 11.9 103.6c0 13.5 2.8 26.7 8.2 39 .1.4.5.8 1 .8.6 0 1-.4 1-1v-.1c.2-4.3 1.1-8.6 2.5-12.7z"/><linearGradient id="m" x1="-.153" x2=".986" y1="-.312" y2=".604" gradientTransform="matrix(161.6 0 0 116 23.9 84.3)" gradientUnits="userSpaceOnUse"><stop offset="0%" style="stop-color:#00b0e3"/><stop offset="100%" style="stop-color:#003866"/></linearGradient><path fill="url(#m)" d="M184.4 160.8c-.2 0-.4.1-.5.2-4.7 3.1-10 5.4-15.7 7l-.2.1-.1.1c-6.5 1.5-13.1 2.2-19.8 2.2-9 0-17.8-1.4-26.3-4l-.5-.2-.4.3c-1.3 1-10 5.5-10 5.5l2.1.8c11.2 4.4 23 6.6 35.1 6.6 1.6 0 3.1 0 4.7-.1-13.3 7.8-28.5 12-44.2 12-15.9 0-31.1-4.3-44.3-12 1.6.1 3.2.1 4.8.1 24.3 0 47.6-9.1 65.5-25.6 17.8-16.4 28.8-38.7 30.8-62.7v-.5l-.3-.3c-1.6-1.6-3.2-2.8-4.8-3.8-.7-.5-1.4-.9-2.1-1.3l-1.5-.9-.1 1.7c-.8 22.7-10.3 44-26.7 59.8-16.5 15.9-38.1 24.7-60.9 24.7-6.7 0-13.4-.8-19.8-2.3-9-8.3-16.3-18.4-21.3-30.1l-1.2-2.8-.7 2.9-.6 2.7c-.6 2.9-1.1 6-1.5 9.1v.3l.2.3c17.1 30.7 49.5 49.7 84.5 49.7 30.2 0 58-13.7 76.6-37.7l.1-.1c.1-.2.2-.4.2-.6-.1-.6-.6-1.1-1.1-1.1z"/></g></svg>