<svg xmlns="http://www.w3.org/2000/svg" xmlns:xlink="http://www.w3.org/1999/xlink" fill="#fff" fill-rule="evenodd" stroke="#000" stroke-linecap="round" stroke-linejoin="round" viewBox="0 0 85 85"><style>.B{stroke:none}.C{fill:#692f56}.D{fill:#ad688b}.E{fill:#875078}.F{fill:#cfb2c1}.G{fill:#512843}</style><use xlink:href="#A" x="2.5" y="2.5"/><symbol id="A" overflow="visible"><path d="m74.871 42.802-28.047-.823L0 42.583v12.518l14.777 16.558L33.624 80v-7.988L40 70.024v7.488L46.377 80l28.494-37.199zm0-5.603-27.435.812L0 37.417V24.9L14.777 8.342 33.624 0v7.988L40 9.977V2.489L46.377 0l28.494 37.199z" class="B C"/><path d="m33.624 58.923 6.377-12.84 40-3.499v12.518L65.224 71.659 46.377 80v-7.987l-6.376-1.989v7.488L33.624 80V58.923zm0-37.512 6.377 13.549 40 2.458V24.9L65.224 8.342 46.377 0v7.988l-6.376 1.989V2.489L33.624 0v21.411z" class="B D"/><path d="m27.153 42.437 47.635 7.883L80 42.583l-32.035-.625-20.812.479z" class="B F"/><path d="M77.435 51.549 49.27 50.091l-1.835 14.621 10.529 6.155 15.353-9.362 4.118-9.956z" class="B E"/><path d="m50.882 42.281 23.988.521V53.06l-23.988-2.406v-8.373z" class="B C"/><path d="m2.565 50.695 29.706-1.177 5.023 14.423-17.282 6.498L8.33 61.505l-5.765-10.81z" class="B D"/><path d="m51.635 42.072-12.788-.25L0 42.582l5.129 7.519 46.506-8.029z" class="B F"/><path d="m28.364 42.291-23.235.51v10.258l23.235-2.322v-8.446z" class="B E"/><path d="m27.153 37.573 47.718-10.622L80 37.427l-32.035.625-20.812-.479z" class="B G"/><path d="M77.435 28.462 49.27 29.909l-1.835-14.611 10.529-6.155 15.353 9.362 4.118 9.956z" class="B E"/><path d="m50.882 37.729 23.988-.531V26.951l-23.988 2.395v8.383z" class="B C"/><path d="m2.565 29.315 29.706 1.166 5.023-14.413L20.012 9.57 8.33 18.505l-5.765 10.81z" class="B D"/><path d="m51.635 37.928-12.788.26L0 37.428l4.965-9.904 46.671 10.404z" class="B G"/><path d="m28.364 37.709-23.235-.51V26.951l23.235 2.322v8.435z" class="B E"/><g class="F"><path d="M55.035 65.337 40 61.911l-21.247 4.843 14.823 5.28 21.459-6.696z" class="B"/><path d="M61.2 66.743 40 61.911l-15.035 3.426 21.412 6.675L61.2 66.743z" class="B"/></g><g class="G"><path d="M55.082 14.643 40 18.058l-21.247-4.811 14.871-5.259 21.459 6.655z" class="B"/><path d="M61.247 13.247 40 18.058l-15.082-3.416 21.459-6.654 14.871 5.259zm-37.47 23.952 37.471-6.467 7.482 6.165-28.729.698-16.224-.396z" class="B"/><path d="M58.906 37.136 40 37.595l-28.729-.698 10.224-11.466 37.412 11.705z" class="B"/></g><path d="M16.953 31.523 40 32.908v-8.789L24.353 19.86l-7.4 11.664z" class="B D"/><path d="M53.377 19.318 40 24.119v8.269l21.847-1.698-8.471-11.372z" class="B E"/><path d="M22.623 60.099 40 55.86v-8.935l-26.365 1.333 8.988 11.841z" class="B D"/><path d="M62.106 47.789 40 46.925v8.935l10.482 3.634 11.153-1.625.471-10.081z" class="B E"/><path d="m41.741 32.252 19.506-1.52v5.832l-19.506.552v-4.863z" class="B C"/><path d="m37.294 32.211-18.541-1.448v5.801l18.541.531v-4.884z" class="B E"/><path d="m41.247 42.812 20.082 6.061 7.4-5.769-20.165-.51-7.318.219z" class="B F"/><path d="m41.741 42.853 19.506.583v5.853l-19.506-1.354v-5.082z" class="B C"/><path d="m31.73 43.052-7.659-.271-12.8.323 7.482 6.186 12.976-6.238z" class="B F"/><path d="m37.294 42.885-18.541.552v5.853l18.541-1.479v-4.926z" class="B E"/><g class="C"><path d="m40 48.467-11.906-1.052V32.429L40 31.367v17.1zM14.777 8.342 33.624 0v7.988l-18.847 6.675V8.342zm8.317 8.175 10.529-3.093v7.988l-10.529 2.156v-7.05zM11.271 27.91l7.482-1.323v9.977l-7.482.333V27.91zM0 24.9l5.129-1.364v13.663L0 37.418V24.9z" class="B"/><path d="M18.753 13.247 4.565 27.525 0 24.9 14.777 8.342l3.976 4.905zm10.353 9.091-11.212 9.071-6.659-3.489 11.859-11.403 6.012 5.821z" class="B"/></g><g class="D"><path d="M65.224 8.342 46.377 0v7.988l18.847 6.675V8.342zm-8.329 8.175-10.518-3.093v7.988l10.518 2.156v-7.05zM68.729 27.91l-7.482-1.323v9.977l7.482.333V27.91zM80 24.9l-5.129-1.364v13.663l5.129.219V24.9z" class="B"/><path d="m61.247 13.247 14.2 14.278L80 24.9 65.224 8.342l-3.977 4.905zm-10.353 9.091 11.212 9.071 6.659-3.489-11.871-11.403-6 5.821z" class="B"/></g><g class="C"><path d="M14.777 71.658 33.624 80v-7.987l-18.847-6.675v6.321zm8.317-8.175 10.529 3.093v-7.987l-10.529-2.156v7.05zM11.271 52.09l7.482 1.323v-9.977l-7.482-.333v8.987zM0 55.101l5.129 1.364V42.802L0 42.583v12.518z" class="B"/><path d="M18.753 66.754 4.565 52.476 0 55.1l14.777 16.558 3.976-4.905zm10.353-9.092-11.212-9.07-6.659 3.489 11.859 11.403 6.012-5.821z" class="B"/></g><g class="D"><path d="M65.224 71.658 46.377 80v-7.987l18.847-6.675v6.321zm-8.329-8.175-10.518 3.093v-7.987l10.518-2.156v7.05zM68.729 52.09l-7.482 1.323v-9.977l7.482-.333v8.987zM80 55.101l-5.129 1.364V42.802L80 42.583v12.518z" class="B"/><path d="m61.247 66.754 14.2-14.278L80 55.1 65.224 71.659l-3.977-4.905zm-10.353-9.092 11.212-9.07 6.659 3.489-11.871 11.403-6-5.821zm1.071-10.257L40 48.467v-17.1l11.965 1.062v14.975z" class="B"/></g><path d="m40 22.557 6.377-1.145v-7.988L40 15.069v7.488zm0 42.364 6.377 1.656V58.59L40 57.433v7.488zm0 12.59L46.377 80v-7.988L40 70.023v7.488zm0-67.545 6.377-1.979V0L40 2.479v7.488z" class="B C"/><path d="m33.624 21.412 6.377 1.145v-7.488l-6.376-1.645v7.988zm0 45.165 6.377-1.656v-7.488l-6.376 1.156v7.987zm0 13.423 6.377-2.489v-7.488l-6.376 1.989V80zm0-71.929 6.377 1.968v-7.56L33.624 0v8.071z" class="B D"/><g class="F"><path d="m44.53 56.611-4.53-.75-10.894 1.802 4.494.937 10.929-1.989z" class="B"/><path d="M50.883 57.663 40 55.861l-4.529.75 10.906 1.979 4.506-.927z" class="B"/></g><g class="G"><path d="m44.553 23.369-4.553.75-10.894-1.781 4.518-.927 10.929 1.958z" class="B"/><path d="M50.894 22.338 40 24.119l-4.553-.75 10.929-1.958 4.518.927z" class="B"/></g></symbol></svg>