<svg xmlns="http://www.w3.org/2000/svg" xmlns:xlink="http://www.w3.org/1999/xlink" fill="#fff" fill-rule="evenodd" stroke="#000" stroke-linecap="round" stroke-linejoin="round" viewBox="0 0 106.25 74.375"><use xlink:href="#a" x="3.125" y="2.188"/><symbol id="a" overflow="visible"><g fill="#876929" stroke="none"><path d="M8.686 52.541H100V70H8.686zm0-20.097H100v15.885H8.686zM100 23.996v3.112H19.781v-3.112l46.198-16.96L100 23.996zM40.801 13.947l-15.79.575a18.31 18.31 0 0 0-1.115-6.249V5.224c.346.962 14.563 4.037 14.563 4.037z"/><path d="M25.011 11.41v3.112a18.312 18.312 0 0 0-1.115-6.249V5.224a18.249 18.249 0 0 1 1.115 6.186"/></g><path fill="#d9a741" stroke="none" d="M100 5.224v18.747H19.781c4.855-4.585 6.529-12.15 4.148-18.747zM8.686 29.557H100v15.66H8.686zm0 21.696H100V66.9H8.686z"/><path stroke="none" d="M49.085 7.961v2.05h-4.081v2.999h3.88v2.1h-3.88v3.424h4.249v2.1h-6.557V7.961zm1.25 3.124h2.119v.987c.485-.841 1.339-1.319 2.23-1.25.917-.103 1.766.553 2.007 1.55.349-1.017 1.264-1.643 2.23-1.525 1.461 0 2.141 1.012 2.141 2.862v6.974h-2.23v-6.711c0-.8-.245-1.25-.87-1.25s-1.115.537-1.115 1.637v6.249h-2.23v-6.636c0-.8-.234-1.25-.87-1.25s-1.115.537-1.115 1.637v6.249h-2.23zm12.131 2.937v-.262c0-2.212 1.36-2.962 3.022-2.962 2.62 0 3.122 1.25 3.122 2.937v4.999a4.24 4.24 0 0 0 .268 1.85h-2.152a4.31 4.31 0 0 1-.279-1c-.425.912-1.324 1.415-2.23 1.25-1.528 0-2.074-1.462-2.074-2.75 0-1.8.658-2.5 2.174-2.999l1.249-.375c.658-.2.881-.475.881-1.125a1.105 1.105 0 0 0-.25-.876.86.86 0 0 0-.776-.299c-.294.01-.569.168-.748.429s-.244.6-.177.921v.262zm4.037 1.862a2.71 2.71 0 0 1-.948.487c-.892.212-1.249.687-1.249 1.55s.234 1.337.836 1.337a1.23 1.23 0 0 0 .963-.41c.257-.279.401-.664.397-1.065zm3.769-8.073h2.23v2.1h-2.23zm0 3.274h2.23v9.586h-2.23zm3.836-3.124h2.23v12.71h-2.23z"/><path fill="#8d090a" stroke="none" d="M20.595 14.636c0 6.371-4.608 11.535-10.292 11.535S.011 21.006.011 14.636v-3.1L10.303 3.1l10.292 8.436z"/><path fill="#ea2227" stroke="none" d="M0 11.536C0 5.145 4.59 0 10.292 0s10.292 5.145 10.292 11.536-4.59 11.535-10.292 11.535S0 17.926 0 11.536z"/><path stroke="none" d="M11.653 32.869h85.381v9.048H11.653zm0 21.684h85.381v9.048H11.653z"/></symbol></svg>