<svg xmlns="http://www.w3.org/2000/svg" xml:space="preserve" viewBox="0 0 562.78589 137.83365">
  <path fill="none" stroke="#fff" stroke-linejoin="round" stroke-width="118.52590179" d="m 6196.6587,-1043.6173 -94.2902,-195.4939 -211.9113,-48.3046 -169.9617,135.2607 -0.025,216.9692 169.9297,135.2974 211.9254,-48.257 94.3336,-195.4718 z" transform="matrix(0 -.22615 -.22844 0 -169.2546 1414.8444)"/>
  <path fill="#336ee5" d="m 190.7195,1121.0876 35.7253,-17.0589 8.8274,-38.3386 -24.7184,-30.7491 -39.6502,0 -24.7249,30.7431 8.8189,38.3412 35.7219,17.0665 z" transform="matrix(1.25 0 0 -1.25 -169.2546 1414.8444)"/>
  <path fill="none" stroke="#336ee5" stroke-linejoin="round" stroke-width="74.74790192" d="m 6196.6587,-1043.6173 -94.2902,-195.4939 -211.9113,-48.3046 -169.9617,135.2607 -0.025,216.9692 169.9297,135.2974 211.9254,-48.257 94.3336,-195.4718 z" transform="matrix(0 -.22615 -.22844 0 -169.2546 1414.8444)"/>
  <path fill="none" stroke="#fff" stroke-linejoin="round" stroke-width="30.78089905" d="m 1013.0746,6022.3961 c 73.5242,16.6963 146.8281,-29.4129 163.7263,-102.9867 16.9013,-73.5707 -29.0033,-146.7473 -102.5275,-163.4423 -73.5273,-16.6918 -146.8312,29.4174 -163.7308,102.9881 -16.8982,73.5738 29.0033,146.7505 102.532,163.4409 z" transform="matrix(.23 0 0 -.23 -169.2546 1414.8444)"/>
  <path fill="#fff" d="m 188.4186,1104.8074 2.7471,-0.01 0.1746,-20.1921 -4.066,-0.038 1.1443,20.236 z" transform="matrix(1.25 0 0 -1.25 -169.2546 1414.8444)"/>
  <path fill="none" stroke="#fff" stroke-width=".41159999" d="m 1096.8024,6045.6095 15.9899,-0.034 1.0191,-110.4911 -23.6699,-0.2094 6.6609,110.7345 z" transform="matrix(.21 0 0 -.23 -169.2546 1414.8444)"/>
  <path fill="#fff" d="m 193.0309,1104.8074 -2.7477,-0.01 -0.17,-20.1921 4.0654,-0.037 -1.1477,20.2354 z" transform="matrix(1.25 0 0 -1.25 -169.2546 1414.8444)"/>
  <path fill="none" stroke="#fff" stroke-width=".41159999" d="m 1123.6518,6045.6098 -15.9947,-0.034 -0.9893,-110.4911 23.6664,-0.2029 -6.6824,110.7283 z" transform="matrix(.21 0 0 -.23 -169.2546 1414.8444)"/>
  <path fill="#fff" d="m 192.8622,1112.4315 c 0,-1.3119 -0.957,-2.3758 -2.1379,-2.3758 -1.1806,0 -2.1379,1.0639 -2.1379,2.3749 0,1.3122 0.9564,2.3757 2.1379,2.3766 1.1809,0 2.1379,-1.0636 2.1379,-2.3757" transform="matrix(1.25 0 0 -1.25 -169.2546 1414.8444)"/>
  <path fill="none" stroke="#fff" stroke-width=".2744" d="m 1173.5053,6087.183 c -8e-4,-7.1804 -5.8238,-12.9997 -13.0019,-12.9988 -7.1785,8e-4 -12.998,5.8229 -12.9986,12.9971 0,7.1802 5.8204,12.9994 13.0023,13.0031 7.1801,-6e-4 12.9994,-5.8212 12.9982,-13.0014 z" transform="matrix(.20559 -.00003 -.00003 -.22844 -169.2546 1414.8444)"/>
  <path fill="#fff" d="m 188.5873,1112.4629 c 5e-4,-0.1876 -0.009,-0.4583 -0.002,-0.6389 0.0286,-0.7569 0.1942,-1.3368 0.2934,-2.0344 0.18,-1.4919 0.3311,-2.7289 0.2384,-3.8784 -0.0851,-0.5754 -0.4184,-0.8025 -0.6959,-1.0686 l 3.3721,-2.2315 -0.5069,9.8354 -2.6988,0.016 z" transform="matrix(1.25 0 0 -1.25 -169.2546 1414.8444)"/>
  <path fill="none" stroke="#fff" stroke-width=".26840001" d="m -6476.0579,1031.9675 c 1.0925,0 2.6683,-0.048 3.7194,-0.012 4.4045,0.1551 7.7839,1.0624 11.8431,1.6053 8.6848,0.9836 15.8877,1.8119 22.5774,1.3045 3.35,-0.4652 4.6718,-2.2896 6.2229,-3.8095 l 12.9884,18.4538 -57.2553,-2.7734 -0.096,-14.7685 z" transform="matrix(0 .21472 .22844 0 -169.2546 1414.8444)"/>
  <path fill="#fff" d="m 192.8622,1112.4629 c -6e-4,-0.1876 0.009,-0.4583 0.002,-0.6389 -0.0284,-0.7569 -0.1942,-1.3368 -0.2931,-2.0344 -0.1803,-1.4919 -0.3314,-2.7289 -0.2387,-3.8784 0.085,-0.5754 0.4184,-0.8025 0.6959,-1.0686 l -3.3721,-2.2315 0.5068,9.8354 2.6989,0.016 z" transform="matrix(1.25 0 0 -1.25 -169.2546 1414.8444)"/>
  <path fill="none" stroke="#fff" stroke-width=".26840001" d="m -6476.0579,1055.3604 c 1.0925,0 2.6683,0.048 3.7194,0.013 4.4045,-0.1551 7.7839,-1.0627 11.8431,-1.6056 8.6848,-0.985 15.8877,-1.8133 22.5774,-1.3059 3.35,0.4669 4.6718,2.291 6.2229,3.8095 l 12.9884,-18.4538 -57.2553,2.7748 -0.096,14.7685 z" transform="matrix(0 .21472 .22844 0 -169.2546 1414.8444)"/>
  <path fill="none" stroke="#fff" stroke-width="30.34600067" d="m 1073.7275,5865.2637 -30.1062,-14.4286 -30.1014,14.4363 -7.433,32.4408 20.8395,26.0096 33.4099,0 20.8321,-26.0158 -7.4409,-32.4374 z" transform="matrix(.23 0 0 -.23 -169.2546 1414.8444)"/>
  <path fill="#fff" d="m 166.9153,1092.2468 1.7175,2.1436 15.8955,-12.4532 -2.5049,-3.2023 -15.1081,13.5119 z" transform="matrix(1.25 0 0 -1.25 -169.2546 1414.8444)"/>
  <path fill="none" stroke="#fff" stroke-width=".41159999" d="m 5577.0313,3012.37 15.9896,-0.035 1.0146,-110.4928 -23.6665,-0.2083 6.6623,110.7357 z" transform="matrix(.13387 -.16787 -.1786 -.14242 -169.2546 1414.8444)"/>
  <path fill="#fff" d="m 169.7907,1095.853 -1.7076,-2.1523 15.6805,-12.7227 2.5636,3.1558 -16.5365,11.7192 z" transform="matrix(1.25 0 0 -1.25 -169.2546 1414.8444)"/>
  <path fill="none" stroke="#fff" stroke-width=".41159999" d="m 5603.881,3012.3717 -15.9925,-0.037 -0.9946,-110.4931 23.6681,-0.201 -6.681,110.7309 z" transform="matrix(.13387 -.16787 -.1786 -.14242 -169.2546 1414.8444)"/>
  <path fill="#fff" d="m 163.7252,1100.4746 c 1.0258,-0.818 1.2605,-2.2294 0.5247,-3.1532 -0.7368,-0.923 -2.1651,-1.0086 -3.191,-0.1905 -1.0259,0.8181 -1.2606,2.2294 -0.5238,3.1524 0.7358,0.9235 2.1645,1.0086 3.1901,0.1913" transform="matrix(1.25 0 0 -1.25 -169.2546 1414.8444)"/>
  <path fill="none" stroke="#fff" stroke-width=".2744" d="m 5852.363,3053.3992 c 0,-7.181 -5.8201,-12.9999 -13.0023,-13.0013 -7.1801,0 -13.0011,5.8235 -12.9999,13.0033 0,7.1788 5.8212,12.9986 13.0013,12.9949 7.1799,0 12.998,-5.8198 13.0009,-12.9969 z" transform="matrix(.12816 -.16075 -.17861 -.1424 -169.2546 1414.8444)"/>
  <path fill="#fff" d="m 161.0354,1097.1516 c 0.1471,-0.1171 0.352,-0.2928 0.4983,-0.4005 0.6089,-0.4496 1.1659,-0.6818 1.7731,-1.0387 1.2787,-0.7894 2.3403,-1.4428 3.181,-2.2322 0.3969,-0.4247 0.3662,-0.8266 0.4011,-1.2099 l 3.8469,1.245 -8.005,5.7356 -1.6954,-2.0993 z" transform="matrix(1.25 0 0 -1.25 -169.2546 1414.8444)"/>
  <path fill="none" stroke="#fff" stroke-width=".26840001" d="m -3249.2313,5243.3223 c 1.0933,0 2.664,-0.052 3.7219,-0.013 4.403,0.1539 7.7794,1.0602 11.8409,1.6067 8.6825,0.9833 15.8867,1.8108 22.5788,1.3017 3.3474,-0.4627 4.6661,-2.2856 6.2166,-3.8075 l 12.9912,18.4521 -57.2539,-2.7749 -0.095,-14.7648 z" transform="matrix(.16787 .13387 .14242 -.1786 -169.2546 1414.8444)"/>
  <path fill="#fff" d="m 163.7002,1100.4939 c 0.1471,-0.1179 0.364,-0.2783 0.5009,-0.3971 0.574,-0.4938 0.9247,-0.9851 1.408,-1.4976 1.0542,-1.0709 1.9272,-1.9601 2.8839,-2.6041 0.5026,-0.2929 0.8873,-0.1732 1.2691,-0.1219 l -0.3583,-4.0278 -7.3735,6.5276 1.6699,2.1209 z" transform="matrix(1.25 0 0 -1.25 -169.2546 1414.8444)"/>
  <path fill="none" stroke="#fff" stroke-width=".26840001" d="m -3249.2339,5266.7135 c 1.0976,0 2.668,0.05 3.7202,0.011 4.4071,-0.1545 7.7848,-1.0607 11.8446,-1.6044 8.6862,-0.9839 15.8862,-1.8108 22.578,-1.302 3.3491,0.4632 4.668,2.287 6.2194,3.8072 l 12.9861,-18.4518 -57.2505,2.7689 -0.098,14.771 z" transform="matrix(.16787 .13387 .14242 -.1786 -169.2546 1414.8444)"/>
  <path fill="#fff" d="m 163.3717,1067.5882 -0.6052,2.6799 19.6466,4.6636 0.9414,-3.9555 -19.9828,-3.388 z" transform="matrix(1.25 0 0 -1.25 -169.2546 1414.8444)"/>
  <path fill="none" stroke="#fff" stroke-width=".41159999" d="m -5847.3578,2171.5747 -15.9939,0.032 -1.0168,110.4913 23.6687,0.207 -6.658,-110.7301 z" transform="matrix(.04779 .20934 .2227 -.05084 -169.2546 1414.8444)"/>
  <path fill="#fff" d="m 162.3447,1072.0848 0.6179,-2.677 19.7238,4.3273 -0.8685,3.972 -19.4732,-5.6223 z" transform="matrix(1.25 0 0 -1.25 -169.2546 1414.8444)"/>
  <path fill="none" stroke="#fff" stroke-width=".41159999" d="m -5874.2073,2171.5679 15.9931,0.04 0.9907,110.4919 -23.6673,0.203 6.6835,-110.7352 z" transform="matrix(.04779 .20934 .2227 -.05084 -169.2546 1414.8444)"/>
  <path fill="#fff" d="m 154.9497,1070.2236 c 1.2787,0.2928 2.5293,-0.4039 2.7921,-1.5554 0.2625,-1.1506 -0.5613,-2.3207 -1.8405,-2.6127 -1.2785,-0.2928 -2.5285,0.4042 -2.7919,1.5557 -0.2625,1.1506 0.5613,2.3204 1.8403,2.6124" transform="matrix(1.25 0 0 -1.25 -169.2546 1414.8444)"/>
  <path fill="none" stroke="#fff" stroke-width=".2744" d="m -6133.9467,2130.5761 c 0,7.1785 5.8181,13 13.0008,12.9983 7.1756,0 12.9951,-5.8181 12.9934,-13 0.01,-7.177 -5.8169,-12.9952 -12.9988,-12.9988 -7.177,0 -12.9963,5.8218 -12.9954,13.0005 z" transform="matrix(.04577 .20043 .2227 -.05086 -169.2546 1414.8444)"/>
  <path fill="#fff" d="m 155.8706,1066.049 c 0.1826,0.042 0.4485,0.094 0.6234,0.14 0.7316,0.1962 1.2606,0.4867 1.9179,0.7387 1.4151,0.5077 2.5872,0.9304 3.7284,1.0951 0.5797,0.046 0.8745,-0.2285 1.1965,-0.4405 l 1.425,3.7842 -9.4759,-2.6818 0.5847,-2.6357 z" transform="matrix(1.25 0 0 -1.25 -169.2546 1414.8444)"/>
  <path fill="none" stroke="#fff" stroke-width=".26840001" d="m 2265.6285,5497.4356 c 1.0922,0 2.6646,-0.046 3.7191,-0.012 4.4067,0.157 7.7848,1.0615 11.842,1.6055 8.6871,0.9856 15.8868,1.813 22.5785,1.3017 3.3494,-0.4609 4.6676,-2.2825 6.219,-3.8053 l 12.9892,18.4519 -57.2525,-2.7689 -0.095,-14.773 z" transform="matrix(.20934 -.04779 -.05084 -.2227 -169.2546 1414.8444)"/>
  <path fill="#fff" d="m 154.9191,1070.2165 c 0.1834,0.042 0.4447,0.1108 0.6224,0.1449 0.7447,0.1408 1.3471,0.108 2.0489,0.1663 1.4947,0.1571 2.734,0.2849 3.8339,0.6313 0.5425,0.2104 0.6891,0.5859 0.8867,0.9165 l 2.9259,-2.791 -9.701,-1.6957 -0.6168,2.6277 z" transform="matrix(1.25 0 0 -1.25 -169.2546 1414.8444)"/>
  <path fill="none" stroke="#fff" stroke-width=".26840001" d="m 2265.6266,5520.8273 c 1.0955,0 2.6674,0.048 3.7204,0.015 4.4087,-0.1554 7.7848,-1.0642 11.8437,-1.6076 8.6865,-0.9822 15.8857,-1.8093 22.5766,-1.3005 3.3519,0.4629 4.6701,2.2867 6.2195,3.8092 l 12.9914,-18.4544 -57.255,2.7686 -0.097,14.7696 z" transform="matrix(.20934 -.04779 -.05084 -.2227 -169.2546 1414.8444)"/>
  <path fill="#fff" d="m 180.4028,1049.4193 -2.4729,1.1976 8.6037,18.2682 3.6796,-1.7297 -9.8104,-17.7361 z" transform="matrix(1.25 0 0 -1.25 -169.2546 1414.8444)"/>
  <path fill="none" stroke="#fff" stroke-width=".41159999" d="m -1704.3131,5602.1797 -15.9959,0.035 -1.0163,110.4899 23.6696,0.2089 -6.6574,-110.7337 z" transform="matrix(.19346 .09316 .09911 -.20581 -169.2546 1414.8444)"/>
  <path fill="#fff" d="m 176.2466,1051.4203 2.4787,-1.1858 8.9138,18.1182 -3.6471,1.7975 -7.7454,-18.7299 z" transform="matrix(1.25 0 0 -1.25 -169.2546 1414.8444)"/>
  <path fill="none" stroke="#fff" stroke-width=".41159999" d="m -1731.1657,5602.1774 15.9936,0.038 0.9913,110.4894 -23.6685,0.2032 6.6836,-110.7309 z" transform="matrix(.19346 .09316 .09911 -.20581 -169.2546 1414.8444)"/>
  <path fill="#fff" d="m 173.0908,1044.4779 c 0.5698,1.1821 1.8933,1.7255 2.9574,1.2135 1.0639,-0.5125 1.465,-1.8859 0.8961,-3.0679 -0.569,-1.1823 -1.8933,-1.7255 -2.9569,-1.2129 -1.0644,0.5116 -1.4655,1.8853 -0.8966,3.0673" transform="matrix(1.25 0 0 -1.25 -169.2546 1414.8444)"/>
  <path fill="none" stroke="#fff" stroke-width=".2744" d="m -1806.2385,5560.6793 c 0,7.1805 5.8215,13.0009 13.0028,13.0031 7.1782,0 12.9977,-5.8221 12.9983,-13.0005 0,-7.1799 -5.8204,-13.0003 -13,-12.9986 -7.1804,0 -13.0005,5.8176 -13.0011,12.996 z" transform="matrix(.18524 .08918 .09907 -.20583 -169.2546 1414.8444)"/>
  <path fill="#fff" d="m 176.9292,1042.5957 c 0.0814,0.1692 0.2072,0.4082 0.2792,0.5746 0.3033,0.6936 0.4054,1.2883 0.6183,1.9593 0.4853,1.4227 0.8858,2.6028 1.4683,3.5977 0.326,0.4819 0.7246,0.542 1.0908,0.6614 l -2.0701,3.4733 -3.8107,-9.0808 2.4242,-1.1855 z" transform="matrix(1.25 0 0 -1.25 -169.2546 1414.8444)"/>
  <path fill="none" stroke="#fff" stroke-width=".26840001" d="m 5915.2105,1602.9556 c 1.093,5e-4 2.6634,-0.051 3.7187,-0.013 4.4056,0.1519 7.7811,1.0601 11.8386,1.6055 8.6885,0.9839 15.8874,1.8114 22.5786,1.3023 3.3522,-0.4658 4.6717,-2.2873 6.222,-3.8084 l 12.9909,18.4516 -57.2525,-2.7717 -0.096,-14.7668 z" transform="matrix(.09316 -.19346 -.20581 -.09911 -169.2546 1414.8444)"/>
  <path fill="#fff" d="m 173.0781,1044.4501 c 0.0813,0.1693 0.1905,0.4162 0.2747,0.5766 0.354,0.6698 0.7551,1.1203 1.1471,1.7056 0.8096,1.2663 1.482,2.3151 1.8975,3.3908 0.1735,0.5553 -0.0286,0.9037 -0.1641,1.2648 l 4.0068,0.5468 -4.7237,-8.6411 -2.4383,1.1565 z" transform="matrix(1.25 0 0 -1.25 -169.2546 1414.8444)"/>
  <path fill="none" stroke="#fff" stroke-width=".26840001" d="m 5915.2102,1626.3454 c 1.093,5e-4 2.6634,0.049 3.719,0.015 4.4068,-0.1576 7.7814,-1.0642 11.8418,-1.6073 8.6876,-0.9845 15.8853,-1.8102 22.5771,-1.3051 3.3508,0.4632 4.6675,2.2868 6.2209,3.8126 l 12.9861,-18.4566 -57.2525,2.7734 -0.092,14.7677 z" transform="matrix(.09316 -.19346 -.20581 -.09911 -169.2546 1414.8444)"/>
  <path fill="#fff" d="m 205.2142,1051.4551 -2.4778,-1.1863 -8.9189,18.1168 3.647,1.7983 7.7497,-18.7288 z" transform="matrix(1.25 0 0 -1.25 -169.2546 1414.8444)"/>
  <path fill="none" stroke="#fff" stroke-width=".41159999" d="m 3732.2325,4696.5302 -15.9925,0.033 -1.0145,110.4942 23.669,0.2069 -6.662,-110.7343 z" transform="matrix(.19346 -.09317 -.09912 -.20581 -169.2546 1414.8444)"/>
  <path fill="#fff" d="m 201.0589,1049.4536 2.4726,1.1985 -8.6082,18.2659 -3.6791,-1.7312 9.8147,-17.7332 z" transform="matrix(1.25 0 0 -1.25 -169.2546 1414.8444)"/>
  <path fill="none" stroke="#fff" stroke-width=".41159999" d="m 3705.3831,4696.5288 15.9973,0.037 0.9887,110.4928 -23.6687,0.2009 6.6827,-110.7306 z" transform="matrix(.19346 -.09317 -.09912 -.20581 -169.2546 1414.8444)"/>
  <path fill="#fff" d="m 204.5188,1042.6578 c -0.5697,1.182 -0.1683,2.5563 0.8952,3.0679 1.0636,0.5125 2.3876,-0.03 2.9577,-1.2121 0.5689,-1.182 0.1681,-2.5554 -0.8955,-3.0682 -1.0641,-0.5125 -2.3876,0.031 -2.9574,1.2124" transform="matrix(1.25 0 0 -1.25 -169.2546 1414.8444)"/>
  <path fill="none" stroke="#fff" stroke-width=".2744" d="m 3871.7606,4654.3567 c 8e-4,7.181 5.8243,13.003 13.0011,13.0008 7.1782,5e-4 12.9991,-5.8187 12.9997,-13.0006 0,-7.1784 -5.8195,-12.9982 -12.9994,-12.9982 -7.1819,-6e-4 -12.9974,5.8215 -13.0014,12.998 z" transform="matrix(.18521 -.08922 -.09915 -.2058 -169.2546 1414.8444)"/>
  <path fill="#fff" d="m 208.3836,1044.4844 c -0.0814,0.1698 -0.1899,0.417 -0.2747,0.5775 -0.3543,0.6695 -0.7554,1.1199 -1.1472,1.7053 -0.8095,1.2665 -1.4819,2.3145 -1.8975,3.3911 -0.1735,0.5553 0.0287,0.9037 0.1633,1.2639 l -4.0059,0.5477 4.7233,-8.6411 2.4387,1.1556 z" transform="matrix(1.25 0 0 -1.25 -169.2546 1414.8444)"/>
  <path fill="none" stroke="#fff" stroke-width=".26840001" d="m -4951.7391,3507.378 c -1.0975,0 -2.6668,0.053 -3.7224,0.017 -4.4065,-0.1571 -7.7837,-1.0644 -11.8432,-1.6058 -8.6862,-0.9848 -15.8811,-1.8114 -22.5771,-1.304 -3.3491,0.4626 -4.6666,2.2847 -6.2161,3.8075 l -12.992,-18.4507 57.2536,2.7686 0.097,14.7677 z" transform="matrix(.09317 .19346 .20581 -.09912 -169.2546 1414.8444)"/>
  <path fill="#fff" d="m 204.5333,1042.6297 c -0.0822,0.1693 -0.2072,0.4094 -0.2801,0.5746 -0.3027,0.6948 -0.4053,1.2895 -0.6179,1.9605 -0.4856,1.4227 -0.8861,2.6019 -1.4687,3.5977 -0.3262,0.4819 -0.7242,0.5411 -1.0904,0.6602 l 2.0701,3.4738 3.8109,-9.0802 -2.4239,-1.1866 z" transform="matrix(1.25 0 0 -1.25 -169.2546 1414.8444)"/>
  <path fill="none" stroke="#fff" stroke-width=".26840001" d="m -4951.7379,3483.9904 c -1.0962,0 -2.6697,-0.048 -3.7205,-0.015 -4.4084,0.1573 -7.7868,1.0636 -11.8437,1.607 -8.6876,0.9856 -15.8839,1.8108 -22.5782,1.3033 -3.3517,-0.4643 -4.6684,-2.2869 -6.2195,-3.8094 l -12.989,18.4538 57.2514,-2.7692 0.1,-14.7702 z" transform="matrix(.09317 .19346 .20581 -.09912 -169.2546 1414.8444)"/>
  <path fill="#fff" d="m 219.1056,1072.1341 -0.6173,-2.677 -19.7252,4.3223 0.868,3.9727 19.4745,-5.618 z" transform="matrix(1.25 0 0 -1.25 -169.2546 1414.8444)"/>
  <path fill="none" stroke="#fff" stroke-width=".41159999" d="m 6368.633,136.4414 -15.9914,0.0349 -1.0179,110.4945 23.6696,0.2061 -6.6603,-110.7355 z" transform="matrix(.04777 -.20934 -.2227 -.05083 -169.2546 1414.8444)"/>
  <path fill="#fff" d="m 218.0798,1067.6373 0.6046,2.6798 -19.6481,4.6588 -0.9408,-3.9555 19.9843,-3.3831 z" transform="matrix(1.25 0 0 -1.25 -169.2546 1414.8444)"/>
  <path fill="none" stroke="#fff" stroke-width=".41159999" d="m 6341.7858,136.44 15.9911,0.0369 0.9918,110.4913 -23.6678,0.2033 6.6849,-110.7315 z" transform="matrix(.04777 -.20934 -.2227 -.05083 -169.2546 1414.8444)"/>
  <path fill="#fff" d="m 225.5496,1066.1054 c -1.2792,0.292 -2.103,1.4613 -1.8402,2.6127 0.2628,1.1514 1.5126,1.8482 2.791,1.5562 1.2793,-0.2911 2.1036,-1.4612 1.8411,-2.6127 -0.2628,-1.1514 -1.5126,-1.8479 -2.7919,-1.5562" transform="matrix(1.25 0 0 -1.25 -169.2546 1414.8444)"/>
  <path fill="none" stroke="#fff" stroke-width=".2744" d="m 6624.6812,93.8699 c 0,7.1801 5.8189,12.9977 12.9999,12.9968 7.1805,6e-4 13.0009,-5.8207 12.9983,-12.9966 0,-7.1795 -5.8178,-13.0025 -12.9991,-12.9999 -7.1805,-6e-4 -13.0006,5.8209 -12.9991,12.9997 z" transform="matrix(.04571 -.20044 -.22271 -.05079 -169.2546 1414.8444)"/>
  <path fill="#fff" d="m 226.5313,1070.2667 c -0.1829,0.041 -0.4442,0.1105 -0.6228,0.144 -0.7438,0.1414 -1.3462,0.1085 -2.048,0.1669 -1.4947,0.1565 -2.7346,0.2844 -3.8347,0.6305 -0.5417,0.2106 -0.6889,0.5862 -0.8867,0.9167 l -2.9251,-2.7921 9.7005,-1.6937 0.6168,2.6277 z" transform="matrix(1.25 0 0 -1.25 -169.2546 1414.8444)"/>
  <path fill="none" stroke="#fff" stroke-width=".26840001" d="m -100.5077,5985.5958 c -1.0914,0 -2.6643,0.049 -3.7197,0.011 -4.4061,-0.1513 -7.7822,-1.0601 -11.8411,-1.603 -8.686,-0.985 -15.8899,-1.8127 -22.5805,-1.3053 -3.3472,0.464 -4.6684,2.2887 -6.2178,3.8114 l -12.987,-18.4558 57.2485,2.7726 0.0976,14.7696 z" transform="matrix(.20935 .04777 .05083 -.22271 -169.2546 1414.8444)"/>
  <path fill="#fff" d="m 225.5803,1066.0989 c -0.1834,0.042 -0.4485,0.093 -0.624,0.14 -0.731,0.1956 -1.26,0.4862 -1.9173,0.7382 -1.4148,0.5077 -2.5869,0.9303 -3.7284,1.095 -0.5797,0.046 -0.8751,-0.2285 -1.1965,-0.4402 l -1.4247,3.7839 9.4748,-2.6818 -0.5839,-2.6351 z" transform="matrix(1.25 0 0 -1.25 -169.2546 1414.8444)"/>
  <path fill="none" stroke="#fff" stroke-width=".26840001" d="m -100.5077,5962.2049 c -1.0956,0 -2.6652,-0.052 -3.7219,-0.014 -4.4028,0.1551 -7.7792,1.0599 -11.8381,1.6036 -8.687,0.9862 -15.8862,1.8125 -22.5785,1.3028 -3.3494,-0.4606 -4.6721,-2.2844 -6.2206,-3.8052 l -12.9884,18.4524 57.2491,-2.772 0.0984,-14.7674 z" transform="matrix(.20935 .04777 .05083 -.22271 -169.2546 1414.8444)"/>
  <path fill="#fff" d="m 211.6431,1095.893 1.7082,-2.1515 -15.6776,-12.7267 -2.5642,3.1547 16.5336,11.7235 z" transform="matrix(1.25 0 0 -1.25 -169.2546 1414.8444)"/>
  <path fill="none" stroke="#fff" stroke-width=".41159999" d="m -4219.3791,4644.5956 15.993,-0.032 1.0131,-110.4936 -23.6625,-0.2061 6.6564,110.7318 z" transform="matrix(.13389 .16787 .17859 -.14244 -169.2546 1414.8444)"/>
  <path fill="#fff" d="m 214.5197,1092.2873 -1.7186,2.1436 -15.8919,-12.4566 2.5056,-3.2014 15.1049,13.5144 z" transform="matrix(1.25 0 0 -1.25 -169.2546 1414.8444)"/>
  <path fill="none" stroke="#fff" stroke-width=".41159999" d="m -4192.5257,4644.6018 -15.9973,-0.04 -0.9896,-110.4882 23.665,-0.2044 -6.6781,110.7329 z" transform="matrix(.13389 .16787 .17859 -.14244 -169.2546 1414.8444)"/>
  <path fill="#fff" d="m 220.375,1097.1729 c -1.0259,-0.8178 -2.4545,-0.7331 -3.1904,0.1899 -0.7364,0.9229 -0.5017,2.3352 0.5233,3.1532 1.0258,0.8181 2.4542,0.7331 3.1909,-0.1899 0.7362,-0.9232 0.5018,-2.3349 -0.5238,-3.1532" transform="matrix(1.25 0 0 -1.25 -169.2546 1414.8444)"/>
  <path fill="none" stroke="#fff" stroke-width=".2744" d="m -4379.2058,4686.834 c -3e-4,-7.1787 -5.8215,-12.9999 -12.9986,-12.9979 -7.179,-6e-4 -13.0014,5.8226 -13.0031,12.9988 0,7.1802 5.8215,13 13.0009,13.0005 7.1793,0 13.0022,-5.8192 13.0008,-13.0014 z" transform="matrix(.12821 .16071 .17857 -.14246 -169.2546 1414.8444)"/>
  <path fill="#fff" d="m 217.7337,1100.5345 c -0.1471,-0.1171 -0.364,-0.2784 -0.5012,-0.396 -0.574,-0.4941 -0.9244,-0.9859 -1.4068,-1.4979 -1.0554,-1.0715 -1.9276,-1.961 -2.8843,-2.605 -0.5026,-0.2925 -0.8872,-0.1732 -1.2691,-0.1219 l 0.3583,-4.0275 7.3727,6.5282 -1.6696,2.1201 z" transform="matrix(1.25 0 0 -1.25 -169.2546 1414.8444)"/>
  <path fill="none" stroke="#fff" stroke-width=".26840001" d="m 4985.5952,3965.326 c -1.0933,0 -2.6668,0.051 -3.7182,0.016 -4.4047,-0.1539 -7.7865,-1.065 -11.8409,-1.607 -8.6896,-0.985 -15.8882,-1.8124 -22.5799,-1.3033 -3.3489,0.4609 -4.6664,2.2841 -6.2192,3.8072 l -12.9867,-18.4533 57.2485,2.7743 0.096,14.7662 z" transform="matrix(.16787 -.13389 -.14244 -.17859 -169.2546 1414.8444)"/>
  <path fill="#fff" d="m 220.3991,1097.193 c -0.1471,-0.1171 -0.3526,-0.2928 -0.4983,-0.4006 -0.6089,-0.4498 -1.1662,-0.6817 -1.7731,-1.0391 -1.2784,-0.7898 -2.34,-1.4429 -3.1811,-2.2323 -0.3968,-0.4247 -0.3659,-0.8269 -0.4011,-1.2101 l -3.8469,1.2449 8.0045,5.7365 1.696,-2.0993 z" transform="matrix(1.25 0 0 -1.25 -169.2546 1414.8444)"/>
  <path fill="none" stroke="#fff" stroke-width=".26840001" d="m 4985.5975,3941.9365 c -1.0933,3e-4 -2.6654,-0.049 -3.7205,-0.014 -4.4053,0.154 -7.7836,1.0656 -11.8429,1.6047 -8.6839,0.9848 -15.887,1.8114 -22.5788,1.3028 -3.3485,-0.4637 -4.6672,-2.2867 -6.2183,-3.8063 l -12.9901,18.4504 57.2505,-2.7686 0.1001,-14.7688 z" transform="matrix(.16787 -.13389 -.14244 -.17859 -169.2546 1414.8444)"/>
  <path fill="#fff" d="M187.3672 1086.9849c-.0428-1.0038-.8682-1.8046-1.8824-1.8046-.4156 0-.7988.1335-1.1101.3606l-.489-.233 1.0009-2.0693 4.3858 2.1152-.9958 2.0696-.9094-.4385zM180.2086 1080.3042c.7583-.6591.8694-1.8049.2379-2.5971-.2591-.3249-.6027-.5412-.9746-.6432l-.1227-.5278 2.2422-.5074 1.0808 4.7477-2.2393.5119-.2243-.9841zM180.9609 1070.5465c.9874.1819 1.9525-.4448 2.1782-1.4335.0927-.4048.0476-.809-.1049-1.1628l.3362-.4249 1.7952 1.4363-3.0388 3.8047-1.796-1.4312.6301-.7886zM189.059 1065.054c.4733.8859 1.5655 1.2493 2.4783.8096.3742-.18.6619-.4671.8441-.8067l.5417 0-.004 2.2986-4.87 0 0-2.2972 1.0095.0008zM198.3932 1067.9927c-.3969.9233-.0006 2.0033.913 2.4432.3742.1803.7775.2262 1.1565.1562l.3391.4226-1.7989 1.4304-3.0339-3.8089 1.7954-1.4329.6288.7894zM201.9574 1077.1194c-.9685.2651-1.5658 1.2478-1.3405 2.2366.0922.4048.3079.7489.599 1.002l-.1185.5284-2.2402-.5145 1.0865-4.7472 2.2394.5103-.2257.9844zM197.0442 1085.5809c-.811-.5919-1.9523-.4462-2.5844.3466-.2588.3243-.394.7076-.4104 1.0931l-.4868.2369-.9935-2.0729 4.388-2.1101.9973 2.0695-.9102.4369z" transform="matrix(1.25 0 0 -1.25 -169.2546 1414.8444)"/>
  <path fill="#373535" d="M281.6892 1072.3652c.7671.8949 1.5449 1.8431 2.3332 2.8442.7883 1.0015 1.5554 2.035 2.3012 3.1003.7458 1.0653 1.4595 2.0988 2.1413 3.1003.682 1.0014 1.2784 1.9496 1.7898 2.8445l9.4603 0c-.767-.9802-1.6407-2.0455-2.6206-3.196-.9802-1.1506-1.9922-2.3228-3.0365-3.5159-1.044-1.1931-2.088-2.3436-3.132-3.4517-1.044-1.1078-1.9922-2.1305-2.8445-3.0682 1.0655-1.0228 2.2161-2.2479 3.4517-3.6754 1.2359-1.4276 2.4503-2.9084 3.6437-4.4425 1.1931-1.5341 2.2903-3.0682 3.2918-4.6023 1.0015-1.5341 1.8003-2.8979 2.397-4.091l-9.0127 0c-.5114 1.0653-1.1827 2.2692-2.0138 3.6116-.8308 1.3423-1.7149 2.6632-2.6526 3.9632-.9375 1.2997-1.8856 2.5353-2.8443 3.7074-.959 1.1718-1.8431 2.1413-2.653 2.9083l0-14.1905-7.9262 0 0 43.0189 7.9262 1.3422 0-26.2074zM329.694 1055.2343c-1.4491-.3836-3.2069-.7671-5.2736-1.1506-2.0668-.3835-4.3146-.5752-6.7436-.5752-2.4719 0-4.4958.3408-6.0727 1.0225-1.5766.682-2.823 1.6515-3.7392 2.9086-.9161 1.2572-1.5449 2.738-1.8859 4.4425-.3407 1.7045-.5113 3.5796-.5113 5.625l0 16.7474 7.8624 0 0-15.7246c0-2.77.3302-4.826.9907-6.1685.6605-1.3422 1.9497-2.0134 3.8673-2.0134 1.1931 0 2.3862.1066 3.5796.3194l0 23.5871 7.9263 0 0-29.0202zM355.7095 1069.4248c0 2.8125-.4581 4.9646-1.3743 6.4559-.9161 1.4916-2.3119 2.2374-4.1867 2.2374-.8524 0-1.694-.1174-2.5248-.3518-.8312-.2341-1.5449-.5219-2.1416-.8629l0-16.2997c.5967-.1279 1.2251-.2132 1.8859-.2557.6604-.043 1.2251-.064 1.6937-.064 2.0454 0 3.6649.6925 4.858 2.0775 1.1931 1.385 1.7898 3.7395 1.7898 7.0634zm7.9903-.1919c0-2.3862-.3198-4.5491-.959-6.488-.6392-1.9389-1.5766-3.59-2.8125-4.9538-1.2359-1.3637-2.7485-2.4182-4.5383-3.164-1.7898-.7458-3.8353-1.1186-6.1364-1.1186-2.0455 0-4.1338.1491-6.2643.4473-2.1308.2982-3.9206.6818-5.3694 1.1506l0 42.124 7.8622 1.3422 0-15.0214c1.108.5114 2.1733.8629 3.196 1.0548 1.0228.1916 2.0455.2877 3.0683.2877 1.9604 0 3.6861-.373 5.1777-1.1188 1.4913-.7458 2.738-1.8111 3.7392-3.1961 1.0015-1.3847 1.7581-3.0362 2.2694-4.9538.5114-1.9176.7671-4.0481.7671-6.3921M367.5986 1068.9772c0 2.6422.405 4.9646 1.2146 6.9676.8096 2.0026 1.8751 3.6754 3.1961 5.0176 1.3209 1.3425 2.8338 2.3544 4.5382 3.0364 1.7048.6818 3.4518 1.0228 5.2416 1.0228 4.4319 0 7.7984-1.3105 10.0995-3.9314 2.3012-2.6206 3.4518-6.4451 3.4518-11.4738 0-.5114-.0108-1.044-.0321-1.5979-.0212-.5542-.0532-1.0015-.0958-1.3425l-19.4958 0c0-1.9601.8096-3.505 2.429-4.634 1.6192-1.1294 3.7074-1.694 6.2643-1.694 1.5766 0 3.0787.1703 4.5062.5113 1.4278.341 2.6314.6818 3.6116 1.0228l1.0868-6.7119c-1.3637-.4686-2.8125-.8629-4.3466-1.1823-1.5341-.3198-3.2601-.4794-5.1778-.4794-2.5568 0-4.8472.3303-6.8714.9907-2.0242.6605-3.75 1.6407-5.1775 2.9404-1.4275 1.2997-2.5251 2.9084-3.2922 4.826-.767 1.9176-1.1505 4.1547-1.1505 6.7116zm20.1353 3.1323c0 .8096-.1066 1.5874-.3198 2.3329-.2131.7458-.5538 1.417-1.0227 2.0137-.4686.5964-1.0653 1.0761-1.7898 1.438-.7242.3623-1.6191.5434-2.6847.5434-1.0227 0-1.9069-.1703-2.6526-.5113-.7458-.341-1.3638-.8096-1.8536-1.4063-.4901-.5967-.8737-1.2784-1.1506-2.0455-.2772-.767-.4581-1.5553-.5434-2.3649l12.0172 0zM425.5109 1076.2642c-.5113.1279-1.1185.2557-1.8218.3835-.703.1279-1.4168.2452-2.1413.3515-.7245.1066-1.4275.1812-2.1092.224-.6821.043-1.2572.064-1.7261.064-1.1077 0-2.1945-.053-3.2598-.1599-1.0656-.1063-2.1521-.309-3.2601-.6072l0-22.3084-7.9263 0 0 28.0613c2.0883.7671 4.2296 1.385 6.4242 1.8539 2.1946.4685 4.7622.703 7.7026.703.426 0 1.0332-.021 1.8215-.064.7886-.043 1.6302-.1174 2.5251-.2239.8949-.1066 1.8003-.2345 2.7165-.3836.9161-.1491 1.7365-.3515 2.461-.6072l-1.4063-7.287zM433.5647 1083.2956c1.4063.3835 3.1428.7458 5.2098 1.0868 2.0668.3407 4.3146.5113 6.7436.5113 2.3862 0 4.3679-.3305 5.9446-.991 1.5766-.6604 2.8233-1.5978 3.7394-2.8125.9162-1.2144 1.5662-2.6631 1.9497-4.3466.3835-1.6833.5752-3.5476.5752-5.5931l0-16.939-7.8622 0 0 15.9163c0 2.8125-.3198 4.8367-.959 6.0726-.6392 1.2357-1.9389 1.8536-3.899 1.8536-.5967 0-1.1826-.021-1.7578-.064-.5754-.043-1.1826-.1065-1.8218-.1919l0-23.5868-7.8625 0 0 29.0841zM463.4796 1068.9772c0 2.6422.4051 4.9646 1.2146 6.9676.8096 2.0026 1.8752 3.6754 3.1961 5.0176 1.3209 1.3425 2.8338 2.3544 4.5383 3.0364 1.7047.6818 3.4517 1.0228 5.2415 1.0228 4.432 0 7.7984-1.3105 10.0996-3.9314 2.3011-2.6206 3.4517-6.4451 3.4517-11.4738 0-.5114-.0108-1.044-.032-1.5979-.0213-.5542-.0533-1.0015-.0958-1.3425l-19.4959 0c0-1.9601.8096-3.505 2.429-4.634 1.6192-1.1294 3.7075-1.694 6.2643-1.694 1.5767 0 3.0787.1703 4.5063.5113 1.4278.341 2.6314.6818 3.6116 1.0228l1.0868-6.7119c-1.3638-.4686-2.8126-.8629-4.3467-1.1823-1.5341-.3198-3.2601-.4794-5.1777-.4794-2.5569 0-4.8473.3303-6.8715.9907-2.0242.6605-3.7499 1.6407-5.1775 2.9404-1.4275 1.2997-2.5251 2.9084-3.2921 4.826-.7671 1.9176-1.1506 4.1547-1.1506 6.7116zm20.1353 3.1323c0 .8096-.1066 1.5874-.3197 2.3329-.2132.7458-.5539 1.417-1.0228 2.0137-.4685.5964-1.0652 1.0761-1.7898 1.438-.7242.3623-1.6191.5434-2.6846.5434-1.0228 0-1.9069-.1703-2.6527-.5113-.7458-.341-1.3638-.8096-1.8536-1.4063-.4901-.5967-.8736-1.2784-1.1506-2.0455-.2772-.767-.458-1.5553-.5434-2.3649l12.0172 0zM502.5991 1077.7346l-6.8394 0 0 6.5199 6.8394 0 0 7.5424 7.8625 1.2785 0-8.8209 12.5923 0 0-6.5199-12.5923 0 0-12.1451c0-1.1081.1066-2.0029.3194-2.6847.2132-.6817.5114-1.2146.8949-1.5982.3836-.3835.8524-.6392 1.4063-.767.5542-.1279 1.1718-.1916 1.8539-.1916.7242 0 1.3955.021 2.0134.064.618.043 1.2144.1174 1.7898.224.5752.1063 1.1718.2662 1.7898.4793.618.2132 1.2889.4901 2.0135.8309l1.0868-6.7757c-1.4491-.5964-3.0153-1.0225-4.6985-1.2781-1.6832-.2557-3.3131-.3836-4.8897-.3836-1.8326 0-3.4518.1491-4.8581.4473-1.4062.2982-2.5996.8737-3.5795 1.7258-.9803.8524-1.7261 2.0562-2.2374 3.6116-.5114 1.5554-.7671 3.5904-.7671 6.1044l0 12.337zM527.4003 1068.9772c0 2.6422.4051 4.9646 1.2146 6.9676.8096 2.0026 1.8751 3.6754 3.1961 5.0176 1.3209 1.3425 2.8338 2.3544 4.5383 3.0364 1.7047.6818 3.4517 1.0228 5.2415 1.0228 4.432 0 7.7984-1.3105 10.0996-3.9314 2.3011-2.6206 3.4517-6.4451 3.4517-11.4738 0-.5114-.0108-1.044-.032-1.5979-.0213-.5542-.0533-1.0015-.0958-1.3425l-19.4959 0c0-1.9601.8096-3.505 2.429-4.634 1.6192-1.1294 3.7075-1.694 6.2643-1.694 1.5766 0 3.0787.1703 4.5063.5113 1.4278.341 2.6314.6818 3.6116 1.0228l1.0868-6.7119c-1.3638-.4686-2.8126-.8629-4.3467-1.1823-1.5341-.3198-3.2601-.4794-5.1777-.4794-2.5569 0-4.8473.3303-6.8715.9907-2.0242.6605-3.7499 1.6407-5.1775 2.9404-1.4275 1.2997-2.5251 2.9084-3.2921 4.826-.7671 1.9176-1.1506 4.1547-1.1506 6.7116zm20.1353 3.1323c0 .8096-.1066 1.5874-.3197 2.3329-.2132.7458-.5539 1.417-1.0228 2.0137-.4685.5964-1.0652 1.0761-1.7898 1.438-.7242.3623-1.6191.5434-2.6847.5434-1.0227 0-1.9068-.1703-2.6526-.5113-.7458-.341-1.3638-.8096-1.8536-1.4063-.4901-.5967-.8736-1.2784-1.1506-2.0455-.2772-.767-.4581-1.5553-.5434-2.3649l12.0172 0zM571.9533 1060.1561c1.9176 0 3.3876.1386 4.4104.4155 1.0227.277 1.5341.8416 1.5341 1.694 0 .5539-.1599 1.0227-.4793 1.4063-.3198.3835-.7671.7137-1.3425.9907-.5752.2769-1.2357.5434-1.9814.7991-.7458.2557-1.5234.5113-2.3332.767-1.1506.3407-2.3225.735-3.5156 1.1826-1.1931.4473-2.2799 1.012-3.2601 1.6937-.9799.6821-1.7898 1.5449-2.429 2.5889-.6392 1.044-.9587 2.3545-.9587 3.9311 0 1.2784.2449 2.4823.735 3.6116.4901 1.1294 1.2572 2.1305 2.3012 3.0042 1.044.8736 2.3757 1.5554 3.9952 2.0455 1.6191.4901 3.5583.7353 5.8166.7353 1.9605 0 3.782-.1494 5.4652-.4476 1.6835-.2982 3.1428-.7246 4.3787-1.2784l-1.2143-6.6479c-.7246.2132-1.8539.5647-3.388 1.0548-1.5341.4901-3.2599.735-5.1775.735-2.003 0-3.3559-.2449-4.0589-.735-.7033-.4901-1.0548-1.0122-1.0548-1.5661 0-.4689.1599-.8841.4793-1.2464.3198-.3623.7458-.6925 1.2785-.9907.5326-.2985 1.1506-.5859 1.8538-.8632.703-.2769 1.4593-.5431 2.2692-.7988 1.1505-.3835 2.3437-.8098 3.5796-1.2784 1.2356-.4689 2.3544-1.0548 3.3556-1.7578 1.0015-.7032 1.8218-1.5981 2.461-2.6847.6393-1.0868.959-2.4185.959-3.9951 0-1.2359-.2344-2.4078-.7033-3.5158-.4688-1.1078-1.2464-2.0668-2.3332-2.8763-1.0865-.8096-2.5035-1.4488-4.2505-1.9177-1.7473-.4688-3.8994-.703-6.4562-.703-2.5994 0-4.8152.2982-6.6478.8946-1.8323.5967-3.3024 1.1294-4.4104 1.5982l1.2143 6.5838c1.4916-.5964 3.079-1.1506 4.7622-1.662 1.6832-.5114 3.3985-.767 5.1458-.767M481.7874 1030.2667l-.7999 0 0 7.0243.862 0 0-2.5056c.3648.4564.8291.6854 1.3935.6854.3138 0 .61-.064.8895-.1899.2798-.1258.5086-.3041.6903-.5315.18-.229.322-.5037.4235-.8274.1031-.3223.1539-.6673.1539-1.0335 0-.8734-.216-1.5472-.6477-2.0231-.4303-.476-.9488-.7132-1.552-.7132-.6004 0-1.0712.2503-1.4131.7523l0-.6378zm-.01 2.5824c0-.61.0834-1.05.2486-1.3215.2716-.4448.6395-.6673 1.1024-.6673.3776 0 .7033.1635.978.4924.2746.3271.4121.8144.4121 1.4638 0 .6638-.1326 1.1545-.3957 1.47-.2633.3158-.5822.4745-.9553.4745-.3778 0-.7033-.1635-.9779-.4906-.2747-.3272-.4122-.8014-.4122-1.4213M486.4107 1028.3074l-.0963.8096c.1896-.051.3532-.077.4938-.077.1913 0 .3452.033.4595.096.1162.064.2094.1523.2831.2682.0556.085.1423.2993.2631.6412.0164.049.0425.1179.0771.2109l-1.9298 5.0978.9289 0 1.0596-2.9455c.1357-.3744.2602-.767.3679-1.1792.0998.3957.2177.7818.3549 1.1597l1.0877 2.965.862 0-1.935-5.1746c-.2075-.5593-.3696-.9437-.4838-1.1546-.154-.2846-.3288-.4924-.5267-.6247-.1996-.1324-.4351-.1996-.7098-.1996-.167 0-.3518.036-.5562.1063" transform="matrix(1.25 0 0 -1.25 -169.2546 1414.8444)"/>
  <path fill="#373535" fill-rule="evenodd" d="m 574.6192,1043.1507 0.5179,0 c 0.005,-0.01 0.007,-0.013 0.009,-0.019 0.0839,-0.1848 0.1689,-0.3693 0.2472,-0.5547 0.0842,-0.2084 0.159,-0.4193 0.2503,-0.627 0.005,-0.01 0.007,-0.012 0.01,-0.019 0.0658,0.1519 0.1698,0.3965 0.2393,0.549 0.0612,0.1398 0.1236,0.2824 0.1868,0.4235 0.0246,0.055 0.0286,0.066 0.0286,0.084 0,0.048 -0.049,0.048 -0.0918,0.048 l -0.1897,-0.01 0.1897,0.123 0.6959,0 -0.0508,-0.047 c -0.0496,-0.045 -0.0748,-0.077 -0.0748,-0.1667 0,-0.03 0.003,-0.061 0.006,-0.094 0.0131,-0.1358 0.0247,-0.2724 0.0349,-0.4085 0.015,-0.1794 0.0323,-0.36 0.0661,-0.5374 0.0277,-0.1454 0.0583,-0.1973 0.1624,-0.275 -0.1157,-0.022 -0.1945,-0.033 -0.3087,-0.033 -0.0474,0 -0.1287,0 -0.2058,0.056 -0.0896,0.07 -0.1012,0.1803 -0.1174,0.3776 -0.0122,0.1354 -0.0246,0.2681 -0.0362,0.4028 -0.008,0.1281 -0.0131,0.2562 -0.0256,0.384 l -0.002,0.026 -0.0133,-0.028 c -0.0763,-0.165 -0.1452,-0.3339 -0.2192,-0.4983 -0.1698,-0.3949 -0.1828,-0.4201 -0.2182,-0.527 l 0.0246,-0.065 c -0.064,-0.015 -0.3101,-0.097 -0.4014,-0.1316 -0.0705,0.1922 -0.3143,0.8204 -0.5096,1.2495 -0.0187,-0.1825 -0.0369,-0.3639 -0.0542,-0.5462 -0.005,-0.061 -0.0408,-0.4652 -0.0408,-0.502 0,-0.049 0.0113,-0.061 0.095,-0.07 l 0.191,-0.028 -0.1105,-0.067 -0.404,0 0.0576,0.067 c 0.0113,0.015 0.0204,0.028 0.0278,0.048 0.0124,0.035 0.0195,0.096 0.028,0.1814 0.0156,0.1321 0.0321,0.2634 0.0482,0.3949 0.008,0.082 0.0496,0.485 0.0598,0.5783 0.003,0.021 0.005,0.045 0.005,0.067 0,0.056 -0.0207,0.084 -0.0862,0.084 -0.0312,0 -0.1684,0 -0.2021,0 l 0.1822,0.1119 z" transform="matrix(1.25 0 0 -1.25 -169.2546 1414.8444)"/>
  <path fill="#373535" fill-rule="evenodd" d="m574.5231 1043.1507-.0935-.2196-.0969-.043c.005.021.0221.1006.0221.11 0 .049-.0573.052-.1191.052l-.301 0c-.0255-.8433-.0255-.9181-.0255-1.0332 0-.06 0-.11.004-.1831.008-.094.038-.1131.1375-.1197l.1817-.02-.1392-.069-.7205 0 .0467.069c.0477.072.055.082.055.1304.002.048 0 .271 0 .3203 0 .092 0 .1848.002.2755.007.1866.0179.3717.0179.5565 0 .031-.003.065-.003.073l-.2642 0c-.1312 0-.1338-.01-.2052-.1156l-.1148-.043.1148.263 1.502 0zM569.1127 1039.0487c.5278.1939.8053.3612.8053.7495 0 1.1086-1.2475 2.3834-2.7445 2.3834-1.1115 0-3.1887-.8584-3.1887-3.8532 0-.4714.055-.9703.0828-1.4694l5.0451 2.1897zm2.6067-8.2607c-.3036-.1667-.6097-.362-.9133-.5009-.917-.4155-1.8601-.5267-2.6907-.5267-.8878 0-2.2742.056-3.6884 1.0817-1.9681 1.3862-2.8273 3.7707-2.8273 5.8505 0 4.2973 3.494 6.4048 6.3493 6.4048.997 0 2.0248-.2491 2.8571-.7769 1.3844-.9142 1.7456-2.1062 1.9386-2.7445l-6.5152-2.634-2.1342-.1669c.6928-3.5201 3.0782-5.5713 5.7118-5.5713 1.4143 0 2.4404.4975 3.3823.9695l-1.47-1.3853z" transform="matrix(1.25 0 0 -1.25 -169.2546 1414.8444)"/>
  <path fill="#373535" fill-rule="evenodd" d="m 560.9341,1030.1783 -4.9084,0 c 0.6378,0.8305 0.7492,0.9133 0.7492,1.4683 l 0,4.5199 c 0,2.1619 0.0283,5.2398 0.1117,8.1229 0.0272,1.4151 0.138,3.1887 0.1655,4.464 l -2.162,0 2.0795,0.9981 3.9645,0 c -0.8594,-0.4989 -1.1369,-0.6656 -1.2469,-1.6359 -0.2231,-2.1353 -0.2503,-5.5179 -0.2503,-9.4541 l 0,-6.4046 c 0,-1.082 0.1939,-1.2481 1.1097,-1.3311 0.4712,-0.056 0.9423,-0.084 1.4131,-0.1378 l -1.0256,-0.6097 z" transform="matrix(1.25 0 0 -1.25 -169.2546 1414.8444)"/>
  <path fill="#373535" fill-rule="evenodd" d="M550.6767 1034.6956c.6361.6392.6922 1.5256.6922 2.025 0 1.9965-1.1917 5.1015-3.4937 5.1015-.7206 0-1.4964-.3602-1.9406-.9153-.4711-.5825-.6109-1.3308-.6109-2.0517 0-1.8572 1.0823-4.9351 3.466-4.9351.6925 0 1.442.3325 1.887.7756zm-.8048-5.2668c-.2222.028-.3611.028-.638.028-.2498 0-1.7468-.057-2.9112-.4442-.6092-.2223-2.3854-.8864-2.3854-2.8562 0-1.9673 1.914-3.3815 4.8804-3.3815 2.662 0 4.0757 1.2745 4.0757 2.9931 0 1.4142-.9136 2.1637-3.0215 3.6607zm1.9681 12.3097c.6381-.5258 1.9687-1.6356 1.9687-3.7426 0-2.052-1.1653-3.0223-2.329-3.9373-.3594-.3594-.7758-.7483-.7758-1.3578 0-.61.4164-.9439.7194-1.1931l.9987-.7755c1.22-1.027 2.3292-1.9698 2.3292-3.8824 0-2.6064-2.5231-5.2412-7.2921-5.2412-4.0204 0-5.9618 1.9131-5.9618 3.9651 0 .9997.4997 2.4137 2.1359 3.3837 1.7195 1.0533 4.049 1.192 5.2954 1.2761-.3884.4987-.8314 1.0248-.8314 1.8839 0 .472.1383.7495.2772 1.0812-.3056-.027-.61-.055-.8873-.055-2.9392 0-4.6031 2.1912-4.6031 4.3534 0 1.2742.5831 2.6896 1.7747 3.7157 1.5804 1.3031 3.4668 1.5242 4.9629 1.5242l5.7116 0-1.7745-.9984-1.7187 0zM538.1152 1032.0616c.6662.8884.8317 1.997.8317 3.0781 0 2.4401-1.1647 7.0986-4.6023 7.0986-.915 0-1.8292-.3612-2.4948-.9431-1.0811-.9709-1.2758-2.1912-1.2758-3.3832 0-2.7445 1.3594-7.2629 4.7134-7.2629 1.0814 0 2.1909.5258 2.8278 1.4125zm-3.4647-2.2453c-4.4091 0-6.7658 3.4387-6.7658 6.5429 0 3.6326 2.967 6.7382 7.1807 6.7382 4.0766 0 6.6275-3.1892 6.6275-6.5437 0-3.2715-2.5232-6.7374-7.0424-6.7374M523.3652 1032.0616c.6655.8884.8317 1.997.8317 3.0781 0 2.4401-1.1645 7.0986-4.6015 7.0986-.9159 0-1.8306-.3612-2.4962-.9431-1.0814-.9709-1.2756-2.1912-1.2756-3.3832 0-2.7445 1.3592-7.2629 4.714-7.2629 1.0811 0 2.1901.5258 2.8276 1.4125zm-3.4654-2.2453c-4.409 0-6.7654 3.4387-6.7654 6.5429 0 3.6326 2.967 6.7382 7.1815 6.7382 4.0754 0 6.6257-3.1892 6.6257-6.5437 0-3.2715-2.5225-6.7374-7.0418-6.7374M511.3715 1030.7849l-3.7162-.8578c-1.5083-.235-2.8599-.4416-4.2897-.4416-7.1745 0-9.9037 5.2758-9.9037 9.409 0 5.0429 3.8736 9.7212 10.5018 9.7212 1.404 0 2.7556-.2087 3.977-.546 1.9494-.5457 2.8593-1.2212 3.4308-1.6115l-2.1572-2.054-.9093-.2069.6494 1.0403c-.8838.8569-2.4959 2.4421-5.5621 2.4421-4.1074 0-7.2012-3.1193-7.2012-7.6686 0-4.8864 3.5357-9.4873 9.2016-9.4873 1.6645 0 2.5214.3376 3.3015.6497l0 4.1854-3.9249-.2078 2.0798 1.1168 5.5108 0-.676-.6497c-.1823-.1553-.2084-.2077-.26-.4147-.0266-.2352-.0524-.9881-.0524-1.2472l0-3.1714z" transform="matrix(1.25 0 0 -1.25 -169.2546 1414.8444)"/>
</svg>
