<svg xmlns="http://www.w3.org/2000/svg" fill="none" viewBox="0 0 83 65"><mask id="a" fill="#fff"><path d="M72.95 40.909a.288.288 0 0 0 0-.41.292.292 0 0 0-.412 0 .288.288 0 0 0 0 .41.292.292 0 0 0 .411 0Z"/></mask><path fill="#fff" stroke="#2868F3" stroke-width="4" d="M72.95 40.909a.288.288 0 0 0 0-.41.292.292 0 0 0-.412 0 .288.288 0 0 0 0 .41.292.292 0 0 0 .411 0Z" mask="url(#a)"/><mask id="b" fill="#fff"><path d="M72.958 42.208a.288.288 0 0 0 0-.41.293.293 0 0 0-.412 0 .289.289 0 0 0 0 .41.293.293 0 0 0 .412 0Z"/></mask><path fill="#fff" stroke="#2868F3" stroke-width="4" d="M72.958 42.208a.288.288 0 0 0 0-.41.293.293 0 0 0-.412 0 .289.289 0 0 0 0 .41.293.293 0 0 0 .412 0Z" mask="url(#b)"/><mask id="c" fill="#fff"><path d="M72.965 43.508a.288.288 0 0 0 0-.41.293.293 0 0 0-.412 0 .289.289 0 0 0 0 .41.293.293 0 0 0 .412 0Z"/></mask><path fill="#fff" stroke="#2868F3" stroke-width="4" d="M72.965 43.508a.288.288 0 0 0 0-.41.293.293 0 0 0-.412 0 .289.289 0 0 0 0 .41.293.293 0 0 0 .412 0Z" mask="url(#c)"/><mask id="d" fill="#fff"><path d="M74.271 41.618a.289.289 0 0 0 0-.41.293.293 0 0 0-.412 0 .288.288 0 0 0 0 .41.293.293 0 0 0 .412 0Z"/></mask><path fill="#fff" stroke="#2868F3" stroke-width="4" d="M74.271 41.618a.289.289 0 0 0 0-.41.293.293 0 0 0-.412 0 .288.288 0 0 0 0 .41.293.293 0 0 0 .412 0Z" mask="url(#d)"/><mask id="e" fill="#fff"><path d="M74.279 42.917a.288.288 0 0 0 0-.41.292.292 0 0 0-.412 0 .288.288 0 0 0 0 .41.292.292 0 0 0 .412 0Z"/></mask><path fill="#fff" stroke="#2868F3" stroke-width="4" d="M74.279 42.917a.288.288 0 0 0 0-.41.292.292 0 0 0-.412 0 .288.288 0 0 0 0 .41.292.292 0 0 0 .412 0Z" mask="url(#e)"/><mask id="f" fill="#fff"><path d="M75.564 40.892a.289.289 0 0 0 0-.41.293.293 0 0 0-.412 0 .289.289 0 0 0 0 .41.293.293 0 0 0 .412 0Z"/></mask><path fill="#fff" stroke="#2868F3" stroke-width="4" d="M75.564 40.892a.289.289 0 0 0 0-.41.293.293 0 0 0-.412 0 .289.289 0 0 0 0 .41.293.293 0 0 0 .412 0Z" mask="url(#f)"/><mask id="g" fill="#fff"><path d="M75.573 42.192a.289.289 0 0 0 0-.41.293.293 0 0 0-.412 0 .288.288 0 0 0 0 .41.293.293 0 0 0 .412 0Z"/></mask><path fill="#fff" stroke="#2868F3" stroke-width="4" d="M75.573 42.192a.289.289 0 0 0 0-.41.293.293 0 0 0-.412 0 .288.288 0 0 0 0 .41.293.293 0 0 0 .412 0Z" mask="url(#g)"/><mask id="h" fill="#fff"><path d="M75.381 43.58a.29.29 0 0 0 .292-.29.29.29 0 0 0-.292-.289.29.29 0 0 0-.291.29c0 .16.13.29.291.29Z"/></mask><path fill="#fff" stroke="#2868F3" stroke-width="4" d="M75.381 43.58a.29.29 0 0 0 .292-.29.29.29 0 0 0-.292-.289.29.29 0 0 0-.291.29c0 .16.13.29.291.29Z" mask="url(#h)"/><mask id="i" fill="#fff"><path d="M76.886 41.602a.289.289 0 0 0 0-.41.293.293 0 0 0-.412 0 .288.288 0 0 0 0 .41.293.293 0 0 0 .412 0Z"/></mask><path fill="#fff" stroke="#2868F3" stroke-width="4" d="M76.886 41.602a.289.289 0 0 0 0-.41.293.293 0 0 0-.412 0 .288.288 0 0 0 0 .41.293.293 0 0 0 .412 0Z" mask="url(#i)"/><mask id="j" fill="#fff"><path d="M76.894 42.901a.288.288 0 0 0 0-.41.293.293 0 0 0-.412 0 .289.289 0 0 0 0 .41.293.293 0 0 0 .412 0Z"/></mask><path fill="#fff" stroke="#2868F3" stroke-width="4" d="M76.894 42.901a.288.288 0 0 0 0-.41.293.293 0 0 0-.412 0 .289.289 0 0 0 0 .41.293.293 0 0 0 .412 0Z" mask="url(#j)"/><mask id="k" fill="#fff"><path d="M78.18 40.876a.289.289 0 0 0 0-.41.293.293 0 0 0-.413 0 .289.289 0 0 0 0 .41.293.293 0 0 0 .413 0Z"/></mask><path fill="#fff" stroke="#2868F3" stroke-width="4" d="M78.18 40.876a.289.289 0 0 0 0-.41.293.293 0 0 0-.413 0 .289.289 0 0 0 0 .41.293.293 0 0 0 .413 0Z" mask="url(#k)"/><mask id="l" fill="#fff"><path d="M78.188 42.175a.288.288 0 0 0 0-.41.293.293 0 0 0-.413 0 .289.289 0 0 0 0 .41.293.293 0 0 0 .412 0Z"/></mask><path fill="#fff" stroke="#2868F3" stroke-width="4" d="M78.188 42.175a.288.288 0 0 0 0-.41.293.293 0 0 0-.413 0 .289.289 0 0 0 0 .41.293.293 0 0 0 .412 0Z" mask="url(#l)"/><mask id="m" fill="#fff"><path d="M78.196 43.475a.288.288 0 0 0 0-.41.293.293 0 0 0-.412 0 .289.289 0 0 0 0 .41.293.293 0 0 0 .412 0Z"/></mask><path fill="#fff" stroke="#2868F3" stroke-width="4" d="M78.196 43.475a.288.288 0 0 0 0-.41.293.293 0 0 0-.412 0 .289.289 0 0 0 0 .41.293.293 0 0 0 .412 0Z" mask="url(#m)"/><mask id="n" fill="#fff"><path d="M79.45 41.637a.288.288 0 0 0 0-.41.293.293 0 0 0-.413 0 .289.289 0 0 0 0 .41.293.293 0 0 0 .412 0Z"/></mask><path fill="#fff" stroke="#2868F3" stroke-width="4" d="M79.45 41.637a.288.288 0 0 0 0-.41.293.293 0 0 0-.413 0 .289.289 0 0 0 0 .41.293.293 0 0 0 .412 0Z" mask="url(#n)"/><mask id="o" fill="#fff"><path d="M79.458 42.936a.288.288 0 0 0 0-.41.292.292 0 0 0-.412 0 .288.288 0 0 0 0 .41.292.292 0 0 0 .412 0Z"/></mask><path fill="#fff" stroke="#2868F3" stroke-width="4" d="M79.458 42.936a.288.288 0 0 0 0-.41.292.292 0 0 0-.412 0 .288.288 0 0 0 0 .41.292.292 0 0 0 .412 0Z" mask="url(#o)"/><mask id="p" fill="#fff"><path d="M80.743 40.911a.289.289 0 0 0 0-.41.293.293 0 0 0-.412 0 .289.289 0 0 0 0 .41.293.293 0 0 0 .412 0Z"/></mask><path fill="#fff" stroke="#2868F3" stroke-width="4" d="M80.743 40.911a.289.289 0 0 0 0-.41.293.293 0 0 0-.412 0 .289.289 0 0 0 0 .41.293.293 0 0 0 .412 0Z" mask="url(#p)"/><mask id="q" fill="#fff"><path d="M80.752 42.21a.289.289 0 0 0 0-.41.293.293 0 0 0-.412 0 .288.288 0 0 0 0 .41.293.293 0 0 0 .412 0Z"/></mask><path fill="#fff" stroke="#2868F3" stroke-width="4" d="M80.752 42.21a.289.289 0 0 0 0-.41.293.293 0 0 0-.412 0 .288.288 0 0 0 0 .41.293.293 0 0 0 .412 0Z" mask="url(#q)"/><mask id="r" fill="#fff"><path d="M80.76 43.508a.288.288 0 0 0 0-.409.293.293 0 0 0-.412 0 .289.289 0 0 0 0 .41.293.293 0 0 0 .412 0Z"/></mask><path fill="#fff" stroke="#2868F3" stroke-width="4" d="M80.76 43.508a.288.288 0 0 0 0-.409.293.293 0 0 0-.412 0 .289.289 0 0 0 0 .41.293.293 0 0 0 .412 0Z" mask="url(#r)"/><mask id="s" fill="#fff"><path d="M69.482 42.133c0 .723-.51 1.302-1.165 1.374h-.219a1.378 1.378 0 0 1-1.384-1.374c0-.797.656-1.375 1.384-1.375h.219c.655.072 1.165.65 1.165 1.374Z"/></mask><path fill="#fff" stroke="#2868F3" stroke-width="4" d="M69.482 42.133c0 .723-.51 1.302-1.165 1.374h-.219a1.378 1.378 0 0 1-1.384-1.374c0-.797.656-1.375 1.384-1.375h.219c.655.072 1.165.65 1.165 1.374Z" mask="url(#s)"/><mask id="t" fill="#fff"><path d="M72.948 49.593a.289.289 0 0 0 0-.41.293.293 0 0 0-.412 0 .289.289 0 0 0 0 .41.293.293 0 0 0 .412 0Z"/></mask><path fill="#fff" stroke="#2868F3" stroke-width="4" d="M72.948 49.593a.289.289 0 0 0 0-.41.293.293 0 0 0-.412 0 .289.289 0 0 0 0 .41.293.293 0 0 0 .412 0Z" mask="url(#t)"/><mask id="u" fill="#fff"><path d="M72.957 50.891a.289.289 0 0 0 0-.41.293.293 0 0 0-.412 0 .288.288 0 0 0 0 .41.293.293 0 0 0 .412 0Z"/></mask><path fill="#fff" stroke="#2868F3" stroke-width="4" d="M72.957 50.891a.289.289 0 0 0 0-.41.293.293 0 0 0-.412 0 .288.288 0 0 0 0 .41.293.293 0 0 0 .412 0Z" mask="url(#u)"/><mask id="v" fill="#fff"><path d="M72.759 52.265a.29.29 0 0 0 .291-.29.29.29 0 0 0-.291-.29.29.29 0 0 0-.291.29c0 .16.13.29.29.29Z"/></mask><path fill="#fff" stroke="#2868F3" stroke-width="4" d="M72.759 52.265a.29.29 0 0 0 .291-.29.29.29 0 0 0-.291-.29.29.29 0 0 0-.291.29c0 .16.13.29.29.29Z" mask="url(#v)"/><mask id="w" fill="#fff"><path d="M74.27 50.302a.288.288 0 0 0 0-.41.293.293 0 0 0-.412 0 .288.288 0 0 0 0 .41.292.292 0 0 0 .412 0Z"/></mask><path fill="#fff" stroke="#2868F3" stroke-width="4" d="M74.27 50.302a.288.288 0 0 0 0-.41.293.293 0 0 0-.412 0 .288.288 0 0 0 0 .41.292.292 0 0 0 .412 0Z" mask="url(#w)"/><mask id="x" fill="#fff"><path d="M74.279 51.602a.288.288 0 0 0 0-.41.293.293 0 0 0-.413 0 .289.289 0 0 0 0 .41.293.293 0 0 0 .413 0Z"/></mask><path fill="#2D5887" stroke="#2868F3" stroke-width="4" d="M74.279 51.602a.288.288 0 0 0 0-.41.293.293 0 0 0-.413 0 .289.289 0 0 0 0 .41.293.293 0 0 0 .413 0Z" mask="url(#x)"/><mask id="y" fill="#fff"><path d="M75.564 49.577a.288.288 0 0 0 0-.41.293.293 0 0 0-.413 0 .289.289 0 0 0 0 .41.293.293 0 0 0 .413 0Z"/></mask><path fill="#fff" stroke="#2868F3" stroke-width="4" d="M75.564 49.577a.288.288 0 0 0 0-.41.293.293 0 0 0-.413 0 .289.289 0 0 0 0 .41.293.293 0 0 0 .413 0Z" mask="url(#y)"/><mask id="z" fill="#fff"><path d="M75.572 50.876a.288.288 0 0 0 0-.41.293.293 0 0 0-.412 0 .289.289 0 0 0 0 .41.293.293 0 0 0 .412 0Z"/></mask><path fill="#fff" stroke="#2868F3" stroke-width="4" d="M75.572 50.876a.288.288 0 0 0 0-.41.293.293 0 0 0-.412 0 .289.289 0 0 0 0 .41.293.293 0 0 0 .412 0Z" mask="url(#z)"/><mask id="A" fill="#fff"><path d="M75.58 52.174a.289.289 0 0 0 0-.41.293.293 0 0 0-.412 0 .288.288 0 0 0 0 .41.293.293 0 0 0 .412 0Z"/></mask><path fill="#fff" stroke="#2868F3" stroke-width="4" d="M75.58 52.174a.289.289 0 0 0 0-.41.293.293 0 0 0-.412 0 .288.288 0 0 0 0 .41.293.293 0 0 0 .412 0Z" mask="url(#A)"/><mask id="B" fill="#fff"><path d="M76.885 50.286a.288.288 0 0 0 0-.41.293.293 0 0 0-.412 0 .289.289 0 0 0 0 .41.293.293 0 0 0 .412 0Z"/></mask><path fill="#fff" stroke="#2868F3" stroke-width="4" d="M76.885 50.286a.288.288 0 0 0 0-.41.293.293 0 0 0-.412 0 .289.289 0 0 0 0 .41.293.293 0 0 0 .412 0Z" mask="url(#B)"/><mask id="C" fill="#fff"><path d="M76.893 51.585a.288.288 0 0 0 0-.41.292.292 0 0 0-.411 0 .288.288 0 0 0 0 .41.292.292 0 0 0 .411 0Z"/></mask><path fill="#fff" stroke="#2868F3" stroke-width="4" d="M76.893 51.585a.288.288 0 0 0 0-.41.292.292 0 0 0-.411 0 .288.288 0 0 0 0 .41.292.292 0 0 0 .411 0Z" mask="url(#C)"/><mask id="D" fill="#fff"><path d="M78.179 49.56a.288.288 0 0 0 0-.41.292.292 0 0 0-.412 0 .288.288 0 0 0 0 .41.292.292 0 0 0 .412 0Z"/></mask><path fill="#fff" stroke="#2868F3" stroke-width="4" d="M78.179 49.56a.288.288 0 0 0 0-.41.292.292 0 0 0-.412 0 .288.288 0 0 0 0 .41.292.292 0 0 0 .412 0Z" mask="url(#D)"/><mask id="E" fill="#fff"><path d="M78.188 50.858a.289.289 0 0 0 0-.41.293.293 0 0 0-.413 0 .288.288 0 0 0 0 .41.293.293 0 0 0 .412 0Z"/></mask><path fill="#fff" stroke="#2868F3" stroke-width="4" d="M78.188 50.858a.289.289 0 0 0 0-.41.293.293 0 0 0-.413 0 .288.288 0 0 0 0 .41.293.293 0 0 0 .412 0Z" mask="url(#E)"/><mask id="F" fill="#fff"><path d="M78.196 52.158a.288.288 0 0 0 0-.41.293.293 0 0 0-.412 0 .289.289 0 0 0 0 .41.293.293 0 0 0 .412 0Z"/></mask><path fill="#fff" stroke="#2868F3" stroke-width="4" d="M78.196 52.158a.288.288 0 0 0 0-.41.293.293 0 0 0-.412 0 .289.289 0 0 0 0 .41.293.293 0 0 0 .412 0Z" mask="url(#F)"/><mask id="G" fill="#fff"><path d="M79.45 50.32a.289.289 0 0 0 0-.409.293.293 0 0 0-.413 0 .288.288 0 0 0 0 .41.293.293 0 0 0 .412 0Z"/></mask><path fill="#fff" stroke="#2868F3" stroke-width="4" d="M79.45 50.32a.289.289 0 0 0 0-.409.293.293 0 0 0-.413 0 .288.288 0 0 0 0 .41.293.293 0 0 0 .412 0Z" mask="url(#G)"/><mask id="H" fill="#fff"><path d="M79.457 51.62a.289.289 0 0 0 0-.41.293.293 0 0 0-.412 0 .289.289 0 0 0 0 .41.293.293 0 0 0 .412 0Z"/></mask><path fill="#fff" stroke="#2868F3" stroke-width="4" d="M79.457 51.62a.289.289 0 0 0 0-.41.293.293 0 0 0-.412 0 .289.289 0 0 0 0 .41.293.293 0 0 0 .412 0Z" mask="url(#H)"/><mask id="I" fill="#fff"><path d="M80.553 49.66a.29.29 0 0 0 .291-.29.29.29 0 0 0-.291-.29.29.29 0 0 0-.291.29c0 .16.13.29.29.29Z"/></mask><path fill="#fff" stroke="#2868F3" stroke-width="4" d="M80.553 49.66a.29.29 0 0 0 .291-.29.29.29 0 0 0-.291-.29.29.29 0 0 0-.291.29c0 .16.13.29.29.29Z" mask="url(#I)"/><mask id="J" fill="#fff"><path d="M80.75 50.894a.288.288 0 0 0 0-.41.292.292 0 0 0-.41 0 .288.288 0 0 0 0 .41.292.292 0 0 0 .41 0Z"/></mask><path fill="#fff" stroke="#2868F3" stroke-width="4" d="M80.75 50.894a.288.288 0 0 0 0-.41.292.292 0 0 0-.41 0 .288.288 0 0 0 0 .41.292.292 0 0 0 .41 0Z" mask="url(#J)"/><mask id="K" fill="#fff"><path d="M80.76 52.193a.289.289 0 0 0 0-.41.293.293 0 0 0-.413 0 .288.288 0 0 0 0 .41.293.293 0 0 0 .412 0Z"/></mask><path fill="#fff" stroke="#2868F3" stroke-width="4" d="M80.76 52.193a.289.289 0 0 0 0-.41.293.293 0 0 0-.413 0 .288.288 0 0 0 0 .41.293.293 0 0 0 .412 0Z" mask="url(#K)"/><mask id="L" fill="#fff"><path d="M69.482 50.817c0 .724-.51 1.302-1.165 1.375h-.219a1.378 1.378 0 0 1-1.384-1.375c0-.796.656-1.375 1.384-1.375h.219c.655.072 1.165.651 1.165 1.375Z"/></mask><path fill="#fff" stroke="#2868F3" stroke-width="4" d="M69.482 50.817c0 .724-.51 1.302-1.165 1.375h-.219a1.378 1.378 0 0 1-1.384-1.375c0-.796.656-1.375 1.384-1.375h.219c.655.072 1.165.651 1.165 1.375Z" mask="url(#L)"/><mask id="M" fill="#fff"><path d="M72.948 58.277a.288.288 0 0 0 0-.41.292.292 0 0 0-.412 0 .288.288 0 0 0 0 .41.292.292 0 0 0 .412 0Z"/></mask><path fill="#fff" stroke="#2868F3" stroke-width="4" d="M72.948 58.277a.288.288 0 0 0 0-.41.292.292 0 0 0-.412 0 .288.288 0 0 0 0 .41.292.292 0 0 0 .412 0Z" mask="url(#M)"/><mask id="N" fill="#fff"><path d="M72.956 59.575a.288.288 0 0 0 0-.41.293.293 0 0 0-.412 0 .29.29 0 0 0 0 .41.293.293 0 0 0 .412 0Z"/></mask><path fill="#fff" stroke="#2868F3" stroke-width="4" d="M72.956 59.575a.288.288 0 0 0 0-.41.293.293 0 0 0-.412 0 .29.29 0 0 0 0 .41.293.293 0 0 0 .412 0Z" mask="url(#N)"/><mask id="O" fill="#fff"><path d="M72.964 60.875a.287.287 0 0 0 0-.41.292.292 0 0 0-.411 0 .287.287 0 0 0 0 .41.293.293 0 0 0 .411 0Z"/></mask><path fill="#fff" stroke="#2868F3" stroke-width="4" d="M72.964 60.875a.287.287 0 0 0 0-.41.292.292 0 0 0-.411 0 .287.287 0 0 0 0 .41.293.293 0 0 0 .411 0Z" mask="url(#O)"/><mask id="P" fill="#fff"><path d="M74.07 59.067a.29.29 0 0 0 .292-.29.29.29 0 0 0-.292-.29.29.29 0 0 0-.29.29c0 .16.13.29.29.29Z"/></mask><path fill="#fff" stroke="#2868F3" stroke-width="4" d="M74.07 59.067a.29.29 0 0 0 .292-.29.29.29 0 0 0-.292-.29.29.29 0 0 0-.29.29c0 .16.13.29.29.29Z" mask="url(#P)"/><mask id="Q" fill="#fff"><path d="M74.278 60.286a.288.288 0 0 0 0-.41.292.292 0 0 0-.412 0 .287.287 0 0 0 0 .41.293.293 0 0 0 .412 0Z"/></mask><path fill="#fff" stroke="#2868F3" stroke-width="4" d="M74.278 60.286a.288.288 0 0 0 0-.41.292.292 0 0 0-.412 0 .287.287 0 0 0 0 .41.293.293 0 0 0 .412 0Z" mask="url(#Q)"/><mask id="R" fill="#fff"><path d="M75.563 58.26a.288.288 0 0 0 0-.41.293.293 0 0 0-.413 0 .29.29 0 0 0 0 .41.292.292 0 0 0 .412 0Z"/></mask><path fill="#fff" stroke="#2868F3" stroke-width="4" d="M75.563 58.26a.288.288 0 0 0 0-.41.293.293 0 0 0-.413 0 .29.29 0 0 0 0 .41.292.292 0 0 0 .412 0Z" mask="url(#R)"/><mask id="S" fill="#fff"><path d="M75.572 59.56a.29.29 0 0 0 0-.41.293.293 0 0 0-.413 0 .288.288 0 0 0 0 .41.293.293 0 0 0 .413 0Z"/></mask><path fill="#fff" stroke="#2868F3" stroke-width="4" d="M75.572 59.56a.29.29 0 0 0 0-.41.293.293 0 0 0-.413 0 .288.288 0 0 0 0 .41.293.293 0 0 0 .413 0Z" mask="url(#S)"/><mask id="T" fill="#fff"><path d="M75.58 60.858a.288.288 0 0 0 0-.41.293.293 0 0 0-.413 0 .29.29 0 0 0 0 .41.293.293 0 0 0 .412 0Z"/></mask><path fill="#fff" stroke="#2868F3" stroke-width="4" d="M75.58 60.858a.288.288 0 0 0 0-.41.293.293 0 0 0-.413 0 .29.29 0 0 0 0 .41.293.293 0 0 0 .412 0Z" mask="url(#T)"/><mask id="U" fill="#fff"><path d="M76.884 58.97a.29.29 0 0 0 0-.41.293.293 0 0 0-.412 0 .288.288 0 0 0 0 .41.293.293 0 0 0 .412 0Z"/></mask><path fill="#fff" stroke="#2868F3" stroke-width="4" d="M76.884 58.97a.29.29 0 0 0 0-.41.293.293 0 0 0-.412 0 .288.288 0 0 0 0 .41.293.293 0 0 0 .412 0Z" mask="url(#U)"/><mask id="V" fill="#fff"><path d="M76.892 60.269a.288.288 0 0 0 0-.41.293.293 0 0 0-.411 0 .288.288 0 0 0 0 .41.293.293 0 0 0 .412 0Z"/></mask><path fill="#fff" stroke="#2868F3" stroke-width="4" d="M76.892 60.269a.288.288 0 0 0 0-.41.293.293 0 0 0-.411 0 .288.288 0 0 0 0 .41.293.293 0 0 0 .412 0Z" mask="url(#V)"/><mask id="W" fill="#fff"><path d="M78.178 58.245a.29.29 0 0 0 0-.41.293.293 0 0 0-.412 0 .29.29 0 0 0 0 .41.293.293 0 0 0 .412 0Z"/></mask><path fill="#fff" stroke="#2868F3" stroke-width="4" d="M78.178 58.245a.29.29 0 0 0 0-.41.293.293 0 0 0-.412 0 .29.29 0 0 0 0 .41.293.293 0 0 0 .412 0Z" mask="url(#W)"/><mask id="X" fill="#fff"><path d="M78.186 59.542a.288.288 0 0 0 0-.409.292.292 0 0 0-.412 0 .287.287 0 0 0 0 .41.292.292 0 0 0 .412 0Z"/></mask><path fill="#fff" stroke="#2868F3" stroke-width="4" d="M78.186 59.542a.288.288 0 0 0 0-.409.292.292 0 0 0-.412 0 .287.287 0 0 0 0 .41.292.292 0 0 0 .412 0Z" mask="url(#X)"/><mask id="Y" fill="#fff"><path d="M78.195 60.841a.287.287 0 0 0 0-.409.293.293 0 0 0-.413 0 .289.289 0 0 0 0 .41.292.292 0 0 0 .413 0Z"/></mask><path fill="#fff" stroke="#2868F3" stroke-width="4" d="M78.195 60.841a.287.287 0 0 0 0-.409.293.293 0 0 0-.413 0 .289.289 0 0 0 0 .41.292.292 0 0 0 .413 0Z" mask="url(#Y)"/><mask id="Z" fill="#fff"><path d="M79.448 59.005a.288.288 0 0 0 0-.41.293.293 0 0 0-.412 0 .29.29 0 0 0 0 .41.293.293 0 0 0 .412 0Z"/></mask><path fill="#fff" stroke="#2868F3" stroke-width="4" d="M79.448 59.005a.288.288 0 0 0 0-.41.293.293 0 0 0-.412 0 .29.29 0 0 0 0 .41.293.293 0 0 0 .412 0Z" mask="url(#Z)"/><mask id="aa" fill="#fff"><path d="M79.456 60.303a.288.288 0 0 0 0-.41.293.293 0 0 0-.412 0 .288.288 0 0 0 0 .41.292.292 0 0 0 .412 0Z"/></mask><path fill="#fff" stroke="#2868F3" stroke-width="4" d="M79.456 60.303a.288.288 0 0 0 0-.41.293.293 0 0 0-.412 0 .288.288 0 0 0 0 .41.292.292 0 0 0 .412 0Z" mask="url(#aa)"/><mask id="ab" fill="#fff"><path d="M80.742 58.28a.29.29 0 0 0 0-.41.293.293 0 0 0-.413 0 .29.29 0 0 0 0 .41.293.293 0 0 0 .413 0Z"/></mask><path fill="#fff" stroke="#2868F3" stroke-width="4" d="M80.742 58.28a.29.29 0 0 0 0-.41.293.293 0 0 0-.413 0 .29.29 0 0 0 0 .41.293.293 0 0 0 .413 0Z" mask="url(#ab)"/><mask id="ac" fill="#fff"><path d="M80.75 59.578a.287.287 0 0 0 0-.41.292.292 0 0 0-.412 0 .289.289 0 0 0 0 .41.292.292 0 0 0 .412 0Z"/></mask><path fill="#fff" stroke="#2868F3" stroke-width="4" d="M80.75 59.578a.287.287 0 0 0 0-.41.292.292 0 0 0-.412 0 .289.289 0 0 0 0 .41.292.292 0 0 0 .412 0Z" mask="url(#ac)"/><mask id="ad" fill="#fff"><path d="M80.553 60.948a.29.29 0 0 0 .291-.29.29.29 0 0 0-.291-.29.29.29 0 0 0-.291.29c0 .16.13.29.29.29Z"/></mask><path fill="#fff" stroke="#2868F3" stroke-width="4" d="M80.553 60.948a.29.29 0 0 0 .291-.29.29.29 0 0 0-.291-.29.29.29 0 0 0-.291.29c0 .16.13.29.29.29Z" mask="url(#ad)"/><mask id="ae" fill="#fff"><path d="M69.482 59.5c0 .724-.51 1.302-1.165 1.375h-.219a1.378 1.378 0 0 1-1.384-1.375c0-.796.656-1.375 1.384-1.375h.219c.655.072 1.165.651 1.165 1.375Z"/></mask><path fill="#fff" stroke="#2868F3" stroke-width="4" d="M69.482 59.5c0 .724-.51 1.302-1.165 1.375h-.219a1.378 1.378 0 0 1-1.384-1.375c0-.796.656-1.375 1.384-1.375h.219c.655.072 1.165.651 1.165 1.375Z" mask="url(#ae)"/><mask id="af" fill="#fff"><path d="M69.482 42.133c0 .723-.51 1.302-1.165 1.374-.656-.072-1.166-.723-1.166-1.374 0-.724.51-1.303 1.166-1.375.655.072 1.165.65 1.165 1.374Z"/></mask><path fill="#C9D2DE" stroke="#2868F3" stroke-width="4" d="M69.482 42.133c0 .723-.51 1.302-1.165 1.374-.656-.072-1.166-.723-1.166-1.374 0-.724.51-1.303 1.166-1.375.655.072 1.165.65 1.165 1.374Z" mask="url(#af)"/><mask id="ag" fill="#fff"><path d="M69.482 50.817c0 .724-.51 1.302-1.165 1.375-.656-.073-1.166-.724-1.166-1.375 0-.724.51-1.303 1.166-1.375.655.072 1.165.651 1.165 1.375Z"/></mask><path fill="#C9D2DE" stroke="#2868F3" stroke-width="4" d="M69.482 50.817c0 .724-.51 1.302-1.165 1.375-.656-.073-1.166-.724-1.166-1.375 0-.724.51-1.303 1.166-1.375.655.072 1.165.651 1.165 1.375Z" mask="url(#ag)"/><mask id="ah" fill="#fff"><path d="M69.482 59.5c0 .724-.51 1.302-1.165 1.375-.656-.073-1.166-.651-1.166-1.375s.51-1.303 1.166-1.375c.655.072 1.165.651 1.165 1.375Z"/></mask><path fill="#C9D2DE" stroke="#2868F3" stroke-width="4" d="M69.482 59.5c0 .724-.51 1.302-1.165 1.375-.656-.073-1.166-.651-1.166-1.375s.51-1.303 1.166-1.375c.655.072 1.165.651 1.165 1.375Z" mask="url(#ah)"/><mask id="ai" fill="#fff"><path d="M56.85 40.901a.289.289 0 0 0 0-.41.293.293 0 0 0-.411 0 .289.289 0 0 0 0 .41.293.293 0 0 0 .412 0Z"/></mask><path fill="#fff" stroke="#2868F3" stroke-width="4" d="M56.85 40.901a.289.289 0 0 0 0-.41.293.293 0 0 0-.411 0 .289.289 0 0 0 0 .41.293.293 0 0 0 .412 0Z" mask="url(#ai)"/><mask id="aj" fill="#fff"><path d="M56.86 42.2a.289.289 0 0 0 0-.41.293.293 0 0 0-.413 0 .288.288 0 0 0 0 .41.293.293 0 0 0 .412 0Z"/></mask><path fill="#fff" stroke="#2868F3" stroke-width="4" d="M56.86 42.2a.289.289 0 0 0 0-.41.293.293 0 0 0-.413 0 .288.288 0 0 0 0 .41.293.293 0 0 0 .412 0Z" mask="url(#aj)"/><mask id="ak" fill="#fff"><path d="M56.868 43.499a.289.289 0 0 0 0-.41.293.293 0 0 0-.412 0 .288.288 0 0 0 0 .41.293.293 0 0 0 .412 0Z"/></mask><path fill="#fff" stroke="#2868F3" stroke-width="4" d="M56.868 43.499a.289.289 0 0 0 0-.41.293.293 0 0 0-.412 0 .288.288 0 0 0 0 .41.293.293 0 0 0 .412 0Z" mask="url(#ak)"/><mask id="al" fill="#fff"><path d="M58.173 41.61a.289.289 0 0 0 0-.409.293.293 0 0 0-.413 0 .288.288 0 0 0 0 .41.293.293 0 0 0 .413 0Z"/></mask><path fill="#fff" stroke="#2868F3" stroke-width="4" d="M58.173 41.61a.289.289 0 0 0 0-.409.293.293 0 0 0-.413 0 .288.288 0 0 0 0 .41.293.293 0 0 0 .413 0Z" mask="url(#al)"/><mask id="am" fill="#fff"><path d="M58.18 42.91a.288.288 0 0 0 0-.41.293.293 0 0 0-.412 0 .289.289 0 0 0 0 .41.293.293 0 0 0 .412 0Z"/></mask><path fill="#fff" stroke="#2868F3" stroke-width="4" d="M58.18 42.91a.288.288 0 0 0 0-.41.293.293 0 0 0-.412 0 .289.289 0 0 0 0 .41.293.293 0 0 0 .412 0Z" mask="url(#am)"/><mask id="an" fill="#fff"><path d="M59.466 40.885a.289.289 0 0 0 0-.41.293.293 0 0 0-.413 0 .289.289 0 0 0 0 .41.293.293 0 0 0 .413 0Z"/></mask><path fill="#fff" stroke="#2868F3" stroke-width="4" d="M59.466 40.885a.289.289 0 0 0 0-.41.293.293 0 0 0-.413 0 .289.289 0 0 0 0 .41.293.293 0 0 0 .413 0Z" mask="url(#an)"/><mask id="ao" fill="#fff"><path d="M59.474 42.183a.288.288 0 0 0 0-.41.293.293 0 0 0-.412 0 .289.289 0 0 0 0 .41.293.293 0 0 0 .412 0Z"/></mask><path fill="#fff" stroke="#2868F3" stroke-width="4" d="M59.474 42.183a.288.288 0 0 0 0-.41.293.293 0 0 0-.412 0 .289.289 0 0 0 0 .41.293.293 0 0 0 .412 0Z" mask="url(#ao)"/><mask id="ap" fill="#fff"><path d="M59.285 43.58a.29.29 0 0 0 .292-.29.29.29 0 0 0-.583 0c0 .16.13.29.291.29Z"/></mask><path fill="#fff" stroke="#2868F3" stroke-width="4" d="M59.285 43.58a.29.29 0 0 0 .292-.29.29.29 0 0 0-.583 0c0 .16.13.29.291.29Z" mask="url(#ap)"/><mask id="aq" fill="#fff"><path d="M60.787 41.594a.288.288 0 0 0 0-.41.292.292 0 0 0-.411 0 .288.288 0 0 0 0 .41.292.292 0 0 0 .411 0Z"/></mask><path fill="#fff" stroke="#2868F3" stroke-width="4" d="M60.787 41.594a.288.288 0 0 0 0-.41.292.292 0 0 0-.411 0 .288.288 0 0 0 0 .41.292.292 0 0 0 .411 0Z" mask="url(#aq)"/><mask id="ar" fill="#fff"><path d="M60.795 42.894a.288.288 0 0 0 0-.41.293.293 0 0 0-.412 0 .289.289 0 0 0 0 .41.293.293 0 0 0 .412 0Z"/></mask><path fill="#fff" stroke="#2868F3" stroke-width="4" d="M60.795 42.894a.288.288 0 0 0 0-.41.293.293 0 0 0-.412 0 .289.289 0 0 0 0 .41.293.293 0 0 0 .412 0Z" mask="url(#ar)"/><mask id="as" fill="#fff"><path d="M62.03 40.92a.289.289 0 0 0 0-.41.293.293 0 0 0-.413 0 .289.289 0 0 0 0 .41.293.293 0 0 0 .412 0Z"/></mask><path fill="#fff" stroke="#2868F3" stroke-width="4" d="M62.03 40.92a.289.289 0 0 0 0-.41.293.293 0 0 0-.413 0 .289.289 0 0 0 0 .41.293.293 0 0 0 .412 0Z" mask="url(#as)"/><mask id="at" fill="#fff"><path d="M62.038 42.218a.289.289 0 0 0 0-.41.293.293 0 0 0-.412 0 .288.288 0 0 0 0 .41.293.293 0 0 0 .412 0Z"/></mask><path fill="#fff" stroke="#2868F3" stroke-width="4" d="M62.038 42.218a.289.289 0 0 0 0-.41.293.293 0 0 0-.412 0 .288.288 0 0 0 0 .41.293.293 0 0 0 .412 0Z" mask="url(#at)"/><mask id="au" fill="#fff"><path d="M62.046 43.517a.289.289 0 0 0 0-.41.293.293 0 0 0-.412 0 .289.289 0 0 0 0 .41.293.293 0 0 0 .412 0Z"/></mask><path fill="#fff" stroke="#2868F3" stroke-width="4" d="M62.046 43.517a.289.289 0 0 0 0-.41.293.293 0 0 0-.412 0 .289.289 0 0 0 0 .41.293.293 0 0 0 .412 0Z" mask="url(#au)"/><mask id="av" fill="#fff"><path d="M63.35 41.63a.288.288 0 0 0 0-.41.292.292 0 0 0-.41 0 .288.288 0 0 0 0 .41.292.292 0 0 0 .41 0Z"/></mask><path fill="#fff" stroke="#2868F3" stroke-width="4" d="M63.35 41.63a.288.288 0 0 0 0-.41.292.292 0 0 0-.41 0 .288.288 0 0 0 0 .41.292.292 0 0 0 .41 0Z" mask="url(#av)"/><mask id="aw" fill="#fff"><path d="M63.36 42.928a.288.288 0 0 0 0-.41.293.293 0 0 0-.413 0 .289.289 0 0 0 0 .41.293.293 0 0 0 .412 0Z"/></mask><path fill="#fff" stroke="#2868F3" stroke-width="4" d="M63.36 42.928a.288.288 0 0 0 0-.41.293.293 0 0 0-.413 0 .289.289 0 0 0 0 .41.293.293 0 0 0 .412 0Z" mask="url(#aw)"/><mask id="ax" fill="#fff"><path d="M64.645 40.903a.289.289 0 0 0 0-.41.293.293 0 0 0-.412 0 .289.289 0 0 0 0 .41.293.293 0 0 0 .412 0Z"/></mask><path fill="#fff" stroke="#2868F3" stroke-width="4" d="M64.645 40.903a.289.289 0 0 0 0-.41.293.293 0 0 0-.412 0 .289.289 0 0 0 0 .41.293.293 0 0 0 .412 0Z" mask="url(#ax)"/><mask id="ay" fill="#fff"><path d="M64.652 42.202a.288.288 0 0 0 0-.41.293.293 0 0 0-.412 0 .289.289 0 0 0 0 .41.293.293 0 0 0 .412 0Z"/></mask><path fill="#fff" stroke="#2868F3" stroke-width="4" d="M64.652 42.202a.288.288 0 0 0 0-.41.293.293 0 0 0-.412 0 .289.289 0 0 0 0 .41.293.293 0 0 0 .412 0Z" mask="url(#ay)"/><mask id="az" fill="#fff"><path d="M64.661 43.5a.289.289 0 0 0 0-.409.293.293 0 0 0-.412 0 .288.288 0 0 0 0 .41.293.293 0 0 0 .412 0Z"/></mask><path fill="#fff" stroke="#2868F3" stroke-width="4" d="M64.661 43.5a.289.289 0 0 0 0-.409.293.293 0 0 0-.412 0 .288.288 0 0 0 0 .41.293.293 0 0 0 .412 0Z" mask="url(#az)"/><mask id="aA" fill="#fff"><path d="M65.966 41.613a.289.289 0 0 0 0-.41.293.293 0 0 0-.412 0 .288.288 0 0 0 0 .41.293.293 0 0 0 .412 0Z"/></mask><path fill="#fff" stroke="#2868F3" stroke-width="4" d="M65.966 41.613a.289.289 0 0 0 0-.41.293.293 0 0 0-.412 0 .288.288 0 0 0 0 .41.293.293 0 0 0 .412 0Z" mask="url(#aA)"/><mask id="aB" fill="#fff"><path d="M65.974 42.91a.288.288 0 0 0 0-.409.292.292 0 0 0-.412 0 .288.288 0 0 0 0 .41.292.292 0 0 0 .412 0Z"/></mask><path fill="#fff" stroke="#2868F3" stroke-width="4" d="M65.974 42.91a.288.288 0 0 0 0-.409.292.292 0 0 0-.412 0 .288.288 0 0 0 0 .41.292.292 0 0 0 .412 0Z" mask="url(#aB)"/><mask id="aC" fill="#fff"><path d="M67.26 40.887a.288.288 0 0 0 0-.41.292.292 0 0 0-.413 0 .288.288 0 0 0 0 .41.292.292 0 0 0 .412 0Z"/></mask><path fill="#fff" stroke="#2868F3" stroke-width="4" d="M67.26 40.887a.288.288 0 0 0 0-.41.292.292 0 0 0-.413 0 .288.288 0 0 0 0 .41.292.292 0 0 0 .412 0Z" mask="url(#aC)"/><mask id="aD" fill="#fff"><path d="M67.267 42.185a.288.288 0 0 0 0-.41.292.292 0 0 0-.411 0 .288.288 0 0 0 0 .41.292.292 0 0 0 .412 0Z"/></mask><path fill="#fff" stroke="#2868F3" stroke-width="4" d="M67.267 42.185a.288.288 0 0 0 0-.41.292.292 0 0 0-.411 0 .288.288 0 0 0 0 .41.292.292 0 0 0 .412 0Z" mask="url(#aD)"/><mask id="aE" fill="#fff"><path d="M67.277 43.484a.289.289 0 0 0 0-.41.293.293 0 0 0-.412 0 .288.288 0 0 0 0 .41.293.293 0 0 0 .412 0Z"/></mask><path fill="#fff" stroke="#2868F3" stroke-width="4" d="M67.277 43.484a.289.289 0 0 0 0-.41.293.293 0 0 0-.412 0 .288.288 0 0 0 0 .41.293.293 0 0 0 .412 0Z" mask="url(#aE)"/><mask id="aF" fill="#fff"><path d="M56.85 49.584a.289.289 0 0 0 0-.41.293.293 0 0 0-.412 0 .289.289 0 0 0 0 .41.293.293 0 0 0 .412 0Z"/></mask><path fill="#fff" stroke="#2868F3" stroke-width="4" d="M56.85 49.584a.289.289 0 0 0 0-.41.293.293 0 0 0-.412 0 .289.289 0 0 0 0 .41.293.293 0 0 0 .412 0Z" mask="url(#aF)"/><mask id="aG" fill="#fff"><path d="M56.859 50.883a.289.289 0 0 0 0-.409.293.293 0 0 0-.413 0 .289.289 0 0 0 0 .41.293.293 0 0 0 .413 0Z"/></mask><path fill="#fff" stroke="#2868F3" stroke-width="4" d="M56.859 50.883a.289.289 0 0 0 0-.409.293.293 0 0 0-.413 0 .289.289 0 0 0 0 .41.293.293 0 0 0 .413 0Z" mask="url(#aG)"/><mask id="aH" fill="#fff"><path d="M56.664 52.265a.29.29 0 0 0 .291-.29.29.29 0 0 0-.291-.29.29.29 0 0 0-.292.29c0 .16.13.29.292.29Z"/></mask><path fill="#fff" stroke="#2868F3" stroke-width="4" d="M56.664 52.265a.29.29 0 0 0 .291-.29.29.29 0 0 0-.291-.29.29.29 0 0 0-.292.29c0 .16.13.29.292.29Z" mask="url(#aH)"/><mask id="aI" fill="#fff"><path d="M58.172 50.295a.289.289 0 0 0 0-.41.293.293 0 0 0-.412 0 .288.288 0 0 0 0 .41.293.293 0 0 0 .412 0Z"/></mask><path fill="#fff" stroke="#2868F3" stroke-width="4" d="M58.172 50.295a.289.289 0 0 0 0-.41.293.293 0 0 0-.412 0 .288.288 0 0 0 0 .41.293.293 0 0 0 .412 0Z" mask="url(#aI)"/><mask id="aJ" fill="#fff"><path d="M58.18 51.593a.288.288 0 0 0 0-.41.293.293 0 0 0-.412 0 .289.289 0 0 0 0 .41.293.293 0 0 0 .412 0Z"/></mask><path fill="#2D5887" stroke="#2868F3" stroke-width="4" d="M58.18 51.593a.288.288 0 0 0 0-.41.293.293 0 0 0-.412 0 .289.289 0 0 0 0 .41.293.293 0 0 0 .412 0Z" mask="url(#aJ)"/><mask id="aK" fill="#fff"><path d="M59.465 49.569a.289.289 0 0 0 0-.41.293.293 0 0 0-.412 0 .289.289 0 0 0 0 .41.293.293 0 0 0 .412 0Z"/></mask><path fill="#fff" stroke="#2868F3" stroke-width="4" d="M59.465 49.569a.289.289 0 0 0 0-.41.293.293 0 0 0-.412 0 .289.289 0 0 0 0 .41.293.293 0 0 0 .412 0Z" mask="url(#aK)"/><mask id="aL" fill="#fff"><path d="M59.474 50.867a.288.288 0 0 0 0-.41.293.293 0 0 0-.413 0 .289.289 0 0 0 0 .41.293.293 0 0 0 .413 0Z"/></mask><path fill="#fff" stroke="#2868F3" stroke-width="4" d="M59.474 50.867a.288.288 0 0 0 0-.41.293.293 0 0 0-.413 0 .289.289 0 0 0 0 .41.293.293 0 0 0 .413 0Z" mask="url(#aL)"/><mask id="aM" fill="#fff"><path d="M59.482 52.166a.289.289 0 0 0 0-.41.293.293 0 0 0-.412 0 .289.289 0 0 0 0 .41.293.293 0 0 0 .412 0Z"/></mask><path fill="#fff" stroke="#2868F3" stroke-width="4" d="M59.482 52.166a.289.289 0 0 0 0-.41.293.293 0 0 0-.412 0 .289.289 0 0 0 0 .41.293.293 0 0 0 .412 0Z" mask="url(#aM)"/><mask id="aN" fill="#fff"><path d="M60.786 50.278a.288.288 0 0 0 0-.41.292.292 0 0 0-.411 0 .288.288 0 0 0 0 .41.292.292 0 0 0 .411 0Z"/></mask><path fill="#fff" stroke="#2868F3" stroke-width="4" d="M60.786 50.278a.288.288 0 0 0 0-.41.292.292 0 0 0-.411 0 .288.288 0 0 0 0 .41.292.292 0 0 0 .411 0Z" mask="url(#aN)"/><mask id="aO" fill="#fff"><path d="M60.795 51.578a.288.288 0 0 0 0-.41.293.293 0 0 0-.412 0 .289.289 0 0 0 0 .41.293.293 0 0 0 .412 0Z"/></mask><path fill="#fff" stroke="#2868F3" stroke-width="4" d="M60.795 51.578a.288.288 0 0 0 0-.41.293.293 0 0 0-.412 0 .289.289 0 0 0 0 .41.293.293 0 0 0 .412 0Z" mask="url(#aO)"/><mask id="aP" fill="#fff"><path d="M62.028 49.603a.288.288 0 0 0 0-.41.292.292 0 0 0-.411 0 .288.288 0 0 0 0 .41.292.292 0 0 0 .411 0Z"/></mask><path fill="#fff" stroke="#2868F3" stroke-width="4" d="M62.028 49.603a.288.288 0 0 0 0-.41.292.292 0 0 0-.411 0 .288.288 0 0 0 0 .41.292.292 0 0 0 .411 0Z" mask="url(#aP)"/><mask id="aQ" fill="#fff"><path d="M62.037 50.902a.289.289 0 0 0 0-.41.293.293 0 0 0-.412 0 .288.288 0 0 0 0 .41.293.293 0 0 0 .412 0Z"/></mask><path fill="#fff" stroke="#2868F3" stroke-width="4" d="M62.037 50.902a.289.289 0 0 0 0-.41.293.293 0 0 0-.412 0 .288.288 0 0 0 0 .41.293.293 0 0 0 .412 0Z" mask="url(#aQ)"/><mask id="aR" fill="#fff"><path d="M62.045 52.202a.288.288 0 0 0 0-.41.293.293 0 0 0-.412 0 .289.289 0 0 0 0 .41.293.293 0 0 0 .412 0Z"/></mask><path fill="#fff" stroke="#2868F3" stroke-width="4" d="M62.045 52.202a.288.288 0 0 0 0-.41.293.293 0 0 0-.412 0 .289.289 0 0 0 0 .41.293.293 0 0 0 .412 0Z" mask="url(#aR)"/><mask id="aS" fill="#fff"><path d="M63.35 50.312a.288.288 0 0 0 0-.41.293.293 0 0 0-.412 0 .289.289 0 0 0 0 .41.293.293 0 0 0 .412 0Z"/></mask><path fill="#fff" stroke="#2868F3" stroke-width="4" d="M63.35 50.312a.288.288 0 0 0 0-.41.293.293 0 0 0-.412 0 .289.289 0 0 0 0 .41.293.293 0 0 0 .412 0Z" mask="url(#aS)"/><mask id="aT" fill="#fff"><path d="M63.359 51.611a.288.288 0 0 0 0-.409.293.293 0 0 0-.413 0 .289.289 0 0 0 0 .41.293.293 0 0 0 .413 0Z"/></mask><path fill="#fff" stroke="#2868F3" stroke-width="4" d="M63.359 51.611a.288.288 0 0 0 0-.409.293.293 0 0 0-.413 0 .289.289 0 0 0 0 .41.293.293 0 0 0 .413 0Z" mask="url(#aT)"/><mask id="aU" fill="#fff"><path d="M64.457 49.66a.29.29 0 0 0 .292-.29.29.29 0 0 0-.292-.29.29.29 0 0 0-.291.29c0 .16.13.29.291.29Z"/></mask><path fill="#fff" stroke="#2868F3" stroke-width="4" d="M64.457 49.66a.29.29 0 0 0 .292-.29.29.29 0 0 0-.292-.29.29.29 0 0 0-.291.29c0 .16.13.29.291.29Z" mask="url(#aU)"/><mask id="aV" fill="#fff"><path d="M64.653 50.886a.289.289 0 0 0 0-.41.293.293 0 0 0-.412 0 .288.288 0 0 0 0 .41.293.293 0 0 0 .412 0Z"/></mask><path fill="#fff" stroke="#2868F3" stroke-width="4" d="M64.653 50.886a.289.289 0 0 0 0-.41.293.293 0 0 0-.412 0 .288.288 0 0 0 0 .41.293.293 0 0 0 .412 0Z" mask="url(#aV)"/><mask id="aW" fill="#fff"><path d="M64.66 52.185a.289.289 0 0 0 0-.41.293.293 0 0 0-.412 0 .288.288 0 0 0 0 .41.293.293 0 0 0 .413 0Z"/></mask><path fill="#fff" stroke="#2868F3" stroke-width="4" d="M64.66 52.185a.289.289 0 0 0 0-.41.293.293 0 0 0-.412 0 .288.288 0 0 0 0 .41.293.293 0 0 0 .413 0Z" mask="url(#aW)"/><mask id="aX" fill="#fff"><path d="M65.965 50.297a.289.289 0 0 0 0-.41.293.293 0 0 0-.412 0 .288.288 0 0 0 0 .41.293.293 0 0 0 .412 0Z"/></mask><path fill="#fff" stroke="#2868F3" stroke-width="4" d="M65.965 50.297a.289.289 0 0 0 0-.41.293.293 0 0 0-.412 0 .288.288 0 0 0 0 .41.293.293 0 0 0 .412 0Z" mask="url(#aX)"/><mask id="aY" fill="#fff"><path d="M65.974 51.595a.288.288 0 0 0 0-.41.293.293 0 0 0-.412 0 .289.289 0 0 0 0 .41.293.293 0 0 0 .412 0Z"/></mask><path fill="#fff" stroke="#2868F3" stroke-width="4" d="M65.974 51.595a.288.288 0 0 0 0-.41.293.293 0 0 0-.412 0 .289.289 0 0 0 0 .41.293.293 0 0 0 .412 0Z" mask="url(#aY)"/><mask id="aZ" fill="#fff"><path d="M67.26 49.571a.289.289 0 0 0 0-.41.293.293 0 0 0-.413 0 .288.288 0 0 0 0 .41.293.293 0 0 0 .412 0Z"/></mask><path fill="#fff" stroke="#2868F3" stroke-width="4" d="M67.26 49.571a.289.289 0 0 0 0-.41.293.293 0 0 0-.413 0 .288.288 0 0 0 0 .41.293.293 0 0 0 .412 0Z" mask="url(#aZ)"/><mask id="ba" fill="#fff"><path d="M67.267 50.87a.289.289 0 0 0 0-.41.293.293 0 0 0-.412 0 .288.288 0 0 0 0 .41.293.293 0 0 0 .412 0Z"/></mask><path fill="#fff" stroke="#2868F3" stroke-width="4" d="M67.267 50.87a.289.289 0 0 0 0-.41.293.293 0 0 0-.412 0 .288.288 0 0 0 0 .41.293.293 0 0 0 .412 0Z" mask="url(#ba)"/><mask id="bb" fill="#fff"><path d="M67.276 52.169a.289.289 0 0 0 0-.41.293.293 0 0 0-.413 0 .288.288 0 0 0 0 .41.293.293 0 0 0 .413 0Z"/></mask><path fill="#fff" stroke="#2868F3" stroke-width="4" d="M67.276 52.169a.289.289 0 0 0 0-.41.293.293 0 0 0-.413 0 .288.288 0 0 0 0 .41.293.293 0 0 0 .413 0Z" mask="url(#bb)"/><mask id="bc" fill="#fff"><path d="M56.85 58.269a.289.289 0 0 0 0-.41.292.292 0 0 0-.413 0 .289.289 0 0 0 0 .41.292.292 0 0 0 .412 0Z"/></mask><path fill="#fff" stroke="#2868F3" stroke-width="4" d="M56.85 58.269a.289.289 0 0 0 0-.41.292.292 0 0 0-.413 0 .289.289 0 0 0 0 .41.292.292 0 0 0 .412 0Z" mask="url(#bc)"/><mask id="bd" fill="#fff"><path d="M56.858 59.568a.29.29 0 0 0 0-.41.293.293 0 0 0-.412 0 .29.29 0 0 0 0 .41.293.293 0 0 0 .412 0Z"/></mask><path fill="#fff" stroke="#2868F3" stroke-width="4" d="M56.858 59.568a.29.29 0 0 0 0-.41.293.293 0 0 0-.412 0 .29.29 0 0 0 0 .41.293.293 0 0 0 .412 0Z" mask="url(#bd)"/><mask id="be" fill="#fff"><path d="M56.866 60.867a.287.287 0 0 0 0-.41.293.293 0 0 0-.413 0 .29.29 0 0 0 0 .41.293.293 0 0 0 .413 0Z"/></mask><path fill="#fff" stroke="#2868F3" stroke-width="4" d="M56.866 60.867a.287.287 0 0 0 0-.41.293.293 0 0 0-.413 0 .29.29 0 0 0 0 .41.293.293 0 0 0 .413 0Z" mask="url(#be)"/><mask id="bf" fill="#fff"><path d="M57.975 59.067a.29.29 0 0 0 .291-.29.29.29 0 0 0-.291-.29.29.29 0 0 0-.291.29c0 .16.13.29.291.29Z"/></mask><path fill="#fff" stroke="#2868F3" stroke-width="4" d="M57.975 59.067a.29.29 0 0 0 .291-.29.29.29 0 0 0-.291-.29.29.29 0 0 0-.291.29c0 .16.13.29.291.29Z" mask="url(#bf)"/><mask id="bg" fill="#fff"><path d="M58.18 60.277a.287.287 0 0 0 0-.41.292.292 0 0 0-.413 0 .288.288 0 0 0 0 .41.292.292 0 0 0 .412 0Z"/></mask><path fill="#fff" stroke="#2868F3" stroke-width="4" d="M58.18 60.277a.287.287 0 0 0 0-.41.292.292 0 0 0-.413 0 .288.288 0 0 0 0 .41.292.292 0 0 0 .412 0Z" mask="url(#bg)"/><mask id="bh" fill="#fff"><path d="M59.464 58.252a.29.29 0 0 0 0-.41.293.293 0 0 0-.412 0 .29.29 0 0 0 0 .41.292.292 0 0 0 .412 0Z"/></mask><path fill="#fff" stroke="#2868F3" stroke-width="4" d="M59.464 58.252a.29.29 0 0 0 0-.41.293.293 0 0 0-.412 0 .29.29 0 0 0 0 .41.292.292 0 0 0 .412 0Z" mask="url(#bh)"/><mask id="bi" fill="#fff"><path d="M59.473 59.551a.288.288 0 0 0 0-.41.293.293 0 0 0-.412 0 .29.29 0 0 0 0 .41.293.293 0 0 0 .412 0Z"/></mask><path fill="#fff" stroke="#2868F3" stroke-width="4" d="M59.473 59.551a.288.288 0 0 0 0-.41.293.293 0 0 0-.412 0 .29.29 0 0 0 0 .41.293.293 0 0 0 .412 0Z" mask="url(#bi)"/><mask id="bj" fill="#fff"><path d="M59.481 60.85a.29.29 0 0 0 0-.41.293.293 0 0 0-.412 0 .29.29 0 0 0 0 .41.293.293 0 0 0 .412 0Z"/></mask><path fill="#fff" stroke="#2868F3" stroke-width="4" d="M59.481 60.85a.29.29 0 0 0 0-.41.293.293 0 0 0-.412 0 .29.29 0 0 0 0 .41.293.293 0 0 0 .412 0Z" mask="url(#bj)"/><mask id="bk" fill="#fff"><path d="M60.786 58.962a.288.288 0 0 0 0-.41.292.292 0 0 0-.412 0 .288.288 0 0 0 0 .41.293.293 0 0 0 .412 0Z"/></mask><path fill="#fff" stroke="#2868F3" stroke-width="4" d="M60.786 58.962a.288.288 0 0 0 0-.41.292.292 0 0 0-.412 0 .288.288 0 0 0 0 .41.293.293 0 0 0 .412 0Z" mask="url(#bk)"/><mask id="bl" fill="#fff"><path d="M60.794 60.26a.288.288 0 0 0 0-.409.293.293 0 0 0-.412 0 .29.29 0 0 0 0 .41.293.293 0 0 0 .413 0Z"/></mask><path fill="#fff" stroke="#2868F3" stroke-width="4" d="M60.794 60.26a.288.288 0 0 0 0-.409.293.293 0 0 0-.412 0 .29.29 0 0 0 0 .41.293.293 0 0 0 .413 0Z" mask="url(#bl)"/><mask id="bm" fill="#fff"><path d="M62.028 58.287a.288.288 0 0 0 0-.41.292.292 0 0 0-.412 0 .288.288 0 0 0 0 .41.292.292 0 0 0 .412 0Z"/></mask><path fill="#fff" stroke="#2868F3" stroke-width="4" d="M62.028 58.287a.288.288 0 0 0 0-.41.292.292 0 0 0-.412 0 .288.288 0 0 0 0 .41.292.292 0 0 0 .412 0Z" mask="url(#bm)"/><mask id="bn" fill="#fff"><path d="M62.037 59.587a.29.29 0 0 0 0-.41.293.293 0 0 0-.413 0 .288.288 0 0 0 0 .41.293.293 0 0 0 .413 0Z"/></mask><path fill="#fff" stroke="#2868F3" stroke-width="4" d="M62.037 59.587a.29.29 0 0 0 0-.41.293.293 0 0 0-.413 0 .288.288 0 0 0 0 .41.293.293 0 0 0 .413 0Z" mask="url(#bn)"/><mask id="bo" fill="#fff"><path d="M62.045 60.885a.288.288 0 0 0 0-.41.293.293 0 0 0-.412 0 .29.29 0 0 0 0 .41.293.293 0 0 0 .412 0Z"/></mask><path fill="#fff" stroke="#2868F3" stroke-width="4" d="M62.045 60.885a.288.288 0 0 0 0-.41.293.293 0 0 0-.412 0 .29.29 0 0 0 0 .41.293.293 0 0 0 .412 0Z" mask="url(#bo)"/><mask id="bp" fill="#fff"><path d="M63.35 58.997a.288.288 0 0 0 0-.41.293.293 0 0 0-.412 0 .29.29 0 0 0 0 .41.293.293 0 0 0 .412 0Z"/></mask><path fill="#fff" stroke="#2868F3" stroke-width="4" d="M63.35 58.997a.288.288 0 0 0 0-.41.293.293 0 0 0-.412 0 .29.29 0 0 0 0 .41.293.293 0 0 0 .412 0Z" mask="url(#bp)"/><mask id="bq" fill="#fff"><path d="M63.358 60.296a.288.288 0 0 0 0-.41.293.293 0 0 0-.412 0 .29.29 0 0 0 0 .41.293.293 0 0 0 .412 0Z"/></mask><path fill="#fff" stroke="#2868F3" stroke-width="4" d="M63.358 60.296a.288.288 0 0 0 0-.41.293.293 0 0 0-.412 0 .29.29 0 0 0 0 .41.293.293 0 0 0 .412 0Z" mask="url(#bq)"/><mask id="br" fill="#fff"><path d="M64.644 58.27a.29.29 0 0 0 0-.409.293.293 0 0 0-.413 0 .29.29 0 0 0 0 .41.293.293 0 0 0 .413 0Z"/></mask><path fill="#fff" stroke="#2868F3" stroke-width="4" d="M64.644 58.27a.29.29 0 0 0 0-.409.293.293 0 0 0-.413 0 .29.29 0 0 0 0 .41.293.293 0 0 0 .413 0Z" mask="url(#br)"/><mask id="bs" fill="#fff"><path d="M64.652 59.57a.289.289 0 0 0 0-.41.293.293 0 0 0-.412 0 .287.287 0 0 0 0 .41.292.292 0 0 0 .412 0Z"/></mask><path fill="#fff" stroke="#2868F3" stroke-width="4" d="M64.652 59.57a.289.289 0 0 0 0-.41.293.293 0 0 0-.412 0 .287.287 0 0 0 0 .41.292.292 0 0 0 .412 0Z" mask="url(#bs)"/><mask id="bt" fill="#fff"><path d="M64.457 60.948a.29.29 0 0 0 .292-.29.29.29 0 0 0-.292-.29.29.29 0 0 0-.291.29c0 .16.13.29.291.29Z"/></mask><path fill="#fff" stroke="#2868F3" stroke-width="4" d="M64.457 60.948a.29.29 0 0 0 .292-.29.29.29 0 0 0-.292-.29.29.29 0 0 0-.291.29c0 .16.13.29.291.29Z" mask="url(#bt)"/><mask id="bu" fill="#fff"><path d="M65.965 58.98a.289.289 0 0 0 0-.41.292.292 0 0 0-.412 0 .287.287 0 0 0 0 .41.292.292 0 0 0 .412 0Z"/></mask><path fill="#fff" stroke="#2868F3" stroke-width="4" d="M65.965 58.98a.289.289 0 0 0 0-.41.292.292 0 0 0-.412 0 .287.287 0 0 0 0 .41.292.292 0 0 0 .412 0Z" mask="url(#bu)"/><mask id="bv" fill="#fff"><path d="M65.973 60.279a.288.288 0 0 0 0-.41.293.293 0 0 0-.412 0 .289.289 0 0 0 0 .41.292.292 0 0 0 .412 0Z"/></mask><path fill="#fff" stroke="#2868F3" stroke-width="4" d="M65.973 60.279a.288.288 0 0 0 0-.41.293.293 0 0 0-.412 0 .289.289 0 0 0 0 .41.292.292 0 0 0 .412 0Z" mask="url(#bv)"/><mask id="bw" fill="#fff"><path d="M67.259 58.254a.289.289 0 0 0 0-.41.292.292 0 0 0-.412 0 .288.288 0 0 0 0 .41.292.292 0 0 0 .412 0Z"/></mask><path fill="#fff" stroke="#2868F3" stroke-width="4" d="M67.259 58.254a.289.289 0 0 0 0-.41.292.292 0 0 0-.412 0 .288.288 0 0 0 0 .41.292.292 0 0 0 .412 0Z" mask="url(#bw)"/><mask id="bx" fill="#fff"><path d="M67.267 59.553a.289.289 0 0 0 0-.409.292.292 0 0 0-.412 0 .287.287 0 0 0 0 .41.293.293 0 0 0 .412 0Z"/></mask><path fill="#fff" stroke="#2868F3" stroke-width="4" d="M67.267 59.553a.289.289 0 0 0 0-.409.292.292 0 0 0-.412 0 .287.287 0 0 0 0 .41.293.293 0 0 0 .412 0Z" mask="url(#bx)"/><mask id="by" fill="#fff"><path d="M67.276 60.852a.288.288 0 0 0 0-.41.292.292 0 0 0-.413 0 .287.287 0 0 0 0 .41.293.293 0 0 0 .413 0Z"/></mask><path fill="#fff" stroke="#2868F3" stroke-width="4" d="M67.276 60.852a.288.288 0 0 0 0-.41.292.292 0 0 0-.413 0 .287.287 0 0 0 0 .41.293.293 0 0 0 .413 0Z" mask="url(#by)"/><g opacity=".05"><mask id="bz" fill="#fff"><path d="M66.35 38.442h-9.832V65h9.833V38.442Z"/></mask><path fill="#1C3754" stroke="#2868F3" stroke-width="4" d="M66.35 38.442h-9.832V65h9.833V38.442Z" mask="url(#bz)"/></g><path fill="#fff" stroke="#2868F3" stroke-miterlimit="10" stroke-width="2" d="M80.334 34.607H59.067v2.823h21.267v-2.823Z"/><mask id="bA" fill="#fff"><path d="M55.862 35.548v-.94h21.195v2.822H55.862v-.941"/></mask><path fill="#fff" d="M55.862 35.548v-.94h21.195v2.822H55.862v-.941"/><path fill="#2868F3" d="M55.862 34.607v-2h-2v2h2Zm21.195 0h2v-2h-2v2Zm0 2.823v2h2v-2h-2Zm-21.195 0h-2v2h2v-2Zm2-1.882v-.94h-4v.94h4Zm-2 1.06h21.195v-4H55.862v4Zm19.195-2v2.822h4v-2.823h-4Zm2 .822H55.862v4h21.195v-4Zm-19.195 2v-.941h-4v.94h4Z" mask="url(#bA)"/><path stroke="#2868F3" stroke-miterlimit="10" stroke-width="2" d="M55.862 35.548v-.94h21.195v2.822H55.862v-1.623"/><path fill="#fff" stroke="#2868F3" stroke-miterlimit="10" stroke-width="2" d="M79.97 35.33H55.935c-.583 0-1.093-.506-1.093-1.085v-4.993c0-.579.51-1.085 1.093-1.085H79.97c.582 0 1.092.506 1.092 1.085v4.993a1.07 1.07 0 0 1-1.092 1.086Z"/><mask id="bB" fill="#fff"><path d="M69.516 33.174c-.219 0-.365-.145-.365-.362v-.724c0-.217.146-.361.365-.361.218 0 .364.144.364.361v.724c0 .217-.219.362-.364.362Z"/></mask><path fill="#2868F3" stroke="#2868F3" stroke-width="4" d="M69.516 33.174c-.219 0-.365-.145-.365-.362v-.724c0-.217.146-.361.365-.361.218 0 .364.144.364.361v.724c0 .217-.219.362-.364.362Z" mask="url(#bB)"/><path stroke="#2868F3" stroke-linecap="round" stroke-linejoin="round" stroke-miterlimit="10" d="M69.516 34.983c.563 0 1.02-.453 1.02-1.013 0-.56-.457-1.013-1.02-1.013s-1.02.454-1.02 1.013c0 .56.457 1.013 1.02 1.013Z"/><mask id="bC" fill="#fff"><path d="M63.963 30.829a.289.289 0 0 0 0-.41.293.293 0 0 0-.413 0 .289.289 0 0 0 0 .41.293.293 0 0 0 .413 0Z"/></mask><path fill="#fff" stroke="#2868F3" stroke-width="4" d="M63.963 30.829a.289.289 0 0 0 0-.41.293.293 0 0 0-.413 0 .289.289 0 0 0 0 .41.293.293 0 0 0 .413 0Z" mask="url(#bC)"/><mask id="bD" fill="#fff"><path d="M63.93 32.146a.288.288 0 0 0 0-.41.292.292 0 0 0-.413 0 .288.288 0 0 0 0 .41.292.292 0 0 0 .412 0Z"/></mask><path fill="#fff" stroke="#2868F3" stroke-width="4" d="M63.93 32.146a.288.288 0 0 0 0-.41.292.292 0 0 0-.413 0 .288.288 0 0 0 0 .41.292.292 0 0 0 .412 0Z" mask="url(#bD)"/><mask id="bE" fill="#fff"><path d="M63.948 33.512a.288.288 0 0 0 0-.41.293.293 0 0 0-.412 0 .289.289 0 0 0 0 .41.293.293 0 0 0 .412 0Z"/></mask><path fill="#fff" stroke="#2868F3" stroke-width="4" d="M63.948 33.512a.288.288 0 0 0 0-.41.293.293 0 0 0-.412 0 .289.289 0 0 0 0 .41.293.293 0 0 0 .412 0Z" mask="url(#bE)"/><mask id="bF" fill="#fff"><path d="M65.33 31.538a.288.288 0 0 0 0-.41.293.293 0 0 0-.412 0 .289.289 0 0 0 0 .41.293.293 0 0 0 .412 0Z"/></mask><path fill="#fff" stroke="#2868F3" stroke-width="4" d="M65.33 31.538a.288.288 0 0 0 0-.41.293.293 0 0 0-.412 0 .289.289 0 0 0 0 .41.293.293 0 0 0 .412 0Z" mask="url(#bF)"/><mask id="bG" fill="#fff"><path d="M65.297 32.854a.289.289 0 0 0 0-.41.293.293 0 0 0-.412 0 .288.288 0 0 0 0 .41.293.293 0 0 0 .412 0Z"/></mask><path fill="#fff" stroke="#2868F3" stroke-width="4" d="M65.297 32.854a.289.289 0 0 0 0-.41.293.293 0 0 0-.412 0 .288.288 0 0 0 0 .41.293.293 0 0 0 .412 0Z" mask="url(#bG)"/><mask id="bH" fill="#fff"><path d="M66.663 30.844a.289.289 0 0 0 0-.41.293.293 0 0 0-.412 0 .289.289 0 0 0 0 .41.293.293 0 0 0 .412 0Z"/></mask><path fill="#fff" stroke="#2868F3" stroke-width="4" d="M66.663 30.844a.289.289 0 0 0 0-.41.293.293 0 0 0-.412 0 .289.289 0 0 0 0 .41.293.293 0 0 0 .412 0Z" mask="url(#bH)"/><mask id="bI" fill="#fff"><path d="M66.63 32.16a.289.289 0 0 0 0-.41.293.293 0 0 0-.411 0 .288.288 0 0 0 0 .41.293.293 0 0 0 .412 0Z"/></mask><path fill="#fff" stroke="#2868F3" stroke-width="4" d="M66.63 32.16a.289.289 0 0 0 0-.41.293.293 0 0 0-.411 0 .288.288 0 0 0 0 .41.293.293 0 0 0 .412 0Z" mask="url(#bI)"/><mask id="bJ" fill="#fff"><path d="M66.649 33.527a.288.288 0 0 0 0-.41.292.292 0 0 0-.412 0 .288.288 0 0 0 0 .41.292.292 0 0 0 .412 0Z"/></mask><path fill="#fff" stroke="#2868F3" stroke-width="4" d="M66.649 33.527a.288.288 0 0 0 0-.41.292.292 0 0 0-.412 0 .288.288 0 0 0 0 .41.292.292 0 0 0 .412 0Z" mask="url(#bJ)"/><mask id="bK" fill="#fff"><path d="M68.031 31.553a.288.288 0 0 0 0-.41.293.293 0 0 0-.412 0 .289.289 0 0 0 0 .41.293.293 0 0 0 .412 0Z"/></mask><path fill="#fff" stroke="#2868F3" stroke-width="4" d="M68.031 31.553a.288.288 0 0 0 0-.41.293.293 0 0 0-.412 0 .289.289 0 0 0 0 .41.293.293 0 0 0 .412 0Z" mask="url(#bK)"/><mask id="bL" fill="#fff"><path d="M67.998 32.87a.288.288 0 0 0 0-.41.292.292 0 0 0-.412 0 .288.288 0 0 0 0 .41.292.292 0 0 0 .412 0Z"/></mask><path fill="#fff" stroke="#2868F3" stroke-width="4" d="M67.998 32.87a.288.288 0 0 0 0-.41.292.292 0 0 0-.412 0 .288.288 0 0 0 0 .41.292.292 0 0 0 .412 0Z" mask="url(#bL)"/><mask id="bM" fill="#fff"><path d="M69.415 30.808a.288.288 0 0 0 0-.41.292.292 0 0 0-.411 0 .288.288 0 0 0 0 .41.292.292 0 0 0 .411 0Z"/></mask><path fill="#fff" stroke="#2868F3" stroke-width="4" d="M69.415 30.808a.288.288 0 0 0 0-.41.292.292 0 0 0-.411 0 .288.288 0 0 0 0 .41.292.292 0 0 0 .411 0Z" mask="url(#bM)"/><mask id="bN" fill="#fff"><path d="M70.732 31.568a.288.288 0 0 0 0-.41.293.293 0 0 0-.412 0 .289.289 0 0 0 0 .41.293.293 0 0 0 .412 0Z"/></mask><path fill="#fff" stroke="#2868F3" stroke-width="4" d="M70.732 31.568a.288.288 0 0 0 0-.41.293.293 0 0 0-.412 0 .289.289 0 0 0 0 .41.293.293 0 0 0 .412 0Z" mask="url(#bN)"/><mask id="bO" fill="#fff"><path d="M72.117 30.822a.288.288 0 0 0 0-.41.293.293 0 0 0-.413 0 .289.289 0 0 0 0 .41.293.293 0 0 0 .413 0Z"/></mask><path fill="#fff" stroke="#2868F3" stroke-width="4" d="M72.117 30.822a.288.288 0 0 0 0-.41.293.293 0 0 0-.413 0 .289.289 0 0 0 0 .41.293.293 0 0 0 .413 0Z" mask="url(#bO)"/><mask id="bP" fill="#fff"><path d="M72.084 32.14a.288.288 0 0 0 0-.41.293.293 0 0 0-.413 0 .289.289 0 0 0 0 .41.293.293 0 0 0 .413 0Z"/></mask><path fill="#fff" stroke="#2868F3" stroke-width="4" d="M72.084 32.14a.288.288 0 0 0 0-.41.293.293 0 0 0-.413 0 .289.289 0 0 0 0 .41.293.293 0 0 0 .413 0Z" mask="url(#bP)"/><mask id="bQ" fill="#fff"><path d="M72.103 33.505a.288.288 0 0 0 0-.41.293.293 0 0 0-.413 0 .289.289 0 0 0 0 .41.293.293 0 0 0 .413 0Z"/></mask><path fill="#fff" stroke="#2868F3" stroke-width="4" d="M72.103 33.505a.288.288 0 0 0 0-.41.293.293 0 0 0-.413 0 .289.289 0 0 0 0 .41.293.293 0 0 0 .413 0Z" mask="url(#bQ)"/><mask id="bR" fill="#fff"><path d="M73.485 31.532a.289.289 0 0 0 0-.41.293.293 0 0 0-.413 0 .288.288 0 0 0 0 .41.293.293 0 0 0 .413 0Z"/></mask><path fill="#fff" stroke="#2868F3" stroke-width="4" d="M73.485 31.532a.289.289 0 0 0 0-.41.293.293 0 0 0-.413 0 .288.288 0 0 0 0 .41.293.293 0 0 0 .413 0Z" mask="url(#bR)"/><mask id="bS" fill="#fff"><path d="M73.451 32.847a.288.288 0 0 0 0-.41.293.293 0 0 0-.412 0 .289.289 0 0 0 0 .41.293.293 0 0 0 .412 0Z"/></mask><path fill="#fff" stroke="#2868F3" stroke-width="4" d="M73.451 32.847a.288.288 0 0 0 0-.41.293.293 0 0 0-.412 0 .289.289 0 0 0 0 .41.293.293 0 0 0 .412 0Z" mask="url(#bS)"/><mask id="bT" fill="#fff"><path d="M74.818 30.838a.288.288 0 0 0 0-.41.292.292 0 0 0-.412 0 .288.288 0 0 0 0 .41.292.292 0 0 0 .412 0Z"/></mask><path fill="#fff" stroke="#2868F3" stroke-width="4" d="M74.818 30.838a.288.288 0 0 0 0-.41.292.292 0 0 0-.412 0 .288.288 0 0 0 0 .41.292.292 0 0 0 .412 0Z" mask="url(#bT)"/><mask id="bU" fill="#fff"><path d="M74.785 32.153a.289.289 0 0 0 0-.41.293.293 0 0 0-.412 0 .288.288 0 0 0 0 .41.293.293 0 0 0 .412 0Z"/></mask><path fill="#fff" stroke="#2868F3" stroke-width="4" d="M74.785 32.153a.289.289 0 0 0 0-.41.293.293 0 0 0-.412 0 .288.288 0 0 0 0 .41.293.293 0 0 0 .412 0Z" mask="url(#bU)"/><mask id="bV" fill="#fff"><path d="M74.803 33.52a.288.288 0 0 0 0-.409.293.293 0 0 0-.412 0 .289.289 0 0 0 0 .41.293.293 0 0 0 .412 0Z"/></mask><path fill="#fff" stroke="#2868F3" stroke-width="4" d="M74.803 33.52a.288.288 0 0 0 0-.409.293.293 0 0 0-.412 0 .289.289 0 0 0 0 .41.293.293 0 0 0 .412 0Z" mask="url(#bV)"/><path fill="#fff" stroke="#2868F3" stroke-miterlimit="10" stroke-width="2" d="M80.334 43.652H59.067v2.823h21.267v-2.823Z"/><path fill="#fff" stroke="#2868F3" stroke-miterlimit="10" stroke-width="2" d="M55.862 44.593v-.94h21.195v2.822H55.862v-1.882Z"/><path fill="#fff" stroke="#2868F3" stroke-miterlimit="10" stroke-width="2" d="M79.97 44.303H55.935c-.583 0-1.093-.506-1.093-1.085v-4.92c0-.58.51-1.086 1.093-1.086H79.97c.582 0 1.092.506 1.092 1.085v4.993c0 .507-.437 1.013-1.092 1.013Z"/><mask id="bW" fill="#fff"><path d="M63.949 39.808a.289.289 0 0 0 0-.41.293.293 0 0 0-.413 0 .289.289 0 0 0 0 .41.293.293 0 0 0 .413 0Z"/></mask><path fill="#fff" stroke="#2868F3" stroke-width="4" d="M63.949 39.808a.289.289 0 0 0 0-.41.293.293 0 0 0-.413 0 .289.289 0 0 0 0 .41.293.293 0 0 0 .413 0Z" mask="url(#bW)"/><mask id="bX" fill="#fff"><path d="M63.915 41.124a.288.288 0 0 0 0-.41.292.292 0 0 0-.411 0 .288.288 0 0 0 0 .41.292.292 0 0 0 .411 0Z"/></mask><path fill="#fff" stroke="#2868F3" stroke-width="4" d="M63.915 41.124a.288.288 0 0 0 0-.41.292.292 0 0 0-.411 0 .288.288 0 0 0 0 .41.292.292 0 0 0 .411 0Z" mask="url(#bX)"/><mask id="bY" fill="#fff"><path d="M63.934 42.492a.289.289 0 0 0 0-.41.293.293 0 0 0-.412 0 .288.288 0 0 0 0 .41.293.293 0 0 0 .412 0Z"/></mask><path fill="#fff" stroke="#2868F3" stroke-width="4" d="M63.934 42.492a.289.289 0 0 0 0-.41.293.293 0 0 0-.412 0 .288.288 0 0 0 0 .41.293.293 0 0 0 .412 0Z" mask="url(#bY)"/><mask id="bZ" fill="#fff"><path d="M65.316 40.517a.288.288 0 0 0 0-.41.292.292 0 0 0-.411 0 .288.288 0 0 0 0 .41.292.292 0 0 0 .411 0Z"/></mask><path fill="#fff" stroke="#2868F3" stroke-width="4" d="M65.316 40.517a.288.288 0 0 0 0-.41.292.292 0 0 0-.411 0 .288.288 0 0 0 0 .41.292.292 0 0 0 .411 0Z" mask="url(#bZ)"/><mask id="ca" fill="#fff"><path d="M65.335 41.885a.288.288 0 0 0 0-.41.293.293 0 0 0-.413 0 .289.289 0 0 0 0 .41.293.293 0 0 0 .413 0Z"/></mask><path fill="#fff" stroke="#2868F3" stroke-width="4" d="M65.335 41.885a.288.288 0 0 0 0-.41.293.293 0 0 0-.413 0 .289.289 0 0 0 0 .41.293.293 0 0 0 .413 0Z" mask="url(#ca)"/><mask id="cb" fill="#fff"><path d="M66.65 39.823a.289.289 0 0 0 0-.41.293.293 0 0 0-.413 0 .289.289 0 0 0 0 .41.293.293 0 0 0 .412 0Z"/></mask><path fill="#fff" stroke="#2868F3" stroke-width="4" d="M66.65 39.823a.289.289 0 0 0 0-.41.293.293 0 0 0-.413 0 .289.289 0 0 0 0 .41.293.293 0 0 0 .412 0Z" mask="url(#cb)"/><mask id="cc" fill="#fff"><path d="M66.617 41.14a.289.289 0 0 0 0-.41.293.293 0 0 0-.413 0 .288.288 0 0 0 0 .41.293.293 0 0 0 .413 0Z"/></mask><path fill="#fff" stroke="#2868F3" stroke-width="4" d="M66.617 41.14a.289.289 0 0 0 0-.41.293.293 0 0 0-.413 0 .288.288 0 0 0 0 .41.293.293 0 0 0 .413 0Z" mask="url(#cc)"/><mask id="cd" fill="#fff"><path d="M66.635 42.506a.289.289 0 0 0 0-.41.293.293 0 0 0-.413 0 .288.288 0 0 0 0 .41.293.293 0 0 0 .413 0Z"/></mask><path fill="#fff" stroke="#2868F3" stroke-width="4" d="M66.635 42.506a.289.289 0 0 0 0-.41.293.293 0 0 0-.413 0 .288.288 0 0 0 0 .41.293.293 0 0 0 .413 0Z" mask="url(#cd)"/><mask id="ce" fill="#fff"><path d="M68.017 40.532a.288.288 0 0 0 0-.41.293.293 0 0 0-.412 0 .289.289 0 0 0 0 .41.293.293 0 0 0 .412 0Z"/></mask><path fill="#fff" stroke="#2868F3" stroke-width="4" d="M68.017 40.532a.288.288 0 0 0 0-.41.293.293 0 0 0-.412 0 .289.289 0 0 0 0 .41.293.293 0 0 0 .412 0Z" mask="url(#ce)"/><mask id="cf" fill="#fff"><path d="M68.036 41.899a.289.289 0 0 0 0-.41.293.293 0 0 0-.413 0 .288.288 0 0 0 0 .41.293.293 0 0 0 .413 0Z"/></mask><path fill="#fff" stroke="#2868F3" stroke-width="4" d="M68.036 41.899a.289.289 0 0 0 0-.41.293.293 0 0 0-.413 0 .288.288 0 0 0 0 .41.293.293 0 0 0 .413 0Z" mask="url(#cf)"/><mask id="cg" fill="#fff"><path d="M69.402 39.787a.289.289 0 0 0 0-.41.293.293 0 0 0-.412 0 .289.289 0 0 0 0 .41.293.293 0 0 0 .412 0Z"/></mask><path fill="#fff" stroke="#2868F3" stroke-width="4" d="M69.402 39.787a.289.289 0 0 0 0-.41.293.293 0 0 0-.412 0 .289.289 0 0 0 0 .41.293.293 0 0 0 .412 0Z" mask="url(#cg)"/><mask id="ch" fill="#fff"><path d="M69.37 41.103a.289.289 0 0 0 0-.41.293.293 0 0 0-.413 0 .288.288 0 0 0 0 .41.293.293 0 0 0 .412 0Z"/></mask><path fill="#fff" stroke="#2868F3" stroke-width="4" d="M69.37 41.103a.289.289 0 0 0 0-.41.293.293 0 0 0-.413 0 .288.288 0 0 0 0 .41.293.293 0 0 0 .412 0Z" mask="url(#ch)"/><mask id="ci" fill="#fff"><path d="M69.387 42.47a.288.288 0 0 0 0-.41.292.292 0 0 0-.412 0 .288.288 0 0 0 0 .41.292.292 0 0 0 .412 0Z"/></mask><path fill="#fff" stroke="#2868F3" stroke-width="4" d="M69.387 42.47a.288.288 0 0 0 0-.41.292.292 0 0 0-.412 0 .288.288 0 0 0 0 .41.292.292 0 0 0 .412 0Z" mask="url(#ci)"/><mask id="cj" fill="#fff"><path d="M70.718 40.547a.288.288 0 0 0 0-.41.293.293 0 0 0-.413 0 .289.289 0 0 0 0 .41.293.293 0 0 0 .412 0Z"/></mask><path fill="#fff" stroke="#2868F3" stroke-width="4" d="M70.718 40.547a.288.288 0 0 0 0-.41.293.293 0 0 0-.413 0 .289.289 0 0 0 0 .41.293.293 0 0 0 .412 0Z" mask="url(#cj)"/><mask id="ck" fill="#fff"><path d="M70.736 41.914a.288.288 0 0 0 0-.41.293.293 0 0 0-.412 0 .289.289 0 0 0 0 .41.293.293 0 0 0 .412 0Z"/></mask><path fill="#fff" stroke="#2868F3" stroke-width="4" d="M70.736 41.914a.288.288 0 0 0 0-.41.293.293 0 0 0-.412 0 .289.289 0 0 0 0 .41.293.293 0 0 0 .412 0Z" mask="url(#ck)"/><mask id="cl" fill="#fff"><path d="M72.103 39.801a.288.288 0 0 0 0-.41.293.293 0 0 0-.412 0 .289.289 0 0 0 0 .41.293.293 0 0 0 .412 0Z"/></mask><path fill="#fff" stroke="#2868F3" stroke-width="4" d="M72.103 39.801a.288.288 0 0 0 0-.41.293.293 0 0 0-.412 0 .289.289 0 0 0 0 .41.293.293 0 0 0 .412 0Z" mask="url(#cl)"/><mask id="cm" fill="#fff"><path d="M72.07 41.117a.288.288 0 0 0 0-.41.292.292 0 0 0-.412 0 .288.288 0 0 0 0 .41.292.292 0 0 0 .412 0Z"/></mask><path fill="#fff" stroke="#2868F3" stroke-width="4" d="M72.07 41.117a.288.288 0 0 0 0-.41.292.292 0 0 0-.412 0 .288.288 0 0 0 0 .41.292.292 0 0 0 .412 0Z" mask="url(#cm)"/><mask id="cn" fill="#fff"><path d="M72.088 42.484a.288.288 0 0 0 0-.41.293.293 0 0 0-.412 0 .289.289 0 0 0 0 .41.293.293 0 0 0 .412 0Z"/></mask><path fill="#fff" stroke="#2868F3" stroke-width="4" d="M72.088 42.484a.288.288 0 0 0 0-.41.293.293 0 0 0-.412 0 .289.289 0 0 0 0 .41.293.293 0 0 0 .412 0Z" mask="url(#cn)"/><mask id="co" fill="#fff"><path d="M73.47 40.51a.289.289 0 0 0 0-.41.293.293 0 0 0-.412 0 .288.288 0 0 0 0 .41.293.293 0 0 0 .412 0Z"/></mask><path fill="#fff" stroke="#2868F3" stroke-width="4" d="M73.47 40.51a.289.289 0 0 0 0-.41.293.293 0 0 0-.412 0 .288.288 0 0 0 0 .41.293.293 0 0 0 .412 0Z" mask="url(#co)"/><mask id="cp" fill="#fff"><path d="M73.489 41.878a.288.288 0 0 0 0-.41.293.293 0 0 0-.413 0 .289.289 0 0 0 0 .41.293.293 0 0 0 .413 0Z"/></mask><path fill="#fff" stroke="#2868F3" stroke-width="4" d="M73.489 41.878a.288.288 0 0 0 0-.41.293.293 0 0 0-.413 0 .289.289 0 0 0 0 .41.293.293 0 0 0 .413 0Z" mask="url(#cp)"/><mask id="cq" fill="#fff"><path d="M74.804 39.817a.288.288 0 0 0 0-.41.292.292 0 0 0-.412 0 .288.288 0 0 0 0 .41.292.292 0 0 0 .412 0Z"/></mask><path fill="#fff" stroke="#2868F3" stroke-width="4" d="M74.804 39.817a.288.288 0 0 0 0-.41.292.292 0 0 0-.412 0 .288.288 0 0 0 0 .41.292.292 0 0 0 .412 0Z" mask="url(#cq)"/><mask id="cr" fill="#fff"><path d="M74.77 41.133a.289.289 0 0 0 0-.41.293.293 0 0 0-.411 0 .288.288 0 0 0 0 .41.293.293 0 0 0 .412 0Z"/></mask><path fill="#fff" stroke="#2868F3" stroke-width="4" d="M74.77 41.133a.289.289 0 0 0 0-.41.293.293 0 0 0-.411 0 .288.288 0 0 0 0 .41.293.293 0 0 0 .412 0Z" mask="url(#cr)"/><mask id="cs" fill="#fff"><path d="M74.789 42.5a.288.288 0 0 0 0-.41.293.293 0 0 0-.412 0 .289.289 0 0 0 0 .41.293.293 0 0 0 .412 0Z"/></mask><path fill="#fff" stroke="#2868F3" stroke-width="4" d="M74.789 42.5a.288.288 0 0 0 0-.41.293.293 0 0 0-.412 0 .289.289 0 0 0 0 .41.293.293 0 0 0 .412 0Z" mask="url(#cs)"/><path fill="#fff" stroke="#2868F3" stroke-miterlimit="10" stroke-width="2" d="M80.334 52.697H59.067v2.822h21.267v-2.822Z"/><mask id="ct" fill="#fff"><path d="M55.862 53.638v-.94h21.195v2.822H55.862v-.145"/></mask><path fill="#fff" d="M55.862 53.638v-.94h21.195v2.822H55.862v-.145"/><path fill="#2868F3" d="M55.862 52.697v-2h-2v2h2Zm21.195 0h2v-2h-2v2Zm0 2.822v2h2v-2h-2Zm-21.195 0h-2v2h2v-2Zm2-1.881v-.94h-4v.94h4Zm-2 1.06h21.195v-4H55.862v4Zm19.195-2v2.822h4v-2.823h-4Zm2 .822H55.862v4h21.195v-4Zm-19.195 2v-.145h-4v.145h4Z" mask="url(#ct)"/><path stroke="#2868F3" stroke-miterlimit="10" stroke-width="2" d="M55.862 53.638v-.94h21.195v2.822H55.862v-.145"/><path fill="#fff" stroke="#2868F3" stroke-miterlimit="10" stroke-width="2" d="M79.97 53.35H55.935c-.583 0-1.093-.507-1.093-1.086V47.27c0-.58.51-1.086 1.093-1.086H79.97c.582 0 1.092.507 1.092 1.086v4.993c0 .651-.437 1.085-1.092 1.085Z"/><mask id="cu" fill="#fff"><path d="M63.926 48.863a.288.288 0 0 0 0-.41.292.292 0 0 0-.412 0 .288.288 0 0 0 0 .41.292.292 0 0 0 .412 0Z"/></mask><path fill="#fff" stroke="#2868F3" stroke-width="4" d="M63.926 48.863a.288.288 0 0 0 0-.41.292.292 0 0 0-.412 0 .288.288 0 0 0 0 .41.292.292 0 0 0 .412 0Z" mask="url(#cu)"/><mask id="cv" fill="#fff"><path d="M63.944 50.23a.289.289 0 0 0 0-.41.293.293 0 0 0-.412 0 .288.288 0 0 0 0 .41.293.293 0 0 0 .413 0Z"/></mask><path fill="#fff" stroke="#2868F3" stroke-width="4" d="M63.944 50.23a.289.289 0 0 0 0-.41.293.293 0 0 0-.412 0 .288.288 0 0 0 0 .41.293.293 0 0 0 .413 0Z" mask="url(#cv)"/><mask id="cw" fill="#fff"><path d="M63.911 51.546a.288.288 0 0 0 0-.41.293.293 0 0 0-.412 0 .289.289 0 0 0 0 .41.293.293 0 0 0 .412 0Z"/></mask><path fill="#fff" stroke="#2868F3" stroke-width="4" d="M63.911 51.546a.288.288 0 0 0 0-.41.293.293 0 0 0-.412 0 .289.289 0 0 0 0 .41.293.293 0 0 0 .412 0Z" mask="url(#cw)"/><mask id="cx" fill="#fff"><path d="M65.294 49.571a.288.288 0 0 0 0-.41.292.292 0 0 0-.412 0 .288.288 0 0 0 0 .41.292.292 0 0 0 .412 0Z"/></mask><path fill="#fff" stroke="#2868F3" stroke-width="4" d="M65.294 49.571a.288.288 0 0 0 0-.41.292.292 0 0 0-.412 0 .288.288 0 0 0 0 .41.292.292 0 0 0 .412 0Z" mask="url(#cx)"/><mask id="cy" fill="#fff"><path d="M65.312 50.94a.288.288 0 0 0 0-.41.293.293 0 0 0-.412 0 .289.289 0 0 0 0 .41.293.293 0 0 0 .412 0Z"/></mask><path fill="#fff" stroke="#2868F3" stroke-width="4" d="M65.312 50.94a.288.288 0 0 0 0-.41.293.293 0 0 0-.412 0 .289.289 0 0 0 0 .41.293.293 0 0 0 .412 0Z" mask="url(#cy)"/><mask id="cz" fill="#fff"><path d="M66.627 48.878a.289.289 0 0 0 0-.41.293.293 0 0 0-.412 0 .289.289 0 0 0 0 .41.293.293 0 0 0 .412 0Z"/></mask><path fill="#fff" stroke="#2868F3" stroke-width="4" d="M66.627 48.878a.289.289 0 0 0 0-.41.293.293 0 0 0-.412 0 .289.289 0 0 0 0 .41.293.293 0 0 0 .412 0Z" mask="url(#cz)"/><mask id="cA" fill="#fff"><path d="M66.645 50.244a.289.289 0 0 0 0-.41.293.293 0 0 0-.412 0 .289.289 0 0 0 0 .41.293.293 0 0 0 .412 0Z"/></mask><path fill="#fff" stroke="#2868F3" stroke-width="4" d="M66.645 50.244a.289.289 0 0 0 0-.41.293.293 0 0 0-.412 0 .289.289 0 0 0 0 .41.293.293 0 0 0 .412 0Z" mask="url(#cA)"/><mask id="cB" fill="#fff"><path d="M66.612 51.561a.288.288 0 0 0 0-.41.293.293 0 0 0-.412 0 .289.289 0 0 0 0 .41.293.293 0 0 0 .412 0Z"/></mask><path fill="#fff" stroke="#2868F3" stroke-width="4" d="M66.612 51.561a.288.288 0 0 0 0-.41.293.293 0 0 0-.412 0 .289.289 0 0 0 0 .41.293.293 0 0 0 .412 0Z" mask="url(#cB)"/><mask id="cC" fill="#fff"><path d="M67.995 49.586a.289.289 0 0 0 0-.41.293.293 0 0 0-.412 0 .288.288 0 0 0 0 .41.293.293 0 0 0 .412 0Z"/></mask><path fill="#fff" stroke="#2868F3" stroke-width="4" d="M67.995 49.586a.289.289 0 0 0 0-.41.293.293 0 0 0-.412 0 .288.288 0 0 0 0 .41.293.293 0 0 0 .412 0Z" mask="url(#cC)"/><mask id="cD" fill="#fff"><path d="M68.013 50.954a.289.289 0 0 0 0-.41.293.293 0 0 0-.412 0 .288.288 0 0 0 0 .41.293.293 0 0 0 .412 0Z"/></mask><path fill="#fff" stroke="#2868F3" stroke-width="4" d="M68.013 50.954a.289.289 0 0 0 0-.41.293.293 0 0 0-.412 0 .288.288 0 0 0 0 .41.293.293 0 0 0 .412 0Z" mask="url(#cD)"/><mask id="cE" fill="#fff"><path d="M69.38 48.84a.289.289 0 0 0 0-.409.293.293 0 0 0-.413 0 .289.289 0 0 0 0 .41.293.293 0 0 0 .412 0Z"/></mask><path fill="#fff" stroke="#2868F3" stroke-width="4" d="M69.38 48.84a.289.289 0 0 0 0-.409.293.293 0 0 0-.413 0 .289.289 0 0 0 0 .41.293.293 0 0 0 .412 0Z" mask="url(#cE)"/><mask id="cF" fill="#fff"><path d="M69.398 50.208a.288.288 0 0 0 0-.41.293.293 0 0 0-.412 0 .289.289 0 0 0 0 .41.293.293 0 0 0 .412 0Z"/></mask><path fill="#fff" stroke="#2868F3" stroke-width="4" d="M69.398 50.208a.288.288 0 0 0 0-.41.293.293 0 0 0-.412 0 .289.289 0 0 0 0 .41.293.293 0 0 0 .412 0Z" mask="url(#cF)"/><mask id="cG" fill="#fff"><path d="M69.364 51.525a.288.288 0 0 0 0-.41.292.292 0 0 0-.411 0 .288.288 0 0 0 0 .41.292.292 0 0 0 .411 0Z"/></mask><path fill="#fff" stroke="#2868F3" stroke-width="4" d="M69.364 51.525a.288.288 0 0 0 0-.41.292.292 0 0 0-.411 0 .288.288 0 0 0 0 .41.292.292 0 0 0 .411 0Z" mask="url(#cG)"/><mask id="cH" fill="#fff"><path d="M70.695 49.602a.289.289 0 0 0 0-.41.293.293 0 0 0-.412 0 .288.288 0 0 0 0 .41.293.293 0 0 0 .412 0Z"/></mask><path fill="#fff" stroke="#2868F3" stroke-width="4" d="M70.695 49.602a.289.289 0 0 0 0-.41.293.293 0 0 0-.412 0 .288.288 0 0 0 0 .41.293.293 0 0 0 .412 0Z" mask="url(#cH)"/><mask id="cI" fill="#fff"><path d="M70.714 50.968a.288.288 0 0 0 0-.41.293.293 0 0 0-.412 0 .289.289 0 0 0 0 .41.293.293 0 0 0 .412 0Z"/></mask><path fill="#fff" stroke="#2868F3" stroke-width="4" d="M70.714 50.968a.288.288 0 0 0 0-.41.293.293 0 0 0-.412 0 .289.289 0 0 0 0 .41.293.293 0 0 0 .412 0Z" mask="url(#cI)"/><mask id="cJ" fill="#fff"><path d="M72.08 48.856a.288.288 0 0 0 0-.41.293.293 0 0 0-.412 0 .289.289 0 0 0 0 .41.293.293 0 0 0 .412 0Z"/></mask><path fill="#fff" stroke="#2868F3" stroke-width="4" d="M72.08 48.856a.288.288 0 0 0 0-.41.293.293 0 0 0-.412 0 .289.289 0 0 0 0 .41.293.293 0 0 0 .412 0Z" mask="url(#cJ)"/><mask id="cK" fill="#fff"><path d="M72.099 50.223a.288.288 0 0 0 0-.41.293.293 0 0 0-.413 0 .289.289 0 0 0 0 .41.293.293 0 0 0 .413 0Z"/></mask><path fill="#fff" stroke="#2868F3" stroke-width="4" d="M72.099 50.223a.288.288 0 0 0 0-.41.293.293 0 0 0-.413 0 .289.289 0 0 0 0 .41.293.293 0 0 0 .413 0Z" mask="url(#cK)"/><mask id="cL" fill="#fff"><path d="M72.066 51.54a.288.288 0 0 0 0-.41.293.293 0 0 0-.413 0 .289.289 0 0 0 0 .41.293.293 0 0 0 .413 0Z"/></mask><path fill="#fff" stroke="#2868F3" stroke-width="4" d="M72.066 51.54a.288.288 0 0 0 0-.41.293.293 0 0 0-.413 0 .289.289 0 0 0 0 .41.293.293 0 0 0 .413 0Z" mask="url(#cL)"/><mask id="cM" fill="#fff"><path d="M73.448 49.564a.289.289 0 0 0 0-.41.293.293 0 0 0-.412 0 .288.288 0 0 0 0 .41.293.293 0 0 0 .412 0Z"/></mask><path fill="#fff" stroke="#2868F3" stroke-width="4" d="M73.448 49.564a.289.289 0 0 0 0-.41.293.293 0 0 0-.412 0 .288.288 0 0 0 0 .41.293.293 0 0 0 .412 0Z" mask="url(#cM)"/><mask id="cN" fill="#fff"><path d="M73.466 50.933a.289.289 0 0 0 0-.41.293.293 0 0 0-.412 0 .288.288 0 0 0 0 .41.293.293 0 0 0 .412 0Z"/></mask><path fill="#fff" stroke="#2868F3" stroke-width="4" d="M73.466 50.933a.289.289 0 0 0 0-.41.293.293 0 0 0-.412 0 .288.288 0 0 0 0 .41.293.293 0 0 0 .412 0Z" mask="url(#cN)"/><mask id="cO" fill="#fff"><path d="M74.781 48.87a.288.288 0 0 0 0-.41.292.292 0 0 0-.412 0 .288.288 0 0 0 0 .41.292.292 0 0 0 .412 0Z"/></mask><path fill="#fff" stroke="#2868F3" stroke-width="4" d="M74.781 48.87a.288.288 0 0 0 0-.41.292.292 0 0 0-.412 0 .288.288 0 0 0 0 .41.292.292 0 0 0 .412 0Z" mask="url(#cO)"/><mask id="cP" fill="#fff"><path d="M74.766 51.553a.288.288 0 0 0 0-.41.293.293 0 0 0-.412 0 .289.289 0 0 0 0 .41.293.293 0 0 0 .412 0Z"/></mask><path fill="#fff" stroke="#2868F3" stroke-width="4" d="M74.766 51.553a.288.288 0 0 0 0-.41.293.293 0 0 0-.412 0 .289.289 0 0 0 0 .41.293.293 0 0 0 .412 0Z" mask="url(#cP)"/><path fill="#fff" stroke="#2868F3" stroke-miterlimit="10" stroke-width="2" d="M79.948 61H56.115c-.578 0-1.084-.424-1.084-.909V55.91c0-.485.506-.909 1.084-.909h23.833c.578 0 1.083.424 1.083.91v4.181c0 .485-.433.909-1.083.909Z"/><mask id="cQ" fill="#fff"><path d="M41.15 29.324V57.62c0 .651-.51 1.23-1.238 1.23H1.238A1.224 1.224 0 0 1 0 57.62V29.324c0-.65.51-1.23 1.238-1.23h38.747c.656 0 1.165.507 1.165 1.23Z"/></mask><path fill="#fff" stroke="#2868F3" stroke-width="4" d="M41.15 29.324V57.62c0 .651-.51 1.23-1.238 1.23H1.238A1.224 1.224 0 0 1 0 57.62V29.324c0-.65.51-1.23 1.238-1.23h38.747c.656 0 1.165.507 1.165 1.23Z" mask="url(#cQ)"/><mask id="cR" fill="#fff"><path d="M20.611 34.173c-.218 0-.364-.145-.364-.362v-.723c0-.217.146-.362.364-.362.219 0 .365.145.365.362v.723c0 .217-.219.362-.364.362Z"/></mask><path fill="#2868F3" stroke="#2868F3" stroke-width="4" d="M20.611 34.173c-.218 0-.364-.145-.364-.362v-.723c0-.217.146-.362.364-.362.219 0 .365.145.365.362v.723c0 .217-.219.362-.364.362Z" mask="url(#cR)"/><mask id="cS" fill="#fff"><path d="M20.611 31.278c-.218 0-.364-.145-.364-.362v-1.447c0-.217.146-.362.364-.362.219 0 .365.145.365.362v1.447c0 .217-.219.362-.364.362Zm48.653-.796c-.219 0-.364-.145-.364-.362v-1.447c0-.217.145-.362.364-.362.218 0 .364.145.364.362v1.447c0 .217-.146.362-.364.362Zm-48.652-2.75c-.219 0-.365-.145-.365-.362v-1.447c0-.217.146-.362.364-.362.219 0 .365.145.365.362v1.447c0 .217-.219.362-.364.362Zm48.652-.796c-.219 0-.364-.145-.364-.362v-1.447c0-.217.145-.362.364-.362.218 0 .364.145.364.362v1.447c0 .217-.146.362-.364.362Zm-48.652-2.75c-.219 0-.365-.145-.365-.362v-1.447c0-.217.146-.362.364-.362.219 0 .365.145.365.362v1.447c0 .217-.219.362-.364.362Zm48.652-.796c-.219 0-.364-.145-.364-.362v-1.447c0-.217.145-.362.364-.362.218 0 .364.145.364.362v1.447c0 .217-.146.362-.364.362Zm-48.652-2.75c-.219 0-.365-.145-.365-.362v-.072c0-.507.146-1.013.364-1.447.073-.145.292-.217.51-.145.146.072.219.29.146.506-.146.362-.291.724-.291 1.158 0 .145-.219.362-.364.362Zm48.579-.796c-.146 0-.291-.072-.364-.29a1.987 1.987 0 0 0-.583-1.085.348.348 0 0 1 0-.506.354.354 0 0 1 .51 0c.364.361.583.868.728 1.375.073.217-.073.361-.291.434.073.072 0 .072 0 .072ZM22.432 17.89a.401.401 0 0 1-.364-.217c-.073-.217 0-.362.219-.506.437-.145.874-.29 1.31-.29h.22c.218 0 .363.145.363.362s-.145.362-.364.362h-.218a2.34 2.34 0 0 0-1.02.217c-.073.072-.146.072-.146.072Zm44.21-.217h-1.457c-.218 0-.364-.144-.364-.362 0-.217.146-.361.364-.361H66.714c.219 0 .365.217.292.434 0 .145-.146.29-.365.29Zm-3.57 0h-1.456c-.218 0-.364-.144-.364-.362 0-.217.145-.361.364-.361h1.457c.218 0 .364.144.364.361 0 .218-.146.362-.364.362Zm-3.568 0h-1.457c-.218 0-.364-.144-.364-.362 0-.217.146-.361.364-.361h1.457c.219 0 .364.144.364.361 0 .218-.145.362-.364.362Zm-3.569 0H54.48c-.219 0-.364-.144-.364-.362 0-.217.145-.361.364-.361h1.456c.219 0 .365.144.365.361 0 .218-.146.362-.365.362Zm-3.569 0H50.91c-.219 0-.364-.144-.364-.362 0-.217.145-.361.364-.361h1.457c.218 0 .364.144.364.361 0 .218-.146.362-.364.362Zm-3.568 0H47.34c-.218 0-.364-.144-.364-.362 0-.217.146-.361.364-.361h1.457c.218 0 .364.144.364.361 0 .218-.146.362-.364.362Zm-3.57 0h-1.456c-.218 0-.364-.144-.364-.362 0-.217.146-.361.364-.361h1.457c.218 0 .364.144.364.361 0 .218-.146.362-.364.362Zm-3.568 0h-1.457c-.218 0-.364-.144-.364-.362 0-.217.146-.361.364-.361h1.457c.219 0 .364.144.364.361 0 .218-.145.362-.364.362Zm-3.569 0h-1.456c-.219 0-.364-.144-.364-.362 0-.217.145-.361.364-.361h1.456c.219 0 .364.144.364.361 0 .218-.145.362-.364.362Zm-3.569 0h-1.456c-.219 0-.364-.144-.364-.362 0-.217.145-.361.364-.361h1.456c.219 0 .365.144.365.361 0 .218-.146.362-.364.362Zm-3.568 0h-1.457c-.218 0-.364-.144-.364-.362 0-.217.146-.361.364-.361h1.457c.218 0 .364.144.364.361 0 .218-.146.362-.364.362Zm-3.57 0h-1.456c-.218 0-.364-.144-.364-.362 0-.217.146-.361.364-.361h1.457c.218 0 .364.144.364.361 0 .218-.146.362-.364.362Z"/></mask><path fill="#2868F3" stroke="#2868F3" stroke-width="4" d="M20.611 31.278c-.218 0-.364-.145-.364-.362v-1.447c0-.217.146-.362.364-.362.219 0 .365.145.365.362v1.447c0 .217-.219.362-.364.362Zm48.653-.796c-.219 0-.364-.145-.364-.362v-1.447c0-.217.145-.362.364-.362.218 0 .364.145.364.362v1.447c0 .217-.146.362-.364.362Zm-48.652-2.75c-.219 0-.365-.145-.365-.362v-1.447c0-.217.146-.362.364-.362.219 0 .365.145.365.362v1.447c0 .217-.219.362-.364.362Zm48.652-.796c-.219 0-.364-.145-.364-.362v-1.447c0-.217.145-.362.364-.362.218 0 .364.145.364.362v1.447c0 .217-.146.362-.364.362Zm-48.652-2.75c-.219 0-.365-.145-.365-.362v-1.447c0-.217.146-.362.364-.362.219 0 .365.145.365.362v1.447c0 .217-.219.362-.364.362Zm48.652-.796c-.219 0-.364-.145-.364-.362v-1.447c0-.217.145-.362.364-.362.218 0 .364.145.364.362v1.447c0 .217-.146.362-.364.362Zm-48.652-2.75c-.219 0-.365-.145-.365-.362v-.072c0-.507.146-1.013.364-1.447.073-.145.292-.217.51-.145.146.072.219.29.146.506-.146.362-.291.724-.291 1.158 0 .145-.219.362-.364.362Zm48.579-.796c-.146 0-.291-.072-.364-.29a1.987 1.987 0 0 0-.583-1.085.348.348 0 0 1 0-.506.354.354 0 0 1 .51 0c.364.361.583.868.728 1.375.073.217-.073.361-.291.434.073.072 0 .072 0 .072ZM22.432 17.89a.401.401 0 0 1-.364-.217c-.073-.217 0-.362.219-.506.437-.145.874-.29 1.31-.29h.22c.218 0 .363.145.363.362s-.145.362-.364.362h-.218a2.34 2.34 0 0 0-1.02.217c-.073.072-.146.072-.146.072Zm44.21-.217h-1.457c-.218 0-.364-.144-.364-.362 0-.217.146-.361.364-.361H66.714c.219 0 .365.217.292.434 0 .145-.146.29-.365.29Zm-3.57 0h-1.456c-.218 0-.364-.144-.364-.362 0-.217.145-.361.364-.361h1.457c.218 0 .364.144.364.361 0 .218-.146.362-.364.362Zm-3.568 0h-1.457c-.218 0-.364-.144-.364-.362 0-.217.146-.361.364-.361h1.457c.219 0 .364.144.364.361 0 .218-.145.362-.364.362Zm-3.569 0H54.48c-.219 0-.364-.144-.364-.362 0-.217.145-.361.364-.361h1.456c.219 0 .365.144.365.361 0 .218-.146.362-.365.362Zm-3.569 0H50.91c-.219 0-.364-.144-.364-.362 0-.217.145-.361.364-.361h1.457c.218 0 .364.144.364.361 0 .218-.146.362-.364.362Zm-3.568 0H47.34c-.218 0-.364-.144-.364-.362 0-.217.146-.361.364-.361h1.457c.218 0 .364.144.364.361 0 .218-.146.362-.364.362Zm-3.57 0h-1.456c-.218 0-.364-.144-.364-.362 0-.217.146-.361.364-.361h1.457c.218 0 .364.144.364.361 0 .218-.146.362-.364.362Zm-3.568 0h-1.457c-.218 0-.364-.144-.364-.362 0-.217.146-.361.364-.361h1.457c.219 0 .364.144.364.361 0 .218-.145.362-.364.362Zm-3.569 0h-1.456c-.219 0-.364-.144-.364-.362 0-.217.145-.361.364-.361h1.456c.219 0 .364.144.364.361 0 .218-.145.362-.364.362Zm-3.569 0h-1.456c-.219 0-.364-.144-.364-.362 0-.217.145-.361.364-.361h1.456c.219 0 .365.144.365.361 0 .218-.146.362-.364.362Zm-3.568 0h-1.457c-.218 0-.364-.144-.364-.362 0-.217.146-.361.364-.361h1.457c.218 0 .364.144.364.361 0 .218-.146.362-.364.362Zm-3.57 0h-1.456c-.218 0-.364-.144-.364-.362 0-.217.146-.361.364-.361h1.457c.218 0 .364.144.364.361 0 .218-.146.362-.364.362Z" mask="url(#cS)"/><mask id="cT" fill="#fff"><path d="M62.71 17.746c0 1.809-.802 3.473-2.04 4.631-1.166 1.013-2.622 1.665-4.297 1.665H35.324c-4.224.144-7.574-3.257-7.574-7.237 0-4.052 3.35-7.381 7.574-7.236h.073a12.52 12.52 0 0 1 1.748-3.401v-.073c1.31-1.737 2.986-2.967 4.88-3.618.072-.072.145-.072.291-.072 2.55-.869 5.39-.796 7.866.144 3.569 1.303 6.482 4.342 7.065 8.974 3.059.361 5.462 3.039 5.462 6.223Z"/></mask><path stroke="#2868F3" stroke-width="4" d="M62.71 17.746c0 1.809-.802 3.473-2.04 4.631-1.166 1.013-2.622 1.665-4.297 1.665H35.324c-4.224.144-7.574-3.257-7.574-7.237 0-4.052 3.35-7.381 7.574-7.236h.073a12.52 12.52 0 0 1 1.748-3.401v-.073c1.31-1.737 2.986-2.967 4.88-3.618.072-.072.145-.072.291-.072 2.55-.869 5.39-.796 7.866.144 3.569 1.303 6.482 4.342 7.065 8.974 3.059.361 5.462 3.039 5.462 6.223Z" mask="url(#cT)"/><path fill="#D4E1FD" d="M41.442 1.826c.073-.073.219-.073.364-.145.073-.073.146-.073.292-.073 2.549-.868 5.39-.796 7.866.145 3.568 1.303 6.481 4.342 7.064 8.973 3.132.435 5.536 3.04 5.536 6.224 0 1.809-.802 3.473-2.04 4.631-1.165 1.013-2.622 1.665-4.297 1.665H35.033c-4.225.144-7.575-3.257-7.575-7.237 0-4.052 3.35-7.381 7.575-7.236h.073a12.529 12.529 0 0 1 1.456-2.967"/><path stroke="#2868F3" stroke-linecap="round" stroke-linejoin="round" stroke-miterlimit="10" stroke-width="2" d="M41.442 1.826c.073-.073.219-.073.364-.145.073-.073.146-.073.292-.073 2.549-.868 5.39-.796 7.866.145 3.568 1.303 6.481 4.342 7.064 8.973 3.132.435 5.536 3.04 5.536 6.224 0 1.809-.802 3.473-2.04 4.631-1.165 1.013-2.622 1.665-4.297 1.665H35.033c-4.225.144-7.575-3.257-7.575-7.237 0-4.052 3.35-7.381 7.575-7.236h.073a12.529 12.529 0 0 1 1.456-2.967"/><mask id="cU" fill="#fff"><path d="M42.354 12.513c.218-.217.218-.652 0-.869-.218-.217-.583-.217-.947-.217 1.093-2.822 4.807-3.4 6.7-1.158.73.796 1.894-.217 1.239-1.085-2.04-2.316-5.608-2.605-7.939-.579-.874.724-1.456 1.737-1.748 2.822-.801 0-.947 0-1.092.217-.219.217-.219.652 0 .869 2.185 2.17 1.602 2.17 3.787 0Z"/></mask><path fill="#2868F3" stroke="#2868F3" stroke-width="4" d="M42.354 12.513c.218-.217.218-.652 0-.869-.218-.217-.583-.217-.947-.217 1.093-2.822 4.807-3.4 6.7-1.158.73.796 1.894-.217 1.239-1.085-2.04-2.316-5.608-2.605-7.939-.579-.874.724-1.456 1.737-1.748 2.822-.801 0-.947 0-1.092.217-.219.217-.219.652 0 .869 2.185 2.17 1.602 2.17 3.787 0Z" mask="url(#cU)"/><mask id="cV" fill="#fff"><path d="m51.895 13.96-1.456-1.446c-.219-.217-.656-.217-.874 0l-1.457 1.447c-.218.217-.218.651 0 .868.219.217.583.217.947.217-1.093 2.823-4.88 3.474-6.846 1.086-.292-.362-.802-.434-1.166-.145-1.238 1.013 1.675 3.257 4.297 3.257 2.55 0 4.735-1.737 5.463-4.125.801 0 .947 0 1.092-.217.292-.29.292-.724 0-.941 0 0 .073 0 0 0Z"/></mask><path fill="#2868F3" d="m51.895 13.96-1.456-1.446c-.219-.217-.656-.217-.874 0l-1.457 1.447c-.218.217-.218.651 0 .868.219.217.583.217.947.217-1.093 2.823-4.88 3.474-6.846 1.086-.292-.362-.802-.434-1.166-.145-1.238 1.013 1.675 3.257 4.297 3.257 2.55 0 4.735-1.737 5.463-4.125.801 0 .947 0 1.092-.217.292-.29.292-.724 0-.941 0 0 .073 0 0 0Z"/><path fill="#2868F3" d="m51.895 13.96-1.41 1.42.102.1.113.085 1.195-1.604Zm-1.456-1.446 1.41-1.42-1.41 1.42Zm-.874 0 1.41 1.418-1.41-1.418Zm-1.457 1.447-1.41-1.419 1.41 1.419Zm0 .868-1.41 1.419 1.41-1.419Zm.947.217 1.865.722 1.054-2.722h-2.92v2Zm-6.846 1.086-1.558 1.254.007.009.007.008 1.544-1.271Zm-1.166-.145L39.8 14.421l-.011.01-.011.008 1.266 1.548Zm9.76-.868v-2h-1.481l-.432 1.416 1.913.584Zm1.092-.217-1.41-1.42-.14.14-.11.165 1.66 1.115Zm1.41-2.36-1.457-1.447-2.819 2.837 1.457 1.448 2.819-2.838Zm-1.457-1.447a2.62 2.62 0 0 0-1.846-.744 2.62 2.62 0 0 0-1.847.744l2.82 2.837c-.352.35-.744.419-.973.419-.23 0-.622-.07-.973-.419l2.82-2.837Zm-3.693 0-1.457 1.447 2.82 2.838 1.456-1.448-2.819-2.837Zm-1.457 1.447a2.611 2.611 0 0 0-.754 1.853c0 .564.183 1.285.754 1.853l2.82-2.837c.353.35.426.746.426.984s-.073.634-.426.985l-2.82-2.838Zm0 3.706c.52.516 1.125.682 1.502.744.357.06.712.054.855.054v-4c-.098 0-.15 0-.194-.002-.042-.001-.038-.003-.007.002.049.008.363.066.664.365l-2.82 2.837Zm.492-1.924c-.544 1.406-2.45 1.735-3.437.537l-3.088 2.542c2.946 3.578 8.614 2.604 10.255-1.635l-3.73-1.444Zm-3.424.553c-.937-1.164-2.689-1.472-3.967-.456l2.489 3.132a1.176 1.176 0 0 1-1.637-.167l3.115-2.508Zm-3.99-.438c-.459.376-.827.903-.967 1.562a2.867 2.867 0 0 0 .156 1.66c.331.836.984 1.48 1.566 1.924 1.198.914 2.998 1.659 4.81 1.659v-4c-.812 0-1.779-.377-2.384-.839-.32-.244-.326-.35-.274-.22.036.094.106.33.038.65a1.249 1.249 0 0 1-.411.7l-2.533-3.096Zm5.564 6.805c3.484 0 6.407-2.365 7.376-5.542l-3.826-1.167c-.488 1.6-1.935 2.709-3.55 2.709v4Zm5.463-4.125c.299 0 .765.008 1.137-.057.247-.044.586-.136.931-.361.349-.229.562-.502.685-.685l-3.322-2.228c.05-.075.191-.267.447-.434.251-.165.477-.216.569-.232.072-.013.094-.009-.012-.006-.096.003-.225.003-.435.003v4Zm2.502-.799c.947-.94 1.282-2.848-.215-3.963l-2.39 3.208a1.457 1.457 0 0 1-.586-1.16c0-.394.163-.715.372-.922l2.819 2.837Zm-1.41-.36H51.928v-4H51.895v4H51.928v-4H51.895v4Z" mask="url(#cV)"/><path stroke="#2868F3" stroke-linecap="round" stroke-linejoin="round" stroke-miterlimit="10" d="M20.612 35.982c.563 0 1.02-.453 1.02-1.013 0-.56-.457-1.013-1.02-1.013s-1.02.454-1.02 1.013c0 .56.457 1.013 1.02 1.013Z"/></svg>