<svg xmlns="http://www.w3.org/2000/svg" fill="none" viewBox="0 0 60 60"><rect width="59" height="59" x=".5" y=".5" stroke="#2868F3" rx="7.5"/><path fill="#2868F3" d="M16.38 46.23h2.758c.55 0 1.076-.216 1.464-.602.388-.386.606-.91.606-1.456v-5.489c0-.546-.218-1.07-.606-1.455a2.076 2.076 0 0 0-1.464-.603H12.24c-.549 0-1.075.217-1.463.603-.388.386-.606.91-.606 1.455v5.49c0 .545.218 1.069.606 1.455.388.386.915.602 1.463.602H15v1.373h-1.38v1.372h4.139v-1.372h-1.38V46.23Zm-4.83-2.058v-5.489c0-.379.31-.686.69-.686h6.898a.692.692 0 0 1 .69.686v5.49a.684.684 0 0 1-.69.685H12.24a.688.688 0 0 1-.69-.686Zm35.18-7.547h-6.897c-.55 0-1.076.217-1.464.602-.388.387-.606.91-.606 1.456v5.49c0 .545.218 1.069.606 1.455.388.386.915.602 1.464.602h2.759v1.373h-1.38v1.372h4.14v-1.372h-1.38V46.23h2.759c.548 0 1.075-.216 1.463-.602.388-.386.606-.91.606-1.456v-5.489c0-.546-.218-1.07-.606-1.456a2.076 2.076 0 0 0-1.463-.602Zm.69 7.547a.684.684 0 0 1-.69.686h-6.897a.688.688 0 0 1-.69-.686v-5.489c0-.379.309-.686.69-.686h6.898a.691.691 0 0 1 .69.686v5.49Zm-11.726 2.745V35.939c0-.38.309-.687.69-.687h4.139a.691.691 0 0 1 .69.687h1.379c0-.546-.218-1.07-.606-1.456a2.076 2.076 0 0 0-1.463-.603h-4.14c-.548 0-1.075.217-1.463.603-.388.386-.606.91-.606 1.456v4.803h-4.139v-8.234h11.727a6.909 6.909 0 0 0 6.06-3.282 6.832 6.832 0 0 0 .173-6.861 6.905 6.905 0 0 0-5.888-3.58 10.983 10.983 0 0 0-4.878-6.601 11.086 11.086 0 0 0-8.114-1.405 11.04 11.04 0 0 0-6.833 4.576 5.541 5.541 0 0 0-3.395.781 5.498 5.498 0 0 0-2.248 2.65 6.905 6.905 0 0 0-5.901 3.555 6.832 6.832 0 0 0 .145 6.861 6.908 6.908 0 0 0 6.046 3.306h11.727v8.233h-4.139V35.94c0-.546-.218-1.07-.606-1.456a2.076 2.076 0 0 0-1.463-.603h-4.139c-.549 0-1.075.217-1.463.603-.388.386-.606.91-.606 1.456h1.38c0-.38.308-.687.689-.687h4.139a.692.692 0 0 1 .69.687v10.978a.684.684 0 0 1-.69.686h-3.45v1.372h3.45c.549 0 1.075-.217 1.463-.603.388-.386.606-.91.606-1.455v-4.803h9.658v4.803c0 .546.218 1.07.606 1.455.388.386.914.603 1.463.603h3.449v-1.372h-3.45a.688.688 0 0 1-.689-.686ZM11.55 25.647c0-1.467.59-2.873 1.639-3.904a5.532 5.532 0 0 1 3.942-1.585h.117a.69.69 0 0 0 .69-.488 4.12 4.12 0 0 1 1.49-2.124 4.153 4.153 0 0 1 3.215-.75.69.69 0 0 0 .69-.31 9.656 9.656 0 0 1 6.09-4.315 9.7 9.7 0 0 1 7.363 1.303 9.605 9.605 0 0 1 4.22 6.141.689.689 0 0 0 .69.55h.206a5.524 5.524 0 0 1 4.78 2.744 5.464 5.464 0 0 1 0 5.489 5.524 5.524 0 0 1-4.78 2.744H17.07c-1.465 0-2.87-.579-3.904-1.61a5.474 5.474 0 0 1-1.614-3.885Zm27.44-5.64-1.379.28v.001a6.17 6.17 0 0 0-2.148-3.536 6.23 6.23 0 0 0-3.908-1.397v-1.373c1.747 0 3.44.598 4.796 1.696a7.54 7.54 0 0 1 2.64 4.328Z"/></svg>