<svg xmlns="http://www.w3.org/2000/svg" fill="none" viewBox="0 0 60 60"><rect width="59" height="59" x=".5" y=".5" stroke="#2868F3" rx="7.5"/><path fill="#2868F3" d="M30.395 22.55a2.854 2.854 0 1 0 0 5.707 2.854 2.854 0 0 0 0-5.707Zm0 4.278a1.427 1.427 0 1 1 0-2.853 1.427 1.427 0 0 1 0 2.853ZM23.62 17.557v-1.426a3.212 3.212 0 0 0-3.188 2.835l1.417.166a1.784 1.784 0 0 1 1.771-1.575ZM38.953 16.844h1.426a4.997 4.997 0 0 0-4.992-4.992v1.426a3.572 3.572 0 0 1 3.566 3.566Z"/><path fill="#2868F3" d="M49.23 18.285a5.714 5.714 0 0 0-5.284-7.86 5.573 5.573 0 0 0-3.018.871 7.84 7.84 0 0 0-13.15 3.644 6.04 6.04 0 0 0-9.293 1.191 4.27 4.27 0 0 0-6.632 3.566c0 .239.02.477.057.713h-.057a2.853 2.853 0 0 0 0 5.706h2.389a4.28 4.28 0 0 0 4.029 2.852h6.611l1.982 1.983a.723.723 0 0 0 .87.107l.421-.257.122.478a.713.713 0 0 0 .691.542h2.853a.713.713 0 0 0 .692-.542l.121-.478.42.257c.282.164.638.12.87-.107l1.983-1.983h6.611a4.28 4.28 0 0 0 4.28-4.279 4.736 4.736 0 0 0-.065-.713h2.204a2.853 2.853 0 0 0 .292-5.69ZM13.991 24.69h-2.14a1.426 1.426 0 1 1 0-2.852h1.013a.705.705 0 0 0 .649-.999 2.857 2.857 0 0 1 2.617-3.993c.63 0 1.24.215 1.733.606a5.902 5.902 0 0 0-.306 1.89c.01.38.108.754.285 1.09a4.278 4.278 0 0 0-3.851 4.258Zm21.395 1.584-.87.214a.718.718 0 0 0-.486.42.706.706 0 0 0 .05.642l.457.77-1.227 1.227-.77-.464a.727.727 0 0 0-.642-.042.718.718 0 0 0-.42.485l-.214.87h-1.74l-.215-.87a.718.718 0 0 0-.42-.485.727.727 0 0 0-.642.042l-.77.464-1.227-1.227.457-.77a.706.706 0 0 0 .05-.642.718.718 0 0 0-.486-.42l-.87-.214v-1.74l.87-.215a.718.718 0 0 0 .485-.42.706.706 0 0 0-.05-.642l-.456-.77 1.226-1.227.77.457a.706.706 0 0 0 .643.05.718.718 0 0 0 .42-.485l.214-.87h1.74l.215.87a.718.718 0 0 0 .42.484c.21.088.449.07.642-.05l.77-.456 1.227 1.226-.457.77v.001a.706.706 0 0 0-.05.642.718.718 0 0 0 .485.42l.87.214v1.74Zm7.131 1.269h-6.333l.086-.021a.713.713 0 0 0 .542-.692v-2.853a.713.713 0 0 0-.542-.692l-.478-.12.257-.422a.713.713 0 0 0-.107-.87l-2.018-2.018a.713.713 0 0 0-.87-.107l-.422.257-.12-.478a.713.713 0 0 0-.692-.542h-2.853a.713.713 0 0 0-.692.542l-.121.478-.42-.257a.723.723 0 0 0-.87.107l-2.019 2.018a.713.713 0 0 0-.107.87l.257.421-.478.122a.714.714 0 0 0-.542.691v2.853c0 .327.224.613.542.692l.085.021h-6.332a2.853 2.853 0 0 1 0-5.705h.713c.232 0 .45-.112.585-.3a.739.739 0 0 0 .085-.656 4.948 4.948 0 0 0-.335-.706 2.186 2.186 0 0 1-.335-.834 4.63 4.63 0 0 1 8.658-2.29.713.713 0 0 0 1.333-.342 6.42 6.42 0 1 1 11.54 3.987.713.713 0 0 0 .57 1.14h1.433a2.853 2.853 0 0 1 0 5.706Zm6.419-4.992H46.22a4.28 4.28 0 0 0-3.702-2.14h-.15a7.693 7.693 0 0 0 .863-3.565 7.827 7.827 0 0 0-1.383-4.443 4.278 4.278 0 0 1 5.605 6.176.713.713 0 0 0-.05.734.727.727 0 0 0 .635.385h.899a1.426 1.426 0 1 1 0 2.853ZM30.394 33.247c-3.901 0-6.418 1.12-6.418 2.852v12.837c0 1.733 2.517 2.853 6.418 2.853 3.901 0 6.418-1.12 6.418-2.853V36.1c0-1.732-2.517-2.852-6.418-2.852Zm4.992 15.69c0 .484-1.505 1.426-4.992 1.426s-4.992-.942-4.992-1.427v-2.36a11.113 11.113 0 0 0 4.992.934 11.113 11.113 0 0 0 4.992-.934v2.36Zm0-4.28c0 .485-1.505 1.427-4.992 1.427s-4.992-.942-4.992-1.427v-2.36a11.11 11.11 0 0 0 4.992.934 11.11 11.11 0 0 0 4.992-.934v2.36Zm0-4.279c0 .485-1.505 1.427-4.992 1.427s-4.992-.942-4.992-1.427v-2.36a11.113 11.113 0 0 0 4.992.934 11.113 11.113 0 0 0 4.992-.934v2.36Zm-4.992-2.852c-3.487 0-4.992-.942-4.992-1.427 0-.484 1.505-1.426 4.992-1.426 3.488 0 4.992.942 4.992 1.426 0 .485-1.505 1.427-4.992 1.427ZM44.657 33.247c-3.9 0-6.418 1.12-6.418 2.852v12.837c0 1.733 2.517 2.853 6.418 2.853 3.901 0 6.419-1.12 6.419-2.853V36.1c0-1.732-2.518-2.852-6.419-2.852Zm4.992 15.69c0 .484-1.504 1.426-4.992 1.426-3.487 0-4.992-.942-4.992-1.427v-2.36a11.113 11.113 0 0 0 4.992.934 11.113 11.113 0 0 0 4.992-.934v2.36Zm0-4.28c0 .485-1.504 1.427-4.992 1.427-3.487 0-4.992-.942-4.992-1.427v-2.36a11.11 11.11 0 0 0 4.992.934 11.11 11.11 0 0 0 4.992-.934v2.36Zm0-4.279c0 .485-1.504 1.427-4.992 1.427-3.487 0-4.992-.942-4.992-1.427v-2.36a11.113 11.113 0 0 0 4.992.934 11.113 11.113 0 0 0 4.992-.934v2.36Zm-4.992-2.852c-3.487 0-4.992-.942-4.992-1.427 0-.484 1.505-1.426 4.992-1.426 3.488 0 4.992.942 4.992 1.426 0 .485-1.504 1.427-4.992 1.427ZM16.13 33.247c-3.9 0-6.418 1.12-6.418 2.852v12.837c0 1.733 2.518 2.853 6.419 2.853 3.9 0 6.418-1.12 6.418-2.853V36.1c0-1.732-2.517-2.852-6.418-2.852Zm4.993 15.69c0 .484-1.505 1.426-4.992 1.426-3.488 0-4.992-.942-4.992-1.427v-2.36a11.113 11.113 0 0 0 4.992.934 11.113 11.113 0 0 0 4.992-.934v2.36Zm0-4.28c0 .485-1.505 1.427-4.992 1.427-3.488 0-4.992-.942-4.992-1.427v-2.36a11.11 11.11 0 0 0 4.992.934 11.11 11.11 0 0 0 4.992-.934v2.36Zm0-4.279c0 .485-1.505 1.427-4.992 1.427-3.488 0-4.992-.942-4.992-1.427v-2.36a11.113 11.113 0 0 0 4.992.934 11.113 11.113 0 0 0 4.992-.934v2.36Zm-4.992-2.852c-3.488 0-4.992-.942-4.992-1.427 0-.484 1.504-1.426 4.992-1.426 3.487 0 4.992.942 4.992 1.426 0 .485-1.505 1.427-4.992 1.427Z"/><path fill="#2868F3" d="M16.131 31.107v1.427h1.427v-.713h6.418v-1.427h-7.131a.713.713 0 0 0-.714.713ZM43.231 32.534h1.427v-1.427a.713.713 0 0 0-.713-.713h-7.132v1.427h6.418v.713Z"/></svg>