<svg xmlns="http://www.w3.org/2000/svg" fill="none" viewBox="0 0 60 60"><rect width="59" height="59" x=".5" y=".5" stroke="#2868F3" rx="7.5"/><path fill="#2868F3" stroke="#2868F3" stroke-width=".3" d="M50.132 33.29h-9.377c.006-.031.019-.06.019-.093v-.451a3.323 3.323 0 0 0-3.318-3.32h-3.982a2.3 2.3 0 0 1-2.296-2.3v-.433h8.838c3.134 0 5.684-2.556 5.684-5.697 0-3.143-2.55-5.701-5.683-5.701-.304 0-.607.025-.908.074.774-3.513-1.91-6.97-5.606-6.97a5.695 5.695 0 0 0-5.095 3.111c-3.547-1.716-7.646 1.3-7.112 5.19-.219-.03-.44-.046-.662-.046-2.757 0-5 2.255-5 5.027a5.015 5.015 0 0 0 5.007 5.012h9.517v.432a2.3 2.3 0 0 1-2.296 2.3h-3.983a3.323 3.323 0 0 0-3.317 3.32v.452c0 .033.013.062.019.093h-9.377a2.14 2.14 0 0 0-2.136 2.14v9.494a2.14 2.14 0 0 0 2.136 2.14h5.013v1.562h-.303a2.464 2.464 0 0 0-2.46 2.463c0 .282.229.51.51.51h7.771a.51.51 0 0 0 .493-.641 2.465 2.465 0 0 0-2.457-2.332h-.303v-1.563h5.014a2.14 2.14 0 0 0 2.136-2.139V35.43a2.14 2.14 0 0 0-2.137-2.14h-2.918c.006-.03.019-.06.019-.093v-.45a2.3 2.3 0 0 1 2.297-2.3h3.982c1.18 0 2.219-.62 2.807-1.553a3.317 3.317 0 0 0 2.806 1.553h3.983a2.3 2.3 0 0 1 2.296 2.3v.45c0 .033.013.062.02.093h-2.919a2.14 2.14 0 0 0-2.136 2.14v9.495a2.14 2.14 0 0 0 2.136 2.139h5.014v1.562h-.304a2.464 2.464 0 0 0-2.46 2.463c0 .282.229.511.51.511h7.771a.51.51 0 0 0 .493-.642 2.465 2.465 0 0 0-2.456-2.331h-.304v-1.563h5.014a2.14 2.14 0 0 0 2.136-2.14v-9.495a2.14 2.14 0 0 0-2.136-2.138ZM16.656 21.68c0-2.207 1.785-4.004 3.979-4.004.398 0 .795.063 1.177.187a.511.511 0 0 0 .645-.637c-1.092-3.52 2.82-6.526 5.917-4.569a.51.51 0 0 0 .747-.244 4.685 4.685 0 0 1 4.383-2.991c3.403 0 5.595 3.468 4.38 6.468a.51.51 0 0 0 .635.676 4.68 4.68 0 0 1 1.5-.249c2.57 0 4.662 2.1 4.662 4.68 0 2.578-2.092 4.675-4.664 4.675H20.642a3.994 3.994 0 0 1-3.986-3.991Zm4.462 28.899h-6.55c.207-.544.732-.93 1.346-.93h3.858c.614 0 1.14.386 1.346.93Zm-2.67-1.952h-1.21v-1.563h1.21v1.563Zm7.15-13.197v9.495c0 .616-.5 1.117-1.116 1.117H11.204a1.118 1.118 0 0 1-1.116-1.117V35.43c0-.616.5-1.117 1.116-1.117h13.278c.615 0 1.115.501 1.115 1.117Zm21.17 15.149h-6.55c.206-.543.732-.93 1.346-.93h3.858c.614 0 1.14.387 1.346.93Zm-2.67-1.952h-1.21v-1.563h1.21v1.563Zm7.15-3.702c0 .616-.5 1.118-1.116 1.118H36.854a1.118 1.118 0 0 1-1.115-1.117V35.43c0-.616.5-1.118 1.115-1.118h13.278c.615 0 1.116.501 1.116 1.118v9.495Z"/><path fill="#2868F3" stroke="#2868F3" stroke-width=".3" d="M50.001 35.048H36.985a.51.51 0 0 0-.51.51v9.235c0 .282.228.51.51.51H50a.51.51 0 0 0 .51-.51V35.56a.51.51 0 0 0-.51-.51Zm-.51 9.234H37.495V36.07H49.49v8.212ZM10.825 35.56v9.234c0 .282.228.51.51.51H24.35a.51.51 0 0 0 .51-.51V35.56a.51.51 0 0 0-.51-.511H11.335a.51.51 0 0 0-.51.51Zm1.02.51h11.997v8.213H11.845V36.07ZM27.37 22.822h1.154v1.145H27.37v-1.145ZM30.09 22.822h1.155v1.145h-1.154v-1.145ZM32.813 22.822h1.154v1.145h-1.154v-1.145Z"/></svg>