<svg xmlns="http://www.w3.org/2000/svg" xmlns:xlink="http://www.w3.org/1999/xlink" fill="#fff" fill-rule="evenodd" stroke="#000" stroke-linecap="round" stroke-linejoin="round" viewBox="0 0 85 85"><use xlink:href="#a" x="2.5" y="2.5"/><symbol id="a" overflow="visible"><g stroke="none"><use xlink:href="#b" fill="#19486f"/><g fill="#2e73b8"><use xlink:href="#b" y="-2.786"/><use xlink:href="#c"/><use xlink:href="#c" x="-26.963"/><use xlink:href="#c" x="-6.741"/><use xlink:href="#c" x="-20.222"/><use xlink:href="#c" x="-13.481"/><path d="M0 51.236h20.334v4.494H0zm0-20.225h20.334v4.494H0zm0 13.483h20.334v4.494H0zm0-6.741h20.334v4.494H0zM0 24.27h20.334v4.494H0z"/><use xlink:href="#d"/><use xlink:href="#d" x="26.963"/><use xlink:href="#d" x="6.741"/><use xlink:href="#d" x="20.222"/><use xlink:href="#d" x="13.482"/><use xlink:href="#e"/><use xlink:href="#e" y="-20.224"/><use xlink:href="#e" y="-6.741"/><use xlink:href="#e" y="-13.483"/><use xlink:href="#e" y="6.742"/></g><path d="M15.784 49.113h-.73a1.685 1.685 0 0 1 0-3.37h.742a1.685 1.685 0 0 1 0 3.37zm50.6.325h-.742a1.685 1.685 0 0 1 0-3.37h.742a1.685 1.685 0 0 1 0 3.37z"/><use xlink:href="#f" fill="#2e73b8"/><use xlink:href="#g"/><use xlink:href="#f" fill="#2e73b8"/><use xlink:href="#g"/><use xlink:href="#h" fill="#2e73b8"/><path d="M25.39 55.101a6.11 6.11 0 0 1-5.662-3.758 6.114 6.114 0 0 1 1.31-6.669 6.11 6.11 0 0 1 6.663-1.335A6.112 6.112 0 0 1 25.39 55.1zm0-8.843a2.74 2.74 0 1 1-.045 5.483 2.74 2.74 0 1 1 .045-5.483z"/><use xlink:href="#h" x="29.041" fill="#2e73b8"/><path d="M54.408 55.101a6.11 6.11 0 0 1-5.646-3.773 6.112 6.112 0 0 1 1.325-6.661 6.11 6.11 0 0 1 6.66-1.325 6.112 6.112 0 0 1-2.339 11.759zm0-8.843a2.74 2.74 0 0 1 0 5.483 2.74 2.74 0 0 1 0-5.483z"/><path d="M49.263 50.674H30.591a1.685 1.685 0 0 1 0-3.37h18.671a1.685 1.685 0 0 1 0 3.37z"/></g></symbol><defs><path id="b" d="M10.223 23.269c0-5.677 4.57-10.247 10.246-10.247H59.52c5.676 0 10.246 4.57 10.246 10.247v39.056c0 5.677-4.57 10.247-10.246 10.247H20.469a10.224 10.224 0 0 1-10.246-10.247z"/><path id="c" d="M51.229 0h4.494v15.337h-4.494z"/><path id="d" d="M24.266 62.337h4.494V80h-4.494z"/><path id="e" d="M62.092 44.494H80v4.494H62.092z"/><path id="f" d="M59.52 48.989h4.303v-3.82c0-7.865-9.403-7.865-9.403-7.865l-3.561-8.337H33.164l-2.438 8.056-13.391 3.708v8.258h3.213"/><path id="g" d="M63.823 50.674H59.52a1.685 1.685 0 0 1 0-3.37h2.618v-2.135c0-6.011-6.932-6.225-7.729-6.225a1.696 1.696 0 0 1-1.55-1.022l-3.123-7.315H34.378l-2.067 6.854c-.163.539-.585.96-1.123 1.124l-12.156 3.371v5.348h1.528a1.684 1.684 0 1 1 0 3.37h-3.224a1.685 1.685 0 0 1-1.685-1.685V40.73a1.686 1.686 0 0 1 1.236-1.618l12.493-3.494 2.168-7.168a1.684 1.684 0 0 1 1.618-1.202H50.86c.675 0 1.285.402 1.55 1.022l3.146 7.36c3.977.36 9.954 2.652 9.954 9.539v3.82c0 .931-.754 1.685-1.685 1.685z"/><path id="h" d="M20.941 48.989c0-2.453 1.974-4.427 4.426-4.427s4.426 1.974 4.426 4.427-1.974 4.427-4.426 4.427-4.426-1.974-4.426-4.427z"/></defs></svg>