<svg xmlns="http://www.w3.org/2000/svg" xmlns:xlink="http://www.w3.org/1999/xlink" fill="#fff" fill-rule="evenodd" stroke="#000" stroke-linecap="round" stroke-linejoin="round" viewBox="0 0 85 85"><use xlink:href="#a" x="2.5" y="2.5"/><symbol id="a" overflow="visible"><g stroke="none"><use xlink:href="#b" fill="#19486f"/><g fill="#2e73b8"><use xlink:href="#b" y="-2.786"/><use xlink:href="#c"/><use xlink:href="#c" x="-26.963"/><use xlink:href="#c" x="-6.741"/><use xlink:href="#c" x="-20.222"/><use xlink:href="#c" x="-13.481"/><path d="M0 51.236h20.334v4.494H0zm0-20.225h20.334v4.494H0zm0 13.483h20.334v4.494H0zm0-6.741h20.334v4.494H0zM0 24.27h20.334v4.494H0z"/><use xlink:href="#d"/><use xlink:href="#d" x="26.963"/><use xlink:href="#d" x="6.741"/><use xlink:href="#d" x="20.222"/><use xlink:href="#d" x="13.482"/><use xlink:href="#e"/><use xlink:href="#e" y="-20.224"/><use xlink:href="#e" y="-6.741"/><use xlink:href="#e" y="-13.483"/><use xlink:href="#e" y="6.742"/><path d="m27.266 40.169 3.179-8.989 17.413 1.876 6.741 14.416-21.716 5.056-5.617-12.36z"/><path d="M16.436 48.539c0-4.805 3.868-8.674 8.673-8.674s8.673 3.869 8.673 8.674-3.868 8.674-8.673 8.674-8.673-3.869-8.673-8.674z"/></g><path d="M25.109 58.899a10.36 10.36 0 0 1 .045-20.719A10.36 10.36 0 0 1 35.5 48.54a10.37 10.37 0 0 1-10.392 10.359zm0-17.348a6.99 6.99 0 0 1 7.021 6.955 6.99 6.99 0 0 1-6.954 7.022 6.99 6.99 0 0 1-7.021-6.955 6.99 6.99 0 0 1 6.954-7.022z"/><path fill="#2e73b8" d="M46.207 48.539a8.675 8.675 0 0 1 5.354-8.014 8.67 8.67 0 0 1 9.452 1.88 8.675 8.675 0 0 1-6.133 14.808 8.673 8.673 0 0 1-8.673-8.674"/><path d="M54.881 58.899a10.36 10.36 0 0 1-7.324-17.685 10.36 10.36 0 0 1 17.682 7.325c-.006 5.719-4.64 10.353-10.358 10.36zm0-17.348a6.99 6.99 0 0 1 6.988 6.989 6.99 6.99 0 0 1-6.988 6.989 6.99 6.99 0 0 1-6.988-6.989 6.99 6.99 0 0 1 6.988-6.989z"/><path d="M25.109 50.225a1.686 1.686 0 0 1-1.607-2.179l5.336-17.36a1.684 1.684 0 0 1 3.089-.314l8.01 14.607 6.426-12.641a1.63 1.63 0 0 1 1.494-.966c.647.015 1.227.4 1.494.989l7.066 15.506a1.686 1.686 0 0 1-1.539 2.382H39.994a1.785 1.785 0 0 1-.764-.169 1.67 1.67 0 0 1-.708-.697l-7.639-13.876-4.168 13.483a1.685 1.685 0 0 1-1.606 1.236zm17.638-3.371h9.527l-4.494-9.91z"/><path d="M57.498 50.225H37.276l10.695-21.056zm-14.751-3.371h9.527l-4.494-9.91z"/><path d="M47.858 34.741h-.18L30.31 32.865a7.21 7.21 0 0 1-4.921-2.169 4.496 4.496 0 0 1-.921-3.64 5.09 5.09 0 0 1 1.685-3.371 4.91 4.91 0 0 1 3.977-.955 1.7 1.7 0 1 1-.472 3.371 1.324 1.324 0 0 0-1.82 1.281v.18a1.19 1.19 0 0 0 .191 1.045 4.02 4.02 0 0 0 2.483.933l17.526 1.876a1.69 1.69 0 0 1 1.595 1.775 1.69 1.69 0 0 1-1.775 1.596z"/><path d="M47.723 36.707a1.684 1.684 0 0 1-1.685-1.685v-5.416a1.685 1.685 0 0 1 3.37 0v5.404a1.684 1.684 0 0 1-1.685 1.697z"/><path fill="#2e73b8" d="M37.545 48.539c0-1.357 1.092-2.449 2.449-2.449s2.449 1.093 2.449 2.449-1.092 2.45-2.449 2.45-2.449-1.092-2.449-2.45z"/><path d="M39.994 52.675a4.134 4.134 0 1 1 4.134-4.135 4.145 4.145 0 0 1-4.134 4.135zm0-4.91a.764.764 0 1 1 0 1.528.764.764 0 0 1 0-1.528zm9.426-17.383h-5.449a1.685 1.685 0 0 1 0-3.37h5.449c.359 0 .359-.135.359-.371a1.685 1.685 0 0 1 3.37 0 3.674 3.674 0 0 1-3.73 3.742z"/></g></symbol><defs><path id="b" d="M10.223 23.269c0-5.677 4.57-10.247 10.246-10.247H59.52c5.676 0 10.246 4.57 10.246 10.247v39.056c0 5.677-4.57 10.247-10.246 10.247H20.469a10.224 10.224 0 0 1-10.246-10.247z"/><path id="c" d="M51.229 0h4.494v15.337h-4.494z"/><path id="d" d="M24.266 62.337h4.494V80h-4.494z"/><path id="e" d="M62.092 44.494H80v4.494H62.092z"/></defs></svg>