<svg xmlns="http://www.w3.org/2000/svg" xmlns:xlink="http://www.w3.org/1999/xlink" fill="#fff" fill-rule="evenodd" stroke="#000" stroke-linecap="round" stroke-linejoin="round" viewBox="0 0 85 85"><use xlink:href="#a" x="2.5" y="2.5"/><symbol id="a" overflow="visible"><g stroke="none"><use xlink:href="#b" fill="#19486f"/><g fill="#2e73b8"><use xlink:href="#b" y="-2.786"/><use xlink:href="#c"/><use xlink:href="#c" x="-26.963"/><use xlink:href="#c" x="-6.741"/><use xlink:href="#c" x="-20.222"/><use xlink:href="#c" x="-13.481"/><path d="M0 51.236h20.334v4.494H0zm0-20.225h20.334v4.494H0zm0 13.483h20.334v4.494H0zm0-6.741h20.334v4.494H0zM0 24.27h20.334v4.494H0z"/><use xlink:href="#d"/><use xlink:href="#d" x="26.963"/><use xlink:href="#d" x="6.741"/><use xlink:href="#d" x="20.222"/><use xlink:href="#d" x="13.482"/><use xlink:href="#e"/><use xlink:href="#e" y="-20.224"/><use xlink:href="#e" y="-6.741"/><use xlink:href="#e" y="-13.483"/><use xlink:href="#e" y="6.742"/></g><path d="M35.13 53.483h9.74v5.989a3.74 3.74 0 0 1-3.753 3.73H38.87a3.74 3.74 0 0 1-3.741-3.742v-5.977zm9.729-.393H35.13a1.685 1.685 0 0 1 0-3.37h9.74a1.685 1.685 0 0 1 0 3.37zm-10.561-9.18a1.686 1.686 0 0 1-.865-3.135l15.728-9.371a1.69 1.69 0 0 1 2.553 1.425 1.69 1.69 0 0 1-.823 1.474l-15.728 9.371a1.69 1.69 0 0 1-.865.236zm-4.269-11.36a1.686 1.686 0 0 1-.866-3.135l15.728-9.371a1.69 1.69 0 0 1 2.314.584 1.69 1.69 0 0 1-.584 2.315l-15.728 9.371a1.69 1.69 0 0 1-.865.236z"/><path d="M30.029 39.506a1.686 1.686 0 0 1-.866-3.135L49.15 24.449a1.69 1.69 0 0 1 1.688-.024 1.69 1.69 0 0 1 .043 2.923L30.883 39.27a1.686 1.686 0 0 1-.854.236zm9.965 13.584a1.685 1.685 0 0 1-1.685-1.685v-5.618a1.684 1.684 0 0 1 .82-1.449L49.15 38.36a1.69 1.69 0 0 1 2.314.584 1.69 1.69 0 0 1-.584 2.315l-9.201 5.483v4.663c0 .931-.755 1.685-1.685 1.685zM30.029 25.595a1.686 1.686 0 0 1-.866-3.135l8.313-4.933a1.69 1.69 0 0 1 2.314.584 1.69 1.69 0 0 1-.584 2.315l-8.325 4.966a1.683 1.683 0 0 1-.854.202z"/></g></symbol><defs><path id="b" d="M10.223 23.269c0-5.677 4.57-10.247 10.246-10.247H59.52c5.676 0 10.246 4.57 10.246 10.247v39.056c0 5.677-4.57 10.247-10.246 10.247H20.469a10.224 10.224 0 0 1-10.246-10.247z"/><path id="c" d="M51.229 0h4.494v15.337h-4.494z"/><path id="d" d="M24.266 62.337h4.494V80h-4.494z"/><path id="e" d="M62.092 44.494H80v4.494H62.092z"/></defs></svg>