<svg xmlns="http://www.w3.org/2000/svg" xmlns:xlink="http://www.w3.org/1999/xlink" fill="#fff" fill-rule="evenodd" stroke="#000" stroke-linecap="round" stroke-linejoin="round" viewBox="0 0 85 85"><use xlink:href="#a" x="2.5" y="2.5"/><symbol id="a" overflow="visible"><g stroke="none"><use xlink:href="#b" fill="#19486f"/><g fill="#2e73b8"><use xlink:href="#b" y="-2.786"/><use xlink:href="#c"/><use xlink:href="#c" x="-26.963"/><use xlink:href="#c" x="-6.741"/><use xlink:href="#c" x="-20.222"/><use xlink:href="#c" x="-13.481"/><path d="M0 51.236h20.334v4.494H0zm0-20.225h20.334v4.494H0zm0 13.483h20.334v4.494H0zm0-6.741h20.334v4.494H0zM0 24.27h20.334v4.494H0z"/><use xlink:href="#d"/><use xlink:href="#d" x="26.963"/><use xlink:href="#d" x="6.741"/><use xlink:href="#d" x="20.222"/><use xlink:href="#d" x="13.482"/><use xlink:href="#e"/><use xlink:href="#e" y="-20.224"/><use xlink:href="#e" y="-6.741"/><use xlink:href="#e" y="-13.483"/><use xlink:href="#e" y="6.742"/></g><path d="M38.309 30.809h3.37v36.517h-3.37z"/><path d="M59.429 30.63c-13.537-1.27-16.75-1.573-18.11-.854 0-1.539-1.674-4.27-8.864-15.73l-.932-1.494-2.966 1.596.73 1.595c5.617 12.36 7.01 15.281 8.313 16.09-1.348.742-2.853 3.573-9.235 15.573l-.831 1.562 2.865 1.764 1.011-1.427c7.864-11.079 9.729-13.708 9.785-15.247.685.416 1.887.584 4.786.584 2.674 0 6.797-.146 13.302-.371l1.775-.056.101-3.371z"/><path d="M36.062 31.933c0-2.179 1.754-3.933 3.932-3.933s3.932 1.754 3.932 3.933-1.754 3.933-3.932 3.933-3.932-1.754-3.932-3.933z"/><path fill="#2e73b8" d="M38.871 31.933a1.12 1.12 0 1 1 2.247 0 1.12 1.12 0 1 1-2.247 0z"/></g></symbol><defs><path id="b" d="M10.223 23.269c0-5.677 4.57-10.247 10.246-10.247H59.52c5.676 0 10.246 4.57 10.246 10.247v39.056c0 5.677-4.57 10.247-10.246 10.247H20.469a10.224 10.224 0 0 1-10.246-10.247z"/><path id="c" d="M51.229 0h4.494v15.337h-4.494z"/><path id="d" d="M24.266 62.337h4.494V80h-4.494z"/><path id="e" d="M62.092 44.494H80v4.494H62.092z"/></defs></svg>