<svg xmlns="http://www.w3.org/2000/svg" xmlns:xlink="http://www.w3.org/1999/xlink" fill="#fff" fill-rule="evenodd" stroke="#000" stroke-linecap="round" stroke-linejoin="round" viewBox="0 0 85 85"><use xlink:href="#a" x="2.5" y="2.5"/><symbol id="a" overflow="visible"><g stroke="none"><path fill="#19486f" d="M80 80H10.903v-3.404l35.11-18.023L80 76.595V80z"/><path fill="#2e73b8" d="M10.903 54.743H80v21.853H10.903z"/><path d="M14.585 58.257h2.46v5.889h4.531v-5.889h2.459v14.701h-2.459v-6.863h-4.531v6.863h-2.46zm15.419 1.977h-3.682v-1.977h9.723v1.977h-3.596v12.725h-2.445zm10.859 0h-3.668v-1.977h9.723v1.977h-3.596v12.725h-2.459zm8.357-1.977h4.876c2.949 0 4.315 1.771 4.315 4.283.119 1.176-.314 2.341-1.184 3.182s-2.085 1.269-3.318 1.17h-2.157v6.067H49.22zm2.46 6.863h1.74a2.39 2.39 0 0 0 1.859-.705c.477-.49.698-1.158.601-1.821 0-1.592-.662-2.553-2.632-2.553H51.68zm12.613-7.152h1.913l-4.89 15.305h-1.913zm12.241 14.99h-8.932c0-6.342 6.401-6.191 6.401-10.721 0-1.194-.532-2.21-1.899-2.21-1.841 0-2.143 1.565-2.143 3.047h-2.316c0-2.91 1.251-4.695 4.502-4.695s4.315 1.771 4.315 3.885c0 4.846-4.962 5.148-6.127 8.717h6.185z"/><g fill="#19486f"><path d="M63.114 3.404H13.118C5.873 3.404 0 9.009 0 15.923v47.742c0 5.004 3.122 9.528 7.94 11.503V51.311h68.292V15.923c0-3.32-1.382-6.504-3.842-8.852s-5.796-3.667-9.276-3.667z"/><path d="M76.232 54.743H6.976v-3.404l35.182-18.01 34.074 18.01v3.404z"/></g><path fill="#2e73b8" d="M63.114 0H13.118C5.873 0 0 5.605 0 12.519v47.715c0 5.004 3.122 9.528 7.94 11.503V51.311h68.292V12.519c0-3.32-1.382-6.504-3.842-8.852S66.593 0 63.114 0z"/></g></symbol></svg>