<svg xmlns="http://www.w3.org/2000/svg" xmlns:xlink="http://www.w3.org/1999/xlink" fill="#fff" fill-rule="evenodd" stroke="#000" stroke-linecap="round" stroke-linejoin="round" viewBox="0 0 85 85"><use xlink:href="#a" x="2.5" y="2.5"/><symbol id="a" overflow="visible"><g stroke="none"><use xlink:href="#b" fill="#19486f"/><g fill="#2e73b8"><use xlink:href="#b" y="-2.786"/><use xlink:href="#c"/><use xlink:href="#c" x="-26.963"/><use xlink:href="#c" x="-6.741"/><use xlink:href="#c" x="-20.222"/><use xlink:href="#c" x="-13.481"/><use xlink:href="#d"/><use xlink:href="#d" y="-20.225"/><use xlink:href="#d" y="-6.742"/><use xlink:href="#d" y="-13.483"/><use xlink:href="#d" y="-26.966"/><use xlink:href="#e"/><use xlink:href="#e" x="26.963"/><use xlink:href="#e" x="6.741"/><use xlink:href="#e" x="20.222"/><use xlink:href="#e" x="13.482"/><use xlink:href="#f"/><use xlink:href="#f" y="-20.224"/><use xlink:href="#f" y="-6.741"/><use xlink:href="#f" y="-13.483"/><use xlink:href="#f" y="6.742"/></g><use xlink:href="#b" fill="#19486f"/><g fill="#2e73b8"><use xlink:href="#b" y="-2.786"/><use xlink:href="#c"/><use xlink:href="#c" x="-26.963"/><use xlink:href="#c" x="-6.741"/><use xlink:href="#c" x="-20.222"/><use xlink:href="#c" x="-13.481"/><use xlink:href="#d"/><use xlink:href="#d" y="-20.225"/><use xlink:href="#d" y="-6.742"/><use xlink:href="#d" y="-13.483"/><use xlink:href="#d" y="-26.966"/><use xlink:href="#e"/><use xlink:href="#e" x="26.963"/><use xlink:href="#e" x="6.741"/><use xlink:href="#e" x="20.222"/><use xlink:href="#e" x="13.482"/><use xlink:href="#f"/><use xlink:href="#f" y="-20.224"/><use xlink:href="#f" y="-6.741"/><use xlink:href="#f" y="-13.483"/><use xlink:href="#f" y="6.742"/></g><path d="M38.871 44.607a7.516 7.516 0 0 0 6.505-3.753h1.191c4.112 0 3.617 4.315 3.617 4.315v3.236H57.7v-7.472a7.52 7.52 0 0 0-7.516-7.517l-4.808-.079a7.54 7.54 0 0 0-2.752-2.753v-4.741h3.797a3.764 3.764 0 1 1 .412-7.516 3.764 3.764 0 0 1-.412 7.516H31.366a3.764 3.764 0 1 1-.413 7.517 3.764 3.764 0 0 1 .413-7.517h3.752v4.741a7.54 7.54 0 0 0-2.752 2.753H20.008v7.517h12.358a7.515 7.515 0 0 0 6.505 3.753zm14.941 6.517c-2 3.674-3.37 5.685-3.37 8.652a3.371 3.371 0 1 1 6.741 0 3.371 3.371 0 1 1-6.741 0c6.752-2.921 5.078-5 3.37-8.652z"/></g></symbol><defs><path id="b" d="M10.223 23.269c0-5.677 4.57-10.247 10.246-10.247H59.52c5.676 0 10.246 4.57 10.246 10.247v39.056c0 5.677-4.57 10.247-10.246 10.247H20.469a10.224 10.224 0 0 1-10.246-10.247z"/><path id="c" d="M51.229 0h4.494v15.337h-4.494z"/><path id="d" d="M0 51.236h20.334v4.494H0z"/><path id="e" d="M24.266 62.337h4.494V80h-4.494z"/><path id="f" d="M62.092 44.494H80v4.494H62.092z"/></defs></svg>