<svg xmlns="http://www.w3.org/2000/svg" xmlns:xlink="http://www.w3.org/1999/xlink" fill="#fff" fill-rule="evenodd" stroke="#000" stroke-linecap="round" stroke-linejoin="round" viewBox="0 0 85 85"><use xlink:href="#a" x="2.5" y="2.5"/><symbol id="a" overflow="visible"><g stroke="none"><path fill="#19486f" d="m52.658 17.79-3.924 2.536-1.941-4.08C43.781 9.977 37.171 5.951 29.887 5.95c-4.915.003-9.627 1.852-13.099 5.141s-5.417 7.747-5.409 12.393l.074 3.248-2.917.792C3.808 28.807 0 34.542 0 38.411v1.394C0 44.516 6.045 50 13.788 50h52.425C73.997 50 80 44.516 80 39.805v-1.383c0-4.742-5.6-11.028-12.133-11.519l-3.457-.281-.117-3.308c-.09-2.571-1.661-4.89-4.095-6.042a7.79 7.79 0 0 0-7.571.518z"/><g fill="#2e73b8"><path d="m52.626 12.617-3.919 2.708-1.948-4.352C43.755 4.299 37.158.009 29.886 0c-4.915 0-9.628 1.969-13.101 5.474s-5.421 8.257-5.415 13.21l.082 3.453-2.91.851C3.849 24.359 0 30.461 0 34.588v1.49c0 5.026 6.043 10.867 13.822 10.867h52.356C73.957 46.945 80 41.103 80 36.077V34.6c0-5.061-5.597-11.707-12.132-12.274l-3.52-.296-.117-3.547c-.088-2.731-1.649-5.195-4.069-6.427s-5.314-1.034-7.548.515z"/><use xlink:href="#b"/><use xlink:href="#c"/><use xlink:href="#c" x="13.063"/></g><use xlink:href="#d"/><g fill="#2e73b8"><path d="M55.843 26.261H34.506c-.947 0-1.714-.792-1.714-1.769s.767-1.769 1.714-1.769h21.337c.947 0 1.714.792 1.714 1.769s-.767 1.769-1.714 1.769zm-9.451 11.724H25.055c-.947 0-1.714-.792-1.714-1.769s.767-1.769 1.714-1.769h21.337c.947 0 1.714.792 1.714 1.769s-.767 1.769-1.714 1.769z"/><use xlink:href="#e"/><use xlink:href="#e" x="11.886" y="11.725"/><use xlink:href="#b" y="37.249"/><use xlink:href="#c" y="37.249"/><use xlink:href="#c" x="13.063" y="37.249"/></g><use xlink:href="#d" y="37.108" fill="#19486f"/><path fill="#2e73b8" d="M28.301 55.312c0-1.523 1.188-2.748 2.663-2.748h18.971c1.475 0 2.663 1.226 2.663 2.748v19.58c0 1.522-1.188 2.748-2.663 2.748H30.964c-1.475 0-2.663-1.226-2.663-2.748z"/><path d="M52.598 61.01H34.506c-.947 0-1.714-.792-1.714-1.769s.767-1.769 1.714-1.769h18.091zm-6.205 11.725H28.301v-3.539h18.092c.947 0 1.714.792 1.714 1.769s-.768 1.769-1.714 1.769z"/><use xlink:href="#e" y="34.749"/><use xlink:href="#e" x="11.886" y="46.474"/></g></symbol><defs><path id="b" d="M36.884 29.8c0-.261.204-.472.457-.472h3.36c.253 0 .457.21.457.472v8.127a.464.464 0 0 1-.457.472h-3.36a.463.463 0 0 1-.457-.472z"/><path id="c" d="M30.724 29.8c0-.261.204-.472.457-.472h2.583c.253 0 .457.21.457.472v3.173a.464.464 0 0 1-.457.472h-2.583a.463.463 0 0 1-.457-.472z"/><path id="d" d="M28.301 20.563c0-1.523 1.188-2.748 2.663-2.748h18.971c1.475 0 2.663 1.226 2.663 2.748v19.58c0 1.523-1.188 2.748-2.663 2.748H30.964c-1.475 0-2.663-1.226-2.663-2.748z"/><path id="e" d="M30.381 24.491c0-2.359 1.84-4.258 4.126-4.258s4.126 1.899 4.126 4.258-1.84 4.258-4.126 4.258-4.126-1.899-4.126-4.258z"/></defs></svg>