<svg xmlns="http://www.w3.org/2000/svg" xmlns:xlink="http://www.w3.org/1999/xlink" fill="#fff" fill-rule="evenodd" stroke="#000" stroke-linecap="round" stroke-linejoin="round" viewBox="0 0 53.125 85"><use xlink:href="#a" x="1.563" y="2.5"/><symbol id="a" overflow="visible"><path fill="#19486f" stroke="none" d="M49.259 34.322c-1.454 1.085-5.248 2.397-11.166 3.238a94.75 94.75 0 0 1-13.085.85c-13.562 0-21.922-2.333-24.251-4.079H.018v1.61c0 1.682 8.837 4.992 24.989 4.992a94.75 94.75 0 0 0 13.108-.85c7.724-1.094 11.836-2.984 11.836-4.142v-1.619zm.738 38.398a.813.813 0 0 1-.057.19 1.41 1.41 0 0 1-.159.271c-1.329 1.809-8.428 4.359-23.286 4.359a88.861 88.861 0 0 1-21.173-2.514l.057.244C2.415 74.366.336 73.461.086 72.711v2.523c.261.796 2.647 1.809 5.963 2.713C10.502 79.077 17.408 80 26.495 80c14.857 0 21.945-2.577 23.286-4.359a1.3 1.3 0 0 0 .159-.262.97.97 0 0 0 .057-.19.62.62 0 0 0 0-.136v-2.469a.77.77 0 0 1 0 .136z"/><path fill="#2e73b8" stroke="none" d="m37.785 42.524-2.056.262c-.352 0-.704.091-1.079.118l-1.942.172c-.42 0-.841.063-1.272.081l-2.522.118h-.42l-3.033.063h-.647c-9.905 0-19.889-1.357-24.74-3.934v34.22c.261.796 2.624 1.809 5.918 2.713 4.464 1.13 11.359 2.053 20.446 2.053 16.629.045 23.558-3.183 23.558-4.901V39.124c-2.578 1.411-6.815 2.641-12.211 3.4z"/><path fill="#19486f" stroke="none" d="M.018 34.322c0 1.085 3.646 2.831 10.518 3.943v-7.877C3.698 31.491.018 33.237.018 34.322zm49.911 0c0-1.085-3.612-2.804-10.405-3.916v7.814c6.793-1.085 10.405-2.822 10.405-3.898z"/><g fill="#2e73b8" stroke="none"><path d="m10.559 26.997 4.884 2.776 9.598 5.471 9.598-5.462 4.884-2.785H10.559zm27.136 3.138-12.688 7.18-12.642-7.235-1.795-.995v9.134a90.927 90.927 0 0 0 14.437 1.094 94.743 94.743 0 0 0 13.108-.841l1.42-.253v-9.134zm-12.688-4.811c-.941 0-1.704-.607-1.704-1.357v-3.509L7.9 8.214c-.626-.535-.607-1.367.042-1.884s1.695-.531 2.366-.033L26.21 18.958c.32.254.499.599.5.959v4.07c-.012.742-.772 1.339-1.704 1.338z"/><path d="M25.007 21.255c-.689-.001-1.309-.331-1.573-.838s-.118-1.09.369-1.478l15.903-12.66c.688-.396 1.637-.328 2.225.159s.637 1.244.114 1.777l-15.902 12.66a1.95 1.95 0 0 1-1.136.38zM9.1 0l9.1 7.245-9.1 7.245L0 7.245z"/><path d="M33.469 7.255c0-3.267 3.303-5.896 7.406-5.896s7.406 2.63 7.406 5.896-3.303 5.896-7.406 5.896-7.406-2.63-7.406-5.896z"/></g></symbol></svg>