<svg xmlns="http://www.w3.org/2000/svg" xmlns:xlink="http://www.w3.org/1999/xlink" fill="#fff" fill-rule="evenodd" stroke="#000" stroke-linecap="round" stroke-linejoin="round" viewBox="0 0 74.375 85"><use xlink:href="#a" x="2.188" y="2.5"/><symbol id="a" overflow="visible"><g stroke="none"><path fill="#19486f" d="m46.047 13.664-3.419 2.276-1.704-3.689c-2.633-5.658-8.409-9.292-14.774-9.293-4.302 0-8.428 1.671-11.467 4.644s-4.742 7.005-4.734 11.206l.072 2.927-2.546.722C3.368 23.619 0 28.792 0 32.29v1.263c0 4.261 5.288 9.213 12.095 9.213h45.811c6.807 0 12.094-4.952 12.094-9.213V32.29c0-4.291-4.897-9.925-10.616-10.406l-3.08-.251-.103-3.008c-.077-2.315-1.442-4.405-3.56-5.449s-4.65-.877-6.604.436z"/><path fill="#2e73b8" d="m46.047 10.697-3.429 2.296-1.704-3.689C38.286 3.645 32.513.007 26.15 0c-4.3 0-8.424 1.669-11.463 4.641s-4.743 7-4.738 11.199l.072 2.927-2.546.722C3.368 20.652 0 25.825 0 29.323v1.263c0 4.261 5.288 9.213 12.095 9.213h45.811c6.807 0 12.094-4.952 12.094-9.213v-1.253c0-4.291-4.897-9.925-10.616-10.406l-3.08-.251-.103-3.008c-.077-2.315-1.442-4.405-3.56-5.449s-4.65-.877-6.604.436z"/><path fill="#19486f" d="M4.271 57.774h59.548V80H4.271z"/><path fill="#2e73b8" d="M4.271 54.767h59.548v22.226H4.271z"/><path d="M32.505 27.78h3.08V39.8h-3.08z"/><g fill="#2e73b8"><path d="M32.505 39.799h3.08v9.283h-3.08z"/><path d="m34.045 54.767 4.62-6.596h-9.24l4.62 6.596z"/></g><path d="M11.458 65.624c0-2.683 2.212-4.842 4.959-4.842h.01c2.747 0 4.959 2.16 4.959 4.842v.01c0 2.683-2.212 4.842-4.959 4.842h-.01c-2.747 0-4.959-2.16-4.959-4.842zm28.922 4.842H27.546l6.417-9.684 6.417 9.684zm6.16-9.684h9.928v9.694H46.54zM30.031 27.78c0-2.127 1.754-3.84 3.932-3.84s3.932 1.712 3.932 3.84-1.754 3.84-3.932 3.84-3.932-1.712-3.932-3.84z"/></g></symbol></svg>