<svg xmlns="http://www.w3.org/2000/svg" xmlns:xlink="http://www.w3.org/1999/xlink" fill="#fff" fill-rule="evenodd" stroke="#000" stroke-linecap="round" stroke-linejoin="round" viewBox="0 0 85 85"><use xlink:href="#a" x="2.5" y="2.5"/><symbol id="a" overflow="visible"><g stroke="none"><use xlink:href="#b" fill="#19486f"/><g fill="#2e73b8"><use xlink:href="#b" y="-2.786"/><use xlink:href="#c"/><use xlink:href="#c" x="-26.963"/><use xlink:href="#c" x="-6.741"/><use xlink:href="#c" x="-20.222"/><use xlink:href="#c" x="-13.481"/><path d="M0 51.236h20.334v4.494H0zm0-20.225h20.334v4.494H0zm0 13.483h20.334v4.494H0zm0-6.741h20.334v4.494H0zM0 24.27h20.334v4.494H0z"/><use xlink:href="#d"/><use xlink:href="#d" x="26.963"/><use xlink:href="#d" x="6.741"/><use xlink:href="#d" x="20.222"/><use xlink:href="#d" x="13.482"/><use xlink:href="#e"/><use xlink:href="#e" y="-20.224"/><use xlink:href="#e" y="-6.741"/><use xlink:href="#e" y="-13.483"/><use xlink:href="#e" y="6.742"/></g><path d="m46.611 26.517 3.37 23.798c1.123 7.539.157 14.528-9.853 14.528h-7.28c-9.471 0-10.931-6.989-9.853-14.528l3.37-23.798zm-20.188-2.248a9.17 9.17 0 0 1 8.83-8.067h2.494a9.17 9.17 0 0 1 8.864 8.067z"/><path d="m30.917 46.168-7.471 3.618-8.538-21 4.842-2.348 11.167 19.73zm18.975 5.844h-1.809v-3.371h1.82a4.71 4.71 0 0 0 4.696-4.708v-4.91a4.71 4.71 0 0 0-1.379-3.329 4.707 4.707 0 0 0-3.328-1.379h-3.37v-3.371h3.37a8.09 8.09 0 0 1 8.078 8.079v4.91a8.09 8.09 0 0 1-8.078 8.079zm-9.313 6.505h15.706v3.371H40.579z"/><path d="M62.464 64.933h-2.629a4.67 4.67 0 0 1-3.317-1.381 4.676 4.676 0 0 1-1.357-3.327v-.124a4.674 4.674 0 0 1 4.673-4.674h2.629z"/><use xlink:href="#f"/><use xlink:href="#f" y="4.685"/></g></symbol><defs><path id="b" d="M10.223 23.269c0-5.677 4.57-10.247 10.246-10.247H59.52c5.676 0 10.246 4.57 10.246 10.247v39.056c0 5.677-4.57 10.247-10.246 10.247H20.469a10.224 10.224 0 0 1-10.246-10.247z"/><path id="c" d="M51.229 0h4.494v15.337h-4.494z"/><path id="d" d="M24.266 62.337h4.494V80h-4.494z"/><path id="e" d="M62.092 44.494H80v4.494H62.092z"/><path id="f" d="M65.519 59.551H59.34a1.685 1.685 0 0 1 0-3.37h6.179a1.685 1.685 0 0 1 0 3.37z"/></defs></svg>