<svg xmlns="http://www.w3.org/2000/svg" xmlns:xlink="http://www.w3.org/1999/xlink" fill="#fff" fill-rule="evenodd" stroke="#000" stroke-linecap="round" stroke-linejoin="round" viewBox="0 0 63.75 85"><use xlink:href="#a" x="1.875" y="2.5"/><symbol id="a" overflow="visible"><path fill="#19486f" stroke="none" d="M59.086 11.058c-1.745 1.638-6.3 3.618-13.405 4.887a90.85 90.85 0 0 1-15.682 1.27c-16.282 0-26.318-3.522-29.114-6.157H0v2.43c0 2.553 10.568 7.536 30 7.536a90.775 90.775 0 0 0 15.736-1.283c9.273-1.652 14.209-4.505 14.209-6.253v-2.43zm.846 57.953a1.55 1.55 0 0 1-.068.287 2.27 2.27 0 0 1-.191.409c-1.596 2.73-10.118 6.58-27.955 6.58a86.04 86.04 0 0 1-25.377-3.768l.068.369C2.851 71.523.355 70.158.055 69.024v3.782c.314 1.201 3.177 2.73 7.159 4.096 5.346 1.706 13.636 3.099 24.545 3.099 17.836 0 26.345-3.891 27.955-6.58a2.1 2.1 0 0 0 .191-.396c.031-.094.053-.19.068-.287a1.23 1.23 0 0 0 0-.205v-3.727a1.305 1.305 0 0 1-.041.205z"/><path fill="#2e73b8" stroke="none" d="m45.328 23.427-2.468.396c-.423 0-.846.136-1.296.178l-2.332.259c-.505 0-1.009.095-1.527.123l-3.027.177h-.505l-3.641.096h-.777c-11.891 0-23.877-2.048-29.7-5.938V70.39c.314 1.201 3.15 2.73 7.105 4.096 5.359 1.707 13.636 3.099 24.545 3.099 19.95.055 28.296-4.778 28.296-7.413V18.294c-3.123 2.13-8.182 4-14.673 5.133z"/><path fill="#19486f" stroke="none" d="M0 11.045c0 1.638 4.377 4.273 12.627 5.952V5.106C4.391 6.785 0 9.406 0 11.045zm59.891-.001c0-1.638-4.336-4.232-12.491-5.911v11.836c8.168-1.665 12.491-4.232 12.491-5.925z"/><path fill="#2e73b8" stroke="none" d="m12.641 0 5.85 4.191 11.536 8.259L41.55 4.191 47.414 0H12.641zm32.564 4.737L30 15.618 14.782 4.696l-2.141-1.515V17.01A87.317 87.317 0 0 0 30 18.58a90.877 90.877 0 0 0 15.736-1.27l1.718-.328V3.181z"/></symbol></svg>