<svg xmlns="http://www.w3.org/2000/svg" xmlns:xlink="http://www.w3.org/1999/xlink" fill="#fff" fill-rule="evenodd" stroke="#000" stroke-linecap="round" stroke-linejoin="round" viewBox="0 0 85 85"><use xlink:href="#a" x="2.5" y="2.5"/><symbol id="a" overflow="visible"><g stroke="none"><use xlink:href="#b" fill="#19486f"/><g fill="#2e73b8"><use xlink:href="#b" y="-2.786"/><use xlink:href="#c"/><use xlink:href="#c" x="-26.963"/><use xlink:href="#c" x="-6.741"/><use xlink:href="#c" x="-20.222"/><use xlink:href="#c" x="-13.481"/><path d="M0 51.236h20.334v4.494H0zm0-20.225h20.334v4.494H0zm0 13.483h20.334v4.494H0zm0-6.741h20.334v4.494H0zM0 24.27h20.334v4.494H0z"/><use xlink:href="#d"/><use xlink:href="#d" x="26.963"/><use xlink:href="#d" x="6.741"/><use xlink:href="#d" x="20.222"/><use xlink:href="#d" x="13.482"/><use xlink:href="#e"/><use xlink:href="#e" y="-20.224"/><use xlink:href="#e" y="-6.741"/><use xlink:href="#e" y="-13.483"/><use xlink:href="#e" y="6.742"/></g><path d="M19.211 30.079h41.567v29.674H19.211z"/><path d="M16.425 28.764h47.139v2.787H16.425zm0 29.382h47.139v2.944H16.425zM39.995 15.247l-23.57 13.517h47.139l-23.57-13.517z"/><path fill="#2e73b8" d="M41.017 27.517c4.977.303 9.617 2.921 9.662 8.719h-6.965a3.034 3.034 0 0 0-2.696-3.225v5.09l2.775.708c3.853 1.124 7.752 2.888 7.752 7.708 0 6.258-5.055 8.573-10.516 8.798v3.371h-1.775v-3.371c-5.909-.191-10.931-2.809-10.965-9.404h6.965c.146 2.697 1.651 3.787 4.011 4.045v-5.854l-2.359-.641c-3.82-1.124-7.864-2.809-7.864-7.708 0-5.764 5.314-8.09 10.178-8.281v-3.371h1.764zm-1.764 5.36c-1.46 0-3.224.596-3.224 2.438 0 1.202 1.315 1.831 3.224 2.359zm1.764 17.079c1.651-.112 3.561-.786 3.561-2.584 0-1.461-1.427-2.169-3.561-2.775z"/></g></symbol><defs><path id="b" d="M10.223 23.269c0-5.677 4.57-10.247 10.246-10.247H59.52c5.676 0 10.246 4.57 10.246 10.247v39.056c0 5.677-4.57 10.247-10.246 10.247H20.469a10.224 10.224 0 0 1-10.246-10.247z"/><path id="c" d="M51.229 0h4.494v15.337h-4.494z"/><path id="d" d="M24.266 62.337h4.494V80h-4.494z"/><path id="e" d="M62.092 44.494H80v4.494H62.092z"/></defs></svg>