<svg xmlns="http://www.w3.org/2000/svg" xmlns:xlink="http://www.w3.org/1999/xlink" fill="#fff" fill-rule="evenodd" stroke="#000" stroke-linecap="round" stroke-linejoin="round" viewBox="0 0 63.75 85"><use xlink:href="#a" x="1.875" y="2.5"/><symbol id="a" overflow="visible"><g stroke="none"><path fill="#19486f" d="m45.919 62.758-6.886-3.364-3.549 6.665L30 60.791l-5.483 5.268-3.549-6.665-6.886 3.364-1.265-7.4-2.699.393V80L30 66.67 49.894 80V55.751l-2.71-.393-1.265 7.4z"/><path fill="#2e73b8" d="M10.117 44.637v32.259L30 63.566l19.894 13.33V44.637H10.117z"/><path fill="#19486f" d="M55.314 32.331 60 27.705V24.6l-5.919.114 2.986-5.816v-3.105l-6.589 2.049.999-6.437V8.3l-6.599 4.088-1.084-6.417-5.972 2.908-3.071-5.775L30 7.679l-4.75-4.574-3.071 5.775-5.972-2.908-1.084 6.417-6.6-4.089v3.105l.999 6.437-6.589-2.049v3.105l2.986 5.816L0 24.601v3.105l4.687 4.626L0 33.853v3.105l5.919 2.991-2.986 2.701v3.105l6.589 1.066-.999 3.322v3.105l1.594-.238 5.005-.735 1.084 6.416 5.972-2.919 3.071 5.775L30 56.983l4.75 4.564 3.071-5.775 5.972 2.919 1.084-6.416 5.016.735 1.584.238v-3.105l-.999-3.322 6.589-1.066V42.65l-2.986-2.701L60 36.957v-3.105l-4.687-1.521z"/><g fill="#2e73b8"><path d="M55.314 29.226 60 24.6l-5.919-2.991 2.986-5.816-6.589-1.056.999-6.437-6.599.983-1.084-6.417-5.972 2.908L34.75 0 30 4.574 25.25 0l-3.071 5.775-5.972-2.908-1.084 6.417-6.6-.984.999 6.437-6.589 1.056 2.986 5.816L0 24.6l4.687 4.626L0 33.853l5.919 2.991-2.986 5.806 6.589 1.066-.999 6.427 1.594-.238 5.005-.735 1.084 6.416 5.972-2.919 3.071 5.775L30 53.878l4.75 4.564 3.071-5.775 5.972 2.919 1.084-6.416 5.016.735 1.584.238-.999-6.427 6.589-1.066-2.986-5.806L60 33.853l-4.687-4.626z"/><path d="M6.801 29.227C6.801 16.71 17.148 6.634 30 6.634S53.198 16.71 53.198 29.227 42.852 51.819 30 51.819 6.801 41.743 6.801 29.227z"/></g><path d="M30 53.372c-13.693 0-24.793-10.81-24.793-24.145S16.307 5.082 30 5.082s24.793 10.81 24.793 24.145C54.775 42.555 43.685 53.355 30 53.372zm0-45.185c11.932 0 21.605 9.42 21.605 21.04S41.932 50.267 30 50.267s-21.605-9.42-21.605-21.04S18.068 8.187 30 8.187zm15.728 19.156-3.284 1.915-1.265-.269-1.381-1.407-3.592.331-1.498-2.504-4.251.052h-.967a8.774 8.774 0 0 0-2.125-2.287 9.51 9.51 0 0 0-11.69.052c-2.035 1.607-3.261 3.989-3.367 6.538s.92 5.02 2.814 6.781a9.49 9.49 0 0 0 12.285.497 7.36 7.36 0 0 0 1.275-1.18 6.89 6.89 0 0 0 .956-1.377c.202-.332.38-.678.531-1.035h17.163l1.796-3.063zm-28.225 4.978c-1.332 0-2.412-1.052-2.412-2.349s1.08-2.349 2.412-2.349c.862 0 1.658.448 2.089 1.175s.431 1.622 0 2.349-1.227 1.175-2.089 1.175z"/></g></symbol></svg>