<svg xmlns="http://www.w3.org/2000/svg" xmlns:xlink="http://www.w3.org/1999/xlink" fill="#fff" fill-rule="evenodd" stroke="#000" stroke-linecap="round" stroke-linejoin="round" viewBox="0 0 63.75 85"><use xlink:href="#a" x="1.875" y="2.5"/><symbol id="a" overflow="visible"><g stroke="none"><path fill="#19486f" d="M42.739 3.019H8.847C3.904 3.019 0 5.384 0 8.725v42.264c0 3.331 3.966 6.37 8.847 6.37h19.337V54.34h-.161c.328-4.549 3.336-8.688 8.076-11.109s10.624-2.827 15.796-1.087V8.725c0-3.341-4.263-5.706-9.156-5.706z"/><path fill="#2e73b8" d="M42.739 0H8.847C3.904 0 0 2.365 0 5.706V47.97c0 3.331 3.966 6.37 8.847 6.37h19.337c-.978-5.037 1.462-10.111 6.38-13.267s11.547-3.901 17.331-1.948V5.706C51.895 2.365 47.632 0 42.739 0z"/><path d="m11.602 40.443-3.447-3.059-3.818 3.109 7.191 5.857 12.146-9.892-2.768-2.304-9.304 6.289z"/><g fill="#99bce3"><use xlink:href="#b"/><use xlink:href="#b" y="-14.591"/></g><path fill="#19486f" d="M45.321 68.981c-4.458.002-8.674-1.65-11.454-4.488V80l11.454-6.42L56.775 80V64.493c-2.78 2.838-6.996 4.49-11.454 4.488zm0-26.405c8.1-.006 14.672 5.338 14.679 11.935S53.446 66.46 45.346 66.465 30.674 61.127 30.667 54.53s6.554-11.949 14.654-11.955z"/><path fill="#2e73b8" d="M45.321 66.666c-4.466-.008-8.684-1.675-11.454-4.528v15.537l11.454-6.42 11.454 6.42V62.138c-2.77 2.853-6.988 4.521-11.454 4.528zm0-26.414c8.1-.006 14.672 5.338 14.679 11.935s-6.554 11.949-14.654 11.955-14.672-5.338-14.679-11.935 6.554-11.949 14.654-11.955z"/><path d="m54.378 51.301-1.89.926-.717-.151-.766-.654-2.076.161-.865-1.218h-3.027a4.66 4.66 0 0 0-1.236-1.097c-1.963-1.286-4.759-1.286-6.722 0-1.18.772-1.894 1.922-1.958 3.154s.528 2.426 1.624 3.277c1.947 1.524 4.983 1.628 7.08.241.266-.171.507-.367.717-.584a3.36 3.36 0 0 0 .544-.664c.118-.165.222-.336.309-.513h9.885l1.001-1.439zM38.13 53.696c-.768 0-1.39-.507-1.39-1.132s.622-1.132 1.39-1.132c.768 0 1.39.507 1.39 1.132s-.622 1.132-1.39 1.132z"/></g></symbol><defs><path id="b" d="M4.56 21.494h4.238l4.609 3.552 4.806-3.552h3.978l-6.709 4.85 7.203 5.213H18.36l-5.066-3.844-5.153 3.844h-4.09l7.203-5.213z"/></defs></svg>