<svg xmlns="http://www.w3.org/2000/svg" xmlns:xlink="http://www.w3.org/1999/xlink" fill="#fff" fill-rule="evenodd" stroke="#000" stroke-linecap="round" stroke-linejoin="round" viewBox="0 0 85 85"><use xlink:href="#a" x="2.5" y="2.5"/><symbol id="a" overflow="visible"><g stroke="none"><use xlink:href="#b" fill="#19486f"/><g fill="#2e73b8"><use xlink:href="#b" y="-2.786"/><use xlink:href="#c"/><use xlink:href="#c" x="-26.963"/><use xlink:href="#c" x="-6.741"/><use xlink:href="#c" x="-20.222"/><use xlink:href="#c" x="-13.481"/><path d="M0 51.236h20.334v4.494H0zm0-20.225h20.334v4.494H0zm0 13.483h20.334v4.494H0zm0-6.741h20.334v4.494H0zM0 24.27h20.334v4.494H0z"/><use xlink:href="#d"/><use xlink:href="#d" x="26.963"/><use xlink:href="#d" x="6.741"/><use xlink:href="#d" x="20.222"/><use xlink:href="#d" x="13.482"/><use xlink:href="#e"/><use xlink:href="#e" y="-20.224"/><use xlink:href="#e" y="-6.741"/><use xlink:href="#e" y="-13.483"/><use xlink:href="#e" y="6.742"/></g><path d="m54.801 33.259-.292-18.101a.56.56 0 0 0-.562-.551h-4.325a.56.56 0 0 0-.562.551l-.258 15.73-27.311-10.753a1.125 1.125 0 0 0-1.539 1.045v42.697c0 .62.503 1.124 1.123 1.124h37.826c.62 0 1.123-.503 1.123-1.124V36.045c0-.46-.28-.874-.708-1.045z"/><g fill="#2e73b8"><path d="M37.411 50.18a.56.56 0 0 1 .562-.562h4.179a.56.56 0 0 1 .562.562v12.528a.56.56 0 0 1-.562.562h-4.179a.56.56 0 0 1-.562-.562z"/><use xlink:href="#f"/><use xlink:href="#f" x="21.514"/><use xlink:href="#f" y="-10.652"/><use xlink:href="#f" x="10.673" y="-10.652"/><use xlink:href="#f" x="21.514" y="-10.652"/></g></g></symbol><defs><path id="b" d="M10.223 23.269c0-5.677 4.57-10.247 10.246-10.247H59.52c5.676 0 10.246 4.57 10.246 10.247v39.056c0 5.677-4.57 10.247-10.246 10.247H20.469a10.224 10.224 0 0 1-10.246-10.247z"/><path id="c" d="M51.229 0h4.494v15.337h-4.494z"/><path id="d" d="M24.266 62.337h4.494V80h-4.494z"/><path id="e" d="M62.092 44.494H80v4.494H62.092z"/><path id="f" d="M26.603 50.18a.56.56 0 0 1 .562-.562h4.303a.56.56 0 0 1 .562.562v5.079a.56.56 0 0 1-.562.562h-4.303a.56.56 0 0 1-.562-.562z"/></defs></svg>