<svg xmlns="http://www.w3.org/2000/svg" xmlns:xlink="http://www.w3.org/1999/xlink" fill="#fff" fill-rule="evenodd" stroke="#000" stroke-linecap="round" stroke-linejoin="round" viewBox="0 0 85 85"><use xlink:href="#a" x="2.5" y="2.5"/><symbol id="a" overflow="visible"><g stroke="none"><path fill="#19486f" d="M10.223 23.269c0-5.677 4.57-10.247 10.246-10.247H59.52c5.676 0 10.246 4.57 10.246 10.247v39.056c0 5.677-4.57 10.247-10.246 10.247H20.469a10.224 10.224 0 0 1-10.246-10.247z"/><g fill="#2e73b8"><path d="M10.223 20.483c0-5.677 4.57-10.247 10.246-10.247H59.52c5.676 0 10.246 4.57 10.246 10.247V59.54c0 5.677-4.57 10.247-10.246 10.247H20.469A10.224 10.224 0 0 1 10.223 59.54z"/><path d="M51.229 0h4.494v15.337h-4.494zM24.266 0h4.494v15.337h-4.494zm20.222 0h4.494v15.337h-4.494zM31.007 0h4.494v15.337h-4.494zm6.741 0h4.494v15.337h-4.494zM0 51.236h20.334v4.494H0zm0-20.225h20.334v4.494H0zm0 13.483h20.334v4.494H0zm0-6.741h20.334v4.494H0zM0 24.27h20.334v4.494H0zm24.266 38.067h4.494V80h-4.494zm26.963 0h4.494V80h-4.494zm-20.222 0h4.494V80h-4.494zm13.481 0h4.494V80h-4.494zm-6.74 0h4.494V80h-4.494zm24.344-17.843H80v4.494H62.092zm0-20.224H80v4.494H62.092zm0 13.483H80v4.494H62.092zm0-6.742H80v4.494H62.092zm0 20.225H80v4.494H62.092z"/></g><path d="M27.805 22.191a2.24 2.24 0 0 1 2.247-2.247h19.885a2.24 2.24 0 0 1 2.247 2.247v38.854a2.24 2.24 0 0 1-2.247 2.247H30.052a2.24 2.24 0 0 1-2.247-2.247z"/><path d="M31.58 32.495c0-4.662 3.753-8.416 8.415-8.416s8.415 3.753 8.415 8.416-3.753 8.416-8.415 8.416-8.415-3.754-8.415-8.416z"/><g fill="#2e73b8"><path d="M39.994 42.034a9.54 9.54 0 0 1-9.538-9.539 9.54 9.54 0 0 1 9.538-9.539 9.54 9.54 0 0 1 9.538 9.539 9.55 9.55 0 0 1-9.538 9.539zm0-16.854c4.027 0 7.291 3.265 7.291 7.292a7.291 7.291 0 1 1-14.582 0 7.291 7.291 0 0 1 7.291-7.292v.023zm-3.246 23.168a3.247 3.247 0 1 1 6.493 0 3.247 3.247 0 1 1-6.493 0z"/><path d="M43.241 59.034h-6.493l2.685-11.438h1.124l2.685 11.438z"/></g></g></symbol></svg>