<svg xmlns="http://www.w3.org/2000/svg" xmlns:xlink="http://www.w3.org/1999/xlink" fill="#fff" fill-rule="evenodd" stroke="#000" stroke-linecap="round" stroke-linejoin="round" viewBox="0 0 85 85"><use xlink:href="#a" x="2.5" y="2.5"/><symbol id="a" overflow="visible"><g stroke="none"><use xlink:href="#b" fill="#19486f"/><g fill="#2e73b8"><use xlink:href="#b" y="-2.786"/><use xlink:href="#c"/><use xlink:href="#c" x="-26.963"/><use xlink:href="#c" x="-6.741"/><use xlink:href="#c" x="-20.222"/><use xlink:href="#c" x="-13.481"/><path d="M0 51.236h20.334v4.494H0zm0-20.225h20.334v4.494H0zm0 13.483h20.334v4.494H0zm0-6.741h20.334v4.494H0zM0 24.27h20.334v4.494H0z"/><use xlink:href="#d"/><use xlink:href="#d" x="26.963"/><use xlink:href="#d" x="6.741"/><use xlink:href="#d" x="20.222"/><use xlink:href="#d" x="13.482"/><use xlink:href="#e"/><use xlink:href="#e" y="-20.224"/><use xlink:href="#e" y="-6.741"/><use xlink:href="#e" y="-13.483"/><use xlink:href="#e" y="6.742"/></g><path d="M26.85 29.472a2.61 2.61 0 0 1 2.618-2.618h21.065a2.61 2.61 0 0 1 2.618 2.618v21.067a2.61 2.61 0 0 1-2.618 2.618H29.468a2.61 2.61 0 0 1-2.618-2.618z"/><g fill="#2e73b8"><path d="M56.655 35.506H33.568a1.685 1.685 0 0 1 0-3.37h23.087a1.685 1.685 0 0 1 0 3.37zM46.421 47.865H23.334a1.685 1.685 0 0 1 0-3.37h23.087a1.685 1.685 0 0 1 0 3.37z"/><use xlink:href="#f"/><use xlink:href="#f" x="12.852" y="12.292"/></g></g></symbol><defs><path id="b" d="M10.223 23.269c0-5.677 4.57-10.247 10.246-10.247H59.52c5.676 0 10.246 4.57 10.246 10.247v39.056c0 5.677-4.57 10.247-10.246 10.247H20.469a10.224 10.224 0 0 1-10.246-10.247z"/><path id="c" d="M51.229 0h4.494v15.337h-4.494z"/><path id="d" d="M24.266 62.337h4.494V80h-4.494z"/><path id="e" d="M62.092 44.494H80v4.494H62.092z"/><path id="f" d="M29.097 33.854a4.46 4.46 0 1 1 8.943 0 4.46 4.46 0 1 1-8.943 0z"/></defs></svg>