<svg xmlns="http://www.w3.org/2000/svg" xmlns:xlink="http://www.w3.org/1999/xlink" fill="#fff" fill-rule="evenodd" stroke="#000" stroke-linecap="round" stroke-linejoin="round" viewBox="0 0 42.5 85"><use xlink:href="#a" x="1.25" y="2.5"/><defs><linearGradient id="b" x1="0%" x2="98%" y1="100%" y2="100%"><stop offset="2%" stop-color="#00b3ff"/><stop offset="22%" stop-color="#13b9ff"/><stop offset="26%" stop-color="#43c7ff"/><stop offset="32%" stop-color="#90deff"/><stop offset="4%" stop-color="#fafdff"/><stop offset="4%" stop-color="#fff"/><stop offset="55%" stop-color="#fff"/><stop offset="62%" stop-color="#fcfeff"/><stop offset="68%" stop-color="#f2fbff"/><stop offset="74%" stop-color="#e1f6ff"/><stop offset="79%" stop-color="#c9efff"/><stop offset="83%" stop-color="#aae6ff"/><stop offset="88%" stop-color="#84daff"/><stop offset="93%" stop-color="#58cdff"/><stop offset="97%" stop-color="#25beff"/><stop offset="100%" stop-color="#00b3ff"/></linearGradient></defs><symbol id="a" overflow="visible"><g stroke="none"><path fill="#19486f" d="M.033 3.905H40V29.56H.033z"/><path fill="#2e73b8" d="M.033 3.905C.033 1.742 8.943 0 20.011 0s19.978 1.742 19.978 3.905-8.91 3.905-19.978 3.905S.033 6.068.033 3.905z"/><path fill="#19486f" d="M19.989 17.23C8.952 17.23.011 15.483.011 13.325v62.77C.011 78.252 8.93 80 19.989 80s19.978-1.747 19.978-3.905v-62.77c.033 2.158-8.919 3.905-19.978 3.905z"/><path fill="#2e73b8" d="M19.989 14.848C8.952 14.848.011 13.1.011 10.943v62.721c0 2.157 8.919 3.905 19.978 3.905s19.978-1.747 19.978-3.905V10.943c.033 2.157-8.919 3.905-19.978 3.905z"/><path fill="#205b99" d="M19.989 41.206C8.952 41.206.011 39.458.011 37.301V69.76c0 2.157 8.919 3.905 19.978 3.905s19.978-1.747 19.978-3.905V37.301c.033 2.157-8.919 3.905-19.978 3.905z"/><path fill="url(#b)" d="M38.528 7.36C35.596 8.795 28.394 9.8 19.988 9.8S4.437 8.825 1.472 7.36C.535 6.911 0 6.384 0 5.896v2.929c0 2.157 8.919 3.905 19.978 3.905s19.978-1.747 19.978-3.905V5.896c.045.517-.491 1.015-1.427 1.464z"/></g></symbol></svg>