<svg xmlns="http://www.w3.org/2000/svg" viewBox="0 0 38 38"><path d="M28 1H10a9 9 0 0 0-9 9v18a9 9 0 0 0 9 9h18a9 9 0 0 0 9-9V10a9 9 0 0 0-9-9Z"/><path d="M15 23.625a.625.625 0 0 1-.57-.882l4-8.868c.203-.448.94-.447 1.14 0l4 8.868a.623.623 0 0 1-.945.756l-5.351-4.02-1.704 3.778a.625.625 0 0 1-.57.368Zm2.8-5.314 3.63 2.727L19 15.652l-1.2 2.66Z" style="fill:#fff"/><path d="M19 30.125c-6.134 0-11.125-4.99-11.125-11.125S12.865 7.875 19 7.875 30.125 12.865 30.125 19 25.135 30.125 19 30.125Zm0-21c-5.445 0-9.875 4.43-9.875 9.875s4.43 9.875 9.875 9.875 9.875-4.43 9.875-9.875S24.445 9.125 19 9.125Z" style="fill:#e00"/></svg>