<svg xmlns="http://www.w3.org/2000/svg" viewBox="0 0 38 38"><path d="M28 1H10a9 9 0 0 0-9 9v18a9 9 0 0 0 9 9h18a9 9 0 0 0 9-9V10a9 9 0 0 0-9-9Z"/><path d="M10.099 22.19a.625.625 0 0 1-.255-1.196l2.74-1.22a.625.625 0 1 1 .51 1.142l-2.741 1.22a.619.619 0 0 1-.254.054Zm-1.267 3.3a.625.625 0 0 1-.255-1.195l2.74-1.22a.625.625 0 1 1 .51 1.141l-2.741 1.22a.617.617 0 0 1-.254.055Zm17.596-10.57a.625.625 0 0 1-.254-1.196l2.741-1.22a.625.625 0 1 1 .508 1.141l-2.741 1.22a.616.616 0 0 1-.254.054Zm-1.267 3.3a.625.625 0 0 1-.254-1.196l2.74-1.22a.625.625 0 1 1 .508 1.142l-2.74 1.22a.616.616 0 0 1-.254.054Z" style="fill:#fff"/><path d="M18.952 28.634a9.593 9.593 0 0 1-6.123-2.217.625.625 0 0 1 .796-.964 8.38 8.38 0 0 0 13.713-6.105.61.61 0 0 1 .65-.598.625.625 0 0 1 .598.65 9.655 9.655 0 0 1-9.634 9.234Zm-8.977-9.408h-.03a.625.625 0 0 1-.595-.653 9.63 9.63 0 0 1 15.756-6.99.625.625 0 0 1-.798.964 8.378 8.378 0 0 0-13.71 6.082.625.625 0 0 1-.623.597Z" style="fill:#e00"/></svg>