<svg xmlns="http://www.w3.org/2000/svg" id="Layer_1" data-name="Layer 1" viewBox="0 0 100 100"><defs><style>.cls-3{fill:none;stroke:#fff;stroke-miterlimit:10}.cls-4{fill:#fff}.cls-5{fill:#ededed}</style></defs><circle cx="50" cy="50" r="50" style="fill:#e03400"/><path d="M85.36 14.64a50 50 0 0 1-70.72 70.72Z" style="fill:#ce2e00"/><circle cx="50" cy="50" r="27.55" class="cls-3"/><path d="M33.81 27.71a27.56 27.56 0 0 1 34.64 1.82" class="cls-3"/><path d="m64.66 31.49 7.63 2.32-1.81-7.77-5.82 5.45z" class="cls-4"/><path d="M27.71 66.19a27.56 27.56 0 0 1 1.82-34.64" class="cls-3"/><path d="m31.49 35.34 2.32-7.63-7.77 1.81 5.45 5.82z" class="cls-4"/><path d="M66.19 72.29a27.56 27.56 0 0 1-34.64-1.82" class="cls-3"/><path d="m35.34 68.51-7.63-2.32 1.81 7.77 5.82-5.45z" class="cls-4"/><path d="M72.29 33.81a27.56 27.56 0 0 1-1.82 34.64" class="cls-3"/><path d="m68.51 64.66-2.32 7.63 7.77-1.81-5.45-5.82zM44.86 27.93a7.28 7.28 0 1 1 10.31 0 7.16 7.16 0 0 1-10.31 0" class="cls-4"/><path d="m44.86 27.93 10.29-10.29a7.33 7.33 0 0 1 0 10.31 7.16 7.16 0 0 1-10.31 0" class="cls-5"/><path d="M44.86 82.66a7.28 7.28 0 1 1 10.31 0 7.17 7.17 0 0 1-10.31 0" class="cls-4"/><path d="m44.86 82.66 10.29-10.29a7.33 7.33 0 0 1 0 10.31 7.17 7.17 0 0 1-10.31 0" class="cls-5"/><path d="M17.31 55.11a7.27 7.27 0 1 1 10.3 0 7.16 7.16 0 0 1-10.3 0" class="cls-4"/><path d="m17.31 55.11 10.28-10.29a7.33 7.33 0 0 1 0 10.31 7.16 7.16 0 0 1-10.3 0" class="cls-5"/><path d="M72.41 55.11a7.27 7.27 0 1 1 10.3 0 7.16 7.16 0 0 1-10.3 0" class="cls-4"/><path d="m72.41 55.11 10.28-10.29a7.33 7.33 0 0 1 0 10.31 7.16 7.16 0 0 1-10.3 0" class="cls-5"/></svg>