<svg xmlns="http://www.w3.org/2000/svg" xml:space="preserve" x="0px" y="0px" viewBox="0 0 39.700001 39.7">
  <g transform="translate(-.9176319 .1048994) scale(.39457959)">
    <circle cx="55.069" cy="50" r="50" style="fill:#d71e00"/>
    <path d="M90.429 14.641c19.529 19.529 19.529 51.19 0 70.718-19.529 19.53-51.192 19.53-70.72 0z" style="fill:#c21a00"/>
    <path d="m46.789 49.99 15.049-31.85h12.83l-15.06 31.85 15.06 31.869h-12.83z" style="fill:#fff"/>
    <path d="m68.258 31.7 8.64 18.29-8.64 18.301 6.41 13.568 15.05-31.869-15.05-31.85z" style="fill:#b7b7b7"/>
    <path d="m20.419 49.99 15.05-31.85h12.83l-15.06 31.85 15.06 31.869h-12.83z" style="fill:#fff"/>
    <path d="m55.069 32.47-6.77-14.33-6.42 13.57 6.78 14.33zm-6.77 49.389 6.77-14.33-6.41-13.568-6.78 14.33z" style="fill:#b7b7b7"/>
  </g>
</svg>
