<svg xmlns="http://www.w3.org/2000/svg" xmlns:xlink="http://www.w3.org/1999/xlink" version="1.1" id="Layer_1" x="0px" y="0px" viewBox="0 0 38 38" style="enable-background:new 0 0 38 38;" xml:space="preserve">
<style type="text/css">
	.st0{fill:#EE0000;}
	.st1{fill:#FFFFFF;}
</style>
<g id="a">
	<path d="M28,1H10c-5,0-9,4-9,9v18c0,5,4,9,9,9h18c5,0,9-4,9-9V10C37,5,33,1,28,1L28,1z"/>
</g>
<g id="b">
	<path class="st0" d="M19,29.6c-0.1,0-0.2,0-0.3-0.1L8.8,24c-0.2-0.1-0.3-0.3-0.3-0.5s0.1-0.4,0.3-0.5l3.9-2.2   c0.3-0.2,0.7-0.1,0.9,0.2c0.2,0.3,0.1,0.7-0.2,0.9l-2.9,1.6l8.6,4.8l8.6-4.8l-2.9-1.6c-0.3-0.2-0.4-0.5-0.2-0.9   c0.2-0.3,0.5-0.4,0.8-0.2l3.9,2.2c0.2,0.1,0.3,0.3,0.3,0.5s-0.1,0.4-0.3,0.5l-9.9,5.5C19.2,29.6,19.1,29.6,19,29.6z"/>
	<path class="st0" d="M29.4,14.2c-0.2-0.3-0.5-0.4-0.8-0.2L19,19.3l-3.5-2l5.8-3.2c0.3-0.2,0.4-0.5,0.2-0.9S21,12.8,20.7,13   l-6.5,3.6l-3.8-2.1l8.9-5c0.3-0.2,0.4-0.5,0.2-0.9c-0.2-0.3-0.5-0.4-0.8-0.2L8.8,14c-0.2,0.1-0.3,0.3-0.3,0.5s0.1,0.4,0.3,0.5   l9.9,5.5c0.1,0.1,0.2,0.1,0.3,0.1s0.2,0,0.3-0.1l9.9-5.5C29.5,14.9,29.6,14.5,29.4,14.2z"/>
	<path class="st1" d="M19,25.2c-0.1,0-0.2,0-0.3-0.1l-10-5.6c-0.3-0.2-0.4-0.5-0.2-0.9c0.2-0.3,0.5-0.4,0.9-0.2l9.7,5.4l9.7-5.4   c0.3-0.2,0.7-0.1,0.8,0.2s0.1,0.7-0.2,0.9l-10,5.6C19.2,25.2,19.1,25.2,19,25.2z"/>
</g>
</svg>