<svg xmlns="http://www.w3.org/2000/svg" id="uuid-97a69db4-d48e-4ce3-9fee-d5debb8b2e19" viewBox="0 0 38 38"><defs><style>.uuid-dc06260d-ef41-46f0-bb63-7ec0924f919f{fill:#e00}.uuid-568c445c-2f74-4c9a-ba71-88d9fabdd4d5{fill:#fff}</style></defs><path d="M28 1H10a9 9 0 0 0-9 9v18a9 9 0 0 0 9 9h18a9 9 0 0 0 9-9V10a9 9 0 0 0-9-9Z"/><path d="M17.25 16.92a.624.624 0 1 0-.5 1.145c.31.135.603.306.874.51a.624.624 0 0 0 .752-.998 5.575 5.575 0 0 0-1.127-.658Zm8.297-6.441.861-.86a.626.626 0 0 0-.885-.885l-2 2a.626.626 0 0 0 0 .884l2 2a.624.624 0 0 0 .885 0 .626.626 0 0 0 0-.884l-.991-.99c2.214.213 3.958 2.062 3.958 4.332A4.38 4.38 0 0 1 25 20.451a4.33 4.33 0 0 1-2.624-.874.626.626 0 0 0-.752.999A5.575 5.575 0 0 0 25 21.7a5.631 5.631 0 0 0 5.625-5.625 5.632 5.632 0 0 0-5.078-5.597Z" class="uuid-568c445c-2f74-4c9a-ba71-88d9fabdd4d5"/><path d="M22.5 11.7a.625.625 0 0 0-.875-.124 5.582 5.582 0 0 0-2.25 4.5v6A4.38 4.38 0 0 1 15 26.451a4.347 4.347 0 0 1-2.55-.826H14a.625.625 0 1 0 0-1.25h-3a.625.625 0 0 0-.625.625v3a.625.625 0 1 0 1.25 0v-1.43A5.589 5.589 0 0 0 15 27.7a5.631 5.631 0 0 0 5.625-5.625v-6a4.34 4.34 0 0 1 1.75-3.5.625.625 0 0 0 .125-.876Z" class="uuid-dc06260d-ef41-46f0-bb63-7ec0924f919f"/><path d="M11.5 23.074a4.13 4.13 0 0 1-4.125-4.125v-4.03c0-.294.206-.549.495-.61l3.5-.745a.612.612 0 0 1 .26 0l3.5.745a.625.625 0 0 1 .495.61v4.03a4.13 4.13 0 0 1-4.125 4.125Zm-2.875-7.648v3.523c0 1.585 1.29 2.875 2.875 2.875s2.875-1.29 2.875-2.875v-3.523l-2.875-.611-2.875.61Z" class="uuid-dc06260d-ef41-46f0-bb63-7ec0924f919f"/><path d="M11 19.8a.622.622 0 0 1-.442-.182l-1-1a.625.625 0 1 1 .884-.884l.558.558 1.558-1.558a.625.625 0 1 1 .884.884l-2 2A.622.622 0 0 1 11 19.8Z" class="uuid-568c445c-2f74-4c9a-ba71-88d9fabdd4d5"/></svg>