<svg xmlns="http://www.w3.org/2000/svg" xmlns:xlink="http://www.w3.org/1999/xlink" viewBox="0 0 151 102" fill="#fff" fill-rule="evenodd" stroke="#000" stroke-linecap="round" stroke-linejoin="round"><style><![CDATA[.B{stroke:none}.C{font-family:Roboto Condensed}.D{fill:#000}.E{fill:#cf142b}]]></style><use xlink:href="#A" x=".5" y=".5"/><defs><style>@import url("https://fonts.googleapis.com/css?family=Roboto:400,400i,700,700i"); @import url("https://fonts.googleapis.com/css?family=Roboto+Condensed:400,400i,700,700i"); </style></defs><symbol id="A" overflow="visible"><g class="B"><path fill="#00008b" d="M0 0h150v100H0z"/><path d="M16.5 16.5H0v17h16.5L0 44.5V50h8.625l22.5-15v15h12.75V35L66.75 50H75v-5.5l-16.5-11H75v-17H58.5L75 5.5V0h-8.625l-22.5 15V0h-12.75v15L8.25 0H0v5.5z"/><path d="M0 0v3.5l19.5 13h5.25z" class="E"/></g><path d="M75 50v-3.5l-19.5-13h-5.25z" class="B E"/><path d="M0 50l24.75-16.5h5.625L5.625 50z" class="B E"/><path d="M75 0L50.25 16.5h-5.625L69.375 0z" class="B E"/><g class="B"><path d="M0 20v10h33.75v20h7.5V30H75V20H41.25V0h-7.5v20z" class="E"/><path d="M40.281 68.984L37.39 60 34.5 68.984l-8.828-3.32 5.234 7.852-8.125 4.805 9.414.82-1.328 9.375 6.523-6.836 6.523 6.836-1.328-9.336L52 78.32l-8.125-4.805 5.234-7.852-8.828 3.32z"/></g><path d="M113.923 13.716l-1.376-4.271-1.376 4.271-4.202-1.578 2.491 3.732-3.867 2.284 4.481.39-.632 4.456 3.105-3.249L115.652 23l-.632-4.438 4.481-.409-3.867-2.284 2.491-3.732-4.202 1.578z" class="B"/><path d="M130.423 34.216l-1.376-4.271-1.376 4.271-4.202-1.578 2.491 3.732-3.867 2.284 4.481.39-.632 4.456 3.105-3.249 3.105 3.249-.632-4.438 4.48-.409-3.867-2.284 2.491-3.732-4.202 1.578z" class="B"/><path d="M95.173 40.966l-1.376-4.271-1.376 4.271-4.202-1.578 2.491 3.732-3.867 2.284 4.481.39-.632 4.456L93.797 47l3.105 3.249-.632-4.438 4.481-.409-3.867-2.284 2.491-3.732-4.202 1.578z" class="B"/><path d="M113.829 80.466l-1.376-4.271-1.376 4.271-4.202-1.578 2.491 3.732-3.867 2.284 4.481.39-.632 4.456 3.105-3.249 3.105 3.249-.632-4.438 4.481-.409-3.867-2.284 2.491-3.732-4.202 1.578z" class="B"/><path d="M116.109 52.852l2.188 1.836-.703 2.813 2.461-1.523 2.461 1.523-.703-2.812L124 52.852l-2.852-.234-1.094-2.656-1.094 2.656z" class="B"/></symbol></svg>