<svg xmlns="http://www.w3.org/2000/svg" xmlns:xlink="http://www.w3.org/1999/xlink" viewBox="0 0 151 101" fill="#fff" fill-rule="evenodd" stroke="#000" stroke-linecap="round" stroke-linejoin="round"><use xlink:href="#A" x=".5" y=".5"/><defs><style>@import url("https://fonts.googleapis.com/css?family=Roboto:400,400i,700,700i");</style></defs><symbol id="A" overflow="visible"><g stroke="none"><path d="M0 0h150v100H0z" fill="#00267f"/><path d="M50 0h50v100H50z" fill="#ffc726"/><path d="M75 25.775c-1.625 4.431-3.281 9.044-6.825 12.575 1.1-.363 3.025-.687 4.263-.656v18.638l-5.263.781c-.187-.019-.25-.312-.25-.712-.506-5.788-1.875-10.65-3.45-15.681-.112-.687-2.106-3.312-.569-2.85.188.025 2.244.862 1.919.462-2.8-2.9-6.894-4.987-10.869-5.606-.35-.087-.556.087-.244.494 5.275 8.119 9.688 17.7 9.65 29.069 2.05 0 7.019-1.212 9.075-1.212v13.15h2.531 2.594v-13.15c2.056 0 7.025 1.212 9.075 1.212-.038-11.369 4.375-20.95 9.65-29.069.313-.406.106-.581-.244-.494-3.975.619-8.069 2.706-10.869 5.606-.325.4 1.731-.437 1.919-.462 1.537-.462-.456 2.163-.569 2.85-1.575 5.031-2.944 9.894-3.45 15.681 0 .4-.062.694-.25.712l-5.263-.781V37.694c1.237-.031 3.162.294 4.263.656-3.544-3.531-5.2-8.144-6.825-12.575z" fill="#000"/></g></symbol></svg>