<svg xmlns="http://www.w3.org/2000/svg" xmlns:xlink="http://www.w3.org/1999/xlink" viewBox="0 0 151 101" fill="#fff" fill-rule="evenodd" stroke="#000" stroke-linecap="round" stroke-linejoin="round"><use xlink:href="#A" x=".5" y=".5"/><defs><style>@import url("https://fonts.googleapis.com/css?family=Roboto:400,400i,700,700i");</style></defs><symbol id="A" overflow="visible"><g stroke="none"><path d="M0 .002h150V100H0z" fill="#002395"/><path d="M39.75.002h75V100z" fill="#fecb00"/><path d="M33.402 8.379H26.5l5.584 4.057L29.951 19l5.584-4.057L41.119 19l-2.133-6.564 5.584-4.057h-6.902l-2.133-6.564zm9.5 12.5H36l5.584 4.057-2.133 6.564 5.584-4.057 5.584 4.057-2.133-6.564 5.584-4.057h-6.902l-2.133-6.564zm9.25 12.5H45.25l5.584 4.057L48.701 44l5.584-4.057L59.869 44l-2.133-6.564 5.584-4.057h-6.902l-2.133-6.564zm9.5 12.5H54.75l5.584 4.057-2.133 6.564 5.584-4.057 5.584 4.057-2.133-6.564 5.584-4.057h-6.902l-2.133-6.564zm9.25 12.5H64l5.584 4.057L67.451 69l5.584-4.057L78.619 69l-2.133-6.564 5.584-4.057h-6.902l-2.133-6.564zm9.5 12.5H73.5l5.584 4.057-2.133 6.564 5.584-4.057 5.584 4.057-2.133-6.564 5.584-4.057h-6.902l-2.133-6.564zm9.25 12.5H82.75l5.584 4.057L86.201 94l5.584-4.057L97.369 94l-2.133-6.564 5.584-4.057h-6.902l-2.133-6.564zM104.757 100h-6.944l.021-.064-5.584-4.057h6.902l2.133-6.564 2.133 6.564h6.902l-5.584 4.057zm-75-100h-6.944l-2.112 6.5 5.584-4.057L31.869 6.5z"/></g></symbol></svg>