<svg xmlns="http://www.w3.org/2000/svg" xmlns:xlink="http://www.w3.org/1999/xlink" viewBox="0 0 151 102" fill="#fff" fill-rule="evenodd" stroke="#000" stroke-linecap="round" stroke-linejoin="round"><style><![CDATA[.B{stroke:none}.C{font-family:Roboto Condensed}.D{fill:#000}.E{fill:#1eb53a}.F{fill:#ce1126}]]></style><use xlink:href="#A" x=".5" y=".5"/><defs><style>@import url("https://fonts.googleapis.com/css?family=Roboto:400,400i,700,700i"); @import url("https://fonts.googleapis.com/css?family=Roboto+Condensed:400,400i,700,700i"); </style></defs><symbol id="A" overflow="visible"><g class="B"><path d="M93.087 67.858L147.5 100h2.5V88.025l-50.688-30.43c.772-2.441 1.188-5.043 1.188-7.745a25.65 25.65 0 0 0-1.11-7.493L150 11.975V0h-2.5L93.273 32.031A25.42 25.42 0 0 0 75 24.35a25.42 25.42 0 0 0-18.273 7.681L2.5 0H0v11.975l50.61 30.382a25.65 25.65 0 0 0-1.11 7.493c0 2.703.416 5.305 1.188 7.745L0 88.025V100h2.5l54.413-32.142C61.525 72.49 67.916 75.35 75 75.35s13.475-2.86 18.087-7.492z"/><path d="M82.967 56.6l-1.732 3h3.464l1.732 3 1.732-3h3.464l-1.732-3 1.732-3h-3.464l-1.732-3-1.732 3h-3.464z" class="E"/></g><path d="M85.012 59.06h-2.841l1.42-2.46-1.42-2.46h2.841l1.42-2.46 1.42 2.46h2.841l-1.42 2.46 1.42 2.46h-2.84l-1.42 2.46z" class="B F"/><path d="M73.268 39.8l1.732 3 1.732-3h3.464l-1.732-3 1.732-3h-3.464L75 30.8l-1.732 3h-3.464l1.732 3-1.732 3z" class="B E"/><path d="M79.261 39.26l-1.42-2.46 1.42-2.46H76.42L75 31.88l-1.42 2.46h-2.841l1.42 2.46-1.42 2.46h2.841L75 41.72l1.42-2.46z" class="B F"/><path d="M61.836 53.6h-3.464l1.732 3-1.732 3h3.464l1.732 3 1.732-3h3.464l-1.732-3 1.732-3H65.3l-1.732-3z" class="B E"/><path d="M62.149 54.14h-2.841l1.42 2.46-1.42 2.46h2.841l1.42 2.46 1.42-2.46h2.841l-1.42-2.46 1.42-2.46h-2.841l-1.42-2.46-1.108 1.92z" class="B F"/><path d="M2.5 0h145L93.273 32.031A25.42 25.42 0 0 0 75 24.35a25.42 25.42 0 0 0-18.273 7.681z" class="B F"/><path d="M147.5 100H2.5l54.413-32.142C61.525 72.491 67.916 75.35 75 75.35s13.475-2.86 18.087-7.492z" class="B F"/><path d="M0 88.025v-76.05l50.61 30.382a25.65 25.65 0 0 0-1.11 7.493c0 2.703.416 5.305 1.188 7.745z" class="B E"/><path d="M150 88.025v-76.05l-50.61 30.382a25.65 25.65 0 0 1 1.11 7.493c0 2.703-.416 5.305-1.188 7.745z" class="B E"/></symbol></svg>