<svg xmlns="http://www.w3.org/2000/svg" xmlns:xlink="http://www.w3.org/1999/xlink" viewBox="0 0 151 102" fill="#fff" fill-rule="evenodd" stroke="#000" stroke-linecap="round" stroke-linejoin="round"><style><![CDATA[.B{stroke:none}.C{fill:#f7d116}.D{font-family:Roboto Condensed}.E{fill:#000}]]></style><use xlink:href="#A" x=".5" y=".5"/><defs><style>@import url("https://fonts.googleapis.com/css?family=Roboto:400,400i,700,700i"); @import url("https://fonts.googleapis.com/css?family=Roboto+Condensed:400,400i,700,700i"); </style></defs><symbol id="A" overflow="visible"><g class="B"><path d="M0 0h150v100H0z" fill="#003893"/><path d="M0 50h150v25H0z"/><path d="M0 58.333h150v8.333H0z" fill="#cf2027"/><path d="M55.096 85.955h-3.633l2.939 2.135-1.123 3.455 2.939-2.135 2.939 2.135-1.123-3.455 2.939-2.135h-3.633L56.218 82.5z" class="C"/></g><path d="M69.791 81.181h-3.633l2.939 2.135-1.123 3.455 2.939-2.135 2.939 2.135-1.122-3.455 2.939-2.135h-3.633l-1.123-3.455z" class="B C"/><path d="M40.401 81.181h-3.633l2.939 2.135-1.122 3.455 2.939-2.135 2.939 2.135-1.123-3.455 2.939-2.135h-3.633l-1.123-3.455z" class="B C"/><path d="M32.441 72.136l2.939 2.135-1.123-3.455 2.939-2.135h-3.633l-1.123-3.455-1.122 3.455h-3.633l2.939 2.135-1.123 3.455z" class="B C"/><path d="M78.178 70.816l-1.123 3.455 2.939-2.135 2.939 2.135-1.123-3.455 2.939-2.135h-3.633l-1.122-3.455-1.123 3.455h-3.633z" class="B C"/><path d="M55.096 35.955h-3.633l2.939 2.135-1.123 3.455 2.939-2.135 2.939 2.135-1.123-3.455 2.939-2.135h-3.633L56.218 32.5z" class="B C"/><path d="M79.994 56.685l2.939 2.135-1.123-3.455 2.939-2.135h-3.633l-1.122-3.455-1.123 3.455h-3.633l2.939 2.135-1.123 3.455z" class="B C"/><path d="M42.646 40.73l-1.123-3.455-1.123 3.455h-3.633l2.939 2.135-1.122 3.455 2.939-2.135 2.939 2.135-1.123-3.455 2.939-2.135z" class="B C"/><path d="M69.791 40.73h-3.633l2.939 2.135-1.123 3.455 2.939-2.135 2.939 2.135-1.122-3.455 2.939-2.135h-3.633l-1.122-3.455z" class="B C"/><path d="M31.319 53.23h-3.633l2.939 2.135-1.123 3.455 2.939-2.135 2.939 2.135-1.123-3.455 2.939-2.135h-3.633l-1.123-3.455z" class="B C"/></symbol></svg>