<svg xmlns="http://www.w3.org/2000/svg" xmlns:xlink="http://www.w3.org/1999/xlink" viewBox="0 0 151 101" fill="#fff" fill-rule="evenodd" stroke="#000" stroke-linecap="round" stroke-linejoin="round"><use xlink:href="#A" x=".5" y=".5"/><defs><style>@import url("https://fonts.googleapis.com/css?family=Roboto:400,400i,700,700i");</style></defs><symbol id="A" overflow="visible"><g stroke="none"><path d="M0 0h150v100H0z" fill="red"/><path d="M37.5 0h75v100h-75z"/><path d="M74.999 19.531l-5.117 9.544c-.581 1.037-1.621.941-2.661.362l-3.705-1.918 2.761 14.659c.581 2.678-1.282 2.678-2.202 1.52L57.61 36.46l-1.05 3.675c-.121.483-.653.99-1.452.869l-8.175-1.719 2.147 7.807c.46 1.737.818 2.456-.464 2.914l-2.914 1.37 14.073 11.431c.557.432.838 1.21.64 1.914l-1.232 4.042c4.846-.559 9.187-1.399 14.035-1.916.428-.046 1.144.661 1.142 1.157l-.642 14.809h2.356l-.371-14.777c-.003-.496.647-1.234 1.075-1.188 4.848.518 9.19 1.358 14.035 1.916l-1.232-4.042c-.198-.704.083-1.482.64-1.914l14.073-11.431-2.914-1.37c-1.282-.458-.924-1.177-.464-2.914l2.147-7.807-8.175 1.719c-.798.121-1.331-.386-1.452-.869l-1.05-3.675-6.465 7.238c-.919 1.158-2.782 1.158-2.202-1.52l2.761-14.659-3.704 1.918c-1.04.579-2.081.676-2.661-.362" fill="red"/></g></symbol></svg>