<svg xmlns="http://www.w3.org/2000/svg" xmlns:xlink="http://www.w3.org/1999/xlink" viewBox="0 0 151 101" fill="#fff" fill-rule="evenodd" stroke="#000" stroke-linecap="round" stroke-linejoin="round"><style><![CDATA[.B{stroke:none}.C{font-family:Roboto Condensed}]]></style><use xlink:href="#B" x=".5" y=".5"/><defs><style>@import url("https://fonts.googleapis.com/css?family=Roboto:400,400i,700,700i"); @import url("https://fonts.googleapis.com/css?family=Roboto+Condensed:400,400i,700,700i"); </style><path id="A" d="M30.1 32.613l.941-2.88.938 2.88H35l-2.444 1.77.938 2.879-2.457-1.779-2.457 1.779.94-2.878-2.446-1.772z"/></defs><symbol id="B" overflow="visible"><g class="B"><path d="M0 75h150v25H0z" fill="#3a75c4"/><path d="M0 50h150v25H0z" fill="#ce1126"/><path d="M0 0h150v50H0z"/><path d="M0 0h150v25H0z" fill="#ffc61e"/><path d="M0 100l75-50L0 0v100z" fill="#3d8e33"/><path d="M31.037 71.947c-1.607.362-3.28.553-5 .553-12.465 0-22.5-10.035-22.5-22.5s10.035-22.5 22.5-22.5c1.72 0 3.393.191 5 .553A22.45 22.45 0 0 0 13.537 50a22.45 22.45 0 0 0 17.5 21.947z"/></g><use xlink:href="#A" class="B"/><use xlink:href="#A" y="10.736" class="B"/><use xlink:href="#A" y="21.472" class="B"/><path d="M29.521 66.594l-.94 2.878 2.457-1.779 2.457 1.779-.938-2.879L35 64.822h-3.021l-.938-2.88-.941 2.88h-3.025z" class="B"/></symbol></svg>