<svg xmlns="http://www.w3.org/2000/svg" xmlns:xlink="http://www.w3.org/1999/xlink" viewBox="0 0 151 101" fill="#fff" fill-rule="evenodd" stroke="#000" stroke-linecap="round" stroke-linejoin="round"><use xlink:href="#A" x=".5" y=".5"/><symbol id="A" overflow="visible"><g stroke="none"><path d="M0 0h150v100H0z"/><g fill="#435125"><path d="M72.467 83.042a.17.17 0 0 1-.058-.041l-.021-.02c-.054-.049-.144-.137-.264-.274l-.782-.948-1.029-1.31-.132-.172-1.294-.399-.945-.441.505-.568 1.735.743 1.295.266 2.394 1.761-.002.002-.689.6-.479.464a1.84 1.84 0 0 0-.155.19c-.023.033-.036.064-.042.078l.149-.092.161.125-.328.031-.015.003zm-8.89-2.67c-1.13 0-2.245-.312-3.316-.928l-.001-.001.001-.001s.14-.267.48-.516c.323-.237.907-.521 1.85-.525h.019c1.117 0 2.484.38 4.062 1.128-.053.035-1.293.842-3.094.842l.002.002zm-4.895-1.085c-.209 0-.396-.079-.528-.222-.108-.118-.186-.274-.237-.48-.084-.336-.061-.671-.058-.703.088-.037.177-.057.26-.059h.019c.418 0 .748.363.89.723.08.205.096.377.046.511s-.207.228-.39.228zm8.613-.998c-2.893-.413-4.12-1.459-4.639-2.264-.554-.858-.44-1.652-.439-1.66v-.002h.002c.001 0 .177-.048.443-.049.77 0 2.738.387 4.633 3.974l.001.002-.003-.002zm-5.93-.573c-1.236 0-2.177-.213-2.797-.634-.356-.242-.531-.507-.614-.688-.078-.169-.096-.309-.099-.337.033-.015.539-.24 1.294-.275l.196-.005c.955 0 2.408.312 3.941 1.797l.002.002h-.002c-.7.092-1.347.14-1.922.14zm-5.985-.23c-1.303 0-3.094-.398-4.211-1.514l-.001-.001h.003a13.08 13.08 0 0 1 2.587-.344l.246-.003c1.222 0 2.157.237 2.78.704.218.163.336.315.363.464.022.124-.043.258-.176.358-.281.212-.782.325-1.491.336l-.1.003zm-4.223-2.167c-.161 0-.311-.071-.413-.194a.98.98 0 0 1-.185-.42c-.07-.308-.049-.609-.049-.612v-.003a.5.5 0 0 1 .203-.046h0c.193 0 .34.105.432.193a1.16 1.16 0 0 1 .281.441c.061.172.071.315.03.439a.32.32 0 0 1-.3.202zm9.755-.22c-.209 0-.397-.079-.528-.222-.108-.118-.186-.274-.237-.48-.084-.336-.061-.671-.058-.703.088-.037.177-.057.26-.059h.019c.418 0 .748.363.89.723.08.205.096.377.046.511s-.208.228-.39.228zm-4.752-.197c-2.623-.092-3.984-.838-4.664-1.447-.383-.343-.596-.683-.707-.908-.105-.212-.144-.375-.151-.406l.003-.002c.001 0 .248-.089.648-.096l.061-.001c.885 0 2.685.372 4.809 2.859v.002zm2.848-.265c-2.11-.321-3.306-1.227-3.937-1.931-.662-.738-.86-1.424-.869-1.456.004-.001.262-.068.65-.078l.087-.001.092.001c1.061.023 2.989.504 3.976 3.464h.002zm-10.833-1.013a8.23 8.23 0 0 1-1.994-.238c-1.105-.276-1.579-.698-1.782-1.004-.115-.173-.157-.325-.172-.422a.71.71 0 0 1-.005-.179l.005-.002c.003-.001.733-.206 1.744-.221l.121-.001c.488 0 .968.047 1.427.138 1.756.351 2.667 1.677 2.675 1.69l.001.001h-.002c-.01.002-.847.237-2.02.237zm4.898-1.78c-.211 0-.399-.077-.529-.217-.107-.115-.184-.274-.237-.485a2.4 2.4 0 0 1-.058-.697c.088-.037.177-.057.26-.059h.019c.418 0 .748.363.89.723.078.198.092.368.04.506s-.203.23-.385.23zm-3.683-.505c-.016-.004-.996-.256-1.995-.871-.924-.569-2.054-1.575-2.192-3.138v-.001h.002c0 0 .086-.021.213-.026l.056-.001c.276 0 .841.078 1.524.597.87.663 1.673 1.82 2.392 3.442zm2.405-.088c-.006-.002-.705-.282-1.578-1.014-.814-.682-1.958-1.91-2.786-3.888.001 0 .19-.101.481-.12l.051-.001.077.001c.402.011 1.014.178 1.692.911.779.841 1.475 2.223 2.067 4.108l.002.005-.005-.002zm-6.232-.182c-.803 0-1.078-.436-1.159-.623-.133-.308-.093-.615-.092-.618v-.003a1.77 1.77 0 0 1 .4-.052h.028c.633 0 1.133.321 1.347.64.043.063.173.282.065.454-.087.135-.283.203-.588.203zm-1.78-2.245a10.66 10.66 0 0 1-1.857-.159c-.716-.13-1.121-.739-1.335-1.226-.233-.531-.299-1.037-.3-1.042h.002c2.214.065 3.259.712 3.746 1.243.503.548.533 1.118.534 1.154h-.001c-.003 0-.315.03-.79.03zm2.305-2.303a8.91 8.91 0 0 1-.505-.705c-.262-.408-.505-.833-.505-1.181 0-.336-.079-1.044-.126-1.436l-.125-.959.002.001c.056.021 1.385.519 1.385 1.765l-.124 2.515v.002h-.002zm-1.722-.118c-.014 0-.028-.001-.042-.004-.393-.066-1.083-.366-1.845-.803-.847-.486-1.535-1.006-1.937-1.465-.366-.419-.584-1.076-.647-1.954a7.26 7.26 0 0 1 .015-1.194.69.69 0 0 1 .219-.034c.294.005.608.137 1.031.429a8.28 8.28 0 0 1 1.082.919 16.56 16.56 0 0 1 1.2 1.328l.005.007.718 1.426c.187.422.294.726.337.958.024.132.032.218-.001.297a.15.15 0 0 1-.064.075.18.18 0 0 1-.073.015z"/><path d="M67.896 83.042a.17.17 0 0 0 .058-.041l.021-.02c.054-.049.144-.137.264-.274l.782-.948 1.029-1.31.132-.172 1.295-.399.945-.441-.505-.568-1.735.743-1.294.266-2.394 1.761.002.002.689.6.479.464c.063.068.118.135.155.19.023.033.036.064.042.078l-.149-.092-.161.125.328.031.015.003zm8.89-2.67c1.13 0 2.245-.312 3.316-.928l.001-.001v-.001s-.14-.267-.48-.516c-.323-.237-.907-.521-1.85-.525h-.019c-1.117 0-2.484.38-4.062 1.128.053.035 1.293.842 3.094.842l-.002.002zm4.895-1.085c.209 0 .397-.079.528-.222.108-.118.186-.274.237-.48.084-.336.061-.671.059-.703-.088-.037-.177-.057-.26-.059h-.019c-.418 0-.748.363-.89.723-.08.205-.096.377-.046.511s.207.228.39.228zm-8.613-.998c2.893-.413 4.119-1.459 4.639-2.264.554-.858.44-1.652.439-1.66l-.001-.002h-.002c-.001 0-.177-.048-.443-.049-.77 0-2.738.387-4.633 3.974l-.001.002.003-.002zm5.93-.573c1.236 0 2.177-.213 2.797-.634.356-.242.531-.507.614-.688.078-.169.096-.309.099-.337a3.78 3.78 0 0 0-1.294-.275l-.196-.005c-.955 0-2.408.312-3.941 1.797l-.002.002h.002c.7.092 1.347.14 1.922.14zm5.985-.23c1.303 0 3.094-.398 4.21-1.514l.001-.001h-.003c-.012-.003-1.224-.311-2.587-.344l-.246-.003c-1.222 0-2.157.237-2.78.704-.217.163-.336.315-.363.464-.022.124.043.258.176.358.28.212.782.325 1.491.336l.1.003zm4.223-2.167c.161 0 .311-.071.413-.194.084-.102.143-.236.185-.42.07-.308.049-.609.049-.612v-.003a.5.5 0 0 0-.203-.046h0a.63.63 0 0 0-.432.193 1.16 1.16 0 0 0-.281.441c-.061.172-.071.315-.03.439a.32.32 0 0 0 .3.202zm-9.755-.22c.209 0 .397-.079.528-.222.108-.118.186-.274.237-.48.084-.336.061-.671.059-.703-.088-.037-.177-.057-.26-.059h-.019c-.418 0-.748.363-.89.723-.08.205-.096.377-.046.511s.208.228.39.228zm4.752-.197c2.623-.092 3.984-.838 4.664-1.447.383-.343.596-.683.707-.908.105-.212.144-.375.151-.406l-.004-.002c0 0-.248-.089-.647-.096l-.061-.001c-.884 0-2.685.372-4.809 2.859v.002zm-2.848-.265c2.11-.321 3.306-1.227 3.937-1.931.662-.738.86-1.424.869-1.456-.004-.001-.262-.068-.65-.078l-.087-.001-.092.001c-1.061.023-2.989.504-3.976 3.464h-.002zm10.833-1.013a8.23 8.23 0 0 0 1.994-.238c1.105-.276 1.579-.698 1.782-1.004.115-.173.157-.325.172-.422a.71.71 0 0 0 .005-.179l-.005-.002c-.003-.001-.733-.206-1.744-.221l-.121-.001a7.3 7.3 0 0 0-1.427.138c-1.756.351-2.667 1.677-2.675 1.69l-.001.001h.002c.01.002.847.237 2.02.237zm-4.898-1.78c.212 0 .399-.077.529-.217.106-.115.184-.274.237-.485a2.4 2.4 0 0 0 .059-.697c-.088-.037-.177-.057-.26-.059h-.019c-.418 0-.748.363-.89.723-.078.198-.092.368-.04.506s.203.23.385.23zm3.683-.505c.016-.004.996-.256 1.995-.871.924-.569 2.054-1.575 2.192-3.138v-.001h-.002c0 0-.086-.021-.213-.026l-.056-.001c-.276 0-.841.078-1.524.597-.87.663-1.673 1.82-2.392 3.442zm-2.405-.088c.006-.002.705-.282 1.578-1.014.814-.682 1.958-1.91 2.786-3.888 0 0-.19-.101-.481-.12l-.051-.001-.077.001c-.402.011-1.014.178-1.692.911-.779.841-1.475 2.223-2.067 4.108l-.002.005.005-.002zm6.232-.182c.803 0 1.078-.436 1.159-.623.133-.308.093-.615.092-.618v-.003a1.77 1.77 0 0 0-.4-.052h-.028c-.633 0-1.133.321-1.347.64-.043.063-.173.282-.065.454.087.135.283.203.588.203zm1.78-2.245c.449 0 1.135-.028 1.857-.159.716-.13 1.121-.739 1.336-1.226a4.25 4.25 0 0 0 .3-1.042h-.002c-2.214.065-3.259.712-3.746 1.243-.503.548-.533 1.118-.534 1.154h.002c.003 0 .315.03.79.03zm-2.305-2.303c.003-.004.256-.316.505-.705.262-.408.505-.833.505-1.181 0-.336.079-1.044.126-1.436l.125-.959-.002.001c-.056.021-1.385.519-1.385 1.765s.123 2.502.124 2.515v.002h.002zm1.722-.118c.014 0 .028-.001.042-.004.393-.066 1.083-.366 1.845-.803.847-.486 1.535-1.006 1.937-1.465.366-.419.584-1.076.647-1.954.044-.623-.009-1.142-.015-1.194a.69.69 0 0 0-.219-.034c-.294.005-.608.137-1.031.429-.33.227-.694.537-1.082.919-.669.659-1.195 1.322-1.2 1.328l-.005.007-.718 1.426c-.187.422-.295.726-.337.958-.025.132-.032.218.001.297a.15.15 0 0 0 .064.075c.023.01.047.015.073.015z"/></g><path d="M116.471 15.913l-.392.156-.154.061-.476-.026-.445.214-.79.54-.035.025-.294.077-.273-.118-.155.071-.054.32-.148.23-.182.128-.63.065-.532.274-.692-.185-.321.126-.683.615-.349.165-.122-.007-.463-.024-.196.064-.292.282-.552.043-.172.119-.27.543-.292.301-.167.035-.181-.066-.136.024-.062.348-.132.146-.37.127-.296.246-.259.133-.347-.009h-.08l-.346.191-.651.057-.271.258-.06.055-.126.076-.207.123-.051.031-.249-.045-.292.116-.118-.181-.202.121-.267.012-.333-.148-.254-.113-.185.027-.064.323-.007.034-.195.259-.364.22-.049.064-.414.535-.787.828-.665.338-.69.21-.483.397-1.266.628-1.999.995-.409.131-.587.094-1.046.385-.923.278-.051.016-.183.055-1.302.394-.606-.064-.359.13-.934-.104-.65.013-.411.086-.773.371-1.305.627-.431.394-.671.35-.786.249.002-.33-.005-.014-.273.086-.197.062-.637.098h-.355l-.22-.064-.034.011-1.303.429-1.453.14-.727.233-.543-.009-.34.101-.666.081-.238-.063-.054-.015-1.958.085-.895-.101-.427.097-.716-.241-1.045-.121-.244-.073-.549-.163-.249.143-.186.02-.445-.161-.16-.004-.367.133-.211-.054-.196-.156-.46-.068-.28-.236-1.567.208-.425-.125-1.426-.415-.227.011-.283.212-.425.155-.369.096-.502.017-.583-.153-.601-.291-.222-.053-.496.05-.152.014-.911-.489-1.174-.734-.796-.383-.299-.048-.04.142.148.467.051.462-.015.427-.008.264.074.238.288.319.12.32.088.881-.001.894-.14 1.425-.047.217-.167.738-.152.678-.591 1.805-.162.224-.399.272-.903.615-.665.384-.211.087-.54.041-.336-.017-.419-.227-.411-.106-.539-.387-.599-.124-.657-.38-.171-.205-.358-.034-.496-.149v-.001l-.182-.055-.126-.037h0l-.633-.017-.59-.272-.311-.075-.425-.021-.444.207v-.001l-.225.105-.285-.113-.206.013-.233.353-.035.055-.161.085-.2-.003-.157-.004-.169.074-.228.099h0l-.201.088-.098.042-.002-.002-.061.012-.107.019-.133.025-.235-.137-.125-.074-.21-.043-.113.082-.022.384-.103.23-.327.289-.332.293-.232.341-.613 1.398-.384.564-.119.132-.401.443-.356.276-.82.636-.776.29-.669.137-.325.001-.616-.082-.554-.17-.608-.38-.667-.536-.966-.954-.137-.082-.028-.019-.304-.194-.226.006-.088.146-.048.211-.041.187-.111 1.061.008.061.058.437.734 1.025.226.545.037.062.151.254.115.194.011.02.251.748-.176.422.089.283-.223.173-.041.244.658.825.144.364-.161.505-.256.278-.071.076.036.213.303.273.515.458.274.681.209.183.243-.052.135.103.205-.003.201.201.13.063.206.103.163.212.036.652.304.81.005.439.002.062.189.325.059.256-.101.678.241.218.261-.053.169.027.271.226.328.5.321-.047.204.098.984.889.223.113.012.007.16.08.2.201.309-.205.034-.004.336-.03.148.099.284.192.372-.005.807.248.353.09.71.441.302.187.179.145.237.193.474.204.407.097.22.052.166.064.004-.01.002.001-.004.01.881.337.477.111.441.163.321.117.236.004.333-.28.323-.019.268.067.262-.044.414-.255.081-.12.294-.14.991-.123.29.094.743-.323.498.139.441-.156.963.214.256.18.286.327.035.002.319.006-.133.222.42.441.38.574.026.076.276.811.205.287.144.401.007.261-.223.17-.037.097-.013.036.045.109.084-.046.161-.089.194-.03.344.037.227.024.359-.178.238-.118.382.164.42-.005.176.078.499.226.255.024.094-.062.06-.143-.031-.166-.191-.22-.422-.49-.173-.252-.132-.364-.041-.466-.029-.314.052-.413.113-.147.083-.328h.001l.022-.086.234-.311.621-.399.667-.597.527-.347.543-.235.014-.066.061.024 1.382-.47.023-.003.615-.107 4.153.293.154-.047v-.001l.138-.388.074-.072.05-.047.457-.201.214-.03.593.146.243.06.389-.218.276.005.569-.311.352.009.134-.054.685-.493.66-.189.172-.091.061-.033.677-.357.43-.33.371-.197.406-.105 1.063-.075.214-.356.457-.061.276-.312.316-.128.226-.326.19-.273.265-.153.85-.053 1.007.125.133-.081.228-.812.238-.153.642-.935.002-.341.001-.285.106-.405-.072-.732.085-.741.399-.942.351-.38.567-.384.288-.125.408-.069v-.001l.06-.01.104-.018 1.405-.019c.02-.015.511-.007.511-.007l.469-.006 1.186.211.084.015.401.13.462.359.489.478.092.089.317.134.096.042.262-.042.373-.194.281-.238.384-.21.009-.013.216-.325.007-.007.005.001v-.002l-.004-.001.085-.129.741-.289.872-.051.098-.053.055-.029.23-.27.216-.002.522.189.367-.073.292.116.227-.027.427-.051.459.323.268.034.943.552.049.008.025.005.054.009.112-.033.166-.048.022-.007.021.029.107.151.147.021.174-.232-.069-.105-.026-.038-.337-.069-.302-.517.288-.31-.452-.554-.075-.092-.026-.039-.156-.237-.791-1.206-1.03-.823h0l-.361-.289-.002-.002-.126-.099-.55-.56-.393-.522-.051-.112-.081-.177-.235-.513-.41-.316-.334-.365-.016-.022-.69-.938-.113-.157-.163-.094-.344-.002-.033-.033-.019-.02.012-.012.165-.164.184-.046.079-.182-.351-1.017-.002-.035-.026-.325.286-1.476.037-.18.488-.993.302-.248.33-.649.283-.415.271-.264.047-.028.489-.296.411-.058.391-.055.683.211.65-.013.127-.013.295-.034.485-.153.229-.141.119-.182.248-.831.08-.264.153-.287.884-1.018.669-.618 1.503-1.102.736-.44.376-.224 3.354-1.491.872-.884.454-.46.804-.539.94-.385.809-.64.177-.222.223-.717.186-.045.168-.362.048-.103.66-.465.075-.037 2.565-1.285.373.051.2-.299.746-.125.137-.023.184-.092.157-.267v-.053l.021-.712.159-.193.087-.469.082-.108.086-.113.211-.149-.037-.089z" fill="#d47600"/></g></symbol></svg>