<svg xmlns="http://www.w3.org/2000/svg" xmlns:xlink="http://www.w3.org/1999/xlink" viewBox="0 0 151 101" fill="#fff" fill-rule="evenodd" stroke="#000" stroke-linecap="round" stroke-linejoin="round"><use xlink:href="#B" x=".5" y=".5"/><defs><style>@import url("https://fonts.googleapis.com/css?family=Roboto:400,400i,700,700i");</style><path id="A" d="M125.929 55.128h3.814l-3.086 2.242 1.179 3.628-3.086-2.242-3.086 2.242 1.179-3.628-3.086-2.242h3.814l1.179-3.628z"/></defs><symbol id="B" overflow="visible"><g stroke="none"><path d="M0 0h150v100H0z" fill="#002395"/><path d="M0 0h61v41H0z"/><path d="M0 0h20v40H0z" fill="#002395"/><path d="M40 0h20v40H40z" fill="#ed2939"/><path d="M98.08 71.125h-7.672L89.5 72.75H85L94.25 58l6.875 10.75V50.875h-9.156L88.75 45.75h30.5l-3.219 5.125h-9.156V54h7.188L111 58.875h-4.125v9.875L113.75 58 123 72.75h-4.5l-.908-1.625h-7.672L104 81.75zm-5.716-3.5h3.766l-1.88-3.375zm19.506 0l1.88-3.375 1.886 3.375zM84.429 55.128h3.814l-3.086 2.242 1.179 3.628-3.086-2.242-3.086 2.242 1.179-3.628-3.086-2.242h3.814L83.25 51.5z"/><use xlink:href="#A"/><use xlink:href="#A" x="-9.5" y="25.25"/><path d="M105.179 88.878h3.814l-3.086 2.242 1.179 3.628L104 92.505l-3.086 2.242 1.179-3.628-3.086-2.242h3.814L104 85.25z"/><use xlink:href="#A" x="-32" y="25.25"/></g></symbol></svg>