<svg xmlns="http://www.w3.org/2000/svg" xmlns:xlink="http://www.w3.org/1999/xlink" viewBox="0 0 151 101" fill="#fff" fill-rule="evenodd" stroke="#000" stroke-linecap="round" stroke-linejoin="round"><style><![CDATA[.B{stroke:none}.C{fill:#0073cf}.D{font-family:Roboto Condensed}]]></style><use xlink:href="#B" x=".5" y=".5"/><defs><style>@import url("https://fonts.googleapis.com/css?family=Roboto:400,400i,700,700i"); @import url("https://fonts.googleapis.com/css?family=Roboto+Condensed:400,400i,700,700i"); </style><path id="A" d="M55.531 56.122l-1.247-3.839-1.247 3.839H49l3.266 2.372-1.248 3.84 3.265-2.373 3.265 2.373-1.247-3.839 3.265-2.373z"/></defs><symbol id="B" overflow="visible"><g class="B"><path d="M0 0h150v100H0z" class="C"/><path d="M0 33.333h150v33.333H0z"/><path d="M97.047 39.422L95.8 35.583l-1.247 3.839h-4.036l3.266 2.372-1.248 3.84 3.266-2.373 3.265 2.373-1.247-3.839 3.265-2.373z" class="C"/></g><use xlink:href="#A" class="B C"/><use xlink:href="#A" y="-16.666" class="B C"/><path d="M76.198 48.456l-1.247-3.839-1.247 3.839h-4.036l3.266 2.372-1.248 3.84 3.266-2.373 3.265 2.373-1.247-3.839 3.265-2.373z" class="B C"/><path d="M96.797 56.289L95.55 52.45l-1.247 3.839h-4.036l3.266 2.372-1.248 3.84 3.266-2.373 3.265 2.373-1.247-3.839 3.265-2.373z" class="B C"/></symbol></svg>