<svg xmlns="http://www.w3.org/2000/svg" xmlns:xlink="http://www.w3.org/1999/xlink" viewBox="0 0 151 102" fill="#fff" fill-rule="evenodd" stroke="#000" stroke-linecap="round" stroke-linejoin="round"><use xlink:href="#A" x=".5" y=".5"/><symbol id="A" overflow="visible"><g stroke="none"><path d="M0 0h150v100H0z" fill="#f93"/><path d="M0 33.333h150v33.333H0z"/><path d="M0 66.667h150V100H0z" fill="#128807"/><g fill="#008"><path d="M72.717 49.512a2.35 2.35 0 0 0-.048.368l-2.336-.28-7 .4 7 .4 2.336-.28a2.35 2.35 0 0 0 .048.368l-2.328.334-6.658 2.198 6.865-1.425 2.183-.875a2.32 2.32 0 0 0 .142.343l-2.162.925-5.862 3.846 6.262-3.154 1.882-1.41a2.33 2.33 0 0 0 .226.294l-1.849 1.453-4.667 5.233 5.233-4.667 1.453-1.849c.092.083.19.158.294.226l-1.41 1.882-3.154 6.262 3.846-5.862.925-2.162c.11.056.224.103.343.142l-.875 2.183-1.425 6.865 2.198-6.658.334-2.328a2.35 2.35 0 0 0 .368.048l-.28 2.336.4 7 .4-7-.28-2.336a2.35 2.35 0 0 0 .368-.048l.334 2.328 2.198 6.658-1.425-6.865-.875-2.183c.119-.038.234-.086.343-.142l.925 2.162 3.846 5.862-3.154-6.262-1.41-1.882a2.33 2.33 0 0 0 .294-.226l1.453 1.849 5.233 4.667-4.667-5.233-1.849-1.453a2.33 2.33 0 0 0 .226-.294l1.882 1.41 6.262 3.154-5.862-3.846-2.162-.925c.056-.11.103-.224.142-.343l2.183.875 6.865 1.425-6.658-2.198-2.328-.334a2.35 2.35 0 0 0 .048-.368l2.336.28 7-.4-7-.4-2.336.28a2.35 2.35 0 0 0-.048-.368l2.328-.334 6.658-2.198-6.865 1.425-2.183.875c-.038-.119-.086-.233-.142-.343l2.162-.925 5.862-3.846-6.262 3.154-1.882 1.41a2.33 2.33 0 0 0-.226-.294l1.849-1.453 4.667-5.233-5.233 4.667-1.453 1.849a2.33 2.33 0 0 0-.294-.226l1.41-1.882 3.154-6.262-3.846 5.862-.925 2.162c-.11-.056-.224-.103-.343-.142l.875-2.183 1.425-6.865-2.198 6.658-.334 2.328a2.35 2.35 0 0 0-.368-.048l.28-2.336-.4-7-.4 7 .28 2.336a2.35 2.35 0 0 0-.368.048l-.334-2.328-2.198-6.658 1.425 6.865.875 2.183c-.119.038-.233.086-.343.142l-.925-2.162-3.846-5.862 3.154 6.262 1.41 1.882a2.33 2.33 0 0 0-.294.226l-1.453-1.849-5.233-4.667 4.667 5.233 1.849 1.453a2.33 2.33 0 0 0-.226.294l-1.882-1.41-6.262-3.154 5.862 3.846 2.162.925a2.32 2.32 0 0 0-.142.343l-2.183-.875-6.865-1.425 6.658 2.198 2.328.334z"/><path d="M75 63.334c7.387 0 13.333-5.947 13.333-13.333S82.387 36.667 75 36.667 61.667 42.614 61.667 50 67.614 63.334 75 63.334zm11.48-15.433a.58.58 0 0 0-.491.653.58.58 0 0 0 .641.504c.025.311.037.625.037.943a11.93 11.93 0 0 1-.037.943.58.58 0 0 0-.641.504.58.58 0 0 0 .491.653c-.113.627-.276 1.236-.484 1.824a.58.58 0 1 0-.445 1.078 11.62 11.62 0 0 1-.943 1.635.58.58 0 1 0-.71.925c-.408.48-.855.927-1.335 1.335a.58.58 0 1 0-.925.71c-.516.356-1.063.672-1.635.943a.58.58 0 1 0-1.078.445c-.587.208-1.197.371-1.824.484a.58.58 0 0 0-.653-.491.58.58 0 0 0-.504.641 11.93 11.93 0 0 1-1.886 0 .58.58 0 0 0-.504-.641.58.58 0 0 0-.653.491c-.627-.113-1.236-.276-1.824-.484a.58.58 0 1 0-1.078-.445 11.62 11.62 0 0 1-1.635-.943.58.58 0 1 0-.925-.71c-.48-.408-.927-.855-1.335-1.335a.58.58 0 1 0-.71-.925c-.356-.516-.672-1.063-.943-1.635a.58.58 0 0 0-.445-1.078c-.208-.587-.371-1.197-.484-1.824a.58.58 0 0 0 .491-.653.58.58 0 0 0-.641-.504 11.93 11.93 0 0 1 0-1.886.58.58 0 0 0 .641-.504.58.58 0 0 0-.491-.653c.113-.627.276-1.236.484-1.824a.58.58 0 1 0 .445-1.078c.271-.573.587-1.119.943-1.635a.58.58 0 1 0 .71-.925c.408-.48.855-.927 1.335-1.335a.58.58 0 1 0 .925-.71c.516-.357 1.063-.672 1.635-.943a.58.58 0 1 0 1.078-.445c.587-.208 1.197-.371 1.824-.484a.58.58 0 0 0 .653.491.58.58 0 0 0 .504-.641 11.93 11.93 0 0 1 1.886 0 .58.58 0 0 0 .504.641.58.58 0 0 0 .653-.491c.627.113 1.236.276 1.824.484a.58.58 0 1 0 1.078.445c.573.271 1.119.587 1.635.943a.58.58 0 1 0 .925.71c.48.408.927.855 1.335 1.335a.58.58 0 1 0 .71.925c.356.516.672 1.063.943 1.635a.58.58 0 1 0 .445 1.078c.208.587.371 1.197.484 1.824z"/></g></g></symbol></svg>