<svg xmlns="http://www.w3.org/2000/svg" xmlns:xlink="http://www.w3.org/1999/xlink" viewBox="0 0 151 101" fill="#fff" fill-rule="evenodd" stroke="#000" stroke-linecap="round" stroke-linejoin="round"><use xlink:href="#A" x=".5" y=".5"/><symbol id="A" overflow="visible"><g stroke="none"><path d="M0 0h150v100H0z" fill="#00afca"/><g fill="#fec50c"><path d="M14.197 85.492c-.166-.302-.453-.526-.897-.65.678-.501 1.02-1.229 1.02-1.903 0-1.633-.653-2.028-.653-4.378 0-.725.282-1.453.857-2.128-1.572.322-2.19 1.683-1.687 2.673-.32.133-.553-.077-.803-.191-.009.546.21.786.367 1.064 0 0-.272-.014-.517-.109.033.351.196.665.517.818-1.349-.218-2.068.655-2.068 1.691 0 1.044.926 1.318 1.531 1.146.026.147.023.302-.054.471.384-.09.561-.305.429-.743.224-.039.399-.153.551-.3-.152-.173-.345-.281-.551-.327a.52.52 0 0 0-.381-.709s.159.764-.408.764c-.225 0-.381-.14-.381-.464 0-.465.264-.737.925-.737.538 0 1.061.45 1.061 1.459 0 .831-.83 1.56-1.592 1.541-.836-.021-1.633-.692-1.633-1.514 0-.532.05-.895.204-1.214l4.415-9.165c.394-.818.551-1.354.551-2.209 0-1.508-1.026-2.66-2.952-2.66-1.141 0-2.53.663-3.045 1.976-.509-1.307-1.905-1.976-3.051-1.976-1.927 0-2.952 1.152-2.952 2.66 0 .855.157 1.391.551 2.209l4.415 9.165c.154.319.204.682.204 1.214 0 .822-.797 1.493-1.633 1.514-.762.019-1.592-.71-1.592-1.541 0-1.009.524-1.459 1.061-1.459.662 0 .925.272.925.737 0 .324-.156.464-.381.464-.567 0-.408-.764-.408-.764a.52.52 0 0 0-.381.709c-.206.046-.399.154-.551.327.152.147.327.261.551.3-.133.439.045.653.429.743-.078-.169-.08-.324-.054-.471.604.172 1.531-.102 1.531-1.146 0-1.037-.719-1.909-2.068-1.691.321-.153.484-.467.517-.818-.245.095-.517.109-.517.109.158-.278.377-.518.367-1.064-.25.114-.482.324-.803.191.503-.99-.115-2.351-1.687-2.673.575.674.857 1.403.857 2.128 0 2.35-.653 2.745-.653 4.378 0 .674.342 1.402 1.02 1.903-.445.125-.731.349-.897.65.318.428.525.553 1.061.588-.597.31-1.204.982-1.204 2.028 0 1.614.664 2.279.664 4.098 0 1.009-.828 2.294-.828 2.294 1.463-.146 2.188-1.501 1.775-2.583.233-.034.444.019.626.191.107-.3-.062-.648-.288-.948.182-.097.316-.039.607.021-.027-.309-.213-.638-.666-.947 1.315.341 2.124-.575 2.124-1.535 0-.725-.508-1.244-1.004-1.244-.16 0-.396.066-.529.165-.094-.199-.045-.466.051-.666-.364.096-.595.312-.43.762-.28.026-.502.12-.653.3a.78.78 0 0 0 .653.3c-.203.42.023.655.354.846 0 0-.21-.846.327-.846.241 0 .461.078.461.434 0 .31-.271.739-.897.711s-1.133-.431-1.133-1.431c0-.922.743-1.38 1.723-1.41.883-.027 1.55.451 1.55 1.363 0 1.213-1.751 3.977-1.751 5.058 0 .811.729 1.263 1.443 1.263.444 0 .855-.211 1.162-.43.307.219.718.43 1.162.43.713 0 1.443-.453 1.443-1.263 0-1.081-1.751-3.845-1.751-5.058 0-.911.667-1.39 1.55-1.363.98.03 1.723.488 1.723 1.41 0 .999-.507 1.403-1.133 1.431s-.897-.402-.897-.711c0-.356.22-.434.461-.434.537 0 .327.846.327.846.33-.191.557-.426.354-.846a.78.78 0 0 0 .653-.3c-.151-.18-.374-.274-.653-.3.164-.45-.067-.666-.431-.762.097.199.145.466.051.666-.133-.099-.369-.165-.529-.165-.496 0-1.004.52-1.004 1.244 0 .959.809 1.876 2.124 1.535-.453.309-.638.638-.666.947.29-.06.424-.118.607-.021-.226.3-.395.648-.288.948.182-.172.393-.224.626-.191-.412 1.082.313 2.437 1.775 2.583 0 0-.828-1.285-.828-2.294 0-1.819.664-2.484.664-4.098 0-1.047-.607-1.719-1.204-2.028.536-.034.743-.16 1.061-.588zm-7.156.027l.163-.057c.943-.109 1.602-.833 1.796-1.201.194.368.853 1.092 1.796 1.201l.163.057c-.85.195-1.566.515-1.959 1.177-.393-.663-1.109-.982-1.959-1.177zM13.49 71.85a3.12 3.12 0 0 0 .313-1.337c0-1.203-1.102-1.623-1.728-1.623-.748 0-1.51.57-1.51 1.282 0 .451.245.723.599.723.846 0 .794-.719.626-1.173.527.237.832.659.748 1.105.298.041.582.182.843.477-.206.26-.457.457-.843.464.169.691-.294.983-.748 1.146.144-.507.238-1.091-.626-1.091-.63 0-1.126-.109-1.415-.518l-.068 2.701c-.036.81 1.084.787 1.796.545-.269.933-.82 1.437-2.095 1.309.31.129.64.421.64.982 0 .759-.616 1.6-1.021 1.849-.404-.249-1.02-1.09-1.021-1.849 0-.561.33-.853.64-.982-1.275.128-1.826-.377-2.095-1.309.712.241 1.832.264 1.796-.545l-.068-2.701c-.289.409-.785.518-1.415.518-.864 0-.769.584-.626 1.091-.454-.162-.917-.454-.748-1.146-.386-.007-.638-.204-.844-.464.262-.295.546-.436.844-.477-.084-.445.222-.868.748-1.105-.169.453-.22 1.173.626 1.173.354 0 .599-.272.599-.723 0-.712-.762-1.282-1.51-1.282-.626 0-1.728.42-1.728 1.623a3.12 3.12 0 0 0 .313 1.337L9 81.37l4.49-9.52zM7.713 93.11c.326.405 1.287-.402 1.288-.402s.961.807 1.287.402c.394-.488-.71-2.435-1.287-3.86-.577 1.425-1.681 3.372-1.287 3.86z"/><path d="M4.701 50.65c-.678.501-1.02 1.229-1.02 1.903 0 1.633.653 2.028.653 4.378 0 .725-.282 1.453-.857 2.128 1.572-.322 2.19-1.684 1.687-2.673.32-.133.553.077.803.191.009-.546-.21-.786-.367-1.064a1.89 1.89 0 0 0 .517.109c-.033-.351-.196-.665-.517-.818 1.349.218 2.068-.655 2.068-1.691 0-1.044-.926-1.317-1.531-1.146-.026-.147-.023-.302.054-.471-.384.09-.562.304-.429.743-.224.039-.399.153-.551.3.152.173.345.281.551.327a.52.52 0 0 0 .381.709s-.159-.764.408-.764c.225 0 .381.14.381.464 0 .465-.264.736-.925.736-.538 0-1.061-.45-1.061-1.459 0-.831.83-1.56 1.592-1.541.836.02 1.633.692 1.633 1.514 0 .532-.05.895-.204 1.214l-4.415 9.165C3.157 63.724 3 64.26 3 65.115c0 1.508 1.026 2.66 2.952 2.66 1.146 0 2.542-.669 3.051-1.976.515 1.313 1.904 1.976 3.045 1.976 1.927 0 2.952-1.152 2.952-2.66 0-.855-.157-1.391-.551-2.209l-4.415-9.165c-.154-.319-.204-.682-.204-1.214 0-.822.797-1.493 1.633-1.514.762-.019 1.592.71 1.592 1.541 0 1.009-.524 1.459-1.061 1.459-.662 0-.925-.272-.925-.736 0-.324.156-.464.381-.464.567 0 .408.764.408.764a.52.52 0 0 0 .381-.709c.206-.046.399-.154.551-.327-.152-.148-.327-.261-.551-.3.133-.439-.045-.653-.429-.743.077.169.08.324.054.471-.604-.172-1.531.102-1.531 1.146 0 1.037.719 1.909 2.068 1.691-.321.153-.484.467-.517.818.245-.095.517-.109.517-.109-.158.278-.377.518-.367 1.064.25-.114.482-.324.803-.191-.503.99.115 2.351 1.687 2.673-.575-.674-.857-1.403-.857-2.128 0-2.35.653-2.745.653-4.378 0-.675-.342-1.402-1.02-1.903.445-.125.731-.348.897-.65-1.052-.298-2.58-.293-3.401.03-.943.109-1.602.833-1.796 1.201-.194-.368-.853-1.092-1.796-1.201-.821-.323-2.349-.328-3.401-.03.166.302.453.525.897.65zM9 54.121l-4.49 9.521a3.12 3.12 0 0 0-.313 1.337c0 1.203 1.102 1.623 1.728 1.623.748 0 1.51-.57 1.51-1.282 0-.451-.245-.723-.599-.723-.846 0-.794.72-.626 1.173-.526-.237-.832-.659-.748-1.105-.298-.041-.582-.182-.844-.477.206-.26.457-.457.844-.464-.169-.691.294-.984.748-1.146-.144.507-.238 1.091.626 1.091.63 0 1.126.109 1.415.518l.068-2.701c.036-.81-1.084-.787-1.796-.546.269-.933.82-1.437 2.095-1.309-.31-.13-.639-.421-.639-.982 0-.759.616-1.6 1.021-1.849.405.249 1.021 1.09 1.021 1.849 0 .561-.33.852-.64.982 1.276-.128 1.827.377 2.095 1.309-.712-.241-1.832-.264-1.796.546l.068 2.701c.289-.409.785-.518 1.415-.518.864 0 .769-.584.626-1.091.454.162.917.454.748 1.146.386.007.638.204.843.464-.262.295-.545.437-.843.477.084.445-.222.868-.748 1.105.169-.453.22-1.173-.626-1.173-.354 0-.599.272-.599.723 0 .712.762 1.282 1.51 1.282.626 0 1.728-.42 1.728-1.623a3.12 3.12 0 0 0-.313-1.337L9 54.121z"/><path d="M4.701 49.349c-.678-.501-1.02-1.229-1.02-1.903 0-1.633.653-2.028.653-4.378 0-.725-.282-1.453-.857-2.128 1.572.322 2.19 1.684 1.687 2.673.32.133.553-.077.803-.191.009.546-.21.786-.367 1.064 0 0 .272-.014.517-.109-.033.351-.196.665-.517.818 1.349-.218 2.068.655 2.068 1.691 0 1.044-.926 1.317-1.531 1.146-.026.147-.023.302.054.471-.384-.09-.562-.304-.429-.743-.224-.039-.399-.153-.551-.3.152-.173.345-.282.551-.327a.52.52 0 0 1 .381-.709s-.159.764.408.764c.225 0 .381-.14.381-.464 0-.465-.264-.736-.925-.736-.538 0-1.061.45-1.061 1.459 0 .831.83 1.56 1.592 1.541.836-.021 1.633-.692 1.633-1.514 0-.532-.05-.895-.204-1.214l-4.415-9.165C3.157 36.276 3 35.74 3 34.885c0-1.508 1.026-2.66 2.952-2.66 1.146 0 2.542.669 3.051 1.976.515-1.313 1.904-1.976 3.045-1.976 1.927 0 2.952 1.152 2.952 2.66 0 .855-.157 1.391-.551 2.209l-4.415 9.165c-.154.319-.204.682-.204 1.214 0 .822.797 1.493 1.633 1.514.762.019 1.592-.71 1.592-1.541 0-1.009-.524-1.459-1.061-1.459-.662 0-.925.272-.925.736 0 .324.156.464.381.464.567 0 .408-.764.408-.764a.52.52 0 0 1 .381.709c.206.046.399.154.551.327-.152.147-.327.261-.551.3.133.439-.045.653-.429.743.077-.169.08-.324.054-.471-.604.172-1.531-.102-1.531-1.146 0-1.037.719-1.909 2.068-1.691-.321-.153-.484-.467-.517-.818a1.89 1.89 0 0 0 .517.109c-.158-.278-.377-.518-.367-1.064.25.114.482.324.803.191-.503-.99.115-2.351 1.687-2.673-.575.674-.857 1.403-.857 2.128 0 2.35.653 2.745.653 4.378 0 .675-.342 1.402-1.02 1.903.445.125.731.349.897.65-1.052.298-2.58.293-3.401-.03-.943-.109-1.602-.833-1.796-1.201-.194.368-.853 1.092-1.796 1.201-.821.323-2.349.328-3.401.03.166-.302.453-.525.897-.65zm4.3-3.47l-4.49-9.521a3.12 3.12 0 0 1-.313-1.337c0-1.203 1.102-1.623 1.728-1.623.748 0 1.51.57 1.51 1.282 0 .451-.245.723-.599.723-.846 0-.794-.72-.626-1.173-.526.237-.832.659-.748 1.105-.298.041-.582.182-.844.477.206.26.457.457.844.464-.169.691.294.984.748 1.146-.144-.507-.238-1.091.626-1.091.63 0 1.126-.109 1.415-.518l.068 2.701c.036.81-1.084.787-1.796.546.269.933.82 1.437 2.095 1.309-.31.13-.639.421-.639.982 0 .759.616 1.6 1.021 1.849.405-.249 1.021-1.09 1.021-1.849 0-.561-.33-.852-.64-.982 1.276.128 1.827-.377 2.095-1.309-.712.241-1.832.264-1.796-.546l.068-2.701c.289.409.785.518 1.415.518.864 0 .769.584.626 1.091.454-.162.917-.454.748-1.146.386-.007.638-.204.843-.464-.262-.295-.545-.437-.843-.477.084-.445-.222-.868-.748-1.105.169.453.22 1.173-.626 1.173-.354 0-.599-.272-.599-.723 0-.712.762-1.282 1.51-1.282.626 0 1.728.42 1.728 1.623a3.12 3.12 0 0 1-.313 1.337L9 45.879z"/><path d="M3.803 14.509c.166.302.453.526.897.65-.678.501-1.02 1.229-1.02 1.903 0 1.633.653 2.028.653 4.378 0 .725-.282 1.453-.857 2.128 1.572-.322 2.19-1.684 1.687-2.673.32-.133.553.077.803.191.009-.546-.21-.786-.367-1.064a1.89 1.89 0 0 0 .517.109c-.033-.351-.196-.665-.517-.818 1.349.218 2.068-.655 2.068-1.691 0-1.044-.926-1.317-1.531-1.146-.026-.146-.023-.302.054-.47-.384.09-.562.305-.429.743-.224.039-.399.153-.551.3.152.173.345.281.551.327a.52.52 0 0 0 .381.709s-.159-.764.408-.764c.225 0 .381.14.381.464 0 .465-.264.736-.925.736-.538 0-1.061-.45-1.061-1.459 0-.831.83-1.56 1.592-1.541.836.021 1.633.692 1.633 1.514 0 .532-.05.895-.204 1.214l-4.415 9.165C3.157 28.232 3 28.768 3 29.623c0 1.508 1.026 2.66 2.952 2.66 1.146 0 2.542-.669 3.051-1.976.515 1.313 1.904 1.976 3.045 1.976 1.927 0 2.952-1.152 2.952-2.66 0-.855-.157-1.391-.551-2.209l-4.415-9.165c-.154-.319-.204-.682-.204-1.214 0-.822.797-1.493 1.633-1.514.762-.019 1.592.71 1.592 1.541 0 1.009-.524 1.459-1.061 1.459-.662 0-.925-.272-.925-.736 0-.324.156-.464.381-.464.567 0 .408.764.408.764a.52.52 0 0 0 .381-.709c.206-.046.399-.154.551-.327-.152-.148-.327-.261-.551-.3.133-.439-.045-.653-.429-.743.077.169.08.324.054.47-.604-.172-1.531.102-1.531 1.146 0 1.037.719 1.909 2.068 1.691-.321.153-.484.467-.517.818.245-.095.517-.109.517-.109-.158.278-.377.518-.367 1.064.25-.114.482-.324.803-.191-.503.99.115 2.351 1.687 2.673-.575-.674-.857-1.403-.857-2.128 0-2.35.653-2.745.653-4.378 0-.675-.342-1.402-1.02-1.903.445-.125.731-.348.897-.65-.318-.428-.525-.553-1.061-.588a2.23 2.23 0 0 0 1.204-2.028c0-1.614-.664-2.279-.664-4.098 0-1.009.828-2.294.828-2.294-1.463.146-2.188 1.501-1.775 2.583-.233.033-.444-.019-.626-.191-.107.3.062.648.288.948-.182.098-.316.039-.607-.021.027.309.213.638.666.947-1.315-.341-2.124.575-2.124 1.535 0 .725.508 1.244 1.004 1.244.161 0 .396-.066.529-.165.094.199.045.466-.051.666.364-.096.595-.312.431-.762.279-.026.502-.12.653-.3a.78.78 0 0 0-.653-.3c.203-.42-.023-.655-.354-.846 0 0 .21.846-.327.846-.241 0-.461-.079-.461-.434 0-.31.271-.739.897-.711s1.133.431 1.133 1.431c0 .922-.743 1.38-1.723 1.41-.883.027-1.55-.451-1.55-1.362 0-1.213 1.751-3.977 1.751-5.058 0-.811-.729-1.264-1.443-1.264-.444 0-.854.211-1.162.43-.307-.219-.718-.43-1.162-.43-.713 0-1.443.453-1.443 1.264 0 1.081 1.751 3.845 1.751 5.058 0 .911-.667 1.39-1.55 1.362-.98-.03-1.723-.488-1.723-1.41 0-.999.507-1.403 1.133-1.431s.897.402.897.711c0 .356-.22.434-.461.434-.537 0-.327-.846-.327-.846-.33.191-.557.426-.354.846a.78.78 0 0 0-.653.3c.151.18.374.274.653.3-.164.45.066.666.43.762-.096-.199-.145-.466-.051-.666a1.02 1.02 0 0 0 .529.165c.497 0 1.004-.52 1.004-1.244 0-.96-.809-1.876-2.124-1.535.453-.309.638-.637.666-.947-.29.06-.424.118-.607.021.226-.3.396-.648.288-.948-.182.172-.393.224-.626.191.413-1.083-.312-2.437-1.775-2.583 0 0 .828 1.285.828 2.294 0 1.819-.664 2.485-.664 4.098a2.23 2.23 0 0 0 1.204 2.028c-.536.034-.743.16-1.061.588zm7.156-.027l-.163.057c-.943.109-1.602.833-1.796 1.201-.194-.368-.853-1.092-1.796-1.201a2.41 2.41 0 0 0-.163-.057c.85-.195 1.566-.515 1.959-1.178.393.663 1.109.982 1.959 1.178zM13.49 28.15a3.12 3.12 0 0 1 .313 1.337c0 1.203-1.102 1.623-1.728 1.623-.748 0-1.51-.57-1.51-1.282 0-.451.245-.723.599-.723.846 0 .794.72.626 1.173.527-.237.832-.659.748-1.105.298-.041.582-.182.843-.477-.206-.26-.457-.457-.843-.464.169-.691-.294-.983-.748-1.146.144.507.238 1.091-.626 1.091-.63 0-1.126.109-1.415.518l-.068-2.7c-.036-.81 1.084-.787 1.796-.546-.269-.933-.82-1.437-2.095-1.309.31-.13.64-.421.64-.982 0-.759-.616-1.601-1.021-1.849-.404.249-1.02 1.09-1.021 1.849 0 .561.33.852.64.982-1.275-.128-1.826.377-2.095 1.309.712-.241 1.832-.264 1.796.546l-.068 2.7c-.289-.409-.785-.518-1.415-.518-.864 0-.769-.584-.626-1.091-.454.162-.917.454-.748 1.146-.386.007-.638.204-.844.464.262.295.546.437.844.477-.084.445.222.868.748 1.105-.169-.453-.22-1.173.626-1.173.354 0 .599.272.599.723 0 .712-.762 1.282-1.51 1.282-.626 0-1.728-.42-1.728-1.623a3.12 3.12 0 0 1 .313-1.337L9 18.63l4.49 9.52zM10.288 6.89C9.961 6.485 9 7.292 9 7.292s-.96-.807-1.287-.402c-.394.489.71 2.435 1.287 3.86.577-1.425 1.681-3.372 1.287-3.86zm57.351 35.12c0-7.454 6.001-13.455 13.455-13.455s13.455 6.001 13.455 13.455-6.001 13.455-13.455 13.455-13.455-6.001-13.455-13.455zm13.455-15.29c.8-.01 1.1-.51 1.1-1.11 0-.8-1.1-4.61-1.1-4.61l-1.1 4.61c0 .6.3 1.11 1.1 1.11zm15.29 15.29c.01.8.51 1.1 1.11 1.1.8 0 4.61-1.1 4.61-1.1l-4.61-1.1c-.6 0-1.11.3-1.11 1.1zM81.094 57.3c-.8.01-1.1.51-1.1 1.11 0 .8 1.1 4.61 1.1 4.61l1.1-4.61c0-.6-.3-1.11-1.1-1.11zm-15.29-15.29c-.01-.8-.51-1.1-1.11-1.1-.8 0-4.61 1.1-4.61 1.1l4.61 1.1c.6 0 1.11-.3 1.11-1.1zm21.141-14.126c.743.297 1.212-.05 1.441-.605.306-.739.748-4.68.748-4.68l-2.78 3.838c-.23.554-.148 1.14.591 1.447zm8.275 19.977c-.297.743.05 1.211.605 1.441.739.306 4.68.748 4.68.748l-3.838-2.781c-.554-.23-1.14-.148-1.447.592zm-19.977 8.275c-.743-.297-1.211.05-1.441.604-.306.739-.748 4.68-.748 4.68l2.78-3.838c.23-.554.148-1.14-.591-1.446zm-8.275-19.977c.297-.743-.05-1.212-.605-1.441-.739-.306-4.68-.748-4.68-.748l3.838 2.78c.554.23 1.14.148 1.447-.591zm24.937-4.96c.573.559 1.138.417 1.563-.007.566-.566 2.482-4.037 2.482-4.037l-4.038 2.482c-.424.424-.573.997-.007 1.563zm0 21.623c-.559.573-.417 1.138.007 1.563.566.566 4.038 2.482 4.038 2.482l-2.482-4.038c-.424-.424-.997-.573-1.563-.007zm-21.623-.001c-.573-.559-1.139-.417-1.563.007-.566.566-2.482 4.038-2.482 4.038l4.038-2.482c.424-.424.573-.997.007-1.563zm0-21.622c.559-.573.417-1.138-.007-1.563-.566-.566-4.038-2.482-4.038-2.482l2.482 4.037c.424.424.997.573 1.563.007z"/><path d="M95.22 36.159c.315.735.892.821 1.446.591.739-.306 3.838-2.78 3.838-2.78l-4.68.748c-.554.23-.911.702-.605 1.441zm-8.275 19.977c-.735.315-.821.892-.591 1.446.306.739 2.781 3.838 2.781 3.838l-.748-4.68c-.23-.554-.702-.911-1.441-.605zm-19.977-8.275c-.315-.735-.892-.821-1.447-.591-.739.306-3.838 2.78-3.838 2.78l4.68-.748c.554-.23.911-.702.605-1.441zm8.275-19.977c.735-.315.821-.892.591-1.447-.306-.739-2.78-3.838-2.78-3.838l.748 4.68c.23.554.702.911 1.441.605zm8.834-.87c.787.146 1.178-.286 1.295-.874.156-.785-.179-4.736-.179-4.736l-1.978 4.307c-.117.588.078 1.147.862 1.303zM96.09 44.993c-.146.787.285 1.178.874 1.295.785.156 4.736-.179 4.736-.179l-4.307-1.978c-.589-.117-1.147.078-1.303.862zM78.111 57.006c-.787-.146-1.178.286-1.295.874-.156.785.18 4.736.18 4.736l1.978-4.307c.117-.589-.078-1.147-.862-1.303zM66.097 39.027c.146-.787-.286-1.178-.874-1.295-.785-.156-4.736.179-4.736.179l4.307 1.978c.588.117 1.147-.078 1.303-.862zm23.491-9.73c.671.436 1.198.187 1.531-.312.444-.665 1.646-4.444 1.646-4.444l-3.476 3.222c-.333.499-.367 1.09.298 1.534zm4.219 21.208c-.436.671-.187 1.198.312 1.531.665.444 4.444 1.647 4.444 1.647l-3.222-3.476c-.499-.333-1.09-.367-1.534.298zm-21.208 4.218c-.671-.436-1.198-.187-1.531.312-.445.665-1.647 4.444-1.647 4.444l3.476-3.222c.333-.499.367-1.09-.298-1.534zM68.38 33.515c.436-.671.187-1.198-.312-1.531-.665-.444-4.444-1.647-4.444-1.647l3.222 3.476c.499.334 1.09.367 1.534-.298z"/><path d="M93.807 33.516c.453.66 1.035.631 1.534.298.665-.444 3.222-3.476 3.222-3.476l-4.444 1.647c-.499.333-.756.866-.312 1.531zm-4.219 21.208c-.66.453-.631 1.035-.298 1.534.444.665 3.476 3.222 3.476 3.222l-1.647-4.444c-.333-.499-.866-.756-1.531-.312zm-21.207-4.22c-.453-.66-1.035-.631-1.534-.298-.665.444-3.222 3.476-3.222 3.476l4.444-1.647c.499-.333.756-.866.312-1.531zm4.218-21.207c.66-.453.631-1.035.298-1.534-.445-.665-3.476-3.222-3.476-3.222l1.647 4.444c.333.499.866.756 1.531.312zm23.491 9.73c.166.783.715.979 1.303.862.785-.156 4.307-1.978 4.307-1.978l-4.736-.179c-.588.117-1.03.511-.874 1.295zM84.077 57.006c-.783.166-.979.715-.862 1.303.156.785 1.978 4.307 1.978 4.307l.18-4.736c-.117-.588-.511-1.03-1.295-.874zm-17.98-12.013c-.166-.783-.715-.979-1.303-.862-.785.156-4.307 1.978-4.307 1.978l4.736.179c.588-.117 1.03-.511.874-1.295zm12.014-17.979c.783-.166.979-.715.862-1.303-.156-.785-1.978-4.307-1.978-4.307l-.18 4.736c.117.588.511 1.03 1.295.874zm.582 44.143c-.36.02-.71.067-1.053.177-.47.063-.92.227-1.387.303l-.187.03-.313.03a1.16 1.16 0 0 1 .033.26.84.84 0 0 1-.033.25.61.61 0 0 1-.133.21.75.75 0 0 1-.22.177c-.083.04-.17.057-.26.063a.68.68 0 0 1-.27-.033.77.77 0 0 1-.25-.153 2.14 2.14 0 0 1-.28.05 1.16 1.16 0 0 1-.263 0l-.28-.093c-.09-.037-.177-.083-.26-.137-.34.2-.72.39-.927.74-.117.16-.14.343-.167.533-.017.233.043.48.143.697.037.063.067-.23.18-.27a1.77 1.77 0 0 1 .667-.333c.203-.103.177.007.093.167-.02.083-.133.4.02.24.677-.3 1.427-.36 2.157-.417 1.06-.11 2.123-.133 3.187-.147l3 .063c.477.013.957.12 1.427.04.113-.03.29-.037.357-.103-.213-.123-.463-.127-.7-.157h-1.907c-.53-.053-1.083-.06-1.583-.26-.133-.053-.257-.18-.383-.043-.19.067-.393.113-.593.127a2.29 2.29 0 0 1-1.023-.177c.233-.323.513-.607.77-.907l-.613-.127 1.053-.8z"/><path d="M94.266 74.611c-.724.435-1.277-.336-1.883-.567-.432.235-.473 1.021-.877 1.393-.483.55-1.076-.153-1.032-.696-.578.487-.871 1.592-1.806 1.445-.443-.362-.772-1.12-1.111-.256-.276.422-1.011 1.023-1.392.385-.118-.563-.4-1.225-.706-.331-.21.632-.885 1.098-1.538.821-.357-.292.287-1.373-.168-1.296-.68.45-1.075 1.566-2.024 1.476-.368-.414.224-1.114-.18-1.574-.477.612-1.006 1.509-1.832 1.574-.399-.323.016-1.25-.239-1.387-.847.508-1.74 1.413-2.805 1.129.415-1.587 2.149-2.144 3.607-2.268 2.509-.308 5.148.259 7.562-.647.39-.237 1.335-.574.999-1.124-.298-.435.775-.265.879-.772-.064-.643.493-.555 1.036-.611 2.438-.105 4.846.408 7.276.495.184 1.184-1.13 2.016-2.188 1.65-.505.082-1.263-1.162-1.114-.257-.102.475-.031 1.102-.464 1.419m-20.74-2.425c.564.517.96-.097 1.487-.322 1.769-.608 3.313-1.672 4.835-2.734.922-.763 1.721-1.752 2.96-2 2.415-.73 4.983-.642 7.408-1.316 1.846-2.528 4.983-3.43 7.61-4.883.59-.183.818-.669 1.006-1.205 1.003-1.583 2.369-2.986 3.984-3.944.764-.418 1.676-.658 2.542-.467-.062 1.031-.653 1.944-1.367 2.657.584-.013 1.086-.382 1.677-.361.202 1.058-.94 1.611-1.548 2.27.338.079 1.635.177.929.516-.9.625-1.929 1.054-2.76 1.78.767.138.854.301.074.578-.422.286-1.234.386-1.312.944.579.356-.267.71-.593.825-.624.145-1.28.417-.451.891-.314.474-.986.575-1.535.528.167.537.408 1.138-.289 1.375-1.562 1.181-3.396 2.04-5.36 2.237 2.454.189 4.981-.267 7.077-1.601.277-.327 1.728-.679.916-.954-.382-.159-1.202-.336-1.257-.627 1.135-.701 2.566-.451 3.788-.868.032-.395-.929-.285-1.288-.376-.854-.07-.804-.288.02-.369 1.042-.276 2.223-.33 3.099-1.01-.714-.331-1.612-.04-2.373-.31 1.291-.565 2.814-.622 3.973-1.47.528-.587-.676-.404-1.027-.389-.715.124-1.046-.218-.233-.515 1.387-1.023 3.143-1.687 4.118-3.17.231-.332.543-1.332-.193-.972-.968.322-1.82 1.41-2.923 1.073 2.173-1.684 4.241-3.602 5.727-5.933.077-.672-.979-.745-1.253-.217-1.396 1.346-2.66 2.934-4.448 3.777 1.712-1.652 3.128-3.609 4.363-5.637.265-.603.976-1.329.59-1.998-.622-.515-1.401-.044-1.725.573-1.085 1.417-1.91 3.071-3.305 4.225 1.222-2.332 2.487-4.815 2.518-7.505-.004-.554-.115-1.369-.867-1.266-.596.107-.455.999-.7 1.45-.541 1.838-.795 3.828-1.905 5.437.25-1.493.687-3.05.351-4.558-.157-.674-1.245-.384-1.105.283-1.3 6.586-5.719 12.346-11.499 15.678-2.646 1.497-5.602 2.463-8.61 2.9-.809.177-1.684.073-2.457.349-1.874 1.437-3.008 3.841-5.38 4.593-1.063.528-2.45.636-3.21 1.623-.066.126-.08.273-.077.413"/><path d="M80.627 65.505c-.35.635-.556 1.366-1.006 1.935-1.354-1.232-3.317-1.191-5.035-1.273-1.418-.076-2.959-.206-4.056-1.218-1.154-.945-2.096-2.172-3.385-2.939-1.177-.32-2.363-.72-3.31-1.527-2.022-1.648-3.18-4.094-5.156-5.793-.377-.371-.821-.658-1.243-.973-.401.098-.22.963-.71.522-.267-.19-.935-.208-.995.057.604.796 1.209 1.705 1.292 2.723-.412.042-1.145-.087-1.349.066a8.42 8.42 0 0 0 2.045 2.126c-.382.061-1.135.028-1.282.182.791.645 1.639 1.303 2.675 1.469.212.279-.31.819.129 1.058.255.104 1.094.278.516.568-.397.268-.25.891.258.877.321.164 1.042.204 1.098.488-.285.29-1.17.633-.416.904.704.39 1.507.644 2.31.672-.403.339-.9.532-1.316.851 1.855 1.088 3.911 1.803 5.943 2.492.809.27 1.627.522 2.466.681-2.437-.141-4.792-.862-7.012-1.85l-3.487-1.427c.517-.269 1.115-.335 1.651-.567-1.113-.223-2.328-.296-3.307-.908.15-.268.718-.28 1.033-.416.591-.142.958-.313.124-.365-.841-.228-1.804-.126-2.545-.633.048-.304.823-.198 1.139-.329.398-.068.84-.126 1.157-.393-1.299-.539-2.999-.157-4.017-1.305-.235-.437.729-.085 1.003-.158.697 0 1.447.222 2.111-.059-1.893-.831-3.922-1.609-5.365-3.147-.16-.247-.641-.922-.253-1.006 1.124.149 1.937 1.375 3.14 1.184.16-.215-.698-.568-.912-.876-1.753-1.504-3.454-3.136-4.683-5.107-.084-.658.95-.757 1.222-.248 1.34 1.291 2.551 2.798 4.221 3.679.593.287-.34-.34-.464-.567-1.543-1.791-3.011-3.683-4.09-5.793-.193-.38-.513-1.069.065-1.271.577-.289 1.15.105 1.443.601 1.134 1.431 1.969 3.131 3.382 4.323-1.204-2.336-2.489-4.795-2.52-7.483.028-.521.062-1.309.768-1.288.593-.09.5.67.694 1.032.584 1.975.839 4.112 2.012 5.856-.259-1.465-.64-2.974-.387-4.463.058-.489.609-.637.968-.341.29.711.351 1.589.616 2.349 1.506 5.152 4.888 9.683 9.294 12.724 3.629 2.489 7.936 3.975 12.332 4.234.397.035.796.047 1.193.071m-5.816 6.593c0-.131.106-.237.237-.237s.237.106.237.237-.106.237-.237.237-.237-.106-.237-.237z"/></g></g><path d="M74.93 72.061c0-.053.043-.097.097-.097s.096.043.096.097-.043.096-.096.096-.097-.043-.097-.096z" fill="#fec50c" stroke="#00afca" stroke-width=".381"/></symbol></svg>