<svg xmlns="http://www.w3.org/2000/svg" xmlns:xlink="http://www.w3.org/1999/xlink" viewBox="0 0 151 101" fill="#fff" fill-rule="evenodd" stroke="#000" stroke-linecap="round" stroke-linejoin="round"><use xlink:href="#A" x=".5" y=".5"/><symbol id="A" overflow="visible"><g stroke="none"><path d="M0 0h150v100H0z" fill="#ed1c24"/><path d="M0 25h150v50H0z"/><path d="M74.318 25c-1.073 2.26-3.094 3.84-5.026 5.334-.318.278-1.108.815-.535 1.224.491-.549 1.839.178 1.056.768-.702.657-1.668.897-2.447 1.439-.69.375-1.39.766-1.937 1.34-.037.896 1.112.4 1.579.774.608.649-.258 1.744-1.055 1.494-1.019.031-1.724.928-2.109 1.784-.797 1.233-2.308 1.598-3.511 2.3a23.23 23.23 0 0 0-1.997 1.313c-.826.565-.107 1.683.772 1.409.949-.095 1.803-.84 2.785-.625.891.313 1.141 1.477.837 2.29-.225.651-.77 1.109-1.206 1.618-.709.718-1.636 1.184-2.613 1.407-.945.317-1.794.896-2.413 1.677-.719.724-1.435 1.46-2.262 2.063-.261.666.476 1.234 1.09 1.216 1.294-.081 2.192-1.141 3.294-1.685.915-.411 1.992.575 1.768 1.528-.071.927-.939 1.398-1.711 1.683-2.269 1.141-4.239 2.795-5.989 4.62-.362.738-1.356.521-1.892 1.035-.349.651.527.994 1.049.927 2.245-.27 4.34-1.219 6.324-2.263.738-.353 1.431-.817 2.198-1.098.721-.178 1.726.135 1.855.956-.001.866-.859 1.345-1.538 1.684-2.095 1.101-4.394 1.709-6.633 2.437-.838-.234-1.47 1.257-.55 1.525.972.333 2.006.066 3.001.022 3.076-.471 5.766-2.136 8.641-3.211 1.195-.39 2.606.154 3.196 1.274.593.998.538 2.311-.087 3.281-.988 2.114-2.49 4.056-4.506 5.272-1.266.627-2.743.866-3.828 1.826-1.003.331.503 1.686.721.61.603-.822 1.666-1.068 2.631-1.102 1.449-.158 2.989-.425 4.115-1.429 1.01-.784 2.005-1.866 3.376-1.883.758.09 1.507.699 2.277.327.673-.308 1.729-.128 1.905.7.321.968 1.32 1.409 2.111 1.927.287.402 1.239 1.44 1.458.525-.177-.653.076-1.651.932-1.433.748.033 1.46.309 2.206.354.994.206 1.823.886 2.387 1.708.388.536 1.239 1.457 1.87.746.392-.735-.356-1.348-.966-1.611-.888-.551-1.648-1.284-2.425-1.978-1.145-1.069-2.134-2.429-2.315-4.027-.246-1.593-.117-3.217.091-4.805.262-1.023 1.569-1.581 2.484-1.038 1.287.587 2.564 1.427 4.039 1.336 2.131.046 4.322-.362 6.404.255 2.027.638 3.476 2.349 5.45 3.089.442.269 1.007.013 1.169-.459.196-.424.058-.967-.351-1.209-2.288-2.31-5.415-3.432-8.063-5.237-.833-.212-.985-1.553-.215-1.94 1.013-.736 2.446-.394 3.345.366.759.445 1.614.778 2.505.779.912-.286.47-1.606-.347-1.705-1.48-.836-2.54-2.207-3.822-3.293-.738-.625-1.546-1.258-2.538-1.379-.542-.099-1.097-.12-1.646-.083-.515-.56.171-1.417.838-1.347.684.046 1.363.097 2.046.002l2.291-.14c.618.421 1.853-.306 1.295-1.032-.609-.534-1.491-.488-2.219-.762-1.279-.42-2.581-.759-3.9-1.025-.922-.055-.808-1.269.002-1.403.531-.198.992.21 1.501.273.87.187 1.768.184 2.637.374.737-.364.167-1.441-.499-1.503-1.573-.562-2.933-1.578-4.262-2.565l-4.284-3.458c-.539-.334-1.422-.43-1.564-1.17-.05-.681.751-.991 1.32-.832.806.238 1.557.653 2.379.856.645.11 1.309.3 1.93.219.789-.496-.338-.812-.746-.984-1.052-.567-1.986-1.323-2.932-2.043-.8-.683.678-.984 1.187-.721.85.356.947-.883.311-1.195-.749-.318-1.392-.847-2.071-1.308-1.227-.873-2.616-1.564-4.123-1.756-1.69-.17-3.268-1.142-4.165-2.588-.556-.824-.964-1.735-1.359-2.644zm-5.551 9.484c.871.026.737 1.596-.12 1.491-.833-.054-.782-1.66.12-1.491zm8.218.846c.848-.152 1.027 1.395.18 1.468-.883.158-1.21-1.566-.18-1.468zm-2.407.202c.859.169.707 1.666-.161 1.679-.635.141-1.319.574-1.961.25-.522-.552.233-1.369.815-1.548.447-.09.858-.293 1.306-.381zm5.54.007c.828.302.536 1.764-.338 1.746-.826.111-1.211-1.268-.44-1.594.249-.088.511-.163.778-.151zm-9.345 1.659c.609.58.249 1.698-.502 1.966-.541.301-1.279 1.013-1.869.427-.32-.716.483-1.255.955-1.652.422-.328.887-.625 1.415-.741zm6.956 3.233c.872.412.429 1.983-.528 1.885-.786-.199-.683-1.547.108-1.655.15-.057.287-.142.419-.231zm-2.767.156c.815.382.193 1.743-.629 1.547-.852-.1-.836-1.597.103-1.462.177-.009.36-.013.525-.084zm5.964.781c.894-.277 1.97.644 1.68 1.577-.398.724-1.383.816-2.089.545-.81-.04-1.355-1.258-.633-1.774.299-.226.675-.318 1.043-.348zm-13.203.234c.739-.402 1.524.806.895 1.339-.416.612-1.485.862-1.957.181-.392-.665.242-1.782 1.062-1.521zm-3.41.572c.838.115 1.385.876 1.694 1.601.076.884-1.228 1.368-1.797.726-.64-.401-1.199-1.226-.864-1.992.207-.304.618-.43.967-.335zm20.401 3.194c.91-.24 1.57 1.214.789 1.74-.714.649-2.103-.211-1.731-1.137.185-.343.556-.571.942-.604zm-11.581 1.659c.763.097.516 1.419-.19 1.375-.757-.14-.584-1.45.19-1.375zm-3.87.702c.622-.44 1.425.634.907 1.135-.62.437-1.425-.621-.907-1.135zm6.153.13c.721.438 1.15 1.255 1.239 2.08-.346.77-1.681.585-1.831-.236-.264-.649-.021-1.484.592-1.844zm2.147 1.275c.929-.233.596 1.709-.18 1.035-.258-.306-.12-.81.18-1.035zm-13.486 1.353c.615-.18 1.513.009 1.683.716.072.664-.658 1.009-1.193 1.174-.857.265-1.696.699-2.618.641-.691-.395-.939-1.203-1.185-1.908.667-.625 1.649-.442 2.476-.598l.838-.023zm20.92 3.044c.785-.385 1.629.861.972 1.443-.822.946-2.405 1.122-3.388.327-.118-.837.718-1.446 1.461-1.566.313-.088.623-.22.954-.205zm4.413.956c.892-.154 1.595 1.119.958 1.778-.603.909-2.041 1.148-2.863.402-.32-.754.33-1.539 1.022-1.781l.883-.399zm-22.188 1.353c.826-.082 1.583.738 1.475 1.553.598.589-.461 1.685-1.057 1.075-.525-.636-.522-1.499-.726-2.261-.009-.169.116-.388.308-.367zm6.342.475c.854-.369 1.959.653 1.494 1.518-.332.705-1.627.468-1.584-.348-.002-.39-.034-.791.09-1.17zm-3.085.553c.856-.196 1.642.914 1.166 1.655-.854.076-1.297-.937-1.166-1.655z" fill="#00a651"/></g></symbol></svg>