<svg xmlns="http://www.w3.org/2000/svg" xmlns:xlink="http://www.w3.org/1999/xlink" viewBox="0 0 151 102" fill="#fff" fill-rule="evenodd" stroke="#000" stroke-linecap="round" stroke-linejoin="round"><style><![CDATA[.B{stroke:none}.C{font-family:Roboto Condensed}.D{fill:#000}.E{fill:#bf0a30}]]></style><use xlink:href="#A" x=".5" y=".5"/><defs><style>@import url("https://fonts.googleapis.com/css?family=Roboto+Condensed:400,400i,700,700i"); @import url("https://fonts.googleapis.com/css?family=Roboto:400,400i,700,700i"); </style></defs><symbol id="A" overflow="visible"><path d="M0 0h150v100H0z" class="B"/><path d="M0 0h150v9.091H0z" class="B E"/><path d="M0 18.182h150v9.091H0z" class="B E"/><path d="M0 36.364h150v9.091H0z" class="B E"/><g class="B"><path d="M0 0h45.5v45.5H0z" fill="#002868"/><path d="M30.773 33.793l-3.065-9.432 8.023-5.829h-9.917L22.75 9.1l-3.065 9.432H9.768l8.023 5.829-3.065 9.432 8.023-5.829z"/><path d="M0 54.545h150v9.091H0z" class="E"/></g><path d="M0 72.727h150v9.091H0z" class="B E"/><path d="M0 90.909h150V100H0z" class="B E"/></symbol></svg>