<svg xmlns="http://www.w3.org/2000/svg" xmlns:xlink="http://www.w3.org/1999/xlink" viewBox="0 0 151 101" fill="#fff" fill-rule="evenodd" stroke="#000" stroke-linecap="round" stroke-linejoin="round"><use xlink:href="#A" x=".5" y=".5"/><symbol id="A" overflow="visible"><g stroke="none"><path d="M0 0h150v100H0z" fill="#00785e"/><path d="M73.767 22.651h-3.993l3.23 2.347-1.233 3.796L75 26.448l3.229 2.346-1.233-3.796 3.23-2.347h-3.993L75 18.854zM52.121 38.293l-2.02-1.884 2.741.336 1.167-2.503.527 2.71 2.741.336-2.415 1.34.527 2.711-2.02-1.884-2.416 1.34zm8.427-8.504l-2.762-.048 2.263-1.584-.807-2.641 2.206 1.662 2.263-1.585-.899 2.612 2.207 1.662-2.762-.048-.9 2.613zm37.331 8.504l2.02-1.884-2.741.336-1.167-2.503-.527 2.71-2.741.336 2.415 1.34-.527 2.711 2.02-1.884 2.416 1.34zm-8.427-8.504l2.762-.048-2.263-1.584.807-2.641-2.206 1.662-2.263-1.585.899 2.612-2.207 1.662 2.762-.048.9 2.613z" fill="#fbd116"/><path d="M75 69.088h21.349l.793-.833H75 52.858l.793.833zm0-6.527a16.83 16.83 0 0 0 10.885 3.976H98.6a30.09 30.09 0 0 0 1.219-1.667H86.667c-1.703 0-3.347-.252-4.897-.721-3.321-1.005-5.571-2.821-6.769-3.955-1.198 1.134-3.449 2.95-6.769 3.955-1.55.469-3.194.721-4.897.721H50.181l1.219 1.667h12.715c4.146 0 7.944-1.495 10.886-3.976zm0-4.191c3.076 3.203 7.4 5.197 12.188 5.197a16.86 16.86 0 0 0 12.664-5.715c-.708-.042-1.387-.194-2.02-.438a16.84 16.84 0 0 1-11.739 4.746 16.98 16.98 0 0 1-3.005-.267 17.04 17.04 0 0 0 1.39.059c7.226 0 13.397-4.543 15.812-10.926a19.79 19.79 0 0 0-7.635-1.522c-4.84 0-9.278 1.734-12.726 4.614a19.81 19.81 0 0 1 14.31-6.125 6.8 6.8 0 0 1 1.406-1.854 20.41 20.41 0 0 0-.907-.021c-5.653 0-10.756 2.365-14.375 6.159 2.078-2.808 3.307-6.28 3.307-10.039 0-3.022-.795-5.858-2.186-8.314a6.77 6.77 0 0 1-1.569 2.705c1.038 2.191 1.62 4.639 1.62 7.223a16.82 16.82 0 0 1-3.529 10.331c1.801-2.687 2.852-5.918 2.852-9.393 0-1.674-.244-3.292-.698-4.819C78.948 35.893 76.374 33.232 75 32c-1.374 1.232-3.948 3.893-5.161 7.972-.454 1.527-.698 3.145-.698 4.819 0 3.475 1.051 6.706 2.852 9.393a16.82 16.82 0 0 1-3.529-10.33 16.82 16.82 0 0 1 1.619-7.223 6.77 6.77 0 0 1-1.569-2.705c-1.391 2.455-2.186 5.292-2.186 8.314 0 3.759 1.229 7.232 3.307 10.039-3.619-3.794-8.722-6.159-14.375-6.159a20.4 20.4 0 0 0-.907.021 6.8 6.8 0 0 1 1.406 1.854c5.623.009 10.7 2.358 14.31 6.125-3.448-2.88-7.886-4.614-12.726-4.614a19.79 19.79 0 0 0-7.635 1.522c2.416 6.383 8.586 10.926 15.812 10.926a17.04 17.04 0 0 0 1.39-.059 16.98 16.98 0 0 1-3.005.267c-4.559 0-8.697-1.808-11.739-4.746-.633.244-1.312.396-2.02.438a16.86 16.86 0 0 0 12.664 5.715c4.788 0 9.112-1.994 12.188-5.197zm0 17.541h11.065a29.89 29.89 0 0 1-22.129 0zm0-5.104h19.507l-1.629 1.302H75 57.122l-1.629-1.302zm0 2.604h15.978a29.93 29.93 0 0 1-3.01 1.667H75 62.032a29.93 29.93 0 0 1-3.01-1.667z"/></g></symbol></svg>