<svg xmlns="http://www.w3.org/2000/svg" xmlns:xlink="http://www.w3.org/1999/xlink" viewBox="0 0 151 101" fill="#fff" fill-rule="evenodd" stroke="#000" stroke-linecap="round" stroke-linejoin="round"><use xlink:href="#A" x=".5" y=".5"/><defs><style>@import url("https://fonts.googleapis.com/css?family=Roboto:400,400i,700,700i");</style></defs><symbol id="A" overflow="visible"><g stroke="none"><path d="M0 0h150v100H0z" fill="#000"/><g fill="#ce1126"><path d="M53.5 38c0-11.911 9.589-21.5 21.5-21.5S96.5 26.089 96.5 38 86.911 59.5 75 59.5 53.5 49.911 53.5 38z"/><path d="M0 33.333h150v33.333H0zM75 4c-.733 0-1 1.1-1 2.167 0 2.667.333 4 1 7.833.68-3.833 1-5.2 1-7.833C76 5.067 75.667 4 75 4m2.963.13c-.731-.064-1.092 1.009-1.185 2.071-.232 2.657-.017 4.014.313 7.891 1.012-3.759 1.449-5.093 1.679-7.716.096-1.096-.143-2.187-.807-2.246m2.941.387c-.722-.127-1.176.91-1.361 1.96-.463 2.626-.366 3.997-.375 7.888 1.335-3.657 1.888-4.947 2.345-7.541.191-1.083.048-2.192-.609-2.307m2.896.641c-.708-.19-1.251.804-1.527 1.834-.69 2.576-.713 3.95-1.061 7.825 1.649-3.527 2.312-4.764 2.993-7.308.285-1.063.239-2.179-.405-2.352m2.829.893c-.689-.251-1.316.692-1.681 1.694-.912 2.506-1.055 3.873-1.739 7.703 1.95-3.37 2.718-4.544 3.619-7.019.376-1.034.428-2.15-.199-2.378m2.74 1.136c-.665-.31-1.371.574-1.822 1.541-1.127 2.417-1.388 3.766-2.404 7.522 2.236-3.187 3.104-4.29 4.217-6.677.465-.997.614-2.105.009-2.386M92 8.556c-.635-.367-1.416.453-1.949 1.376-1.333 2.309-1.711 3.631-3.051 7.284 2.506-2.98 3.466-4.003 4.783-6.284.55-.953.795-2.043.217-2.376m2.502 1.592c-.601-.421-1.45.327-2.062 1.201-1.53 2.184-2.021 3.468-3.674 6.99 2.756-2.75 3.802-3.686 5.312-5.843.631-.901.97-1.966.424-2.348m2.353 1.806c-.562-.471-1.473.2-2.159 1.017-1.714 2.043-2.316 3.278-4.269 6.643 2.985-2.499 4.109-3.341 5.801-5.358.707-.843 1.137-1.874.627-2.303m2.187 2.005c-.519-.519-1.485.071-2.239.825-1.886 1.886-2.593 3.064-4.832 6.246 3.191-2.23 4.384-2.97 6.246-4.832.778-.778 1.296-1.768.825-2.239m2.003 2.187c-.471-.562-1.485-.059-2.303.627-2.043 1.714-2.85 2.826-5.358 5.801 3.374-1.943 4.626-2.576 6.643-4.269.843-.707 1.446-1.648 1.017-2.159m1.807 2.353c-.421-.601-1.475-.188-2.348.424-2.184 1.53-3.085 2.567-5.843 5.312 3.53-1.642 4.833-2.163 6.99-3.674.901-.631 1.584-1.516 1.201-2.062M104.445 21c-.367-.635-1.453-.316-2.376.217-2.309 1.333-3.297 2.289-6.284 4.783 3.66-1.328 5.003-1.734 7.284-3.051.953-.55 1.71-1.372 1.376-1.949m1.369 2.631c-.31-.665-1.42-.441-2.386.009-2.417 1.127-3.484 1.993-6.677 4.217 3.762-1.004 5.135-1.291 7.522-2.404.997-.465 1.823-1.218 1.541-1.822m1.136 2.74c-.251-.689-1.376-.563-2.378-.199-2.506.912-3.645 1.681-7.019 3.619 3.835-.672 5.228-.839 7.703-1.739 1.034-.376 1.922-1.054 1.694-1.681m.891 2.829c-.19-.708-1.321-.681-2.352-.405-2.576.69-3.777 1.357-7.308 2.993 3.879-.335 5.282-.38 7.825-1.061 1.063-.285 2.007-.883 1.834-1.527"/><path d="M41.517 32.096c-.127.722.91 1.176 1.96 1.361 2.626.463 3.997.366 7.888.375-3.657-1.335-4.947-1.888-7.541-2.345-1.083-.191-2.192-.048-2.307.609m.641-2.896c-.19.708.804 1.251 1.834 1.527 2.576.69 3.95.713 7.825 1.061-3.527-1.649-4.764-2.312-7.308-2.993-1.062-.285-2.179-.239-2.352.405m.893-2.829c-.251.689.692 1.316 1.694 1.681 2.506.912 3.873 1.055 7.703 1.739-3.37-1.95-4.544-2.718-7.019-3.619-1.034-.376-2.15-.428-2.378.199m1.136-2.74c-.31.665.574 1.371 1.541 1.822 2.417 1.127 3.766 1.388 7.522 2.404-3.187-2.236-4.29-3.104-6.677-4.217-.997-.465-2.105-.614-2.386-.009M45.556 21c-.367.635.453 1.416 1.376 1.949 2.309 1.333 3.631 1.711 7.284 3.051-2.98-2.506-4.003-3.466-6.284-4.783-.953-.55-2.043-.795-2.376-.217m1.593-2.501c-.421.601.327 1.45 1.201 2.062 2.184 1.53 3.468 2.021 6.99 3.674-2.75-2.756-3.686-3.802-5.843-5.312-.901-.631-1.966-.97-2.348-.424m1.805-2.353c-.471.562.2 1.473 1.017 2.159 2.043 1.714 3.278 2.316 6.643 4.269-2.499-2.985-3.341-4.109-5.358-5.801-.843-.707-1.874-1.137-2.303-.627m2.005-2.187c-.519.519.071 1.485.825 2.239 1.886 1.886 3.064 2.593 6.246 4.832-2.23-3.191-2.97-4.384-4.832-6.246-.778-.778-1.768-1.296-2.239-.825m2.187-2.004c-.562.471-.059 1.485.627 2.303 1.714 2.043 2.826 2.85 5.801 5.358-1.943-3.374-2.576-4.626-4.269-6.643-.707-.843-1.648-1.446-2.159-1.017m2.353-1.808c-.601.421-.188 1.475.424 2.348 1.53 2.184 2.567 3.085 5.312 5.843-1.642-3.53-2.163-4.833-3.674-6.99-.631-.901-1.516-1.584-2.062-1.201M58 8.555c-.635.367-.316 1.453.217 2.376 1.333 2.309 2.289 3.297 4.783 6.284-1.328-3.66-1.734-5.003-3.051-7.284-.55-.953-1.372-1.71-1.949-1.376m2.631-1.369c-.665.31-.441 1.42.009 2.386 1.127 2.417 1.993 3.484 4.217 6.677-1.004-3.762-1.291-5.135-2.404-7.522-.465-.997-1.218-1.823-1.822-1.541m2.74-1.136c-.689.251-.563 1.376-.199 2.378.912 2.506 1.681 3.645 3.619 7.019-.672-3.835-.839-5.228-1.739-7.703-.376-1.034-1.054-1.922-1.681-1.694m2.829-.892c-.708.19-.681 1.321-.405 2.352.69 2.576 1.357 3.777 2.993 7.308-.335-3.879-.38-5.282-1.061-7.825-.285-1.063-.883-2.007-1.527-1.834m2.896-.643c-.722.127-.794 1.257-.609 2.307.463 2.626 1.023 3.881 2.345 7.541.004-3.893.082-5.295-.375-7.888-.191-1.083-.705-2.076-1.361-1.96m2.941-.387c-.731.064-.9 1.183-.807 2.246.232 2.657.681 3.956 1.679 7.716.343-3.878.543-5.267.313-7.891-.096-1.096-.521-2.129-1.185-2.071"/></g><path d="M0 30.833h150v2.5H0z" fill="#000"/><path d="M0 66.667h150V100H0z" fill="#339e35"/></g></symbol></svg>