<svg xmlns="http://www.w3.org/2000/svg" xmlns:xlink="http://www.w3.org/1999/xlink" viewBox="0 0 151 102" fill="#fff" fill-rule="evenodd" stroke="#000" stroke-linecap="round" stroke-linejoin="round"><use xlink:href="#A" x=".5" y=".5"/><defs><style>@import url("https://fonts.googleapis.com/css?family=Roboto:400,400i,700,700i");</style></defs><symbol id="A" overflow="visible"><g stroke="none"><path d="M0 0h150v100H0z" fill="#cc0001"/><path d="M0 92.857h150V100H0zm0-14.286h150v7.143H0zm0-14.285h150v7.143H0zM75 50h75v7.143H75zm0-14.286h75v7.143H75zm0-14.285h75v7.143H75zm0-14.286h75v7.143H75z"/><path d="M0 0h75v57.143H0z" fill="#010066"/><path d="M64.655 39.726l-9.056-4.725 2.678 9.671-6.057-8.09-1.89 9.846-1.859-9.852-6.083 8.071 2.708-9.662-9.071 4.698 6.739-7.56-10.263.394 9.435-3.959-9.422-3.988 10.262.425-6.715-7.58 9.056 4.725-2.678-9.671 6.057 8.09 1.89-9.846 1.859 9.852 6.083-8.071-2.708 9.662 9.071-4.698-6.739 7.56 10.263-.394-9.435 3.959 9.422 3.988-10.262-.425zM29 7.143c-11.868 0-21.5 9.6-21.5 21.429S17.132 50 29 50a21.44 21.44 0 0 0 11.638-3.413c-1.954.674-4.051 1.043-6.234 1.043-10.523 0-19.064-8.512-19.064-19.001s8.541-19 19.064-19a19.06 19.06 0 0 1 6.614 1.176C37.587 8.494 33.45 7.143 29 7.143z" fill="#fc0"/></g></symbol></svg>