<svg xmlns="http://www.w3.org/2000/svg" xmlns:xlink="http://www.w3.org/1999/xlink" viewBox="0 0 151 101" fill="#fff" fill-rule="evenodd" stroke="#000" stroke-linecap="round" stroke-linejoin="round"><use xlink:href="#A" x=".5" y=".5"/><defs><style>@import url("https://fonts.googleapis.com/css?family=Roboto:400,400i,700,700i");</style></defs><symbol id="A" overflow="visible"><g stroke="none"><path d="M0 0h150v100H0z" fill="#003893"/><path d="M0 98.4V96l150-84.333V40.8z"/><path d="M0 96.8v-1.6L150 1.6v19.6z" fill="#dd7500"/><path d="M33.535 42.623l4.052 9.038-5.791-8.014 1.565 9.765-3.525-9.256-1.01 16.803-1.01-16.803-3.525 9.256 1.575-9.779-5.801 8.028 4.052-9.038-7.681 6.253 6.253-7.681-9.038 4.052 8.028-5.801-9.779 1.575 9.256-3.525-16.803-1.01 16.803-1.01L11.9 31.95l9.779 1.575-8.028-5.801 9.038 4.052-6.253-7.681 7.681 6.253-4.052-9.038 5.801 8.028-1.575-9.779 3.525 9.256 1.01-16.803 1.01 16.803 3.525-9.256-1.575 9.779 5.801-8.028-4.045 9.023 7.674-6.238-6.253 7.681 9.038-4.052-8.028 5.801 9.779-1.575-9.255 3.525 16.803 1.01-16.803 1.01 9.255 3.525-9.779-1.575 8.028 5.801-9.038-4.052 6.253 7.681z"/></g></symbol></svg>