<svg xmlns="http://www.w3.org/2000/svg" xmlns:xlink="http://www.w3.org/1999/xlink" viewBox="0 0 151 101" fill="#fff" fill-rule="evenodd" stroke="#000" stroke-linecap="round" stroke-linejoin="round"><style><![CDATA[.B{stroke:none}.C{font-family:Roboto Condensed}]]></style><use xlink:href="#A" x=".5" y=".5"/><defs><style>@import url("https://fonts.googleapis.com/css?family=Roboto:400,400i,700,700i"); @import url("https://fonts.googleapis.com/css?family=Roboto+Condensed:400,400i,700,700i"); </style></defs><symbol id="A" overflow="visible"><g class="B"><path d="M0 0h150v100H0z" fill="#75b2dd"/><path d="M78.632 21.18l5.878-4.271h-7.265L75 10l-2.245 6.91h-7.265l5.878 4.27-2.245 6.91L75 23.82l5.878 4.271z"/></g><path d="M101.181 50l-4.27 5.878 6.91-2.245 4.27 5.878v-7.265L115 50l-6.91-2.245V40.49l-4.27 5.878-6.91-2.245zM72.754 83.09L75 90l2.245-6.91h7.265l-5.878-4.271 2.245-6.91L75 76.181l-5.878-4.27 2.245 6.91-5.878 4.271z" class="B"/><path d="M41.91 47.755L35 50l6.91 2.245v7.265l4.27-5.878 6.91 2.245L48.82 50l4.271-5.878-6.91 2.245-4.271-5.878z" class="B"/></symbol></svg>