<svg xmlns="http://www.w3.org/2000/svg" xmlns:xlink="http://www.w3.org/1999/xlink" viewBox="0 0 151 101" fill="#fff" fill-rule="evenodd" stroke="#000" stroke-linecap="round" stroke-linejoin="round"><use xlink:href="#A" x=".5" y=".5"/><defs><style>@import url("https://fonts.googleapis.com/css?family=Roboto+Condensed:400,400i,700,700i"); @import url("https://fonts.googleapis.com/css?family=Roboto:400,400i,700,700i"); </style></defs><symbol id="A" overflow="visible"><path fill="#c1272d" stroke="none" d="M0 0h150v100H0z"/><path d="M75.129 56.168L85 63.333l-3.865-11.595 9.698-7.155H78.75L75 33.333l-3.594 11.25h-12.24l9.936 7.212-3.686 11.538zm-1.987-1.442l-1.978-1.435-1.208 3.792zm3.832-7.539h-3.865l-1.212 3.806 3.172 2.308 3.161-2.338zm2.644 0h3.715l-2.98 2.205zm-3.51-2.604h-2.17L75 41.25zm-6.271 4.912l.737-2.308h-3.908zm9.171 3.812l1.255 3.776-3.209-2.335z" fill="#006233" stroke="none"/></symbol></svg>