<svg xmlns="http://www.w3.org/2000/svg" xmlns:xlink="http://www.w3.org/1999/xlink" viewBox="0 0 151 101" fill="#fff" fill-rule="evenodd" stroke="#000" stroke-linecap="round" stroke-linejoin="round"><use xlink:href="#A" x=".5" y=".5"/><defs><style>@import url("https://fonts.googleapis.com/css?family=Roboto:400,400i,700,700i");</style></defs><symbol id="A" overflow="visible"><g stroke="none"><path d="M0 0v80L120 0z" fill="#003580"/><path d="M0 80v5L127.5 0H120z"/><g fill="#ffce00"><circle cx="30" cy="27.208" r="8.333"/><path d="M20.331 24.637a9.96 9.96 0 0 1 2.563-4.477l-7.328-1.256zm-.013.05c-.208.805-.318 1.65-.318 2.521a10.06 10.06 0 0 0 .343 2.616l-7.01-2.589zm7.107-7.147a10.08 10.08 0 0 1 5.15 0L30 10.569zm-4.502 2.59a9.96 9.96 0 0 1 4.459-2.579l-5.715-4.75zm16.736 4.47a9.96 9.96 0 0 0-2.554-4.442l7.328-1.256z"/><path d="M39.66 24.6a10.08 10.08 0 0 1-.002 5.222l7.009-2.586zm-7.042-7.048a9.96 9.96 0 0 1 4.459 2.579l1.256-7.328zm-.021 19.318L30 43.902l-2.568-7.024a10.08 10.08 0 0 0 5.165-.008z"/><path d="M32.597 36.87l5.736 4.799-1.264-7.375a9.96 9.96 0 0 1-4.472 2.576z"/><path d="M37.069 34.294a9.96 9.96 0 0 0 2.589-4.472l4.776 5.747zm-16.726-4.469a9.96 9.96 0 0 0 2.598 4.48l-7.375 1.264z"/><path d="M22.942 34.305l-1.275 7.365 5.765-4.791a9.96 9.96 0 0 1-4.491-2.573z"/></g><path d="M150 15v5L30 100h-7.5z"/><path d="M150 15V0h-22.5L0 85v15h22.5z" fill="#d21034"/><path d="M30 100h120V20z" fill="#009543"/></g></symbol></svg>