<svg xmlns="http://www.w3.org/2000/svg" xmlns:xlink="http://www.w3.org/1999/xlink" viewBox="0 0 151 101" fill="#fff" fill-rule="evenodd" stroke="#000" stroke-linecap="round" stroke-linejoin="round"><use xlink:href="#A" x=".5" y=".5"/><defs><style>@import url("https://fonts.googleapis.com/css?family=Roboto:400,400i,700,700i");</style></defs><symbol id="A" overflow="visible"><g stroke="none"><path fill="#fcd116" d="M0 0h150v100H0z"/><path fill="#002868" d="M0 0h75v50H0z"/><path d="M45.75 13.875V0h-16.5v13.875L8.438 0H0v5.5l16.688 11.25H0v16.5h16.688L0 44.5V50h8.438L29.25 36.125V50h16.5V36.125L66.563 50H75v-5.5L58.313 33.25H75v-16.5H58.313L75 5.5V0h-8.437z"/><path d="M42.5 20H75v10H42.5v20h-10V30H0V20h32.5V0h10zM0 0v3.75l19.5 13h5.625L0 0zm75 50v-3.75l-19.5-13h-5.625L75 50zM44.437 16.75L69.375 0H75L49.875 16.75z" fill="#cf142b"/><circle cx="37.5" cy="25" fill="#002868" r="8.5"/><path d="M60.583 23.75h3.667l-2.94 2.181L62.5 29.5l-3-2.226-3 2.226 1.19-3.569-2.94-2.181h3.667L59.5 20.5zm-44 0h3.667l-2.94 2.181L18.5 29.5l-3-2.226-3 2.226 1.19-3.569-2.94-2.181h3.667L15.5 20.5zm19.032-1.5L37.5 16.5l1.885 5.75H45.5l-4.903 3.695L42.5 31.75l-5-3.585-5 3.585 1.903-5.805L29.5 22.25zm2.968 18.25h3.667l-2.94 2.181 1.19 3.569-3-2.226-3 2.226 1.19-3.569-2.94-2.181h3.667l1.083-3.25z" fill="#fcd116"/><path d="M29.25 33.25v.882L5.625 50H0l25.125-16.75z" fill="#cf142b"/><path d="M38.583 7.25h3.667l-2.94 2.181L40.5 13l-3-2.226-3 2.226 1.19-3.569-2.94-2.181h3.667L37.5 4z" fill="#fcd116"/></g></symbol></svg>