<svg xmlns="http://www.w3.org/2000/svg" xmlns:xlink="http://www.w3.org/1999/xlink" viewBox="0 0 151 101" fill="#fff" fill-rule="evenodd" stroke="#000" stroke-linecap="round" stroke-linejoin="round"><use xlink:href="#A" x=".5" y=".5"/><defs><style>@import url("https://fonts.googleapis.com/css?family=Roboto:400,400i,700,700i");</style></defs><symbol id="A" overflow="visible"><g stroke="none"><path d="M0 0h150v100H0z"/><path d="M37.5 0H150v100H37.5z" fill="#01411c"/><path d="M109.516 32.982l6.656-2.913-3.673 6.269 4.827 5.43-7.097-1.556-3.673 6.269-.713-7.23-7.097-1.556 6.656-2.913-.713-7.23zm11.578 29.417C116.393 72.799 105.943 80 93.75 80c-16.62 0-30-13.38-30-30 0-13.438 8.746-24.757 20.88-28.599a28.16 28.16 0 0 0-1.482 1.229 27.44 27.44 0 0 0-2.284 38.824 27.44 27.44 0 0 0 38.824 2.284 28.16 28.16 0 0 0 1.406-1.339z"/></g></symbol></svg>