<svg xmlns="http://www.w3.org/2000/svg" xmlns:xlink="http://www.w3.org/1999/xlink" viewBox="0 0 151 101" fill="#fff" fill-rule="evenodd" stroke="#000" stroke-linecap="round" stroke-linejoin="round"><use xlink:href="#A" x=".5" y=".5"/><symbol id="A" overflow="visible"><g stroke="none"><path d="M0 0h150v100H0z" fill="#006c35"/><path d="M64.656 23.618c-.078-.002-.194.041-.356.137-.366.245-1.09 1-1.112 1.869-.022.49-.115.488.206.8.232.334.463.301.931.056.269-.198.36-.324.45-.656.112-.557-.586.263-.675-.356-.156-.575.289-.812.713-1.369.01-.262.014-.476-.156-.481zm6.812.038c-.131.018-.291.185-.513.587-.159.421-.845 1.059-.35 2.375.405.834.571 2.19.388 3.7-.281.429-.345.577-.713 1.006-.517.556-1.077.414-1.506.206-.401-.271-.717-.409-.9-1.269.033-1.37.113-3.612-.138-4.088-.369-.737-.977-.473-1.237-.25-1.249 1.142-1.867 3.071-2.244 4.606-.347 1.119-.716.795-.975.344-.631-.591-.675-5.217-1.437-4.456-1.22 3.488.7 7.309 2.031 6.938.96.398 1.569-1.43 1.962-3.431.269-.562.474-.626.612-.337-.035 2.661.191 3.255.875 4.062 1.526 1.177 2.789.149 2.888.05l1.188-1.187c.264-.278.614-.295.987-.05.363.33.316.898 1.094 1.294.654.262 2.051.064 2.375-.5l.744-1.287c.311-.414.844-.231.844-.1-.05.231-.362.459-.15.875.37.278.456.099.675.038.774-.37 1.356-2.05 1.356-2.05.034-.627-.322-.579-.55-.45-.297.182-.315.243-.612.425-.379.056-1.112.306-1.475-.256-.371-.676-.373-1.618-.656-2.3 0-.05-.495-1.072-.038-1.138.231.043.728.171.806-.244.242-.405-.523-1.552-1.044-2.131-.452-.496-1.076-.557-1.681-.05-.424.39-.361.825-.444 1.237-.108.474-.087 1.061.394 1.688.423.834 1.191 1.903.938 3.412 0 0-.446.718-1.231.625-.327-.071-.86-.213-1.144-2.306-.214-1.584.054-3.804-.619-4.844-.152-.392-.282-.773-.5-.744zm-2.156.168c-.203.018-.429.255-.612.712-.158.348-.35 2.169-.319 2.169-.126.542.566.771.881.075.472-1.277.475-1.821.506-2.362-.074-.412-.253-.612-.456-.594zm7.962.144c-.209.019-.375.141-.437.45-.083.726-.041 1.121.081 1.725.094.403.68 1.078.969 1.469l3.988 5.644.444 4.225c.208 3.057.271 6.862.081 10.081.573.023 1.49-.925 1.813-2.312.209-1.919-.075-5.836-.094-6.969a64.14 64.14 0 0 0-.075-1.619c1.49 2.436 2.937 5.016 4.356 7.85.517-.246.403-3.16.1-3.569-1.136-2.445-2.706-4.859-3.206-5.788-.181-.335-.796-1.271-1.525-2.35-.134-1.54-.28-2.844-.375-3.238-.234-1.628.669.184.544-.762-.293-1.625-1.19-2.73-2.25-4.219-.342-.484-.335-.583-.862.119-.315.715-.311 1.311-.219 1.869a9.93 9.93 0 0 0-.556-.737l-1.731-1.469c-.24-.17-.696-.432-1.044-.4zm23.6.244c-.102-.016-.213.034-.338.219-.239.209-.495.588-.487 1.075.058.858.211 1.736.269 2.594l.063.344a3.35 3.35 0 0 0-.219-.256c-1.672-1.756.768-.287-.319-1.644-.919-1.009-1.188-1.331-1.975-1.937-.395-.255-.633-.742-.763.087-.052.729-.105 1.573-.056 2.188-.003.342.351.984.656 1.362 1.115 1.37 2.255 2.828 3.4 4.35.241 3.103.305 5.948.55 9.056-.035 1.329-.444 3.095-.831 3.262 0 0-.592.34-.987-.037-.288-.116-1.437-1.919-1.437-1.919-.589-.54-.981-.385-1.4 0-1.155 1.115-1.677 3.205-2.462 4.644-.202.321-.772.594-1.406-.025-1.61-2.199-.668-5.33-.869-4.525-1.434 1.616-.799 4.293-.475 4.869.473.946.855 1.551 1.775 2.019.838.617 1.49.232 1.85-.2.843-.874.854-3.108 1.25-3.55.278-.812.973-.672 1.313-.312.329.473.717.78 1.2 1.038.786.694 1.725.82 2.65.188.632-.355 1.042-.815 1.412-1.725.397-1.062.201-6.628.112-9.725l1.763 2.556c.256 2.718.372 5.395.288 7.962-.06.51 1.781-1.524 1.769-2.488v-2.319c.893 1.426 1.758 2.876 2.575 4.344.506-.268.333-3.136.013-3.531-.856-1.436-1.951-2.987-2.8-4.188-.168-1.515-.396-3.302-.5-3.85-.162-.854-.324-2.137-.569-3.15-.067-.396-.27-1.66-.206-1.781.1-.283.477.009.662-.319.278-.303-.964-3.52-1.594-4.438-.227-.411-.636-.269-1.144.4-.471.44-.298 1.445-.119 2.4.467 2.435.883 4.914 1.213 7.388l-2.088-3.062-.094-.481c0-.044-.101-1.992-.187-2.456-.015-.188-.06-.243.137-.219.209.176.238.186.369.244.211.039.396-.319.269-.65l-1.962-3.625c-.079-.077-.167-.159-.269-.175zm-60.906.063c-.362-.01-.762.214-.606.65-.091.237.71 1.04.85 1.481.126.314-.125 1.325.138 1.419.241.105.574-.7.7-1.444.07-.407.017-1.802-.931-2.088a.78.78 0 0 0-.15-.019zm69.382.008c-.083.008-.183.142-.338.469-.371.608-.499 1.695-.35 2.656.893 6.041 1.557 11.89 1.694 17.244-.077.508-.099.779-.337 1.419-.527.676-1.108 1.523-1.656 1.931s-1.713.797-2.094 1.1c-1.209.699-1.215 1.502-.238 1.531 1.684-.196 3.677-.334 5.05-2.406.367-.581.8-2.155.819-3.119.128-5.649-.072-11.173-.919-15.256-.054-.398-.23-1.312-.162-1.431.109-.28.66.028.856-.294.288-.294-1.425-2.487-2.025-3.425-.12-.235-.194-.429-.3-.419zm-17.662.094c-.07.012-.172.118-.362.369-.471 1.538-.636 2.795-.456 3.75 1.209 6.307 2.447 12.053 2.25 18.056.573.004 1.236-1.311 1.519-2.612.155-1.793-.103-2.884-.15-3.938s-1.193-9.603-1.425-10.4c-.28-1.507 1.115-.198.963-1.075-.482-1.105-1.686-2.715-2.062-3.675-.142-.257-.159-.495-.275-.475zm-43.006.119c-.148.026-.292.148-.344.35-.033.132.057.352-.062.419-.069.069-.33.023-.319-.344 0-.117-.086-.239-.138-.312-.052-.034-.087-.044-.181-.044-.115.005-.112.035-.175.131-.028.098-.064.194-.064.306-.014.13-.067.175-.163.194-.107 0-.082.012-.169-.044-.052-.056-.112-.079-.112-.175a1.03 1.03 0 0 0-.056-.325c-.046-.06-.118-.091-.2-.113-.449.002-.482.518-.456.713-.034.037-.05.952.563 1.206.823.392 2.365.226 2.3-1.1a10.46 10.46 0 0 0-.038-.619c-.084-.196-.239-.269-.387-.244zm11.038.012a1.84 1.84 0 0 0-.75.206c-.545.522-.673 1.359-.244 1.881.418.197.835.618.556.85-1.182 1.262-4.257 3.371-4.412 3.756-.007.015-.006.023-.006.025.007.02.012.024.012.025.019.007.024.012.025.012.156.105 2.081.102 2.294.006.674-.256 3.813-3.844 3.813-3.844-.163-.139-.312-.242-.475-.381-.174-.151-.157-.299 0-.45.777-.452.531-1.448.125-1.9-.337-.151-.653-.202-.937-.187zm28.85.012c-.083.008-.183.135-.338.463-.371.608-.623 1.666-.594 2.656.804 5.563 1.05 10.431 1.575 15.994.043.538-.036 1.32-.394 1.631-1.323 1.381-3.23 3.085-5.306 3.869-.223.251.555 1.32 1.563 1.319 1.684-.196 3.165-1.141 4.538-3.631.367-.581 1.012-1.824 1.031-2.788.128-5.649-.285-10.042-1.131-14.125-.054-.398-.017-.868.05-.987.109-.13.479.003.675-.319.288-.294-.769-2.731-1.369-3.669-.12-.235-.194-.423-.3-.413zm-44.694.17c-.232.027-.451.216-.556.469-.039.892-.044 1.784.056 2.606.406 1.442.534 2.711.731 4.188.055 1.978-1.142.856-1.087-.125.276-1.274.202-3.279-.044-3.788-.195-.508-.42-.634-.894-.55-.376-.023-1.347 1.035-1.619 2.788 0 0-.226.899-.325 1.7-.133.905-.732 1.546-1.15-.125-.361-1.214-.583-4.206-1.187-3.506-.173 2.336-.379 6.447 1.606 6.869 2.401.231 1.075-4.059 1.944-4.838.164-.385.469-.392.494.094v3.644c-.022 1.185.758 1.537 1.362 1.781.63-.049 1.047-.031 1.294.581l.3 6.306s1.455.418 1.525-3.544c.07-2.326-.463-4.279-.15-4.731.011-.445.581-.467.975-.25.628.443.906.987 1.881.769 1.484-.409 2.378-1.129 2.4-2.269-.087-1.083-.212-2.167-.681-3.25.066-.197-.284-.709-.219-.906.267.418.67.383.762 0-.253-.832-.646-1.63-1.281-1.975-.525-.463-1.294-.365-1.575.6-.13 1.112.403 2.429 1.212 3.506.172.421.413 1.12.306 1.75-.431.246-.858.144-1.219-.238 0 0-1.181-.884-1.181-1.081.313-2.007.068-2.237-.106-2.794-.121-.769-.486-1.012-.781-1.538-.296-.313-.696-.313-.888 0-.522.905-.277 2.848.1 3.719.273.801.691 1.3.494 1.3-.162.452-.5.347-.744-.175-.348-1.079-.419-2.687-.419-3.412-.104-.899-.221-2.819-.812-3.306-.158-.215-.344-.29-.525-.269zm8.431.012c-.119.015-.251.083-.406.119-.51.162-.988.604-.837 1.463l1.6 10.131c.093.429-.267.995-.731.938-.789-.534-.985-1.615-2.331-1.569-.975.012-2.086 1.072-2.225 2.094-.163.812-.22 1.692 0 2.4.685.824 1.506.736 2.225.55.592-.244 1.078-.827 1.288-.687.135.232-.006 2.139-2.781 3.612-1.706.766-3.063.949-3.794-.444-.453-.87.033-4.185-1.081-3.419-3.295 8.493 7.72 9.679 8.95.35.08-.263.322-.527.494-.462.075.032.144.134.169.325-.255 8.447-8.521 9.026-9.925 6.369-.348-.626-.453-2.021-.487-2.856-.064-.505-.19-.797-.338-.913-.335-.252-.785.405-.881 1.544-.139.917-.1 1.168-.1 2.05.441 6.672 11.078 3.805 12.806-1.706.856-2.849-.017-4.999.269-5.262l.025-.013c.022-.009.039-.012.05-.012 1.056 1.137 2.538.144 2.862-.25.139-.197.488-.324.731-.069.824.592 2.267.313 2.569-.731.174-1.021.321-2.072.356-3.162-.537.167-.97.291-1.144.475-.042.045-.072.096-.081.15l-.137.906c-.005.025-.013.048-.025.069-.023.037-.061.071-.1.094-.19.104-.52.044-.538-.231-.255-1.16-1.306-1.311-1.944.488-.429.348-1.212.416-1.294-.106.104-1.207-.382-1.369-1.356-.8l-.937-7.062c.406-.012.779.283 1.15-.181-.402-1.25-1.252-3.793-1.731-4.031l-.081-.075a.63.63 0 0 0-.031-.025c-.009-.006-.023-.014-.031-.019a.35.35 0 0 0-.062-.025c-.044-.012-.086-.018-.131-.012zm32.868.019c-.422-.012-.888.253-.706.781-.106.288.906 1.265 1.069 1.8.294.822-.224 1.605.081 1.719.281.127.672-.848.819-1.75.17-.729-.351-2.223-1.088-2.531a.87.87 0 0 0-.175-.019zm-25.606.9c.192-.02.424.157.538.406.121.266.06.52-.137.569s-.454-.128-.575-.394-.06-.527.138-.575c.012-.003.025-.005.037-.006zm47.5 1.231c-.384-.013-.803.278-.637.85-.096.312.82 1.371.969 1.95.134.412-.203 1.74.075 1.863.256.137.616-.917.75-1.894.074-.534-.322-2.41-.994-2.744a.71.71 0 0 0-.163-.025zm-26.262.65c.035.157.07.315.094.475.079.346.147.69.219 1.031-.303-.418-.554-.755-.662-.875-.686-.816.015-.536.35-.631zm6.05 2.975c-.148.026-.292.154-.344.356-.033.132.063.346-.056.413-.069.069-.336.029-.325-.338 0-.117-.086-.245-.137-.319-.052-.034-.087-.044-.181-.044-.115.005-.112.035-.175.131-.027.098-.062.195-.062.306-.014.13-.06.175-.156.194-.107 0-.088.012-.175-.044-.052-.056-.113-.079-.113-.175s-.026-.259-.056-.325c-.046-.06-.118-.085-.2-.106-.449.002-.476.512-.45.706-.034.037-.057.958.556 1.212.823.392 2.372.22 2.306-1.106 0-.117-.032-.511-.044-.619-.084-.196-.239-.269-.388-.244zm-27.624.275c-.101-.01-.234.027-.387.119-.728.394-1.009 1.561-.556 2.244.423.602 1.092.381 1.181.381.713.089 1.137-1.337 1.137-1.337s.021-.401-.825.356c-.356.067-.405-.062-.494-.262-.074-.371-.058-.747.113-1.119.079-.223 0-.364-.169-.381zm39.05.181c-.404-.02-.834.242-.944.794.002.326.147.504.119.8-.042.169-.216.28-.631.081.065-.06-.269-.531-.269-.531-.324-.197-.756.011-1.037.194a1.58 1.58 0 0 0-.094 1.256c.465.859 2.059 2.324 2.819 2.338.014-.774.089-1.804.131-2.444.018-.242.075-.508.306-.569s.633.233.638-.019c-.042-.492-.141-1.219-.419-1.562-.142-.211-.376-.326-.619-.338zm-32.324 2.694c-.011.004-.021.013-.031.019a.38.38 0 0 0-.019.013c-.08.06-.175.2-.387.35-.358.407-.422.69-.4 1.506.02.086.679 1.918 1.237 3.206.376 1.339.725 2.871.469 4.319-.881 1.914-2.653 3.63-4.362 4.562-.871.279-1.623.184-1.825-.006a1.14 1.14 0 0 1-.487-1.044c1.449-1.017 3.097-1.831 4.387-4.544.381-1.037.497-1.659.119-3.262-.148-.597-.33-1.089-.737-1.512.252-.124.889.346.987.05-.151-.765-.669-1.793-1.256-2.319-.514-.467-1.073-.521-1.544-.094-.53.295-.643 1.354-.388 2.281.283.698 1.049.82 1.594 2.225.011.094.187 1.055-.087 1.444-.223.695-3.085 2.952-3.288 3.088-.002.002-.017.01-.019.013l-.019.019c-.019-.007-.019-.012-.019-.012-.015-.069 0-.212-.006-.444-.019-.423.156-1.38.144-1.544-.008-.019-.012-.019-.012-.019-.946.611-1.258 2.483-1.431 3.038-2.395 1.655-5.115 2.886-6.681 4.562-.816 1.274 5.621-1.463 6.369-1.794.006.005.013.013.019.019.142.156.154.702.581 1.194.669.906 2.091 1.465 3.475 1.119 2.321-.839 3.658-2.42 5.019-4.175.195-.283.5-.506.781-.288.935 2.094 3.632 3.584 7.119 3.738.807-.981.421-1.464.094-1.669-.101-.067-1.734-.704-1.987-1.337-.16-.59.229-1.113 1.006-1.506 2.239-.271 4.439-.571 6.569-1.256.022-.715.443-1.785.725-2.25.196-.322.322-.354.369-.4l.019-.019a.25.25 0 0 0-.006-.075l-.362-.213-7.144-.031c-.088-.034-.154-.068-.194-.1l-.019-.019a.09.09 0 0 1-.013-.019c-.007-.013-.012-.018-.012-.019v-.025-.025c.008-.01.01-.015.012-.019.035-.047.119-.091.225-.131 1.706-.232 4.736-.729 4.938-3.644-.031-1.518-.65-2.512-2.512-2.788-1.369.106-2.345 1.43-2.188 2.888-.066.392.133 1.163-.269 1.25-2.626.24-5.491 1.885-5.588 3.062l-.025.012c-.017.001-.027.005-.031.006h-.025c-.019-.001-.032-.005-.038-.006-.171-.047-.391-.329-.356-.725-.1-2.035-.762-4.339-1.8-6.112-.37-.37-.532-.52-.637-.538-.017 0-.026 0-.031 0zm6.838 1.075c-.149.026-.292.148-.344.35-.033.132.064.352-.056.419-.069.069-.336.029-.325-.337 0-.117-.086-.245-.137-.319-.052-.034-.081-.044-.175-.044-.115.005-.118.035-.181.131-.027.098-.062.195-.062.306-.014.13-.06.175-.156.194-.107 0-.082.012-.169-.044-.052-.056-.119-.079-.119-.175s-.02-.259-.05-.325c-.046-.06-.124-.085-.206-.106-.449.002-.476.512-.45.706-.034.037-.057.958.556 1.212.823.392 2.783.161 2.306-1.106a10.36 10.36 0 0 0-.044-.619c-.084-.196-.239-.269-.388-.244zm27.594 1.131c-.021-.004-.044-.002-.069.006l-3.906 2.806c-.378.336-.189 1.518 0 1.381.273.105 4.111-2.496 4.038-2.8.167.01.248-1.338-.062-1.394zm-23.992.402c.156-.017.36.036.556.15.285.165.46.413.438.594-.001.024-.011.033-.013.038-.007.022-.011.028-.012.031-.016.028-.031.044-.044.056-.137.128-.452.11-.75-.062-.282-.163-.456-.414-.437-.594.011-.041.02-.062.031-.081.004-.007.008-.019.013-.025.015-.016.027-.029.037-.038.045-.036.11-.061.181-.069zm-33.382.688c-1.975.036-4.868 2.589-4.944 4.006l6.25-3c-.342-.51-.021-.97-1.306-1.006zm6.4.888c.194.002.398.098.506.369a.64.64 0 0 1-.112.638c-.089.126-.38.081-.588.081-.251-.011-.374-.052-.525-.256-.072-.227.147-.45.244-.619a.48.48 0 0 1 .05-.056c.075-.069.205-.133.344-.15.027-.003.054-.007.081-.006zm50.232.786c-.351.043-.685.375-.531.906-.096.312.476 1.402.625 1.981.134.412-.172 1.577.106 1.7.256.137.93-.692.906-1.731.074-.534-.191-2.503-.862-2.838-.077-.022-.163-.029-.244-.019zm-42.662 1.925c-.31.022-.587.188-.463.625-.019.317.877.703.931 1.438.128.303-.192 1.272.075 1.363.245.101.584-.67.712-1.388.071-.393-.307-1.767-.95-2.012a1.1 1.1 0 0 0-.306-.025zm12.769 1.744c.024-.002.044 0 .069 0 .808.216 1.982.239 3 .344.83.053 1.239.702.462.975-.766.262-1.503.467-1.506 1.575.101.549.079.837-.006.969a.32.32 0 0 1-.025.031l-.019.019-.006.006c-.024.013-.038.021-.05.025s-.026.004-.037.006c-.182.027-.447-.147-.644-.25-.473-.339-1.799-1.161-1.987-2.925-.027-.398.271-.741.75-.775zm-31.188 1.356c-.05.002-.149.15-.281.319-1.175 1.872-1.28 4.666-.631 5.5.344.394.913.567 1.331.444.738-.32 1.063-1.815.888-2.362-.246-.386-.442-.447-.687-.119-.519 1.055-.736.333-.781-.256-.08-1.118.029-2.147.15-2.962.065-.418.062-.564.013-.562zM78.6 46.079a.54.54 0 0 0-.275.056c-.019 0-.841.556-1.106.944-.162.123-.143.23-.094.444.126.29.348.199.6.063.334-.046.496.173.469.575-.154.501.069.687.069.719s.322.308.7.088c.798-.305 1.295-.601 2.412-.844.293-.006.276-.791-.187-.819-.605.03-1.164.061-1.769.538-.372.086-.436-.141-.519-.344-.095-.504.213-.86.15-1.237.017.017-.188-.167-.45-.181zm25.632.956c-.148.005-.305.025-.531.044-.245.052-.33.159-.375.456.018.45.293.428.575.606.163.208.27.396-.013.737-.267.245-.458.38-.725.625-.126.215-.205.546.181.65.713.2 2.362-.871 2.362-.894.267-.2.179-.581.156-.581-.156-.178-.508-.071-.744-.1-.112 0-.482-.055-.306-.381.147-.203.201-.325.3-.575.111-.245.013-.41-.388-.544-.204-.037-.345-.048-.494-.044zm-10.708 21.68c-1.192.31-1.155 1.541-.394 2.081-12.519 0-31.73-.212-35.85-.212-2.305 0-9.597-.275-9.738-.275 1.564 2.287 3.829 2.753 6.794 2.8l38.656-.069c-.521.926.047 2.415.456 2.688a.49.49 0 0 0 .031.019c.015.008.035.015.05.019.504.115.718-.237.881-.494.787.069 5.219.133 5.625-.006.281.398.553.779 1.075.712.914-.196 1.633-.295 1.656-2.15 0 0-.093-3.16-2.169-2.962-.491.074-1.869.212-1.869.212-1.594-.19-2.764-.209-4.556-.275.165-.21.458-1.061.1-1.369-.093-.078-.232-.121-.425-.106-.02 0-.024-.006-.025-.006-.028-.013-.041-.027-.05-.038-.103-.144-.153-.468-.212-.55-.015-.014-.023-.018-.025-.019zm.85 4.519c1.833.089 3.549.017 5.375.106.289.246.145.81-.044.912-.008.004-.023.01-.031.013s-.018 0-.025 0-.018.002-.025 0l-1.531-.044a.34.34 0 0 0-.012-.088c-.141-.417-1.16-.389-1.4-.062-.003.005-.01.014-.013.019s-.009.018-.013.025-.01.023-.012.031-.005.031-.006.044-.008.034-.006.05c-.802.096-1.523-.027-2.325-.056-.235-.293-.208-.823.069-.95z"/></g></symbol></svg>