<svg xmlns="http://www.w3.org/2000/svg" xmlns:xlink="http://www.w3.org/1999/xlink" viewBox="0 0 151 102" fill="#fff" fill-rule="evenodd" stroke="#000" stroke-linecap="round" stroke-linejoin="round"><use xlink:href="#A" x=".5" y=".5"/><defs><style>@import url("https://fonts.googleapis.com/css?family=Roboto:400,400i,700,700i");</style></defs><symbol id="A" overflow="visible"><g stroke="none"><path d="M0 0h150v100H0z" fill="#ee1c25"/><path d="M0 0h150v66.667H0z" fill="#0b4ea2"/><path d="M0 0h150v33.333H0z"/><path d="M52.709 77.25c-8.963-4.318-21.785-12.887-21.785-29.839s.811-24.661.811-24.661h20.974 20.975s.811 7.709.811 24.661S61.673 72.932 52.709 77.25z"/><path d="M52.709 75c-8.223-3.961-19.986-11.823-19.986-27.375S33.467 25 33.467 25h19.243 19.243s.744 7.073.744 22.625S60.933 71.039 52.709 75z" fill="#ee1c25"/><path d="M54.468 43.548c2.227.036 6.571.123 10.439-1.171 0 0-.102 1.384-.102 2.997s.102 2.997.102 2.997c-3.548-1.187-7.93-1.212-10.439-1.18v8.59h-3.517v-8.59c-2.509-.032-6.891-.007-10.439 1.18 0 0 .102-1.384.102-2.997s-.102-2.997-.102-2.997c3.868 1.294 8.213 1.207 10.439 1.171v-5.395c-2.029-.018-4.954.079-8.26 1.185 0 0 .102-1.384.102-2.997s-.102-2.997-.102-2.997c3.302 1.105 6.223 1.203 8.251 1.186-.104-3.416-1.099-7.722-1.099-7.722s2.048.16 2.867.16 2.867-.16 2.867-.16-.995 4.306-1.099 7.722c2.029.018 4.95-.081 8.251-1.186 0 0-.102 1.384-.102 2.997a45.7 45.7 0 0 0 .102 2.997c-3.306-1.107-6.231-1.203-8.26-1.185v5.395z"/><path d="M52.708 54.849c-4.141 0-6.359 5.745-6.359 5.745s-1.231-2.724-4.609-2.724c-2.286 0-3.971 2.033-5.042 3.917C40.857 68.404 47.493 72.488 52.708 75c5.217-2.512 11.857-6.595 16.016-13.214-1.071-1.883-2.756-3.917-5.042-3.917-3.379 0-4.615 2.724-4.615 2.724s-2.218-5.745-6.359-5.745z" fill="#0b4ea2"/></g></symbol></svg>