<svg xmlns="http://www.w3.org/2000/svg" xmlns:xlink="http://www.w3.org/1999/xlink" viewBox="0 0 151 101" fill="#fff" fill-rule="evenodd" stroke="#000" stroke-linecap="round" stroke-linejoin="round"><use xlink:href="#B" x=".5" y=".5"/><defs><style>@import url("https://fonts.googleapis.com/css?family=Roboto:400,400i,700,700i");</style><path id="A" d="M37.584 23l.25.833.792-.208-.542.625.542.583-.792-.167-.25.792-.25-.792-.792.167.542-.583-.542-.625.792.208z"/></defs><symbol id="B" overflow="visible"><g stroke="none"><path fill="#005da4" d="M0 33.333h150v33.333H0z"/><path d="M0 0h150v33.333H0z"/><path d="M0 66.667h150V100H0zm50.5-47.083l-1.083 16.083c-.583 6.417-5.5 12.667-11.833 14.333-6.333-1.667-11.25-7.917-11.833-14.333l-1.083-16.083c2.917-1.25 6.667-2.917 13.333-2.917 6.25 0 9.25 1.583 12.5 2.917z" fill="#ed1c24"/><path d="M25.542 19.21l1.086 15.887c.54 6.224 5.092 12.287 10.955 13.903 5.864-1.617 10.415-7.679 10.955-13.903l1.086-15.879c-2.942-1.241-5.938-2.551-11.625-2.551-6.019 0-9.661 1.359-12.458 2.543z" fill="#005da4"/><path d="M30.94 43.206l.101.002c1.667 0 1.667-.875 3.458-.875 1.25 0 1.625.875 3.167.875 1.292 0 1.667-.917 3.25-.875 1.292 0 1.646.875 3.308.875-1.764 2.305-4.066 4.068-6.641 4.834-2.576-.766-4.879-2.53-6.643-4.836zm14.013-1.028a2.55 2.55 0 0 1-.745.114c-1.646 0-2-.875-3.292-.875-1.583-.042-1.958.875-3.25.875-1.542 0-1.917-.875-3.167-.875-1.792 0-1.792.875-3.458.875a2.98 2.98 0 0 1-.842-.135l-.771-1.304c.61.373 1.234.48 1.613.48 1.667 0 1.667-.875 3.458-.875 1.25 0 1.625.875 3.167.875 1.292 0 1.667-.917 3.25-.875 1.292 0 1.646.875 3.292.875.575 0 1.1-.206 1.531-.483l-.786 1.327zm1.51-2.848c-.48.516-1.298 1.086-2.254 1.086-1.646 0-2-.875-3.292-.875-1.583-.042-1.958.875-3.25.875-1.542 0-1.917-.875-3.167-.875-1.792 0-1.792.875-3.458.875-.534 0-1.556-.213-2.335-1.082-.306-.731-.564-1.484-.77-2.25l4.813-6.418 1.833 2.667 3-5.833 3 5.833 1.833-2.667 4.782 6.535a17.63 17.63 0 0 1-.736 2.129z"/><g fill="#fd0"><use xlink:href="#A"/><path d="M33.959 18.167l.25.833.792-.208-.542.625L35 20l-.792-.167-.25.792-.25-.792-.792.167.542-.583-.542-.625.792.208z"/><use xlink:href="#A" x="3.625" y="-4.833"/></g></g></symbol></svg>