<svg xmlns="http://www.w3.org/2000/svg" xmlns:xlink="http://www.w3.org/1999/xlink" viewBox="0 0 151 101" fill="#fff" fill-rule="evenodd" stroke="#000" stroke-linecap="round" stroke-linejoin="round"><style><![CDATA[.B{stroke:none}.C{fill:#cf142b}.D{font-family:Roboto Condensed}]]></style><use xlink:href="#C" x=".5" y=".5"/><defs><style>@import url("https://fonts.googleapis.com/css?family=Roboto:400,400i,700,700i"); @import url("https://fonts.googleapis.com/css?family=Roboto+Condensed:400,400i,700,700i"); </style><path id="A" d="M139.978 14.749l3.68-2.673h-4.548l-1.405-4.326-1.405 4.326h-4.548l3.68 2.673-1.405 4.326 3.68-2.673 3.68 2.673z"/><path id="B" d="M115.701 81.424h4.548l-3.68-2.673 1.405-4.326-3.68 2.673-3.68-2.673 1.406 4.326-3.68 2.674h4.548l1.406 4.326z"/></defs><symbol id="C" overflow="visible"><path d="M0 0h75v50H0z" fill="#00247d" class="B"/><g class="B"><path d="M16.5 16.5H0v17h16.5L0 44.5V50h8.625l22.5-15v15h12.75V35L66.75 50H75v-5.5l-16.5-11H75v-17H58.5L75 5.5V0h-8.625l-22.5 15V0h-12.75v15L8.25 0H0v5.5z"/><path d="M0 0v3.5l19.5 13h5.25z" class="C"/></g><path d="M75 50v-3.5l-19.5-13h-5.25z" class="B C"/><path d="M0 50l24.75-16.5h5.625L5.625 50z" class="B C"/><path d="M75 0L50.25 16.5h-5.625L69.375 0z" class="B C"/><g class="B"><path d="M0 20v10h33.75v20h7.5V30H75V20H41.25V0h-7.5v20z" class="C"/><path d="M0 50h75V0h75v100H0z" fill="#5b97b1"/><g fill="#ffce00"><use xlink:href="#A"/><path d="M128.951 31.249h4.548l-3.68-2.673 1.406-4.326-3.68 2.673-3.68-2.673 1.406 4.326-3.68 2.673h4.548l1.406 4.326zm-13.249 6h4.548l-3.68-2.673 1.405-4.326-3.68 2.673-3.68-2.673 1.405 4.326-3.68 2.673h4.548l1.405 4.326z"/><use xlink:href="#A" x="0.093" y="39"/><path d="M126.821 64.999l3.68-2.673h-4.548L124.547 58l-1.405 4.326h-4.548l3.68 2.673-1.405 4.326 3.68-2.673 3.68 2.673zm-26.87 1.25h4.548l-3.68-2.673 1.405-4.326-3.68 2.673-3.68-2.673 1.406 4.326-3.68 2.673h4.548l1.406 4.326z"/><use xlink:href="#B"/><use xlink:href="#B" x="-15.75" y="5.325"/><path d="M82.109 87.501h4.548l-3.68 2.674 1.405 4.326-3.68-2.673-3.68 2.673 1.405-4.326-3.68-2.674h4.548l1.405-4.326z"/></g></g></symbol></svg>