<svg xmlns="http://www.w3.org/2000/svg" xmlns:xlink="http://www.w3.org/1999/xlink" viewBox="0 0 151 101" fill="#fff" fill-rule="evenodd" stroke="#000" stroke-linecap="round" stroke-linejoin="round"><use xlink:href="#B" x=".5" y=".5"/><defs><style>@import url("https://fonts.googleapis.com/css?family=Roboto:400,400i,700,700i");</style><path id="A" d="M36.071 25.883l1.411-1.025h-1.744l-.539-1.658-.539 1.658h-1.744l1.411 1.025-.539 1.658 1.411-1.025 1.411 1.025z"/></defs><symbol id="B" overflow="visible"><g stroke="none"><path d="M0 66h150v34H0z" fill="#1eb53a"/><path d="M0 0h150v32H0z" fill="#0099b5"/><path d="M0 32h150v2H0z" fill="#ce1126"/><path d="M0 34h150v30H0zm30-6.164c-.65.108-1.318.164-2 .164-6.648 0-12-5.352-12-12S21.352 4 28 4c.682 0 1.35.056 2 .164-5.689.947-10 5.869-10 11.836s4.311 10.889 10 11.836z"/><use xlink:href="#A"/><use xlink:href="#A" x="9.618"/><use xlink:href="#A" x="9.718" y="-9.6"/><use xlink:href="#A" x="19.218"/><use xlink:href="#A" x="19.218" y="-9.6"/><path d="M55.289 6.683L56.7 5.658h-1.744L54.417 4l-.539 1.658h-1.744l1.411 1.025-.539 1.658 1.411-1.025 1.411 1.025z"/><use xlink:href="#A" x="28.818"/><use xlink:href="#A" x="28.818" y="-9.6"/><path d="M64.889 6.683L66.3 5.658h-1.744L64.017 4l-.539 1.658h-1.744l1.411 1.025-.539 1.658 1.411-1.025 1.411 1.025z"/><use xlink:href="#A" x="38.418"/><use xlink:href="#A" x="38.418" y="-9.6"/><path d="M74.489 6.683L75.9 5.658h-1.744L73.617 4l-.539 1.658h-1.744l1.411 1.025-.539 1.658 1.411-1.025 1.411 1.025z"/><path d="M0 64h150v2H0z" fill="#ce1126"/></g></symbol></svg>