<svg xmlns="http://www.w3.org/2000/svg" xmlns:xlink="http://www.w3.org/1999/xlink" viewBox="0 0 151 101" fill="#fff" fill-rule="evenodd" stroke="#000" stroke-linecap="round" stroke-linejoin="round"><use xlink:href="#A" x=".5" y=".5"/><defs><style>@import url("https://fonts.googleapis.com/css?family=Roboto:400,400i,700,700i");</style></defs><symbol id="A" overflow="visible"><g stroke="none"><path d="M0 66.667h150V100H0z" fill="#cf142b"/><path d="M0 33.333h150v33.333H0z" fill="#00247d"/><path d="M0 0h150v33.333H0z" fill="#fc0"/><path d="M84.336 39.875l-2.981-.526-.421-2.998-1.421 2.673-2.981-.526 2.103 2.178-1.421 2.673 2.721-1.327 2.103 2.178-.421-2.998 2.721-1.327m6.098 8.288l.629-2.961 3.011-.316-2.622-1.514.629-2.961-2.25 2.026-2.622-1.514 1.231 2.766-2.25 2.026 3.011-.316zm6.537 6.596l1.604-2.567 2.937.732-1.946-2.319 1.604-2.567-2.807 1.134-1.946-2.319.211 3.02-2.807 1.134 2.937.732zm8.783 8.264l-1.035-2.845 2.385-1.864-3.025.106-1.035-2.845-.834 2.91-3.025.106 2.51 1.693-.834 2.91 2.386-1.864zm-62.862-4.709l3.025.106 1.035-2.845.834 2.91 3.025.106-2.51 1.693.834 2.91-2.386-1.864-2.51 1.693 1.035-2.845zm5.591-5.39l1.946-2.319-1.604-2.567 2.807 1.134 1.946-2.319-.211 3.02 2.807 1.134-2.937.732-.211 3.02-1.604-2.567zm7.439-8.038l2.622-1.514-.629-2.961 2.25 2.026 2.622-1.514-1.231 2.766 2.25 2.026-3.011-.316-1.231 2.766-.629-2.961zm12.04-.686l.421-2.998-2.721-1.327 2.981-.526.421-2.998 1.421 2.673 2.981-.526-2.103 2.178 1.421 2.673-2.721-1.327z"/></g></symbol></svg>