<svg xmlns="http://www.w3.org/2000/svg" xmlns:xlink="http://www.w3.org/1999/xlink" fill="#fff" fill-rule="evenodd" stroke="#000" stroke-linecap="round" stroke-linejoin="round" viewBox="0 0 81 62"><style>.B{stroke:none}.D{fill:#4b612c}.E{fill:#759c3e}</style><use xlink:href="#A" x=".5" y=".5"/><symbol id="A" overflow="visible"><path d="M74 30.5V0L64 2.75v55.5L74 61z" class="B D"/><path d="M80 30.5V58l-6 3V0l6 3zM6 30.5V0l10 2.75v55.5L6 61z" class="B E"/><path d="M0 30.5V58l6 3V0L0 3zM61 30.5V8.25l-11 2.5v39.5l11 2.5z" class="B D"/><path d="M68 30.5v-20l-7-2.25v44.5l7-2.25zM19 30.5V8.25l11 2.5v39.5l-11 2.5z" class="B E"/><path d="M12 30.5v-20l7-2.25v44.5l-7-2.25z" class="B D"/><path d="M52 30.5v-8.25l-12-1v18.5l12-1z" class="B E"/><path d="M28 30.5v-8.25l12-1v18.5l-12-1z" class="B D"/></symbol></svg>