<svg xmlns="http://www.w3.org/2000/svg" fill="none" viewBox="0 0 72 72"><g clip-path="url(#a)"><path fill="#000" d="M41.16 5.144c-.597 1.392-.464 3.05-.862 4.575-.133.332-.464 1.393-.928 1.326-.995-.132-.464-2.055-1.658-2.122l.332 2.785c-1.724.2-1.525-2.52-2.188-3.58-.796-1.26-.995.597-.929 1.127.067.398.133.73.133 1.06a8.076 8.076 0 0 1 0 1.791c-1.658 0-1.061-2.188-2.255-2.52l.067 2.653c-1.857 0-2.652-1.658-3.514-3.117-.332-.596-.796-1.724-1.592-1.392.398 1.658 1.26 3.183 1.393 4.907 0 .464-.398 1.59-.995 1.326-1.392-.464-1.193-3.05-2.387-3.713-.265-.133-.597 0-.862 0 0 1.326.597 2.983 1.061 4.243.133.265.398 1.26-.199 1.194-1.06 0-1.326-2.122-2.387-1.857.133.53.464.995.663 1.525.133.332.332.663.398.995.133.729-.796.795-1.326.663-1.127-.332-1.99-1.26-2.785-2.122-.199-.199-.862-1.061-1.193-.663-.398.398.397 1.127.663 1.392.73.796 1.458 1.79 1.79 2.785.133.464.199 1.061-.265 1.392-.464.332-1.128-.265-1.525-.464-1.061-.729-2.188-1.989-3.515-1.989l-.331.796.862 1.193 2.254 2.52-2.652-1.06c.133.662 1.79 1.524 1.459 2.253-.199.398-1.127.398-1.525.398-1.326-.199-2.32-1.193-3.514-1.525-1.128-.331-.929.53-.266 1.061.2.2.398.332.663.53.398.332.73.664 1.061.995.53.53 1.061 1.127 1.525 1.724l-2.652-.066v.199l2.52 1.193-.464 1.79c-.73 0-1.326-.198-1.99-.464-.464-.199-.928-.53-1.458-.464-.597.067-.995.597-.597 1.127.597.796 1.857 1.26 2.652 1.857.332.265.73.663.398 1.06-.663.796-2.52-.198-3.382.067v.199c.862.464 2.52.73 2.984 1.658.398.729-.73 2.254-1.459 2.188-.663-.067-1.326-.796-1.79-1.26-1.193-.995-2.52-2.122-3.912-2.785-2.387-1.127-4.84.663-6.697 1.857.266.795 1.194-.067 1.79.066.796.199 1.46.928 1.99 1.525 2.52 2.917 4.641 6.233 5.57 10.012.265.995.663 2.188-.067 3.05-.199.265-.464.265-.73.464-.132.133-.132.332.067.398.398.133.995-.066 1.459-.133 1.326-.331 2.851-1.06 3.448-2.32.398-.796.53-2.387 1.458-2.719.2.862 1.194 2.056 1.061 2.918-.066.795-.928 1.657-1.392 2.254-.199.199-.597.663-.332.928s.73-.331.929-.464c.663-.663 2.188-1.657 2.586-.199.331 1.326-.796 3.382-1.326 4.575-.133.332-.862 1.326-.597 1.658.331.398.994-.663 1.193-.862.597-.73 2.586-2.984 3.647-2.188 1.326.995.862 1.658.332 2.984-.133.398-.663 1.326-.332 1.657.332.332.796 0 .928-.265.332-.597 1.127-2.32 1.99-1.923.53.265 1.326.73 1.657 1.26.464.796.066 2.453-.066 3.315-.067.53-.597 2.122-.2 2.454.399.331.797-.663.863-.929.464-.862.994-1.79 1.657-2.52.266-.264.597-.729.995-.662 2.122.398-.066 2.52.796 3.58.199.199.663.199.928.265l1.06-2.784c.531.198 1.393.265 1.791.729.332.398.398 1.06.53 1.525.266 1.392.398 2.718.266 4.11.199.133.464.399.663.266.265-.199.331-.928.464-1.26.331-.994.796-1.989 1.26-2.917.331-.597 1.127-1.26 1.724-.398.596.862.331 2.453.729 3.448.995-.464 1.06-2.453 1.06-3.448l1.26.199.73 1.525 1.326 3.912c.73-.265.464-1.591.53-2.255.133-.861.332-2.652.929-3.315.265-.265.796-.265 1.127-.398.398.929.597 1.99 1.06 2.918.2.331.598.73.996.53s.397-.663.331-1.06c-.133-.929-.331-1.857-.398-2.785 1.79-.133 2.851 1.326 3.979 2.52.464.463.795 1.06 1.458 1.259l-.928-2.719-.53-2.52c.663-.264 2.055-1.59 2.718-1.391.995.265 1.79 3.182 3.116 2.453.53-.265.266-.796 0-1.127-.397-.597-1.525-1.923-1.392-2.653.066-.53.995-1.127 1.459-1.127 1.193 0 3.249.928 3.912 1.857l.795-.067c-.132-1.657-2.586-2.387-2.917-3.978-.066-.132 0-.331 0-.53.265-1.061.862-.597 1.525-.332.199.067.663.332.796.067.199-.266-.133-.664-.266-.862-.265-.465-.464-.995-.397-1.526.862.2 1.392.73 2.121 1.194.2.133.53.398.73.265.199-.132-.133-.53-.2-.597-.33-.397-1.325-1.26-1.193-1.79.067-.398.663-.73.929-.994.862-.862 1.79-1.658 2.453-2.653h.066c1.591 1.857 6.63.53 5.968-2.254-.398.066-.796.398-1.194.199-1.79-.597-1.326-3.514-3.381-3.514-.133-1.857-.929-3.713-1.79-5.37-.398-.73-1.26-1.46-1.592-2.189-.199-.398-.133-1.06-.133-1.525 1.061-.133.53-1.26.133-1.79-.398-.663-.862-1.459-1.459-1.99-.663-.662-1.724-1.127-1.591-2.254.066-1.06 1.923-.928 2.254-1.923-.53 0-1.06.133-1.657.266-1.326.199-1.592-.2-.929-1.46.53-1.06 1.46-1.856 2.189-2.718.265-.265.994-.928.596-1.326-.331-.331-.862.2-1.127.332-.995.663-2.122 1.127-3.249 1.525-.331.132-1.326.53-1.459-.133-.132-.795 1.393-.994 1.194-1.923-.597.133-1.857 1.128-2.453.663-.73-.53.331-1.922.464-2.585.132-.664-.398-.664-.796-.266-.133.133-.265.266-.331.464-.2.266-.398.53-.53.796-1.46-.862 1.325-1.856.795-2.652-.2-.265-.53 0-.73.133-.331.331-1.657 1.856-1.989.729-.331-1.26.332-2.719.663-3.912.067-.332.464-1.127.067-1.326-.53-.332-.796.73-.929 1.06a6.413 6.413 0 0 1-1.856 2.52c-.265.2-.73.663-1.061.597-.53-.133-.597-1.724-.53-2.188 0-.199.132-.597-.067-.796-.265-.199-.464.2-.464.398-.133.663-.53 2.586-1.525 1.326-.928-1.127.464-3.514-1.326-3.978l-.995 3.183c-1.193-.266-.928-1.99-.663-2.918l-.53-.199c-.066.398-.2.73-.332 1.061-.464 1.392-1.127 1.591-1.657.066-.398-1.193-.266-2.453-.464-3.646.198-.465.198-.995-.332-1.194z"/><path fill="url(#b)" d="M41.293 7.862c-.066 2.586-.862 4.575-3.713 4.575l.994 4.111c-1.06-1.127-1.458-2.718-1.989-4.177-.331-.928-.73-1.856-.862-2.785h-.066c.066 1.658.398 3.25.066 4.907-.199.928-.663 1.591-.928 2.453h-.066l.53-3.978c-2.055.133-3.78.464-5.105-1.459a9.218 9.218 0 0 1-.73-1.392h-.066c.199 1.525 1.591 3.315 0 4.575a2.24 2.24 0 0 1-.796.398l1.46 2.188.861 1.127c-2.32-1.525-3.647-4.177-4.84-6.63h-.066c.265 1.989 1.458 3.712 1.79 5.702.132.663.398 1.657-.265 2.188l-.73-3.448c-1.06.53-1.856 2.188-3.249 1.989-.597-.066-1.06-.597-1.657-.796.265.862.994 1.592.596 2.52-.132.331-.464.597-.663.928l2.918 1.061c-.53.663-1.658.133-2.255-.133-1.193-.596-2.254-1.326-3.381-2.055-.597-.464-1.326-1.06-2.122-1.193.464.994 1.658 1.856 2.453 2.585.663.597 1.127 1.327 1.724 1.99.53.663 1.26 1.458.995 2.387-.995-.995-1.79-1.658-3.25-1.327-.53.133-.994.465-1.524.398-.995 0-1.99-.53-2.918-.928.53 1.127 1.923 1.79 2.255 3.116.199.995-.464 2.188-.597 3.183l3.116.464v.2c-2.652.728-4.508-.73-7.028-1.194v.066c1.658.796 3.58 2.122 4.774 3.514.464.53.995 1.127.995 1.79-.465-.398-1.393-1.458-2.122-1.326-.53.066-.73.663-.796 1.127-.199 1.26-.199 2.586-.199 3.846-.53-.464-.464-1.06-.464-1.724-.663.398-1.326.928-2.188.796-.862-.2-1.658-1.194-2.254-1.79-1.128-1.128-2.454-2.255-4.111-2.52-.862-.133-3.448 0-2.321 1.326.133.133.265.265.398.332.597.331 1.923-.067 2.652-.067v.067l-2.254.464c.928 1.923 2.917.199 3.978 1.392-.73-.199-2.056-.199-2.785 0l1.26 1.658.597.796 2.121.265v.066H7.544c.132.995 1.26.73 1.989.663v.066l-1.525.266c.265.53.862 2.254 1.392 2.52.464.198 1.061-.2 1.393-.399-.53.929-1.393.53-.929 1.79l1.46-.729c-.332.398-.863.663-1.062 1.061-.265.53.2 1.392.332 1.923l1.458-1.06-1.392 1.524.133 1.658c1.193-.53 2.188-1.393 2.718-2.653.2-.53.265-1.127.464-1.59.2-.332.73-.266.862-.664.2-.73-.265-1.326.133-2.055h.066l.265 1.458c.929-.265 1.46-1.724 1.724-2.52h.2c.264 1.194-.796 1.924-1.194 2.918.663.133 1.79.464 1.724 1.26l-2.255-.796 1.724 3.846h.067c.861-1.26 1.657-3.249 2.784-4.177.398 1.326-.994 2.453-1.525 3.514.796-.199 2.188-1.26 2.918-.796-.995.398-1.923.995-2.652 1.79-.266.266-.664.73-.664 1.062 0 .397.465.861.73 1.193.796 1.127 1.724 2.32 2.984 2.984.464-.929.928-1.857 1.193-2.918.133-.464.133-1.127.53-1.392.465 2.52-1.326 5.304-1.922 7.625 1.724-1.459 2.718-3.78 4.906-4.708-.066 1.194-1.923 1.79-2.055 3.117-.067.464.53.663.862.928.862.597 1.657 1.26 2.652 1.724.331.132.73.464 1.06.132.598-.663.664-1.856.598-2.718-.067-.53-.266-1.326.132-1.724l.663 3.713-.331 4.376h.066c.862-2.188 1.591-4.509 3.249-6.166 0 1.127-1.26 2.718-1.724 3.845 1.724.796 3.713 1.26 5.57 1.658.132-1.127.132-2.254-.2-3.381-.132-.53-.596-1.194-.264-1.658 1.127 2.453 2.387 4.907 2.387 7.625h.066c0-1.658.265-3.382.597-4.973.066-.265.132-1.525.596-1.525s.266.73.266.995c-.2 1.127-.465 2.254-.597 3.381l3.912-.066 1.392-.265-.066-1.393-1.857-3.249c.73-.132 1.393 1.128 1.724 1.658 1.194 1.923 1.99 4.442 2.52 6.63h.066c-.265-2.983-.994-5.768-.663-8.818.862.331.398 2.586.53 3.448.067.265 0 .994.332 1.127s.862-.133 1.127-.265c1.061-.332 2.056-.862 3.117-1.326.397-.2.928-.398.994-.862.067-1.724-1.458-2.255-2.52-3.183.929-.066 1.592.53 2.255 1.061.995.796 2.055 1.724 2.851 2.718.464.597.862 1.327 1.393 1.79-.332-.994-1.061-1.922-1.525-2.784-.929-1.79-1.592-3.713-1.857-5.702h.066l1.724 4.575c.928-.332 1.724-1.459 2.321-2.188.265-.332.597-.663.597-1.061 1.525-.53-.398-1.79-.73-2.255 1.061-.132 1.99.862 2.984 1.061-.464-.928-1.193-2.188-.995-3.249h.2l.662 1.79c1.592-1.458 3.448-2.983 4.642-4.84 1.657-2.586 1.657-5.835.464-8.62-.332-.729-.597-1.856-1.194-2.453-.795-.862-1.525.597-1.59 1.26.397.066.728.199 1.06.398 1.26.862 1.326 2.32.796 3.58-.2.53-.597 1.061-.663 1.658-.067.73.331 1.459.464 2.188.199 1.194-.398 2.453-1.26 3.25-.796.728-1.923 1.126-2.984.994-.53-.067-1.06-.53-1.525-.332-.795.265-.928 1.525-1.459 2.122-.198-1.393.796-2.122 1.061-3.382.133-.596-.331-1.657-.53-2.254-.133-.464-.398-1.79-1.127-1.525-.464.199-.73.73-.995 1.06-.663.93-1.26 1.99-2.387 2.255.398-1.06 1.591-1.989 2.188-2.984 1.26-1.989 2.652-5.304.928-7.426-.53-.663-1.326-1.127-2.055-1.458-.995-.465-2.122-.597-3.183-.929v-.199l1.26-.199-.265-1.989-.796.265c0-3.315 3.316-5.171 5.636-6.895l-.398 1.193 1.128 1.724 2.254 3.514-.928-.066c.199 1.326.464 2.52 0 3.846-.266.862-.995 1.525-1.26 2.387-.133.398.066.862.066 1.26 0 .596-.199 1.127-.331 1.723 1.657-.795 1.923-3.182 3.646-3.713-.132-.795-.464-1.525-.53-2.387-.133-1.79.199-3.58-.066-5.37-.332-1.99-1.127-3.713-1.857-5.57l.796.332c.199-1.26 1.193-1.923 1.923-2.918-1.061.398-2.653 1.658-3.846.995-.796-.464-1.06-1.525-1.923-1.923l-1.06 4.376h-.067c-.464-1.99.53-3.912.995-5.835-1.393 1.127-2.321 2.52-4.244 2.785l2.652-1.923.597-.862-.796-.663-1.989-1.459.928.2.332-2.918h-.066c-.2.331-.465.663-.73.994-.398.398-.862 1.061-1.392 1.26-1.061.332-2.52-.862-3.514-1.127v4.177c-.929-.132-.796-1.06-.796-1.923 0-1.79-.066-3.58 0-5.37h-.066c-.266 1.989-.929 4.906-2.918 5.9.597-.927 1.127-1.657 1.393-2.718.066-.331.331-.862 0-1.06-.929-.664-2.32-.133-3.05-1.194-.862-1.591-.332-2.917-.796-4.045z"/><path fill="#0F0D06" d="m35.724 9.785.068.068-.068-.068z"/><path fill="#000" d="m40.498 14.162-1.459 6.564c1.127-.663 1.326-3.182 1.459-4.376h.066c.2 1.061.265 2.122.73 3.116.199.398.331.929.862.929l-1.194-4.111-.464-2.122zM31.546 15.289c0 2.32 1.194 4.442.73 6.83.463-.266.463-.863.463-1.327 0-1.127-.198-2.188-.198-3.249h.066c.331 1.128 1.193 3.316 2.453 3.448-.132-.596-.663-1.06-.928-1.525-.73-1.193-1.393-3.448-2.586-4.177zM50.178 16.349c-.995 1.591-2.188 3.78-3.713 4.907v.066c1.127-.2 2.387-1.658 2.718-2.719h.067c0 1.592-.73 3.316-.067 4.907h.067c.464-1.658.199-3.58.663-5.304.132-.53.597-1.393.265-1.857zM44.211 19.93c-.53 1.194-.796 2.32-1.923 3.183v.199c.796.198 1.326-.796 1.525-1.46h.066c.067.598.133 1.857.796 2.123l-.464-2.122V19.93zM24.717 20.063c.199 2.254 3.183 3.78 2.785 6.166.464-.265.331-.795.199-1.26-.332-.928-.929-1.79-1.26-2.718.862.796 2.188 1.724 3.382 1.194l-1.923-.796-3.183-2.586zM37.315 20.792c-.265.928-1.06 2.652-.73 3.514h.133l.663-2.188h.067c.198.796.464 2.056 1.458 2.188l-1.458-3.514h-.133zM31.215 23.046l.464 3.846h.2l-.067-2.719c.597.398 1.392 1.459 2.188 1.061-.332-.331-.73-.398-1.061-.663-.663-.464-.995-1.459-1.724-1.525zM51.173 23.576c-.928.995-1.79 1.591-3.116 1.99v.198c.795.199 1.525-.199 2.188-.663-.133.53-.796 1.923-.265 2.254l.861-2.652.332-1.127z"/><path fill="url(#c)" d="M52.167 29.478c2.055-.53 4.376-.796 6.432-.332-.332-1.06-1.128-1.989-1.857-2.784-.265-.266-.53-.796-.994-.862s-.929.464-1.26.729c-.929.73-1.857 2.056-2.321 3.249z"/><path fill="#000" d="m35.657 25.698-.53 2.785c.464-.332.53-1.459.663-1.99l.795.929c-.132-.597-.464-1.326-.928-1.724zM44.542 25.963l-1.724 1.724 1.658-1.194.265 1.658c.332-.464.133-1.79-.199-2.188zm-19.228.265c.796.862 1.392 1.923 1.857 2.851.265.53.198 1.127.729 1.459-.066-1.06-.53-1.857-.928-2.785.663.398 1.525.928 2.254.73v-.2c-1.06-.464-1.857-.861-2.719-1.59-.331-.266-.729-.664-1.193-.465zM19.214 27.025c.066.796.73 1.06 1.26 1.459.795.596 1.458 1.193 2.055 1.989.398.53.597 1.392 1.127 1.724-.132-1.326-.862-2.918-2.188-3.448v-.066c1.326.265 2.586.729 3.912.199v-.2l-1.525-.066-4.641-1.591z"/><path fill="url(#d)" d="m61.45 27.29.199 2.188 1.99.265c-.333-.862-1.26-2.055-2.189-2.453z"/><path fill="#000" d="m39.437 27.423-.796 1.525.929-.995.53.929-.663-1.459zM48.189 29.61l-1.525 1.193 1.392-.729-.199 1.061c.332-.265.53-1.127.332-1.525z"/><path fill="#fff" d="M57.273 35.049c.663-.332.995-1.127 1.194-1.79.198-.862.53-3.183-.597-3.58-.597-.266-1.592.066-2.255.066-.596 0-1.856-.067-2.32.331-.398.398-.133 1.923.199 2.32.331.399 1.06.531 1.59.73.93.398 1.725.995 2.189 1.923z"/><path fill="#0D0B05" d="m63.108 29.677.066.066-.066-.066zm.53 0-.066.199.066-.199z"/><path fill="#fff" d="m63.638 29.743.068.068-.068-.068zM61.45 30.141v.796c1.658-.597 1.99 1.79.265 1.724l.332 2.121c1.193-.596 1.79-3.315.795-4.31-.265-.331-.994-.331-1.392-.331z"/><path fill="#020202" d="m62.842 30.34.068.068-.068-.068z"/><path fill="#000" d="M56.809 30.473c-.199.199-.464.332-.597.597-.928 1.657 2.652 1.657 1.658-.067-.133-.199-.332-.331-.53-.464l-.531.265v-.331z"/><path fill="#020202" d="m56.942 30.473.332.066-.332-.066zM61.715 30.738l.265.199v-.066l-.265-.133z"/><path fill="#000" d="M37.713 30.871c0 .464-.066.928.332 1.194v-.929l1.06.332-1.392-.597z"/><path fill="#010101" d="m61.649 30.871.199.199v-.199h-.199z"/><path fill="#000" d="m43.283 32.13.464-.796.53.332c-.397-1.061-.994-.265-.994.464zM32.276 31.136c.133.597.398 1.06.928 1.459l-.53-1.194 1.06.066c-.264-.464-.927-.331-1.458-.331zM27.635 31.666l1.26 1.525-.73-1.26 1.061-.199-.066-.331-1.525.265z"/><path fill="#fff" d="M60.986 31.401v.265h.066l-.066-.265zM60.986 31.799v.265h.066l-.066-.265z"/><path fill="#010101" d="m62.909 31.865.068.068-.068-.068z"/><path fill="#050505" d="m62.71 32.33.068.068-.068-.068z"/><path fill="#000" d="M18.484 34.251v.199l2.652.928c-.066-.663-.928-.928-1.525-.994l1.79-1.658c-.994-.133-2.121.995-2.917 1.525z"/><path fill="#010101" d="m61.981 32.595.265.066-.265-.066z"/><path fill="#000" d="M22.264 33.854v.199l1.99.73 1.193.795c-.133-.995-1.127-1.127-1.79-1.658.861-.132 1.989-.199 2.386-1.06l-3.779.994z"/><path fill="#0E0D08" d="m63.174 33.125.068.068-.068-.068z"/><path fill="#020202" d="m63.174 33.258.068.068-.068-.068z"/><path fill="#010101" d="m61.848 33.654.066.133-.066-.133z"/><path fill="#000" d="m35.127 34.517.265-.663c-.398.066-.73.398-.265.663z"/><path fill="#020202" d="m62.644 34.319.068.068-.068-.068z"/><path fill="#000" d="m38.376 34.384-.066.663c.265-.199.331-.331.265-.663h-.199zM42.222 35.047l.265-.663c-.398.132-.663.398-.265.663z"/><path fill="#020202" d="m62.577 34.384.068.068-.068-.068z"/><path fill="#000" d="M44.94 35.578v.332l.928-.663-.928.331zM49.25 35.378v1.06c.398-.264.398-.729 0-1.06z"/><path fill="#0D0B05" d="m65.097 35.378.068.068-.068-.068z"/><path fill="#000" d="m31.348 37.235 1.06.265-.596-.597.332-.862c-.398.2-.663.73-.796 1.194z"/><path fill="url(#e)" d="M57.737 40.021c2.254.332 3.315-.73 4.973-2.055-.265.663-1.459 1.458-1.392 2.121.066.663 1.06.73 1.525.53.861-.33 1.392-1.26 1.59-2.187.399-1.79-1.988-3.316-3.513-2.122-1.26 1.06-1.857 2.718-3.183 3.713z"/><path fill="#000" d="M14.904 38.031c.133.663.796.332 1.26.265.663-.066 1.989.2 2.387.796l.663-.066c-.133-1.061-1.658-.995-2.453-1.061.596-.597 1.458-.796 1.657-1.724l-3.514 1.79z"/><path fill="#0D0B05" d="m64.434 36.241.068.068-.068-.068zM65.561 36.374l.068.068-.068-.068z"/><path fill="#000" d="m35.923 36.97-.995 1.26 1.26.464-.928-.53c.199-.398.928-.796.663-1.194z"/><path fill="#0E0D05" d="m64.169 36.97.068.068-.068-.068z"/><path fill="#000" d="m28.032 37.236-1.06.995c.397.132 1.391.729 1.723.265l-1.26-.464.597-.796zm23.538 0 1.26.995v.198l-1.194.663a3.256 3.256 0 0 0 1.658-.663c-.398-.596-1.06-1.06-1.724-1.193z"/><path fill="#010101" d="m64.368 37.302.068.068-.068-.068z"/><path fill="#0D0B05" d="m65.892 37.302.068.068-.068-.068z"/><path fill="#0E0D05" d="m64.368 37.435.068.068-.068-.068z"/><path fill="#000" d="M22.396 37.567c-.53 1.26-1.392 2.254-2.387 3.183-.53.53-1.392 1.06-1.658 1.79l3.979-.862 2.122-.398c-1.26-.862-3.448.133-4.642.663.796-1.657 2.453-2.32 2.785-4.243l-.066-.067-.133-.066zM39.039 38.495l.53.066v-.928c-.397.199-.464.464-.53.862z"/><path fill="#010101" d="m64.434 38.031.068.068-.068-.068z"/><path fill="#000" d="m43.283 38.298.066.995c.398-.2.73-.53.796-.995l-.663.464-.199-.464z"/><path fill="#0E0D05" d="m62.577 38.429.068.068-.068-.068z"/><path fill="#010101" d="m64.301 38.761.068.068-.068-.068z"/><path fill="#0D0B05" d="m66.357 38.893.068.068-.068-.068z"/><path fill="#010101" d="m64.169 39.026.068.068-.068-.068z"/><path fill="#000" d="m30.486 40.22.199-.663c-.398.133-.663.398-.199.663z"/><path fill="#010101" d="m63.704 39.887.068.068-.068-.068z"/><path fill="#0E0D05" d="m63.638 39.954.068.068-.068-.068z"/><path fill="#000" d="m46.73 40.152-.066 1.26-.796-.53c.066.53.464.795.995.928l.066-1.658h-.199z"/><path fill="#010101" d="m59.129 40.152.265.066-.265-.066z"/><path fill="#000" d="M24.319 42.938c.597 0 2.719.066 2.984-.332l-1.99-.265 1.061-2.122c-.663.2-1.79 2.122-2.055 2.719zm7.36 7.89c.663-.398 1.591-1.591 1.923-2.254-.73.199-1.061.928-1.525 1.459l-.265-1.923c2.121-.2 3.05-2.52 4.31-3.912.729-.862 1.723-1.194 2.718-1.724-.597-.663-1.393.066-1.923.464-1.459 1.127-2.254 2.453-3.514 3.713l.73-1.923h-.067c-.398.928-.862 1.99-1.79 2.453l.331-1.26h-.066c-.398.929-.796 1.393-1.79 1.393l.928-2.122h-.066l-1.194 1.99-.332-.067.929-1.724h-.066c-.465.73-.929 1.79-1.923 1.525l.795-1.525c-.464.332-.663 1.194-1.193 1.393-.265.066-.73-.067-.597-.398.133-.398.796-.862 1.127-1.194.929-1.193 1.658-3.182 3.05-3.978 1.127-.597 2.851.133 4.111.133.73 0 1.525-.266 1.724-.995-.597-.066-1.127.332-1.724.332-1.525 0-4.044-.73-5.37.265-1.194.928-1.26 2.188-1.99 3.381-.398.597-.994.995-1.525 1.393-.199.132-.53.398-.464.663.067.398.73.597.995.73.663.33 1.459.53 2.188.728.398.067.994.067 1.326.332.265.464.066 1.99.199 2.652z"/><path fill="#010101" d="m63.108 40.485.066.066-.066-.066zm-.265.133.066.066-.066-.066z"/><path fill="#000" d="m14.639 40.683-.066.53.331-.53h-.265z"/><path fill="url(#f)" d="M61.848 43.336c-.199-.597-.133-1.392-.53-1.923-.53-.73-1.724-.663-2.454-.663-.265 0-.73 0-.928.265-.199.332.199 1.061.265 1.393.332 1.392.663 3.249 1.857 4.177.795.597 2.32.199 2.984-.464 1.06-.995 1.326-3.448.265-4.509-1.326-1.392-1.326 1.061-1.459 1.724z"/><path fill="#0E0D08" d="m62.842 41.214.068.068-.068-.068z"/><path fill="url(#g)" d="M67.484 41.346 67.02 43.6l-.332 1.194.663.464-.199-.796h.067c.398.995.862 1.194 1.923 1.194l-.663-1.393c.397.464.596 1.194 1.26 1.26l-.664-1.193c.597.663.862 1.06 1.724.663v-.2c-1.458-.729-1.657-3.182-3.315-3.447z"/><path fill="#000" d="m52.897 42.009.265-.663c-.331.199-.53.398-.265.663z"/><path fill="#0D0B05" d="m66.489 41.611.068.068-.068-.068z"/><path fill="#000" d="m40.63 42.142.995 1.06.464-1.06-.464.73-.995-.73zm9.216 0-.066 1.392-.928-.53c-.066.597.862 1.26 1.392 1.525l-.199-2.387h-.198z"/><path fill="#0E0D08" d="m69.075 42.872.068.068-.068-.068z"/><path fill="#0F0E07" d="m55.217 42.938.066.133-.066-.133z"/><path fill="#000" d="M25.181 43.668c-.265 1.392-1.26 2.586-2.122 3.647-.398.53-1.06.994-1.26 1.657 1.526-.464 3.183-1.989 4.84-1.79-.397-.796-2.386.332-3.116.464.597-.862 1.393-1.657 1.79-2.652.2-.464.266-.994-.132-1.326z"/><path fill="#010101" d="m63.837 44.066.068.068-.068-.068z"/><path fill="#0F0E08" d="m69.805 44.066.068.068-.068-.068z"/><path fill="#000" d="M45.47 45.856c-.398-.398-.796-.928-1.392-.796l1.723 2.122.465-2.652c-.663.066-.663.796-.796 1.326z"/><path fill="#0F0E07" d="m68.744 44.462.068.068-.068-.068z"/><path fill="#000" d="m36.917 45.391-.066-.464h-.265l.066 1.193c.53-.066 1.06-1.06 1.193-1.525l-.928.796z"/><path fill="#010101" d="m63.704 44.596.068.068-.068-.068z"/><path fill="#0D0B05" d="m70.799 44.794.068.068-.068-.068z"/><path fill="#0E0B05" d="m66.556 44.861.068.068-.068-.068z"/><path fill="#0D0B05" d="m64.368 45.06.066.066-.066-.066zm2.851 0 .067.066-.067-.066zM64.301 45.325l.068.068-.068-.068z"/><path fill="#0F0D06" d="m69.208 45.325.068.068-.068-.068z"/><path fill="#0E0D08" d="m63.373 45.523.068.068-.068-.068z"/><path fill="#0D0B05" d="m64.633 45.922.068.068-.068-.068z"/><path fill="#000" d="m40.299 46.055-.464 1.194h-.066l-.73-.995.663 2.122h.066c.2-.663 1.061-1.79.531-2.321z"/><path fill="#0F0E07" d="m30.618 46.32.133.066-.133-.066z"/><path fill="#000" d="m50.112 46.651.53 3.05c-.596-.53-2.387-2.851-3.116-1.99 1.658.531 2.387 2.52 3.846 3.382l-.464-1.724-.53-2.718h-.266z"/><path fill="#0E0B05" d="m64.036 46.651.068.068-.068-.068z"/><path fill="#0D0B05" d="m63.904 46.784.068.068-.068-.068z"/><path fill="#000" d="M54.886 47.314c-.464 1.127.663 2.32 1.06 3.382-1.193-.597-2.253-1.592-3.646-1.658v.332c2.056.198 3.116 2.254 4.708 3.182 0-1.724-1.459-3.647-1.99-5.304l-.132.066z"/><path fill="#0E0B05" d="m63.307 47.38.068.068-.068-.068z"/><path fill="#0D0B05" d="m63.174 47.514.068.068-.068-.068z"/><path fill="#0E0B05" d="m63.108 47.579.068.068-.068-.068z"/><path fill="#000" d="m36.453 48.706-.663.066c.199.53.597.929.796 1.459.199.597.066 1.393.663 1.724.265-.663.994-1.658.795-2.387-.53.265-.73.796-.795 1.392h-.067l-.729-2.254zM28.032 48.773c0 1.79-.265 3.448-.73 5.172.664 0 .995-.663 1.327-1.061.663-.928 1.326-1.923 2.453-2.387v-.066c-1.06-.133-2.453 1.458-2.785 2.387h-.199c.332-1.26.597-2.785.067-3.979h-.133v-.066zM43.482 50.762l-2.122-1.459c.133.398.398.465.663.73.53.53.995 1.657 1.79 1.79l.2-2.984c-.73.332-.531 1.26-.531 1.923zM48.653 50.563c-.663 1.127.265 3.448.464 4.708h-.066c-.53-1.061-1.459-1.923-2.255-2.785-.132-.133-.663-.928-.862-.597-.198.332.862 1.127 1.061 1.393a18.99 18.99 0 0 1 1.923 2.784c.332.597.597 1.326 1.194 1.658-.465-2.32-1.194-4.774-1.194-7.161h-.265z"/><path fill="url(#h)" d="m18.352 51.491-.995 2.851 2.122-1.459c-.066-.729-.398-1.193-1.127-1.392z"/><path fill="#000" d="M33.469 52.221c.398 1.26.796 2.32 1.06 3.58.133.597.067 1.393.531 1.79.53-.994.663-2.121 1.194-3.116.265-.596.73-1.06.597-1.724-.862.398-1.393 2.387-1.658 3.25-.53-1.061-.398-3.183-1.724-3.78zM39.636 53.149c1.06 2.055 1.79 3.978 2.387 6.166.663-.331.53-.994.53-1.657 0-1.525.53-2.984.465-4.443-.398.133-.53.597-.597.995-.2.994-.2 1.989-.398 2.984-.53-1.128-.862-3.846-2.387-4.045z"/><path fill="url(#i)" d="m58.798 53.878-.663 1.06 1.99.93-1.327-1.99z"/><path fill="url(#j)" d="m26.043 57.922-.199 2.785c.796-.796 2.122-2.586.199-2.785z"/><path fill="url(#k)" d="M49.98 60.708c.332.73 1.127 1.525 1.79 1.99l-.796-2.52-.994.53z"/><path fill="url(#l)" d="m34.53 64.553.862-2.917-1.06-.2-.067.796.265 2.321z"/><path fill="url(#m)" d="m42.089 62.233.995 2.917c.198-.53.928-2.52.397-2.917-.331-.398-.994-.133-1.392 0z"/><path fill="#0D0B05" d="m51.77 62.697.199.199-.199-.199z"/><path fill="#FEF666" d="M61.98 40.75c-.332-.066-.663-.332-.663-.597 0-.265.199-.53.862-1.326.53-.663.464-.663-.53.133-1.128.862-1.923 1.193-2.984 1.193h-.929c0-.066.133-.199.332-.331.199-.133.796-.929 1.392-1.658 1.061-1.392 1.592-1.856 2.255-2.055 1.06-.332 2.453.53 2.785 1.657.265 1.061-.663 2.785-1.658 3.05-.199.067-.398.133-.464.067-.133-.067-.265-.133-.398-.133z"/><path fill="#FEF67A" d="M60.522 46.85c-.332-.066-.796-.464-1.127-.928-.398-.53-.663-1.26-1.127-3.05-.2-.796-.398-1.459-.398-1.592-.133-.464.928-.729 2.188-.53.994.199 1.392.53 1.591 1.459.066.331.133.663.133.729s.066-.199.199-.597c.066-.464.199-.862.397-.994l.2-.265.397.265c.597.398.929 1.193.929 2.254 0 1.393-.597 2.52-1.592 2.984-.464.199-1.392.331-1.79.265z"/></g><defs><radialGradient id="b" cx="0" cy="0" r="1" gradientTransform="matrix(28.28593 .0623 -.06525 29.62993 38.571 36)" gradientUnits="userSpaceOnUse"><stop offset="0" stop-color="#FFF68E"/><stop offset=".731" stop-color="#EED26A"/><stop offset="1" stop-color="#D6AA4A"/></radialGradient><radialGradient id="c" cx="0" cy="0" r="1" gradientTransform="matrix(1.107 0 0 .69196 55.493 27.634)" gradientUnits="userSpaceOnUse"><stop offset="0" stop-color="#FFF68E"/><stop offset=".5" stop-color="#FAEA82"/><stop offset="1" stop-color="#D6AA4A"/></radialGradient><radialGradient id="d" cx="0" cy="0" r="1" gradientTransform="matrix(.37431 0 0 .42099 62.854 28.69)" gradientUnits="userSpaceOnUse"><stop offset="0" stop-color="#FFF68E"/><stop offset=".5" stop-color="#FAEA82"/><stop offset="1" stop-color="#D6AA4A"/></radialGradient><radialGradient id="e" cx="0" cy="0" r="1" gradientTransform="matrix(1.1527 0 0 .82415 61.08 38.373)" gradientUnits="userSpaceOnUse"><stop offset="0" stop-color="#FFF68E"/><stop offset=".5" stop-color="#FAEA82"/><stop offset="1" stop-color="#D6AA4A"/></radialGradient><radialGradient id="f" cx="0" cy="0" r="1" gradientTransform="matrix(1.0396 0 0 1.0446 60.771 43.814)" gradientUnits="userSpaceOnUse"><stop offset="0" stop-color="#FFF68E"/><stop offset=".5" stop-color="#FAEA82"/><stop offset="1" stop-color="#D6AA4A"/></radialGradient><radialGradient id="g" cx="0" cy="0" r="1" gradientTransform="matrix(10.18 0 0 10.37 60.529 47.808)" gradientUnits="userSpaceOnUse"><stop offset="0" stop-color="#FFF68E"/><stop offset=".5" stop-color="#FAEA82"/><stop offset="1" stop-color="#D6AA4A"/></radialGradient><radialGradient id="h" cx="0" cy="0" r="1" gradientTransform="matrix(.3586 0 0 .48333 18.49 52.907)" gradientUnits="userSpaceOnUse"><stop offset="0" stop-color="#FFF68E"/><stop offset=".5" stop-color="#FAEA82"/><stop offset="1" stop-color="#D6AA4A"/></radialGradient><radialGradient id="i" cx="0" cy="0" r="1" gradientTransform="translate(59.275 54.94) scale(.34304)" gradientUnits="userSpaceOnUse"><stop offset="0" stop-color="#FFF68E"/><stop offset=".5" stop-color="#FAEA82"/><stop offset="1" stop-color="#D6AA4A"/></radialGradient><radialGradient id="j" cx="0" cy="0" r="1" gradientTransform="matrix(.20443 0 0 .4833 26.544 59.353)" gradientUnits="userSpaceOnUse"><stop offset="0" stop-color="#FFF68E"/><stop offset=".5" stop-color="#FAEA82"/><stop offset="1" stop-color="#D6AA4A"/></radialGradient><radialGradient id="k" cx="0" cy="0" r="1" gradientTransform="matrix(.31177 0 0 .43652 50.659 61.325)" gradientUnits="userSpaceOnUse"><stop offset="0" stop-color="#FFF68E"/><stop offset=".5" stop-color="#FAEA82"/><stop offset="1" stop-color="#D6AA4A"/></radialGradient><radialGradient id="l" cx="0" cy="0" r="1" gradientTransform="matrix(.18702 0 0 .52904 34.498 63.068)" gradientUnits="userSpaceOnUse"><stop offset="0" stop-color="#FFF68E"/><stop offset=".5" stop-color="#FAEA82"/><stop offset="1" stop-color="#D6AA4A"/></radialGradient><radialGradient id="m" cx="0" cy="0" r="1" gradientTransform="matrix(.27402 0 0 .53233 42.911 63.53)" gradientUnits="userSpaceOnUse"><stop offset="0" stop-color="#FFF68E"/><stop offset=".5" stop-color="#FAEA82"/><stop offset="1" stop-color="#D6AA4A"/></radialGradient><clipPath id="a"><path fill="#fff" d="M0 5.143h72V67.52H0z"/></clipPath></defs></svg>