<svg xmlns="http://www.w3.org/2000/svg" viewBox="0 0 88.133586 526.87439">
  <path fill="red" d="m34.795025 374.243566-.241398-.0298.02036-.90108.02036-.90106.19185-.31044.191843-.31047 3.407623-2.7671 3.407605-2.76711.103443-.0756.103442-.0755-.118281-1.07252-.118281-1.07253-.156763-1.73659-.156773-1.73659-.126927-1.89445-.126937-1.89445-.06536-1.10511-.06536-1.10509-.09102-1.95761-.09102-1.9576-.0781-2.41544-.0781-2.41542h-.317068l-1.082455.22074-1.082446.22075-1.200811.34413-1.20081.34414-1.066585.3896-1.066594.38959-1.105093.47053-1.105103.47054-1.452416.71809-1.452416.7181-1.323638.73783-1.323639.73783-1.391749.8341-1.391751.83407-1.420842.90483-1.420842.90483-1.294546.86239-1.294537.86238-.07894.047-.07894.047.0019-2.16655.00093-2.16657 3.508891-2.90406 3.50889-2.90405.02882-.0465.02873-.0465-.260624-.28273-.260624-.28276-.09703-.30295-.09703-.30295-.03189-1.12298-.03189-1.123.112386-.12419.112396-.12421h2.427757l.08665.10444.08666.10443v1.79623l.129187-.10266.129177-.10267 3.044032-2.52339 3.044032-2.52338v-.21845l-.253502-.2929-.253502-.29289-.0861-.16878-.0861-.16876-.07084-.33464-.07084-.33465v-2.05242l.07578-.0757.07577-.0758h2.485213l.07373.0889.07373.0889-.0186 1.10505-.0186 1.10505.06313-.038.06313-.038 2.529153-2.0968 2.529144-2.09681.164368-.24838.164359-.24838.102138-.30084.102128-.30084.06211-2.15672.0622-2.1567.06424-1.01039.06425-1.01036.09544-.91567.09543-.91565.12491-.78935.124911-.78935.130544-.66307.130553-.66306.155453-.63149.155451-.63148.194631-.59991.194629-.59992.28222-.59411.28221-.59411.33286-.33286.33287-.33284.23314-.0437.23313-.0437.22337.0362.22336.0362.22177.16915.22176.16915.27297.42196.27296.42196.22329.53941.22329.53941.24748.87747.24749.87745.19582 1.01039.19582 1.01038.12493.88408.12493.88407.0931 1.07354.0932 1.07351.0393.78936.0393.78936.0526 1.9576.0526 1.95761.12845.33525.12845.33526.161.21111.16102.2111 2.55222 2.11516 2.55222 2.11514-.005-1.09212-.005-1.09212.0839-.10122.0839-.10122h2.4383l.10584.10584.10583.10583-.0284 1.17291-.0285 1.17293-.10495.2776-.10494.2776-.25002.27121-.24999.27124-.042.16734-.042.16735.11879.11188.1188.11189 2.77852 2.29808 2.77855 2.29809.28417.23137.28416.23137-.0194-.8531-.0194-.85313.0997-.1521.0997-.15212h2.45272l.0983.14035.0983.14035v1.54147l-.0683.49135-.0683.49137-.0981.19206-.0981.19205-.21637.24136-.21636.24137.0629.0744.0629.0744 3.47428 2.87326 3.47429 2.87325.003 2.16811.003 2.1681-.0473-.021-.0473-.021-1.13668-.76289-1.13667-.76287-1.23139-.79033-1.2314-.79031-1.07353-.66087-1.07353-.66088-.9788-.57076-.9788-.57078-.88409-.49322-.88406-.49321-1.32613-.67211-1.32611-.67208-.82094-.36882-.82093-.36882-.9804-.39395-.98038-.39396-1.04036-.34895-1.04037-.34897-.94723-.25688-.94722-.25689-.9662-.19094-.96621-.19093h-.29156l-.043 1.40505-.0429 1.40506-.0621 1.57871-.0621 1.57872-.0954 1.92602-.0954 1.92603-.0928 1.48398-.0928 1.48401-.12942 1.70502-.12941 1.705-.1849 1.84365-.18488 1.84366-.0339.24024-.0339.24025 3.52159 2.84642 3.52159 2.84643.18944.30586.18944.30586.0215.89541.0215.89541-.39389.0412-.39385.0412h-1.09981l-.81431-.0643-.81431-.0643-.75783-.12605-.75782-.12605-.708-.18575-.70802-.18575-1.01144-.389-1.01143-.38901-.0846.0325-.0845.0324-.0787.35149-.0787.35148-.19026.16009-.19025.1601h-.67526l-.18717-.1575-.18719-.1575-.10956-.40478-.10957-.40478-.3238.11375-.3238.11375-.741555.29237-.741558.29237-.845419.21669-.845436.21668-.875803.13112-.875803.13114-1.262963.0233-1.262973.0233zm2.008987-222.927888-.221924-.09648-.138494-.227153-.138497-.227162-.000259-.256059-.000259-.256049.167099-.44395.167101-.443949-.282965-.09431-.282966-.09434-.21046-.63004-.21046-.630045-.424573-.396179-.424575-.396189-.18592-.577962-.18592-.577962v-.538056l.134477-.183512.134479-.183501.235565-.120123.235565-.120122 1.219428-.00013 1.21946-.000083v-2.1984h-2.583951l-.710449-.875922-.710447-.875924-.132299-.296084-.132298-.296084-.0061-.322219-.0061-.322219.0542-.482514.05419-.482515-.182548-.216945-.182547-.216935-.461587-.255426-.461588-.255418-.583951-.591294-.583948-.591293-.424425-.720927-.424423-.720936-.37281-.858751-.372811-.858751-.248258-.7557-.24826-.755699-.173934-.67735-.173931-.677341v-.258596l-3.79481-.01776-3.794808-.01776-.104132-.6485-.10413-.648501-.360322-.144844-.360321-.144834-.06298-.06545-.06298-.06536-.04812-.395026-.04812-.395028h3.176036v.893096h3.146402l.124349-.345806.124351-.345806.140174-.0317.140176-.0317.741904-.129689.741905-.12968.02679-.02677.02678-.02677.07338-.84499.07338-.844992.131968-.604663.131969-.604663.184329-.541107.18433-.541106.329457-.669718.329456-.669716.398748-.601233.39875-.601233.346766-.348558.346767-.348567.337978-.115167.33798-.115157h2.311327v-5.457061l-.105168-.277098-.105164-.277099 1.170744-8.347053 1.170748-8.347053.108445-.343501.108441-.3435.136881-.223277.13688-.223275h.236695l.319773-.202795.319777-.202794.199077-.274821.199075-.274811.07856-.295266.07856-.295265.687634-4.946403.687624-4.946403.06173-.143941.06173-.143942.607444-.471888.607443-.471888.08367-.105525.08368-.105516.0019-.42938.0019-.429371.137397-.137406.137396-.137396h5.496001l.13741.137396.1374.137406.002.429371.002.42938.0836.105516.0836.105525.60745.471888.60744.471888.0617.143942.0618.143941.68764 4.946403.68763 4.946403.0785.295265.0786.295266.19907.274811.19908.274821.31978.202794.31978.202795h.23669l.13688.223275.13687.223277.10845.3435.10844.343501 1.17075 8.347053 1.17075 8.347053-.10517.277099-.10516.277098v5.457061h2.31132l.33798.115157.33799.115167.34676.348567.34676.348558.39875.601233.39875.601233.32945.669716.32947.669718.18433.541106.18432.541107.13197.604663.13197.604663.0734.844992.0734.84499.0268.02677.0268.02677.74191.12968.7419.129689.14018.0317.14017.0317.12434.345806.12436.345806h3.1464v-.893096h3.17604l-.0481.395028-.0481.395026-.0629.06536-.0629.06545-.36033.144834-.36032.144844-.10413.648501-.10414.6485-3.79481.01776-3.79479.01776v.258596l-.17395.677341-.17393.67735-.24826.755699-.24825.7557-.37281.858751-.37282.858751-.42442.720936-.42442.720927-.58395.591293-.58395.591294-.46159.255418-.46159.255426-.18255.216935-.18255.216945.0542.482515.0542.482514-.006.322219-.006.322219-.1323.296084-.13231.296084-.71044.875924-.71045.875922h-2.58397v2.1984l1.21942.000139 1.21943.000139.23557.120122.23556.120113.13448.183511.13448.183503v.538066l-.18593.577952-.18592.577971-.42457.396179-.42457.39618-.21045.630045-.21047.630049-.28296.09432-.28298.09432.16711.443949.1671.443939-.00026.256059-.00026.25605-.13865.227413-.13864.227413-.23675.09891-.23673.09891-7.02679-.0028-7.026781-.0028-.221924-.09648zm1.256441-31.903233.451331-.67788.493675-.189397.493669-.189406.292095-.16619.292086-.166191.137295-.269093.137275-.269103v-.546127l-.06685-.175851-.06685-.17585-.734437-.962175-.734437-.962175h-.09298l-1.132037 2.559081-1.13203 2.559081.10778.152411.107777.152412.497695.0019.497696.0019.451327-.677871zm13.568968.521135.10779-.152411-1.13204-2.559081-1.13204-2.559081h-.093l-.73444.962175-.73445.962175-.0669.17585-.0669.175851v.546127l.13728.269103.13729.269093.29209.166191.29209.16619.49368.189406.49367.189397.45132.67788.45134.677871.4977-.0019.49769-.0019.10778-.152421zm-15.56611-2.969122.457554-1.236596.01208-.06294.01208-.06294-.4122-.0887-.412201-.08869-.120228-.0028-.120224-.0028v2.912883l.06279-.06526.06279-.06526zm16.56205-1.529789-.0327-.03263-.46682.08619-.46681.08619-.0438.02455-.0438.02455.44048 1.185814.44047 1.185814.0842.171751.0842.171749.0186-1.435549.0186-1.435551zM38.9314 523.744576l-.214732-.0795-.185631-.12773-.18564-.12772-.167474-.19025-.167473-.19027-.06545-.19195-.06536-.19196v-.25841l.06369-.24749.06369-.24748.154569-.31144.154569-.31142.411826-.70026.411827-.70025-.07131-1.04375-.07131-1.04376-.03896-.83048-.03896-.83049-.000344-1.51562-.000344-1.51562.04183-.9343.04184-.93428.06703-.97582.06703-.9758.01171-4.56175.01172-4.56173-.131381.0269-.131382.0269-.456761.0786-.45676.0787-.587296.0646-.587287.0646-.720713.0266-.720693.0266-.726669-.0496-.726671-.0496-.436003-.0599-.436002-.0599-.638432-.12758-.638432-.12757-.576899-.16304-.576902-.16304-.528675-.19091-.528677-.1909-.352953-.14517-.352954-.14515-.498288-.2295-.498289-.22949-.622859-.33417-.62286-.33416-.809719-.48403-.809717-.48403-.31143-.17021-.311431-.17022-.467985-.19138-.467986-.19137-.527152-.14448-.527153-.14448-.635564-.12284-.635567-.12284-.881498-.12438-.881499-.12438-2.076201-.23047-2.0762-.23046-.51905-.0834-.519049-.0835-.38903-.10308-.38903-.10308-.279295-.14676-.279294-.14678-.130979-.13512-.130979-.13514 1.629784-.0958 1.629783-.0958.118843-.0279.118842-.0279-1.821326-.11563-1.821328-.11561-.108883-.0204-.108885-.0203-.28114-.62302-.281139-.62299-.149788-.24724-.149789-.24724-.178781-.20725-.17878-.20725.137256.00062.137257.00062 1.338123-.0501 1.338123-.0501-.01035-.0103-.01035-.0104-1.839466-.13378-1.839467-.13379-.46415.10811-.46415.10811-.424376.0481-.424378.0481-.334405-.045-.334405-.045-.224584-.10624-.224584-.10625-.127147-.14481-.127146-.14481-.08729-.1711-.08729-.17108-.09846-.54195-.09846-.54194.0158-.0158.0158-.0158.761411-.11085.761409-.11087-.845865-.0113-.845865-.0113-.192235-.16946-.192234-.16946-.293716-.19299-.293716-.19301-.421813-.22839-.421813-.22838-.000744-.0283-.000747-.0283.09344-.0179.09342-.018-.183315-.005-.183318-.005-.314972-.1721-.314972-.1721-.32-.20446-.320001-.20444-.126383-.14395-.126383-.14394v-.1184l.08585-.0799.08585-.08.238259-.0669.238257-.0669.433707-.0601.433707-.0601.934291-.0854.93429-.0854 2.449916-.20726 2.449917-.20729 1.640198-.14406 1.640198-.14406.872004-.0628.872004-.0628.809717-.0422.809719-.0422 1.14191.00012 1.14191.00013.602098.0413.602098.0413.581337.0636.581336.0636.622859.10365.622861.10366.660634.14811.660634.14813.917279.26262.917277.26262 1.34906.42057 1.34906.42057.706378.20396.706379.20398.664384.16587.664384.16586.533598.10736.533595.10738.583312.0822.58331.0822.668625.0384.668625.0384.661981-.0414.661982-.0414.562975-.10319.562983-.10328.64333-.16675.643325-.16675.726961-.24277.726961-.24275.642904-.2547.642923-.25469.14074-.13372.14075-.13373.0983-.20762.0983-.20762.00041-.19854.0004-.19854-.0862-.25822-.0862-.25822-.24758-.446-.24759-.446-.12326-.27469-.123246-.2747-.08284-.32432-.08284-.32432v-.78068l.08638-.3296.08628-.3296.163956-.31516.16397-.31515.21977-.2662.21978-.26622.23905-.18025.23903-.18023.23557-.11043.23553-.1104h.58309l.28979.14227.2898.14226.37537.37679.37538.37679.17096.33219.17095.33219.0973.31144.0973.31142-.002.49829-.002.49828-.1359.39886-.1359.39884-.28844.53544-.28843.53545-.10951.2699-.1095.26991-.00041.24915-.0004.24914.0865.1661.0865.16609.16244.15713.16242.15712.50071.20329.50071.20327.58794.21098.58794.21098.64167.18584.64166.18585.46088.10404.46089.10403.58771.0868.58771.0868.85125.00093.85124.002.62287-.0707.62286-.0707.56057-.10163.56057-.10173.64363-.14872.64362-.14873.66438-.18542.66439-.18543 1.07962-.33341 1.07962-.33343.72667-.22518.72667-.22519.82393-.22649.82393-.2265.68978-.14834.68979-.14835.63954-.10018.63953-.10008.71191-.0735.71191-.0734h3.69563l.74744.0533.74743.0533 1.03809.0819 1.03811.082 2.05544.18561 2.05543.18562 2.26306.18812 2.26306.18811.64362.0813.64362.0813.2147.0563.2147.0563.10712.0702.10711.0702v.1946l-.0802.10205-.0802.10194-.28311.18895-.28311.18893-.37941.21296-.3794.21296-.18117.004-.18117.004.10381.0308.10381.0308-.13895.0792-.13895.0792-.53914.31047-.53915.31047-.24197.21896-.24195.21897-.86548.004-.86547.004.76819.11825.7682.11825.0356.002.0356.002-.0286.0728-.0286.0727-.0751.44299-.0751.44299-.10153.22165-.10142.22165-.14164.14163-.14164.14163-.20921.0958-.20923.0957-.31572.047-.31572.047-.4254-.0463-.4254-.0463-.49492-.10971-.49494-.10973-1.81356.13331-1.81357.1333-.0104.0105-.0105.0104 1.33812.0501 1.33813.0501.13843-.00062.13844-.00063-.22318.24662-.22317.24662-.19063.36586-.19062.36586-.19897.45055-.19898.45055-.0863.0343-.0862.0344-1.84253.11591-1.84253.11593.11928.028.11928.0281 1.62867.0957 1.62868.0957-.0696.0769-.0695.0769-.23999.16026-.23998.16026-.32257.10683-.32255.10683-.39448.0806-.39448.0806-.64363.0851-.64361.0851-1.3703.14744-1.37029.14744-.97582.12401-.97581.12402-.72089.12554-.72089.12555-.63146.16111-.63146.1611-.3709.14328-.37089.14326-.45676.22917-.45676.22915-.9343.5518-.93429.5518-.78896.40479-.78896.4048-.58439.24904-.58439.24904-.73214.25043-.73213.25043-.65586.16461-.65587.16461-.64362.10646-.64362.10646-.436.0435-.436.0435-.70591.0249-.70591.0249-.68515-.0475-.68514-.0475-.48601-.0626-.48602-.0626-.44589-.0819-.44592-.082h-.0254l.00062 4.34963.00062 4.34964.0818 1.32877.0818 1.32878.0469 1.32876.0469 1.32876-.0271 1.28725-.0271 1.28726-.061 1.0544-.061 1.05441-.043.49559-.0431.4956.4813.82191.48132.82191.12954.30638.12954.30637.0194.32097.0192.32097-.11143.22775-.11143.22774-.19491.17339-.1949.17336-.25392.12007-.25393.12007-.2044.0241-.20441.0242-.12923-.10875-.12923-.10875-.27109-.40466-.27106-.40466-.43918-.47752-.43918-.47753-.26649-.52011-.26649-.52012-.0504-.60103-.0503-.60103.0367-1.26648.0367-1.26649-.006-.85124-.007-.85124-.0886-.6021-.0886-.6021-.24564-1.169-.24563-1.16887-.12724-.67895-.12725-.67894-.24928-1.744-.24932-1.74402-.1057-.51559-.1057-.5156-.10562-.29281-.10562-.2928-.0958-.15186-.0958-.15186-.11217-.0883-.11214-.0882h-.249l-.13392.0827-.13392.0827-.12645.23906-.12645.23904-.0827.2704-.0827.27041-.0867.39999-.0867.40002-.24983 1.75874-.24983 1.75874-.10629.58135-.1063.58133-.285175 1.34952-.285178 1.34953-.07466.45677-.07466.45677.000678 1.12114.000688 1.12114.01683 1.34954.01683 1.34953-.04751.3596-.04752.35962-.194555.38782-.194557.38782-.123181.17943-.123191.17943-.392608.44343-.392601.44343-.285363.41792-.285364.41792-.06545.0543-.06545.0543-.176448.0164-.176455.0163-.214722-.0795zm4.956251-97.52157-.13531-.0277-.11599-.0617-.11599-.0617-.0872-.0824-.0872-.0824-.0562-.0857-.0562-.0857-.0565-.25083-.0565-.25082-.0445-.22232-.0445-.22232h-6.628087l-.378375-.23068-.378375-.2307-.412729-.30049-.412728-.30046-.393242-.33916-.393241-.33917-.244688-.29024-.244688-.29026-.159729-.29255-.159738-.29255-.04834-.22798-.04834-.22795.0185-.28102.0185-.28102.09436-.2323.09436-.23231.153257-.23158.153248-.23159.270638-.28563.270636-.28562.309306-.23891.309295-.23891.252497-.15704.252498-.15703.280604-.14131.280605-.14131.336805-.11197.336807-.11197.289975-.0672.289966-.0672 2.261757-.0147 2.261763-.0147.04138-.0542.04147-.0542-.186169-1.13294-.186171-1.13293-.192102-1.33386-.192112-1.33386-.116133-1.0439-.116133-1.04388-.07828-.85057-.07828-.85058-.09534-1.21787-.09533-1.21788-.06759-1.05318-.06759-1.05319-11.909801-.0103-11.909795-.0104-.18444-.0916-.184432-.0916-.147058-.16707-.147056-.16707-.04621-.15431-.04621-.1543-.09486-.61157-.09486-.61156-.09621-.71527-.0962-.71525-.09664-.90856-.09663-.90858-.04435-.67898-.04435-.67899.01496-.6162.01506-.61622.123515-.25476.123515-.25474.195477-.18285.195487-.18285.221137-.10368.221129-.10368 11.937072-.0104 11.937062-.0103.000382-.53129.000381-.53131.03774-.85058.03774-.85057.04323-.50262.04323-.50261.0037-.13059.0037-.13057-.08944-.0724-.08944-.0725h-.877022l-.08879-.0417-.08879-.0416-.125877-.16968-.125877-.16967-.04509-.099-.04509-.0991.06192-.12979.06192-.12979.124771-.1421.124761-.1421.138987-.0701.138977-.0701.263917-.0453.263914-.0452.200034-.0763.200033-.0763.182823-.13453.182814-.13453.3627-.45654.362708-.45654.189072-.16342.189062-.16341.290709-.14682.290702-.14682.26023-.0705.26024-.0705v-.29779h-6.71328l-.200945-.0597-.200943-.0597-.197672-.16263-.197681-.16265-.08136-.14202-.08144-.14204.119276-.16727.119275-.16727.183568-.12529.183567-.12529.196499-.0584.196473-.0584h7.253053l.022-.10633.022-.10631.0656-.13239.0656-.13238.14644-.1061.14642-.10612.14885-.0251.14886-.025.16726.0451.16727.045.14411.14412.14411.1441.0455.18082.0455.1808h7.24535l.19651.0584.19649.0584.18626.12529.18625.12529.11322.16196.11321.16196-.0495.11936-.0495.11936-.19006.17089-.19008.17089-.21223.0794-.21221.0794h-6.76306v.29784l.26023.0705.26025.0705.29407.14719.29407.14717.18482.1627.18483.16268.36331.45379.36333.45379.19393.14236.19394.14237.18738.0712.18739.0712.2657.0455.26571.0455.13532.0688.13532.0688.10236.10986.10235.10985.0811.13533.081.13531.00015.0798.00016.0798-.17455.23487-.17453.23487-.0864.0232-.0865.0232-.43495.00053-.43497.00054-.0828.0827-.0827.0827.0272.39083.0272.39085.0352.48327.0352.48329.0266 1.13056.0266 1.13059 11.93165.0103 11.93166.0103.25455.12533.25455.12531.1823.19489.18229.19489.10361.22106.10362.22107-.004 1.06323-.004 1.06322-.0837.81191-.0837.81191-.0977.79258-.0977.79258-.13523.9029-.13521.90287-.0794.16887-.0794.16888-.1552.14021-.15518.1402-.14073.0639-.14071.0639-11.91197.0104-11.91197.0103-.0262.51192-.0262.51191-.0776 1.08255-.0776 1.08255-.0964 1.14055-.0964 1.14054-.0962.94724-.0962.94723-.13584 1.06322-.13583 1.06322-.1353.88924-.13529.88924-.15529.92636-.1553.92638.0115.11752.0115.11751 2.2811.0228 2.28108.0228.28997.0671.28997.0671.34797.11553.34796.11553.36222.19047.36222.19049.33371.22006.33369.22006.44463.44764.44463.44762.14621.25106.14623.25105.0807.26371.0807.26371-.0162.33919-.0161.3392-.15616.325-.15615.32499-.24254.30115-.24254.30116-.33395.29921-.33393.29923-.38663.29168-.38663.2917-.28996.19458-.28997.19458-.21578.12156-.21576.12156h-6.62438v.0301l-.0598.32322-.0598.32325-.058.1795-.058.1795-.13588.13989-.13588.13992-.12401.0517-.12401.0517-.17335.021-.17333.021zM31.95166 221.116276v-2.68479l-.534748.038-.534749.038-.626801.0907-.626803.0907-.823378.20023-.823378.20022-.646939.20131-.64694.20131-.588127.22087-.588127.22086-.373729.16849-.373728.16847.039-.16083.03899-.16084.31909-.66689.31909-.66691.372599-.56816.372598-.56816.474011-.58813.474011-.58812.639357-.67148.639356-.67147.765466-.71062.765464-.71063.984213-.84464.984213-.84465v-21.15957l4.210064-5.85395 4.210057-5.85395.17002-2.0122.170022-2.0122.119545-1.11744.119546-1.11745.1507-1.17627.150701-1.17624.174373-1.02923.174363-1.02922.180378-.79398.180378-.79396.255343-.77916.25535-.77916.29473-.61103.29474-.61103.47616-.71237.47618-.71235h.1002l.4097.60283.4097.60282.26645.49991.26645.49991.20896.52966.20897.52966.20819.72332.2082.72331.20289 1.01132.20289 1.01131.17864 1.23506.17865 1.23507.17596 1.58796.17596 1.58793.11903 1.38211.11905 1.38209.0534.65846.0534.65846 4.21082 5.85499 4.21082 5.85501v21.15952l.98421.84465.98422.84465.76546.71062.76547.71063.63935.67148.63936.67146.47401.58814.47401.58811.3726.56817.3726.56816.31909.66692.31909.66689.0389.16083.0389.16084-.37374-.16849-.37373-.16848-.58812-.22087-.58813-.22085-.64693-.20131-.64694-.20131-.82338-.20023-.82338-.20023-.62681-.0907-.62679-.0907-.53475-.038-.53476-.038v5.36957h-2.61185v-5.46958h-2.73219l.23395-.18949.23395-.1895.37432-.35451.3743-.35453.36427-.45417.36427-.45416.27135-.51624.27134-.51625.12219-.32347.12219-.32347.00003-5.12518.00003-5.12517-.22002-.41365-.18413-.35083-.14464-.29677-.24334-.2878-.30137-.1307-.38212-.1307-.49991-.11662-.49991-.1166-1.06751-.0331-1.06752-.0331-.66746.0695-.66746.0694-.12697.0315-.12696.0315-.0687.50959-.0687.50957-.17241.85963-.17241.85962-.23882.87099-.23882.87099-.32195 1.02189-.32196 1.02191-.2979.84977-.29791.84976h-2.2092l-.29791-.84976-.2979-.84977-.321957-1.02191-.321958-1.02189-.238821-.87099-.238812-.87099-.172411-.85962-.172411-.85963-.06871-.50957-.06871-.50959-.126965-.0306-.126974-.0306-.612892-.07-.6129-.07-1.122074.0324-1.122075.0324-.499907.11699-.499909.11699-.507741.18454-.265482.1307-.333058.27883-.153608.20704-.166189.36878-.04954.47644.000029 5.12519.00003 5.12517.122187.32347.122186.32347.27135.51624.27135.51625.364264.45416.364265.45417.374314.35452.374313.35452.233948.1895.233948.18949h-2.732246v5.46958l-2.023731-.0359h-.588126zm11.511991 84.62126-.52057-.3447-.16108-.24157-.1611-.24156-.12863-.33912-.12862-.33911-1.87532-.0355-1.875321-.0355-.184311-.082-.184292-.082-.256319-.22504-.25631-.22506-.148497-.28597-.148489-.28597-.02631-.66348-.02631-.66348-.07475-.19387-.07475-.19387-.182843-.12946-.182833-.12946-.419041-.0883-.419041-.0883-.280111-.15773-.280112-.15775-.15638-.27826-.156392-.27826.0019-.30476.0019-.30478.131363-.58087.131372-.58087-.0808-.0281-.0808-.0281-7.568008-1.63953-7.568009-1.63953-.033-.033-.03301-.033.000827-1.76919.000819-1.76921.108881-.80567.108872-.80567.136458-.53354.136457-.53354.215913-.51866.215922-.51864.329526-.4976.329536-.49761.440091-.48957.440091-.48958 1.969386-1.79486 1.969396-1.79486 1.676156-1.68112 1.676157-1.68112.739225-.84216.739214-.84215.548192-.68858.548182-.68858.579848-.8601.579849-.86009.352817-.73149.352825-.73147.270042-.82315.270042-.82314.183168-.89028.183176-.89029.170783-1.16999.170784-1.16999.389801-3.42216.389811-3.42216.241936-1.81584.241945-1.81583.247989-1.57141.247989-1.57139.31055-1.70605.31056-1.70604.352667-1.64628.352678-1.64627.418474-1.67616.41847-1.67617.349385-1.22218.349377-1.22221.276196-.87863.276188-.87863.302899-.79753.302889-.79752.177914-.3492.177915-.3492.220682-.27938.220691-.27935.479673-.32482.47969-.32482.40666-.15303.40666-.15302.33805.0317.33805.0317.59843.30343.59843.30343.32548.32548.32548.32549.28508.55055.28508.55055.31952.88475.31951.88477.38306 1.26035.38306 1.26035.38776 1.45164.38775 1.45165.38495 1.66525.38495 1.66526.34351 1.72198.34352 1.722.35176 2.13012.35177 2.13011.24302 1.78092.24302 1.78092.35155 3.07296.35154 3.07295.18019 1.43172.1802 1.43172.17167.94284.17169.94284.2128.80316.21282.80316.30746.75091.30747.75093.3259.57604.3259.57605.28143.41902.28142.41905.42001.55872.42.55872.58757.6984.58757.6984 1.12642 1.21216 1.12643 1.21214 1.2234 1.16549 1.22338 1.16549 1.53648 1.40013 1.53648 1.40011.61054.64261.61053.64263.28533.42015.28531.42015.23628.50223.23626.50222.17791.62073.1779.62073.11662.84592.11664.8459-.00034 1.76303-.00035 1.76302-.0407.0407-.0407.0407-7.56656 1.63865-7.56654 1.63866-.0796.027-.0795.027.12954.54643.12953.54643.00093.3492.00093.3492-.15603.27547-.15602.27546-.22627.13216-.22627.13215-.42319.0987-.42317.0987-.19664.10173-.19664.10173-.11417.24062-.11418.2406v1.10638l-.11105.3259-.11104.32589-.3358.30191-.33581.30192-.27711.083-.27711.083h-3.49173l-.12504.33174-.12504.33173-.19266.28311-.19265.28311-.26797.17853-.26798.17854-.25269.14944-.25268.14947h-.1296l-.52056-.34471zM31.319802 70.56685l-.699087-.5651499.000912-.132069.000911-.1320691.143765-2.6667445.143756-2.6667444.09414-.1436814.09415-.1436722.133036-.086652.133045-.086652.615114-.042024.615123-.042024.02008-.065546.02008-.065454.276448-3.15336865.276457-3.15335935.323046-3.4508564.323046-3.4508466.270517-2.7666355.270516-2.766626.265096-2.588136.265095-2.588144.270173-2.49889.270172-2.49889.266481-2.320399.266481-2.3204.358766-2.885622.358777-2.885624.296018-2.141908.29602-2.141908.267353-1.755175.267365-1.755166.240002-1.427946.240012-1.427935.380066-1.903914.380058-1.903915.305679-1.219702.305685-1.219694.322683-.981709.322684-.981709.350902-.713973.3509-.713962.285328-.393101.413825-.328851.310616-.18192.340257-.167083h3.39137l.34026.167083.32542.206631.34959.333794.33475.363447.3509.713962.35091.713973.32187.981709.32187.981709.26997 1.070954.26998 1.070955.21631 1.01145.21632 1.01146.23627 1.249445.23628 1.249445.32251 1.963418.32251 1.963408.32829 2.290658.3283 2.290647.2661 2.052663.26611 2.052653.23852 1.963418.23851 1.963417.26834 2.350142.26835 2.35015.32571 3.034371.3257 3.034363.41835 4.194571.41837 4.194572.38576 4.1350676.38575 4.1350681.24433 2.79637773.24433 2.79638707.0201.065454.0202.065546.61512.042024.61512.042024.13304.086652.13303.086652.0942.1436722.0942.1436814.14376 2.6667444.14375 2.6667445.00092.1323759.00091.1323666-.70602.5667205-.70602.56673h-1.32483v-.713972h-2.43095l-.27426-.4400442-.27427-.4400351-.069-1.701864-.069-1.701864h-.85578l-.0319-.1338727-.0319-.1338636-.45314-2.3501504-.45315-2.3501507-.0311-.10412117-.0311-.10412125h-1.8364l.00012.0743793.00012.0743793.44609 2.03814972.4461 2.038159v.11008l-.44623.099277-.44623.099277v4.0933786h-2.85588v1.4279362h-.41649v-.297488h-.29766v-.5949753h-.59498v.5949753h-.29748v.297488h-.41649v-1.4279358h-2.856078v-4.0933786l-.446227-.099277-.446233-.099277v-.11008l.446093-2.038159.446098-2.0381497.00012-.0743793.000121-.0743793h-1.836404l-.03114.10412125-.03115.10412117-.453144 2.35015068-.453135 2.3501504-.03189.1338636-.03189.1338727h-.855766l-.06908 1.701864-.06908 1.701864-.274272.440035-.274263.4400439h-2.430936v.713973l-.669345-.0019-.669345-.0019-.699097-.56515zm9.908924 396.948126-.0105-1.25518-7.97459-4.05738-7.974591-4.0574-4.341809-.00046-4.341813-.00045-.593247-.19899-.593255-.19899-.440574-.22037-.440574-.22036-.378887-.25361-.378877-.25362-.264278-.23631-.264277-.23632-.287019-.31394-.287009-.31395-.238162-.35815-.238161-.35815-.234936-.48045-.234925-.48045-.155703-.47461-.155713-.47463-.101145-.49742-.101145-.49744-.04193-.38642-.04194-.38643.000233-.56864.000242-.56865.05931-.39794.05931-.39795.0834-.27856.0834-.27855.164934-.31836.164927-.31836.242847-.24309.242847-.24308.255073-.12416.255083-.12415.238765-.0618.238765-.0617 13.042658.002 13.042651.002v-5.88445l-1.223673-.0169-1.223682-.0169-.23632-.0677-.23632-.0677-.232411-.0939-.232412-.0939-.221209-.13351-.221208-.13349-.205436-.17398-.205437-.17398-.208214-.24386-.208211-.24386-.179784-.35061-.179784-.35061v-.123l.139142-.26448.139144-.26449.180786-.23007.180786-.23008.239796-.18777.239796-.18776.285907-.14692.28591-.14692.278561-.0719.278561-.0719h15.161712l.34864.12475.34866.12474.22837.13393.22837.13391.33931.33825.33932.33826.16922.32664.16921.32664-.11494.25349-.11495.2535-.13831.21576-.13832.21575-.21172.23123-.21172.23123-.24252.17289-.24253.17291-.28069.14073-.28069.14074-.29633.0884-.29632.0884-1.24358.0168-1.24358.0168v5.88455l13.04965-.003 13.04965-.003.25166.0649.25167.0649.26871.14086.2687.14087.2361.2524.23613.2524.16234.32959.16234.32959.0964.38321.0964.38321.0458.49227.0459.49227-.0261.45764-.0261.45763-.059.41785-.059.41783-.10288.43775-.10287.43774-.13613.39795-.13612.39793-.2571.51733-.25709.51733-.268.37805-.26799.37805-.41785.41784-.41784.41784-.37805.26815-.37804.26815-.55713.27747-.55712.27744-.54548.18065-.5455.18064-4.34923.00093-4.34924.00093-7.9589 4.05079-7.95891 4.05079-.0105 1.26075-.0106 1.26075h-5.648586zm.66836-3.56991-.80902-1.64153-1.027647-2.07926-1.027642-2.07926-5.771833.002-5.771833.002.258664.1337.258664.13371 7.043629 3.5847 7.043629 3.58471.306204.00042.3062.00042-.809015-1.64153zm4.219455-2.06977 1.83414-3.71039-3.88005-.0104-3.880049-.0104-.0145.0145-.0145.0145.891515 1.80629.891514 1.80629.93833 1.9002.93833 1.90019.23056-.00046.23057-.00047 1.83414-3.71037zm7.18649.00045 7.29429-3.71084-5.74777-.0104-5.74778-.0104-.0291.0299-.0291.03-1.81351 3.66716-1.81351 3.66715v.0476h.59222l7.29428-3.71084zm-6.49368-17.49964v-2.94479h-5.491649v5.8896h5.491649z"/>
</svg>
