<svg xmlns="http://www.w3.org/2000/svg" xmlns:xlink="http://www.w3.org/1999/xlink" width="16.6666667px" height="16.0238799px" viewBox="0 0 16.6666667 16.0238799" version="1.1">
    <title>05_Office/Security-camera Copy</title>
    <g id="New-versions" stroke="none" stroke-width="1" fill="none" fill-rule="evenodd">
        <g id="Solutions" transform="translate(-152, -315)" fill="#000000" fill-rule="nonzero">
            <g id="Icon-Red_Hat-Security_camera-A-Black-RGB" transform="translate(152, 315)">
                <path d="M4.18828013,4.88175373 C3.9782435,4.88508806 3.80972999,5.05631953 3.80975646,5.26638262 C3.83411514,5.45857088 3.99760698,5.60264907 4.19133274,5.60264907 C4.3850585,5.60264907 4.54855034,5.45857088 4.57290901,5.26638262 C4.57290901,5.05395795 4.4007048,4.88175373 4.18828013,4.88175373 Z" id="Path"/>
                <path d="M16.5574567,5.03438424 C16.48325,4.9417 16.3709265,4.88778473 16.2521957,4.88785895 L13.7734762,4.88785895 L14.1764208,3.54471045 C14.2363404,3.34431892 14.1251448,3.132776 13.9261067,3.06850326 L4.15775402,0.0158930363 C3.95401794,-0.0438721526 3.73984194,0.069993572 3.67544161,0.272312295 L1.84387548,6.37753274 C1.78395582,6.57792428 1.89515145,6.7894672 2.09418951,6.85373994 L4.28596365,7.53752463 C4.20662211,8.60579298 4.75130757,9.62380773 5.68405914,10.150559 C5.09554189,11.1849115 4.18406637,11.9977332 3.08934045,12.4644375 C2.75515728,11.2409244 1.64693268,10.3897879 0.378622569,10.3825574 C0.277729752,10.3808894 0.180478599,10.4202336 0.109126855,10.4915853 C0.0377751112,10.5629371 -0.00156909248,10.6601882 4.79463124e-05,10.761081 L4.79463124e-05,15.6452574 C-0.00156909248,15.7461502 0.0377751112,15.8434013 0.109126855,15.9147531 C0.180478599,15.9861048 0.277729752,16.025449 0.378622569,16.023832 C1.93640348,16.023832 3.19923441,14.7609501 3.19923441,13.2031692 C4.5588329,12.6780112 5.68954626,11.6899882 6.39226471,10.4130835 C7.60106837,10.7505886 8.88666136,10.241344 9.53645324,9.16761848 L11.8930683,9.90635016 C11.9908657,9.93617017 12.0965669,9.92515962 12.1861189,9.87582406 C12.2766945,9.82863949 12.3447857,9.74736938 12.3753807,9.6499309 L12.7783253,8.3067824 L14.8296794,9.84529795 C14.9311362,9.92580103 15.0662961,9.94983784 15.1892877,9.90925063 C15.3122793,9.86866342 15.4065859,9.76890264 15.4402014,9.64382568 L16.6612455,5.37017137 C16.6817822,5.24812159 16.643281,5.1235588 16.5574567,5.03438424 Z M0.757146236,15.2301024 L0.757146236,11.176236 C1.72997637,11.3620216 2.43361859,12.2127578 2.43361859,13.2031692 C2.43361859,14.1935806 1.72997637,15.0443168 0.757146236,15.2301024 Z M7.09436506,9.77203539 C5.9802365,9.77235115 5.06953782,8.88333576 5.04301099,7.769523 L8.74277458,8.92951489 C8.35781785,9.45565348 7.74628446,9.76821499 7.09436506,9.77203539 Z M11.7221222,9.05772452 L2.6863959,6.23711267 L4.29817409,0.864518678 L13.3339004,3.68513052 L11.7221222,9.05772452 Z M14.8174689,8.92951489 L13.0225341,7.58026117 C13.1324281,7.09794875 13.3949526,6.13942914 13.5475831,5.66932717 L15.7454624,5.66932717 L14.8174689,8.92951489 Z" id="Shape"/>
                <path d="M7.91856982,6.02342995 L5.64132259,5.31522438 C5.44069929,5.25284571 5.22749407,5.36491512 5.1651154,5.56553842 C5.10273673,5.76616172 5.21480614,5.97936694 5.41542944,6.04174562 L7.63162446,6.73774075 C7.7335216,6.77956212 7.84797877,6.77852233 7.94909931,6.73485664 C8.05021984,6.69119096 8.12945736,6.60858986 8.16888386,6.50574237 C8.20127625,6.40861266 8.1929389,6.30250358 8.14577404,6.21162495 C8.09860919,6.12074633 8.01664046,6.052851 7.91856982,6.02342995 L7.91856982,6.02342995 Z" id="Path"/>
            </g>
        </g>
    </g>
</svg>