<svg xmlns="http://www.w3.org/2000/svg" xmlns:xlink="http://www.w3.org/1999/xlink" width="13.648268px" height="16px" viewBox="0 0 13.648268 16" version="1.1">
    <title>02_Software/Secured Copy</title>
    <g id="New-versions" stroke="none" stroke-width="1" fill="none" fill-rule="evenodd">
        <g id="Solutions" transform="translate(-445, -195)" fill="#000000" fill-rule="nonzero">
            <g id="02_Software/Secured" transform="translate(445, 195)">
                <path d="M13.3603738,1.38301814 L6.90047822,0.00882217541 C6.85026172,-0.00294072514 6.79800628,-0.00294072514 6.74778978,0.00882217541 L0.28789422,1.38301814 C0.117938953,1.41708401 -0.00324522882,1.56794595 6.6240752e-05,1.74124871 L6.6240752e-05,9.17600124 C6.6240752e-05,12.9447917 3.05534355,16 6.824134,16 C10.5929244,16 13.6482018,12.9447917 13.6482018,9.17600124 L13.6482018,1.74124871 C13.6515132,1.56794595 13.530329,1.41708401 13.3603738,1.38301814 Z M12.9199264,9.17600124 C12.9199264,12.5426144 10.1907472,15.2717936 6.824134,15.2717936 C3.45752084,15.2717936 0.728341645,12.5426144 0.728341645,9.17600124 L0.728341645,2.03488033 L6.824134,0.742901216 L12.9199264,2.03488033 L12.9199264,9.17600124 Z" id="Shape"/>
                <path d="M5.00361798,7.81942317 C4.8609099,7.67671511 4.62953441,7.67671511 4.48682634,7.81942318 C4.34411828,7.96213125 4.34411827,8.19350674 4.48682633,8.33621481 L5.73182439,9.5870855 C5.80048952,9.65525483 5.89346427,9.69328996 5.99022021,9.69279769 C6.08240104,9.68805019 6.16986342,9.65056631 6.23687077,9.5870855 L9.14382377,6.65076934 C9.28653183,6.50806126 9.28653183,6.27668577 9.14382376,6.1339777 C9.00111569,5.99126963 8.7697402,5.99126963 8.62703212,6.13397769 L5.97260231,8.78253487 L5.00361798,7.81942317 Z" id="Path"/>
            </g>
        </g>
    </g>
</svg>