<svg xmlns="http://www.w3.org/2000/svg" xmlns:xlink="http://www.w3.org/1999/xlink" viewBox="0 0 59 81" fill="#fff" fill-rule="evenodd" stroke="#000" stroke-linecap="round" stroke-linejoin="round"><use xlink:href="#A" x=".5" y=".5"/><symbol id="A" overflow="visible"><g stroke="none"><path d="M36 0l22 22v53a4.99 4.99 0 0 1-5 5H5a4.99 4.99 0 0 1-5-5V5a4.99 4.99 0 0 1 5-5z" fill="#fbbb00"/><path d="M36 0l22 22H41c-2.77 0-5-2.48-5-5.25z" fill="#f4d37d"/><path d="M40.75 22L58 29.125V22z" fill="#e2a203"/><path d="M13 40a4.99 4.99 0 0 1 5-5h21a4.99 4.99 0 0 1 5 5v21a4.99 4.99 0 0 1-5 5H18a4.99 4.99 0 0 1-5-5zm2 0c0-1.662 1.338-3 3-3h21c1.662 0 3 1.338 3 3v21c0 1.662-1.338 3-3 3H18c-1.662 0-3-1.338-3-3zm3 5c0-1.108.892-2 2-2h17c1.108 0 2 .892 2 2v11c0 1.108-.892 2-2 2H20c-1.108 0-2-.892-2-2zm2 0h17v11H20z"/></g></symbol></svg>