<svg xmlns="http://www.w3.org/2000/svg" xmlns:xlink="http://www.w3.org/1999/xlink" viewBox="0 0 81 72" fill="#fff" fill-rule="evenodd" stroke="#000" stroke-linecap="round" stroke-linejoin="round"><use xlink:href="#A" x=".5" y=".5"/><symbol id="A" overflow="visible"><g stroke="none"><path d="M50.563 19.425c3.619-6.194 1.47-14.111-4.799-17.689S31.476.281 27.857 6.476a14.16 14.16 0 0 0-.45.848l-12.235 20.93a15.45 15.45 0 0 0-.751 1.285L1.717 51.463 24.42 64.189l12.641-21.74c.275-.413.526-.842.751-1.285l12.235-20.932c.177-.262.355-.53.517-.807" fill="#fbbc04"/><path d="M24.526 64.122c-3.598 6.295-11.715 8.61-17.948 4.979S-1.871 57.586 1.73 51.294s11.646-8.618 17.881-4.986 8.513 11.523 4.914 17.812" fill="#34a853"/><path d="M73.518 23.568c-6.197-3.571-14.116-1.457-17.707 4.729L42.85 50.695c-3.571 6.173-1.462 14.073 4.711 17.644l.033.019c6.198 3.573 14.119 1.457 17.709-4.732l12.959-22.395a12.92 12.92 0 0 0-4.716-17.646l-.029-.017" fill="#4285f4"/></g></symbol></svg>