<svg xmlns="http://www.w3.org/2000/svg" xmlns:xlink="http://www.w3.org/1999/xlink" viewBox="0 0 81 81" fill="#fff" fill-rule="evenodd" stroke="#000" stroke-linecap="round" stroke-linejoin="round"><use xlink:href="#A" x=".5" y=".5"/><symbol id="A" overflow="visible"><g stroke="none"><path fill="#e6e6e6" d="M44.75 80l-22.5-65h52.875C77.5 15 80 17.875 80 19.375V75.5c0 1.75-2.5 4.5-4.25 4.5z"/><path fill="gray" d="M62 49.5c2 2.375 5 6.125 9 9.75l-2.25 2.375C64.875 57.875 62.375 55 60 52.25c-1.25 1.5-2.375 3.125-5.125 5.375L53.75 54.25c1.625-1.625 2.625-2.625 4.375-4.625-2.25-1.875-4-4.875-5.25-6.875l2.5-1.75C56.75 43 58 44.625 60 46.875c2-3 4.125-6.625 5.25-9.125h-18v-3h11.125V30h3v4.75h12.5v3H68.75c-1 2.375-4.125 9-6.75 11.75z"/><path fill="#518ef8" d="M36.5 0L58 65H4.875C2.5 65 0 62.125 0 60.625V4.5C0 2.75 2.5 0 4.25 0z"/><path d="M35.625 30.875L23.5 31v3h8.625c-.75 3.875-3.75 7-8.625 7.25-5.125 0-9-4.875-9-8.75 0-5.25 4.25-9.125 9-9.125 2.75 0 4.5 1.125 6.25 2.625l2.5-2.25C30.625 22.125 27.875 20 23.5 20c-6.125 0-12.25 5.25-12.25 12.5S17 44.75 23.5 44.5c7.75 0 12.125-6.625 12.125-10.125z"/><path fill="#3a5bbc" d="M39.5 65l5.25 15L58 65z"/></g></symbol></svg>