<svg xmlns="http://www.w3.org/2000/svg" fill="none" viewBox="0 0 72 72"><g clip-path="url(#a)"><path fill="#2495EC" d="M20.049 51.16c.105-.21.21-.526.105-.737-.105-.421-.316-.316-.737-.105-1.474.947-3.158 1.368-4.843 1.79-2 .42-4 .42-6.001.21-.316 0-.948-.316-1.053-.526-1.895-2.527-2.738-5.475-3.37-8.529-.42-2-.631-4.211-.631-6.317 0-1.053.737-1.474 1.79-1.474H48.37c1.895 0 3.474-.526 5.159-1.263.105 0 .105-.105.21-.105 1.264-.632 1.264-.422.527-1.685-1.264-2.106-1.58-4.422-.948-6.738a15.544 15.544 0 0 1 1.264-3.054c.105-.21.526-.316.842-.105 2.106 1.58 3.79 3.37 4.106 6.001.105 1.159-.105 1.264 1.053 1.053 2.316-.421 4.527-.421 6.738.527.737.316.948.316.632 1.053-1.263 2.316-3.474 3.79-6.107 4.316-.947.21-2 .105-2.948.105-.315 0-.42 0-.631.316-1.158 2.948-2.527 5.896-4.317 8.529-2.211 3.474-4.949 6.527-8.423 8.844-3.474 2.316-7.16 3.58-11.16 4.422-1.79.316-3.58.526-5.37.526-1.263-.526-2.632-1.263-3.685-2-2.105-1.264-3.895-2.843-5.264-5.054zm3.896-6.844c-1.264 0-2.211.948-2.211 2.211 0 1.264.947 2.211 2.21 2.211 1.159 0 2.212-.947 2.212-2.21 0-1.264-1.053-2.212-2.211-2.212z"/><path fill="#2493EA" d="M19.628 27.364h2.632c.632 0 1.158.105 1.264.737.105 1.58.105 3.896-.211 5.37-.105.526-.316.842-.842.842H17.1c-.526 0-1.158-.316-1.158-.842 0-1.474-.105-3.054-.105-4.528 0-.631.526-1.368 1.263-1.368.842-.211 1.685-.211 2.527-.211zM28.051 27.786h2.737c.632 0 .843.21.843.842v5.054c0 .527-.316.842-.842.842h-5.37c-.632 0-1.474-.315-1.474-.947v-5.054c0-.737.842-.947 1.58-.947.736.21 1.684.21 2.526.21zM28.051 20.31h2.737c.632 0 .843.21.843.842v4.633c0 .632-.21.842-.842.842h-5.58c-.527 0-.843-.316-.843-.842v-4.633c0-.526.316-.842.842-.842h2.843z"/><path fill="#2495EB" d="M36.158 26.838h-3.053c-.632 0-.737-.421-.737-1.053v-4.633c0-.631.21-.842.842-.842 1.79 0 3.896-.105 5.686-.105.631 0 .842.421.842 1.053v4.527c0 .737-.21 1.158-.948 1.158-.947-.105-1.79-.105-2.632-.105zM36.158 12.73h2.527c.737 0 .947.21.947.842v4.949c0 .632-.21.842-.842.842h-5.264c-.632 0-.843-.21-.843-.842v-5.054c0-.632.211-.842.843-.842.842.105 1.79.105 2.632.105zM36.158 27.892h2.527c.737 0 .947.21.947.842v4.528c0 .737-.21.947-.947.947H33.63c-.737 0-.948-.21-.948-.947v-4.528c0-.631.211-.842.843-.842h2.632zM44.37 27.892h2.527c.737 0 .947.21.947.842v4.528c0 .737-.21.947-.947.947h-5.054c-.737 0-.948-.21-.948-.947v-4.528c0-.631.211-.842.843-.842h2.632z"/><path fill="#FDFDFE" d="M23.945 44.316c1.263 0 2.211.948 2.211 2.211 0 1.158-.948 2.211-2.211 2.211-1.264 0-2.211-.948-2.211-2.211s.947-2.211 2.211-2.211zm1.158 1.895c-.632.105-1.053-.105-1.053-.526.105-.527-.21-.421-.526-.421-.632.21-1.053.737-.948 1.474.105.631.737 1.052 1.369.947.842 0 1.263-.632 1.158-1.474z"/><path fill="#2A56A2" d="M18.154 31.05v1.474c0 .21 0 .316-.21.316-.211 0-.316-.105-.316-.316v-2.948c0-.21 0-.316.21-.316s.316.105.316.316v1.474zM21.312 30.944V29.47c0-.21.105-.316.316-.316.21 0 .21.105.21.316v2.948c0 .21-.105.316-.315.316-.211 0-.211-.105-.211-.316v-1.474zM20.049 31.05v1.474c0 .21 0 .421-.316.316-.316 0-.316-.21-.316-.421V29.47c0-.21 0-.421.316-.421s.316.21.316.42v1.58zM25.84 30.944V29.47c0-.21.105-.421.316-.421s.316.21.316.421v2.948c0 .21-.106.421-.316.421-.316 0-.316-.21-.316-.421v-1.474zM28.367 30.944v1.474c0 .316-.105.526-.421.421-.316 0-.316-.21-.316-.42v-2.844c0-.21 0-.526.316-.526s.316.316.316.526c.105.527.105.948.105 1.369zM29.63 30.944V29.47c0-.21 0-.421.316-.421s.316.21.316.421v2.843c0 .21 0 .42-.316.42s-.316-.21-.316-.42v-1.369zM38.369 23.469v1.474c0 .21-.105.421-.316.421-.316 0-.316-.21-.316-.421V22.1c0-.21 0-.42.316-.42s.316.21.316.42v1.369zM35.842 23.469V22.1c0-.21 0-.42.316-.42s.316.21.316.42v2.843c0 .21 0 .421-.316.421s-.316-.21-.316-.421v-1.474zM33.947 23.363v-1.369c0-.21 0-.42.316-.42s.316.104.316.42v2.948c0 .21-.106.421-.316.421-.316 0-.316-.21-.316-.42v-1.58zM30.262 23.469v1.474c0 .21-.105.421-.316.421-.316 0-.316-.21-.316-.421V22.1c0-.21 0-.42.316-.42s.316.21.316.42v1.369zM27.735 23.469V22.1c0-.21 0-.42.316-.42s.316.21.316.42v2.843c0 .21 0 .421-.316.421s-.316-.21-.316-.421v-1.474zM25.84 23.363v-1.369c0-.21 0-.42.316-.42s.316.104.316.42v2.948c0 .21-.106.421-.316.421-.316 0-.316-.21-.316-.42v-1.58z"/><path fill="#2493EA" d="M19.733 20.31h2.737c.632 0 .843.21.843.842v4.633c0 .632-.21.842-.842.842h-5.58c-.527 0-.843-.316-.843-.842v-4.633c0-.526.316-.842.842-.842h2.843z"/><path fill="#2A56A2" d="M21.944 23.469v1.474c0 .21-.105.421-.316.421-.316 0-.316-.21-.316-.421V22.1c0-.21 0-.42.316-.42s.316.21.316.42v1.369zM19.417 23.469V22.1c0-.21 0-.42.316-.42s.316.21.316.42v2.843c0 .21 0 .421-.316.421s-.316-.21-.316-.421v-1.474zM17.522 23.363v-1.369c0-.21 0-.42.316-.42s.316.104.316.42v2.948c0 .21-.106.421-.316.421-.316 0-.316-.21-.316-.42v-1.58z"/><path fill="#2493EA" d="M11.837 27.679c.842 0 1.79.21 2.632.21.632 0 .843.211.843.843v4.633c0 .631-.211.842-.843.842H8.89c-.526 0-.842-.316-.842-.842v-4.633c0-.526.316-.842.842-.842 1.158 0 2.106-.211 2.948-.211z"/><path fill="#2A56A2" d="M13.837 31.05v1.474c0 .21-.105.421-.316.421-.316 0-.316-.21-.316-.421v-2.843c0-.21 0-.42.316-.42s.316.21.316.42v1.369zM11.31 31.05v-1.369c0-.21 0-.42.316-.42s.316.21.316.42v2.843c0 .21 0 .421-.316.421s-.316-.21-.316-.421V31.05zM9.415 30.944v-1.369c0-.21 0-.42.316-.42s.316.104.316.42v2.948c0 .21-.105.421-.316.421-.316 0-.316-.21-.316-.42v-1.58zM33.947 15.889v-1.474c0-.21 0-.421.316-.421s.316.105.316.421v2.948c0 .21-.106.421-.316.421-.316 0-.316-.21-.316-.421v-1.474zM35.842 15.994V14.52c0-.21 0-.421.316-.421s.316.105.316.421v2.948c0 .21 0 .421-.316.421s-.316-.21-.316-.42v-1.475zM38.369 15.994v1.474c0 .21 0 .421-.316.421s-.316-.21-.316-.42V14.52c0-.21.105-.421.316-.421.316 0 .316.21.316.421v1.474zM36.474 31.05v1.474c0 .21 0 .421-.316.421s-.316-.105-.316-.421v-2.948c0-.21 0-.421.316-.421s.316.21.316.526v1.369zM34.579 30.944v1.474c0 .21 0 .421-.316.421s-.316-.105-.316-.421V29.47c0-.21 0-.421.316-.421s.316.21.316.421v1.474zM38.369 31.05v1.474c0 .21 0 .421-.316.421s-.316-.105-.316-.421v-2.948c0-.21 0-.421.316-.421s.316.21.316.421v1.474zM42.159 31.05v-1.474c0-.21.105-.421.316-.421.316 0 .316.21.316.421v2.948c0 .21-.106.316-.316.316-.316 0-.316-.105-.316-.316V31.05zM44.686 31.05v1.474c0 .21 0 .421-.316.421s-.316-.105-.316-.421v-2.948c0-.21 0-.421.316-.421s.316.21.316.421v1.474zM45.95 30.944V29.47c0-.21 0-.421.316-.421s.316.21.316.421v2.948c0 .21 0 .421-.316.421s-.316-.105-.316-.421v-1.474z"/><path fill="#2A56A2" d="M22.471 59.372c-2.106-.21-4.211-.526-6.212-1.053-4.633-1.158-8.107-3.685-10.423-7.896-1.58-2.948-2.422-6.002-2.948-9.266-.105-.737-.105-1.474-.316-2.21v-2.738c.106 0 .106-.105.106-.21.526-1.159 1.368-1.79 2.632-1.79h1.158c.421 0 .526-.106.526-.527v-5.37c0-1.158.527-1.684 1.685-1.684h6.001c.316 0 .421-.105.421-.421v-5.37c0-1.263.527-1.79 1.79-1.79h14.003c.527 0 .632-.21.632-.631v-4.844c0-.842 0-2 .948-2h7.475c.842.316 1.053 1.053 1.053 1.895v12.634c0 .526.105.632.631.632h6.002c1.158 0 1.684.526 1.684 1.684v5.265c0 .526.106.737.632.631 1.158-.21 2.211-.42 3.264-.842.21-.105.316-.21.21-.421-2.105-3.896-1.368-7.58.738-11.055.526-.948.631-.948 1.579-.316 2.422 1.58 4.106 3.79 4.738 6.633.105.421.316.527.632.421 2-.316 3.895-.21 5.896.316.947.316 1.684.842 2.421 1.369-.105-.21-.105-.105-.105 0-.105 0-.105.105-.105.21-1.369 3.475-4.001 5.265-7.581 5.897-.737.105-1.369.21-2.106.105-.42 0-.526.105-.631.42-1.159 2.844-2.527 5.686-4.212 8.319-4.633 6.843-11.055 11.055-18.952 12.95-2.211.526-4.738.947-6.528 1.052s-6.738 0-6.738 0zm-2.422-8.212a.804.804 0 0 0-.526.21c-2.316 1.264-4.843 2-7.475 2.106H9.52c1.053 1.053 2.632 2.106 4.316 2.737 2.633 1.053 5.37 1.474 8.213 1.79 2.21.21 4.527.21 6.738 0a44.877 44.877 0 0 0 5.265-.631c4-.843 7.79-2.211 11.266-4.528 3.474-2.21 6.211-5.159 8.422-8.633 1.685-2.632 3.054-5.475 4.212-8.423.105-.316.316-.421.737-.421.948 0 2 .105 2.948-.106 2.632-.526 4.633-1.79 6.001-4.106.421-.632.316-.737-.42-1.053-2.212-.947-4.423-.842-6.74-.526-1.157.21-1.052.21-1.262-.948-.316-2.632-1.79-4.632-3.896-6.106-.21-.21-.316-.106-.527.105-.526.948-.947 2-1.263 3.053-.632 2.317-.421 4.528.842 6.633.737 1.159.737 1.264-.526 1.896-.105 0-.105.105-.21.105-1.685.737-3.475 1.158-5.37 1.158H5.205c-1.053 0-1.58.526-1.58 1.58 0 2.105.21 4.21.632 6.211.632 3.054 1.685 5.896 3.58 8.528.21.106.421.422.737.422 2 .21 3.895.21 5.896-.211 1.684-.421 3.369-.948 4.843-1.895.421-.21.842-.105.948.316.105.316-.106.526-.211.737zm-.315-30.85H17.1c-.526 0-.842.211-.842.843v4.633c0 .631.21.842.842.842h5.265c.632 0 .947-.316.947-.842v-4.528c0-.631-.315-.947-.842-.947h-2.737zm0 7.581H17.1c-.631 0-.947.21-.947.843v4.527c0 .526.316.842.842.842h5.37c.526 0 .842-.316.842-.842v-4.738c0-.632-.842-.737-.842-.737s-1.685.105-2.632.105zm8.212 0h-2.527c-.737 0-.948.21-.948.948v4.527c0 .632.316.948.843.948h5.264c.632 0 .842-.316.842-.842v-4.528c0-.631 0-1.053-.737-1.053h-2.737zm-16.32 0H9.099c-.737 0-.947.21-.947.948v4.422c0 .737.315.948 1.052.948h4.949c.737 0 1.053-.211 1.053-.948v-4.422c0-.632-.21-.948-.842-.948h-2.738zm16.32-7.58h-2.632c-.527 0-.843.316-.843.842v4.633c0 .526.316.842.843.842h5.37c.631 0 .842-.21.842-.842v-4.633c0-.632-.21-.842-.843-.842h-2.737zm8.212 6.317h2.527c.737 0 .948-.21.948-.948v-4.527c0-.632-.21-.842-.843-.842h-5.264c-.632 0-.842.21-.842.842v4.633c0 .631.21.842.842.842h2.632zm0-13.898h-2.632c-.632 0-.842.21-.842.842v4.633c0 .632.21.842.842.842h5.264c.632 0 .843-.21.843-.842v-4.528c0-.631-.21-.842-.948-.842-.842-.105-1.684-.105-2.527-.105zm0 15.16h-2.632c-.632 0-.842.211-.842.843v4.528c0 .737.21.947.947.947h5.054c.737 0 .948-.21.948-.947v-4.528c0-.632-.21-.842-.948-.842h-2.527zm8.213 0h-2.633c-.631 0-.842.211-.842.843v4.528c0 .737.21.947.948.947h5.054c.737 0 .947-.21.947-.947v-4.528c0-.632-.21-.842-.947-.842H44.37z"/><path fill="#2A56A2" d="M25.103 46.211c.105.842-.316 1.474-1.053 1.58-.632.105-1.263-.316-1.369-.948-.105-.737.211-1.369.948-1.474.316-.106.632-.21.526.42-.105.317.316.633.948.422z"/></g><defs><clipPath id="a"><path fill="#fff" d="M2.571 11.571h66.857v47.8H2.571z"/></clipPath></defs></svg>