<svg xmlns="http://www.w3.org/2000/svg" fill="none" viewBox="0 0 83 67"><path fill="#FF7CC2" fill-rule="evenodd" d="M18.329 42.136c2.031.551 3.225 2.624 2.667 4.63a9.953 9.953 0 0 0 .956 7.63 10.061 10.061 0 0 0 2.584 2.962 10.152 10.152 0 0 0 3.526 1.754 10.2 10.2 0 0 0 7.679-.944 10.094 10.094 0 0 0 2.989-2.558 10.003 10.003 0 0 0 1.775-3.5c.558-2.006 2.658-3.185 4.69-2.634 2.032.552 3.226 2.624 2.667 4.63a17.497 17.497 0 0 1-3.105 6.123 17.7 17.7 0 0 1-5.24 4.484 17.926 17.926 0 0 1-13.49 1.658 17.821 17.821 0 0 1-6.19-3.08 17.62 17.62 0 0 1-4.527-5.187 17.443 17.443 0 0 1-2.175-6.504 17.392 17.392 0 0 1 .503-6.831c.559-2.006 2.659-3.185 4.69-2.633Z" clip-rule="evenodd"/><path fill="#2D1762" fill-rule="evenodd" d="M81.462.732A3.762 3.762 0 0 1 83 3.765v56.47c0 1.16-.535 2.254-1.45 2.968a3.78 3.78 0 0 1-3.238.685L2.858 45.064A3.766 3.766 0 0 1 0 41.412V27.294a3.766 3.766 0 0 1 2.647-3.593L78.102.17a3.78 3.78 0 0 1 3.36.56ZM7.545 30.062v8.41l67.91 16.941V8.886L7.544 30.062Z" clip-rule="evenodd"/></svg>