<svg xmlns="http://www.w3.org/2000/svg" fill="none" viewBox="0 0 25 25"><path stroke="#2D1762" stroke-linecap="round" stroke-linejoin="round" stroke-width="2.17" d="M12.12 7.263a5.324 5.324 0 0 1 .762 0m-.762 0c-.277-1.285-.758-2.466-1.588-3.297C8.562 1.996 4.623 2 2 2c0 2.623 0 6.566 1.967 8.532.83.83 2.01 1.31 3.296 1.587m4.857-4.856a5.253 5.253 0 0 0-4.857 4.856m5.619-4.856c.277-1.286.757-2.467 1.586-3.297C16.435 2 20.378 1.996 23 2c.003 2.623.003 6.562-1.966 8.532-.83.83-2.01 1.31-3.293 1.587m-4.86-4.856a5.253 5.253 0 0 1 4.86 4.856m0 0a5.331 5.331 0 0 1 0 .765m-4.858 4.857a5.331 5.331 0 0 1-.763 0m.763 0c.277 1.284.756 2.464 1.585 3.293C16.435 23 20.378 23.004 23 23c.003-2.623.003-6.562-1.966-8.532-.827-.827-2.001-1.306-3.28-1.584h-.014m-4.857 4.857a5.253 5.253 0 0 0 4.858-4.857m-5.621 4.857c-.278 1.283-.758 2.463-1.588 3.293C8.566 23 4.639 23 2.016 23H2c0-2.623 0-6.566 1.967-8.532.83-.83 2.01-1.31 3.296-1.587m4.857 4.86a5.254 5.254 0 0 1-4.857-4.86m0 0a5.328 5.328 0 0 1 0-.762"/></svg>