<svg xmlns="http://www.w3.org/2000/svg" fill="none" viewBox="0 0 69 69"><path fill="#9E008E" fill-rule="evenodd" d="M50.251 46.95a3.3 3.3 0 0 0-3.3 3.3v12.6a3 3 0 0 1-6 0v-12.6a9.3 9.3 0 0 1 9.3-9.3h12.6a3 3 0 0 1 0 6h-12.6Z" clip-rule="evenodd"/><path fill="#AB9B32" fill-rule="evenodd" d="M18.75 6.299a3 3 0 0 1 3 3v5.737a6.45 6.45 0 0 0 6.28 3.868l.17 2.995v-3a9.3 9.3 0 0 1 9.3 9.3 3.3 3.3 0 0 0 6.6 0 9.3 9.3 0 0 1 9.3-9.3h9.45a3 3 0 0 1 0 6H53.4a3.3 3.3 0 0 0-3.3 3.3 9.3 9.3 0 1 1-18.6 0 3.3 3.3 0 0 0-3.234-3.3 12.45 12.45 0 0 1-12.346-8.305 2.998 2.998 0 0 1-.17-.995v-6.3a3 3 0 0 1 3-3Z" clip-rule="evenodd"/><path fill="#2D1762" fill-rule="evenodd" d="M3.148 31.352a3 3 0 0 1 3-3h6.3a9.3 9.3 0 0 1 9.3 9.3v3.15a3.3 3.3 0 0 0 3.3 3.3 9.3 9.3 0 0 1 9.3 9.3v12.6a3 3 0 0 1-6 0v-12.6a3.3 3.3 0 0 0-3.3-3.3 9.3 9.3 0 0 1-9.3-9.3v-3.15a3.3 3.3 0 0 0-3.3-3.3h-6.3a3 3 0 0 1-3-3Z" clip-rule="evenodd"/><path fill="#2D1762" fill-rule="evenodd" d="M34.5 6C18.76 6 6 18.76 6 34.5S18.76 63 34.5 63 63 50.24 63 34.5 50.24 6 34.5 6ZM0 34.5C0 15.446 15.446 0 34.5 0 53.554 0 69 15.446 69 34.5 69 53.554 53.554 69 34.5 69 15.446 69 0 53.554 0 34.5Z" clip-rule="evenodd"/></svg>