<svg xmlns="http://www.w3.org/2000/svg" fill="none" viewBox="0 0 57 63"><path fill="#2D1762" d="M48.45 5.725h-5.703v-2.86A2.873 2.873 0 0 0 41.916.84 2.844 2.844 0 0 0 39.9 0c-.756 0-1.482.302-2.016.84a2.873 2.873 0 0 0-.836 2.026v2.86H19.951v-2.86c0-.76-.3-1.49-.836-2.027a2.845 2.845 0 0 0-3.107-.62 2.844 2.844 0 0 0-1.54 1.55c-.143.348-.216.72-.215 1.097v2.86H8.549a8.54 8.54 0 0 0-6.041 2.519A8.624 8.624 0 0 0 0 14.315V54.41a8.624 8.624 0 0 0 2.508 6.071A8.54 8.54 0 0 0 8.549 63h39.902a8.54 8.54 0 0 0 6.041-2.52A8.624 8.624 0 0 0 57 54.41V14.315a8.624 8.624 0 0 0-2.508-6.071 8.54 8.54 0 0 0-6.041-2.52Zm2.846 48.684c0 .76-.3 1.487-.833 2.025a2.845 2.845 0 0 1-2.012.84H8.549a2.845 2.845 0 0 1-2.012-.84 2.873 2.873 0 0 1-.833-2.025V14.316a2.873 2.873 0 0 1 .835-2.02 2.845 2.845 0 0 1 2.01-.84h39.902a2.845 2.845 0 0 1 2.01.84c.533.535.834 1.262.835 2.02v40.093Z"/><path fill="#9E008E" d="M28.499 40.094a11.392 11.392 0 0 0 8.056-3.36 11.502 11.502 0 0 0 3.345-8.096 11.496 11.496 0 0 0-3.34-8.101 11.385 11.385 0 0 0-8.061-3.361 11.385 11.385 0 0 0-8.058 3.359 11.496 11.496 0 0 0-3.343 8.097 11.503 11.503 0 0 0 3.342 8.1 11.392 11.392 0 0 0 8.059 3.362Zm0-17.187a5.69 5.69 0 0 1 4.029 1.68 5.745 5.745 0 0 1-.002 8.098 5.69 5.69 0 0 1-4.027 1.678 5.69 5.69 0 0 1-4.027-1.678 5.745 5.745 0 0 1-.002-8.097 5.69 5.69 0 0 1 4.029-1.681Zm15.91 24.879c-4.463-3.208-9.826-4.833-15.907-4.833a29.087 29.087 0 0 0-15.81 4.772 2.877 2.877 0 0 0 .18 4.924 2.829 2.829 0 0 0 2.903-.11 23.42 23.42 0 0 1 12.727-3.855c4.864 0 9.12 1.265 12.593 3.758a2.839 2.839 0 0 0 3.977-.666 2.876 2.876 0 0 0-.663-3.99Z"/></svg>