<svg xmlns="http://www.w3.org/2000/svg" fill="none" viewBox="0 0 26 24"><path stroke="#2D1762" stroke-linecap="round" stroke-linejoin="round" stroke-width="2.221" d="M22.467 3.764a5.997 5.997 0 0 0-8.497 0l-.855.866-.855-.866a5.998 5.998 0 0 0-8.496 0c-2.355 2.354-2.5 6.33.466 9.351L13.115 22 22 13.115c2.965-3.02 2.821-6.997.466-9.351Z"/><path stroke="#2D1762" stroke-linecap="round" stroke-linejoin="round" stroke-width="2.221" d="M13.115 4.629 9.638 8.116a2.366 2.366 0 0 0 0 3.332v0a2.366 2.366 0 0 0 3.332 0l2.51-2.454a3.332 3.332 0 0 1 4.687 0l2.665 2.665m-3.053 3.678-2.221-2.222m-1.111 5.554-2.221-2.222"/></svg>