<svg xmlns="http://www.w3.org/2000/svg" viewBox="878.002 0 320.998 583.243"><g xmlns="http://www.w3.org/2000/svg" clip-path="url(#clip0_5416_857)"><path fill="#CBCBCB" d="M1045 583.243h-30.54l11.58-418.622h10.42l8.54 418.622Z"/><path fill="#E00000" d="m1011.81 282.815 68.18-49.648-49.53-68.337c27.36 37.743 19.01 90.566-18.65 117.989v-.004Z"/><path fill="#F264C2" d="m1136.64 219.059-26.04-80.336-80.15 26.103c44.27-14.415 91.81 9.864 106.19 54.233Z"/><path fill="#001A70" d="M1114.73 80.357h-84.27v84.47c0-46.653 37.72-84.47 84.27-84.47Z"/><path fill="#37838F" d="m976.351 58.39-26.042 80.337 80.151 26.104c-44.268-14.416-68.491-62.071-54.109-106.436v-.004Z"/><path fill="#581E98" d="m912.746 183.515 68.177 49.648 49.527-68.337c-27.35 37.743-80.054 46.107-117.708 18.689h.004Z"/><path fill="#4DCCEB" d="M976.352 58.39c-14.382 44.369 9.841 92.021 54.108 106.437l52.08-160.67c-44.27-14.416-91.806 9.864-106.188 54.233Z"/><path fill="#002C95" d="M1114.73 80.357c-46.55 0-84.27 37.817-84.27 84.47H1199c0-46.653-37.73-84.47-84.27-84.47Z"/><path fill="#FF7CC2" d="M1136.64 219.06c-14.38-44.369-61.92-68.649-106.18-54.233l52.08 160.67c44.26-14.416 68.49-62.072 54.1-106.437Z"/><path fill="#FF1E15" d="M1011.81 282.815c37.66-27.422 46-80.246 18.65-117.989l-136.358 99.301c27.358 37.742 80.058 46.107 117.708 18.688Z"/><path fill="#7B3DB3" d="M912.746 183.514c37.654 27.423 90.354 19.054 117.714-18.688l-136.359-99.3c-27.354 37.742-19.009 90.566 18.645 117.988Z"/><path fill="#DFDFD9" d="M1050.6 169.33c2.47-11.147-4.54-22.193-15.66-24.673-11.12-2.479-22.14 4.548-24.61 15.695-2.48 11.147 4.53 22.193 15.65 24.673 11.12 2.479 22.15-4.548 24.62-15.695Z"/><path fill="#fff" d="M1051.92 167.838a21.754 21.754 0 0 0-3.47-15.049c.17-.156-2.31-2.88-2.31-2.88a21.84 21.84 0 0 0-13.85-6.709c-.02-.221-3.68-.008-3.68-.008-1.01.082-2.02.238-3.01.464-8.18 1.903-13.19 9.129-13.19 9.129a21.665 21.665 0 0 0-3.4 15.085l.83 3.595a21.729 21.729 0 0 0 9.62 12.041l3.32 1.607a21.537 21.537 0 0 0 15.39.041c.11.189 3.4-1.364 3.32-1.594a21.748 21.748 0 0 0 9.62-12.128c.21.033.81-3.594.81-3.594Zm-9.38-15.374-7.13 5.066-.03-.012a1.46 1.46 0 0 1-2.05-.325 1.547 1.547 0 0 1-.29-.801l-.5-8.763c3.77.468 7.28 2.165 10 4.831v.004Zm-13.43 9.601h2.68l1.67 2.092-.6 2.608-2.41 1.163-2.41-1.167-.6-2.609 1.67-2.087Zm-2.53-14.124c.59-.131 1.19-.234 1.78-.308l-.49 8.771-.04.017a1.466 1.466 0 0 1-1.53 1.409 1.517 1.517 0 0 1-.81-.28l-.01.009-7.17-5.099a17.14 17.14 0 0 1 8.27-4.519Zm-10.87 7.798 6.55 5.875-.01.037c.61.534.67 1.466.14 2.078a1.45 1.45 0 0 1-.72.452l-.01.029-8.4 2.428c-.41-3.804.44-7.637 2.44-10.899h.01Zm8.77 15.603-3.34 8.081a17.294 17.294 0 0 1-6.93-8.697l8.61-1.467.02.021a1.468 1.468 0 0 1 1.73 1.47c0 .193-.04.382-.12.559l.03.033Zm7.3 2.231 4.24 7.686c-.55.185-1.11.341-1.69.477-3.13.719-6.38.55-9.42-.485l4.24-7.674a1.476 1.476 0 0 1 2.6 0h.03m8.02 5.883-3.37-8.163.02-.017c-.32-.727 0-1.569.71-1.91.18-.086.37-.136.56-.148.12-.004.23 0 .34.025l.01-.017 8.69 1.471a17.24 17.24 0 0 1-6.95 8.759h-.01Zm7.87-12.847-8.44-2.436v-.037a1.472 1.472 0 0 1-1.03-1.816c.07-.279.23-.53.45-.719v-.016l6.51-5.846c2 3.254 2.88 7.066 2.51 10.866v.004Z"/></g></svg>