<svg xmlns="http://www.w3.org/2000/svg" xmlns:xlink="http://www.w3.org/1999/xlink" fill="#fff" fill-rule="evenodd" stroke="#000" stroke-linecap="round" stroke-linejoin="round" viewBox="0 0 85 85"><use xlink:href="#a" x="2.5" y="2.5"/><symbol id="a" overflow="visible"><path fill="#8c3123" stroke="none" d="m38.748 3.44 38.748 4.667v3.497c0 4.526-17.312 8.164-38.748 8.164S0 16.115 0 11.604v-3.44zm38.457 14.509-5.522 21.22L53.458 26.62v10.377H32.59l-14.184-9.799v10.377H5.425L.291 17.949v-3.497l1.924 3.863 36.533 6.909 37.655-7.712.802-3.06v3.497zM59.187 36.588 80 47.459v3.497L59.187 65.153v-7.261l-17.173-.085 9.299-6.302-10.351-7.755 18.225.085v-7.247zm-37.46.592 9.106 6.274 11.085 4.653v3.497l-8.815 6.387-11.375 7.755v-7.261H3.64V44.413h18.087V37.18zm35.717 26.888v10.335l5.674-3.821 2.602-5.245v3.497l-1.273 5.4c0 3.003-11.444 5.767-25.698 5.767s-25.781-2.425-25.781-5.457l-2.408-9.221v-3.497l7.86 3.497v7.853l16.011-8.46z"/><path fill="#e05243" stroke="none" d="M38.748 0c21.381 0 38.748 3.652 38.748 8.164s-17.312 8.164-38.748 8.164S0 12.675 0 8.164 17.395 0 38.748 0zm38.457 14.452-5.535 21.22L53.459 23.18v10.377H32.59l-14.184-9.841v10.377H5.439L.291 14.452c2.09 4.103 18.516 7.318 38.457 7.318s36.367-3.215 38.457-7.318zM59.187 33.091 80 47.458 59.187 61.656v-7.261l-17.173-.071 9.299-6.316-10.351-7.755 18.225.085v-7.247zm-37.46.593 9.106 6.274 11.085 8.149-8.815 6.387-11.375 7.741v-7.247H3.64V40.931h18.087v-7.247zm35.717 26.887v10.335l8.303-5.569-1.273 5.4c0 3.003-11.444 5.767-25.698 5.767s-25.809-2.425-25.809-5.386l-2.408-9.292h7.86v10.363L34.43 61.248z"/></symbol></svg>