<svg xmlns="http://www.w3.org/2000/svg" xmlns:xlink="http://www.w3.org/1999/xlink" fill="#fff" fill-rule="evenodd" stroke="#000" stroke-linecap="round" stroke-linejoin="round" viewBox="0 0 63.75 85"><use xlink:href="#a" x="1.875" y="2.5"/><symbol id="a" overflow="visible"><g stroke="none"><path fill="#2e73b8" d="M29.108 55.221c-13.099 0-24.509-1.762-28.569-4.453-.422-.243-.618-.632-.509-1.009s.507-.68 1.031-.784 1.085.007 1.457.288c3.056 2.061 13.637 3.989 27.769 3.886s23.723-2.144 26.968-4.123c.619-.367 1.541-.309 2.059.129s.437 1.091-.182 1.458c-4.439 2.69-15.762 4.494-28.817 4.597z"/><path fill="#5294cf" d="M29.108 62.436c-13.099 0-24.523-1.763-28.584-4.453-.38-.252-.54-.629-.422-.988s.499-.646.997-.752 1.039-.017 1.418.235c3.056 2.061 13.579 3.999 27.769 3.886 14.554-.124 24.349-2.309 27.245-4.288.374-.256.913-.351 1.413-.249s.886.385 1.012.742-.027.735-.402.991c-4.163 2.845-15.631 4.752-29.224 4.865z"/><path fill="#99bce3" d="M29.079 69.538c-12.531 0-23.403-1.577-27.943-4.123-.635-.35-.749-.998-.255-1.448s1.41-.53 2.045-.18c4.061 2.237 15.311 3.731 27.347 3.638 14.554-.124 24.349-2.309 27.245-4.288a1.91 1.91 0 0 1 2.059.026c.558.41.542 1.063-.037 1.458-4.162 2.845-15.631 4.752-29.224 4.865z"/><path fill="#19486f" d="M59.86 5.973c0-3.432-13.462-6.102-29.937-5.968S.131 3.004.189 6.437v37.024c0 3.432 14.03 6.102 30.563 5.968s29.224-3.02 29.108-6.452V5.973z"/><g fill="#2e73b8"><path d="M30.113 37.42C14.016 37.554.918 35.019.19 31.741v9.421c0 3.432 13.623 6.102 30.112 5.968s29.617-3.02 29.559-6.483v-9.679c.058 3.422-13.258 6.318-29.748 6.452zm0-11.575C14.016 25.979.918 23.495.19 20.135v9.421c0 3.432 13.623 6.102 30.112 5.968s29.617-3.03 29.559-6.452v-9.699c.058 3.453-13.258 6.339-29.748 6.473zm0-11.565C14.016 14.414.918 11.879.19 8.57v9.421c0 3.432 13.623 6.102 30.112 5.968s29.617-3.03 29.559-6.452V7.828c.058 3.422-13.258 6.318-29.748 6.452zm.014-1.886c16.475-.134 29.792-3.02 29.734-6.421 0-3.432-13.462-6.102-29.937-5.968S.131 3.004.189 6.437c.058 3.432 13.462 6.092 29.937 5.958z"/><path d="M1.514 70.806c-.803 0-1.455-.461-1.455-1.031v-30.19c0-.569.652-1.031 1.455-1.031s1.456.461 1.456 1.031v30.19c0 .569-.652 1.031-1.456 1.031zm14.263-5.814c-.804 0-1.455-.461-1.455-1.031V41.523c0-.569.652-1.031 1.455-1.031s1.455.461 1.455 1.031v22.439c0 .569-.652 1.031-1.455 1.031zM30.025 80c-.804 0-1.455-.461-1.455-1.031V58.417c0-.569.652-1.031 1.455-1.031s1.456.461 1.456 1.031V78.97c0 .569-.652 1.031-1.456 1.031zm14.248-10.957c-.803 0-1.455-.461-1.455-1.031v-26.49c0-.569.652-1.031 1.455-1.031s1.456.461 1.456 1.031v26.49c0 .569-.652 1.031-1.456 1.031zm14.263-11.719c-.803 0-1.455-.461-1.455-1.031V39.111c0-.569.652-1.031 1.455-1.031s1.456.461 1.456 1.031v17.182c0 .569-.652 1.031-1.456 1.031zm0 16.852c-.803 0-1.455-.461-1.455-1.031v-9.679c0-.569.652-1.031 1.455-1.031s1.456.461 1.456 1.031v9.679c0 .569-.652 1.031-1.456 1.031z"/></g></g></symbol></svg>