<svg xmlns="http://www.w3.org/2000/svg" viewBox="0 0 128 128"><path fill="#df7320" d="M64 22a3.5 3.5 0 0 0-2.475 1.025L27.551 57h-16.05A3.5 3.5 0 0 0 8 60.5a3.5 3.5 0 0 0 3.5 3.5h16.05l33.974 33.974a3.5 3.5 0 0 0 4.95 0L100.449 64h16.05a3.5 3.5 0 0 0 3.5-3.5 3.5 3.5 0 0 0-3.5-3.5h-16.05L66.475 23.025A3.5 3.5 0 0 0 64 22zm0 8.449L94.051 60.5 64 90.551 33.949 60.5zM64 46.5a14 14 0 0 0-14 14 14 14 0 0 0 14 14 14 14 0 0 0 14-14 14 14 0 0 0-14-14zm0 7a7 7 0 0 1 7 7 7 7 0 0 1-7 7 7 7 0 0 1-7-7 7 7 0 0 1 7-7zm-35 21a3.5 3.5 0 0 0-2.475 1.025 3.5 3.5 0 0 0 0 4.95L64 117.949l37.474-37.474a3.5 3.5 0 0 0 0-4.95 3.5 3.5 0 0 0-4.949 0L64 108.05 31.474 75.525A3.5 3.5 0 0 0 29 74.5z"/></svg>