<svg xmlns="http://www.w3.org/2000/svg" viewBox="0 0 180 80"><g fill="#fff"><path d="M59.243 26.818a2.587 2.587 0 0 0-1.867.689 2.543 2.543 0 0 0-.826 1.794c-.048 1.423 1.079 2.62 2.514 2.673a2.627 2.627 0 0 0 1.873-.693c.508-.471.8-1.108.823-1.794.048-1.423-1.078-2.619-2.517-2.67zm.426 2.82c-.64 0-1.156-.343-1.156-.762 0-.424.517-.764 1.156-.764.64 0 1.157.34 1.157.764 0 .42-.518.762-1.157.762zm5.728 3.296c.17-.11.294-.202.347-.223l.056-.087c-.143-.893-1.489-5.223-2.506-6.264-.28-.284-.505-.564-.96-.827-3.682-2.122-12.417-3.403-12.826-3.462l-.07.02-.026.062s-.033 1.79-.038 1.99c-.892-.296-7.377-2.368-13.457-2.577-5.155-.18-12.663-.839-22.612 5.213l-.294.18c-4.681 2.89-7.913 6.45-9.602 10.589-.53 1.302-1.242 4.24-.536 7.004.304 1.209.871 2.423 1.636 3.51 1.728 2.456 4.629 4.086 7.752 4.361 4.41.39 7.748-1.569 8.936-5.237.816-2.531 0-6.245-3.13-8.14-2.546-1.542-5.284-1.192-6.872-.152-1.378.903-2.158 2.308-2.145 3.85.032 2.735 2.414 4.19 4.127 4.194.498 0 .998-.086 1.561-.267.2-.06.39-.136.597-.263l.065-.038.041-.027-.013.008a1.39 1.39 0 0 0 .625-1.15c0-.125-.018-.252-.054-.38a1.406 1.406 0 0 0-1.611-.982l-.097.022-.131.04-.19.065c-.395.096-.69.104-.753.106-.2-.013-1.187-.305-1.187-1.373v-.015c0-.392.16-.667.247-.818.307-.475 1.147-.942 2.281-.845 1.49.128 2.563.883 3.274 2.308.66 1.325.487 2.955-.445 4.149-.926 1.183-2.574 1.685-4.767 1.452-2.21-.242-4.08-1.5-5.126-3.46-1.025-1.915-1.08-4.185-.145-5.93 2.238-4.18 6.465-4.135 8.783-3.74 3.43.59 7.332 3.72 8.716 7.333.223.576.337 1.033.437 1.45l.15.625 3.874 1.871.05.038.095-.009.017-.11c-.024-.086-.08-.165-.17-1.237-.074-.952-.223-3.558 1.103-4.85.515-.505 1.3-.955 1.92-1.1 2.539-.613 5.517-.19 8.333 3.035 1.457 1.665 2.168 2.424 2.525 2.764l.124.111.147.108c.116.063 4.842 2.217 4.842 2.217l.097-.023.002-.1c-.032-.036-2.995-3.825-2.468-6.945.416-2.485 2.415-2.26 5.18-1.95.903.104 1.93.22 2.995.244 2.97.019 6.17-.524 8.143-1.378 1.276-.548 2.09-.913 2.6-1.372.184-.15.28-.395.378-.658l.07-.173c.082-.213.204-.662.257-.908.021-.108.034-.223-.044-.283l-.273.05c-.866.515-3.031 1.492-5.055 1.534-2.513.05-7.573-2.5-8.1-2.772l-.05-.058c-.125-.3-.885-2.076-1.047-2.451 3.643 2.374 6.664 3.686 8.977 3.889 2.575.227 4.582-1.163 5.44-1.758zm-9.988-3.639a3.662 3.662 0 0 1 1.185-2.575 3.748 3.748 0 0 1 2.68-.99c2.06.072 3.677 1.791 3.606 3.826a3.668 3.668 0 0 1-1.184 2.573 3.723 3.723 0 0 1-2.683.993c-2.056-.075-3.672-1.79-3.604-3.827z"/><path d="M28.262 50.67c-1.642 0-2.545 1.373-2.545 2.322v1.219c0 1.398 1.155 2.264 2.225 2.264h3.76c.473 0 .572.307.572.566v.786c0 .084-.017.839-.573.839h-5.126c-.51 0-.878.35-.878.83v.218c0 .478.368.826.878.826h5.405c1.413 0 2.324-.972 2.324-2.479v-1.315c0-1.414-1.027-2.046-2.047-2.046h-3.699c-.556 0-.809-.414-.809-.706v-.726c0-.457.31-.722.85-.722h4.093c.502 0 .88-.357.88-.828V51.5c0-.474-.384-.831-.897-.831zM43.631 50.67a.873.873 0 0 0-.876.87v6.226c0 .5-.411.9-.91.9h-2.857c-.5 0-.909-.4-.909-.9V51.54c0-.48-.394-.87-.879-.87h-.276a.868.868 0 0 0-.88.87v6.462c0 1.505 1.197 2.596 2.845 2.596h3.056c1.646 0 2.842-1.09 2.842-2.596V51.54a.866.866 0 0 0-.877-.87zM49.101 50.67c-1.641 0-2.547 1.373-2.547 2.322v1.219c0 1.398 1.157 2.264 2.228 2.264h3.758c.474 0 .574.307.574.566v.786c0 .084-.017.839-.574.839h-5.129c-.507 0-.877.35-.877.83v.218c0 .478.37.826.877.826h5.407c1.413 0 2.33-.972 2.33-2.479v-1.315c0-1.414-1.031-2.046-2.051-2.046h-3.699c-.558 0-.81-.414-.81-.706v-.726c0-.457.31-.722.85-.722h4.096c.5 0 .877-.357.877-.828V51.5c0-.474-.384-.831-.899-.831zM57.743 50.67c-.487 0-.855.357-.855.83v8.213c0 .472.36.827.836.827h6.616c.51 0 .877-.349.877-.827v-.217c0-.48-.368-.83-.877-.83h-5.418v-2.091h3.97c.508 0 .877-.353.877-.831v-.217c0-.48-.369-.829-.877-.829h-3.97v-2.153h5.143c.507 0 .877-.346.877-.829V51.5c0-.48-.37-.83-.877-.83h-6.322zM1.507 54.581c-.829 0-1.504.639-1.504 1.425v3.097c0 .8.653 1.45 1.454 1.45h2.025c.8 0 1.453-.65 1.453-1.45v-3.097c0-.786-.675-1.425-1.503-1.425zM1.07 58.98v-2.828a.61.61 0 0 1 .612-.602H3.26c.33 0 .61.277.61.602v2.828a.608.608 0 0 1-.61.605h-1.59a.595.595 0 0 1-.6-.605zM9.52 54.545c-.583 0-1.023.206-1.377.375-.215.102-.401.19-.546.19a.173.173 0 0 1-.15-.077l-.136-.255a.418.418 0 0 0-.335-.198h-.2c-.193 0-.347.171-.347.38v7.854c0 .247.197.44.445.44h.174a.443.443 0 0 0 .447-.44v-2.606c0-.077.05-.16.102-.16.145 0 .331.083.546.181.354.16.794.359 1.378.359h.187c1.033 0 1.676-.585 1.676-1.523v-2.999c0-.924-.656-1.521-1.676-1.521H9.52zm-2.025 4.374v-2.705c0-.373.296-.665.673-.665h1.479c.377 0 .672.292.672.665v2.705a.67.67 0 0 1-.672.665h-1.48a.67.67 0 0 1-.672-.665zM14.379 54.581c-.83 0-1.503.639-1.503 1.425v3.074c0 .797.655 1.473 1.426 1.473h2.09c.258 0 .445-.177.445-.418V60c0-.242-.187-.415-.445-.415h-1.717c-.48 0-.735-.234-.735-.679v-.9h3.097c.498 0 .792-.3.792-.809v-1.191c0-.787-.674-1.426-1.5-1.426h-1.95zm-.438 1.561a.59.59 0 0 1 .6-.592h1.626c.335 0 .597.26.597.592v.96H13.94v-.96zM22.133 54.545c-.582 0-1.021.206-1.375.373-.221.103-.41.192-.563.192-.068 0-.095-.008-.148-.098l-.122-.221a.366.366 0 0 0-.351-.21h-.172c-.208 0-.36.16-.36.379v5.152c0 .244.195.44.446.44h.172a.445.445 0 0 0 .448-.44v-3.898a.67.67 0 0 1 .671-.665h1.48c.37 0 .671.3.671.665v3.898c0 .244.196.44.445.44h.174a.445.445 0 0 0 .448-.44v-4.046c0-.924-.657-1.521-1.678-1.521zM66.7 58.556c.45 0 .809.362.809.816 0 .46-.36.818-.813.818a.813.813 0 0 1-.817-.818c0-.453.366-.816.817-.816zm-.004.126c-.363 0-.66.309-.66.69 0 .387.297.691.663.691.367.004.66-.304.66-.688s-.293-.693-.66-.693zm-.154 1.164h-.147v-.91c.077-.01.15-.021.26-.021.14 0 .231.028.286.068.055.04.085.101.085.189 0 .12-.081.192-.18.22v.009c.08.014.136.086.154.22a.743.743 0 0 0 .059.225h-.154a.656.656 0 0 1-.062-.232c-.023-.115-.081-.16-.198-.16h-.103v.392zm0-.504h.106c.12 0 .223-.043.223-.156 0-.08-.058-.16-.223-.16a.658.658 0 0 0-.106.008z"/></g><path stroke="#fff" stroke-width="1.125" d="M90.563 13.75V70"/><path fill="#df7320" d="M144 20a1 1 0 0 0-.707.293L133.586 30H129a1 1 0 0 0-1 1 1 1 0 0 0 1 1h4.586l9.707 9.707a1 1 0 0 0 1.414 0L154.414 32H159a1 1 0 0 0 1-1 1 1 0 0 0-1-1h-4.586l-9.707-9.707A1 1 0 0 0 144 20zm0 2.414L152.586 31 144 39.586 135.414 31zM144 27a4 4 0 0 0-4 4 4 4 0 0 0 4 4 4 4 0 0 0 4-4 4 4 0 0 0-4-4zm0 2a2 2 0 0 1 2 2 2 2 0 0 1-2 2 2 2 0 0 1-2-2 2 2 0 0 1 2-2zm-10 6a1 1 0 0 0-.707.293 1 1 0 0 0 0 1.414L144 47.414l10.707-10.707a1 1 0 0 0 0-1.414 1 1 0 0 0-1.414 0L144 44.586l-9.293-9.293A1 1 0 0 0 134 35zM155.34 52.355c-.47 0-.807.324-.807.793 0 .484.338.791.807.791s.807-.307.807-.791c0-.47-.338-.793-.807-.793zm-43.648.559v9.62h5.426v-1.042h-4.21v-8.578h-1.216zm32.486 0v9.62h1.1V57.24c0-.85-.088-1.995-.147-2.846h.059l.763 2.186 1.819 4.986h.806l1.819-4.986.763-2.186h.06c-.06.85-.163 1.995-.163 2.846v5.295h1.144v-9.621h-1.482l-1.818 5.132c-.235.66-.426 1.35-.66 2.01h-.06c-.234-.66-.454-1.35-.689-2.01l-1.847-5.132h-1.467zm-22.982 2.316c-1.628 0-3.197 1.422-3.197 3.754s1.511 3.726 3.418 3.726c.968 0 1.73-.338 2.345-.734l-.425-.79c-.528.336-1.1.556-1.774.556-1.364 0-2.289-.968-2.377-2.479h4.81c.03-.176.046-.44.046-.69 0-2.038-1.027-3.343-2.846-3.343zm7.07 0c-1.144 0-2.142.498-2.802.924l.47.836c.558-.382 1.304-.762 2.125-.762 1.174 0 1.467.88 1.467 1.79-3.036.336-4.369 1.112-4.369 2.667 0 1.276.894 2.026 2.082 2.026.895 0 1.687-.47 2.361-1.028h.043l.104.852h.998v-4.371c0-1.775-.733-2.934-2.479-2.934zm8.139 0c-.836 0-1.628.455-2.273.998h-.043l-.104-.822h-.996V65.54h1.201v-2.405l-.03-1.248c.66.514 1.321.823 1.981.823 1.628 0 3.08-1.424 3.08-3.844 0-2.215-.983-3.637-2.816-3.637zm24.832 0c-1.833 0-3.434 1.363-3.434 3.754 0 2.361 1.452 3.726 3.344 3.726.85 0 1.658-.338 2.303-.91l-.527-.806c-.44.396-1.012.718-1.672.718-1.306 0-2.2-1.1-2.2-2.728 0-1.643.938-2.756 2.229-2.756.572 0 1.011.264 1.422.63l.617-.792c-.499-.455-1.143-.836-2.082-.836zm6.951 0c-.806 0-1.54.572-2.023 1.467h-.045l-.102-1.291h-.998v7.129h1.203v-4.577c.484-1.202 1.202-1.642 1.803-1.642.293 0 .455.044.69.117l.234-1.057a1.766 1.766 0 0 0-.762-.146zm4.547 0c-1.745 0-3.3 1.363-3.3 3.754 0 2.361 1.555 3.726 3.3 3.726s3.299-1.365 3.299-3.726c0-2.39-1.554-3.754-3.299-3.754zm-18.012.176v7.129h1.203v-7.13h-1.203zm-33.498.777c1.115 0 1.76.778 1.76 2.215h-3.813c.147-1.408 1.056-2.215 2.053-2.215zm51.51.045c1.232 0 2.053 1.113 2.053 2.756 0 1.628-.82 2.728-2.053 2.728-1.217 0-2.053-1.1-2.053-2.728 0-1.643.836-2.756 2.053-2.756zm-36.637.014c1.35 0 1.877 1.055 1.877 2.625 0 1.76-.866 2.832-2.039 2.832-.47 0-1.1-.206-1.746-.748v-3.74c.704-.631 1.307-.97 1.908-.97zm-6.572 2.566v1.98c-.69.617-1.246.954-1.936.954-.704 0-1.262-.338-1.262-1.145 0-.91.822-1.495 3.198-1.789z"/></svg>