<?xml version="1.0" encoding="utf-8"?>
<!-- Generator: Adobe Illustrator 20.1.0, SVG Export Plug-In . SVG Version: 6.00 Build 0)  -->
<svg version="1.1" id="Layer_1" xmlns="http://www.w3.org/2000/svg" xmlns:xlink="http://www.w3.org/1999/xlink" x="0px" y="0px"
	 viewBox="0 0 399.9 400" style="enable-background:new 0 0 399.9 400;" xml:space="preserve">
<style type="text/css">
	.st0{fill:#FFFFFF;}
</style>
<g>
	<g>
		<path class="st0" d="M299.4,336.2c-30.1,25.5-67.9,39.5-107.9,39.5c-44.7,0-86.6-17.4-118.2-49s-49-73.6-49-118.2
			c0-40,13.9-77.8,39.5-107.9L48.6,81.1C18.4,114.9,0,159.6,0,208.5C0.1,314.3,85.8,400,191.6,400c48.9,0,93.6-18.4,127.4-48.6
			L299.4,336.2z"/>
		<path class="st0" d="M139,49.7c16.7-5.5,34.4-8.4,52.5-8.4c44.7,0,86.6,17.4,118.2,49s49,73.6,49,118.2c0,18.1-2.9,35.8-8.4,52.5
			l18.9,18.9c8.9-22.1,13.8-46.2,13.8-71.4C383.1,102.8,297.3,17,191.6,17c-25.3,0-49.4,4.9-71.4,13.8L139,49.7z"/>
	</g>
	<g>
		<path class="st0" d="M161.5,107.5L57.5,0L41.3,25.2c-1.4,2.4-1.2,5.5,0.5,7.7L132,148.7L161.5,107.5z"/>
		<path class="st0" d="M127.7,249.5L85.8,218l-7.6,13c-0.8,1.5-0.6,3.3,0.5,4.5l35.3,38.3L127.7,249.5z"/>
		<path class="st0" d="M202.9,150.2l-9.7-10l2.5-10.1c1.1-4.5,1.5-8.1,1-10.3c-1.5-6.6-4.5-11.5-4.5-11.5L101,206.2
			c0,0,6.2,6,15.1-0.9c4-3.2,19.8-16,36.7-30l15.5,19.9L202.9,150.2z"/>
		<path class="st0" d="M291.9,237.9l2.5-10.1c0.8-3.4,1.4-6.3,1.1-8.3c-1.1-6.5-3.7-11.5-3.7-11.5l-97.9,91.2c0,0,6,6.2,15.3,0
			c4.6-3.1,23.8-16.6,43-30.4L367,358.3c2.2,1.7,5.3,1.9,7.7,0.5l25.2-16.2L291.9,237.9z"/>
		<path class="st0" d="M151.2,273.2c14.7-11.3,35.2-27.1,53.7-41.3l20.8,16.2l34.1-41.3l-11.3-10.9l3.7-12.9
			c1.8-6.5,2.5-11.6,2-14.8c-1.9-9.4-6-16.3-6-16.3L113.7,286.4c0,0,4.2,3.4,12.9-0.1l38,35c1.2,1.1,3.1,1.3,4.5,0.5l13-7.6
			L151.2,273.2z"/>
	</g>
</g>
</svg>
