<svg xmlns="http://www.w3.org/2000/svg" viewBox="0 0 35.23 24.15"><symbol id="a" viewBox="0 0 35.23 24.15"><path d="M33.92 11.21h-5.44c-.83 0-1.28 1.07-1.28 1.87s.45 2.19 1.28 2.19h2.56v1.57c0 2.5-1.28 3.68-3.36 3.68s-3.56-1.18-3.56-3.68V7.91c0-2.5 1.45-3.68 3.6-3.68 2.72 0 3.23 1.66 3.33 3.17 0 1 1 1.31 2.08 1.31 1.38 0 2.08-.38 2.08-2 0-3.84-3.23-6.14-7.65-6.14-4.06 0-7.44 2-7.44 7.33v8.93c0 5.34 3.34 7.33 7.57 7.33s7.52-2 7.52-7.33v-4.25a1.28 1.28 0 0 0-1.29-1.37Zm-19.17 3.06h-1.57v-3.19c0-.93-1-1.31-2-1.31s-2 .38-2 1.31v3.22H5.37l6.14-12.15a1.3 1.3 0 0 0 .16-.54c0-1-1.34-1.6-2.08-1.6A1.87 1.87 0 0 0 7.83 1.1L.25 16.01a1.71 1.71 0 0 0-.22.83 1.36 1.36 0 0 0 1.41 1.47h7.75v3.77c0 .86 1 1.31 2 1.31s2-.45 2-1.31v-3.77h1.57c.67 0 1.31-1 1.31-2s-.45-2.05-1.32-2.05Z"/></symbol><use href="#a"/></svg>