<svg xmlns="http://www.w3.org/2000/svg" viewBox="0 0 24 24"><path d="M22.179 20.898H1.821A.821.821 0 0 1 1 20.073V3.927a.82.82 0 0 1 .821-.825h20.357a.821.821 0 0 1 .822.825v16.146a.822.822 0 0 1-.821.825zM1.821 3.663a.26.26 0 0 0-.26.264v16.146a.26.26 0 0 0 .261.264h20.357a.26.26 0 0 0 .261-.264V3.927a.26.26 0 0 0-.261-.264H1.821z"/><circle cx="3.161" cy="5.279" r=".453"/><circle cx="4.67" cy="5.279" r=".453"/><circle cx="6.179" cy="5.279" r=".453"/><path d="M8.369 14.836a.42.42 0 0 1-.3-.127.423.423 0 0 1 0-.606l1.975-1.982-1.975-1.982a.43.43 0 0 1 .607-.606l2.281 2.281a.43.43 0 0 1 0 .606l-2.281 2.281a.431.431 0 0 1-.307.135zm7.275-.913h-3.227a.43.43 0 0 0 0 .858h3.227a.43.43 0 0 0 0-.858z"/></svg>