<svg xmlns="http://www.w3.org/2000/svg" viewBox="0 0 24 24"><path d="M12 1c6.075 0 11 4.925 11 11s-4.925 11-11 11S1 18.075 1 12 5.925 1 12 1zm0 1.833c-5.063 0-9.167 4.104-9.167 9.167S6.937 21.167 12 21.167s9.167-4.104 9.167-9.167S17.063 2.833 12 2.833z"/><circle cx="9.58" cy="6.06" r=".917"/><circle cx="13.302" cy="5.712" r=".917"/><circle cx="16.528" cy="7.453" r=".917"/><circle cx="18.307" cy="10.772" r=".917"/><circle cx="17.903" cy="14.53" r=".917"/><circle cx="15.538" cy="17.353" r=".917"/><circle cx="6.61" cy="8.535" r=".917"/><path d="M5.583 11.083c.507 0 .917.411.917.917a5.5 5.5 0 0 0 5.5 5.5.917.917 0 1 1 0 1.834 7.333 7.333 0 0 1-7.333-7.333c0-.507.41-.918.916-.918z"/></svg>