<svg xmlns="http://www.w3.org/2000/svg" viewBox="0 0 59 21"><symbol id="a" viewBox="0 0 59 21"><path d="M10 17H4V2a2 2 0 0 0-4 0v17a2 2 0 0 0 2 2h8a2 2 0 1 0 0-4ZM38 4a2 2 0 1 0 0-4h-8a2 2 0 0 0-2 2v17a2 2 0 0 0 2 2h8a2 2 0 1 0 0-4h-6v-5h3.25A1.76 1.76 0 0 0 37 10.25v-.49a1.76 1.76 0 0 0-1.75-1.75H32v-4h6ZM23 0H13a2 2 0 0 0 0 4h3v15.13A1.88 1.88 0 0 0 17.87 21h.26A1.88 1.88 0 0 0 20 19.13V4h3a2 2 0 1 0 0-4Zm34 8h-4V4a2 2 0 0 0-4 0v4h-4a2 2 0 0 0 0 4h4v4a2 2 0 0 0 4 0v-4h4a2 2 0 1 0 0-4Z"/></symbol><use href="#a"/></svg>