<svg xmlns="http://www.w3.org/2000/svg" viewBox="0 0 24 24"><path d="M5.921 9.858v1.447l-2.605.001a.868.868 0 0 0-.86.751l-.008.118-.001 1.505 3.635.001a2.292 2.292 0 0 0 1.962 1.441l.169.006H2.447v2.373h7.527v-2.373h1.447v5.327a2.316 2.316 0 0 1-2.316 2.316H3.316A2.32 2.32 0 0 1 1 20.453v-8.279a2.316 2.316 0 0 1 2.316-2.316h2.605zm14.763 0A2.316 2.316 0 0 1 23 12.174v8.279a2.316 2.316 0 0 1-2.316 2.316h-5.789a2.316 2.316 0 0 1-2.316-2.316v-5.327h1.446v2.373h7.527v-2.373h-5.765c.967 0 1.795-.599 2.131-1.447l3.634-.001v-1.505a.868.868 0 0 0-.751-.86l-.118-.008-2.606-.001V9.858h2.607zM9.973 18.947H2.447l.001 1.506c0 .44.327.803.751.86l.118.008h5.789c.44 0 .803-.327.86-.751l.008-.118-.001-1.505zm11.579 0h-7.527l.001 1.506c0 .44.327.803.751.86l.118.008h5.789c.44 0 .803-.327.86-.751l.008-.118v-1.505zM14.895 1.232a2.316 2.316 0 0 1 2.316 2.316v8.279a2.316 2.316 0 0 1-2.316 2.316h-5.79a2.316 2.316 0 0 1-2.316-2.316v-8.28a2.316 2.316 0 0 1 2.316-2.316h5.79zm.868 9.088H8.236l.001 1.506c0 .44.327.803.751.86l.118.008h5.789c.44 0 .803-.327.86-.751l.008-.118V10.32zm0-3.82H8.236v2.373h7.527V6.5zm-.868-3.821h-5.79a.868.868 0 0 0-.86.751l-.008.117-.001 1.505h7.527V3.547a.868.868 0 0 0-.751-.86l-.117-.008z"/></svg>