<svg xmlns="http://www.w3.org/2000/svg" viewBox="0 0 24 24"><path d="M15.822 7.32c.48.002.872.372.91.842l.003.079v3.732a.92.92 0 0 1-1.837.079l-.003-.079.026-1.488-4.387 4.387h1.409a.917.917 0 0 1 .581.211l.08.074a.916.916 0 0 1-.569 1.58l-.079.002H8.217a.917.917 0 0 1-.91-.842l-.003-.079v-3.732a.92.92 0 0 1 1.837-.079l.003.079-.026 1.488 4.387-4.387h-1.408a.917.917 0 0 1-.581-.211l-.08-.074a.916.916 0 0 1 .569-1.58l.079-.002h3.738zM5.518 18.482c-3.58-3.58-3.58-9.384 0-12.964s9.384-3.58 12.963 0 3.58 9.384 0 12.963a9.166 9.166 0 0 1-12.804.156l-.159-.155zm14.26-14.26c-4.296-4.296-11.26-4.296-15.556 0s-4.296 11.26 0 15.556c4.295 4.295 11.26 4.296 15.556 0 4.247-4.247 4.295-11.101.146-15.407l-.146-.149z"/></svg>