<svg xmlns="http://www.w3.org/2000/svg" viewBox="0 0 25 25"><symbol id="a" viewBox="0 0 25 25"><path d="M12.5.926C6.108.926.926 6.108.926 12.5c0 6.393 5.182 11.574 11.574 11.574 6.393 0 11.574-5.182 11.574-11.574C24.074 6.108 18.894.926 12.5.926zm0 21.433c-5.445 0-9.86-4.415-9.86-9.86 0-5.445 4.415-9.86 9.86-9.86 5.445 0 9.86 4.415 9.86 9.86 0 5.445-4.415 9.86-9.86 9.86z"/><path d="M9.627 10.1H7.03v7.82h2.597V10.1zm-1.3-1.068c.908 0 1.47-.6 1.47-1.35-.015-.768-.562-1.352-1.452-1.352-.89 0-1.47.584-1.47 1.352 0 .75.563 1.35 1.437 1.35h.016zm2.739 8.888h2.6v-4.367c0-.233.016-.467.086-.634.187-.468.615-.952 1.332-.952.94 0 1.316.717 1.316 1.768v4.184H19v-4.483c0-2.403-1.282-3.52-2.992-3.52-1.402 0-2.018.784-2.358 1.316h.017V10.1h-2.6c.034.733 0 7.82 0 7.82"/></symbol><use href="#a"/></svg>