<svg xmlns="http://www.w3.org/2000/svg" viewBox="0 0 25 25"><symbol id="a" viewBox="0 0 25 25"><path d="M12.5.926C6.108.926.926 6.108.926 12.5c0 6.393 5.182 11.574 11.574 11.574 6.393 0 11.574-5.182 11.574-11.574C24.074 6.108 18.894.926 12.5.926zm0 21.433c-5.445 0-9.86-4.415-9.86-9.86 0-5.445 4.415-9.86 9.86-9.86 5.445 0 9.86 4.415 9.86 9.86 0 5.445-4.415 9.86-9.86 9.86zm5.244-14.235c0-.884-1.332-.982-1.332-.982l-3.126-.197s-.067-.85-.7-1.146c-.63-.295-1.326-.205-1.825-.2s-.617.643-.617 1.244.012 1.292.012 1.73c0 .78-.344 1.113-1.204 1.113H7.18c-.496-.033-.883.05-.883.45S6.88 13.96 7.68 14.75c.465.456 3.31.778 3.907.778.6 0 .4-1.77.567-1.77.165 0 .35 1 1.292 1.232.943.236 2.2.19 2.27.863.087.887.166 2.03-.417 2.113l-1.32.054c-.904-.066-.662-1.053-.263-1.053.398 0 .598-.018.598-.018l.05-1.08s-2.07-.245-2.157 1.15c-.08 1.278.14 1.88.3 2.01.16.132.44.388 2.975.388 3.57 0 2.26-10.41 2.26-11.293zm-1.46 4.622c-.138.15-.645-.247-1.13-.247-.486 0-1.01.258-1.132.09-.122-.17.113-1.532 1.025-1.532.916 0 1.38 1.54 1.238 1.69zm-7.407-4.73c0-.175.045-2.294.045-2.294L6.228 8.366h2.227c.366 0 .422-.175.422-.35z"/></symbol><use href="#a"/></svg>