<svg xmlns="http://www.w3.org/2000/svg" viewBox="0 0 24 24"><path d="M18.188 1a2.75 2.75 0 0 1 2.75 2.75v16.5a2.75 2.75 0 0 1-2.75 2.75H5.812a2.75 2.75 0 0 1-2.75-2.75V3.75A2.75 2.75 0 0 1 5.812 1h12.376zm1.031 15.331H4.781v3.919a1.045 1.045 0 0 0 1.031 1.031h12.375a1.045 1.045 0 0 0 1.031-1.031v-3.919zm-2.063 2.2a.688.688 0 1 1 0 1.376.688.688 0 0 1 0-1.376zm-2.75 0a.688.688 0 1 1 0 1.376.688.688 0 0 1 0-1.376zm4.813-9.144H4.781v5.225h14.438V9.387zm-2.063 2.476a.688.688 0 1 1 0 1.376.688.688 0 0 1 0-1.376zm-2.75 0a.688.688 0 1 1 0 1.376.688.688 0 0 1 0-1.376zm3.782-9.144H5.812A1.045 1.045 0 0 0 4.781 3.75v3.919h14.438V3.75a1.045 1.045 0 0 0-1.031-1.031zm-1.032 2.2a.688.688 0 1 1 0 1.376.688.688 0 0 1 0-1.376zm-2.75 0a.688.688 0 1 1 0 1.376.688.688 0 0 1 0-1.376z"/></svg>