<svg xmlns="http://www.w3.org/2000/svg" viewBox="0 0 25 25"><symbol id="a" viewBox="0 0 25 25"><path fill-rule="evenodd" d="M12.5.926C6.108.926.926 6.108.926 12.5S6.108 24.074 12.5 24.074c6.392 0 11.574-5.182 11.574-11.574S18.892.926 12.5.926zm0 21.433c-5.445 0-9.86-4.415-9.86-9.86s4.415-9.86 9.86-9.86c5.445 0 9.86 4.415 9.86 9.86s-4.415 9.86-9.86 9.86zm5.693-13.853a5.128 5.128 0 0 1-1.57.567 2.54 2.54 0 0 0-1.806-.738c-1.366 0-2.473 1.046-2.473 2.337 0 .183.022.36.064.533-2.055-.097-3.878-1.028-5.098-2.44a2.228 2.228 0 0 0-.334 1.173c0 .81.437 1.525 1.1 1.944a2.57 2.57 0 0 1-1.12-.292v.03c0 1.13.853 2.075 1.984 2.29a2.635 2.635 0 0 1-1.117.04c.315.928 1.228 1.604 2.31 1.623-.846.627-1.913 1-3.072 1-.2 0-.395-.01-.59-.033a7.3 7.3 0 0 0 3.792 1.05c4.55 0 7.037-3.56 7.037-6.648 0-.1-.003-.202-.008-.302.483-.33.903-.74 1.234-1.21a5.18 5.18 0 0 1-1.42.368 2.37 2.37 0 0 0 1.087-1.293z" clip-rule="evenodd"/></symbol><use href="#a"/></svg>