<svg xmlns="http://www.w3.org/2000/svg" viewBox="0 0 26 26"><symbol id="a" viewBox="0 0 26 26"><path d="M18.278 25.5H6.722c-1.225 0-2.222-1.02-2.222-2.273V2.773C4.5 1.52 5.497.5 6.722.5h11.556C19.503.5 20.5 1.52 20.5 2.773v20.455c0 1.252-.997 2.272-2.222 2.272zM6.722 1.41c-.735 0-1.333.61-1.333 1.363v20.455c0 .752.597 1.364 1.332 1.364h11.556c.735 0 1.333-.612 1.333-1.364V2.773c0-.752-.597-1.364-1.332-1.364H6.722z"/><path d="M17.39 20.045H7.61l-.443-.455V5.045l.444-.455h9.78l.443.455V19.59l-.444.455zm-9.334-.91h8.89V5.5h-8.89v13.636z"/><path fill-rule="evenodd" d="M13.39 22.318c0 .502-.4.91-.89.91s-.89-.408-.89-.91.4-.91.89-.91.89.408.89.91z" clip-rule="evenodd"/></symbol><use href="#a"/></svg>