<svg xmlns="http://www.w3.org/2000/svg" viewBox="0 0 24 24"><symbol id="a" viewBox="0 0 24 24"><path d="M1.673 11.322H3.02a.673.673 0 0 1 0 1.346H1.673a.673.673 0 0 1 0-1.346zm3.817-.225a.898.898 0 0 1 0 1.796.898.898 0 0 1 0-1.796zm2.692 0a.898.898 0 0 1 0 1.796.898.898 0 0 1 0-1.796zm2.693 0a.898.898 0 0 1 0 1.796.9.9 0 0 1 0-1.796zm2.695 0a.898.898 0 0 1 0 1.796.898.898 0 0 1 0-1.796zm2.692 0a.898.898 0 0 1 0 1.796.898.898 0 0 1 0-1.796zm2.468.225h2.245a.673.673 0 0 1 0 1.346H18.73a.672.672 0 0 1 0-1.346z"/><path d="m20.58 9.306 2.223 2.222a.673.673 0 0 1-.952.952l-2.222-2.222a.673.673 0 0 1 0-.952.675.675 0 0 1 .95 0z"/><path d="m19.63 13.74 2.22-2.22a.673.673 0 0 1 .952.952l-2.22 2.22a.673.673 0 0 1-.952-.952z"/></symbol><use href="#a"/></svg>