<svg xmlns="http://www.w3.org/2000/svg" xmlns:xlink="http://www.w3.org/1999/xlink" viewBox="0 0 101.167 86.167" fill="#fff" fill-rule="evenodd" stroke="#000" stroke-linecap="round" stroke-linejoin="round"><use xlink:href="#A" x="2.083" y="2.083"/><symbol id="A" overflow="visible"><g stroke="none" fill-rule="nonzero"><path d="M10.942 44.854c4.808 11.212 17.333 22.425 30.625 22.425s24.817-11.76 30.625-22.425z" fill="#92d3f5"/><path d="M60.475 44.854c-5.125 9.408-14.527 20.654-25.833 22.121 1.531.201 3.074.302 4.619.304 13.292 0 29.438-11.76 35.244-22.425z" fill="#61b2e4"/></g><g fill="none" stroke-width="4.167"><path d="M76.208 33.641l15.985 11.386 4.798-4.658S71.075.004 41.569.004C22.716-.269 7.21 14.789 6.929 33.641c.281 18.852 15.787 33.91 34.64 33.637 18.853.272 34.359-14.785 34.64-33.637"/><path d="M0 81.495L11.548 59.07H71.59l11.546 22.425"/><path d="M41.569 59.07v22.425"/></g></symbol></svg>