<svg xmlns="http://www.w3.org/2000/svg" viewBox="0 0 80 80"><g fill="none" fill-rule="evenodd"><path fill="#ED7100" d="M0 0h80v80H0z"/><path fill="#FFF" d="M59.53 28.752a17.426 17.426 0 0 0-1.473-2.036l6.553-2.72c.4.628.993 1.575 1.458 2.378l-6.539 2.378Zm-5.07 12.523a17.445 17.445 0 0 0-1.694-7.263l6.48-2.359a24.321 24.321 0 0 1 1.932 7.18l-6.718 2.442Zm9.631-1.373 1.402-.51a24.165 24.165 0 0 1-2.257 10.82c-5.665 12.151-20.16 17.43-32.31 11.763a24.202 24.202 0 0 1-8.686-6.842l6.966-2.537a17.292 17.292 0 0 0 4.621 3.151 17.323 17.323 0 0 0 13.337.576 17.319 17.319 0 0 0 9.845-9.015c.8-1.71 1.291-3.518 1.5-5.376l5.582-2.03ZM13.706 48.23l6.478-2.359a17.443 17.443 0 0 0 3.372 6.655l-6.718 2.445a24.478 24.478 0 0 1-3.132-6.74ZM27.34 38.146c.01.75.07 1.502.177 2.255l-6.56 2.39a24.312 24.312 0 0 1-.356-2.194l6.74-2.45Zm23.145-4.199a15.458 15.458 0 0 1 1.935 8.697 1 1 0 0 0 1.34 1.015l2.627-.956a15.264 15.264 0 0 1-1.189 3.76 15.338 15.338 0 0 1-8.718 7.981 15.339 15.339 0 0 1-11.806-.51 15.278 15.278 0 0 1-4.498-3.192 1.001 1.001 0 0 0-1.058-.242l-3.544 1.291a15.448 15.448 0 0 1-3.634-7.23l7.043-2.565a1 1 0 0 0 .641-1.128 15.453 15.453 0 0 1-.243-4.09 1 1 0 0 0-1.339-1.016l-2.138.778a15.121 15.121 0 0 1 1.175-3.754c3.598-7.719 12.806-11.07 20.527-7.472a15.375 15.375 0 0 1 4.487 3.2.992.992 0 0 0 1.098.223l2.918-1.212c.681.744 1.278 1.584 1.817 2.48l-6.91 2.516a1 1 0 0 0-.53 1.426ZM16.776 39.86a24.304 24.304 0 0 1 2.263-10.824c5.667-12.148 20.161-17.425 32.313-11.76a24.343 24.343 0 0 1 8.447 6.551l-6.763 2.81a17.237 17.237 0 0 0-4.585-3.135c-8.722-4.066-19.12-.279-23.186 8.44-.785 1.684-1.272 3.49-1.484 5.37l-7.005 2.548ZM68.4 26.481c-.639-1.318-2.484-4.156-2.562-4.276a1.001 1.001 0 0 0-1.222-.378l-2.894 1.201a26.346 26.346 0 0 0-9.524-7.565c-13.148-6.13-28.839-.42-34.972 12.728a26.293 26.293 0 0 0-2.376 13.15 1.003 1.003 0 0 0 1.34.862l2.483-.904c.122.916.304 1.853.532 2.8l-7.047 2.566a1 1 0 0 0-.628 1.184 26.485 26.485 0 0 0 4.107 8.904 1.002 1.002 0 0 0 1.158.361l3.484-1.267a26.163 26.163 0 0 0 20.879 10.404c9.917 0 19.431-5.629 23.891-15.192a26.171 26.171 0 0 0 2.368-13.149 1.005 1.005 0 0 0-.457-.76 1.004 1.004 0 0 0-.882-.099l-2.67.971-.299.11a26.34 26.34 0 0 0-2.254-7.734l6.987-2.542a1 1 0 0 0 .558-1.375Z"/></g></svg>