<svg xmlns="http://www.w3.org/2000/svg" viewBox="0 0 16 7.107"><path fill="#000" fill-rule="nonzero" d="M12.472 0a3.771 3.771 0 0 0-2.941 1.459v-.87a.365.365 0 0 0-.73 0v1.764a.37.37 0 0 0 .365.365h1.765a.365.365 0 1 0 0-.73h-.883c1.695-2.265 5.16-1.33 5.248 1.542a2.824 2.824 0 0 1-2.824 2.818c-1.065 0-1.723-.588-2.541-1.406l-2.3-2.353-1.06-1.077C5.807.765 4.854 0 3.553 0a3.553 3.553 0 0 0 0 7.107c1.43-.035 2.16-.724 2.942-1.489v.853a.365.365 0 0 0 .73 0V4.707a.365.365 0 0 0-.365-.365H5.07a.365.365 0 0 0 0 .73h.883a3.3 3.3 0 0 1-2.4 1.276 2.818 2.818 0 1 1 0-5.636C5.1.712 6.1 2.177 7.083 3.124c.784.784 1.55 1.569 2.3 2.353.941.9 1.747 1.583 3.088 1.583 4.701-.141 4.707-6.919 0-7.06Z"/></svg>