<svg xmlns="http://www.w3.org/2000/svg" viewBox="0 0 80 80"><g fill="none" fill-rule="evenodd"><path fill="#E7157B" d="M0 0h80v80H0z"/><path fill="#FFF" d="M47 40.333V44H33v-3.667C33 36.304 34.839 32 40 32s7 4.304 7 8.333m3.667-26.229-.762 1.848c10.327 4.259 16.772 14.63 16.036 25.807-.852 12.98-11.288 23.379-24.273 24.188-7.258.447-14.183-2.031-19.468-6.995C16.912 53.983 14 47.252 14 40c0-14.002 11.126-25.454 25-25.981v16.034c-5.876.535-8 5.762-8 10.28V45a1 1 0 0 0 1 1h3v6h2v-6h6v6h2v-6h3a1 1 0 0 0 1-1v-4.667c0-4.518-2.124-9.745-8-10.28V13a1 1 0 0 0-1-1c-15.439 0-28 12.56-28 28a28.11 28.11 0 0 0 8.831 20.409C26.08 65.341 32.82 68 39.978 68c.602 0 1.208-.019 1.815-.057 13.985-.872 25.226-12.072 26.144-26.053.792-12.034-6.149-23.201-17.27-27.786"/></g></svg>