<svg viewBox="0 0 1200 800" xmlns="http://www.w3.org/2000/svg"><g fill="none" fill-rule="evenodd"><path fill="#F9F2E7" d="M0 0h1200v800H0z"></path><path d="M838.89 73.64V725c0 8.638-7.002 15.64-15.64 15.64H273.09c-8.638 0-15.64-7.002-15.64-15.64V73.64c0-8.638 7.002-15.64 15.64-15.64h550.16c8.638 0 15.64 7.002 15.64 15.64z" fill="#D2D2D2"></path><path fill="#A3A3A3" d="M354.81 709.36h462v12.006h-462zm0-19.32h462v12.006h-462zm0-18.4h462v12.006h-462zM279.53 79.16h537.28v11.96H279.53z"></path><path d="M285.786 112.28h524.768c3.455 0 6.256 2.8 6.256 6.256v524.768a6.256 6.256 0 01-6.256 6.256H285.786a6.256 6.256 0 01-6.256-6.256V118.536c0-3.455 2.8-6.256 6.256-6.256z" fill="#FFF"></path><g fill-rule="nonzero"><path d="M308.786 667.916a3.938 3.938 0 00-1.514.401l-20.507 9.781a3.884 3.884 0 00-2.116 2.635l-5.02 21.953a3.793 3.793 0 00.552 2.994c.07.107.144.21.221.31l14.168 17.614a3.917 3.917 0 003.058 1.443h22.724a3.984 3.984 0 003.062-1.46l14.16-17.62a3.783 3.783 0 00.737-3.285l-5.053-21.972a3.894 3.894 0 00-2.116-2.635l-20.474-9.755a3.938 3.938 0 00-1.9-.403h.018z" fill="#4A4A4A"></path><path d="M308.974 675.397a1.297 1.297 0 00-1.206 1.362v.346c.034.392.092.78.17 1.165.113.736.153 1.482.121 2.226-.07.245-.21.465-.4.635l-.029.519c-.745.062-1.484.176-2.213.342a15.758 15.758 0 00-8.011 4.572l-.442-.313a.952.952 0 01-.727-.073 11.445 11.445 0 01-1.65-1.49c-.252-.3-.52-.587-.804-.856l-.273-.217a1.47 1.47 0 00-.852-.322c-.376-.02-.74.141-.977.434a1.298 1.298 0 00.302 1.809l.254.202c.327.218.666.416 1.016.594.651.363 1.266.788 1.836 1.288.146.208.23.453.245.707l.4.368a15.858 15.858 0 00-2.498 11.051l-.515.147a1.683 1.683 0 01-.526.53 11.53 11.53 0 01-2.197.363c-.394.008-.787.038-1.178.092l-.326.073h-.036a1.233 1.233 0 00-.712 2.083c.328.331.815.449 1.258.304h.024l.331-.037c.374-.11.742-.247 1.1-.401.69-.276 1.406-.488 2.139-.626.254.015.496.101.703.249l.552-.092a15.94 15.94 0 007.065 8.837l-.224.47c.103.215.141.454.11.691a11.88 11.88 0 01-1.11 2.01c-.238.313-.458.64-.658.98l-.157.331a1.233 1.233 0 001.196 1.842c.462-.052.856-.36 1.018-.795l.153-.313c.14-.368.257-.743.353-1.122.326-.804.502-1.667.948-2.2a.994.994 0 01.526-.258l.276-.502a15.86 15.86 0 0011.308.027l.245.47c.25.036.475.174.626.377.346.658.625 1.348.839 2.06.097.382.216.757.357 1.125l.152.312a1.233 1.233 0 002.185.241c.252-.39.263-.888.029-1.29l-.16-.33a9.9 9.9 0 00-.659-.978 13.024 13.024 0 01-1.104-1.945.957.957 0 01.125-.736 4.214 4.214 0 01-.204-.495 15.961 15.961 0 007.034-8.868l.523.092a.976.976 0 01.686-.254c.73.14 1.447.368 2.138.625.36.166.727.306 1.1.424.089.023.218.044.317.068h.024a1.233 1.233 0 001.548-1.566 1.233 1.233 0 00-1.001-.82l-.357-.085c-.39-.054-.784-.084-1.178-.092-.743-.048-1.48-.17-2.197-.363a1.383 1.383 0 01-.53-.53l-.497-.147a15.916 15.916 0 00-2.55-11.027l.434-.401a.969.969 0 01.228-.696 11.557 11.557 0 011.822-1.28c.35-.179.689-.377 1.016-.595l.268-.217a1.233 1.233 0 10-1.525-1.915l-.272.217c-.284.27-.553.555-.804.855a11.477 11.477 0 01-1.607 1.515 1.362 1.362 0 01-.743.08l-.466.332a16.075 16.075 0 00-10.184-4.913c0-.184-.024-.46-.028-.546a.966.966 0 01-.4-.611c-.026-.743.02-1.487.14-2.221.078-.387.133-.773.168-1.165v-.368a1.296 1.296 0 00-1.205-1.362l-.016-.009zm-1.535 9.506l-.368 6.427h-.027c-.019.397-.253.736-.611.927-.36.192-.784.135-1.104-.1l-5.272-3.734a12.622 12.622 0 016.078-3.31c.43-.093.864-.162 1.3-.21h.004zm3.07 0a12.74 12.74 0 017.34 3.54l-5.221 3.711a1.081 1.081 0 01-1.755-.832l-.365-6.42zm-12.367 5.937l4.821 4.302v.028a1.082 1.082 0 01-.425 1.856v.019l-6.186 1.78a12.622 12.622 0 011.792-7.986l-.002.001zm21.626 0a12.847 12.847 0 011.844 7.962l-6.196-1.785v-.024a1.07 1.07 0 01-.767-.8 1.09 1.09 0 01.342-1.056l4.784-4.282-.007-.015zm-11.783 4.637h1.972l1.205 1.531-.438 1.914-1.772.852-1.775-.852-.418-1.914 1.226-1.53zm6.318 5.222c.083-.01.184-.01.249 0l6.379 1.077c-.92 2.65-2.736 4.912-5.106 6.427l-2.466-5.97a1.086 1.086 0 01.937-1.506l.007-.028zm-10.714.028a1.08 1.08 0 01.977 1.505v.024l-2.451 5.92a12.66 12.66 0 01-5.075-6.36l6.324-1.073c.07-.007.142-.007.214 0l.01-.016zm5.343 2.576c.41-.013.792.206.988.566h.024l3.117 5.625-1.246.368a12.686 12.686 0 01-6.914-.357l3.129-5.625c.19-.33.539-.533.92-.542l-.017-.035z" stroke="#FFF" stroke-width=".575" fill="#FFF"></path></g><mask id="mask-2" fill="#fff"><path d="z"></path></mask><path fill="#F9F2E7" fill-rule="nonzero" d="z"></path><g mask="url(#mask-2)" fill="#FFF"><path d="M600.323-239.651l352.103 352.103-8.131 8.132L592.19-231.52zm-16.264 16.263l352.104 352.104-8.132 8.132-352.104-352.104zm-16.263 16.264l352.103 352.103-8.131 8.132-352.104-352.104zm-16.264 16.263l352.104 352.104-8.132 8.132L543.4-182.73zm-16.263 16.263l352.104 352.104-8.132 8.132-352.104-352.104zm-16.264 16.264L871.11 193.77l-8.133 8.13-352.103-352.102zm-16.263 16.263l352.104 352.104-8.132 8.132L494.61-133.939zm-16.264 16.264l352.104 352.104-8.132 8.131-352.103-352.103zm-16.263 16.263L822.319 242.56l-8.132 8.132-352.104-352.104zM453.95-93.28l352.104 352.104-8.131 8.131L445.82-85.149zm-16.263 16.263l352.104 352.104-8.132 8.132L429.555-68.885zm-16.264 16.264L773.528 291.35l-8.131 8.131L413.293-52.623zM405.16-44.49l352.104 352.104-8.132 8.132L397.03-36.358zm-16.263 16.264L741 323.877l-8.131 8.132L380.765-20.095zm-16.264 16.263l352.104 352.104-8.132 8.132L364.502-3.831zM356.37 4.301l352.103 352.103-8.131 8.132L348.239 12.432zm-16.263 16.263l352.104 352.104-8.132 8.132L331.975 28.696zm-16.263 16.263l352.104 352.104-8.132 8.132L315.712 44.959zM307.58 53.091l352.104 352.104-8.132 8.131L299.45 61.223zm-16.263 16.263L643.42 421.458l-8.132 8.132L283.185 77.486zm-16.264 16.264l352.104 352.104-8.132 8.131L266.922 93.75zM258.79 101.88l352.104 352.104-8.132 8.132-352.104-352.103zm-16.264 16.265L594.63 470.249l-8.131 8.131-352.104-352.104zm-16.263 16.263l352.104 352.104-8.132 8.132L218.131 142.54zM210 150.672l352.103 352.103-8.131 8.132-352.104-352.104zm-16.264 16.263L545.84 519.04l-8.132 8.132-352.104-352.105zM177.473 183.2l352.103 352.103-8.131 8.132L169.34 191.33zm-16.264 16.263l352.104 352.104-8.132 8.132-352.104-352.104zm-16.263 16.263L497.05 567.83l-8.132 8.132-352.104-352.104zm-16.264 16.264l352.104 352.104-8.132 8.131-352.103-352.103zm-16.263 16.263l352.104 352.104-8.132 8.132-352.104-352.104zm-16.264 16.264L448.26 616.62l-8.132 8.131L88.025 272.648z"></path></g><path d="M279.3 168.4h538.2v476.1a5.75 5.75 0 01-5.75 5.75h-526.7a5.75 5.75 0 01-5.75-5.75V168.4z" fill="#EFFFBD" fill-rule="nonzero"></path><path d="M279.3 421.4h538.2v223.1a5.75 5.75 0 01-5.75 5.75h-526.7a5.75 5.75 0 01-5.75-5.75V421.4z" fill="#66E8FF" fill-rule="nonzero"></path><path d="M279.3 593h538.2v47.8a9.2 9.2 0 01-9.2 9.2H288.5a9.2 9.2 0 01-9.2-9.2V593z" fill="#00A8C6" fill-rule="nonzero"></path><path fill="#8FBE00" d="M305.75 275.35h48.3v48.3h-48.3zm72.45 0h48.3v48.3h-48.3zm72.45 0h48.3v48.3h-48.3zm73.6 0h48.3v48.3h-48.3zm72.45 0H645v48.3h-48.3zM305.75 202.9h48.3v48.3h-48.3zm72.45 0h48.3v48.3h-48.3zm72.45 0h48.3v48.3h-48.3zm73.6 0h48.3v48.3h-48.3zm72.45 0H645v48.3h-48.3zm73.6 72.45h48.3v48.3h-48.3zm0-72.45h48.3v48.3h-48.3zm72.45 72.45h48.3v48.3h-48.3zm0-72.45h48.3v48.3h-48.3zm-437 144.9h48.3v48.3h-48.3zm72.45 0h48.3v48.3h-48.3zm72.45 0h48.3v48.3h-48.3z"></path><path d="M892.25 593.055c4.876 0 9.109-.46 12.7-1.383 3.59-.923 6.555-2.422 8.894-4.497 2.339-2.075 4.077-4.834 5.213-8.277 1.137-3.442 1.705-7.684 1.705-12.724v-37.281c0-5.271 1.103-9.06 3.31-11.365 2.208-2.306 6.095-3.46 11.662-3.46v-14.231c-5.567 0-9.454-1.144-11.661-3.434-2.208-2.29-3.311-6.086-3.311-11.39v-41.332c0-5.04-.568-9.281-1.705-12.724-1.136-3.442-2.874-6.201-5.213-8.277-2.339-2.075-5.304-3.574-8.895-4.496-3.59-.923-7.823-1.384-12.699-1.384v11.711c3.821 0 6.803.56 8.944 1.68 2.141 1.12 3.632 2.858 4.472 5.213.84 2.356 1.26 5.362 1.26 9.018v45.137c0 2.537.379 4.884 1.136 7.042.758 2.157 2.158 4.027 4.2 5.608 2.043 1.581 4.959 2.817 8.747 3.706.33.078.667.152 1.014.222l.023.006v1.65l-.023.004a37 37 0 00-.514.107l-.5.111c-3.788.873-6.704 2.109-8.746 3.706-2.043 1.598-3.443 3.476-4.2 5.634-.758 2.157-1.137 4.504-1.137 7.041v41.037c0 3.623-.42 6.613-1.26 8.968-.84 2.356-2.33 4.102-4.472 5.238-2.141 1.137-5.123 1.705-8.944 1.705v11.711zm0-177.85c4.876 0 9.109-.46 12.7-1.383 3.59-.923 6.555-2.422 8.894-4.497 2.339-2.075 4.077-4.834 5.213-8.277 1.137-3.442 1.705-7.684 1.705-12.724v-83.231c0-5.271 1.103-9.06 3.31-11.365 2.208-2.306 6.095-3.46 11.662-3.46v-14.231c-5.567 0-9.454-1.144-11.661-3.434-2.208-2.29-3.311-6.086-3.311-11.39v-73.982c0-5.04-.568-9.281-1.705-12.724-1.136-3.442-2.874-6.201-5.213-8.277-2.339-2.075-5.304-3.574-8.895-4.496-3.59-.923-7.823-1.384-12.699-1.384v11.711c3.821 0 6.803.56 8.944 1.68 2.141 1.12 3.632 2.858 4.472 5.213.84 2.356 1.26 5.362 1.26 9.018v77.787c0 2.537.379 4.884 1.136 7.042.758 2.157 2.158 4.027 4.2 5.608 2.043 1.581 4.959 2.817 8.747 3.706.33.078.667.152 1.014.222l.023.006v1.65l-.023.004c-.174.035-.345.07-.514.107l-.5.111c-3.788.873-6.704 2.109-8.746 3.706-2.043 1.598-3.443 3.476-4.2 5.634-.758 2.157-1.137 4.505-1.137 7.041v86.987c0 3.624-.42 6.613-1.26 8.968-.84 2.356-2.33 4.102-4.472 5.238-2.141 1.137-5.123 1.705-8.944 1.705v11.711z" fill-opacity="0.85" fill="#B5B5B5" fill-rule="nonzero"></path><path stroke="#000" stroke-width="12.65" stroke-dasharray="34.5" d="M231 166.1l704.375.575"></path><path fill="#688A00" d="M1048.846 162.173a37.473 37.473 0 11-74.946 0 37.473 37.473 0 1174.946 0z"></path><path d="M1009.2 145.734h7.637v30.545h-8.293v-22.91h-.179l-6.682 3.998v-7.04l7.517-4.593z" fill="#FFF" fill-rule="nonzero"></path><path fill="#688A00" d="M1048.846 282.923a37.473 37.473 0 11-74.946 0 37.473 37.473 0 1174.946 0z"></path><path d="M1023.106 297.029H999.66v-5.966l11.395-9.426q1.134-.94 1.947-1.767.813-.828 1.253-1.708.44-.88.44-1.954 0-1.178-.5-2.014-.5-.835-1.38-1.29-.88-.455-2.028-.455-1.149 0-2.021.463-.873.462-1.35 1.357-.477.895-.477 2.178h-7.875q0-3.222 1.447-5.549 1.446-2.326 4.086-3.58 2.64-1.252 6.19-1.252 3.669 0 6.361 1.17 2.692 1.172 4.161 3.29 1.47 2.117 1.47 4.966 0 1.76-.732 3.498-.73 1.737-2.625 3.84-1.894 2.103-5.384 5.011l-2.863 2.387v.179h11.931v6.622z" fill="#FFF" fill-rule="nonzero"></path><path fill="#688A00" d="M1048.846 506.473a37.473 37.473 0 11-74.946 0 37.473 37.473 0 1174.946 0z"></path><path d="M1010.985 520.997q-3.61 0-6.406-1.246-2.796-1.245-4.392-3.438-1.596-2.192-1.61-5.04h8.351q.015.88.545 1.573t1.454 1.081q.925.388 2.118.388 1.148 0 2.028-.41.88-.41 1.372-1.141.493-.731.478-1.67.015-.926-.56-1.641-.574-.716-1.603-1.119t-2.371-.403h-3.103v-5.727h3.103q1.238 0 2.185-.403.947-.402 1.476-1.118.53-.716.515-1.64.015-.896-.433-1.582-.447-.686-1.245-1.074t-1.842-.387q-1.134 0-2.021.403t-1.395 1.119q-.507.716-.522 1.64h-7.934q.015-2.804 1.543-4.951 1.53-2.148 4.199-3.371 2.67-1.223 6.13-1.223 3.386 0 5.988 1.148 2.603 1.149 4.072 3.155 1.469 2.006 1.454 4.586.03 2.565-1.752 4.206-1.783 1.64-4.512 1.939v.239q3.699.402 5.563 2.26 1.864 1.856 1.835 4.66.015 2.685-1.604 4.758-1.618 2.073-4.49 3.251-2.87 1.179-6.614 1.179z" fill="#FFF" fill-rule="nonzero"></path><path fill="#688A00" d="M226.946 619.473a37.473 37.473 0 11-74.946 0 37.473 37.473 0 1174.946 0z"></path><path d="M200.588 628.806h-26.31v-6.443l12.29-19.33h5.846v8.591h-3.34l-6.623 10.5v.24h18.137v6.442zm-3.52 4.773h-7.935v-6.741l.18-2.804v-21h7.755v30.545z" fill="#FFF" fill-rule="nonzero"></path></g></svg>