<svg xmlns="http://www.w3.org/2000/svg" xmlns:xlink="http://www.w3.org/1999/xlink" version="1.1" id="Warstwa_1" x="0" y="0" viewBox="0 0 200 172" style="enable-background:new 0 0 200 172" xml:space="preserve"><style>.st24{opacity:.1;enable-background:new}.st24,.st28,.st29{fill:#fff}.st29{opacity:.3}.st29,.st31,.st34{enable-background:new}.st31{opacity:.3}.st34{stroke-miterlimit:10}.st34,.st35,.st36{opacity:.3;fill:none;stroke:#fff}.st35{stroke-miterlimit:9.9999;enable-background:new}.st36{stroke-miterlimit:10.0003}.st36,.st37,.st40{enable-background:new}.st37{opacity:.3;fill:none;stroke:#fff;stroke-miterlimit:10.0001}.st40{opacity:.2;fill:#fff}.st41{opacity:.1}.st41,.st43,.st44{enable-background:new}.st43{opacity:.15}.st44{opacity:.13}</style><g id="bg"><linearGradient id="SVGID_1_" gradientUnits="userSpaceOnUse" x1="101.5" y1="-593" x2="101.5" y2="-445.384" gradientTransform="matrix(1 0 0 -1 0 -420)"><stop offset="0" style="stop-color:#1d7ee8"/><stop offset="1" style="stop-color:#2ea7db"/></linearGradient><path d="M16 111.5V173h171v-62.2c0-49.2-41.6-88.7-91.5-85.2C50.6 28.7 16 66.5 16 111.5z" style="fill:url(#SVGID_1_)"/><defs><path id="SVGID_2_" d="M15.9 111v61.5H187v-62.2c0-49.2-41.6-88.7-91.6-85.2C50.5 28.2 15.9 66 15.9 111z"/></defs><clipPath id="SVGID_3_"><use xlink:href="#SVGID_2_" style="overflow:visible"/></clipPath><path style="opacity:.2;clip-path:url(#SVGID_3_);enable-background:new" d="m151.3 55-9.3 49h-18V60H95v44H82V91H58v41.4l-8 12.1V75H16v97h171l1.6-117z"/><defs><path id="SVGID_4_" d="M15.9 111v61.5H187v-62.2c0-49.2-41.6-88.7-91.6-85.2C50.5 28.2 15.9 66 15.9 111z"/></defs><clipPath id="SVGID_5_"><use xlink:href="#SVGID_4_" style="overflow:visible"/></clipPath><path style="opacity:.2;clip-path:url(#SVGID_5_);enable-background:new" d="M16 155h183v18H16z"/></g><g id="bridge"><linearGradient id="SVGID_6_" gradientUnits="userSpaceOnUse" x1="105.7" y1="-513.5" x2="177.2" y2="-513.5" gradientTransform="matrix(1 0 0 -1 0 -420)"><stop offset="0" style="stop-color:#2e3192"/><stop offset="1" style="stop-color:#2f0b81"/></linearGradient><linearGradient id="SVGID_7_" gradientUnits="userSpaceOnUse" x1="105.2" y1="-513.5" x2="177.7" y2="-513.5" gradientTransform="matrix(1 0 0 -1 0 -420)"><stop offset="0" style="stop-color:#4c3ea1"/><stop offset="1" style="stop-color:#2e3192"/></linearGradient><path d="M177.2 136.9c-49.3-60.7-71.5-86.8-71.5-86.8" style="fill:url(#SVGID_6_);stroke:url(#SVGID_7_);stroke-linecap:round;stroke-miterlimit:10"/><linearGradient id="SVGID_8_" gradientUnits="userSpaceOnUse" x1="105.7" y1="-515.8" x2="165.9" y2="-515.8" gradientTransform="matrix(1 0 0 -1 0 -420)"><stop offset="0" style="stop-color:#2e3192"/><stop offset="1" style="stop-color:#2f0b81"/></linearGradient><linearGradient id="SVGID_9_" gradientUnits="userSpaceOnUse" x1="105.2" y1="-515.8" x2="166.4" y2="-515.8" gradientTransform="matrix(1 0 0 -1 0 -420)"><stop offset="0" style="stop-color:#4c3ea1"/><stop offset="1" style="stop-color:#2e3192"/></linearGradient><path d="M165.9 136.9c-23.1-31.6-60.2-82.2-60.2-82.2" style="fill:url(#SVGID_8_);stroke:url(#SVGID_9_);stroke-linecap:round;stroke-miterlimit:10"/><linearGradient id="SVGID_10_" gradientUnits="userSpaceOnUse" x1="105.1" y1="-518.85" x2="155.5" y2="-518.85" gradientTransform="matrix(1 0 0 -1 0 -420)"><stop offset="0" style="stop-color:#2e3192"/><stop offset="1" style="stop-color:#2f0b81"/></linearGradient><linearGradient id="SVGID_11_" gradientUnits="userSpaceOnUse" x1="104.6" y1="-518.85" x2="156" y2="-518.85" gradientTransform="matrix(1 0 0 -1 0 -420)"><stop offset="0" style="stop-color:#4c3ea1"/><stop offset="1" style="stop-color:#2e3192"/></linearGradient><path d="M155.5 136.9c-22.4-34.3-50.4-76.1-50.4-76.1" style="fill:url(#SVGID_10_);stroke:url(#SVGID_11_);stroke-linecap:round;stroke-miterlimit:10"/><linearGradient id="SVGID_12_" gradientUnits="userSpaceOnUse" x1="104.4" y1="-521.1" x2="146.212" y2="-521.1" gradientTransform="matrix(1 0 0 -1 0 -420)"><stop offset="0" style="stop-color:#2e3192"/><stop offset="1" style="stop-color:#2f0b81"/></linearGradient><linearGradient id="SVGID_13_" gradientUnits="userSpaceOnUse" x1="103.9" y1="-521.1" x2="146.713" y2="-521.1" gradientTransform="matrix(1 0 0 -1 0 -420)"><stop offset="0" style="stop-color:#4c3ea1"/><stop offset="1" style="stop-color:#2e3192"/></linearGradient><path d="M146.3 136.9c-17.7-31.6-41.9-71.6-41.9-71.6" style="fill:url(#SVGID_12_);stroke:url(#SVGID_13_);stroke-linecap:round;stroke-miterlimit:10"/><linearGradient id="SVGID_14_" gradientUnits="userSpaceOnUse" x1="103.1" y1="-523.45" x2="136.474" y2="-523.45" gradientTransform="matrix(1 0 0 -1 0 -420)"><stop offset="0" style="stop-color:#2e3192"/><stop offset="1" style="stop-color:#2f0b81"/></linearGradient><linearGradient id="SVGID_15_" gradientUnits="userSpaceOnUse" x1="102.6" y1="-523.45" x2="136.974" y2="-523.45" gradientTransform="matrix(1 0 0 -1 0 -420)"><stop offset="0" style="stop-color:#4c3ea1"/><stop offset="1" style="stop-color:#2e3192"/></linearGradient><path d="M136.4 136.9C122 108.6 103.1 70 103.1 70" style="fill:url(#SVGID_14_);stroke:url(#SVGID_15_);stroke-linecap:round;stroke-miterlimit:10"/><linearGradient id="SVGID_16_" gradientUnits="userSpaceOnUse" x1="102.418" y1="-526.05" x2="127.771" y2="-526.05" gradientTransform="matrix(1 0 0 -1 0 -420)"><stop offset="0" style="stop-color:#2e3192"/><stop offset="1" style="stop-color:#2f0b81"/></linearGradient><linearGradient id="SVGID_17_" gradientUnits="userSpaceOnUse" x1="101.922" y1="-526.05" x2="128.273" y2="-526.05" gradientTransform="matrix(1 0 0 -1 0 -420)"><stop offset="0" style="stop-color:#4c3ea1"/><stop offset="1" style="stop-color:#2e3192"/></linearGradient><path d="M127.9 136.9c-10.5-27.7-25.3-61.7-25.3-61.7" style="fill:url(#SVGID_16_);stroke:url(#SVGID_17_);stroke-linecap:round;stroke-miterlimit:10"/><linearGradient id="SVGID_18_" gradientUnits="userSpaceOnUse" x1="101.76" y1="-529.05" x2="117.891" y2="-529.05" gradientTransform="matrix(1 0 0 -1 0 -420)"><stop offset="0" style="stop-color:#2e3192"/><stop offset="1" style="stop-color:#2f0b81"/></linearGradient><linearGradient id="SVGID_19_" gradientUnits="userSpaceOnUse" x1="101.264" y1="-529.05" x2="118.393" y2="-529.05" gradientTransform="matrix(1 0 0 -1 0 -420)"><stop offset="0" style="stop-color:#4c3ea1"/><stop offset="1" style="stop-color:#2e3192"/></linearGradient><path d="M117.9 136.9c-6.5-27.7-16.1-55.7-16.1-55.7" style="fill:url(#SVGID_18_);stroke:url(#SVGID_19_);stroke-linecap:round;stroke-miterlimit:10"/><linearGradient id="SVGID_20_" gradientUnits="userSpaceOnUse" x1="18.8" y1="-512.7" x2="90.3" y2="-512.7" gradientTransform="matrix(1 0 0 -1 0 -420)"><stop offset="0" style="stop-color:#2e3192"/><stop offset="1" style="stop-color:#2f0b81"/></linearGradient><linearGradient id="SVGID_21_" gradientUnits="userSpaceOnUse" x1="18.3" y1="-512.7" x2="90.8" y2="-512.7" gradientTransform="matrix(1 0 0 -1 0 -420)"><stop offset="0" style="stop-color:#4c3ea1"/><stop offset="1" style="stop-color:#2e3192"/></linearGradient><path d="M18.8 136.7c49.3-60.6 71.5-88 71.5-88" style="fill:url(#SVGID_20_);stroke:url(#SVGID_21_);stroke-linecap:round;stroke-miterlimit:10"/><linearGradient id="SVGID_22_" gradientUnits="userSpaceOnUse" x1="31.4" y1="-515.05" x2="90.3" y2="-515.05" gradientTransform="matrix(1 0 0 -1 0 -420)"><stop offset="0" style="stop-color:#2e3192"/><stop offset="1" style="stop-color:#2f0b81"/></linearGradient><linearGradient id="SVGID_23_" gradientUnits="userSpaceOnUse" x1="30.9" y1="-515.05" x2="90.8" y2="-515.05" gradientTransform="matrix(1 0 0 -1 0 -420)"><stop offset="0" style="stop-color:#4c3ea1"/><stop offset="1" style="stop-color:#2e3192"/></linearGradient><path d="M31.4 136.7c23.1-31.6 58.9-83.3 58.9-83.3" style="fill:url(#SVGID_22_);stroke:url(#SVGID_23_);stroke-linecap:round;stroke-miterlimit:10"/><linearGradient id="SVGID_24_" gradientUnits="userSpaceOnUse" x1="41.9" y1="-518.05" x2="91.1" y2="-518.05" gradientTransform="matrix(1 0 0 -1 0 -420)"><stop offset="0" style="stop-color:#2e3192"/><stop offset="1" style="stop-color:#2f0b81"/></linearGradient><linearGradient id="SVGID_25_" gradientUnits="userSpaceOnUse" x1="41.4" y1="-518.05" x2="91.6" y2="-518.05" gradientTransform="matrix(1 0 0 -1 0 -420)"><stop offset="0" style="stop-color:#4c3ea1"/><stop offset="1" style="stop-color:#2e3192"/></linearGradient><path d="M41.9 136.7c22.4-34.3 49.2-77.3 49.2-77.3" style="fill:url(#SVGID_24_);stroke:url(#SVGID_25_);stroke-linecap:round;stroke-miterlimit:10"/><linearGradient id="SVGID_26_" gradientUnits="userSpaceOnUse" x1="49.9" y1="-520.3" x2="91.712" y2="-520.3" gradientTransform="matrix(1 0 0 -1 0 -420)"><stop offset="0" style="stop-color:#2e3192"/><stop offset="1" style="stop-color:#2f0b81"/></linearGradient><linearGradient id="SVGID_27_" gradientUnits="userSpaceOnUse" x1="49.4" y1="-520.3" x2="92.213" y2="-520.3" gradientTransform="matrix(1 0 0 -1 0 -420)"><stop offset="0" style="stop-color:#4c3ea1"/><stop offset="1" style="stop-color:#2e3192"/></linearGradient><path d="M49.9 136.7c17.7-31.6 41.9-72.8 41.9-72.8" style="fill:url(#SVGID_26_);stroke:url(#SVGID_27_);stroke-linecap:round;stroke-miterlimit:10"/><linearGradient id="SVGID_28_" gradientUnits="userSpaceOnUse" x1="59.6" y1="-522.65" x2="92.974" y2="-522.65" gradientTransform="matrix(1 0 0 -1 0 -420)"><stop offset="0" style="stop-color:#2e3192"/><stop offset="1" style="stop-color:#2f0b81"/></linearGradient><linearGradient id="SVGID_29_" gradientUnits="userSpaceOnUse" x1="59.1" y1="-522.65" x2="93.473" y2="-522.65" gradientTransform="matrix(1 0 0 -1 0 -420)"><stop offset="0" style="stop-color:#4c3ea1"/><stop offset="1" style="stop-color:#2e3192"/></linearGradient><path d="M59.6 136.7c14.5-28.4 33.3-68.1 33.3-68.1" style="fill:url(#SVGID_28_);stroke:url(#SVGID_29_);stroke-linecap:round;stroke-miterlimit:10"/><linearGradient id="SVGID_30_" gradientUnits="userSpaceOnUse" x1="68.3" y1="-525.85" x2="93.653" y2="-525.85" gradientTransform="matrix(1 0 0 -1 0 -420)"><stop offset="0" style="stop-color:#2e3192"/><stop offset="1" style="stop-color:#2f0b81"/></linearGradient><linearGradient id="SVGID_31_" gradientUnits="userSpaceOnUse" x1="67.8" y1="-525.85" x2="94.151" y2="-525.85" gradientTransform="matrix(1 0 0 -1 0 -420)"><stop offset="0" style="stop-color:#4c3ea1"/><stop offset="1" style="stop-color:#2e3192"/></linearGradient><path d="M68.3 137.9c10.5-27.7 25.3-64.1 25.3-64.1" style="fill:url(#SVGID_30_);stroke:url(#SVGID_31_);stroke-linecap:round;stroke-miterlimit:10"/><linearGradient id="SVGID_32_" gradientUnits="userSpaceOnUse" x1="78.156" y1="-528.25" x2="94.288" y2="-528.25" gradientTransform="matrix(1 0 0 -1 0 -420)"><stop offset="0" style="stop-color:#2e3192"/><stop offset="1" style="stop-color:#2f0b81"/></linearGradient><linearGradient id="SVGID_33_" gradientUnits="userSpaceOnUse" x1="77.66" y1="-528.25" x2="94.789" y2="-528.25" gradientTransform="matrix(1 0 0 -1 0 -420)"><stop offset="0" style="stop-color:#4c3ea1"/><stop offset="1" style="stop-color:#2e3192"/></linearGradient><path d="M78.2 136.7c6.5-27.7 16.1-56.9 16.1-56.9" style="fill:url(#SVGID_32_);stroke:url(#SVGID_33_);stroke-linecap:round;stroke-miterlimit:10"/><linearGradient id="SVGID_34_" gradientUnits="userSpaceOnUse" x1="17.6" y1="-560" x2="178.4" y2="-560" gradientTransform="matrix(1 0 0 -1 0 -420)"><stop offset="0" style="stop-color:#2e3192"/><stop offset="1" style="stop-color:#2f0b81"/></linearGradient><path style="fill:url(#SVGID_34_)" d="M17.6 137h160.8v6H17.6z"/><linearGradient id="SVGID_35_" gradientUnits="userSpaceOnUse" x1="89.1" y1="-521" x2="114.258" y2="-521" gradientTransform="matrix(1 0 0 -1 0 -420)"><stop offset="0" style="stop-color:#2e3192"/><stop offset="1" style="stop-color:#2f0b81"/></linearGradient><path style="fill:url(#SVGID_35_)" d="M89.1 47h3.3l21.9 108h-9.4z"/><linearGradient id="SVGID_36_" gradientUnits="userSpaceOnUse" x1="9011.008" y1="-521" x2="9036.166" y2="-521" gradientTransform="rotate(180 4559 -210)"><stop offset="0" style="stop-color:#2e3192"/><stop offset="1" style="stop-color:#2f0b81"/></linearGradient><path style="fill:url(#SVGID_36_)" d="M106.9 47h-3.2L81.9 155h9.2z"/><linearGradient id="SVGID_37_" gradientUnits="userSpaceOnUse" x1="95.049" y1="-472.4" x2="101.024" y2="-472.4" gradientTransform="matrix(1 0 0 -1 0 -420)"><stop offset="0" style="stop-color:#2e3192"/><stop offset="1" style="stop-color:#2f0b81"/></linearGradient><path style="fill:url(#SVGID_37_)" d="m95.1 49.4 1 6h3.8l1.2-6z"/></g><g id="Warstwa_10"><path style="fill:#373e9b" d="m116 133.3-3 2.9V173h3v-40"/><linearGradient id="SVGID_38_" gradientUnits="userSpaceOnUse" x1="116" y1="-47.42" x2="152" y2="-47.42" gradientTransform="matrix(1 0 0 -1 0 105.58)"><stop offset="0" style="stop-color:#2e60e8"/><stop offset="1" style="stop-color:#2e74db"/></linearGradient><path style="fill:url(#SVGID_38_)" d="M116 133h36v40h-36z"/><path style="opacity:.2;enable-background:new" d="M116 133h36v3h-36z"/><path class="st24" d="M119 150h8v3h-8zm0 5h8v3h-8zm0 5h8v3h-8zm0-20h8v3h-8zm0 5h8v3h-8zm11 5h8v3h-8zm0 5h8v3h-8zm0 5h8v3h-8zm0-20h8v3h-8zm0 5h8v3h-8zm11 5h8v3h-8zm0 5h8v3h-8zm0 5h8v3h-8zm-22 5h8v3h-8zm11 0h8v3h-8zm11 0h8v3h-8zm0-25h8v3h-8zm0 5h8v3h-8z"/></g><g id="building_-_right"><linearGradient id="SVGID_39_" gradientUnits="userSpaceOnUse" x1="148" y1="3952.5" x2="197" y2="3952.5" gradientTransform="translate(0 -3854)"><stop offset="0" style="stop-color:#2e65ca"/><stop offset="1" style="stop-color:#2e74db"/></linearGradient><path style="fill:url(#SVGID_39_)" d="m148 33 4.8-8H192l5 8v139h-49z"/><path class="st24" d="m153 25 15 41v106h12V66l12-41z"/><linearGradient id="SVGID_40_" gradientUnits="userSpaceOnUse" x1="197.003" y1="3956.5" x2="199.995" y2="3956.5" gradientTransform="translate(0 -3854)"><stop offset="0" style="stop-color:#4c3ea1"/><stop offset="1" style="stop-color:#2e3192"/></linearGradient><path style="fill:url(#SVGID_40_)" d="M197 172h3V37l-3-4z"/><path class="st28" d="M159 31h28l-1 4h-26zm2 7h24l-1 4h-22zm3 7h19l-1 4h-17zm2 7h15l-1 4h-13zm3 7h9l-1 4h-7zm2 7h6v4h-6zm0 7h6v4h-6zm0 7h6v4h-6zm0 7h6v4h-6zm0 7h6v4h-6zm0 7h6v4h-6zm0 7h6v4h-6zm0 7h6v4h-6zm0 7h6v4h-6zm0 7h6v4h-6zm0 7h6v4h-6zm0 7h6v4h-6zm0 7h6v4h-6zm0 7h6v4h-6zm0 7h6v4h-6z" id="center" style="opacity:.2"/><g id="left"><path class="st29" d="M152 132h2v2h-2zm0-5h2v2h-2zm0-5h2v2h-2z"/><path class="st28" d="M152 117h2v2h-2z"/><path class="st29" d="M152 112h2v2h-2zm0-5h2v2h-2zm0-5h2v2h-2zm0-5h2v2h-2zm0-5h2v2h-2zm0-5h2v2h-2zm5 5h2v2h-2zm0-5h2v2h-2zm5 5h2v2h-2zm0-5h2v2h-2zm-10 80h2v2h-2zm0-5h2v2h-2zm0-5h2v2h-2zm0-5h2v2h-2zm0-5h2v2h-2zm0-5h2v2h-2zm0-5h2v2h-2zm5-5h2v2h-2zm0-5h2v2h-2zm0-5h2v2h-2zm0-5h2v2h-2zm0-5h2v2h-2zm0-5h2v2h-2zm0-5h2v2h-2z"/><path class="st28" d="M157 97h2v2h-2z"/><path class="st29" d="M157 167h2v2h-2zm0-5h2v2h-2z"/><path class="st28" d="M157 157h2v2h-2z"/><path class="st29" d="M157 152h2v2h-2zm0-5h2v2h-2zm0-5h2v2h-2zm0-5h2v2h-2zm5-5h2v2h-2zm0-5h2v2h-2zm0-5h2v2h-2zm0-5h2v2h-2zm0-5h2v2h-2zm0-5h2v2h-2zm0-5h2v2h-2z"/><path class="st28" d="M162 97h2v2h-2z"/><path class="st29" d="M162 167h2v2h-2zm0-5h2v2h-2z"/><path class="st28" d="M162 157h2v2h-2z"/><path class="st29" d="M162 152h2v2h-2zm0-5h2v2h-2zm0-5h2v2h-2zm0-5h2v2h-2zm-10-60h2v2h-2zm0-5h2v2h-2zm0-5h2v2h-2zm0-5h2v2h-2zm0-5h2v2h-2zm0-5h2v2h-2zm0-5h2v2h-2zm0 35h2v2h-2zm5-5h2v2h-2zm0-5h2v2h-2zm0-5h2v2h-2zm0-5h2v2h-2zm0-5h2v2h-2zm0 25h2v2h-2zm5-5h2v2h-2zm0-5h2v2h-2zm0-5h2v2h-2zm0 15h2v2h-2z"/></g><g id="left_kopia"><path class="st29" d="M183 82h2v2h-2zm0 5h2v2h-2zm0 5h2v2h-2z"/><path class="st28" d="M183 97h2v2h-2z"/><path class="st29" d="M183 102h2v2h-2zm0 5h2v2h-2zm0 5h2v2h-2zm0 5h2v2h-2zm0 5h2v2h-2zm0 5h2v2h-2zm5-5h2v2h-2zm0 5h2v2h-2zm5-5h2v2h-2zm0 5h2v2h-2zm-10-65h2v2h-2zm0 5h2v2h-2zm0 5h2v2h-2zm0 5h2v2h-2zm5 5h2v2h-2zm0 5h2v2h-2zm0 5h2v2h-2zm0 5h2v2h-2zm0 5h2v2h-2zm0 5h2v2h-2zm0 5h2v2h-2z"/><path class="st28" d="M188 117h2v2h-2zm0-60h2v2h-2z"/><path class="st29" d="M188 62h2v2h-2zm0 5h2v2h-2zm0 5h2v2h-2zm0 5h2v2h-2zm5 5h2v2h-2zm0 5h2v2h-2zm0 5h2v2h-2zm0 5h2v2h-2zm0 5h2v2h-2zm0 5h2v2h-2zm0 5h2v2h-2z"/><path class="st28" d="M193 117h2v2h-2z"/><path class="st29" d="M193 47h2v2h-2zm0 5h2v2h-2z"/><path class="st28" d="M193 57h2v2h-2z"/><path class="st29" d="M193 62h2v2h-2zm0 5h2v2h-2zm0 5h2v2h-2zm0 5h2v2h-2zm-10 60h2v2h-2zm0 5h2v2h-2zm0 5h2v2h-2zm0 5h2v2h-2zm0 5h2v2h-2zm0 5h2v2h-2zm0 5h2v2h-2zm0-35h2v2h-2zm5 5h2v2h-2zm0 5h2v2h-2zm0 5h2v2h-2zm0 5h2v2h-2zm0 5h2v2h-2zm0-25h2v2h-2zm5 5h2v2h-2zm0 5h2v2h-2zm0 5h2v2h-2zm0 5h2v2h-2zm0 5h2v2h-2zm-5 5h2v2h-2zm5 0h2v2h-2zm-5 5h2v2h-2zm5 0h2v2h-2zm0-35h2v2h-2z"/></g></g><g id="bilding_-_left"><g id="Warstwa_6"><linearGradient id="SVGID_41_" gradientUnits="userSpaceOnUse" x1="21.953" y1="3414.8" x2="51" y2="3414.8" gradientTransform="translate(0 -3282)"><stop offset="0" style="stop-color:#4c3ea1"/><stop offset="1" style="stop-color:#2e3192"/></linearGradient><path style="fill:url(#SVGID_41_)" d="M36.5 93.5 22 109v63.1h29v-62.8z"/><path class="st31" d="M36.5 93.5 22 109v63.1h29v-62.8z"/><path class="st31" d="M45.7 171.7v-17.2c0-2.8-5.1-8.7-9.3-8.7s-9.3 5.9-9.3 8.7v17.2h18.6z"/><path class="st31" d="M41.8 171.6v-10c0-1.6-3-5.1-5.4-5.1s-5.4 3.4-5.4 5.1v10h10.8z"/><circle class="st24" cx="36.5" cy="117.9" r="9.2"/><circle cx="36.5" cy="117.9" r="7.9" style="opacity:.44;enable-background:new"/><g style="opacity:.5"><ellipse class="st34" cx="36.5" cy="117.9" rx="1.9" ry="7.5"/><ellipse class="st34" cx="36.5" cy="117.9" rx="7.5" ry="1.9"/><ellipse transform="rotate(-45.001 36.499 117.881)" class="st35" cx="36.5" cy="117.9" rx="1.9" ry="7.5"/><ellipse transform="rotate(-45.001 36.499 117.881)" class="st35" cx="36.5" cy="117.9" rx="7.5" ry="1.9"/><ellipse transform="rotate(-66.965 36.489 117.867)" class="st36" cx="36.5" cy="117.9" rx="1.9" ry="7.5"/><ellipse transform="rotate(-66.965 36.489 117.867)" class="st36" cx="36.5" cy="117.9" rx="7.5" ry="1.9"/><ellipse transform="rotate(-21.967 36.506 117.896)" class="st37" cx="36.5" cy="117.9" rx="7.5" ry="1.9"/><ellipse transform="rotate(-21.967 36.506 117.896)" class="st37" cx="36.5" cy="117.9" rx="1.9" ry="7.5"/></g><path class="st24" d="M22 131h29v1H22z"/></g><g id="Warstwa_5"><path class="st31" d="M.2 110.6h21.9v2.1H.2z"/><linearGradient id="SVGID_42_" gradientUnits="userSpaceOnUse" x1=".04" y1="3422.5" x2="22.04" y2="3422.5" gradientTransform="translate(0 -3282)"><stop offset="0" style="stop-color:#451088"/><stop offset="1" style="stop-color:#593179"/></linearGradient><path style="fill:url(#SVGID_42_)" d="M0 110h22v61H0z"/><linearGradient id="SVGID_43_" gradientUnits="userSpaceOnUse" x1="0" y1="3423.5" x2="22" y2="3423.5" gradientTransform="translate(0 -3282)"><stop offset="0" style="stop-color:#4c3ea1"/><stop offset="1" style="stop-color:#2e3192"/></linearGradient><path style="fill:url(#SVGID_43_)" d="M22 120v-9H0v61h22z"/><path class="st24" d="M0 113h2v59H0z"/><path class="st40" d="M20 110h2v62h-2z"/><path class="st24" d="M2 144h18v1H2z"/><path class="st31" d="M14 166v-12.2c0-2-3.5-6.2-3.5-6.2S7 151.7 7 153.8V166h7z"/><path class="st41" d="M10.5 147.6S7 152.1 7 153.7v.9c0-1.6 3.5-6.1 3.5-6.1s3.5 4.5 3.5 6.1v-.9c0-1.6-3.5-6.1-3.5-6.1z"/><path class="st31" d="M14 142v-15c0-2.5-3.5-7.6-3.5-7.6S7 124.5 7 127v15h7z"/><path class="st41" d="M10.5 119.4S7 124.8 7 126.7v1.1c0-1.9 3.5-7.3 3.5-7.3s3.5 5.4 3.5 7.3v-1.1c0-2-3.5-7.3-3.5-7.3z"/><linearGradient id="SVGID_44_" gradientUnits="userSpaceOnUse" x1="70" y1="3346.95" x2="87.861" y2="3346.95" gradientTransform="translate(-68 -3282)"><stop offset="0" style="stop-color:#4c3ea1"/><stop offset="1" style="stop-color:#2e3192"/></linearGradient><path d="M11 36.9c-4 12.6-9 43-9 43L2.1 93H20V80c-.1 0-4-27.6-9-43.1z" style="fill:url(#SVGID_44_)"/><path class="st43" d="M11.3 37C5.5 57 2 80.1 2 80.1l.1 13.1H20V80s-4.1-29.1-8.7-43z"/><path class="st44" d="M11.3 37C13.9 52.5 16 79 16 79l.2 13.8 3.8.4V80c-.1-.1-3-21-8.7-43z"/><linearGradient id="SVGID_45_" gradientUnits="userSpaceOnUse" x1="86.6" y1="3354.8" x2="86.6" y2="3354.8" gradientTransform="translate(-68 -3282)"><stop offset="0" style="stop-color:#3651bf"/><stop offset="1" style="stop-color:#2e5bdb"/></linearGradient><path class="st44" d="M11 36.9C9 52 7 79.1 7 79.1L7.1 93H2l-.1-13.1S6 55 11 36.9z"/><linearGradient id="SVGID_46_" gradientUnits="userSpaceOnUse" x1="74" y1="3374.15" x2="84" y2="3374.15" gradientTransform="translate(-68 -3282)"><stop offset="0" style="stop-color:#4c3ea1"/><stop offset="1" style="stop-color:#2e3192"/></linearGradient><path style="fill:url(#SVGID_46_)" d="M16 112V84.7l-5-12.4-5 12.4V112"/><linearGradient id="SVGID_47_" gradientUnits="userSpaceOnUse" x1="70" y1="3372.5" x2="75.708" y2="3372.5" gradientTransform="translate(-68 -3282)"><stop offset="0" style="stop-color:#4c3ea1"/><stop offset="1" style="stop-color:#2e3192"/></linearGradient><path style="fill:url(#SVGID_47_)" d="M7.7 80.7v-.2L4 68 2 80v33h4V85z"/><path class="st31" d="M5.6 111.7V85.5c0-1.4-1.2-2.5-1.2-2.5s-1.2 1.1-1.2 2.5v26.2"/><path class="st41" d="M4.3 83s-1.2 1.1-1.2 2.5v.8c0-1.4 1.2-2.5 1.2-2.5s1.2 1.1 1.2 2.5v-.8c.1-1.4-1.2-2.5-1.2-2.5zm.2 4.4v24.5"/><path class="st31" d="M14 112V82.8c0-1.6-2.5-2.8-2.5-2.8S9 81.2 9 82.8V112"/><path class="st41" d="M11.1 80.6s-2.4 1.2-2.4 2.7v.8c0-1.5 2.4-2.7 2.4-2.7s2.4 1.2 2.4 2.7v-.8c0-1.5-2.4-2.7-2.4-2.7z"/><linearGradient id="SVGID_48_" gradientUnits="userSpaceOnUse" x1="82.585" y1="3375.1" x2="88" y2="3375.1" gradientTransform="translate(-68 -3282)"><stop offset="0" style="stop-color:#4c3ea1"/><stop offset="1" style="stop-color:#2e3192"/></linearGradient><path style="fill:url(#SVGID_48_)" d="m18.5 73.2-.4.1-3.5 7.8 1.4 3.7V113h4V84.3z"/><path class="st31" d="M19.2 111.7V85.5c0-1.4-1.2-2.5-1.2-2.5s-1.2 1.1-1.2 2.5v26.2"/><path class="st41" d="M18 83s-1.2 1.1-1.2 2.5v.8c0-1.4 1.2-2.5 1.2-2.5s1.2 1.1 1.2 2.5v-.8c0-1.4-1.2-2.5-1.2-2.5z"/><linearGradient id="SVGID_49_" gradientUnits="userSpaceOnUse" x1="17.2" y1="3394.2" x2="17.2" y2="3394.2" gradientTransform="translate(0 -3282)"><stop offset="0" style="stop-color:#3651bf"/><stop offset="1" style="stop-color:#2e5bdb"/></linearGradient><linearGradient id="SVGID_50_" gradientUnits="userSpaceOnUse" x1=".039" y1="3394" x2="22.04" y2="3394" gradientTransform="translate(0 -3282)"><stop offset="0" style="stop-color:#2e3192"/><stop offset="1" style="stop-color:#2f0b81"/></linearGradient><path style="fill:url(#SVGID_50_)" d="M0 110h22v4H0z"/><linearGradient id="SVGID_51_" gradientUnits="userSpaceOnUse" x1="10.5" y1="3317.5" x2="11.5" y2="3317.5" gradientTransform="translate(0 -3282)"><stop offset="0" style="stop-color:#4c3ea1"/><stop offset="1" style="stop-color:#2e3192"/></linearGradient><path style="fill:none;stroke:url(#SVGID_51_);stroke-linecap:round;stroke-linejoin:round;stroke-miterlimit:10" d="M11 39v-7"/><linearGradient id="SVGID_52_" gradientUnits="userSpaceOnUse" x1="8" y1="3316.5" x2="14" y2="3316.5" gradientTransform="translate(0 -3282)"><stop offset="0" style="stop-color:#4c3ea1"/><stop offset="1" style="stop-color:#2e3192"/></linearGradient><path style="fill:none;stroke:url(#SVGID_52_);stroke-linecap:round;stroke-linejoin:round;stroke-miterlimit:10" d="M8.5 34.5h5"/></g><g id="Warstwa_5_kopia"><path class="st31" d="M51.2 110.6h21.9v2.1H51.2z"/><linearGradient id="SVGID_53_" gradientUnits="userSpaceOnUse" x1="51.04" y1="3422.5" x2="73.04" y2="3422.5" gradientTransform="translate(0 -3282)"><stop offset="0" style="stop-color:#451088"/><stop offset="1" style="stop-color:#593179"/></linearGradient><path style="fill:url(#SVGID_53_)" d="M51 110h22v61H51z"/><linearGradient id="SVGID_54_" gradientUnits="userSpaceOnUse" x1="51" y1="3423.5" x2="73" y2="3423.5" gradientTransform="translate(0 -3282)"><stop offset="0" style="stop-color:#4c3ea1"/><stop offset="1" style="stop-color:#2e3192"/></linearGradient><path style="fill:url(#SVGID_54_)" d="M73 120v-9H51v61h22z"/><path class="st24" d="M51 113h2v59h-2z"/><path class="st40" d="M71 110h2v62h-2z"/><path class="st24" d="M53 144h18v1H53z"/><path class="st31" d="M65 166v-12.2c0-2-3.5-6.2-3.5-6.2s-3.5 4.2-3.5 6.2V166h7z"/><path class="st41" d="M61.5 147.5S58 152 58 153.6v.9c0-1.6 3.5-6.1 3.5-6.1s3.5 4.5 3.5 6.1v-.9c0-1.6-3.5-6.1-3.5-6.1z"/><path class="st31" d="M65 142v-15c0-2.5-3.5-7.6-3.5-7.6S58 124.5 58 127v15h7z"/><path class="st41" d="M61.5 119.4s-3.5 5.4-3.5 7.3v1.1c0-1.9 3.5-7.3 3.5-7.3s3.5 5.4 3.5 7.3v-1.1c0-2-3.5-7.3-3.5-7.3z"/><linearGradient id="SVGID_55_" gradientUnits="userSpaceOnUse" x1="121" y1="3346.95" x2="139.06" y2="3346.95" gradientTransform="translate(-68 -3282)"><stop offset="0" style="stop-color:#4c3ea1"/><stop offset="1" style="stop-color:#2e3192"/></linearGradient><path d="M62 36.9C58 49.6 53 80 53 80l.1 13h18l.1-13.1c-.1 0-4.2-27.5-9.2-43z" style="fill:url(#SVGID_55_)"/><path class="st43" d="M62.3 36.8c-5.8 20-9.3 43.1-9.3 43.1l.1 13.1H71V80s-4.1-29.3-8.7-43.2z"/><path class="st44" d="M62.5 36.8C65 52.3 67 79.1 67 79.1L66.9 93H71V80s-2.7-24.8-8.5-43.2z"/><linearGradient id="SVGID_56_" gradientUnits="userSpaceOnUse" x1="137.6" y1="3354.8" x2="137.6" y2="3354.8" gradientTransform="translate(-68 -3282)"><stop offset="0" style="stop-color:#3651bf"/><stop offset="1" style="stop-color:#2e5bdb"/></linearGradient><path class="st44" d="M62 36.9c-2.8 15.5-4 42.3-4 42.3l.1 13.8H53l-.1-13.1S57 56 62 36.9z"/><linearGradient id="SVGID_57_" gradientUnits="userSpaceOnUse" x1="121" y1="3375.2" x2="126.708" y2="3375.2" gradientTransform="translate(-68 -3282)"><stop offset="0" style="stop-color:#4c3ea1"/><stop offset="1" style="stop-color:#2e3192"/></linearGradient><path style="fill:url(#SVGID_57_)" d="M58.7 80.7v-.2l-3.1-7.1h-.9L53 84.3V113h4V85z"/><linearGradient id="SVGID_58_" gradientUnits="userSpaceOnUse" x1="125" y1="3374.15" x2="135" y2="3374.15" gradientTransform="translate(-68 -3282)"><stop offset="0" style="stop-color:#4c3ea1"/><stop offset="1" style="stop-color:#2e3192"/></linearGradient><path style="fill:url(#SVGID_58_)" d="M67 112V84.7l-5-12.4-5 12.4V112"/><path class="st31" d="M56.6 111.7V85.5c0-1.4-1.2-2.5-1.2-2.5s-1.2 1.1-1.2 2.5v26.2"/><path class="st41" d="M55.3 83s-1.2 1.1-1.2 2.5v.8c0-1.4 1.2-2.5 1.2-2.5s1.2 1.1 1.2 2.5v-.8c.1-1.4-1.2-2.5-1.2-2.5zm.2 4.4v24.5"/><path class="st31" d="M65 113V83.8c0-1.6-2.5-2.8-2.5-2.8S60 82.2 60 83.8V113"/><path class="st41" d="M62.5 81s-2.4 1.2-2.4 2.7v.8c0-1.5 2.4-2.7 2.4-2.7s2.4 1.2 2.4 2.7v-.8c0-1.5-2.4-2.7-2.4-2.7z"/><linearGradient id="SVGID_59_" gradientUnits="userSpaceOnUse" x1="133.585" y1="3375.1" x2="139" y2="3375.1" gradientTransform="translate(-68 -3282)"><stop offset="0" style="stop-color:#4c3ea1"/><stop offset="1" style="stop-color:#2e3192"/></linearGradient><path style="fill:url(#SVGID_59_)" d="m69.5 73.2-.4.1-3.5 7.8 1.4 3.7V113h4V84.3z"/><path class="st31" d="M70 112V85.5c.2-1.4-1-2.5-1-2.5s-1.2 1.1-1 2.5V112"/><path class="st41" d="M69 83s-1.2 1.1-1.2 2.5v.8c0-1.4 1.2-2.5 1.2-2.5s1.2 1.1 1.2 2.5v-.8c0-1.4-1.2-2.5-1.2-2.5z"/><linearGradient id="SVGID_60_" gradientUnits="userSpaceOnUse" x1="68.2" y1="3394.2" x2="68.2" y2="3394.2" gradientTransform="translate(0 -3282)"><stop offset="0" style="stop-color:#3651bf"/><stop offset="1" style="stop-color:#2e5bdb"/></linearGradient><linearGradient id="SVGID_61_" gradientUnits="userSpaceOnUse" x1="51.039" y1="3393" x2="73.04" y2="3393" gradientTransform="translate(0 -3282)"><stop offset="0" style="stop-color:#2e3192"/><stop offset="1" style="stop-color:#2f0b81"/></linearGradient><path style="fill:url(#SVGID_61_)" d="M51 109h22v4H51z"/><linearGradient id="SVGID_62_" gradientUnits="userSpaceOnUse" x1="61.5" y1="3317.5" x2="62.5" y2="3317.5" gradientTransform="translate(0 -3282)"><stop offset="0" style="stop-color:#4c3ea1"/><stop offset="1" style="stop-color:#2e3192"/></linearGradient><path style="fill:none;stroke:url(#SVGID_62_);stroke-linecap:round;stroke-linejoin:round;stroke-miterlimit:10" d="M62 39v-7"/><linearGradient id="SVGID_63_" gradientUnits="userSpaceOnUse" x1="59" y1="3316.5" x2="65" y2="3316.5" gradientTransform="translate(0 -3282)"><stop offset="0" style="stop-color:#4c3ea1"/><stop offset="1" style="stop-color:#2e3192"/></linearGradient><path style="fill:none;stroke:url(#SVGID_63_);stroke-linecap:round;stroke-linejoin:round;stroke-miterlimit:10" d="M59.5 34.5h5"/></g></g></svg>