<svg xmlns="http://www.w3.org/2000/svg" version="1.1" id="Warstwa_2" x="0" y="0" viewBox="0 0 200 172" style="enable-background:new 0 0 200 172" xml:space="preserve"><style>.st1{opacity:.2}.st3{opacity:.6}.st26{fill:#373e9b}.st46{opacity:.3}.st47{opacity:.2;fill:#fff;enable-background:new}.st49{opacity:.1;fill:#fff}</style><linearGradient id="SVGID_1_" gradientUnits="userSpaceOnUse" x1="93.257" y1="161.181" x2="93.257" y2="13.359" gradientTransform="matrix(1 .00323 -.00323 1 -2.684 10.809)"><stop offset="0" style="stop-color:#1d7ee8"/><stop offset="1" style="stop-color:#2ea7db"/></linearGradient><path d="M9.9 110 .1 154.8 0 172h180l.3-62.2c.2-49-41.2-88.4-91-85.1C44.6 27.6 10 65.2 9.9 110z" style="fill:url(#SVGID_1_)"/><path class="st1" d="M177 121h-18V89h-23v18h-6V75h-19v33h-10V83H84v13h-9V56H60v40h-6V75H42v31H25V96H13L.1 149.7V172H177z"/><path class="st1" d="M0 155h200v17H0z"/><g class="st3"><linearGradient id="SVGID_00000179610196348801304380000002094716062417421472_" gradientUnits="userSpaceOnUse" x1="-1869.085" y1="114.075" x2="-1816.779" y2="114.075" gradientTransform="matrix(-1 0 0 1 -1743.123 0)"><stop offset="0" style="stop-color:#4c3ea1"/><stop offset="1" style="stop-color:#2e3192"/></linearGradient><path style="fill:url(#SVGID_00000179610196348801304380000002094716062417421472_)" d="M125.5 140.7c-.1 0-.3 0-.4-.1L73.8 88.3c-.2-.2-.2-.5 0-.7.2-.2.5-.2.7 0l51.3 52.3c.2.2.2.5 0 .7-.1.1-.2.1-.3.1z"/><linearGradient id="SVGID_00000014634496531332758270000008394247570455711901_" gradientUnits="userSpaceOnUse" x1="-1861.241" y1="114.711" x2="-1816.168" y2="114.711" gradientTransform="matrix(-1 0 0 1 -1743.123 0)"><stop offset="0" style="stop-color:#4c3ea1"/><stop offset="1" style="stop-color:#2e3192"/></linearGradient><path style="fill:url(#SVGID_00000014634496531332758270000008394247570455711901_)" d="M117.6 140.3c-.1 0-.3-.1-.4-.2L73.2 90c-.2-.2-.2-.5 0-.7.2-.2.5-.2.7 0l44.1 50.1c.2.2.2.5 0 .7-.1.1-.3.2-.4.2z"/><linearGradient id="SVGID_00000047758192144647341360000010857812469063220867_" gradientUnits="userSpaceOnUse" x1="-1852.873" y1="115.447" x2="-1815.816" y2="115.447" gradientTransform="matrix(-1 0 0 1 -1743.123 0)"><stop offset="0" style="stop-color:#4c3ea1"/><stop offset="1" style="stop-color:#2e3192"/></linearGradient><path style="fill:url(#SVGID_00000047758192144647341360000010857812469063220867_)" d="M109.2 139.6c-.2 0-.3-.1-.4-.2l-36-47.3c-.2-.2-.1-.5.1-.7.2-.2.5-.1.7.1l36.1 47.3c.2.2.1.5-.1.7-.1.1-.2.1-.4.1z"/><linearGradient id="SVGID_00000114067051080372110870000005380976458909381804_" gradientUnits="userSpaceOnUse" x1="-1846.057" y1="116.429" x2="-1815.509" y2="116.429" gradientTransform="matrix(-1 0 0 1 -1743.123 0)"><stop offset="0" style="stop-color:#4c3ea1"/><stop offset="1" style="stop-color:#2e3192"/></linearGradient><path style="fill:url(#SVGID_00000114067051080372110870000005380976458909381804_)" d="M102.4 139.6c-.2 0-.3-.1-.4-.2L72.5 94c-.2-.2-.1-.5.1-.7.2-.1.5-.1.7.1l29.5 45.4c.2.2.1.5-.1.7-.1.1-.2.1-.3.1z"/><linearGradient id="SVGID_00000036247828172487397980000007544901433881313451_" gradientUnits="userSpaceOnUse" x1="-1838.727" y1="117.287" x2="-1815.048" y2="117.287" gradientTransform="matrix(-1 0 0 1 -1743.123 0)"><stop offset="0" style="stop-color:#4c3ea1"/><stop offset="1" style="stop-color:#2e3192"/></linearGradient><path style="fill:url(#SVGID_00000036247828172487397980000007544901433881313451_)" d="M95.1 138.9c-.2 0-.4-.1-.4-.3L72 96.4c-.1-.2 0-.5.2-.7.2-.1.5 0 .7.2l22.7 42.3c.1.2 0 .5-.2.7h-.3z"/><linearGradient id="SVGID_00000119800912398283423050000006582987895097789604_" gradientUnits="userSpaceOnUse" x1="-1831.756" y1="118.328" x2="-1814.141" y2="118.328" gradientTransform="matrix(-1 0 0 1 -1743.123 0)"><stop offset="0" style="stop-color:#4c3ea1"/><stop offset="1" style="stop-color:#2e3192"/></linearGradient><path style="fill:url(#SVGID_00000119800912398283423050000006582987895097789604_)" d="M88.1 138.6c-.2 0-.4-.1-.5-.3L71.1 98.8c-.1-.3 0-.5.3-.7.3-.1.5 0 .7.3l16.6 39.5c.1.3 0 .5-.3.7h-.3z"/><linearGradient id="SVGID_00000111911800552264891550000012314924546634571437_" gradientUnits="userSpaceOnUse" x1="-1824.631" y1="119.635" x2="-1813.412" y2="119.635" gradientTransform="matrix(-1 0 0 1 -1743.123 0)"><stop offset="0" style="stop-color:#4c3ea1"/><stop offset="1" style="stop-color:#2e3192"/></linearGradient><path style="fill:url(#SVGID_00000111911800552264891550000012314924546634571437_)" d="M81 138.6c-.2 0-.4-.1-.5-.4l-10.2-36.9c-.1-.3.1-.5.3-.6.3-.1.5.1.6.3l10.2 36.9c.1.3-.1.5-.3.6 0 .1 0 .1-.1.1z"/><linearGradient id="SVGID_00000033368977091400494820000008522473805503141507_" gradientUnits="userSpaceOnUse" x1="14.283" y1="114.075" x2="66.589" y2="114.075"><stop offset="0" style="stop-color:#4c3ea1"/><stop offset="1" style="stop-color:#2e3192"/></linearGradient><path style="fill:url(#SVGID_00000033368977091400494820000008522473805503141507_)" d="M14.8 140.7c-.1 0-.3 0-.4-.1-.2-.2-.2-.5 0-.7l51.3-52.3c.2-.2.5-.2.7 0 .2.2.2.5 0 .7l-51.3 52.3c-.1.1-.2.1-.3.1z"/><linearGradient id="SVGID_00000078022355444810837430000004029772174887096713_" gradientUnits="userSpaceOnUse" x1="22.128" y1="114.711" x2="67.2" y2="114.711"><stop offset="0" style="stop-color:#4c3ea1"/><stop offset="1" style="stop-color:#2e3192"/></linearGradient><path style="fill:url(#SVGID_00000078022355444810837430000004029772174887096713_)" d="M22.6 140.3c-.1 0-.2 0-.3-.1-.2-.2-.2-.5 0-.7l44.1-50.1c.2-.2.5-.2.7 0 .2.2.2.5 0 .7l-44.1 50c-.1.1-.2.2-.4.2z"/><linearGradient id="SVGID_00000163031766315821648690000016108024211171445423_" gradientUnits="userSpaceOnUse" x1="30.496" y1="115.447" x2="67.552" y2="115.447"><stop offset="0" style="stop-color:#4c3ea1"/><stop offset="1" style="stop-color:#2e3192"/></linearGradient><path style="fill:url(#SVGID_00000163031766315821648690000016108024211171445423_)" d="M31 139.6c-.1 0-.2 0-.3-.1-.2-.2-.3-.5-.1-.7l36.1-47.3c.2-.2.5-.3.7-.1.2.2.3.5.1.7l-36.1 47.3c-.1.1-.3.2-.4.2z"/><linearGradient id="SVGID_00000120548420522644414390000008968686636807664038_" gradientUnits="userSpaceOnUse" x1="37.311" y1="116.429" x2="67.859" y2="116.429"><stop offset="0" style="stop-color:#4c3ea1"/><stop offset="1" style="stop-color:#2e3192"/></linearGradient><path style="fill:url(#SVGID_00000120548420522644414390000008968686636807664038_)" d="M37.8 139.6c-.1 0-.2 0-.3-.1-.2-.2-.3-.5-.1-.7l29.5-45.4c.1-.2.5-.3.7-.1.2.2.3.5.1.7l-29.5 45.4c-.1.1-.2.2-.4.2z"/><linearGradient id="SVGID_00000018215148815174748940000007973196587122935943_" gradientUnits="userSpaceOnUse" x1="44.477" y1="117.396" x2="68.32" y2="117.396"><stop offset="0" style="stop-color:#4c3ea1"/><stop offset="1" style="stop-color:#2e3192"/></linearGradient><path style="fill:url(#SVGID_00000018215148815174748940000007973196587122935943_)" d="M45 139.2c-.1 0-.2 0-.2-.1-.2-.1-.3-.4-.2-.7l22.8-42.5c.1-.2.4-.3.7-.2.2.1.3.4.2.7l-22.8 42.5c-.2.2-.3.3-.5.3z"/><linearGradient id="SVGID_00000150811380803964839080000015976394001688005820_" gradientUnits="userSpaceOnUse" x1="51.612" y1="118.328" x2="69.228" y2="118.328"><stop offset="0" style="stop-color:#4c3ea1"/><stop offset="1" style="stop-color:#2e3192"/></linearGradient><path style="fill:url(#SVGID_00000150811380803964839080000015976394001688005820_)" d="M52.1 138.6h-.2c-.3-.1-.4-.4-.3-.7l16.6-39.5c.1-.3.4-.4.7-.3.3.1.4.4.3.7l-16.6 39.5c-.1.2-.3.3-.5.3z"/><linearGradient id="SVGID_00000028311636165091800250000017187605143366582955_" gradientUnits="userSpaceOnUse" x1="58.738" y1="119.635" x2="69.957" y2="119.635"><stop offset="0" style="stop-color:#4c3ea1"/><stop offset="1" style="stop-color:#2e3192"/></linearGradient><path style="fill:url(#SVGID_00000028311636165091800250000017187605143366582955_)" d="M59.2 138.6h-.1c-.3-.1-.4-.3-.3-.6L69 101.1c.1-.3.4-.4.6-.3.3.1.4.3.3.6l-10.2 36.9c0 .1-.2.3-.5.3z"/></g><linearGradient id="SVGID_00000083809952016892662140000006120654268813675650_" gradientUnits="userSpaceOnUse" x1="70.261" y1="146" x2="70.261" y2="138"><stop offset="0" style="stop-color:#2e3192"/><stop offset="1" style="stop-color:#2f0b81"/></linearGradient><path style="fill:url(#SVGID_00000083809952016892662140000006120654268813675650_)" d="M129.3 143.7c-6.6-.5-14.1-1-22.4-1.3V140c8.2.3 15.8.8 22.4 1.3v-1.1c-15.5-1.3-36.2-2.2-58.8-2.2-23 0-43.8 1-59.3 2.3v1.1c7.2-.6 15.6-1.1 24.7-1.4v2.4c-9.2.4-17.5.8-24.7 1.4v2.2c15.6-1.3 36.5-2.1 59.4-2.1 22.6 0 43.2.8 58.7 2v-2.2zm-85.1-1.6c-2.5.1-5 .2-7.5.2v-2.4c2.4-.1 4.9-.2 7.5-.2v2.4zm7.8-.2c-2.5.1-5 .1-7.5.2v-2.4c2.4-.1 4.9-.1 7.5-.2v2.4zm7.5.1h-7.2v-2.4h7.2v2.4zm8 0h-7.2v-2.4h7.2v2.4zm8 0h-7.2v-2.4h7.2v2.4zm8 0h-7.2v-2.4h7.2v2.4zm7.6 0h-7.2v-2.4h7.2v2.4zm8 .1c-2.4-.1-4.9-.1-7.5-.2v-2.4c2.5.1 5 .1 7.5.2v2.4zm7.9.3c-2.4-.1-4.9-.2-7.5-.3v-2.4l7.5.3v2.4z"/><linearGradient id="SVGID_00000145039042281376071370000002781109343878398132_" gradientUnits="userSpaceOnUse" x1="70" y1="152" x2="70" y2="79"><stop offset="0" style="stop-color:#2e3192"/><stop offset="1" style="stop-color:#2f0b81"/></linearGradient><path style="fill:url(#SVGID_00000145039042281376071370000002781109343878398132_)" d="M69 79h2v73h-2z"/><linearGradient id="SVGID_00000083054563798847645590000017141367141248715690_" gradientUnits="userSpaceOnUse" x1="5395.585" y1="-4789.221" x2="5395.585" y2="-4797.221" gradientTransform="rotate(-90 5176.403 313.182)"><stop offset="0" style="stop-color:#2e3192"/><stop offset="1" style="stop-color:#2f0b81"/></linearGradient><path style="fill:url(#SVGID_00000083054563798847645590000017141367141248715690_)" d="m74 87-1.2 14h-5.6L66 87z"/><linearGradient id="SVGID_00000068677453505753356810000004322777023932798906_" gradientUnits="userSpaceOnUse" x1="4787.006" y1="-4789.221" x2="4787.006" y2="-4797.221" gradientTransform="matrix(0 1 1 0 4863.221 -4636.506)"><stop offset="0" style="stop-color:#2e3192"/><stop offset="1" style="stop-color:#2f0b81"/></linearGradient><path style="fill:url(#SVGID_00000068677453505753356810000004322777023932798906_)" d="m74 155-1.2-9h-5.6l-1.2 9z"/><linearGradient id="SVGID_00000165946600367908833380000013025843326332283572_" gradientUnits="userSpaceOnUse" x1="133.5" y1="46.182" x2="133.5" y2="41.278"><stop offset="0" style="stop-color:#4c3ea1"/><stop offset="1" style="stop-color:#2e3192"/></linearGradient><path style="fill:url(#SVGID_00000165946600367908833380000013025843326332283572_)" d="M138 45.3h-9v-2.6s1.6-.5 4.6-.4c3 0 4.4.4 4.4.4v2.6z"/><linearGradient id="SVGID_00000131336534180144057670000008418650301230264244_" gradientUnits="userSpaceOnUse" x1="133.511" y1="45.571" x2="133.489" y2="55.492"><stop offset="0" style="stop-color:#2e59bf"/><stop offset="1" style="stop-color:#593192"/></linearGradient><path style="fill:url(#SVGID_00000131336534180144057670000008418650301230264244_)" d="M142 46.1c0-.6-3.8-1-8.5-1s-8.5.5-8.5 1V55h17v-8.9z"/><linearGradient id="SVGID_00000008841995293850535820000018392190504075586432_" gradientUnits="userSpaceOnUse" x1="133.557" y1="53.857" x2="133.547" y2="58.495"><stop offset="0" style="stop-color:#593192"/><stop offset="1" style="stop-color:#2e59bf"/></linearGradient><path style="fill:url(#SVGID_00000008841995293850535820000018392190504075586432_)" d="M142.1 54.7c0-.6-3.8-1-8.5-1s-8.5.5-8.5 1c0 .4 2.1.6 4.9.8v2.8h7v-2.8c2.9-.2 5.1-.4 5.1-.8z"/><linearGradient id="SVGID_00000036950960858601729940000016734341774244202385_" gradientUnits="userSpaceOnUse" x1="133.512" y1="57.878" x2="133.488" y2="68.523"><stop offset="0" style="stop-color:#2e59bf"/><stop offset="1" style="stop-color:#593192"/></linearGradient><path style="fill:url(#SVGID_00000036950960858601729940000016734341774244202385_)" d="M140 58.4c0-.6-2.9-1-6.5-1s-6.5.5-6.5 1V68h13v-9.6z"/><path class="st26" d="M140 68.1c0-.6-3-1.1-6.4-1.1-3.4 0-6.6.5-6.6 1.1 0 .3 1.3.6 2.9.8L128 155h11l-1.8-86c1.3-.2 2.8-.6 2.8-.9z"/><linearGradient id="SVGID_00000168795921518125773450000016547993040891694250_" gradientUnits="userSpaceOnUse" x1="133.564" y1="43.049" x2="133.564" y2="40.718"><stop offset="0" style="stop-color:#4c3ea1"/><stop offset="1" style="stop-color:#2e3192"/></linearGradient><path style="fill:url(#SVGID_00000168795921518125773450000016547993040891694250_)" d="M137.9 41.1c-.1 0-.2.1-.2.2v.6c-.2 0-.4-.1-.8-.2v-.5c0-.1-.1-.2-.2-.2s-.2.1-.2.2v.5c-.2 0-.4-.1-.6-.1v-.5c0-.1-.1-.2-.2-.2s-.2.1-.2.2v.5h-.6V41c0-.1-.1-.2-.2-.2s-.2.1-.2.2v.5h-.6v-.6c0-.1-.1-.2-.2-.2s-.2.1-.2.2v.6h-.6V41c0-.1-.1-.2-.2-.2s-.2.1-.2.2v.5h-.6V41c0-.1-.1-.2-.2-.2s-.2.1-.2.2v.5c-.2 0-.5.1-.6.1v-.5c0-.1-.1-.2-.2-.2s-.2.1-.2.2v.5c-.4.1-.7.1-.9.2v-.6c0-.1-.1-.2-.2-.2s-.2.1-.2.2v1.5c0 .1 0 .1.1.2h.2s1.6-.5 4.5-.5h.1c2.8 0 4.1.5 4.1.5h.2c.1 0 .1-.1.1-.2v-1.5c-.4 0-.4-.1-.6-.1zm-1.4.8v.4c-.2 0-.4-.1-.6-.1v-.4c.2 0 .4.1.6.1zm-1-.1v.4h-.6v-.4c.2-.1.4 0 .6 0zm-2.1-.1v.4h-.6v-.4h.6zm-1.1.1v.4h-.6v-.4h.6zm-1 0v.4c-.2 0-.4.1-.6.1v-.4c.1 0 .4 0 .6-.1zm-1.9.4c.2 0 .5-.1.9-.2v.4c-.4.1-.7.1-.9.2v-.4zm4.4-.1v-.4h.6v.4h-.6zm3.1.3V42c.4.1.7.1.8.2v.4c-.1-.1-.4-.1-.8-.2z"/><g style="opacity:.1"><path d="M142.1 48.7c0-.6-3.8-1-8.6-1-4.7 0-8.6.5-8.6 1m17.2 2.7c0-.6-3.8-1-8.6-1-4.7 0-8.6.5-8.6 1m14.8 9.1c0-.6-2.8-1-6.2-1-3.4 0-6.2.5-6.2 1m12.4 2.5c0-.6-2.8-1-6.2-1-3.4 0-6.2.5-6.2 1m12.4 2.5c0-.6-2.8-1-6.2-1-3.4 0-6.2.5-6.2 1m12.4 2.6c0-.6-2.8-1-6.2-1-3.4 0-6.2.5-6.2 1" style="fill:none;stroke:#fff;stroke-linecap:round;stroke-miterlimit:10"/></g><linearGradient id="SVGID_00000082333250408906620330000016228739686811594423_" gradientUnits="userSpaceOnUse" x1="132.093" y1="33.551" x2="135.054" y2="33.551"><stop offset="0" style="stop-color:#4c3ea1"/><stop offset="1" style="stop-color:#2e3192"/></linearGradient><path style="opacity:.5;fill:url(#SVGID_00000082333250408906620330000016228739686811594423_)" d="M135.1 33.4s-.1 0 0 0l-1.2-.9 1.2-.8v-.2l-1.2-1 1.2-1v-.2l-1.2-.9 1.2-.9v-.1s0-.1-.1-.1l-1.2-.7 1.2-.7.1-.1c0-.1-.1-.2-.2-.2h-1.1v-.8c0-.1-.1-.1-.1-.1h-.1c-.1 0-.1.1-.1.1v.8h-1.1c-.1 0-.2.1-.2.2 0 0 0 .1.1.1l1.1.7-1.2.7-.1.1v.1l1.2.9-1.2.9v.2l1.2 1-1.2 1v.2l1.2.8-1.2.9v.2l1.2 1-1.2 1v.2l1.2 1.1-1.2 1.1v.2l1.2 1-1.2 1v.2l1.2.9-1.2.9v.2h.2l1-.8v.9c0 .1.1.1.1.1h.1c.1 0 .1-.1.1-.1v-1l1.1.9h.2v-.2l-1.2-.9 1.2-.9v-.2l-1.2-1 1.2-1V38l-1.2-1.1 1.2-1.1v-.2l-1.2-1 1.4-1.2c-.1.1 0 .1 0 0zm-1.4-1.2v-1.4l.9.8-.9.6zm0-2v-1.5l.9.7-.9.8zm0-2.1v-1.3l.9.6-.9.7zm.7-2.2-.6.4v-.4h.6zm-1 .4-.6-.4h.6v.4zm0 .6v1.2l-.9-.7.9-.5zm0 1.8v1.4l-.9-.7.9-.7zm0 2.1v1.4l-.9-.6.9-.8zm0 2v1.4l-.9-.7.9-.7zm0 2v1.5l-.9-.8.9-.7zm0 2.3v1.6l-.9-.8.9-.8zm0 2.2v1.5l-.9-.7.9-.8zm.3 1.5v-1.5l.9.8-.9.7zm0-2.1v-1.6l.9.8-.9.8zm0-2.3v-1.6l.9.8-.9.8zm0-2.2v-1.4l.9.7-.9.7z"/><linearGradient id="SVGID_00000034779393826882449830000001671503891164168125_" gradientUnits="userSpaceOnUse" x1=".068" y1="111.514" x2="32" y2="111.514"><stop offset="0" style="stop-color:#2e59bf"/><stop offset="1" style="stop-color:#593192"/></linearGradient><path style="fill:url(#SVGID_00000034779393826882449830000001671503891164168125_)" d="M.1 165H32V63.9s-2.3-6.1-16-5.9-16 5.9-16 5.9V165z"/><linearGradient id="SVGID_00000066516625234487967840000008686511123417524112_" gradientUnits="userSpaceOnUse" x1="3514.252" y1="62.657" x2="3546.22" y2="62.657" gradientTransform="matrix(-1 0 0 1 3546.22 0)"><stop offset="0" style="stop-color:#2e60e8"/><stop offset="1" style="stop-color:#2e74db"/></linearGradient><path style="opacity:.3;fill:url(#SVGID_00000066516625234487967840000008686511123417524112_)" d="M0 67.3s3.9-4.7 16-4.8c11.5-.1 16 4.8 16 4.8v-3.4s-2.3-6.1-16-5.9-16 5.9-16 5.9v3.4z"/><linearGradient id="SVGID_00000160164560793013211020000010410054722203063730_" gradientUnits="userSpaceOnUse" x1="3514.252" y1="69.958" x2="3546.22" y2="69.958" gradientTransform="matrix(-1 0 0 1 3546.22 0)"><stop offset="0" style="stop-color:#2e60e8"/><stop offset="1" style="stop-color:#2e74db"/></linearGradient><path style="opacity:.2;fill:url(#SVGID_00000160164560793013211020000010410054722203063730_);enable-background:new" d="M0 74.4s3.9-4.7 16-4.8c11.5-.1 16 4.8 16 4.8V71s-2.3-5.7-16-5.4C2.3 65.8 0 71 0 71v3.4z"/><linearGradient id="SVGID_00000083793406328523594990000008267478225571693974_" gradientUnits="userSpaceOnUse" x1="3514.252" y1="77.064" x2="3546.22" y2="77.064" gradientTransform="matrix(-1 0 0 1 3546.22 0)"><stop offset="0" style="stop-color:#2e60e8"/><stop offset="1" style="stop-color:#2e74db"/></linearGradient><path style="opacity:.2;fill:url(#SVGID_00000083793406328523594990000008267478225571693974_);enable-background:new" d="M0 81.2s3.9-4 16-4.2c11.5-.1 16 4.2 16 4.2v-3.4s-2.3-5-16-4.8c-13.7.2-16 4.8-16 4.8v3.4z"/><linearGradient id="SVGID_00000051350560356890064390000007616212456410380217_" gradientUnits="userSpaceOnUse" x1="3514.252" y1="84.169" x2="3546.22" y2="84.169" gradientTransform="matrix(-1 0 0 1 3546.22 0)"><stop offset="0" style="stop-color:#2e60e8"/><stop offset="1" style="stop-color:#2e74db"/></linearGradient><path style="opacity:.2;fill:url(#SVGID_00000051350560356890064390000007616212456410380217_);enable-background:new" d="M0 88.1s3.9-3.6 16-3.7c11.5-.1 16 3.7 16 3.7v-3.4s-2.3-4.7-16-4.5c-13.7.3-16 4.5-16 4.5v3.4z"/><linearGradient id="SVGID_00000053532605136415760370000005541194478400014513_" gradientUnits="userSpaceOnUse" x1="3514.252" y1="91.356" x2="3546.22" y2="91.356" gradientTransform="matrix(-1 0 0 1 3546.22 0)"><stop offset="0" style="stop-color:#2e60e8"/><stop offset="1" style="stop-color:#2e74db"/></linearGradient><path style="opacity:.2;fill:url(#SVGID_00000053532605136415760370000005541194478400014513_);enable-background:new" d="M0 95.2s3.9-3.9 16-4c11.5-.1 16 4 16 4v-3.4s-2.1-4.3-16-4.3c-13.7 0-16 4.3-16 4.3v3.4z"/><linearGradient id="SVGID_00000095311862331888638320000009256421723595377048_" gradientUnits="userSpaceOnUse" x1="3514.252" y1="98.284" x2="3546.22" y2="98.284" gradientTransform="matrix(-1 0 0 1 3546.22 0)"><stop offset="0" style="stop-color:#2e60e8"/><stop offset="1" style="stop-color:#2e74db"/></linearGradient><path style="opacity:.2;fill:url(#SVGID_00000095311862331888638320000009256421723595377048_);enable-background:new" d="M0 102.2s3.9-3.6 16-3.7c11.5-.1 16 3.7 16 3.7v-3.4s-2.8-4.3-16-4.3c-13.7 0-16 4.3-16 4.3v3.4z"/><linearGradient id="SVGID_00000037655785087007451370000007263049759445100434_" gradientUnits="userSpaceOnUse" x1="3514.252" y1="105.567" x2="3546.22" y2="105.567" gradientTransform="matrix(-1 0 0 1 3546.22 0)"><stop offset="0" style="stop-color:#2e60e8"/><stop offset="1" style="stop-color:#2e74db"/></linearGradient><path style="opacity:.2;fill:url(#SVGID_00000037655785087007451370000007263049759445100434_);enable-background:new" d="M0 109.3s3.9-3.6 16-3.7c11.5-.1 16 3.7 16 3.7v-3.4s-2.8-4-16-4c-13.7 0-16 4-16 4v3.4z"/><linearGradient id="SVGID_00000096770676855062704760000016999443529224258957_" gradientUnits="userSpaceOnUse" x1="3514.252" y1="112.636" x2="3546.22" y2="112.636" gradientTransform="matrix(-1 0 0 1 3546.22 0)"><stop offset="0" style="stop-color:#2e60e8"/><stop offset="1" style="stop-color:#2e74db"/></linearGradient><path style="opacity:.2;fill:url(#SVGID_00000096770676855062704760000016999443529224258957_);enable-background:new" d="M0 116s3.9-2.5 16-2.6c11.5-.1 16 2.6 16 2.6v-3.4s-2.8-3.4-16-3.4c-13.7 0-16 3.4-16 3.4v3.4z"/><linearGradient id="SVGID_00000011712646044077184600000014270568506013662622_" gradientUnits="userSpaceOnUse" x1="3514.252" y1="119.861" x2="3546.22" y2="119.861" gradientTransform="matrix(-1 0 0 1 3546.22 0)"><stop offset="0" style="stop-color:#2e60e8"/><stop offset="1" style="stop-color:#2e74db"/></linearGradient><path style="opacity:.2;fill:url(#SVGID_00000011712646044077184600000014270568506013662622_);enable-background:new" d="M0 123.1s3.9-2.3 16-2.5c11.5-.1 16 2.5 16 2.5v-3.4s-2.8-3.1-16-3.1c-13.7 0-16 3.1-16 3.1v3.4z"/><linearGradient id="SVGID_00000034061682233518694470000000832603204430059444_" gradientUnits="userSpaceOnUse" x1="3514.252" y1="126.918" x2="3546.22" y2="126.918" gradientTransform="matrix(-1 0 0 1 3546.22 0)"><stop offset="0" style="stop-color:#2e60e8"/><stop offset="1" style="stop-color:#2e74db"/></linearGradient><path style="opacity:.2;fill:url(#SVGID_00000034061682233518694470000000832603204430059444_);enable-background:new" d="M0 130.1s3.9-1.9 16-2c11.5-.1 16 2 16 2v-3.4s-2.8-2.9-16-2.9c-13.7 0-16 2.9-16 2.9v3.4z"/><linearGradient id="SVGID_00000066476497641925651970000007195026938781259196_" gradientUnits="userSpaceOnUse" x1="3514.252" y1="134.445" x2="3546.22" y2="134.445" gradientTransform="matrix(-1 0 0 1 3546.22 0)"><stop offset="0" style="stop-color:#2e60e8"/><stop offset="1" style="stop-color:#2e74db"/></linearGradient><path style="opacity:.2;fill:url(#SVGID_00000066476497641925651970000007195026938781259196_);enable-background:new" d="M0 137.5s3.9-1.9 16-2c11.5-.1 16 2 16 2v-3.4s-2.8-2.8-16-2.8c-13.7 0-16 2.8-16 2.8v3.4z"/><linearGradient id="SVGID_00000103964487546577844950000006397644468040550026_" gradientUnits="userSpaceOnUse" x1="3514.252" y1="142.181" x2="3546.22" y2="142.181" gradientTransform="matrix(-1 0 0 1 3546.22 0)"><stop offset="0" style="stop-color:#2e60e8"/><stop offset="1" style="stop-color:#2e74db"/></linearGradient><path style="opacity:.2;fill:url(#SVGID_00000103964487546577844950000006397644468040550026_);enable-background:new" d="M0 145.1s3.9-1.6 16-1.7c11.5-.1 16 1.7 16 1.7v-3.4s-2.8-2.5-16-2.5c-13.7 0-16 2.5-16 2.5v3.4z"/><linearGradient id="SVGID_00000128447705191688170640000006667215730839827643_" gradientUnits="userSpaceOnUse" x1="3514.252" y1="149.454" x2="3546.22" y2="149.454" gradientTransform="matrix(-1 0 0 1 3546.22 0)"><stop offset="0" style="stop-color:#2e60e8"/><stop offset="1" style="stop-color:#2e74db"/></linearGradient><path style="opacity:.2;fill:url(#SVGID_00000128447705191688170640000006667215730839827643_);enable-background:new" d="M0 152.2s3.9-1.2 16-1.4c11.5-.1 16 1.4 16 1.4v-3.4s-2.8-2.2-16-2.2c-13.7 0-16 2.2-16 2.2v3.4z"/><linearGradient id="SVGID_00000050649814832209884720000007861156355947921564_" gradientUnits="userSpaceOnUse" x1="3514.252" y1="156.542" x2="3546.22" y2="156.542" gradientTransform="matrix(-1 0 0 1 3546.22 0)"><stop offset="0" style="stop-color:#2e60e8"/><stop offset="1" style="stop-color:#2e74db"/></linearGradient><path style="opacity:.2;fill:url(#SVGID_00000050649814832209884720000007861156355947921564_);enable-background:new" d="M0 159.1s3.9-1.1 16-1.2c11.5-.1 16 1.2 16 1.2v-3.6s-2.8-1.5-16-1.5c-13.7 0-16 1.5-16 1.5v3.6z"/><g class="st3"><path class="st46" d="M.1 67.3s3.9-4.7 16-4.8c11.5-.1 16 4.8 16 4.8v-3.4s-2.3-6.1-16-5.9-16 5.9-16 5.9v3.4z"/><path class="st47" d="M.1 74.4s3.9-4.7 16-4.8c11.5-.1 16 4.8 16 4.8V71s-2.3-5.7-16-5.4C2.4 65.8.1 71 .1 71v3.4z"/><path class="st47" d="M.1 81.2s3.9-4 16-4.2c11.5-.1 16 4.2 16 4.2v-3.4s-2.3-5-16-4.8c-13.7.2-16 4.8-16 4.8v3.4z"/><path class="st47" d="M.1 88.1s3.9-3.6 16-3.7c11.5-.1 16 3.7 16 3.7v-3.4s-2.3-4.7-16-4.5c-13.7.2-16 4.5-16 4.5v3.4z"/><path class="st47" d="M.1 95.2s3.9-3.9 16-4c11.5-.1 16 4 16 4v-3.4s-2.1-4.3-16-4.3c-13.7 0-16 4.3-16 4.3v3.4z"/><path class="st47" d="M.1 102.2s3.9-3.6 16-3.7c11.5-.1 16 3.7 16 3.7v-3.4s-2.8-4.3-16-4.3c-13.7 0-16 4.3-16 4.3v3.4z"/><path class="st47" d="M.1 109.3s3.9-3.6 16-3.7c11.5-.1 16 3.7 16 3.7v-3.4s-2.8-4-16-4c-13.7 0-16 4-16 4v3.4z"/><path class="st47" d="M.1 116s3.9-2.5 16-2.6c11.5-.1 16 2.6 16 2.6v-3.4s-2.8-3.4-16-3.4c-13.7 0-16 3.4-16 3.4v3.4zm0 7.1s3.9-2.3 16-2.5c11.5-.1 16 2.5 16 2.5v-3.4s-2.8-3.1-16-3.1c-13.7 0-16 3.1-16 3.1v3.4zm0 7s3.9-1.9 16-2c11.5-.1 16 2 16 2v-3.4s-2.8-2.9-16-2.9c-13.7 0-16 2.9-16 2.9v3.4zm0 7.4s3.9-1.9 16-2c11.5-.1 16 2 16 2v-3.4s-2.8-2.8-16-2.8c-13.7 0-16 2.8-16 2.8v3.4zm0 7.6s3.9-1.6 16-1.7c11.5-.1 16 1.7 16 1.7v-3.4s-2.8-2.5-16-2.5c-13.7 0-16 2.5-16 2.5v3.4zm0 7.1s3.9-1.2 16-1.4c11.5-.1 16 1.4 16 1.4v-3.4s-2.8-2.2-16-2.2c-13.7 0-16 2.2-16 2.2v3.4zm0 6.9s3.9-1.1 16-1.2c11.5-.1 16 1.2 16 1.2v-3.6s-2.8-1.5-16-1.5c-13.7 0-16 1.5-16 1.5v3.6z"/></g><path class="st26" d="M57 115v57h3v-54.3z"/><linearGradient id="SVGID_00000118369136467210206230000016145167418531056792_" gradientUnits="userSpaceOnUse" x1="21" y1="143.5" x2="57" y2="143.5"><stop offset="0" style="stop-color:#2e60e8"/><stop offset="1" style="stop-color:#2e74db"/></linearGradient><path style="fill:url(#SVGID_00000118369136467210206230000016145167418531056792_)" d="M21 115h36v57H21z"/><path class="st1" d="M21 115h36v3H21z"/><path class="st49" d="M26 122h7v3h-7zm10 0h7v3h-7zm10 0h7v3h-7zm-20 5h7v3h-7zm10 0h7v3h-7zm10 0h7v3h-7zm-20 5h7v3h-7zm10 0h7v3h-7zm10 0h7v3h-7zm-20 5h7v3h-7zm10 0h7v3h-7zm10 0h7v3h-7zm-20 5h7v3h-7zm10 0h7v3h-7zm10 0h7v3h-7zm-20 5h7v3h-7zm10 0h7v3h-7zm10 0h7v3h-7zm-20 5h7v3h-7zm10 0h7v3h-7zm10 0h7v3h-7zm-20 5h7v3h-7zm10 0h7v3h-7zm10 0h7v3h-7zm-20 5h7v3h-7zm10 0h7v3h-7zm10 0h7v3h-7z"/><linearGradient id="SVGID_00000060021432203548091690000005632970839447466909_" gradientUnits="userSpaceOnUse" x1="4610.502" y1="144.5" x2="4550.886" y2="144.5" gradientTransform="translate(-4430.771)"><stop offset="0" style="stop-color:#2e59bf"/><stop offset="1" style="stop-color:#593192"/></linearGradient><path style="fill:url(#SVGID_00000060021432203548091690000005632970839447466909_)" d="M134 124h42v41h-42z"/><path class="st46" d="M134 124h42v4h-42z"/><path transform="rotate(-180 145.5 133.5)" class="st49" d="M138 132h15v3h-15z"/><path transform="rotate(-180 145.5 139.5)" class="st49" d="M138 138h15v3h-15z"/><path transform="rotate(-180 145.5 145.5)" class="st49" d="M138 144h15v3h-15z"/><path transform="rotate(-180 145.5 151.5)" class="st49" d="M138 150h15v3h-15z"/><path transform="rotate(-180 145.5 157.5)" class="st49" d="M138 156h15v3h-15z"/><path transform="rotate(-180 164.5 133.5)" class="st49" d="M157 132h15v3h-15z"/><path transform="rotate(-180 164.5 139.5)" class="st49" d="M157 138h15v3h-15z"/><path transform="rotate(-180 164.5 145.5)" class="st49" d="M157 144h15v3h-15z"/><path transform="rotate(-180 164.5 151.5)" class="st49" d="M157 150h15v3h-15z"/><path transform="rotate(-180 164.5 157.5)" class="st49" d="M157 156h15v3h-15z"/><path transform="rotate(-180 187.5 69.5)" class="st46" d="M187 67h1v5h-1z"/><path class="st46" d="M175 52v15h-1v5h2V52z"/><linearGradient id="SVGID_00000083052439685135882190000000629852944081379772_" gradientUnits="userSpaceOnUse" x1="8887.085" y1="121.5" x2="8917.085" y2="121.5" gradientTransform="matrix(-1 0 0 1 9083.085 0)"><stop offset=".444" style="stop-color:#2e60e8"/><stop offset=".755" style="stop-color:#2e62e7"/><stop offset=".904" style="stop-color:#2e6ae2"/><stop offset="1" style="stop-color:#2e74db"/></linearGradient><path style="fill:url(#SVGID_00000083052439685135882190000000629852944081379772_)" d="M166 71h30v101h-30z"/><path transform="rotate(-180 181 73)" class="st46" d="M166 71h30v4h-30z"/><linearGradient id="SVGID_00000086668737145908949290000015859532200378760599_" gradientUnits="userSpaceOnUse" x1="8883.085" y1="121.5" x2="8887.085" y2="121.5" gradientTransform="matrix(-1 0 0 1 9083.085 0)"><stop offset="0" style="stop-color:#2e59bf"/><stop offset="1" style="stop-color:#593192"/></linearGradient><path style="fill:url(#SVGID_00000086668737145908949290000015859532200378760599_)" d="M200 75.4V172h-4V71z"/><path style="opacity:.15" d="M200 75.4V172h-4V71z"/><path class="st49" d="M170 90h22v3h-22zm0 6h22v3h-22zm0 6h22v3h-22zm0-24h22v3h-22zm0 6h22v3h-22zm0 36h22v3h-22zm0 6h22v3h-22zm0 6h22v3h-22zm0-24h22v3h-22zm0 6h22v3h-22zm0 36h22v3h-22zm0 6h22v3h-22zm0 6h22v3h-22zm0-24h22v3h-22zm0 6h22v3h-22z"/><path class="st46" d="M96.5 69.4V55.5h1v13.9h.5v4.4h-2v-4.4zm10 0v-9.9h1v9.9h.5v4.4h-2v-4.4z"/><linearGradient id="SVGID_00000162324830717099577930000007209175405242239380_" gradientUnits="userSpaceOnUse" x1="83" y1="123" x2="120" y2="123"><stop offset="0" style="stop-color:#451088"/><stop offset="1" style="stop-color:#593179"/></linearGradient><path style="fill:url(#SVGID_00000162324830717099577930000007209175405242239380_)" d="M88 83h-4.9l-.1 89h37V83h-5v-9H88z"/><path class="st46" d="M88 74h27v9H88z"/><path class="st49" d="M86 172V83h-3v89z"/><path transform="rotate(90 89.5 127.5)" class="st49" d="M45 126h89v3H45z"/><path transform="rotate(90 94.5 127.5)" class="st49" d="M50 126h89v3H50z"/><path transform="rotate(90 99.5 127.5)" class="st49" d="M55 126h89v3H55z"/><path transform="rotate(90 104.5 127.5)" class="st49" d="M60 126h89v3H60z"/><path transform="rotate(90 109.5 127.5)" class="st49" d="M65 126h89v3H65z"/><path transform="rotate(90 114.5 127.5)" class="st49" d="M70 126h89v3H70z"/><path transform="rotate(90 119 127.5)" class="st49" d="M74.5 126.5h89v2h-89z"/></svg>