<svg xmlns="http://www.w3.org/2000/svg" xmlns:xlink="http://www.w3.org/1999/xlink" viewBox="0 0 200 172" xml:space="preserve"><linearGradient id="a" gradientUnits="userSpaceOnUse" x1="101.271" y1="172" x2="101.271" y2="24.766"><stop offset="0" style="stop-color:#1d7ee8"/><stop offset="1" style="stop-color:#2ea7db"/></linearGradient><path fill="url(#a)" d="M15.2 108.9V172h172.1v-63.8c0-48.1-41.9-86.6-92.2-83.2-45.1 3-79.9 39.9-79.9 83.9z"/><path opacity=".2" d="M35 93v6h6V75l5-5h16l4 5v31h8V67l14.3-12.9L101 67v38h8V90h18l9-9V68h22v-8h4v8h1v12h15l5 5.1V172H17V93z"/><path opacity=".2" d="M0 158h200v14H0z"/><linearGradient id="b" gradientUnits="userSpaceOnUse" x1="24" y1="129.5" x2="72" y2="129.5"><stop offset="0" style="stop-color:#2e59bf"/><stop offset=".04" style="stop-color:#3057bd"/><stop offset="1" style="stop-color:#593192"/></linearGradient><path fill="url(#b)" d="M24 168h48V91H24z"/><path opacity=".2" d="M72 95H24v-4h48z"/><path opacity=".15" d="M72 168H24V91h48z"/><g opacity=".8"><path opacity=".1" fill="#FFF" d="M56 98h8v3h-8z"/><g opacity=".8"><path opacity=".1" fill="#FFF" d="M56 103h8v3h-8z"/></g><g opacity=".8"><path opacity=".1" fill="#FFF" d="M56 108h8v3h-8z"/></g><g opacity=".8"><path opacity=".1" fill="#FFF" d="M56 113h8v3h-8z"/></g><g opacity=".8"><path opacity=".1" fill="#FFF" d="M56 118h8v3h-8z"/></g></g><g opacity=".8"><path opacity=".1" fill="#FFF" d="M44 98h8v3h-8z"/><g opacity=".8"><path opacity=".1" fill="#FFF" d="M44 103h8v3h-8z"/></g><g opacity=".8"><path opacity=".1" fill="#FFF" d="M44 108h8v3h-8z"/></g><g opacity=".8"><path opacity=".1" fill="#FFF" d="M44 113h8v3h-8z"/></g><g opacity=".8"><path opacity=".1" fill="#FFF" d="M44 118h8v3h-8z"/></g></g><linearGradient id="c" gradientUnits="userSpaceOnUse" x1="4559" y1="121" x2="4588" y2="121" gradientTransform="matrix(-1 0 0 1 4742 0)"><stop offset="0" style="stop-color:#2e60e8"/><stop offset="1" style="stop-color:#2e74db"/></linearGradient><path fill="url(#c)" d="M154 144h29V98h-29z"/><linearGradient id="d" gradientUnits="userSpaceOnUse" x1="183" y1="119.5" x2="186" y2="119.5"><stop offset="0" style="stop-color:#3651bf"/><stop offset="1" style="stop-color:#2e5bdb"/></linearGradient><path fill="url(#d)" d="m183 95 3 2.6V144h-3z"/><path opacity=".2" d="M183 98h-29v-3h29z"/><path opacity=".15" d="M183 143h-29V95h29z"/><path fill="#FFF" d="M160 103h-2v-2h2zm4 0h-2v-2h2zm4 0h-2v-2h2zm4 0h-2v-2h2zm4 0h-2v-2h2zm4 0h-2v-2h2zm-20 4h-2v-2h2zm4 0h-2v-2h2zm4 0h-2v-2h2zm4 0h-2v-2h2zm4 0h-2v-2h2zm4 0h-2v-2h2zm-20 4h-2v-2h2zm4 0h-2v-2h2zm4 0h-2v-2h2zm4 0h-2v-2h2zm4 0h-2v-2h2zm4 0h-2v-2h2zm-20 4h-2v-2h2zm4 0h-2v-2h2zm4 0h-2v-2h2zm4 0h-2v-2h2zm4 0h-2v-2h2zm4 0h-2v-2h2zm-20 4h-2v-2h2zm4 0h-2v-2h2zm4 0h-2v-2h2zm4 0h-2v-2h2zm4 0h-2v-2h2zm4 0h-2v-2h2zm-20 4h-2v-2h2zm4 0h-2v-2h2zm4 0h-2v-2h2zm4 0h-2v-2h2zm4 0h-2v-2h2zm4 0h-2v-2h2zm-20 4h-2v-2h2zm4 0h-2v-2h2zm4 0h-2v-2h2zm4 0h-2v-2h2zm4 0h-2v-2h2zm4 0h-2v-2h2z" opacity=".2"/><linearGradient id="e" gradientUnits="userSpaceOnUse" x1="9298.976" y1="109.171" x2="9333.983" y2="109.171" gradientTransform="translate(-9293.983)"><stop offset="0" style="stop-color:#3651bf"/><stop offset="1" style="stop-color:#2e5bdb"/></linearGradient><path fill="url(#e)" d="M36 102V84h-5V60h-5.4v-4.1h.2c.2 0 .2-.2.2-.3 0-.2-.1-.3-.2-.3h-.5v-8.9h-.4v8.9h-.4c-.1 0-.2.1-.2.3 0 .2.1.3.2.3h.3l.1 4.1h-6.4v-3.6h.1c.2 0 .3-.1.3-.3s-.1-.3-.3-.3h-.4v-7.6h-.4v7.6h-.4c-.2 0-.3.1-.3.3s.1.3.3.3h.1V60H10v24H5v88h35v-70h-4z"/><path opacity=".3" d="M25.6 60v-4.1c.1 0 .3 0 .3-.1.1-.1.1-.2.1-.3 0-.2-.1-.3-.2-.3h-.5v-8.9h-.4v8.9h-.4c-.1 0-.2.1-.2.3 0 .2.1.3.1.3h.4l.1 4.1h-6.4v-3.6h.1c.2 0 .3-.1.3-.3s-.1-.3-.3-.3h-.4v-7.6h-.4v7.6h-.4c-.2 0-.3.1-.3.3s.1.3.3.3h.1v3.6H10v2h21v-2h-5.4zM1 102.2h10.2v1.8H1z"/><linearGradient id="f" gradientUnits="userSpaceOnUse" x1="9325.556" y1="105.063" x2="9321.642" y2="105.063" gradientTransform="translate(-9293.983)"><stop offset="0" style="stop-color:#3651bf"/><stop offset="1" style="stop-color:#2e5bdb"/></linearGradient><path fill="url(#f)" d="M27.7 84.3h3.9v41.5h-3.9z"/><path opacity=".3" d="M27.7 84.2h4V124h-4z"/><path opacity=".3" d="M27.7 84.2h4v2.4h-4z"/><linearGradient id="g" gradientUnits="userSpaceOnUse" x1="9337.983" y1="148" x2="9333.983" y2="148" gradientTransform="translate(-9293.983)"><stop offset="0" style="stop-color:#3651bf"/><stop offset="1" style="stop-color:#2e5bdb"/></linearGradient><path fill="url(#g)" d="M40 124h4v48h-4z"/><linearGradient id="h" gradientUnits="userSpaceOnUse" x1="9324.983" y1="71.972" x2="9329.983" y2="71.972" gradientTransform="translate(-9293.983)"><stop offset="0" style="stop-color:#3651bf"/><stop offset="1" style="stop-color:#2e5bdb"/></linearGradient><path fill="url(#h)" d="M36 84h-5V59.9l5 2.3z"/><linearGradient id="i" gradientUnits="userSpaceOnUse" x1="9329.983" y1="93" x2="9333.983" y2="93" gradientTransform="translate(-9293.983)"><stop offset="0" style="stop-color:#3651bf"/><stop offset="1" style="stop-color:#2e5bdb"/></linearGradient><path fill="url(#i)" d="M36 84h4v18h-4z"/><linearGradient id="j" gradientUnits="userSpaceOnUse" x1="9333.983" y1="113" x2="9337.983" y2="113" gradientTransform="translate(-9293.983)"><stop offset="0" style="stop-color:#3651bf"/><stop offset="1" style="stop-color:#2e5bdb"/></linearGradient><path fill="url(#j)" d="M40 102h4v22h-4z"/><path opacity=".3" d="M36 84h4v18h-4zm4 18h4v22h-4zm-4-18h-5V60l5 2.3z"/><path opacity=".1" d="M36 102V84h-5V60H10v24H5v88h35v-70z"/><linearGradient id="k" gradientUnits="userSpaceOnUse" x1="9293.983" y1="128" x2="9334.983" y2="128" gradientTransform="translate(-9293.983)"><stop offset="0" style="stop-color:#3651bf"/><stop offset="1" style="stop-color:#2e5bdb"/></linearGradient><path fill="url(#k)" d="M28 124V84H10v18H0v70h41v-48z"/><g opacity=".8"><path opacity=".1" fill="#FFF" d="M29 128h10v3H29z"/></g><g opacity=".8"><path opacity=".1" fill="#FFF" d="M29 133h10v3H29z"/></g><g opacity=".8"><path opacity=".1" fill="#FFF" d="M29 138h10v3H29z"/></g><g opacity=".8"><path opacity=".1" fill="#FFF" d="M2 105h6v3H2z"/></g><g opacity=".8"><path opacity=".1" fill="#FFF" d="M12 89h14v3H12z"/></g><g opacity=".8"><path opacity=".1" fill="#FFF" d="M12 94h14v3H12z"/></g><g opacity=".8"><path opacity=".1" fill="#FFF" d="M12 99h14v3H12z"/></g><g opacity=".8"><path opacity=".1" fill="#FFF" d="M12 104h14v3H12z"/></g><g opacity=".8"><path opacity=".1" fill="#FFF" d="M12 109h14v3H12z"/></g><g opacity=".8"><path opacity=".1" fill="#FFF" d="M12 114h14v3H12z"/></g><g opacity=".8"><path opacity=".1" fill="#FFF" d="M12 119h14v3H12z"/></g><g opacity=".8"><path opacity=".1" fill="#FFF" d="M12 124h14v3H12z"/></g><g opacity=".8"><path opacity=".1" fill="#FFF" d="M12 129h14v3H12z"/></g><g opacity=".8"><path opacity=".1" fill="#FFF" d="M12 134h14v3H12z"/></g><g opacity=".8"><path opacity=".1" fill="#FFF" d="M12 139h14v3H12z"/></g><g opacity=".8"><path opacity=".1" fill="#FFF" d="M12 144h14v3H12z"/></g><g opacity=".8"><path opacity=".1" fill="#FFF" d="M12 149h14v3H12z"/></g><g opacity=".8"><path opacity=".1" fill="#FFF" d="M12 154h14v3H12z"/></g><g opacity=".8"><path opacity=".1" fill="#FFF" d="M12 159h14v3H12z"/></g><g opacity=".8"><path opacity=".1" fill="#FFF" d="M12 164h14v3H12z"/></g><g opacity=".8"><path opacity=".1" fill="#FFF" d="M2 110h6v3H2z"/></g><g opacity=".8"><path opacity=".1" fill="#FFF" d="M2 115h6v3H2z"/></g><g opacity=".8"><path opacity=".1" fill="#FFF" d="M2 120h6v3H2z"/></g><g opacity=".8"><path opacity=".1" fill="#FFF" d="M2 125h6v3H2z"/></g><g opacity=".8"><path opacity=".1" fill="#FFF" d="M2 130h6v3H2z"/></g><g opacity=".8"><path opacity=".1" fill="#FFF" d="M2 135h6v3H2z"/></g><g opacity=".8"><path opacity=".1" fill="#FFF" d="M2 140h6v3H2z"/></g><g opacity=".8"><path opacity=".1" fill="#FFF" d="M2 145h6v3H2z"/></g><g opacity=".8"><path opacity=".1" fill="#FFF" d="M2 150h6v3H2z"/></g><g opacity=".8"><path opacity=".1" fill="#FFF" d="M2 155h6v3H2z"/></g><g opacity=".8"><path opacity=".1" fill="#FFF" d="M2 160h6v3H2z"/></g><g opacity=".8"><path opacity=".1" fill="#FFF" d="M2 165h6v3H2z"/></g><g opacity=".6" fill="#FFF"><path opacity=".1" d="M13 74h15v3H13zm0 5h15v3H13zm0-15h15v3H13zm0 5h15v3H13z"/></g><path opacity=".3" d="M40 124h4v48h-4z"/><linearGradient id="l" gradientUnits="userSpaceOnUse" x1="96.5" y1="125.5" x2="195.5" y2="125.5"><stop offset="0" style="stop-color:#3651bf"/><stop offset="1" style="stop-color:#2e5bdb"/></linearGradient><path fill="url(#l)" d="M186.4 120h-80.8c-.1 0-.2 0-.2.1L96.5 131h99l-8.9-10.9c-.1-.1-.2-.1-.2-.1z"/><linearGradient id="m" gradientUnits="userSpaceOnUse" x1="96.5" y1="125.5" x2="195.5" y2="125.5"><stop offset="0" style="stop-color:#4c3ea1"/><stop offset="1" style="stop-color:#2e3192"/></linearGradient><path fill="url(#m)" d="M186.4 120h-80.8c-.1 0-.2 0-.2.1L96.5 131h99l-8.9-10.9c-.1-.1-.2-.1-.2-.1z"/><path opacity=".2" d="M186.4 120h-80.8c-.1 0-.2 0-.2.1L96.5 131h99l-8.9-10.9c-.1-.1-.2-.1-.2-.1z"/><linearGradient id="n" gradientUnits="userSpaceOnUse" x1="96.5" y1="147" x2="195.5" y2="147"><stop offset="0" style="stop-color:#2e59bf"/><stop offset=".04" style="stop-color:#3057bd"/><stop offset="1" style="stop-color:#593192"/></linearGradient><path fill="url(#n)" d="M96.5 131h99v32h-99z"/><path opacity=".3" d="M96.2 132h18.6v2.3H96.2zm0 3.4h18.6v1.3H96.2zM122 131h74v2h-74zm-1.3 4h74.5v1h-74.5z"/><linearGradient id="o" gradientUnits="userSpaceOnUse" x1="96" y1="118" x2="121" y2="118"><stop offset="0" style="stop-color:#2e59bf"/><stop offset=".04" style="stop-color:#3057bd"/><stop offset="1" style="stop-color:#593192"/></linearGradient><path fill="url(#o)" d="M96 73h25v90H96z"/><path opacity=".3" d="M135 163v-18.1c0-2.5-3.5-4.5-3.5-4.5s-3.5 2-3.5 4.5V163h7z"/><path opacity=".1" d="M131.5 140.4s-3.5 2-3.5 4.4v1.4c0-2.4 3.5-4.4 3.5-4.4s3.5 2 3.5 4.4v-1.4c0-2.4-3.5-4.4-3.5-4.4z"/><path opacity=".2" fill="#FFF" d="M129 163v-16.2c0-.4.2-.7.5-.7s.5.3.5.7V163m3 0v-16.2c0-.4.2-.7.5-.7s.5.3.5.7V163m-3 0v-18c0-.4.2-1.3.5-1.3s.5.8.5 1.3v18"/><path opacity=".3" d="M108 163v-21.1c0-1.1-2.5-5.3-2.5-5.3s-2.5 4.2-2.5 5.3V163"/><path opacity=".1" d="M105.5 136.6s-2.5 4.1-2.5 5.2v.6c0-1 2.5-4.2 2.5-4.2s2.5 3.2 2.5 4.2v-.6c0-1-2.5-5.2-2.5-5.2z"/><g opacity=".3" fill="#FFF"><path opacity=".6" d="M104 163v-20.5c0-.2-.2-.8-.5-.8s-.5.6-.5.8V163h1zm4 0v-19.9c0-.2-.2-1.3-.5-1.3s-.5 1.1-.5 1.3V163h1zm-2 0v-22.4c0-.2-.2-.8-.5-.8s-.5.6-.5.8V163h1z"/></g><path opacity=".3" d="M115 163v-21.2c0-1.1-2.5-5.3-2.5-5.3s-2.5 4.2-2.5 5.3V163"/><path opacity=".1" d="M112.6 136.6s-2.4 4.1-2.4 5.2v.6c0-1 2.4-4.2 2.4-4.2s2.4 3.2 2.4 4.2v-.6c0-1-2.4-5.2-2.4-5.2z"/><g opacity=".3" fill="#FFF"><path opacity=".6" d="M111 163v-19.9c0-.2-.2-1.3-.5-1.3s-.5 1.1-.5 1.3V163h1zm4 0v-20c0-.2-.2-1.3-.5-1.3s-.5 1.1-.5 1.3v20h1zm-2.1 0v-22.5c0-.2-.2-.8-.4-.8s-.4.6-.4.8V163h.8z"/></g><path opacity=".3" d="M107 88v-6.8c0-1-1.5-5.2-1.5-5.2s-1.5 4.1-1.5 5.2V88"/><path opacity=".1" d="M105.5 75.8S104 79.9 104 81v.6c0-1 1.5-4.2 1.5-4.2s1.5 3.2 1.5 4.2V81c0-1.1-1.5-5.2-1.5-5.2z"/><g opacity=".3"><path opacity=".6" fill="#FFF" d="M105 88v-7.3c0-.1.2-.7.5-.7s.5.5.5.7V88"/></g><path opacity=".3" d="M113 88v-6.8c0-1-1.5-5.2-1.5-5.2s-1.5 4.1-1.5 5.2V88"/><path opacity=".1" d="M111.5 75.8S110 79.9 110 81v.6c0-1 1.5-4.2 1.5-4.2s1.5 3.2 1.5 4.2V81c0-1.1-1.5-5.2-1.5-5.2z"/><g opacity=".3"><path opacity=".6" fill="#FFF" d="M111 88v-7.3c0-.1.2-.7.5-.7s.5.5.5.7V88"/></g><linearGradient id="p" gradientUnits="userSpaceOnUse" x1="102" y1="56" x2="104" y2="56"><stop offset="0" style="stop-color:#2e59bf"/><stop offset=".04" style="stop-color:#3057bd"/><stop offset="1" style="stop-color:#593192"/></linearGradient><path fill="url(#p)" d="M104 49.6v12.8h-2V49.6z"/><linearGradient id="q" gradientUnits="userSpaceOnUse" x1="114" y1="56.12" x2="116" y2="56.12"><stop offset="0" style="stop-color:#2e59bf"/><stop offset=".04" style="stop-color:#3057bd"/><stop offset="1" style="stop-color:#593192"/></linearGradient><path fill="url(#q)" d="M116 49.7v12.8h-2V49.7z"/><linearGradient id="r" gradientUnits="userSpaceOnUse" x1="106" y1="56" x2="108" y2="56"><stop offset="0" style="stop-color:#2e59bf"/><stop offset=".04" style="stop-color:#3057bd"/><stop offset="1" style="stop-color:#593192"/></linearGradient><path fill="url(#r)" d="M108 49.6v12.8h-2V49.6z"/><linearGradient id="s" gradientUnits="userSpaceOnUse" x1="110" y1="56" x2="112" y2="56"><stop offset="0" style="stop-color:#2e59bf"/><stop offset=".04" style="stop-color:#3057bd"/><stop offset="1" style="stop-color:#593192"/></linearGradient><path fill="url(#s)" d="M112 49.6v12.8h-2V49.6z"/><linearGradient id="t" gradientUnits="userSpaceOnUse" x1="95.75" y1="70" x2="121.25" y2="70"><stop offset="0" style="stop-color:#4c3ea1"/><stop offset="1" style="stop-color:#2e3192"/></linearGradient><path fill="url(#t)" d="M95.8 73v-.4c2.8-.1 6.2-5.6 6.2-5.6h13.5s2.5 5.5 5.8 5.6v.4H95.8z"/><linearGradient id="u" gradientUnits="userSpaceOnUse" x1="101.642" y1="47.921" x2="116.153" y2="47.921"><stop offset="0" style="stop-color:#4c3ea1"/><stop offset="1" style="stop-color:#2e3192"/></linearGradient><path fill="url(#u)" d="M101.6 49.9v-.3c5.6-.2 6.1-3.7 6.1-3.7h2.3s.1 3.6 6.2 3.7v.3h-14.6z"/><linearGradient id="v" gradientUnits="userSpaceOnUse" x1="106.323" y1="42.538" x2="111.472" y2="42.538"><stop offset="0" style="stop-color:#4c3ea1"/><stop offset="1" style="stop-color:#2e3192"/></linearGradient><path fill="url(#v)" d="M111.5 42.5c0 2.3-2.6 4.2-2.6 4.2s-2.6-1.9-2.6-4.2 2.6-4.2 2.6-4.2 2.6 1.9 2.6 4.2z"/><linearGradient id="w" gradientUnits="userSpaceOnUse" x1="-1276.693" y1="-480.459" x2="-1274.857" y2="-480.459" gradientTransform="rotate(11.304 -3200.398 6770.83)"><stop offset="0" style="stop-color:#4c3ea1"/><stop offset="1" style="stop-color:#2e3192"/></linearGradient><circle fill="url(#w)" cx="108.9" cy="37.6" r=".9"/><linearGradient id="x" gradientUnits="userSpaceOnUse" x1="108.654" y1="35.781" x2="109.052" y2="35.781"><stop offset="0" style="stop-color:#4c3ea1"/><stop offset="1" style="stop-color:#2e3192"/></linearGradient><path fill="none" stroke="url(#x)" stroke-width=".398" stroke-miterlimit="10" d="M108.9 39.2v-6.8"/><linearGradient id="y" gradientUnits="userSpaceOnUse" x1="106.428" y1="31.672" x2="111.368" y2="31.672"><stop offset="0" style="stop-color:#4c3ea1"/><stop offset="1" style="stop-color:#2e3192"/></linearGradient><path fill="url(#y)" d="m111.4 30.3-2.5 2.8-2.5-2.8"/><linearGradient id="z" gradientUnits="userSpaceOnUse" x1="106.791" y1="30.268" x2="106.791" y2="29.008"><stop offset="0" style="stop-color:#4c3ea1"/><stop offset="1" style="stop-color:#2e3192"/></linearGradient><path fill="url(#z)" d="M105.8 30.3h1.9V29l-.4.9-.5-.9-.5.9-.5-.9z"/><linearGradient id="A" gradientUnits="userSpaceOnUse" x1="111.004" y1="30.268" x2="111.004" y2="29.008"><stop offset="0" style="stop-color:#4c3ea1"/><stop offset="1" style="stop-color:#2e3192"/></linearGradient><path fill="url(#A)" d="M110 30.3h2V29l-.5.9-.5-.9-.5.9-.5-.9z"/><linearGradient id="B" gradientUnits="userSpaceOnUse" x1="108.886" y1="32.141" x2="108.886" y2="30.88"><stop offset="0" style="stop-color:#4c3ea1"/><stop offset="1" style="stop-color:#2e3192"/></linearGradient><path fill="url(#B)" d="M107.7 32.1h2.4v-1.2l-.6.9-.6-.9-.6.9-.6-.9z"/><linearGradient id="C" gradientUnits="userSpaceOnUse" x1="191.137" y1="138.965" x2="198.159" y2="138.965"><stop offset="0" style="stop-color:#2e59bf"/><stop offset=".04" style="stop-color:#3057bd"/><stop offset="1" style="stop-color:#593192"/></linearGradient><path fill="url(#C)" d="M191.1 115.1h7v47.7h-7z"/><linearGradient id="D" gradientUnits="userSpaceOnUse" x1="121" y1="139" x2="128" y2="139"><stop offset="0" style="stop-color:#2e59bf"/><stop offset=".04" style="stop-color:#3057bd"/><stop offset="1" style="stop-color:#593192"/></linearGradient><path fill="url(#D)" d="M121 115h7v48h-7z"/><linearGradient id="E" gradientUnits="userSpaceOnUse" x1="189.733" y1="104.794" x2="199.563" y2="104.794"><stop offset="0" style="stop-color:#4c3ea1"/><stop offset="1" style="stop-color:#2e3192"/></linearGradient><path fill="url(#E)" d="M189.7 104.8v-.3l3.7-2 2.4.1 3.7 2v.3h-1.4l-.9 2.3s-.9-2.3-2.8-2.3c-1.4 0-2.3 2.3-2.3 2.3l-.9-2.3h-1.5z"/><linearGradient id="F" gradientUnits="userSpaceOnUse" x1="3780.642" y1="10096.14" x2="3785.564" y2="10096.14" gradientTransform="rotate(-90 -3008.5 6893)"><stop offset="0" style="stop-color:#4c3ea1"/><stop offset="1" style="stop-color:#2e3192"/></linearGradient><path fill="url(#F)" d="M194.6 98.9c3.5-.2 3.5 4.9 3.5 4.9s-1.2-.8-3.5-.8-3.5.8-3.5.8-.4-4.6 3.5-4.9z"/><linearGradient id="G" gradientUnits="userSpaceOnUse" x1="194.648" y1="95.433" x2="194.648" y2="95.433"><stop offset="0" style="stop-color:#4c3ea1"/><stop offset="1" style="stop-color:#2e3192"/></linearGradient><path fill="url(#G)" d="M194.6 98.7v-6.5"/><linearGradient id="H" gradientUnits="userSpaceOnUse" x1="-1181.478" y1="-437.913" x2="-1178.375" y2="-437.913" gradientTransform="rotate(11.304 -3200.398 6770.83)"><stop offset="0" style="stop-color:#4c3ea1"/><stop offset="1" style="stop-color:#2e3192"/></linearGradient><path fill="url(#H)" d="M195.8 97.3c-.3 0 0 1.4 0 2.3 0 .5-2.2.1-2.2 0-.1-.4.3-2.3-.1-2.3-.9 0 .4-1 .9-.9.5.1 2.4.9 1.4.9z"/><linearGradient id="I" gradientUnits="userSpaceOnUse" x1="191.137" y1="109.944" x2="193.009" y2="109.944"><stop offset="0" style="stop-color:#4c3ea1"/><stop offset="1" style="stop-color:#2e3192"/></linearGradient><path fill="url(#I)" d="M193 104.8v10.3h-1.9v-10.3z"/><linearGradient id="J" gradientUnits="userSpaceOnUse" x1="196.286" y1="109.944" x2="198.158" y2="109.944"><stop offset="0" style="stop-color:#4c3ea1"/><stop offset="1" style="stop-color:#2e3192"/></linearGradient><path fill="url(#J)" d="M198.2 104.8v10.3h-1.9v-10.3z"/><linearGradient id="K" gradientUnits="userSpaceOnUse" x1="121.114" y1="110.5" x2="127.886" y2="110.5"><stop offset="0" style="stop-color:#4c3ea1"/><stop offset="1" style="stop-color:#2e3192"/></linearGradient><path fill="url(#K)" d="m121.5 111.4 2.8-5.4 3.3 5.4.3 3.6h-6.8z"/><path opacity=".3" d="M121 115h7v1h-7z"/><path opacity=".1" d="M104 94h-2v-2h2zm12 0h-2v-2h2zm-12 7h-2v-2h2zm12 0h-2v-2h2zm-12 7h-2v-2h2zm12 0h-2v-2h2z"/><path opacity=".2" d="M95.8 73v-.4c2.8-.1 6.2-5.6 6.2-5.6h13.5s2.5 5.5 5.8 5.6v.4H95.8z"/><linearGradient id="L" gradientUnits="userSpaceOnUse" x1="100" y1="64.5" x2="117" y2="64.5"><stop offset="0" style="stop-color:#4c3ea1"/><stop offset="1" style="stop-color:#2e3192"/></linearGradient><path fill="url(#L)" d="M100 62v5h17v-5h-17zm12 1v2h-1v-2h1zm-3 0v2h-1v-2h1zm-3 0v2h-1v-2h1zm-4 0h1v2h-1v-2zm12 2v-2h1v2h-1z"/><path opacity=".3" d="M148 163v-18.1c0-2.5-3.5-4.5-3.5-4.5s-3.5 2-3.5 4.5V163h7z"/><path opacity=".1" d="M144.5 140.4s-3.5 2-3.5 4.4v1.4c0-2.4 3.5-4.4 3.5-4.4s3.5 2 3.5 4.4v-1.4c0-2.4-3.5-4.4-3.5-4.4z"/><path opacity=".2" fill="#FFF" d="M142 163v-16.2c0-.4.2-.7.5-.7s.5.3.5.7V163m3 0v-16.2c0-.4.2-.7.5-.7s.5.3.5.7V163m-3 0v-18c0-.4.2-1.3.5-1.3s.5.8.5 1.3v18"/><path opacity=".3" d="M161 163v-18.1c0-2.5-3.5-4.5-3.5-4.5s-3.5 2-3.5 4.5V163h7z"/><path opacity=".1" d="M157.5 140.4s-3.5 2-3.5 4.4v1.4c0-2.4 3.5-4.4 3.5-4.4s3.5 2 3.5 4.4v-1.4c0-2.4-3.5-4.4-3.5-4.4z"/><path opacity=".2" fill="#FFF" d="M155 163v-16.2c0-.4.2-.7.5-.7s.5.3.5.7V163m3 0v-16.2c0-.4.2-.7.5-.7s.5.3.5.7V163m-3 0v-18c0-.4.2-1.3.5-1.3s.5.8.5 1.3v18"/><path opacity=".3" d="M174 162.9v-18.1c0-2.5-3.5-4.4-3.5-4.4s-3.5 2-3.5 4.4v18.1h7z"/><path opacity=".1" d="M170.5 140.4s-3.5 2-3.5 4.4v1.4c0-2.4 3.5-4.4 3.5-4.4s3.5 2 3.5 4.4v-1.4c0-2.4-3.5-4.4-3.5-4.4z"/><path opacity=".2" fill="#FFF" d="M168 162.9v-16.1c0-.4.2-.7.5-.7s.5.3.5.7v16.1m3 0v-16.1c0-.4.2-.7.5-.7s.5.3.5.7v16.1m-3 0V145c0-.4.2-1.3.5-1.3s.5.8.5 1.3v17.9"/><linearGradient id="M" gradientUnits="userSpaceOnUse" x1="24.593" y1="142.558" x2="98.697" y2="142.558"><stop offset="0" style="stop-color:#451088"/><stop offset="1" style="stop-color:#593179"/></linearGradient><path fill="url(#M)" d="M98.7 157.5c0 2.5-.2 4.9-.7 7.2-18.8 0-65.4 0-72.7-.1-.4-2.3-.7-4.6-.7-7 0-20.5 16.6-37.1 37.1-37.1s37 16.5 37 37z"/><path opacity=".5" d="M58.9 147.5h1.6v1.6h-1.6zm-4.4 0h1.6v1.6h-1.6zm8.3 0h1.6v1.6h-1.6zm0-3.5h1.6v1.6h-1.6zm-3.9 0h1.6v1.6h-1.6zm-4.4 0h1.6v1.6h-1.6zm12.7 3.5h1.6v1.6h-1.6zm-8.3 3.6h1.6v1.6h-1.6zm-4.4 0h1.6v1.6h-1.6zm8.3 0h1.6v1.6h-1.6zm4.4 0h1.6v1.6h-1.6zm0-7.1h1.6v1.6h-1.6z" fill="#FFF"/><g opacity=".3" fill="none" stroke="#000" stroke-width=".398" stroke-miterlimit="10"><path d="M46.1 164.5c-.2-2.3-.2-4.7-.2-7.1 0-20.3 7.1-36.7 15.8-36.7s15.8 16.4 15.8 36.7c0 2.4-.1 4.8-.3 7.1"/><path d="M36.7 164.5c-.3-2.3-.4-4.7-.4-7.1 0-20.3 11.3-36.7 25.3-36.7s25.3 16.4 25.3 36.7c0 2.4-.2 4.8-.5 7.1"/><path d="M31.8 164.5c-.4-2.3-.4-4.7-.4-7.1 0-20.3 13.6-36.7 30.3-36.7S92 137.1 92 157.4c0 2.4-.2 4.8-.6 7.1"/><path d="M51.3 164.5c-.1-2.3-.2-4.7-.2-7.1 0-20.3 4.7-36.7 10.5-36.7s10.5 16.4 10.5 36.7c0 2.4-.1 4.8-.2 7.1"/><path d="M57.4 164.5c-.1-2.3-.1-4.7-.1-7.1 0-20.3 1.9-36.7 4.3-36.7s4.3 16.4 4.3 36.7c0 2.4 0 4.8-.1 7.1"/></g><path opacity=".5" d="M39.765 149.17h-1.6v-1.6h1.6zm4.762 0h-1.6v-1.6h1.6zm-8.83 0h-1.6v-1.6h1.6zm.893-3.672h-1.6v-1.6h1.6zm4.366 0h-1.6v-1.6h1.6zm4.364 0h-1.6v-1.6h1.6zm-13.988 3.672h-1.6v-1.6h1.6zm7.64 3.57h-1.6v-1.6h1.6zm4.365 0h-1.6v-1.6h1.6zm-8.433 0h-1.6v-1.6h1.6zm-4.365 0h-1.6v-1.6h1.6zm1.587-7.242h-1.6v-1.6h1.6z" fill="#FFF"/><linearGradient id="N" gradientUnits="userSpaceOnUse" x1="25" y1="167" x2="98" y2="167"><stop offset="0" style="stop-color:#451088"/><stop offset="1" style="stop-color:#593179"/></linearGradient><path fill="url(#N)" d="M25 162h73v10H25z"/><path opacity=".3" d="M25 162h73v10H25z"/><path opacity=".15" d="M34 165h6v7h-6zm12 0h6v7h-6zm23 0h6v7h-6zm13 0h6v7h-6z"/><path opacity=".5" d="M83.6 147.5h1.6v1.6h-1.6zm-4.8 0h1.6v1.6h-1.6zm8.7 0h1.6v1.6h-1.6zm-.8-3.5h1.6v1.6h-1.6zm-4.3 0H84v1.6h-1.6zm-4.4 0h1.6v1.6H78zm13.9 3.5h1.6v1.6h-1.6zm-7.5 3.6H86v1.6h-1.6zm-4.4 0h1.6v1.6H80zm8.3 0h1.6v1.6h-1.6zm4.4 0h1.6v1.6h-1.6zm-1.6-7.1h1.6v1.6h-1.6z" fill="#FFF"/><linearGradient id="O" gradientUnits="userSpaceOnUse" x1="443" y1="127" x2="472" y2="127" gradientTransform="matrix(-1 0 0 1 640 0)"><stop offset="0" style="stop-color:#3651bf"/><stop offset="1" style="stop-color:#2e5bdb"/></linearGradient><path fill="url(#O)" d="M197 172V82l-29 32.3V172h29"/><linearGradient id="P" gradientUnits="userSpaceOnUse" x1="440" y1="127.037" x2="443" y2="127.037" gradientTransform="matrix(-1 0 0 1 640 0)"><stop offset="0" style="stop-color:#2e3192"/><stop offset="1" style="stop-color:#4c3ea1"/></linearGradient><path fill="url(#P)" d="M200 172h-3V82.1l3 3.1z"/><g opacity=".8" fill="#FFF"><path opacity=".2" d="M172 163h22v3h-22zm0-24h22v3h-22zm0 6h22v3h-22zm0 6h22v3h-22zm0 6h22v3h-22zm0-30h22v3h-22zm0 6h22v3h-22z"/></g><g opacity=".8"><defs><path id="Q" opacity=".8" d="M196.3 120.8h-24.1v-5.3l24.1-26.8z"/></defs><clipPath id="R"><use xlink:href="#Q" overflow="visible"/></clipPath><g clip-path="url(#R)" fill="#FFF"><path opacity=".2" d="M172 95h22v3h-22zm0 6h22v3h-22zm0 6h22v3h-22zm0 6h22v3h-22z"/></g></g></svg>