<svg xmlns="http://www.w3.org/2000/svg" xmlns:xlink="http://www.w3.org/1999/xlink" viewBox="0 0 200 172" xml:space="preserve"><path opacity=".3" d="M19.6 62V46.1h-1.1V62h-.4v5.1H20V62zM9.4 62V46.1h-.9V62H8v5.1h1.9V62z"/><linearGradient id="a" gradientUnits="userSpaceOnUse" x1="97.45" y1="842" x2="97.45" y2="695.084" gradientTransform="translate(0 -670)"><stop offset="0" style="stop-color:#1d7ee8"/><stop offset="1" style="stop-color:#2ea7db"/></linearGradient><path fill="url(#a)" d="m11.9 111 .1 61h171l-.3-61.7c0-49.1-41.6-88.5-91.5-85-44.8 3.1-79.3 40.8-79.3 85.7z"/><path opacity=".2" d="m174 123.4-1-.5V121h-11V89h-22.1l.3 18.7-11.2.3.1-31.2L110 64v45h-3V84H87v12H70V57H55v39h-6V75L37 63v43.6h-8.7V84.8H5.9v87.6h167.7v-21.6h.4z"/><path opacity=".2" d="M7.5 158h172v14H7.5z"/><linearGradient id="b" gradientUnits="userSpaceOnUse" x1="12649.999" y1="794.7" x2="12652.759" y2="794.7" gradientTransform="matrix(-1 0 0 1 12795.58 -670)"><stop offset="0" style="stop-color:#2e42bf"/><stop offset="1" style="stop-color:#593192"/></linearGradient><path fill="url(#b)" d="M145.6 108.5v38.3h-2.8v-44.2z"/><path opacity=".15" d="M145.6 108.5v38.3h-2.8v-44.2z"/><linearGradient id="c" gradientUnits="userSpaceOnUse" x1="12649.999" y1="816.15" x2="12652.362" y2="816.15" gradientTransform="matrix(-1 0 0 1 12795.58 -670)"><stop offset="0" style="stop-color:#2e40bf"/><stop offset="1" style="stop-color:#593192"/></linearGradient><path fill="url(#c)" d="M145.6 135.3v27.6h-2.4v-33.5"/><path opacity=".15" d="M145.6 135.3v27.6h-2.4v-33.5z"/><linearGradient id="d" gradientUnits="userSpaceOnUse" x1="12147.37" y1="807.55" x2="12188.67" y2="807.55" gradientTransform="matrix(-1 0 0 1 12221.57 -670)"><stop offset="0" style="stop-color:#2e60e8"/><stop offset="1" style="stop-color:#2e74db"/></linearGradient><path fill="url(#d)" d="M32.9 105.4h41.3v64.3H32.9z"/><path opacity=".15" d="M33 105h41v65H33z"/><path opacity=".5" fill="#FFF" d="M36.1 164.6h1.8v1.8h-1.8zm0-6.4h1.8v1.8h-1.8zm0-6.4h1.8v1.8h-1.8zm0-6.5h1.8v1.8h-1.8z"/><path fill="#FFF" d="M36.1 138.9h1.8v1.8h-1.8z"/><path opacity=".5" fill="#FFF" d="M36.1 132.5h1.8v1.8h-1.8zm0-6.9h1.8v1.8h-1.8zm0-6.4h1.8v1.8h-1.8zm0-6.4h1.8v1.8h-1.8z"/><path opacity=".2" d="M33.5 105h41v3h-41z"/><path fill="#373E9B" d="m3 67-3 3.1v102.4h3.7V67.6"/><linearGradient id="e" gradientUnits="userSpaceOnUse" x1="43.023" y1="119.532" x2="2.023" y2="119.464"><stop offset="0" style="stop-color:#2e60e8"/><stop offset="1" style="stop-color:#2e74db"/></linearGradient><path fill="url(#e)" d="M3 67v105h40v-41h1V67z"/><path opacity=".1" fill="#FFF" d="M8 89h8v4H8zm0 7h8v4H8zm0 7h8v4H8zm0-28h8v4H8zm0 7h8v4H8zm11 7h8v4h-8zm0 7h8v4h-8zm0 7h8v4h-8zm0-28h8v4h-8zm0 7h8v4h-8zm12 7h8v4h-8zm0 7h8v4h-8zm0 7h8v4h-8zm0-28h8v4h-8zm0 7h8v4h-8zM8 123h8v4H8zm0 7h8v4H8zm0 7h8v4H8zm0-27h8v4H8zm0 6h8v4H8zm11 7h8v4h-8zm0 7h8v4h-8zm0 7h8v4h-8zm0-27h8v4h-8zm0 6h8v4h-8zm12 7h8v4h-8zm0 7h8v4h-8zm0 7h8v4h-8zm0-27h8v4h-8zm0 6h8v4h-8zM8 158h8v4H8zm0 7h8v4H8zm0-21h8v4H8zm0 7h8v4H8zm12 7h8v4h-8zm-1 7h8v4h-8zm0-21h8v4h-8zm.5 7.3h8.3v3.7h-8.3zM31 158h8v4h-8zm0 7h8v4h-8zm0-20.5h8.3v3.7H31zm0 6.8h8.3v3.7H31z"/><linearGradient id="f" gradientUnits="userSpaceOnUse" x1="153.957" y1="766.85" x2="163.9" y2="766.85" gradientTransform="translate(0 -670)"><stop offset="0" style="stop-color:#451088"/><stop offset="1" style="stop-color:#593179"/></linearGradient><path fill="url(#f)" d="M154 29.8v134.1h9.9l-.1-118z"/><linearGradient id="g" gradientUnits="userSpaceOnUse" x1="118" y1="766.85" x2="154" y2="766.85" gradientTransform="translate(0 -670)"><stop offset="0" style="stop-color:#2e59bf"/><stop offset=".04" style="stop-color:#3057bd"/><stop offset="1" style="stop-color:#593192"/></linearGradient><path fill="url(#g)" d="M118 69v95h36V29.7s-3 12-17.1 25.8c-5.6 5.3-11.9 10-18.9 13.5z"/><linearGradient id="h" gradientUnits="userSpaceOnUse" x1="154" y1="767" x2="164" y2="767" gradientTransform="translate(0 -670)"><stop offset="0" style="stop-color:#451088"/><stop offset="1" style="stop-color:#593179"/></linearGradient><path fill="url(#h)" d="M154 30v134h10V46z"/><defs><path id="i" d="M118 83.1v74.3h35.7v-105s-3.1 9.2-16.9 20.1c-8.4 6.8-18.8 10.6-18.8 10.6z"/></defs><clipPath id="j"><use xlink:href="#i" overflow="visible"/></clipPath><g clip-path="url(#j)"><path opacity=".3" d="M119.7 88.1v2.7s9.7-3.7 17.7-9.8c10.9-8.3 14.7-15.2 14.7-15.2v-4s-2.8 6.9-15.4 16.8c-7.6 6-17 9.5-17 9.5z"/><path opacity=".3" d="M119.7 94.4v2.7s9.7-3.7 17.7-9.8c10.9-8.3 14.7-15.2 14.7-15.2v-4s-2.8 6.9-15.4 16.8c-7.6 6.1-17 9.5-17 9.5z"/><path opacity=".3" d="M119.7 100.7v2.7s9.7-3.7 17.7-9.8c10.9-8.3 14.7-15.2 14.7-15.2v-4s-2.8 6.9-15.4 16.8c-7.6 6.1-17 9.5-17 9.5z"/><path opacity=".3" d="M119.7 107.1v2.7s9.7-3.7 17.7-9.8c10.9-8.3 14.7-15.2 14.7-15.2v-4s-2.8 6.9-15.4 16.8c-7.6 6-17 9.5-17 9.5z"/><path opacity=".3" d="M119.7 113.4v2.7s9.7-3.6 17.7-9.8c10.9-8.3 14.7-15.2 14.7-15.2v-4s-2.8 6.9-15.4 16.8c-7.6 6.1-17 9.5-17 9.5z"/><path opacity=".3" d="M119.7 119.7v2.7s9.7-3.6 17.7-9.8c10.9-8.3 14.7-15.2 14.7-15.2v-4s-2.8 6.9-15.4 16.8c-7.6 6.1-17 9.5-17 9.5z"/><path opacity=".3" d="M119.7 126.1v2.7s9.7-3.6 17.7-9.8c10.9-8.3 14.7-15.2 14.7-15.2v-4s-2.8 6.9-15.4 16.8c-7.6 6-17 9.5-17 9.5z"/><path opacity=".3" d="M119.7 132.4v2.7s9.7-3.7 17.7-9.8c10.9-8.3 14.7-15.2 14.7-15.2v-4s-2.8 6.9-15.4 16.8c-7.6 6.1-17 9.5-17 9.5z"/><path opacity=".3" d="M119.7 138.7v2.7s9.7-3.7 17.7-9.8c10.9-8.3 14.7-15.2 14.7-15.2v-4s-2.8 6.9-15.4 16.8c-7.6 6.1-17 9.5-17 9.5z"/><path opacity=".3" d="M119.7 145.1v2.7s9.7-3.7 17.7-9.8c10.9-8.3 14.7-15.2 14.7-15.2v-4s-2.8 6.9-15.4 16.8c-7.6 6-17 9.5-17 9.5z"/><path opacity=".3" d="M119.7 151.4v2.7s9.7-3.7 17.7-9.8c10.9-8.3 14.7-15.2 14.7-15.2v-4s-2.8 6.9-15.4 16.8c-7.6 6-17 9.5-17 9.5z"/><path opacity=".3" d="M119.7 157.7v2.7s9.7-3.6 17.7-9.8c10.9-8.3 14.7-15.2 14.7-15.2v-4s-2.8 6.9-15.4 16.8c-7.6 6.1-17 9.5-17 9.5z"/><path opacity=".3" d="M119.7 164v2.7s9.7-3.6 17.7-9.8c10.9-8.3 14.7-15.2 14.7-15.2v-4s-2.8 6.9-15.4 16.8c-7.6 6.1-17 9.5-17 9.5z"/><path opacity=".3" d="M119.7 170.4v2.7s9.7-3.6 17.7-9.8c10.9-8.3 14.7-15.2 14.7-15.2v-4s-2.8 6.9-15.4 16.8c-7.6 6-17 9.5-17 9.5z"/><path opacity=".3" d="M119.7 176.7v2.7s9.7-3.7 17.7-9.8c10.9-8.3 14.7-15.2 14.7-15.2v-4s-2.8 6.9-15.4 16.8c-7.6 6.1-17 9.5-17 9.5z"/></g><path d="M118 69v4s12-5.2 21.2-14.3C149.6 48.5 154 37.1 154 37.1v-7.5s-3 12-17.1 25.8C131.3 60.8 125 65.5 118 69zm36-39.2v7.3L164 52v-6z" opacity=".3"/><linearGradient id="k" gradientUnits="userSpaceOnUse" x1="15205.255" y1="990.1" x2="15233.357" y2="990.1" gradientTransform="translate(-15189.28 -834)"><stop offset="0" style="stop-color:#2e3192"/><stop offset="1" style="stop-color:#2f0b81"/></linearGradient><path fill="url(#k)" d="M25.1 161.1c.1-.3.1-.6 0-.9l-.5-1.1.9 1.3c.3.5 1 .6 1.5.3s1.1-.7 1.6-1 .7-1 .4-1.6c0 0 0-.1-.1-.1l-.2-.2.2.1c.5.3 1.2.2 1.5-.4 0-.1.1-.1.1-.2l.1-.3c3.1 4.7 5.5 9.7 7.2 15h4.1c-2.3-5.9-5.7-11.3-10-15.8l.3.3c.3.2.6.3.9.3.3 0 .6-.2.8-.5l.1-.2-.1.3c-.1.6.3 1.2.9 1.3h.1c.6 0 1.3.1 1.9.2.6 0 1.1-.4 1.2-.9l.2-1.5.1 1.2c0 .3.2.6.4.8.3.2.6.3.9.2 1.4-.2 2.7-.5 4-.9-2.5-5.9-7.8-5.7-10.5-5.2.9-.7 1.9-1.3 3-1.6.3-.1.4-.3.4-.6l-.1-.9.3.8c.1.3.4.4.6.3.9-.2 1.9-.3 2.8-.3.3 0 .6-.2.6-.5v-.9l.2 1.2c0 .2.2.4.5.5.8.2 1.6.4 2.4.8l-.3-1.2c-1.4-3.8-5.6-5.8-9.4-4.4-.7.2-1.3.6-1.9 1 1-2.7-.2-5.6-.2-5.6s-3 1.3-4.2 4.1c-.4 1.2-.6 2.4-.4 3.6-.5-1.1-1.3-2.1-2.3-2.9-2.4-1.7-5.7-1.3-5.7-1.3s.6 3.3 3 5c.3.2.7.4 1.1.6-4-.3-7.6 2.6-7.9 6.7-.1 1 0 2.1.4 3.1.2.4.3.8.5 1.2.4-.8.8-1.5 1.4-2.1.2-.2.2-.4.1-.6l-.6-1 .6.7c.2.2.6.2.8 0 .7-.6 1.5-1.2 2.3-1.6.3-.1.4-.4.3-.7l-.3-.8.4.8c.1.2.4.3.6.2.8-.3 1.7-.5 2.6-.6-2.5 1.2-5.2 3.7-4.9 8.5 1.4-.2 2.7-.6 4-.9.9-.6 1.2-.8 1.3-1.1z"/><linearGradient id="l" gradientUnits="userSpaceOnUse" x1="118" y1="822" x2="103" y2="822" gradientTransform="translate(0 -670)"><stop offset="0" style="stop-color:#451088"/><stop offset="1" style="stop-color:#593179"/></linearGradient><path fill="url(#l)" d="M103 132h15v40h-15z"/><linearGradient id="m" gradientUnits="userSpaceOnUse" x1="102" y1="795.5" x2="119" y2="795.5" gradientTransform="translate(0 -670)"><stop offset="0" style="stop-color:#451088"/><stop offset="1" style="stop-color:#593179"/></linearGradient><path fill="url(#m)" d="m102.9 132-.9-4 1-9h15l1 9-1 4z"/><path opacity=".1" fill="#FFF" d="m102 128 1-9h15l1 9z"/><linearGradient id="n" gradientUnits="userSpaceOnUse" x1="118.885" y1="779.7" x2="102.166" y2="779.7" gradientTransform="translate(0 -670)"><stop offset="0" style="stop-color:#451088"/><stop offset="1" style="stop-color:#593179"/></linearGradient><path fill="url(#n)" d="M111 117.4h-7.3c-1-1.1-1.6-2.5-1.5-4 .2-3.9 5.2-5.6 5.2-5.6l.1-.5 1.9-.9 1.3-4.4h.1l1 4.4 1.9.9.1.5s4.6 1.3 5.2 5.6c.3 2.3-1.8 4-1.8 4H111z"/><path opacity=".15" fill="#FFF" d="M110.8 117.4h-4.3c-.7-1.2-1-2.6-.9-4 .1-2.3 1.2-4.4 3.1-5.6l.1-.5 1.1-.9.8-4.4.6 4.4 1.1.9.1.5s2.7 1.3 3.1 5.6c.1 1.4-.3 2.8-1 4h-3.8z"/><linearGradient id="o" gradientUnits="userSpaceOnUse" x1="105.613" y1="812.2" x2="115.436" y2="812.2" gradientTransform="translate(0 -670)"><stop offset="0" style="stop-color:#451088"/><stop offset="1" style="stop-color:#593179"/></linearGradient><circle fill="url(#o)" cx="110.5" cy="142.2" r="4.9"/><circle opacity=".1" fill="#FFF" cx="110.5" cy="142.2" r="4.9"/><path opacity=".3" d="M114 159v-6.1c0-1.7-1.8-2.9-3.5-2.9s-3.5 1.3-3.5 3v6h-1v1h9v-1h-1z"/><linearGradient id="p" gradientUnits="userSpaceOnUse" x1="14481.73" y1="744" x2="14472.73" y2="744" gradientTransform="matrix(-1 0 0 1 14669.73 -670)"><stop offset="0" style="stop-color:#3651bf"/><stop offset="1" style="stop-color:#2e5bdb"/></linearGradient><path fill="url(#p)" d="M193 53v24l4 3v17h-4V78h-5V51z"/><linearGradient id="q" gradientUnits="userSpaceOnUse" x1="14472.772" y1="781.05" x2="14469.73" y2="781.05" gradientTransform="matrix(-1 0 0 1 14669.73 -670)"><stop offset="0" style="stop-color:#3651bf"/><stop offset="1" style="stop-color:#2e5bdb"/></linearGradient><path fill="url(#q)" d="M200 125.2h-3V96.9l3 2.4z"/><linearGradient id="r" gradientUnits="userSpaceOnUse" x1="-121.15" y1="774.35" x2="-87.15" y2="774.35" gradientTransform="translate(284.15 -670)"><stop offset="0" style="stop-color:#3651bf"/><stop offset="1" style="stop-color:#2e5bdb"/></linearGradient><path fill="url(#r)" d="M193 96V77h-5V51h-5l-.1-3.9h.4c.1 0 .2-.1.2-.3s-.1-.3-.2-.3h-.6v-9.7h-.5v9.8h-.4c-.1 0-.2.2-.2.3s.1.3.2.3h.3V51h-5.9v-3.3h.1c.2 0 .3-.1.3-.3s-.1-.3-.3-.3h-.3v-8.2h-.5v8.2h-.5c-.2 0-.3.1-.3.3s.1.2.3.2h.1v3.3h-7v26h-5v95h34V96H193z"/><linearGradient id="s" gradientUnits="userSpaceOnUse" x1="14473.73" y1="795" x2="14501.73" y2="795" gradientTransform="matrix(-1 0 0 1 14669.73 -670)"><stop offset="0" style="stop-color:#3651bf"/><stop offset="1" style="stop-color:#2e5bdb"/></linearGradient><path fill="url(#s)" d="M168 78h17v42h11v52h-28z"/><linearGradient id="t" gradientUnits="userSpaceOnUse" x1="-84.15" y1="816" x2="-88.15" y2="816" gradientTransform="translate(284.15 -670)"><stop offset="0" style="stop-color:#3651bf"/><stop offset="1" style="stop-color:#2e5bdb"/></linearGradient><path fill="url(#t)" d="M200 172h-4v-52l4 2.2z"/><path opacity=".3" d="M168 78h17v2h-17zm20 0v42h8v2h-11V78z"/><path opacity=".3" d="M175 51v-3.3h-.1c-.2 0-.3-.1-.3-.3 0-.2.1-.3.3-.3h.5v-8.2h.5v8.2h.4c.2 0 .2.1.2.3s-.2.3-.2.3h-.2V51h5.9v-3.9h-.3c-.1 0-.2-.2-.2-.3s.1-.3.2-.3h.4v-9.8h.5v9.8h.6c.1 0 .2.2.2.3s-.1.3-.2.3h-.3l.1 3.9h5l5 2v24l4 3v16.9l3 2.4V172h-4v-52l3.9 2.2-3.9-2.2V96h-3V78h-5V54h-20v-3h7z"/><path opacity=".2" fill="#FFF" d="M172 57h13v2h-13zm0 4h13v2h-13zm0 4h13v2h-13zm0 4h13v2h-13zm0 4h13v2h-13z"/><path opacity=".1" fill="#FFF" d="M170 86h12v3h-12zm0 6h12v3h-12zm0 6h12v3h-12zm0 6h12v3h-12zm0 6h12v3h-12zm0 7h12v3h-12zm0 6h12v3h-12zm0 6h12v3h-12zm0 6h12v3h-12zm0 6h12v3h-12zm0 6h12v3h-12zm0 6h12v3h-12zm0 6h12v3h-12z"/><linearGradient id="u" gradientUnits="userSpaceOnUse" x1="14898.386" y1="989.7" x2="14926.488" y2="989.7" gradientTransform="matrix(-1 0 0 1 15043.14 -834)"><stop offset="0" style="stop-color:#2e3192"/><stop offset="1" style="stop-color:#2f0b81"/></linearGradient><path fill="url(#u)" d="M135.6 160.7c-.1-.3-.1-.6 0-.9l.5-1.1-.9 1.3c-.3.5-1 .6-1.5.3s-1.1-.7-1.6-1-.7-1-.4-1.6c0 0 0-.1.1-.1l.2-.2-.2.1c-.5.3-1.2.2-1.5-.4 0-.1-.1-.1-.1-.2l-.1-.3c-3.1 4.7-5.5 9.7-7.2 15h-4.1c2.3-5.9 5.7-11.3 10-15.8l-.3.3c-.3.2-.6.3-.9.3s-.6-.2-.8-.5l-.1-.2.1.3c.1.6-.3 1.2-.9 1.3h-.1c-.6 0-1.3.1-1.9.2-.6 0-1.1-.4-1.2-.9l-.2-1.5-.1 1.2c0 .3-.2.6-.4.8-.3.2-.6.3-.9.2-1.3-.2-2.7-.5-4-.9 2.5-5.9 7.8-5.7 10.5-5.2-.9-.7-1.9-1.3-3-1.6-.3-.1-.4-.3-.4-.6l.1-.9-.3.8c-.1.3-.4.4-.6.3-.9-.2-1.9-.3-2.9-.3-.3 0-.6-.2-.6-.5v-.9l-.2 1.2c0 .2-.2.4-.5.5-.8.2-1.6.4-2.4.8l.3-1.2c1.4-3.8 5.6-5.8 9.4-4.4.7.2 1.3.6 1.9 1-1-2.7.2-5.6.2-5.6s3 1.3 4.2 4.1c.4 1.2.6 2.4.4 3.6.5-1.1 1.3-2.1 2.3-2.9 2.4-1.7 5.7-1.3 5.7-1.3s-.6 3.3-3 5c-.3.2-.7.4-1.1.6 4-.3 7.5 2.7 7.9 6.7.1 1 0 2.1-.4 3.1-.2.4-.3.8-.5 1.2-.4-.8-.8-1.5-1.4-2.1-.2-.2-.2-.4-.1-.6l.6-1-.6.7c-.2.2-.6.2-.8 0-.7-.6-1.5-1.2-2.4-1.6-.3-.1-.4-.4-.3-.7l.3-.8-.5.8c-.1.2-.4.3-.6.2-.8-.3-1.7-.5-2.6-.6 2.5 1.2 5.2 3.7 4.9 8.5-1.3-.2-2.7-.5-4-.9-.6-.5-.9-.8-1-1.1z"/><linearGradient id="v" gradientUnits="userSpaceOnUse" x1="102" y1="788" x2="119" y2="788" gradientTransform="translate(0 -670)"><stop offset="0" style="stop-color:#451088"/><stop offset="1" style="stop-color:#593179"/></linearGradient><path fill="url(#v)" d="M102 117h17v2h-17z"/><path opacity=".15" fill="#FFF" d="M107 117h7v2h-7z"/><linearGradient id="w" gradientUnits="userSpaceOnUse" x1="58" y1="822" x2="43" y2="822" gradientTransform="translate(0 -670)"><stop offset="0" style="stop-color:#451088"/><stop offset="1" style="stop-color:#593179"/></linearGradient><path fill="url(#w)" d="M43 132h15v40H43z"/><linearGradient id="x" gradientUnits="userSpaceOnUse" x1="42" y1="795.5" x2="59" y2="795.5" gradientTransform="translate(0 -670)"><stop offset="0" style="stop-color:#451088"/><stop offset="1" style="stop-color:#593179"/></linearGradient><path fill="url(#x)" d="m42.9 132-.9-4 1-9h15l1 9-1 4z"/><path opacity=".1" fill="#FFF" d="m42 128 1-9h15l1 9z"/><linearGradient id="y" gradientUnits="userSpaceOnUse" x1="58.885" y1="779.7" x2="42.166" y2="779.7" gradientTransform="translate(0 -670)"><stop offset="0" style="stop-color:#451088"/><stop offset="1" style="stop-color:#593179"/></linearGradient><path fill="url(#y)" d="M51 117.4h-7.3c-1-1.1-1.6-2.5-1.5-4 .2-3.9 5.2-5.6 5.2-5.6l.1-.5 1.9-.9 1.3-4.4h.1l1 4.4 1.9.9.1.5s4.6 1.3 5.2 5.6c.3 2.3-1.8 4-1.8 4H51z"/><path opacity=".15" fill="#FFF" d="M50.8 117.4h-4.3c-.7-1.2-1-2.6-.9-4 .1-2.3 1.2-4.4 3.1-5.6l.1-.5 1.1-.9.8-4.4.6 4.4 1.1.9.1.5s2.7 1.3 3.1 5.6c.1 1.4-.3 2.8-1 4h-3.8z"/><circle opacity=".1" fill="#FFF" cx="50.5" cy="142.2" r="4.9"/><path opacity=".3" d="M54 159v-6.1c0-1.7-1.8-2.9-3.5-2.9s-3.5 1.3-3.5 3v6h-1v1h9v-1h-1z"/><linearGradient id="z" gradientUnits="userSpaceOnUse" x1="42" y1="788" x2="59" y2="788" gradientTransform="translate(0 -670)"><stop offset="0" style="stop-color:#451088"/><stop offset="1" style="stop-color:#593179"/></linearGradient><path fill="url(#z)" d="M42 117h17v2H42z"/><path opacity=".15" fill="#FFF" d="M47 117h7v2h-7z"/><linearGradient id="A" gradientUnits="userSpaceOnUse" x1="77.072" y1="751.3" x2="84.092" y2="751.3" gradientTransform="translate(0 -670)"><stop offset="0" style="stop-color:#451088"/><stop offset="1" style="stop-color:#593179"/></linearGradient><path fill="url(#A)" d="M84.1 79.9 83 77.7l-1.3 1.1-.5.2.1-.2.2-1.3.8-.5h-.8l-1-.1-1 .1-.7.2.7.4.2 1.3.2.2-.6-.3-1.3-1.1-1 2.4 1.1.5v3.1l1.6 1.8c.2.2.5.2.7.2 1 0 1.1-.5 1.1-.5l1.6-1.6-.1-3 1.1-.7z"/><linearGradient id="B" gradientUnits="userSpaceOnUse" x1="55" y1="808" x2="106" y2="808" gradientTransform="translate(0 -670)"><stop offset="0" style="stop-color:#451088"/><stop offset="1" style="stop-color:#593179"/></linearGradient><path fill="url(#B)" d="M57 164v-31h-1l-1-2 4-4h5v-15h33v15h5l4 4-1 2h-1v31z"/><linearGradient id="C" gradientUnits="userSpaceOnUse" x1="94.15" y1="769.95" x2="67.024" y2="769.95" gradientTransform="translate(0 -670)"><stop offset="0" style="stop-color:#451088"/><stop offset="1" style="stop-color:#593179"/></linearGradient><path fill="url(#C)" d="M81.3 110.2H69.5s-2.7-2.4-2.5-6.2c.3-6 8.4-8.7 8.4-8.7l.2-.8 2-1.4v-3.4h5.9v3.4l2 1.4.2.8s7.4 2 8.4 8.7c.5 3.6-2.9 6.2-2.9 6.2h-9.9z"/><linearGradient id="D" gradientUnits="userSpaceOnUse" x1="69" y1="781" x2="91" y2="781" gradientTransform="translate(0 -670)"><stop offset="0" style="stop-color:#451088"/><stop offset="1" style="stop-color:#593179"/></linearGradient><path fill="url(#D)" d="M69 110h22v2H69z"/><path opacity=".3" d="M70 110h1v2h-1zm2 0h1v2h-1zm2 0h1v2h-1zm2 0h1v2h-1zm2 0h1v2h-1zm2 0h1v2h-1zm2 0h1v2h-1zm2 0h1v2h-1zm2 0h1v2h-1zm2 0h1v2h-1zm2 0h1v2h-1z"/><path opacity=".1" fill="#FFF" d="M80.9 110.2h-5.6s-1.3-2.4-1.2-6.2c.2-6 4-8.7 4-8.7l.1-.8.8-1.5v-3h3v3l.9 1.5.1.8s3.5 2 4 8.7c.2 2.1-.3 4.3-1.4 6.2h-4.7z"/><path opacity=".3" d="M57.5 132.8h46.3V164H57.5z"/><linearGradient id="E" gradientUnits="userSpaceOnUse" x1="77" y1="757.5" x2="84" y2="757.5" gradientTransform="translate(0 -670)"><stop offset="0" style="stop-color:#451088"/><stop offset="1" style="stop-color:#593179"/></linearGradient><path fill="url(#E)" d="M77 85h7v5h-7z"/><path opacity=".1" fill="#FFF" d="M76.6 86h7.8c.3 0 .6.3.6.6v1.9c0 .3-.3.6-.6.6h-7.8c-.3 0-.6-.3-.6-.6v-1.9c0-.3.2-.6.6-.6z"/><path opacity=".15" fill="#FFF" d="m55 131 4-4h43l4 4z"/><path opacity=".1" fill="#FFF" d="M72 112h17v15H72z"/><path opacity=".3" d="M68 127v-10c0-1.5-.3-3-1-3s-1 1.5-1 3v10h2zm4 0v-10c0-1.5-.3-3-1-3s-1 1.5-1 3v10h2zm4 0v-10c0-1.5-.3-3-1-3s-1 1.5-1 3v10h2zm4 0v-10c0-1.5-.3-3-1-3s-1 1.5-1 3v10h2zm4 0v-10c0-1.5-.3-3-1-3s-1 1.5-1 3v10h2zm4 0v-10c0-1.5-.3-3-1-3s-1 1.5-1 3v10h2zm3 0v-10c0-1.5-.3-3-1-3s-1 1.5-1 3v10h2zm4 0v-10c0-1.5-.3-3-1-3s-1 1.5-1 3v10h2z"/><linearGradient id="F" gradientUnits="userSpaceOnUse" x1="109" y1="837.5" x2="52" y2="837.5" gradientTransform="translate(0 -670)"><stop offset="0" style="stop-color:#451088"/><stop offset="1" style="stop-color:#593179"/></linearGradient><path fill="url(#F)" d="m56 163-4 9h57l-4-9z"/><linearGradient id="G" gradientUnits="userSpaceOnUse" x1="75.971" y1="757.55" x2="85.019" y2="757.55" gradientTransform="translate(0 -670)"><stop offset="0" style="stop-color:#451088"/><stop offset="1" style="stop-color:#593179"/></linearGradient><path fill="url(#G)" d="M76.6 86h7.8c.3 0 .6.3.6.6v1.9c0 .3-.3.6-.6.6h-7.8c-.3 0-.6-.3-.6-.6v-1.9c0-.3.2-.6.6-.6z"/><linearGradient id="H" gradientUnits="userSpaceOnUse" x1="102.52" y1="793" x2="97.456" y2="793" gradientTransform="translate(0 -670)"><stop offset="0" style="stop-color:#451088"/><stop offset="1" style="stop-color:#593179"/></linearGradient><path fill="url(#H)" d="M100.1 126h-2.2c-.3-.5-.5-1-.5-1.6.1-1.5 1.6-2.2 1.6-2.2v-.2l.6-.4.4-1.7.3 1.7.6.4v.2c.9.4 1.5 1.2 1.6 2.2 0 .6-.2 1.1-.5 1.6h-1.9z"/><linearGradient id="I" gradientUnits="userSpaceOnUse" x1="101.895" y1="796.518" x2="97.858" y2="796.479" gradientTransform="translate(0 -670)"><stop offset="0" style="stop-color:#451088"/><stop offset="1" style="stop-color:#593179"/></linearGradient><path fill="url(#I)" d="M98 126h4v1h-4z"/><linearGradient id="J" gradientUnits="userSpaceOnUse" x1="82.512" y1="793" x2="77.444" y2="793" gradientTransform="translate(0 -670)"><stop offset="0" style="stop-color:#451088"/><stop offset="1" style="stop-color:#593179"/></linearGradient><path fill="url(#J)" d="M80.1 126h-2.2c-.3-.5-.5-1-.5-1.6.1-1.5 1.6-2.2 1.6-2.2v-.2l.6-.4.4-1.7.3 1.7.6.4v.2c.9.4 1.5 1.2 1.6 2.2 0 .6-.1 1.1-.5 1.6h-1.9z"/><linearGradient id="K" gradientUnits="userSpaceOnUse" x1="81.98" y1="796.465" x2="77.938" y2="796.536" gradientTransform="translate(0 -670)"><stop offset="0" style="stop-color:#451088"/><stop offset="1" style="stop-color:#593179"/></linearGradient><path fill="url(#K)" d="M78 126h4v1h-4z"/><linearGradient id="L" gradientUnits="userSpaceOnUse" x1="63.55" y1="793" x2="58.49" y2="793" gradientTransform="translate(0 -670)"><stop offset="0" style="stop-color:#451088"/><stop offset="1" style="stop-color:#593179"/></linearGradient><path fill="url(#L)" d="M61.2 126H59c-.3-.5-.5-1-.5-1.6.1-1.5 1.6-2.2 1.6-2.2v-.2l.6-.4.4-1.7.3 1.7.6.4v.2c.9.4 1.5 1.2 1.6 2.2 0 .6-.2 1.1-.5 1.6h-1.9z"/><linearGradient id="M" gradientUnits="userSpaceOnUse" x1="63.001" y1="796.503" x2="58.952" y2="796.497" gradientTransform="translate(0 -670)"><stop offset="0" style="stop-color:#451088"/><stop offset="1" style="stop-color:#593179"/></linearGradient><path fill="url(#M)" d="M59 126h4v1h-4z"/><linearGradient id="N" gradientUnits="userSpaceOnUse" x1="106" y1="818" x2="100" y2="818" gradientTransform="translate(0 -670)"><stop offset="0" style="stop-color:#451088"/><stop offset="1" style="stop-color:#593179"/></linearGradient><path fill="url(#N)" d="M105 137v-1h1v-3h-6v3h1v1h1v22h-1v1h-1v3h6v-3h-1v-1h-1v-22z"/><linearGradient id="O" gradientUnits="userSpaceOnUse" x1="100" y1="818" x2="94" y2="818" gradientTransform="translate(0 -670)"><stop offset="0" style="stop-color:#451088"/><stop offset="1" style="stop-color:#593179"/></linearGradient><path fill="url(#O)" d="M99 137v-1h1v-3h-6v3h1v1h1v22h-1v1h-1v3h6v-3h-1v-1h-1v-22z"/><linearGradient id="P" gradientUnits="userSpaceOnUse" x1="93" y1="818" x2="87" y2="818" gradientTransform="translate(0 -670)"><stop offset="0" style="stop-color:#451088"/><stop offset="1" style="stop-color:#593179"/></linearGradient><path fill="url(#P)" d="M92 137v-1h1v-3h-6v3h1v1h1v22h-1v1h-1v3h6v-3h-1v-1h-1v-22z"/><linearGradient id="Q" gradientUnits="userSpaceOnUse" x1="87" y1="818" x2="81" y2="818" gradientTransform="translate(0 -670)"><stop offset="0" style="stop-color:#451088"/><stop offset="1" style="stop-color:#593179"/></linearGradient><path fill="url(#Q)" d="M86 137v-1h1v-3h-6v3h1v1h1v22h-1v1h-1v3h6v-3h-1v-1h-1v-22z"/><linearGradient id="R" gradientUnits="userSpaceOnUse" x1="80" y1="818" x2="74" y2="818" gradientTransform="translate(0 -670)"><stop offset="0" style="stop-color:#451088"/><stop offset="1" style="stop-color:#593179"/></linearGradient><path fill="url(#R)" d="M79 137v-1h1v-3h-6v3h1v1h1v22h-1v1h-1v3h6v-3h-1v-1h-1v-22z"/><linearGradient id="S" gradientUnits="userSpaceOnUse" x1="74" y1="818" x2="68" y2="818" gradientTransform="translate(0 -670)"><stop offset="0" style="stop-color:#451088"/><stop offset="1" style="stop-color:#593179"/></linearGradient><path fill="url(#S)" d="M73 137v-1h1v-3h-6v3h1v1h1v22h-1v1h-1v3h6v-3h-1v-1h-1v-22z"/><linearGradient id="T" gradientUnits="userSpaceOnUse" x1="67" y1="818" x2="61" y2="818" gradientTransform="translate(0 -670)"><stop offset="0" style="stop-color:#451088"/><stop offset="1" style="stop-color:#593179"/></linearGradient><path fill="url(#T)" d="M66 137v-1h1v-3h-6v3h1v1h1v22h-1v1h-1v3h6v-3h-1v-1h-1v-22z"/><linearGradient id="U" gradientUnits="userSpaceOnUse" x1="61" y1="818" x2="55" y2="818" gradientTransform="translate(0 -670)"><stop offset="0" style="stop-color:#451088"/><stop offset="1" style="stop-color:#593179"/></linearGradient><path fill="url(#U)" d="M60 137v-1h1v-3h-6v3h1v1h1v22h-1v1h-1v3h6v-3h-1v-1h-1v-22z"/><path d="M105 137v-1h1v-3h-6v3h1v1h1v22h-1v1h-1v3h6v-3h-1v-1h-1v-22zm-6 0v-1h1v-3h-6v3h1v1h1v22h-1v1h-1v3h6v-3h-1v-1h-1v-22zm-7 0v-1h1v-3h-6v3h1v1h1v22h-1v1h-1v3h6v-3h-1v-1h-1v-22zm-6 0v-1h1v-3h-6v3h1v1h1v22h-1v1h-1v3h6v-3h-1v-1h-1v-22zm-7 0v-1h1v-3h-6v3h1v1h1v22h-1v1h-1v3h6v-3h-1v-1h-1v-22zm-6 0v-1h1v-3h-6v3h1v1h1v22h-1v1h-1v3h6v-3h-1v-1h-1v-22zm-7 0v-1h1v-3h-6v3h1v1h1v22h-1v1h-1v3h6v-3h-1v-1h-1v-22zm-6 0v-1h1v-3h-6v3h1v1h1v22h-1v1h-1v3h6v-3h-1v-1h-1v-22zm40.9-14.8v-.2l-.6-.4-.3-1.6-.4 1.7-.6.3v.2s-1.5.7-1.6 2.2c0 .6.2 1.1.5 1.6h.1v1h4v-1c.3-.5.5-1 .5-1.6-.1-.9-.7-1.7-1.6-2.2zm-19.9 0v-.2l-.6-.4-.4-1.6-.4 1.7-.6.3v.2s-1.5.7-1.6 2.2c0 .6.2 1.1.5 1.6v1h4v-1c.4-.5.5-1 .5-1.6.1-.9-.6-1.7-1.4-2.2zm-19 0v-.2l-.6-.4-.4-1.6-.4 1.7-.6.3v.2s-1.5.7-1.6 2.2c0 .6.2 1.1.5 1.6v1h4v-1c.3-.5.5-1 .5-1.6.1-.9-.6-1.7-1.4-2.2z" opacity=".15" fill="#FFF"/><path opacity=".3" d="M3 67h41v3H3z"/></svg>