<svg xmlns="http://www.w3.org/2000/svg" viewBox="0 0 26.458 4.985"><g style="display:inline;fill:#73ba25"><g style="fill:#73ba25"><path d="M0 0c-2.345 0-3.635-1.983-3.635-3.354v-1.759a3.23 3.23 0 0 1 3.178-3.27h5.37c.676 0 .818-.443.818-.817v-1.135c0-.121-.025-1.212-.818-1.212H-2.41c-.728 0-1.254-.506-1.254-1.199v-.314c0-.69.526-1.193 1.254-1.193h7.721c2.018 0 3.32 1.404 3.32 3.58v1.898c0 2.043-1.468 2.956-2.925 2.956H.423c-.795 0-1.155.597-1.155 1.018v1.049c0 .66.441 1.043 1.212 1.043h5.848c.717 0 1.257.515 1.257 1.196v.313c0 .684-.549 1.2-1.281 1.2Z" style="fill:#73ba25;fill-opacity:1;fill-rule:nonzero;stroke:none" transform="matrix(.2744 0 0 -.2744 11.078 0)"/></g><g style="fill:#73ba25"><path d="M0 0a1.254 1.254 0 0 1-1.252-1.257v-8.991c0-.72-.588-1.299-1.299-1.299h-4.081a1.3 1.3 0 0 0-1.299 1.299v8.991C-7.931-.563-8.494 0-9.187 0h-.395a1.246 1.246 0 0 1-1.256-1.257v-9.331c0-2.172 1.709-3.748 4.064-3.748h4.365c2.351 0 4.06 1.575 4.06 3.748v9.331C1.651-.555 1.1 0 .397 0Z" style="fill:#73ba25;fill-opacity:1;fill-rule:nonzero;stroke:none" transform="matrix(.2744 0 0 -.2744 17.102 0)"/></g><g style="fill:#73ba25"><path d="M0 0c-2.344 0-3.638-1.983-3.638-3.354v-1.759a3.233 3.233 0 0 1 3.183-3.27h5.368c.677 0 .819-.443.819-.817v-1.135c0-.121-.024-1.212-.819-1.212h-7.327c-.724 0-1.253-.506-1.253-1.199v-.314c0-.69.529-1.193 1.253-1.193H5.31c2.019 0 3.327 1.404 3.327 3.58v1.898c0 2.043-1.472 2.956-2.929 2.956H.425c-.798 0-1.157.597-1.157 1.018v1.049c0 .66.441 1.043 1.213 1.043h5.851c.716 0 1.253.515 1.253 1.196v.313c0 .684-.548 1.2-1.284 1.2Z" style="fill:#73ba25;fill-opacity:1;fill-rule:nonzero;stroke:none" transform="matrix(.2744 0 0 -.2744 19.246 0)"/></g><g style="fill:#73ba25"><path d="M0 0c-.696 0-1.222-.516-1.222-1.2v-11.859c0-.681.514-1.193 1.194-1.193h9.451c.728 0 1.254.503 1.254 1.193v.314c0 .693-.526 1.199-1.254 1.199h-7.74v3.019h5.672c.726 0 1.253.51 1.253 1.2v.313c0 .694-.527 1.197-1.253 1.197H1.683v3.109H9.03c.725 0 1.253.5 1.253 1.197v.313c0 .693-.528 1.2-1.253 1.2H0Z" style="fill:#73ba25;fill-opacity:1;fill-rule:nonzero;stroke:none" transform="matrix(.2744 0 0 -.2744 22.633 0)"/></g><g style="fill:#73ba25"><path d="M0 0v4.083c0 .479.393.87.874.87h2.254c.47 0 .87-.4.87-.87V0a.873.873 0 0 0-.87-.874H.857A.856.856 0 0 0 0 0m.626 6.352c-1.185 0-2.149-.922-2.149-2.058V-.178A2.09 2.09 0 0 1 .554-2.272h2.892c1.144 0 2.076.94 2.076 2.094v4.472c0 1.135-.964 2.058-2.148 2.058z" style="fill:#73ba25;fill-opacity:1;fill-rule:nonzero;stroke:none" transform="matrix(.2744 0 0 -.2744 .418 3.291)"/></g><g style="fill:#73ba25"><path d="M0 0v3.905c0 .54.422.961.961.961h2.112a.95.95 0 0 0 .961-.961V0a.963.963 0 0 0-.961-.961H.961A.963.963 0 0 0 0 0m2.893 6.316c-.834 0-1.462-.298-1.967-.542-.308-.147-.574-.275-.781-.275a.247.247 0 0 0-.215.112l-.193.368a.598.598 0 0 1-.479.285h-.286c-.275 0-.494-.246-.494-.548V-5.625a.63.63 0 0 1 .635-.636h.248c.352 0 .639.284.639.636v3.763c0 .112.072.232.145.232.207 0 .473-.121.781-.262.505-.232 1.133-.518 1.967-.518h.267c1.477 0 2.395.844 2.395 2.2v4.329c0 1.335-.938 2.197-2.395 2.197z" style="fill:#73ba25;fill-opacity:1;fill-rule:nonzero;stroke:none" transform="matrix(.2744 0 0 -.2744 2.936 3.267)"/></g><g style="fill:#73ba25"><path d="M0 0c0 .479.377.856.857.856H3.18A.845.845 0 0 0 4.032 0v-1.386H-.001L0 0Zm.625 2.254c-1.184 0-2.145-.922-2.145-2.058v-4.438c0-1.151.934-2.127 2.036-2.127h2.985c.368 0 .635.256.635.603v.195c0 .35-.267.6-.635.6H1.049c-.687 0-1.05.338-1.05.98v1.298h4.423c.712 0 1.132.434 1.132 1.169V.197c0 1.136-.963 2.058-2.142 2.058H.625Z" style="fill:#73ba25;fill-opacity:1;fill-rule:nonzero;stroke:none" transform="matrix(.2744 0 0 -.2744 5.463 2.167)"/></g><g style="fill:#73ba25"><path d="M0 0c-.831 0-1.459-.298-1.965-.54-.315-.148-.584-.277-.804-.277-.096 0-.135.012-.21.142l-.175.319a.524.524 0 0 1-.502.304h-.246c-.297 0-.513-.231-.513-.548v-7.439a.63.63 0 0 1 .637-.636h.246a.64.64 0 0 1 .64.636v5.628c0 .528.43.961.958.961H.179c.529 0 .96-.433.96-.961v-5.628c0-.353.28-.636.636-.636h.248a.64.64 0 0 1 .639.636v5.842C2.662-.862 1.723 0 .265 0Z" style="fill:#73ba25;fill-opacity:1;fill-rule:nonzero;stroke:none" transform="matrix(.2744 0 0 -.2744 8.673 1.534)"/></g><g style="fill:#73ba25"><path d="M0 0h.152c.172 0 .319.062.319.225C.471.34.387.456.152.456A.882.882 0 0 1 0 .444Zm0-.728h-.209V.586c.11.015.214.031.371.031.199 0 .33-.042.408-.099C.649.461.691.372.691.246c0-.173-.115-.277-.256-.319v-.012c.115-.02.193-.125.22-.319.031-.204.062-.283.083-.324h-.22C.487-.687.456-.566.43-.393c-.032.167-.116.23-.283.23H0ZM.22.952c-.518 0-.942-.445-.942-.994 0-.56.424-1 .947-1 .523-.005.942.44.942.994 0 .555-.419 1-.942 1zm.005.183A1.16 1.16 0 0 0 1.381-.043 1.16 1.16 0 0 0 .22-1.225c-.644 0-1.167.518-1.167 1.182A1.17 1.17 0 0 0 .22 1.135z" style="fill:#73ba25;fill-opacity:1;fill-rule:nonzero;stroke:none" transform="matrix(.2744 0 0 -.2744 26.08 3.435)"/></g></g></svg>