<svg xmlns="http://www.w3.org/2000/svg" viewBox="0 0 215 105"><g fill="none" fill-rule="evenodd"><path fill="#FFF" d="M0 0h215v105H0z"/><g fill="#184AE8"><path d="M42.04 80.315c0 .253-.025.501-.063.744l-.014.091a4.866 4.866 0 0 1-4.785 4.027 4.868 4.868 0 0 1-4.602-3.306l-20.23-11.679a6.483 6.483 0 0 1-3.241-5.614V44.907a7.426 7.426 0 0 0 2.383.397c.75 0 1.472-.113 2.155-.32v19.594c0 .692.372 1.337.973 1.683l18.871 10.896a4.85 4.85 0 0 1 3.691-1.705c1.606 0 3.028.785 3.915 1.99l.048.064c.062.088.12.178.177.27l.065.107a4.807 4.807 0 0 1 .316.653c.024.06.045.12.067.181.027.077.053.155.076.233.023.075.04.15.058.225.017.07.035.14.049.212.019.095.03.19.044.285.007.058.018.113.024.17.014.156.023.313.023.473Zm24.88-42.466a4.844 4.844 0 0 1-1.67 3.657v23.072a6.482 6.482 0 0 1-3.24 5.614L44.63 80.226a7.409 7.409 0 0 0-1.496-4.377l16.607-9.588c.6-.346.972-.99.972-1.683v-22.06a4.867 4.867 0 0 1-3.518-4.67 4.826 4.826 0 0 1 .982-2.917 4.76 4.76 0 0 1 .362-.428l.017-.019c.267-.278.565-.522.89-.73l.104-.064c.129-.077.26-.15.396-.215.04-.019.08-.04.12-.057.17-.077.345-.148.525-.204a4.84 4.84 0 0 1 1.467-.228 4.867 4.867 0 0 1 4.862 4.863ZM9.105 42.083a4.864 4.864 0 0 1-2.48-4.234 4.868 4.868 0 0 1 4.863-4.863c.695 0 1.355.15 1.954.414l20.494-11.833a6.478 6.478 0 0 1 6.483 0l17.483 10.094a7.488 7.488 0 0 0-2.83 3.605L38.15 25.497a1.944 1.944 0 0 0-1.945 0L16.272 37.006c.049.274.078.554.078.843a4.866 4.866 0 0 1-3.188 4.559l-.043.016a5.153 5.153 0 0 1-.45.136c-.03.008-.06.017-.091.023-.14.032-.283.058-.427.078-.04.005-.078.013-.118.017-.179.02-.36.033-.545.033a4.74 4.74 0 0 1-.586-.039c-.051-.006-.102-.015-.153-.023a4.7 4.7 0 0 1-.437-.087l-.132-.034a4.875 4.875 0 0 1-1.075-.445Z"/><path d="m47.5 35.07-.03 1.91c-.005.22-.152 4.936-5.746 9.863h6.8a6.163 6.163 0 0 1 6.156 6.156 6.163 6.163 0 0 1-6.156 6.156h-.319l-1.775 1.778c-.216.216-.505.33-.82.314l-2.177-.12-1.535 1.54a1.059 1.059 0 0 1-.824.315l-2.17-.12-1.535 1.54c-.217.217-.514.33-.823.315l-2.168-.123-1.535 1.54a1.077 1.077 0 0 1-.822.315l-2.653-.148a1.076 1.076 0 1 1 .12-2.15l2.17.121 1.536-1.54c.216-.218.521-.33.823-.315l2.168.122L37.72 61a1.07 1.07 0 0 1 .824-.315l2.17.121 1.536-1.54c.041-.042.088-.077.134-.111H25.312a6.163 6.163 0 0 1-6.155-6.156 6.163 6.163 0 0 1 6.155-6.156h2.035l-.005-.007L47.5 35.07Zm1.024 13.926H25.312a4.007 4.007 0 0 0-4.002 4.003 4.007 4.007 0 0 0 4.002 4.003h23.212a4.007 4.007 0 0 0 4.003-4.003 4.007 4.007 0 0 0-4.003-4.003Zm.355 1.547v1.495h1.496v2.153h-1.496v1.496h-2.153V54.19h-1.495v-2.153h1.495v-1.495h2.153Zm-4.094-11.395-13.184 7.695h6.839l-.064-.088c3.993-2.854 5.689-5.715 6.41-7.607Z"/></g><path fill="#6D7A99" fill-rule="nonzero" d="M78.565 38.821h2.079v.242a2.208 2.208 0 0 1-1.837.979 2.32 2.32 0 0 1-2.332-2.332 2.32 2.32 0 0 1 2.332-2.332c.748 0 1.408.341 1.837.88l1.793-1.21a4.591 4.591 0 0 0-3.63-1.793c-2.486 0-4.554 2.002-4.554 4.455 0 2.453 2.068 4.455 4.554 4.455.88 0 1.749-.33 2.167-.968V42h1.727v-5.005h-4.136v1.826Zm7.746-5.401V42H88.5v-2.299h1.122L91.25 42h2.629l-1.86-2.596c1.156-.528 1.695-1.65 1.695-2.849 0-1.705-1.012-3.135-3.212-3.135H86.31Zm4.07 2.002c.88 0 1.21.495 1.21 1.155 0 .594-.33 1.133-1.21 1.133H88.5v-2.288h1.88Zm9.505-2.002L96.41 42h2.398l.473-1.254h3.377l.473 1.254h2.398l-3.465-8.58h-2.178Zm2.024 5.335h-1.88l.945-2.519.935 2.519ZM108.688 42h2.2v-1.947h1.584c2.277 0 3.366-1.529 3.366-3.344 0-1.727-1.09-3.289-3.366-3.289h-3.784V42Zm3.663-6.578c.924 0 1.265.616 1.265 1.298 0 .759-.341 1.331-1.265 1.331h-1.463v-2.629h1.463Zm12.52-2.002v3.333h-3.499V33.42h-2.189V42h2.19v-3.19h3.497V42h2.2v-8.58h-2.2Zm5.61 4.29c0 2.2 1.673 4.048 3.807 4.389 1.485.495 2.486 2.035 4.213 2.035.78 0 1.782-.319 2.398-1.166l-1.661-1.342c-.231.352-.627.385-.748.385-.374 0-.726-.198-1.122-.473 1.33-.781 2.222-2.2 2.222-3.828 0-2.453-2.046-4.455-4.554-4.455-2.475 0-4.554 2.002-4.554 4.455Zm2.223 0a2.326 2.326 0 0 1 2.332-2.332 2.306 2.306 0 0 1 2.332 2.332 2.306 2.306 0 0 1-2.332 2.332 2.326 2.326 0 0 1-2.332-2.332ZM143.012 42v-8.58h2.19v6.457h4.113V42h-6.303Z"/><path fill="#050713" fill-rule="nonzero" d="M81.499 68.252V57.01h4.662v-3.722H73v3.722h4.662v11.242h3.837Zm14.923.288c4.374 0 7.943-3.492 7.943-7.77S100.796 53 96.422 53c-4.317 0-7.942 3.492-7.942 7.77s3.625 7.77 7.942 7.77Zm0-3.703a4.057 4.057 0 0 1-4.067-4.067 4.057 4.057 0 0 1 4.067-4.067c2.302 0 4.067 1.803 4.067 4.067 0 2.264-1.765 4.067-4.067 4.067Zm18.722 3.703c4.374 0 7.942-3.492 7.942-7.77S119.518 53 115.144 53c-4.317 0-7.943 3.492-7.943 7.77s3.626 7.77 7.943 7.77Zm0-3.703a4.057 4.057 0 0 1-4.067-4.067 4.057 4.057 0 0 1 4.067-4.067c2.302 0 4.067 1.803 4.067 4.067 0 2.264-1.765 4.067-4.067 4.067Zm22.482 3.415v-3.703h-7.175V53.288h-3.818v14.964h10.993Zm9.11.288c3.415 0 5.947-1.535 5.947-4.451 0-3.28-3.53-4.509-5.602-5.238-1.784-.614-2.475-.92-2.475-1.515 0-.5.518-1.017 1.823-1.017 1.554 0 2.302.863 2.302 1.592v.135h3.741v-.211c0-2.974-2.628-4.835-6.12-4.835-3.415 0-5.851 1.784-5.851 4.643 0 3.088 3.127 4.24 5.506 5.026 1.803.614 2.552.998 2.552 1.63 0 .442-.46.922-1.9.922-1.746 0-2.532-.787-2.532-1.362v-.096h-3.741v.172c0 2.936 2.762 4.605 6.35 4.605Z"/></g></svg>