<svg xmlns="http://www.w3.org/2000/svg" viewBox="0 0 80 80"><g fill="none" fill-rule="evenodd"><path fill="#7AA116" d="M0 0h80v80H0z"/><path fill="#FFF" d="M56.96 40.963v-3h-3v-2h4a1 1 0 0 1 1 1v4h-2Zm0 14h2v4a1 1 0 0 1-1 1h-4v-2h3v-3Zm-21-19h4v2h-3v3h-2v-4a1 1 0 0 1 1-1Zm8 2h6v-2h-6v2Zm-20 28h20v-20h-20v20Zm44-27.103c0-7.87-5.991-10.244-8.808-10.923-.427-3.812-2.383-6.552-5.313-7.389-2.071-.591-4.24-.066-5.886 1.345-.873-2.026-2.017-3.777-3.415-5.221-4.512-4.662-10.688-5.926-16.519-3.381-4.963 2.165-8.706 8.137-8.706 13.89 0 .344.011.689.033 1.033C16.635 29.133 12 31.736 12 38.775c0 .448.02.88.058 1.296.459 5.037 4.779 9.202 9.902 9.808v17.084a1 1 0 0 0 1 1h22a1 1 0 0 0 1-1v-7h4v-2h-4v-13a1 1 0 0 0-1-1h-22a1 1 0 0 0-1 1v2.899c-4.112-.589-7.542-3.935-7.91-7.972-.033-.358-.05-.729-.05-1.115 0-6.121 4.087-8.17 6.587-8.85a1 1 0 0 0 .821-1.1 14.292 14.292 0 0 1-.095-1.644c0-4.925 3.297-10.221 7.505-12.057 7.258-3.167 12.406 1 14.283 2.939 1.533 1.585 2.727 3.608 3.551 6.012a1.001 1.001 0 0 0 1.759.259c1.178-1.642 3.093-2.374 4.878-1.863 2.22.635 3.68 2.925 3.918 6.136l-.001.004a1 1 0 0 0 .815 1.131c2.387.423 7.939 2.158 7.939 9.118 0 6.561-4.85 8.416-7 8.92v-3.817h-2v4.999l-.001 1h.001v2.001h2v-2.156c2.463-.516 9-2.667 9-10.947Z"/></g></svg>