<svg xmlns="http://www.w3.org/2000/svg" fill="none" viewBox="0 0 47 47"><path fill="url(#a)" fill-rule="evenodd" d="M8.146 0H7.78c-.595.083-1.186.28-1.66.657a3.084 3.084 0 0 0-.056 4.835c.304.244.66.411 1.015.564.024.438.028.877.018 1.315a4587.26 4587.26 0 0 0 0 4.452c0 1.855 0 3.71-.003 5.565.003.316.03.674.277.904.231.245.587.272.904.275.442 0 .884 0 1.327-.002 1.592-.002 3.182-.004 4.773.004.008 1.27.008 2.542 0 3.813-.506 0-1.012.002-1.518.004-1.358.004-2.715.009-4.072-.015-.328-.904-1.024-1.692-1.956-1.992-1.36-.498-3.01.132-3.696 1.408-.702 1.201-.438 2.855.602 3.78.978.925 2.578 1.082 3.713.354.641-.378 1.072-1.017 1.337-1.7 1.35-.023 2.702-.018 4.053-.014.512.002 1.025.004 1.537.004.007 1.154.005 2.309.004 3.463-.002 1.184-.003 2.368.005 3.552-.02.447.29.901.75.959.329.04.66.036.99.031.206-.003.412-.006.617.002.007 1.818.008 3.636 0 5.453-1.24.011-2.481.008-3.721.005l-1.103-.003c-.318.003-.672.035-.906.277-.366.345-.344.999.047 1.317.249.223.598.229.915.234h.036c1.63-.005 3.26-.004 4.891-.002h.489c.336.001.722-.04.948-.324.225-.254.228-.605.23-.93l.002-.114a856.51 856.51 0 0 1 0-5.912 295.51 295.51 0 0 1 3.814 0l.003 1.518c.005 1.358.01 2.715-.014 4.072-.905.328-1.693 1.024-1.993 1.956-.497 1.362.133 3.01 1.409 3.696 1.202.702 2.855.438 3.78-.602.925-.978 1.082-2.578.354-3.714-.378-.64-1.017-1.072-1.7-1.336-.023-1.357-.018-2.715-.014-4.072.002-.506.004-1.012.004-1.518 1.168-.007 2.337-.006 3.506-.004h.003c1.168.001 2.337.003 3.505-.005.426.016.864-.256.947-.69.057-.346.05-.696.044-1.046a9.735 9.735 0 0 1 .002-.62c1.818-.008 3.636-.009 5.453 0 .009 1.651.008 3.303.006 4.955v3.139c-.003.318-.001.635 0 .953.004.546.008 1.092-.018 1.637-.792.292-1.502.849-1.859 1.629-.588 1.183-.287 2.72.696 3.602.505.477 1.179.735 1.861.824h.367c.714-.06 1.422-.328 1.95-.824 1.018-.91 1.3-2.526.635-3.721-.367-.723-1.048-1.228-1.794-1.511-.027-.86-.023-1.72-.018-2.58.003-.55.006-1.098 0-1.647v-2.585c0-1.507 0-3.013.002-4.52-.003-.316-.03-.674-.276-.904-.231-.245-.588-.272-.905-.275-.547 0-1.095 0-1.642.002-1.486.002-2.971.003-4.457-.004a295.51 295.51 0 0 1 0-3.813c.506 0 1.012-.002 1.518-.004a194.56 194.56 0 0 1 4.072.015c.264.682.696 1.321 1.337 1.699 1.135.728 2.735.572 3.713-.354 1.04-.924 1.304-2.578.602-3.78-.686-1.276-2.334-1.906-3.695-1.409-.932.3-1.629 1.088-1.957 1.993-1.357.024-2.714.02-4.071.015h-.001c-.506-.002-1.012-.004-1.518-.004a712.001 712.001 0 0 1-.004-4.134 1420.638 1420.638 0 0 0 .002-2.311c.005-.29.01-.579-.045-.863a.871.871 0 0 0-.78-.676 9.216 9.216 0 0 0-.933-.021c-.202.002-.404.004-.606-.002a604.344 604.344 0 0 1 0-5.453c1.24-.011 2.481-.008 3.721-.005h.001l1.101.003c.318-.003.673-.035.907-.278.365-.344.343-.998-.046-1.316-.246-.222-.593-.228-.908-.233l-.046-.001c-1.76.005-3.522.005-5.283 0h-.049c-.314.006-.66.012-.904.235-.253.204-.317.545-.319.853-.002.879 0 1.758 0 2.636.001 1.186.003 2.372-.004 3.558a295.51 295.51 0 0 1-3.813 0c0-.512-.002-1.024-.004-1.537-.005-1.351-.01-2.702.014-4.053.683-.265 1.322-.696 1.7-1.336.728-1.136.571-2.736-.354-3.714-.924-1.04-2.578-1.304-3.78-.602-1.276.686-1.906 2.334-1.409 3.696.3.932 1.088 1.628 1.993 1.956.024 1.357.02 2.714.015 4.071v.001c-.002.506-.004 1.012-.004 1.518-1.378.007-2.756.005-4.134.004H16.29c-.118.002-.236 0-.354-.002-.29-.005-.578-.01-.863.045a.87.87 0 0 0-.674.772c-.03.314-.026.629-.022.944.002.2.004.402-.002.603-1.818.007-3.636.008-5.453 0-.009-1.769-.008-3.537-.006-5.306v-.001c0-1.415.002-2.83-.002-4.244-.006-.377.002-.756.02-1.134.641-.25 1.249-.64 1.628-1.228.75-1.066.693-2.605-.117-3.622C9.904.488 9.035.065 8.146 0ZM6.738 3.094c-.011-.56.4-1.09.94-1.228.708-.213 1.508.32 1.589 1.052.126.735-.515 1.47-1.259 1.446-.678.019-1.289-.592-1.27-1.27Zm15.289 2.731a1.277 1.277 0 0 1 .94-1.231c.708-.214 1.509.321 1.588 1.054.125.734-.516 1.467-1.259 1.444-.677.017-1.286-.59-1.27-1.267ZM4.552 23.296c-.012-.56.4-1.09.943-1.227.71-.213 1.511.327 1.586 1.063.119.729-.518 1.456-1.257 1.434-.679.021-1.291-.59-1.272-1.27Zm34.95 0a1.277 1.277 0 0 1 .938-1.226c.707-.215 1.51.318 1.59 1.05.127.736-.517 1.471-1.261 1.446-.677.017-1.285-.592-1.268-1.27Zm-9.108 7.098c-4.731.002-9.464.002-14.195 0-.002-4.731-.002-9.463 0-14.195 4.731-.002 9.463-.002 14.195 0 .002 4.731.002 9.464 0 14.195ZM22.03 40.68a1.277 1.277 0 0 1 1.024-1.156c.717-.162 1.478.421 1.51 1.156.072.709-.556 1.383-1.268 1.361-.712.022-1.34-.652-1.266-1.361Zm15.284 2.819c-.01-.56.4-1.09.941-1.228.707-.214 1.507.32 1.588 1.052.127.735-.515 1.47-1.258 1.446-.678.019-1.289-.592-1.27-1.27Zm7.861-38.08c-1.229-.83-3.029-.582-3.988.548-.972 1.062-1.029 2.81-.125 3.93.831 1.112 2.452 1.516 3.707.921 1.052-.456 1.755-1.538 1.824-2.672v-.367c-.105-.943-.605-1.85-1.418-2.36ZM42.23 8.01c-.011-.561.4-1.09.94-1.228.708-.213 1.508.32 1.589 1.052.126.734-.515 1.47-1.259 1.446-.678.018-1.288-.593-1.27-1.27Zm-4.247-.88c.637-.174 1.28.515 1.054 1.138-.167.643-1.082.855-1.516.352-.478-.467-.197-1.375.462-1.49ZM23.584 19.11c-1.21-.003-2.42-.006-3.63.015-.584.022-.92.63-.845 1.165.002 1.308.002 2.617.002 3.925v2.182c-.002.29.052.601.27.81.209.222.525.278.816.276h6.201c.288 0 .6-.053.808-.272.223-.208.28-.524.277-.816v-6.197c.006-.313-.069-.654-.324-.86-.256-.231-.614-.23-.942-.23h-.1c-.844.006-1.688.004-2.533.002Zm-2.654 6.553V20.93h4.733v4.733H20.93ZM1.952 35.72c1.341-.566 3.025-.007 3.766 1.244.778 1.209.54 2.936-.535 3.89-1.025.977-2.732 1.085-3.873.247C.534 40.564.066 39.657 0 38.723v-.366c.114-1.147.862-2.223 1.952-2.637Zm.813 1.637a1.278 1.278 0 0 0-.941 1.228c-.019.678.591 1.288 1.27 1.27.744.024 1.385-.711 1.259-1.446-.081-.731-.881-1.266-1.588-1.052Zm6.513 1.487c.218-.62-.418-1.303-1.051-1.133-.658.113-.945 1.02-.466 1.488.433.509 1.354.291 1.517-.355Z" clip-rule="evenodd"/><defs><linearGradient id="a" x1="-2.433" x2="58.786" y1="-2.369" y2="16.839" gradientUnits="userSpaceOnUse"><stop offset=".245" stop-color="#4E5CA8"/><stop offset="1" stop-color="#1FC3F3"/></linearGradient></defs></svg>