<svg xmlns="http://www.w3.org/2000/svg" fill="none" viewBox="0 0 46 46"><path fill="url(#a)" fill-rule="evenodd" d="M11.06 22.193c.366-2.54 2.55-4.5 5.19-4.5a5.256 5.256 0 0 1 5.25 5.25 5.256 5.256 0 0 1-5.25 5.25c-2.64 0-4.824-1.96-5.19-4.5H9.875C5.532 23.693 2 27.226 2 31.568c0 4.343 3.532 7.875 7.875 7.875h1.565l-.97-.97 1.06-1.06 2.25 2.25a.747.747 0 0 1 0 1.06l-2.25 2.25-1.06-1.06.97-.97H9.875C4.705 40.943.5 36.738.5 31.568c0-5.169 4.206-9.375 9.375-9.375h1.185Zm23.94 18a.747.747 0 0 0-.22-.53l-2.25-2.25-1.06 1.06.97.97h-8c-.366-2.54-2.55-4.5-5.19-4.5a5.256 5.256 0 0 0-5.25 5.25 5.256 5.256 0 0 0 5.25 5.25c2.64 0 4.824-1.96 5.19-4.5h8l-.97.97 1.06 1.06 2.25-2.25a.747.747 0 0 0 .22-.53Zm0 0a5.256 5.256 0 0 0 5.25 5.25 5.256 5.256 0 0 0 5.25-5.25 5.256 5.256 0 0 0-5.25-5.25 5.256 5.256 0 0 0-5.25 5.25Zm-13.5-34.5a.747.747 0 0 1-.22.53l-2.25 2.25-1.06-1.06.97-.97h-8c-.366 2.54-2.55 4.5-5.19 4.5A5.256 5.256 0 0 1 .5 5.693 5.256 5.256 0 0 1 5.75.443c2.64 0 4.824 1.96 5.19 4.5h8l-.97-.97 1.06-1.06 2.25 2.25c.147.147.22.338.22.53Zm0 0a5.256 5.256 0 0 0 5.25 5.25c2.64 0 4.824-1.96 5.19-4.5h4.185c4.343 0 7.875 3.533 7.875 7.875 0 4.342-3.532 7.875-7.875 7.875H24.061l.97-.97-1.061-1.06-2.25 2.25a.747.747 0 0 0 0 1.06l2.25 2.25 1.06-1.06-.97-.97h12.065c5.17 0 9.375-4.205 9.375-9.375s-4.206-9.375-9.375-9.375H31.94c-.366-2.54-2.55-4.5-5.19-4.5a5.256 5.256 0 0 0-5.25 5.25Zm-9 17.25a3.754 3.754 0 0 0 3.75 3.75 3.754 3.754 0 0 0 3.75-3.75 3.754 3.754 0 0 0-3.75-3.75 3.754 3.754 0 0 0-3.75 3.75ZM2 5.693a3.754 3.754 0 0 0 3.75 3.75 3.754 3.754 0 0 0 3.75-3.75 3.754 3.754 0 0 0-3.75-3.75A3.754 3.754 0 0 0 2 5.693Zm21 0a3.754 3.754 0 0 0 3.75 3.75 3.754 3.754 0 0 0 3.75-3.75 3.754 3.754 0 0 0-3.75-3.75A3.754 3.754 0 0 0 23 5.693Zm0 34.5a3.754 3.754 0 0 0-3.75-3.75 3.754 3.754 0 0 0-3.75 3.75 3.754 3.754 0 0 0 3.75 3.75 3.754 3.754 0 0 0 3.75-3.75Zm21 0a3.754 3.754 0 0 0-3.75-3.75 3.754 3.754 0 0 0-3.75 3.75 3.754 3.754 0 0 0 3.75 3.75 3.754 3.754 0 0 0 3.75-3.75Z" clip-rule="evenodd"/><defs><linearGradient id="a" x1="-19.032" x2="90.554" y1="-50.529" y2="25.021" gradientUnits="userSpaceOnUse"><stop offset=".068" stop-color="#3D65AF"/><stop offset=".354" stop-color="#2372B8"/><stop offset=".807" stop-color="#00B8BB"/></linearGradient></defs></svg>