<svg xmlns="http://www.w3.org/2000/svg" fill="none" viewBox="0 0 60 61"><path fill="url(#a)" fill-rule="evenodd" d="M14.68 33.597h13.59v3.883H7.884a.971.971 0 0 0-.971.971v4.855h1.942v-3.884H28.27v3.884h1.942v-3.884h19.416v3.884h1.941V38.45a.971.971 0 0 0-.97-.97H30.212v-3.884h13.591a10.68 10.68 0 0 0 2.563-21.038 9.707 9.707 0 0 0-9.358-7.116c-.826 0-1.649.108-2.447.32a12.621 12.621 0 0 0-22.794 6.874 10.678 10.678 0 0 0 2.912 20.96Zm-1.738-19.242a.97.97 0 0 0 .776-.97l-.01-.175a10.68 10.68 0 0 1 19.65-5.825.97.97 0 0 0 1.126.388 7.766 7.766 0 0 1 10.125 5.757.97.97 0 0 0 .777.767 8.737 8.737 0 0 1-1.583 17.358H14.68a8.737 8.737 0 0 1-1.737-17.3Zm9.558 3.362v1.75h2.45c.088.613.35 1.225.7 1.75l-1.75 1.75 1.225 1.225 1.75-1.75c.525.35 1.137.613 1.75.7v2.45h1.75v-2.45c.613-.087 1.225-.35 1.75-.7l1.75 1.75 1.225-1.225-1.75-1.75c.35-.525.612-1.137.7-1.75h2.45v-1.75h-2.45c-.087-.612-.35-1.225-.7-1.75l1.75-1.75-1.225-1.225-1.75 1.75c-.525-.35-1.137-.612-1.75-.7v-2.45h-1.75v2.45c-.613.088-1.225.35-1.75.7l-1.75-1.75-1.225 1.225 1.75 1.75c-.35.525-.612 1.138-.7 1.75H22.5Zm7-2.012c1.575 0 2.888 1.312 2.888 2.887S31.075 21.48 29.5 21.48s-2.887-1.313-2.887-2.888 1.312-2.887 2.887-2.887ZM24.387 4.473v1.942a6.795 6.795 0 0 0-6.795 6.796H15.65a8.738 8.738 0 0 1 8.737-8.738ZM15.93 45.694a1.466 1.466 0 0 1 1.422 1.158c.04.166.035.336.03.506a6.51 6.51 0 0 0-.004.146c.008.85.008 1.702.007 2.553v6.139c0 .319-.106.638-.302.89a1.458 1.458 0 0 1-.866.544 2.724 2.724 0 0 1-.565.03 773.084 773.084 0 0 1-3.076 0h-.004c-1.047-.001-2.095-.002-3.142.001l-.001.686-.001.788.068.038v.101c-.001.046-.002.092 0 .138a.978.978 0 0 0 .01-.23v-.022l.137-.015-.019.037-.04.086.078-.001c.055-.002.11-.004.163.01a.201.201 0 0 1-.062.108c-.044-.002-.085-.02-.125-.036l-.06-.023c.055.03.112.058.174.072a.271.271 0 0 0 .106-.158c-.02-.024-.034-.05-.048-.078l-.009-.017c.163 0 .325.003.488.007.162.004.325.007.488.008.066.003.133-.001.2-.005.142-.008.285-.016.42.04a.698.698 0 0 1 .437.683c.337-.004.674-.003 1.012-.002h.219c-.003.168-.003.336-.002.504v.212H4.317V59.877h.18c.324-.002.65-.003.975.001a.683.683 0 0 1 .656-.728c.131-.002.263-.001.395-.001l.376-.001c.2.013.4.012.6.01.167 0 .335-.001.503.006.001-.502.002-1.005 0-1.508-1.02.004-2.04.004-3.059.003-.968 0-1.937 0-2.905.002-.2 0-.404-.022-.592-.096a1.468 1.468 0 0 1-.916-1.083c-.03-.134-.03-.272-.029-.408V48.09c.01-.113.006-.225.003-.338-.003-.092-.006-.184-.002-.276.006-.077.005-.154.003-.231-.003-.117-.006-.235.02-.35a1.47 1.47 0 0 1 1.078-1.156c.169-.048.345-.046.52-.045H15.93Zm.482 1.62c.002-.122.004-.243-.046-.355a.495.495 0 0 0-.462-.288H2.067a.73.73 0 0 0-.251.026.52.52 0 0 0-.341.38c-.01.123-.006.245-.002.367.003.109.006.218 0 .327.004 1.72.003 3.442.003 5.163v1.833h14.937c-.002-.947-.001-1.894-.001-2.84v-2.339c-.001-.353-.003-.706.006-1.059.061.06.12.018.128-.055 0-.014 0-.028-.002-.042v-.012a.11.11 0 0 0-.022-.051c-.009-.014-.018-.028-.02-.045l-.089.026c-.004-.265 0-.53.003-.796l.001-.045a1.53 1.53 0 0 1-.005-.195Zm-7.013 8.8a.649.649 0 0 0-.493-.623.644.644 0 0 0-.632 1.056.64.64 0 0 0 .564.211.647.647 0 0 0 .561-.644Zm28.118-10.22a1.442 1.442 0 0 0-.728-.2H22.98c-.174-.001-.35-.003-.52.045a1.471 1.471 0 0 0-1.097 1.506c.002.077.004.154-.003.231-.004.092 0 .184.002.276.004.113.007.225-.002.338v7.984c0 .136-.001.274.029.408.091.488.453.911.915 1.083.188.075.392.097.592.096.969-.003 1.937-.002 2.906-.002 1.02 0 2.038.001 3.058-.002.002.502.002 1.005 0 1.507-.167-.007-.335-.006-.503-.005-.2 0-.4.002-.6-.011h-.376c-.132 0-.263 0-.395.002a.683.683 0 0 0-.656.728c-.325-.004-.65-.003-.975-.002h-.18v.716h8.746v-.213c0-.167-.001-.335.002-.502l-.22-.001c-.337 0-.674-.002-1.011.002a.698.698 0 0 0-.437-.683c-.135-.056-.277-.048-.42-.04-.067.004-.134.008-.2.005-.163 0-.325-.004-.488-.008-.162-.004-.325-.007-.487-.008l.009.018a.427.427 0 0 0 .047.078.271.271 0 0 1-.106.158.706.706 0 0 1-.175-.072l.061.023c.04.017.081.034.125.036a.201.201 0 0 0 .062-.107c-.053-.015-.108-.013-.163-.011-.026 0-.053.002-.078.001l.015-.034.026-.052.018-.038-.137.016.001.022a.978.978 0 0 1-.01.23c-.002-.046-.002-.092-.001-.138v-.102l-.068-.037c.002-.263.002-.526.001-.788v-.686c1.049-.003 2.096-.002 3.144-.002h.003a773.084 773.084 0 0 0 3.076 0c.19.004.379.007.565-.029.341-.068.655-.266.866-.544.196-.252.302-.572.302-.89v-6.14c0-.851.002-1.702-.007-2.552 0-.049.002-.098.004-.146.005-.17.01-.34-.03-.506a1.466 1.466 0 0 0-.693-.959Zm-.292 1.065c.05.112.047.233.045.355a1.55 1.55 0 0 0 .005.195v.045c-.004.265-.008.53-.003.796l.087-.026c.003.017.012.03.021.045.01.015.02.03.022.05l.002.055c-.007.073-.066.115-.128.055-.008.353-.007.706-.006 1.059 0 .212.002.423 0 .635v1.704l.001 2.84H22.334v-1.835c0-1.72.001-3.44-.003-5.161a3.54 3.54 0 0 0 0-.327 3.187 3.187 0 0 1 .002-.366.52.52 0 0 1 .341-.382.73.73 0 0 1 .25-.025h13.838a.495.495 0 0 1 .463.288Zm-7.461 8.532a.646.646 0 0 1-.067 1.267.64.64 0 0 1-.666-.908.644.644 0 0 1 .733-.359Zm27.883-9.797a1.465 1.465 0 0 1 1.422 1.158c.04.166.035.336.029.506l-.004.146c.009.85.008 1.702.007 2.553v6.139c0 .319-.105.638-.301.89a1.458 1.458 0 0 1-.867.544 2.723 2.723 0 0 1-.564.03 773.084 773.084 0 0 1-3.077 0h-.003c-1.048-.001-2.095-.002-3.143.001v.686c0 .262 0 .525-.002.788l.068.038v.101c0 .046-.001.092.001.138a.979.979 0 0 0 .01-.23v-.022l.065-.007.072-.008-.038.077-.012.023-.01.023.078-.001c.055-.002.11-.004.164.01a.201.201 0 0 1-.063.108c-.044-.002-.084-.02-.125-.036a.77.77 0 0 0-.06-.023c.056.03.113.058.175.072a.271.271 0 0 0 .106-.158c-.02-.024-.034-.05-.048-.078l-.01-.017c.163 0 .326.003.489.007.162.004.325.007.487.008.066.003.133-.001.2-.005.143-.008.286-.016.42.04a.698.698 0 0 1 .437.683c.337-.004.675-.003 1.012-.002h.22c-.004.168-.003.335-.003.503V60.592h-8.746V59.877h.18c.325-.002.65-.003.975.001a.683.683 0 0 1 .656-.728c.132-.002.264-.001.395-.001l.377-.001c.2.013.399.012.599.01.168 0 .336-.001.504.006v-1.508c-1.02.004-2.04.004-3.06.003-.968 0-1.936 0-2.904.002-.2 0-.405-.022-.593-.096a1.468 1.468 0 0 1-.915-1.083c-.03-.134-.03-.272-.03-.408V52.41l.001-4.32c.01-.113.006-.225.002-.338-.003-.092-.005-.184-.002-.276.007-.077.005-.154.003-.231-.003-.117-.006-.235.02-.35a1.471 1.471 0 0 1 1.078-1.156c.17-.048.345-.046.52-.045h13.808Zm.482 1.62c.002-.122.004-.243-.046-.355a.495.495 0 0 0-.462-.288H43.783a.73.73 0 0 0-.25.026.52.52 0 0 0-.342.38c-.01.123-.006.245-.002.367.004.109.007.218 0 .327.004 1.72.004 3.442.003 5.163V54.767h14.937c-.001-.948 0-1.895 0-2.842V49.588c-.002-.353-.003-.706.006-1.059.06.06.12.018.127-.055 0-.018 0-.036-.002-.054a.112.112 0 0 0-.021-.051c-.01-.014-.018-.028-.021-.045l-.088.026c-.005-.265 0-.53.003-.796v-.045c-.007-.064-.005-.13-.004-.195Zm-7.013 8.8a.649.649 0 0 0-.494-.623.644.644 0 0 0-.632 1.056.64.64 0 0 0 .565.211.647.647 0 0 0 .56-.644Z" clip-rule="evenodd"/><defs><linearGradient id="a" x1="-24.936" x2="119.923" y1="-67.37" y2="30.169" gradientUnits="userSpaceOnUse"><stop offset=".068" stop-color="#3D65AF"/><stop offset=".354" stop-color="#2372B8"/><stop offset=".807" stop-color="#00B8BB"/></linearGradient></defs></svg>