<svg xmlns="http://www.w3.org/2000/svg" fill="none" viewBox="0 0 47 47"><path fill="url(#a)" fill-rule="evenodd" d="M27.436 0h.088c.176.037.35.09.516.163l7.843 3.608.003.002.003.001L45.99 8.422c.33.131.56.44.602.793V23.27c-.096 3.109-.306 6.307-1.577 9.19-1.169 2.79-3.184 5.148-5.495 7.065-.24.184-.475.373-.71.562-.507.406-1.014.813-1.56 1.167-2.92 2.063-6.11 3.714-9.342 5.227a2.733 2.733 0 0 1-.38.112h-.091c-.309-.06-.59-.198-.868-.337a12.38 12.38 0 0 0-.204-.1c-3-1.417-5.934-3-8.654-4.905-1.826-1.294-3.567-2.734-5.022-4.442a6.66 6.66 0 0 0-.127-.142c-.212-.235-.434-.48-.448-.81-.026-.308.137-.592.361-.79.215-.121.467-.205.715-.148.297.05.5.281.691.498l.055.062c1.002 1.206 2.171 2.264 3.399 3.235 1.81 1.419 3.77 2.638 5.779 3.755v-6.07c-.319-.21-.64-.419-.96-.627-.449-.29-.898-.582-1.342-.882-.733.575-1.715.835-2.629.607-1.17-.255-2.12-1.273-2.303-2.456a3.027 3.027 0 0 1 3.32-3.504c.96.096 1.854.69 2.321 1.534.397.695.467 1.539.28 2.309.53.333 1.056.676 1.582 1.02.349.228.697.456 1.048.681.302.175.514.5.5.857 0 .545 0 1.09.002 1.637.002 1.95.005 3.9-.007 5.851.356.186.717.363 1.078.54l.568.28v-9.244c-.001-4.723-.002-9.447.004-14.17-.034-.564.524-1.067 1.082-.933.478.077.774.568.733 1.03v11.659c0 3.886 0 7.772.002 11.658 2.464-1.21 4.896-2.5 7.179-4.031 1.281-.883 2.539-1.81 3.668-2.881 2.043-1.86 3.743-4.177 4.571-6.836.798-2.414.877-4.978.954-7.499l.007-.247c-.002-1.676-.001-3.352 0-5.028v-.002c.002-2.622.003-5.244-.007-7.866-3.55-1.624-7.094-3.256-10.64-4.888l-.001-.001c-2.214-1.02-4.428-2.039-6.642-3.056l-6.784 3.121c-3.5 1.611-7 3.222-10.501 4.826-.008.475-.007.95-.006 1.425v.806c1.814-.305 3.733.033 5.312.983 2.03 1.188 3.456 3.331 3.772 5.66 2.025-.234 4.099 1.106 4.694 3.058.427 1.184.251 2.543-.386 3.619-.77 1.35-2.295 2.217-3.848 2.217-2.153.003-4.306.002-6.46.002H9.584c-.702-.007-1.404-.003-2.107 0-1.18.006-2.36.012-3.538-.03v6.779c.665.237 1.275.649 1.647 1.261.663 1.001.636 2.402-.065 3.376-.712 1.047-2.112 1.544-3.324 1.174C.952 39.85.04 38.648 0 37.365v-.188c.048-.787.378-1.554.952-2.1.309-.327.728-.505 1.134-.677l.03-.013c.003-2.477.004-4.954 0-7.43C.876 26.193.068 24.804 0 23.35v-.291c.051-.9.329-1.798.875-2.523.682-.942 1.748-1.571 2.888-1.772.111-.704.284-1.4.571-2.053.767-1.805 2.25-3.28 4.037-4.074.003-.469.002-.938 0-1.407 0-.653-.002-1.305.007-1.958-.003-.375.253-.71.594-.85 3.246-1.495 6.494-2.988 9.74-4.482l.006-.002h.002L26.927.161a2.78 2.78 0 0 1 .51-.162ZM9.758 14.129c-.127.102-.282.123-.438.144-.138.019-.276.037-.395.113-1.764.817-3.034 2.553-3.333 4.469.798.238 1.582.646 2.118 1.297.384.505.03 1.32-.597 1.395-.4.088-.732-.189-1.011-.43-.883-.742-2.262-.77-3.183-.08-.847.594-1.267 1.716-1.024 2.722.25 1.162 1.363 2.052 2.552 2.043 2.947.008 5.895.007 8.842.006 2.033-.001 4.066-.002 6.098 0 .425.003.861-.016 1.264-.168.941-.335 1.644-1.248 1.716-2.245a2.634 2.634 0 0 0-3.441-2.727 2.647 2.647 0 0 0-1.625 1.538c-.13.357-.437.667-.835.686-.593.06-1.122-.57-.931-1.142.311-1.028 1.061-1.887 1.971-2.438a6.033 6.033 0 0 0-1.988-3.983 5.975 5.975 0 0 0-4.79-1.474c-.087.019-.176.032-.265.045-.25.037-.501.074-.705.229Zm8.851 17.23c-.623.126-1.068.793-.932 1.416.106.613.732 1.073 1.35.976.649-.064 1.152-.72 1.047-1.363-.066-.685-.799-1.196-1.465-1.029ZM2.777 36.091c-.623.125-1.069.795-.931 1.418.107.612.732 1.071 1.35.974.648-.064 1.152-.722 1.047-1.365-.068-.684-.8-1.194-1.466-1.027Zm24.02-27.11c.968-.188 2.015.04 2.791.655a3.421 3.421 0 0 1 1.33 2.464c.097 1.059-.352 2.143-1.15 2.843a3.424 3.424 0 0 1-2.56.855 3.415 3.415 0 0 1-2.336-1.19 3.416 3.416 0 0 1-.805-2.692c.161-1.43 1.323-2.658 2.73-2.935Zm.266 1.804c-.64.162-1.14.748-1.203 1.405a1.631 1.631 0 0 0 2.624 1.463c.523-.394.76-1.118.568-1.745-.222-.83-1.163-1.364-1.99-1.123Zm11.435 5.252a3.014 3.014 0 0 0-2.265.723c-.717.606-1.09 1.555-1.05 2.486-1.536.774-3.072 1.55-4.607 2.328a.94.94 0 0 0-.542.9c-.002 1.76-.002 3.519-.001 5.278 0 1.76 0 3.52-.002 5.28.001.278.012.584.196.81.276.39.876.47 1.25.177.287-.196.385-.561.377-.892v-3.608c-.002-2.186-.003-4.373.004-6.56.784-.39 1.566-.785 2.347-1.18.545-.277 1.09-.552 1.636-.827.658.788 1.71 1.243 2.736 1.103 1.153-.122 2.182-.976 2.521-2.083a3.026 3.026 0 0 0-.246-2.41 3.02 3.02 0 0 0-2.354-1.526Zm-1.495 3.155c-.086-.606.356-1.213.951-1.335.716-.179 1.495.425 1.476 1.169.038.66-.553 1.257-1.21 1.245-.603.014-1.16-.478-1.217-1.079Zm-9.605-2.431c.544-.07 1.063.448.977.994-.038.495-.547.877-1.03.785a.894.894 0 0 1-.749-.752c-.09-.49.305-.994.802-1.027ZM9.945 29.558c-.33-.24-.8-.36-1.158-.108-.482.281-.558 1.028-.141 1.4.366.378 1.054.32 1.35-.117.159-.179.146-.41.133-.637-.005-.075-.01-.15-.007-.22-.026-.051-.054-.1-.083-.148a2.481 2.481 0 0 1-.094-.17Z" clip-rule="evenodd"/><defs><linearGradient id="a" x1="-2.433" x2="58.786" y1="-2.369" y2="16.839" gradientUnits="userSpaceOnUse"><stop offset=".245" stop-color="#4E5CA8"/><stop offset="1" stop-color="#1FC3F3"/></linearGradient></defs></svg>