<svg xmlns="http://www.w3.org/2000/svg" viewBox="0 0 80 80"><g fill="none" fill-rule="evenodd"><path fill="#8C4FFF" d="M0 0h80v80H0z"/><path fill="#FFF" d="m32.707 21.707-1.414-1.414 8-8a.999.999 0 0 1 1.414 0l8 8-1.414 1.414L40 14.414l-7.293 7.293Zm35 19-8 8-1.414-1.414L65.586 40l-7.293-7.293 1.414-1.414 8 8a.999.999 0 0 1 0 1.414ZM47.293 58.293l1.414 1.414-8 8a.997.997 0 0 1-1.414 0l-8-8 1.414-1.414L40 65.586l7.293-7.293Zm-25.586-11-1.414 1.414-8-8a.999.999 0 0 1 0-1.414l8-8 1.414 1.414L14.414 40l7.293 7.293ZM53.5 57c-1.93 0-3.5-1.57-3.5-3.5s1.57-3.5 3.5-3.5 3.5 1.57 3.5 3.5-1.57 3.5-3.5 3.5Zm-4.893-6H31.393A5.532 5.532 0 0 0 29 48.607V31.393A5.532 5.532 0 0 0 31.393 29h17.214A5.532 5.532 0 0 0 51 31.393v17.214A5.532 5.532 0 0 0 48.607 51ZM26.5 57c-1.93 0-3.5-1.57-3.5-3.5s1.57-3.5 3.5-3.5 3.5 1.57 3.5 3.5-1.57 3.5-3.5 3.5ZM23 26.5c0-1.93 1.57-3.5 3.5-3.5s3.5 1.57 3.5 3.5-1.57 3.5-3.5 3.5-3.5-1.57-3.5-3.5ZM53.5 23c1.93 0 3.5 1.57 3.5 3.5S55.43 30 53.5 30 50 28.43 50 26.5s1.57-3.5 3.5-3.5Zm0 25c-.169 0-.335.01-.5.025v-16.05c.165.015.331.025.5.025 3.032 0 5.5-2.467 5.5-5.5S56.532 21 53.5 21a5.506 5.506 0 0 0-5.5 5.5c0 .17.01.335.025.5h-16.05c.015-.165.025-.33.025-.5 0-3.033-2.468-5.5-5.5-5.5a5.506 5.506 0 0 0-5.5 5.5c0 3.033 2.468 5.5 5.5 5.5.17 0 .335-.01.5-.025v16.05a5.506 5.506 0 0 0-.5-.025 5.506 5.506 0 0 0-5.5 5.5c0 3.033 2.468 5.5 5.5 5.5s5.5-2.467 5.5-5.5c0-.169-.01-.335-.025-.5h16.05a5.506 5.506 0 0 0-.025.5c0 3.033 2.468 5.5 5.5 5.5s5.5-2.467 5.5-5.5-2.468-5.5-5.5-5.5Z"/></g></svg>