<svg xmlns="http://www.w3.org/2000/svg" viewBox="0 0 48 48"><path fill="#7AA116" fill-rule="evenodd" d="M32.227 25.465a2.488 2.488 0 0 0-2.484-2.485 2.489 2.489 0 0 0-2.486 2.485 2.488 2.488 0 0 0 2.485 2.484 2.487 2.487 0 0 0 2.485-2.484Zm2 0a4.49 4.49 0 0 1-4.484 4.484 4.49 4.49 0 0 1-4.486-4.484 4.49 4.49 0 0 1 4.485-4.485 4.49 4.49 0 0 1 4.485 4.485Zm-3.773-9.562-2.165-3.957-2.257 3.957h4.421Zm2.563.52a.997.997 0 0 1-.878 1.48H24.31a.996.996 0 0 1-.863-.498.995.995 0 0 1-.005-.997L27.44 9.4c.18-.315.532-.535.878-.505a1 1 0 0 1 .867.52l3.832 7.008Zm-17.834 6.585h4.064v-4.063h-4.063v4.063Zm5.064-6.063a1 1 0 0 1 1 1v6.064a1 1 0 0 1-1 1h-6.065a1 1 0 0 1-1-1v-6.064a1 1 0 0 1 1-1h6.065Zm5.009 25.495V30.226h-2V42.52l-3.244-3.244-1.415 1.414 4.912 4.91a1.003 1.003 0 0 0 1.413 0l4.921-4.921-1.413-1.414-3.174 3.175ZM39.468 8.694v14.234c0 8.474-4.602 13.95-12.387 15.025v-1.98c6.787-.938 10.387-5.571 10.387-13.045V8.694l-13.25-4.697-13.252 4.745L11 22.928c0 7.474 3.6 12.107 10.387 13.045v1.98C13.601 36.878 9 31.402 9 22.928V8.694c0-.824.521-1.561 1.296-1.835L23.58 2.114a1.944 1.944 0 0 1 1.313 0L38.172 6.86a1.946 1.946 0 0 1 1.294 1.834Z"/></svg>