<svg xmlns="http://www.w3.org/2000/svg" viewBox="0 0 48 48"><path fill="#7AA116" fill-rule="evenodd" d="M23.7 25.311A2.8 2.8 0 0 1 26.5 28.11a2.8 2.8 0 0 1-2.798 2.797 2.8 2.8 0 0 1-2.798-2.797A2.8 2.8 0 0 1 23.7 25.31Zm-4.797 2.799a4.806 4.806 0 0 0 3.828 4.699v7.04h2v-7.06c2.15-.474 3.768-2.389 3.768-4.68 0-.573-.118-1.115-.304-1.626l6.534-3.774-1-1.732-6.586 3.805a4.774 4.774 0 0 0-3.442-1.47 4.77 4.77 0 0 0-3.443 1.47l-6.585-3.805-1 1.732 6.533 3.774a4.727 4.727 0 0 0-.303 1.627Zm13.024-2.49a8.589 8.589 0 0 1-6.078 10.81l-.498-1.937a6.59 6.59 0 0 0 4.947-6.384c0-.652-.095-1.29-.284-1.902l1.913-.587Zm-9.875 8.873-.498 1.938a8.589 8.589 0 0 1-6.08-10.81l1.914.587a6.589 6.589 0 0 0 4.664 8.286Zm-2.954-11.109L17.7 21.956a8.53 8.53 0 0 1 6-2.444c2.26 0 4.39.867 6.003 2.444l-1.398 1.428a6.553 6.553 0 0 0-4.604-1.872 6.549 6.549 0 0 0-4.603 1.872ZM13.438 4h20.527l4.433 5.896H9.004L13.438 4ZM7 11.896h33.4a1 1 0 0 0 .799-1.6L35.263 2.4a.999.999 0 0 0-.8-.4H12.94a.999.999 0 0 0-.8.4l-5.937 7.896A1 1 0 0 0 7 11.896Zm1.06 32.218H39.4V15.406H8.06v28.708ZM40.4 13.406H7.06a1 1 0 0 0-1 1v30.708a1 1 0 0 0 1 1H40.4a1 1 0 0 0 1-1V14.406a1 1 0 0 0-1-1Z"/></svg>