<svg xmlns="http://www.w3.org/2000/svg" viewBox="0 0 48 48"><path fill="#7AA116" fill-rule="evenodd" d="M39 44V12h-7a1 1 0 0 1-1-1V4H9v40h30Zm-6-34h4.586L33 5.414V10Zm8 1v34a1 1 0 0 1-1 1H8a1 1 0 0 1-1-1V3a1 1 0 0 1 1-1h24v.01a.99.99 0 0 1 .707.283l8 8a.996.996 0 0 1 .284.707H41Zm-6.421 25.424-1.665 1.665-1.665-1.665-1.414 1.414 1.665 1.665-1.665 1.665 1.414 1.415 1.665-1.666 1.665 1.666 1.414-1.415-1.665-1.665 1.665-1.665-1.414-1.414ZM15.5 12c.827 0 1.5-.673 1.5-1.5S16.327 9 15.5 9s-1.5.673-1.5 1.5.673 1.5 1.5 1.5Zm0 2c-1.93 0-3.5-1.57-3.5-3.5S13.57 7 15.5 7 19 8.57 19 10.5 17.43 14 15.5 14Zm10.027 22.876c-.534.078-1.068.116-1.598.116a10.82 10.82 0 0 1-6.499-2.165 10.836 10.836 0 0 1-4.393-8.684l2-.014a8.851 8.851 0 0 0 3.588 7.094 8.863 8.863 0 0 0 6.614 1.674 8.86 8.86 0 0 0 5.861-3.494c2.937-3.941 2.121-9.537-1.82-12.475-3.676-2.741-8.793-2.211-11.848 1.072H19v2h-4a1 1 0 0 1-1-1v-4h2v1.606c3.743-3.992 9.986-4.628 14.476-1.282 4.825 3.597 5.824 10.449 2.227 15.274a10.843 10.843 0 0 1-7.176 4.278Z"/></svg>