<svg xmlns="http://www.w3.org/2000/svg" viewBox="0 0 48 48"><path fill="#7AA116" fill-rule="evenodd" d="M41.94 34.412c.366.355.567.833.567 1.344 0 .51-.201.989-.568 1.344l-5.108 4.967a1.865 1.865 0 0 1-2.615 0l-2.143-2.084a18.823 18.823 0 0 1-3.141 1.27v2.872A1.877 1.877 0 0 1 27.057 46h-7.25a1.877 1.877 0 0 1-1.875-1.875v-2.872a18.778 18.778 0 0 1-3.14-1.27l-2.144 2.084a1.863 1.863 0 0 1-2.615-.001L4.924 37.1a1.857 1.857 0 0 1-.567-1.344c0-.511.201-.99.568-1.344l2.079-2.023a17.67 17.67 0 0 1-1.502-3.751l1.93-.525c.374 1.374.94 2.7 1.683 3.94.237.398.171.907-.161 1.23l-2.543 2.473 4.929 4.792 2.583-2.511a1 1 0 0 1 1.19-.153 16.68 16.68 0 0 0 4.068 1.64 1 1 0 0 1 .751.97V44h7v-3.506a1 1 0 0 1 .751-.97 16.702 16.702 0 0 0 4.069-1.64.998.998 0 0 1 1.189.153l2.583 2.51 4.93-4.791-2.543-2.472a1.002 1.002 0 0 1-.161-1.231 15.68 15.68 0 0 0 1.682-3.94l1.93.525a17.67 17.67 0 0 1-1.502 3.75l2.08 2.024ZM4.924 13.589a1.859 1.859 0 0 1-.567-1.344c0-.511.201-.99.568-1.345l5.109-4.966a1.862 1.862 0 0 1 2.613-.001l2.145 2.085a18.778 18.778 0 0 1 3.14-1.27V3.875c0-1.033.841-1.875 1.875-1.875h7.25c1.034 0 1.875.842 1.875 1.875v2.873c1.08.327 2.132.752 3.141 1.27l2.143-2.085a1.866 1.866 0 0 1 2.616.002L41.94 10.9c.366.355.567.833.567 1.344 0 .51-.201.988-.568 1.344l-2.079 2.023a17.649 17.649 0 0 1 1.502 3.75l-1.93.526a15.68 15.68 0 0 0-1.682-3.94 1.001 1.001 0 0 1 .161-1.231l2.543-2.472-4.931-4.792-2.582 2.51a.999.999 0 0 1-1.189.154 16.745 16.745 0 0 0-4.069-1.642 1 1 0 0 1-.751-.968V4h-7v3.507a.998.998 0 0 1-.751.968 16.722 16.722 0 0 0-4.068 1.642 1 1 0 0 1-1.19-.154l-2.582-2.51-4.93 4.792 2.543 2.472c.332.323.398.833.161 1.23a15.683 15.683 0 0 0-1.683 3.94l-1.93-.524a17.649 17.649 0 0 1 1.502-3.751l-2.08-2.023Zm2.482 9.203c.775 0 1.406.63 1.406 1.407 0 .775-.631 1.406-1.406 1.406a1.407 1.407 0 0 1 0-2.813Zm16.242-11.43c.775 0 1.406.632 1.406 1.407s-.631 1.406-1.406 1.406a1.408 1.408 0 0 1-1.406-1.406c0-.775.631-1.406 1.406-1.406Zm16.242 11.43a1.408 1.408 0 0 1 0 2.813 1.408 1.408 0 0 1-1.406-1.406c0-.776.631-1.407 1.406-1.407Zm-16.262 14.86a1.408 1.408 0 0 1-1.407-1.407c0-.775.631-1.406 1.407-1.406.775 0 1.406.63 1.406 1.406 0 .776-.631 1.407-1.406 1.407Zm-13.16-14.918 10.784-7.548a3.396 3.396 0 0 0 4.792 0l10.784 7.548a3.37 3.37 0 0 0-.344 1.465c0 .703.214 1.357.581 1.9l-11.041 7.73a3.395 3.395 0 0 0-4.793 0l-11.015-7.711a3.382 3.382 0 0 0 .596-1.92 3.37 3.37 0 0 0-.344-1.464Zm-3.062 4.87c.45 0 .878-.091 1.271-.251l-.06.087 11.669 8.168c-.04.207-.065.419-.065.637a3.411 3.411 0 0 0 3.407 3.407 3.41 3.41 0 0 0 3.406-3.407c0-.218-.025-.43-.065-.637l11.669-8.168-.072-.103a3.41 3.41 0 0 0 4.73-3.138 3.41 3.41 0 0 0-3.406-3.407c-.616 0-1.186.177-1.685.465L26.99 13.406c.039-.207.064-.42.064-.637a3.41 3.41 0 0 0-3.406-3.406 3.41 3.41 0 0 0-3.406 3.406c0 .218.025.43.064.637l-11.215 7.85a3.356 3.356 0 0 0-1.685-.464A3.41 3.41 0 0 0 4 24.199a3.41 3.41 0 0 0 3.406 3.406Z"/></svg>