<svg xmlns="http://www.w3.org/2000/svg" viewBox="0 0 48 48"><path fill="#7AA116" fill-rule="evenodd" d="M43.118 33.733a16.278 16.278 0 0 0 .869-1.5c.166-.32.324-.644.47-.972a20.555 20.555 0 0 0 .638-1.658c.062-.191.12-.383.176-.576a17.112 17.112 0 0 0 .411-1.722 18.042 18.042 0 0 0 .241-1.796c.031-.372.05-.746.057-1.122.003-.13.02-.257.02-.387 0-.122-.016-.24-.019-.362a17.76 17.76 0 0 0-.049-.976c-.023-.304-.05-.606-.088-.906-.015-.118-.017-.236-.034-.355-.023-.158-.064-.309-.091-.466a18.46 18.46 0 0 0-.186-.948c-.065-.283-.14-.563-.217-.842-.076-.27-.153-.539-.242-.804a17.42 17.42 0 0 0-.36-.982 16.39 16.39 0 0 0-.238-.58 17.054 17.054 0 0 0-.542-1.123c-.065-.125-.13-.251-.198-.374-.225-.406-.466-.8-.722-1.186-.057-.086-.113-.173-.171-.258a17.695 17.695 0 0 0-1.057-1.389 17.858 17.858 0 0 0-1.223-1.315 17.947 17.947 0 0 0-1.368-1.205c-.149-.118-.286-.247-.439-.361-.142-.106-.293-.193-.438-.294a18.297 18.297 0 0 0-1.486-.941 20.36 20.36 0 0 0-1.581-.795 18.38 18.38 0 0 0-1.652-.635 15.588 15.588 0 0 0-.569-.174c-.375-.11-.753-.208-1.134-.293a19.557 19.557 0 0 0-1.74-.295 17.757 17.757 0 0 0-1.759-.121C28.264 6.017 28.134 6 28 6c-.213 0-.423.011-.634.018-.089.003-.177.003-.265.007-.561.028-1.116.083-1.665.161l-.035.003-.034.007a17.734 17.734 0 0 0-9.331 4.355l-.128.113c-.311.284-.615.576-.908.884V8h-2v6a1 1 0 0 0 1 1h6v-2h-3.605c.114-.121.235-.235.353-.352.254-.253.511-.502.78-.736.194-.169.395-.329.597-.488a15.876 15.876 0 0 1 1.44-1.017c.226-.14.458-.269.69-.397.271-.15.541-.303.821-.437.199-.095.405-.174.608-.261a16.017 16.017 0 0 1 3.336-1.013c.282-.052.561-.11.847-.148.244-.033.488-.049.733-.071.369-.031.74-.057 1.114-.064a16.588 16.588 0 0 1 2.198.109 15.537 15.537 0 0 1 1.552.263c.338.075.671.162 1 .258.173.05.346.102.517.158.32.105.635.222.946.347a14.12 14.12 0 0 1 1.397.64c.178.092.356.187.532.286a16.391 16.391 0 0 1 3.312 2.487c.094.091.185.184.277.278.281.288.553.584.812.893.06.071.118.144.176.216.267.33.523.669.763 1.019a15.892 15.892 0 0 1 .793 1.284c.059.107.116.216.173.324.172.329.334.664.484 1.005.074.169.143.341.211.512.114.288.222.578.32.874.078.237.149.478.216.72.068.244.133.49.191.739.064.283.118.57.168.859.04.235.078.47.108.709.035.276.059.551.08.826.021.281.037.563.043.848a17.226 17.226 0 0 1-.051 1.665 15.977 15.977 0 0 1-.321 2.128c-.075.339-.162.674-.259 1.004a15.533 15.533 0 0 1-.504 1.461c-.071.176-.142.351-.219.525-.131.294-.271.582-.419.867-.094.182-.19.363-.291.541a16.605 16.605 0 0 1-.839 1.323 15.97 15.97 0 0 1-1.085 1.368c-.201.228-.399.458-.613.674-.129.132-.267.252-.401.379a16.053 16.053 0 0 1-3.2 2.362c-.072.04-.141.085-.214.124-.353.19-.718.36-1.086.524a16.09 16.09 0 0 1-.468.202 15.095 15.095 0 0 1-1.697.574c-.29.082-.582.162-.879.227-.332.072-.669.126-1.007.177-.222.034-.442.077-.667.102a15.888 15.888 0 0 1-8.032-1.172l-.785 1.84A17.84 17.84 0 0 0 27 41.95V42h1.001a18.912 18.912 0 0 0 1.69-.086c.076-.007.152-.012.228-.02.559-.059 1.11-.145 1.655-.253l.098-.02c4.276-.877 8.078-3.269 10.758-6.865.103-.138.188-.286.287-.426.138-.196.271-.395.401-.597Zm-23.583-8.497-3 11 1.929.527 3-11-1.929-.527Zm-5.242 1.057-4 4a.999.999 0 0 0 0 1.414l4 4 1.414-1.414L12.414 31l3.293-3.293-1.414-1.414Zm9.414 9.414 4-4a1 1 0 0 0 0-1.414l-4-4-1.414 1.414L25.586 31l-3.293 3.293 1.414 1.414ZM30 29.948v2.017c2.216-.28 6-1.985 6-6.78 0-3.882-2.596-5.928-5.266-6.635-.339-2.192-1.562-3.776-3.356-4.3a4.193 4.193 0 0 0-3.496.532A10.168 10.168 0 0 0 22 12.126v3.394c.213.41.412.837.576 1.301a.999.999 0 0 0 1.747.261c.605-.82 1.586-1.18 2.494-.912 1.115.325 1.854 1.482 1.99 3.103a1 1 0 0 0 .826 1.082c1.313.225 4.367 1.148 4.367 4.83 0 3.706-2.951 4.571-4 4.763ZM8.337 18.462c0 .302.017.6.053.892a1 1 0 0 1-.804 1.103C6.218 20.82 4 21.909 4 25.135c0 .207.008.406.027.598.196 2.085 1.868 3.773 3.973 4.161v2.017c-3.131-.413-5.674-2.893-5.964-5.989A8.268 8.268 0 0 1 2 25.135c0-3.039 1.606-5.371 4.341-6.381a9.477 9.477 0 0 1-.004-.292c0-3.182 1.962-6.453 4.663-7.989v2.421c-1.571 1.349-2.663 3.513-2.663 5.568Z"/></svg>