<svg xmlns="http://www.w3.org/2000/svg" viewBox="0 0 48 48"><path fill="#7AA116" fill-rule="evenodd" d="M26.606 38.281c2.557 0 4.987-.807 7.03-2.334a11.756 11.756 0 0 0 1.278-1.107 11.785 11.785 0 0 0 2.283-3.214 11.63 11.63 0 0 0 1.16-5.096c0-5.506-3.743-10.214-9.102-11.449l.45-1.949c6.271 1.445 10.652 6.955 10.652 13.398a13.62 13.62 0 0 1-1.661 6.557 13.791 13.791 0 0 1-3.862 4.462 13.645 13.645 0 0 1-8.228 2.732c-7.583 0-13.753-6.169-13.753-13.751l2.002-.062-.002.078c0 6.464 5.273 11.735 11.753 11.735Zm-.55-13.099a1.27 1.27 0 0 1 1.269 1.268 1.269 1.269 0 1 1-1.269-1.268Zm-3.267 1.268a3.27 3.27 0 0 0 3.267 3.268 3.272 3.272 0 0 0 3.269-3.268c0-1.474-.987-2.708-2.329-3.114l-.057-9.342-2 .012.057 9.368a3.261 3.261 0 0 0-2.207 3.076ZM5 20h11v-2H5v2Zm-3 4h11v-2H2v2ZM23 7.497V4.654c0-.36.293-.654.654-.654h4.691c.361 0 .655.294.655.655v2.682a19.562 19.562 0 0 0-6 .16Zm16.314 4.491 1.701-1.7 1.114 1.114 1.414-1.414-3.642-3.643-1.414 1.415 1.114 1.114-1.866 1.866A19.235 19.235 0 0 0 31 7.696V4.655A2.658 2.658 0 0 0 28.345 2h-4.691A2.657 2.657 0 0 0 21 4.654v3.311a19.256 19.256 0 0 0-8 4.668V11h-2v4a1 1 0 0 0 1 1h4v-2h-1.543c6.046-5.823 15.595-6.521 22.46-1.403 7.693 5.734 9.287 16.659 3.552 24.352-5.734 7.693-16.66 9.286-24.352 3.553-4.413-3.289-6.965-8.336-7.003-13.847l-2 .013c.042 6.144 2.888 11.77 7.807 15.437a19.297 19.297 0 0 0 11.571 3.839c5.924 0 11.776-2.696 15.581-7.8 6.079-8.155 4.758-19.557-2.759-26.156Z"/></svg>