<svg xmlns="http://www.w3.org/2000/svg" preserveAspectRatio="xMidYMid" viewBox="0 0 256 255"><defs><linearGradient id="a" x1="84.8%" x2="58.3%" y1="111.4%" y2="64.6%"><stop offset="0%" stop-color="#FB7655"/><stop offset="0%" stop-color="#FB7655"/><stop offset="41%" stop-color="#E42B1E"/><stop offset="99%" stop-color="#900"/><stop offset="100%" stop-color="#900"/></linearGradient><linearGradient id="b" x1="116.7%" x2="1.7%" y1="60.9%" y2="19.3%"><stop offset="0%" stop-color="#871101"/><stop offset="0%" stop-color="#871101"/><stop offset="99%" stop-color="#911209"/><stop offset="100%" stop-color="#911209"/></linearGradient><linearGradient id="c" x1="75.8%" x2="39%" y1="219.3%" y2="7.8%"><stop offset="0%" stop-color="#871101"/><stop offset="0%" stop-color="#871101"/><stop offset="99%" stop-color="#911209"/><stop offset="100%" stop-color="#911209"/></linearGradient><linearGradient id="d" x1="50%" x2="66.5%" y1="7.2%" y2="79.1%"><stop offset="0%" stop-color="#FFF"/><stop offset="0%" stop-color="#FFF"/><stop offset="23%" stop-color="#E57252"/><stop offset="46%" stop-color="#DE3B20"/><stop offset="99%" stop-color="#A60003"/><stop offset="100%" stop-color="#A60003"/></linearGradient><linearGradient id="e" x1="46.2%" x2="49.9%" y1="16.3%" y2="83%"><stop offset="0%" stop-color="#FFF"/><stop offset="0%" stop-color="#FFF"/><stop offset="23%" stop-color="#E4714E"/><stop offset="56%" stop-color="#BE1A0D"/><stop offset="99%" stop-color="#A80D00"/><stop offset="100%" stop-color="#A80D00"/></linearGradient><linearGradient id="f" x1="37%" x2="49.5%" y1="15.6%" y2="92.5%"><stop offset="0%" stop-color="#FFF"/><stop offset="0%" stop-color="#FFF"/><stop offset="18%" stop-color="#E46342"/><stop offset="40%" stop-color="#C82410"/><stop offset="99%" stop-color="#A80D00"/><stop offset="100%" stop-color="#A80D00"/></linearGradient><linearGradient id="g" x1="13.6%" x2="85.8%" y1="58.3%" y2="-46.7%"><stop offset="0%" stop-color="#FFF"/><stop offset="0%" stop-color="#FFF"/><stop offset="54%" stop-color="#C81F11"/><stop offset="99%" stop-color="#BF0905"/><stop offset="100%" stop-color="#BF0905"/></linearGradient><linearGradient id="h" x1="27.6%" x2="50.7%" y1="21.1%" y2="79.1%"><stop offset="0%" stop-color="#FFF"/><stop offset="0%" stop-color="#FFF"/><stop offset="31%" stop-color="#DE4024"/><stop offset="99%" stop-color="#BF190B"/><stop offset="100%" stop-color="#BF190B"/></linearGradient><linearGradient id="i" x1="-20.7%" x2="104.2%" y1="122.3%" y2="-6.3%"><stop offset="0%" stop-color="#BD0012"/><stop offset="0%" stop-color="#BD0012"/><stop offset="7%" stop-color="#FFF"/><stop offset="17%" stop-color="#FFF"/><stop offset="27%" stop-color="#C82F1C"/><stop offset="33%" stop-color="#820C01"/><stop offset="46%" stop-color="#A31601"/><stop offset="72%" stop-color="#B31301"/><stop offset="99%" stop-color="#E82609"/><stop offset="100%" stop-color="#E82609"/></linearGradient><linearGradient id="j" x1="58.8%" x2="12%" y1="65.2%" y2="50.1%"><stop offset="0%" stop-color="#8C0C01"/><stop offset="0%" stop-color="#8C0C01"/><stop offset="54%" stop-color="#990C00"/><stop offset="99%" stop-color="#A80D0E"/><stop offset="100%" stop-color="#A80D0E"/></linearGradient><linearGradient id="k" x1="79.3%" x2="23.1%" y1="62.8%" y2="17.9%"><stop offset="0%" stop-color="#7E110B"/><stop offset="0%" stop-color="#7E110B"/><stop offset="99%" stop-color="#9E0C00"/><stop offset="100%" stop-color="#9E0C00"/></linearGradient><linearGradient id="l" x1="92.9%" x2="59.8%" y1="74.1%" y2="39.7%"><stop offset="0%" stop-color="#79130D"/><stop offset="0%" stop-color="#79130D"/><stop offset="99%" stop-color="#9E120B"/><stop offset="100%" stop-color="#9E120B"/></linearGradient><linearGradient id="o" x1="56.6%" x2="3.1%" y1="101.7%" y2="12%"><stop offset="0%" stop-color="#8B2114"/><stop offset="0%" stop-color="#8B2114"/><stop offset="43%" stop-color="#9E100A"/><stop offset="99%" stop-color="#B3100C"/><stop offset="100%" stop-color="#B3100C"/></linearGradient><linearGradient id="p" x1="30.9%" x2="92.5%" y1="35.6%" y2="100.7%"><stop offset="0%" stop-color="#B31000"/><stop offset="0%" stop-color="#B31000"/><stop offset="44%" stop-color="#910F08"/><stop offset="99%" stop-color="#791C12"/><stop offset="100%" stop-color="#791C12"/></linearGradient><radialGradient id="m" cx="32%" cy="40.2%" r="69.6%" fx="32%" fy="40.2%"><stop offset="0%" stop-color="#A80D00"/><stop offset="0%" stop-color="#A80D00"/><stop offset="99%" stop-color="#7E0E08"/><stop offset="100%" stop-color="#7E0E08"/></radialGradient><radialGradient id="n" cx="13.5%" cy="40.9%" r="88.4%" fx="13.5%" fy="40.9%"><stop offset="0%" stop-color="#A30C00"/><stop offset="0%" stop-color="#A30C00"/><stop offset="99%" stop-color="#800E08"/><stop offset="100%" stop-color="#800E08"/></radialGradient></defs><path fill="url(#a)" d="M197.5 167.8 51.9 254.2l188.5-12.8 14.5-190-57.4 116.4Z"/><path fill="url(#b)" d="m240.7 241.3-16.2-111.8-44.1 58.2 60.3 53.6Z"/><path fill="url(#c)" d="m240.9 241.3-118.7-9.4-69.6 22 188.3-12.6Z"/><path fill="url(#d)" d="m52.7 254 29.7-97.1-65.2 13.9L52.7 254Z"/><path fill="url(#e)" d="M180.4 188 153 81.3l-78 73.2L180.3 188Z"/><path fill="url(#f)" d="m248.7 82.7-73.8-60.2-20.5 66.4 94.3-6.2Z"/><path fill="url(#g)" d="m214.2 1-43.4 24L143.4.7l70.8.3Z"/><path fill="url(#h)" d="m0 203.4 18.2-33.2-14.7-39.5L0 203.4Z"/><path fill="#FFF" d="m2.5 129.5 14.8 42L81.6 157 155 88.8 175.7 23 143 0 87.6 20.8C70.1 37 36.3 69 35 69.8c-1.2.6-22.4 40.6-32.5 59.7Z"/><path fill="url(#i)" d="M54.4 54c37.9-37.4 86.7-59.6 105.4-40.7 18.8 18.9-1 64.8-39 102.3-37.8 37.5-86 61-104.7 42-18.8-18.8.5-66 38.3-103.5Z"/><path fill="url(#j)" d="m52.7 254 29.5-97.5 97.6 31.4c-35.3 33.1-74.6 61-127 66Z"/><path fill="url(#k)" d="m155 88.6 25.2 99.3c29.5-31 56-64.3 68.9-105.6l-94 6.3Z"/><path fill="url(#l)" d="M248.8 82.8c10-30.2 12.4-73.7-35-81.8l-38.7 21.5 73.7 60.3Z"/><path fill="#9E1209" d="M0 203c1.4 50 37.4 50.7 52.8 51.1l-35.5-82.9L0 203Z"/><path fill="url(#m)" d="m155.2 88.8 69.3 42.4c1.4.8 19.7-30.8 23.8-48.6l-93 6.2Z"/><path fill="url(#n)" d="m82.1 156.5 39.3 75.9c23.3-12.7 41.5-28 58.1-44.5l-97.4-31.4Z"/><path fill="url(#o)" d="m17.2 171.3-5.6 66.4c10.5 14.3 25 15.6 40.1 14.5-11-27.4-32.9-82-34.5-80.9Z"/><path fill="url(#p)" d="m174.8 22.7 78.1 11C248.8 16 236 4.5 214.1 1l-39.3 21.7Z"/></svg>