<svg xmlns="http://www.w3.org/2000/svg" viewBox="0 0 80 80"><g fill="none" fill-rule="evenodd"><path fill="#DD344C" d="M0 0h80v80H0z"/><path fill="#FFF" d="M48 48h10v2H48v4h10v2H48v3h-2V45h2v3Zm18 5.522-1.515-.086c-.471-.034-.924.3-1.032.778a12.2 12.2 0 0 1-1.582 3.821 1 1 0 0 0 .18 1.279l1.132 1.01-2.859 2.859-1.006-1.127a.996.996 0 0 0-1.28-.18 12.158 12.158 0 0 1-3.825 1.584.999.999 0 0 0-.777 1.033L53.521 66h-4.042l.085-1.508a.999.999 0 0 0-.777-1.033 12.177 12.177 0 0 1-3.822-1.586.998.998 0 0 0-1.28.18l-1.008 1.13-2.86-2.859 1.129-1.007a.999.999 0 0 0 .181-1.28 12.176 12.176 0 0 1-1.582-3.823 1.012 1.012 0 0 0-1.032-.778L37 53.522v-4.044l1.518.086c.479.019.922-.3 1.032-.777.306-1.353.84-2.637 1.585-3.815a1.002 1.002 0 0 0-.18-1.281l-1.138-1.014 2.86-2.86 1.014 1.137c.328.364.869.439 1.28.179a12.159 12.159 0 0 1 3.815-1.579.998.998 0 0 0 .778-1.032L49.479 37h4.042l-.085 1.523c-.029.488.3.925.777 1.032 1.354.307 2.638.839 3.813 1.581.412.26.954.184 1.281-.179l1.016-1.14 2.86 2.86-1.135 1.012a1 1 0 0 0-.18 1.28 12.118 12.118 0 0 1 1.583 3.818c.108.477.563.796 1.032.777L66 49.478v4.044Zm1.687-5.83c-.2-.188-.47-.287-.744-.271l-1.754.1a14.088 14.088 0 0 0-1.196-2.887l1.312-1.17a1 1 0 0 0 .041-1.453l-4.357-4.356a.975.975 0 0 0-.735-.293 1.004 1.004 0 0 0-.718.334l-1.175 1.316a14.145 14.145 0 0 0-2.882-1.195l.099-1.76A.998.998 0 0 0 54.58 35h-6.16a1 1 0 0 0-.998 1.057l.099 1.758c-1.003.291-1.968.69-2.884 1.194l-1.173-1.313a1.004 1.004 0 0 0-.718-.334.982.982 0 0 0-.735.293l-4.357 4.356a1 1 0 0 0 .041 1.453l1.315 1.173a14.196 14.196 0 0 0-1.198 2.884l-1.755-.1a1.001 1.001 0 0 0-1.057.998v6.162a1.002 1.002 0 0 0 1.057.998l1.749-.1a14.1 14.1 0 0 0 1.197 2.892l-1.307 1.165a.999.999 0 0 0-.042 1.453l4.357 4.357a.966.966 0 0 0 .735.292.998.998 0 0 0 .718-.334l1.166-1.306c.919.506 1.887.907 2.891 1.199l-.099 1.746A.998.998 0 0 0 48.42 68h6.16a1 1 0 0 0 .998-1.057l-.099-1.744A14.156 14.156 0 0 0 58.373 64l1.163 1.304a.998.998 0 0 0 .718.334.964.964 0 0 0 .735-.292l4.357-4.357a1.002 1.002 0 0 0-.041-1.453l-1.31-1.168c.505-.918.905-1.885 1.196-2.889l1.752.1A1.002 1.002 0 0 0 68 54.581v-6.162c0-.274-.113-.538-.313-.727ZM31.742 36.218l-7.545 7.545a.996.996 0 0 1-1.414 0l-3.771-3.772 1.414-1.414 3.064 3.065 6.838-6.838 1.414 1.414Zm0-14.392-7.545 7.544a.996.996 0 0 1-1.414 0l-3.771-3.772 1.414-1.414 3.064 3.065 6.838-6.837 1.414 1.414Zm-1.886 30.529-3.537 3.537 3.537 3.537-1.414 1.414-3.537-3.537-3.537 3.537-1.414-1.414 3.537-3.537-3.537-3.537 1.414-1.414 3.537 3.537 3.537-3.537 1.414 1.414ZM45 15.659 50.973 21H45v-5.341ZM14 14h29v8a1 1 0 0 0 1 1h8v10h2V21.471c0-.285-.121-.556-.333-.746l-9.474-8.471a1.004 1.004 0 0 0-.667-.254H13a1 1 0 0 0-1 1v54a1 1 0 0 0 1 1h25v-2H14V14Z"/></g></svg>