<svg xmlns="http://www.w3.org/2000/svg" viewBox="0 0 80 80"><g fill="none" fill-rule="evenodd"><path fill="#DD344C" d="M0 0h80v80H0z"/><path fill="#FFF" d="M41 23.378v14.61h2V22.672a1 1 0 0 0-.664-.94l-12-4.287a1.006 1.006 0 0 0-.672 0l-12 4.286a1 1 0 0 0-.664.941V41.53c0 3.014 3.081 11.286 13 11.286v-2c-9.088 0-11-7.758-11-9.286V23.378l10-3.57v22.18h2v-22.18l10 3.57Zm22.248 37.813h-2a4.807 4.807 0 0 1-4.802 4.802 4.807 4.807 0 0 1-4.801-4.802h-2a4.808 4.808 0 0 1-4.802 4.802 4.807 4.807 0 0 1-4.803-4.802h-2a4.807 4.807 0 0 1-4.802 4.802v2a6.802 6.802 0 0 0 5.802-3.255 6.803 6.803 0 0 0 5.803 3.255 6.806 6.806 0 0 0 5.802-3.255 6.803 6.803 0 0 0 5.801 3.255 6.802 6.802 0 0 0 5.802-3.255 6.803 6.803 0 0 0 5.803 3.255v-2a4.807 4.807 0 0 1-4.803-4.802Zm0-9.787h-2a4.808 4.808 0 0 1-4.802 4.803 4.808 4.808 0 0 1-4.801-4.803h-2a4.809 4.809 0 0 1-4.802 4.803 4.808 4.808 0 0 1-4.803-4.803h-2a4.808 4.808 0 0 1-4.802 4.803v2a6.806 6.806 0 0 0 5.802-3.255 6.808 6.808 0 0 0 5.803 3.255 6.809 6.809 0 0 0 5.802-3.255 6.806 6.806 0 0 0 5.801 3.255 6.806 6.806 0 0 0 5.802-3.255 6.808 6.808 0 0 0 5.803 3.255v-2a4.808 4.808 0 0 1-4.803-4.803Zm0-9.919h-2a4.807 4.807 0 0 1-4.802 4.802 4.807 4.807 0 0 1-4.801-4.802h-2a4.808 4.808 0 0 1-4.802 4.802 4.807 4.807 0 0 1-4.803-4.802h-2a4.807 4.807 0 0 1-4.802 4.802v2a6.804 6.804 0 0 0 5.802-3.255 6.806 6.806 0 0 0 5.803 3.255 6.806 6.806 0 0 0 5.802-3.255 6.803 6.803 0 0 0 5.801 3.255 6.804 6.804 0 0 0 5.802-3.255 6.806 6.806 0 0 0 5.803 3.255v-2a4.807 4.807 0 0 1-4.803-4.802Zm-32.732 14.72v2c-9.029 0-13.534-4.525-15.724-8.32C12.078 45.181 12 40.238 12 39.69V19.672a1 1 0 0 1 .644-.935l17.515-6.672c.237-.089.498-.087.732.008l16.484 6.672a1 1 0 0 1 .625.927v18.315h-2v-17.64l-15.495-6.273L14 20.361v19.33c0 .673.188 16.514 16.516 16.514Z"/></g></svg>