<svg xmlns="http://www.w3.org/2000/svg" xmlns:xlink="http://www.w3.org/1999/xlink" fill="#fff" fill-rule="evenodd" stroke="#000" stroke-linecap="round" stroke-linejoin="round" viewBox="0 0 201.5 201.5"><use xlink:href="#a" x=".75" y=".75"/><symbol id="a" overflow="visible"><g stroke="none"><rect width="200" height="200" fill="#a065ff" rx="5"/><rect width="42.481" height="9.987" rx="2" transform="rotate(145 35.962 32.728)"/><rect width="31.132" height="9.288" rx="5" transform="rotate(-90 67.614 6.425)"/><rect width="26.271" height="9.286" rx="2" transform="rotate(-145 55.524 11.846)"/><rect width="29.652" height="10.028" rx="2" transform="rotate(145 55.628 38.793)"/><rect width="38.523" height="10.028" rx="2" transform="rotate(90 26.483 77.178)"/><rect width="43.63" height="10.186" rx="2" transform="rotate(-145 83.646 8.46)"/><rect width="28.03" height="8.967" rx="2" transform="rotate(-90 63.177 18.729)"/><rect width="24.162" height="9.594" rx="2" transform="rotate(145 13.401 48.295)"/><rect width="31.686" height="9.594" rx="2" transform="rotate(90 -24.073 61.49)"/><rect width="27.202" height="10.112" rx="5" transform="rotate(150 15.27 56.455)"/><rect width="30.357" height="10.366" rx="5" transform="rotate(40 -135.81 99.29)"/><rect width="27.892" height="9.288" rx="5" transform="rotate(150 19.671 72.415)"/><rect width="22.72" height="9.75" rx="2" transform="rotate(90 -38.532 91.948)"/><rect width="45.688" height="9.379" rx="2" transform="rotate(30 -244.732 161.83)"/><rect width="26.51" height="9.288" rx="5" transform="rotate(150 24.773 87.497)"/><rect width="21.762" height="9.825" rx="2" transform="rotate(-30 349.117 -60.738)"/><rect width="24.162" height="9.594" rx="2" transform="rotate(-145 47.93 36.611)"/><rect width="28.421" height="10.112" rx="5" transform="rotate(-90 80.276 2.85)"/><rect width="24.162" height="9.594" rx="2" transform="rotate(-30 189.827 -70.59)"/><rect width="28.421" height="10.112" rx="5" transform="rotate(145 19.657 64.485)"/><rect width="16.85" height="9.75" rx="2" transform="rotate(-90 82.894 22.167)"/><rect width="20.396" height="10.223" rx="2" transform="rotate(-150 55.906 48.726)"/><rect width="22.833" height="8.531" rx="2" transform="rotate(-90 104.222 27.651)"/><rect width="28.54" height="9.893" rx="5" transform="rotate(150 26.587 79.12)"/><rect width="21.33" height="9.291" rx="2" transform="rotate(-30 281.451 -80.925)"/><rect width="56.672" height="9.75" rx="2" transform="rotate(90 -1.143 104.525)"/><rect width="23.646" height="9.624" rx="5" transform="rotate(-145 67.761 40.93)"/><rect width="22.781" height="9.341" rx="2" transform="rotate(35 -193.388 237.145)"/><rect width="46.08" height="9.216" rx="2" transform="rotate(-30 365.346 -119.97)"/><rect width="17.716" height="10.272" x="97.853" y="131.873" rx="2"/><rect width="19.042" height="10.272" rx="2" transform="rotate(30 -100.398 222.621)"/><rect width="25.593" height="9.053" rx="2" transform="rotate(-90 148.095 4.496)"/><rect width="26.812" height="9.053" rx="2" transform="rotate(140 63.488 89.975)"/><rect width="32.905" height="9.75" rx="2" transform="rotate(90 41.206 127.987)"/><rect width="28.155" height="9.224" rx="2" transform="rotate(40 -22.018 238.934)"/><rect width="24.374" height="9.75" rx="2" transform="rotate(90 49.127 103.003)"/><rect width="20.718" height="10.272" x="124.1" y="61.188" rx="2"/><rect width="14.355" height="10.272" rx="2" transform="rotate(35 -95.1 291.163)"/><ellipse cx="114.838" cy="95.312" rx="7.8" ry="7.312"/><ellipse cx="118.494" cy="136.748" rx="7.8" ry="7.312"/><ellipse cx="119.713" cy="66.063" rx="7.8" ry="7.312"/><ellipse cx="142.869" cy="108.717" rx="7.8" ry="7.312"/></g></symbol></svg>