<svg xmlns="http://www.w3.org/2000/svg" xmlns:xlink="http://www.w3.org/1999/xlink" fill="#fff" fill-rule="evenodd" stroke="#000" stroke-linecap="round" stroke-linejoin="round" viewBox="0 0 71.5 76.5"><use xlink:href="#a" x=".75" y=".75"/><symbol id="a" overflow="visible"><g fill="none" stroke="#e59400" stroke-width="1.5"><path d="M35 7v61m-18-9 18-10M27 43v10m-9-14.5 9 4.5m-17 .5 7.5-5m.5-.5v-9.5m0 0 8.5-5.5m0 0V13m-9 5V5.5m-8.5 5L25 0M9 10.5V22m0 0-9 6.5M18 28.75 9 22M0 46V28.5M.5 38l8-5M9 53l8.5-6m9-14 8.5 5M0 46l9 7m0 0v10.5m17.5 0-8 6m-9.5-6 9.5 6m0 0 7.5 5m0 0 9-6.5m0-61L25 0m10.125 13.25h6.125m.25 0 5.75-8m.125-.25L54 7.5m0 0-1.5 9m0 .25 5 5.75m.25 0L66.5 21m3 6.5-3-6.5m3 6.5-7.75 6m0 .25v6.5m0 0L69 45.5m0 0-1.25 7m-10.5-1.25L67.5 52.5m-15.75 4.25L57 51.5m-21.5 9h6m.25 0L47 69m4.75-12.25 1.5 8.25m0 0-6.125 4.125M36 28q10.25.25 10 9.25 0 7-10 7.75"/></g></symbol></svg>