<?xml version="1.0" encoding="UTF-8" standalone="no"?>
<svg
   id="Layer_1"
   data-name="Layer 1"
   viewBox="0 0 177 50.360001"
   version="1.1"
   sodipodi:docname="Red_Hat_Virtualization_logo.svg"
   width="177"
   height="50.360001"
   inkscape:version="1.1.2 (0a00cf5339, 2022-02-04)"
   xmlns:inkscape="http://www.inkscape.org/namespaces/inkscape"
   xmlns:sodipodi="http://sodipodi.sourceforge.net/DTD/sodipodi-0.dtd"
   xmlns="http://www.w3.org/2000/svg"
   xmlns:svg="http://www.w3.org/2000/svg"
   xmlns:rdf="http://www.w3.org/1999/02/22-rdf-syntax-ns#"
   xmlns:cc="http://creativecommons.org/ns#"
   xmlns:dc="http://purl.org/dc/elements/1.1/">
  <metadata
     id="metadata34">
    <rdf:RDF>
      <cc:Work
         rdf:about="">
        <dc:format>image/svg+xml</dc:format>
        <dc:type
           rdf:resource="http://purl.org/dc/dcmitype/StillImage" />
        <dc:title>Brand_Standards-Red_Hat-Artboard 15-RGB</dc:title>
      </cc:Work>
    </rdf:RDF>
  </metadata>
  <sodipodi:namedview
     pagecolor="#ffffff"
     bordercolor="#666666"
     borderopacity="1"
     objecttolerance="10"
     gridtolerance="10"
     guidetolerance="10"
     inkscape:pageopacity="0"
     inkscape:pageshadow="2"
     inkscape:window-width="1366"
     inkscape:window-height="692"
     id="namedview32"
     showgrid="false"
     fit-margin-top="0"
     fit-margin-left="0"
     fit-margin-right="0"
     fit-margin-bottom="0"
     inkscape:zoom="2.2428335"
     inkscape:cx="78.472163"
     inkscape:cy="14.044734"
     inkscape:window-x="0"
     inkscape:window-y="0"
     inkscape:window-maximized="1"
     inkscape:current-layer="Layer_1"
     inkscape:pagecheckerboard="0" />
  <defs
     id="defs4">
    <style
       id="style2">.cls-1{fill:#fff;stroke:#d9d9d9;}.cls-2{fill:#e00;}</style>
  </defs>
  <title
     id="title6">Brand_Standards-Red_Hat-Artboard 15-RGB</title>
  <g
     id="g1280"
     transform="translate(0.024325,2.0082832)">
    <g
       id="Group_81"
       data-name="Group 81"
       transform="translate(-26.61,-44.82)">
      <g
         id="Group_80"
         data-name="Group 80">
        <path
           id="Path_392"
           data-name="Path 392"
           class="cls-2"
           d="m 53.36,62.31 c 2.64,0 6.45,-0.55 6.45,-3.68 a 2.88,2.88 0 0 0 -0.06,-0.72 l -1.57,-6.82 c -0.37,-1.5 -0.68,-2.18 -3.32,-3.5 -2,-1 -6.49,-2.77 -7.81,-2.77 -1.32,0 -1.59,1.59 -3,1.59 -1.41,0 -2.45,-1.18 -3.77,-1.18 -1.32,0 -2.09,0.86 -2.73,2.63 0,0 -1.77,5 -2,5.72 a 1.43,1.43 0 0 0 0,0.41 c 0,1.94 7.64,8.31 17.89,8.31 m 6.86,-2.4 a 10.2,10.2 0 0 1 0.28,2.1 c 0,3 -3.31,4.59 -7.67,4.59 -9.86,0 -18.49,-5.77 -18.49,-9.59 a 3.9,3.9 0 0 1 0.32,-1.54 c -3.54,0.18 -8.13,0.82 -8.13,4.86 0,6.63 15.72,14.8 28.16,14.8 9.54,0 11.94,-4.31 11.94,-7.72 0,-2.68 -2.31,-5.72 -6.49,-7.54" />
        <path
           id="Path_393"
           data-name="Path 393"
           d="m 60.22,59.9 a 9.67,9.67 0 0 1 0.36,2.1 c 0,2.95 -3.31,4.58 -7.67,4.58 -9.86,0 -18.48,-5.76 -18.48,-9.58 a 3.85,3.85 0 0 1 0.31,-1.54 l 0.78,-1.91 a 1.13,1.13 0 0 0 -0.05,0.41 c 0,1.94 7.65,8.31 17.89,8.31 2.64,0 6.45,-0.55 6.45,-3.68 a 2.92,2.92 0 0 0 -0.06,-0.72 z" />
      </g>
      <path
         id="Path_394"
         data-name="Path 394"
         d="m 148.64,64.27 c 0,2.5 1.51,3.73 4.25,3.73 a 11.6,11.6 0 0 0 2.5,-0.36 v -2.9 a 5.21,5.21 0 0 1 -1.61,0.25 c -1.13,0 -1.55,-0.36 -1.55,-1.42 v -4.46 h 3.27 v -3 h -3.27 v -3.78 l -3.59,0.78 v 3 h -2.37 v 3 h 2.37 z m -11.15,0.07 c 0,-0.77 0.77,-1.15 1.95,-1.15 a 8.92,8.92 0 0 1 2.12,0.26 V 65 a 4.35,4.35 0 0 1 -2.24,0.55 c -1.15,0 -1.83,-0.44 -1.83,-1.17 m 1.1,3.7 a 5.47,5.47 0 0 0 3.23,-0.91 v 0.71 h 3.55 v -7.55 c 0,-2.86 -1.93,-4.43 -5.14,-4.43 a 13,13 0 0 0 -5.48,1.29 l 1.25,2.63 a 9.68,9.68 0 0 1 3.54,-0.93 c 1.49,0 2.24,0.58 2.24,1.75 v 0.58 a 10.38,10.38 0 0 0 -2.66,-0.34 c -3,0 -4.83,1.27 -4.83,3.53 0,2.06 1.64,3.63 4.26,3.63 m -19.48,-0.2 h 3.81 v -6.07 h 6.39 v 6.07 h 3.81 V 52.33 h -3.81 v 6 h -6.39 v -6 h -3.81 z M 104.59,62 a 3,3 0 0 1 3,-3 h 0.11 a 3.64,3.64 0 0 1 2.48,0.91 V 64 a 3.45,3.45 0 0 1 -2.48,0.93 3,3 0 0 1 -3.08,-2.88 V 62 m 5.61,5.87 h 3.54 V 51.56 l -3.59,0.77 v 4.41 a 6.11,6.11 0 0 0 -9.08,5.11 V 62 a 6,6 0 0 0 5.9,6 h 0.1 a 5.27,5.27 0 0 0 3.15,-1 z m -16.26,-9 a 2.58,2.58 0 0 1 2.45,1.86 h -4.9 a 2.45,2.45 0 0 1 2.44,-1.86 M 87.88,62 a 6.17,6.17 0 0 0 6.23,6.08 h 0.15 a 7,7 0 0 0 4.9,-1.77 l -2.37,-2.1 a 3.13,3.13 0 0 1 -2.34,0.89 3,3 0 0 1 -2.88,-1.86 h 8.35 v -0.89 c 0,-3.72 -2.5,-6.4 -5.92,-6.4 a 6,6 0 0 0 -6.11,5.92 V 62 m -6.18,-6.4 a 1.78,1.78 0 0 1 2,1.57 c 0,0.06 0,0.12 0,0.18 a 1.78,1.78 0 0 1 -1.8,1.76 H 77.94 V 55.6 Z m -7.58,12.25 h 3.81 V 62.2 h 2.9 l 2.92,5.65 H 88 l -3.41,-6.2 a 4.69,4.69 0 0 0 2.92,-4.36 c 0,-2.8 -2.19,-4.94 -5.47,-4.94 h -7.91 z" />
    </g>
    <path
       style="fill:#000000;stroke-width:0.278772"
       d="m 87.098504,46.095772 c -2.499342,-0.906529 -3.02753,-2.247259 -2.918482,-7.408186 l 0.07952,-3.763427 h 1.115089 1.115089 l 0.139387,4.137383 c 0.13238,3.929467 0.172459,4.164123 0.797506,4.669437 0.905798,0.732285 2.804888,0.70922 3.764642,-0.04572 l 0.734526,-0.577778 v -4.161352 -4.161353 h 1.11509 1.115089 v 5.714834 5.714834 h -1.115089 c -0.805343,0 -1.11509,-0.116156 -1.11509,-0.418159 0,-0.517733 -0.135065,-0.521683 -0.915817,-0.02679 -0.963791,0.610919 -2.722276,0.757603 -3.91146,0.326281 z m 70.250426,0.005 c -0.86015,-0.235203 -1.74127,-0.756262 -2.45134,-1.44963 -3.7886,-3.699466 -1.22186,-10.003764 4.07294,-10.003764 6.19245,0 8.15158,8.236595 2.64834,11.13416 -1.1158,0.587494 -2.82231,0.715079 -4.26994,0.319234 z m 3.42252,-2.293706 c 2.33211,-1.377612 2.33211,-5.237355 0,-6.614967 -2.72947,-1.612336 -5.95821,1.022517 -5.24861,4.283187 0.32066,1.473412 1.89105,2.787724 3.33089,2.787724 0.63023,0 1.4932,-0.205174 1.91772,-0.455944 z M 51.931471,45.95107 c -0.08952,-0.144851 -0.336894,-0.740726 -0.549714,-1.324169 -0.212821,-0.583443 -1.581855,-3.97746 -3.042296,-7.542262 L 45.68411,30.603187 h 1.308677 1.30868 l 2.483773,6.272378 c 1.366073,3.449808 2.57427,6.272379 2.684881,6.272379 0.225312,0 0.861987,-1.468097 3.445551,-7.945013 l 1.779181,-4.460358 1.31924,-0.08645 c 1.002307,-0.06568 1.282861,0.0014 1.167814,0.278772 -0.08328,0.200869 -0.917415,2.184209 -1.853627,4.407419 -0.93621,2.22321 -2.345546,5.578932 -3.131851,7.457161 l -1.429651,3.414962 h -1.33627 c -0.734947,0 -1.409515,-0.118515 -1.499037,-0.263365 z m 10.50836,-5.381771 0.07547,-5.64514 h 1.115089 1.115089 l 0.07547,5.64514 0.07546,5.645141 h -1.26602 -1.26602 z m 4.953983,-0.06969 v -5.714834 h 1.001802 c 0.764678,0 1.036038,0.13092 1.146443,0.553115 0.142812,0.546116 0.153232,0.546358 0.823312,0.01926 0.813962,-0.640265 2.101406,-0.959738 2.876398,-0.713764 0.421644,0.133825 0.563809,0.420236 0.563809,1.135864 0,0.945816 -0.0143,0.956917 -1.233085,0.956917 -0.919868,0 -1.450958,0.183323 -2.090793,0.721711 l -0.857707,0.721714 v 4.017416 4.01742 h -1.11509 -1.115089 v -5.714834 z m 10.584836,4.912892 -0.827804,-0.827803 v -3.92426 -3.924256 h -1.272138 c -1.267302,0 -1.271807,-0.0034 -1.184783,-0.90601 0.082,-0.850401 0.160074,-0.911271 1.272139,-0.991733 l 1.184782,-0.08572 v -1.36138 c 0,-1.495864 0.01915,-1.521913 1.324169,-1.801812 l 0.90601,-0.194318 v 1.694783 1.694785 h 1.672634 1.672635 v 0.975704 0.975703 h -1.672635 -1.672634 v 3.4289 c 0,2.295225 0.110603,3.539503 0.334527,3.763427 0.18399,0.18399 0.944623,0.334527 1.690297,0.334527 h 1.355771 l -0.08736,0.90601 -0.08736,0.906011 -1.890227,0.08263 c -1.775348,0.0776 -1.940534,0.03231 -2.71803,-0.745181 z m 19.772883,0.164512 c -1.865074,-1.255075 -1.946751,-4.005304 -0.158279,-5.329551 0.676603,-0.500979 1.182778,-0.58402 3.554346,-0.583116 2.66622,0.0011 2.76539,-0.02102 2.76539,-0.614119 0,-2.112225 -1.78524,-2.962941 -4.584548,-2.184664 -1.577734,0.438648 -1.688655,0.437263 -2.026915,-0.02534 -0.542254,-0.741577 -0.435303,-1.121226 0.408781,-1.451044 3.613412,-1.411918 6.824622,-0.863626 7.944582,1.356484 0.40042,0.793774 0.48749,1.724965 0.48785,5.217498 l 4.3e-4,4.251282 h -1.11509 c -0.80534,0 -1.11509,-0.116156 -1.11509,-0.418159 0,-0.515676 -0.028,-0.515723 -1.01353,-0.0017 -1.27514,0.665031 -4.008008,0.549538 -5.147927,-0.217554 z m 5.338987,-1.460522 c 0.6689,-0.345903 0.82247,-0.604331 0.82247,-1.384055 0,-1.200483 -0.66796,-1.606542 -2.69083,-1.635783 -1.17943,-0.01706 -1.603789,0.108894 -2.174974,0.645492 -0.886226,0.832565 -0.89123,1.249555 -0.02537,2.115403 0.815529,0.815532 2.753844,0.938888 4.068714,0.258943 z m 5.5616,-5.688888 c 0,-7.54827 0.0171,-7.791688 0.55755,-7.945013 0.30665,-0.087 0.80844,-0.229349 1.11509,-0.316345 0.54838,-0.155572 0.55754,-0.02503 0.55754,7.945012 v 8.103186 h -1.11509 -1.11509 z m 4.73913,2.072006 v -5.714834 h 1.11509 1.11509 v 5.714834 5.714834 h -1.11509 -1.11509 z m 4.18159,4.782095 c 0,-0.727588 0.35371,-1.356055 1.60819,-2.857417 3.03823,-3.636142 4.24603,-5.182114 4.24603,-5.434888 0,-0.139269 -1.3172,-0.253217 -2.92711,-0.253217 h -2.92711 v -0.975703 -0.975704 h 4.59974 4.59975 v 0.848667 c 0,0.831402 -1.04953,2.291364 -4.92259,6.847628 -0.66572,0.783155 -1.21041,1.504479 -1.21041,1.602941 0,0.09847 1.37993,0.179025 3.0665,0.179025 h 3.0665 v 0.975703 0.975704 h -4.59975 -4.59974 z m 12.55312,0.576103 c -0.90764,-0.459272 -1.96004,-2.049727 -1.95873,-2.960164 0.001,-1.027533 0.9353,-2.430667 1.97575,-2.968706 0.67493,-0.34902 1.45921,-0.43537 3.2879,-0.362 2.39677,0.09616 2.40171,0.09494 2.4845,-0.615814 0.047,-0.403793 -0.16469,-1.026997 -0.48895,-1.439237 -0.80916,-1.028679 -2.31118,-1.22615 -4.27741,-0.562354 l -1.56107,0.527016 -0.33297,-0.803851 c -0.43133,-1.041332 -0.22495,-1.221692 2.03656,-1.779775 3.17814,-0.784284 5.84053,0.08268 6.54625,2.131686 0.19563,0.567974 0.33922,2.660414 0.34847,5.077942 l 0.0157,4.111893 h -1.08526 c -0.7185,0 -1.14076,-0.144611 -1.24947,-0.427907 -0.14762,-0.384695 -0.24777,-0.384695 -0.99168,0 -0.9989,0.516548 -3.78695,0.558383 -4.74962,0.07127 z m 5.28399,-2.009021 c 0.6561,-0.593763 0.73169,-1.606278 0.16241,-2.175554 -1.15849,-1.1585 -4.53246,-0.663531 -5.02451,0.737108 -0.24755,0.704625 -0.18667,0.875513 0.53221,1.493863 0.70029,0.60236 1.01467,0.681395 2.28988,0.575646 0.89611,-0.07431 1.69938,-0.322802 2.04001,-0.631063 z m 7.07289,1.70527 -0.79619,-0.684514 -0.0958,-4.066682 -0.0958,-4.066678 h -1.08895 c -1.05866,0 -1.08895,-0.02714 -1.08895,-0.975703 0,-0.952474 0.0265,-0.975704 1.11509,-0.975704 h 1.11509 v -1.377408 c 0,-1.510345 0.0201,-1.538177 1.30969,-1.814661 l 0.89153,-0.19114 0.0842,1.621912 0.0842,1.621911 1.60294,0.0836 1.60294,0.08361 v 0.947879 0.947879 l -1.60294,0.08361 -1.60294,0.0836 -0.0783,3.247063 c -0.0932,3.867378 0.10194,4.250097 2.087,4.092217 l 1.22289,-0.09726 -0.0825,0.978736 -0.0825,0.978734 -1.85214,0.08176 c -1.62995,0.07195 -1.94766,-2.79e-4 -2.64834,-0.602756 z m 6.3125,-5.054447 v -5.714834 h 1.11509 1.11509 v 5.714834 5.714834 h -1.11509 -1.11509 z m 18.12021,0 v -5.714834 h 1.11509 c 0.80534,0 1.11508,0.116156 1.11508,0.418159 0,0.520256 -0.008,0.520716 1.14196,-0.06581 1.33285,-0.679837 3.54132,-0.604632 4.78318,0.162875 1.62738,1.005778 1.88049,1.908292 1.88049,6.705293 v 4.209148 h -1.11509 -1.11509 v -3.881423 c 0,-3.769011 -0.0209,-3.906268 -0.72171,-4.739131 -0.6204,-0.737305 -0.90862,-0.857707 -2.0532,-0.857707 -0.92491,0 -1.55577,0.176427 -2.06601,0.577778 l -0.73453,0.577778 v 4.161352 4.161353 h -1.11508 -1.11509 z M 62.710438,32.777611 c -0.18399,-0.18399 -0.334527,-0.66069 -0.334527,-1.059335 0,-0.8766 0.465536,-1.393862 1.254476,-1.393862 0.78894,0 1.254476,0.517262 1.254476,1.393862 0,0.8766 -0.465536,1.393862 -1.254476,1.393862 -0.321982,0 -0.735959,-0.150537 -0.919949,-0.334527 z M 113.523,32.546152 c -0.73412,-0.811188 -0.28079,-2.047878 0.79625,-2.172189 1.00954,-0.116518 1.58095,0.378158 1.58095,1.368639 0,1.313564 -1.46691,1.809414 -2.3772,0.80355 z m 35.40409,0 c -0.40511,-0.447639 -0.45679,-0.724521 -0.24716,-1.324169 0.48573,-1.38939 2.62436,-1.086953 2.62436,0.37113 0,1.382848 -1.45891,1.96774 -2.3772,0.953039 z"
       id="path875"
       sodipodi:nodetypes="sscccssscccccccsssssssssssssssssscccssscscsscssscccccccccccssssssscccccccccccssscsscccccccccssscccsscsscsssssscsscssssssssssssscccscccccccccsssscccccsssscccccsccsscsscsssccsssccssssssccccssscssccccccccccscccscccccccccccccssssscccssssccccccssssssssssssss" />
  </g>
</svg>
