<svg xmlns="http://www.w3.org/2000/svg" id="Layer_1" data-name="Layer 1" version="1.1" viewBox="0 0 177 50.36"><defs id="defs4"><style id="style2">.cls-1{fill:#fff;stroke:#d9d9d9}</style></defs><g id="g1280" transform="translate(.024 2.008)"><g id="Group_81" data-name="Group 81" transform="translate(-26.61 -44.82)"><g id="Group_80" data-name="Group 80"><path id="Path_392" d="M53.36 62.31c2.64 0 6.45-.55 6.45-3.68a2.88 2.88 0 0 0-.06-.72l-1.57-6.82c-.37-1.5-.68-2.18-3.32-3.5-2-1-6.49-2.77-7.81-2.77-1.32 0-1.59 1.59-3 1.59s-2.45-1.18-3.77-1.18c-1.32 0-2.09.86-2.73 2.63 0 0-1.77 5-2 5.72a1.43 1.43 0 0 0 0 .41c0 1.94 7.64 8.31 17.89 8.31m6.86-2.4a10.2 10.2 0 0 1 .28 2.1c0 3-3.31 4.59-7.67 4.59-9.86 0-18.49-5.77-18.49-9.59a3.9 3.9 0 0 1 .32-1.54c-3.54.18-8.13.82-8.13 4.86 0 6.63 15.72 14.8 28.16 14.8 9.54 0 11.94-4.31 11.94-7.72 0-2.68-2.31-5.72-6.49-7.54" data-name="Path 392" style="fill:#e00"/><path id="Path_393" d="M60.22 59.9a9.67 9.67 0 0 1 .36 2.1c0 2.95-3.31 4.58-7.67 4.58-9.86 0-18.48-5.76-18.48-9.58a3.85 3.85 0 0 1 .31-1.54l.78-1.91a1.13 1.13 0 0 0-.05.41c0 1.94 7.65 8.31 17.89 8.31 2.64 0 6.45-.55 6.45-3.68a2.92 2.92 0 0 0-.06-.72z" data-name="Path 393"/></g><path id="Path_394" d="M148.64 64.27c0 2.5 1.51 3.73 4.25 3.73a11.6 11.6 0 0 0 2.5-.36v-2.9a5.21 5.21 0 0 1-1.61.25c-1.13 0-1.55-.36-1.55-1.42v-4.46h3.27v-3h-3.27v-3.78l-3.59.78v3h-2.37v3h2.37zm-11.15.07c0-.77.77-1.15 1.95-1.15a8.92 8.92 0 0 1 2.12.26V65a4.35 4.35 0 0 1-2.24.55c-1.15 0-1.83-.44-1.83-1.17m1.1 3.7a5.47 5.47 0 0 0 3.23-.91v.71h3.55v-7.55c0-2.86-1.93-4.43-5.14-4.43a13 13 0 0 0-5.48 1.29l1.25 2.63a9.68 9.68 0 0 1 3.54-.93c1.49 0 2.24.58 2.24 1.75v.58a10.38 10.38 0 0 0-2.66-.34c-3 0-4.83 1.27-4.83 3.53 0 2.06 1.64 3.63 4.26 3.63m-19.48-.2h3.81v-6.07h6.39v6.07h3.81V52.33h-3.81v6h-6.39v-6h-3.81zM104.59 62a3 3 0 0 1 3-3h.11a3.64 3.64 0 0 1 2.48.91V64a3.45 3.45 0 0 1-2.48.93 3 3 0 0 1-3.08-2.88V62m5.61 5.87h3.54V51.56l-3.59.77v4.41a6.11 6.11 0 0 0-9.08 5.11V62a6 6 0 0 0 5.9 6h.1a5.27 5.27 0 0 0 3.15-1zm-16.26-9a2.58 2.58 0 0 1 2.45 1.86h-4.9a2.45 2.45 0 0 1 2.44-1.86M87.88 62a6.17 6.17 0 0 0 6.23 6.08h.15a7 7 0 0 0 4.9-1.77l-2.37-2.1a3.13 3.13 0 0 1-2.34.89 3 3 0 0 1-2.88-1.86h8.35v-.89c0-3.72-2.5-6.4-5.92-6.4a6 6 0 0 0-6.11 5.92V62m-6.18-6.4a1.78 1.78 0 0 1 2 1.57v.18a1.78 1.78 0 0 1-1.8 1.76h-3.97V55.6Zm-7.58 12.25h3.81V62.2h2.9l2.92 5.65H88l-3.41-6.2a4.69 4.69 0 0 0 2.92-4.36c0-2.8-2.19-4.94-5.47-4.94h-7.91z" data-name="Path 394"/></g><path id="path875" d="M87.099 46.096c-2.5-.907-3.028-2.247-2.919-7.408l.08-3.764h2.23l.14 4.138c.131 3.929.172 4.164.797 4.669.905.732 2.805.71 3.764-.046l.735-.578v-8.322h2.23v11.429h-1.115c-.805 0-1.115-.116-1.115-.418 0-.517-.135-.521-.916-.027-.964.611-2.722.758-3.911.327zm70.25.005c-.86-.235-1.741-.756-2.451-1.45-3.789-3.7-1.222-10.004 4.073-10.004 6.192 0 8.151 8.237 2.648 11.135-1.116.587-2.822.715-4.27.319zm3.422-2.294c2.333-1.378 2.333-5.237 0-6.615-2.729-1.612-5.958 1.023-5.248 4.283.32 1.474 1.89 2.788 3.33 2.788.631 0 1.494-.205 1.918-.456zm-108.84 2.144c-.089-.145-.336-.74-.55-1.324-.212-.584-1.581-3.978-3.042-7.542l-2.655-6.482h2.617l2.484 6.273c1.366 3.45 2.575 6.272 2.685 6.272.225 0 .862-1.468 3.446-7.945l1.779-4.46 1.32-.087c1.001-.066 1.282.002 1.167.279-.083.2-.918 2.184-1.854 4.407-.936 2.224-2.345 5.58-3.132 7.457l-1.43 3.415h-1.335c-.735 0-1.41-.118-1.5-.263zM62.44 40.57l.075-5.645h2.23l.076 5.645.075 5.645h-2.532zm4.954-.07v-5.714h1.002c.764 0 1.036.13 1.146.553.143.546.153.546.823.02.814-.641 2.102-.96 2.877-.715.421.134.564.42.564 1.136 0 .946-.015.957-1.234.957-.92 0-1.45.183-2.09.722l-.858.722v8.034h-2.23V40.5zm10.585 4.914-.828-.828v-7.849h-1.272c-1.268 0-1.272-.003-1.185-.906.082-.85.16-.911 1.272-.992l1.185-.085V33.39c0-1.496.019-1.522 1.324-1.801l.906-.195v3.39H82.726v1.951H79.381v3.43c0 2.294.11 3.539.335 3.763.184.184.944.334 1.69.334h1.356l-.088.906-.087.906-1.89.083c-1.776.077-1.94.032-2.718-.745zm19.773.164c-1.866-1.255-1.947-4.005-.159-5.33.677-.5 1.183-.584 3.555-.583 2.666.001 2.765-.02 2.765-.614 0-2.112-1.785-2.963-4.585-2.184-1.577.438-1.688.437-2.026-.026-.543-.741-.436-1.121.408-1.45 3.614-1.413 6.825-.864 7.945 1.356.4.793.487 1.725.488 5.217v4.251h-1.115c-.805 0-1.115-.116-1.115-.418 0-.515-.028-.515-1.014-.001-1.275.665-4.008.55-5.147-.218zm5.339-1.46c.668-.346.822-.605.822-1.385 0-1.2-.668-1.606-2.69-1.635-1.18-.017-1.605.109-2.176.645-.886.833-.891 1.25-.025 2.116.815.815 2.754.938 4.069.258zm5.561-5.69c0-7.548.017-7.791.558-7.944l1.115-.317c.548-.155.557-.025.557 7.945v8.103h-2.23zm4.74 2.073v-5.715h2.229v11.429h-2.23zm4.18 4.782c0-.728.355-1.356 1.609-2.858 3.038-3.636 4.246-5.182 4.246-5.435 0-.139-1.317-.253-2.927-.253h-2.927v-1.951h9.2v.848c0 .832-1.05 2.292-4.923 6.848-.666.783-1.21 1.505-1.21 1.603 0 .098 1.38.179 3.066.179h3.066v1.951h-9.2zm12.554.576c-.908-.46-1.96-2.05-1.959-2.96.001-1.028.936-2.431 1.976-2.97.675-.348 1.46-.434 3.288-.361 2.397.096 2.402.095 2.484-.616.047-.404-.164-1.027-.489-1.44-.809-1.028-2.31-1.225-4.277-.561l-1.561.527-.333-.804c-.431-1.042-.225-1.222 2.037-1.78 3.178-.784 5.84.083 6.546 2.132.195.568.339 2.66.348 5.078l.016 4.111h-1.085c-.719 0-1.141-.144-1.25-.427-.147-.385-.248-.385-.991 0-1 .516-3.787.558-4.75.07zm5.284-2.01c.656-.593.732-1.605.162-2.175-1.158-1.158-4.532-.663-5.024.737-.248.705-.187.876.532 1.494.7.603 1.015.682 2.29.576.896-.074 1.7-.323 2.04-.631zm7.073 1.706-.796-.684-.096-4.067-.096-4.067h-1.089c-1.059 0-1.089-.027-1.089-.976 0-.952.027-.975 1.115-.975h1.115v-1.378c0-1.51.02-1.538 1.31-1.814l.892-.191.084 1.621.084 1.622 1.603.084 1.603.084v1.895l-1.603.084-1.603.084-.078 3.247c-.094 3.867.102 4.25 2.087 4.092l1.223-.097-.083.978-.082.98-1.853.08c-1.63.073-1.947 0-2.648-.602zm6.312-5.054v-5.715h2.231v11.429h-2.231zm18.12 0v-5.715h1.116c.805 0 1.115.116 1.115.418 0 .52-.008.52 1.142-.066 1.333-.68 3.541-.605 4.783.163 1.627 1.006 1.88 1.908 1.88 6.705v4.21h-2.23v-3.882c0-3.769-.02-3.906-.722-4.74-.62-.736-.908-.857-2.053-.857-.925 0-1.556.177-2.066.578l-.734.578v8.322h-2.23zM62.71 32.778c-.184-.184-.334-.661-.334-1.06 0-.876.465-1.394 1.254-1.394.79 0 1.255.518 1.255 1.394 0 .877-.466 1.394-1.255 1.394-.322 0-.736-.15-.92-.334zm50.813-.232c-.734-.811-.28-2.048.796-2.172 1.01-.117 1.581.378 1.581 1.369 0 1.313-1.467 1.809-2.377.803zm35.404 0c-.405-.447-.457-.724-.247-1.324.486-1.39 2.624-1.087 2.624.371 0 1.383-1.459 1.968-2.377.953z" style="fill:#000;stroke-width:.278772"/></g></svg>