<svg xmlns="http://www.w3.org/2000/svg" fill="none" viewBox="0 0 18 20"><path fill="#fff" d="m17.014 10.043-5.603 1.02c-.143.184-.48.49-.643.572-.705.357-1.184.255-1.603.143-.265-.071-.418-.102-.643-.204l-1.367.184.826 6.93 9.604-1.735zM8.46 18.035l-.082-.756 1.572-2.388 1.776.52 1.53-2.561 1.838 1.214 1.398-2.929.5 5.328zm-.398-6.808c-.694-.45-1.409-1.082-1.725-1.44-.051-.04-.04-.213-.04-.213.285.224 1.459 1.061 2.694 1.439.439.132 1.112.183 1.694-.143.449-.255.98-.694 1.296-1.143l.061.102c0 .071-.153.398-.224.53.132.082.235.103.388.143l1.03-.163c.368-.592.633-1.551.347-2.47-.163-.52-1-1.572-1.06-1.623-.215-.204.03-.98-.379-1.837-.438-.898-1.592-1.837-2.092-2.255.143.102 1.051.47 1.47.98.04-.052.061-.327.092-.399-.368-.47-.388-1.316-.388-1.54 0-.42-.215-.889-.215-.889s.368.286.46.786c.112.582.347 1.051.663 1.44.592.734 1.123 1.112 1.398.836.327-.326-.326-1.786-1.153-2.602-.97-.95-1.225-.827-1.786-.623-.449.153-.694 1.45-1.878 1.419a9.726 9.726 0 0 0-.97-.03c.133-.185.245-.328.245-.328s-.398.164-.734.368l-.031-.04c.112-.246.235-.389.235-.389s-.317.194-.602.419c.05-.286.255-.47.255-.47s-.398.072-.909.633c-.581.153-.714.265-1.184.47-.755-.164-1.102-.43-1.439-.92-.255-.367-.714-.428-1.184-.234-.683.286-1.54.664-1.54.664s.285-.01.57 0c-.397.153-.785.357-.785.357s.184-.01.418 0a4.434 4.434 0 0 1-.398.296C.296 2.623 0 2.929 0 2.929s.245-.112.47-.173C.315 3.113 0 3.378.06 3.817c.051.398.541 1.225 1.184 1.735.051.041.919.847 1.572.52s.908-.622 1.02-1.07c.123-.521.052-.91-.214-2.032a35.702 35.702 0 0 0-.428-1.49l.02-.02c.214.449.755 1.643.98 2.439.347 1.245.235 1.878.081 2.113-.48.694-1.694.796-2.245.408-.082 1.337.214 1.929.316 2.225-.05.337.174.98.174.98s.02-.286.122-.44c.031.338.194.746.194.746s-.01-.245.072-.46c.112.184.194.225.296.368.102.367.306.633.306.633s-.03-.194-.02-.398c.51.49.591 1.204.643 1.745.142 1.5-2.368 2.694-2.858 3.633-.368.552-.592 1.44.03 1.96 1.51 1.255.93 1.602 1.684 2.154 1.041.755 2.338.418 2.777-.194.612-.858.459-1.664.224-2.42-.184-.591-.663-1.571-1.266-1.949a2.639 2.639 0 0 0-1.714-.408l.05-.051c.726-.143 1.491-.061 2.042.286.623.398 1.194 1.092 1.49 2.143.337-.05.388-.071.694-.112l-.704-5.47zm3.5-6.808c.644.296.562.868.572 1.205.01.092 0 .163-.01.204-.092-.051-.224-.082-.45-.072-.06 0-.132.01-.193.02-.235-.122-.378-.377-.51-.642-.01-.02-.02-.051-.03-.072 0-.01-.011-.02-.011-.03v-.01c-.072-.225-.02-.276.01-.337s.143-.133-.02-.184c-.01 0-.03-.01-.051-.01.112-.143.449-.184.694-.072zm-.795 3.736c.122-.092.694-.276 1.224-.347.276-.03.674-.051.756 0 .163.092.163.378.05.643-.163.388-.397.806-.673.837-.439.061-.847-.174-1.317-.53-.163-.123-.265-.43-.04-.603zM6.644 5.246c.694-.47 1.582-.286 1.43-.143-.287.276.091.194.132.694.03.368-.092.572-.194.684-.214.03-.48.082-.796.184a3.771 3.771 0 0 0-.49.194.48.48 0 0 1-.123-.092c-.48-.429-.459-1.174.041-1.52z"/></svg>