<svg xmlns="http://www.w3.org/2000/svg" fill="none" height="20" viewBox="0 0 18 20" width="18"><path d="m17.0138 10.0431-5.6032 1.0206c-.1429.1837-.4797.4899-.643.5715-.7043.3572-1.18394.2552-1.6024.1429-.26536-.0714-.41846-.102-.64299-.2041l-1.36764.1837.82671 6.93 9.60402-1.735zm-8.55283 7.9914-.08165-.7552 1.57176-2.3883 1.77592.5205 1.5309-2.5617 1.8371 1.2145 1.3983-2.9292.5001 5.3277zm-.39804-6.8075c-.69403-.4491-1.40846-1.0819-1.72486-1.4391-.05103-.04082-.04082-.21433-.04082-.21433.28577.22454 1.45949 1.06143 2.69444 1.43913.43887.1326 1.11251.1837 1.69421-.1429.4491-.2552.9798-.6941 1.2962-1.14313l.0613.10206c0 .07144-.1531.39807-.2246.53077.1327.0816.2348.102.3879.1428l1.0308-.1633c.3674-.59192.6328-1.55131.347-2.46987-.1633-.52052-1.0002-1.57176-1.0614-1.62279-.2144-.20413.0306-.9798-.3777-1.83712-.4388-.89815-1.5922-1.83713-2.0923-2.25558.1429.10206 1.0513.46948 1.4697.9798.0409-.05103.0613-.3266.0919-.39805-.3674-.46948-.3878-1.3166-.3878-1.54114 0-.418454-.2144-.887941-.2144-.887941s.3675.285775.4593.785881c.1123.58175.347 1.05124.6634 1.43908.592.73485 1.1227 1.11248 1.3983.83691.3266-.3266-.3266-1.78609-1.1533-2.60259-.9696-.94918-1.2248-.8267055-1.7861-.622581-.4491.153094-.69405 1.449281-1.87797 1.418671-.20413-.02042-.71444-.04083-.9696-.03062.13268-.18372.24495-.3266.24495-.3266s-.39804.1633-.73485.36742l-.03061-.04082c.11226-.24495.23474-.38784.23474-.38784s-.3164.19392-.60217.41846c.05103-.28578.25516-.46949.25516-.46949s-.39805.07144-.90836.63279c-.58175.15309-.71444.26536-1.18392.46948-.75526-.1633-1.10228-.42866-1.43908-.91856-.25516-.367423-.71444-.428661-1.18392-.23474-.68382.28577-1.541146.6634-1.541146.6634s.285776-.0102.571546 0c-.39804.1531-.785877.35722-.785877.35722s.183712-.0102.418457 0c-.163301.13268-.244951.19392-.398045.29598-.367424.26536-.663405.57155-.663405.57155s.24495-.11227.469487-.1735c-.153094.35721-.469487.62258-.4082496 1.06144.0510316.39805.5409306 1.22475 1.1839226 1.73506.05103.04083.91856.84712 1.57176.52052s.90836-.62258 1.02062-1.07165c.12248-.52052.05104-.90836-.21433-2.03104-.09185-.36743-.31639-1.1329-.42866-1.49011l.02041-.02042c.21434.44908.75527 1.64321.9798 2.43929.34701 1.24516.23475 1.87795.08165 2.11269-.47969.69403-1.69423.79609-2.24537.40825-.08165 1.33702.21433 1.92898.31639 2.22496-.05103.33681.17351.9798.17351.9798s.02041-.28577.12247-.43887c.03062.33681.19392.74506.19392.74506s-.0102-.24495.07145-.45928c.11227.18371.19392.22454.29598.36742.10206.36747.30619.63277.30619.63277s-.03062-.1939-.02042-.398c.51031.4899.59196 1.2043.643 1.7452.14288 1.5004-2.36785 2.6945-2.85775 3.6335-.367425.5511-.591962 1.439.03062 1.9596 1.51052 1.2553.92877 1.6023 1.68403 2.1535 1.04103.7552 2.33723.4184 2.77609-.1939.61238-.8574.45928-1.6637.22454-2.4189-.18371-.592-.6634-1.5718-1.26557-1.9494-.61238-.3878-1.21454-.4593-1.71465-.4083l.05103-.051c.72464-.1429 1.49011-.0612 2.04125.2858.62258.398 1.19413 1.0921 1.49011 2.1433.3368-.051.38784-.0715.69402-.1123l-.70423-5.4705zm3.50077-6.80758c.643.29598.5613.86753.5715 1.20434.0102.09185 0 .1633-.0102.20412-.0918-.05103-.2245-.08165-.4491-.07144-.0612 0-.1326.0102-.1939.02041-.2347-.12247-.3776-.37763-.5103-.64299-.0102-.02041-.0204-.05103-.0306-.07145 0-.0102-.0102-.02041-.0102-.03061v-.01021c-.0715-.22454-.0204-.27557.0102-.33681.0306-.06123.1429-.13268-.0204-.18371-.0102 0-.0306-.0102-.0511-.0102.1123-.14289.4491-.18372.6941-.07145zm-.7961 3.73549c.1225-.09186.694-.27557 1.2247-.34702.2756-.03062.6736-.05103.7553 0 .1633.09186.1633.37763.051.643-.1633.38783-.398.80629-.6736.83691-.4389.06123-.8471-.17351-1.3166-.53073-.1633-.12247-.2654-.42866-.0408-.60216zm-4.12334-2.90878c.69402-.46949 1.58197-.28578 1.42887-.14289-.28577.27557.09186.19392.13268.69402.03062.36743-.09185.57155-.19391.68382-.21434.03062-.4797.08165-.79609.18371-.18371.06124-.34701.12248-.4899.19392-.04083-.02041-.08165-.05103-.12248-.09185-.47969-.42866-.45928-1.17372.04083-1.52073z" fill="#fff"/></svg>