<svg xmlns="http://www.w3.org/2000/svg" viewBox="0 0 1403 272"><path fill="#2B388F" fill-rule="nonzero" d="M442.007 152.524a59.197 59.197 0 0 1-4.6 23.2c-9.163 21.933-30.67 36.156-54.44 36a59.23 59.23 0 0 1-23.21-4.59 57.51 57.51 0 0 1-31.41-31.41 61 61 0 0 1 0-46.41 57.51 57.51 0 0 1 31.39-31.41 59.23 59.23 0 0 1 23.21-4.59c23.804-.273 45.37 13.989 54.44 36a59.247 59.247 0 0 1 4.62 23.21Zm-12.8 0a49 49 0 0 0-3.6-18.78 47 47 0 0 0-9.76-15.09 46.37 46.37 0 0 0-65.93 0 47 47 0 0 0-9.76 15.09 49 49 0 0 0-3.61 18.78 48.57 48.57 0 0 0 13.37 33.78 44.81 44.81 0 0 0 14.68 10.09 47.15 47.15 0 0 0 36.57 0 44.91 44.91 0 0 0 14.68-10.09 48.5 48.5 0 0 0 13.36-33.78Zm110.21 16.23a44.064 44.064 0 0 1-3.2 16.73c-8.356 20.548-31.449 30.83-52.31 23.29a41.62 41.62 0 0 1-12.39-7.05v8.2h-12v-114.8l12.14-2.79v44.11a34.05 34.05 0 0 1 11.9-7.44 41.19 41.19 0 0 1 14.51-2.54 40.22 40.22 0 0 1 16.24 3.28 40.7 40.7 0 0 1 21.89 22.39 43.41 43.41 0 0 1 3.2 16.62h.02Zm-42.5-31.65a34.16 34.16 0 0 0-14.35 3 29 29 0 0 0-10.9 8.45v40.67a29.41 29.41 0 0 0 11 8.28 34.14 34.14 0 0 0 14.26 3 29 29 0 0 0 21.74-9.1c5.84-6.067 8.763-13.584 8.77-22.55a33 33 0 0 0-2.43-12.48 31.9 31.9 0 0 0-6.48-10.09 30.21 30.21 0 0 0-9.67-6.72 29.35 29.35 0 0 0-11.94-2.46Zm51 61.5 7.38-7.87a41 41 0 0 0 12.54 8.12 37 37 0 0 0 14.17 2.87c6.56 0 11.916-1.367 16.07-4.1 4.153-2.734 6.24-6.274 6.26-10.62a10.17 10.17 0 0 0-3.69-8.29c-2.46-2-6.314-3.394-11.56-4.18l-14.27-2c-8.2-1.2-14.294-3.63-18.28-7.29-3.987-3.66-5.987-8.61-6-14.85 0-6.88 2.896-12.59 8.69-17.13 5.793-4.54 13.173-6.811 22.14-6.811a53.56 53.56 0 0 1 16.81 2.62 55.31 55.31 0 0 1 15.5 8.2l-6.39 8.2a61.25 61.25 0 0 0-13.37-6.88 39.28 39.28 0 0 0-13.2-2.3c-5.58 0-10.147 1.257-13.7 3.77a11.57 11.57 0 0 0-5.33 9.84 9.79 9.79 0 0 0 3.62 8.1c2.413 1.914 6.296 3.247 11.65 4l14.26 2c8.2 1.087 14.35 3.517 18.45 7.29 4.1 3.774 6.15 8.774 6.15 15a20.371 20.371 0 0 1-2.54 9.92 24.53 24.53 0 0 1-7 8 34.91 34.91 0 0 1-10.58 5.25 44.21 44.21 0 0 1-13.12 1.88 53.78 53.78 0 0 1-19.1-3.36 46.68 46.68 0 0 1-15.55-9.38h-.01Zm151.53 2.62a52.57 52.57 0 0 1-14.35 7.63 50.41 50.41 0 0 1-16.32 2.54 42.37 42.37 0 0 1-16.64-3.28 40.74 40.74 0 0 1-13.45-9 44 44 0 0 1-9-46.9 43.89 43.89 0 0 1 8.61-13.45 39.44 39.44 0 0 1 28.7-12.3 36.17 36.17 0 0 1 15.33 3.28 37.27 37.27 0 0 1 12.3 9 43.81 43.81 0 0 1 8.2 13.45 44.67 44.67 0 0 1 3 16.56v3.77h-67.38a31.12 31.12 0 0 0 10 20.18 29.62 29.62 0 0 0 20.83 8 39.94 39.94 0 0 0 12.46-2 28.61 28.61 0 0 0 10.17-5.57l7.54 8.09Zm-32.8-64.12a26.24 26.24 0 0 0-18.45 7.22 30.33 30.33 0 0 0-9.43 18.53h54.94a31.5 31.5 0 0 0-9.26-18.29 24.69 24.69 0 0 0-17.79-7.46h-.01Zm56.09 72.82v-82.17h12.14v11.65a26.35 26.35 0 0 1 9.51-9.93 25.71 25.71 0 0 1 13.46-3.47c1.37-.01 2.74.07 4.1.24a17.6 17.6 0 0 1 3.6.91v11.15a41.47 41.47 0 0 0-4.26-1.07 22.77 22.77 0 0 0-4.26-.41 21.41 21.41 0 0 0-13.29 4.35 27.42 27.42 0 0 0-8.85 12.54v56.26l-12.15-.05Zm86.1 0-35.59-82.17h13.46l28 66.42 28-66.42h13l-35.42 82.17h-11.45Zm84 1.47c-8.96 0-16.257-2.297-21.89-6.89a23.22 23.22 0 0 1 .41-36.16c5.9-4.527 13.88-6.794 23.94-6.8a54.51 54.51 0 0 1 12.71 1.46 53.43 53.43 0 0 1 11.4 4.1v-10.81c0-6.56-1.86-11.507-5.58-14.84-3.72-3.334-9.13-5-16.23-5a45.07 45.07 0 0 0-12.22 1.73 73.8 73.8 0 0 0-13.53 5.49l-4.59-9.35a91.39 91.39 0 0 1 16.4-6.23 59.67 59.67 0 0 1 15.09-2c10.38 0 18.38 2.46 24 7.38 5.62 4.92 8.436 11.973 8.45 21.16v55.27h-11.82v-8a38.86 38.86 0 0 1-12.22 7.1 42.16 42.16 0 0 1-14.35 2.39h.03Zm-18.72-25.09a13.41 13.41 0 0 0 5.82 11.23c3.88 2.9 8.88 4.35 15 4.35a37.52 37.52 0 0 0 13.45-2.3 30.88 30.88 0 0 0 11-7.21v-15.37a36.07 36.07 0 0 0-10.91-5 49.66 49.66 0 0 0-12.87-1.56c-6.56 0-11.78 1.45-15.66 4.35a13.72 13.72 0 0 0-5.83 11.51Zm84.29 5.25v-53.47h-17.71v-10.33h17.71v-20.83l12-3.11v23.94h24.77v10.33h-24.8v50.35c0 4.38 1 7.523 3 9.43 2 1.906 5.223 2.863 9.67 2.87a34.37 34.37 0 0 0 6.15-.49 34.88 34.88 0 0 0 5.81-1.64v10.66a32.34 32.34 0 0 1-7 1.64 58.36 58.36 0 0 1-7.46.49c-7.107 0-12.574-1.694-16.4-5.08-3.827-3.387-5.74-8.307-5.74-14.76Zm43.299-22.8a43.015 43.015 0 0 1 3.3-16.75 42.25 42.25 0 0 1 8.94-13.61 41.78 41.78 0 0 1 59.36 0 42.41 42.41 0 0 1 8.94 13.61 44.71 44.71 0 0 1 0 33.62 42.35 42.35 0 0 1-8.94 13.62 41.6 41.6 0 0 1-13.28 9 41.014 41.014 0 0 1-16.32 3.28 41.704 41.704 0 0 1-29.76-12.3 42.19 42.19 0 0 1-8.94-13.62 43.365 43.365 0 0 1-3.3-16.85Zm42 32c4.04.024 8.04-.815 11.73-2.46a29 29 0 0 0 9.51-6.8 32.24 32.24 0 0 0 6.31-10.17 35.36 35.36 0 0 0 0-25.09 31.2 31.2 0 0 0-6.31-10.09 29.53 29.53 0 0 0-9.51-6.72 29.17 29.17 0 0 0-23.45 0 29.47 29.47 0 0 0-9.52 6.72 32.27 32.27 0 0 0-6.39 10.09 32.75 32.75 0 0 0-2.38 12.54 33.69 33.69 0 0 0 2.3 12.55 32.24 32.24 0 0 0 6.31 10.17 29.152 29.152 0 0 0 21.4 9.26Zm58.71 9.19v-82.19h12.14v11.65a26.35 26.35 0 0 1 9.51-9.93 25.74 25.74 0 0 1 13.45-3.52c1.37-.01 2.74.07 4.1.24a17.86 17.86 0 0 1 3.61.91v11.15a42.31 42.31 0 0 0-4.27-1.07 22.77 22.77 0 0 0-4.26-.41 21.41 21.41 0 0 0-13.29 4.35 27.49 27.49 0 0 0-8.85 12.54v56.26l-12.14.02Zm62.79-97.94a8.41 8.41 0 0 1-8.2-8.2 7.77 7.77 0 0 1 2.46-5.82 8 8 0 0 1 5.74-2.38 8.13 8.13 0 0 1 8.2 8.2 8 8 0 0 1-2.38 5.74 7.77 7.77 0 0 1-5.82 2.46Zm6.07 15.74v82.17h-12.13v-82.16l12.13-.01Zm32.31 0v49.53c0 7.22 2.077 12.96 6.23 17.22 4.154 4.26 9.73 6.393 16.73 6.4a25.48 25.48 0 0 0 22.63-12.8v-60.34h12.14v82.17h-12.14v-9.52a30.5 30.5 0 0 1-11.23 8.37 36.36 36.36 0 0 1-14.52 2.79c-9.4 0-17.066-2.954-23-8.86-5.933-5.907-8.883-13.574-8.85-23v-52l12.01.04Zm78.42 82.18v-82.17h12.14v9a30.52 30.52 0 0 1 10.66-8 32.5 32.5 0 0 1 13.44-2.71 29.59 29.59 0 0 1 15.34 4 28.22 28.22 0 0 1 10.55 10.96 33.06 33.06 0 0 1 12.21-11.24 34.31 34.31 0 0 1 16-3.69c8.86 0 16.104 2.953 21.73 8.86 5.627 5.906 8.444 13.573 8.45 23v52h-12v-49.54c0-7.22-1.913-12.96-5.74-17.22-3.826-4.26-9.02-6.394-15.58-6.4a22.88 22.88 0 0 0-12.3 3.45 28.83 28.83 0 0 0-9.51 10c.21 1.2.41 2.43.57 3.69.168 1.326.251 2.662.25 4v52h-12v-49.52c0-7.22-1.913-12.96-5.74-17.22-3.826-4.26-8.963-6.394-15.41-6.4a23.51 23.51 0 0 0-11.89 3 26.18 26.18 0 0 0-9.1 8.93v61.18l-12.07.04Zm-998.25 17.5v-74.97a94.034 94.034 0 0 0-1.81-18.65 1.29 1.29 0 0 0 0-.19 91.49 91.49 0 0 0-2.29-9 .94.94 0 0 0-.06-.15 95.67 95.67 0 0 0-3.85-10.23l-1.15-.33c-5.22 3.43-13 8.46-15 9.81a.77.77 0 0 0-.29.94c14.807 37.4-2.135 79.856-38.622 96.787-36.488 16.932-79.848 2.457-98.848-32.997a.79.79 0 0 0-.91-.38l-26.64 7.73a.79.79 0 0 0-.57.76c.06 16.5.12 31 .12 31 0 27 38.33 41.83 80.55 44.581a.8.8 0 0 0 .85-.802v-24.96a.8.8 0 0 1 .84-.79 222.4 222.4 0 0 0 25.56 0 .79.79 0 0 1 .83.79v24.83a.8.8 0 0 0 .85.8c42.08-2.75 80.41-17.61 80.41-44.58h.03Zm-164 22a.79.79 0 0 1-1.14.71c-8.61-4.27-18.61-12.04-18.61-20.5v-9.8a.79.79 0 0 1 1.4-.51 51.06 51.06 0 0 0 17.83 13.51.8.8 0 0 1 .45.72l.07 15.87Zm36.36 11.72a160.14 160.14 0 0 1-21.67-4.86.8.8 0 0 1-.56-.76v-16a.79.79 0 0 1 1-.76 160.86 160.86 0 0 0 21.46 4.76c.386.059.67.39.67.78v16.07a.8.8 0 0 1-.94.81l.04-.04Zm102.06-28.35a51.06 51.06 0 0 0 17.83-13.47.8.8 0 0 1 1.41.51v9.8c0 8.46-10 16.23-18.54 20.54a.8.8 0 0 1-1.15-.71v-15.91a.8.8 0 0 1 .41-.72l.04-.04Zm-37.06 10.71a160.51 160.51 0 0 0 21.46-4.76.79.79 0 0 1 1 .76v16a.8.8 0 0 1-.56.76 159.8 159.8 0 0 1-21.67 4.86.8.8 0 0 1-.92-.79v-16.01a.79.79 0 0 1 .65-.78l.04-.04Zm-32.37-66c13.857 0 25.09-11.234 25.09-25.09 0-13.857-11.233-25.09-25.09-25.09-13.856 0-25.09 11.233-25.09 25.09.006 13.838 11.211 25.062 25.05 25.09h.04Zm-.22-47.66c4.61 0 8.35 2.73 8.35 6.1 0 3.37-3.74 6.1-8.35 6.1-4.61 0-8.35-2.73-8.35-6.1 0-3.37 3.7-6.1 8.31-6.1h.04Zm-167 58.65a47.5 47.5 0 0 0 4.65 8 17.94 17.94 0 0 0 14.53 7.31c1.571 0 3.135-.208 4.65-.62 1.11-.25 53.42-15.43 72.54-21a.78.78 0 0 0 .51-1.05 76.13 76.13 0 0 1-.35-56.42.79.79 0 0 0-.52-1.06c-18.32-4.8-70.74-18.53-71.88-18.79a18.44 18.44 0 0 0-19.07 6.22.59.59 0 0 0 .59 1 55.32 55.32 0 0 1 9.62-1.58c9.61 0 17.77 5.64 23 15.86 3.87 7.58 6 17.46 6 27.81 0 10.35-2.14 20.21-6 27.78-3.37 6.58-8 11.26-13.35 13.76a2.35 2.35 0 0 1-2.1-4.2l.26-.13c4.41-2.09 8.2-6 11-11.56 3.54-6.92 5.5-16 5.51-25.65.01-9.65-1.94-18.75-5.49-25.69-4.38-8.58-11.06-13.31-18.8-13.32a36.85 36.85 0 0 0-14.89 3.78 1 1 0 0 1-.07.15 41.5 41.5 0 0 0-7.62 4.74c-6.52 5.03-14.24 14.41-14.24 30.28a36.72 36.72 0 0 0 15.06 30.34 44.59 44.59 0 0 0 6.42 4l.04.04Zm-14.65-49.49s1.13-4 4-3.95c2.87.05 5.41 1.76 5.41 3.94 0 2.18-2.41 3.95-5.4 4-2.99.05-4.73-1.27-4.01-3.99Zm3.79 34.58a.78.78 0 0 1 .75-1.22 12.86 12.86 0 0 0 1.77.17c9.37 0 17-8.83 16.94-19.69-.06-10.86-7.63-19.66-17-19.64h-.28a.77.77 0 0 1-.63-1.27 33.36 33.36 0 0 1 4.78-4.6c6.67-5.24 14.73-7.57 19.78-7.58 12.9 0 19.64 17.28 19.63 34.33-.01 17.05-6.77 34.28-19.65 34.3-3.43 0-11.59-2.07-18.92-7.6a34.87 34.87 0 0 1-7.17-7.17v-.03Zm245.59-55.5c15.95-10.54 62.75-41.53 63.65-42.23a18.1 18.1 0 0 0 7.3-19 48.72 48.72 0 0 0-3.09-8.71 44 44 0 0 0 1.07-7.51 36.7 36.7 0 0 0-13.4-31.1c-12.12-10.22-24.26-10.41-32.31-8.76a41.29 41.29 0 0 0-8.54 2.75h-.17a36.57 36.57 0 0 0-12.5 8.92c-5 5.91-5.71 14.06-2 23 3 7.18 8.7 14.56 16.05 20.78 7.35 6.22 15.56 10.62 23.13 12.39 6.06 1.42 11.51 1.07 16-.94l.26-.12a2.35 2.35 0 0 1 1.85 4.31c-5.4 2.51-11.93 3-19.13 1.3-8.28-1.94-17.19-6.69-25.09-13.37-7.9-6.68-14.11-14.79-17.39-22.63-4.42-10.59-3.45-20.45 2.76-27.79a57 57 0 0 1 7.44-6.32.59.59 0 0 0-.34-1.05 18.41 18.41 0 0 0-17.08 10.53c-.55 1-24.73 51.49-32.53 67.77a76.13 76.13 0 0 1 44.06 37.81v-.03Zm34-112.55c1.86-2.2 5.61-.5 5.61-.5 2.52 1.19 2.34 3.34.41 5.62-1.93 2.28-4.85 3-6.51 1.56-1.66-1.44-1.47-4.37.46-6.65l.03-.03Zm24 54.2c-8.35 9.81-25.86 3.81-38.87-7.2-13.01-11.01-21.83-27.32-13.5-37.17 3.28-3.84 10.27-8.49 18.57-10.19a32.946 32.946 0 0 1 6.6-.67.77.77 0 0 1 .57 1.3l-.19.21c-6.07 7.14-4.28 18.63 4 25.67 8.28 7.04 19.9 7 26-.19.367-.463.701-.951 1-1.46a.77.77 0 0 1 1.41.22 34.94 34.94 0 0 1 .89 10.11c-.61 9.22-4.32 16.78-6.53 19.4l.05-.03Zm-273.84-6.44a13.9 13.9 0 0 0 5.67 17.18l53.51 32.53a.72.72 0 0 0 1-.27 101.68 101.68 0 0 1 23.08-27.73.75.75 0 0 0 .11-1l-37.32-47.9a4.75 4.75 0 0 0-5.58-1.41 1.81 1.81 0 0 1-2.44-1.09 1.87 1.87 0 0 1 1.11-2.3 8.38 8.38 0 0 1 9.77 2.55l37.29 47.81a.74.74 0 0 0 1 .13c.54-.42 1.1-.83 1.65-1.23a.73.73 0 0 0 .16-1l-36.12-47.22a14.27 14.27 0 0 0-16.15-4.73c-8.23-6.75-21.48-5.75-30.84 2.78a26.87 26.87 0 0 0-8.78 16.33 20.09 20.09 0 0 0 3.63 14.83c-.27.6-.52 1.19-.75 1.74Zm.73-16.11a23.33 23.33 0 0 1 7.62-14.1c7.43-6.76 17.63-8.1 24.53-3.77a74.66 74.66 0 0 0-17.73 12.14 60.55 60.55 0 0 0-12.56 16.29 16.94 16.94 0 0 1-1.86-10.56Zm123.11 172.65c23.378 9.851 50.39 4.645 68.43-13.19a61.29 61.29 0 0 0 13.19-19.82 64 64 0 0 0 0-48.79c-9.637-23.053-32.244-38.001-57.23-37.84a62.15 62.15 0 0 0-24.39 4.81 60.43 60.43 0 0 0-33 33 64.14 64.14 0 0 0 0 48.79 60.43 60.43 0 0 0 33 33v.04Zm-24.4-57.41a51.36 51.36 0 0 1 3.8-19.73 49.11 49.11 0 0 1 10.25-15.86 47.69 47.69 0 0 1 15.43-10.52 48.2 48.2 0 0 1 19.31-3.88 48.27 48.27 0 0 1 34.56 14.4 49.3 49.3 0 0 1 10.26 15.86 51.36 51.36 0 0 1 3.79 19.73 51 51 0 0 1-14.05 35.52 47.12 47.12 0 0 1-15.43 10.6 47.72 47.72 0 0 1-19.13 3.88 48.2 48.2 0 0 1-19.31-3.88 47.12 47.12 0 0 1-15.43-10.6 51.13 51.13 0 0 1-14.05-35.52Zm48.7-95.1a95.28 95.28 0 0 1 25 3.33.79.79 0 0 1 .5 1.11c-4.53 9.53-8.05 16.78-8.05 16.78-33.838-7.97-68.771 8.036-84.83 38.87a.78.78 0 0 1-.9.4l-17.42-4.56a.8.8 0 0 1-.52-1.1c15.65-33.474 49.27-54.854 86.22-54.83Zm-50.3 6.5a.72.72 0 0 0 1 .32 100.92 100.92 0 0 1 29.54-10.9l3.58-.65a100.61 100.61 0 0 1 32.3-.09.73.73 0 0 0 .85-.66l1-11.31a14.08 14.08 0 0 0-8.23-14.13 37.71 37.71 0 0 0-5.66-2 31 31 0 0 0-4.4-4.88c-4.63-4.15-12.64-8.65-24.46-6.57h-.08a27.75 27.75 0 0 0-20.53 15.19 33.35 33.35 0 0 0-2.09 5.11 36.61 36.61 0 0 0-5.44 4.58 13.8 13.8 0 0 0-2.45 15.43l5.07 10.56Zm8.21-34a24.28 24.28 0 0 1 17.93-13.27h.07c10.38-1.83 17.37 2.09 21.4 5.69.36.33.7.66 1 1a67.87 67.87 0 0 0-21.33.73 68 68 0 0 0-19.28 6.22l.21-.37Zm-9.77 13.65c1.41-3.73 7.14-10.5 29.63-14.52 23.64-4.22 31.85.6 34.51 3.41a1.47 1.47 0 0 1-.45 2.36l-.23.11a2.24 2.24 0 0 1-2.38-.31c-2.21-1.89-9.26-5.53-29-2.29l-3.59.64c-19.38 3.74-23.91 9.3-25 11.65a2.2 2.2 0 0 1-1.75 1.26 1.7 1.7 0 0 1-1.74-2.32v.01Z"/></svg>