<svg xmlns="http://www.w3.org/2000/svg" fill="none" viewBox="0 0 40 40"><path fill="#282E38" d="M.5 25.34c0 1.06.413 2.078 1.148 2.828A3.88 3.88 0 0 0 4.42 29.34a3.88 3.88 0 0 0 2.772-1.172A4.042 4.042 0 0 0 8.34 25.34v-4H4.42a3.88 3.88 0 0 0-2.772 1.172A4.042 4.042 0 0 0 .5 25.34Zm24.774-6.68a3.88 3.88 0 0 0 2.772-1.172 4.042 4.042 0 0 0 1.148-2.828V4c0-1.06-.413-2.078-1.148-2.828A3.88 3.88 0 0 0 25.274 0a3.88 3.88 0 0 0-2.771 1.172A4.042 4.042 0 0 0 21.354 4v10.66c0 .529.103 1.052.303 1.54.199.488.491.93.86 1.303.367.372.804.665 1.284.864.48.199.995.298 1.513.293h-.04Zm14.348-4c0-1.06-.413-2.078-1.148-2.828a3.88 3.88 0 0 0-2.772-1.172 3.88 3.88 0 0 0-2.772 1.172 4.042 4.042 0 0 0-1.148 2.828v4h3.92c.52.01 1.04-.085 1.524-.281.485-.197.926-.49 1.298-.862.373-.372.668-.817.87-1.308a4.07 4.07 0 0 0 .306-1.549h-.078Zm-24.736 6.68a3.88 3.88 0 0 0-2.771 1.172 4.042 4.042 0 0 0-1.149 2.828V36c0 1.06.413 2.078 1.149 2.828A3.88 3.88 0 0 0 14.886 40a3.88 3.88 0 0 0 2.772-1.172A4.042 4.042 0 0 0 18.806 36V25.34c0-1.06-.413-2.078-1.148-2.828a3.88 3.88 0 0 0-2.772-1.172ZM25.314 32h-3.92v4c0 .791.23 1.565.66 2.222a3.938 3.938 0 0 0 1.76 1.474 3.846 3.846 0 0 0 2.264.227 3.896 3.896 0 0 0 2.008-1.095 4.026 4.026 0 0 0 1.072-2.048 4.076 4.076 0 0 0-.223-2.31 3.983 3.983 0 0 0-1.444-1.796A3.864 3.864 0 0 0 25.314 32ZM35.78 21.34H25.314a3.88 3.88 0 0 0-2.772 1.172 4.042 4.042 0 0 0-1.148 2.828c0 1.06.413 2.078 1.148 2.828a3.88 3.88 0 0 0 2.772 1.172H35.78a3.88 3.88 0 0 0 2.772-1.172A4.042 4.042 0 0 0 39.7 25.34c0-1.06-.413-2.078-1.148-2.828a3.88 3.88 0 0 0-2.772-1.172ZM14.886 10.66H4.42a3.88 3.88 0 0 0-2.772 1.172A4.042 4.042 0 0 0 .5 14.66c0 1.06.413 2.078 1.148 2.828A3.88 3.88 0 0 0 4.42 18.66h10.466a3.88 3.88 0 0 0 2.772-1.172 4.042 4.042 0 0 0 1.148-2.828c0-1.06-.413-2.078-1.148-2.828a3.88 3.88 0 0 0-2.772-1.172Zm0-10.66a3.88 3.88 0 0 0-2.771 1.172A4.042 4.042 0 0 0 10.965 4c0 1.06.413 2.078 1.149 2.828A3.881 3.881 0 0 0 14.886 8h3.92V4c0-1.06-.413-2.078-1.148-2.828A3.88 3.88 0 0 0 14.886 0Z"/></svg>