<svg xmlns="http://www.w3.org/2000/svg" fill="none" viewBox="0 0 22 19"><path fill="url(#a)" fill-rule="evenodd" d="m10.883 5.414.046.744-.753-.09c-2.74-.35-5.135-1.536-7.168-3.528l-.994-.988-.256.73c-.542 1.626-.196 3.344.934 4.5.602.638.466.73-.573.35-.361-.122-.677-.213-.707-.168-.106.107.256 1.49.542 2.037.391.76 1.19 1.505 2.063 1.946l.738.35-.874.015c-.843 0-.873.015-.783.335.301.988 1.491 2.037 2.816 2.493l.934.32-.813.486a8.478 8.478 0 0 1-4.036 1.125c-.678.015-1.235.076-1.235.121 0 .152 1.837 1.004 2.906 1.338 3.208.988 7.018.563 9.879-1.125 2.033-1.201 4.066-3.588 5.014-5.899.512-1.231 1.024-3.481 1.024-4.56 0-.7.046-.79.889-1.627.497-.487.964-1.019 1.054-1.17.15-.29.136-.29-.633-.031-1.28.456-1.46.395-.828-.289.467-.486 1.024-1.368 1.024-1.627 0-.045-.226.03-.482.168-.27.152-.873.38-1.325.517l-.813.258-.738-.502c-.406-.273-.979-.577-1.28-.669-.768-.212-1.942-.182-2.635.061-1.882.684-3.072 2.448-2.937 4.379Z" clip-rule="evenodd"/><defs><linearGradient id="a" x1="-8.282" x2="35.867" y1="-18.676" y2="18.154" gradientUnits="userSpaceOnUse"><stop stop-color="#3D65AF"/><stop offset=".188" stop-color="#2372B8"/><stop offset=".61" stop-color="#00B8BB"/></linearGradient></defs></svg>