<svg xmlns="http://www.w3.org/2000/svg" fill="none" viewBox="0 0 49 40"><path fill="#282E38" fill-rule="evenodd" d="m23.807 10.64.104 1.73-1.734-.211c-6.313-.812-11.827-3.566-16.51-8.192L3.38 1.672l-.59 1.695c-1.249 3.778-.45 7.768 2.15 10.451 1.388 1.483 1.076 1.695-1.318.813-.832-.283-1.56-.495-1.63-.389-.242.247.59 3.46 1.249 4.731.902 1.766 2.74 3.496 4.751 4.52l1.7.812-2.012.035c-1.942 0-2.011.036-1.803.777.693 2.295 3.433 4.731 6.485 5.79l2.15.742-1.872 1.13c-2.775 1.624-6.035 2.542-9.295 2.613-1.56.035-2.844.176-2.844.282 0 .353 4.231 2.33 6.694 3.107 7.387 2.296 16.162 1.307 22.752-2.612 4.682-2.79 9.364-8.333 11.549-13.7 1.18-2.86 2.358-8.086 2.358-10.593 0-1.624.104-1.836 2.047-3.778 1.144-1.13 2.22-2.365 2.427-2.718.347-.671.313-.671-1.456-.07-2.948 1.058-3.364.917-1.908-.672 1.075-1.13 2.359-3.178 2.359-3.778 0-.106-.52.07-1.11.389-.625.353-2.012.882-3.052 1.2l-1.873.6-1.7-1.165C38.651 1.25 37.333.542 36.64.331c-1.769-.495-4.474-.424-6.07.14-4.334 1.59-7.074 5.685-6.762 10.17Z" clip-rule="evenodd"/></svg>