<svg xmlns="http://www.w3.org/2000/svg" aria-hidden="true" class="mr-1.5 text-gray-400 flex-none" viewBox="0 0 32 32">
  <path fill="#FF9D00" d="M20.6081 3c1.1603 0 2.1972.49196 2.9203 1.38415.4472.55263.9144 1.44334.9524 2.77718.4866-.14426.9545-.2249 1.3917-.2249 1.1108 0 2.114.43944 2.8235 1.23768.9115 1.02461 1.3164 2.28379 1.1401 3.54359-.0838.6-.278 1.1378-.5683 1.6357.612.5112 1.0628 1.2229 1.2807 2.0788.1705.671.3454 2.0684-.5677 3.5081.0581.0939.1126.1916.1634.2915.549 1.0756.5841 2.2911.0997 3.423-.7346 1.7156-2.5598 3.0671-6.1042 4.5179-2.205.9026-4.2223 1.4796-4.2403 1.4848-2.9152.7804-5.5517 1.177-7.8341 1.177-4.19513 0-7.1985-1.3265-8.92699-3.9424-2.781935-4.2124-2.384206-8.0652 1.21538-11.779 1.99222-2.0551 3.31654-5.08528 3.59244-5.75035.55611-1.96932 2.02658-4.15837 4.47107-4.15837h.0007c.2057 0 .4135.01702.6185.0503 1.0706.17386 2.0064.81008 2.6751 1.76737.7216-.92622 1.4225-1.66305 2.0567-2.07882C18.7242 3.31737 19.6794 3 20.6081 3Zm0 2.95917c-.3654 0-.8118.16053-1.3042.48308-1.5285 1.00094-4.4781 6.23495-5.5581 8.27085-.3619.6821-.9803.9706-1.5372.9706-1.105 0-1.9678-1.134-.101-2.5752 2.807-2.1683 1.8223-5.71266.4822-5.9309-.0587-.00961-.1167-.01405-.1726-.01405-1.2183 0-1.7557 2.16759-1.7557 2.16759S9.0863 13.4148 6.38031 16.206c-2.70597 2.792-2.84571 5.0328-.87356 8.0186 1.3451 2.036 3.91991 2.6507 6.55855 2.6507 2.7368 0 5.5424-.6614 7.1146-1.0823.0775-.0207 9.6394-2.809 8.4282-5.1823-.2035-.3987-.5388-.5585-.961-.5585-1.7055 0-4.8078 2.6204-6.1414 2.6204-.2981 0-.5081-.131-.5941-.4506-.5683-2.1047 8.6404-2.9895 7.8642-6.0381-.1368-.5394-.5081-.7583-1.0298-.7576-2.2537 0-7.3102 4.0918-8.3701 4.0918-.081 0-.1391-.0244-.1706-.0762-.531-.8849-.24-1.5025 3.5029-3.841 3.7429-2.3392 6.3701-3.7464 4.8759-5.4257-.172-.19379-.4157-.2796-.7116-.2796-2.2724.00074-7.6414 5.0447-7.6414 5.0447s-1.449 1.5557-2.3254 1.5557c-.2014 0-.3727-.0821-.4888-.2848-.6213-1.0816 5.771-6.0826 6.1315-8.14585.2444-1.3982-.1713-2.10618-.9403-2.10618Z"/>
  <path fill="#FFD21E" d="M5.50686 24.2246c-1.97214-2.9859-1.8324-5.2267.87357-8.0186 2.70598-2.7913 4.28107-6.87489 4.28107-6.87489s.5884-2.37178 1.9285-2.15354c1.34.21824 2.3239 3.76253-.4831 5.93083-2.80693 2.1676.559 3.6405 1.639 1.6046 1.0799-2.0358 4.0288-7.26984 5.5581-8.27079 1.5286-1.00093 2.6049-.44017 2.2444 1.62311-.3604 2.06328-6.7534 7.06418-6.1313 8.14648.622 1.0816 2.8141-1.2716 2.8141-1.2716s6.8595-6.44432 8.353-4.765c1.4934 1.6793-1.133 3.0864-4.876 5.4256-3.7436 2.3385-4.0338 2.9562-3.5028 3.841.5318.8848 8.7944-6.3067 9.5705-3.258.7754 3.0486-8.4325 3.9335-7.8642 6.0381.5683 2.1055 6.4862-3.9837 7.6965-1.6112 1.2111 2.3732-8.3508 5.1615-8.4282 5.1822-3.0886.8271-10.93277 2.5797-13.67314-1.5683Z"/>
</svg>
