<svg xmlns="http://www.w3.org/2000/svg" fill="none" viewBox="0 0 157 50"><path fill="url(#a)" d="M57.575 17.47c-1.248-.176-4.004-.235-9.459.915a7.485 7.485 0 0 1-1.972.206 10.48 10.48 0 0 1-2.118-.472c-2.989-1.032-5.455-.707-6.905.06a6.29 6.29 0 0 0-2.147 1.945c-.9 1.238-2.785 5.012-5.367 6.014-1.451.944-3.018 1.917-4.381 3.302-.87.915-1.103 3.067-3.395 5.16a31.12 31.12 0 0 1-8.471 8.52c-4.323 3.067-7.95 4.01-7.95 4.01s9.603 2.683 20.135-2.33c8.007-3.832 12.156-11.29 13.113-12.942l5.223-9.022c.464-.825 1.305-1.886 2.089-2.3.26-.147.493-.235.55-.294.581-.295 1.19-.53 1.8-.767 3.655-1.326 7.456-1.444 9.225-1.65.233-.06.204-.325.03-.354Z"/><path fill="url(#b)" d="M57.575 17.47c-1.248-.176-4.004-.235-9.459.914a7.49 7.49 0 0 1-1.972.207c-.72-.084-1.43-.242-2.118-.472-3.076-1.032-5.426-.767-6.905.059a6.29 6.29 0 0 0-2.147 1.946c-.9 1.238-2.785 5.012-5.367 6.014-2.902-2.771-5.455-5.1-7.92-7.164-1.393-1.12-2.757-2.182-3.918-2.948a66.435 66.435 0 0 0-8.935-5.366c-1.335-.62-2.728-1.18-4.265-1.77-.668-.205-1.045.119-1.16.65-.059.176-.117.648.173 1.474a42.78 42.78 0 0 0 2.844 6.044c.435.796.928 1.621 1.45 2.447a61.598 61.598 0 0 0 8.5 10.731 28.34 28.34 0 0 0 2.003 1.799 28.895 28.895 0 0 0 2.61 1.975c.088.059.523.324.813.501.58.325 1.364.708 1.857.914 2.01.936 4.2 1.41 6.412 1.386 3.22.088 5.831-.944 7.108-2.683a23.741 23.741 0 0 0 1.48-2.3l5.222-9.021c.464-.826 1.305-1.887 2.088-2.3.262-.147.494-.236.552-.295.551-.265.551-.177 1.131-.413 3.714-1.326 8.153-1.798 9.922-2.004a.16.16 0 0 0 .102-.054.165.165 0 0 0 0-.217.16.16 0 0 0-.102-.054Z"/><path fill="url(#c)" d="M3.35 9.864c0-.088.03-.177 0-.236.03.076.03.16 0 .236Z" opacity=".8"/><path fill="url(#d)" d="M5.788 9.304a.258.258 0 0 0-.145-.03c.087.03.174.089.26.118 0-.03-.057-.059-.115-.088Z" opacity=".8"/><path fill="url(#e)" d="M6.687 9.687c-.03 0-.087-.03-.116-.03.074.038.152.068.232.09-.058-.03-.087-.06-.116-.06Z" opacity=".8"/><path fill="url(#f)" d="M23.717 26.669c1.972.301 3.986.099 5.86-.59a184.626 184.626 0 0 0-4.931-4.51c-.784-.679-1.538-1.357-2.263-1.976-.03-.03-.087-.059-.087-.088-.203-.177-.378-.325-.552-.472-.058-.03-.087-.088-.116-.088a96.066 96.066 0 0 0-3.858-2.949c-2.96-2.034-5.919-3.92-8.907-5.366-.261-.147-.522-.235-.813-.383a1.186 1.186 0 0 0-.232-.088c11.547 6.338 15.232 12.088 15.9 16.51Z"/><path fill="url(#g)" d="M3.785 11.574c-.087-.177-.145-.383-.232-.59.087.177.145.384.232.59Z" opacity=".8"/><path fill="url(#h)" d="M3.35 9.953c0-.03 0-.03.03-.06 0 .03 0 .03-.03.06Z" opacity=".3"/><path fill="url(#i)" d="M4.598 8.862c.377.147.725.265 1.073.412-.377-.147-.725-.294-1.073-.412Z" opacity=".3"/><path fill="url(#j)" d="M3.35 9.953Z" opacity=".3"/><path fill="url(#k)" d="m7.644 10.1.174.088c-.319-.147-.667-.294-1.015-.442.116.06.203.089.319.148.179.055.353.124.522.206Z" opacity=".3"/><path fill="url(#l)" d="M11.068 20.478c-3.105-2.536-6.035-6.074-7.282-8.875 2.9 7.46 10.444 18.044 17.175 22.407.116.089.522.325.841.502.87-1.357 2.466-4.158 1.915-7.843-4.149-.56-8.616-2.86-12.65-6.191Z"/><path fill="url(#m)" d="m6.57 9.657-.609-.265c.03 0 .058.03.087.03.146.059.32.147.523.235Z" opacity=".3"/><path fill="url(#n)" d="M11.068 20.478c4.032 3.331 8.5 5.601 12.65 6.162-.668-4.393-4.353-10.172-15.9-16.452a.96.96 0 0 1-.174-.088c-.174-.088-.348-.147-.493-.236-.116-.059-.203-.088-.32-.147a1.183 1.183 0 0 0-.231-.089 3.062 3.062 0 0 0-.551-.206c-.03 0-.058-.03-.088-.03-.087-.03-.174-.088-.26-.118-.349-.117-.697-.294-1.074-.412-.667-.207-1.045.118-1.19.619a1.058 1.058 0 0 0-.029.177c-.029.059 0 .147 0 .236 0 .029 0 .029-.029.059.016.352.085.7.203 1.031.065.211.143.418.233.62 1.218 2.8 4.177 6.338 7.253 8.874Z" opacity=".8"/><path fill="url(#o)" d="M11.068 20.478c4.032 3.331 8.5 5.601 12.65 6.162-.668-4.393-4.353-10.172-15.9-16.452a.96.96 0 0 1-.174-.088c-.174-.088-.348-.147-.493-.236-.116-.059-.203-.088-.32-.147a1.183 1.183 0 0 0-.231-.089 3.062 3.062 0 0 0-.551-.206c-.03 0-.058-.03-.088-.03-.087-.03-.174-.088-.26-.118-.349-.117-.697-.294-1.074-.412-.667-.207-1.045.118-1.19.619a1.058 1.058 0 0 0-.029.177c-.029.059 0 .147 0 .236 0 .029 0 .029-.029.059.016.352.085.7.203 1.031.065.211.143.418.233.62 1.218 2.8 4.177 6.338 7.253 8.874Z"/><path fill="url(#p)" d="M57.575 17.47c-1.248-.176-4.004-.235-9.458.915a7.486 7.486 0 0 1-1.973.206 10.48 10.48 0 0 1-2.118-.472 11.294 11.294 0 0 0-4.41-.678 5.813 5.813 0 0 0-2.872 1.003 6.349 6.349 0 0 0-1.741 1.71c-.9 1.238-2.785 5.012-5.367 6.014 2.03 1.946 5.164 3.567 8.094 2.594 2.814-.943 4.555-3.479 5.106-4.304a22.737 22.737 0 0 1 1.857-2.477 8.13 8.13 0 0 1 3.453-2.181c3.307-1.12 8.297-1.799 9.487-1.917.145-.118.116-.383-.058-.412Z"/><path fill="#282E38" d="M41.345 21.575c.48 0 .87-.396.87-.884a.878.878 0 0 0-.87-.885c-.48 0-.87.396-.87.885 0 .488.39.884.87.884Z"/><path fill="#30B99E" d="M142.697 32.605h-2.379v15.183h2.379V32.605Z"/><path fill="#FAFBFC" d="M90.649 32.605a6.486 6.486 0 0 0-4.613 1.945 6.699 6.699 0 0 0-1.915 4.688v1.975a6.698 6.698 0 0 0 1.915 4.688 6.486 6.486 0 0 0 4.613 1.946h4.149v-2.418h-4.15a4.127 4.127 0 0 1-2.85-1.154A4.26 4.26 0 0 1 86.5 41.45H95a2.113 2.113 0 0 0 1.52-.637 2.18 2.18 0 0 0 .628-1.544 6.716 6.716 0 0 0-.484-2.543 6.635 6.635 0 0 0-1.405-2.16 6.514 6.514 0 0 0-2.113-1.447 6.428 6.428 0 0 0-2.497-.514ZM86.5 39.002a4.253 4.253 0 0 1 1.296-2.828 4.12 4.12 0 0 1 2.853-1.152 4.12 4.12 0 0 1 2.853 1.152 4.253 4.253 0 0 1 1.296 2.828H86.5ZM55.718 30.187h1.74V27.77h-1.74a4.807 4.807 0 0 0-1.91.403 4.874 4.874 0 0 0-1.6 1.13 5.312 5.312 0 0 0-1.451 3.598v.294h-1.393v2.418h1.393v12.176h2.379V35.612h3.191v-2.388h-3.191v-.295c.029-1.474 1.218-2.742 2.582-2.742ZM63.55 27.8h-2.378v20.047h2.379V27.8ZM77.883 41.626a3.835 3.835 0 0 1-1.096 2.69 3.713 3.713 0 0 1-2.646 1.113c-.993 0-1.945-.4-2.647-1.114a3.835 3.835 0 0 1-1.096-2.689v-9.021h-2.32v9.021c0 1.642.641 3.217 1.784 4.378a6.044 6.044 0 0 0 4.308 1.814 6.044 6.044 0 0 0 4.308-1.814 6.243 6.243 0 0 0 1.784-4.378v-9.021h-2.379v9.021ZM105.619 32.605a6.06 6.06 0 0 0-4.302 1.818 6.26 6.26 0 0 0-1.79 4.373v9.022h2.379v-9.022c0-1.009.394-1.976 1.096-2.69a3.713 3.713 0 0 1 2.646-1.113c.993 0 1.945.4 2.647 1.113a3.834 3.834 0 0 1 1.096 2.69v9.022h2.379v-9.022a6.35 6.35 0 0 0-1.835-4.368 6.151 6.151 0 0 0-4.316-1.823ZM118.53 42.688v-7.666h3.191v-2.388h-3.191V27.8h-2.35v4.835h-2.089v2.418h2.089v7.665a5.065 5.065 0 0 0 1.449 3.54 4.906 4.906 0 0 0 3.483 1.472h1.044v-2.417h-1.044a2.566 2.566 0 0 1-1.824-.77 2.649 2.649 0 0 1-.758-1.854Z"/><path fill="#30B99E" d="M150.327 42.688v-7.666h3.192v-2.388h-3.192V27.8h-2.379v4.835h-2.089v2.418h2.089v7.665a5.07 5.07 0 0 0 1.449 3.54 4.906 4.906 0 0 0 3.483 1.472h1.045v-2.417h-1.045a2.563 2.563 0 0 1-1.807-.78 2.646 2.646 0 0 1-.746-1.844ZM127.146 27.8v6.16a5.9 5.9 0 0 1 3.743-1.296 6.063 6.063 0 0 1 4.303 1.818 6.265 6.265 0 0 1 1.79 4.373v2.8a6.241 6.241 0 0 1-1.785 4.379 6.042 6.042 0 0 1-4.308 1.813 6.042 6.042 0 0 1-4.308-1.813 6.241 6.241 0 0 1-1.785-4.378V27.799h2.35Zm0 12.352v1.474c0 1.01.395 1.976 1.097 2.69a3.71 3.71 0 0 0 2.646 1.114c.993 0 1.945-.401 2.646-1.114a3.835 3.835 0 0 0 1.097-2.69v-2.8a3.835 3.835 0 0 0-1.097-2.69 3.71 3.71 0 0 0-2.646-1.114c-.993 0-1.945.401-2.646 1.114a3.835 3.835 0 0 0-1.097 2.69v1.326Z"/><defs><linearGradient id="a" x1="58.697" x2="4.394" y1="30.025" y2="34.34" gradientUnits="userSpaceOnUse"><stop offset=".299" stop-color="#0097CE"/><stop offset=".379" stop-color="#0999C5"/><stop offset=".512" stop-color="#229DAD"/><stop offset=".647" stop-color="#42A38F"/><stop offset=".735" stop-color="#5DAD82"/><stop offset=".924" stop-color="#A1C661"/><stop offset="1" stop-color="#BED153"/></linearGradient><linearGradient id="b" x1="1.744" x2="54.394" y1="15.678" y2="29.933" gradientUnits="userSpaceOnUse"><stop offset=".082" stop-color="#3D65AF"/><stop offset=".231" stop-color="#2372B8"/><stop offset=".506" stop-color="#00B8BB"/></linearGradient><linearGradient id="c" x1="3.329" x2="31.929" y1="9.74" y2="17.484" gradientUnits="userSpaceOnUse"><stop offset=".13"/><stop offset=".328" stop-color="#00334B"/><stop offset=".528" stop-color="#006190"/><stop offset=".672" stop-color="#007FBB"/><stop offset=".746" stop-color="#008ACC"/></linearGradient><linearGradient id="d" x1="10.502" x2="37.138" y1="63.161" y2="63.161" gradientUnits="userSpaceOnUse"><stop offset=".13"/><stop offset=".328" stop-color="#00334B"/><stop offset=".528" stop-color="#006190"/><stop offset=".672" stop-color="#007FBB"/><stop offset=".746" stop-color="#008ACC"/></linearGradient><linearGradient id="e" x1="10.89" x2="34.567" y1="49.748" y2="49.748" gradientUnits="userSpaceOnUse"><stop offset=".13"/><stop offset=".328" stop-color="#00334B"/><stop offset=".528" stop-color="#006190"/><stop offset=".672" stop-color="#007FBB"/><stop offset=".746" stop-color="#008ACC"/></linearGradient><linearGradient id="f" x1="6.301" x2="30.59" y1="15.764" y2="22.341" gradientUnits="userSpaceOnUse"><stop offset=".13" stop-color="#2483C5"/><stop offset=".167" stop-color="#2486C7"/><stop offset=".676" stop-color="#29B1DF"/><stop offset=".935" stop-color="#2BC2E8"/></linearGradient><linearGradient id="g" x1="7.873" x2="31.549" y1="282.924" y2="282.924" gradientUnits="userSpaceOnUse"><stop offset=".13"/><stop offset=".328" stop-color="#00334B"/><stop offset=".528" stop-color="#006190"/><stop offset=".672" stop-color="#007FBB"/><stop offset=".746" stop-color="#008ACC"/></linearGradient><linearGradient id="h" x1="3.368" x2="3.368" y1="9.924" y2="9.924" gradientUnits="userSpaceOnUse"><stop stop-color="#682C90"/><stop offset=".496" stop-color="#817CB9"/><stop offset="1" stop-color="#fff"/></linearGradient><linearGradient id="i" x1="117.715" x2="62.25" y1="195.682" y2="195.682" gradientUnits="userSpaceOnUse"><stop stop-color="#682C90"/><stop offset=".496" stop-color="#817CB9"/><stop offset="1" stop-color="#fff"/></linearGradient><linearGradient id="j" x1="24.751" x2="14.257" y1="483.317" y2="483.317" gradientUnits="userSpaceOnUse"><stop stop-color="#682C90"/><stop offset=".496" stop-color="#817CB9"/><stop offset="1" stop-color="#fff"/></linearGradient><linearGradient id="k" x1="113.805" x2="61.339" y1="210.331" y2="210.331" gradientUnits="userSpaceOnUse"><stop stop-color="#682C90"/><stop offset=".496" stop-color="#817CB9"/><stop offset="1" stop-color="#fff"/></linearGradient><linearGradient id="l" x1="1.537" x2="24.737" y1="19.91" y2="26.192" gradientUnits="userSpaceOnUse"><stop offset=".13" stop-color="#3B67AD"/><stop offset=".57" stop-color="#227CAA"/><stop offset=".935" stop-color="#118AA8"/></linearGradient><linearGradient id="m" x1="70.163" x2="38.683" y1="129.612" y2="129.612" gradientUnits="userSpaceOnUse"><stop stop-color="#682C90"/><stop offset=".496" stop-color="#817CB9"/><stop offset="1" stop-color="#fff"/></linearGradient><linearGradient id="n" x1="381.804" x2="2456.46" y1="8448.03" y2="8448.03" gradientUnits="userSpaceOnUse"><stop offset=".13"/><stop offset=".328" stop-color="#00334B"/><stop offset=".528" stop-color="#006190"/><stop offset=".672" stop-color="#007FBB"/><stop offset=".746" stop-color="#008ACC"/></linearGradient><linearGradient id="o" x1="2.054" x2="25.323" y1="14.447" y2="20.747" gradientUnits="userSpaceOnUse"><stop offset=".13" stop-color="#3A67B0"/><stop offset=".562" stop-color="#357FBD"/><stop offset=".935" stop-color="#3290C6"/></linearGradient><linearGradient id="p" x1="31.496" x2="55.563" y1="19.127" y2="25.643" gradientUnits="userSpaceOnUse"><stop offset=".172" stop-color="#4E5CA8"/><stop offset=".994" stop-color="#1FC3F3"/></linearGradient></defs></svg>