<svg xmlns="http://www.w3.org/2000/svg" fill="none" viewBox="0 0 52 61"><path fill="url(#a)" fill-rule="evenodd" d="M50.13 14.885a1.13 1.13 0 0 1 .765-.293c.287 0 .563.105.766.293a.962.962 0 0 1 .317.707v44c0 .265-.114.52-.317.707a1.13 1.13 0 0 1-.766.293c-.287 0-.563-.106-.766-.293a.963.963 0 0 1-.317-.707v-3h-6.497v3c0 .265-.114.52-.317.707a1.13 1.13 0 0 1-.766.293c-.287 0-.563-.106-.766-.293a.963.963 0 0 1-.317-.707v-43H26.09c2.793 2.884 6.4 9.912 6.4 27 0 .265-.115.52-.318.707a1.13 1.13 0 0 1-.765.293h-1.148c.249 1.594-.295 3.76-3.667 5.834a1.154 1.154 0 0 1-.6.166c-.213 0-.422-.058-.6-.166-.62-.38-1.126-.764-1.566-1.146v.312c0 .265-.114.52-.317.707a1.13 1.13 0 0 1-.765.293h-.414l1.38 2.552a.937.937 0 0 1-.05.971 1.057 1.057 0 0 1-.393.348c-.16.083-.342.128-.526.129h-2.23c.249 1.594-.295 3.76-3.667 5.834a1.155 1.155 0 0 1-.6.166c-.213 0-.422-.058-.6-.166-3.372-2.074-3.916-4.238-3.666-5.834H9.746c-.194 0-.384-.048-.55-.138a1.045 1.045 0 0 1-.399-.378.94.94 0 0 1 .03-1.016l1.672-2.47h-.753a1.13 1.13 0 0 1-.766-.293.963.963 0 0 1-.317-.707v-.312c-.44.382-.946.766-1.566 1.146a1.154 1.154 0 0 1-.6.166c-.213 0-.422-.058-.6-.166-3.372-2.072-3.915-4.238-3.666-5.832H1.083a1.13 1.13 0 0 1-.766-.293.963.963 0 0 1-.317-.707c0-22.496 6.246-27.562 8.663-28.68v-2.108a13.577 13.577 0 0 1 1.851-6.832c1.218-2.101 2.98-3.892 5.13-5.212.177-.11.385-.168.6-.168.213 0 .421.059.599.168 2.149 1.32 3.91 3.11 5.129 5.212a13.577 13.577 0 0 1 1.851 6.832v1.788h18.41c.286 0 .562.105.765.293a.962.962 0 0 1 .317.707v3h6.497v-3c0-.265.114-.52.317-.707ZM16.242 2.816c-3.402 2.35-5.414 6.036-5.414 9.988v35.788h10.828V12.804a11.68 11.68 0 0 0-1.426-5.586 12.748 12.748 0 0 0-3.988-4.402Zm-7.58 39.776V17.388C6.465 19.236 2.322 25.04 2.17 42.592h6.493Zm-4.245 2c-.234.816-.193 2.182 2.08 3.776v-.002c1.801-1.262 2.193-2.382 2.165-3.202v-.094a2.331 2.331 0 0 0-.087-.478H4.418Zm9.746 10c-.234.816-.193 2.182 2.08 3.776v-.002c2.271-1.592 2.312-2.958 2.078-3.774h-4.158Zm-2.465-2h9.29l-1.084-2h-6.852l-1.354 2Zm12.124-7.426c-.028.816.364 1.936 2.166 3.2 2.272-1.592 2.313-2.958 2.08-3.774h-4.16a2.376 2.376 0 0 0-.086.478v.096Zm0-27.778v25.204h6.493c-.151-17.552-4.294-23.356-6.493-25.204Zm19.492 15.204v4h6.497v-4h-6.497Zm6.497 10v-4h-6.497v4h6.497Zm-6.497-16v4h6.497v-4h-6.497Zm6.497 18h-6.497v4h6.497v-4Zm0-20v-4h-6.497v4h6.497Zm-6.497 26v4h6.497v-4h-6.497Zm-30.32-37c0-1.654 1.457-3 3.248-3 1.791 0 3.249 1.346 3.249 3s-1.458 3-3.25 3c-1.79 0-3.248-1.345-3.248-3Zm2.483.707c.202.188.478.293.765.293.287 0 .563-.104.766-.292a.963.963 0 0 0 .318-.707.963.963 0 0 0-.317-.707 1.13 1.13 0 0 0-.765-.293 1.13 1.13 0 0 0-.766.292.963.963 0 0 0-.318.707c0 .265.114.52.317.707Z" clip-rule="evenodd"/><defs><linearGradient id="a" x1="-22.561" x2="115.083" y1="-67.37" y2="14.835" gradientUnits="userSpaceOnUse"><stop offset=".068" stop-color="#3D65AF"/><stop offset=".354" stop-color="#2372B8"/><stop offset=".807" stop-color="#00B8BB"/></linearGradient></defs></svg>