<svg xmlns="http://www.w3.org/2000/svg" fill="none" viewBox="0 0 42 47"><path fill="url(#a)" fill-rule="evenodd" d="M20.727 0h-.103c-1.088.038-2.16.522-2.857 1.366-.82.95-1.097 2.314-.76 3.519a2737.86 2737.86 0 0 1-6.909 3.994l-3.522 2.033c-.634-.626-1.47-1.055-2.36-1.144a3.831 3.831 0 0 0-2.989.99 3.836 3.836 0 0 0-1.223 2.8 3.813 3.813 0 0 0 1.576 3.086c.391.303.856.486 1.324.634.01.148.003.305-.003.463-.017.436-.035.886.273 1.215.404.44 1.217.306 1.45-.246.119-.32.11-.66.1-.998-.005-.145-.009-.29-.003-.433 1.052-.294 2-.996 2.484-1.989.45-.854.515-1.87.276-2.797l1.277-.738h.002l.001-.002h.002l.001-.001c3.052-1.764 6.104-3.526 9.157-5.287.644.63 1.485 1.075 2.391 1.146 1.15.129 2.313-.333 3.12-1.146 3.058 1.762 6.113 3.527 9.17 5.292l1.273.736c-.299 1.117-.109 2.364.583 3.3.515.744 1.32 1.233 2.177 1.486v.852c0 .995 0 1.99-.003 2.985 0 .31.026.658.26.891.338.372.99.365 1.32-.018.223-.231.242-.57.245-.876-.002-.767-.002-1.534-.002-2.302v-1.534c.929-.256 1.776-.837 2.292-1.657a3.818 3.818 0 0 0 .537-2.785 3.831 3.831 0 0 0-1.61-2.437 3.828 3.828 0 0 0-3.061-.535c-.696.17-1.323.552-1.832 1.05-1.41-.813-2.82-1.627-4.229-2.442-2.065-1.193-4.13-2.386-6.198-3.573.266-1.021.142-2.149-.419-3.052C23.275.731 22.018.033 20.727 0Zm-2.035 3.632c.064-.846.736-1.594 1.564-1.763a1.996 1.996 0 0 1 2.415 2.045 1.99 1.99 0 0 1-1.11 1.696 1.993 1.993 0 0 1-2.047-.17c-.57-.4-.899-1.115-.822-1.808Zm-16.84 9.56c.134-.754.739-1.404 1.49-1.57.69-.168 1.462.06 1.941.588a2 2 0 0 1-.827 3.238 1.997 1.997 0 0 1-2.604-2.257Zm33.732.003c.134-.824.85-1.501 1.675-1.612a1.997 1.997 0 1 1-.787 3.661 2.002 2.002 0 0 1-.889-2.049Zm-15.732-2.413c-3.134.185-6.167 1.627-8.306 3.924a12.46 12.46 0 0 0-3.397 8.04c-.148 2.679.633 5.386 2.14 7.6l-.001.004c-.128.308-.258.622-.276.96-.122 1 .473 2.018 1.382 2.437.988.486 2.275.194 2.954-.673.814-.962.693-2.54-.267-3.36-.628-.589-1.563-.757-2.382-.533a10.66 10.66 0 0 1-1.69-4.72 10.772 10.772 0 0 1 1.384-6.534 10.795 10.795 0 0 1 4.815-4.381 10.705 10.705 0 0 1 5.94-.875c.113.016.226.036.34.057.279.05.559.1.844.086.361-.04.633-.332.748-.662.106-.46-.172-.975-.637-1.093a12.463 12.463 0 0 0-3.591-.277ZM12.098 32.06c-.4-.235-.364-.893.056-1.087.41-.237.972.132.917.602-.007.465-.597.755-.973.485Zm14.91-18.535c.675-.866 1.957-1.16 2.946-.682.914.416 1.515 1.438 1.394 2.442-.02.34-.148.655-.278.963 1.279 1.89 2.04 4.13 2.145 6.412.098 2.14-.336 4.311-1.306 6.225-1.563 3.171-4.531 5.618-7.952 6.522a12.54 12.54 0 0 1-6.044.13c-.466-.119-.751-.635-.636-1.096.12-.36.445-.67.84-.664.299.008.593.06.887.11.315.055.63.11.95.111 3.18.245 6.425-1.05 8.58-3.398a10.682 10.682 0 0 0 2.862-6.85c.115-2.226-.516-4.475-1.736-6.338-.924.268-1.994-.009-2.61-.763-.759-.856-.773-2.246-.043-3.124Zm1.618.977c-.42.193-.454.854-.055 1.088.38.269.969-.026.975-.494.045-.466-.513-.83-.92-.594Zm-4.16 2.375a7.44 7.44 0 0 0-8.919 1.017 7.437 7.437 0 0 0-2.313 5.038 7.406 7.406 0 0 0 1.498 4.855 7.448 7.448 0 0 0 9.204 2.216 7.52 7.52 0 0 0 3.45-3.452 7.45 7.45 0 0 0 .476-5.256 7.487 7.487 0 0 0-3.396-4.418Zm-7.954 2.626a5.655 5.655 0 0 1 3.305-1.777 5.647 5.647 0 0 1 3.414.545 5.633 5.633 0 0 1 .006 10.048 5.628 5.628 0 0 1-7.09-1.672 5.617 5.617 0 0 1-1.096-3.63 5.63 5.63 0 0 1 1.461-3.514Zm1.023 2.38c.546-1.241 1.881-2.097 3.241-2.023.51.031.876.555.797 1.047-.09.464-.526.762-.986.759-.768.036-1.454.668-1.529 1.437-.107.76.404 1.54 1.139 1.755.712.234 1.548-.101 1.905-.759.133-.212.17-.453.205-.695.023-.154.046-.308.094-.454.104-.291.383-.468.669-.546.497-.083 1.02.294 1.05.809.056 1.238-.647 2.464-1.723 3.072a3.448 3.448 0 0 1-2.894.253 3.466 3.466 0 0 1-1.875-1.638 3.459 3.459 0 0 1-.093-3.017Zm-12.84-.052c.154-.644-.56-1.256-1.174-1.013-.647.19-.82 1.133-.284 1.541.486.442 1.374.131 1.457-.528Zm32.575 1.793c.623-.233 1.327.406 1.15 1.05-.111.653-1.011.94-1.48.472-.515-.424-.313-1.347.33-1.522Zm-32.921.802c-.42-.332-1.11-.172-1.338.314-.122.281-.117.59-.112.893a6.43 6.43 0 0 1 .001.302c-.003.421 0 .843.001 1.265.004.7.008 1.4-.013 2.098-.13.062-.265.114-.4.166-.24.092-.482.185-.694.335a3.83 3.83 0 0 0-1.75 2.682c-.164 1.03.144 2.108.78 2.927a3.84 3.84 0 0 0 3.392 1.421c.893-.082 1.725-.523 2.36-1.148l3.291 1.9c2.381 1.373 4.762 2.746 7.14 4.126-.318 1.147-.09 2.435.645 3.376.693.928 1.824 1.474 2.975 1.51h.105c1.106-.037 2.198-.54 2.893-1.41.795-.949 1.055-2.29.726-3.477 2.37-1.374 4.744-2.744 7.117-4.113l3.313-1.912c.634.624 1.464 1.065 2.358 1.148 1.357.155 2.774-.487 3.541-1.621.409-.617.665-1.346.674-2.09.034-1.247-.59-2.495-1.62-3.202-.381-.286-.83-.46-1.28-.602-.004-.191-.001-.383.002-.575.005-.328.01-.656-.022-.982a.894.894 0 0 0-.823-.806.89.89 0 0 0-.95.756c-.038.34-.033.682-.028 1.025.003.194.006.388.001.582-1.032.29-1.963.97-2.456 1.934-.477.867-.546 1.907-.31 2.857l-5.217 3.012-5.217 3.011c-.662-.652-1.54-1.1-2.475-1.155-1.123-.099-2.247.364-3.035 1.155l-5.219-3.011-5.218-3.011c.285-1.101.118-2.325-.553-3.255-.514-.77-1.334-1.28-2.212-1.537v-4.02c.002-.324-.093-.676-.373-.868Zm-2.514 8.337a1.987 1.987 0 0 1 1.506-1.665 2.021 2.021 0 0 1 1.6.289 2.01 2.01 0 0 1 .868 1.648c0 .65-.334 1.29-.876 1.65a1.996 1.996 0 0 1-3.098-1.921Zm33.714.181c.028-.871.691-1.68 1.55-1.853.818-.195 1.74.186 2.159.92.487.782.323 1.886-.368 2.495-.578.537-1.482.683-2.192.334-.72-.322-1.19-1.11-1.15-1.896Zm-16.857 9.64c.061-.85.74-1.596 1.57-1.765a2 2 0 0 1 2.41 2.045 1.994 1.994 0 0 1-3.103 1.566 1.992 1.992 0 0 1-.877-1.846Z" clip-rule="evenodd"/><defs><linearGradient id="a" x1="-2.16" x2="53.231" y1="-2.369" y2="13.056" gradientUnits="userSpaceOnUse"><stop offset=".245" stop-color="#4E5CA8"/><stop offset="1" stop-color="#1FC3F3"/></linearGradient></defs></svg>