<svg xmlns="http://www.w3.org/2000/svg" fill="none" viewBox="0 0 54 33"><path fill="url(#a)" fill-rule="evenodd" d="M43.92 32.329c-1.025.124-2.077-.51-2.489-1.476-.241-.538-.234-1.134-.228-1.717.002-.13.003-.26.002-.39h-8.598c-.754.011-1.543.01-2.235-.34-.544-.255-.98-.685-1.394-1.116-.865-.89-1.731-1.778-2.598-2.666-1.04-1.066-2.079-2.133-3.117-3.2-.882.904-1.763 1.808-2.643 2.713l-.008.008c-.428.444-.868.902-1.431 1.164-.552.282-1.176.358-1.785.355H14.21l-9.56.001c-.723.012-1.47-.088-2.105-.465-1.057-.575-1.746-1.743-1.802-2.963v-.131c.02-.99.421-1.97 1.149-2.629.654-.632 1.558-.932 2.446-.926 2.27-.002 4.541-.002 6.811-.002h5.109c.364-.37.726-.742 1.088-1.114.339-.348.677-.695 1.017-1.041-.352-.358-.703-.718-1.053-1.078-.35-.36-.7-.72-1.052-1.078a4467.438 4467.438 0 0 0-4.01 0c-.314.004-.656-.056-.878-.307-.374-.381-.337-1.08.08-1.41.257-.234.613-.236.938-.238h.064c.661.005 1.322.004 1.983.003.714-.001 1.428-.002 2.143.004.322-.01.62.144.84.379.478.486.954.975 1.43 1.464l.857.879c.387-.395.773-.79 1.158-1.187l1.053-1.08-1.346-1.384c-.484-.496-.968-.992-1.45-1.49-.367-.418-.836-.808-1.416-.79-3.207-.008-6.414-.007-9.621-.005l-3.743.001c-.828-.041-1.65.636-1.685 1.506-.078.855.63 1.67 1.465 1.692.946.016 1.893.014 2.84.01.637-.001 1.275-.003 1.913.001.297 0 .615.068.825.3.365.36.358 1.023-.018 1.372-.263.28-.664.285-1.016.283-.658-.005-1.316-.004-1.974-.003-.843.002-1.686.004-2.53-.008a3.422 3.422 0 0 1-2.565-1.233c-.56-.64-.836-1.499-.852-2.352v-.105c.06-1.01.525-1.997 1.311-2.62.665-.555 1.53-.804 2.382-.795 2.47-.002 4.939-.002 7.408-.001h5.557c.633-.005 1.281.085 1.85.39.52.26.931.684 1.335 1.102l.137.141.924.949c.539.554 1.078 1.108 1.62 1.658 1.107-1.145 2.219-2.285 3.33-3.425l2.223-2.28.07-.073c.425-.442.86-.892 1.41-1.168.55-.294 1.179-.378 1.793-.377h9.11c.003-.132.001-.266 0-.4-.006-.58-.012-1.171.227-1.706.397-.928 1.383-1.552 2.371-1.487.529.017 1.012.265 1.453.544.569.367 1.14.732 1.71 1.097l.945.606c.267.17.528.407.581.74.118.525-.272 1.085-.79 1.148-.282.05-.551-.08-.786-.224-.37-.236-.74-.474-1.109-.712-.605-.39-1.21-.779-1.82-1.159-.322-.243-.844 0-.865.412-.025.36-.02.72-.015 1.08.006.378.011.755-.018 1.132-.032.523-.525.911-1.023.877-1.907.006-3.815.005-5.722.004-1.484 0-2.968 0-4.451.002a1.604 1.604 0 0 0-1.208.514l-6.633 6.806a19413.9 19413.9 0 0 1-6.632 6.805c-.24.268-.585.401-.936.381H4.34c-.49-.018-.994.168-1.311.56a1.616 1.616 0 0 0-.142 1.876 1.67 1.67 0 0 0 1.448.773c2.124.003 4.248.003 6.372.002 2.124 0 4.249-.001 6.373.002h.22c.343.002.693.004 1.013-.137.3-.134.53-.374.756-.61l.155-.16 4.905-5.034 3.68-3.775c.27-.298.688-.497 1.082-.345.563.171.838.937.494 1.434-.222.3-.486.563-.75.825-.16.157-.32.315-.47.482a3431.275 3431.275 0 0 0 5.102 5.237c.175.006.351.003.527 0a6.2 6.2 0 0 1 .969.034c.513.076.872.647.743 1.16-.084.445-.508.757-.94.755-.585.011-1.17.023-1.754-.009-.295-.01-.539-.2-.74-.402l-.874-.896c-1.46-1.5-2.92-3-4.381-4.497-.37.378-.737.756-1.105 1.134l-1.103 1.132c1.019 1.05 2.04 2.097 3.062 3.145l2.655 2.726.126.131c.23.239.463.482.766.617.318.143.664.139 1.006.134.093 0 .185-.002.276 0h3.188c2.125-.002 4.25-.003 6.376.003.496-.033.991.351 1.022.875.03.38.024.762.019 1.144-.005.351-.01.703.013 1.054.012.422.544.678.872.425 2.045-1.3 4.085-2.611 6.125-3.922l1.035-.665c.337-.17.425-.695.125-.942a5.866 5.866 0 0 0-.633-.429 1579.546 1579.546 0 0 1-2.734-1.751c-1.3-.835-2.601-1.67-3.905-2.498-.33-.262-.883-.003-.886.43-.022.343-.017.688-.012 1.033.006.393.012.787-.022 1.18-.04.513-.532.877-1.016.85-.732.007-1.465.006-2.197.005-.641 0-1.282-.002-1.923.002-.338.002-.718-.027-.962-.3-.38-.367-.354-1.056.043-1.401.245-.239.6-.258.919-.259 1.086.004 2.17.003 3.256.002l-.001-.273c-.009-.767-.018-1.578.44-2.22.697-1.08 2.231-1.435 3.303-.74 1.634 1.03 3.26 2.074 4.886 3.118.757.487 1.513.973 2.27 1.457a2.665 2.665 0 0 1 1.266 2.189v.052c-.023.874-.487 1.703-1.217 2.157a956.809 956.809 0 0 1-3.927 2.521l-2.213 1.417c-.146.088-.29.183-.435.279-.514.339-1.036.683-1.656.74Zm.096-17.603c-1.054.17-2.173-.47-2.591-1.477-.234-.53-.228-1.115-.222-1.69.001-.135.003-.27.001-.402-2.646-.002-5.291-.002-7.937 0-.465.475-.93.952-1.393 1.431-.22.226-.474.462-.802.482-.5.056-.983-.368-1.016-.88-.04-.34.144-.647.368-.878.226-.236.455-.469.683-.702.272-.277.544-.555.812-.836.317-.402.791-.644 1.303-.575 1.376.004 2.752.003 4.128.002 1.572-.001 3.144-.002 4.716.004.486-.027.979.34 1.017.854.034.381.028.763.022 1.146-.007.377-.013.754.02 1.13.052.4.57.61.88.364 2.39-1.524 4.777-3.055 7.16-4.59.335-.176.403-.71.095-.946a7.35 7.35 0 0 0-.74-.495c-.3-.184-.6-.367-.866-.6-.473-.427-.321-1.314.256-1.564.363-.194.782-.051 1.097.173.17.117.346.227.522.336.376.234.752.469 1.078.774.48.455.723 1.118.76 1.779v.076a2.655 2.655 0 0 1-1.202 2.13 787.59 787.59 0 0 1-3.77 2.42c-1.023.655-2.046 1.309-3.066 1.967-.405.255-.833.508-1.313.567Z" clip-rule="evenodd"/><defs><linearGradient id="a" x1="-22.099" x2="60.341" y1="-35.691" y2="58.063" gradientUnits="userSpaceOnUse"><stop offset=".068" stop-color="#3D65AF"/><stop offset=".354" stop-color="#2372B8"/><stop offset=".807" stop-color="#00B8BB"/></linearGradient></defs></svg>