<svg xmlns="http://www.w3.org/2000/svg" fill="none" viewBox="0 0 60 71"><path fill="url(#a)" d="M50.604 19.824c.807-4.846.284-8.78-1.487-11.442a3.938 3.938 0 0 0 2.254-1.56 3.97 3.97 0 0 0-.99-5.52 3.97 3.97 0 0 0-5.52.989 3.927 3.927 0 0 0-.67 2.697c-5.783-1.328-14.174 2.878-21.726 11.21C9.37 17.88.25 23.766.25 30.592c0 4.109 3.32 8.004 9.126 10.767-.808 4.851-.282 8.787 1.492 11.448a3.93 3.93 0 0 0-2.258 1.554 3.97 3.97 0 0 0 2.407 6.14 3.965 3.965 0 0 0 4.103-1.608 3.931 3.931 0 0 0 .67-2.697 9.828 9.828 0 0 0 2.212.263c5.596 0 12.884-4.154 19.518-11.473 13.093-1.683 22.21-7.57 22.21-14.394 0-4.108-3.318-8.003-9.126-10.768ZM36.528 43.108c-4.642.52-9.33.482-13.963-.115l6.053-8.693c.438.164.897.257 1.366.257a4.001 4.001 0 0 0 2.148-.627 3.923 3.923 0 0 0 1.111-1.077 3.914 3.914 0 0 0-.257-4.833l6.614-9.497c3.183.553 6.178 1.398 8.752 2.468-1.159 5.381-3.892 11.368-7.784 16.965a59.039 59.039 0 0 1-4.04 5.152Zm-23.158 9.62c-2.066-2.044-2.823-5.787-2.117-10.567 2.386.964 5.028 1.725 7.892 2.275l-5.775 8.292ZM23.45 18.08a58.8 58.8 0 0 1 6.541-.376c2.514 0 5.002.17 7.424.489l-6.055 8.694a3.906 3.906 0 0 0-3.51.366 3.92 3.92 0 0 0-1.11 1.075 3.914 3.914 0 0 0 .255 4.836l-6.614 9.497c-3.183-.552-6.178-1.398-8.752-2.468 1.159-5.381 3.892-11.368 7.784-16.965a59.162 59.162 0 0 1 4.037-5.148ZM46.61 8.455c2.067 2.044 2.824 5.787 2.118 10.565-2.387-.963-5.03-1.724-7.892-2.273l5.774-8.292Zm-17.752 23.76a1.966 1.966 0 0 1-.804-2.047c.056-.255.162-.496.312-.709a1.964 1.964 0 0 1 1.626-.85c.4 0 .791.123 1.13.359.435.3.725.752.82 1.272a1.956 1.956 0 0 1-.325 1.478l-.003.004a1.968 1.968 0 0 1-1.272.819 1.953 1.953 0 0 1-1.484-.326Zm17.63-28.791a1.981 1.981 0 0 1 3.564 1.557 1.984 1.984 0 1 1-3.564-1.557Zm-4.537 3.272c1.117 0 2.14.202 3.036.62l-6.302 9.053c-4.26-.64-8.76-.8-13.205-.471 5.766-5.833 11.915-9.202 16.471-9.202ZM2.233 30.592c0-5.348 7.552-10.247 18.286-12.099a61.493 61.493 0 0 0-2.733 3.602c-3.94 5.665-6.74 11.74-8.001 17.263-4.815-2.395-7.552-5.55-7.552-8.766Zm11.26 27.168a1.985 1.985 0 0 1-2.76.494 1.985 1.985 0 0 1 .782-3.58 1.985 1.985 0 0 1 1.977 3.086Zm1.504-3.898 6.3-9.049c2.824.425 5.741.649 8.693.649 1.507 0 3.02-.078 4.526-.19-7.185 7.273-14.96 10.71-19.519 8.59ZM39.462 42.69a61.659 61.659 0 0 0 2.733-3.602c3.94-5.665 6.74-11.74 8-17.263 4.816 2.395 7.553 5.55 7.553 8.767 0 5.347-7.552 10.246-18.286 12.098ZM5.928 16.675c.09.026.18.038.27.038a.984.984 0 0 0 .388-.088l.003.007 6.94-2.974-.782-1.822-3.94 1.69C14.87 4.691 19.19 3.826 23.04 3.06c.413-.082.819-.163 1.216-.25l-.43-1.936c-.384.085-.774.163-1.173.242-4.014.799-8.93 1.776-15.465 11.26V7.792H5.207v7.93a.991.991 0 0 0 .721.954ZM36.94 58.122c-.414.082-.82.163-1.217.251l.43 1.935c.384-.085.775-.162 1.174-.242 4.015-.799 8.93-1.776 15.465-11.26v4.587h1.983v-7.931a.99.99 0 0 0-.722-.954.98.98 0 0 0-.659.047l-.002-.004-6.94 2.974.782 1.822 3.94-1.69C45.11 56.492 40.79 57.357 36.94 58.123Z"/><defs><linearGradient id="a" x1="-25.568" x2="120.091" y1="-67.37" y2="32.179" gradientUnits="userSpaceOnUse"><stop offset=".068" stop-color="#3D65AF"/><stop offset=".354" stop-color="#2372B8"/><stop offset=".807" stop-color="#00B8BB"/></linearGradient></defs></svg>