<svg xmlns="http://www.w3.org/2000/svg" fill="none" viewBox="0 0 47 47"><path fill="url(#a)" fill-rule="evenodd" d="M14.706 0h.004c.846.09 1.61.772 1.68 1.638.04.525.034 1.052.028 1.58-.003.317-.007.634 0 .95h2.72c2.72.001 5.44.001 8.16 0 .256.006.534.026.74.197.392.284.467.899.162 1.273-.204.279-.568.358-.896.352h-5.056c-2.247 0-4.494 0-6.741-.003-.278-.03-.565-.135-.726-.375-.171-.223-.183-.517-.186-.786v-.467c.003-.854.004-1.708-.001-2.563-2.585 2.579-5.166 5.16-7.746 7.742h-.001l-.001.002-4.647 4.647 4.125 4.126.006.006.002.002.002.002c2.752 2.753 5.505 5.506 8.26 8.256.005-1.578.004-3.157.003-4.735v-2.63c-.701-.24-1.329-.704-1.717-1.34-.553-.874-.606-2.031-.153-2.959.494-1.053 1.62-1.754 2.78-1.75a3.116 3.116 0 0 1 2.443 1.204c.76.962.857 2.385.224 3.437-.383.671-1.033 1.157-1.756 1.41v3.17h13.757c.005-.31.002-.618 0-.927a25.162 25.162 0 0 1 .019-1.52c.039-.904.839-1.686 1.742-1.707.574-.043 1.117.241 1.507.646l5.326 5.326 7.098 7.099.144.142c.27.262.551.535.582.928v.048c-.025.298-.187.558-.399.76-2.369 2.367-4.736 4.736-7.104 7.104l-5.683 5.684c-.333.35-.784.577-1.265.624h-.204c-.87-.047-1.662-.76-1.734-1.639-.04-.525-.035-1.052-.029-1.578.003-.317.007-.634 0-.95-2.17-.002-4.34-.002-6.51-.002-2.761 0-5.523.001-8.286-.002-.552.047-1.07-.463-.982-1.02.041-.48.511-.821.977-.796 5.237-.005 10.475-.004 15.712 0 .257.028.524.116.69.327.2.226.222.545.222.834v.466c-.003.855-.004 1.71.001 2.564a7959.52 7959.52 0 0 0 7.744-7.74l.005-.004.011-.012a11916 11916 0 0 1 4.636-4.635l-4.132-4.132c-2.754-2.755-5.507-5.509-8.263-8.26-.005 1.83-.005 3.661-.004 5.492v3.089c.65.223 1.24.63 1.627 1.202.656.92.727 2.208.188 3.2-.513 1-1.605 1.643-2.725 1.647-.815-.012-1.627-.336-2.196-.924a3.11 3.11 0 0 1-.825-2.817c.223-1.078 1.064-1.976 2.109-2.308.002-.812.002-1.624.002-2.436V24.208c-3.93-.003-7.859-.002-11.788-.001h-1.97c-.005.314-.003.628 0 .943.004.502.008 1.005-.018 1.506-.041.903-.84 1.683-1.742 1.705-.574.043-1.119-.241-1.51-.646A50402.246 50402.246 0 0 1 .726 15.289a8.294 8.294 0 0 0-.142-.14c-.27-.261-.552-.535-.583-.929v-.048c.024-.3.187-.558.4-.761l7.807-7.807.005-.006.004-.003.002-.003 4.464-4.464c.065-.064.13-.13.193-.195.256-.26.513-.522.832-.7.305-.171.656-.22.999-.233Zm.34 15.066c-.615.224-.965.962-.749 1.58.189.627.909 1.02 1.538.835.69-.166 1.127-.972.875-1.64-.21-.666-1.018-1.046-1.664-.775Zm15.73 15.255c-.628.142-1.068.814-.942 1.449.096.668.794 1.165 1.458 1.037.685-.096 1.194-.823 1.04-1.5-.12-.691-.876-1.174-1.555-.986Zm8.987-27.784a3.087 3.087 0 0 1 4.834 2.468 3.096 3.096 0 0 1-1.6 2.778c-1.063.601-2.48.48-3.421-.3-.48-.383-.824-.915-1.021-1.492-.572-.002-1.144-.002-1.715-.001-.695 0-1.39.001-2.084-.003-.429.015-.868-.27-.95-.706-.116-.436.165-.925.595-1.057.232-.062.474-.059.714-.056h3.441c.221-.652.633-1.244 1.207-1.63Zm1.323 1.356c-.615.211-.991.946-.77 1.564.144.503.632.862 1.151.883.759.07 1.433-.689 1.304-1.435-.083-.77-.962-1.31-1.685-1.012ZM32.11 4.907c-.086-.537-.721-.884-1.22-.66a.912.912 0 0 0-.562.837c-.005.477.414.895.89.896.549.023 1.02-.536.892-1.073Zm-9.434 2.94c.198-.026.398-.024.598-.022.07 0 .138.002.207.001h3.786l5.68.001c.31-.005.637.1.827.36.299.362.233.955-.14 1.243-.214.19-.511.217-.784.217-1.576-.002-3.153-.001-4.729-.001-1.734 0-3.468 0-5.201-.002-.449.03-.919-.264-.995-.724-.12-.487.251-1.02.75-1.072Zm1.84 29.1a486.988 486.988 0 0 0-6.303.016c-.522.031-.927.584-.793 1.092.082.435.52.726.951.71a3164 3164 0 0 0 10.125-.002c.566.037 1.077-.52.94-1.082-.08-.48-.574-.778-1.04-.734-1.293.004-2.586.002-3.879 0ZM4.388 38.51c1.492-.376 3.15.555 3.615 2.018.466 1.306-.09 2.872-1.272 3.594a3.093 3.093 0 0 1-3.272.019c-1.142-.686-1.729-2.157-1.354-3.438a3.1 3.1 0 0 1 2.283-2.193Zm.388 1.772c-.611.142-1.056.784-.955 1.407.076.65.718 1.168 1.37 1.093.707-.043 1.273-.757 1.146-1.456-.088-.717-.865-1.236-1.56-1.044Zm7.232 1.025c-.107-.533-.754-.854-1.242-.614a.899.899 0 0 0 .246 1.71c.595.108 1.163-.512.996-1.096Z" clip-rule="evenodd"/><defs><linearGradient id="a" x1="-2.433" x2="58.786" y1="-2.369" y2="16.839" gradientUnits="userSpaceOnUse"><stop offset=".245" stop-color="#4E5CA8"/><stop offset="1" stop-color="#1FC3F3"/></linearGradient></defs></svg>