<svg xmlns="http://www.w3.org/2000/svg" viewBox="0 0 128 128"><path fill="#253858" d="M116 128H12c-6.6 0-12-5.4-12-12V12C0 5.4 5.4 0 12 0h104c6.6 0 12 5.4 12 12v104c0 6.6-5.4 12-12 12z"/><path fill="#f4f5f7" d="m64 66.8-64 10v-26l64 10z"/><path fill="#ff8b00" d="m64 62.8 64-14v-15l-64 28z"/><path fill="#00875a" d="M64 63.8h64v-15l-64 14z"/><path fill="#de350b" d="m64 61.8 64-28v-20l-64 47z"/><path fill="#0052cc" d="m64 64.8 64 14v15l-64-28z"/><path fill="#00a3bf" d="M64 63.8h64v15l-64-14z"/><path fill="#5243aa" d="m64 65.8 64 28v20l-64-47z"/><path fill="#dfe1e5" d="M64 64h-8l8-16z"/><path fill="#c1c7d0" d="M64 64h8l-8-16z"/><path fill="#b3bac5" d="M64 64h-8l8 16z"/><path fill="#a5adba" d="M64 64h8l-8 16z"/></svg>