<svg xmlns="http://www.w3.org/2000/svg" id="rocket" viewBox="0 0 128 128"><style>.st1{fill:#fff}.st2{fill:#d3e0ea}.st3{fill:#5e6c84}</style><path fill="#253858" d="M116 128H12c-6.6 0-12-5.4-12-12V12C0 5.4 5.4 0 12 0h104c6.6 0 12 5.4 12 12v104c0 6.6-5.4 12-12 12z"/><path d="M27.2 82.1c.4-2.9.4-8.4 6.8-18.3C23.2 66.4 16.4 74 12.9 79.5c-2.5 4.2 1.2 3.9 3 3.5.3-.1.5-.1.8-.2h.1c4.5-1 8-.4 10.7.6-.4-.7-.3-1.3-.3-1.3z" class="st1"/><path d="M43.7 99.3c1.1 2.7 1.7 6.3.7 10.8v.1c-.1.3-.1.5-.2.8-.4 1.8-.7 5.5 3.5 3 5.8-3.8 14-11.2 16.1-23.2-10.7 7.5-16.7 8.1-20.1 8.5z" class="st2"/><circle cx="95.2" cy="96.9" r="3.9" class="st3"/><circle cx="107" cy="68" r="3.9" class="st3"/><circle cx="53.7" cy="20.1" r="3.9" class="st3"/><circle cx="21.1" cy="43.5" r="3.9" class="st3"/><circle cx="73.7" cy="105.5" r="3.9" class="st3"/><path fill="#4ac6c6" d="M41.4 98.7c.1.1.2.2.4.2-.2-.1-.3-.1-.4-.2zm-7.2-7.1 55.9-55.9L80 25.5c-9.1 2.8-18.6 7-30.2 18.6-23.2 23.2-22.9 33.6-23.5 38 0 0-.1 1.5 1.2 2.8l6.7 6.7zm6.7 6.7.3.3c-.1-.2-.2-.3-.3-.3z"/><path d="m102.1 23.6-12 12.1 10.1 10.2c4.7-15.6 2-22.2 1.9-22.3z" class="st2"/><path d="M90.1 35.7S37.8 87 34.2 91.6l6.5 6.6.1.1c.3.3 1.6 1.4 3.1 1.2 4.7-.7 15-.7 37.7-23.4C93.2 64.5 97.4 55 100.2 45.9L90.1 35.7z" style="fill:#0f8aba"/><path d="M102.1 23.6S96.5 22 80 25.5l10.1 10.2 12-12.1z" class="st1"/><path fill="#c5deeb" d="M25.4 100.6c6.1 5.3 27.6-20.4 24-24.3l-24 24.3z"/><path d="M49.4 76.3c-1.9-1.9-8.7 2-15.4 8.7s-10.5 13.6-8.6 15.6l24-24.3z" class="st1"/><circle cx="68.8" cy="56.1" r="8.2" class="st1"/><path fill="#2a5083" d="M76.7 48.2c-4.4-4.4-11.5-4.4-15.8 0s-4.4 11.5 0 15.8 11.5 4.4 15.8 0 4.4-11.4 0-15.8zM63.8 61.1c-2.7-2.7-2.7-7.2 0-9.9s7.2-2.7 9.9 0 2.7 7.2 0 9.9-7.1 2.7-9.9 0z"/></svg>