<svg xmlns="http://www.w3.org/2000/svg" id="code" viewBox="0 0 128 128"><style>.st1{fill:#ebf2f9}.st3{fill:#ff4e4a}</style><path fill="#008da6" d="M116 128H12c-6.6 0-12-5.4-12-12V12C0 5.4 5.4 0 12 0h104c6.6 0 12 5.4 12 12v104c0 6.6-5.4 12-12 12z"/><path d="M128 28.5H35.2c-3.7 0-6.7 3-6.7 6.7v10.5H128V28.5z" class="st1"/><path fill="#172b4d" d="M28.5 45.7V128H116c6.6 0 12-5.4 12-12V45.8H28.5z"/><circle cx="40.6" cy="37.3" r="3" class="st3"/><circle cx="49.2" cy="37.3" r="3" fill="#ffb522"/><circle cx="57.7" cy="37.3" r="3" fill="#00d150"/><path d="M77.9 68.2H41.6c-2.2 0-4-1.8-4-4s1.8-4 4-4H78c2.2 0 4 1.8 4 4-.1 2.2-1.9 4-4.1 4z" class="st1"/><path fill="#59afe1" d="M95.4 68.2h-3.7c-2.2 0-4-1.8-4-4s1.8-4 4-4h3.7c2.2 0 4 1.8 4 4s-1.8 4-4 4z"/><path d="M53.8 85.7H41.6c-2.2 0-4-1.8-4-4s1.8-4 4-4h12.2c2.2 0 4 1.8 4 4-.1 2.2-1.9 4-4 4z" class="st3"/><path d="M65.5 103.2h-24c-2.2 0-4-1.8-4-4s1.8-4 4-4h24c2.2 0 4 1.8 4 4s-1.8 4-4 4z" class="st1"/><path d="M82.1 103.2h-2.6c-2.2 0-4-1.8-4-4s1.8-4 4-4h2.6c2.2 0 4 1.8 4 4s-1.8 4-4 4z" class="st3"/><path fill="#4ac6c6" d="M104.4 85.7H67.7c-2.2 0-4-1.8-4-4s1.8-4 4-4h36.6c2.2 0 4 1.8 4 4 .1 2.2-1.7 4-3.9 4z"/></svg>