<?xml version="1.0" encoding="utf-8"?>
<!-- Generator: Adobe Illustrator 27.1.1, SVG Export Plug-In . SVG Version: 6.00 Build 0)  -->
<svg version="1.1" id="Слой_1" xmlns="http://www.w3.org/2000/svg" xmlns:xlink="http://www.w3.org/1999/xlink" x="0px" y="0px"
	 viewBox="0 0 1000 1000" style="enable-background:new 0 0 1000 1000;" xml:space="preserve">
<g>
	<path d="M825.8,736c-1.5-9.4-9.1-17-8.6-26.9c0.6-13.9-27.1-15.7-31.1-30c-1.3-5.1-7.9-7-7.9-12.8c-2.3-28.4,1.2-7.3-15.4-26.2
		c-0.5-0.3-0.9-1-0.1-1.6c6.3-4.8-10.1,2.3-15.9-11.7c-2.7-5.5-6.4-9.6-10.9-13.3c-13-9.4,12.9-17.7-1.7-22.8
		c-11.5-3.8-23.4-6.7-34-12.7c-8.3-4-16.3-13.4-26.2-11.6c-8.7,3.3-16.9-5-25.3-0.6c-17.3,8.3-18.7-7.2-39.5,7
		c-0.8,0.4-1.5,0.7-2.3,0.1c7-4.1,13.8-11,22.3-10.8c3.1-0.5,5.9,2.6,8.5,1.7c0.7-2.6-4.4-6.9-5.7-9.4c-1.9-2.5-4.2-4.2-7.5-4.1
		c-0.5,0-1.5,0.2-1.5-0.6c6.4-5.7,13.3,2.2,15,8.5c1.2,4.7,10,5.1,11.5,1.5c0-5.1-9.3-5-11.3-10.1c-6.4-12.2-23,1-30.9-7.4
		c-1.6-2.7-4-4.6-6.7-5.8c-22.2-14.8,6.2-20.6-5.5-32.3c-6.8-4.1-12.8-11.9-21-12.7c-6.4,1.1-11.9-3.4-17.7-3.8
		c-7.9,3.9-1.6-11.2-13.6-1.3c-6.4,4.6-8.7-9.5-17.9-9.9c-1.6-0.3-2.6-1.3-3.9-2.2c-3-2.1-2.9-2.1-1.3-5.5c2.2-4.6,6.1-7.1,10.3-9
		c13.5-6.4,26.2-14.3,39.4-21.3c5.1-3.5,4.6-0.1,5.4,4.2c5.5,47.4,80,74.4,72.1,103.7c-3.2,7.2,10.4,14.5,16.6,14.3
		c6.5,0.2,13.7-2.6,19.6,0.9c7.5,4,14.9,8.5,22.2,12.9c6,5.2,15.6,10.9,22.6,4.3c3-2.8-0.1-4.9-3-5.4c-4.5-0.9-8.3-3.1-12.1-5.6
		c-15-10.8-24.6-27-35.4-41.5c-13.1-14.2-22.7-31.1-31.6-48.2c-9.9-24.1-28.4-44.2-36.1-69c-5.3-30.7-24.4-33.8-51.7-33.9
		c-1.5-0.3-1.4,0.7-0.2,1.2c9.7,3.2,19.7,8.2,25.7,16.7c-0.8,0.9-1.5,0-2.1-0.4c-6.7-4-13.1-8.6-20.6-10.9
		c-32.9-8.8-68.4-10-101.7-3.6c-17.3,5.9-36.3,2.7-53.1,10.1c-8,0,17.5-9.6,19.1-8.8c2.2-0.4,2.4-1.4,1.6-3c-1.7-3.4-3-7-3.5-10.8
		c-0.7-3.8,1.7-7,2.8-0.7c1.5,12.9,26,22.7,26.8,4.7c-1-16-6.3-31.9-2-48c2.2-9.9,7.9-18.7,8.4-29c1.6-4.1,7.2,6.7,8,8.3
		c2.8,6.1,6.8,11.4,11.7,16c7.2,6.8,15,12.6,23.4,17.7c13.4,8.8,35.2,15.2,19.7,34c-1.5,2.5-1.5,2.6,1.3,2.9c9.4,1,19,0.9,28.3,2.4
		c2.1,0.3,2.2-0.8,2.3-2.2c0.4-12.2-7.4-22.8-15-31.7c-16.9-17.4-27.7-39.6-46-55.7c-10.6-11.1-14.6-26.5-22.2-40.1
		c0.2-2.3,8.2,13.8,7.9,12.4c7.5-9.4,3-23.8-7-28.5c-3.5-1.9-7.1-3.5-10.4-5.6c-3.6-22.3-16.9-45.8-42.7-41.1
		c5.3-4.9,15.7-4,22.3-0.7c4.4,2.2,4.4,2.3,6.9-1.7c3.9-6.8,6.1-8.8,13.9-6.8c5.5,1.2,16.8,4.7,16.5-4.4c-0.6-6.6,3.9-4.7,3.9-7.7
		c-2.1-3.6,4.2-3.5,2.4-6.9c-5.2-7.8,8.3-6.5,3-12.1c-4.5-4.6-10.6-10.3-5.7-17c3.3-3.9-3.1-9,2.7-11.8c9.7-5.1,5.4-20.9-4.9-22.4
		c-7.3-2.3-8.4-10-18.6-10.3c-9.2-1-18.4-1.6-27.3-4.6c-7.3-2.5-15-1.6-21.8,2.3c-36.1,17.8-19.6,56.5-47.1,56.6
		c-15-1.2-31.1,10-27.7,26.3c0.6,2.5-0.2,2.4-2.1,2c-3.3-0.7-6.6-0.6-10-0.4c-11,0.7-10.4,16.8-2.2,21.2c1.6,1.1,2,1.6,0.6,3.1
		c-8.2,8.4-5.3,20.3-8.6,30.6c-2.6,7.5-9.6,13.4-19.3,10c-15.8-9-45.2-9.6-43.3,14.9c1.3,11.7-15,4.3-17-2.4
		c-0.4,10.8,18.9,17,27.1,12.3c2.4-1.3,2.7-2.3,0.2-4.5c-10.1-10.2,13.5-19.2,20-12.3c0.2,1.1-0.8,0.8-1.3,0.9
		c-20.3,6.6-9.2,35.2-38,37.1c-5.7,0.6-11.6,2.2-15.9,6.3c0.7,0.6,1.2,0.1,1.7-0.2c5.9-3.8,12.7-3,19.4-3.2
		c26.8-0.3,20.1-38.1,48.9-30.9c11.4,2.4-7,8.2-10.1,10c-16.2,6.2-15.1,24.6-19.3,38.6c-2.2,10-19.5,21.4-21.5,5.4
		c-5.4,13.8,13,17.7,20.6,8.4c8.7-6.2,11.9-22.4,13.2-14.9c5.1,12.1,6.4,15.3,19.2,18c1.6,1.6-0.6,3.9-0.5,6.1c0.2,3,0,6,0,9
		c1.1,10.4-0.3,12.8-9.3,18c-9.2,7.3-9,24.1,0.3,30.8c0.7,0.7,1-0.3,0.9-0.8c-6.3-8.4-4.5-19.7,5.7-24c1-0.5,1.9-0.7,2.3,0.7
		c5.5,14,1.6,33-13.7,38.4c8.9,0.3,14.3-9.3,19.7-15.2c10.1-9.2-8.2-24.6,4.3-29.8c12-7.1,31.1-11,30.3-28.2c0-2.8-0.4-5.6-0.8-8.4
		c-0.4-2.8-2.6-5.7-1.3-8.1c1.2-2.4,4.8-2.7,7.3-3.8c8.3-3.7,13.6-9.9,15.5-18.8c2.7-13.1-0.4-13.3,13.3-20c1.5-0.9,2.2-0.6,2.6,1.3
		c2.3,12.7,5.9,25.2,9.6,37.5c10.6,33.8-15,62.9-27.1,92.5c-17.7,41.7,20.9,57.4-20.2,45.2c-9.6-2.4-17.1,8.8-29.5,5
		c-1.9-0.4-3.7-0.3-5.4,0.3c-9.7,2.5-19.9-0.7-29.8,0.4c-13.1,1.1-18.2-0.3-26.6-10.2c-6.6-3.5-7.2-11.4-11.2-16.6
		c-2.8-2.2-3.5-5.1-3.8-8.3c-0.1-4.1-4.3-5.4-6.7-8.2c-1.2-1-2.4-2.4-4.4-1.7c-1.7,0.6-2.8-0.6-2.7-1.9c-0.1-4.6-5.3-4.7-6.4-8.8
		c-1.1-2.8-2.9-3.2-5.6-1.6c-4.7,2.9-10,4.5-15.2,6.1c-20.2,6.4-8.2,19.1-17.2,24.8c-1.9,0.9-3.1,2.5-3.7,4.5
		c-3.4,12.6-18.6,6-27.8,6.5c-11.8-0.5-13,11.7-17.8,19.3c-8.5,13.1-1.6,21.4,1.8,34.5c3.8,16.6,17.4,28.9,20.8,46
		c3.3,14.2,15.6,5.1,21.7,14.1c0.8,1.3,2.1,2.2,3.5,2.7c7.8,2.8,10.5,10.5,13.8,17.4c2,6.6,10.8,5,13,11.3c2,3.5,6.6,4.4,9.4,7
		c1.5,1.1,2.4,1.2,3.6-0.3c4.4-5.3,14-7,19.4-2.7c3.4,3.8,7.4,7,9.6,12c1.9,4.2,5.5,4.5,8.4,0.7c1.5-2.1,2.9-1.7,4.6-0.7
		c3.5,2,6.6,4.5,9.5,7.2c8.2,8.5,6.4-9.3,15.2,0.1c8.2,8.6,17.6,16.3,22.8,27.4c2.6,6.9,10,7.3,15.6,10.5c3.7,2.8,7.4,3.2,11.5,0.8
		c16.9-6.6,21.4,16.7,28.2,27c8.7,12.6-9.1,22.3-4.8,34.6c0.9,3,0.9,5.9,0.2,8.8c-0.8,2.9-1.4,5.5,1.8,7.4c1.7,2.1,0.7,5.8,3.6,7.4
		c5.3,4.1,5.7,10.6,6.2,16.7c0.7,4.9,0.2,6-4.5,7.6c-1.1,0.4-1.7,0.8-1.7,2c0.4,3.6,5.4,1.3,7.7,2.5c4,0.4,3.8,6.6-0.3,6.7
		c-3.2,0.7-9.2-1.4-11.6,0.6c5.6,5.3,17.4-0.2,23,11.7c2.2,3.9-2.2,5.8-5.5,5.6c-12,1.3-24.1,1.5-36,4.1c3.7,0.7,23.5-2.3,19.6,4.8
		c-3,8,3.9,4.5,4.5,7.7c-0.6,2.5-4.3,3.4-6.6,3.6c-12.1,0.4-21,7.5-30.5,13.7c-2.9,2.3,2.2,2.8,3.8,2.8c17.2,1.9,35.8,1.4,52.4,4.5
		c-0.2,5.5-28.5,2.2-34.9,4.6c-17,4.9-34.6,6.7-51.7,10.6c-1.9,0.6-2.1,3,0.6,2.6c2.8,1.2,40.7-0.7,33,4.3
		c-5.9,3.3-13.3,1.6-19.3,4.6c-8.3,4.3-18.2,2.6-26.5,6.6c-6.7,2.5-6,8.1,1.6,7.3c7.6,0.4,15.3,0.7,22.9,1.1c1.1,0,2.6-0.4,3,1
		c-2.6,9.7-30.7,3-34,10.1c0,1.6,1.5,1.6,2.6,1.7c10.4,1.2,20.9,1.3,31.4,1.8c5.9,0.1,7.8,7.7,14.3,6.8c2.5,0.6,25.6-0.6,15.1,5.1
		c-8.2,2-16.9,1.5-25.3,2.3c-14.5-0.3-28.3,3.8-42.5,5.3c-15.8,0-30.7,5.1-3,5.3c6.7-0.4,11.9,4.6,18.4,5.7c4.8,2-3,6-4.8,7.6
		c-4.8,3,0.4,8.3-6.6,9.6c-11,3.6-23,1.3-34,5.1c-9.5,4.2-21.5-0.5-30,5.1c-0.1,1.1,1,1.1,1.7,1.2c8.6,1.4,17.2,1.8,25.8,2.2
		c1.3,0.1,2.9-0.5,3.5,1.2c1.4,7-9,8.3-13.2,11.6c-4.1,7.2-50.2,3.5-40.3,9c5.4,1.5,11.7-1.7,16.4,2.4c1,0.9,2.4,1,3.7,1.3
		c14.6,4,31.3,0,45.4,3.2c-0.8,6.9-11.3,4.6-16.3,5.9c-8.1-0.2-18.9,7.6-3.6,8.7c4.5,0.8,20.3,0.4,13.3,8.3c-5,7.3,12.6,2.4-5,12.2
		c-1.2,0.5-1.1,2.9,0.6,2.8c26.2,2,52.6,0.4,78.9,0.2c5.5-0.1,10.9-1.1,15.8-3.9c12.8-7.3,26.2-13.1,41.2-14.1
		c3.1-0.4,8.9-1.5,9.6-5c-0.2-1.1-1.5-1-2.5-1.4c-5.6-1.6-2.2-6.6,1.3-8.5c15.8-10.3,35.2-4.2,52.6-7.9c1.6-0.3,3.9-0.5,4.2-2.2
		c0.2-1.9-2.4-1.1-3.4-2c-7-5.5-16-3.4-24.1-4.4c-10.1-0.1,2.9-7.1-3.7-9.5c-4.2-1.6,4.7-5.4,0.4-6.8c-3.8-1.4-14.2,0.3-10.1-6.6
		c2.6-4.2,6.5-6.7,11.4-7.3c17.9-1.1,35.9-1.3,53.8-3c2.8,0.2,9.4-2.6,3.6-4.1c-5.2-0.9-4.6-4.1,0-5.6c5.4-2.3,19.4,1.5,22.4-3.4
		c-1.5-2-5.5-1.1-7.9-2c-8.1-1.7,1-6.6,4.5-7.3c11-2.7,20.5-10.3,32.3-9.5c15,0.5,29.9-1.1,44.9-1.5c8.7-0.5,10.6-8.3,0.1-8.2
		c-21.9-1.4-43.9-1.6-65.9-2.1c-3.6-0.7-10,1.2-12.4-1.6c1.6-7.4,13.9-8.6,20.4-8.8c29.4-1.8,61.9,4.4,89.2-8c3.4-1.9,4-5.9-1.1-5.6
		c-23-0.9-8.4-2.4-22.4-7.4c-18.3-12.7,36.5-7,42.3-10.4c10.5-1.9,18.3-7.4,23.4-16.8c0.8-1.5,0.8-2.2-0.6-3.3
		c-7.8-6.7,13.2-6.9,16.9-7.3c7.7-0.4,15.2-1.7,22-5.6c8.2-4.7,18.3-3,27.4-4.4c1.5,0.1,5.5-1.8,2.6-2.8c-2.9-0.8-10,0.5-11.1-2.6
		c1.1-5.7,9.7-4.8,14.3-5.3c12-0.3,24-0.6,35.9-0.9c2.5-0.3,6.7,0.1,7.1-2.9c-1.9-2.8-9.3,0.8-11.1-2.4c-0.5-1.6,1-2.3,2.1-3
		c5.3-5.4,22.2-1.5,25-7.6c7.1-12,24.6-9.3,36.6-11.1c2.6-0.1,5.4,0.1,7.8-1.3c3.3-2.1-2-2.3-3.7-2.1c-10.3,0.2-20.7-0.3-30.9-0.9
		c-1.1-0.2-2.8-0.3-2.8-1.5c0-1.4,1.7-1.4,2.8-1.5c3.8-0.1,7.7-0.2,11.5-0.1C799,741.6,829.2,741.7,825.8,736z M437.5,324.5
		c2-5,3.6-5.3,4.4,0.4c1.8,7,4.2,13.9,5.9,21c-0.2,0.4-0.3,0.8-0.5,1.2C444.2,343.2,434.2,328.9,437.5,324.5z M305.5,300
		c-17.2,18.7-31.6-23.4-13.6-30.6c11-6.9,19.4-0.8,29.9-4.3c2-0.7,2.8-0.1,2.9,1.8c0.8,7.7,1.1,15.7-7,19.4
		C312.1,289.3,309.1,295.1,305.5,300z M328.7,311.8c-0.2,8.5-3.5,13.3-10.9,16.1c-11.3,4.5-9.2-12.4-2.8-16.3
		c3.3-2.9,7.4-4.3,11.2-6.4C329.1,303.7,328.6,310.2,328.7,311.8z M347.6,170.9c-3.4,3.3-7.2,3.8-11.3,1.3c-0.6-0.3-1.4-0.9-1.8-0.3
		c-0.7,1,0.6,1.1,1.1,1.5c8.2,6-13.5,9.5-13.6,3c-1.7-13.3,17.1-7.3,24.9-7.6C348.3,168.7,348.8,170,347.6,170.9z M366.7,143.7
		c-2.7,6.5-5.8,12.7-11.8,16.8c-5.2,3.4-17.2,4.8-16.2-4.5c0.6-12.2,14.7-17.4,25.7-15.2C366.2,141,367.5,141.8,366.7,143.7z
		 M205.5,434.1c-6.5-2.5-12.8-2.8-19.3,0c-12.9,4.5-27.1-2.1-39.5-5.4c-0.1-1,0.8-0.9,1.4-0.9c13.1-0.5,26.2,6.2,38.9,0.8
		c11.9-5.8,22.5,4.4,34.7,3.9c4.9,1,17.2,0.2,20.2,3.5C229.8,437.2,216.9,438.7,205.5,434.1z M266.1,450.5c-13-0.5-28.6,1.7-42-4.5
		c0.1-0.9,0.9-0.6,1.4-0.6c5,0.4,9.9,0.8,14.8,1.2c12.8,1.5,25.4,0.8,38-1.7C282.7,446.3,267.8,451.3,266.1,450.5z M305.1,463.5
		c-2.9,6.7-11.5,6.9-14.6,13.6c-0.6,1.1-1.8,1.4-3,1.4c-5.4,0.1-10.6,1-15,4.5c-0.5,0.4-1.3,0.7-1.8,0.1c0.8-3.7,8.6-6.5,12.3-6.6
		c9.2-0.4,14.1-10.2,22-13.6C305.4,462.8,305.5,463.1,305.1,463.5z M325.1,457.4c-4.4,3.2-9.8-1.7-14.1,2.4
		c-0.6,0.3-1.1,0.9-1.8,0.4c-0.8-0.6-0.1-1.2,0.3-1.6c5-3.3-16-9.4-18.5-10.9c-1-0.3-2.9-0.1-2.6-1.6c8.6-5.3,24.6,12.1,36.1,8.7
		C327.5,453.9,328,456.3,325.1,457.4z M353.8,448.3c-6.9-0.8-13.1,4.1-19.6,3.9c-0.4-1.9,22.6-11.9,18.7-7.5c-3.7,2.7,2.2,0.7,2,2.9
		C354.9,448.2,354.3,448.3,353.8,448.3z M595.7,546.9c-0.1-3.5,8.4,4.8,2.9,5.8c-7.4,3.8-15.1,6.9-20.9,12.9
		c-4.9,1-7.7,4.8-11.3,7.6c-0.9-0.4-0.8-1-0.5-1.6c2.7-8.8,13.3-7.2,17.4-14.3C586.9,553,594.6,553.7,595.7,546.9z M544.2,508
		c2.2-1.5,5.3-1.8,6.1-5c0.3-1,2.6,0,1.9-2c-0.6-2.4-1.2-5-3.9-5.8c-3.8-1.5-1-4.4,1.9-3.1c6.1-1.8,11.1,1.5,16.2,3.8
		c1.2,0.6,3.9-0.1,3.5,1.8c-0.3,1.5-2.9,0.8-4.4,0.6c-1.3-0.5-7.9-2.4-5.4,0.9c12,2.6,9.8,7.7,21,6.3c1.3,0.1,3.5-0.6,3.6,0.3
		c-1.4,5.1-9.5,3.1-13,1.4c-17-9.6-11.4-2.5-2.5,6.7c1.1,1.6-0.7,3.8-2.3,2.4c-5.3-1.3-8.7-19.9-12.8-11.2c-1.2,2.9-4,3.9-5.9,5.9
		c-1,1.1-2.8,0.8-4.2-0.2C542.3,509.8,542.2,508.6,544.2,508z M498.7,425.9c0.8-0.8,1.7,0,2.1,0.5c3.3,4.5,8.6,7.4,9.9,13.4
		c0.7,4.1,13.4,15.4,8.6,18.4c-1,0.5-1.5-0.2-1.8-1c-1.9-5-4.9-9.3-8.6-13.2c-2.5-3.3-2-8.8-6.8-10.3c-2.8-1-1.5-4.2-2.8-6
		C498.8,427.1,498.2,426.5,498.7,425.9z M497.4,492.3c6.2-2.2,7-11.2,14.3-11c2,0.3,5.7,0.4,6.2,2.5c0.1,1.5-2.3,1.3-3.6,1.8
		c-4.1,1.5-8.2,3.1-10.5,7.1c-0.8,1.5-2.3,1.9-3.6,2.5c-3.9,1.8-5.6,7.9-0.1,8.8c10.4,4.5,20.2-17.9,27.3-8
		c-1.2,0.8-2.4,0.1-3.7-0.2c-1.4-0.3-2.8-0.3-3.2,1.4c-1.1,3.6-5.2,3.7-7.7,5.8c-4.3,3.5-8.9,5.3-14.7,4.3
		c-4.7-0.8-13.1,7.1-7.9,11.3c3.7,3.1,8.6,3.1,13.2,3.6c1.4,0.1,3.6,1.3,3.4-1.8c0-0.6,0.7-0.9,1-0.6c3.7,4.2,10.8,3.3,14,7.4
		c-8.3-0.1-17.1-3.5-25.5-2.2c-5.8,0.9-7.8-6.3-11.9-9.1c-2.9-2.7-3.1-2.6,0.2-4.8C490.8,506.4,491.7,497.2,497.4,492.3z
		 M424.6,449.8c-3.3,1.6-6.4,3.5-8.2,6.9c-0.5,1-1.8,0.8-2.7,0.9c-6.3-0.5-9.9,7.5-16.2,5.5c4.9-3.6,10.5-6.8,15.3-10.9
		C413.5,450.3,427.7,445.9,424.6,449.8z M463.1,446.4c-5.9-0.9-11.6-2.4-17.2-4.7c-3.9-2.7-7.6-0.9-11,1.2c-1.1,0.5-2.8,1.7-3.4,0.5
		c-0.6-1.2,1.4-2,2.5-2.7c9.5-7.6,19.9,1.6,29.5,4.6C465.4,445.9,464.4,446.8,463.1,446.4z M433.5,436.2
		c-14.5,8.7-33.4,9.2-49.3,2.7c-8-3.3-13.3,3.5-20.2,2.1c1.5-4.3,7.4-3,10.4-5.7c7.3-5,15.7,0.9,23.5,1.9
		c22.1,5.8,38.6-16.6,60.3-14.7c19.8-3,12.4-1.2,30.7,1.8c0.8,0,1.7,0.3,1.7,1.3c-0.7,3.8-7.2,2.5-10.1,2.1
		C463.4,422.8,448,427.3,433.5,436.2z M502.1,732.1c-11.2-0.3-22.6,0.7-33.7-0.4c0.4-1.2,1.6-1.1,2.5-1.2
		c10.4-0.5,20.9,0.5,31.3,0.8C502.2,731.6,502.1,731.9,502.1,732.1z M503,549.2c-7-2.7-13.6-7.3-12.3-15.6c0.2-1.3-0.7-4.3,0.7-4.6
		c2.5,6.3,0.5,13.6,9.6,16.3c4.9,2.4,12.1,0.8,15.1,6.2c0.9,1.8,2.5,2.6,4.3,3.1c3.2,0.9,9.8,7.1,9,10.2c-1,1.1-6.4-5.8-7.9-6.7
		c-3.6-3.8-4.4-1.2-2,1.9c3.3,8,13.8,7,17.7,14.3c1.3,1.3,0.4,2.9-1.1,1.4c-4.4-3.4-9.5-5.4-14.7-7.1c-2-0.7-3.2-1.7-2.9-3.9
		C517.1,556.7,510.3,551.2,503,549.2z M524.8,590.3c-2.8,1.7-5.1,4.7-8.9,4.6c2.9-3.5,7.3-5,10.6-8c5.7-5.4,13.8-4.1,20.3-2.7
		c18.4,6.2,40.5,7.5,56.2,18.8c-3.1,0.9-7-2.1-10.3-2.8c-9.4-4.1-19.6-4.7-29.3-7.5C551.4,589.9,535.6,580.6,524.8,590.3z
		 M548.1,731.2c-33.8-4.3,70.8-7.2,75.5-3.7C599.3,733.2,573.1,730.8,548.1,731.2z M670.4,726.6c-2.8-0.7-19.2-1.6-12.2,4
		c3.5,1.9,7.8,1.7,11.3,3.2c-16.3,0.7-33,0.8-49.3-0.2c4.1,0.2,43.3-3.6,20.7-6.4c-4.6-0.7-10.6,1.2-14.5-1.5
		c3.9-2.3,14.1-0.2,14.6-5.5c0.3-1.1,0.6-3.1,2.1-3c2.4,0.2,0.4,4.3,2.5,4.5c1.6,0.1,1.8-2.1,2.6-3.3c3.5-4.2,5-9.8,8.2-13.8
		c0.5,2.9-3.6,18.9,3.2,16c0.6-0.4,1.5-1.5,2-0.9c1.4,1.3-5.2,4.2-0.7,4.6C661.8,724,675.7,726,670.4,726.6z M681.7,611.5
		c-7.2,3.8,9-14.6,24.1-14.4c5.2-0.1,8.7-9.1,12.9-0.4c2.5,15.9,9.6,3.7,11.9,11.4c1.4,5.6-0.3,13.3,4.2,17.4c1.4,0.7,0.8,2,0.5,3.1
		c-0.2,0.7-0.5,1.1-1.3,0.9c-7.1-2.3-3.9-11.7-6.7-17c-1.5-3.4-6.1-2.8-5.7,1.1c-1.3,6.3,5.5,10.8,3.3,17.1
		c-1.4,9.7,7.1,11.8-1.2,23.9c0.9-10.5-5.4-19.7-5.2-30.4c0.4-10.2-3.9-21.6-15-24c-2-0.6-3.9,0.1-5.6,1.3
		C692.9,605.9,685.7,605.8,681.7,611.5z M766.2,730.2c-3.3,1.5-6,4-10,4c-15.6-0.1-31.3,0.3-46.9-0.2c-1.3,0.2-20.8-3.5-16.4-4.8
		c2.6-4,4.3-5.5,9.7-4.9c4-0.1,1.8-4.5,1.1-6.8c-0.5-1.3-0.9-2.9-0.3-3.9c2.2-3.5,1.8-7.3,2.3-11.1c2.4-6.1,1.9,8.9,1,10.1
		c-0.9,2.2,1.3,5.1,3.6,4.4c1.1-0.4,0.5-1.4,0.6-2.1c0-7.8,0.1-15.6,0.2-23.5c1.8-7.7,2.4,19.9,3.1,21.4c-0.3,5,3.7,1.4,6.6,2.2
		c-9.6,11,13.3,8.7,19.5,10.3c-2.2,2.5-25.9,3.2-20.2,5.5c11.4,1.9,23,1.9,33.7-3c4.5-1.4,8.1,1,12.1,1.2
		C766.8,729.1,767.2,729.8,766.2,730.2z M779.2,689.1c-5,8.5-9.1,17.9-16.4,24.7c-2.4,2.9-4.6,0.9-2.2-1.9
		c6.9-11.5-0.9-23.3-3.9-34.7c-0.5-1.6-1-3.3-2.2-4.4c-5.9-5.7-6.5-13.2-7-20.7c0.8-6.7-4-7.8-2.5-10c5.1-1.2,11.1,1.7,13.2,7
		c3.4,5.2,9.9,8.4,10.2,15.4c0.4,1.3-0.5,2.4-1.2,0.4c-2.8-6.2-7.8-11.4-13.6-14.8c-4.9-2.4,0.1,11.4,2.7,13.4
		c2.9,2.8,4,6.5,4.2,10.4c0.2,7.1,5.3,11.1,9.8,15.4c2.4,2.2,3.2-5.3,5.3-6.4C778.5,679.8,780.7,686.9,779.2,689.1z"/>
</g>
</svg>
