<?xml version="1.0" encoding="utf-8"?>
<!-- Generator: Adobe Illustrator 26.0.1, SVG Export Plug-In . SVG Version: 6.00 Build 0)  -->
<svg version="1.1" id="Слой_1" xmlns="http://www.w3.org/2000/svg" xmlns:xlink="http://www.w3.org/1999/xlink" x="0px" y="0px"
	 viewBox="0 0 1303.5 1346.8" style="enable-background:new 0 0 1303.5 1346.8;" xml:space="preserve">
<path d="M211.4,211.4v951.9h931.8V211.4C1143.2,211.4,340,211.4,211.4,211.4z M1117.2,1041.2c-53.1-0.2-120.7,3.5-161.7,2.5
	c88.2-57.9,140.6-160.8,161.7-261.2V1041.2z M1117.2,237.4v369.4c-28.5-160.5-184.4-289.1-343.7-338.1l-2.8,7.5
	c148.7,57.2,292.3,174.4,314.6,340.6c19.4,143.8-40.4,315.2-173.3,385.7c-11.4-18.9-20.8-35.6-28.9-49.7c8.3-9.1,13.8-20.6,9.2-31.9
	c-5.8-28.5-23.3-37.7-52.1-38.4c-21.7-37.4-44.5-79.2-45.4-85c0.1-1.9,2.8-6.6,7-11.4c0,0,0,0,0-0.1c5.8-7,19.1-14.9,28.4-22
	c13.8-10.5,29.9-32.6,27.3-45.5c-7.7-61.1-62.7-35.9-99-15.2c-9.6-16.5-19.9-33.7-24.6-52.3c-8.2-26.9-12-26.9-24.4-57.4
	c20.6-15.1,39.5-41.4,36.4-63.4c2.7-42.2-47.8-44-75.6-29.4c-18-28.7-29.2-97.1-26.5-151.2c-0.8-26.5-0.8-36.9,6.2-55.9
	c6.2-18.1,12.9-37.8,26.5-56.3H1117.2z M818.9,1077.1c-7.3-25.8-63.3,2-67,2.5c-2.4,1-3.2,4.1-1.6,6.1c4.4,5.8,9.8,13.9,11.5,19.8
	c-23.2,2.3-46.8,0-70.2,1.1c-30.7,2.1-63.6,0.5-91.7-13c-22.8-16-50.6-21.6-76.3-30.8c-27.3-11.8-52.1-28.2-80-39
	c-18.2-9.2-38.8-10.5-58.1-14.7c-9-2.6-17.6-6.8-26-11.3c-69.2-34.4-134.7-128.1-104.1-206.3c13.5-26.9,31.6-53.2,34-84.1
	c-0.2-8.7,2.1-17.6,2.5-26.2c-0.5-24-9.1-46.9-12-70.3c-3.7-21.1,1.5-42.6,15.9-58.7c26.8-37.6,57-72.6,85.4-108.7
	c15.2,7.7,28.2-15.8,37.9-30.2c14.6-19.1,17.4-29.7,19.4-40.8c30.3-5.4,34.5,19.9,31.6,43.9c-0.9,14.1-1,28.3-5.3,41.6
	c-7.4,21.5-29.2,33.3-42.2,51.3c-44.1,54.2-54.3,103.2-8.8,161.1c-15.4,11.2-31.3,23.8-42.5,35.8c-20.8,32.7-19.8,60.7,11.5,83.2
	c-57.4-79.6,56.1-117.5,98.9-158.8c12.9-11.5,27-24.2,40.4-30.4c53.6-21.5,76.3-68.7,139.9-85.8c0,0,15.6-7.9,30.7-10.1
	c-23.8,14.1-53.4,34.3-37.2,62.3c5.3,8.2,11.6,12.9,18.9,14c20.8,2.8,44.2-23.6,63.6-38.6c-1.3,5-2,12.3-7.5,17.8
	c-40.7,48.6-90.1,61.6-135.1,100.8c-13.8,11.3-30.9,22.5-43.1,35.4c-37.7,34.3-81,61.4-125.3,86.5l0.3,0.8
	c19.5-4.9,39.5-13.2,57.5-22.1c1.2,25.9,11.2,36,27.5,43.4c-19,2.5-40.7,6.1-60,7.3l0,0.7c31,5.8,58.8,2.8,89.4-2.9
	c0.6-0.1,20.9-3.9,33.3-1.9c1.6,0.2,9.7-2.9,11.2-3.5c27.9-11.4,39-22.4,62.7-33.7c6.6-3,21.9-11.1,27.9-14.7
	c26.8-15.9,56.3-26.5,82.2-43.7c11.9-6.8,38.8-21.5,59-24.3c-23.2,12-64.8,41.8-50.1,69.3c8.6,20.4,33.3,13.1,49.7,7.2
	c-68,45.1-149.4,100.6-195.9,131.2c-6.9,5.2-18.6,8.7-27.1,9.3c-20.7,1.1-38.8,6.7-59.4,6.6l0,0.6c-14.5,2.5-27.4,9.1-42.4,10.6
	l0.1,1.5c18.8,3.1,36.6-5,55.3-4c45.7-2.5,70.3,23.3,115.3,22.2c27.6-0.6,42.1,1.8,58.2-8.5c27.2-13.9,105-58.2,145.8-37.2
	c-15.3,7.1-52.1,30.3-62.3,39.1c-16.1,15.5-8.1,30.6,11.5,44.1c-30.4,9.7-95.6,55.9-130.4,49.9c-23.8-2.7-61.4-4.6-87.5-6.6
	c-36.3-1.8-73.4,1.6-108.9-8.2c-14.2-5.2-27-17.7-42.4-23.1c-27.3-6.4-43.2-10.9-66.1-28.4c-25.9-18.3-50.8-35.8-66.9-62.7
	c-20.4-36.8-33.4-91.4-21.3-132.4l-1.2-0.7c-24.1,47.2-8.4,132.6,28.5,170.3c14.9,16.2,33.9,27.6,52.2,38.8
	c13.3,8,26.2,16.5,41.1,21.8c9.9,3.3,19.1,4,28.6,7.4c23.3,11,40.7,29.5,69.7,29c10.3,0.8,21.2-4.9,31.4-5.3
	c19.7-0.5,36,1.7,55.7,1.2c30.6,2.5,62.2,6.4,90.4,19.2c9,3.8,19.4,3.5,28.6,2.8c36.6-2.4,80.2-15.7,112.5,6.5
	c4.1,4.3,4.6,10.5,4.3,16.3c-0.5,7.1-10.7,10.3-16.2,13.9C820.1,1085.7,820.2,1081.1,818.9,1077.1z M808.1,1094.3
	c-5.2,6.4-26.3,10.1-38.3,10.3c-1.2-6.1-6-14-10-19.5C776,1078.5,826.6,1060.3,808.1,1094.3z M383.1,437.3
	c0.7-12.8,10.6-25.4,16.3-36.6c6.3-13.9,17.5-27.3,33.5-29c-0.6,11.9-16,37.8-28,52.4C395.5,437.7,393.4,439.3,383.1,437.3z
	 M695.1,507.6c2-1.2,11.8-7.2,13-7.1c20.5,1.7,31.5,13.6,31.8,26.9c1.6,4.8-16.4,15-20.1,19.6c-16.7,13.9-30.5,27-44.1,25.7
	C639.7,558.3,669.6,520.2,695.1,507.6z M824.4,690.8c16.1-1,23.4,14.8,26.4,31.4c1.7,6.6-7.8,14.3-11.1,19
	C784.3,799.4,726.3,736.3,824.4,690.8z M824.1,975.2l0.2-0.5c-16.8-6.3-26.3-20.5-13.6-32.7c12.1-10.5,57.8-38.1,64-39.4
	c4.3-0.9,8.1,14.6,10.9,23.5C887.3,952.3,848.3,971.2,824.1,975.2z M629.2,237.4c-12.1,21.4-44.8,47.7-57.8,55.4
	c-30,21-74.1,56.1-105.2,77.4c-5.1-4.7-12-6.6-18.8-6.7c21.6-29.5,48.5-55.2,77.7-77.1l-0.6-1c-33.2,21-63.9,46.9-88.1,78.1
	c-20.4,0.1-36.1,15.7-43.9,33.4c-6.4,12.5-16.8,25.6-17.3,40.2c-12.8,20.6-31.4,36.6-45.8,56.1c-0.5-85.8,17.4-170.4,37.1-255.7
	H629.2z M237.4,237.4h121c-6.8,36.9-14.6,70.8-22,96.6c-11,37.9-15.2,168.3-15.2,169.5h0.1c-15.1,21-33.1,39.7-45.8,62.2
	c-18.3,38.4,6.3,79.4,5.4,118.7c-1.7,8.3-2.2,17.3-2.8,25.8c-4.5,36.1-33.1,63.9-40.6,99V237.4z M1117.2,1137.3H237.4v-282
	c15.6,76.7,71.8,141.4,144.6,166.1c10.9,3.4,22.4,3.5,33.2,6c26.9,7.7,51.8,21.1,76.6,34c25.5,16.3,56.1,21.1,83.3,32.6
	c31.7,20.8,72.4,27.3,109.8,23.1c46.2-4.9,98.5,4.6,139.5-21.8c6.8-4,15.8-7.7,18-16.3c99.1-6.3,142.2-10.1,274.9-5.8V1137.3z"/>
</svg>
