<?xml version="1.0" encoding="utf-8"?>
<!-- Generator: Adobe Illustrator 26.0.1, SVG Export Plug-In . SVG Version: 6.00 Build 0)  -->
<svg version="1.1" id="Слой_1" xmlns="http://www.w3.org/2000/svg" xmlns:xlink="http://www.w3.org/1999/xlink" x="0px" y="0px"
	 viewBox="0 0 1956.9 2142.7" style="enable-background:new 0 0 1956.9 2142.7;" xml:space="preserve">
<path d="M1816.4,1011.4c2.7-1.9,5.4-3.8,8-5.9c3.7-3,6.6-6.5,6.8-11.6c0.3-7.1-3.7-13.1-5.1-19.7c-0.4-2.1-2.2-2.8-3.6-3.9
	c-1-0.8-1.1-2-1.1-3.2c0-8.3,0.2-16.6-2.6-24.6c-2.5-7.2-2.7-15-5.8-22.1c-2.1-4.8-3.9-10-5.3-15c-2-7.2-5.9-13.2-9.7-19.3
	c-1.9-3.1-4.8-4.9-8.7-5.1c-4-0.3-5.2-1.8-5.1-5.8c0.1-3.5,0.5-7,0.5-10.5c0-4.5,0.3-9.2-1.4-13.3c-4.2-10.1-9.2-19.8-16.8-27.9
	c-1.4-1.5-2.5-3.1-3.7-4.7c-6.4-8.5-11.6-17.8-18.1-26.1c-4.6-5.9-9.2-11.7-15.8-15.6c-3.1-1.9-4.6-1.9-6.9,0.7
	c-1.7,1.8-1.4,4-1.4,6.1c0,1.8-0.7,3.4-2.6,3.8c-1.7,0.3-2.7-0.8-3.6-2.1c-1.9-2.8-3.5-5.7-4.4-8.9c-1.2-4.2-3.8-7.2-7-10.1
	c-3.2-2.9-7.2-5-9.8-8.4c-3.4-4.6-7.9-7.5-13.3-7.5c-8-0.1-14.3-3.1-20.5-7.6c-4.2-3.1-9.2-5.3-14.5-4.2c-4.5,1-8.7,0.5-12.7-0.9
	c-5.5-2-11.4-2.3-17-3.8c-11-3-22.5-2.7-33.6-4.8c-2.6-0.5-5.3-0.3-7.7,1.2c-0.3,4,0.2,7.8-0.9,11.6c-1.3,4.4-2.7,5.1-6.7,3
	c-3.1-1.6-6.2-3.3-9-5.3c-4.2-2.8-8.4-4.3-13.6-3.6c-4,0.6-8.1,0.7-11.6-1.8c-3.2-2.2-6.4-2.4-10-1.3c-3.5,1.1-7,2.2-10.3,3.8
	c-2.4,1.2-5,2.3-7.6,2.1c-6.8-0.4-11.7,2.9-16.1,7.6c-5.1,5.4-10.3,10.8-15.5,16.1c-3.5,3.6-4.6,3.6-8.1,0.3
	c-0.8-0.8-1.7-1.6-2.6-2.3c-1.2-0.9-2.9-1-3.7,0c-2.2,3.1-5.2,4.4-8.5,5.7c-0.9,0.4-1.6,1.7-2.2,2.7c-2.9,5-2.9,5-7.6,1.7
	c-0.4-0.3-0.9-0.2-1.3-0.3c-1.3,0.6-1.8,1.6-2.4,2.7c-0.6,1.1-0.5,2.7-2.3,3.1c-0.4-0.5-0.8-1-1.2-1.5c-3-3.3-4.9-3.1-7.3,0.7
	c-1.3,2.1-2.6,4.3-3.5,6.6c-4,10.5-12.6,16.2-22,21c-8.9,4.5-18,9-24.7,16.3c-6.2,6.7-13.5,9.9-21.9,11.9c-1.5,0.3-3,0.5-4.1,1.6
	c-3.3,3.1-7.4,3.6-11.6,3.6c-1.5,0-3.3-0.7-4.4,0.4c-3.2,3.3-7.2,2.8-11.2,3.1c-3.1,0.2-5.6,1.3-6.4,4.6c-0.5,2.1-2.2,2.7-3.9,3.4
	c-5.3,2.2-9.9,0.2-14.2-2.4c-3.2-2-6.4-2.5-10-1.8c-4.4,0.9-8.7,2.2-12.8,4.2c-2.7,1.3-5.4,1.8-8.3,1.2c-6.1-1.3-12.1-2.1-18.3-1.9
	c-3.3,0.1-5.8-1.4-7.8-4.4c-4.1-6.1-8.9-11.5-16.7-13.2c-3.2-0.7-6.8-1.2-9.5-2.7c-6.9-3.9-14.1-2.9-21.3-2.8
	c-1.7,0-3.3,0.1-4.7,1.2c-2.8,2.3-5,0.9-6.8-1.3c-1.1-1.4-1.9-3.1-2.9-4.7c-2.9-5-8.5-7.4-13.6-5c-8.4,4-16.4,2-24-1.5
	c-8.1-3.7-10.9-3.8-17.3,2c-2.2,2-4.5,3.5-7.6,2.7c-3.7-0.9-7.4-1.9-11.1-2.7c-7.3-1.6-14.4-2-21.5,1.4c-3.7,1.8-7.8,2.6-12,3.1
	c-5.8,0.6-11,2.2-15.6,6.7c-5.4,5.3-11.3,10.2-18.6,13c-4.8,1.9-8.6,5.7-11.1,10.6c-1.9,3.6-4.6,6.6-8,8.9
	c-5.7,3.9-11,8.4-16.7,12.2c-8.1,5.5-14.5,12.2-15.9,22.4c-0.6,4-3.3,6.9-5.7,9.8c-5.7,6.9-8.8,15.1-12,23.3
	c-3,7.9-6.8,15.4-11.7,22.3c-2.2,3.1-5.7,6.8-4.6,10.1c1.7,5.2-0.4,7.6-3.1,11.4c-3.2,4.4-4.9,10.1-5.7,15.8
	c-0.7,5.7,0.7,10.8,3.3,15.7c2.1,4,4.8,7.5,8.1,10.5c1.9,1.7,4.1,3.5,4,6.6c-0.1,6.3,0.9,12.6-0.1,18.9c-0.6,4.1-1.6,8.2-1.3,12.4
	c0.2,3.5-2.2,5.8-5.7,6c-4.2,0.2-13.3-7.5-12.9-11.6c0.6-7-7.8-10.8-8.2-4.6c-0.2,3.9-1.2,7.6-2.1,11.3c-0.7,2.8-2.4,3.8-5.2,3
	c-1.1-0.3-2.4-0.3-3.4-0.9c-5.1-3-9.4-2.1-13,2.5c-0.1,0.2-0.6,0.1-1.1,0.2c-2.7-2.4-2.6-6-3.4-9.1c-0.9-3.6-1.6-6.9-6.3-6.1
	c-2.9-4.2,2.1-10.8-4.5-13.6c-0.6,0.8-1.1,1.1-1.2,1.5c-2.3,6.9-6.5,13.2-6.3,20.8c0,0.5,0,1.4-0.2,1.9c-0.7,3.2-2.3,3.9-5,2.2
	c-2.9-1.8-4.5-4.1-4.4-7.8c0.1-2.9,0.4-5.9-1.2-8.7c-0.6,0.3-1,0.4-1.1,0.7c-0.4,0.9-0.7,1.8-1.1,2.7c-2.5,5.7-6.2,9.9-12.9,10.1
	c-4,0.1-8,0.1-12,0c-3.7-0.1-7,0.3-8.3,4.6c-0.5,1.6-2,3-3.8,2.6c-2-0.4-2.9-2.1-3.1-4.1c-0.2-1.8,0-3.7-0.3-5.5
	c-0.6-4.5-2.4-5.8-6.8-4.7c-1.6,0.4-3.2,0.8-4.9,0.6c-2.1-0.3-4.3-0.6-6.4-0.8c-2.6-0.3-3.7,2.7-6.1,3c-3.2-2-3.5-5.1-3.8-8.3
	c-0.2-1.5-0.4-3-2.4-3.2c-2.1-0.1-3.1,1-3.5,2.8c-0.5,2.4-0.9,5-3.2,6.6c-1.3,0.9-1.7,2.4-2.1,3.8c-1.2,4.5-4.4,6.7-8.1,7.4
	c-3.1-0.8-2.7-4.5-6-4.7c-2.5,3.8-6.6,4.8-11.1,5c-2.6,0.1-4.1-1.2-4.7-3.6c-0.3-1.3-0.4-2.7-0.2-4c0.4-3.4-2-4.7-4.4-5.9
	c-2.7-1.3-4.1,0.7-5.2,2.5c-3.6,5.9-9,7.1-15.4,7.4c-7.5,0.3-15.1,0.5-21,6.3c-0.3,0.3-0.9,0.5-1.3,0.7c-2.6,1.3-5.4,0.1-6.3-2.7
	c-0.3-1-0.4-2.1-0.4-3.1c0-3.1-1.8-4.7-4.5-5c-2.7-0.3-4.2,1.7-5,4c-0.5,1.3-0.2,3.1-1.8,4c-0.4-0.1-0.9-0.1-1.3-0.3
	c-1.2-0.7-1.4-2.2-2.1-3.3c-1.5-2.6-4.1-3.8-6.7-2.8c-3.4,1.3-7.2,2.2-10.1,4.2c-7.6,5.3-14.9,4.1-22.5,0.3c-2.7-1.3-5-3.1-5.8-5.9
	c-1.1-3.7-3.9-5.7-6.8-7.6c-2.4-1.6-4.1-1-4.6,1.9c-0.3,1.6,0,3.3,0,5c0,2,0.2,4-1.8,5.2c-1.1,0.2-1.8-0.1-2.5-0.6
	c-4.3-3.2-8.4-3.7-13.2-0.5c-2.5,1.6-5.9,3.1-9.2,0.9c-1.4-0.9-3.1-1-4.5-0.2c-1.1,0.6-2.2,1.3-3.2,2c-3.2,2.1-6.7,1.8-10.2,1.3
	c-2.5-0.4-2.7-3.1-3.9-4.8c-1.4-2.1-2.8-4.1-3.5-6.5c-0.6-2.2-2.2-4-4.6-5.1c-1.9,1.4-3.3,3.1-3.8,5.2c-1.5,6.1-6,9.8-10.6,13.3
	c-3.6,2.7-8.4,1.3-10.2-2.8c-0.8-1.9-0.5-3.9-0.4-5.9c0.1-2.4,0.8-4.9-0.7-7.1c-2.5,0.2-3.7,3.3-6,2.5c-4-1.3-5.3,1.2-6.4,4.2
	c-2.4-1.8-4.4-1.4-6.8-0.3c-9.6,4.7-17.5,0.8-19.5-9.5c-0.2-1-0.4-2-0.8-2.9c-0.8-1.8-2.1-2.5-4.3-1.5c-1.1,4.6,0.9,9.8-1.3,14.6
	c-3.1,0.3-6.1-1.3-9-0.4c-2.9,1-5.1,0.1-7.4-1.5c-1.6-1.2-3.7-2.4-5.5-1.9c-3.3,1-6.2-0.2-9.3-0.3c-5.4-0.2-5.4-0.3-6.2-5.5
	c-0.7-4.3-1.1-4.7-5.8-4.7c-1.6,2,0.3,5.1-2.5,7.1c-3.6-1.4-7.4-3.2-11.7-2.1c-1,0.3-1.7-0.8-2.5-1.4c-3.2-2.4-5.1-5.6-6.1-9.4
	c-0.4-1.8-1.2-3.6-3.3-4c-2-0.3-3,1.2-3.9,2.6c-1.9,3-4.8,4.5-8.1,5.5c-3,0.9-6.1,1.8-8.7,3.7c-3.5,2.6-7.2,3-11.3,2.9
	c-5.8-0.2-5.7-0.1-6.6-5.7c-0.7-4.1-1.6-8.2-2.4-12.2c-0.4-1.8-1.4-3.1-3.4-2.9c-2,0.2-2.1,1.9-2,3.5c0.3,3-0.2,6-0.7,8.9
	c-0.6,4.2-4.7,6.7-8.8,5.7c-1-0.2-1.9-0.7-2.8-1.1c-4.5-1.6-5.9-0.8-6.2,4.1c-0.1,1.5-1.2,2.8-2.7,3c-3.9,0.6-6.4,3.8-9.8,5.1
	c-0.1,1.3-0.1,2.2-0.1,3.2c-0.1,5.1-0.1,5.1-5.2,6.9c-1.6,0.6-2.8,1.7-4.2,2.6c-2.2,1.4-4.5,4.9-6.1,6.9c0-4.7,0.7-14.1,0.5-18.4
	c-0.8-16.4-3.8-28-8.6-43.6c-3.8-12.4-11.4-21.6-21.9-28.8c-3.3-2.3-6.9-3.8-10.8-5c-9-2.6-17.8-4-26.7,0.2
	c-0.7,0.3-1.6,0.4-2.4,0.5c-13.1,1.9-25.7,5.2-37.9,10.3c-4.1,1.7-8.3,1.8-12.7,0.3c-4.2-1.4-8.6-1.9-13.2-0.8
	c-6.2,1.5-10.5,5.2-14.1,10.2c-4.9,6.7-9.6,13.8-16.3,18.8c-6.1,4.5-11.6,9.7-18.3,13.5c-4.4,2.5-8.3,4.9-13.2,1.6
	c-0.6-0.4-1.3-0.3-2,0c-1.5,1.6-0.9,3.4,0,5c1.1,2.2,1,4.1,0.3,6.5c-1.2,4.3-2.1,8.7-4.6,12.5c-0.7,1-0.7,2.3-0.4,3.4
	c1.9,5.4,2,11.1,2.1,16.7c0,1.7,0.6,3.7,2.4,4c2.2,0.3,3.3,2.1,5,2.8c6,2.7,9.5,2.5,12.4-3.4c0.4-0.7,0.7-1.5,1-2.3
	c1.6-4.5,4.4-7.7,9.1-9.3c1.8-0.6,3.8-1.2,4.5-3.5c2.1-7,6.6-10.6,14.1-10.1c0.8,0.1,1.6-0.5,2.4-0.6c1.5-0.2,3-0.2,4.1,1.5
	c-0.4,4.7-2.6,9.1-3.5,13.8c-0.5,3.1-1.5,6.1-3.1,8.9c-0.8,1.3-1.5,2.5-3.4,2.4c-4.7-0.3-6.9,2.4-7.8,6.8c-3.9,0.7-7.6,1.2-11.4,1.2
	c-3.2,0-6.2-1.1-9.2-1.5c-3.8-0.5-7.9,0.1-11.6,1.6c-1.7,0.7-3.3,2-3.6,4.1c1.4,1.2,3.2,0.3,4.2,1.3c-1,2.6-4-0.4-5.3,2.5
	c4.3,2.2,1.2,4.9,0.4,7.7c-0.9,3-1.4,6.1-4.6,7.6c2,2.5,5.8,1.8,7,4.8c-1.9,3-5.9,3.2-8.2,6.5c2.8,0.9,3.9,2.7,3.1,5.3
	c3.1,1.9,6.9,1.4,9.7,3.8c-2.2,2.3-5.7,1.4-7.6,4.2c6.2,2.3,12.8,1.8,18.8,4.1c-1.6,2.4-5.1,1.6-6.2,5c9.5,4.3,20.5,2.4,30.8,6.7
	c-5.5,3.1-11.7,1.7-16.4,5.3c2,2.2,4.1,2.6,6.2,3c4.9,1,9.8,1.9,14.6,3.1c2.8,0.7,5.9,1.2,7.9,4.2c-2.5,2-5.4,2.1-8,3
	c-2.4,0.8-5.9,1.1-6.1,4.3c-0.1,3.2,3.3,3.9,5.7,4.8c5.9,2.3,12.2,3.3,18.4,4.3c8.9,1.4,17.8,3.5,26.8,2.1
	c8.8-1.3,17.6-0.8,26.4-0.5c4.3,0.1,8.6,0.8,12.9,1.2c-7.4,2.7-14.9,2.5-22.4,3.2c-1.4,0.1-1.4,2.1,0,2.3c11.7,1.3,23.6,1,35.3,1.5
	c0,0.6,0,1.2,0,1.7h-15.5c-0.1,0.7,0,0.5-0.1,1.2c8.7,1.2,17.7,0.6,26.1,3.8c-12.2,1-24.4,0.5-36.5,1.4c-1.4,0.1-1.4,2.2,0,2.3
	c7.3,0.5,16.7,0.9,22.2,0.7c6.5-0.3,13-0.1,19.5-1.2c1.9-0.3,3.7-0.8,4.8-2.3c2.1-2.8,5-3.7,8.1-4.5c2.3-0.6,5-0.9,5.9-3.5
	c-1-3.1-4.4-2.3-6.2-4.3c4.4-1.2,8.6-2.3,12.7-3.5c2.6-0.7,5.1-1.6,7.3-3.2c2.5-1.8,2.5-3.8,0-5.6c-1.9-1.4-4.2-2-6.4-2.7
	c-2.1-0.6-4.7-0.8-6.2-3.5c6.5-4.3,15.8-2.7,21.5-9.2c-3.8-6-10.9-4.5-15.5-8.3c3.6-2.7,8.3-1.9,11.5-4.4c0-1.7-2.3-1.4-2.2-2.8
	c2.3-1.1,4.9-1.3,7-2.4c1.8-0.9,1.7-3.6-0.1-4.5c-3.7-1.8-8.1-1.9-11.6-4.3c2.1-2.4,5.3-2.6,7.5-4.2c0.8-0.6,0.7-1.8-0.2-2.2
	c-1.4-0.7-3.3-0.5-4.4-1.9c1.7-1.3,4.1-1,5.8-2.1c0.7-0.4,0.6-1.4-0.2-1.7c-3.6-1.4-7.5-1.1-11.5-3.4c4-1.3,7.2-2.3,10.3-3.3
	c4,3.4,5.4,3.6,10,1.6c1.1-0.5,2-1.1,3.1-1.6c3.2-1.5,5.9-1.4,7.8,1.5c2.9,4.3,6.7,7.2,11.2,9.3c-0.9,2.4-2.7,4.6-0.3,6.7
	c2,1.7,4.4,1.8,6.5,0.6c2.2-1.2,4.3-1.6,6.7-1.2c3.7,0.6,2.5,3.7,3.2,5.9c0.4,1.2,0.9,2.3,2.3,2.2c1.3-0.1,2.1-1,2.4-2.2
	c0.2-0.6,0.4-1.3,0.4-2c-0.2-3.9,1.4-7,3.4-9.8c2.9-0.8,5.4-1.5,8-2.2c2.1-0.6,3.7-1.7,3.5-4.2c-0.2-2.4-2-3.2-4.2-3.4
	c-1.2-0.1-2.7,0.4-3.7-0.9c5-2.3,9.7-1.3,12.8,2.9c1.3,1.8,3,2.5,5.1,2.7c1.8,0.1,3.7-0.4,5.6,0.8c0.1,3.5,2.3,5.5,5.2,7.6
	c7.3,5.2,7.3,5.4,10.7-2.6c0.6-1.4,1.4-2.6,3.2-2.8c2.5,1.9,2.5,1.9,5.3,1.9c1.8,0,3.7,0,5.5,0c3.9,0.1,4.5,0.4,3.8,3.5
	c-0.2,0.9,0.2,1.8,1,2.3c1.2,0.6,1.9,1.6,2.4,2.9c0.4,1,1.6,1.4,2.4,0.7c1.9-1.8,2.1-5.1,4.5-6.2c1.1-0.5,1.7-1.7,1.3-2.8
	c-0.7-2.2-0.2-4.1,0.6-6c7-2.2,10.6-7.7,13.4-14.5c5.5,2.1,10.8,1.7,16.1-1.3c2-1.1,3.9,0,3.4,2.9c-2.8,1.6-6.2,0.2-9.2,1
	c-1.7,0.4-1.5,3,0.3,3.1c2.9,0.2,5.8-0.4,7.9,2.6c0.4,1.6-0.3,3-1.5,4.4c-0.8,1-0.2,2.5,1,2.7c3.1,0.6,6,1.2,8.9,1.7
	c0.8,0.1,1.9-0.2,2.1-1c0.6-3.9,4.2-3.1,6.7-4.4c-0.2-2.4,2-5.1-1.4-7.2c-0.9-0.6-0.2-2.3,0.6-3.1c1.4-1.4,2.8-2.9,5.1-2.6
	c2.7,5.1,3.7,5.9,9.3,7.4c1.9,0.5,3.9,1.2,5.8,1.3c1.6,0.1,1.9,1.2,2.8,1.9c2.8,2.1,2.4,6.3,5.7,7.9c1.8-0.8,2.3-2.4,3-3.9
	c0.5-1.1,1.1-2.3,2.3-2.3c0.4,0,0.8,0,1.2-0.1c0.2-0.4,0.3-0.9,0.4-1.3c0.1-0.3,0.2-0.7,0.3-1c-0.1-0.1-0.2-0.2-0.2-0.3
	c-0.2-0.3-0.3-0.5-0.3-0.8c-0.5,0-1.1-0.1-1.6-0.3c0.2-1.9,1.9-2.9,1.1-5.1c-0.8-2.2,3.4-4.6,6.2-3.4c3,1.3,6,2.9,6.9,7.8
	c-1-0.2-1.9-0.3-2.8-0.2c-0.1,0.1-0.2,0.3-0.3,0.3c-0.4,0.2-0.8,0.5-1,0.9c0,0.1-0.1,0.3-0.1,0.4c0,0.1,0,0.2,0.1,0.3c0,0,0,0,0,0
	c0.5,0.4,1.1,0.8,1.6,1c0.8,0,1.5,0,2.3,0.1c1.2,0.2,2.4,0.3,2,2.2c-2.2,1.6-5.7-0.7-7.6,2.3c1.3,2.4,6,0.2,5.4,4.5
	c3.5-0.3,6.5-1.6,9.7,0.1c1.2,0.6,6.4-2.9,6.5-4.3c0.1-4.1,2.8-4.7,5.9-5.2c4.1-0.7,4.1-0.8,3.8-4.9c3.6-1.9,6.8,0.9,10.2,0.7
	c4.8-0.2,9.2,1.4,13.5,3.2c3.8,1.6,7.3,2,10.2,0.1c3.9,1.1,5.4,4.2,7.5,7.7c0.9,1.4,2.8,1.6,4,0.5c2.5-2.3,6.9-0.3,9-3.9
	c2.2-3.7,8.8-0.8,10.8-5.6c-1-2.5-3.6-1.2-5.1-3.2c2.3-4.5,6.7-5,11-5.4c4.5-0.4,8.4,1,11.9,3.3c0.4,2-2,2.6-1.4,4.4
	c0.5,1.1,1.6,1.7,2.7,2.1c1.9,0.7,3.3,1.2,4.1,3.7c0.7,2.3,3,1.7,4.3,0c1.4-2,3.5-3,5.2-4.3c3.3,1.3,6.6,2.1,7.3,6.2
	c0.3,1.4,1.8,2.3,3.8,2.4c-0.2-2.9,3.2-3.5,4-6.6c-2-1.6-2.3-3.6-0.6-6.1c1.9-2.8,4.2-2,6.6-1.6c9.5,1.6,18.6,4.9,28.9,5.7
	c-1.4,1.3-3.7,1.1-3,3.4c1.7,1.5,4.6,0.3,6.7,1.9c-2.4,1.4-5.4-0.3-7.1,2.3c3.5,4.5,8.7,4.2,13.1,4.3c5.2,0.2,8.5-4.5,8.4-10.4
	c0-1.4,0.7-2.1,1.7-2.8c3.1-2.1,6.5-2.4,10-1.2c2.4,0.8,4.6,1.3,7.3,0.7c4.8-1.1,8.6,1.3,10.6,6c0.9,2.2,2.5,3.9,3.2,6.2
	c0.4,1.4,1.8,1.9,3.2,1.9c1.6,0,2.3-1.2,2.7-2.5c0.3-0.8,0.4-1.6,0.8-2.4c1.6-3.2,3.9-3.7,6.7-1.3c1.4,1.2,2.9,1,4.5,1.3
	c4.9,1.1,10.7-1.7,14.3,3.4c1.8-0.8,2-2.2,2.3-3.5c1-3.7,2.5-7.2,2.9-11.1c0.2-1.5,0.6-3.1,2.5-3.3c1.8-0.1,2.7,1.3,3.4,2.8
	c0.1,0.3,0.3,0.8,0.4,1.1c0.7,3.5,3.3,4.3,6.5,4.4c2.8,0.1,5.7,0.1,8.5-0.2c2.3-0.2,4.7-0.5,7.2,0.2c-0.9,2-3.3,2.1-2.9,5
	c5,0,7.7,5.3,12.9,5.8c-0.9,1.6-3.5,1.1-2.9,3.4c6,2.7,13.6,2.2,16-1.1c-2.1-1.8-4.8,0-7.1-1.1c0.6-2.1,4-0.1,3.9-2.8
	c-0.8-1.9-3.3-0.7-4.2-2.4c0.1-1.3,0.2-2.9,1.6-3.4c2-0.7,0.4-2.7,1.6-3.7c1.9-0.1,2.8,0.9,2.9,2.7c0.1,3.9,1.9,6.8,4.7,9.5
	c2.9,2.9,11.7,3.2,13-0.5c1.1-3.1,2.9-3.9,5.2-4.5c0.3-1.9-2.1-2.5-1-4.8c3.8-0.2,8.7-1.9,11.7-0.1c4.1,2.3,9.1,3.6,12,7.6
	c-0.3,2.1-3.1,1.7-3.2,4.1c3.8,0.8,5,3.3,5.4,7.2c0.2,2.1,4.3-3.4,8.6-6.4c-1.8-3.5-1.6-6.7,0.1-10c2.4-4.6,6.8-6.8,10.9-9.1
	c3.2-1.8,6.3-0.1,7.2,3.6c0.4,1.6,0.1,3.4,0.5,4.9c2.7,10,1.9,20.1,1.5,30.2c-0.2,4.6-1.2,5.3-5.7,5.9c-4.5,0.6-5.5,2.1-3.4,6.3
	c1.6,3.1,1.1,5.3-0.9,8.2c-2.9,4.1-4.9,8.7-2,14c1.2,2.2,1.3,4.3-1.4,6c-2.2,1.4-1.8,3,0.2,4.8c4.5,4.2,4.4,7.7-0.1,11.5
	c-1.2,1.1-2.4,2-1.3,3.7c1,1.5,2.4,1.6,4,1c1.5-0.7,3.1-1.6,4.6,0c1.8,1.9,4.1,2.9,6.4,3.7c3,1.1,3.6,3.1,2.8,5.9
	c-0.2,0.8-0.3,1.6-0.5,2.4c-1,4.5-0.2,7.9,4.1,10.7c3.5,2.3,4,7.3,6.9,10.3c0.2,0.3,0,1,0,1.5c0.3,4.4,0.5,4.6,5,5
	c2.1,0.2,4.3,0,5.4,2.7c-2.5,2.3-6.4,2.3-8.2,5.6c2.5,2.1,5.6,1.3,8.2,2c1.3,0.4,2.6,0.8,2.7,2.5c0.2,1.7-0.4,3.1-2.4,3.8
	c-1,0.4-1.9,1-2.8,1.6c-1.2,0.9-3.3,1.4-2.9,3.5c0.5,2.1,2.2,2.7,4.2,2.8c1,0,2,0,3-0.3c4.7-1.4,9.6-0.3,14.4-0.7
	c1.8-0.1,4.1-0.2,5.2,2.4c-3,2.5-6.8,2.6-10.1,3.9c-3.2,1.3-7.6-0.5-10.3,3.2c1.9,3.4,5,3.5,8,3.5c8.2-0.1,16.2,1.7,24.4,2.3
	c1.8,0.1,3.5,0.4,3.6,2.6c0.1,1.9-1.4,2.9-3.1,3.4c-1.9,0.5-3.9,1.1-5.8,1.3c-3.8,0.5-7.6,0.6-11.4,1.1c-3.5,0.5-7.3,0.4-10,3.7
	c1.9,3.3,5,3.5,8,3.6c5.8,0.2,11.7,0.1,17.5,0c8.3,0,16.6,0.3,24.9,1.2c1.5,0.2,3.2,0,3.4,2.1c0.3,2.1-1.2,2.9-2.9,3.4
	c-2.4,0.7-4.7,1.6-7.2,2.1c-3.7,0.8-6.7,2.7-9.3,5.5c1.6,3.8,4.9,4.3,8.2,4.7c14.1,1.5,28.1,3,42.3,3.4c13,0.3,25.9,1.3,38.9,2
	c2.6,0.2,5.1,0.7,7.8,1.9c-3.1,2.3-4.3,2.8-8.4,2.8c-21.5,0.5-43,0.7-64.3,3.2c-4.1,0.5-8.2,1.2-12.1,2.7c-1.5,0.6-3.1,1.7-2.7,3.7
	c0.4,1.9,2.1,2.8,3.8,2.6c4.4-0.6,8.6,0.8,12.9,0.8c12.7,0.1,25.3,0.3,38,0.4c3.8,0,6.9,1.8,9.5,3.9c2.9,2.4,3.3,6.4,2.3,9.7
	c-0.9,3.1-4,4.2-7.2,4.2c-0.7,0-1.3-0.1-2-0.1c-8,0.2-16,0.3-24,0.6c-3.3,0.1-5.7,2.2-5.1,4.2c0.8,2.6,3.1,3.2,5.6,3.2
	c0.5,0,1-0.1,1.5-0.2c16.8-2.2,33.6-4,50.7-1.9c12.5,1.5,25.2,1.9,37.9,0.5c4.3-0.5,8.7-0.3,13-0.7c1.6-0.1,3.7-0.4,3.8-2.5
	c0.1-2.2-2.1-2.3-3.6-2.6c-3.4-0.6-6.9-0.9-10.4-1.5c-6.4-1.1-12.9-1.9-19-3.8c-7.9-2.4-15.2-6.5-22.5-10.3c-2-1-3.5-2.4-2.8-4.6
	c0.7-2,2.7-1.6,4.3-1.2c2.4,0.5,4.9,1.2,7.3,1.7c4.1,0.9,8.2,1.7,12.4,1.7c30-0.1,59.9-1.4,89.8-3c4.5-0.2,8.9-1.1,13.4-1.2
	c1.7,0,3.8-0.3,4.2-2.7c-0.7-2-2.6-2-4.2-2.1c-3.2,0-6.3-0.8-9.4-0.9c-17.3-0.3-34.6-1.3-51.8-2.7c-11.1-0.9-22.3-0.7-33.3-2.7
	c-1.7-0.3-3.7-0.1-4.5-2.2c0.5-1.3,1.5-1.8,2.5-1.6c4.4,0.7,8.8-0.4,13.3-0.3c6.9,0.1,13.8,0.3,20.7-0.1c15.8-0.9,31.5-2.6,47.2-4.1
	c4.8-0.5,9.6-1.2,14.1-2.9c1.5-0.5,2.8-1.3,2.6-3.2c-0.2-2-1.3-2.9-3.2-3.2c-0.5-0.1-1-0.1-1.5-0.1c-2.5-0.1-3.7-1.5-3.5-3.9
	c0.2-2.3,1.9-2.9,3.9-2.8c3.2,0.1,6.3-0.3,9.3-1.6c3.7-1.6,7.5-2.7,11.6-1.3c1.2,0.4,2.4,0.3,3.3-0.6c3.6-3.7,7.8-2.9,12.2-1.9
	c4.5,1,8.9,2.6,13.6,2.9c13,1,25.9,1.7,38.9,2.5c2.6,0.2,5.2,0.6,7,3c-1.8,2-3.9,1.7-5.8,1.7c-16.8,0.5-33.6,0.8-50.4,1.5
	c-8,0.3-15.9,1.3-23.9,2c-1.7,0.2-3.3,0.6-3.4,2.9c1.5,2.2,3.8,2.6,6.1,2.7c18.3,0.9,36.6,1.5,54.9,2.3c21.5,0.9,42.9,1.8,64.3,3.6
	c2.8,0.2,5.6,0.6,7.3,3.2c-2.3,2.7-2.6,3.1-5.6,3.2c-5.2,0.2-10.5,0.6-15.7,1.3c-6.6,0.9-13.2,1.8-19.9,1.7
	c-6.5-0.1-13,0.7-19.4,1.8c-1.9,0.3-4,0.3-5,2.4c1,1.8,2.7,1.7,4.1,1.8c8.1,0.6,16.3,1.2,24.4,1.7c2.2,0.1,4.4,0,6.5,0.3
	c12.3,1.8,24.7,2.8,37.1,3.5c5.3,0.3,11,1.9,15.4-4.4c2.8,6.3,9.5,6.6,13.5,11.4c-4.4,2.5-8.9,3.3-13.2,4.2c-10.1,2-20,4.9-30.2,6.3
	c-1.9,0.3-4.5,0.4-4.3,3c0.2,2.6,2.9,2.4,4.7,2.6c3.5,0.4,7,0.2,10.5,0.7c17.1,2.8,34.4,3.6,51.5,5.4c11.1,1.2,22.2,2.4,33.2,3.5
	c3.2,0.3,5.2,2.4,7.4,4.4c-1.2,3-3.7,3.7-6.1,4.1c-8.9,1.3-17.8,2.3-26.7,3.5c-8.2,1.1-16.5,1.5-24.6,3.5c-1.8,0.4-3.6,0.9-4.8,3.4
	c3.7,4.3,9.2,4.5,13.6,5.1c12.8,1.6,25.7,3.2,38.6,4.4c16.6,1.6,33.2,3,49.8,2.9c8.2,0,16.3-1.2,24.5-0.2c15,1.9,30.2,1.6,45.3,1.8
	c6.2,0.1,12.3,0.5,18.4,1c5.3,0.4,6.8,1.9,7.1,6c0.3,4.5-1.2,6.5-5.8,7.9c-5.8,1.7-11.8,2.5-17.7,2.7c-32.6,1.2-65.3,1-97.9,1.1
	c-9.9,0-14.2,4-8.8,8.5c4.1,3.4,48.3,7.3,65.9,6.8c16.8-0.5,33.6-0.4,50.4-1c13.5-0.4,27-0.2,40.5-0.6c11.1-0.4,22.3-1.3,33.4-2.1
	c2.5-0.2,5-0.4,7.3-1.6c2.1-1.1,2-2.5,0.2-3.9c-1.6-1.3-3.7-1.5-5.7-1.7c-7-0.6-13.7-2.9-20.5-4.2c-3.2-0.6-5-2.2-5.4-5.5
	c-0.3-2.5-1-4.9-1-7.4c0.1-3.7,3-6.6,6.6-6.9c3.4-0.3,6.9-0.2,10.3-0.8c9.5-1.6,19.1-2.7,28.7-3.9c13.5-1.7,27.1-3.3,40.5-5.7
	c2.5-0.4,4.7-1.2,4.3-4.3c-0.3-2.9-2.5-3.1-4.8-3c-4.2,0.3-8.4,0.1-12.4,0.8c-5.4,1-10.1-0.4-15-2.4c-4.3-1.8-8.3-4.3-13.1-4.6
	c-1.7-0.1-2.7-1.2-2.9-2.9c-0.2-1.8,0.5-3.4,2.1-4.2c1.3-0.7,2.8-1,4.2-1.4c11.6-3.5,23.6-3.7,35.6-4.2c1.3,0,2.9,0.2,3.9-0.4
	c6.4-3.9,13.6-3.9,20.7-4.6c1-0.1,2-0.1,3-0.3c1.5-0.3,2.1-1.5,2.2-2.9c0.1-1.5-0.4-3-1.9-3.1c-4.4-0.5-7.8-3.9-12.2-4.3
	c-4.2-0.3-6.6-2.6-7.4-6.7c1.6-2.6,4.1-4,7.2-5.1c3.5-1.3,7.3-2.2,11-2.4c4.7-0.3,9.2-1.6,13.8-2.7c2.3-0.5,4-2.2,4.2-4.5
	c0.2-2.6-2.2-3.4-4.4-4c-2.9-0.8-6-0.7-8.9-1.1c-2.3-0.3-4.7-0.5-5.5-3.4c2.2-2.8,4.9-4.3,8.5-4.5c3.6-0.2,7.3-0.5,10.9-1.3
	c4.7-1,5.9-3.4,4.8-7c-0.8-2.6-1.4-4.4-4.2-5.4c-3.1-1.1-3.3-2.4-1-4.6c3.3-3.1,7.1-5.5,9.3-9.4c3.2-5.8,1.5-9.2,7.8-11
	c1.3-0.4,2.6-0.6,3.8-1.1c1.8-0.7,4.3-2.1,2.9-4.3c-2.6-4.1-11,1.6-13.4-2.2c-0.9-1.4,0.7-2.3,1.6-2.7c3.5-1.8,7.2-3.1,11-4.1
	c3.8-1,5-3.5,3.8-7.1c-1.3-4.1-1.3-4.4,2.8-5.5c1.9-0.5,3.9-1,3.7-3.2c-0.3-3.7,0.7-6.8,3.3-9.5c0.5-0.5,0.6-1.6,0.6-2.4
	c0-4.2,2.2-8.3,0.5-12.6c-0.6-1.5,0.2-3.3,0.9-4.8c1.6-3.5,2.9-7.2,5-10.3c2.2-3.3,2.3-6.5,1.4-10c-0.6-2.3-1.2-4.7,0.2-6.8
	c1.6-2.5,2-5.7,4.2-7.9c1.1-1.1,1.4-2.7,0.7-4.2c-1.4-2.9-0.9-5.7,0-8.7c1.7-5.7-1-10-6.9-11.5c-1.4-0.4-2.9-0.7-4.3-1.3
	c-1.2-0.5-2.3-1.5-2.1-3.1c0.2-1.3,1.3-1.9,2.4-2.2c1.8-0.5,3.5-0.9,5.3-1.5c1.2-0.3,2.3-0.8,2.1-2.3c-0.2-1.4-1.4-1.8-2.6-1.9
	c-1.3-0.1-2.7-0.1-4,0c-2.7,0.2-5.3,0.6-8,0.6c-2.7,0-5.4-0.2-6.5-3.7c2.4-2,5-2.5,7.9-2c2.5,0.4,4.9,0.3,6.6-1.7
	c-0.5-1.4-1.5-1.8-2.4-2c-4.3-1.1-8.7-2.2-13-3.4c-5.2-1.3-7.6-4.9-7.8-10.3c-0.1-2.4-0.6-4.7-1.1-7c-1.4-6.3-0.3-12.2,2.7-17.6
	c2.3-4.3,2.1-8.1-0.8-11.9c-1.9-2.5-1.7-3.4,1.2-4.9c3.7-1.9,7.6-3.5,11.8-3.7c2-0.1,3.9-0.7,5.5-2c1.9-1.6,2.3-3.8,0.6-5.2
	c-2.2-1.9-3.9-4.2-7.1-5.3c-3.6-1.2-7.8-2.5-9.9-6.1c-4.7-7.9-5.2-16.6-2.2-25.1C1799.6,1027.9,1806.4,1018.4,1816.4,1011.4z
	 M152.6,1056.5c-0.1,0.2-0.7,1-0.8,1.2c-0.3,0.8-0.8,1.6-1.6,2c-0.3,0.2-0.7,0.2-1,0c-0.3-0.2-0.5-0.5-0.5-0.9
	c-0.1-0.8,0.1-1.7,0.6-2.4c0.6-0.7,1.4-1.1,2.2-1.4c0.2-0.1,0.6,0,0.8,0.1c0.2,0.1,0.4,0.4,0.5,0.6
	C152.8,1055.9,152.7,1056.3,152.6,1056.5z M151.6,1108.3c-0.3,0.5-0.9,0.6-1.4,0.4c-0.6-0.3-2.7-3.2-2.2-3.2c0.7,0,1.4,0.2,1.9,0.6
	c0.4,0.3,0.8,0.6,1.3,0.9C151.7,1107.2,151.8,1107.8,151.6,1108.3z M197,1120.6c0,1.5,2.1,1.4,2.5,2.7c-0.3,0.2-0.6,0.6-0.8,0.5
	c-5.4-0.8-11.1,1.3-16.7-2c2.5-2.3,5.7-2.1,8.4-3.5c1-0.5,1-2-0.1-2.4c-5-2.2-10.7-2.1-15.7-4.6c2.4-2.2,5.8-1.5,8.6-2.8
	c0.7-0.3,0.7-1.4-0.1-1.7c-5-1.8-9.8-3.4-14.8-5.2c1.9-3.2,7.2-2,7.2-3.1c0.1-0.8-2.4-0.8-3.5-1.3c-2.1-1-5.9,1.4-6.2-3.2
	c0-0.4-2.7-0.6-4.1-0.9c0.2-1.3,1.6-0.4,1.8-1.8c-0.9-1-2.9-0.2-3.9-1.5c5.7-2.5,11.7-2.2,17.7-2c2.8,0.1,5.6-0.3,8,1.8
	c1.1,1,2.9,0.3,4.4,0.6c2.8,0.5,5.7,1,5.6,5c0,2.1,2.9,2,3.7,4.2c-0.5,1.6-2.6,1.6-3,3.4c1,2.1,4.6,1.6,4.9,4.4
	c0.2,2.7-3.5,2.9-3.9,5.5c0.8,2.3,3.8,2,4.9,4.2C201.7,1119.5,198.4,1118.7,197,1120.6z M205.2,1069.6c0.5-3.9,2.5-10.2,2.9-10.3
	c0.6-0.1-0.7,6.8-1.2,10.7c-0.1,0.5-0.5,2.7-1.1,2.7C205.3,1072.7,205.1,1070.2,205.2,1069.6z M209.4,1102.5c0,0.6-0.5,1-1,1
	c-0.5,0-0.6-4.1-1.3-5.4c-0.3-0.6-1.8-4.9-1.2-5.1c0.5-0.1,1.1,0.2,1.2,0.7c0.3,1.4,1.4,2.5,1.9,3.9
	C209.7,1099.1,209.4,1100.8,209.4,1102.5z M319.9,1056.5c1.4-3.3,2.6-7.2,1.2-7.8c-7.1-5.8-4.5-10.9-4.5-16.8c0-6.7,6.1-10,9.6-14.6
	c2.8,4,2.6,8.9,3.9,13.2c1.1,3.6,1.7,7.4,2.6,11.1c0.6,2.5,0.6,7.5,0.8,8.6c0.6,5.2-0.6,10.3-3.1,14.5c-1.5,2.5-2,6.3-5.9,7.2
	c-4.4,0-15.8,2.9-16.4,1.6C307.5,1069.4,318.5,1059.9,319.9,1056.5z M223.7,1064.8c2.1-4.7,3.9-9.5,5.4-14.4c1.3-4.1,2.9-3.7,7-5.5
	c5.9-2.7,11.3,0.3,17-0.4c3.5-0.5,7.5-0.2,11.2-0.5c1-0.1,2.1-0.1,2.9-0.5c2.2-1.2,4.2-1.4,6-0.6c1.9,0.8,4.1,0.2,5.1-1.6
	c0.9-1.7,2-3.3,4-4.3c3.9,4.6,6.9,9.7,9.8,14.9c1.1,2,0.8,4.3-0.2,6.3c-2.2,4.3-5.1,8.1-8.8,11.3c-1.6,1.4-3.4,3.1-5.8,2.3
	c-4.9-1.7-7.5,0.8-9.7,5.6c-15.9-3.1-31.6,0.5-48.1,1.7C220.1,1073.5,221.8,1069.1,223.7,1064.8z M290.7,1124.8
	c-2.5,0.4-4.9,1-7.3,1.6c-0.3,0.1-0.5,0.4-0.9,0.9c3,2.9,7.7,1.5,10.8,4.8c-7.8,6.7-19.2,7.6-28.6,2.5c3.9-2.3,8.6-1.5,12.9-3.3
	c0.8-0.3,0.8-1.4,0.1-1.9c-3.2-1.8-7-0.6-9.7-3c1.7-2.8,5.7-2,8.2-4.9c-3.1-1.3-6-1.3-8.9-1.5c-11.1-0.6-22.3-0.6-33.4-2
	c-2.6-0.3-5.3-0.6-7.4-2.8c1-3.5,5.4-3,7.3-5.9c-3.1-3.7-8.9-3.5-11.8-7.4c0.5-1.8,3-1.5,3.6-3.6c-2.7-1.4-4.6-3.7-5.9-6.5
	c3.2-1,30.4-1.2,34-0.2c-0.7,0.4-1.4,0.7-2.1,0.8c-0.8,0.2-0.7,1.5,0.2,1.5c7.8,0.2,15.6-1.5,23.4,0.4c-2.1,0.4-4.2,0.9-6.3,1.3
	c-0.7,0.1-0.6,1.2,0.1,1.2c3.3,0,6.7-0.4,10.1,0.7c-1.7,1-3.4,0.9-5.2,0.9c-0.8,0-0.9,1.1-0.2,1.3c1.8,0.5,3.6,0.2,5.3,0.3
	c5.8,0.3,10.1,2.5,11.6,8.5c0.5,1.8,3.2,1.1,3.6,3.6c-0.1,1.1-1.9,1.7-2.3,3.4c-0.1,1,0.9,1.5,1.5,2.2
	C296,1121,294.9,1124.1,290.7,1124.8z M343.7,1135.2c-3.8,2.9-8.4,2.5-11.6,5c-0.5,1.6,1.7,1.6,1.2,3.4c-3.3,2.1-7.9,1.8-12.1,4.3
	c2.9,2.2,6.4,2.3,9.1,4.1c2.6,1.7,2.6,2.2-0.4,4.8c-1.9-6.2-7.9-6.1-12.8-8.5c2.5-2.6,6-2.5,8.8-4.1c0.7-0.4,0.6-1.3-0.1-1.7
	c-3-1.3-6.8-0.2-9.2-2.8c0.4-1.7,2.1-1.9,3.2-2.9c0.4-0.3,0.5-0.9,0.2-1.3c-0.9-1.4-3.3-1.3-3.8-3.2c0.4-1.9,2.2-2.2,3.6-2.9
	c0.6,3.7,3.3,3.3,5.7,3.6c0.6,0.1,0.8-0.7,0.3-0.9c-0.9-0.4-1.8-0.8-2.4-1.9c1.2-1.5,2.7-2.3,4.5-2.4c0.6,0,1,0.6,0.7,1.2
	c-0.2,0.3-0.3,0.7-0.1,1.3C333.3,1132.3,338.8,1132.2,343.7,1135.2z M344,1106.7c-3.4,0.4-3-1.4-1.8-3.8c-5.1-0.5-9.9-1.1-15.1-0.8
	c0.5,3,3.5,3.1,5,4.9c0.4,1.2-2,3,0.6,4c-0.4,1.7-2.8,1.1-3.1,3.1c3.3,1.1,6.7,2.2,10.5,3.4c-1.3,2-4,1.3-4.9,3.3
	c0.7,1.8,3.4,1.1,4.1,3.5c-3,0.8-5.6,2.8-8.8,3.3c-0.5,0.1-0.7-0.6-0.3-0.8c0.6-0.4,1.4-0.7,1.1-1.9c-3.9-0.6-8.2-0.3-12-2.3
	c0.7-1.7,2.3-1.6,3.8-2.3c0.7-0.3,0.6-1.5-0.2-1.6c-4.9-0.6-8.2-3.6-11.2-7c0.4-1.6,1.9-1.7,3.1-2.3c0.8-0.4,0.9-1.4,0.2-2
	c-1.5-1.3-3.4-2-4.5-3.3c-0.8-1.3,1.4-1.8,0-3.3h-15c5.3-1.6,10.8-2.4,16.1-3.3c3.9-0.7,8.7-1.7,12.5,1.5c2.1,1.8,5.1,2.4,7.1,1.5
	c4.5-2,8.2,1.3,12.2,0.4C344.8,1103.1,344.1,1104.9,344,1106.7z M1413.6,918c-5.1-0.2-4.8-18.8,0.5-18.6
	C1419.2,899.6,1419.1,918.2,1413.6,918z M1411.3,856.5c2,0,2.4,1.9,2.7,3.6c-0.2,1.6-0.2,3.6-2.4,3.7c-2.4,0.1-2.9-1.9-3-3.8
	C1408.7,858.3,1409.3,856.5,1411.3,856.5z M1364.6,921.9c0.1-1.7,0.3-3.6,2.2-4.1c2.2-0.6,2.7,1.3,3.4,2.8c0.5,1.1,1,2.1,2.7,2.3
	c1.6-1.5,0.9-3.2,1-4.8c0.1-1.8,0-3.9,2-4.7c1.8-0.7,3,1.1,4.3,1.9c0.8,0.5,1.4,1.4,2,2.2c2.9,3.3,3,3.4-0.3,6.1
	c-2.1,1.7-2.2,3.9-2.1,6.3c0.1,4.1,0,8.2,0,12.2c-7.6,1.9-13.1-1.3-14.6-8.2C1364.5,929.9,1364.5,925.9,1364.6,921.9z M1320,864.8
	c6.6,5.2-2.1,15.9-4.5,6.6C1314.9,868.9,1316.2,861.8,1320,864.8z M1220.5,870.3c0.2-1,1-1.7,2-2.1c3.3-1.2,9.9,4,9.5,7.4
	c0,0.3-0.1,0.7-0.2,1c-0.4,1.1-9.6,7.4-10.8,7.2c-2.1-0.3-2.4-2-2.6-4.1C1219,876.8,1219.7,873.6,1220.5,870.3z M1196.6,836.6
	c0.4-0.7,0.9-1.4,1.5-2.1c0.3-0.4,1.1-0.3,1.4,0c0,0,0.1,0.1,0.1,0.2c0.1,0.1,0.2,0.1,0.2,0.2c0.2-0.2,0.4-0.3,0.6-0.4
	c0.5-0.1,1,0.2,1.1,0.7c0.2,0.7,0.2,1.4,0.1,2.1c-0.2,1-0.9,1.9-1.8,2.4c-1,0.5-2.1,0.6-3.2,0.4c-0.4-0.1-0.7-0.5-0.7-1
	C1196,838.2,1196.2,837.3,1196.6,836.6z M1159.4,848.4c0.3-0.3,0.6-0.3,1-0.3c1.1,0.3,2.3,0.5,3.3,1.1c0.4,0.3,0.6,0.8,0.4,1.2
	c0.2-0.1,0.4-0.1,0.7,0c0.1,0,0.3-0.1,0.4-0.1c0.7,0,1.2,0.7,1.1,1.4c-0.1,0.5-0.5,0.7-1,0.9c-0.3,0.1-0.6,0.3-1,0.4
	c-0.3,0.1-0.6,0.1-0.9,0.1c-0.1,0.4-0.2,0.9-0.3,1.3c-0.2,0.6-0.9,0.9-1.5,0.6c-1-0.5-1.6-1.6-1.9-2.7c-0.3-1-0.4-2-0.6-3.1
	C1159.1,849,1159.1,848.7,1159.4,848.4z M1158.7,868.5c3.9,2.5,4.4,8.8,0.7,12.4C1156.1,876.3,1156,872.6,1158.7,868.5z
	 M1150.1,877.4c4.1,2.8,4.9,6.9,5.7,11c0.3,1.3-0.1,2.7-1.5,3.4c-1.4,0.7-2.5,0-3.6-0.9C1146.7,887.2,1146.3,881.9,1150.1,877.4z
	 M1131.2,835.7c0.8-1.7,2.2-1.7,3.8-1c1.1,0.5,2.2,0.7,3.3,1c1.6,0.6,2.6,1.6,2.3,3.4c-0.4,1.9-1.8,2.6-3.7,2.6
	c-1.4-0.4-3-0.3-4.3-1.1C1130.7,839.4,1130.4,837.6,1131.2,835.7z M1115.1,848.3c0.1-0.7,0.5-1.4,0.9-2c-0.1-1-0.2-2.1-0.3-3.1
	c-0.1-0.5,0.5-1,1-1c0.6,0,0.9,0.5,1,1c0.1,0.7,0.1,1.3,0.2,2c0.1,0,0.2,0.1,0.3,0.2c0.4,0.4,0.3,1,0,1.4c0,0.1-0.1,0.1-0.1,0.1
	c0.1,1.1,0.1,2.2,0.1,3.3c0,0.6-0.6,1.2-1.3,1c-0.6-0.2-1.2-0.6-1.6-1.2C1115.1,849.4,1115,848.8,1115.1,848.3z M1113.5,915.2
	c1.2-0.3,2-1,2.9-1.8c2.4-2.4,5.5-2.6,8.4-1.8c3.7,1,6.6,3.7,9.5,6.2c1.1,0.9,1.8,2.4,0.7,3.6c-3.4,3.6-6.5,7.6-11.2,9.7
	c-0.6,0.3-1.3,0.3-1.7,0.4c-1.9-0.2-3.5-0.5-4.8-1.7c-2.6-2.3-4.8-5.1-6.5-8.1C1108.8,918.3,1109.8,916.2,1113.5,915.2z
	 M1103.1,917.6c0.6,7.2-2.7,12.6-3.9,18.4c-0.3,1.6-1.7,3.2-3.6,2.7c-2-0.6-1.9-2.6-1.4-4.2c0.9-2.9,0.6-5.9,0.9-8.9
	c0.3-3.5,0.1-6.7-3.8-8.3c-1.2-0.5-2.2-1.9-1.8-3.3c0.7-2.1,2.2-3.8,4.5-4.2c1.4-0.3,3-0.1,4.5-0.2c3-0.2,4.3,1.4,4.6,4.1
	C1103.2,915.3,1103.1,917,1103.1,917.6z M1089.6,855.9c2.2-5,4.4-10,6.7-15c0.9-1.9,2.4-3.2,5.6-2.2c-1,8.4-4.1,15.2-11.1,19.9
	C1089.1,858.2,1089,857.2,1089.6,855.9z M1082.8,919.6c0.5,0.2,0.9,0.2,1.1,0.4c1.6,1.5,5.7,12,5.7,14.2c0.1,4,0.3,8,0.7,11.9
	c0.2,1.6,0.4,3.5,2.4,3.9c1.7,0.3,2.7-0.8,3.8-1.9c2.3-2.5,3.9-5.3,5.3-8.4c1.2-2.7,2.7-5.2,5.6-6.8c0.6,0.5,1.2,0.8,1.6,1.3
	c1.3,1.6,1.3,4.5,3.8,4.9c3.5,0.6,7,0.6,10.3-0.9c1.6-0.7,3.2-1.8,4.6-2.9c4.6-3.9,9-8,13.7-11.8c1.5-1.2,2.4-3,2.5-5
	c0.1-1,0.1-2.1,0.2-3.1c1.1-9.5,0.2-9,4.4-13.6c3.5,1.8,4.6,2.9,7.6,11.6c0.8,2.2,3.9,2.5,5,0.4c0.3-0.6,0.7-1.2,1.2-1.7
	c5.1,1.6,10,2.7,12.3,8.8c0.9,2.3,4,4,5.4,6.5c2.5-0.5,2.4-2.1,2.1-3.5c-0.8-3.5,1-5.1,4.2-5.3c2.4-0.2,4.4-0.7,4.3-3.6
	c0-2.1-2.9-4.1-5.7-3.6c-4.8,0.8-8.9-1.1-12.8-3.1c-3.9-2.1-3.9-6.5,0-8c4.3-1.7,3.9-4.4,3.2-7.6c-1-4.4-2.2-8.7-3.1-13.1
	c-0.9-4.3,0.3-5.5,4.7-5c5.4,0.6,5.7,0.9,6.6,6.5c0.2,1.5,0.5,3,1.7,4.1c2.7,2.5,3.3,5.7,3.1,9.1c-0.3,4.3,0.5,8.1,3.8,11.4
	c2.6,2.6,4.3,6,6.6,8.9c0.3,0.4,0.7,0.8,1,1.1c2.6,2,5.7,2.2,7,0.4c1.4-1.9,0.5-4.7-2.6-6.6c-9.6-5.8-12.8-22.2-7.8-31.2
	c1.8-3.3,4.7-5.8,6-9.6c0.7-2.1,3.7-2.7,6-3.2c1.9-0.4,2.8,0.9,3.3,2.4c0.9,2.7,1.8,5.3,1.2,8.8c-7.3-1.3-12.4,1.1-12.9,9.1
	c-0.2,3.7,1.3,5.4,5.6,6.3c1.5,0.3,2.5-1.4,1.6-2.6c-0.2-0.2-0.3-0.5-0.4-0.8c-0.5-1.7-0.6-3.3,0.8-4.6c1.4-1.3,2.8-0.6,4.1,0.2
	c2.4,1.5,4.8,3,7,4.7c2.7,2.1,3.2,5.7,1.5,9.5c-1.7,4-1.5,4.8,2.5,5.4c2.6,0.4,4.4,1.4,5.3,3.8c0.6,1.6,1.6,2.6,3.4,2.3
	c2.8-0.6,4,1,4.8,3.2c0.9,2.5,2.7,4.6,3.2,7.3c0.4,2.1,2,3.2,4.1,2.5c1.9-0.7,1.3-2.4,1-3.8c-0.7-3.2-1.9-6.3-3.3-9.3
	c-4.1-9.3-5.9-18.8,1.9-27.5c1.7-1.9,1.8-4.1,1.4-6.6c-0.5-2.8-1.1-5.9,1.7-8.1c2.1,0.8,1.8,2.5,1.8,3.9c0,2.6,1.4,3.7,3.8,3.4
	c3.4-0.4,6.5-0.2,9.2,2.5c1.1,1.1,2.9,0.4,4.4,0.5c4.4,0.5,6.2,2.2,7.3,6.9c-2.4,2-4.9,1.1-7.5,0.3c-6.2-2-14.5,0.7-18,6
	c-1.1,1.6-1.2,3.2-0.9,4.9c0.4,2.4,3,3.7,5.2,2.6c2-1.1,3.9-2.3,5.6-3.9c4.6-4,14.4-3.2,18.4,1.4c0.9,1,1.6,2,2.9,2.6
	c1.9,0.8,2.8,2.4,2.3,4.4c-0.4,1.5-1,1.6-4.6,1.3c-1.3-1.3,0.1-3.3-1.4-5c-2.4-0.7-4.2-0.1-4.5,3.1c-0.2,2.3-0.3,4.6,0.1,7
	c0.8,5.2-1.7,7.1-6.7,5.5c-1.6-0.5-2.9-1.6-4.7-1.7c-5-0.3-8.2,1.9-9.4,6.7c-0.5,2,1.5,3.8,3.4,3c1-0.4,1.9-1,2.8-1.7
	c2-1.6,3.8-1.6,5.9-0.2c1.2,0.8,2.7,1.4,4.1,1.8c1.3,0.4,3,0.6,3.8-0.4c4.3-5.5,12.1-6.7,15.5-13.3c1-1.9,3.2-3.4,5-4.8
	c2.8-2.1,5.9-1.6,8.4,1.3c0.6,0.7,1.4,1.3,2.3,1.7c2.1,0.8,4.1,0.2,5.4-1.3c1.3-1.5,0.3-3.1-0.8-4.5c-0.4-0.5-1-0.9-1.4-1.4
	c-1-1.2-2-2.5-0.5-3.9c1.4-1.4,2.9-1.3,4.4,0.2c2.4,2.5,4.7,5,5.7,8.6c0.8,3.1,0.2,5-2.9,5.5c-2.1,0.3-3.8,1-5.2,2.5
	c-1.7,1.8-2.1,4-0.4,5.8c2,2.3,3.4,4.9,4.9,7.5c2.1,3.5,4.4,4.8,6.2,3.5c2.8-1.8,1.6-4.3,0.8-6.7c-1.6-4.6-1-6.1,2.3-8.6
	c3.5-2.6,7.4-0.3,11.1-1.1c1.8-0.4,3.7,2.8,5,5c0.1,0.2-0.2,0.6-0.3,0.9c-1.5,0.7-2.4-0.7-3.5-1.2c-1.1-0.4-2.3-0.9-3.2,0.2
	c-1,1.1-1.1,2.6-0.1,3.7c5,5.6,5.4,12.5,5.8,19.5c0.2,3.4-0.5,6.4-2.4,8.9c-2.8,3.7-2.6,7-0.6,11.1c2.4,4.6,2.6,9.9,2.9,15.1
	c0.1,1.6,0.2,3.5-1.8,4.3c-1.9,0.7-3.1-0.7-4.2-1.9c-0.6-0.6-1.1-1.3-2.3-1.3c-1.9,0.7-2.2,2.3-1.2,3.9c2.2,3.5,3.8,7.4,6.6,10.5
	c1.9,2.1,3.2,2,4.3-0.7c2.1-5.1,3.4-10.4,4-15.9c0.8-7.1,2.8-14,5.2-20.8c0.7-1.9,1.5-3.7,3.6-4.5c1.7-0.6,2.5-2.2,3.3-3.6
	c1.4-2.5,1-5-1.1-6.1c-2.3-1.3-3.8-0.1-4.7,2c-1.1,2.4-3.2,1.9-5.5,1.8c-1-5.2,1.5-9.7,2.8-14.4c0.4-1.5,2.2-2.1,3.7-2.2
	c3.6-0.2,5.4-2.1,6-5.5c0.3-1.7,1-3.5,3-3.4c2.2,0.1,3.2,2.1,3.2,3.8c0.1,6.1,0.5,12.3-2.6,18c-1.8,3.4-3.1,7.1-2.4,11.6
	c3.1-1.4,3.2-4.4,5.2-5.9c1.8-1.3,3.1-2.1,5.3-0.8c2.4,1.4,5,2.5,7.6,3.7c0.2,2-1.1,3.5-1.4,5.3c-0.3,2.1-1.4,3.2-3.6,3.3
	c-1.8,0.1-3.2,0.9-3.5,2.9c-0.3,2,0.1,4,1.5,5.6c1.4,1.5,3.8,1.1,4.8-1.4c1.4-4,4.7-6.4,7.1-9.4c4.3-5.4,10-8.5,16.1-11.3
	c2-0.9,3.5-0.1,5.1,0.9c1.5,0.9,2.3,3,4.5,2.7c1.8-1.5,1.1-3.4,0.7-5.1c-1.1-5.2-0.3-10.3,0.7-15.4c0.2-1.3,0.3-2.9,2.1-2.9
	c1.5,0,1.8,1.3,2.1,2.4c1.9,6.2,3,12.6,3.3,19.1c0.1,2.2-1,3.3-3,4c-1.2,0.4-2.7-0.2-3.8,0.8c-0.7,1.2-0.5,2.5,0.4,3.2
	c3.5,2.8,3.5,7.4,5.5,11c0.9,1.7,1.8,4-0.3,5.4c-2.2,1.5-4,0-5.7-1.5c-3.8-3.5-7.2-7.4-8.9-12.4c-0.6-1.8-1.6-3.3-3.7-4
	c-2.3,0.8-3.3,2.4-2.7,5c1.4,5.8,3.7,10.8,8.6,14.6c5.8,4.5,8,11.3,9.7,18.1c3.9,15.6,3.8,31.6,3.1,47.6c-0.4,8.6-0.9,17.4-4.2,25.6
	c-1.2,2.9-3.5,5.1-6.4,6.2c-6.8,2.6-14.1,2.8-21.1,3.5c-9.3,0.8-18.6,0.7-28,1c-3.3,0.1-5.2-1-6.7-4.4c-3.5-7.7-5.6-15.8-8.1-23.9
	c-1.5-4.7-4-9.1-6.3-13.6c-6-11.6-14.4-21.5-23.2-30.9c-4-4.3-8.8-8-13.9-11.1c-2.5-1.6-5-3.4-7.5-4.9c-6.7-4-13.7-7.2-21.2-9.2
	c-10-2.6-20.2-1.8-30.3-2c-9.5-0.2-19-0.1-28.4,1c-2.8,0.3-5.4,1.2-8,2.3c-4.7,2.1-9.5,3.6-13.9,6.3c-4.8,3-9.5,5.9-14,9.3
	c-7.7,5.8-14.1,12.8-20.6,19.8c-7.2,7.8-12.3,16.9-16.2,26.7c-2.6,6.5-5.3,12.9-6.8,19.8c-0.4,2-1.6,3.2-3.6,3.7
	c-9.7,2.2-19.5,4.2-29.6,4.4c-3.2,0.1-4.1-1.4-4-4.3c0.3-6.8,1-13.6,1.6-20.4c0.8-9.6,1.4-19.3,1.6-28.9c0.2-16,0.9-32,0.3-47.9
	c-0.1-3.2-0.1-6.1-4.1-6.9c-1.8-0.4-2.8-1.9-3.4-3.4c-1.4-3.9-3.6-7.5-3.6-11.9c0-2.8-1.6-5-2.4-7.6c-0.5-1.4-0.5-3-1-4.4
	C1076,926.4,1077.4,922.3,1082.8,919.6z M1067.8,911c0.8-2.1,3-2.3,4.3-0.4c1.1,1.6,1.9,3.5,2.8,5.3c0.7,1.3,1,2.5,0,3.7
	c-1.1,1.3-2.6,1.4-4.1,0.8c-2.8-1-3.5-3.3-3.5-6.6C1067.3,913.2,1067.3,912,1067.8,911z M1061.2,897.3c1.6-0.2,2.4,0.8,2.6,2.2
	c-0.3,1.9-1,3.3-3.1,3.2c-1.5-0.1-2.6-0.9-2.7-2.4C1058,898.3,1059.4,897.5,1061.2,897.3z M1051.5,888.1c0.7,0,1.4,0.1,2.1,0.3
	c0.5-0.2,1-0.3,1.5-0.3c0.6,0,1.2,0.6,1,1.3c-0.1,0.4-0.3,0.7-0.5,1.1c0,0.1,0,0.1,0,0.2c0,0.7-0.4,1.3-1,1.7
	c-0.2,0.1-0.4,0.2-0.6,0.2c-0.3,0.1-0.6,0.2-0.9,0c-0.2,0-0.3-0.1-0.5-0.2c-0.8-0.4-1.2-1.2-1.5-2c-0.1-0.1-0.1-0.3,0-0.4
	c-0.3-0.2-0.5-0.5-0.5-0.9C1050.4,888.6,1050.9,888.1,1051.5,888.1z M1044.1,935.7c0.4-3,2.3-4.2,5.3-3.2c1.6,0.5,3,1.3,4.5,2
	c4,1.8,5.9,1.1,7.9-2.9c0.9-1.8,0.9-4.8,3.9-4.2c2.8,0.6,2.7,3.4,3,5.7c0.1,0.3,0,0.7,0,1c0.1,5.6-2.3,7.5-7.3,5.2
	c-4.2-1.9-7.8-0.8-11.3,1.2C1046.5,942.5,1043.5,939.7,1044.1,935.7z M1045.4,960.4c1.5-4.3,3.7-9.3,9.3-10.8c1.3-0.4,2.5-1.1,3.7,0
	c1.1,1.1,1.5,2.6,0.9,4.1c-0.5,1.2-1.2,2.3-2.3,3.2c-2.3,1.9-3.8,4.5-4.4,7.4c-0.8,3.5,4.2,5.2,5.7,1.9c3.9-8.3,7.2-16.5,12.4-23.4
	c1.6,0.4,2.3,0.7,2.5,1.4c2,8.9,7.5,16.6,9.5,25.6c0.4,1.6,1.1,3.1,1.2,4.8c1.7,29.8,0.9,59.5-0.1,89.3c-0.1,1.7-0.1,3.4-1.9,4.3
	c-2.1,1-3-0.8-4.1-1.9c-2.7-2.8-6.1-4.5-9.2-6.8c-2.2-1.6-3.6-3.3-3-6.2c0.6-3,0-5.6-3-7.2c-1.2-0.7-1.5-2.1-2-3.3
	c-1.4-3.2-3.5-3.7-6.3-1.6c-0.7,0.5-1.2,1.1-1.8,1.7c-1.1,1.2-2.5,1.7-4.1,1.2c-1.9-0.6-1.7-2.3-1.7-3.8c0-10.6,0-21.3,0.9-31.9
	c0.5-5.8,0.3-11.6,2.2-17.2c1.3-3.9,0.6-4.6-3.6-6.1c-1.5-0.6-2-1.7-2.2-3C1042.7,974.7,1043,967.2,1045.4,960.4z M1026.2,969.3
	c1,1.1,2.3,2,4,1.2c1.4-0.7,1.5-2.1,1.5-3.4c0.1-3.4,0.3-6.6,3.5-8.7c3.4,1.5,3.4,4.5,3.5,7.3c0.3,13.6,0.5,27.3,0.7,40.9
	c0.2,11-1.3,21.9-0.8,32.9c0.1,2.9-0.9,5-3.6,6.5c-2.4,1.3-4.9,2.9-7,5.2c-3.3-1-6.7-2-9.4,0.5c-1.8-0.6-2.2-1.7-2.2-2.9
	c-0.2-5-0.8-9.9-0.8-14.9c0.2-18.1,0.2-36.2-1.4-54.3c-0.6-7.1-0.6-14.3-1.5-21.4c-0.1-0.8,0-1.7,0.2-2.5c0.4-1.3,1.1-2.6,2.7-2.3
	c1.4,0.2,1.9,1.4,1.9,2.6c0.1,1.6-0.2,3.3-0.2,5c0,2.9,0.8,5.4,4.4,5.5C1023.9,966.5,1024.9,967.9,1026.2,969.3z M1006.4,889.3
	c2.2-3.6,4.6-7,9.5-7.2c1.8-0.1,3.3,0.3,3.8,2.3c0.4,1.8,0.1,3.5-1.8,4.2c-2.4,0.9-3.4,2.9-4.7,4.9c-1.3,2.1-3.1,3.6-5.8,2.1
	C1005,894.4,1004.6,892.3,1006.4,889.3z M1004.7,949.1c0-0.8,0.7-1.5,1.6-1.6c0.9-0.1,1.7,0.5,1.9,1.3c0.4,2.7,1.3,5.4-0.8,8.5
	C1004.4,954.7,1004.6,951.9,1004.7,949.1z M962.8,1027.1c1.4-1.8,3.6-1.6,4.3,0.5c1.6,5.1,2.3,10.4,2,15.7c-0.2,2.6-3.2,3.5-5.8,5.7
	c-1.3-6.7-1.3-12.5-1.8-18.3C961.4,1029.5,962,1028.2,962.8,1027.1z M963,1186.4c-1.4-0.1-2.7-0.9-2.4-2.5c0.3-1.9,1.9-2.5,3.7-2.2
	c1.3,0.3,2.6,0.7,2.6,2.4C966.2,1186,964.6,1186.5,963,1186.4z M968.5,1167.8c-1.7,0.4-2.9-0.9-2.8-2.6c0.2-2.7,1.9-3.6,4.7-3
	C971.2,1164.9,971.3,1167.1,968.5,1167.8z M975.2,1041.3c-0.4-7.6-0.6-15.3,0.1-22.9c0.6-5.8,1.7-11.5,2.7-17.2
	c1.1-6,0.7-6.4-5.4-4.8c-1.5-2.1-0.9-4,0.5-5.8c0.9-1.2,1.8-2.4,2.8-3.5c2.4-3.1,4.7-3,7.1,0.2c1.4,2,1.8,4.2,1.6,6.6
	c-0.2,2.3-0.5,4.6-0.5,7c0,1.8,0,3.8,2.4,4.3c1.7-0.7,1.8-2.3,2.3-3.7c1.8-5.3,5.4-9.5,8.4-14c2-3,5.5-3.2,8.5-3.2
	c2.9,0,3.3,2.9,3.5,5.3c0.9,9.9,0.5,19.9,0.6,29.9c0.1,7.3-2.3,14.1-3.4,21.1c-0.4,2.6-1.9,5.2-2.6,7.9c-0.7,2.8-3.8,3.3-6.7,4.8
	c-2.3-3.9-4.9-4.2-8.7-2.8C982.9,1052.7,975.6,1047.5,975.2,1041.3z M1005.5,1174.5c-0.2,1.4-2.1,1.6-3.4,1.4
	c-3.7-0.7-7.5-1.5-11.2-2.4c-1.1-0.3-2.2-1-2.2-2.4c0-1.1,0.8-1.7,1.6-2.4c0.6-0.4,1.3-0.6,2.1-0.9c1.3-0.5,1.4-2.4,0.2-3.1
	c-4.1-2.4-8.3-2.5-12.8-0.2c-2.1-1.1-1.9-2.9-1.9-4.5c-0.6-17.1-0.9-34.2,0.2-51.4c0.1-2.5,0.2-5,1.4-7.3c5.1-1.3,6.7,3.8,11.4,3.3
	c1.7-0.2,4.9-1.2,6.2-0.4c4.6,3,4.4,3.5,6.2,8.7c1.5,4.2,2.8,8.5,4.5,12.7c2.1,5.3,3.2,10.6,1.6,16.5c-1.5,5.3-2.1,10.8-4.7,15.7
	c-0.9,1.7-0.8,3.1,0.5,4.9C1007.5,1166.2,1006,1170.6,1005.5,1174.5z M1027,1185.4c-0.1,0.3-0.4,0.5-0.7,0.7
	c-2.7,1.9-14.1,1.2-17.4-1.3c4.6-5,2.4-12,5.3-17.6c0.3-0.5,0.3-1.5,0-1.9c-2.8-3.2-1.4-7-1.3-10.5c0.1-7.3,0.3-14.6,0.2-21.9
	c-0.1-8,0-15.9,0.8-23.9c0.3-2.4,1.2-3.6,3.6-3.8c2-0.1,4-0.7,5.9-0.8c3-0.1,5.6-0.8,7.1-3.5c11.4,3.2,9.9,0.9,9.8,12.4
	c-0.1,15-0.4,30-0.9,44.9c-0.2,4.9-1.4,9.8-2.3,14.7c-0.5,2.9-2.4,5.1-4.6,6.9C1030.6,1181.6,1028,1182.7,1027,1185.4z M1064,1256.3
	c-1.7,0.2-2.4-1-2.5-2.4c-0.1-1.8,0.9-2.8,2.6-3c1.6-0.1,2.4,0.9,2.7,2.4C1066.5,1254.9,1065.7,1256.1,1064,1256.3z M1087.5,1241.9
	c-1.6,1.9-4,3-6.7,2.6c-2.4-0.3-3-2.9-1.3-4.9c2.8-3.2,2.8-3.3-1.2-4.9c-1.5-0.6-2.6-1.5-2.4-3.3c0.2-1.7,2.1-2.7,4.2-2.4
	c4.5,0,6.9,2.8,8.6,6.4C1089.9,1237.8,1089,1240.2,1087.5,1241.9z M1123.9,1267.7c-4.6,1.5-9.4,1.8-14.1,0.2
	c-1.3-0.5-2.1-1.5-2.5-3.1c1.2-1.9,2.9-2.2,4.5-2.4c3.3-0.5,6.6-0.6,9.8-1.5c2-0.5,4-0.2,4.9,2.2
	C1127.3,1265.6,1125.8,1267.1,1123.9,1267.7z M1130.9,1316.9c-1.4-0.1-2.6-0.6-3.1-2c-0.4-1.2-0.3-2.2,0.6-3.2
	c1.6-1.8,9.6-4.8,12.9-4.6C1140.7,1311.6,1134.7,1317.1,1130.9,1316.9z M1172,1280.6c-0.3,2.2-2.2,2.8-4.1,2.8
	c-2.8-0.1-5.6-0.5-8.5-0.2c-2.6,0.3-3.8,1.4-4.1,4c-0.9,6.8-0.1,13.2,3.3,19.3c0.8,1.5,0.9,1.5,0.2,4.2
	c-8.7-6.4-10.3-15.5-11.4-24.8c-0.4-3.4,0.8-6.6,4.4-8.2c1.7-0.8,3-2.1,4.3-3.4c1.6-1.6,3.2-1.9,4.8-0.4c2.2,2.1,4.6,3.1,7.6,3.3
	C1170.3,1277.4,1172.3,1278.2,1172,1280.6z M1198.2,1300.8c-2.2-0.7-2.9-2.5-1.8-4.7c1.1-2.2,6.4-5,8.8-4.7c1.6,0.2,2.2,1.3,2.3,2.7
	C1207.6,1296.9,1200.9,1301.6,1198.2,1300.8z M1237.2,1282c4.6-2.7,10.9-1.7,14.8,2.5C1246.1,1287.9,1240.2,1286.8,1237.2,1282z
	 M1273,1282.4c-0.5,0.1-1,0.1-1.2,0.1c-8.9-0.9-16.9-3.2-24-8.2c-1.2-0.8-2.1-2.1-3-3.3c-1-1.3-1.5-2.8,0-4c1.4-1,3.3-1.6,4.4,0.1
	c2.1,3.3,5.4,3.4,8.7,4c5.2,0.9,10.4,2,15.6,3.2c2.2,0.5,4.9,0.4,5.2,3.6C1278.9,1280.1,1276.4,1281.9,1273,1282.4z M1310.9,1267.1
	c-2.3,0.3-3.2-1.3-3.2-3.4c-0.1-1.8,0.3-3.5,2.5-3.5c2.3,0,3.3,1.8,4.1,3.6C1314,1266,1312.5,1266.9,1310.9,1267.1z M1347.5,1237.4
	c-1,0.8-2.1,0.6-3.3,0.1c-2.9-1.2-4.8-3.9-4.5-6.4c0.3-1.5,0.5-3,2.2-3.6c1.7-0.6,2.7,0.4,3.8,1.6c1.3,1.5,2.4,3.2,2.8,5.1
	C1348.8,1235.5,1348.5,1236.6,1347.5,1237.4z M1384.6,1230.3c-3.6,0.2-6.9,0.7-9.3,3.8c-0.7,0.9-2,1.2-3.2,1.3
	c-4.8,0.4-8.4,2.8-11.1,6.7c-1.1,1.7-2.7,3.7-4.8,1.7c-2-1.9-0.8-3.8,1-5.6c4.2-4,8.8-7.7,14.1-10.2c2.4-1.1,4-2.6,4.4-5.5
	c0.4-2.6,2.5-3.6,4.2-1.9c1.9,1.9,4.1,2.6,6.5,3.2c1.4,0.3,2.4,1.2,2.4,2.5C1388.3,1229.1,1386.8,1230.2,1384.6,1230.3z
	 M1399.6,1256.6c-1.7,0.2-2.3-1-2.4-2.4c-0.2-2,0.9-3.1,2.8-3.2c1.5-0.1,2.3,0.8,2.7,2.2C1402.2,1254.9,1401.5,1256.3,1399.6,1256.6
	z M1407,1235.4c-2.8-1.1-3.5-3-2.7-6c0.7-2.5-0.6-4.2-3.4-4.3c-1.3,0-2.7,0.2-3.7-1.3c0-0.3-0.1-0.9,0.2-1.2c2.9-3.8,3-3.8-0.4-7.6
	c-1.3-1.5-1-2.9,0.1-4c1.9-1.8,2.9-4.3,5-6.1c2.9-2.5,3.6-6.6,2-9.1c-2-3.2-5.3-4.5-8.9-4.6c-1.5-0.1-3,0.5-3.5,2.3
	c0.8,2,2.8,2.1,4.5,2.8c1.4,0.6,3,1.1,2.9,3c-0.1,2.1-1.8,2.5-3.5,3c-2,0.6-4.4-0.1-6.1,1.6c0.1,7.1-0.9,8.3-8.5,9.1
	c-3.1,0.3-5.5,1.5-6.4,4.6c-0.8,2.8-2.9,4.4-5.1,5.8c-2.5,1.5-5.2,0.5-5.9-2.3c-0.4-1.5-0.5-3-2.1-3.7c-1.7-0.8-2.3-2.1-2.1-4.1
	c0.2-1.6-0.6-2.8-2.4-2c-4,1.6-5.1,7.1-2.2,10.4c1.6,1.9,4,3.6,2,6.4c-1.2,1.7-3.3,0.4-6.7-2.3c-6.9-5.5-9.5-12.7-10-21.3
	c-0.4-6.9-0.7-14-2.6-20.8c-0.1-0.5-0.2-1-0.4-1.4c-0.4-1.8-2.6-2.5-4-1.3c-3.5,2.8-3.7,5.2-2.3,10.1c3,10.5,4,21.2,4.2,32.1
	c0,2.5-1.2,4.5-3.1,6c-2,1.6-2.7,3.1-0.9,5.4c2,2.5,1.6,5.3,0,7.9c-0.8,1.3-7.4,2.3-9,1.6c-1.8-0.8-2.3-2.2-1.9-4.1
	c0.3-1.3,1.9-2,1.3-4.2c-4-0.4-7.9,3.3-12.1,1.5c-0.4-0.6-0.2-1.2,0.2-1.8c0.4-0.5,0.7-1.1,1-1.6c-0.3-2-2.3-2.4-3.2-3.8
	c-2.5-4-3.5-4-6.5-0.5c-0.4,0.5-0.7,1.1-1.1,1.7c1,2.6,4.3,3.8,4.3,7c0,0.4,0.9,1.1,1.4,1.2c3.3,0.4,3.7,2.2,2.6,4.9
	c-1,2.6,0.1,4.5,2.3,5.9c1.3,0.8,2.7,1.6,2,3.5c-0.7,1.8-2.3,2.7-4,2.5c-4.8-0.7-9.5-1.8-14.1-2.9c-1.5-0.3-2.8-1.4-2.8-3.2
	c0-2,1.6-2.8,3.3-3.2c0.9-0.3,1.9-0.3,2.9-0.5c2.3-0.3,2.8-3.3,0.7-4.3c-3.4-1.6-6.6-3.1-10.4-1.7c-1.7-1.4-1.1-2.8-1.2-4.1
	c-0.1-1.2-0.1-2.4-2.2-3c-3.3,6.2-8.7,9.6-16,10c-0.3-0.2-0.7-0.4-0.7-0.7c-0.9-2.7-2.5-4.8-5.4-3.4c-2.6,1.2-2.7,4.1-1.6,6.6
	c1.1,2.7,1.1,5.2,0,7.4c2.6,5.5,8.5,5.8,12.4,9c1.3,1.1,3.2,0,4.8-0.6c3.7-1.4,7.4-1.7,11.3-0.9c1.3,0.3,2.8,0.7,2.6,2.4
	c-0.1,1.4-1.4,1.7-2.5,2c-9.2,2.4-18.3,2.4-27.3-0.7c-4.3-1.5-8.8-2-13.2-2.4c-5.9-0.5-11.5-1.9-16.6-4.8c-1-0.6-2-1.3-3.3-0.7
	c-1.5,1.1-0.7,2.4-0.4,3.6c0.3,1.5,0.8,3.2-1.1,3.8c-1.8,0.6-2.6-0.9-3.5-2.1c-2.6-4-5.4-5.1-9.1-3.7c-0.8,0.3-1.4,0.9-1.5,1.9
	c0.1,1.1,0.9,1.9,1.9,2c4.1,0.2,6.4,3.4,9,5.8c3.9,3.6,3.4,11-0.8,13.6c-1.2,0.8-2.6,1.7-4.2,0.7c-1.6-0.9-1.7-2.4-1.5-4
	c0.1-0.7,0.2-1.3,0.3-2c1-5.6-0.1-8.2-5.1-10.2c-3.3-1.3-6.4-2.8-9-5.2c-0.7-0.7-1.7-1-2.6-1.4c-1.2-0.5-2.3-0.5-3.1,0.7
	c-0.7,1.2-0.2,2.3,0.7,3.1c1.1,1,2.3,2.1,3.7,2.5c3.5,1.1,5.8,3.9,8.7,5.8c2.2,1.5,2.1,3.7,1.2,5.8c-0.9,2.4-8,5.5-10.4,4.7
	c-1-0.3-1.8-1-2.1-2c-0.3-1.1,0.4-1.9,1.3-2.5c1.6-1,4.3-1.1,3.9-3.8c-0.4-2.8-3-3.2-5.2-4c-1.4-0.5-2.8-1.2-4.1-1.9
	c-1.3-0.7-2.6-1.9-4.1-0.7c-1.1,0.9-1,2.3-0.9,3.7c0.4,3.3,0.7,6.6,1.1,9.9c0.2,1.8,0.8,3.8-1.4,4.8c-1.9,0.9-3.3-0.5-4.9-1.3
	c-5.1-2.6-8.4-6.3-9-12.2c-0.1-1.5-1.5-2.5-2.6-3.6c-2.2-2.2-2.3-4.3-0.6-7.1c3.1-5.1,2.1-6.7-3.8-7c-4.6-0.2-9.1-1.2-13.8,0.2
	c-4.5,1.3-5.3,2-4.3,6.5c0.6,2.8,1.8,5.7-1.7,7.4c-1.6,0.8-4-1.9-5.1-5.8c-2.4-7.9-3.3-8.6-11.5-8.8c-2.7-0.1-5.3,0-8-0.1
	c-2.1-0.1-4.3-0.2-6-2.4c2.5-2.6,5.5-2.3,8.4-2.3c7.5,0,15,0.1,22.5,0.5c4,0.2,7.5-1.4,11.2-2.2c1.3-0.3,1.9-1.2,2.3-2.4
	c0.3-1,0.8-1.9,1-2.8c0.5-2.1,3.5-3.4,2.5-5.7c-0.8-1.7-2.5-2.7-4.1-3.9c-0.9-0.6-2.1-0.3-2.5,0.8c-0.7,1.7-0.3,2.4,1,5.5
	c-0.3,1.4-1.6,2-2.4,3c-2.8,3.5-5.6,4-9.4,1.8c-1.7-1-3.5-1.8-5.5-2.4c-1.2-0.4-2.4-0.7-3.3,0.2c-2.6,2.8-6.1,2.4-9.3,2.6
	c-4.1,0.2-8.3-0.3-12.5,0.1c-3.3,0.3-4.5-2-2.8-4.9c2-3.5,5.3-4.3,9-4.3c1.3,0,2.6,0.4,3.9,0.7c2.4,0.5,4.3,0.2,6.2-1.8
	c2.3-2.5,5-4.7,9.1-4.1c2.3,0.4,3.9,1.3,5.5,2.9c1.9,2,4.4,1.9,5.5,0.2c1-1.5,0.3-4.7-1.5-5.7c-2.5-1.3-4.9-2.5-8-2.1
	c-4.3,0.6-8.4,2.1-12.7,2.8c-12,1.9-24.1,3.2-36.3,2.9c-1.5,0-3.2,0.3-4-1.3c-0.9-1.7-0.1-3.2,0.8-4.6c3.1-4.4,3.4-9.2,1.7-14.1
	c-1.2-3.4-1.1-6.9-1.3-10.4c-0.4-5-0.6-10-2.7-14.6c-0.6-1.3-0.5-2.6-0.5-3.9c-0.4-13.1-0.9-26.3-1.4-39.4c-0.1-2.7-0.1-5.5-1.6-8
	c-2.8,0.8-2.4,2.8-2.4,4.3c0.1,15-0.2,30,0.7,44.9c0.5,7.8,1.2,15.5,1.5,23.3c0,1.4,0.3,2.7,1,3.8c1.9,3.6,0.4,6.8-1.1,10
	c-0.9,1.8-7.4,3.4-9.1,2.4c-1.7-1.1-1.7-2.7-1.4-4.4c0.5-2.3,1.3-5.4-1.7-5.9c-3.1-0.4-3.2,3.2-3.1,5.2c0.4,9.9-4.9,17.3-10,24.9
	c-0.7,1-1.4,2.1-2.7,1.5c-1.6-0.7-1.5-2.2-0.9-3.4c1-2.1,2.3-4,3.5-6c0.4-0.7,1.2-1.3,1.3-2.1c0.5-2.2,2.6-4.8,0.3-6.5
	c-2.4-1.8-3.5,1.4-5.1,2.6c-1.8,1.5-3.5,3-5.4,4.4c-1.7,1.2-3.6,1.8-5.6,1.7c-1.6-0.1-3-0.7-3.3-2.4c-0.3-1.9,0.9-2.8,2.5-3.1
	c5.5-1,8.5-4.9,11.3-9.1c1.6-2.4,2-4.9-0.3-7.7c-3.1,0.9-4.5,3.1-6.1,5.2c-0.7,0.9-1.1,2.1-2,2.8c-1.2,1-2.5,2.4-4.4,1.6
	c-1.6-0.7-2-2.1-2.2-3.7c-0.4-4.5-1.2-8.9-0.9-13.4c0.2-2.4,0.3-5-1.8-7c-2.4,1.3-2.6,4-4.1,5.7c-0.6,0.8-1.2,1.7-2.4,1.5
	c-1.3-0.1-1.9-1.1-2.3-2.3c-0.5-1.5-0.5-3-0.2-4.5c1.2-6.8,2.9-13.4,7.7-18.6c5.7-6.3,6.3-14.2,6.9-21.9c1-13.3,1.9-26.5,2.2-39.9
	c0.1-4.1,1.4-8.2,1.4-12.3c0-2.2,1.1-2.9,3.4-3.3c3.2-0.6,0.9,5.7,2.4,5.6c4.8-0.2,5.2-10.5,10.3-10.1c3.8-3.9,3.6-9.7,8.8-11.9
	c0.9-0.4,2.1-0.7,2.6-1.4c3-4.4,7.5-3.5,11.7-3.4c7.8,0.2,15.6,0.5,23.5,0.8c3.2,0.1,6.4,0.7,9.2,2.1c4.8,2.3,9.9,3,15,3.1
	c3.4,0.1,6.6,0.9,9.7,2.2c2.1,0.9,3.7,2.2,3.3,5c-0.4,2.6-1.9,4.2-4.5,4.7c-1.1,0.2-2.3,0.2-3.5,0.3c-12.2,0.8-24.3-0.5-36.4-1.3
	c-1.8-0.1-3.7-0.2-5.5,0c-1.3,0.1-2.7,0.5-2.9,2.2c-0.2,1.6,0.7,2.5,2,3.2c2.4,1.2,4.8,2.3,7.5,2.7c3.3,0.4,6.6,1,9.4,3
	c0.5,0.4,1.2,0.7,1.8,0.7c5.8-0.2,11,2.6,16.5,3.6c4.4,0.8,7.6,3.6,12,4.6c8.4,1.9,16.7,2.3,25.3,1.8c8-0.5,15.9-1.4,23.7-2.7
	c3.6-0.6,6.9,0.3,10.2,1.5c2.4,0.8,4.1,2.8,4.2,5.1c0,2.5-2.6,3.1-4.7,3.7c-22.7,5.9-46,6.7-69.3,7.2c-1.5,0-3,0-4.5,0.2
	c-1.2,0.1-2.4,0.5-2.7,1.9c-0.3,1.4,0.7,2.2,1.8,2.7c4.6,2.2,9.4,4.1,14.2,5.7c1.1,0.4,2.4,0.4,3.4,0.9c8.1,4.3,16.7,3.8,25.4,2.9
	c13.6-1.4,26.9-4.6,40.4-6.1c2.3-0.3,4.6-0.7,7-0.4c1.8,0.3,3.2,0.9,3.5,3c0.3,1.9-0.8,3.7-2.5,4.5c-2.1,0.9-4.3,1.4-6.6,1.7
	c-1.4,0.2-2.8,0.6-2.8,2.3c0,1.8,1.4,2.6,3,2.7c1.8,0.1,3.7,0.3,5.5,0c7.6-1.3,15.3-0.2,22.9-0.3c3,0,6,0.3,8.3,3.1
	c-1.2,2.7-3.5,2.9-5.8,2.8c-9.7-0.3-19.3-0.7-28.9-1c-16-0.4-31.9-2.6-47.9-1c-4.1,0.4-5.4,1.2-5.6,4.1c-0.2,3.1,1.8,5.4,5.1,6
	c7.3,1.4,14.5,1.9,21.8,0.7c2.4-0.4,5-0.4,7.5-0.1c4.4,0.5,5.6,2.9,3.9,6.8c-2,4.8-1.3,6.9,3.2,9.3c4.2,2.2,8.4,3.5,13.3,3.6
	c10.1,0.3,20.2,1.7,30.4,0.2c3.1-0.5,5.7-1.6,7.7-3.8c1.2-1.2,0.7-3.2-0.9-3.8c-2.6-0.9-5.4-1.1-8.1-1c-6,0.2-11.9-0.8-17.9-1.4
	c-2.1-0.2-4.4-0.4-5.5-3.1c1.7-3.1,4.8-2.7,7.4-2.4c5.3,0.6,10.6,1,15.9,0.8c4.9-0.2,10,0.9,14.5-2.4c0.7-0.5,1.9-0.3,2.9-0.4
	c10.9-1.3,21.8-3,32.8-3.5c1.4-0.1,2.8-0.3,4.1-0.7c4.7-1.5,5.3-3.4,2.7-7.8c-3.2-5.3-1.4-9,4.6-10.1c3.9-0.7,7.9-1.4,11.8-2
	c3-0.4,5-1.8,5.3-5c-1-2.1-3-2.5-4.9-2.8c-4.9-0.7-9.8-1.2-14.9-0.5c-7.6,1.1-15.2,1.5-22.9,2.2c-0.6,0.1-1.3,0-1.9-0.1
	c-1.4-0.3-2.8-0.8-2.9-2.4c-0.1-1.6,1.2-2.2,2.6-2.5c4.6-0.9,9.2-2.7,13.7-2.6c9.3,0.3,17.5-3.3,26.1-5.8c5.2-1.5,10.4-2.3,15.7-2.6
	c5.2-0.3,10.2-1.4,15.3-2.1c1.4-0.2,2.7-0.6,2.7-2.3c0-1.8-1.3-2.5-3-2.6c-10.8-0.8-21.6-1.3-32.4,0.1c-7.6,1-14.9,3.2-22.4,4.5
	c-0.7,0.1-1.3,0.3-2,0.4c-6.1,1-7.2,0.1-6.9-5.9c-0.6-1.2-1.8-1.7-2.9-1.5c-3.7,0.9-6.8-0.8-10-2.1c-6.9-2.8-13.8-5.7-21.5-6
	c-0.7,0-1.3-0.2-1.9-0.4c-1.4-0.5-2.4-1.3-2.3-2.9c0.1-1.4,1.2-1.9,2.4-2.2c2.6-0.6,5.2-1,7.9-0.5c6.7,1.2,13.4,2.3,20.2,3.1
	c14.3,1.6,28.6,0.2,42.9-0.8c8.4-0.6,16.8-2,25.3-2.2c0.8,0,1.6-0.1,2.4-0.3c1.4-0.4,3.4-0.1,3.7-2.1c0.4-2.6-2-2.5-3.5-3.3
	c-1-0.5-2.1-0.9-3.2-1.2c-3.6-0.9-5.1-2.9-5-6.5c0.2-5.8,1.1-6.9,7-7.4c17.8-1.5,35.6-0.8,53.4,0.4c5.8,0.4,6.4,1.9,5.8,7.8
	c-0.9,7.8-0.6,15.6,1,23.3c0.8,3.8,0.5,7.6,0.6,11.4c0.1,9.5,1.3,18.9,0.9,28.4c-0.3,7.8,0,15.6-2.7,23.2c-1.1,3-0.9,6.1,0.2,9.3
	c2.2,6.3,2.3,12.8,0.4,19.2c-1.2,3.9-1.1,7.3,1,10.7c0.7,1.1,1.2,2.4,1.5,3.7c1.3,5.5,0.4,11.4,2.9,16.8
	C1410.8,1239.3,1409.2,1236.3,1407,1235.4z M1280.4,1250.7c0,2.6-2,4.1-6.1,4.5c-5.4,0.5-8.1-2.2-7.9-7.9c2.6-0.2,5.2-0.6,7.8-0.6
	C1278.2,1246.5,1280.4,1248,1280.4,1250.7z M1416.6,1252.3c-0.3,1.8-1.7,2.3-3.3,2.5c-2.3-0.4-2.7-2.2-2.7-4.1
	c0-1.5,0.8-2.5,2.5-2.5C1415,1248.2,1416.9,1250.5,1416.6,1252.3z M1709,899c2.6-0.1,6.6,3.9,6.5,6.5c0,2.6-2,3.9-4.3,2.9
	c-2.6-1.1-4.2-3.1-5-5.8C1705.6,900.4,1706.7,899.1,1709,899z M1704.7,918.1c3.9,0.2,7.9,0,11.1,3.2c2.6,2.6,6.3,1.7,9.5,1
	c1.5-0.3,1.5-2,2-3.2c1.2-3.2,1.6-6.7,3.6-9.5c1.6,0.3,1.7,1.3,1.8,2.3c0.7,8,1.4,15.9,2.1,23.9c0.1,0.7,0.1,1.3-0.1,2
	c-0.6,3-2.7,4-5,2c-1-0.9-1.9-1.8-2.8-2.9c-1.5-1.7-4.2-1.3-5.1,0.8c-0.8,1.9-1,3.8-1.1,5.7c-0.1,1.3,0.5,2.3,1.7,2.8
	c5.8,2.8,7.8,8.4,9.4,13.9c1.9,6.7,3,13.5,3.2,20.6c0.5,19.1,0.6,38.3,0.5,57.4c-0.1,7.8,0.1,15.7-2.6,23.2c-0.2,0.6-0.3,1.3-1.7,2
	c-3.7-5.2-10.4-5.5-15.5-8.5c-5.6-3.3-9.8-5-15.5,0.6c-0.9-6.1-1.8-11.1-2.2-16.1c-2-22.5-3.9-45-5.9-67.5c-0.7-7.3-0.4-14.6-0.3-22
	c0.1-7,3.9-10.6,10.7-10.9c2.4-0.1,4.4-0.7,5-3.2c0.6-2.3-1.1-3.9-2.8-4.8c-3.1-1.6-3.9-4.4-4.5-7.3
	C1699.4,920.3,1701.4,917.9,1704.7,918.1z M1697.2,859.7c1.6-0.1,2,1.4,2.2,2.6c-0.2,1.9-1.1,2.9-2.9,2.9c-1.5,0-2.7-0.7-2.6-2.3
	C1694.1,861,1695.4,859.7,1697.2,859.7z M1694,888.4c2.4,1.3,1.9,3.6,2,5.6c0.9,13.2-0.2,28-2.6,31.6
	C1689.6,920,1690,893.1,1694,888.4z M1671.8,858.5c1-0.6,1.9-0.3,2.6,0.5c1.6,1.8,0.9,4.3-1.7,6.5c-0.3-0.1-0.7-0.2-0.9-0.4
	C1670,862.5,1670,859.6,1671.8,858.5z M1669.8,909.8c0.5-5.5,1-10.9,1.7-16.3c0.3-1.9,1.1-4.3,3.6-4c2.6,0.3,2.3,2.9,2.4,4.8
	c0,0.3,0,0.7,0,1.5c-0.9,4.6-1.9,9.6-3,14.6c-0.3,1.3-1,2.6-2.7,2.4C1670.2,912.6,1669.7,911.1,1669.8,909.8z M1673.4,926.3
	c0.3-2.1,1.3-3.5,3.4-3.7c2.3-0.2,2.9,1.6,3.6,3.4c2.5,7.4,2.2,15.1,2.4,22.7c0.1,3.5-1.7,4.5-5.5,3.8c-0.6-0.1-1.3-0.3-1.9-0.2
	c-2.3,0.4-4.5,3.6-5.3,7c-0.5,2.1,1.6,3.7,3.6,2.9c1.8-0.8,3.5-1.3,5.5-1.1c4.3,0.2,5.8,1.4,6.6,5.8c0.9,5.1,1.2,10.2,1.6,15.3
	c1.4,22.6,1.7,45.2,2.3,67.9c0.2,6.8-2,13.1-2.9,19.6c-0.4,2.9-3.1,3.7-5.4,4.5c-3.4,1.2-6.9,1.1-10.4,0.5c-3.9-0.7-7.9-1.4-11.6-3
	c-3.5-1.5-6.1-4.5-7.5-8.1c-5.9-15.2-4.7-31-3.4-46.8c0.5-6.4,2.1-12.5,3.2-18.7c0.7-3.7,2.4-7.2,3.6-10.8
	c4.2-11.6,6.7-23.7,9.7-35.6c1-4.1,3.1-7.7,4.4-11.6C1670.8,935.6,1672.7,931.1,1673.4,926.3z M1664.4,900.9
	c0.5,0.8,0.7,1.9,0.6,2.9c-0.7,6.9,0.8,14-2,20.6c-0.2,0.5-0.3,1-0.3,1.5c-0.5,12.6-4.1,24.5-6.9,36.6c-1.1,4.7-2.9,9.1-3.9,13.8
	c-0.4,1.8-1.2,3.4-3,4.6c-3-1.9-3-4.5-3-7c-0.1-13.3,0.5-26.6,2.5-39.7c1.2-8,2.5-16,5.4-23.7c1.5-4,5.2-6.4,7-10.1
	C1661.4,898.8,1663.5,899.4,1664.4,900.9z M1663.3,877.4c0-1.4,0.6-2.5,2.2-2.6c2.1,0.3,3,1.5,2.9,3.4c-0.1,1.4-0.6,2.8-2.2,2.7
	C1664.2,880.7,1663.3,879.3,1663.3,877.4z M1656.6,781.8c2.4-1.3,5-2.4,6.9-3.3c2.5,0,4,0.4,4.8,2.2c0.7,1.5-0.1,2.5-1.2,3.4
	c-2.4,2-3.7,4.5-3.9,7.7c-0.1,0.9-0.6,1.9-1,2.8c-0.4,0.8-1.1,1.3-1.9,1.3c-1.2,0-1.8-0.8-2-1.9c-0.4-3.3-0.9-6.5-2.5-9.5
	C1655.3,783.6,1655.8,782.2,1656.6,781.8z M1652.6,878.3c0.1-1.8,0.8-3.5,2.8-3.3c2.1,0.1,4.9,0.3,5.2,2.9c0.7,6,2.4,12.1-0.9,18
	c-1.1,2-2.2,3.3-4.5,3.1c-2.5-0.2-3.1-2.1-3.1-4.3c0-1.8,0-3.6,0-5.5c-0.1,0-0.2,0-0.3,0C1652,885.5,1652.3,881.9,1652.6,878.3z
	 M1646,777.3c0.6-1.6,1.5-3.2,3.6-2.5c2,0.6,2.1,2.3,1.6,4c-0.2,0.6-0.4,1.2-0.7,1.8c-0.6,1.4-0.5,3.7-2.9,3.1
	c-1.9-0.5-2-2.3-2.2-4.2C1645.5,778.9,1645.7,778.1,1646,777.3z M1634.4,858.5c3,3.4,3.3,11.6,0.4,17.2
	C1630.5,871.3,1630.5,861.8,1634.4,858.5z M1625.9,853.1c0.1,2.8,0.4,5.6-2.1,8.2c-2.5-2.6-3.1-6.3-1.8-8.7c0.4-0.8,1-1.3,1.9-1.3
	C1625.1,851.4,1625.9,852.1,1625.9,853.1z M1609.7,775.9c0.6-0.8,1.5-1.1,2.2-0.5c3,2.3,5.7,4.9,7.9,8c1.6,2.1-1.2,4.6-3.1,3
	c-1.1-0.9-2.1-2-3.1-2.9c-1.6-1.4-2.6-3.4-3.8-5.1C1609.2,777.5,1609.1,776.6,1609.7,775.9z M1606.6,857.7c2.6,0.7,2.6,3,3,4.9
	c0,2.9-1.6,5.4-3.2,5c-2.5-0.7-2.9-2.9-3-5.1C1603.4,859.7,1605,857.3,1606.6,857.7z M1585.9,779.9c0.2-1.3-0.1-3.8,2.7-4.3
	c1.6-0.3,3.5,2.9,3.5,5.3c-0.1,2.3-1.2,3.9-3.6,3.7C1586.1,784.4,1585.6,782.7,1585.9,779.9z M1586,848c1.1,1,2.3,1.9,3.6,2.6
	c2.6,1.4,4.4-3.9,8,0.4c3,6.7,2.5,28.4-0.6,32.5c-0.4-0.2-1.1-0.2-1.3-0.5c-2.9-4.2-5.6-8.5-8.5-12.7c-1.4-2-1.6-3.9-0.1-6
	c1.8-2.7,1.5-5.4-0.6-7.7c-1.5-1.6-2.3-3.6-4-5.1c-1.2-1-2-2.4-0.4-3.8C1583.3,846.6,1584.8,846.9,1586,848z M1577.9,779.5
	c1.7,0,4.4,3.5,4.3,5.7c-0.2,1.4-1.2,2-2.8,1.9c-2.2-0.1-4.3-2.4-4.2-4.7C1575.3,780.7,1576.1,779.5,1577.9,779.5z M1576.8,935.4
	c4.2,4.8,9.4,6.4,15.4,6.9c5.6,0.4,10.3,2.3,12.1,8.6c0.6,2.2,2.8,4.1,4.4,6c9.7,11.4,17,24.4,23.9,37.6c0.5,0.9,1,2.5,1.1,3.6
	c1.6,13.4,3.4,26.8,2.4,40.3c-0.7,9.1-1.5,18.1-2,27c-1.6,1-2.5,0.2-3.5-0.5c-2.6-1.8-5.2-3.6-7.9-5.3c-2.5-1.7-4.9-1.9-7.3,0.3
	c-1.9,1.7-4.3,2.6-6.8,3c-5,0.8-9,3.3-12.8,6.4c-1.8,1.5-3.4,1.7-5.4,0.7c-2.5-1.3-5-1.3-7.8-0.8c-6.1,1.1-9.9-1.5-11.3-7.4
	c-4.2-17.7-3.2-35.7-3.7-53.7c-0.3-13.5,3.2-25.9,8.9-38c1-2.1,0.9-3.9,0-5.8c-0.6-1.2-2.4-1.4-3.2-0.3c-0.8,1-0.9,2.5-1.2,3.8
	c-0.3,1.2-0.7,2.4-2.2,2.2c-1.2-0.2-1.5-1.2-1.5-2.3c-0.1-2-0.4-4-0.2-6c1-8.3,1.5-16.6,3.3-24.7
	C1572.3,933,1574.2,932.3,1576.8,935.4z M1567.3,819.4c0.7-2.1-3.1-8.4,9.6-6.8c2.8,0.4-3.7,8-4.4,9.8c-0.8,1.9-2.5,3-4.4,2.1
	C1565.9,823.4,1566.7,821.5,1567.3,819.4z M1547.9,886.2c-2.1,11.9-4.3,23.8-6.4,35.5c-2.8,0.3-2.9-1.4-3.3-2.7
	c-1.7-6.3-0.3-12.6,1-18.7c0.8-3.8,2.6-7.5,4-11.2C1543.9,887.4,1544.7,885.7,1547.9,886.2z M1541.4,850.2c0.5,1.4,0.6,2.6-0.6,3.6
	c-1.1,0.8-2.2,0.6-3.2-0.2c-3.6-2.7-7.7-4.5-11.6-6.8c-1.7-1-2.2-2.5-1.6-4.3c0.5-1.5,1.9-1.7,3.3-1.6
	C1533.4,841.2,1539.6,845.4,1541.4,850.2z M1533.5,918.4c0.2,3.6-1.2,7.6-4.5,11.1c-1.4,1.5-2.6,3.2-4.9,2.5c-2.4-0.7-3.7-2.7-4-5.2
	c-0.3-2.2-0.1-4.4,0.7-6.4c1.2-3.1,2.6-6.1,4.3-8.9c1.5-2.6,5.3-2.3,7,0.2C1533.3,913.4,1533.7,915.2,1533.5,918.4z M1499.8,828.2
	c0.1-1.5,0.4-3.2,2.3-3.4c1.6-0.2,2.9,0.9,3.7,2.2c1.3,2.2,1.3,4.8,1.7,7.1c-0.1,2.2-0.2,4.5-2.6,5c-2.8,0.5-3.6-1.8-4.2-3.9
	C1499.9,832.8,1499.6,830.5,1499.8,828.2z M1497.7,867c0.2-0.4,0.5-0.9,0.7-1.3c1-1.6,1.1-4.3,3.7-4c2.1,0.2,2.4,2.5,3.1,4.1
	c2.1,5.2,3.6,10.6,4.1,16.3c0.1,0.8,0.1,1.7,0.1,2.5c-0.3,2.9-2.1,5.4-3.9,5c-2.7-0.6-2.7-3-2.8-5.2c0-1,0-2,0-3.1
	c0.5-3.1,0.2-5.5-3.4-7.1C1495.9,872.7,1495.7,870.4,1497.7,867z M1498.2,901.6c1.9,0.4,2.8,2.1,4,3.4c0.8,0.9,0.8,2.2-0.1,3.1
	c-1,1.1-2,0.5-3-0.3C1495.7,905.3,1495.5,904.4,1498.2,901.6z M1491.1,924.1c1.6-2.3,1.2-4.6,1.4-6.7c0.5-3.5,2.8-5.5,5.8-4
	c4.7,2.5,8.2,1.8,11-2.3c2.7,0.7,3.1,2.5,3,4.4c0,1.6,0,3.5-0.7,4.9c-2.7,5-1,9.7,0.7,14.4c0.4,1.1,0.9,2.2,1.1,3.3
	c0.6,3.3-0.3,4.5-3.7,4.9c-4.5,0.6-4.4,0.9-2.4,5.1c2.7,5.7,6,11.2,6.1,17.8c0,1.3,0.5,2.7-1.1,4.1c-2.2-1.8-4.4-3.6-6.6-5.5
	c-7.8-6.8-14.5-14.4-18.9-24c-2.2-4.8-5.4-9.1-5.4-14.8c0-1-1-2-1.5-3.1c-1.5-2.9-1.3-5.4,0.7-6.1c2.8-1,4,1.2,4.9,3.1
	C1486.7,921.9,1487.9,924,1491.1,924.1z M1479.2,833.3c0.3-1.2,1.5-2.2,3-1.9c2.5,0.5,3.9,3.7,2.6,5.4
	C1482.1,840.9,1477.1,837.6,1479.2,833.3z M1473.5,935.5c1.6-1.2,2.7,0.3,3.7,1.4c3,3.1,5.9,6.2,8.3,9.7c0.6,0.9,0.9,1.7-0.2,2.9
	c-4.4-2.5-9.2-4.6-11.9-9.6C1472.5,938.3,1471.9,936.7,1473.5,935.5z M1438.3,818.1c1.7,0,2.7,1.3,2.8,2.9c0.2,1.9-0.8,3.4-2.4,4.2
	c-2.5-0.2-2.8-2-3-3.6C1435.6,819.8,1436.2,818.1,1438.3,818.1z M1433.3,839.3c1.4-2.3,3.2-4.2,5.8-5.3c6.8-3,7.2-3.7,6.3-10.8
	c-0.2-1.9-0.4-3.7,2.4-5.1c2.9,5.3,2.8,10.8,2.8,16.2c0,2.1-0.6,4.3-1.1,6.4c-0.7,3.2-1.9,4-4.9,3.1c-2.7-0.8-5.1-1-7.7,0.1
	c-1.3,0.6-2.7,0.4-3.6-0.8C1432.3,841.9,1432.6,840.4,1433.3,839.3z M1425.8,918.9c3.3,0.2,4.9,2.3,6.6,4.3c1.7,2.1,3.8,2.8,5.9,0.4
	c1.3-1.5,2.8-3.5,4.8-1.5c1.7,1.7,2.4,4.5,0.8,6.4c-7.3,9.3-12.5,19.9-18.6,29.9c-0.6,1-1.3,1.9-2.6,2
	C1419.4,955.9,1421.6,925.4,1425.8,918.9z M1420.2,1061.9c0.9-6.8,0.6-13.6,0.5-20.5c-0.2-16.5,0.3-33,0.9-49.4c0.1-2,0.4-4,0.5-6
	c0.5-7.8,3.3-14.9,7.6-21.3c4.4-6.6,7.8-13.9,12.3-20.5c2.2-3.1,4.2-6.2,7.5-8.4c3.1-2.1,4.5-5.7,4.2-9.7c-0.2-2.9,0.5-5.6,1.4-8.3
	c0.5-1.7,1.4-3.1,3.5-2.8c1.9,0.3,3.1,1.4,3,3.4c0,2.5,0.8,4.9,0.9,7.4c0.1,3.5-1.1,6.6-4,8.8c-3.6,2.7-3.8,6.6-2.4,9.9
	c2.9,7,2.8,14.3,3.7,21.5c2,15.5,1.6,31.2,2.1,46.9c0.3,8.2,0.6,16.3,0,24.5c-0.7,8.8-1.2,17.6-1.6,26.4c0,0.8-0.1,1.7-1.3,2.3
	c-2-0.5-2.2-2-2.3-3.5c0-2,0-4-0.1-6c-0.1-2.6-1.1-4.5-3.6-5.4c-1.1-0.4-2-1-2.9-1.8c-2.9-2.5-5-1.9-6.5,1.5
	c-1.4,3.3-1.2,7.8,0.6,12.9c-3.7,2.6-8.1,1.4-12.1,1.7c-3.2,0.2-5.9,0.3-7.4,3.4C1421,1067.7,1419.7,1065.5,1420.2,1061.9z
	 M1426.7,1241.2c0.1-1.6,1.4-2.2,2.7-2.4c3.1-0.5,6.2-0.6,9.3,0.1c1.5,0.3,3,0.9,2.8,2.8c-0.1,1.7-1.3,2.6-2.9,3
	c-1.3,0.3-2.6,0.3-3.8,0.5c-1.9-0.3-3.7-0.5-5.5-0.9C1427.9,1243.9,1426.6,1243,1426.7,1241.2z M1437.4,1311.5
	c-0.5-3.1-2.7-5.1-4.5-7.2c3.7-3.2,11.3-2.7,13.7,0.5c0.9,1.2,1.1,2.4,0.2,3.7c-1.5,2.1-3.4,3.6-5.9,4.3
	C1439.3,1313.1,1437.6,1312.8,1437.4,1311.5z M1452.7,1331.1c0.2,0.5,0,1.3,0,2c-3.4,1.9-6.3,1.4-9.4-0.6c-2-1.3-2.9-2.7-1.7-4.9
	c1.1-1.9,0.7-3.2-0.6-4.9c-2-2.9-1.4-4.4,1.7-5.6c1.8-0.7,3.7-1.3,5.6-2c1.3-0.4,2.7-0.6,3.7,0.6c0.9,1.1,1.4,2.8,0.5,3.7
	C1448.7,1323.4,1451,1327.2,1452.7,1331.1z M1455,1239.8c3-4.3,0.4-6.8-2.2-9.4c-4.5-4.6-10-8.2-14.4-13c-2.4-2.6-4.9-1.9-5.9,1.5
	c-0.8,2.6-2.1,4.4-4.5,5.6c-4,1.9-6.6,0.6-6.7-3.9c-0.2-9,0.4-17.9,4.4-26.3c0.3-0.6,0.4-1.2,0.5-1.6c-0.3-1.5-1.4-1.6-2.3-2
	c-1.8-0.6-2.4-1.9-1.4-3.5c1.8-3,1.5-6.2,0.5-9.2c-2.1-6.3-1.8-12.9-1.9-19.3c-0.5-23.3,1-46.6,0.4-69.8c-0.2-5.9,4-5.7,7.9-4.4
	c1.2,0.4,2.2,1.6,3.3,2.2c4.6,2.3,9.1,5.2,14.7,1.3c0.7,2.9-0.5,4.1-0.8,5.5c-0.8,3,1,4.8,3.7,3.5c1.8-0.9,3.6-0.6,5.2-1.2
	c1.5-0.6,2.8-1.8,4.8-1.8c1.1,8.7,1.8,17.5,1.9,26.3c0.2,27-0.5,53.9-2.6,80.8c0,0.2-0.1,0.3,0,0.5c2.3,9.3-2.2,18.7,0.2,28.1
	c0.5,1.8,0.8,3.4,2.1,4.9c2.6,3-0.1,9.3-4,10C1455.7,1245,1453.5,1242,1455,1239.8z M1456.9,1263c2.5-2.6,4.8-3.2,7.5-1
	C1462.1,1266,1461.1,1266.2,1456.9,1263z M1462.7,908.3c-1.3-0.4-2.3-1.3-2.7-2.7c-1.1-3.5,2.7-9,6.3-9.3c1.6-0.1,2.8,0.8,2.4,2.3
	c-0.8,2.7-1.1,5.5-2.8,7.9C1465.1,907.6,1464.3,908.8,1462.7,908.3z M1508.9,1282.4c-2.9,2.2-8,0.7-9.7-3.1c2.8-1.9,5.8-2,8.9-0.7
	C1510.1,1279.5,1510.4,1281.3,1508.9,1282.4z M1510.2,1234.5c-1.8,1.3-2.6,2.6-2.4,5c0.3,3.4-1.7,5-5.4,5.1
	c-2.2-0.1-4.5-0.8-6.5-1.9c-2.7-1.3-3.4-6-1-7.1c4.2-1.9,7.3-5.9,12.1-6.6c1.9-0.3,4.1-1.8,5.4,0.6
	C1513.6,1231.8,1511.8,1233.3,1510.2,1234.5z M1502.4,1207.2c2.5,0.1,4.1-1.3,5.4-3.4c0.7-1.2,1.9-2.1,3.3-1.6
	c1.6,0.5,2.1,2,2.2,3.6c0.7,8.1-4.6,17.4-11.6,21.4c-2.7,1.6-5,4-7.7,5.8c-1.4,1-2.7,1.9-4.5,1.9c-1.3,0-2.7,0.1-3.5-1.3
	c-0.8-1.4-0.1-2.5,0.9-3.6c0.6-0.6,1.2-1.2,1.7-1.8c1.5-1.9,1.7-3.7-0.6-5c-2.1-1.1-3.1-2.6-3.7-5c-0.8-3.2-2.6-3.7-5.5-1.8
	c-6.7,4.3-6.6,4.2-10.1-2.7c-1.6-3.1-2.3-6.2-2.2-9.6c0.3-14.3,0.8-28.6,2.8-42.8c0.1-0.5,0.2-1,0.2-1.5
	c-0.1-12.5,1.8-24.8,2.2-37.3c0.3-9.6,1.4-19.2,2.2-29.6c3.2,1.6,5.1,0.2,7.3-1.6c6.9-5.6,14.7-8.5,23.7-5.5
	c2.4,0.8,5.6,4.6,5.6,8.1c0.2,11,2.5,21.8,2.1,32.9c-0.3,8,0.8,15.9,0.6,23.9c-0.3,9.8-1.2,19.6-2.1,29.3c-0.3,2.8-0.7,5.6,1.7,8
	c0.5,0.5,0.7,1.5,0.8,2.3c0.5,4.2-2,6.2-5.9,4.6c-3.6-1.4-4.3-1-4.5,2.9c-0.1,2-0.4,4-1.3,5.8
	C1501.1,1204.8,1500.9,1206.1,1502.4,1207.2z M1511,1063.7c-0.3,1.9-1.4,2.8-3,3.7c-6.9,4-13.9,6.4-21.8,1.8
	c-1.6-6.1-3.8-7-10.1-3.8c-3.3-5.7-11.5-109-9.2-117.6c4.8,1.8,9.6,3.5,13.4,7.1c1.8,1.7,3.4,3.7,6.3,3.4c1.1-0.1,1.8,0.7,2.6,1.3
	c5.4,3.6,9.3,8.8,14.2,13c2.6,2.2,4.6,6.1,5.3,9.9c1.2,6.5,3.1,12.9,3.3,19.6c0.2,11.4,1.7,22.8,1.7,34.3
	C1513.8,1045.7,1512.3,1054.7,1511,1063.7z M1515,762.3c-0.7-2.8-3-5.9-1-8.5c2.3-3,5.9-0.6,8.9-0.5c0.8,0,1.7,0.3,2.1,1
	c1.6,2.8,4.6,3.6,7.2,5c2.6,1.4,3.4,3.7,2.3,6.1c-1.2,2.7-3.5,3.2-5.7,1.8c-2.6-1.6-5.1-0.9-7.4-0.3
	C1518.2,766.7,1515.8,765.6,1515,762.3z M1516.9,906.7c-0.9-2.9,2.8-5.2,5-3.2c2.2-0.1,3.3,2.9,1.9,4.5
	C1522,909.8,1517.7,909.3,1516.9,906.7z M1526.8,1268.9c-2.2,0-3.2-1.1-3.4-3c-0.2-2.2,1.1-3.5,3.1-3.5c1.8,0,3.8,0.8,4,2.9
	C1530.7,1267.7,1528.5,1268.4,1526.8,1268.9z M1528,1236.2c0.2,2.5,1.8,2.5,2.8,3.2c2.2,1.4,2.1,3.9-0.2,5
	c-3.7,1.8-9.5-0.8-10.6-4.8c-0.8-2.7-0.4-4.7,2.4-6.2c4.1-2.1,4.1-2.7,2-6.9c-1.5-3-2.1-6.3-3.9-9.1c-1.4-2.1-0.5-4.6,0.5-6.7
	c2.1-4.3,2.4-8.2,0.4-12.8c-1.3-3.1-0.8-7.2-0.7-10.8c0.8-16.6,0.8-33.2,2.6-49.8c0.5-4.6,0.3-9.3,0.3-14c0-10,2.3-19.8,3-29.8
	c0.1-2.1,1.3-3.4,3.3-3.9c3.1-0.7,6-2,9-3.8c2.2,3.5,5.3,3.1,8.7,2.4c6.1-1.2,8.7,0.9,9,7.1c0.8,13.6,2.5,27.1,3.2,40.7
	c1.1,22.1,2.9,44.1,3,66.2c0,4.5,0.7,9.1-3.7,11.7c0.2,2.1,1.5,2.1,2.6,2.6c3.1,1.4,3.2,3.4,0.5,5.4c-1.5,1.2-3.3,1.5-5.1,2
	c-1.8,0.5-4,0.5-5.2,3c2.3,2.8,5.1,2.1,8,1.4c3.7-0.9,5.3,0.9,4.3,4.5c-0.6,2.3-2.4,2-4,2c-7.1-0.1-14.3-0.3-21.4-0.5
	C1535.2,1234.2,1531.5,1234.4,1528,1236.2z M1549.6,1297.3c-2-0.2-2.4-2-2.5-3.7c0-1.3,0.4-2.4,1.9-2.3c2.1,0.1,2.7,1.5,2.8,3.3
	C1551.7,1296,1551.3,1297.5,1549.6,1297.3z M1554.7,1258.3c-3.3,1.3-5.6,3.3-6.5,6.9c-0.4,1.8-1.2,3.8-3.5,3.6
	c-2.4-0.2-3.3-2.3-3.2-4.3c0.3-3.7-1.2-6.9-2.6-10c-2.2-4.7,0-8.7,1.5-12.8c0.4-1.2,1.5-1.7,2.9-1.5c1.5,0.3,2.4,1.3,2.4,2.7
	c0,1.1-0.3,2.3-0.5,3.4c-0.4,2-0.3,3.9,0.6,5.8c1.7,3.3,3.9,3.9,6.7,1.5c2.8-2.5,5.5-3.4,9.4-1
	C1559.9,1255.4,1557.5,1257.2,1554.7,1258.3z M1559.9,1244.5c-2-0.3-4.7-0.4-4.8-3.1c-0.1-2.9,2.8-3,4.8-3c2,0,4.9-0.1,4.9,2.9
	C1564.8,1243.9,1562.3,1244.4,1559.9,1244.5z M1567.2,927c-0.1,7.3,0.3,14.7-4.5,21c-0.5,0.6-0.6,1.6-0.6,2.4
	c-0.3,15.1-2.7,30.1-2.2,45.2c0.5,14.8-0.5,29.6-1.2,44.4c-0.4,8.1-1.7,16.1-3.9,24c-0.9,3.4-2.8,5.1-6.5,4.7
	c-4.2-0.4-8.3-0.6-11.5,3c-2.4-1.2-4-3.3-6.5-3.9c-1.9-0.5-2.1-2.4-2.4-4c-2.2-11.8-3.4-23.7-4.2-35.7c-0.7-10.5-1-21-2-31.4
	c-1.5-15.6-1-31.3-3-46.8c-0.4-2.7,0.4-5,2.8-7c6.7-5.6,13.1-11.6,19.7-17.4c0.9-0.8,1.8-1.6,2.8-2.1c3.1-1.4,5.1-0.3,5.8,3.1
	c0.4,1.8,0.3,3.8,1.1,5.5c0.9,1.6,3.4,1.3,3.6-0.6c0.1-0.7,0-1.4,0-2.1c-0.4-6.4-0.5-6.4,5.6-5.7c1.2-0.7,1.1-2,1.4-3
	c0.3-1.2,0.7-2.2,2.4-3C1567.2,919.8,1567.2,923.6,1567.2,927z M1587.7,1222.1c-2.7-2.5-7.3-2.9-11-4.2c-0.8-0.3-1.6-0.4-2.8-0.7
	c0.2-1.7,0.8-2.9,1.5-4c1.5-0.5,2.6,0.2,3.7,0.9c5.7,3.4,12.4,3.5,18.5,5.4c1.6,0.5,3.2-0.6,4.8-0.9c2.5-0.5,4.3,0.2,4.9,2.8
	c0.6,2.6-1.7,2.9-3.3,3.5C1598.2,1227,1592.9,1227,1587.7,1222.1z M1601.8,1280.4c-1.4,0.5-2.6-0.1-3.7-0.8c-1.8-1-3.2-2.4-2.4-4.8
	c0.5-1.5,1.6-2.1,3-1.9c2.3,0.3,4.1,1.4,4.4,3.9C1603.3,1278.2,1603,1279.5,1601.8,1280.4z M1615.2,1286.1c-2.2-0.1-4.5-3.5-4.3-6.4
	c0.1-2.5,2.2-3.9,5.4-3.8c2.8,0.1,3.7,1.8,3.6,3.4C1619.8,1283.5,1617.7,1286.2,1615.2,1286.1z M1624.6,1263.6
	c-0.2,1.5-1.3,2.4-2.7,2.3c-2.5-0.2-4.9-0.5-7.4-1c-1.5-0.3-2.8-1.3-2.7-3.1c0.2-1.9,1.6-2.3,3.2-2.4c0.7,0,1.3,0,1.1,0
	c2.6,0.3,4.5,0.4,6.3,0.7C1624.2,1260.6,1624.8,1262,1624.6,1263.6z M1639,1206.5c-0.7,11.5-1.2,22.9-1.8,34.4
	c-0.1,1.5-0.3,3-0.9,4.4c-1.4,3-1.6,5.7,0.9,8.2c0.9,0.9,1.2,2,1.2,3.2c-0.1,4.5-0.3,9-0.6,13.5c-0.1,1.5-0.6,3-2.5,3.1
	c-1.6-0.5-1.8-1.9-2-3.2c-0.3-1.8-0.9-3.6-1-5.4c-0.3-6.4-5.5-7.6-10-9.3c-4.1-1.6-8.6-0.8-12.8-1.2c-3.1-0.3-4.9,2-4.7,5.6
	c0.1,1.5,0.7,2.9,0.7,4.4c0.1,2.4-1.8,4.3-4,4.2c-2.5-0.1-4.9-1.9-4.8-4.1c0.5-7.5,0.5-14.9,1.7-22.4c0.8-5.2,3.7-8.8,7.7-11.7
	c4.7-3.4,6.9-8.1,7.4-13.5c0.3-3.1,1-4.7,4.5-5.2c4.9-0.7,7.7-5.4,11.9-7.8c1.4-0.8,1.6-2.9,1.5-4.6c-0.1-1.9-0.9-3.7-2.9-4.2
	c-2.2-0.6-3.1,1.1-4,2.9c-2.1,4.3-5.3,7.2-9.8,9.7c-5.3,2.9-11,3.5-16.3,5.9c-3.1,1.4-6.3,0-9.3-0.8c-6.1-1.7-11.3-4.3-11.6-11.7
	c0-0.6-0.4-1.3-0.7-1.9c-0.6-1.1-1.4-2-2.7-1.9c-1.1,0.1-1.5,1.1-2,2c-0.7,1.6-0.4,3.7-2.5,4.7c-2.2-1-2.1-2.9-2.1-4.7
	c0.2-6.2,1.1-12.2,6.3-16.6c2.5-2.1,2.3-4.8-0.6-5.8c-4.8-1.7-5.4-5.3-5.6-9.5c-0.7-14.7,0.3-29.3,0.9-43.9
	c0.1-3.5,0.2-6.9,0.9-10.4c1.2-6.5,1.2-13.3,5.7-18.2c-0.1-2.3-1.6-2.7-2.5-3.6c-0.8-0.9-1.5-1.9-1-3.1c0.5-1.4,1.8-2,3.2-2
	c1,0,2,0.1,2.9,0.4c2.3,0.9,4.5,0.5,6.8-0.2c2.2-0.7,4.5-1.1,6.8-1.3c5-0.4,9.7-1.1,14.2,2.4c2.1,1.6,5.3,1.9,8,2.7
	c1.1,0.3,2.2,0.4,3.2,1.2c4.4,3.4,4.4,3.4,8.5-0.7c1.7-1.7,3.5-3,6.1-2c0,0.4,0.2,0.8,0,1c-4.7,4.6-3.6,9.2-0.1,13.8
	c0.8,1.1,1.6,2.2,1.7,3.6c0.3,5.6,2.7,10.8,2.6,16.6c-0.2,10.3,0.7,20.6,0.7,31c0,5-0.5,10-1.9,14.8c-0.8,2.6-0.7,4.7,1.3,6.9
	c2.8,3.2,2.3,4.7-1.6,6c-0.8,0.3-1.6,0.4-2.4,0.8c-1.8,0.9-2.1,2.4-0.6,3.5C1639,1191.2,1639.5,1198.5,1639,1206.5z M1622.8,940
	c2.8,4.9,5.7,9.7,8.7,14.5c4.4,7.2,7.8,14.7,8.4,23.2c0.2,2.3,0.5,4.7-1.8,6.9c-3.8-1.7-5.2-5.3-7.2-8.2c-4.3-6.3-8-12.9-12.5-19.1
	c-6-8.2-11.6-16.5-16.9-25.1c-5.8-9.4-7.4-19.7-5.4-30.5c0.4-2,0.9-4.1,3.4-4.4c2.2-0.2,3,1.7,4,3.3c0.9,1.6,1.5,3.3,1.8,5.2
	c0.4,2.2-0.1,3.7-2.3,4.8c-3.3,1.7-4,3.6-1.8,6.1c4.2,4.7,7.1,10,8.1,16.2c0.3,1.8,1.5,3.2,3.5,2.7c2.2-0.6,2-2.5,1.6-4.1
	c-0.5-2.1-0.8-4.3-1.8-6.2c-2.8-5.5-1.9-11.3-1.9-17.1c0-4.7,1.3-9.1,2.3-13.6c0.4-1.8,0.9-3.3,2.9-3.5c1.8-0.2,2.6,1,3.4,2.4
	c5.4,10.2,11,20.3,15.1,31.2c2.1,5.6,5.2,10.8,5.9,16.8c0.2,2.2,0.3,4.6-2.3,5.4c-2.4,0.7-4.6,0-6-2.3c-0.6-1-1.2-2-1.9-3
	c-1-1.5-2.1-3-3.3-4.4c-0.9-1.1-2.2-1.6-3.5-0.8C1621.8,937.4,1622.1,938.9,1622.8,940z M1640.4,897.1c4.6,1.7,5.5,5.4,3.2,10.8
	C1639.4,907,1638.8,905,1640.4,897.1z M1657.6,1298.4c-1.8-0.1-2.7-1.1-2.8-2.8c-0.1-1.9,1.1-2.7,2.8-2.7c1.6-0.1,2.5,1,2.5,2.5
	C1660.1,1296.8,1659.5,1298.2,1657.6,1298.4z M1660.7,1282.5c-4.5,0.8-8.9,0.6-13.2-1.4c-1.4-0.7-2.7-1.4-2.5-3.3
	c0.1-1.9,1.6-2.5,3.1-2.6c5.9-0.4,11.8-1.5,17.5,1.4C1665.2,1280.1,1663.6,1282,1660.7,1282.5z M1673.9,1283.3
	c-0.3,1.5-0.6,3.7-2.8,3.2c-1.9-0.4-2-2.4-1.7-4.1c0.3-1.6,1.1-3.1,3.3-3.4C1674.2,1280.4,1674.2,1281.9,1673.9,1283.3z
	 M1679.7,1236.4c-5.8-3.4-10.3-7.8-11.8-14.7c-1.2-5.6-0.7-6.6,4.8-8.1c0.6-0.2,1.3-0.4,1.6-1.1c-2.5-5.7-2.3-6.7-11-4
	c-2.2-1.6-1.5-3.7-1.1-5.9c0.5-2.8,1.2-5.5,1.6-8.3c0.3-1.7,0.3-3.5-1.8-4.1c-2.1-0.6-5.3,1.2-5.4,3.2c-0.3,6.1-2.2,12.4,2.1,18
	c1.3,1.7,2.4,4.9,2.4,7c-0.4,14.2,4.8,26.8,10.4,39.4c0.6,1.4,1.3,2.7,1.6,4.2c0.3,1.4,1.1,2.8,0.4,4.7c-1.7,0.6-3.2-0.2-4.4-1.2
	c-2.3-1.9-4.2-2.3-6.4,0.2c-1.2,1.4-3.1,2-5.1,2.3c-3.2,0.4-5.9-1.9-5.9-5.1c0-2.3-0.6-3.8-2.6-4.9c-1.1-0.6-2.2-1.5-2.9-3.1
	c1.2-1.7,3.4-2.2,5.2-3.3c2.1-1.3,1.5-4.5-1-4.8c-2.3-0.3-4.7,1.3-7.1,1.6c-1.3-3-0.1-5,2.5-6.1c2.5-1,4.5-2.9,7.1-3.5
	c1.2-0.3,2.1-1.3,1.8-2.6c-0.4-1.4-1.6-1.5-2.8-1.4c-1.5,0.1-2.9,0.5-4.1,1.6c-1.1,1-2.4,1.4-3.6,0.4c-1.4-1.3-0.7-2.7,0-4.1
	c0.3-0.6,0.6-1.4,1.2-1.6c4.3-1.6,3.2-4.6,2.4-7.8c-1.9-8.2-1.8-16.5-1.6-24.8c0.1-5,0.7-10,0.9-15c0.1-2.3,1.5-4.3,3.6-5.2
	c4-1.7,4.6-3.1,3-7c-3.3-8.3-3.8-17.2-5.1-25.9c-0.7-4.7-1.6-9.4-1.9-14.3c-0.7-13.7,1.1-27.2,3-40.7c0.5-3.3,2.2-4.9,5.2-5.8
	c4.2-1.2,8.6-1,12.9-1.3c6.1-0.4,12.3-0.6,18.4-0.6c3.9,0,4.8,1,4.7,4.8c-0.7,23.5,0,46.9-1.1,70.4c-0.3,6.7-1.2,13.3-2.2,19.8
	c-0.7,4.6-2.9,8.2-7.4,10.1c-0.7,0.3-1,1.2-0.6,1.9c0.1,0.2,0.2,0.3,0.3,0.3c7,4,7.3,4.5,5.8,12.6c-1,5.2-1.9,10.5-1.8,15.8
	c0,2.5-1,3.7-3.4,4c-1.5,0.2-3.2,0.4-3.3,2.4c-0.2,1.8,0.9,3.3,2.3,4.2c2,1.3,4,2.5,4.5,5.1c-0.4,1.3-1.4,2.2-2.5,2.8
	C1680.7,1237.3,1680.2,1236.7,1679.7,1236.4z M1685.2,1267.1c-2.3-0.1-2.8-2.5-2.8-4.5c-0.1-1.8,0.8-3.4,2.7-3.5
	c2.4-0.2,2.8,1.7,2.9,3.7C1687.6,1264.6,1687.9,1267.2,1685.2,1267.1z M1716,1253.5c-0.2,2.2-2.2,2.6-4.2,2.5
	c-2.3-0.2-4.6-0.2-6.9-1.1c-1.2-0.5-2.5-0.9-3.8-1c-3.3-0.3-4.7,0.8-4.9,4c-0.2,4-0.3,8-0.2,11.9c0.1,3.8-0.2,7.6-1.8,11.5
	c-4.7-2.3-5.6-3.7-4.1-7.2c3.3-7.8,1.9-15.7,0.4-23.5c-0.6-3.2-0.5-5.4,2.2-7.3c1.5-0.2,2.4,0.9,3.4,1.7c4,2.9,8.2,4.9,13.2,5
	c1,0,2,0.1,3,0.3C1714,1250.8,1716.2,1251.1,1716,1253.5z M1722.7,1229c-1.2,2.9-2.2,6-6.3,6c-0.8,0-1.5,0.7-1.7,1.8
	c-0.1,1.5,1.4,1.9,2.2,2.9c1.8,2.3,1.3,4.4-1.4,4.8c-4,0.6-8,0.5-11.9-0.5c-3.3-0.8-3.8-3-1.3-5.3c2.5-2.3,5.1-4.5,7.8-6.8
	c1.8-1.5,1.1-4.5-1.3-4.9c-3.9-0.8-7,0.9-8.7,4.9c-1.2,2.8-3.6,3.7-5.7,5.2c-2.5-1.1-4-2.6-3.2-5.4c0.5-1.8,0.1-3.6,0-5.5
	c-0.1-3.8,0.6-4.7,4.3-5.3c1.5-0.2,3.1-0.1,3.6-2c0.4-1.5-0.7-2.3-1.6-3.3c-2.7-2.8-5.4-5.6-1.6-9.6c1.2-1.3,0.8-3.5-0.6-4.5
	c-5.6-3.9-4.2-9.6-3.5-14.6c1.7-11.5,3.6-23,3.8-34.6c0.2-19.1,1-38.3,2.2-57.4c0.1-1.7,0.1-3.3,1.6-5c2.4,2.5,5,4.6,8.3,5.9
	c2.2,0.9,4.1,1.5,6.2,0.6c3.4-1.4,7.2-0.8,10.3-4.2c1.7-1.8,5.4-2.1,7.7-4.4c1.5-1.5,3.5,0.1,3.6,2.9c0.1,7.3,0.1,14.7-0.1,22
	c-0.5,23.1-0.6,46.3-2.1,69.3c-0.3,4.6-0.6,9.3-3.1,13.4c-1,1.7-0.9,3.5,0.5,5.1c1,1.1,2,2.2,2.8,3.5c1,1.6,1.6,3.9,0,5
	c-2.8,2-3.4,5.2-5.5,7.5c-3,3.2-3.9,7.1-5,11.1C1723.1,1228,1722.9,1228.5,1722.7,1229z M1736.1,1241.2c-0.8,2.1-2.5,2.4-4.4,2.6
	c-1.9,0.2-3.4-0.4-4-2.2c-2.5-8.2,0.8-15.3,4.1-22.5c5.1,4.9,1.4,9.9,0.1,14.6C1736.5,1236.5,1737.2,1238,1736.1,1241.2z
	 M1782.4,1008.5c2.7,2.9,3.4,6.2,2.7,9.8c-1.4,1-2.7,0.8-4,0.7c-0.8-0.1-1.5-0.7-1.6-1.6c-0.1-1.1-0.3-2.2-0.3-3.3
	C1779.1,1011.8,1779.4,1009.5,1782.4,1008.5z M1741.7,915.4c2.5,0.5,3.2,3,2.8,4.5c-0.9,3.8-0.7,7.8-2.1,11.5
	c-0.2,0.4-0.7,0.6-1.3,1.2C1737.7,929,1738.1,919.6,1741.7,915.4z M1741.2,942.8c1.5-0.6,2.4,0.4,3.3,1.5c1.7,2,3.1,1.6,4.1-0.7
	c0.7-1.6,1.2-3.5,3.2-4.4c2.7,1.4,3.6,4.1,2.7,6.3c-2.7,6.4-1.7,13.1-2.4,19.6c-1,8.4-0.7,16.9,0.3,25.4c0.3,2.2,0.9,3.5,3.1,4.5
	c3.4,1.4,6.3,3.7,8.8,6.3c3.8,4.1,3.7,4.3,9.3,2.8c2.5,1.2,1.5,4,2.3,5.9c0.4,1,0.5,2.2,0.5,3.3c-0.1,2.7,0.4,4.7,2.5,5.5
	c0.4,0.2,0.7,0.6,0.8,1c0.2,3.2,1.3,6.1,2.2,9.1c3.1,11.2,6.7,22.4,3.1,34.2c-1.4,4.5-5,6.5-8.7,4.2c-7.6-4.9-15.7-3.3-23.7-3
	c-2.5,0.1-4.9,1-7.4,0.5c-1.5-1.6-0.9-3.5-1-5.2c-0.3-17.3,0.1-34.6-0.4-51.9c-0.4-15.3-1.5-30.5-3.5-45.7
	c-0.7-5.1-0.4-10.3-0.8-15.4C1739.3,945.1,1739.6,943.5,1741.2,942.8z M1744.1,1226.8c-2.3,0.2-4.3-0.5-4.3-3.3
	c0-2.6,1.8-3.3,4.1-3.1c2.3,0.2,4.9,0.1,5.5,3C1749.8,1225.2,1747.3,1226.8,1744.1,1226.8z M1785.3,1115.5c-2.1,5.3-3.2,10.3-1.7,16
	c0.9,3.3,0.8,6.9,0.9,10.4c0.1,5.2-1.3,6.8-6.5,7.5c-2,0.3-4,0.1-5.9-0.3c-1.5-0.3-3.1-0.5-4.1,1c-1,1.6-0.5,3.2,0.2,4.7
	c1.5,2.8,5.5,4.3,9.2,3.4c1.6-0.4,3.1-1.1,5-1.8c2.6,4.4,2.3,4.8-0.9,7.7c-4,3.6-8.8,5.2-13.9,6c-4.1,0.7-7.8,2.9-11.8,3.7
	c-2,0.4-2.8,2.2-3.4,4c-0.9,2.9-1.2,6-0.3,8.9c1.5,4.7,1.4,9.5,2.5,14.2c0.7,2.9-0.3,5.1-3.1,6.6c-2.5,1.4-4.7,3.2-7.6,3.7
	c-2.5,0.4-4.1-0.9-3.2-2.9c3.3-6.5,0.4-13.1,0.6-19.6c0.4-17.1,0.2-34.3,1.2-51.4c0-0.8,0.1-1.7,0.1-2.5
	c-0.3-13.3,1.2-26.6,1.5-39.9c0-0.7,0.1-1.3,0.1-2c0.7-6.1,1.6-7,7.7-7.5c9.2-0.7,18.3-0.1,27.4,1c4.5,0.5,4.8,1.1,4.1,5.4
	c-0.5,2.8-0.1,5.2,1.3,7.7C1787.6,1104.8,1787.4,1110.3,1785.3,1115.5z M1793.6,1019.8c0.6-2.9,3.4-5.6,5.6-5.5
	c2.5,0.1,3.8,2.1,2.8,4.4c-0.3,0.6-0.7,1.1-1,1.7c-1.3,2.2-2.7,4.4-5.8,3.2C1793.5,1022.9,1793.2,1021.3,1793.6,1019.8z"/>
</svg>
