<?xml version="1.0" encoding="utf-8"?>
<!-- Generator: Adobe Illustrator 27.1.1, SVG Export Plug-In . SVG Version: 6.00 Build 0)  -->
<svg version="1.1" id="Слой_1_копия_2" xmlns="http://www.w3.org/2000/svg" xmlns:xlink="http://www.w3.org/1999/xlink"
	 x="0px" y="0px" viewBox="0 0 1000 1000" style="enable-background:new 0 0 1000 1000;" xml:space="preserve">
<g>
	<path d="M349,31v288h184.09h18.99H644V31H349z M635,310h-77.3c10.48-15.98,21.47-30.31,19.57-51.67
		c-2.3-25.91-11.63-33.66-19.27-35.51c-0.9-1.04-1.92-1.97-3.13-2.72c-3.1-1.92-6.43-3.3-10.28-3.29c-2.61,0.02-5.21,0.63-7.78,1.33
		c-5.57,1.5-10.95,3.65-16.35,5.76c-3.91,1.53-7.89,2.55-12.01,2.6c-2.77,0.03-5.39-0.43-7.81-1.64c-0.92-0.46-0.97-0.51-0.23-1.33
		c2.02-2.22,3.95-4.52,5.79-6.89c1.26-1.62,2.5-3.24,3.62-4.95c0.18-0.28,0.2-0.57,0.22-0.85c0.25-2.45-0.06-4.81-0.63-7.12
		c-0.98-3.93-2.46-7.63-4.69-10.95c-0.55-0.81-1.15-1.58-1.9-2.21c-0.25-0.2-0.27-0.31,0.08-0.49c1.31-0.71,2.38-1.7,3.1-3.03
		c0.65-1.17,0.68-2.34,0.3-3.51c-0.62-1.93-1.74-3.54-2.97-5.08c-0.14-0.17-0.26-0.34-0.29-0.56c-0.59-3.92-1.97-7.52-3.64-11.01
		c-1.42-2.98-3.35-5.59-5.62-7.94c-0.3-0.32-0.3-0.38,0.15-0.53c1.48-0.48,2.89-1.15,4.2-2.04c1.22-0.83,2.3-1.81,3.22-2.98
		c0.44-0.57,0.46-1.17,0.37-1.79c-0.2-1.39-0.85-2.57-1.6-3.69c-1.73-2.56-3.99-4.6-6.58-6.25c-2.15-1.38-4.44-2.48-7.06-2.88
		c-0.44-0.06-0.89-0.09-1.33-0.1c-1.2-0.02-2.09,0.43-2.82,1.54c-1.55,2.38-2.32,4.92-2.51,7.62c-0.03,0.45-0.08,0.5-0.5,0.28
		c-6.3-3.31-13.21-4.34-20.52-3.83c-0.73,0.05-1.33-0.11-1.95-0.36c-1.24-0.51-2.53-0.87-3.87-1.09c-3.2-0.54-5.23,0.85-6.47,3.88
		c-0.13,0.33-0.24,0.66-0.33,1c-0.06,0.23-0.13,0.32-0.35,0.19c-2.98-1.78-6.4-2.3-9.86-2.67c-3.28-0.35-6.58-0.3-9.91,0.42
		c-0.73,0.16-1.46,0.39-2.18,0.63c-0.49,0.17-0.87,0.47-1.2,0.86c-1.46,1.69-2.93,3.37-4.28,5.14c-0.06,0.08-0.1,0.27-0.25,0.21
		c-0.08-0.03-0.02-0.18-0.01-0.28c0.6-5.44-0.82-10.21-3.76-14.48c-1.88-2.73-4.27-4.96-7-6.82c-3.52-2.38-7.42-3.88-11.88-3.92
		c-5.2-0.05-9.82,1.85-13.96,5.28c-2.29,1.89-4.21,4.12-5.87,6.55c-2.74,4.06-4.65,8.46-6.07,13.05c-1.54,5-2.28,10.04-2.01,15.13
		c0.28,5.39,1.67,10.41,4.03,15.1c1.69,3.34,3.79,6.42,5.72,9.6c2.35,3.86,4.46,7.87,6.52,11.91c1.12,2.18,2.27,4.36,3.88,6.22
		c0.73,0.84,1.55,1.58,2.59,2.05c0.2,0.09,0.26,0.21,0.26,0.43c-0.04,3.56,0.35,7.05,0.99,10.5c0.05,0.27,0.06,0.4-0.28,0.26
		c-0.57-0.23-1.18-0.19-1.77,0c-1.12,0.35-2.18,0.84-3.07,1.67c-0.1,0.09-0.18,0.19-0.35,0.16c-1.66-0.32-3.05,0.43-4.35,1.45
		c-0.53,0.42-1.01,0.91-1.43,1.45c-0.23,0.29-0.21,0.44,0.07,0.6c0.16,0.09,0.3,0.22,0.44,0.32c9.84,7.37,19.68,14.73,29.53,22.09
		c9.93,7.44,19.87,14.87,29.79,22.31c0.39,0.29,0.54,0.31,0.82-0.19c0.34-0.64,0.74-1.25,1.07-1.9c0.66-1.32,0.7-2.63,0.23-3.91
		c-0.1-0.27-0.05-0.46,0.08-0.75c0.71-1.61,1.24-3.26,0.33-4.85c-0.26-0.45,0.12-0.32,0.28-0.33c2.46-0.19,4.91-0.58,7.35-1.05
		c1.36-0.26,2.72-0.57,4.04-1.02c0.47-0.16,0.78-0.11,1.14,0.19c2.4,2,5.21,3.28,8.27,4.11c3.69,1.02,7.41,1.89,11.38,1.75
		c3.84-0.13,7.63-0.87,11.39-1.95c4.12-1.19,8.15-2.66,12.05-4.56c4.4-2.15,8.55-4.74,12.53-7.63c4.49-3.26,8.66-6.92,12.83-10.57
		c3.51-3.07,7.19-5.9,11.29-8.1c1.62-0.87,3.28-1.65,5.05-2.05c2.55-0.58,5.02-0.3,7.46,0.19c2.61,0.53,5,1.55,7.34,2.68
		c1.51,0.73,3.06,1.01,4.74,0.2c0.51-0.24,0.91-0.53,1.21-0.87c3.03,3.21,5.4,9.05,5.41,19.48c0.02,25.19-14.63,31.44-28.93,58H358
		V40h277V310z M407.66,153.35c0.09,4.69-0.58,9.32-2.05,13.91c-1.27,3.92-2.85,7.73-4.45,11.54c-2.42,5.74-5.22,11.33-7.99,16.92
		c-0.06,0.11-0.1,0.26-0.22,0.27c-0.15,0.02-0.15-0.15-0.21-0.25c-1.17-2.12-2.5-4.13-3.86-6.12c-2.27-3.31-4.67-6.53-6.75-10
		c-2.54-4.24-4.19-8.83-4.47-13.95c-0.26-4.78,0.68-9.45,2.4-14.06c1.16-3.1,2.6-6.08,4.76-8.91c0.4-0.46,0.9-1.06,1.46-1.63
		c1.97-2.02,4.27-3.23,7.01-3.38c3.8-0.21,7.15,0.77,9.94,3.17c2.01,1.72,3.43,3.83,4,6.5
		C407.65,149.31,407.62,151.33,407.66,153.35z"/>
	<path d="M525.92,338H349v289h182.61h18.67H644V338H543.52H525.92z M358,618V347h165.52c-7.68,41.05,30.45,94.6,32.87,138.81
		c2.52,46.09-27.51,54.21-29.76,96.16c-0.68,12.7,0.65,24.28,3.01,36.03H358z M635,347v271h-86.55c-2.01-10.95-3.23-22-2.89-33.47
		c1.37-45.98,21.13-46.14,26.43-81.25c8.72-57.77-23.85-72.74-31.04-133.98c-0.97-8.28-0.71-15.63,0.43-22.3H635z"/>
	<path d="M536.2,645H349v288h295V645h-89.4H536.2z M358,924V654h180.57c4.6,17.71,9.38,37.95,12.04,63.74
		c3.11,30.11-14.73,41.08-18.86,62.47c-0.99,5.11-0.8,12.32-0.25,18.95h-58.57c-0.75,0-1.51-0.02-2.26,0.01
		c-3.92,0.19-4.48,1.11-2.71,4.78c4.63,9.61,7.3,19.81,8.92,30.3c1.15,7.51,3,14.8,6.41,21.63c3.66,7.34,8.66,13.44,16.11,17.26
		c0.54,0.27,1.08,0.55,1.57,0.89c2.74,1.94,2.99,3.8,0.75,6.43c-0.31,0.36-0.64,0.71-1,1.04H424.5c0,0-1.94,11.56,23.53,14.78
		c25.47,3.22,24.39,14.78,24.39,14.78h115.16c0,0-1.08-11.56,24.39-14.78c16.74-2.11,21.64-7.83,23.03-11.51V924H358z M635,654
		v227.5h-69.97c-0.12-0.1-0.23-0.21-0.34-0.32c-3.09-3.11-2.87-5.38,0.88-7.56c2.75-1.6,5.46-3.21,7.84-5.35
		c2.94-2.63,5.19-5.83,7.67-9.47c0.95,1.19,1.39,2.02,2.07,2.56c2.77,2.2,6.96,0.71,6.62-2.67c-0.43-4.37,2.21-5.92,5.06-7.61
		c3.91-2.32,8.13-4,12.32-5.71c5.2-2.13,10.22-4.59,14.36-8.49c7.09-6.68,9.11-14.75,6.21-23.98c-2.24-7.13-8.35-11.31-15.79-11.21
		c-4.11,0.06-7.62,1.6-10.91,3.91c-1.28,0.91-2.27,2.42-4.35,2.42c-0.62-3.01,3.14-5.06,1.65-8.2c-1.61-0.98-3.46-0.64-5.23-0.65
		c-17.64,0-35.28-0.01-52.93,0c3.01-22.64,25.86-40.91,26.91-71.63c0.94-27.54-4.52-51.13-10.19-73.54H635z M586.85,845.94
		c1.81-7.8,2.23-15.67,4.51-23.44c4.96-0.84,8.49-4.05,11.77-7.66c1.42-1.57,2.92-3.05,4.88-3.98c5.49-2.59,10.87-0.03,12.27,5.84
		c1.26,5.29-0.04,9.84-3.93,13.66c-1.95,1.93-4.18,3.48-6.61,4.72C602.27,838.9,594.07,841.19,586.85,845.94z"/>
</g>
</svg>
