<?xml version="1.0" encoding="utf-8"?>
<!-- Generator: Adobe Illustrator 26.0.1, SVG Export Plug-In . SVG Version: 6.00 Build 0)  -->
<svg version="1.1" id="Слой_1" xmlns="http://www.w3.org/2000/svg" xmlns:xlink="http://www.w3.org/1999/xlink" x="0px" y="0px"
	 viewBox="0 0 1000 1000" style="enable-background:new 0 0 1000 1000;" xml:space="preserve">
<path d="M900.7,388.4c5.8-1.7,11.9-0.7,16.2-4.5c-3.3-5.2-12.1-3.1-16.8-4.5c-6.7-33-13.3-65.3-29.3-95c-2.6-4.8-2.4-8,0.4-11.9
	c12.8-20.3,16.1-43,12.9-66.2C871.6,116,805.4,66.5,714.2,79.4c-20.8-8.6-41.9-17.4-64-21.3c-30.5-5-58.8-5.2-74.6-5.8
	c0-0.1-0.1-0.2-0.2-0.3c-1.5-4.2-8.3-4.6-11.5-1.5c2.4,0.4,5.1,0.7,7.7,1.1c0,0.2,0,0.4,0,0.6c-13.5-0.4-27.1,0-40.7,1.4
	c0-0.1,0-0.1,0-0.2c4.2-1.1,8.4-2.2,12.6-3.4c-3.4-2.7-7.3-3.1-9.7-6.9c1.5-1.1,3.1-3.1,4.5-3c4.2,0.5,9.1,0.1,11.2,5.3
	c0.2,0.5,1.3,0.7,2.2,1.2c0.4-3.2,1.5-4,3.9-1.9c5.8,4.7,13.9,0.1,21.4,2.1c15.1-0.7,30.6,1.3,45.4-1.3c0-0.5,0-1,0-1.6
	c-18-2.6-36.6-1.8-54.9-2c-4.1,0.1-7.6,0.5-11.2-2.1c-2.5-1.4-6.7-0.3-9.4-1.5c-6.2-4.8-13.9,0.5-19.1-3.3c-7.1-9.3-18-8.6-26-2.9
	c-9-2.9-17.6-5.1-26.7-3.6c-3.7,1.9-6.9,4.6-11.1,7.6c-3.5-1.2-7.8,0-12,2.5c-16,4.1-33.2,4.2-49.1,9.3c-15.4-0.2-26.1-4.8-38.8,8.1
	c-13.9-7.2-26.9-4.7-33.6,6.3c-8-2.1-14.8-0.1-20.1,6.2c-24-10.5-55.3,3.6-57.6,31.2c-17.4-12.4-47.2-8.8-51.7,14.7
	c-19.7-5.4-34.2,0.1-40.9,15.4c-13.7-4.6-28.1-4.4-32.5,9.5c-3.4,0.6-18.3-2.1-17.8,2.7c-0.2,3.5,3.9,3.2,6.3,3.4
	c38.5,4.1,77,2.1,115.7,2.7c-27.9,28.5-53.1,57.1-70.4,93.1c-2.9,6.2-7.9,7.5-13.7,7c-6.5-0.4-10.6,2.8-6.8,4.1
	c5.4,1.8,29.4-1.5,35.4,2.8c-25.8-0.5-62-0.5-87.8-0.4c-2.2-0.4-3.9,0.3-5.4,2c1.9,2.3,4.3,2.2,7,2c20.4,0.2,40,0.4,60.7,0.3
	c-22.5,46.6-35.5,96.5-37.5,147.8c-5.2,2.1-11-1-14.8,3.6c0,0.5,0,1.1,0,1.7c11,0.5,22.1,1,33.2,1.5c0,0.4,0,0.7,0,1.1h-18.2
	c1,54,11,106.8,33.2,156.2c-1.5,0.9-2.7,1.6-3.9,2.3c0.4,0.1,0.7,0.2,1,0.3c0.2,4.9-1.7,6.4-5.8,9.6c3.2,0.5,5,0.8,7.2,1.2
	c-3.7,3-8.7,3.2-11,8.3c4.4-0.3,8.1-0.6,11.8-0.9c0.1,0.3,0.1,0.7,0.2,1c-1.2,0.6-2.5,1.2-3.8,1.9c1.1,8.8-9,12.2-10.1,21.5
	c5.8-3,10.6-5.4,16.2-8.2c1.2,1.1,2.9,2.5,5.1,4.4c-3.5,2-4.8,4.9-8.1,2.2c-2.3-0.7-6.1,3.3-8.4,4.1c-3.9,0.9-5.6,3.1-5,6.7
	c-4.8,0.5-8.1,2-11.8,4.8c2.7,1.9,4.4,2.4,6.8,5.1c-6,2.7-12.5,2.8-15.5,8.9c5.9,2.7,11.7-0.5,17.8-1.4c1.1,5.4-4.8,3.5-6.7,7.7
	c3.9,5.6,17.8-2.1,23.7-2.7c1.6,4.6,2.8,8.6,4.4,12.4c2.2,4.3-2.7,5.7-5.3,7.5c-1.4-1.9-2.5-3.5-4.2-5.9c-0.7,5.7-6.4,9.3-11.4,7.1
	c-1.7-1.1-3.4-2.4-5.3-0.4c-2,2-3.6,4.2-1.2,6.9c-4.7-0.3-9.1-1.7-12.3,2.7c3.7,4.5,8.4,2.3,13.3,2.3c6.3,0.3,12.6,0.9,18.9,1.6
	c8.9,1.6,16.3,7,24.5,0.2c3.5,3.6,3.8,3.6,9.2-1.4c2.8,2.1,5.7,4.3,9,6.8c2.3-10.1,14.2,2.5,10.1,9.2c-1-0.4-1.9-0.8-3.1-1.2
	c0.3,4,4,7.1,1,12c-7.9-7.4-14.5-15.2-22.9-21.4c-0.3,0.4-0.7,0.8-1,1.2c3.8,5.2,7.6,10.3,11.6,15.7c-2.9,2.9-2.8,5.8-0.8,9.1
	c4,8.3-11.1,1-15.3,8.4c6.6,5.9,21,2.3,29.9,3.8c6.5,2,8.9,10.4,13.4,15.2c-3.2,1.5-6.4,3-9.6,4.3c-1.6,0.6-4.4,0-4.9,0.9
	c-2.4,4.8-7.7,2.7-10.8,6.5c1.9,2.4,4,3.3,7,2.8c12,0,24-0.1,36,0c24.5,4.8,21.7,3.9,39,21.2c-1.7,1.9-2.9,3.2-4.2,4.6
	c3.8,5.4,8.4,8.4,15.4,7.1c3.7,25.4-7.2,43.7,5.4,67.9c0.4,4.2,3.5,7.2,7.7,7.1c9.2-0.2,14.5,4.8,18.1,12.4
	c3.5,10.2,16,12,18.8,22.4c1.9,8.6,10.2,12.3,16.2,17.7c5.8,8.2,14.5,15.9,13.6,26.8c-1.6,8.6,10.6,8.5,10.1,16.8
	c0.4,11.2,12.7,13.4,21.4,16c9.7,0.9,8.3-12.7,11.5-18.7c8.6-17.7-1.1-34.5,22.7-43.5c17.8-10.9,17.4-16.2,41.2-14.8
	c17.2,3,27.1-14.2,43.7-12.3c5,0.3,10,0.2,15-0.2c20.1,2.1,3.6,14.1,43.5,11.4c6-0.2,11.7,6.1,13.3-3.4c0.1-9.4,3.6-18.5,11.4-24.1
	c15.3-10,5.5-23.3,15.5-26.4c18.8-6,25.3-5.6,38.1-22.4c0.5,0.1,0.9,0.2,1.4,0.4c2.8,8.5,1.6,17.6,2.5,26.3
	c0.1,12.9,11.7,8.2,10.2-1.9c2.2-10.7-3.2-41.8,10.2-43.4c22.5-3.2,24.6,32.9,26.6,48.5c2.5,16.6,13.2,10.6,14-2.8
	c1.8-13.8,1.4-52.4,19.1-54.7c0.4,6.7-1.9,17,3,21.5c3.6,0.1,4.4-3.3,4.9-6.4c0.2-4.4,1.5-9,3.3-12.8c1.1-1.9,4.1-4.1,6.1-3.9
	c5.2,0.2,1.2,17.8,8,18.2c1.9-0.5,3.6-3.2,3.6-5.3c0-10.1,8.9-16.9,9.9-26.6c3.9-16.9,15.5-4.9,2-31.7c7.5-6.3,12.6-22.4,24.8-18.1
	c-1.2,7.5-0.6,8.1,6.9,8.1c7.8,0,15.7,0,23.5,0c11.2,0.2,6.9-1.6,8.3-10.1c9.8-0.5,19.8-0.5,29.7-0.8c2.5-0.1,4.8-0.5,4.4-3.9
	c-1.1-8.4-7-8.1-13.5-7.2c-1.7-3.8-7.8-0.8-11.5-2.2c0-0.4,0-0.8,0-1.3c4.5-0.6,9-1.2,14.3-1.8c-8.5-3.4-8.9-12.3-17.7-8.1
	c-4.6-5.3-8.8-0.8-13.1,0c-3.7-5-5.7-5.1-10.6-0.2c1.3,0.6,2.5,1.2,4.7,2.2c-4,2-6,1.5-9.8,0.6c1.3-10.1,11.5-15.8,21.4-14.3
	c7.8,0,6,4.5,11,5.9c4.9-0.4,9.7-1.4,13.7-5.3c-2.2-0.7-3.9-1.2-5.5-1.6c7.7-1.2,16.1,2.1,21.5-6.2c-2.6-2.1-5-4.1-7.5-6
	c0.2-0.3,0.3-0.7,0.5-1c-2.1,0.4-4.1,0.7-6.8,1.2c-0.2-1.9-0.5-3.8-0.8-6.5c-2.7,1.5-5,2.8-7.5,4.1c-8.8-32.2-0.3-20.2,25.2-23.7
	c8.8-2.2-7.4-9.5-10.6-9.9c-2.8-0.4-7.4-1-4.8-6.3c-1.1-2.9-4-2.9-6.8-1.5c-0.4-0.2-0.8-0.4-1.2-0.6
	C891.7,556.6,908.9,472.3,900.7,388.4z M879.2,363.6c-5.4-4.5-8.1-10.3-13.1-14.9c-9-8.2-27.4-7.3-32.6,7.3
	c-11.1-0.7-24.5-2.3-29.3,10.3c-3.7,5-6.1,22.3-14.1,19.2c10.2-17.2,20.3-34.2,29.7-51.8c10.4-15.5,25.4-27.6,38.2-41.1
	C867,307.6,880.8,352.9,879.2,363.6z M872.3,383.7l-0.2,1.1c-24.1,5.3-48.4-1.9-73.4,0.4c6.4-13.6,10.8-32.6,30.6-22.7
	c-3.5,0.9-5.7,1.3-8.9,2.2c-10.5,3.5-10.5,15,2.1,14.9c-5.9-3.4-6.4-6.8-0.9-11.1c15-12.4,23.8-1.2,29.2,13.6
	c2.8-8.9-1.7-17.5-12-24c2.4-8.3,12.9-12.2,22-7.6c-7.8-0.3-16.1,9.6-7.7,14.7c2.1-4.3,0.8-11.1,8.2-11.2c5,0,8.2,3.2,9.9,10.2
	c-3.7,1.4-7.4,2.9-11.1,4.4c0,0.4,0.1,0.8,0.1,1.2c5.7,0.4,12.1-0.7,14.5,6.8c-2.8,1.6-5.6,3.2-8.8,5.1
	C868.2,382.4,870.3,383.1,872.3,383.7z M763.7,464.9c-5.5-0.6-18.6-9.4-19.1,0.9c0.1,1.6-0.6,3.2-1,5.1h-11.6v-19.3
	c4,0.2,8-0.4,11.6,0.2c4.4,6.2,13-0.7,15.9,3.5c-4.5,0.3-9,0.7-13.5,1c-0.1,0.5-0.3,1-0.4,1.5C753.1,457.6,760.2,458,763.7,464.9z
	 M734.7,440c0,0.5-0.1,1-0.1,1.4c5.9,0.5,11.7,1.1,17.6,1.6c0,0.6,0,1.3,0,2c-7.1,0.5-14.1,0.9-21.7,1.4v-11.8h38.9
	c-0.3,2.9-0.5,4.9-0.7,7C757.3,437.7,746,438.5,734.7,440z M680,372.8c-0.4-0.4-0.8-0.9-1.3-1.3c3-2.8,5.9-5.5,9.4-8.8
	c5.8,9.9,11,18.6,16.5,28c-11.8,0.6-23.5-1.1-35.3-1.5c-1.2-0.1-2.4-1.2-3.6-1.8c2.7-7.4,11.7-5.9,17.8-9.7
	C682.1,375.7,681.1,374.2,680,372.8z M636.3,210.9c-0.6-0.8-1.6-1.7-2.6-1.6c-8.9-24.6-6.8-51.7,4.1-75.4c1.2-2.3,1.1-3,3.3-5.2
	C632.1,156.7,633.8,182.3,636.3,210.9z M631.4,235.6c-1.8,3.4-3.5,7-4.9,10.7c-9.2-27.1-19.1-55.8-10.6-84.6c0.7-2.8,2-5.5,3.5-8.1
	C615.6,181.2,617.7,211.1,631.4,235.6z M679.2,210.6c5.6,24,12.3,41.9,21.2,64.3c-2.9,2.7-5.7,5.4-8.5,8.2c-0.7,1.2-1.5,2.3-2.5,3.4
	c-0.8,0.8-1.7,1.6-2.6,2.2c-4.8,5.5-9,11.6-11.9,18.5c-13.8-19.2-30.7-36.7-37.2-60c-0.4-1.6-0.4-2.4-0.5-4.1
	C637.1,243.1,652.5,215.7,679.2,210.6z M677.1,200.9c-13.8,5-23.2,10.4-32.1,20.5c-0.8-1.6-1.7-21.4-1.9-24.8
	c-1.2-42.4-2.8-74,45.5-98.6C673,130.3,672.9,167,677.1,200.9z M729.1,387.2c-3.7,1.2-6,1.9-9.1,2.9c-1.9-5.2-3.7-10.3-5.5-15.3
	c0.4-0.3,0.8-0.6,1.3-0.9C720,378.1,724.2,382.3,729.1,387.2z M732,260.2c5.2-1.3,10.4-2.6,15.6-4c0.2,0.7,0.5,1.3,0.7,2
	c-5.5,5.1-12.4,7.3-20,8.5C727.3,263.2,728.4,261.1,732,260.2z M732.8,401c2.4,9.2,4.8,18.3,7.2,27.4c-0.5,0.2-1,0.4-1.6,0.6
	c-4.1-8.6-8.2-17.3-12.4-26.3C728.4,402.1,730.3,401.6,732.8,401z M739.4,357.1c-1.4-13.4-5.5-5.4-7.2-34.3
	c-2.1-15.4-1.5-30.5-2.5-45.8c-0.1-3,0.8-4.4,3.8-5.2c5.6-1.4,11.1-3.2,17-5v97.2c-0.4,0.4-0.5,0.6-0.7,0.7
	C741,365.8,740.6,365.8,739.4,357.1z M748.2,218.8c0.4,6.3,0.2,29.2-3.5,32.9c-3.2,3.2-7.6,1.8-11.5,2.8c-3,0.8-5.5-2-4.9-4.8
	c0,0,0,0-0.1,0c-0.2-15.4,0.5-29.3,0.6-44.5c0.1-8,13-9.4,19.7-11.7C748.4,193.9,747.9,215.7,748.2,218.8z M745.9,186.3
	c-6.3,2.1-12.4,4.2-18.8,6.4V185c6.3-1.5,12.5-2.9,18.9-4.4C746,182.5,746.1,184.4,745.9,186.3z M727.7,349.3
	c-0.3,0.1-0.6,0.1-1,0.2c-8.7-21.6-14.3-43.8-19.4-66.2c-1.7-7.8,10.2-7.2,15.6-10.4C724.5,298.7,726.1,324,727.7,349.3z
	 M702.9,316.2c5.2,5.1,9.5,13.6,6.7,21.2c-0.5,0.2-0.9,0.3-1.4,0.5c-4.5-6.9-9-13.8-13.5-20.7c-3.8-5,2-6.6,3.6-11.6
	C699.2,309.1,701.7,315.8,702.9,316.2z M703.8,271.6c-0.2-0.6-0.8-1.7-1-2.3c8.2-4.3,15-4.4,20.7-6.6c0.4,1.2,0.8,2.5,1.5,4.4
	C717.4,268.6,711.3,270.2,703.8,271.6z M722.6,261c-4.5,0-18.3,1.7-21.1,5.8c-8.7-20-11.9-39.1-15.8-58.7c10.9-6,22.6-9.2,36.9-6
	V261z M691.2,394.1c3.5-0.3,7-0.2,10.5-0.2c5.6,0,5.6,0,8.2,6.4c-8.9-0.6-17.2-1.2-26.1-1.9C685.4,394.8,688.4,394.4,691.2,394.1z
	 M709.3,387.5c-4.4-10.1-11.3-19.2-14.4-29.7c15.9,2.4,16.3,19.6,21.6,31.6C713.3,390.6,711,390.9,709.3,387.5z M722.8,403.4
	c4.1,8.6,8.2,17.3,12.5,26.4c-3.8,1.2-6.3,0.6-8.2-3.1c-3.7-7.4-7.7-14.5-11.8-22.2C718.1,404,720.2,403.7,722.8,403.4z
	 M778.8,225.5c-3.3,1.1-5.5,1.9-2.4,4.2c1.7,1.2,2.3,3.3,4.5,4.4c6.9,9-1.5,24.1-6.8,34.3c-4.6-3.3-21.7-8.4-22-13.3
	c0.4-20.7,0.1-41.4,0.9-62.1c5.8-0.4,10.6,0.8,14.2,5.4c2.9,2.7,8.2,5.3,4.6,10C774.3,214.7,772.6,221.6,778.8,225.5z M818.8,305.3
	c-6.6-6.2-13.1-12-19.3-18.1c-0.8-0.7-0.4-2.9-0.1-4.3c6-19.7,10.7-41.3,29-53.4c1.3,1.2,3.1,2.5,4.4,5.2
	c-3.7,19.1-11.7,36.6-18.2,54.8C811.3,296,815.9,299.9,818.8,305.3z M767.4,296.9c4.7,3.2,0.5,4.7,1.9,8.8c0.4,1.7,1.4,3.6,1.1,5.2
	c-3.9,17.7-5.4,36.3-13.8,52.7v-92.9C772,273.5,757,290.1,767.4,296.9z M759,428.8c2.7-11.8,5.5-23.5,8.3-35.7
	c5.3-0.3,10.7-0.6,16.3-0.9c-8.5,13.1-12.7,28.8-24.1,39.5C759.1,429.7,758.9,429.2,759,428.8z M773.8,385.9
	c-12.4-3.5,6.8-13.1,10-17.4c9.2-8.6,17.8-17.9,27.3-26.2c0.3,0.2,0.5,0.5,0.8,0.7c-7.7,13.5-15.6,26.8-23.8,40
	C785,387.9,778.6,386.3,773.8,385.9z M811.2,318.1c-13,14-26.1,27.9-39.2,41.8c-0.5-0.4-1.1-0.8-1.7-1.2c4.7-8.9,12.5-15.3,19-22.8
	c5.7-8.7,14.7-15,22.4-22l1.1,0.8C812.3,315.8,812,317.2,811.2,318.1z M797.9,312.4c-2.3,6.1-8.3,8.3-12.8,13.2
	c2.9,1,5.2,1.8,7.6,2.6c-0.4,1.4-13.8,15.5-20.5,21.7c7.4-18.1,14.7-36.2,22.1-54.3C799.8,299.6,800.6,305.5,797.9,312.4z
	 M766.8,429.4c6.5-11.9,12.8-23.7,19.5-35.3c1-1.7,3.8-2.4,5.7-3.5l0.9,1.2c-6.1,11.5-12.2,23-18.4,34.5
	C772.3,430.4,772.3,430.4,766.8,429.4z M840.3,282.5c16.1-30.2,31.3-60.6,34.9-95.3C875.9,223.5,862.2,254.5,840.3,282.5z
	 M814.5,123c2.2,5.1,5.8,9.5,6.9,15.1c-3.5,2.6-4.5,4.1-4.8,4.6c-2,2.8-2,6.5-0.8,9.7c1.4,3.5,4.3,6,7.3,8.2
	c1.5,1.1,3.1,2.2,4.7,3.3c3.9,3.9,7.5,7.6,4.8,13.5c-3.5,5.8-1.2,12.7-4.6,18.4c-8.7,13.5,20.9,33.8,25.3,48.3
	c-0.3,0.2-0.6,0.5-0.9,0.7C839,226.1,824.4,209,802,201.6C806.2,175.2,810.3,149.4,814.5,123z M800.2,212.8c1.5,5.5,3.1,11,4.3,16.6
	c0.2,1-1.3,2.4-2.5,4.3c-0.8-2-1.1-2.8-1.6-4.1c-1.4,3-1.7,6.1-2.6,9.2c-4.6-1.4-4.1,3.6-7,5.5c2.8-10.9,5.4-21.1,8-31.4
	C799.2,212.8,799.7,212.8,800.2,212.8z M742.7,100.7c-0.5-4.8,3.4-7.4,5.6-10.8c1.6-0.2,3.3,0,5.1,0.7c-8,9.6-3,13.1-0.6,13.1
	c16.8-1.5,17.8,9.4,18,23.1c0.8,5.3,7.5,1.8,11.6,3.5c2.7,4.8,2.1,10.6-1.4,15.2c-8.5,2.2-11.1,2.6-4.8,10.6c1,5.1,5.6,9.5,5.8,15
	c-2.8,1.9-7.5-1.3-10.2,3.5c-3.9,5.5,15.9,7.1,19.9,15.6c-0.1,0-0.3,0.1-0.4,0.1c0.2,0.1,0.4,0.2,0.6,0.2c1.2,2,1.9,4.4,1.6,7.1
	c-12.9-6.5-26.1-12-41.6-12.6c0-0.5,0-1.1-0.1-1.6c0.4-3.6,0.8-7.1,1.1-10.5c0.1-0.1,0.1-0.2,0.2-0.3c1.1-1.3,1-2.8,0.2-3.8
	c0-0.3,0.1-0.7,0.1-1c-0.2,0.2-0.3,0.4-0.5,0.6c-0.8-0.8-2.1-1.1-3.5-0.5c-3.4,1.5-6.6,3.2-9.7,5.2c-4,2.6-6.4,3.3-10.3,1.6
	c-1.6-21-0.7-42.9,3.5-65.1C736.8,111.4,742.7,107.1,742.7,100.7z M704.7,97.7c9-4.9,18.6-8.4,29.6-10.5
	c-10.2,14.6-14.2,61-12.4,107.6c0,0-14.3-3.9-37.6,4.7c-0.9,0.3-2.1-1.6-2.3-2.6C677.1,164.3,672.1,117.5,704.7,97.7z M472.1,35
	c3.5-3,7.2-3.8,12.4-2.5c-6.9,6.2-5,15.4,4.2,17c-0.1-0.5-0.1-1-0.2-1.6c3.1-4.2,9.1-8.5,12.6-2c0.6,1.3,3.1,1.7,4.8,2.5
	c0.2-0.4,0.4-0.7,0.6-1.1c-0.8-0.6-1.7-1.3-2.8-2.1c7-5.2,13.9-4.5,21.2,0.5c0.5-2.4,0.9-3.9,1.4-6.2c1.8,1.1,3.3,2.1,4.8,3.1
	c-4,8.1-10.2,9.5-18.2,8.6c-4.9,3.5-10.8,0.8-16.1,2.4c-4.6,1.8-11.2-5.6-13.1,1.7c-0.1,0.3-0.8,0.5-2.3,1.3
	c-0.4-2.9-0.6-5.1-1.1-8.7c-2.2,2.1-3.9,3.6-5.9,5.4c-2.6-1.3-7.3,1.6-9.8-3.6c2.1-1,3.8-1.8,5.8-2.7C469.6,43,467.9,38.7,472.1,35z
	 M457.7,41.4c3.8-2.2,5.3-1.9,8.6,2.3c-3.3,2.4-5.3,5.2-3.6,9.6c-3.1,0-6.1,2.3-7.8-2.1C453.1,46.7,454,43.6,457.7,41.4z
	 M451.2,54.7c-2.3,0.8-4.5,1.6-7.4,2.7c3.6,2,42.2,1.9,80.2,0.4c21.2-0.8,49.7-1.2,86.4,3.8c27.6,6.3,54.8,14.2,81.3,25.8
	c-36.4,12.9-62.3,37.2-82,68.3c-5.2-1.2-11.4-0.6-14.7-5c-5.2-12.1-19.8-18.9-31.6-11.8c-3.9-6.2-9.5-10-16.3-9.3
	c-7.1,0.7-11.1-2.7-14.3-7.8c-12-19.1-38.3-28.5-60.8-17.2c-16.4-23.7-25.2-26.6-49.4-17.1c-1-10.1-3.9-19-9-28
	C426,57,438.3,53.8,451.2,54.7z M586.2,150.8l-0.2,1.5c-4.8-1.6-25.9,1.8-19.3-7.6c4.5-6,13.9-3.2,18.5,2.1c-0.3,0.3-0.5,0.7-0.8,1
	c-5.3-2.7-10.8-4.2-17.2-1.3C573.9,148,580.1,149.4,586.2,150.8z M426.7,120.2c-7.2-3.4-9.4-11.3-5.2-18.4
	c9.1-14.7,38-18.8,40.2,3.6c-9.7,6.3-14.3-10.8-29.2-2.6c4.5,2.9,10.5,2.1,11.2,9.7C432.2,111.3,426.1,103.9,426.7,120.2z
	 M468.7,111.1c2.5,0.7,4.1,0.5,6.2-0.9c13.3-8.7,38.8-1.4,47.4,11.2c-9.7,0.5-18.4,2.8-24.5,11.5c-14.8-22.9-53-15.9-62.6,8.3
	C422.5,127,454.8,104.8,468.7,111.1z M426,135.3c1.6,0.4,2.7,2.6,4.8,4.6c-2.8,0.7-4.4,1.1-6.4,1.6c1.6,2.1,3.1,4.1,4.8,6.4h-11.8
	c6.4,1.7,12.9,2.9,16.8,9.4c15.7-11.7,14-23.2,38.5-26.4c10.9-1.9,27.2,1.3,26,15.6c-6.7-1.7-13.7-4.3-17.6,5.4
	c8-0.2,14.5-7,21.3-2.7c2.3-3.1,3.7-7.2,6-7.8c9.6-3.5,22.2-8.7,29.8,2.2c-0.2,0.4-0.4,0.8-0.6,1.2c-9.5-0.9-18.1,0.1-26.5,4.8
	c-6.8,3.4-18.5,3.4-21.4,11.3c4.5-0.8,10-4.7,14.4-2.7c3.7,3.8,7.7,2,11.6,1c16.2-4.1,32.8-2.1,48.9,1.7
	c-12.7,0.5-25.4,0.9-38.6,1.3c-11.5,0.9-31.2,4.2-48.2,2.1c2.3-3.7,3.9-6.4,5.5-9c-0.4-0.3-0.8-0.6-1.1-0.9
	c-4.2,4.2-6.5,9.8-13.8,7.7c-9-1.1-18.4-2-27.6-0.7c-12.3,0-25.2-0.7-37.6-0.5c-10.7-0.4-17.7-6.2-21.3-16
	c-2.3-8.1-19.8,2.2-21.5-5.9c-0.9-7.9,7.2-9.7,13.2-10.9c8.3-0.9,12.3-13.9,21-8.6c-7.7,4.6-15.9,9.9-12.8,20.8
	c7-17.8,24.2-13.3,31.5,1.1C416.5,136.7,420.5,133.9,426,135.3z M379,74.6c0.4-16.3,24.1-12,25.6,2.2c-1.3-1.2-2.3-2-3.2-2.8
	c-0.2,0.1-0.4,0.3-0.6,0.4c3.7,9,14.8,17.3,9.5,27.8c-1.5,2.6-1,6.2-1.6,9.3c-3.3,14.8-15-6.1-19.5-10.1c-1.4,5,0.6,10.2,2.5,15.7
	c-20.2,3.6-19.9-20.3-2.7-24.5C381.7,88.3,379.2,81.9,379,74.6z M369,63.5c1.3-5.7,6.1-8.2,11.2-9.4c15.2-4.4,30.9,8.5,32.3,25.3
	c-9.1-19.5-33.9-26.6-37.9,0.2C368.4,75.4,367.7,69.5,369,63.5z M318.7,71.7c3.6-3.8,9.2-3.8,15.7,0.2c3.8-19.5,28-16.3,33.7,0.6
	c-4.6-0.6-8.9-1.2-13.7-1.9c1.1,2.3,1.9,3.9,2.6,5.1c-4.7,1.7-9.2,3.4-14.1,5.2c-6.6-13.3-18.8-0.7-26,5.7
	C314.2,83.1,315,75.5,318.7,71.7z M220.6,140.8c-24.4,3.4-49.1,3.5-73.8,3c-3.2,0-6.7-0.9-9.5-2.4c-8.7-6.9,5.4-9.7,11.2-10.2
	c-1.2,5.1,0.5,8.1,5.4,9.9c-5.6-9.9,4.6-7.5,10.4-5.7c2.1-10.1,10.3-15.9,20.4-14c-3.5,3.9-6.8,7.6-10.2,11.3
	c7.9-1.8,15.3-3.4,22.4-5c-2.1-0.6-5.6-2.5-7-5c7.1-5.3,17.5-1.1,23.2,4.5c3.1,3.2,6.2,4.6,11.6,4.6c-2.8-1.4-4.6-2.4-6.5-3.3
	c3.3-4,8.6-4.9,13.7-2.1c4.1-11.3,12.9-13.1,23.7-11.2c-6.9-10.1-31.4-9.7-36.2,0.2c6.5,1.2,6.5,1.2,8.5,4.4c-7,0.8-19,4.9-20.1-6
	c3.8-14,23-17.8,34.8-12.3c9.1,4.5,17.7,10.9,25,18.1c0.3-0.2,0.7-0.5,1-0.7c0-2.7-1.4-4.7-2.9-6.8c-21.9-30.2,36.3-51.9,44.2-32.3
	c-16.9-3.8-29.7,3.8-27.4,16.8c1.5-1.8,2.7-3.2,4.5-5.4c2.9,5,5.6,9.6,7.9,13.6c4.1-3.4,7.6-6.3,11.2-9.1c-0.7-4.1,1.9-4.6,5.1-4.8
	c5.7-0.5,9.9,2.5,13.6,6.5c-11.2,1.5-27,13.2-16.6,24.6c-0.7-11.9,2.5-22.1,20.5-23.3c-2.2-5.3-8.7-10.6-3.9-16.1
	c8.9-8.1,17.6-2.7,16.3,8.8c6.6-6.4,15.8-9.1,21.2,0.1c4,8.3,3.8,17.5,8.8,25.6c-7.8-3.6-10.8-13.6-20.2-16.2
	c2.3,3.1,4.2,5.8,6.7,9.3c-4.4-0.9-7.7-1.5-11.1-2.1c0,0.2-0.1,0.3-0.2,0.5c6.8,3.3,13.5,6.5,20.1,9.7c-3.2,1.6-6.6,3.3-10,5
	c0.1,0.4,0.2,0.7,0.4,1.1c6.3-1.8,12.7-5.5,18.1-0.5c-10.6,4.5-21.2,10.3-20.2,23.7c-2.1,0.8-4,1.5-5.9,2.3c0.1,0.3,0.1,0.5,0.1,0.8
	c4.8,0.5,9.6,1,14.4,1.5c-10,1.8-16.9,0.2-21.8-4.5c1.7-0.7,3.3-1.3,5.3-2.1c-10.7-3.1-16.9-7.4-23.8-16.4c-0.1,2-0.2,2.9-0.2,3.2
	c-5.1,2-9.8,4.3-14.8,5.7c-8.3-0.2-12-12-9-19.3c-0.4-0.1-0.8-0.2-1.2-0.3c-1.6,2.4-3.3,4.9-4.9,7.3c-5.9-3.6-7-7.4-5-17.9
	c-9.5,5-5,13.9-1.8,21.6c-9.5-1-18.3-3.1-27.6,0.2c9.4,1.5,18.3,2.9,27.2,4.4c5.9,1,12.1,1.6,13.9,9.9c-16.5,4.2-34,1.8-50.9,3.2
	C238.3,148.6,231.2,138.4,220.6,140.8z M338.3,149.9c-0.4,0.5-0.7,1-1.1,1.5c-7.2-3.8-12.1-9.6-20.9-11.1c-0.3,1.5-0.5,2.4-0.8,3.7
	c-2-1.3-3.9-2.6-5.8-3.9c5.6-4,8.7-4,13.7-0.7C328.4,143,334.4,145.1,338.3,149.9z M129.8,406.8c-0.3-50.2,16.6-97.5,36-143
	c1.6-4.2,4.1-5.6,8.8-5.1c9.1,1,18.3,1.2,27.4,1.7c29.9-0.3,81.6,6.7,107.3-6.1c-38.2,0.7-76.9,1.8-115.3,1.7c-2.1,0.4-7-1.3-7-3.9
	c-4.4-15.1,14.2-21.4,25.6-14.4c-2.2,2.7-4.2,5.1-6.5,7.9c6.9-0.5,14.7-2.8,21-0.9c4,1.8,6.3,1.2,9.9-0.7c12-6.3,20.9-2.4,27.6,9
	c2.5-6.2-2.3-12.8,6.7-12.1c23.9,0.5,47.6,1.5,71.3-2.1c0.1,0.3,0.2,0.7,0.3,1c-44.6,9.6-81.2,65.2-49.5,105.2
	c9.2,10.8,18.9,21.3,29.3,31.1c-0.3,0.5-0.6,0.9-0.9,1.4c-7.5-3.4-15-7.7-23.6-6.7c3.2-7.3,1.3-13.4-3.9-13.4
	c-2.2-10.4-11.5-16.6-22.1-14.8c-10-1.8-18.4-3.9-25,6.2c-7.3-7.2-18.2-6.5-26.1,4c-12.2-6.3-25.2,6.2-23.3,18.7
	c-13.6-4-31,4.9-31.9,18.8c-11.3,2.1-15.7,5.3-20.6,15.2C140.7,406,135.3,406.4,129.8,406.8z M246.2,221.4
	c8.3-0.6,18.4,5.6,20.7,13.2c-3.4,0-6.8,0.5-9.9-0.2c-2.9-0.6-5.5-2.4-8.6-3c1.4,1,2.8,1.9,4.2,2.8c0,0.4,0,0.8-0.1,1.2
	c-7.4,1.4-26.9-4.6-28.9,4.1c-3.8,1-7.7,2.1-10.5-1.7c-0.2-0.2,1.1-2.4,2-3.2c6.1-5.6,12.8-2.3,20.1-1.9
	C227.9,227.5,241.4,220.9,246.2,221.4z M274.9,229c1.6-10.4,17.6-10.7,17.7,0.9c-3-0.3-5.9-0.7-8.8-0.8
	C280.9,228.9,278.1,229,274.9,229z M306.2,349.3c-16.1-16.5-18.7-47.6-10.5-62.1C292.5,308.6,301.9,328,306.2,349.3z M315.6,263.9
	c-4.4,15.1-2.6,29.8,1.1,44.4c1.7,5.4-5.7,7.8-8.4,11.6C299.4,306,303.4,273.8,315.6,263.9z M318.7,315.6c6.5,9-3,12.4-7,19.5
	C306.6,327.6,309.6,321.8,318.7,315.6z M339.1,291.1c0.1,1.3,0,2.3-0.3,3.1c-6.4,1.6-11.1,4.2-13.4,5.5c-1,0.5-1.9,1.1-2.8,1.7
	c-2.9-10.2-4.6-20.6-2.6-31.5c2.2-12,10.4-18.3,22.2-21.5C338,262.6,338.1,276.7,339.1,291.1z M327.2,316c-1.1-3.5-2.3-7-3.4-10.5
	c0.4-0.4,8.3-6.1,15.6-7.4C342.1,304.5,339.1,308.4,327.2,316z M322.8,328.6c7.3,14.9,14.2,29,21.1,43.2
	c-10.9-6.4-20.4-14.5-27.9-24.8C313.3,340.5,320.4,334.8,322.8,328.6z M357.8,415.3c7.3,1.6,8.3,3,4.6,8.1c-1.7-1.8-3.9-3.3-4.7-5.3
	c-5.3-13.2-14.9-23.4-23.4-34.4C349.9,379.2,362.8,403.2,357.8,415.3z M351.5,311.5c6.2-0.3,11.8-0.5,17.2-0.8
	c2.2,8.4-0.6,52.5-4.2,62.8C356,353.4,353.8,332.9,351.5,311.5z M350.2,305.1v-8.6c6.2-0.6,12.2-1.1,18.5-1.7
	c0.3,3.4,0.6,5.8,0.8,8.2C363,303.7,356.9,304.4,350.2,305.1z M368.9,289.8c-6.6,1-12.8,1.9-19.5,2.9c-2.1,0.3-3.2,0.3-3.2,0.3
	c1.5-14.3-8-45.8,14.4-45.3C374.1,247.2,367.3,280.7,368.9,289.8z M356.2,372.6c-7.1-4.2-21.1-29.5-24.7-45.3
	c4.5-1.8,8.8-3.4,13.4-5.2C348.7,339.1,352.4,355.9,356.2,372.6z M207.3,376.7c-3.9-3.7-4.9-9.3-2.4-13.8c2.8-5,7.6-7,13.7-4.3
	C201.9,366.1,220.3,370.6,207.3,376.7z M210.9,408.2c2.7,0.1,4.7,0.3,7.5,0.4c-4.9-1.1-9.4-4.4-8.9-8.8c3.8-6.5,11.9-1.5,16.3,0.4
	c2.4-1.3,4.4-3.2,6.3-3.2c4.8,0.1,2.5,5.4,4.1,7c27.3-1,20.8,17,2.4,8.1c-2.6-3.2-5.3-2.7-8.3-0.5c3.7-1.1,6.2-0.1,8.6,2.9
	c-0.1,0.3-0.3,0.7-0.4,1c-23.5,1.4-47.1,1-70.7,1.3c-8.7-0.4-17.7,0.3-25.9-3c0.1-0.6,0.3-1.2,0.4-1.8c4.4,0.6,8.6,1.1,13.1,1.5
	c-9.2-10.4,1.5-20.3,11-17.4c-2.4,2.5-4.8,5-7.2,7.4c0.3,0.4,0.5,0.8,0.8,1.2c9.3-7.9,13.3-1.2,19.7,6.3c2.1-1,3.6-5.7,7.4-5
	c9.4,0.5,17.9,3.3,26,7.9c0.2-0.3,0.5-0.6,0.8-0.9C213.1,411.9,212.3,410.5,210.9,408.2z M262.1,400.2c4.4-3.6,8.6-8.4,14.2-2.5
	c-3.4,0.4-6.9,0.8-10.3,1.3c0,0.5,0,1,0.1,1.6c4.3,0.5,9.2,1.5,12,5c7.4,10.7-19.3,8.5-22.9,0.4c-2.1-2.6-5.1-4.5-7.9-7
	c4.6-4.5,10.3-6.9,17.5-4.9c-1.3,1.9-2.4,3.6-3.4,5.2C261.6,399.5,261.9,399.9,262.1,400.2z M188.7,385.2c0.2,0.6,0.2,1.3,0.3,2
	c-1.6,0.3-3.2,0.6-4.8,0.9c-0.1,0.2-0.1,0.5-0.2,0.7c1.3,0.5,2.6,1,3.7,1.4c-3.4,4.7-5.2,8.4-6.8,14.3c-5-5.6-12.8-11.2-7.9-19.1
	c4.1-6.9,21-14.7,27.3-7.4C194.8,379.2,185.3,377,188.7,385.2z M163.6,572.9c7.1-21.4,3.2-47.3,18.4-65.3
	c28.7-36.6-5.4-39,37.6-69.6c0.4-0.2,0.8-0.4,1.1-0.5c-13.4,12.2-26.9,31-18.8,48.8c2.8,4.1-3.1,9.4,0.9,12.8c4,4.5,3,8.8,0.4,13.6
	c-6,10.6-11.1,22-17,32.6c-11.3,13-12.9,29.2-17,45C165.7,584.4,161.7,580.5,163.6,572.9z M211.5,695.2c-2.8,3.2-0.2,6.6-7,7.1
	c0.8-3.8,1.5-7.1,2.2-10.4c0.4-2.7-4.6-4-2-8.1c5.6,0.5,11.3,0.9,17.7,1.5C218.7,689.5,217.4,694.8,211.5,695.2z M208,658.5
	c0.6,0.3,1.4,0.9,2.1,0.8c8.7-1,14,8.9,23.1,5c3.7-0.9,7.6-1.1,11.5,2.3c-4.1,1.2-7.8,2.4-11.4,3.4c1.5,2.6,2.8,5,4.6,8.2
	c1.6-0.4,3.9-0.6,5.9-1.5c5.6-2.8,7.1,7.7,1.3,6.2c-4.9-1.1-9.5-2.5-14.7-1.9c-0.2-1.1-0.6-3-1-4.8c-0.8,0.4-1.5,0.9-2.4,1.4
	c-3.7-17.1-9.6-6.6-22.9-5c0.3-7.7,0.7-15.6,1.1-23.8h11.4c0.2-1.6,0.4-3,0.7-4.9c3,1.2,5.9,2.4,8.7,3.5c0.1,0.4,0.2,0.7,0.4,1.1
	C221.8,651.1,206.5,652.2,208,658.5z M223.8,696.3c-2.3-1.2-3.2-2.8-1.3-5.7c3.6-6.1,9.9-0.3,15.4,0
	C236,698.9,229.5,696,223.8,696.3z M249.6,715.3c-1.1,9.6,1,18.1-4,27c-5.9-8.2-11-15.4-16.4-22.8c-1.8-1.1-4.7-0.5,0-4.7
	c8.1-2.5,15-4.6,20.3-6.6C249.6,710.5,249.7,712.9,249.6,715.3z M249.5,538c0.3,0.4,0.7,0.9,1,1.3c-1.2,1.5-2.5,2.9-3.9,4.7
	c1,1.2,2,2.4,3.6,4.4c-4,0.8-6.6,1.2-9.4,3.9c2.3,0.9,4.1,1.4,6.7,1.2c-5.1,1.8-5.5,5.2-3,9.9c-3.2,0.5-6,1-8.7,1.5
	c-0.1,0.4-0.1,0.8-0.2,1.1c7.6,5.6,6.1,7.6-1.4,11.5c-2.3,5.7,4.5,5.3,8.6,4.7c-3.3,3.1-3.3,3.1-0.3,9.1c-7.6-2.1-11.2,4.3-16.9,6.3
	c0,0.4,0.1,0.9,0.1,1.3c2.2,0.1,4.4,0.3,6.7,0.4c-1.3,5.1-1.3,5.1-10.5,6.5c0.4,1.9,0.8,3.7,1.1,5.4c-0.9,2.2-5.7,1.3-3.5,5.8
	c5.5,0.2,17-3.8,15.2,5.4c-5.1,4.9-9.3,7-15.9,7.9c0.1,0.5,0.2,1.1,0.2,1.7c2.6,0.2,5.2,0.4,8.9,0.6c-15.9,13.5-8.2-2.8-22.5-3
	c-0.6,0-1.2-0.9-1.8-1.4c1.9-1.3,3.5-2.4,5.2-3.5c-2.8-1.4-4.8-1.6-7.4-3.8c2.2-2.1,4.2-4,6.1-5.9c-4.4-2.8-7-6.2-7-11.5
	c-2.7,4.5-5.1,8.4-7.6,12.4c2.8,2.6,2.7,2.6-0.9,4.7c-1.9,1.1-3.3,3-5,4.6c-1.4-1-3.3-2.4-5.3-3.9c0.6-1.3,1.2-2.6,1.5-3.2
	c-3.3-3.3,1.5-40.1,10.8-52.8c14.3-20.5,21.3-44.1,28.4-67.6c1.4-7.4-1.5-16.2-1.8-24c0.4-0.2,0.9-0.5,1.3-0.7
	c12.5,13.7,11.2,34.3,11.9,51.7c0.5,0.1,1,0.2,1.5,0.3c4.1-11.2,2.6-23.5,5.7-35c0.9,0.4,1.6,0.5,1.9,1c6.5,8.7,15.4,14.6,24.3,20.5
	c8.2,5.4,16.6,10.6,20.7,20.8c2.8-17.4-16.4-33-29.3-42.1c-17.9-10.3-23.4-31.2-31.1-49.3c1.1,1.2,2.1,2.4,2.8,3.4
	c11.6,21,27.1,38.6,45.6,53.6c6.2,5.1,12.3,10.1,16.6,17c12.2,24.1-10.8,19.4,20.3,53.9c0.4-0.2,0.8-0.4,1.2-0.6
	c-2.1-7.6-7.1-14.1-10.5-21.2c-3.2-6-3.4-12.5-2.2-19c2-9.3-3.5-17.8-5-26.8c0.4-0.2,0.9-0.3,1.3-0.5c12.4,19.4,24,39.3,41.2,55
	c5.5,7,20.3,12.2,12,22.4c-6.4,10.1-12.8,20.3-20.4,29.4c-6.4,7.2-45.8,51.5-52.9,36.6c-6.8-1.7-7.1-2.1-6.4-8.6
	c2.1-0.2,4.3-0.5,7.9-0.9c-1.9-1.7-2.9-3.2-4.1-3.5c-6.7-1.4-5.9-7.6-9-11.3c0.4-0.3,0.7-0.6,1.1-0.9c4.7,6.3,9,10.9,17.4,6.8
	c4.3-0.6,10-1.6,8.2-7.4c-2.1-5.6-7.9,3.4-10.2-2.4c-1.8-3.6-3.9-7.1-6.3-11.6c0.2-0.1,1.4-0.7,3-1.4c-2.8-1.7-5-3-7.2-4.4
	c0.2-0.4,0.3-0.9,0.5-1.3c3.6,0.3,7.3,0.6,10.4,0.9c0.9-3.4,1.7-6.3,2.7-10c-4.2-2.4-9.1-5.2-14-8.1c0.7-4.7,0.7-4.7-6-10.9
	c1.7-2.2,3.5-4.5,5.7-7.4c-3.7-0.5-5.9-0.8-7.8-1c-0.6-2.6-1-4.9-1.5-7.1c4.3-2.2,9.5,3,14.4-0.9c-3.9-7.2-10.7-3.4-16.2-4.6
	c-0.5-2.3-1-4.5-1.6-7c1.9-0.9,3.6-1.6,5.5-2.5c-1.4-3.2-7.6-2.2-6.6-7.8c2.1-0.2,4.1-0.3,6.4-0.5c0.5-3.2,0.1-5.6-3.2-7
	c-3-2.8-3.8-6.9-6.2-11c-2.7,5.3-5.3,10.3-7.8,15.2C242.7,534.2,242.2,540.5,249.5,538z M282.5,702.2c0,0.6,0,1.2,0,1.9
	c-6,5.2-16.8,2.3-22-2.3c0.5-1.9,0.7-7.8,3.4-6.5c-0.4,1.8-0.7,3.5-1,5.1C269.5,701,276,701.6,282.5,702.2z M257.5,687.5
	c-1.5-7.9,3.2-12.4,8.3-16.5c3.2-0.6,8.3,3.6,9.4-2.4c1-4.2,4.3-3.7,7.8-2.4C279.3,680.4,261.4,673.9,257.5,687.5z M256.5,736.1
	c-2.5-15.4,14-3.6,14.2-14.8c-4.4,0.5-8.5,1-12.7,1.6c0.9-4.9,4.5-8.3,9.8-8.8c-1.4,1.1-2.4,2-3.6,3c7,2.2,17-5.6,24.4-7.2
	C280.8,725.9,272.5,732.7,256.5,736.1z M287.1,773.2c-6.7-4.6-12.8-10.8-18.6-17.3l0.5-1.8c13.6-2,26.5,2,39.5,5.4
	c-0.6,2.5-1.2,4.7-2,7.5c-4.5-1.5-8.5,3.7-13.8,1.2C292,767.8,289.5,771.1,287.1,773.2z M293.6,719c8-10.1,16.1-20.2,24.1-30.3
	l1,0.8C311.5,700.3,307.1,713.4,293.6,719z M293.7,791.3c3.6-2.7,6.6-4.9,8.9-6.6c6.6,0.8,12.8,1.5,19.5,2.2
	C312.9,791.4,304.4,794.3,293.7,791.3z M462.5,801.1c-4.4,4.4-5.4-5.3-6.3-8.6c-3.5,4.5-0.6,9.3-1.7,13.8c-1.7,0.3-3.2,0.6-5.3,1
	c1.3,2,2.5,3.7,4.2,6.1c-2.6,0.7-4.9,1.4-7.9,2.2c1.2,2.7,2.4,5.2,3.5,7.8c-12.6,3.5-9.4-11-14.3-18.2c-1.9,4.8-3.8,9.7-5.9,14.9
	c1.8,1.2,4.8,2.6,3.1,6.5c1.2,1.9,3.5,3.7,5.2,5.7c-6.6,2.2-5.9-5.4-11-6.4c0.9,4.5,1.6,8.7,2.5,13.3c-0.5,0-1.9,0.4-3-0.1
	c-19.4-6.7-5-15-13.2-25.9c0.7,10.3-7.7,12.3-13.4,18.4v-17.4c-0.4,0-0.8-0.1-1.2-0.1c-0.9,4.2-1.8,8.4-2.9,13.8
	c-2-3-3.3-4.9-4.9-7.4c-2.9,4.9,1.6,8.2,1.3,12.1c-5.2-1.5-7.9-7.7-7.1-16.9c-5.1,3.9-2.5,9.9-4.8,14.2c-4.8-1.6-5.2-2.8-4.3-7.3
	c0.5-2.6-0.2-5.5-0.4-8.2c-0.5,0-1,0-1.5,0c-0.6,2.4-1.2,4.9-1.9,7.6c-4.6-1.5-3.9-5.7-5.1-8.9c-2.2,2.2-2.2,2.2-0.7,12.5
	c-6.8-1.8-5.5-9.2-9.6-13.8c-0.6,2.7-1.1,4.8-1.7,7.5c-1.2-0.7-2.4-1.3-3.8-2.1c-1.1,2.3-2.2,4.6-4,8.2c-1-3.6-1.6-6-2.4-8.7
	c-1.1,0.7-2.2,1.4-3.5,2.1c-2.6-2.5-4.4-5.3-8.8-6.1c-5.6-1.8-11.2-6.5-12.5-13.1c6.1,0.6,11.3,1.2,16.6,1.8
	c0.6,2.2-4.4,4.2-1.4,7.2c1.4,1.4,4.2,2,6.5,2.1c12,0.3,24,0.3,36,0.4c10.3,0.7,6.8-6.3,15.5-7c8.2-1.3,16.6-4,24.9-3.6
	c7.7,1.2,14.4,0.8,17.5-8.6c-3.7-1.6-7.7-3.4-12.1-5.2c-0.8-4.7-0.8-4.5-6.3-3.8c-4.1,0.5-9-1.8-12.7,0.8c-6.2,6.1-4.8,0.2-11,3.5
	c-0.8-8.5-9.6-6.2-14.3-10.2c3.2-3,8.4,3.2,10.3-2.9c-5.1-2.5-7.9-7.7-6.9-13.5c1.2-2.7,4.8-4.6,7-6.7c-0.2-0.5-0.4-1-0.6-1.6
	c-3-0.3-6-0.6-9.7-0.9c1.3-1.6,2.2-2.7,3.2-3.9c-2.8-1.1-5.4-2.1-8-3.1c0-0.4,0.1-0.8,0.1-1.1c3.8-1,7.6-2.1,11.4-3.1
	c-0.1-0.3-0.2-0.6-0.2-0.9c-6.7-1.4-18.1-5.8-9.3-13.4c-1.8-1.6-4-3.3-5.9-4.6c-2.7,4.2-5.3,8.1-7.9,12c1.7,1.6,3.7,3.3,5.7,5.1
	c-0.2,0.5-0.5,0.9-0.7,1.4c-2.6,0.1-5.1,0.2-9,0.4c2.8,2.2,4.9,3.9,7.3,5.8c-0.9,0.8-1.9,1.8-2.8,2.7c2.2,4.7,1.6,5-3.1,7.5
	c-1.6,0.9-2.3,4.3-2.6,6.7c-0.1,4,5,1.7,7.5,2.2c-8.9,8.8-17.8,4.7-27.2-6.3c-0.7,1-1.4,1.9-2.4,3.2c-3.8-7.6-16.3-17-13.8-25.5
	c1.4-3.9,0.9-6.8-1.3-10.7c-2.1,0.9-4.3,1.8-6.5,2.8c9.9-14.3,17.8-29.6,24.2-45.6c-3.5,4.1-6.9,8.1-11,12.9
	c-3-5.8-1.1-11.3-0.2-17.1c3.6-9.1,17.6-17.6,26.1-22c1.7,18.7-4.4,34.5-15.6,48.9c0.5,0.4,1,0.7,1.5,1.1c7.4-6.8,14.8-13.6,23-21
	c0.9,3,1.4,4.6,2.1,6.9c9.5-10.6,16.8-0.4,25.9,1.6c-12.6-19.9-18.8-11.4-9.7-38.5c3.5,2,3.5,2,5.7,18.8c2.7-4.3,4.3-7.3,8.7-9.3
	c4,5.1,0.9,15.8,9.5,9.5c6.9,7.8,15.7,13.4,27.3,13.8c-5.5-4.7-11.8-8.7-13.1-17.7c6.5,2.8,12.3,5.3,18.1,7.8l0.8-0.6
	c-5.7-8.3-12.8-15.8-19.9-23c-25.7-12.2-35.7-20.3-37.2-50.4c-0.6,0.1-1.2,0.1-1.2,0.3c-4,8.5-9.5,16.3-10.6,26.1
	c-1.2,6.8-7.3,11.1-12.6,15.2c14.5-20.2,20.1-43,20.1-68c-9.2,13.8-17.3,27.8-26.1,41.7c-14,18.5-33.2,31.9-50.3,47.3
	c-5.4,5-13,7.4-15.2,15.1c-2.8,4.1-15.3,7.9-21.2,5.8c5-1.5,9.7-1.2,12.6-5.1c3.9-7.9,10.9-12.2,18.1-16.6
	c21.1-14.6,36.4-36.3,55-54c17-17.2,15.2-43.2,28.9-62c2.7-4.8,15.7,6.4,20.8,7.3c-3.6-4.8-8.9-7.5-13.2-11.3
	c-2.8-2.8-5.5-2.4-7.8-0.2c-6.6,6.5-12.7,12.7-18.9,19.8c-10.6-15.1-21-29.8-31.4-44.6c18.4-10.1,30.4-27.9,46.7-41
	c-2,8.1-8.5,14.3-9.5,22.6c0.5,0.2,0.9,0.5,1.4,0.7c1.7-2.8,3.4-5.6,5.3-8.9c7.8,5.8,1.5,13.6,3,19.9c0.4,0.1,0.7,0.1,1.1,0.2
	c0.7-1.7,1.4-3.3,2.5-6.1c5.6,9.9,10.9,19.2,16.2,28.4c0.3-0.1,0.7-0.2,1-0.3c-3.8-17.6-15-32.8-15.7-51
	c6.5,16.1,14.3,31.7,24.2,46.1c4.8,7.7,7.4-4.4,13.8-4.7c-0.9,17.4-5.8,33.2-11.4,48.8c3.6,7.6-2.4,14.7-0.8,22.5
	c3.6,10.4-5.7,31.6,10,33.3c5.6,1.3,19,4.5,13.4-5.9c3.7-3.7,2.5-17.5-3-26.2c10.9-7.6,11-21.8,19.3-32.2
	c-0.4,27.2-0.5,54.4-6.8,80.7c0.8,17.5,0.3,35.2,1.8,52.7c0.5,4.2,1.5,5.3,3.3,10c3.9,9.5,3.4,18.5,10.9,25.9c2.4,2.6,3,7.2,5,10.1
	c5.6,5.2,7,12.2,9.1,19c0.9,4.4,5.2,11.3-1.2,13.5c-0.7,0.2-1.6,3-1.1,3.8C468.6,790.1,463.1,795.3,462.5,801.1z M364,788.1
	c-3.5,2.3-8-0.2-11.7,3.2c-0.9,0.7-4.1-1.5-6.3-2.4c0.7-1,1.6-2.9,2.2-2.9c3.8,0.4,6.5-1.9,9.7-3.1c4.8-1,11.1-3.9,15.4-0.2
	c-0.1,0.5-0.3,0.9-0.4,1.4h-11.2C362.7,785.9,363.3,786.9,364,788.1z M345.7,778.9c-5.1-5.2-8.9-6-9.2-13.7
	c8.6,0.6,11.6,7.5,15.4,13.8C349.8,781.1,347.8,781.9,345.7,778.9z M422,544.5c-0.5-2-0.9-4.2-0.4-6.1c5.1-18.8,8.3-37.9,9.2-57.4
	c0-6.3,6.3-35.4,14.8-21.8c2.7,11,2.6,22.3,3.6,33.7c-2.9-4.2-5.8-8.5-8.7-12.8c-0.4,0.2-0.9,0.5-1.3,0.7
	c3.6,7.5,7.3,14.9,10.9,22.4c-0.2,0.2-0.5,0.5-0.7,0.8c-2.8-1.6-5.5-3.1-9.4-5.3c2.7,8,5.1,15,7.4,21.7c-2.8-2.3-5.5-4.6-9.2-7.6
	c2.5,4.7,4.5,8.6,7,13.2c-3.5-2.1-6.3-3.7-9.1-5.4c-0.3,0.3-0.6,0.5-1,0.8l7.7,16.4c-0.3,0.2-0.6,0.4-0.9,0.6
	c-4.9-4-9.8-7.9-14.7-11.8c-0.3,0.2-0.7,0.4-1.1,0.6c4,7,7.9,14,11.9,21c-0.2,0.2-0.5,0.4-0.8,0.6c-2.9-2.2-5.9-4.5-9.7-7.3
	c2,7,9.8,6.8,12.7,12.9c-4.1-0.7-7.5-1.3-10.8-1.9c-0.2,0.3-0.3,0.6-0.5,0.9l6.5,3.8c0,0.3,0.1,0.5,0.1,0.8
	c-4.6,0.3-9.2,0.7-14.6,1.1c3.6,3.3,7,6.5,10.5,9.8c-4.6,3-8.1-1.4-12.5-1.5c-0.3,2.2-0.6,4.4-0.9,6.8c-6.8-4.8-3.4-17.4,6.4-24.3
	C423.8,547.9,422.5,546.3,422,544.5z M471.4,413.1c9.3,4.6,17.6-3.1,27-3.3c-12.2,7.6-25.3,9.1-39.8,5.2c-0.2-2.8-0.5-5.9-0.8-8.7
	C462.4,408.7,466.8,411.1,471.4,413.1z M463.6,399.3c1.2-9.9,5.5-14.9,15.3-16.8c4-0.8,7.2,0.9,7.8,4.2c0.5,8.1-11.3,6.1-17.6,6.9
	V406C463.2,405,462.9,404.5,463.6,399.3z M544.7,424.4c-9.9-2.5-20.6-9.3-30.1-1.3c8.8-3.1,18.7-0.4,24.9,6.4
	c-27.6-6.4-16.4-2-21.3,24l0.1-0.1c7.3,3.5,15.8-0.6,23.6,0c6.7,0.8,28.7-1.5,32.2,2.5c-16.4-0.2-32.9,0.6-49.1,2.2
	c-9.9,1.2-10.8-3.2-16.5-8.5c-2.8,19.4-2.7,37,9.1,53.2l-1.1,0.7c-2-1.5-4-3-6-4.6c-0.3,0.2-0.5,0.5-0.8,0.7
	c1.7,1.8,3.4,3.6,5.3,5.7c-2.8,2.6-4.5,1.3-6.6-1.5c-0.6,8-1.2,16.1-1.8,24.1c-0.5,0-0.9,0-1.4,0c1.3-32.2-1.1-64.5,0.9-96.7
	c1.1-9.8,5.7-14.8,15.9-15.2c13.5,0.4,27.9-1.7,40.7,3.1c-0.1,0.6-0.2,1.1-0.3,1.7c-6.9-0.4-13.8-0.8-21.7-1.3
	C542.4,421.8,543.5,423.1,544.7,424.4z M587.4,541.2c-0.2,0.3-0.3,0.6-0.5,0.8c-6.6-2.2-13.2-4.5-20.3-6.9c-1.2,3.3-2.2,6-3.2,8.7
	c-0.2,0-0.3-0.1-0.5-0.1c1-4.2-0.7-10.9,3-13.6c7.5-0.6,17.8-2,22.6,5.5h-7.7C583.5,537.9,585.5,539.5,587.4,541.2z M502.7,660.7
	c0.1-0.5,0.3-0.9,0.4-1.4c3.3,13.2,9.2,24.6,21.6,32.2c-13.6-1.1-16.9-15.6-21.6-26.8c0-0.1,0.1-0.3,0.1-0.4
	C503.2,663.1,502.9,661.9,502.7,660.7z M463,742.7c-2-13.8-14.1-11.9-11.8-30.5c-2.6-0.8-4.7-1.5-6.8-2.2c0-0.4-0.1-0.9-0.1-1.3
	c2.8-0.7,5.5-1.5,9-2.4c-8-2.3-14.4-12.1-4.6-16.1c7.5-0.3,14.8,3.5,22,5.2c0.1,0.2,0.1,0.5,0.2,0.7h-17.6c0,0.2,0,0.3-0.1,0.5
	c2.9,0.3,5.9,0.7,10,1.1c-2.2,1.7-3.4,2.6-4.7,3.5c6.1,1.4,11.9,2.7,17.6,4.1v1.3c-7.3,0.9-14,2.7-16.6,11.5
	c7.1-1.7,13.7-3.5,20.8-1c-5.7,3.4-11.1,6.5-16.5,9.7c0.2,0.4,0.3,0.8,0.5,1.2c5.2-1.8,10.1-5.4,16.3-2.5
	C472,728,469.4,736.5,463,742.7z M486.3,736.2c2.2,0.6,4.2,1.7,2.5,5.2c-1.3-1.2-2.2-2-3.1-2.8c-6,2.8-14.2,1.2-17.4,9.5
	C466.7,736.8,477.6,732.9,486.3,736.2z M478.8,538.1c-7.4-1.8-15-1-21.8-4.3c0.1-0.6,0.1-1.3,0.2-1.9c4,0.3,8.1,0.6,13,0.9v-25.9
	c0.4,0,0.9,0,1.3,0.1v27.2C472.4,537.2,478.7,531.3,478.8,538.1z M480.5,471.6c0.3,11.1-0.3,22.2-1.1,33.3v-65.6
	c4.7,1.1,5,3.8,4,6.3C480.1,454.1,480.3,462.8,480.5,471.6z M488.8,559.8c1-5.4-2.8-16.1,3.5-17.8c3.6-0.8,7.3,1.6,8.8,5.7
	c-2.1,0.3-3.7,0.5-4.7,0.6c-0.8,8.6-1.6,16.9-2.4,25.1c-12.4,1.7-10.1-16.2-13.5-24.3c-1.3,5.7,0.2,15.4,3.2,23.5
	c3.3,8.8,12,9.6,19.1,12.8c-5.5,2.5-15-0.9-19.5-7c-8.6-11.3-7.1-24.2-3.9-37.5C484.9,546.6,483.6,554.5,488.8,559.8z M505.9,571.6
	c-1.5-12.7-1.3-24.8-1-37.9c2.1,0.2,3.2,0.2,4.2,0.3c-2.2,11.3-2.2,22.7-0.9,34.2c1.6,6.2-0.1,15-8.6,11.2
	C506.1,578.3,506.3,578.2,505.9,571.6z M500.7,515.5c-7.2-0.2-9.1-1.7-8.8-7.7c0.5-7.9,1.5-15.8,2.2-23.7c0.4-0.1,0.7-0.2,1.1-0.3
	c3.5,5.6,7,11.3,7.3,19.7c-2.3-2-3.8-3.3-5.5-4.7C498.3,504.5,499.5,509.9,500.7,515.5z M486.2,452c5.4,9.3,10.6,18.3,16,27.6
	C491.5,479.3,483,464.1,486.2,452z M489.7,478.5c-4.8,8.9-2.5,18.1-2.8,27.7c0,9.1,6.5,15.2,12.9,20.8c-11.7-0.3-15.5-8.4-15.8-18.4
	c-0.1-11.3,0-22.6,0-34.9C486.5,475.8,488.5,477.5,489.7,478.5z M509,612.4c-16,3.6-32.8-5.5-47.2-11.9c-3.9-1.9-6.7-5.9-10-8.9
	c0.3-0.3,0.5-0.6,0.8-0.8C480.6,607.3,485.2,609.1,509,612.4z M465.9,636.6c-0.7,1.8-0.7,1.8-13.3-0.6c0,4.7-4,11.4,0.7,14.7
	c2.6,1.4,6,1.2,7.5,4.2c-4.1,2.6-9-0.7-13.4-1.5c-1.3-0.4-2.2-1.1-2.7-2c-0.3-2.9,0.1-5.9,0.6-8.8c2.8-3.4,2.1-7,3.2-10.8
	C454.4,633.5,460.1,635,465.9,636.6z M444.4,657.7c3.2,2.9,8.7,4,9.5,8.2c-2,5.3-1.2,15.2-9.1,14.7
	C440,675.9,444.6,664.7,444.4,657.7z M456.9,610.4c0.1-0.5,0.2-0.9,0.3-1.4c15.7,6,31.9,9.7,48.6,11.5
	C488.8,620.6,472.2,618.5,456.9,610.4z M527.4,528.9c8.2-1,16.6-2.2,24.3,1.8c-0.1,0.6-0.2,1.3-0.3,1.9c-17.4,0-28.7-1.7-38.2,15.6
	C512.4,535.8,516.4,530.5,527.4,528.9z M545.2,490.8c-22,3-19.2,19.8-29,22.2c6.2-17.6,22.5-29.2,40.1-25.6
	C553.5,490.7,549.1,490,545.2,490.8z M519.1,487.7c-9.2-2.7-11.5-8.2-8.6-20.2c5,1.4,10.4,1.7,14.6,5.2c-0.1,0.4-0.2,0.8-0.2,1.2
	h-13.4C511.9,480.1,522.8,479.4,519.1,487.7z M555.4,573.5c0.6-32.7,1.3-64.9,1.9-97.3c3.3-0.2,3.6,1.9,3.6,4c0,6.5,0.4,13-0.4,19.4
	c-1,15.1-5.8,66.5,2.9,76h-10.1C554.6,574.4,555.4,573.5,555.4,573.5z M497.9,431.3c-0.4-2.5-0.8-5-1.3-7.6
	c-0.3-0.2-0.7-0.3-1.1-0.5c-6,9.6,1.4,20.1,3.7,29.9c-12.9-10.6-25-28.4-2.8-37.1c5.3-1.1,10.8-1.5,16.2-2.2
	C506.7,418.8,500.7,423.4,497.9,431.3z M462.7,420c5.5,3.5,17.2,2.8,17.6,10.8c-14.1-0.6-29.8-2.5-37.9-9.2
	C447,418.7,457.2,417.9,462.7,420z M469.7,439.5c-6.3,2.5-12.2,4.8-19.2,7.5c17.6,9.4,12.9,32.3,10.6,47.9
	c0.5-12.8,1.1-25.2-4.7-36.9c-0.4,0-0.8,0.1-1.2,0.1c0.8,8.2,1.6,16.4,2.4,24.7c-4-12-5.6-25-16-35
	C448.7,442.8,461.3,433.1,469.7,439.5z M409.7,619.5c-1.9,3,1.6,7.2,2.5,10.3c-7.6,2.3-3.2-22.2-4.3-27.7c4.9,1.4,8.7,2.4,13.1,3.6
	c-0.7,2.6-1.5,5.4-2.4,8.6c-1.5-2-2.9-3.9-4.2-5.7c-0.5,0-1.1,0-1.6,0.1C409.6,616.4,415.2,619.2,409.7,619.5z M481.7,780.9
	c-3.5,6.6-5.9,14.4-13.4,17.3l-1.3-1.1c1-1.8,1.6-4.2,3.2-5.3c12.1-7.6,1.1-24.8,18.3-27.1C486.4,769.8,484.3,775.4,481.7,780.9z
	 M475.3,766.2c-1.8-10.8,5.8-19.5,17.8-21.7l-5.3,2.7c5.5-1.3,9.8-0.2,13,5.8C489.8,751.9,481.3,755.6,475.3,766.2z M513.5,794.2
	c-3.4,0.4-6.7,1.5-10,2.3c-0.2-0.5-0.5-0.9-0.7-1.3c3.1-3.1,8.8-4.6,6.6-9.9c-2-6.5-4.1-13-5.7-19.6c-1.1-6.5,4.2-12.6-0.4-18.8
	c-4.2-8.3-9.7-16.6-13-25.1c2.8-8-2.2-13.5-7-18.9c0.3-0.2,0.5-0.4,0.8-0.5c1.4-5.5-2.7-10.4,0.2-15.3c4.1-9.1,8.2-18.2,12.5-27.8
	c0.3,2.1,1.5,4.2,2.3,6.2c0.2,0.6,0.5,1.2,0.7,1.8c2.1,13.6,7.6,26.6,8.2,40.4c2.5,12.7-6.3,25.8,2.3,37.5c1.7,5.9-0.9,13.1,0,19.3
	c0.9,8.5,4.1,16.7,6.4,24.8C517.4,791.9,516.8,793.8,513.5,794.2z M523,788.5c0.8-4.4,1.6-8.9,2.5-13.4c-3.5-1-5.9,3.8-8.3,0
	c-0.3-0.5,1.1-2.1,2.2-4c-3.8,0.1-5.6-0.7-7.1-4.5c8.7-1.2,14.3,0.9,14.9,5.2C528.6,782.1,527,787.8,523,788.5z M537.1,551l0.2,1.1
	c-8.1,5.1-19.1-0.5-20.3,12c-0.5,2-1.4,3.8-2.6,5.6c0.9-8.8-0.8-17.9,5.9-25.5c5.8-6.6,16.1-10.8,28.3-6.6c-3.6,1.2-6.6,2.2-9.9,3.3
	c0.7,1.1,1.2,1.8,2,3c-6.4-0.5-12.6-0.8-17.9,4.3C527.5,549.2,532.3,550.1,537.1,551z M615,687.4c0.3-7.4,6.7-14.7,16.2-10.9
	c-10.5,11.7,1,14.6-16.3,26.6C614.9,697.9,614.7,692.6,615,687.4z M656.3,726.9c-2.1-3.2-4.3-6.6-6.5-10c1.3,5.1,2.7,10.2,4.1,15.7
	c-5,0.6-9.3,1-14.6,1.6c3.5-6.7,6.5-12.5,9.5-18.4c-0.6-0.8-1.2-1.5-2.2-2.9c-2.5,4.1-4.7,7.9-7,11.6c-0.3,0-0.5,0.1-0.8,0.1
	c-0.8-7,2.9-17.8-5.3-21.1c-2.2,0.7-2.9,7-1.2,5.8c1.3,4.6,2.5,8.7,3.6,12.9c-0.5,0.2-0.9,0.5-1.4,0.7c-1.7-1.8-3.4-3.6-5.1-5.4
	c-0.3,0.1-0.6,0.3-0.9,0.5c1.3,4.2,2.6,8.3,3.9,12.5c-0.4,0.2-0.7,0.4-1.1,0.6c-2.5-1.4-5-2.9-7.9-4.5c0.1,3.6-1.1,5-3.3,7.4
	c-13.7-8.9,11.7-38.1,16.5-48.9c0.4,0.6,0.8,1.1,1.2,1.7c5.5,0.2,16.8-6.1,15.7,4h-12c-0.1,0.3-0.1,0.7-0.2,1c3,1.3,8.3,1.2,3.2,8.1
	c4.8-0.2,8-0.4,11.8-0.6V726.9z M701.7,715c-8.2,4.6-8.2,4.6-8.9,6.8c5.8,0.7,11.6,1.3,17.3,2c-0.1,0.7-0.1,1.3-0.1,2
	c-8.2,0.8-15.5-3.9-22.8,2.1c-1-1.2-2.2-2.6-3.8-4.5c0.2,3.1,0.3,5.7,0.4,8.3c-0.5,0.2-1,0.4-1.5,0.6c-1.4-2.7-2.7-5.3-4.3-8.4
	c-0.2,1.6-0.3,2.9-0.4,4.2l-1,0.4c-1.8-3.9-3.5-7.8-5.4-12c-1,0.4-2.5,1-5,2c-1-4.5-2-8.7-3.1-13.6c3.6,0.1,5.5,1,8.2,0.9
	c5.3-3.1,11.1-4.1,17.1-4.7c0.6-0.1,0.8-3.2,1.3-4.9c-0.4-0.2-0.7-0.4-1.1-0.6c3-1.5,5.9-3.1,9.2-4.8c-5.1-5.2-10.5,2.6-14.8-1.3
	c-4.5-4-9.8,4.7-14.2-1.7c3.9-0.9,7.7-1.8,11.6-2.7c0-0.4,0-0.7,0.1-1.1c-1.3-0.8-2.5-1.7-4.2-2.8c4.5-0.2,9.4,3,13.6-2.8
	c-3.1-0.3-5.1-0.5-7.5-0.8c1.2-0.8,2.2-1.4,3.9-2.6c-2.3-1.1-4-1.9-6-2.8c2.6-5.2,8.5-2.1,12.3-4.7c-2.5-7.3-14-0.7-18-8.8
	c5.2-0.7,10.3,3.2,15.5-0.9c-7.4-5.6-8.2-7.9-5-16.8h-9.3c0.9-2,1.5-3.2,2.1-4.5c-0.4,0.1-0.9,0.2-1.3,0.4c-2.2-4-3.6-9.1-6.2-12.6
	c-8.3-5.2-4.4-15.2-10.1-21.5l-1.4,0.7c-0.3,12,2.9,13.1-5.1,23.6c-3.5,4.2,0.1,5.4-0.9,10.5c-2.2-0.2-3.9-0.4-5.6-0.5
	c-0.3,0.3-0.6,0.6-0.9,0.9c2.1,2.3,4.3,4.7,6.6,7.2c-11.2,0.5-22.2,7.5-8.3,15.5c-2,0.3-4.8,0.7-8.5,1.3c2.4,2.3,4.1,3.9,5.8,5.5
	l-0.5,1c-4.6,0.3-8.3-2.9-12.5-4.4c-2.7-1.2-2.3-3.7-1.7-5.5c1.9-3,7.1-2.5,9.7-5.2c-2.6-5.9-9.7-5.3-14.9-7.6c0-0.4,0-0.8,0-1.3
	c5.9-1.3,13.8,2,17.8-3.5c-4-5.2-10.4-1.2-15.9-3.1c3-2,5.5-3.6,9-5.9c-4.8-3-8.9-5.4-13-7.9c0.1-0.3,0.1-0.6,0.2-0.9
	c4.6-1.3,5.4,4.3,9.6-1c3.3-7.3-7.6-8.3-11.7-12.4c12.5-3.6,9.5-3.4,2.2-10.8c9.8-5.4-9.1-9.4,0.7-13.3c-8-5.7-1.2-10.2-6-17.7
	c-1.5,4.4-1.5,4.4-9.1,9.6c9.4,7.1-7.9,9.1,0.7,12.7c-2.4,2.2-4.6,4.2-7.9,7.2c3.2,0.7,5,1.2,7.1,1.7c-3.5,2.1-11.3,2.4-9.5,8.4
	h10.3c0.4,1.6,0.7,2.8,1,4.1c-3.6,2.6-8.9,1.2-12.6,5.8c3.3,0.2,5.6,0.4,8.8,0.6c-4.3,5.5-4.8,10.2,2.8,13.3
	c-0.3,0.2-0.6,0.5-0.8,0.7c-3.1,0.3-6.1,0.7-9.5,1c-0.1,1.5-0.2,2.9-0.4,5c-7.6-2.3-11.6,4.3-17.6,6.5c2.6,3.8,6.8,4.4,11.8,2.4
	c4.6-0.7,24.1-2.8,16.8,6.3c-1.1,0.9-4.2,1.3-4.8,0.6c-4-5.3-7.7-2-11.7-0.3c-3.8,1.6-7.9,2.4-12.5,3.8c3.7,5.8,11.9,2.3,15.2,8.4
	c-2.7,1.2-5.5,2.4-8.3,3.6c4.9,8.9,14.9,1.5,22.8,1.7c0.6,3.3,0.6,4.8-2.7,4.2c-2.5-0.5-5.1-0.1-8.3-0.1c1.9,4.2,5.9,3.6,8.7,5.6
	c-1.3,5.2-5.9,4.6-10,5.3c-0.7,2.1-1.4,4.2-2,6c-4.6-0.8-8-1.9-12.1,0.4c1,2.5,1.6,4.3,3.2,6.8c-2.3,0.4-4.1,0.8-6,1.2
	c0.2,5.5,21.2,6.2,28.6,5.5c-1,10.3,2.8,21.5-1.2,32.5c-0.5,0.1-1,0.3-1.5,0.5c-2.7-4.6-5.3-9.3-8.3-14.4c-1.1,4.4-2.2,9.1-3.6,14.8
	c-1-2.5-1.6-3.9-2.4-5.6c-4.2,2.9-0.5,7.4-2.6,10.9c-5.4,0.7-3.8-5.5-7.2-7.6c-0.8,2.1-1.6,4.1-2.5,6.3c-5.7-3.6-2.7-10.3-6-15.5
	c-0.7,2.7-1.2,4.6-1.7,6.5c-1.4-0.1-2.7-0.2-4.9-0.4c2.7,5,8.3,8.4,5.7,15.1c-2-1.3-3.7-2.5-5.8-3.8c-0.1,2.1-0.2,3.8-0.3,5.2
	c-2.8-3.1-5.6-6.2-8.4-9.4l-1.1,0.8c0.6,5.3,6,9.7,3.5,16.1c-2.3-1.1-4.3-2-7.4-3.5c1.3,3.8,2.3,6.8,3.4,10
	c-6.9-1.2-10.2-6.5-9.1-12.4c1.7-8.8,2.3-17.8,4.2-26.6c1.8-7.8,0.7-14.9-1.9-22.3c-2-10-3.5-20.8-2.8-31c0.9-7.8,1.2-15.9,3.2-23.5
	c1.1-3.2,2.5-6.2,0-9.4c-0.6-3.4,2-7.3,1.7-10.7c-0.2-4.2-0.5-7.9,2.7-11.6c1.4-1.6,1-5.4,0.4-8c-1.9-10.3,9.9-17.2,18.3-19.5
	c22.6-4.8,19.9-29.2,23.6-47.1c11.1-0.6,18.1,9,27.9,13.7c-1.1-3.1-2-5.8-2.9-8.5c0.4-0.3,0.8-0.6,1.2-0.9
	c10.8,8.4,13.3,23.1,17.7,35.4c0.4,0,0.8-0.1,1.1-0.1c0.6-1.2,1.2-2.5,1.9-3.8c1.3,3,2.7,5.9,4,8.8c0.6-0.2,1.2-0.3,1.8-0.5
	c-1.3-10-2.6-20-3.9-30c0.2-0.2,0.4-0.3,0.7-0.4c11.7,23.1,21.3,47.4,35.2,69.3c-1-5.6-1.9-10.3-2.7-15c0.4-0.2,0.8-0.4,1.2-0.7
	c3.2,4,6.5,8.1,9.7,12.1l0.9-0.4l-8.7-25c0.5-0.2,1-0.5,1.6-0.7c5.9,7.1,7.2,16.6,10.1,25.2c6.6,22.8,18.7,42.1,36,58.2
	c6,4.7,10.1,10.1,12.3,17.5c-4.5-1.1-7.9-0.7-10.6,2.6c-5.5-2.2-9.2,2.3-12.7,4.5c-5.2,3.4-11.6,2.1-16.4,5.9
	c-8.1,2.3-17.2,1-25.6,2.7C680.5,720.9,693.3,713.9,701.7,715z M751.3,739c-2.1,2.1-4.4,3.1-6.8,0.2c-1.3,1.4-2.4,2.6-4.5,4.8
	c-2.1-4.7-3.9-8.7-6.1-13.5c-2,2.4-4,4.8-6.5,7.7c-0.4-2.4-0.7-3.8-1.1-5.9c-1.8,1.1-3.2,2-5.5,3.4c-2.2-6.4-3.3-15.1,6.1-13.8
	c13.1-0.2,26.2-0.5,39.1,2.3C761.6,728.7,756.5,733.9,751.3,739z M765.8,688.3c-2.2-0.9-4.8-1-7.2-1.4c-2.7-4.6-4.6-1.4-7.8,0.5
	c0.9,1.2,1.8,2.3,2.8,3.6c-1.9,1.1-4,2.4-6.6,4c0.4-5.9,0.8-11.8,1.1-17.7c6.7-0.7,11.4,1,12.1,8.2c3.6-1.4,6.3-2.5,9.4-3.7
	C770,685.3,770.7,690.4,765.8,688.3z M776.4,681.4c-0.4-1.9-0.6-2.9-0.8-3.9c-6.1,0.2-10,6.9-14.9,0.4c1.8-2.4,5.2-5.1,4.8-7.1
	c-0.8-4.1,5.1-2.9,3.6-6.6c-4.2,0-9,0.1-10.3-6c0.6-0.9,1.4-2.1,2.7-4h-10.2c0.4-5.7,9.5-9.4,23.7-10.2c-1.8-8.7,13.3-6,16.5,0.3
	c-5.4-0.6-8.7-1.1-14.1-2.1c5.7,6.3,11.3,11.2,20.1,5.4v11c-1.8-0.1-3.6-0.2-6.4-0.4c2.1,3.7,3.6,6.5,5.1,9.2
	c-0.3,0.2-0.6,0.5-0.9,0.7c-2.3-1.4-4.7-2.8-7.2-4.2v10.1c1.3,0.5,3.5,1.4,5.7,2.4c0,0.5-0.1,0.9-0.2,1.3c-4.3,1.3-14.3-3.8-11,4.5
	C780.3,681.8,778.1,681.6,776.4,681.4z M795.8,704.8c-1.2-0.9-2.4-1.8-4-2.8c-0.9,0.4-2,0.8-3.6,1.5c-1.4-1.1-2.9-2.3-4.7-3.7
	c2.2-1.8,3.4-2.8,4.6-3.7c-1.8-2.4-3.4-4.7-5.2-7.2c5.1-1.5,9.1-2.7,13.8-4.2C796.6,691,800,699,795.8,704.8z M801.7,543.9
	c-1.9,0.5-3.9,1-6.9,1.8c1.7,2.9,3.1,5.5,4.8,8.4c-5.4,1.2-7.5,2.6-5.5,8.6c-1.5,1.9-4.4,3.5-2.1,6.9c-1.8,3.1-5.7,1.8-9.3,0.9
	c0.5,13.4-3,12.3,10.5,10.3c-3.7,8.1-10.3,3.9-15.2,5.4c-0.3,5.1,0.6,5.9,5,5.3c4-0.6,8-0.8,12-1.2c0.1,0.5,0.3,1,0.4,1.5
	c-3.1,1.4-6.3,2.8-9.6,4.4c1.9,2.1,3.2,3.5,3.9,4.3c-3.6,4.5-6.8,8.5-10.5,13.1c-6.5,0-8.2,7-13,11.2c1.5,0.8,2.4,1.2,3.3,1.7
	c-2.9,0.6-5.8,1.1-9,1.8c1.1,3,1.4,4.5,4.7,3.9c4-0.8,8.3-0.1,11.1-4.1c0.2-0.3,1.5,0,2.5,0.1c-4.5,5.7-5.8,6.4-14,7
	c0.7,1.5,1.3,2.9,2.2,4.9c-4.9,3.6-10.4,4.7-16.2,4.8c-0.1-0.3-0.3-0.7-0.4-1c1.1-0.6,2.2-1.1,3.7-1.9c-7.8-3.2-4.3-11.4-8.3-17
	c-1.4,3.8-2.7,7.5-4.2,11.9c4.8,3.3-2.4,6.2-1.6,9.8c1.6,6.9-6.5,3.6-8,8.5c3.3,0.3,6.5,0.6,9.7,0.8c0.1,0.4,0.3,0.7,0.4,1.1
	c-4,2.2-7.1,3.2-11.9,4.5c3.7,4,7.8,1.3,11.5,2.7c0.6,4.3-4,2.5-5.9,4.5c5.6,4.5,5.8,10.5,5,16.8c-11.1-9.3-35.7-50.2-35.6-59.9
	c7.4,9.8,14.5,19.2,21.5,28.5c0.3-0.2,0.7-0.4,1-0.5c-2.1-4.9-4-9.9-6.2-14.8c-3-6.6-2.8-7.8,3.5-11.6
	c17.4-10.4,32.4-26.1,40.4-44.6c0-9.1,0-18.3,0-28.8c-8,16.4,2.9,24.4-16.1,39.9c-10.7,7.5-22.7,26.7-33.9,29.8
	c-1.5-8.2,6.9-14.1,6.2-22.4c-3.8,6-7,12.4-13.1,16.6c-3.3-2.5-1.7-5.3-0.9-7.8c12.1-31.9,20.6-65.5,35.1-96.3
	c5.8,1.9,3.2,4.8,2.5,7.4c-0.8,2.7-1.4,5.3-2.2,8.1c6.2-2.4,12.1-4.7,18-7c0.2,0.5,0.4,1,0.6,1.6c-10,4.5-21.7,7.9-21.7,21.1
	c-0.7,12.8-1.6,25.6-2.4,38.4c-0.1,1.3,0.1,2.6,1.1,4.4c6.2-14.7,9.9-30.5,12.1-46.4c0.5-11.4,11.1-16,21.2-18.7
	c-1,2.1-2,4.3-3.1,6.4c4.7-3.2,8.8-6.9,10.8-12.3c3.8-10,9.5-18.5,18.7-24.5c5.9-4.5,10.3-10.9,16.4-15.4
	c9.2,6.5-10.6,10.9-11.2,36.8c-4.8,9.7-0.3,19.4-7.8,22.2c-0.5,0.2-0.7,1-1,1.4C796.2,540.8,802.3,538.3,801.7,543.9z M840.9,656.1
	c-0.5,4.5-1.1,9-1.6,13.5c-0.3,0-0.7,0.1-1,0.1c-0.2-2.8-0.5-5.7-0.7-8.5c-0.4-0.1-0.8-0.2-1.2-0.4c-1.6,2.3-3.2,4.6-5.1,7.3
	c-2.8-4.9-0.5-8.8,1.3-12.7c1.2-2.5,3-2.9,8.6-2.5C841,653.9,841,655,840.9,656.1z M848.8,598.9c-1,3-2.2,5.9-3.4,8.8
	c-2.2,5.4-2.4,5.5-9.2,3.6c0.8-8,2.6-16.3,2.5-24.5c-0.1-0.7-1.3-1.2-2.9-2.6c0.5-2.3,4-13.9,7-6.3c0.3,5.2,0,10.5,0.5,15.7
	c0.5,0.2,0.9,0.4,1.4,0.7c1.9-1.7,3.8-3.3,5.7-5c0.3,0.1,0.6,0.2,0.9,0.3C850.5,592.7,849.8,595.8,848.8,598.9z M875.4,527.3
	c-2.7,9.8-5.3,19.8-8.8,29.4c-0.3,0-0.7-0.1-1-0.1V534c-1.8,0.9-4.2,0.2-5.2-1.6c-7.3-12.3-1.7-28.6-3.6-42.2c-0.2-1.7-3-0.5-4,0.3
	c-0.1,0.3-2.9,1.9-2.1,7.1c0,0.1,0.8,4.1,0.7,6.1c-0.1,1.1-0.6,2.1-1.4,2.8c0.2,3.2,0.4,6.3,0.1,9.3c-0.8,5.9-3.8,11.2-3.2,17.3
	c0.5,4.9,2.3,9.6,2.7,14.6c0.4,4.7-0.9,8.6-3.5,11.5c0.1,3.1-0.6,6.2-2.4,6.9c-2.3,1-5.7-0.4-9.1-0.9c-0.8,6-1.7,13.2-2.7,21.1
	c-12.9-8.5,13.2-19.2-12.7-28.1c9-5.9,1.5-9.2-5.1-11.6c1.9-0.9,3.5-1.7,6-3c-4.7-3.2-8.6-5.8-12.4-8.4c0.3-0.5,0.6-1,0.9-1.6
	c16.5,10.1,15.5-5.5,20.1-16.6c-5,0.4-9.8,0.8-15.7,1.2c4.9-11.6,12.2-20.1,14.6-32.5c4-9.8,8.8-18.3,4.9-29.1
	c-1-3.8-0.5-7.2,1.8-10.4c5.4-7.7,9.4-16,12.1-25c0.9-3,2-6.2,6.9-6.4c-0.3,8.9-8.9,18.6,1.2,24.9c2-6.2,4.1-12.4,5.9-17.8
	c6.4,8.4,13.6,17.2,20,26.4C890,473.5,880.5,502.1,875.4,527.3z M886.8,438.7c-8.7-8.5-15.8-17.2-24.1-25.9c-3.2-3.4-7.1-4-11.8-3.2
	c-8.8,1.5-15.4,5.2-19.5,13.5c-5.2,11.1-15.3,19.8-17,32.4c-2.5,13.6-16.9,19.6-26.7,27.6c-12.3,7.2-15.1,21.5-23.9,31.8
	c-5.3,6.6-11.1-5.3-16.3-7.3c-8.3-6.3-16.6,10.8-22.5,15.4c-6.3,9-16.2,16.2-17.2,27.9c0.4,8-15.6,43.3-24.8,33.1
	c-14-13.2-23.4-32.2-41.6-40.1c-12.5-4.7-21.4-14.5-30.4-23.8c-7.4-7.6-7.4-7.6-14,0.3c-2.1,2.5-4.4,4.8-6.8,7.4
	c-8.6-7.7,4.2-14.2-2-26.8c-4.7-10.6,4.6-23.3-7.4-30.9c3-5.2,5.6-10.2,2.2-16c-0.3-0.5,0-1.6,0.3-2.4
	c11.3-30.2-20.6-44.2-43.8-41.4c-15.5,1.1-18-15.2-35.8-2.5c-0.2-9.8,0.9-19.2-8.7-24.7c-14.2-10.2-38-3-36.2,16.7
	c-7.7-1.6-8.2-0.6-5.3,10.4c-28.5,4.9-21.4,12.1-2.4,25.5c-26,13.8-26.7,44.3-29.2,70c-0.6,8.7-16.2,13.1-21.2,5.8
	c-8.2-12.1-15.9-24.6-23.5-37c-3.6-4.9-6.5-5.4-11.1-1.4c-14,12.1-27.5,24.7-42,36.2c-7.3,7.7-11.5-2.1-16-7.4
	c-10.2-16.8-23.8-13.3-31.4-24.7c-6.1-10.7-14.8-18.7-24.7-25.6c-8.2-5.7-16.2-11.7-24-17.9c-3.5-2.7-6.7-3.2-10.4-0.9
	c-9.7,7.7-31.2,14.2-33.3,27.1c-2.4,33.1-32.6,28.7-34.8,64.5c-10.5-10.5-21.1-68.8-19.6-103.6c62.9,0.9,124.8,3.6,187.5-2.5
	c-0.6-8-13-3.6-18.2-9.3c-3.5-2.7-6.4-2.3-14.8-0.2c-0.5-18.6-30.6-27.9-39.1-10.8c1.9-9.7-11.8-22.4-16.2-8.7
	c-0.2,0.3,0.4,1.1,0.8,1.8c0.7-0.4,1.2-0.6,1.4-1c6.3-10,10.2,3.6,9.4,9.5c-22.1-15.9-21.7-0.6-34-7.1c-2.6-1.4-2.7-4.1-1.5-6.6
	c4.4-9.3,15.1-4.7,23.3-4.2c-17.2-17,15.6-35.2,8.8-9.2c7.3-4,4.4-7.5,7.9-12.7c0.6,0.1,0.6,0.1,1.2,0.3c0.3,1.4,0.5,2.8,0.8,4
	c6.4-1.7,12.8-3.5,18.8-5.1c-14.6-0.2-2.8-18,3.2-11.3c8.8-1.8,15.3-0.3,19.9,9.4c-4.8-0.8-8.5-1.8-13.2-1.1
	c14.4,3.4,16.3,4.9,16.7,13.8c-1.8,2.2-9.8-1.7-6,5.8c-4.2,0.4-12.3-2.9-14.3,1.2c13,7.6,37.5,4.3,53,6.9
	c7.4,0.3,20.7,25.7,27.3,32.8c-2.6,2.4-5,4.6-7.3,6.8c5.5,4.6,8.3,9.5,7.6,17c-0.2,5.6,0.1,5.9,5.8,6.3c4.8,0.4,9.7,0.1,14.5,0.2
	c8.9,0.1-3.4-14.6,13.2-22.8c-3.4-2.4-6-4.2-8.8-6.2c7-9.1,13.3-17,19.2-25.2c18.5-27.3,55.7-40.8,57.4-77.9
	c4.6-41-31.3-74.1-69.8-78.6c-29-3.5-59,0.6-87-9.1c-2.8-14.4-24.4-13.5-27.7,1.1c-9.3-12.9-30.4-17.5-40.4-3.3
	c-0.8,1-2.5,1.5-3.9,1.9c-5.2,1.1-10.6,3.5-15.9,3.5c-14.8-4.4-25.4,2.1-27.8,17.2c-8.3-4.7,2.6-13.9,5.3-19.3
	c17.6-26.3,37.4-51.2,61.4-72c9.2-4.8,27.9,1.5,39,0.6c23.5,2.8,63.5-6.8,80.8,8.9c-5.6,2.2-11.8,0.1-16.5,3.6c0,0.5,0,1.1,0,1.6
	c83.2,0.5,166.6-1.2,249.5-9c1.2-0.7,2.6-0.8,3.8-0.4c1.7-0.2,3.4-0.3,5.2-0.5c-1,3.7-4.9,7.6-8,19c-2.9,11-4.4,22.9-3.5,35.4
	c-28-25.3-84.5-17.3-88.3,24.7c-4,36.6,31.9,37.4,45.8,79.2c0,0-1.1-0.8-1.3-0.4c-0.5,1.4,0.9,1.3,0.6,5.8c-1.2,5.8,1.9,7.5,6.5,7.6
	c2.8,0.1,5.1-2.1,5.5-4.9c0.5-4.8,0.9-10-1.9-8.8c7.6-20.3,24.5-35.6,37.9-53c1.4-4.3,3.6-8.4,5.1-12.8c9.8,21.7,27.3,45,56.2,69.8
	c4.3,4.1,8.3,8.4,10.2,13.9c2,3.1,3.8,6.4,5.3,9.8c0.1,0.2,0.1,0.4,0.2,0.6c2.2,4.1,4.2,8.5,6.8,12.4c-5.5,5.3-14,8.2-14.8,17.6
	c-7.8-1.7-15.6-4.8-22.5,2.2c-10-12.6-34.2-6.9-35.2,10.9c2.4-10.4,19.8-18.7,27.5-13.6c-1,3-1.9,5.9-2.8,8.7
	c0.4,0.4,0.5,0.4,0.9,0.8c3.3-1.4,6.2-7.3,9.6-1.8c4.2-0.8,7.3-3,10.6,0.1c-0.2,0.4-0.4,0.8-0.6,1.1c-1.2-0.8-2.8-0.8-4.2-0.9
	c0.2,5.7,8.3,7.8,13.4,7c4.9-0.9,8.9,1.1,12.4,5.5c-22.2,2-44.8,1.5-67.1,2.4c-11.4-0.3-22.7-2.8-34.2-2.4c-0.1,1.1-0.1,0.8-0.1,1.9
	c43.3,7.9,88,4.2,132.3,6.3c4,7.6,8.3,15.6,12.7,23.9c-21.2,15.6,4.4,8.7,1,33.8c0.4,6-3,17.4,5.2,18.7c11.8,1.8,23.8,2.3,35.8,2.9
	c19.4,1.5,2.8-32.1,12.7-39.9c10.6-7,3.3-9.8-2.7-16.8c4.5-6.2,16.5-37.5,22.5-37c28.5-1,56.8,2.8,85.2-0.9
	C886.9,405.9,887.3,421.6,886.8,438.7z M407.6,248.7c21,11.9,17.2,39.9,10.1,59.6c-3.2-2.1-5.8-3.8-8.7-5.7
	C413.5,284.7,415.7,266.8,407.6,248.7z M410.2,340.1c-5.6,11.7-14,20.7-25.2,28c5.2-11,10-21.3,15-31.9
	C402.9,337.3,406.2,338.5,410.2,340.1z M377.6,288.8c-3.3-11.1-1.9-25.1-3.7-36.9c-0.5-5.6,0.7-6.9,6.5-5.9
	c13.5,1.7,21,15.9,21.5,29.6C401.9,281.8,401.1,308.6,377.6,288.8z M379,319.1c3.7,2.4,12.2,2.7,12.5,8.4
	c-2.6,16.2-7.6,32.3-18.7,44.8C374.8,354.9,376.8,337.4,379,319.1z M394.4,377.9c3.1-1.9,6.3-3.6,9.4-5.3
	c-10.8,14.1-21.5,28.2-31.6,41.3C371.8,398.2,380.4,386.4,394.4,377.9z M434.6,277.7c4.8,15.9,1,30.7-5.1,45.6
	C417.7,314.3,436.7,307,434.6,277.7z M443.1,310.7c0.2-1.1,0.7-2.1,1.1-3.2c1.1,16.5-6.1,29.5-16.7,41.1c-0.4-0.1-0.9-0.2-1.3-0.3
	c0.1-1-0.1-2.5,0.5-3.1C435.9,335.4,440.3,323.5,443.1,310.7z M534,213.7c-0.2,7.9,0.1,15.8-0.8,23.7c-0.2,2.3-3.5,4.4-5.4,6.6
	c-0.5-0.3-1-0.6-1.4-0.9C527.5,233.5,522.3,217.9,534,213.7z M534.4,246.9c3.6,11.6,7.2,23.3,11,35.4c-11.5-5-13-17.5-15.1-28.4
	C529.6,250.1,530.7,249.1,534.4,246.9z M556.8,286c-0.4,0.2-0.9,0.3-1.3,0.5c-8.9-11.8-13.6-26.1-15-40.8c-0.5-4.7,1.9-6.1,10.2-5.6
	C551,247.1,554.7,277.7,556.8,286z M552.6,232.2c-4.6,1.3-8.8,2.4-13.1,3.6c-3.5-13.3,0.7-22.7,13.1-24.1V232.2z M557.2,309.7
	c-4.9-7.3-9.6-14.4-14.5-21.6C554.5,292.2,560.6,301.2,557.2,309.7z M557.9,239c9-2,15.8-2.8,13.9,8.6c-1.1,13.4-4.2,26.5-9.6,38.8
	c-0.4,0-0.9-0.1-1.3-0.1C559.9,270.5,558.9,254.9,557.9,239z M558.4,213.7c0-2.4,1.2-3.1,3.4-3.2c10.4,0.7,12.5,14.6,11.3,22.7
	c-4.9-0.5-9.6-1-14.8-1.5C558.4,225.9,558.4,219.8,558.4,213.7z M580.7,244.6c0.8-0.3,1.6-0.5,2.5-0.8c8.3,7.9-4.4,35.2-13.5,39.8
	C572.2,273.7,581,248.9,580.7,244.6z M579.8,226c0.6-3.1-0.4-6.5-0.7-10.5c9.1,5.7,8.7,14.5,9.5,23.4
	C581.8,236.6,578.4,233.1,579.8,226z M518.5,256.8c-3.9-13.3-2-25.7,5.2-37.3C519.7,231.7,525.3,245.2,518.5,256.8z M878.4,382.6
	c3-0.1,6.1-0.3,9.1-0.5c-0.8-5.6-1.7-6.7-8.5-9.4v-4.5c6-0.5,10.4,4.6,12.5,14.5c4.2,0.4,8.4,0.8,13,1.3
	C899.1,387.2,882.5,386.7,878.4,382.6z"/>
</svg>
