<?xml version="1.0" encoding="utf-8"?>
<!-- Generator: Adobe Illustrator 26.0.1, SVG Export Plug-In . SVG Version: 6.00 Build 0)  -->
<svg version="1.1" id="Слой_1" xmlns="http://www.w3.org/2000/svg" xmlns:xlink="http://www.w3.org/1999/xlink" x="0px" y="0px"
	 viewBox="0 0 1191.6 3343.9" style="enable-background:new 0 0 1191.6 3343.9;" xml:space="preserve">
<path d="M82.4,107v1020.4c340.6,0,681.2,0,1021.8,0V107H82.4z M879.7,145.2c0.1-1.5,0.4-2.5,1-3.3h102.2
	c-18.4,20.3-41.5,37.7-58.9,59.8c-17.2,20.5-31.5,44.5-49.8,63.7C871.9,225.7,879.3,185.2,879.7,145.2z M891.8,275.8
	c16.2-20.8,30.6-43.3,49-62.5c24.2-25.1,46.4-55.6,77.9-71.3c0.2-0.1,0.3-0.2,0.5-0.2c0,0.1,0,0.2,0,0.2c0.1,1.2,0.6,2.6,0.1,3.4
	c-12.8,21.4-26.4,42.5-43.5,60.7c-15.2,16.4-36.1,26.2-51.3,42.6c-5.2,5.8-10.8,11.6-14.7,18.2c-13.3,19.6-32.3,32.8-49.8,48.5
	c-1.2-4.4-1.8-6,1.7-8.4C871.7,296.7,882.4,286.8,891.8,275.8z M870.7,666.5c7.3,24.7-1.5,37-10.7,23.1c-2.4-2-9.3-36.2-11.1-46.6
	c-1.9-10.8-4.1-21.6-6.2-32.4c-0.5-4.3-3.3-8.2-1.7-12.6c15.9-12.7,14.8,23.7,28.1,28.7c2.8,1,3.5,2.6,2.5,5.4
	C867.3,643.5,867.3,654.8,870.7,666.5z M652.5,713c10-17.8,15.4-38.4,27.4-54.9c8.1,16,11.9,34,18.1,50.8c3.6,11,7.3,22,10.8,33.1
	c1.2,6.2,8,17.7-3.4,17.7c-19.2-5.2-36.7-17.9-50.7-32C648.8,721.6,648.8,720.3,652.5,713z M646.5,678.1
	c-12.2,27.9-25.3,55.5-38.2,83c-6.7,15.4-13.2,31-19.3,46.6c-4,12.3-2.9,26.6-10,37.9c-0.6-0.3-1.2-0.6-1.8-0.8
	c9.7-41.7,17.9-84.5,35.1-123.8c4.4-8.2,8.9-16.5,14.1-24.1c12.5-16.2,19.8-36.2,32-52.1C660.7,651.6,649.1,669.9,646.5,678.1z
	 M696.8,647.5c-1.9-8.1-9.4-15.8-7.2-24.3c1.1,1,2.6,1.8,3.1,3c4.7,12.3,9.3,24.6,13.8,36.9c5.2,14.7,10.8,29.2,15.6,44
	c-0.3,0.5-0.7,1.2-1,1.9c-4.3-2.6-5.1-9.1-7.3-13.5C708,679.5,702.6,663.5,696.8,647.5z M684.8,332.9c0.5-0.2,1-0.5,1.5-0.7
	c6.4,8.8,5.8,77.1-3.4,82.2C681.3,387.5,688,359.9,684.8,332.9z M701.4,599.9c-1.5-3-1.5-5.5,0.2-8.5c18.3-33.8,37.9-67,51-103.3
	c3.7-11.2,8.6-22,12.9-33c3.2-8.3,4.6-17.6,13.2-22c14.6-9,29-18.2,43.5-27.2c9.4-6.4,7.2,6.4,7.9,12.8
	c1.2,47.5-35.9,92.7-20.5,140.5c4.8,16.1,9.4,32.3,12.5,48.9c10,59.7,25.4,117.8,41.3,176.1c0.8,4.2-0.2,8.1-2.4,11.9
	c-13.3,23.3-26.3,46.7-39.6,70c-4,4.6-13.5,29.5-20.2,18.2c-30.3-39.8-41.3-89.7-50.4-137.9C743.4,694.9,724.9,646,701.4,599.9z
	 M840.7,515.6c6.3,1.1,3.8,6.8,3.6,14.5c0,0-0.3,19.7-0.3,29.5c0,2.4,0.4,5-3,5.2c-3.5,0.2-8.7-13.3-9.7-15.8
	c-2.8-7.6-3.4-15.3-1.5-28.2C831,512,837,515.4,840.7,515.6z M846.7,471.7c0.2,30.5-13.3,21.8-15.2,21.4c-0.7-0.3-1.4-2.7-1-3.5
	c7.4-17.4,9.7-36.3,13.8-54.6c2.4-12,0.7-23.9-0.4-35.9c-0.2-2.6-2.2-6.4,2-7c4.7-0.6,11.2,4.4,11.3,7.2c0.6,8.6-6.4,16.6-5.8,27.1
	C849.7,440.7,846.6,456.7,846.7,471.7z M798.2,395.7c-55.1,26.9-45.8,37.8-66.8,90.1c-9.6,24.7-21.9,48.2-33.5,72
	c-1.7,2.9-2.7,6.5-5.8,8.2c-1.2-2.3-0.8-4.5,0.1-6.8c9.1-35.4,26.2-67.5,41-100.7c9-20.4,15.1-42.1,25.9-61.6
	c3-5.5,8.4-3.3,14.2-3.8c14.8,3.4,46.8-29.6,61.4-38.4c22.7-16,43.7-35.3,66.5-50.7C872.2,339.6,839.9,374.7,798.2,395.7z
	 M851.9,175.8c0.9-6.8,0-15.2,3.9-20.9c10.9-3.6,4,128-1.7,133.1c-7.5,7.6-5.6-18.7-6.5-26.8C844.8,235,848.1,204.8,851.9,175.8z
	 M719.5,142h116.9c0.7,0.8,1,2,0.9,3.6c-0.6,43.7-3.1,87.4-3.1,131.2c-1.6,12.1,7.5,28.7-4.1,37.4c-18.7,12.2-34.9,29.9-56.7,36.5
	c-9.6,3-12-8.3-14.4-15.2c-8.1-27.8-14.5-56-21.3-84.1c-8.3-35.2-15.1-71.1-18.5-107.1C719.1,143.3,719.2,142.5,719.5,142z
	 M695.4,142h4.3c0.9,1.2,1.3,2.8,1.3,4.7c2.9,28,6,56,11.8,83.6c5.2,33.6,13.7,66.6,21.3,99.7c5.7,21,9.7,34.6,34,36.4
	c16,2.6,37.2-10.2,48.9-20.8c1.2-1.3,2.9-3.3,4.4-1c2.9,12-42.2,33.4-52.5,31.9c-10.1-1.4-20.4-7.5-28-15.4
	c-14.5-13.3-15.5-50.1-21.3-69.7c-9.4-41.5-14-83.6-20.9-125.5C698.3,158.9,693.6,148.7,695.4,142z M669.1,142h2.4
	c3.9,3.8,2.2,10.6,3.7,15.7c10.1,50,16.5,100.7,27.7,150.4c3.8,14.6,9.6,28.8,13.8,43.3c2.2,9.9,7.9,18,14.2,25.5
	c2.2,2.7,2.4,4.8,1.4,8.1c-4,21-9.6,41.8-14.9,62.5c-1.3,3.8-2,8.1-5,11c-0.7-1.6-1.9-3-1.6-4.8c0.2,0,0.4,0,0.6,0
	c0.2-41.5,6-84.7-7.4-124.7c-3.9-14.1-7.9-28.6-18.7-39.2c-2.3-2.3-3.5-6.6-3.5-10c-0.5-21.4-3.5-42.5-6.5-63.7
	c-2.1-14.8-3-29.9-4.6-44.8C670.9,163.3,666.3,149.4,669.1,142z M654.4,473.5c-1.5-6.7-5.6-12.6-7-19.4c2.7-0.4,4.4-0.8,7.4-0.6
	c5.8,1.3,10.8-3.4,16.5-4.7c-1.5,11.3-7.3,21.9-10.4,32.9c-1.2,3.5-0.7,7.7-4.3,9.9C653.6,486,656.1,479.3,654.4,473.5z M566.5,142
	H646c0.7,0.8,1.1,1.9,1.3,3.4c2.3,21,4.7,42.1,7.1,63.1c7.2,54.4,12.3,104.8,10.9,161.2c-0.4,14.9,1,34.7-0.9,51.5
	c-1.8,10.5-12,14.5-20,7.8c-16.4-18.1-26.4-41.6-39.5-62.2c-16.7-27.1-23.4-58.1-23.8-89.6c-3.6-44.1,0-89.2-14.2-131.8
	C566.5,143.8,566.3,142.7,566.5,142z M622.2,455.9c10.2,13.7,18.5,29.3,12.9,46.6c-2.9,5.9-0.8,36.8-12.2,24.6
	c-11.5-10.6-22.8-21.4-34.3-32.1c-4.2-3.9-6.3-8.2-5.5-14.2c-0.3-14.3-11.4-30-4.3-44c5.6-9.3,5.4-19.4,5.7-29.6
	c-2.1-6.4-22.1-6.8-27.9-3.3c-7.2,2.5-2.5,10-1.4,15.2c1.7,5.6,1,11.2,0,16.8c-2.2,11.7,1.6,22.6,4.6,33.7c-0.3,0.2-0.6,0.5-0.8,0.7
	c-16.1-13.8-24.4-34.1-33.9-52.6c-3.1-5.6-8.8-8.4-13.5-7.5c-10.2,4.5-3.5,27.9,0.6,35.8c11.3,24,26.3,45.7,44.2,65.1
	c15.6,16.9,32,33,48.4,49.1c10.1,10,10.4,9.7,3.6,22c-11.2,20.2-21.8,40.8-34,60.5c-1.9,3.2-4.4,2.9-6.7,1.1
	c-6.7-5.2-13.7-10.2-19.6-16.2c-41.7-41-40.2-49.5-59.2-102.5c-5.9-14.1-8.3-29-11.7-43.8c-1.3-4.8-7.2-8.8-11.5-7.5
	c-6.7,4-4.9,15.2-5.9,22c-1.4,24.1,9.5,44.5,17.4,66.1c-13.5-1.4-24.3-12.4-37.5-15.7c-9.7-3-15.1,7.8-9.1,15.3
	c24.1,18,49.3,34.3,69.5,57.2c18,18.2,37,35.6,55.7,53.2c2.8,2.1,2.8,4.4,1.4,7.4c-10.8,23.9-23.6,46.6-38.7,68
	c-7.5,8.4-15.5,14-26.1,7.2c-28.6-11.9-37.4-45.7-55.4-68.6c-15.7-23.8-32.7-46.7-52.3-67.4c-7.1-10.3-22.9-20.3-23.5-33.1
	c-1.1-48.2,23.6-156.8,61.3-187.5c39.2-36.5,58.7-66.2,71.3-118.4c1-3.4,2.5-3.5,4.9-1.5c23.8,18.7,45.1,40.2,58.4,67.9
	C578.6,382.7,596.5,421.8,622.2,455.9z M511.3,802c0.4-6-7.5-20.2,0.3-22.4c19.8-4.7,31.1-26.4,32.5-17.7
	c-7.1,34.3-15,66.9-25.6,100.1c-1.3,4.3-2.4,10.6-7.2,12C516.2,850.3,516.6,825.9,511.3,802z M479.1,842.5
	c-6.8-11.9-9.7-25.9-15.1-38.6c-5.4-15.5-13.5-30.1-15.7-46.5c0.9-2.4,3.5-1.3,4.9,0.2c7.9,7.8,20,13.9,21.5,25.8
	C481.3,800.8,485.4,840.5,479.1,842.5z M266.8,886c5.4,32.7,18.8,63.3,31.8,93.4c-0.5,0.2-0.9,0.4-1.4,0.7
	c-13.2-20.4-24.4-42.3-33.6-64.8c-3.4-8.1-2.8-16.7-2.3-25.2c1.5-9.7-0.5-20.7,3.7-29.5C267.9,868.5,265.4,877.6,266.8,886z
	 M277.8,813.1c-0.7-1.8-2.2-3.8-1.9-5.5c2.2-11.3,4.3-22.6,7.5-33.7c5.7-19.8,11.2-39.8,18.4-59c6-16.5,3.3-33.1,5.5-49.9
	c2.4-8.6,12.9,7.4,12.6,11.4c-9,31.2-17.7,62.7-29.5,93c-4,12.8-6,26.3-9.3,39.3C280.7,810.4,278.9,811.6,277.8,813.1z M297.3,619.6
	c-18.2-22.8-34.4-47.1-48.5-72.6c-14.4-28.7-23.3-60-34.8-89.9c-1.8-8-12.2-26.4-8.1-32.9c5.3,2.7,5.7,9.5,8.1,14.5
	c17.6,45.2,26.2,95.5,58.1,133.5c1.9,2.4,4.6,4.5,7.4,5.8c10.6,4.8,16.9,13.7,22.9,23c9.2,14.2,19.9,27.1,31.2,39.6
	c12,13.2,24,26.4,35.8,39.7c16.8,20.8,29.6,44.7,44.3,67c11.6,21.2,21.3,30.7,20,58.9c-0.6,5.9,1.6,12.5-1.6,17.8
	c-11-19.5-15.9-42.9-26.7-62.9C378.1,707.9,335.1,665.1,297.3,619.6z M340.5,592.8c1.7,18,24.9,37.1,35.1,52.5
	c12.3,17,33.6,39.1,35.3,60.2C399.4,692.6,391,677,379.6,664c-18-21.8-39.6-40.7-55.2-64.4c-1.9-4.4-28-36.8-20.8-37.1
	c1.5,0,26.2,4.9,30.4-8.1c7.1-22,10.5-45.1,15.6-67.7c5.4-35.1,15.1-69.4,30.9-101.3c4.5-4.7,9.7,0.8,14.3,3
	c-7.7,10.5-16.9,20.1-20.9,32.8c-6.6,20.1-15.2,39.7-18,60.8C349.4,518.7,338.5,555.2,340.5,592.8z M422.7,349.3
	c1.1-8.7,9.1-10,17.1-10.2c3.7-0.1,5.3,4.1,2.3,7.4c-3.9,2.8-17,21.5-20.7,17.3C416.7,360.4,422.8,354.1,422.7,349.3z M505.5,164.9
	c7.1-6.7,14.2-13.5,19.1-22.2c0.1-0.3,0.3-0.5,0.5-0.7h12.1c0.7,0.8,1.3,1.8,1.5,2.7c4.8,19.8,9.1,39.2,10.7,59.6
	c-8.8,92.8,10.4,88-47,51.1C480,241,486.1,180.5,505.5,164.9z M471.8,142h27c0,0.6-0.3,1.3-0.9,2.2c-6.4,4.2-12.2,10.4-19.7,12.3
	c-5.6-0.2-5.4-7.8-6.8-11.9C471.2,143.4,471.4,142.6,471.8,142z M240.9,142h204c0.3,0.8,0.4,1.9,0.3,3.7
	c-1.1,16.6,3.5,32.5,6.8,48.4c6.8,38.5,27,124.5-29.1,132.3c-6-0.2-8.2,2.6-10.8,9.2c-3.7,7.2-7.4,24-14.5,27
	c-7.8-38.3-25.3-74.7-44.8-109c-7.6-13.7-13-27.6-11.7-43.7c1.8-18.7,16.6-49-1.8-52.2c-17-2.9-21.2,28.6-23,46
	c-0.1,2.6-0.2,8.5-4.3,5.6c-15.3-11-30.7-21.8-40.5-38.7c-2.7-4.6-5.8-9.5-12.2-10c-2.7-0.2-3.8,0.5-4.8,3
	c-10.2,23,29.1,61.8,49.6,67.5c9.6,2.4,14.9,9.6,18.8,17.9c9.4,20,18.2,40.3,27.8,60.2c1.6,3.4,0.9,4.3-2.8,4.5
	c-15.6,0.7-31.2,1.3-46.8,2.3c-8.4,0.6-21.6-3.3-27-14.3c-10.8-22.1-22.9-43.7-33.3-65.9c-2.3-4.3-6.2-6.3-11-6.9
	c-9.4-1.1-4.5,18.4-2.6,23.6c5.8,14.3,11.7,28.6,17.8,42.8c1.7,4.1,2.6,7.4-1.5,10.6c-2.6,2.1-3.2,9.2-0.9,12.6
	c26.9,39.6,115.3-2.5,123,37.7c4,21-8.7,39.4-15,58.5c-9.3,24.2-15.4,49.2-19.4,74.8c-2.4,14.8-6.3,29.3-9.1,44
	c-12,26.3-32-7.3-38.4-20.3C251.4,448.5,224.3,380.9,202,312c-3.3-14.8-28.2-67.3-17.9-76.5c21.6-27.7,43.5-55.7,54.3-89.6
	C239,144.2,239.8,142.9,240.9,142z M193.1,389.7c-1.3,0.3-4-1.7-4.6-3.3c-8-23.6-15.5-47.4-23.2-71.1c-1.9-5.9-3.6-11.6-8.1-16.3
	c-8.3-8.7-0.4-15.5,1.7-21.4c4.5-12.8,7.5,14.9,10.2,22.6c8.3,26.4,15.6,53,23.4,79.5C193.2,382.7,197.7,388.2,193.1,389.7z
	 M163.1,142h41.2c0.2,0.7-0.1,1.7-1,2.9c-5.2,7.4-9.8,15.5-18.8,18.7c-6.5-0.9-11.5-3.7-15-8.4C168.4,152.9,162.3,145.3,163.1,142z
	 M141.6,142c7.1,9.7,12.8,20.3,18.6,30.9c3,5.6,7.8,8.9,13.8,9.6c7.1,1.3,15.2-0.6,22,1.4c0.5,0.6,0.2,2.3-0.4,3.1
	c-8.5,11.3-17,22.6-25.8,33.7c-2,2.6-4,1.7-4.7-1.6c-2.3-11.7-4.3-23.5-7-35.2c-3.7-15-16.1-26.7-19.2-41.9H141.6z M134.7,175
	c5.2,2,5.2,8.1,7.1,12.7c3.3,11.4,7.1,21.7,9.6,33.4c-3.6,7.1-7.4-2.9-8.5-6.6c-3.5-11-6.9-22-10.3-33
	C131.3,179,133.5,177.1,134.7,175z M117.4,184.7c6.3,16.7,11,34.2,14.5,51.5c2.5,8.6,8.1,36.1,4.5,43.3c-6.1-1.4-12.9-8.5-19-15.3
	V184.7z M117.4,296.9c8.6,7.5,17.5,14.3,27.4,20.2c8.6,7.3,8.2,23.6,12.5,34c3.9,14.1,7.8,28.2,12,42.2
	c20.9,71.9,52.1,140.5,88.5,205.7c6.4,11,15.8,20.1,23.8,30.1c3.3,5,9.6,8.8,10,15.1c-6.7-0.7-20.5-19.6-26.1-25.6
	c-12.3-15.9-27.3-28.6-44-39.5c-20.5-11.9-40.1-27.5-47.1-51.2c-16.9-47.3-36.3-93.8-57-139.6V296.9z M117.4,473.8
	c15.1,36.6,29.6,73.8,49.6,107.9c-5.1,5.5-35.2-14.5-49.6-23.9V473.8z M117.4,577.2c20.6,14.3,43.5,23.7,67.6,29.8
	c16,5.1,35.3,0.8,50.6,8c22.6,19.3,66.4,61.2,47.6,93c-2.8-3.4-1-8.3-1.4-12.4c1.8-45-42.9-77.4-84.2-81c-28.6-4-56-15.6-80.2-31.3
	V577.2z M117.4,609.1c5.6,3.3,11,6.8,16.8,9.7c16.6,7.9,35,11.4,52.4,17.2c37,12.5,72.5,11.9,72.8,61.3
	c-4.5,31.5-3.6,70.5-24.5,98.1c-16.5,24.9-29.4,0.1-41.6-12c-25.2-27.5-50-55.4-76-82.2V609.1z M117.4,731.4
	c22.8,27,45.4,54.1,68.8,80.5c6.2,7.1,14.4,11.5,23.1,14.3c29.1,10.9,44.6-22.1,46.2-12.6c-3.8,16.6-6,32.2-8.7,48.8
	c0,3.1-0.5,5.6-2.9,7.8c-11.7-11.8-9.2-31.4-30.8-35.6c-14.9-3.9-27.8-11.8-37.8-24c-19.4-23.5-38.5-47.3-57.9-70.8V731.4z
	 M249.7,932.9c-22.6-25.4-32.5-69.6-70.5-75.4c-5.8-1.4-13.1-1-17.4-5.4c3.5-2.6,51.6-1.8,57.5,12c9.5,22.2,21,43.4,31.5,65
	C252.2,930.5,252.6,934.8,249.7,932.9z M117.4,770.7c15.2,18.7,31.2,37.1,44.6,56.9c-10.9,6.1-23,1.8-30.7-7.6
	c-4.5-5.3-9.2-10.5-14-15.6V770.7z M117.4,834c18.3,22.4,35.2,46.2,53.7,68.5c12.4,15.1,24.9,30,37.2,45.1
	c6.3,9.2,16.2,16.9,19.3,27.6c-7.9,0.8-14.6-4.8-22.1-6.7c-12.7-4.2-25.4-8.7-38.4-12c-25.5-5.6-40.7-6.5-49.7-7.9V834z
	 M272.3,1093.8h-155v-94.1c13.2,5,26.3,10.2,39.4,15.4c26.1,10.5,50.1,25.1,74.6,38.7c11.4,6.3,22.7,13.4,31,23.9
	C263.5,1080.2,274.5,1090.9,272.3,1093.8z M300.6,1093.8h-3.1c-2.5-1.6-4.3-6.5-5.2-9.1c-3.9-12.2-10.2-23.2-19.2-32.1
	c-7.2-7-15.7-13-24.3-18.2c-37.3-21.1-73.4-46.2-115.5-56.2c-5.3-1.3-10.6-2.4-15.9-3.5v-5.4c4.2,1.2,8.4,2.9,12.5,3.5
	c8.8,2.2,17.7,4.3,26.5,6.8c23.8,7.8,49.9,11.1,70.5,26.2c10.2,10.3,15-14.4,20.9-4.9c13.9,19.5,25.5,40.4,39.4,59.9
	c6.2,9.7,10.7,20.7,15,31.6C301.6,1093,301.1,1093.5,300.6,1093.8z M379.9,1093.8h-53.2c-1.4-0.9-2.4-2.4-3.2-4
	c-7.7-14.9-14.9-30.1-23.1-44.8c-32.1-57-76.3-106.9-111.7-161.1c3.9-0.5,6.6,4.1,9.1,6.5c14.9,20.4,29.3,41.2,44.7,61.3
	c17.2,20.2,58.3,98.6,75.7,79.8c1.2-1.3,2.1-4,2.7-6.6c0.8-3.3,4.8-4.4,7.3-2.1c7.4,7.1,12.8,16.3,19.7,24
	c11.3,13,24.8,24.4,32.6,40.1C382.2,1090.2,381.9,1092.5,379.9,1093.8z M387.6,1047.9c-1.8,7.2-4.6,7.9-9.9,2.9
	c-26.4-24.4-45.8-55.2-63.1-86.4c-6.4-12.1-11.3-25.2-16.4-38c-7.2-17.2-6.6-35.9-8.1-54.2c-3.1-56.8,27.5-107.8,40.1-161.9
	c2.2-4.2,3.1-20.1,10.3-12.4c24,28.4,43.4,60.6,58.1,94.7c31.3,72.3,21.7,179.5,12.5,165.9c-22.1-35.3-38.8-73.6-58.7-110
	c-6.1-12.5-22-11.6-25.9,2.9c-1.2,4.8-0.2,9.2,1.6,13.6c8.5,20.8,16.9,41.6,25.6,62.3c9.2,20.9,19.3,41.3,28.5,62.2
	C394.3,1009.8,394.3,1025.7,387.6,1047.9z M412.2,1093.8h-12.3c-5.5-6,6.3-39.3,9.9-43.1C415.3,1056.2,416.8,1090.1,412.2,1093.8z
	 M422.3,1023.4c-1.1,0-2.3-2.7-3.1-4.4c-4.1-9.3-8.1-18.6-12.2-27.9c-0.8-1.5-1.9-3.3-0.7-4.9c2.2-0.7,4.4,2.4,6.5,2.8
	c7.4,2.1,14.4-1.7,17.1-10.6c8.7-28,18.3-127.6,21.2-148c0.2-1.1,1.2-2.1,1.8-3.2c0.9,0.8,2.3,1.4,2.6,2.4
	c5.2,16,12.6,31.2,15.7,47.9c5.3,26.2,2.7,53.5-3.8,79.2c-7.3,24.5-25,43.8-40,63.8C426.3,1021.9,424,1023.4,422.3,1023.4z
	 M442.5,1040.5c14.3-18.6,28.3-37.5,41.9-56.7c44-74,72-157.6,84.3-242.8c2-12.5,6.6-23.9,12.7-35c21.9-46.5,48.9-90.5,72.9-135.9
	c17.8-30.2,21-66.1,33.2-98.4c0.5,0.1,1,0.1,1.6,0.2c-1.6,28.9-11,57-18.4,84.8c-15,49-43,92.7-71.4,134.9
	c-19.9,32-28,69.8-36.4,106.2c-11.4,66.2-14,119.7-54.3,176.7c-13.5,19.1-25.3,39.6-43.1,55.5c-14.3,11.9-20.7,29.2-30.8,44.2
	C429.9,1061.9,434.3,1050,442.5,1040.5z M500.3,1058.9c-2.6,10.5-5.5,20.9-8.1,31.4c-0.3,1.6-1.1,2.7-2.3,3.4h-39
	c-1.2-0.9-1.5-2.4-0.2-4.7c4.6-12.9,12.6-23.7,21.7-33.3c27.3-27.7,46.4-63,70.7-92.2c1.7,2.6,0.2,4.7-0.8,7.2
	c-6.9,22.8-11.5,46.2-15.8,69.6C524.5,1055.1,506,1036.4,500.3,1058.9z M627.4,1093.8h-91.7c-0.8-0.7-0.7-2-0.2-4.4
	c14.2-89.9,45.9-175.7,70-263c8.7,17.7,9.1,38.8,13.1,58c10.2,47.9,14.4,96.6,13.8,145.6C631,1040.2,635.8,1086.2,627.4,1093.8z
	 M642.1,900c-6.7-34.1-8.5-70.3-23.5-102c-1.3-1.2-0.6-2.8-0.5-4.4c4,1.2,5.3,6,7.6,9.2c5,9,9.8,18.1,14.8,27.2
	c17.2,30.6,15.8,67.1,20.3,101c0.2,9.3-3.8,22.3-9.2,29.6c-3.4-4-2.5-9.7-3.6-14.5C645.8,930.8,643.5,915.4,642.1,900z
	 M663.4,1089.6c0,2.1-0.8,3.4-2,4.1h-11.6c-0.5-0.8-0.4-2.4-0.1-5.4c1-12.5,0.6-70.3,7.4-85.2c1.7-3.8,1.6-9,5.9-10.8
	c3,12.5,0.3,26.2,2.8,38.9C668.6,1050.9,664.2,1070.1,663.4,1089.6z M689.4,1075c-1-0.7-1.6-2.4-1.6-3.7
	c-0.5-14-7.2-155.4-17.5-211.1c-3.5-26.6-20-47.9-33.5-70.1c-3.3-5.7-6-11.9-8.4-18.1c-2.2-5.6,0.5-10.5,4.1-14.6
	c3.9-2.8,8.9,1.3,11.9,4.1C691.8,810,750,803.7,756.1,885.8c6.5,45.9-5.3,91.8-24.5,133.3C727.8,1028.2,697.8,1075.8,689.4,1075z
	 M751.7,1093.8h-34.4c-0.7-0.6-0.7-1.6,0.3-3c29-36,50.8-77.8,54.5-124.6c4.8-25.9-2.2-52.4,1-77.9c1.5,1.1,3.7,1.5,4.5,3.3
	c7.3,13.8,15.2,27.3,21.5,41.6c11.7,24.5,4.5,52.6-2.5,77.5c-10.8,27.8-21.8,56.2-40.8,79.5C754.7,1091.9,753.2,1093.1,751.7,1093.8
	z M879.4,1055.5c-11.9,12.4-24.4,24.1-36.5,36.2c-1,0.9-2.1,1.6-3.2,2.1c-6.2,2.8-14.4,0.1-21.2,1v-0.1c-6.7-0.5-13.8,1.2-20.2-1
	c-0.7-0.2-1.4-0.5-2.1-0.9c16.6-26.5,30.8-54.1,43.1-82.8c1.7-3.7,3.4-3,5.4-0.7c11.8,13.3,23.6,26.7,35.4,40
	C882.2,1051.7,881.2,1053.6,879.4,1055.5z M913.3,1093.8h-16.6c0-0.5,0-0.9,0-1.4c9.9-5.4,10.6-11,18.3,0.9
	C914.5,1093.4,913.9,1093.6,913.3,1093.8z M961.4,1093.8h-16.7c-2.1-1.2-4-3.2-5.9-5.7c-15-20.1-30.3-40.1-46.4-59.4
	c-7.2-8.6-16.3-15.6-24.6-23.4c-3.8-3.8-9.1-6.3-9.8-12.1c5.5-1.2,9.1,2.6,12.8,5.8c26.9,23.2,53.2,46.8,75.7,74.5
	c5.1,6.4,11.6,12.7,15.6,19.6C961.9,1093.4,961.6,1093.6,961.4,1093.8z M959.7,1037.3c-1.4,3.3-2.4,4-4.9,1.8
	c-19.9-17.5-39.6-35.1-59.5-52.6c-9-7.9-18.2-15.6-27.3-23.4c-3.4-2.8-4.6-5.9-3.6-10.5c6.7-28.4,20.9-54.5,41.6-74.9
	c3.7-3.9,4.7-3.5,6.6,1.8c4.9,13.8,10,27.5,14.4,41.4C938.2,959.7,951.8,997.8,959.7,1037.3z M938.5,847.5c3.3,2.6,4.5,7.2,6.2,10.9
	c3.4,11.9,9.8,23.4,11.1,35.7c4,29.2-11.5,24.3-19-5.5c-2.3-6.8-4.2-13.6-6.3-20.5C926.7,858,926.8,852,938.5,847.5z M1005.3,1093.8
	h-8.1c-7.2-5.9-12.2-14.1-18.5-20.9c-4.7-5.3-6.5-10.5-4.8-18.2c2-9.3,2-19.1-0.6-28.7c-5.2-18.4-9-37.3-14.6-55.6
	c-3.1-5.8,2.3-15,5.6-5.5c5.4,17.5,10.5,35.1,16.2,52.6c7.9,23.8,16.3,47.5,24.4,71.2C1005.8,1091.2,1006,1092.8,1005.3,1093.8z
	 M1069.2,1093.8h-12.7c-0.7-0.5-1.4-1.3-2.1-2.4c-11.3-19.9-20.5-41-29.5-62c-20.6-47.6-36-97.2-51.4-146.7
	c-5.3-16.6-10.6-33.2-16.4-49.7c-1.6-4.6-0.9-8,1.4-11.7c7.2-11.8,14.9-23.3,21.4-35.5c19.3-35.9,24.3-77.3,36.6-115.8
	c14-48.1,31.6-95.2,52.7-140.6V1093.8z M1069.2,486.3c-3.9,7.3-7.8,14.6-11.6,22c-11,21.7-20.9,43.9-29.9,66.4
	c-10.9,28.2-20.7,57-29.2,86.1c-6.4,31.1-13.4,62.7-25.9,92.1c-13.8,27.2-25.2,57-46.3,79.5c-17.6,15.9-37.2,29.4-50.3,49.6
	c-20.7,29.3-29.7,64.9-44.4,97.3c-5.4,10.1-11,38.3-20.8,42.5c12-24.8,10.3-52.3,11.9-79.1c0.2-5.8,3.9-9.5,7.6-13
	c20-17.7,34.5-40,51.4-60.4c5.5-6.2,8.4-13.6,10.8-21.2c4.5-14.7,11.1-28.3,20.5-40.2c36.3-38.1,60.2-64.3,75-117
	c7.3-49.3,24.3-95.9,43.3-141.8c12-31.2,24.2-61.3,37.9-91.7V486.3z M1069.2,411.5c-15.3,31.8-29.3,64.4-43.5,96.7
	c-16.6,39.6-30.6,80.2-44.6,120.8c-5.7,16.8-5.6,34.7-11.3,51.6c-9.2,35.8-31,66.5-55.4,93.7c-10.2,11.5-20,23.3-27.2,36.9
	c-11,20.2-19.3,42.1-32.8,60.9c-7.5,10.2-15.6,19.9-23.5,29.8c-3.6,4.2-5.7,10-11.6,11.2c-0.3-9.3,7.7-16.4,11.4-24.6
	c22.8-39.1,45.5-78.4,72.6-114.7c21.4-26.5,46.9-50.8,55.2-85.1c23.5-105.7,64.8-207,110.6-304.5V411.5z M881.3,716
	c8.3,8.5,13,20.8,19.7,30.8c0.4,0.6,0.7,1.8,0.4,2.3c-2.9,3.9-8.5,16.2-12.5,6.4c-3.6-11.1-7-22.2-10.5-33.3
	C877.3,719.2,878.5,716.1,881.3,716z M1069.2,334c-26.5,47.1-48.7,96.1-68.8,146.3c-25.8,61.9-41.1,127.6-55.4,192.8
	c-2.2,8.8-21.9,61.5-33.8,49.5c-8.7-12.6-12.9-28.1-19.4-42c-13.4-32.7-1.8-76.2,20.6-102.4c17.1-17.5,38.5-30.6,50.2-52.9
	c3.1-5.5,6.5-11,8.4-17c2.9-8.6,4.7-30.5-10.6-20.3c-1.9,1.7-3.4,4.2-4,6.6c-4.2,15.8-13.5,28.5-24.5,40
	c-17.3,13.9-10.5-9.2-8.6-18.8c4.7-6,13.1-9.4,14.8-18.1c3.3-10.2-21.5-2-23.8-12.3c-2.1-4.6-6.9-6.3-11.2-5
	c-8.7,2.8-0.7,25.9,1.4,32.3c3.6,9.2,1.6,18-1,26.8c-6.6,21.6-18.2,41-28,61.2c-6.7,10.3-9.7-19.5-11.6-23.6
	c-3.7-19.6-9.4-74.7-4.6-93.8c7.5-27.4,4.9-56.2,13.1-83.3c2.6-10.8-9-20.9,0.5-31.1c19.5-23.6,40.1-46.3,59.3-70.2
	c38.3-53.8,81.8-108.5,137.1-145.3V334z"/>
<path d="M82.4,1183v1018.8l1021.8-3.4V1182.9L82.4,1183z M1052.6,1222.7c0-2,0.5-4.6,1.7-6.1h6.1c0.6,1,0.3,2.4,0,3.9
	c-4.7,23.7-9.9,47.3-10.4,71.6c-1,10-7,19-6.2,29.6c-0.8,0-1.7-0.1-2.6-0.1C1038.6,1288,1049,1255.8,1052.6,1222.7z M1023.7,1609.3
	c-5.2-1-24.5,2.1-19.9-7.4c12.7-33,10.7-70.6,22.6-103.3c0.5,1,1.5,1.9,1.5,2.9c0.3,11.4,0.1,22.9,0.1,34.3c0,18-0.6,36,2.7,53.8
	C1031,1596.2,1033.8,1609.7,1023.7,1609.3z M880.2,1998c-7.4-9.9-12.5-20.9-12.9-36.3c-0.8-6.8,4.3-13.8,9.9-20.3
	c22.6-26.3,46-51.8,68.3-78.3c6.5-8,17.2,15.1,32.1,9.9c6.4-1.1,12.6-4.2,19.2-3.3c-1.6,8.9-10.3,14.2-16,20.6
	c-22.1,20.2-40.7,43.4-57.5,68.2C914.1,1968.5,896.5,2019.8,880.2,1998z M883.6,2032.4c-3.6,3.4-5,13.6-11.3,11
	c-11.9-4.1-26.8-33.2-14.1-39.4c8.8,7.2,16.4,15.9,24.8,23.6C884.7,2029.2,885,2030.5,883.6,2032.4z M945.8,1813.8
	c-3.7,10.9-4.8,23.8-12.3,32.9c-27.4,28.1-53.3,58.3-81.3,85.4c-0.5-1.2-1-2.3-1.4-3.4c20.9-142.8-10.1-60.4,83.2-119.8
	c5.4-3.3,10.5-8.5,16.9-9.4C951.4,1804.8,947.1,1808.8,945.8,1813.8z M655.8,1993.5c-0.6-0.5-1.2-1-1.8-1.4
	c39.2-55.2,88.2-102.1,134.6-150.9c13.9-11.2,46.8-60.3,64.4-50.2c6,2.4-7.9,10.3-10.9,11.1c-38.8,10.3-48.3,54.1-57.8,87.9
	c-5.2,20.3-8.9,40.9-12.5,61.5c-2.3,7.7,2,19.7-7.2,23.6c-6.5,2.8-13,5.8-19.5,8.8c-7,3.3-13.2,9.8-20.8,4
	C696.9,1969,677.4,1962.8,655.8,1993.5z M703.2,2002.8c-14.9,7.4-23.8,22.2-38.2,30.4c-12,6.1,3.1-31.9,8-33.6
	c3.9-2.9,10.4-5.2,14.8-6.6c2.7-0.9,5.6-0.5,8,0.9C700.3,1996.4,706.6,1999.5,703.2,2002.8z M617,1828.1c0.4-4.8-1.9-13.9,4.5-15.1
	c0.5,0,1.4,1.4,1.5,2.2c0.4,7.9,1.7,21.4-4.2,27.1C615.2,1838.8,617.7,1832.8,617,1828.1z M614.5,1777.2
	c-11.5-25.3-15.8-50.1-17-79.8c-4.3-19.2,29.7-48.2,43.8-59.6c26.5-20.6,11.6,20.1,9.1,32.6c-5.4,26.6-13.5,52.4-22.9,77.8
	C623.2,1757.7,622.1,1769.8,614.5,1777.2z M538.4,1745.9c-1.4,9.5,1.8,20.6-4.1,28.8c-7.5-5.9-6.6-20.5-9.4-29.5
	c-0.3-4.2,4.1-7.2,7.1-9.4c6.7-4.2,6.6,5.9,6.2,10.1C538.3,1745.9,538.4,1745.9,538.4,1745.9z M533.7,1792.9c0.3,0,0.7,0,1,0.1
	c-0.9,18.6-2.9,37.1,4.8,54.6c4.6,12.3,19.8,21.4,32.5,20.8c10.4-0.9,17.4-9.7,22.9-17.8c4.9-7.8,16.3,16,5.3,24.1
	c-8.5,7.2-25.2,26.8-35.9,15c-19.1-17.7-31.9-40.5-39.3-65.5C524.3,1813.6,531,1803.1,533.7,1792.9z M594.3,1512.8
	c-11.1,1.5-19.7,1.9-17.7-12.5c0.9-13.7,4.8-27.9,12.8-38.9c4.1,8.4,2.4,18.3,3.9,27.4C593.1,1495.2,598.9,1508.3,594.3,1512.8z
	 M613.9,1499.1c-3.7-3.1-1.6-7.9-2.4-12c-0.7-11.7-5.6-23.6-3.6-35.2c9.1,7.2,7.1,25.8,8.1,36.7
	C615.9,1492.3,617.2,1496.3,613.9,1499.1z M622.1,1536.8c-5.5,8.3-12.9,15.5-19.1,23.3c-1.9,2.7-7.7,7.5-7.8,1.3
	c-0.4-9.8-3.9-17.9-11.4-24.2c-0.9-0.7-0.9-2.5-1.4-3.8c6.8,0.8,13.2,3.9,19.9,0.5C609,1529.6,619.3,1526.4,622.1,1536.8z
	 M653.4,1418.8c3.4-1.9,7.4,0.4,10.6,1.8c22,9.1,43.3-10,52.8-28.7c3.3-6.4,7.8-0.5,11.8,0.9c6.7,3.2,8.8,5.4,15.7,8.2
	c6.1,2.4,14.7-1.8,14.4,4.1c-1.4,22.9,22.4,29.1-8.3,25.7c-26.5-2.3-51,6.6-68.3,28c-5.8,6.5-11.2,13.3-17.3,19.4
	c-7.1,7.2-8.5,7.7-12-2.4C637.1,1432,605.8,1450.8,653.4,1418.8z M634,1405.2c4.4-5.4,6.7-13.5,13.4-16.3
	c0.5,7.7-10.7,21.6-16.9,26.2C628.8,1411,632.3,1408.6,634,1405.2z M667.5,1376.7c5.7-2.4,35.3-19.6,33.4-5.2
	c-1.2,14.2-8.7,29.7-24.3,31.6C662.6,1403.6,655.5,1384.7,667.5,1376.7z M862.4,1383.2c-1.2-0.2-2.8,0.1-3.5-0.5
	c-10.9-9-22.7-7.6-34.8-3.1c-4.5,1.4-9.2,4.9-14,3.2c-6.9-2.8-13.9-5.5-20.6-8.8c-2.8-1.4-5.7-3.8-7.4-6.5
	c-7.2-11.3-17.6-18.6-29-24.7c-1.8-0.5-2.7-2-3.8-3.5c5.9-4.5,17.5-3.5,22.3-5.1C809.5,1337.6,841.2,1353.9,862.4,1383.2z
	 M831,1328.3c18.7-18.5,33.9-40,50.5-60.3c1.9-2.6,6.8-7.2,7.2-0.8c-15,21.7-34.7,40.4-45.7,64.9c-3.3,7.7-7.8,3.1-12.8,0.4
	C829.7,1332.3,830.1,1329.2,831,1328.3z M832.9,1441.6c13.3,12.4,32.4,19.1,38.4,38c8.6,23.3,0.6,46.8-8.3,68.6
	c-10.2,27.1-32.8,46.1-59.6,55.1c-0.1-0.3-0.2-0.6-0.3-0.9c-7.3,0.8-8.9-11.4-12.6-16.2c-2.4-4.9-1.7-10,1-14.5
	c11.7-25.1,25.3-51.7,20.8-80.3c-0.1-11.9-0.5-23.6-7.3-33.9c-6.8-11.4,17.9-13.1,12.3-33.2c-7-19,8.4-35.2,27-28.6
	c11.8,6.4,27.9,23.2,29.2,37c-9.2-2.2-16.5-9.4-26.3-10.8C835.8,1418.5,824,1432.7,832.9,1441.6z M873.4,1571.5
	c-5.2,18.9-11.1,38.3-22.1,54.7c-10.3,17.6-18.3-1.9-23.5-12.3c6.6-7.7,15.7-11.5,23.3-18c7.8-6.1,14.1-13.7,19.1-22.4
	C870.8,1572.6,872.3,1572.1,873.4,1571.5z M772.6,1595.2c0.5-0.2,0.9-0.4,1.4-0.6c10.9,11.8,25.5,51,9,62.4c-0.3-1.5-1.2-3-1.1-4.4
	C789.2,1632.6,774,1614.6,772.6,1595.2z M799.7,1423.4c-0.1,6.2-5.5,15.5-11.6,8c-7.9-8.3-20.3-26.7-7.5-35.7
	c4.9-3.7,7.6-3.8,12.7-0.6c3.2,2.1,6.6,4.1,5.5,8.8C799.2,1410.4,799.8,1416.9,799.7,1423.4z M772.7,1452.2c2.7-0.3,4.7,0.6,6.6,2.6
	c6.5,7.4,18.9,16.5,13.9,27.5c-8.5-3.4-15.9-9-24-13.1c-5.7-3.6-37.2-14.7-20.9-22.1C756.6,1450,763.8,1453.6,772.7,1452.2z
	 M628.3,1511.1c6-11.6,2.4-24.1,4.4-36.3c4.7,5.9,7,13.2,10.9,19.6c16.8,22.2,34.5-8.7,46.9-19.8c6.7-6.8,32.6-36.7,37.4-16.3
	c9.5,23.1,42.1,25,60,42.1c3.4,2.7,6.9,5.5,7.2,10.9c-4,14.6-7.9,31.1-15.9,44c-18.5-14.5-3.4-39.5-24.3-55.9
	c-47.1-47.9-71.4,3.2-114.4,21.8C635.3,1523.1,626.1,1517.4,628.3,1511.1z M748.7,1518.3c-22-10.8-36.4-18.2-59.6-2.5
	c-6.8,3.6-15.4,12.2-23.1,11.4c9.6-10.3,24-15.7,35.4-24c5.2-3.2,10.9-5,16.1-4.4C730.9,1498.9,744.4,1506.8,748.7,1518.3z
	 M647.8,1541.9c41.8,18.3,53.1-39.9,91.5-8.5c9,8.2,25.2,22.8,24.4,35.9c-10.8-7.2-18.1-19.1-31-23.6c-16-6.7-33.6-4.8-49.1,2.3
	c-11.6,4.9-23.5,9.2-35,14.3c-12.7,4.7-24,14.1-37.2,16.7C613.2,1569.1,637.4,1542.8,647.8,1541.9z M592.9,1629.1
	c3.4-28.1,44.7-42.7,67.1-54.3c17.6-5.8,45.3-21.5,63.2-15.2c11,4.8,20.4,12,28.2,21.1c4.4,10,2.5,22.8,5,33.5
	c1.3,7.1,3.7,13.9,5.7,20.8c3.7,12.3-5.1,25.7,3.4,37.3c4.2,7.1,4.6,17.9-1.1,23.5c-4.9-42.7-16.2-94.8-69.1-95.5
	c-46.2,2.4-110.1,48.1-117.3,95.6c-4.3-2.5-5.4-7.2-3.3-11.6C581.8,1666.3,589.3,1648.1,592.9,1629.1z M706,1781.6
	c0.5,2.1-0.3,5.1-1.6,6.9c-16.9,20.5-50.4,2.8-54.5-19.8c-4.6-20.7,6.1-40.3,11.2-59.9c8.6-25.6,14.5-52.1,14.6-79.2
	c-0.2-11.3,10.7-11.1,19.1-10.6v-0.2c27.9,0.2,4.8,2.5,3.6,45.6C696.3,1703.6,696.9,1743.2,706,1781.6z M578.9,1739.3
	c5.3,7-17,31.9-23.3,33.8c-2.4-8.8-0.5-18.3-1.1-27.3h-0.3c0-7.6-0.5-15.2,0.2-22.7c0.5-3.8,4.4-21.8,9.5-12.8
	C569.1,1719.9,574,1729.6,578.9,1739.3z M566.4,1784.9c7.4-5.8,12.9-13.8,20.1-19.8c7.2,12.3,13,39.2,7.4,52.4
	c-4.9,8.1-10.2,16.1-15.8,23.8c-4.2,5.6-9.9,6-15.6,1.9c-9.3-6-8.4-17.2-8.2-27c0,0,0,0,0,0C553,1803.4,555.4,1792.6,566.4,1784.9z
	 M642.6,1801.6c-0.4-3.6-4-6.9-2.3-10.6c18.2,20,42.2,34.8,68.1,16.4c4.3-3,4.3-3,6.6,1.7c1.6,6.2,14.6,21.4,8,25.4
	c-20.6,17.6-42.2,37-69.9,40.9c-7.8,0-13.9-3.1-19-8.7c-4.9-3.4,7.7-23.8,8.1-31.1C644.9,1824.4,644.9,1812.9,642.6,1801.6z
	 M721.8,1766.9c-4.3-21.2-7.7-42.5-9.1-64.1c-1.1-22.6,2.5-45.2,9.1-66.6c5.4-15.8,20.7,26.9,21.2,32.4
	c5.5,28.9,23.1,91.7-16.8,101.1C723.7,1769.9,722.3,1769.5,721.8,1766.9z M735.2,1785.8c5.3-4.2,10.8-8.4,15.6-13.2
	c2.9-2.9,4.6-2.5,6.8,0.2c9.1,9,15.2,26.4,30.5,24.1c2.4,0.2,13.8-2.4,10,2.7c-7,9-14,18.1-23.9,23.9c-13.7,5-19.1,2.1-8.8-11.2
	c6.4-7.6,7.4-25.6-6.3-24.8c-12.3,1.5-13.1,18.7-20.9,26.2C734.1,1806.6,726,1791.5,735.2,1785.8z M839.7,1762.8
	c-35.1,42.6-79-3.2-69.9-22.3c3.9-21.5,11.8-41.9,23.2-60.4c6.4-10.6,13.4-20.8,20.2-31.1c2.7-4.1,3.3-4.1,7.3-0.9
	c9.7,9.5,25.6,13.6,37.2,3.3c11.2-10.1,17.3-23.1,23.4-36.4c0.9-2.7,3.1-7.8,5.9-3.5c9,12.8,18.9,25.2,24.4,40.2
	C928.2,1689.2,862.8,1737.3,839.7,1762.8z M929.6,1688.8c4.5-6,6.3-13,6.1-20.3c1.4-21-7.6-39.7-20.6-55.5
	c-4.6-6.2-9.7-11.9-15-17.5c-10.1-10.8-10.5-12-5-25.7c2.5-5,4.1-11.3,10.4-12.2c1.1,3.7,0.1,6.7-2.6,9.4c-8,9.2-2.2,20.8,6,27.3
	c10.1,7,14.2,18.2,20,28.3c4.5,7.9,8.3,16.2,12.5,24.4c1.6,7.3,1.3,15.1,3.1,22.3c2.1,9.6-1.2,16.8-8.2,22.7
	c-8.1,6.9-16.6,13.5-22.8,22.4c-1.1,1.6-3.2,2.7-4.8,3.9c-0.4-0.4-0.9-0.9-1.3-1.3C915,1707.7,922.4,1698.3,929.6,1688.8z
	 M921.7,1576.8c4.1-0.3,7.1,2.3,10.3,4.5c8,5.5,23.9,9.6,29.4-0.9c7.4-16.4,13.2-33.6,18.5-50.8c17.6-51.1,29.3-103.8,34.5-157.7
	c2.6-16.2-2.1-58.3,7.3-68.6c3.5,6.6,0.7,15.2,1.5,22.5c0.1,0,0.2,0,0.2,0c-1.3,41.2-7.4,82.1-6.6,123.2c0.6,10.5-0.3,20.9-4.9,30.5
	c-8.3,21.2-9.8,44.3-15.2,66.4c-4.4,17.2-5.6,66-31.2,61.6C949.1,1601.3,931.5,1591.7,921.7,1576.8z M965.1,1627.4
	c16.4,7.7,20.9-9.7,39,0c0.6,0.2,1,1.2,1.6,2c-10.9,12.4-24.1,22.7-36.9,33c-3.7,2.6-5.4,2-6.7-2.1c-2.9-12.6-9.4-25.1-9.9-37.9
	C956.8,1623,960.9,1625.6,965.1,1627.4z M1010.4,1216.6h15.8c3.4,2.9,2.3,12.5,3.7,17.2c-1.5,9.5-3.8,19.2-9.9,27.5
	c-7.9,11.8-8.8-38.9-10.3-43.1C1009.7,1217.5,1010,1217,1010.4,1216.6z M992,1226.4c4.6,21.3,2.5,42.9,3,64.4
	c1.5,85.6-14.6,170.8-40.2,252.2c-1.6,5.4-4.6,10.4-6.5,15.7c-1.5,4.3-3.9,4.2-7.4,2.9c-19.2-8-35.2-27.1-33.5-48.9
	c0.5-9.6,0.9-19.2,1-28.7c-0.4-37.9-4.6-77.5-28-108.7c-4.1-7.8-25.2-26.4-21.8-33.4c12.7-42.7,55.8-64.7,86.2-93.6
	c12.1-9.8,25.7-17.9,38.8-26.4C989.1,1218.4,990.5,1219.7,992,1226.4z M938.9,1220.1c1.1-1.4,2.1-2.5,3.3-3.5h16.9
	c0.4,0.2,0.7,0.5,1.1,0.9c-9.4,9.6-20.8,16.9-31.4,25.1c-1.8,1.4-3.9,2.1-5.1-0.1C921.8,1236,935.5,1226.1,938.9,1220.1z
	 M807.9,1218.4c0.2-0.8,0.5-1.4,0.9-1.8h94.7c0.3,0.1,0.5,0.1,0.8,0.2c-3.6,12.7-13.1,21.8-22.8,30c-13.7,11.5-24.1,25.9-34.4,40.4
	c-10.6,15.8-48.5,53.7-50.3,12.6C794.7,1272.1,800.3,1244.9,807.9,1218.4z M783.2,1219.6c0.5-1.6,1.6-2.4,2.9-3h2.2
	c-0.3,8-5.6,15.2-6.9,23.2c-3.2,13.1-3.5,26.6-3.5,40.1c0,11.2,1.6,22.1,4.1,32.9c0.3,1.3-0.4,2.9-0.7,4.4
	c-10.9-2.1-11.6-38.2-11.5-49.1C766.9,1250.8,776.2,1235.5,783.2,1219.6z M763.3,1216.6c5.3,5.8-19.7,27.5-7.8,81.5
	c1.2,5.6,2,11.2,3,16.8c0.7,3.9-1.5,4.7-4.6,4.8c-3,0.1-4.5-1-4.6-4.4c-0.7-18.8-1.6-37.6-2.7-56.4c-3.4-14.5-8.6-29.1-15.2-42.5
	H763.3z M730.2,1261.6c7,1.1,8.4,44.2,2.2,43.1c-2-0.3-3.1-15.8-3.3-23.4C728.9,1275.9,726.8,1265.3,730.2,1261.6z M719.5,1353.7
	c15.4-6.4,68.8,30.4,36.7,28.4c-17.2,0.3-29.9-8.1-39.6-21.8C714,1356.6,715.1,1354.4,719.5,1353.7z M665.1,1216.6h17.3
	c0.5,0.2,1.1,0.5,1.6,0.7c9.2,7,17.8,14.5,21.1,26.6c3,12.1,15,70.3,5.8,76.8c-50.2,15.8-85.5,50.2-103.5,100.1
	c-2.6,5.7-7.7,7.7-13,10c-20.5,7.3-33.3,26.2-37.3,47.2c-4.3,25.7-5.4,56.3,13.1,76.6c11.8,14.6,5.4,58.6,2.1,76.9
	c-9.1,37.8-30.1,74.8-62.2,97.2c-7.1,3.5-13.6,8.5-17.9-0.9c-1.9-3.1-3.4-6.7-3.8-10.3c-2.4-17.8-17.7-130.6-18.5-153.6
	c-1.3-37.9,15.3-122.6,35.7-162.1c34.1-65.8,86.6-147.1,151.8-182.1C659.8,1218.5,662.4,1217.4,665.1,1216.6z M513.3,1770.3
	c4.7-8.9,8.6,0.6,8.1,6.3c-0.1,4.5,0.3,8.6-4.2,10C511.5,1784.9,513.8,1775,513.3,1770.3z M488.6,1779.6c2.7-4.1,5-9.8,9.8-11.7
	c1.3,3.6,0.4,5.8,0.2,10.4c0.5,10.7,1.1,22.6,1.6,34.4c0.6,2.7-0.7,4.8-1.9,7.1c-5-2.6-5.9-8.1-7.6-13
	C488.4,1797.9,483.4,1788.5,488.6,1779.6z M480.6,1756.8c-8.2,8.3-4.7-33.5,6.9-12.3C485.1,1748.9,483.1,1753,480.6,1756.8z
	 M447.4,1605.5c-5.2-23.5-21-46.2-12.7-71.1c6.7-19,10.1-38.8,14.1-58.5c0.5-4.5,1.9-10.8-3.9-12.4c-3.5-0.9-6.7-1.2-9.1,1.7
	c-6.9,7.9-8.1,19.1-9.7,29c-1.1,10.8-4.2,21-6.8,31.4c-4.6,14.8-4.7,34.4-15,46.2c-0.3-1.1-1-2.2-0.8-3.2
	c2.5-20.5,6.2-40.7,12.6-60.3c1.6-40.2-7.7-80.6-4.7-121.1c1.2-16.5-0.4-45.9,22.7-44.7c6.3,0.7,11.1,4.2,14,10
	c2.8,5.6-11.6,14.4-14.5,19.7c-19.2,22.3-7.2,51.5,14.7,65.6c6.1,4.5,8.8,9.7,7.2,17.7c-13.1,58.4-4.4,117.8,1,176.6
	c1.8,24.5,7.2,49.1,6.5,73.6c-2.5,20.4,0,40.6,0.2,61c-0.2,10.5-18.3,2-16.5-11.8C458.5,1706.5,459.3,1654.2,447.4,1605.5z
	 M419.8,1799.4c5.5-6.6,19.8-27.8,19.6-6.1c0.4,0.1-3.9,29.6-9.8,22.7C425.5,1811.5,414.5,1806.6,419.8,1799.4z M421.8,1846.2
	c-3.2,11.6-12.1,21.3-18.9,31c-11.8,11.7-22.2,32.1-40.9,31.1c-5.3,0.8-10-1.5-14.6-4.5c-7.1-4.5-2.7-13-1.1-19.3
	c3.2-11.1,6.6-22.1,9.8-33.1c2.7-5.4,1.2-17.4,9.6-16.3c21.5,2.8,32.5-22,39.4-13C410.3,1829.8,422.6,1836.2,421.8,1846.2z
	 M422.5,1708.5c-3.4-15-4.8-30.5-9-45.2c-3.5-11.3-3.3-22.1,0.6-33.5c4.2-10.4,3.7-22.4,8.6-32.5c1,1.2,2.4,2.2,2.8,3.5
	c8.9,30.3,8.9,59.8,12,91.6c-1.2,10.7-2.6,22.7-4.1,34.7c-0.2,1.2-1.5,2.3-2.3,3.4C425.4,1725.9,424.9,1715.3,422.5,1708.5z
	 M455.9,1417.5c-5.8-1.5-9.3-5.3-11.8-9.9c-6.4-12.6,11.5-25.4,18.6-34.3c17.7-17.1,35.3-34.2,48.9-54.9
	c5.3-8.1,10.3-16.4,15.4-24.7c1.1-1.8,2.3-3.1,4.3-1.9c2.3,1.4,1.7,3.1,0.4,5.1c-12.8,20.6-25.9,41.1-38.2,62
	C481,1378,477.3,1406,455.9,1417.5z M582.8,1237.1c8.3-6.9,15.7-15.9,25.4-20.5h11.3c0.2,0.1,0.3,0.2,0.5,0.2
	c-15.5,11.2-32.6,20.2-45.3,35.2c-3,2.7-5.2,7.2-9.8,6.8C565.7,1252.1,578.2,1242.6,582.8,1237.1z M508.3,1216.6h10.3
	c0.2,0.2,0.5,0.4,0.8,0.7c-1.7,1.9-11.8,10.3-13.2,6.2C505.6,1220.6,506.4,1218.1,508.3,1216.6z M425.2,1216.6h38.6
	c0.6,0.8,0.6,2.1-0.4,3.9c-3.7,12.7-10.1,23.4-20.1,32.1c-2.7,2.8-5.9,2.3-9-0.1c-11.1-7.7-9.3-21.9-9.9-33.8
	C424.4,1217.9,424.7,1217.1,425.2,1216.6z M398.3,1216.6h7.6c1.2,2.3,0.6,6.6,0.7,9.3c-0.1,0-0.3,0-0.4,0.1
	c0.9,7.8,1.5,15.7,2.9,23.5c2.9,17.7,32.8,41,47.2,22.7c10.2-10.4,17.5-22.8,23.2-36.1c1.8-4.2,2.6-4.3,5.4-0.6
	c6.7,9.7,17.4,24.5,29.6,13.5c10.4-6.5,46.5-51.8,31.4-11.5c-18.3,30.4-42.5,56.7-64.2,84.6c-3.9,3.2-13.4,20.6-18.4,14.8
	c-15.9-16-30.1-20.4-51.2-11.1c-5.5,2.1-3.9-4.9-3.8-8.1c1.6-16.5,1.3-32.8-1.9-49.2c-3.2-16.3-5.5-32.7-8.4-49.1
	C397.7,1218.1,397.9,1217.2,398.3,1216.6z M399.2,1698.2c1.5,1.2,2,2.9,2.2,4.7c2.1,17.6,8.4,33.7,16.7,49.1
	c5.6,10.4,5.1,15.1-3.1,23.8c-14.1,12.4-28.9,36.9-48.1,38.7c-8.4,1.1-4.4-10.2-5.2-15.3h0.2c0.8-12.8,1.4-25.5,2.4-38.2
	c0.1-1.4,1.7-3.2,3-3.7c11.4-4.4,18.4-13.2,22.2-24.4c3.3-9.8,5.2-20.1,7.6-30.1C397.3,1700.9,397.5,1699.3,399.2,1698.2z
	 M380.7,1241.8c3,25,5.7,50,7.5,75.1c0.2,4.1-0.5,11.2-0.7,16.7c0.1,10.5-10.2,21.6-19.4,15.7c-2.5-3-5.2-6.6-5.8-10.3
	c-6.9-33-1-65.8,13.1-96C375.9,1240.6,380.2,1237.7,380.7,1241.8z M342.5,1216.6h21c0.5,0.8,0.6,1.8-0.1,3.3
	c-5,11.9-9.6,23.9-14.8,35.7c-9.8,23-5.6,49-4.6,73.2c1,10.2,4.8,20.1,8.1,30c5.1,11.8,22.2,18.2,33.5,11.5c3.7-2,4.7-1.1,4.6,3.4
	c-0.1,7.2,0.5,83.3,5.9,113.6c1.1,8.2,0.9,16.3-2.1,24.3c-6.3,25.9-9.4,53.1-9.2,79.9c0.1,19.9,5.3,40,0.9,59.7
	c-3.7,14.4-5.7,29.3-10,43.5c-1.6,9-10.6,53.7-13.5,19.8c-4.1-36.7-8-73.5-12.1-110.2c-3.5-23.9-7.1-47.8-9.6-71.8
	c-1-9.7,2-18.8,6.3-27.6c7.3-14.8,11.9-30.5,13.5-47.1c5.4-46.8-6.3-95.3-37-131.4c-5.8-5.9-6.1-12.4-2.5-19.7
	c9.4-19.2,18.9-38.5,25.6-58.9c3.7-9.9,1.6-19.2-3-28.1C342.6,1218.3,342.3,1217.3,342.5,1216.6z M325.2,1795.4
	c3.8-10.8,4.3-26.1-11.4-22.3c-5.1,2.3-4.3,9.8-8.1,13.3c-0.8-1.3-2.4-2.3-2.3-3.9c-0.6-11-1.1-22.1-1.8-33.1
	c-2-32.5-4.9-66-7.5-97.7c13.2,23,18.9,51.2,30.2,75.6c18.8,30.2,19,15.9,18.1,54.5c-0.6,9.5-1.1,15.9-1.5,22.2
	c-0.2,3.3-2,4.5-5.3,4.4C327.5,1808.4,323.4,1803.3,325.2,1795.4z M331.4,1860.1c-5.2-5.5-3.5-17.1-5.6-25.8
	c1.1-6.9,6.4-6.9,8.5-0.4C336.3,1840.9,335.8,1854.4,331.4,1860.1z M269.9,1572.5c4.2,14.8,9.9,29.2,14,44.1
	c-0.4,0.2-0.9,0.4-1.3,0.6c-19.3-42.1-51.6-75.1-84.3-106.3c17.1,6.6,32.9,16.8,49.9,23.8c12.2,5,26.3,5.4,38.4,11.3
	c7.5,3.9-7.9,8.3-10.4,11C269,1561.8,267.6,1564.4,269.9,1572.5z M329.4,1383.2c7.3,4.8,5.1,18.1,8.3,25.7
	c2.2,7.7,2.8,15.5,2.4,23.4c-1.6,8.8-0.2,18.8-3.9,27c-0.6-1-1.6-1.9-1.9-3c-2.2-9.9-6.7-19.8-5.5-30.1
	C332,1412,324.9,1396.7,329.4,1383.2z M329,1625.9c4.6,24.8,7.4,50,13,74.7c-0.4,0.2-0.8,0.4-1.2,0.7c-6.9-4.8-10-24.3-14.2-32.7
	c-9.1-23.4-18.6-46.6-26.9-70.2c-1.6-7.5-8.1-17.3-4.6-24.6c8.2-7.2,16-15.5,25-21.7c4.2,7.9,2.6,17.7,3.4,26.5
	C323.5,1594.5,325.7,1610.2,329,1625.9z M313.7,1519c-5.6-22.6-0.4-46.7-16-66.8c-4.3-6.5-7.2-13.2-6.5-21.2
	c1.5-14.3,3.9-28.5,7.7-42.4c2.2-6.1,0.5-13.5,4.6-18.8c4.9,7,2.3,20.9,4.1,29.7c1.6,18.9,3.2,37.8,5,56.7
	C313.6,1466.5,323.4,1515.1,313.7,1519z M294.8,1513.8h0.2c-0.2,4.8,1.5,13.3-6,10.5c-9.9-2.7-19.7-6-29.5-9.1
	c-6.8-2.1-13.5-4.7-20.4-6.3c-20.1-5.4-30.9-25.2-45.2-38.8c-7.6-10.4-16.7-19.4-26.3-27.9c-3-3.1-7.7-4.9-7.5-9.9
	c1.5,0,3.4-0.7,4.4,0c27.7,19.5,55.3,39.9,87.6,51.2c18.3,8.6,32-21.4,35.3-8C292.1,1487.8,294.5,1500.6,294.8,1513.8z M290,1975.7
	c3.7-5.2,8.7-21.8,14.2-7.9c-2.4,5.9-4.3,11.8-7,17.2C293.3,1993.6,284.7,1980.4,290,1975.7z M302.9,1933.6
	c-2.4-19.8,3.2-40.5,2.9-60.7c0.4-9.8-1.5-19.7-2-29.6c0.6-5.3-3.3-29.5,1.6-30.4c4.3,2.4,1.3,13.4,2.1,18
	c0.4,20.9,4.2,41.4,8.2,61.8c0.8,3.8,0.8,8.2-0.4,11.8C311.4,1914.1,309.4,1925.4,302.9,1933.6z M117.4,1216.6H313
	c1.2,0.8,2.1,1.9,2.9,3.6c3.6,7.2,12.2,13.7,8,22.5c-4.8,11.4-10.2,22.6-14.6,34.2c-15.5,41-28.6,83-35.5,126.5
	c-3,16.3-5.7,32.7-8.6,49c-1.8,8.2-4.7,12.3-12.8,7.4c-27.7-16.6-55-34-82.5-50.9c-17.6-11-35.1-22.1-52.7-33.1V1216.6z
	 M117.4,1405.6c15.3,16.9,29.5,35.3,45.2,51.9c4.8,6.6,12.9,11.6,15.7,19.3c-1-0.1-2.3,0.2-3.1-0.3c-20-13.3-38.8-28.2-57.8-42.9
	V1405.6z M117.4,1454.1c2.7,2.2,5.3,4.5,7.8,6.9c1.6,4.7-2.9,3.9-7.8,1.8V1454.1z M292.5,2168.4H117.4v-681.7
	c54.2,33,128.8,91.7,147.2,149.4c11.6,37.8,10,77.7,14.7,116.7c5.1,97.6,17,197-41.1,282c-3.1,5.8-3.3,12-0.5,17.9
	c18.2,37.6,36.6,75.2,54.6,113C292.9,2167,292.9,2167.9,292.5,2168.4z M280.6,2019.9c-4.3,4.9-6.9,12.3-12.3,15.9
	c-10.9-0.6,6-20.2,7.5-25.3c1.9-3.3,2.4-2.9,4.7-0.2C283.3,2013.8,283.2,2016.5,280.6,2019.9z M293.4,2081.2
	c1.1,12.5,1.2,26.5,5.9,39.8c0.7,1.7,0,3.4-0.2,5.1c-6.4-2.9-17.1-21.9-18.1-25.8c-1.1-6.9-3.7-21.3-2.7-29.4
	c1.7-14.2,6.6-29.3,18-40.3c15.5-14.7,40.8-21.2,62.4-18.3c16.7,1.3,28.7,11,38.6,24c10.8,14.2,23.3,27.2,30.5,43.9
	c2.5,5.4,0.4,10.8-2.5,15.2c-8.3,10.6-17.8,31.4-29.1,37c-0.9-10.6,3.5-20.9,3.7-31.4c0.7-13.2,1.2-26.6,0-39.8
	C388.3,1991.9,291.8,2013,293.4,2081.2z M381.8,1961.1c-9-1.8-17.5,1.4-25.9,4c-6.6,1.3-12.1,8.4-19.2,6.9
	c-0.3-5.9,6.3-8.8,10.4-11.7c19.5-10.8,64.3-12.3,64.4-12.6c41.2,3.2,53,18.9,61,58.4c1.1,7.5,13.2,46.4,3.5,47.5
	c-9.7,1.8-17.2,9.5-26.6,11.3C454.5,2019.8,429.7,1968.9,381.8,1961.1z M429.6,2041.7c-23.3-18-40.5-53.5-74.9-47.8
	c-4.6,0.2-10.9,1.7-14.2-2.4c4.8-5.2,13.3-3.6,19.7-5.8c6.6-1.3,12.4-2.8,19.1-3.9c19.4,4.8,35.5,17,43.3,35.9
	C425,2025.4,431.1,2033.3,429.6,2041.7z M335.4,2168.4h-12.5c-5.1-2-9-6.4-8.9-12.3c9.4,1.6,3.9,7.6,24.3,11
	C337.3,2167.6,336.3,2168.1,335.4,2168.4z M341.3,2145c-16.9-6.3-26.7-24.6-26.1-42.5c0.9-14.1-1-30,5.4-42.9
	c6.6-11.2,17-19.3,29.7-20.1c21.2-1.3,25.7,32.7,28.3,49.1C376.1,2111.6,373.8,2162.2,341.3,2145z M475.5,2119.9
	c-1.6,10.8-3.2,21.5-5.2,32.2c-1.3,9.7-10.2,14.5-19.2,16.3h-69.8c0-0.4,0.1-0.9,0.1-1.3c23.6-9.5,45.2-25.2,56.9-48.4
	c7.6-15.5,20.6-26.3,33.4-37.3c2-2,5.1-1.8,7.7-2.6C481.2,2092.5,476.6,2106.3,475.5,2119.9z M493.5,2134.8c1-6-2.5-31.8,5.3-31.4
	c6.7,0.9,2.8,10.2,3.8,15C506.5,2130.4,496.4,2145.8,493.5,2134.8z M526.8,2168.4H499c0-0.2-0.1-0.4-0.1-0.6
	c25.2-24.2,24.6-70.6,7.2-99.7c-3.5-5.4-5.4-11.3-5.8-18c-0.2-78.4-29.2-147.5-119.4-122.4c-54.3,8.7-73.2,48.8-49.4-5.4
	c1.5-3.4,3.7-1.7,5.7-0.5c41.8,23.4,79.1-24.3,98.2-56.9c2.7-4.7,3.2-4.8,6.6-0.6c21.5,27.6,48.1,52.1,58.7,86.6
	c9.1,34.5,17.8,69.4,20.1,105c3.4,36.4-1.5,73.6,6.3,109.6C527.4,2166.9,527.3,2167.8,526.8,2168.4z M553.6,2168.4h-1.8
	c-9.2-6.8-9.1-70.4-8.9-70.4c-0.3-52.4-6.5-105-16.2-156.5c-2-10-7.2-18.4-13.3-26.2c-18.1-23-36.2-46-54.2-69
	c-6.5-6.6-9.3-13.6-5.6-22.6c5.5-15.6,8.8-52.2,18.4-12.9c14.2,51.4,24.4,17.7,39.6,39.7c10.2,16.5,21.4,32.4,32.4,48.4
	c4.9,7.2,11.1,12.6,20,14.9c21.2,5.1,37.6-12.5,51.8-25.6c4.7-4.3,4.4-4.2,9.2-0.3c20.6,17.6,49.5,9.4,70.9-2.7
	c12.1-6.7,22.4-15.7,32.4-25c5.2-4,8.9-10.9,15.7-11.9c0.5,6.8-6,10.8-10,15.4c-36.7,36.2-69.4,77.6-96.3,121.6
	c-5.9,11.5-14.6,18.7-25.2,24.8c-45.5,24.2-64.7,77.9-62.1,127.6C549.9,2146.6,555.8,2160.7,553.6,2168.4z M567.6,2137.1
	c3.1-16.4,3.9-37.9,17-50.1c2.3,3.9,0.3,8.2,0,12.4c-1.4,10.5-2.4,21.1-4.4,31.4C577.7,2142,569.1,2162.3,567.6,2137.1z
	 M604.6,2168.4h-23c-0.2-0.1-0.4-0.2-0.6-0.3c1-2.8,3.6-4.5,5.1-6.9c2-3.8,4.3-3,7.2-1.1c3.9,2.9,9.1,3.9,12.3,7.6
	C605.3,2168,605,2168.2,604.6,2168.4z M599.3,2119.6c6.7-20.8,5.1-75.6,34.6-73.4c5.9,0.9,12.7,5.6,6,11.1
	c-12.2,11.4-21.9,25-24.7,42C615.2,2103.9,603.8,2131,599.3,2119.6z M618.4,2144.9c-4.2-7.5,3.7-10,9.8-9.5c0,0,0,0.1,0,0.1
	c8.8-1.4,13.8,5.2,5.1,10.7C627.3,2151,621.9,2153.4,618.4,2144.9z M681.7,2168.4h-47.7c-0.1-0.4-0.1-0.8-0.2-1.1
	c13.8-3.9,18.6-27.8,29.1-19.8c7.4,5.7,15.2,12.1,19.4,20.7C682.1,2168.3,681.9,2168.3,681.7,2168.4z M687.3,2139.7
	c-14.5-14.7-34.9-17-53.6-21.8c-5.3-2.7-5.6-3.9-3.7-9.5c1.4-12.7,16.5-26.4,29.6-26.9c11.9-1.3,30.5,48.4,31.2,59.1
	C689.7,2140.4,688.1,2140.5,687.3,2139.7z M730.1,2168.4h-14.2c-0.8-0.6-1.3-1.6-1.5-3.1c-0.8-28.2-13.1-53.3-21.3-79.7
	c19.3,0.6,27.2,20.8,34.4,35.9c4.8,8.6,4.1,18.1,5,27.2C731.3,2152.7,733.1,2164.9,730.1,2168.4z M752.1,2158.7
	c-0.5,0-1.1-0.1-1.6-0.1c-1.5-12.3-0.2-25.3-3.1-37.2c-4.4-14-10.4-28.6-19.9-40.1c-18.4-23.4-36.5-11-51.1-23.1
	c-2.6-2.6-2.5-6.6,0.4-8.8c13.7-9.7,27.4-19.5,41.4-28.8c5.7-3.8,7.7-3.4,11.5,2.4c4.9,7.7,9.1,15.9,13.4,24
	c6.5,12.4,8.8,26.1,9.8,39.8C753.9,2110.6,757.2,2135.1,752.1,2158.7z M786.6,2166.2c-0.2,1-0.6,1.7-1.1,2.2h-14.1
	c-0.7-0.7-0.9-1.9-0.5-4c3.9-23.5,4.6-47.2,1.9-70.8c-3.9-24-5.5-49.7-19-70.6c-1.2-4.9-14.2-13.1-7-17.9
	c30.2-20,26.8,23.9,25.6,34.5C776,2128.6,818.6,2058.4,786.6,2166.2z M802.3,2000.8c-0.1,1-2.2,38.2-2.8,57.3
	c-0.5,5,1.2,10.5-2,14.8c-8.7-4.3-9.5-30.2-10.2-39.6c-0.6-11.6-1-23.2-1.6-34.7c-0.2-3.8,1.1-5.2,4.8-5
	C797.9,1993.1,803.3,1990.1,802.3,2000.8z M798.5,1970.2c-3.7,2.7-7.9,2.7-7.6-3.3c6.5-41.6,14.1-111.1,44.7-140.7
	c15.4-15.2-5.9,85.1-4.2,92.8c-1.3,16.7-0.5,33.6-1.3,50.3c-0.4,2.5-2.7,2.9-4,1.1c-2-3.2-1.1-10.6-1-10.6
	c1.1-17.1-16.1-24.7-20.6-5.2C802.9,1960,802.9,1966.5,798.5,1970.2z M837.3,2024c0,2.5-1.9,7.4-4.5,10.4
	c-3.8,3.5-5.5,9.7-10.7,11.2c-2.7-9.7,1-21,1-31.2c0.1-7.5,0.3-21.3,4.8-21.3c1,0,1.9,1.4,2.1,2.3
	C832.6,2004.9,834.9,2014.5,837.3,2024z M818.3,2166.2c-0.2,0.9-0.9,1.6-1.8,2.2h-7.6c-0.4-0.6-0.5-1.5,0-2.7
	c8.9-18.6,8.3-39.5,13.1-59.1c6-13.3,18.7-19.7,15.7-37.1c-0.3-2.3-1.6-5.4,1.7-7.1c4.4-3.3,5.2,7.8,5.5,7.8
	c-2,14.9-5.8,34.3-9.1,49C831.7,2135.3,824.1,2150.7,818.3,2166.2z M840.3,2168.4c-0.6-0.8-0.5-1.7,0.3-2.8
	c18.1-31.8,17.5-69.2,19.1-104.6c4.3,1.1,8.6,2.3,12.8,3.9c6.3,2,6.4,2,5.1,8.8c-7.2,28.7-13.2,71.1-31.3,94.7H840.3z
	 M1069.2,2168.4H872.6c-0.3-0.7-0.1-1.7,0.5-3.4c10-29.7,20.4-59.2,25.6-90.2c5.9-43.3,27.2-80.4,56.5-112
	c39.8-47.2,77.2-96.6,114-146V2168.4z M1069.2,1771.7c-13.2,22.4-29.4,42.8-44,64.2c-8,12.1-20.5,15.1-34,17.1
	c-8.8-0.1-38,2.8-22.2-13.9c29.8-24.2,50-60.6,87.4-74.1c2.6-0.8,9.2-2.3,12.8-1.4V1771.7z M1069.2,1743.3
	c-28.1-7.1-49.4,23.3-70.9,38.3c-8.7,6.9-22.3,30.8-28.3,28.4c-11.2-13.9,21.9-45.9,40-61.3c20.2-18.1,40-37.2,59.3-56.1V1743.3z
	 M1069.2,1658.5c-39.8,47.8-86.2,89.9-136.8,125.9c-12.7,8.5-24.4,19.9-39.5,23.6c-8.7,1.5-17.7,5.4-26.5,4.2
	c1.4-6.9,8.7-9.9,13.5-14.3c41-31.7,83.7-61.3,123.6-94.4c21.9-18.2,43.7-36.6,65.7-54.7V1658.5z M1069.2,1624.7
	c-6.1,5.3-13.2,9.6-19.2,14.9c-11,8.7-22,17.3-33,26c-41.9,32.6-83.7,65.2-124.2,99.7c-3.1,2.2-5.9,5.5-9.9,5.6
	c7.4-10.9,19-19,28.4-28.3c50.9-44.6,102.8-88.2,157.9-127.4V1624.7z M1069.2,1581.6c-5.9,4.8-11.8,10-18.8,12.7
	c-2.1-10.2-0.4-20.9-0.9-31.3h0.2c-0.5-18.3-0.7-36.5,8.9-52.8c4.3-6.9,7-15,10.6-22.4V1581.6z M1069.2,1313.7
	c-6.4,36.5-8.1,73.6-10.6,110.5c0.1,22.8,3,43.8-9.6,64.2c-0.4,0.9-2.1,1.2-3.2,1.8c-0.1-35.4,2.5-72.6,8-108.2
	c2.8-30.7,4.3-61.3,10.8-91.5c1.2-9.7,2.5-19.4,4.5-29V1313.7z"/>
<path d="M82.3,2253.6v1021.8h1021.8V2253.6H82.3z M787.3,2288.6h7.2c0,0.1,0.1,0.1,0.1,0.2c-0.2,0.2-16.4,58.1-21.7,87.5
	c-0.4,2.5-0.3,5.7-3.9,5.2c-3.3-0.5-3-3.4-2.4-6.1c4.9-22,9.7-43.9,14.7-65.9C782.4,2306.4,784.2,2294.4,787.3,2288.6z
	 M737.3,2712.8c2.9-15.2,0-45.5,9.5-56.2c10.7-12.4-8.9-17.6-4.3-29.8c5.2-7.1,14.5,8.8,15.9,13.5c5.6,14,11,28.1,16.1,42.2
	c1.1,6.2-5.6,10.7-9.4,14.8c-8.9,8.1-17.9,16.1-23.5,27.2C735.9,2729.5,737.5,2712.8,737.3,2712.8z M693,2823.2
	c0.2,55.5-1.5,113.7-24.5,165.1c-8.8,16.6-16.8,33.6-25.6,50.1c-4.9,7.4-8.6,17.3-16.2,22.1c1-13.9,9.9-26.4,13.1-40
	c10.9-47,16.2-95.4,24.9-142.9c7.4-46.1,17.5-91.6,28-137c3.9-14.9,7.6-29.9,12.2-44.6c7.2-19.3,7-40.8,14.2-59.6
	c0.4,0.2,0.9,0.3,1.3,0.5c-1.5,38.8,4.7,79.3-10.1,116.1C701.5,2775.8,691.5,2798.2,693,2823.2z M568,2826.5
	c-0.3-14,6.7-10.9,14.9-4.6c16.5,9.6-11.4,20.3-0.9,57.2c4.3,20.9,11.1,40.9,20.8,59.9c1.8,5.7,6.4,11.6,3,17.5
	c-6.5-3.1-6.9-11.4-9.8-17.4C581.9,2903,574.4,2864.7,568,2826.5z M576,2971.9c-2.7-16.6-1.5-33.7-7.8-49.6
	c-1.5-3.9-2.1-8.1-3.3-12.7c0.3-0.7,0.8-1.8,1.4-2.9c9,18.7,14.1,39.9,20.2,59.9C587.8,2971.2,577.4,2979.7,576,2971.9z
	 M581.9,2781.9c9,4.6,12.8,14,19.3,21.2c0.4,0.5,0.6,2,0.2,2.2c-4.1,2.9-21.8-9.9-24.1-14.3C574.7,2786.8,578.9,2784.4,581.9,2781.9
	z M601.8,2890.9c-0.9-6.4-5.3-12.7-2.9-19.2c1.1,1,2.5,1.8,3.2,3c8.2,14.9,17.9,29,23.7,45c-0.9,2-3.4,5.6-4.5,8.3
	C609,2920.5,605.7,2904.2,601.8,2890.9z M611.3,2840.7c5.6-6,12.1-4.4,18.5-2.6c9.3,2.7,13.9,9.1,13.6,19.9c1.5,3-7.1,29-12.4,20.7
	C626.1,2872.7,603.1,2847,611.3,2840.7z M644.9,2490.3c-0.2-5.8-4.4-11.6-2.1-17.2c29.2,36.5,17.4,60.1,13.5,101.8
	c-1.9,20.1-2.7,40.3-5.3,60.3c-5.4,30-1.7,61.3-7.6,90.7c-4.5-10-3.9-32.3-4.1-32.4c1.4-42.4,5.8-84.6,10.1-126.7
	C650.3,2541.2,648.5,2515.5,644.9,2490.3z M684.3,2508c5.6,6.1,12.4,18.1,14.9,26.6c3.6,12.5,5.2,27.1,3.9,64.2
	c-3.7,39.9-14,78.5-26.2,116.5c-9.4,32.5-12.2,66.4-22,98.8c-0.3,8.4-10,1.7-8.4-3.2c18.8-40.5,19.3-85.3,24.3-129
	c3.8-49,8.6-97.8,14.3-146.6C686.9,2527.4,681.1,2513.4,684.3,2508z M682.6,2449.8c-4.4-9.2-9-18.2-11.4-28.3
	c-1.1-7.5-7.3-14.2-6.3-21.9c8.8,7,14.8,17.3,22.3,25.7c3.9,4.9,7.1,10.2,7.7,18.4C692.3,2447.9,687.6,2461.7,682.6,2449.8z
	 M719.2,2548.2c-0.6-17.1-5.9-33.1-13-48.3c-6.3-13.4-4.7-25.3,3.2-37c0.7-1,3.5-1.7,4-1.2c8.7,7.9,16.4,16.4,15.6,29.3
	c-2.7,30.8-0.9,63.2-5.7,93.2C717.1,2578.8,720.7,2557.1,719.2,2548.2z M747.8,2404.3c-1,16.4-0.1,32.3,2.4,48.1
	c1.5,17.1,11.2,34.1,6.1,51.3c-9.4,29.9-6.8,61.7-7.4,92.6c0,2.9,0.7,7.4-3,7.4c-3.7,0-2.7-4.4-2.7-7.4c-0.1-30.2,0.8-60.2,5-90.1
	c2.5-22.6-2-43.1-17.1-60.6C713.8,2424.7,731.4,2432.1,747.8,2404.3z M749.4,2759.4c1-5.5,17.5-33.6,22.2-34.4c0,1.4,0.5,3,0,4.2
	c-8.2,19.2-10.7,39.4-11.4,60c-0.5,13.4-1.5,26.8-6.7,39.5c-4.5,8.3-5.1,19.7-13.3,25.2c-0.6-1.8-1.2-3.5-1.9-5.3
	C738.6,2848.5,743.6,2788.8,749.4,2759.4z M744.3,2909.6c7.1-16.5,11.7-34.7,20.6-50.2c1.9,2.3,3.2,5.1,3.8,8
	c2,12.6,7.2,24.1,12.4,35.5c8.3,22.6,35.9,43,56.8,22.8c14.3-11.8,21.3-27.8,25-45.8c4.7-19.5,12-38.4,17.7-57.6
	c7.2-21.3,6.8-29.5,19.3-4c-23.9,68.6-54.3,134.5-86.9,199.3c-6,13.4-11.1,27.3-15.7,41.3c-4.6,11-3.2,24.9-9.9,34.8
	c-21.9-45.7-29.7-97.6-39-147.3C746.9,2934.1,738.5,2921.5,744.3,2909.6z M783.2,2827.7c4.9-23.4,22.5-45,45.8-49.6
	c8.4-1.7,29.8,1.7,31.5,2.3c8.7,3,9,3.3,6.3,11.9c-11.3,35.4-20.7,71.5-37.1,104.9c-6.3,10.6-13.1,13.2-22,2.1
	c-5.7-6.8-9.4-15-11.8-23.7C791.9,2861.1,782.5,2841.9,783.2,2827.7z M808.1,3099.6c8.3-41.3,29.8-77.1,47.5-114.8
	c15.3-34.4,30.4-69,43.7-104.1c0.5,0.1,1,0.1,1.5,0.1c-3,43.6-16.7,85.9-26.6,128.3c-12.9,40.1-22.8,82-39.7,120.5
	c-9,13.2-30.3,5.1-34-4.5C799.2,3116.2,806.3,3108.1,808.1,3099.6z M882.9,2766.8c-17.3-12.9-36.3-13.3-56.5-9.3
	c-13.2,1,12.9-28.7,28.7-24.4c14.3,1.2,27.6,5.4,37,16.9c5.7,9,13.4,19.6,13.3,30.8C896.8,2778.5,890.4,2771.3,882.9,2766.8z
	 M818.6,2726.2c-10.7,10-18,22.4-24.1,35.6c-3.7,6.3-6,14.8-13.3,17.8c-4-17.9,13.7-51.7,18.7-70.6c5-15,18.8-20.2,32.8-20.4
	c26.8,2.1,49.6,18.9,72.1,32.2c8.4,4.9,17.8,18.4,14.8,28C899.3,2710.8,852.4,2693.8,818.6,2726.2z M869.4,2678
	c-8.8-4-17.3-8.4-26.2-12c-11-5.2-21.9-0.4-33.1,0.1c3-15.6,14.7-28,23-41c3-4.3,3.4-3.9,6.9,0c17.4,19.9,36.3,38.5,51.3,60.5
	C883.2,2686.5,876.7,2680.4,869.4,2678z M804.9,2615.5c-4.8-5.3-9.5-10.7-14.1-16.1c1.3-3.7,3.7-30.4,9.8-24.2
	c4.6,8.6,9.2,17.1,10.3,28.5C810.2,2608.1,809.1,2616.4,804.9,2615.5z M794.6,2635.1c1.9,6.1-2.9,12.6-4.8,18.4
	c-1.6,3.8-3.4,4.2-5.4,0.6c-5.2-10-10.1-18.9-13.7-29.8c1.4-2.1,2.5-4.9,4.5-6.5C783.9,2617.9,790.6,2628.1,794.6,2635.1z
	 M770.3,2595.8c-8.7-6.5-4.6-60.7,0.7-69.6c8.5,7.3,7.1,36,7.1,36C777.4,2573.4,781.4,2588.8,770.3,2595.8z M766.5,2288.6
	c-0.1,0.4-0.2,0.8-0.4,1.3c-9.8,34.8-14,70.8-17,106.8c-0.5,0-1,0-1.5-0.1c-7.9-35.4-12.5-71.6-22.2-106.6c-0.2-0.5-0.3-1-0.4-1.4
	H766.5z M699.7,2288.6c0.3,0.6,0.5,1.3,0.6,2.1c3.7,27.1,12,53.2,19.3,79.5c1.1,9.7,11.4,26,1.1,32.8c-5.8,2.3-12.4,13.7-18.4,6.9
	c-12.7-11.8-23.4-25.2-33.9-38.9c-15.1-19.1-10.7-45.5-15.7-68.1c-1.6-7.2-3.2-11.5-3.8-14.2H699.7z M652.7,2433.4
	c4.4,16.3,15.6,29,21.9,44.2c-0.5,0.3-1,0.7-1.5,1c-3.9-3.7-6.2-8.8-8.8-13.5c-5.5-11.2-13.9-19.7-23.3-27.3
	c-11.2-9-17.6-20.6-20.8-34.5c-2.6-14.9-10-29.6-10.8-44.6c0.4-0.9,2.4-2,3.1-1.7c11,5.9,22.3,11.6,25.3,25.8
	C641,2400.2,647.2,2416.7,652.7,2433.4z M625.1,2288.6c0.1,0.3,0.2,0.6,0.3,0.9c-0.1,5.6,18.8,58.9,6.6,51.9
	c-9.5-3.9-19.1-7.8-28.2-12.6c-2.5-1.3-3.7-5.6-5-8.7c-1.8-10.4-3-21.1-5-31.5H625.1z M571.5,2288.6c0.6,1.5,1.1,3.7,1.8,6.8
	c0.8,3.9,1.8,7.9,2.6,11.8c1.4,9.3-18.4-11.5-23.9-18.6H571.5z M553,2324c7.3,8.7,14.4,17.6,23.9,24.1c7.1,4.8,8.7,12.8,11.1,20.2
	c13,48.1,23.8,47.1-19,38.3c-9.9-1.2-20.5,0-20.2-13.4c-0.9-16.5-2.7-49.4-2.7-49.4c0-7.1,0-14.1,0-21.2
	C546.1,2316.7,551.3,2321.8,553,2324z M506.1,2288.6h14.9c6.6,10.4,2.9,29.6,3.8,41.5c-0.2,0,1.9,47.1,3,70.6
	c0.9,7.3-8.2,7.4-13,9.7c-2.8,0.9-4.5-0.2-4.8-3.3c-3-36-3-72.4-8.2-108.1C501.8,2294.6,503.5,2290.9,506.1,2288.6z M489.4,2460.4
	c-2.5,16.5,13.3,71.8,36.3,51.1c9.6-14.4-20.9-34.4-15.8-62.6c1-10.3,9.3-17.7,19.5-16.1c7.4,1.8,12.7,52.1,14.1,61.7
	c6.9,82.4-7.8,11.8-32,45.3c-15.9,17.7-3.2,39.3,7.4,56.1c10.5,19.3,40.9,15.2,42.8-7.7c3.2-24.6,7.1-49.5,4.5-74.3
	c-1-19.8-1.5-39.7-6.4-59c-2-16.2-10.5-29.1,13.3-24.6c40.8,8.9,41.6,17.7,47.8,56.5c4.3,26.3,6.3,52.8,6.8,79.4
	c0.7,24.9-4,49.3-6.4,73.9c-0.1,20.7-0.3,41.4-0.1,62.2c-0.9,18.2,1.7,73-9.3,84.6c-6-4.1-8.5-13.6-14-18.6
	c-21.5-19.9-35.6,16.4-43.1,2.1c-3.9-5.9-7.6-11.8-11.8-17.5c-10.2-13.6-13.7-30-18.8-45.8c-20.2-46.9-27.4-99.2-25.6-150.1
	c1.9-19.9,0.2-39.8-5-59.1c-1.3-11.7-19.4-36.5-7.2-44.6C491.2,2450.6,489.6,2457.7,489.4,2460.4z M537.5,2578.7
	c-5.9,0.5-7.1-10.7-10.4-15.8c-0.7-2.7,0.4-4.6,3.1-4.6C535.9,2557.5,540.5,2577.6,537.5,2578.7z M529,3061.8
	c1.7-15.5,2-31.3,3.5-46.7c2.4-12.1,5.7-24.1,8.7-36.2c2.5-10.1,5.1-20.2,7.7-30.2c0-2.3,2.5-2.9,3.9-4.3
	c4.7,27.6,4.3,57.2-4.1,84.3c-4.3,14.3-8,28.7-11.9,43.1c-1.3,4.2,0,9.3-4.4,11.8C528,3084.2,528.7,3066.2,529,3061.8z
	 M481.8,2839.4c-10.8,9.5-37.6-16.4-71.2-10.1c-11.3,1.4-22,4.6-32.5,8.9c-4.8,1.8-10.1,3.7-9.1-5c4.2-19.7,13.1-41,19.8-60.4
	c3.1-9.7,4.9-22.5,17.6-23.1c46.7-5,76.2,39.3,100.2,73.1c2.9,4,2.8,5.3-1.7,6.3C496.4,2831,488.7,2834.1,481.8,2839.4z
	 M488.9,2888.6c-4.6,2.5-14.1-4.4-19.2-6c-1.1-0.6-2.4-3.5-1.9-4.5c1.8-2.2,4.7-9.2,8-5.7C480.3,2878,485.1,2882.6,488.9,2888.6z
	 M426.5,2897.7c-7.9,5.6-14.5,12.5-18.8,21.2c-6.7,15.5-28.6,1.3-40.7,15.8c-2.6,3.2-6.4,4.8-9.7,7c-0.2-3.2-0.8-9.7-1-9.7
	c0-23.5,0.1-49.3,15.6-62.5c21.8-18,52.5-24.5,78.2-11.9c4.1,1.7,4.7,3.1,2.9,7C447.1,2879.2,440.5,2889.7,426.5,2897.7z
	 M438.2,3012.6c6.9,8.4,7.2,20.9,11.2,31.1c3.4,12.1,6.7,24.2,10.2,36.3c2.4,11.5,8.5,22.9,8.7,34.6c-1.1-0.2-2.6-0.1-3.2-0.7
	c-11.1-14.3-38.1-0.4-36.6-19.1c1.4-18.6,2.7-37.2,4.4-55.8C434.4,3030.2,433.6,3020.2,438.2,3012.6z M349.3,2831.4
	c-3,17.3-4.7,33-21.9,41.8c-0.4-1.2-1.2-2.5-1-3.5c2.5-12.1,4.3-24.5,8-36.2c6.8-19.9,11.3-45.6,29.2-58.1
	C358.2,2793.6,352.3,2812.3,349.3,2831.4z M372,2646.2c0.5-0.2,1-0.4,1.5-0.6c5.9,8.1,8.9,18.1,13.5,27c2.4,5.2,1.1,10.6,0.4,15.9
	c-3.6,13.9-0.5,46.8-17.4,50.2c-2.6-0.4,4.7-20.6,6-31C378.5,2687.3,371.5,2666.7,372,2646.2z M513.7,2791.8
	c-0.4,0.4-0.8,0.8-1.2,1.2c-12.4-14.8-19.4-33.3-35.5-45.1c-21.3-19.6-30.1-49.6-52.8-68.4c-7.8-7.3-14.1-16.9-10.1-27.9
	c2.5-9.2,4.3-18.7,6.6-27.9c0.4-0.9,1.4-2.2,2.1-2.2C453.2,2677,481.1,2736.5,513.7,2791.8z M430.2,2573.4
	c3.8-10,7.1-20.2,10.4-30.5c6.8-19.4,10.8-39.9,19.9-58.4c3.5-7,7.5,7.5,8.8,10.5c13.2,40.1,6.6,83.1,11.2,124.6
	c3.7,37.1,12.6,74.1,26.7,108.7c-0.8,0.3-1.6,0.7-2.3,1c-24.6-46.8-47.7-94.5-72.8-140.9C428,2583.6,428.1,2579,430.2,2573.4z
	 M516.1,2849.4c13.4,2,14.6,24.7,20.1,35.3c4.3,10,7.2,20,2,30.4c-3,5.4-2.5,12.7-7.3,16.9c-10-24.4-20.4-49.2-33-72.6
	C493.7,2854.6,512.3,2850.1,516.1,2849.4z M530,2775.2c2.2-1.9,14.7,17.8,22.2,26.7c3.2,3.4,3.1,13.8-3.4,8.6
	c-7.3-10.3-12.7-22-18.9-33.1C529.6,2777.1,528.9,2776.1,530,2775.2z M477.8,2424.4c1.6-15.5,3.2-31,4.8-46.5
	c0.2-2.6,1-20.8,5.7-14.1c0.9,8.6,0.1,17.5,0.4,26.1c0,0,0,0,0,0c-0.7,9.8,4.3,37.6-10,37.8C478.1,2427.7,477.7,2425.6,477.8,2424.4
	z M414.6,2288.6h19.5c0,0.3-6.2,37.4-8.6,55.7c-2.3,17.5-3.6,35.1-5.4,52.6c0.2,2-0.6,3.3-2.1,4.5c-1.8-1.7-1.6-4.2-1.7-6.5
	c0-15.2,0-30.3,0-51.4c-0.4-12.3-0.7-31.6-1.4-49.6C414.6,2291.6,414.5,2289.8,414.6,2288.6z M410.1,2510.3
	c3.4-13.9,4.2-28.6,6-42.9c2.9-20.2,14.8-12.1,18.7-47c4.5-31.3,9.3-62.5,14.6-93.6c1.8-10.8,3.5-21.5,5.2-32.3
	c0.2-2.6,0.4-4.6,0.8-6h20.6c0.2,1.7,0.2,4.1,0,7.5c-1.7,19.1-5,38.4-9.4,57.1c-7.2,26.2-7.4,53.2-9.8,80c1.7,14.6-5.3,26-12.1,37.9
	c-5.7,9.9-10.2,20.7-14.2,31.5c-5.9,13.7-6.8,29.6-14.5,42.3C409,2534.6,406,2522.5,410.1,2510.3z M412.1,2699.8
	c6.1,7.1,12,14.3,18,21.5c4.5,6.9-9.2,4.5-13.4,5.2c-4.7,0.8-15.4,2.5-13.7-5.1c1.2-6.7,2.6-13.5,4.1-20.1
	C407.9,2698.1,409.9,2697.2,412.1,2699.8z M405.9,2592.6c-4.5,8.1-5.5,17.1-7.5,25.9c-1.6,3.1-1.6,24.1-7.6,16.2
	c-10.1-20.3-8.5-27.9-8.8-28.1c4.9-14.3,7.9-30,15.7-42.9C403.5,2569.5,410.4,2584.7,405.9,2592.6z M391,2288.6
	c4.3,10.7,1.4,42.1,1.8,48.6c-0.6,33.3,1.3,66.7,1.9,100c0.2,8.9,0.5,17.8,0.7,26.8c0.3,2.8,0.1,5.4-1.6,7.8
	c-4.7-6.5-3.1-15.9-4.7-23.6c-4.5-32.8-4.1-66.3-8.8-98.9c-3-8.9-13.2-9.5-17.4-1.2c-4.9,8.1-4.9,17-4.2,25.9
	c2.4,32.6,5.2,65.1,12.3,97c3.5,17.7,8.9,34.8,14.3,51.9c1,3.1-0.1,7.3-1.1,10.7c-4.5,12.8-6.3,27.2-13.2,38.8
	c-5.2-8.9-2.6-23.6-4.3-34.1c0.5,0-13-166.6-21.6-249.6H391z M117.3,3240.4v-951.8h197.7c0.1,0.7,18.7,143,25.6,213.4
	c5.5,47.5,8.4,95.2,11.5,142.9c3.1,35.6,4.2,71.8-10.3,105.3c-48.8,118.9-52.7,233.4-30.2,358.9c6.8,43.9,14.2,87.8,22.8,131.3
	H117.3z M332.7,3006.5c-0.5,15.5-0.6,31-1.2,46.4c-1.1,6.6,0.1,15-4.3,20.3c-2.6-5.3-1.7-11.8-2.1-17.6c0-28-6.3-55.4-6.2-83.5
	c0.1-24.9-2-54.6,17.3-73.3c2-2.1,3.4-1.4,3.8,1.6C333.7,2935.5,334.3,2971.1,332.7,3006.5z M348.1,3216.4
	c-2.4-17.2-1.9-34.6-2.7-48.9c3.4-48.2,1.7-90.3,10.2-135.8c3.2-14.4,4.2-29.2,6.4-43.8c2.6-16.3,12-30.7,25.6-39.5
	c3.1-1.6,6.1-0.4,4.9,3.8c-4,14.7-8.1,29.4-12.4,44c-9.9,41.5-13.4,84.5-20,126.7c-3.2,29.9-6.8,59.9-7.6,90
	C351.2,3224.8,348.7,3220.8,348.1,3216.4z M368.7,3239.5c-4.5-1.1,1.3-17,2.4-24.9C372.6,3221.2,373,3239.5,368.7,3239.5z
	 M413.9,3240.4h-22.5c-0.5-0.9-0.8-2.1-0.8-3.6c2-25.9,1-66.7,17-87.1c1.8,4,0.6,8.5,0.9,12.7c0.1,2.5,3.2,39.2,4.9,58.8
	C413.7,3226.7,417.2,3235.9,413.9,3240.4z M417.5,3000.4c-3.9,27.3-5.4,54.9-7.1,82.4c0.6,39.9-13.3,25.3-22.9,56.6
	c-4.1,16.6-8.9,33.1-12.8,49.9c-0.4,0-0.8,0-1.2,0c2.7-38.1,10.5-76,14.8-114c0-8.3,14.9-130.7,29.9-104.3
	C423.1,2980.2,418.4,2990.6,417.5,3000.4z M423.6,2945.6c-0.2-1.5-1.1-3.2-0.6-4.4c4.1-7.5,5.6-18,12.8-23c2.5,4-1.2,8.1-2.3,12
	c-2.6,5.3-4,11.4-8.3,15.6C424.6,2945.7,424.1,2945.6,423.6,2945.6z M428.7,3163.6c0.1-1.8,0.3-21.5,1.1-32.2
	c0.5-7.6,4.8-10,11.9-7.3c11.5,5.2,17.5,19.9,26.1,29c2.6,3.4,1.6,6.3-1.4,8.8C433.6,3184.7,426.7,3224,428.7,3163.6z M474.6,3240.4
	h-37c-0.2-0.6-0.4-1.4-0.3-2.3c0.3-20.1,13-38.1,28.2-50.5c3.2-2.9,5.4-1.2,6.1,2.3c1.9,15,3.5,30.1,5.3,45.1
	C476.8,3237.4,475.9,3239.1,474.6,3240.4z M501.7,3240.4h-5.3c-2.9-7.9-0.1-21.7-1-29.7c0.1,0-2.4-30.9,2.9-32.8
	c2.8-1.4,4.5-0.7,4.9,2.5c0.1,17.3,0.2,34.7,0.2,52C503.2,3235.4,503,3238.2,501.7,3240.4z M509.4,3148.2c0.7,12.3-12.4,10-13.4,0.8
	c-0.5-6-0.8-12.1-0.2-18.1c-0.7-2.9,11-49.9,14.6-37.6C510.6,3096.1,508.9,3129.9,509.4,3148.2z M505.4,3029.8
	c-6.7,19.6-9.4,41.4-18.2,59.9c-7.5-15.9-7.5-35.6-13.3-52.6c-4.9-23.9-19.1-43.5-28.5-65.5c-0.8-11.8,6.4-23.3,8.3-34.9
	c2.1-8.6,1.5-17.8,4.3-26.2c5.3-12.3,25.8,5,29.6,12c11.7,17.9,25.5,35.5,32.3,56.1C520.5,2985.7,510.6,3012.5,505.4,3029.8z
	 M525.7,3147.9c12.2-31.9,27.6-62.1,36.1-95.5c5.7-13.2,7.6-47,18.5-53.1c7.3-3.7,13-11.2,21.2-12.7c0.5,7.8-6.3,13.1-9.1,19.8
	c-16.7,30.8-30.2,63.1-42.1,96.1c-4.9,13.9-8,28.4-11.9,42.6c-2.4,12.5-6,25.4-12.6,9.1C524.9,3152.2,524.9,3149.9,525.7,3147.9z
	 M548.2,3240.4h-12.4c-0.5-1.4-0.7-3.2-0.7-5.3c21.9-82.6,43.6-169.4,90.5-241.4c-1.6,17.9-11.2,34.4-15.3,51.9
	c-13.5,43.9-20.3,89.6-39.5,131.6C564.4,3190.8,558.6,3229.1,548.2,3240.4z M641,3240.4h-46.2c-0.5-0.9-0.7-1.9-0.6-3.2
	c2.1-16.6,5-33.2,7.2-49.9c1.3-68.5,55.8-117.1,80.7-177.3c18.8-43.2,28.9-89.8,28.4-137c1.8-33.2-2.2-70.6,13.8-100.2
	c1.9,6.2-1,13.6-1.4,20.1c-2.4,13.7-3.3,27.4-3.1,41.3c-1.4,31.1,3.9,63-3,93.4c-5.5,47.7-25.3,91.5-36.3,137.9
	c-12.8,49.3-27.6,98.3-32.4,149.2C646.6,3229.5,645,3236.7,641,3240.4z M685,3240.4h-20c-0.3-1.9-0.3-4.5-0.1-8.2
	c5.6-41.2,15.4-86.1,25.7-127c11.1-43.8,21-89.2,38.9-130.4c3.3,3.4,2.2,8.4,3.3,12.7c2.2,10.2,4.4,20.3,6.8,30.4
	c4.6,22.1,11.7,43.6,18.7,65.1c3.6,10.8,7.4,21.5,11.9,32c2.5,5.9,1.4,10.6-1.6,15.6C743.7,3165.2,725.6,3222.2,685,3240.4z
	 M785.3,3240.4h-58.5c1.4-2.7,3.8-4.9,5.6-7.2c12.6-13.6,22.1-29.3,30.3-45.9c6.5-13,13-26.1,22.2-37.5c4.4-6.8,9.5,8.4,31.8,7.2
	c4.5,0.4,5.4,1.6,3.7,5.8c-2.5,6.4-5.3,12.6-8,18.9c-8.8,18.9-15.5,39-25.8,57.2C786.2,3239.4,785.7,3239.9,785.3,3240.4z
	 M816.8,3240.4h-8.7c2.1-11.8,11.2-21.6,15.6-32.7c4.3-8.5,8.3-17.2,12.2-25.9c29.3-71.8,53-146.2,70.5-221.9
	c5.9-25.7,11-51.6,14-77.8c3.2-21.9,2.6-44,3-66c0-5.2-0.9-10.3,3.4-14.2c5,8.8,3,32.1,3.3,32.1c-2.6,81-24,159.4-48.6,236.1
	c-3.9,20.2-12.2,38.9-19.5,58c-13.9,36.9-28.3,73.5-43.8,109.7C817.9,3238.9,817.4,3239.7,816.8,3240.4z M1069.1,3240.4H839.2
	c13-27.9,26.3-55.6,37.3-84.4c28.1-71.1,49.5-144.8,62.6-220.2c6.6-48.7,16.6-97.5,12.1-146.9c-7.3-90.7-59.5-147.8-116.5-212.3
	c-40-44.1-58-107-48.6-165.9c5.3-31.2,15.9-61.4,24.8-91.7c5.6-17.2,7.5-26,10.3-30.4h248.1V3240.4z"/>
</svg>
