<svg xmlns="http://www.w3.org/2000/svg" viewBox="0 0 48 48"><path fill="#FFF" fill-rule="evenodd" d="M43.268 43.268c-.943.944-2.592.944-3.535 0l-9.772-9.772a17.605 17.605 0 0 0 3.536-3.536l9.77 9.772a2.503 2.503 0 0 1 0 3.536M4 19.5C4 10.953 10.954 4 19.5 4 28.047 4 35 10.953 35 19.5S28.047 35 19.5 35C10.954 35 4 28.047 4 19.5m40.682 18.818L34.626 28.261A17.372 17.372 0 0 0 37 19.5C37 9.851 29.15 2 19.5 2S2 9.851 2 19.5C2 29.149 9.85 37 19.5 37c3.194 0 6.182-.874 8.762-2.375l10.057 10.057A4.466 4.466 0 0 0 41.499 46a4.469 4.469 0 0 0 3.183-1.318 4.504 4.504 0 0 0 0-6.364M19.5 30.5c-6.065 0-11-4.935-11-11s4.935-11 11-11c6.066 0 11 4.935 11 11s-4.934 11-11 11m0-24c-7.168 0-13 5.831-13 13 0 7.168 5.832 13 13 13s13-5.832 13-13c0-7.169-5.832-13-13-13"/></svg>