<svg xmlns="http://www.w3.org/2000/svg" viewBox="0 0 927.255 480"><defs><clipPath id="a" clipPathUnits="userSpaceOnUse"><path d="M0 360h695.441V0H0Z"/></clipPath></defs><path d="m0 0 17.845 27.541L.206 54.153h17.33l10.109-17.019h.412l9.799 17.019h16.091L35.999 27.025 54.051 0H36.722L26.304 17.639h-.413L15.886 0Z" style="fill:#0f62fe;fill-opacity:1;fill-rule:nonzero;stroke:none" transform="matrix(1.33333 0 0 -1.33333 663.184 288.002)"/><g clip-path="url(#a)" transform="matrix(1.33333 0 0 -1.33333 0 480)"><path d="M0 0v10.484h2.537l2.499-4.776h.075l2.425 4.776h2.537V0h-1.94v4.477l.112 3.171h-.149L4.999 1.94 1.978 7.648h-.15l.111-3.171V0Zm-6.678 0v8.693h-3.209v1.791h8.544V8.693h-3.209V0Zm-120.577-54.244V-.091h15.267v-9.18h.618c1.96 5.673 6.499 10.418 15.06 10.418 11.038 0 16.916-7.839 16.916-21.455v-33.936h-15.265v32.698c0 6.911-1.96 10.315-7.53 10.315-4.952 0-9.799-2.579-9.799-7.942v-35.071zm-26.715 21.558v11.037c0 6.808-3.508 10.728-9.49 10.728s-9.489-3.92-9.489-10.728v-11.037c0-6.808 3.507-10.728 9.489-10.728 5.982 0 9.49 3.92 9.49 10.728m-34.865 5.57c0 17.432 9.49 28.263 25.375 28.263s25.375-10.831 25.375-28.263c0-17.432-9.49-28.366-25.375-28.366s-25.375 10.934-25.375 28.366m-53.019-18.67 8.974 9.077c3.817-4.229 8.458-6.911 14.338-6.911 5.982 0 8.045 1.96 8.045 5.158 0 2.682-1.65 4.023-5.467 4.538l-5.879.722c-12.275 1.548-18.258 6.911-18.258 16.711 0 10.418 8.149 17.638 21.043 17.638 11.346 0 16.607-3.094 22.074-8.458l-8.768-8.974c-3.404 3.404-7.942 5.57-12.481 5.57-5.158 0-7.221-1.857-7.221-4.539 0-2.888 1.238-4.435 5.674-5.054l6.086-.825c11.758-1.548 17.844-6.911 17.844-16.298 0-10.418-9.283-18.051-23.208-18.051-10.419 0-17.226 3.507-22.796 9.696m-16.091-8.458c-10.521 0-16.092 5.467-16.092 15.782v26.509h-7.632V-.091h3.816c4.126 0 5.364 2.063 5.364 5.777v8.871h13.718V-.091h10.728v-11.862h-10.728v-30.429h9.903v-11.862zm-48.892 16.401v6.395h-7.427c-5.88 0-8.974-2.166-8.974-6.086v-1.547c0-3.92 2.579-5.776 7.117-5.776 5.055 0 9.284 2.063 9.284 7.014m11.862-16.401c-5.467 0-9.386 3.713-10.315 9.49h-.619c-1.65-7.015-7.633-10.728-15.885-10.728-10.831 0-16.813 6.395-16.813 15.782 0 11.45 8.871 16.916 23.209 16.916h8.561v3.404c0 5.261-2.579 8.562-8.974 8.562-6.086 0-9.284-3.095-11.656-6.395l-9.077 8.045c4.332 6.396 10.521 10.315 21.867 10.315 15.267 0 23.106-7.014 23.106-19.805v-23.724h5.054v-11.862zM-425.459-.091h14.75l5.261-21.867 3.713-16.504h.413l4.332 16.504 6.189 21.867h13.925l6.293-21.867 4.435-16.504h.413l3.713 16.504 5.26 21.867h14.132l-14.957-54.153h-15.988l-6.602 22.899-3.816 14.029h-.31l-3.713-14.029-6.601-22.899h-15.679z" style="fill:#000;fill-opacity:1;fill-rule:nonzero;stroke:none" transform="translate(568.427 198.243)"/></g></svg>