<?xml version="1.0" encoding="UTF-8"?> <!-- Generator: Adobe Illustrator 26.0.3, SVG Export Plug-In . SVG Version: 6.00 Build 0) --> <svg xmlns="http://www.w3.org/2000/svg" xmlns:xlink="http://www.w3.org/1999/xlink" version="1.1" id="Layer_1" x="0px" y="0px" viewBox="0 0 512 512" style="enable-background:new 0 0 512 512;" xml:space="preserve"> <style type="text/css"> .st0{fill:#020A47;} .st1{fill:#D6F622;} </style> <path class="st0" d="M85.3,221.8c0,132,107,239,238.9,239v-34.1c-113.1,0-204.8-91.7-204.8-204.8H85.3z"></path> <path class="st1" d="M324.3,85.3c-75.4,0-136.5,61.1-136.5,136.5c0,75.4,61.1,136.5,136.5,136.5v34.1 c-94.3,0-170.7-76.4-170.7-170.7c0-94.2,76.4-170.6,170.7-170.6V85.3z"></path> <path class="st0" d="M392.5,221.9c0-37.7-30.6-68.3-68.3-68.3c-37.7,0-68.3,30.6-68.3,68.3s30.6,68.3,68.3,68.3v34.1 c-56.6,0-102.4-45.8-102.4-102.4c0-56.6,45.8-102.4,102.4-102.4c56.6,0,102.4,45.8,102.4,102.4L392.5,221.9z"></path> </svg> 