<?xml version="1.0" encoding="UTF-8"?> <!-- Generator: Adobe Illustrator 26.0.3, SVG Export Plug-In . SVG Version: 6.00 Build 0) --> <svg xmlns="http://www.w3.org/2000/svg" xmlns:xlink="http://www.w3.org/1999/xlink" version="1.1" id="Layer_1" x="0px" y="0px" viewBox="0 0 512 512" style="enable-background:new 0 0 512 512;" xml:space="preserve"> <style type="text/css"> .st0{fill:#D30971;} .st1{fill:#020A47;} </style> <path class="st0" d="M238.9,51.2h34.1v153.6h-34.1V51.2z"></path> <path class="st0" d="M170.7,85.3h34.1v136.5h-34.1V85.3z"></path> <path class="st0" d="M102.4,136.5h34.1v102.4h-34.1V136.5z"></path> <path class="st0" d="M307.2,85.3h34.1v136.5h-34.1V85.3z"></path> <path class="st0" d="M375.5,136.5h34.1v102.4h-34.1V136.5z"></path> <path class="st1" d="M238.9,307.2h34.1v153.6h-34.1V307.2z"></path> <path class="st1" d="M307.2,290.1h34.1v136.5h-34.1V290.1z"></path> <path class="st1" d="M375.5,273.1h34.1v102.4h-34.1V273.1z"></path> <path class="st1" d="M170.7,290.1h34.1v136.5h-34.1V290.1z"></path> <path class="st1" d="M102.4,273.1h34.1v102.4h-34.1V273.1z"></path> </svg> 