<?xml version="1.0" encoding="UTF-8"?> <!-- Generator: Adobe Illustrator 26.0.3, SVG Export Plug-In . SVG Version: 6.00 Build 0) --> <svg xmlns="http://www.w3.org/2000/svg" xmlns:xlink="http://www.w3.org/1999/xlink" version="1.1" id="Layer_1" x="0px" y="0px" viewBox="0 0 512 512" style="enable-background:new 0 0 512 512;" xml:space="preserve"> <style type="text/css"> .st0{fill:#020A47;} .st1{fill:#5EE4E4;} </style> <path class="st0" d="M209,460.8c-35.3,0-64-28.7-64-64s28.7-64,64-64h29.9v-59.7H115.2c-35.3,0-64-28.7-64-64s28.7-64,64-64h123.7 v-29.9c0-35.3,28.7-64,64-64s64,28.7,64,64s-28.7,64-64,64H273v59.7h123.7c35.3,0,64,28.7,64,64s-28.7,64-64,64H273.1v29.9 C273.1,432.1,244.4,460.8,209,460.8z M209.1,366.9c-16.5,0-29.9,13.4-29.9,29.9s13.4,29.9,29.8,29.9c16.5,0,29.9-13.4,29.9-29.9 v-29.9H209.1z M273.1,332.8h123.7c16.5,0,29.9-13.4,29.9-29.9S413.3,273,396.8,273H273.1V332.8z M115.2,179.2 c-16.5,0-29.9,13.4-29.9,29.9S98.7,239,115.2,239h123.7v-59.7L115.2,179.2L115.2,179.2z M273.1,145.1H303 c16.5,0,29.9-13.4,29.9-29.9S319.5,85.3,303,85.3s-29.9,13.4-29.9,29.9V145.1z"></path> <path class="st1" d="M302.9,85.3c-16.5,0-29.9,13.4-29.9,29.9v29.9h29.9c16.5,0,29.9-13.4,29.9-29.9S319.4,85.3,302.9,85.3z"></path> <path class="st1" d="M209,426.7c16.5,0,29.9-13.4,29.9-29.9v-29.9H209c-16.5,0-29.9,13.4-29.9,29.9 C179.2,413.3,192.6,426.7,209,426.7z"></path> </svg> 