<svg xmlns="http://www.w3.org/2000/svg" viewBox="0 0 48 48"><path fill="#ED7100" fill-rule="evenodd" d="m19.537 29.474.549 1.923c-1.332.38-2.717.573-4.115.573-2.865 0-5.663-.839-8.059-2.369v7.155C7.912 40.074 5.936 46 2 46v-2c2.232 0 3.912-4.394 3.912-7.244V2h2v2.397a14.95 14.95 0 0 1 8.059-2.367C24.224 2.03 30.94 8.745 30.94 17c0 .166-.003.33-.008.495l-1.999-.063c.004-.144.007-.288.007-.432 0-7.152-5.818-12.97-12.969-12.97a12.943 12.943 0 0 0-8.059 2.823v20.302a12.992 12.992 0 0 0 11.625 2.319m19.75 1.863c.279.222.545.443.799.663-.254.221-.52.441-.799.663.005-.221.013-.442.013-.663 0-.223-.009-.442-.013-.663m-2.502 6.38c-.32-.112-.644-.231-.971-.361.193-.106.386-.209.578-.32.191-.11.379-.228.568-.341-.053.352-.111.692-.175 1.022M33.484 44c-.901 0-2.036-1.576-2.833-4.32a29.96 29.96 0 0 0 2.831-1.143c.963.444 1.912.825 2.837 1.14C35.521 42.422 34.386 44 33.484 44m-3.474-7.305c.189.113.375.23.567.341.195.113.392.216.587.325-.33.13-.655.25-.979.363a24.986 24.986 0 0 1-.175-1.029M26.873 32c.261-.224.53-.448.81-.67-.005.224-.013.448-.013.67 0 .223.008.447.013.671-.28-.222-.549-.446-.81-.671m-3.78-6c.312-.543 1.518-.974 3.965-.559.391.067.797.158 1.209.261-.193.97-.334 1.989-.435 3.025a30.284 30.284 0 0 0-2.422 1.893 16.716 16.716 0 0 1-.819-.906c-1.583-1.909-1.813-3.17-1.498-3.714m8.071.64c-.196.108-.394.213-.587.324-.192.112-.379.228-.567.342.052-.354.112-.697.175-1.029.324.113.649.233.979.363M37.3 32c0 .752-.03 1.467-.074 2.161-.578.385-1.183.768-1.834 1.143-.634.366-1.27.703-1.904 1.017a33.313 33.313 0 0 1-1.911-1.017 33.32 33.32 0 0 1-1.834-1.142A33.93 33.93 0 0 1 29.67 32c0-.752.029-1.468.073-2.162.59-.392 1.199-.775 1.834-1.141a33.63 33.63 0 0 1 1.91-1.018 32.61 32.61 0 0 1 3.737 2.16c.046.71.076 1.43.076 2.161m-.514-5.716c.063.334.121.673.173 1.022-.19-.114-.376-.232-.567-.342-.192-.111-.386-.214-.58-.321.332-.13.657-.249.974-.359M43.877 26c.451.782-.351 2.558-2.335 4.625a30.52 30.52 0 0 0-2.395-1.882 29.837 29.837 0 0 0-.431-3.035c2.777-.682 4.711-.488 5.161.292m1.732-1c-1.093-1.89-3.982-2.067-7.36-1.229a17.61 17.61 0 0 0-.604-1.778l-1.851.755c.197.484.373 1.021.534 1.585-.936.318-1.888.704-2.835 1.135a30.187 30.187 0 0 0-2.842-1.147C31.448 21.577 32.583 20 33.484 20c.485 0 .944.45 1.244.827l1.565-1.246C35.253 18.275 34.191 18 33.484 18c-2.182 0-3.78 2.416-4.744 5.76-.458-.114-.91-.216-1.346-.29-3.876-.662-5.42.468-6.034 1.53-.613 1.063-.818 2.965 1.692 5.991.278.336.589.673.912 1.009-.31.323-.608.645-.876.967l1.535 1.282c.241-.289.508-.579.787-.869a29.666 29.666 0 0 0 2.422 1.894c.101 1.036.242 2.055.435 3.025-.412.103-.818.194-1.209.26-2.447.417-3.652-.015-3.965-.559-.297-.513.012-1.341.223-1.79l-1.81-.85c-.833 1.773-.539 2.958-.146 3.64.487.844 1.559 1.728 3.916 1.727.615 0 1.317-.06 2.118-.196a18.87 18.87 0 0 0 1.346-.29C29.704 43.585 31.302 46 33.484 46c2.183 0 3.782-2.415 4.744-5.759.642.159 1.268.288 1.864.369l.267-1.982a15.562 15.562 0 0 1-1.657-.332c.194-.972.336-1.993.436-3.031a30.57 30.57 0 0 0 2.404-1.89c1.984 2.067 2.786 3.844 2.335 4.625-.247.429-.889.601-1.383.671l.277 1.98c1.695-.238 2.479-1.029 2.838-1.651 1.093-1.893-.206-4.49-2.627-7 2.421-2.509 3.72-5.106 2.627-7"/></svg>