<svg xmlns="http://www.w3.org/2000/svg" viewBox="0 0 48 48"><path fill="#ED7100" fill-rule="evenodd" d="M39.448 32.318c0 .202-.008.404-.012.606.252-.201.493-.403.73-.606a25.237 25.237 0 0 0-.73-.606c.003.202.012.402.012.606Zm-2.337 4.628c-.172.103-.34.209-.515.31-.173.1-.347.192-.521.289.296.116.587.223.877.325.058-.3.111-.606.159-.924Zm-.623 2.884a29.447 29.447 0 0 1-2.744-1.103c-.927.426-1.846.8-2.739 1.106.773 2.655 1.87 4.18 2.741 4.18.872 0 1.969-1.526 2.742-4.183Zm-5.947-1.954c.292-.102.587-.21.885-.327-.177-.098-.354-.191-.531-.293-.175-.101-.343-.207-.514-.31.048.32.102.629.16.93Zm-2.486-4.952c-.003-.202-.011-.404-.011-.606 0-.202.008-.404.011-.607-.252.201-.493.403-.729.607.236.203.477.405.729.606Zm-2.976-2.854c.239.289.505.578.783.868a29.122 29.122 0 0 1 2.342-1.829c.097-1.002.233-1.987.42-2.925a16.9 16.9 0 0 0-1.158-.248c-2.374-.405-3.546.01-3.848.534-.303.524-.078 1.745 1.461 3.6Zm5.462-3.31c-.058.301-.112.609-.16.929.171-.103.339-.208.514-.309.176-.102.354-.196.531-.293a23.583 23.583 0 0 0-.885-.327Zm6.835 3.459a32.944 32.944 0 0 0-1.78-1.107 33.272 33.272 0 0 0-1.85-.989c-.616.306-1.235.633-1.851.989-.616.355-1.208.727-1.78 1.108a32.733 32.733 0 0 0-.071 2.098c0 .729.028 1.424.071 2.098.572.38 1.164.752 1.78 1.108.616.355 1.236.68 1.854.986a33.133 33.133 0 0 0 1.847-.986 33.626 33.626 0 0 0 1.781-1.108c.043-.674.071-1.369.071-2.098 0-.71-.028-1.41-.072-2.099Zm-1.31-3.132c.177.097.355.191.53.293.174.1.341.205.512.308a24.88 24.88 0 0 0-.158-.928c-.292.102-.586.209-.884.327Zm2.814-.906c.182.929.323 1.911.418 2.934a29.321 29.321 0 0 1 2.331 1.823c.279-.29.545-.579.784-.868 1.539-1.855 1.764-3.076 1.461-3.6-.302-.523-1.474-.938-3.848-.534-.37.063-.756.149-1.146.245Zm5.072 7.108c2.46 2.965 2.257 4.832 1.654 5.876-.352.612-1.123 1.391-2.788 1.624l-.277-1.98c.477-.067 1.096-.233 1.333-.643.303-.525.078-1.745-1.461-3.6a15.73 15.73 0 0 0-.784-.869 29.158 29.158 0 0 1-2.341 1.83c-.097 1-.234 1.984-.419 2.922.554.137 1.091.25 1.595.318l-.27 1.982a17.258 17.258 0 0 1-1.8-.356c-.945 3.264-2.51 5.62-4.648 5.62s-3.703-2.356-4.649-5.619a18.53 18.53 0 0 1-1.295.278c-.784.133-1.47.192-2.072.192-2.312 0-3.366-.87-3.844-1.699-.388-.671-.678-1.837.14-3.577l1.811.852c-.204.432-.503 1.232-.219 1.725.302.524 1.47.939 3.848.535.374-.064.762-.151 1.158-.249a29.682 29.682 0 0 1-.42-2.924 29.407 29.407 0 0 1-2.342-1.83c-.267.278-.521.556-.753.832l-1.535-1.282c.259-.31.544-.62.842-.93a17.804 17.804 0 0 1-.876-.97c-2.46-2.965-2.257-4.833-1.654-5.877.602-1.044 2.117-2.153 5.916-1.506.419.072.854.169 1.295.278.946-3.263 2.511-5.619 4.649-5.619.694 0 1.737.269 2.761 1.551l-1.565 1.248c-.29-.365-.733-.799-1.196-.799-.871 0-1.968 1.525-2.741 4.18.893.306 1.813.681 2.741 1.107a29.354 29.354 0 0 1 2.744-1.108 14.83 14.83 0 0 0-.511-1.511l1.852-.755c.215.528.405 1.102.579 1.702.436-.107.865-.203 1.279-.274 3.8-.649 5.314.462 5.917 1.506.603 1.044.806 2.912-1.654 5.877-.269.323-.566.647-.877.971.311.324.608.647.877.971ZM14 14h18v1h2v-2a1 1 0 0 0-1-1H13a1 1 0 0 0-1 1v20a1 1 0 0 0 1 1h6v-2h-5V14ZM9 37h10v2h-1v5h-2v-5h-3v5h-2v-5H8a1 1 0 0 1-1-1v-3H2v-2h5v-3H2v-2h5v-4H2v-2h5v-4H2v-2h5v-4H2v-2h5V8a1 1 0 0 1 1-1h3V2h2v5h3V2h2v5h4V2h2v5h4V2h2v5h3V2h2v5h3a1 1 0 0 1 1 1v2h5v2h-5v4h5v2h-7V9H9v28Z"/></svg>