<svg xmlns="http://www.w3.org/2000/svg" xmlns:xlink="http://www.w3.org/1999/xlink" width="226.32" height="31.923" viewBox="0 0 226.32 31.923">
  <defs>
    <clipPath id="clip-path">
      <rect id="Rectangle_2825" data-name="Rectangle 2825" width="226.32" height="31.923" transform="translate(0 0)" fill="none"/>
    </clipPath>
  </defs>
  <g id="Red-Hat-AWS-logo-lockup" transform="translate(0 0)">
    <g id="Group_5393" data-name="Group 5393" clip-path="url(#clip-path)">
      <path id="Path_32080" data-name="Path 32080" d="M154.556,31.916a.5.5,0,0,1-.5-.5V.523a.5.5,0,1,1,1,0v30.9a.5.5,0,0,1-.5.5"/>
      <path id="Path_32081" data-name="Path 32081" d="M28.128,18.406c2.771,0,6.779-.571,6.779-3.867a3.108,3.108,0,0,0-.069-.757l-1.65-7.167c-.38-1.578-.715-2.292-3.488-3.677C27.55,1.837,22.87.023,21.483.023c-1.289,0-1.672,1.67-3.2,1.67C16.8,1.693,15.7.453,14.321.453c-1.329,0-2.195.906-2.864,2.768,0,0-1.863,5.253-2.1,6.015a1.454,1.454,0,0,0-.053.43c0,2.042,8.046,8.74,18.826,8.74m7.209-2.529a11.036,11.036,0,0,1,.381,2.246c0,3.1-3.486,4.822-8.068,4.822-10.376,0-19.439-6.064-19.439-10.073a4.083,4.083,0,0,1,.334-1.623C4.822,11.434,0,12.1,0,16.35c0,6.973,16.52,15.566,29.6,15.566,10.029,0,12.558-4.536,12.558-8.117,0-2.817-2.436-6.015-6.828-7.925" fill="#e00"/>
      <path id="Path_32082" data-name="Path 32082" d="M35.332,15.875a11.021,11.021,0,0,1,.383,2.244c0,3.1-3.486,4.822-8.068,4.822-10.37,0-19.433-6.062-19.433-10.071a4.079,4.079,0,0,1,.334-1.623L9.359,9.24a1.435,1.435,0,0,0-.055.427c0,2.042,8.046,8.74,18.826,8.74,2.771,0,6.779-.571,6.779-3.867a3.108,3.108,0,0,0-.069-.757Z"/>
      <path id="Path_32083" data-name="Path 32083" d="M128.289,20.465c0,2.633,1.583,3.914,4.472,3.914a11.533,11.533,0,0,0,2.633-.372v-3.05a5.507,5.507,0,0,1-1.7.257c-1.189,0-1.63-.372-1.63-1.491V15.039h3.446V11.894h-3.446V7.908l-3.765.815V11.9h-2.5V15.04h2.492Zm-11.738.071c0-.815.817-1.211,2.051-1.211a9.531,9.531,0,0,1,2.237.279v1.583a4.765,4.765,0,0,1-2.348.582c-1.209,0-1.933-.465-1.933-1.234m1.152,3.889a5.769,5.769,0,0,0,3.4-.955v.746h3.725v-7.9c0-3-2.024-4.651-5.4-4.651a13.74,13.74,0,0,0-5.758,1.351l1.351,2.773a10.048,10.048,0,0,1,3.727-.979c1.55,0,2.352.6,2.352,1.84v.6a10.98,10.98,0,0,0-2.8-.35c-3.169,0-5.078,1.329-5.078,3.7,0,2.166,1.723,3.818,4.472,3.818m-20.474-.208h4.007v-6.39h6.712v6.393h4V7.912h-4v6.266h-6.7V7.912H97.245ZM81.974,18.035a3.12,3.12,0,0,1,3.115-3.125c.041,0,.082,0,.123,0a3.814,3.814,0,0,1,2.609.957v4.3a3.623,3.623,0,0,1-2.61.988,3.135,3.135,0,0,1-3.236-3.03c0-.031,0-.061,0-.091m5.893,6.173h3.728V7.1l-3.765.815v4.636a6.352,6.352,0,1,0-3.378,11.837h.109a5.56,5.56,0,0,0,3.307-1.07Zm-17.1-9.457a2.726,2.726,0,0,1,2.585,1.955H68.21a2.567,2.567,0,0,1,2.563-1.956m-6.365,3.316a6.47,6.47,0,0,0,6.55,6.387l.156,0a7.4,7.4,0,0,0,5.149-1.865L73.769,20.37A3.331,3.331,0,0,1,71.3,21.3a3.187,3.187,0,0,1-3.03-1.956h8.782v-.93c0-3.914-2.631-6.731-6.219-6.731a6.329,6.329,0,0,0-6.422,6.232v.149m-6.5-6.731a1.854,1.854,0,1,1,0,3.681H53.951v-3.68ZM49.941,24.217h4.01v-5.94H57l3.076,5.94h4.472l-3.588-6.523A4.933,4.933,0,0,0,64.035,13.1c0-2.935-2.306-5.194-5.758-5.194H49.951Z"/>
      <path id="Path_32084" data-name="Path 32084" d="M217.966,16.634a11.7,11.7,0,0,1-2.689-.31,7.653,7.653,0,0,1-2.02-.713,1.027,1.027,0,0,1-.642-.99v-.886c0-.372.133-.556.4-.556a.927.927,0,0,1,.321.06q.168.064.443.186a9.179,9.179,0,0,0,1.927.62,10.3,10.3,0,0,0,2.079.221,4.683,4.683,0,0,0,2.556-.587,1.884,1.884,0,0,0,.9-1.668,1.718,1.718,0,0,0-.474-1.236,4.521,4.521,0,0,0-1.758-.93l-2.541-.8a5.362,5.362,0,0,1-2.8-1.8,4.2,4.2,0,0,1-.87-2.574,3.938,3.938,0,0,1,.474-1.962,4.725,4.725,0,0,1,1.254-1.455,5.568,5.568,0,0,1,1.821-.912,7.8,7.8,0,0,1,2.2-.321A10.1,10.1,0,0,1,219.726.1c.4.053.775.122,1.132.2a10.146,10.146,0,0,1,1,.279,4.509,4.509,0,0,1,.731.308,1.683,1.683,0,0,1,.519.43,1,1,0,0,1,.155.587v.835c0,.37-.135.556-.4.556a1.784,1.784,0,0,1-.665-.221,8.043,8.043,0,0,0-3.375-.673,4.556,4.556,0,0,0-2.324.494,1.7,1.7,0,0,0-.826,1.577,1.679,1.679,0,0,0,.52,1.251,5.125,5.125,0,0,0,1.927.975l2.474.8A5.4,5.4,0,0,1,223.3,9.2a4.025,4.025,0,0,1,.808,2.474,4.485,4.485,0,0,1-.458,2.058,4.662,4.662,0,0,1-1.269,1.568,5.7,5.7,0,0,1-1.942.99,8.524,8.524,0,0,1-2.47.339Zm-22.454-.465a1.073,1.073,0,0,1-.664-.168,1.416,1.416,0,0,1-.376-.7l-4.1-13.672a3.034,3.034,0,0,1-.151-.706A.377.377,0,0,1,190.54.5a.391.391,0,0,1,.108,0h1.712a1.057,1.057,0,0,1,.687.171,1.506,1.506,0,0,1,.354.689l2.935,11.7,2.724-11.7a1.231,1.231,0,0,1,.337-.7,1.142,1.142,0,0,1,.7-.171H201.5a1.127,1.127,0,0,1,.7.171,1.255,1.255,0,0,1,.336.7L205.3,13.2l3.019-11.845a1.474,1.474,0,0,1,.352-.7,1.075,1.075,0,0,1,.689-.171h1.622a.376.376,0,0,1,.427.318.417.417,0,0,1,0,.1,1.329,1.329,0,0,1-.024.281,3.516,3.516,0,0,1-.12.427L207.045,15.3a1.374,1.374,0,0,1-.367.7,1.093,1.093,0,0,1-.665.171h-1.506a1.062,1.062,0,0,1-.7-.186,1.338,1.338,0,0,1-.334-.713L200.744,3.89,198.05,15.272a1.35,1.35,0,0,1-.337.713,1.05,1.05,0,0,1-.7.186Zm-14.04-1.916a5.58,5.58,0,0,0,1.8-.326,3.819,3.819,0,0,0,1.653-1.13,2.79,2.79,0,0,0,.6-1.13,5.882,5.882,0,0,0,.168-1.53V9.4a15.038,15.038,0,0,0-1.6-.292A12.628,12.628,0,0,0,182.451,9a4,4,0,0,0-2.6.713,2.505,2.505,0,0,0-.855,2.04,2.543,2.543,0,0,0,.643,1.871,2.486,2.486,0,0,0,1.836.633Zm7.088-2.693a5.078,5.078,0,0,0,.2,1.579,8.428,8.428,0,0,0,.572,1.267.858.858,0,0,1,.122.4.663.663,0,0,1-.336.527l-1.108.742a.873.873,0,0,1-.458.153.725.725,0,0,1-.523-.246,4.13,4.13,0,0,1-.625-.822c-.175-.3-.352-.642-.536-1.034a6.436,6.436,0,0,1-5.136,2.436,4.741,4.741,0,0,1-3.486-1.269,4.569,4.569,0,0,1-1.282-3.4,4.567,4.567,0,0,1,1.59-3.634,6.328,6.328,0,0,1,4.3-1.371,13.06,13.06,0,0,1,1.853.144q.968.139,2,.385V6.123a3.913,3.913,0,0,0-.826-2.83,4,4,0,0,0-2.857-.824,7.889,7.889,0,0,0-1.88.233,13.087,13.087,0,0,0-1.883.6,5.057,5.057,0,0,1-.611.233,1.294,1.294,0,0,1-.277.047q-.366,0-.366-.558V2.158a1.152,1.152,0,0,1,.122-.618,1.286,1.286,0,0,1,.5-.372,11.464,11.464,0,0,1,2.2-.8,10.662,10.662,0,0,1,2.713-.345,6.286,6.286,0,0,1,4.573,1.44,5.88,5.88,0,0,1,1.456,4.345Z" fill="#232f3e"/>
      <path id="Path_32085" data-name="Path 32085" d="M221.27,25.338c-5.758,4.3-14.1,6.578-21.284,6.578a38.27,38.27,0,0,1-26-10.029c-.54-.492-.06-1.165.589-.784a51.834,51.834,0,0,0,26.015,6.981,51.27,51.27,0,0,0,19.842-4.106c.972-.419,1.789.649.834,1.36" fill="#f90" fill-rule="evenodd"/>
      <path id="Path_32086" data-name="Path 32086" d="M223.664,22.573c-.737-.952-4.872-.443-6.722-.221-.562.069-.649-.427-.142-.788,3.293-2.339,8.691-1.663,9.32-.886s-.168,6.261-3.253,8.872c-.476.4-.926.188-.716-.343.7-1.754,2.252-5.681,1.515-6.644Z" fill="#f90" fill-rule="evenodd"/>
    </g>
  </g>
</svg>
