<svg xmlns="http://www.w3.org/2000/svg" fill="none" viewBox="0 0 72 72"><g clip-path="url(#a)"><path fill="#009CDE" d="M46.01 18.288c-4.486-4.34-8.767-8.478-10.041-13.145-1.274 4.667-5.555 8.804-10.041 13.145-6.728 6.509-14.357 13.885-14.357 24.949-.001 3.102.63 6.174 1.855 9.04s3.023 5.47 5.288 7.664a24.47 24.47 0 0 0 7.917 5.122 25.102 25.102 0 0 0 9.339 1.798c3.204 0 6.378-.61 9.338-1.798 2.961-1.188 5.651-2.928 7.917-5.122s4.063-4.798 5.288-7.664a22.961 22.961 0 0 0 1.855-9.04c0-11.063-7.628-18.44-14.359-24.949zM21.941 48.74c-1.496-.05-7.017-9.26 3.226-19.069l6.778 7.167a.56.56 0 0 1 .171.428.548.548 0 0 1-.217.408c-1.617 1.606-8.51 8.298-9.368 10.611-.177.478-.435.46-.59.455zM35.97 60.88a8.635 8.635 0 0 1-3.211-.618 8.415 8.415 0 0 1-2.723-1.76 8.112 8.112 0 0 1-1.819-2.636 7.897 7.897 0 0 1-.638-3.108 8.308 8.308 0 0 1 2.091-5.365c1.513-1.791 6.299-6.828 6.299-6.828s4.712 5.11 6.287 6.81a7.799 7.799 0 0 1 2.105 5.383c0 2.154-.884 4.22-2.457 5.743a8.534 8.534 0 0 1-5.934 2.379zm16.061-13.172c-.18.383-.591 1.022-1.145 1.042-.987.034-1.092-.455-1.822-1.5-1.601-2.295-15.579-16.434-18.194-19.17-2.3-2.405-.324-4.1.593-4.989 1.15-1.115 4.506-4.362 4.506-4.362S45.977 27.92 50.146 34.2s2.732 11.714 1.885 13.508"/></g><defs><clipPath id="a"><path fill="#fff" d="M11.571 5.143h48.797v61.714H11.571z"/></clipPath></defs></svg>