<svg xmlns="http://www.w3.org/2000/svg" fill="none" viewBox="0 0 72 72"><g clip-path="url(#a)"><path fill="url(#b)" d="M46.242.341c-1.127.666-2.998 2.554-5.232 5.288l2.052 3.884c1.441-2.066 2.905-3.925 4.381-5.512.114-.127.174-.186.174-.186L47.444 4c-.478.528-1.928 2.223-4.115 5.589 2.106-.106 5.341-.537 7.98-.99.786-4.409-.77-6.427-.77-6.427S48.564-1.033 46.243.34z"/><path fill="#BE202E" d="M39.347 32.962c-.262.048-.532.094-.809.141l-.005.002a9.674 9.674 0 0 0 .814-.143z"/><path fill="#BE202E" d="M39.347 32.962c-.262.048-.532.094-.809.141l-.005.002a9.674 9.674 0 0 0 .814-.143z" opacity=".35"/><path fill="#BE202E" d="M40.034 29.563s-.002 0-.002.002l-.003.001c.044-.005.087-.013.13-.018a7.8 7.8 0 0 0 .512-.092c-.209.034-.421.071-.637.107z"/><path fill="#BE202E" d="M40.034 29.563s-.002 0-.002.002l-.003.001c.044-.005.087-.013.13-.018a7.8 7.8 0 0 0 .512-.092c-.209.034-.421.071-.637.107z" opacity=".35"/><path fill="url(#c)" d="M37.01 19.549a125.472 125.472 0 0 1 1.895-3.424 98.826 98.826 0 0 1 2.012-3.356l.119-.192a79.081 79.081 0 0 1 2.027-3.063L41.01 5.63l-.467.577a92.206 92.206 0 0 0-1.837 2.378 114.703 114.703 0 0 0-4.259 6.112 127.434 127.434 0 0 0-1.842 2.91l2.671 5.29a165.96 165.96 0 0 1 1.734-3.348z"/><path fill="url(#d)" d="M24.843 49.352a338.08 338.08 0 0 0-1.065 2.98l-.016.044-.151.429c-.24.683-.449 1.298-.926 2.697.787.36 1.419 1.306 2.017 2.381a4.323 4.323 0 0 0-1.395-2.967c3.88.175 7.222-.808 8.95-3.651.155-.254.296-.52.424-.804-.785.998-1.76 1.422-3.593 1.318l-.012.006.012-.006c2.699-1.21 4.053-2.373 5.25-4.3.284-.456.559-.955.841-1.508-2.36 2.429-5.095 3.12-7.975 2.596l-2.16.236c-.068.183-.135.365-.201.549z"/><path fill="url(#e)" d="M25.85 44.5a291.083 291.083 0 0 1 4.418-10.827 214.1 214.1 0 0 1 3.878-8.492c.354-.731.71-1.455 1.071-2.172.019-.04.04-.077.06-.116l-2.672-5.29-.13.215a118.364 118.364 0 0 0-5.115 9.243c-.096.195-.19.385-.283.578a78.208 78.208 0 0 0-1.584 3.477 70.294 70.294 0 0 0-2.177 5.795 66.62 66.62 0 0 0-.533 1.789 55.53 55.53 0 0 0-1.025 4.194l2.685 5.313A375.51 375.51 0 0 1 25.85 44.5z"/><path fill="url(#f)" d="M21.723 43.085a41.423 41.423 0 0 0-.697 5.076c-.003.06-.01.118-.013.178-.838-1.346-3.082-2.66-3.076-2.648 1.606 2.334 2.824 4.65 3.006 6.925-.86.177-2.038-.078-3.399-.58 1.42 1.306 2.485 1.667 2.9 1.764-1.304.082-2.662.98-4.03 2.014 2-.818 3.616-1.142 4.774-.88-1.836 5.21-3.676 10.96-5.517 17.067.564-.168.901-.547 1.09-1.062.328-1.105 2.505-8.359 5.915-17.894l.294-.818.084-.228c.36-1 .734-2.02 1.12-3.061l.265-.712.005-.014-2.682-5.311c-.012.06-.027.12-.039.184z"/><path fill="url(#g)" d="m35.692 23.342-.231.475c-.231.479-.466.966-.704 1.465-.256.54-.515 1.092-.776 1.658-.133.284-.264.57-.398.862a246.525 246.525 0 0 0-2.756 6.257 301.318 301.318 0 0 0-4.332 10.83c-.022.057-.045.115-.065.173-.449 1.187-.9 2.407-1.356 3.657l-.03.085 2.16-.237c-.043-.008-.087-.013-.13-.022 2.583-.322 6.016-2.257 8.236-4.645 1.023-1.1 1.95-2.399 2.809-3.918a33.82 33.82 0 0 0 1.81-3.774c.5-1.212.979-2.526 1.44-3.95-.592.313-1.272.543-2.022.704a12.902 12.902 0 0 1-.814.143l.006-.002c2.408-.928 3.927-2.722 5.032-4.918-.634.433-1.664 1-2.898 1.272a7.13 7.13 0 0 1-.513.092l-.13.02.004-.002s.002 0 .002-.002c.836-.351 1.541-.743 2.153-1.206a7.552 7.552 0 0 0 1.23-1.174 8.43 8.43 0 0 0 .675-.93c.065-.102.127-.206.19-.314a25.717 25.717 0 0 0 1.05-2.27 17.28 17.28 0 0 0 .373-1.004c.085-.255.154-.482.209-.681.081-.298.13-.535.158-.707-.082.065-.175.13-.28.192-.728.437-1.975.832-2.981 1.017l1.983-.218-1.983.218-.046.009c-.1.017-.203.032-.305.05.02-.01.034-.018.053-.024l-6.786.746a3.042 3.042 0 0 1-.037.073z"/><path fill="url(#h)" d="M43.33 9.592a91.764 91.764 0 0 0-1.971 3.177l-.113.19a123.09 123.09 0 0 0-1.945 3.412 143.714 143.714 0 0 0-1.846 3.463 168.373 168.373 0 0 0-1.725 3.434l6.786-.746c1.976-.911 2.86-1.736 3.718-2.928.228-.329.457-.673.685-1.03a42.9 42.9 0 0 0 1.992-3.484 36.248 36.248 0 0 0 1.509-3.327c.253-.656.457-1.266.598-1.801.124-.472.221-.92.296-1.347-2.643.45-5.878.884-7.984.988z"/><path fill="#BE202E" d="M38.946 33.038z"/><path fill="#BE202E" d="M38.946 33.038z" opacity=".35"/><path fill="url(#i)" d="M38.946 33.038z"/><path fill="#BE202E" d="M40.027 29.565c.044-.005.087-.014.13-.019-.043.005-.086.012-.13.019z"/><path fill="#BE202E" d="M40.027 29.565c.044-.005.087-.014.13-.019-.043.005-.086.012-.13.019z" opacity=".35"/><path fill="url(#j)" d="M40.027 29.565c.044-.005.087-.014.13-.019-.043.005-.086.012-.13.019z"/><path fill="#BE202E" d="M40.032 29.568s.002 0 .002-.002c0 0-.002 0-.002.002z"/><path fill="#BE202E" d="M40.032 29.568s.002 0 .002-.002c0 0-.002 0-.002.002z" opacity=".35"/><path fill="url(#k)" d="M40.032 29.568s.002 0 .002-.002c0 0-.002 0-.002.002z"/><path fill="#6D6E71" d="M53.376 6.594v.2h.466v1.318h.216V6.794h.468v-.2h-1.15zm2.69 0-.52 1.06-.523-1.06h-.26v1.518h.199V6.908l.514 1.044h.138l.515-1.044v1.204h.199V6.594h-.262z"/></g><defs><linearGradient id="b" x1="42.749" x2="57.793" y1="6.105" y2="1.932" gradientUnits="userSpaceOnUse"><stop offset="0" stop-color="#F69923"/><stop offset=".312" stop-color="#F79A23"/><stop offset=".838" stop-color="#E97826"/></linearGradient><linearGradient id="c" x1="9.832" x2="40.54" y1="73.763" y2="8.064" gradientUnits="userSpaceOnUse"><stop offset=".323" stop-color="#9E2064"/><stop offset=".63" stop-color="#C92037"/><stop offset=".751" stop-color="#CD2335"/><stop offset="1" stop-color="#E97826"/></linearGradient><linearGradient id="d" x1="20.104" x2="38.403" y1="68.901" y2="29.751" gradientUnits="userSpaceOnUse"><stop offset="0" stop-color="#282662"/><stop offset=".095" stop-color="#662E8D"/><stop offset=".788" stop-color="#9F2064"/><stop offset=".949" stop-color="#CD2032"/></linearGradient><linearGradient id="e" x1="10.938" x2="41.647" y1="69.782" y2="4.083" gradientUnits="userSpaceOnUse"><stop offset=".323" stop-color="#9E2064"/><stop offset=".63" stop-color="#C92037"/><stop offset=".751" stop-color="#CD2335"/><stop offset="1" stop-color="#E97826"/></linearGradient><linearGradient id="f" x1="14.057" x2="30.195" y1="65.404" y2="30.876" gradientUnits="userSpaceOnUse"><stop offset="0" stop-color="#282662"/><stop offset=".095" stop-color="#662E8D"/><stop offset=".788" stop-color="#9F2064"/><stop offset=".949" stop-color="#CD2032"/></linearGradient><linearGradient id="g" x1="17.728" x2="48.436" y1="72.957" y2="7.258" gradientUnits="userSpaceOnUse"><stop offset=".323" stop-color="#9E2064"/><stop offset=".63" stop-color="#C92037"/><stop offset=".751" stop-color="#CD2335"/><stop offset="1" stop-color="#E97826"/></linearGradient><linearGradient id="h" x1="15.493" x2="46.201" y1="76.88" y2="11.18" gradientUnits="userSpaceOnUse"><stop offset=".323" stop-color="#9E2064"/><stop offset=".63" stop-color="#C92037"/><stop offset=".751" stop-color="#CD2335"/><stop offset="1" stop-color="#E97826"/></linearGradient><linearGradient id="i" x1="19.748" x2="50.453" y1="73.899" y2="8.204" gradientUnits="userSpaceOnUse"><stop offset=".323" stop-color="#9E2064"/><stop offset=".63" stop-color="#C92037"/><stop offset=".751" stop-color="#CD2335"/><stop offset="1" stop-color="#E97826"/></linearGradient><linearGradient id="j" x1="19.509" x2="50.209" y1="73.79" y2="8.084" gradientUnits="userSpaceOnUse"><stop offset=".323" stop-color="#9E2064"/><stop offset=".63" stop-color="#C92037"/><stop offset=".751" stop-color="#CD2335"/><stop offset="1" stop-color="#E97826"/></linearGradient><linearGradient id="k" x1="36.346" x2="43.722" y1="37.475" y2="21.658" gradientUnits="userSpaceOnUse"><stop offset=".323" stop-color="#9E2064"/><stop offset=".63" stop-color="#C92037"/><stop offset=".751" stop-color="#CD2335"/><stop offset="1" stop-color="#E97826"/></linearGradient><clipPath id="a"><path fill="#fff" d="M0 0h72v72H0z"/></clipPath></defs></svg>