<svg xmlns="http://www.w3.org/2000/svg" viewBox="0 0 72 72"><path fill="#2E4153" d="M31.181 62.955V51.184c.76.548 1.485 1.254 2.347 1.661 3.862 1.82 7.828 1.917 11.576-.121 5.572-3.032 9.254-7.636 10.187-14.043.853-5.861-.916-10.973-5.009-15.262-2.16-2.264-4.604-4.118-7.684-4.928-2.918-.769-5.793-.595-8.56.69-1.161.542-2.103 1.377-2.956 2.457-.413-2.31-1.93-3.23-3.99-3.485-1.714-.21-3.43-.319-5.12.15-1.69.467-2.762 1.837-2.84 3.6a68.776 68.776 0 0 0-.078 3.083c-.006 12.384-.006 24.764 0 37.141 0 .867 0 .867-.866.868h-2.313c-4.083-.013-6.852-2.76-6.867-6.846-.016-4.012 0-8.025 0-12.045V15.98c0-1.739.41-3.327 1.563-4.67C11.949 9.705 13.733 9 15.817 9c13.468 0 26.932.002 40.393.007 3.416 0 5.962 2.042 6.637 5.22.103.524.153 1.057.148 1.591.007 13.449.007 26.898 0 40.347 0 3.431-2.035 6.013-5.233 6.687a7.784 7.784 0 0 1-1.592.143c-8.087.007-16.173.007-24.261 0-.236 0-.468-.027-.728-.04z"/><path fill="#2E4153" d="M37.342 30.15c3.762-.1 6.09 3.3 6.054 6-.038 3.228-2.887 6.004-6.203 5.966-3.214-.036-5.807-2.733-5.77-5.99.03-2.692 2.137-6.09 5.919-5.976z"/></svg>