<svg xmlns="http://www.w3.org/2000/svg" viewBox="0 0 80 80"><g fill="none" fill-rule="evenodd"><path fill="#ED7100" d="M0 0h80v80H0z"/><path fill="#FFF" d="m34.397 17.39-1-1.732 6.104-3.524a.998.998 0 0 1 1 0l6.103 3.524-1 1.732L40 14.155l-5.604 3.235ZM46 56.751l-6 3.464-6-3.464v-6.928l6-3.464 6 3.464v6.928Zm2-7.505a1 1 0 0 0-.5-.866l-7-4.042a1.003 1.003 0 0 0-1 0l-7 4.042a.998.998 0 0 0-.5.866V52.5H16v2h16v2.828a1 1 0 0 0 .5.867l6.5 3.753V67.5h2v-5.552l6.5-3.753c.309-.179.5-.509.5-.867V54.5h16v-2H48v-3.254ZM53 36.5h6v-2h-6v2Zm0-5h6v-2h-6v2Zm0-5h6v-2h-6v2Zm-31 0h16v-2H22v2Zm-5 12h46v-17H17v17Zm47-19H16a1 1 0 0 0-1 1v19a1 1 0 0 0 1 1h48a1 1 0 0 0 1-1v-19a1 1 0 0 0-1-1Z"/></g></svg>