<svg version="1.1" id="Layer_1" xmlns="http://www.w3.org/2000/svg" xmlns:xlink="http://www.w3.org/1999/xlink" x="0px" y="0px"
	 width="100%" viewBox="0 0 633 162" enable-background="new 0 0 633 162" xml:space="preserve">
<path fill="#FFFFFF" opacity="1.000000" stroke="none" 
	d="
M634.000000,121.000000 
	C634.000000,134.989548 634.000000,148.979080 634.000000,163.000000 
	C452.979095,163.000000 271.958221,163.000000 90.185745,162.669495 
	C95.795326,143.747498 102.156479,125.156013 108.517632,106.564537 
	C107.627625,106.195351 106.737617,105.826172 105.847610,105.456993 
	C96.270584,124.486954 87.087082,143.718750 78.000000,163.000000 
	C52.412659,163.000000 26.825315,163.000000 1.000000,163.000000 
	C1.000000,141.646362 1.000000,120.291840 1.454138,98.468658 
	C16.525822,97.006721 31.137156,95.906242 45.763145,95.058693 
	C55.172352,94.513451 64.607079,94.423103 74.022957,93.973694 
	C81.578224,93.613091 89.122345,93.019150 96.647446,92.530312 
	C97.848831,89.156807 95.875946,89.081848 93.394737,88.957191 
	C82.201454,88.394852 71.018974,87.620766 59.827236,87.023392 
	C40.220226,85.976837 20.609291,85.003822 1.000000,84.000000 
	C1.000000,56.413189 1.000000,28.826378 1.000000,1.000000 
	C23.686998,1.000000 46.374840,1.000000 69.532768,1.383413 
	C70.014473,2.098883 69.920326,2.482129 70.052750,2.755717 
	C81.648163,26.712116 93.250298,50.665302 104.923248,74.583931 
	C105.282707,75.320496 106.390022,75.692093 107.148682,76.233841 
	C107.647339,73.415985 107.279701,71.227798 106.567276,69.158302 
	C98.742485,46.428207 90.863953,23.716614 83.000000,1.000000 
	C266.666687,1.000000 450.333344,1.000000 634.000000,1.000000 
	C634.000000,23.093838 634.000000,45.078262 633.535095,67.531342 
	C632.405701,68.000000 631.741211,68.000015 631.076721,68.000000 
	C620.835693,67.999832 620.721497,68.007469 620.042419,57.858604 
	C619.831543,54.707138 618.375610,54.004642 615.620667,53.972584 
	C612.641479,53.937916 610.752563,54.684296 611.000793,58.122627 
	C611.108154,59.609386 610.861084,61.127094 611.023193,62.603500 
	C611.472534,66.696259 609.784180,68.461601 605.651733,68.026413 
	C602.757874,67.721649 600.955139,68.559631 600.964539,72.074310 
	C600.974304,75.715462 603.043945,76.254868 605.799133,75.967735 
	C610.115295,75.517899 611.154175,77.627853 611.060364,81.545395 
	C610.857605,90.012863 610.887024,98.490875 611.039856,106.960632 
	C611.240295,118.072723 618.249756,123.616890 629.073181,121.501503 
	C630.686523,121.186188 632.356323,121.159966 634.000000,121.000000 
M399.000000,107.487259 
	C399.014038,110.814835 398.682678,114.198486 399.209351,117.442856 
	C399.424835,118.770149 401.308380,120.393875 402.757477,120.848412 
	C407.283142,122.267982 406.476990,117.495369 408.007324,115.479492 
	C423.541168,126.542519 439.349854,122.455437 446.593689,114.796066 
	C455.370575,105.515701 457.034912,87.924492 449.274170,78.313507 
	C445.805298,74.017578 440.630859,70.276917 435.460632,68.352089 
	C425.474518,64.634377 416.027039,67.399223 407.337402,75.428093 
	C407.181213,72.378960 407.018494,70.616844 407.012756,68.854218 
	C406.981995,59.370235 407.047485,49.885582 406.957397,40.402328 
	C406.920380,36.507343 404.556580,34.663197 401.257294,36.368664 
	C399.952881,37.042965 399.108734,39.790897 399.096527,41.601665 
	C398.950623,63.231071 399.001007,84.861801 399.000000,107.487259 
M240.065842,92.590408 
	C244.367737,98.705292 243.981598,104.446663 238.923767,109.572350 
	C231.019089,117.583092 219.573883,117.210205 210.724426,108.008041 
	C206.791245,103.918083 204.717743,107.476234 202.677032,109.337585 
	C201.909058,110.038055 202.597458,113.799835 203.792542,114.956085 
	C213.292145,124.146996 230.553085,125.980499 241.809021,118.978767 
	C249.380356,114.269035 252.600510,107.157074 252.027054,98.203339 
	C251.536118,90.538223 248.095886,84.796028 241.136536,81.680794 
	C234.634094,78.770096 227.862366,76.458099 221.196030,73.917068 
	C212.775757,70.707481 209.255783,61.164444 214.074081,54.536972 
	C219.334122,47.301949 232.644989,45.560249 239.628677,51.193214 
	C245.430252,55.872704 245.430252,55.872700 250.593536,49.477585 
	C250.188721,48.799995 249.892960,47.965282 249.325577,47.406204 
	C240.903870,39.107540 223.884659,37.516930 213.411377,43.237835 
	C200.828003,50.111359 199.657394,68.667114 208.467361,76.133652 
	C212.615463,79.649200 218.256790,81.412323 223.242920,83.927017 
	C228.666122,86.662148 234.114182,89.347939 240.065842,92.590408 
M315.539185,75.811264 
	C317.447662,75.263245 319.325012,74.532791 321.270355,74.201126 
	C327.309052,73.171570 333.464142,76.606018 335.376953,81.919525 
	C336.905182,86.164772 335.874664,87.493744 331.458649,88.048286 
	C324.577209,88.912407 317.545410,89.442459 310.929108,91.340355 
	C302.273743,93.823158 298.648163,100.793983 300.143250,109.550339 
	C301.423248,117.046997 307.810211,121.670242 316.395020,122.076302 
	C323.839661,122.428429 330.537354,121.147614 334.565430,116.730408 
	C337.833038,118.448418 340.192474,120.737457 342.462982,120.652405 
	C346.502808,120.501068 344.940033,116.589981 344.910004,114.290443 
	C344.777710,104.166626 344.231842,94.048882 344.032318,83.925056 
	C343.905273,77.478119 341.125732,72.678436 335.471649,69.853073 
	C325.167816,64.704216 315.216888,66.248589 305.719330,72.184593 
	C303.950867,73.289864 302.339447,74.641075 304.448730,76.925705 
	C305.972076,78.575668 307.060089,81.062233 309.993225,78.687775 
	C311.386200,77.560089 313.193665,76.944366 315.539185,75.811264 
M495.003052,109.413277 
	C489.389099,115.080460 484.366150,116.605927 478.476929,113.901962 
	C472.553375,111.182236 470.998749,105.867249 471.000427,99.846100 
	C471.003021,90.681038 470.914185,81.515053 471.024841,72.351402 
	C471.063904,69.114929 469.781464,67.929565 466.583862,67.957581 
	C463.553680,67.984138 461.936157,68.781898 461.976868,72.182610 
	C462.100433,82.512589 461.749237,92.855003 462.119171,103.173355 
	C462.471863,113.012054 467.990509,120.520241 475.904877,121.617020 
	C482.594238,122.544037 489.530029,123.120537 495.508484,118.289703 
	C496.322052,117.632286 498.461517,118.410545 499.913849,118.798309 
	C501.926300,119.335640 503.920715,120.719139 505.818970,120.553055 
	C506.673431,120.478294 507.880341,117.539444 507.899170,115.888397 
	C508.062927,101.559410 507.946716,87.227478 508.028503,72.897087 
	C508.046539,69.733910 507.354706,67.973999 503.631866,67.923561 
	C499.655579,67.869698 498.895447,69.742729 498.962372,73.136543 
	C499.103638,80.299149 498.801483,87.473999 499.067200,94.629494 
	C499.259308,99.802750 498.418274,104.542404 495.003052,109.413277 
M561.996033,70.390450 
	C555.618103,73.969604 555.384521,80.036987 556.195801,86.085800 
	C556.951111,91.717438 561.464294,94.245529 566.388184,95.861488 
	C570.634949,97.255188 575.020264,98.240883 579.229248,99.731720 
	C582.997131,101.066315 586.492371,103.304787 585.669312,107.956833 
	C584.867493,112.489578 580.966675,114.221779 576.866638,114.835091 
	C574.820496,115.141182 572.412231,114.967003 570.548340,114.146118 
	C566.712891,112.457008 563.133301,110.187088 558.650818,107.716591 
	C557.413147,108.557335 555.296692,109.995010 553.230774,111.398369 
	C558.552063,121.613396 571.264221,123.868004 582.419312,121.061470 
	C585.944641,120.174522 589.891174,117.593475 591.881958,114.610970 
	C597.709290,105.880684 593.867981,96.278664 583.481445,92.376350 
	C578.537292,90.518768 573.234375,89.564247 568.404114,87.481468 
	C566.541016,86.678154 564.463196,83.893700 564.440002,81.988068 
	C564.416077,80.016815 566.342834,77.398643 568.162109,76.150497 
	C572.746277,73.005508 578.617126,73.761253 582.872681,77.424011 
	C584.365906,78.709297 585.747192,80.124771 587.110291,81.415215 
	C594.251404,77.017166 594.412537,74.341225 587.316284,70.315010 
	C579.312561,65.773926 570.911072,65.549461 561.996033,70.390450 
M19.621740,44.919998 
	C16.878565,43.627682 14.135389,42.335369 11.062247,40.887608 
	C9.563661,43.989254 8.368628,46.650127 7.012161,49.225990 
	C4.999119,53.048656 6.545920,54.885601 10.293749,56.015072 
	C15.903012,57.705513 21.461428,59.576736 26.994545,61.505672 
	C49.122448,69.219826 71.215622,77.034546 93.388420,84.616760 
	C94.774292,85.090668 98.036186,88.295784 98.358551,83.233719 
	C97.482658,82.806541 96.602203,82.378334 95.722763,81.948059 
	C70.603172,69.658058 45.483688,57.367863 19.621740,44.919998 
M278.897400,67.920555 
	C277.940277,66.653458 276.512299,65.508987 276.142456,64.088943 
	C275.654144,62.213917 275.883850,60.116043 276.004883,58.126122 
	C276.214203,54.684029 274.387726,53.905426 271.367279,54.013908 
	C267.395050,54.156582 268.080200,57.000671 268.019409,59.388096 
	C267.823822,67.073387 267.827820,66.942955 260.374084,68.177391 
	C259.123383,68.384521 257.477142,70.127594 257.178894,71.428192 
	C256.272491,75.380844 258.814331,76.382553 262.144562,75.974014 
	C266.765167,75.407181 268.241943,77.376884 268.081726,81.916534 
	C267.788208,90.232506 267.994171,98.566292 268.001434,106.892639 
	C268.011993,118.983566 275.729126,124.499878 287.462158,121.158775 
	C290.768494,120.217255 291.579132,118.199654 290.638000,115.690750 
	C290.243103,114.638046 287.650177,113.731636 286.169098,113.880272 
	C279.207855,114.578880 276.175964,112.171143 276.033508,105.067047 
	C275.916687,99.240883 276.001282,93.410637 276.000427,87.582199 
	C275.998871,76.588043 275.996918,76.519196 286.683868,76.030632 
	C289.463745,75.903542 291.024292,75.236588 291.020844,72.060944 
	C291.017548,68.993797 289.710968,67.875893 286.802948,67.996056 
	C284.476318,68.092186 282.141357,67.987709 278.897400,67.920555 
M84.472916,65.980339 
	C89.856689,71.146645 94.781914,76.953949 101.690758,79.988365 
	C102.155525,79.439270 102.620285,78.890182 103.085052,78.341095 
	C82.944450,55.788345 62.803844,33.235596 42.398384,10.386267 
	C38.286819,13.211483 34.660912,15.702988 30.891008,18.293436 
	C41.623238,28.013702 51.722305,37.272282 61.950287,46.386192 
	C69.201393,52.847469 76.626671,59.113281 84.472916,65.980339 
M80.343384,101.903229 
	C57.852570,109.706215 35.361752,117.509209 12.522570,125.433060 
	C15.021808,128.713150 16.787163,131.518875 19.073984,133.802399 
	C20.055138,134.782135 22.503822,135.483856 23.636084,134.945511 
	C48.730732,123.013954 73.734337,110.890900 98.755257,98.804276 
	C98.779137,98.341980 98.803017,97.879692 98.826889,97.417397 
	C97.690742,97.218117 96.434593,96.602806 95.438789,96.890045 
	C90.594704,98.287315 85.820290,99.926147 80.343384,101.903229 
M531.819153,82.494156 
	C534.823792,77.598618 538.987427,74.438477 544.929260,75.166687 
	C548.188660,75.566154 549.979797,75.467468 550.049194,71.524918 
	C550.112183,67.940842 548.513184,66.285149 545.304626,67.103951 
	C540.754456,68.265114 536.349670,70.019028 531.926880,71.639969 
	C530.832825,72.040924 529.908875,72.905846 528.344604,73.923035 
	C528.332397,69.573990 527.048584,67.425232 522.976379,68.037697 
	C518.686646,68.682869 520.085571,71.957161 520.064758,74.279846 
	C519.939697,88.275826 520.067261,102.273956 519.964539,116.270294 
	C519.940002,119.605072 520.976685,121.061874 524.536499,121.068321 
	C528.172607,121.074921 529.106873,119.457878 529.031982,116.196281 
	C528.894348,110.200752 528.686157,104.178352 529.095459,98.207474 
	C529.441711,93.156837 530.619080,88.163177 531.819153,82.494156 
M367.000000,98.530212 
	C367.000549,96.532997 366.990082,94.535713 367.003479,92.538589 
	C367.080994,80.970169 372.346344,75.407715 383.913361,75.169777 
	C387.342224,75.099251 387.595306,73.005058 387.899292,70.679741 
	C388.285431,67.726463 386.476501,66.566422 383.981812,67.090004 
	C379.673859,67.994148 375.400421,69.166519 371.232758,70.580833 
	C369.702942,71.099998 368.514557,72.625366 366.590363,74.151970 
	C366.138824,70.111603 365.328278,66.937714 361.246643,68.206444 
	C359.902893,68.624130 358.179382,70.709404 358.159698,72.054535 
	C357.940796,87.030159 358.061096,102.010345 357.990509,116.988838 
	C357.976044,120.061005 359.364685,121.034195 362.247162,121.024811 
	C365.119812,121.015450 367.097382,120.544594 367.015564,116.994827 
	C366.881378,111.173004 366.992401,105.345543 367.000000,98.530212 
M63.998753,147.501266 
	C77.023514,132.866455 90.048271,118.231644 103.521278,103.093185 
	C101.719795,102.515541 100.596428,101.840858 100.296616,102.104103 
	C81.084846,118.973419 61.939949,135.918915 42.739735,152.901184 
	C50.836788,159.930054 54.477070,159.562912 60.114651,151.651459 
	C61.068333,150.313126 62.358402,149.214478 63.998753,147.501266 
M118.027596,14.998928 
	C118.913567,8.681478 116.117500,6.038301 107.852005,6.072557 
	C109.836861,28.865433 109.877556,51.752331 112.472702,74.447830 
	C113.294151,74.445045 114.115608,74.442261 114.937065,74.439476 
	C115.961517,54.925816 116.985977,35.412159 118.027596,14.998928 
M127.513344,48.969269 
	C124.485207,57.649754 120.702118,66.122131 119.141724,75.207207 
	C119.863754,75.674400 120.585785,76.141594 121.307816,76.608788 
	C121.776314,75.590286 122.229111,74.564224 122.715691,73.554420 
	C129.130081,60.242443 135.685883,46.996120 141.901901,33.592205 
	C144.495850,27.998745 143.058334,25.518433 136.537247,22.905357 
	C133.624527,31.360170 130.717316,39.798969 127.513344,48.969269 
M109.617065,157.743301 
	C113.348778,157.620178 117.595978,157.362778 117.525322,152.516495 
	C117.375458,142.238312 116.630417,131.964005 115.943108,121.700592 
	C115.624214,116.938545 114.869804,112.205666 114.312820,107.459564 
	C113.820427,107.464081 113.328026,107.468590 112.835632,107.473106 
	C112.558907,108.640884 112.119385,109.796631 112.032082,110.978401 
	C111.494301,118.258080 110.996735,125.541283 110.561760,132.827850 
	C110.078049,140.930847 109.675461,149.038681 109.617065,157.743301 
M139.482071,69.006622 
	C144.230011,64.628265 148.883484,60.141384 153.753342,55.903130 
	C158.311798,51.935905 158.470963,50.271881 153.600952,44.977215 
	C143.699036,56.047562 133.844284,67.065186 123.989517,78.082817 
	C124.396782,78.613686 124.804039,79.144554 125.211296,79.675423 
	C127.067085,78.688133 129.100693,77.930679 130.739380,76.662796 
	C133.611115,74.440910 136.240616,71.905960 139.482071,69.006622 
M120.201981,112.280464 
	C123.617470,122.136131 126.944870,132.024353 130.559113,141.806580 
	C131.014771,143.039856 132.978561,143.715927 134.243607,144.650146 
	C135.333374,142.845947 136.501770,141.081360 137.446991,139.204376 
	C137.637543,138.825989 137.001236,138.012299 136.713684,137.414917 
	C132.330124,128.308182 127.970581,119.189659 123.523605,110.113976 
	C122.809929,108.657455 121.700058,107.395050 120.773346,106.042908 
	C120.278206,106.244774 119.783066,106.446632 119.287918,106.648499 
	C119.528564,108.274162 119.769211,109.899834 120.201981,112.280464 
M152.668549,71.137703 
	C145.555588,74.686584 138.418091,78.187927 131.355652,81.834641 
	C130.273270,82.393532 129.537186,83.623062 128.640930,84.542419 
	C129.961960,84.685013 131.431686,85.278076 132.580490,84.898888 
	C141.685333,81.893684 150.752716,78.769524 159.780670,75.539513 
	C163.725220,74.128242 164.013947,72.163025 160.989243,67.654984 
	C158.498413,68.698860 155.928894,69.775719 152.668549,71.137703 
M148.132309,129.036636 
	C151.340012,126.369835 151.675766,123.731224 148.327362,120.811783 
	C142.083282,115.367622 135.984756,109.755951 129.712952,104.344635 
	C128.526306,103.320793 126.816437,102.903366 125.347992,102.206131 
	C125.039352,102.584824 124.730713,102.963516 124.422073,103.342216 
	C125.326462,104.771339 126.099579,106.308037 127.163559,107.606377 
	C129.155746,110.037369 131.251862,112.391792 133.420364,114.667915 
	C138.082901,119.561852 142.818832,124.385880 148.132309,129.036636 
M131.297363,96.693329 
	C130.364929,97.059250 129.432480,97.425171 128.500046,97.791092 
	C128.933289,98.434036 129.218613,99.379433 129.821976,99.674553 
	C138.876770,104.103363 147.973450,108.446495 157.502151,113.021950 
	C158.375732,110.628304 159.069489,108.727371 159.881729,106.501831 
	C150.167053,103.155281 141.082901,100.025932 131.297363,96.693329 
M152.656326,93.994614 
	C154.645737,93.991623 156.727829,94.351097 158.595856,93.873421 
	C160.150009,93.476006 162.426743,92.301140 162.678772,91.109962 
	C163.356873,87.905220 160.585205,87.960304 158.427383,88.034149 
	C150.335464,88.311104 142.241333,88.595261 134.162262,89.103210 
	C132.865479,89.184738 131.641342,90.421684 130.383606,91.124496 
	C131.724319,91.745544 133.027512,92.791161 134.412292,92.913544 
	C140.165741,93.421982 145.943817,93.651962 152.656326,93.994614 
z"/>
<path fill="#233746" opacity="1.000000" stroke="none" 
	d="
M634.000000,120.555832 
	C632.356323,121.159966 630.686523,121.186188 629.073181,121.501503 
	C618.249756,123.616890 611.240295,118.072723 611.039856,106.960632 
	C610.887024,98.490875 610.857605,90.012863 611.060364,81.545395 
	C611.154175,77.627853 610.115295,75.517899 605.799133,75.967735 
	C603.043945,76.254868 600.974304,75.715462 600.964539,72.074310 
	C600.955139,68.559631 602.757874,67.721649 605.651733,68.026413 
	C609.784180,68.461601 611.472534,66.696259 611.023193,62.603500 
	C610.861084,61.127094 611.108154,59.609386 611.000793,58.122627 
	C610.752563,54.684296 612.641479,53.937916 615.620667,53.972584 
	C618.375610,54.004642 619.831543,54.707138 620.042419,57.858604 
	C620.721497,68.007469 620.835693,67.999832 631.076721,68.000000 
	C631.741211,68.000015 632.405701,68.000000 633.535095,68.000000 
	C634.000000,70.370560 634.000000,72.741112 633.535095,75.555832 
	C630.415710,76.002083 627.746948,76.180145 625.110168,75.964821 
	C621.197510,75.645302 619.814209,77.255379 619.944397,81.134705 
	C620.166809,87.763344 620.000244,94.404961 620.000427,101.041130 
	C620.000732,114.301773 620.897522,115.067055 634.000000,113.000000 
	C634.000000,115.370560 634.000000,117.741112 634.000000,120.555832 
z"/>
<path fill="#0AA4B4" opacity="1.000000" stroke="none" 
	d="
M1.000000,84.464645 
	C20.609291,85.003822 40.220226,85.976837 59.827236,87.023392 
	C71.018974,87.620766 82.201454,88.394852 93.394737,88.957191 
	C95.875946,89.081848 97.848831,89.156807 96.647446,92.530312 
	C89.122345,93.019150 81.578224,93.613091 74.022957,93.973694 
	C64.607079,94.423103 55.172352,94.513451 45.763145,95.058693 
	C31.137156,95.906242 16.525822,97.006721 1.454138,98.000000 
	C1.000000,93.643097 1.000000,89.286201 1.000000,84.464645 
z"/>
<path fill="#0AA4B4" opacity="1.000000" stroke="none" 
	d="
M82.536819,1.000000 
	C90.863953,23.716614 98.742485,46.428207 106.567276,69.158302 
	C107.279701,71.227798 107.647339,73.415985 107.148682,76.233841 
	C106.390022,75.692093 105.282707,75.320496 104.923248,74.583931 
	C93.250298,50.665302 81.648163,26.712116 70.052750,2.755717 
	C69.920326,2.482129 70.014473,2.098883 70.001427,1.383413 
	C74.024544,1.000000 78.049088,1.000000 82.536819,1.000000 
z"/>
<path fill="#FFFFFF" opacity="1.000000" stroke="none" 
	d="
M634.000000,112.531342 
	C620.897522,115.067055 620.000732,114.301773 620.000427,101.041130 
	C620.000244,94.404961 620.166809,87.763344 619.944397,81.134705 
	C619.814209,77.255379 621.197510,75.645302 625.110168,75.964821 
	C627.746948,76.180145 630.415710,76.002083 633.535095,76.000000 
	C634.000000,88.020897 634.000000,100.041786 634.000000,112.531342 
z"/>
<path fill="#0AA4B4" opacity="1.000000" stroke="none" 
	d="
M78.460632,163.000000 
	C87.087082,143.718750 96.270584,124.486954 105.847610,105.456993 
	C106.737617,105.826172 107.627625,106.195351 108.517632,106.564537 
	C102.156479,125.156013 95.795326,143.747498 89.717087,162.669495 
	C86.307091,163.000000 82.614182,163.000000 78.460632,163.000000 
z"/>
<path fill="#233746" opacity="1.000000" stroke="none" 
	d="
M399.000000,106.989723 
	C399.001007,84.861801 398.950623,63.231071 399.096527,41.601665 
	C399.108734,39.790897 399.952881,37.042965 401.257294,36.368664 
	C404.556580,34.663197 406.920380,36.507343 406.957397,40.402328 
	C407.047485,49.885582 406.981995,59.370235 407.012756,68.854218 
	C407.018494,70.616844 407.181213,72.378960 407.337402,75.428093 
	C416.027039,67.399223 425.474518,64.634377 435.460632,68.352089 
	C440.630859,70.276917 445.805298,74.017578 449.274170,78.313507 
	C457.034912,87.924492 455.370575,105.515701 446.593689,114.796066 
	C439.349854,122.455437 423.541168,126.542519 408.007324,115.479492 
	C406.476990,117.495369 407.283142,122.267982 402.757477,120.848412 
	C401.308380,120.393875 399.424835,118.770149 399.209351,117.442856 
	C398.682678,114.198486 399.014038,110.814835 399.000000,106.989723 
M441.877625,106.173866 
	C445.110413,100.027916 446.048798,93.748260 443.553406,87.031837 
	C440.634979,79.176834 434.723816,74.257141 426.423462,74.255219 
	C419.416138,74.253601 412.214966,77.614754 408.420807,86.090744 
	C405.549347,92.505432 406.725861,102.426094 410.766907,107.312538 
	C418.200714,116.301544 432.419342,118.810600 441.877625,106.173866 
z"/>
<path fill="#233746" opacity="1.000000" stroke="none" 
	d="
M239.808624,92.322830 
	C234.114182,89.347939 228.666122,86.662148 223.242920,83.927017 
	C218.256790,81.412323 212.615463,79.649200 208.467361,76.133652 
	C199.657394,68.667114 200.828003,50.111359 213.411377,43.237835 
	C223.884659,37.516930 240.903870,39.107540 249.325577,47.406204 
	C249.892960,47.965282 250.188721,48.799995 250.593536,49.477585 
	C245.430252,55.872700 245.430252,55.872704 239.628677,51.193214 
	C232.644989,45.560249 219.334122,47.301949 214.074081,54.536972 
	C209.255783,61.164444 212.775757,70.707481 221.196030,73.917068 
	C227.862366,76.458099 234.634094,78.770096 241.136536,81.680794 
	C248.095886,84.796028 251.536118,90.538223 252.027054,98.203339 
	C252.600510,107.157074 249.380356,114.269035 241.809021,118.978767 
	C230.553085,125.980499 213.292145,124.146996 203.792542,114.956085 
	C202.597458,113.799835 201.909058,110.038055 202.677032,109.337585 
	C204.717743,107.476234 206.791245,103.918083 210.724426,108.008041 
	C219.573883,117.210205 231.019089,117.583092 238.923767,109.572350 
	C243.981598,104.446663 244.367737,98.705292 239.808624,92.322830 
z"/>
<path fill="#233746" opacity="1.000000" stroke="none" 
	d="
M315.176270,75.953995 
	C313.193665,76.944366 311.386200,77.560089 309.993225,78.687775 
	C307.060089,81.062233 305.972076,78.575668 304.448730,76.925705 
	C302.339447,74.641075 303.950867,73.289864 305.719330,72.184593 
	C315.216888,66.248589 325.167816,64.704216 335.471649,69.853073 
	C341.125732,72.678436 343.905273,77.478119 344.032318,83.925056 
	C344.231842,94.048882 344.777710,104.166626 344.910004,114.290443 
	C344.940033,116.589981 346.502808,120.501068 342.462982,120.652405 
	C340.192474,120.737457 337.833038,118.448418 334.565430,116.730408 
	C330.537354,121.147614 323.839661,122.428429 316.395020,122.076302 
	C307.810211,121.670242 301.423248,117.046997 300.143250,109.550339 
	C298.648163,100.793983 302.273743,93.823158 310.929108,91.340355 
	C317.545410,89.442459 324.577209,88.912407 331.458649,88.048286 
	C335.874664,87.493744 336.905182,86.164772 335.376953,81.919525 
	C333.464142,76.606018 327.309052,73.171570 321.270355,74.201126 
	C319.325012,74.532791 317.447662,75.263245 315.176270,75.953995 
M335.480652,96.112610 
	C327.924866,93.796638 320.856873,96.005127 313.906738,98.626183 
	C310.246643,100.006500 307.892151,103.062546 309.223846,106.830780 
	C310.194061,109.576050 312.484253,112.833298 315.008179,113.880356 
	C325.506683,118.235703 337.582611,110.265854 335.480652,96.112610 
z"/>
<path fill="#233746" opacity="1.000000" stroke="none" 
	d="
M495.239441,109.126587 
	C498.418274,104.542404 499.259308,99.802750 499.067200,94.629494 
	C498.801483,87.473999 499.103638,80.299149 498.962372,73.136543 
	C498.895447,69.742729 499.655579,67.869698 503.631866,67.923561 
	C507.354706,67.973999 508.046539,69.733910 508.028503,72.897087 
	C507.946716,87.227478 508.062927,101.559410 507.899170,115.888397 
	C507.880341,117.539444 506.673431,120.478294 505.818970,120.553055 
	C503.920715,120.719139 501.926300,119.335640 499.913849,118.798309 
	C498.461517,118.410545 496.322052,117.632286 495.508484,118.289703 
	C489.530029,123.120537 482.594238,122.544037 475.904877,121.617020 
	C467.990509,120.520241 462.471863,113.012054 462.119171,103.173355 
	C461.749237,92.855003 462.100433,82.512589 461.976868,72.182610 
	C461.936157,68.781898 463.553680,67.984138 466.583862,67.957581 
	C469.781464,67.929565 471.063904,69.114929 471.024841,72.351402 
	C470.914185,81.515053 471.003021,90.681038 471.000427,99.846100 
	C470.998749,105.867249 472.553375,111.182236 478.476929,113.901962 
	C484.366150,116.605927 489.389099,115.080460 495.239441,109.126587 
z"/>
<path fill="#233746" opacity="1.000000" stroke="none" 
	d="
M562.299683,70.161064 
	C570.911072,65.549461 579.312561,65.773926 587.316284,70.315010 
	C594.412537,74.341225 594.251404,77.017166 587.110291,81.415215 
	C585.747192,80.124771 584.365906,78.709297 582.872681,77.424011 
	C578.617126,73.761253 572.746277,73.005508 568.162109,76.150497 
	C566.342834,77.398643 564.416077,80.016815 564.440002,81.988068 
	C564.463196,83.893700 566.541016,86.678154 568.404114,87.481468 
	C573.234375,89.564247 578.537292,90.518768 583.481445,92.376350 
	C593.867981,96.278664 597.709290,105.880684 591.881958,114.610970 
	C589.891174,117.593475 585.944641,120.174522 582.419312,121.061470 
	C571.264221,123.868004 558.552063,121.613396 553.230774,111.398369 
	C555.296692,109.995010 557.413147,108.557335 558.650818,107.716591 
	C563.133301,110.187088 566.712891,112.457008 570.548340,114.146118 
	C572.412231,114.967003 574.820496,115.141182 576.866638,114.835091 
	C580.966675,114.221779 584.867493,112.489578 585.669312,107.956833 
	C586.492371,103.304787 582.997131,101.066315 579.229248,99.731720 
	C575.020264,98.240883 570.634949,97.255188 566.388184,95.861488 
	C561.464294,94.245529 556.951111,91.717438 556.195801,86.085800 
	C555.384521,80.036987 555.618103,73.969604 562.299683,70.161064 
z"/>
<path fill="#0AA4B4" opacity="1.000000" stroke="none" 
	d="
M19.992964,44.998848 
	C45.483688,57.367863 70.603172,69.658058 95.722763,81.948059 
	C96.602203,82.378334 97.482658,82.806541 98.358551,83.233719 
	C98.036186,88.295784 94.774292,85.090668 93.388420,84.616760 
	C71.215622,77.034546 49.122448,69.219826 26.994545,61.505672 
	C21.461428,59.576736 15.903012,57.705513 10.293749,56.015072 
	C6.545920,54.885601 4.999119,53.048656 7.012161,49.225990 
	C8.368628,46.650127 9.563661,43.989254 11.062247,40.887608 
	C14.135389,42.335369 16.878565,43.627682 19.992964,44.998848 
z"/>
<path fill="#233746" opacity="1.000000" stroke="none" 
	d="
M279.353760,67.946411 
	C282.141357,67.987709 284.476318,68.092186 286.802948,67.996056 
	C289.710968,67.875893 291.017548,68.993797 291.020844,72.060944 
	C291.024292,75.236588 289.463745,75.903542 286.683868,76.030632 
	C275.996918,76.519196 275.998871,76.588043 276.000427,87.582199 
	C276.001282,93.410637 275.916687,99.240883 276.033508,105.067047 
	C276.175964,112.171143 279.207855,114.578880 286.169098,113.880272 
	C287.650177,113.731636 290.243103,114.638046 290.638000,115.690750 
	C291.579132,118.199654 290.768494,120.217255 287.462158,121.158775 
	C275.729126,124.499878 268.011993,118.983566 268.001434,106.892639 
	C267.994171,98.566292 267.788208,90.232506 268.081726,81.916534 
	C268.241943,77.376884 266.765167,75.407181 262.144562,75.974014 
	C258.814331,76.382553 256.272491,75.380844 257.178894,71.428192 
	C257.477142,70.127594 259.123383,68.384521 260.374084,68.177391 
	C267.827820,66.942955 267.823822,67.073387 268.019409,59.388096 
	C268.080200,57.000671 267.395050,54.156582 271.367279,54.013908 
	C274.387726,53.905426 276.214203,54.684029 276.004883,58.126122 
	C275.883850,60.116043 275.654144,62.213917 276.142456,64.088943 
	C276.512299,65.508987 277.940277,66.653458 279.353760,67.946411 
z"/>
<path fill="#0AA4B4" opacity="1.000000" stroke="none" 
	d="
M84.223564,65.723343 
	C76.626671,59.113281 69.201393,52.847469 61.950287,46.386192 
	C51.722305,37.272282 41.623238,28.013702 30.891008,18.293436 
	C34.660912,15.702988 38.286819,13.211483 42.398384,10.386267 
	C62.803844,33.235596 82.944450,55.788345 103.085052,78.341095 
	C102.620285,78.890182 102.155525,79.439270 101.690758,79.988365 
	C94.781914,76.953949 89.856689,71.146645 84.223564,65.723343 
z"/>
<path fill="#0AA4B4" opacity="1.000000" stroke="none" 
	d="
M80.682297,101.691345 
	C85.820290,99.926147 90.594704,98.287315 95.438789,96.890045 
	C96.434593,96.602806 97.690742,97.218117 98.826889,97.417397 
	C98.803017,97.879692 98.779137,98.341980 98.755257,98.804276 
	C73.734337,110.890900 48.730732,123.013954 23.636084,134.945511 
	C22.503822,135.483856 20.055138,134.782135 19.073984,133.802399 
	C16.787163,131.518875 15.021808,128.713150 12.522570,125.433060 
	C35.361752,117.509209 57.852570,109.706215 80.682297,101.691345 
z"/>
<path fill="#233746" opacity="1.000000" stroke="none" 
	d="
M531.623901,82.819229 
	C530.619080,88.163177 529.441711,93.156837 529.095459,98.207474 
	C528.686157,104.178352 528.894348,110.200752 529.031982,116.196281 
	C529.106873,119.457878 528.172607,121.074921 524.536499,121.068321 
	C520.976685,121.061874 519.940002,119.605072 519.964539,116.270294 
	C520.067261,102.273956 519.939697,88.275826 520.064758,74.279846 
	C520.085571,71.957161 518.686646,68.682869 522.976379,68.037697 
	C527.048584,67.425232 528.332397,69.573990 528.344604,73.923035 
	C529.908875,72.905846 530.832825,72.040924 531.926880,71.639969 
	C536.349670,70.019028 540.754456,68.265114 545.304626,67.103951 
	C548.513184,66.285149 550.112183,67.940842 550.049194,71.524918 
	C549.979797,75.467468 548.188660,75.566154 544.929260,75.166687 
	C538.987427,74.438477 534.823792,77.598618 531.623901,82.819229 
z"/>
<path fill="#233746" opacity="1.000000" stroke="none" 
	d="
M367.000000,99.025330 
	C366.992401,105.345543 366.881378,111.173004 367.015564,116.994827 
	C367.097382,120.544594 365.119812,121.015450 362.247162,121.024811 
	C359.364685,121.034195 357.976044,120.061005 357.990509,116.988838 
	C358.061096,102.010345 357.940796,87.030159 358.159698,72.054535 
	C358.179382,70.709404 359.902893,68.624130 361.246643,68.206444 
	C365.328278,66.937714 366.138824,70.111603 366.590363,74.151970 
	C368.514557,72.625366 369.702942,71.099998 371.232758,70.580833 
	C375.400421,69.166519 379.673859,67.994148 383.981812,67.090004 
	C386.476501,66.566422 388.285431,67.726463 387.899292,70.679741 
	C387.595306,73.005058 387.342224,75.099251 383.913361,75.169777 
	C372.346344,75.407715 367.080994,80.970169 367.003479,92.538589 
	C366.990082,94.535713 367.000549,96.532997 367.000000,99.025330 
z"/>
<path fill="#0AA4B4" opacity="1.000000" stroke="none" 
	d="
M63.745903,147.753174 
	C62.358402,149.214478 61.068333,150.313126 60.114651,151.651459 
	C54.477070,159.562912 50.836788,159.930054 42.739735,152.901184 
	C61.939949,135.918915 81.084846,118.973419 100.296616,102.104103 
	C100.596428,101.840858 101.719795,102.515541 103.521278,103.093185 
	C90.048271,118.231644 77.023514,132.866455 63.745903,147.753174 
z"/>
<path fill="#233746" opacity="1.000000" stroke="none" 
	d="
M118.019012,15.448713 
	C116.985977,35.412159 115.961517,54.925816 114.937065,74.439476 
	C114.115608,74.442261 113.294151,74.445045 112.472702,74.447830 
	C109.877556,51.752331 109.836861,28.865433 107.852005,6.072557 
	C116.117500,6.038301 118.913567,8.681478 118.019012,15.448713 
z"/>
<path fill="#233746" opacity="1.000000" stroke="none" 
	d="
M127.661728,48.603519 
	C130.717316,39.798969 133.624527,31.360170 136.537247,22.905357 
	C143.058334,25.518433 144.495850,27.998745 141.901901,33.592205 
	C135.685883,46.996120 129.130081,60.242443 122.715691,73.554420 
	C122.229111,74.564224 121.776314,75.590286 121.307816,76.608788 
	C120.585785,76.141594 119.863754,75.674400 119.141724,75.207207 
	C120.702118,66.122131 124.485207,57.649754 127.661728,48.603519 
z"/>
<path fill="#233746" opacity="1.000000" stroke="none" 
	d="
M109.427315,157.443848 
	C109.675461,149.038681 110.078049,140.930847 110.561760,132.827850 
	C110.996735,125.541283 111.494301,118.258080 112.032082,110.978401 
	C112.119385,109.796631 112.558907,108.640884 112.835632,107.473106 
	C113.328026,107.468590 113.820427,107.464081 114.312820,107.459564 
	C114.869804,112.205666 115.624214,116.938545 115.943108,121.700592 
	C116.630417,131.964005 117.375458,142.238312 117.525322,152.516495 
	C117.595978,157.362778 113.348778,157.620178 109.427315,157.443848 
z"/>
<path fill="#233746" opacity="1.000000" stroke="none" 
	d="
M139.226837,69.254395 
	C136.240616,71.905960 133.611115,74.440910 130.739380,76.662796 
	C129.100693,77.930679 127.067085,78.688133 125.211296,79.675423 
	C124.804039,79.144554 124.396782,78.613686 123.989517,78.082817 
	C133.844284,67.065186 143.699036,56.047562 153.600952,44.977215 
	C158.470963,50.271881 158.311798,51.935905 153.753342,55.903130 
	C148.883484,60.141384 144.230011,64.628265 139.226837,69.254395 
z"/>
<path fill="#233746" opacity="1.000000" stroke="none" 
	d="
M120.105919,111.902985 
	C119.769211,109.899834 119.528564,108.274162 119.287918,106.648499 
	C119.783066,106.446632 120.278206,106.244774 120.773346,106.042908 
	C121.700058,107.395050 122.809929,108.657455 123.523605,110.113976 
	C127.970581,119.189659 132.330124,128.308182 136.713684,137.414917 
	C137.001236,138.012299 137.637543,138.825989 137.446991,139.204376 
	C136.501770,141.081360 135.333374,142.845947 134.243622,144.650146 
	C132.978561,143.715927 131.014771,143.039856 130.559113,141.806580 
	C126.944870,132.024353 123.617470,122.136131 120.105919,111.902985 
z"/>
<path fill="#233746" opacity="1.000000" stroke="none" 
	d="
M153.013962,70.995140 
	C155.928894,69.775719 158.498413,68.698860 160.989243,67.654984 
	C164.013947,72.163025 163.725220,74.128242 159.780670,75.539513 
	C150.752716,78.769524 141.685333,81.893684 132.580490,84.898888 
	C131.431686,85.278076 129.961960,84.685013 128.640930,84.542419 
	C129.537186,83.623062 130.273270,82.393532 131.355652,81.834641 
	C138.418091,78.187927 145.555588,74.686584 153.013962,70.995140 
z"/>
<path fill="#233746" opacity="1.000000" stroke="none" 
	d="
M147.828522,129.137573 
	C142.818832,124.385880 138.082901,119.561852 133.420364,114.667915 
	C131.251862,112.391792 129.155746,110.037369 127.163559,107.606377 
	C126.099579,106.308037 125.326462,104.771339 124.422073,103.342216 
	C124.730713,102.963516 125.039352,102.584824 125.347992,102.206131 
	C126.816437,102.903366 128.526306,103.320793 129.712952,104.344635 
	C135.984756,109.755951 142.083282,115.367622 148.327362,120.811783 
	C151.675766,123.731224 151.340012,126.369835 147.828522,129.137573 
z"/>
<path fill="#233746" opacity="1.000000" stroke="none" 
	d="
M131.648041,96.794952 
	C141.082901,100.025932 150.167053,103.155281 159.881729,106.501831 
	C159.069489,108.727371 158.375732,110.628304 157.502151,113.021950 
	C147.973450,108.446495 138.876770,104.103363 129.821976,99.674553 
	C129.218613,99.379433 128.933289,98.434036 128.500046,97.791092 
	C129.432480,97.425171 130.364929,97.059250 131.648041,96.794952 
z"/>
<path fill="#233746" opacity="1.000000" stroke="none" 
	d="
M152.184586,93.989380 
	C145.943817,93.651962 140.165741,93.421982 134.412292,92.913544 
	C133.027512,92.791161 131.724319,91.745544 130.383606,91.124496 
	C131.641342,90.421684 132.865479,89.184738 134.162262,89.103210 
	C142.241333,88.595261 150.335464,88.311104 158.427383,88.034149 
	C160.585205,87.960304 163.356873,87.905220 162.678772,91.109962 
	C162.426743,92.301140 160.150009,93.476006 158.595856,93.873421 
	C156.727829,94.351097 154.645737,93.991623 152.184586,93.989380 
z"/>
<path fill="#FFFFFF" opacity="1.000000" stroke="none" 
	d="
M441.687561,106.493690 
	C432.419342,118.810600 418.200714,116.301544 410.766907,107.312538 
	C406.725861,102.426094 405.549347,92.505432 408.420807,86.090744 
	C412.214966,77.614754 419.416138,74.253601 426.423462,74.255219 
	C434.723816,74.257141 440.634979,79.176834 443.553406,87.031837 
	C446.048798,93.748260 445.110413,100.027916 441.687561,106.493690 
z"/>
<path fill="#FFFFFF" opacity="1.000000" stroke="none" 
	d="
M335.631653,96.513489 
	C337.582611,110.265854 325.506683,118.235703 315.008179,113.880356 
	C312.484253,112.833298 310.194061,109.576050 309.223846,106.830780 
	C307.892151,103.062546 310.246643,100.006500 313.906738,98.626183 
	C320.856873,96.005127 327.924866,93.796638 335.631653,96.513489 
z"/>
</svg>