<svg xmlns="http://www.w3.org/2000/svg" xmlns:xlink="http://www.w3.org/1999/xlink" fill="#fff" fill-rule="evenodd" stroke="#000" stroke-linecap="round" stroke-linejoin="round" viewBox="0 0 74.375 85"><use xlink:href="#a" x="2.188" y="2.5"/><symbol id="a" overflow="visible"><g stroke="none"><path fill="#b7ca9d" d="m0 44.684 5.327-.204 4.711.379-5.563 19.145L0 44.684z"/><path fill="#4b612c" d="M20.21 59.806 35 64.004 46.999 34.47 35 0 20.21 6.997v52.808z"/><path fill="#759c3e" d="M49.79 59.806 35 64.004V0l14.79 6.997v52.808z"/><path fill="#4b612c" d="m59.962 54.169 5.563.719v-9.776l-5.563-.253v9.31z"/><path fill="#759c3e" d="m10.038 54.169-5.563.719v-9.776l5.563-.253v9.31z"/><path fill="#b7ca9d" d="m34.405 53.771-24.367-4.053-5.563.505 28.924 19.475 1.006-15.928z"/><path fill="#759c3e" d="M65.525 45.112 70 44.684V63.43l-4.475-2.993V45.112z"/><path fill="#b7ca9d" d="m70 44.684-5.327-.204-4.711.379 5.563.253L70 44.684z"/><g fill="#4b612c"><path d="m0 49.378 35 6.628V80L0 63.431V49.378z"/><path d="M4.475 45.112 0 44.684V63.43l4.475-1.623V45.112z"/></g><g fill="#b7ca9d"><path d="M35 53.897v21.701l30.525-25.374-5.553-.496L35 53.897z"/><path d="M45.469 47.007 35 46.239l-10.469.768L35 80l10.469-32.993z"/></g><g fill="#759c3e"><path d="m70 49.378-35 6.628V80l35-16.569V49.378z"/><path d="M45.469 74.276 35 79.232V47.998l10.469-.991v27.269z"/></g><path fill="#4b612c" d="M24.531 70.671 35 80V47.998l-10.469-.991v23.664z"/></g></symbol></svg>