<svg xmlns="http://www.w3.org/2000/svg" xmlns:xlink="http://www.w3.org/1999/xlink" fill="#fff" fill-rule="evenodd" stroke="#000" stroke-linecap="round" stroke-linejoin="round" viewBox="0 0 74.375 85"><use xlink:href="#a" x="2.188" y="2.5"/><symbol id="a" overflow="visible"><g fill="#4b612c" stroke="none"><path d="m49.8 44.478 11.316 2.858v20.303L49.8 64.81 39.473 52.917 49.8 44.478zM0 63.434l8.884 4.205 12.419-21.415H0v17.21z"/><path d="m35 80-14.8-7.005V48.741l23.601-2.517L35 80z"/></g><path fill="#b7ca9d" stroke="none" d="m0 46.224 35 4.39 35-4.39L35 44.4 0 46.224z"/><path fill="#3c4929" stroke="none" d="M49.8 26.82 35 42.683 20.19 26.82 35 5.415 49.8 26.82z"/><g fill="#4b612c" stroke="none"><path d="m35 47.444 14.8 1.298 8.379-10.956L49.8 26.82 35 28.781l-9.585 9.005L35 47.444z"/><path d="m8.884 47.337 5.658 10.995 5.658-9.571 10.224-10.976L20.2 26.82 8.884 28.957v18.38zM20.19 7.005 35 0l12.471 15.142L35 24.02l-14.81 2.8V7.005z"/></g><g fill="#759c3e" stroke="none"><path d="M20.2 48.761 8.884 47.337V67.64L20.2 64.81V48.761zM35 47.444l-14.8 1.298V26.82L35 28.781v18.663zm35 15.99-8.884 4.205V47.336L70 46.224v17.21zM35 80.001l14.8-7.005V48.742L35 50.596v29.405zM49.8 26.82 35 24.02V0l14.8 7.005V26.82zM61.116 47.337 49.8 48.762V26.82l11.316 2.137v18.38z"/></g></symbol></svg>