<svg xmlns="http://www.w3.org/2000/svg" xmlns:xlink="http://www.w3.org/1999/xlink" fill="#fff" fill-rule="evenodd" stroke="#000" stroke-linecap="round" stroke-linejoin="round" viewBox="0 0 85 74.375"><use xlink:href="#a" x="2.5" y="2.188"/><symbol id="a" overflow="visible"><g stroke="none"><path fill="#4b612c" d="M76.191 70H3.687C1.651 70 0 68.318 0 66.243V8.766c0-2.075 1.651-3.757 3.687-3.757h72.627C78.349 5.009 80 6.691 80 8.766v57.603c-.118 2.051-1.793 3.648-3.809 3.632z"/><path fill="#759c3e" d="M76.191 64.991H3.687C1.651 64.991 0 63.309 0 61.234V3.757C0 1.682 1.651 0 3.687 0h72.627C78.349 0 80 1.682 80 3.757V61.36c-.118 2.051-1.793 3.648-3.809 3.632z"/><path d="M15.73 5.134h59.846v5.51H15.73zM3.441 7.889c0-2.428 1.918-4.383 4.301-4.383s4.301 1.955 4.301 4.383-1.918 4.383-4.301 4.383-4.301-1.955-4.301-4.383zm.86 8.14h71.275v43.953H4.301z"/><path fill="#759c3e" d="m46.697 42.701-.246.751-.614 1.753-1.597-.751-.737-.376-.369.626-1.106 1.503-1.352-1.127-.614-.501-.492.501-1.475 1.127-.983-1.503-.369-.626-.737.376-1.597.751-.614-1.753-.246-.751-1.229.25h-.983v13.775l8.602-7.388 8.602 7.388V42.951h-.86l-.983-.25zm4.425-11.645 1.475-1.628-1.843-1.252.983-2.004-2.089-.751.492-2.129-2.212-.25-.123-2.129-2.212.376-.614-2.003-1.966.877-1.229-1.753-1.721 1.378-1.597-1.378-1.229 1.753-1.966-.876-.737 2.003-2.089-.376-.123 2.129-2.212.25.369 2.129-1.966.751.86 2.004-1.721 1.252 1.352 1.628-1.352 1.628 1.721 1.252-.86 2.004 1.966.751-.614 2.129 1.721.251h.369l.369 2.129 2.212-.376.737 2.129 1.966-1.002 1.229 1.878 1.597-1.503 1.721 1.503 1.229-1.878 1.966 1.002.614-2.129 2.212.376.246-2.129h.123l1.966-.251-.492-2.129 2.089-.751-.983-2.004 1.843-1.252-1.475-1.628z"/><path d="M37.972 32.308 34.9 28.927l-3.441 3.506 6.39 6.512 10.814-11.02-2.458-2.63-8.233 7.013z"/></g></symbol></svg>