<svg xmlns="http://www.w3.org/2000/svg" xmlns:xlink="http://www.w3.org/1999/xlink" fill="#fff" fill-rule="evenodd" stroke="#000" stroke-linecap="round" stroke-linejoin="round" viewBox="0 0 85 42.5"><use xlink:href="#a" x="2.5" y="1.25"/><symbol id="a" overflow="visible"><g fill="#4b612c" stroke="none"><path d="M0 22.066C0 12.131 8.745 4.133 19.608 4.133s19.608 7.998 19.608 17.933S30.471 40 19.608 40 0 32.001 0 22.066z"/><path d="M26.242 14.45h22.706l2.041 3.267 7.672-.667 2.952 2.767 2.697.55L80 18.5v4.133l-4.775 7.05H26.242V14.45zM0 17.933h18.879v4.683H0z"/></g><path fill="#759c3e" stroke="none" d="M0 17.933C0 7.998 8.745 0 19.608 0s19.608 7.998 19.608 17.933-8.745 17.933-19.608 17.933S0 27.868 0 17.933z"/><path stroke="none" d="M5.904 17.933c0-2.595 2.284-4.683 5.121-4.683s5.121 2.089 5.121 4.683-2.284 4.683-5.121 4.683-5.121-2.089-5.121-4.683z"/><path fill="#759c3e" stroke="none" d="M26.242 10.317h22.706l2.041 3.267 7.672-.65 2.952 2.75 2.697.55 6.998-3.833 8.692 6.1-4.775 7.05H26.242V10.317z"/></symbol></svg>