<svg xmlns="http://www.w3.org/2000/svg" xmlns:xlink="http://www.w3.org/1999/xlink" fill="#fff" fill-rule="evenodd" stroke="#000" stroke-linecap="round" stroke-linejoin="round" viewBox="0 0 63.75 85"><use xlink:href="#a" x="1.875" y="2.5"/><symbol id="a" overflow="visible"><path fill="#3c4929" stroke="none" d="m10.476 27.971-6.989-4.478L0 28.176l5.35.439 5.126-.644zm-5.798 5.795L30 34.888l25.322-1.122L30 24 4.678 33.766zm42.437-5.795 6.163.761L60 28.176l-6.008-8.819-6.877 8.615z"/><path fill="#b7ca9d" stroke="none" d="m21.695 59.893 14.482-2.361 13.977 2.273-14.482 9.59-13.978-9.502z"/><path fill="#759c3e" stroke="none" d="m23.305 27.083-7.535-.907-7.759-6.732L15.77 8.576l7.535 1.629v16.878z"/><path fill="#4b612c" stroke="none" d="M4.678 15.054V8.82L30 0l6.695 9.863-13.39 3.737-7.535-1.639V25.98L30 24l7.577 23.219L30 80l-7.591-2.644v-7.473l-6.639-1.844V32.985l-11.092.78v-6.234L0 28.176V16.361l4.678-1.307z"/><path fill="#759c3e" stroke="none" d="m43.109 4.566 5.336 1.854 6.877 2.4v6.234L60 16.361v11.815l-4.678-.644v6.234l-5.966-.419-5.126-.361V40h11.092v6.41l-5.154.322V53.2l-12.591 1.746v7.473l12.563-2.605.028 6.595-12.591 3.473v7.473L30 80V24l6.695.927V13.6L30 11.961V0l13.109 4.566z"/><path fill="#3c4929" stroke="none" d="M37.577 10.107 30 8l-14.23 3.961 7.535 1.639 14.272-3.493z"/><path fill="#4b612c" stroke="none" d="M36.695 11.961h7.535V25.98l-7.535-1.054V11.961z"/><path fill="#3c4929" stroke="none" d="M15.77 11.961 30 8l2.997.839 4.58 1.268 6.653 1.854-7.535 1.639L30 11.961 23.305 13.6l-7.535-1.639z"/></symbol></svg>