<svg id="boston-university-logo-01" xmlns="http://www.w3.org/2000/svg" width="88" height="39.43" viewBox="0 0 88 39.43">
  <rect id="Rectangle_2037" data-name="Rectangle 2037" width="88" height="39.43" fill="#e2183d"/>
  <path id="Path_14289" data-name="Path 14289" d="M1.45,1.44V37.97H86.56V1.44ZM85.96,37.37H2.05V2.04H85.96V37.37Z" fill="#fff"/>
  <path id="Path_14290" data-name="Path 14290" d="M14.69,12.32a2.237,2.237,0,0,0,1.88-2.08,2.191,2.191,0,0,0-1.04-1.9,6.561,6.561,0,0,0-3.41-.66c-.32,0-1.6.02-2.53.05-.49.02-1.65.08-2.12.1H7.44v.39h.62c1.17,0,1.25.47,1.26,1.43v7C9.31,17.7,9.08,17.99,7.7,18H7.28v.39h6.2a3.318,3.318,0,0,0,3.68-3.24,3.053,3.053,0,0,0-2.47-2.83Zm-2.1-.11h-1.8V8.12c.42-.02,1.09-.05,1.45-.05,2.06,0,2.74,1.06,2.75,2.22,0,1.3-.78,1.92-2.39,1.92ZM15.5,15.2c0,1.3-.62,2.66-2.83,2.66-1.41,0-1.88-.43-1.89-1.7V12.6h1.79a2.667,2.667,0,0,1,2.93,2.6Z" fill="#fff"/>
  <path id="Path_14291" data-name="Path 14291" d="M25.59,7.58c-3.61,0-6.2,2.39-6.2,5.77,0,3.18,2.8,5.31,6.12,5.31a5.846,5.846,0,0,0,6.04-5.83c0-3.06-2.75-5.24-5.95-5.24Zm-.44.49c2.76,0,4.73,2.19,4.74,5.31,0,2.38-1.31,4.78-4.03,4.79-2.69,0-4.82-2.21-4.82-5.34,0-2.01,1.17-4.75,4.11-4.75Z" fill="#fff"/>
  <path id="Path_14292" data-name="Path 14292" d="M34.45,18.39h.02v-.02a.41.41,0,0,1,.32-.17,13.206,13.206,0,0,0,2.34.46c1.99,0,3.47-1.24,3.47-2.92-.02-3.14-5.43-3.79-5.41-6.14,0-.92.75-1.55,1.85-1.55a2.946,2.946,0,0,1,2.68,1.97v.02h.36l-.3-2.21h-.33c-.1.15-.15.17-.27.17a10.962,10.962,0,0,0-2.29-.42c-1.73,0-3.03,1.06-3.04,2.48.02,2.99,5.43,3.74,5.41,6.12a2.073,2.073,0,0,1-2.29,1.95,2.877,2.877,0,0,1-2.81-2.35v-.03h-.39l.36,2.63h.32Z" fill="#fff"/>
  <path id="Path_14293" data-name="Path 14293" d="M42.71,10.38v-.03c.26-1.49.55-1.84,1.2-1.84h2.9V16.8c0,.9-.27,1.19-1.3,1.2h-.66v.39h5.38V18h-.66c-1.02,0-1.29-.29-1.3-1.2V8.51h2.9c.65,0,.94.36,1.2,1.84v.03h.38l-.28-2.8h-.38v.03c-.03.17-.26.22-.49.22H43.49a1.2,1.2,0,0,1-.33-.05A.213.213,0,0,1,43,7.61V7.58h-.39l-.28,2.8h.37Z" fill="#fff"/>
  <path id="Path_14294" data-name="Path 14294" d="M60.14,7.58c-3.61,0-6.2,2.39-6.21,5.77,0,3.18,2.8,5.31,6.12,5.31a5.846,5.846,0,0,0,6.04-5.83c0-3.06-2.75-5.24-5.95-5.24Zm.27,10.59c-2.69,0-4.82-2.21-4.82-5.34,0-2.01,1.17-4.75,4.11-4.75,2.76,0,4.73,2.19,4.73,5.31,0,2.38-1.3,4.78-4.03,4.79Z" fill="#fff"/>
  <path id="Path_14295" data-name="Path 14295" d="M71.73,18.03V18H71.7c-1.43-.01-1.66-.22-1.67-1.43V9.43l8.68,9.08h.49V9.07c0-.64.23-.83,1.5-.84h.03V7.84H76.72v.39h.03c1.35.05,1.61.2,1.62,1.21v6.62L70.48,7.83h-2.7v.39h.03a2.451,2.451,0,0,1,1.38.41v8.28c0,.76-.31,1.09-1.35,1.09h-.1v.39h3.98v-.35Z" fill="#fff"/>
  <path id="Path_14296" data-name="Path 14296" d="M13.21,24.36v.28h.03c.92.06,1.05.2,1.06,1.27v2.6a2.2,2.2,0,0,1-2.51,2.38,2.2,2.2,0,0,1-2.5-2.37v-3.1c0-.63.24-.77.84-.78h.13v-.28H7.33v.28h.03c.76.02.91.1.92.8v3.25c0,1.61,1.11,2.84,3.25,2.84,2.43,0,3.33-1.5,3.33-2.9V25.62c0-.7.24-.97.98-.99h.03v-.28H13.18Z" fill="#fff"/>
  <path id="Path_14297" data-name="Path 14297" d="M22.89,24.6v.03h.03c.89.03,1.05.12,1.06.79v4.35l-5.2-5.42h-1.8v.28h.03a1.65,1.65,0,0,1,.9.26v5.46c0,.5-.19.7-.88.71h-.08v.28H19.6v-.28h-.03c-.95-.01-1.08-.14-1.09-.93V25.44l5.72,5.99h.34V25.18c0-.42.14-.53.98-.54h.03v-.28H22.87v.25Z" fill="#fff"/>
  <path id="Path_14298" data-name="Path 14298" d="M27.09,24.6v.03h.03c.62.04.79.18.8.77v4.74c-.01.74-.12.88-.8.92h-.03v.28h2.78v-.28h-.03c-.76-.01-.9-.19-.91-.84V25.5c0-.74.21-.86.91-.87h.03v-.28H27.09Z" fill="#fff"/>
  <path id="Path_14299" data-name="Path 14299" d="M35.82,24.6v.04h.03c.76,0,1,.13,1,.43a1.958,1.958,0,0,1-.19.68l-1.73,4.52-1.97-4.91a.674.674,0,0,1-.07-.28c0-.27.29-.42,1.09-.44h.03v-.28H30.88v.28h.04c.67,0,.77.15,1.06.85l2.43,6.05h.61l2.3-5.96c.27-.69.55-.93,1.11-.94h.03v-.28H35.81v.25Z" fill="#fff"/>
  <path id="Path_14300" data-name="Path 14300" d="M44.9,29.63v.03c-.29.96-.5,1.23-1.27,1.23H41.91c-.41,0-.56-.07-.57-.58V27.97h1.85c.45,0,.62.06.72.85v.03h.28V26.66h-.28v.03c-.06.64-.23.8-.61.8H41.34V24.82h2.32c.38,0,.64.17.79,1.12v.03h.27l-.09-1.62H39.22v.28h.28c.74,0,.85.24.86.86v4.7c-.01.66-.13.87-1.01.88H39v.28h5.98l.19-1.73H44.9Z" fill="#fff"/>
  <path id="Path_14301" data-name="Path 14301" d="M55.85,25.54c0-.6.49-1.01,1.21-1.01a1.935,1.935,0,0,1,1.76,1.29v.02h.26l-.2-1.48h-.24c-.07.1-.09.11-.17.11a7.021,7.021,0,0,0-1.51-.28,1.817,1.817,0,0,0-2.02,1.65c.02,1.99,3.6,2.48,3.58,4.04a1.367,1.367,0,0,1-1.5,1.28,1.9,1.9,0,0,1-1.85-1.54v-.03h-.28l.24,1.76h.24v-.02a.272.272,0,0,1,.2-.11,8.671,8.671,0,0,0,1.55.3,2.091,2.091,0,0,0,2.31-1.94c-.02-2.09-3.6-2.52-3.57-4.05Z" fill="#fff"/>
  <path id="Path_14302" data-name="Path 14302" d="M61.38,24.6v.03h.03c.62.04.79.18.8.77v4.74c-.01.74-.12.88-.8.92h-.03v.28h2.78v-.28h-.03c-.76-.01-.9-.19-.91-.84V25.5c0-.74.21-.86.91-.87h.03v-.28H61.38v.25Z" fill="#fff"/>
  <path id="Path_14303" data-name="Path 14303" d="M72.03,24.19H72v.03c-.02.1-.16.14-.31.14H66.33a.711.711,0,0,1-.21-.03.127.127,0,0,1-.1-.11v-.03h-.28l-.19,1.87h.27v-.03c.18-.98.36-1.21.78-1.21h1.9v5.47c0,.59-.17.77-.84.78h-.45v.28h3.58v-.28h-.45c-.67,0-.84-.19-.85-.78V24.82h1.9c.42,0,.61.23.78,1.21v.03h.27l-.19-1.87h-.24Z" fill="#fff"/>
  <path id="Path_14304" data-name="Path 14304" d="M78.15,24.36v.28h.03c.49,0,.7.09.7.3a1.012,1.012,0,0,1-.16.45l-1.54,2.62-1.75-2.7a.865.865,0,0,1-.18-.42c0-.16.18-.25.74-.25h.03v-.28H72.99v.28h.03c.72.03.95.17,1.5,1.02l1.98,3.09v1.56c0,.54-.17.76-.86.77h-.25v.28h3.13v-.28h-.18c-.67,0-.85-.21-.86-.79V28.62l1.84-3.11a1.491,1.491,0,0,1,1.36-.86h.03v-.28H78.12Z" fill="#fff"/>
  <path id="Path_14305" data-name="Path 14305" d="M52.8,30.36s-1.41-1.8-1.64-2.09c-.07-.08-.12-.14-.16-.18a1.877,1.877,0,0,0,1.33-1.8c0-1.16-.95-2.01-3.01-2.01-.72,0-.94.01-1.4.03s-1.13.07-1.4.07h-.04v.28h.28c.64,0,.79.17.8.85v4.67c0,.74-.2.88-.85.88h-.22v.28H49.7v-.28h-.29c-.62,0-.84-.14-.85-.8V28.42c.17.01.31.02.54.02a4.148,4.148,0,0,0,.83-.07v0h0c.1-.02.5.56.92,1.08l.65.8a2.618,2.618,0,0,0,2.66,1.19h.07v-.26H54.2a1.95,1.95,0,0,1-1.42-.84Zm-1.58-4c0,1.31-.78,1.81-2.01,1.82h-.28a2.422,2.422,0,0,1-.37-.02V24.58a4.35,4.35,0,0,1,.52-.02c1.7,0,2.13.78,2.14,1.79Z" fill="#fff"/>
</svg>
