<svg xmlns="http://www.w3.org/2000/svg" viewBox="0 0 700 145"><path fill="#00148C" d="M173.647 44.82v7.203h-14.208v47.418c.012 5.49.863 8.705 6.906 9.116a64.28 64.28 0 0 0 7.302-.414v7.35c-2.574 0-5.008.275-7.582.275-8.372 0-12.703-2.072-14.343-7.964a28.352 28.352 0 0 1-.023-.084c-.566-2.078-.802-4.626-.766-7.72V52.023h-.005v-.014H138.75v-7.19h12.183V23.75h8.506l-.189 21.063h.189v.008h14.208v-.008h-14.208Zm263.036-26.917v-.01h8.521v97.039h-.016v.014h-8.505V17.903ZM289.002 44.819v-.007h8.52v.008h.002v12.09h.269a18.804 18.804 0 0 1 2.6-4.741c4.304-5.753 11.831-9.392 19.719-9.392 19.61 0 25.56 10.331 25.56 27.047v45.121h-8.517V71.181c0-3.735-.374-7.184-1.299-10.168-.01-.036-.022-.071-.033-.106-2.085-6.617-6.905-10.92-16.396-10.92-13.532 0-21.634 10.325-21.903 24.05v40.908h-.002l-8.52.001h-.008V44.819H289Zm-280.48 0V56.91h.27c1.223-3.318 3.415-6.216 6.226-8.51l.025-.02c4.32-3.514 10.095-5.604 16.06-5.604 19.61 0 25.561 10.332 25.561 27.048v45.122h-8.523V71.18c0-12.088-3.922-21.194-17.708-21.194-13.532 0-21.642 10.327-21.912 24.05v40.91H.002V44.812h8.52v.008ZM608.377 0l13.914 13.966-13.914 13.974-13.895-13.974L608.377 0Zm-9.425 114.919v-72.77h18.907v72.77h-18.907ZM493.069 99.326c12.854 0 16.095-11.023 16.095-20.948 0-11.674-5.68-21.19-16.235-21.19-7.028 0-14.878 5.171-14.878 22.021 0 9.237 3.794 20.117 15.018 20.117Zm34.894-56.684v68.5c0 12.511-.954 33.31-36.38 33.31-14.88 0-30.561-6.392-31.376-21.753h20.55c.829 3.67 2.305 7.33 13.263 7.33 10.139 0 15.002-4.885 15.002-16.579v-8.69l-.263-.276c-3.096 5.58-7.847 10.87-19.197 10.87-17.307 0-30.98-12.093-30.98-37.375 0-25.009 14.07-37.243 29.88-37.243 13.4 0 18.805 7.888 21.107 12.644h.273V42.642h18.12Zm16.229.001H562.3v12.512h.283c3.922-7.348 8.245-14.42 19.746-14.42 1.208 0 2.439.138 3.647.272v19.306c-1.613-.27-3.647-.27-5.411-.27-14.732 0-17.448 9.236-17.448 17.26v37.646h-18.926V42.643Zm120.924 58.585c12.037 0 16.772-10.064 16.772-20.795 0-11.558-3.25-23.242-16.23-23.242-12.038 0-16.09 10.736-16.09 22.149 0 8.574 3.367 21.888 15.548 21.888ZM700 114.947h-18.52v-9.102h-.277c-4.6 8.164-12.98 11.008-20.827 11.008-21.347 0-30.29-19.02-30.29-38.873 0-25.011 14.058-37.24 29.886-37.24 12.175 0 17.852 6.664 20.825 11.284h.262V17.359H700v97.588ZM117.383 76.62h-.263c-1.092 2.05-4.878 2.717-7.162 3.127-14.484 2.583-32.47 2.451-32.47 16.171 0 8.568 7.59 13.863 15.555 13.863 12.977 0 24.477-8.289 24.34-22.013V76.62ZM71.951 66.291c.8-16.44 12.3-23.516 28.26-23.516 12.308 0 25.693 3.806 25.693 22.57v37.232c0 3.266 1.615 5.168 5.01 5.168.943 0 2.023-.269 2.705-.549v7.204c-1.902.413-3.25.545-5.55.545-8.649 0-10-4.882-10-12.22h-.273c-5.96 9.093-12.038 14.27-25.424 14.27-12.854 0-23.414-6.394-23.414-20.527 0-19.713 19.086-20.388 37.471-22.563 7.038-.813 10.954-1.77 10.954-9.513 0-11.553-8.255-14.417-18.258-14.417-10.544 0-18.385 4.901-18.665 16.316h-8.509Zm117.116-34.654v-13.73h8.526v13.73h-8.526Zm-.011 83.309V44.812h8.539v70.134h-8.539Zm29.898-35.061c0 14.948 8.114 29.899 24.48 29.899 16.357 0 24.474-14.951 24.474-29.899 0-14.955-8.117-29.911-24.474-29.911-16.366 0-24.48 14.956-24.48 29.911Zm57.466 0c0 20.117-11.623 37.109-32.986 37.109-21.378 0-33.002-16.992-33.002-37.109 0-20.119 11.624-37.112 33.002-37.112 21.363 0 32.986 16.993 32.986 37.112Zm129.96-3.265h-.267c-1.086 2.05-4.87 2.717-7.169 3.127-14.473 2.583-32.449 2.451-32.449 16.171 0 8.568 7.575 13.863 15.554 13.863 12.976 0 24.472-8.289 24.33-22.013V76.62ZM360.94 66.291c.83-16.44 12.31-23.516 28.262-23.516 12.313 0 25.695 3.806 25.695 22.57v37.232c0 3.266 1.625 5.168 5.007 5.168.95 0 2.031-.269 2.715-.549v7.204c-1.9.413-3.274.545-5.555.545-8.664 0-10.01-4.882-10.01-12.22h-.272c-5.947 9.093-12.027 14.27-25.422 14.27-12.835 0-23.389-6.394-23.389-20.527 0-19.713 19.062-20.388 37.457-22.563 7.031-.813 10.95-1.77 10.95-9.513 0-11.553-8.256-14.417-18.265-14.417-10.532 0-18.38 4.901-18.652 16.316h-8.52Z"/></svg>