<svg xmlns="http://www.w3.org/2000/svg" xmlns:xlink="http://www.w3.org/1999/xlink" viewBox="0 0 164.027 115.031"><defs><linearGradient xlink:href="#a" id="b" x1="125.586" x2="142.354" y1="357.494" y2="357.494" gradientUnits="userSpaceOnUse"/><linearGradient id="a"><stop offset="0" style="stop-color:#000;stop-opacity:1"/><stop offset="1" style="stop-color:#000;stop-opacity:0"/></linearGradient><linearGradient xlink:href="#a" id="d" x1="125.586" x2="142.354" y1="357.494" y2="357.494" gradientUnits="userSpaceOnUse"/><linearGradient xlink:href="#a" id="e" x1="125.586" x2="142.354" y1="357.494" y2="357.494" gradientUnits="userSpaceOnUse"/><linearGradient xlink:href="#a" id="f" x1="125.586" x2="142.354" y1="357.494" y2="357.494" gradientUnits="userSpaceOnUse"/><linearGradient xlink:href="#a" id="g" x1="125.586" x2="142.354" y1="357.494" y2="357.494" gradientUnits="userSpaceOnUse"/><linearGradient xlink:href="#a" id="c" x1="125.586" x2="142.354" y1="357.494" y2="357.494" gradientUnits="userSpaceOnUse"/><linearGradient xlink:href="#a" id="h" x1="125.586" x2="142.354" y1="357.494" y2="357.494" gradientUnits="userSpaceOnUse"/><linearGradient xlink:href="#a" id="i" x1="125.586" x2="142.354" y1="357.494" y2="357.494" gradientUnits="userSpaceOnUse"/><linearGradient xlink:href="#a" id="j" x1="125.586" x2="142.354" y1="357.494" y2="357.494" gradientUnits="userSpaceOnUse"/></defs><path d="m115.34 47.97-4.41 2.139-.668 3.608 6.549 5.212 2.806-2.138 2.806 3.207 9.89-2.138 3.073-3.475 1.202-3.073-4.41-3.341 1.738 3.34-4.277 3.074-2.138-.668.535 1.737-5.346 1.47-2.539-3.608-3.741-.668z" style="fill:none;stroke:#000;stroke-width:.26458332px;stroke-linecap:butt;stroke-linejoin:miter;stroke-opacity:1" transform="translate(-75.809 -36.459)"/><path d="m115.34 47.97 2.272-4.81 2.54 2.138-3.742 7.35" style="fill:none;stroke:#000;stroke-width:.26458332px;stroke-linecap:butt;stroke-linejoin:miter;stroke-opacity:1" transform="translate(-75.809 -36.459)"/><path d="m120.151 53.316 2.673-7.75 1.737 1.87 2.272-1.737-1.069-2.405 1.87 1.069 1.872-1.337-3.475-2.138-1.336-.668-1.87 2.005-2.273-.936.134-1.336-3.074 3.207M120.151 45.298l2.673.267M124.561 47.436l-1.87 9.488M126.833 45.7l1.203 9.754M127.635 44.363l2.004 10.022M129.506 43.026l2.673 4.945M120.686 39.953l1.069-3.207 1.87-.134-.935 1.203-1.202-.535M123.626 36.612l1.069 3.608M122.69 37.815l.134 4.41" style="fill:none;stroke:#000;stroke-width:.26458332px;stroke-linecap:butt;stroke-linejoin:miter;stroke-opacity:1" transform="translate(-75.809 -36.459)"/><path d="m110.93 50.109-3.942 7.283v5.48l7.55 5.612 3.275-2.54 2.672 6.95 12.83-5.145 4.209-3.809 2.74-5.212-3.676-7.416M135.386 54.385l2.138 9.555M132.312 57.86l1.002 9.889M122.423 59.998l-1.938 12.896M119.617 56.79l-1.804 9.155M116.81 58.929l-2.271 9.555M110.262 53.717l-3.274 9.154" style="fill:none;stroke:#000;stroke-width:.26458332px;stroke-linecap:butt;stroke-linejoin:miter;stroke-opacity:1" transform="translate(-75.809 -36.459)"/><path d="m106.988 62.871.2 4.076 4.3 11.842 3.765 2.675 4.025 6.668 4.85 2.295 7.55-3.192 2.186-5.806 4.691-5.514.439-4.758 1.938-5.947-.669-6.482" style="fill:none;stroke:#000;stroke-width:.26458332;stroke-linecap:butt;stroke-linejoin:miter;stroke-miterlimit:4;stroke-dasharray:.26458332,.52916663;stroke-dashoffset:0;stroke-opacity:1" transform="translate(-75.809 -36.459)"/><path d="M121.228 90.643h6.607v1.561h-6.607z" style="opacity:1;fill:#fff;fill-opacity:1;stroke:none;stroke-width:.1;stroke-miterlimit:4;stroke-dasharray:none;stroke-opacity:1" transform="translate(-75.809 -36.459)"/><g style="fill:#fff;fill-opacity:1;stroke-width:12.0270853;stroke-miterlimit:4;stroke-dasharray:none"><path d="M653.143-17.476 618.747-5.381l-4.158 5.292 23.057 3.024 17.387 6.425 8.315 12.473-7.56 32.128-1.89 29.104-4.913 40.444 3.78 17.009 7.181-12.851 7.938 41.577 23.812 28.348-2.645 4.158-23.435 4.158 10.205 1.89-7.937 9.827 18.899-6.804-1.89 7.56 10.961-6.048 10.206-10.961 8.315 4.914 4.914 5.291-4.536 5.292-18.52 2.268 9.07 1.512-12.85 6.803 18.142-3.78-4.158 13.23 20.411-12.473 3.402-10.206 12.851-8.693-1.89-15.875 18.521 1.89 27.97-15.12 24.19-17.386-36.663 6.425-16.63-3.401 1.511-65.768-10.583-44.224-27.97-38.931-24.19-27.592-21.168-10.206h-13.985z" style="fill:#fff;fill-opacity:1;stroke:#000;stroke-width:12.0270853;stroke-linecap:butt;stroke-linejoin:miter;stroke-miterlimit:4;stroke-dasharray:none;stroke-opacity:1" transform="translate(29.66 14.926) scale(.01247)"/><path d="m630.842-9.539 20.411 6.426-13.607 6.048M654.655 73.994l5.291 53.673M663.348 21.833l52.16 18.143 13.608 23.057.756 66.902" style="fill:#fff;fill-opacity:1;stroke:#000;stroke-width:12.0270853;stroke-linecap:butt;stroke-linejoin:miter;stroke-miterlimit:4;stroke-dasharray:none;stroke-opacity:1" transform="translate(29.66 14.926) scale(.01247)"/><path d="m720.8 63.41-7.18 23.057 3.779 22.3 28.348 53.673 8.693-24.946-1.133-32.128-15.12-44.98M691.696 197.592l14.364 3.78M719.289 211.577l10.961 2.646M738.943 149.967c0 .473-2.362 22.017-2.362 22.017l4.63 17.67M662.16-5.883l3.742-2.873 3.475.735 1.804 1.737-2.606 2.806-3.408.468z" style="fill:#fff;fill-opacity:1;stroke:#000;stroke-width:12.0270853;stroke-linecap:butt;stroke-linejoin:miter;stroke-miterlimit:4;stroke-dasharray:none;stroke-opacity:1" transform="translate(29.66 14.926) scale(.01247)"/><path d="m665.768-7.02-.668 1.27 1.804.468 1.337-1.136-1.67-.802z" style="fill:#fff;fill-opacity:1;stroke:#000;stroke-width:12.0270853;stroke-linecap:butt;stroke-linejoin:miter;stroke-miterlimit:4;stroke-dasharray:none;stroke-opacity:1" transform="translate(29.66 14.926) scale(.01247)"/></g><path d="m88.966 57.913-5.197 8.032 2.362 6.048h2.646v2.74l3.496-.567 2.457 1.7 5.48-3.306.19-5.576-5.292-9.543-2.551 2.456a77.493 77.493 0 0 1-3.591-1.984zM88.966 57.913l2.775-1.941 3.367 1.469" style="fill:none;stroke:#000;stroke-width:.26458332px;stroke-linecap:butt;stroke-linejoin:miter;stroke-opacity:1" transform="translate(-75.809 -36.459)"/><path d="m92.557 59.897-.52 10.773-3.26 4.063M92.037 70.67l2.693 5.197M86.13 71.993l3.45-5.34-.803 5.34" style="fill:none;stroke:#000;stroke-width:.26458332px;stroke-linecap:butt;stroke-linejoin:miter;stroke-opacity:1" transform="translate(-75.809 -36.459)"/><path d="M84.903 64.15c-.237.141-4.442 2.834-4.442 2.834l4.253 8.836 4.819.33 5.906 1.796 5.338-1.323.804-3.118 3.354-1.37-.567-3.875-5.197-3.449" style="fill:none;stroke:#000;stroke-width:.26458332px;stroke-linecap:butt;stroke-linejoin:miter;stroke-opacity:1" transform="translate(-75.809 -36.459)"/><path d="m80.461 66.984-4.488 8.6 2.504 2.315-.898 3.543 2.74 1.654 1.843-1.04 1.512 3.591 4.63-.945 7.418 2.362 5.528-2.456 3.118-2.174 1.418-1.89 2.646-1.228-.52-2.74-3.544-8.316" style="fill:none;stroke:#000;stroke-width:.26458332px;stroke-linecap:butt;stroke-linejoin:miter;stroke-opacity:1" transform="translate(-75.809 -36.459)"/><path d="m78.477 77.899 1.228-3.355 1.182 1.276 1.322-1.182-1.228-1.133-1.323 1.086M80.886 75.82l-.566 7.276M82.21 74.638l-.048 7.418M84.714 75.82l-1.04 9.827M89.533 76.15l-1.229 8.552M95.439 77.946l.283 9.118M100.778 76.623v1.606l-2.93 2.315 1.937 1.134.43 3.397M97.848 80.544l.284 5.426M100.778 78.23l2.22 1.606 1.37 2.598M99.785 81.678l3.213-1.842M101.58 73.505l4.206 7.04M104.935 72.134l3.497 7.182" style="fill:none;stroke:#000;stroke-width:.26458332px;stroke-linecap:butt;stroke-linejoin:miter;stroke-opacity:1" transform="translate(-75.809 -36.459)"/><path d="m75.973 75.583.655 9.527.935 9.087 4.677 6.816 3.742 13.23 3.742 2.405 3.728-5.949 2.686-6.958 4.57-.929 3.632-3.615 2.522-5.534-.146-5.864 1.049-4.827.667-3.656" style="fill:none;stroke:#000;stroke-width:.26458332;stroke-linecap:butt;stroke-linejoin:miter;stroke-miterlimit:4;stroke-dasharray:.26458332,.52916663;stroke-dashoffset:0;stroke-opacity:1" transform="translate(-75.809 -36.459)"/><path d="m116.276 77.972-6.28 4.744.333 4.744 4.21 2.004h3.541l3.408 1.604 6.481-.2 11.159 1.069 9.154-4.744.2-4.61-2.405-1.872.534-3.608-6.214-4.142-4.944.334-5.48-1.27-3.875.936-2.673 3.407-6.414-.4z" style="fill:#fff;fill-opacity:1;stroke:#000;stroke-width:.26458332px;stroke-linecap:butt;stroke-linejoin:miter;stroke-opacity:1" transform="translate(-75.809 -36.459)"/><path d="m110.33 87.46.066 1.336 4.01 2.138 3.54-.066 2.94 1.47 6.95-.134 11.158 1.07 9.087-4.544.2-1.537M139.128 91.937l-.134 1.336M127.969 90.868l-.134 1.336M121.488 91.068l-.602 1.27M118.08 89.464l-.134 1.404M114.539 89.464l-.134 1.47" style="fill:none;stroke:#000;stroke-width:.26458332px;stroke-linecap:butt;stroke-linejoin:miter;stroke-opacity:1" transform="translate(-75.809 -36.459)"/><path d="m200.82 235.695.334-1.737 1.069.1.4-.969h1.07l.434.969.134 1.437 1.37-.134.283.735.719.935-1.77.836-1.037-.869-1.303.033-.434-.935-1.102.167z" style="fill:none;stroke:#000;stroke-width:.26458332px;stroke-linecap:butt;stroke-linejoin:miter;stroke-opacity:1" transform="translate(-131.84 -199.112)"/><path d="m201.154 233.958.735.902.701-.167-.367-.635M203.693 233.09l-.063.882-.838.047-.168-.93M204.26 235.495l-.511.426.78.425 1.385-.25M202.59 234.693l-.5 1.403M203.749 235.921l.077 1.077" style="fill:none;stroke:#000;stroke-width:.26458332px;stroke-linecap:butt;stroke-linejoin:miter;stroke-opacity:1" transform="translate(-131.84 -199.112)"/><path d="M203.63 233.972c-.082.284.119 1.949.119 1.949M202.792 234.02l-.269 3.011M204.528 236.346l.334 1.52M201.889 234.86l-.902 1.403" style="fill:none;stroke:#000;stroke-width:.26458332px;stroke-linecap:butt;stroke-linejoin:miter;stroke-opacity:1" transform="translate(-131.84 -199.112)"/><path d="m149.455 110.954 3.207-12.027 3.742-3.742 3.341-.802 9.622-3.608 2.405-5.612 5.078-3.341 4.143 1.336 1.604 2.406-.936 3.207-2.272 1.336-6.414-1.737-.936-3.341" style="fill:none;stroke:#000;stroke-width:.26458332px;stroke-linecap:butt;stroke-linejoin:miter;stroke-opacity:1" transform="translate(-75.809 -36.459)"/><path d="m169.367 90.775 2.138 3.074 5.746 4.544-2.138 2.94-4.143 2.138-6.414 1.336-4.945-.4L154 102l-1.337-3.074" style="fill:none;stroke:#000;stroke-width:.26458332px;stroke-linecap:butt;stroke-linejoin:miter;stroke-opacity:1" transform="translate(-75.809 -36.459)"/><path d="m149.455 110.954 2.138 3.207 6.682 2.807 6.147.668 7.617-2.005 4.678-2.138 3.207-3.073 2.004-3.608 3.609-.936 1.336-4.544-4.276-15.768M177.251 98.393l2.673 12.027" style="fill:none;stroke:#000;stroke-width:.26458332px;stroke-linecap:butt;stroke-linejoin:miter;stroke-opacity:1" transform="translate(-75.809 -36.459)"/><path d="m177.251 98.393 2.138-8.286 2.54 16.705M181.661 88.77l3.876 17.106M172.975 88.37l-1.47 5.479M153.999 102l-2.406 12.161M164.556 104.807l-.134 12.829M170.97 103.47l1.07 12.161" style="fill:none;stroke:#000;stroke-width:.26458332px;stroke-linecap:butt;stroke-linejoin:miter;stroke-opacity:1" transform="translate(-75.809 -36.459)"/><path d="m149.455 110.954 9.221 34.077 9.22 6.28 6.816-8.418 5.746-1.604 3.876-10.022 1.737-19.377.802-10.558" style="fill:none;stroke:#000;stroke-width:.26458332;stroke-linecap:butt;stroke-linejoin:miter;stroke-miterlimit:4;stroke-dasharray:.26458332,.52916663;stroke-dashoffset:0;stroke-opacity:1" transform="translate(-75.809 -36.459)"/><path d="M250.362 303.756c-.33.284-1.323 2.315-1.323 2.315l2.693-.094-.236 1.984 4.725.52 1.18 1.937 2.552 1.087 2.41-.52 4.772-4.063-.284-1.748 3.213-3.024-2.22-1.748-8.033 4.205z" style="fill:none;stroke:#000;stroke-width:.26458332px;stroke-linecap:butt;stroke-linejoin:miter;stroke-opacity:1" transform="translate(-195.908 -246.115)"/><path d="m249.04 306.071.01 1.077 2.439-.083M251.496 307.961l-.024 1.175 4.444.601 1.052 1.871 2.806 1.337 2.573-.735 4.994-3.792-.206-1.496M270.064 302.15l-.117 1.991-2.812 2.78M256.22 308.481l-.304 1.256M259.953 311.505l-.179 1.44M262.363 310.985l-.016 1.225" style="fill:none;stroke:#000;stroke-width:.26458332px;stroke-linecap:butt;stroke-linejoin:miter;stroke-opacity:1" transform="translate(-195.908 -246.115)"/><path d="m233.731 305.174 4.441 2.41 6.284-.142.803 1.323-1.795 1.89-4.678.33-2.976 1.654-4.394-1.701.189-1.748-1.37-1.843 3.213-2.315z" style="fill:none;stroke:#000;stroke-width:.26458332px;stroke-linecap:butt;stroke-linejoin:miter;stroke-opacity:1" transform="translate(-81.398 -216.688)"/><path d="m230.235 307.347.023 1.472 1.136 1.169M231.416 310.938l-.123.92 4.076 1.638 3.475-1.737 4.443-.067 1.938-2.005.034-.922M243.464 310.654l-.177 1.038M238.786 310.985l.058.774M235.81 312.639l-.44.857" style="fill:none;stroke:#000;stroke-width:.26458332px;stroke-linecap:butt;stroke-linejoin:miter;stroke-opacity:1" transform="translate(-81.398 -216.688)"/><path d="m254.803 286.747-.897 1.985 2.74 1.323 2.551-1.134-1.087-2.032z" style="fill:none;stroke:#000;stroke-width:.26458332px;stroke-linecap:butt;stroke-linejoin:miter;stroke-opacity:1" transform="translate(-181.497 -246.197)"/><path d="m253.905 288.732.14 1.445 2.405 1.135 2.773-1.27-.026-1.121M256.646 290.055l-.196 1.257" style="fill:none;stroke:#000;stroke-width:.26458332px;stroke-linecap:butt;stroke-linejoin:miter;stroke-opacity:1" transform="translate(-181.497 -246.197)"/><path d="m261.701 293.173-1.512 2.362 2.504-.33 1.37 1.134 1.182-2.08-1.418-1.842z" style="fill:none;stroke:#000;stroke-width:.26458332px;stroke-linecap:butt;stroke-linejoin:miter;stroke-opacity:1" transform="translate(-211.967 -230.412)"/><path d="m260.19 295.535.002 1.156 2.406-.568 1.704 1.537-.238-1.321M265.245 294.26l.125 1.563-1.068 1.837M262.693 295.205l-.095.918" style="fill:none;stroke:#000;stroke-width:.26458332px;stroke-linecap:butt;stroke-linejoin:miter;stroke-opacity:1" transform="translate(-211.967 -230.412)"/><g style="fill:url(#b);fill-opacity:1" transform="translate(-99.067 -295.944)"><g style="fill:url(#c);fill-opacity:1" transform="translate(-96.384 127.756)"><path d="m225.069 231.716-2.74 1.512 2.267.567 1.796-1.323 3.685-.094 5.48-3.119 1.796-2.93 1.228-.472-.283-1.134-1.512-.85-2.835 1.134-2.173-.661-5.008 3.023-1.701 2.268z" style="fill:url(#d);fill-opacity:1;stroke:#000;stroke-width:.26458332px;stroke-linecap:butt;stroke-linejoin:miter;stroke-opacity:1"/><path d="m222.328 233.228-.06 1.398 1.938.969 2.639-2.038 3.408-.2 5.378-3.04 1.805-2.94 1.102-.569.043-.95" style="fill:url(#e);fill-opacity:1;stroke:#000;stroke-width:.26458332px;stroke-linecap:butt;stroke-linejoin:miter;stroke-opacity:1"/><path d="m235.558 229.26.073 1.056" style="fill:url(#f);fill-opacity:1;stroke:#000;stroke-width:.26458332px;stroke-linecap:butt;stroke-linejoin:miter;stroke-opacity:1"/><path d="m237.353 226.33.083 1.046" style="fill:url(#g);fill-opacity:1;stroke:#000;stroke-width:.26458332px;stroke-linecap:butt;stroke-linejoin:miter;stroke-opacity:1"/></g><path d="m130.008 360.228.453 1.085" style="fill:url(#h);fill-opacity:1;stroke:#000;stroke-width:.26458332px;stroke-linecap:butt;stroke-linejoin:miter;stroke-opacity:1"/><path d="m128.212 361.55-.39 1.8" style="fill:url(#i);fill-opacity:1;stroke:#000;stroke-width:.26458332px;stroke-linecap:butt;stroke-linejoin:miter;stroke-opacity:1"/><path d="m133.693 360.133.176.98" style="fill:url(#j);fill-opacity:1;stroke:#000;stroke-width:.26458332px;stroke-linecap:butt;stroke-linejoin:miter;stroke-opacity:1"/></g><g style="fill:#fff;fill-opacity:1;stroke-width:12.0270853;stroke-miterlimit:4;stroke-dasharray:none"><path d="M653.143-17.476 618.747-5.381l-4.158 5.292 23.057 3.024 17.387 6.425 8.315 12.473-7.56 32.128-1.89 29.104-4.913 40.444 3.78 17.009 7.181-12.851 7.938 41.577 23.812 28.348-2.645 4.158-23.435 4.158 10.205 1.89-7.937 9.827 18.899-6.804-1.89 7.56 10.961-6.048 10.206-10.961 8.315 4.914 4.914 5.291-4.536 5.292-18.52 2.268 9.07 1.512-12.85 6.803 18.142-3.78-4.158 13.23 20.411-12.473 3.402-10.206 12.851-8.693-1.89-15.875 18.521 1.89 27.97-15.12 24.19-17.386-36.663 6.425-16.63-3.401 1.511-65.768-10.583-44.224-27.97-38.931-24.19-27.592-21.168-10.206h-13.985z" style="fill:#fff;fill-opacity:1;stroke:#000;stroke-width:12.0270853;stroke-linecap:butt;stroke-linejoin:miter;stroke-miterlimit:4;stroke-dasharray:none;stroke-opacity:1" transform="translate(36.257 45.097) scale(.01247)"/><path d="m630.842-9.539 20.411 6.426-13.607 6.048M654.655 73.994l5.291 53.673M663.348 21.833l52.16 18.143 13.608 23.057.756 66.902" style="fill:#fff;fill-opacity:1;stroke:#000;stroke-width:12.0270853;stroke-linecap:butt;stroke-linejoin:miter;stroke-miterlimit:4;stroke-dasharray:none;stroke-opacity:1" transform="translate(36.257 45.097) scale(.01247)"/><path d="m720.8 63.41-7.18 23.057 3.779 22.3 28.348 53.673 8.693-24.946-1.133-32.128-15.12-44.98M691.696 197.592l14.364 3.78M719.289 211.577l10.961 2.646M738.943 149.967c0 .473-2.362 22.017-2.362 22.017l4.63 17.67M662.16-5.883l3.742-2.873 3.475.735 1.804 1.737-2.606 2.806-3.408.468z" style="fill:#fff;fill-opacity:1;stroke:#000;stroke-width:12.0270853;stroke-linecap:butt;stroke-linejoin:miter;stroke-miterlimit:4;stroke-dasharray:none;stroke-opacity:1" transform="translate(36.257 45.097) scale(.01247)"/><path d="m665.768-7.02-.668 1.27 1.804.468 1.337-1.136-1.67-.802z" style="fill:#fff;fill-opacity:1;stroke:#000;stroke-width:12.0270853;stroke-linecap:butt;stroke-linejoin:miter;stroke-miterlimit:4;stroke-dasharray:none;stroke-opacity:1" transform="translate(36.257 45.097) scale(.01247)"/></g><g style="fill:#fff;fill-opacity:1;stroke-width:12.0270853;stroke-miterlimit:4;stroke-dasharray:none"><path d="M653.143-17.476 618.747-5.381l-4.158 5.292 23.057 3.024 17.387 6.425 8.315 12.473-7.56 32.128-1.89 29.104-4.913 40.444 3.78 17.009 7.181-12.851 7.938 41.577 23.812 28.348-2.645 4.158-23.435 4.158 10.205 1.89-7.937 9.827 18.899-6.804-1.89 7.56 10.961-6.048 10.206-10.961 8.315 4.914 4.914 5.291-4.536 5.292-18.52 2.268 9.07 1.512-12.85 6.803 18.142-3.78-4.158 13.23 20.411-12.473 3.402-10.206 12.851-8.693-1.89-15.875 18.521 1.89 27.97-15.12 24.19-17.386-36.663 6.425-16.63-3.401 1.511-65.768-10.583-44.224-27.97-38.931-24.19-27.592-21.168-10.206h-13.985z" style="fill:#fff;fill-opacity:1;stroke:#000;stroke-width:12.0270853;stroke-linecap:butt;stroke-linejoin:miter;stroke-miterlimit:4;stroke-dasharray:none;stroke-opacity:1" transform="matrix(-.01247 0 0 .01247 35.323 31.961)"/><path d="m630.842-9.539 20.411 6.426-13.607 6.048M654.655 73.994l5.291 53.673M663.348 21.833l52.16 18.143 13.608 23.057.756 66.902" style="fill:#fff;fill-opacity:1;stroke:#000;stroke-width:12.0270853;stroke-linecap:butt;stroke-linejoin:miter;stroke-miterlimit:4;stroke-dasharray:none;stroke-opacity:1" transform="matrix(-.01247 0 0 .01247 35.323 31.961)"/><path d="m720.8 63.41-7.18 23.057 3.779 22.3 28.348 53.673 8.693-24.946-1.133-32.128-15.12-44.98M691.696 197.592l14.364 3.78M719.289 211.577l10.961 2.646M738.943 149.967c0 .473-2.362 22.017-2.362 22.017l4.63 17.67M662.16-5.883l3.742-2.873 3.475.735 1.804 1.737-2.606 2.806-3.408.468z" style="fill:#fff;fill-opacity:1;stroke:#000;stroke-width:12.0270853;stroke-linecap:butt;stroke-linejoin:miter;stroke-miterlimit:4;stroke-dasharray:none;stroke-opacity:1" transform="matrix(-.01247 0 0 .01247 35.323 31.961)"/><path d="m665.768-7.02-.668 1.27 1.804.468 1.337-1.136-1.67-.802z" style="fill:#fff;fill-opacity:1;stroke:#000;stroke-width:12.0270853;stroke-linecap:butt;stroke-linejoin:miter;stroke-miterlimit:4;stroke-dasharray:none;stroke-opacity:1" transform="matrix(-.01247 0 0 .01247 35.323 31.961)"/></g><g style="fill:#fff;fill-opacity:1;stroke-width:12.0270853;stroke-miterlimit:4;stroke-dasharray:none"><path d="M653.143-17.476 618.747-5.381l-4.158 5.292 23.057 3.024 17.387 6.425 8.315 12.473-7.56 32.128-1.89 29.104-4.913 40.444 3.78 17.009 7.181-12.851 7.938 41.577 23.812 28.348-2.645 4.158-23.435 4.158 10.205 1.89-7.937 9.827 18.899-6.804-1.89 7.56 10.961-6.048 10.206-10.961 8.315 4.914 4.914 5.291-4.536 5.292-18.52 2.268 9.07 1.512-12.85 6.803 18.142-3.78-4.158 13.23 20.411-12.473 3.402-10.206 12.851-8.693-1.89-15.875 18.521 1.89 27.97-15.12 24.19-17.386-36.663 6.425-16.63-3.401 1.511-65.768-10.583-44.224-27.97-38.931-24.19-27.592-21.168-10.206h-13.985z" style="fill:#fff;fill-opacity:1;stroke:#000;stroke-width:12.0270853;stroke-linecap:butt;stroke-linejoin:miter;stroke-miterlimit:4;stroke-dasharray:none;stroke-opacity:1" transform="matrix(-.01247 0 0 .01247 19.706 36.112)"/><path d="m630.842-9.539 20.411 6.426-13.607 6.048M654.655 73.994l5.291 53.673M663.348 21.833l52.16 18.143 13.608 23.057.756 66.902" style="fill:#fff;fill-opacity:1;stroke:#000;stroke-width:12.0270853;stroke-linecap:butt;stroke-linejoin:miter;stroke-miterlimit:4;stroke-dasharray:none;stroke-opacity:1" transform="matrix(-.01247 0 0 .01247 19.706 36.112)"/><path d="m720.8 63.41-7.18 23.057 3.779 22.3 28.348 53.673 8.693-24.946-1.133-32.128-15.12-44.98M691.696 197.592l14.364 3.78M719.289 211.577l10.961 2.646M738.943 149.967c0 .473-2.362 22.017-2.362 22.017l4.63 17.67M662.16-5.883l3.742-2.873 3.475.735 1.804 1.737-2.606 2.806-3.408.468z" style="fill:#fff;fill-opacity:1;stroke:#000;stroke-width:12.0270853;stroke-linecap:butt;stroke-linejoin:miter;stroke-miterlimit:4;stroke-dasharray:none;stroke-opacity:1" transform="matrix(-.01247 0 0 .01247 19.706 36.112)"/><path d="m665.768-7.02-.668 1.27 1.804.468 1.337-1.136-1.67-.802z" style="fill:#fff;fill-opacity:1;stroke:#000;stroke-width:12.0270853;stroke-linecap:butt;stroke-linejoin:miter;stroke-miterlimit:4;stroke-dasharray:none;stroke-opacity:1" transform="matrix(-.01247 0 0 .01247 19.706 36.112)"/></g><g style="fill:#fff;fill-opacity:1;stroke-width:12.0270853;stroke-miterlimit:4;stroke-dasharray:none"><path d="M653.143-17.476 618.747-5.381l-4.158 5.292 23.057 3.024 17.387 6.425 8.315 12.473-7.56 32.128-1.89 29.104-4.913 40.444 3.78 17.009 7.181-12.851 7.938 41.577 23.812 28.348-2.645 4.158-23.435 4.158 10.205 1.89-7.937 9.827 18.899-6.804-1.89 7.56 10.961-6.048 10.206-10.961 8.315 4.914 4.914 5.291-4.536 5.292-18.52 2.268 9.07 1.512-12.85 6.803 18.142-3.78-4.158 13.23 20.411-12.473 3.402-10.206 12.851-8.693-1.89-15.875 18.521 1.89 27.97-15.12 24.19-17.386-36.663 6.425-16.63-3.401 1.511-65.768-10.583-44.224-27.97-38.931-24.19-27.592-21.168-10.206h-13.985z" style="fill:#fff;fill-opacity:1;stroke:#000;stroke-width:12.0270853;stroke-linecap:butt;stroke-linejoin:miter;stroke-miterlimit:4;stroke-dasharray:none;stroke-opacity:1" transform="translate(106.984 80.938) scale(.01247)"/><path d="m630.842-9.539 20.411 6.426-13.607 6.048M654.655 73.994l5.291 53.673M663.348 21.833l52.16 18.143 13.608 23.057.756 66.902" style="fill:#fff;fill-opacity:1;stroke:#000;stroke-width:12.0270853;stroke-linecap:butt;stroke-linejoin:miter;stroke-miterlimit:4;stroke-dasharray:none;stroke-opacity:1" transform="translate(106.984 80.938) scale(.01247)"/><path d="m720.8 63.41-7.18 23.057 3.779 22.3 28.348 53.673 8.693-24.946-1.133-32.128-15.12-44.98M691.696 197.592l14.364 3.78M719.289 211.577l10.961 2.646M738.943 149.967c0 .473-2.362 22.017-2.362 22.017l4.63 17.67M662.16-5.883l3.742-2.873 3.475.735 1.804 1.737-2.606 2.806-3.408.468z" style="fill:#fff;fill-opacity:1;stroke:#000;stroke-width:12.0270853;stroke-linecap:butt;stroke-linejoin:miter;stroke-miterlimit:4;stroke-dasharray:none;stroke-opacity:1" transform="translate(106.984 80.938) scale(.01247)"/><path d="m665.768-7.02-.668 1.27 1.804.468 1.337-1.136-1.67-.802z" style="fill:#fff;fill-opacity:1;stroke:#000;stroke-width:12.0270853;stroke-linecap:butt;stroke-linejoin:miter;stroke-miterlimit:4;stroke-dasharray:none;stroke-opacity:1" transform="translate(106.984 80.938) scale(.01247)"/></g><g style="fill:#fff;fill-opacity:1;stroke-width:12.0270853;stroke-miterlimit:4;stroke-dasharray:none"><path d="M653.143-17.476 618.747-5.381l-4.158 5.292 23.057 3.024 17.387 6.425 8.315 12.473-7.56 32.128-1.89 29.104-4.913 40.444 3.78 17.009 7.181-12.851 7.938 41.577 23.812 28.348-2.645 4.158-23.435 4.158 10.205 1.89-7.937 9.827 18.899-6.804-1.89 7.56 10.961-6.048 10.206-10.961 8.315 4.914 4.914 5.291-4.536 5.292-18.52 2.268 9.07 1.512-12.85 6.803 18.142-3.78-4.158 13.23 20.411-12.473 3.402-10.206 12.851-8.693-1.89-15.875 18.521 1.89 27.97-15.12 24.19-17.386-36.663 6.425-16.63-3.401 1.511-65.768-10.583-44.224-27.97-38.931-24.19-27.592-21.168-10.206h-13.985z" style="fill:#fff;fill-opacity:1;stroke:#000;stroke-width:12.0270853;stroke-linecap:butt;stroke-linejoin:miter;stroke-miterlimit:4;stroke-dasharray:none;stroke-opacity:1" transform="translate(70.372 60.147) scale(.01247)"/><path d="m630.842-9.539 20.411 6.426-13.607 6.048M654.655 73.994l5.291 53.673M663.348 21.833l52.16 18.143 13.608 23.057.756 66.902" style="fill:#fff;fill-opacity:1;stroke:#000;stroke-width:12.0270853;stroke-linecap:butt;stroke-linejoin:miter;stroke-miterlimit:4;stroke-dasharray:none;stroke-opacity:1" transform="translate(70.372 60.147) scale(.01247)"/><path d="m720.8 63.41-7.18 23.057 3.779 22.3 28.348 53.673 8.693-24.946-1.133-32.128-15.12-44.98M691.696 197.592l14.364 3.78M719.289 211.577l10.961 2.646M738.943 149.967c0 .473-2.362 22.017-2.362 22.017l4.63 17.67M662.16-5.883l3.742-2.873 3.475.735 1.804 1.737-2.606 2.806-3.408.468z" style="fill:#fff;fill-opacity:1;stroke:#000;stroke-width:12.0270853;stroke-linecap:butt;stroke-linejoin:miter;stroke-miterlimit:4;stroke-dasharray:none;stroke-opacity:1" transform="translate(70.372 60.147) scale(.01247)"/><path d="m665.768-7.02-.668 1.27 1.804.468 1.337-1.136-1.67-.802z" style="fill:#fff;fill-opacity:1;stroke:#000;stroke-width:12.0270853;stroke-linecap:butt;stroke-linejoin:miter;stroke-miterlimit:4;stroke-dasharray:none;stroke-opacity:1" transform="translate(70.372 60.147) scale(.01247)"/></g><g style="fill:#fff;fill-opacity:1;stroke-width:12.0270853;stroke-miterlimit:4;stroke-dasharray:none"><path d="M653.143-17.476 618.747-5.381l-4.158 5.292 23.057 3.024 17.387 6.425 8.315 12.473-7.56 32.128-1.89 29.104-4.913 40.444 3.78 17.009 7.181-12.851 7.938 41.577 23.812 28.348-2.645 4.158-23.435 4.158 10.205 1.89-7.937 9.827 18.899-6.804-1.89 7.56 10.961-6.048 10.206-10.961 8.315 4.914 4.914 5.291-4.536 5.292-18.52 2.268 9.07 1.512-12.85 6.803 18.142-3.78-4.158 13.23 20.411-12.473 3.402-10.206 12.851-8.693-1.89-15.875 18.521 1.89 27.97-15.12 24.19-17.386-36.663 6.425-16.63-3.401 1.511-65.768-10.583-44.224-27.97-38.931-24.19-27.592-21.168-10.206h-13.985z" style="fill:#fff;fill-opacity:1;stroke:#000;stroke-width:12.0270853;stroke-linecap:butt;stroke-linejoin:miter;stroke-miterlimit:4;stroke-dasharray:none;stroke-opacity:1" transform="matrix(-.01247 0 0 .01247 66.31 49.563)"/><path d="m630.842-9.539 20.411 6.426-13.607 6.048M654.655 73.994l5.291 53.673M663.348 21.833l52.16 18.143 13.608 23.057.756 66.902" style="fill:#fff;fill-opacity:1;stroke:#000;stroke-width:12.0270853;stroke-linecap:butt;stroke-linejoin:miter;stroke-miterlimit:4;stroke-dasharray:none;stroke-opacity:1" transform="matrix(-.01247 0 0 .01247 66.31 49.563)"/><path d="m720.8 63.41-7.18 23.057 3.779 22.3 28.348 53.673 8.693-24.946-1.133-32.128-15.12-44.98M691.696 197.592l14.364 3.78M719.289 211.577l10.961 2.646M738.943 149.967c0 .473-2.362 22.017-2.362 22.017l4.63 17.67M662.16-5.883l3.742-2.873 3.475.735 1.804 1.737-2.606 2.806-3.408.468z" style="fill:#fff;fill-opacity:1;stroke:#000;stroke-width:12.0270853;stroke-linecap:butt;stroke-linejoin:miter;stroke-miterlimit:4;stroke-dasharray:none;stroke-opacity:1" transform="matrix(-.01247 0 0 .01247 66.31 49.563)"/><path d="m665.768-7.02-.668 1.27 1.804.468 1.337-1.136-1.67-.802z" style="fill:#fff;fill-opacity:1;stroke:#000;stroke-width:12.0270853;stroke-linecap:butt;stroke-linejoin:miter;stroke-miterlimit:4;stroke-dasharray:none;stroke-opacity:1" transform="matrix(-.01247 0 0 .01247 66.31 49.563)"/></g><path d="M122.396 82.253c0-1.134-.283-10.956 8.552-10.914 8.048.038 8.356 9.286 8.362 10.961" style="fill:#fff;fill-opacity:1;stroke:#000;stroke-width:.26458332px;stroke-linecap:butt;stroke-linejoin:miter;stroke-opacity:1" transform="translate(-75.809 -36.459)"/><path d="M122.396 82.253c1.04.614 3.024 1.89 8.08 2.032 5.149.236 8.834-1.985 8.834-1.985" style="fill:#fff;fill-opacity:1;stroke:#000;stroke-width:.26458332px;stroke-linecap:butt;stroke-linejoin:miter;stroke-opacity:1" transform="translate(-75.809 -36.459)"/><path d="M133.345 82.643h4.53v1.612h-4.53z" style="opacity:1;fill:#fff;fill-opacity:1;stroke:none;stroke-width:.1;stroke-miterlimit:4;stroke-dasharray:none;stroke-opacity:1" transform="translate(-75.809 -36.459)"/><path d="M133.345 84.155c-.07-1.654.166-4.394 1.524-4.406l2.13 1.048M133.345 84.155l2.13 1.048" style="fill:none;stroke:#000;stroke-width:.26458332px;stroke-linecap:butt;stroke-linejoin:miter;stroke-opacity:1" transform="translate(-75.809 -36.459)"/><path d="M413.14 31.46c-.071-1.654.165-4.394 1.524-4.406" style="fill:none;stroke:#000;stroke-width:.26458332px;stroke-linecap:butt;stroke-linejoin:miter;stroke-opacity:1" transform="translate(-353.473 17.284)"/><path d="M414.664 27.054c1.039.142.92 3.615.92 3.615l-2.444.79" style="fill:none;stroke:#000;stroke-width:.26458332px;stroke-linecap:butt;stroke-linejoin:miter;stroke-opacity:1" transform="translate(-353.473 17.284)"/><path d="m385.939 28.155-8.414-9.212 3.354-1.37 7.562 8.63z" style="fill:#fff;fill-opacity:1;stroke:#000;stroke-width:.26458332px;stroke-linecap:butt;stroke-linejoin:miter;stroke-opacity:1" transform="translate(-351.753 18.102)"/><path d="m377.525 18.943-.021-1.929M385.939 28.155l-.025-2.14M377.504 17.014c1.323 1.843 1.916 2.96 3.756 4.937 1.698 1.646 2.645 2.457 4.654 4.064M378.537 18.589l.008 1.478M379.473 19.875l.117 1.303M380.542 21.178l.05 1.086M381.627 22.347l.034 1.07M382.747 23.366l-.034 1.203M383.732 24.268l-.016 1.403M384.776 25.137l-.008 1.72" style="fill:none;stroke:#000;stroke-width:.26458332px;stroke-linecap:butt;stroke-linejoin:miter;stroke-opacity:1" transform="translate(-351.753 18.102)"/><path d="m377.525 18.943-.021-1.929M385.939 28.155l-.025-2.14M377.504 17.014c1.323 1.843 1.916 2.96 3.756 4.937 1.698 1.646 2.645 2.457 4.654 4.064M378.537 18.589l.008 1.478M379.473 19.875l.117 1.303M380.542 21.178l.05 1.086M381.627 22.347l.034 1.07M382.747 23.366l-.034 1.203M383.732 24.268l-.016 1.403M384.776 25.137l-.008 1.72" style="fill:none;stroke:#000;stroke-width:.26458332px;stroke-linecap:butt;stroke-linejoin:miter;stroke-opacity:1" transform="matrix(.89898 0 0 .94785 -310.264 17.62)"/><g style="stroke-width:.1906738;stroke-miterlimit:4;stroke-dasharray:none"><path d="m381.589 13.699 12.707-10.628-5.066-1.58-11.42 9.957Z" style="fill:#fff;fill-opacity:1;stroke:#000;stroke-width:.1906738;stroke-linecap:butt;stroke-linejoin:miter;stroke-miterlimit:4;stroke-dasharray:none;stroke-opacity:1" transform="matrix(1.10022 0 0 1 -391.27 18.102)"/><g style="stroke-width:.14445384;stroke-miterlimit:4;stroke-dasharray:none"><path d="m377.525 18.943-.021-1.929M385.939 28.155l-.025-2.14M377.504 17.014c1.323 1.843 1.916 2.96 3.756 4.937 1.698 1.646 2.645 2.457 4.654 4.064M378.537 18.589l.008 1.478M379.473 19.875l.117 1.303M380.542 21.178l.05 1.086M381.627 22.347l.034 1.07M382.747 23.366l-.034 1.203M383.732 24.268l-.016 1.403M384.776 25.137l-.008 1.72" style="fill:none;stroke:#000;stroke-width:.14445384;stroke-linecap:butt;stroke-linejoin:miter;stroke-miterlimit:4;stroke-dasharray:none;stroke-opacity:1" transform="matrix(-1.66148 0 0 1.15374 669.789 -.682)"/></g><g style="stroke-width:.15648857;stroke-miterlimit:4;stroke-dasharray:none"><path d="m377.525 18.943-.021-1.929M385.939 28.155l-.025-2.14M377.504 17.014c1.323 1.843 1.916 2.96 3.756 4.937 1.698 1.646 2.645 2.457 4.654 4.064M378.537 18.589l.008 1.478M379.473 19.875l.117 1.303M380.542 21.178l.05 1.086M381.627 22.347l.034 1.07M382.747 23.366l-.034 1.203M383.732 24.268l-.016 1.403M384.776 25.137l-.008 1.72" style="fill:none;stroke:#000;stroke-width:.15648857;stroke-linecap:butt;stroke-linejoin:miter;stroke-miterlimit:4;stroke-dasharray:none;stroke-opacity:1" transform="matrix(-1.49364 0 0 1.09357 600.856 -1.24)"/></g></g><g style="fill:#fff;fill-opacity:1;stroke-width:12.0270853;stroke-miterlimit:4;stroke-dasharray:none"><path d="M653.143-17.476 618.747-5.381l-4.158 5.292 23.057 3.024 17.387 6.425 8.315 12.473-7.56 32.128-1.89 29.104-4.913 40.444 3.78 17.009 7.181-12.851 7.938 41.577 23.812 28.348-2.645 4.158-23.435 4.158 10.205 1.89-7.937 9.827 18.899-6.804-1.89 7.56 10.961-6.048 10.206-10.961 8.315 4.914 4.914 5.291-4.536 5.292-18.52 2.268 9.07 1.512-12.85 6.803 18.142-3.78-4.158 13.23 20.411-12.473 3.402-10.206 12.851-8.693-1.89-15.875 18.521 1.89 27.97-15.12 24.19-17.386-36.663 6.425-16.63-3.401 1.511-65.768-10.583-44.224-27.97-38.931-24.19-27.592-21.168-10.206h-13.985z" style="fill:#fff;fill-opacity:1;stroke:#000;stroke-width:12.0270853;stroke-linecap:butt;stroke-linejoin:miter;stroke-miterlimit:4;stroke-dasharray:none;stroke-opacity:1" transform="translate(41.74 49.023) scale(.01247)"/><path d="m630.842-9.539 20.411 6.426-13.607 6.048M654.655 73.994l5.291 53.673M663.348 21.833l52.16 18.143 13.608 23.057.756 66.902" style="fill:#fff;fill-opacity:1;stroke:#000;stroke-width:12.0270853;stroke-linecap:butt;stroke-linejoin:miter;stroke-miterlimit:4;stroke-dasharray:none;stroke-opacity:1" transform="translate(41.74 49.023) scale(.01247)"/><path d="m720.8 63.41-7.18 23.057 3.779 22.3 28.348 53.673 8.693-24.946-1.133-32.128-15.12-44.98M691.696 197.592l14.364 3.78M719.289 211.577l10.961 2.646M738.943 149.967c0 .473-2.362 22.017-2.362 22.017l4.63 17.67M662.16-5.883l3.742-2.873 3.475.735 1.804 1.737-2.606 2.806-3.408.468z" style="fill:#fff;fill-opacity:1;stroke:#000;stroke-width:12.0270853;stroke-linecap:butt;stroke-linejoin:miter;stroke-miterlimit:4;stroke-dasharray:none;stroke-opacity:1" transform="translate(41.74 49.023) scale(.01247)"/><path d="m665.768-7.02-.668 1.27 1.804.468 1.337-1.136-1.67-.802z" style="fill:#fff;fill-opacity:1;stroke:#000;stroke-width:12.0270853;stroke-linecap:butt;stroke-linejoin:miter;stroke-miterlimit:4;stroke-dasharray:none;stroke-opacity:1" transform="translate(41.74 49.023) scale(.01247)"/></g><g style="fill:#fff;fill-opacity:1;stroke-width:12.0270853;stroke-miterlimit:4;stroke-dasharray:none"><path d="M653.143-17.476 618.747-5.381l-4.158 5.292 23.057 3.024 17.387 6.425 8.315 12.473-7.56 32.128-1.89 29.104-4.913 40.444 3.78 17.009 7.181-12.851 7.938 41.577 23.812 28.348-2.645 4.158-23.435 4.158 10.205 1.89-7.937 9.827 18.899-6.804-1.89 7.56 10.961-6.048 10.206-10.961 8.315 4.914 4.914 5.291-4.536 5.292-18.52 2.268 9.07 1.512-12.85 6.803 18.142-3.78-4.158 13.23 20.411-12.473 3.402-10.206 12.851-8.693-1.89-15.875 18.521 1.89 27.97-15.12 24.19-17.386-36.663 6.425-16.63-3.401 1.511-65.768-10.583-44.224-27.97-38.931-24.19-27.592-21.168-10.206h-13.985z" style="fill:#fff;fill-opacity:1;stroke:#000;stroke-width:12.0270853;stroke-linecap:butt;stroke-linejoin:miter;stroke-miterlimit:4;stroke-dasharray:none;stroke-opacity:1" transform="translate(40.787 61.404) scale(.01247)"/><path d="m630.842-9.539 20.411 6.426-13.607 6.048M654.655 73.994l5.291 53.673M663.348 21.833l52.16 18.143 13.608 23.057.756 66.902" style="fill:#fff;fill-opacity:1;stroke:#000;stroke-width:12.0270853;stroke-linecap:butt;stroke-linejoin:miter;stroke-miterlimit:4;stroke-dasharray:none;stroke-opacity:1" transform="translate(40.787 61.404) scale(.01247)"/><path d="m720.8 63.41-7.18 23.057 3.779 22.3 28.348 53.673 8.693-24.946-1.133-32.128-15.12-44.98M691.696 197.592l14.364 3.78M719.289 211.577l10.961 2.646M738.943 149.967c0 .473-2.362 22.017-2.362 22.017l4.63 17.67M662.16-5.883l3.742-2.873 3.475.735 1.804 1.737-2.606 2.806-3.408.468z" style="fill:#fff;fill-opacity:1;stroke:#000;stroke-width:12.0270853;stroke-linecap:butt;stroke-linejoin:miter;stroke-miterlimit:4;stroke-dasharray:none;stroke-opacity:1" transform="translate(40.787 61.404) scale(.01247)"/><path d="m665.768-7.02-.668 1.27 1.804.468 1.337-1.136-1.67-.802z" style="fill:#fff;fill-opacity:1;stroke:#000;stroke-width:12.0270853;stroke-linecap:butt;stroke-linejoin:miter;stroke-miterlimit:4;stroke-dasharray:none;stroke-opacity:1" transform="translate(40.787 61.404) scale(.01247)"/></g><path d="m124.826 99.455-2.241-3.488c-.992 1.476-.508 2.645-.32 3.094.19.45-.46 1.595-.72 2.067-.26.473-.177.945-.177.945M121.11 101.389l.305.977" style="fill:none;stroke:#000;stroke-width:.26458332px;stroke-linecap:butt;stroke-linejoin:miter;stroke-opacity:1" transform="translate(-75.809 -36.459)"/><path d="M121.362 102.776c.947.017.97-.921.065-.915-.919-.001-.882.855-.065.915z" style="fill:none;stroke:#000;stroke-width:.26458332px;stroke-linecap:butt;stroke-linejoin:miter;stroke-opacity:1" transform="translate(-75.809 -36.459)"/><path d="M121.309 103.004c1.454.026 1.49-1.404.1-1.395-1.413-.002-1.356 1.304-.1 1.395z" style="fill:none;stroke:#000;stroke-width:.1;stroke-linecap:butt;stroke-linejoin:miter;stroke-miterlimit:4;stroke-dasharray:none;stroke-opacity:1" transform="translate(-75.809 -36.459)"/><g style="fill:#fff;fill-opacity:1;stroke-width:12.0270853;stroke-miterlimit:4;stroke-dasharray:none"><path d="M653.143-17.476 618.747-5.381l-4.158 5.292 23.057 3.024 17.387 6.425 8.315 12.473-7.56 32.128-1.89 29.104-4.913 40.444 3.78 17.009 7.181-12.851 7.938 41.577 23.812 28.348-2.645 4.158-23.435 4.158 10.205 1.89-7.937 9.827 18.899-6.804-1.89 7.56 10.961-6.048 10.206-10.961 8.315 4.914 4.914 5.291-4.536 5.292-18.52 2.268 9.07 1.512-12.85 6.803 18.142-3.78-4.158 13.23 20.411-12.473 3.402-10.206 12.851-8.693-1.89-15.875 18.521 1.89 27.97-15.12 24.19-17.386-36.663 6.425-16.63-3.401 1.511-65.768-10.583-44.224-27.97-38.931-24.19-27.592-21.168-10.206h-13.985z" style="fill:#fff;fill-opacity:1;stroke:#000;stroke-width:12.0270853;stroke-linecap:butt;stroke-linejoin:miter;stroke-miterlimit:4;stroke-dasharray:none;stroke-opacity:1" transform="matrix(-.01247 0 0 .01247 114.132 45.343)"/><path d="m630.842-9.539 20.411 6.426-13.607 6.048M654.655 73.994l5.291 53.673M663.348 21.833l52.16 18.143 13.608 23.057.756 66.902" style="fill:#fff;fill-opacity:1;stroke:#000;stroke-width:12.0270853;stroke-linecap:butt;stroke-linejoin:miter;stroke-miterlimit:4;stroke-dasharray:none;stroke-opacity:1" transform="matrix(-.01247 0 0 .01247 114.132 45.343)"/><path d="m720.8 63.41-7.18 23.057 3.779 22.3 28.348 53.673 8.693-24.946-1.133-32.128-15.12-44.98M691.696 197.592l14.364 3.78M719.289 211.577l10.961 2.646M738.943 149.967c0 .473-2.362 22.017-2.362 22.017l4.63 17.67M662.16-5.883l3.742-2.873 3.475.735 1.804 1.737-2.606 2.806-3.408.468z" style="fill:#fff;fill-opacity:1;stroke:#000;stroke-width:12.0270853;stroke-linecap:butt;stroke-linejoin:miter;stroke-miterlimit:4;stroke-dasharray:none;stroke-opacity:1" transform="matrix(-.01247 0 0 .01247 114.132 45.343)"/><path d="m665.768-7.02-.668 1.27 1.804.468 1.337-1.136-1.67-.802z" style="fill:#fff;fill-opacity:1;stroke:#000;stroke-width:12.0270853;stroke-linecap:butt;stroke-linejoin:miter;stroke-miterlimit:4;stroke-dasharray:none;stroke-opacity:1" transform="matrix(-.01247 0 0 .01247 114.132 45.343)"/></g><g style="fill:#fff;fill-opacity:1;stroke-width:12.0270853;stroke-miterlimit:4;stroke-dasharray:none"><path d="M653.143-17.476 618.747-5.381l-4.158 5.292 23.057 3.024 17.387 6.425 8.315 12.473-7.56 32.128-1.89 29.104-4.913 40.444 3.78 17.009 7.181-12.851 7.938 41.577 23.812 28.348-2.645 4.158-23.435 4.158 10.205 1.89-7.937 9.827 18.899-6.804-1.89 7.56 10.961-6.048 10.206-10.961 8.315 4.914 4.914 5.291-4.536 5.292-18.52 2.268 9.07 1.512-12.85 6.803 18.142-3.78-4.158 13.23 20.411-12.473 3.402-10.206 12.851-8.693-1.89-15.875 18.521 1.89 27.97-15.12 24.19-17.386-36.663 6.425-16.63-3.401 1.511-65.768-10.583-44.224-27.97-38.931-24.19-27.592-21.168-10.206h-13.985z" style="fill:#fff;fill-opacity:1;stroke:#000;stroke-width:12.0270853;stroke-linecap:butt;stroke-linejoin:miter;stroke-miterlimit:4;stroke-dasharray:none;stroke-opacity:1" transform="matrix(-.01247 0 0 .01247 97.772 64.539)"/><path d="m630.842-9.539 20.411 6.426-13.607 6.048M654.655 73.994l5.291 53.673M663.348 21.833l52.16 18.143 13.608 23.057.756 66.902" style="fill:#fff;fill-opacity:1;stroke:#000;stroke-width:12.0270853;stroke-linecap:butt;stroke-linejoin:miter;stroke-miterlimit:4;stroke-dasharray:none;stroke-opacity:1" transform="matrix(-.01247 0 0 .01247 97.772 64.539)"/><path d="m720.8 63.41-7.18 23.057 3.779 22.3 28.348 53.673 8.693-24.946-1.133-32.128-15.12-44.98M691.696 197.592l14.364 3.78M719.289 211.577l10.961 2.646M738.943 149.967c0 .473-2.362 22.017-2.362 22.017l4.63 17.67M662.16-5.883l3.742-2.873 3.475.735 1.804 1.737-2.606 2.806-3.408.468z" style="fill:#fff;fill-opacity:1;stroke:#000;stroke-width:12.0270853;stroke-linecap:butt;stroke-linejoin:miter;stroke-miterlimit:4;stroke-dasharray:none;stroke-opacity:1" transform="matrix(-.01247 0 0 .01247 97.772 64.539)"/><path d="m665.768-7.02-.668 1.27 1.804.468 1.337-1.136-1.67-.802z" style="fill:#fff;fill-opacity:1;stroke:#000;stroke-width:12.0270853;stroke-linecap:butt;stroke-linejoin:miter;stroke-miterlimit:4;stroke-dasharray:none;stroke-opacity:1" transform="matrix(-.01247 0 0 .01247 97.772 64.539)"/></g><g style="fill:#fff;fill-opacity:1;stroke-width:12.0270853;stroke-miterlimit:4;stroke-dasharray:none"><path d="M653.143-17.476 618.747-5.381l-4.158 5.292 23.057 3.024 17.387 6.425 8.315 12.473-7.56 32.128-1.89 29.104-4.913 40.444 3.78 17.009 7.181-12.851 7.938 41.577 23.812 28.348-2.645 4.158-23.435 4.158 10.205 1.89-7.937 9.827 18.899-6.804-1.89 7.56 10.961-6.048 10.206-10.961 8.315 4.914 4.914 5.291-4.536 5.292-18.52 2.268 9.07 1.512-12.85 6.803 18.142-3.78-4.158 13.23 20.411-12.473 3.402-10.206 12.851-8.693-1.89-15.875 18.521 1.89 27.97-15.12 24.19-17.386-36.663 6.425-16.63-3.401 1.511-65.768-10.583-44.224-27.97-38.931-24.19-27.592-21.168-10.206h-13.985z" style="fill:#fff;fill-opacity:1;stroke:#000;stroke-width:12.0270853;stroke-linecap:butt;stroke-linejoin:miter;stroke-miterlimit:4;stroke-dasharray:none;stroke-opacity:1" transform="matrix(-.01247 0 0 .01247 73.587 36.338)"/><path d="m630.842-9.539 20.411 6.426-13.607 6.048M654.655 73.994l5.291 53.673M663.348 21.833l52.16 18.143 13.608 23.057.756 66.902" style="fill:#fff;fill-opacity:1;stroke:#000;stroke-width:12.0270853;stroke-linecap:butt;stroke-linejoin:miter;stroke-miterlimit:4;stroke-dasharray:none;stroke-opacity:1" transform="matrix(-.01247 0 0 .01247 73.587 36.338)"/><path d="m720.8 63.41-7.18 23.057 3.779 22.3 28.348 53.673 8.693-24.946-1.133-32.128-15.12-44.98M691.696 197.592l14.364 3.78M719.289 211.577l10.961 2.646M738.943 149.967c0 .473-2.362 22.017-2.362 22.017l4.63 17.67M662.16-5.883l3.742-2.873 3.475.735 1.804 1.737-2.606 2.806-3.408.468z" style="fill:#fff;fill-opacity:1;stroke:#000;stroke-width:12.0270853;stroke-linecap:butt;stroke-linejoin:miter;stroke-miterlimit:4;stroke-dasharray:none;stroke-opacity:1" transform="matrix(-.01247 0 0 .01247 73.587 36.338)"/><path d="m665.768-7.02-.668 1.27 1.804.468 1.337-1.136-1.67-.802z" style="fill:#fff;fill-opacity:1;stroke:#000;stroke-width:12.0270853;stroke-linecap:butt;stroke-linejoin:miter;stroke-miterlimit:4;stroke-dasharray:none;stroke-opacity:1" transform="matrix(-.01247 0 0 .01247 73.587 36.338)"/></g><g style="fill:#fff;fill-opacity:1;stroke-width:12.0270853;stroke-miterlimit:4;stroke-dasharray:none"><path d="M653.143-17.476 618.747-5.381l-4.158 5.292 23.057 3.024 17.387 6.425 8.315 12.473-7.56 32.128-1.89 29.104-4.913 40.444 3.78 17.009 7.181-12.851 7.938 41.577 23.812 28.348-2.645 4.158-23.435 4.158 10.205 1.89-7.937 9.827 18.899-6.804-1.89 7.56 10.961-6.048 10.206-10.961 8.315 4.914 4.914 5.291-4.536 5.292-18.52 2.268 9.07 1.512-12.85 6.803 18.142-3.78-4.158 13.23 20.411-12.473 3.402-10.206 12.851-8.693-1.89-15.875 18.521 1.89 27.97-15.12 24.19-17.386-36.663 6.425-16.63-3.401 1.511-65.768-10.583-44.224-27.97-38.931-24.19-27.592-21.168-10.206h-13.985z" style="fill:#fff;fill-opacity:1;stroke:#000;stroke-width:12.0270853;stroke-linecap:butt;stroke-linejoin:miter;stroke-miterlimit:4;stroke-dasharray:none;stroke-opacity:1" transform="translate(-1.99 29.191) scale(.01247)"/><path d="m630.842-9.539 20.411 6.426-13.607 6.048M654.655 73.994l5.291 53.673M663.348 21.833l52.16 18.143 13.608 23.057.756 66.902" style="fill:#fff;fill-opacity:1;stroke:#000;stroke-width:12.0270853;stroke-linecap:butt;stroke-linejoin:miter;stroke-miterlimit:4;stroke-dasharray:none;stroke-opacity:1" transform="translate(-1.99 29.191) scale(.01247)"/><path d="m720.8 63.41-7.18 23.057 3.779 22.3 28.348 53.673 8.693-24.946-1.133-32.128-15.12-44.98M691.696 197.592l14.364 3.78M719.289 211.577l10.961 2.646M738.943 149.967c0 .473-2.362 22.017-2.362 22.017l4.63 17.67M662.16-5.883l3.742-2.873 3.475.735 1.804 1.737-2.606 2.806-3.408.468z" style="fill:#fff;fill-opacity:1;stroke:#000;stroke-width:12.0270853;stroke-linecap:butt;stroke-linejoin:miter;stroke-miterlimit:4;stroke-dasharray:none;stroke-opacity:1" transform="translate(-1.99 29.191) scale(.01247)"/><path d="m665.768-7.02-.668 1.27 1.804.468 1.337-1.136-1.67-.802z" style="fill:#fff;fill-opacity:1;stroke:#000;stroke-width:12.0270853;stroke-linecap:butt;stroke-linejoin:miter;stroke-miterlimit:4;stroke-dasharray:none;stroke-opacity:1" transform="translate(-1.99 29.191) scale(.01247)"/></g><g style="fill:#fff;fill-opacity:1;stroke-width:12.0270853;stroke-miterlimit:4;stroke-dasharray:none"><path d="M653.143-17.476 618.747-5.381l-4.158 5.292 23.057 3.024 17.387 6.425 8.315 12.473-7.56 32.128-1.89 29.104-4.913 40.444 3.78 17.009 7.181-12.851 7.938 41.577 23.812 28.348-2.645 4.158-23.435 4.158 10.205 1.89-7.937 9.827 18.899-6.804-1.89 7.56 10.961-6.048 10.206-10.961 8.315 4.914 4.914 5.291-4.536 5.292-18.52 2.268 9.07 1.512-12.85 6.803 18.142-3.78-4.158 13.23 20.411-12.473 3.402-10.206 12.851-8.693-1.89-15.875 18.521 1.89 27.97-15.12 24.19-17.386-36.663 6.425-16.63-3.401 1.511-65.768-10.583-44.224-27.97-38.931-24.19-27.592-21.168-10.206h-13.985z" style="fill:#fff;fill-opacity:1;stroke:#000;stroke-width:12.0270853;stroke-linecap:butt;stroke-linejoin:miter;stroke-miterlimit:4;stroke-dasharray:none;stroke-opacity:1" transform="matrix(-.01247 0 0 .01247 67.587 13.652)"/><path d="m630.842-9.539 20.411 6.426-13.607 6.048M654.655 73.994l5.291 53.673M663.348 21.833l52.16 18.143 13.608 23.057.756 66.902" style="fill:#fff;fill-opacity:1;stroke:#000;stroke-width:12.0270853;stroke-linecap:butt;stroke-linejoin:miter;stroke-miterlimit:4;stroke-dasharray:none;stroke-opacity:1" transform="matrix(-.01247 0 0 .01247 67.587 13.652)"/><path d="m720.8 63.41-7.18 23.057 3.779 22.3 28.348 53.673 8.693-24.946-1.133-32.128-15.12-44.98M691.696 197.592l14.364 3.78M719.289 211.577l10.961 2.646M738.943 149.967c0 .473-2.362 22.017-2.362 22.017l4.63 17.67M662.16-5.883l3.742-2.873 3.475.735 1.804 1.737-2.606 2.806-3.408.468z" style="fill:#fff;fill-opacity:1;stroke:#000;stroke-width:12.0270853;stroke-linecap:butt;stroke-linejoin:miter;stroke-miterlimit:4;stroke-dasharray:none;stroke-opacity:1" transform="matrix(-.01247 0 0 .01247 67.587 13.652)"/><path d="m665.768-7.02-.668 1.27 1.804.468 1.337-1.136-1.67-.802z" style="fill:#fff;fill-opacity:1;stroke:#000;stroke-width:12.0270853;stroke-linecap:butt;stroke-linejoin:miter;stroke-miterlimit:4;stroke-dasharray:none;stroke-opacity:1" transform="matrix(-.01247 0 0 .01247 67.587 13.652)"/></g><path d="M413.14 31.46c-.071-1.654.165-4.394 1.524-4.406" style="fill:none;stroke:#000;stroke-width:.26458332px;stroke-linecap:butt;stroke-linejoin:miter;stroke-opacity:1" transform="translate(-240.27 25.688) scale(.72693)"/><path d="M414.664 27.054c1.039.142.92 3.615.92 3.615l-2.444.79" style="fill:none;stroke:#000;stroke-width:.26458332px;stroke-linecap:butt;stroke-linejoin:miter;stroke-opacity:1" transform="translate(-240.27 25.688) scale(.72693)"/><path d="m186.18 115.568-.903.526-1.17 13.976.662.52z" style="fill:#fff;fill-opacity:1;stroke:none;stroke-width:.26458332px;stroke-linecap:butt;stroke-linejoin:miter;stroke-opacity:1" transform="translate(-75.809 -36.459)"/><path d="M-97.727 60.447c-2.396 2.006-10.603 5.369-9.713 8.728 2.647 6.534 11.567 6.575 17.576 5.48 3.495-.727 5.848-1.122 7.465-3.496 1.265 2.526 2.484 4.305 5.386 4.347 3.13.086 6.771-.269 9.355-2.173 4.174-3.443 6.083-6.64 8.032-11.623.284-.756 1.63-5.008 1.607-7.37.094-1.702-.402-4.49-.473-7.182.05-1.884-.105-4.585 2.08-4.82 3.715-.487 6.026-1.534 8.409-4.535-2.021-1.83-6.95-1.215-9.166-.095-1.04.567-1.512 1.796-1.512 1.796s.567-3.402.473-4.536c-.277-2.275-2.875-5.954-5.009-6.52-2.011 1.422-1.562 7.729-.472 9.638.567.945 1.512 2.457 1.417 4.064-.094 1.606 0 3.023-1.134 3.78-1.133.755-4.303 1.6-4.303 1.6l.713.667 4.44 2.646c-14.571 8.34-31.365 11.748-35.17 9.604z" style="fill:none;stroke:#000;stroke-width:.26458332px;stroke-linecap:butt;stroke-linejoin:miter;stroke-opacity:1" transform="translate(211.132 16.687)"/><path d="M-107.44 69.175c3.507 10.068 8.518 9.92 12.493 10.468 4.375.702 8.375.523 12.695-.134 4.77-.843 7.95-2.158 11.225-4.009.535-.334 3.41-2.186 3.41-2.186" style="fill:none;stroke:#000;stroke-width:.26458332px;stroke-linecap:butt;stroke-linejoin:miter;stroke-opacity:1" transform="translate(211.132 16.687)"/><path d="M-82.399 71.16c2.506 3.662 6.99-1.1 4.053-3.107-2.464-1.408-5.223 1.089-4.053 3.106z" style="fill:none;stroke:#000;stroke-width:.26458332px;stroke-linecap:butt;stroke-linejoin:miter;stroke-opacity:1" transform="translate(211.132 16.687)"/><path d="M-79.375 67.746c.682 2.605-.949 3.647-3.195 2.09.147-.46.167-.904.82-1.423.96-.819 1.619-.528 2.375-.667z" style="fill:#000;fill-opacity:1;stroke:#000;stroke-width:.26458332px;stroke-linecap:butt;stroke-linejoin:miter;stroke-opacity:1" transform="translate(211.132 16.687)"/><path d="M-81.104 68.048c.626.826 1.001 1.522-.969 1.063.058-.206.082-.358.292-.65.183-.249.443-.325.677-.413z" style="fill:#fff;fill-opacity:1;stroke:#000;stroke-width:.26458332px;stroke-linecap:butt;stroke-linejoin:miter;stroke-opacity:1" transform="translate(211.132 16.687)"/><g style="fill:#fff;fill-opacity:1"><path d="M-95.061 52.166c.425.283 14.647 8.457 14.647 8.457l3.78-2.268.141-4.772-14.6-8.504-3.92 2.315z" style="fill:#fff;fill-opacity:1;stroke:#000;stroke-width:.26458332px;stroke-linecap:butt;stroke-linejoin:miter;stroke-opacity:1" transform="translate(225.495 13.9)"/><path d="m-95.014 47.394 14.458 8.41.142 4.82M-80.556 55.804l4.063-2.22" style="fill:#fff;fill-opacity:1;stroke:#000;stroke-width:.26458332px;stroke-linecap:butt;stroke-linejoin:miter;stroke-opacity:1" transform="translate(225.495 13.9)"/></g><g style="fill:#fff;fill-opacity:1"><path d="M-95.061 52.166c.425.283 14.647 8.457 14.647 8.457l3.78-2.268.141-4.772-14.6-8.504-3.92 2.315z" style="fill:#fff;fill-opacity:1;stroke:#000;stroke-width:.26458332px;stroke-linecap:butt;stroke-linejoin:miter;stroke-opacity:1" transform="translate(221.101 16.546)"/><path d="m-95.014 47.394 14.458 8.41.142 4.82M-80.556 55.804l4.063-2.22" style="fill:#fff;fill-opacity:1;stroke:#000;stroke-width:.26458332px;stroke-linecap:butt;stroke-linejoin:miter;stroke-opacity:1" transform="translate(221.101 16.546)"/></g><g style="fill:#fff;fill-opacity:1"><path d="M-95.061 52.166c.425.283 14.647 8.457 14.647 8.457l3.78-2.268.141-4.772-14.6-8.504-3.92 2.315z" style="fill:#fff;fill-opacity:1;stroke:#000;stroke-width:.26458332px;stroke-linecap:butt;stroke-linejoin:miter;stroke-opacity:1" transform="translate(216.707 19.144)"/><path d="m-95.014 47.394 14.458 8.41.142 4.82M-80.556 55.804l4.063-2.22" style="fill:#fff;fill-opacity:1;stroke:#000;stroke-width:.26458332px;stroke-linecap:butt;stroke-linejoin:miter;stroke-opacity:1" transform="translate(216.707 19.144)"/></g><g style="fill:#fff;fill-opacity:1"><path d="M-95.061 52.166c.425.283 14.647 8.457 14.647 8.457l3.78-2.268.141-4.772-14.6-8.504-3.92 2.315z" style="fill:#fff;fill-opacity:1;stroke:#000;stroke-width:.26458332px;stroke-linecap:butt;stroke-linejoin:miter;stroke-opacity:1" transform="translate(212.218 21.837)"/><path d="m-95.014 47.394 14.458 8.41.142 4.82M-80.556 55.804l4.063-2.22" style="fill:#fff;fill-opacity:1;stroke:#000;stroke-width:.26458332px;stroke-linecap:butt;stroke-linejoin:miter;stroke-opacity:1" transform="translate(212.218 21.837)"/></g><g style="fill:#fff;fill-opacity:1"><path d="M-95.061 52.166c.425.283 14.647 8.457 14.647 8.457l3.78-2.268.141-4.772-14.6-8.504-3.92 2.315z" style="fill:#fff;fill-opacity:1;stroke:#000;stroke-width:.26458332px;stroke-linecap:butt;stroke-linejoin:miter;stroke-opacity:1" transform="translate(207.706 24.507)"/><path d="m-95.014 47.394 14.458 8.41.142 4.82M-80.556 55.804l4.063-2.22" style="fill:#fff;fill-opacity:1;stroke:#000;stroke-width:.26458332px;stroke-linecap:butt;stroke-linejoin:miter;stroke-opacity:1" transform="translate(207.706 24.507)"/></g><g style="fill:#fff;fill-opacity:1"><path d="M-95.061 52.166c.425.283 14.647 8.457 14.647 8.457l3.78-2.268.141-4.772-14.6-8.504-3.92 2.315z" style="fill:#fff;fill-opacity:1;stroke:#000;stroke-width:.26458332px;stroke-linecap:butt;stroke-linejoin:miter;stroke-opacity:1" transform="translate(220.96 11.726)"/><path d="m-95.014 47.394 14.458 8.41.142 4.82M-80.556 55.804l4.063-2.22" style="fill:#fff;fill-opacity:1;stroke:#000;stroke-width:.26458332px;stroke-linecap:butt;stroke-linejoin:miter;stroke-opacity:1" transform="translate(220.96 11.726)"/></g><g style="fill:#fff;fill-opacity:1"><path d="M-95.061 52.166c.425.283 14.647 8.457 14.647 8.457l3.78-2.268.141-4.772-14.6-8.504-3.92 2.315z" style="fill:#fff;fill-opacity:1;stroke:#000;stroke-width:.26458332px;stroke-linecap:butt;stroke-linejoin:miter;stroke-opacity:1" transform="translate(216.565 14.325)"/><path d="m-95.014 47.394 14.458 8.41.142 4.82M-80.556 55.804l4.063-2.22" style="fill:#fff;fill-opacity:1;stroke:#000;stroke-width:.26458332px;stroke-linecap:butt;stroke-linejoin:miter;stroke-opacity:1" transform="translate(216.565 14.325)"/></g><g style="fill:#fff;fill-opacity:1"><path d="M-95.061 52.166c.425.283 14.647 8.457 14.647 8.457l3.78-2.268.141-4.772-14.6-8.504-3.92 2.315z" style="fill:#fff;fill-opacity:1;stroke:#000;stroke-width:.26458332px;stroke-linecap:butt;stroke-linejoin:miter;stroke-opacity:1" transform="translate(212.076 17.018)"/><path d="m-95.014 47.394 14.458 8.41.142 4.82M-80.556 55.804l4.063-2.22" style="fill:#fff;fill-opacity:1;stroke:#000;stroke-width:.26458332px;stroke-linecap:butt;stroke-linejoin:miter;stroke-opacity:1" transform="translate(212.076 17.018)"/></g><g style="fill:#fff;fill-opacity:1"><path d="M-95.061 52.166c.425.283 14.647 8.457 14.647 8.457l3.78-2.268.141-4.772-14.6-8.504-3.92 2.315z" style="fill:#fff;fill-opacity:1;stroke:#000;stroke-width:.26458332px;stroke-linecap:butt;stroke-linejoin:miter;stroke-opacity:1" transform="translate(175.576 6.389)"/><path d="m-95.014 47.394 14.458 8.41.142 4.82M-80.556 55.804l4.063-2.22" style="fill:#fff;fill-opacity:1;stroke:#000;stroke-width:.26458332px;stroke-linecap:butt;stroke-linejoin:miter;stroke-opacity:1" transform="translate(175.576 6.389)"/></g><path d="M-9.531 101.846h6.84v4.233h-6.84z" style="fill:#fff;fill-opacity:1;stroke:none;stroke-width:.12769616;stroke-miterlimit:4;stroke-dasharray:none" transform="matrix(.86065 0 0 .86065 106.226 -43.255)"/><path d="M-3.337 106.583h.943v1.687h-.943z" style="fill:#fff;fill-opacity:1;stroke:none;stroke-width:.1;stroke-miterlimit:4;stroke-dasharray:none" transform="matrix(.86065 0 0 .86065 106.226 -43.255)"/><path d="m-9.71 106.582.986-10.497.837-.887 2.218 1.034.887 1.528 1.085 12.272z" style="fill:none;stroke:#000;stroke-width:.19999999;stroke-linecap:butt;stroke-linejoin:miter;stroke-miterlimit:4;stroke-dasharray:none;stroke-opacity:1" transform="matrix(.86065 0 0 .86065 106.226 -43.255)"/><path d="m-3.697 110.032 1.478-.936-1.133-11.927-1.085-1.774-9.314-12.667-1.773-.938-1.518.624 1.96.955 9.413 12.863M-8.823 97.514l-7.343-14.687" style="fill:none;stroke:#000;stroke-width:.19999999;stroke-linecap:butt;stroke-linejoin:miter;stroke-miterlimit:4;stroke-dasharray:none;stroke-opacity:1" transform="matrix(.86065 0 0 .86065 106.226 -43.255)"/><path d="m-7.492 97.957-.148-.936.542-.394.838.493.345.837.05.789-.74.197-.444-.443zM-4.782 97.76l1.43-.591M-5.669 96.232l1.414-.54M-15.082 83.37l1.33-.642M-16.702 84.158l1.57.82" style="fill:none;stroke:#000;stroke-width:.19999999;stroke-linecap:butt;stroke-linejoin:miter;stroke-miterlimit:4;stroke-dasharray:none;stroke-opacity:1" transform="matrix(.86065 0 0 .86065 106.226 -43.255)"/><g style="stroke-width:.19173063;stroke-miterlimit:4;stroke-dasharray:none"><path d="M125.603-1.331c-.083.413.059.673-.46.65-.594-.021-1.256-.504-1.852-1.405-.335-.58-.333-1.77.292-1.738.284.024.815.178.815.178l.366-.213.036-.473-.32.154-.507-.366-.036.236s-.496-.319-.862-.2c-1.085.373-.903 2.15-.258 2.948.328.48 1.208 1.246 2.004 1.312 1.024-.034.782-1.083.782-1.083z" style="fill:none;stroke:#000;stroke-width:.19173063;stroke-linecap:butt;stroke-linejoin:miter;stroke-miterlimit:4;stroke-dasharray:none;stroke-opacity:1" transform="matrix(.44888 0 0 .44888 36.348 38.11)"/><path d="m125.603-1.331.383-.28s.184.398.113.563c-.07.165-.85.706-.85.706" style="fill:none;stroke:#000;stroke-width:.19173063;stroke-linecap:butt;stroke-linejoin:miter;stroke-miterlimit:4;stroke-dasharray:none;stroke-opacity:1" transform="matrix(.44888 0 0 .44888 36.348 38.11)"/><path d="M123.466-3.793c-.095 1.177.608 2.119 1.168 2.497.354.206.594.324.938.31M122.976-4.492l.48-.17c.158.02.277-.014.517.118l.3-.165.527.377M124.48-4.178l-.082.532M123.937-4.308l-.056.522" style="fill:none;stroke:#000;stroke-width:.19173063;stroke-linecap:butt;stroke-linejoin:miter;stroke-miterlimit:4;stroke-dasharray:none;stroke-opacity:1" transform="matrix(.44888 0 0 .44888 36.348 38.11)"/></g><path d="m-16.317 92.24-.17-7.944" style="fill:none;stroke:#000;stroke-width:.19999999;stroke-linecap:butt;stroke-linejoin:miter;stroke-miterlimit:4;stroke-dasharray:none;stroke-opacity:1" transform="matrix(.86065 0 0 .86065 106.226 -43.255)"/><g style="stroke-width:.38346124;stroke-miterlimit:4;stroke-dasharray:none"><path d="M122.535-13.295c-1.334-.594-1.077 1.182.236 1.784-1.311-.612-1.701.547.272 1.689" style="fill:none;stroke:#000;stroke-width:.38346124;stroke-linecap:butt;stroke-linejoin:miter;stroke-miterlimit:4;stroke-dasharray:none;stroke-opacity:1" transform="matrix(.44888 0 0 .44888 36.805 33.703)"/><path d="M123.043-9.822c1.334.594 1.042-1.087-.272-1.69 1.312.613 1.738-.641-.236-1.783" style="fill:none;stroke:#000;stroke-width:.38346124;stroke-linecap:butt;stroke-linejoin:miter;stroke-miterlimit:4;stroke-dasharray:none;stroke-opacity:1" transform="matrix(.44888 0 0 .44888 36.805 33.703)"/></g><path d="M156.371 90.241s2.403.612 3.9.752c1.497.14.935.374 1.356 1.17.421.794 2.152.794 2.48.514.327-.281 1.075.467 1.075.467" style="fill:none;stroke:#000;stroke-width:.26458332px;stroke-linecap:butt;stroke-linejoin:miter;stroke-opacity:1" transform="translate(-75.809 -36.459)"/><path d="M160.293 87.926c-.21 1.196-.35 1.898 1.054 2.272 1.403.374 2.572.514 2.198 1.029-.374.514 1.637 1.917 1.637 1.917M170.829 98.651c-1.344-1.812-3.402-2.046-3.308-2.84.093-.796 1.216-1.918-.562-2.292l-1.777-.375" style="fill:none;stroke:#000;stroke-width:.26458332px;stroke-linecap:butt;stroke-linejoin:miter;stroke-opacity:1" transform="translate(-75.809 -36.459)"/><path d="M174.892 96.43c-4.004-.433-4.986.035-5.5-1.18-.515-1.217-.14-1.544-1.45-1.685-1.31-.14-2.76-.42-2.76-.42" style="fill:none;stroke:#000;stroke-width:.26458332px;stroke-linecap:butt;stroke-linejoin:miter;stroke-opacity:1" transform="translate(-75.809 -36.459)"/><g style="stroke-width:.15000001;stroke-miterlimit:4;stroke-dasharray:none"><path d="m89.124 114.308 1.132-.615-.017-1.835-1.115.673M87.542 111.658l1.181-.667 1.516.867M87.53 113.373l1.594.935v-1.777l-1.582-.873z" style="fill:#fff;fill-opacity:1;stroke:#000;stroke-width:.15000001;stroke-linecap:butt;stroke-linejoin:miter;stroke-miterlimit:4;stroke-dasharray:none;stroke-opacity:1" transform="matrix(-1 0 0 1 155.643 -52.933)"/><path d="M88.788 113.652s-.185-.765-.338-.856c-.153-.092-.558-.095-.643.052-.024.25.41.487.569.488.16.002.466-.439.466-.439z" style="fill:none;stroke:#000;stroke-width:.15000001;stroke-linecap:butt;stroke-linejoin:miter;stroke-miterlimit:4;stroke-dasharray:none;stroke-opacity:1" transform="matrix(-1 0 0 1 155.643 -52.933)"/></g><g style="stroke-width:.15000001;stroke-miterlimit:4;stroke-dasharray:none"><path d="m89.124 114.308 1.132-.615-.017-1.835-1.115.673M87.542 111.658l1.181-.667 1.516.867M87.53 113.373l1.594.935v-1.777l-1.582-.873z" style="fill:#fff;fill-opacity:1;stroke:#000;stroke-width:.15000001;stroke-linecap:butt;stroke-linejoin:miter;stroke-miterlimit:4;stroke-dasharray:none;stroke-opacity:1" transform="translate(-25.565 -50.775)"/><path d="M88.788 113.652s-.185-.765-.338-.856c-.153-.092-.558-.095-.643.052-.024.25.41.487.569.488.16.002.466-.439.466-.439z" style="fill:none;stroke:#000;stroke-width:.15000001;stroke-linecap:butt;stroke-linejoin:miter;stroke-miterlimit:4;stroke-dasharray:none;stroke-opacity:1" transform="translate(-25.565 -50.775)"/></g><g style="stroke-width:.15000001;stroke-miterlimit:4;stroke-dasharray:none"><path d="m89.124 114.308 1.132-.615-.017-1.835-1.115.673M87.542 111.658l1.181-.667 1.516.867M87.53 113.373l1.594.935v-1.777l-1.582-.873z" style="fill:#fff;fill-opacity:1;stroke:#000;stroke-width:.15000001;stroke-linecap:butt;stroke-linejoin:miter;stroke-miterlimit:4;stroke-dasharray:none;stroke-opacity:1" transform="translate(-30.042 -53.408)"/><path d="M88.788 113.652s-.185-.765-.338-.856c-.153-.092-.558-.095-.643.052-.024.25.41.487.569.488.16.002.466-.439.466-.439z" style="fill:none;stroke:#000;stroke-width:.15000001;stroke-linecap:butt;stroke-linejoin:miter;stroke-miterlimit:4;stroke-dasharray:none;stroke-opacity:1" transform="translate(-30.042 -53.408)"/></g><path d="M173.678 84.933c-1.68 2.237 3.538 5.181 6.447 2.164M180.125 87.097c.588-.39 1.11-1.957-.228-2.567" style="fill:none;stroke:#000;stroke-width:.26458332px;stroke-linecap:butt;stroke-linejoin:miter;stroke-opacity:1" transform="translate(-75.809 -36.459)"/><g style="stroke-width:.15000001;stroke-miterlimit:4;stroke-dasharray:none"><path d="m89.124 114.308 1.132-.615-.017-1.835-1.115.673M87.542 111.658l1.181-.667 1.516.867M87.53 113.373l1.594.935v-1.777l-1.582-.873z" style="fill:#fff;fill-opacity:1;stroke:#000;stroke-width:.15000001;stroke-linecap:butt;stroke-linejoin:miter;stroke-miterlimit:4;stroke-dasharray:none;stroke-opacity:1" transform="matrix(-1 0 0 1 172.176 -49.586)"/><path d="M88.788 113.652s-.185-.765-.338-.856c-.153-.092-.558-.095-.643.052-.024.25.41.487.569.488.16.002.466-.439.466-.439z" style="fill:none;stroke:#000;stroke-width:.15000001;stroke-linecap:butt;stroke-linejoin:miter;stroke-miterlimit:4;stroke-dasharray:none;stroke-opacity:1" transform="matrix(-1 0 0 1 172.176 -49.586)"/></g><path d="m-47.563 128.208.402 1.54M-48.744 128.875l2.698.2" style="fill:none;stroke:#000;stroke-width:.1;stroke-linecap:butt;stroke-linejoin:miter;stroke-miterlimit:4;stroke-dasharray:none;stroke-opacity:1" transform="translate(106.244 -70.625)"/><path d="m-47.563 128.208.402 1.54M-48.744 128.875l2.698.2" style="fill:none;stroke:#000;stroke-width:.1;stroke-linecap:butt;stroke-linejoin:miter;stroke-miterlimit:4;stroke-dasharray:none;stroke-opacity:1" transform="translate(110.72 -67.992)"/><path d="m-47.563 128.208.402 1.54M-48.744 128.875l2.698.2" style="fill:none;stroke:#000;stroke-width:.1;stroke-linecap:butt;stroke-linejoin:miter;stroke-miterlimit:4;stroke-dasharray:none;stroke-opacity:1" transform="matrix(-1 0 0 1 19.358 -70.15)"/><path d="m-47.563 128.208.402 1.54M-48.744 128.875l2.698.2" style="fill:none;stroke:#000;stroke-width:.1;stroke-linecap:butt;stroke-linejoin:miter;stroke-miterlimit:4;stroke-dasharray:none;stroke-opacity:1" transform="matrix(-1 0 0 1 35.89 -66.803)"/></svg>