<svg xmlns="http://www.w3.org/2000/svg" viewBox="0 0 92 42"><g fill="none" fill-rule="evenodd"><path fill="#53A3D8" stroke="#000" stroke-width=".75" d="M.685 23.606h45.354v17.608H.685z"/><path fill="#53A3D8" d="M30.37 18.503h8.504v5.102H30.37z"/><path stroke="#000" stroke-width=".856" d="M30.37 18.503h8.504v5.102H30.37z"/><path fill="#53A3D8" d="M9.11 18.503h8.504v5.102H9.11z"/><path stroke="#000" stroke-width=".856" d="M9.11 18.503h8.504v5.102H9.11z"/><path fill="#53A3D8" stroke="#000" stroke-width=".75" d="M46.086 23.606H91.44v17.608H46.086z"/><path fill="#53A3D8" d="M75.771 18.503h8.504v5.102h-8.504z"/><path stroke="#000" stroke-width=".856" d="M75.771 18.503h8.504v5.102h-8.504z"/><path fill="#53A3D8" d="M54.511 18.503h8.504v5.102h-8.504z"/><path stroke="#000" stroke-width=".856" d="M54.511 18.503h8.504v5.102h-8.504z"/><path fill="#53A3D8" stroke="#000" stroke-width=".75" d="M23.362 5.998h68.031v17.608H23.362z"/><path fill="#53A3D8" d="M74.307.895h8.504v5.102h-8.504z"/><path stroke="#000" stroke-width=".5" d="M74.307.895h8.504v5.102h-8.504z"/><path fill="#53A3D8" d="M53.047.895h8.504v5.102h-8.504z"/><path stroke="#000" stroke-width=".5" d="M53.047.895h8.504v5.102h-8.504z"/><path fill="#53A3D8" d="M31.787.895h8.504v5.102h-8.504z"/><path stroke="#000" stroke-width=".5" d="M31.787.895h8.504v5.102h-8.504z"/><path fill="#FFF" d="M46.68 14.7c0 .38.04.723.12 1.03.08.307.193.567.34.78.147.213.323.377.53.49.207.113.44.17.7.17.26 0 .493-.057.7-.17.207-.113.383-.277.53-.49.147-.213.26-.473.34-.78.08-.307.12-.65.12-1.03 0-.733-.152-1.308-.455-1.725a1.448 1.448 0 0 0-1.235-.625c-.52 0-.932.208-1.235.625-.303.417-.455.992-.455 1.725Zm4.82 4.83c-.113.053-.26.097-.44.13s-.383.05-.61.05c-.653 0-1.2-.153-1.64-.46-.44-.307-.767-.7-.98-1.18a2.556 2.556 0 0 1-.96-.365 2.703 2.703 0 0 1-.74-.705 3.214 3.214 0 0 1-.475-1.01 4.708 4.708 0 0 1-.165-1.29c0-.527.07-.998.21-1.415.14-.417.337-.768.59-1.055.253-.287.557-.507.91-.66.353-.153.743-.23 1.17-.23.427 0 .817.077 1.17.23.353.153.658.373.915.66.257.287.455.638.595 1.055.14.417.21.888.21 1.415 0 .453-.052.868-.155 1.245a3.35 3.35 0 0 1-.445.995 2.66 2.66 0 0 1-.695.71 2.53 2.53 0 0 1-.905.39c.153.26.365.447.635.56.27.113.565.17.885.17.147 0 .278-.01.395-.03.117-.02.222-.047.315-.08l.21.87Zm.92-6.44h1.15v2.93c0 .407.06.693.18.86.12.167.313.25.58.25.213 0 .402-.053.565-.16.163-.107.338-.28.525-.52v-3.36h1.15V18h-.94l-.09-.72h-.03a2.885 2.885 0 0 1-.695.61 1.66 1.66 0 0 1-.885.23c-.527 0-.91-.168-1.15-.505-.24-.337-.36-.818-.36-1.445v-3.08Zm5.4 3.59c0-.527.23-.933.69-1.22.46-.287 1.193-.487 2.2-.6 0-.127-.017-.248-.05-.365a.904.904 0 0 0-.155-.31.705.705 0 0 0-.27-.21 1.004 1.004 0 0 0-.415-.075c-.247 0-.485.047-.715.14-.23.093-.452.207-.665.34l-.42-.77c.273-.173.578-.323.915-.45.337-.127.702-.19 1.095-.19.62 0 1.08.182 1.38.545.3.363.45.888.45 1.575V18h-.94l-.09-.54h-.03c-.22.187-.455.343-.705.47-.25.127-.522.19-.815.19-.433 0-.785-.132-1.055-.395-.27-.263-.405-.612-.405-1.045Zm1.12-.09c0 .22.065.38.195.48.13.1.298.15.505.15.2 0 .383-.047.55-.14.167-.093.34-.227.52-.4v-1.1a5.25 5.25 0 0 0-.84.16 2.317 2.317 0 0 0-.545.225.81.81 0 0 0-.295.285.683.683 0 0 0-.09.34Zm4.22 2.43.165.045a.726.726 0 0 0 .185.025c.26 0 .468-.078.625-.235.157-.157.275-.358.355-.605l.09-.31-1.93-4.85h1.17l.85 2.41c.073.213.145.438.215.675.07.237.142.472.215.705h.04a265.671 265.671 0 0 1 .37-1.38l.74-2.41h1.11l-1.78 5.13c-.1.28-.21.53-.33.75-.12.22-.258.408-.415.565a1.632 1.632 0 0 1-.54.36 1.848 1.848 0 0 1-.705.125c-.133 0-.25-.008-.35-.025a1.683 1.683 0 0 1-.29-.075l.21-.9ZM12.99 32.52h.93c.447 0 .788-.093 1.025-.28.237-.187.355-.467.355-.84 0-.38-.118-.643-.355-.79-.237-.147-.578-.22-1.025-.22h-.93v2.13ZM15.4 36l-1.41-2.56h-1V36h-1.16v-6.54h2.21c.34 0 .657.033.95.1.293.067.547.175.76.325.213.15.382.348.505.595s.185.553.185.92c0 .5-.118.903-.355 1.21a1.953 1.953 0 0 1-.945.66L16.7 36h-1.3Zm1.9-2.45c0-.4.063-.76.19-1.08.127-.32.295-.59.505-.81.21-.22.452-.39.725-.51.273-.12.553-.18.84-.18.333 0 .627.057.88.17.253.113.465.273.635.48.17.207.298.453.385.74.087.287.13.6.13.94 0 .227-.017.407-.05.54h-3.12c.053.447.208.79.465 1.03s.585.36.985.36c.213 0 .412-.032.595-.095s.365-.152.545-.265l.39.72c-.233.153-.493.28-.78.38-.287.1-.587.15-.9.15-.34 0-.657-.058-.95-.175a2.256 2.256 0 0 1-.77-.505 2.304 2.304 0 0 1-.515-.805 2.973 2.973 0 0 1-.185-1.085Zm3.29-.44c0-.393-.082-.7-.245-.92-.163-.22-.415-.33-.755-.33-.293 0-.55.105-.77.315-.22.21-.357.522-.41.935h2.18Zm1.8.44c0-.4.058-.76.175-1.08.117-.32.272-.59.465-.81.193-.22.415-.39.665-.51.25-.12.508-.18.775-.18.28 0 .517.048.71.145.193.097.387.228.58.395l-.04-.79v-1.78h1.15V36h-.95l-.08-.53h-.04a2.6 2.6 0 0 1-.63.46c-.24.127-.493.19-.76.19-.62 0-1.112-.225-1.475-.675-.363-.45-.545-1.082-.545-1.895Zm1.19-.01c0 .533.095.938.285 1.215.19.277.465.415.825.415.367 0 .71-.183 1.03-.55v-2.29a1.627 1.627 0 0 0-.505-.32 1.426 1.426 0 0 0-.495-.09c-.32 0-.59.14-.81.42-.22.28-.33.68-.33 1.2Zm5.33-3.31a.733.733 0 0 1-.51-.18.603.603 0 0 1-.2-.47c0-.193.067-.352.2-.475a.722.722 0 0 1 .51-.185c.207 0 .377.062.51.185s.2.282.2.475-.067.35-.2.47a.733.733 0 0 1-.51.18Zm-.58.86h1.15V36h-1.15v-4.91ZM31 34.7c.22.173.438.308.655.405.217.097.452.145.705.145.267 0 .463-.055.59-.165a.537.537 0 0 0 .19-.425c0-.1-.03-.188-.09-.265a.865.865 0 0 0-.24-.205c-.1-.06-.213-.115-.34-.165a18.19 18.19 0 0 1-.38-.155c-.16-.06-.323-.13-.49-.21a1.97 1.97 0 0 1-.445-.29 1.463 1.463 0 0 1-.32-.395 1.085 1.085 0 0 1-.125-.535c0-.433.16-.787.48-1.06.32-.273.757-.41 1.31-.41.34 0 .647.06.92.18s.51.257.71.41l-.53.7a2.743 2.743 0 0 0-.525-.305 1.38 1.38 0 0 0-.555-.115c-.247 0-.428.052-.545.155a.494.494 0 0 0-.175.385c0 .1.028.185.085.255.057.07.132.132.225.185.093.053.202.103.325.15s.252.093.385.14c.167.06.333.128.5.205.167.077.318.172.455.285a1.3 1.3 0 0 1 .33.415c.083.163.125.358.125.585a1.374 1.374 0 0 1-.49 1.075c-.16.137-.36.245-.6.325-.24.08-.513.12-.82.12-.34 0-.675-.065-1.005-.195a3.252 3.252 0 0 1-.855-.485l.54-.74ZM50.83 29.46h2.2c.36 0 .692.033.995.1.303.067.565.18.785.34.22.16.393.368.52.625s.19.575.19.955c0 .36-.063.673-.19.94a1.842 1.842 0 0 1-.525.665 2.193 2.193 0 0 1-.79.39 3.707 3.707 0 0 1-.985.125h-1.04V36h-1.16v-6.54Zm2.11 3.21c.96 0 1.44-.397 1.44-1.19 0-.413-.12-.698-.36-.855-.24-.157-.6-.235-1.08-.235h-.95v2.28h.95Zm3.17.88c0-.407.063-.77.19-1.09.127-.32.298-.59.515-.81a2.253 2.253 0 0 1 1.625-.68c.307 0 .602.058.885.175.283.117.532.285.745.505.213.22.385.49.515.81.13.32.195.683.195 1.09 0 .407-.065.77-.195 1.09-.13.32-.302.59-.515.81-.213.22-.462.387-.745.5a2.361 2.361 0 0 1-1.765 0 2.19 2.19 0 0 1-.745-.5 2.392 2.392 0 0 1-.515-.81 2.943 2.943 0 0 1-.19-1.09Zm1.18 0c0 .493.102.888.305 1.185a.97.97 0 0 0 .845.445c.36 0 .643-.148.85-.445.207-.297.31-.692.31-1.185 0-.5-.103-.898-.31-1.195a.981.981 0 0 0-.85-.445.97.97 0 0 0-.845.445c-.203.297-.305.695-.305 1.195Zm4.64 1.15c.22.173.438.308.655.405.217.097.452.145.705.145.267 0 .463-.055.59-.165a.537.537 0 0 0 .19-.425c0-.1-.03-.188-.09-.265a.865.865 0 0 0-.24-.205c-.1-.06-.213-.115-.34-.165a18.19 18.19 0 0 1-.38-.155c-.16-.06-.323-.13-.49-.21a1.97 1.97 0 0 1-.445-.29 1.463 1.463 0 0 1-.32-.395 1.085 1.085 0 0 1-.125-.535c0-.433.16-.787.48-1.06.32-.273.757-.41 1.31-.41.34 0 .647.06.92.18s.51.257.71.41l-.53.7a2.743 2.743 0 0 0-.525-.305 1.38 1.38 0 0 0-.555-.115c-.247 0-.428.052-.545.155a.494.494 0 0 0-.175.385c0 .1.028.185.085.255.057.07.132.132.225.185.093.053.202.103.325.15s.252.093.385.14c.167.06.333.128.5.205.167.077.318.172.455.285a1.3 1.3 0 0 1 .33.415c.083.163.125.358.125.585a1.374 1.374 0 0 1-.49 1.075c-.16.137-.36.245-.6.325-.24.08-.513.12-.82.12-.34 0-.675-.065-1.005-.195a3.252 3.252 0 0 1-.855-.485l.54-.74Zm4.43-2.7h-.7v-.86l.76-.05.14-1.34h.96v1.34h1.25V32h-1.25v2.34c0 .573.23.86.69.86a1.242 1.242 0 0 0 .51-.11l.2.85a3.828 3.828 0 0 1-.455.125c-.17.037-.352.055-.545.055-.287 0-.528-.043-.725-.13a1.23 1.23 0 0 1-.48-.365 1.511 1.511 0 0 1-.27-.56 2.866 2.866 0 0 1-.085-.725V32Zm3.97 4.72c0 .22.112.392.335.515.223.123.532.185.925.185.4 0 .722-.078.965-.235.243-.157.365-.342.365-.555 0-.193-.075-.323-.225-.39-.15-.067-.365-.1-.645-.1h-.67c-.267 0-.49-.023-.67-.07-.253.193-.38.41-.38.65Zm-.96.17c0-.207.06-.398.18-.575.12-.177.293-.335.52-.475v-.04a.997.997 0 0 1-.315-.32.927.927 0 0 1-.125-.5c0-.193.055-.368.165-.525.11-.157.235-.285.375-.385v-.04a1.757 1.757 0 0 1-.445-.525 1.512 1.512 0 0 1-.195-.775c0-.28.053-.53.16-.75.107-.22.248-.405.425-.555.177-.15.382-.263.615-.34a2.356 2.356 0 0 1 1.125-.08c.123.023.235.052.335.085h1.76v.85h-.9c.08.093.147.212.2.355.053.143.08.302.08.475 0 .273-.048.513-.145.72-.097.207-.228.38-.395.52s-.363.247-.59.32c-.227.073-.47.11-.73.11-.107 0-.217-.01-.33-.03a1.64 1.64 0 0 1-.34-.1 1.044 1.044 0 0 0-.175.2.49.49 0 0 0-.065.27c0 .14.058.25.175.33.117.08.325.12.625.12h.87c.593 0 1.042.095 1.345.285.303.19.455.498.455.925 0 .24-.062.467-.185.68a1.68 1.68 0 0 1-.525.55 2.807 2.807 0 0 1-.825.365c-.323.09-.685.135-1.085.135-.293 0-.565-.027-.815-.08a2.13 2.13 0 0 1-.645-.24 1.259 1.259 0 0 1-.425-.4 1.01 1.01 0 0 1-.155-.56Zm2.1-3.17a.81.81 0 0 0 .6-.255c.167-.17.25-.415.25-.735 0-.307-.082-.545-.245-.715a.806.806 0 0 0-.605-.255.83.83 0 0 0-.61.25c-.167.167-.25.407-.25.72 0 .32.083.565.25.735.167.17.37.255.61.255Zm3.43-2.63h.95l.08.87h.04c.173-.32.383-.565.63-.735.247-.17.5-.255.76-.255.233 0 .42.033.56.1l-.2 1a1.541 1.541 0 0 0-.51-.08c-.193 0-.397.075-.61.225-.213.15-.397.412-.55.785v3H74.9v-4.91Zm3.31 2.46c0-.4.063-.76.19-1.08.127-.32.295-.59.505-.81.21-.22.452-.39.725-.51.273-.12.553-.18.84-.18.333 0 .627.057.88.17.253.113.465.273.635.48.17.207.298.453.385.74.087.287.13.6.13.94 0 .227-.017.407-.05.54h-3.12c.053.447.208.79.465 1.03s.585.36.985.36c.213 0 .412-.032.595-.095s.365-.152.545-.265l.39.72c-.233.153-.493.28-.78.38-.287.1-.587.15-.9.15-.34 0-.657-.058-.95-.175a2.256 2.256 0 0 1-.77-.505 2.304 2.304 0 0 1-.515-.805 2.973 2.973 0 0 1-.185-1.085Zm3.29-.44c0-.393-.082-.7-.245-.92-.163-.22-.415-.33-.755-.33-.293 0-.55.105-.77.315-.22.21-.357.522-.41.935h2.18Zm2.15 1.59c.22.173.438.308.655.405.217.097.452.145.705.145.267 0 .463-.055.59-.165a.537.537 0 0 0 .19-.425c0-.1-.03-.188-.09-.265a.865.865 0 0 0-.24-.205c-.1-.06-.213-.115-.34-.165a18.19 18.19 0 0 1-.38-.155c-.16-.06-.323-.13-.49-.21a1.97 1.97 0 0 1-.445-.29 1.463 1.463 0 0 1-.32-.395 1.085 1.085 0 0 1-.125-.535c0-.433.16-.787.48-1.06.32-.273.757-.41 1.31-.41.34 0 .647.06.92.18s.51.257.71.41l-.53.7a2.743 2.743 0 0 0-.525-.305 1.38 1.38 0 0 0-.555-.115c-.247 0-.428.052-.545.155a.494.494 0 0 0-.175.385c0 .1.028.185.085.255.057.07.132.132.225.185.093.053.202.103.325.15s.252.093.385.14c.167.06.333.128.5.205.167.077.318.172.455.285a1.3 1.3 0 0 1 .33.415c.083.163.125.358.125.585a1.374 1.374 0 0 1-.49 1.075c-.16.137-.36.245-.6.325-.24.08-.513.12-.82.12-.34 0-.675-.065-1.005-.195a3.252 3.252 0 0 1-.855-.485l.54-.74Z"/></g></svg>