<svg xmlns="http://www.w3.org/2000/svg" xmlns:xlink="http://www.w3.org/1999/xlink" version="1.1" id="Слой_1" x="0px" y="0px" viewBox="0 0 101 101" enable-background="new 0 0 101 101" xml:space="preserve" class="fill-current">
<defs>
	<filter id="Adobe_OpacityMaskFilter" filterUnits="userSpaceOnUse" x="-9.9" y="-6.4" width="117.8" height="123">
		<feColorMatrix type="matrix" values="1 0 0 0 0  0 1 0 0 0  0 0 1 0 0  0 0 0 1 0"/>
	</filter>
</defs>
<mask maskUnits="userSpaceOnUse" x="-9.9" y="-6.4" width="117.8" height="123" id="mask0_5118_12340_00000145774219006611172260000004247303848673992833_">
	<circle fill="#ED8C00" filter="url(#Adobe_OpacityMaskFilter)" cx="50.5" cy="50.8" r="50"/>
</mask>
<g mask="url(#mask0_5118_12340_00000145774219006611172260000004247303848673992833_)">
	<path fill="none" stroke="#8A0A5E" stroke-width="0.4771" stroke-miterlimit="10" d="M30,20.2c3.7-1,7.6-1.2,11.3-2.5   c4-1.7,7.1-5,11.3-6.2C63,9.5,70.4,1.4,77.5-6c-28,0.5-55.7,1.1-83.7,2.2c0.4,7.5,0.3,15-0.1,22.4c10-1.7,11.5,4,23-1.6   C22.3,17,22.5,23.2,30,20.2z"/>
	<path fill="none" stroke="#8A0A5E" stroke-width="0.4771" stroke-miterlimit="10" d="M29.4,22.8c6.5-2.2,13.6-2.5,19.2-6.9   c4.5-3.2,10.4-3.1,15-5.9c5.6-5,10.7-10.6,16-16C51-5.5,22.5-4.8-6.1-3.7c0.4,8.1,0.2,16.3-0.2,24.5c4.9-1.5,8.8,3.1,13.6,3.2   C18.9,26,17.7,26.5,29.4,22.8z"/>
	<path fill="none" stroke="#8A0A5E" stroke-width="0.4771" stroke-miterlimit="10" d="M29.9,24.6c4.9-1.9,10.3-2.2,15-4.4   c5.9-3.6,12.3-5.5,19-7.2C70.9,7.8,75.3-0.3,82-6C52.5-5.5,23.3-4.9-6.1-3.7c0.4,9,0.2,18-0.3,27c3.6-0.8,6.7,1.8,10,2.8   c4.6,0.7,8.7,3.1,13.1,3.9C21.4,29.2,25.2,25.6,29.9,24.6z"/>
	<path fill="none" stroke="#8A0A5E" stroke-width="0.4771" stroke-miterlimit="10" d="M28.2,26.9c6.1-2.5,12.8-3.1,18.8-5.9   c0.9-0.4,2.7-1.2,3.6-1.6c4.7-2.8,10.2-2.6,15.2-4.3c4.3-1.9,6.2-6.7,8.8-10.3c2.8-4.1,6.3-7.5,9.9-10.8C54.1-5.6,24.1-4.9-6.1-3.7   C-5.6,6.2-5.9,16.1-6.6,26c8.3-0.3,15.5,5.8,23.5,6.6C21.1,31.7,24,28.1,28.2,26.9z"/>
	<path fill="none" stroke="#8A0A5E" stroke-width="0.4771" stroke-miterlimit="10" d="M27.9,28.8c9.4-3.1,18.9-5.6,28.2-9   c6.1-1.5,15.7,0.2,18.8-6.7C75.9,5,80.9-2.4,88.3-6C56.7-5.8,25.4-4.9-6.1-3.7C-5.6,7.1-6,18-6.8,28.8C15,29.7,6.4,43.2,27.9,28.8z   "/>
	<path fill="none" stroke="#8A0A5E" stroke-width="0.4771" stroke-miterlimit="10" d="M95.1-6c6.4,2.3,4.9,11.3,11.5,5.4   c0-1.6,0-3.1,0-4.7C102.9-6.2,98.9-5.7,95.1-6z"/>
	<path fill="none" stroke="#8A0A5E" stroke-width="0.4771" stroke-miterlimit="10" d="M93.9,21.1c-4,10.2-3.7,18.6-16.9,17.5   c-2.6,0.4-8.1-0.1-7.9,3.7c6.8,11.2,2.4,28.7,16.7,8.1c2.4-4.1,6.4-6.3,10.6-8.1c3.6-2.2,6.1-5.8,10.2-7.3   c-0.6-13.3,0-26.7-0.1-40.1C69.1-7.4,31.4-4.4-6.1-3.7c0.5,11.5,0.1,23-0.8,34.5c13.2-0.9,15.1,8.5,21.9,8c4.7-1.4,7.7-6,12.1-8   c13-4.5,26.5-9.5,40.4-8.5c6.3,0.4,16.5-1.2,15.8-9.4c-0.9-2.6-3.2-5.2-2.4-8.1c4.1-12.4,21.8-9.5,10.5,3.2   C87.4,12.6,95.3,16.1,93.9,21.1z"/>
	<path fill="none" stroke="#8A0A5E" stroke-width="0.4771" stroke-miterlimit="10" d="M69.6,71.4c0.3,6.2,5.5,0.9,7.2-1.6   c0,0,0,0,0,0c5.5-6.4,7.2-15.5,13.7-21.1c2.5-2.3,5.9-3.1,8.8-4.7c2.7-1.6,4.7-4.2,7.5-5.5c-0.7-14.5-0.2-29-0.3-43.6   C69.1-7.4,31.4-4.4-6.1-3.7c0.6,12.1,0,24.3-0.9,36.4C8.8,31.3,7.1,49,16.6,41.5c4.6-4.2,8.7-9.4,15.1-10.7   c11.9-3.3,38.7-13.7,28.4,9.7c-0.8,3.2,3.4,4,5.3,5.5c5.2,3.5,3.8,10.3,3.7,15.6C69.2,65,70.8,68.1,69.6,71.4z"/>
	<path fill="none" stroke="#8A0A5E" stroke-width="0.4771" stroke-miterlimit="10" d="M106.5,5.7c0.1-3.7,0.1-7.3,0-11   C69.1-7.4,31.4-4.4-6.1-3.7c0.6,12.8-0.1,25.6-1.1,38.4C0.5,33.9,4.5,40,7.3,46.1C16,53.4,20.7,36.3,28,34   c6.8-2.1,13.7-4.1,20.7-5.7c10.7-1,10.1,6.4,6.2,13.7c-1.6,6.3,4.8,6.4,8.9,8.1c2.2,2.1,2.4,5.3,1.9,8.1c-1.1,6.3-3.8,13.9,0,19.7   c6.1,4.7,13.4-0.4,15.5-6.7c4.7-9.1,6.4-21.9,18.3-24.3c3-1.1,5.2-3.3,7.6-5.2C106.4,29.7,106.3,17.8,106.5,5.7z"/>
	<path fill="none" stroke="#8A0A5E" stroke-width="0.4771" stroke-miterlimit="10" d="M106.5,5.7c0.1-3.7,0.1-7.3,0-11   C69.1-7.4,31.4-4.4-6.1-3.7C-5.5,10-6.3,23.7-7.4,37.4c12.2,0.2,10.2,23.2,26.1,9.7c3.9-4.5,6.4-11.2,13.2-11.7   c3-0.6,6.2-0.2,9.1-1.3c3.7-1.8,12.1-5.2,12.5,1.6c-2.7,7.3-5.2,12.6,2.8,17.6c2.1,1.1,4.5,2.5,4.3,5.2c-1.3,7.1,1.1,14.1-0.5,21.1   c0.4,4.7,11.3,5.2,15,4.1c8.4-2.1,11.1-19.4,15.2-26.9c2.8-7.2,12-5.9,16.9-10.8C106.4,32.5,106.3,19.3,106.5,5.7z"/>
	<path fill="none" stroke="#8A0A5E" stroke-width="0.4771" stroke-miterlimit="10" d="M106.5,5.7c0.1-3.7,0.1-7.3,0-11   C69.1-7.4,31.4-4.4-6.1-3.7c0.8,17.1-0.6,34.2-2.2,51.2C4.1,58,16.5,56.4,28,46.1c0.7,0,1.2,0.7,1.9,0.9c4.1,4.8,10.7,4.1,16,6.4   c7.2,2.8,8,11.8,4.6,17.9c-11.2,4.7-8.3,7.1-1.8,15.2c5.5,5.8,13.8,1.7,20.7,3.6c16.8,5.4,21-3.3,21.2-18.8c0.5-4.9,3.7-9.1,6.5-13   c2.9-2.5,7.1-2.1,10.6-3.4C106.8,38.4,106.1,22.2,106.5,5.7z"/>
	<path fill="none" stroke="#8A0A5E" stroke-width="0.4771" stroke-miterlimit="10" d="M106,90.5c3.3-31.9-0.5-63.8,0.5-95.8   C69.1-7.4,31.4-4.4-6.1-3.7C-5.3,14.6-7,32.9-8.6,51.1c6.7,5.8,16.8,5.3,25.1,4.4c3.8-0.6,7.3-3.5,11.3-2.8   c6.1,3.3,14.1,0.6,19.4,5.6c8.2,13.5-24.9,10.5,1.3,31.6c7.4,6.7,17-0.7,25.1,4.1c11.2,8.6,27.4,0.9,27,20.4c1.6-2.6,3.4-5,5.2-7.4   C105.6,101.5,105.6,96,106,90.5z"/>
	<path fill="none" stroke="#8A0A5E" stroke-width="0.4771" stroke-miterlimit="10" d="M105.6,107c-0.3-19.8,3.1-39.3,1.7-59   c-1.3-17.8-0.7-35.4-0.7-53.2C69.1-7.4,31.4-4.4-6.1-3.7c0.9,19.1-1,38.2-2.7,57.3c5,4.6,11.9,3.9,18.2,4.1c0.9,0,2.8,0,3.8,0   c5,0.6,10.1-1.6,15-0.3c3.6,3.2,17.5,0.5,15,6.2C32.4,74,33.9,80.1,44.9,89.4l0-0.2c15,12.7,11,4.5,24,6.4   c9,7.4,25.5,7.6,28.4,20.7c0.7,0,1.3,0.1,2,0.1C101.2,113.1,103.4,110,105.6,107z"/>
	<path fill="none" stroke="#8A0A5E" stroke-width="0.4771" stroke-miterlimit="10" d="M105.6,107c-0.3-19.8,3.1-39.3,1.7-59   c-1.3-17.8-0.7-35.4-0.7-53.2C69.1-7.4,31.4-4.4-6.1-3.7C-5.2,16.1-7.3,35.9-9,55.7c4.6,3.6,10.7,3.4,16.2,3.1   c36.5,1.7,21.1,7.9,28.3,24c5.5,6.4,12.3,11.6,19.3,16.3c3.1,2.7,7.2,0.1,10.7,1c4.5,3.4,9.9,3.5,15,5.4c4.7,3,10.2,5.7,13.1,10.6   c1.9,0.1,3.8,0.2,5.7,0.3C101.2,113.1,103.4,110,105.6,107z"/>
	<path fill="none" stroke="#8A0A5E" stroke-width="0.4771" stroke-miterlimit="10" d="M53.2-5.4c-19.8,0.3-39.5,1-59.3,1.7   c1,20.5-1.3,40.9-3.1,61.3c8.3,5.8,18.8,0,27.6,4.4c21.2,5.2,4.4,17.1,22.8,28.8c3.8,3.5,8.1,6.4,12,9.8c2.3,2.3,5.5,2.9,8.5,3.8   c4.7,2.6,9.8,3.1,15,3.5c4.5,1.2,7.9,5.1,11.5,7.8c3.7,0.3,7.4,0.5,11.1,0.7c1.9-3.3,4.1-6.3,6.4-9.4c-0.3-19.8,3.1-39.3,1.7-59   c-1.3-17.8-0.7-35.4-0.7-53.2C89-7.1,70.7-5.5,53.2-5.4z"/>
	<path fill="none" stroke="#8A0A5E" stroke-width="0.4771" stroke-miterlimit="10" d="M106.6-5.2C69.1-7.4,31.4-4.4-6.1-3.7   c1,21.2-1.4,42.3-3.3,63.4c6.9,4.8,14.9,1.4,22.4,2.5C27.9,68,27.3,68,30.6,82.9c4,6.3,10.7,10.2,16.3,14.9   c3.4,2.1,5.8,5.8,9.4,7.6c7.5,5.6,17.7,4,24.9,9.8c6,0.4,12.1,0.9,18.1,1.2c1.9-3.3,4.1-6.3,6.4-9.4c-0.3-19.8,3.1-39.3,1.7-59   C106,30.2,106.6,12.6,106.6-5.2z"/>
	<path fill="none" stroke="#8A0A5E" stroke-width="0.4771" stroke-miterlimit="10" d="M106.6-5.2C69.1-7.4,31.4-4.4-6.1-3.7   c1,22.2-1.7,44.2-3.5,66.3c6.4,4.3,13.7,2.6,20.7,1.9C18,67.1,27,71.1,26.6,79.9c1.6,11.3,14.7,15.6,22.1,22.8   c12,15.2,33.3,11.9,50.6,13.7c1.9-3.3,4.1-6.3,6.4-9.4c-0.3-19.8,3.1-39.3,1.7-59C106,30.2,106.6,12.6,106.6-5.2z"/>
</g>
</svg>