<svg xmlns="http://www.w3.org/2000/svg" fill="none" viewBox="0 0 72 72"><path fill="#3377ba" d="M65.36 13.442c1.474 0 2.396 1.202 2.056 2.686l-9.497 41.48c-.338 1.485-1.81 2.687-3.284 2.687H7.318c-1.474 0-2.396-1.202-2.056-2.687l9.498-41.48c.337-1.484 1.809-2.686 3.283-2.686zM43.622 37.698c.651-1.023.59-2.349-.234-3.226l-14.52-15.446c-.986-1.051-2.691-1.057-3.805-.01-1.113 1.045-1.214 2.743-.228 3.792l12.1 12.874v.285L17.678 49.913c-1.168.849-1.384 2.536-.485 3.771.898 1.236 2.572 1.55 3.737.701l21.36-15.337c.726-.511 1.136-.95 1.333-1.35zm-7.257 11.418a2.409 2.409 0 0 0-2.424 2.396c0 1.323 1.084 2.395 2.424 2.395H47.87a2.409 2.409 0 0 0 2.424-2.395 2.409 2.409 0 0 0-2.424-2.396z"/></svg>