<?xml version="1.0" encoding="utf-8"?>
<!-- Generator: Adobe Illustrator 25.0.0, SVG Export Plug-In . SVG Version: 6.00 Build 0)  -->
<svg version="1.1" id="artwork" xmlns="http://www.w3.org/2000/svg" xmlns:xlink="http://www.w3.org/1999/xlink" x="0px" y="0px"
	 width="1080px" height="875.7px" viewBox="0 0 1080 875.7" style="enable-background:new 0 0 1080 875.7;" xml:space="preserve">
<style type="text/css">
	.st0{fill:none;}
	.st1{fill:#E80000;}
	.st2{fill:none;stroke:#EA1E25;stroke-width:28;stroke-miterlimit:10;}
	.st3{fill:url(#SVGID_1_);}
	.st4{fill:url(#SVGID_2_);}
	.st5{fill:url(#SVGID_3_);}
	.st6{fill:#FFFFFF;stroke:#EE0000;stroke-width:3;stroke-linecap:round;stroke-linejoin:round;}
	.st7{clip-path:url(#SVGID_5_);}
	.st8{fill:#FFFFFF;stroke:#EE0000;stroke-width:3;stroke-miterlimit:10;}
	.st9{fill:#EE0000;}
	.st10{clip-path:url(#SVGID_7_);}
	.st11{fill:url(#SVGID_8_);}
	.st12{fill:#EE0000;stroke:#EE0000;stroke-width:3;stroke-miterlimit:10;}
	.st13{fill:#FFFFFF;}
	.st14{fill:none;stroke:#FFFFFF;stroke-width:3;stroke-linecap:round;stroke-linejoin:round;}
	.st15{fill:none;stroke:#EE0000;stroke-width:16.8;stroke-miterlimit:10;}
	.st16{clip-path:url(#SVGID_10_);}
	.st17{fill:none;stroke:#EE0000;stroke-width:3;stroke-miterlimit:10;}
	.st18{fill:none;stroke:#FFFFFF;stroke-width:1.75;stroke-linecap:round;stroke-linejoin:round;}
	.st19{fill:url(#SVGID_11_);}
	.st20{clip-path:url(#SVGID_13_);}
	.st21{fill:none;stroke:#FFFFFF;stroke-width:2.5;stroke-linecap:round;stroke-linejoin:round;}
</style>
<pattern  y="993.7" width="28.8" height="28.8" patternUnits="userSpaceOnUse" id="_10_dpi_20_" viewBox="1.4 -30.2 28.8 28.8" style="overflow:visible;">
	<g>
		<rect x="1.4" y="-30.2" class="st0" width="28.8" height="28.8"/>
		<rect x="1.4" y="-30.2" class="st0" width="28.8" height="28.8"/>
		<path class="st1" d="M30.2-31.7c0.8,0,1.4,0.6,1.4,1.4c0,0.8-0.6,1.4-1.4,1.4c-0.8,0-1.4-0.6-1.4-1.4S29.4-31.7,30.2-31.7
			C30.2-31.7,30.2-31.7,30.2-31.7z"/>
		<path class="st1" d="M15.8-31.7c0.8,0,1.5,0.6,1.5,1.4s-0.6,1.5-1.4,1.5c-0.8,0-1.5-0.6-1.5-1.4c0,0,0,0,0,0
			C14.4-31,15.1-31.7,15.8-31.7z"/>
		<path class="st1" d="M30.2-17.3c0.8,0,1.4,0.6,1.4,1.4c0,0.8-0.6,1.4-1.4,1.4c-0.8,0-1.4-0.6-1.4-1.4S29.4-17.3,30.2-17.3
			C30.2-17.3,30.2-17.3,30.2-17.3z"/>
		<path class="st1" d="M15.8-17.3c0.8,0,1.5,0.6,1.5,1.4s-0.6,1.5-1.4,1.5c-0.8,0-1.5-0.6-1.5-1.4c0,0,0,0,0,0
			C14.4-16.6,15.1-17.3,15.8-17.3z"/>
		<path class="st1" d="M8.6-24.4c0.8,0,1.4,0.6,1.4,1.4c0,0.8-0.6,1.4-1.4,1.4c-0.8,0-1.4-0.6-1.4-1.4c0,0,0,0,0,0
			C7.2-23.8,7.9-24.4,8.6-24.4z"/>
		<path class="st1" d="M23-24.4c0.8,0,1.4,0.6,1.4,1.4c0,0.8-0.6,1.4-1.4,1.4c-0.8,0-1.4-0.6-1.4-1.4S22.2-24.4,23-24.4
			C23-24.4,23-24.4,23-24.4z"/>
		<path class="st1" d="M8.6-10.1c0.8,0,1.4,0.6,1.4,1.4S9.4-7.2,8.6-7.2c-0.8,0-1.4-0.6-1.4-1.4S7.8-10.1,8.6-10.1L8.6-10.1z"/>
		<path class="st1" d="M23-10.1c0.8,0,1.4,0.6,1.4,1.4c0,0.8-0.6,1.4-1.4,1.4c-0.8,0-1.4-0.6-1.4-1.4C21.6-9.4,22.2-10.1,23-10.1
			C23-10.1,23-10.1,23-10.1z"/>
		<path class="st1" d="M1.4-31.7c0.8,0,1.4,0.6,1.4,1.4l0,0c0,0.8-0.6,1.4-1.4,1.4c-0.8,0-1.4-0.6-1.4-1.4C0-31,0.6-31.7,1.4-31.7
			C1.4-31.7,1.4-31.7,1.4-31.7z"/>
		<path class="st1" d="M1.4-17.3c0.8,0,1.4,0.6,1.4,1.4c0,0,0,0,0,0c0,0.8-0.7,1.4-1.4,1.4c-0.8,0-1.4-0.6-1.4-1.4
			C0-16.6,0.6-17.3,1.4-17.3C1.4-17.3,1.4-17.3,1.4-17.3z"/>
		<path class="st1" d="M30.2-2.9c0.8,0,1.4,0.6,1.4,1.4c0,0,0,0,0,0C31.7-0.6,31,0,30.2,0c-0.8,0-1.4-0.6-1.4-1.4
			C28.8-2.2,29.4-2.9,30.2-2.9C30.2-2.9,30.2-2.9,30.2-2.9z"/>
		<path class="st1" d="M15.8-2.9c0.8,0,1.4,0.6,1.4,1.4c0,0,0,0,0,0c0,0.8-0.6,1.4-1.4,1.4c-0.8,0-1.4-0.7-1.4-1.4
			C14.4-2.2,15.1-2.9,15.8-2.9z"/>
		<path class="st1" d="M1.4-2.9c0.8,0,1.4,0.6,1.4,1.4c0,0,0,0,0,0C2.9-0.6,2.2,0,1.4,0C0.6,0,0-0.6,0-1.4c0,0,0,0,0,0
			C0-2.2,0.6-2.9,1.4-2.9C1.4-2.9,1.4-2.9,1.4-2.9z"/>
	</g>
</pattern>
<pattern  y="993.7" width="201.7" height="201.7" patternUnits="userSpaceOnUse" id="New_Pattern_Swatch_7" viewBox="211.8 -413.6 201.7 201.7" style="overflow:visible;">
	<g>
		<rect x="211.8" y="-413.6" class="st0" width="201.7" height="201.7"/>
		<rect x="211.8" y="-413.6" class="st0" width="201.7" height="201.7"/>
		<line class="st2" x1="615.5" y1="-413.4" x2="413.4" y2="-615.5"/>
		<line class="st2" x1="413.7" y1="-413.4" x2="211.6" y2="-615.5"/>
		<line class="st2" x1="212" y1="-413.4" x2="9.9" y2="-615.5"/>
		<line class="st2" x1="615.5" y1="-211.6" x2="413.4" y2="-413.7"/>
		<line class="st2" x1="413.7" y1="-211.6" x2="211.6" y2="-413.7"/>
		<line class="st2" x1="212" y1="-211.6" x2="9.9" y2="-413.7"/>
		<line class="st2" x1="615.5" y1="-9.9" x2="413.4" y2="-212"/>
		<line class="st2" x1="413.7" y1="-9.9" x2="211.6" y2="-212"/>
		<line class="st2" x1="212" y1="-9.9" x2="9.9" y2="-212"/>
	</g>
</pattern>
<pattern  id="SVGID_1_" xlink:href="#_10_dpi_20_" patternTransform="matrix(-0.65 0 0 -0.65 -12758.1533 -14135.2256)">
</pattern>
<path class="st3" d="M384.7,333h-135c0,0,17.1,18,33,46.9h102V333z"/>
<pattern  id="SVGID_2_" xlink:href="#_10_dpi_20_" patternTransform="matrix(-0.65 0 0 -0.65 -12758.1533 -14135.2256)">
</pattern>
<path class="st4" d="M510.2,164.6l-1-0.3h-66.5v68.5H651v147.1h164.5v250.5c0.9,0,1.8,0,2.7,0c30.5,0,58.5,9,80.6,24
	c0.2-0.5,0.3-1,0.5-1.5c5.1-28.5-5.6-61.6-13-88.8c-8.8-32.1-22.9-63.9-25.8-97.2c-3.5-40.5,7.5-81.1,15.3-121.6H750.4
	c-13.5,0-24.5-10.9-24.6-24.5c0-13.5,10.9-24.5,24.5-24.6c2.1,0,4.3,0.3,6.3,0.8c6.4-17.2,24.8-26.9,42.7-22.4
	c3.5-12.3,11.8-23.4,23.5-31.4c12.7-8.4,27.5-12.8,42.7-12.8c3,0,5.9,0.2,8.8,0.5c-0.7-1.9-1.4-3.9-2.2-5.8
	c-31.6-77.3-123.5-79.9-187.2-42.7c-29.9,17.4-56.5,29.6-91.8,23.1C562.5,199.8,534.1,184,510.2,164.6z M713.3,242v-30l1.5-0.9
	l24.5-14.1l1.5-0.9l1.5,0.9l24.5,14.1l1.5,0.9v31.8l-1.5,0.9l-24.5,14.1l-1.5,0.9l-1.5-0.9l-24.5-14.1l-1.5-0.9L713.3,242z"/>
<pattern  id="SVGID_3_" xlink:href="#_10_dpi_20_" patternTransform="matrix(-0.65 0 0 -0.65 -12758.1533 -14135.2256)">
</pattern>
<path class="st5" d="M600.1,754.7c4,0,8,0.5,11.9,1.6c12.2-32.6,47-50.9,80.8-42.5c5.2-18.2,15.9-34.9,30.9-48.6H244.8
	c-6.2,14.1-11.5,28.6-14.8,44.1c-7.2,34.5-3.8,73.9,17.6,103c46.7,63.6,137.7,43.6,200.5,19.9c31.5-11.9,80.3-34.8,109.9-50.7
	C565.7,765.2,582.1,754.7,600.1,754.7z M441,781.5c0,1.1-0.6,2.1-1.5,2.6l-58,33.5c-0.9,0.5-2.1,0.5-3,0l-58.1-33.5
	c-0.9-0.5-1.5-1.5-1.5-2.6v-67c0-1.1,0.6-2.1,1.5-2.6l58-33.5c0.9-0.5,2.1-0.5,3,0l58,33.5c0.9,0.5,1.5,1.5,1.5,2.6L441,781.5z"/>
<path class="st6" d="M946,755c0.9-5.1,1.3-10.3,1.3-15.5c0-60.2-57.9-109.3-129.1-109.3c-29.4,0-58.1,8.6-80.9,24.2
	c-22.1,15.1-37.9,36.2-44.5,59.4c-33.8-8.4-68.5,9.8-80.8,42.5c-24.8-6.5-50.2,8.3-56.8,33.1c-6.5,24.8,8.3,50.2,33.1,56.8
	c3.8,1,7.8,1.5,11.8,1.5h341.5c25.7,0.1,46.5-20.7,46.6-46.3C988.2,777.3,969.9,757.2,946,755z"/>
<g>
	<defs>
		<path id="SVGID_4_" d="M899.3,652.7C846.1,827.7,558,781.6,558,781.6c-29.6,15.9-78.4,38.8-109.9,50.7
			C385.3,856,294.3,876,247.6,812.4c-21.4-29.1-24.8-68.6-17.6-103c8.9-42.6,32.9-77.5,50.9-116.3c16.3-35.1,26.9-73.1,28.4-111.9
			c3.3-81.8-59.6-148.1-59.6-148.1s-115.5-230.6,156-201.2l104.6,32.7c23.9,19.5,52.3,35.2,82.8,40.9c35.4,6.6,62-5.6,91.8-23.1
			c63.7-37.2,155.7-34.6,187.2,42.7c32.3,79-18.6,160.8-11.7,241.6c2.9,33.3,17,65.1,25.8,97.2C893.7,591.1,904.4,624.2,899.3,652.7
			z"/>
	</defs>
	<clipPath id="SVGID_5_">
		<use xlink:href="#SVGID_4_"  style="overflow:visible;"/>
	</clipPath>
	<g class="st7">
		<rect x="236.8" y="387.4" class="st8" width="164.7" height="67.6"/>
		<rect x="236.8" y="454.9" class="st8" width="164.7" height="67.6"/>
		<rect x="236.8" y="522.5" class="st8" width="164.7" height="67.6"/>
		<rect x="236.8" y="590.1" class="st8" width="164.7" height="67.6"/>
		<rect x="250.8" y="482.6" class="st9" width="109.4" height="12.3"/>
		<rect x="250.8" y="618" class="st9" width="109.4" height="12.3"/>
		<g>
			<defs>
				<rect id="SVGID_6_" x="384.7" y="406.7" width="16.8" height="235.1"/>
			</defs>
			<clipPath id="SVGID_7_">
				<use xlink:href="#SVGID_6_"  style="overflow:visible;"/>
			</clipPath>
			<g class="st10">
				<circle class="st9" cx="398.3" cy="488.8" r="6.2"/>
				<circle class="st9" cx="398.3" cy="421.2" r="6.2"/>
				<circle class="st9" cx="398.3" cy="556.3" r="6.2"/>
				<circle class="st9" cx="398.3" cy="624.1" r="6.2"/>
			</g>
		</g>
		<rect x="250.8" y="415" class="st9" width="109.4" height="12.3"/>
		
			<pattern  id="SVGID_8_" xlink:href="#New_Pattern_Swatch_7" patternTransform="matrix(-3.000000e-02 0 0 3.000000e-02 -7084.7158 -10369.623)">
		</pattern>
		<rect x="381.2" y="387.4" class="st11" width="20.3" height="270.4"/>
		<path class="st9" d="M189,656.7v39.6h158.4l31-17.9c0.9-0.5,2.1-0.5,3,0l31,17.9h428.1v-39.6H189z"/>
	</g>
</g>
<rect x="643.5" y="387.4" class="st8" width="164.7" height="67.6"/>
<rect x="643.5" y="454.9" class="st8" width="164.7" height="67.6"/>
<rect x="643.5" y="522.5" class="st8" width="164.7" height="67.6"/>
<rect x="643.5" y="590.1" class="st8" width="164.7" height="67.6"/>
<rect x="643.5" y="482.6" class="st9" width="98.1" height="12.3"/>
<circle class="st9" cx="780.8" cy="488.8" r="6.2"/>
<rect x="655.5" y="539.9" class="st9" width="12.3" height="32.8"/>
<circle class="st9" cx="780.8" cy="556.3" r="6.2"/>
<rect x="643.5" y="618" class="st9" width="98.1" height="12.3"/>
<circle class="st9" cx="780.8" cy="624.1" r="6.2"/>
<polyline class="st6" points="401.5,333 167.2,333 167.2,57.5 442.7,57.5 442.7,240.2 "/>
<rect x="167.2" y="57.5" class="st12" width="275.5" height="51.5"/>
<circle class="st13" cx="391.8" cy="83.6" r="7"/>
<circle class="st13" cx="419" cy="83.6" r="7"/>
<line class="st14" x1="183.7" y1="83.6" x2="331.7" y2="83.6"/>
<line class="st15" x1="282.7" y1="292.4" x2="327.3" y2="147.5"/>
<polyline class="st15" points="351.3,183.7 387.5,220 351.3,256.1 "/>
<polyline class="st15" points="258.7,183.7 222.5,220 258.7,256.1 "/>
<g>
	<defs>
		<path id="SVGID_9_" d="M857.6,199.5c6,7.8,10.8,16.4,14.5,25.6c22.7,55.5,4.3,112.2-6.2,169.1c0,0-6.4-25.7-95.1-28.7
			s-109.7-65.9-52.8-98.8S857.6,199.5,857.6,199.5z"/>
	</defs>
	<clipPath id="SVGID_10_">
		<use xlink:href="#SVGID_9_"  style="overflow:visible;"/>
	</clipPath>
	<g class="st16">
		<path class="st17" d="M933,296.2c0.5-2.7,0.7-5.4,0.7-8.2c0-31.8-30.6-57.7-68.1-57.7c-15.2-0.1-30.1,4.3-42.7,12.8
			c-11.7,8-20,19.1-23.5,31.4c-17.8-4.5-36.2,5.2-42.7,22.4c-13.1-3.5-26.5,4.3-30,17.4c-3.5,13.1,4.3,26.5,17.4,30
			c2.1,0.5,4.2,0.8,6.3,0.8h180.2c13.5,0,24.5-11,24.5-24.6C955.1,308,945.5,297.4,933,296.2z"/>
	</g>
</g>
<polygon class="st9" points="716.3,213.7 716.3,242 740.8,256.1 765.4,242 765.4,213.7 740.8,199.5 "/>
<line class="st18" x1="761.5" y1="216.2" x2="740.8" y2="228.1"/>
<polyline class="st18" points="720.2,216.2 740.9,228.1 740.9,251.9 "/>
<polygon class="st9" points="321.9,714.5 321.9,781.5 379.9,815 438,781.5 438,714.5 379.9,681 "/>
<line class="st14" x1="431.5" y1="718.2" x2="379.9" y2="748"/>
<polyline class="st14" points="328.3,718.2 380,748 380,807.4 "/>
<rect x="401.5" y="574.2" class="st8" width="242" height="83.5"/>
<rect x="401.5" y="240.2" class="st8" width="242" height="83.5"/>
<rect x="401.5" y="323.7" class="st8" width="242" height="83.5"/>
<rect x="401.5" y="407.2" class="st8" width="242" height="83.5"/>
<rect x="401.5" y="490.7" class="st8" width="242" height="83.5"/>
<rect x="427.4" y="276" class="st9" width="132.9" height="15.3"/>
<circle class="st9" cx="608.9" cy="283.6" r="7.7"/>
<rect x="427.4" y="441.3" class="st9" width="132.9" height="15.3"/>
<circle class="st9" cx="608.9" cy="449" r="7.7"/>
<rect x="427.4" y="524.8" class="st9" width="132.9" height="15.3"/>
<circle class="st9" cx="608.9" cy="532.5" r="7.7"/>
<circle class="st9" cx="608.9" cy="365.7" r="7.7"/>
<rect x="427.4" y="343" class="st9" width="15.3" height="45"/>
<rect x="455.7" y="343" class="st9" width="15.3" height="45"/>
<pattern  id="SVGID_11_" xlink:href="#New_Pattern_Swatch_7" patternTransform="matrix(-3.000000e-02 0 0 3.000000e-02 -7084.7158 -10369.623)">
</pattern>
<rect x="381.2" y="258.7" class="st19" width="20.3" height="74.3"/>
<circle class="st9" cx="608.9" cy="616.2" r="7.7"/>
<rect x="427.4" y="593.5" class="st9" width="15.3" height="45"/>
<rect x="455.7" y="593.5" class="st9" width="15.3" height="45"/>
<rect x="643.5" y="415" class="st9" width="98.1" height="12.3"/>
<circle class="st9" cx="780.8" cy="421.2" r="6.2"/>
<g>
	<defs>
		<polygon id="SVGID_12_" points="317.2,57.5 442.7,57.5 442.7,190.9 628.6,190.9 628.6,0 317.2,0 		"/>
	</defs>
	<clipPath id="SVGID_13_">
		<use xlink:href="#SVGID_12_"  style="overflow:visible;"/>
	</clipPath>
	<g class="st20">
		<path class="st8" d="M378,60.7c5.2,0,10.3,0.8,15.2,2.3c17.8-33.6,59.6-46.4,93.2-28.6c14.7,7.8,26.1,20.6,32,36.2
			c18.3,0.6,34.5,11.8,41.6,28.7c17.7-4.5,35.6,6.3,40.1,23.9c4.5,17.7-6.3,35.6-23.9,40.1c-2.6,0.7-5.2,1-7.9,1H378
			c-28.6,0-51.8-23.2-51.8-51.8S349.4,60.7,378,60.7L378,60.7z"/>
	</g>
</g>
<polygon class="st9" points="798.4,747.4 798.4,796.2 840.7,820.6 883,796.2 883,747.4 840.7,722.9 "/>
<line class="st21" x1="876.4" y1="751.7" x2="840.6" y2="772.3"/>
<polyline class="st21" points="805,751.7 840.7,772.3 840.7,813.4 "/>
</svg>
