<?xml version="1.0" encoding="utf-8"?>
<!-- Generator: Adobe Illustrator 25.0.0, SVG Export Plug-In . SVG Version: 6.00 Build 0)  -->
<svg version="1.1" id="Layer_1" xmlns="http://www.w3.org/2000/svg" xmlns:xlink="http://www.w3.org/1999/xlink" x="0px" y="0px"
	 width="1100px" height="898px" viewBox="0 0 1100 898" style="enable-background:new 0 0 1100 898;" xml:space="preserve">
<style type="text/css">
	.st0{fill:none;}
	.st1{fill:#E80000;}
	.st2{fill:url(#SVGID_1_);}
	.st3{fill:url(#SVGID_2_);}
	.st4{fill:url(#SVGID_3_);}
	.st5{fill:url(#SVGID_4_);}
	.st6{fill:url(#SVGID_5_);}
	.st7{fill:url(#SVGID_6_);}
	.st8{fill:none;stroke:#EE0000;stroke-width:2;stroke-linecap:round;stroke-miterlimit:10;}
	.st9{fill:#EE0000;stroke:#EE0000;stroke-width:2;stroke-linecap:round;stroke-linejoin:round;}
	.st10{fill:#FFFFFF;stroke:#EE0000;stroke-width:2;stroke-linecap:round;stroke-linejoin:round;}
	.st11{fill:none;stroke:#EE0000;stroke-width:2;stroke-linecap:round;stroke-linejoin:round;}
	.st12{fill:#FFFFFF;}
	.st13{fill:#EE0000;stroke:#EE0000;stroke-width:2;stroke-linecap:round;stroke-miterlimit:10;}
	.st14{fill:#FFFFFF;stroke:#EE0000;stroke-width:2;stroke-linecap:round;stroke-miterlimit:10;}
	.st15{fill:#EE0000;}
	.st16{fill:none;stroke:#EE0000;stroke-width:2;stroke-miterlimit:10;}
	.st17{fill:#EE0000;stroke:#FFFFFF;stroke-width:2;stroke-linecap:round;stroke-linejoin:round;}
	.st18{fill:#EE0000;stroke:#EE0000;stroke-width:2;stroke-miterlimit:10;}
	.st19{fill:#FFFFFF;stroke:#EE0000;stroke-width:2;stroke-miterlimit:10;}
	.st20{fill:none;stroke:#FFFFFF;stroke-width:2;stroke-miterlimit:10;}
</style>
<pattern  y="993" width="28.8" height="28.8" patternUnits="userSpaceOnUse" id="Unnamed_Pattern_2" viewBox="1.4 -30.2 28.8 28.8" style="overflow:visible;">
	<g>
		<rect x="1.4" y="-30.2" class="st0" width="28.8" height="28.8"/>
		<rect x="1.4" y="-30.2" class="st0" width="28.8" height="28.8"/>
		<path class="st1" d="M30.2-31.7c0.8,0,1.4,0.6,1.4,1.4c0,0.8-0.6,1.4-1.4,1.4c-0.8,0-1.4-0.6-1.4-1.4S29.4-31.7,30.2-31.7
			C30.2-31.7,30.2-31.7,30.2-31.7z"/>
		<path class="st1" d="M15.8-31.7c0.8,0,1.5,0.6,1.5,1.4s-0.6,1.5-1.4,1.5c-0.8,0-1.5-0.6-1.5-1.4c0,0,0,0,0,0
			C14.4-31,15.1-31.7,15.8-31.7z"/>
		<path class="st1" d="M30.2-17.3c0.8,0,1.4,0.6,1.4,1.4c0,0.8-0.6,1.4-1.4,1.4c-0.8,0-1.4-0.6-1.4-1.4S29.4-17.3,30.2-17.3
			C30.2-17.3,30.2-17.3,30.2-17.3z"/>
		<path class="st1" d="M15.8-17.3c0.8,0,1.5,0.6,1.5,1.4s-0.6,1.5-1.4,1.5c-0.8,0-1.5-0.6-1.5-1.4c0,0,0,0,0,0
			C14.4-16.6,15.1-17.3,15.8-17.3z"/>
		<path class="st1" d="M8.6-24.4c0.8,0,1.4,0.6,1.4,1.4c0,0.8-0.6,1.4-1.4,1.4c-0.8,0-1.4-0.6-1.4-1.4c0,0,0,0,0,0
			C7.2-23.8,7.9-24.4,8.6-24.4z"/>
		<path class="st1" d="M23-24.4c0.8,0,1.4,0.6,1.4,1.4c0,0.8-0.6,1.4-1.4,1.4c-0.8,0-1.4-0.6-1.4-1.4S22.2-24.4,23-24.4
			C23-24.4,23-24.4,23-24.4z"/>
		<path class="st1" d="M8.6-10.1c0.8,0,1.4,0.6,1.4,1.4S9.4-7.2,8.6-7.2c-0.8,0-1.4-0.6-1.4-1.4S7.8-10.1,8.6-10.1L8.6-10.1z"/>
		<path class="st1" d="M23-10.1c0.8,0,1.4,0.6,1.4,1.4c0,0.8-0.6,1.4-1.4,1.4c-0.8,0-1.4-0.6-1.4-1.4C21.6-9.4,22.2-10.1,23-10.1
			C23-10.1,23-10.1,23-10.1z"/>
		<path class="st1" d="M1.4-31.7c0.8,0,1.4,0.6,1.4,1.4l0,0c0,0.8-0.6,1.4-1.4,1.4c-0.8,0-1.4-0.6-1.4-1.4C0-31,0.6-31.7,1.4-31.7
			C1.4-31.7,1.4-31.7,1.4-31.7z"/>
		<path class="st1" d="M1.4-17.3c0.8,0,1.4,0.6,1.4,1.4c0,0,0,0,0,0c0,0.8-0.7,1.4-1.4,1.4c-0.8,0-1.4-0.6-1.4-1.4
			C0-16.6,0.6-17.3,1.4-17.3C1.4-17.3,1.4-17.3,1.4-17.3z"/>
		<path class="st1" d="M30.2-2.9c0.8,0,1.4,0.6,1.4,1.4c0,0,0,0,0,0C31.7-0.6,31,0,30.2,0c-0.8,0-1.4-0.6-1.4-1.4
			C28.8-2.2,29.4-2.9,30.2-2.9C30.2-2.9,30.2-2.9,30.2-2.9z"/>
		<path class="st1" d="M15.8-2.9c0.8,0,1.4,0.6,1.4,1.4c0,0,0,0,0,0c0,0.8-0.6,1.4-1.4,1.4c-0.8,0-1.4-0.7-1.4-1.4
			C14.4-2.2,15.1-2.9,15.8-2.9z"/>
		<path class="st1" d="M1.4-2.9c0.8,0,1.4,0.6,1.4,1.4c0,0,0,0,0,0C2.9-0.6,2.2,0,1.4,0C0.6,0,0-0.6,0-1.4c0,0,0,0,0,0
			C0-2.2,0.6-2.9,1.4-2.9C1.4-2.9,1.4-2.9,1.4-2.9z"/>
	</g>
</pattern>
<g id="container">
	<pattern  id="SVGID_1_" xlink:href="#Unnamed_Pattern_2" patternTransform="matrix(-0.62 0 0 -0.59 -12133.4795 -13771.4033)">
	</pattern>
	<path class="st2" d="M297.8,130c8.8,0,15.8-3.8,21.2-11.6c4.6-6.6,7.4-15.3,8.2-26.1c-19.4,3.4-37.9,9.4-54.6,18.8
		c1.1,2.6,2.4,5,4,7.3C282.1,126.2,289,130,297.8,130z"/>
	<pattern  id="SVGID_2_" xlink:href="#Unnamed_Pattern_2" patternTransform="matrix(-0.62 0 0 -0.59 -12133.4795 -13771.4033)">
	</pattern>
	<path class="st3" d="M461.6,142.6c0.7,0,1.3-0.3,1.6-0.9c0.8-1.4,1.1-2.9,1-4.5c0.1-1.5-0.2-3.1-1-4.4c-0.3-0.6-0.9-0.9-1.6-0.9
		c-0.7,0-1.3,0.3-1.6,0.9c-0.8,1.3-1.1,2.9-1,4.4c-0.1,1.6,0.2,3.1,1,4.5C460.3,142.2,460.9,142.6,461.6,142.6z"/>
	<pattern  id="SVGID_3_" xlink:href="#Unnamed_Pattern_2" patternTransform="matrix(-0.62 0 0 -0.59 -12133.4795 -13771.4033)">
	</pattern>
	<path class="st4" d="M872,160.4c0,34.9-14.9,68.2-40.9,91.6c-15.1,16.8-34.5,29.2-56.2,35.7V582h37.8l-1.5-61.6
		c0-0.4,0-0.7,0.1-1.1c1.1-11.3,26.9-15.6,46.1-16.6c-1.9-2.4-3.7-4.7-5.6-7c-16.9-21-37.5-40.8-46-66.4
		c-31.6-30.4-32.7-80.7-2.3-112.3c2.9-3,6-5.8,9.3-8.3c13-12.8,30.1-20.7,48.3-22.3c12.4-17.5,23.8-35.4,31-55.4
		c0.2-0.5,0.3-0.9,0.5-1.3c-0.9-0.2-1.8-0.5-2.7-0.9c-1.8-0.8-3.3-2-4.6-3.5c-1.3-1.6-2.3-3.3-2.9-5.3c-0.7-2.1-1-4.3-1-6.5
		c0-2.2,0.3-4.4,1-6.5c0.6-1.9,1.6-3.7,2.9-5.2c1.3-1.5,2.8-2.7,4.6-3.5c1.8-0.8,3.8-1.2,5.8-1.2c1.3,0,2.6,0.2,3.9,0.5
		c3.5-40.3-14.9-73.8-44.2-99C866.3,117.4,872,138.7,872,160.4z"/>
	<pattern  id="SVGID_4_" xlink:href="#Unnamed_Pattern_2" patternTransform="matrix(-0.62 0 0 -0.59 -12133.4795 -13771.4033)">
	</pattern>
	<path class="st5" d="M927.5,613.3c-2.4,0.4-4.9,0.6-7.4,0.6l-0.1,2.4c0,0.7-0.5,6.9-8.1,12.5c-11.2,8.3-30.7,10-45.1,10
		s-33.9-1.7-45.1-10c-7.7-5.7-8.1-11.8-8.1-12.5L813,590h-38v3l91.8,148.3h3.2l-1.1,3.5l2.8,4.5h-4.3l-3.8,11.7
		c-1.3,4.1-5.2,6.9-9.5,6.9H216.3c-4.3,0-8.2-2.8-9.5-6.9l-3.8-11.8h-4.3l2.8-4.5l-1.1-3.5h3.3L295.4,593v-3h-95.3
		c-6.2,9.7-13,19.2-20.1,28.3c-29.2,37.3-51.1,85.8-44.7,133.3c6.7,49.2,47.1,84,92.7,102.7c51.4,21,111.5,28.3,166.7,20.1
		c52.4-7.8,104-26.3,157.1-24.7c59.4,1.9,118.2,12.9,177.7,14.5c89,2.3,206.1-22,223.2-121.6c6.3-36.4-1.5-74.1-15.8-108.4
		C934,627.3,930.8,620.3,927.5,613.3z"/>
	<pattern  id="SVGID_5_" xlink:href="#Unnamed_Pattern_2" patternTransform="matrix(-0.62 0 0 -0.59 -12133.4795 -13771.4033)">
	</pattern>
	<path class="st6" d="M897.4,209.2c-0.3-0.6-0.9-0.9-1.6-0.9c-0.7,0-1.3,0.3-1.6,0.9c-0.8,1.3-1.1,2.9-1,4.4c-0.1,1.6,0.2,3.1,1,4.5
		c0.3,0.6,1,1,1.6,0.9h0.1c0.8-2.9,1.4-5.8,2-8.7C897.8,209.9,897.6,209.5,897.4,209.2z"/>
	<pattern  id="SVGID_6_" xlink:href="#Unnamed_Pattern_2" patternTransform="matrix(-0.62 0 0 -0.59 -12133.4795 -13771.4033)">
	</pattern>
	<path class="st7" d="M229.3,305.2c5.2,14.6,10.6,29.1,14.3,44.3c30.3,12.5,44.7,47.1,32.3,77.4c-3.6,8.8-9.4,16.7-16.7,22.8
		c-2.9,3.4-6.2,6.5-9.8,9.3c-5.8,43.5-21.4,85.2-44.3,123.1h90.4V247.9c0-10.5,8.5-19,19-19l0,0h99.5v-30.7l-18.2,8.1V189l25-11.1
		h12v51h198.9c-27.6-50.1-17-112.6,25.6-150.9c13.5-15,30.4-26.4,49.4-33.4c-8-0.3-16-0.2-24,0.4c-27.8,1.8-55.1,7.6-81.3,17.2
		c-3.3,1.2-6.7,2.5-10,3.8c-0.6,1.7-1.5,3.3-2.6,4.6c-1.3,1.5-2.8,2.7-4.6,3.5c-3.7,1.6-7.9,1.6-11.6,0c-0.2-0.1-0.3-0.2-0.5-0.3
		c-11.8,5-23.9,9.3-36.2,13v9.7h-16.2v-5.8c-2.4,0.4-4.8,0.8-7.2,1.2c-44.1,6-88.3-3.2-132.5-3.6c-11.7-0.1-23.4,0.4-35.1,1.6
		c-0.3,6.8-1.4,13.5-3.3,20c-2.1,7-5.3,13.6-9.7,19.4c-4,5.3-9.1,9.6-15,12.7c-12,6.1-26.2,6.1-38.3,0c-5.9-3.1-11-7.4-15-12.7
		c-2.1-2.8-3.9-5.7-5.5-8.8c-8.7,6.4-16.5,13.9-23.4,22.3c-32.1,39.4-27.6,89.5-14.5,135.2C222.9,287.2,226.1,296.2,229.3,305.2z
		 M564.4,138.9l17.8-7.7h10.1v71.7H576v-53.4l-11.6,5.1L564.4,138.9z M513.5,151.7l9.7-4h7.2v32.1h-11.7v-18.7l-5.2,2.1L513.5,151.7
		z M448.3,130.7c0.6-1.9,1.6-3.7,2.9-5.2c1.3-1.5,2.8-2.7,4.6-3.5c3.7-1.6,7.9-1.6,11.6,0c1.8,0.8,3.3,2,4.6,3.5
		c1.3,1.5,2.3,3.3,2.9,5.2c1.3,4.2,1.3,8.8,0,13c-0.6,1.9-1.6,3.7-2.8,5.3c-1.3,1.5-2.8,2.7-4.6,3.5c-3.7,1.6-7.9,1.6-11.6,0
		c-1.8-0.8-3.3-2-4.6-3.5c-1.3-1.6-2.3-3.3-2.9-5.3c-0.7-2.1-1-4.3-1-6.5C447.3,135,447.6,132.8,448.3,130.7L448.3,130.7z"/>
</g>
<g id="gfx">
	<line class="st8" x1="119.2" y1="586" x2="999.4" y2="586"/>
	<circle class="st9" cx="739.5" cy="169.6" r="119.2"/>
	<circle class="st10" cx="748.8" cy="160.4" r="119.2"/>
	<polygon class="st11" points="708,111.2 708,183.5 797.6,145 797.6,111.2 	"/>
	<line class="st11" x1="708" y1="111.2" x2="683.3" y2="111.2"/>
	<polyline class="st11" points="708,183.5 708,204.5 794.9,204.5 	"/>
	<circle class="st11" cx="708" cy="219.3" r="4.7"/>
	<circle class="st11" cx="788.4" cy="219.3" r="4.7"/>
	<path class="st12" d="M301.4,589V247.9c0-7.2,5.8-13,13-13h441.5c7.2,0,13,5.8,13,13V589H301.4z"/>
	<path class="st12" d="M755.9,237.9c5.5,0,10,4.5,10,10V586H304.4V247.9c0-5.5,4.5-10,10-10H755.9 M755.9,231.9H314.4
		c-8.8,0-16,7.2-16,16V592h473.5V247.9C771.9,239.1,764.8,231.9,755.9,231.9z"/>
	<path class="st13" d="M314.4,237.9h441.5c5.5,0,10,4.5,10,10V586l0,0H304.4l0,0V247.9C304.4,242.4,308.9,237.9,314.4,237.9z"/>
	<path class="st14" d="M330.6,262.1h409.2c1.1,0,2,0.9,2,2V586l0,0H328.6l0,0V264.1C328.6,263,329.5,262.1,330.6,262.1z"/>
	<polygon class="st10" points="864.5,745.2 205.9,745.2 304.4,586 765.9,586 	"/>
	<ellipse class="st15" cx="360.5" cy="623.8" rx="13.7" ry="5.2"/>
	<ellipse class="st15" cx="417.8" cy="623.8" rx="13.7" ry="5.2"/>
	<ellipse class="st15" cx="475" cy="623.8" rx="13.7" ry="5.2"/>
	<ellipse class="st15" cx="532.3" cy="623.8" rx="13.7" ry="5.2"/>
	<ellipse class="st15" cx="589.5" cy="623.8" rx="13.7" ry="5.2"/>
	<ellipse class="st15" cx="646.8" cy="623.8" rx="13.7" ry="5.2"/>
	<ellipse class="st15" cx="704.1" cy="623.8" rx="13.7" ry="5.2"/>
	<ellipse class="st15" cx="346.8" cy="645.9" rx="13.7" ry="5.2"/>
	<ellipse class="st15" cx="408.8" cy="645.9" rx="13.7" ry="5.2"/>
	<ellipse class="st15" cx="470.8" cy="645.9" rx="13.7" ry="5.2"/>
	<ellipse class="st15" cx="532.8" cy="645.9" rx="13.7" ry="5.2"/>
	<ellipse class="st15" cx="594.8" cy="645.9" rx="13.7" ry="5.2"/>
	<ellipse class="st15" cx="656.8" cy="645.9" rx="13.7" ry="5.2"/>
	<ellipse class="st15" cx="718.8" cy="645.9" rx="13.7" ry="5.2"/>
	<ellipse class="st15" cx="335" cy="668.5" rx="13.7" ry="5.2"/>
	<ellipse class="st15" cx="400" cy="668.5" rx="13.7" ry="5.2"/>
	<ellipse class="st15" cx="465.9" cy="668.5" rx="13.7" ry="5.2"/>
	<ellipse class="st15" cx="532.8" cy="668.5" rx="13.7" ry="5.2"/>
	<ellipse class="st15" cx="602.6" cy="668.5" rx="13.7" ry="5.2"/>
	<ellipse class="st15" cx="667.5" cy="668.5" rx="13.7" ry="5.2"/>
	<ellipse class="st15" cx="732.5" cy="668.5" rx="13.7" ry="5.2"/>
	<path class="st15" d="M606.7,730.1H463.6c-2,0-3.6-1.6-3.6-3.6c0-0.7,0.2-1.3,0.5-1.9l18.9-30.5c0.7-1.1,1.8-1.7,3.1-1.7h105.4
		c1.3,0,2.4,0.7,3.1,1.7l18.9,30.5c1.1,1.7,0.5,3.9-1.2,5C608.1,729.9,607.4,730.1,606.7,730.1z"/>
	<path class="st8" d="M786.6,684.8H283.8c-1.1,0-2-0.9-2-2c0-0.4,0.1-0.7,0.3-1.1l46-74.3c0.4-0.6,1-1,1.7-1h410.8
		c0.7,0,1.3,0.4,1.7,1l46,74.3c0.6,0.9,0.3,2.2-0.6,2.8C787.3,684.7,787,684.8,786.6,684.8z"/>
	<path class="st9" d="M205.9,745.2l4.7,14.6c0.8,2.5,3.1,4.2,5.7,4.2h637.8c2.6,0,4.9-1.7,5.7-4.2l4.7-14.6L205.9,745.2z"/>
	<rect x="487.8" y="452.7" class="st8" width="11.5" height="133.3"/>
	<rect x="385.8" y="352.4" class="st11" width="301.1" height="222.6"/>
	<rect x="371.9" y="366.8" class="st10" width="329" height="74.9"/>
	<rect x="413.7" y="397.4" class="st9" width="156.3" height="13.8"/>
	<rect x="588" y="397.4" class="st9" width="71" height="13.8"/>
	<rect x="420.2" y="441.7" class="st11" width="67.6" height="133.3"/>
	<rect x="431.7" y="448.6" class="st16" width="44.7" height="59.8"/>
	<rect x="512.8" y="448.6" class="st11" width="137.8" height="56"/>
	<rect x="431.7" y="528.4" class="st16" width="44.7" height="39.7"/>
	<circle class="st15" cx="471.9" cy="518.4" r="4.4"/>
	<line class="st11" x1="664.6" y1="441.7" x2="664.6" y2="575"/>
	<path class="st17" d="M602.1,497.4c0,0,4.9-7.2,13.8-2c0,0,6.4-7.6,16.2-4.7s12,16.8,12,16.8h-42V497.4z"/>
	<path class="st17" d="M522.9,505.9c-1.3-5.7,2.3-11.4,8.1-12.7c3.3-0.7,6.7,0.1,9.2,2.3c8.2-12.5,25.1-15.9,37.5-7.7
		c3.8,2.5,7,6,9.1,10.1c4.8-2.3,10.3-2.5,15.3-0.5c4.2,1.7,8,5.7,7.3,10.2h-85.1L522.9,505.9z"/>
	<rect x="506" y="504.6" class="st10" width="151.6" height="9.4"/>
	<path class="st10" d="M928,605.8h-33.2c-13.5,0-24.4-10.9-24.4-24.4v-16.3c0-13.5,10.9-24.3,24.4-24.4H928
		c13.5,0,24.4,10.9,24.4,24.4v16.3C952.4,594.9,941.5,605.8,928,605.8z M894.8,555.8c-5.2,0-9.4,4.2-9.4,9.4v16.3
		c0,5.2,4.2,9.4,9.4,9.4H928c5.2,0,9.4-4.2,9.4-9.4v-16.4c0-5.2-4.2-9.4-9.4-9.4L894.8,555.8z"/>
	<ellipse class="st10" cx="866.8" cy="520.1" rx="51.5" ry="13.7"/>
	<ellipse class="st9" cx="866.8" cy="532.3" rx="42" ry="13.8"/>
	<path class="st10" d="M866.8,533.8c-28.4,0-51.4-6.1-51.5-13.6l0,0c0,0-0.1,0.1-0.1,0.2l2.4,95.8l0,0c0,0.2,0.2,4.8,6.5,9.4
		c10.3,7.7,28.9,9.3,42.7,9.3s32.4-1.6,42.7-9.3c6.2-4.6,6.5-9.2,6.5-9.4l0,0l2.4-95.8c0,0,0,0,0,0
		C918,527.7,895.1,533.8,866.8,533.8z"/>
	<circle class="st18" cx="861" cy="372" r="75.6"/>
	<circle class="st19" cx="868.3" cy="365.7" r="75.6"/>
	<path class="st16" d="M897.5,404.7h-58.4c-3.5,0-6.3-2.8-6.3-6.3c0-0.4,0-0.8,0.1-1.2l10-48.8c0.6-2.9,3.2-5,6.1-5h38.5
		c3,0,5.5,2.1,6.1,5l9.9,48.8c0.7,3.4-1.5,6.7-4.9,7.4C898.4,404.7,897.9,404.7,897.5,404.7z"/>
	<path class="st16" d="M853.3,352v-18.4c0-8.3,6.7-15,15-15l0,0c8.3,0,15,6.7,15,15V352"/>
	<circle class="st19" cx="853.3" cy="352" r="2.8"/>
	<circle class="st19" cx="883.3" cy="352" r="2.8"/>
	<circle class="st18" cx="213.8" cy="411.5" r="55.3"/>
	<circle class="st19" cx="221" cy="404.3" r="55.3"/>
	<path class="st16" d="M242.4,432.8h-42.7c-2.5,0-4.6-2-4.6-4.6c0-0.3,0-0.6,0.1-0.9l7.3-35.7c0.4-2.1,2.3-3.7,4.5-3.7h28.2
		c2.2,0,4.1,1.5,4.5,3.7l7.3,35.7c0.5,2.5-1.1,4.9-3.6,5.4C243,432.8,242.7,432.9,242.4,432.8z"/>
	<path class="st16" d="M210,394.3v-13.4c0-6.1,4.9-11,11-11l0,0l0,0c6.1,0,11,4.9,11,11l0,0v13.5"/>
	<circle class="st19" cx="210" cy="394.3" r="2.1"/>
	<circle class="st19" cx="232" cy="394.3" r="2.1"/>
	<rect x="317.4" y="575.4" class="st13" width="438" height="10.6"/>
	<path class="st15" d="M532.8,27.8v65.7h-10.2v-55L511,43.6v-9.1l15.4-6.7H532.8z"/>
	<path class="st15" d="M589.3,134.2v65.7H579v-55l-11.6,5.1v-9.1l15.4-6.7H589.3z"/>
	<path class="st15" d="M428.7,180.9v114h-11.7V193.6l-18.2,8.1V191l22.6-10.1L428.7,180.9z"/>
	<path class="st15" d="M297.8,143.6c-6.2,0.1-12.3-1.4-17.8-4.2c-5.5-2.9-10.3-6.9-14-11.9c-4.1-5.6-7.3-11.8-9.2-18.5
		c-4.5-15.7-4.5-32.3,0-48.1c1.9-6.7,5.1-12.9,9.3-18.5c3.8-4.9,8.6-9,14.1-11.9c11.1-5.6,24.2-5.6,35.4,0c5.5,2.9,10.3,6.9,14,11.9
		c4.1,5.6,7.3,11.8,9.2,18.5c4.5,15.7,4.5,32.3,0,48.1c-1.9,6.7-5.1,12.9-9.2,18.5c-3.7,5-8.5,9-14,11.9
		C310,142.2,303.9,143.7,297.8,143.6z M297.8,133c9.8,0,17.7-4.3,23.7-12.9s9-20.3,9-35.2c0-14.9-3-26.6-9-35.2
		s-13.9-12.9-23.7-12.9c-9.7,0-17.5,4.3-23.6,12.9c-6.1,8.6-9.1,20.3-9.1,35.2c0,14.9,3,26.6,9.1,35.2S288.1,133,297.8,133
		L297.8,133z"/>
	<path class="st15" d="M527.4,150.7v26.1h-5.7v-20.1l-5.2,2.1v-5.1l7.3-3L527.4,150.7z"/>
	<path class="st15" d="M937,200.6v26.1h-5.8v-20.1l-5.1,2.1v-5.1l7.3-3L937,200.6z"/>
	<path class="st15" d="M461.6,150.7c-1.6,0-3.1-0.3-4.6-1c-1.4-0.6-2.6-1.5-3.6-2.7c-1.1-1.2-1.8-2.7-2.3-4.2
		c-0.6-1.8-0.9-3.7-0.8-5.6c0-1.9,0.3-3.8,0.8-5.6c0.5-1.5,1.3-3,2.3-4.2c1-1.1,2.2-2.1,3.6-2.7c1.4-0.6,3-1,4.5-0.9
		c1.6,0,3.1,0.3,4.5,0.9c1.4,0.6,2.6,1.5,3.6,2.7c1,1.2,1.8,2.7,2.3,4.2c0.6,1.8,0.8,3.7,0.8,5.6c0,1.9-0.3,3.8-0.8,5.6
		c-0.5,1.6-1.3,3-2.3,4.2c-1,1.2-2.2,2.1-3.6,2.7C464.7,150.3,463.2,150.7,461.6,150.7z M461.6,145.6c1.6,0,3.2-0.8,4.1-2.2
		c1.1-1.9,1.7-4,1.5-6.2c0.1-2.2-0.4-4.3-1.5-6.1c-0.9-1.4-2.4-2.2-4-2.2c-1.6,0-3.2,0.8-4.1,2.2c-2.1,3.9-2.1,8.5,0,12.4
		C458.4,144.8,459.9,145.6,461.6,145.6z"/>
	<path class="st15" d="M895.8,227.1c-1.6,0-3.1-0.3-4.6-1c-1.4-0.6-2.6-1.5-3.6-2.7c-1-1.3-1.8-2.7-2.3-4.3
		c-0.6-1.8-0.8-3.7-0.8-5.6c0-1.9,0.3-3.8,0.8-5.6c0.5-1.5,1.3-3,2.3-4.2c1-1.1,2.2-2.1,3.6-2.7c1.4-0.6,3-1,4.5-1
		c1.6,0,3.1,0.3,4.5,1c1.4,0.6,2.6,1.5,3.6,2.7c1,1.2,1.8,2.7,2.3,4.2c1.1,3.6,1.1,7.5,0,11.1c-0.5,1.6-1.3,3-2.3,4.3
		c-1,1.1-2.2,2.1-3.6,2.7C898.9,226.7,897.4,227.1,895.8,227.1z M895.8,222c1.6,0,3.2-0.8,4.1-2.2c1.1-1.9,1.7-4,1.5-6.2
		c0.1-2.2-0.4-4.3-1.5-6.2c-0.9-1.4-2.4-2.2-4-2.2c-1.6,0-3.2,0.8-4.1,2.2c-2.1,3.9-2.1,8.5,0,12.4C892.6,221.2,894.1,222,895.8,222
		L895.8,222z"/>
	<path class="st15" d="M578.4,72.4c-1.6,0-3.1-0.3-4.6-0.9c-1.4-0.6-2.6-1.5-3.6-2.7c-1-1.2-1.8-2.7-2.3-4.3
		c-1.1-3.6-1.1-7.5,0-11.1c0.5-1.5,1.3-3,2.3-4.2c1-1.2,2.2-2.1,3.6-2.7c1.4-0.6,3-1,4.5-0.9c1.6,0,3.1,0.3,4.5,0.9
		c1.4,0.6,2.6,1.5,3.6,2.7c1,1.2,1.8,2.7,2.3,4.2c1.1,3.6,1.1,7.5,0,11.1c-0.5,1.6-1.3,3-2.3,4.3c-1,1.1-2.2,2.1-3.6,2.7
		C581.5,72.1,579.9,72.4,578.4,72.4z M578.4,67.3c1.6,0,3.2-0.8,4.1-2.2c1.1-1.9,1.7-4,1.5-6.2c0.1-2.2-0.4-4.3-1.5-6.2
		c-0.9-1.4-2.4-2.2-4-2.2c-1.6,0-3.2,0.8-4.1,2.2c-2.1,3.9-2.1,8.5,0,12.4C575.2,66.5,576.7,67.3,578.4,67.3z"/>
	<line class="st20" x1="428.7" y1="294.9" x2="428.7" y2="180.9"/>
	<path class="st15" d="M533.2,341.2c-3.7,0-7.4-0.8-10.8-2.4c-3.3-1.6-6.2-3.9-8.5-6.8c-2.5-3.2-4.3-6.8-5.5-10.7
		c-1.4-4.5-2.1-9.3-2-14c-0.1-4.7,0.6-9.4,2-13.8c1.2-3.9,3.1-7.5,5.6-10.6c2.3-2.9,5.2-5.2,8.5-6.9c3.3-1.6,7-2.5,10.8-2.4
		c3.7,0,7.4,0.8,10.8,2.5c3.3,1.6,6.2,4,8.5,6.9c2.5,3.2,4.3,6.8,5.5,10.6c1.4,4.5,2,9.2,2,13.8c0,4.7-0.6,9.5-2,14
		c-1.2,3.9-3,7.5-5.5,10.7c-2.3,2.9-5.2,5.2-8.5,6.8C540.6,340.5,536.9,341.3,533.2,341.2z M533.2,332.1c5,0,9-2.2,12.1-6.6
		c3.1-4.4,4.6-10.5,4.6-18.2c0-7.6-1.5-13.7-4.6-18.1c-3.1-4.4-7.1-6.6-12.1-6.6c-4.9,0-9,2.2-12.1,6.6c-3.1,4.4-4.6,10.4-4.7,18.1
		c0,7.8,1.5,13.8,4.7,18.2S528.2,332.1,533.2,332.1z"/>
	<path class="st15" d="M640,341.2c-3.7,0-7.4-0.8-10.8-2.4c-3.3-1.6-6.2-3.9-8.5-6.8c-2.5-3.2-4.3-6.8-5.5-10.7
		c-1.4-4.5-2.1-9.3-2-14c-0.1-4.7,0.6-9.4,2-13.8c1.2-3.9,3.1-7.5,5.5-10.7c2.3-2.9,5.2-5.2,8.4-6.8c3.4-1.6,7.1-2.5,10.8-2.5
		c3.7,0,7.4,0.8,10.7,2.5c3.3,1.6,6.2,4,8.5,6.9c2.5,3.2,4.3,6.8,5.5,10.7c1.4,4.5,2,9.2,2,13.8c0,4.7-0.6,9.5-2,14
		c-1.2,3.9-3,7.5-5.5,10.7c-2.3,2.9-5.2,5.2-8.5,6.8C647.4,340.4,643.7,341.3,640,341.2z M640,332.1c5,0,9-2.2,12.1-6.6
		c3.1-4.4,4.6-10.5,4.6-18.2c0-7.6-1.5-13.7-4.6-18.1c-3.1-4.4-7.1-6.6-12.1-6.6c-5,0-9,2.2-12.1,6.6c-3.1,4.4-4.6,10.4-4.6,18.1
		c0,7.8,1.5,13.8,4.6,18.2C631,329.9,635,332.1,640,332.1z"/>
	<path class="st15" d="M591.5,294.3v26.1h-5.8v-20.1l-5.2,2.1v-5.1l7.3-3L591.5,294.3z"/>
</g>
</svg>
