<svg xmlns="http://www.w3.org/2000/svg" viewBox="0 0 48 48"><path fill="#DD344C" fill-rule="evenodd" d="M2 2v44h44V2H2Zm2 14.001h40.001V4H4v12.001ZM4 30h40.001V18H4v12Zm0 14.001h40.001V32H4v12.001Zm31.151-32.993-2.573-1.824-1.156 1.632 3.949 2.801 5.336-5.337-1.414-1.414-4.142 4.142Zm0 14-2.573-1.824-1.156 1.632 3.949 2.801 5.336-5.336-1.414-1.414-4.142 4.141ZM36 36.646l-2.353-2.353-1.414 1.414 2.353 2.353-2.353 2.354 1.414 1.415L36 39.475l2.354 2.354 1.414-1.415-2.354-2.354 2.354-2.353-1.414-1.414L36 36.646Z"/></svg>