<svg xmlns="http://www.w3.org/2000/svg" viewBox="0 0 48 48"><path fill="#DD344C" fill-rule="evenodd" d="M32 26.5c0-.4-.156-.777-.439-1.06v-.001a1.497 1.497 0 0 0-1.061-.438A1.497 1.497 0 0 0 29 26.5a1.502 1.502 0 0 0 2.561 1.061c.283-.284.439-.661.439-1.061Zm.975-2.475A3.477 3.477 0 0 1 34 26.5c0 .935-.364 1.814-1.025 2.475a3.492 3.492 0 0 1-2.475 1.023 3.492 3.492 0 0 1-2.475-1.023A3.477 3.477 0 0 1 27 26.5c0-.935.364-1.814 1.025-2.475a3.506 3.506 0 0 1 4.95 0ZM19 26.5c0-.4-.156-.777-.439-1.06a1.494 1.494 0 0 0-1.061-.439A1.497 1.497 0 0 0 16 26.5a1.502 1.502 0 0 0 2.561 1.061v-.001A1.49 1.49 0 0 0 19 26.5Zm.975-2.475A3.477 3.477 0 0 1 21 26.5c0 .935-.364 1.814-1.025 2.475a3.492 3.492 0 0 1-2.475 1.023 3.492 3.492 0 0 1-2.475-1.023A3.477 3.477 0 0 1 14 26.5c0-.935.364-1.814 1.025-2.475a3.505 3.505 0 0 1 4.95 0ZM35 21.651a.651.651 0 0 0-.65-.651h-20.7a.651.651 0 0 0-.65.651v9.93a.42.42 0 0 0 .419.419h21.162a.419.419 0 0 0 .419-.419v-9.93ZM21.04 19h5.904a1.87 1.87 0 0 0-1.651-1h-2.586a1.9 1.9 0 0 0-1.667 1ZM23 12a1.001 1.001 0 0 0 2 0 1.001 1.001 0 0 0-2 0Zm14 19.581A2.422 2.422 0 0 1 34.581 34H28v4h-2v-4h-4v4h-2v-4h-6.581A2.422 2.422 0 0 1 11 31.581v-9.93A2.653 2.653 0 0 1 13.65 19h5.267a3.906 3.906 0 0 1 3.79-3H23v-1.185A2.995 2.995 0 0 1 21 12c0-1.654 1.346-3 3-3s3 1.346 3 3a2.997 2.997 0 0 1-2 2.816V16h.293a3.906 3.906 0 0 1 3.79 3h5.267A2.653 2.653 0 0 1 37 21.651v9.93ZM7.489 35.95l1.621-1.173A18.18 18.18 0 0 1 5.676 25H8v-2H5.679a18.168 18.168 0 0 1 3.431-9.719l-1.621-1.173A20.169 20.169 0 0 0 3.679 23H2v2h1.676c.185 3.962 1.484 7.731 3.813 10.95Zm27.258 2.968A18.19 18.19 0 0 1 25 42.351V40h-2v2.351a18.183 18.183 0 0 1-9.75-3.433l-1.172 1.621A20.181 20.181 0 0 0 23 44.351V46h2v-1.649c3.951-.191 7.709-1.489 10.919-3.812l-1.172-1.621ZM13.25 9.14A18.182 18.182 0 0 1 23 5.708V8h2V5.708a18.18 18.18 0 0 1 9.747 3.432l1.172-1.62A20.152 20.152 0 0 0 25 3.708V2h-2v1.708A20.162 20.162 0 0 0 12.078 7.52l1.172 1.62ZM44.319 23a20.169 20.169 0 0 0-3.81-10.892l-1.621 1.173A18.168 18.168 0 0 1 42.319 23H40v2h2.322a18.18 18.18 0 0 1-3.434 9.777l1.621 1.173c2.329-3.219 3.628-6.988 3.813-10.95H46v-2h-1.681Zm-7.293-10.584 6.16-6.16-1.415-1.414-6.159 6.16 1.414 1.414ZM10.972 35.642l-6.16 6.16 1.414 1.414 6.16-6.16-1.414-1.414Zm.734-25.349-8.12-8.12-1.414 1.414 8.12 8.121 1.414-1.415Zm26 26 8.12 8.12-1.414 1.414-8.12-8.119 1.414-1.415Z"/></svg>