<svg xmlns="http://www.w3.org/2000/svg" fill="none" viewBox="0 0 30 30"><path fill="#2684FF" d="M28.668 14.16 15.758 1.25 14.508 0 .347 14.16a1.188 1.188 0 0 0 0 1.679l8.878 8.878L14.507 30l14.161-14.161a1.188 1.188 0 0 0 0-1.679Zm-14.16 5.274L10.072 15l4.434-4.435L18.943 15l-4.436 4.434Z"/><path fill="url(#a)" d="M14.506 10.565a7.469 7.469 0 0 1-.03-10.53L4.77 9.737l5.282 5.283 4.454-4.455Z"/><path fill="url(#b)" d="m18.955 14.988-4.447 4.447a7.469 7.469 0 0 1 0 10.566l9.73-9.73-5.283-5.283Z"/><defs><linearGradient id="a" x1="12.6" x2="7.522" y1="7.194" y2="12.271" gradientUnits="userSpaceOnUse"><stop stop-color="#0052CC"/><stop offset="1" stop-color="#2684FF"/></linearGradient><linearGradient id="b" x1="16.469" x2="21.537" y1="22.758" y2="17.69" gradientUnits="userSpaceOnUse"><stop stop-color="#0052CC"/><stop offset="1" stop-color="#2684FF"/></linearGradient></defs></svg>