<svg xmlns="http://www.w3.org/2000/svg" viewBox="0 0 48 48"><path fill="#E7157B" fill-rule="evenodd" d="M11.001 39.001h26v-2h-26v2ZM35.88 12.009l-1.727-1.011-3.609 6.162 1.727 1.01 3.609-6.161Zm6.687 6.585-6.244 3.553.989 1.738 6.244-3.553-.989-1.738Zm-3.565 10.401-.002 2 7 .006.002-2-7-.006ZM2 31.001l7 .006.002-2-7-.006-.002 2Zm3.454-12.439-.992 1.736 6.239 3.565.992-1.737-6.239-3.564Zm12.026-1.414-3.598-6.167-1.729 1.008 3.598 6.167 1.729-1.008Zm7.521-8.146-2-.002-.007 7 2 .002.007-7ZM13.095 27.196l5.019-8.695c.179-.309.509-.5.867-.5h10.04c.357 0 .687.191.866.5l5.02 8.695a.998.998 0 0 1 0 1l-3.836 6.642-1.732-1 3.548-6.142-4.444-7.695h-8.885l-4.443 7.695 3.547 6.142-1.732 1-3.835-6.642a.998.998 0 0 1 0-1Z"/></svg>