<svg xmlns="http://www.w3.org/2000/svg" viewBox="0 0 48 48"><path fill="#E7157B" fill-rule="evenodd" d="M28.194 17v-5.891h-.943l-1.896 3.613-1.904-3.613h-.969V17h.799v-4.641l1.666 3.136h.791l1.657-3.128V17h.799Zm2.439-2.219h1.981l-.994-2.889-.987 2.889Zm-.22.655L29.885 17h-.892l2.176-5.891h.935L34.28 17h-.901l-.544-1.564h-2.422Zm-9.035-3.629v-.698h-3.664V17h3.664v-.697h-2.797v-1.989h2.345v-.697h-2.345v-1.81h2.797ZM35.113 17h.867v-5.891h-.867V17Zm2.329-5.891V17h3.647v-.714h-2.78v-5.177h-.867ZM4 8c0 2.206 1.794 4 4 4s4-1.794 4-4-1.794-4-4-4-4 1.794-4 4ZM2 8c0-3.309 2.691-6 6-6 3.308 0 6 2.691 6 6s-2.692 6-6 6c-3.309 0-6-2.691-6-6Zm42 33.5h2v-2h-2v2Zm1-6.5h-1.5v2h.5v.5h2V36a1 1 0 0 0-1-1Zm-13.5 2h3v-2h-3v2Zm-6 0h3v-2h-3v2Zm12 0h3v-2h-3v2Zm-24 0h3v-2h-3v2Zm6 0h3v-2h-3v2Zm-12 0h3v-2h-3v2ZM2 36v1.5h2V37h.5v-2H3a1 1 0 0 0-1 1Zm0 5.5h2v-2H2v2Zm2 2H2V45a1 1 0 0 0 1 1h1.5v-2H4v-.5ZM37.5 46h3v-2h-3v2Zm-12 0h3v-2h-3v2Zm-12 0h3v-2h-3v2Zm-6 0h3v-2h-3v2Zm24 0h3v-2h-3v2Zm-12 0h3v-2h-3v2ZM44 44h-.5v2H45a1 1 0 0 0 1-1v-1.5h-2v.5Zm0-15.5h2v-2h-2v2Zm1-6.5h-1.5v2h.5v.5h2V23a1 1 0 0 0-1-1Zm-13.5 2h3v-2h-3v2Zm-12 0h3v-2h-3v2Zm-12 0h3v-2h-3v2Zm18 0h3v-2h-3v2Zm-12 0h3v-2h-3v2Zm24 0h3v-2h-3v2ZM2 23v1.5h2V24h.5v-2H3a1 1 0 0 0-1 1Zm0 5.5h2v-2H2v2Zm2 2H2V32a1 1 0 0 0 1 1h1.5v-2H4v-.5ZM7.5 33h3v-2h-3v2Zm12 0h3v-2h-3v2Zm-6 0h3v-2h-3v2Zm24 0h3v-2h-3v2Zm-6 0h3v-2h-3v2Zm-6 0h3v-2h-3v2ZM44 31h-.5v2H45a1 1 0 0 0 1-1v-1.5h-2v.5Zm2-22v10a1 1 0 0 1-1 1H3a1 1 0 0 1-1-1v-4h2v3h40v-8H16V8h29a1 1 0 0 1 1 1Z"/></svg>