<svg xmlns="http://www.w3.org/2000/svg" fill="none" class="svg-product" viewBox="0 0 425 389"><g clip-path="url(#a)"><path fill="url(#b)" d="M212.48 145.12c-2.898 0-5.795.579-8.306 1.932-2.125 1.159-197.61 113.39-199.73 114.55-1.932.773-3.284 2.704-3.477 4.829.193 2.125 1.545 3.864 3.477 4.829 2.125 1.159 197.61 113.39 199.73 114.55a18.023 18.023 0 0 0 16.612 0c2.125-1.159 197.61-113.39 199.73-114.55 1.932-.772 3.284-2.704 3.477-4.829-.193-2.125-1.545-3.863-3.477-4.829-2.125-1.159-197.61-113.39-199.73-114.55-2.511-1.159-5.409-1.932-8.306-1.932z" class="animation-element" opacity=".08"/><g class="svg-product__bottom animation-element"><path fill="url(#c)" d="M425 191.41v14.771c-.174 2.085-1.564 3.822-3.475 4.865-2.086 1.217-197.92 113.65-200.18 114.69a17.727 17.727 0 0 1-16.682 0c-2.085-1.217-197.92-113.65-200.18-114.69-1.912-.695-3.302-2.78-3.475-4.865v-15.64h.173c.522-1.737 1.738-3.128 3.302-3.823 2.085-1.216 197.92-115.38 200.18-116.43a17.725 17.725 0 0 1 16.682 0c2.085 1.216 197.92 115.38 200.18 116.43 1.564.695 2.78 2.086 3.301 3.823H425v.869z"/><path fill="url(#d)" d="M425 191.41v14.771c-.174 2.085-1.564 3.822-3.475 4.865-2.086 1.217-197.92 113.65-200.18 114.69a17.727 17.727 0 0 1-16.682 0c-2.085-1.217-197.92-113.65-200.18-114.69-1.912-.695-3.302-2.78-3.475-4.865v-15.64h.173c.522-1.737 1.738-3.128 3.302-3.823 2.085-1.216 197.92-115.38 200.18-116.43a17.725 17.725 0 0 1 16.682 0c2.085 1.216 197.92 115.38 200.18 116.43 1.564.695 2.78 2.086 3.301 3.823H425v.869z"/><path fill="url(#e)" fill-rule="evenodd" d="M3.84 186.87 204.82 70.69c4.27-2.468 11.73-2.158 16.664.687l198.51 114.52c4.933 2.847 5.473 7.155 1.204 9.624L220.218 311.7c-4.269 2.469-11.73 2.158-16.664-.686l-198.5-114.53c-4.935-2.847-5.475-7.156-1.21-9.618z" clip-rule="evenodd"/><g fill="#292E47" fill-rule="evenodd" clip-rule="evenodd" opacity=".7"><path d="m229.27 298.41-9.749 5.634c-3.885 2.246-10.674 1.966-15.165-.625l-8.682-5.009h33.596zM105.11 243.52c-1.091-.539-1.091-1.417 0-1.959a5.008 5.008 0 0 1 3.945 0c1.091.542 1.09 1.417 0 1.96a4.99 4.99 0 0 1-3.945-.001zm-6.968.014c-1.09-.548-1.09-1.436 0-1.984a4.941 4.941 0 0 1 3.945 0c1.089.547 1.089 1.436 0 1.984a4.94 4.94 0 0 1-3.945 0zm0-4.189c-1.09-.547-1.09-1.435 0-1.983a4.941 4.941 0 0 1 3.945 0c1.089.546 1.089 1.436 0 1.984a4.941 4.941 0 0 1-3.945-.005v.004zm-6.997-.008c-1.09-.54-1.09-1.416 0-1.957a4.993 4.993 0 0 1 3.945 0c1.09.539 1.09 1.418 0 1.959a5.011 5.011 0 0 1-3.946-.005v.003zm0-4.189c-1.09-.542-1.09-1.418 0-1.96a4.994 4.994 0 0 1 3.945 0c1.09.54 1.09 1.417 0 1.958a5.011 5.011 0 0 1-3.945-.003v.005zm-6.969.012c-1.088-.546-1.088-1.435 0-1.983a4.942 4.942 0 0 1 3.946 0c1.09.547 1.09 1.434 0 1.983a4.942 4.942 0 0 1-3.946-.006v.006zm0-4.19c-1.088-.548-1.088-1.437 0-1.984a4.941 4.941 0 0 1 3.946 0c1.09.547 1.09 1.436 0 1.983a4.96 4.96 0 0 1-3.946-.005v.006zm-6.996-.009c-1.089-.539-1.089-1.416 0-1.957a4.994 4.994 0 0 1 3.946 0c1.09.541 1.09 1.417 0 1.959a4.995 4.995 0 0 1-3.946-.008v.006zm0-4.189c-1.089-.539-1.089-1.418 0-1.957a4.994 4.994 0 0 1 3.946 0c1.09.539 1.09 1.416 0 1.958a4.996 4.996 0 0 1-3.946-.01v.009zm-6.966.013c-1.09-.547-1.09-1.435 0-1.983a4.942 4.942 0 0 1 3.945 0c1.09.547 1.09 1.436 0 1.984a4.927 4.927 0 0 1-3.945-.01v.009zm0-4.189c-1.09-.549-1.09-1.436 0-1.986a4.958 4.958 0 0 1 3.945 0c1.09.549 1.09 1.436 0 1.984a4.944 4.944 0 0 1-3.945-.008v.01zm-6.998-.008c-1.089-.542-1.089-1.418 0-1.96a4.996 4.996 0 0 1 3.947 0c1.09.541 1.09 1.417 0 1.959a5.016 5.016 0 0 1-3.947-.009v.01zm0-4.189c-1.089-.541-1.089-1.418 0-1.959a4.996 4.996 0 0 1 3.947 0c1.09.54 1.09 1.417 0 1.959a5.017 5.017 0 0 1-3.947-.013v.013zm-6.967.013c-1.089-.548-1.089-1.435 0-1.985a4.941 4.941 0 0 1 3.946 0c1.09.547 1.09 1.436 0 1.985a4.961 4.961 0 0 1-3.945-.013v.013zm0-4.19c-1.089-.547-1.089-1.434 0-1.983a4.941 4.941 0 0 1 3.946 0c1.09.548 1.09 1.436 0 1.985a4.963 4.963 0 0 1-3.946-.018v.016zm-6.997-.007c-1.089-.54-1.089-1.417 0-1.958a5.01 5.01 0 0 1 3.946 0c1.089.54 1.089 1.417 0 1.958a4.996 4.996 0 0 1-3.946-.017v.017zm0-4.19c-1.089-.539-1.089-1.418 0-1.957a4.994 4.994 0 0 1 3.946 0c1.089.539 1.089 1.417 0 1.957a4.998 4.998 0 0 1-3.946-.019v.019zm-6.967.013c-1.089-.546-1.089-1.434 0-1.983a4.96 4.96 0 0 1 3.946 0c1.09.549 1.09 1.436 0 1.984a4.93 4.93 0 0 1-3.946-.02v.019zm0-4.189c-1.089-.547-1.089-1.435 0-1.983a4.942 4.942 0 0 1 3.946 0c1.09.547 1.09 1.436 0 1.983a4.947 4.947 0 0 1-3.946-.022v.022zm-6.997-.008c-1.089-.539-1.089-1.416 0-1.957a5.014 5.014 0 0 1 3.947 0c1.09.541 1.088 1.418 0 1.959a5.002 5.002 0 0 1-3.947-.023v.021zm0-4.189c-1.089-.539-1.089-1.417 0-1.957a4.998 4.998 0 0 1 3.947 0c1.09.539 1.088 1.416 0 1.958a5.003 5.003 0 0 1-3.947-.025v.024zm-6.965.013c-1.09-.546-1.09-1.435 0-1.983a4.942 4.942 0 0 1 3.945 0c1.09.547 1.09 1.436 0 1.984a4.93 4.93 0 0 1-3.945-.025v.024zm0-4.189c-1.09-.548-1.09-1.436 0-1.985a4.941 4.941 0 0 1 3.945 0c1.09.548 1.09 1.435 0 1.985a4.935 4.935 0 0 1-3.945-.027v.027zm80.737 48.301c1.09.542 1.09 1.418 0 1.96a4.99 4.99 0 0 1-3.945 0c-1.091-.539-1.091-1.415 0-1.957a4.993 4.993 0 0 1 3.94-.029l.005.026zM391.45 197.44c-1.09-.55-1.09-1.437 0-1.984a4.933 4.933 0 0 1 3.948 0c1.089.548 1.091 1.437 0 1.984a4.965 4.965 0 0 1-3.948 0zm-6.97 8.371c-1.091-.541-1.091-1.418 0-1.959a4.994 4.994 0 0 1 3.946 0c1.092.541 1.092 1.418 0 1.957a5.01 5.01 0 0 1-3.946.002zm0-4.19c-1.091-.542-1.091-1.419 0-1.958a4.992 4.992 0 0 1 3.946 0c1.092.54 1.092 1.417 0 1.957a5.01 5.01 0 0 1-3.946-.001v.002zm-7.001 8.391c-1.091-.548-1.091-1.435 0-1.984a4.957 4.957 0 0 1 3.946 0c1.092.549 1.092 1.437 0 1.983a4.94 4.94 0 0 1-3.946-.001v.002zm0-4.189c-1.091-.547-1.091-1.436 0-1.983a4.957 4.957 0 0 1 3.946 0c1.092.549 1.092 1.436 0 1.983a4.945 4.945 0 0 1-3.946-.006v.006zm-6.971 8.371c-1.091-.541-1.091-1.418 0-1.957a5 5 0 0 1 3.948 0c1.09.54 1.09 1.418 0 1.957a5.015 5.015 0 0 1-3.948-.006v.006zm0-4.189c-1.091-.541-1.091-1.418 0-1.958a5.016 5.016 0 0 1 3.948 0c1.09.54 1.09 1.418 0 1.958a5 5 0 0 1-3.948-.009v.009zm-7 8.392c-1.092-.548-1.092-1.437 0-1.984a4.95 4.95 0 0 1 3.948 0c1.091.55 1.091 1.437 0 1.984a4.932 4.932 0 0 1-1.975.406 4.928 4.928 0 0 1-1.973-.415v.009zm0-4.189c-1.092-.548-1.092-1.437 0-1.984a4.95 4.95 0 0 1 3.948 0c1.091.548 1.091 1.436 0 1.983a4.948 4.948 0 0 1-3.948-.01v.011zm-6.972 8.371c-1.089-.542-1.089-1.418 0-1.959a5.003 5.003 0 0 1 3.948 0c1.091.542 1.091 1.418 0 1.96a5.022 5.022 0 0 1-3.948-.013v.012zm0-4.189c-1.089-.542-1.089-1.42 0-1.959a5.003 5.003 0 0 1 3.948 0c1.091.541 1.091 1.418 0 1.959a5.038 5.038 0 0 1-3.948-.014v.014zm-7.001 8.391c-1.089-.549-1.089-1.437 0-1.984a4.95 4.95 0 0 1 3.948 0c1.092.548 1.092 1.435 0 1.982a4.947 4.947 0 0 1-3.948-.012v.014zm0-4.189c-1.089-.549-1.089-1.436 0-1.985a4.965 4.965 0 0 1 3.948 0c1.092.55 1.092 1.437 0 1.986a4.952 4.952 0 0 1-3.948-.019v.018zm-6.969 8.378c-1.091-.542-1.091-1.418 0-1.959a5.016 5.016 0 0 1 3.948 0c1.092.541 1.092 1.418 0 1.958a5.006 5.006 0 0 1-3.948-.023v.024zm0-4.189c-1.091-.542-1.091-1.42 0-1.959a5 5 0 0 1 3.948 0c1.092.539 1.092 1.418 0 1.957a4.994 4.994 0 0 1-3.948-.025v.027zm-7.003 8.39c-1.089-.549-1.089-1.436 0-1.983a4.95 4.95 0 0 1 3.948 0c1.091.548 1.091 1.437 0 1.983a4.95 4.95 0 0 1-3.948-.027v.027zm0-4.19c-1.089-.547-1.089-1.435 0-1.982a4.933 4.933 0 0 1 3.948 0c1.091.547 1.091 1.435 0 1.984a4.948 4.948 0 0 1-3.948-.031v.029zm-6.97 8.372c-1.091-.54-1.091-1.419 0-1.958a4.996 4.996 0 0 1 3.948 0c1.09.54 1.09 1.416 0 1.957a5.007 5.007 0 0 1-3.948-.028v.029zm0-4.189c-1.091-.541-1.091-1.418 0-1.957a5 5 0 0 1 3.948 0c1.09.542 1.09 1.418 0 1.96a5.008 5.008 0 0 1-3.948-.036v.033zm-7 8.393c-1.092-.549-1.092-1.437 0-1.984a4.95 4.95 0 0 1 3.949 0c1.09.548 1.09 1.435 0 1.984a4.955 4.955 0 0 1-3.949-.033v.033zm0-4.19c-1.092-.548-1.092-1.438 0-1.984a4.95 4.95 0 0 1 3.949 0c1.09.549 1.09 1.436 0 1.983a4.938 4.938 0 0 1-3.949-.034v.035zm-6.971 8.371c-1.09-.542-1.09-1.418 0-1.96a5.021 5.021 0 0 1 3.95 0c1.089.542 1.089 1.418 0 1.958a5.01 5.01 0 0 1-3.95-.033v.035zm0-4.189c-1.09-.543-1.09-1.418 0-1.96a5.025 5.025 0 0 1 3.95 0c1.089.542 1.089 1.419 0 1.959a4.998 4.998 0 0 1-3.95-.037v.038zm80.776-43.861c1.089.548 1.091 1.437 0 1.983a4.95 4.95 0 0 1-3.948 0c-1.09-.549-1.09-1.437 0-1.984a4.941 4.941 0 0 1 3.948-.037v.038z"/></g><path fill="#333C5E" fill-rule="evenodd" d="m85.942 180.66 117.97-68.546c5.666-3.292 15.566-2.883 22.114.918l114.72 66.531c6.547 3.796 7.264 9.549 1.599 12.837l-117.97 68.544c-5.665 3.292-15.564 2.883-22.113-.914l-114.72-66.535c-6.553-3.796-7.269-9.543-1.6-12.835z" clip-rule="evenodd" opacity=".6"/><g class="svg-product__compute-st21"><path stroke="url(#f)" d="M113.32 150.36h.397v38.1h-.397v-38.1z" class="svg-product__compute-st22 animation-element"/><path stroke="url(#g)" d="M193.43 199.06h.396v38.099h-.396V199.06z" class="svg-product__compute-st22 animation-element"/><path stroke="url(#h)" d="M238.49 175.05h.397v38.1h-.397v-38.1z" class="svg-product__compute-st22 animation-element"/><path stroke="url(#i)" d="M315.8 154.62h.396v38.099h-.396V154.62z" class="svg-product__compute-st22 animation-element"/><path stroke="url(#j)" d="M269.85 141.18h.396v38.1h-.396v-38.1z" class="svg-product__compute-st22 animation-element"/><path stroke="url(#k)" d="M158.52 140.5h.396v38.1h-.396v-38.1z" class="svg-product__compute-st22 animation-element"/></g><g class="animation-element" opacity=".75"><path fill="url(#l)" fill-rule="evenodd" d="M340.76 190.06 224.7 257.493c-5.573 3.239-15.312 2.836-21.755-.898l-112.86-65.458c-3.39-1.966-5.176-4.462-5.308-6.855h-.017V20.644l259.75-2.517v166.15h-.015c.127 2.163-1.087 4.245-3.735 5.783z" clip-rule="evenodd" opacity=".8"/></g></g><g class="svg-product__top animation-element"><path fill="url(#m)" fill-rule="evenodd" d="M340.76 102.12 224.7 169.557c-5.573 3.237-15.312 2.834-21.754-.902L90.086 103.2c-3.39-1.966-5.174-4.461-5.308-6.856h-.009v-.215c0-.127-.007-.248 0-.371V75.4H344.5v20.946c.12 2.162-1.094 4.244-3.74 5.774z" clip-rule="evenodd"/><path fill="url(#n)" fill-rule="evenodd" d="M340.76 102.12 224.7 169.556c-5.573 3.237-15.312 2.835-21.754-.901l-112.86-65.456c-3.39-1.966-5.174-4.461-5.308-6.856h-.009v-.215c0-.127-.007-.248 0-.371V75.399H344.5v20.946c.12 2.162-1.094 4.244-3.74 5.775z" clip-rule="evenodd"/><path fill="url(#o)" fill-rule="evenodd" d="m88.514 69.632 116.06-67.435c5.575-3.237 15.314-2.835 21.756.901l112.86 65.455c6.442 3.736 7.146 9.394 1.573 12.63l-116.06 67.432c-5.573 3.24-15.312 2.836-21.755-.9L90.088 82.261c-6.446-3.736-7.15-9.39-1.574-12.629z" clip-rule="evenodd"/><path stroke="url(#p)" d="m104.16 70.348 101.65-59.067c4.882-2.836 13.414-2.483 19.057.79l98.859 57.333c5.642 3.271 6.259 8.223 1.378 11.06l-101.65 59.067c-4.881 2.837-13.413 2.485-19.055-.788L105.541 81.41c-5.646-3.273-6.263-8.225-1.382-11.062z" clip-rule="evenodd" opacity=".4"/><path fill="url(#q)" fill-rule="evenodd" d="M212.96 58.587a60.086 60.086 0 0 1 9.593.728 51.474 51.474 0 0 1 14.909 4.966c6.475 3.722 8.809 8.043 8.788 11.58-.021 3.567-2.443 7.99-9.116 11.86-3.736 2.098-7.748 3.523-12.087 4.487a3.873 3.873 0 0 0 1.681 7.561c4.947-1.1 9.706-2.768 14.225-5.31l.042-.024c8.027-4.647 12.957-11.191 13.001-18.528.043-7.358-4.834-13.861-12.762-18.391-5.077-2.901-11.091-4.83-17.395-5.838a61.56 61.56 0 0 0-10.344-.868c-.17 0-.337.01-.501.032h-.06c-10.059.034-20.36 2.254-28.435 6.914-3.893 2.107-7.128 5.076-9.728 8.544a3.872 3.872 0 1 0 6.196 4.647c2.034-2.713 4.461-4.895 7.257-6.4a5 5 0 0 0 .105-.06c6.633-3.84 15.543-5.87 24.631-5.9zm-3.554 12.94c2.324-1.344 5.086-.732 6.71-.19h.003l.117.041 15.41 5.394a2.582 2.582 0 0 1-1.169 4.999l-18.846-2.324a2.578 2.578 0 0 1-.822-.244 8.426 8.426 0 0 1-1.308-.525c-2.903-1.452-2.935-5.64-.095-7.151z" clip-rule="evenodd"/></g></g><defs><linearGradient id="b" x1="212.48" x2="212.48" y1="145.12" y2="387.83" gradientUnits="userSpaceOnUse"><stop offset="0" stop-color="#13151E" stop-opacity="0"/><stop offset="1" stop-color="#131532"/></linearGradient><linearGradient id="c" x1="1" x2="425" y1="198.01" y2="198.01" gradientUnits="userSpaceOnUse"><stop offset=".48" stop-color="#D2D8E6"/><stop offset=".52" stop-color="#E0E4EF"/></linearGradient><linearGradient id="d" x1="1" x2="425" y1="198.48" y2="198.48" gradientUnits="userSpaceOnUse"><stop offset="0" stop-color="#373F6E"/><stop offset="1" stop-color="#5A6291"/></linearGradient><linearGradient id="e" x1=".964" x2="424.08" y1="191.2" y2="191.2" gradientUnits="userSpaceOnUse"><stop offset=".01" stop-color="#3F4B75"/><stop offset="1" stop-color="#636F99"/></linearGradient><linearGradient id="f" x1="112.59" x2="112.59" y1="147.43" y2="189.32" gradientUnits="userSpaceOnUse"><stop offset="0" stop-color="#17BDFF"/><stop offset="1" stop-color="#17BDFF" stop-opacity="0"/></linearGradient><linearGradient id="g" x1="192.56" x2="192.56" y1="195.5" y2="238.02" gradientUnits="userSpaceOnUse"><stop offset="0" stop-color="#17BDFF"/><stop offset="1" stop-color="#17BDFF" stop-opacity="0"/></linearGradient><linearGradient id="h" x1="238.26" x2="238.26" y1="171.99" y2="213.88" gradientUnits="userSpaceOnUse"><stop offset="0" stop-color="#17BDFF"/><stop offset="1" stop-color="#17BDFF" stop-opacity="0"/></linearGradient><linearGradient id="i" x1="315.7" x2="315.7" y1="148.64" y2="195.61" gradientUnits="userSpaceOnUse"><stop offset="0" stop-color="#17BDFF"/><stop offset="1" stop-color="#17BDFF" stop-opacity="0"/></linearGradient><linearGradient id="j" x1="268.73" x2="268.73" y1="127.45" y2="182.68" gradientUnits="userSpaceOnUse"><stop offset="0" stop-color="#17BDFF"/><stop offset="1" stop-color="#17BDFF" stop-opacity="0"/></linearGradient><linearGradient id="k" x1="158.29" x2="158.29" y1="139.86" y2="184.29" gradientUnits="userSpaceOnUse"><stop offset="0" stop-color="#17BDFF"/><stop offset="1" stop-color="#17BDFF" stop-opacity="0"/></linearGradient><linearGradient id="l" x1="214.14" x2="214.14" y1="259.16" y2="17.96" gradientUnits="userSpaceOnUse"><stop offset="0" stop-color="#17BDFF"/><stop offset=".865" stop-color="#17BDFF" stop-opacity="0"/></linearGradient><linearGradient id="m" x1="84.762" x2="344.5" y1="123.57" y2="123.57" gradientUnits="userSpaceOnUse"><stop offset=".48" stop-color="#B2B9C8"/><stop offset=".52" stop-color="#C4CAD9"/></linearGradient><linearGradient id="n" x1="84.762" x2="344.5" y1="123.57" y2="123.57" gradientUnits="userSpaceOnUse"><stop offset="0" stop-color="#BBC1D4" stop-opacity="0"/><stop offset=".35" stop-color="#BBC1D4" stop-opacity=".7"/><stop offset="1" stop-color="#BBC1D4" stop-opacity="0"/></linearGradient><linearGradient id="o" x1="84.752" x2="344.52" y1="75.407" y2="75.407" gradientUnits="userSpaceOnUse"><stop offset="0" stop-color="#D4DAE7"/><stop offset="1" stop-color="#E8ECF5"/></linearGradient><linearGradient id="p" x1="100.87" x2="328.4" y1="75.413" y2="75.413" gradientUnits="userSpaceOnUse"><stop offset=".01" stop-color="#3F4B75"/><stop offset="1" stop-color="#636F99"/></linearGradient><linearGradient id="q" x1="170.5" x2="242.5" y1="54.5" y2="105.5" gradientUnits="userSpaceOnUse"><stop offset="0" stop-color="#8F98BA"/><stop offset="1" stop-color="#68739A"/></linearGradient><clipPath id="a"><path fill="#fff" d="M0 .01h425v388H0z"/></clipPath></defs></svg>