<svg xmlns="http://www.w3.org/2000/svg" class="svg-product" viewBox="0 0 170 170" xml:space="preserve" data-animation-options="type: packageIcon; delay: 160;"><g class="animation-element"><path opacity=".08" class="svg-product__shadow" d="M85 82.013c-1.045 0-2.09.209-2.996.696-.766.418-71.266 40.893-72.032 41.311-.697.279-1.184.975-1.254 1.742.07.766.557 1.393 1.254 1.741.766.418 71.266 40.893 72.032 41.311a6.503 6.503 0 0 0 5.992 0c.766-.418 71.266-40.893 72.032-41.311.697-.278 1.184-.975 1.254-1.741-.07-.767-.557-1.394-1.254-1.742-.766-.418-71.266-40.893-72.032-41.31-.906-.419-1.951-.697-2.996-.697Z" fill="url(#a)"/></g><g class="svg-product__bottom animation-element"><path d="M161.212 74.344v20.332c-.069.766-.557 1.393-1.253 1.74-.766.419-71.23 40.873-71.996 41.29a6.495 6.495 0 0 1-5.988 0c-.766-.417-71.23-40.871-71.996-41.29-.696-.278-1.183-.974-1.253-1.74v-20.61c-.008-.508.696-1.114 1.253-1.393.766-.417 71.23-41.498 71.996-41.916a6.496 6.496 0 0 1 5.988 0c.766.418 71.23 41.499 71.996 41.916.557.279 1.045.766 1.253 1.393v.278Z" fill="url(#b)"/><path d="M161.204 74.344v20.332c-.069.766-.557 1.393-1.253 1.74-.766.419-71.23 40.873-71.996 41.29a6.495 6.495 0 0 1-5.988 0c-.766-.417-71.23-40.871-71.996-41.29-.696-.278-1.183-.974-1.253-1.74v-20.61h.07a2.36 2.36 0 0 1 1.183-1.393c.766-.417 71.23-41.498 71.996-41.916a6.496 6.496 0 0 1 5.988 0c.766.418 71.23 41.499 71.996 41.916.557.279 1.331.885 1.253 1.37v.301Z" fill="url(#c)"/><path d="M159.959 75.876c-.766.418-71.23 41.151-71.996 41.638a6.495 6.495 0 0 1-5.988 0c-.766-.418-71.23-41.15-71.996-41.638-.974-.348-1.462-1.392-1.183-2.297a1.99 1.99 0 0 1 1.183-1.184c.766-.418 71.23-41.15 71.996-41.638a6.496 6.496 0 0 1 5.988 0c.766.418 71.23 41.15 71.996 41.638.975.348 1.497 1.392 1.149 2.298-.139.487-.592.974-1.149 1.183Zm-5.013-3.62c-.696-.418-66.843-38.923-67.61-39.34a6.197 6.197 0 0 0-5.64 0c-.695.417-66.843 38.922-67.608 39.34-.906.348-1.393 1.323-1.045 2.228.209.487.557.905 1.045 1.044.696.418 66.912 38.922 67.609 39.34a6.197 6.197 0 0 0 5.64 0c.696-.418 66.913-38.922 67.609-39.34.905-.278 1.393-1.323 1.044-2.228-.139-.418-.557-.766-1.044-1.044Z" fill="#fff" fill-opacity=".5"/><path d="M81.766 114.729c-.557-.278-35.37-20.54-54.867-31.82 21.098-12.185 54.52-31.472 55.007-31.82a6.496 6.496 0 0 1 5.988 0c.557.278 33.491 19.356 54.658 31.61-19.426 11.28-54.658 31.752-55.215 32.03-1.671.905-3.76.905-5.57 0Z" fill="#333C5E"/><path opacity=".32" fill-rule="evenodd" clip-rule="evenodd" d="M16.946 87.407a.746.746 0 0 1 1.023-.255l3.727 2.236a.746.746 0 0 1-.767 1.279l-3.727-2.237a.745.745 0 0 1-.256-1.023Z" fill="#142149"/><path opacity=".48" fill-rule="evenodd" clip-rule="evenodd" d="M16.946 91.135a.745.745 0 0 1 1.023-.256l3.727 2.237a.746.746 0 0 1-.767 1.278l-3.727-2.236a.745.745 0 0 1-.256-1.023Zm6.71-.001a.745.745 0 0 1 1.023-.255l3.72 2.237a.745.745 0 1 1-.768 1.278l-3.72-2.237a.746.746 0 0 1-.255-1.023Z" fill="#142149"/><path opacity=".32" fill-rule="evenodd" clip-rule="evenodd" d="M23.656 94.855a.746.746 0 0 1 1.023-.255l3.72 2.237a.745.745 0 1 1-.768 1.277l-3.72-2.236a.746.746 0 0 1-.255-1.023Zm122.816-4.496a.7.7 0 0 1 .7.7v4.877a.7.7 0 1 1-1.4 0v-4.877a.7.7 0 0 1 .7-.7Zm2.801-1.749a.7.7 0 0 1 .7.7v4.877a.7.7 0 0 1-1.4 0V89.31a.7.7 0 0 1 .7-.7Zm2.8-1.749a.7.7 0 0 1 .701.7v5.254a.7.7 0 0 1-1.401 0V87.56a.7.7 0 0 1 .7-.7Zm2.802-1.401a.7.7 0 0 1 .7.701v4.877a.7.7 0 0 1-1.401 0v-4.877a.7.7 0 0 1 .701-.7ZM48.002 107.646a.717.717 0 0 1 .98-.265l26.913 15.432a.718.718 0 0 1-.713 1.245l-26.915-15.432a.718.718 0 0 1-.265-.98Z" fill="#142149"/><path d="M26.479 58.635h-.347v8.33h.347v-8.33Z" fill="url(#d)"/><path d="M37.585 79.46h-.347v8.329h.347v-8.33Z" fill="url(#e)"/><path d="M79.234 100.978h-.347v10.412h.347v-10.412Z" fill="url(#f)"/><path d="M58.41 83.624h-.347v9.718h.347v-9.718Z" fill="url(#g)"/><path d="M94.505 87.095h-.347v8.33h.347v-8.33Z" fill="url(#h)"/><path d="M118.8 72.518h-.347v8.33h.347v-8.33Z" fill="url(#i)"/><path d="M141.013 70.436h-.347v8.33h.347v-8.33Z" fill="url(#j)"/><path d="M116.718 91.629h-.347v8.33h.347v-8.33Z" fill="url(#k)"/><path opacity=".8" d="m156.106 46.859-143.03-.043v26.197c-.138.347-.124 1.215.056 1.634.208.486.549.788 1.035.927.694.416 66.871 38.868 67.566 39.285a6.18 6.18 0 0 0 5.622 0c.694-.417 66.708-38.814 67.402-39.23.286-.096.551-.225.763-.437.313-.313.545-.76.586-1.09-.097-6.538 0-18.544 0-27.243Z" fill="url(#l)"/></g><g class="svg-product__top animation-element"><path d="M161.282 44.68H8.718v3.37c.07.762.555 1.456 1.248 1.733.763.416 71.29 41.54 72.052 41.955a6.47 6.47 0 0 0 5.964 0c.763-.416 71.289-41.539 72.052-41.955.693-.347 1.179-.97 1.248-1.734v-3.37Z" fill="url(#m)"/><path d="M85 .27c-1.04 0-2.08.207-2.982.693-.763.485-71.289 41.608-72.052 42.024-.693.347-1.248 1.148-1.248 1.734.07.763.555 1.456 1.248 1.734.763.416 71.29 41.539 72.052 41.955a6.47 6.47 0 0 0 5.964 0c.763-.416 71.289-41.54 72.052-41.955.693-.347 1.179-.971 1.248-1.734 0-.586-.555-1.456-1.248-1.734-.763-.485-71.29-41.539-72.052-41.955C87.081.477 86.04.27 85 .27Z" fill="url(#n)"/><path opacity=".7" fill-rule="evenodd" clip-rule="evenodd" d="m115.137 61.199 26.907-15.95c.485-.278.416-.763-.069-1.04l-26.699-15.673c-.486-.277-1.11-.347-1.665-.07l-26.906 15.95c-.416.209-.347.694.138.972l26.63 15.741c.485.278 1.109.347 1.664.07ZM84.07 43.446c.485.277 1.11.346 1.664.07l26.907-15.95c.416-.209.346-.694-.139-.972l-26.63-15.742c-.485-.277-1.109-.346-1.664-.069l-26.907 15.95c-.416.208-.346.694.14.97L84.07 43.447ZM56.33 61.199l26.907-15.95c.416-.278.347-.763-.138-1.04l-26.63-15.742c-.485-.278-1.11-.347-1.664-.07l-26.907 15.95c-.416.208-.346.694.139.971l13.499 8.015 1.952-1.11.002.001.02-.012c.346-.2.907-.2 1.253 0 .345.198.345.522 0 .721a.829.829 0 0 1-.033.018l-1.96 1.115 11.896 7.063c.486.278 1.11.347 1.665.07Z" fill="#1D2540"/><path d="M59.243 26.733v-3.675h51.525v3.675c.07.278-.069.624-.277.763L85.734 41.99c-.486.208-1.11.208-1.526-.07L59.66 27.635c-.346-.208-.485-.555-.416-.902Z" fill="url(#o)"/><path d="M60.568 22.397s-.3-2.674 2.286-1.444" stroke="#fff" stroke-width=".5" stroke-linecap="round"/><path d="M62.177 21.46s-.306-2.677 2.29-1.442" stroke="#fff" stroke-width=".5" stroke-linecap="round"/><path d="M63.785 20.517s-.3-2.674 2.286-1.444" stroke="#fff" stroke-width=".5" stroke-linecap="round"/><path d="M65.392 19.579s-.3-2.674 2.286-1.444" stroke="#fff" stroke-width=".5" stroke-linecap="round"/><path d="M66.999 18.64s-.3-2.674 2.285-1.444" stroke="#fff" stroke-width=".5" stroke-linecap="round"/><path d="M68.606 17.7s-.3-2.673 2.285-1.443" stroke="#fff" stroke-width=".5" stroke-linecap="round"/><path d="M70.213 16.762s-.3-2.674 2.285-1.444" stroke="#fff" stroke-width=".5" stroke-linecap="round"/><path d="M71.819 15.824s-.3-2.674 2.285-1.444" stroke="#fff" stroke-width=".5" stroke-linecap="round"/><path d="M73.426 14.885s-.3-2.674 2.285-1.444" stroke="#fff" stroke-width=".5" stroke-linecap="round"/><path d="M75.032 13.946s-.3-2.674 2.286-1.444" stroke="#fff" stroke-width=".5" stroke-linecap="round"/><path d="M76.639 13.007s-.3-2.674 2.285-1.444" stroke="#fff" stroke-width=".5" stroke-linecap="round"/><path d="M78.245 12.068s-.3-2.674 2.286-1.444" stroke="#fff" stroke-width=".5" stroke-linecap="round"/><path d="M79.852 11.129s-.3-2.674 2.286-1.444m27.418 12.712s.3-2.674-2.286-1.444" stroke="#fff" stroke-width=".5" stroke-linecap="round"/><path d="M107.947 21.46s.306-2.677-2.29-1.442" stroke="#fff" stroke-width=".5" stroke-linecap="round"/><path d="M106.339 20.518s.3-2.674-2.286-1.444" stroke="#fff" stroke-width=".5" stroke-linecap="round"/><path d="M104.732 19.578s.3-2.673-2.285-1.443" stroke="#fff" stroke-width=".5" stroke-linecap="round"/><path d="M103.126 18.64s.3-2.674-2.286-1.444" stroke="#fff" stroke-width=".5" stroke-linecap="round"/><path d="M101.519 17.701s.3-2.673-2.286-1.443" stroke="#fff" stroke-width=".5" stroke-linecap="round"/><path d="M99.912 16.763s.3-2.674-2.286-1.444" stroke="#fff" stroke-width=".5" stroke-linecap="round"/><path d="M98.306 15.823s.3-2.673-2.286-1.443" stroke="#fff" stroke-width=".5" stroke-linecap="round"/><path d="M96.698 14.885s.3-2.674-2.285-1.444" stroke="#fff" stroke-width=".5" stroke-linecap="round"/><path d="M95.092 13.946s.3-2.674-2.285-1.444" stroke="#fff" stroke-width=".5" stroke-linecap="round"/><path d="M93.486 13.007s.3-2.674-2.286-1.444" stroke="#fff" stroke-width=".5" stroke-linecap="round"/><path d="M91.88 12.068s.3-2.674-2.286-1.444" stroke="#fff" stroke-width=".5" stroke-linecap="round"/><path d="M90.272 11.129s.3-2.674-2.285-1.444M90.2 36.816s1.674.721 1.712 2.89m-3.377-1.916s1.673.72 1.712 2.888m1.619-4.835s1.673.72 1.712 2.888m-.047-3.861s1.673.72 1.712 2.888m-.046-3.861s1.673.72 1.711 2.888m-.046-3.862s1.673.721 1.712 2.889m-.047-3.862s1.673.722 1.712 2.89m-.046-3.863s1.673.721 1.712 2.889m-.047-3.862s1.673.72 1.712 2.889m-.047-3.863s1.673.722 1.712 2.89m-.046-3.863s1.673.721 1.711 2.889m-.046-3.862s1.673.721 1.712 2.89m-.046-3.863s1.672.721 1.711 2.889m-29.87 7.817s-1.673.721-1.712 2.889m3.378-1.916s-1.673.72-1.712 2.888m-1.619-4.835s-1.673.72-1.712 2.888m.046-3.861s-1.672.721-1.71 2.89m.045-3.863s-1.673.72-1.711 2.888m.046-3.861s-1.673.72-1.712 2.889m.046-3.863s-1.672.722-1.711 2.89m.046-3.863s-1.673.721-1.712 2.889m.047-3.862s-1.673.721-1.712 2.89m.047-3.864s-1.673.722-1.712 2.89m.046-3.862s-1.673.72-1.711 2.889m.046-3.862s-1.673.72-1.712 2.889m.046-3.863s-1.673.721-1.711 2.889" stroke="#fff" stroke-width=".5" stroke-linecap="round"/><path d="M88.785 44.14v-3.676h51.595v3.675c.069.278-.07.625-.278.763l-24.826 14.425c-.486.208-1.11.208-1.595-.07L89.132 45.041a.903.903 0 0 1-.347-.901Z" fill="url(#p)"/><path fill-rule="evenodd" clip-rule="evenodd" d="M29.84 40.395v4.022c-.07.347.07.694.347.902l11.709 6.813.855-.493.004.002a1.42 1.42 0 0 1 .034-.02c.588-.34 1.542-.34 2.13-.002.588.34.587.889 0 1.228a1.44 1.44 0 0 1-.055.03l-.847.49 10.719 6.237c.416.278 1.04.278 1.525.07l24.827-14.425c.208-.138.346-.485.277-.763v-4.022l-51.525-.069Z" fill="url(#q)"/><path fill-rule="evenodd" clip-rule="evenodd" d="M84.278 7.802 59.52 22.295c-.416.277-.347.624.069.902L84.278 37.55c.416.278 1.04.278 1.525.07l24.757-14.494c.347-.208.347-.624-.138-.901L85.872 7.87c-.485-.278-1.109-.278-1.594-.07Zm29.403 17.683L88.924 39.98c-.416.208-.347.624.139.901l24.549 14.355c.416.278 1.04.278 1.525.07l24.827-14.494c.346-.208.346-.624-.139-.902l-24.549-14.355c-.486-.277-1.11-.277-1.595-.069Zm-58.876 0L47.05 30.04l.01.005c1.291.745 1.291 1.953-.001 2.7-1.283.74-3.356.747-4.65.02l-12.29 7.215c-.417.208-.347.624.069.901l12.035 7.038 1.89-1.09.003.002.035-.02c.588-.34 1.541-.34 2.13-.002.587.339.587.889-.001 1.228l-.055.03-1.886 1.09 10.398 6.08c.416.277 1.04.277 1.525.068l12.897-7.529c-.471-.686-.225-1.498.737-2.054.954-.55 2.344-.695 3.527-.435l7.666-4.475c.346-.208.346-.624-.139-.902L56.4 25.554c-.485-.277-1.11-.277-1.595-.069Z" fill="url(#r)"/><path fill-rule="evenodd" clip-rule="evenodd" d="M113.635 29.15a2.156 2.156 0 0 1 2.011 0c.56.33.56.89 0 1.243a2.156 2.156 0 0 1-2.011 0c-.56-.345-.56-.884 0-1.244Zm0 20.55a2.156 2.156 0 0 1 2.011 0c.56.331.56.89 0 1.243a2.156 2.156 0 0 1-2.011 0c-.56-.345-.56-.884 0-1.244ZM94.826 39.356a2.157 2.157 0 0 1 2.011 0c.56.332.56.892 0 1.244a2.157 2.157 0 0 1-2.011 0c-.56-.345-.56-.884 0-1.244Zm37.2 0a2.156 2.156 0 0 1 2.011 0c.559.332.559.892 0 1.244a2.156 2.156 0 0 1-2.011 0c-.56-.345-.56-.884 0-1.244Z" fill="#fff"/><path fill-rule="evenodd" clip-rule="evenodd" d="M104.143 23.974c-.207-.104-.207-.273 0-.377a.937.937 0 0 1 .751 0c.207.104.207.273 0 .377a.943.943 0 0 1-.751 0Zm-1.326 1.592c-.207-.102-.207-.27 0-.372a.956.956 0 0 1 .751 0c.208.103.208.27 0 .372a.953.953 0 0 1-.751 0Zm0-.796c-.207-.103-.207-.27 0-.373a.951.951 0 0 1 .751 0c.208.103.208.27 0 .372a.955.955 0 0 1-.751 0Zm-1.331 1.596c-.208-.105-.208-.273 0-.378a.939.939 0 0 1 .75 0c.208.105.208.274 0 .377a.939.939 0 0 1-.75 0Zm0-.797c-.208-.104-.208-.273 0-.377a.939.939 0 0 1 .75 0c.208.104.208.273 0 .377a.938.938 0 0 1-.75-.001Zm-1.326 1.592c-.207-.103-.207-.27 0-.372a.948.948 0 0 1 .751 0c.207.102.207.27 0 .372a.954.954 0 0 1-.751-.001Zm0-.797c-.207-.103-.207-.27 0-.372a.948.948 0 0 1 .751 0c.207.102.207.27 0 .372a.954.954 0 0 1-.751-.002v.002Zm-1.331 1.596c-.208-.104-.208-.273 0-.377a.941.941 0 0 1 .75 0c.208.105.208.273 0 .377a.94.94 0 0 1-.75-.001v.001Zm0-.796c-.208-.105-.208-.274 0-.378a.94.94 0 0 1 .75 0c.208.104.208.273 0 .377a.94.94 0 0 1-.75-.002v.003Zm-1.326 1.592c-.208-.103-.208-.27 0-.373a.953.953 0 0 1 .75 0c.208.103.208.27 0 .373a.954.954 0 0 1-.75-.003v.003Zm0-.797c-.208-.103-.208-.27 0-.373a.953.953 0 0 1 .75 0c.208.103.208.27 0 .373a.956.956 0 0 1-.75-.003v.003Zm-1.332 1.596c-.207-.104-.207-.273 0-.378a.94.94 0 0 1 .75 0c.208.105.208.274 0 .378a.94.94 0 0 1-.75-.003v.003Zm0-.797c-.207-.104-.207-.273 0-.377a.944.944 0 0 1 .75 0c.208.104.208.273 0 .377a.943.943 0 0 1-.75-.003v.003Zm-1.326 1.594c-.207-.104-.207-.27 0-.373a.953.953 0 0 1 .751 0c.208.103.208.27 0 .372a.951.951 0 0 1-.75-.004v.005Zm0-.797c-.207-.103-.207-.27 0-.373a.953.953 0 0 1 .751 0c.208.103.208.27 0 .373a.953.953 0 0 1-.75-.005v.005Zm-1.331 1.596c-.207-.105-.207-.273 0-.378a.942.942 0 0 1 .75 0c.208.105.208.274 0 .378a.94.94 0 0 1-.75-.006v.006Zm0-.797c-.207-.104-.207-.273 0-.377a.94.94 0 0 1 .75 0c.208.104.208.273 0 .377a.941.941 0 0 1-.75-.006v.006Zm-1.326 1.592c-.207-.103-.207-.27 0-.373a.952.952 0 0 1 .75 0c.208.103.208.27 0 .373a.953.953 0 0 1-.75-.006v.006Zm0-.797c-.207-.102-.207-.27 0-.372a.952.952 0 0 1 .75 0c.208.103.208.27 0 .373a.952.952 0 0 1-.75-.007v.006Zm-1.331 1.596c-.208-.104-.208-.273 0-.377a.942.942 0 0 1 .75 0c.208.104.208.273 0 .377a.94.94 0 0 1-.75-.006v.007Zm0-.796c-.208-.105-.208-.274 0-.378a.94.94 0 0 1 .75 0c.208.105.208.273 0 .377a.942.942 0 0 1-.75-.006v.007ZM89.53 33.54c-.208-.103-.208-.27 0-.373a.953.953 0 0 1 .75 0c.208.103.208.27 0 .372a.95.95 0 0 1-.75-.006v.007Zm0-.797c-.208-.103-.208-.27 0-.373a.953.953 0 0 1 .75 0c.208.103.208.27 0 .373a.952.952 0 0 1-.75-.007v.007Zm15.363-8.342c.207.104.207.273 0 .377a.942.942 0 0 1-.751 0c-.207-.104-.207-.273 0-.377a.944.944 0 0 1 .751-.007v.007Z" fill="#292E47" fill-opacity=".5"/><path d="M33.767 43.01 33 42.55v4.364l.767.46V43.01Zm1.253.723-.766-.46v4.364l.767.46v-4.364Zm.488.262.766.46v4.364l-.766-.46v-4.364Zm2.004 1.172-.767-.46v4.364l.767.46v-4.364Zm.459.273.767.46v4.365l-.767-.46V45.44Zm2.043 1.2-.767-.46v4.364l.767.46V46.64Zm.481.274.767.46v4.364l-.767-.46v-4.364Zm5.804 3.406-.767-.46v4.363l.767.46V50.32Zm.487.268.767.46v4.364l-.767-.46v-4.364Zm1.999 1.182-.745-.449v4.364l.734.427.01-4.342Zm.493.263.744.45-.01 4.342-.734-.428v-4.364Zm1.987 1.188-.745-.448v4.364l.734.427.01-4.343Zm.515.285.744.449-.01 4.342-.734-.427v-4.364Zm1.982 1.172-.745-.45v4.364l.734.428.011-4.343Z" fill="#1D2540" fill-opacity=".5"/><path fill-rule="evenodd" clip-rule="evenodd" d="m33.883 43.041-.746-.436 3.13-1.785.746.436-3.13 1.785Zm1.241.726-.745-.435 3.13-1.786.746.436-3.13 1.785Zm1.242.726-.745-.435 3.13-1.786.746.436-3.13 1.785Zm1.242.726-.745-.435 3.131-1.786.746.435-3.132 1.786Zm1.242.727-.745-.436 3.132-1.786.745.435-3.132 1.787Zm1.242.726-.745-.436 3.132-1.786.745.435-3.132 1.787Zm1.241.726-.745-.436 3.133-1.787.746.436-3.134 1.787Zm4.968 2.904-.745-.435 3.134-1.788.746.435-3.135 1.788Zm1.241.727-.745-.436 3.136-1.788.745.435-3.136 1.789Zm1.242.726-.745-.436 3.136-1.788.745.435-3.136 1.789Zm1.242.726-.745-.436 3.136-1.789.746.436-3.137 1.789Zm1.242.726-.745-.436 3.136-1.789.746.436-3.137 1.79Zm1.242.726-.745-.435 3.137-1.79.745.436-3.137 1.79Zm1.241.726-.745-.435 3.138-1.79.746.436-3.139 1.79Z" fill="#1D2540" fill-opacity=".5"/><path d="M49.354 38.28a1 1 0 0 1-1.013-.002l-2.084-1.233a.5.5 0 0 1 0-.86l8.099-4.777a1 1 0 0 1 1.01-.004l2.152 1.249a.5.5 0 0 1 .001.864l-8.165 4.764Zm4.302 2.527a1 1 0 0 1-1.014-.004l-2.081-1.235a.5.5 0 0 1 .001-.86l8.095-4.774a1 1 0 0 1 1.01-.003l2.152 1.248a.5.5 0 0 1 .001.865l-8.164 4.763Zm4.441 2.575a1 1 0 0 1-1.01 0l-2.102-1.227a.5.5 0 0 1-.002-.862l8.099-4.785a1 1 0 0 1 1.018.001l2.124 1.258a.5.5 0 0 1-.002.862l-8.125 4.753Zm4.346 2.55a1 1 0 0 1-1.012-.002l-2.11-1.241a.5.5 0 0 1 0-.862l8.109-4.77a1 1 0 0 1 1.012-.002l2.135 1.25a.5.5 0 0 1 0 .863l-8.134 4.764Z" fill="#fff"/><path fill-rule="evenodd" clip-rule="evenodd" d="M70.304 53.421c8.282-4.782 21.709-4.79 29.989-.02 8.279 4.771 8.277 12.516-.006 17.298-8.282 4.782-21.709 4.79-29.988.02-8.28-4.772-8.278-12.516.005-17.298Z" fill="#1D2540" fill-opacity=".7"/><path fill-rule="evenodd" clip-rule="evenodd" d="M71.075 53.225c7.856-4.536 20.592-4.545 28.445-.02 7.854 4.526 7.852 11.872-.004 16.408-7.857 4.536-20.592 4.544-28.446.018-7.853-4.525-7.851-11.87.005-16.406Z" fill="url(#s)"/><path fill-rule="evenodd" clip-rule="evenodd" d="M71.075 49.613c7.856-4.535 20.592-4.544 28.445-.018 7.854 4.525 7.852 11.87-.004 16.407-7.857 4.536-20.592 4.544-28.446.018-7.853-4.525-7.851-11.871.005-16.407Z" fill="url(#t)"/><path fill-rule="evenodd" clip-rule="evenodd" d="M78.036 31.69c-.21-.104-.21-.273 0-.377a.962.962 0 0 1 .757 0c.209.105.209.272 0 .377a.96.96 0 0 1-.757 0Zm-1.337.002c-.21-.105-.21-.275 0-.38a.95.95 0 0 1 .757 0c.209.104.209.275 0 .38a.948.948 0 0 1-.757 0Zm0-.804c-.21-.105-.21-.275 0-.38a.948.948 0 0 1 .757 0c.209.105.209.275 0 .38a.95.95 0 0 1-.757 0Zm-1.343-.001c-.209-.104-.209-.272 0-.376a.958.958 0 0 1 .757 0c.21.104.21.272 0 .376a.961.961 0 0 1-.757 0Zm0-.804c-.209-.104-.209-.272 0-.376a.96.96 0 0 1 .757 0c.21.104.21.272 0 .376a.96.96 0 0 1-.757 0Zm-1.336.002c-.209-.104-.209-.275 0-.38a.95.95 0 0 1 .757 0c.209.105.209.275 0 .38a.95.95 0 0 1-.757 0Zm0-.803c-.209-.105-.209-.276 0-.381a.948.948 0 0 1 .757 0c.209.105.209.276 0 .38a.948.948 0 0 1-.757 0Zm-1.343-.002c-.208-.104-.208-.272 0-.376a.96.96 0 0 1 .757 0c.21.104.21.272 0 .376a.96.96 0 0 1-.757-.001v.001Zm0-.804c-.208-.103-.208-.272 0-.375a.96.96 0 0 1 .757 0c.21.103.21.271 0 .376a.959.959 0 0 1-.757-.002v.001Zm-1.336.003c-.21-.105-.21-.276 0-.38a.948.948 0 0 1 .757 0c.209.104.209.275 0 .38a.948.948 0 0 1-.757-.002v.002Zm0-.804c-.21-.105-.21-.275 0-.38a.95.95 0 0 1 .757 0c.209.104.209.275 0 .38a.948.948 0 0 1-.757-.002v.002Zm-1.342-.001c-.21-.104-.21-.273 0-.377a.96.96 0 0 1 .757 0c.209.104.209.272 0 .376a.961.961 0 0 1-.757-.001v.002Zm0-.804c-.21-.104-.21-.272 0-.376a.959.959 0 0 1 .757 0c.209.104.209.272 0 .376a.963.963 0 0 1-.757-.003v.003Zm-1.337.002c-.209-.105-.209-.275 0-.38a.948.948 0 0 1 .757 0c.21.105.209.275 0 .38a.95.95 0 0 1-.757-.002v.002Zm0-.803c-.209-.105-.209-.276 0-.38a.948.948 0 0 1 .757 0c.21.104.209.275 0 .38a.95.95 0 0 1-.757-.003v.003Zm-1.342-.002c-.21-.103-.21-.272 0-.375a.96.96 0 0 1 .757 0c.209.103.209.271 0 .375a.96.96 0 0 1-.757-.003v.003Zm0-.803c-.21-.104-.21-.273 0-.376a.96.96 0 0 1 .757 0c.209.103.209.272 0 .375a.96.96 0 0 1-.757-.003v.003Zm-1.337.002c-.209-.105-.209-.275 0-.38a.95.95 0 0 1 .757 0c.209.105.209.275 0 .38a.949.949 0 0 1-.757-.004v.004Zm0-.804c-.209-.105-.209-.275 0-.38a.948.948 0 0 1 .757 0c.209.105.209.275 0 .38a.949.949 0 0 1-.757-.004v.004Zm-1.342-.001c-.21-.104-.21-.272 0-.376a.96.96 0 0 1 .757 0c.209.104.209.272 0 .376a.958.958 0 0 1-.757-.004v.004Zm0-.804c-.21-.103-.21-.272 0-.375a.959.959 0 0 1 .757 0c.209.103.209.271 0 .375a.96.96 0 0 1-.757-.005v.005Zm-1.337.003c-.209-.105-.209-.276 0-.38a.948.948 0 0 1 .757 0c.21.104.21.274 0 .38a.947.947 0 0 1-.757-.005v.005Zm0-.804c-.209-.105-.209-.276 0-.38a.946.946 0 0 1 .757 0c.21.104.21.274 0 .38a.948.948 0 0 1-.757-.005v.005Zm15.49 9.266c.209.104.209.272 0 .376a.96.96 0 0 1-.757 0c-.21-.103-.21-.271 0-.375a.96.96 0 0 1 .756-.006v.005Z" fill="#292E47" fill-opacity=".5"/><path d="M86.254 28.409a3 3 0 0 1-3.038-.008l-8.967-5.296a1 1 0 0 1 0-1.722l8.968-5.296a3 3 0 0 1 3.037-.008l9.086 5.301a1 1 0 0 1 0 1.728l-9.086 5.3Z" fill="#fff"/><path d="M85.003 11.249h-2.306c-.255 0-.346-.336-.127-.465l2.13-1.258a.6.6 0 0 1 .608-.002l2.157 1.259c.22.129.13.466-.126.466h-2.336Z" fill="#1D2540" fill-opacity=".4"/><path d="M90.546 60.831c1.507-.822 1.507-2.191.137-3.013a2.643 2.643 0 0 0-1.37-.41c1.097-.823.96-2.055-.273-2.877-1.507-.822-3.835-.822-5.205 0-.136-.137-.273-.137-.41-.274-1.233-.685-3.287-.685-4.657 0-1.507.685-1.507 1.78-.41 2.602l7.121 4.109c1.37.685 3.561.685 5.067-.137Z" fill="#fff"/><path d="M138.145 44.427a.5.5 0 1 0-.521-.854l.521.854Zm-3.405.906a.5.5 0 1 0 .52.854l-.52-.854Zm2.884-1.76-2.884 1.76.52.854 2.885-1.76-.521-.854Z" fill="#1D2540" fill-opacity=".5"/></g><defs><linearGradient id="a" x1="85" y1="82.013" x2="85" y2="169.546" gradientUnits="userSpaceOnUse"><stop stop-color="#13151E" stop-opacity="0"/><stop offset="1" stop-color="#131532"/></linearGradient><linearGradient id="b" x1="8.726" y1="84.232" x2="161.212" y2="84.232" gradientUnits="userSpaceOnUse"><stop offset=".48" stop-color="#D2D8E6"/><stop offset=".52" stop-color="#E0E4EF"/></linearGradient><linearGradient id="c" x1="8.718" y1="84.232" x2="161.204" y2="84.232" gradientUnits="userSpaceOnUse"><stop stop-color="#BBC1D4" stop-opacity="0"/><stop offset=".35" stop-color="#BBC1D4" stop-opacity=".7"/><stop offset="1" stop-color="#BBC1D4" stop-opacity="0"/></linearGradient><linearGradient id="d" x1="26.305" y1="58.635" x2="26.305" y2="66.965" gradientUnits="userSpaceOnUse"><stop stop-color="#00BAFF"/><stop offset="1" stop-color="#00BAFF" stop-opacity="0"/></linearGradient><linearGradient id="e" x1="37.412" y1="79.459" x2="37.412" y2="87.789" gradientUnits="userSpaceOnUse"><stop stop-color="#01B2FD"/><stop offset="1" stop-color="#00BAFF" stop-opacity="0"/></linearGradient><linearGradient id="f" x1="79.06" y1="100.978" x2="79.06" y2="111.39" gradientUnits="userSpaceOnUse"><stop stop-color="#01B2FD"/><stop offset="1" stop-color="#00BAFF" stop-opacity="0"/></linearGradient><linearGradient id="g" x1="58.236" y1="83.624" x2="58.236" y2="93.342" gradientUnits="userSpaceOnUse"><stop offset=".1" stop-color="#01B2FD"/><stop offset="1" stop-color="#00BAFF" stop-opacity="0"/></linearGradient><linearGradient id="h" x1="94.332" y1="87.095" x2="94.332" y2="95.425" gradientUnits="userSpaceOnUse"><stop offset=".1" stop-color="#01B2FD"/><stop offset="1" stop-color="#00BAFF" stop-opacity="0"/></linearGradient><linearGradient id="i" x1="118.627" y1="72.518" x2="118.627" y2="80.848" gradientUnits="userSpaceOnUse"><stop offset=".1" stop-color="#01B2FD"/><stop offset="1" stop-color="#00BAFF" stop-opacity="0"/></linearGradient><linearGradient id="j" x1="140.839" y1="70.436" x2="140.839" y2="78.766" gradientUnits="userSpaceOnUse"><stop stop-color="#01B2FD"/><stop offset="1" stop-color="#00BAFF" stop-opacity="0"/></linearGradient><linearGradient id="k" x1="116.544" y1="91.629" x2="116.544" y2="99.959" gradientUnits="userSpaceOnUse"><stop stop-color="#01B2FD"/><stop offset="1" stop-color="#00BAFF" stop-opacity="0"/></linearGradient><linearGradient id="l" x1="84.568" y1="115.375" x2="84.568" y2="46.706" gradientUnits="userSpaceOnUse"><stop stop-color="#17BDFF"/><stop offset=".8" stop-color="#17BDFF" stop-opacity="0"/></linearGradient><linearGradient id="m" x1="8.718" y1="68.573" x2="161.282" y2="68.573" gradientUnits="userSpaceOnUse"><stop stop-color="#373F6E"/><stop offset="1" stop-color="#5A6291"/></linearGradient><linearGradient id="n" x1="8.718" y1="44.675" x2="161.282" y2="44.675" gradientUnits="userSpaceOnUse"><stop offset=".005" stop-color="#3F4B75"/><stop offset="1" stop-color="#636F99"/></linearGradient><linearGradient id="o" x1="59.226" y1="32.598" x2="110.786" y2="32.598" gradientUnits="userSpaceOnUse"><stop stop-color="#373F6E"/><stop offset=".46" stop-color="#373F6E"/><stop offset="1" stop-color="#5A6291"/></linearGradient><linearGradient id="p" x1="88.768" y1="49.969" x2="140.398" y2="49.969" gradientUnits="userSpaceOnUse"><stop stop-color="#373F6E"/><stop offset="1" stop-color="#5A6291"/></linearGradient><linearGradient id="q" x1="29.822" y1="50.108" x2="81.383" y2="50.108" gradientUnits="userSpaceOnUse"><stop stop-color="#373F6E"/><stop offset="1" stop-color="#5A6291"/></linearGradient><linearGradient id="r" x1="29.838" y1="31.553" x2="140.208" y2="31.553" gradientUnits="userSpaceOnUse"><stop stop-color="#5B6791"/><stop offset="1" stop-color="#69759F"/></linearGradient><linearGradient id="s" x1="65.182" y1="61.419" x2="105.409" y2="61.419" gradientUnits="userSpaceOnUse"><stop stop-color="#1D53DA"/><stop offset="1" stop-color="#3F75FC"/></linearGradient><linearGradient id="t" x1="65.182" y1="57.807" x2="105.345" y2="57.807" gradientUnits="userSpaceOnUse"><stop stop-color="#0397F6"/><stop offset="1" stop-color="#00BAFF"/></linearGradient></defs></svg>