<svg xmlns="http://www.w3.org/2000/svg" fill="#fff" viewBox="0 0 48 48"><path fill="url(#a)" stroke="url(#b)" stroke-linecap="round" stroke-linejoin="round" d="m2.5 34.313 21 12.169 21-12.169-8.3-3.967-12.7 7.08-12.596-7.08-8.403 3.967z"/><path fill="#007CFC" stroke="#007CFC" stroke-linecap="round" stroke-linejoin="round" d="m38.348 24.109 6.152 3.204-21 11.9-21-11.9 5.879-3.252 15.12 8.432 14.849-8.384z"/><path stroke="#393D45" stroke-linecap="round" stroke-linejoin="round" d="M44.5 13.313v7L23.458 32.249 2.5 20.313v-7"/><path stroke="#393D45" stroke-linecap="round" stroke-linejoin="round" d="m2.5 13.313 20.958 11.9 21.042-11.9L23.458 1.588 2.5 13.313z"/><circle r=".64" fill="#007CFC" stroke="#007CFC" stroke-width=".5" transform="matrix(.80916 .58758 -.85251 .52271 23.602 23.126)"/><circle r=".64" fill="#007CFC" stroke="#007CFC" stroke-width=".5" transform="matrix(.80916 .58758 -.85251 .52271 23.602 3.51)"/><circle r=".64" fill="#007CFC" stroke="#007CFC" stroke-width=".5" transform="matrix(.80916 .58758 -.85251 .52271 40.91 13.203)"/><circle r=".64" fill="#007CFC" stroke="#007CFC" stroke-width=".5" transform="matrix(.80916 .58758 -.85251 .52271 6.063 13.203)"/><path stroke="#393D45" stroke-linecap="round" d="M26.5 25.124v3.753m2-4.777v3.753m2-4.953v3.753m2-4.853v3.753m2-4.933v3.753m2-4.923v3.753"/><path fill="#007CFC" d="M20.244 15.179a.5.5 0 0 0 .071-.998l-.071.998zm2.068-.242c-1.09.44-1.923 1.527-2.288 2.607-.357 1.054-.341 2.38.698 3.072l.555-.832c-.46-.307-.614-1.01-.306-1.92.3-.883.966-1.697 1.716-2l-.375-.927zm1.605-.057c-.274.448-.386 1.014-.38 1.58a4.74 4.74 0 0 0 .366 1.754c.47 1.13 1.435 2.183 2.9 2.304l.082-.996c-.97-.08-1.677-.777-2.059-1.692a3.74 3.74 0 0 1-.29-1.378c-.004-.446.087-.81.234-1.051l-.853-.522zm1.843-.66c0 1.707 1.47 2.864 3.024 3.405 1.572.547 3.515.576 4.835-.216l-.514-.858c-.98.588-2.588.618-3.992.13-1.422-.495-2.353-1.408-2.353-2.46h-1zm1.437.078c1.193.91 3.02.96 4.567.664a8.883 8.883 0 0 0 2.182-.706c.615-.3 1.166-.683 1.47-1.138l-.832-.555c-.157.235-.518.523-1.076.794a7.888 7.888 0 0 1-1.931.623c-1.463.279-2.927.168-3.774-.477l-.606.795zM27.5 12.9a9.33 9.33 0 0 0 3.697-.782c1.11-.5 2.11-1.277 2.44-2.35l-.955-.295c-.205.665-.884 1.278-1.896 1.733a8.331 8.331 0 0 1-3.286.694v1zm-1.082-.965c.78-.26 1.882-.968 2.725-1.768.425-.403.811-.854 1.06-1.315.244-.451.4-.994.206-1.52l-.939.345c.05.134.038.358-.147.7-.18.333-.485.702-.868 1.065-.773.733-1.753 1.344-2.353 1.544l.316.949zm-1.565-.581a6.677 6.677 0 0 0 1.388-2.013c.354-.82.53-1.789.238-2.782l-.959.282c.208.707.094 1.43-.197 2.104a5.678 5.678 0 0 1-1.177 1.702l.707.707zm-1.325-.246c.112-.508.23-1.594.144-2.624-.044-.515-.142-1.05-.34-1.502-.198-.45-.524-.88-1.054-1.056l-.316.948c.16.054.318.2.454.51s.22.722.26 1.184c.078.924-.033 1.908-.125 2.325l.977.214zm-1.83.309c-.06-.7-.454-1.684-1.117-2.55-.67-.873-1.66-1.685-2.963-1.945l-.196.98c.997.2 1.795.83 2.365 1.574.577.753.874 1.562.915 2.028l.996-.087zm-1.934.21c-.29-.4-.744-.756-1.251-1.056a8.751 8.751 0 0 0-1.735-.769 8.23 8.23 0 0 0-1.878-.385c-.603-.045-1.205-.001-1.706.199l.371.929c.305-.122.736-.17 1.26-.13a7.153 7.153 0 0 1 1.645.339c.558.18 1.091.416 1.534.678.45.266.775.54.951.782l.809-.588zm-.386 1.43c-.457-.305-1.12-.442-1.797-.48a8.877 8.877 0 0 0-2.227.176c-.748.154-1.49.404-2.09.758-.59.35-1.111.84-1.287 1.5l.966.258c.08-.298.344-.61.83-.896.477-.282 1.106-.501 1.782-.64a7.875 7.875 0 0 1 1.97-.158c.618.035 1.066.158 1.299.314l.554-.832zm.937 1.124c-.423-.03-1.005.119-1.57.341-.586.23-1.228.57-1.791.987-.556.413-1.073.932-1.352 1.534-.292.63-.317 1.342.112 2.04l.852-.525c-.233-.378-.225-.732-.057-1.094.18-.39.55-.788 1.041-1.152a6.983 6.983 0 0 1 1.56-.86c.534-.209.942-.287 1.134-.273l.071-.998z"/><path fill-rule="evenodd" stroke="#007CFC" d="M15.37 8.445c4.492-2.722 11.773-2.727 16.264-.01 4.49 2.716 4.489 7.125-.003 9.848-4.491 2.722-11.773 2.727-16.264.01-4.49-2.715-4.489-7.125.003-9.848z" clip-rule="evenodd"/><path fill="#007CFC" fill-rule="evenodd" d="M19.919 11.121c1.97-1.117 5.165-1.119 7.135-.004 1.97 1.113 1.97 2.922 0 4.038-1.971 1.117-5.166 1.119-7.136.005s-1.97-2.922.001-4.039z" clip-rule="evenodd"/><defs><linearGradient id="a" x1="3.193" x2="43.793" y1="38.402" y2="38.423" gradientUnits="userSpaceOnUse"><stop offset="0" stop-color="#B2CFFD"/><stop offset="1" stop-color="#D3E3FE"/></linearGradient><linearGradient id="b" x1="2.672" x2="44.313" y1="38.402" y2="38.423" gradientUnits="userSpaceOnUse"><stop offset="0" stop-color="#B2CFFD"/><stop offset="1" stop-color="#D3E3FE"/></linearGradient></defs></svg>