<svg xmlns="http://www.w3.org/2000/svg" class="svg-illustration svg-illustration--accelerate" viewBox="0 0 244 244"><path d="M122.6 94c-1.7 0-3.3.4-4.8 1.1-1.2.8-113.6 65-114.8 65.7s-2 1.7-2 2.7c0 1.1.8 2 2 2.7s113.6 64.9 114.8 65.6c3 1.5 6.6 1.5 9.6 0 1.2-.7 113.6-64.9 114.8-65.6 1.2-.7 2-1.7 2-2.7 0-1.1-.8-2-2-2.7S128.6 95.9 127.4 95.2c-1.5-.8-3.1-1.2-4.8-1.2" style="opacity:8.000000e-02;fill:url(#svg-gradient__gray-shadow);enable-background:new" class="animation-element"/><g class="animation-element"><path d="M244 115.9s0 .2 0 0v8.5c-.1 1.2-.9 2.2-2 2.8-1.2.7-113.9 65.4-115.2 66-3 1.6-6.6 1.6-9.6 0-1.2-.7-113.9-65.4-115.2-66-1.1-.4-1.9-1.6-2-2.8v-9h.1c.3-1 1-1.8 1.9-2.2 1.2-.7 113.9-66.4 115.2-67 3-1.6 6.6-1.6 9.6 0 1.2.7 113.9 66.4 115.2 67 .9.4 1.6 1.2 1.9 2.2h.1v.5z" style="fill:url(#svg-gradient__gray-middle)"/><path d="M121.9 45.8c-1.7 0-3.3.4-4.8 1.1-1.3.8-113.9 65.7-115.1 66.4-1.2.7-2 1.7-2 2.8 0 1.1.8 2.1 2 2.8s113.9 65.6 115.1 66.4c3 1.5 6.6 1.5 9.6 0 1.2-.7 113.9-65.7 115.1-66.4s2-1.7 2-2.8c0-1.1-.8-2.1-2-2.8S127.9 47.7 126.7 47c-1.5-.8-3.2-1.2-4.8-1.2" style="fill:url(#svg-gradient__gray-top-dark)"/></g><g class="animation-element"><path d="M120 80.5 0 80.1v5.7c.1 1.2.9 2.3 2 2.8l115.2 67.1c3 1.6 6.5 1.6 9.5 0l115.2-67.1c1.1-.6 1.9-1.6 2-2.8 0-1.3.1-5.3.1-5.3" style="fill:url(#svg-gradient__dark-middle)"/><path d="M121.9 10c-1.7 0-3.3.4-4.8 1.1C115.8 11.9 3.2 76.8 2 77.5s-2 1.7-2 2.8c0 1.1.8 2.1 2 2.8 1.2.7 113.9 65.6 115.1 66.4 3 1.5 6.6 1.5 9.6 0 1.2-.7 113.9-65.7 115.1-66.4 1.2-.7 2-1.7 2-2.8 0-1.1-.8-2.1-2-2.8S127.9 11.9 126.7 11.2c-1.5-.8-3.2-1.2-4.8-1.2" style="fill:url(#svg-gradient__dark-top-dark)"/><path d="M7.3 78.9c1-.5 2.2-.5 3.2 0 .9.5.9 1.3 0 1.9-1 .5-2.2.5-3.2 0-.9-.6-.9-1.4 0-1.9zm4.8-2.8c1-.5 2.2-.5 3.2 0 .9.5.9 1.3 0 1.9-1 .5-2.2.5-3.2 0-.9-.6-.9-1.4 0-1.9zm4.8-2.8c1-.5 2.2-.5 3.2 0 .9.5.9 1.3 0 1.9-1 .5-2.2.5-3.2 0-.9-.5-.9-1.4 0-1.9z" style="opacity:.4;enable-background:new"/><path class="svg-accelerate-st7" d="m124.5 101.3-6.9 4.1c-7.1-1.2-14.2-3.5-19.8-6.8-9.4-5.4-13.8-12.4-13.5-19.4v-3.5c-.1-6.9 4.4-13.8 13.5-19.1 18-10.4 47.2-10.3 65.4.2 5.6 3.2 9.5 7.1 11.6 11.2v4.1l-5.5 3.3c-2-3.5-7.1-8.6-13.4-12.3-14.1-8.1-38.1-7-52.6 1.3-6.4 3.7-10 8.2-10.9 12.9.7 4.5 4.1 8.9 10.1 12.4 10.1 5.8 16.8 6.5 22 7.3v4.3z"/><path class="svg-accelerate-st7" d="M138.5 62.4 136 82.2c-.5.9-1.3 1.6-2.1 2.1-3.4 2-9.2 1.9-12.6-.1-1.8-1.1-2.5-2.4-2.5-3.8v-4.6c0-1.3.5-2.4 1.9-3.4l17.8-15.1v5.1z"/><path d="m174.8 67.9-5.6 3.2c-2-3.5-7.1-8.6-13.4-12.3-14.1-8.1-38.1-7-52.6 1.3-14.5 8.4-14.9 21.3-.8 29.5 10.1 5.8 16.7 6.6 22 7.3l-6.9 4c-7.1-1.2-14.2-3.5-19.8-6.8-18.1-10.4-17.9-27.3 0-37.7s47.2-10.3 65.4.2c5.7 3.3 9.6 7.2 11.7 11.3zm-36.2-11L136 76.8c-.5.9-1.3 1.6-2.1 2.1-3.4 2-9.2 1.9-12.6-.1-3.2-1.8-3.4-4.8-.6-6.7l17.9-15.2z" style="fill:#fff"/></g><defs><linearGradient id="svg-gradient__gray-middle" x1="0%" y1="0%" x2="100%" y2="0%"><stop offset="0" style="stop-color:#cad1e0"/><stop offset=".46" style="stop-color:#bec5d8"/><stop offset=".54" style="stop-color:#d4d9e6"/><stop offset="1" style="stop-color:#e4e7f0"/></linearGradient><linearGradient id="svg-gradient__gray-top-dark" x1="0%" y1="0%" x2="100%" y2="0%"><stop offset="0" style="stop-color:#99a1be"/><stop offset="1" style="stop-color:#b3bacf"/></linearGradient><linearGradient id="svg-gradient__gray-shadow" x1="122.26" y1="-395.29" x2="122.26" y2="-520.94" gradientTransform="matrix(1 0 0 -1 0 -278)" gradientUnits="userSpaceOnUse"><stop offset="0" stop-color="#13151e" stop-opacity="0"/><stop offset="1" stop-color="#131532"/></linearGradient><linearGradient id="svg-gradient__dark-top-dark" gradientUnits="userSpaceOnUse" x1="12" y1="419.933" x2="232" y2="419.933" gradientTransform="translate(0 -356)"><stop offset=".005" style="stop-color:#3f4b75"/><stop offset="1" style="stop-color:#636f99"/></linearGradient><linearGradient id="svg-gradient__dark-top-light" gradientUnits="userSpaceOnUse" x1="41.697" y1="400.85" x2="200.853" y2="400.85" gradientTransform="translate(0 -356)"><stop offset="0" style="stop-color:#5b6791"/><stop offset="1" style="stop-color:#69759f"/></linearGradient><linearGradient id="svg-gradient__dark-middle" gradientUnits="userSpaceOnUse" x1="0%" y1="0%" x2="100%" y2="0%"><stop offset="0" stop-color="#373f6e"/><stop offset="1" stop-color="#5a6291"/></linearGradient><linearGradient id="svg-gradient__dark-middle-2" gradientUnits="userSpaceOnUse" x1="0%" y1="0%" x2="100%" y2="0%"><stop offset=".01" stop-color="#353d6c"/><stop offset="1" stop-color="#575f8e"/></linearGradient><linearGradient id="bg_1_" gradientUnits="userSpaceOnUse" x1="0" y1="-230.44" x2="244" y2="-230.44" gradientTransform="matrix(1 0 0 -1 0 -112)"><stop offset="0" style="stop-color:#373f6e"/><stop offset="1" style="stop-color:#5a6291"/></linearGradient><linearGradient id="Kształt_1_kopia_35_1_" gradientUnits="userSpaceOnUse" x1="0" y1="163.688" x2="243.8" y2="163.688" gradientTransform="matrix(1 0 0 -1 0 244)"><stop offset=".005" style="stop-color:#3f4b75"/><stop offset="1" style="stop-color:#636f99"/></linearGradient><style>.svg-accelerate-st7{fill:#d5d9e2}</style></defs></svg>