<svg xmlns="http://www.w3.org/2000/svg" fill="#fff" viewBox="0 0 48 48"><path fill="url(#a)" stroke="url(#b)" stroke-linecap="round" stroke-linejoin="round" stroke-miterlimit="10" d="M1.9 34.7 24 47.5l22.1-12.7-6.7-3.9L24 40 8.4 31l-6.5 3.7z"/><path fill="#007CFC" stroke="#007CFC" stroke-linecap="round" stroke-linejoin="round" d="M1.9 27.8 24 40.5l22.1-12.7-5.2-3S37.755 26.5 37 27s-1.36.078-3-1-.5 3.5-3 4.5-3.5 1.5-7 1.5-7.233-1.5-8-2.5c-.767-1-.822-2.25-1-3.5s-2.876 1.5-4 1-4-2.1-4-2.1l-5.1 2.9z"/><path fill="#393D45" d="m47.396 20.727.252.432.005-.003-.257-.429zm-10.571 6.171.197.46.028-.012.027-.016-.252-.432zm-.65-.03.278-.415-.012-.008-.013-.008-.253.432zm-24.42.03.197.46.029-.012.027-.016-.253-.432zm-.65-.03.278-.415-.012-.008-.013-.008-.252.432zM.654 20.758l-.278.416.013.008.012.007.253-.431zm46.847-.194.5-.004-.5.004zm-46.993.004.491-.09-.491.09zM13.025 8.669l.5.002-.5-.002zm0-.002-.5-.002.5.002zm34.118 11.627-10.571 6.172.504.863 10.57-6.171-.503-.864zm-10.516 6.144a.3.3 0 0 1-.123.023c-.044-.002-.058-.013-.053-.009l-.554.832c.353.235.805.21 1.124.073l-.394-.919zm-25.07 0a.3.3 0 0 1-.122.023c-.044-.002-.058-.013-.053-.009l-.554.832c.353.235.805.21 1.124.073l-.394-.919zm-.2-.002L.904 20.324l-.504.863L10.853 27.3l.504-.864zM47.5 15.291H47v5.275l1-.007v-5.267h-.5zm-.5 5.274a.31.31 0 0 1 .139-.268l.514.858a.691.691 0 0 0 .347-.597l-1 .007zm-20.955-2.113c.002.02.001 0 0-.114l-.002-.37a617.932 617.932 0 0 1-.007-2.186v-.357l-.001-.1v-.035l-.5.001-.5.002v.492l.004 1.087a623.933 623.933 0 0 0 .006 1.475c0 .071.001.163.005.2l.995-.095zm-3.615-2.96-.5-.002v.126l-.001.334a911.489 911.489 0 0 0 0 2.512c0 .009 0 .06.004.096l.993-.117c.004.028.003.047.002.006v-.1L22.924 18a364.251 364.251 0 0 1 .003-2.047v-.461h-.5zM.93 20.339c-.002-.001.008.005.022.023a.267.267 0 0 1 .047.113l-.983.182a.808.808 0 0 0 .36.515l.555-.833zm.07.136c.008.045.007.086.006.053v-.042l-.002-.172L1 19.71a750.886 750.886 0 0 1 .002-3.603l.001-.59v-.224l-.5-.002h-.5v.014a1515.766 1515.766 0 0 0 .001 5.197 3.826 3.826 0 0 0 .004.105c0 .004.002.024.007.05l.983-.182zm14.066 3.91-3.562 2.08.504.864 3.563-2.08-.505-.863zM13.521 9.898c0-.404.002-.852.004-1.227l-1-.004c-.002.375-.004.824-.004 1.229l1 .002zm.004-1.227v-.002l-1-.003v.001l1 .004zm0-.001.002-.737h-1c0 .133 0 .403-.002.732l1 .005zm21.447-.745-.5-.003v.054a282.447 282.447 0 0 1-.004.667c-.002.416-.004.946-.004 1.397h1a380.497 380.497 0 0 1 .008-2.058v-.055l-.5-.003zm1.455 18.512-3.324-1.944-.505.864 3.324 1.943.505-.863z"/><path stroke="#393D45" d="M15.318 22.955s.025 3.147.052 4.378c.025 1.194.872 2.382 2.542 3.292 3.39 1.848 8.889 1.844 12.28-.008 1.71-.933 2.507-2.063 2.494-3.284-.01-.95 0-3.867 0-3.867"/><path fill="#393D45" d="m13.143 7.734-.253-.431-.012.007-.012.008.277.416zm10.542-6.17-.197-.46-.029.012-.027.016.253.431zM13.173 8.117l-.277.416.012.009.014.008.251-.433zm10.512 6.113.277-.416-.012-.009-.014-.008-.251.433zm.65.03.197.459.028-.013.027-.015-.252-.432zm10.542-6.172.252.431.005-.002-.257-.43zm-.06-.384-.252.432.004.002.248-.434zM24.366 1.593l.252-.432-.004-.002-.248.434zm1.299 13.672.223.447.015-.008.014-.008-.252-.431zm10.542-6.172-.197-.46-.029.013-.027.016.253.431zM25.724 15.65l.252-.432-.004-.003-.248.435zm10.453 6.112.277-.416-.012-.008-.013-.008-.252.432zm.65.03.196.459.029-.012.026-.016-.252-.432zm10.57-6.172.252.432.005-.003-.257-.43zm-.059-.384-.252.432.004.002.248-.434zM36.885 9.123l.253-.432-.005-.002-.248.434zm-29.05 1.91L7.58 10.6l-.743.436.747.429.25-.434zm3.302-1.94-.197-.46-.03.013-.026.016.253.431zm-3.299 1.941.25-.433-.25.433zm0 1.15-.25-.433.25.433zm-1.98.008.245-.436-.25-.14-.248.145.253.431zM.625 15.265l.223.447.015-.008.015-.008-.253-.431zm.03.384-.278.416.012.008.013.007.252-.431zm5.125 2.997-.253.431.25.147.252-.145-.25-.433zm.82-.473.25.434-.25-.434zm.907 0 .25-.433-.25.433zm0 .523.25.433-.25-.433zm-.024.013-.232-.443-.009.004-.009.006.25.433zm-.803.463-.25-.433-.745.43.743.435.252-.432zm4.427 2.589.278-.416-.013-.008-.012-.008-.253.432zm.65.03.197.459.028-.012.027-.016-.252-.432zm5.491-3.207.252.432.465-.271-.305-.444-.412.283zm.314-.874.25.433-.25-.433zm1.502-.185-.108.488.191.042.169-.099-.252-.431zm3.264-1.906.252.432.005-.003-.257-.43zm-.06-.384-.251.432.004.002.248-.434zM11.817 9.123l.252-.432-.004-.002-.248.434zm1.581-.957L23.94 1.995l-.505-.863-10.542 6.171.505.863zm.055-.463c-.012-.008-.003-.004.014.017a.304.304 0 0 1 .058.152.346.346 0 0 1-.046.213.258.258 0 0 1-.056.066l-.555-.832c-.17.114-.374.337-.337.663.031.284.23.462.367.553l.555-.832zm10.486 6.096L13.426 7.686l-.503.865 10.512 6.112.503-.864zm.2.002a.3.3 0 0 1-.122.023c-.044-.002-.058-.013-.052-.009l-.555.832c.353.235.805.21 1.124.073l-.394-.919zm10.487-6.143-10.542 6.171.505.863L35.13 8.521l-.505-.863zm-.055.481c.02.012-.071-.034-.086-.178a.314.314 0 0 1 .136-.3l.515.857a.688.688 0 0 0 .343-.662c-.03-.285-.225-.478-.411-.585l-.497.868zM24.113 2.025l10.453 6.112.505-.863L24.618 1.16l-.505.864zm-.23-.002a.287.287 0 0 1 .235.004l.496-.868a1.284 1.284 0 0 0-1.124-.055l.394.92zm2.035 13.673L36.46 9.525l-.506-.863-10.542 6.171.506.863zm.054-.482c-.038-.021.05.012.072.154a.355.355 0 0 1-.047.238.28.28 0 0 1-.108.106l-.448-.895c-.226.114-.438.364-.384.706.044.283.25.463.419.56l.496-.869zm10.457 6.115-10.453-6.112-.505.863 10.453 6.112.505-.863zm.2.002a.3.3 0 0 1-.122.022c-.044-.001-.059-.012-.053-.008l-.555.832c.353.235.806.21 1.124.073l-.394-.92zm10.516-6.144-10.57 6.172.504.863 10.57-6.171-.504-.864zm-.055.482c.02.012-.071-.034-.086-.179a.314.314 0 0 1 .136-.3l.515.858a.687.687 0 0 0 .343-.662c-.03-.285-.225-.478-.412-.585l-.496.868zM36.633 9.554l10.453 6.113.505-.864-10.453-6.112-.505.863zm-.23-.001a.287.287 0 0 1 .235.004l.496-.868a1.284 1.284 0 0 0-1.124-.055l.394.919zm-28.315 1.91 3.302-1.939-.506-.862-3.303 1.939.507.862zm0-.862-.005-.003-.497.868.004.002.497-.867zm0 2.016c.366-.212.663-.558.663-1.008 0-.45-.297-.797-.663-1.008l-.5.867c.185.106.163.175.163.14 0-.033.022.036-.163.143l.5.866zm-2.475.011c.368.207.817.296 1.239.294.422-.001.87-.094 1.236-.305l-.5-.866c-.18.104-.446.17-.74.171a1.547 1.547 0 0 1-.745-.166l-.49.872zM.878 15.696l5.233-3.073-.506-.862-5.233 3.072.506.863zm.054-.464c-.018-.012.058.03.072.161a.345.345 0 0 1-.05.218.275.275 0 0 1-.106.1l-.447-.894c-.23.116-.425.358-.392.68a.8.8 0 0 0 .368.568l.555-.833zm5.1 2.982L.907 15.217l-.505.863 5.125 2.997.505-.863zm.318-.474-.82.472.499.867.82-.472-.499-.867zm1.406 0a1.423 1.423 0 0 0-.703-.175c-.229 0-.484.049-.703.175l.5.866a.443.443 0 0 1 .204-.041c.1 0 .172.023.203.041l.5-.866zm0 1.389c.216-.125.438-.358.438-.695 0-.336-.222-.57-.438-.694l-.5.866c.035.02-.062-.025-.062-.172s.097-.191.062-.171l.5.866zm-.041.023a1.03 1.03 0 0 0 .041-.023l-.5-.866-.005.003.464.886zm-.785.453.803-.463-.5-.866-.803.463.5.866zm4.43 1.724-4.427-2.588-.505.863 4.427 2.588.505-.863zm.2.002a.3.3 0 0 1-.123.022c-.044-.001-.058-.012-.052-.008l-.555.832c.353.235.805.21 1.124.073l-.394-.92zm5.436-3.178-5.491 3.206.504.863 5.491-3.206-.504-.863zm.664.148c-.012-.017-.012-.024-.01-.02v.008c.001-.006.027-.068.162-.146l-.5-.866c-.275.159-.506.388-.609.687a1 1 0 0 0 .133.904l.824-.567zm.152-.158c.277-.16.736-.22 1.144-.13l.215-.977c-.599-.132-1.323-.068-1.859.24l.5.867zm4.264-2.956-3.264 1.906.504.863 3.264-1.905-.504-.864zm-.055.482c.02.012-.072-.034-.087-.179a.314.314 0 0 1 .137-.3l.514.858a.687.687 0 0 0 .344-.662c-.03-.285-.225-.478-.412-.585l-.496.868zM11.564 9.554l10.453 6.113.505-.864-10.453-6.112-.505.863zm-.23-.001a.287.287 0 0 1 .234.004l.496-.868a1.284 1.284 0 0 0-1.124-.055l.394.919z"/><path stroke="#393D45" d="M7.545 23.281a1.003 1.003 0 0 0-.906 0l-.74.426.977.482.646-.372a.592.592 0 0 0 .023-.013c.25-.145.25-.379 0-.523z"/><path fill="#007CFC" fill-rule="evenodd" d="M35.794 10.974c.441-.233.97-.233 1.411 0 .393.233.393.625 0 .873-.441.233-.97.233-1.411 0-.393-.243-.393-.62 0-.873zm0 7.498c.441-.233.97-.233 1.411 0 .393.233.393.625 0 .873-.441.232-.97.232-1.411 0-.393-.243-.393-.62 0-.873zm-7-3.404c.441-.233.97-.233 1.411 0 .393.233.393.625 0 .873-.441.232-.97.232-1.411 0-.393-.243-.393-.62 0-.873zm14 0c.441-.233.97-.233 1.411 0 .393.233.393.625 0 .873-.441.232-.97.232-1.411 0-.393-.243-.393-.62 0-.873z" clip-rule="evenodd"/><path fill="#007CFC" d="M8.133 14.728a.2.2 0 0 1-.199 0l-1.25-.721a.1.1 0 0 1 0-.174l3.97-2.282a.2.2 0 0 1 .198 0l1.285.726a.1.1 0 0 1 0 .174l-4.004 2.277zm1.945 1.113a.2.2 0 0 1-.199 0l-1.25-.723a.1.1 0 0 1 .001-.174l3.968-2.28a.2.2 0 0 1 .198 0l1.286.726a.1.1 0 0 1 0 .174l-4.004 2.277zm2.009 1.135a.2.2 0 0 1-.198 0l-1.26-.717a.1.1 0 0 1 0-.174l3.972-2.287a.2.2 0 0 1 .2 0l1.27.733a.1.1 0 0 1 0 .174l-3.984 2.271zm1.965 1.124a.2.2 0 0 1-.199 0l-1.263-.725a.1.1 0 0 1 0-.173l3.976-2.28a.2.2 0 0 1 .199 0l1.275.728a.1.1 0 0 1 0 .173L14.052 18.1zm10.151-7.247a.5.5 0 0 1-.496-.001l-5.245-3.016a.2.2 0 0 1 0-.347l5.245-3.015a.5.5 0 0 1 .496-.001l5.31 3.016a.2.2 0 0 1 0 .348l-5.31 3.016z"/><path fill-rule="evenodd" stroke="#393D45" d="M17.914 19.548c3.392-1.852 8.89-1.855 12.281-.008s3.39 4.847-.002 6.7c-3.392 1.851-8.89 1.854-12.281.007-3.39-1.848-3.39-4.847.002-6.699z" clip-rule="evenodd"/><path fill="#007CFC" d="M26.825 24.389c.674-.448.674-1.195.061-1.643a1.034 1.034 0 0 0-.613-.224c.49-.448.43-1.12-.122-1.568-.674-.448-1.716-.448-2.33 0-.06-.075-.122-.075-.183-.15-.552-.373-1.47-.373-2.084 0-.674.374-.674.971-.184 1.42l3.187 2.24c.613.373 1.594.373 2.268-.075z"/><defs><linearGradient id="a" x1="1.946" x2="46.073" y1="39.211" y2="39.211" gradientUnits="userSpaceOnUse"><stop offset="0" stop-color="#B2CFFD"/><stop offset="1" stop-color="#D3E3FE"/></linearGradient><linearGradient id="b" x1="1.446" x2="46.573" y1="39.211" y2="39.211" gradientUnits="userSpaceOnUse"><stop offset="0" stop-color="#B2CFFD"/><stop offset="1" stop-color="#D3E3FE"/></linearGradient></defs></svg>