<svg xmlns="http://www.w3.org/2000/svg" xmlns:xlink="http://www.w3.org/1999/xlink" fill="#fff" fill-rule="evenodd" stroke="#000" stroke-linecap="round" stroke-linejoin="round" viewBox="0 0 85 85"><use xlink:href="#a" x="2.5" y="2.5"/><symbol id="a" overflow="visible"><path fill="#9d5025" stroke="none" d="M77.009 35.759c1.619 0 2.932-1.281 2.932-2.861V22.485c0-1.58-1.313-2.861-2.932-2.861H66.351a2.983 2.983 0 0 0-1.803.629l-6.626-4.806v-9.01c0-1.58-1.313-2.861-2.932-2.861H44.361c-1.619 0-2.932 1.281-2.932 2.861v10.427c.003.426.103.846.293 1.23L25.391 36.918v-1.759c0 1.573-5.688 2.861-12.696 2.861S0 36.746 0 35.158v19.539c0 1.573 5.688 2.861 12.696 2.861s12.696-1.273 12.696-2.861v-4.892L41.429 66.14a2.79 2.79 0 0 0 0 .572v10.427c0 1.58 1.313 2.861 2.932 2.861h10.687c1.619 0 2.932-1.281 2.932-2.861v-9.04l6.612-4.849a2.98 2.98 0 0 0 1.788.615h10.687c1.619 0 2.932-1.281 2.932-2.861V50.563c0-1.58-1.313-2.861-2.932-2.861H73.55V35.759zm-12.344 1.888-2.507-5.021 1.231-.401v.672c.004 1.323.938 2.471 2.258 2.775zm-7.887 26.819a2.96 2.96 0 0 0-1.114-.529l4.53-9.111 3.196.772v4.005zM45.05 19.725h6.641l5.38 10.799-29.554 9.526zm18.369 4.177v4.577l-2.932.915-4.867-9.755a2.96 2.96 0 0 0 1.129-.544zm-11.728 39.95h-7.33L27.634 46.916l28.924 7.023zm14.015-16.063c-1.332.293-2.28 1.443-2.287 2.775v1.43l-1.583-.501 2.844-5.721zm-7.447 2.861-29.672-7.152 30.112-9.684 3.987 7.981zm11.64-2.961h-.161l-2.932-5.95 2.932-5.979h.147zm-57.188-16.45c7.007 0 12.696-1.273 12.696-2.861v-3.547s-9.265.686-12.696.686c-2.654 0-12.696-.686-12.696-.686v3.547c0 1.573 5.673 2.861 12.696 2.861z"/><path fill="#f58534" stroke="none" d="M77.009 32.226c1.619 0 2.932-1.281 2.932-2.861V18.938c0-1.58-1.313-2.861-2.932-2.861H66.351a2.983 2.983 0 0 0-1.803.629L57.966 11.9V2.86c0-1.58-1.313-2.861-2.932-2.861H44.361c-1.619 0-2.932 1.281-2.932 2.861v10.427c.003.426.103.847.293 1.23L25.391 33.37v-1.759c0 1.573-5.688 2.861-12.696 2.861S0 33.199 0 31.611V51.15c0 1.573 5.688 2.861 12.696 2.861s12.696-1.273 12.696-2.861v-4.892L41.43 62.593a2.79 2.79 0 0 0 0 .572v10.427c0 1.58 1.313 2.861 2.932 2.861h10.687c1.619 0 2.932-1.281 2.932-2.861v-9.04l6.612-4.849c.51.393 1.139.609 1.788.615h10.687c1.619 0 2.932-1.281 2.932-2.861V47.016c0-1.58-1.313-2.861-2.932-2.861H73.55V32.226zm-12.344 1.888-2.507-5.02 1.231-.4v.672c.004 1.323.938 2.471 2.258 2.775zm-7.887 26.805a2.96 2.96 0 0 0-1.114-.529l4.53-9.111 3.225.787v4.005zM45.05 16.177h6.641l5.38 10.799-29.554 9.498zm18.369 4.177v4.577l-2.932.915-4.867-9.755a2.96 2.96 0 0 0 1.129-.543zm-11.728 39.95h-7.33L27.634 43.369l28.924 7.023zm14.015-16.063c-1.332.293-2.28 1.443-2.287 2.775v1.43l-1.554-.372 2.844-5.721zm-7.447 2.861L28.587 39.95l30.112-9.683 3.987 7.981zm11.64-2.961h-.161l-2.932-5.95 2.932-5.979h.147zM.015 24.831c0-1.585 5.662-2.861 12.696-2.861s12.696 1.276 12.696 2.861-5.662 2.861-12.696 2.861S.015 26.416.015 24.831z"/></symbol></svg>