<svg xmlns="http://www.w3.org/2000/svg" xmlns:xlink="http://www.w3.org/1999/xlink" fill="#fff" fill-rule="evenodd" stroke="#000" stroke-linecap="round" stroke-linejoin="round" viewBox="0 0 85 85"><use xlink:href="#a" x="2.5" y="2.5"/><symbol id="a" overflow="visible"><g stroke="none"><path fill="#9d5025" d="M69.013 2.623H26.949c-6.095 0-11.036 4.869-11.036 10.875v19.675c4.965-.138 9.753 1.821 13.159 5.384s5.103 8.39 4.666 13.266a15.33 15.33 0 0 1-1.597 3.184v2.623c3.097-1.065 6.508-.78 9.379.783s4.93 4.258 5.663 7.409h21.782C75.059 65.822 80 60.953 80 54.947V13.498C80 7.51 75.089 2.649 69.012 2.623z"/><path fill="#f58534" d="M69.013 0H26.949c-6.095 0-11.036 4.869-11.036 10.875V30.55c6.042-.168 11.739 2.767 15.047 7.753a16.92 16.92 0 0 1 1.169 16.692c3.1-1.069 6.516-.785 9.39.782s4.934 4.266 5.663 7.422h21.782C75.059 63.199 80 58.33 80 52.324V10.875C80 4.888 75.089.026 69.013 0z"/><path fill="#9d5025" d="M30.095 48.031V45.05l-4.683-.68a12.6 12.6 0 0 0-3.388-3.1l.956-5.497-4.986 1.192-.956 2.528a12.86 12.86 0 0 0-4.611.155l-5.954-3.303v2.981l1.125 2.444a12.56 12.56 0 0 0-3.183 3.327L0 46.088v2.981l2.553.942a12.42 12.42 0 0 0-.145 1.884c0 .894-2.166.799-2.166.799v2.981l2.202 4.77 2.42-1.097a12.49 12.49 0 0 0 2.493 2.492v3.112l4.986 1.836.944-2.48c1.545.231 3.121.179 4.647-.155l1.113 2.385 4.841-2.17v-2.981l-.109-.238a12.567 12.567 0 0 0 2.154-2.54l2.517.93 1.864-4.913v-2.981l-2.529 2.051a12.31 12.31 0 0 0-.157-4.567zm12.513 21.75 2.335-.715v-3.005l-3.63-.513a7.79 7.79 0 0 0-2.699-2.385l.532-2.385v-2.981l-4.913 4.376a7.93 7.93 0 0 0-2.735.668 8.014 8.014 0 0 0-.774.405l-4.841-1.371v2.993l1.803 1.634c-.157.322-.399.978-.399.978l-2.735.286v2.981l1.343 4.209 2.348-.727a7.76 7.76 0 0 0 2.154 2.123v2.683l4.368.966.533-2.385a7.93 7.93 0 0 0 2.735-.668 8.03 8.03 0 0 0 .775-.405l1.803 1.633 3.037-3.243v-2.981l-1.113-.74a7.7 7.7 0 0 0 .073-1.431z"/><path fill="#f58534" d="m30.095 45.05-2.203-4.77-2.42 1.109a12.59 12.59 0 0 0-3.388-3.1l.956-2.516-4.986-1.836-.956 2.528a12.86 12.86 0 0 0-4.611.155l-1.137-2.444-4.84 2.17 1.125 2.444a12.56 12.56 0 0 0-3.219 3.327l-2.553-.942L0 46.088l2.553.942a12.31 12.31 0 0 0 .145 4.555l-2.42 1.109 2.202 4.769 2.42-1.097a12.6 12.6 0 0 0 3.388 3.124l-.944 2.492 4.986 1.836.968-2.528c1.545.231 3.121.179 4.647-.155l1.113 2.385 4.84-2.17-1.113-2.385a12.56 12.56 0 0 0 3.158-3.351l2.517.93 1.863-4.913-2.529-.93a12.31 12.31 0 0 0-.157-4.567zM42.608 66.8l2.335-.715-1.343-4.209-2.347.727a7.79 7.79 0 0 0-2.699-2.385l.533-2.385-4.368-.966-.533 2.385a7.923 7.923 0 0 0-2.735.668 7.96 7.96 0 0 0-.775.405l-1.803-1.634-3.037 3.243 1.803 1.634a7.69 7.69 0 0 0-.799 3.577l-2.336.716 1.343 4.209 2.348-.728a7.79 7.79 0 0 0 2.698 2.385l-.532 2.385 4.369.966.532-2.385a7.923 7.923 0 0 0 2.735-.668 8.03 8.03 0 0 0 .775-.405l1.803 1.634 3.037-3.243-1.803-1.681a7.69 7.69 0 0 0 .799-3.529z"/><path d="M12.169 50.25c-.764-1.653-.029-3.59 1.649-4.344s3.644-.028 4.408 1.625.029 3.59-1.649 4.343-3.644.028-4.408-1.625zM32.77 67.786c-.495-1.07-.019-2.324 1.067-2.812s2.358-.019 2.853 1.051.019 2.324-1.067 2.811-2.358.019-2.853-1.051zm25.69-37.439 13.347-13.164-3.642-3.589L58.46 4.03v4.758H43.37v16.729h15.09v4.829zM38.711 13.594V8.788H22.012v16.73h16.699V13.594zm37.756 31.743-3.642-3.589-9.705-9.563v4.746H48.03v16.741h15.09v4.817l13.347-13.152zM32.249 40.59c.182.393.315.787.472 1.192a16.82 16.82 0 0 1 0 11.924h10.697V37.013H29.962a17.13 17.13 0 0 1 2.287 3.577z"/></g></symbol></svg>