<svg xmlns="http://www.w3.org/2000/svg" xmlns:xlink="http://www.w3.org/1999/xlink" fill="#fff" fill-rule="evenodd" stroke="#000" stroke-linecap="round" stroke-linejoin="round" viewBox="0 0 79.688 85"><use xlink:href="#a" x="2.344" y="2.5"/><symbol id="a" overflow="visible"><g stroke="none"><path fill="#19486f" d="M71.907 35.771c1.675 0 3.032-1.282 3.032-2.863V22.473c0-1.581-1.358-2.863-3.032-2.863H60.855a3.15 3.15 0 0 0-1.88.63l-6.822-4.809V6.413c0-1.581-1.358-2.863-3.032-2.863H38.084c-1.675 0-3.032 1.282-3.032 2.863v10.435a2.73 2.73 0 0 0 .318 1.245L25.076 29.63H4.548C2.036 29.63 0 31.552 0 33.924v19.653c0 2.372 2.036 4.294 4.548 4.294h20.801a4.86 4.86 0 0 0 1.152-.157l8.596 8.459a2.7 2.7 0 0 0 0 .558v10.406c0 1.581 1.358 2.863 3.032 2.863h11.052c1.675 0 3.032-1.282 3.032-2.863v-9.075l6.792-4.838a3.135 3.135 0 0 0 1.91.658h11.052c1.674 0 3.032-1.282 3.032-2.863V50.571c0-1.581-1.358-2.863-3.032-2.863h-3.639V35.771zM59.142 37.66l-2.593-5.024 1.274-.401v.658c.032 1.325 1.023 2.456 2.395 2.734zM50.94 64.441a3.12 3.12 0 0 0-1.107-.487l4.685-9.104 3.32.773v3.908zM38.811 19.71h6.853l5.579 10.821-21.346 6.67v-3.264a4.161 4.161 0 0 0-1.167-2.863zm18.951 4.18v4.58l-2.941.916-5.033-9.776a3.095 3.095 0 0 0 1.167-.544zM29.897 53.577v-4.48l20.846 4.881-5.094 9.891h-7.58l-8.581-8.445c.28-.579.419-1.21.409-1.846zm30.321-5.726c-1.359.31-2.317 1.457-2.319 2.777v1.431l-1.622-.372 2.941-5.726zm-7.702 2.863-22.62-5.31v-4.437L52.91 33.81l4.108 7.973zm12.053-2.977h-.167l-3.032-5.954 3.032-5.983h.151z"/><path fill="#2e73b8" d="M71.907 32.22c1.675 0 3.032-1.282 3.032-2.863V18.923c0-1.581-1.358-2.863-3.032-2.863H60.855a3.15 3.15 0 0 0-1.88.63l-6.822-4.81V2.863C52.153 1.282 50.795 0 49.121 0H38.084c-1.675 0-3.032 1.282-3.032 2.863v10.435a2.73 2.73 0 0 0 .318 1.245L25.076 26.08H4.548C2.036 26.08 0 28.002 0 30.374v19.653c0 2.372 2.036 4.294 4.548 4.294h20.801a4.8 4.8 0 0 0 1.152-.157l8.596 8.459a2.7 2.7 0 0 0 0 .558v10.435c0 1.581 1.358 2.863 3.032 2.863h11.052c1.675 0 3.032-1.282 3.032-2.863v-9.104l6.792-4.838a3.135 3.135 0 0 0 1.91.658h11.052c.804 0 1.575-.302 2.144-.838S75 58.229 75 57.47V47.078c0-1.581-1.358-2.863-3.032-2.863h-3.639V32.22zm-12.765 1.89-2.593-5.024 1.274-.401v.658c.004 1.347 1.001 2.509 2.395 2.791zM50.94 60.891a3.12 3.12 0 0 0-1.107-.487l4.67-9.032 3.32.773v3.908zM38.811 16.16h6.853l5.579 10.878-21.346 6.613v-3.264a4.161 4.161 0 0 0-1.167-2.863zm18.951 4.18v4.595l-2.941.916-5.033-9.776a3.11 3.11 0 0 0 1.167-.544zM29.897 50.027v-4.48l20.846 4.881-5.094 9.891h-7.58l-8.581-8.445a4.09 4.09 0 0 0 .409-1.846zm30.321-5.726c-1.389.282-2.385 1.436-2.395 2.777v1.431l-1.622-.372 2.941-5.725zm-7.702 2.863-22.62-5.31v-4.437L52.91 30.26l4.124 7.944zm11.977-2.949h-.167l-3.032-5.955 3.032-5.983h.152z"/><path d="M45.816 44.931c0 3.162-2.715 5.725-6.064 5.725h-27.29c-3.349 0-6.064-2.563-6.064-5.725v-8.588c0-3.162 2.715-5.725 6.064-5.725h27.29c3.349 0 6.064 2.563 6.064 5.726z"/><path fill="#19486f" d="M39.752 51.373h-27.29c-3.768 0-6.822-2.884-6.822-6.441v-8.588c0-3.557 3.054-6.441 6.822-6.441h27.29c3.768 0 6.822 2.884 6.822 6.441v8.588c0 3.557-3.055 6.441-6.822 6.441zm-27.29-20.039c-2.931 0-5.306 2.243-5.306 5.01v8.588c0 2.767 2.376 5.01 5.306 5.01h27.29c2.93 0 5.306-2.243 5.306-5.01v-8.588c0-2.767-2.376-5.01-5.306-5.01z"/><path fill="#2e73b8" d="M16.707 34.439h4.336c3.684 0 4.336 2.376 4.336 6.026 0 4.394-.986 6.37-4.548 6.37h-4.124zm2.577 10.549h1.182c1.835 0 2.199-1.088 2.199-4.466 0-2.863-.242-4.294-2.259-4.294h-1.122zm13.463-6.369c0-1.804-.379-2.591-1.516-2.591s-1.652 1.274-1.652 4.781c0 3.75.546 4.423 1.698 4.423s1.652-.458 1.652-3.135h2.577c0 2.677-.697 4.981-4.169 4.981-3.972 0-4.472-2.677-4.472-6.441s.5-6.441 4.473-6.441 4.063 2.619 4.063 4.423z"/></g></symbol></svg>