<svg xmlns="http://www.w3.org/2000/svg" xmlns:xlink="http://www.w3.org/1999/xlink" fill="#fff" fill-rule="evenodd" stroke="#000" stroke-linecap="round" stroke-linejoin="round" viewBox="0 0 85 85"><use xlink:href="#a" x="2.5" y="2.5"/><symbol id="a" overflow="visible"><g stroke="none"><path fill="#9d5025" d="M79.986 61.216C79.986 73.907 72.451 80 63.146 80s-16.827-5.537-16.827-17.738c0-8.915 7.535-13.155 16.841-13.155s16.827 3.246 16.827 12.108z"/><path fill="#f58534" d="M46.319 61.268c0-8.939 7.511-16.135 16.841-16.135S80 52.329 80 61.268s-7.511 16.135-16.84 16.135-16.841-7.196-16.841-16.135z"/><path d="M57.781 53.267h2.364v8.492l9.001-8.492h3.069l-7.494 6.875 7.798 10.161h-2.987l-6.429-8.611-2.959 2.65v5.961H57.78z"/><path fill="#9d5025" d="M62.455 3.749 7.079 0C3.204.036.067 3.03.014 6.743v61.918a6.25 6.25 0 0 0 .235 1.629c.494 2.603 2.641 4.628 5.365 5.06a6.97 6.97 0 0 0 1.106.119h40.332a22.66 22.66 0 0 1-2.903-4.292l-25.289-.384c10.08-4.279 23.049-10.28 23.063-13.141 0-4.676 11.545-21.884 31.372-12.519V6.398c0-3.656-7.024-2.649-10.84-2.649z"/><path fill="#f58534" d="M41.618 61.216c-.033-5.793 2.343-11.361 6.603-15.472s10.054-6.428 16.1-6.439a22.43 22.43 0 0 1 8.974 1.841V6.398c.098-1.639-.504-3.247-1.666-4.453S68.841.037 67.128 0H6.72C3.04.035.06 2.873 0 6.398V65.19c.068 3.505 3.061 6.308 6.72 6.293h37.553a20.034 20.034 0 0 1-2.655-10.267z"/></g></symbol></svg>