<svg xmlns="http://www.w3.org/2000/svg" xmlns:xlink="http://www.w3.org/1999/xlink" fill="#fff" fill-rule="evenodd" stroke="#000" stroke-linecap="round" stroke-linejoin="round" viewBox="0 0 85 85"><use xlink:href="#a" x="2.5" y="2.5"/><symbol id="a" overflow="visible"><g stroke="none"><path fill="#9d5025" d="M0 16.75C0 9.467 6.14 3.604 13.766 3.604h52.468C73.86 3.604 80 9.467 80 16.75v50.105C80 74.137 73.86 80 66.234 80H13.766C6.14 80 0 74.137 0 66.855z"/><path fill="#f58534" d="M0 13.146C0 5.863 6.14 0 13.766 0h52.468C73.86 0 80 5.863 80 13.146v50.105c0 7.283-6.14 13.146-13.766 13.146H13.766C6.14 76.396 0 70.533 0 63.251z"/><path d="M13.419 50.494v14.414h20.83V44.685h-20.83v5.809zm39.653-13.809 16.649-15.914-4.543-4.339-12.106-11.56v5.751H34.249v20.223h18.823v5.838zM28.438 16.432v-5.809H7.608v20.223h20.83V16.432zm30.445 22.473v5.737H40.06V64.88h18.823v5.823l16.649-15.899-4.543-4.339-12.106-11.56z"/></g></symbol></svg>