<svg xmlns="http://www.w3.org/2000/svg" xmlns:xlink="http://www.w3.org/1999/xlink" fill="#fff" fill-rule="evenodd" stroke="#000" stroke-linecap="round" stroke-linejoin="round" viewBox="0 0 116.875 85"><use xlink:href="#a" x="3.438" y="2.5"/><symbol id="a" overflow="visible"><g stroke="none"><path fill="#9d5025" d="M104.247 24.673h-4.028c-2.973 0-5.44 1.66-5.723 4.486h-6.63c-.728-5.652-2.973-10.467-5.5-10.467H71.351v-1.854c0-3.2-1.353-5.652-4.534-5.652H59.46V8.225h8.919c1.026 0 2.973-1.495 2.973-2.512V1.69H34.189v3.993a2.866 2.866 0 0 0 2.26 2.542h9.632v2.991h-8.057c-3.181 0-6.808 2.422-6.808 5.623v1.854H19.027c-3.249.239-5.737 3.005-5.649 6.28v17.645H5.946V22.924c0-1.121-1.486-2.019-2.973-2.019S0 21.817 0 22.924v46.355c0 1.121 1.487 2.034 2.973 2.034s2.973-.912 2.973-2.034V50.094h7.432v16.553a5.76 5.76 0 0 0 1.603 4.126 5.69 5.69 0 0 0 4.046 1.75h25.568C45.59 77.01 47.449 80 49.604 80h32.762c2.824 0 5.173-5.981 5.663-11.963h7.105v.957a4.65 4.65 0 0 0 1.36 3.722 4.59 4.59 0 0 0 3.724 1.302h4.028c3.181 0 5.753-1.854 5.753-5.054V30.086a5.574 5.574 0 0 0-1.75-3.917 5.51 5.51 0 0 0-4.002-1.496z"/><path fill="#f58534" d="M104.247 20.935h-4.028c-2.973 0-5.44 1.66-5.723 4.486h-6.63c-.728-5.652-2.973-10.467-5.5-10.467H71.351V13.13c0-3.2-1.353-5.652-4.534-5.652H59.46V4.486h8.919c1.026 0 2.973-1.495 2.973-2.512V1.69C71.351.658 69.434 0 68.378 0h-31.93c-1.026 0-2.26.643-2.26 1.69v.284a2.863 2.863 0 0 0 2.26 2.512h9.632v2.991h-8.057c-3.181 0-6.808 2.452-6.808 5.652v1.824H19.027c-3.249.239-5.737 3.005-5.649 6.28v17.645H5.946V19.215c0-1.122-1.486-2.019-2.973-2.019S0 18.108 0 19.215V65.57c0 1.121 1.487 2.034 2.973 2.034s2.973-.912 2.973-2.034V46.355h7.432v16.583a5.76 5.76 0 0 0 1.614 4.107 5.69 5.69 0 0 0 4.035 1.74h25.568c.996 4.486 2.854 7.477 5.009 7.477h32.762c2.824 0 5.173-5.981 5.663-11.963h7.105v.957a4.65 4.65 0 0 0 1.36 3.722 4.59 4.59 0 0 0 3.724 1.302h4.028c3.181 0 5.753-1.824 5.753-5.024V26.378a5.58 5.58 0 0 0-1.74-3.937 5.51 5.51 0 0 0-4.013-1.506z"/><path d="M23.947 34.991h2.393l4.147 11.14 4.177-11.14h2.393v13.264h-1.635V37.219l-4.207 11.035h-1.486l-4.118-11.035v11.035h-1.665zm24.259 13.218a2.12 2.12 0 0 1-1.13.254c-.817 0-1.323-.449-1.323-1.495a4.228 4.228 0 0 1-3.359 1.495c-1.739 0-3.151-.778-3.151-2.692 0-2.168 1.605-2.632 3.226-2.991s3.211-.224 3.211-1.406-1.085-1.555-2.126-1.555c-1.323 0-2.304.404-2.379 1.824H39.6c.089-2.377 1.918-3.215 4.043-3.215 1.724 0 3.582.389 3.582 2.632v4.935c0 .748 0 1.076.505 1.076.163 0 .324-.031.476-.09zm-2.542-4.92c-.9.385-1.862.603-2.839.643-1.041.179-1.918.553-1.918 1.734s.892 1.406 1.843 1.406c2.066 0 2.973-1.301 2.973-2.168zm4.059-4.635h1.561v1.301a3.203 3.203 0 0 1 2.973-1.495c2.973 0 4.459 2.333 4.459 5.054s-1.486 4.994-4.355 4.994a3.65 3.65 0 0 1-3.077-1.495v4.965h-1.561zm4.459 1.166c-2.111 0-2.973 1.824-2.973 3.619s.818 3.664 3.032 3.664 2.869-1.839 2.869-3.708-.921-3.574-2.958-3.574zm6.764-4.829h6.198c2.468 0 4.014 1.361 4.014 3.469a3.183 3.183 0 0 1-2.289 3.364c1.486.299 1.843 1.495 1.977 2.736a6.825 6.825 0 0 0 .773 3.664h-2.021c-.506-.538-.223-1.974-.476-3.275s-.505-2.333-2.23-2.333h-4.266v5.667h-1.68zm5.336 6.131c1.65 0 2.973-.434 2.973-2.363a2.1 2.1 0 0 0-.629-1.707 2.07 2.07 0 0 0-1.72-.566h-4.281v4.636zm12.427-6.131h2.393l4.147 11.14 4.177-11.14h2.393v13.264h-1.65V37.219l-4.118 11.035h-1.486l-4.118-11.035v11.035h-1.739zm24.007 1.645a19.492 19.492 0 0 0-5.024 11.589h-1.754a18.92 18.92 0 0 1 5.143-11.439h-6.838V35.29h8.473z"/></g></symbol></svg>