<svg xmlns="http://www.w3.org/2000/svg" xmlns:xlink="http://www.w3.org/1999/xlink" viewBox="0 0 165 16" fill="#fff" fill-rule="evenodd" stroke="#000" stroke-linecap="round" stroke-linejoin="round"><style><![CDATA[.B{stroke:none}.C{fill:#000}.D{stroke-width:.086}.E{stroke-linejoin:miter}.F{fill:none}.G{stroke-width:.029}.H{stroke:#cbad23}.I{fill:#867317}.J{fill:url(#I)}.K{stroke:#bfbfbf}.L{stroke:#fff}.M{fill:#333}.N{fill:#856427}.O{fill:url(#J)}.P{stroke:#8c8c8c}.Q{fill:#c89b48}.R{stroke-linecap:square}.S{fill:#595959}.T{fill:#404040}.U{stroke-width:.143}.V{fill:#bfbfbf}.W{fill:#fce26b}.X{stroke:#404040}.Y{stroke:#fce26b}.Z{fill:#262626}.a{fill:#d9d9d9}.b{stroke-width:.258}.c{fill:url(#K)}.d{stroke:#5f5f5f}.e{fill:url(#C)}.f{stroke-width:.061}]]></style><use xlink:href="#Av" x=".5" y=".5"/><defs><radialGradient id="A" r="100%" fx="50%" fy="50%" cx="50%" cy="50%"><stop offset="0%" stop-color="#fff"/><stop offset="70.7%" stop-color="#d9d9d9"/></radialGradient><radialGradient id="B" r="100%" fx="50%" fy="50%" cx="50%" cy="50%"><stop offset="0%" stop-color="#fff"/><stop offset="70.7%" stop-color="#b2b2b2"/></radialGradient><linearGradient id="C" x1="0%" y1="50%" x2="100%" y2="50%"><stop offset="0%" stop-color="#bfbfbf"/><stop offset="100%" stop-color="#595959"/></linearGradient><linearGradient id="D" x1="50%" y1="100%" x2="50%" y2="0%"><stop offset="0%" stop-color="#777"/><stop offset="100%"/></linearGradient><linearGradient id="E" x1="50%" y1="100%" x2="50%" y2="0%"><stop offset="0%"/><stop offset="100%" stop-color="#777"/></linearGradient><linearGradient id="F" x1="0%" y1="50%" x2="100%" y2="50%"><stop offset="0%" stop-color="#777"/><stop offset="100%"/></linearGradient><radialGradient id="G" r="100%" fx="50%" fy="50%" cx="50%" cy="50%"><stop offset="0%" stop-color="#333"/></radialGradient><linearGradient id="H" x1="100%" y1="50%" x2="0%" y2="50%"><stop offset="0%" stop-color="#777"/><stop offset="100%"/></linearGradient><linearGradient id="I" x1="0%" y1="50%" x2="100%" y2="50%"><stop offset="0%" stop-color="#99732d"/><stop offset="50%" stop-color="#6b511f"/><stop offset="100%" stop-color="#99732d"/></linearGradient><linearGradient id="J" x1="0%" y1="50%" x2="100%" y2="50%"><stop offset="0%" stop-color="#3c2d11"/><stop offset="50%" stop-color="#765923"/><stop offset="100%" stop-color="#3c2d11"/></linearGradient><linearGradient id="K" x1="0%" y1="50%" x2="100%" y2="50%"><stop offset="0%" stop-color="#bfbfbf"/><stop offset="50%" stop-color="#f2f2f2"/><stop offset="100%" stop-color="#bfbfbf"/></linearGradient><path id="L" d="M46.562 3.619h.804v-.804h-.804v.804z"/><path id="M" d="M46.562 9.364h.804V8.56h-.804v.804z"/><path id="N" d="M68.411 11.796h1.072V2.681h-1.072v9.115z"/><path id="O" d="M118.684 8.806c0-.062-.054-.112-.116-.112s-.107.05-.107.112v.544c0 .062.045.112.107.112s.116-.05.116-.112v-.544z"/><path id="P" d="M119.301 8.384c0-.062-.054-.112-.116-.112s-.107.05-.107.112v1.191c0 .063.045.113.107.113s.116-.05.116-.113V8.384h0z"/><path id="Q" d="M120.534 9.115c0-.062-.054-.112-.116-.112s-.107.05-.107.112v.236c0 .062.045.112.107.112s.116-.05.116-.112v-.236z"/><path id="R" d="M109.579 7.679h.103v.363h-.103z"/><path id="S" d="M113.35 5.496h.268v-.67h-.268v.67z"/><path id="T" d="M116.764 3.192h.134v.277h-.134z"/><path id="U" d="M116.898 3.192h-.134v.276h.134v-.276z"/><path id="V" d="M116.799 3.372c0 .018.009.033.027.033s.036-.015.036-.033-.018-.033-.036-.033-.027.015-.027.033z"/><path id="W" d="M141.33 5.24a.47.47 0 0 0-.465.463.47.47 0 0 0 .465.463c.259 0 .465-.207.465-.463a.46.46 0 0 0-.465-.463z"/><path id="X" d="M141.535 5.855h.089m-.34 0h.089m-.34 0h.098m-.098-.192h.59"/><path id="Y" d="M140.865 2.959a.47.47 0 0 1 .465-.463c.259 0 .465.207.465.463s-.206.463-.465.463a.47.47 0 0 1-.465-.463z"/><path id="Z" d="M141.884 6.746h.054m-.197 0h.054m-.197 0h.054m-.054-.087h.34"/><path id="a" d="M141.33 10.367a.47.47 0 0 0-.465.463c0 .256.214.463.465.463a.46.46 0 1 0 0-.926z"/><path id="b" d="M141.812 11.907h.054m-.188 0h.045m-.188 0h.054m-.054-.088h.331"/><path id="c" d="M10.798 8.262c-.142 0-.257.115-.257.257s.115.258.257.258.257-.116.257-.258-.115-.257-.257-.257z"/><path id="d" d="M11.729 8.262c-.142 0-.257.115-.257.257s.115.258.257.258.258-.116.258-.258-.115-.257-.258-.257z"/><path id="e" d="M13.594 8.262c-.143 0-.258.115-.258.257s.115.258.258.258.257-.116.257-.258-.115-.257-.257-.257z"/><path id="f" d="M10.798 10.678c-.142 0-.257.115-.257.257s.115.257.257.257.257-.115.257-.257-.115-.257-.257-.257z"/><path id="g" d="M11.729 10.678c-.142 0-.257.115-.257.257s.115.257.257.257.258-.115.258-.257-.115-.257-.258-.257z"/><path id="h" d="M10.798 12.131c-.092 0-.177.049-.223.129s-.046.178 0 .257.131.129.223.129.177-.049.223-.129.046-.178 0-.257-.131-.129-.223-.129z"/><path id="i" d="M11.729 12.131c-.092 0-.177.049-.223.129s-.046.178 0 .257.131.129.223.129c.143 0 .258-.115.258-.257s-.115-.257-.258-.257z"/><path id="j" d="M4.826 3.217V.172c0-.046-.018-.089-.05-.121S4.7 0 4.654 0h0H.172C.126 0 .082.018.05.05S0 .126 0 .172h0v3.046h4.826z"/><path id="k" d="M2.038 1.572V.573h-.999v.999h.999zm1.749 0V.573h-1v.999h1z"/><path id="l" d="M1.81 3.284h1.206a.29.29 0 0 0 .271-.31l-.003-.025h0-1.743a.35.35 0 0 0 .268.335z"/><path id="m" d="M1.627 0v.241c0 .047-.045.086-.089.086h0-.188c-.045 0-.08.038-.08.086v.44c0 .047-.045.086-.089.086H.286c-.054 0-.089.038-.089.086v2.519c0 .047.036.086.089.086h4.388c.045 0 .08-.038.08-.086V1.024c0-.047-.036-.086-.08-.086h-.92c-.045 0-.089-.038-.089-.086h0v-.44c0-.047-.036-.086-.08-.086h-.17c-.045 0-.08-.038-.08-.086V0H1.627z"/><path id="n" d="M3.592 3.092h.223V3.5h-.223zm-.349 0h.223V3.5h-.223zm-.357 0h.223V3.5h-.223zm-.349 0h.223V3.5h-.223zm-.349 0h.223V3.5H2.19zm-.349 0h.223V3.5h-.223zm-.349 0h.223V3.5h-.223zm-.349 0h.223V3.5h-.223z"/><path id="o" d="M72.375 13.087v.536h-.068v-.452l-.137.05v-.062l.194-.073h.011z"/><path id="p" d="M72.897 13.228q0 .04-.021.071-.021.031-.057.049.042.018.066.052.024.034.024.078 0 .069-.047.11-.047.041-.123.041-.077 0-.123-.041-.046-.041-.046-.11 0-.043.024-.078.024-.035.065-.053-.036-.018-.056-.049-.021-.031-.021-.071 0-.067.043-.107.043-.04.114-.04.07 0 .114.04.043.04.043.107zm-.055.249q0-.045-.028-.073-.028-.028-.074-.028-.046 0-.073.028-.028.028-.028.073 0 .045.027.071.027.026.075.026.048 0 .075-.026.027-.026.027-.071zm-.102-.339q-.04 0-.065.025-.025.025-.025.067 0 .041.024.066.024.025.065.025.041 0 .065-.025.024-.025.024-.066 0-.041-.025-.066-.025-.026-.064-.026z"/><path id="q" d="M73.057 13.089l.129.204.128-.204h.083l-.168.264.172.269h-.083l-.131-.208-.132.208h-.083l.173-.269-.169-.264h.082z"/><path id="r" d="M87.514 13.574v.055h-.349v-.049l.185-.205q.041-.047.057-.076.016-.029.016-.06 0-.042-.025-.068-.025-.027-.067-.027-.051 0-.079.029-.028.029-.028.08h-.068q0-.074.047-.119.047-.045.127-.045.074 0 .118.039.043.039.043.104 0 .079-.1.188l-.143.155h.268z"/><path id="s" d="M72.625 1.337v.536h-.068v-.452l-.137.05V1.41l.194-.073h.011z"/><path id="t" d="M118.091 12.491h.11q-.006.086-.064.135-.057.049-.151.049-.103 0-.161-.069-.059-.069-.059-.19v-.033q0-.077.027-.135.027-.059.077-.09.05-.031.117-.031.092 0 .149.049.056.049.065.139h-.11q-.004-.052-.029-.075-.025-.023-.075-.023-.055 0-.082.039-.027.039-.028.122v.04q0 .086.026.126.026.04.083.04.051 0 .076-.023.025-.023.029-.072z"/><path id="u" d="M121.138 12.529q0-.031-.022-.048-.022-.017-.079-.035-.057-.018-.09-.036-.091-.049-.091-.132 0-.043.024-.077.024-.034.07-.053.046-.019.102-.019.057 0 .102.021.045.021.069.058.025.038.025.086h-.11q0-.037-.023-.057-.023-.02-.065-.02-.04 0-.063.017-.022.017-.022.045 0 .026.026.044.026.018.077.033.094.028.137.07.043.042.043.104 0 .069-.052.109-.052.039-.141.039-.062 0-.112-.023-.051-.023-.077-.062-.027-.039-.027-.091h.11q0 .088.105.088.039 0 .061-.016.022-.016.022-.044z"/><path id="v" d="M121.863 12.583v.085h-.365v-.073l.172-.184q.036-.039.053-.068.017-.029.017-.055 0-.036-.018-.056-.018-.02-.051-.02-.036 0-.057.025-.021.025-.021.065h-.106q0-.049.023-.089.023-.04.066-.063.042-.023.096-.023.082 0 .128.04.046.04.046.112 0 .04-.021.081-.021.041-.07.096l-.121.128h.229z"/><path id="w" d="M110.169 1.795v.034q0 .078-.026.137-.026.058-.075.089-.048.031-.113.031-.063 0-.112-.031-.049-.031-.076-.088-.027-.057-.028-.133v-.038q0-.077.027-.136.027-.059.076-.09.049-.031.112-.031.064 0 .113.031.049.031.075.09.026.059.026.137zm-.07.039v-.04q0-.095-.038-.146-.038-.051-.107-.051-.067 0-.105.051-.038.051-.039.141v.039q0 .092.039.144.039.053.106.053.068 0 .105-.05.037-.05.038-.142z"/><path id="x" d="M110.684 1.545v.533h-.071l-.268-.411v.411h-.071v-.533h.071l.269.413v-.413h.07z"/><path id="y" d="M111.84 1.545v.476h.253v.057h-.323v-.533h.071z"/><path id="z" d="M109.97 12.668l-.051-.139h-.223l-.05.139h-.073l.204-.533h.062l.204.533h-.072zm-.163-.446l-.09.249h.181l-.091-.249z"/><path id="AA" d="M137.635 1.663v.393h-.05v-.331l-.1.037v-.045l.142-.053h.008z"/><path id="AB" d="M138.026 1.825v.064q0 .087-.03.13-.03.042-.093.042-.063 0-.093-.041-.03-.041-.031-.124V1.83q0-.086.03-.128.03-.042.093-.042.063 0 .093.04.03.04.031.125zm-.05.078v-.081q0-.063-.018-.092-.018-.029-.056-.029-.038 0-.056.029-.017.029-.018.088v.079q0 .063.018.094.018.03.056.03.037 0 .055-.028.018-.028.019-.09z"/><path id="AC" d="M138.507 1.87v.041h-.131V1.87h.131z"/><path id="AD" d="M138.807 2.016v.041h-.256v-.036l.135-.15q.03-.034.041-.055.011-.021.011-.044 0-.031-.019-.05-.019-.02-.049-.02-.037 0-.058.021-.021.021-.021.059h-.05q0-.054.035-.087.035-.033.093-.033.055 0 .086.029.032.029.032.076 0 .058-.074.138l-.105.114h.196z"/><path id="AE" d="M139.069 1.665v.26h.054v.041h-.054v.091h-.05v-.091h-.178v-.029l.175-.271h.053zm-.056.079l-.116.181h.122v-.192l-.006.011z"/><path id="AF" d="M139.508 1.665l.111.323.112-.323h.056l-.145.391h-.046l-.145-.391h.056z"/><path id="AG" d="M140.092 1.848h.041q0 .042-.025.072-.025.029-.062.029-.019 0-.037-.007-.017-.007-.04-.027-.023-.02-.033-.025-.01-.005-.021-.005-.021 0-.032.014-.011.014-.011.04h-.043q0-.043.025-.071.025-.028.062-.028.02 0 .039.009.019.009.042.03.024.022.041.024l.008.001q.02 0 .033-.016.013-.016.013-.041z"/><path id="AH" d="M140.204 2.135l-.028-.019q.025-.035.026-.073v-.045h.049v.039q0 .027-.013.054-.013.027-.033.044z"/><path id="AI" d="M140.508 1.87l-.04-.01.02-.195h.2v.046h-.158l-.012.107q.029-.017.065-.017.053 0 .085.035.031.035.031.095 0 .06-.033.095-.033.035-.091.035-.052 0-.085-.029-.033-.029-.037-.079h.047q.005.034.024.051.019.017.051.017.035 0 .054-.024.02-.024.02-.065 0-.039-.021-.063-.021-.024-.057-.024-.032 0-.051.014l-.013.011z"/><path id="AJ" d="M141.4 1.665h.009v.042h-.009q-.058.001-.092.034-.034.033-.04.094.031-.035.084-.035.051 0 .082.036.03.036.03.093 0 .06-.033.097-.033.036-.088.036-.056 0-.091-.043-.035-.043-.035-.111v-.019q0-.108.046-.165.046-.057.137-.058zm-.056.176q-.026 0-.047.015-.021.015-.03.038v.018q0 .048.022.078.022.03.054.03.034 0 .053-.025.019-.025.019-.065 0-.04-.019-.065-.019-.025-.052-.025z"/><path id="AK" d="M142.146 1.665v.391h-.052v-.181h-.197v.181h-.052v-.391h.052v.168h.197v-.168h.052z"/><path id="AL" d="M142.438 1.801l-.162.215h.17v.041h-.231V2.02l.16-.213h-.158v-.041h.22v.035z"/><path id="AM" d="M143.056 2.03q0-.013.008-.021.008-.009.023-.009.015 0 .023.009.008.009.008.021 0 .012-.008.021-.008.008-.023.008-.015 0-.023-.008-.008-.008-.008-.021z"/><path id="AN" d="M143.769 2.056l-.037-.102h-.164l-.037.102h-.053l.149-.391h.045l.15.391h-.053zm-.119-.327l-.066.183h.133l-.067-.183z"/><path id="AO" d="M142.964 4.868v.055h-.179v-.055h.179z"/><path id="AP" d="M139.783 4.681v.156h.149v.064h-.149v.168h-.068v-.168h-.149v-.064h.149v-.156h.068z"/><path id="AQ" d="M141.489 4.464v.533h-.071v-.246h-.269v.246h-.07v-.533h.07v.229h.269v-.229h.071z"/><path id="AR" d="M141.676 4.601v.396h-.068v-.396h.068zm-.073-.105q0-.016.01-.028.01-.011.03-.011.02 0 .03.011.01.011.01.028 0 .016-.01.027-.01.011-.03.011-.02 0-.03-.011-.01-.011-.01-.027z"/><path id="AS" d="M137.817 7.654h-.096v.188h-.11v-.533h.208q.06 0 .106.022.046.022.07.062.025.04.025.092 0 .078-.054.124-.054.045-.148.045zm-.096-.256v.167h.098q.044 0 .066-.021.023-.021.023-.059 0-.039-.023-.063-.023-.024-.064-.025h-.101z"/><path id="AT" d="M138.849 7.309h.11v.351q0 .088-.055.138-.055.051-.15.051-.093 0-.148-.049-.055-.049-.056-.136v-.355h.11v.352q0 .052.025.076.025.024.069.024.093 0 .094-.097v-.355z"/><path id="AU" d="M22.719 3.157v.046h-.185v.151h.215v.046h-.271v-.427h.268v.046h-.212v.137h.185z"/><path id="AV" d="M22.855 2.974l.103.163.102-.163h.066l-.135.212.138.215h-.067l-.105-.166-.105.166h-.067l.138-.215-.135-.212h.066z"/><path id="AW" d="M23.352 3.234h-.1v.167h-.056v-.427h.157q.07 0 .11.036.04.036.04.095 0 .062-.039.096-.039.034-.111.034zm-.1-.213v.167h.101q.045 0 .069-.021.024-.021.024-.061 0-.038-.024-.061-.024-.023-.066-.024h-.104z"/><path id="AX" d="M24.41 3.21q-.072-.021-.105-.051-.033-.03-.033-.075 0-.05.04-.083.04-.033.105-.033.044 0 .078.017.034.017.053.047.019.03.019.065h-.057q0-.039-.025-.061-.025-.022-.069-.022-.042 0-.065.018-.023.018-.023.051 0 .026.022.044.022.018.075.033.053.015.083.033.03.018.045.042.014.024.014.056 0 .052-.04.083-.04.031-.108.031-.044 0-.082-.017-.038-.017-.059-.046-.021-.029-.021-.066h.056q0 .039.029.061.029.022.076.022.045 0 .068-.018.024-.018.024-.049 0-.031-.022-.049-.022-.017-.08-.034z"/><path id="AY" d="M23.821 3.694v.046h-.137v.38h-.056v-.38h-.137v-.046h.33z"/><path id="AZ" d="M11.647 5.584v.427h-.057l-.215-.329v.329h-.057v-.427h.057l.215.33v-.33h.056z"/><path id="Aa" d="M14.708 6.011l-.041-.111h-.179l-.04.111h-.058l.163-.427h.049l.163.427h-.058zm-.13-.357l-.072.2h.145l-.073-.2z"/><path id="Ab" d="M15.791 6.011l-.093-.173h-.1v.173h-.057v-.427h.141q.072 0 .111.033.039.033.039.096 0 .04-.022.069-.022.03-.06.044l.1.181v.004h-.06zm-.193-.38v.162h.086q.042 0 .067-.022.025-.022.025-.058 0-.04-.024-.061-.024-.021-.068-.021h-.086z"/><path id="Ac" d="M16.562 5.82q-.072-.021-.105-.051-.033-.03-.033-.075 0-.05.04-.083.04-.033.105-.033.044 0 .078.017.034.017.053.047.019.03.019.065h-.057q0-.039-.025-.061-.025-.022-.069-.022-.042 0-.065.018-.023.018-.023.051 0 .026.022.044.022.018.075.033.053.015.083.033.03.018.045.042.015.024.015.057 0 .052-.04.083-.04.031-.108.031-.044 0-.082-.017-.038-.017-.059-.046-.021-.029-.021-.067h.057q0 .039.029.061.029.022.076.022.045 0 .068-.018.024-.018.024-.05 0-.031-.022-.048-.022-.017-.08-.034z"/><path id="Ad" d="M9.883 7.888q-.021.072-.051.105-.03.033-.075.033-.05 0-.083-.04-.033-.04-.033-.105 0-.044.017-.078.017-.034.047-.053.03-.019.065-.019v.057q-.039 0-.061.025-.022.025-.022.069 0 .042.018.065.018.023.051.023.026 0 .044-.022.018-.022.033-.075.015-.053.033-.083.018-.03.042-.045.024-.015.057-.015.052 0 .083.04.031.04.031.108 0 .044-.017.082-.017.038-.046.059-.029.021-.067.021v-.057q.039 0 .061-.029.022-.029.022-.076 0-.045-.018-.068-.018-.024-.05-.024-.031 0-.048.022-.017.022-.034.08z"/><path id="Ae" d="M10.784 7.357h.027q.063 0 .109.021.047.021.071.06.025.039.025.09 0 .05-.025.089-.025.039-.071.06-.046.022-.106.022h-.031q-.062 0-.109-.021-.047-.021-.072-.06-.025-.039-.025-.09 0-.051.025-.09.025-.039.072-.06.047-.021.109-.021zm.031.056h-.032q-.076 0-.116.03-.041.03-.041.085 0 .053.041.084.041.031.113.031h.031q.074 0 .116-.031.042-.031.042-.085 0-.054-.04-.084-.04-.03-.114-.031z"/><path id="Af" d="M10.584 6.945h.427v.057l-.329.215h.329v.057h-.427v-.057l.33-.215h-.33v-.056z"/><path id="Ag" d="M11.522 7.832v-.057h.29q.06 0 .099.038.038.038.043.102v.015q0 .07-.038.112-.038.042-.104.042h-.291v-.056h.289q.046 0 .072-.025.026-.025.026-.073 0-.048-.025-.073-.025-.025-.072-.025h-.289z"/><path id="Ah" d="M13.396 8.015h.427v.056h-.427v-.056z"/><path id="Ai" d="M14.716 7.219h.044v.279h-.039l-.164-.148q-.037-.033-.06-.045-.023-.012-.048-.012-.033 0-.055.02-.021.02-.021.054 0 .04.023.063.023.022.064.022v.054q-.059 0-.095-.038-.036-.038-.036-.102 0-.059.031-.094.031-.035.083-.035.063 0 .15.08l.124.114v-.214z"/><path id="Aj" d="M18.281 7.919v.1h.167v.056h-.427v-.157q0-.07.036-.11.036-.04.095-.04.062 0 .096.039.034.039.034.111zm-.213.1h.167v-.101q0-.045-.021-.069-.021-.024-.061-.024-.038 0-.061.024-.023.024-.024.066v.104z"/><path id="Ak" d="M9.67 10.144v.429h-.054v-.361l-.109.04v-.049l.155-.058h.008z"/><path id="Al" d="M12.579 10.146v.03l-.177.396h-.057l.176-.382h-.231v-.045h.288z"/><path id="Am" d="M9.771 11.966v.044h-.279v-.039l.148-.164q.033-.037.045-.06.012-.023.012-.048 0-.033-.02-.055-.02-.021-.054-.021-.04 0-.063.023-.022.023-.022.064h-.054q0-.059.038-.095.038-.036.102-.036.059 0 .094.031.035.031.035.083 0 .063-.08.15l-.114.124h.214z"/><path id="An" d="M12.562 11.695q0 .032-.017.057-.017.025-.046.039.033.014.053.042.019.028.019.062 0 .055-.037.088-.037.033-.098.033-.062 0-.099-.033-.037-.033-.037-.088 0-.035.019-.062.019-.028.052-.042-.028-.014-.045-.039-.016-.025-.016-.057 0-.054.035-.086.035-.032.091-.032.056 0 .091.032.035.032.035.086zm-.044.199q0-.036-.023-.058-.023-.023-.059-.023-.037 0-.059.022-.022.022-.022.059 0 .036.022.057.022.021.06.021.038 0 .06-.021.022-.021.022-.057zm-.081-.272q-.032 0-.052.02-.02.02-.02.054 0 .033.019.053.019.02.052.02.033 0 .052-.02.019-.02.019-.053 0-.033-.02-.053-.02-.021-.051-.021z"/><path id="Ao" d="M139.711 6.575v.064q0 .087-.03.13-.03.042-.093.042-.063 0-.093-.041-.03-.041-.031-.124V6.58q0-.086.03-.128.03-.042.093-.042.063 0 .093.04.03.04.031.125zm-.05.078v-.081q0-.063-.018-.092-.018-.029-.056-.029-.038 0-.056.029-.017.029-.018.088v.079q0 .063.018.094.018.03.056.03.037 0 .055-.028.018-.028.019-.09z"/><path id="Ap" d="M140.917 11.825v.064q0 .087-.03.13-.03.042-.093.042-.063 0-.093-.041-.03-.041-.031-.124v-.066q0-.086.03-.128.03-.042.093-.042.063 0 .093.04.03.04.031.125zm-.05.078v-.081q0-.063-.018-.092-.018-.029-.056-.029-.038 0-.056.029-.017.029-.018.088v.079q0 .063.018.094.018.03.056.03.037 0 .055-.028.018-.028.019-.09z"/><path id="Aq" d="M29.918 3.47v.593h.777v2.498h-4.289V4.064h.801V3.47h.452v-.552h1.808v.552h.452z"/><path id="Ar" d="M29.774 6.022h.25v.503h-.25zm-.393 0h.25v.503h-.25zm-.393 0h.25v.503h-.25zm-.393 0h.25v.503h-.25zm-.393 0h.25v.503h-.25zm-.393 0h.25v.503h-.25zm-.393 0h.25v.503h-.25zm-.394 0h.25v.503h-.25z"/><path id="As" d="M.777.552v.593H0v2.498h4.289V1.146h-.801V.552h-.452V0H1.229v.552H.777z"/><path id="At" d="M.92 3.104H.67v.503h.25zm.393 0h-.25v.503h.25zm.393 0h-.25v.503h.25zm.393 0h-.25v.503h.25zm.393 0h-.25v.503h.25zm.393 0h-.25v.503h.25zm.393 0h-.25v.503h.25zm.394 0h-.25v.503h.25z"/><path id="Au" d="M57.027 3.397v.593h.777v2.498h-4.289V3.991h.801v-.593h.452v-.552h1.808v.552h.452z"/></defs><symbol id="Av" overflow="visible"><path d="M159.863 13.653h-.634a.84.84 0 0 1-.009-1.688h.009 1.609a.84.84 0 0 1 .849.841c0 .466-.375.846-.84.847h-.009-.974zm0-5.361h-.634a.84.84 0 0 1-.849-.841.84.84 0 0 1 .84-.847h.009 0 1.609a.84.84 0 0 1 .849.841c0 .466-.375.846-.84.847h-.009-.974zm0-5.362h-.634a.84.84 0 0 1-.849-.842.84.84 0 0 1 .84-.847h.009 0 1.609a.84.84 0 0 1 .849.842c0 .466-.375.846-.84.847h-.009 0-.974zM2.803 13.653h-.634c-.467.002-.846-.374-.848-.841s.375-.845.842-.847h.006 0 1.616c.467-.002.846.375.848.841s-.375.846-.842.847h-.006 0-.981zm0-5.361h-.634c-.467.002-.846-.375-.848-.841s.375-.846.842-.847h.006 0 1.616c.467-.002.846.375.848.841s-.375.846-.842.847h-.006 0-.981zm0-5.362h-.634c-.467.002-.846-.375-.848-.842s.375-.846.842-.847h.006 0 1.616c.467-.001.846.375.848.842s-.375.846-.842.847h-.006 0-.981zM1.717 14.866h159.567c.947 0 1.716-.379 1.716-.846V.876c0-.467-.768-.846-1.716-.846h0H1.717C.769.03 0 .409 0 .876h0V14.02c0 .467.769.846 1.717.846z" fill="#666" class="D E"/><path d="M6.97 14.895h149.059V0H6.97v14.895z" class="D S"/><path d="M46.428 11.796H47.5V2.681h-1.072v9.115z" class="D K V"/><use xlink:href="#L" class="D H I"/><use xlink:href="#L" y="8.043" class="D H I"/><use xlink:href="#L" y="6.893" class="D H I"/><use xlink:href="#M" class="D H I"/><use xlink:href="#L" y="4.596" class="D H I"/><use xlink:href="#L" y="3.447" class="D H I"/><use xlink:href="#L" y="2.298" class="D H I"/><use xlink:href="#L" y="1.149" class="D H I"/><use xlink:href="#N" class="D K V"/><use xlink:href="#L" x="21.983" class="D H I"/><use xlink:href="#L" x="21.983" y="8.043" class="D H I"/><use xlink:href="#L" x="21.983" y="6.893" class="D H I"/><use xlink:href="#M" x="21.983" class="D H I"/><use xlink:href="#L" x="21.983" y="4.596" class="D H I"/><use xlink:href="#L" x="21.983" y="3.447" class="D H I"/><use xlink:href="#L" x="21.983" y="2.298" class="D H I"/><use xlink:href="#L" x="21.983" y="1.149" class="D H I"/><path d="M23.908 11.796h1.072v-5.63h-1.072v5.63z" class="D K V"/><use xlink:href="#L" x="-22.52" y="8.043" class="D H I"/><use xlink:href="#L" x="-22.52" y="6.893" class="D H I"/><use xlink:href="#M" x="-22.52" class="D H I"/><use xlink:href="#L" x="-22.52" y="4.596" class="D H I"/><use xlink:href="#L" x="-22.52" y="3.447" class="D H I"/><use xlink:href="#N" x="22.321" class="D K V"/><use xlink:href="#L" x="44.304" class="D H I"/><use xlink:href="#L" x="44.304" y="8.043" class="D H I"/><use xlink:href="#L" x="44.304" y="6.893" class="D H I"/><use xlink:href="#M" x="44.304" class="D H I"/><use xlink:href="#L" x="44.304" y="4.596" class="D H I"/><use xlink:href="#L" x="44.304" y="3.447" class="D H I"/><use xlink:href="#L" x="44.304" y="2.298" class="D H I"/><use xlink:href="#L" x="44.304" y="1.149" class="D H I"/><path d="M91.733 12.332h14.879V1.877H91.733v10.455z" class="D E W Y"/><use xlink:href="#N" x="30.158" class="D K V"/><use xlink:href="#L" x="52.141" class="D H I"/><use xlink:href="#L" x="52.141" y="8.043" class="D H I"/><use xlink:href="#L" x="52.141" y="6.893" class="D H I"/><use xlink:href="#M" x="52.141" class="D H I"/><use xlink:href="#L" x="52.141" y="4.596" class="D H I"/><use xlink:href="#L" x="52.141" y="3.447" class="D H I"/><use xlink:href="#L" x="52.141" y="2.298" class="D H I"/><use xlink:href="#L" x="52.141" y="1.149" class="D H I"/><path d="M119.301 10.079h.226v.897h-.226z" class="B"/><path d="M121.348 10.336c-.009-.004-.08-.047-.188-.047-.143 0-.25.102-.25.239s.098.24.25.24c.107 0 .179-.042.188-.047v.24c-.027.008-.107.032-.206.032-.25 0-.474-.175-.474-.465 0-.267.197-.464.474-.464.107 0 .188.026.206.032v.24z" class="B"/><path d="M118.989 10.336c-.009-.004-.08-.047-.188-.047-.152 0-.25.102-.25.239s.098.24.25.24c.107 0 .179-.042.188-.047v.24c-.027.008-.107.032-.206.032-.259 0-.483-.175-.483-.465 0-.267.206-.464.483-.464.107 0 .188.026.206.032v.24z" class="B"/><path d="M122.536 10.527a.46.46 0 0 1-.474.465.46.46 0 0 1-.474-.465.46.46 0 0 1 .474-.464.46.46 0 0 1 .474.464zm-.474-.236c-.134 0-.232.106-.232.236a.23.23 0 0 0 .232.236.23.23 0 0 0 .232-.236c0-.13-.098-.236-.232-.236z" class="B"/><path d="M120.383 10.283c-.058-.017-.118-.026-.179-.028-.089 0-.134.03-.134.073 0 .055.063.074.098.086l.063.02c.152.046.214.147.214.256 0 .225-.197.301-.366.301-.125 0-.232-.022-.25-.025v-.206c.027.004.116.033.214.033.116 0 .17-.033.17-.084 0-.046-.045-.071-.107-.089-.009-.004-.036-.011-.045-.015-.125-.04-.232-.114-.232-.263 0-.167.125-.281.331-.281.116 0 .214.027.223.029v.192h0z" class="B"/><path d="M118.068 9.115c0-.062-.054-.112-.116-.112s-.116.05-.116.112v.236c0 .062.054.112.116.112s.116-.05.116-.112v-.236h0z" class="B"/><use xlink:href="#O" class="B"/><use xlink:href="#P" class="B"/><use xlink:href="#O" x="1.234" class="B"/><use xlink:href="#Q" class="B"/><use xlink:href="#O" x="2.467" class="B"/><use xlink:href="#P" x="2.466" class="B"/><use xlink:href="#O" x="3.7" class="B"/><use xlink:href="#Q" x="2.467" class="B"/><path d="M122.867 10.858v.014h-.036v.104h-.018v-.104h-.036v-.014h.089z" class="B"/><path d="M122.876 10.858h.027l.036.097h0l.036-.097h.027v.118h-.018v-.097h0l-.036.097h-.018l-.036-.097h0v.097h-.018v-.118z" class="B"/><use xlink:href="#N" x="38.138" class="D K V"/><use xlink:href="#L" x="60.121" class="D H I"/><use xlink:href="#L" x="60.121" y="8.043" class="D H I"/><use xlink:href="#L" x="60.121" y="6.893" class="D H I"/><use xlink:href="#M" x="60.121" class="D H I"/><use xlink:href="#L" x="60.121" y="4.596" class="D H I"/><use xlink:href="#L" x="60.121" y="3.447" class="D H I"/><use xlink:href="#L" x="60.121" y="2.298" class="D H I"/><use xlink:href="#L" x="60.121" y="1.149" class="D H I"/><path d="M107.55 6.97h6.504v4.826h-6.504z" fill="#ec5c53" class="B"/><path d="M107.55 11.796h6.506V6.97h-6.506v4.826z" stroke="#ec5c53" class="D E F"/><path d="M114.056 2.279h-6.506v4.692h6.506V4.692h5.961V2.279h-5.961z" fill="#bedce7" class="D E Y"/><path d="M107.89 2.815h5.831v8.445h-5.831z" class="B T"/><path d="M107.89 11.26h5.826V2.815h-5.826v8.445z" class="E F G X"/><g transform="translate(107.988 2.949)"><path d="M5.532 0H.098C.045 0 0 .045 0 .101v7.907c0 .055.045.101.098.101h0 5.433c.054 0 .098-.046.098-.101h0V.101C5.63.045 5.585 0 5.532 0z" fill="url(#A)" class="D X"/></g><path d="M112.197 10.54v-.558h.786V7.638h-4.361v2.344h.813v.558h.465v.518h1.832v-.518h.465z" stroke="#666" class="E G M"/><use xlink:href="#R" class="B Q"/><use xlink:href="#R" x="0.33" class="B Q"/><use xlink:href="#R" x="0.67" class="B Q"/><path d="M110.58 7.679h.102v.363h-.102z" class="B Q"/><use xlink:href="#R" x="1.34" class="B Q"/><use xlink:href="#R" x="1.671" class="B Q"/><use xlink:href="#R" x="2.01" class="B Q"/><use xlink:href="#R" x="2.341" class="B Q"/><path d="M112.197 3.468v.557h.786v2.345h-4.361V4.024h.813v-.557h.465v-.519h1.832v.519h.465z" stroke="#666" class="E G M"/><use xlink:href="#R" y="-1.713" class="B Q"/><use xlink:href="#R" x="0.33" y="-1.713" class="B Q"/><use xlink:href="#R" x="0.67" y="-1.713" class="B Q"/><path d="M110.58 5.966h.102v.363h-.102z" class="B Q"/><use xlink:href="#R" x="1.34" y="-1.713" class="B Q"/><use xlink:href="#R" x="1.671" y="-1.713" class="B Q"/><use xlink:href="#R" x="2.01" y="-1.713" class="B Q"/><use xlink:href="#R" x="2.341" y="-1.713" class="B Q"/><use xlink:href="#S" class="D P T"/><use xlink:href="#S" x="-5.362" class="D P T"/><use xlink:href="#S" y="3.686" class="D P T"/><use xlink:href="#S" x="-5.362" y="3.686" class="D P T"/><path d="M117.434 4.105h-2.279c-.098 0-.179-.077-.179-.172h0v-.277c0-.04.018-.079.045-.11l.098-.123c.027-.031.045-.07.045-.11v-.277c0-.095.071-.172.17-.172h0 1.921c.089 0 .17.077.17.172v.277c0 .04.009.079.036.11l.107.123c.027.031.036.07.036.11v.277c0 .095-.071.172-.17.172z" class="E G Z"/><path d="M117.327 4.038h-2.073c-.089 0-.17-.077-.17-.172h0v-.22c0-.041.018-.081.045-.112h0l.08-.099c.027-.031.045-.071.045-.112v-.22c0-.095.08-.172.17-.172h0 1.734c.098 0 .179.077.179.172v.22c0 .041.009.081.036.112h0l.089.099c.027.031.036.071.036.112v.22c0 .095-.071.172-.17.172z" stroke="#a6a6a6" class="D E Z"/><use xlink:href="#T" class="B C"/><use xlink:href="#U" class="F G"/><use xlink:href="#V" class="B a"/><use xlink:href="#T" x="-0.278" class="B C"/><use xlink:href="#U" x="-0.278" class="F G"/><use xlink:href="#V" x="-0.277" class="B a"/><use xlink:href="#T" x="-0.555" class="B C"/><use xlink:href="#U" x="-0.555" class="F G"/><use xlink:href="#V" x="-0.554" class="B a"/><use xlink:href="#T" x="-0.832" class="B C"/><use xlink:href="#U" x="-0.832" class="F G"/><path d="M115.968 3.372c0 .018.009.033.027.033.027 0 .036-.015.036-.033s-.009-.033-.036-.033c-.018 0-.027.015-.027.033z" class="B a"/><use xlink:href="#T" x="-1.109" class="B C"/><use xlink:href="#U" x="-1.109" class="F G"/><path d="M115.691 3.372c0 .018.009.033.036.033.018 0 .027-.015.027-.033s-.009-.033-.027-.033c-.027 0-.036.015-.036.033z" class="B a"/><path d="M118.14 3.485h1.26" class="F f"/><path d="M118.274 3.485c0-.076-.063-.137-.134-.137-.08 0-.143.06-.143.137s.063.141.143.141c.071 0 .134-.064.134-.141z" class="B C"/><path d="M118.479 3.485c.009-.125.143-.221.34-.241" class="F f"/><path d="M118.685 3.244c0 .076.063.141.134.141.08 0 .143-.064.143-.141s-.063-.137-.143-.141a.14.14 0 0 0-.134.141z" class="B C"/><path d="M118.667 3.485c.009.125.152.225.348.241" class="F f"/><path d="M118.873 3.727c0-.076.063-.137.143-.137s.134.06.134.137c.009.076-.054.141-.134.141s-.143-.064-.143-.141z" class="B C"/><path d="M119.48 3.484l-.214-.138v.257l.214-.12z" class="B C"/><path d="M125.95 1.34h4.558v11.93h-4.558z" class="B V"/><path d="M130.57 13.271h.67V1.341h-.67v11.93z" class="D P T"/><path d="M129.436 6.233c0-.592-.483-1.072-1.072-1.072s-1.072.48-1.072 1.072.483 1.072 1.072 1.072 1.072-.48 1.072-1.072z" class="D F P"/><path d="M128.363 5.3v.933" class="D F P"/><path d="M127.451 6.233h1.832" class="F P U"/><path d="M127.684 6.608h1.358" class="F P U"/><path d="M127.97 6.984h.768" class="F P U"/><g transform="translate(126.754 7.171)"><path d="M3.217 1.609A1.61 1.61 0 0 0 1.609 0 1.61 1.61 0 0 0 0 1.609a1.61 1.61 0 0 0 1.609 1.609 1.61 1.61 0 0 0 1.609-1.609z" fill="url(#B)" class="G P"/></g><path d="M129.033 8.78h-1.376" class="F b d"/><path d="M128.363 9.484V8.111" class="F b d"/><g transform="translate(126.754 1.944)"><path d="M3.217 1.609A1.61 1.61 0 0 0 1.609 0 1.61 1.61 0 0 0 0 1.609a1.61 1.61 0 0 0 1.609 1.609 1.61 1.61 0 0 0 1.609-1.609z" fill="url(#B)" class="G P"/></g><path d="M129.033 3.552h-1.376" class="F b d"/><path d="M128.363 4.256V2.883" class="F b d"/><path d="M131.276.976h23.056v12.525h-23.056z" class="B C"/><path d="M131.276 13.501h23.056V.976h-23.056v12.525z" class="D F"/><path d="M132.617 1.072h2.145v2.681h-2.145z" class="B S"/><g transform="translate(131.995 1.063)"><path d="M0 2.688h.712V0H0z" class="B e"/></g><path d="M131.276 1.072h.804v2.681h-.804zm1.072 6.568h.804v2.815h-.804z" class="B S"/><g transform="translate(131.995 7.625)"><path d="M0 2.813h.446V0H0z" class="B e"/></g><path d="M131.276 7.641h.804v2.815h-.804zm1.34 3.083h2.145v2.681h-2.145z" class="B S"/><g transform="translate(131.995 10.75)"><path d="M0 2.625h.712V0H0z" class="B e"/></g><path d="M131.276 10.724h.804v2.681h-.804z" class="B S"/><path d="M135.03 13.203l.206.201h17.89V1.072h-17.89c-.107.015-.188.097-.206.201h0v2.583c0 .091-.071.164-.161.165h-1.716v2.815h3.485c.222 0 .402.18.402.402s-.18.402-.402.402h-3.485v2.815h1.743a.12.12 0 0 1 .134.1v.003 2.645z" class="B S"/><path d="M153.125 13.404h.474c.295 0 .536-.24.536-.536V1.608c0-.296-.24-.536-.536-.536h-.474v12.332z" class="B S"/><path d="M132.348 4.021h.804v2.815h-.804z" class="B S"/><g transform="translate(131.995 4.028)"><path d="M0 2.813h.446V0H0z" class="B e"/></g><path d="M131.276 4.021h.804v2.815h-.804z" class="B S"/><path d="M135.861 5.094h2.172c.089 0 .17-.077.17-.172 0-.031-.009-.06-.027-.085h0l-1.081-1.895a.17.17 0 0 0-.232-.064c-.027.015-.045.037-.063.064h0l-1.081 1.895c-.054.082-.018.187.063.234.027.015.054.023.08.023z" class="B"/><path d="M135.869 5.005h2.154c.045 0 .089-.038.089-.086 0-.015-.009-.03-.018-.042h0l-1.072-1.886c-.027-.041-.08-.055-.116-.032-.018.008-.027.019-.036.032l-1.072 1.886c-.027.041-.009.093.027.117.018.007.027.011.045.011z" class="E G"/><path d="M136.834 4.646l.179-.223h-.089l.268-.451-.536.179.357-.67h-.134l-.313.715.447-.134-.134.361-.089-.089.045.313z" class="E G Z"/><path d="M135.861 12.6h2.172c.089 0 .17-.077.17-.172 0-.03-.009-.06-.027-.085h0l-1.081-1.895a.17.17 0 0 0-.232-.064c-.027.015-.045.038-.063.064h0l-1.081 1.895c-.054.082-.018.187.063.234a.17.17 0 0 0 .08.022z" class="B"/><path d="M135.869 12.511h2.154c.045 0 .089-.038.089-.086 0-.015-.009-.029-.018-.043h0l-1.072-1.886c-.027-.041-.08-.055-.116-.032-.018.008-.027.019-.036.032h0l-1.072 1.886c-.027.041-.009.094.027.117.018.008.027.012.045.012z" class="E G"/><use xlink:href="#W" class="D F L"/><path d="M140.865 5.718h-1.01v-.457" class="D E F L R"/><path d="M141.794 5.718h1.01v-.457" class="D E F L R"/><use xlink:href="#X" class="D F L"/><use xlink:href="#Y" class="D F L"/><path d="M140.865 2.945h-1.01v.456" class="D E F L R"/><path d="M141.794 2.945h1.01v.456" class="D E F L R"/><use xlink:href="#Z" class="F G L"/><use xlink:href="#a" class="D F L"/><path d="M140.865 10.845h-1.01v-.457" class="D E F L R"/><path d="M141.794 10.845h1.01v-.457" class="D E F L R"/><use xlink:href="#X" y="5.128" class="D F L"/><use xlink:href="#b" class="F G L"/><path d="M8.493 5.362h13.941V2.145H8.493v3.217z" class="D S"/><g transform="translate(11.813 3.313)"><path d="M0 1.813h8.063V0H0z" fill="url(#D)" class="B"/></g><g transform="translate(10.82 2.316)"><path d="M1 1h8.125l1-1H0z" fill="url(#E)" class="B"/></g><path fill="url(#F)" d="M11.8 3.303l-.98-.98V4.17l.98.98z" class="B"/><g transform="translate(8.895 3.083)"><path d="M1.34.67A.67.67 0 1 0 0 .67a.67.67 0 1 0 1.34 0z" stroke="gray" fill="url(#G)" class="G"/></g><path d="M10.131 3.754c0-.312-.253-.565-.565-.565s-.565.253-.565.565.253.565.565.565.565-.253.565-.565z" stroke="#4d4d4d" fill="url(#sym_oSLQHWohh8irI_qF4eTHje_kof2bnswr1)" class="D E"/><g stroke="#1a1a1a" class="F b"><path d="M9.888 3.753h-.645"/><path d="M9.565 4.076v-.645"/></g><path d="M24.31 4.691c0-.148-.12-.268-.268-.268s-.268.12-.268.268.12.268.268.268.268-.12.268-.268z" class="C D E P"/><g fill="#a2a2a2" class="E G P"><path d="M9.866 8.262c-.142 0-.257.115-.257.257s.115.258.257.258.257-.116.257-.258-.114-.257-.257-.257z"/><use xlink:href="#c"/><use xlink:href="#d"/><use xlink:href="#c" x="1.864"/><use xlink:href="#e"/><use xlink:href="#c" x="3.727"/><path d="M15.457 8.262c-.143 0-.257.115-.257.257s.114.258.257.258.257-.116.257-.258-.115-.257-.257-.257z"/><use xlink:href="#c" x="5.59"/><use xlink:href="#d" x="5.59"/><use xlink:href="#c" x="7.453"/><use xlink:href="#e" x="5.589"/></g><path d="M10.37 6.676v-.44h1.877v.421m.804.019v-.44h4.692v.421m-.938-.421v.402" class="D F L"/><g fill="#a2a2a2" class="E G P"><use xlink:href="#c" x="11.223"/><path d="M9.866 10.678c-.142 0-.257.115-.257.257s.115.257.257.257.257-.115.257-.257-.114-.257-.256-.257z"/><use xlink:href="#f"/><use xlink:href="#g"/><use xlink:href="#f" x="1.864"/><path d="M9.866 12.131c-.092 0-.177.049-.223.129s-.046.178 0 .257.131.129.223.129c.143 0 .257-.115.257-.257s-.114-.257-.256-.257z"/><use xlink:href="#h"/><use xlink:href="#i"/><use xlink:href="#h" x="1.863"/><use xlink:href="#f" x="2.778"/><use xlink:href="#g" x="2.778"/><use xlink:href="#f" x="4.641"/><path d="M16.371 10.678c-.143 0-.258.115-.258.257s.115.257.258.257.257-.115.257-.257-.115-.257-.257-.257z"/><use xlink:href="#h" x="2.778"/><use xlink:href="#i" x="2.778"/><use xlink:href="#h" x="4.641"/><path d="M16.371 12.131c-.143 0-.258.115-.258.257s.115.257.258.257c.092 0 .177-.049.223-.129s.046-.178 0-.257-.131-.129-.223-.129z"/><use xlink:href="#f" x="6.551"/><use xlink:href="#f" x="7.484"/><use xlink:href="#f" x="8.415"/><use xlink:href="#f" x="9.347"/><use xlink:href="#h" x="6.551"/><use xlink:href="#h" x="7.483"/><use xlink:href="#h" x="8.415"/><use xlink:href="#h" x="9.347"/><use xlink:href="#f" x="10.217"/><use xlink:href="#h" x="10.217"/><use xlink:href="#f" x="11.156"/><use xlink:href="#h" x="11.155"/></g><g stroke="#e0c748" class="D F"><path d="M9.364 11.46h3.753V9.986H9.364v1.474z"/><path d="M9.364 12.935h3.753v-1.474H9.364v1.474z"/><path d="M13.118 11.46h3.753V9.986h-3.753v1.474z"/><path d="M13.118 12.935h3.753v-1.474h-3.753v1.474z"/><path d="M16.871 11.46h3.753V9.986h-3.753v1.474z"/><path d="M16.871 12.935h3.753v-1.474h-3.753v1.474z"/><path d="M20.557 12.935h.938V9.986h-.938v2.949z"/><path d="M21.495 12.935h.938V9.986h-.938v2.949z"/></g><g transform="translate(19.895 2.298)"><path fill="url(#H)" d="M0 .98L.98 0v1.847l-.98.98z" class="B"/></g><g transform="translate(92.403 8.78)"><use xlink:href="#j" class="D E P Z"/><use xlink:href="#k" fill="#737373" class="E G"/><use xlink:href="#l" stroke="#737373" fill="#c1c5cb" stroke-width=".09" class="E"/><g transform="translate(.804 1.796)"><path d="M0 .013h3.217v1.206H0z" class="B T"/><path d="M.107.415H3.11v.402H.107z" fill="#3c2d11" class="B"/><g transform="translate(.26)"><path d="M0 .438h.159V0H0z" class="B J"/><g transform="translate(0 .813)"><path d="M0 .437h.159V0H0z" class="B J"/></g><g transform="translate(0 .438)"><path d="M0 .375h.159V0H0z" class="B O"/></g></g><g transform="translate(2.823)"><path d="M0 .438h.159V0H0z" class="B J"/><g transform="translate(0 .813)"><path d="M0 .437h.159V0H0z" class="B J"/></g><g transform="translate(0 .438)"><path d="M0 .375h.159V0H0z" class="B O"/></g></g><g transform="translate(2.538)"><path d="M0 .438h.159V0H0z" class="B J"/><g transform="translate(0 .813)"><path d="M0 .437h.159V0H0z" class="B J"/></g><g transform="translate(0 .438)"><path d="M0 .375h.159V0H0z" class="B O"/></g></g><g transform="translate(2.253)"><path d="M0 .438h.159V0H0z" class="B J"/><g transform="translate(0 .813)"><path d="M0 .437h.159V0H0z" class="B J"/></g><g transform="translate(0 .438)"><path d="M0 .375h.159V0H0z" class="B O"/></g></g><g transform="translate(1.968)"><path d="M0 .438h.159V0H0z" class="B J"/><g transform="translate(0 .813)"><path d="M0 .437h.159V0H0z" class="B J"/></g><g transform="translate(0 .438)"><path d="M0 .375h.159V0H0z" class="B O"/></g></g><g transform="translate(1.684)"><path d="M0 .438h.159V0H0z" class="B J"/><g transform="translate(0 .813)"><path d="M0 .437h.159V0H0z" class="B J"/></g><g transform="translate(0 .438)"><path d="M0 .375h.159V0H0z" class="B O"/></g></g><g transform="translate(1.399)"><path d="M0 .438h.159V0H0z" class="B J"/><g transform="translate(0 .813)"><path d="M0 .437h.159V0H0z" class="B J"/></g><g transform="translate(0 .438)"><path d="M0 .375h.159V0H0z" class="B O"/></g></g><g transform="translate(1.114)"><path d="M0 .438h.159V0H0z" class="B J"/><g transform="translate(0 .813)"><path d="M0 .437h.159V0H0z" class="B J"/></g><g transform="translate(0 .438)"><path d="M0 .375h.159V0H0z" class="B O"/></g></g><g transform="translate(.83)"><path d="M0 .438h.159V0H0z" class="B J"/><g transform="translate(0 .813)"><path d="M0 .437h.159V0H0z" class="B J"/></g><g transform="translate(0 .438)"><path d="M0 .375h.159V0H0z" class="B O"/></g></g><g transform="translate(.545)"><path d="M0 .438h.159V0H0z" class="B J"/><g transform="translate(0 .813)"><path d="M0 .437h.159V0H0z" class="B J"/></g><g transform="translate(0 .438)"><path d="M0 .375h.159V0H0z" class="B O"/></g></g></g></g><g transform="translate(92.341 2.145)"><g transform="translate(0 .009)"><path d="M4.96 3.878V0H0v3.878h4.96z" class="U X c"/></g><use xlink:href="#m" class="B C"/><use xlink:href="#n" class="B N"/></g><g transform="translate(100.848 2.145)"><g transform="translate(0 .009)"><path d="M4.96 3.878V0H0v3.878h4.96z" class="U X c"/></g><use xlink:href="#m" class="B C"/><use xlink:href="#n" class="B N"/></g><g transform="translate(100.982 8.78)"><use xlink:href="#j" class="D E P Z"/><use xlink:href="#k" fill="#737373" class="E G"/><use xlink:href="#l" stroke="#737373" fill="#c1c5cb" stroke-width=".09" class="E"/><g transform="translate(.804 1.796)"><path d="M0 .013h3.217v1.206H0z" class="B T"/><path d="M.107.415H3.11v.402H.107z" fill="#3c2d11" class="B"/><g transform="translate(.26)"><path d="M0 .438h.159V0H0z" class="B J"/><g transform="translate(0 .813)"><path d="M0 .437h.159V0H0z" class="B J"/></g><g transform="translate(0 .438)"><path d="M0 .375h.159V0H0z" class="B O"/></g></g><g transform="translate(2.823)"><path d="M0 .438h.159V0H0z" class="B J"/><g transform="translate(0 .813)"><path d="M0 .437h.159V0H0z" class="B J"/></g><g transform="translate(0 .438)"><path d="M0 .375h.159V0H0z" class="B O"/></g></g><g transform="translate(2.538)"><path d="M0 .438h.159V0H0z" class="B J"/><g transform="translate(0 .813)"><path d="M0 .437h.159V0H0z" class="B J"/></g><g transform="translate(0 .438)"><path d="M0 .375h.159V0H0z" class="B O"/></g></g><g transform="translate(2.253)"><path d="M0 .438h.159V0H0z" class="B J"/><g transform="translate(0 .813)"><path d="M0 .437h.159V0H0z" class="B J"/></g><g transform="translate(0 .438)"><path d="M0 .375h.159V0H0z" class="B O"/></g></g><g transform="translate(1.968)"><path d="M0 .438h.159V0H0z" class="B J"/><g transform="translate(0 .813)"><path d="M0 .437h.159V0H0z" class="B J"/></g><g transform="translate(0 .438)"><path d="M0 .375h.159V0H0z" class="B O"/></g></g><g transform="translate(1.684)"><path d="M0 .438h.159V0H0z" class="B J"/><g transform="translate(0 .813)"><path d="M0 .437h.159V0H0z" class="B J"/></g><g transform="translate(0 .438)"><path d="M0 .375h.159V0H0z" class="B O"/></g></g><g transform="translate(1.399)"><path d="M0 .438h.159V0H0z" class="B J"/><g transform="translate(0 .813)"><path d="M0 .437h.159V0H0z" class="B J"/></g><g transform="translate(0 .438)"><path d="M0 .375h.159V0H0z" class="B O"/></g></g><g transform="translate(1.114)"><path d="M0 .438h.159V0H0z" class="B J"/><g transform="translate(0 .813)"><path d="M0 .437h.159V0H0z" class="B J"/></g><g transform="translate(0 .438)"><path d="M0 .375h.159V0H0z" class="B O"/></g></g><g transform="translate(.83)"><path d="M0 .438h.159V0H0z" class="B J"/><g transform="translate(0 .813)"><path d="M0 .437h.159V0H0z" class="B J"/></g><g transform="translate(0 .438)"><path d="M0 .375h.159V0H0z" class="B O"/></g></g><g transform="translate(.545)"><path d="M0 .438h.159V0H0z" class="B J"/><g transform="translate(0 .813)"><path d="M0 .437h.159V0H0z" class="B J"/></g><g transform="translate(0 .438)"><path d="M0 .375h.159V0H0z" class="B O"/></g></g></g></g><use xlink:href="#W" x="6" class="D F L"/><path d="M146.865 5.718h-1.01v-.457" class="D E F L R"/><path d="M147.794 5.718h1.01v-.457" class="D E F L R"/><use xlink:href="#X" x="6" class="D F L"/><use xlink:href="#Y" x="6" class="D F L"/><path d="M146.865 2.945h-1.01v.456" class="D E F L R"/><path d="M147.794 2.945h1.01v.456" class="D E F L R"/><use xlink:href="#Z" x="6" class="F G L"/><use xlink:href="#a" x="6.02" y="-0.032" class="D F L"/><path d="M146.885 10.814h-1.01v-.457" class="D E F L R"/><path d="M147.814 10.814h1.01v-.457" class="D E F L R"/><use xlink:href="#X" x="6.02" y="5.096" class="D F L"/><use xlink:href="#b" x="6.02" y="-0.032" class="F G L"/><g class="B W"><use xlink:href="#o"/><use xlink:href="#p"/><use xlink:href="#q"/><use xlink:href="#r"/><path d="M87.871 13.096v.354h.074v.055h-.074v.124h-.068v-.124h-.243v-.04l.239-.37h.072zm-.076.107l-.158.247h.166v-.261l-.008.015z"/><use xlink:href="#q" x="15.012" y="0.007"/><use xlink:href="#s"/><path d="M73.167 1.34v.038l-.221.495h-.071l.22-.478h-.289V1.34h.36z"/><use xlink:href="#q" x="0.25" y="-11.749"/><use xlink:href="#r" x="-0.25" y="-11.752"/><path d="M87.434 1.633v-.055h.051q.048-.001.075-.025.027-.025.027-.066 0-.094-.093-.094-.044 0-.07.025-.026.025-.026.066h-.068q0-.063.046-.105.046-.042.118-.042.075 0 .118.04.043.04.043.111 0 .035-.023.067-.023.033-.061.049.044.014.068.046.024.032.024.079 0 .072-.047.114-.047.042-.122.042-.075 0-.122-.041-.047-.041-.047-.107h.068q0 .042.027.067.027.025.074.025.049 0 .075-.026.026-.026.026-.074 0-.047-.029-.071-.029-.025-.082-.026h-.051z"/><use xlink:href="#q" x="14.762" y="-11.745"/></g><g class="C"><path d="M94.807 7.087v.536h-.068v-.452l-.137.05V7.16l.194-.073h.011z" class="B"/><use xlink:href="#r" x="16.045" y="-6.007" class="B"/></g><use xlink:href="#t" class="B"/><path d="M118.377 12.272v.396h-.106v-.396h.106zm-.112-.103q0-.024.016-.039.016-.015.043-.015.027 0 .043.015.016.015.016.039 0 .024-.016.04-.016.015-.043.015-.027 0-.043-.015-.016-.015-.016-.04z" class="B"/><path d="M118.68 12.559q0-.019-.019-.031-.019-.011-.062-.02-.141-.03-.141-.12 0-.053.044-.088.044-.035.114-.035.075 0 .121.036.045.036.045.092h-.106q0-.023-.015-.038-.015-.015-.046-.015-.027 0-.041.012-.015.012-.015.031 0 .018.017.028.017.011.056.019.04.008.067.018.084.031.084.107 0 .054-.047.088-.047.034-.12.034-.05 0-.088-.018-.039-.018-.061-.049-.022-.031-.022-.067h.1q.001.028.021.043.019.015.052.015.03 0 .046-.012.016-.012.016-.03z" class="B"/><path d="M119.015 12.591q.029 0 .048-.016.018-.016.019-.043h.099q0 .04-.022.074-.022.034-.059.052-.038.018-.083.018-.085 0-.134-.054-.049-.054-.049-.149v-.007q0-.092.049-.146.049-.055.134-.055.074 0 .119.042.045.042.046.113h-.099q-.001-.031-.019-.05-.018-.019-.048-.019-.037 0-.056.027-.019.027-.019.087v.011q0 .061.019.088.019.027.057.027z" class="B"/><path d="M119.225 12.472v-.005q0-.059.023-.105.023-.046.065-.071.043-.025.099-.025.08 0 .131.049.051.049.057.133v.027q0 .091-.051.146-.051.055-.137.055-.086 0-.137-.055-.051-.055-.051-.149zm.106.003q0 .056.021.086.021.03.061.03.038 0 .06-.029.022-.029.022-.094 0-.055-.022-.086-.022-.03-.061-.03-.039 0-.06.03-.021.03-.021.094z" class="B"/><use xlink:href="#t" x="2.077" class="B"/><path d="M120.772 12.388v.213q-.03.036-.084.055-.054.02-.12.02-.069 0-.121-.03-.052-.03-.081-.088-.028-.057-.029-.135v-.036q0-.08.027-.138.027-.058.078-.089.051-.031.119-.031.095 0 .148.045.053.045.063.132h-.107q-.007-.046-.032-.067-.025-.021-.069-.021-.056 0-.085.042-.029.042-.03.125v.034q0 .084.032.127.032.043.093.043.062 0 .088-.026v-.092h-.1v-.081h.21z" class="B"/><use xlink:href="#u" class="B"/><use xlink:href="#v" class="B"/><path d="M122.028 12.427l-.084-.021.031-.271h.299v.088h-.212l-.013.115q.038-.02.08-.02.076 0 .119.047.043.047.043.132 0 .052-.022.092-.022.041-.062.063-.041.023-.096.023-.048 0-.09-.02-.041-.02-.065-.055-.024-.036-.025-.081h.105q.003.033.023.052.02.018.052.018.036 0 .055-.026.019-.026.019-.073 0-.045-.022-.07-.022-.024-.063-.024-.038 0-.061.02l-.01.01z" class="B"/><use xlink:href="#v" x="0.86" class="B"/><path d="M123.147 12.35v.098q0 .111-.046.169-.046.059-.134.059-.087 0-.133-.057-.046-.057-.047-.165v-.098q0-.112.046-.17.046-.058.133-.058.087 0 .133.057.046.057.047.165zm-.106.117v-.127q0-.066-.018-.096-.018-.03-.057-.03-.037 0-.055.029-.018.029-.019.09v.13q0 .065.018.097.018.032.057.032.039 0 .056-.03.017-.03.018-.093zM109.592 1.909h.071q-.01.085-.062.131-.053.046-.14.046-.094 0-.151-.068-.057-.068-.057-.181v-.051q0-.074.027-.131.027-.056.075-.087.049-.03.113-.03.085 0 .136.047.051.047.06.131h-.071q-.009-.064-.04-.092-.031-.029-.086-.029-.067 0-.106.05-.038.05-.038.142v.052q0 .087.036.138.036.051.101.051.059 0 .09-.027.031-.027.042-.092z" class="B"/><use xlink:href="#w" class="B"/><use xlink:href="#x" class="B"/><path d="M110.966 1.841q-.09-.026-.132-.064-.041-.038-.041-.094 0-.063.05-.104.05-.041.131-.041.055 0 .098.021.043.021.067.059.024.037.024.082h-.071q0-.048-.031-.076-.031-.028-.087-.028-.052 0-.081.023-.029.023-.029.064 0 .033.028.055.028.023.094.041.066.019.104.041.038.023.056.053.018.03.018.071 0 .065-.051.104-.051.039-.135.039-.055 0-.103-.021-.048-.021-.073-.058-.026-.037-.026-.083h.071q0 .048.036.076.036.028.095.028.056 0 .085-.023.03-.023.03-.062 0-.039-.027-.061-.027-.021-.1-.042z" class="B"/><use xlink:href="#w" x="1.495" class="B"/><use xlink:href="#y" class="B"/><path d="M112.474 1.774v.057h-.231v.189h.268v.057h-.339v-.533h.335v.058h-.265v.171h.231z" class="B"/><g fill="#f28f8a"><use xlink:href="#z" class="B"/><use xlink:href="#y" x="-1.655" y="10.59" class="B"/><use xlink:href="#z" x="0.9" class="B"/><path d="M111.325 12.668l-.116-.216h-.125v.216h-.071v-.533h.177q.09 0 .139.041.049.041.049.119 0 .05-.027.087-.027.037-.075.055l.125.226v.004h-.075zm-.241-.475v.202h.108q.052 0 .083-.027.031-.027.031-.073 0-.049-.029-.076-.029-.026-.085-.027h-.108zm.391-.058h.091l.174.435.174-.435h.091v.533h-.07v-.208l.007-.224-.175.432h-.054l-.175-.431.007.223v.208h-.07v-.533z" class="B"/></g><path d="M137.009 11.179l-.01.765h-.122l-.01-.765h.142zm-.147.998q0-.033.02-.055.02-.022.06-.022.04 0 .06.022.021.022.021.055 0 .033-.021.055-.021.022-.06.022-.04 0-.06-.022-.02-.022-.02-.055z" class="B C"/><use xlink:href="#AA" class="B"/><use xlink:href="#AB" class="B"/><use xlink:href="#AB" x="0.309" class="B"/><use xlink:href="#AC" class="B"/><use xlink:href="#AD" class="B"/><use xlink:href="#AE" class="B"/><use xlink:href="#AB" x="1.387" class="B"/><use xlink:href="#AF" class="B"/><use xlink:href="#AG" class="B"/><use xlink:href="#AH" class="B"/><use xlink:href="#AI" class="B"/><use xlink:href="#AB" x="2.973" class="B"/><use xlink:href="#AC" x="2.664" class="B"/><use xlink:href="#AJ" class="B"/><use xlink:href="#AB" x="3.742" class="B"/><use xlink:href="#AK" class="B"/><use xlink:href="#AL" class="B"/><use xlink:href="#AH" x="2.296" class="B"/><use xlink:href="#AD" x="4.19" class="B"/><use xlink:href="#AM" class="B"/><use xlink:href="#AD" x="4.644" class="B"/><use xlink:href="#AN" class="B"/><use xlink:href="#AO" class="B"/><use xlink:href="#AP" class="B"/><use xlink:href="#AP" y="-0.5" class="B"/><use xlink:href="#AP" x="3.125" y="-0.5" class="B"/><use xlink:href="#y" x="27.842" y="1.919" class="B"/><use xlink:href="#x" x="32.396" y="1.919" class="B"/><use xlink:href="#AQ" class="B"/><use xlink:href="#AR" class="B"/><use xlink:href="#AO" x="-0.073" y="5.088" class="B"/><use xlink:href="#AP" x="0.159" y="5.088" class="B"/><use xlink:href="#AP" x="0.159" y="4.45" class="B"/><use xlink:href="#AP" x="3.053" y="4.45" class="B"/><use xlink:href="#AS" class="B"/><use xlink:href="#u" x="17.233" y="-4.826" class="B"/><use xlink:href="#AT" class="B"/><path d="M139.295 7.309v.534h-.106v-.408l-.126.039v-.086l.221-.079h.011z" class="B"/><g class="W"><use xlink:href="#s" x="-44.052" class="B"/><use xlink:href="#q" x="-44.223" y="-11.749" class="B"/><use xlink:href="#r" x="-58.815" y="-0.007" class="B"/><use xlink:href="#q" x="-44.224" class="B"/><use xlink:href="#p" x="-29.724" class="B"/><use xlink:href="#q" x="-29.724" class="B"/></g><g fill="#e0e0e0"><use xlink:href="#AU" class="B"/><use xlink:href="#AV" class="B"/><use xlink:href="#AW" class="B"/><path d="M23.822 3.401l-.093-.173h-.1v.173h-.056v-.427h.141q.072 0 .111.033.039.033.039.095 0 .04-.021.07-.021.03-.06.044l.1.181v.004h-.06zm-.193-.38v.162h.087q.042 0 .067-.022.025-.022.025-.058 0-.039-.024-.061-.024-.021-.068-.021h-.086z" class="B"/><use xlink:href="#AU" x="1.465" class="B"/><use xlink:href="#AX" class="B"/><use xlink:href="#AX" x="0.356" class="B"/><path d="M22.949 3.93q-.072-.021-.105-.051-.033-.03-.033-.075 0-.05.04-.083.04-.033.105-.033.044 0 .078.017.034.017.053.047.019.03.019.065h-.057q0-.039-.025-.061-.025-.022-.069-.022-.042 0-.065.018-.023.018-.023.051 0 .026.022.044.022.018.075.033.053.015.083.033.03.018.045.042.014.024.014.056 0 .052-.04.083-.04.031-.108.031-.044 0-.082-.017-.038-.017-.059-.046-.021-.029-.021-.066h.056q0 .039.029.061.029.022.076.022.045 0 .068-.018.024-.018.024-.05 0-.031-.022-.049-.022-.017-.08-.034z" class="B"/><use xlink:href="#AU" x="0.701" y="0.72" class="B"/><use xlink:href="#AY" class="B"/><path d="M24.127 3.694h.057v.29q0 .06-.038.099-.038.038-.102.043h-.015q-.07 0-.112-.038-.042-.038-.042-.104v-.291h.056v.289q0 .046.025.072.025.026.073.026.048 0 .073-.026.025-.026.025-.072v-.289z" class="B"/><use xlink:href="#AW" x="1.078" y="0.72" class="B"/><use xlink:href="#AU" x="-11.5" y="2.61" class="B"/><use xlink:href="#AZ" class="B"/><use xlink:href="#Aa" class="B"/><path d="M14.88 5.584v.381h.202v.046h-.259v-.427h.057z" class="B"/><use xlink:href="#Aa" x="0.72" class="B"/><use xlink:href="#Ab" class="B"/><path d="M15.912 5.584h.073l.139.348.139-.348h.073v.427h-.056v-.166l.005-.179-.14.345h-.043l-.14-.345.006.178v.166h-.056v-.427z" class="B"/><use xlink:href="#Ac" class="B"/><use xlink:href="#Ad" class="B"/><path d="M9.647 7.638l.214-.111-.214-.111v-.064l.267.147h.159v.056h-.159l-.267.147v-.064z" class="B"/><use xlink:href="#Ad" y="-0.712" class="B"/><path d="M10.875 7.819v-.057q.068.008.104.05.037.042.037.112 0 .076-.054.121-.054.046-.145.046h-.041q-.059 0-.105-.021-.045-.021-.069-.06-.024-.039-.024-.09 0-.068.038-.109.038-.041.105-.048v.057q-.051.007-.074.032-.023.024-.023.068 0 .054.04.085.04.031.113.031h.041q.069 0 .11-.029.041-.029.041-.081 0-.047-.021-.072-.021-.025-.074-.033z" class="B"/><use xlink:href="#Ae" class="B"/><use xlink:href="#Af" class="B"/><use xlink:href="#Ag" class="B"/><use xlink:href="#Ad" x="1.875" y="-0.327" class="B"/><path d="M11.948 7.182v.148h-.427v-.139q0-.069.029-.104.029-.035.085-.035.03 0 .053.017.023.017.036.046.01-.035.037-.055.027-.02.065-.02.057 0 .09.037.033.037.033.105zm-.2-.002v.094h.154v-.093q0-.039-.02-.062-.02-.023-.056-.023-.077 0-.077.084zm-.181.094h.136v-.085q0-.037-.018-.059-.018-.022-.05-.022-.035 0-.051.021-.016.021-.016.062v.083z" class="B"/><use xlink:href="#Ad" x="2.812" y="0.062" class="B"/><path d="M12.885 7.601v.118h-.427v-.12q0-.056.025-.098.025-.043.07-.066.045-.023.104-.024h.027q.06 0 .106.023.045.023.07.067.024.043.025.101zm-.38-.004v.066h.334v-.059q0-.065-.04-.101-.04-.036-.115-.036h-.025q-.073 0-.113.034-.04.034-.041.097z" class="B"/></g><g fill="#f66"><use xlink:href="#Ah" class="B"/><use xlink:href="#Af" x="2.812" y="0.639" class="B"/><path d="M13.394 7.32h.429v.054h-.361l.04.109h-.049l-.058-.155V7.32z" class="B"/><use xlink:href="#Ah" x="0.938" class="B"/><use xlink:href="#Af" x="3.75" y="0.639" class="B"/><use xlink:href="#Ai" class="B"/><use xlink:href="#Ah" x="1.876" class="B"/><use xlink:href="#Af" x="4.688" y="0.639" class="B"/><path d="M15.503 7.42h-.044v-.041q-.001-.038-.02-.06-.02-.022-.053-.022-.075 0-.075.075 0 .035.02.056.02.021.053.021v.054q-.051 0-.084-.037-.034-.037-.034-.094 0-.06.032-.095.032-.034.089-.034.028 0 .054.018.026.018.039.049.011-.035.037-.054.026-.019.063-.019.057 0 .091.038.034.037.034.098 0 .06-.033.098-.033.038-.086.038v-.054q.034 0 .054-.022.02-.022.02-.059 0-.039-.021-.06-.021-.021-.059-.021-.037 0-.057.023-.02.023-.021.066v.041z" class="B"/><use xlink:href="#Ah" x="2.75" class="B"/><use xlink:href="#Af" x="5.562" y="0.64" class="B"/><path d="M16.146 7.27h.283v-.059h.044v.059h.099v.054h-.099v.194h-.032l-.296-.191V7.27zm.086.061l.197.126v-.133h-.209l.012.006z" class="B"/><use xlink:href="#Ae" x="6.5" y="0.39" class="B"/><use xlink:href="#Ag" x="5.562" y="-0.413" class="B"/><path d="M17.084 6.979h.046v.137h.38v.056h-.38v.137h-.046v-.33z" class="B"/></g><g fill="#e0e0e0"><use xlink:href="#Aj" class="B"/><use xlink:href="#Ad" x="8.375" y="-0.317" class="B"/><use xlink:href="#Ag" x="6.5" y="-0.735" class="B"/><path d="M18.02 6.788h.429v.054h-.361l.04.109h-.049l-.058-.155v-.008z" class="B"/><use xlink:href="#Aj" x="0.937" class="B"/><use xlink:href="#Ad" x="9.312" y="-0.316" class="B"/><use xlink:href="#Ag" x="7.437" y="-0.734" class="B"/><use xlink:href="#Ai" x="4.625" y="-0.532" class="B"/><use xlink:href="#Ak" class="B"/><path d="M9.879 10.146l.103.163.102-.163h.066l-.135.212.138.215h-.067l-.105-.166-.105.166H9.81l.138-.215-.135-.212h.066z" class="B"/><use xlink:href="#Al" class="B"/><use xlink:href="#AV" x="-10.164" y="7.172" class="B"/><use xlink:href="#Am" class="B"/><use xlink:href="#AV" x="-12.977" y="8.61" class="B"/><use xlink:href="#An" class="B"/><use xlink:href="#AV" x="-10.164" y="8.61" class="B"/><path d="M13.449 10.386q-.017.02-.041.033-.024.012-.052.012-.037 0-.064-.018-.027-.018-.042-.051-.015-.033-.015-.073 0-.043.016-.077.016-.034.046-.052.03-.018.07-.018.063 0 .1.047.036.047.036.129v.016q0 .125-.049.182-.049.057-.149.059h-.011v-.046h.011q.067-.001.103-.035.036-.034.039-.107zm-.083 0q.027 0 .05-.017.023-.017.034-.041v-.022q0-.053-.023-.087-.023-.033-.059-.033-.036 0-.057.027-.022.027-.022.072 0 .044.021.072.021.028.056.028z" class="B"/><use xlink:href="#AV" x="-9.227" y="7.173" class="B"/><use xlink:href="#Ak" x="6.269" class="B"/><path d="M16.166 10.37l-.043-.011.022-.213h.219v.05h-.173l-.013.116q.031-.018.071-.018.058 0 .093.039.034.039.034.104 0 .066-.036.104-.036.038-.099.038-.057 0-.092-.031-.036-.031-.041-.087h.051q.005.037.026.055.021.019.056.019.038 0 .059-.026.022-.026.022-.071 0-.043-.023-.069-.023-.026-.062-.026-.035 0-.056.016l-.014.012z" class="B"/><use xlink:href="#AV" x="-6.37" y="7.172" class="B"/><use xlink:href="#Ak" x="3.706" y="1.438" class="B"/><path d="M13.802 11.758v.07q0 .095-.033.142-.033.046-.102.046-.068 0-.101-.045-.033-.045-.034-.135v-.072q0-.094.033-.14.033-.046.102-.046.069 0 .101.044.033.044.033.136zm-.054.085v-.089q0-.069-.019-.1-.019-.031-.061-.031-.042 0-.061.031-.019.031-.02.096v.087q0 .069.02.102.02.033.061.033.04 0 .06-.031.019-.031.02-.098z" class="B"/><use xlink:href="#AV" x="-8.933" y="8.61" class="B"/><use xlink:href="#Ak" x="6.269" y="1.438" class="B"/><path d="M16.301 11.584h.01v.046h-.01q-.063.001-.101.038-.037.036-.043.102.034-.039.092-.039.056 0 .089.039.033.039.033.101 0 .066-.036.105-.036.04-.096.04-.061 0-.099-.047-.038-.047-.038-.121v-.021q0-.118.05-.18.05-.062.15-.064zm-.062.192q-.028 0-.051.017-.023.017-.033.042v.02q0 .053.024.085.024.032.059.032.037 0 .058-.027.021-.027.021-.071 0-.044-.021-.071-.021-.027-.056-.027z" class="B"/><use xlink:href="#AV" x="-6.37" y="8.61" class="B"/><use xlink:href="#Ak" x="7.519" class="B"/><use xlink:href="#Al" x="5.044" class="B"/><use xlink:href="#AV" x="-5.12" y="7.172" class="B"/><use xlink:href="#Am" x="9.957" y="-1.437" class="B"/><path d="M19.864 10.378v-.044h.041q.038-.001.06-.02.022-.02.022-.053 0-.075-.075-.075-.035 0-.056.02-.021.02-.021.053h-.054q0-.051.037-.084.037-.034.094-.034.06 0 .095.032.034.032.034.089 0 .028-.018.054-.018.026-.049.039.035.011.054.037.019.026.019.063 0 .057-.038.091-.037.034-.098.034-.06 0-.098-.033-.038-.033-.038-.086h.054q0 .034.022.054.022.02.059.02.039 0 .06-.021.021-.021.021-.059 0-.037-.023-.057-.023-.02-.066-.021h-.041z" class="B"/><use xlink:href="#AV" x="-2.683" y="7.173" class="B"/><use xlink:href="#Ak" x="7.519" y="1.438" class="B"/><use xlink:href="#An" x="5.044" class="B"/><use xlink:href="#AV" x="-5.12" y="8.61" class="B"/><use xlink:href="#Am" x="9.957" class="B"/><path d="M20.014 11.584v.283h.059v.044h-.059v.099h-.054v-.099h-.194v-.032l.191-.296h.058zm-.061.086l-.126.197h.133v-.209l-.006.012z" class="B"/><use xlink:href="#AV" x="-2.683" y="8.61" class="B"/><use xlink:href="#Ak" x="11.375" class="B"/><use xlink:href="#Am" x="12.313" y="-1.437" class="B"/><use xlink:href="#Aj" x="3.813" class="B"/><path d="M22.103 7.724h-.004q-.047 0-.084-.018-.037-.018-.057-.051-.02-.033-.02-.075 0-.065.045-.105.045-.04.119-.04h.004q.046 0 .083.018.037.018.057.051.021.033.021.076 0 .064-.045.104-.045.04-.119.04zm.003-.054q.053 0 .085-.024.032-.024.032-.065 0-.041-.032-.066-.032-.024-.091-.024-.052 0-.085.025-.032.025-.032.066 0 .04.032.065.032.025.091.025z" class="B"/><path d="M22.017 7.118h.046v.185h.151v-.215h.046v.271h-.427v-.268h.046v.212h.137v-.185z" class="B"/><use xlink:href="#AU" x="-9.039" y="10.36" class="B"/><use xlink:href="#AY" x="-9.74" y="9.64" class="B"/><path d="M14.472 13.334v.427h-.057v-.197H14.2v.197h-.056v-.427h.056v.183h.215v-.183h.057z" class="B"/><use xlink:href="#AU" x="-7.906" y="10.36" class="B"/><use xlink:href="#Ab" x="-0.63" y="7.75" class="B"/><use xlink:href="#AZ" x="3.963" y="7.75" class="B"/><use xlink:href="#AU" x="-6.768" y="10.36" class="B"/><use xlink:href="#AY" x="-7.469" y="9.64" class="B"/><use xlink:href="#AW" x="-6.632" y="10.36" class="B"/><path d="M17.27 13.534v.027q0 .063-.021.109-.021.047-.06.071-.039.025-.09.025-.05 0-.089-.025-.039-.025-.06-.071-.022-.046-.022-.106v-.031q0-.062.021-.109.021-.047.06-.072.039-.025.09-.025.051 0 .09.025.039.025.06.072.021.047.021.109zm-.056.031v-.032q0-.076-.03-.116-.03-.041-.085-.041-.053 0-.084.041-.031.041-.031.113v.031q0 .074.031.116.031.042.085.042.054 0 .084-.04.03-.04.031-.114z" class="B"/><use xlink:href="#Ab" x="1.812" y="7.75" class="B"/><use xlink:href="#AY" x="-5.826" y="9.64" class="B"/><use xlink:href="#Ac" x="1.617" y="7.75" class="B"/></g><g class="W"><path d="M43.219 1.339v.038l-.221.495h-.071l.22-.478h-.289v-.056h.36z" class="B"/><use xlink:href="#q" x="-29.698" y="-11.75" class="B"/><path d="M50.359 1.638q-.021.025-.051.041-.029.015-.065.015-.046 0-.08-.023-.034-.023-.053-.064-.019-.041-.019-.091 0-.053.02-.096.02-.043.058-.066.037-.023.087-.023.079 0 .125.059.046.059.046.161v.02q0 .156-.062.227-.062.072-.186.073h-.013v-.057h.014q.084-.001.129-.044.045-.042.049-.134zm-.104 0q.034 0 .063-.021.029-.021.042-.052v-.027q0-.067-.029-.108-.029-.042-.073-.042-.045 0-.072.034-.027.034-.027.09 0 .055.026.09.026.035.07.035z" class="B"/><use xlink:href="#q" x="-22.474" y="-11.75" class="B"/><use xlink:href="#s" x="-7.987" class="B"/><path d="M64.921 1.62l-.054-.014.027-.266h.273v.063h-.216l-.016.145q.039-.023.089-.023.073 0 .116.048.043.048.043.13 0 .082-.044.13-.044.047-.124.047-.071 0-.115-.039-.045-.039-.051-.108h.064q.006.046.033.069.026.023.07.023.047 0 .074-.032.027-.032.027-.089 0-.053-.029-.086-.029-.032-.077-.032-.044 0-.07.019l-.018.015z" class="B"/><use xlink:href="#q" x="-7.737" y="-11.749" class="B"/><use xlink:href="#o" x="-22.263" class="B"/><path d="M50.645 13.307v.088q0 .119-.041.177-.041.058-.127.058-.085 0-.126-.057-.041-.057-.042-.169v-.09q0-.118.041-.175.041-.057.127-.057.086 0 .127.055.041.055.042.17zm-.068.106v-.111q0-.086-.024-.125-.024-.039-.077-.039-.052 0-.076.039-.024.039-.025.12v.108q0 .086.025.128.025.041.076.041.05 0 .075-.039.024-.039.025-.122z" class="B"/><use xlink:href="#q" x="-22.263" class="B"/><use xlink:href="#o" x="-7.763" class="B"/><path d="M65.064 13.089h.012v.057h-.012q-.079.001-.126.047-.047.045-.054.128.042-.048.115-.048.07 0 .111.049.042.049.042.127 0 .082-.045.132-.045.049-.12.049-.077 0-.124-.059-.048-.059-.048-.151v-.026q0-.147.063-.225.063-.078.187-.08zm-.077.24q-.035 0-.064.021-.029.021-.041.052v.025q0 .066.03.106.03.04.074.04.046 0 .072-.034.026-.034.026-.088 0-.055-.027-.089-.027-.034-.07-.034z" class="B"/><use xlink:href="#q" x="-7.763" y="0.001" class="B"/></g><path d="M141.465 2.901h.056q0 .058-.034.098-.034.04-.084.04-.026 0-.05-.01-.023-.01-.054-.037-.031-.027-.044-.034-.014-.007-.029-.007-.029 0-.044.02-.015.02-.015.054l-.059.001q0-.059.034-.096.034-.038.085-.038.028 0 .053.012.026.012.058.041.032.029.056.033l.011.001q.028 0 .045-.021.017-.021.017-.056z" class="B"/><use xlink:href="#AA" x="1.685" y="4.75" class="B"/><use xlink:href="#Ao" class="B"/><use xlink:href="#Ao" x="0.309" class="B"/><path d="M140.192 6.62v.041h-.131V6.62h.131z" class="B"/><use xlink:href="#AD" x="1.685" y="4.75" class="B"/><path d="M140.796 6.415v.028l-.162.363h-.052l.161-.35h-.212v-.041h.264z" class="B"/><use xlink:href="#Ao" x="1.387" class="B"/><use xlink:href="#AF" x="1.685" y="4.75" class="B"/><use xlink:href="#AH" x="1.855" y="4.75" class="B"/><use xlink:href="#AD" x="3.75" y="4.75" class="B"/><use xlink:href="#AM" x="-0.441" y="4.75" class="B"/><use xlink:href="#AD" x="4.203" y="4.75" class="B"/><use xlink:href="#AN" x="-0.44" y="4.75" class="B"/><use xlink:href="#AS" x="11.379" y="0.03" class="B"/><use xlink:href="#u" x="28.612" y="-4.796" class="B"/><use xlink:href="#AT" x="11.379" y="0.03" class="B"/><path d="M150.783 7.787v.085h-.365V7.8l.172-.184q.036-.039.053-.068.017-.029.017-.055 0-.036-.018-.056-.018-.02-.051-.02-.036 0-.057.025-.021.025-.021.065h-.106q0-.049.023-.089.023-.04.066-.063.042-.023.096-.023.082 0 .128.04.046.04.046.112 0 .04-.021.081-.021.041-.07.096l-.121.128h.229z" class="B"/><use xlink:href="#AO" x="6" class="B"/><use xlink:href="#AP" x="6" class="B"/><use xlink:href="#AP" x="6" y="-0.5" class="B"/><use xlink:href="#AP" x="9.125" y="-0.5" class="B"/><use xlink:href="#y" x="33.842" y="1.919" class="B"/><use xlink:href="#x" x="38.396" y="1.919" class="B"/><use xlink:href="#AQ" x="6" class="B"/><use xlink:href="#AR" x="6" class="B"/><use xlink:href="#AA" x="7.125" class="B"/><use xlink:href="#AB" x="7.125" class="B"/><use xlink:href="#AB" x="7.434" class="B"/><use xlink:href="#AC" x="7.125" class="B"/><use xlink:href="#AD" x="7.125" class="B"/><use xlink:href="#AE" x="7.125" class="B"/><use xlink:href="#AB" x="8.512" class="B"/><use xlink:href="#AF" x="7.125" class="B"/><use xlink:href="#AG" x="7.125" class="B"/><use xlink:href="#AH" x="7.125" class="B"/><use xlink:href="#AI" x="7.125" class="B"/><use xlink:href="#AB" x="10.098" class="B"/><use xlink:href="#AC" x="9.789" class="B"/><use xlink:href="#AJ" x="7.125" class="B"/><use xlink:href="#AB" x="10.867" class="B"/><use xlink:href="#AK" x="7.125" class="B"/><use xlink:href="#AL" x="7.125" class="B"/><use xlink:href="#AH" x="9.421" class="B"/><use xlink:href="#AD" x="11.315" class="B"/><use xlink:href="#AM" x="7.125" class="B"/><use xlink:href="#AD" x="11.769" class="B"/><use xlink:href="#AN" x="7.125" class="B"/><use xlink:href="#AD" x="1.043" y="10" class="B"/><use xlink:href="#AE" x="1.043" y="10" class="B"/><path d="M140.32 11.87v.041h-.131v-.041h.131z" class="B"/><use xlink:href="#AJ" x="-0.851" y="10" class="B"/><use xlink:href="#Ap" class="B"/><use xlink:href="#AF" x="1.504" y="10" class="B"/><use xlink:href="#AH" x="1.811" y="10" class="B"/><use xlink:href="#AA" x="4.784" y="10" class="B"/><use xlink:href="#Ap" x="1.893" class="B"/><use xlink:href="#AN" x="-0.63" y="10" class="B"/><use xlink:href="#AO" x="5.947" y="5.056" class="B"/><path d="M148.856 9.1v.156h.149v.064h-.149v.168h-.068V9.32h-.149v-.064h.149V9.1h.068z" class="B"/><use xlink:href="#AD" x="7.043" y="10" class="B"/><use xlink:href="#AE" x="7.043" y="10" class="B"/><path d="M146.32 11.87v.041h-.131v-.041h.131z" class="B"/><use xlink:href="#AJ" x="5.149" y="10" class="B"/><use xlink:href="#Ap" x="6" class="B"/><use xlink:href="#AF" x="7.504" y="10" class="B"/><use xlink:href="#AH" x="7.811" y="10" class="B"/><use xlink:href="#AA" x="10.784" y="10" class="B"/><use xlink:href="#Ap" x="7.893" class="B"/><use xlink:href="#AN" x="5.37" y="10" class="B"/><use xlink:href="#AP" x="6.159" y="5.088" class="B"/><use xlink:href="#AP" x="6.159" y="4.45" class="B"/><path d="M24.932 12.674h21.276V2.352H24.932v10.322z" class="D E W Y"/><path d="M25.628 12.231h19.883V2.794H25.628v9.437z" class="U X c"/><use xlink:href="#Aq" class="E G K M"/><use xlink:href="#Ar" class="B N"/><g transform="matrix(-1 0 0 -1 30.694424 12.137186)"><use xlink:href="#As" class="E G K M"/><use xlink:href="#At" class="B N"/></g><path d="M34.593 3.47v.593h.777v2.498H31.08V4.064h.801V3.47h.452v-.552h1.808v.552h.452z" class="E G K M"/><use xlink:href="#Ar" x="4.675" class="B N"/><g transform="matrix(-1 0 0 -1 35.369424 12.137186)"><use xlink:href="#As" class="E G K M"/><use xlink:href="#At" class="B N"/></g><use xlink:href="#Aq" x="9.352" class="E G K M"/><use xlink:href="#Ar" x="9.352" class="B N"/><g transform="matrix(-1 0 0 -1 40.046424 12.137186)"><use xlink:href="#As" class="E G K M"/><use xlink:href="#At" class="B N"/></g><use xlink:href="#Aq" x="14.027" class="E G K M"/><use xlink:href="#Ar" x="14.027" class="B N"/><g transform="matrix(-1 0 0 -1 44.721424 12.137186)"><use xlink:href="#As" class="E G K M"/><use xlink:href="#At" class="B N"/></g><path d="M47.366 12.601h21.276V2.279H47.366v10.322z" class="D E W Y"/><path d="M48.062 12.158h19.883V2.721H48.062v9.437z" class="U X c"/><path d="M52.352 3.397v.593h.777v2.498h-4.289V3.991h.801v-.593h.452v-.552H51.9v.552h.452z" class="E G K M"/><use xlink:href="#Ar" x="22.434" y="-0.073" class="B N"/><g transform="matrix(-1 0 0 -1 53.128424 12.064186)"><use xlink:href="#As" class="E G K M"/><use xlink:href="#At" class="B N"/></g><use xlink:href="#Au" class="E G K M"/><use xlink:href="#Ar" x="27.109" y="-0.073" class="B N"/><g transform="matrix(-1 0 0 -1 57.803424 12.064186)"><use xlink:href="#As" class="E G K M"/><use xlink:href="#At" class="B N"/></g><use xlink:href="#Au" x="4.677" class="E G K M"/><use xlink:href="#Ar" x="31.786" y="-0.073" class="B N"/><g transform="matrix(-1 0 0 -1 62.480424 12.064186)"><use xlink:href="#As" class="E G K M"/><use xlink:href="#At" class="B N"/></g><use xlink:href="#Au" x="9.352" class="E G K M"/><use xlink:href="#Ar" x="36.461" y="-0.073" class="B N"/><g transform="matrix(-1 0 0 -1 67.155424 12.064186)"><use xlink:href="#As" class="E G K M"/><use xlink:href="#At" class="B N"/></g><path d="M69.617 12.601h21.276V2.279H69.617v10.322z" class="D E W Y"/><path d="M70.313 12.158h19.883V2.721H70.313v9.437z" class="U X c"/><path d="M74.603 3.397v.593h.777v2.498H71.09V3.991h.801v-.593h.452v-.552h1.808v.552h.452z" class="E G K M"/><use xlink:href="#Ar" x="44.685" y="-0.073" class="B N"/><g transform="matrix(-1 0 0 -1 75.379424 12.064186)"><use xlink:href="#As" class="E G K M"/><use xlink:href="#At" class="B N"/></g><use xlink:href="#Au" x="22.251" class="E G K M"/><use xlink:href="#Ar" x="49.36" y="-0.073" class="B N"/><g transform="matrix(-1 0 0 -1 80.054424 12.064186)"><use xlink:href="#As" class="E G K M"/><use xlink:href="#At" class="B N"/></g><use xlink:href="#Au" x="26.928" class="E G K M"/><use xlink:href="#Ar" x="54.037" y="-0.073" class="B N"/><g transform="matrix(-1 0 0 -1 84.731424 12.064186)"><use xlink:href="#As" class="E G K M"/><use xlink:href="#At" class="B N"/></g><use xlink:href="#Au" x="31.603" class="E G K M"/><use xlink:href="#Ar" x="58.712" y="-0.073" class="B N"/><g transform="matrix(-1 0 0 -1 89.406424 12.064186)"><use xlink:href="#As" class="E G K M"/><use xlink:href="#At" class="B N"/></g></symbol></svg>