<svg xmlns="http://www.w3.org/2000/svg" xmlns:xlink="http://www.w3.org/1999/xlink" width="300" zoomAndPan="magnify" viewBox="0 0 224.87999 56.249996" height="75" preserveAspectRatio="xMidYMid meet" version="1.0"><path fill="#000000" d="M 81.421875 5.140625 C 82.425781 5.140625 83.28125 5.289062 83.988281 5.582031 C 84.691406 5.875 85.265625 6.261719 85.707031 6.742188 C 86.148438 7.222656 86.472656 7.769531 86.675781 8.386719 C 86.878906 9.003906 86.976562 9.640625 86.976562 10.304688 C 86.976562 10.949219 86.878906 11.585938 86.675781 12.207031 C 86.472656 12.828125 86.148438 13.382812 85.707031 13.863281 C 85.265625 14.34375 84.691406 14.730469 83.988281 15.023438 C 83.28125 15.316406 82.425781 15.464844 81.421875 15.464844 L 77.714844 15.464844 L 77.714844 21.234375 L 74.183594 21.234375 L 74.183594 5.140625 Z M 80.457031 12.714844 C 80.863281 12.714844 81.253906 12.683594 81.625 12.625 C 82 12.566406 82.332031 12.445312 82.617188 12.273438 C 82.898438 12.101562 83.128906 11.859375 83.300781 11.542969 C 83.472656 11.226562 83.558594 10.8125 83.558594 10.304688 C 83.558594 9.792969 83.472656 9.378906 83.300781 9.0625 C 83.128906 8.746094 82.898438 8.503906 82.617188 8.332031 C 82.332031 8.160156 82 8.039062 81.625 7.980469 C 81.253906 7.921875 80.863281 7.890625 80.457031 7.890625 L 77.714844 7.890625 L 77.714844 12.714844 Z M 97.792969 5.140625 C 98.511719 5.140625 99.160156 5.257812 99.738281 5.492188 C 100.3125 5.726562 100.808594 6.042969 101.222656 6.449219 C 101.636719 6.855469 101.949219 7.324219 102.167969 7.859375 C 102.382812 8.390625 102.492188 8.964844 102.492188 9.582031 C 102.492188 10.527344 102.292969 11.347656 101.898438 12.039062 C 101.5 12.730469 100.851562 13.253906 99.953125 13.617188 L 99.953125 13.660156 C 100.386719 13.78125 100.746094 13.964844 101.03125 14.214844 C 101.316406 14.460938 101.546875 14.753906 101.726562 15.09375 C 101.90625 15.429688 102.039062 15.800781 102.121094 16.207031 C 102.203125 16.613281 102.257812 17.019531 102.289062 17.425781 C 102.304688 17.679688 102.320312 17.980469 102.335938 18.324219 C 102.347656 18.671875 102.378906 19.023438 102.414062 19.386719 C 102.449219 19.746094 102.511719 20.085938 102.59375 20.410156 C 102.675781 20.734375 102.800781 21.007812 102.964844 21.234375 L 99.433594 21.234375 C 99.242188 20.722656 99.121094 20.113281 99.074219 19.40625 C 99.03125 18.699219 98.960938 18.023438 98.871094 17.378906 C 98.75 16.539062 98.5 15.921875 98.109375 15.53125 C 97.714844 15.140625 97.082031 14.945312 96.195312 14.945312 L 92.667969 14.945312 L 92.667969 21.234375 L 89.136719 21.234375 L 89.136719 5.140625 Z M 96.535156 12.421875 C 97.34375 12.421875 97.949219 12.242188 98.355469 11.878906 C 98.757812 11.519531 98.960938 10.933594 98.960938 10.121094 C 98.960938 9.34375 98.757812 8.773438 98.355469 8.421875 C 97.949219 8.070312 97.34375 7.890625 96.535156 7.890625 L 92.667969 7.890625 L 92.667969 12.421875 Z M 117.132812 20.003906 C 115.917969 21.0625 114.242188 21.59375 112.09375 21.59375 C 109.921875 21.59375 108.238281 21.066406 107.046875 20.015625 C 105.855469 18.964844 105.257812 17.34375 105.257812 15.148438 L 105.257812 5.140625 L 108.789062 5.140625 L 108.789062 15.148438 C 108.789062 15.585938 108.824219 16.011719 108.902344 16.433594 C 108.976562 16.851562 109.136719 17.226562 109.375 17.546875 C 109.613281 17.871094 109.949219 18.132812 110.375 18.335938 C 110.800781 18.539062 111.375 18.640625 112.09375 18.640625 C 113.355469 18.640625 114.222656 18.359375 114.703125 17.796875 C 115.183594 17.234375 115.421875 16.351562 115.421875 15.148438 L 115.421875 5.140625 L 118.953125 5.140625 L 118.953125 15.148438 C 118.953125 17.324219 118.347656 18.945312 117.132812 20.003906 Z M 124.644531 17.265625 C 124.839844 17.640625 125.097656 17.945312 125.421875 18.179688 C 125.742188 18.414062 126.121094 18.585938 126.554688 18.699219 C 126.992188 18.8125 127.441406 18.867188 127.90625 18.867188 C 128.21875 18.867188 128.558594 18.839844 128.917969 18.789062 C 129.277344 18.734375 129.613281 18.632812 129.929688 18.484375 C 130.238281 18.339844 130.5 18.132812 130.714844 17.863281 C 130.925781 17.601562 131.03125 17.265625 131.03125 16.859375 C 131.03125 16.425781 130.894531 16.074219 130.613281 15.800781 C 130.335938 15.53125 129.972656 15.304688 129.523438 15.125 C 129.074219 14.945312 128.566406 14.789062 127.996094 14.652344 C 127.414062 14.515625 126.835938 14.363281 126.261719 14.203125 C 125.664062 14.050781 125.078125 13.867188 124.507812 13.648438 C 123.9375 13.433594 123.429688 13.152344 122.980469 12.804688 C 122.53125 12.457031 122.167969 12.027344 121.890625 11.507812 C 121.609375 10.992188 121.472656 10.363281 121.472656 9.628906 C 121.472656 8.800781 121.648438 8.082031 122 7.476562 C 122.351562 6.867188 122.8125 6.359375 123.382812 5.953125 C 123.957031 5.546875 124.597656 5.246094 125.320312 5.050781 C 126.039062 4.859375 126.757812 4.757812 127.476562 4.757812 C 128.316406 4.757812 129.121094 4.851562 129.894531 5.039062 C 130.667969 5.230469 131.355469 5.535156 131.953125 5.953125 C 132.558594 6.375 133.035156 6.914062 133.382812 7.566406 C 133.730469 8.21875 133.910156 9.011719 133.910156 9.941406 L 130.492188 9.941406 C 130.460938 9.460938 130.359375 9.0625 130.1875 8.746094 C 130.015625 8.433594 129.785156 8.183594 129.5 8.003906 C 129.21875 7.824219 128.890625 7.695312 128.523438 7.621094 C 128.15625 7.546875 127.757812 7.507812 127.320312 7.507812 C 127.035156 7.507812 126.75 7.539062 126.464844 7.597656 C 126.183594 7.65625 125.921875 7.765625 125.691406 7.914062 C 125.457031 8.0625 125.265625 8.253906 125.117188 8.476562 C 124.96875 8.703125 124.890625 8.988281 124.890625 9.332031 C 124.890625 9.648438 124.949219 9.90625 125.070312 10.101562 C 125.191406 10.292969 125.429688 10.476562 125.78125 10.640625 C 126.132812 10.808594 126.621094 10.972656 127.242188 11.136719 C 127.863281 11.304688 128.679688 11.511719 129.679688 11.769531 C 129.980469 11.828125 130.398438 11.9375 130.929688 12.09375 C 131.460938 12.253906 131.988281 12.503906 132.515625 12.851562 C 133.039062 13.195312 133.492188 13.660156 133.875 14.234375 C 134.257812 14.8125 134.449219 15.554688 134.449219 16.457031 C 134.449219 17.191406 134.304688 17.875 134.023438 18.507812 C 133.738281 19.136719 133.3125 19.679688 132.75 20.140625 C 132.1875 20.597656 131.492188 20.953125 130.660156 21.210938 C 129.828125 21.46875 128.863281 21.59375 127.769531 21.59375 C 126.882812 21.59375 126.027344 21.484375 125.195312 21.265625 C 124.363281 21.050781 123.628906 20.707031 122.992188 20.242188 C 122.351562 19.777344 121.847656 19.183594 121.472656 18.460938 C 121.097656 17.738281 120.917969 16.882812 120.933594 15.890625 L 124.351562 15.890625 C 124.351562 16.433594 124.449219 16.890625 124.644531 17.265625 Z M 144.5 5.140625 L 150.507812 21.234375 L 146.839844 21.234375 L 145.625 17.648438 L 139.621094 17.648438 L 138.363281 21.234375 L 134.808594 21.234375 L 140.882812 5.140625 Z M 144.703125 15.011719 L 142.679688 9.109375 L 142.636719 9.109375 L 140.542969 15.011719 Z M 115.183594 30 L 114.003906 33.320312 L 116.34375 33.320312 L 115.203125 30 Z M 124.53125 29.316406 L 122.355469 29.316406 L 122.355469 31.863281 L 124.53125 31.863281 C 124.988281 31.863281 125.328125 31.761719 125.554688 31.558594 C 125.78125 31.355469 125.894531 31.027344 125.894531 30.570312 C 125.894531 30.128906 125.78125 29.8125 125.554688 29.613281 C 125.328125 29.417969 124.988281 29.316406 124.53125 29.316406 Z M 74.128906 23.113281 L 74.128906 41.332031 L 150.402344 41.332031 L 150.402344 23.113281 Z M 83.886719 36.820312 C 83.777344 36.53125 83.710938 36.191406 83.683594 35.792969 C 83.660156 35.394531 83.621094 35.015625 83.570312 34.652344 C 83.5 34.179688 83.359375 33.832031 83.136719 33.613281 C 82.917969 33.390625 82.558594 33.28125 82.0625 33.28125 L 80.078125 33.28125 L 80.078125 36.820312 L 78.09375 36.820312 L 78.09375 27.769531 L 82.964844 27.769531 C 83.367188 27.769531 83.734375 27.832031 84.058594 27.964844 C 84.382812 28.097656 84.660156 28.277344 84.890625 28.503906 C 85.125 28.730469 85.300781 28.996094 85.425781 29.296875 C 85.542969 29.597656 85.605469 29.917969 85.605469 30.265625 C 85.605469 30.796875 85.492188 31.257812 85.273438 31.648438 C 85.046875 32.035156 84.683594 32.332031 84.179688 32.535156 L 84.179688 32.5625 C 84.421875 32.628906 84.625 32.734375 84.785156 32.871094 C 84.945312 33.011719 85.074219 33.175781 85.179688 33.363281 C 85.28125 33.554688 85.355469 33.765625 85.402344 33.992188 C 85.445312 34.21875 85.480469 34.449219 85.496094 34.675781 C 85.503906 34.820312 85.515625 34.988281 85.523438 35.183594 C 85.53125 35.378906 85.542969 35.578125 85.566406 35.78125 C 85.585938 35.984375 85.621094 36.175781 85.667969 36.359375 C 85.714844 36.542969 85.785156 36.695312 85.875 36.820312 Z M 94.058594 36.820312 L 87.199219 36.820312 L 87.199219 27.769531 L 93.957031 27.769531 L 93.957031 29.441406 L 89.1875 29.441406 L 89.1875 31.378906 L 93.566406 31.378906 L 93.566406 32.925781 L 89.1875 32.925781 L 89.1875 35.148438 L 94.058594 35.148438 Z M 102.167969 35.289062 C 102.007812 35.644531 101.765625 35.949219 101.453125 36.207031 C 101.136719 36.464844 100.746094 36.664062 100.273438 36.808594 C 99.804688 36.953125 99.265625 37.027344 98.648438 37.027344 C 98.152344 37.027344 97.667969 36.964844 97.203125 36.84375 C 96.734375 36.722656 96.320312 36.527344 95.960938 36.265625 C 95.601562 36.003906 95.320312 35.667969 95.109375 35.261719 C 94.898438 34.855469 94.796875 34.375 94.804688 33.816406 L 96.726562 33.816406 C 96.726562 34.121094 96.78125 34.378906 96.890625 34.59375 C 97 34.804688 97.144531 34.976562 97.324219 35.105469 C 97.507812 35.238281 97.71875 35.332031 97.964844 35.398438 C 98.207031 35.460938 98.460938 35.492188 98.722656 35.492188 C 98.898438 35.492188 99.089844 35.480469 99.292969 35.449219 C 99.496094 35.421875 99.6875 35.359375 99.863281 35.277344 C 100.039062 35.191406 100.183594 35.078125 100.304688 34.925781 C 100.421875 34.78125 100.480469 34.59375 100.480469 34.363281 C 100.480469 34.117188 100.402344 33.917969 100.246094 33.765625 C 100.089844 33.613281 99.886719 33.488281 99.632812 33.386719 C 99.382812 33.285156 99.09375 33.195312 98.773438 33.117188 C 98.453125 33.042969 98.128906 32.957031 97.800781 32.863281 C 97.464844 32.78125 97.136719 32.675781 96.8125 32.554688 C 96.492188 32.433594 96.207031 32.273438 95.953125 32.078125 C 95.703125 31.886719 95.496094 31.640625 95.339844 31.347656 C 95.183594 31.054688 95.109375 30.703125 95.109375 30.289062 C 95.109375 29.824219 95.207031 29.421875 95.40625 29.078125 C 95.601562 28.738281 95.863281 28.449219 96.183594 28.222656 C 96.503906 27.996094 96.867188 27.824219 97.273438 27.714844 C 97.675781 27.605469 98.082031 27.550781 98.488281 27.550781 C 98.960938 27.550781 99.410156 27.605469 99.847656 27.710938 C 100.28125 27.816406 100.667969 27.984375 101.003906 28.222656 C 101.347656 28.460938 101.613281 28.761719 101.808594 29.128906 C 102.007812 29.5 102.109375 29.945312 102.109375 30.46875 L 100.183594 30.46875 C 100.167969 30.199219 100.113281 29.976562 100.011719 29.792969 C 99.914062 29.617188 99.789062 29.480469 99.628906 29.378906 C 99.46875 29.277344 99.285156 29.207031 99.078125 29.160156 C 98.871094 29.117188 98.644531 29.097656 98.398438 29.097656 C 98.238281 29.097656 98.078125 29.117188 97.917969 29.148438 C 97.757812 29.183594 97.613281 29.242188 97.484375 29.328125 C 97.351562 29.410156 97.246094 29.519531 97.160156 29.640625 C 97.074219 29.769531 97.035156 29.929688 97.035156 30.125 C 97.035156 30.300781 97.066406 30.445312 97.136719 30.554688 C 97.203125 30.664062 97.335938 30.765625 97.535156 30.859375 C 97.730469 30.953125 98.007812 31.046875 98.359375 31.136719 C 98.707031 31.230469 99.164062 31.347656 99.730469 31.492188 C 99.898438 31.527344 100.132812 31.589844 100.433594 31.675781 C 100.730469 31.761719 101.027344 31.90625 101.324219 32.101562 C 101.617188 32.296875 101.875 32.554688 102.089844 32.882812 C 102.304688 33.207031 102.410156 33.621094 102.410156 34.128906 C 102.40625 34.546875 102.328125 34.933594 102.167969 35.289062 Z M 110.414062 36.820312 L 103.558594 36.820312 L 103.558594 27.769531 L 110.3125 27.769531 L 110.3125 29.441406 L 105.546875 29.441406 L 105.546875 31.378906 L 109.921875 31.378906 L 109.921875 32.925781 L 105.546875 32.925781 L 105.546875 35.148438 L 110.417969 35.148438 L 110.417969 36.820312 Z M 117.550781 36.820312 L 116.867188 34.804688 L 113.488281 34.804688 L 112.78125 36.820312 L 110.78125 36.820312 L 114.199219 27.769531 L 116.234375 27.769531 L 119.613281 36.820312 Z M 126.160156 36.820312 C 126.050781 36.53125 125.984375 36.191406 125.960938 35.792969 C 125.933594 35.394531 125.894531 35.015625 125.84375 34.652344 C 125.777344 34.179688 125.632812 33.832031 125.414062 33.613281 C 125.195312 33.390625 124.839844 33.28125 124.339844 33.28125 L 122.351562 33.28125 L 122.351562 36.820312 L 120.367188 36.820312 L 120.367188 27.769531 L 125.238281 27.769531 C 125.640625 27.769531 126.007812 27.832031 126.332031 27.964844 C 126.652344 28.097656 126.933594 28.277344 127.164062 28.503906 C 127.394531 28.730469 127.574219 28.996094 127.695312 29.296875 C 127.816406 29.597656 127.878906 29.917969 127.878906 30.265625 C 127.878906 30.796875 127.765625 31.257812 127.546875 31.648438 C 127.324219 32.035156 126.957031 32.332031 126.453125 32.535156 L 126.453125 32.5625 C 126.695312 32.628906 126.898438 32.734375 127.058594 32.871094 C 127.21875 33.011719 127.351562 33.175781 127.449219 33.363281 C 127.550781 33.554688 127.625 33.765625 127.671875 33.992188 C 127.714844 34.21875 127.75 34.449219 127.765625 34.675781 C 127.777344 34.820312 127.785156 34.988281 127.792969 35.183594 C 127.800781 35.378906 127.816406 35.578125 127.835938 35.78125 C 127.855469 35.984375 127.890625 36.175781 127.9375 36.359375 C 127.988281 36.542969 128.054688 36.695312 128.148438 36.820312 Z M 137.105469 34.867188 C 136.894531 35.324219 136.617188 35.714844 136.269531 36.035156 C 135.925781 36.355469 135.519531 36.601562 135.054688 36.769531 C 134.59375 36.9375 134.082031 37.023438 133.523438 37.023438 C 132.832031 37.023438 132.210938 36.902344 131.65625 36.664062 C 131.105469 36.421875 130.640625 36.089844 130.261719 35.667969 C 129.882812 35.246094 129.589844 34.75 129.390625 34.179688 C 129.1875 33.605469 129.085938 32.992188 129.085938 32.332031 C 129.085938 31.65625 129.1875 31.027344 129.390625 30.449219 C 129.589844 29.875 129.882812 29.367188 130.261719 28.933594 C 130.640625 28.503906 131.105469 28.167969 131.65625 27.921875 C 132.207031 27.675781 132.832031 27.550781 133.523438 27.550781 C 134.023438 27.550781 134.492188 27.625 134.933594 27.769531 C 135.378906 27.914062 135.773438 28.121094 136.125 28.398438 C 136.472656 28.671875 136.761719 29.011719 136.992188 29.417969 C 137.21875 29.824219 137.363281 30.289062 137.421875 30.8125 L 135.496094 30.8125 C 135.464844 30.585938 135.390625 30.375 135.269531 30.183594 C 135.152344 29.996094 135.003906 29.824219 134.824219 29.683594 C 134.648438 29.539062 134.449219 29.425781 134.222656 29.347656 C 134 29.265625 133.765625 29.226562 133.519531 29.226562 C 133.074219 29.226562 132.695312 29.3125 132.382812 29.484375 C 132.074219 29.65625 131.820312 29.886719 131.625 30.183594 C 131.429688 30.476562 131.289062 30.804688 131.199219 31.175781 C 131.113281 31.550781 131.066406 31.933594 131.066406 32.328125 C 131.066406 32.710938 131.113281 33.078125 131.199219 33.441406 C 131.289062 33.800781 131.429688 34.121094 131.625 34.410156 C 131.820312 34.699219 132.074219 34.929688 132.382812 35.097656 C 132.695312 35.273438 133.074219 35.359375 133.519531 35.359375 C 134.128906 35.359375 134.605469 35.171875 134.945312 34.800781 C 135.285156 34.429688 135.496094 33.9375 135.570312 33.328125 L 137.492188 33.328125 C 137.445312 33.902344 137.316406 34.410156 137.105469 34.867188 Z M 146.453125 36.820312 L 144.464844 36.820312 L 144.464844 32.914062 L 140.8125 32.914062 L 140.8125 36.820312 L 138.824219 36.820312 L 138.824219 27.769531 L 140.8125 27.769531 L 140.8125 31.242188 L 144.464844 31.242188 L 144.464844 27.769531 L 146.453125 27.769531 Z M 82.253906 29.316406 L 80.078125 29.316406 L 80.078125 31.863281 L 82.253906 31.863281 C 82.710938 31.863281 83.050781 31.761719 83.28125 31.558594 C 83.507812 31.355469 83.621094 31.027344 83.621094 30.570312 C 83.621094 30.128906 83.507812 29.8125 83.28125 29.613281 C 83.050781 29.417969 82.710938 29.316406 82.253906 29.316406 Z M 76.78125 47.378906 C 77.027344 47.691406 77.148438 48.09375 77.148438 48.589844 C 77.148438 49.101562 77.027344 49.527344 76.78125 49.863281 C 76.539062 50.203125 76.199219 50.367188 75.765625 50.367188 C 75.492188 50.367188 75.273438 50.3125 75.105469 50.203125 C 75.007812 50.140625 74.902344 50.027344 74.785156 49.867188 L 74.785156 50.28125 L 73.9375 50.28125 L 73.9375 45.828125 L 74.796875 45.828125 L 74.796875 47.414062 C 74.90625 47.261719 75.027344 47.140625 75.160156 47.058594 C 75.316406 46.960938 75.515625 46.910156 75.757812 46.910156 C 76.191406 46.910156 76.53125 47.066406 76.78125 47.378906 Z M 76.058594 49.386719 C 76.183594 49.207031 76.246094 48.96875 76.246094 48.679688 C 76.246094 48.445312 76.214844 48.253906 76.152344 48.101562 C 76.039062 47.808594 75.824219 47.664062 75.515625 47.664062 C 75.199219 47.664062 74.984375 47.804688 74.867188 48.089844 C 74.804688 48.242188 74.773438 48.433594 74.773438 48.675781 C 74.773438 48.957031 74.835938 49.191406 74.960938 49.375 C 75.085938 49.5625 75.277344 49.65625 75.539062 49.65625 C 75.761719 49.65625 75.9375 49.566406 76.058594 49.386719 Z M 77.875 50.914062 L 77.984375 50.917969 C 78.070312 50.921875 78.152344 50.917969 78.226562 50.910156 C 78.304688 50.898438 78.367188 50.878906 78.421875 50.839844 C 78.472656 50.808594 78.519531 50.734375 78.5625 50.625 C 78.605469 50.515625 78.625 50.453125 78.617188 50.425781 L 77.410156 46.984375 L 78.367188 46.984375 L 79.085938 49.417969 L 79.769531 46.984375 L 80.679688 46.984375 L 79.554688 50.230469 C 79.335938 50.855469 79.164062 51.242188 79.035156 51.394531 C 78.910156 51.542969 78.65625 51.617188 78.273438 51.617188 C 78.199219 51.617188 78.136719 51.617188 78.089844 51.617188 C 78.042969 51.617188 77.972656 51.609375 77.882812 51.605469 L 77.882812 50.914062 Z M 84.070312 47.667969 L 84.070312 47.824219 C 84.082031 48.355469 84.136719 48.730469 84.230469 48.949219 C 84.332031 49.164062 84.539062 49.273438 84.863281 49.273438 C 85.179688 49.273438 85.390625 49.152344 85.492188 48.917969 C 85.554688 48.777344 85.585938 48.539062 85.585938 48.207031 L 85.585938 43.382812 L 87.023438 43.382812 L 87.023438 48.183594 C 87.023438 48.769531 86.925781 49.230469 86.726562 49.574219 C 86.390625 50.15625 85.785156 50.445312 84.914062 50.445312 C 84.042969 50.445312 83.457031 50.210938 83.15625 49.742188 C 82.859375 49.273438 82.710938 48.632812 82.710938 47.824219 L 82.710938 47.667969 Z M 93.84375 49.667969 C 93.324219 50.203125 92.574219 50.476562 91.589844 50.476562 C 90.605469 50.476562 89.855469 50.207031 89.335938 49.667969 C 88.636719 49.011719 88.289062 48.0625 88.289062 46.828125 C 88.289062 45.566406 88.636719 44.613281 89.335938 43.984375 C 89.855469 43.449219 90.605469 43.179688 91.589844 43.179688 C 92.574219 43.179688 93.324219 43.445312 93.84375 43.984375 C 94.539062 44.617188 94.882812 45.566406 94.882812 46.828125 C 94.882812 48.0625 94.535156 49.011719 93.84375 49.667969 Z M 92.945312 48.621094 C 93.277344 48.203125 93.445312 47.601562 93.445312 46.824219 C 93.445312 46.050781 93.273438 45.453125 92.945312 45.03125 C 92.609375 44.605469 92.15625 44.394531 91.589844 44.394531 C 91.019531 44.394531 90.566406 44.605469 90.226562 45.027344 C 89.886719 45.445312 89.714844 46.046875 89.714844 46.824219 C 89.714844 47.601562 89.886719 48.199219 90.226562 48.621094 C 90.566406 49.039062 91.019531 49.253906 91.589844 49.253906 C 92.160156 49.253906 92.609375 49.039062 92.945312 48.621094 Z M 97.015625 48.152344 C 97.0625 48.46875 97.148438 48.703125 97.277344 48.859375 C 97.515625 49.144531 97.925781 49.285156 98.503906 49.285156 C 98.847656 49.285156 99.128906 49.25 99.347656 49.171875 C 99.757812 49.03125 99.960938 48.761719 99.960938 48.375 C 99.960938 48.144531 99.863281 47.96875 99.660156 47.84375 C 99.460938 47.722656 99.140625 47.617188 98.707031 47.519531 L 97.960938 47.355469 C 97.230469 47.191406 96.726562 47.019531 96.453125 46.828125 C 95.988281 46.507812 95.757812 46.011719 95.757812 45.332031 C 95.757812 44.714844 95.984375 44.203125 96.4375 43.796875 C 96.890625 43.386719 97.554688 43.183594 98.4375 43.183594 C 99.171875 43.183594 99.796875 43.375 100.3125 43.761719 C 100.832031 44.148438 101.105469 44.707031 101.128906 45.4375 L 99.75 45.4375 C 99.722656 45.023438 99.539062 44.726562 99.195312 44.554688 C 98.964844 44.4375 98.679688 44.382812 98.339844 44.382812 C 97.957031 44.382812 97.65625 44.457031 97.429688 44.605469 C 97.203125 44.757812 97.089844 44.964844 97.089844 45.230469 C 97.089844 45.476562 97.203125 45.664062 97.425781 45.785156 C 97.566406 45.867188 97.871094 45.960938 98.339844 46.070312 L 99.542969 46.351562 C 100.074219 46.476562 100.46875 46.644531 100.734375 46.855469 C 101.144531 47.179688 101.347656 47.648438 101.347656 48.261719 C 101.347656 48.894531 101.105469 49.414062 100.621094 49.832031 C 100.132812 50.25 99.449219 50.457031 98.5625 50.457031 C 97.65625 50.457031 96.945312 50.253906 96.425781 49.84375 C 95.90625 49.433594 95.648438 48.867188 95.648438 48.152344 Z M 107.441406 44.605469 L 103.800781 44.605469 L 103.800781 46.070312 L 107.140625 46.070312 L 107.140625 47.269531 L 103.800781 47.269531 L 103.800781 49.039062 L 107.609375 49.039062 L 107.609375 50.28125 L 102.398438 50.28125 L 102.398438 43.386719 L 107.441406 43.386719 Z M 108.730469 43.394531 L 113.636719 43.394531 L 113.636719 44.605469 L 110.160156 44.605469 L 110.160156 46.191406 L 113.207031 46.191406 L 113.207031 47.390625 L 110.160156 47.390625 L 110.160156 50.28125 L 108.730469 50.28125 Z M 121.839844 47.296875 C 121.4375 47.636719 120.863281 47.800781 120.117188 47.800781 L 118.683594 47.800781 L 118.683594 50.28125 L 117.257812 50.28125 L 117.257812 43.386719 L 120.207031 43.386719 C 120.886719 43.386719 121.429688 43.5625 121.835938 43.917969 C 122.242188 44.273438 122.441406 44.828125 122.441406 45.570312 C 122.445312 46.382812 122.242188 46.960938 121.839844 47.296875 Z M 120.746094 44.8125 C 120.5625 44.660156 120.308594 44.585938 119.980469 44.585938 L 118.683594 44.585938 L 118.683594 46.617188 L 119.980469 46.617188 C 120.308594 46.617188 120.5625 46.535156 120.746094 46.367188 C 120.929688 46.203125 121.019531 45.9375 121.019531 45.582031 C 121.019531 45.222656 120.925781 44.96875 120.746094 44.8125 Z M 128.007812 43.5625 C 128.257812 43.675781 128.476562 43.835938 128.648438 44.046875 C 128.796875 44.222656 128.910156 44.414062 128.996094 44.625 C 129.078125 44.835938 129.121094 45.078125 129.121094 45.351562 C 129.121094 45.675781 129.039062 46 128.875 46.316406 C 128.707031 46.632812 128.4375 46.859375 128.058594 46.988281 C 128.375 47.113281 128.597656 47.296875 128.730469 47.53125 C 128.863281 47.765625 128.929688 48.125 128.929688 48.609375 L 128.929688 49.070312 C 128.929688 49.386719 128.941406 49.601562 128.96875 49.710938 C 129.003906 49.890625 129.09375 50.019531 129.230469 50.101562 L 129.230469 50.273438 L 127.644531 50.273438 C 127.601562 50.121094 127.570312 50 127.554688 49.90625 C 127.515625 49.710938 127.496094 49.515625 127.492188 49.3125 L 127.484375 48.671875 C 127.476562 48.230469 127.402344 47.9375 127.253906 47.792969 C 127.109375 47.644531 126.835938 47.574219 126.4375 47.574219 L 125.035156 47.574219 L 125.035156 50.277344 L 123.628906 50.277344 L 123.628906 43.382812 L 126.921875 43.382812 C 127.390625 43.394531 127.753906 43.453125 128.007812 43.5625 Z M 125.035156 44.585938 L 125.035156 46.433594 L 126.582031 46.433594 C 126.886719 46.433594 127.117188 46.398438 127.273438 46.324219 C 127.546875 46.191406 127.679688 45.933594 127.679688 45.542969 C 127.679688 45.128906 127.546875 44.847656 127.285156 44.703125 C 127.136719 44.621094 126.917969 44.582031 126.621094 44.582031 L 125.035156 44.582031 Z M 130.5 43.386719 L 131.960938 43.386719 L 131.960938 47.621094 C 131.960938 48.09375 132.015625 48.441406 132.128906 48.65625 C 132.304688 49.042969 132.679688 49.238281 133.265625 49.238281 C 133.84375 49.238281 134.222656 49.042969 134.394531 48.65625 C 134.507812 48.441406 134.5625 48.09375 134.5625 47.621094 L 134.5625 43.386719 L 136.027344 43.386719 L 136.027344 47.625 C 136.027344 48.355469 135.914062 48.929688 135.6875 49.335938 C 135.265625 50.085938 134.457031 50.457031 133.269531 50.457031 C 132.078125 50.457031 131.273438 50.082031 130.84375 49.335938 C 130.617188 48.929688 130.503906 48.355469 130.503906 47.625 L 130.503906 43.386719 Z M 138.4375 48.152344 C 138.484375 48.46875 138.570312 48.703125 138.699219 48.859375 C 138.9375 49.144531 139.347656 49.285156 139.925781 49.285156 C 140.269531 49.285156 140.550781 49.25 140.769531 49.171875 C 141.179688 49.03125 141.382812 48.761719 141.382812 48.375 C 141.382812 48.144531 141.28125 47.96875 141.082031 47.84375 C 140.882812 47.722656 140.5625 47.617188 140.128906 47.519531 L 139.382812 47.355469 C 138.652344 47.191406 138.148438 47.019531 137.871094 46.828125 C 137.410156 46.507812 137.179688 46.011719 137.179688 45.332031 C 137.179688 44.714844 137.40625 44.203125 137.859375 43.796875 C 138.3125 43.386719 138.976562 43.183594 139.859375 43.183594 C 140.589844 43.183594 141.21875 43.375 141.734375 43.761719 C 142.253906 44.148438 142.523438 44.707031 142.550781 45.4375 L 141.171875 45.4375 C 141.144531 45.023438 140.960938 44.726562 140.617188 44.554688 C 140.386719 44.4375 140.101562 44.382812 139.757812 44.382812 C 139.378906 44.382812 139.078125 44.457031 138.851562 44.605469 C 138.625 44.757812 138.511719 44.964844 138.511719 45.230469 C 138.511719 45.476562 138.625 45.664062 138.84375 45.785156 C 138.988281 45.867188 139.292969 45.960938 139.757812 46.070312 L 140.964844 46.351562 C 141.492188 46.476562 141.890625 46.644531 142.15625 46.855469 C 142.566406 47.179688 142.769531 47.648438 142.769531 48.261719 C 142.769531 48.894531 142.527344 49.414062 142.042969 49.832031 C 141.554688 50.25 140.871094 50.457031 139.984375 50.457031 C 139.078125 50.457031 138.363281 50.253906 137.847656 49.84375 C 137.328125 49.433594 137.070312 48.867188 137.070312 48.152344 Z M 145.742188 43.386719 L 147.371094 43.386719 L 149.804688 50.28125 L 148.25 50.28125 L 147.792969 48.863281 L 145.261719 48.863281 L 144.792969 50.28125 L 143.289062 50.28125 Z M 145.648438 47.675781 L 147.410156 47.675781 L 146.542969 44.960938 Z M 145.648438 47.675781 " fill-opacity="1" fill-rule="nonzero"/></svg>