<svg xmlns="http://www.w3.org/2000/svg" xmlns:xlink="http://www.w3.org/1999/xlink" width="300" zoomAndPan="magnify" viewBox="0 0 224.87999 56.249996" height="75" preserveAspectRatio="xMidYMid meet" version="1.0"><path fill="#000000" d="M 54.101562 32.226562 C 54.242188 32.226562 54.355469 32.273438 54.445312 32.375 C 54.53125 32.46875 54.574219 32.589844 54.574219 32.730469 L 54.574219 36.210938 C 54.574219 36.351562 54.53125 36.46875 54.445312 36.570312 C 54.355469 36.664062 54.242188 36.71875 54.101562 36.71875 L 42.734375 36.71875 C 42.394531 36.71875 42.230469 36.546875 42.230469 36.214844 L 42.230469 18.75 C 42.230469 18.414062 42.394531 18.246094 42.734375 18.246094 L 46.367188 18.246094 C 46.699219 18.246094 46.863281 18.414062 46.863281 18.75 L 46.863281 31.757812 C 46.863281 31.894531 46.910156 32.007812 47.011719 32.101562 C 47.105469 32.191406 47.222656 32.230469 47.367188 32.230469 L 54.101562 32.230469 " fill-opacity="1" fill-rule="nonzero"/><path fill="#000000" d="M 75.09375 18.386719 C 75.1875 18.484375 75.238281 18.601562 75.238281 18.742188 L 75.238281 33.226562 L 75.210938 33.226562 C 75.210938 33.367188 75.195312 33.519531 75.160156 33.675781 C 75.125 33.832031 75.082031 33.960938 75.027344 34.070312 L 72.609375 36.496094 C 72.488281 36.566406 72.332031 36.617188 72.148438 36.652344 C 71.96875 36.6875 71.804688 36.710938 71.660156 36.710938 L 63.316406 36.710938 C 63.175781 36.710938 63.019531 36.691406 62.84375 36.652344 C 62.667969 36.617188 62.519531 36.5625 62.394531 36.496094 L 59.972656 34.070312 C 59.90625 33.945312 59.847656 33.796875 59.8125 33.617188 C 59.78125 33.445312 59.761719 33.285156 59.761719 33.144531 L 59.761719 18.738281 C 59.761719 18.597656 59.808594 18.480469 59.910156 18.382812 C 60.003906 18.285156 60.121094 18.234375 60.265625 18.234375 L 63.898438 18.234375 C 64.035156 18.234375 64.15625 18.285156 64.253906 18.382812 C 64.347656 18.484375 64.398438 18.597656 64.398438 18.738281 L 64.398438 31.75 C 64.398438 31.886719 64.445312 32.007812 64.542969 32.105469 C 64.636719 32.199219 64.757812 32.25 64.898438 32.25 L 70.109375 32.25 C 70.25 32.25 70.367188 32.203125 70.453125 32.105469 C 70.539062 32.011719 70.582031 31.890625 70.582031 31.75 L 70.582031 18.738281 C 70.582031 18.597656 70.628906 18.480469 70.726562 18.382812 C 70.820312 18.285156 70.941406 18.234375 71.085938 18.234375 L 74.742188 18.234375 C 74.882812 18.234375 75.003906 18.285156 75.097656 18.382812 " fill-opacity="1" fill-rule="nonzero"/><path fill="#000000" d="M 93.898438 32.226562 C 94.039062 32.226562 94.152344 32.273438 94.242188 32.375 C 94.332031 32.46875 94.371094 32.589844 94.371094 32.730469 L 94.371094 36.210938 C 94.371094 36.351562 94.328125 36.46875 94.242188 36.570312 C 94.148438 36.664062 94.039062 36.71875 93.898438 36.71875 L 82.527344 36.71875 C 82.195312 36.71875 82.03125 36.546875 82.03125 36.214844 L 82.03125 18.75 C 82.03125 18.414062 82.195312 18.246094 82.527344 18.246094 L 86.160156 18.246094 C 86.496094 18.246094 86.664062 18.414062 86.664062 18.75 L 86.664062 31.757812 C 86.664062 31.894531 86.710938 32.007812 86.804688 32.101562 C 86.902344 32.191406 87.019531 32.230469 87.160156 32.230469 L 93.898438 32.230469 " fill-opacity="1" fill-rule="nonzero"/><path fill="#000000" d="M 113.617188 22.070312 C 113.617188 22.207031 113.582031 22.359375 113.507812 22.519531 C 113.4375 22.675781 113.355469 22.808594 113.273438 22.914062 L 104.71875 32.574219 L 113.117188 32.574219 C 113.257812 32.574219 113.378906 32.621094 113.472656 32.714844 C 113.574219 32.8125 113.621094 32.933594 113.621094 33.070312 L 113.621094 36.210938 C 113.621094 36.351562 113.570312 36.472656 113.472656 36.570312 C 113.378906 36.667969 113.261719 36.71875 113.117188 36.71875 L 100.039062 36.71875 C 99.703125 36.71875 99.535156 36.546875 99.535156 36.214844 L 99.535156 32.914062 C 99.535156 32.777344 99.566406 32.621094 99.625 32.457031 C 99.6875 32.289062 99.761719 32.152344 99.851562 32.046875 L 108.589844 22.390625 L 100.195312 22.390625 C 100.050781 22.390625 99.933594 22.34375 99.839844 22.242188 C 99.738281 22.148438 99.691406 22.03125 99.691406 21.886719 L 99.691406 18.742188 C 99.691406 18.601562 99.738281 18.484375 99.839844 18.386719 C 99.933594 18.289062 100.050781 18.242188 100.195312 18.242188 L 113.117188 18.242188 C 113.257812 18.242188 113.378906 18.289062 113.472656 18.386719 C 113.574219 18.484375 113.621094 18.601562 113.621094 18.742188 L 113.621094 22.070312 " fill-opacity="1" fill-rule="nonzero"/><path fill="#000000" d="M 124.613281 32.675781 L 131.695312 32.675781 L 131.695312 29.085938 L 124.613281 29.085938 Z M 124.613281 25.550781 L 131.695312 25.550781 L 131.695312 22.25 L 124.613281 22.25 Z M 135.695312 20.878906 C 135.746094 21 135.796875 21.15625 135.835938 21.339844 C 135.878906 21.523438 135.90625 21.6875 135.90625 21.824219 L 135.90625 24.753906 C 135.90625 24.898438 135.875 25.050781 135.816406 25.214844 C 135.753906 25.386719 135.679688 25.519531 135.589844 25.625 L 134.460938 27.078125 C 134.371094 27.183594 134.332031 27.316406 134.34375 27.472656 C 134.351562 27.632812 134.398438 27.753906 134.492188 27.839844 L 135.570312 29.160156 C 135.65625 29.265625 135.738281 29.402344 135.808594 29.570312 C 135.875 29.734375 135.910156 29.890625 135.910156 30.03125 L 135.910156 33.140625 C 135.910156 33.285156 135.890625 33.441406 135.839844 33.613281 C 135.796875 33.792969 135.75 33.941406 135.699219 34.066406 L 133.277344 36.492188 C 133.152344 36.5625 133 36.613281 132.816406 36.648438 C 132.628906 36.683594 132.46875 36.707031 132.332031 36.707031 L 120.933594 36.707031 C 120.601562 36.707031 120.433594 36.535156 120.433594 36.203125 L 120.433594 18.734375 C 120.433594 18.59375 120.480469 18.476562 120.578125 18.378906 C 120.679688 18.28125 120.792969 18.230469 120.933594 18.230469 L 132.332031 18.230469 C 132.46875 18.230469 132.628906 18.253906 132.816406 18.296875 C 133 18.339844 133.152344 18.390625 133.277344 18.445312 L 135.699219 20.871094 " fill-opacity="1" fill-rule="nonzero"/><path fill="#000000" d="M 147.199219 32.25 L 153.386719 32.25 L 153.386719 22.730469 L 147.199219 22.730469 Z M 157.835938 20.878906 C 157.890625 21 157.9375 21.152344 157.980469 21.328125 C 158.023438 21.503906 158.050781 21.660156 158.050781 21.800781 L 158.050781 33.144531 C 158.050781 33.289062 158.027344 33.445312 157.980469 33.617188 C 157.9375 33.796875 157.890625 33.945312 157.835938 34.070312 L 155.414062 36.496094 C 155.292969 36.566406 155.136719 36.617188 154.953125 36.652344 C 154.773438 36.6875 154.605469 36.710938 154.46875 36.710938 L 146.125 36.710938 C 145.988281 36.710938 145.828125 36.691406 145.652344 36.652344 C 145.480469 36.617188 145.328125 36.5625 145.207031 36.496094 L 142.78125 34.070312 C 142.714844 33.945312 142.660156 33.796875 142.625 33.617188 C 142.59375 33.445312 142.574219 33.285156 142.574219 33.144531 L 142.574219 21.800781 C 142.574219 21.660156 142.59375 21.5 142.625 21.328125 C 142.660156 21.152344 142.71875 21 142.78125 20.878906 L 145.207031 18.453125 C 145.328125 18.402344 145.480469 18.351562 145.652344 18.304688 C 145.832031 18.261719 145.988281 18.242188 146.125 18.242188 L 154.46875 18.242188 C 154.605469 18.242188 154.773438 18.261719 154.953125 18.304688 C 155.136719 18.347656 155.292969 18.402344 155.414062 18.453125 L 157.835938 20.878906 " fill-opacity="1" fill-rule="nonzero"/><path fill="#000000" d="M 177.4375 22.226562 C 177.4375 22.363281 177.390625 22.480469 177.296875 22.582031 C 177.195312 22.675781 177.078125 22.730469 176.941406 22.730469 L 173.203125 22.730469 C 173.066406 22.730469 172.945312 22.773438 172.84375 22.859375 C 172.75 22.945312 172.703125 23.0625 172.703125 23.203125 L 172.703125 36.207031 C 172.703125 36.347656 172.660156 36.464844 172.570312 36.566406 C 172.484375 36.660156 172.367188 36.714844 172.230469 36.714844 L 168.570312 36.714844 C 168.429688 36.714844 168.3125 36.667969 168.210938 36.566406 C 168.117188 36.46875 168.070312 36.347656 168.070312 36.207031 L 168.070312 23.203125 C 168.070312 23.0625 168.023438 22.945312 167.9375 22.859375 C 167.851562 22.773438 167.734375 22.730469 167.597656 22.730469 L 163.855469 22.730469 C 163.71875 22.730469 163.597656 22.675781 163.5 22.582031 C 163.40625 22.480469 163.359375 22.367188 163.359375 22.226562 L 163.359375 18.738281 C 163.359375 18.40625 163.523438 18.234375 163.855469 18.234375 L 176.9375 18.234375 C 177.074219 18.234375 177.191406 18.285156 177.292969 18.382812 C 177.386719 18.480469 177.433594 18.597656 177.433594 18.738281 L 177.433594 22.226562 " fill-opacity="1" fill-rule="nonzero"/><path fill="#000000" d="M 179.609375 31.574219 C 179.289062 31.574219 178.984375 31.636719 178.703125 31.753906 C 178.425781 31.867188 178.171875 32.042969 177.941406 32.277344 C 177.707031 32.511719 177.535156 32.769531 177.417969 33.050781 C 177.300781 33.332031 177.238281 33.636719 177.238281 33.957031 C 177.238281 34.277344 177.300781 34.574219 177.417969 34.855469 C 177.535156 35.140625 177.707031 35.398438 177.941406 35.628906 C 178.171875 35.863281 178.425781 36.035156 178.703125 36.152344 C 178.984375 36.265625 179.289062 36.324219 179.609375 36.324219 C 179.929688 36.324219 180.234375 36.265625 180.511719 36.152344 C 180.792969 36.035156 181.050781 35.863281 181.285156 35.628906 C 181.511719 35.398438 181.6875 35.140625 181.796875 34.863281 C 181.914062 34.582031 181.976562 34.277344 181.976562 33.957031 C 181.976562 33.636719 181.914062 33.324219 181.796875 33.042969 C 181.679688 32.757812 181.507812 32.503906 181.285156 32.277344 C 181.050781 32.039062 180.792969 31.867188 180.511719 31.753906 C 180.234375 31.636719 179.933594 31.574219 179.609375 31.574219 Z M 179.609375 31.191406 C 179.984375 31.191406 180.335938 31.261719 180.65625 31.398438 C 180.980469 31.53125 181.277344 31.734375 181.542969 32.007812 C 181.8125 32.277344 182.011719 32.578125 182.144531 32.898438 C 182.277344 33.21875 182.347656 33.574219 182.347656 33.957031 C 182.347656 34.339844 182.277344 34.679688 182.144531 35 C 182.015625 35.320312 181.816406 35.621094 181.542969 35.890625 C 181.273438 36.15625 180.980469 36.363281 180.65625 36.5 C 180.335938 36.636719 179.984375 36.703125 179.609375 36.703125 C 179.230469 36.703125 178.882812 36.636719 178.558594 36.5 C 178.230469 36.367188 177.9375 36.164062 177.671875 35.890625 C 177.402344 35.621094 177.199219 35.320312 177.0625 35 C 176.933594 34.679688 176.867188 34.332031 176.867188 33.957031 C 176.867188 33.585938 176.933594 33.21875 177.0625 32.898438 C 177.195312 32.578125 177.398438 32.277344 177.671875 32.007812 C 177.9375 31.738281 178.230469 31.535156 178.558594 31.398438 C 178.882812 31.261719 179.234375 31.191406 179.609375 31.191406 Z M 179.507812 32.730469 L 179.054688 32.730469 L 179.054688 33.753906 L 179.507812 33.753906 C 179.777344 33.753906 179.96875 33.71875 180.074219 33.644531 C 180.183594 33.566406 180.234375 33.433594 180.234375 33.246094 C 180.234375 33.058594 180.179688 32.929688 180.074219 32.847656 C 179.96875 32.769531 179.78125 32.730469 179.507812 32.730469 Z M 179.535156 32.347656 C 179.96875 32.347656 180.292969 32.421875 180.507812 32.570312 C 180.71875 32.714844 180.828125 32.9375 180.828125 33.238281 C 180.828125 33.453125 180.761719 33.632812 180.632812 33.769531 C 180.503906 33.90625 180.320312 33.996094 180.082031 34.035156 C 180.144531 34.058594 180.214844 34.117188 180.296875 34.214844 C 180.382812 34.308594 180.476562 34.449219 180.589844 34.628906 L 181.097656 35.453125 L 180.464844 35.453125 L 179.992188 34.683594 C 179.847656 34.445312 179.722656 34.296875 179.636719 34.230469 C 179.546875 34.160156 179.433594 34.132812 179.300781 34.132812 L 179.054688 34.132812 L 179.054688 35.453125 L 178.484375 35.453125 L 178.484375 32.351562 C 178.484375 32.351562 179.535156 32.351562 179.535156 32.351562 Z M 179.535156 32.347656 " fill-opacity="1" fill-rule="nonzero"/></svg>