<?xml version="1.0" encoding="utf-8"?>
<!-- Generator: Adobe Illustrator 27.0.1, SVG Export Plug-In . SVG Version: 6.00 Build 0)  -->
<svg version="1.1" id="Layer_1" xmlns="http://www.w3.org/2000/svg" xmlns:xlink="http://www.w3.org/1999/xlink" x="0px" y="0px"
	 viewBox="0 0 861.6 660.5" style="enable-background:new 0 0 861.6 660.5;" xml:space="preserve">
<g>
	<path d="M70.2,660.5c5-5.1,10.1-10.3,15.1-15.4c2.6-2.6,5.3-5.2,7.8-7.9c1.2-1.3,2.5-1.8,4.3-1.8c9.4,0.1,18.8,0,28.1,0.1
		c1.9,0,3.3-0.5,4.6-1.9c2-2.2,4.1-4.1,6.4-6.4c-2.5-2.6-4.9-4.9-7.3-7.3c-0.9-0.9-1.9-0.9-3-0.9c-6.9,0-13.7,0.1-20.6,0
		c-1.7,0-2.9,0.5-4,1.7c-4.1,4.2-8.3,8.4-12.5,12.5c-0.6,0.6-1.1,1.6-2.4,1.7c0-16.2,0-32.4,0-48.7c1.3,0.4,1.9,1.3,2.6,2.1
		c4.1,4.1,8.2,8.1,12.3,12.3c1.1,1.2,2.3,1.8,4,1.7c6.9-0.1,13.7-0.1,20.6,0c1.4,0,2.5-0.4,3.4-1.4c2.2-2.2,4.5-4.4,7-6.8
		c-2.7-2.7-5.2-5.2-7.6-7.6c-1-1-2.2-0.7-3.4-0.7c-9.3,0-18.5-0.1-27.8,0c-2,0-3.5-0.6-4.9-2c-4.1-4.3-8.3-8.4-12.4-12.5
		c-0.6-0.6-1.4-1-1.5-2c0.8-0.5,1.7-0.3,2.5-0.3c17.5,0,34.9,0,52.4-0.1c1.9,0,3.2,0.5,4.6,1.8c7,7.2,14.2,14.2,21.3,21.3
		c0.6,0.6,1.4,1.1,1.7,2.2c-4.5,4.5-9,9-13.6,13.6c-0.5,0.5-1,1.1-1.6,1.6c-1,0.8-1,1.5,0,2.4c1.8,1.7,3.5,3.6,5.3,5.3
		c1.2,1.1,1.8,2.3,1.8,4c-0.1,4.1-0.1,8.3,0,12.4c0,1.6-0.5,2.6-1.6,3.7c-4.5,4.4-9,8.9-13.4,13.4c-1.2,1.2-2.4,1.6-4,1.6
		c-9.4-0.1-18.8,0-28.1-0.1c-1.9,0-3.4,0.5-4.6,1.9c-1.9,2.2-4.4,3.8-5.9,6.4C87.2,660.5,78.7,660.5,70.2,660.5z"/>
	<path d="M563,660.5c-1.9-3.1-4.9-5.2-7.3-7.8c-0.8-0.9-2.1-0.5-3.1-0.5c-12,0-24-0.1-36,0c-2.2,0-3.7-0.6-5.1-2.2
		c-1.9-2.2-4.9-3.8-5.9-6.4c-0.9-2.5-0.3-5.6-0.3-8.4c0-10,0-20.1,0-30.1c0-2.9,0-2.7,2.7-3c4-0.4,6.8,0.9,9.7,3.8
		c3.1,3.2,4.8,6.2,4.5,10.8c-0.4,5.4-0.1,10.9-0.1,16.3c0,2.3,0.1,2.3,2.4,2.4c4.3,0,8.7,0,13.6,0c-2.2-3.1-5.1-5.1-7.1-7.8
		c0.6-1,1.5-0.6,2.1-0.6c6.6,0,13.3,0,19.9,0c1.5,0,2.7,0.3,3.8,1.4c10,10.1,20,20.1,30,30.1c0.5,0.5,1.3,0.9,1.1,1.8
		C579.6,660.5,571.3,660.5,563,660.5z"/>
	<path d="M780.3,660.5c-0.4-1.1-1.3-1.7-2.1-2.4c-9.3-9.3-18.7-18.6-28-27.9c-0.8-0.8-1.7-1.3-2.4-1.9c0.7-1.6,1.6-1.1,2.2-1.1
		c3.7-0.1,7.4,0,11.1,0c3,0,2.9,0.2,2.9-2.8c0-7.1,0-14.2,0-21.3c0-7.8,0-15.7,0-23.5c0-1.7,0.4-2.9,1.7-4c2.4-2.1,4.3-5.1,7-6.2
		c2.7-1.1,6.2-0.4,9.4-0.4c4.9,0,9.8,0,14.7,0c0.5,1.1-0.5,1.4-0.9,1.9c-4.2,4.2-8.4,8.5-12.8,12.7c-1.4,1.4-2.1,2.8-2.1,4.8
		c0.1,14.9,0,29.9-0.1,44.8c0,1.8,0.6,3,1.8,4.3c6.9,6.8,13.7,13.8,20.5,20.7c0.8,0.8,1.7,1.4,2,2.5
		C796.9,660.5,788.6,660.5,780.3,660.5z"/>
	<path d="M40.3,0.1c1.9,0,2.9,0,4,0c92.8,0,185.7,0,278.5-0.1c2.4,0,4,0.7,5.7,2.4C367.7,41.7,407,81,446.3,120.2
		c0.8,0.8,1.7,1.4,2.3,3c-0.8,0.6-1.8,1.2-2.6,2.1c-25.4,25.4-50.8,50.8-76.1,76.1c-2.7,2.7-2.7,2.7,0.1,5.6
		c12,12,23.9,23.9,35.9,35.8c1.5,1.5,2.1,3,2.1,5.1c-0.1,25.2-0.1,50.4,0,75.6c0,2.3-0.7,3.8-2.3,5.4
		c-25.7,25.6-51.4,51.3-77.1,77.1c-1.7,1.7-3.3,2.4-5.7,2.3c-52-0.1-104.1,0-156.1-0.1c-2.7,0-4.6,0.6-6.6,2.6
		c-11.8,12.1-23.9,23.9-35.8,36c-1.6,1.6-3.1,2.3-5.4,2.3c-38.5-0.1-77,0-115.5-0.1c-1,0-2.1,0.2-3.5-0.4c0.7-0.8,1.3-1.5,2-2.2
		c39.3-39.4,78.7-78.7,118-118.1c1.6-1.6,3.1-2,5.2-2c52.1,0,104.3,0,156.4,0.1c2.6,0,4.4-0.7,6.3-2.6c11.8-12,23.7-23.8,35.6-35.7
		c0.8-0.8,1.5-1.6,2.2-2.3c-0.1-1.1-0.9-1.6-1.5-2.1c-12.3-12.4-24.7-24.7-37-37.1c-1.5-1.5-3-1.8-5-1.8c-38.8,0-77.7,0-116.5,0
		c-2.2,0-3.6,0.8-5.1,2.2c-25.4,25.5-50.9,50.9-76.3,76.4c-0.8,0.8-1.7,1.6-2.9,2.7c0-81.7,0-162.8,0-244.1c1.2,0.2,1.7,1.2,2.4,1.9
		c25.5,25.5,51.1,51.1,76.6,76.6c1.7,1.7,3.4,2.6,6,2.5c38.5-0.1,77-0.1,115.5,0c2.4,0,4-0.6,5.7-2.3c12-12.1,24-24.1,36.1-36.1
		c0.4-0.4,0.7-0.8,1.2-1.2c1-0.8,1.1-1.5,0-2.4c-0.4-0.3-0.8-0.8-1.2-1.2c-12.1-12.1-24.3-24.2-36.3-36.4c-1.6-1.6-3.2-2.2-5.4-2.2
		c-52.1,0.1-104.3,0-156.4,0.1c-2.4,0-4.2-0.6-6-2.4C94.1,53.9,68.6,28.5,43.2,3C42.4,2.2,41.7,1.4,40.3,0.1z"/>
	<path d="M861,449.3c-1.1,0-2.2,0-3.2,0c-38.3,0-76.6,0-114.9,0.1c-2.6,0-4.4-0.8-6.3-2.6c-11.9-12-23.9-23.9-35.8-35.9
		c-1.7-1.7-3.3-2.4-5.7-2.4c-65.7,0.1-131.3,0-197,0.1c-2.6,0-4.4-0.7-6.3-2.5c-12-12.1-24-24.1-36.1-36.1c-1.5-1.5-2.2-2.9-2.2-5.1
		c0.1-66,0-132,0-198c0-0.4,0-0.9,0-1.3c-0.2-1.6,0.5-2.1,2-2c5,0.1,10,0,15.1,0c7.2,0,14.4,0,21.6,0c1.5,0,2.6,0.4,3.7,1.5
		c12.5,12.6,25.1,25.2,37.7,37.7c1.4,1.4,1.6,2.9,1.6,4.7c0,38.3,0,76.6,0,114.9c0,4.5,0,4.5,4.5,4.5c24.9,0,49.7,0,74.6,0
		c0.4,0,0.9,0,1.3,0c-0.2-0.5,0,0,0.1-0.4c0-0.1,0.1-0.2,0-0.3c-0.3-0.3-0.5-0.7-0.8-1c-12.8-12.8-25.6-25.6-38.4-38.4
		c0,0,0-0.2,0-0.5c1,0,2-0.1,3.1-0.1c38.6,0,77.2,0,115.8,0c2.1,0,3.6,0.7,5.1,2.2c52.7,52.8,105.5,105.6,158.3,158.3
		c0.8,0.8,1.7,1.3,2.6,1.9C861.4,448.6,861.2,449,861,449.3z"/>
	<path d="M780.3,326.3c-1.4-0.2-1.9-1.2-2.6-1.8c-25.7-25.7-51.4-51.4-77.1-77c-1.6-1.6-2.2-3.2-2.2-5.4c0.1-38.6,0-77.2,0.1-115.9
		c0-2.5-0.7-4.2-2.5-6c-12.1-12-24.1-24-36.1-36.1c-1.7-1.7-3.3-2.3-5.7-2.3c-65.8,0.1-131.5,0-197.3,0.1c-2.5,0-4.2-0.7-6-2.4
		C425.6,54,400.3,28.6,374.9,3.2c-0.8-0.8-1.9-1.4-3.3-2.4c1.9-1,3.1-0.7,4.2-0.7c84.6,0,169.3,0,253.9,0c21.9,0,43.8,0,65.8,0
		c2.1,0,3.6,0.6,5.1,2.1c25.8,25.9,51.6,51.7,77.5,77.5c1.5,1.5,2.2,3,2.2,5.1c-0.1,79.5,0,159.1,0,238.6
		C780.3,324.3,780.3,325.2,780.3,326.3z"/>
	<path d="M571.8,635.5c-3.5-3.5-6.7-6.7-9.9-9.9c-2.1-2.2-5.1-4-6.2-6.6c-1.1-2.6-0.4-6-0.4-9c0-4.5-0.1-8.9,0-13.4
		c0-1.6-0.3-2.9-1.6-4c-1.8-1.6-3.5-3.3-5.1-5.1c-1.1-1.3-2.4-1.6-4-1.6c-12.1,0.1-24.2,0-36.3,0.1c-2,0-3.5-0.6-4.9-2
		c-4.1-4.3-8.3-8.4-12.4-12.5c-0.6-0.6-1.4-1-1.5-2c0.8-0.5,1.7-0.2,2.5-0.3c20.2,0,40.3,0,60.5-0.1c2,0,3.4,0.5,4.8,2
		c4.3,4.5,8.8,8.8,13.2,13.2c1,0.9,1.6,1.9,1.6,3.4c-0.1,15.7-0.1,31.4-0.1,47.1C572.1,634.7,572,634.8,571.8,635.5z"/>
	<path d="M763.5,652.4c-8.4,0-16.5,0-24.7,0c-4.7,0-9.4-0.1-14.1-0.1c-1.7,0-2.9-0.5-4-1.7c-2.1-2.2-4.9-4.1-6.2-6.7
		c-1.3-2.6-0.4-6-0.4-9c0-15.4-0.1-30.7,0-46.1c0-2.1-0.6-3.7-2.1-5.1c-4-3.8-7.9-7.8-11.8-11.8c-0.7-0.8-1.7-1.4-2.1-2.4
		c0.5-0.9,1.4-0.4,2.1-0.4c6.5-0.1,13.1,0,19.6-0.1c1.9,0,3.3,0.5,4.5,1.9c1.1,1.3,2.3,2.7,3.7,3.7c2.3,1.8,2.8,4.1,2.7,6.8
		c-0.1,16.6-0.1,33.1-0.1,49.7c0,0.4,0,0.9,0,1.3c0,3.4-0.2,3.2,3.2,3.2c3.8,0,7.6,0,11.4-0.1c1.2,0,2.3,0.1,3.2,1.1
		c4.9,5,9.8,9.9,14.7,14.9C763.4,651.7,763.4,651.9,763.5,652.4z"/>
	<path d="M337.2,659.8c-1.1-0.3-1.7-1.3-2.4-2c-4.1-4.1-8.1-8.2-12.3-12.2c-1.3-1.3-1.8-2.5-1.8-4.3c0.1-9.4,0-18.8,0.1-28.1
		c0-1.7-0.4-2.9-1.6-4c-1.9-1.8-3.6-3.8-5.5-5.6c-0.9-0.9-0.9-1.6,0.1-2.4c2.2-2.1,4.5-4.2,6.6-6.3c0.9-0.9,1.8-1.1,2.9-1.1
		c4.1,0,8.3,0.1,12.4,0c1.8,0,2.2,0.7,2.2,2.3c-0.1,9.4,0,18.8-0.1,28.1c0,11-0.1,22-0.2,33C337.6,658.1,337.9,659,337.2,659.8z"/>
	<path d="M296.7,569c7.8,0,15.3,0,22.8,0c1.2,0,2.1,0.4,2.8,1.3c1,1.1,2,2.4,3.2,3.2c4.1,2.6,4,6.6,3.8,10.6
		c-0.1,1.3-0.6,1.7-1.8,1.7c-4.5,0-8.9,0-13.4,0c-0.9,0-1.7-0.4-2.3-1c-4.9-4.9-9.9-9.8-14.8-14.7C297,569.9,296.9,569.6,296.7,569z
		"/>
</g>
</svg>
