<svg xmlns="http://www.w3.org/2000/svg" xmlns:xlink="http://www.w3.org/1999/xlink" width="300" zoomAndPan="magnify" viewBox="0 0 224.87999 56.249996" height="75" preserveAspectRatio="xMidYMid meet" version="1.0"><path fill="#000000" d="M 161.007812 8.175781 C 161.085938 8.175781 161.136719 8.175781 161.1875 8.175781 C 162.800781 8.175781 164.390625 8.175781 166.003906 8.175781 C 167.488281 8.175781 168.796875 8.636719 169.820312 9.707031 C 170.769531 10.707031 171.152344 11.90625 171.175781 13.238281 C 171.175781 14.847656 171.203125 16.457031 171.175781 18.070312 C 171.152344 19.757812 170.511719 21.136719 169.128906 22.132812 C 169.101562 22.132812 169.101562 22.160156 169.078125 22.183594 C 169.128906 22.234375 169.179688 22.261719 169.230469 22.289062 C 170.332031 23.078125 170.945312 24.152344 171.125 25.457031 C 171.175781 25.789062 171.175781 26.148438 171.175781 26.480469 C 171.175781 27.988281 171.175781 29.496094 171.175781 31.03125 C 171.175781 32.234375 170.894531 33.332031 170.152344 34.277344 C 169.308594 35.378906 168.15625 35.964844 166.796875 36.144531 C 166.492188 36.167969 166.183594 36.195312 165.875 36.195312 C 164.339844 36.195312 162.777344 36.195312 161.238281 36.195312 C 161.164062 36.195312 161.085938 36.195312 161.007812 36.195312 C 161.007812 26.839844 161.007812 17.53125 161.007812 8.175781 Z M 164.75 32.515625 C 165.183594 32.515625 165.59375 32.515625 166.003906 32.515625 C 166.898438 32.515625 167.414062 31.976562 167.414062 31.082031 C 167.414062 29.703125 167.414062 28.320312 167.414062 26.941406 C 167.414062 26.378906 167.414062 25.839844 167.414062 25.277344 C 167.386719 24.613281 166.898438 24.078125 166.234375 24.050781 C 165.746094 24.027344 165.285156 24.027344 164.800781 24.027344 C 164.773438 24.027344 164.75 24.050781 164.722656 24.050781 C 164.75 26.863281 164.75 29.675781 164.75 32.515625 Z M 164.75 20.34375 C 165.183594 20.34375 165.621094 20.34375 166.03125 20.34375 C 166.898438 20.34375 167.4375 19.808594 167.4375 18.9375 C 167.4375 17.914062 167.4375 16.894531 167.4375 15.871094 C 167.4375 14.976562 167.4375 14.082031 167.4375 13.1875 C 167.4375 12.445312 166.953125 11.933594 166.207031 11.882812 C 165.800781 11.855469 165.390625 11.882812 164.980469 11.855469 C 164.800781 11.855469 164.75 11.90625 164.75 12.085938 C 164.75 14.769531 164.75 17.457031 164.75 20.140625 C 164.75 20.191406 164.75 20.242188 164.75 20.34375 Z M 164.75 20.34375 " fill-opacity="1" fill-rule="nonzero"/><path fill="#000000" d="M 115.164062 8.175781 C 115.242188 8.175781 115.292969 8.175781 115.34375 8.175781 C 116.957031 8.175781 118.570312 8.175781 120.160156 8.175781 C 121.542969 8.175781 122.769531 8.582031 123.796875 9.554688 C 124.71875 10.425781 125.203125 11.523438 125.28125 12.777344 C 125.332031 13.570312 125.308594 14.335938 125.308594 15.128906 C 125.308594 16.40625 125.308594 17.710938 125.308594 18.988281 C 125.308594 20.445312 124.847656 21.699219 123.769531 22.695312 C 123.589844 22.851562 123.410156 23.003906 123.207031 23.15625 C 123.335938 23.257812 123.488281 23.359375 123.617188 23.464844 C 124.640625 24.308594 125.152344 25.40625 125.28125 26.734375 C 125.308594 27.042969 125.308594 27.324219 125.308594 27.628906 C 125.308594 30.417969 125.308594 33.179688 125.308594 35.964844 C 125.308594 36.042969 125.308594 36.117188 125.308594 36.195312 C 124.050781 36.195312 122.824219 36.195312 121.566406 36.195312 C 121.566406 36.117188 121.566406 36.042969 121.566406 35.964844 C 121.566406 32.820312 121.566406 29.648438 121.566406 26.503906 C 121.566406 26.351562 121.566406 26.199219 121.542969 26.046875 C 121.414062 25.457031 120.976562 25.074219 120.390625 24.996094 C 120.3125 24.996094 120.234375 24.996094 120.160156 24.972656 C 119.75 24.972656 119.339844 24.972656 118.902344 24.972656 C 118.902344 28.703125 118.902344 32.4375 118.902344 36.167969 C 117.648438 36.167969 116.417969 36.167969 115.164062 36.167969 C 115.164062 26.839844 115.164062 17.53125 115.164062 8.175781 Z M 118.878906 21.265625 C 119.414062 21.265625 119.953125 21.316406 120.464844 21.265625 C 120.976562 21.214844 121.335938 20.882812 121.492188 20.371094 C 121.542969 20.191406 121.542969 20.011719 121.542969 19.832031 C 121.542969 17.660156 121.542969 15.511719 121.542969 13.339844 C 121.542969 13.261719 121.542969 13.1875 121.542969 13.109375 C 121.492188 12.445312 121.03125 11.933594 120.339844 11.882812 C 119.902344 11.855469 119.492188 11.882812 119.058594 11.855469 C 118.878906 11.855469 118.828125 11.90625 118.828125 12.085938 C 118.828125 15.101562 118.828125 18.09375 118.828125 21.109375 C 118.878906 21.164062 118.878906 21.214844 118.878906 21.265625 Z M 118.878906 21.265625 " fill-opacity="1" fill-rule="nonzero"/><path fill="#000000" d="M 154.402344 8.175781 C 155.757812 17.507812 157.117188 26.839844 158.5 36.167969 C 158.421875 36.167969 158.371094 36.167969 158.320312 36.167969 C 157.195312 36.167969 156.066406 36.167969 154.964844 36.167969 C 154.8125 36.167969 154.761719 36.144531 154.761719 35.992188 C 154.582031 34.660156 154.402344 33.355469 154.222656 32.054688 C 154.222656 31.976562 154.195312 31.875 154.171875 31.796875 C 154.121094 31.796875 154.070312 31.796875 154.015625 31.796875 C 153.019531 31.796875 152.046875 31.796875 151.046875 31.796875 C 150.917969 31.796875 150.867188 31.824219 150.839844 31.953125 C 150.664062 33.304688 150.507812 34.6875 150.328125 36.042969 C 150.328125 36.09375 150.304688 36.117188 150.304688 36.195312 C 149.074219 36.195312 147.84375 36.195312 146.589844 36.195312 C 146.640625 35.914062 146.667969 35.632812 146.71875 35.351562 C 146.921875 33.894531 147.152344 32.410156 147.359375 30.953125 C 147.5625 29.496094 147.792969 28.039062 148 26.582031 C 148.203125 25.125 148.433594 23.667969 148.640625 22.210938 C 148.84375 20.828125 149.050781 19.449219 149.253906 18.070312 C 149.457031 16.613281 149.6875 15.179688 149.894531 13.722656 C 150.097656 12.34375 150.304688 10.960938 150.507812 9.582031 C 150.558594 9.144531 150.636719 8.710938 150.6875 8.277344 C 150.6875 8.199219 150.714844 8.148438 150.816406 8.148438 C 151.996094 8.148438 153.199219 8.148438 154.375 8.148438 C 154.351562 8.175781 154.351562 8.175781 154.402344 8.175781 Z M 152.507812 18.476562 C 152.507812 18.476562 152.480469 18.476562 152.480469 18.476562 C 152.070312 21.671875 151.660156 24.871094 151.25 28.066406 C 152.097656 28.066406 152.917969 28.066406 153.761719 28.066406 C 153.351562 24.871094 152.941406 21.671875 152.507812 18.476562 Z M 152.507812 18.476562 " fill-opacity="1" fill-rule="nonzero"/><path fill="#000000" d="M 109.144531 36.195312 C 107.890625 36.195312 106.660156 36.195312 105.40625 36.195312 C 105.40625 28.089844 105.40625 19.988281 105.40625 11.855469 C 104.203125 11.855469 103.050781 11.855469 101.847656 11.855469 C 101.847656 10.628906 101.847656 9.402344 101.847656 8.175781 C 105.433594 8.175781 109.042969 8.175781 112.65625 8.175781 C 112.65625 9.402344 112.65625 10.605469 112.65625 11.855469 C 111.5 11.855469 110.324219 11.855469 109.144531 11.855469 C 109.144531 19.960938 109.144531 28.066406 109.144531 36.195312 Z M 109.144531 36.195312 " fill-opacity="1" fill-rule="nonzero"/><path fill="#000000" d="M 141.441406 32.515625 C 142.800781 32.515625 144.105469 32.515625 145.464844 32.515625 C 145.410156 32.871094 145.359375 33.230469 145.285156 33.5625 C 145.15625 34.378906 145.003906 35.222656 144.875 36.042969 C 144.847656 36.144531 144.824219 36.195312 144.695312 36.195312 C 142.414062 36.195312 140.136719 36.195312 137.855469 36.195312 C 137.804688 36.195312 137.78125 36.195312 137.726562 36.195312 C 137.726562 26.863281 137.726562 17.53125 137.726562 8.175781 C 138.957031 8.175781 140.1875 8.175781 141.441406 8.175781 C 141.441406 16.28125 141.441406 24.382812 141.441406 32.515625 Z M 141.441406 32.515625 " fill-opacity="1" fill-rule="nonzero"/><path fill="#000000" d="M 82.84375 22.210938 C 82.84375 26.53125 82.84375 30.878906 82.84375 35.199219 C 82.84375 35.886719 82.382812 36.375 81.691406 36.375 C 81.511719 36.375 81.332031 36.375 81.125 36.375 C 80.664062 36.347656 80.179688 36.324219 79.71875 36.273438 C 79.230469 36.222656 78.847656 35.8125 78.796875 35.324219 C 78.796875 35.25 78.769531 35.148438 78.769531 35.070312 C 78.769531 26.480469 78.769531 17.890625 78.769531 9.273438 C 78.769531 8.660156 79.050781 8.226562 79.5625 8.097656 C 79.769531 8.046875 80 8.023438 80.203125 8.023438 C 80.691406 7.996094 81.175781 7.996094 81.636719 7.96875 C 82.332031 7.96875 82.792969 8.429688 82.792969 9.144531 C 82.84375 13.492188 82.84375 17.863281 82.84375 22.210938 Z M 82.84375 22.210938 " fill-opacity="1" fill-rule="nonzero"/><path fill="#000000" d="M 129.53125 8.175781 C 130.761719 8.175781 131.992188 8.175781 133.246094 8.175781 C 133.246094 17.507812 133.246094 26.839844 133.246094 36.195312 C 132.015625 36.195312 130.789062 36.195312 129.53125 36.195312 C 129.53125 26.839844 129.53125 17.53125 129.53125 8.175781 Z M 129.53125 8.175781 " fill-opacity="1" fill-rule="nonzero"/><path fill="#000000" d="M 86.890625 22.183594 C 86.890625 18.246094 86.890625 14.3125 86.890625 10.375 C 86.890625 9.734375 87.246094 9.273438 87.8125 9.171875 C 88.015625 9.144531 88.246094 9.171875 88.425781 9.25 C 88.988281 9.480469 89.578125 9.734375 90.117188 9.988281 C 90.628906 10.246094 90.882812 10.679688 90.910156 11.242188 C 90.910156 11.292969 90.910156 11.34375 90.910156 11.421875 C 90.910156 18.605469 90.910156 25.789062 90.910156 32.972656 C 90.910156 33.664062 90.628906 34.175781 89.988281 34.457031 C 89.476562 34.6875 88.988281 34.917969 88.476562 35.121094 C 87.632812 35.453125 86.863281 34.917969 86.863281 34.023438 C 86.890625 30.058594 86.890625 26.121094 86.890625 22.183594 Z M 86.890625 22.183594 " fill-opacity="1" fill-rule="nonzero"/><path fill="#000000" d="M 74.75 22.183594 C 74.75 26.121094 74.75 30.035156 74.75 33.972656 C 74.75 34.585938 74.339844 35.042969 73.722656 35.097656 C 73.597656 35.097656 73.46875 35.097656 73.339844 35.070312 C 72.777344 34.917969 72.1875 34.761719 71.625 34.585938 C 71.035156 34.40625 70.675781 33.945312 70.675781 33.332031 C 70.675781 33.28125 70.675781 33.230469 70.675781 33.203125 C 70.675781 25.839844 70.675781 18.503906 70.675781 11.140625 C 70.675781 10.757812 70.753906 10.425781 71.007812 10.144531 C 71.1875 9.964844 71.394531 9.835938 71.625 9.761719 C 72.1875 9.605469 72.726562 9.453125 73.289062 9.300781 C 74.03125 9.09375 74.699219 9.605469 74.699219 10.398438 C 74.75 14.335938 74.75 18.246094 74.75 22.183594 Z M 74.75 22.183594 " fill-opacity="1" fill-rule="nonzero"/><path fill="#000000" d="M 66.628906 22.183594 C 66.628906 25.226562 66.628906 28.296875 66.628906 31.335938 C 66.628906 31.925781 66.296875 32.359375 65.757812 32.460938 C 65.578125 32.488281 65.347656 32.488281 65.171875 32.410156 C 64.582031 32.207031 64.019531 32.003906 63.453125 31.773438 C 62.917969 31.566406 62.609375 31.082031 62.609375 30.46875 C 62.609375 26.121094 62.609375 21.800781 62.609375 17.457031 C 62.609375 16.28125 62.609375 15.078125 62.609375 13.902344 C 62.609375 13.1875 62.917969 12.75 63.582031 12.496094 C 64.121094 12.292969 64.632812 12.085938 65.171875 11.90625 C 65.808594 11.675781 66.476562 12.035156 66.628906 12.675781 C 66.65625 12.800781 66.65625 12.90625 66.65625 13.03125 C 66.65625 16.101562 66.628906 19.144531 66.628906 22.183594 Z M 66.628906 22.183594 " fill-opacity="1" fill-rule="nonzero"/><path fill="#000000" d="M 58.5625 22.183594 C 58.5625 24.179688 58.5625 26.171875 58.5625 28.167969 C 58.5625 28.753906 58.230469 29.191406 57.664062 29.292969 C 57.433594 29.34375 57.203125 29.316406 57 29.214844 C 56.488281 28.984375 56 28.78125 55.488281 28.578125 C 54.824219 28.296875 54.515625 27.808594 54.515625 27.09375 C 54.515625 24.792969 54.515625 22.464844 54.515625 20.164062 C 54.515625 19.21875 54.515625 18.273438 54.515625 17.300781 C 54.515625 16.558594 54.847656 16.050781 55.515625 15.769531 C 56 15.5625 56.460938 15.359375 56.949219 15.15625 C 57.792969 14.796875 58.5625 15.308594 58.5625 16.226562 C 58.5625 18.222656 58.5625 20.191406 58.5625 22.183594 Z M 58.5625 22.183594 " fill-opacity="1" fill-rule="nonzero"/><path fill="#000000" d="M 94.980469 22.183594 C 94.980469 20.113281 94.980469 18.019531 94.980469 15.945312 C 94.980469 15.359375 95.46875 14.949219 96.03125 15.078125 C 96.210938 15.128906 96.417969 15.230469 96.519531 15.382812 C 97.800781 17.148438 98.722656 19.089844 98.976562 21.265625 C 99.15625 22.671875 98.925781 24.027344 98.441406 25.378906 C 98.003906 26.660156 97.363281 27.835938 96.570312 28.933594 C 96.3125 29.292969 95.957031 29.394531 95.570312 29.292969 C 95.1875 29.164062 94.980469 28.859375 94.980469 28.421875 C 94.980469 26.328125 94.980469 24.257812 94.980469 22.183594 Z M 94.980469 22.183594 " fill-opacity="1" fill-rule="nonzero"/><path fill="#000000" d="M 50.46875 22.183594 C 50.46875 23.003906 50.46875 23.847656 50.46875 24.664062 C 50.46875 25.046875 50.316406 25.378906 49.980469 25.558594 C 49.648438 25.765625 49.289062 25.738281 48.957031 25.535156 C 48.394531 25.203125 47.855469 24.816406 47.371094 24.382812 C 46.292969 23.414062 46.269531 21.953125 46.652344 20.984375 C 46.882812 20.371094 47.371094 19.910156 47.882812 19.527344 C 48.242188 19.269531 48.597656 19.015625 48.984375 18.785156 C 49.648438 18.402344 50.46875 18.863281 50.46875 19.628906 C 50.46875 20.496094 50.46875 21.339844 50.46875 22.183594 Z M 50.46875 22.183594 " fill-opacity="1" fill-rule="nonzero"/><path fill="#000000" d="M 85.199219 41.640625 C 85.25 41.640625 85.300781 41.640625 85.328125 41.640625 C 86.121094 41.640625 86.914062 41.640625 87.707031 41.640625 C 88.042969 41.640625 88.375 41.691406 88.683594 41.871094 C 89.21875 42.152344 89.449219 42.585938 89.449219 43.199219 C 89.476562 43.789062 89.246094 44.25 88.707031 44.554688 C 88.65625 44.582031 88.628906 44.632812 88.605469 44.683594 C 88.65625 44.707031 88.683594 44.734375 88.734375 44.761719 C 89.066406 44.835938 89.269531 45.066406 89.269531 45.398438 C 89.296875 46.0625 89.269531 46.726562 89.269531 47.394531 C 88.914062 47.394531 88.554688 47.394531 88.195312 47.394531 C 88.195312 47.0625 88.195312 46.753906 88.195312 46.421875 C 88.195312 46.164062 88.195312 45.910156 88.195312 45.65625 C 88.195312 45.398438 88.066406 45.246094 87.863281 45.246094 C 87.324219 45.21875 86.785156 45.246094 86.25 45.246094 C 86.25 45.960938 86.25 46.675781 86.25 47.394531 C 85.890625 47.394531 85.53125 47.394531 85.171875 47.394531 C 85.199219 45.449219 85.199219 43.53125 85.199219 41.640625 Z M 86.273438 42.613281 C 86.273438 43.148438 86.273438 43.660156 86.273438 44.199219 C 86.761719 44.199219 87.222656 44.222656 87.707031 44.199219 C 88.144531 44.171875 88.375 43.863281 88.398438 43.429688 C 88.398438 42.96875 88.144531 42.664062 87.734375 42.636719 C 87.222656 42.585938 86.761719 42.613281 86.273438 42.613281 Z M 86.273438 42.613281 " fill-opacity="1" fill-rule="nonzero"/><path fill="#000000" d="M 111.707031 41.640625 C 111.734375 41.640625 111.734375 41.613281 111.734375 41.613281 C 112.679688 41.613281 113.601562 41.5625 114.550781 41.640625 C 115.703125 41.742188 116.1875 42.664062 115.90625 43.738281 C 115.804688 44.070312 115.546875 44.300781 115.265625 44.480469 C 115.214844 44.503906 115.191406 44.582031 115.140625 44.605469 C 115.191406 44.632812 115.242188 44.683594 115.292969 44.683594 C 115.601562 44.761719 115.804688 44.988281 115.832031 45.320312 C 115.832031 45.988281 115.832031 46.652344 115.832031 47.316406 C 115.472656 47.316406 115.113281 47.316406 114.753906 47.316406 C 114.753906 46.984375 114.753906 46.652344 114.753906 46.320312 C 114.753906 46.089844 114.753906 45.832031 114.753906 45.601562 C 114.753906 45.347656 114.625 45.195312 114.421875 45.195312 C 113.882812 45.167969 113.347656 45.195312 112.808594 45.195312 C 112.808594 45.550781 112.808594 45.910156 112.808594 46.269531 C 112.808594 46.625 112.808594 46.984375 112.808594 47.34375 C 112.449219 47.34375 112.089844 47.34375 111.734375 47.34375 C 111.707031 45.449219 111.707031 43.53125 111.707031 41.640625 Z M 112.78125 44.199219 C 112.832031 44.199219 112.886719 44.199219 112.910156 44.199219 C 113.347656 44.199219 113.753906 44.199219 114.191406 44.171875 C 114.652344 44.144531 114.910156 43.839844 114.882812 43.355469 C 114.882812 42.894531 114.601562 42.585938 114.140625 42.585938 C 113.753906 42.585938 113.371094 42.585938 112.988281 42.585938 C 112.910156 42.585938 112.832031 42.585938 112.757812 42.585938 C 112.78125 43.148438 112.78125 43.660156 112.78125 44.199219 Z M 112.78125 44.199219 " fill-opacity="1" fill-rule="nonzero"/><path fill="#000000" d="M 60.253906 41.613281 C 60.636719 41.613281 60.996094 41.613281 61.355469 41.613281 C 61.941406 41.613281 62.507812 41.589844 63.09375 41.640625 C 64.144531 41.742188 64.734375 42.535156 64.480469 43.6875 C 64.402344 44.070312 64.121094 44.300781 63.8125 44.480469 C 63.761719 44.503906 63.734375 44.554688 63.683594 44.605469 C 63.734375 44.632812 63.761719 44.683594 63.8125 44.683594 C 64.09375 44.761719 64.324219 44.964844 64.351562 45.269531 C 64.375 45.960938 64.351562 46.625 64.351562 47.316406 C 63.992188 47.316406 63.660156 47.316406 63.273438 47.316406 C 63.273438 47.265625 63.273438 47.1875 63.273438 47.136719 C 63.273438 46.652344 63.273438 46.164062 63.273438 45.679688 C 63.273438 45.296875 63.148438 45.167969 62.761719 45.167969 C 62.277344 45.167969 61.816406 45.167969 61.304688 45.167969 C 61.304688 45.527344 61.304688 45.882812 61.304688 46.242188 C 61.304688 46.601562 61.304688 46.957031 61.304688 47.316406 C 60.945312 47.316406 60.585938 47.316406 60.226562 47.316406 C 60.253906 45.449219 60.253906 43.53125 60.253906 41.613281 Z M 61.328125 42.613281 C 61.328125 43.148438 61.328125 43.660156 61.328125 44.199219 C 61.816406 44.199219 62.277344 44.222656 62.761719 44.199219 C 63.199219 44.171875 63.429688 43.863281 63.453125 43.429688 C 63.453125 42.96875 63.222656 42.664062 62.789062 42.636719 C 62.300781 42.585938 61.839844 42.613281 61.328125 42.613281 Z M 61.328125 42.613281 " fill-opacity="1" fill-rule="nonzero"/><path fill="#000000" d="M 143.671875 47.34375 C 143.441406 47.34375 143.234375 47.34375 143.003906 47.34375 C 143.003906 45.425781 143.003906 43.53125 143.003906 41.613281 C 143.054688 41.613281 143.105469 41.613281 143.15625 41.613281 C 143.386719 41.613281 143.621094 41.613281 143.851562 41.613281 C 144.3125 41.613281 144.3125 41.613281 144.4375 42.074219 C 144.898438 43.636719 145.335938 45.195312 145.796875 46.753906 C 145.820312 46.804688 145.871094 46.855469 145.898438 46.90625 C 145.925781 46.855469 145.976562 46.804688 146 46.753906 C 146.488281 45.117188 146.949219 43.457031 147.433594 41.792969 C 147.488281 41.640625 147.539062 41.589844 147.691406 41.613281 C 148.050781 41.640625 148.433594 41.613281 148.792969 41.613281 C 148.792969 43.53125 148.792969 45.425781 148.792969 47.34375 C 148.585938 47.34375 148.382812 47.34375 148.125 47.34375 C 148.125 47.265625 148.125 47.214844 148.125 47.136719 C 148.125 45.527344 148.125 43.941406 148.125 42.332031 C 148.125 42.304688 148.125 42.253906 148.125 42.230469 C 148.101562 42.175781 148.074219 42.125 148.074219 42.050781 C 148.050781 42.101562 148 42.152344 147.972656 42.203125 C 147.871094 42.511719 147.792969 42.816406 147.691406 43.148438 C 147.308594 44.480469 146.921875 45.832031 146.539062 47.164062 C 146.511719 47.289062 146.460938 47.34375 146.308594 47.34375 C 146.027344 47.316406 145.746094 47.316406 145.488281 47.34375 C 145.335938 47.34375 145.285156 47.289062 145.234375 47.164062 C 144.773438 45.527344 144.285156 43.863281 143.824219 42.230469 C 143.824219 42.175781 143.796875 42.152344 143.796875 42.125 C 143.773438 42.101562 143.746094 42.074219 143.722656 42.074219 C 143.695312 42.074219 143.671875 42.125 143.671875 42.152344 C 143.671875 42.203125 143.671875 42.253906 143.671875 42.28125 C 143.671875 43.890625 143.671875 45.5 143.671875 47.136719 C 143.671875 47.214844 143.671875 47.265625 143.671875 47.34375 Z M 143.671875 47.34375 " fill-opacity="1" fill-rule="nonzero"/><path fill="#000000" d="M 71.496094 45.269531 C 71.855469 45.269531 72.1875 45.269531 72.570312 45.269531 C 72.570312 45.375 72.570312 45.449219 72.570312 45.550781 C 72.597656 46.011719 72.828125 46.320312 73.238281 46.445312 C 73.597656 46.550781 73.953125 46.550781 74.3125 46.445312 C 74.441406 46.394531 74.570312 46.320312 74.671875 46.242188 C 75.003906 45.910156 74.929688 45.398438 74.519531 45.195312 C 74.238281 45.066406 73.929688 45.015625 73.648438 44.914062 C 73.289062 44.8125 72.90625 44.707031 72.546875 44.554688 C 71.984375 44.324219 71.648438 43.890625 71.648438 43.25 C 71.625 42.585938 71.878906 42.050781 72.519531 41.742188 C 73.316406 41.359375 74.132812 41.386719 74.929688 41.769531 C 75.59375 42.101562 75.925781 42.867188 75.800781 43.582031 C 75.464844 43.582031 75.109375 43.582031 74.75 43.582031 C 74.75 43.480469 74.75 43.40625 74.75 43.300781 C 74.722656 42.816406 74.519531 42.535156 74.03125 42.457031 C 73.777344 42.433594 73.492188 42.433594 73.238281 42.484375 C 72.929688 42.535156 72.75 42.765625 72.726562 43.019531 C 72.699219 43.328125 72.800781 43.558594 73.109375 43.6875 C 73.390625 43.8125 73.722656 43.863281 74.007812 43.96875 C 74.339844 44.070312 74.699219 44.171875 75.03125 44.300781 C 76.335938 44.863281 76.132812 46.445312 75.261719 47.035156 C 74.953125 47.238281 74.621094 47.367188 74.261719 47.417969 C 73.828125 47.46875 73.417969 47.46875 73.007812 47.367188 C 71.957031 47.113281 71.445312 46.371094 71.496094 45.269531 Z M 71.496094 45.269531 " fill-opacity="1" fill-rule="nonzero"/><path fill="#000000" d="M 99.71875 43.609375 C 99.386719 43.609375 99.027344 43.609375 98.671875 43.609375 C 98.671875 43.507812 98.671875 43.429688 98.671875 43.328125 C 98.644531 42.84375 98.441406 42.5625 97.953125 42.484375 C 97.695312 42.433594 97.414062 42.457031 97.160156 42.511719 C 96.878906 42.5625 96.699219 42.792969 96.671875 43.046875 C 96.648438 43.355469 96.75 43.582031 97.058594 43.6875 C 97.363281 43.8125 97.671875 43.863281 97.980469 43.96875 C 98.3125 44.070312 98.671875 44.171875 98.976562 44.300781 C 100.285156 44.863281 100.105469 46.472656 99.183594 47.0625 C 98.695312 47.367188 98.15625 47.46875 97.59375 47.445312 C 97.058594 47.417969 96.542969 47.289062 96.109375 46.933594 C 95.570312 46.5 95.417969 45.910156 95.441406 45.246094 C 95.800781 45.246094 96.136719 45.246094 96.519531 45.246094 C 96.519531 45.347656 96.519531 45.449219 96.519531 45.527344 C 96.542969 45.988281 96.75 46.269531 97.183594 46.394531 C 97.542969 46.5 97.902344 46.5 98.261719 46.394531 C 98.390625 46.34375 98.515625 46.292969 98.59375 46.191406 C 98.953125 45.859375 98.875 45.320312 98.441406 45.117188 C 98.132812 44.988281 97.773438 44.914062 97.441406 44.8125 C 97.109375 44.707031 96.800781 44.632812 96.46875 44.503906 C 95.90625 44.25 95.597656 43.839844 95.570312 43.199219 C 95.546875 42.535156 95.800781 42 96.417969 41.71875 C 97.234375 41.332031 98.054688 41.332031 98.875 41.769531 C 99.488281 42.125 99.824219 42.738281 99.71875 43.609375 Z M 99.71875 43.609375 " fill-opacity="1" fill-rule="nonzero"/><path fill="#000000" d="M 127.304688 47.34375 C 126.945312 47.34375 126.585938 47.34375 126.230469 47.34375 C 126.230469 46.550781 126.230469 45.78125 126.230469 44.988281 C 125.511719 44.988281 124.820312 44.988281 124.101562 44.988281 C 124.101562 45.78125 124.101562 46.550781 124.101562 47.34375 C 123.746094 47.34375 123.386719 47.34375 123.027344 47.34375 C 123.027344 45.449219 123.027344 43.53125 123.027344 41.613281 C 123.386719 41.613281 123.71875 41.613281 124.078125 41.613281 C 124.078125 42.40625 124.078125 43.175781 124.078125 43.96875 C 124.792969 43.96875 125.484375 43.96875 126.203125 43.96875 C 126.203125 43.199219 126.203125 42.40625 126.203125 41.613281 C 126.585938 41.613281 126.921875 41.613281 127.277344 41.613281 C 127.304688 43.53125 127.304688 45.449219 127.304688 47.34375 Z M 127.304688 47.34375 " fill-opacity="1" fill-rule="nonzero"/><path fill="#000000" d="M 109.503906 47.34375 C 109.402344 46.957031 109.324219 46.601562 109.222656 46.242188 C 109.195312 46.140625 109.144531 46.089844 109.042969 46.089844 C 108.453125 46.089844 107.863281 46.089844 107.277344 46.089844 C 107.171875 46.089844 107.121094 46.113281 107.097656 46.242188 C 107.019531 46.625 106.917969 46.984375 106.816406 47.367188 C 106.457031 47.367188 106.097656 47.367188 105.6875 47.367188 C 106.199219 45.449219 106.6875 43.558594 107.199219 41.640625 C 107.839844 41.640625 108.453125 41.640625 109.09375 41.640625 C 109.605469 43.53125 110.09375 45.449219 110.605469 47.367188 C 110.246094 47.34375 109.886719 47.34375 109.503906 47.34375 Z M 108.914062 45.09375 C 108.914062 45.066406 108.914062 45.042969 108.914062 45.015625 C 108.710938 44.144531 108.480469 43.277344 108.25 42.40625 C 108.25 42.355469 108.171875 42.332031 108.148438 42.304688 C 108.121094 42.355469 108.070312 42.382812 108.042969 42.433594 C 107.917969 42.917969 107.8125 43.378906 107.6875 43.863281 C 107.582031 44.273438 107.480469 44.683594 107.378906 45.09375 C 107.917969 45.09375 108.402344 45.09375 108.914062 45.09375 Z M 108.914062 45.09375 " fill-opacity="1" fill-rule="nonzero"/><path fill="#000000" d="M 77.875 47.367188 C 77.515625 47.367188 77.132812 47.367188 76.746094 47.367188 C 77.257812 45.449219 77.746094 43.558594 78.257812 41.640625 C 78.898438 41.640625 79.511719 41.640625 80.152344 41.640625 C 80.664062 43.53125 81.152344 45.449219 81.664062 47.367188 C 81.28125 47.367188 80.921875 47.367188 80.539062 47.367188 C 80.433594 46.984375 80.332031 46.625 80.253906 46.242188 C 80.230469 46.140625 80.179688 46.113281 80.101562 46.113281 C 79.511719 46.113281 78.898438 46.113281 78.308594 46.113281 C 78.207031 46.113281 78.179688 46.140625 78.15625 46.242188 C 78.054688 46.601562 77.949219 46.984375 77.875 47.367188 Z M 79.972656 45.09375 C 79.949219 45.015625 79.949219 44.964844 79.949219 44.914062 C 79.742188 44.09375 79.539062 43.277344 79.332031 42.457031 C 79.308594 42.40625 79.257812 42.355469 79.230469 42.304688 C 79.179688 42.355469 79.128906 42.40625 79.128906 42.457031 C 78.976562 43.074219 78.820312 43.660156 78.667969 44.273438 C 78.589844 44.53125 78.539062 44.8125 78.460938 45.09375 C 78.949219 45.09375 79.460938 45.09375 79.972656 45.09375 Z M 79.972656 45.09375 " fill-opacity="1" fill-rule="nonzero"/><path fill="#000000" d="M 90.78125 41.640625 C 92.011719 41.640625 93.242188 41.640625 94.46875 41.640625 C 94.46875 41.972656 94.46875 42.28125 94.46875 42.613281 C 93.597656 42.613281 92.753906 42.613281 91.882812 42.613281 C 91.882812 43.074219 91.882812 43.507812 91.882812 43.96875 C 92.675781 43.96875 93.445312 43.96875 94.238281 43.96875 C 94.238281 44.300781 94.238281 44.605469 94.238281 44.9375 C 93.472656 44.9375 92.675781 44.9375 91.882812 44.9375 C 91.882812 45.425781 91.882812 45.882812 91.882812 46.34375 C 92.753906 46.34375 93.625 46.34375 94.519531 46.34375 C 94.519531 46.675781 94.519531 47.007812 94.519531 47.316406 C 93.292969 47.316406 92.035156 47.316406 90.808594 47.316406 C 90.78125 45.449219 90.78125 43.53125 90.78125 41.640625 Z M 90.78125 41.640625 " fill-opacity="1" fill-rule="nonzero"/><path fill="#000000" d="M 102.230469 46.371094 C 103.101562 46.371094 103.972656 46.371094 104.867188 46.371094 C 104.867188 46.703125 104.867188 47.007812 104.867188 47.34375 C 103.640625 47.34375 102.410156 47.34375 101.15625 47.34375 C 101.15625 45.449219 101.15625 43.53125 101.15625 41.613281 C 102.382812 41.613281 103.589844 41.613281 104.816406 41.613281 C 104.816406 41.949219 104.816406 42.253906 104.816406 42.585938 C 103.945312 42.585938 103.101562 42.585938 102.230469 42.585938 C 102.230469 43.046875 102.230469 43.480469 102.230469 43.96875 C 103.023438 43.96875 103.792969 43.96875 104.585938 43.96875 C 104.585938 44.300781 104.585938 44.605469 104.585938 44.9375 C 103.792969 44.9375 103.023438 44.9375 102.230469 44.9375 C 102.230469 45.425781 102.230469 45.882812 102.230469 46.371094 Z M 102.230469 46.371094 " fill-opacity="1" fill-rule="nonzero"/><path fill="#000000" d="M 65.808594 41.640625 C 66.167969 41.640625 66.503906 41.640625 66.859375 41.640625 C 66.859375 41.71875 66.859375 41.792969 66.859375 41.84375 C 66.859375 42.996094 66.859375 44.144531 66.859375 45.269531 C 66.859375 45.425781 66.859375 45.578125 66.910156 45.707031 C 67.015625 46.140625 67.347656 46.421875 67.808594 46.472656 C 67.960938 46.5 68.140625 46.5 68.292969 46.472656 C 68.882812 46.394531 69.191406 46.011719 69.191406 45.375 C 69.191406 44.351562 69.191406 43.355469 69.191406 42.332031 C 69.191406 42.101562 69.191406 41.871094 69.191406 41.613281 C 69.550781 41.613281 69.910156 41.613281 70.265625 41.613281 C 70.265625 41.691406 70.265625 41.742188 70.265625 41.792969 C 70.265625 42.945312 70.265625 44.070312 70.265625 45.21875 C 70.265625 45.449219 70.265625 45.679688 70.214844 45.910156 C 70.011719 46.804688 69.320312 47.394531 68.347656 47.445312 C 67.988281 47.46875 67.601562 47.445312 67.246094 47.367188 C 66.398438 47.164062 65.808594 46.5 65.785156 45.601562 C 65.757812 44.300781 65.757812 42.96875 65.757812 41.667969 C 65.808594 41.667969 65.808594 41.667969 65.808594 41.640625 Z M 65.808594 41.640625 " fill-opacity="1" fill-rule="nonzero"/><path fill="#000000" d="M 121.695312 43.710938 C 121.335938 43.710938 121.003906 43.710938 120.644531 43.710938 C 120.644531 43.582031 120.621094 43.480469 120.621094 43.355469 C 120.492188 42.714844 119.980469 42.382812 119.289062 42.484375 C 118.699219 42.5625 118.316406 42.945312 118.289062 43.558594 C 118.261719 44.171875 118.238281 44.8125 118.289062 45.425781 C 118.339844 46.320312 119.363281 46.832031 120.132812 46.34375 C 120.441406 46.164062 120.570312 45.882812 120.621094 45.527344 C 120.644531 45.425781 120.644531 45.320312 120.644531 45.195312 C 121.003906 45.195312 121.335938 45.195312 121.722656 45.195312 C 121.695312 45.398438 121.722656 45.578125 121.667969 45.78125 C 121.492188 46.753906 120.851562 47.367188 119.851562 47.445312 C 119.46875 47.46875 119.082031 47.445312 118.722656 47.367188 C 117.828125 47.164062 117.265625 46.5 117.214844 45.5 C 117.164062 44.785156 117.164062 44.042969 117.238281 43.328125 C 117.316406 42.382812 118.007812 41.71875 118.953125 41.5625 C 119.363281 41.488281 119.773438 41.488281 120.160156 41.589844 C 121.054688 41.792969 121.644531 42.457031 121.695312 43.378906 C 121.695312 43.480469 121.695312 43.582031 121.695312 43.710938 Z M 121.695312 43.710938 " fill-opacity="1" fill-rule="nonzero"/><path fill="#000000" d="M 55.949219 47.367188 C 55.589844 47.367188 55.234375 47.367188 54.875 47.367188 C 54.875 45.449219 54.875 43.558594 54.875 41.640625 C 54.925781 41.640625 54.976562 41.640625 55.027344 41.640625 C 55.746094 41.640625 56.488281 41.613281 57.203125 41.640625 C 57.511719 41.640625 57.820312 41.71875 58.101562 41.820312 C 58.792969 42.101562 59.152344 42.816406 59.050781 43.660156 C 58.945312 44.605469 58.253906 45.246094 57.308594 45.269531 C 56.871094 45.269531 56.410156 45.269531 55.925781 45.269531 C 55.925781 45.628906 55.925781 45.960938 55.925781 46.320312 C 55.949219 46.652344 55.949219 47.007812 55.949219 47.367188 Z M 55.949219 44.273438 C 56.386719 44.273438 56.796875 44.273438 57.230469 44.273438 C 57.640625 44.25 57.949219 43.96875 57.972656 43.582031 C 58.023438 43.046875 57.820312 42.6875 57.332031 42.636719 C 56.871094 42.585938 56.410156 42.636719 55.949219 42.636719 C 55.949219 43.175781 55.949219 43.710938 55.949219 44.273438 Z M 55.949219 44.273438 " fill-opacity="1" fill-rule="nonzero"/><path fill="#000000" d="M 164.46875 41.640625 C 164.699219 41.640625 164.902344 41.640625 165.132812 41.640625 C 165.132812 43.558594 165.132812 45.449219 165.132812 47.367188 C 164.878906 47.367188 164.621094 47.367188 164.363281 47.367188 C 164.183594 47.367188 163.953125 47.417969 163.828125 47.34375 C 163.699219 47.265625 163.671875 47.007812 163.621094 46.855469 C 163.03125 45.320312 162.46875 43.789062 161.878906 42.253906 C 161.855469 42.175781 161.804688 42.125 161.777344 42.074219 C 161.753906 42.074219 161.753906 42.101562 161.726562 42.101562 C 161.726562 43.863281 161.726562 45.601562 161.726562 47.394531 C 161.496094 47.394531 161.292969 47.394531 161.0625 47.394531 C 161.0625 45.5 161.0625 43.582031 161.0625 41.667969 C 161.496094 41.667969 161.90625 41.667969 162.339844 41.667969 C 162.394531 41.667969 162.445312 41.769531 162.46875 41.820312 C 163.085938 43.480469 163.722656 45.117188 164.339844 46.78125 C 164.363281 46.855469 164.414062 46.90625 164.441406 46.957031 C 164.46875 46.957031 164.46875 46.933594 164.492188 46.933594 C 164.46875 45.144531 164.46875 43.40625 164.46875 41.640625 Z M 164.46875 41.640625 " fill-opacity="1" fill-rule="nonzero"/><path fill="#000000" d="M 141.492188 44.503906 C 141.46875 44.9375 141.46875 45.398438 141.390625 45.808594 C 141.210938 46.753906 140.496094 47.394531 139.519531 47.445312 C 139.164062 47.46875 138.804688 47.445312 138.472656 47.367188 C 137.601562 47.136719 137.113281 46.550781 137.011719 45.679688 C 136.910156 44.863281 136.910156 44.042969 137.035156 43.226562 C 137.191406 42.203125 137.933594 41.5625 138.984375 41.511719 C 139.316406 41.488281 139.648438 41.511719 139.980469 41.589844 C 140.90625 41.820312 141.46875 42.5625 141.492188 43.582031 C 141.492188 43.890625 141.492188 44.171875 141.492188 44.480469 C 141.46875 44.503906 141.46875 44.503906 141.492188 44.503906 Z M 140.800781 44.503906 C 140.800781 44.503906 140.777344 44.503906 140.777344 44.503906 C 140.777344 44.222656 140.777344 43.941406 140.777344 43.660156 C 140.75 43.148438 140.597656 42.6875 140.160156 42.382812 C 139.855469 42.175781 139.496094 42.125 139.136719 42.125 C 138.394531 42.152344 137.855469 42.5625 137.726562 43.300781 C 137.601562 44.09375 137.601562 44.914062 137.726562 45.707031 C 137.804688 46.269531 138.164062 46.652344 138.726562 46.78125 C 138.933594 46.832031 139.164062 46.832031 139.394531 46.832031 C 140.085938 46.804688 140.570312 46.394531 140.726562 45.730469 C 140.777344 45.320312 140.777344 44.914062 140.800781 44.503906 Z M 140.800781 44.503906 " fill-opacity="1" fill-rule="nonzero"/><path fill="#000000" d="M 51.1875 47.367188 C 50.929688 47.367188 50.726562 47.367188 50.46875 47.367188 C 50.339844 46.933594 50.210938 46.523438 50.085938 46.089844 C 50.058594 45.960938 49.980469 45.910156 49.855469 45.910156 C 49.164062 45.910156 48.472656 45.910156 47.78125 45.910156 C 47.652344 45.910156 47.574219 45.9375 47.550781 46.089844 C 47.445312 46.472656 47.320312 46.855469 47.214844 47.238281 C 47.191406 47.34375 47.140625 47.367188 47.035156 47.367188 C 46.859375 47.367188 46.652344 47.367188 46.449219 47.367188 C 46.628906 46.804688 46.804688 46.242188 46.960938 45.707031 C 47.371094 44.402344 47.753906 43.097656 48.164062 41.792969 C 48.191406 41.667969 48.242188 41.613281 48.394531 41.613281 C 48.703125 41.613281 48.984375 41.613281 49.289062 41.613281 C 49.417969 41.613281 49.46875 41.640625 49.496094 41.769531 C 50.035156 43.507812 50.570312 45.246094 51.109375 47.007812 C 51.109375 47.113281 51.136719 47.214844 51.1875 47.367188 Z M 49.828125 45.269531 C 49.828125 45.21875 49.828125 45.195312 49.804688 45.195312 C 49.496094 44.171875 49.1875 43.175781 48.882812 42.152344 C 48.855469 42.101562 48.828125 42.074219 48.777344 42.023438 C 48.753906 42.074219 48.703125 42.101562 48.675781 42.152344 C 48.367188 43.148438 48.0625 44.171875 47.753906 45.167969 C 47.753906 45.195312 47.753906 45.21875 47.753906 45.269531 C 48.472656 45.269531 49.136719 45.269531 49.828125 45.269531 Z M 49.828125 45.269531 " fill-opacity="1" fill-rule="nonzero"/><path fill="#000000" d="M 159.730469 47.367188 C 159.5 47.367188 159.269531 47.367188 159.011719 47.367188 C 158.859375 46.882812 158.730469 46.421875 158.578125 45.9375 C 158.472656 45.9375 158.398438 45.9375 158.292969 45.9375 C 157.628906 45.9375 156.964844 45.9375 156.324219 45.9375 C 156.167969 45.9375 156.117188 45.988281 156.09375 46.113281 C 155.964844 46.550781 155.835938 46.957031 155.707031 47.394531 C 155.476562 47.394531 155.246094 47.394531 154.992188 47.394531 C 155.578125 45.476562 156.167969 43.582031 156.757812 41.667969 C 157.140625 41.667969 157.527344 41.667969 157.886719 41.667969 C 157.9375 41.667969 157.988281 41.742188 158.011719 41.820312 C 158.242188 42.535156 158.472656 43.25 158.679688 43.992188 C 159.011719 45.066406 159.34375 46.164062 159.679688 47.238281 C 159.703125 47.238281 159.730469 47.289062 159.730469 47.367188 Z M 158.398438 45.269531 C 158.371094 45.195312 158.371094 45.144531 158.347656 45.09375 C 158.039062 44.121094 157.757812 43.148438 157.449219 42.175781 C 157.425781 42.125 157.398438 42.074219 157.347656 42.023438 C 157.320312 42.074219 157.246094 42.125 157.246094 42.175781 C 156.964844 43.046875 156.707031 43.917969 156.449219 44.8125 C 156.398438 44.964844 156.347656 45.117188 156.296875 45.269531 C 157.015625 45.269531 157.707031 45.269531 158.398438 45.269531 Z M 158.398438 45.269531 " fill-opacity="1" fill-rule="nonzero"/><path fill="#000000" d="M 134.9375 45.269531 C 135.167969 45.269531 135.398438 45.269531 135.601562 45.269531 C 135.679688 46.269531 135.191406 47.34375 133.835938 47.46875 C 133.476562 47.496094 133.09375 47.46875 132.757812 47.394531 C 131.890625 47.164062 131.402344 46.574219 131.324219 45.707031 C 131.25 44.886719 131.25 44.070312 131.351562 43.25 C 131.453125 42.230469 132.222656 41.589844 133.246094 41.539062 C 133.578125 41.511719 133.914062 41.539062 134.246094 41.613281 C 135.011719 41.792969 135.550781 42.433594 135.601562 43.277344 C 135.601562 43.40625 135.628906 43.53125 135.628906 43.6875 C 135.398438 43.6875 135.167969 43.6875 134.960938 43.6875 C 134.9375 43.507812 134.9375 43.328125 134.886719 43.148438 C 134.757812 42.613281 134.425781 42.253906 133.859375 42.175781 C 133.578125 42.152344 133.296875 42.152344 133.015625 42.203125 C 132.402344 42.355469 132.042969 42.792969 131.992188 43.378906 C 131.941406 44.144531 131.941406 44.9375 132.015625 45.679688 C 132.09375 46.394531 132.632812 46.804688 133.347656 46.855469 C 133.503906 46.855469 133.683594 46.855469 133.835938 46.832031 C 134.5 46.703125 134.859375 46.242188 134.910156 45.5 C 134.9375 45.425781 134.9375 45.347656 134.9375 45.269531 Z M 134.9375 45.269531 " fill-opacity="1" fill-rule="nonzero"/><path fill="#000000" d="M 151.226562 45.042969 C 151.226562 45.808594 151.226562 46.574219 151.226562 47.34375 C 150.996094 47.34375 150.765625 47.34375 150.535156 47.34375 C 150.535156 45.449219 150.535156 43.53125 150.535156 41.613281 C 150.585938 41.613281 150.609375 41.589844 150.664062 41.589844 C 151.355469 41.589844 152.070312 41.589844 152.761719 41.589844 C 153.324219 41.589844 153.8125 41.769531 154.171875 42.203125 C 154.605469 42.738281 154.632812 43.378906 154.402344 43.992188 C 154.171875 44.582031 153.683594 44.914062 153.070312 44.964844 C 152.53125 45.015625 151.996094 44.988281 151.480469 45.015625 C 151.40625 45.042969 151.328125 45.042969 151.226562 45.042969 Z M 151.226562 44.402344 C 151.789062 44.402344 152.328125 44.425781 152.890625 44.402344 C 153.53125 44.351562 153.863281 43.96875 153.863281 43.328125 C 153.863281 42.714844 153.53125 42.304688 152.917969 42.28125 C 152.378906 42.253906 151.839844 42.253906 151.277344 42.253906 C 151.277344 42.253906 151.25 42.253906 151.25 42.28125 C 151.226562 42.996094 151.226562 43.6875 151.226562 44.402344 Z M 151.226562 44.402344 " fill-opacity="1" fill-rule="nonzero"/><path fill="#000000" d="M 171.101562 41.613281 C 171.050781 41.691406 171.023438 41.769531 171 41.820312 C 170.382812 42.894531 169.769531 43.941406 169.152344 45.015625 C 169.101562 45.09375 169.078125 45.21875 169.078125 45.320312 C 169.078125 45.9375 169.078125 46.550781 169.078125 47.136719 C 169.078125 47.1875 169.078125 47.265625 169.078125 47.34375 C 168.847656 47.34375 168.617188 47.34375 168.386719 47.34375 C 168.386719 47.289062 168.386719 47.214844 168.386719 47.164062 C 168.386719 46.550781 168.386719 45.9375 168.386719 45.320312 C 168.386719 45.21875 168.359375 45.117188 168.308594 45.039062 C 167.695312 43.96875 167.078125 42.894531 166.4375 41.820312 C 166.414062 41.769531 166.386719 41.71875 166.335938 41.640625 C 166.59375 41.640625 166.824219 41.640625 167.054688 41.640625 C 167.105469 41.640625 167.15625 41.71875 167.183594 41.769531 C 167.644531 42.585938 168.105469 43.40625 168.566406 44.25 C 168.589844 44.300781 168.640625 44.351562 168.691406 44.402344 C 168.746094 44.351562 168.796875 44.324219 168.847656 44.25 C 169.308594 43.429688 169.769531 42.613281 170.230469 41.769531 C 170.28125 41.667969 170.332031 41.613281 170.460938 41.640625 C 170.664062 41.640625 170.871094 41.613281 171.101562 41.613281 Z M 171.101562 41.613281 " fill-opacity="1" fill-rule="nonzero"/></svg>