<svg xmlns="http://www.w3.org/2000/svg" viewBox="0 0 215 105"><g fill="none" fill-rule="evenodd"><path fill="#FFF" d="M0 0h215v105H0z"/><g fill="#8C0082"><path d="M42.0400049 80.3145407c0 .2537902-.0248518.5015556-.0632592.7448025-.0045185.0308766-.008284.061-.0135556.0911235-.3976296 2.2841111-2.3895432 4.0267531-4.7851111 4.0267531-2.1365062 0-3.9506913-1.3871852-4.6021111-3.3060494L12.34580741 70.1923062c-2.00622222-1.1582469-3.24128395-3.2992716-3.24128395-5.6142593V44.9066765c.74932098.2537902 1.54834568.3976297 2.38351852.3976297.74932098 0 1.47228395-.1137161 2.15458024-.3200618v19.5938025c0 .6920864.37202469 1.3367284.97298766 1.6831482L33.4872025 77.1568494c.8924074-1.0415185 2.214074-1.7049877 3.6908765-1.7049877 1.6063333 0 3.0281605.7854692 3.9145432 1.9896543.0158148.0218396.0323827.042926.0481976.0647655.061753.0881111.1204938.1777284.1769753.270358.0218395.0353951.043679.070037.0647654.1061852.0497037.0850988.095642.1724568.1400741.2605679.0240987.0474444.0466913.0948889.0685308.1430864.0384074.0820864.0738025.1649259.1076914.2492716.0240988.0602469.0451852.1204938.0670247.1814938.0271111.0768149.0534691.1543828.0760617.2327037.0225926.0753087.0391605.1506173.0579877.2251729.017321.0707901.035395.1408271.0489506.2123704.0188271.0941358.0308765.1890246.0444321.2846666.0067778.0579877.0180741.112963.0233457.1701976.0143086.1558888.0233456.3125308.0233456.4721851ZM66.919721 37.8487506c0 1.4587284-.6476543 2.7660864-1.6688395 3.6577408v23.0715555c0 2.3149877-1.2343087 4.4560124-3.241284 5.6142593L44.629116 80.2264296c-.0195802-1.6417284-.5746049-3.1531728-1.4948765-4.3776913l16.6063086-9.5875432c.6002099-.3464198.9722346-.9910618.9722346-1.6831482V42.5178864c-2.0280617-.584395-3.5176667-2.4543086-3.5176667-4.6691358 0-1.0784197.3577161-2.0724938.9541605-2.8790494.008284-.0128024.0180741-.0256049.0278642-.0384074.1122099-.1491111.2327037-.2929506.3614815-.4285061l.017321-.0188272c.2665926-.2778889.5648148-.5218889.8901482-.7304938.0338888-.0218395.0692839-.0414198.1039259-.0632593.1287778-.0768148.2605679-.1498642.3961234-.2153827.0399136-.0188272.0798272-.0391605.1204939-.0572346.1694444-.0768148.3441605-.1476049.5241481-.2033333.0007531 0 .0007531 0 .0007531-.0007531.4631482-.1468518.9549136-.2274321 1.4662593-.2274321 2.6817407 0 4.8619259 2.1809383 4.8619259 4.862679ZM9.10452346 42.0826025c-1.47755556-.8351729-2.4791605-2.4189136-2.4791605-4.2338519 0-2.6817407 2.18093827-4.862679 4.86267902-4.862679.69509876 0 1.35480246.1498642 1.95350617.4134444L33.936042 21.56702222c1.002358-.57912345 2.1229506-.86830864 3.2412839-.86830864 1.1198395 0 2.239679.28918519 3.2420371.86830864L57.9022642 31.6613926c-1.2862716.8675555-2.2826049 2.1282222-2.8293457 3.6050247l-16.9226049-9.76903705c-.2952099-.17095062-.6318395-.2605679-.9729877-.2605679-.340395 0-.6762716.08961728-.9722345.2605679L16.2724 37.0060469c.0481975.2741235.0775679.5542716.0775679.8427037 0 2.0920741-1.3307037 3.8746296-3.18781481 4.5591852-.01430865.0052716-.02937037.0112963-.04292593.0158148-.14835802.051963-.29671605.0979013-.44959259.1363087-.03087655.0075308-.061.0165679-.09187655.0225926-.14007407.0323827-.28316049.0579876-.427.0783209-.03916049.0052716-.0775679.0128025-.11748148.017321-.17923456.0203334-.36072839.0331358-.54523456.0331358-.19806173 0-.39311112-.0158148-.58590124-.0391605-.05120988-.0060247-.10166667-.0150617-.15362963-.0233456-.14760494-.0225926-.29219753-.0512099-.43603704-.0873581-.04367901-.0112963-.08811111-.0210864-.13254321-.0338889-.37880246-.1069382-.73953086-.2552963-1.0754074-.445074Z"/><path d="M50.2550048 61.8158686c0-.8544234-.693445-1.5478684-1.5478683-1.5478684h-12.640667c-.8544234 0-1.5478684.693445-1.5478684 1.5478684 0 .8544233.693445 1.5478683 1.5478684 1.5478683h12.640667c.8544233 0 1.5478683-.693445 1.5478683-1.5478683m-24.7666677 1.5478683c-.3637491 0-.7282721-.1276991-1.0223671-.386967-.6415914-.564972-.7027322-1.5432248-.1377603-2.1840423l7.0636973-8.0148624-7.0280963-7.4421511c-.587416-.6214691-.5587805-1.6012698.0626887-2.1879119.6222431-.5858682 1.6004959-.5595544 2.1879119.0626887l7.9978358 8.4691617c.5494933.5812246.564972 1.4859536.035601 2.0857526l-7.9978358 9.0736044c-.305704.3474964-.7321418.5247273-1.1616752.5247273"/></g><path fill="#050713" fill-rule="nonzero" d="M84.608 63.087c-.595 1.122-1.768 1.887-3.179 1.887-1.989 0-3.604-1.598-3.604-3.604 0-2.006 1.615-3.604 3.604-3.604 1.394 0 2.584.765 3.179 1.887l3.094-1.394c-1.173-2.227-3.536-3.774-6.273-3.774-3.825 0-7.038 3.094-7.038 6.885s3.213 6.885 7.038 6.885c2.737 0 5.134-1.547 6.29-3.808l-3.111-1.36ZM90.070428 68h9.741v-3.281h-6.358V54.74h-3.383V68Zm12.143428-13.26h3.4V68h-3.4V54.74Z"/><path fill="#6D7A99" fill-rule="nonzero" d="M78.565 41.821h2.079v.242c-.407.594-1.067.979-1.837.979-1.298 0-2.332-1.034-2.332-2.332 0-1.298 1.034-2.332 2.332-2.332.748 0 1.408.341 1.837.88l1.793-1.21c-.825-1.078-2.156-1.793-3.63-1.793-2.486 0-4.554 2.002-4.554 4.455 0 2.453 2.068 4.455 4.554 4.455.88 0 1.749-.33 2.167-.968V45h1.727v-5.005h-4.136v1.826Zm7.7455714-5.401V45h2.189v-2.299h1.122l1.628 2.299h2.629l-1.859-2.596c1.155-.528 1.694-1.65 1.694-2.849 0-1.705-1.012-3.135-3.212-3.135h-4.191Zm4.07 2.002c.88 0 1.21.495 1.21 1.155 0 .594-.33 1.133-1.21 1.133h-1.881v-2.288h1.881Zm9.5055715-2.002-3.476 8.58h2.398l.473-1.254h3.3770001l.473 1.254h2.398l-3.465-8.58h-2.1780001Zm2.0240001 5.335h-1.881l.946-2.519.935 2.519ZM108.687714 45h2.2v-1.947h1.584c2.277 0 3.366-1.529 3.366-3.344 0-1.727-1.089-3.289-3.366-3.289h-3.784V45Zm3.663-6.578c.924 0 1.265.616 1.265 1.298 0 .759-.341 1.331-1.265 1.331h-1.463v-2.629h1.463Zm12.519572-2.002v3.333h-3.498V36.42h-2.189V45h2.189v-3.19h3.498V45h2.2v-8.58h-2.2Zm5.611571 4.29c0 2.2 1.672 4.048 3.806 4.389 1.485.495 2.486 2.035 4.213 2.035.781 0 1.782-.319 2.398-1.166l-1.661-1.342c-.231.352-.627.385-.748.385-.374 0-.726-.198-1.122-.473 1.331-.781 2.222-2.2 2.222-3.828 0-2.453-2.046-4.455-4.554-4.455-2.475 0-4.554 2.002-4.554 4.455Zm2.222 0c0-1.298 1.045-2.332 2.332-2.332 1.32 0 2.332 1.034 2.332 2.332 0 1.298-1.012 2.332-2.332 2.332-1.287 0-2.332-1.034-2.332-2.332ZM143.012429 45v-8.58h2.189v6.457h4.114V45h-6.303Z"/></g></svg>