<svg xmlns="http://www.w3.org/2000/svg" viewBox="0 0 80 80"><g fill="none" fill-rule="evenodd"><path fill="#7AA116" d="M0 0h80v80H0z"/><path fill="#FFF" d="M15.066 20.912C15.909 23.867 25.648 27 38.5 27c12.83 0 22.558-3.122 23.429-6.073l.064-.45C61.92 19.16 54.364 14 38.5 14c-15.867 0-23.421 5.161-23.494 6.478l.06.434Zm46.153 19.277-.383 2.703c3.36.827 3.963.322 3.969.317.001-.024-.045-.901-3.586-3.02ZM45.678 65.558l.252 1.984a59.343 59.343 0 0 1-7.436.458c-7.633 0-19.719-1.691-19.853-6.223l-5.548-40.524a3.393 3.393 0 0 1-.082-.596l-.003-.021h.001c-.002-.046-.009-.09-.009-.136 0-3.466 9.933-8.5 25.5-8.5C54.066 12 64 17.034 64 20.5c0 .047-.009.093-.011.14h.001l-.002.01a3.356 3.356 0 0 1-.091.642l-2.376 16.762c3.347 1.91 4.989 3.402 5.248 4.786a1.95 1.95 0 0 1-.435 1.659c-.486.578-1.286.866-2.468.866-.881 0-1.979-.163-3.313-.482l-.128.904-1.98-.28.163-1.152c-6.165-1.821-14.622-5.674-18.681-7.595a2.38 2.38 0 0 1-1.526.562 2.406 2.406 0 0 1-2.402-2.403 2.406 2.406 0 0 1 2.402-2.403 2.406 2.406 0 0 1 2.403 2.403c0 .014-.004.028-.004.042 3.45 1.629 11.973 5.54 18.092 7.391l2.549-17.979C57.022 27.399 47.555 29 38.5 29c-9.071 0-18.553-1.606-22.962-4.641l5.093 37.206c.006.045.009.091.009.136 0 1.516 6.779 4.299 17.854 4.299 2.453 0 4.871-.149 7.184-.442Zm18.288-7.689 2.371 2.37-1.415 1.414L62.269 59h-4.753l2.259 3.917 3.812 1.073-.542 1.924-3.174-.893-.867 3.238-1.932-.518 1.007-3.761-2.354-4.083-2.323 4.017.977 3.839-1.937.493-.814-3.195-3.237.867-.517-1.932 3.759-1.007L53.935 59h-4.689l-2.729 2.662-1.396-1.432 2.361-2.303-2.37-2.37 1.414-1.414L49.382 57h4.671l-2.384-4.123-3.807-1.071.541-1.925 3.175.893.867-3.237 1.932.518-1.009 3.767 2.357 4.076 2.32-4.023-.976-3.833 1.937-.493.815 3.196 3.236-.867.518 1.931-3.766 1.009L57.399 57h4.594l2.938-2.866 1.397 1.432-2.362 2.303Z"/></g></svg>