<svg xmlns="http://www.w3.org/2000/svg" xmlns:xlink="http://www.w3.org/1999/xlink" width="105px" height="144px" viewBox="0 0 105 144" version="1.1">
    <!-- Generator: Sketch 64 (93537) - https://sketch.com -->
    <title>container-grey-17</title>
    <desc>Created with Sketch.</desc>
    <g id="Page-1" stroke="none" stroke-width="1" fill="none" fill-rule="evenodd">
        <g id="Category-Page" transform="translate(-148.000000, -1024.000000)" fill-rule="nonzero">
            <g id="Group-2" transform="translate(147.000000, 1024.000000)">
                <g id="container-grey-17" transform="translate(0.000000, 0.000000)">
                    <polygon id="Path" fill="#ACB8BF" points="1.4025974 113.906939 53.0002028 84.1558442 105.194805 114.419889 53.0854881 144"/>
                    <polygon id="Path" fill="#B8B9B9" opacity="0.5" points="1.48760331 30.9115071 1.4025974 90.7012987 52.8311688 61.0619148 52.8311688 2.80519481"/>
                    <polygon id="Path" fill="#DDDDDB" opacity="0.75" points="105.194805 89.7662338 105.108963 30.8845909 52.8311688 2.80519481 52.8311688 61.006125"/>
                    <polygon id="Path" fill="#DDDDDB" opacity="0.75" points="1.4025974 91.0424168 53.042635 61.7142857 105.194805 90.1996544 53.042635 120.623377"/>
                    <g id="container-grey-18" transform="translate(0.467532, 0.000000)" fill="#FFFFFF">
                        <path d="M2.71878304,31.6450995 L50.7286459,59.1955422 L50.7286459,117.602481 L2.29391699,89.628185 L2.29391699,33.5100526 M0.764399237,30.8821642 L0.764399237,90.2215791 L52.2581637,119.891287 L52.2581637,57.9239833 L4.24830079,30.5430818 L0.764399237,30.8821642 Z" id="Shape"/>
                        <path d="M52.5980565,2.73832742 L101.032785,30.8821642 L52.1731904,58.3478362 L4.07835437,30.7973936 L52.5980565,2.73832742 M52.5980565,0.873374376 L1.18926528,30.712623 L52.1731904,59.9584775 L104.176794,30.712623 L52.5980565,1.04291556 L52.5980565,0.873374376 Z" id="Shape"/>
                    </g>
                </g>
            </g>
        </g>
    </g>
</svg>