<svg xmlns="http://www.w3.org/2000/svg" xmlns:xlink="http://www.w3.org/1999/xlink" width="119px" height="103px" viewBox="0 0 119 103" version="1.1">
    <title>SERP-Containerized-Products</title>
    <g id="SERP-Containerized-Products" stroke="none" stroke-width="1" fill="none" fill-rule="evenodd">
        <g id="container-grey-7" transform="translate(37.000000, 0.000000)" fill-rule="nonzero">
            <polygon id="Path" fill="#ACB8BF" points="0.955384615 47.39375 22.3630769 34.960625 44.0184615 47.6075 22.3984615 59.898125"/>
            <polygon id="Path" fill="#CAD0D6" opacity="0.5" points="0.92 12.718125 0.884615385 37.69125 22.2923077 25.29375 22.2923077 0.92625"/>
            <polygon id="Path" fill="#DFE3E7" opacity="0.75" points="43.8769231 37.370625 43.8415385 12.6825 22.2923077 0.92625 22.2923077 25.29375"/>
            <polygon id="Path" fill="#DFE3E7" opacity="0.75" points="0.884615385 37.69125 22.2923077 25.29375 43.9123077 37.370625 22.2923077 50.195625"/>
            <g id="container-grey-8" fill="#FFFFFF">
                <path d="M1.52153846,13.003125 L21.5138462,24.58125 L21.5138462,49.126875 L1.34461538,37.370625 L1.34461538,13.8225 M0.707692308,12.6825 L0.707692308,37.62 L22.1507692,50.124375 L22.1507692,24.0825 L2.15846154,12.54 L0.707692308,12.6825 Z" id="Shape"/>
                <path d="M22.2923077,0.92625 L42.4615385,12.6825 L22.1861538,24.225 L2.15846154,12.6825 L22.2923077,0.92625 M22.2923077,0.178125 L0.884615385,12.6825 L22.1153846,24.973125 L43.7707692,12.6825 L22.2923077,0.178125 Z" id="Shape"/>
            </g>
        </g>
        <g id="container-grey-11" transform="translate(0.000000, 23.000000)" fill-rule="nonzero">
            <polygon id="Path" fill="#ACB8BF" points="0.441538462 47.67625 21.8492308 35.27875 43.5046154 47.89 21.8846154 60.180625"/>
            <polygon id="Path" fill="#CAD0D6" opacity="0.5" points="0.406153846 13.000625 0.370769231 37.97375 21.7784615 25.57625 21.7784615 1.20875"/>
            <polygon id="Path" fill="#DFE3E7" opacity="0.75" points="43.3630769 37.653125 43.3276923 13.000625 21.7784615 1.20875 21.7784615 25.57625"/>
            <polygon id="Path" fill="#DFE3E7" opacity="0.75" points="0.370769231 37.97375 21.7784615 25.57625 43.3984615 37.653125 21.7784615 50.478125"/>
            <g id="container-grey-12" fill="#FFFFFF">
                <path d="M1.00769231,13.25 L21.0353846,24.828125 L21.0353846,49.37375 L0.866153846,37.653125 L0.866153846,14.105 M0.229230769,12.965 L0.229230769,37.9025 L21.6723077,50.406875 L21.6723077,24.365 L1.53846154,12.965 L0.229230769,12.965 Z" id="Shape"/>
                <path d="M21.7784615,1.20875 L42.0184615,12.965 L21.6723077,24.5075 L1.53846154,12.965 L21.6723077,1.20875 M21.6723077,0.460625 L0.370769231,12.965 L21.6015385,25.255625 L43.2569231,12.965 L21.7076923,0.460625 L21.6723077,0.460625 Z" id="Shape"/>
            </g>
        </g>
        <g id="container-grey-15" transform="translate(75.000000, 23.000000)" fill-rule="nonzero">
            <polygon id="Path" fill="#ACB8BF" points="0.76 47.67625 22.2030769 35.27875 43.8230769 47.89 22.2030769 60.180625"/>
            <polygon id="Path" fill="#CAD0D6" opacity="0.5" points="0.724615385 13.000625 0.689230769 37.97375 22.0969231 25.57625 22.0969231 1.20875"/>
            <polygon id="Path" fill="#DFE3E7" opacity="0.75" points="43.6815385 37.653125 43.6461538 13.000625 22.0969231 1.20875 22.0969231 25.57625"/>
            <polygon id="Path" fill="#DFE3E7" opacity="0.75" points="0.689230769 37.97375 22.0969231 25.57625 43.7169231 37.653125 22.0969231 50.478125"/>
            <g id="container-grey-16" fill="#FFFFFF">
                <path d="M1.32615385,13.25 L21.3538462,24.828125 L21.3538462,49.37375 L1.18461538,37.653125 L1.18461538,14.105 M0.547692308,12.965 L0.547692308,37.9025 L22.0261538,50.406875 L22.0261538,24.365 L2.03384615,12.8225 L0.547692308,12.965 Z" id="Shape"/>
                <path d="M22.1323077,1.20875 L42.3369231,12.965 L22.0261538,24.5075 L1.99846154,12.965 L22.1323077,1.20875 M22.1323077,0.460625 L0.689230769,12.965 L21.92,25.255625 L43.5753846,12.965 L22.0615385,0.460625 L22.1323077,0.460625 Z" id="Shape"/>
            </g>
        </g>
        <g id="container-grey-17" transform="translate(37.000000, 42.000000)" fill-rule="nonzero">
            <polygon id="Path" fill="#ACB8BF" points="0.955384615 47.6470588 22.3630769 35.3647059 44.0184615 47.8588235 22.3984615 60.0705882"/>
            <polygon id="Path" fill="#CAD0D6" opacity="0.5" points="0.92 13.2470588 0.884615385 38.0235294 22.2923077 25.7411765 22.2923077 1.6"/>
            <polygon id="Path" fill="#DFE3E7" opacity="0.75" points="43.8769231 37.6705882 43.8415385 13.2470588 22.2923077 1.6 22.2923077 25.7411765"/>
            <polygon id="Path" fill="#DFE3E7" opacity="0.75" points="0.884615385 38.0235294 22.2923077 25.7411765 43.9123077 37.6705882 22.2923077 50.4117647"/>
            <g id="container-grey-18" fill="#FFFFFF">
                <path d="M1.52153846,13.5647059 L21.5138462,25.0352941 L21.5138462,49.3529412 L1.34461538,37.7058824 L1.34461538,14.3411765 M0.707692308,13.2470588 L0.707692308,37.9529412 L22.1507692,50.3058824 L22.1507692,24.5058824 L2.15846154,13.1058824 L0.707692308,13.2470588 Z" id="Shape"/>
                <path d="M22.2923077,1.52941176 L42.4615385,13.2470588 L22.1153846,24.6823529 L2.08769231,13.2117647 L22.2923077,1.52941176 M22.2923077,0.752941176 L0.884615385,13.1764706 L22.1153846,25.3529412 L43.7707692,13.1764706 L22.2923077,0.823529412 L22.2923077,0.752941176 Z" id="Shape"/>
            </g>
        </g>
    </g>
</svg>