<svg xmlns="http://www.w3.org/2000/svg" xmlns:xlink="http://www.w3.org/1999/xlink" viewBox="0 0 66 83"><defs><path id="a" d="M68.069.614v44.305s-11.01 1.83-33.706 1.867l-.691.001C10.507 46.787 0 44.919 0 44.919V.614"/><path id="c" d="M68.069.614v44.305s-11.01 1.83-33.706 1.867l-.691.001C10.507 46.787 0 44.919 0 44.919V.614"/><path id="e" d="M68.069.614v44.305s-11.01 1.83-33.706 1.867l-.691.001C10.507 46.787 0 44.919 0 44.919V.614"/><path id="g" d="M68.069.614v44.305s-11.01 1.83-33.706 1.867l-.691.001C10.507 46.787 0 44.919 0 44.919V.614h68.069z"/></defs><g fill="none" fill-rule="evenodd" opacity=".35"><g transform="translate(-1 -10.614)"><mask id="b" fill="#fff"><use xlink:href="#a"/></mask><path fill="#93D3E6" d="M39.217 37.381c0 7.556 6.125 13.682 13.681 13.682 7.555 0 13.681-6.126 13.681-13.682S60.453 23.7 52.9 23.7c-7.557 0-13.682 6.125-13.682 13.681" mask="url(#b)"/></g><g transform="translate(-1 -10.614)"><mask id="d" fill="#fff"><use xlink:href="#c"/></mask><path fill="#93D3E6" d="M1.956 39.85c0 6.192 5.02 11.213 11.211 11.213 6.193 0 11.212-5.021 11.212-11.212 0-6.192-5.019-11.212-11.212-11.212-6.19 0-11.21 5.02-11.21 11.212" mask="url(#d)"/></g><g transform="translate(-1 -10.614)"><mask id="f" fill="#fff"><use xlink:href="#e"/></mask><path fill="#93D3E6" d="M13.957 30.985c0 11.089 8.99 20.078 20.077 20.078 11.09 0 20.078-8.99 20.078-20.078s-8.989-20.077-20.078-20.077c-11.088 0-20.077 8.989-20.077 20.077" mask="url(#f)"/></g><g transform="translate(-1 -10.614)"><mask id="h" fill="#fff"><use xlink:href="#g"/></mask><path fill="#93D3E6" d="M64.37 51.063H9.485V39.47h55.102z" mask="url(#h)"/></g><path stroke="#93D3E6" stroke-linecap="round" stroke-linejoin="round" d="M25.855 69.284 2.144 33.458m28.382 35.826-7.904-35.826m12.575 35.826 7.904-35.826m-3.233 35.826L63.58 33.458"/><path fill="#93D3E6" d="m32.737 64.918-7.13 4.117 7.13 4.117 7.131-4.056v-.06z"/><path stroke="#93D3E6" stroke-linecap="round" stroke-linejoin="round" stroke-width="2" d="m32.737 64.918-7.13 4.117 7.13 4.117 7.131-4.056v-.06z"/><path fill="#93D3E6" d="M25.607 69.036v8.233l7.13 4.118v-8.234z"/><path stroke="#93D3E6" stroke-linecap="round" stroke-linejoin="round" stroke-width="2" d="M25.607 69.036v8.233l7.13 4.118v-8.234z"/><path fill="#93D3E6" d="m32.737 81.386 7.131-4.057v-8.233l-7.13 4.057z"/><path stroke="#93D3E6" stroke-linecap="round" stroke-linejoin="round" stroke-width="2" d="m32.737 81.386 7.131-4.057v-8.233l-7.13 4.057z"/></g></svg>