<svg xmlns="http://www.w3.org/2000/svg" viewBox="0 0 64 64"><g fill="none"><path fill="#4285F4" d="M63.235 29.06 50.085 6.19a5.78 5.78 0 0 0-4.93-2.94H18.85a5.775 5.775 0 0 0-4.93 2.94L.765 29a5.74 5.74 0 0 0 0 5.72l13.15 23a5.885 5.885 0 0 0 4.93 3.045H45.15a5.865 5.865 0 0 0 4.935-3.03l13.15-22.87a5.865 5.865 0 0 0 0-5.805z"/><path fill="#FFF" d="m44.61 23.87-2.93.63-7.3-7.3-2.335 4.35-1.27 5.05 2.145 2.145-4.12.845-5.65-5.65-3.835 3.69 7.065 7.055-7.5 5.95L39 60.75h6.15a5.865 5.865 0 0 0 4.935-3.03l10.36-18L44.61 23.87z" opacity=".07"/><path fill="#FFF" d="M41.43 23.5a2.66 2.66 0 1 1 2.657 4.61 2.66 2.66 0 0 1-2.657-4.61m-21.52 4.59a2.66 2.66 0 1 1 2.66-4.607 2.66 2.66 0 0 1-2.66 4.607m14.75 16.335a2.66 2.66 0 1 1 0-.005M32 26.47c.414 0 .827.047 1.23.14v-7.035h-2.46v7.035a5.53 5.53 0 0 1 1.23-.14zm5.285 7.16a5.5 5.5 0 0 1-1.235 2.125l6.095 3.5 1.23-2.13-6.09-3.495zm-10.57 0-6.09 3.5 1.23 2.13 6.095-3.5a5.5 5.5 0 0 1-1.235-2.13z"/><path fill="#FFF" d="M36.3 32a4.3 4.3 0 1 1-8.6 0 4.3 4.3 0 0 1 8.6 0m-16.75 3.285a3.38 3.38 0 1 1 3.385 5.851 3.38 3.38 0 0 1-3.385-5.851m21.52 5.85a3.38 3.38 0 1 1 3.379-5.855 3.38 3.38 0 0 1-3.379 5.855m-5.69-21.56a3.38 3.38 0 1 1-6.76 0 3.38 3.38 0 0 1 6.76 0"/></g></svg>