<svg xmlns="http://www.w3.org/2000/svg" viewBox="0 0 28 28"><defs><linearGradient id="a" x1="13.362%" x2="41.912%" y1="59.46%" y2="41.872%"><stop offset="0%" stop-color="#1A237E" stop-opacity=".2"/><stop offset="66%" stop-color="#1A237E" stop-opacity="0"/></linearGradient><linearGradient id="b" x1="-15.777%" x2="85.395%" y1="10.154%" y2="81.096%"><stop offset="0%" stop-color="#1A237E" stop-opacity=".2"/><stop offset="100%" stop-color="#1A237E" stop-opacity=".04"/></linearGradient><linearGradient id="c" x1="79.563%" x2="52.137%" y1="74.295%" y2="54.199%"><stop offset="0%" stop-color="#BF360C" stop-opacity=".15"/><stop offset="66%" stop-color="#BF360C" stop-opacity="0"/></linearGradient><linearGradient id="d" x1="49.979%" x2="49.979%" y1=".971%" y2="36.725%"><stop offset="0%" stop-color="#A52714" stop-opacity=".2"/><stop offset="66%" stop-color="#A52714" stop-opacity="0"/></linearGradient><linearGradient id="e" x1="-8.17%" x2="62.78%" y1="35.526%" y2="82.922%"><stop offset="0%" stop-color="#3E2723" stop-opacity=".15"/><stop offset="100%" stop-color="#3E2723" stop-opacity="0"/></linearGradient><linearGradient id="f" x1="50.01%" x2="50.01%" y1=".003%" y2="99.496%"><stop offset="0%" stop-color="#3E2723" stop-opacity=".15"/><stop offset="4.04%" stop-color="#472821" stop-opacity=".144"/><stop offset="25.59%" stop-color="#722D1A" stop-opacity=".112"/><stop offset="46.52%" stop-color="#933114" stop-opacity=".08"/><stop offset="66.36%" stop-color="#AB340F" stop-opacity=".051"/><stop offset="84.67%" stop-color="#BA350D" stop-opacity=".023"/><stop offset="100%" stop-color="#BF360C" stop-opacity="0"/></linearGradient></defs><g fill="none" fill-rule="evenodd"><path fill="#4285F4" d="M10.35 6.6h12.674l-2.128-3.712a1.725 1.725 0 0 0-1.495-.866H8.2c-.618 0-1.188.33-1.495.866L3.41 8.63l6.94 11.77V6.6z"/><path fill="url(#a)" d="M10.35 4.6h12.674L20.896.866A1.722 1.722 0 0 0 19.4 0H8.2c-.62 0-1.19.33-1.496.866L3.41 6.623 10.35 18.4V4.6z" transform="translate(0 2)"/><path fill="url(#b)" d="m3.41 6.623 3.42 3.816-.614 1.06L3.41 6.623z" transform="translate(0 2)"/><path fill="#FFCD40" d="m3.41 8.63-2.306 4.024a1.722 1.722 0 0 0 0 1.715l5.6 9.764c.308.536.878.866 1.495.866h6.566l6.618-11.5-11.034 6.9L3.41 8.63z"/><path fill="url(#c)" d="M10.35 18.4 3.41 6.623l-2.306 4.03a1.722 1.722 0 0 0 0 1.715l5.6 9.766c.307.535.878.866 1.495.866h6.566l6.615-11.5-11.03 6.9z" transform="translate(0 2)"/><path fill="#DB4437" d="M23.024 6.6H17.25l4.134 6.9L14.43 25h4.97c.618 0 1.19-.33 1.496-.866l5.6-9.765a1.723 1.723 0 0 0 0-1.716L23.024 6.6z"/><path fill="url(#d)" d="M23.024 4.6H10.35l11.03 6.9L14.43 23h4.97c.618 0 1.188-.33 1.495-.866l5.6-9.765a1.719 1.719 0 0 0 0-1.716L23.026 4.6z" transform="translate(0 2)"/><path fill="url(#e)" d="m17.25 4.6 9.475 8.975V23H14.428l2.822-4.6V4.6z" transform="translate(0 2)"/><path fill="url(#f)" d="m10.35 18.4 4.078 4.6 2.822-4.6h-6.9z" transform="translate(0 2)"/><path fill="#EEE" d="M17.25 6.6h-6.9l-4.134 6.9 4.134 6.9h6.9l4.134-6.9-4.134-6.9zm-3.517 10.208a3.285 3.285 0 1 1-.002-6.57 3.285 3.285 0 0 1 .002 6.57z"/><path fill="#262626" fill-opacity=".1" d="M13.732 10.224a3.297 3.297 0 0 1 3.295 3.16h.004a3.299 3.299 0 1 0-6.596.002h.003a3.298 3.298 0 0 1 3.295-3.162z"/></g></svg>