<svg xmlns="http://www.w3.org/2000/svg" id="svg20" version="1.1" viewBox="0 0 305 275"><defs id="defs4"><style id="style2">.cls-1,.cls-2{fill:#aecbfa;fill-rule:evenodd}.cls-2{fill:#4285f4}</style></defs><g id="g18" data-name="Product Icons" transform="matrix(13.93534 0 0 10.93333 -19.938 -28.755)"><g id="g16"><path id="polygon8" d="M12.02 12h9.36L8.9 2.63z" class="cls-1"/><path id="polygon10" d="M12.02 12 8.9 21.38 21.38 12z" class="cls-2"/><path id="polygon12" d="M8.9 12H5.78l-2.34 9.38 3.13-1.57z" class="cls-2"/><path id="polygon14" d="M8.9 12 6.57 4.19 3.44 2.63 5.78 12z" class="cls-1"/></g></g><g id="svg_12" data-name="svg 12" transform="translate(-20.789 -14.811)"><path id="path378" d="M43.314 236.735a4.849 4.849 0 0 0-2.872-3.545 7.074 7.074 0 0 0-2.84-.554 6.17 6.17 0 0 0-4.912 2.255 10.232 10.232 0 0 0-1.923 6.781q0 4.56 2.082 6.454a6.842 6.842 0 0 0 4.737 1.894 6.143 6.143 0 0 0 4.266-1.494 6.448 6.448 0 0 0 2.05-3.913h-5.729v-4.133h10.313v13.286H45.06l-.52-3.091a11.854 11.854 0 0 1-2.688 2.476 9.488 9.488 0 0 1-5.039 1.253 10.471 10.471 0 0 1-8.062-3.408 12.987 12.987 0 0 1-3.275-9.365 13.735 13.735 0 0 1 3.309-9.635 11.276 11.276 0 0 1 8.75-3.626 11.444 11.444 0 0 1 7.584 2.393 8.9 8.9 0 0 1 3.284 5.972z"/><path id="path380" d="M68.307 251.526a8.52 8.52 0 0 1-7.038 2.861 8.52 8.52 0 0 1-7.038-2.861 11.359 11.359 0 0 1 0-13.752 8.463 8.463 0 0 1 7.038-2.904 8.463 8.463 0 0 1 7.038 2.904c3.333 4.153 3.624 9.832 0 13.752zm-3.83-2.645a8.548 8.548 0 0 0 0-8.479 4.254 4.254 0 0 0-6.458 0 8.493 8.493 0 0 0 0 8.479 4.24 4.24 0 0 0 6.458 0z"/><path id="path382" d="M89.32 251.526a8.52 8.52 0 0 1-7.04 2.861 8.52 8.52 0 0 1-7.037-2.861 11.359 11.359 0 0 1 0-13.752 8.463 8.463 0 0 1 7.038-2.904 8.463 8.463 0 0 1 7.038 2.904 11.359 11.359 0 0 1 0 13.752zm-3.83-2.645a8.548 8.548 0 0 0 0-8.479 4.254 4.254 0 0 0-6.459 0 8.493 8.493 0 0 0 0 8.479 4.24 4.24 0 0 0 6.458 0z"/><path id="path384" d="M104.12 235.44a5.752 5.752 0 0 1 2.818 2.655v-2.637h4.67v17.367a9.73 9.73 0 0 1-1.193 5.342q-2.05 3.09-7.86 3.09a10.713 10.713 0 0 1-5.728-1.377 5.08 5.08 0 0 1-2.452-4.115h5.206a2.162 2.162 0 0 0 .655 1.21 4.046 4.046 0 0 0 2.604.654 3.499 3.499 0 0 0 3.46-1.73 8.77 8.77 0 0 0 .57-3.729v-1.175a5.827 5.827 0 0 1-1.477 1.763 5.944 5.944 0 0 1-3.712 1.092 7.024 7.024 0 0 1-5.636-2.478 10.015 10.015 0 0 1-2.107-6.71 11.323 11.323 0 0 1 2.03-6.86 6.702 6.702 0 0 1 5.754-2.78 6.315 6.315 0 0 1 2.398.419zm1.63 13.127a5.883 5.883 0 0 0 1.154-4.038 6.206 6.206 0 0 0-1.095-3.966 3.576 3.576 0 0 0-2.935-1.36 3.459 3.459 0 0 0-3.462 2.369 8.426 8.426 0 0 0-.502 3.108 7.114 7.114 0 0 0 .535 2.838 3.487 3.487 0 0 0 3.479 2.318 3.671 3.671 0 0 0 2.826-1.269z"/><path id="path386" d="M120.963 253.766h-4.787v-24.758h4.787z"/><path id="path388" d="M137.563 235.83a7.451 7.451 0 0 1 3.163 2.707 9.01 9.01 0 0 1 1.459 3.785 23.422 23.422 0 0 1 .158 3.634h-13.335a4.393 4.393 0 0 0 1.915 3.863 4.854 4.854 0 0 0 2.64.688 3.714 3.714 0 0 0 3.642-2.1h4.888a5.97 5.97 0 0 1-1.775 3.31 8.892 8.892 0 0 1-6.887 2.67 9.981 9.981 0 0 1-6.45-2.252q-2.793-2.252-2.793-7.33a9.91 9.91 0 0 1 2.522-7.295 8.824 8.824 0 0 1 6.547-2.54 10.414 10.414 0 0 1 4.306.86zm-7.162 4.133a4.985 4.985 0 0 0-1.275 2.834h8.247a3.995 3.995 0 0 0-1.275-2.891 4.196 4.196 0 0 0-2.84-.989 3.803 3.803 0 0 0-2.857 1.046z"/><path id="path390" d="M157.071 231.594a10.194 10.194 0 0 1 7.61-3.056q6.182 0 9.04 4.098a8.932 8.932 0 0 1 1.695 4.62h-5.173a7.04 7.04 0 0 0-1.267-2.688 5.618 5.618 0 0 0-8.458.663 11.122 11.122 0 0 0-1.596 6.441 9.76 9.76 0 0 0 1.684 6.24 5.28 5.28 0 0 0 4.28 2.074 4.847 4.847 0 0 0 4.059-1.78 7.816 7.816 0 0 0 1.281-2.872h5.14a11.158 11.158 0 0 1-3.398 6.585 9.891 9.891 0 0 1-7.004 2.535 10.51 10.51 0 0 1-8.309-3.426 16.244 16.244 0 0 1 .416-19.434z"/><path id="path392" d="M184.05 253.766h-4.787v-24.758h4.786z"/><path id="path394" d="M203.987 251.526a10.086 10.086 0 0 1-14.076 0 11.359 11.359 0 0 1 0-13.752 9.98 9.98 0 0 1 14.076 0 11.359 11.359 0 0 1 0 13.752zm-3.83-2.645a8.548 8.548 0 0 0 0-8.479 4.254 4.254 0 0 0-6.458 0 8.493 8.493 0 0 0 0 8.479 4.24 4.24 0 0 0 6.458 0z"/><path id="path396" d="M214.501 235.458v11.035a5.796 5.796 0 0 0 .368 2.351 2.541 2.541 0 0 0 2.557 1.395 3.342 3.342 0 0 0 3.343-1.982 7.215 7.215 0 0 0 .468-2.839v-9.96h4.853v18.308h-4.652v-2.587a9.053 9.053 0 0 0-.335.504 3.379 3.379 0 0 1-.636.74 6.653 6.653 0 0 1-2.17 1.376 7.366 7.366 0 0 1-2.453.37 5.468 5.468 0 0 1-5.46-2.922 11.22 11.22 0 0 1-.787-4.754v-11.035z"/><path id="path398" d="M240.45 235.751a5.838 5.838 0 0 1 2.102 2.024v-8.733h4.855v24.724h-4.654v-2.537a6.743 6.743 0 0 1-2.336 2.37 6.554 6.554 0 0 1-3.259.738 6.8 6.8 0 0 1-5.398-2.595 9.963 9.963 0 0 1-2.191-6.66 11.472 11.472 0 0 1 2.156-7.374 7.027 7.027 0 0 1 5.771-2.686 5.894 5.894 0 0 1 2.954.73zm1.176 13.043a6.67 6.67 0 0 0 1.06-3.913 6.004 6.004 0 0 0-1.697-4.803 3.648 3.648 0 0 0-2.418-.874 3.36 3.36 0 0 0-3.082 1.586 8.557 8.557 0 0 0 .015 7.996 3.385 3.385 0 0 0 3.034 1.52 3.527 3.527 0 0 0 3.088-1.512z"/><path id="path402" d="M287.096 235.458v11.035a5.798 5.798 0 0 0 .367 2.351 2.54 2.54 0 0 0 2.557 1.395 3.34 3.34 0 0 0 3.343-1.982 7.199 7.199 0 0 0 .469-2.839v-9.96h4.853v18.308h-4.652v-2.587a9.501 9.501 0 0 0-.335.504 3.38 3.38 0 0 1-.637.74 6.65 6.65 0 0 1-2.168 1.376 7.374 7.374 0 0 1-2.455.37 5.467 5.467 0 0 1-5.46-2.922 11.207 11.207 0 0 1-.787-4.754v-11.035z"/><path id="path404" d="M318.1 236.508a6.057 6.057 0 0 1 1.799 4.93v12.328h-4.905V242.63a5.112 5.112 0 0 0-.384-2.217 2.693 2.693 0 0 0-2.668-1.41 3.307 3.307 0 0 0-3.318 2.064 7.16 7.16 0 0 0-.466 2.789v9.91h-4.788v-18.275h4.636v2.671a8.14 8.14 0 0 1 1.74-2.033 6.026 6.026 0 0 1 3.73-1.107 7.017 7.017 0 0 1 4.624 1.486z"/></g><path id="path989" d="M254.535 215.165a6.422 6.422 0 0 1 2.307 1.692 9.803 9.803 0 0 1 1.23 2.152 7.183 7.183 0 0 1 .461 2.614 7.586 7.586 0 0 1-.922 3.537 5.21 5.21 0 0 1-2.922 2.46 4.622 4.622 0 0 1 2.46 2 8.018 8.018 0 0 1 .77 3.843v1.692a8.853 8.853 0 0 0 .153 2.306 2.24 2.24 0 0 0 .923 1.384v.615h-5.69a5.706 5.706 0 0 1-.307-1.384 10.15 10.15 0 0 1-.154-2.153v-2.306a5.5 5.5 0 0 0-.769-3.23 4.44 4.44 0 0 0-2.921-.768h-5.074v9.687h-5.075V214.55h11.84a8.838 8.838 0 0 1 3.69.615zm-10.763 3.69v6.612h5.536a4.972 4.972 0 0 0 2.46-.46 2.883 2.883 0 0 0 1.537-2.769 3.308 3.308 0 0 0-1.383-3.075 4.972 4.972 0 0 0-2.46-.461h-5.69z"/></svg>