<svg xmlns="http://www.w3.org/2000/svg" data-name="Google Cloud" viewBox="0 0 90.593 16">
  <defs>
    <clipPath id="a">
      <path fill="none" d="M0 0h90.593v16H0z" data-name="Rectangle 2780"/>
    </clipPath>
  </defs>
  <g fill="#fff" clip-path="url(#a)" data-name="Group 2935">
    <path d="M59.049 12.417a5.588 5.588 0 0 1-5.707-5.733 5.57 5.57 0 0 1 1.629-4.078A5.451 5.451 0 0 1 59.049.951a5.084 5.084 0 0 1 4.026 1.785l-1.016.977a3.715 3.715 0 0 0-3.01-1.42A4.135 4.135 0 0 0 56 3.518a4.272 4.272 0 0 0-1.212 3.153A4.272 4.272 0 0 0 56 9.824a4.135 4.135 0 0 0 3.049 1.225 4.292 4.292 0 0 0 3.322-1.6l1.029.99a5.257 5.257 0 0 1-1.915 1.446 5.507 5.507 0 0 1-2.436.534m6.684-.248h-1.407V1.212h1.407Zm1.016-3.752a4 4 0 0 1 1.081-2.866 3.693 3.693 0 0 1 2.775-1.134 3.635 3.635 0 0 1 2.749 1.134 3.962 3.962 0 0 1 1.108 2.866 3.889 3.889 0 0 1-1.108 2.866 3.655 3.655 0 0 1-2.749 1.134 3.733 3.733 0 0 1-2.775-1.134 4.019 4.019 0 0 1-1.081-2.866m1.407 0a2.725 2.725 0 0 0 .7 1.954 2.326 2.326 0 0 0 1.746.756 2.28 2.28 0 0 0 1.746-.756 2.746 2.746 0 0 0 .7-1.954 2.714 2.714 0 0 0-.7-1.941 2.367 2.367 0 0 0-3.492 0 2.714 2.714 0 0 0-.7 1.941m13.9 3.752h-1.342v-1.044h-.065a2.415 2.415 0 0 1-.99.912 2.957 2.957 0 0 1-1.381.365 2.762 2.762 0 0 1-2.124-.795 3.144 3.144 0 0 1-.743-2.241V4.651h1.407v4.625a1.654 1.654 0 0 0 1.85 1.837 1.751 1.751 0 0 0 1.407-.678 2.475 2.475 0 0 0 .56-1.629V4.664h1.407v7.5Zm4.573.248a3.323 3.323 0 0 1-2.528-1.16 4.144 4.144 0 0 1-1.042-2.827 4.144 4.144 0 0 1 1.042-2.827 3.364 3.364 0 0 1 4.039-.808 2.527 2.527 0 0 1 1.042.938h.065l-.065-1.042V1.225h1.407v10.957h-1.342V11.14h-.065a2.7 2.7 0 0 1-1.042.938 3.43 3.43 0 0 1-1.511.339m.222-1.29a2.117 2.117 0 0 0 1.694-.756 2.8 2.8 0 0 0 .691-1.954 2.809 2.809 0 0 0-.691-1.941 2.25 2.25 0 0 0-3.388 0 2.809 2.809 0 0 0-.691 1.941 2.764 2.764 0 0 0 .691 1.941 2.2 2.2 0 0 0 1.694.769" data-name="Path 15995"/>
    <path d="M6.332 7.362V5.668H12a6.084 6.084 0 0 1 .091 1.042 5.585 5.585 0 0 1-1.472 3.961 5.678 5.678 0 0 1-4.326 1.746A6.307 6.307 0 0 1 0 6.2 6.3 6.3 0 0 1 6.293 0a5.925 5.925 0 0 1 4.248 1.707l-1.2 1.2A4.341 4.341 0 0 0 6.28 1.694 4.438 4.438 0 0 0 1.837 6.2a4.446 4.446 0 0 0 4.443 4.51 4.151 4.151 0 0 0 3.127-1.238 3.572 3.572 0 0 0 .925-2.111Z" data-name="Path 15996"/>
    <path d="M20.73 8.417a4.013 4.013 0 1 1-4.013-4 3.947 3.947 0 0 1 4.013 4m-1.746 0a2.26 2.26 0 1 0-2.254 2.423 2.305 2.305 0 0 0 2.254-2.423" data-name="Path 15997"/>
    <path d="M29.485 8.417a4.013 4.013 0 1 1-4.013-4 3.947 3.947 0 0 1 4.013 4m-1.759 0a2.26 2.26 0 1 0-2.254 2.423 2.305 2.305 0 0 0 2.254-2.423" data-name="Path 15998"/>
    <path d="M37.863 4.665v7.179c0 2.945-1.746 4.156-3.792 4.156a3.815 3.815 0 0 1-3.544-2.358l1.524-.638a2.207 2.207 0 0 0 2.007 1.42 2.05 2.05 0 0 0 2.137-2.345v-.573h-.065a2.719 2.719 0 0 1-2.1.912 4 4 0 0 1 0-7.987 2.757 2.757 0 0 1 2.1.9h.065V4.68h1.668ZM36.326 8.43a2.252 2.252 0 0 0-2.137-2.436 2.432 2.432 0 0 0 0 4.847 2.236 2.236 0 0 0 2.137-2.411" data-name="Path 15999"/>
    <path d="M39.088.469h1.746v11.7h-1.746z" data-name="Rectangle 2779"/>
    <path d="m47.609 9.733 1.368.912a3.976 3.976 0 0 1-3.323 1.772 3.911 3.911 0 0 1-3.961-4 3.8 3.8 0 0 1 3.765-4 3.7 3.7 0 0 1 3.414 2.541l.182.456-5.342 2.215a2.02 2.02 0 0 0 1.941 1.212 2.26 2.26 0 0 0 1.954-1.107m-4.182-1.446 3.57-1.485a1.548 1.548 0 0 0-1.485-.847 2.2 2.2 0 0 0-2.085 2.332" data-name="Path 16000"/>
  </g>
</svg>
