<svg xmlns="http://www.w3.org/2000/svg" xml:space="preserve" viewBox="0 0 231.147 81.65"><defs><clipPath id="a" clipPathUnits="userSpaceOnUse"><path d="M0 61.238h173.36V0H0Z"/></clipPath></defs><g clip-path="url(#a)" transform="matrix(1.33333 0 0 -1.33333 0 81.65)"><path d="M0 0c-2.438 0-4.477.82-6.117 2.461-1.626 1.641-2.439 3.687-2.439 6.142 0 2.453.813 4.492 2.439 6.117 1.625 1.656 3.664 2.484 6.117 2.484 2.484 0 4.5-.896 6.049-2.691l-1.518-1.472C3.351 14.467 1.84 15.18 0 15.18c-1.824 0-3.35-.614-4.576-1.84-1.212-1.211-1.818-2.791-1.818-4.737 0-1.949.606-3.528 1.818-4.739C-3.35 2.638-1.824 2.024 0 2.024c1.917 0 3.58.805 4.991 2.415l1.541-1.495A7.981 7.981 0 0 0 3.657.771 8.76 8.76 0 0 0 0 0" style="fill:#5f6368;fill-opacity:1;fill-rule:nonzero;stroke:none" transform="translate(106.632 23.996)"/><path d="M116.997 24.364h-2.115v16.468h2.115z" style="fill:#5f6368;fill-opacity:1;fill-rule:nonzero;stroke:none"/><path d="M0 0c0-1.211.353-2.192 1.058-2.943.705-.752 1.58-1.127 2.623-1.127 1.042 0 1.916.375 2.621 1.127C7.007-2.192 7.36-1.211 7.36 0c0 1.196-.353 2.17-1.058 2.921-.721.767-1.594 1.15-2.621 1.15-1.028 0-1.903-.383-2.623-1.15C.353 2.17 0 1.196 0 0m-2.116 0c0 1.732.545 3.166 1.633 4.301C.621 5.436 2.009 6.003 3.681 6.003c1.671 0 3.05-.567 4.139-1.702C8.925 3.166 9.476 1.732 9.476 0c0-1.748-.551-3.182-1.656-4.301-1.089-1.135-2.468-1.702-4.139-1.702-1.672 0-3.06.567-4.164 1.702C-1.571-3.166-2.116-1.732-2.116 0" style="fill:#5f6368;fill-opacity:1;fill-rule:nonzero;stroke:none" transform="translate(120.937 29.998)"/><path d="M0 0h-2.024v1.564h-.092C-2.438 1.012-2.933.552-3.6.184a4.25 4.25 0 0 0-2.081-.552c-1.381 0-2.442.394-3.185 1.184-.744.79-1.116 1.913-1.116 3.37v7.084h2.116V4.324c.046-1.84.973-2.76 2.783-2.76.843 0 1.549.341 2.115 1.024.569.682.852 1.498.852 2.449v6.233H0Z" style="fill:#5f6368;fill-opacity:1;fill-rule:nonzero;stroke:none" transform="translate(142.109 24.364)"/><path d="M0 0c1.043 0 1.895.375 2.553 1.127.69.751 1.035 1.732 1.035 2.943 0 1.181-.345 2.155-1.035 2.921C1.879 7.758 1.027 8.142 0 8.142c-1.012 0-1.863-.384-2.553-1.151-.689-.766-1.035-1.74-1.035-2.921 0-1.195.346-2.17 1.035-2.921C-1.863.383-1.012 0 0 0m-.345-1.933c-1.471 0-2.737.583-3.795 1.748C-5.183.996-5.703 2.414-5.703 4.07c0 1.657.52 3.075 1.563 4.255 1.058 1.165 2.324 1.748 3.795 1.748.828 0 1.583-.176 2.266-.528.683-.354 1.208-.821 1.575-1.403h.092l-.092 1.563v5.198h2.116V-1.564H3.588V0h-.092c-.367-.583-.892-1.051-1.575-1.403a4.86 4.86 0 0 0-2.266-.53" style="fill:#5f6368;fill-opacity:1;fill-rule:nonzero;stroke:none" transform="translate(149.618 25.928)"/><path d="M0 0c-5.128 0-9.438 4.178-9.438 9.309 0 5.131 4.31 9.309 9.438 9.309 2.837 0 4.856-1.112 6.376-2.565l-1.792-1.794C3.495 15.28 2.02 16.075 0 16.075c-3.743 0-6.671-3.019-6.671-6.766S-3.743 2.543 0 2.543c2.428 0 3.813.976 4.697 1.861.726.727 1.202 1.772 1.384 3.201H-.066v2.544h8.621c.091-.454.135-.999.135-1.589 0-1.908-.521-4.269-2.201-5.95C4.856.908 2.769 0 0 0" style="fill:#4285f4;fill-opacity:1;fill-rule:nonzero;stroke:none" transform="translate(27.568 24)"/><path d="M0 0c0 2.157-1.563 3.633-3.377 3.633-1.813 0-3.377-1.476-3.377-3.633 0-2.135 1.564-3.633 3.377-3.633C-1.563-3.633 0-2.135 0 0m2.629 0c0-3.451-2.697-5.994-6.006-5.994S-9.383-3.451-9.383 0c0 3.474 2.697 5.994 6.006 5.994S2.629 3.474 2.629 0" style="fill:#ea4335;fill-opacity:1;fill-rule:nonzero;stroke:none" transform="translate(46.54 29.995)"/><path d="M0 0c0 2.157-1.564 3.633-3.377 3.633-1.813 0-3.377-1.476-3.377-3.633 0-2.135 1.564-3.633 3.377-3.633C-1.564-3.633 0-2.135 0 0m2.629 0c0-3.451-2.697-5.994-6.006-5.994S-9.383-3.451-9.383 0c0 3.474 2.697 5.994 6.006 5.994S2.629 3.474 2.629 0" style="fill:#fbbc04;fill-opacity:1;fill-rule:nonzero;stroke:none" transform="translate(59.613 29.995)"/><path d="M0 0c0 2.112-1.407 3.656-3.199 3.656-1.816 0-3.336-1.544-3.336-3.656 0-2.089 1.52-3.609 3.336-3.609C-1.407-3.609 0-2.089 0 0m2.314 5.654V-5.108c0-4.428-2.609-6.245-5.695-6.245-2.904 0-4.651 1.954-5.309 3.542l2.292.955c.408-.977 1.406-2.135 3.017-2.135 1.974 0 3.199 1.226 3.199 3.519v.864h-.09c-.59-.727-1.725-1.363-3.155-1.363-2.995 0-5.74 2.611-5.74 5.971 0 3.384 2.745 6.018 5.74 6.018 1.43 0 2.565-.636 3.155-1.34h.09v.976z" style="fill:#4285f4;fill-opacity:1;fill-rule:nonzero;stroke:none" transform="translate(72.432 29.971)"/><path d="M79.272 24.363H76.64v17.62h2.632z" style="fill:#34a853;fill-opacity:1;fill-rule:nonzero;stroke:none"/><path d="m0 0 5.355 2.225c-.294.75-1.179 1.271-2.223 1.271C1.793 3.496-.067 2.315 0 0m6.286-2.157L8.328-3.52c-.658-.976-2.247-2.656-4.992-2.656-3.403 0-5.945 2.634-5.945 5.994 0 3.565 2.564 5.994 5.65 5.994 3.108 0 4.629-2.474 5.128-3.814l.272-.682L.432-1.998c.612-1.204 1.565-1.816 2.904-1.816s2.269.658 2.95 1.657" style="fill:#ea4335;fill-opacity:1;fill-rule:nonzero;stroke:none" transform="translate(83.188 30.176)"/></g></svg>