<svg xmlns="http://www.w3.org/2000/svg" fill="none" viewBox="0 0 32 32"><path fill="url(#a)" d="M25.933 24.357A12.972 12.972 0 0 1 16 28.969a12.972 12.972 0 0 1-9.933-4.612l6.025-3.834A5.976 5.976 0 0 0 16 21.969a5.977 5.977 0 0 0 3.907-1.446l6.026 3.834Z"/><path fill="url(#b)" d="m27 22.902-5.907-3.759a6.001 6.001 0 0 0-4.193-9.107V3C23.66 3.462 29 9.092 29 15.97a12.94 12.94 0 0 1-2 6.932Z"/><path fill="url(#c)" d="M15.1 3C8.34 3.462 3 9.092 3 15.97c0 2.548.733 4.925 2 6.932l5.907-3.759a6.001 6.001 0 0 1 4.192-9.107V3Z"/><path fill="#AE82FC" fill-rule="evenodd" d="M19.558 13.286a.9.9 0 0 1-.044 1.272l-4.286 4a.9.9 0 0 1-1.228 0l-1.714-1.6a.9.9 0 0 1 1.228-1.316l1.1 1.027 3.672-3.427a.9.9 0 0 1 1.272.044Z" clip-rule="evenodd"/><defs><linearGradient id="a" x1="7.5" x2="20.926" y1="3" y2="28.987" gradientUnits="userSpaceOnUse"><stop stop-color="#BEA1FF"/><stop offset="1" stop-color="#8A36FF"/></linearGradient><linearGradient id="b" x1="7.5" x2="20.926" y1="3" y2="28.987" gradientUnits="userSpaceOnUse"><stop stop-color="#BEA1FF"/><stop offset="1" stop-color="#8A36FF"/></linearGradient><linearGradient id="c" x1="7.5" x2="20.926" y1="3" y2="28.987" gradientUnits="userSpaceOnUse"><stop stop-color="#BEA1FF"/><stop offset="1" stop-color="#8A36FF"/></linearGradient></defs></svg>