<svg xmlns="http://www.w3.org/2000/svg" fill="none" viewBox="0 0 32 32"><path fill="url(#a)" fill-rule="evenodd" d="M16.2 29.2c7.18 0 13-5.82 13-13s-5.82-13-13-13C9.811 3.2 4.5 7.808 3.406 13.882c1.386-.168 3.01-.282 4.194-.28 1.533.002 3.8.246 5.02.499a2.517 2.517 0 0 1 2.586-1.127c.592-1.24.957-1.985 2.045-3.535 1.133-1.614 3.549-2.632 3.549-2.24 0 .801-.07 1.809-1.2 3.6-.812 1.287-1.85 2.442-2.712 3.287.418.63.557 1.435.31 2.205-.09.282-.225.537-.394.759.625 1.217 1.265 2.713 1.849 4.078.19.443.373.872.548 1.273.799 1.829.72 4.969.4 4.798-.97-.514-2.51-2.308-3.2-3.998-.103-.252-.22-.532-.343-.83l-.001-.002c-.594-1.43-1.358-3.27-1.626-4.358a2.583 2.583 0 0 1-1.993-1.539l-.037-.002c-1.547-.093-3.225-.194-4.796-.418-1.165-.167-3.042-.807-4.323-1.325-.054.484-.082.975-.082 1.473 0 7.18 5.82 13 13 13Z" clip-rule="evenodd"/><defs><linearGradient id="a" x1="9.7" x2="22.7" y1="4.942" y2="27.458" gradientUnits="userSpaceOnUse"><stop stop-color="#62F91F"/><stop offset="1" stop-color="#45BD35"/></linearGradient></defs></svg>