<svg xmlns="http://www.w3.org/2000/svg" fill="none" viewBox="0 0 52 52"><path fill="url(#a)" fill-rule="evenodd" d="M29.205 6.94c.686-.505 1.43-.936 2.222-1.28L26.164.4l-5.84 5.837a8.252 8.252 0 0 0 0 11.675l.854.854a8.712 8.712 0 0 1 3.368-1.427v-1.186a11.416 11.416 0 0 1 4.66-9.212ZM18.072 20.164l.873.872a8.701 8.701 0 0 0-1.368 3.373h-1.313a8.257 8.257 0 0 1-8.211-8.255V7.898h7.454a11.437 11.437 0 0 0 2.565 12.265Zm-1.76 7.428H17.6a8.765 8.765 0 0 0 6.946 6.942v1.314c0 4.69 2.823 8.719 6.863 10.484L26.138 51.6l-5.84-5.837a8.256 8.256 0 0 1-1.405-9.808 1.591 1.591 0 1 0-2.791-1.531 11.464 11.464 0 0 0-.621 9.678H8.027v-8.255c0-4.55 3.683-8.241 8.232-8.256h.053Zm11.418 8.256v-1.29a8.764 8.764 0 0 0 7.073-6.966h1.187a8.257 8.257 0 0 1 8.259 8.256v8.255h-8.26a8.26 8.26 0 0 1-8.26-8.255Zm8.26-11.438h-1.164a8.701 8.701 0 0 0-1.409-3.434l.813-.812a8.263 8.263 0 0 1 11.68 0L51.75 26l-5.27 5.268a11.447 11.447 0 0 0-10.49-6.86Zm-4.012-6.497-.812.812a8.713 8.713 0 0 0-3.436-1.408v-1.163a8.257 8.257 0 0 1 8.26-8.255h8.259v7.45c-4.106-1.606-8.954-.752-12.27 2.564Zm-26.156 2.82a11.486 11.486 0 0 0 4.65 5.26 11.486 11.486 0 0 0-4.668 5.258L.55 26l5.27-5.268Zm25.953 5.204a5.572 5.572 0 0 0-5.573-5.57 5.572 5.572 0 0 0-5.573 5.57 5.572 5.572 0 0 0 5.573 5.57 5.572 5.572 0 0 0 5.573-5.57Z" clip-rule="evenodd"/><defs><linearGradient id="a" x1="42.963" x2="11.072" y1="45.924" y2=".385" gradientUnits="userSpaceOnUse"><stop stop-color="#5E2CE0"/><stop offset="1" stop-color="#A652F9"/></linearGradient></defs></svg>