<svg xmlns="http://www.w3.org/2000/svg" fill="none" viewBox="0 0 32 32"><path stroke="#05DBF3" stroke-width="1.5" d="m24.811 3.213 4.003 4.003M11 16l4.376 4.376"/><path fill="#05DBF3" d="m12.677 22.385-.53.53a.75.75 0 0 0 .877.135l-.347-.665ZM9.522 19.23l-.676-.325a.75.75 0 0 0 .146.855l.53-.53Zm6.795-10.192.549.511-.549-.511ZM29.665 2h.75v-.782l-.782.033.032.749Zm-5.34 12.62.511.549-.51-.55Zm-11.117 7.234L10.053 18.7l-1.06 1.06 3.154 3.155 1.06-1.06Zm-3.01-2.3c.952-1.983 4.02-7.168 6.668-10.005l-1.097-1.023c-2.788 2.987-5.933 8.318-6.923 10.38l1.353.649ZM16.867 9.55c3.343-3.582 7.295-6.569 12.83-6.8l-.063-1.498c-6.113.254-10.412 3.577-13.864 7.275l1.097 1.023ZM28.915 2c0 4.87-2.622 9.769-5.1 12.07l1.021 1.099c2.758-2.56 5.579-7.847 5.579-13.169h-1.5Zm-5.1 12.07c-3.324 3.087-7.04 5.331-11.485 7.65l.694 1.33c4.487-2.341 8.342-4.659 11.812-7.881l-1.02-1.1Z"/><path stroke="#05DBF3" stroke-linecap="round" stroke-linejoin="round" stroke-width="1.5" d="M13.405 12.678H9.522L5.397 17.53l4.125-1.213h1.457M18.987 18.745v3.883l-4.854 4.125 1.214-4.125V21.17"/><circle cx="22.142" cy="9.766" r="2.184" stroke="#05DBF3" stroke-width="1.5"/><path stroke="#05DBF3" stroke-linecap="round" stroke-linejoin="round" stroke-width="1.5" d="M6.148 21 1 26.148M9.657 22.142l-3.775 3.775M9.775 26 6 29.775"/></svg>