<svg xmlns="http://www.w3.org/2000/svg" fill="none" viewBox="0 0 40 35"><path fill="#7792F2" d="M6.708 0v12.939c0 7.147 5.79 12.938 12.938 12.938h.646c4.301 0 8.107-2.101 10.456-5.311a12.738 12.738 0 0 0 1.903-3.789c.38-1.208.58-2.498.58-3.838V0H6.707Z"/><path fill="#7792F2" d="M10.435 20.807c0 .015-.017.015-.017.03-5.09.32-7.72-1.739-9.052-3.695A7.813 7.813 0 0 1 0 12.775v-2.701c0-.453.051-.905.154-1.344 1.178-4.745 7.343-4.395 7.702-4.366V7.49l-.017-.029s-4.304-.307-4.218 3.475c-.035 1.373 0 1.957 0 1.957s-.479 4.396 4.782 4.673c.017-.044.034-.073.05-.117.445 1.227 1.128 2.351 1.982 3.359ZM29.565 20.807c0 .015.017.015.017.03 5.09.32 7.72-1.739 9.052-3.695A7.812 7.812 0 0 0 40 12.775v-2.701c0-.453-.051-.905-.154-1.344-1.178-4.745-7.343-4.395-7.702-4.366V7.49l.017-.029s4.304-.307 4.218 3.475c.035 1.373 0 1.957 0 1.957s.479 4.396-4.781 4.673c-.018-.044-.035-.073-.052-.117a11.357 11.357 0 0 1-1.98 3.359ZM17.678 25.45h4.881v6.635h-4.88V25.45ZM14.766 32.086h10.887a.35.35 0 0 1 .347.347v2.35H14.435v-2.35c-.017-.182.149-.347.33-.347Z"/><path fill="#F1C47E" d="m19.018 8.422-.91 1.836c-.149.315-.463.53-.81.58l-2.035.297c-.877.133-1.225 1.208-.596 1.82l1.472 1.44c.249.248.364.595.315.943l-.348 2.018a1.068 1.068 0 0 0 1.556 1.125l1.82-.96c.314-.165.678-.165.992 0l1.82.96c.778.414 1.704-.248 1.556-1.125l-.348-2.018c-.066-.348.05-.695.315-.943l1.472-1.44c.629-.612.281-1.704-.596-1.82l-2.035-.298a1.09 1.09 0 0 1-.81-.579l-.91-1.836a1.07 1.07 0 0 0-1.92 0Z"/></svg>