<svg xmlns="http://www.w3.org/2000/svg" fill="none" viewBox="0 0 40 41"><path fill="url(#a)" fill-rule="evenodd" d="M19.5 37c8.837 0 16-7.163 16-16s-7.163-16-16-16c-2.536 0-4.934.59-7.064 1.64l4.34 4.1a2.993 2.993 0 0 1 1.706-.532c1.687 0 3.054 1.399 3.054 3.124 0 .558-.142 1.08-.392 1.534l4.196 3.964c.391-.186.828-.29 1.287-.29 1.687 0 3.055 1.399 3.055 3.124 0 1.726-1.368 3.125-3.055 3.125s-3.054-1.399-3.054-3.125c0-.493.112-.96.31-1.375l-4.285-4.048c-.24.097-.495.163-.76.195l-2.27 10.93a3.14 3.14 0 0 1 1.405 2.63c0 1.726-1.368 3.125-3.055 3.125s-3.054-1.399-3.054-3.124c0-1.61 1.19-2.937 2.72-3.107l2.268-10.915a3.14 3.14 0 0 1-1.425-2.643c0-.315.046-.62.131-.907l-4.982-4.707C6.308 10.591 3.5 15.468 3.5 21c0 8.837 7.163 16 16 16Z" clip-rule="evenodd"/><defs><linearGradient id="a" x1="10.786" x2="28.214" y1="7.581" y2="34.419" gradientUnits="userSpaceOnUse"><stop stop-color="#FF7F77"/><stop offset="0" stop-color="#FD7A64"/><stop offset="1" stop-color="#E62D14"/></linearGradient></defs></svg>