<svg xmlns="http://www.w3.org/2000/svg" fill="none" viewBox="0 0 41 41"><path fill="url(#a)" fill-rule="evenodd" d="M5.107 14.694c-.417-3.1-.432-5.955-.232-8.208.05-.57.534-.99 1.106-.99h29.606c.602 0 1.101.48 1.124 1.081.756 20.148-9.676 29.18-15.465 31.388a1.056 1.056 0 0 1-.84-.046c-9.14-4.485-13.261-12.89-14.833-20.492l3.506.658a4.508 4.508 0 0 0 6.62 3.885l3 2.886.048.043a4.937 4.937 0 0 0 7.742 5.994 4.935 4.935 0 0 0-5.887-7.804 1.32 1.32 0 0 0-.1-.108l-2.956-2.842a4.518 4.518 0 0 0 .373-3.386l3.058-1.578a4.506 4.506 0 1 0-1.088-2.364l-3.384 1.746A4.507 4.507 0 0 0 9.78 15.57l-4.673-.877Zm9.825 1.947a1.906 1.906 0 1 0-2.696 2.696 1.906 1.906 0 0 0 2.696-2.696Zm8.073-5.799a1.906 1.906 0 1 1 2.696 2.696 1.906 1.906 0 0 1-2.696-2.696Zm1.645 14.911a2.335 2.335 0 1 0-3.301 3.302 2.335 2.335 0 0 0 3.301-3.302Z" clip-rule="evenodd"/><defs><linearGradient id="a" x1="12.036" x2="29.874" y1="8.121" y2="35.137" gradientUnits="userSpaceOnUse"><stop stop-color="#FF7F77"/><stop offset="0" stop-color="#FD7A64"/><stop offset="1" stop-color="#E62D14"/></linearGradient></defs></svg>