<svg xmlns="http://www.w3.org/2000/svg" fill="none" viewBox="0 0 41 40"><g clip-path="url(#a)"><path fill="url(#b)" fill-rule="evenodd" d="M5.463 6.905C5.463 5.853 6.316 5 7.368 5h26.19c1.052 0 1.905.853 1.905 1.905v5.428H20.886a4.192 4.192 0 0 0-8.248 1.048 4.19 4.19 0 0 0 8.248 1.048h14.577v18.666A1.905 1.905 0 0 1 33.558 35H7.368a1.905 1.905 0 0 1-1.905-1.905v-7.143h15.524v1.534a2.657 2.657 0 0 0 2.657 2.657h5.162a2.657 2.657 0 0 0 2.657-2.657v-5.163a2.657 2.657 0 0 0-2.657-2.656h-5.163a2.657 2.657 0 0 0-2.656 2.656v1.534H5.463V6.905Zm17.619 15.418c0-.31.251-.561.561-.561h5.163c.31 0 .562.251.562.561v5.163c0 .31-.252.562-.562.562h-5.163a.562.562 0 0 1-.561-.562v-5.163Zm-6.254-11.037a2.095 2.095 0 1 0 0 4.19 2.095 2.095 0 0 0 0-4.19Z" clip-rule="evenodd"/></g><defs><linearGradient id="b" x1="5.082" x2="41.225" y1="5" y2="43.238" gradientUnits="userSpaceOnUse"><stop stop-color="#00E9DB"/><stop offset="1" stop-color="#249789"/></linearGradient><clipPath id="a"><path fill="#fff" d="M5.463 5h30v30h-30z"/></clipPath></defs></svg>