<svg xmlns="http://www.w3.org/2000/svg" fill="none" viewBox="0 0 32 33"><path stroke="#05DBF3" stroke-linecap="round" stroke-linejoin="round" stroke-width="1.5" d="M20.422 4.834V1.887m0 2.947v2.947m0-2.947H13.89M3 13.676V26.94c0 .782.306 1.532.85 2.084a2.882 2.882 0 0 0 2.054.864H26.23c.77 0 1.508-.31 2.053-.864a2.97 2.97 0 0 0 .85-2.084V13.676M3 13.676h26.133M3 13.676V7.781c0-.781.306-1.53.85-2.084a2.882 2.882 0 0 1 2.054-.863h2.903m20.326 8.842V7.781a2.97 2.97 0 0 0-.85-2.084 2.882 2.882 0 0 0-2.053-.863h-.726M8.807 1.887V7.78"/></svg>