<svg xmlns="http://www.w3.org/2000/svg" fill="none" viewBox="0 0 32 32"><g stroke="#05DBF3" stroke-linecap="round" stroke-linejoin="round" clip-path="url(#a)"><path d="M16 20.801a4.8 4.8 0 1 0 0-9.6 4.8 4.8 0 0 0 0 9.6Z"/><path d="m28.196 13.433-1.757-4.241L28.8 6.4l-3.2-3.2-2.777 2.373-4.33-1.781L17.497 0H14.37l-1.011 3.842-4.232 1.784L6.4 3.2 3.2 6.4l2.325 2.862-1.729 4.252L0 14.4v3.2l3.842 1.049 1.783 4.23L3.2 25.6l3.2 3.2 2.866-2.335 4.17 1.715L14.4 32h3.2l.967-3.819 4.241-1.756c.707.505 2.792 2.375 2.792 2.375l3.2-3.2-2.375-2.801 1.757-4.242L32 17.564V14.4l-3.804-.967Z"/></g><defs><clipPath id="a"><path fill="#fff" d="M0 0h32v32H0z"/></clipPath></defs></svg>