<svg xmlns="http://www.w3.org/2000/svg" fill="none" viewBox="0 0 32 34"><path stroke="#05DBF3" stroke-linecap="round" stroke-linejoin="round" stroke-width="1.5" d="M30.285 17.61c0-7.396-6.976-13.709-14.808-13.363m0 0 2.403-1.759m-2.403 1.76 2.403 1.674M1.71 17.68c0 7.397 6.976 13.71 14.809 13.363m0 0-2.403 1.76m2.403-1.76-2.403-1.674"/><path fill="#05DBF3" d="m11.06 10.939.514-.547-.513.547ZM8.874 12.99l-.513.547.513-.547Zm0 9.308-.513-.547.513.547Zm2.189 2.052-.513-.547.513.547Zm9.927.002.513-.547-.513.547Zm2.188-2.052-.513.547.513-.547Zm.002-9.31-.513-.547.513.547Zm-2.188-2.052-.513-.547.513.547Zm-.203.19-.513-.547.513.547Zm-.614.066-.37.653.37-.653Zm2.253-.961-.513.547.513-.547Zm-.684 0 .513.547-.513-.547Zm2.142 2.096.512.547-.512-.547Zm0-.73-.514.547.514-.547Zm-.945 2.209-.633.4.633-.4Zm.075-.664.513.547-.513-.547Zm.79 2.61.723-.2-.723.2Zm0 3.783.722.2-.723-.2Zm.077 4.154-.513-.547.513.547Zm0-.73-.513.547.513-.547Zm-3.709 1.136-.37-.653.37.653Zm.614.066-.513.547.513-.547Zm-9.523-.002-.513-.547.513.547Zm.613-.066.37-.653-.37.653Zm-2.252.96-.513.548.513-.547Zm.684 0 .513.548-.513-.547ZM8.168 22.96l-.513-.547.513.547Zm0 .73-.513.547.513-.547Zm.944-2.209-.634.401.634-.4Zm-.074.664.513.547-.513-.547Zm0-8.999-.513.547.513-.547Zm.075.664-.634-.401.634.4Zm12.628 11.248-.513.547.513-.547Zm.684 0 .513.547-.513-.547ZM8.167 11.6l-.513-.547.513.547Zm0 .73-.513.547.513-.547Zm5.95-2-.168-.732.167.732Zm-3.808-.097-.513.547.513-.547Zm-2.06 9.305-.722.2.723-.2Zm9.69 5.425.166.73-.167-.73Zm-6.06-13.767-.37-.653.37.653Zm-.614-.066.513-.547-.513.547Zm11.75 11.018.512-.547-.513.547Zm-.075-.663.633.4-.633-.4Zm-14.69-5.73-.723-.2.723.2Zm5.866 9.208.168-.731-.168.73Zm2.661-16.35v1h1.5v-1h-1.5Zm-1.75.25h2v-1.5h-2v1.5Zm.25.75v-1h-1.5v1h1.5Zm0 .214v-.214h-1.5v.214h1.5Zm-3.029 2.021a7.54 7.54 0 0 1 2.036-.787l-.335-1.463c-.87.2-1.691.521-2.44.945l.74 1.306Zm-1.7-.362.204.191 1.026-1.094-.204-.191-1.026 1.094Zm-.752-.706.752.706 1.026-1.094-.752-.706-1.026 1.095ZM8.68 12.148l1.458-1.367-1.026-1.094-1.458 1.367 1.026 1.094Zm.706.297-.706-.662-1.026 1.095.706.661 1.026-1.094Zm.165.155-.165-.155-1.026 1.094.165.155L9.551 12.6Zm-.578 3.355c.17-.619.433-1.204.774-1.743l-1.268-.802a7.989 7.989 0 0 0-.952 2.146l1.446.399Zm-1.515.942h.292v-1.5h-.292v1.5Zm-1 0h1v-1.5h-1v1.5Zm.25 1.75v-2h-1.5v2h1.5Zm.75-.25h-1v1.5h1v-1.5Zm.292 0h-.292v1.5h.292v-1.5Zm1.996 2.684a6.488 6.488 0 0 1-.773-1.741l-1.446.399c.21.764.534 1.485.951 2.144l1.268-.802Zm-.36 1.767.165-.155-1.026-1.094-.165.154 1.026 1.095Zm-.705.66.705-.66-1.026-1.095-.705.661 1.026 1.095Zm1.457 1.002-1.457-1.366-1.026 1.094 1.457 1.367 1.026-1.095Zm.41-.705-.752.705 1.026 1.095.753-.706-1.026-1.094Zm.203-.19-.202.19 1.026 1.094.202-.19-1.026-1.093Zm3.533.618a7.536 7.536 0 0 1-2.037-.789l-.74 1.305c.75.425 1.57.747 2.442.946l.335-1.462Zm.993 1.447v-.214h-1.5v.214h1.5Zm0 1v-1h-1.5v1h1.5Zm1.75-.25h-2v1.5h2v-1.5Zm-.25-.75v1h1.5v-1h-1.5Zm0-.214v.214h1.5v-.214h-1.5Zm3.027-2.02a7.538 7.538 0 0 1-2.033.787l.334 1.462a9.04 9.04 0 0 0 2.438-.944l-.74-1.305Zm1.698.36-.202-.188-1.026 1.094.202.19 1.026-1.095Zm.752.706-.752-.705-1.026 1.094.752.705 1.026-1.094Zm1.115-1.366-1.457 1.366 1.026 1.094 1.457-1.366-1.026-1.094Zm-.705-.297.705.661 1.026-1.094-.705-.661-1.026 1.094Zm-.163-.152.163.152 1.026-1.094-.163-.153-1.026 1.095Zm.58-3.357a6.487 6.487 0 0 1-.775 1.745l1.267.802c.419-.66.743-1.382.954-2.148l-1.446-.4Zm1.514-.942h-.29v1.5h.29v-1.5Zm1 0h-1v1.5h1v-1.5Zm-.25-1.75v2h1.5v-2h-1.5Zm-.75.25h1v-1.5h-1v1.5Zm-.29 0h.29v-1.5h-.29v1.5Zm-1.998-2.687c.341.539.604 1.125.775 1.744l1.446-.4a7.99 7.99 0 0 0-.954-2.147l-1.267.803Zm.36-1.766-.165.154 1.026 1.094.164-.154-1.026-1.094Zm.704-.662-.705.662 1.026 1.094.705-.661-1.025-1.095Zm-1.457-1.001 1.457 1.366 1.026-1.094-1.457-1.367-1.026 1.095Zm-.41.705.752-.705-1.026-1.095-.752.706 1.026 1.094Zm-.203.19.203-.19-1.026-1.094-.203.19 1.026 1.094Zm-3.53-.615a7.537 7.537 0 0 1 2.034.787l.739-1.306a9.037 9.037 0 0 0-2.439-.944l-.334 1.463Zm-.994-1.448v.214h1.5v-.214h-1.5Zm3.045 7.995c0 1.908-1.665 3.536-3.822 3.536v1.5c2.893 0 5.322-2.21 5.322-5.036h-1.5ZM16 14.072c2.157 0 3.822 1.628 3.822 3.536h1.5c0-2.826-2.43-5.036-5.322-5.036v1.5Zm-3.821 3.536c0-1.908 1.664-3.536 3.821-3.536v-1.5c-2.893 0-5.321 2.21-5.321 5.036h1.5ZM16 21.144c-2.157 0-3.821-1.628-3.821-3.536h-1.5c0 2.826 2.428 5.036 5.321 5.036v-1.5Zm4.275-10.562a.23.23 0 0 1 .269-.04l-.74 1.306a1.271 1.271 0 0 0 1.497-.172l-1.026-1.094Zm2.665-.896a1.25 1.25 0 0 0-1.71 0l1.026 1.095a.25.25 0 0 1-.342 0l1.026-1.095Zm1.457 3.19a1.25 1.25 0 0 0 0-1.823l-1.025 1.094a.25.25 0 0 1 0-.364l1.025 1.094Zm-.823.531a.226.226 0 0 1-.046.285l-1.026-1.094a1.275 1.275 0 0 0-.195 1.612l1.267-.803Zm.73 1.99c.127 0 .203.085.224.158l-1.446.399c.145.527.625.942 1.223.942v-1.5Zm2.541 1.25c0-.69-.56-1.25-1.25-1.25v1.5a.25.25 0 0 1-.25-.25h1.5Zm-1.25 3.25c.69 0 1.25-.56 1.25-1.25h-1.5a.25.25 0 0 1 .25-.25v1.5Zm-1.068-.159a.225.225 0 0 1-.223.159v-1.5c-.597 0-1.077.414-1.223.942l1.446.399Zm-.132 4.5a1.25 1.25 0 0 0 0-1.823L23.37 23.51a.25.25 0 0 1 0-.364l1.026 1.094Zm-3.852.512a.23.23 0 0 1-.27-.04l1.027-1.093a1.271 1.271 0 0 0-1.496-.172l.739 1.305Zm-3.516 3.18c.69 0 1.25-.56 1.25-1.25h-1.5a.25.25 0 0 1 .25-.25v1.5Zm-5.25-3.221a.23.23 0 0 1-.27.04l.74-1.306a1.271 1.271 0 0 0-1.496.171l1.026 1.095Zm-2.665.895c.481.45 1.23.45 1.71 0l-1.026-1.095a.25.25 0 0 1 .342 0l-1.026 1.095Zm-1.457-3.19a1.25 1.25 0 0 0 0 1.823l1.026-1.094a.25.25 0 0 1 0 .365l-1.026-1.095Zm.823-.532a.226.226 0 0 1 .047-.284l1.026 1.094a1.275 1.275 0 0 0 .195-1.611l-1.268.801Zm-3.27-3.236c0 .69.56 1.25 1.25 1.25v-1.5a.25.25 0 0 1 .25.25h-1.5Zm3.317-4.953a.226.226 0 0 1-.046-.284l1.268.802a1.275 1.275 0 0 0-.196-1.612l-1.026 1.094Zm12.703 11.912a1.25 1.25 0 0 0 1.71 0l-1.026-1.094a.25.25 0 0 1 .342 0l-1.026 1.094ZM7.654 11.053a1.25 1.25 0 0 0 0 1.824l1.026-1.095a.25.25 0 0 1 0 .365l-1.026-1.094Zm6.123-1.226c0-.13.09-.21.172-.229l.335 1.463c.555-.127.993-.62.993-1.234h-1.5Zm-2.955-.14a1.25 1.25 0 0 0-1.71 0l1.026 1.094a.25.25 0 0 1-.342 0l1.026-1.095Zm-4.364 5.71c-.69 0-1.25.56-1.25 1.25h1.5a.25.25 0 0 1-.25.25v-1.5Zm7.32 11.282c0 .69.559 1.25 1.25 1.25v-1.5a.25.25 0 0 1 .25.25h-1.5Zm1.25-19.316c-.691 0-1.25.56-1.25 1.25h1.5a.25.25 0 0 1-.25.25v-1.5ZM7.75 19.897a.226.226 0 0 1-.223-.159l1.446-.4a1.275 1.275 0 0 0-1.223-.942v1.5Zm10.527 5.568c0 .13-.09.21-.172.229l-.334-1.462c-.556.127-.994.619-.994 1.233h1.5ZM11.51 10.543a.23.23 0 0 1 .269.04l-1.026 1.094c.42.395 1.03.435 1.496.171l-.74-1.305Zm12.018 11.058c.1.093.09.216.046.285l-1.267-.802a1.275 1.275 0 0 0 .195 1.612l1.026-1.095Zm-16-6.046a.226.226 0 0 1 .223-.159v1.5c.598 0 1.077-.415 1.223-.942l-1.446-.4Zm6.422 10.139a.23.23 0 0 1-.172-.229h1.5c0-.614-.438-1.106-.993-1.233l-.335 1.462Zm4.156-16.095a.23.23 0 0 1 .172.228h-1.5c0 .614.438 1.107.994 1.234l.334-1.463Zm.172-.986c0-.69-.56-1.25-1.25-1.25v1.5a.25.25 0 0 1-.25-.25h1.5Z"/></svg>