<svg xmlns="http://www.w3.org/2000/svg" fill="none" viewBox="0 0 33 33"><path fill="#05DBF3" d="m9.073 5.75-.352.354.352-.355Zm-3.55 3.52.352-.356-.352.355ZM3.5 19.1v-.5.5Zm2.025 4.83-.352-.354.352.355Zm3.552 3.52.352.356-.352-.356Zm14.787.003-.352.355.352-.355Zm3.55-3.52-.351.355.352-.355Zm.007-14.664.352.355-.352-.355ZM23.87 5.75l.352.356-.352-.356Zm-.472.468.352.355-.352-.355Zm-.628.07.258-.428-.258.428Zm3.227-1.949.352-.355-.352.355Zm-.704 0-.352-.355.352.355Zm3.545 3.526.352.356-.352-.356Zm0-.71.352-.355-.352.355Zm-1.956 3.212.426-.26-.426.26Zm.071-.633.352.355-.352-.355Zm1.326 3.973.485-.121-.485.12Zm0 5.788.485.121-.485-.12Zm.553 6.554-.352-.355.352.355Zm0-.71.352-.355-.352.355Zm-6.067 1.576.257.43-.257-.43Zm.627.07.352-.354-.352.355Zm-13.217-.071-.257.428.257-.428ZM6.95 28.86l.352-.355-.352.355Zm.704 0 .352.356-.352-.355Zm-3.545-3.526-.352-.355.352.355Zm0 .71.352-.354-.352.355Zm1.883-2.576.352.355-.352-.355ZM1.5 19.1v-.5.5Zm4.49-9.368.352-.355-.352.355Zm.07.634-.426-.26.427.26Zm19.227 18.499.352-.355-.352.355Zm.704 0-.352-.355.352.355ZM4.105 7.155l-.352-.356.352.355ZM7.65 4.337l.352-.355-.352.355Zm11.717 23.97.118.486-.118-.486Zm-9.195-22.02-.257-.43.258.43Zm-.627-.071-.352.355.352-.355ZM26.95 23.472l.352-.355-.351.355Zm-.07-.634.426.26-.427-.26Zm-13.306 5.47.118-.486-.118.485ZM19.367 4.89l-.117.486.117-.486Zm-.897-3.146v2h1v-2h-1Zm-4 0h4v-1h-4v1Zm0 2v-2h-1v2h1Zm0 .65v-.65h-1v.65h1Zm-4.04 2.322a11.65 11.65 0 0 1 3.26-1.339l-.235-.972a12.649 12.649 0 0 0-3.54 1.454l.515.857Zm-1.709-.612.472.468.704-.71-.472-.468-.704.71Zm-1.423-1.41 1.423 1.41.704-.71-1.423-1.411-.704.71Zm-2.84 2.815 2.84-2.816-.704-.71-2.84 2.816.703.71Zm1.417 1.405L4.457 7.51l-.704.71L5.17 9.624l.705-.71Zm.467.463-.467-.463-.705.71.468.463.704-.71Zm-1.193 4.45c.284-1.143.74-2.22 1.339-3.2l-.854-.521a12.423 12.423 0 0 0-1.456 3.479l.97.241ZM3.5 14.6h.668v-1H3.5v1Zm-2 0h2v-1h-2v1Zm0 4v-4h-1v4h1Zm2 0h-2v1h2v-1Zm.668 0H3.5v1h.668v-1Zm2.321 3.974a11.422 11.422 0 0 1-1.34-3.2l-.97.241c.309 1.244.805 2.414 1.457 3.48l.853-.52Zm-.612 1.712.466-.462-.704-.71-.466.462.704.71ZM4.46 25.69l1.417-1.405-.704-.71-1.417 1.404.704.71Zm2.841 2.815L4.46 25.691l-.704.71 2.841 2.816.704-.71Zm1.424-1.41L7.3 28.505l.704.71 1.424-1.41-.704-.71Zm.471-.468-.471.467.704.71.471-.467-.704-.71Zm4.495 1.194a11.648 11.648 0 0 1-3.258-1.338l-.515.857a12.648 12.648 0 0 0 3.537 1.452l.236-.971Zm.78 1.634v-.652h-1v.652h1Zm0 2v-2h-1v2h1Zm4 0h-4v1h4v-1Zm0-2v2h1v-2h-1Zm0-.652v.652h1v-.652h-1Zm4.036-2.318c-.998.6-2.093 1.054-3.257 1.336l.235.972c1.264-.306 2.454-.8 3.537-1.45l-.515-.858Zm1.71.612-.473-.468-.704.71.472.468.704-.71Zm1.422 1.412-1.423-1.412-.704.71 1.423 1.412.704-.71Zm2.841-2.817-2.84 2.816.703.71 2.841-2.816-.704-.71Zm-1.417-1.405 1.417 1.405.704-.71-1.417-1.405-.704.71Zm-.465-.461.465.461.704-.71-.465-.461-.704.71Zm1.196-4.453a11.42 11.42 0 0 1-1.342 3.203l.853.522a12.426 12.426 0 0 0 1.46-3.484l-.971-.241Zm1.649-.774h-.668v1h.668v-1Zm2 0h-2v1h2v-1Zm0-4v4h1v-4h-1Zm-2 0h2v-1h-2v1Zm-.668 0h.668v-1h-.668v1Zm-2.32-3.973c.6.98 1.055 2.057 1.339 3.2l.97-.242a12.424 12.424 0 0 0-1.456-3.48l-.853.522Zm.614-1.713-.468.463.704.71.468-.463-.704-.71Zm1.417-1.405L27.07 8.914l.704.71L29.19 8.22l-.704-.71Zm-2.84-2.815 2.84 2.815.704-.71-2.84-2.816-.705.71Zm-1.424 1.41 1.423-1.41-.704-.71-1.423 1.41.704.71Zm-.473.468.473-.467-.704-.71-.472.467.704.71Zm-4.5-1.196c1.167.283 2.264.74 3.264 1.34l.515-.857a12.648 12.648 0 0 0-3.543-1.455l-.235.972Zm-.779-1.632v.65h1v-.65h-1Zm5.54 12.886c0 4.137-3.4 7.503-7.61 7.503v1c4.75 0 8.61-3.801 8.61-8.503h-1ZM16.4 9.127c4.21 0 7.61 3.365 7.61 7.503h1c0-4.702-3.86-8.503-8.61-8.503v1ZM8.793 16.63c0-4.138 3.4-7.503 7.609-7.503v-1c-4.748 0-8.609 3.8-8.609 8.503h1Zm7.609 7.503c-4.208 0-7.609-3.366-7.609-7.503h-1c0 4.702 3.86 8.503 8.609 8.503v-1Zm6.645-18.27h-.003c-.004 0-.01 0-.015-.004l-.515.857c.389.234.9.19 1.236-.144l-.703-.71Zm3.303-1.88a1 1 0 0 0-1.408 0l.704.71.704-.71ZM29.19 8.22a1 1 0 0 0 0-1.421l-.704.71.704.71Zm-1.882 1.886a.025.025 0 0 1-.003-.015v-.003l-.704-.71c-.34.337-.386.857-.146 1.25l.854-.522Zm1.467 3.494-.002-.002a.026.026 0 0 1-.009-.013l-.97.241c.11.442.505.774.981.774v-1Zm3.668 1a1 1 0 0 0-1-1v1h1Zm-1 5a1 1 0 0 0 1-1h-1v1Zm-2.679.015a.025.025 0 0 1 .008-.013l.003-.002v-1c-.476 0-.871.332-.981.774l.97.241Zm.42 6.789a1 1 0 0 0 0-1.42l-.704.71.704.71Zm-6.162.94a.025.025 0 0 1 .015-.005l.003.001.704-.71a1.014 1.014 0 0 0-1.237-.144l.515.857Zm-4.552 5.112a1 1 0 0 0 1-1h-1v1ZM9.9 27.338h.003c.004 0 .009 0 .015.003l.515-.857c-.39-.234-.9-.19-1.237.144l.704.71Zm-3.303 1.879a1 1 0 0 0 1.408 0l-.704-.71-.704.71ZM3.756 24.98a1 1 0 0 0 0 1.42l.704-.71-.704-.71Zm1.88-1.884a.025.025 0 0 1 .004.015v.003l.703.71c.341-.338.386-.858.146-1.25l-.853.522ZM.5 18.6a1 1 0 0 0 1 1v-1h-1Zm5.138-8.513v.003c0 .004 0 .01-.004.016l.854.52c.24-.391.194-.91-.146-1.249l-.704.71ZM24.934 29.22a1 1 0 0 0 1.409 0l-.705-.71-.704.71ZM3.753 6.8a1 1 0 0 0 0 1.42l.704-.71-.704-.71Zm9.717-2.405-.001.002a.024.024 0 0 1-.014.008l.236.972c.445-.108.78-.504.78-.982h-1Zm-5.468-.412a1 1 0 0 0-1.408 0l.704.71.704-.71ZM1.5 13.6a1 1 0 0 0-1 1h1v-1Zm11.97 17.856a1 1 0 0 0 1 1v-1h-1Zm1-30.712a1 1 0 0 0-1 1h1v-1ZM4.168 19.6l.002.002a.025.025 0 0 1 .009.013l.97-.241a1.015 1.015 0 0 0-.981-.774v1Zm15.302 9.204.002-.002a.025.025 0 0 1 .013-.008l-.235-.972c-.445.108-.78.504-.78.982h1ZM9.915 5.86a.024.024 0 0 1-.015.004l-.003-.001-.704.71c.336.334.848.378 1.237.144l-.515-.857Zm17.387 17.258-.001-.003c0-.004 0-.01.004-.015l-.853-.522c-.24.392-.196.912.145 1.25l.704-.71ZM4.178 13.585a.025.025 0 0 1-.008.013.007.007 0 0 1-.002.002v1c.475 0 .87-.332.98-.774l-.97-.241Zm9.277 15.208c.007.002.011.005.014.008a.007.007 0 0 1 .001.003h1c0-.478-.334-.875-.78-.982l-.235.971Zm6.03-24.389a.024.024 0 0 1-.013-.007l-.002-.003h-1c0 .478.335.875.78.982l.235-.972Zm-.015-2.66a1 1 0 0 0-1-1v1h1Z"/><path stroke="#05DBF3" stroke-linecap="round" stroke-linejoin="round" d="m12.102 19.395.496-5.71a.333.333 0 0 1 .101-.213.307.307 0 0 1 .212-.085h7.211a.302.302 0 0 1 .232.106.333.333 0 0 1 .08.25l-.465 5.354a.334.334 0 0 1-.1.212.306.306 0 0 1-.212.086h-7.555Zm0 0-.314 3.277"/></svg>