<svg xmlns="http://www.w3.org/2000/svg" fill="none" viewBox="0 0 32 33"><path fill="#05DBF3" d="M3.2 1.727v-.75a.75.75 0 0 0-.75.75h.75Zm0 27.972h-.75a.75.75 0 0 0 1.098.664L3.2 29.7Zm11.863-6.204.342-.668-.346-.176-.343.18.347.664ZM27.2 29.7l-.341.668a.75.75 0 0 0 1.091-.668h-.75Zm0-27.972h.75a.75.75 0 0 0-.75-.75v.75Zm-24.75 0v27.972h1.5V1.727h-1.5Zm1.098 28.636L15.41 24.16l-.695-1.33-11.863 6.204.695 1.33Zm11.174-6.2 12.137 6.204.683-1.336-12.137-6.204-.683 1.336Zm13.228 5.536V1.727h-1.5v27.972h1.5ZM27.2.977h-24v1.5h24v-1.5Z"/></svg>