<svg xmlns="http://www.w3.org/2000/svg" fill="none" viewBox="0 0 33 32"><path stroke="#05DBF3" stroke-linejoin="round" d="M29.17 8.583v14.591c0 .189-.1.363-.263.46l-12.44 7.365M29.168 8.583 16.466 16.18M29.17 8.583 26.026 6.68M16.466 31 4.135 23.633a.533.533 0 0 1-.26-.458V8.583m12.591 22.416V16.181M3.875 8.583 16.32 1.136c.17-.102.381-.101.55.001l2.869 1.737M3.875 8.583l12.591 7.598"/><path fill="#05DBF3" d="M20.587 6.116v.267a.267.267 0 0 0 .26-.213l-.26-.054Zm-3.073 0-.205-.17a.266.266 0 0 0 .205.437v-.267Zm4.083-4.878.26.054a.267.267 0 0 0-.465-.225l.205.171Zm-1.409 9.602-.26-.061a.267.267 0 0 0 .463.234l-.203-.173Zm5.568-6.538.203.173a.267.267 0 0 0-.203-.44v.267Zm-4.028 0v-.267a.267.267 0 0 0-.26.206l.26.061ZM20.586 5.85h-3.072v.533h3.073V5.85Zm.75-4.666-1.01 4.878.522.108 1.01-4.878-.522-.108Zm-3.618 5.104 4.083-4.879-.409-.342-4.083 4.878.41.343Zm2.673 4.725 5.568-6.538-.406-.346-5.568 6.538.406.346Zm1.077-6.772-1.54 6.538.52.122 1.54-6.538-.52-.122Zm4.288-.206h-4.028v.534h4.028v-.534Z"/></svg>