<svg xmlns="http://www.w3.org/2000/svg" xmlns:xlink="http://www.w3.org/1999/xlink" fill="#fff" fill-rule="evenodd" stroke="#000" stroke-linecap="round" stroke-linejoin="round" viewBox="0 0 74.375 85"><style>.B{fill:#5294cf}.C{fill:#205b99}.D{fill:#99bce3}</style><use xlink:href="#A" x="2.188" y="2.5"/><symbol id="A" overflow="visible"><g stroke="none"><path d="m49.788 48.888 8.593.781L70 47.825V36.049l-11.619-.917-8.593.38v13.376z" class="C"/><path fill="#19486f" d="m70 28.361-35 3.395-35-3.395L35 0l35 28.361z"/><path d="m52.495 51.708 11.577 14.42L70 51.639l-11.001-1.073-6.504 1.142z" class="D"/><path d="m52.495 51.707 11.763 1.356v13.063l-11.763-2.702V51.707z" class="C"/><path d="m39.899 53.786 12.699 17.922 8.161-17.883-12.226-1.541-8.634 1.502z" class="D"/><path d="m39.899 53.785 12.596 1.951v15.971l-12.596-3.922v-14z" class="C"/><path d="m70 28.361-35-8.273V0l35 16.585v11.776z" class="B"/><path d="M17.495 51.708 5.917 66.127 0 51.639l10.991-1.073 6.504 1.142z" class="D"/><path d="M17.495 51.707 5.732 53.063v13.063l11.763-2.702V51.707z" class="B"/><path d="M30.101 53.786 17.402 71.707 9.241 53.825l12.226-1.541 8.634 1.502z" class="D"/><path d="m30.102 53.785-12.606 1.951v15.971l12.607-3.922v-14z" class="B"/><path d="M47.73 56.897 35 54.673l-12.73 2.224L35 80l12.73-23.102z" class="D"/><path d="M47.73 56.898 35 59.903V80l12.73-6.039V56.898z" class="B"/><path d="M5.732 52.995 0 51.639v11.776l5.732 2.712V52.995zm3.509.829 8.254 1.951v15.932l-8.254-3.922V53.824z" class="C"/><path d="M64.258 52.995 70 51.639v11.776l-5.742 2.712V52.995zm-3.499.829-8.264 1.951v15.932l8.264-3.922V53.824z" class="B"/><path d="m0 28.361 35-8.273V0L0 16.585v11.776zm22.27 28.537L35 59.903V80l-12.73-6.039V56.898z" class="C"/><path d="m70 36.049-11.619-.917v14.546L70 47.825V36.049z" class="B"/><path d="m0 36.049 11.619-.917 8.593.38v13.376l-8.593.79L0 47.825V36.049z" class="C"/><path d="m20.212 48.888-8.593.781V35.132l8.593.38v13.376z" class="B"/><path d="M17.495 34.683 35 33.317l17.495 1.366v15.932L35 53.395l-17.505-2.78V34.683z" class="C"/><path d="M52.495 34.683 35 33.317v20.078l17.495-2.78V34.683z" class="B"/></g></symbol></svg>