<svg xmlns="http://www.w3.org/2000/svg" xmlns:xlink="http://www.w3.org/1999/xlink" fill="#fff" fill-rule="evenodd" stroke="#000" stroke-linecap="round" stroke-linejoin="round" viewBox="0 0 63.75 85"><use xlink:href="#a" x="1.875" y="2.5"/><symbol id="a" overflow="visible"><g stroke="none"><path fill="#4f4f4f" d="M38.415 3.526c2.425 0 4.39 1.91 4.39 4.266L60 71.78v3.953C60 78.09 58.034 80 55.61 80H4.39c-1.164 0-2.281-.449-3.104-1.249S0 76.865 0 75.734v-3.569L19.302 7.806c0-2.356 1.966-4.266 4.39-4.266z"/><path fill="#7d7c7c" d="M55.61 0C58.034 0 60 1.91 60 4.266v67.899c0 2.356-1.966 4.266-4.39 4.266H4.39c-1.164 0-2.281-.45-3.104-1.249S0 73.296 0 72.165V4.28C0 1.924 1.966.014 4.39.014z"/><path d="M40.449 9.684h12.146v4.735H40.449zm-16.654 0h12.146v4.735H23.795zm-16.639 0h12.146v4.735H7.156zm0 8.19h12.146v4.749H7.156zm.073 8.176h12.146v4.75H7.229zm12.176 8.191v4.749H7.258v-4.749zM7.258 42.432h12.146v4.693H7.258zm12.22 12.94H7.332v-4.764h12.146zm4.317-37.483h12.146v4.749H23.795zm.073 8.176h12.146v4.749H23.868zm12.176 8.191v4.749H23.897v-4.764zm-12.146 8.191h12.146v4.678H23.897zm12.234 12.94H23.985v-4.778h12.146zm4.39-37.483h12.146v4.749H40.522zm.073 8.176h12.146v4.749H40.595zm12.176 8.191v4.749H40.624v-4.778zM40.624 42.46H52.77v4.664H40.624zM52.858 55.4H40.624v-4.792h12.161z"/></g></symbol></svg>