<svg xmlns="http://www.w3.org/2000/svg" xmlns:xlink="http://www.w3.org/1999/xlink" fill="#fff" fill-rule="evenodd" stroke="#000" stroke-linecap="round" stroke-linejoin="round" viewBox="0 0 85 85"><use xlink:href="#a" x="2.5" y="2.5"/><symbol id="a" overflow="visible"><g stroke="none"><path fill="#9d5125" d="M0 17.558h80v-2.731L40 3.971 0 14.828v2.731z"/><path fill="#f58535" d="M0 0h80v14.827H0z"/><path fill="#9d5125" d="M0 38.368h80v-2.72L40 24.781 0 35.649v2.72z"/><path fill="#f58535" d="M0 20.811h80v14.827H0z"/><path fill="#9d5125" d="M0 59.189h80v-2.731L40 45.602 0 56.459v2.731z"/><path fill="#f58535" d="M0 41.632h80v14.827H0z"/><path fill="#9d5125" d="M0 80h80v-2.72L40 66.413 0 77.281V80z"/><path fill="#f58535" d="M0 62.442h80v14.827H0z"/><path d="M15.408 3.122h61.569v8.572H15.408zM3.023 23.933h61.569v8.572H3.023zm12.385 20.821h61.569v8.572H15.408zM3.023 65.564h61.569v8.572H3.023z"/></g></symbol></svg>