<svg xmlns="http://www.w3.org/2000/svg" xmlns:xlink="http://www.w3.org/1999/xlink" fill="#fff" fill-rule="evenodd" stroke="#000" stroke-linecap="round" stroke-linejoin="round" viewBox="0 0 85 85"><use xlink:href="#a" x="2.5" y="2.5"/><symbol id="a" overflow="visible"><g stroke="none"><path fill="#7d7c7c" d="M80 35.558v3.647c0 6.643-7.243 13.503-16.154 13.503h-47.68c-8.912 0-16.154-6.86-16.154-13.503v-3.647z"/><path fill="#d2d3d3" d="M30.799 0c8.029-.013 15.322 4.71 18.641 12.074 3.116-2.145 7.141-2.416 10.513-.71s5.558 5.122 5.709 8.919C73.722 20.958 80 28.79 80 35.009v1.349c0 6.689-7.243 13.469-16.188 13.469H16.166C7.243 49.827 0 43.047 0 36.358V35.02c0-5.157 4.303-12.245 10.353-14.006v-.583c.021-5.44 2.187-10.649 6.021-14.481S25.398-.021 30.799 0z"/><path d="M22.421 37.17h9.093v12.668h-9.093z"/><path d="M15.632 40.508 26.973 20.74l11.33 19.768H15.632z"/><path fill="#7d7c7c" d="M59.555 60.232 48.214 80l-11.33-19.768v-2.836h22.671v2.836z"/><g fill="#d2d3d3"><path d="M43.673 30.425h9.093v30.31h-9.093z"/><path d="M59.555 57.396 48.214 77.164l-11.33-19.768h22.671z"/></g></g></symbol></svg>