<svg xmlns="http://www.w3.org/2000/svg" xmlns:xlink="http://www.w3.org/1999/xlink" fill="#fff" fill-rule="evenodd" stroke="#000" stroke-linecap="round" stroke-linejoin="round" viewBox="0 0 85 58.438"><use xlink:href="#a" x="2.5" y="1.719"/><symbol id="a" overflow="visible"><g stroke="none"><path fill="#7d7c7c" d="M80 37.104v3.806C80 47.842 72.757 55 63.845 55h-47.68C7.254 55 .011 47.842.011 40.91v-3.806z"/><path fill="#d2d3d3" d="M30.799 0c8.029-.014 15.322 4.915 18.641 12.599 3.115-2.238 7.141-2.521 10.513-.741s5.558 5.345 5.709 9.307C73.722 21.869 80 30.041 80 36.531v1.408c0 6.979-7.243 14.054-16.188 14.054H16.166C7.243 51.994 0 44.919 0 37.939v-1.396c0-5.381 4.303-12.777 10.353-14.615v-.608c.021-5.677 2.187-11.112 6.021-15.11S25.398-.022 30.799 0z"/><path d="M47.77 45.229a2.22 2.22 0 0 1-1.601-.704 8.43 8.43 0 0 0-12.329 0c-.887.932-2.325.932-3.213 0s-.887-2.444 0-3.376c5.181-5.437 13.573-5.437 18.754 0 .645.682.838 1.705.488 2.594s-1.173 1.47-2.089 1.474zm6.166-6.479a2.22 2.22 0 0 1-1.601-.704c-6.815-7.142-17.843-7.142-24.657 0a2.19 2.19 0 0 1-3.019-.159c-.822-.851-.905-2.215-.194-3.17 8.588-9.008 22.494-9.008 31.083 0 .645.682.838 1.705.488 2.594s-1.173 1.47-2.089 1.474zm6.674-6.418a2.22 2.22 0 0 1-1.601-.704c-10.493-11.025-27.503-11.025-37.996 0-.887.932-2.325.932-3.213 0s-.887-2.444 0-3.376c12.267-12.891 32.155-12.891 44.422 0 .655.683.852 1.714.498 2.609s-1.188 1.477-2.11 1.471z"/></g></symbol></svg>