<svg xmlns="http://www.w3.org/2000/svg" xmlns:xlink="http://www.w3.org/1999/xlink" fill="#fff" fill-rule="evenodd" stroke="#000" stroke-linecap="round" stroke-linejoin="round" viewBox="0 0 42.5 85"><use xlink:href="#a" x="1.25" y="2.5"/><symbol id="a" overflow="visible"><g stroke="none"><path fill="#4f4f4f" d="M0 28.362h40V80H0z"/><g fill="#7d7c7c"><path d="M0 25.584h40v51.638H0z"/><path d="M3.749 0h32.502v26.995H3.749z"/></g><path d="M6.5 36.662h4.504v3.741H6.5zm0 6.452h4.504v3.741H6.5zm0-12.904h4.504v3.741H6.5zm0 19.345h4.504v3.741H6.5zm0 6.452h4.504v3.741H6.5zm0 6.441h4.504v3.741H6.5zm0 6.452h4.504v3.741H6.5z"/><use xlink:href="#b"/><use xlink:href="#b" y="6.452"/><use xlink:href="#b" y="-6.452"/><use xlink:href="#b" y="12.893"/><use xlink:href="#b" y="19.345"/><use xlink:href="#b" y="25.786"/><use xlink:href="#b" y="32.238"/><use xlink:href="#b" x="7.498"/><use xlink:href="#b" x="7.498" y="6.452"/><use xlink:href="#b" x="7.498" y="-6.452"/><use xlink:href="#b" x="7.498" y="12.893"/><use xlink:href="#b" x="7.498" y="19.345"/><use xlink:href="#b" x="7.498" y="25.786"/><use xlink:href="#b" x="7.498" y="32.238"/><use xlink:href="#b" x="14.996"/><use xlink:href="#b" x="14.996" y="6.452"/><use xlink:href="#b" x="14.996" y="-6.452"/><use xlink:href="#b" x="14.996" y="12.893"/><use xlink:href="#b" x="14.996" y="19.345"/><use xlink:href="#b" x="14.996" y="25.786"/><use xlink:href="#b" x="14.996" y="32.238"/><path d="M10.25 5.175h4.504v3.741H10.25zm0 6.452h4.504v3.741H10.25zm0 6.452h4.504v3.741H10.25z"/><use xlink:href="#b" x="3.749" y="-31.487"/><use xlink:href="#b" x="3.749" y="-25.035"/><use xlink:href="#b" x="3.749" y="-18.583"/><use xlink:href="#b" x="11.247" y="-31.487"/><use xlink:href="#b" x="11.247" y="-25.035"/><use xlink:href="#b" x="11.247" y="-18.583"/></g></symbol><defs><path id="b" d="M13.999 36.662h4.504v3.741h-4.504z"/></defs></svg>