<svg xmlns="http://www.w3.org/2000/svg" xmlns:xlink="http://www.w3.org/1999/xlink" fill="#fff" fill-rule="evenodd" stroke="#000" stroke-linecap="round" stroke-linejoin="round" viewBox="0 0 85 85"><use xlink:href="#a" x="2.5" y="2.5"/><symbol id="a" overflow="visible"><g stroke="none"><path fill="#7d7c7c" d="M0 44.888 36.543 80 80 38.244V3.069H43.457L0 41.756zM57.772 24.54c-2.072-1.99-2.693-4.984-1.572-7.585s3.762-4.297 6.692-4.297 5.571 1.696 6.692 4.297.5 5.595-1.572 7.585c-2.828 2.716-7.412 2.716-10.24 0z"/><path fill="#d2d3d3" d="m0 41.756 36.543 35.112L80 35.112V0H43.457z"/><path fill="#7d7c7c" d="M38.37 54.171c2.91-2.8 3.873-6.964 2.471-10.685l4.417-4.269-.552-2.046 3.181-2.526v-2.198l.802-1.263 4.285-1.036.789-5.608-4.785-1.086-14.46 13.893c5.525 1.895 8.404 7.734 6.432 13.042s-8.049 8.075-13.574 6.18-8.404-7.734-6.432-13.042 8.049-8.075 13.574-6.18zm-12.829-2.172a2.59 2.59 0 0 1 .014-3.762 2.854 2.854 0 0 1 3.915 0 2.59 2.59 0 0 1 .014 3.762c-.521.506-1.231.791-1.972.791s-1.451-.285-1.972-.791z"/><path d="M57.765 21.362a6.75 6.75 0 0 1 0-9.842 7.44 7.44 0 0 1 10.243 0 6.75 6.75 0 0 1 0 9.842 7.44 7.44 0 0 1-10.243 0z"/></g></symbol></svg>