<svg xmlns="http://www.w3.org/2000/svg" xmlns:xlink="http://www.w3.org/1999/xlink" fill="#fff" fill-rule="evenodd" stroke="#000" stroke-linecap="round" stroke-linejoin="round" viewBox="0 0 74.375 85"><use xlink:href="#a" x="2.188" y="2.5"/><symbol id="a" overflow="visible"><g stroke="none"><path fill="#7d7c7c" d="m35.006 80-.9-.278c-.355-.116-8.869-2.86-17.295-11.716-5.068-5.4-8.998-11.609-11.593-18.315C1.605 40.12-.157 30.047.011 19.925v-2.478h2.686c2.42 0 6.931-.729 8.73-2.373 2.534-2.315 2.99-6.68 2.99-6.727l.127-1.586 1.622-.567a64.81 64.81 0 0 1 18.841-3.323 68.415 68.415 0 0 1 18.777 3.265l1.66.556.127 1.609s.405 4.307 3.041 6.715c1.672 1.528 6.614 2.188 8.742 2.315l2.635.093v2.408c.17 10.149-1.592 20.249-5.207 29.847-2.592 6.722-6.523 12.947-11.593 18.362-8.438 8.81-16.915 11.566-17.282 11.67z"/><path fill="#d2d3d3" d="m35.006 77.129-.9-.278c-.355-.116-8.869-2.86-17.295-11.716-5.068-5.4-8.998-11.609-11.593-18.316C1.605 37.249-.157 27.176.011 17.054V14.53h2.686c2.42 0 6.931-.729 8.73-2.373 2.534-2.315 2.99-6.68 2.99-6.726l.127-1.586 1.622-.567A64.8 64.8 0 0 1 35.006 0a68.41 68.41 0 0 1 18.777 3.265l1.66.556.127 1.609s.405 4.307 3.041 6.715c1.672 1.528 6.614 2.188 8.742 2.316l2.635.093v2.408c.17 10.149-1.592 20.249-5.207 29.847-2.592 6.722-6.523 12.947-11.593 18.362-8.438 8.868-16.94 11.577-17.295 11.739z"/><path d="m35.007 70.761-1.039-.428c-5.255-2.301-9.908-5.605-13.646-9.69-8.869-9.459-13.811-23.028-14.191-39.236v-2.084l2.255-.266c3.294-.394 5.879-1.308 7.285-2.593 1.668-1.731 2.766-3.859 3.168-6.136l.279-1.343 1.419-.428a53.95 53.95 0 0 1 14.52-2.315c4.932.138 9.816.918 14.507 2.316l1.432.417.291 1.354c.413 2.272 1.52 4.391 3.193 6.113 1.267 1.158 3.915 2.061 7.26 2.478l2.243.278v2.072c-.38 16.208-5.296 29.87-14.203 39.363-3.734 4.094-8.388 7.407-13.646 9.713zM11.263 23.294c.697 14.229 5.131 26.072 12.898 34.327 3.02 3.287 6.702 6.014 10.846 8.035 4.145-2.024 7.827-4.755 10.846-8.046 7.78-8.278 12.214-20.168 12.911-34.454-2.938-.462-5.676-1.665-7.906-3.473-2.071-1.994-3.535-4.449-4.245-7.12a49.184 49.184 0 0 0-11.606-1.69 47.498 47.498 0 0 0-11.593 1.713c-.69 2.687-2.146 5.159-4.219 7.167-2.227 1.84-4.976 3.072-7.932 3.554z"/><path fill="#7d7c7c" d="M45.346 32.613v-7.109c-.633-4.74-5.037-8.304-10.263-8.304s-9.63 3.564-10.263 8.304v7.109h-5.309V48.37h30.992V32.613zm-5.068 0H29.761v-7.109c.015-1.234.595-2.405 1.599-3.23s2.34-1.228 3.684-1.111c2.762-.112 5.114 1.82 5.284 4.342z"/></g></symbol></svg>