<svg xmlns="http://www.w3.org/2000/svg" xmlns:xlink="http://www.w3.org/1999/xlink" fill="#fff" fill-rule="evenodd" stroke="#000" stroke-linecap="round" stroke-linejoin="round" viewBox="0 0 73 39"><use xlink:href="#a" x="1" y="1"/><symbol id="a" overflow="visible"><g stroke="none"><path fill="#4f4f4f" d="M43.05 31.622q-4.296.884-16.513 1.288c-2.777 2.253-6.254 3.59-10.036 3.59C7.359 36.5 0 28.695 0 19S7.359 1.5 16.5 1.5 33 9.305 33 19c0 4.345-1.478 8.31-3.932 11.363q8.259-.408 12.064-1.079C39.16 26.401 38 22.85 38 19c0-9.695 7.359-17.5 16.5-17.5S71 9.305 71 19s-7.359 17.5-16.5 17.5c-4.455 0-8.487-1.854-11.45-4.878z"/><path fill="#7d7c7c" d="M43.05 30.122q-4.296.884-16.513 1.288C23.759 33.664 20.282 35 16.5 35 7.359 35 0 27.195 0 17.5S7.359 0 16.5 0 33 7.805 33 17.5c0 4.345-1.478 8.31-3.932 11.363q8.259-.408 12.064-1.079C39.16 24.901 38 21.35 38 17.5 38 7.805 45.359 0 54.5 0S71 7.805 71 17.5 63.641 35 54.5 35c-4.455 0-8.487-1.854-11.45-4.878z"/><path d="M13.044 22.785a3.13 3.13 0 0 0-2.14-1.187 3.1 3.1 0 0 0-2.328.729l-2.401 2.035a3.277 3.277 0 0 0-.447 4.573l.223.274a3.13 3.13 0 0 0 2.14 1.187 3.1 3.1 0 0 0 2.328-.729l2.435-2.035c.658-.542 1.075-1.331 1.159-2.191s-.173-1.718-.713-2.382zm19.157-3.362a3.266 3.266 0 0 0-.891-2.293 3.12 3.12 0 0 0-2.214-.977h-3.15a3.11 3.11 0 0 0-2.241.912 3.26 3.26 0 0 0-.954 2.266v.355c-.009.861.319 1.69.911 2.302s1.398.956 2.239.956h3.15c1.718 0 3.119-1.409 3.15-3.167zm-16.833-7.088c.793-.271 1.447-.854 1.82-1.619s.433-1.651.168-2.462l-.994-3.052c-.265-.811-.834-1.481-1.582-1.863s-1.613-.443-2.406-.172l-.335.114c-.793.271-1.447.854-1.82 1.619s-.433 1.651-.168 2.462l1.005 3.052a3.204 3.204 0 0 0 1.582 1.863 3.08 3.08 0 0 0 2.406.172zm-.872 6.22c0-1.387 1.091-2.504 2.446-2.504s2.446 1.117 2.446 2.504-1.091 2.504-2.446 2.504-2.446-1.117-2.446-2.504zm39.53 1.315c-1.225-.593-1.745-2.079-1.166-3.333s2.032-1.786 3.257-1.194 1.745 2.08 1.166 3.333-2.032 1.786-3.257 1.194zm-5.121-3.455c.203-1.768-1.032-3.37-2.759-3.578l-3.127-.377c-1.727-.208-3.292 1.056-3.496 2.824v.354c-.203 1.768 1.032 3.37 2.759 3.578l3.128.377c1.723.208 3.287-1.049 3.496-2.812zM62.386 3.829c-1.561-.781-3.445-.121-4.211 1.475L56.79 8.196c-.763 1.598-.119 3.526 1.441 4.31l.313.16c1.561.781 3.445.121 4.211-1.475l1.385-2.892c.763-1.598.118-3.526-1.441-4.31zm-5.239 19.194a3.157 3.157 0 0 0-1.948 1.471 3.29 3.29 0 0 0-.353 2.45l.76 3.132c.418 1.726 2.122 2.779 3.809 2.355l.335-.091c1.686-.428 2.716-2.172 2.301-3.898l-.76-3.132a3.22 3.22 0 0 0-1.433-1.989 3.083 3.083 0 0 0-2.387-.366z"/></g></symbol></svg>