<svg xmlns="http://www.w3.org/2000/svg" xmlns:xlink="http://www.w3.org/1999/xlink" fill="#fff" fill-rule="evenodd" stroke="#000" stroke-linecap="round" stroke-linejoin="round" viewBox="0 0 85 79.687"><use xlink:href="#a" x="2.5" y="2.344"/><symbol id="a" overflow="visible"><g fill="#7d7c7c" stroke="none"><path d="M67.446 30.787C74.845 30.787 80 35.343 80 41.831v14.08h-6.501v-9.565h-1.782v9.565h-9.969c-.653-7.14-6.556-11.989-14.839-11.989h-5.726v-3.89c6.338-.559 11.398-2.944 11.955-9.258h.598zm-41.196 0h.612c.558 6.314 5.617 8.699 11.941 9.258v3.876h-5.617c-8.269 0-14.199 4.862-14.838 11.989H8.569v-9.551H6.8v9.551H0V41.803C0 35.289 5.155 30.76 12.554 30.76zM46.855 49.85c7.399 0 12.554 4.556 12.554 11.043V75h-6.515v-9.578h-1.768v9.551h-22.02v-9.551h-1.714v9.551h-6.8v-14.08c0-6.487 5.155-11.043 12.554-11.043z"/><use xlink:href="#b"/><use xlink:href="#b" x="41.196"/><path d="m39.987 18.159 9.616 6.661v2.917c.047 2.539-.941 4.991-2.746 6.814s-4.278 2.865-6.87 2.897c-2.645-.062-5.153-1.165-6.957-3.06s-2.753-4.422-2.631-7.011v-2.624z"/></g><path fill="#d2d3d3" stroke="none" d="M60.592.002c4.502-.081 8.607 2.513 10.387 6.565s.879 8.755-2.277 11.9-7.942 4.108-12.108 2.436-6.887-5.647-6.882-10.058a10.64 10.64 0 0 1 3.147-7.629A11.083 11.083 0 0 1 60.592.002zm-20.605 14.8c3.997-.092 7.653 2.195 9.248 5.786s.812 7.77-1.981 10.571-7.04 3.668-10.743 2.192-6.125-5.002-6.126-8.918c-.06-5.255 4.237-9.565 9.602-9.631zm27.459 12.641C74.845 27.443 80 31.999 80 38.5v14.107h-6.501v-9.565h-1.782v9.565h-9.969c-.653-7.14-6.556-11.989-14.839-11.989h-5.726v-1.212c6.403-.623 11.435-5.641 11.955-11.922h.598zm-41.196.014h.612c.519 6.277 5.544 11.293 11.941 11.923v1.212h-5.617c-8.269 0-14.199 4.862-14.838 11.989H8.569v-9.525H6.8v9.551H0V38.5c0-6.514 5.155-11.043 12.554-11.043zm20.605 19.089c7.399 0 12.554 4.556 12.554 11.043v14.107h-6.515v-9.551h-1.768v9.551h-22.02v-9.551h-1.714v9.551h-6.8V57.589c0-6.501 5.155-11.043 12.554-11.043zM19.381.002c4.502-.081 8.607 2.513 10.387 6.565s.879 8.755-2.277 11.9-7.942 4.108-12.109 2.436S8.496 15.256 8.5 10.845C8.455 4.911 13.322.06 19.381.002z"/></symbol><defs><path id="b" d="m19.382 3.305 10.881 7.553v3.29a10.63 10.63 0 0 1-3.138 7.646 11.09 11.09 0 0 1-7.743 3.224c-5.971 0-10.881-4.862-10.881-11.363v-2.851z"/></defs></svg>