<svg xmlns="http://www.w3.org/2000/svg" xmlns:xlink="http://www.w3.org/1999/xlink" fill="#fff" fill-rule="evenodd" stroke="#000" stroke-linecap="round" stroke-linejoin="round" viewBox="0 0 85 58.438"><use xlink:href="#a" x="2.5" y="1.719"/><symbol id="a" overflow="visible"><g stroke="none"><path fill="#9d5125" d="M80 37.104v3.806C80 47.842 72.757 55 63.845 55h-47.68C7.254 55 .011 47.842.011 40.91v-3.806z"/><path fill="#f58535" d="M30.799 0c8.029-.014 15.322 4.915 18.641 12.599 3.115-2.238 7.141-2.522 10.513-.741s5.558 5.345 5.709 9.307C73.722 21.869 80 30.041 80 36.532v1.408c0 6.979-7.243 14.054-16.188 14.054H16.166C7.243 51.994 0 44.919 0 37.939v-1.396c0-5.381 4.303-12.778 10.353-14.615v-.608c.021-5.677 2.187-11.112 6.021-15.11S25.398-.022 30.799 0z"/><path d="M19.39 24.947h3.167l3.179 15.736 3.406-15.701h3.167l-4.711 19.626h-3.803zm14.837 0h5.926c3.587 0 5.165 2.386 5.165 5.727s-1.964 5.81-5.472 5.81h-2.634v8.125h-2.986zm2.986 9.175h2.123c1.601 0 2.986-.907 2.986-3.388 0-2.124-.806-3.412-3.201-3.412h-1.907zm22.092 3.436v.417c0 3.579-1.362 7.027-5.767 7.027-4.722 0-6.187-3.197-6.187-10.212s1.465-10.213 6.21-10.213c5.313 0 5.676 4.128 5.676 6.168v.394h-2.974v-.334c0-1.813-.522-3.913-2.668-3.83s-3.201 1.432-3.201 7.767.965 7.886 3.235 7.886c2.486 0 2.781-2.923 2.781-4.772v-.334z"/></g></symbol></svg>