<svg xmlns="http://www.w3.org/2000/svg" width="156.715" height="63.68" viewBox="0 0 156.715 63.68">
  <g id="Logo-Red_Hat-Training_and_Certification-B-Standard-RGB" transform="translate(-1 -1)">
    <path id="Path_11644" data-name="Path 11644" d="M222,145.73h12.1v1.885h-4.98v12.308h-2.129V147.615H222Z" transform="translate(-177.92 -116.518)"/>
    <path id="Path_11645" data-name="Path 11645" d="M287,164.661h2.027v1.318a3.23,3.23,0,0,1,2.846-1.542,2.559,2.559,0,0,1,1.035.164v1.825a3.472,3.472,0,0,0-1.2-.224,2.824,2.824,0,0,0-2.676,1.885v6.895H287Z" transform="translate(-230.25 -131.576)"/>
    <path id="Path_11646" data-name="Path 11646" d="M320.73,172.154c0-1.949,1.581-3.142,4.175-3.142a7.291,7.291,0,0,1,2.818.567v-1.093c0-1.46-.871-2.191-2.515-2.191a7.343,7.343,0,0,0-3.2.873l-.75-1.515a9.671,9.671,0,0,1,4.238-1.053c2.676,0,4.216,1.318,4.216,3.69v6.823h-1.986v-.883a4.9,4.9,0,0,1-3.2,1.074C322.27,175.3,320.73,174.019,320.73,172.154Zm4.257,1.643a3.965,3.965,0,0,0,2.729-.975v-1.784a5.368,5.368,0,0,0-2.645-.628c-1.481,0-2.394.669-2.394,1.7C322.675,173.107,323.609,173.8,324.987,173.8Z" transform="translate(-257.405 -131.709)"/>
    <path id="Path_11647" data-name="Path 11647" d="M377.62,145.427a1.246,1.246,0,1,1,.357.885A1.246,1.246,0,0,1,377.62,145.427Zm2.249,13.24h-2.027v-10.32h2.027Z" transform="translate(-303.205 -115.262)"/>
    <path id="Path_11648" data-name="Path 11648" d="M401.4,164.757h2.027v1.033a4.25,4.25,0,0,1,3.1-1.236,3.852,3.852,0,0,1,4.035,4.033v6.489h-2.035v-6.148a2.4,2.4,0,0,0-2.554-2.614,2.924,2.924,0,0,0-2.556,1.337v7.421H401.39Z" transform="translate(-322.341 -131.672)"/>
    <path id="Path_11649" data-name="Path 11649" d="M459.25,145.427a1.246,1.246,0,1,1,.358.886A1.246,1.246,0,0,1,459.25,145.427Zm2.251,13.24h-2.027v-10.32H461.5Z" transform="translate(-368.922 -115.262)"/>
    <path id="Path_11650" data-name="Path 11650" d="M483.07,164.757H485.1v1.033a4.249,4.249,0,0,1,3.1-1.236,3.852,3.852,0,0,1,4.035,4.033v6.489h-2.027v-6.148a2.4,2.4,0,0,0-2.556-2.614,2.924,2.924,0,0,0-2.554,1.337v7.421H483.07Z" transform="translate(-388.099 -131.672)"/>
    <path id="Path_11651" data-name="Path 11651" d="M539.637,169.952a5.207,5.207,0,0,1,5.232-5.292,5.068,5.068,0,0,1,3.06,1.033v-.85h2.008V175.3c0,2.676-1.684,4.177-4.725,4.177a8.756,8.756,0,0,1-4.156-1.014l.792-1.581a6.968,6.968,0,0,0,3.3.891c1.805,0,2.758-.852,2.758-2.474v-1.156a4.858,4.858,0,0,1-3.082,1.105A5.2,5.2,0,0,1,539.637,169.952Zm5.435,3.526a3.664,3.664,0,0,0,2.838-1.195v-4.663a3.723,3.723,0,0,0-2.838-1.2,3.528,3.528,0,0,0,0,7.055Z" transform="translate(-433.639 -131.757)"/>
    <path id="Path_11652" data-name="Path 11652" d="M623.78,172.154c0-1.949,1.581-3.142,4.175-3.142a7.291,7.291,0,0,1,2.818.567v-1.093c0-1.46-.871-2.191-2.515-2.191a7.342,7.342,0,0,0-3.2.873l-.75-1.515a9.671,9.671,0,0,1,4.238-1.053c2.676,0,4.216,1.318,4.216,3.69v6.823h-1.986v-.883a4.9,4.9,0,0,1-3.2,1.074C625.32,175.3,623.78,174.019,623.78,172.154Zm4.257,1.643a3.965,3.965,0,0,0,2.729-.975v-1.784a5.369,5.369,0,0,0-2.655-.628c-1.481,0-2.394.669-2.394,1.7C625.725,173.107,626.659,173.8,628.037,173.8Z" transform="translate(-501.381 -131.709)"/>
    <path id="Path_11653" data-name="Path 11653" d="M681.81,164.757h2.027v1.033a4.25,4.25,0,0,1,3.1-1.236,3.852,3.852,0,0,1,4.035,4.033v6.489h-2.027v-6.148a2.4,2.4,0,0,0-2.556-2.614,2.924,2.924,0,0,0-2.554,1.337v7.421H681.81Z" transform="translate(-548.099 -131.672)"/>
    <path id="Path_11654" data-name="Path 11654" d="M746.754,157.1a4.873,4.873,0,0,1-3.164,1.136,5.322,5.322,0,1,1,3.142-9.624v-4.731l2.027-.446v14.639h-2.006Zm-2.879-.628a3.7,3.7,0,0,0,2.858-1.232v-4.678a3.772,3.772,0,0,0-2.858-1.216,3.564,3.564,0,0,0,0,7.127Z" transform="translate(-593.642 -114.674)"/>
    <path id="Path_11655" data-name="Path 11655" d="M236.247,263.354l1.4,1.419a7.811,7.811,0,0,1-5.676,2.454,7.32,7.32,0,1,1,0-14.637,7.7,7.7,0,0,1,5.717,2.452l-1.419,1.46a5.641,5.641,0,0,0-4.3-1.949,5.352,5.352,0,0,0,.068,10.7A5.507,5.507,0,0,0,236.247,263.354Z" transform="translate(-179.957 -202.547)"/>
    <path id="Path_11656" data-name="Path 11656" d="M302.223,283.433a5.315,5.315,0,0,1-5.413-5.353,5.185,5.185,0,0,1,5.17-5.31,5.109,5.109,0,0,1,4.986,5.392v.585h-8.148a3.478,3.478,0,0,0,3.487,2.963,4.019,4.019,0,0,0,2.614-.9l1.3,1.277a6.152,6.152,0,0,1-3.994,1.349Zm-3.386-6.2h6.123a3.078,3.078,0,0,0-6.123,0Z" transform="translate(-238.147 -218.794)"/>
    <path id="Path_11657" data-name="Path 11657" d="M358.79,272.661h2.027v1.318a3.23,3.23,0,0,1,2.838-1.542,2.56,2.56,0,0,1,1.035.164v1.825a3.47,3.47,0,0,0-1.2-.224,2.824,2.824,0,0,0-2.676,1.885v6.895H358.79Z" transform="translate(-288.046 -218.523)"/>
    <path id="Path_11658" data-name="Path 11658" d="M395.609,262.4H393.42v-1.7h2.189v-2.635l2.008-.487V260.7h3.041v1.7h-3.031v5.593c0,1.055.425,1.439,1.52,1.439a3.966,3.966,0,0,0,1.48-.244v1.7a6.678,6.678,0,0,1-1.926.3c-2.006,0-3.082-.953-3.082-2.729Z" transform="translate(-315.925 -206.564)"/>
    <path id="Path_11659" data-name="Path 11659" d="M437.1,253.427a1.246,1.246,0,1,1,.358.886A1.245,1.245,0,0,1,437.1,253.427Zm2.251,13.24h-2.027v-10.32h2.027Z" transform="translate(-351.09 -202.209)"/>
    <path id="Path_11660" data-name="Path 11660" d="M458.942,253.423v-1.559c0-2.144,1.238-3.326,3.509-3.326a5.273,5.273,0,0,1,1.46.183v1.754a4.041,4.041,0,0,0-1.277-.183c-1.115,0-1.663.507-1.663,1.6v1.52h2.938v1.7h-2.94v8.618h-2.027v-8.61H456.55v-1.7Z" transform="translate(-366.749 -199.284)"/>
    <path id="Path_11661" data-name="Path 11661" d="M501.06,253.427a1.246,1.246,0,1,1,.357.885A1.246,1.246,0,0,1,501.06,253.427Zm2.25,13.24h-2.027v-10.32h2.027Z" transform="translate(-402.582 -202.209)"/>
    <path id="Path_11662" data-name="Path 11662" d="M530.482,280.219l1.216,1.318a5.706,5.706,0,0,1-4.076,1.723,5.352,5.352,0,1,1,0-10.7,5.848,5.848,0,0,1,4.156,1.724l-1.277,1.378a3.836,3.836,0,0,0-2.838-1.3,3.564,3.564,0,0,0,.041,7.117A3.763,3.763,0,0,0,530.482,280.219Z" transform="translate(-419.658 -218.62)"/>
    <path id="Path_11663" data-name="Path 11663" d="M576.35,280.154c0-1.949,1.583-3.142,4.177-3.142a7.3,7.3,0,0,1,2.819.567v-1.094c0-1.46-.873-2.191-2.515-2.191a7.335,7.335,0,0,0-3.2.873l-.75-1.515a9.663,9.663,0,0,1,4.236-1.053c2.676,0,4.218,1.318,4.218,3.69v6.832h-1.986v-.893a4.907,4.907,0,0,1-3.2,1.074C577.892,283.3,576.35,282.019,576.35,280.154Zm4.259,1.643a3.971,3.971,0,0,0,2.729-.975v-1.784a5.371,5.371,0,0,0-2.657-.628c-1.479,0-2.392.669-2.392,1.7C578.3,281.107,579.229,281.8,580.609,281.8Z" transform="translate(-463.196 -218.657)"/>
    <path id="Path_11664" data-name="Path 11664" d="M630.129,262.4H627.94v-1.7h2.189v-2.635l2.008-.487V260.7h3.041v1.7h-3.041v5.593c0,1.055.425,1.439,1.52,1.439a3.966,3.966,0,0,0,1.48-.244v1.7a6.691,6.691,0,0,1-1.926.3c-2.008,0-3.082-.953-3.082-2.729Z" transform="translate(-504.73 -206.564)"/>
    <path id="Path_11665" data-name="Path 11665" d="M671.62,253.427a1.246,1.246,0,1,1,.357.885A1.246,1.246,0,0,1,671.62,253.427Zm2.25,13.24h-2.027v-10.32h2.027Z" transform="translate(-539.895 -202.209)"/>
    <path id="Path_11666" data-name="Path 11666" d="M698.379,272.557a5.363,5.363,0,1,1-5.38,5.349,5.3,5.3,0,0,1,5.38-5.349Zm3.367,5.349a3.383,3.383,0,1,0-3.367,3.589A3.445,3.445,0,0,0,701.745,277.906Z" transform="translate(-557.106 -218.622)"/>
    <path id="Path_11667" data-name="Path 11667" d="M757.94,272.757h2.027v1.033a4.246,4.246,0,0,1,3.1-1.236,3.852,3.852,0,0,1,4.035,4.033v6.489h-2.029v-6.148a2.4,2.4,0,0,0-2.554-2.614,2.924,2.924,0,0,0-2.554,1.337v7.421H757.94Z" transform="translate(-609.389 -218.619)"/>
    <path id="Path_11668" data-name="Path 11668" d="M25.756,17.179c2.439,0,5.967-.5,5.967-3.4a2.729,2.729,0,0,0-.06-.667L30.21,6.8c-.335-1.388-.63-2.018-3.066-3.236C25.248,2.6,21.129,1,19.908,1c-1.135,0-1.472,1.47-2.817,1.47-1.3,0-2.269-1.092-3.487-1.092-1.17,0-1.932.8-2.52,2.437,0,0-1.639,4.624-1.85,5.294a1.253,1.253,0,0,0-.047.378c0,1.8,7.082,7.692,16.569,7.692M32.1,14.953a9.7,9.7,0,0,1,.337,1.975c0,2.729-3.068,4.244-7.1,4.244-9.133,0-17.109-5.337-17.109-8.865a3.6,3.6,0,0,1,.294-1.429C5.244,11.043,1,11.632,1,15.37c0,6.136,14.54,13.7,26.053,13.7,8.826,0,11.053-3.992,11.053-7.144,0-2.48-2.144-5.294-6.01-6.975" fill="#e00"/>
    <path id="Path_11669" data-name="Path 11669" d="M61.947,48.45a9.7,9.7,0,0,1,.337,1.975c0,2.729-3.068,4.244-7.1,4.244-9.127,0-17.1-5.335-17.1-8.864a3.6,3.6,0,0,1,.294-1.429l.713-1.766a1.253,1.253,0,0,0-.049.376c0,1.8,7.082,7.692,16.569,7.692,2.439,0,5.967-.5,5.967-3.4a2.73,2.73,0,0,0-.06-.667Z" transform="translate(-29.852 -33.499)"/>
    <path id="Path_11670" data-name="Path 11670" d="M295.447,44.706c0,2.318,1.394,3.444,3.936,3.444a10.158,10.158,0,0,0,2.318-.327V45.137a4.842,4.842,0,0,1-1.5.226c-1.047,0-1.435-.327-1.435-1.312V39.93H301.8V37.162h-3.033V33.653l-3.314.717v2.791h-2.2V39.93h2.193Zm-10.331.062c0-.717.719-1.066,1.805-1.066a8.4,8.4,0,0,1,1.969.246v1.394a4.193,4.193,0,0,1-2.066.513c-1.064,0-1.7-.409-1.7-1.086m1.014,3.423a5.075,5.075,0,0,0,2.994-.84v.657h3.279V41.057c0-2.643-1.782-4.094-4.754-4.094a12.1,12.1,0,0,0-5.068,1.189l1.189,2.441a8.852,8.852,0,0,1,3.281-.862c1.365,0,2.07.532,2.07,1.62v.532a9.655,9.655,0,0,0-2.46-.308c-2.789,0-4.47,1.17-4.47,3.261,0,1.906,1.517,3.361,3.936,3.361m-18.019-.183h3.526V42.39h5.9v5.618h3.526V33.657H277.55v5.515h-5.9V33.657H268.12Zm-13.429-5.439a2.746,2.746,0,0,1,2.85-2.749,3.357,3.357,0,0,1,2.3.842v3.784a3.189,3.189,0,0,1-2.3.862,2.759,2.759,0,0,1-2.85-2.747M259.87,48h3.281V32.94l-3.314.717v4.08a5.6,5.6,0,1,0-2.877,10.419,4.9,4.9,0,0,0,2.91-.942Zm-15.047-8.324A2.4,2.4,0,0,1,247.1,41.4h-4.524a2.258,2.258,0,0,1,2.255-1.721m-5.6,2.918a5.693,5.693,0,0,0,5.9,5.618,6.513,6.513,0,0,0,4.532-1.641l-2.195-1.949a2.932,2.932,0,0,1-2.172.821,2.805,2.805,0,0,1-2.667-1.721h7.729V42.9c0-3.444-2.316-5.924-5.474-5.924a5.569,5.569,0,0,0-5.653,5.616m-5.723-5.924a1.631,1.631,0,1,1,0,3.24h-3.485v-3.24ZM226.49,48.008h3.526V42.78H232.7l2.708,5.228h3.936l-3.158-5.741a4.341,4.341,0,0,0,2.706-4.039c0-2.583-2.029-4.571-5.068-4.571H226.5Z" transform="translate(-181.535 -25.714)"/>
  </g>
</svg>
