<svg xmlns="http://www.w3.org/2000/svg" width="146.83" height="48.731" viewBox="0 0 146.83 48.731">
  <g id="Logo-Red_Hat-Consulting-A-Standard-RGB" transform="translate(-1 -1)">
    <path id="Path_11631" data-name="Path 11631" d="M236.753,155.819l1.458,1.48a8.132,8.132,0,0,1-5.92,2.558,7.634,7.634,0,1,1,0-15.266,8.03,8.03,0,0,1,5.963,2.56l-1.48,1.521a5.884,5.884,0,0,0-4.483-2.033,5.582,5.582,0,0,0,.071,11.164A5.745,5.745,0,0,0,236.753,155.819Z" transform="translate(-178.085 -114.397)"/>
    <path id="Path_11632" data-name="Path 11632" d="M302.412,164.558a5.593,5.593,0,1,1-5.6,5.579,5.524,5.524,0,0,1,5.6-5.579Zm3.511,5.579a3.528,3.528,0,1,0-3.511,3.743A3.593,3.593,0,0,0,305.923,170.136Z" transform="translate(-235.669 -130.305)"/>
    <path id="Path_11633" data-name="Path 11633" d="M361.694,164.767h2.114v1.078a4.432,4.432,0,0,1,3.231-1.289,4.018,4.018,0,0,1,4.208,4.208v6.766h-2.114v-6.412a2.506,2.506,0,0,0-2.665-2.728,3.05,3.05,0,0,0-2.663,1.395v7.74H361.69Z" transform="translate(-287.359 -130.302)"/>
    <path id="Path_11634" data-name="Path 11634" d="M416.807,172.926a5.635,5.635,0,0,0,3.509,1.354c1.523,0,2.58-.657,2.58-1.608,0-.76-.549-1.206-1.734-1.374l-1.944-.274c-2.137-.317-3.214-1.311-3.214-2.98,0-1.946,1.691-3.253,4.206-3.253a7.372,7.372,0,0,1,4.334,1.374l-1.078,1.395a5.978,5.978,0,0,0-3.4-1.12c-1.291,0-2.157.592-2.157,1.46,0,.783.506,1.163,1.775,1.352l1.946.276c2.137.317,3.253,1.332,3.253,3,0,1.925-1.946,3.383-4.5,3.383a7.1,7.1,0,0,1-4.717-1.586Z" transform="translate(-330.357 -130.49)"/>
    <path id="Path_11635" data-name="Path 11635" d="M470.944,171.92a2.52,2.52,0,0,0,2.663,2.749,3.023,3.023,0,0,0,2.643-1.423V165.52h2.114v10.763h-2.114V175.2a4.4,4.4,0,0,1-3.235,1.291,4.018,4.018,0,0,1-4.186-4.229v-6.729h2.114Z" transform="translate(-372.717 -131.072)"/>
    <path id="Path_11636" data-name="Path 11636" d="M530.114,158.716H528v-14.8l2.114-.466Z" transform="translate(-419.857 -113.489)"/>
    <path id="Path_11637" data-name="Path 11637" d="M548.583,154.614H546.3v-1.777h2.283v-2.749l2.094-.508v3.253h3.172v1.777h-3.172v5.831c0,1.1.443,1.5,1.586,1.5a4.178,4.178,0,0,0,1.543-.254v1.775a6.966,6.966,0,0,1-2.009.317c-2.092,0-3.214-.992-3.214-2.846Z" transform="translate(-434.437 -118.373)"/>
    <path id="Path_11638" data-name="Path 11638" d="M590,145.489a1.3,1.3,0,1,1,.373.924,1.3,1.3,0,0,1-.373-.924Zm2.348,13.809h-2.114V148.535h2.114Z" transform="translate(-469.252 -114.07)"/>
    <path id="Path_11639" data-name="Path 11639" d="M613.8,164.766h2.114v1.078a4.428,4.428,0,0,1,3.235-1.289,4.018,4.018,0,0,1,4.208,4.208v6.766h-2.114v-6.412a2.506,2.506,0,0,0-2.665-2.728,3.05,3.05,0,0,0-2.663,1.395v7.74H613.8Z" transform="translate(-488.213 -130.302)"/>
    <path id="Path_11640" data-name="Path 11640" d="M670.37,170.18a5.429,5.429,0,0,1,5.455-5.52,5.286,5.286,0,0,1,3.194,1.086v-.895h2.094v10.911c0,2.791-1.757,4.355-4.928,4.355a9.126,9.126,0,0,1-4.334-1.057l.825-1.649a7.265,7.265,0,0,0,3.446.931c1.883,0,2.875-.888,2.875-2.58v-1.206a5.056,5.056,0,0,1-3.212,1.151A5.427,5.427,0,0,1,670.37,170.18Zm5.666,3.68a3.82,3.82,0,0,0,2.96-1.248v-4.863a3.877,3.877,0,0,0-2.96-1.248,3.681,3.681,0,0,0,0,7.36Z" transform="translate(-533.282 -130.387)"/>
    <path id="Path_11641" data-name="Path 11641" d="M26.82,17.874c2.543,0,6.223-.525,6.223-3.55a2.846,2.846,0,0,0-.063-.7L31.466,7.05c-.35-1.448-.657-2.1-3.2-3.375C26.289,2.665,21.993,1,20.721,1c-1.183,0-1.535,1.533-2.938,1.533-1.358,0-2.366-1.139-3.637-1.139-1.22,0-2.015.832-2.629,2.541,0,0-1.71,4.822-1.929,5.522a1.307,1.307,0,0,0-.049.394c0,1.874,7.386,8.022,17.281,8.022m6.618-2.322a10.117,10.117,0,0,1,.352,2.059c0,2.846-3.2,4.426-7.406,4.426-9.525,0-17.844-5.567-17.844-9.246a3.751,3.751,0,0,1,.307-1.49C5.426,11.474,1,12.088,1,15.988c0,6.4,15.165,14.288,27.172,14.288,9.206,0,11.528-4.164,11.528-7.451,0-2.586-2.236-5.522-6.268-7.274" fill="#e00"/>
    <path id="Path_11642" data-name="Path 11642" d="M62.973,48.7a10.117,10.117,0,0,1,.352,2.06c0,2.846-3.2,4.426-7.406,4.426-9.519,0-17.838-5.565-17.838-9.244a3.751,3.751,0,0,1,.307-1.49l.744-1.842A1.307,1.307,0,0,0,39.08,43c0,1.874,7.386,8.023,17.281,8.023,2.543,0,6.223-.525,6.223-3.55a2.846,2.846,0,0,0-.063-.7Z" transform="translate(-29.541 -33.15)"/>
    <path id="Path_11643" data-name="Path 11643" d="M298.41,45.212c0,2.417,1.454,3.592,4.1,3.592a10.6,10.6,0,0,0,2.417-.342v-2.8a5.05,5.05,0,0,1-1.561.236c-1.092,0-1.5-.342-1.5-1.368v-4.3h3.163V37.344h-3.163v-3.66l-3.456.748v2.911h-2.293v2.887h2.287Zm-10.775.065c0-.748.75-1.112,1.883-1.112a8.767,8.767,0,0,1,2.053.256v1.454a4.373,4.373,0,0,1-2.155.535c-1.11,0-1.775-.427-1.775-1.132m1.057,3.57a5.293,5.293,0,0,0,3.123-.876v.685h3.42v-7.25c0-2.757-1.858-4.269-4.959-4.269A12.622,12.622,0,0,0,285,38.376l1.24,2.545a9.233,9.233,0,0,1,3.422-.9c1.423,0,2.159.555,2.159,1.689v.555a10.069,10.069,0,0,0-2.566-.321c-2.909,0-4.662,1.22-4.662,3.4,0,1.988,1.582,3.505,4.1,3.505M269.9,48.662h3.678V42.8h6.158v5.859h3.678V33.688h-3.67V39.44h-6.158V33.688h-3.678Zm-14.006-5.672a2.864,2.864,0,0,1,2.972-2.867,3.5,3.5,0,0,1,2.395.878v3.946a3.326,3.326,0,0,1-2.395.9,2.877,2.877,0,0,1-2.972-2.865m5.41,5.666h3.422V32.94l-3.456.748v4.255a5.843,5.843,0,1,0-3,10.867,5.107,5.107,0,0,0,3.035-.982Zm-15.693-8.681a2.5,2.5,0,0,1,2.373,1.8h-4.719a2.355,2.355,0,0,1,2.352-1.8m-5.843,3.044a5.938,5.938,0,0,0,6.156,5.859,6.793,6.793,0,0,0,4.727-1.712l-2.289-2.033a3.058,3.058,0,0,1-2.265.856,2.926,2.926,0,0,1-2.781-1.8h8.061v-.854c0-3.592-2.415-6.179-5.709-6.179a5.808,5.808,0,0,0-5.9,5.857m-5.969-6.179a1.7,1.7,0,1,1,0,3.379h-3.635V36.831ZM226.49,48.656h3.678V43.2h2.8l2.824,5.453h4.1L236.6,42.668a4.528,4.528,0,0,0,2.822-4.213c0-2.694-2.116-4.768-5.286-4.768H226.5Z" transform="translate(-179.646 -25.446)"/>
  </g>
</svg>
