<svg id="Logos" xmlns="http://www.w3.org/2000/svg" viewBox="0 0 1076.27 350"><defs><style>.cls-1{fill:#e00;}</style></defs><path d="M223,145.89h62.09v9.67H259.54v63.13H248.62V155.56H223Z"/><path d="M305.71,219.63c-15.6,0-27.76-12-27.76-27.46,0-15.29,11.64-27.25,26.52-27.25,14.56,0,25.58,12.07,25.58,27.67v3H288.24a17.87,17.87,0,0,0,17.89,15.19,20.62,20.62,0,0,0,13.42-4.68l6.65,6.55A31.58,31.58,0,0,1,305.71,219.63ZM288.35,187.8h31.4c-1.55-8.11-7.8-14.14-15.49-14.14C296.25,173.66,289.91,179.38,288.35,187.8Z"/><path d="M379.66,204l6.24,6.76A29.3,29.3,0,0,1,365,219.63a27.46,27.46,0,0,1,0-54.92,30,30,0,0,1,21.32,8.85l-6.55,7.07A19.66,19.66,0,0,0,365.2,174c-9.67,0-17.16,8-17.16,18.2,0,10.4,7.59,18.31,17.37,18.31C370.71,210.48,375.39,208.4,379.66,204Z"/><path d="M394.32,145.89l10.4-2.29v27.46a21.81,21.81,0,0,1,15.91-6.35c12.17,0,20.7,8.43,20.7,20.7v33.28h-10.4V187.18c0-8.32-5.1-13.42-13.1-13.42a15,15,0,0,0-13.11,6.87v38.06h-10.4Z"/><path d="M453.29,165.75h10.4v5.31a21.81,21.81,0,0,1,15.91-6.35c12.17,0,20.7,8.43,20.7,20.7v33.28H489.9V187.18c0-8.32-5.1-13.42-13.11-13.42a15,15,0,0,0-13.1,6.87v38.06h-10.4Z"/><path d="M511.11,150.78a6.39,6.39,0,0,1,6.34-6.45,6.45,6.45,0,0,1,0,12.9A6.4,6.4,0,0,1,511.11,150.78Zm11.54,67.91h-10.4V165.75h10.4Z"/><path d="M574.45,204l6.24,6.76a29.32,29.32,0,0,1-20.91,8.84,27.46,27.46,0,0,1,0-54.92,30,30,0,0,1,21.32,8.85l-6.55,7.07A19.68,19.68,0,0,0,560,174c-9.67,0-17.16,8-17.16,18.2,0,10.4,7.59,18.31,17.37,18.31C565.5,210.48,570.18,208.4,574.45,204Z"/><path d="M586.4,203.51c0-10,8.12-16.12,21.43-16.12a37.48,37.48,0,0,1,14.46,2.91v-5.62c0-7.48-4.48-11.23-12.9-11.23-4.89,0-9.88,1.35-16.43,4.47l-3.85-7.8c7.9-3.74,14.77-5.41,21.73-5.41,13.73,0,21.64,6.77,21.64,18.93v35.05H622.29v-4.57a25.15,25.15,0,0,1-16.44,5.51C594.31,219.63,586.4,213.08,586.4,203.51Zm21.84,8.42a20.37,20.37,0,0,0,14-5v-9.15a27.48,27.48,0,0,0-13.63-3.23c-7.59,0-12.27,3.44-12.27,8.74C596.39,208.4,601.17,211.93,608.24,211.93Z"/><path d="M654.84,218.69h-10.4v-72.8l10.4-2.29Z"/><path d="M713,145.89h12.79l29.75,72.8H743.65l-8.42-21.32H702.67l-8.52,21.32H682.81Zm18.72,42.43L719,156.39l-12.69,31.93Z"/><path d="M798.46,204l6.24,6.76a29.3,29.3,0,0,1-20.91,8.84,27.46,27.46,0,0,1,0-54.92,30.08,30.08,0,0,1,21.33,8.85l-6.56,7.07A19.66,19.66,0,0,0,784,174c-9.67,0-17.16,8-17.16,18.2,0,10.4,7.59,18.31,17.37,18.31C789.52,210.48,794.2,208.4,798.46,204Z"/><path d="M850.56,204l6.24,6.76a29.29,29.29,0,0,1-20.9,8.84,27.46,27.46,0,0,1,0-54.92,30,30,0,0,1,21.32,8.85l-6.55,7.07A19.68,19.68,0,0,0,836.11,174c-9.67,0-17.16,8-17.16,18.2,0,10.4,7.59,18.31,17.37,18.31C841.62,210.48,846.3,208.4,850.56,204Z"/><path d="M888.32,164.71a27.51,27.51,0,1,1-27.57,27.46A27.17,27.17,0,0,1,888.32,164.71Zm17.26,27.46c0-10.29-7.7-18.3-17.26-18.3s-17.37,8-17.37,18.3,7.59,18.41,17.37,18.41C897.88,210.58,905.58,202.47,905.58,192.17Z"/><path d="M935.84,197.16c0,8.32,5.1,13.52,13.11,13.52a14.87,14.87,0,0,0,13-7v-38h10.4v52.94H962v-5.3A21.64,21.64,0,0,1,946,219.73c-12.17,0-20.6-8.53-20.6-20.8V165.75h10.4Z"/><path d="M984.62,165.75H995v5.31a21.81,21.81,0,0,1,15.91-6.35c12.17,0,20.7,8.43,20.7,20.7v33.28h-10.4V187.18c0-8.32-5.1-13.42-13.11-13.42a15,15,0,0,0-13.1,6.87v38.06h-10.4Z"/><path d="M1048.37,174.49h-11.23v-8.74h11.23V152.23l10.3-2.49v16h15.6v8.74h-15.6V203.2c0,5.4,2.18,7.38,7.8,7.38a20.35,20.35,0,0,0,7.59-1.25v8.74a34.66,34.66,0,0,1-9.88,1.56c-10.3,0-15.81-4.89-15.81-14Z"/><path d="M238.84,267.41v59.28H228.65v-72.8h14.56l22.88,46.49,22.78-46.49h14.56v72.8h-10.3V267.31L266,321.49Z"/><path d="M313.2,311.51c0-10,8.11-16.12,21.42-16.12a37.41,37.41,0,0,1,14.46,2.91v-5.62c0-7.48-4.47-11.23-12.89-11.23-4.89,0-9.89,1.35-16.44,4.47l-3.85-7.8c7.91-3.74,14.77-5.41,21.74-5.41,13.73,0,21.63,6.77,21.63,18.93v35.05H349.08v-4.57a25.12,25.12,0,0,1-16.43,5.51C321.11,327.63,313.2,321.08,313.2,311.51ZM335,319.93a20.33,20.33,0,0,0,14-5v-9.15a27.41,27.41,0,0,0-13.62-3.23c-7.59,0-12.27,3.44-12.27,8.74C323.19,316.4,328,319.93,335,319.93Z"/><path d="M371.23,273.75h10.4v5.31a21.81,21.81,0,0,1,15.91-6.35c12.17,0,20.7,8.43,20.7,20.7v33.28h-10.4V295.18c0-8.32-5.09-13.42-13.1-13.42a15,15,0,0,0-13.11,6.87v38.06h-10.4Z"/><path d="M427.49,311.51c0-10,8.12-16.12,21.43-16.12a37.45,37.45,0,0,1,14.46,2.91v-5.62c0-7.48-4.48-11.23-12.9-11.23-4.89,0-9.88,1.35-16.43,4.47l-3.85-7.8c7.9-3.74,14.77-5.41,21.74-5.41,13.72,0,21.63,6.77,21.63,18.93v35.05H463.38v-4.57a25.15,25.15,0,0,1-16.44,5.51C435.4,327.63,427.49,321.08,427.49,311.51Zm21.85,8.42a20.37,20.37,0,0,0,14-5v-9.15a27.45,27.45,0,0,0-13.63-3.23c-7.59,0-12.27,3.44-12.27,8.74C437.48,316.4,442.26,319.93,449.34,319.93Z"/><path d="M483.13,300A26.71,26.71,0,0,1,510,272.82a26,26,0,0,1,15.7,5.3v-4.37H536v53.67c0,13.73-8.63,21.43-24.23,21.43a45,45,0,0,1-21.33-5.2l4.06-8.12c6,3.12,11.34,4.58,16.95,4.58,9.26,0,14.15-4.37,14.15-12.69v-5.93a24.9,24.9,0,0,1-15.81,5.62C494.89,327.11,483.13,315.15,483.13,300ZM511,318.06c6,0,11.13-2.18,14.56-6.14V288A19.11,19.11,0,0,0,511,281.87c-10,0-17.68,7.9-17.68,18.09S501,318.06,511,318.06Z"/><path d="M573.62,327.63c-15.6,0-27.77-12-27.77-27.46,0-15.29,11.65-27.25,26.52-27.25,14.56,0,25.58,12.07,25.58,27.67v3H556.14A17.87,17.87,0,0,0,574,318.79a20.62,20.62,0,0,0,13.42-4.68l6.65,6.55A31.57,31.57,0,0,1,573.62,327.63ZM556.25,295.8h31.41c-1.56-8.11-7.8-14.14-15.5-14.14C564.15,281.66,557.81,287.38,556.25,295.8Z"/><path d="M607.83,273.75h10.4v5a20.29,20.29,0,0,1,14.87-6c7.18,0,13,3.33,16.33,8.85a21.2,21.2,0,0,1,17.89-8.85c11.65,0,19.87,8.43,19.87,20.7v33.28h-10.4V295.18c0-8.32-4.68-13.42-12.17-13.42-5.2,0-9.36,2.4-12.38,7.08a22.08,22.08,0,0,1,.42,4.57v33.28h-10.3V295.18c0-8.32-4.68-13.42-12.17-13.42a13.88,13.88,0,0,0-12,6.45v38.48h-10.4Z"/><path d="M724.52,327.63c-15.6,0-27.77-12-27.77-27.46,0-15.29,11.65-27.25,26.52-27.25,14.56,0,25.59,12.07,25.59,27.67v3H707a17.87,17.87,0,0,0,17.89,15.19,20.62,20.62,0,0,0,13.42-4.68l6.66,6.55A31.62,31.62,0,0,1,724.52,327.63ZM707.15,295.8h31.41c-1.56-8.11-7.8-14.14-15.5-14.14C715.05,281.66,708.71,287.38,707.15,295.8Z"/><path d="M758.73,273.75h10.4v5.31a21.81,21.81,0,0,1,15.92-6.35c12.16,0,20.69,8.43,20.69,20.7v33.28h-10.4V295.18c0-8.32-5.09-13.42-13.1-13.42a15,15,0,0,0-13.11,6.87v38.06h-10.4Z"/><path d="M822.48,282.49H811.25v-8.74h11.23V260.23l10.3-2.49v16h15.6v8.74h-15.6V311.2c0,5.4,2.18,7.38,7.8,7.38a20.35,20.35,0,0,0,7.59-1.25v8.74a34.61,34.61,0,0,1-9.88,1.56c-10.29,0-15.81-4.89-15.81-14Z"/><path class="cls-1" d="M129,84.15c12.51,0,30.61-2.59,30.61-17.46a14.14,14.14,0,0,0-.31-3.43L151.82,30.9c-1.72-7.11-3.23-10.35-15.73-16.6-9.7-5-30.83-13.15-37.08-13.15-5.82,0-7.55,7.55-14.45,7.55-6.68,0-11.64-5.61-17.89-5.61-6,0-9.91,4.1-12.93,12.51,0,0-8.41,23.71-9.49,27.16A6.36,6.36,0,0,0,44,44.7c0,9.21,36.3,39.45,84.94,39.45m32.55-11.43c1.73,8.19,1.73,9.06,1.73,10.13,0,14-15.74,21.78-36.43,21.78-46.78,0-87.74-27.38-87.74-45.49a18.49,18.49,0,0,1,1.51-7.33C23.77,52.68,2,55.69,2,74.88c0,31.47,74.59,70.27,133.65,70.27,45.28,0,56.7-20.47,56.7-36.64,0-12.72-11-27.16-30.83-35.79"/><path d="M161.52,72.72c1.73,8.19,1.73,9.06,1.73,10.13,0,14-15.74,21.78-36.43,21.78-46.78,0-87.74-27.38-87.74-45.49a18.49,18.49,0,0,1,1.51-7.33l3.66-9.05A6.36,6.36,0,0,0,44,44.7c0,9.21,36.3,39.45,84.94,39.45,12.51,0,30.61-2.59,30.61-17.46a14.14,14.14,0,0,0-.31-3.43Z"/><path d="M581.24,93.46c0,11.88,7.15,17.67,20.19,17.67a52.13,52.13,0,0,0,11.89-1.69V95.67a24.82,24.82,0,0,1-7.68,1.15c-5.37,0-7.36-1.68-7.36-6.73V69h15.56V54.76H598.28v-18l-17,3.68V54.76H570V69h11.25Zm-53,.31c0-3.68,3.69-5.46,9.26-5.46a42.6,42.6,0,0,1,10.1,1.26v7.15A21.51,21.51,0,0,1,537,99.35c-5.46,0-8.73-2.11-8.73-5.58m5.2,17.57c6,0,10.84-1.26,15.36-4.31v3.36h16.82V74.74c0-13.57-9.14-21-24.39-21-8.52,0-16.94,2-26,6.09l6.1,12.52c6.52-2.73,12-4.42,16.83-4.42,7,0,10.62,2.74,10.62,8.31V79a49.09,49.09,0,0,0-12.62-1.58c-14.31,0-22.93,6-22.93,16.72,0,9.78,7.78,17.25,20.19,17.25m-92.44-1h18.09V81.57h30.29v28.82h18.09V36.77H489.43V65.06H459.14V36.77H441.05ZM372.12,82.52c0-8,6.31-14.09,14.62-14.09a17.26,17.26,0,0,1,11.78,4.31V92.2a16.39,16.39,0,0,1-11.78,4.41c-8.2,0-14.62-6.1-14.62-14.09m26.61,27.87h16.83V33.09l-17,3.68V57.7A28.3,28.3,0,0,0,384.32,54c-16.19,0-28.92,12.52-28.92,28.5a28.26,28.26,0,0,0,28.4,28.61,25.13,25.13,0,0,0,14.93-4.84Zm-77.19-42.7c5.36,0,9.88,3.47,11.67,8.84H310c1.68-5.58,5.89-8.84,11.57-8.84M292.83,82.63c0,16.19,13.25,28.81,30.28,28.81,9.36,0,16.2-2.52,23.25-8.41L335.1,93c-2.63,2.73-6.52,4.2-11.14,4.2a14.39,14.39,0,0,1-13.68-8.83h39.65V84.2c0-17.66-11.88-30.39-28.08-30.39a28.57,28.57,0,0,0-29,28.82m-29.34-30.4c6,0,9.36,3.79,9.36,8.31s-3.37,8.31-9.36,8.31H245.61V52.23Zm-36,58.16h18.09V83.57h13.77l13.89,26.82h20.19l-16.2-29.45a22.26,22.26,0,0,0,13.88-20.71c0-13.26-10.41-23.46-26-23.46H227.52Z"/></svg>