<svg xmlns="http://www.w3.org/2000/svg" viewBox="0 0 36 36"><path d="M27 0H9a9 9 0 0 0-9 9v18a9 9 0 0 0 9 9h18a9 9 0 0 0 9-9V9a9 9 0 0 0-9-9Z" style="fill:#fff"/><path d="M27 1.25c4.27 0 7.75 3.48 7.75 7.75v18c0 4.27-3.48 7.75-7.75 7.75H9c-4.27 0-7.75-3.48-7.75-7.75V9c0-4.27 3.48-7.75 7.75-7.75h18M27 0H9a9 9 0 0 0-9 9v18a9 9 0 0 0 9 9h18a9 9 0 0 0 9-9V9a9 9 0 0 0-9-9Z"/><path d="M25.54 23.69c-.17-.3-.55-.4-.85-.23l-6.7 3.83-6.86-3.67a.623.623 0 0 0-.85.26c-.16.3-.05.68.26.85l7.15 3.83h.01c.09.06.19.08.29.08.1 0 .21-.03.31-.08l7-4c.3-.17.4-.55.23-.85v-.02Z" style="fill:#e00"/><path d="m25.47 11.59-.07-.07c-.03-.03-.07-.05-.1-.07l-6.99-3.99a.62.62 0 0 0-.85.23c-.17.3-.07.68.23.85L23.74 12 18 15.28l-.23-.13a.621.621 0 1 0-.62 1.08l.23.13v6.72c-.19.03-.36.12-.46.3-.17.3-.07.68.23.85l.54.31c.1.06.21.08.31.08.11 0 .21-.03.31-.08l7-4a.63.63 0 0 0 .31-.54v-8c0-.16-.06-.3-.15-.41Zm-1.1 8.04-5.75 3.29v-6.56l5.75-3.29v6.56Zm-11.6-8.05c.11 0 .22-.03.32-.09l1.07-.64c.3-.18.39-.56.21-.86s-.56-.39-.86-.21l-1.07.64a.62.62 0 0 0-.21.86c.12.2.32.3.54.3Zm4.24-3.14a.63.63 0 0 0-.86-.21l-1.07.64a.62.62 0 0 0-.21.86.633.633 0 0 0 .86.21l1.07-.64c.3-.18.39-.56.21-.86Zm-2.9 12.62-.87-.5a.621.621 0 1 0-.62 1.08l.87.5c.1.06.2.08.31.08.22 0 .43-.11.54-.32.17-.3.07-.68-.23-.85Zm2.27 1.29-.87-.5a.621.621 0 1 0-.62 1.08l.87.5c.1.06.2.08.31.08.22 0 .43-.11.54-.32.17-.3.07-.68-.23-.85Zm-4.53-2.59-.23-.13v-.26c0-.34-.28-.62-.62-.62s-.62.28-.62.62v.62c0 .22.12.43.31.54l.54.31c.1.06.21.08.31.08a.621.621 0 0 0 .31-1.16ZM11 18.41c.34 0 .62-.28.62-.62v-.99c0-.34-.28-.62-.62-.62s-.62.28-.62.62v.99c0 .34.28.62.62.62Zm0-2.58c.34 0 .62-.28.62-.62v-.99c0-.34-.28-.62-.62-.62s-.62.28-.62.62v.99c0 .34.28.62.62.62Zm.85-4.07-.54-.31c-.19-.11-.43-.11-.62 0s-.31.32-.31.54v.62c0 .34.28.62.62.62.23 0 .43-.13.54-.31a.621.621 0 0 0 .31-1.16Zm4.53 2.59-.87-.5a.621.621 0 1 0-.62 1.08l.87.5c.1.06.2.08.31.08.22 0 .43-.11.54-.32.17-.3.07-.68-.23-.85Zm-2.27-1.29-.87-.5a.621.621 0 1 0-.62 1.08l.87.5c.1.06.2.08.31.08.22 0 .43-.11.54-.32.17-.3.07-.68-.23-.85Z"/></svg>