<svg xmlns="http://www.w3.org/2000/svg" viewBox="0 0 38 38">
  <path fill="#fff" d="M28 1H10a9 9 0 0 0-9 9v18a9 9 0 0 0 9 9h18a9 9 0 0 0 9-9V10a9 9 0 0 0-9-9Z"/>
  <path d="M28 2.25A7.7587 7.7587 0 0 1 35.75 10v18A7.7587 7.7587 0 0 1 28 35.75H10A7.7587 7.7587 0 0 1 2.25 28V10A7.7587 7.7587 0 0 1 10 2.25h18M28 1H10a9 9 0 0 0-9 9v18a9 9 0 0 0 9 9h18a9 9 0 0 0 9-9V10a9 9 0 0 0-9-9Z"/>
  <path fill="#e00" d="M14 23.4766h-4a.6253.6253 0 0 1-.625-.625v-4a.6252.6252 0 0 1 .625-.625h4a.6252.6252 0 0 1 .625.625v4a.6253.6253 0 0 1-.625.625Zm-3.375-1.25h2.75v-2.75h-2.75ZM21 23.4766h-4a.6253.6253 0 0 1-.625-.625v-4a.6252.6252 0 0 1 .625-.625h4a.6252.6252 0 0 1 .625.625v4a.6253.6253 0 0 1-.625.625Zm-3.375-1.25h2.75v-2.75h-2.75Zm-.125-5.75h-4a.6253.6253 0 0 1-.625-.625v-4a.6252.6252 0 0 1 .625-.625h4a.6252.6252 0 0 1 .625.625v4a.6253.6253 0 0 1-.625.625Zm-3.375-1.25h2.75v-2.75h-2.75Zm10.375 1.25h-4a.6253.6253 0 0 1-.625-.625v-4a.6252.6252 0 0 1 .625-.625h4a.6252.6252 0 0 1 .625.625v4a.6253.6253 0 0 1-.625.625Zm-3.375-1.25h2.75v-2.75h-2.75Zm6.875 8.25h-4a.6253.6253 0 0 1-.625-.625v-4a.6252.6252 0 0 1 .625-.625h4a.6252.6252 0 0 1 .625.625v4a.6253.6253 0 0 1-.625.625Zm-3.375-1.25h2.75v-2.75h-2.75Z"/>
  <path d="M29 26.4766H9a.625.625 0 0 1 0-1.25h20a.625.625 0 0 1 0 1.25Z"/>
</svg>
