<?xml version="1.0" encoding="UTF-8" standalone="no"?>
<!-- Created with Inkscape (http://www.inkscape.org/) -->

<svg
   version="1.1"
   id="svg840"
   xml:space="preserve"
   width="1100.5114"
   height="145.38266"
   viewBox="0 0 1100.5114 145.38267"
   sodipodi:docname="gateway-full.svg"
   inkscape:version="1.1 (c4e8f9e, 2021-05-24)"
   xmlns:inkscape="http://www.inkscape.org/namespaces/inkscape"
   xmlns:sodipodi="http://sodipodi.sourceforge.net/DTD/sodipodi-0.dtd"
   xmlns="http://www.w3.org/2000/svg"
   xmlns:svg="http://www.w3.org/2000/svg"><defs
     id="defs844"><clipPath
       clipPathUnits="userSpaceOnUse"
       id="clipPath854"><path
         d="M 0,1000 H 1000 V 0 H 0 Z"
         id="path852" /></clipPath><clipPath
       clipPathUnits="userSpaceOnUse"
       id="clipPath870"><path
         d="m 191.916,480.113 h 74.236 V 468.63 h -74.236 z"
         id="path868" /></clipPath></defs><sodipodi:namedview
     id="namedview842"
     pagecolor="#ffffff"
     bordercolor="#666666"
     borderopacity="1.0"
     inkscape:pageshadow="2"
     inkscape:pageopacity="0.0"
     inkscape:pagecheckerboard="0"
     showgrid="false"
     inkscape:zoom="0.40875002"
     inkscape:cx="549.23544"
     inkscape:cy="72.171249"
     inkscape:window-width="1920"
     inkscape:window-height="1027"
     inkscape:window-x="1792"
     inkscape:window-y="25"
     inkscape:window-maximized="1"
     inkscape:current-layer="g846" /><g
     id="g846"
     inkscape:groupmode="layer"
     inkscape:label="new glooys 2 Gateway"
     transform="matrix(1.3333333,0,0,-1.3333333,-116.41093,739.35757)"><g
       id="g848"><g
         id="g850"
         clip-path="url(#clipPath854)"><g
           id="g856"
           transform="translate(156.4492,479.7432)"><path
             d="m 0,0 h -9.915 c -3.47,0 -7.995,-1.468 -10.057,-3.262 -2.062,-1.794 -0.908,-3.26 2.56,-3.26 h 9.914 c 3.47,0 7.993,1.466 10.056,3.26 C 4.622,-1.468 3.468,0 0,0 m 23.148,-19.816 h -7.24 c -3.47,0 -7.993,-1.466 -10.058,-3.26 -2.062,-1.793 -0.91,-3.261 2.562,-3.261 h 7.237 c 3.47,0 7.996,1.468 10.059,3.261 2.061,1.794 0.909,3.26 -2.56,3.26 m -27.244,0.253 h -5.566 -5.567 c -3.469,0 -4.624,1.467 -2.56,3.259 2.063,1.795 6.588,3.262 10.057,3.262 h 29 25.503 c 3.469,0 7.992,1.466 10.055,3.26 2.062,1.793 0.909,3.26 -2.56,3.26 H 28.96 11.092 c -3.469,0 -4.622,1.466 -2.56,3.26 C 10.594,-1.468 15.118,0 18.589,0 h 18.028 1.513 c 3.471,0 7.997,1.467 10.058,3.26 2.06,1.794 0.91,3.261 -2.56,3.261 H 44.254 14.758 -11.518 l 9.569,8.176 -67.192,-24.478 9.887,-24.481 9.571,8.178 h 26.957 11.134 c 3.469,0 7.993,1.466 10.055,3.26 2.062,1.794 0.91,3.261 -2.559,3.261"
             style="fill:#466baf;fill-opacity:1;fill-rule:evenodd;stroke:none"
             id="path858" /></g><g
           id="g860"
           transform="translate(291.8994,460.1797)"><path
             d="m 0,0 h 9.913 c 3.47,0 7.994,1.468 10.057,3.26 2.06,1.795 0.91,3.261 -2.56,3.261 H 7.495 C 4.025,6.521 -0.499,5.055 -2.56,3.26 -4.622,1.468 -3.471,0 0,0 m -23.148,19.814 h 7.238 c 3.472,0 7.994,1.469 10.056,3.262 2.063,1.793 0.911,3.26 -2.56,3.26 h -7.237 c -3.47,0 -7.995,-1.467 -10.058,-3.26 -2.062,-1.793 -0.909,-3.262 2.561,-3.262 M 4.095,19.563 h 5.565 5.566 c 3.469,0 4.622,-1.467 2.561,-3.261 C 15.723,14.51 11.2,13.041 7.73,13.041 h -26.485 c -3.469,0 -7.993,-1.467 -10.057,-3.259 -2.059,-1.794 -0.909,-3.261 2.561,-3.261 h 15.157 c 3.47,0 4.622,-1.466 2.56,-3.261 C -10.596,1.468 -15.119,0 -18.591,0 h -28.016 -1.513 c -3.47,0 -7.996,-1.467 -10.059,-3.261 -2.061,-1.794 -0.909,-3.26 2.559,-3.26 h 1.376 39.482 26.278 L 1.947,-14.698 69.141,9.782 59.25,34.261 49.681,26.085 H 22.725 11.591 c -3.47,0 -7.993,-1.468 -10.057,-3.262 -2.06,-1.793 -0.909,-3.26 2.561,-3.26"
             style="fill:#df3ead;fill-opacity:1;fill-rule:evenodd;stroke:none"
             id="path862" /></g><g
           id="g864"><g
             id="g866" /><g
             id="g878"><g
               clip-path="url(#clipPath870)"
               opacity="0.300003"
               id="g876"><g
                 transform="translate(232.4863,480.1133)"
                 id="g874"><path
                   d="m 0,0 c 20.411,0 35.408,-2.57 33.502,-5.742 -1.91,-3.171 -20.002,-5.741 -40.41,-5.741 -20.409,0 -35.407,2.57 -33.499,5.741 C -38.499,-2.57 -20.407,0 0,0"
                   style="fill:#003c6a;fill-opacity:1;fill-rule:evenodd;stroke:none"
                   id="path872" /></g></g></g></g><g
           id="g880"
           transform="translate(246.8799,521.3887)"><path
             d="m 0,0 c 2.118,-1.937 11.533,4.965 18.423,8.746 6.889,3.78 6.449,7.716 5.061,9.969 C 22.097,20.969 17.213,21.87 11.938,17.966 6.662,14.062 -2.115,1.937 0,0"
             style="fill:#54acd5;fill-opacity:1;fill-rule:evenodd;stroke:none"
             id="path882" /></g><g
           id="g884"
           transform="translate(257.749,533.0322)"><path
             d="M 0,0 C 0.909,-0.771 2.781,1.419 6.2,3.018 9.621,4.616 10.563,6.333 9.653,7.104 8.744,7.876 6.49,7.324 4.062,5.439 1.636,3.555 -0.908,0.771 0,0"
             style="fill:#ffffff;fill-opacity:1;fill-rule:evenodd;stroke:none"
             id="path886" /></g><g
           id="g888"
           transform="translate(190.0293,543.0986)"><path
             d="m 0,0 c 4.738,1.611 7.532,2.571 10.285,2.619 l -6.601,-7.75 c 1.557,1.956 -0.717,2.308 -1.593,2.272 -7.202,-0.296 -4.355,-10.266 -13.989,-12.155 -6.019,-1.18 -10.67,2.554 -11.216,8.079 -0.546,5.526 2.676,10.589 8.708,11.657 3.621,0.641 7.552,-0.801 9.079,-3.483 C -3.765,-1.509 -2.273,-0.771 0,0"
             style="fill:#54acd5;fill-opacity:1;fill-rule:evenodd;stroke:none"
             id="path890" /></g><g
           id="g892"
           transform="translate(211.8301,479.6895)"><path
             d="m 0,0 c 10.298,2.349 12.211,6.179 23.095,8.973 10.886,2.794 13.11,1.137 19.833,0.363 11.292,-1.301 13.652,8.472 3.534,15.216 1.95,5.618 2.574,18.006 2.005,22.724 C 46.214,65.971 28.776,76.759 9.14,74.542 -10.497,72.326 -24.897,57.945 -22.643,39.249 -21.191,27.201 -16.032,17.956 -8.887,11.865 -17.997,7.435 -7.809,-1.78 0,0"
             style="fill:#54acd5;fill-opacity:1;fill-rule:evenodd;stroke:none"
             id="path894" /></g><g
           id="g896"
           transform="translate(173.6641,545.5869)"><path
             d="M 0,0 C 1.975,1.042 4.321,0.271 5.242,-1.723 6.921,-5.352 -0.118,-9.296 -2.125,-4.958 -3.046,-2.965 -1.974,-1.041 0,0"
             style="fill:#ffffff;fill-opacity:1;fill-rule:evenodd;stroke:none"
             id="path898" /></g><g
           id="g900"
           transform="translate(203.0137,513.4824)"><path
             d="m 0,0 c -0.08,-3.074 -12.806,-6.274 -21.105,-9.472 -8.298,-3.2 -11.1,-0.176 -11.833,2.503 -0.732,2.679 2.295,7.365 9.454,9.132 C -16.324,3.931 0.077,3.073 0,0"
             style="fill:#54acd5;fill-opacity:1;fill-rule:evenodd;stroke:none"
             id="path902" /></g><g
           id="g904"
           transform="translate(190.2549,513.5039)"><path
             d="m 0,0 c 0.569,-1.131 -2.904,0.514 -10.126,-2.671 -2.578,-1.137 -3.669,-2.002 -4.409,-1.094 -0.317,0.39 -0.776,1.617 2.852,3.152 C -8.057,0.921 -0.628,1.252 0,0 m -15.017,-4.572 c 0.26,-0.655 -0.155,-1.562 -0.926,-2.025 -0.774,-0.465 -1.609,-0.309 -1.869,0.346 -0.263,0.654 0.153,1.562 0.925,2.024 0.773,0.465 1.611,0.311 1.87,-0.345"
             style="fill:#ffffff;fill-opacity:1;fill-rule:evenodd;stroke:none"
             id="path906" /></g><g
           id="g908"
           transform="translate(219.6572,552.9131)"><path
             d="M 0,0 C 16.954,3.695 33.207,-7.563 36.301,-25.147 41.941,-57.179 -18.976,-72.14 -25.713,-33.865 -28.809,-16.281 -16.953,-3.694 0,0"
             style="fill:#5bbae0;fill-opacity:1;fill-rule:evenodd;stroke:none"
             id="path910" /></g><g
           id="g912"
           transform="translate(219.9697,542.9707)"><path
             d="m 0,0 c -5.799,-2.591 -8.464,3.087 -1.168,6.652 9.139,4.47 23.436,0.88 28.656,-7.206 1.389,-2.154 -0.17,-3.413 -2.32,-1.419 C 19.217,3.547 9.731,4.347 0,0 m 28.389,-4.017 c 0.652,0.265 1.467,-0.153 1.818,-0.933 0.353,-0.781 0.109,-1.629 -0.543,-1.895 -0.654,-0.264 -1.468,0.154 -1.819,0.934 -0.352,0.781 -0.109,1.63 0.544,1.894"
             style="fill:#eef7f8;fill-opacity:1;fill-rule:evenodd;stroke:none"
             id="path914" /></g><g
           id="g916"
           transform="translate(235.4014,521.0977)"><path
             d="m 0,0 c 2.279,0.716 3.542,1.618 4.604,2.167 1.029,0.531 1.834,0.718 2.914,0 1.08,-0.718 1.269,-2.931 0.536,-5.275 -0.761,-2.437 -2.45,-5.076 -5.643,-6.491 -3.193,-1.413 -6.589,-0.759 -8.875,0.803 -2.362,1.614 -3.536,4.07 -2.685,5.678 0.848,1.607 1.932,1.972 3.46,2.175 C -4.209,-0.748 -2.28,-0.718 0,0"
             style="fill:#003c6a;fill-opacity:1;fill-rule:evenodd;stroke:none"
             id="path918" /></g><g
           id="g920"
           transform="translate(241.8574,516.1777)"><path
             d="m 0,0 c -0.965,-1.447 -2.82,-2.975 -4.297,-3.606 -1.476,-0.632 -2.062,-0.675 -3.055,-0.737 -1.007,-0.062 -1.986,0.055 -2.886,0.304 -0.189,1.047 0.449,2.15 1.454,2.918 0.981,0.748 2.296,1.173 3.542,0.946 0.943,1.041 2.146,1.539 3.161,1.544 C -1.091,1.375 -0.265,0.909 0,0"
             style="fill:#54acd5;fill-opacity:1;fill-rule:evenodd;stroke:none"
             id="path922" /></g><g
           id="g924"
           transform="translate(235.6016,520.0244)"><path
             d="M 0,0 C 1.602,0.493 2.688,1.039 3.572,1.519 4.436,1.982 5.091,2.383 5.713,2.567 5.722,2.541 5.571,3.102 5.734,2.488 5.899,1.877 5.291,-0.026 4.689,-0.227 4.088,-0.428 4.083,-0.313 3.787,-0.21 3.671,-1.058 3.112,-1.812 2.383,-2.065 1.653,-2.318 0.963,-2.104 0.43,-1.596 0.218,-2.358 -0.253,-2.98 -1.064,-3.262 c -0.812,-0.281 -1.791,0.012 -2.368,0.73 -0.255,-0.336 -0.203,-0.467 -0.996,-0.73 -0.789,-0.263 -2.613,1.135 -2.792,1.868 -0.178,0.735 -0.018,0.083 -0.028,0.125 0.857,0.235 1.849,0.29 3.06,0.425 C -3.012,-0.712 -1.598,-0.496 0,0"
             style="fill:#ffffff;fill-opacity:1;fill-rule:evenodd;stroke:none"
             id="path926" /></g><g
           id="g928"
           transform="translate(223.6357,521.6074)"><path
             d="m 0,0 c -0.156,2.386 -2.827,5.413 -6.278,5.237 -1.104,-0.054 -5.58,-0.246 -6.04,-5.181 -0.32,-3.403 2.85,-2.855 3.069,-0.577 0.147,1.54 1.956,2.826 3.465,2.784 1.4,-0.041 2.98,-0.714 3.811,-2.854 C -1.54,-1.698 0.093,-1.423 0,0"
             style="fill:#003c6a;fill-opacity:1;fill-rule:evenodd;stroke:none"
             id="path930" /></g><g
           id="g932"
           transform="translate(240.3125,527.0566)"><path
             d="M 0,0 C -1.157,2.021 -1.131,5.555 0.842,7.661 1.923,8.818 5.462,9.932 7.45,7.265 9.385,4.669 7.215,3.287 5.889,4.999 4.992,6.158 3.219,6.139 2.325,5.22 1.497,4.367 0.889,2.895 1.506,0.679 1.827,-0.471 0.689,-1.205 0,0"
             style="fill:#003c6a;fill-opacity:1;fill-rule:evenodd;stroke:none"
             id="path934" /></g><g
           id="g936"
           transform="translate(445.0547,509.5068)"><path
             d="m 0,0 c 1.524,0 2.787,-0.512 3.783,-1.541 1,-1.026 1.499,-2.302 1.499,-3.829 v -18.663 c 0,-2.053 -0.91,-3.639 -2.73,-4.753 -5.751,-3.58 -12.059,-5.369 -18.926,-5.369 -5.811,0 -11.181,1.423 -16.11,4.268 -4.931,2.847 -8.833,6.691 -11.71,11.533 -2.875,4.841 -4.313,10.138 -4.313,15.89 0,5.751 1.438,11.048 4.313,15.89 2.877,4.841 6.779,8.686 11.71,11.533 4.929,2.847 10.299,4.27 16.11,4.27 5.81,0 10.858,-1.175 15.143,-3.523 0.878,-0.469 1.539,-1.085 1.979,-1.848 0.44,-0.762 0.659,-1.585 0.659,-2.464 0,-1.469 -0.483,-2.745 -1.452,-3.831 -0.966,-1.085 -2.156,-1.628 -3.564,-1.628 -0.882,0 -1.849,0.234 -2.907,0.704 -3.168,1.35 -6.454,2.025 -9.858,2.025 -3.757,0 -7.219,-0.954 -10.39,-2.861 -3.168,-1.907 -5.677,-4.475 -7.526,-7.702 -1.849,-3.229 -2.773,-6.75 -2.773,-10.565 0,-3.815 0.924,-7.336 2.773,-10.565 1.849,-3.226 4.358,-5.794 7.526,-7.702 3.171,-1.908 6.633,-2.861 10.39,-2.861 1.642,0 3.404,0.147 5.281,0.439 1.879,0.295 3.521,0.676 4.93,1.146 v 11.444 h -8.275 c -1.526,0 -2.802,0.5 -3.829,1.497 -1.028,0.998 -1.542,2.258 -1.542,3.785 0,1.525 0.514,2.787 1.542,3.785 1.027,0.997 2.303,1.496 3.829,1.496 z m 464.993,12.502 c 0.763,0 1.396,-0.25 1.893,-0.748 0.501,-0.499 0.751,-1.13 0.751,-1.894 v -38.823 c 0,-4.636 -0.91,-8.597 -2.732,-11.885 -1.817,-3.285 -4.341,-5.78 -7.57,-7.482 -3.228,-1.701 -6.864,-2.553 -10.915,-2.553 -2.465,0 -4.77,0.264 -6.909,0.793 -2.143,0.528 -3.919,1.232 -5.327,2.111 -1.234,0.764 -1.848,1.615 -1.848,2.554 0,0.118 0.059,0.411 0.176,0.881 0.175,0.586 0.467,1.026 0.88,1.32 0.411,0.293 0.849,0.441 1.32,0.441 0.352,0 0.706,-0.089 1.056,-0.265 3.758,-2.055 7.336,-3.081 10.738,-3.081 4.873,0 8.73,1.526 11.578,4.577 2.846,3.052 4.27,7.22 4.27,12.5 v 3.083 c -1.466,-2.466 -3.582,-4.445 -6.339,-5.943 -2.759,-1.496 -5.751,-2.243 -8.98,-2.243 -5.104,0 -8.978,1.525 -11.617,4.576 -2.645,3.052 -3.963,7.189 -3.963,12.412 V 9.86 c 0,0.764 0.249,1.395 0.749,1.894 0.497,0.498 1.129,0.748 1.89,0.748 0.764,0 1.396,-0.25 1.894,-0.748 0.499,-0.499 0.748,-1.13 0.748,-1.894 v -26.234 c 0,-4.225 0.924,-7.424 2.775,-9.595 1.846,-2.172 4.739,-3.258 8.671,-3.258 2.405,0 4.707,0.601 6.907,1.805 2.203,1.204 3.965,2.788 5.282,4.754 1.321,1.966 1.983,4.064 1.983,6.294 V 9.86 c 0,0.764 0.25,1.395 0.748,1.894 0.499,0.498 1.129,0.748 1.891,0.748 m -45.86,-0.792 c 0.763,0 1.392,-0.264 1.891,-0.794 0.498,-0.527 0.749,-1.173 0.749,-1.936 v -39.615 c 0,-0.762 -0.251,-1.393 -0.749,-1.893 -0.499,-0.499 -1.128,-0.746 -1.891,-0.746 -0.763,0 -1.395,0.247 -1.893,0.746 -0.5,0.5 -0.749,1.131 -0.749,1.893 v 5.899 c -1.467,-2.641 -3.667,-4.872 -6.602,-6.692 -2.934,-1.819 -6.132,-2.727 -9.597,-2.727 -3.931,0 -7.466,1.026 -10.606,3.08 -3.14,2.054 -5.604,4.872 -7.396,8.451 -1.79,3.58 -2.686,7.601 -2.686,12.061 0,4.46 0.909,8.465 2.729,12.016 1.82,3.552 4.299,6.324 7.439,8.319 3.142,1.996 6.617,2.994 10.435,2.994 3.521,0 6.748,-0.852 9.682,-2.553 2.935,-1.702 5.135,-3.933 6.602,-6.692 V 8.98 c 0,0.763 0.249,1.409 0.749,1.936 0.498,0.53 1.13,0.794 1.893,0.794 m -18.312,-40.937 c 3.053,0 5.796,0.808 8.231,2.422 2.435,1.614 4.344,3.843 5.723,6.69 1.379,2.846 2.07,6.031 2.07,9.552 0,3.404 -0.691,6.515 -2.07,9.332 -1.379,2.817 -3.288,5.032 -5.723,6.646 -2.435,1.614 -5.178,2.422 -8.231,2.422 -3.052,0 -5.795,-0.794 -8.231,-2.377 -2.435,-1.586 -4.342,-3.772 -5.721,-6.559 -1.379,-2.788 -2.069,-5.943 -2.069,-9.464 0,-3.521 0.675,-6.706 2.025,-9.552 1.349,-2.847 3.242,-5.076 5.678,-6.69 2.434,-1.614 5.208,-2.422 8.318,-2.422 m -28.256,41.904 c 0.763,0 1.394,-0.234 1.894,-0.703 0.498,-0.47 0.748,-1.116 0.748,-1.937 0,-0.058 -0.088,-0.439 -0.264,-1.145 l -13.559,-40.495 c -0.291,-0.528 -0.674,-0.954 -1.144,-1.277 -0.469,-0.322 -0.968,-0.455 -1.495,-0.394 -0.528,0 -1,0.145 -1.408,0.438 -0.413,0.293 -0.734,0.705 -0.971,1.233 l -11.531,27.115 -10.301,-27.115 c -0.234,-0.47 -0.571,-0.866 -1.013,-1.189 -0.44,-0.322 -0.892,-0.482 -1.363,-0.482 -0.588,-0.061 -1.13,0.072 -1.631,0.394 -0.496,0.323 -0.834,0.749 -1.01,1.277 L 315.608,8.892 c -0.176,0.352 -0.264,0.734 -0.264,1.145 0,0.762 0.264,1.394 0.791,1.893 0.53,0.498 1.175,0.747 1.937,0.747 0.53,0 1.013,-0.16 1.453,-0.484 0.441,-0.322 0.749,-0.747 0.924,-1.277 l 11.709,-35.124 10.476,26.322 c 0.413,1.115 1.233,1.673 2.466,1.673 1.172,0 1.994,-0.558 2.464,-1.673 l 11.004,-26.147 11.534,34.949 c 0.349,1.175 1.172,1.761 2.463,1.761 M 311.296,-8.187 c 0,-0.704 -0.264,-1.305 -0.792,-1.804 -0.527,-0.498 -1.145,-0.747 -1.848,-0.747 h -33.277 c 0,-3.522 0.719,-6.677 2.157,-9.464 1.437,-2.789 3.492,-4.989 6.163,-6.603 2.67,-1.614 5.825,-2.422 9.463,-2.422 2.817,0 5.342,0.588 7.57,1.761 2.231,1.173 4.021,2.671 5.372,4.49 0.644,0.529 1.261,0.792 1.847,0.792 0.587,0 1.116,-0.235 1.587,-0.704 0.468,-0.468 0.703,-0.997 0.703,-1.585 0,-0.644 -0.294,-1.261 -0.882,-1.849 -1.877,-2.287 -4.24,-4.166 -7.087,-5.633 -2.845,-1.467 -5.852,-2.2 -9.022,-2.2 -4.519,0 -8.51,0.967 -11.973,2.903 -3.463,1.938 -6.162,4.651 -8.099,8.144 -1.936,3.492 -2.906,7.528 -2.906,12.104 0,4.814 0.955,9.025 2.862,12.634 1.908,3.609 4.445,6.368 7.616,8.275 3.168,1.908 6.542,2.861 10.121,2.861 3.524,0 6.825,-0.822 9.905,-2.466 3.083,-1.643 5.59,-4.049 7.527,-7.218 1.938,-3.168 2.935,-6.925 2.993,-11.269 M 290.871,7.659 c -3.403,0 -6.558,-1.173 -9.46,-3.52 -2.907,-2.347 -4.769,-5.722 -5.593,-10.125 h 30.021 v 0.705 c -0.294,2.64 -1.175,4.944 -2.642,6.911 -1.468,1.965 -3.301,3.461 -5.501,4.489 -2.202,1.027 -4.474,1.54 -6.825,1.54 M 255.75,6.604 v -29.492 c 0,-2.229 0.412,-3.742 1.234,-4.534 0.82,-0.791 1.906,-1.187 3.256,-1.187 0.353,0 0.793,0.073 1.321,0.219 0.528,0.146 0.939,0.219 1.233,0.219 0.528,0 0.982,-0.219 1.365,-0.659 0.381,-0.441 0.571,-0.954 0.571,-1.541 0,-0.822 -0.469,-1.512 -1.408,-2.068 -0.94,-0.558 -2.056,-0.835 -3.345,-0.835 -1.584,0 -2.993,0.145 -4.227,0.438 -1.23,0.293 -2.421,1.174 -3.565,2.641 -1.144,1.467 -1.717,3.815 -1.717,7.042 V 6.604 h -6.426 c -0.705,0 -1.307,0.235 -1.805,0.705 -0.499,0.468 -0.748,1.054 -0.748,1.759 0,0.704 0.249,1.291 0.748,1.761 0.498,0.468 1.1,0.704 1.805,0.704 h 6.426 v 9.772 c 0,0.762 0.25,1.394 0.75,1.892 0.497,0.499 1.128,0.748 1.89,0.748 0.764,0 1.396,-0.249 1.895,-0.748 0.496,-0.498 0.747,-1.13 0.747,-1.892 v -9.772 h 8.804 c 0.646,0 1.217,-0.263 1.717,-0.793 0.499,-0.527 0.749,-1.114 0.749,-1.76 0,-0.705 -0.237,-1.277 -0.705,-1.716 -0.47,-0.441 -1.057,-0.66 -1.761,-0.66 z m -22.182,5.106 c 0.763,0 1.394,-0.264 1.894,-0.794 0.497,-0.527 0.749,-1.173 0.749,-1.936 v -39.615 c 0,-0.762 -0.252,-1.393 -0.749,-1.893 -0.5,-0.499 -1.131,-0.746 -1.894,-0.746 -0.763,0 -1.392,0.247 -1.892,0.746 -0.499,0.5 -0.749,1.131 -0.749,1.893 v 5.899 c -1.467,-2.641 -3.668,-4.872 -6.602,-6.692 -2.934,-1.819 -6.132,-2.727 -9.596,-2.727 -3.931,0 -7.468,1.026 -10.608,3.08 -3.139,2.054 -5.604,4.872 -7.394,8.451 -1.79,3.58 -2.685,7.601 -2.685,12.061 0,4.46 0.908,8.465 2.729,12.016 1.82,3.552 4.298,6.324 7.439,8.319 3.14,1.996 6.616,2.994 10.432,2.994 3.521,0 6.749,-0.852 9.683,-2.553 2.934,-1.702 5.135,-3.933 6.602,-6.692 V 8.98 c 0,0.763 0.25,1.409 0.749,1.936 0.5,0.53 1.129,0.794 1.892,0.794 m -18.312,-40.937 c 3.054,0 5.798,0.808 8.233,2.422 2.435,1.614 4.343,3.843 5.721,6.69 1.379,2.846 2.068,6.031 2.068,9.552 0,3.404 -0.689,6.515 -2.068,9.332 -1.378,2.817 -3.286,5.032 -5.721,6.646 -2.435,1.614 -5.179,2.422 -8.233,2.422 -3.051,0 -5.794,-0.794 -8.23,-2.377 -2.434,-1.586 -4.342,-3.772 -5.722,-6.559 -1.379,-2.788 -2.069,-5.943 -2.069,-9.464 0,-3.521 0.676,-6.706 2.027,-9.552 1.349,-2.847 3.24,-5.076 5.677,-6.69 2.436,-1.614 5.208,-2.422 8.317,-2.422 M 184.009,-2.2 c 0.762,0 1.393,-0.249 1.892,-0.749 0.498,-0.499 0.749,-1.129 0.749,-1.891 v -21.218 c 0,-0.997 -0.441,-1.789 -1.32,-2.377 -2.643,-1.818 -5.576,-3.227 -8.804,-4.224 -3.229,-0.999 -6.513,-1.496 -9.861,-1.496 -5.985,0 -11.384,1.379 -16.196,4.136 -4.815,2.759 -8.6,6.543 -11.358,11.356 -2.757,4.813 -4.136,10.213 -4.136,16.199 0,5.985 1.379,11.385 4.136,16.198 2.758,4.812 6.543,8.597 11.358,11.357 4.812,2.759 10.211,4.138 16.196,4.138 3.112,0 6.119,-0.383 9.025,-1.146 2.906,-0.763 5.501,-1.85 7.789,-3.257 0.821,-0.528 1.235,-1.263 1.235,-2.201 0,-0.763 -0.251,-1.407 -0.748,-1.937 -0.5,-0.528 -1.073,-0.792 -1.719,-0.792 -0.587,0 -1.114,0.147 -1.584,0.44 -4.402,2.407 -9.069,3.609 -13.998,3.609 -4.989,0 -9.463,-1.143 -13.425,-3.432 -3.961,-2.289 -7.057,-5.444 -9.286,-9.463 -2.231,-4.021 -3.347,-8.526 -3.347,-13.514 0,-4.989 1.116,-9.494 3.347,-13.514 2.229,-4.02 5.325,-7.175 9.286,-9.463 3.962,-2.288 8.436,-3.432 13.425,-3.432 2.524,0 5.063,0.351 7.616,1.055 2.554,0.704 4.826,1.673 6.823,2.907 v 17.43 h -13.909 c -0.763,0 -1.409,0.249 -1.936,0.748 -0.53,0.498 -0.794,1.129 -0.794,1.893 0,0.762 0.264,1.392 0.794,1.891 0.527,0.5 1.173,0.749 1.936,0.749 z m -55.714,-7.571 c 0,-4.695 -1.059,-8.906 -3.171,-12.633 -2.111,-3.727 -5.003,-6.617 -8.671,-8.671 -3.668,-2.054 -7.702,-3.08 -12.104,-3.08 -4.462,0 -8.511,1.026 -12.149,3.08 -3.638,2.054 -6.514,4.944 -8.629,8.671 -2.11,3.727 -3.166,7.938 -3.166,12.633 0,4.696 1.056,8.907 3.166,12.632 2.115,3.727 4.991,6.632 8.629,8.717 3.638,2.082 7.687,3.125 12.149,3.125 4.402,0 8.436,-1.043 12.104,-3.125 3.668,-2.085 6.56,-4.99 8.671,-8.717 2.112,-3.725 3.171,-7.936 3.171,-12.632 m -10.565,0 c 0,2.875 -0.602,5.443 -1.805,7.703 -1.203,2.259 -2.817,4.006 -4.843,5.239 -2.024,1.231 -4.269,1.847 -6.733,1.847 -2.465,0 -4.71,-0.616 -6.736,-1.847 -2.024,-1.233 -3.638,-2.98 -4.842,-5.239 -1.203,-2.26 -1.803,-4.828 -1.803,-7.703 0,-2.876 0.6,-5.428 1.803,-7.66 1.204,-2.229 2.818,-3.961 4.842,-5.193 2.026,-1.231 4.271,-1.849 6.736,-1.849 2.464,0 4.709,0.618 6.733,1.849 2.026,1.232 3.64,2.964 4.843,5.193 1.203,2.232 1.805,4.784 1.805,7.66 m -40.953,0 c 0,-4.695 -1.056,-8.906 -3.17,-12.633 -2.11,-3.727 -5.002,-6.617 -8.671,-8.671 -3.668,-2.054 -7.703,-3.08 -12.105,-3.08 -4.459,0 -8.508,1.026 -12.146,3.08 -3.641,2.054 -6.515,4.944 -8.629,8.671 -2.113,3.727 -3.168,7.938 -3.168,12.633 0,4.696 1.055,8.907 3.168,12.632 2.114,3.727 4.988,6.632 8.629,8.717 3.638,2.082 7.687,3.125 12.146,3.125 4.402,0 8.437,-1.043 12.105,-3.125 3.669,-2.085 6.561,-4.99 8.671,-8.717 2.114,-3.725 3.17,-7.936 3.17,-12.632 m -10.562,0 c 0,2.875 -0.604,5.443 -1.807,7.703 -1.203,2.259 -2.817,4.006 -4.841,5.239 -2.025,1.231 -4.27,1.847 -6.736,1.847 -2.464,0 -4.708,-0.616 -6.733,-1.847 -2.026,-1.233 -3.639,-2.98 -4.843,-5.239 -1.202,-2.26 -1.804,-4.828 -1.804,-7.703 0,-2.876 0.602,-5.428 1.804,-7.66 1.204,-2.229 2.817,-3.961 4.843,-5.193 2.025,-1.231 4.269,-1.849 6.733,-1.849 2.466,0 4.711,0.618 6.736,1.849 2.024,1.232 3.638,2.964 4.841,5.193 1.203,2.232 1.807,4.784 1.807,7.66 M 23.247,-27.906 c 0,-1.527 -0.513,-2.802 -1.541,-3.829 -1.028,-1.028 -2.305,-1.539 -3.829,-1.539 -1.468,0 -2.701,0.511 -3.697,1.539 -0.999,1.027 -1.497,2.302 -1.497,3.829 v 54.405 c 0,1.525 0.513,2.803 1.54,3.829 1.028,1.026 2.304,1.541 3.83,1.541 1.467,0 2.699,-0.515 3.698,-1.541 0.996,-1.026 1.496,-2.304 1.496,-3.829 z"
             style="fill:#003c6a;fill-opacity:1;fill-rule:evenodd;stroke:none"
             id="path938" /></g></g></g></g></svg>
