<?xml version="1.0" encoding="UTF-8"?>
<svg xmlns="http://www.w3.org/2000/svg" viewBox="0 0 559.6 286.8">
  <g clip-rule="evenodd" fill-rule="evenodd">
    <path d="m58.3 250.4c1.1 1.1 1.7 2.6 1.7 4.3v20.8c0 2.3-1 4.1-3 5.3-6.4 4-13.5 6-21.1 6-6.5 0-12.5-1.6-18-4.8s-9.9-7.5-13.1-12.9-4.8-11.3-4.8-17.7 1.6-12.3 4.8-17.7 7.6-9.7 13.1-12.9 11.5-4.8 18-4.8 12.1 1.3 16.9 3.9c1 .5 1.7 1.2 2.2 2.1s.7 1.8.7 2.7c0 1.6-.5 3.1-1.6 4.3s-2.4 1.8-4 1.8c-1 0-2.1-.3-3.2-.8-3.5-1.5-7.2-2.3-11-2.3-4.2 0-8.1 1.1-11.6 3.2s-6.3 5-8.4 8.6-3.1 7.5-3.1 11.8 1 8.2 3.1 11.8 4.9 6.5 8.4 8.6 7.4 3.2 11.6 3.2c1.8 0 3.8-.2 5.9-.5s3.9-.8 5.5-1.3v-12.8h-9.3c-1.7 0-3.1-.6-4.3-1.7-1.1-1.1-1.7-2.5-1.7-4.2s.6-3.1 1.7-4.2 2.6-1.7 4.3-1.7h16.1c1.7.2 3.1.8 4.2 1.9zm15.9-37.3c-1.7 0-3.1.6-4.3 1.7-1.1 1.1-1.7 2.6-1.7 4.3v60.7c0 1.7.6 3.1 1.7 4.3 1.1 1.1 2.5 1.7 4.1 1.7 1.7 0 3.1-.6 4.3-1.7 1.1-1.1 1.7-2.6 1.7-4.3v-60.7c0-1.7-.6-3.1-1.7-4.3-1.1-1.1-2.4-1.7-4.1-1.7zm62 32.4c2.4 4.2 3.5 8.9 3.5 14.1s-1.2 9.9-3.5 14.1c-2.4 4.2-5.6 7.4-9.7 9.7s-8.6 3.4-13.5 3.4c-5 0-9.5-1.1-13.5-3.4-4.1-2.3-7.3-5.5-9.6-9.7-2.4-4.2-3.5-8.9-3.5-14.1s1.2-9.9 3.5-14.1c2.4-4.2 5.6-7.4 9.6-9.7 4.1-2.3 8.6-3.5 13.5-3.5s9.4 1.2 13.5 3.5 7.3 5.5 9.7 9.7zm-8.3 14.1c0-3.2-.7-6.1-2-8.6s-3.1-4.5-5.4-5.8c-2.3-1.4-4.8-2.1-7.5-2.1s-5.3.7-7.5 2.1c-2.3 1.4-4.1 3.3-5.4 5.8s-2 5.4-2 8.6.7 6.1 2 8.5c1.3 2.5 3.1 4.4 5.4 5.8s4.8 2.1 7.5 2.1 5.3-.7 7.5-2.1c2.3-1.4 4.1-3.3 5.4-5.8 1.4-2.5 2-5.3 2-8.5zm65.7-14.1c2.4 4.2 3.5 8.9 3.5 14.1s-1.2 9.9-3.5 14.1c-2.4 4.2-5.6 7.4-9.7 9.7s-8.6 3.4-13.5 3.4c-5 0-9.5-1.1-13.5-3.4-4.1-2.3-7.3-5.5-9.6-9.7-2.4-4.2-3.5-8.9-3.5-14.1s1.2-9.9 3.5-14.1c2.4-4.2 5.6-7.4 9.6-9.7 4.1-2.3 8.6-3.5 13.5-3.5s9.4 1.2 13.5 3.5c4.2 2.3 7.4 5.5 9.7 9.7zm-8.2 14.1c0-3.2-.7-6.1-2-8.6s-3.1-4.5-5.4-5.8c-2.3-1.4-4.8-2.1-7.5-2.1s-5.3.7-7.5 2.1c-2.3 1.4-4.1 3.3-5.4 5.8s-2 5.4-2 8.6.7 6.1 2 8.5c1.3 2.5 3.1 4.4 5.4 5.8s4.8 2.1 7.5 2.1 5.3-.7 7.5-2.1c2.3-1.4 4.1-3.3 5.4-5.8s2-5.3 2-8.5zm59.7-40c-2.9-1.7-6.1-2.5-9.7-2.5h-23.3c-.9 0-1.6.3-2.1.8-.6.6-.8 1.3-.8 2.1v62.8c0 .9.3 1.6.8 2.1.6.6 1.3.8 2.1.8s1.6-.3 2.1-.8c.6-.6.8-1.3.8-2.1v-26.1h20.3c3.6 0 6.8-.9 9.7-2.7s5.1-4.2 6.7-7.3 2.4-6.5 2.4-10.2-.8-7.1-2.4-10.1c-1.5-2.8-3.7-5.2-6.6-6.8zm-.5 27.3c-2.4 2.7-5.4 4.1-9.2 4.1h-20.4v-28.2h20.3c3.8 0 6.9 1.3 9.2 3.8 2.4 2.6 3.5 5.9 3.5 9.9.1 4.2-1 7.7-3.4 10.4zm23.8-32.9c.6.6.8 1.3.8 2.1v66.8c0 .9-.3 1.6-.8 2.1-.6.6-1.3.8-2.1.8-.9 0-1.6-.3-2.1-.8-.6-.6-.8-1.3-.8-2.1v-66.8c0-.9.3-1.6.8-2.1.6-.6 1.3-.8 2.1-.8.8-.1 1.5.2 2.1.8zm54.2 21.6c-.9 0-1.6.3-2.1.9-.6.6-.8 1.3-.8 2.2v6.1c-1.6-3.1-4.1-5.6-7.4-7.5s-6.9-2.8-10.8-2.8c-4.3 0-8.1 1.1-11.6 3.3s-6.3 5.3-8.3 9.3-3 8.4-3 13.4 1 9.5 3 13.5 4.7 7.1 8.2 9.4 7.4 3.4 11.8 3.4c3.9 0 7.4-1 10.7-3s5.7-4.5 7.4-7.5v6.6c0 .9.3 1.6.8 2.1.6.6 1.3.8 2.1.8s1.6-.3 2.1-.8c.6-.6.8-1.3.8-2.1v-44.2c0-.8-.3-1.6-.8-2.2s-1.2-.9-2.1-.9zm-4.8 35.5c-1.5 3.2-3.7 5.7-6.4 7.5s-5.8 2.7-9.2 2.7c-3.5 0-6.6-.9-9.3-2.7s-4.8-4.3-6.3-7.5-2.3-6.7-2.3-10.7c0-3.9.8-7.4 2.3-10.6 1.5-3.1 3.7-5.5 6.4-7.3s5.8-2.7 9.2-2.7 6.5.9 9.2 2.7 4.8 4.3 6.4 7.4c1.5 3.1 2.3 6.6 2.3 10.4 0 4.1-.8 7.6-2.3 10.8zm41.3-34.4c.6.6.8 1.2.8 2s-.3 1.4-.8 1.9-1.2.7-2 .7h-9.8v32.9c0 2.5.5 4.2 1.4 5.1s2.1 1.3 3.6 1.3c.4 0 .9-.1 1.5-.2.6-.2 1-.2 1.4-.2.6 0 1.1.2 1.5.7s.6 1.1.6 1.7c0 .9-.5 1.7-1.6 2.3-1 .6-2.3.9-3.7.9-1.8 0-3.3-.2-4.7-.5s-2.7-1.3-4-2.9-1.9-4.3-1.9-7.9v-33.2h-7.2c-.8 0-1.5-.3-2-.8-.6-.5-.8-1.2-.8-2s.3-1.4.8-2c.6-.5 1.2-.8 2-.8h7.2v-10.9c0-.8.3-1.6.8-2.1.6-.6 1.3-.8 2.1-.8s1.6.3 2.1.8c.6.6.8 1.3.8 2.1v10.9h9.8c.9.1 1.6.4 2.1 1zm33.7-19.6c0 .8-.3 1.4-.8 2-.5.5-1.1.8-1.8.8-.6 0-1.3-.2-2.2-.5-1.4-.4-2.6-.6-3.4-.6-2.1 0-3.7.7-4.9 2.1-1.1 1.4-1.7 3.3-1.7 5.7v10.1h11c.7 0 1.4.3 1.9.8.6.5.8 1.2.8 2s-.3 1.4-.8 2c-.6.5-1.2.8-1.9.8h-11v40.7c0 .9-.3 1.6-.8 2.1-.6.6-1.3.8-2.1.8-.9 0-1.6-.3-2.1-.8-.6-.6-.8-1.3-.8-2.1v-40.7h-7.2c-.8 0-1.4-.3-2-.8-.5-.6-.8-1.2-.8-1.9 0-.8.3-1.5.8-2s1.2-.7 2-.7h7.2v-10.1c0-4.1 1.2-7.3 3.6-9.6s5.6-3.4 9.6-3.4c1.8 0 3.5.3 5.1.8 1.6.3 2.3 1.2 2.3 2.5zm37.5 20.8c-3.8-2.3-8-3.4-12.7-3.4-4.6 0-8.9 1.1-12.7 3.4s-6.8 5.4-8.9 9.4c-2.2 4-3.2 8.4-3.2 13.4 0 4.9 1.1 9.4 3.2 13.4 2.2 4 5.1 7.1 8.9 9.4s8 3.4 12.7 3.4c4.6 0 8.9-1.1 12.7-3.4s6.8-5.4 8.9-9.4c2.2-4 3.2-8.4 3.2-13.4 0-4.9-1.1-9.4-3.2-13.4s-5.1-7.1-8.9-9.4zm3.9 33.4c-1.6 3.1-3.9 5.6-6.8 7.4s-6.1 2.7-9.7 2.7c-3.5 0-6.7-.9-9.6-2.7s-5.2-4.3-6.8-7.4c-1.7-3.1-2.5-6.6-2.5-10.5s.8-7.5 2.5-10.6 3.9-5.6 6.8-7.4 6.1-2.7 9.6-2.7 6.8.9 9.7 2.7 5.2 4.3 6.8 7.4 2.5 6.7 2.5 10.6c-.1 3.8-.9 7.3-2.5 10.5zm45.5-33.7c0 .9-.3 1.7-.8 2.2-.5.6-1.1.8-1.9.8-.3 0-1-.2-1.9-.5-1-.3-1.9-.5-2.7-.5-2.4 0-4.8.9-7.2 2.8s-4.4 4.3-5.9 7.2-2.3 5.9-2.3 8.9v24.3c0 .9-.3 1.6-.8 2.1-.6.6-1.3.8-2.1.8-.9 0-1.6-.3-2.1-.8-.6-.6-.8-1.3-.8-2.1v-44c0-.8.3-1.6.8-2.1.6-.6 1.3-.8 2.1-.8s1.6.3 2.1.8c.6.6.8 1.3.8 2.1v8.6c1.5-3.7 3.8-6.8 6.8-9.3s6.6-3.7 10.8-3.8c1.3 0 2.5.3 3.5.8 1.1.7 1.6 1.4 1.6 2.5zm79.9 17.5v27.8c0 .9-.3 1.6-.8 2.1-.6.6-1.3.8-2.1.8-.9 0-1.6-.3-2.1-.8-.6-.6-.8-1.3-.8-2.1v-27.5c0-4.3-1-7.8-3.1-10.6-2.1-2.7-5.3-4.1-9.6-4.1-2.7 0-5.4.7-7.8 2-2.5 1.3-4.4 3.1-5.9 5.4s-2.3 4.7-2.3 7.3v27.5c0 .9-.3 1.6-.8 2.1-.6.6-1.3.8-2.1.8-.9 0-1.6-.3-2.1-.8-.6-.6-.8-1.3-.8-2.1v-27.8c0-4.3-1-7.7-2.9-10.4-2-2.7-5-4-9.2-4-2.7 0-5.2.7-7.6 2s-4.3 3.1-5.8 5.3-2.2 4.6-2.2 7.1v27.8c0 .9-.3 1.6-.8 2.1-.6.6-1.3.8-2.1.8-.9 0-1.6-.3-2.1-.8-.6-.6-.8-1.3-.8-2.1v-44c0-.8.3-1.6.8-2.1.6-.6 1.3-.8 2.1-.8s1.6.3 2.1.8c.6.6.8 1.3.8 2.1v5.7c1.8-2.7 4.2-4.9 7.2-6.7s6.2-2.7 9.5-2.7c3.8 0 7.1.9 9.8 2.7s4.7 4.5 5.9 8c1.4-2.9 3.9-5.4 7.6-7.6s7.4-3.2 11.1-3.2c5.9 0 10.2 1.8 13 5.4 2.6 3.8 3.9 8.6 3.9 14.6z" fill="#003c6a"></path>
    <path d="m298.6 150.8c109.1 0 197.6 2.6 197.6 5.7s-88.5 5.7-197.6 5.7-197.6-2.6-197.6-5.7 88.5-5.7 197.6-5.7" fill="#003c6a" opacity=".3"></path>
    <path d="m454.3 87.7h-67.8c-2.3 0-4.2 1.9-4.2 4.2v60.4c0 2.3 1.9 4.2 4.2 4.2h67.8c2.3 0 4.2-1.9 4.2-4.2v-60.4c.1-2.3-1.8-4.2-4.2-4.2" fill="#1756bc"></path>
    <path d="m371.4 87.7h-69.8c-2.3 0-4.2 1.9-4.2 4.2v60.4c0 2.3 1.9 4.2 4.2 4.2h69.8c2.3 0 4.2-1.9 4.2-4.2v-60.4c.1-2.3-1.8-4.2-4.2-4.2" fill="#fbc65f"></path>
    <path d="m288.8 87.7h-69.4c-2.3 0-4.2 1.9-4.2 4.2v60.4c0 2.3 1.9 4.2 4.2 4.2h69.4c2.3 0 4.2-1.9 4.2-4.2v-60.4c.1-2.3-1.8-4.2-4.2-4.2" fill="#bc4797"></path>
    <path d="m408 18.8h-67.7c-2.3 0-4.2 1.9-4.2 4.2v60.4c0 2.3 1.9 4.2 4.2 4.2h67.7c2.3 0 4.2-1.9 4.2-4.2v-60.3c0-2.4-1.9-4.3-4.2-4.3" fill="#bf0a17"></path>
    <path d="m289.1 87.7h-52.3c-2.2 0-4 1.8-4 4v60.9c0 2.2 1.8 4 4 4h52.3c2.2 0 4-1.8 4-4v-60.9c0-2.2-1.8-4-4-4" fill="#e251b5"></path>
    <path d="m322.1 87.7h-21.8c-1.6 0-2.9 1.4-2.9 3.2v62.4c0 1.8 1.3 3.2 2.9 3.2h21.8c1.6 0 2.9-1.4 2.9-3.2v-62.4c0-1.8-1.3-3.2-2.9-3.2" fill="#ffb830"></path>
    <path d="m407.1 18.8h-51.1c-2.8 0-5.1 2.3-5.1 5.1v58.6c0 2.8 2.3 5.1 5.1 5.1h51.1c2.8 0 5.1-2.3 5.1-5.1v-58.6c0-2.8-2.3-5.1-5.1-5.1" fill="#e005a3"></path>
    <path d="m325.7 18.8h-65.1c-2.3 0-4.2 1.9-4.2 4.2v60.4c0 2.3 1.9 4.2 4.2 4.2h65.1c2.3 0 4.2-1.9 4.2-4.2v-60.3c0-2.4-1.9-4.3-4.2-4.3" fill="#0dce93"></path>
    <path d="m302.8 18.8h-43.4c-1.7 0-3.1 1.4-3.1 3.1v62.8c0 1.7 1.4 3.1 3.1 3.1h43.4c1.7 0 3.1-1.4 3.1-3.1v-62.8c-.1-1.7-1.4-3.1-3.1-3.1" fill="#0fac7c"></path>
    <path d="m454.6 87.7h-48.2c-2.2 0-4 1.8-4 4v60.9c0 2.2 1.8 4 4 4h48.2c2.2 0 4-1.8 4-4v-60.9c0-2.2-1.8-4-4-4" fill="#316de6"></path>
    <path d="m134 55c4.5 1.9 7.4 4.2 11.1 7.9l-5 3.8c-1.3-1.4-11-.9-9.5-2 2.8-2.2 1.1-4.2-1.5-5.2-4.9-2.8-6.4 10.1-18.7 6.3-8.3-2.5-11.9-10.2-9.4-17.4s11.2-11 19.4-8.3c4.9 1.6 7.3 5.5 7.7 9.8.2 4.5.7 2.9 5.9 5.1" fill="#158bc2"></path>
    <path d="m205.3 103.4c-2.5-3.7 10.2-16.8 17.6-26.7s13.4-8.3 16.6-5.7 3.5 10.4-3.7 17.7c-7.2 7.4-27.9 18.4-30.5 14.7" fill="#158bc2"></path>
    <path d="m145.3 157.3c11.6 0 13.8-7.5 21.4-7.6s11 7.6 22.1 7.6c18 0 29.8-38.7 29.8-59.9 0-27.2-23-45.4-51.4-45.4s-51.4 18.3-51.4 45.4c-.1 32.1 13.7 59.9 29.5 59.9" fill="#158bc2"></path>
    <path d="m220.4 86.2c-.9-1.6 3.1-3.8 6.6-8.5 3.6-4.7 6.5-5.6 7.4-4s-.7 4.9-4.4 8c-3.6 3.2-8.7 6.2-9.6 4.5" fill="#fff"></path>
    <path d="m117.8 41.6c3.1 0 5.6 2.5 5.6 5.6 0 5.6-11.1 5.9-11.1-.8-.1-3.1 2.4-4.8 5.5-4.8" fill="#fff"></path>
    <path d="m129.3 97.2c1.4 4.3-14.4 13.4-24.2 20.8-9.8 7.5-15.1 4.3-17.5.9-2.3-3.4-.5-11 8.4-16.1 8.9-5 31.8-9.9 33.3-5.6" fill="#158bc2"></path>
    <path d="m93.4 113.7c.7.8.6 2.2-.3 3.1-.8.9-2.1 1-2.7.2-.7-.8-.6-2.2.3-3.1.8-.9 2.1-1 2.7-.2m18.3-11.8c1.3 1.3-4.2.4-12.6 7.4-3 2.5-4 4.1-5.5 3.1-.6-.4-1.9-1.9 2.3-5.4 4.3-3.4 14.4-6.6 15.8-5.1z" fill="#fff"></path>
    <path d="m169.4 54c25.3 0 45.8 20.5 45.8 45.8 0 46.1-91.4 48.5-91.4-6.7 0-25.3 20.3-39.1 45.6-39.1" fill="#289bcd"></path>
    <path d="m169.6 105.7c7.8-.5 10.5-3.4 14-.6 3.6 2.8-2.2 13.1-13.3 13.8-11 .7-17.8-8.8-14.8-12.1 2.9-3.3 6.3-.6 14.1-1.1" fill="#003c6a"></path>
    <path d="m177.5 115.1c-1.9 1.4-4.4 2.4-7.3 2.5-3 .2-5.7-.6-7.8-1.7 0-2.4 4.2-3.9 7.4-2.5 3.3-1.8 7.5-.7 7.7 1.7" fill="#158bc2"></path>
    <path d="m169.6 106.6c5.1-.3 7.8-1.6 10.1-1.7v.1c.1 1.8-1.1 3.3-2.8 3.4-.5 0-1-.1-1.5-.3-.5 1.1-1.6 1.9-2.9 2-1.1.1-2.2-.4-2.8-1.3-.5.9-1.5 1.5-2.7 1.6-1.3.1-2.5-.6-3.1-1.7-.4.3-1 .5-1.5.6-1.6.1-3.1-1.3-3.2-3 0-.1 0-.1 0-.2 2.4-.1 5.3.8 10.4.5" fill="#fff"></path>
    <path d="m208.5 81.9c1-.2 2.1.6 2.5 1.8s-.2 2.3-1.2 2.5-2.1-.7-2.5-1.8c-.3-1.3.2-2.4 1.2-2.5m-40.6-14.1c-9 1.8-11.7-6.8-.4-9.5 14.2-3.4 34.3 5.8 40.4 18.6 1.6 3.4-.9 4.7-3.7 1.3-7.6-9.5-21.3-13.5-36.3-10.4z" fill="#eef7f8"></path>
    <path d="m193 85.9c4.5-.1 8.3 3.4 8.4 7.9s-3.4 8.3-7.9 8.4-8.3-3.4-8.4-7.9c-.2-4.5 3.4-8.2 7.9-8.4" fill="#003c6a"></path>
    <path d="m196.7 88.4c1.3 0 2.3.9 2.3 2.2s-.9 2.3-2.2 2.3-2.3-.9-2.3-2.2c0-1.2 1-2.3 2.2-2.3" fill="#eef7f8"></path>
    <path d="m144 86.5c4.5-.1 8.3 3.4 8.4 7.9s-3.4 8.3-7.9 8.4-8.3-3.4-8.4-7.9c-.2-4.5 3.4-8.3 7.9-8.4" fill="#003c6a"></path>
    <path d="m147.7 89c1.3 0 2.3.9 2.3 2.2s-.9 2.3-2.2 2.3-2.3-.9-2.3-2.2c0-1.2 1-2.3 2.2-2.3" fill="#eef7f8"></path>
    <path d="m219.1 0h74.2c2.5 0 4.6 2.1 4.6 4.6v65.9c0 2.5-2.1 4.6-4.6 4.6h-74.2c-2.5 0-4.6-2.1-4.6-4.6v-65.9c-.1-2.5 2-4.6 4.6-4.6" fill="#3f609d"></path>
    <path d="m239.5 0h53.5c2.8 0 5 2.3 5 5v65.2c0 2.7-2.3 5-5 5h-53.5c-2.8 0-5-2.2-5-5v-65.2c0-2.7 2.2-5 5-5" fill="#466baf"></path>
    <g fill="#fff">
      <path d="m249.2 56.6 14-27.7v25.2z"></path>
      <path d="m263.2 66-14-7h37.6z"></path>
      <path d="m286.8 56.6-21.2-46.3v43.8z"></path>
      <path d="m270.8 106.6 6.2 3.9 6.1 3.9c.5.3.7.8.7 1.3v6.5 6c0 .7-.4 1.3-1.1 1.5l-6 2.6-6.2 2.6c-.5.2-1 .1-1.4-.1l-6.2-3.9-6.2-3.9c-.5-.3-.7-.8-.7-1.3v-6-6.5c0-.7.4-1.3 1.1-1.5l6-2.6 6.2-2.6c.5-.3 1-.2 1.5.1zm4.4 6.5-5.5-3.5-5.4 2.3-5.2 2.2v5.5 5.2l5.4 3.4 5.5 3.5 5.4-2.3 5.2-2.2v-5-5.7zm-14.4 1.6 4.2 2.7 4.8 3.1c.4.3.6.7.6 1.1v5.1 3.6l-.3.1-2.4-1.5v-2.2-4.4l-4.2-2.7-3.2-2.1v-2.7zm5.3 19.5-1.3.5-4.8 2.1c-.4.2-.9.1-1.2-.1l-4.8-3.1-4.8-3.1c-.4-.3-.6-.7-.6-1.1v-4.7-5.1c0-.6.4-1.1.9-1.3l4.7-2 .9-.4v2.9l-3.8 1.6v4.2 4l4.2 2.7 4.2 2.7 3.8-1.6zm-13.9-12.7 2.3 1.5.4.3v2.6l-1.6-1-1.1-.7zm6.6 8.1v.6 2l-2.2-1.4v-.6-2zm-3.4 6.4-1.1.5-3.3 1.4c-.3.1-.7.1-1-.1l-3.7-2.4-3.7-2.4c-.3-.2-.5-.6-.5-.9v-3.6-3.9c0-.5.3-.9.8-1.1l3.2-1.4 1.2-.5v2.4l-.3.1-2.6 1.1v3.2 3l3.2 2 3.2 2 2.4-1z"></path>
    </g>
    <path d="m354.7 100.1 2 3.5 2 3.5-2 3.5-2 3.5h-4-4l-2-3.5-2-3.5 2-3.5 2-3.5h4z" fill="#373737"></path>
    <path d="m353.7 101.9 1.5 2.6 1.5 2.6-1.5 2.6-1.5 2.6h-3-3l-1.5-2.6-1.4-2.6 1.4-2.6 1.5-2.6h3z" fill="#f8c514"></path>
    <path d="m333.7 107.7h4 4l2 3.4 2 3.5-2 3.5-2 3.5h-4-4l-2-3.5-2-3.5 2-3.5z" fill="#373737"></path>
    <path d="m334.7 109.5h3 3l1.5 2.5 1.5 2.6-1.5 2.6-1.5 2.6h-3-3l-1.5-2.6-1.4-2.6 1.4-2.6z" fill="#c9dd72"></path>
    <path d="m329.7 129.6 2-3.5 2-3.4h4 4l2 3.4 2 3.5-2 3.5-2 3.5h-4-4l-2-3.5z" fill="#373737"></path>
    <path d="m331.8 129.6 1.4-2.6 1.5-2.5h3 3l1.5 2.5 1.5 2.6-1.5 2.6-1.5 2.6h-3-3l-1.5-2.6z" fill="#96c83f"></path>
    <path d="m346.7 144.1-2-3.5-2-3.5 2-3.5 2-3.4h4 4l2 3.4 2 3.5-2 3.5-2 3.5h-4z" fill="#373737"></path>
    <path d="m347.7 142.3-1.5-2.6-1.4-2.6 1.4-2.6 1.5-2.5h3 3l1.5 2.5 1.5 2.6-1.5 2.6-1.5 2.6h-3z" fill="#6388c5"></path>
    <path d="m367.7 136.6h-4-4l-2-3.5-2-3.5 2-3.5 2-3.4h4 4l2 3.4 2 3.5-2 3.5z" fill="#373737"></path>
    <path d="m366.7 134.8h-3-3l-1.5-2.6-1.4-2.6 1.4-2.6 1.5-2.5h3 3l1.5 2.5 1.5 2.6-1.5 2.6z" fill="#8062a8"></path>
    <path d="m371.7 114.6-2 3.5-2 3.5h-4-4l-2-3.5-2-3.5 2-3.5 2-3.4h4 4l2 3.4z" fill="#373737"></path>
    <path d="m369.7 114.6-1.5 2.6-1.5 2.6h-3-3l-1.5-2.6-1.4-2.6 1.4-2.6 1.5-2.5h3 3l1.5 2.5z" fill="#f17424"></path>
    <path d="m354.7 115.2 2 3.4 2 3.5-2 3.5-2 3.5h-4-4l-2-3.5-2-3.5 2-3.5 2-3.4h4z" fill="#373737"></path>
    <path d="m353.7 117 1.5 2.5 1.5 2.6-1.5 2.6-1.5 2.6h-3-3l-1.5-2.6-1.4-2.6 1.4-2.6 1.5-2.5h3z" fill="#e8232a"></path>
    <path d="m378.6 68.5c1-.3 1.2-1.1 3-1.1 1.6 0 2 .7 3 1.2 1-.5 8.7-4.8 8.9-5.3l-23.7-.1c.6.7 7.5 4.6 8.8 5.3m17.6-10.1v-10.4c-3.2-1.4-2.7-2.5-2.9-5l-8.9-5.2c.2.9 2.3 4.3 2.9 5.3 1 1.7 1.8 3.2 3 5.1.6 1.3 5.4 10 5.9 10.2zm-26.5-15.3c.2 2.9-.7 4-2.9 4.9v10.4c.6-.3 8.2-13.9 9-15.2.5-.8 2.7-4.4 2.9-5.2-.7.2-8.1 4.5-9 5.1zm-1.1 16.3c.2.3.5.7.7.9.2.3.3.9.7 1h23.4c.3-.9.5-1.1 1-1.9-.3-1-10.9-19.1-11.6-20.3l-2.4-.1zm9-23.1-8.8 5.1c-1.2-.5-1.3-1.3-3.5-1.1-2.5.3-4.1 3.1-3 5.6.6 1.3 1.4 1.6 2.6 2.2v10.4c-2.9 1.1-3.7 3.6-2.5 5.8.5.9 1.5 1.7 2.7 1.9 1.9.3 2.4-.6 3.6-1.1l8.9 5.1c-.7 5.2 4.5 6.3 6.8 3.6.9-1.1.9-2.1.8-3.8 1.8-.7 7.8-4.7 9-5 5.2 4.4 10.2-4.3 3.8-6.5v-10.4c4.6-1.6 3.4-7.1-.2-7.7-2-.3-2.5.5-3.6 1.1l-8.9-5.1c0-1.7.2-2.5-.7-3.6-.7-.8-1.6-1.5-3-1.5-1.5 0-2.5.7-3.1 1.5-.9 1.1-.8 1.8-.9 3.5z" fill="#fff"></path>
    <path d="m429.6 100.8c-.9.1-2.9 1.3-3.8 1.7l-10.9 5.3c-1.5.7-2.3.9-2.7 2.7l-3 13.3c-.9 3.8-1.3 4 .5 6.2l8.4 10.5c.8 1 1.6 2.2 2.7 2.7 1.2.5 13.1.3 16 .3 4.2 0 3.2.3 6.7-4.1l7.2-9c.7-.9 1.9-1.9 1.5-3.7-.3-1.5-.7-3-1-4.5-.7-2.9-1.3-5.9-2-8.8-1.1-4.7-.6-4.2-4.7-6.1l-10.9-5.3c-1.1-.7-2.2-1.5-4-1.2zm-.4 10.2c-1.7.2-3.2.6-4.5 1.3-1.6.8-2.1 1.4-3.3 2.5-.5-.4-.6.2-2.1-1.4-.3-.3-1.5-1.9-2.3-.8-.7 1.1.7 1.7 1.3 2.1 1.3.8 1.2.7 1.7 1.6.2.3 0-.1.2.3-.7 1.1-1.2 2.3-1.6 3.6-.5 1.9-.3 2.9-.3 4.8-.1 0-.2.1-.3.1-.1.1-.1.1-.2.2-.2.2-.1.2-.5.3-1.2.3-3.9 0-3.5 1.6.3 1.4 2.2.2 3.6-.2.7-.2.7.1 1.4.1.6 2.6 3.1 5.4 5.4 6.8-.3 1 .1.6-.2 1.3-.4.9-1.2 1.8-1.3 2.2-.5 1.2 1.2 2.8 2.1-.2.8-2.6 1-1.3 1.3-2.3 1.6.3 2.4.8 4.4.8 1.8 0 2.8-.4 4.4-.8l.4.4c.5.3.7 1.1.9 1.8s.7 2.3 1.8 1.6c1.5-.9-1.1-2.8-1.1-4.1 0-.4 0-.4 0-.8 1.5-.6 3.6-3.1 4.5-4.7.4-.7.6-1.5.9-2.1.8-.3 1.7-.1 2.5.3.4.2.8.4 1.3.4 1.1.1 1.5-1 .5-1.6-.4-.2-.9-.2-1.4-.3-1.5-.1-1.6-.1-2.2-.6l-.4-.2c0-2 .2-2.9-.4-4.8-.2-.9-1.1-3.1-1.6-3.6.2-.4.1-.1.3-.6.2-.6.6-.8 1.5-1.3.6-.4 2-1 1.4-2.1-.7-1.2-2 .3-2.7 1-.3.3-.2.2-.5.5-.2.1-.3.3-.6.4-.2.1-.2 0-.4.1-.1 0-.2.1-.3.1-1.3-1.1-1.4-1.4-3.3-2.4-1.4-.7-2.7-1.1-4.5-1.3-.1-.2-.1-.2-.2-.5-.6-1.1.3-2.6 0-3.7-.1-.3-.5-.7-.9-.7-1.3 0-.9 1.7-.8 2.1.1.6.3 1.5 0 2.1-.2.4-.3.6-.4.7zm6.5 20.7c1.3-.7 3.4-3 3.9-4.9-1-.2-2-.4-3.1-.5-.8-.1-2.4-.7-2.8.2-.2.5 1.8 5 2 5.2zm-12.2-15.3c.1.2 0 0 .2.2.1.1.2.1.3.2.2.1.3.2.5.4.3.2.7.5 1.1.7.3.2 1.9 1.5 2.2 1.5 1.3.4 1.1-1.4 1.2-2.3.1-1 .2-2.5.2-3.5-2.7.4-4.3 1.4-5.7 2.8zm-2.3 10.5c.3 1.2 1.7 3.2 2.6 3.9.3.3.9.7 1.3.9.4-1.3 2.1-4.5 1.9-5.2-.3-.9-1.9-.4-2.7-.2-.8.1-2.6.3-3.1.6zm16-10.6c-1.2-1.2-3.2-2.4-5.6-2.7 0 1.1.1 2.2.2 3.4.1 1-.2 2.8 1.2 2.4.2-.1 4-2.9 4.2-3.1zm-16.6 8.1c.5 0 2.4-.6 2.9-.8 1.4-.4 2.6-.5 2.5-1.5-.1-.5-1.5-1.6-1.9-2l-1-.9c-.4-.4-.7-.7-1.1-.9-.3.9-.8 1.5-1.1 2.6-.3 1.2-.4 2.2-.3 3.5zm19.5 0c.1-2-.3-4.9-1.4-6.1-.2.1-3.9 3.3-4 3.7-.2 1 1 1.1 2.3 1.5 1.1.4 2.2.7 3.1.9zm-12.9 8.5c3.8.7 2.4.7 6.2 0l-2.1-3.8c-1.2-2.2-1.9-.4-2.7 1.2-.4.7-1.1 1.8-1.4 2.6zm2.3-11s-.7.8-.7.9c-.2.3 0 .8.1 1.3.1.6.4.5.9.7.6.3.6.3 1.2 0 .5-.3.7-.2.9-.8.1-.6.3-.9 0-1.4-.1-.1-.6-.8-.8-.9-.2.1-1.4.1-1.6.2z" fill="#fff"></path>
  </g>
</svg>
