<svg xmlns="http://www.w3.org/2000/svg" fill="none" viewBox="0 0 172 32"><g clip-path="url(#a)"><path fill="#09032F" d="M46.378 22.703A.584.584 0 0 1 46 22.54a.49.49 0 0 1-.162-.379v-.216l5.621-15.351c.055-.217.163-.325.325-.487.162-.162.378-.216.648-.216H56c.27 0 .486.054.649.216.162.108.27.27.324.487l5.622 15.351.054.216c0 .108-.054.27-.163.379a.49.49 0 0 1-.378.162h-2.973c-.378 0-.648-.162-.757-.487l-.919-2.432h-6.432l-.919 2.432c-.108.325-.378.487-.81.487h-2.92Zm10.108-6.379L54.27 10l-2.216 6.324h4.432ZM68 22.973c-1.297 0-2.378-.162-3.243-.54-.865-.379-1.514-.811-1.892-1.298-.433-.486-.649-.973-.649-1.351 0-.162.054-.27.162-.379a.614.614 0 0 1 .433-.162h2.757c.108 0 .162.054.27.108.216.108.324.217.432.325.325.27.649.432.92.594.27.108.594.163.972.163.487 0 .865-.109 1.135-.27.325-.217.433-.433.433-.812 0-.27-.054-.486-.216-.648-.163-.162-.433-.325-.865-.433-.433-.162-1.081-.324-1.946-.486-1.352-.27-2.325-.703-3.081-1.297-.703-.65-1.027-1.46-1.027-2.487 0-.649.216-1.297.648-1.892.433-.594 1.027-1.08 1.838-1.46.81-.378 1.838-.54 2.919-.54 1.135 0 2.108.162 2.973.54.865.325 1.46.757 1.892 1.298.432.486.649.973.649 1.351a.49.49 0 0 1-.163.379.49.49 0 0 1-.378.162h-2.486c-.109 0-.27-.054-.379-.108a1.94 1.94 0 0 1-.54-.379 4.353 4.353 0 0 0-.757-.486c-.216-.108-.54-.162-.865-.162-.432 0-.757.108-1.027.27-.216.216-.378.432-.378.757 0 .216.054.432.216.594.162.162.432.325.865.487.432.162 1.08.27 1.946.432 1.567.27 2.648.757 3.351 1.46.703.702 1.081 1.513 1.081 2.432 0 1.19-.54 2.108-1.567 2.865-1.082.595-2.541.973-4.433.973ZM79.946 22.973c-1.297 0-2.378-.162-3.243-.54-.865-.379-1.514-.811-1.892-1.298-.433-.486-.649-.973-.649-1.351 0-.162.054-.27.162-.379a.614.614 0 0 1 .433-.162h2.757c.108 0 .162.054.27.108.216.108.324.217.432.325.325.27.649.432.92.594.27.108.594.163.972.163.487 0 .865-.109 1.135-.27.325-.217.433-.433.433-.812 0-.27-.054-.486-.216-.648-.163-.162-.433-.325-.865-.433-.433-.162-1.081-.324-1.946-.486-1.352-.27-2.325-.703-3.081-1.297-.703-.65-1.027-1.46-1.027-2.487 0-.649.216-1.297.648-1.892.433-.594 1.027-1.08 1.838-1.46.81-.378 1.838-.54 2.919-.54 1.135 0 2.108.162 2.973.54.865.325 1.46.757 1.892 1.298.432.486.648.973.648 1.351a.49.49 0 0 1-.162.379.49.49 0 0 1-.378.162h-2.486c-.109 0-.27-.054-.379-.108a1.94 1.94 0 0 1-.54-.379 4.353 4.353 0 0 0-.757-.486c-.216-.108-.54-.162-.865-.162-.432 0-.757.108-1.027.27-.216.216-.378.432-.378.757 0 .216.054.432.216.594.162.162.432.325.865.487.432.162 1.08.27 1.946.432 1.567.27 2.648.757 3.35 1.46.704.702 1.082 1.513 1.082 2.432 0 1.19-.54 2.108-1.568 2.865-1.08.595-2.54.973-4.432.973ZM92.487 22.973c-1.892 0-3.406-.54-4.541-1.568-1.081-1.027-1.676-2.54-1.73-4.54V16c.054-1.892.649-3.351 1.73-4.432 1.135-1.082 2.595-1.622 4.487-1.622 1.35 0 2.486.27 3.405.865a5.35 5.35 0 0 1 2.108 2.27c.487.973.703 2.054.703 3.297v.595a.614.614 0 0 1-.162.432.613.613 0 0 1-.433.163h-7.676v.162c.055.756.217 1.351.541 1.838.324.486.81.702 1.46.702.378 0 .702-.054.972-.216s.487-.378.703-.649l.324-.324c.109-.054.217-.054.433-.054h2.973a.49.49 0 0 1 .378.162c.108.054.162.216.162.325 0 .432-.216.919-.702 1.459-.487.54-1.135 1.027-2.054 1.405-.865.379-1.892.595-3.081.595Zm2-7.784c0-.81-.163-1.46-.541-1.892-.324-.486-.865-.702-1.46-.702-.648 0-1.135.216-1.459.702-.324.433-.54 1.081-.54 1.838v.054h4ZM100.216 22.703a.613.613 0 0 1-.432-.162.614.614 0 0 1-.162-.433V10.865c0-.162.054-.324.162-.433a.614.614 0 0 1 .432-.162h2.595c.162 0 .324.054.432.162.108.109.162.27.162.433v.81c.379-.486.865-.864 1.46-1.189a4.49 4.49 0 0 1 2.108-.486c1.73 0 2.973.703 3.622 2.054.378-.595.919-1.081 1.621-1.46.703-.378 1.406-.594 2.216-.594 1.298 0 2.379.432 3.19 1.351.81.865 1.243 2.217 1.243 3.946v6.811a.614.614 0 0 1-.162.433.615.615 0 0 1-.433.162h-2.756a.614.614 0 0 1-.433-.162.614.614 0 0 1-.162-.433V15.46c0-.81-.162-1.35-.487-1.73a1.788 1.788 0 0 0-1.297-.54c-.486 0-.919.162-1.243.54-.324.325-.487.92-.487 1.676v6.65a.614.614 0 0 1-.162.431.613.613 0 0 1-.432.163h-2.757a.613.613 0 0 1-.432-.163.614.614 0 0 1-.162-.432V15.46c0-.757-.163-1.352-.541-1.676-.324-.379-.757-.54-1.297-.54-.487 0-.919.161-1.298.54-.324.324-.486.919-.486 1.675v6.65a.614.614 0 0 1-.162.432.615.615 0 0 1-.433.162h-3.027ZM127.838 22.973c-1.622 0-2.811-.54-3.73-1.622v.757a.614.614 0 0 1-.162.433.613.613 0 0 1-.432.162h-2.703a.617.617 0 0 1-.433-.162.614.614 0 0 1-.162-.433V6.324c0-.162.054-.324.162-.432a.617.617 0 0 1 .433-.162h2.919c.162 0 .324.054.432.162.108.108.162.27.162.432v5.136c.919-.92 2.054-1.406 3.514-1.406 1.567 0 2.757.487 3.676 1.514.918 1.027 1.351 2.378 1.459 4.108v1.729c-.054 1.784-.541 3.19-1.459 4.163-.919.918-2.109 1.405-3.676 1.405Zm-1.297-3.243c.756 0 1.297-.216 1.621-.649.325-.432.541-1.081.595-1.838.054-.324.054-.54.054-.756 0-.163 0-.433-.054-.757-.054-.757-.216-1.406-.595-1.838-.324-.432-.865-.649-1.621-.649-.703 0-1.244.216-1.622.649-.378.432-.541.973-.595 1.622v1.783c.054.703.217 1.298.595 1.784.324.433.865.649 1.622.649ZM134.595 22.703a.614.614 0 0 1-.433-.162.614.614 0 0 1-.162-.433V6.324c0-.162.054-.324.162-.432a.614.614 0 0 1 .433-.162h2.81c.163 0 .325.054.433.162.108.108.162.27.162.432v15.784a.614.614 0 0 1-.162.433.614.614 0 0 1-.433.162h-2.81ZM141.838 27.243a.494.494 0 0 1-.379-.162.49.49 0 0 1-.162-.378c0-.108 0-.216.054-.325l1.892-4.486-4.594-10.865c-.054-.108-.054-.216-.054-.27a.871.871 0 0 1 .216-.379.49.49 0 0 1 .378-.162h2.757c.324 0 .541.162.703.487l2.756 6.973 2.811-6.973c.162-.325.379-.487.703-.487h2.703a.49.49 0 0 1 .378.162c.108.108.162.217.162.325 0 .054 0 .162-.054.324l-6.757 15.676c-.108.324-.378.486-.702.486h-2.811v.054ZM150.811 22.703a.587.587 0 0 1-.379-.162.49.49 0 0 1-.162-.379v-.216l5.622-15.351c.054-.217.162-.325.324-.487a1.16 1.16 0 0 1 .649-.216h3.567c.271 0 .487.054.649.216.162.162.27.27.324.487l5.622 15.351.054.216c0 .108-.054.27-.162.379a.49.49 0 0 1-.378.162h-2.973c-.379 0-.649-.162-.757-.487l-.919-2.432h-6.378l-.919 2.432c-.108.325-.379.487-.811.487h-2.973Zm10.108-6.379L158.703 10l-2.216 6.324h4.432ZM168.162 22.703a.613.613 0 0 1-.432-.162.614.614 0 0 1-.162-.433V6.541c0-.163.054-.325.162-.433a.613.613 0 0 1 .432-.162h3.189c.163 0 .325.054.433.162.108.108.216.27.216.433v15.567a.492.492 0 0 1-.216.433.614.614 0 0 1-.433.162h-3.189Z"/><path fill="url(#b)" d="M3.676 20.54.973 26.974C.216 28.757.054 30.811 2 31.568c.487.162.919.27 1.405.27 1.46 0 2.92-.865 3.46-2.216l.54-1.298 4.217-9.946 4.216-9.891c1.027-1.73 1.622-4.433 5.568-5.892-3.082-.433-9.244-1.244-9.298-1.244-.054.054-.432.703-.486.757a1.62 1.62 0 0 0-.216.433l-7.73 18c.054-.055 0-.055 0 0Z"/><path fill="url(#c)" d="m31.081 20.54 2.757 6.433c.757 1.784.919 3.838-1.027 4.595-.487.162-.919.27-1.405.27-1.46 0-2.92-.865-3.46-2.216l-.54-1.298-4.27-9.946-4.217-9.891c-1.027-1.73-2.703-5.406-7.19-6.541C12.325.595 14.27.378 15.785.378H20c.162 0 .324 0 .487.054.108 0 .162 0 .27.055.108 0 .216.054.324.108.108.054.27.054.378.108.055 0 .109.054.163.054.162.054.324.162.486.216.108.054.216.162.27.216.109.054.163.108.27.216l.217.217.27.27c.054.054.054.162.108.216.108.162.163.27.216.433l7.622 18c0-.055 0-.055 0 0Z"/></g><defs><radialGradient id="b" cx="0" cy="0" r="1" gradientTransform="rotate(163.002 53.071 9.908) scale(96.729 52.3714)" gradientUnits="userSpaceOnUse"><stop stop-color="#142167"/><stop offset="1" stop-color="#263DB5"/></radialGradient><radialGradient id="c" cx="0" cy="0" r="1" gradientTransform="matrix(-18.5563 20.31462 -71.07785 -64.92574 32.14 7.258)" gradientUnits="userSpaceOnUse"><stop stop-color="#4259D4"/><stop offset="1" stop-color="#6A81FC"/></radialGradient><clipPath id="a"><path fill="#fff" d="M.433 0H172v32H.433z"/></clipPath></defs></svg>