<svg xmlns="http://www.w3.org/2000/svg" fill="none" viewBox="0 0 110 20"><path fill="#21232E" d="m55.49 18.28-4.486-6.197c1.84-.786 2.919-2.245 2.919-4.4 0-3.188-2.2-4.895-5.95-4.895h-5.41V18.28h3.816v-5.32h.965l3.413 5.32h4.734ZM50.15 7.906c0 1.482-.942 2.29-2.603 2.29h-1.19V5.684h1.235c1.66 0 2.559.786 2.559 2.223Z"/><path fill="#21232E" d="m65.027 17.269-.336-2.402c-1.213.718-2.403 1.167-3.615 1.167-1.504 0-2.537-.65-2.716-2.402h6.645c.022-.18.045-.539.045-.876 0-3.188-1.482-5.702-4.872-5.702-2.986 0-5.186 2.178-5.186 5.77 0 3.906 2.357 5.68 5.658 5.68 1.728 0 3.188-.472 4.377-1.235Zm-4.939-8.015c1.033 0 1.617.853 1.729 2.514h-3.48c.112-1.683.786-2.514 1.751-2.514ZM81.307 7.278h-3.143l-1.46 6.399-1.571-6.399H72.08l-1.55 6.399-1.504-6.556-3.502.427 3.008 10.731h3.256l1.594-6.286 1.616 6.286h3.233l3.076-11ZM86.17 4.023c0-1.122-.83-1.863-1.93-1.863-1.078 0-1.932.74-1.932 1.863 0 1.1.853 1.819 1.931 1.819 1.1 0 1.93-.719 1.93-1.819Zm-.225 14.256v-11h-3.412v11h3.412ZM97.905 18.28v-7.814c0-2.155-1.077-3.412-3.12-3.412-1.392 0-2.447.74-3.435 1.729l-.247-1.505h-2.986V18.28h3.39V11.05c.606-.606 1.212-.988 1.863-.988.808 0 1.123.54 1.123 1.325v6.892h3.412ZM109.829 18.28V2.07l-3.39.539V7.57c-.629-.224-1.325-.381-2.335-.381-2.425 0-4.647 1.706-4.647 5.904 0 3.704 1.729 5.41 3.974 5.41 1.414 0 2.424-.83 3.165-1.66l.225 1.436h3.008Zm-3.39-3.907c-.584.65-1.167 1.122-1.886 1.122-.965 0-1.684-.763-1.684-2.649 0-2.11.853-2.986 1.976-2.986.718 0 1.1.09 1.594.315v4.198Z"/><mask id="e" fill="#fff"><path fill-rule="evenodd" d="M16.134 8.839 30.58.196c1.027-.615 2.289.31 2.01 1.475l-.488 2.044a27.058 27.058 0 0 0 0 12.57l.488 2.044c.279 1.165-.983 2.09-2.01 1.475l-14.447-8.643a1.378 1.378 0 0 1-.228-.17c.065 1.779.306 3.552.722 5.294l.488 2.044c.278 1.165-.983 2.09-2.01 1.475L.657 11.161a1.353 1.353 0 0 1 0-2.322L15.105.196c1.028-.615 2.29.31 2.011 1.475l-.488 2.044a27.06 27.06 0 0 0-.722 5.293c.068-.062.144-.119.228-.169Z" clip-rule="evenodd"/></mask><path fill="url(#a)" fill-rule="evenodd" d="M16.134 8.839 30.58.196c1.027-.615 2.289.31 2.01 1.475l-.488 2.044a27.058 27.058 0 0 0 0 12.57l.488 2.044c.279 1.165-.983 2.09-2.01 1.475l-14.447-8.643a1.378 1.378 0 0 1-.228-.17c.065 1.779.306 3.552.722 5.294l.488 2.044c.278 1.165-.983 2.09-2.01 1.475L.657 11.161a1.353 1.353 0 0 1 0-2.322L15.105.196c1.028-.615 2.29.31 2.011 1.475l-.488 2.044a27.06 27.06 0 0 0-.722 5.293c.068-.062.144-.119.228-.169Z" clip-rule="evenodd"/><path fill="url(#b)" fill-opacity=".3" fill-rule="evenodd" d="M16.134 8.839 30.58.196c1.027-.615 2.289.31 2.01 1.475l-.488 2.044a27.058 27.058 0 0 0 0 12.57l.488 2.044c.279 1.165-.983 2.09-2.01 1.475l-14.447-8.643a1.378 1.378 0 0 1-.228-.17c.065 1.779.306 3.552.722 5.294l.488 2.044c.278 1.165-.983 2.09-2.01 1.475L.657 11.161a1.353 1.353 0 0 1 0-2.322L15.105.196c1.028-.615 2.29.31 2.011 1.475l-.488 2.044a27.06 27.06 0 0 0-.722 5.293c.068-.062.144-.119.228-.169Z" clip-rule="evenodd" style="mix-blend-mode:overlay"/><path fill="url(#c)" fill-opacity=".2" fill-rule="evenodd" d="M16.134 8.839 30.58.196c1.027-.615 2.289.31 2.01 1.475l-.488 2.044a27.058 27.058 0 0 0 0 12.57l.488 2.044c.279 1.165-.983 2.09-2.01 1.475l-14.447-8.643a1.378 1.378 0 0 1-.228-.17c.065 1.779.306 3.552.722 5.294l.488 2.044c.278 1.165-.983 2.09-2.01 1.475L.657 11.161a1.353 1.353 0 0 1 0-2.322L15.105.196c1.028-.615 2.29.31 2.011 1.475l-.488 2.044a27.06 27.06 0 0 0-.722 5.293c.068-.062.144-.119.228-.169Z" clip-rule="evenodd"/><path fill="url(#d)" fill-opacity=".4" fill-rule="evenodd" d="M16.134 8.839 30.58.196c1.027-.615 2.289.31 2.01 1.475l-.488 2.044a27.058 27.058 0 0 0 0 12.57l.488 2.044c.279 1.165-.983 2.09-2.01 1.475l-14.447-8.643a1.378 1.378 0 0 1-.228-.17c.065 1.779.306 3.552.722 5.294l.488 2.044c.278 1.165-.983 2.09-2.01 1.475L.657 11.161a1.353 1.353 0 0 1 0-2.322L15.105.196c1.028-.615 2.29.31 2.011 1.475l-.488 2.044a27.06 27.06 0 0 0-.722 5.293c.068-.062.144-.119.228-.169Z" clip-rule="evenodd" style="mix-blend-mode:overlay"/><path fill="#000" fill-opacity=".12" d="M30.58.196 30.53.11l.05.086ZM16.135 8.839l-.052-.086.052.086ZM32.59 1.671l-.097-.023.097.023Zm-.488 2.044.097.023-.097-.023Zm0 12.57.097-.023-.097.023Zm.488 2.044-.097.023.097-.023Zm-2.01 1.475-.052.086.052-.086Zm-14.447-8.643-.052.086.052-.086Zm-.228-.17.068-.073-.176-.162.008.24.1-.005Zm.722 5.294-.097.023.097-.023Zm.488 2.044.097-.024-.097.024Zm-2.01 1.475.05-.086-.05.086ZM.657 11.161l.052-.086-.052.086Zm0-2.322.052.086-.052-.086ZM15.105.196l.052.086-.052-.086Zm2.011 1.475.097.023-.097-.023Zm-.488 2.044-.097-.023.097.023Zm-.722 5.293-.1-.003-.008.24.176-.163-.068-.074ZM30.53.11 16.082 8.753l.103.172L30.632.282 30.529.11Zm2.16 1.584C32.986.444 31.632-.55 30.528.11l.103.172c.952-.57 2.12.287 1.862 1.366l.194.046ZM32.2 3.738l.488-2.044-.194-.046-.488 2.044.194.046Zm0 12.524a26.96 26.96 0 0 1 0-12.524l-.194-.046a27.159 27.159 0 0 0 0 12.616l.194-.046Zm.488 2.043-.488-2.043-.194.046.488 2.044.194-.047ZM30.53 19.89c1.104.66 2.458-.334 2.16-1.585l-.195.047c.258 1.079-.91 1.936-1.862 1.366l-.103.172Zm-14.447-8.643L30.53 19.89l.103-.172-14.447-8.643-.103.172Zm-.243-.182c.072.067.154.128.243.182l.103-.172a1.278 1.278 0 0 1-.211-.157l-.135.147Zm.886 5.197a26.954 26.954 0 0 1-.72-5.274l-.198.007c.065 1.785.306 3.564.724 5.313l.194-.046Zm.488 2.043-.488-2.043-.194.046.488 2.044.194-.047Zm-2.159 1.585c1.104.66 2.458-.334 2.16-1.585l-.195.047c.258 1.079-.91 1.936-1.862 1.366l-.103.172ZM.607 11.247l14.447 8.643.103-.172L.71 11.075l-.103.172Zm0-2.494a1.453 1.453 0 0 0 0 2.494l.103-.172a1.253 1.253 0 0 1 0-2.15l-.103-.172ZM15.054.11.607 8.753l.103.172L15.157.282 15.054.11Zm2.16 1.584C17.511.444 16.157-.55 15.053.11l.103.172c.952-.57 2.12.287 1.862 1.366l.194.046Zm-.489 2.044.488-2.044-.194-.046-.488 2.044.194.046Zm-.72 5.274c.066-1.771.306-3.538.72-5.274l-.194-.046a27.152 27.152 0 0 0-.724 5.313l.199.007Zm.077-.259a1.48 1.48 0 0 0-.243.182l.135.147a1.28 1.28 0 0 1 .21-.157l-.102-.172Z" mask="url(#e)"/><defs><linearGradient id="a" x1="20.536" x2="25.818" y1="-8.293" y2="25.393" gradientUnits="userSpaceOnUse"><stop stop-color="#A73EFF"/><stop offset=".067" stop-color="#A63EFF"/><stop offset=".133" stop-color="#A33CFD"/><stop offset=".2" stop-color="#9E3AFB"/><stop offset=".267" stop-color="#9636F8"/><stop offset=".333" stop-color="#8D32F4"/><stop offset=".4" stop-color="#812CF0"/><stop offset=".467" stop-color="#7426EB"/><stop offset=".533" stop-color="#6720E6"/><stop offset=".6" stop-color="#5B1AE0"/><stop offset=".667" stop-color="#4F15DC"/><stop offset=".733" stop-color="#4611D8"/><stop offset=".8" stop-color="#3E0DD5"/><stop offset=".867" stop-color="#390BD3"/><stop offset=".933" stop-color="#3609D2"/><stop offset="1" stop-color="#3509D1"/></linearGradient><linearGradient id="b" x1="14.336" x2="14.336" y1="0" y2="21.463" gradientUnits="userSpaceOnUse"><stop stop-color="#fff"/><stop offset=".067" stop-color="#FDFDFD"/><stop offset=".133" stop-color="#F6F6F6"/><stop offset=".2" stop-color="#EAEAEA"/><stop offset=".267" stop-color="#D9D9D9"/><stop offset=".333" stop-color="#C4C4C4"/><stop offset=".4" stop-color="#AAA"/><stop offset=".467" stop-color="#8E8E8E"/><stop offset=".533" stop-color="#717171"/><stop offset=".6" stop-color="#555"/><stop offset=".667" stop-color="#3B3B3B"/><stop offset=".733" stop-color="#262626"/><stop offset=".8" stop-color="#151515"/><stop offset=".867" stop-color="#090909"/><stop offset=".933" stop-color="#020202"/><stop offset="1"/></linearGradient><linearGradient id="c" x1="16.315" x2="16.315" y1="0" y2="20" gradientUnits="userSpaceOnUse"><stop stop-color="#fff"/><stop offset=".067" stop-color="#FDFDFD" stop-opacity=".991"/><stop offset=".133" stop-color="#F6F6F6" stop-opacity=".964"/><stop offset=".2" stop-color="#EAEAEA" stop-opacity=".918"/><stop offset=".267" stop-color="#D9D9D9" stop-opacity=".853"/><stop offset=".333" stop-color="#C4C4C4" stop-opacity=".768"/><stop offset=".4" stop-color="#AAA" stop-opacity=".668"/><stop offset=".467" stop-color="#8E8E8E" stop-opacity=".557"/><stop offset=".533" stop-color="#717171" stop-opacity=".443"/><stop offset=".6" stop-color="#555" stop-opacity=".332"/><stop offset=".667" stop-color="#3B3B3B" stop-opacity=".232"/><stop offset=".733" stop-color="#262626" stop-opacity=".147"/><stop offset=".8" stop-color="#151515" stop-opacity=".082"/><stop offset=".867" stop-color="#090909" stop-opacity=".036"/><stop offset=".933" stop-color="#020202" stop-opacity=".01"/><stop offset="1" stop-opacity="0"/></linearGradient><linearGradient id="d" x1="16.315" x2="16.315" y1="0" y2="20" gradientUnits="userSpaceOnUse"><stop offset=".479" stop-color="#fff" stop-opacity=".17"/><stop offset="1" stop-color="#fff"/></linearGradient></defs></svg>