<svg xmlns="http://www.w3.org/2000/svg" fill="none" viewBox="0 0 37 23"><path fill="#0A0909" fill-rule="evenodd" d="M17.909 10.219 33.849.684c1.133-.679 2.524.342 2.217 1.627l-.538 2.255a29.852 29.852 0 0 0 0 13.868l.538 2.255c.307 1.285-1.084 2.306-2.218 1.627L17.91 12.781a1.517 1.517 0 0 1-.25-.187c.071 1.961.337 3.918.796 5.84l.538 2.255c.307 1.285-1.084 2.306-2.218 1.627L.835 12.781a1.493 1.493 0 0 1 0-2.562L16.776.684c1.134-.679 2.525.342 2.218 1.627l-.538 2.255a29.857 29.857 0 0 0-.797 5.84c.075-.069.159-.132.251-.187Z" clip-rule="evenodd" style="mix-blend-mode:overlay"/><path fill="#000" fill-opacity=".3" fill-rule="evenodd" d="M17.909 10.219 33.849.684c1.133-.679 2.524.342 2.217 1.627l-.538 2.255a29.852 29.852 0 0 0 0 13.868l.538 2.255c.307 1.285-1.084 2.306-2.218 1.627L17.91 12.781a1.517 1.517 0 0 1-.25-.187c.071 1.961.337 3.918.796 5.84l.538 2.255c.307 1.285-1.084 2.306-2.218 1.627L.835 12.781a1.493 1.493 0 0 1 0-2.562L16.776.684c1.134-.679 2.525.342 2.218 1.627l-.538 2.255a29.857 29.857 0 0 0-.797 5.84c.075-.069.159-.132.251-.187Z" clip-rule="evenodd"/><path fill="url(#a)" fill-rule="evenodd" d="M17.909 10.219 33.849.684c1.133-.679 2.524.342 2.217 1.627l-.538 2.255a29.852 29.852 0 0 0 0 13.868l.538 2.255c.307 1.285-1.084 2.306-2.218 1.627L17.91 12.781a1.517 1.517 0 0 1-.25-.187c.071 1.961.337 3.918.796 5.84l.538 2.255c.307 1.285-1.084 2.306-2.218 1.627L.835 12.781a1.493 1.493 0 0 1 0-2.562L16.776.684c1.134-.679 2.525.342 2.218 1.627l-.538 2.255a29.857 29.857 0 0 0-.797 5.84c.075-.069.159-.132.251-.187Z" clip-rule="evenodd"/><path fill="url(#b)" fill-opacity=".3" fill-rule="evenodd" d="M17.909 10.219 33.849.684c1.133-.679 2.524.342 2.217 1.627l-.538 2.255a29.852 29.852 0 0 0 0 13.868l.538 2.255c.307 1.285-1.084 2.306-2.218 1.627L17.91 12.781a1.517 1.517 0 0 1-.25-.187c.071 1.961.337 3.918.796 5.84l.538 2.255c.307 1.285-1.084 2.306-2.218 1.627L.835 12.781a1.493 1.493 0 0 1 0-2.562L16.776.684c1.134-.679 2.525.342 2.218 1.627l-.538 2.255a29.857 29.857 0 0 0-.797 5.84c.075-.069.159-.132.251-.187Z" clip-rule="evenodd" style="mix-blend-mode:overlay"/><path fill="url(#c)" fill-opacity=".2" fill-rule="evenodd" d="M17.909 10.219 33.849.684c1.133-.679 2.524.342 2.217 1.627l-.538 2.255a29.852 29.852 0 0 0 0 13.868l.538 2.255c.307 1.285-1.084 2.306-2.218 1.627L17.91 12.781a1.517 1.517 0 0 1-.25-.187c.071 1.961.337 3.918.796 5.84l.538 2.255c.307 1.285-1.084 2.306-2.218 1.627L.835 12.781a1.493 1.493 0 0 1 0-2.562L16.776.684c1.134-.679 2.525.342 2.218 1.627l-.538 2.255a29.857 29.857 0 0 0-.797 5.84c.075-.069.159-.132.251-.187Z" clip-rule="evenodd"/><path fill="url(#d)" fill-opacity=".4" fill-rule="evenodd" d="M17.909 10.219 33.849.684c1.133-.679 2.524.342 2.217 1.627l-.538 2.255a29.852 29.852 0 0 0 0 13.868l.538 2.255c.307 1.285-1.084 2.306-2.218 1.627L17.91 12.781a1.517 1.517 0 0 1-.25-.187c.071 1.961.337 3.918.796 5.84l.538 2.255c.307 1.285-1.084 2.306-2.218 1.627L.835 12.781a1.493 1.493 0 0 1 0-2.562L16.776.684c1.134-.679 2.525.342 2.218 1.627l-.538 2.255a29.857 29.857 0 0 0-.797 5.84c.075-.069.159-.132.251-.187Z" clip-rule="evenodd" style="mix-blend-mode:overlay"/><path fill="#000" fill-opacity=".12" d="m33.849.327-.057-.095.057.095Zm-15.94 9.535-.056-.094.057.094Zm18.158-7.908-.107-.025.107.025Zm-.538 2.255.106.026-.106-.026Zm0 13.868.106-.026-.106.026Zm.538 2.255-.107.025.107-.025Zm-2.218 1.627-.057.095.057-.095Zm-15.94-9.535-.056.095.057-.095Zm-.25-.187.074-.081-.194-.179.01.264.11-.004Zm.796 5.84-.107.025.107-.025Zm.539 2.255.107-.026-.107.026Zm-2.219 1.627.057-.094-.057.094ZM.836 12.424l.057-.095-.057.095Zm0-2.562.057.095-.057-.095ZM16.776.327l.056.094-.057-.094Zm2.218 1.627.107.026-.107-.026Zm-.539 2.255-.107-.025.107.025Zm-.796 5.84-.11-.004-.01.264.194-.179-.074-.08ZM33.792.232 17.853 9.768l.113.189L33.906.42l-.114-.189Zm2.382 1.748C36.504.6 35.01-.496 33.792.232l.113.19c1.05-.63 2.34.316 2.055 1.507l.214.05Zm-.538 2.255.538-2.255-.214-.051-.539 2.255.215.05Zm0 13.816a29.744 29.744 0 0 1 0-13.816l-.215-.051a29.962 29.962 0 0 0 0 13.918l.215-.05Zm.538 2.255-.538-2.255-.215.051.539 2.255.214-.05Zm-2.382 1.748c1.218.728 2.712-.368 2.382-1.748l-.214.051c.284 1.19-1.004 2.136-2.055 1.508l-.113.189Zm-15.939-9.535 15.94 9.535.112-.19-15.939-9.535-.113.19Zm-.269-.201c.08.074.17.141.27.2l.112-.189a1.416 1.416 0 0 1-.233-.173l-.149.162Zm.978 5.733a29.739 29.739 0 0 1-.793-5.818l-.22.008a29.96 29.96 0 0 0 .8 5.861l.213-.05Zm.539 2.255-.539-2.255-.214.051.539 2.255.214-.05Zm-2.382 1.748c1.217.728 2.711-.368 2.382-1.748l-.214.051c.284 1.19-1.005 2.136-2.055 1.508l-.113.189ZM.779 12.519l15.94 9.535.113-.19L.893 12.33l-.113.19Zm0-2.751a1.603 1.603 0 0 0 0 2.75l.114-.189a1.383 1.383 0 0 1 0-2.372l-.113-.19ZM16.72.232.779 9.768l.114.189L16.832.42l-.113-.189Zm2.382 1.748C19.43.6 17.936-.496 16.719.232l.113.19c1.05-.63 2.339.316 2.055 1.507l.214.05Zm-.539 2.255.539-2.255-.214-.051-.539 2.255.214.05Zm-.793 5.818c.071-1.954.336-3.903.793-5.818l-.214-.051a29.961 29.961 0 0 0-.8 5.861l.22.008Zm.084-.285c-.099.059-.188.126-.269.2l.15.162c.069-.064.146-.122.232-.173l-.113-.19Z"/><defs><linearGradient id="a" x1="22.766" x2="28.593" y1="-8.682" y2="28.482" gradientUnits="userSpaceOnUse"><stop stop-color="#A73EFF"/><stop offset=".067" stop-color="#A63EFF"/><stop offset=".133" stop-color="#A33CFD"/><stop offset=".2" stop-color="#9E3AFB"/><stop offset=".267" stop-color="#9636F8"/><stop offset=".333" stop-color="#8D32F4"/><stop offset=".4" stop-color="#812CF0"/><stop offset=".467" stop-color="#7426EB"/><stop offset=".533" stop-color="#6720E6"/><stop offset=".6" stop-color="#5B1AE0"/><stop offset=".667" stop-color="#4F15DC"/><stop offset=".733" stop-color="#4611D8"/><stop offset=".8" stop-color="#3E0DD5"/><stop offset=".867" stop-color="#390BD3"/><stop offset=".933" stop-color="#3609D2"/><stop offset="1" stop-color="#3509D1"/></linearGradient><linearGradient id="b" x1="15.926" x2="15.926" y1=".467" y2="24.147" gradientUnits="userSpaceOnUse"><stop stop-color="#fff"/><stop offset=".067" stop-color="#FDFDFD"/><stop offset=".133" stop-color="#F6F6F6"/><stop offset=".2" stop-color="#EAEAEA"/><stop offset=".267" stop-color="#D9D9D9"/><stop offset=".333" stop-color="#C4C4C4"/><stop offset=".4" stop-color="#AAA"/><stop offset=".467" stop-color="#8E8E8E"/><stop offset=".533" stop-color="#717171"/><stop offset=".6" stop-color="#555"/><stop offset=".667" stop-color="#3B3B3B"/><stop offset=".733" stop-color="#262626"/><stop offset=".8" stop-color="#151515"/><stop offset=".867" stop-color="#090909"/><stop offset=".933" stop-color="#020202"/><stop offset="1"/></linearGradient><linearGradient id="c" x1="18.109" x2="18.109" y1=".467" y2="22.532" gradientUnits="userSpaceOnUse"><stop stop-color="#fff"/><stop offset=".067" stop-color="#FDFDFD" stop-opacity=".991"/><stop offset=".133" stop-color="#F6F6F6" stop-opacity=".964"/><stop offset=".2" stop-color="#EAEAEA" stop-opacity=".918"/><stop offset=".267" stop-color="#D9D9D9" stop-opacity=".853"/><stop offset=".333" stop-color="#C4C4C4" stop-opacity=".768"/><stop offset=".4" stop-color="#AAA" stop-opacity=".668"/><stop offset=".467" stop-color="#8E8E8E" stop-opacity=".557"/><stop offset=".533" stop-color="#717171" stop-opacity=".443"/><stop offset=".6" stop-color="#555" stop-opacity=".332"/><stop offset=".667" stop-color="#3B3B3B" stop-opacity=".232"/><stop offset=".733" stop-color="#262626" stop-opacity=".147"/><stop offset=".8" stop-color="#151515" stop-opacity=".082"/><stop offset=".867" stop-color="#090909" stop-opacity=".036"/><stop offset=".933" stop-color="#020202" stop-opacity=".01"/><stop offset="1" stop-opacity="0"/></linearGradient><linearGradient id="d" x1="18.109" x2="18.109" y1=".467" y2="22.532" gradientUnits="userSpaceOnUse"><stop offset=".479" stop-color="#fff" stop-opacity=".17"/><stop offset="1" stop-color="#fff"/></linearGradient></defs></svg>