<svg xmlns="http://www.w3.org/2000/svg" fill="none" viewBox="0 0 68 17"><path fill="#21232E" d="m12.928 16.21-4.487-6.197c1.841-.786 2.92-2.245 2.92-4.4C11.36 2.425 9.16.718 5.41.718H0V16.21h3.817v-5.32h.965l3.413 5.32h4.733ZM7.588 5.836c0 1.482-.943 2.29-2.604 2.29h-1.19V3.614H5.03c1.661 0 2.56.786 2.56 2.223Z"/><path fill="#21232E" d="m22.465 15.199-.337-2.402c-1.212.718-2.402 1.167-3.614 1.167-1.504 0-2.537-.65-2.717-2.402h6.646c.022-.18.045-.539.045-.876 0-3.188-1.482-5.702-4.872-5.702-2.986 0-5.186 2.178-5.186 5.77 0 3.906 2.357 5.68 5.657 5.68 1.729 0 3.188-.472 4.378-1.235Zm-4.939-8.015c1.033 0 1.616.853 1.729 2.515h-3.48c.112-1.684.786-2.515 1.751-2.515Zm21.218-1.976H35.6l-1.46 6.399-1.571-6.399h-3.053l-1.55 6.399-1.504-6.556-3.502.427 3.008 10.731h3.256l1.594-6.286 1.616 6.286h3.233l3.076-11Zm4.864-3.255c0-1.122-.831-1.863-1.931-1.863-1.078 0-1.93.74-1.93 1.863 0 1.1.852 1.819 1.93 1.819 1.1 0 1.93-.719 1.93-1.819Zm-.225 14.256v-11h-3.412v11h3.412Zm11.96 0V8.396c0-2.155-1.078-3.412-3.12-3.412-1.392 0-2.448.74-3.435 1.729l-.247-1.505h-2.986V16.21h3.39V8.98c.606-.606 1.212-.988 1.863-.988.808 0 1.123.54 1.123 1.325v6.892h3.412Zm11.924 0V0l-3.39.539V5.5c-.63-.224-1.325-.381-2.335-.381-2.425 0-4.648 1.706-4.648 5.904 0 3.705 1.73 5.411 3.975 5.411 1.414 0 2.424-.83 3.165-1.661l.225 1.436h3.008Zm-3.39-3.906c-.584.651-1.167 1.123-1.886 1.123-.965 0-1.684-.764-1.684-2.65 0-2.11.853-2.986 1.976-2.986.718 0 1.1.09 1.594.315v4.198Z"/></svg>