<?xml version="1.0" encoding="utf-8"?>
<!-- Generator: Adobe Illustrator 26.0.3, SVG Export Plug-In . SVG Version: 6.00 Build 0)  -->
<svg version="1.1" id="Layer_1" xmlns="http://www.w3.org/2000/svg" xmlns:xlink="http://www.w3.org/1999/xlink" x="0px" y="0px"
	 width="36.4px" height="47.1px" viewBox="0 0 36.4 47.1" style="enable-background:new 0 0 36.4 47.1;" xml:space="preserve">
<style type="text/css">
	.st0{fill:url(#SVGID_1_);}
	.st1{fill:#BE202E;}
	.st2{opacity:0.35;fill:#BE202E;enable-background:new    ;}
	.st3{fill:url(#SVGID_00000020383091011091366260000009343187394066591384_);}
	.st4{fill:url(#SVGID_00000052071555909489118960000009061714074400993679_);}
	.st5{fill:url(#SVGID_00000183224212817697623810000014661113830080081054_);}
	.st6{fill:url(#SVGID_00000154384583032755574540000000458929942095206836_);}
	.st7{fill:url(#SVGID_00000150098100284292541900000007598023986443005585_);}
	.st8{fill:url(#SVGID_00000137110649737187401650000016527540731830725539_);}
	.st9{fill:url(#SVGID_00000107550168713807830180000010491200198212161206_);}
	.st10{fill:url(#SVGID_00000064345346395652017470000015022709416334888848_);}
	.st11{fill:url(#SVGID_00000038405391568130404510000013471586471438598051_);}
	.st12{fill:url(#SVGID_00000103980394121836403970000014416284903443818165_);}
	.st13{fill:url(#SVGID_00000170985721047662346120000001114280120658852487_);}
	.st14{fill:url(#SVGID_00000123431403424094536880000004153730366618951328_);}
	.st15{fill:url(#SVGID_00000093867516403664127700000002496182841454981256_);}
	.st16{fill:url(#SVGID_00000051376379839661458480000008197813887744224906_);}
	.st17{fill:url(#SVGID_00000010993558903759865210000011718485094501595290_);}
	.st18{fill:url(#SVGID_00000111888126958245058760000004970513420245642924_);}
	.st19{fill:url(#SVGID_00000004534547913738159420000007809836617811498639_);}
</style>
<linearGradient id="SVGID_1_" gradientUnits="userSpaceOnUse" x1="28.9947" y1="34.5392" x2="37.8746" y2="35.6492" gradientTransform="matrix(1 0 0 -1 0 41.9996)">
	<stop  offset="0" style="stop-color:#F69923"/>
	<stop  offset="0.3123" style="stop-color:#F79A23"/>
	<stop  offset="0.8383" style="stop-color:#E97826"/>
</linearGradient>
<path class="st0" d="M31.5,4.6c-0.7,0.3-1.9,1.2-3.4,2.5l0.8,2.3c1-1,2-1.9,3-2.7c0.1-0.1,0.1-0.1,0.1-0.1c0,0-0.1,0.1-0.1,0.1
	c-0.3,0.3-1.3,1.1-2.8,2.8c1.2,0.1,3.1,0.1,4.6,0.1c0.8-2.4,0.1-3.6,0.1-3.6S32.9,4,31.5,4.6z"/>
<path class="st1" d="M24.8,22c-0.2,0-0.3,0-0.5,0c0.1,0,0.2,0,0.2,0C24.7,22,24.7,22,24.8,22z"/>
<path class="st2" d="M24.8,22c-0.2,0-0.3,0-0.5,0c0.1,0,0.2,0,0.2,0C24.7,22,24.7,22,24.8,22z"/>
<path class="st1" d="M25.5,20.2C25.5,20.2,25.5,20.2,25.5,20.2C25.5,20.2,25.5,20.2,25.5,20.2c0.2,0,0.3,0,0.4,0
	C25.7,20.2,25.6,20.2,25.5,20.2L25.5,20.2z"/>
<path class="st2" d="M25.5,20.2C25.5,20.2,25.5,20.2,25.5,20.2C25.5,20.2,25.5,20.2,25.5,20.2c0.2,0,0.3,0,0.4,0
	C25.7,20.2,25.6,20.2,25.5,20.2L25.5,20.2z"/>
<linearGradient id="SVGID_00000055675096389615897350000013487160040185655190_" gradientUnits="userSpaceOnUse" x1="5.3276" y1="-0.6768" x2="27.4332" y2="33.7464" gradientTransform="matrix(1 0 0 -1 0 41.9996)">
	<stop  offset="0.3233" style="stop-color:#9E2064"/>
	<stop  offset="0.6302" style="stop-color:#C92037"/>
	<stop  offset="0.7514" style="stop-color:#CD2335"/>
	<stop  offset="1" style="stop-color:#E97826"/>
</linearGradient>
<path style="fill:url(#SVGID_00000055675096389615897350000013487160040185655190_);" d="M24.6,14.4c0.5-0.6,0.9-1.2,1.4-1.7
	c0.5-0.6,0.9-1.2,1.4-1.7c0,0,0.1-0.1,0.1-0.1c0.5-0.5,0.9-1,1.4-1.5L28,7c-0.1,0.1-0.2,0.2-0.3,0.3c-0.4,0.4-0.8,0.8-1.2,1.2
	C26,9,25.5,9.5,25,10c-0.5,0.5-1,1-1.4,1.5c-0.4,0.5-0.8,0.9-1.2,1.4c0,0,0,0,0,0.1l1.1,3.1C23.8,15.5,24.2,15,24.6,14.4L24.6,14.4z
	"/>
<linearGradient id="SVGID_00000024708353818862754640000016613237621559739064_" gradientUnits="userSpaceOnUse" x1="11.1353" y1="1.5327" x2="24.3221" y2="22.0803" gradientTransform="matrix(1 0 0 -1 0 41.9996)">
	<stop  offset="0" style="stop-color:#282662"/>
	<stop  offset="9.548389e-02" style="stop-color:#662E8D"/>
	<stop  offset="0.7882" style="stop-color:#9F2064"/>
	<stop  offset="0.9487" style="stop-color:#CD2032"/>
</linearGradient>
<path style="fill:url(#SVGID_00000024708353818862754640000016613237621559739064_);" d="M15.2,29.9c-0.3,0.5-0.6,1-0.9,1.6
	c0,0,0,0,0,0c0,0.1-0.1,0.1-0.1,0.2c-0.2,0.4-0.4,0.7-0.8,1.4c0.4,0.3,0.7,0.8,0.9,1.5c0.1-0.6-0.1-1.2-0.5-1.8
	c2.2,0.4,4.2,0.1,5.4-1.3c0.1-0.1,0.2-0.3,0.3-0.4c-0.5,0.5-1.1,0.6-2.1,0.4l0,0l0,0c1.6-0.5,2.5-1,3.3-2c0.2-0.2,0.4-0.5,0.6-0.8
	c-1.5,1.2-3.2,1.3-4.7,0.8l-1.2,0C15.3,29.7,15.3,29.8,15.2,29.9z"/>
<linearGradient id="SVGID_00000097485663726224486550000001596755942512133511_" gradientUnits="userSpaceOnUse" x1="5.9568" y1="1.7144" x2="28.0591" y2="36.1" gradientTransform="matrix(1 0 0 -1 0 41.9996)">
	<stop  offset="0.3233" style="stop-color:#9E2064"/>
	<stop  offset="0.6302" style="stop-color:#C92037"/>
	<stop  offset="0.7514" style="stop-color:#CD2335"/>
	<stop  offset="1" style="stop-color:#E97826"/>
</linearGradient>
<path style="fill:url(#SVGID_00000097485663726224486550000001596755942512133511_);" d="M16.2,27.3c0.4-0.6,0.7-1.3,1.1-1.9
	c0.4-0.6,0.7-1.2,1.1-1.9c0.4-0.6,0.8-1.2,1.2-1.9c0.4-0.6,0.8-1.3,1.2-1.9c0.4-0.6,0.8-1.2,1.2-1.8c0.2-0.2,0.3-0.4,0.5-0.7
	c0.3-0.4,0.5-0.7,0.8-1.1c0,0,0,0,0-0.1l-1-3.1c0,0-0.1,0.1-0.1,0.1c-0.4,0.5-0.9,1-1.3,1.6c-0.4,0.5-0.9,1.1-1.3,1.7
	c-0.4,0.5-0.7,1-1.1,1.5c-0.1,0.1-0.1,0.2-0.2,0.3c-0.4,0.6-0.8,1.2-1.2,1.8c-0.4,0.7-0.8,1.3-1.1,1.9c-0.2,0.4-0.4,0.8-0.6,1.1
	c-0.2,0.3-0.3,0.6-0.5,0.9c-0.3,0.7-0.7,1.5-0.9,2.2l1.1,3.1c0.3-0.5,0.6-1,0.9-1.5C16,27.6,16.1,27.4,16.2,27.3L16.2,27.3z"/>
<linearGradient id="SVGID_00000039119414494165498120000013953997028720077460_" gradientUnits="userSpaceOnUse" x1="7.8351" y1="4.1019" x2="19.4527" y2="22.1469" gradientTransform="matrix(1 0 0 -1 0 41.9996)">
	<stop  offset="0" style="stop-color:#282662"/>
	<stop  offset="9.548389e-02" style="stop-color:#662E8D"/>
	<stop  offset="0.7882" style="stop-color:#9F2064"/>
	<stop  offset="0.9487" style="stop-color:#CD2032"/>
</linearGradient>
<path style="fill:url(#SVGID_00000039119414494165498120000013953997028720077460_);" d="M14,26.1c-0.3,0.9-0.6,1.8-0.8,2.8
	c0,0,0,0.1,0,0.1c-0.4-0.8-1.5-1.7-1.5-1.7c0.7,1.4,1.2,2.8,1.1,4.1c-0.5,0-1.1-0.2-1.9-0.6c0.7,0.8,1.3,1.1,1.5,1.2
	c-0.7-0.1-1.6,0.3-2.4,0.8c1.2-0.3,2.1-0.3,2.8-0.1c-1.5,2.7-3,5.8-4.6,9c0.3,0,0.6-0.2,0.7-0.5c0.3-0.6,2.1-4.4,4.8-9.4
	c0.1-0.1,0.2-0.3,0.2-0.4c0,0,0-0.1,0.1-0.1c0.3-0.5,0.6-1.1,0.9-1.6c0.1-0.1,0.1-0.2,0.2-0.4l0,0L14,26.1C14,26.1,14,26.1,14,26.1
	L14,26.1z"/>
<linearGradient id="SVGID_00000002365608006217921480000002913284291458468748_" gradientUnits="userSpaceOnUse" x1="9.6684" y1="-0.7023" x2="31.781" y2="33.746" gradientTransform="matrix(1 0 0 -1 0 41.9996)">
	<stop  offset="0.3233" style="stop-color:#9E2064"/>
	<stop  offset="0.6302" style="stop-color:#C92037"/>
	<stop  offset="0.7514" style="stop-color:#CD2335"/>
	<stop  offset="1" style="stop-color:#E97826"/>
</linearGradient>
<path style="fill:url(#SVGID_00000002365608006217921480000002913284291458468748_);" d="M23.6,16.4c-0.1,0.1-0.1,0.2-0.2,0.2
	c-0.2,0.2-0.3,0.5-0.5,0.8c-0.2,0.3-0.4,0.6-0.6,0.9c-0.1,0.1-0.2,0.3-0.3,0.4c-0.3,0.5-0.6,0.9-0.9,1.4c-0.4,0.6-0.8,1.2-1.2,1.8
	c-0.4,0.6-0.8,1.2-1.2,1.9c-0.4,0.6-0.8,1.3-1.1,1.9c-0.3,0.6-0.7,1.2-1.1,1.8c0,0,0,0.1-0.1,0.1c-0.4,0.6-0.7,1.3-1.1,1.9
	c0,0,0,0,0,0l1.2,0c0,0,0,0-0.1,0c1.5,0,3.6-0.8,5.1-1.9c0.7-0.5,1.3-1.2,1.9-1.9c0.5-0.6,0.9-1.2,1.3-1.9c0.4-0.6,0.8-1.3,1.1-2.1
	c-0.4,0.1-0.8,0.2-1.2,0.2c-0.1,0-0.2,0-0.2,0c-0.1,0-0.2,0-0.2,0c1.4-0.3,2.5-1.2,3.3-2.3c-0.4,0.2-1,0.4-1.7,0.5
	c-0.1,0-0.2,0-0.3,0c0,0,0,0-0.1,0c0.5-0.1,0.9-0.3,1.3-0.5c0.1,0,0.2-0.1,0.2-0.1c0.1-0.1,0.2-0.2,0.3-0.2c0.1-0.1,0.1-0.1,0.2-0.2
	c0.2-0.1,0.3-0.3,0.5-0.5c0-0.1,0.1-0.1,0.1-0.2c0.1-0.1,0.1-0.2,0.2-0.2c0.2-0.3,0.5-0.7,0.6-0.9c0.1-0.1,0.2-0.3,0.2-0.4
	c0,0,0.1-0.1,0.1-0.1c0.1-0.1,0.1-0.3,0.2-0.4c0.1-0.2,0.1-0.3,0.2-0.4c-0.1,0-0.1,0.1-0.2,0.1c-0.4,0.2-1.2,0.3-1.8,0.3l1.1,0
	l-1.1,0c0,0,0,0,0,0c-0.1,0-0.1,0-0.2,0c0,0,0,0,0,0L23.6,16.4C23.6,16.4,23.6,16.4,23.6,16.4L23.6,16.4z"/>
<linearGradient id="SVGID_00000044866569414098429020000010439293208253057666_" gradientUnits="userSpaceOnUse" x1="8.249" y1="-2.9029" x2="30.3792" y2="31.58" gradientTransform="matrix(1 0 0 -1 0 41.9996)">
	<stop  offset="0.3233" style="stop-color:#9E2064"/>
	<stop  offset="0.6302" style="stop-color:#C92037"/>
	<stop  offset="0.7514" style="stop-color:#CD2335"/>
	<stop  offset="1" style="stop-color:#E97826"/>
</linearGradient>
<path style="fill:url(#SVGID_00000044866569414098429020000010439293208253057666_);" d="M29,9.4c-0.4,0.5-0.9,1-1.4,1.6
	c0,0-0.1,0.1-0.1,0.1c-0.4,0.5-0.9,1.1-1.4,1.7c-0.4,0.5-0.9,1.1-1.3,1.8c-0.4,0.6-0.8,1.1-1.3,1.8l3.9,0.1c1.2-0.3,1.8-0.7,2.4-1.3
	c0.2-0.2,0.3-0.3,0.5-0.5c0.5-0.5,1-1.2,1.4-1.8c0.4-0.6,0.8-1.2,1.1-1.7c0.2-0.3,0.4-0.7,0.5-0.9c0.1-0.3,0.2-0.5,0.3-0.7
	C32.1,9.5,30.2,9.5,29,9.4z"/>
<path class="st1" d="M24.6,22c-0.1,0-0.2,0-0.2,0C24.4,22,24.5,22,24.6,22z"/>
<path class="st2" d="M24.6,22c-0.1,0-0.2,0-0.2,0C24.4,22,24.5,22,24.6,22z"/>
<linearGradient id="SVGID_00000042017278130414911400000004886820163533477556_" gradientUnits="userSpaceOnUse" x1="10.5688" y1="-1.5259" x2="32.9492" y2="33.1386" gradientTransform="matrix(1 0 0 -1 0 41.9996)">
	<stop  offset="0.3233" style="stop-color:#9E2064"/>
	<stop  offset="0.6302" style="stop-color:#C92037"/>
	<stop  offset="0.7514" style="stop-color:#CD2335"/>
	<stop  offset="1" style="stop-color:#E97826"/>
</linearGradient>
<path style="fill:url(#SVGID_00000042017278130414911400000004886820163533477556_);" d="M24.6,22c-0.1,0-0.2,0-0.2,0
	C24.4,22,24.5,22,24.6,22z"/>
<path class="st1" d="M25.5,20.2C25.5,20.2,25.5,20.2,25.5,20.2C25.5,20.2,25.5,20.2,25.5,20.2z"/>
<path class="st2" d="M25.5,20.2C25.5,20.2,25.5,20.2,25.5,20.2C25.5,20.2,25.5,20.2,25.5,20.2z"/>
<linearGradient id="SVGID_00000180343706674264020970000012151682250607778730_" gradientUnits="userSpaceOnUse" x1="10.4068" y1="-1.5203" x2="32.8751" y2="33.1862" gradientTransform="matrix(1 0 0 -1 0 41.9996)">
	<stop  offset="0.3233" style="stop-color:#9E2064"/>
	<stop  offset="0.6302" style="stop-color:#C92037"/>
	<stop  offset="0.7514" style="stop-color:#CD2335"/>
	<stop  offset="1" style="stop-color:#E97826"/>
</linearGradient>
<path style="fill:url(#SVGID_00000180343706674264020970000012151682250607778730_);" d="M25.5,20.2C25.5,20.2,25.5,20.2,25.5,20.2
	C25.5,20.2,25.5,20.2,25.5,20.2z"/>
<linearGradient id="SVGID_00000129890184688396111650000005693150451550526654_" gradientUnits="userSpaceOnUse" x1="3.7499" y1="34.9326" x2="8.6012" y2="42.252" gradientTransform="matrix(1 0 0 -1 0 41.9996)">
	<stop  offset="0" style="stop-color:#F69923"/>
	<stop  offset="0.3123" style="stop-color:#F79A23"/>
	<stop  offset="0.8383" style="stop-color:#E97826"/>
</linearGradient>
<path style="fill:url(#SVGID_00000129890184688396111650000005693150451550526654_);" d="M3.1,3.3C2.8,4,2.7,5.5,2.7,7.4l2.3,0.9
	C4.9,7,4.9,5.6,4.9,4.4c0-0.1,0-0.1,0-0.1c0,0,0,0.1,0,0.1c0,0.4,0,1.6,0.3,3.9C6.1,7.5,7.4,6.2,8.3,5C7.1,2.8,5.6,2.5,5.6,2.5
	S3.6,1.9,3.1,3.3z"/>
<path class="st1" d="M12.1,19.7c-0.1,0.1-0.2,0.2-0.3,0.3c0.1-0.1,0.1-0.1,0.2-0.2C12,19.8,12.1,19.7,12.1,19.7z"/>
<path class="st2" d="M12.1,19.7c-0.1,0.1-0.2,0.2-0.3,0.3c0.1-0.1,0.1-0.1,0.2-0.2C12,19.8,12.1,19.7,12.1,19.7z"/>
<path class="st1" d="M11.2,18C11.2,18,11.2,18,11.2,18C11.2,18,11.2,18,11.2,18c0.1-0.1,0.2-0.2,0.2-0.3
	C11.3,17.8,11.2,17.9,11.2,18L11.2,18z"/>
<path class="st2" d="M11.2,18C11.2,18,11.2,18,11.2,18C11.2,18,11.2,18,11.2,18c0.1-0.1,0.2-0.2,0.2-0.3
	C11.3,17.8,11.2,17.9,11.2,18L11.2,18z"/>
<linearGradient id="SVGID_00000097458629690010991280000014243538560453226659_" gradientUnits="userSpaceOnUse" x1="13.7147" y1="-5.8719" x2="3.3909" y2="33.3436" gradientTransform="matrix(1 0 0 -1 0 41.9996)">
	<stop  offset="0.3233" style="stop-color:#9E2064"/>
	<stop  offset="0.6302" style="stop-color:#C92037"/>
	<stop  offset="0.7514" style="stop-color:#CD2335"/>
	<stop  offset="1" style="stop-color:#E97826"/>
</linearGradient>
<path style="fill:url(#SVGID_00000097458629690010991280000014243538560453226659_);" d="M6.1,14.8c-0.2-0.7-0.3-1.4-0.4-2.1
	c-0.1-0.7-0.3-1.4-0.4-2.2c0,0,0-0.1,0-0.1C5.2,9.7,5.1,9,5,8.4L2.7,7.5c0,0.1,0,0.3,0,0.4c0,0.5,0,1.1,0.1,1.7
	c0,0.7,0.1,1.4,0.2,2.1C3,12.3,3.1,13,3.2,13.7c0.1,0.6,0.2,1.2,0.3,1.8c0,0,0,0,0,0.1l3.1,1.3C6.4,16.2,6.3,15.5,6.1,14.8L6.1,14.8
	z"/>
<linearGradient id="SVGID_00000144328487169906684990000004748328962506963078_" gradientUnits="userSpaceOnUse" x1="16.7842" y1="1.495691e-02" x2="10.6286" y2="23.3977" gradientTransform="matrix(1 0 0 -1 0 41.9996)">
	<stop  offset="0" style="stop-color:#282662"/>
	<stop  offset="9.548389e-02" style="stop-color:#662E8D"/>
	<stop  offset="0.7882" style="stop-color:#9F2064"/>
	<stop  offset="0.9487" style="stop-color:#CD2032"/>
</linearGradient>
<path style="fill:url(#SVGID_00000144328487169906684990000004748328962506963078_);" d="M11.8,31.9c0.2,0.5,0.4,1.1,0.6,1.7
	c0,0,0,0,0,0c0,0.1,0.1,0.2,0.1,0.2c0.1,0.4,0.3,0.7,0.6,1.5c0.5-0.1,1.1,0,1.8,0.3c-0.4-0.5-1-0.7-1.7-0.8c1.8-1.3,2.9-2.9,2.6-4.8
	c0-0.2-0.1-0.3-0.1-0.5c0,0.7-0.2,1.2-1.1,1.9l0,0l0,0c0.7-1.5,0.9-2.5,0.7-3.7c0-0.3-0.1-0.6-0.2-0.9c-0.1,1.9-1.1,3.2-2.5,4
	l-0.9,0.9C11.8,31.7,11.8,31.8,11.8,31.9z"/>
<linearGradient id="SVGID_00000041269782542420354470000015448920323145582737_" gradientUnits="userSpaceOnUse" x1="13.0012" y1="-3.6868" x2="2.6802" y2="35.5165" gradientTransform="matrix(1 0 0 -1 0 41.9996)">
	<stop  offset="0.3233" style="stop-color:#9E2064"/>
	<stop  offset="0.6302" style="stop-color:#C92037"/>
	<stop  offset="0.7514" style="stop-color:#CD2335"/>
	<stop  offset="1" style="stop-color:#E97826"/>
</linearGradient>
<path style="fill:url(#SVGID_00000041269782542420354470000015448920323145582737_);" d="M10.5,29.5c-0.2-0.7-0.5-1.4-0.7-2.1
	c-0.2-0.7-0.5-1.4-0.7-2c-0.2-0.7-0.4-1.4-0.7-2.1c-0.2-0.7-0.4-1.4-0.6-2.1c-0.2-0.7-0.4-1.4-0.6-2.1c-0.1-0.3-0.1-0.5-0.2-0.8
	c-0.1-0.4-0.2-0.9-0.3-1.3c0,0,0,0,0-0.1l-3.1-1.3c0,0,0,0.1,0,0.1c0.1,0.7,0.2,1.3,0.3,2c0.1,0.7,0.3,1.4,0.4,2
	c0.1,0.6,0.3,1.2,0.4,1.7c0,0.1,0.1,0.2,0.1,0.3c0.2,0.7,0.4,1.4,0.6,2.1c0.2,0.7,0.5,1.4,0.7,2.1c0.2,0.4,0.3,0.8,0.5,1.2
	c0.1,0.3,0.3,0.6,0.4,1c0.3,0.7,0.7,1.5,1.1,2.2l3.1,1.3c-0.2-0.5-0.4-1.1-0.6-1.6C10.6,29.8,10.5,29.6,10.5,29.5L10.5,29.5z"/>
<linearGradient id="SVGID_00000036220453756873398610000006244238495457768596_" gradientUnits="userSpaceOnUse" x1="12.9823" y1="-0.6253" x2="7.5598" y2="19.9706" gradientTransform="matrix(1 0 0 -1 0 41.9996)">
	<stop  offset="0" style="stop-color:#282662"/>
	<stop  offset="9.548389e-02" style="stop-color:#662E8D"/>
	<stop  offset="0.7882" style="stop-color:#9F2064"/>
	<stop  offset="0.9487" style="stop-color:#CD2032"/>
</linearGradient>
<path style="fill:url(#SVGID_00000036220453756873398610000006244238495457768596_);" d="M8.1,30.4c0.5,0.8,1,1.7,1.6,2.4
	c0,0,0,0.1,0.1,0.1c-0.9-0.3-2.3,0-2.3,0c1.6,0.4,3,1,3.9,1.9c-0.3,0.4-0.9,0.7-1.7,1c1.1,0,1.7-0.2,1.9-0.3c-0.5,0.5-0.8,1.4-1,2.3
	c0.6-1.1,1.2-1.8,1.8-2.1c1.1,2.9,2.5,6,3.9,9.2c0.2-0.3,0.2-0.6,0.1-0.8c-0.3-0.6-2-4.5-4-9.7c-0.1-0.1-0.1-0.3-0.2-0.5
	c0,0,0-0.1,0-0.1c-0.2-0.6-0.4-1.1-0.6-1.7c0-0.1-0.1-0.3-0.1-0.4l0,0L8.1,30.4C8.1,30.3,8.1,30.3,8.1,30.4L8.1,30.4z"/>
<linearGradient id="SVGID_00000062190454043462034430000004388347464082518944_" gradientUnits="userSpaceOnUse" x1="17.05" y1="-2.6293" x2="6.7238" y2="36.5959" gradientTransform="matrix(1 0 0 -1 0 41.9996)">
	<stop  offset="0.3233" style="stop-color:#9E2064"/>
	<stop  offset="0.6302" style="stop-color:#C92037"/>
	<stop  offset="0.7514" style="stop-color:#CD2335"/>
	<stop  offset="1" style="stop-color:#E97826"/>
</linearGradient>
<path style="fill:url(#SVGID_00000062190454043462034430000004388347464082518944_);" d="M6.9,16.9C7,17,7,17.1,7,17.2
	c0.1,0.3,0.2,0.6,0.2,0.9c0.1,0.3,0.2,0.6,0.3,1c0,0.2,0.1,0.3,0.1,0.5c0.1,0.5,0.3,1,0.5,1.6c0.2,0.7,0.4,1.4,0.6,2.1
	c0.2,0.7,0.4,1.4,0.7,2.1c0.2,0.7,0.5,1.4,0.7,2.1c0.2,0.6,0.5,1.3,0.7,2c0,0,0,0.1,0,0.1c0.2,0.7,0.5,1.3,0.8,2c0,0,0,0,0,0
	l0.9-0.9c0,0,0,0-0.1,0c1-1.1,1.8-3.1,1.9-4.9c0-0.8,0-1.7-0.2-2.7c-0.1-0.7-0.3-1.5-0.6-2.3c-0.2-0.7-0.5-1.4-0.8-2.2
	c-0.1,0.3-0.4,0.7-0.6,1c0,0.1-0.1,0.1-0.1,0.2c0,0.1-0.1,0.1-0.2,0.2c0.7-1.3,0.7-2.6,0.4-3.9c-0.1,0.4-0.4,1-0.8,1.6
	c-0.1,0.1-0.1,0.1-0.2,0.2c0,0,0,0-0.1,0.1c0.2-0.4,0.4-0.9,0.5-1.3c0-0.1,0-0.2,0-0.3c0-0.1,0-0.3,0-0.4c0-0.1,0-0.2,0-0.3
	c0-0.2,0-0.4-0.1-0.6c0-0.1,0-0.1,0-0.2c0-0.1,0-0.2-0.1-0.3c-0.1-0.4-0.2-0.8-0.3-1.1c-0.1-0.2-0.1-0.3-0.2-0.4c0,0,0-0.1-0.1-0.1
	c-0.1-0.1-0.1-0.3-0.2-0.4c-0.1-0.2-0.1-0.3-0.2-0.4c0,0.1,0,0.1-0.1,0.2c-0.2,0.4-0.6,1.1-0.9,1.5l0.8-0.8L9.7,14c0,0,0,0,0,0
	c0,0-0.1,0.1-0.1,0.1c0,0,0,0,0,0L6.9,16.9C6.9,16.9,6.9,16.9,6.9,16.9L6.9,16.9z"/>
<linearGradient id="SVGID_00000129170347919478142370000013074803407499502259_" gradientUnits="userSpaceOnUse" x1="17.3866" y1="-5.1694" x2="7.0566" y2="34.0703" gradientTransform="matrix(1 0 0 -1 0 41.9996)">
	<stop  offset="0.3233" style="stop-color:#9E2064"/>
	<stop  offset="0.6302" style="stop-color:#C92037"/>
	<stop  offset="0.7514" style="stop-color:#CD2335"/>
	<stop  offset="1" style="stop-color:#E97826"/>
</linearGradient>
<path style="fill:url(#SVGID_00000129170347919478142370000013074803407499502259_);" d="M5.2,8.3c0.1,0.6,0.2,1.3,0.3,2.1
	c0,0,0,0.1,0,0.1c0.1,0.7,0.3,1.4,0.4,2.2c0.1,0.7,0.3,1.4,0.5,2.1c0.2,0.7,0.3,1.4,0.5,2.1l2.7-2.8c0.5-1.1,0.6-1.8,0.5-2.6
	c0-0.2,0-0.5-0.1-0.7C10,10.1,9.9,9.4,9.7,8.6c-0.2-0.7-0.4-1.4-0.6-2C9,6.3,8.8,6,8.7,5.7C8.6,5.4,8.5,5.2,8.3,5
	C7.3,6.1,6.1,7.5,5.2,8.3z"/>
<path class="st1" d="M12,19.9c0,0.1-0.1,0.1-0.2,0.2C11.9,20,11.9,19.9,12,19.9z"/>
<path class="st2" d="M12,19.9c0,0.1-0.1,0.1-0.2,0.2C11.9,20,11.9,19.9,12,19.9z"/>
<linearGradient id="SVGID_00000127012680785898001450000000453424745295368096_" gradientUnits="userSpaceOnUse" x1="18.3221" y1="-2.3464" x2="7.9713" y2="36.9586" gradientTransform="matrix(1 0 0 -1 0 41.9996)">
	<stop  offset="0.3233" style="stop-color:#9E2064"/>
	<stop  offset="0.6302" style="stop-color:#C92037"/>
	<stop  offset="0.7514" style="stop-color:#CD2335"/>
	<stop  offset="1" style="stop-color:#E97826"/>
</linearGradient>
<path style="fill:url(#SVGID_00000127012680785898001450000000453424745295368096_);" d="M12,19.9c0,0.1-0.1,0.1-0.2,0.2
	C11.9,20,11.9,19.9,12,19.9z"/>
<path class="st1" d="M11.2,18C11.2,18,11.2,18,11.2,18C11.2,18,11.2,18,11.2,18z"/>
<path class="st2" d="M11.2,18C11.2,18,11.2,18,11.2,18C11.2,18,11.2,18,11.2,18z"/>
<linearGradient id="SVGID_00000048470534427228109260000011318436299051483564_" gradientUnits="userSpaceOnUse" x1="18.1455" y1="-2.4042" x2="7.795" y2="36.9055" gradientTransform="matrix(1 0 0 -1 0 41.9996)">
	<stop  offset="0.3233" style="stop-color:#9E2064"/>
	<stop  offset="0.6302" style="stop-color:#C92037"/>
	<stop  offset="0.7514" style="stop-color:#CD2335"/>
	<stop  offset="1" style="stop-color:#E97826"/>
</linearGradient>
<path style="fill:url(#SVGID_00000048470534427228109260000011318436299051483564_);" d="M11.2,18C11.2,18,11.2,18,11.2,18
	C11.2,18,11.2,18,11.2,18z"/>
</svg>
