<?xml version="1.0" encoding="utf-8"?>
<!-- Generator: Adobe Illustrator 26.0.3, SVG Export Plug-In . SVG Version: 6.00 Build 0)  -->
<svg version="1.1" id="Layer_1" xmlns="http://www.w3.org/2000/svg" xmlns:xlink="http://www.w3.org/1999/xlink" x="0px" y="0px"
	 width="57.2px" height="30.3px" viewBox="0 0 57.2 30.3" style="enable-background:new 0 0 57.2 30.3;" xml:space="preserve">
<style type="text/css">
	.st0{fill:#FF8170;}
</style>
<path class="st0" d="M6.2,7.3l0.1,1.7c1.1-1.3,2.5-2,4.3-2c1.6,0,2.7,0.5,3.5,1.4c0.8,0.9,1.2,2.3,1.2,4.1v9.6h-4v-9.5
	c0-0.8-0.2-1.4-0.5-1.8c-0.4-0.4-1-0.6-1.8-0.6c-1.1,0-1.9,0.5-2.5,1.4v10.4h-4V7.3H6.2z M31.6,14.9c0,2.3-0.5,4.1-1.6,5.5
	c-1,1.4-2.4,2.1-4.2,2.1c-1.5,0-2.7-0.5-3.6-1.6v7h-4V7.3h3.7l0.1,1.4c1-1.1,2.2-1.7,3.7-1.7c1.8,0,3.2,0.7,4.3,2
	c1,1.3,1.5,3.2,1.5,5.6V14.9z M27.6,14.6c0-1.4-0.2-2.4-0.7-3.2c-0.5-0.7-1.2-1.1-2.1-1.1c-1.2,0-2.1,0.5-2.6,1.4v6.1
	c0.5,1,1.3,1.5,2.6,1.5C26.7,19.2,27.6,17.7,27.6,14.6z M37.8,7.3L37.9,9c1-1.3,2.5-1.9,4.3-1.9c1.9,0,3.2,0.8,3.9,2.3
	c1-1.5,2.5-2.3,4.4-2.3c1.6,0,2.8,0.5,3.6,1.4c0.8,0.9,1.2,2.3,1.2,4.2v9.4h-4v-9.4c0-0.8-0.2-1.4-0.5-1.8c-0.3-0.4-0.9-0.6-1.7-0.6
	c-1.2,0-2,0.6-2.5,1.7l0,10.2h-4v-9.4c0-0.9-0.2-1.5-0.5-1.9c-0.3-0.4-0.9-0.6-1.7-0.6c-1.1,0-1.9,0.5-2.4,1.4v10.5h-4V7.3H37.8z"/>
</svg>
