<svg id="Red_Hat_OpenShift_Dedicated_logo_A" data-name="Red Hat OpenShift Dedicated logo A" xmlns="http://www.w3.org/2000/svg" width="189.087" height="37.847" viewBox="0 0 189.087 37.847">
  <g id="Logotype" transform="translate(35.047 5.056)">
    <path id="Path" d="M1164.1,155.923a3.774,3.774,0,0,1-2.642,1,4.258,4.258,0,0,1,.017-8.512,4.091,4.091,0,0,1,2.609.939v-4.078l1.206-.275v11.805h-1.19Zm-2.527-.066a3.153,3.153,0,0,0,2.508-1.153v-4.078a3.217,3.217,0,0,0-2.508-1.137,3.037,3.037,0,0,0-3.033,3.166,3.071,3.071,0,0,0,3.033,3.206Z" transform="translate(-1011.252 -127.419)"/>
    <path id="Path-2" data-name="Path" d="M1102.8,175.163a4.144,4.144,0,0,1-3-1.24,4.229,4.229,0,0,1-1.21-3.034,4.109,4.109,0,0,1,4.027-4.249,4.033,4.033,0,0,1,3.865,4.249v.378h-6.7a3.081,3.081,0,0,0,3.065,2.832,3.529,3.529,0,0,0,2.25-.758l.751.807A4.806,4.806,0,0,1,1102.8,175.163Zm-2.979-4.874h5.463a2.738,2.738,0,0,0-5.467,0Z" transform="translate(-961.701 -145.632)"/>
    <path id="Path-3" data-name="Path" d="M1061.671,155.685h-1.761v-1.039h1.761v-2.09l1.19-.317v2.4h2.463v1.042h-2.463v5.055c0,.888.359,1.235,1.254,1.235a2.888,2.888,0,0,0,1.19-.215v1.07a4.565,4.565,0,0,1-1.434.215c-1.411,0-2.195-.692-2.195-1.993Z" transform="translate(-929.089 -133.512)"/>
    <path id="Path-4" data-name="Path" d="M1010.3,172.466c0-1.547,1.254-2.519,3.261-2.519a5.27,5.27,0,0,1,2.4.559V169.42c0-1.317-.751-1.991-2.169-1.991a5.383,5.383,0,0,0-2.56.723l-.456-.939a6.884,6.884,0,0,1,3.136-.823c2.071,0,3.23,1.021,3.23,2.865V174.8h-1.174v-.807a3.868,3.868,0,0,1-2.642.95C1011.523,174.953,1010.3,173.948,1010.3,172.466Zm3.228,1.531a3.254,3.254,0,0,0,2.43-.95V171.5a3.968,3.968,0,0,0-2.365-.659c-1.3,0-2.137.633-2.137,1.6C1011.457,173.356,1012.305,174,1013.528,174Z" transform="translate(-887.257 -145.422)"/>
    <path id="Path-5" data-name="Path" d="M963.932,172.886l.75.823a4.546,4.546,0,0,1-3.162,1.317,4.28,4.28,0,0,1,0-8.557,4.62,4.62,0,0,1,3.2,1.3l-.767.89a3.338,3.338,0,0,0-2.411-1.083,3.177,3.177,0,0,0,.02,6.343A3.36,3.36,0,0,0,963.932,172.886Z" transform="translate(-842.617 -145.489)"/>
    <path id="Path-6" data-name="Path" d="M937.6,147.873a.822.822,0,0,1,.815-.823.8.8,0,0,1,.579.239.828.828,0,0,1-.579,1.408A.833.833,0,0,1,937.6,147.873Zm1.411,10.653h-1.191v-8.249h1.206Z" transform="translate(-825.955 -129.144)"/>
    <path id="Path-7" data-name="Path" d="M881.951,155.9a3.773,3.773,0,0,1-2.642,1,4.258,4.258,0,0,1,.017-8.512,4.093,4.093,0,0,1,2.609.939V145.25l1.206-.28v11.805h-1.19Zm-2.527-.066a3.154,3.154,0,0,0,2.509-1.152V150.6a3.218,3.218,0,0,0-2.509-1.137,3.037,3.037,0,0,0-3.032,3.166,3.071,3.071,0,0,0,3.032,3.206Z" transform="translate(-773.339 -127.393)"/>
    <path id="Path-8" data-name="Path" d="M820.653,175.163a4.143,4.143,0,0,1-3-1.241,4.225,4.225,0,0,1-1.21-3.034,4.108,4.108,0,0,1,4.028-4.249,4.032,4.032,0,0,1,3.863,4.249v.378H817.63A3.081,3.081,0,0,0,820.7,174.1a3.531,3.531,0,0,0,2.25-.758l.751.807A4.8,4.8,0,0,1,820.653,175.163Zm-2.979-4.874h5.463a2.738,2.738,0,0,0-5.467,0Z" transform="translate(-723.797 -145.632)"/>
    <path id="Path-9" data-name="Path" d="M745.42,146.74h3.763a5.767,5.767,0,1,1,0,11.525H745.42Zm1.254,1.153v9.22h2.578a4.612,4.612,0,1,0,0-9.223Z" transform="translate(-663.907 -128.882)"/>
    <path id="Path-10" data-name="Path" d="M678.759,154.508H677v-1.384h1.761v-2.14l1.613-.394v2.533h2.446v1.384h-2.446v4.539c0,.856.344,1.17,1.223,1.17a3.164,3.164,0,0,0,1.191-.2V161.4a5.385,5.385,0,0,1-1.549.247c-1.615,0-2.479-.774-2.479-2.216Z" transform="translate(-606.215 -132.123)"/>
    <path id="Path-11" data-name="Path" d="M636.584,145.513v-1.267a2.488,2.488,0,0,1,2.822-2.7,4.264,4.264,0,0,1,1.174.147v1.433a3.214,3.214,0,0,0-1.027-.147c-.9,0-1.337.412-1.337,1.3v1.235h2.364V146.9h-2.366v7h-1.631v-7H634.66v-1.385Z" transform="translate(-570.513 -124.512)"/>
    <path id="Path-12" data-name="Path" d="M615.21,146.2a1.017,1.017,0,0,1,.288-.718,1,1,0,0,1,.707-.3,1.022,1.022,0,0,1,0,2.041,1,1,0,0,1-.708-.3A1.018,1.018,0,0,1,615.21,146.2Zm1.811,10.752h-1.63v-8.381h1.63Z" transform="translate(-554.113 -127.57)"/>
    <path id="Path-13" data-name="Path" d="M557.39,144.813l1.631-.363V148.8a3.4,3.4,0,0,1,2.495-1.005,3.115,3.115,0,0,1,3.245,3.277v5.268h-1.63v-4.993a1.943,1.943,0,0,0-2.056-2.124,2.345,2.345,0,0,0-2.054,1.086v6.027H557.39Z" transform="translate(-505.358 -126.955)"/>
    <path id="Path-14" data-name="Path" d="M489.393,154.329a5.478,5.478,0,0,0,3.931,1.811c1.646,0,2.772-.791,2.772-1.927,0-1.021-.654-1.531-2.316-1.811l-1.908-.317c-2.087-.345-3.115-1.333-3.115-3,0-2.009,1.664-3.31,4.208-3.31a7.616,7.616,0,0,1,4.6,1.564l-.941,1.317a6.055,6.055,0,0,0-3.733-1.415c-1.485,0-2.479.692-2.479,1.711,0,.939.571,1.384,2.038,1.631l1.835.293c2.413.4,3.506,1.4,3.506,3.195,0,2.125-1.826,3.54-4.547,3.54a6.847,6.847,0,0,1-4.892-2.074Z" transform="translate(-447.143 -128.074)"/>
    <path id="Path-15" data-name="Path" d="M434.67,165.719H436.3v.841a3.4,3.4,0,0,1,2.5-1.005,3.114,3.114,0,0,1,3.244,3.277V174.1h-1.63v-4.993a1.941,1.941,0,0,0-2.054-2.124,2.346,2.346,0,0,0-2.055,1.086v6.027h-1.631Z" transform="translate(-401.879 -144.718)"/>
    <path id="Path-16" data-name="Path" d="M377.044,174.431a4.3,4.3,0,0,1-4.354-4.347,4.192,4.192,0,0,1,4.158-4.314,4.133,4.133,0,0,1,4.011,4.38v.475h-6.552a2.807,2.807,0,0,0,2.8,2.4,3.213,3.213,0,0,0,2.1-.733l1.044,1.037A4.925,4.925,0,0,1,377.044,174.431Zm-2.723-5.039h4.925a2.473,2.473,0,0,0-4.925,0Z" transform="translate(-349.617 -144.9)"/>
    <path id="Path-17" data-name="Path" d="M311.74,165.9h1.609v.807a3.767,3.767,0,0,1,2.545-.939,4.323,4.323,0,0,1-.033,8.644,4.159,4.159,0,0,1-2.495-.823v4.1H311.74Zm1.632,2.3v3.787a3.059,3.059,0,0,0,2.314.988,2.89,2.89,0,0,0,0-5.778A2.964,2.964,0,0,0,313.372,168.2Z" transform="translate(-298.223 -144.898)"/>
    <path id="Path-18" data-name="Path" d="M231.466,157.477a5.944,5.944,0,1,1,5.958-5.943A5.881,5.881,0,0,1,231.466,157.477Zm0-10.29a4.35,4.35,0,1,0,4.207,4.347A4.2,4.2,0,0,0,231.466,147.187Z" transform="translate(-225.53 -127.915)"/>
    <path id="Path-19" data-name="Path" d="M282.954,43.5c0,1.882,1.121,2.8,3.166,2.8a8.1,8.1,0,0,0,1.864-.266V43.845a3.861,3.861,0,0,1-1.2.184c-.842,0-1.154-.266-1.154-1.065V39.617h2.44V37.369h-2.44v-2.85l-2.665.583v2.267h-1.768v2.248h1.764Zm-8.31.051c0-.583.579-.866,1.452-.866a6.7,6.7,0,0,1,1.584.2v1.132a3.347,3.347,0,0,1-1.662.416c-.856,0-1.369-.332-1.369-.882m.815,2.78a4.052,4.052,0,0,0,2.408-.682v.534h2.637V40.532c0-2.147-1.433-3.324-3.824-3.324a9.657,9.657,0,0,0-4.077.966l.957,1.982a7.064,7.064,0,0,1,2.639-.7c1.1,0,1.665.432,1.665,1.316V41.2a7.7,7.7,0,0,0-1.979-.25c-2.244,0-3.6.95-3.6,2.649,0,1.548,1.22,2.729,3.166,2.729m-14.494-.149H263.8V41.615h4.749v4.562h2.836V34.523h-2.83V39H263.81V34.523h-2.836Zm-10.8-4.417a2.219,2.219,0,0,1,2.292-2.232,2.685,2.685,0,0,1,1.847.684V43.29a2.551,2.551,0,0,1-1.847.7,2.229,2.229,0,0,1-2.292-2.231m4.172,4.412h2.639V33.94l-2.665.583v3.313a4.4,4.4,0,0,0-2.226-.583,4.552,4.552,0,0,0-3.252,7.719A4.408,4.408,0,0,0,252,46.3a3.913,3.913,0,0,0,2.341-.765Zm-12.1-6.76a1.932,1.932,0,0,1,1.83,1.4h-3.639a1.819,1.819,0,0,1,1.814-1.4m-4.506,2.37a4.6,4.6,0,0,0,4.748,4.562,5.209,5.209,0,0,0,3.645-1.333l-1.765-1.583a2.346,2.346,0,0,1-1.747.666,2.255,2.255,0,0,1-2.145-1.4h6.217v-.665c0-2.8-1.863-4.811-4.4-4.811a4.457,4.457,0,0,0-3.225,1.314,4.545,4.545,0,0,0-1.322,3.247m-4.6-4.811a1.323,1.323,0,1,1,0,2.631h-2.8V36.97Zm-5.644,9.207h2.836V41.931h2.159l2.178,4.246h3.166l-2.54-4.662a3.526,3.526,0,0,0,2.176-3.28,3.763,3.763,0,0,0-4.076-3.712h-5.894Z" transform="translate(-227.183 -33.94)"/>
  </g>
  <g id="Fedora">
    <path id="Path-20" data-name="Path" d="M21.912,15.14c1.961,0,4.8-.408,4.8-2.764a2.238,2.238,0,0,0-.049-.541L25.495,6.711c-.27-1.127-.506-1.638-2.466-2.628A22.755,22.755,0,0,0,17.208,2c-.912,0-1.184,1.194-2.266,1.194-1.047,0-1.825-.887-2.8-.887-.941,0-1.554.647-2.027,1.979,0,0-1.319,3.755-1.488,4.3a1.027,1.027,0,0,0-.038.307c0,1.46,5.7,6.247,13.327,6.247m5.1-1.808a7.948,7.948,0,0,1,.271,1.6c0,2.216-2.468,3.446-5.712,3.446-7.346,0-13.761-4.334-13.761-7.2a2.945,2.945,0,0,1,.237-1.16C5.413,10.156,2,10.634,2,13.67,2,18.654,13.695,24.8,22.955,24.8c7.1,0,8.89-3.242,8.89-5.8,0-2.014-1.725-4.3-4.834-5.664" transform="translate(-2 -2)" fill="#e00"/>
    <path id="Path-21" data-name="Path" d="M58.277,48.353a7.949,7.949,0,0,1,.271,1.6c0,2.216-2.468,3.446-5.712,3.446C45.5,53.4,39.08,49.07,39.08,46.2a2.945,2.945,0,0,1,.237-1.16l.574-1.434a1.027,1.027,0,0,0-.039.306c0,1.46,5.7,6.247,13.327,6.247,1.961,0,4.8-.408,4.8-2.764a2.238,2.238,0,0,0-.049-.541Z" transform="translate(-33.266 -37.023)"/>
  </g>
</svg>
