<svg xmlns="http://www.w3.org/2000/svg" xml:space="preserve" id="Logos" x="0" y="0" style="enable-background:new 0 0 982.6 332.6" version="1.1" viewBox="0 0 982.6 332.6"><style>.st0{fill:#fff}</style><path d="M301.3 183.1c0 5.2-1 10.1-3 14.7s-4.7 8.6-8.1 12c-3.4 3.4-7.4 6-12.1 8-4.6 1.9-9.6 2.9-14.9 2.9-5.3 0-10.2-1-14.9-2.9-4.6-1.9-8.7-4.6-12-8-3.4-3.4-6-7.3-8-12-2-4.6-3-9.5-3-14.7 0-5.2 1-10.1 3-14.7s4.6-8.6 8-12c3.4-3.4 7.4-6 12-8 4.6-1.9 9.6-2.9 14.9-2.9 5.3 0 10.2 1 14.9 2.9 4.6 1.9 8.7 4.6 12.1 8 3.4 3.4 6.1 7.4 8.1 12 2.1 4.6 3 9.5 3 14.7zm-11.1 0c0-3.9-.7-7.5-2.1-10.9-1.4-3.4-3.3-6.3-5.7-8.7-2.4-2.5-5.2-4.4-8.5-5.8-3.3-1.4-6.8-2.1-10.6-2.1s-7.2.7-10.5 2.1c-3.3 1.4-6.1 3.3-8.5 5.8-2.4 2.5-4.3 5.4-5.7 8.7-1.4 3.4-2.1 7-2.1 10.9 0 3.9.7 7.5 2.1 10.9 1.4 3.4 3.3 6.3 5.7 8.7 2.4 2.4 5.2 4.4 8.5 5.8 3.3 1.4 6.8 2.1 10.5 2.1s7.3-.7 10.6-2.1c3.3-1.4 6.1-3.3 8.5-5.8 2.4-2.4 4.3-5.3 5.7-8.7 1.4-3.4 2.1-7 2.1-10.9zM311.6 241.1v-74.5h10.3v5c2.2-1.9 4.7-3.3 7.5-4.3s5.7-1.5 8.7-1.5c3.7 0 7.2.7 10.5 2.1 3.3 1.4 6.1 3.4 8.5 5.8 2.4 2.5 4.3 5.4 5.7 8.7 1.4 3.3 2.1 6.9 2.1 10.6 0 3.8-.7 7.4-2.1 10.7-1.4 3.3-3.3 6.2-5.7 8.7-2.4 2.5-5.3 4.4-8.6 5.8-3.3 1.4-6.9 2.1-10.7 2.1-3 0-5.8-.5-8.5-1.4-2.7-.9-5.1-2.2-7.3-3.8V241h-10.4zm25.1-66.3c-3.1 0-5.8.6-8.3 1.7-2.5 1.1-4.6 2.6-6.3 4.6v24.1c1.7 1.9 3.8 3.4 6.3 4.5 2.6 1.1 5.3 1.7 8.3 1.7 5.1 0 9.4-1.8 12.8-5.3 3.4-3.5 5.1-7.8 5.1-12.9 0-5.2-1.8-9.6-5.3-13.1-3.4-3.5-7.6-5.3-12.6-5.3zM372.4 193c0-3.7.7-7.3 2-10.6 1.4-3.3 3.2-6.2 5.6-8.7 2.4-2.5 5.2-4.4 8.4-5.8 3.2-1.4 6.7-2.1 10.5-2.1 3.6 0 7 .7 10.1 2.1 3.2 1.4 5.9 3.4 8.1 5.8 2.3 2.5 4 5.4 5.4 8.8 1.3 3.4 2 7 2 10.9v3h-41.8c.7 4.4 2.7 8 6 10.9 3.3 2.9 7.3 4.3 11.9 4.3 2.6 0 5-.4 7.4-1.2 2.4-.8 4.4-2 6-3.4l6.7 6.6c-3.1 2.4-6.3 4.2-9.6 5.3-3.3 1.1-6.9 1.7-10.9 1.7-3.9 0-7.5-.7-10.9-2.1-3.4-1.4-6.3-3.3-8.8-5.8-2.5-2.4-4.5-5.3-5.9-8.7-1.5-3.5-2.2-7.1-2.2-11zm26.3-18.5c-4 0-7.5 1.3-10.4 4-2.9 2.6-4.8 6-5.5 10.2h31.4c-.7-4-2.5-7.4-5.4-10.1-2.9-2.7-6.3-4.1-10.1-4.1zM434.3 219.5v-52.9h10.4v5.3c2.1-2.1 4.5-3.7 7.1-4.7 2.7-1.1 5.6-1.6 8.8-1.6 6 0 11 1.9 14.8 5.8 3.8 3.9 5.8 8.8 5.8 14.9v33.3h-10.3V188c0-4.1-1.2-7.3-3.5-9.8-2.4-2.4-5.6-3.6-9.7-3.6-2.8 0-5.3.6-7.5 1.8-2.2 1.2-4.1 2.9-5.5 5.1v38.1h-10.4zM488 207.5l6.7-7.7c3.9 3.8 7.9 6.7 12 8.6 4.1 1.9 8.5 2.9 13.1 2.9 5.3 0 9.5-1.1 12.8-3.4 3.3-2.3 4.9-5.2 4.9-8.7 0-3.2-1.1-5.7-3.3-7.4-2.2-1.8-6-3.1-11.4-4l-12.2-2c-6.7-1.1-11.7-3.3-15-6.4-3.3-3.2-4.9-7.3-4.9-12.5 0-6.2 2.4-11.3 7.3-15.1 4.9-3.8 11.4-5.8 19.5-5.8 5.1 0 10.3.8 15.4 2.5s9.8 4.1 13.9 7.3l-6 8.3c-4-3-7.9-5.2-11.9-6.7s-8-2.2-11.9-2.2c-4.7 0-8.5 1-11.4 3-2.9 2-4.4 4.6-4.4 7.8 0 2.9 1 5.2 3 6.8 2 1.6 5.3 2.8 10 3.5l11.8 1.9c7.7 1.2 13.3 3.5 17 6.8 3.6 3.3 5.4 7.7 5.4 13.4 0 3.3-.7 6.4-2.1 9.1-1.4 2.7-3.3 5.1-5.9 7.1-2.5 2-5.6 3.5-9.2 4.6-3.6 1.1-7.6 1.6-11.9 1.6-5.8 0-11.4-1.1-16.8-3.4-5.5-2.5-10.3-5.8-14.5-9.9zM567.4 144.5v75.1H557v-72.8l10.4-2.3zm-10.4 75v-52.9h10.4v5.3c2.1-2.1 4.5-3.7 7.1-4.7 2.7-1.1 5.6-1.6 8.8-1.6 6 0 11 1.9 14.8 5.8 3.8 3.9 5.8 8.8 5.8 14.9v33.3h-10.3V188c0-4.1-1.2-7.3-3.5-9.8-2.4-2.4-5.6-3.6-9.7-3.6-2.8 0-5.3.6-7.5 1.8-2.2 1.2-4.1 2.9-5.5 5.1v38.1H557zM621.1 158.1c-1.7 0-3.2-.6-4.5-1.9-1.3-1.3-1.9-2.8-1.9-4.5 0-1.7.6-3.2 1.9-4.5 1.3-1.3 2.8-1.9 4.5-1.9 1.7 0 3.2.6 4.5 1.9 1.2 1.3 1.9 2.8 1.9 4.5 0 1.7-.6 3.2-1.9 4.5-1.2 1.2-2.7 1.9-4.5 1.9zm5.2 8.5v52.9h-10.4v-52.9h10.4zM634.1 166.6h12.3v-8c0-5.3 1.5-9.5 4.6-12.5 3-3 7.5-4.5 13.4-4.5 1.3 0 2.6.1 3.9.3 1.3.2 2.5.4 3.6.7v9c-1.2-.3-2.3-.6-3.2-.7-1-.1-2.1-.2-3.3-.2-2.9 0-5.1.7-6.5 2-1.4 1.3-2.1 3.4-2.1 6.2v7.8H672v8.7h-15.2v44.2h-10.3v-44.2h-12.3v-8.8zM687.7 206.4v-31.1h-11.2v-8.7h11.2v-13.5l10.3-2.5v16h15.6v8.7H698V204c0 2.7.6 4.6 1.8 5.7 1.2 1.1 3.2 1.7 6 1.7 1.5 0 2.8-.1 4-.3 1.1-.2 2.3-.5 3.6-1v8.7c-1.5.5-3.1.9-4.9 1.1-1.8.3-3.5.4-5 .4-5.1 0-9-1.2-11.8-3.6s-4-5.7-4-10.3zM229.3 254.7h24c22.6 0 38.3 15.7 38.3 36.4s-15.6 36.4-38.3 36.4h-24v-72.8zm8 7.3v58.2h16.4c16.8 0 29.7-12.6 29.7-29.1S270.6 262 253.7 262h-16.4zM298.8 312.8c0-10.6 9.2-15.9 20.8-15.9 5.5 0 10.8 1.2 15.3 3.5v-6.9c0-8.4-4.8-12.6-13.8-12.6-5.3 0-10.4 1.6-16.3 4.6l-2.9-5.9c6.9-3.3 13.1-5.2 20-5.2 13.1 0 20.6 6.3 20.6 18.1v35H335v-5.1c-4.7 4-10.2 6-16.8 6-11.4.1-19.4-6.3-19.4-15.6zm20.6 9.6c6.3 0 11.4-2.1 15.5-6v-9.9c-4.2-2.7-8.9-4.1-15.1-4.1-8 0-13.6 3.8-13.6 10.1 0 6.1 5.6 9.9 13.2 9.9zM359.8 282h-11.2v-6.6h11.2v-13.2l7.6-2v15.2h15.7v6.6h-15.7v31.9c0 5.6 2.3 7.8 8 7.8 3.1 0 5.1-.4 7.6-1.4v6.8c-2.8.9-6.2 1.4-9.2 1.4-9.2 0-14-4.5-14-12.6V282zM388.5 312.8c0-10.6 9.2-15.9 20.8-15.9 5.5 0 10.8 1.2 15.3 3.5v-6.9c0-8.4-4.8-12.6-13.8-12.6-5.3 0-10.4 1.6-16.3 4.6l-2.9-5.9c6.9-3.3 13.1-5.2 20-5.2 13.1 0 20.6 6.3 20.6 18.1v35h-7.5v-5.1c-4.7 4-10.2 6-16.8 6-11.5.1-19.4-6.3-19.4-15.6zm20.6 9.6c6.3 0 11.4-2.1 15.5-6v-9.9c-4.2-2.7-8.9-4.1-15.1-4.1-8 0-13.6 3.8-13.6 10.1 0 6.1 5.6 9.9 13.2 9.9zM468.9 254.7h52.5v7.1h-44.5v26h29.3v7h-29.3v32.8h-8v-72.9zM546.7 274.4c14.8 0 26.5 11.9 26.5 27 0 15.3-11.8 27.1-26.5 27.1-14.9 0-26.6-11.9-26.6-27.1 0-15.2 11.7-27 26.6-27zm0 6.9c-10.6 0-19 8.8-19 20.2s8.3 20.3 19 20.3c10.6 0 18.9-8.9 18.9-20.3s-8.3-20.2-18.9-20.2zM591.4 306.8c0 9.2 5.5 15 14.6 15 6.1 0 11.2-2.8 14.4-8v-38.4h7.7v52.1h-7.7v-6c-4.1 4.7-9.6 7.1-16.3 7.1-12 0-20.2-8.2-20.2-20.2v-33h7.6v31.4zM640.9 275.4h7.7v6c4.1-4.7 9.6-7.1 16.3-7.1 12 0 20.2 8.2 20.2 20.2v33h-7.6v-31.4c0-9.2-5.5-15-14.6-15-6.1 0-11.2 2.8-14.4 8v38.4h-7.7v-52.1zM738.8 322c-4.5 4.2-10.4 6.3-16.8 6.3-14.9 0-26.2-12-26.2-26.9s11.3-26.8 26.3-26.8c6.2 0 12 2.2 16.6 5.9v-25.8l7.7-1.8v74.6h-7.6V322zm-16.2-.4c6.9 0 12.5-2.8 16-7.3v-25.8c-3.5-4.4-9.3-7.2-16-7.2-11 0-19.3 8.6-19.3 20 0 11.6 8.5 20.3 19.3 20.3zM756.5 312.8c0-10.6 9.2-15.9 20.8-15.9 5.5 0 10.8 1.2 15.3 3.5v-6.9c0-8.4-4.8-12.6-13.8-12.6-5.3 0-10.4 1.6-16.3 4.6l-2.9-5.9c6.9-3.3 13.1-5.2 20-5.2 13.1 0 20.6 6.3 20.6 18.1v35h-7.5v-5.1c-4.7 4-10.2 6-16.8 6-11.4.1-19.4-6.3-19.4-15.6zm20.6 9.6c6.3 0 11.4-2.1 15.5-6v-9.9c-4.2-2.7-8.9-4.1-15.1-4.1-8 0-13.6 3.8-13.6 10.1 0 6.1 5.6 9.9 13.2 9.9zM817.5 282h-11.2v-6.6h11.2v-13.2l7.6-2v15.2h15.7v6.6h-15.7v31.9c0 5.6 2.3 7.8 8 7.8 3.1 0 5.1-.4 7.6-1.4v6.8c-2.8.9-6.2 1.4-9.2 1.4-9.2 0-14-4.5-14-12.6V282zM847.5 260.2c0-2.9 2.3-5.2 5.2-5.2s5.2 2.3 5.2 5.2c0 2.8-2.3 5.2-5.2 5.2s-5.2-2.3-5.2-5.2zm9.1 67.3h-7.7v-52.1h7.7v52.1zM893.8 274.4c14.8 0 26.5 11.9 26.5 27 0 15.3-11.8 27.1-26.5 27.1-14.9 0-26.6-11.9-26.6-27.1 0-15.2 11.8-27 26.6-27zm0 6.9c-10.6 0-19 8.8-19 20.2s8.3 20.3 19 20.3c10.6 0 18.9-8.9 18.9-20.3s-8.3-20.2-18.9-20.2zM931 275.4h7.7v6c4.1-4.7 9.6-7.1 16.3-7.1 12 0 20.2 8.2 20.2 20.2v33h-7.6v-31.4c0-9.2-5.5-15-14.6-15-6.1 0-11.2 2.8-14.4 8v38.4H931v-52.1z"/><path d="M129 85c12.5 0 30.6-2.6 30.6-17.5 0-1.2 0-2.3-.3-3.4l-7.4-32.4c-1.7-7.1-3.2-10.3-15.7-16.6C126.4 10.2 105.3 2 99 2c-5.8 0-7.5 7.5-14.4 7.5-6.7 0-11.6-5.6-17.9-5.6-6 0-9.9 4.1-12.9 12.5 0 0-8.4 23.7-9.5 27.2-.3.7-.3 1.4-.3 1.9C44 54.8 80.3 85 129 85m32.5-11.4c1.7 8.2 1.7 9.1 1.7 10.1 0 14-15.7 21.8-36.4 21.8-46.8 0-87.7-27.4-87.7-45.5 0-2.8.6-5.4 1.5-7.3-16.8.8-38.6 3.8-38.6 23C2 107.2 76.6 146 135.7 146c45.3 0 56.7-20.5 56.7-36.6-.1-12.8-11-27.2-30.9-35.8" style="fill:#e00"/><path d="M161.5 73.6c1.7 8.2 1.7 9.1 1.7 10.1 0 14-15.7 21.8-36.4 21.8-46.8 0-87.7-27.4-87.7-45.5 0-2.8.6-5.4 1.5-7.3l3.7-9.1c-.3.7-.3 1.4-.3 1.9C44 54.8 80.3 85 129 85c12.5 0 30.6-2.6 30.6-17.5 0-1.2 0-2.3-.3-3.4l2.2 9.5zM581.2 94.3c0 11.9 7.2 17.7 20.2 17.7 3.2 0 8.6-.7 11.9-1.7V96.5c-2.8.8-4.9 1.2-7.7 1.2-5.4 0-7.4-1.7-7.4-6.7V69.8h15.6V55.6h-15.6v-18l-17 3.7v14.3H570v14.2h11.3v24.5zm-52.9.3c0-3.7 3.7-5.5 9.3-5.5 3.7 0 7 .5 10.1 1.3v7.2c-3.2 1.8-6.8 2.6-10.6 2.6-5.5 0-8.8-2.1-8.8-5.6m5.2 17.6c6 0 10.8-1.3 15.4-4.3v3.4h16.8V75.6c0-13.6-9.1-21-24.4-21-8.5 0-16.9 2-26 6.1l6.1 12.5c6.5-2.7 12-4.4 16.8-4.4 7 0 10.6 2.7 10.6 8.3v2.7c-4-1.1-8.2-1.6-12.6-1.6-14.3 0-22.9 6-22.9 16.7 0 9.8 7.8 17.3 20.2 17.3m-92.4-1h18.1V82.4h30.3v28.8h18.1V37.6h-18.1v28.3h-30.3V37.6h-18.1v73.6zm-69-27.8c0-8 6.3-14.1 14.6-14.1 4.6 0 8.8 1.6 11.8 4.3V93c-3 2.9-7 4.4-11.8 4.4-8.2.1-14.6-6-14.6-14m26.6 27.8h16.8V33.9l-17 3.7v20.9c-4.2-2.4-9-3.7-14.2-3.7-16.2 0-28.9 12.5-28.9 28.5s12.5 28.6 28.4 28.6c5.5 0 10.6-1.7 14.9-4.8v4.1zm-77.2-42.7c5.4 0 9.9 3.5 11.7 8.8H310c1.7-5.5 5.9-8.8 11.5-8.8m-28.7 15c0 16.2 13.3 28.8 30.3 28.8 9.4 0 16.2-2.5 23.2-8.4l-11.3-10c-2.6 2.7-6.5 4.2-11.1 4.2-6.3 0-11.5-3.5-13.7-8.8h39.6V85c0-17.7-11.9-30.4-28.1-30.4-16.1.1-28.9 12.7-28.9 28.9m-29.3-30.4c6 0 9.4 3.8 9.4 8.3s-3.4 8.3-9.4 8.3h-17.9V53.1h17.9zm-36 58.1h18.1V84.4h13.8l13.9 26.8h20.2l-16.2-29.4c8.7-3.8 13.9-11.7 13.9-20.7 0-13.3-10.4-23.5-26-23.5h-37.7v73.6z"/></svg>