<svg xmlns="http://www.w3.org/2000/svg" xmlns:xlink="http://www.w3.org/1999/xlink" viewBox="0 0 642 280"><defs><path id="a" d="M153.45 90.47h7.7l17.91 43.84h-7.14l-5.07-12.84h-19.61l-5.13 12.84h-6.82l18.16-43.84Zm11.27 25.55-7.64-19.22-7.64 19.22h15.28Z"/><path id="b" d="M205.55 131.3a15.122 15.122 0 0 1-9.78 3.51c-9.03 0-16.09-7.23-16.09-16.47 0-9.24 7.08-16.41 16.22-16.41 3.46 0 6.82 1.11 9.61 3.15V90.47l6.26-1.37v45.21h-6.22v-3.01Zm-.04-5.75V111.1a11.632 11.632 0 0 0-8.83-3.75c-6.13 0-10.84 4.69-10.84 10.95 0 6.27 4.68 11.06 10.81 11.06 3.37.09 6.61-1.3 8.86-3.81Z"/><path id="c" d="M215.62 102.43h6.89l9.96 23.86 9.95-23.86h6.71l-13.78 31.88h-5.95l-13.78-31.88Z"/><path id="d" d="M264.28 115.46c2.99 0 5.95.59 8.7 1.75v-3.38c0-4.51-2.69-6.76-7.76-6.76-2.95 0-5.95.81-9.9 2.69l-2.31-4.7c4.76-2.25 8.89-3.25 13.08-3.25 8.27 0 13.03 4.07 13.03 11.39v21.08h-6.14v-2.71c-2.8 2.25-6.31 3.43-9.89 3.32-6.95-.02-11.71-3.97-11.71-9.73 0-6.02 4.88-9.7 12.9-9.7Zm8.66 11.77v-5.52a16.59 16.59 0 0 0-8.2-1.94c-4.57 0-7.38 2.07-7.38 5.26.03 3.08 2.94 5.21 7.15 5.21 3.09.09 6.1-.98 8.43-3.01Z"/><path id="e" d="M286.32 102.43h6.26v3.19c2.54-2.52 6-3.9 9.58-3.81 7.33 0 12.46 5.07 12.46 12.46v20.04h-6.26v-18.99c0-5.01-3.07-8.08-7.89-8.08a9.02 9.02 0 0 0-7.89 4.13v22.92h-6.26v-31.86Z"/><path id="f" d="M349.37 129.54c-3.3 3.4-7.84 5.32-12.58 5.33-9.13-.18-16.39-7.72-16.21-16.85.16-8.88 7.33-16.04 16.21-16.21 4.82-.01 9.44 1.9 12.84 5.32-.4.42-3.55 3.83-3.95 4.26a11.828 11.828 0 0 0-8.76-4.01c-5.83 0-10.34 4.82-10.34 10.96 0 6.26 4.57 11.02 10.46 11.02 3.19 0 6.01-1.25 8.58-3.89.75.82 3.38 3.67 3.75 4.07Z"/><path id="g" d="M351.75 118.34c0-9.21 7.02-16.41 15.97-16.41 8.77 0 15.41 7.26 15.41 16.66v1.8h-25.18c.81 5.31 5.41 9.21 10.78 9.14 2.93.07 5.79-.92 8.07-2.77.4.39 3.61 3.55 4.01 3.95a19.021 19.021 0 0 1-12.34 4.16c-9.39 0-16.72-7.23-16.72-16.53Zm25.18-2.63c-.94-4.88-4.7-8.52-9.33-8.52-4.82 0-8.65 3.45-9.59 8.52h18.92Z"/><path id="h" d="M413.62 131.3c-2.73 2.29-6.2 3.53-9.77 3.51-9.03 0-16.09-7.23-16.09-16.47 0-9.24 7.08-16.41 16.22-16.41 3.44 0 6.8 1.1 9.58 3.13V90.47l6.26-1.37v45.21h-6.2v-3.01Zm-.06-5.75V111.1a11.632 11.632 0 0 0-8.83-3.75c-6.13 0-10.84 4.69-10.84 10.95 0 6.27 4.71 11.06 10.84 11.06 3.36.08 6.58-1.31 8.83-3.81Z"/><path id="i" d="M479.69 127.42a24.119 24.119 0 0 1-17.54 7.57c-12.96 0-22.98-9.95-22.98-22.6 0-12.65 10.02-22.61 22.98-22.61 6.89 0 13.53 2.89 17.66 7.58-.44.45-3.95 4.06-4.39 4.51a17.35 17.35 0 0 0-13.24-6.02c-9.27 0-16.26 7.14-16.26 16.53s7.08 16.53 16.47 16.53c4.98.03 9.72-2.11 12.97-5.87.87.87 3.89 3.94 4.33 4.38Z"/><path id="j" d="M491.64 134.31h-6.26V90.47l6.26-1.37v45.21Z"/><path id="k" d="M505.17 121.34c0 5.01 3.07 8.14 7.88 8.14 3.18.08 6.15-1.52 7.83-4.22v-22.88h6.27v31.88h-6.27v-3.2a13.045 13.045 0 0 1-9.58 3.83c-7.32 0-12.39-5.14-12.39-12.53v-19.93h6.26v18.91Z"/><path id="l" d="M534.91 126.04c3.32 2.63 6.82 4.01 10.39 4.01 4.51 0 7.64-1.94 7.64-4.76 0-2.25-1.62-3.57-5.13-4.07-.57-.08-5.16-.73-5.73-.82-6.33-.93-9.52-3.88-9.52-8.82 0-5.76 5.01-9.64 12.46-9.64 4.6-.03 9.09 1.4 12.84 4.07-.32.42-2.88 3.72-3.19 4.13-3.51-2.31-6.71-3.31-10.08-3.31-3.83 0-6.39 1.75-6.39 4.32 0 2.32 1.5 3.44 5.25 4 .58.09 5.19.74 5.77.82 6.32.94 9.63 3.95 9.63 8.89 0 5.7-5.76 10.02-13.34 10.02-5.51 0-10.45-1.63-13.96-4.7.67-.83 2.69-3.31 3.36-4.14Z"/><path id="m" d="M567.16 107.69h-6.76v-5.26h6.76v-8.14l6.2-1.5v9.63h9.39v5.26h-9.36v17.27c0 3.26 1.31 4.45 4.7 4.45 1.55.04 3.1-.22 4.57-.75v5.25c-1.93.61-3.93.92-5.95.94-6.2 0-9.52-2.94-9.52-8.43 0-2.49-.01-8.73-.03-18.72Z"/><path id="n" d="M585.25 118.34c0-9.21 7.02-16.41 15.98-16.41 8.76 0 15.4 7.26 15.4 16.66v1.8h-25.18c.81 5.31 5.41 9.21 10.78 9.14 2.94.05 5.8-.95 8.08-2.82.4.4 3.6 3.56 4 3.95-3.49 2.82-7.86 4.3-12.34 4.21-9.39 0-16.72-7.23-16.72-16.53Zm25.18-2.63c-.94-4.88-4.7-8.52-9.33-8.52-4.83 0-8.64 3.45-9.58 8.52h18.91Z"/><path id="o" d="M622.58 102.43h6.26v4.07a9.94 9.94 0 0 1 8.76-4.75c1.09-.06 2.18.11 3.2.5v5.63a10.6 10.6 0 0 0-3.7-.69c-3.69 0-6.62 2-8.26 5.83v21.29h-6.26v-31.88Z"/><path id="p" d="M139.73 187.44c4.76 4.63 9.63 6.88 15.09 6.88 6.33 0 10.65-3.01 10.65-7.32 0-3.89-2.51-5.83-8.89-6.89-.74-.12-6.6-1.09-7.33-1.21-8.01-1.31-11.96-5.07-11.96-11.39 0-7.64 6.38-12.59 16.16-12.59 6.37.02 12.57 2.11 17.66 5.95-.37.5-3.26 4.51-3.62 5.01-4.76-3.61-9.46-5.38-14.34-5.38-5.7 0-9.52 2.62-9.52 6.51 0 3.57 2.19 5.26 7.83 6.2.71.11 6.38 1 7.09 1.11 9.27 1.51 13.46 5.33 13.46 12.15 0 8.08-7.01 13.47-17.46 13.47a26.395 26.395 0 0 1-18.79-7.9c.8-.92 3.18-3.68 3.97-4.6Z"/><path id="q" d="M176.49 183.37c0-9.21 7.01-16.41 15.97-16.41 8.76 0 15.4 7.26 15.4 16.65v1.81h-25.17c.79 5.32 5.4 9.23 10.78 9.15 2.93.06 5.79-.93 8.07-2.79.4.4 3.6 3.56 4.01 3.95-3.5 2.8-7.87 4.27-12.34 4.16-9.39 0-16.72-7.22-16.72-16.52Zm25.17-2.64c-.94-4.88-4.69-8.51-9.33-8.51-4.82 0-8.64 3.45-9.58 8.51h18.91Z"/><path id="r" d="M241.48 194.57c-3.3 3.4-7.84 5.32-12.58 5.32-9.13-.17-16.39-7.71-16.21-16.84.17-8.89 7.33-16.05 16.21-16.22a18.05 18.05 0 0 1 12.84 5.33c-.4.42-3.55 3.83-3.95 4.25a11.854 11.854 0 0 0-8.76-4c-5.83 0-10.34 4.81-10.34 10.96 0 6.26 4.57 11.01 10.46 11.01 3.19 0 6.01-1.25 8.58-3.88.75.82 3.38 3.66 3.75 4.07Z"/><path id="s" d="M252.7 186.36c0 5.01 3.06 8.14 7.88 8.14 3.17.09 6.15-1.52 7.83-4.21v-22.88h6.26v31.88h-6.26v-3.2c-2.53 2.54-6 3.92-9.58 3.82-7.33 0-12.4-5.13-12.4-12.52v-19.93h6.27v18.9Z"/><path id="t" d="M282.06 167.46h6.26v4.07a9.986 9.986 0 0 1 8.77-4.76c1.09-.05 2.18.12 3.2.5v5.64c-1.19-.45-2.44-.68-3.7-.69-3.7 0-6.62 2-8.27 5.82v21.29h-6.26v-31.87Z"/><path id="u" d="M308.42 154.56a3.887 3.887 0 0 1 4.03 3.73 3.872 3.872 0 0 1-3.72 4.03c-.11.01-.21.01-.31 0a3.843 3.843 0 0 1-3.82-3.87v-.01a3.852 3.852 0 0 1 3.82-3.88Zm3.13 44.77h-6.26v-31.87h6.26v31.87Z"/><path id="v" d="M323.07 172.72h-6.77v-5.26h6.76v-8.14l6.19-1.51v9.64h9.39v5.26h-9.39v17.27c0 3.25 1.32 4.45 4.7 4.45 1.56.04 3.11-.22 4.57-.76v5.26c-1.92.6-3.93.92-5.94.94-6.21 0-9.52-2.94-9.52-8.43 0-2.5.01-8.74.01-18.72Z"/><path id="w" d="m353.13 199.46-12.71-32h6.89l9.33 24.36 10.27-24.36h6.76c-9.24 21.41-14.38 33.31-15.4 35.69-2.95 6.83-6.33 9.52-12.21 9.52-1.12.03-2.24-.1-3.33-.37v-5.51c.93.19 1.88.27 2.82.24 2.89 0 4.95-1.5 6.33-4.69.17-.39.58-1.34 1.25-2.88Z"/><path id="x" d="M143.67 232.98v-5.94c0-6.14 3.45-9.52 9.72-9.52 1.42-.06 2.85.13 4.21.56v4.13c-1.25-.41-2.56-.61-3.88-.6-3.69 0-5.42 1.76-5.42 5.58v5.82h9.33v3.93h-9.38v27.43h-4.58v-27.43h-7.4V233l7.4-.02Z"/><path id="y" d="M191.52 248.62c0 9.11-7.08 16.37-15.97 16.37s-16.03-7.14-16.03-16.35 7.08-16.28 16.03-16.28c8.89 0 15.97 7.14 15.97 16.26Zm-15.97-12.15c-6.39 0-11.44 5.32-11.44 12.15 0 6.82 5.01 12.21 11.44 12.21s11.4-5.36 11.4-12.19c0-6.85-5.01-12.17-11.4-12.17Z"/><path id="z" d="M197.96 232.98h4.64v4.45a9.797 9.797 0 0 1 8.77-5.13c1-.03 1.99.12 2.94.44v4.25c-1.05-.36-2.15-.55-3.26-.56-3.88 0-6.82 2.26-8.42 6.45v21.48h-4.64l-.03-31.38Z"/><path id="A" d="M233.97 220.53h4.82v20.79l22.67-20.79h6.32L243.98 242l24.3 22.36h-6.78l-22.72-21.07v21.07h-4.82l.01-43.83Z"/><path id="B" d="M274.55 251.9c0 5.57 3.38 9.03 8.76 9.03 3.56.08 6.88-1.79 8.65-4.88v-23.07h4.63v31.38h-4.63v-3.61c-2.45 2.82-5.76 4.25-9.83 4.25-7.23 0-12.15-4.94-12.15-12.15v-19.87h4.57v18.92Z"/><path id="C" d="M309.05 261.25v3.13h-4.57v-43.83l4.63-1.07v16.86c2.74-2.54 6.36-3.91 10.09-3.82 8.88 0 15.78 7.08 15.78 16.16s-6.9 16.18-15.85 16.18c-3.68 0-7.24-1.28-10.08-3.61Zm.06-4.78c2.41 2.8 5.94 4.39 9.64 4.32 6.62 0 11.64-5.2 11.64-12.08 0-6.89-5.07-12.15-11.64-12.15-3.72-.09-7.26 1.52-9.64 4.38v15.53Z"/><path id="D" d="M340.05 249.11c-.01-.15 0-.3 0-.45 0-9.03 6.82-16.15 15.46-16.15 8.33 0 14.84 7.14 14.84 16.15v1.45h-25.76c.69 6.19 5.57 10.76 11.77 10.76 3.26 0 6.52-1.06 8.64-2.87.29.3 2.6 2.76 2.89 3.07a18.626 18.626 0 0 1-11.69 3.85c-8.83.09-16.06-6.99-16.15-15.81Zm25.69-2.72c-.81-5.58-5.14-9.83-10.33-9.83-5.47 0-9.79 4.07-10.67 9.83h21Z"/><path id="E" d="M376.8 232.98h4.64v4.45a9.77 9.77 0 0 1 8.76-5.13c1-.03 2 .12 2.95.44v4.25c-1.05-.36-2.15-.55-3.26-.56-3.88 0-6.83 2.26-8.43 6.45v21.48h-4.64l-.02-31.38Z"/><path id="F" d="M398.47 232.98h4.63v3.7c2.44-2.88 5.83-4.32 9.9-4.32 7.13 0 12.08 4.95 12.08 12.15v19.87h-4.57v-18.93c0-5.58-3.38-9.03-8.76-9.03a9.746 9.746 0 0 0-8.65 4.81v23.11h-4.63v-31.36Z"/><path id="G" d="M431.4 249.11v-.45c0-9.03 6.83-16.15 15.47-16.15 8.32 0 14.84 7.14 14.84 16.15v1.45h-25.74c.7 6.19 5.58 10.76 11.78 10.76 3.25 0 6.51-1.06 8.64-2.87.29.3 2.59 2.76 2.88 3.07a18.571 18.571 0 0 1-11.72 3.85c-8.83.09-16.06-6.99-16.15-15.81Zm25.69-2.72c-.81-5.58-5.14-9.83-10.33-9.83-5.46 0-9.78 4.07-10.65 9.83h20.98Z"/><path id="H" d="M470.79 236.94h-6.76V233h6.76v-7.97l4.57-1.2v9.14h9.46v3.97h-9.46v19.23c0 3.38 1.38 4.69 4.82 4.69 1.56.05 3.12-.22 4.57-.81v4.07c-1.78.56-3.64.83-5.51.81-5.42 0-8.43-2.62-8.43-7.57 0-2.72-.01-9.53-.02-20.42Z"/><path id="I" d="M487.32 249.11v-.45c0-9.03 6.83-16.15 15.47-16.15 8.33 0 14.84 7.14 14.84 16.15v1.45h-25.74c.69 6.19 5.58 10.76 11.78 10.76 3.26 0 6.51-1.06 8.64-2.87.29.3 2.59 2.76 2.88 3.07a18.662 18.662 0 0 1-11.71 3.85c-8.83.1-16.06-6.98-16.16-15.81Zm25.7-2.72c-.81-5.58-5.13-9.83-10.33-9.83-5.47 0-9.79 4.07-10.67 9.83h21Z"/><path id="J" d="M524.02 257.03a15 15 0 0 0 10.23 4.22c5.01 0 8.52-2.32 8.52-5.64 0-2.69-1.81-4.21-5.82-4.76-.55-.08-4.88-.67-5.42-.75-6.26-.94-9.27-3.69-9.27-8.43 0-5.26 4.88-9.14 11.77-9.14 4.43-.03 8.74 1.41 12.27 4.09-.24.31-2.17 2.82-2.41 3.13-3.51-2.41-6.7-3.51-10.14-3.51-4.32 0-7.27 2.13-7.27 5.2 0 2.7 1.69 4.01 5.82 4.63.55.08 4.88.68 5.42.76 6.26.87 9.4 3.69 9.4 8.51 0 5.45-5.51 9.58-12.71 9.58-5.2 0-9.9-1.75-13.21-4.88.56-.6 2.25-2.41 2.82-3.01Z"/><path id="K" d="M78.47 53.05c7.53 0 18.43-1.55 18.43-10.51.02-.69-.04-1.38-.19-2.06L92.22 21c-1.03-4.29-1.94-6.23-9.47-10-5.86-2.99-18.58-7.92-22.35-7.92-3.5 0-4.54 4.54-8.7 4.54-4.02 0-7.01-3.37-10.77-3.37-3.61 0-5.97 2.46-7.78 7.52 0 0-5.07 14.29-5.72 16.36-.1.38-.15.77-.14 1.17 0 5.55 21.87 23.75 51.18 23.75m19.59-6.87c1.05 4.93 1.05 5.45 1.05 6.1 0 8.43-9.48 13.11-21.94 13.11C48.96 65.38 24.33 48.9 24.33 38c-.01-1.52.3-3.02.9-4.41C15.11 34.1 2 35.92 2 47.47c0 18.95 44.91 42.31 80.47 42.31 27.26 0 34.14-12.33 34.14-22.06 0-7.66-6.62-16.36-18.56-21.55"/><path id="L" d="M99.25 46.42c1.04 4.93 1.04 5.45 1.04 6.1 0 8.43-9.47 13.11-21.93 13.11-28.19 0-52.83-16.48-52.83-27.38 0-1.52.31-3.02.91-4.41.22-.55 1.98-4.91 2.2-5.46-.11.38-.16.77-.15 1.16 0 5.55 21.88 23.76 51.18 23.76 7.53 0 18.43-1.55 18.43-10.51.02-.69-.04-1.38-.19-2.06.27 1.14 1.07 4.55 1.34 5.69Z"/><path id="M" d="M351.96 58.9c0 7.16 4.31 10.64 12.16 10.64 2.42-.06 4.82-.4 7.16-1.01v-8.3c-1.5.47-3.06.71-4.63.7-3.23 0-4.43-1.01-4.43-4.05V44.15h9.37V35.6h-9.37V24.76l-10.23 2.22v8.62h-6.79v8.55h6.77c0 7.87-.01 12.78-.01 14.75Zm-31.91.19c0-2.21 2.22-3.29 5.58-3.29 2.05.01 4.09.27 6.08.76v4.3a12.962 12.962 0 0 1-6.38 1.59c-3.29 0-5.26-1.27-5.26-3.36m3.13 10.58c3.61 0 6.53-.76 9.25-2.6v2.03h10.13V47.63c0-8.17-5.51-12.64-14.69-12.64-5.13 0-10.2 1.2-15.65 3.67.36.75 3.3 6.78 3.67 7.54 3.93-1.65 7.22-2.67 10.13-2.67 4.22 0 6.4 1.65 6.4 5.01v1.64a29.98 29.98 0 0 0-7.6-.95c-8.62 0-13.81 3.61-13.81 10.07 0 5.89 4.69 10.38 12.16 10.38m-55.66-.56h10.89V51.75h18.24V69.1h10.89V24.77h-10.87v17.04h-18.23V24.77h-10.89l-.03 44.35Zm-41.48-16.8c0-4.82 3.8-8.49 8.81-8.49 2.6-.06 5.14.87 7.09 2.6v11.69a9.904 9.904 0 0 1-7.09 2.66c-4.94 0-8.81-3.67-8.81-8.48m16.02 16.78h10.14V22.56l-10.24 2.21v12.61c-2.6-1.48-5.55-2.25-8.55-2.22-9.75 0-17.41 7.53-17.41 17.16-.13 9.39 7.39 17.11 16.78 17.24h.3c3.23.01 6.38-1.01 8.98-2.91v2.43ZM195.6 43.37c3.23 0 5.95 2.09 7.03 5.31h-13.98c1.01-3.35 3.55-5.31 6.97-5.31m-17.31 9.01c0 9.75 7.98 17.35 18.23 17.35 5.64 0 9.76-1.52 14-5.07-.68-.6-6.1-5.42-6.78-6.02-1.58 1.65-3.92 2.54-6.7 2.54-3.58.1-6.86-2.02-8.24-5.32h23.87v-2.53c0-10.64-7.15-18.3-16.9-18.3-9.5-.14-17.32 7.44-17.46 16.94-.01.14-.01.27-.01.41m-17.67-18.3c3.61 0 5.63 2.28 5.63 5.01 0 2.72-2.03 5-5.63 5h-10.77V34.08h10.77ZM138.97 69.1h10.89V52.95h8.29l8.37 16.15h12.15l-9.75-17.73c5.07-2.06 8.38-7 8.36-12.48 0-7.98-6.27-14.12-15.66-14.12h-22.63l-.02 44.33Z"/></defs><use xlink:href="#a"/><use xlink:href="#a" fill-opacity="0" stroke="#000" stroke-opacity="0"/><use xlink:href="#b"/><use xlink:href="#b" fill-opacity="0" stroke="#000" stroke-opacity="0"/><use xlink:href="#c"/><use xlink:href="#c" fill-opacity="0" stroke="#000" stroke-opacity="0"/><use xlink:href="#d"/><use xlink:href="#d" fill-opacity="0" stroke="#000" stroke-opacity="0"/><use xlink:href="#e"/><use xlink:href="#e" fill-opacity="0" stroke="#000" stroke-opacity="0"/><use xlink:href="#f"/><use xlink:href="#f" fill-opacity="0" stroke="#000" stroke-opacity="0"/><use xlink:href="#g"/><use xlink:href="#g" fill-opacity="0" stroke="#000" stroke-opacity="0"/><use xlink:href="#h"/><use xlink:href="#h" fill-opacity="0" stroke="#000" stroke-opacity="0"/><use xlink:href="#i"/><use xlink:href="#i" fill-opacity="0" stroke="#000" stroke-opacity="0"/><use xlink:href="#j"/><use xlink:href="#j" fill-opacity="0" stroke="#000" stroke-opacity="0"/><use xlink:href="#k"/><use xlink:href="#k" fill-opacity="0" stroke="#000" stroke-opacity="0"/><use xlink:href="#l"/><use xlink:href="#l" fill-opacity="0" stroke="#000" stroke-opacity="0"/><use xlink:href="#m"/><use xlink:href="#m" fill-opacity="0" stroke="#000" stroke-opacity="0"/><use xlink:href="#n"/><use xlink:href="#n" fill-opacity="0" stroke="#000" stroke-opacity="0"/><use xlink:href="#o"/><use xlink:href="#o" fill-opacity="0" stroke="#000" stroke-opacity="0"/><use xlink:href="#p"/><use xlink:href="#p" fill-opacity="0" stroke="#000" stroke-opacity="0"/><use xlink:href="#q"/><use xlink:href="#q" fill-opacity="0" stroke="#000" stroke-opacity="0"/><use xlink:href="#r"/><use xlink:href="#r" fill-opacity="0" stroke="#000" stroke-opacity="0"/><use xlink:href="#s"/><use xlink:href="#s" fill-opacity="0" stroke="#000" stroke-opacity="0"/><use xlink:href="#t"/><use xlink:href="#t" fill-opacity="0" stroke="#000" stroke-opacity="0"/><use xlink:href="#u"/><use xlink:href="#u" fill-opacity="0" stroke="#000" stroke-opacity="0"/><use xlink:href="#v"/><use xlink:href="#v" fill-opacity="0" stroke="#000" stroke-opacity="0"/><use xlink:href="#w"/><use xlink:href="#w" fill-opacity="0" stroke="#000" stroke-opacity="0"/><use xlink:href="#x"/><use xlink:href="#x" fill-opacity="0" stroke="#000" stroke-opacity="0"/><use xlink:href="#y"/><use xlink:href="#y" fill-opacity="0" stroke="#000" stroke-opacity="0"/><use xlink:href="#z"/><use xlink:href="#z" fill-opacity="0" stroke="#000" stroke-opacity="0"/><use xlink:href="#A"/><use xlink:href="#A" fill-opacity="0" stroke="#000" stroke-opacity="0"/><use xlink:href="#B"/><use xlink:href="#B" fill-opacity="0" stroke="#000" stroke-opacity="0"/><use xlink:href="#C"/><use xlink:href="#C" fill-opacity="0" stroke="#000" stroke-opacity="0"/><use xlink:href="#D"/><use xlink:href="#D" fill-opacity="0" stroke="#000" stroke-opacity="0"/><use xlink:href="#E"/><use xlink:href="#E" fill-opacity="0" stroke="#000" stroke-opacity="0"/><use xlink:href="#F"/><use xlink:href="#F" fill-opacity="0" stroke="#000" stroke-opacity="0"/><use xlink:href="#G"/><use xlink:href="#G" fill-opacity="0" stroke="#000" stroke-opacity="0"/><use xlink:href="#H"/><use xlink:href="#H" fill-opacity="0" stroke="#000" stroke-opacity="0"/><use xlink:href="#I"/><use xlink:href="#I" fill-opacity="0" stroke="#000" stroke-opacity="0"/><use xlink:href="#J"/><use xlink:href="#J" fill-opacity="0" stroke="#000" stroke-opacity="0"/><use xlink:href="#K" fill="#e00"/><use xlink:href="#K" fill-opacity="0" stroke="#000" stroke-opacity="0"/><use xlink:href="#L"/><use xlink:href="#L" fill-opacity="0" stroke="#000" stroke-opacity="0"/><use xlink:href="#M"/><use xlink:href="#M" fill-opacity="0" stroke="#000" stroke-opacity="0"/></svg>