<svg xmlns="http://www.w3.org/2000/svg" xmlns:xlink="http://www.w3.org/1999/xlink" viewBox="0 0 248.586 147.586" fill="#fff" fill-rule="evenodd" stroke="#000" stroke-linecap="round" stroke-linejoin="round"><use xlink:href="#A" x="1.293" y="1.293"/><symbol id="A" overflow="visible"><path d="M222.667 91.198c13.663 1.875 23.633 13.774 22.999 27.45.028 12.008-6.763 26.18-22.999 26.18H90.91c-25.252 0-34.397-17.157-34.397-34.836 0-29.834 33.22-30.657 33.22-30.657s2.682-32.369 31.694-38.933c18.116-5.152 37.484 2.206 47.501 18.052 10.481-5.308 22.764-5.745 33.595-1.195 13.384 5.819 21.502 19.5 20.172 33.939zM48.15 111.112c0-32.969 35.1-37.888 35.1-37.888 3.341-19.125 17.514-34.611 36.375-39.758 19.04-5.99 39.828.879 51.409 17.007a30.26 30.26 0 0 1 17.211-3.432c-2.431-19.443-15.375-36.013-33.75-43.189-24.344-10.022-52.366.124-64.487 23.346-11.877-6.736-26.354-7.016-38.483-.745C36.46 34.659 27.835 51.04 29.653 68 12.248 69.5-.833 84.401.041 101.714c.517 17.772 14.866 32.087 32.767 32.741h22.024c-4.5-6.983-6.828-15.077-6.691-23.345z" fill="#004c99" stroke="none"/></symbol></svg>