<svg xmlns="http://www.w3.org/2000/svg" xmlns:xlink="http://www.w3.org/1999/xlink" viewBox="0 0 148.829 148.829" fill="#fff" fill-rule="evenodd" stroke="#000" stroke-linecap="round" stroke-linejoin="round"><use xlink:href="#A" x=".915" y=".915"/><symbol id="A" overflow="visible"><g stroke="none"><path d="M12.196 0Q0 0 0 12.196v121.952q0 12.194 12.196 12.194h121.952q12.194 0 12.194-12.196V12.196Q146.341 0 134.146 0z" fill="#cc2124"/><path d="M106.586 45.722c-1.167-3.842-3.318-7.332-6.022-10.281-2.927-3.168-6.174-4.99-9.97-6.889 0 0-11.067-5.534-26.06-1.427-4.741 1.281-8.982 3.97-12.865 6.915-4.032 3.062-6.933 6.951-8.927 11.583a40.21 40.21 0 0 0-1.421 3.873 21.39 21.39 0 0 0-.865 4.107c-.421 4.002-.262 8.025.845 11.901.951 3.335 2.255 6.545 4.44 9.284 1.216 1.522 2.963 2.826 4.824 3.463l.201.066c.556.219 1.092.399 1.698-.086.054-.052.103-.109.145-.172.11-.177.194-.368.251-.569.018-.073.031-.146.046-.183.214-.787.348-1.588.525-2.382l.631-3.07c.011-.055.165-.576.121-.618 0 0-7.259-7.2-2.616-20.29 0 0 3.091-9.044 10.829-13.328 3.371-1.866 6.948-3.21 10.86-3.234 3.102-.018 6.22.434 9.179 1.354 2.932.915 5.744 2.451 8.009 4.537.755.695 1.43 1.476 2.03 2.312s1.124 1.723 1.575 2.647c.761 1.774 1.275 3.662 1.591 5.519.201 1.174.366 2.521.435 4.019.141 3-.084 6.607-1.076 10.694 0 0-2.023 8.451-6.307 12.732-3.359 3.359-8.713 6.005-13.162 2.89-.92-.644-2.067-1.725-2.561-2.749-1.019-2.1-1.24-3.869-.896-6.159.249-1.659.549-3.329 1.238-4.875 1.873-4.317 3.64-8.802 3.573-13.588-.018-1.317-.274-2.684-.794-3.904a7.37 7.37 0 0 0-2.069-2.868c-.721-.607-1.551-1.001-2.462-1.235 0 0-3.452-1.427-6.664 1.547 0 0-8.213 8.214-3.329 20.351l-7.021 31.28c-.933 4.147-.686 8.245-.278 12.439a138.49 138.49 0 0 0 .417 3.571c.11.777.285 2.954 1.377 1.884.476-.463 7.14-10.665 8.479-14.951s4.195-16.601 4.195-16.601 2.854 7.5 15.798 6.337c0 0 14.993-1.249 20.795-19.189.516-1.597.944-3.208 1.312-4.848s.648-3.294.849-4.961c.671-5.552.75-11.451-.891-16.848z"/></g></symbol></svg>