<svg xmlns="http://www.w3.org/2000/svg" xmlns:xlink="http://www.w3.org/1999/xlink" viewBox="0 0 148.829 148.829" fill="#fff" fill-rule="evenodd" stroke="#000" stroke-linecap="round" stroke-linejoin="round"><use xlink:href="#A" x=".915" y=".915"/><symbol id="A" overflow="visible"><g stroke="none"><path d="M12.196 0Q0 0 0 12.196v121.952q0 12.194 12.196 12.194h121.952q12.194 0 12.194-12.196V12.196Q146.341 0 134.146 0z" fill="#395976"/><path d="M91.293 91.981c.198.311.141.598.141.854l.029 10.599c0 .512-.084.827-.649 1.083-2.232 1.083-4.487 2.049-6.885 2.707-1.61.457-3.245.713-4.884.94-1.354.17-2.707.17-4.061.143-1.805-.055-3.613-.311-5.389-.768-1.921-.485-3.754-1.167-5.389-2.25-2.963-1.939-5.305-4.445-6.49-7.948-.536-1.624-.593-3.247-.649-4.871-.225-8.689-.113-17.378-.168-26.093 0-.997-.055-2.012 0-2.991.027-.598-.141-.798-.763-.798-1.946.029-3.896-.029-5.841.029-.677.029-.904-.143-.904-.884.055-3.134.027-6.296.027-9.428 0-.655.055-.997.847-1.28 1.551-.567 2.991-1.452 4.29-2.479 2.877-2.25 5.049-5.041 6.434-8.433 1.129-2.791 1.778-5.696 2.144-8.689.055-.428.141-.713.649-.741 1.496-.086 2.963-.342 4.458-.143 1.409.17 2.823.143 4.233.143.649 0 .593.371.593.798l.055 14.36c0 1.226.027 2.451-.027 3.677-.027.598.141.768.732.768l14.671-.029c.732 0 .904.256.904.911v10.597c0 .655-.17.884-.874.884-4.853-.029-9.735 0-14.588-.029-.622 0-.874.086-.874.827l.055 22.248c0 1.566.084 3.134.366 4.643.421 2.393 2.03 3.845 4.233 4.615 3.018 1.083 5.982.627 8.918-.369 1.646-.598 3.188-1.537 4.655-2.592z"/></g></symbol></svg>