<svg xmlns="http://www.w3.org/2000/svg" xmlns:xlink="http://www.w3.org/1999/xlink" viewBox="0 0 150.648 150.648" fill="#fff" fill-rule="evenodd" stroke="#000" stroke-linecap="round" stroke-linejoin="round"><use xlink:href="#B" x=".824" y=".824"/><defs><linearGradient id="A" x1="72%" y1="100%" x2="28%" y2="0%"><stop offset="0%" stop-color="#29b33e"/><stop offset="100%" stop-color="#57d163"/></linearGradient></defs><symbol id="B" overflow="visible"><path d="M21.173 109.303l-14.58 29.116 37.599-6.508a61.58 61.58 0 0 0 30.778 8.199c35.173 0 63.491-29.407 63.491-65.934S110.142 8.242 74.97 8.242 11.477 37.649 11.477 74.176c0 12.931 3.549 24.973 9.696 35.126z" fill="url(#A)" stroke="#a2a2a2" stroke-linejoin="miter" stroke-width="1.648"/><path d="M148.352 72.264c0 39.912-32.604 72.264-72.827 72.264-12.77 0-24.766-3.264-35.204-8.992L0 148.352l13.146-38.772C6.294 98.34 2.678 85.428 2.695 72.265 2.695 32.354 35.301 0 75.524 0s72.827 32.354 72.827 72.264zM75.524 11.509c-33.765 0-61.23 27.255-61.23 60.758-.008 12.813 4.079 25.294 11.664 35.621l-7.648 22.566 23.53-7.479a61.19 61.19 0 0 0 33.686 10.047c33.758 0 61.23-27.252 61.23-60.753s-27.47-60.76-61.231-60.76zm36.775 77.4c-.45-.737-1.638-1.182-3.422-2.067s-10.549-5.173-12.198-5.761-2.83-.887-4.019.885-4.61 5.761-5.654 6.943-2.082 1.335-3.869.445-7.533-2.758-14.354-8.791c-5.308-4.695-8.89-10.49-9.931-12.264s-.109-2.729.783-3.61c.804-.794 1.787-2.069 2.679-3.102s1.192-1.772 1.784-2.956.3-2.215-.165-3.104-4.019-9.602-5.505-13.149-2.972-2.954-4.015-2.954-2.232-.165-3.422-.165-3.125.445-4.764 2.215-6.247 6.059-6.247 14.774 6.396 17.138 7.289 18.318 12.363 19.648 30.495 26.741 18.148 4.724 21.424 4.427 10.559-4.286 12.053-8.418c1.483-4.141 1.483-7.686 1.038-8.423z" stroke="none"/></symbol></svg>