<svg xmlns="http://www.w3.org/2000/svg" xmlns:xlink="http://www.w3.org/1999/xlink" id="ekf3b4wnmbpr1" viewBox="0 0 360 190" shape-rendering="geometricPrecision" text-rendering="geometricPrecision"><style>#ekf3b4wnmbpr1{pointer-events: all}#ekf3b4wnmbpr1:hover #ekf3b4wnmbpr4_ts {animation: ekf3b4wnmbpr4_ts__ts 600ms linear 1 normal forwards}@keyframes ekf3b4wnmbpr4_ts__ts { 0% {transform: translate(180px,134.337727px) scale(1.023383,1.023383);animation-timing-function: cubic-bezier(0.420000,0,0.580000,1)} 100% {transform: translate(180px,134.337727px) scale(0.952379,0.952379)} }#ekf3b4wnmbpr1:hover #ekf3b4wnmbpr7_to {animation: ekf3b4wnmbpr7_to__to 600ms linear 1 normal forwards}@keyframes ekf3b4wnmbpr7_to__to { 0% {transform: translate(122.592359px,30.656639px);animation-timing-function: cubic-bezier(0.420000,0,0.580000,1)} 100% {transform: translate(122.592359px,40.656639px)} }</style><g id="ekf3b4wnmbpr2"><g id="ekf3b4wnmbpr3"><g id="ekf3b4wnmbpr4_ts" transform="translate(180,134.337727) scale(1.023383,1.023383)"><g id="ekf3b4wnmbpr4" transform="translate(-59.795210,-93.337727)"><polygon id="ekf3b4wnmbpr5" points="112.081437,97.710180 52.225150,63.154491 59.611976,58.886227 119.468263,93.441916" fill="rgb(172,184,191)" stroke="none" stroke-width="1"/><polygon id="ekf3b4wnmbpr6" points="59.985629,127.789222 0.122156,93.226347 51.283832,63.693413 111.147305,98.249102" fill="rgb(172,184,191)" stroke="none" stroke-width="1"/></g></g><g id="ekf3b4wnmbpr7_to" transform="translate(122.592359,30.656639)"><g id="ekf3b4wnmbpr7" transform="scale(0.960071,0.960071) translate(0,0)"><polygon id="ekf3b4wnmbpr8" points="112.081437,87.686228 52.225150,53.130539 59.611976,48.862275 119.468263,83.417964" fill="rgb(235,236,235)" stroke="none" stroke-width="1"/><polygon id="ekf3b4wnmbpr9" points="59.985629,117.765269 0.122156,83.209581 51.283832,53.669461 111.147305,88.225150" fill="rgb(235,236,235)" stroke="none" stroke-width="1"/><ellipse id="ekf3b4wnmbpr10" rx="1" ry="1.73174" transform="matrix(0.00541000000000 -0.99998500000000 0.99998500000000 0.00541000000000 59.72598971249987 53.19668895499989)" fill="rgb(236,34,39)" stroke="none" stroke-width="1"/><ellipse id="ekf3b4wnmbpr11" rx="1" ry="1.73174" transform="matrix(0.00541000000000 -0.99998500000000 0.99998500000000 0.00541000000000 63.78621038899986 55.53017517499988)" fill="rgb(236,34,39)" stroke="none" stroke-width="1"/><ellipse id="ekf3b4wnmbpr12" rx="1" ry="1.73174" transform="matrix(0.00541000000000 -0.99998500000000 0.99998500000000 0.00541000000000 67.83199294699985 57.87813854199987)" fill="rgb(236,34,39)" stroke="none" stroke-width="1"/><polygon id="ekf3b4wnmbpr13" points="112.081437,75.470659 52.225150,40.914970 59.611976,36.646707 119.468263,71.202395" fill="rgb(221,221,219)" stroke="none" stroke-width="1"/><polygon id="ekf3b4wnmbpr14" points="59.985629,105.549701 0.122156,70.994012 51.283832,41.453892 111.147305,76.009581" fill="rgb(221,221,219)" stroke="none" stroke-width="1"/><ellipse id="ekf3b4wnmbpr15" rx="1" ry="1.73174" transform="matrix(0.00541000000000 -0.99998500000000 0.99998500000000 0.00541000000000 59.72620404949986 40.97939498799991)" fill="rgb(236,34,39)" stroke="none" stroke-width="1"/><ellipse id="ekf3b4wnmbpr16" rx="1" ry="1.73174" transform="matrix(0.00541000000000 -0.99998500000000 0.99998500000000 0.00541000000000 63.78643461799986 43.31992015999990)" fill="rgb(236,34,39)" stroke="none" stroke-width="1"/><ellipse id="ekf3b4wnmbpr17" rx="1" ry="1.73174" transform="matrix(0.00541000000000 -0.99998500000000 0.99998500000000 0.00541000000000 67.83218728399984 45.66084457499990)" fill="rgb(236,34,39)" stroke="none" stroke-width="1"/><polygon id="ekf3b4wnmbpr18" points="112.081437,63.255090 52.225150,28.699401 59.611976,24.431138 119.468263,58.986826" fill="rgb(235,236,235)" stroke="none" stroke-width="1"/><polygon id="ekf3b4wnmbpr19" points="59.985629,93.334132 0.122156,58.778443 51.283832,29.238323 111.147305,63.794012" fill="rgb(235,236,235)" stroke="none" stroke-width="1"/><ellipse id="ekf3b4wnmbpr20" rx="1" ry="1.73174" transform="matrix(0.00541000000000 -0.99998500000000 0.99998500000000 0.00541000000000 59.72628838649986 28.76250102099994)" fill="rgb(236,34,39)" stroke="none" stroke-width="1"/><ellipse id="ekf3b4wnmbpr21" rx="1" ry="1.73174" transform="matrix(0.00541000000000 -0.99998500000000 0.99998500000000 0.00541000000000 63.78661895499985 31.10332619299992)" fill="rgb(236,34,39)" stroke="none" stroke-width="1"/><ellipse id="ekf3b4wnmbpr22" rx="1" ry="1.73174" transform="matrix(0.00541000000000 -0.99998500000000 0.99998500000000 0.00541000000000 67.83237162099985 33.44455060799991)" fill="rgb(236,34,39)" stroke="none" stroke-width="1"/><polygon id="ekf3b4wnmbpr23" points="112.081437,51.039521 52.225150,16.483832 59.611976,12.215569 119.468263,46.771257" fill="rgb(221,221,219)" stroke="none" stroke-width="1"/><polygon id="ekf3b4wnmbpr24" points="59.985629,81.118563 0.122156,46.562874 51.283832,17.022755 111.147305,51.578443" fill="rgb(221,221,219)" stroke="none" stroke-width="1"/><ellipse id="ekf3b4wnmbpr25" rx="1" ry="1.73174" transform="matrix(0.00541000000000 -0.99998500000000 0.99998500000000 0.00541000000000 59.72657207449986 16.55274600449997)" fill="rgb(236,34,39)" stroke="none" stroke-width="1"/><ellipse id="ekf3b4wnmbpr26" rx="1" ry="1.73174" transform="matrix(0.00541000000000 -0.99998500000000 0.99998500000000 0.00541000000000 63.78670329199986 18.88633222599995)" fill="rgb(236,34,39)" stroke="none" stroke-width="1"/><ellipse id="ekf3b4wnmbpr27" rx="1" ry="1.73174" transform="matrix(0.00541000000000 -0.99998500000000 0.99998500000000 0.00541000000000 67.83255584999984 21.23439559299996)" fill="rgb(236,34,39)" stroke="none" stroke-width="1"/><polygon id="ekf3b4wnmbpr28" points="112.081437,38.823952 52.225150,4.268263 59.611976,0 119.468263,34.555689" fill="rgb(235,236,235)" stroke="none" stroke-width="1"/><polygon id="ekf3b4wnmbpr29" points="59.985629,68.902994 0.122156,34.347305 51.283832,4.807186 111.147305,39.362874" fill="rgb(235,236,235)" stroke="none" stroke-width="1"/><ellipse id="ekf3b4wnmbpr30" rx="1" ry="1.73174" transform="matrix(0.00541000000000 -0.99998500000000 0.99998500000000 0.00541000000000 59.72664641164987 4.33575198339999)" fill="rgb(236,34,39)" stroke="none" stroke-width="1"/><ellipse id="ekf3b4wnmbpr31" rx="1" ry="1.73174" transform="matrix(0.00541000000000 -0.99998500000000 0.99998500000000 0.00541000000000 63.78687708814986 6.66943820339998)" fill="rgb(236,34,39)" stroke="none" stroke-width="1"/><ellipse id="ekf3b4wnmbpr32" rx="1" ry="1.73174" transform="matrix(0.00541000000000 -0.99998500000000 0.99998500000000 0.00541000000000 67.83274964584984 9.01750167859998)" fill="rgb(236,34,39)" stroke="none" stroke-width="1"/></g></g></g></g></svg>