<svg xmlns="http://www.w3.org/2000/svg" viewBox="0 0 320 320"><path d="M0 0h320v320H0z" style="fill:#a6c8ff"/><path d="M154.34 147.59a4.83 4.83 0 1 0-4.82-4.83 4.84 4.84 0 0 0 4.82 4.83M166.41 147.59a4.83 4.83 0 1 0-4.82-4.83 4.79 4.79 0 0 0 4.82 4.83M133.66 161.24c-3.32 1.45-5.66 4.07-5.66 8.07a8.4 8.4 0 0 0 8.41 8.41c4.42 0 7-3 8.14-6.2l5.52-17.45ZM187 161.24l-16.27-7.17 5.52 17.45c1 3.1 3.65 6.2 8.13 6.2a8.41 8.41 0 0 0 8.42-8.41c0-4-2.49-6.55-5.8-8.07M151 155.66h18.82a10.38 10.38 0 0 0-18.82 0M149.93 160.48h20.83v5.59h-20.83zM149.93 170.9h20.83v5.59h-20.83zM160.34 187.24a10.4 10.4 0 0 0 9.38-6H150.9a10.54 10.54 0 0 0 9.44 6M160.48 120.14a6.42 6.42 0 0 0 6.35-6.35 6.29 6.29 0 0 0-6.35-6.34 6.41 6.41 0 0 0-6.34 6.34 6.29 6.29 0 0 0 6.34 6.35"/><path d="M160.48 131.31c11.38 0 21.18-7.31 25.31-17.65-4.13-10.35-14-17.66-25.31-17.66s-21.17 7.31-25.31 17.66a27.26 27.26 0 0 0 25.31 17.65m0-32a14.42 14.42 0 1 1-14.2 14.41 14.28 14.28 0 0 1 14.2-14.41"/><path d="M160.48 88.14a30.66 30.66 0 0 1 23.73 11.17v-4.83a26.74 26.74 0 0 0-47.45 0v4.83a30.76 30.76 0 0 1 23.72-11.17M134.28 237.1h16.34v2.97h-16.34zM134.28 230.76h16.34v2.97h-16.34zM140.83 224.48h9.86v2.97h-9.86zM140.83 218.21h9.86v2.97h-9.86zM170.21 237.1h16.34v2.97h-16.34zM170.21 230.76h16.34v2.97h-16.34zM170.21 224.48h9.86v2.97h-9.86zM170.21 218.21h9.86v2.97h-9.86zM170.21 214.9h9.72v-2.97H161.66l-1.04 2.97h8.55l1.04-2.9v2.9zM159.17 211.93h-18.34v2.97h9.79V212l1.04 2.9h8.55l-1.04-2.97zM179.93 205.59h-16.14l-1.03 3.03h17.17v-3.03zM167.03 196h19.45v-2.97h-18.41l-1.04 2.97zM160.34 240.07l1.11-2.97h-2.07l.96 2.97zM158.14 233.79h4.41l1.11-3.03h-6.49l.97 3.03zM155.93 227.45h8.83l1.1-2.97h-10.89l.96 2.97zM153.79 221.17h13.18l1.03-2.96h-15.24l1.03 2.96zM156.97 205.59h-16.14v3.03H158l-1.03-3.03zM164.97 202.28h21.51v-2.97h-20.55l-.96 2.97zM134.28 202.28h21.58l-.96-2.97h-20.62v2.97zM134.28 193.03V196h19.38l-.97-2.97h-18.41z"/></svg>