<svg xmlns="http://www.w3.org/2000/svg" xml:space="preserve" viewBox="0 0 90 453.54"><path fill="#231F20" d="M79.797 74.656h.561v1.094h-.561zM80.756 74.656h.561v1.094h-.561z"/><path fill="#4B5059" d="M79.16 77.125v-.937h2.563v-.938h-2.625l-1.25 5.562h3.875V78.5H79.16v-.938h2.563v-.437z"/><path fill="#A73D37" d="M79.16 76.188h2.562v.938H79.16zM79.16 77.562h2.562v.938H79.16z"/><path fill="#9BA9B2" d="M72.41 79.625h10.5v7.75h-10.5z"/><path fill="#E8E5D1" d="m80.598 86.062-2.188-4.937h-7.312v.719h-1.594v2.312h1.594v9.555l13.5.539v-8.188zM2.41 90.819v-5.257h.563l.687 5.257"/><path fill="#707E68" d="M31.306 91.138h5.821v1.972h-5.821z"/><path fill="#BFA176" d="M25.159 91.138h5.821v1.972h-5.821z"/><path fill="#B07959" d="M37.451 91.138h5.821v1.972h-5.821z"/><path fill="#9A6B50" d="M43.597 91.138h5.821v1.972h-5.821z"/><path fill="#7E3F20" d="M49.742 91.138h5.821v1.972h-5.821z"/><path fill="#D6543B" d="M55.887 91.138h5.822v1.972h-5.822z"/><path fill="#B07959" d="M62.033 91.138h5.821v1.972h-5.821z"/><path fill="#707E68" d="M62.033 88.847h5.821v1.972h-5.821z"/><path fill="#B07959" d="M55.887 88.847h5.822v1.972h-5.822z"/><path fill="tan" d="M49.742 88.847h5.821v1.972h-5.821z"/><path fill="#7E3F20" d="M43.597 88.847h5.821v1.972h-5.821z"/><path fill="#D6543B" d="M37.451 88.847h5.821v1.972h-5.821z"/><path fill="#DEA374" d="M31.306 88.847h5.821v1.972h-5.821z"/><path fill="#707E68" d="M25.159 88.847h5.821v1.972h-5.821z"/><path fill="#B07959" d="M19.014 88.847h5.821v1.972h-5.821z"/><path fill="tan" d="M12.868 88.847h5.822v1.972h-5.822z"/><path fill="#7E3F20" d="M6.723 88.847h5.821v1.972H6.723z"/><path fill="#707E68" d="M37.45 84.266h5.821v1.972H37.45z"/><path fill="#BFA176" d="M43.597 84.266h5.821v1.972h-5.821z"/><path fill="#B07959" d="M31.305 84.266h5.821v1.972h-5.821z"/><path fill="#9A6B50" d="M25.159 84.266h5.821v1.972h-5.821z"/><path fill="#7E3F20" d="M19.014 84.266h5.821v1.972h-5.821z"/><path fill="#D6543B" d="M12.868 84.266h5.822v1.972h-5.822z"/><path fill="#B07959" d="M6.723 84.266h5.821v1.972H6.723z"/><path fill="#707E68" d="M6.723 86.557h5.821v1.972H6.723z"/><path fill="#B07959" d="M12.868 86.557h5.822v1.972h-5.822z"/><path fill="tan" d="M19.014 86.557h5.821v1.972h-5.821z"/><path fill="#7E3F20" d="M25.159 86.557h5.821v1.972h-5.821z"/><path fill="#D6543B" d="M31.305 86.557h5.821v1.972h-5.821z"/><path fill="#DEA374" d="M37.45 86.557h5.821v1.972H37.45z"/><path fill="#707E68" d="M43.597 86.557h5.821v1.972h-5.821z"/><path fill="#B07959" d="M49.742 86.557h5.821v1.972h-5.821z"/><path fill="tan" d="M55.887 86.557h5.822v1.972h-5.822z"/><path fill="#7E3F20" d="M62.033 86.557h5.821v1.972h-5.821z"/><path fill="#A82526" d="M87.473 92.819H24.348v-2.75H0l1.721 4.619h85.752z"/><path fill="#59565F" d="m1.721 94.688.502 1.347c-5 2.965 0 5.61 0 5.61s83.5.799 83.677 0 1.573-3.076 1.573-3.076v-3.881H1.721z"/><g fill="#636B62"><path d="M69.91 82.312h1.156v.844H69.91zM71.551 82.312h1.156v.844h-1.156zM73.191 82.312h1.156v.844h-1.156zM74.832 82.312h1.156v.844h-1.156zM76.473 82.312h1.156v.844h-1.156z"/></g><g fill="#9BA9B2"><path d="M77.246 87.163h.828v.844h-.828zM78.422 87.163h.828v.844h-.828zM79.598 87.163h.828v.844h-.828zM80.773 87.163h.828v.844h-.828zM81.949 87.163h.828v.844h-.828z"/></g><g fill="#9BA9B2"><path d="M77.309 89.225h.828v.844h-.828zM78.484 89.225h.828v.844h-.828zM79.66 89.225h.828v.844h-.828zM80.836 89.225h.828v.844h-.828zM82.012 89.225h.828v.844h-.828z"/></g><circle cx="4.191" cy="92.281" r=".531" fill="#5F3F2B"/><path fill="gray" d="M80.186 82.312h.828v.844h-.828zM81.361 82.312h.828v.844h-.828z"/></svg>