<svg xmlns="http://www.w3.org/2000/svg" fill="none" viewBox="0 0 146 40"><rect width="144.438" height="38.664" x=".768" y=".856" fill="#FAFBFC" stroke="#282E38" stroke-width=".4" rx="5.8"/><path fill="#36C5F0" d="M84.106 14.609c.13-.616.75-1.077 1.38-1.015.63.035 1.177.584 1.21 1.214.011.473.003.947.004 1.42-.434.003-.868.001-1.302.002a1.317 1.317 0 0 1-1.292-1.621ZM81.74 17.117c1.206-.019 2.413-.003 3.62-.008.431-.012.859.207 1.103.563.295.412.316.996.054 1.43-.227.39-.665.647-1.118.646-1.169.002-2.337 0-3.505 0a1.316 1.316 0 0 1-1.289-1.64 1.32 1.32 0 0 1 1.135-.991Z"/><path fill="#2EB67D" d="M88.588 13.625a1.32 1.32 0 0 1 1.618 1.31v3.508a1.317 1.317 0 0 1-1.944 1.145 1.324 1.324 0 0 1-.685-1.145c-.002-1.184-.002-2.367 0-3.55a1.322 1.322 0 0 1 1.01-1.268ZM91.6 17.378a1.317 1.317 0 0 1 1.634.033 1.319 1.319 0 0 1-.822 2.337c-.443 0-.886.004-1.33-.002V18.4c.005-.396.203-.782.518-1.02Z"/><path fill="#282E38" d="M104.732 13.839a75.617 75.617 0 0 1 2.239.002v10.983c-.746.006-1.493.004-2.239 0-.002-3.661-.002-7.323 0-10.985ZM125.805 13.837c.557-.01 1.114-.001 1.671-.004.189.003.381-.015.569.015-.003 1.28-.001 2.562-.001 3.842.005.858-.011 1.716.007 2.574.232-.228.421-.493.635-.737.607-.729 1.215-1.456 1.822-2.186.065-.108.2-.074.306-.08.828.008 1.655-.008 2.482.008-.176.245-.389.461-.58.694-.841.982-1.685 1.961-2.523 2.946.532.645 1.091 1.269 1.634 1.905.571.672 1.16 1.329 1.722 2.009-.95.006-1.9.006-2.849 0-.567-.689-1.121-1.388-1.682-2.08-.325-.393-.63-.802-.966-1.184-.018 1.086-.004 2.175-.008 3.262-.746.01-1.492.005-2.238.003-.006-3.662-.004-7.325-.001-10.987ZM98.851 17.449c.578-.28 1.232-.369 1.869-.334.913.04 1.845.281 2.579.845-.087.306-.228.593-.335.892-.091.217-.159.444-.268.652-.694-.43-1.488-.733-2.311-.746-.284-.004-.594.051-.807.254-.153.14-.208.393-.082.568.143.194.379.283.596.364.723.243 1.487.368 2.177.703.423.201.822.494 1.055.91.31.552.311 1.243.082 1.824-.211.538-.644.969-1.155 1.228-.585.302-1.258.397-1.911.367-1.096-.035-2.218-.303-3.12-.95.202-.502.424-.998.634-1.498.168.09.32.203.489.29a4.45 4.45 0 0 0 2.128.497c.298-.01.618-.063.853-.261.183-.15.26-.449.101-.643-.159-.186-.405-.26-.631-.329-.757-.207-1.556-.296-2.262-.66-.43-.215-.809-.566-.979-1.024a2.31 2.31 0 0 1 .07-1.754c.246-.532.704-.946 1.228-1.195ZM110.039 17.534a3.244 3.244 0 0 1 2.085-.39c.673.1 1.335.418 1.743.978.011-.286-.001-.57.006-.855a97.07 97.07 0 0 1 2.238.001c.003 2.518.001 5.037.001 7.555-.747.006-1.493.005-2.239 0-.007-.283.005-.567-.007-.851a2.38 2.38 0 0 1-1.006.768 3.21 3.21 0 0 1-2.476-.017c-.685-.29-1.257-.817-1.641-1.451-.708-1.166-.8-2.672-.276-3.927.314-.75.861-1.41 1.572-1.81Zm1.843 1.647a1.875 1.875 0 0 0-1.325.836 1.88 1.88 0 0 0 .793 2.738c.846.39 1.939.072 2.468-.687.064-.081.052-.19.055-.286-.003-.488-.002-.976 0-1.464-.002-.095.003-.2-.06-.277a2.068 2.068 0 0 0-1.931-.86ZM117.761 19.247c.597-1.188 1.832-2.026 3.16-2.125a3.918 3.918 0 0 1 3.746 1.995c-.586.345-1.186.669-1.782.996-.236-.375-.578-.691-1.002-.837a1.867 1.867 0 0 0-1.49.099 1.886 1.886 0 0 0-.911 1.052 1.892 1.892 0 0 0 .15 1.56 1.869 1.869 0 0 0 2.824.494c.173-.14.301-.324.429-.503.599.318 1.188.657 1.783.985a3.907 3.907 0 0 1-6.262.79 3.937 3.937 0 0 1-1.023-2.056 3.96 3.96 0 0 1 .378-2.45Z"/><path fill="#E01E5A" d="M80.575 21.79c.062-.618.613-1.14 1.235-1.16.46-.007.92-.001 1.38-.003.013.44.003.881.005 1.322a1.316 1.316 0 1 1-2.62-.16ZM85.04 20.674a1.318 1.318 0 0 1 1.661 1.315c0 1.17.003 2.339 0 3.508a1.313 1.313 0 0 1-2.628-.04c0-1.184-.003-2.368 0-3.552a1.32 1.32 0 0 1 .967-1.231Z"/><path fill="#ECB22E" d="M88.714 20.64c.147-.019.295-.012.442-.013h2.964c.201.001.407-.011.603.042a1.322 1.322 0 0 1 .549 2.264c-.243.22-.571.34-.899.335-1.183-.002-2.367.003-3.55-.003-.663-.018-1.24-.61-1.246-1.273-.037-.655.486-1.278 1.137-1.352ZM87.577 24.148c.443-.003.886-.001 1.33 0 .38 0 .755.18.996.476a1.33 1.33 0 0 1-.007 1.694 1.319 1.319 0 0 1-1.596.327 1.321 1.321 0 0 1-.723-1.148c-.002-.449 0-.899 0-1.349Z"/><path fill="#282E38" d="M16.967 24.308c-.872 0-1.596-.212-2.172-.636-.568-.433-.868-1.064-.9-1.896 0-.073.024-.133.072-.18a.227.227 0 0 1 .18-.084h.612c.176 0 .276.091.3.276.048.52.248.904.6 1.151.352.248.792.372 1.32.372.608 0 1.076-.2 1.404-.6.336-.4.504-.94.504-1.62v-4.296h-4.284a.303.303 0 0 1-.204-.072.303.303 0 0 1-.072-.203v-.456a.26.26 0 0 1 .072-.193.278.278 0 0 1 .204-.084h5.148c.088 0 .156.028.204.084a.254.254 0 0 1 .084.205v5.04c0 .64-.124 1.2-.372 1.68-.24.48-.592.852-1.056 1.116-.464.264-1.012.396-1.644.396Zm7.474 0c-.88 0-1.56-.248-2.04-.744-.472-.497-.724-1.157-.756-1.98l-.012-.517.012-.515c.032-.825.288-1.485.768-1.98.488-.496 1.164-.744 2.028-.744.864 0 1.536.248 2.016.744.488.495.748 1.155.78 1.98a5.7 5.7 0 0 1 0 1.032c-.032.823-.288 1.483-.768 1.98-.472.495-1.148.744-2.028.744Zm0-.9c.512 0 .916-.16 1.212-.48.304-.329.468-.797.492-1.405.008-.08.012-.232.012-.456s-.004-.375-.012-.456c-.024-.608-.188-1.072-.492-1.392-.296-.328-.7-.492-1.212-.492s-.92.165-1.224.492c-.296.32-.456.784-.48 1.392l-.012.456.012.456c.024.608.184 1.076.48 1.404.304.32.712.48 1.224.48Zm4.515-6.637a.303.303 0 0 1-.203-.072.303.303 0 0 1-.073-.204v-.624c0-.08.024-.148.073-.204a.278.278 0 0 1 .203-.083h.709c.08 0 .148.027.204.084a.278.278 0 0 1 .084.204v.623c0 .08-.029.148-.084.204a.303.303 0 0 1-.204.072h-.709Zm.096 7.416a.303.303 0 0 1-.203-.072.303.303 0 0 1-.073-.203v-5.688a.26.26 0 0 1 .073-.192.278.278 0 0 1 .203-.084h.529a.24.24 0 0 1 .192.084.24.24 0 0 1 .084.192v5.688c0 .08-.029.148-.084.204a.26.26 0 0 1-.192.072h-.529Zm2.883 0a.303.303 0 0 1-.204-.072.303.303 0 0 1-.072-.203v-5.688a.26.26 0 0 1 .072-.192.278.278 0 0 1 .204-.084h.516c.088 0 .156.023.204.072.048.047.072.116.072.204v.527c.24-.296.516-.524.828-.684.32-.16.716-.24 1.188-.24.768 0 1.364.248 1.788.744.424.488.636 1.136.636 1.944v3.396c0 .08-.028.148-.084.204a.26.26 0 0 1-.192.073h-.552a.303.303 0 0 1-.204-.072.303.303 0 0 1-.072-.204v-3.325c0-.575-.14-1.023-.42-1.343-.28-.32-.68-.48-1.2-.48-.512 0-.92.163-1.224.492-.304.32-.456.764-.456 1.331v3.325c0 .08-.028.148-.084.204a.26.26 0 0 1-.192.072h-.552Zm12.248.12c-.76 0-1.348-.243-1.764-.731-.416-.497-.624-1.152-.624-1.968v-3.384a.26.26 0 0 1 .072-.192.278.278 0 0 1 .204-.084h.552a.24.24 0 0 1 .192.084.24.24 0 0 1 .084.192v3.323c0 1.216.528 1.825 1.584 1.825.512 0 .916-.16 1.212-.48.304-.328.456-.776.456-1.345v-3.323a.26.26 0 0 1 .072-.192.278.278 0 0 1 .204-.084h.552a.24.24 0 0 1 .192.084.24.24 0 0 1 .084.192v5.688c0 .08-.028.148-.084.204a.26.26 0 0 1-.192.072h-.516a.303.303 0 0 1-.204-.072.303.303 0 0 1-.072-.204v-.54a2.356 2.356 0 0 1-.816.707c-.312.152-.708.229-1.188.229Zm7.003 0c-.552 0-1.02-.087-1.404-.263-.376-.184-.656-.393-.84-.625-.184-.232-.276-.424-.276-.576 0-.08.028-.14.084-.18a.272.272 0 0 1 .18-.072h.504c.048 0 .084.008.108.024a.446.446 0 0 1 .12.109c.184.224.388.4.612.527.232.128.54.192.924.192.432 0 .776-.08 1.032-.24a.767.767 0 0 0 .396-.695c0-.2-.056-.36-.168-.48-.112-.12-.3-.229-.564-.325-.256-.095-.64-.2-1.152-.311-.696-.152-1.188-.372-1.476-.66-.288-.288-.432-.66-.432-1.116 0-.296.088-.58.264-.852a1.85 1.85 0 0 1 .78-.672c.352-.176.768-.264 1.248-.264.504 0 .932.084 1.284.252.36.168.628.364.804.588.184.224.276.412.276.564a.227.227 0 0 1-.084.18.244.244 0 0 1-.18.072h-.456c-.112 0-.192-.045-.24-.133a3.52 3.52 0 0 0-.348-.348.969.969 0 0 0-.396-.215 1.95 1.95 0 0 0-.66-.096c-.392 0-.692.084-.9.252a.775.775 0 0 0-.312.648.71.71 0 0 0 .132.431c.088.113.256.22.504.325.248.096.616.196 1.104.3.76.16 1.296.387 1.608.683.32.297.48.677.48 1.14 0 .345-.1.657-.3.936-.192.28-.484.5-.876.66-.384.16-.844.24-1.38.24Zm9.443 0c-.88 0-1.56-.247-2.04-.743-.472-.497-.724-1.157-.756-1.98l-.012-.517.012-.515c.032-.825.288-1.485.768-1.98.488-.496 1.164-.744 2.028-.744.864 0 1.536.248 2.016.744.488.495.748 1.155.78 1.98a5.7 5.7 0 0 1 0 1.032c-.032.823-.288 1.483-.768 1.98-.472.495-1.148.744-2.028.744Zm0-.9c.512 0 .916-.16 1.212-.48.304-.328.468-.796.492-1.404.008-.08.012-.232.012-.456s-.004-.375-.012-.456c-.024-.608-.188-1.072-.492-1.392-.296-.328-.7-.492-1.212-.492s-.92.165-1.224.492c-.296.32-.456.784-.48 1.392l-.012.456.012.456c.024.608.184 1.076.48 1.404.304.32.712.48 1.224.48Zm4.611.78a.303.303 0 0 1-.204-.072.303.303 0 0 1-.072-.203v-5.688a.26.26 0 0 1 .072-.192.278.278 0 0 1 .204-.084h.516c.088 0 .156.023.204.072.048.047.072.116.072.204v.527c.24-.296.516-.524.828-.684.32-.16.716-.24 1.188-.24.768 0 1.364.248 1.788.744.424.488.636 1.136.636 1.944v3.396c0 .08-.028.148-.084.204a.26.26 0 0 1-.192.073h-.552a.303.303 0 0 1-.204-.072.303.303 0 0 1-.072-.204v-3.325c0-.575-.14-1.023-.42-1.343-.28-.32-.68-.48-1.2-.48-.512 0-.92.163-1.224.492-.304.32-.456.764-.456 1.331v3.325c0 .08-.028.148-.084.204a.26.26 0 0 1-.192.072h-.552Z"/></svg>