<svg xmlns="http://www.w3.org/2000/svg" xml:space="preserve" viewBox="0 0 181.82 238.714"><defs><clipPath id="a" clipPathUnits="userSpaceOnUse"><path d="M281.561 282.384h52.759v-8.162h-52.759z"/></clipPath></defs><path d="M0 0a3.608 3.608 0 1 0 .792-7.173 104.91 104.91 0 0 0-4.731-.431 100.116 100.116 0 0 0-4.684-.199 3.61 3.61 0 0 0-.141 7.217A98.187 98.187 0 0 1 0 0m-2.3 43.666c21.009 7.523 43.566 1.56 58.211-13.413-3.185-1.139-6.556-2.408-9.504-3.464-1.362-.488-3.774-.998-4.237-2.001.347-3.142 5.238-1.948 6.436-7.51.69-3.199-1.121-6.93-4.635-8.003-4.995-1.524-10.493 3.162-8.464 9.126.126.37 2.184 4.176.053 4.333l-18.079-6.413c1.427-4.342 3.348-9.38 4.938-13.823.243-.676 1.682-4.087 1.367-4.538.146-1.222-1.082-2.004-2.584-1.904-1.404.092-2.067.675-3.083 1.071-2.173.845-4.889.245-6.594-1.747-4.728-5.523 2.752-13.007 8.321-8.511 1.18.953 1.381 1.715 1.86 2.713.844 1.761 3.682 4.407 4.991.692 2.005-5.686 4.011-11.517 6.147-17.146 2.511.846 17.284 5.911 18.336 6.721-.138 3.478-5.091 1.999-6.409 7.602-.768 3.262 1.031 6.949 4.41 8.154 5.356 1.912 10.723-3.327 8.993-8.676-.419-1.293-1.899-2.962-.546-4.783.889.052 8.555 2.774 13.825 4.718C69.646-34.006 56-52.938 34.987-60.463c-17.351-6.214-35.758-3.225-49.892 6.437 10.898-1.724 23.642-1.466 36.87 1.177v.003c.085.017.169.036.254.06h.001a3.619 3.619 0 0 1-1.667 7.037l-.001.003c-16.019-3.202-31.13-2.699-42.61.701a51.614 51.614 0 0 0-4.288 1.472A55.17 55.17 0 0 0-35.6-27.368a61.88 61.88 0 0 1 4.566-1.581 3.62 3.62 0 1 1 2.102 6.929c-3.392 1.032-6.464 2.295-9.146 3.77a54.912 54.912 0 0 0-.57 15.798C-33.901-4.637-28.266-6.2-22.03-7.059A3.613 3.613 0 0 1-21.066.1c-6.321.869-11.87 2.525-16.26 4.853C-32.999 22.28-20.375 37.193-2.3 43.666m43.274-83.23a3.617 3.617 0 1 0 2.791-6.673 107.301 107.301 0 0 0-4.044-1.588 111.116 111.116 0 0 0-4.161-1.465 3.62 3.62 0 0 0-4.558 2.328 3.62 3.62 0 0 0 2.328 4.558c1.484.484 2.776.932 3.881 1.343 1.143.425 2.399.925 3.763 1.497m-23.856 16.66a3.62 3.62 0 1 0 1.413-7.103A124.69 124.69 0 0 0-.415-32.316c-6.334-.277-12.401-.022-18.044.718a3.61 3.61 0 0 0 .935 7.158c5.231-.686 10.878-.921 16.797-.663 5.698.249 11.688.968 17.845 2.199" style="fill:#914fd3;fill-opacity:1;fill-rule:evenodd;stroke:none" transform="matrix(1.33333 0 0 -1.33333 51.97 153.76)"/><g clip-path="url(#a)" opacity=".3" transform="matrix(1.33333 0 0 -1.33333 -345.711 487.835)"><path d="M0 0c14.504 0 25.164-1.827 23.808-4.081C22.452-6.335 9.594-8.162-4.911-8.162c-14.504 0-25.164 1.827-23.808 4.081C-27.363-1.827-14.505 0 0 0" style="fill:#003c6a;fill-opacity:1;fill-rule:evenodd;stroke:none" transform="translate(310.396 282.384)"/></g><path d="M0 0c2.734-1.137 4.515-2.522 6.723-4.821L3.684-7.13c-.807.84-6.647.531-5.782 1.207 1.728 1.348.643 2.527-.919 3.176-2.948 1.722-3.863-6.106-11.351-3.852-5.007 1.508-7.237 6.183-5.706 10.574 1.531 4.39 6.808 6.654 11.788 5.055 2.987-.958 4.439-3.337 4.658-5.971C-3.404.36-3.136 1.304 0 0" style="fill:#54acd5;fill-opacity:1;fill-rule:evenodd;stroke:none" transform="matrix(1.33333 0 0 -1.33333 38.29 36.434)"/><path d="M0 0c-1.542 2.249 6.203 10.194 10.676 16.177 4.473 5.981 8.118 5.046 10.054 3.44 1.937-1.605 2.138-6.321-2.237-10.767C14.118 4.403 1.542-2.249 0 0" style="fill:#54acd5;fill-opacity:1;fill-rule:evenodd;stroke:none" transform="matrix(1.33333 0 0 -1.33333 96.048 75.612)"/><path d="M0 0c7.019 0 8.354 4.578 12.994 4.614C17.635 4.651 19.65 0 26.42 0c10.946 0 18.071 23.503 18.071 36.366 0 16.482-13.975 27.573-31.213 27.573-17.239 0-31.214-11.091-31.214-27.573C-17.936 16.862-9.607 0 0 0" style="fill:#54acd5;fill-opacity:1;fill-rule:evenodd;stroke:none" transform="matrix(1.33333 0 0 -1.33333 47.468 119.227)"/><path d="M0 0c-.54.996 1.865 2.309 4.022 5.176C6.18 8.043 7.961 8.582 8.5 7.586c.54-.997-.416-2.985-2.645-4.874C3.627.823.539-.997 0 0" style="fill:#fff;fill-opacity:1;fill-rule:evenodd;stroke:none" transform="matrix(1.33333 0 0 -1.33333 108.219 61.724)"/><path d="M0 0a3.39 3.39 0 0 0 3.39-3.39c0-3.411-6.759-3.584-6.759.493C-3.369-1.025-1.873 0 0 0" style="fill:#fff;fill-opacity:1;fill-rule:evenodd;stroke:none" transform="matrix(1.33333 0 0 -1.33333 25.203 25.646)"/><path d="M0 0c.87-2.585-8.75-8.114-14.686-12.648-5.936-4.535-9.187-2.639-10.611-.566-1.426 2.073-.331 6.664 5.091 9.748C-14.783-.383-.87 2.584 0 0" style="fill:#54acd5;fill-opacity:1;fill-rule:evenodd;stroke:none" transform="matrix(1.33333 0 0 -1.33333 34.488 70.57)"/><path d="M0 0c.817-.816-2.576-.224-7.618-4.505C-9.417-6.033-10.063-7-10.954-6.407c-.382.254-1.138 1.177 1.414 3.271C-6.988-1.04-.905.904 0 0m-11.111-7.189c.416-.489.346-1.339-.155-1.9-.502-.561-1.245-.62-1.661-.132-.416.49-.347 1.339.155 1.901.501.56 1.245.619 1.661.131" style="fill:#fff;fill-opacity:1;fill-rule:evenodd;stroke:none" transform="matrix(1.33333 0 0 -1.33333 20.32 74.365)"/><path d="M0 0c15.365 0 27.82-12.456 27.82-27.82 0-27.989-55.466-29.407-55.466 4.038C-27.646-8.417-15.365 0 0 0" style="fill:#5bbae0;fill-opacity:1;fill-rule:evenodd;stroke:none" transform="matrix(1.33333 0 0 -1.33333 66.952 35.624)"/><path d="M0 0c4.709.285 6.342 2.045 8.497.343C10.651-1.36 7.139-7.621.444-8.025c-6.696-.406-10.816 5.332-9.003 7.337C-6.745 1.316-4.71-.284 0 0" style="fill:#003c6a;fill-opacity:1;fill-rule:evenodd;stroke:none" transform="matrix(1.33333 0 0 -1.33333 67.097 77.476)"/><path d="M0 0a8.581 8.581 0 0 0-4.445-1.533c-1.838-.112-3.441.338-4.707 1.049.017 1.433 2.526 2.357 4.497 1.527C-2.704 2.11-.131 1.457 0 0" style="fill:#54acd5;fill-opacity:1;fill-rule:evenodd;stroke:none" transform="matrix(1.33333 0 0 -1.33333 73.537 85.08)"/><path d="M0 0c3.083.187 4.741.955 6.136 1.037l.006-.072c.065-1.075-.689-1.996-1.685-2.057a1.7 1.7 0 0 0-.902.198 2.019 2.019 0 0 0-1.734-1.188 2.03 2.03 0 0 0-1.723.764 2.028 2.028 0 0 0-1.618-.966 2.019 2.019 0 0 0-1.884 1.005 1.687 1.687 0 0 0-.925-.344c-.996-.061-1.856.764-1.921 1.839l-.003.094C-4.857.365-3.083-.187 0 0" style="fill:#fff;fill-opacity:1;fill-rule:evenodd;stroke:none" transform="matrix(1.33333 0 0 -1.33333 67.138 78.2)"/><path d="M0 0c-5.435-1.114-7.125 4.129-.251 5.788 8.61 2.078 20.833-3.534 24.5-11.262.976-2.057-.551-2.829-2.218-.767C17.416-.53 9.119 1.868 0 0m24.64-8.54c.608.103 1.279-.395 1.498-1.113.219-.719-.096-1.385-.704-1.489-.608-.103-1.279.396-1.498 1.115-.22.717.095 1.383.704 1.487" style="fill:#eef7f8;fill-opacity:1;fill-rule:evenodd;stroke:none" transform="matrix(1.33333 0 0 -1.33333 65.773 46.808)"/><path d="M0 0a4.949 4.949 0 1 0 .308-9.892A4.949 4.949 0 0 0 0 0" style="fill:#003c6a;fill-opacity:1;fill-rule:evenodd;stroke:none" transform="matrix(1.33333 0 0 -1.33333 86.03 61.464)"/><path d="M0 0a1.38 1.38 0 1 0 .085-2.759A1.38 1.38 0 0 0 0 0" style="fill:#eef7f8;fill-opacity:1;fill-rule:evenodd;stroke:none" transform="matrix(1.33333 0 0 -1.33333 89.085 63.483)"/><path d="M0 0a4.948 4.948 0 1 0 .309-9.891A4.948 4.948 0 0 0 0 0" style="fill:#003c6a;fill-opacity:1;fill-rule:evenodd;stroke:none" transform="matrix(1.33333 0 0 -1.33333 46.383 61.912)"/><path d="M0 0a1.38 1.38 0 1 0 .085-2.759A1.38 1.38 0 0 0 0 0" style="fill:#eef7f8;fill-opacity:1;fill-rule:evenodd;stroke:none" transform="matrix(1.33333 0 0 -1.33333 49.438 63.931)"/><path d="M0 0c1.641.247 2.98-.373 3.918-1.151 1.937-1.606 2.138-6.322-2.237-10.768-.176-.179-.366-.36-.566-.546-1.908.534-3.431.967-4.098 1.159C-2.053-7.557-1.032-3.77 0 0" style="fill:#4d9dc9;fill-opacity:1;fill-rule:evenodd;stroke:none" transform="matrix(1.33333 0 0 -1.33333 118.464 47.92)"/><path d="M0 0c.709.288 1.234.159 1.487-.308.538-.997-.417-2.985-2.645-4.874a22.035 22.035 0 0 0-.283-.235C-.973-3.614-.49-1.807 0 0" style="fill:#e5eaf4;fill-opacity:1;fill-rule:evenodd;stroke:none" transform="matrix(1.33333 0 0 -1.33333 117.57 51.2)"/><path d="M0 0a55.094 55.094 0 0 0-1.116-23.563 55.094 55.094 0 0 0-10.807-20.956c-5.44 1.402-13.292 3.528-14.053 3.992-.075 2.266 2.092 2.796 3.172 3.621 4.468 3.412 3.038 10.775-2.453 12.253-3.464.932-7.042-1.076-8.268-4.193-2.106-5.357 2.808-6.962.941-9.899-1.326-.068-16.355 4.179-18.902 4.913 1.449 5.844 3.12 11.779 4.709 17.596 1.038 3.799-2.802 3.24-4.498 2.273-.961-.548-1.561-1.06-3.074-1.172-7.137-.526-9.026 9.885-1.995 11.735 2.536.667 5.11-.387 6.416-2.319.61-.903.824-1.76 1.925-2.635 1.178-.937 2.633-.994 3.208.094.516.192 1.274 3.816 1.46 4.509 1.222 4.558 2.512 9.794 3.81 14.176l18.513-5.021c1.663-1.342-2.196-3.3-2.509-3.531-5.065-3.749-3.211-10.731 1.763-12.322 3.499-1.119 7.112.918 8.367 3.94 2.18 5.255-2.521 7.059-1.017 9.839.952.561 3.226-.393 4.622-.767C-6.76 1.752-3.267.877 0 0" style="fill:#7c86e2;fill-opacity:1;fill-rule:evenodd;stroke:none" transform="matrix(1.33333 0 0 -1.33333 180.78 13.9)"/></svg>