<svg xmlns="http://www.w3.org/2000/svg" viewBox="0 0 48 48"><path fill="#01A88D" fill-rule="evenodd" d="m30.587 31 9.085 8.26-1.344 1.48-9.329-8.48V36h-2v-6a1 1 0 0 1 1-1h6v2h-3.413Zm10.412-9v11h-2V23H16v17h16v2H15a1 1 0 0 1-1-1V22a1 1 0 0 1 1-1h25a1 1 0 0 1 1 1Zm-6-5h-4v-2h5a1 1 0 0 1 1 1v3h-2v-2Zm-20 0h13v-2H15v2Zm-7-2h4v2H9v2H7v-3a1 1 0 0 1 1-1ZM7 27h2v-5H7v5Zm2 5h3v2H8a1 1 0 0 1-1-1v-3h2v2Zm4-24h4V6h-4v2ZM7 8h4V6H7v2ZM4 44h40V12H4v32Zm0-34h40V4H4v6Zm41-8H3a1 1 0 0 0-1 1v42a1 1 0 0 0 1 1h42a1 1 0 0 0 1-1V3a1 1 0 0 0-1-1Z"/></svg>