<svg xmlns="http://www.w3.org/2000/svg" viewBox="0 0 48 48"><path fill="#01A88D" fill-rule="evenodd" d="M6.464 31.135h20.107v-2H6.464v2Zm0 5.589h20.107v-2H6.464v2Zm37.202-5.293-7.185-7.186a11.217 11.217 0 0 1-1.632 1.614l7.195 7.194a1.149 1.149 0 0 0 1.622 0 1.149 1.149 0 0 0 0-1.622Zm-14.414-3.19c-.462.059-.929.099-1.406.099a11.108 11.108 0 0 1-7.29-2.726H6.464v-2h12.274a11.113 11.113 0 0 1-1.617-3.349H4v19.703h25.252V28.241ZM18.676 17.17c0 5.057 4.113 9.17 9.17 9.17 5.056 0 9.17-4.113 9.17-9.17 0-5.056-4.114-9.17-9.17-9.17-5.057 0-9.17 4.114-9.17 9.17Zm27.323 15.071a3.138 3.138 0 0 1-3.145 3.146 3.137 3.137 0 0 1-2.224-.92l-7.473-7.473a11.04 11.04 0 0 1-1.905.811v13.163a1 1 0 0 1-1 1H3a1 1 0 0 1-1-1V19.265a1 1 0 0 1 1-1h13.731c-.035-.36-.055-.726-.055-1.095 0-6.159 5.01-11.17 11.17-11.17 6.159 0 11.17 5.011 11.17 11.17 0 1.954-.507 3.79-1.392 5.389l7.456 7.458c.593.593.919 1.383.919 2.224ZM25.178 21.835l-3.409-2.862 1.288-1.531 2.689 2.258 6.645-6.955 1.446 1.381-7.293 7.634a.997.997 0 0 1-1.366.075Z"/></svg>