<?xml version="1.0" encoding="UTF-8" standalone="no"?>
<svg
   xmlns:dc="http://purl.org/dc/elements/1.1/"
   xmlns:cc="http://creativecommons.org/ns#"
   xmlns:rdf="http://www.w3.org/1999/02/22-rdf-syntax-ns#"
   xmlns:svg="http://www.w3.org/2000/svg"
   xmlns="http://www.w3.org/2000/svg"
   xmlns:sodipodi="http://sodipodi.sourceforge.net/DTD/sodipodi-0.dtd"
   xmlns:inkscape="http://www.inkscape.org/namespaces/inkscape"
   width="249.55pt"
   height="195.86pt"
   viewBox="0 0 249.55 195.86"
   version="1.2"
   id="svg4821"
   sodipodi:docname="kuryr_new_mascot_vertical.svg"
   inkscape:version="0.92.0 r">
  <metadata
     id="metadata4825">
    <rdf:RDF>
      <cc:Work
         rdf:about="">
        <dc:format>image/svg+xml</dc:format>
        <dc:type
           rdf:resource="http://purl.org/dc/dcmitype/StillImage" />
        <dc:title></dc:title>
      </cc:Work>
    </rdf:RDF>
  </metadata>
  <sodipodi:namedview
     pagecolor="#ffffff"
     bordercolor="#666666"
     borderopacity="1"
     objecttolerance="10"
     gridtolerance="10"
     guidetolerance="10"
     inkscape:pageopacity="0"
     inkscape:pageshadow="2"
     inkscape:window-width="1920"
     inkscape:window-height="1016"
     id="namedview4823"
     showgrid="false"
     inkscape:zoom="2.2284369"
     inkscape:cx="173.8668"
     inkscape:cy="144.66317"
     inkscape:window-x="0"
     inkscape:window-y="27"
     inkscape:window-maximized="1"
     inkscape:current-layer="svg4821" />
  <defs
     id="defs4724">
    <clipPath
       id="clip1">
      <path
         d="M 31 185 L 42 185 L 42 195.859375 L 31 195.859375 Z M 31 185 "
         id="path4712" />
    </clipPath>
    <clipPath
       id="clip2">
      <path
         d="M 184 185 L 193 185 L 193 195.859375 L 184 195.859375 Z M 184 185 "
         id="path4715" />
    </clipPath>
    <clipPath
       id="clip3">
      <path
         d="M 220 182 L 228 182 L 228 195.859375 L 220 195.859375 Z M 220 182 "
         id="path4718" />
    </clipPath>
    <clipPath
       id="clip4">
      <path
         d="M 243 183 L 249.550781 183 L 249.550781 194 L 243 194 Z M 243 183 "
         id="path4721" />
    </clipPath>
  </defs>
  <g
     id="surface7419">
    <path
       style=" stroke:none;fill-rule:nonzero;fill:rgb(61.462402%,24.44458%,11.550903%);fill-opacity:1;"
       d="M 5.132812 187.980469 C 5.132812 187.15625 4.828125 186.710938 4.273438 186.710938 C 2.859375 186.710938 1.921875 189.347656 1.921875 190.632812 C 1.921875 191.570312 2.257812 192.046875 2.84375 192.046875 C 4.128906 192.046875 5.132812 189.269531 5.132812 187.980469 Z M 6.355469 190.714844 C 6.226562 191.125 6.179688 191.414062 6.179688 191.617188 C 6.179688 191.890625 6.304688 192.03125 6.542969 192.03125 C 6.894531 192.03125 7.242188 191.492188 7.609375 190.425781 L 8.371094 190.664062 C 7.75 192.605469 6.894531 193.320312 5.925781 193.320312 C 5.179688 193.320312 4.621094 192.84375 4.621094 191.921875 C 4.621094 191.808594 4.621094 191.730469 4.636719 191.570312 L 4.527344 191.523438 C 3.925781 192.714844 3.019531 193.320312 2.113281 193.320312 C 0.746094 193.320312 0 192.191406 0 190.792969 C 0 189.171875 0.652344 187.726562 1.507812 186.886719 C 2.257812 186.121094 3.097656 185.679688 3.988281 185.679688 C 4.875 185.679688 5.386719 186.296875 5.527344 187.011719 L 5.84375 185.789062 L 7.65625 185.789062 L 6.355469 190.714844 "
       id="path4726" />
    <path
       style=" stroke:none;fill-rule:nonzero;fill:rgb(61.462402%,24.44458%,11.550903%);fill-opacity:1;"
       d="M 16.328125 192.03125 C 16.664062 192.03125 16.996094 191.523438 17.425781 190.425781 L 18.171875 190.664062 C 17.535156 192.585938 16.648438 193.320312 15.742188 193.320312 C 14.882812 193.320312 14.328125 192.761719 14.328125 191.839844 C 14.328125 190.253906 15.375 188.679688 15.375 187.601562 C 15.375 187.234375 15.21875 187.074219 14.949219 187.074219 C 14.21875 187.074219 12.851562 188.28125 11.578125 193.160156 L 9.675781 193.160156 L 11.039062 188.011719 C 11.277344 187.109375 11.230469 186.855469 10.945312 186.855469 C 10.578125 186.855469 10.164062 187.535156 9.707031 188.519531 L 8.957031 188.203125 C 9.640625 186.617188 10.4375 185.695312 11.5 185.695312 C 12.183594 185.695312 12.660156 186.1875 12.660156 187.171875 C 12.660156 187.632812 12.566406 188.203125 12.328125 188.933594 L 12.4375 188.980469 C 13.484375 186.742188 14.660156 185.679688 15.789062 185.679688 C 16.679688 185.679688 17.234375 186.378906 17.234375 187.332031 C 17.234375 188.679688 16.058594 190.714844 16.058594 191.683594 C 16.058594 191.921875 16.15625 192.03125 16.328125 192.03125 "
       id="path4728" />
    <path
       style=" stroke:none;fill-rule:nonzero;fill:rgb(61.462402%,24.44458%,11.550903%);fill-opacity:1;"
       d="M 24.253906 189.523438 C 24.253906 191.363281 25.160156 192.253906 26.652344 192.253906 C 29.242188 192.253906 30.289062 188.394531 30.289062 186.34375 C 30.289062 184.503906 29.371094 183.613281 27.894531 183.613281 C 25.289062 183.613281 24.253906 187.472656 24.253906 189.523438 Z M 27.972656 182.453125 C 30.578125 182.453125 32.402344 184.3125 32.402344 187.042969 C 32.402344 190.109375 30.101562 193.414062 26.574219 193.414062 C 23.96875 193.414062 22.125 191.554688 22.125 188.824219 C 22.125 185.757812 24.429688 182.453125 27.972656 182.453125 "
       id="path4730" />
    <g
       clip-path="url(#clip1)"
       clip-rule="nonzero"
       id="g4734">
      <path
         style=" stroke:none;fill-rule:nonzero;fill:rgb(61.462402%,24.44458%,11.550903%);fill-opacity:1;"
         d="M 36.152344 190.871094 C 36.152344 191.652344 36.484375 192.191406 37.183594 192.191406 C 38.597656 192.191406 39.390625 189.523438 39.390625 188.265625 C 39.390625 187.378906 39.105469 186.917969 38.519531 186.917969 C 37.246094 186.917969 36.152344 189.472656 36.152344 190.871094 Z M 34.863281 186.996094 C 34.5 186.996094 34.214844 187.457031 33.707031 188.519531 L 32.960938 188.203125 C 33.722656 186.457031 34.46875 185.695312 35.46875 185.695312 C 36.183594 185.695312 36.660156 186.21875 36.660156 187.125 C 36.660156 187.234375 36.644531 187.378906 36.628906 187.519531 L 36.753906 187.566406 C 37.359375 186.3125 38.328125 185.679688 39.203125 185.679688 C 40.535156 185.679688 41.296875 186.773438 41.296875 188.25 C 41.296875 190.808594 39.535156 193.175781 37.582031 193.175781 C 36.738281 193.175781 36.074219 192.746094 35.769531 192.109375 L 35.136719 194.476562 L 36.628906 194.476562 L 36.308594 195.652344 L 31.910156 195.652344 L 32.226562 194.476562 L 33.308594 194.476562 L 34.992188 188.1875 C 35.230469 187.296875 35.152344 186.996094 34.863281 186.996094 "
         id="path4732" />
    </g>
    <path
       style=" stroke:none;fill-rule:nonzero;fill:rgb(61.462402%,24.44458%,11.550903%);fill-opacity:1;"
       d="M 44.253906 189.425781 C 46.460938 189.1875 47.269531 188.332031 47.269531 187.347656 C 47.269531 186.902344 47.015625 186.550781 46.539062 186.550781 C 45.425781 186.550781 44.585938 188.0625 44.253906 189.425781 Z M 44.109375 190.171875 C 44.09375 190.300781 44.09375 190.425781 44.09375 190.539062 C 44.09375 191.855469 44.777344 192.269531 45.570312 192.269531 C 46.347656 192.269531 47.128906 191.746094 47.792969 190.808594 L 48.460938 191.285156 C 47.652344 192.445312 46.667969 193.320312 44.984375 193.320312 C 43.347656 193.320312 42.203125 192.175781 42.203125 190.425781 C 42.203125 187.980469 44.316406 185.679688 46.808594 185.679688 C 48.175781 185.679688 48.9375 186.359375 48.9375 187.332031 C 48.9375 188.757812 47.445312 189.984375 44.109375 190.171875 "
       id="path4736" />
    <path
       style=" stroke:none;fill-rule:nonzero;fill:rgb(61.462402%,24.44458%,11.550903%);fill-opacity:1;"
       d="M 57.117188 192.03125 C 57.453125 192.03125 57.785156 191.523438 58.214844 190.425781 L 58.960938 190.664062 C 58.324219 192.585938 57.4375 193.320312 56.53125 193.320312 C 55.671875 193.320312 55.117188 192.761719 55.117188 191.839844 C 55.117188 190.253906 56.164062 188.679688 56.164062 187.601562 C 56.164062 187.234375 56.007812 187.074219 55.734375 187.074219 C 55.007812 187.074219 53.640625 188.28125 52.367188 193.160156 L 50.464844 193.160156 L 51.828125 188.011719 C 52.066406 187.109375 52.019531 186.855469 51.734375 186.855469 C 51.367188 186.855469 50.957031 187.535156 50.496094 188.519531 L 49.746094 188.203125 C 50.429688 186.617188 51.226562 185.695312 52.289062 185.695312 C 52.972656 185.695312 53.449219 186.1875 53.449219 187.171875 C 53.449219 187.632812 53.351562 188.203125 53.113281 188.933594 L 53.226562 188.980469 C 54.273438 186.742188 55.449219 185.679688 56.578125 185.679688 C 57.46875 185.679688 58.023438 186.378906 58.023438 187.332031 C 58.023438 188.679688 56.847656 190.714844 56.847656 191.683594 C 56.847656 191.921875 56.945312 192.03125 57.117188 192.03125 "
       id="path4738" />
    <path
       style=" stroke:none;fill-rule:nonzero;fill:rgb(61.462402%,24.44458%,11.550903%);fill-opacity:1;"
       d="M 60.613281 189.441406 L 61.738281 189.441406 C 62.042969 191.347656 63.152344 192.285156 64.550781 192.285156 C 65.804688 192.285156 66.535156 191.492188 66.535156 190.664062 C 66.535156 189.746094 65.488281 189.316406 64.359375 188.792969 C 63.042969 188.203125 61.597656 187.503906 61.597656 185.820312 C 61.597656 184.042969 63.203125 182.453125 65.3125 182.453125 C 66.441406 182.453125 67.488281 182.914062 68.015625 183.660156 L 68.664062 182.5 L 69.855469 182.5 L 68.917969 186.265625 L 67.808594 186.265625 C 67.472656 184.296875 66.679688 183.566406 65.3125 183.566406 C 64.28125 183.566406 63.550781 184.3125 63.550781 185.136719 C 63.550781 186.140625 64.632812 186.566406 65.773438 187.074219 C 67.078125 187.632812 68.476562 188.300781 68.476562 189.96875 C 68.476562 191.921875 66.742188 193.414062 64.566406 193.414062 C 63.183594 193.414062 62.152344 192.90625 61.550781 192.144531 L 60.851562 193.367188 L 59.660156 193.367188 L 60.613281 189.441406 "
       id="path4740" />
    <path
       style=" stroke:none;fill-rule:nonzero;fill:rgb(61.462402%,24.44458%,11.550903%);fill-opacity:1;"
       d="M 73.683594 186.980469 L 72.730469 190.457031 C 72.621094 190.855469 72.539062 191.222656 72.539062 191.414062 C 72.539062 191.839844 72.761719 191.984375 73.097656 191.984375 C 73.667969 191.984375 74.144531 191.285156 74.589844 190.269531 L 75.351562 190.523438 C 74.574219 192.777344 73.351562 193.320312 72.492188 193.320312 C 71.445312 193.320312 70.699219 192.792969 70.699219 191.714844 C 70.699219 191.253906 70.871094 190.585938 70.984375 190.140625 L 71.84375 186.980469 L 70.445312 186.980469 L 70.699219 186.011719 L 72.097656 186.011719 L 72.621094 184.105469 L 74.511719 183.898438 L 73.9375 186.011719 L 76.195312 186.011719 L 75.941406 186.980469 L 73.683594 186.980469 "
       id="path4742" />
    <path
       style=" stroke:none;fill-rule:nonzero;fill:rgb(61.462402%,24.44458%,11.550903%);fill-opacity:1;"
       d="M 81.722656 187.980469 C 81.722656 187.15625 81.417969 186.710938 80.863281 186.710938 C 79.449219 186.710938 78.511719 189.347656 78.511719 190.632812 C 78.511719 191.570312 78.847656 192.046875 79.433594 192.046875 C 80.722656 192.046875 81.722656 189.269531 81.722656 187.980469 Z M 82.945312 190.714844 C 82.816406 191.125 82.769531 191.414062 82.769531 191.617188 C 82.769531 191.890625 82.898438 192.03125 83.136719 192.03125 C 83.484375 192.03125 83.835938 191.492188 84.199219 190.425781 L 84.960938 190.664062 C 84.34375 192.605469 83.484375 193.320312 82.515625 193.320312 C 81.769531 193.320312 81.214844 192.84375 81.214844 191.921875 C 81.214844 191.808594 81.214844 191.730469 81.230469 191.570312 L 81.117188 191.523438 C 80.515625 192.714844 79.609375 193.320312 78.703125 193.320312 C 77.335938 193.320312 76.589844 192.191406 76.589844 190.792969 C 76.589844 189.171875 77.242188 187.726562 78.101562 186.886719 C 78.847656 186.121094 79.6875 185.679688 80.578125 185.679688 C 81.46875 185.679688 81.976562 186.296875 82.117188 187.011719 L 82.4375 185.789062 L 84.246094 185.789062 L 82.945312 190.714844 "
       id="path4744" />
    <path
       style=" stroke:none;fill-rule:nonzero;fill:rgb(61.462402%,24.44458%,11.550903%);fill-opacity:1;"
       d="M 92.238281 187.550781 C 92.238281 188.234375 91.808594 188.917969 91.125 188.917969 C 90.554688 188.917969 90.1875 188.539062 90.1875 188.0625 C 90.1875 187.617188 90.457031 187.25 90.839844 186.980469 C 90.710938 186.757812 90.441406 186.582031 89.964844 186.582031 C 88.378906 186.582031 87.441406 189.015625 87.441406 190.394531 C 87.441406 191.761719 88.171875 192.191406 88.886719 192.191406 C 89.617188 192.191406 90.316406 191.667969 90.949219 190.683594 L 91.632812 191.140625 C 90.949219 192.332031 90.011719 193.320312 88.457031 193.320312 C 86.710938 193.320312 85.535156 192.128906 85.535156 190.394531 C 85.535156 187.917969 87.660156 185.679688 89.933594 185.679688 C 91.269531 185.679688 92.238281 186.425781 92.238281 187.550781 "
       id="path4746" />
    <path
       style=" stroke:none;fill-rule:nonzero;fill:rgb(61.462402%,24.44458%,11.550903%);fill-opacity:1;"
       d="M 98.972656 192.03125 C 99.320312 192.03125 99.621094 191.523438 100.035156 190.425781 L 100.78125 190.664062 C 100.179688 192.585938 99.351562 193.320312 98.429688 193.320312 C 97.542969 193.320312 96.953125 192.730469 96.953125 191.699219 C 96.953125 191.253906 97.128906 190.617188 97.128906 190.269531 C 97.128906 189.679688 96.875 189.539062 95.714844 189.539062 L 95.683594 189.539062 L 94.714844 193.160156 L 92.917969 193.160156 L 95.492188 183.453125 L 94.175781 183.453125 L 94.492188 182.214844 L 97.652344 182.214844 L 95.875 188.824219 L 95.953125 188.824219 C 96.796875 188.824219 97.144531 188.347656 97.84375 187.1875 C 98.367188 186.328125 98.894531 185.679688 99.828125 185.679688 C 100.59375 185.679688 101.003906 186.15625 101.003906 186.835938 C 101.003906 187.503906 100.574219 188.171875 99.925781 188.171875 C 99.289062 188.171875 98.957031 187.617188 99.179688 186.964844 C 98.957031 187.011719 98.71875 187.28125 98.351562 187.886719 C 98.035156 188.472656 97.78125 188.808594 97.304688 189.0625 C 98.429688 189.15625 98.796875 189.648438 98.796875 190.394531 C 98.796875 190.855469 98.667969 191.316406 98.667969 191.601562 C 98.667969 191.921875 98.796875 192.03125 98.972656 192.03125 "
       id="path4748" />
    <path
       style=" stroke:none;fill-rule:nonzero;fill:rgb(61.462402%,24.44458%,11.550903%);fill-opacity:1;"
       d="M 107.660156 188.980469 C 107.660156 185.789062 110.011719 182.453125 113.503906 182.453125 C 114.824219 182.453125 115.808594 182.929688 116.347656 183.738281 L 117 182.5 L 118.222656 182.5 L 117.207031 186.632812 L 116.015625 186.632812 C 115.855469 184.34375 114.855469 183.613281 113.570312 183.613281 C 110.757812 183.613281 109.789062 187.394531 109.789062 189.140625 C 109.789062 191.253906 110.867188 192.144531 112.25 192.144531 C 113.933594 192.144531 114.917969 190.871094 115.714844 188.996094 L 116.839844 189.394531 C 116.046875 191.617188 114.570312 193.414062 112.027344 193.414062 C 109.105469 193.414062 107.660156 191.554688 107.660156 188.980469 "
       id="path4750" />
    <path
       style=" stroke:none;fill-rule:nonzero;fill:rgb(61.462402%,24.44458%,11.550903%);fill-opacity:1;"
       d="M 122.082031 186.550781 C 120.605469 186.550781 119.761719 189.441406 119.761719 190.984375 C 119.761719 192 120.191406 192.429688 120.875 192.429688 C 122.351562 192.429688 123.195312 189.539062 123.195312 187.996094 C 123.195312 186.980469 122.765625 186.550781 122.082031 186.550781 Z M 125.085938 188.742188 C 125.085938 191.222656 123.097656 193.320312 120.890625 193.320312 C 119.0625 193.320312 117.871094 192.03125 117.871094 190.238281 C 117.871094 187.757812 119.859375 185.679688 122.066406 185.679688 C 123.894531 185.679688 125.085938 186.949219 125.085938 188.742188 "
       id="path4752" />
    <path
       style=" stroke:none;fill-rule:nonzero;fill:rgb(61.462402%,24.44458%,11.550903%);fill-opacity:1;"
       d="M 135.410156 191.839844 C 135.410156 190.253906 136.457031 188.679688 136.457031 187.601562 C 136.457031 187.234375 136.296875 187.074219 136.027344 187.074219 C 135.328125 187.074219 133.949219 188.28125 132.675781 193.160156 L 130.800781 193.160156 L 131.914062 188.964844 C 132.058594 188.441406 132.136719 188.0625 132.136719 187.757812 C 132.136719 187.378906 132.011719 187.074219 131.660156 187.074219 C 130.929688 187.074219 129.5625 188.28125 128.292969 193.160156 L 126.386719 193.160156 L 127.753906 188.011719 C 127.992188 187.109375 127.941406 186.855469 127.65625 186.855469 C 127.292969 186.855469 126.878906 187.535156 126.417969 188.519531 L 125.671875 188.203125 C 126.355469 186.617188 127.148438 185.695312 128.214844 185.695312 C 128.894531 185.695312 129.371094 186.1875 129.371094 187.171875 C 129.371094 187.632812 129.277344 188.203125 129.039062 188.933594 L 129.148438 188.980469 C 130.199219 186.742188 131.375 185.679688 132.453125 185.679688 C 133.328125 185.679688 133.789062 186.265625 133.789062 187.21875 C 133.789062 187.664062 133.660156 188.203125 133.421875 188.933594 L 133.535156 188.980469 C 134.582031 186.742188 135.757812 185.679688 136.886719 185.679688 C 137.761719 185.679688 138.316406 186.378906 138.316406 187.332031 C 138.316406 188.679688 137.140625 190.714844 137.140625 191.683594 C 137.140625 191.921875 137.234375 192.03125 137.410156 192.03125 C 137.742188 192.03125 138.078125 191.523438 138.507812 190.425781 L 139.253906 190.664062 C 138.617188 192.585938 137.726562 193.320312 136.824219 193.320312 C 135.964844 193.320312 135.410156 192.761719 135.410156 191.839844 "
       id="path4754" />
    <path
       style=" stroke:none;fill-rule:nonzero;fill:rgb(61.462402%,24.44458%,11.550903%);fill-opacity:1;"
       d="M 149.339844 191.839844 C 149.339844 190.253906 150.386719 188.679688 150.386719 187.601562 C 150.386719 187.234375 150.230469 187.074219 149.960938 187.074219 C 149.261719 187.074219 147.878906 188.28125 146.605469 193.160156 L 144.730469 193.160156 L 145.84375 188.964844 C 145.988281 188.441406 146.066406 188.0625 146.066406 187.757812 C 146.066406 187.378906 145.9375 187.074219 145.589844 187.074219 C 144.859375 187.074219 143.492188 188.28125 142.222656 193.160156 L 140.316406 193.160156 L 141.683594 188.011719 C 141.921875 187.109375 141.871094 186.855469 141.589844 186.855469 C 141.222656 186.855469 140.808594 187.535156 140.347656 188.519531 L 139.601562 188.203125 C 140.285156 186.617188 141.078125 185.695312 142.144531 185.695312 C 142.824219 185.695312 143.304688 186.1875 143.304688 187.171875 C 143.304688 187.632812 143.207031 188.203125 142.96875 188.933594 L 143.082031 188.980469 C 144.128906 186.742188 145.304688 185.679688 146.386719 185.679688 C 147.257812 185.679688 147.71875 186.265625 147.71875 187.21875 C 147.71875 187.664062 147.59375 188.203125 147.355469 188.933594 L 147.464844 188.980469 C 148.511719 186.742188 149.6875 185.679688 150.816406 185.679688 C 151.691406 185.679688 152.246094 186.378906 152.246094 187.332031 C 152.246094 188.679688 151.070312 190.714844 151.070312 191.683594 C 151.070312 191.921875 151.164062 192.03125 151.339844 192.03125 C 151.675781 192.03125 152.007812 191.523438 152.4375 190.425781 L 153.183594 190.664062 C 152.546875 192.585938 151.65625 193.320312 150.753906 193.320312 C 149.894531 193.320312 149.339844 192.761719 149.339844 191.839844 "
       id="path4756" />
    <path
       style=" stroke:none;fill-rule:nonzero;fill:rgb(61.462402%,24.44458%,11.550903%);fill-opacity:1;"
       d="M 159.109375 191.824219 C 159.109375 191.429688 159.203125 190.824219 159.457031 190.015625 L 159.347656 189.96875 C 158.296875 192.269531 157.1875 193.320312 156.042969 193.320312 C 155.167969 193.320312 154.597656 192.636719 154.597656 191.652344 C 154.597656 190.316406 155.726562 188.203125 155.726562 187.296875 C 155.726562 187.074219 155.628906 186.964844 155.484375 186.964844 C 155.152344 186.964844 154.882812 187.3125 154.3125 188.503906 L 153.5625 188.1875 C 154.214844 186.617188 155.058594 185.679688 156.152344 185.679688 C 156.996094 185.679688 157.488281 186.203125 157.488281 187.125 C 157.488281 188.601562 156.4375 190.285156 156.4375 191.300781 C 156.4375 191.746094 156.613281 191.921875 156.882812 191.921875 C 157.597656 191.921875 158.917969 190.746094 160.21875 185.789062 L 162.125 185.789062 L 160.824219 190.714844 C 160.695312 191.140625 160.648438 191.414062 160.648438 191.617188 C 160.648438 191.890625 160.792969 192.03125 161.015625 192.03125 C 161.378906 192.03125 161.714844 191.492188 162.078125 190.425781 L 162.839844 190.664062 C 162.222656 192.605469 161.363281 193.320312 160.457031 193.320312 C 159.632812 193.320312 159.109375 192.859375 159.109375 191.824219 "
       id="path4758" />
    <path
       style=" stroke:none;fill-rule:nonzero;fill:rgb(61.462402%,24.44458%,11.550903%);fill-opacity:1;"
       d="M 170.433594 192.03125 C 170.765625 192.03125 171.101562 191.523438 171.527344 190.425781 L 172.273438 190.664062 C 171.640625 192.585938 170.75 193.320312 169.847656 193.320312 C 168.988281 193.320312 168.433594 192.761719 168.433594 191.839844 C 168.433594 190.253906 169.480469 188.679688 169.480469 187.601562 C 169.480469 187.234375 169.320312 187.074219 169.050781 187.074219 C 168.320312 187.074219 166.953125 188.28125 165.683594 193.160156 L 163.777344 193.160156 L 165.144531 188.011719 C 165.382812 187.109375 165.335938 186.855469 165.050781 186.855469 C 164.683594 186.855469 164.269531 187.535156 163.808594 188.519531 L 163.0625 188.203125 C 163.746094 186.617188 164.539062 185.695312 165.605469 185.695312 C 166.285156 185.695312 166.765625 186.1875 166.765625 187.171875 C 166.765625 187.632812 166.667969 188.203125 166.429688 188.933594 L 166.542969 188.980469 C 167.589844 186.742188 168.765625 185.679688 169.894531 185.679688 C 170.78125 185.679688 171.339844 186.378906 171.339844 187.332031 C 171.339844 188.679688 170.164062 190.714844 170.164062 191.683594 C 170.164062 191.921875 170.257812 192.03125 170.433594 192.03125 "
       id="path4760" />
    <path
       style=" stroke:none;fill-rule:nonzero;fill:rgb(61.462402%,24.44458%,11.550903%);fill-opacity:1;"
       d="M 176.277344 184.566406 C 175.722656 184.566406 175.292969 184.183594 175.292969 183.550781 C 175.292969 182.898438 175.785156 182.152344 176.628906 182.152344 C 177.230469 182.152344 177.644531 182.53125 177.644531 183.167969 C 177.644531 183.804688 177.121094 184.566406 176.277344 184.566406 Z M 175.515625 191.652344 C 175.515625 191.921875 175.628906 192.03125 175.832031 192.03125 C 176.136719 192.03125 176.484375 191.601562 176.960938 190.425781 L 177.707031 190.664062 C 177.089844 192.539062 176.199219 193.320312 175.183594 193.320312 C 174.355469 193.320312 173.753906 192.777344 173.753906 191.824219 C 173.753906 190.316406 175.070312 188.1875 175.070312 187.203125 C 175.070312 186.949219 174.976562 186.855469 174.832031 186.855469 C 174.386719 186.855469 173.988281 187.535156 173.546875 188.519531 L 172.78125 188.203125 C 173.464844 186.617188 174.308594 185.679688 175.390625 185.679688 C 176.214844 185.679688 176.800781 186.265625 176.800781 187.28125 C 176.800781 188.519531 175.515625 190.730469 175.515625 191.652344 "
       id="path4762" />
    <path
       style=" stroke:none;fill-rule:nonzero;fill:rgb(61.462402%,24.44458%,11.550903%);fill-opacity:1;"
       d="M 181.886719 186.980469 L 180.933594 190.457031 C 180.820312 190.855469 180.738281 191.222656 180.738281 191.414062 C 180.738281 191.839844 180.964844 191.984375 181.296875 191.984375 C 181.867188 191.984375 182.34375 191.285156 182.789062 190.269531 L 183.554688 190.523438 C 182.773438 192.777344 181.550781 193.320312 180.691406 193.320312 C 179.644531 193.320312 178.898438 192.792969 178.898438 191.714844 C 178.898438 191.253906 179.074219 190.585938 179.183594 190.140625 L 180.042969 186.980469 L 178.644531 186.980469 L 178.898438 186.011719 L 180.296875 186.011719 L 180.820312 184.105469 L 182.710938 183.898438 L 182.140625 186.011719 L 184.394531 186.011719 L 184.140625 186.980469 L 181.886719 186.980469 "
       id="path4764" />
    <g
       clip-path="url(#clip2)"
       clip-rule="nonzero"
       id="g4768">
      <path
         style=" stroke:none;fill-rule:nonzero;fill:rgb(61.462402%,24.44458%,11.550903%);fill-opacity:1;"
         d="M 188.144531 187.058594 C 188.144531 188.519531 187.222656 189.949219 187.222656 190.871094 C 187.222656 191.269531 187.394531 191.429688 187.746094 191.429688 C 188.589844 191.429688 189.714844 190.476562 190.921875 185.789062 L 192.703125 185.789062 L 191.238281 191.921875 C 190.558594 194.84375 188.953125 195.859375 186.96875 195.859375 C 185.855469 195.859375 184.519531 195.558594 184.519531 194.382812 C 184.519531 193.875 184.902344 193.238281 185.617188 193.238281 C 186.253906 193.238281 186.570312 193.683594 186.539062 194.207031 C 186.523438 194.460938 186.378906 194.75 186.222656 194.890625 C 186.410156 194.953125 186.648438 195.003906 186.953125 195.003906 C 188.191406 195.003906 189.03125 194 189.570312 191.792969 L 189.890625 190.539062 L 189.796875 190.492188 C 188.875 192.175781 187.890625 192.792969 186.96875 192.792969 C 185.917969 192.792969 185.394531 192.0625 185.394531 191.140625 C 185.394531 189.917969 186.410156 188.203125 186.410156 187.296875 C 186.410156 187.09375 186.316406 186.964844 186.175781 186.964844 C 185.777344 186.964844 185.394531 187.617188 184.964844 188.519531 L 184.21875 188.203125 C 184.917969 186.617188 185.792969 185.679688 186.839844 185.679688 C 187.648438 185.679688 188.144531 186.21875 188.144531 187.058594 "
         id="path4766" />
    </g>
    <path
       style=" stroke:none;fill-rule:nonzero;fill:rgb(61.462402%,24.44458%,11.550903%);fill-opacity:1;"
       d="M 201.136719 187.855469 C 203.167969 187.855469 203.882812 186.582031 203.882812 185.359375 C 203.882812 184.4375 203.328125 183.882812 201.753906 183.882812 L 201.070312 183.882812 L 200.085938 187.855469 Z M 199.054688 191.96875 L 200.785156 191.96875 L 200.515625 193.160156 L 195.179688 193.160156 L 195.449219 191.96875 L 197.054688 191.96875 L 199.054688 183.898438 L 197.433594 183.898438 L 197.734375 182.707031 L 202.136719 182.707031 C 205.011719 182.707031 206.105469 183.882812 206.105469 185.375 C 206.105469 186.964844 205.011719 188.980469 201.070312 188.980469 L 199.800781 188.980469 L 199.054688 191.96875 "
       id="path4770" />
    <path
       style=" stroke:none;fill-rule:nonzero;fill:rgb(61.462402%,24.44458%,11.550903%);fill-opacity:1;"
       d="M 208.585938 188.011719 C 208.824219 187.109375 208.773438 186.855469 208.488281 186.855469 C 208.125 186.855469 207.710938 187.535156 207.25 188.519531 L 206.503906 188.203125 C 207.1875 186.617188 207.980469 185.695312 209.046875 185.695312 C 209.730469 185.695312 210.203125 186.1875 210.203125 187.171875 C 210.203125 187.632812 210.109375 188.1875 209.886719 188.886719 L 210.015625 188.933594 C 210.9375 186.835938 211.699219 185.679688 212.8125 185.679688 C 213.476562 185.679688 213.96875 186.140625 213.96875 186.886719 C 213.96875 187.679688 213.460938 188.316406 212.824219 188.316406 C 212.269531 188.316406 211.84375 187.949219 211.871094 187.28125 C 211.410156 187.472656 210.269531 188.824219 209.125 193.160156 L 207.21875 193.160156 L 208.585938 188.011719 "
       id="path4772" />
    <path
       style=" stroke:none;fill-rule:nonzero;fill:rgb(61.462402%,24.44458%,11.550903%);fill-opacity:1;"
       d="M 218.511719 186.550781 C 217.035156 186.550781 216.191406 189.441406 216.191406 190.984375 C 216.191406 192 216.621094 192.429688 217.304688 192.429688 C 218.78125 192.429688 219.625 189.539062 219.625 187.996094 C 219.625 186.980469 219.195312 186.550781 218.511719 186.550781 Z M 221.515625 188.742188 C 221.515625 191.222656 219.527344 193.320312 217.320312 193.320312 C 215.492188 193.320312 214.304688 192.03125 214.304688 190.238281 C 214.304688 187.757812 216.289062 185.679688 218.496094 185.679688 C 220.324219 185.679688 221.515625 186.949219 221.515625 188.742188 "
       id="path4774" />
    <g
       clip-path="url(#clip3)"
       clip-rule="nonzero"
       id="g4778">
      <path
         style=" stroke:none;fill-rule:nonzero;fill:rgb(61.462402%,24.44458%,11.550903%);fill-opacity:1;"
         d="M 226.390625 184.566406 C 225.835938 184.566406 225.40625 184.183594 225.40625 183.550781 C 225.40625 182.898438 225.914062 182.152344 226.738281 182.152344 C 227.34375 182.152344 227.757812 182.53125 227.757812 183.167969 C 227.757812 183.804688 227.234375 184.566406 226.390625 184.566406 Z M 226.691406 188.539062 L 225.691406 192.332031 C 225.023438 194.859375 223.785156 195.859375 222.324219 195.859375 C 221.214844 195.859375 220.734375 195.335938 220.734375 194.730469 C 220.734375 194.144531 221.164062 193.605469 221.785156 193.605469 C 222.324219 193.605469 222.609375 194 222.609375 194.414062 C 222.609375 194.75 222.484375 195.019531 222.355469 195.175781 C 223.039062 195.191406 223.308594 194.78125 223.898438 192.507812 L 224.945312 188.488281 C 225.039062 188.109375 225.183594 187.550781 225.183594 187.21875 C 225.183594 186.933594 225.058594 186.855469 224.914062 186.855469 C 224.53125 186.855469 224.117188 187.535156 223.660156 188.519531 L 222.910156 188.203125 C 223.597656 186.617188 224.421875 185.679688 225.53125 185.679688 C 226.34375 185.679688 226.914062 186.296875 226.914062 187.1875 C 226.914062 187.550781 226.835938 187.996094 226.691406 188.539062 "
         id="path4776" />
    </g>
    <path
       style=" stroke:none;fill-rule:nonzero;fill:rgb(61.462402%,24.44458%,11.550903%);fill-opacity:1;"
       d="M 230.265625 189.425781 C 232.476562 189.1875 233.285156 188.332031 233.285156 187.347656 C 233.285156 186.902344 233.03125 186.550781 232.554688 186.550781 C 231.441406 186.550781 230.601562 188.0625 230.265625 189.425781 Z M 230.121094 190.171875 C 230.105469 190.300781 230.105469 190.425781 230.105469 190.539062 C 230.105469 191.855469 230.789062 192.269531 231.585938 192.269531 C 232.363281 192.269531 233.140625 191.746094 233.808594 190.808594 L 234.476562 191.285156 C 233.664062 192.445312 232.679688 193.320312 230.996094 193.320312 C 229.359375 193.320312 228.21875 192.175781 228.21875 190.425781 C 228.21875 187.980469 230.328125 185.679688 232.824219 185.679688 C 234.1875 185.679688 234.953125 186.359375 234.953125 187.332031 C 234.953125 188.757812 233.460938 189.984375 230.121094 190.171875 "
       id="path4780" />
    <path
       style=" stroke:none;fill-rule:nonzero;fill:rgb(61.462402%,24.44458%,11.550903%);fill-opacity:1;"
       d="M 242.609375 187.550781 C 242.609375 188.234375 242.179688 188.917969 241.496094 188.917969 C 240.925781 188.917969 240.558594 188.539062 240.558594 188.0625 C 240.558594 187.617188 240.828125 187.25 241.210938 186.980469 C 241.082031 186.757812 240.8125 186.582031 240.335938 186.582031 C 238.746094 186.582031 237.8125 189.015625 237.8125 190.394531 C 237.8125 191.761719 238.542969 192.191406 239.257812 192.191406 C 239.988281 192.191406 240.6875 191.667969 241.320312 190.683594 L 242.003906 191.140625 C 241.320312 192.332031 240.382812 193.320312 238.828125 193.320312 C 237.078125 193.320312 235.902344 192.128906 235.902344 190.394531 C 235.902344 187.917969 238.03125 185.679688 240.304688 185.679688 C 241.640625 185.679688 242.609375 186.425781 242.609375 187.550781 "
       id="path4782" />
    <g
       clip-path="url(#clip4)"
       clip-rule="nonzero"
       id="g4786">
      <path
         style=" stroke:none;fill-rule:nonzero;fill:rgb(61.462402%,24.44458%,11.550903%);fill-opacity:1;"
         d="M 247.039062 186.980469 L 246.085938 190.457031 C 245.976562 190.855469 245.894531 191.222656 245.894531 191.414062 C 245.894531 191.839844 246.117188 191.984375 246.453125 191.984375 C 247.023438 191.984375 247.5 191.285156 247.945312 190.269531 L 248.707031 190.523438 C 247.929688 192.777344 246.707031 193.320312 245.847656 193.320312 C 244.800781 193.320312 244.054688 192.792969 244.054688 191.714844 C 244.054688 191.253906 244.230469 190.585938 244.339844 190.140625 L 245.195312 186.980469 L 243.800781 186.980469 L 244.054688 186.011719 L 245.449219 186.011719 L 245.976562 184.105469 L 247.863281 183.898438 L 247.292969 186.011719 L 249.550781 186.011719 L 249.296875 186.980469 L 247.039062 186.980469 "
         id="path4784" />
    </g>
    <path
       style=" stroke:none;fill-rule:nonzero;fill:rgb(12.452698%,9.849548%,8.714294%);fill-opacity:1;"
       d="M 26.242188 125.304688 L 37.761719 125.304688 L 37.761719 143.03125 L 50.113281 125.304688 L 63.359375 125.304688 L 49.472656 144.375 L 63.808594 170.101562 L 50.367188 170.101562 L 41.34375 153.78125 L 37.761719 158.453125 L 37.761719 170.101562 L 26.242188 170.101562 L 26.242188 125.304688 "
       id="path4788" />
    <path
       style=" stroke:none;fill-rule:nonzero;fill:rgb(12.452698%,9.849548%,8.714294%);fill-opacity:1;"
       d="M 67.839844 152.375 L 67.839844 125.304688 L 79.425781 125.304688 L 79.425781 152.503906 C 79.425781 157.878906 82.046875 160.4375 86.015625 160.4375 C 90.046875 160.4375 92.605469 158.007812 92.605469 152.695312 L 92.605469 125.304688 L 104.253906 125.304688 L 104.253906 152.183594 C 104.253906 165.171875 96.894531 170.867188 85.953125 170.867188 C 75.007812 170.867188 67.839844 165.109375 67.839844 152.375 "
       id="path4790" />
    <path
       style=" stroke:none;fill-rule:nonzero;fill:rgb(12.452698%,9.849548%,8.714294%);fill-opacity:1;"
       d="M 127.617188 147.0625 C 131.519531 147.0625 133.824219 144.824219 133.824219 141.238281 L 133.824219 141.109375 C 133.824219 137.269531 131.390625 135.351562 127.550781 135.351562 L 121.921875 135.351562 L 121.921875 147.0625 Z M 110.464844 125.304688 L 128.0625 125.304688 C 134.078125 125.304688 138.621094 126.902344 141.503906 129.847656 C 143.996094 132.34375 145.40625 135.800781 145.40625 140.34375 L 145.40625 140.664062 C 145.40625 147.320312 142.144531 151.476562 137.40625 153.847656 L 146.621094 170.101562 L 133.632812 170.101562 L 126.015625 156.214844 L 121.921875 156.214844 L 121.921875 170.101562 L 110.464844 170.101562 L 110.464844 125.304688 "
       id="path4792" />
    <path
       style=" stroke:none;fill-rule:nonzero;fill:rgb(12.452698%,9.849548%,8.714294%);fill-opacity:1;"
       d="M 159.9375 153.332031 L 145.535156 125.304688 L 158.273438 125.304688 L 165.761719 141.496094 L 173.3125 125.304688 L 185.855469 125.304688 L 171.453125 153.207031 L 171.453125 170.101562 L 159.9375 170.101562 L 159.9375 153.332031 "
       id="path4794" />
    <path
       style=" stroke:none;fill-rule:nonzero;fill:rgb(12.452698%,9.849548%,8.714294%);fill-opacity:1;"
       d="M 206.207031 147.0625 C 210.109375 147.0625 212.414062 144.824219 212.414062 141.238281 L 212.414062 141.109375 C 212.414062 137.269531 209.980469 135.351562 206.144531 135.351562 L 200.511719 135.351562 L 200.511719 147.0625 Z M 189.058594 125.304688 L 206.65625 125.304688 C 212.671875 125.304688 217.214844 126.902344 220.09375 129.847656 C 222.589844 132.34375 223.996094 135.800781 223.996094 140.34375 L 223.996094 140.664062 C 223.996094 147.320312 220.734375 151.476562 215.996094 153.847656 L 225.214844 170.101562 L 212.222656 170.101562 L 204.605469 156.214844 L 200.511719 156.214844 L 200.511719 170.101562 L 189.058594 170.101562 L 189.058594 125.304688 "
       id="path4796" />
    <path
       style=" stroke:none;fill-rule:nonzero;fill:rgb(61.462402%,24.44458%,11.550903%);fill-opacity:1;"
       d="M 162.941406 74.09375 C 162.714844 74.09375 162.484375 74.070312 162.265625 74.027344 C 154.238281 72.347656 148.175781 65.648438 147.246094 57.582031 L 144.484375 57.582031 C 144.632812 58.960938 144.90625 60.316406 145.300781 61.597656 C 145.636719 62.722656 145.429688 63.882812 144.742188 64.804688 C 144.054688 65.726562 142.992188 66.257812 141.839844 66.257812 L 105.0625 66.273438 C 104.367188 66.273438 103.71875 65.945312 103.304688 65.390625 C 102.890625 64.835938 102.761719 64.117188 102.960938 63.453125 C 103.402344 61.976562 103.625 60.472656 103.625 58.980469 L 103.625 58.394531 L 100.886719 58.394531 L 100.886719 58.980469 C 100.886719 66.082031 95.105469 71.859375 88.003906 71.859375 L 77.117188 71.859375 C 75.746094 71.859375 74.507812 71.097656 73.894531 69.867188 C 73.269531 68.628906 73.402344 67.164062 74.234375 66.046875 C 76.015625 63.652344 78.648438 62.007812 81.539062 61.457031 L 81.539062 58.6875 C 79.195312 59.046875 76.992188 59.96875 75.113281 61.375 C 75.09375 61.390625 75.078125 61.402344 75.058594 61.414062 C 74.414062 61.867188 73.632812 62.117188 72.859375 62.117188 C 72.546875 62.117188 72.238281 62.078125 71.9375 62 C 71.925781 61.996094 71.910156 61.992188 71.898438 61.988281 C 65.382812 60.171875 60.441406 58.15625 57.441406 56.785156 C 56.445312 56.320312 55.730469 55.433594 55.464844 54.335938 C 55.460938 54.320312 55.460938 54.308594 55.457031 54.292969 C 54.996094 52.210938 53.980469 50.277344 52.515625 48.703125 C 51.25 47.363281 51.238281 45.238281 52.492188 43.871094 C 54.597656 41.640625 55.746094 38.742188 55.746094 35.695312 C 55.746094 32.964844 54.84375 30.394531 53.136719 28.257812 C 52.390625 27.324219 52.140625 26.085938 52.464844 24.949219 C 52.789062 23.828125 53.601562 22.960938 54.699219 22.570312 C 56.558594 21.945312 58.425781 21.632812 60.277344 21.632812 L 60.617188 21.632812 C 61.4375 21.632812 62.28125 21.589844 63.300781 21.5 C 63.367188 21.492188 63.429688 21.492188 63.496094 21.492188 L 69.921875 21.492188 C 73.773438 21.492188 77.507812 22.777344 80.523438 25.132812 L 82.480469 23.183594 C 81.683594 22.539062 80.816406 21.945312 79.878906 21.40625 C 78.738281 20.738281 78.039062 19.511719 78.054688 18.199219 C 78.070312 16.894531 78.761719 15.738281 79.90625 15.109375 C 92.007812 8.453125 105.726562 4.933594 119.582031 4.933594 C 138.804688 4.933594 157.527344 11.703125 172.308594 23.992188 C 177.671875 28.464844 184.453125 30.925781 191.414062 30.925781 L 226.097656 30.925781 C 235.300781 30.925781 243.136719 38.164062 243.5625 47.0625 C 243.773438 51.933594 242.003906 56.492188 238.570312 59.90625 C 235.394531 63.082031 230.953125 64.835938 226.066406 64.835938 C 225.976562 64.835938 225.886719 64.835938 225.796875 64.832031 C 212.945312 64.683594 206.972656 60.894531 201.199219 57.230469 L 201.167969 57.210938 C 197.332031 54.773438 193.726562 52.480469 188.457031 51.269531 C 187.4375 51.019531 186.59375 50.363281 186.113281 49.464844 C 185.632812 48.5625 185.554688 47.492188 185.902344 46.53125 C 186.539062 44.796875 186.953125 43.015625 187.132812 41.222656 L 184.367188 41.222656 C 183.269531 50.742188 175.0625 58.121094 165.464844 58.121094 L 164.09375 58.121094 L 164.09375 59.492188 C 164.09375 61.492188 164.984375 63.375 166.53125 64.65625 C 167.734375 65.636719 168.148438 67.292969 167.558594 68.769531 L 166.277344 71.847656 C 165.707031 73.210938 164.398438 74.09375 162.941406 74.09375 "
       id="path4798" />
    <path
       style=" stroke:none;fill-rule:nonzero;fill:rgb(28.33252%,31.581116%,36.463928%);fill-opacity:1;"
       d="M 187.128906 74.808594 C 185.992188 73.210938 185.738281 71.019531 186.46875 69.085938 C 186.476562 69.058594 186.488281 69.03125 186.496094 69.003906 C 186.589844 68.730469 186.710938 68.304688 186.710938 67.769531 C 186.710938 65.777344 185.085938 64.152344 183.089844 64.152344 C 182.824219 64.152344 182.605469 64.191406 182.480469 64.210938 L 174.433594 65.535156 C 172.714844 65.8125 171.28125 66.949219 170.589844 68.585938 L 168.761719 73.015625 C 168.105469 74.632812 168.316406 76.441406 169.320312 77.847656 L 174.050781 84.507812 C 174.71875 85.472656 175.824219 86.050781 177.007812 86.050781 C 178.425781 86.050781 179.722656 85.21875 180.3125 83.929688 C 180.320312 83.910156 180.328125 83.890625 180.339844 83.871094 C 181.160156 81.917969 182.90625 80.496094 184.898438 80.164062 C 186.066406 79.964844 187.035156 79.199219 187.488281 78.117188 C 187.957031 77.027344 187.824219 75.792969 187.128906 74.808594 "
       id="path4800" />
    <path
       style=" stroke:none;fill-rule:nonzero;fill:rgb(28.33252%,31.581116%,36.463928%);fill-opacity:1;"
       d="M 74.625 74.597656 L 71.089844 74.597656 C 70.921875 74.597656 70.613281 74.597656 70.253906 74.691406 L 59.34375 77.183594 C 57.703125 77.582031 56.558594 79.035156 56.558594 80.710938 C 56.558594 81.632812 56.90625 82.511719 57.542969 83.183594 C 57.550781 83.195312 57.5625 83.207031 57.574219 83.21875 C 59.074219 84.738281 59.722656 86.902344 59.273438 88.828125 C 58.984375 89.992188 59.300781 91.152344 60.152344 92.019531 C 60.773438 92.675781 61.65625 93.050781 62.574219 93.050781 C 62.828125 93.050781 63.085938 93.023438 63.351562 92.964844 C 63.761719 92.871094 64.1875 92.824219 64.613281 92.824219 C 66.179688 92.824219 67.742188 93.453125 68.902344 94.558594 C 69.582031 95.199219 70.472656 95.554688 71.40625 95.554688 C 73.050781 95.554688 74.457031 94.488281 74.898438 92.898438 C 74.90625 92.867188 74.914062 92.835938 74.921875 92.808594 L 78.136719 79.046875 C 78.398438 77.964844 78.15625 76.847656 77.46875 75.976562 C 76.78125 75.101562 75.742188 74.597656 74.625 74.597656 "
       id="path4802" />
    <path
       style=" stroke:none;fill-rule:nonzero;fill:rgb(28.33252%,31.581116%,36.463928%);fill-opacity:1;"
       d="M 43.789062 26.488281 C 43.496094 26.488281 43.195312 26.503906 42.890625 26.53125 C 38.242188 26.984375 34.601562 31.148438 34.601562 36.007812 L 34.601562 37.066406 L 14.320312 37.066406 C 12.632812 37.066406 11.183594 38.21875 10.792969 39.867188 C 10.402344 41.53125 11.160156 43.164062 12.699219 43.933594 C 13.945312 44.546875 15.34375 44.871094 16.742188 44.871094 L 44.53125 44.871094 C 44.605469 44.871094 44.683594 44.867188 44.757812 44.859375 C 49.460938 44.363281 53.007812 40.425781 53.007812 35.695312 C 53.007812 30.617188 48.871094 26.488281 43.789062 26.488281 "
       id="path4804" />
    <path
       style=" stroke:none;fill-rule:nonzero;fill:rgb(28.33252%,31.581116%,36.463928%);fill-opacity:1;"
       d="M 48.09375 48.703125 C 46.789062 48.015625 45.308594 47.652344 43.804688 47.652344 L 41.179688 47.652344 C 39.5 47.652344 38.101562 48.746094 37.699219 50.371094 C 37.292969 52.007812 38.023438 53.632812 39.492188 54.40625 C 40.789062 55.113281 42.28125 55.484375 43.804688 55.484375 L 46.425781 55.484375 C 48.105469 55.484375 49.503906 54.390625 49.910156 52.761719 C 50.316406 51.121094 49.582031 49.492188 48.09375 48.703125 "
       id="path4806" />
    <path
       style=" stroke:none;fill-rule:nonzero;fill:rgb(42.921448%,20.132446%,9.231567%);fill-opacity:1;"
       d="M 241.308594 49.199219 C 236.660156 52.054688 231.191406 53.699219 225.339844 53.699219 C 218.660156 53.699219 205.34375 45.660156 194.382812 43.253906 L 185.964844 42.289062 C 185.71875 43.90625 185.601562 47.003906 185.050781 48.5 C 184.765625 49.28125 186.800781 51.601562 187.609375 51.789062 C 193.246094 53.097656 197.667969 55.933594 201.496094 58.367188 C 207.269531 62.039062 214.09375 65.347656 226.34375 65.492188 C 230.492188 65.542969 236.378906 62.757812 239.316406 59.828125 C 241.824219 57.332031 244.980469 47.769531 241.308594 49.199219 "
       id="path4808" />
    <path
       style=" stroke:none;fill-rule:nonzero;fill:rgb(42.921448%,20.132446%,9.231567%);fill-opacity:1;"
       d="M 164.953125 58.183594 L 166.414062 58.003906 C 174.453125 58.003906 183.382812 50.035156 185.050781 42.472656 L 181.707031 42.679688 C 177.296875 42.679688 167.476562 51.222656 149.246094 56.261719 C 149.300781 56.386719 147.402344 56.945312 147.414062 57.089844 C 147.96875 64.625 154.441406 72.203125 161.664062 73.714844 C 162.320312 73.84375 164.878906 74.144531 165.136719 73.53125 L 168.058594 68.234375 C 168.285156 67.664062 167.980469 66.792969 167.511719 66.40625 C 165.546875 64.78125 165.683594 62.59375 165.683594 59.828125 L 164.039062 59.097656 C 164.039062 58.300781 164.171875 58.183594 164.953125 58.183594 "
       id="path4810" />
    <path
       style=" stroke:none;fill-rule:nonzero;fill:rgb(42.921448%,20.132446%,9.231567%);fill-opacity:1;"
       d="M 144.484375 57.582031 C 138.4375 58.78125 129.480469 59.863281 121.785156 59.863281 C 115.894531 59.863281 109.285156 59.761719 104.476562 59.464844 C 104.4375 61.085938 103.828125 64.359375 103.382812 65.859375 L 141.933594 66.953125 C 142.886719 66.953125 145.675781 64.941406 145.402344 64.03125 C 144.976562 62.640625 144.652344 59.070312 144.484375 57.582031 "
       id="path4812" />
    <path
       style=" stroke:none;fill-rule:nonzero;fill:rgb(42.921448%,20.132446%,9.231567%);fill-opacity:1;"
       d="M 53.761719 46.222656 C 53.746094 46.578125 50.867188 46.765625 51.128906 47.039062 C 52.824219 48.863281 54.910156 51.8125 55.464844 54.335938 C 55.566406 54.75 56.757812 55.808594 57.15625 55.992188 C 60.335938 57.445312 65.039062 59.933594 71.222656 61.65625 C 71.667969 61.769531 73.765625 61.925781 74.148438 61.65625 C 76.527344 59.875 78.429688 58.984375 81.539062 58.6875 C 82.378906 58.601562 82.003906 58.257812 82.003906 59.097656 L 81.820312 60.011719 L 82.003906 61.839844 C 82.003906 62.550781 81.621094 62.484375 80.90625 62.570312 C 78.257812 62.910156 74.757812 66.183594 73.234375 68.234375 C 72.523438 69.1875 74.792969 71.523438 75.976562 71.523438 L 88.003906 71.859375 C 93.90625 71.859375 100.886719 64.878906 100.886719 58.980469 L 98.691406 58.824219 C 67.300781 55.722656 61.160156 46.695312 53.761719 46.222656 "
       id="path4814" />
    <path
       style=" stroke:none;fill-rule:nonzero;fill:rgb(12.452698%,9.849548%,8.714294%);fill-opacity:1;"
       d="M 46.425781 53.292969 C 47.894531 53.292969 48.363281 51.328125 47.066406 50.644531 C 46.097656 50.128906 44.984375 49.84375 43.804688 49.84375 L 41.179688 49.84375 C 39.714844 49.84375 39.242188 51.796875 40.539062 52.480469 C 41.507812 53.007812 42.621094 53.292969 43.804688 53.292969 Z M 44.53125 42.679688 C 48.0625 42.308594 50.816406 39.328125 50.816406 35.695312 C 50.816406 31.605469 47.28125 28.316406 43.105469 28.714844 C 39.457031 29.070312 36.792969 32.347656 36.792969 36.007812 L 36.792969 37.863281 C 36.792969 38.632812 36.164062 39.257812 35.398438 39.257812 L 14.320312 39.257812 C 12.824219 39.257812 12.328125 41.296875 13.664062 41.964844 C 14.59375 42.421875 15.648438 42.679688 16.742188 42.679688 Z M 76.007812 78.527344 C 76.21875 77.644531 75.550781 76.789062 74.625 76.789062 L 71.089844 76.789062 C 70.992188 76.789062 70.878906 76.789062 70.777344 76.820312 L 59.863281 79.3125 C 59.222656 79.46875 58.75 80.023438 58.75 80.710938 C 58.75 81.078125 58.894531 81.421875 59.136719 81.679688 C 61.160156 83.730469 62.027344 86.664062 61.402344 89.359375 C 61.257812 89.929688 61.542969 90.3125 61.730469 90.5 C 61.902344 90.683594 62.285156 90.953125 62.867188 90.828125 C 65.519531 90.226562 68.382812 91.039062 70.40625 92.964844 C 70.664062 93.207031 71.019531 93.363281 71.40625 93.363281 C 72.074219 93.363281 72.617188 92.921875 72.785156 92.308594 Z M 185.472656 77.261719 C 185.570312 77.03125 185.683594 76.5625 185.34375 76.078125 C 183.761719 73.855469 183.433594 70.921875 184.414062 68.3125 C 184.472656 68.140625 184.515625 67.96875 184.515625 67.769531 C 184.515625 66.988281 183.875 66.347656 183.089844 66.347656 C 183.007812 66.347656 182.921875 66.359375 182.835938 66.375 L 174.785156 67.699219 C 173.8125 67.855469 173.003906 68.511719 172.617188 69.425781 L 170.792969 73.839844 C 170.425781 74.753906 170.535156 75.777344 171.105469 76.578125 L 175.851562 83.261719 C 176.109375 83.628906 176.523438 83.859375 177.007812 83.859375 C 177.589844 83.859375 178.089844 83.515625 178.316406 83.019531 C 179.429688 80.382812 181.808594 78.457031 184.53125 78.003906 C 185.113281 77.902344 185.371094 77.503906 185.472656 77.261719 Z M 237.023438 58.351562 C 240.019531 55.375 241.558594 51.382812 241.371094 47.167969 C 241 39.414062 234.144531 33.117188 226.097656 33.117188 L 191.414062 33.117188 C 183.945312 33.117188 176.648438 30.464844 170.90625 25.679688 C 156.53125 13.722656 138.304688 7.125 119.582031 7.125 C 106.015625 7.125 92.75 10.546875 80.964844 17.027344 C 79.984375 17.570312 80.027344 18.953125 80.980469 19.507812 C 82.234375 20.234375 83.429688 21.074219 84.527344 22.046875 C 85.167969 22.601562 85.210938 23.570312 84.613281 24.152344 L 81.578125 27.175781 C 81.066406 27.6875 80.238281 27.746094 79.683594 27.273438 C 76.960938 24.953125 73.542969 23.683594 69.921875 23.683594 L 63.496094 23.683594 C 62.542969 23.769531 61.601562 23.824219 60.648438 23.824219 C 60.648438 23.824219 60.632812 23.824219 60.617188 23.824219 L 60.277344 23.824219 C 58.582031 23.824219 56.957031 24.125 55.429688 24.636719 C 54.503906 24.964844 54.234375 26.121094 54.847656 26.890625 C 56.785156 29.3125 57.9375 32.363281 57.9375 35.695312 C 57.9375 39.441406 56.484375 42.835938 54.105469 45.355469 C 53.621094 45.882812 53.636719 46.695312 54.121094 47.210938 C 55.816406 49.03125 57.039062 51.300781 57.597656 53.820312 C 57.695312 54.234375 57.953125 54.605469 58.351562 54.789062 C 61.53125 56.242188 66.304688 58.152344 72.488281 59.878906 C 72.929688 59.992188 73.414062 59.890625 73.796875 59.621094 C 76.179688 57.839844 79.042969 56.699219 82.148438 56.398438 C 82.988281 56.316406 83.730469 56.984375 83.730469 57.824219 L 83.730469 62.128906 C 83.730469 62.839844 83.203125 63.4375 82.492188 63.523438 C 79.839844 63.867188 77.519531 65.304688 75.992188 67.359375 C 75.28125 68.3125 75.9375 69.664062 77.117188 69.664062 L 88.003906 69.664062 C 93.90625 69.664062 98.691406 64.878906 98.691406 58.980469 L 98.691406 57.625 C 98.691406 56.828125 99.332031 56.199219 100.117188 56.199219 L 104.390625 56.199219 C 105.175781 56.199219 105.816406 56.828125 105.816406 57.625 L 105.816406 58.980469 C 105.816406 60.746094 105.546875 62.457031 105.0625 64.082031 L 141.839844 64.066406 C 142.792969 64.066406 143.476562 63.152344 143.207031 62.242188 C 142.679688 60.53125 142.351562 58.722656 142.222656 56.871094 C 142.183594 56.058594 142.851562 55.386719 143.648438 55.386719 L 147.9375 55.386719 C 148.664062 55.386719 149.304688 55.945312 149.363281 56.65625 C 149.917969 64.195312 155.460938 70.363281 162.6875 71.875 C 163.34375 72.003906 163.996094 71.617188 164.253906 71.003906 L 165.519531 67.957031 C 165.75 67.386719 165.605469 66.730469 165.136719 66.347656 C 163.171875 64.722656 161.902344 62.257812 161.902344 59.492188 L 161.902344 57.355469 C 161.902344 56.558594 162.542969 55.929688 163.328125 55.929688 L 165.464844 55.929688 C 174.257812 55.929688 181.480469 49.132812 182.234375 40.511719 C 182.234375 40.453125 182.25 40.398438 182.25 40.339844 C 182.308594 39.613281 182.921875 39.03125 183.660156 39.03125 L 187.964844 39.03125 C 188.761719 39.03125 189.433594 39.699219 189.390625 40.511719 C 189.246094 42.878906 188.746094 45.144531 187.964844 47.28125 C 187.679688 48.0625 188.136719 48.933594 188.945312 49.132812 C 194.589844 50.429688 198.507812 52.921875 202.34375 55.359375 C 208.113281 59.023438 213.570312 62.5 225.824219 62.640625 C 229.972656 62.699219 234.089844 61.289062 237.023438 58.351562 Z M 248.480469 46.824219 C 248.765625 52.921875 246.601562 58.707031 242.355469 63.082031 C 237.980469 67.628906 231.738281 69.867188 225.425781 69.765625 C 211.347656 69.539062 204.535156 65.207031 198.507812 61.371094 C 194.121094 58.578125 190.230469 56.113281 183.644531 55.472656 C 183.21875 55.429688 182.792969 55.601562 182.492188 55.902344 C 182.234375 56.171875 181.964844 56.429688 181.695312 56.671875 C 180.652344 57.652344 181.453125 59.378906 182.863281 59.148438 L 183.191406 59.09375 C 185.925781 58.636719 188.578125 59.664062 190.285156 61.816406 C 192.125 64.121094 192.523438 67.316406 191.355469 70.148438 L 191.101562 70.777344 C 190.898438 71.261719 190.972656 71.703125 191.128906 71.933594 C 193.808594 75.722656 193.09375 81.035156 188.621094 84.144531 C 187.765625 84.726562 186.726562 84.855469 185.699219 85.027344 C 185.429688 85.082031 185.058594 85.339844 184.871094 85.8125 L 184.53125 86.609375 C 183.363281 89.457031 180.796875 91.425781 177.875 91.753906 C 177.574219 91.796875 177.292969 91.808594 177.007812 91.808594 C 174.585938 91.808594 172.359375 90.65625 170.921875 88.632812 L 164.636719 79.78125 C 164.394531 79.441406 164.023438 79.242188 163.625 79.199219 C 157.699219 78.570312 152.425781 75.792969 148.59375 71.648438 C 148.320312 71.363281 147.953125 71.191406 147.554688 71.191406 L 104.078125 71.203125 C 103.222656 71.203125 102.382812 71.191406 101.554688 71.175781 C 101.171875 71.160156 100.816406 71.320312 100.542969 71.589844 C 97.324219 74.796875 92.894531 76.789062 88.003906 76.789062 L 84.871094 76.789062 C 84.214844 76.789062 83.628906 77.230469 83.488281 77.886719 L 79.382812 95.359375 C 78.757812 98.035156 76.804688 100.101562 74.140625 100.859375 C 73.441406 101.070312 72.714844 101.171875 71.988281 101.171875 C 69.824219 101.171875 67.671875 100.289062 66.046875 98.664062 L 65.5625 98.179688 C 65.191406 97.808594 64.75 97.707031 64.492188 97.765625 C 59.949219 98.804688 55.316406 96.070312 54.148438 90.753906 C 53.933594 89.757812 54.21875 88.746094 54.460938 87.734375 C 54.519531 87.464844 54.417969 87.035156 54.046875 86.664062 L 53.4375 86.054688 C 51.269531 83.886719 50.429688 80.765625 51.242188 77.929688 C 52.011719 75.28125 54.078125 73.328125 56.785156 72.714844 L 66.347656 70.519531 C 66.886719 70.390625 67.300781 69.964844 67.414062 69.425781 C 67.558594 68.796875 67.742188 68.171875 67.941406 67.585938 C 68.214844 66.800781 67.785156 65.976562 67 65.71875 C 61.144531 63.894531 56.714844 61.972656 53.847656 60.5625 C 53.648438 60.460938 53.449219 60.417969 53.238281 60.417969 L 43.804688 60.417969 C 37.589844 60.417969 32.320312 56.386719 30.421875 50.8125 C 30.238281 50.230469 29.710938 49.816406 29.097656 49.816406 L 16.742188 49.800781 C 8.976562 49.800781 2.652344 43.476562 2.652344 35.695312 L 2.652344 33.558594 C 2.652344 32.773438 3.277344 32.132812 4.074219 32.132812 L 29.085938 32.132812 C 29.695312 32.132812 30.222656 31.71875 30.421875 31.136719 C 32.320312 25.578125 37.605469 21.558594 43.804688 21.558594 C 44.417969 21.558594 45 21.601562 45.585938 21.6875 C 45.96875 21.730469 46.355469 21.632812 46.652344 21.390625 C 50.414062 18.453125 55.144531 16.699219 60.277344 16.699219 L 60.617188 16.699219 C 60.632812 16.699219 60.648438 16.699219 60.648438 16.699219 C 65.234375 16.699219 69.851562 15.363281 74.011719 12.8125 C 87.691406 4.433594 103.449219 0 119.582031 0 C 139.972656 0 159.820312 7.183594 175.453125 20.207031 C 179.941406 23.941406 185.597656 25.992188 191.414062 25.992188 L 226.097656 25.992188 C 238.09375 25.992188 247.925781 35.140625 248.480469 46.824219 "
       id="path4816" />
    <path
       style=" stroke:none;fill-rule:nonzero;fill:rgb(12.452698%,9.849548%,8.714294%);fill-opacity:1;"
       d="M 68.519531 32.367188 C 66.679688 32.367188 65.1875 33.859375 65.1875 35.699219 C 65.1875 37.542969 66.679688 39.035156 68.519531 39.035156 C 70.363281 39.035156 71.855469 37.542969 71.855469 35.699219 C 71.855469 33.859375 70.363281 32.367188 68.519531 32.367188 "
       id="path4818" />
  </g>
</svg>
