<svg xmlns="http://www.w3.org/2000/svg" xml:space="preserve" id="Warstwa_1" x="0" y="0" style="enable-background:new 0 0 169.9 70.2" version="1.1" viewBox="0 0 169.9 70.2"><style id="style903" type="text/css">.st1{fill:#050713}</style><g id="GraphQL-Tools_x2F_-Scalars"><g id="Libraries-Logos-_x2F_-Scalars" transform="translate(6 20)"><path id="Fill-2" d="M32.4 42.9c0 .3 0 .5-.1.7v.1c-.4 2.3-2.4 4-4.8 4-2.1 0-4-1.4-4.6-3.3L2.7 32.8c-2-1.2-3.2-3.3-3.2-5.6V7.4c.7.3 1.5.4 2.3.4.7 0 1.5-.1 2.2-.3v19.7c0 .7.4 1.3 1 1.7l18.9 10.9c.9-1 2.2-1.7 3.7-1.7 1.6 0 3 .8 3.9 2v.1c.1.1.1.2.2.3 0 0 0 .1.1.1 0 .1.1.2.1.3 0 0 0 .1.1.1 0 .1.1.2.1.3 0 .1 0 .1.1.2 0 .1.1.2.1.2 0 .1 0 .2.1.2v1zM57.3.3c0 1.5-.6 2.8-1.7 3.7v23.1c0 2.3-1.2 4.5-3.2 5.6L35 42.8c0-1.6-.6-3.2-1.5-4.4l16.6-9.6c.6-.3 1-1 1-1.7V5c-2-.6-3.5-2.5-3.5-4.7 0-1.1.4-2.1 1-2.9.1-.1.2-.3.4-.4.3-.3.6-.5.9-.7 0 0 .1 0 .1-.1s.2-.2.3-.3c0 0 .1 0 .1-.1.2-.1.3-.1.5-.2.5-.1 1-.2 1.5-.2 2.7.1 4.9 2.2 4.9 4.9zM-.5 4.6C-2 3.7-3 2.2-3 .3c0-2.7 2.2-4.9 4.9-4.9.7 0 1.4.2 2 .4L24.3-16c1-.6 2.1-.9 3.2-.9s2.2.3 3.2.9L48.3-5.9C47-5 46-3.7 45.4-2.3l-16.9-9.8c-.3-.2-.6-.3-1-.3-.3 0-.7.1-1 .3L6.6-.5c0 .3.1.6.1.8 0 2.1-1.3 3.9-3.2 4.6-.2.1-.3.1-.5.2h-.1c-.1 0-.3.1-.4.1H1.1C1 5.1.8 5.1.7 5.1H.6c-.4-.2-.8-.3-1.1-.5z" style="fill:#03a9f4;fill-opacity:1;fill-rule:evenodd;clip-rule:evenodd"/><path id="path982" d="M4.619 13.98a1.117 1.117 0 0 0-.094 1.668l1.593 1.604c.401.4 1.03.445 1.48.104.278-.208.639-.46 1.065-.728L24.12 32.086c-.263.42-.51.797-.723 1.07a1.12 1.12 0 0 0 .104 1.48l1.604 1.593a1.113 1.113 0 0 0 1.668-.094c1.648-2.104 5.118-7.652 4.395-16.166a36.447 36.447 0 0 1-4.648-1.143c.08.534.1 1.03.139 1.544l-6.316-6.316c1.95.159 4.088.564 6.44 1.351 12.75 4.287 20.912-.747 23.57-2.83.525-.417.57-1.194.094-1.669L48.85 9.297c-.401-.4-1.03-.445-1.48-.104-.278.208-.639.46-1.065.728L30.842-5.542c.268-.426.515-.782.728-1.064a1.12 1.12 0 0 0-.104-1.48L29.862-9.68a1.122 1.122 0 0 0-1.673.09c-1.866 2.38-6.068 9.166-3.87 19.7-10.528-2.194-17.32 2.004-19.7 3.87Zm24.67-2.505c-.565-1.92-.892-3.702-1.025-5.34l6.36 6.36c-1.633-.129-3.42-.45-5.336-1.02zm12.606.372c-.802.227-1.678.41-2.623.544L28.377 1.497c.13-.95.312-1.827.545-2.624zm-28.817 2.86c.802-.227 1.678-.41 2.623-.544l10.86 10.86c-.129.95-.307 1.831-.535 2.633z" style="stroke-width:.07;fill:#03a9f4;fill-opacity:1"/></g><path id="GraphQL" d="M74.9 24.2H77v.2c-.4.6-1.1 1-1.8 1-1.3 0-2.3-1-2.3-2.3s1-2.3 2.3-2.3c.7 0 1.4.3 1.8.9l1.8-1.2c-.8-1.1-2.2-1.8-3.6-1.8-2.5 0-4.6 2-4.6 4.5s2.1 4.5 4.6 4.5c.9 0 1.7-.3 2.2-1v.8h1.7v-5H75v1.7zm7.8-5.4v8.6h2.2v-2.3H86l1.6 2.3h2.6l-1.9-2.6c1.2-.5 1.7-1.6 1.7-2.8 0-1.7-1-3.1-3.2-3.1h-4.1zm4 2c.9 0 1.2.5 1.2 1.2 0 .6-.3 1.1-1.2 1.1h-1.9v-2.3h1.9zm9.5-2-3.5 8.6h2.4l.5-1.3H99l.5 1.3h2.4l-3.5-8.6h-2.2zm2.1 5.4h-1.9l.9-2.5 1 2.5zm6.7 3.2h2.2v-1.9h1.6c2.3 0 3.4-1.5 3.4-3.3 0-1.7-1.1-3.3-3.4-3.3H105v8.5zm3.7-6.6c.9 0 1.3.6 1.3 1.3 0 .8-.3 1.3-1.3 1.3h-1.5v-2.6h1.5zm12.5-2v3.3h-3.5v-3.3h-2.2v8.6h2.2v-3.2h3.5v3.2h2.2v-8.6h-2.2zm5.6 4.3c0 2.2 1.7 4 3.8 4.4 1.5.5 2.5 2 4.2 2 .8 0 1.8-.3 2.4-1.2l-1.7-1.3c-.2.4-.6.4-.7.4-.4 0-.7-.2-1.1-.5 1.3-.8 2.2-2.2 2.2-3.8 0-2.5-2-4.5-4.6-4.5-2.4.1-4.5 2.1-4.5 4.5zm2.3 0c0-1.3 1-2.3 2.3-2.3 1.3 0 2.3 1 2.3 2.3s-1 2.3-2.3 2.3c-1.3.1-2.3-1-2.3-2.3zm10.3 4.3v-8.6h2.2v6.5h4.1v2.1h-6.3z" style="fill:#6d7a99"/><g id="text847" aria-label="HELIX" style="font-style:normal;font-variant:normal;font-weight:700;font-stretch:normal;font-size:17.3333px;line-height:1.25;font-family:&quot;Lulo Clean W01 One&quot;;-inkscape-font-specification:&quot;Lulo Clean W01 One, Bold&quot;;font-variant-ligatures:normal;font-variant-caps:normal;font-variant-numeric:normal;font-feature-settings:normal;text-align:start;letter-spacing:0;word-spacing:0;writing-mode:lr-tb;text-anchor:start;fill:#000;fill-opacity:1;stroke:none"><path id="path399" d="M83.15 37.324v13.52h-3.466v-5.027h-5.512v5.027h-3.45v-13.52h3.45v5.252h5.512v-5.252z" style="font-style:normal;font-variant:normal;font-weight:700;font-stretch:normal;font-size:17.3333px;font-family:&quot;Lulo Clean W01 One&quot;;-inkscape-font-specification:&quot;Lulo Clean W01 One, Bold&quot;;font-variant-ligatures:normal;font-variant-caps:normal;font-variant-numeric:normal;font-feature-settings:normal;text-align:start;writing-mode:lr-tb;text-anchor:start"/><path id="path401" d="M89.207 37.324h10.382v3.362h-6.916v1.942h5.686v3.137h-5.686v1.733h6.916v3.346H89.207Z" style="font-style:normal;font-variant:normal;font-weight:700;font-stretch:normal;font-size:17.3333px;font-family:&quot;Lulo Clean W01 One&quot;;-inkscape-font-specification:&quot;Lulo Clean W01 One, Bold&quot;;font-variant-ligatures:normal;font-variant-caps:normal;font-variant-numeric:normal;font-feature-settings:normal;text-align:start;writing-mode:lr-tb;text-anchor:start"/><path id="path403" d="M105.254 37.324h3.449v10.174h6.483v3.346h-9.932z" style="font-style:normal;font-variant:normal;font-weight:700;font-stretch:normal;font-size:17.3333px;font-family:&quot;Lulo Clean W01 One&quot;;-inkscape-font-specification:&quot;Lulo Clean W01 One, Bold&quot;;font-variant-ligatures:normal;font-variant-caps:normal;font-variant-numeric:normal;font-feature-settings:normal;text-align:start;writing-mode:lr-tb;text-anchor:start"/><path id="path405" d="M123.92 37.324v13.52h-3.466v-13.52z" style="font-style:normal;font-variant:normal;font-weight:700;font-stretch:normal;font-size:17.3333px;font-family:&quot;Lulo Clean W01 One&quot;;-inkscape-font-specification:&quot;Lulo Clean W01 One, Bold&quot;;font-variant-ligatures:normal;font-variant-caps:normal;font-variant-numeric:normal;font-feature-settings:normal;text-align:start;writing-mode:lr-tb;text-anchor:start"/><path id="path407" d="m142.238 37.324-4.541 6.725 4.645 6.795h-4.212l-2.513-3.71-2.496 3.71h-4.212l4.645-6.795-4.541-6.725h4.09l2.514 3.692 2.53-3.692z" style="font-style:normal;font-variant:normal;font-weight:700;font-stretch:normal;font-size:17.3333px;font-family:&quot;Lulo Clean W01 One&quot;;-inkscape-font-specification:&quot;Lulo Clean W01 One, Bold&quot;;font-variant-ligatures:normal;font-variant-caps:normal;font-variant-numeric:normal;font-feature-settings:normal;text-align:start;writing-mode:lr-tb;text-anchor:start"/></g></g></svg>