<?xml version="1.0" encoding="UTF-8" standalone="no"?>
<!-- Created with Inkscape (http://www.inkscape.org/) -->

<svg
   version="1.1"
   id="svg1325"
   xml:space="preserve"
   width="364.97595"
   height="182.83415"
   viewBox="0 0 364.97596 182.83416"
   sodipodi:docname="graphql-glooy.svg"
   inkscape:version="1.1 (c4e8f9e, 2021-05-24)"
   xmlns:inkscape="http://www.inkscape.org/namespaces/inkscape"
   xmlns:sodipodi="http://sodipodi.sourceforge.net/DTD/sodipodi-0.dtd"
   xmlns="http://www.w3.org/2000/svg"
   xmlns:svg="http://www.w3.org/2000/svg"><defs
     id="defs1329"><clipPath
       clipPathUnits="userSpaceOnUse"
       id="clipPath1339"><path
         d="M 0,1000 H 1000 V 0 H 0 Z"
         id="path1337" /></clipPath><clipPath
       clipPathUnits="userSpaceOnUse"
       id="clipPath1375"><path
         d="m 194.149,499.789 h 56.885 v -15.246 h -56.885 z"
         id="path1373" /></clipPath></defs><sodipodi:namedview
     id="namedview1327"
     pagecolor="#ffffff"
     bordercolor="#666666"
     borderopacity="1.0"
     inkscape:pageshadow="2"
     inkscape:pageopacity="0.0"
     inkscape:pagecheckerboard="0"
     showgrid="false"
     inkscape:zoom="0.56475003"
     inkscape:cx="555.9982"
     inkscape:cy="90.305439"
     inkscape:window-width="1381"
     inkscape:window-height="982"
     inkscape:window-x="1853"
     inkscape:window-y="45"
     inkscape:window-maximized="0"
     inkscape:current-layer="g1331" /><g
     id="g1331"
     inkscape:groupmode="layer"
     inkscape:label="new glooys 2 GraphQL"
     transform="matrix(1.3333333,0,0,-1.3333333,-111.58369,758.08427)"><g
       id="g1345"
       transform="translate(318.9775,542.7305)"><path
         d="M 0,0 C 3.068,0 4.997,-2.09 4.308,-4.664 3.616,-7.238 0.569,-9.328 -2.5,-9.328 h -29.573 l -39.113,-30.975 c -1.39,-1.1 -3.117,-1.666 -4.701,-1.666 l -0.002,-0.01 h -90.394 c -3.069,0 -4.997,2.088 -4.306,4.664 0.69,2.578 3.737,4.666 6.807,4.666 h 87.807 l 38.842,30.758 C -35.813,-0.744 -33.99,0 -32.158,0 Z"
         style="fill:#df0296;fill-opacity:1;fill-rule:nonzero;stroke:none"
         id="path1347" /></g><g
       id="g1349"
       transform="translate(328.71,440.7676)"><path
         d="M 0,0 C 3.069,0 4.998,-2.088 4.309,-4.666 3.617,-7.242 0.569,-9.33 -2.499,-9.33 h -69.214 c -1.831,0 -3.256,0.744 -3.96,1.891 l -22.358,30.755 h -50.959 c -3.068,0 -4.997,2.092 -4.307,4.666 0.691,2.577 3.738,4.666 6.806,4.666 h 53.545 l -0.002,-0.007 c 1.585,0 3.006,-0.569 3.807,-1.668 L -66.627,0 Z"
         style="fill:#df0296;fill-opacity:1;fill-rule:nonzero;stroke:none"
         id="path1351" /></g><g
       id="g1353"
       transform="translate(127.3193,482.4199)"><path
         d="m 0,0 c -3.067,0 -4.996,2.086 -4.307,4.664 0.692,2.578 3.74,4.664 6.807,4.664 h 213.566 c 3.07,0 4.998,-2.086 4.307,-4.664 C 219.682,2.086 216.636,0 213.567,0 Z"
         style="fill:#df0296;fill-opacity:1;fill-rule:nonzero;stroke:none"
         id="path1355" /></g><g
       id="g1357"
       transform="translate(88.1338,482.4199)"><path
         d="m 0,0 c -3.069,0 -4.996,2.086 -4.306,4.664 0.69,2.578 3.739,4.664 6.808,4.664 h 16.895 c 3.069,0 4.997,-2.086 4.306,-4.664 C 23.014,2.086 19.966,0 16.897,0 Z"
         style="fill:#df0296;fill-opacity:1;fill-rule:nonzero;stroke:none"
         id="path1359" /></g><g
       id="g1361"
       transform="translate(333.5771,533.4023)"><path
         d="m 0,0 c -3.069,0 -4.998,2.09 -4.307,4.664 0.69,2.574 3.739,4.664 6.808,4.664 h 16.896 c 3.068,0 4.997,-2.09 4.305,-4.664 C 23.013,2.09 19.964,0 16.896,0 Z"
         style="fill:#df0296;fill-opacity:1;fill-rule:nonzero;stroke:none"
         id="path1363" /></g><g
       id="g1365"
       transform="translate(138.3896,464.084)"><path
         d="m 0,0 c -3.068,0 -4.997,2.092 -4.308,4.666 0.692,2.576 3.74,4.666 6.808,4.666 h 16.896 c 3.069,0 4.998,-2.09 4.307,-4.666 C 23.012,2.092 19.965,0 16.896,0 Z"
         style="fill:#df0296;fill-opacity:1;fill-rule:nonzero;stroke:none"
         id="path1367" /></g><g
       id="g1369"><g
         id="g1371" /><g
         id="g1383"><g
           clip-path="url(#clipPath1375)"
           opacity="0.300003"
           id="g1381"><g
             transform="translate(222.5918,499.7886)"
             id="g1379"><path
               d="m 0,0 c 15.708,0 28.442,-3.414 28.442,-7.621 0,-4.211 -12.734,-7.625 -28.442,-7.625 -15.708,0 -28.442,3.414 -28.442,7.625 C -28.442,-3.414 -15.708,0 0,0"
               style="fill:#003c6a;fill-opacity:1;fill-rule:evenodd;stroke:none"
               id="path1377" /></g></g></g></g><g
       id="g1385"
       transform="translate(200.6553,558.1992)"><path
         d="M 0,0 C 2.97,-1.234 4.903,-2.742 7.302,-5.236 L 4.001,-7.744 c -0.877,0.912 -7.22,0.576 -6.279,1.308 1.876,1.467 0.699,2.747 -0.999,3.452 -3.202,1.873 -4.196,-6.629 -12.328,-4.184 -5.439,1.641 -7.861,6.717 -6.198,11.484 1.662,4.77 7.395,7.227 12.803,5.491 C -5.755,8.766 -4.178,6.182 -3.939,3.32 -3.697,0.391 -3.406,1.416 0,0"
         style="fill:#54acd5;fill-opacity:1;fill-rule:evenodd;stroke:none"
         id="path1387" /></g><g
       id="g1389"
       transform="translate(247.7041,526.2871)"><path
         d="m 0,0 c -1.676,2.441 6.736,11.068 11.595,17.566 4.857,6.496 8.816,5.483 10.92,3.739 C 24.618,19.561 24.836,14.439 20.083,9.609 15.331,4.781 1.675,-2.443 0,0"
         style="fill:#54acd5;fill-opacity:1;fill-rule:evenodd;stroke:none"
         id="path1391" /></g><g
       id="g1393"
       transform="translate(208.1309,490.7578)"><path
         d="M 0,0 C 7.624,0 9.073,4.975 14.112,5.012 19.153,5.051 21.342,0 28.696,0 c 11.886,0 19.625,25.525 19.625,39.498 0,17.898 -15.176,29.945 -33.9,29.945 -18.723,0 -33.9,-12.047 -33.9,-29.945 C -19.479,18.314 -10.434,0 0,0"
         style="fill:#54acd5;fill-opacity:1;fill-rule:evenodd;stroke:none"
         id="path1395" /></g><g
       id="g1397"
       transform="translate(257.6172,537.5977)"><path
         d="M 0,0 C -0.587,1.082 2.025,2.508 4.368,5.623 6.711,8.736 8.645,9.322 9.23,8.24 9.817,7.158 8.778,4.996 6.358,2.945 3.939,0.895 0.585,-1.082 0,0"
         style="fill:#ffffff;fill-opacity:1;fill-rule:evenodd;stroke:none"
         id="path1399" /></g><g
       id="g1401"
       transform="translate(189.9951,566.9863)"><path
         d="m 0,0 c 2.033,0 3.682,-1.648 3.682,-3.684 0,-3.703 -7.341,-3.89 -7.341,0.538 C -3.659,-1.113 -2.033,0 0,0"
         style="fill:#ffffff;fill-opacity:1;fill-rule:evenodd;stroke:none"
         id="path1403" /></g><g
       id="g1405"
       transform="translate(197.5586,530.3906)"><path
         d="m 0,0 c 0.945,-2.805 -9.504,-8.813 -15.95,-13.736 -6.446,-4.925 -9.978,-2.866 -11.526,-0.616 -1.547,2.252 -0.358,7.239 5.531,10.588 5.888,3.35 21,6.571 21.945,3.764"
         style="fill:#54acd5;fill-opacity:1;fill-rule:evenodd;stroke:none"
         id="path1407" /></g><g
       id="g1409"
       transform="translate(186.0176,527.3027)"><path
         d="m 0,0 c 0.888,-0.887 -2.797,-0.244 -8.273,-4.893 -1.955,-1.66 -2.656,-2.711 -3.623,-2.066 -0.416,0.273 -1.237,1.275 1.536,3.553 C -7.59,-1.131 -0.981,0.98 0,0 m -12.067,-7.809 c 0.452,-0.533 0.376,-1.455 -0.168,-2.064 -0.545,-0.607 -1.353,-0.674 -1.805,-0.143 -0.451,0.53 -0.376,1.455 0.169,2.063 0.544,0.611 1.352,0.676 1.804,0.144"
         style="fill:#ffffff;fill-opacity:1;fill-rule:evenodd;stroke:none"
         id="path1411" /></g><g
       id="g1413"
       transform="translate(224.002,558.8594)"><path
         d="m 0,0 c 16.687,0 30.215,-13.529 30.215,-30.217 0,-30.396 -60.24,-31.937 -60.24,4.385 C -30.025,-9.143 -16.687,0 0,0"
         style="fill:#5bbae0;fill-opacity:1;fill-rule:evenodd;stroke:none"
         id="path1415" /></g><g
       id="g1417"
       transform="translate(224.1201,524.7676)"><path
         d="m 0,0 c 5.114,0.309 6.889,2.219 9.229,0.373 2.338,-1.85 -1.476,-8.65 -8.747,-9.09 -7.271,-0.439 -11.747,5.791 -9.777,7.969 C -7.325,1.43 -5.114,-0.309 0,0"
         style="fill:#003c6a;fill-opacity:1;fill-rule:evenodd;stroke:none"
         id="path1419" /></g><g
       id="g1421"
       transform="translate(229.3662,518.5742)"><path
         d="m 0,0 c -1.266,-0.891 -2.899,-1.551 -4.828,-1.666 -1.995,-0.121 -3.736,0.367 -5.11,1.139 0.016,1.558 2.742,2.56 4.881,1.658 C -2.937,2.291 -0.142,1.582 0,0"
         style="fill:#54acd5;fill-opacity:1;fill-rule:evenodd;stroke:none"
         id="path1423" /></g><g
       id="g1425"
       transform="translate(224.1533,524.1777)"><path
         d="M 0,0 C 3.35,0.203 5.148,1.039 6.664,1.127 6.667,1.1 6.669,1.074 6.671,1.047 6.742,-0.121 5.923,-1.119 4.841,-1.186 4.49,-1.207 4.157,-1.127 3.861,-0.971 3.545,-1.687 2.833,-2.211 1.979,-2.262 1.222,-2.307 0.533,-1.973 0.107,-1.432 -0.25,-2.021 -0.895,-2.436 -1.649,-2.48 -2.521,-2.533 -3.303,-2.084 -3.697,-1.389 -3.983,-1.604 -4.326,-1.74 -4.701,-1.762 -5.782,-1.826 -6.717,-0.934 -6.787,0.234 -6.789,0.27 -6.791,0.303 -6.791,0.338 -5.274,0.396 -3.35,-0.201 0,0"
         style="fill:#ffffff;fill-opacity:1;fill-rule:evenodd;stroke:none"
         id="path1427" /></g><g
       id="g1429"
       transform="translate(223.043,549.748)"><path
         d="M 0,0 C -5.903,-1.209 -7.738,4.484 -0.274,6.287 9.076,8.545 22.353,2.449 26.334,-5.943 27.395,-8.18 25.737,-9.018 23.928,-6.777 18.913,-0.574 9.902,2.029 0,0 m 26.759,-9.275 c 0.661,0.113 1.389,-0.43 1.628,-1.207 0.238,-0.784 -0.104,-1.506 -0.764,-1.618 -0.662,-0.113 -1.39,0.428 -1.629,1.211 -0.238,0.78 0.105,1.502 0.765,1.614"
         style="fill:#eef7f8;fill-opacity:1;fill-rule:evenodd;stroke:none"
         id="path1431" /></g><g
       id="g1433"
       transform="translate(239.543,537.8086)"><path
         d="M 0,0 C 2.966,0.094 5.446,-2.234 5.539,-5.203 5.631,-8.17 3.3,-10.65 0.334,-10.742 -2.632,-10.834 -5.112,-8.504 -5.205,-5.537 -5.299,-2.57 -2.968,-0.09 0,0"
         style="fill:#003c6a;fill-opacity:1;fill-rule:evenodd;stroke:none"
         id="path1435" /></g><g
       id="g1437"
       transform="translate(242.0312,536.1641)"><path
         d="M 0,0 C 0.826,0.027 1.519,-0.625 1.544,-1.451 1.57,-2.279 0.921,-2.971 0.093,-2.996 -0.735,-3.021 -1.426,-2.373 -1.453,-1.545 -1.479,-0.717 -0.828,-0.025 0,0"
         style="fill:#eef7f8;fill-opacity:1;fill-rule:evenodd;stroke:none"
         id="path1439" /></g><g
       id="g1441"
       transform="translate(207.2471,537.4453)"><path
         d="M 0,0 C 2.968,0.092 5.448,-2.238 5.54,-5.205 5.632,-8.172 3.302,-10.65 0.335,-10.744 -2.631,-10.836 -5.111,-8.506 -5.203,-5.537 -5.296,-2.572 -2.966,-0.092 0,0"
         style="fill:#003c6a;fill-opacity:1;fill-rule:evenodd;stroke:none"
         id="path1443" /></g><g
       id="g1445"
       transform="translate(209.7363,535.8008)"><path
         d="M 0,0 C 0.827,0.025 1.519,-0.625 1.545,-1.451 1.57,-2.279 0.921,-2.971 0.093,-2.998 -0.734,-3.023 -1.426,-2.373 -1.452,-1.545 -1.478,-0.717 -0.828,-0.025 0,0"
         style="fill:#eef7f8;fill-opacity:1;fill-rule:evenodd;stroke:none"
         id="path1447" /></g></g></svg>
