<?xml version="1.0" encoding="UTF-8" standalone="no"?>
<!-- Created with Inkscape (http://www.inkscape.org/) -->

<svg
   version="1.1"
   id="svg1859"
   xml:space="preserve"
   width="912.979"
   height="182.40942"
   viewBox="0 0 912.97904 182.40943"
   sodipodi:docname="mesh-full.svg"
   inkscape:version="1.1 (c4e8f9e, 2021-05-24)"
   xmlns:inkscape="http://www.inkscape.org/namespaces/inkscape"
   xmlns:sodipodi="http://sodipodi.sourceforge.net/DTD/sodipodi-0.dtd"
   xmlns="http://www.w3.org/2000/svg"
   xmlns:svg="http://www.w3.org/2000/svg"><defs
     id="defs1863"><clipPath
       clipPathUnits="userSpaceOnUse"
       id="clipPath1873"><path
         d="M 0,1000 H 1000 V 0 H 0 Z"
         id="path1871" /></clipPath><clipPath
       clipPathUnits="userSpaceOnUse"
       id="clipPath1925"><path
         d="m 269.972,499.629 h 56.885 v -15.245 h -56.885 z"
         id="path1923" /></clipPath></defs><sodipodi:namedview
     id="namedview1861"
     pagecolor="#ffffff"
     bordercolor="#666666"
     borderopacity="1.0"
     inkscape:pageshadow="2"
     inkscape:pageopacity="0.0"
     inkscape:pagecheckerboard="0"
     showgrid="false"
     inkscape:zoom="0.56475003"
     inkscape:cx="455.95393"
     inkscape:cy="90.305439"
     inkscape:window-width="1364"
     inkscape:window-height="982"
     inkscape:window-x="1849"
     inkscape:window-y="33"
     inkscape:window-maximized="0"
     inkscape:current-layer="g1865" /><g
     id="g1865"
     inkscape:groupmode="layer"
     inkscape:label="new glooys 2 Mesh"
     transform="matrix(1.3333333,0,0,-1.3333333,-210.17696,757.87115)"><g
       id="g1867"><g
         id="g1869"
         clip-path="url(#clipPath1873)"><g
           id="g1875"
           transform="translate(515.29,501.1421)"><path
             d="M 0,0 C 1.523,0 2.782,-0.514 3.779,-1.539 4.774,-2.564 5.272,-3.837 5.272,-5.36 v -18.63 c 0,-2.05 -0.907,-3.633 -2.724,-4.746 -5.74,-3.574 -12.038,-5.359 -18.892,-5.359 -5.799,0 -11.159,1.421 -16.081,4.262 -4.92,2.841 -8.817,6.677 -11.687,11.511 -2.87,4.832 -4.306,10.12 -4.306,15.86 0,5.743 1.436,11.029 4.306,15.862 2.87,4.833 6.767,8.669 11.687,11.511 4.922,2.843 10.282,4.264 16.081,4.264 5.8,0 10.838,-1.174 15.115,-3.517 0.877,-0.468 1.537,-1.083 1.977,-1.844 0.439,-0.762 0.659,-1.583 0.659,-2.462 0,-1.462 -0.484,-2.737 -1.451,-3.822 -0.966,-1.084 -2.151,-1.625 -3.559,-1.625 -0.878,0 -1.845,0.234 -2.899,0.703 -3.164,1.348 -6.444,2.021 -9.842,2.021 -3.749,0 -7.206,-0.953 -10.369,-2.856 -3.163,-1.903 -5.668,-4.466 -7.513,-7.69 -1.845,-3.222 -2.768,-6.736 -2.768,-10.545 0,-3.807 0.923,-7.323 2.768,-10.544 1.845,-3.222 4.35,-5.786 7.513,-7.689 3.163,-1.903 6.62,-2.855 10.369,-2.855 1.64,0 3.398,0.146 5.273,0.437 1.875,0.295 3.514,0.674 4.921,1.145 v 11.422 h -8.262 c -1.522,0 -2.796,0.498 -3.82,1.494 -1.026,0.996 -1.539,2.257 -1.539,3.781 0,1.52 0.513,2.781 1.539,3.776 1.024,0.996 2.298,1.495 3.82,1.495 z m 311.437,12.037 c 5.271,0 9.196,-1.653 11.772,-4.964 2.58,-3.309 3.868,-7.572 3.868,-12.785 V -30.58 c 0,-0.761 -0.251,-1.392 -0.749,-1.89 -0.497,-0.498 -1.125,-0.747 -1.886,-0.747 -0.762,0 -1.393,0.249 -1.89,0.747 -0.5,0.498 -0.748,1.129 -0.748,1.89 v 24.868 c 0,3.807 -0.907,6.899 -2.725,9.27 -1.815,2.374 -4.656,3.559 -8.522,3.559 -2.461,0 -4.79,-0.585 -6.988,-1.756 -2.194,-1.174 -3.968,-2.739 -5.317,-4.702 -1.347,-1.962 -2.021,-4.086 -2.021,-6.371 V -30.58 c 0,-0.761 -0.248,-1.392 -0.745,-1.89 -0.501,-0.498 -1.129,-0.747 -1.889,-0.747 -0.76,0 -1.394,0.249 -1.891,0.747 -0.498,0.498 -0.746,1.129 -0.746,1.89 v 59.755 c 0,0.761 0.248,1.391 0.746,1.888 0.497,0.498 1.131,0.747 1.891,0.747 0.76,0 1.388,-0.249 1.889,-0.747 0.497,-0.497 0.745,-1.127 0.745,-1.888 V 3.426 c 1.583,2.52 3.781,4.586 6.593,6.196 2.813,1.612 5.683,2.415 8.613,2.415 m -61.16,-38.136 c -0.467,0.763 -0.702,1.407 -0.702,1.933 0,0.762 0.379,1.348 1.141,1.756 0.352,0.354 0.82,0.53 1.405,0.53 0.704,0 1.349,-0.294 1.936,-0.879 3.457,-4.571 8.054,-6.856 13.794,-6.856 2.815,0 5.257,0.658 7.337,1.977 2.08,1.319 3.12,3.237 3.12,5.758 0,2.46 -0.965,4.304 -2.898,5.535 -1.932,1.23 -4.629,2.285 -8.086,3.164 -4.862,1.23 -8.669,2.825 -11.423,4.789 -2.753,1.962 -4.13,4.848 -4.13,8.655 0,2.402 0.674,4.555 2.021,6.459 1.348,1.904 3.179,3.382 5.491,4.438 2.315,1.053 4.937,1.58 7.867,1.58 2.519,0 5.052,-0.483 7.6,-1.447 2.548,-0.968 4.731,-2.506 6.547,-4.615 0.527,-0.411 0.791,-0.997 0.791,-1.758 0,-0.703 -0.294,-1.318 -0.88,-1.845 -0.409,-0.351 -0.937,-0.526 -1.582,-0.526 -0.586,0 -1.112,0.232 -1.579,0.703 -1.407,1.58 -3.077,2.781 -5.011,3.6 -1.932,0.821 -4.012,1.231 -6.238,1.231 -2.754,0 -5.111,-0.644 -7.074,-1.933 -1.964,-1.289 -2.944,-3.222 -2.944,-5.8 0.119,-2.342 1.186,-4.131 3.208,-5.359 2.022,-1.231 4.994,-2.342 8.918,-3.34 3.048,-0.762 5.566,-1.609 7.558,-2.549 1.991,-0.936 3.616,-2.256 4.878,-3.953 1.26,-1.699 1.887,-3.955 1.887,-6.768 0,-3.806 -1.524,-6.838 -4.568,-9.093 -3.047,-2.256 -6.824,-3.383 -11.337,-3.383 -7.145,0 -12.829,2.666 -17.047,7.996 m -5.269,17.927 c 0,-0.703 -0.264,-1.304 -0.791,-1.802 -0.526,-0.498 -1.141,-0.747 -1.844,-0.747 h -33.218 c 0,-3.515 0.72,-6.664 2.153,-9.446 1.435,-2.784 3.486,-4.98 6.151,-6.59 2.665,-1.612 5.814,-2.416 9.446,-2.416 2.813,0 5.331,0.585 7.558,1.757 2.227,1.17 4.013,2.665 5.359,4.48 0.644,0.526 1.263,0.792 1.847,0.792 0.586,0 1.112,-0.236 1.581,-0.704 0.47,-0.468 0.702,-0.995 0.702,-1.582 0,-0.645 -0.291,-1.259 -0.876,-1.845 -1.877,-2.284 -4.235,-4.16 -7.076,-5.623 -2.842,-1.465 -5.844,-2.197 -9.006,-2.197 -4.511,0 -8.495,0.967 -11.952,2.9 -3.456,1.933 -6.151,4.643 -8.083,8.127 -1.933,3.485 -2.901,7.514 -2.901,12.082 0,4.805 0.953,9.009 2.855,12.611 1.906,3.604 4.438,6.356 7.603,8.261 3.163,1.904 6.533,2.854 10.104,2.854 3.515,0 6.812,-0.819 9.886,-2.459 3.077,-1.64 5.582,-4.042 7.515,-7.206 1.931,-3.163 2.928,-6.912 2.987,-11.247 M 224.62,7.644 c -3.397,0 -6.547,-1.171 -9.444,-3.516 -2.9,-2.341 -4.761,-5.711 -5.581,-10.104 h 29.966 v 0.705 c -0.294,2.635 -1.171,4.934 -2.636,6.896 -1.465,1.962 -3.296,3.457 -5.493,4.482 -2.198,1.025 -4.467,1.537 -6.812,1.537 m -32.246,20.651 c 0.703,0 1.305,-0.249 1.801,-0.747 0.498,-0.497 0.749,-1.128 0.749,-1.89 V -30.58 c 0,-0.761 -0.265,-1.392 -0.793,-1.89 -0.527,-0.498 -1.171,-0.747 -1.934,-0.747 -0.82,0 -1.494,0.249 -2.021,0.747 -0.526,0.498 -0.791,1.129 -0.791,1.89 v 48.33 l -20.648,-31.283 c -0.588,-0.762 -1.261,-1.112 -2.02,-1.053 h -0.176 c -0.704,0 -1.349,0.35 -1.934,1.053 L 143.954,17.926 V -30.58 c 0,-0.761 -0.248,-1.392 -0.745,-1.89 -0.497,-0.498 -1.128,-0.747 -1.89,-0.747 -0.762,0 -1.377,0.249 -1.844,0.747 -0.471,0.498 -0.704,1.129 -0.704,1.89 v 56.238 c 0,0.703 0.25,1.32 0.75,1.846 0.497,0.527 1.125,0.791 1.886,0.791 0.409,0 0.851,-0.103 1.318,-0.309 0.468,-0.203 0.821,-0.482 1.055,-0.834 l 23.025,-34.532 23.197,34.532 c 0.644,0.879 1.434,1.261 2.372,1.143 m -63.83,-38.049 c 0,-4.688 -1.057,-8.89 -3.165,-12.611 -2.109,-3.718 -4.994,-6.605 -8.656,-8.656 -3.66,-2.05 -7.688,-3.074 -12.079,-3.074 -4.455,0 -8.496,1.024 -12.129,3.074 -3.632,2.051 -6.502,4.938 -8.613,8.656 -2.109,3.721 -3.162,7.923 -3.162,12.611 0,4.686 1.053,8.891 3.162,12.608 2.111,3.722 4.981,6.621 8.613,8.701 3.633,2.079 7.674,3.121 12.129,3.121 4.391,0 8.419,-1.042 12.079,-3.121 3.662,-2.08 6.547,-4.979 8.656,-8.701 2.108,-3.717 3.165,-7.922 3.165,-12.608 m -10.546,0 c 0,2.871 -0.602,5.432 -1.802,7.689 -1.2,2.254 -2.812,3.998 -4.833,5.229 -2.021,1.229 -4.26,1.844 -6.719,1.844 -2.463,0 -4.703,-0.615 -6.723,-1.844 -2.022,-1.231 -3.634,-2.975 -4.834,-5.229 -1.202,-2.257 -1.802,-4.818 -1.802,-7.689 0,-2.871 0.6,-5.42 1.802,-7.646 1.2,-2.226 2.812,-3.953 4.834,-5.183 2.02,-1.233 4.26,-1.847 6.723,-1.847 2.459,0 4.698,0.614 6.719,1.847 2.021,1.23 3.633,2.957 4.833,5.183 1.2,2.226 1.802,4.775 1.802,7.646 m -41.359,0 c 0,-4.688 -1.056,-8.89 -3.164,-12.611 -2.109,-3.718 -4.995,-6.605 -8.656,-8.656 -3.661,-2.05 -7.689,-3.074 -12.083,-3.074 -4.452,0 -8.493,1.024 -12.126,3.074 -3.631,2.051 -6.502,4.938 -8.611,8.656 -2.11,3.721 -3.165,7.923 -3.165,12.611 0,4.686 1.055,8.891 3.165,12.608 2.109,3.722 4.98,6.621 8.611,8.701 3.633,2.079 7.674,3.121 12.126,3.121 4.394,0 8.422,-1.042 12.083,-3.121 3.661,-2.08 6.547,-4.979 8.656,-8.701 2.108,-3.717 3.164,-7.922 3.164,-12.608 m -10.545,0 c 0,2.871 -0.601,5.432 -1.803,7.689 -1.199,2.254 -2.81,3.998 -4.832,5.229 -2.021,1.229 -4.261,1.844 -6.723,1.844 -2.46,0 -4.7,-0.615 -6.722,-1.844 -2.021,-1.231 -3.631,-2.975 -4.832,-5.229 -1.203,-2.257 -1.802,-4.818 -1.802,-7.689 0,-2.871 0.599,-5.42 1.802,-7.646 1.201,-2.226 2.811,-3.953 4.832,-5.183 2.022,-1.233 4.262,-1.847 6.722,-1.847 2.462,0 4.702,0.614 6.723,1.847 2.022,1.23 3.633,2.957 4.832,5.183 1.202,2.226 1.803,4.775 1.803,7.646 M 23.205,-27.856 c 0,-1.523 -0.512,-2.798 -1.538,-3.823 -1.024,-1.025 -2.298,-1.538 -3.822,-1.538 -1.464,0 -2.695,0.513 -3.691,1.538 -0.996,1.025 -1.493,2.3 -1.493,3.823 v 54.305 c 0,1.523 0.512,2.798 1.536,3.823 1.027,1.025 2.301,1.538 3.824,1.538 1.464,0 2.695,-0.513 3.69,-1.538 0.997,-1.025 1.494,-2.3 1.494,-3.823 z"
             style="fill:#003c6a;fill-opacity:1;fill-rule:evenodd;stroke:none"
             id="path1877" /></g><g
           id="g1879"
           transform="translate(316.2666,459.1514)"><path
             d="m 0,0 -19.169,31.436 -7.65,-2.904 -58.162,-22.065 -0.839,2.225 58.162,22.068 3.64,1.382 -61.559,6.508 0.243,2.368 64.478,-6.82 -0.716,1.177 -10.584,17.384 2.032,1.239 10.583,-17.382 1.374,-2.255 36.963,14.028 0.84,-2.227 L -13.842,33.458 45.585,27.17 45.344,24.802 -16.316,31.327 2.033,1.239 Z"
             style="fill:#466baf;fill-opacity:1;fill-rule:nonzero;stroke:none"
             id="path1881" /></g><g
           id="g1883"
           transform="translate(298.605,504.1411)"><path
             d="m 0,0 c 17.259,0.001 32.78,-5.07 34.914,-12.235 2.508,-8.428 -13.899,-16.389 -37.056,-16.389 -23.156,0 -38.357,7.969 -34.576,16.397 C -33.504,-5.062 -17.262,-0.001 0,0"
             style="fill:#466baf;fill-opacity:1;fill-rule:evenodd;stroke:none"
             id="path1885" /></g><g
           id="g1887"
           transform="translate(298.605,504.1411)"><path
             d="m 0,0 c 17.259,0.001 32.78,-5.07 34.914,-12.235 2.508,-8.428 -13.899,-16.389 -37.056,-16.389 -23.156,0 -38.357,7.969 -34.576,16.397 C -33.504,-5.062 -17.262,-0.001 0,0 Z"
             style="fill:none;stroke:#466baf;stroke-width:2;stroke-linecap:butt;stroke-linejoin:miter;stroke-miterlimit:2.613;stroke-dasharray:none;stroke-opacity:1"
             id="path1889" /></g><g
           id="g1891"
           transform="translate(224.856,470.001)"><path
             d="m 0,0 c 18.074,-3.745 27.267,-13.386 19.537,-22.771 -9.272,-11.263 -38.213,-17.812 -63.054,-12.664 -24.839,5.147 -29.218,18.598 -12.687,28.356 C -42.421,1.056 -18.074,3.745 0,0"
             style="fill:#466baf;fill-opacity:1;fill-rule:evenodd;stroke:none"
             id="path1893" /></g><g
           id="g1895"
           transform="translate(225.0937,471.166)"><path
             d="m 0,0 c 7.757,-1.607 13.948,-4.297 17.956,-7.599 1.995,-1.642 3.467,-3.448 4.343,-5.362 0.906,-1.978 1.176,-4.057 0.738,-6.178 -0.384,-1.851 -1.308,-3.716 -2.82,-5.552 -4.899,-5.95 -14.979,-10.61 -27.024,-13.03 -11.499,-2.308 -24.841,-2.601 -37.186,-0.045 -8.373,1.735 -14.508,4.418 -18.377,7.601 -2.604,2.142 -4.213,4.532 -4.818,7.038 l -10e-4,-0.001 c -0.616,2.556 -0.186,5.185 1.294,7.759 1.642,2.855 4.591,5.638 8.848,8.151 6.926,4.087 16.44,6.823 26.497,8.089 C -20.224,2.173 -9.296,1.926 0,0 m 95.451,-8.451 c 6.201,0.614 12.475,-0.178 17.619,-2.034 5.171,-1.867 9.243,-4.826 11.054,-8.546 0.547,-1.129 0.874,-2.274 0.986,-3.418 0.249,-2.49 -0.516,-4.914 -2.138,-7.092 -1.563,-2.098 -3.923,-3.965 -6.938,-5.434 -3.258,-1.586 -7.311,-2.721 -11.966,-3.182 -7.391,-0.734 -14.352,0.43 -19.642,2.803 -5.609,2.515 -9.399,6.419 -9.998,10.94 -0.012,0.096 -0.024,0.196 -0.035,0.297 -0.381,3.851 1.69,7.408 5.391,10.175 3.523,2.635 8.566,4.573 14.337,5.336 0.448,0.059 0.892,0.11 1.33,0.155 M 155.5,22.896 c 8.18,0.788 17.279,0.297 25.471,-1.234 8.028,-1.498 15.218,-4.006 19.88,-7.299 2.394,-1.693 3.98,-3.476 4.783,-5.267 0.839,-1.871 0.843,-3.727 0.049,-5.487 -0.748,-1.658 -2.21,-3.192 -4.349,-4.531 -3.843,-2.402 -10.012,-4.238 -18.269,-5.035 -10.385,-1.002 -21.043,-0.076 -29.843,2.089 -9.25,2.278 -16.528,5.967 -19.44,10.288 -0.797,1.183 -1.238,2.371 -1.352,3.545 -0.138,1.445 0.225,2.829 1.039,4.127 0.766,1.223 1.923,2.355 3.425,3.365 3.966,2.678 10.503,4.657 18.606,5.439 M -1.804,34.815 c 3.425,-0.299 6.22,-0.977 8.085,-1.876 1.04,-0.501 1.829,-1.093 2.325,-1.752 0.622,-0.829 0.803,-1.732 0.485,-2.683 -0.168,-0.5 -0.477,-0.988 -0.938,-1.456 -1.536,-1.556 -4.784,-2.8 -8.758,-3.528 -3.801,-0.696 -8.323,-0.949 -12.651,-0.571 -3.869,0.338 -6.824,1.12 -8.634,2.137 -0.936,0.523 -1.612,1.139 -2.003,1.818 h -0.004 c -0.475,0.825 -0.533,1.698 -0.145,2.585 0.291,0.663 0.843,1.304 1.672,1.899 1.874,1.348 5.085,2.383 8.797,2.984 3.677,0.595 7.88,0.783 11.769,0.443 m 118.326,8.652 c 3.545,0.001 7.048,-0.447 9.847,-1.184 2.954,-0.78 5.221,-1.934 6.122,-3.302 0.234,-0.356 0.382,-0.718 0.45,-1.085 0.181,-0.978 -0.183,-1.857 -1.015,-2.606 -0.637,-0.571 -1.577,-1.068 -2.766,-1.461 -2.065,-0.682 -5.011,-1.098 -8.517,-1.092 -3.882,-0.004 -7.585,0.514 -10.432,1.338 -3.157,0.912 -5.379,2.289 -5.902,3.879 -0.087,0.27 -0.131,0.536 -0.131,0.799 0,0.882 0.445,1.659 1.264,2.311 0.637,0.507 1.529,0.948 2.624,1.305 2.102,0.685 5.067,1.098 8.456,1.098 M 58.125,54.012 c 0.939,0 1.921,-0.021 2.937,-0.064 4.605,-0.193 8.673,-0.838 11.599,-1.788 3.347,-1.087 5.364,-2.684 5.364,-4.637 L 78.02,47.504 V 47.435 47.407 C 77.923,45.139 74.965,43.157 70.276,41.853 66.097,40.687 60.409,39.949 54.18,39.955 v -0.004 c -5.883,0 -10.856,0.668 -14.283,1.731 -1.767,0.548 -3.157,1.215 -4.088,1.965 -1.174,0.943 -1.705,2.043 -1.489,3.255 0.072,0.409 0.231,0.809 0.48,1.202 1.132,1.783 4.327,3.291 8.604,4.315 4.131,0.992 9.364,1.589 14.721,1.589 z"
             style="fill:#466baf;fill-opacity:1;fill-rule:nonzero;stroke:none"
             id="path1897" /></g><g
           id="g1899"
           transform="translate(320.6611,461.5312)"><path
             d="m 0,0 c 11.931,1.184 24.109,-2.983 27.484,-9.918 3.803,-7.809 -4.572,-15.98 -19.099,-17.422 -14.528,-1.439 -27.276,4.635 -28.346,12.714 C -20.909,-7.451 -11.932,-1.185 0,0"
             style="fill:#466baf;fill-opacity:1;fill-rule:evenodd;stroke:none"
             id="path1901" /></g><g
           id="g1903"
           transform="translate(380.7046,492.8789)"><path
             d="M 0,0 C 15.917,1.533 35.389,-1.848 44.554,-8.324 55.176,-15.829 48.181,-24.475 27.343,-26.486 6.502,-28.498 -15.443,-22.641 -20.84,-14.627 -25.498,-7.723 -15.916,-1.535 0,0"
             style="fill:#466baf;fill-opacity:1;fill-rule:evenodd;stroke:none"
             id="path1905" /></g><g
           id="g1907"
           transform="translate(341.6157,513.4448)"><path
             d="M 0,0 C 6.841,0.002 13.505,-1.717 14.976,-3.949 16.542,-6.328 11.749,-8.365 4.121,-8.354 -3.471,-8.361 -10.3,-6.328 -11.08,-3.958 -11.809,-1.723 -6.841,-0.001 0,0"
             style="fill:#466baf;fill-opacity:1;fill-rule:evenodd;stroke:none"
             id="path1909" /></g><g
           id="g1911"
           transform="translate(283.2187,523.9858)"><path
             d="m 0,0 c 10.452,0 18.834,-2.305 18.705,-5.365 -0.142,-3.359 -10.286,-6.325 -22.65,-6.31 -12.367,0 -20.504,2.964 -18.374,6.321 C -20.382,-2.303 -10.451,0 0,0"
             style="fill:#466baf;fill-opacity:1;fill-rule:evenodd;stroke:none"
             id="path1913" /></g><g
           id="g1915"
           transform="translate(223.1875,504.793)"><path
             d="m 0,0 c 7.565,-0.662 11.754,-3.164 9.211,-5.746 -2.704,-2.735 -11.938,-4.488 -20.459,-3.744 -8.52,0.746 -12.209,3.636 -8.522,6.287 C -16.308,-0.714 -7.564,0.661 0,0"
             style="fill:#466baf;fill-opacity:1;fill-rule:evenodd;stroke:none"
             id="path1917" /></g><g
           id="g1919"><g
             id="g1921" /><g
             id="g1933"><g
               clip-path="url(#clipPath1925)"
               opacity="0.300003"
               id="g1931"><g
                 transform="translate(298.415,499.6294)"
                 id="g1929"><path
                   d="m 0,0 c 15.708,0 28.442,-3.413 28.442,-7.623 0,-4.21 -12.734,-7.623 -28.442,-7.623 -15.709,0 -28.443,3.413 -28.443,7.623 C -28.443,-3.413 -15.709,0 0,0"
                   style="fill:#003c6a;fill-opacity:1;fill-rule:evenodd;stroke:none"
                   id="path1927" /></g></g></g></g><g
           id="g1935"
           transform="translate(276.4785,558.0391)"><path
             d="M 0,0 C 2.969,-1.236 4.902,-2.74 7.3,-5.237 L 4,-7.745 c -0.876,0.913 -7.22,0.578 -6.279,1.311 1.877,1.465 0.698,2.744 -0.998,3.45 -3.202,1.871 -4.197,-6.631 -12.328,-4.183 -5.438,1.638 -7.862,6.714 -6.199,11.483 1.663,4.768 7.396,7.227 12.804,5.492 C -5.756,8.766 -4.178,6.183 -3.941,3.321 -3.698,0.391 -3.406,1.416 0,0"
             style="fill:#54acd5;fill-opacity:1;fill-rule:evenodd;stroke:none"
             id="path1937" /></g><g
           id="g1939"
           transform="translate(323.5269,526.1255)"><path
             d="m 0,0 c -1.676,2.443 6.736,11.071 11.595,17.568 4.858,6.497 8.816,5.481 10.92,3.738 C 24.618,19.562 24.836,14.44 20.083,9.611 15.333,4.782 1.675,-2.442 0,0"
             style="fill:#54acd5;fill-opacity:1;fill-rule:evenodd;stroke:none"
             id="path1941" /></g><g
           id="g1943"
           transform="translate(283.9541,490.5986)"><path
             d="M 0,0 C 7.623,0 9.073,4.972 14.113,5.011 19.152,5.052 21.342,0 28.696,0 c 11.887,0 19.625,25.525 19.625,39.497 0,17.9 -15.177,29.947 -33.9,29.947 C -4.302,69.444 -19.48,57.397 -19.48,39.497 -19.48,18.314 -10.434,0 0,0"
             style="fill:#54acd5;fill-opacity:1;fill-rule:evenodd;stroke:none"
             id="path1945" /></g><g
           id="g1947"
           transform="translate(333.4399,537.438)"><path
             d="M 0,0 C -0.585,1.082 2.025,2.508 4.368,5.622 6.711,8.735 8.646,9.321 9.232,8.239 9.818,7.156 8.78,4.997 6.358,2.945 3.939,0.894 0.585,-1.083 0,0"
             style="fill:#ffffff;fill-opacity:1;fill-rule:evenodd;stroke:none"
             id="path1949" /></g><g
           id="g1951"
           transform="translate(265.8169,566.8267)"><path
             d="m 0,0 c 2.034,0 3.683,-1.648 3.683,-3.683 0,-3.704 -7.342,-3.891 -7.342,0.536 C -3.659,-1.114 -2.032,0 0,0"
             style="fill:#ffffff;fill-opacity:1;fill-rule:evenodd;stroke:none"
             id="path1953" /></g><g
           id="g1955"
           transform="translate(273.3813,530.2319)"><path
             d="m 0,0 c 0.945,-2.808 -9.503,-8.813 -15.95,-13.737 -6.447,-4.924 -9.978,-2.866 -11.526,-0.616 -1.547,2.253 -0.358,7.24 5.531,10.588 5.889,3.349 21,6.573 21.945,3.765"
             style="fill:#54acd5;fill-opacity:1;fill-rule:evenodd;stroke:none"
             id="path1957" /></g><g
           id="g1959"
           transform="translate(261.8403,527.1416)"><path
             d="m 0,0 c 0.888,-0.887 -2.798,-0.243 -8.273,-4.892 -1.955,-1.661 -2.656,-2.711 -3.624,-2.067 -0.415,0.276 -1.236,1.278 1.536,3.553 C -7.589,-1.131 -0.982,0.981 0,0 m -12.068,-7.808 c 0.452,-0.531 0.377,-1.456 -0.168,-2.065 -0.545,-0.609 -1.352,-0.672 -1.804,-0.141 -0.452,0.53 -0.377,1.454 0.169,2.063 0.544,0.609 1.351,0.673 1.803,0.143"
             style="fill:#ffffff;fill-opacity:1;fill-rule:evenodd;stroke:none"
             id="path1961" /></g><g
           id="g1963"
           transform="translate(299.8252,558.6978)"><path
             d="m 0,0 c 16.687,0 30.216,-13.527 30.216,-30.215 0,-30.398 -60.243,-31.939 -60.243,4.386 C -30.027,-9.142 -16.688,0 0,0"
             style="fill:#5bbae0;fill-opacity:1;fill-rule:evenodd;stroke:none"
             id="path1965" /></g><g
           id="g1967"
           transform="translate(299.9429,524.6069)"><path
             d="M 0,0 C 5.117,0.31 6.889,2.221 9.229,0.372 11.57,-1.476 7.755,-8.276 0.482,-8.715 -6.789,-9.155 -11.264,-2.924 -9.295,-0.748 -7.325,1.43 -5.114,-0.309 0,0"
             style="fill:#003c6a;fill-opacity:1;fill-rule:evenodd;stroke:none"
             id="path1969" /></g><g
           id="g1971"
           transform="translate(305.1899,518.4136)"><path
             d="m 0,0 c -1.266,-0.89 -2.9,-1.55 -4.829,-1.665 -1.996,-0.121 -3.737,0.367 -5.111,1.138 0.018,1.559 2.743,2.561 4.884,1.659 C -2.938,2.291 -0.143,1.582 0,0"
             style="fill:#54acd5;fill-opacity:1;fill-rule:evenodd;stroke:none"
             id="path1973" /></g><g
           id="g1975"
           transform="translate(299.9775,524.0176)"><path
             d="M 0,0 C 3.349,0.203 5.148,1.037 6.663,1.126 6.667,1.101 6.668,1.075 6.671,1.048 6.74,-0.12 5.921,-1.12 4.84,-1.185 4.49,-1.206 4.156,-1.126 3.86,-0.97 3.544,-1.687 2.833,-2.21 1.977,-2.262 1.22,-2.307 0.532,-1.974 0.107,-1.432 -0.251,-2.022 -0.896,-2.435 -1.65,-2.481 -2.522,-2.534 -3.304,-2.084 -3.698,-1.39 -3.983,-1.605 -4.328,-1.739 -4.702,-1.762 -5.784,-1.829 -6.718,-0.934 -6.789,0.235 -6.79,0.269 -6.792,0.303 -6.792,0.337 -5.277,0.396 -3.349,-0.202 0,0"
             style="fill:#ffffff;fill-opacity:1;fill-rule:evenodd;stroke:none"
             id="path1977" /></g><g
           id="g1979"
           transform="translate(298.8657,549.5884)"><path
             d="M 0,0 C -5.904,-1.21 -7.739,4.484 -0.274,6.286 9.076,8.544 22.353,2.448 26.334,-5.944 27.396,-8.179 25.737,-9.018 23.928,-6.778 18.914,-0.576 9.902,2.03 0,0 m 26.76,-9.275 c 0.661,0.112 1.389,-0.429 1.627,-1.21 0.238,-0.78 -0.104,-1.504 -0.764,-1.615 -0.66,-0.112 -1.39,0.43 -1.628,1.209 -0.238,0.781 0.105,1.504 0.765,1.616"
             style="fill:#eef7f8;fill-opacity:1;fill-rule:evenodd;stroke:none"
             id="path1981" /></g><g
           id="g1983"
           transform="translate(315.3657,537.6494)"><path
             d="M 0,0 C 2.967,0.093 5.447,-2.237 5.539,-5.204 5.631,-8.17 3.302,-10.65 0.334,-10.742 -2.632,-10.835 -5.113,-8.505 -5.205,-5.538 -5.297,-2.571 -2.968,-0.091 0,0"
             style="fill:#003c6a;fill-opacity:1;fill-rule:evenodd;stroke:none"
             id="path1985" /></g><g
           id="g1987"
           transform="translate(317.8545,536.0039)"><path
             d="M 0,0 C 0.826,0.026 1.518,-0.624 1.545,-1.452 1.57,-2.278 0.921,-2.971 0.093,-2.996 -0.735,-3.022 -1.426,-2.373 -1.453,-1.544 -1.479,-0.717 -0.828,-0.025 0,0"
             style="fill:#eef7f8;fill-opacity:1;fill-rule:evenodd;stroke:none"
             id="path1989" /></g><g
           id="g1991"
           transform="translate(283.0708,537.2852)"><path
             d="M 0,0 C 2.966,0.092 5.446,-2.237 5.538,-5.204 5.63,-8.17 3.301,-10.65 0.334,-10.743 -2.633,-10.835 -5.113,-8.505 -5.205,-5.539 -5.297,-2.572 -2.968,-0.092 0,0"
             style="fill:#003c6a;fill-opacity:1;fill-rule:evenodd;stroke:none"
             id="path1993" /></g><g
           id="g1995"
           transform="translate(285.5586,535.6396)"><path
             d="M 0,0 C 0.828,0.026 1.52,-0.624 1.545,-1.452 1.571,-2.279 0.921,-2.971 0.093,-2.997 -0.734,-3.022 -1.426,-2.372 -1.451,-1.544 -1.478,-0.717 -0.828,-0.025 0,0"
             style="fill:#eef7f8;fill-opacity:1;fill-rule:evenodd;stroke:none"
             id="path1997" /></g></g></g></g></svg>
