<?xml version="1.0" encoding="UTF-8" standalone="no"?>
<!-- Created with Inkscape (http://www.inkscape.org/) -->

<svg
   version="1.1"
   id="svg840"
   xml:space="preserve"
   width="181.81976"
   height="238.71356"
   viewBox="0 0 181.81977 238.71357"
   sodipodi:docname="wasmhub-glooy.svg"
   inkscape:version="1.1 (c4e8f9e, 2021-05-24)"
   xmlns:inkscape="http://www.inkscape.org/namespaces/inkscape"
   xmlns:sodipodi="http://sodipodi.sourceforge.net/DTD/sodipodi-0.dtd"
   xmlns="http://www.w3.org/2000/svg"
   xmlns:svg="http://www.w3.org/2000/svg"><defs
     id="defs844"><clipPath
       clipPathUnits="userSpaceOnUse"
       id="clipPath854"><path
         d="M 0,1000 H 1000 V 0 H 0 Z"
         id="path852" /></clipPath><clipPath
       clipPathUnits="userSpaceOnUse"
       id="clipPath866"><path
         d="m 281.561,282.384 h 52.759 v -8.162 h -52.759 z"
         id="path864" /></clipPath><clipPath
       clipPathUnits="userSpaceOnUse"
       id="clipPath962"><path
         d="m 467.603,738.71 h 77.369 v -11.969 h -77.369 z"
         id="path960" /></clipPath></defs><sodipodi:namedview
     id="namedview842"
     pagecolor="#ffffff"
     bordercolor="#666666"
     borderopacity="1.0"
     inkscape:pageshadow="2"
     inkscape:pageopacity="0.0"
     inkscape:pagecheckerboard="0"
     showgrid="false"
     inkscape:zoom="0.40875002"
     inkscape:cx="321.71252"
     inkscape:cy="-179.8165"
     inkscape:window-width="1920"
     inkscape:window-height="1027"
     inkscape:window-x="1792"
     inkscape:window-y="25"
     inkscape:window-maximized="1"
     inkscape:current-layer="g846" /><g
     id="g846"
     inkscape:groupmode="layer"
     inkscape:label="gloo Assembly Hub X (1)"
     transform="matrix(1.3333333,0,0,-1.3333333,-345.71147,487.83492)"><g
       id="g856"
       transform="translate(298.2612,250.5557)"><path
         d="m 0,0 c 1.981,0.219 3.764,-1.209 3.983,-3.19 0.218,-1.981 -1.21,-3.764 -3.191,-3.983 -1.648,-0.186 -3.226,-0.33 -4.731,-0.431 -1.534,-0.102 -3.097,-0.168 -4.684,-0.199 -1.992,-0.039 -3.64,1.545 -3.679,3.537 -0.039,1.994 1.545,3.641 3.538,3.68 1.382,0.027 2.831,0.091 4.343,0.191 C -2.908,-0.293 -1.433,-0.162 0,0 m -2.3,43.666 c 21.009,7.523 43.566,1.56 58.211,-13.413 -3.185,-1.139 -6.556,-2.408 -9.504,-3.464 -1.362,-0.488 -3.774,-0.998 -4.237,-2.001 0.347,-3.142 5.238,-1.948 6.436,-7.51 0.69,-3.199 -1.121,-6.93 -4.635,-8.003 -4.995,-1.524 -10.493,3.162 -8.464,9.126 0.126,0.37 2.184,4.176 0.053,4.333 L 17.481,16.321 c 1.427,-4.342 3.348,-9.38 4.938,-13.823 0.243,-0.676 1.682,-4.087 1.367,-4.538 0.146,-1.222 -1.082,-2.004 -2.584,-1.904 -1.404,0.092 -2.067,0.675 -3.083,1.071 -2.173,0.845 -4.889,0.245 -6.594,-1.747 -4.728,-5.523 2.752,-13.007 8.321,-8.511 1.18,0.953 1.381,1.715 1.86,2.713 0.844,1.761 3.682,4.407 4.991,0.692 2.005,-5.686 4.011,-11.517 6.147,-17.146 2.511,0.846 17.284,5.911 18.336,6.721 -0.138,3.478 -5.091,1.999 -6.409,7.602 -0.768,3.262 1.031,6.949 4.41,8.154 5.356,1.912 10.723,-3.327 8.993,-8.676 -0.419,-1.293 -1.899,-2.962 -0.546,-4.783 0.889,0.052 8.555,2.774 13.825,4.718 C 69.646,-34.006 56,-52.938 34.987,-60.463 c -17.351,-6.214 -35.758,-3.225 -49.892,6.437 10.898,-1.724 23.642,-1.466 36.87,1.177 v 0.003 c 0.085,0.017 0.169,0.036 0.254,0.06 h 10e-4 c 1.926,0.53 3.058,2.522 2.528,4.449 -0.507,1.842 -2.351,2.958 -4.195,2.588 l -0.001,0.003 c -16.019,-3.202 -31.13,-2.699 -42.61,0.701 -1.497,0.444 -2.929,0.935 -4.288,1.472 -3.883,4.711 -7.043,10.149 -9.254,16.205 1.465,-0.573 2.988,-1.102 4.566,-1.581 1.914,-0.581 3.936,0.5 4.516,2.414 0.581,1.913 -0.5,3.935 -2.414,4.515 -3.392,1.032 -6.464,2.295 -9.146,3.77 -0.966,5.3 -1.134,10.614 -0.57,15.798 4.747,-2.185 10.382,-3.748 16.618,-4.607 1.977,-0.265 3.795,1.122 4.061,3.098 0.266,1.977 -1.12,3.795 -3.097,4.061 -6.321,0.869 -11.87,2.525 -16.26,4.853 4.327,17.327 16.951,32.24 35.026,38.713 m 43.274,-83.23 c 1.843,0.77 3.962,-0.098 4.732,-1.941 0.771,-1.843 -0.099,-3.962 -1.941,-4.732 -1.184,-0.496 -2.532,-1.026 -4.044,-1.588 -1.526,-0.568 -2.917,-1.058 -4.161,-1.465 -1.901,-0.615 -3.942,0.427 -4.558,2.328 -0.615,1.901 0.427,3.941 2.328,4.558 1.484,0.484 2.776,0.932 3.881,1.343 1.143,0.425 2.399,0.925 3.763,1.497 m -23.856,16.66 c 1.961,0.39 3.867,-0.883 4.257,-2.844 0.391,-1.962 -0.883,-3.868 -2.844,-4.259 -6.429,-1.284 -12.794,-2.041 -18.946,-2.309 -6.334,-0.277 -12.401,-0.022 -18.044,0.718 -1.977,0.258 -3.369,2.071 -3.111,4.047 0.258,1.977 2.07,3.369 4.046,3.111 5.231,-0.686 10.878,-0.921 16.797,-0.663 5.698,0.249 11.688,0.968 17.845,2.199"
         style="fill:#914fd3;fill-opacity:1;fill-rule:evenodd;stroke:none"
         id="path858" /></g><g
       id="g860"><g
         id="g862" /><g
         id="g874"><g
           clip-path="url(#clipPath866)"
           opacity="0.300003"
           id="g872"><g
             transform="translate(310.396,282.3838)"
             id="g870"><path
               d="M 0,0 C 14.504,0 25.164,-1.827 23.808,-4.081 22.452,-6.335 9.594,-8.162 -4.911,-8.162 c -14.504,0 -25.164,1.827 -23.808,4.081 C -27.363,-1.827 -14.505,0 0,0"
               style="fill:#003c6a;fill-opacity:1;fill-rule:evenodd;stroke:none"
               id="path868" /></g></g></g></g><g
       id="g876"
       transform="translate(288.001,338.5508)"><path
         d="M 0,0 C 2.734,-1.137 4.515,-2.522 6.723,-4.821 L 3.684,-7.13 c -0.807,0.84 -6.647,0.531 -5.782,1.207 1.728,1.348 0.643,2.527 -0.919,3.176 -2.948,1.722 -3.863,-6.106 -11.351,-3.852 -5.007,1.508 -7.237,6.183 -5.706,10.574 1.531,4.39 6.808,6.654 11.788,5.055 C -5.299,8.072 -3.847,5.693 -3.628,3.059 -3.404,0.36 -3.136,1.304 0,0"
         style="fill:#54acd5;fill-opacity:1;fill-rule:evenodd;stroke:none"
         id="path878" /></g><g
       id="g880"
       transform="translate(331.3198,309.167)"><path
         d="m 0,0 c -1.542,2.249 6.203,10.194 10.676,16.177 4.473,5.981 8.118,5.046 10.054,3.44 C 22.667,18.012 22.868,13.296 18.493,8.85 14.118,4.403 1.542,-2.249 0,0"
         style="fill:#54acd5;fill-opacity:1;fill-rule:evenodd;stroke:none"
         id="path882" /></g><g
       id="g884"
       transform="translate(294.8843,276.4561)"><path
         d="M 0,0 C 7.019,0 8.354,4.578 12.994,4.614 17.635,4.651 19.65,0 26.42,0 c 10.946,0 18.071,23.503 18.071,36.366 0,16.482 -13.975,27.573 -31.213,27.573 -17.239,0 -31.214,-11.091 -31.214,-27.573 C -17.936,16.862 -9.607,0 0,0"
         style="fill:#54acd5;fill-opacity:1;fill-rule:evenodd;stroke:none"
         id="path886" /></g><g
       id="g888"
       transform="translate(340.4478,319.583)"><path
         d="M 0,0 C -0.54,0.996 1.865,2.309 4.022,5.176 6.18,8.043 7.961,8.582 8.5,7.586 9.04,6.589 8.084,4.601 5.855,2.712 3.627,0.823 0.539,-0.997 0,0"
         style="fill:#ffffff;fill-opacity:1;fill-rule:evenodd;stroke:none"
         id="path890" /></g><g
       id="g892"
       transform="translate(278.1855,346.6416)"><path
         d="m 0,0 c 1.873,0 3.39,-1.518 3.39,-3.39 0,-3.411 -6.759,-3.584 -6.759,0.493 C -3.369,-1.025 -1.873,0 0,0"
         style="fill:#ffffff;fill-opacity:1;fill-rule:evenodd;stroke:none"
         id="path894" /></g><g
       id="g896"
       transform="translate(285.1499,312.9482)"><path
         d="m 0,0 c 0.87,-2.585 -8.75,-8.114 -14.686,-12.648 -5.936,-4.535 -9.187,-2.639 -10.611,-0.566 -1.426,2.073 -0.331,6.664 5.091,9.748 C -14.783,-0.383 -0.87,2.584 0,0"
         style="fill:#54acd5;fill-opacity:1;fill-rule:evenodd;stroke:none"
         id="path898" /></g><g
       id="g900"
       transform="translate(274.5239,310.1025)"><path
         d="M 0,0 C 0.817,-0.816 -2.576,-0.224 -7.618,-4.505 -9.417,-6.033 -10.063,-7 -10.954,-6.407 -11.336,-6.153 -12.092,-5.23 -9.54,-3.136 -6.988,-1.04 -0.905,0.904 0,0 m -11.111,-7.189 c 0.416,-0.489 0.346,-1.339 -0.155,-1.9 -0.502,-0.561 -1.245,-0.62 -1.661,-0.132 -0.416,0.49 -0.347,1.339 0.155,1.901 0.501,0.56 1.245,0.619 1.661,0.131"
         style="fill:#ffffff;fill-opacity:1;fill-rule:evenodd;stroke:none"
         id="path902" /></g><g
       id="g904"
       transform="translate(309.4976,339.1582)"><path
         d="m 0,0 c 15.365,0 27.82,-12.456 27.82,-27.82 0,-27.989 -55.466,-29.407 -55.466,4.038 C -27.646,-8.417 -15.365,0 0,0"
         style="fill:#5bbae0;fill-opacity:1;fill-rule:evenodd;stroke:none"
         id="path906" /></g><g
       id="g908"
       transform="translate(309.6064,307.7695)"><path
         d="M 0,0 C 4.709,0.285 6.342,2.045 8.497,0.343 10.651,-1.36 7.139,-7.621 0.444,-8.025 -6.252,-8.431 -10.372,-2.693 -8.559,-0.688 -6.745,1.316 -4.71,-0.284 0,0"
         style="fill:#003c6a;fill-opacity:1;fill-rule:evenodd;stroke:none"
         id="path910" /></g><g
       id="g912"
       transform="translate(314.4365,302.0664)"><path
         d="m 0,0 c -1.166,-0.819 -2.669,-1.427 -4.445,-1.533 -1.838,-0.112 -3.441,0.338 -4.707,1.049 0.017,1.433 2.526,2.357 4.497,1.527 C -2.704,2.11 -0.131,1.457 0,0"
         style="fill:#54acd5;fill-opacity:1;fill-rule:evenodd;stroke:none"
         id="path914" /></g><g
       id="g916"
       transform="translate(309.6372,307.2266)"><path
         d="M 0,0 C 3.083,0.187 4.741,0.955 6.136,1.037 6.138,1.014 6.14,0.989 6.142,0.965 6.207,-0.11 5.453,-1.031 4.457,-1.092 4.134,-1.111 3.826,-1.038 3.555,-0.894 3.264,-1.554 2.609,-2.035 1.821,-2.082 1.125,-2.124 0.491,-1.818 0.098,-1.318 -0.231,-1.861 -0.823,-2.242 -1.52,-2.284 -2.322,-2.333 -3.042,-1.918 -3.404,-1.279 -3.667,-1.478 -3.983,-1.603 -4.329,-1.623 -5.325,-1.684 -6.185,-0.859 -6.25,0.216 -6.251,0.247 -6.253,0.279 -6.253,0.31 -4.857,0.365 -3.083,-0.187 0,0"
         style="fill:#ffffff;fill-opacity:1;fill-rule:evenodd;stroke:none"
         id="path918" /></g><g
       id="g920"
       transform="translate(308.6133,330.7705)"><path
         d="M 0,0 C -5.435,-1.114 -7.125,4.129 -0.251,5.788 8.359,7.866 20.582,2.254 24.249,-5.474 25.225,-7.531 23.698,-8.303 22.031,-6.241 17.416,-0.53 9.119,1.868 0,0 m 24.64,-8.54 c 0.608,0.103 1.279,-0.395 1.498,-1.113 0.219,-0.719 -0.096,-1.385 -0.704,-1.489 -0.608,-0.103 -1.279,0.396 -1.498,1.115 -0.22,0.717 0.095,1.383 0.704,1.487"
         style="fill:#eef7f8;fill-opacity:1;fill-rule:evenodd;stroke:none"
         id="path922" /></g><g
       id="g924"
       transform="translate(323.8057,319.7783)"><path
         d="M 0,0 C 2.732,0.085 5.015,-2.061 5.1,-4.792 5.186,-7.523 3.04,-9.807 0.309,-9.892 -2.423,-9.977 -4.707,-7.831 -4.792,-5.1 -4.876,-2.368 -2.731,-0.085 0,0"
         style="fill:#003c6a;fill-opacity:1;fill-rule:evenodd;stroke:none"
         id="path926" /></g><g
       id="g928"
       transform="translate(326.0972,318.2637)"><path
         d="M 0,0 C 0.762,0.023 1.399,-0.575 1.422,-1.337 1.446,-2.099 0.848,-2.736 0.086,-2.76 -0.676,-2.783 -1.313,-2.185 -1.337,-1.423 -1.36,-0.661 -0.762,-0.024 0,0"
         style="fill:#eef7f8;fill-opacity:1;fill-rule:evenodd;stroke:none"
         id="path930" /></g><g
       id="g932"
       transform="translate(294.0708,319.4424)"><path
         d="M 0,0 C 2.732,0.085 5.015,-2.06 5.1,-4.792 5.185,-7.523 3.04,-9.807 0.308,-9.892 -2.423,-9.977 -4.707,-7.831 -4.792,-5.1 -4.876,-2.368 -2.731,-0.085 0,0"
         style="fill:#003c6a;fill-opacity:1;fill-rule:evenodd;stroke:none"
         id="path934" /></g><g
       id="g936"
       transform="translate(296.3623,317.9277)"><path
         d="M 0,0 C 0.762,0.023 1.399,-0.575 1.422,-1.337 1.446,-2.099 0.848,-2.735 0.086,-2.76 -0.676,-2.783 -1.313,-2.185 -1.337,-1.423 -1.36,-0.661 -0.762,-0.023 0,0"
         style="fill:#eef7f8;fill-opacity:1;fill-rule:evenodd;stroke:none"
         id="path938" /></g><g
       id="g940"
       transform="translate(348.1318,329.9355)"><path
         d="m 0,0 c 1.641,0.247 2.98,-0.373 3.918,-1.151 1.937,-1.606 2.138,-6.322 -2.237,-10.768 -0.176,-0.179 -0.366,-0.36 -0.566,-0.546 -1.908,0.534 -3.431,0.967 -4.098,1.159 C -2.053,-7.557 -1.032,-3.77 0,0"
         style="fill:#4d9dc9;fill-opacity:1;fill-rule:evenodd;stroke:none"
         id="path942" /></g><g
       id="g944"
       transform="translate(347.4614,327.4766)"><path
         d="M 0,0 C 0.709,0.288 1.234,0.159 1.487,-0.308 2.025,-1.305 1.07,-3.293 -1.158,-5.182 -1.251,-5.261 -1.346,-5.339 -1.441,-5.417 -0.973,-3.614 -0.49,-1.807 0,0"
         style="fill:#e5eaf4;fill-opacity:1;fill-rule:evenodd;stroke:none"
         id="path946" /></g><g
       id="g948"
       transform="translate(394.8682,355.4512)"><path
         d="m 0,0 c 1.296,-7.612 1.013,-15.617 -1.116,-23.563 -2.128,-7.943 -5.883,-15.014 -10.807,-20.956 -5.44,1.402 -13.292,3.528 -14.053,3.992 -0.075,2.266 2.092,2.796 3.172,3.621 4.468,3.412 3.038,10.775 -2.453,12.253 -3.464,0.932 -7.042,-1.076 -8.268,-4.193 -2.106,-5.357 2.808,-6.962 0.941,-9.899 -1.326,-0.068 -16.355,4.179 -18.902,4.913 1.449,5.844 3.12,11.779 4.709,17.596 1.038,3.799 -2.802,3.24 -4.498,2.273 -0.961,-0.548 -1.561,-1.06 -3.074,-1.172 -7.137,-0.526 -9.026,9.885 -1.995,11.735 2.536,0.667 5.11,-0.387 6.416,-2.319 0.61,-0.903 0.824,-1.76 1.925,-2.635 1.178,-0.937 2.633,-0.994 3.208,0.094 0.516,0.192 1.274,3.816 1.46,4.509 1.222,4.558 2.512,9.794 3.81,14.176 l 18.513,-5.021 c 1.663,-1.342 -2.196,-3.3 -2.509,-3.531 -5.065,-3.749 -3.211,-10.731 1.763,-12.322 3.499,-1.119 7.112,0.918 8.367,3.94 2.18,5.255 -2.521,7.059 -1.017,9.839 0.952,0.561 3.226,-0.393 4.622,-0.767 C -6.76,1.752 -3.267,0.877 0,0"
         style="fill:#7c86e2;fill-opacity:1;fill-rule:evenodd;stroke:none"
         id="path950" /></g></g></svg>
