<svg xmlns="http://www.w3.org/2000/svg" xml:space="preserve" id="Layer_1" x="0" y="0" style="enable-background:new 0 0 32 32" version="1.1" viewBox="0 0 32 32"><style>.st1{fill:none}.st2,.st3{fill:#be202e}.st3{opacity:.35;enable-background:new}</style><linearGradient id="SVGID_1_" x1="-6020.159" x2="-6015.661" y1="869.684" y2="864.424" gradientTransform="scale(1 -1) rotate(65.001 -2315.317 5173.865)" gradientUnits="userSpaceOnUse"><stop offset="0" style="stop-color:#f69923"/><stop offset=".312" style="stop-color:#f79a23"/><stop offset=".838" style="stop-color:#e97826"/></linearGradient><path d="M21.48.31c-.5.29-1.33 1.13-2.32 2.34l.91 1.72c.64-.91 1.29-1.74 1.94-2.44.05-.06.08-.08.08-.08-.03.03-.05.06-.08.08-.21.23-.85.98-1.82 2.47.93-.05 2.37-.24 3.54-.44.35-1.95-.34-2.84-.34-2.84S22.51-.3 21.48.31z" style="fill:url(#SVGID_1_)"/><path d="M19.94 10.11h.02l-.13.01c-.01 0-.02.01-.02.01.04-.01.08-.01.13-.02zM19.01 13.19c-.07.02-.15.03-.23.04.08-.01.15-.03.23-.04zM12.69 20.09c.01-.03.02-.05.03-.08.2-.53.4-1.04.6-1.54.22-.56.44-1.11.65-1.63.23-.56.45-1.09.67-1.61.23-.54.46-1.07.68-1.57.18-.41.36-.81.54-1.19.06-.13.12-.26.18-.38.12-.25.23-.49.34-.73.1-.22.21-.44.31-.65.03-.07.07-.14.1-.21.01-.01.01-.02.02-.03l-.11.01-.09-.17c-.01.02-.02.03-.03.05-.16.32-.32.64-.47.96-.09.19-.18.37-.27.56-.25.52-.49 1.05-.73 1.58-.24.54-.48 1.07-.72 1.61-.23.53-.45 1.06-.68 1.59-.22.53-.43 1.06-.65 1.58-.22.55-.43 1.09-.64 1.62-.05.12-.09.24-.14.36-.17.43-.33.86-.48 1.28l.14.28.13-.01c0-.01.01-.03.01-.04.21-.58.41-1.11.61-1.64zM18.72 13.24z" class="st1"/><path d="m18.42 14.74-.36.06.18-.03.18-.03z" class="st2"/><path d="m18.42 14.74-.36.06.18-.03.18-.03z" class="st3"/><path d="M18.73 13.23c-.01.01-.01.01 0 0 .02 0 .04 0 .06-.01.08-.01.15-.02.23-.04-.1.02-.2.04-.29.05z" class="st2"/><path d="M18.73 13.23c-.01.01-.01.01 0 0 .02 0 .04 0 .06-.01.08-.01.15-.02.23-.04-.1.02-.2.04-.29.05z" class="st3"/><linearGradient id="SVGID_2_" x1="-6053.455" x2="-6021.359" y1="870.265" y2="870.265" gradientTransform="scale(1 -1) rotate(65.001 -2315.317 5173.865)" gradientUnits="userSpaceOnUse"><stop offset=".323" style="stop-color:#9e2064"/><stop offset=".63" style="stop-color:#c92037"/><stop offset=".751" style="stop-color:#cd2335"/><stop offset="1" style="stop-color:#e97826"/></linearGradient><path d="M17.39 8.8c.28-.52.56-1.02.84-1.51.29-.51.59-1.01.89-1.48.02-.03.04-.06.05-.09.3-.47.6-.92.9-1.35l-.91-1.72c-.07.08-.14.17-.21.26-.26.33-.54.68-.81 1.05-.31.42-.64.87-.97 1.34-.3.44-.61.89-.92 1.36-.26.4-.53.82-.79 1.24-.01.02-.02.03-.03.05l1.18 2.34c.26-.51.52-1 .78-1.49z" style="fill:url(#SVGID_2_)"/><linearGradient id="SVGID_3_" x1="-6049.581" x2="-6030.454" y1="867.045" y2="867.045" gradientTransform="scale(1 -1) rotate(65.001 -2315.317 5173.865)" gradientUnits="userSpaceOnUse"><stop offset="0" style="stop-color:#282662"/><stop offset=".096" style="stop-color:#662e8d"/><stop offset=".788" style="stop-color:#9f2064"/><stop offset=".949" style="stop-color:#cd2032"/></linearGradient><path d="M11.99 21.99c-.16.43-.31.87-.47 1.32 0 .01 0 .01-.01.02-.02.06-.04.13-.07.19-.11.3-.2.57-.41 1.19.35.16.63.58.89 1.05-.03-.49-.23-.95-.62-1.31 1.72.08 3.2-.36 3.97-1.61.07-.11.13-.23.19-.36-.35.44-.78.63-1.59.58h-.01.01c1.2-.54 1.8-1.05 2.33-1.9.13-.2.25-.42.37-.67-1.05 1.07-2.26 1.38-3.54 1.15l-.96.1c-.02.09-.05.17-.08.25z" style="fill:url(#SVGID_3_)"/><linearGradient id="SVGID_4_" x1="-6051.652" x2="-6019.556" y1="870.565" y2="870.565" gradientTransform="scale(1 -1) rotate(65.001 -2315.317 5173.865)" gradientUnits="userSpaceOnUse"><stop offset=".323" style="stop-color:#9e2064"/><stop offset=".63" style="stop-color:#c92037"/><stop offset=".751" style="stop-color:#cd2335"/><stop offset="1" style="stop-color:#e97826"/></linearGradient><path d="M12.44 19.84c.21-.54.42-1.08.64-1.62.21-.52.43-1.05.65-1.58.22-.53.45-1.06.68-1.59.23-.54.47-1.08.72-1.61.24-.53.49-1.06.73-1.58.09-.19.18-.38.27-.56.16-.32.31-.64.47-.96.01-.02.02-.03.03-.05l-1.18-2.34-.06.09c-.28.45-.55.91-.82 1.38-.27.48-.54.96-.8 1.45-.22.41-.44.83-.65 1.25-.04.09-.08.17-.13.26-.26.53-.49 1.04-.7 1.54-.24.56-.45 1.09-.63 1.6-.12.33-.23.65-.33.96l-.24.79c-.18.62-.33 1.24-.45 1.86l1.19 2.35c.16-.42.32-.85.48-1.28.03-.12.08-.24.13-.36z" style="fill:url(#SVGID_4_)"/><linearGradient id="SVGID_5_" x1="-6049.311" x2="-6032.444" y1="870.13" y2="870.13" gradientTransform="scale(1 -1) rotate(65.001 -2315.317 5173.865)" gradientUnits="userSpaceOnUse"><stop offset="0" style="stop-color:#282662"/><stop offset=".096" style="stop-color:#662e8d"/><stop offset=".788" style="stop-color:#9f2064"/><stop offset=".949" style="stop-color:#cd2032"/></linearGradient><path d="M10.61 19.22c-.15.75-.26 1.5-.31 2.25 0 .03 0 .05-.01.08-.37-.6-1.37-1.18-1.36-1.17.71 1.03 1.25 2.06 1.33 3.06-.38.08-.9-.03-1.51-.26.63.58 1.1.74 1.29.78-.58.04-1.18.43-1.79.89.89-.36 1.6-.5 2.12-.39-.81 2.3-1.63 4.85-2.45 7.55.25-.07.4-.24.48-.47.15-.49 1.11-3.7 2.62-7.92.04-.12.09-.24.13-.36.01-.03.02-.07.04-.1.16-.44.33-.89.5-1.35.04-.1.08-.21.12-.31v-.01l-1.19-2.35c0 .02-.01.05-.01.08z" style="fill:url(#SVGID_5_)"/><linearGradient id="SVGID_6_" x1="-6051.652" x2="-6019.556" y1="867.242" y2="867.242" gradientTransform="scale(1 -1) rotate(65.001 -2315.317 5173.865)" gradientUnits="userSpaceOnUse"><stop offset=".323" style="stop-color:#9e2064"/><stop offset=".63" style="stop-color:#c92037"/><stop offset=".751" style="stop-color:#cd2335"/><stop offset="1" style="stop-color:#e97826"/></linearGradient><path d="M16.8 10.48c-.03.07-.07.14-.1.21-.1.21-.21.43-.31.65-.11.24-.23.48-.34.73-.06.13-.12.25-.18.38-.18.39-.36.78-.54 1.19-.22.5-.45 1.03-.68 1.57-.22.52-.44 1.06-.67 1.61-.22.53-.43 1.07-.65 1.63-.2.5-.39 1.02-.6 1.54-.01.03-.02.05-.03.08-.2.53-.4 1.06-.6 1.62 0 .01-.01.03-.01.04l.96-.1c-.02 0-.04-.01-.06-.01 1.15-.14 2.67-1 3.65-2.06.45-.49.87-1.06 1.25-1.73.28-.5.55-1.06.8-1.67.22-.54.43-1.12.64-1.75-.26.14-.56.24-.9.31l-.18.03-.18.03c1.07-.41 1.74-1.2 2.23-2.18-.28.19-.74.44-1.28.56-.07.02-.15.03-.23.04-.02 0-.04.01-.06.01.37-.16.68-.33.95-.53.06-.04.11-.09.17-.14.08-.07.16-.15.24-.23.05-.05.09-.1.14-.16.11-.13.21-.26.3-.41.03-.05.06-.09.08-.14.04-.07.07-.14.1-.2.15-.3.27-.57.36-.8.05-.12.09-.23.12-.33.01-.04.03-.08.04-.12.04-.11.07-.21.09-.3.04-.13.06-.24.07-.31l-.12.09c-.32.19-.88.37-1.32.45l.88-.1-.88.1h-.02c-.04.01-.09.01-.13.02.01 0 .02-.01.02-.01l-3.01.33c0 .04 0 .05-.01.06z" style="fill:url(#SVGID_6_)"/><linearGradient id="SVGID_7_" x1="-6053.643" x2="-6021.547" y1="867.406" y2="867.406" gradientTransform="scale(1 -1) rotate(65.001 -2315.317 5173.865)" gradientUnits="userSpaceOnUse"><stop offset=".323" style="stop-color:#9e2064"/><stop offset=".63" style="stop-color:#c92037"/><stop offset=".751" style="stop-color:#cd2335"/><stop offset="1" style="stop-color:#e97826"/></linearGradient><path d="M20.19 4.4c-.27.41-.56.88-.87 1.41-.02.03-.03.06-.05.08-.28.46-.57.96-.87 1.51-.26.47-.54.98-.82 1.53-.25.48-.5.98-.76 1.52l3.01-.33c.88-.4 1.27-.77 1.65-1.3.1-.15.2-.3.3-.46.31-.48.61-1.01.88-1.54.26-.51.49-1.02.67-1.47.11-.29.2-.56.27-.8.06-.21.1-.41.13-.6-1.17.21-2.61.4-3.54.45z" style="fill:url(#SVGID_7_)"/><path d="m18.24 14.77-.18.03.18-.03z" class="st2"/><path d="m18.24 14.77-.18.03.18-.03z" class="st3"/><linearGradient id="SVGID_8_" x1="-6051.652" x2="-6019.556" y1="866.254" y2="866.254" gradientTransform="scale(1 -1) rotate(65.001 -2315.317 5173.865)" gradientUnits="userSpaceOnUse"><stop offset=".323" style="stop-color:#9e2064"/><stop offset=".63" style="stop-color:#c92037"/><stop offset=".751" style="stop-color:#cd2335"/><stop offset="1" style="stop-color:#e97826"/></linearGradient><path d="m18.24 14.77-.18.03.18-.03z" style="fill:url(#SVGID_8_)"/><path d="M18.72 13.24c.02 0 .04-.01.06-.01-.02 0-.04 0-.06.01z" class="st2"/><path d="M18.72 13.24c.02 0 .04-.01.06-.01-.02 0-.04 0-.06.01z" class="st3"/><linearGradient id="SVGID_9_" x1="-6051.652" x2="-6019.556" y1="866.367" y2="866.367" gradientTransform="scale(1 -1) rotate(65.001 -2315.317 5173.865)" gradientUnits="userSpaceOnUse"><stop offset=".323" style="stop-color:#9e2064"/><stop offset=".63" style="stop-color:#c92037"/><stop offset=".751" style="stop-color:#cd2335"/><stop offset="1" style="stop-color:#e97826"/></linearGradient><path d="M18.72 13.24c.02 0 .04-.01.06-.01-.02 0-.04 0-.06.01z" style="fill:url(#SVGID_9_)"/><path d="M18.73 13.24c0-.01 0-.01 0 0z" class="st2"/><path d="M18.73 13.24c0-.01 0-.01 0 0z" class="st3"/><linearGradient id="SVGID_10_" x1="-6033.621" x2="-6026.527" y1="866.39" y2="866.39" gradientTransform="scale(1 -1) rotate(65.001 -2315.317 5173.865)" gradientUnits="userSpaceOnUse"><stop offset=".323" style="stop-color:#9e2064"/><stop offset=".63" style="stop-color:#c92037"/><stop offset=".751" style="stop-color:#cd2335"/><stop offset="1" style="stop-color:#e97826"/></linearGradient><path d="M18.73 13.24c0-.01 0-.01 0 0z" style="fill:url(#SVGID_10_)"/></svg>