<svg xmlns="http://www.w3.org/2000/svg" xml:space="preserve" id="Layer_1" x="0" y="0" style="enable-background:new 0 0 32 32" version="1.1" viewBox="0 0 32 32"><style>.st0{fill:#73b08f}.st1{fill:#c5e4d3}.st2{fill:#76c39b}</style><path d="m24.33 15.34-1.95-3.92.62 2.62 1.33 1.3z" class="st0"/><path d="m22.05 10.04 1.5 6.35-4.83-5.11-7.04-6.57L9.88 0l12.17 10.04z" class="st1"/><path d="m19.1 11.44-6.33-3.03L9.32 4.7l-.45-2.45 10.23 9.19z" class="st2"/><path d="m6.84 10.75-.56-.06-1.95-.72 3.99 3.66 1.05.81 4.18 1.39-6.71-5.08z" style="stroke:#000;stroke-width:1.122"/><path d="m23.22 16.4-.08 3.24-.31-.53-1.81-.12-4.18-2.4.96-1.68 5.42 1.49z" class="st2"/><path d="m6.22 12.83 5.2 3.97 5.4 1.8 4.16.38-4.14-2.4-10.62-3.75z" class="st1"/><path d="m8.74 15.99 3.61 2 4.2.42-5.08-1.58-.82-.51-1.91-.33z" class="st2"/><path d="m16.77 18.33-5.91-.52 3.04 1.17 2 .27.87-.92z" class="st0"/><path d="m15.43 19.25-.51.07-2.37.34 1.16-.79 1.72.38zm3.79.51-.12.21-8.65 5.01-1.71 2.26.61-2.43 1.88-2.58 5.38-3.63 2.61 1.16z" class="st2"/><path d="m9.76 22.23-1.52 2v-.87l1.52-1.13z"/><path d="m22.31 20.11-5.78 3.92-.48-.82-2 4.23.45.62.34 3.92-2.43-4.49 1.98-4.85 4.82-2.99 3.1.46z" class="st1"/><path d="m14.39 22.56-3.87 2.09-.11 2.88 1.19 3.87v-1.98l2.79-6.86z"/><path d="m9.59 28.09.06.2.51 2.14-.68-.42.11-1.92zm7.04-4.33-.52-.64-2.17 4.1 3.45 4.51-.85-2.01.09-5.96z" class="st0"/><path d="m17.04 23.51-.45.24-.03 4.91.85 1.78 1.58-.59-.06-1.18-1.72-1.69-.17-3.47z" class="st2"/><path d="m24.83 20.05-2.62.73-2.85 2.43-1.55-.06 4.49-3.02 2.53-.08z"/><path d="m23.75 20.37-.82-1.51-7.4-.58 3.32 1.38 4.9.71zm-4.31 2.74.37.87.79.57h.14l-.06.92-2.43 1.01-.82-1.88-.23-1.1.73-.6 1.51.21z" class="st0"/><path d="m20.73 27.98-1.47-.65-.56 1.16.2.28-.03 1.24 1.07 1.21-.17-2.29.25-.11.85.82-.39-.93-.9-.48.2-.34.96.42-.01-.33zm.37-4.82-.56 1.35.11 1.16 1.16 1.44-.14-2.31.17-.11.9.79-.37-.87-1.02-.54.17-.28 1.04.45-.03-.39-1.43-.69z"/><path d="m26.32 17.17-3.13-.73v2.93l.37.65 2.77.03 2.62.9-.08-.37-1.61-.93-3.22-1.27 1.83-.03-1.78-.82 2.23-.36z" class="st1"/><path d="m29.97 19.86-1.18-1.92-2.71-.82-2.14.4 1.69.85-1.58.06 2.96 1.27 1.69.82 1.27-.66z" class="st0"/><path d="m28.43 22.14.45-.68-.34-.87 1.41-.79.03 1.61-.85.76-.7-.03z"/><path d="m29.56 19.62-.97-.45-.52.45" style="stroke:#000;stroke-width:.3"/><path d="m23.94 16.67-5.97-1.52L6.48 8.54 2 2.39l17.23 9.14 4.71 5.14z"/><path d="M17.7 14.97v.18l-.77 1.44-4.03-1.32-7.49-5.62-2.92-4.18 3.34 2 .51.79 11.36 6.71z" class="st0"/></svg>