<svg xmlns="http://www.w3.org/2000/svg" fill="none" viewBox="0 0 152 152"><g clip-path="url(#a)"><path stroke="#06F" stroke-dasharray="2 2" stroke-linecap="round" stroke-linejoin="round" d="M47.501 72.472v23.401a4 4 0 0 1-2.012 3.471l-10.14 5.807"/><path stroke="#06F" stroke-linecap="round" stroke-linejoin="round" d="m109.462 133.602-24.276 13.894a20 20 0 0 1-19.679.125l-6.872-3.825a10 10 0 0 1-5.135-8.738v-24.082c0-2.994-3.168-4.926-5.83-3.557l-13.3 7.717"/><path fill="#fff" stroke="#333C5E" d="m57.429 1.937-.007.04v47.471a1.5 1.5 0 0 1-.738 1.293L1.27 83.389a.5.5 0 0 1-.754-.43V36.166c.066-.515.193-.947.435-1.376.26-.458.561-.812.96-1.042l.003-.002L56.532 1.509l.005-.003a.774.774 0 0 1 .66-.05c.192.129.262.297.232.481Z"/><path fill="url(#b)" d="M57.366 43.296S44.893 16.784 36.999 21.218c-16.795 9.435-1.913 33.449-8.674 36.914-6.953 3.564-14.708-15.418-27.321-1.263v26.11l55.373-32.448a2 2 0 0 0 .989-1.725v-5.51Z"/><path fill="#fff" stroke="#333C5E" d="m72.473 8.023-.007.04v47.471a1.5 1.5 0 0 1-.738 1.293l-55.44 32.649a.5.5 0 0 1-.753-.431V42.252c.066-.514.193-.946.436-1.375.259-.458.56-.812.959-1.042l.004-.002L71.576 7.595l.005-.003a.776.776 0 0 1 .66-.05c.192.129.263.297.232.48Z"/><path fill="#007BFC" d="m20.032 44.377 10.954-6.328-.001 35.67-10.954 6.329.001-35.671Z"/><path fill="url(#c)" d="m34 36.319 34.013-19.65v35.638L34 71.956V36.319Z"/><path fill="url(#d)" d="m21.99 55.7 3.03-1.75v3.939l-3.03 1.751V55.7Z"/><path fill="url(#e)" d="M21.991 61.904 29 57.856V72.9l-7.008 4.048V61.904Z"/><path fill="url(#f)" d="m25.997 53.486 2.999-1.732v3.94l-3 1.732v-3.94Z"/><path fill="url(#g)" d="m21.99 50.7 3.03-1.75v3.939l-3.03 1.751V50.7Z"/><path fill="url(#h)" d="m25.997 48.486 2.999-1.732v3.94l-3 1.732v-3.94Z"/><path fill="url(#i)" d="m21.99 45.7 3.03-1.75v3.939l-3.03 1.751V45.7Z"/><path fill="url(#j)" d="m25.997 43.486 2.999-1.732v3.94l-3 1.732v-3.94Z"/><ellipse cx="6.357" cy="6.359" fill="#06F" rx="6.357" ry="6.359" transform="matrix(.8659 -.50023 -.00003 1 49.89 43.247)"/><path fill="#fff" d="m48.258 36.103 6.386 9.09-12.773 7.38 6.387-16.47Z"/><path fill="url(#k)" d="M100.085 61.689h10.616V92.02h-10.616z" transform="rotate(114.473 100.085 61.689)"/><path fill="url(#l)" d="M102.065 62.578s2.753 3.108 1.252 6.405c-1.5 3.297-5.652 3.263-5.652 3.263l-1.971-.898 4.4-9.667 1.971.898Z"/><path fill="url(#m)" d="m72.492 49.121-4.395 9.657-6.16-8.582 10.555-1.075Z"/><path fill="url(#n)" fill-rule="evenodd" d="m64.52 53.81-2.588-3.608 4.436-.452-1.847 4.06Z" clip-rule="evenodd"/><path fill="#fff" stroke="#333C5E" stroke-linejoin="round" d="m150.657 47.127-8.367-14.518-19.867 11.488.078 19.235 28.156-16.205Z"/><path fill="url(#o)" d="m141.377 36.264 5.53 9.663-6.642 3.936-5.531-9.663 6.643-3.936Z"/><path fill="url(#p)" d="m132.992 41.243 5.53 9.663-6.643 3.936-5.53-9.663 6.643-3.936Z"/><path fill="url(#q)" d="m124.519 46.222 5.53 9.662-6.642 3.936-.843-1.471V49.937l.294-2.731 1.661-.984Z"/><path fill="#fff" stroke="#333C5E" stroke-linejoin="round" d="m107.493 1.597 15.009 8.894.002 52.844-15.01-8.894-.001-52.844Z"/><path fill="url(#r)" d="m110.016 6.082 9.992 5.769v10.402l-9.992-5.77V6.083Z"/><path fill="url(#s)" d="m110.016 19.082 9.992 5.769v10.402l-9.992-5.77V19.083Z"/><path fill="url(#t)" d="m110.016 32.082 9.992 5.769v10.402l-9.992-5.77V32.083Z"/><path fill="url(#u)" d="m94.043 94.429 42.949-24.799-.001 38.991-42.949 24.798.001-38.99Z"/><path fill="url(#v)" d="M96.018 95.737 102 92.282v6.17l-5.983 3.454v-6.17Z"/><path fill="url(#w)" d="m104 91.128 23-13.28v33.972l-23 13.276V91.128Z"/><path fill="url(#x)" d="m96.018 104.99 5.982-3.454v6.169l-5.983 3.455v-6.17Z"/><path fill="url(#y)" d="m96.002 114.253 5.998-3.464v6.17l-5.998 3.463v-6.169Z"/><path fill="url(#z)" d="m95.998 123.547 6.004-3.467v6.17l-6.004 3.467v-6.17Z"/><path fill="url(#A)" d="m129.033 76.674 5.979-3.452-.001 6.17-5.978 3.452v-6.17Z"/><path fill="url(#B)" d="m129.012 85.94 5.958-3.44v6.169l-5.958 3.44v-6.17Z"/><path fill="url(#C)" d="m128.992 95.204 5.999-3.463v6.17l-5.999 3.463v-6.17Z"/><path fill="url(#D)" d="m129.008 104.448 5.983-3.454v6.208l-5.983 3.455v-6.209Z"/><path fill="#fff" d="M111.004 110.067V99.032h9.046l-9.046 11.035Z"/><path fill="#06F" d="m109.044 95.429 42.948-24.799-.001 38.991-42.949 24.798.002-38.99Z"/><path fill="#007BFC" d="M111.018 96.737 117 93.282v6.17l-5.983 3.454.001-6.17ZM119 92.128l23-13.28v33.972l-23 13.276V92.128ZM111.018 105.99l5.982-3.454v6.169l-5.983 3.455.001-6.17ZM111.002 115.253l5.998-3.464v6.17l-5.998 3.463v-6.169ZM110.998 124.547l6.004-3.467v6.17l-6.004 3.467v-6.17ZM144.033 77.674l5.979-3.452-.001 6.17-5.978 3.452v-6.17ZM144.012 86.94l5.958-3.44v6.169l-5.958 3.44v-6.17ZM143.992 96.204l5.999-3.463v6.17l-5.999 3.463v-6.17ZM144.008 105.448l5.983-3.454v6.208l-5.983 3.455v-6.209Z"/><path fill="#fff" d="M126.004 111.067v-11.035h9.046l-9.046 11.035Z"/><path fill="url(#E)" d="M29.492 90.709c-.951-.464-1.422-.569-2.407 0L3.018 104.617c-1.662.96-3.009 3.295-3.009 5.216v27.814c0 .783.223 1.376.6 1.739 1.252 1.202 4.154 3.806 6.079 3.806l20.396-17.714c1.662-.96 3.009-3.296 3.009-5.216l4.764-25.028c.303-1.245-3.94-3.83-5.364-4.525Z"/><path fill="url(#F)" d="M35.004 95.925c0-1.92-1.342-2.699-2.998-1.739L8.022 108.094c-1.656.96-2.999 3.296-2.999 5.216v27.814c0 1.921 1.342 2.699 2.998 1.739l23.984-13.908c1.656-.96 2.998-3.295 2.998-5.216l.001-27.814Z"/><path fill="#007BFC" d="m17.562 114.367-3.937 14.789-1.61.929 4.535-16.35 1.037-.599-.025 1.231Zm3.3 10.611-3.945-10.239-.024-1.202 1.037-.599 4.55 11.106-1.618.934Zm-.204-4.966v1.49l-6.682 3.858v-1.49l6.682-3.858ZM25.606 108.428v13.733l-1.577.911v-13.733l1.577-.911Z"/><path fill="url(#G)" d="m74.169 85.39 14.872 21.479L87 108.052l-25.171-4.636 11.997-5.601-1.737-11.222 2.081-1.202Z"/><path fill="url(#H)" d="m87.007 108.052-27.705-4.163L71.3 98.288l.78-11.695 14.927 21.459Z"/></g><defs><linearGradient id="b" x1="-8.931" x2="64.183" y1="31.838" y2="48.487" gradientUnits="userSpaceOnUse"><stop stop-color="#97BEFC"/><stop offset="1" stop-color="#D7E6FE"/></linearGradient><linearGradient id="c" x1="29.565" x2="78.678" y1="57.256" y2="57.498" gradientUnits="userSpaceOnUse"><stop stop-color="#97BEFC"/><stop offset="1" stop-color="#D7E6FE"/></linearGradient><linearGradient id="d" x1="21.595" x2="25.974" y1="57.96" y2="57.978" gradientUnits="userSpaceOnUse"><stop stop-color="#97BEFC"/><stop offset="1" stop-color="#D7E6FE"/></linearGradient><linearGradient id="e" x1="21.078" x2="31.211" y1="70.189" y2="70.214" gradientUnits="userSpaceOnUse"><stop stop-color="#97BEFC"/><stop offset="1" stop-color="#D7E6FE"/></linearGradient><linearGradient id="f" x1="25.605" x2="29.939" y1="55.744" y2="55.761" gradientUnits="userSpaceOnUse"><stop stop-color="#97BEFC"/><stop offset="1" stop-color="#D7E6FE"/></linearGradient><linearGradient id="g" x1="21.595" x2="25.974" y1="52.96" y2="52.978" gradientUnits="userSpaceOnUse"><stop stop-color="#97BEFC"/><stop offset="1" stop-color="#D7E6FE"/></linearGradient><linearGradient id="h" x1="25.605" x2="29.939" y1="50.744" y2="50.761" gradientUnits="userSpaceOnUse"><stop stop-color="#97BEFC"/><stop offset="1" stop-color="#D7E6FE"/></linearGradient><linearGradient id="i" x1="21.595" x2="25.974" y1="47.96" y2="47.978" gradientUnits="userSpaceOnUse"><stop stop-color="#97BEFC"/><stop offset="1" stop-color="#D7E6FE"/></linearGradient><linearGradient id="j" x1="25.606" x2="29.939" y1="45.744" y2="45.761" gradientUnits="userSpaceOnUse"><stop stop-color="#97BEFC"/><stop offset="1" stop-color="#D7E6FE"/></linearGradient><linearGradient id="k" x1="89.152" x2="121.249" y1="72.368" y2="79.486" gradientUnits="userSpaceOnUse"><stop stop-color="#97BEFC"/><stop offset="1" stop-color="#ABCAFF"/></linearGradient><linearGradient id="l" x1="92.14" x2="105.558" y1="74.946" y2="62.157" gradientUnits="userSpaceOnUse"><stop stop-color="#AFCDFD"/><stop offset="1" stop-color="#D7E6FE"/></linearGradient><linearGradient id="m" x1="61.951" x2="73.691" y1="59.432" y2="48.74" gradientUnits="userSpaceOnUse"><stop stop-color="#AFCDFD"/><stop offset="1" stop-color="#D7E6FE"/></linearGradient><linearGradient id="n" x1="65.039" x2="57.942" y1="42.445" y2="58.598" gradientUnits="userSpaceOnUse"><stop stop-color="#97BEFC"/><stop offset="1" stop-color="#ABCAFF"/></linearGradient><linearGradient id="o" x1="137.231" x2="145.346" y1="37.034" y2="50.964" gradientUnits="userSpaceOnUse"><stop stop-color="#97BEFC"/><stop offset="1" stop-color="#D7E6FE"/></linearGradient><linearGradient id="p" x1="128.846" x2="136.961" y1="42.013" y2="55.943" gradientUnits="userSpaceOnUse"><stop stop-color="#97BEFC"/><stop offset="1" stop-color="#D7E6FE"/></linearGradient><linearGradient id="q" x1="120.373" x2="128.488" y1="46.991" y2="60.922" gradientUnits="userSpaceOnUse"><stop stop-color="#97BEFC"/><stop offset="1" stop-color="#D7E6FE"/></linearGradient><linearGradient id="r" x1="108.713" x2="123.223" y1="10.693" y2="10.764" gradientUnits="userSpaceOnUse"><stop stop-color="#97BEFC"/><stop offset="1" stop-color="#D7E6FE"/></linearGradient><linearGradient id="s" x1="108.713" x2="123.223" y1="23.693" y2="23.764" gradientUnits="userSpaceOnUse"><stop stop-color="#97BEFC"/><stop offset="1" stop-color="#D7E6FE"/></linearGradient><linearGradient id="t" x1="108.713" x2="123.223" y1="36.693" y2="36.764" gradientUnits="userSpaceOnUse"><stop stop-color="#97BEFC"/><stop offset="1" stop-color="#D7E6FE"/></linearGradient><linearGradient id="u" x1="91.197" x2="118.739" y1="118.223" y2="72.5" gradientUnits="userSpaceOnUse"><stop stop-color="#97BEFC"/><stop offset="1" stop-color="#ABCAFF"/></linearGradient><linearGradient id="v" x1="96.143" x2="100.387" y1="98.775" y2="92.111" gradientUnits="userSpaceOnUse"><stop stop-color="#AFCDFD"/><stop offset="1" stop-color="#D7E6FE"/></linearGradient><linearGradient id="w" x1="103.809" x2="126.855" y1="109.056" y2="71.37" gradientUnits="userSpaceOnUse"><stop stop-color="#AFCDFD"/><stop offset="1" stop-color="#D7E6FE"/></linearGradient><linearGradient id="x" x1="95.943" x2="100.424" y1="107.871" y2="101.27" gradientUnits="userSpaceOnUse"><stop stop-color="#AFCDFD"/><stop offset="1" stop-color="#D7E6FE"/></linearGradient><linearGradient id="y" x1="96.076" x2="100.22" y1="117.234" y2="110.627" gradientUnits="userSpaceOnUse"><stop stop-color="#AFCDFD"/><stop offset="1" stop-color="#D7E6FE"/></linearGradient><linearGradient id="z" x1="95.943" x2="100.079" y1="126.195" y2="119.46" gradientUnits="userSpaceOnUse"><stop stop-color="#AFCDFD"/><stop offset="1" stop-color="#D7E6FE"/></linearGradient><linearGradient id="A" x1="124.558" x2="132.129" y1="82.24" y2="69.147" gradientUnits="userSpaceOnUse"><stop stop-color="#AFCDFD"/><stop offset="1" stop-color="#D7E6FE"/></linearGradient><linearGradient id="B" x1="131.991" x2="134.663" y1="84.219" y2="88.846" gradientUnits="userSpaceOnUse"><stop stop-color="#AFCDFD"/><stop offset="1" stop-color="#D7E6FE"/></linearGradient><linearGradient id="C" x1="131.991" x2="134.663" y1="93.472" y2="98.1" gradientUnits="userSpaceOnUse"><stop stop-color="#AFCDFD"/><stop offset="1" stop-color="#D7E6FE"/></linearGradient><linearGradient id="D" x1="131.999" x2="134.688" y1="102.721" y2="107.377" gradientUnits="userSpaceOnUse"><stop stop-color="#AFCDFD"/><stop offset="1" stop-color="#D7E6FE"/></linearGradient><linearGradient id="E" x1="-2.35" x2="22.077" y1="126.486" y2="89.101" gradientUnits="userSpaceOnUse"><stop stop-color="#97BEFC"/><stop offset="1" stop-color="#ABCAFF"/></linearGradient><linearGradient id="F" x1="-11.846" x2="15.806" y1="134.905" y2="89.094" gradientUnits="userSpaceOnUse"><stop stop-color="#AFCDFD"/><stop offset="1" stop-color="#D7E6FE"/></linearGradient><linearGradient id="G" x1="61.252" x2="87.281" y1="100.344" y2="95.471" gradientUnits="userSpaceOnUse"><stop stop-color="#97BEFC"/><stop offset="1" stop-color="#ABCAFF"/></linearGradient><linearGradient id="H" x1="59.854" x2="89.624" y1="106.813" y2="95.282" gradientUnits="userSpaceOnUse"><stop stop-color="#AFCDFD"/><stop offset="1" stop-color="#D7E6FE"/></linearGradient><clipPath id="a"><path fill="#fff" d="M0 0h152v152H0z"/></clipPath></defs></svg>