<svg xmlns="http://www.w3.org/2000/svg" class="svg-illustration svg-ddos" x="0px" y="0px" viewBox="0 0 682 598">
	<path class="svg-ddos__st0" data-animation-line="" d="M632.7,303c0,0,21.4,12.4,34,20c10.5,6.3,17.7,18.5,2,29c-17.1,11.5-84.7,50.3-106,62  c-17.9,9.8-27,8.7-50-5c-20.9-12.4-125-73-125-73" stroke-dasharray="397.64215087890625" style="stroke-dashoffset: 5.68434e-14px;"/>
	<g>
		<g id="light-blocks">
			<g class="svg-blue-block animation-element" data-animation-block="" style="transform: translateY(8.88178e-16px); opacity: 1;">
				<path class="svg-blue-block__shadow" d="M550.3,256.5l41.4-23.9c3.5-2,9.5-1.7,13.5,0.6l39.4,22.7c4,2.3,4.4,5.8,1,7.8l-41.4,23.9c-3.5,2-9.5,1.7-13.5-0.6l-39.4-22.7C547.3,262,546.9,258.5,550.3,256.5z"/>
				<path class="svg-blue-block__middle" d="M648,243.5c0.2,1.4-0.6,2.8-2.3,3.8l-41.4,24.1c-3.5,2-9.5,1.8-13.5-0.6l-39.4-22.9c-2.2-1.3-3.3-2.9-3.3-4.4l0,0v-16.8h100L648,243.5L648,243.5z"/>
				<path class="svg-blue-block__top-dark" d="M550.3,223.4l41.4-24.1c3.5-2,9.5-1.8,13.5,0.6l39.4,22.9c4,2.3,4.4,5.8,1,7.9l-41.4,24.1c-3.5,2-9.5,1.8-13.5-0.6l-39.4-22.9C547.3,229,546.9,225.4,550.3,223.4z"/>
				<path class="svg-blue-block__middle" d="M648,220.4c0.2,1.4-0.6,2.8-2.3,3.8l-41.4,24.1c-3.5,2-9.5,1.8-13.5-0.6l-39.4-22.9c-2.2-1.3-3.3-2.9-3.3-4.4l0,0v-16.8h100L648,220.4L648,220.4z"/>
				<path class="svg-blue-block__top-dark" d="M550.3,200.1l41.4-23.9c3.5-2,9.5-1.7,13.5,0.6l39.4,22.7c4,2.3,4.4,5.8,1,7.8l-41.4,23.9c-3.5,2-9.5,1.7-13.5-0.6l-39.4-22.7C547.3,205.6,546.9,202.1,550.3,200.1z"/>
				<path class="svg-blue-block__middle" d="M648,196.7c0.2,1.4-0.6,2.8-2.3,3.8l-41.4,24c-3.5,2-9.5,1.8-13.5-0.6l-39.5-22.8c-2.2-1.3-3.3-2.9-3.3-4.4l0,0v-16.8h100V196.7z"/>
				<path class="svg-blue-block__top-light" d="M550.3,176.5l41.4-23.9c3.5-2,9.5-1.7,13.5,0.6l39.4,22.7c4,2.3,4.4,5.8,1,7.8l-41.4,23.9c-3.5,2-9.5,1.7-13.5-0.6l-39.4-22.7C547.3,182,546.9,178.5,550.3,176.5z"/>
			</g>
			<g class="svg-addon-light animation-element" data-animation-light="" style="transform: translateY(1.77636e-15px); opacity: 1;">
				<path class="svg-addon-light__1" d="M681.8,273.4c-0.3,2.5-2,4.8-5.2,6.6l-33.9,19.5L608.8,319c-8,4.1-17.5,4.1-25.4,0l-33.9-19.5L515.6,280c-2.9-1.7-4.6-3.9-5.1-6H510V134.1h171.9L681.8,273.4L681.8,273.4L681.8,273.4z"/>
				<path class="svg-addon-light__2" d="M681.8,272.2c0,0.2,0,0.4,0,0.6c0,2.6-1.8,5.3-5.3,7.3L608.7,319c-8,4.1-17.5,4.1-25.4,0l-67.7-39c-3.3-1.9-5.1-4.3-5.2-6.9h-0.1L510,102h171.9L681.8,272.2z"/>
				<path class="svg-addon-light__reflect" d="M510,360.8v-88c0,2.6,1.8,5.3,5.3,7.3l33.9,19.5l33.9,19.4c8,4.1,17.5,4.1,25.4,0l33.9-19.5l33.9-19.5c3.5-2,5.3-4.6,5.3-7.3c0-0.5-0.1-0.9-0.2-1.3h0.6v88.8L510,360.8z M510,272.8v-1.3h0.2C510.1,271.8,510,272.3,510,272.8z"/>
			</g>
		</g>
	</g>
	<g class="animation-element" data-animation-computer="" style="transform: translateY(1.77636e-15px); opacity: 1;">
		<path class="svg-ddos__st11" d="M429.2,301.7c-0.1-1.4-1-2.7-2.3-3.3l-48.8-28.1c-1.8-0.9-3.8-1.4-5.8-1.3c-1.7,0-3.4,0.3-5,1l-35,15.4l-3.2,9.6c0,0-19.4,0.8-19.4,2.1c0,0.7,0,4,0,4.7c0.1,1.5,1,2.7,2.3,3.3l60.4,34.7c3.7,1.8,7.9,1.8,11.6,0c0.2-0.2,0.4-0.3,0.7-0.3l43.1-31.4c1.1-0.6,1.8-1.7,1.8-3C429.2,304.3,429.2,302.4,429.2,301.7"/>
		<path class="svg-ddos__st12" d="M467.1,308.4L263,13.7c0,0,5.8-3.6,6.9-4.3c2.2-1.3,5.4,0.9,6.9,1.7l190.6,110c1.6,1.1,3,2.6,4,4.3c1,1.7,1.6,3.6,1.7,5.6v174.1L467.1,308.4zM363.7,258.4c0.9,0,1.8,0.3,2.6,0.8c3.5,2.2,5.6,5.9,5.8,9.9c0,2.6-1.3,4.1-3.2,4.1c-0.9,0-1.8-0.3-2.6-0.8c-3.4-2.2-5.5-5.9-5.8-9.9C360.5,259.9,361.8,258.4,363.7,258.4z"/>
		<path class="svg-ddos__st13" d="M471.4,343.4c-0.9,0.4-1.8,0.7-2.8,0.6l-31-49.7l16.6,3.7l13,9.5l5.9-3.1v35.3C473,341.4,472.5,342.7,471.4,343.4z"/>
		<path class="svg-ddos__st14" d="M384.2,336.1l14.5-10.7L331.2,286l-18.5,8.5c-0.2,0.1-0.5,0.2-0.7,0.3c-1.8,0.7-2.8,2.8-2.1,4.6c0.4,1,1.1,1.7,2.1,2.1l60.1,35.1c3.6,1.8,7.9,1.8,11.6,0C383.7,336.4,383.9,336.2,384.2,336.1z"/>
		<path class="svg-ddos__st15" d="M262,221.7V185l207,119.2v37.9c0,2.1-1.6,2.6-4.4,0.9c-28.5-16.5-173.1-99.8-198.8-114.5C262,226.4,262,223.6,262,221.7z"/>
		<path class="svg-ddos__st16" d="M363,258c-2,0-3.4,1.5-3.4,4.1c0.3,4.1,2.5,7.9,6,10.1c0.8,0.5,1.7,0.7,2.7,0.8c2,0,3.3-1.5,3.3-4.1c-0.2-4.1-2.4-7.9-6-10.1C364.9,258.3,364,258,363,258"/>
		<path class="svg-ddos__st17" d="M268.1,12.4c22.9,13.2,165.5,94.5,195.6,111.8c5,2.9,5.3,8,5.3,11.3V306L262,186.8V15.3C262,14,265,10.9,268.1,12.4z"/>
		<path class="svg-ddos__st18" d="M460,290L271,180.8V23l189,108.2V290z"/>
		<path class="svg-ddos__st19" d="M297.7,127.3V72l132,77.7V205L297.7,127.3z M297.7,51l26,15.8V78l-26-15.8V51zM337.7,203l-40-23.7V135l40,23.7V203z M383.7,230l-40-23.7V162l40,23.7V230z M429.7,257l-40-23.7V189l40,23.7V257z"/>
		<path class="svg-ddos__st20" d="M354.7,88l11.7,6.8 M375.5,100l12.4,7.1 M396.2,112l11.4,6.6 M417.5,124.2l12.2,6.8"/>
		<g id="shield">
			<path data-animation-shield="" class="svg-ddos__st21 animation-element" d="M357.6,195.8c0.3,0.4,0.7,0.7,1.1,1c0.3,0.2,0.7,0.3,1.1,0.2c0,0,10.7-2.2,18.3-3.5c9.5-1.7,8.5-11.4,8.5-16.5v-36.8c0-0.7-0.2-1.4-0.6-2c-0.2-0.5-0.6-0.8-1-1.2l-26-22.2c-0.2-0.1-0.3-0.2-0.5-0.4c-0.1-0.1-0.3-0.2-0.5-0.2l-25.9-8.2c-0.3-0.1-0.7-0.1-1,0.1c-0.4,0.3-0.6,0.8-0.6,1.3v38.1c0,8.4,0.6,14.6,5.5,21.2C343.6,176.9,357.6,195.8,357.6,195.8z" style="opacity: 1;"/>
			<path data-animation-shield="" class="svg-ddos__st22 animation-element" d="M343.6,204.8c0.3,0.4,0.7,0.7,1.1,1c0.3,0.2,0.7,0.3,1.1,0.2c0,0,10.7-2.2,18.3-3.5c9.5-1.7,8.5-11.4,8.5-16.5v-36.8c0-0.7-0.2-1.4-0.6-2c-0.2-0.5-0.6-0.8-1-1.2l-26-22.2c-0.2-0.1-0.3-0.2-0.5-0.4c-0.1-0.1-0.3-0.2-0.5-0.2l-25.9-8.2c-0.3-0.1-0.7-0.1-1,0.1c-0.4,0.3-0.6,0.8-0.6,1.3v38.1c0,8.4,0.6,14.6,5.5,21.2C329.6,185.9,343.6,204.8,343.6,204.8z" style="opacity: 1;"/>
			<g class="animation-element" data-animation-shield="" style="opacity: 1;">
				<path class="svg-ddos__st23" d="M329.6,215.8c0.3,0.4,0.7,0.7,1.1,1c0.3,0.2,0.7,0.3,1.1,0.2c0,0,10.7-2.2,18.3-3.5c9.5-1.7,8.5-11.4,8.5-16.5v-36.8c0-0.7-0.2-1.4-0.6-2c-0.2-0.5-0.6-0.8-1-1.2l-26-22.2c-0.2-0.1-0.3-0.2-0.5-0.4c-0.1-0.1-0.3-0.2-0.5-0.2l-25.9-8.2c-0.3-0.1-0.7-0.1-1,0.1c-0.4,0.3-0.6,0.8-0.6,1.3v38.1c0,8.4,0.6,14.6,5.5,21.2C315.6,196.9,329.6,215.8,329.6,215.8z"/>
				<path class="svg-ddos__st24" d="M320.8,174.3l7.2,11.5l16.3-18.7"/>
			</g>

		</g>
	</g>
	<g class="animation-element" data-animation-wall="" style="transform: translateY(8.88178e-16px); opacity: 1;">
		<g>
			<path class="svg-ddos__st25" d="M413.7,533v63l156-10V453L413.7,533z"/>
			<path class="svg-ddos__st26" d="M35.7,317v108l378,174v-67L35.7,317z"/>
		</g>
		<path class="svg-ddos__st27" d="M183,224.5L36,309V142.3l0.1-0.1c-0.4-2.8,1.2-5.7,4.8-7.9l0.3-0.4L187,50.5l14,6.4v172.2L183,224.5z"/>
		<path class="svg-ddos__st28" d="M58.7,311V144c0-5.5,2.4-6.5,5.1-8.1l136.9-78.5v172L58.7,311z"/>
		<path class="svg-ddos__st27" d="M416.5,417.4l-0.3-1.3L58.5,207.4l-4.8-6.4v-68l6,10l357,208v0.3l138-78.8l15,8.4L416.5,417.4z"/>
		<path class="svg-ddos__st29" d="M434.7,532.1h-0.6c-4.1,2-8.6,3-13.1,2.8l0,0h-0.2c-4.3,0-8.6-1.1-12.4-3.1c-0.1,0-0.2-0.1-0.2-0.1l-2.7-0.7L43.1,321.7c-0.6-0.3-1.1-0.5-1.7-0.8c-3.4-1.9-5.1-4.4-5.4-6.9l0,0V141.7c0,4.2,1.6,5.2,4.7,7s350.8,202.7,357.4,206.8c10.8,6.5,24.1,11.1,36.1,4S570,281,570,281v172L434.7,532.1z"/>
	</g>
	<g>
		<g>
			<g class="animation-element" data-animation-target="" style="opacity: 1;">
				<path class="svg-ddos__st30" d="M137.2,246.6c22.4,13,40.6,44.5,40.6,70.4s-18.2,36.4-40.6,23.5S96.5,295.9,96.5,270S114.7,233.6,137.2,246.6z"/>
				<path class="svg-ddos__st31" d="M137.2,268.8c11.8,6.8,21.4,23.4,21.4,37s-9.6,19.2-21.4,12.4s-21.4-23.4-21.4-37S125.4,262,137.2,268.8z"/>
				<path class="svg-ddos__st32" d="M137.2,281.7c5.6,3.3,10.2,11.1,10.2,17.6s-4.6,9.1-10.2,5.9S127,294.1,127,287.6S131.6,278.5,137.2,281.7z"/>
				<path class="svg-ddos__st33" d="M137.2,289.6c2,1.3,3.3,3.5,3.4,5.9c0,2.2-1.5,3-3.4,2c-2-1.3-3.3-3.5-3.4-5.9C133.8,289.4,135.3,288.5,137.2,289.6z"/>
			</g>

			<path class="svg-ddos__st34" data-animation-arrow="" d="M86.7,322l50-28l-80-47" stroke-dasharray="150.0908966064453" style="stroke-dashoffset: 2.84217e-14px;"/>
			<path class="svg-ddos__st34" data-animation-arrow="" d="M63.7,336l-30,17l30,17" stroke-dasharray="68.96376037597656" style="stroke-dashoffset: 1.42109e-14px;"/>
			<path class="svg-ddos__st23 animation-element" data-animation-arrowhead="" d="M56,246l10,12v-11L56,246z" style="opacity: 1;"/>
		</g>
		<g>
			<g class="animation-element" data-animation-target="" style="opacity: 1;">
				<path class="svg-ddos__st37" d="M232.2,306.6c22.4,13,40.6,44.5,40.6,70.4s-18.2,36.4-40.6,23.5S191.5,356,191.5,330S209.7,293.6,232.2,306.6z"/>
				<path class="svg-ddos__st31" d="M232.2,328.8c11.8,6.8,21.4,23.4,21.4,37s-9.6,19.2-21.4,12.4s-21.4-23.4-21.4-37S220.4,322,232.2,328.8z"/>
				<path class="svg-ddos__st32" d="M232.2,341.7c5.6,3.3,10.2,11.1,10.2,17.6s-4.6,9.1-10.2,5.9S222,354.1,222,347.6S226.6,338.5,232.2,341.7z"/>
				<path class="svg-ddos__st33" d="M232.2,349.6c2,1.3,3.3,3.5,3.4,5.9c0,2.2-1.5,3-3.4,2c-2-1.3-3.3-3.5-3.4-5.9C228.8,349.4,230.3,348.5,232.2,349.6z"/>
			</g>
			<path class="svg-ddos__st34" data-animation-arrow="" d="M172.5,388l60-34v-80" stroke-dasharray="148.96376037597656" style="stroke-dashoffset: 2.84217e-14px;"/>
			<path class="svg-ddos__st23 animation-element" data-animation-arrowhead="" d="M227.9,279.3l9.6,5.8l-5-15.2L227.9,279.3z" style="opacity: 1;"/>
		</g>
		<g>
			<g class="animation-element" data-animation-target="" style="opacity: 1;">
				<path class="svg-ddos__st35" d="M333.2,356.6c22.4,13,40.6,44.5,40.6,70.4s-18.2,36.4-40.6,23.5S292.5,406,292.5,380S310.7,343.6,333.2,356.6z"/>
				<path class="svg-ddos__st31" d="M333.2,378.8c11.8,6.8,21.4,23.4,21.4,37s-9.6,19.2-21.4,12.4s-21.4-23.4-21.4-37S321.4,372,333.2,378.8z"/>
				<path class="svg-ddos__st32" d="M333.2,391.7c5.6,3.3,10.2,11.1,10.2,17.6s-4.6,9.1-10.2,5.9S323,404.1,323,397.6S327.6,388.5,333.2,391.7z"/>
				<path class="svg-ddos__st36" d="M333.2,399.6c2,1.3,3.3,3.5,3.4,5.9c0,2.2-1.5,3-3.4,2c-2-1.3-3.3-3.5-3.4-5.9C329.8,399.4,331.3,398.5,333.2,399.6z"/>
			</g>
			<path class="svg-ddos__st34" data-animation-arrow="" d="M387.7,436l-55-33l-103,61l-23-13" stroke-dasharray="210.2681427001953" style="stroke-dashoffset: 2.84217e-14px;"/>
			<path class="svg-ddos__st23 animation-element" data-animation-arrowhead="" d="M385,429v10l11,2L385,429z" style="opacity: 1;"/>
		</g>
	</g>
	<path class="svg-ddos__st34" data-animation-arrow="" d="M134.5,468v32l13-7" stroke-dasharray="46.76482391357422" style="stroke-dashoffset: 7.10543e-15px;"/>
	<path class="svg-ddos__st23 animation-element" data-animation-arrowhead="" d="M152.7,490l-14,3l9,6L152.7,490z" style="opacity: 1;"/>
	<g class="animation-element" data-animation-screen="" style="transform: translateY(8.88178e-16px); opacity: 1;">
		<path class="svg-ddos__st38" d="M69.4,279.7l146.1,84.2c2.4,1.4,4.4,4.5,4.4,7v144.6c0,2.5-2,3.3-4.4,1.9L69.4,433.1c-2.4-1.4-4.4-4.5-4.4-7V281.6C65,279.1,67,278.3,69.4,279.7z"/>
		<path class="svg-ddos__st39" d="M76,296.7c1.4,0.9,2.3,2.5,2.4,4.2c0,1.5-1.1,2.2-2.4,1.4c-1.4-0.9-2.3-2.5-2.4-4.2C73.6,296.5,74.6,295.9,76,296.7z"/>
		<path class="svg-ddos__st39" d="M83.2,300.7c1.4,0.9,2.3,2.5,2.4,4.2c0,1.5-1.1,2.2-2.4,1.4c-1.4-0.9-2.3-2.5-2.4-4.2C80.8,300.5,81.8,299.9,83.2,300.7z"/>
		<path class="svg-ddos__st39" d="M90.4,304.7c1.4,0.9,2.3,2.5,2.4,4.2c0,1.5-1.1,2.2-2.4,1.4c-1.4-0.9-2.3-2.5-2.4-4.2C88,304.5,89,303.9,90.4,304.7z"/>
		<g>
			<path class="svg-ddos__st24" d="M100.8,365.5v25.9l7.9,4.6c4.7,2.7,6.1,0.2,6.1-3.5v-13c0-3.9-2.2-7.4-5.6-9.2C106.9,369,100.8,365.5,100.8,365.5z"/>
			<path class="svg-ddos__st24" d="M119.5,376.3v25.9l7.9,4.6c4.7,2.7,6.1,0.2,6.1-3.5v-13c0-3.9-2.2-7.4-5.6-9.2C125.6,379.8,119.5,376.3,119.5,376.3z"/>
			<path class="svg-ddos__st24" d="M168.1,404.9c0,0-5.1-2.9-9.8-5.7c-3.1-1.8-3.7,0.6-3.7,3.2v2.7c0.1,3,1.7,5.7,4.2,7.3c2.2,1.3,2.2,1.3,5.1,3s4.7,5.2,4.7,7v3.8c0,3-1.6,3.9-4.2,2.4s-9.3-5.4-9.3-5.4"/>
			<path class="svg-ddos__st24" d="M142.6,401.4l2.9,1.7c2.7,1.5,4.9,5,4.9,7.7v4.9c0,2.7-2.2,3.6-4.9,2l-2.9-1.7c-2.7-1.5-4.9-5-4.9-7.7v-4.9C137.7,400.8,139.9,399.9,142.6,401.4z"/>
		</g>
	</g>
	<defs>
		<style type="text/css">
			.svg-ddos__st0 {
				fill: none;
				stroke: #007BFC;
			}

			.svg-ddos__st1 {
				opacity: 0.32;
				enable-background: new;
			}

			.svg-ddos__st11 {
				fill: #C3CADC;
			}

			.svg-ddos__st12 {
				fill: #7D8AB6;
			}

			.svg-ddos__st13 {
				fill: #D8DDF0;
			}

			.svg-ddos__st14 {
				fill: #E3E6EF;
			}

			.svg-ddos__st15 {
				fill: url(#svg-ddos__gradient-2);
			}

			.svg-ddos__st16 {
				opacity: 0.4;
				fill: #0F1734;
				enable-background: new;
			}

			.svg-ddos__st17 {
				fill: url(#svg-ddos__gradient-1);
			}

			.svg-ddos__st18 {
				opacity: 0.5;
				fill: #0D142E;
				enable-background: new;
			}

			.svg-ddos__st19 {
				opacity: 0.16;
				enable-background: new;
			}

			.svg-ddos__st20 {
				opacity: 0.16;
				fill: none;
				stroke: #000000;
				stroke-width: 2;
				stroke-linecap: round;
				stroke-linejoin: round;
				enable-background: new;
			}

			.svg-ddos__st21 {
				opacity: 0.4;
				fill: url(#svg-ddos__gradient-4);
				enable-background: new;
			}

			.svg-ddos__st22 {
				opacity: 0.4;
				fill: url(#svg-ddos__gradient-3);
				enable-background: new;
			}

			.svg-ddos__st23 {
				fill: #007CFC;
			}

			.svg-ddos__st24 {
				fill: none;
				stroke: #FFFFFF;
				stroke-width: 4;
				stroke-linecap: round;
				stroke-linejoin: round;
			}

			.svg-ddos__st25 {
				opacity: 0.24;
				fill: url(#svg-ddos__gradient-7);
				enable-background: new;
			}

			.svg-ddos__st26 {
				opacity: 0.48;
				fill: url(#svg-ddos__gradient-);
				enable-background: new;
			}

			.svg-ddos__st27 {
				fill: #F0F3FF;
			}

			.svg-ddos__st28 {
				fill: url(#svg-ddos__gradient-6);
			}

			.svg-ddos__st29 {
				fill: url(#svg-ddos__gradient-5);
			}

			.svg-ddos__st30 {
				opacity: 0.4;
				fill: url(#svg-ddos__gradient-11);
				enable-background: new;
			}

			.svg-ddos__st31 {
				opacity: 0.1;
				fill: #007CFC;
				enable-background: new;
			}

			.svg-ddos__st32 {
				opacity: 0.3;
				fill: #007CFC;
				enable-background: new;
			}

			.svg-ddos__st33 {
				opacity: 0.5;
				fill: #007CFC;
				enable-background: new;
			}

			.svg-ddos__st34 {
				fill: none;
				stroke: #007CFC;
			}

			.svg-ddos__st35 {
				opacity: 0.4;
				fill: url(#svg-ddos__gradient-10);
				enable-background: new;
			}

			.svg-ddos__st36 {
				opacity: 0.6;
				fill: #007CFC;
				enable-background: new;
			}

			.svg-ddos__st37 {
				opacity: 0.4;
				fill: url(#svg-ddos__gradient-9);
				enable-background: new;
			}

			.svg-ddos__st38 {
				fill: url(#svg-ddos__gradient-8);
			}

			.svg-ddos__st39 {
				opacity: 0.4;
				enable-background: new;
			}
		</style>
		<linearGradient id="svg-ddos__gradient-1" gradientUnits="userSpaceOnUse" x1="262" y1="326.9996" x2="469" y2="326.9996" gradientTransform="matrix(1 0 0 1 0 -168)">
			<stop offset="1.000000e-02" style="stop-color:#3F4B75"/>
			<stop offset="1" style="stop-color:#636F99"/>
		</linearGradient>
		<linearGradient id="svg-ddos__gradient-2" gradientUnits="userSpaceOnUse" x1="262" y1="432.5114" x2="469" y2="432.5114" gradientTransform="matrix(1 0 0 1 0 -168)">
			<stop offset="0" style="stop-color:#CAD1E0"/>
			<stop offset="1" style="stop-color:#CAD1E0"/>
		</linearGradient>
		<linearGradient id="svg-ddos__gradient-3" gradientUnits="userSpaceOnUse" x1="344.5651" y1="374.0392" x2="344.5651" y2="282.9343" gradientTransform="matrix(1 0 0 1 0 -168)">
			<stop offset="0" style="stop-color:#17BDFF"/>
			<stop offset="0.8" style="stop-color:#17BDFF;stop-opacity:0.2"/>
		</linearGradient>
		<linearGradient id="svg-ddos__gradient-4" gradientUnits="userSpaceOnUse" x1="358.5651" y1="365.0392" x2="358.5651" y2="273.9343" gradientTransform="matrix(1 0 0 1 0 -168)">
			<stop offset="0" style="stop-color:#17BDFF"/>
			<stop offset="0.8" style="stop-color:#17BDFF;stop-opacity:0.2"/>
		</linearGradient>
		<linearGradient id="svg-ddos__gradient-5" gradientUnits="userSpaceOnUse" x1="36" y1="506.3125" x2="570" y2="506.3125" gradientTransform="matrix(1 0 0 1 0 -168)">
			<stop offset="0" style="stop-color:#CAD1E0"/>
			<stop offset="0.67" style="stop-color:#BEC5D8"/>
			<stop offset="0.76" style="stop-color:#D4D9E6"/>
			<stop offset="1" style="stop-color:#E4E7F0"/>
		</linearGradient>
		<linearGradient id="svg-ddos__gradient-6" gradientUnits="userSpaceOnUse" x1="58.7" y1="352.2" x2="200.7" y2="352.2" gradientTransform="matrix(1 0 0 1 0 -168)">
			<stop offset="0" style="stop-color:#CAD1E0"/>
			<stop offset="1" style="stop-color:#CAD1E0"/>
		</linearGradient>
		<linearGradient id="svg-ddos__gradient-" gradientUnits="userSpaceOnUse" x1="239.9072" y1="599.6605" x2="191.7393" y2="683.0895" gradientTransform="matrix(1 0 0 1 0 -168)">
			<stop offset="0" style="stop-color:#CFD4E2"/>
			<stop offset="0.7" style="stop-color:#CFD4E2;stop-opacity:0"/>
		</linearGradient>
		<linearGradient id="svg-ddos__gradient-7" gradientUnits="userSpaceOnUse" x1="475.8806" y1="665.1" x2="537.8303" y2="772.4" gradientTransform="matrix(1 0 0 1 0 -168)">
			<stop offset="0" style="stop-color:#CFD4E2"/>
			<stop offset="0.7" style="stop-color:#CFD4E2;stop-opacity:0"/>
		</linearGradient>
		<linearGradient id="svg-ddos__gradient-8" gradientUnits="userSpaceOnUse" x1="65" y1="566.55" x2="219.9" y2="566.55" gradientTransform="matrix(1 0 0 1 0 -168)">
			<stop offset="1.000000e-02" style="stop-color:#3F4B75"/>
			<stop offset="1" style="stop-color:#636F99"/>
		</linearGradient>
		<linearGradient id="svg-ddos__gradient-9" gradientUnits="userSpaceOnUse" x1="232.15" y1="574.0143" x2="232.15" y2="469.0033" gradientTransform="matrix(1 0 0 1 0 -168)">
			<stop offset="0" style="stop-color:#17BDFF"/>
			<stop offset="0.8" style="stop-color:#17BDFF;stop-opacity:0.2"/>
		</linearGradient>
		<linearGradient id="svg-ddos__gradient-10" gradientUnits="userSpaceOnUse" x1="333.15" y1="624.0143" x2="333.15" y2="519.0034" gradientTransform="matrix(1 0 0 1 0 -168)">
			<stop offset="0" style="stop-color:#17BDFF"/>
			<stop offset="0.8" style="stop-color:#17BDFF;stop-opacity:0.2"/>
		</linearGradient>
		<linearGradient id="svg-ddos__gradient-11" gradientUnits="userSpaceOnUse" x1="137.15" y1="514.0143" x2="137.15" y2="409.0214" gradientTransform="matrix(1 0 0 1 0 -168)">
			<stop offset="0" style="stop-color:#17BDFF"/>
			<stop offset="0.8" style="stop-color:#17BDFF;stop-opacity:0.2"/>
		</linearGradient>
	</defs>
</svg>