<svg xmlns="http://www.w3.org/2000/svg" fill="none" viewBox="0 0 152 152"><path fill="#fff" fill-rule="evenodd" stroke="#333C5E" d="M83.388 50.771v.182c-.182.486-.546.91-.97 1.093L64.024 62.243c-1.336.729-3.703.668-5.22-.182l-15.843-8.68c-.971-.546-1.396-1.275-1.275-1.882V34.302a1.42 1.42 0 0 1 .91-1.032L60.99 23.01c1.7-.728 3.642-.667 5.22.183l15.843 8.68c.971.546 1.457 1.274 1.335 1.942v16.955Z" clip-rule="evenodd"/><path fill="url(#a)" fill-rule="evenodd" d="M42.661 33.088 61.036 22.95c1.339-.729 3.65-.668 5.233.182l15.88 8.62c1.521.85 1.643 1.881.365 2.61L64.808 44.498c-1.338.729-4.32 1.093-5.901.183l-15.881-8.68c-2.799-1.518-.487-2.854-.365-2.914Z" clip-rule="evenodd"/><path fill="#fff" fill-rule="evenodd" stroke="#333C5E" stroke-dasharray="2 2" stroke-linecap="round" d="M57.152 66v.178c-.178.475-.535.892-.952 1.07l-18.025 9.995c-1.308.713-3.629.654-5.116-.179l-15.526-8.507c-.952-.535-1.369-1.25-1.25-1.844V49.859c.12-.476.417-.833.893-1.012L35.2 38.794c1.666-.714 3.57-.654 5.116.178l15.526 8.507c.952.535 1.428 1.25 1.309 1.904v16.616ZM107.235 64.932v.178c-.178.477-.535.893-.952 1.071l-18.025 9.994c-1.308.714-3.629.655-5.116-.178L67.616 67.49c-.952-.535-1.368-1.25-1.25-1.844V48.792c.12-.476.417-.833.893-1.012l18.025-10.053c1.665-.714 3.57-.655 5.116.178l15.526 8.507c.952.535 1.428 1.25 1.309 1.904v16.616Z" clip-rule="evenodd"/><path fill="#fff" fill-rule="evenodd" stroke="#333C5E" stroke-dasharray="2 2" stroke-linecap="round" d="M81.474 78.917v.179c-.178.476-.535.892-.952 1.07l-18.025 9.995c-1.308.713-3.628.654-5.115-.179l-15.527-8.507c-.952-.535-1.368-1.249-1.25-1.844V62.777c.12-.476.417-.833.893-1.011l18.025-10.054c1.666-.714 3.57-.654 5.116.178l15.527 8.507c.951.536 1.427 1.25 1.308 1.904v16.616Z" clip-rule="evenodd"/><path fill="url(#b)" fill-rule="evenodd" d="m17.056 47.641 18.376-10.137c1.338-.728 3.65-.668 5.232.182l15.88 8.62c1.522.85 1.644 1.881.366 2.61L39.204 59.053c-1.339.728-4.32 1.092-5.902.182l-15.88-8.68c-2.8-1.518-.487-2.853-.366-2.914Z" clip-rule="evenodd"/><path fill="url(#c)" fill-rule="evenodd" d="m66.837 46.714 18.375-10.137c1.338-.728 3.65-.667 5.233.182l15.88 8.62c1.521.85 1.643 1.882.365 2.61L88.984 58.126c-1.338.728-4.32 1.093-5.902.182l-15.88-8.68c-2.8-1.518-.487-2.853-.365-2.914Z" clip-rule="evenodd"/><path fill="url(#d)" fill-rule="evenodd" d="m41.232 60.615 18.375-10.137c1.339-.728 3.651-.667 5.233.183l15.88 8.62c1.522.849 1.643 1.88.366 2.61L63.38 72.026c-1.339.728-4.32 1.093-5.902.182l-15.88-8.68c-2.8-1.517-.487-2.853-.366-2.914Z" clip-rule="evenodd"/><path fill="url(#e)" d="M.66 72.118a1 1 0 0 0 .504.87l57.72 32.873c.617.352 1.373.35 1.988-.005l57.968-33.417a1 1 0 0 0 .501-.866V39.48l-.914.913c-.123.123-.262.23-.413.317L61 73.66a2 2 0 0 1-2 .001L1.912 40.743a2.001 2.001 0 0 1-.501-.41l-.752-.853v32.639Z" opacity=".6"/><path stroke="#007BFC" stroke-linecap="round" stroke-linejoin="round" d="M1.538 38.786a1 1 0 0 0-.006 1.74L58.89 73.278a2 2 0 0 0 1.98.002l57.59-32.752a1 1 0 0 0-.005-1.741L60.859 6.512a2 2 0 0 0-1.958.002L1.538 38.786Z"/><path fill="url(#f)" fill-rule="evenodd" d="M83.388 28.695v.182c-.182.485-.546.91-.97 1.092L64.024 40.167c-1.336.728-3.703.667-5.22-.182l-15.843-8.68c-.971-.547-1.396-1.275-1.275-1.882V12.225a1.42 1.42 0 0 1 .91-1.032L60.99.935c1.7-.728 3.642-.668 5.22.182l15.843 8.68c.971.546 1.457 1.275 1.335 1.943v16.955Z" clip-rule="evenodd"/><path fill="url(#g)" fill-rule="evenodd" d="M42.661 11.011 61.036.874c1.339-.728 3.65-.667 5.233.182l15.88 8.62c1.521.85 1.643 1.882.365 2.61L64.808 22.423c-1.338.728-4.32 1.093-5.901.182l-15.881-8.68c-2.799-1.518-.487-2.853-.365-2.914Z" clip-rule="evenodd"/><path fill="url(#h)" fill-rule="evenodd" d="M57.784 42.596v.182c-.182.485-.547.91-.971 1.092L38.42 54.068c-1.335.728-3.702.668-5.22-.182l-15.843-8.68c-.97-.547-1.396-1.275-1.274-1.882V26.126a1.42 1.42 0 0 1 .91-1.032l18.392-10.258c1.7-.728 3.642-.668 5.22.182l15.843 8.68c.972.547 1.457 1.275 1.336 1.943v16.955Z" clip-rule="evenodd"/><path fill="url(#i)" fill-rule="evenodd" d="m17.056 24.913 18.376-10.138c1.338-.728 3.65-.667 5.232.183l15.88 8.62c1.522.849 1.644 1.88.366 2.61L39.204 36.323c-1.339.729-4.32 1.093-5.902.182l-15.88-8.68c-2.8-1.517-.487-2.853-.366-2.913Z" clip-rule="evenodd"/><path fill="url(#j)" fill-rule="evenodd" d="M107.564 41.32v.183c-.182.485-.546.91-.971 1.092L88.201 52.793c-1.336.728-3.703.668-5.22-.182l-15.843-8.68c-.972-.546-1.396-1.275-1.275-1.882V24.851a1.42 1.42 0 0 1 .91-1.031L85.166 13.56c1.7-.728 3.642-.668 5.22.182l15.843 8.68c.971.547 1.457 1.275 1.335 1.943V41.32Z" clip-rule="evenodd"/><path fill="url(#k)" fill-rule="evenodd" d="m66.837 23.637 18.375-10.136c1.338-.729 3.65-.668 5.233.182l15.88 8.619c1.521.85 1.643 1.882.365 2.61L88.984 35.05c-1.338.729-4.32 1.093-5.902.182l-15.88-8.68c-2.8-1.517-.487-2.853-.365-2.914Z" clip-rule="evenodd"/><path fill="url(#l)" fill-rule="evenodd" d="M81.96 55.222v.182c-.182.485-.547.91-.972 1.092L62.596 66.695c-1.335.728-3.702.668-5.22-.182l-15.843-8.68c-.971-.546-1.396-1.275-1.275-1.882V38.752a1.42 1.42 0 0 1 .911-1.031l18.392-10.259c1.7-.728 3.642-.668 5.22.182l15.843 8.68c.971.547 1.457 1.275 1.336 1.943v16.955Z" clip-rule="evenodd"/><path fill="#97BEFC" fill-rule="evenodd" d="m41.232 37.539 18.375-10.137c1.339-.729 3.651-.668 5.233.182l15.88 8.62c1.522.849 1.643 1.88.366 2.61L63.38 48.95c-1.339.729-4.32 1.093-5.902.182l-15.88-8.68c-2.8-1.517-.487-2.853-.366-2.913Z" clip-rule="evenodd"/><path fill="#007BFC" fill-rule="evenodd" d="m95.185 127.74 6.823-25.13L118.5 76.87l15 8.5-9.952 21.505s-15.498 5.735-26.296 22.072c-.069-.065-.689-.402-.689-.402l14.983-29.605s2.041-.378 2.586-1.263a1.707 1.707 0 0 0-.573-2.183 2.022 2.022 0 0 0-2.729.716c-.754 1.338.594 1.152.027 2.327-3.31 6.848-14.983 29.605-14.983 29.605l-.689-.402Z" clip-rule="evenodd"/><path fill="#06F" fill-rule="evenodd" d="m116.07 76.165 18.463 10.323 9.17-11.743s-2.902-3.833-9.675-7.962c-6.773-4.13-11.545-3.971-11.545-3.971l-6.413 13.353Z" clip-rule="evenodd"/><path stroke="#333C5E" d="M116.005 144.252a4.334 4.334 0 0 1 4.236 0c1.171.737 1.171 1.972 0 2.741a4.334 4.334 0 0 1-4.236 0c-1.181-.758-1.181-1.961 0-2.741Z"/><path stroke="#333C5E" stroke-linecap="round" stroke-linejoin="round" d="M115.619 144.402 96 133.199"/><path stroke="#333C5E" d="M68.694 117.397a4.335 4.335 0 0 1-4.236 0c-1.17-.737-1.17-1.972 0-2.741a4.335 4.335 0 0 1 4.236 0c1.181.758 1.181 1.961 0 2.741Z"/><path fill="#333C5E" d="M69.328 116.813a.5.5 0 1 0-.496.868l.496-.868Zm19.123 12.071a.5.5 0 0 0 .496-.869l-.496.869Zm.496-.869-19.619-11.202-.496.868 19.62 11.203.495-.869Z"/><path stroke="#007BFC" stroke-linecap="round" stroke-linejoin="round" d="m17.5 128.969 29.475 16.901a20.003 20.003 0 0 0 19.823.042l22.424-12.731"/><path stroke="url(#m)" stroke-linecap="round" stroke-linejoin="round" d="m19 99.318 15.644 8.588c2.747 1.508 2.772 5.446.044 6.988l-16.755 9.476"/><path stroke="url(#n)" stroke-linecap="round" stroke-linejoin="round" d="m23 101.543-6.752-3.818c-2.727-1.543-2.702-5.48.044-6.988L39.5 77.996"/><path stroke="#007BFC" stroke-linecap="round" stroke-linejoin="round" d="M8.337 125.716a1 1 0 0 0-.005 1.74l4.963 2.834c.614.35 1.366.351 1.98.001l4.985-2.834a1 1 0 0 0-.006-1.742l-4.99-2.796a2.002 2.002 0 0 0-1.958.001l-4.969 2.796ZM86.538 129.716a1 1 0 0 0-.006 1.74l4.963 2.834c.614.35 1.367.351 1.98.001l4.985-2.834a1 1 0 0 0-.005-1.742l-4.99-2.796a2.002 2.002 0 0 0-1.959.001l-4.968 2.796Z"/><path fill="#06F" fill-rule="evenodd" d="M79.96 22.78c-6.99-4.007-28.97-4.007-35.96 0 0 0-.04 1.154 0 3.84.038 2.625 1.785 5.245 5.241 7.226 6.99 4.008 18.453 4.008 25.442 0 3.456-1.981 5.226-4.6 5.277-7.227.05-2.685 0-3.839 0-3.839Z" clip-rule="evenodd"/><path fill="#007BFC" fill-rule="evenodd" d="M74.683 15.376c-6.99-4.008-18.452-4.008-25.442 0-6.99 4.007-6.99 10.624 0 14.631s18.453 4.007 25.442 0c6.99-4.007 7.083-10.624 0-14.631Z" clip-rule="evenodd"/><path stroke="#fff" stroke-linecap="round" stroke-linejoin="round" stroke-miterlimit="10" stroke-width="1.6" d="m70.28 20.756-2.148 2.442M70.28 20.756l4.004 1.66M53.29 25.15l-3.612-1.854M53.29 25.15l2.636-2.44M53.388 24.37c-1.074-1.856-.39-3.906 2.05-5.37 3.515-2.051 9.178-1.954 12.791.097M70.28 21.05c1.074 1.854.293 3.905-2.148 5.37-3.515 2.05-9.276 1.952-12.791-.098"/><defs><linearGradient id="a" x1="41.639" x2="83.388" y1="33.825" y2="33.825" gradientUnits="userSpaceOnUse"><stop stop-color="#97BEFC"/><stop offset="1" stop-color="#ABCAFF"/></linearGradient><linearGradient id="b" x1="16.035" x2="57.783" y1="48.378" y2="48.378" gradientUnits="userSpaceOnUse"><stop stop-color="#97BEFC"/><stop offset="1" stop-color="#ABCAFF"/></linearGradient><linearGradient id="c" x1="65.815" x2="107.563" y1="47.451" y2="47.451" gradientUnits="userSpaceOnUse"><stop stop-color="#97BEFC"/><stop offset="1" stop-color="#ABCAFF"/></linearGradient><linearGradient id="d" x1="40.21" x2="81.959" y1="61.352" y2="61.352" gradientUnits="userSpaceOnUse"><stop stop-color="#97BEFC"/><stop offset="1" stop-color="#ABCAFF"/></linearGradient><linearGradient id="e" x1="53.912" x2="60.854" y1="29.213" y2="107.292" gradientUnits="userSpaceOnUse"><stop stop-color="#97BEFC"/><stop offset="1" stop-color="#fff"/></linearGradient><linearGradient id="f" x1="41.673" x2="83.421" y1="24.901" y2="24.901" gradientUnits="userSpaceOnUse"><stop stop-color="#AFCDFD"/><stop offset="1" stop-color="#D7E6FE"/></linearGradient><linearGradient id="g" x1="41.639" x2="83.388" y1="11.748" y2="11.748" gradientUnits="userSpaceOnUse"><stop stop-color="#97BEFC"/><stop offset="1" stop-color="#ABCAFF"/></linearGradient><linearGradient id="h" x1="16.069" x2="57.816" y1="38.802" y2="38.802" gradientUnits="userSpaceOnUse"><stop stop-color="#AFCDFD"/><stop offset="1" stop-color="#D7E6FE"/></linearGradient><linearGradient id="i" x1="16.035" x2="57.783" y1="25.649" y2="25.649" gradientUnits="userSpaceOnUse"><stop stop-color="#97BEFC"/><stop offset="1" stop-color="#ABCAFF"/></linearGradient><linearGradient id="j" x1="65.849" x2="107.597" y1="37.527" y2="37.527" gradientUnits="userSpaceOnUse"><stop stop-color="#AFCDFD"/><stop offset="1" stop-color="#D7E6FE"/></linearGradient><linearGradient id="k" x1="65.815" x2="107.563" y1="24.374" y2="24.374" gradientUnits="userSpaceOnUse"><stop stop-color="#97BEFC"/><stop offset="1" stop-color="#ABCAFF"/></linearGradient><linearGradient id="l" x1="40.245" x2="81.992" y1="51.428" y2="51.428" gradientUnits="userSpaceOnUse"><stop stop-color="#AFCDFD"/><stop offset="1" stop-color="#D7E6FE"/></linearGradient><linearGradient id="m" x1="17.871" x2="40.738" y1="111.844" y2="111.844" gradientUnits="userSpaceOnUse"><stop stop-color="#97BEFC"/><stop offset="1" stop-color="#ABCAFF"/></linearGradient><linearGradient id="n" x1="39.579" x2="10.255" y1="89.77" y2="89.77" gradientUnits="userSpaceOnUse"><stop stop-color="#97BEFC"/><stop offset="1" stop-color="#ABCAFF"/></linearGradient></defs></svg>