<svg xmlns="http://www.w3.org/2000/svg" fill="none" viewBox="0 0 152 152"><g clip-path="url(#a)"><path stroke="#007BFC" stroke-linecap="round" d="M26.8 114.9c6.9 3.9 55.6 32.8 55.6 32.8 4.4 2 9.4 1.7 13.6-.7l51-30.6c4.1-2.4 4.1-8.3.1-10.8l-8.1-4.9-4-2.4"/><path stroke="#333C5E" d="M84.5 87.3v.6c.1 1.5 1.4 2.3 2.6 2.9l24.9 13.5c4.4 2 9.6 1.6 13.6-1.1l23.9-15.3c1.1-.6 1.9-1.7 2.1-3V84.6c-.9-18.5-16.6-32.8-35.1-31.9-18.4.9-32.6 16.3-32 34.6Z"/><path stroke="#333C5E" stroke-linecap="round" d="m116.9 84.9 9.2 5"/><path fill="#007BFC" fill-rule="evenodd" d="M102.2 85.1v6.5l5.6-4.4 3.7-14.2 4.6-3.2-2.9-3.1-4.3.8.2 4.8-6.9 12.8Z" clip-rule="evenodd"/><path stroke="#333C5E" d="M130.7 51.6c-6.4-3.6-16.8-3.6-23.2 0-3.3 1.9-5.1 4.8-5 7.2v32.6l28.8-22.8c2.8-1.8 4.3-4.1 4.2-6.4v-3.4c.1-3.4-1.5-5.3-4.8-7.2Z"/><path fill="url(#b)" fill-rule="evenodd" d="M118 26.8c-11.2 0-20.2 9.1-20.2 20.3 0 11.2 9.1 20.2 20.3 20.2 11.2 0 20.2-9.1 20.2-20.3 0-11.1-9.1-20.2-20.3-20.2Z" clip-rule="evenodd"/><path stroke="#333C5E" d="M84.6 81.5 4.4 127.6c-2.7 1.6-2.9-.4-2.9-3.1V53c0-2.7.2-5.1 2.9-6.7L81.6 2.1C84.3.5 86.5.5 86.5 3.2v71.4"/><path fill="#007BFC" fill-rule="evenodd" stroke="#007BFC" stroke-linecap="round" stroke-linejoin="round" stroke-width="2" d="M11.2 52.8c.7-.4 1.3-.1 1.3.5-.1.8-.6 1.5-1.3 1.8-.7.4-1.2.1-1.2-.5 0-.7.5-1.4 1.2-1.8Zm7.2-4c.7-.4 1.2-.1 1.2.5-.1.8-.6 1.5-1.2 1.8-.7.4-1.3.1-1.3-.5.1-.8.6-1.4 1.3-1.8Zm7.2-4c.7-.4 1.2-.1 1.2.5-.1.8-.6 1.5-1.2 1.8-.7.4-1.2.1-1.2-.5.1-.8.5-1.5 1.2-1.8Z" clip-rule="evenodd"/><path fill="url(#c)" fill-rule="evenodd" d="M13 109.6V90.5s.7-26.9 8.4-27c6.5-.1 11 20.4 18.9 1.6 2.3-5.4 10.9 9.8 22.1 1.6 4.8-3.5 10.3-11.2 14.6-20.2v24.9c-23.2 13.7-64 38.2-64 38.2Z" clip-rule="evenodd"/><path fill="url(#d)" fill-rule="evenodd" d="M13 109.7V90.5s2.3-7.9 10-8c6.5-.1 5.9 8.4 16 2.8 5.2-2.8 9.9-24.7 23.4-28.2 2-.5 8.5-.1 14.6-1.3v15.6c-23.1 14-64 38.3-64 38.3Z" clip-rule="evenodd"/><path fill="#007BFC" fill-rule="evenodd" d="M80.7 121c1.7 2.4 3.6 6.8 3.5 9.2 0 0 .5 6.6-7.5 11.8-9.8 6.2-26.4 5.8-36.4 0-5.6-3.2-7.5-7.3-7.5-11.5v-.1c-.3-2.3 1.5-6.7 3.4-9.7 2.4-3.8 12.8-15.1 12.8-15.1V92.7c0 .1-1.2-2-.5-4 .5-1.1 1.3-1.9 2.8-2.8 3.8-2 9.7-1.9 13.5 0 1.5.8 2.5 2.1 2.8 2.9.7 1.8-.6 3.9-.6 3.9v12.8s11.5 12.4 13.7 15.5ZM62.8 87.1c-3.1-1.4-6.7-1.4-9.8 0-2.6 1.3-2.6 3.5 0 4.9 3.1 1.4 6.7 1.4 9.8 0 2.7-1.3 2.7-3.5 0-4.9Z" clip-rule="evenodd"/><path fill="#06F" d="M84.2 130.2s.5 6.6-7.5 11.7c-9.8 6.2-26.4 5.8-36.4 0-5.7-3.2-7.5-7.3-7.5-11.5.5-3.3 3.2-6.6 7.5-9.1 10-5.8 26.4-5.8 36.4 0 4.4 2.6 6.9 5.6 7.5 8.9Z"/><path fill="url(#e)" fill-rule="evenodd" d="M105.3 135.6c-.1 2.7.5 5.4 2.1 7.6 1.3 1.6 4.8 3.6 6.4 4.5.4.3 20.3-36.5 19.8-36.7-1.9-.8-3.7-1.5-5.7-2.2-2.3-.5-5.2 0-8.2 1.8-8 4.7-14.5 15.8-14.4 25Z" clip-rule="evenodd"/><path fill="url(#f)" fill-rule="evenodd" d="M109.1 137.9c0 9.4 6.6 13.3 14.7 8.5 8.1-4.7 14.7-16.2 14.7-25.6 0-9.4-6.6-13.3-14.7-8.5-8.1 4.7-14.7 16.2-14.7 25.6Z" clip-rule="evenodd"/><path fill="#06F" fill-rule="evenodd" d="M118.9 129.8c-.1 1.4.4 2.8 1.5 3.7l-.4.7-1.2.7-3.2 4.8c-.5.8-.5 1.6 0 2 .8.1 1.5-.2 1.9-1l3.2-4.8v-1.3l.4-.7c1.4.4 3 .2 4.2-.5 3.7-2.3 6-6.2 6.4-10.5 0-3.8-2.8-5.5-6.4-3.5-3.8 2.2-6.2 6.2-6.4 10.4Zm6.4-8.4c2.5-1.4 4.5-.3 4.5 2.5-.1 3.1-1.9 5.8-4.5 7.5-2.5 1.3-4.5.2-4.5-2.5.1-3.1 1.8-5.9 4.5-7.5Z" clip-rule="evenodd"/></g><defs><linearGradient id="b" x1="97.759" x2="138.259" y1="47.074" y2="47.074" gradientUnits="userSpaceOnUse"><stop stop-color="#AFCDFD"/><stop offset="1" stop-color="#D7E6FE"/></linearGradient><linearGradient id="c" x1="13.063" x2="76.926" y1="78.108" y2="78.108" gradientUnits="userSpaceOnUse"><stop stop-color="#97BEFC"/><stop offset="1" stop-color="#ABCAFF"/></linearGradient><linearGradient id="d" x1="13.063" x2="77" y1="82.772" y2="82.772" gradientUnits="userSpaceOnUse"><stop stop-color="#AFCDFD"/><stop offset="1" stop-color="#D7E6FE"/></linearGradient><linearGradient id="e" x1="133.629" x2="105.242" y1="128.14" y2="128.14" gradientUnits="userSpaceOnUse"><stop stop-color="#97BEFC"/><stop offset="1" stop-color="#ABCAFF"/></linearGradient><linearGradient id="f" x1="138.479" x2="109.113" y1="129.392" y2="129.392" gradientUnits="userSpaceOnUse"><stop stop-color="#AFCDFD"/><stop offset="1" stop-color="#D7E6FE"/></linearGradient><clipPath id="a"><path fill="#fff" d="M0 0h152v152H0z"/></clipPath></defs></svg>