<svg xmlns="http://www.w3.org/2000/svg" fill="none" viewBox="0 0 153 153"><path stroke="#007BFC" stroke-linecap="round" stroke-linejoin="round" d="M68.6 86.883v17.399c0 2.051 1.657 3.866 3.709 5.05l29.041 16.612"/><path stroke="url(#a)" stroke-dasharray="2 2" stroke-linecap="round" stroke-linejoin="round" d="m96.6 113.43-12.384-7.072c-1.36-.777-1.34-2.745.037-3.494l26.638-14.515c2.052-1.184 3.709-3 3.709-5.05v-33.4m0 .34c0-2.051-.158-3.866-2.21-5.05l-14.52-8.306"/><path fill="url(#b)" d="m60 117.333.248-.434-.012-.007-.013-.006-.223.447Zm-3.9 0-.224-.447a.275.275 0 0 0-.025.014l.249.433Zm31.002 16.045a.5.5 0 0 0 .495-.869l-.495.869Zm-55.293-2.091-.248-.433h-.001l.25.433ZM30.1 102.01a.5.5 0 0 0-1 0h1Zm-4.218-4.319.248.434h.002l-.25-.434Zm3.21 15.692a.5.5 0 0 0 1 0h-1ZM18.372 101.41a.5.5 0 1 0 .496.868l-.496-.868Zm10.727 1.561a.5.5 0 0 0 1 0h-1Zm1 1.922a.5.5 0 0 0-1 0h1Zm-1 1.922a.5.5 0 0 0 1 0h-1Zm1 1.922a.5.5 0 0 0-1 0h1Zm-1 1.923a.5.5 0 0 0 1 0h-1Zm1 1.922a.5.5 0 0 0-1 0h1Zm-1 1.922a.5.5 0 0 0 1 0h-1Zm1 1.922a.5.5 0 0 0-1 0h1Zm-1 1.922a.5.5 0 0 0 1 0h-1Zm1 1.922a.5.5 0 0 0-1 0h1Zm-1 1.922a.5.5 0 1 0 1 0h-1Zm1 1.923a.5.5 0 1 0-1 0h1Zm-1 1.922a.5.5 0 0 0 1 0h-1Zm1 1.922a.5.5 0 0 0-1 0h1Zm-.967 2.134a.5.5 0 1 0 .998-.074l-.998.074Zm1.565 1.108a.5.5 0 1 0 .116.993l-.116-.993Zm2.228.022a.5.5 0 0 0-.498-.867l.498.867Zm1.237-1.864a.5.5 0 1 0 .498.867l-.498-.867Zm2.233-.13a.5.5 0 1 0-.498-.867l.498.867Zm1.237-1.864a.5.5 0 0 0 .498.867l-.498-.867Zm2.233-.129a.5.5 0 0 0-.498-.867l.498.867Zm1.237-1.864a.5.5 0 0 0 .498.867l-.498-.867Zm2.233-.13a.5.5 0 1 0-.498-.867l.498.867Zm1.237-1.864a.5.5 0 0 0 .498.868l-.498-.868Zm2.233-.129a.5.5 0 0 0-.498-.867l.498.867Zm1.237-1.864a.5.5 0 0 0 .498.867l-.498-.867Zm2.233-.13a.5.5 0 1 0-.498-.867l.498.867Zm1.237-1.863a.5.5 0 1 0 .498.867l-.498-.867Zm2.233-.13a.5.5 0 0 0-.498-.867l.498.867Zm1.237-1.864a.5.5 0 0 0 .498.867l-.498-.867Zm2.177.085a.5.5 0 0 0-.223-.975l.223.975Zm2.002-.975a.5.5 0 1 0-.222.975l.222-.975Zm1.445 1.747a.5.5 0 1 0 .495-.868l-.495.868Zm2.205.108a.5.5 0 1 0-.496.868l.496-.868Zm1.213 1.844a.5.5 0 0 0 .496-.869l-.496.869Zm2.205.107a.5.5 0 1 0-.495.868l.495-.868Zm1.214 1.844a.5.5 0 0 0 .496-.869l-.496.869Zm2.205.107a.5.5 0 0 0-.496.869l.496-.869Zm1.214 1.844a.5.5 0 1 0 .496-.868l-.496.868Zm2.205.107a.5.5 0 0 0-.496.869l.496-.869Zm1.213 1.845a.5.5 0 0 0 .496-.869l-.496.869Zm2.206.107a.5.5 0 1 0-.496.868l.496-.868Zm1.213 1.844a.5.5 0 0 0 .496-.869l-.496.869Zm2.205.107a.5.5 0 0 0-.495.869l.495-.869Zm1.214 1.844a.5.5 0 1 0 .496-.868l-.496.868Zm2.205.107a.5.5 0 0 0-.496.869l.496-.869Zm1.214 1.844a.5.5 0 1 0 .495-.868l-.495.868Zm2.205.108a.5.5 0 1 0-.496.868l.496-.868Zm-66.966-30.263a.5.5 0 1 0-.497-.868l.497.868Zm1.318-1.906a.5.5 0 0 0 .497.868l-.497-.868Zm2.312-.17a.5.5 0 0 0-.497-.869l.497.869Zm1.319-1.907a.5.5 0 0 0 .496.868l-.497-.868Zm2.436-.153a.5.5 0 1 0-.358-.934l.358.934Zm2.5-.614a.5.5 0 1 0-.784.62l.784-.62Zm-.572 2.403a.5.5 0 1 0 1 0h-1Zm1 1.863a.5.5 0 1 0-1 0h1Zm-1 1.862a.5.5 0 1 0 1 0h-1Zm1 1.863a.5.5 0 0 0-1 0h1Zm-1 1.863a.5.5 0 0 0 1 0h-1Zm1 1.863a.5.5 0 0 0-1 0h1Zm-1 1.863a.5.5 0 0 0 1 0h-1Zm1 1.863a.5.5 0 0 0-1 0h1Zm-.99-10.442v.961h1v-.961h-1Zm0 2.883v1.922h1v-1.922h-1Zm0 3.844v1.923h1v-1.923h-1Zm0 3.845v1.922h1v-1.922h-1Zm0 3.844v1.922h1v-1.922h-1Zm0 3.844v1.922h1v-1.922h-1Zm0 3.845v1.922h1v-1.922h-1Zm0 3.844v.961h1v-.961h-1Zm0 .961c0 .409.006.808.033 1.173l.998-.074c-.025-.327-.031-.696-.031-1.099h-1Zm1.714 3.274c.376-.044.79-.211 1.245-.473l-.5-.867c-.4.232-.678.325-.86.347l.115.993Zm1.245-.473.867-.498-.498-.867-.867.498.498.867Zm2.602-1.495 1.735-.997-.498-.867-1.735.997.498.867Zm3.47-1.994 1.735-.996-.498-.867-1.735.996.498.867Zm3.47-1.993 1.735-.997-.498-.867-1.735.997.498.867Zm3.47-1.993 1.735-.997-.498-.867-1.735.996.498.868Zm3.47-1.994 1.735-.997-.498-.867-1.735.997.498.867Zm3.47-1.993 1.735-.997-.498-.867-1.735.997.498.867Zm3.47-1.994.868-.498-.498-.867-.868.498.498.867Zm.842-.484c.264-.132.545-.232.837-.298l-.223-.975a4.694 4.694 0 0 0-1.06.378l.446.895Zm2.617-.298c.291.066.573.166.836.298l.447-.895a4.69 4.69 0 0 0-1.06-.378l-.223.975Zm.812.285.855.487.495-.868-.854-.488-.496.869Zm2.564 1.463 1.71.976.495-.869-1.71-.975-.495.868Zm3.419 1.951 1.71.976.495-.869-1.71-.975-.495.868Zm3.418 1.952 1.71.975.496-.868-1.71-.976-.496.869Zm3.42 1.951 1.709.976.495-.869-1.71-.976-.495.869Zm3.418 1.951 1.71.976.495-.869-1.71-.975-.495.868Zm3.419 1.952 1.709.975.496-.868-1.71-.976-.495.869Zm3.418 1.951 1.71.975.495-.868-1.709-.976-.496.869Zm3.419 1.951.855.488.495-.869-.854-.487-.496.868Zm-67.378-30.612.908-.519-.497-.868-.907.519.496.868Zm2.723-1.557 1.815-1.038-.497-.869-1.815 1.039.497.868Zm3.63-2.077.907-.519-.496-.868-.907.52.496.867Zm.91-.52c.365-.21.711-.379 1.03-.5l-.358-.935c-.377.145-.77.337-1.173.57l.5.865Zm2.746-.494c.112.141.212.398.212.85h1c0-.585-.128-1.092-.428-1.47l-.784.62Zm.212.85v.932h1v-.932h-1Zm0 2.795v1.862h1v-1.862h-1Zm0 3.725v1.863h1V105h-1Zm0 3.726v1.863h1v-1.863h-1Zm0 3.726v.931h1v-.931h-1Z"/><path fill="url(#c)" fill-rule="evenodd" d="m149 117.033-86.4 16.2s.1.7.1 1.7c-.1.6.1 1.3.7 1.6l26.9 15.2c1.2.6 2.7.6 3.9 0l54.1-31.2c.3-.1.6-.4.7-.7v-2.8Z" clip-rule="evenodd"/><path fill="url(#d)" fill-rule="evenodd" d="m148.199 115.433-4.6-2.5-22-12.6c-1.2-.6-2.7-.6-3.9 0l-54.3 31.2c-.3.1-.6.4-.7.7-.2.6.1 1.3.7 1.6l26.9 15.2c1.2.6 2.7.6 3.9 0l54.1-31.2c.3-.1.6-.4.7-.7.1-.7-.2-1.4-.8-1.7 0 .1 0 .1 0 0Z" clip-rule="evenodd"/><path fill="#007BFC" fill-rule="evenodd" d="m75.9 132.133 3.8 2.2 3.8-2.2-3.8-2.2-3.8 2.2Zm6.5-3.8 3.8 2.2 3.8-2.2-3.8-2.2-3.8 2.2Zm6.5-3.7 3.8 2.2 3.8-2.2-3.8-2.2-3.8 2.2Zm6.4-3.7 3.8 2.2 3.799-2.2-3.8-2.2-3.8 2.2Zm6.499-3.7 3.8 2.2 3.8-2.2-3.8-2.2-3.8 2.2Zm6.4-3.7 3.8 2.2 3.8-2.2-3.8-2.2-3.8 2.2Zm6.5-3.7 3.8 2.2 3.8-2.2-3.8-2.2-3.8 2.2Zm-32.3 25.9 3.8 2.2 3.8-2.2-3.8-2.2-3.8 2.2Zm6.5-3.7 3.8 2.2 3.8-2.2-3.8-2.2-3.8 2.2Zm6.5-3.7 3.8 2.2 3.8-2.2-3.8-2.2-3.8 2.2Zm6.3-3.7 3.8 2.2 3.8-2.2-3.8-2.2-3.8 2.2Zm6.6-3.7 3.8 2.2 3.8-2.2-3.8-2.2-3.8 2.2Zm6.4-3.7 3.8 2.2 3.8-2.2-3.8-2.2-3.8 2.2Zm6.4-3.7 3.8 2.2 3.8-2.2-3.8-2.2-3.8 2.2Zm-32.3 25.9 3.8 2.2 3.8-2.2-3.8-2.2-3.8 2.2Zm6.5-3.7 3.8 2.2 3.8-2.2-3.8-2.2-3.8 2.2Zm6.5-3.7 3.8 2.2 3.8-2.2-3.8-2.2-3.8 2.2Zm6.4-3.7 3.8 2.2 3.8-2.2-3.8-2.2-3.8 2.2Zm6.5-3.7 3.8 2.2 3.8-2.2-3.8-2.2-3.8 2.2Zm6.4-3.7 3.8 2.2 3.8-2.2-3.8-2.2-3.8 2.2Zm6.5-3.7 3.8 2.2 3.8-2.2-3.8-2.2-3.8 2.2Z" clip-rule="evenodd"/><path fill="url(#e)" d="M23.338 80.067c23.585-13.62 58.405-16.775 87.262-9.542V4.541C81.82-2.54 47.27.655 23.8 14.159 8.256 23.124.561 34.898.677 46.672v60.598C2.6 97.342 10.14 87.685 23.338 80.067Z"/><path fill="url(#f)" d="M.754 114.887c1.154 10.658 8.772 21.123 22.892 29.241.77.423 1.54.846 2.347 1.27v-65.6c-.692-.347-1.346-.731-2-1.116C7.64 69.256-.017 56.712 1.023 44.362l-.423.154v70.448l.154-.077Z"/><path fill="url(#g)" d="M14.566 71.91c2.155-1.616 4.425-3.078 6.733-4.424V27.664C11.411 33.435 4.678 40.361 1.061 47.671c.423 8.503 4.925 16.93 13.505 24.24ZM58.62 15.198C47 16.93 35.92 20.2 26.3 24.971v39.821c9.62-4.732 20.7-7.964 32.32-9.695V15.198Zm5.002 39.283a140.322 140.322 0 0 1 35.012.577V15.044a142.16 142.16 0 0 0-35.013-.5v39.937Z"/><path fill="#fff" stroke="#333C5E" stroke-linecap="round" stroke-linejoin="round" d="m36.81 53.914 58.08-33.223c2.052-1.184 3.71-1.184 3.71.79v55.398c0 2.051-1.658 3.866-3.71 5.05l-58.08 33.223c-2.053 1.184-2.21-.315-2.21-2.367v-53.82c0-2.052.157-3.867 2.21-5.05Z"/><path fill="#007BFC" d="m43.326 65.47 45.376-25.956c1.603-.924 2.898-.924 2.898.617v33.28c0 1.603-1.295 3.02-2.898 3.946l-45.376 25.955c-1.603.925-1.726-.246-1.726-1.849V70.527c0-1.603.123-4.132 1.726-5.057Z"/><path fill="#fff" d="M46.59 71.302c-.234.156-.468 0-.468-.234 0-.312.156-.624.468-.78l13.736-7.96c.234-.157.468 0 .468.233a.858.858 0 0 1-.468.78L46.59 71.303ZM74.062 60.143c-.234.156-.468 0-.468-.235 0-.312.156-.624.468-.78l13.736-7.96c.234-.157.468 0 .468.234a.858.858 0 0 1-.468.78l-13.736 7.96ZM53.926 71.849c-.234.156-.468 0-.468-.234 0-.313.156-.625.468-.781L71.33 60.766c.234-.156.469 0 .469.234a.858.858 0 0 1-.469.78L53.926 71.85ZM63.136 61.782c-.234.157-.468 0-.468-.234 0-.312.156-.624.468-.78l4.605-2.654c.234-.156.468 0 .468.234a.858.858 0 0 1-.468.78l-4.605 2.654ZM87.797 56.864c.235-.156.469-.468.469-.78s-.234-.39-.469-.234l-4.604 2.653c-.234.156-.468.469-.468.78 0 .313.234.391.468.235l4.605-2.654ZM51.117 73.41c.234-.156.468-.468.468-.78s-.234-.39-.468-.234l-4.605 2.653c-.234.157-.468.469-.468.78 0 .313.234.391.468.235l4.605-2.653ZM80.462 61.08c.234-.157.468-.469.468-.781 0-.312-.234-.39-.468-.234l-33.95 19.511c-.234.156-.468.468-.468.78 0 .313.234.39.468.235l33.95-19.512ZM66.804 73.644c-.234.156-.468 0-.468-.234 0-.312.156-.624.468-.78l13.736-7.961c.234-.156.468 0 .468.234a.858.858 0 0 1-.468.78l-13.736 7.961ZM46.59 85.351c-.234.156-.468 0-.468-.234 0-.312.156-.624.468-.78l17.404-10.068c.234-.156.469 0 .469.234a.858.858 0 0 1-.469.78L46.59 85.351ZM46.59 90.19c-.234.156-.468 0-.468-.234 0-.312.156-.624.468-.78l13.736-7.96c.234-.157.468-.001.468.233a.858.858 0 0 1-.468.78L46.59 90.19ZM74.062 78.952c-.234.156-.468 0-.468-.234 0-.312.156-.624.468-.78l13.736-7.961c.234-.156.468 0 .468.234a.858.858 0 0 1-.468.78l-13.736 7.961ZM53.926 90.659c-.234.156-.468 0-.468-.235 0-.312.156-.624.468-.78L71.33 79.576c.234-.156.469 0 .469.234a.858.858 0 0 1-.469.78L53.926 90.66ZM63.136 80.67c-.234.155-.468 0-.468-.235 0-.312.156-.624.468-.78L67.741 77c.234-.156.468 0 .468.234a.858.858 0 0 1-.468.78l-4.605 2.654ZM75.466 73.723c.235-.156.469-.469.469-.78 0-.313-.234-.39-.469-.235l-4.604 2.654c-.234.156-.468.468-.468.78s.234.39.468.234l4.605-2.653ZM51.117 92.22c.234-.156.468-.468.468-.78 0-.313-.234-.39-.468-.234l-4.605 2.653c-.234.156-.468.468-.468.78 0 .313.234.39.468.235l4.605-2.654Z"/><path fill="#fff" fill-rule="evenodd" stroke="#007BFC" stroke-linecap="round" stroke-linejoin="round" stroke-width="1.9" d="M40.124 58.097c.552-.316.947-.079.947.395-.079.552-.474 1.104-.947 1.341-.553.316-.868.079-.868-.395 0-.552.316-1.025.868-1.341ZM45.57 55.019c.552-.316.867-.08.867.394 0 .553-.394 1.105-.868 1.342-.552.316-.868.079-.868-.395 0-.552.395-1.026.868-1.341ZM51.014 52.02c.552-.316.868-.079.868.395-.08.552-.395 1.105-.868 1.341-.553.316-.869.08-.869-.394 0-.553.316-1.105.869-1.342Z" clip-rule="evenodd"/><path stroke="#333C5E" d="M136.3 18.44c-8.253-4.781-15-.916-15 8.647s6.681 21.157 15 25.873c8.319 4.716 15 .917 15-8.646s-6.616-21.223-15-25.873Z" clip-rule="evenodd"/><path stroke="#007BFC" stroke-linecap="round" stroke-linejoin="round" stroke-width="1.65" d="M145.988 42.307a22.072 22.072 0 0 0-3.013-10.35c-1.703-3.209-4.192-5.96-7.205-7.925-2.62-1.506-5.24-1.9-7.271-.786-2.03 1.114-2.685 3.8-2.685 6.878v.458"/><mask id="h" fill="#fff"><path fill-rule="evenodd" d="m137.582 41.399 2.534-6.409a1 1 0 0 0-1.248-1.316l-5.475 1.838a1.151 1.151 0 0 0-.065.022h-.002c-.604.222-.99.867-.99 1.838 0 1.718 1.206 3.807 2.694 4.666 1.185.684 2.192.381 2.552-.64Z" clip-rule="evenodd"/></mask><path fill="#007BFC" fill-rule="evenodd" d="m137.582 41.399 2.534-6.409a1 1 0 0 0-1.248-1.316l-5.475 1.838a1.151 1.151 0 0 0-.065.022h-.002c-.604.222-.99.867-.99 1.838 0 1.718 1.206 3.807 2.694 4.666 1.185.684 2.192.381 2.552-.64Z" clip-rule="evenodd"/><path fill="#007BFC" d="m137.582 41.399-.93-.368-.007.017-.006.018.943.333Zm-4.189-5.887.293.956.013-.004.012-.004-.318-.948Zm-.065.022.318.948.013-.004.012-.004-.343-.94Zm1.702 6.504-.5.866.5-.866Zm-1.704-6.503-.318-.948.318.948Zm0 0 .344.939-.344-.94Zm5.861-.913-2.535 6.409 1.86.736 2.534-6.41-1.859-.735Zm-5.476 1.838 5.476-1.838-.637-1.896-5.476 1.838.637 1.896Zm-.04.014.015-.006-.587-1.911a2.235 2.235 0 0 0-.113.037l.685 1.88Zm-.027.009h.002l-.636-1.897h-.002l.636 1.897Zm-.308.89c0-.36.072-.587.143-.716.066-.118.134-.162.191-.183l-.688-1.878c-1.145.42-1.646 1.566-1.646 2.776h2Zm2.194 3.799c-.556-.322-1.116-.913-1.539-1.645-.423-.732-.655-1.513-.655-2.155h-2c0 1.076.371 2.2.923 3.155.552.956 1.339 1.839 2.271 2.377l1-1.733Zm1.109-.106c-.087.247-.201.304-.279.325-.113.03-.386.037-.83-.22l-1 1.733c.741.428 1.564.626 2.341.42.812-.215 1.381-.819 1.654-1.592l-1.886-.666Zm-3.631-6.48a1 1 0 0 0-.496 1.53l1.628-1.162a1 1 0 0 1-.496 1.529l-.636-1.896Zm-.496 1.53a1 1 0 0 1 .47-1.52l.688 1.878a1 1 0 0 0 .47-1.52l-1.628 1.161Zm8.534-.758c.626-1.582-.883-3.173-2.496-2.632l.637 1.896 1.859.736Z" mask="url(#h)"/><defs><linearGradient id="a" x1="83.201" x2="114.598" y1="75.124" y2="75.124" gradientUnits="userSpaceOnUse"><stop stop-color="#97BEFC"/><stop offset="1" stop-color="#ABCAFF"/></linearGradient><linearGradient id="b" x1="18.606" x2="87.347" y1="114.898" y2="114.898" gradientUnits="userSpaceOnUse"><stop stop-color="#97BEFC"/><stop offset="1" stop-color="#ABCAFF"/></linearGradient><linearGradient id="c" x1="69.562" x2="142.382" y1="147.613" y2="105.571" gradientUnits="userSpaceOnUse"><stop stop-color="#97BEFC"/><stop offset="1" stop-color="#ABCAFF"/></linearGradient><linearGradient id="d" x1="69.77" x2="141.816" y1="145.514" y2="103.918" gradientUnits="userSpaceOnUse"><stop stop-color="#AFCDFD"/><stop offset="1" stop-color="#D7E6FE"/></linearGradient><linearGradient id="e" x1="61.276" x2="42.635" y1="-15.432" y2="106.779" gradientUnits="userSpaceOnUse"><stop stop-color="#97BEFC"/><stop offset="1" stop-color="#fff"/></linearGradient><linearGradient id="f" x1="14.599" x2="-38.856" y1="28.867" y2="114.113" gradientUnits="userSpaceOnUse"><stop stop-color="#97BEFC"/><stop offset="1" stop-color="#fff"/></linearGradient><linearGradient id="g" x1="98.896" x2="1.903" y1="42.804" y2="42.804" gradientUnits="userSpaceOnUse"><stop stop-color="#97BEFC"/><stop offset="1" stop-color="#ABCAFF"/></linearGradient></defs></svg>