<svg xmlns="http://www.w3.org/2000/svg" fill="none" class="svg-illustration svg-illustration--optimized-cloud-general svg-product" viewBox="0 0 512 433">
  xmlns=&quot;http://www.w3.org/2000/svg&quot; xmlns:xlink=&quot;http://www.w3.org/1999/xlink&quot; x=&quot;0px&quot; y=&quot;0px&quot; viewBox=&quot;0 0 512 432&quot;
	 enable-background=&quot;new 0 0 512 432&quot; xml:space=&quot;preserve&quot;&gt;
  <path stroke="#007BFC" d="M74.3,158.7v40.1c0,0-0.6,11.2,8,15c4.5,2.9,176.5,104.5,176.5,104.5 c11.1,6.4,9.7,17.5-3.1,24.9c0,0-40.1,23.1-84.9,48.9"/>
  <path stroke="#007BFC" d="M103.2,139.7v40.1c0,0-0.6,11.2,8,15 c5.2,3.3,258.5,152.6,258.5,152.6c11.1,6.4,30.4,5.6,43.2-1.8"/>
  <path stroke="#007BFC" d="M134.2,128.7v40c0,0-0.7,11.2,8.1,15c9.2,5.7,89.7,51.7,89.7,51.7 c11,6.4,30.3,5.6,43.1-1.8c0,0,64.1-37,120.7-69.6"/>
  <g class="animation-element">
    <linearGradient id="a" x1="64" x2="228" y1="389.2725" y2="389.2725" gradientUnits="userSpaceOnUse">
      <stop offset="0" stop-color="#1d53da"/>
      <stop offset="1" stop-color="#3f75fc"/>
    </linearGradient>
    <path fill="url(#a)" fill-rule="evenodd" d="M228,347.3c0,0-0.1,25,0,37 c0.1,12.2-8,23.8-24.1,33.1c-31.9,18.5-83.7,18.5-115.7,0C72.4,408.2,64,396.2,64,384.3c0-12.5,0-37,0-37L228,347.3z" clip-rule="evenodd"/>
    <linearGradient id="b" x1="64" x2="228" y1="349.3949" y2="349.3949" gradientUnits="userSpaceOnUse">
      <stop offset="0" stop-color="#0b3ebf"/>
      <stop offset="1" stop-color="#2e5fdb"/>
    </linearGradient>
    <path fill="url(#b)" fill-rule="evenodd" d="M203.9,316 c32,18.5,32.1,48.4,0.1,66.9c-32,18.5-83.9,18.4-116-0.1C56,364.3,56,334.4,88,315.9C120,297.5,171.9,297.5,203.9,316z" clip-rule="evenodd"/>
    <linearGradient id="c" x1="64" x2="228" y1="350.2825" y2="350.2825" gradientUnits="userSpaceOnUse">
      <stop offset="0" stop-color="#1d53da"/>
      <stop offset="1" stop-color="#3f75fc"/>
    </linearGradient>
    <path fill="url(#c)" fill-rule="evenodd" d="M228,308.3c0,0-0.1,25,0,37 c0.1,12.2-8,23.8-24.1,33.1c-31.9,18.5-83.7,18.5-115.7,0C72.4,369.3,64,357.2,64,345.3c0-12.5,0-37,0-37L228,308.3z" clip-rule="evenodd"/>
    <linearGradient id="d" x1="64" x2="228" y1="311.28" y2="311.28" gradientUnits="userSpaceOnUse">
      <stop offset="0" stop-color="#0397f6"/>
      <stop offset="1" stop-color="#00baff"/>
    </linearGradient>
    <path fill="url(#d)" fill-rule="evenodd" d="M203.9,278.1 c32,18.4,32.1,48.1,0.1,66.5s-83.9,18.3-116,0S56,296.4,88,278S171.9,259.7,203.9,278.1z" clip-rule="evenodd"/>
    <g stroke="#FFF" stroke-linecap="round" stroke-linejoin="round" stroke-width="4">
      <path d="M124.5,298.2c-12.3,6.8-12.5,18.2-0.4,25.4s31.8,7.6,44.1,0.8s12.5-18.2,0.4-25.4S136.8,291.3,124.5,298.2z" opacity="0.94"/>
      <path d="M150.1,302.1l1.7,14.4l-10.5,0.7"/>
    </g>
  </g>
  <linearGradient id="e" x1="146.2472" x2="146.2472" y1="203.3703" y2="38.2827" gradientTransform="translate(0 227.8898)" gradientUnits="userSpaceOnUse">
    <stop offset="0" stop-color="#17bdff"/>
    <stop offset="4.157304e-02" stop-color="#17bdff" stop-opacity=".9442"/>
    <stop offset="0.7447" stop-color="#17bdff" stop-opacity="0"/>
  </linearGradient>
  <path fill="url(#e)" d="M228.2,382.9c0,12.7-5.7,23.3-24.1,34.8 c-32,18.1-82.9,18.1-114.9,0.1c-17-9.6-25-20.9-25-35.8V266.2h164v104.2V382.9z" class="animation-element" opacity="0.8"/>
  <g class="animation-element">
    <linearGradient id="f" x1="310" x2="474" y1="164.9934" y2="164.9934" gradientUnits="userSpaceOnUse">
      <stop offset="0" stop-color="#1d53da"/>
      <stop offset="1" stop-color="#3f75fc"/>
    </linearGradient>
    <path fill="url(#f)" fill-rule="evenodd" d="M474,123c0,0-0.1,25,0,37 c0.1,12.2-8,23.8-24.1,33.1c-31.9,18.5-83.7,18.5-115.7-0.1C318.4,184,310,172,310,160c0-12.5,0-37,0-37L474,123z" clip-rule="evenodd"/>
    <linearGradient id="g" x1="310" x2="474" y1="124.73" y2="124.73" gradientUnits="userSpaceOnUse">
      <stop offset="0" stop-color="#0b3ebf"/>
      <stop offset="1" stop-color="#2e5fdb"/>
    </linearGradient>
    <path fill="url(#g)" fill-rule="evenodd" d="M449.9,91.3 c32,18.5,32.1,48.4,0.1,66.9s-83.9,18.4-116,0S302,109.7,334,91.3S417.9,72.8,449.9,91.3z" clip-rule="evenodd"/>
    <linearGradient id="h" x1="310" x2="474" y1="125.9839" y2="125.9839" gradientUnits="userSpaceOnUse">
      <stop offset="0" stop-color="#1d53da"/>
      <stop offset="1" stop-color="#3f75fc"/>
    </linearGradient>
    <path fill="url(#h)" fill-rule="evenodd" d="M474,84c0,0-0.1,25,0,37 c0.1,12.2-8,23.8-24.1,33.1c-31.9,18.5-83.7,18.5-115.7,0C318.4,145,310,132.9,310,121c0-12.5,0-37,0-37H474z" clip-rule="evenodd"/>
    <linearGradient id="i" x1="310" x2="474" y1="85.7701" y2="85.7701" gradientUnits="userSpaceOnUse">
      <stop offset="0" stop-color="#0b3ebf"/>
      <stop offset="1" stop-color="#2e5fdb"/>
    </linearGradient>
    <path fill="url(#i)" fill-rule="evenodd" d="M449.9,52.4 c32,18.5,32.1,48.4,0.1,66.9s-83.9,18.4-116,0S302,70.8,334,52.3S417.9,33.9,449.9,52.4z" clip-rule="evenodd"/>
    <linearGradient id="j" x1="310" x2="474" y1="86.9839" y2="86.9839" gradientUnits="userSpaceOnUse">
      <stop offset="0" stop-color="#1d53da"/>
      <stop offset="1" stop-color="#3f75fc"/>
    </linearGradient>
    <path fill="url(#j)" fill-rule="evenodd" d="M474,45c0,0-0.1,25,0,37 c0.1,12.2-8,23.8-24.1,33.1c-31.9,18.5-83.7,18.5-115.7,0C318.4,106,310,93.9,310,82c0-12.5,0-37,0-37H474z" clip-rule="evenodd"/>
    <linearGradient id="k" x1="310" x2="474" y1="47.6507" y2="47.6507" gradientUnits="userSpaceOnUse">
      <stop offset="0" stop-color="#0397f6"/>
      <stop offset="1" stop-color="#00baff"/>
    </linearGradient>
    <path fill="url(#k)" fill-rule="evenodd" d="M449.9,14.4 c32,18.4,32.1,48.1,0.1,66.5s-83.9,18.3-116,0S302,32.7,334,14.4S417.9-3.9,449.9,14.4z" clip-rule="evenodd"/>
    <g stroke="#FFF" stroke-linecap="round" stroke-linejoin="round" stroke-width="4">
      <path d="M370.5,34.5c-12.3,6.8-12.5,18.2-0.4,25.4s31.8,7.6,44.1,0.8s12.5-18.2,0.4-25.4S382.8,27.7,370.5,34.5z" opacity="0.94"/>
      <path d="M396.1,38.5l1.7,14.4l-10.5,0.7"/>
    </g>
  </g>
  <linearGradient id="l" x1="392" x2="392" y1="-20.8939" y2="-178.4814" gradientTransform="translate(0 227.8898)" gradientUnits="userSpaceOnUse">
    <stop offset="0" stop-color="#17bdff"/>
    <stop offset="4.157304e-02" stop-color="#17bdff" stop-opacity=".9442"/>
    <stop offset="0.7447" stop-color="#17bdff" stop-opacity="0"/>
  </linearGradient>
  <path fill="url(#l)" d="M474,158.6c0,12.7-5.7,23.3-24.1,34.8 c-32,18.1-82.9,18.1-114.9,0.1c-17-9.6-25-20.9-25-35.8V49.4h164v96.7V158.6z" class="animation-element" opacity="0.8"/>
  <g class="animation-element">
    <linearGradient id="m" x1="343" x2="507" y1="379.2631" y2="379.2631" gradientUnits="userSpaceOnUse">
      <stop offset="4.189944e-02" stop-color="#bbc1d4"/>
      <stop offset="1" stop-color="#ebeef5"/>
    </linearGradient>
    <path fill="url(#m)" fill-rule="evenodd" d="M507,337.3c0,0-0.1,25,0,37 c0.1,12.2-8,23.8-24.1,33.1c-31.9,18.5-83.8,18.5-115.7-0.1c-15.8-9.1-24.2-21.1-24.2-33.1c0-12.5,0-37,0-37L507,337.3L507,337.3z" clip-rule="evenodd"/>
    <path fill="#BFC5D7" fill-rule="evenodd" d="M482.9,305.9c32,18.5,32.1,48.4,0.1,66.8 s-83.9,18.4-116-0.1c-32-18.5-32.1-48.4-0.1-66.8S450.9,287.4,482.9,305.9z" clip-rule="evenodd"/>
    <linearGradient id="n" x1="343" x2="507" y1="340.2631" y2="340.2631" gradientUnits="userSpaceOnUse">
      <stop offset="4.189944e-02" stop-color="#bbc1d4"/>
      <stop offset="1" stop-color="#ebeef5"/>
    </linearGradient>
    <path fill="url(#n)" fill-rule="evenodd" d="M507,298.3c0,0-0.1,25,0,37 c0.1,12.2-8,23.8-24.1,33.1c-31.9,18.5-83.8,18.5-115.7-0.1c-15.8-9.1-24.2-21.1-24.2-33.1c0-12.5,0-37,0-37L507,298.3L507,298.3z" clip-rule="evenodd"/>
    <path fill="#BFC5D7" fill-rule="evenodd" d="M482.9,266.9c32,18.5,32.1,48.4,0.1,66.8 s-83.9,18.4-116-0.1c-32-18.5-32.1-48.4-0.1-66.8S450.9,248.4,482.9,266.9z" clip-rule="evenodd"/>
    <linearGradient id="o" x1="343" x2="507" y1="301.2631" y2="301.2631" gradientUnits="userSpaceOnUse">
      <stop offset="4.189944e-02" stop-color="#bbc1d4"/>
      <stop offset="1" stop-color="#ebeef5"/>
    </linearGradient>
    <path fill="url(#o)" fill-rule="evenodd" d="M507,259.3c0,0-0.1,25,0,37 c0.1,12.2-8,23.8-24.1,33.1c-31.9,18.5-83.8,18.5-115.7-0.1c-15.8-9.1-24.2-21.1-24.2-33.1c0-12.5,0-37,0-37L507,259.3L507,259.3z" clip-rule="evenodd"/>
    <linearGradient id="p" x1="343" x2="507" y1="262.2563" y2="262.2563" gradientUnits="userSpaceOnUse">
      <stop offset="0" stop-color="#e9edf6"/>
      <stop offset="1" stop-color="#f6f9ff"/>
    </linearGradient>
    <path fill="url(#p)" fill-rule="evenodd" d="M482.9,228.9 c32,18.5,32.1,48.4,0.1,66.8s-83.9,18.4-116-0.1c-32-18.5-32.1-48.4-0.1-66.8S450.9,210.4,482.9,228.9z" clip-rule="evenodd"/>
    <path stroke="#007BFC" stroke-linecap="round" stroke-linejoin="round" stroke-width="4" d="M404.4,247.6c-12.3,6.8-12.5,18.2-0.4,25.4s31.8,7.6,44.1,0.8s12.5-18.2,0.4-25.4S416.7,240.8,404.4,247.6z" opacity="0.94"/>
    <path fill="#007BFC" fill-rule="evenodd" d="M437.6,258.1c-1.7,0.9-3.7,0.9-5.4,0.1 c-1.5-0.8-1.5-2.2-0.1-3c1.7-0.9,3.7-0.9,5.4-0.1C439,255.8,439,257.2,437.6,258.1z M430,262.5c-1.7,0.9-3.7,0.9-5.4,0.1 c-1.5-0.8-1.5-2.2-0.1-3c1.7-0.9,3.7-0.9,5.4-0.1C431.4,260.3,431.5,261.7,430,262.5z M422.4,267c-1.7,0.9-3.7,0.9-5.4,0.1 c-1.5-0.8-1.5-2.2-0.1-3c1.7-0.9,3.7-0.9,5.4-0.1C423.8,264.8,423.9,266.1,422.4,267L422.4,267z" clip-rule="evenodd"/>
  </g>
  <g class="animation-element">
    <linearGradient id="q" x1="90.9363" x2="91.0812" y1="142.3602" y2="314.3602" gradientUnits="userSpaceOnUse">
      <stop offset="0" stop-color="#cfd4e2"/>
      <stop offset="0.5015" stop-color="#cfd4e2" stop-opacity="0"/>
    </linearGradient>
    <path fill="url(#q)" fill-rule="evenodd" d="M8.8,241.3l164.4-95c2.1-1.2,3.8-0.5,3.8,1.6v46.8c-0.2,2.5-1.6,4.7-3.8,6l-164.4,95c-2.1,1.2-3.8,0.5-3.8-1.6v-46.8 C5.2,244.8,6.6,242.6,8.8,241.3z" clip-rule="evenodd" opacity="0.48"/>
    <linearGradient id="r" x1="5.0026" x2="177.0026" y1="120.8701" y2="120.8701" gradientUnits="userSpaceOnUse">
      <stop offset="1.000000e-02" stop-color="#3f4b75"/>
      <stop offset="1" stop-color="#636f99"/>
    </linearGradient>
    <path fill="url(#r)" fill-rule="evenodd" d="M8.8,96L173.2,1c2.1-1.2,3.8-0.5,3.8,1.6v137.3c-0.2,2.5-1.6,4.7-3.8,6l-164.4,95C6.7,242,5,241.3,5,239.2V101.9 C5.2,99.5,6.6,97.2,8.8,96z" clip-rule="evenodd"/>
    <path stroke="#FFF" stroke-linecap="round" stroke-linejoin="round" stroke-width="4" d="m82.5 110.7-20.1 34.8 19.4 11.2M116.6 132.8l20-35.1-19.3-11.3M106.8 89.7l-14 65"/>
    <path d="M5,112.7 v-10.9c0.2-2.5,1.6-4.7,3.8-6L173.2,0.9c2.1-1.2,3.8-0.5,3.8,1.6v12.1L5,112.7z" clip-rule="evenodd" opacity="0.18"/>
    <path fill="#FFF" fill-rule="evenodd" d="M167.6,9.4c-1.3,0.9-2.1,2.3-2.2,3.8 c-0.1,0.7,0.3,1.4,1.1,1.6c0.4,0.1,0.8,0,1.1-0.3c1.3-0.8,2.1-2.3,2.2-3.8c0.1-0.7-0.3-1.4-1.1-1.6C168.4,9,167.9,9.2,167.6,9.4z M161.3,13.1c-1.3,0.9-2.1,2.3-2.2,3.8c-0.1,0.7,0.3,1.4,1,1.6c0.4,0.1,0.8,0,1.2-0.3c1.3-0.8,2.1-2.3,2.2-3.8 c0.1-0.7-0.3-1.4-1.1-1.6C162.1,12.7,161.6,12.8,161.3,13.1L161.3,13.1z M155,16.7c-1.3,0.9-2.1,2.3-2.2,3.8 c-0.1,0.7,0.3,1.4,1.1,1.6c0.4,0.1,0.8,0,1.1-0.3c1.3-0.8,2.1-2.3,2.2-3.8c0.1-0.7-0.3-1.4-1.1-1.6C155.8,16.3,155.3,16.4,155,16.7 L155,16.7z" clip-rule="evenodd"/>
  </g>
</svg>
