<svg xmlns="http://www.w3.org/2000/svg" xmlns:xlink="http://www.w3.org/1999/xlink" version="1.1" class="svg-illustration" data-animation="" data-animation-options="type: vultrContainerStorageInterface; delay: 0;" id="vultr-container-storage-interface" x="0px" y="0px" viewBox="0 0 512 432" enable-background="new 0 0 512 432" xml:space="preserve">
	 <g id="lines">
		 <!-- <path id="ssd-left-right-3_1_" fill="none" stroke="#007BFC" d="M130.4,149l-20.7-12c-7.3-4.2-13.2-1.7-13.2,5.6l0.1,27.4"/> -->
		 <path data-animation-path="" style="stroke-dasharray: 274px; stroke-dashoffset: 5.68434e-14px; opacity: 1;" id="ssd-left-right-1" fill="none" stroke="#007BFC" d="M336,45.6L264.6,4c-7.2-4.2-13.1-1.7-13.1,5.6l0,91.4     c0,18.4-1.8,18.9-14,26.2c-12.5,7.5-33.2,20.5-42,25.2"/>
	 </g>
<g class="animation-element" data-serverleft="" id="ssd-left" style="opacity: 1;">
	<g data-serverleft-bottom="" id="SSD_-_gray">
		<linearGradient id="Kształt_1036_1_" gradientUnits="userSpaceOnUse" x1="78.1" y1="248.5" x2="222.9" y2="248.5">
			<stop offset="0" style="stop-color:#CAD1E0"/>
			<stop offset="0.48" style="stop-color:#BEC5D8"/>
			<stop offset="0.52" style="stop-color:#D4D9E6"/>
			<stop offset="1" style="stop-color:#E4E7F0"/>
		</linearGradient>
		<path id="Kształt_1036" fill-rule="evenodd" clip-rule="evenodd" fill="url(#Kształt_1036_1_)" d="M222.9,218H78.2l-0.1,19.9    c0,2.2,1.5,4.5,4.5,6.1l28.6,16.2l28.6,16.2c6.8,3.4,14.7,3.4,21.5,0l28.5-16.2l28.6-16.2c3-1.6,4.5-3.9,4.5-6.1L222.9,218"/>
		
			<path id="Kształt_1036_kopia_2" opacity="0.4" fill-rule="evenodd" clip-rule="evenodd" fill="#142149" enable-background="new    " d="    M87.8,234.1c-0.5,0-0.9,0.2-1.2,0.6c-0.3,0.4-0.4,0.8-0.4,1.3v10.4l50.8,28.6v-9.4c-0.2-1.9-1.1-3.5-2.7-4.6l-45.3-26.5    C88.6,234.2,88.2,234.1,87.8,234.1 M207.8,240.3c-0.2,0-0.4-0.1-0.5-0.2c-0.1-0.2-0.2-0.4-0.2-0.6c0-0.8,0.5-1.5,1.2-1.9l8.7-4.9    c0.1-0.1,0.3-0.2,0.5-0.2c0.2,0,0.4,0.1,0.5,0.2c0.1,0.2,0.2,0.4,0.2,0.6c0,0.8-0.5,1.5-1.2,1.9l-8.7,4.9    C208.2,240.2,208,240.3,207.8,240.3"/>
		<linearGradient id="Kształt_1036_kopia_1_" gradientUnits="userSpaceOnUse" x1="78.1" y1="217.8101" x2="222.9" y2="217.8101">
			<stop offset="0" style="stop-color:#EAEDF6"/>
			<stop offset="1" style="stop-color:#F6F8FE"/>
		</linearGradient>
		<path id="Kształt_1036_kopia" fill-rule="evenodd" clip-rule="evenodd" fill="url(#Kształt_1036_kopia_1_)" d="M218.4,224    c3-1.6,4.5-3.9,4.5-6.1c0-2.2-1.5-4.5-4.5-6.2l-28.6-16.5l-28.6-16.5c-6.8-3.4-14.7-3.4-21.5,0L111,195.1l-28.5,16.5    c-3,1.6-4.5,3.9-4.5,6.2c0,2.4,1.5,4.5,4.5,6.1l28.6,16.5l28.6,16.5c6.8,3.4,14.7,3.4,21.5,0l28.6-16.5L218.4,224z"/>
	</g>
	<g data-serverleft-center="" id="SSD_-_gray-2" style="transform: translateY(0px);">
		<linearGradient id="Kształt_1036-2_1_" gradientUnits="userSpaceOnUse" x1="78.1" y1="219.5" x2="222.9" y2="219.5">
			<stop offset="0" style="stop-color:#CAD1E0"/>
			<stop offset="0.48" style="stop-color:#BEC5D8"/>
			<stop offset="0.52" style="stop-color:#D4D9E6"/>
			<stop offset="1" style="stop-color:#E4E7F0"/>
		</linearGradient>
		<path id="Kształt_1036-2" fill-rule="evenodd" clip-rule="evenodd" fill="url(#Kształt_1036-2_1_)" d="M222.9,189H78.2    l-0.1,19.9c0,2.2,1.5,4.5,4.5,6.1l28.6,16.2l28.6,16.2c6.8,3.4,14.7,3.4,21.5,0l28.5-16.2l28.6-16.2c3-1.6,4.5-3.9,4.5-6.1    L222.9,189"/>
		
			<path id="Kształt_1036_kopia_2-2" opacity="0.4" fill-rule="evenodd" clip-rule="evenodd" fill="#142149" enable-background="new    " d="    M87.8,205.1c-0.5,0-0.9,0.2-1.2,0.6c-0.3,0.4-0.4,0.8-0.4,1.3v10.4l50.8,28.6v-9.4c-0.2-1.9-1.1-3.5-2.7-4.6l-45.3-26.5    C88.6,205.2,88.2,205.1,87.8,205.1 M207.8,211.3c-0.2,0-0.4-0.1-0.5-0.2c-0.1-0.2-0.2-0.4-0.2-0.6c0-0.8,0.5-1.5,1.2-1.9l8.7-4.9    c0.1-0.1,0.3-0.2,0.5-0.2c0.2,0,0.4,0.1,0.5,0.2c0.1,0.2,0.2,0.4,0.2,0.6c0,0.8-0.5,1.5-1.2,1.9l-8.7,4.9    C208.2,211.2,208,211.3,207.8,211.3"/>
		<linearGradient id="Kształt_1036_kopia-2_1_" gradientUnits="userSpaceOnUse" x1="78.1" y1="188.8138" x2="222.9" y2="188.8138">
			<stop offset="0" style="stop-color:#EAEDF6"/>
			<stop offset="1" style="stop-color:#F6F8FE"/>
		</linearGradient>
		<path id="Kształt_1036_kopia-2" fill-rule="evenodd" clip-rule="evenodd" fill="url(#Kształt_1036_kopia-2_1_)" d="M218.4,195    c3-1.6,4.5-3.9,4.5-6.1c0-2.2-1.5-4.5-4.5-6.2l-28.6-16.5l-28.6-16.5c-6.8-3.4-14.7-3.4-21.5,0L111,166.1l-28.5,16.5    c-3,1.6-4.5,3.9-4.5,6.2c0,2.4,1.5,4.5,4.5,6.1l28.6,16.5l28.6,16.5c6.7,3.4,14.7,3.4,21.5,0l28.6-16.5L218.4,195z"/>
	</g>
	<g data-serverleft-top="" id="SSD_-_gray-3" style="transform: translateY(0px);">
		<linearGradient id="Kształt_1036-3_1_" gradientUnits="userSpaceOnUse" x1="78.1" y1="189.5" x2="222.9" y2="189.5">
			<stop offset="0" style="stop-color:#CAD1E0"/>
			<stop offset="0.48" style="stop-color:#BEC5D8"/>
			<stop offset="0.52" style="stop-color:#D4D9E6"/>
			<stop offset="1" style="stop-color:#E4E7F0"/>
		</linearGradient>
		<path id="Kształt_1036-3" fill-rule="evenodd" clip-rule="evenodd" fill="url(#Kształt_1036-3_1_)" d="M222.9,159H78.2    l-0.1,19.9c0,2.2,1.5,4.5,4.5,6.1l28.6,16.2l28.6,16.2c6.8,3.4,14.7,3.4,21.5,0l28.5-16.2l28.6-16.2c3-1.6,4.5-3.9,4.5-6.1    L222.9,159"/>
		
			<path id="Kształt_1036_kopia_2-3" opacity="0.4" fill-rule="evenodd" clip-rule="evenodd" fill="#142149" enable-background="new    " d="    M87.8,175.1c-0.5,0-0.9,0.2-1.2,0.6c-0.3,0.4-0.4,0.8-0.4,1.3v10.4l50.8,28.6v-9.4c-0.2-1.9-1.1-3.5-2.7-4.6l-45.3-26.5    C88.6,175.2,88.2,175.1,87.8,175.1 M207.8,181.3c-0.2,0-0.4-0.1-0.5-0.2c-0.1-0.2-0.2-0.4-0.2-0.6c0-0.8,0.5-1.5,1.2-1.9l8.7-4.9    c0.1-0.1,0.3-0.2,0.5-0.2c0.2,0,0.4,0.1,0.5,0.2c0.1,0.2,0.2,0.4,0.2,0.6c0,0.8-0.5,1.5-1.2,1.9l-8.7,4.9    C208.2,181.2,208,181.3,207.8,181.3"/>
		<linearGradient id="Kształt_1036_kopia-3_1_" gradientUnits="userSpaceOnUse" x1="78.1" y1="158.8101" x2="222.9" y2="158.8101">
			<stop offset="0" style="stop-color:#EAEDF6"/>
			<stop offset="1" style="stop-color:#F6F8FE"/>
		</linearGradient>
		<path id="Kształt_1036_kopia-3" fill-rule="evenodd" clip-rule="evenodd" fill="url(#Kształt_1036_kopia-3_1_)" d="M218.4,165    c3-1.6,4.5-3.9,4.5-6.1c0-2.2-1.5-4.5-4.5-6.2l-28.6-16.5l-28.6-16.5c-6.7-3.4-14.7-3.4-21.5,0L111,136.1l-28.5,16.5    c-3,1.6-4.5,3.9-4.5,6.2c0,2.4,1.5,4.5,4.5,6.1l28.6,16.5l28.6,16.5c6.7,3.4,14.7,3.4,21.5,0l28.6-16.5L218.4,165z"/>
	</g>
</g>
<g id="cluster-kubernetes">
	<g class="animation-element" data-cluster="" id="cluster-2-3" style="opacity: 1;">
		<g data-cluster-bottom="" id="_3-2">
			<linearGradient id="Elipsa_1-5_2_" gradientUnits="userSpaceOnUse" x1="274.9951" y1="193.4241" x2="467.9951" y2="193.4241">
				<stop offset="0" style="stop-color:#1D53DA"/>
				<stop offset="1" style="stop-color:#3F75FC"/>
			</linearGradient>
			<path id="Elipsa_1-5_1_" fill-rule="evenodd" clip-rule="evenodd" fill="url(#Elipsa_1-5_2_)" d="M468,144c0,0-0.2,29.4,0,43.6     c0.2,14.4-9.4,28-28.4,39c-37.6,21.7-98.6,21.7-136.2-0.1c-18.5-10.7-28.5-24.9-28.4-38.9c0-14.7,0-43.6,0-43.6L468,144z"/>
			<linearGradient id="Elipsa_1-6_2_" gradientUnits="userSpaceOnUse" x1="274.9951" y1="146.0409" x2="467.9951" y2="146.0409">
				<stop offset="0" style="stop-color:#0B3EBF"/>
				<stop offset="1" style="stop-color:#2E5FDB"/>
			</linearGradient>
			<path id="Elipsa_1-6_1_" fill-rule="evenodd" clip-rule="evenodd" fill="url(#Elipsa_1-6_2_)" d="M439.7,106.7     c37.7,21.7,37.7,57,0.1,78.7s-98.8,21.7-136.5,0s-37.7-57-0.1-78.7S402,85,439.7,106.7z"/>
		</g>
		<g data-cluster-center="" id="_2-3" style="transform: translateY(0px);">
			<linearGradient id="Elipsa_1-7_1_" gradientUnits="userSpaceOnUse" x1="274.9951" y1="147.5165" x2="467.9951" y2="147.5165">
				<stop offset="0" style="stop-color:#1D53DA"/>
				<stop offset="1" style="stop-color:#3F75FC"/>
			</linearGradient>
			<path id="Elipsa_1-7" fill-rule="evenodd" clip-rule="evenodd" fill="url(#Elipsa_1-7_1_)" d="M468,98.1c0,0-0.2,29.4,0,43.5     c0.2,14.4-9.4,28-28.4,39c-37.6,21.7-98.6,21.7-136.2,0c-18.5-10.7-28.5-24.9-28.4-38.9c0-14.7,0-43.5,0-43.5H468z"/>
			<linearGradient id="Elipsa_1-8_1_" gradientUnits="userSpaceOnUse" x1="274.9951" y1="100.1917" x2="467.9951" y2="100.1917">
				<stop offset="0" style="stop-color:#0B3EBF"/>
				<stop offset="1" style="stop-color:#2E5FDB"/>
			</linearGradient>
			<path id="Elipsa_1-8" fill-rule="evenodd" clip-rule="evenodd" fill="url(#Elipsa_1-8_1_)" d="M439.7,60.9     c37.7,21.8,37.7,57,0.1,78.7s-98.8,21.7-136.5,0c-37.7-21.7-37.7-57-0.1-78.7S402,39.1,439.7,60.9z"/>
		</g>
		<g data-cluster-top="" id="_1-3" style="transform: translateY(0px);">
			<linearGradient id="Elipsa_1-9_1_" gradientUnits="userSpaceOnUse" x1="274.9951" y1="101.6202" x2="467.9951" y2="101.6202">
				<stop offset="0" style="stop-color:#1D53DA"/>
				<stop offset="1" style="stop-color:#3F75FC"/>
			</linearGradient>
			<path id="Elipsa_1-9" fill-rule="evenodd" clip-rule="evenodd" fill="url(#Elipsa_1-9_1_)" d="M468,52.2c0,0-0.2,29.4,0,43.5     c0.2,14.4-9.4,28-28.4,39c-37.6,21.7-98.6,21.7-136.2,0c-18.5-10.7-28.5-24.9-28.4-38.9c0-14.7,0-43.5,0-43.5H468z"/>
			<linearGradient id="Elipsa_1-10_1_" gradientUnits="userSpaceOnUse" x1="274.9951" y1="55.3317" x2="467.9951" y2="55.3317">
				<stop offset="0" style="stop-color:#0397F6"/>
				<stop offset="1" style="stop-color:#00BAFF"/>
			</linearGradient>
			<path id="Elipsa_1-10" fill-rule="evenodd" clip-rule="evenodd" fill="url(#Elipsa_1-10_1_)" d="M439.7,16.2     c37.7,21.6,37.8,56.7,0.1,78.2s-98.8,21.6-136.5,0s-37.7-56.7-0.1-78.3S402-5.4,439.7,16.2z"/>
			<path id="logo_1_" fill-rule="evenodd" clip-rule="evenodd" fill="#FFFFFF" d="M407.1,82.4L407.1,82.4c-0.1-0.1-0.3-0.2-0.1-0.2     s-0.1-0.2-0.4-0.4c-0.4-0.4-0.9-0.7-1.4-1c-0.3-0.1-0.5-0.3-0.7-0.5l-0.1-0.1c-1.3-0.9-2.5-1.9-3.7-3c-0.3-0.3-0.3-0.8,0-1.1l0,0     l-0.8-0.8c4-1.7,7.7-4.1,11-7c2.7-2.4,4.8-5.5,6.1-8.9h1.6l0.1-0.1c0.5-0.3,1-0.4,1.6-0.4c2.1,0.1,4.2,0.3,6.3,0.6l0,0     c0.4,0.1,0.8,0.1,1.2,0.2c0.8,0.1,1.4,0.2,2.2,0.4c0.3,0,0.4,0.1,0.7,0.1s0.1-0.1,0.3-0.1l0,0c2.1,0.1,3.9-0.6,4.2-1.8     c0.1-0.7-0.3-1.3-0.9-1.6c-0.8-0.4-1.6-0.6-2.5-0.7h-0.3c-0.2,0-0.4,0-0.7-0.1c-0.7,0-1.5,0-2.2,0.1c-0.3,0-0.7,0-1.1,0l0,0     c-2.1,0.1-4.1,0-6.2-0.2c-0.4,0-0.7-0.2-1-0.3c-0.2-0.1-0.3-0.2-0.4-0.4l-0.1-0.1l-1.7-0.2c0-1.2-0.1-2.5-0.1-3.7     c-1.1-5-4.7-9.9-10.2-13.8l0.9-0.7l0,0l-0.1,0.1c-0.1-0.4,0.1-0.8,0.4-1c1.5-0.9,3.1-1.7,4.7-2.4l0.1-0.1     c0.3-0.1,0.7-0.2,0.9-0.4c0.7-0.2,1.2-0.5,1.8-0.8l0.8-0.5l0,0c1.4-0.7,1.7-2,0.5-2.9c-0.9-0.6-2-0.8-3.1-0.8     c-0.9,0-1.8,0.2-2.6,0.6l0,0l-0.7,0.4c-0.5,0.3-0.9,0.6-1.3,1.1c-0.2,0.2-0.4,0.4-0.7,0.5l-0.1,0.1c-1.3,1-2.7,1.9-4.2,2.7     c-0.5,0.2-1.1,0.3-1.7,0.2l-0.3,0.2l0,0l-1.2,0.5c-1.6-0.8-3.3-1.4-5.1-2.2c-8.1-2.9-16.7-4.3-25.2-4l-0.3-0.8l-0.1-0.1     c-0.2-0.1-0.4-0.1-0.7-0.2c-0.2-0.2-0.4-0.4-0.5-0.6c-0.3-1.2-0.4-2.4-0.3-3.6l0,0c0.1-0.2,0.1-0.4,0-0.6c0-0.4,0.1-0.8,0.1-1.3     c0-0.2-0.1-0.2-0.1-0.4v-0.1l0,0c-0.2-0.6-0.6-1.1-1.2-1.4c-0.8-0.5-1.8-0.7-2.8-0.5c-2,0.2-3.3,1.3-3.1,2.4l0,0     c0.1,0.1,0,0.1,0,0.1c0,0.1,0,0.3,0.1,0.4c0.2,0.4,0.4,0.9,0.7,1.3c0.1,0.2,0.3,0.4,0.4,0.7l0,0c0.6,1.1,1,2.4,1.1,3.6     c0,0.4-0.4,0.8-0.8,0.9l0.1-0.1l0,0v0.9c-0.4,0.1-0.7,0.1-1,0.1c-10.5,1.4-19.7,4.7-26,9.7l-1.3-0.4l0,0c-0.1,0-0.2,0-0.3,0     c-0.6,0.1-1.2,0.1-1.8,0c-1.8-0.6-3.5-1.3-5.2-2.1l0,0c-0.3-0.2-0.6-0.3-0.9-0.4c-0.5-0.3-1.2-0.5-1.7-0.8     c-0.2-0.1-0.4-0.1-0.7-0.2c-0.1-0.1-0.3-0.1-0.4-0.1l0,0c-1.7-0.7-3.6-0.5-5.1,0.5l0,0c-0.9,0.8-0.5,2,0.8,2.6     c0.2,0.2,0.5,0.3,0.8,0.3l0,0c0.1,0.1,0.2,0.1,0.2,0c0,0,0,0,0,0c0.2,0,0.4,0.2,0.5,0.3c0.7,0.2,1.4,0.4,2,0.5     c0.4,0,0.7,0.1,1.1,0.3l0.1,0.1c1.9,0.5,3.7,1.1,5.5,1.8l0.1,0.1c0.3,0.1,0.6,0.5,0.7,0.8c0,0,0.1,0.1,0,0.1c0,0,0,0,0,0.1l0,0     l1.3,0.6c-4,4.6-5.7,9.8-4.5,15.1c0.2,1.2,0.6,2.3,1.2,3.4l-1.6,0.1l0,0c-0.1,0.1,0,0.1,0,0.1c-0.3,0.4-0.7,0.7-1.2,0.8     c-1.9,0.4-3.9,0.8-5.9,1l-0.1,0.1c-0.4,0.1-0.8,0.1-1.2,0.1c-0.5,0-1.3,0.1-2.2,0.2c-0.3,0-0.4,0.1-0.7,0.1c-0.1,0-0.2,0-0.3,0     l0,0c-2,0.4-3,1.6-2.5,2.6c0.2,0.3,0.4,0.5,0.7,0.7c1.3,0.6,2.7,0.8,4.1,0.5l0,0c0.1,0,0.2,0,0.3,0c0.2-0.1,0.4-0.1,0.7-0.1     c0.7-0.2,1.3-0.3,2-0.5l1.1-0.3l0,0c1.9-0.6,3.8-1,5.8-1.4c0.6-0.1,1.2,0,1.8,0.1c0.1,0.1,0.2,0.1,0.3,0c0,0,0,0,0,0l0,0l1.6-0.3     c2.5,3.2,5.7,5.9,9.3,7.8c2.5,1.5,5.2,2.7,8,3.6c1.7,0.7,3.7,1.2,5.4,1.8l-0.4,0.8l0,0c0.1,0.1,0.1,0.1,0,0.1     c0.3,0.3,0.4,0.7,0.3,1.1c-0.6,1.2-1.4,2.3-2.3,3.3l-0.1,0.1l-0.5,0.6c-0.4,0.3-0.7,0.7-0.9,1.1c0,0.1-0.1,0.2-0.1,0.4     c0,0-0.1,0.1,0,0.1c0,0,0,0,0,0l0,0c-0.4,0.9,0,1.9,0.8,2.3c0,0,0,0,0.1,0c0.4,0.2,0.9,0.4,1.3,0.5c0.9,0.2,1.8,0.1,2.6-0.1     c0.7-0.2,1.3-0.6,1.8-1.2l0,0c0.1-0.1,0-0.1,0-0.1c0.1-0.1,0.2-0.2,0.1-0.4c0.2-0.4,0.4-0.8,0.4-1.3c0.1-0.2,0.2-0.5,0.1-0.7     l0.3-0.1c0.3-1.2,0.9-2.4,1.7-3.4c0.4-0.4,0.9-0.6,1.4-0.7c0.1,0,0.2,0,0.3,0l0,0l0.7-0.8c10.7,1.6,21.5,0.9,31.9-2.1l0.9,0.7     l0,0c0.1,0,0.2,0,0.3,0c0.5,0,1,0.1,1.4,0.4l0.1,0.1c1.1,0.9,2.1,2,3,3.1l0.1,0.1c0.1,0.2,0.3,0.5,0.5,0.6     c0.2,0.4,0.5,0.9,0.8,1.2c0.1,0.1,0.3,0.3,0.4,0.4c0.1,0,0.2,0.1,0.1,0.2c0,0,0,0,0,0l0,0c0.1,0.2,0.3,0.4,0.5,0.5     c1.4,0.7,3,0.8,4.4,0.5C408.1,84.5,408.1,83.3,407.1,82.4z M373.3,58.2l-5.2-1.1l-1.8-3l2.9-2.7l5.6-0.4l3.9,2.3l-0.6,3.3     L373.3,58.2z M403.1,65.6c-2.3,2.1-4.9,3.8-7.7,5.1l-8.9-9.2l0,0c-0.9-0.8-0.4-1.9,1-2.4c0.5-0.1,1-0.2,1.4-0.2l18.7,0.6     C406.7,61.7,405.1,63.9,403.1,65.6z M408.6,54.3l-18.3-1.8c-1.4-0.2-2.6-1.1-2.4-2c0-0.3,0.2-0.6,0.5-0.8l12.4-8.1     C406,45.3,408.6,49.7,408.6,54.3L408.6,54.3L408.6,54.3z M391.5,36.7l3.1,1.2L381,45.1l0,0c-1.4,0.7-3,0.6-4.3-0.1     c-0.3-0.2-0.6-0.5-0.8-0.8l-3.2-10.8C379.1,33.5,385.5,34.6,391.5,36.7L391.5,36.7z M364.1,34.1l1.1,10.6l0,0     c0.1,1-1,1.8-2.7,1.9c-0.6,0.1-1.2,0-1.7-0.2l-16.4-5.2C349.4,37.7,356.4,35.2,364.1,34.1L364.1,34.1z M339.8,45.5l15.2,6.2     c1.1,0.6,1.4,1.6,0.5,2.3c-0.4,0.4-0.9,0.6-1.4,0.7l0,0l-17,4.1C335.5,54.4,336.4,49.6,339.8,45.5L339.8,45.5z M353.4,72.1     c-2.2-0.8-4.3-1.8-6.3-2.9c-2.6-1.5-4.9-3.4-6.9-5.5l18-3c1.4-0.1,2.8,0.4,3.1,1.2c0.1,0.4,0.2,0.7,0.1,1.1l0,0l-5.1,10.2     C355.5,72.9,354.5,72.5,353.4,72.1L353.4,72.1z M380.7,74.8c-5.2,0.7-10.5,0.7-15.7,0l7.2-10.1c1-0.8,2.4-1.1,3.7-0.7     c0.5,0.1,1,0.3,1.4,0.5l10.9,8.9C385.7,74.1,383.2,74.6,380.7,74.8L380.7,74.8z"/>
		</g>
	</g>
	
		<linearGradient id="light_2_1" gradientUnits="userSpaceOnUse" x1="371.4951" y1="14.9641" x2="371.4951" y2="-170.4895" gradientTransform="matrix(1 0 0 1 0 227.8898)">
		<stop offset="0" style="stop-color:#17BDFF"/>
		<stop offset="4.157304e-02" style="stop-color:#17BDFF;stop-opacity:0.9442"/>
		<stop offset="0.7447" style="stop-color:#17BDFF;stop-opacity:0"/>
	</linearGradient>
	<path id="light_1_" opacity="0.8" fill="url(#light_2_1)" enable-background="new    " d="M468,185.9c0,14.9-6.7,27.4-28.4,41   c-37.7,21.3-97.6,21.3-135.2,0.1c-20-11.3-29.4-24.6-29.4-42.1V57.4h193v113.8V185.9z"/>
</g>
<g class="animation-element" data-serverright="" id="ssd-right" style="opacity: 1;">
	<g data-serverright-bottom="" id="SSD_-_gray-4">
		<linearGradient id="Kształt_1036-4_1_" gradientUnits="userSpaceOnUse" x1="269.1" y1="357.8601" x2="413.9" y2="357.8601">
			<stop offset="0" style="stop-color:#CAD1E0"/>
			<stop offset="0.48" style="stop-color:#BEC5D8"/>
			<stop offset="0.52" style="stop-color:#D4D9E6"/>
			<stop offset="1" style="stop-color:#E4E7F0"/>
		</linearGradient>
		<path id="Kształt_1036-4" fill-rule="evenodd" clip-rule="evenodd" fill="url(#Kształt_1036-4_1_)" d="M413.9,327.4H269.2    l-0.1,19.9c0,2.2,1.5,4.5,4.5,6.1l28.6,16.2l28.6,16.2c6.7,3.4,14.7,3.4,21.5,0l28.5-16.2l28.6-16.2c3-1.6,4.5-3.9,4.5-6.1    L413.9,327.4"/>
		
			<path id="Kształt_1036_kopia_2-4" opacity="0.4" fill-rule="evenodd" clip-rule="evenodd" fill="#142149" enable-background="new    " d="    M278.8,343.4c-0.5,0-0.9,0.2-1.2,0.6c-0.3,0.4-0.4,0.9-0.4,1.3v10.4l50.8,28.6V375c-0.2-1.9-1.1-3.5-2.7-4.6l-45.3-26.5    C279.6,343.6,279.2,343.4,278.8,343.4 M398.8,349.6c-0.2,0-0.4-0.1-0.5-0.2c-0.1-0.2-0.2-0.4-0.2-0.6c0-0.8,0.5-1.5,1.2-1.9    l8.7-4.9c0.3-0.3,0.7-0.3,1,0c0,0,0,0,0,0c0.1,0.2,0.2,0.4,0.2,0.6c0,0.8-0.5,1.5-1.2,1.9l-8.7,4.9    C399.1,349.6,399,349.6,398.8,349.6"/>
		<linearGradient id="Kształt_1036_kopia-4_1_" gradientUnits="userSpaceOnUse" x1="269.1" y1="327.08" x2="413.9" y2="327.08">
			<stop offset="0" style="stop-color:#EAEDF6"/>
			<stop offset="1" style="stop-color:#F6F8FE"/>
		</linearGradient>
		<path id="Kształt_1036_kopia-4" fill-rule="evenodd" clip-rule="evenodd" fill="url(#Kształt_1036_kopia-4_1_)" d="M409.4,333.3    c3-1.6,4.5-3.9,4.5-6.1s-1.5-4.5-4.5-6.3l-28.6-16.5l-28.6-16.5c-6.7-3.4-14.7-3.4-21.5,0l-28.6,16.5l-28.5,16.5    c-3,1.6-4.5,3.9-4.5,6.3c0,2.4,1.5,4.5,4.5,6.1l28.6,16.5l28.6,16.5c6.7,3.4,14.7,3.4,21.5,0l28.6-16.5L409.4,333.3z"/>
	</g>
	<g data-serverright-center="" id="SSD_-_gray-5" style="transform: translateY(0px);">
		<linearGradient id="Kształt_1036-5_1_" gradientUnits="userSpaceOnUse" x1="269.1" y1="328.775" x2="413.9" y2="328.775">
			<stop offset="0" style="stop-color:#CAD1E0"/>
			<stop offset="0.48" style="stop-color:#BEC5D8"/>
			<stop offset="0.52" style="stop-color:#D4D9E6"/>
			<stop offset="1" style="stop-color:#E4E7F0"/>
		</linearGradient>
		<path id="Kształt_1036-5" fill-rule="evenodd" clip-rule="evenodd" fill="url(#Kształt_1036-5_1_)" d="M413.9,298.3H269.2    l-0.1,19.9c0,2.2,1.5,4.5,4.5,6.1l28.6,16.2l28.6,16.2c6.8,3.4,14.7,3.4,21.5,0l28.5-16.2l28.6-16.2c3-1.6,4.5-3.9,4.5-6.1    L413.9,298.3"/>
		
			<path id="Kształt_1036_kopia_2-5" opacity="0.4" fill-rule="evenodd" clip-rule="evenodd" fill="#142149" enable-background="new    " d="    M278.8,314.4c-0.5,0-0.9,0.2-1.2,0.6c-0.3,0.4-0.4,0.8-0.4,1.3v10.4l50.8,28.6v-9.4c-0.2-1.9-1.1-3.5-2.7-4.6l-45.3-26.5    C279.6,314.5,279.2,314.4,278.8,314.4 M398.8,320.6c-0.2,0-0.4-0.1-0.5-0.2c-0.1-0.2-0.2-0.4-0.2-0.6c0-0.8,0.5-1.5,1.2-1.9    l8.7-4.9c0.3-0.3,0.7-0.3,1,0c0,0,0,0,0,0c0.1,0.2,0.2,0.4,0.2,0.6c0,0.8-0.5,1.5-1.2,1.9l-8.7,4.9    C399.1,320.5,399,320.6,398.8,320.6"/>
		
			<linearGradient id="Kształt_1036_kopia-5_1_" gradientUnits="userSpaceOnUse" x1="269.1" y1="297.9962" x2="413.9" y2="297.9962">
			<stop offset="0" style="stop-color:#EAEDF6"/>
			<stop offset="1" style="stop-color:#F6F8FE"/>
		</linearGradient>
		<path id="Kształt_1036_kopia-5" fill-rule="evenodd" clip-rule="evenodd" fill="url(#Kształt_1036_kopia-5_1_)" d="M409.4,304.2    c3-1.6,4.5-3.9,4.5-6.1s-1.5-4.5-4.5-6.3l-28.6-16.5l-28.6-16.5c-6.7-3.4-14.7-3.4-21.5,0l-28.6,16.5l-28.5,16.5    c-3,1.6-4.5,3.9-4.5,6.3c0,2.4,1.5,4.5,4.5,6.1l28.6,16.5l28.6,16.5c6.7,3.4,14.7,3.4,21.5,0l28.6-16.5L409.4,304.2z"/>
	</g>
	<g data-serverright-top="" id="SSD_-_gray-6" style="transform: translateY(0px);">
		<linearGradient id="Kształt_1036-6_1_" gradientUnits="userSpaceOnUse" x1="269.1" y1="298.6902" x2="413.9" y2="298.6902">
			<stop offset="0" style="stop-color:#CAD1E0"/>
			<stop offset="0.48" style="stop-color:#BEC5D8"/>
			<stop offset="0.52" style="stop-color:#D4D9E6"/>
			<stop offset="1" style="stop-color:#E4E7F0"/>
		</linearGradient>
		<path id="Kształt_1036-6" fill-rule="evenodd" clip-rule="evenodd" fill="url(#Kształt_1036-6_1_)" d="M413.9,268.2H269.2    l-0.1,19.9c0,2.2,1.5,4.5,4.5,6.1l28.6,16.2l28.6,16.2c6.8,3.4,14.7,3.4,21.5,0l28.5-16.2l28.6-16.2c3-1.6,4.5-3.9,4.5-6.1    L413.9,268.2"/>
		
			<path id="Kształt_1036_kopia_2-6" opacity="0.4" fill-rule="evenodd" clip-rule="evenodd" fill="#142149" enable-background="new    " d="    M278.8,284.3c-0.5,0-0.9,0.2-1.2,0.6c-0.3,0.4-0.4,0.8-0.4,1.3v10.4l50.8,28.6v-9.4c-0.2-1.9-1.1-3.5-2.7-4.6l-45.3-26.5    C279.6,284.4,279.2,284.3,278.8,284.3 M398.8,290.5c-0.2,0-0.4-0.1-0.5-0.2c-0.1-0.2-0.2-0.4-0.2-0.6c0-0.8,0.5-1.5,1.2-1.9    l8.7-4.9c0.3-0.3,0.7-0.3,1-0.1c0,0,0,0,0.1,0.1c0.1,0.2,0.2,0.4,0.2,0.6c0,0.8-0.5,1.5-1.2,1.9l-8.7,4.9    C399.1,290.4,399,290.5,398.8,290.5"/>
		
			<linearGradient id="Kształt_1036_kopia-6_1_" gradientUnits="userSpaceOnUse" x1="269.245" y1="267.9139" x2="414.045" y2="267.9139">
			<stop offset="0" style="stop-color:#EAEDF6"/>
			<stop offset="1" style="stop-color:#F6F8FE"/>
		</linearGradient>
		<path id="Kształt_1036_kopia-6" fill-rule="evenodd" clip-rule="evenodd" fill="url(#Kształt_1036_kopia-6_1_)" d="M409.6,274.1    c3-1.6,4.5-3.9,4.5-6.1s-1.5-4.5-4.5-6.3l-28.6-16.5l-28.6-16.5c-6.7-3.4-14.7-3.4-21.5,0l-28.6,16.5l-28.5,16.5    c-3,1.6-4.5,3.9-4.5,6.3c0,2.4,1.5,4.5,4.5,6.1l28.6,16.5l28.6,16.5c6.7,3.4,14.7,3.4,21.5,0l28.6-16.5L409.6,274.1z"/>
	</g>
</g>
<g id="lines-2">
	<path data-animation-path="" style="stroke-dasharray: 29px; stroke-dashoffset: 3.55271e-15px; opacity: 1;" id="ssd-path-right-3" fill="none" stroke="#007BFC" d="M393.4,351.8c0-10.5,0-14.6-8.5-19.1c-1.8-0.9-3.6-1.9-5.2-2.8"/>
	<path data-animation-path="" style="stroke-dasharray: 22px; stroke-dashoffset: 3.55271e-15px; opacity: 1;" id="ssd-path-right-2" fill="none" stroke="#007BFC" d="M392.9,373.9c-0.4-5.4-2-8.4-7.7-11.7c-2.1-1.2-4.1-2.4-6-3.4"/>
	<path data-animation-path="" style="stroke-dasharray: 583px; stroke-dashoffset: 1.13687e-13px; opacity: 1;" id="ssd-path-right-1" fill="none" stroke="#007BFC" d="M379.8,301.4c1.7,1,3.4,2,5.3,3.1c7.8,4.4,8.4,8.7,8.4,19.2   c0,10.5,0.1,35.9,0.1,45.3c0,8.5,0.5,13.5,4.9,15.7c1.8,0.9,6.4,3.5,8.5,4.6c5.6,3,11.2-0.3,20.4-5.5   c16.3-9.2,75.6-45.4,77.1-46.4c12.4-8.7,8.9-18.1-5.2-26c-15.6-8.8-35.4-20.3-50.9-28.8c-8.3-4.6-16.8-12.7-4.8-19.2   c8.8-4.7,29.4-17.7,42-25.2c12.2-7.3,14-7.8,14-26.2s0-44.2,0-44.2c0.1-20.9-0.4-28.9-15.9-37.8c-2.1-1.2-18.9-11.2-32.8-19.6"/>
</g>
<g id="lines-3">
	<path data-animation-path="" style="stroke-dasharray: 203px; stroke-dashoffset: -2.84217e-14px; opacity: 1;" id="browser-line-2" fill="none" stroke="#007BFC" d="M181.8,378c2.3-1.3,4.4-2.7,6.4-4.4c10.5-9.4,5.6-16.6-7.6-24   c-15.6-8.8-76.3-48.2-91.8-56.7c-8.3-4.6-16.8-12.7-4.8-19.1c8.8-4.7,25.7-13.7,25.7-13.7"/>
	<path data-animation-path="" style="stroke-dasharray: 292px; stroke-dashoffset: 5.68434e-14px; opacity: 1;" id="browser-line-1" fill="none" stroke="#007BFC" d="M301.5,369.7c-10.6,6.4-20,12-26.9,15.9c-9.2,5.2-14.8,8.5-20.5,5.5   c-2.2-1.1-32.3-17.6-33.4-18.2c-11.1-5.9-22.4-4.9-31.9,0.9c-7.6,4.6-65.3,40.9-90.5,54.4c-12.3,6.6-14.8,0.5-14.8-9.7V381"/>
</g>
<g class="animation-element" data-animation-browser="" id="browser" style="transform: translateY(-3.55271e-15px); opacity: 1;">
	
		<linearGradient id="Prostokąt_zaokrąglony_1082_kopia_1_1" gradientUnits="userSpaceOnUse" x1="0.1" y1="312.0114" x2="172.9" y2="312.0114">
		<stop offset="1.000000e-02" style="stop-color:#3F4B75"/>
		<stop offset="1" style="stop-color:#636F99"/>
	</linearGradient>
	
		<path id="Prostokąt_zaokrąglony_1082_kopia" fill-rule="evenodd" clip-rule="evenodd" fill="url(#Prostokąt_zaokrąglony_1082_kopia_1_1)" d="   M169.1,287.1l-165.2-95c-2.1-1.2-3.8-0.5-3.8,1.6v137.3c0.3,2.5,1.7,4.7,3.8,6L169.1,432c2.1,1.2,3.8,0.5,3.8-1.6V293.1   C172.7,290.6,171.2,288.4,169.1,287.1z"/>
	<path id="Kształt_1173" fill="none" stroke="#FFFFFF" stroke-width="4" stroke-linecap="round" stroke-linejoin="round" d="   M17.8,232.9l12,7 M17.8,303.9l12,7"/>
	
		<path id="Kształt_1173_kopia_2" fill="none" stroke="#FFFFFF" stroke-width="4" stroke-linecap="round" stroke-linejoin="round" d="   M55.8,270.9l37,22 M44.8,276.9l40,24 M55.8,296.9l32,19 M42.8,302.9l59,35 M42.8,330.9l37,21"/>
	<path id="Kształt_1173_kopia" fill="none" stroke="#01AEFC" stroke-width="4" stroke-linecap="round" stroke-linejoin="round" d="   M22.8,250.9l23,14 M22.8,264.9l12,7 M22.8,277.9l23,14 M22.8,291.9l10,6 M22.8,319.9l10,6"/>
	<path id="Kształt_1160_kopia" opacity="0.18" fill-rule="evenodd" clip-rule="evenodd" enable-background="new    " d="M4.7,192.6   l164.4,94.6c2.1,1.3,3.5,3.5,3.8,5.9V304l-172-97.8v-12.1C0.9,192.1,2.6,191.4,4.7,192.6z"/>
	<path id="Elipsa_1161_kopia" fill-rule="evenodd" clip-rule="evenodd" fill="#FFFFFF" d="M7.9,200.6c1.3,0.9,2.1,2.3,2.2,3.8   c0.1,0.7-0.3,1.4-1,1.6c-0.4,0.1-0.8,0-1.2-0.3c-1.3-0.9-2.1-2.3-2.2-3.8c-0.1-0.7,0.3-1.4,1.1-1.6C7.2,200.2,7.6,200.3,7.9,200.6z    M14.2,204.3c1.3,0.8,2.1,2.3,2.2,3.8c0.1,0.7-0.3,1.4-1.1,1.6c-0.4,0.1-0.8,0-1.1-0.3c-1.3-0.8-2.1-2.3-2.2-3.8   c-0.1-0.7,0.3-1.4,1.1-1.6C13.5,203.9,13.9,204,14.2,204.3z M20.6,207.9c1.3,0.8,2.1,2.3,2.2,3.8c0.1,0.7-0.3,1.4-1,1.6   c-0.4,0.1-0.8,0-1.2-0.3c-1.3-0.8-2.1-2.3-2.2-3.8c-0.1-0.7,0.3-1.4,1.1-1.6C19.8,207.5,20.2,207.6,20.6,207.9z"/>
</g>
</svg>