<svg xmlns="http://www.w3.org/2000/svg" class="svg-illustration svg-illustration--full-control" data-animation="" data-animation-options="type:fullControl;" x="0px" y="0px" viewBox="0 0 512 432">
	<g id="light-blocks">
		<g class="svg-blue-block animation-element" data-server="" style="opacity: 1;">
			<g data-server-bottom="">
				<path class="svg-blue-block__shadow" d="M37.3,154.5l41.4-23.9c3.5-2,9.5-1.7,13.5,0.6l39.4,22.7c4,2.3,4.4,5.8,1,7.8l-41.4,23.9c-3.5,2-9.5,1.7-13.5-0.6l-39.4-22.7C34.3,160,33.9,156.5,37.3,154.5z"/>
				<path class="svg-blue-block__middle" d="M135,141.5c0.2,1.4-0.6,2.8-2.3,3.8l-41.4,24.1c-3.5,2-9.5,1.8-13.5-0.6l-39.4-22.9c-2.2-1.3-3.3-2.9-3.3-4.4h0v-16.8h100V141.5L135,141.5z"/>
			</g>
			<g data-server-center="" style="transform: translateY(0px);">
				<path class="svg-blue-block__top-dark" d="M37.3,121.4l41.4-24.1c3.5-2,9.5-1.8,13.5,0.6l39.4,22.9c4,2.3,4.4,5.8,1,7.9l-41.4,24.1c-3.5,2-9.5,1.8-13.5-0.6l-39.4-22.9C34.3,127,33.9,123.4,37.3,121.4z"/>
				<path class="svg-blue-block__middle" d="M135,118.4c0.2,1.4-0.6,2.8-2.3,3.8l-41.4,24.1c-3.5,2-9.5,1.8-13.5-0.6l-39.4-22.9c-2.2-1.3-3.3-2.9-3.3-4.4h0v-16.8h100V118.4L135,118.4z"/>
			</g>
			<g data-server-top="" style="transform: translateY(0px);">
				<path class="svg-blue-block__top-dark" d="M37.3,98.1l41.4-23.9c3.5-2,9.5-1.7,13.5,0.6l39.4,22.7c4,2.3,4.4,5.8,1,7.8l-41.4,23.9c-3.5,2-9.5,1.7-13.5-0.6l-39.4-22.7C34.3,103.6,33.9,100.1,37.3,98.1z"/>
				<path class="svg-blue-block__middle" d="M135,94.7c0.2,1.4-0.6,2.8-2.3,3.8l-41.4,24c-3.5,2-9.5,1.8-13.5-0.6L38.3,99.1c-2.2-1.3-3.3-2.9-3.3-4.4h0V77.9h100V94.7z"/>
				<path class="svg-blue-block__top-light" d="M37.3,74.5l41.4-23.9c3.5-2,9.5-1.7,13.5,0.6l39.4,22.7c4,2.3,4.4,5.8,1,7.8l-41.4,23.9c-3.5,2-9.5,1.7-13.5-0.6L38.3,82.3C34.3,80,33.9,76.5,37.3,74.5z"/>
			</g>
		</g>
		<g class="svg-light animation-element" data-animation-light="" style="transform: translateY(1.77636e-15px); opacity: 1;">
			<path class="svg-light__1" d="M171.8,170.2c0,0.2,0,0.4,0,0.6c0,2.6-1.8,5.3-5.3,7.3L98.7,217c-8,4.1-17.5,4.1-25.4,0L5.6,178c-3.3-1.9-5.1-4.3-5.2-6.9H0.3L0,0h171.9L171.8,170.2z"/>
			<path class="svg-light__reflect" d="M0,257.7v-88c0,2.6,1.8,5.3,5.3,7.3l33.9,19.5l33.9,19.5c8,4.1,17.5,4.1,25.4,0l33.9-19.5l33.9-19.5c3.5-2,5.3-4.6,5.3-7.3c0-0.5-0.1-0.9-0.2-1.3h0.6v88.8L0,257.7z M0,169.7v-1.3h0.2C0.1,168.7,0,169.2,0,169.7z"/>
		</g>
	</g>
	<g class="full-control__line">
		<path data-animation-line="" style="stroke-dashoffset: 1.13687e-13px; stroke-dasharray: 599.624px;" class="full-control__line-st0" d="M127.5,356.9v12.6c0,14.6-8.8,14.2-10.7,12.7C59,336,66.2,271,138.4,229.2c67.1-38.7,169.1-45.1,247.5-19.1c0.7,0.2,11.5,6.1,11.5-8.5l0.1-11.4"/>
		<path data-animation-line="" style="stroke-dashoffset: 1.13687e-13px; stroke-dasharray: 599.624px;" class="full-control__line-st0" d="M405.6,193.8c0,0-0.1,5.5-0.1,13.9s6.6,13.5,10.6,15.3c4.8,2.1,9.6,4.4,12.5,6c80.1,46.2,80.1,121.2-0.1,167.5c-75.1,43.4-194,46.2-274.6,8.4c-2.1-1-19.7-9-19.7-26.1l0.2-17.6"/>
	</g>
	<g class="full-control__key">
		<g class="animation-element" data-animation-keyhole="" style="transform: translateY(8.88178e-16px); opacity: 1;">
			<path class="full-control__key-st1" d="M317.1,311c0,0,0.1,26.5-0.1,28.3c-0.6,4.6-3.9,9-9.7,12.5c-13.1,7.9-34.3,7.9-47.3,0c-6.3-3.8-9.6-8.7-9.8-13.7c0-0.7,0-28.5,0-28.5L317.1,311z"/>
			<path class="full-control__key-st2" d="M317.1,305c0,0,0.1,6.5-0.1,8.3c-0.6,4.6-3.9,9-9.7,12.5c-13.1,7.9-34.3,7.9-47.3,0c-6.3-3.8-9.6-8.7-9.8-13.7c0-0.7,0-8.5,0-8.5L317.1,305z"/>
			<path class="full-control__key-st3" d="M260,291.6c13.1-7.8,34.3-7.8,47.4,0s13.1,20.5,0,28.3s-34.3,7.8-47.4,0S246.9,299.4,260,291.6z"/>
			<path class="full-control__key-st4" d="M275.2,301.7l14,7l3-2L275.2,301.7z"/>
		</g>
		<g class="animation-element" data-animation-key="" style="transform: translateY(-8.88178e-16px); opacity: 1;">
			<path class="full-control__key-st5" d="M304.8,295.7L292,281.2v25.6l-3,2l-12-43l6.1,2.4l-24.7-40c3.3-2.4,5-2.9,8.3-1l37.3,21.6c3.3,1.9,6,6.2,6,9.5v30.1C310,292.2,310,293.4,304.8,295.7z M285.2,250.8c-2.9-1.7-5.2-0.3-5.2,3 c0.2,3.7,2.1,7,5.2,9c2.9,1.7,5.2,0.3,5.2-3C290.2,256.2,288.2,252.8,285.2,250.8z"/>
			<path class="full-control__key-st6" d="M301,294.8l-12-7v20.9l-14-7v-22l-12-7c-3.3-1.9-6-6.2-6-9.5v-32.1c0-3.3,2.7-4.5,6-2.6l38.1,22.1c3.3,1.9,6,6.2,6,9.5v32.1C307,295.6,304.3,296.7,301,294.8z M282.2,252.8c-2.9-1.7-5.2-0.3-5.2,3 c0.2,3.7,2.1,7,5.2,9c2.9,1.7,5.2,0.3,5.2-3C287.2,258.2,285.2,254.8,282.2,252.8L282.2,252.8z"/>
			<path class="full-control__key-st7" d="M282.2,256.7c0,0-13.4-6-10-12c23.3-41.6,27.9,55.3,57,41c29.8-22.7-18-24-18-24"/>
		</g>
	</g>
	<g class="full-control__browser-body animation-element" data-animation-browser-body="" style="transform: translateY(3.55271e-15px); opacity: 1;">
		<path class="full-control-st14" d="M429.9,206c-61.3-35.4-151.8-43.6-226.8-24.8v-34.6h0V9.7C277.9-8.7,367.7-0.4,428.7,34.7c40.4,23.3,60.4,53.9,60.1,84.5l0,0v157.5C483.8,250.9,464.2,225.8,429.9,206z"/>
		<path class="full-control-st15" d="M488.6,296.5c-3,27.7-22.8,54.9-59.5,76c-2,1.1-4,2.2-6.1,3.3V205.3c1.8-0.9,3.5-1.9,5.2-2.9c42.5-24.5,62.4-57.1,59.7-89.2l1.1,0.4v183.1L488.6,296.5z"/>
		<path class="full-control-st16" d="M452.7,184.8c-5.6-4.2-11.5-8-17.5-11.5V69.8c25.7,15,43.2,33,52.6,52C486.7,143.9,475,165.8,452.7,184.8z M338.2,37.4c30.2,4.5,59,13,84,25.4v103.5c-25-12.3-53.8-20.7-84-25.2V37.4z M325.2,139.5c-30.3-3.3-60.8-2.8-91,1.5V37c30.2-4.2,60.7-4.6,91-1.3V139.5z"/>
	</g>
	<g class="full-control__browser animation-element" data-animation-browser="" style="transform: translateY(8.88178e-16px); opacity: 1;">
		<path class="full-control-st17" d="M221.2,266.7L56.8,172c-2.1-1.2-3.8-0.5-3.8,1.6v136.9c0.2,2.5,1.6,4.7,3.8,6l164.4,94.8c2.1,1.2,3.8,0.5,3.8-1.6V272.7C224.8,270.2,223.4,268,221.2,266.7z"/>
		<path class="full-control-st18" d="M72.2,212.7l12,7 M72.2,283.7l12,7"/>
		<path class="full-control-st18" d="M110.2,250.7l37,22 M99.2,256.7l40,24 M110.2,276.7l32,19 M97.2,282.7l59,35 M97.2,310.7l37,21"/>
		<path class="full-control-st19" d="M77.2,230.7l23,14 M77.2,244.7l12,7 M77.2,257.7l23,14 M77.2,271.7l10,6M77.2,299.7l10,6"/>
		<path class="full-control-st20" d="M57,172l164.4,94.8c2.1,1.3,3.5,3.5,3.8,6v10.9l-172-98v-12.1C53.3,171.5,54.9,170.8,57,172z"/>
		<path class="full-control-st21" d="M62.4,180.5c1.3,0.8,2.1,2.3,2.2,3.8c0.1,0.7-0.3,1.4-1.1,1.6c-0.4,0.1-0.8,0-1.1-0.3c-1.3-0.8-2.1-2.3-2.2-3.8c-0.1-0.7,0.3-1.4,1.1-1.6C61.6,180.1,62.1,180.2,62.4,180.5z M68.7,184.1c1.3,0.9,2.1,2.3,2.2,3.8c0.1,0.7-0.3,1.4-1,1.6c-0.4,0.1-0.8,0-1.2-0.3c-1.3-0.9-2.1-2.3-2.2-3.8c-0.1-0.7,0.3-1.4,1.1-1.6C67.9,183.7,68.4,183.8,68.7,184.1z M75,187.7c1.3,0.8,2.1,2.3,2.2,3.8c0.1,0.7-0.3,1.4-1.1,1.6c-0.4,0.1-0.8,0-1.1-0.3c-1.3-0.8-2.1-2.3-2.2-3.8c-0.1-0.7,0.3-1.4,1.1-1.6C74.2,187.3,74.7,187.5,75,187.7z"/>
	</g>
	<defs>
		<linearGradient id="full-control-gradient-2" x1="0%" y1="0%" x2="100%" y2="0%">
			<stop offset="0" style="stop-color:#EAEDF6"/>
			<stop offset="1" style="stop-color:#F6F8FE"/>
		</linearGradient>
		<linearGradient id="full-control-gradient-1" x1="0%" y1="0%" x2="100%" y2="0%">
			<stop offset="0" style="stop-color:#CAD1E0"/>
			<stop offset="0.48" style="stop-color:#BEC5D8"/>
			<stop offset="0.52" style="stop-color:#D4D9E6"/>
			<stop offset="1" style="stop-color:#E4E7F0"/>
		</linearGradient>
	<linearGradient id="full-control-gradient-3" gradientUnits="userSpaceOnUse" x1="136.2" y1="114" x2="136.2" y2="172.5">
		<stop offset="0" style="stop-color:#CFD4E2"/>
		<stop offset="0.7" style="stop-color:#CFD4E2;stop-opacity:0"/>
	</linearGradient>

	<linearGradient id="full-control-gradient-4" gradientUnits="userSpaceOnUse" x1="66" y1="152" x2="66" y2="210.5">
		<stop offset="0" style="stop-color:#CFD4E2"/>
		<stop offset="0.7" style="stop-color:#CFD4E2;stop-opacity:0"/>
	</linearGradient>
		<linearGradient id="full-control-gradient-10" gradientUnits="userSpaceOnUse" x1="297.9239" y1="305.4868" x2="268.4176" y2="224.419">
			<stop offset="4.189944e-02" style="stop-color:#BBC1D4"/>
			<stop offset="1" style="stop-color:#E3E6EF"/>
		</linearGradient>
		<linearGradient id="full-control-gradient-7" gradientUnits="userSpaceOnUse" x1="258.3598" y1="267.3325" x2="310" y2="267.3325">
			<stop offset="0" style="stop-color:#99A1BE"/>
			<stop offset="1" style="stop-color:#B3BACF"/>
		</linearGradient>
		<linearGradient id="full-control-gradient-8" gradientUnits="userSpaceOnUse" x1="250.1613" y1="305.7306" x2="317.1551" y2="305.7306">
			<stop offset="0" style="stop-color:#0397F6"/>
			<stop offset="1" style="stop-color:#00BAFF"/>
		</linearGradient>
		<linearGradient id="full-control-gradient-9" gradientUnits="userSpaceOnUse" x1="250.1604" y1="317.7393" x2="317.1688" y2="317.7393">
			<stop offset="0" style="stop-color:#1D53DA"/>
			<stop offset="1" style="stop-color:#3F75FC"/>
		</linearGradient>
		<linearGradient id="full-control-gradient-6" gradientUnits="userSpaceOnUse" x1="53" y1="291.5589" x2="225" y2="291.5589">
			<stop offset="1.000000e-02" style="stop-color:#3F4B75"/>
			<stop offset="1" style="stop-color:#636F99"/>
		</linearGradient>
		<linearGradient id="full-control-gradient-6" gradientUnits="userSpaceOnUse" x1="423" y1="244.5298" x2="489" y2="244.5298">
			<stop offset="0" style="stop-color:#99A1BE"/>
			<stop offset="1" style="stop-color:#B3BACF"/>
		</linearGradient>
		<linearGradient id="full-control-gradient-5" gradientUnits="userSpaceOnUse" x1="203.0699" y1="138.4738" x2="488.75" y2="138.4738">
			<stop offset="4.189944e-02" style="stop-color:#BBC1D4"/>
			<stop offset="1" style="stop-color:#E3E6EF"/>
		</linearGradient>
		<linearGradient id="full-control-gradient-11" gradientUnits="userSpaceOnUse" x1="423" y1="187.5" x2="489" y2="187.5" gradientTransform="matrix(1 0 0 -1 0 432)">
			<stop offset="0" style="stop-color:#99A1BE"/>
			<stop offset="1" style="stop-color:#B3BACF"/>
		</linearGradient>

	<linearGradient id="full-control-gradient-12" gradientUnits="userSpaceOnUse" x1="283.6625" y1="309.6" x2="283.6625" y2="357.725">
		<stop offset="0" style="stop-color:#2A60E7"/>
		<stop offset="0.7" style="stop-color:#2A60E7;stop-opacity:0"/>
	</linearGradient>
		<style type="text/css">
			.full-control__line-st0 {
				fill: none;
				stroke: #007BFC;
			}
			.full-control__key-st1 {
				opacity: .32;
				fill: url(#full-control-gradient-12);
			}
			.full-control__key-st2 {
				fill-rule: evenodd;
				clip-rule: evenodd;
				fill: url(#full-control-gradient-9);
			}
			.full-control__key-st3 {
				fill-rule: evenodd;
				clip-rule: evenodd;
				fill: url(#full-control-gradient-8);
			}
			.full-control__key-st4 {
				fill: none;
				stroke: #101C4F;
				stroke-width: 4;
				stroke-linecap: round;
				stroke-linejoin: round;
			}
			.full-control__key-st5 {
				fill-rule: evenodd;
				clip-rule: evenodd;
				fill: url(#full-control-gradient-7);
			}
			.full-control__key-st6 {
				fill-rule: evenodd;
				clip-rule: evenodd;
				fill: url(#full-control-gradient-10);
			}
			.full-control__key-st7 {
				fill: none;
				stroke: #265CE3;
				stroke-width: 3;
				stroke-linecap: round;
				stroke-dasharray: 1.000000e-03,6;
			}
			.full-control__block-st10 {
				fill-rule: evenodd;
				clip-rule: evenodd;
				fill: url(#full-control-gradient-1);
			}
			.full-control__block-st11 {
				fill-rule: evenodd;
				clip-rule: evenodd;
				fill: url(#full-control-gradient-2);
			}
			.full-control__block-st8{
				opacity:0.24;
			}
			.full-control__block-st9{
				opacity:0.48;
				fill-rule:evenodd;
				clip-rule:evenodd;
				fill:url(#full-control-gradient-3);
			}
			.full-control__block-st9-2{
				opacity:0.48;
				fill-rule:evenodd;
				clip-rule:evenodd;
				fill:url(#full-control-gradient-4);
			}
			.full-control-st14 {
				fill-rule: evenodd;
				clip-rule: evenodd;
				fill: url(#full-control-gradient-5);
			}
			.full-control-st15 {
				fill-rule: evenodd;
				clip-rule: evenodd;
				fill: url(#full-control-gradient-11);
			}
			.full-control-st16 {
				opacity: 0.1;
				fill-rule: evenodd;
				clip-rule: evenodd;
				fill: #333C5E;
				enable-background: new;
			}
			.full-control-st17 {
				fill-rule: evenodd;
				clip-rule: evenodd;
				fill: url(#full-control-gradient-6);
			}
			.full-control-st18 {
				fill: none;
				stroke: #FFFFFF;
				stroke-width: 4;
				stroke-linecap: round;
				stroke-linejoin: round;
			}
			.full-control-st19 {
				fill: none;
				stroke: #01AEFC;
				stroke-width: 4;
				stroke-linecap: round;
				stroke-linejoin: round;
			}
			.full-control-st20 {
				opacity: 0.18;
				fill-rule: evenodd;
				clip-rule: evenodd;
				enable-background: new;
			}
			.full-control-st21 {
				fill-rule: evenodd;
				clip-rule: evenodd;
				fill: #FFFFFF;
			}
			</style>

			<linearGradient id="svg-gradient__light-1" gradientUnits="userSpaceOnUse" x1="91.005" y1="232.879" x2="91.005" y2="34.043">
	<stop offset="0" style="stop-color:#17BDFF"/>
	<stop offset="0.8" style="stop-color:#17BDFF;stop-opacity:0"/>
</linearGradient>
<linearGradient id="svg-gradient__light-2" gradientUnits="userSpaceOnUse" x1="91" y1="232.876" x2="91" y2="-9.094947e-13">
	<stop offset="0" style="stop-color:#51B9FF"/>
	<stop offset="0.7" style="stop-color:#2389F0;stop-opacity:0.7"/>
	<stop offset="1" style="stop-color:#2389F0;stop-opacity:0"/>
</linearGradient>
<linearGradient id="svg-gradient__light-reflect" gradientUnits="userSpaceOnUse" x1="91.005" y1="179.391" x2="91.005" y2="274.009">
	<stop offset="0" style="stop-color:#17BDFF"/>
	<stop offset="0.8" style="stop-color:#17BDFF;stop-opacity:0"/>
</linearGradient>
			<linearGradient id="svg-gradient__blue-middle" gradientUnits="userSpaceOnUse" x1="2.398682e-02" y1="191.1406" x2="181.9869" y2="191.1406">
	<stop offset="0" style="stop-color:#1D53DA"/>
	<stop offset="1" style="stop-color:#3F75FC"/>
</linearGradient>
<linearGradient id="svg-gradient__blue-top-dark" gradientUnits="userSpaceOnUse" x1="5.257527e-03" y1="150.01" x2="182.0152" y2="150.01">
	<stop offset="0" style="stop-color:#0B3EBF"/>
	<stop offset="1" style="stop-color:#2E5FDB"/>
</linearGradient>
<linearGradient id="svg-gradient__blue-top-light" gradientUnits="userSpaceOnUse" x1="44.2653" y1="111.2336" x2="137.7526" y2="17.7463">
	<stop offset="0" style="stop-color:#0397F6"/>
	<stop offset="1" style="stop-color:#00BAFF"/>
</linearGradient>

	</defs>
</svg>