<?xml version="1.0" encoding="utf-8"?>
<!-- Generator: Adobe Illustrator 25.0.0, SVG Export Plug-In . SVG Version: 6.00 Build 0)  -->
<svg version="1.1" id="resilience" xmlns="http://www.w3.org/2000/svg" xmlns:xlink="http://www.w3.org/1999/xlink" x="0px" y="0px"
	 viewBox="0 0 152 152" enable-background="new 0 0 152 152" xml:space="preserve">
<g>
	<g id="health_checking">
		<g id="lines">
			<path id="Kształt_1559_kopia" fill="none" stroke="#0066FF" d="M106.9,131.9c-1.6-1-3.4-2.2-5.5-3.6c-4.9-3.2-3.9-6.2,1-9.1
				c1.2-0.7,30.2-16.8,31.9-18.1s2.4-4.7-3-8c-4.4-2.7-32.7-18.6-32.7-18.6"/>
			<path id="Kształt_1002" fill="none" stroke="#0066FF" d="M85.1,73.6c0,0-68.2,39-78,45c-6.9,4.2-6.4,8.4-0.4,11.8
				c5.8,3.3,19.8,12.6,28.4,17.2c5.1,2.7,10.3,5.2,19,0c13-7.7,20.7-11.6,26-15c10.9-6.9,13.7-6.1,23-1c12.3,6.8,15,8,15,8"/>
			<g id="Grupa_149">
				
					<linearGradient id="Prostokąt_780_kopia_3_1_" gradientUnits="userSpaceOnUse" x1="101.4448" y1="144.1854" x2="113.683" y2="126.3561">
					<stop  offset="0" style="stop-color:#AFCDFD"/>
					<stop  offset="1" style="stop-color:#D7E6FE"/>
				</linearGradient>
				<path id="Prostokąt_780_kopia_3" fill-rule="evenodd" clip-rule="evenodd" fill="url(#Prostokąt_780_kopia_3_1_)" d="
					M98.9,134.1l14.4,8.3l0,0c0.8,0.5,1.8,0.5,2.6-0.1c1.9-1.2,3.1-3.3,3.2-5.5c0.1-0.9-0.3-1.8-1.1-2.2l0,0l-15-8.6l0,0
					c-0.7-0.3-1.6,0-2.3,0.4c-1.9,1.2-3.1,3-3.2,5.3C97.3,132.6,97.9,133.5,98.9,134.1z"/>
				<path id="Prostokąt_780_kopia_5" fill-rule="evenodd" clip-rule="evenodd" fill="#F7F8FC" d="M115.9,135
					c-1.9,1.2-3.1,3.3-3.2,5.5c0,2,1.4,2.9,3.2,1.8c1.9-1.2,3.1-3.3,3.2-5.5C119.2,134.8,117.7,134,115.9,135z"/>
				
					<linearGradient id="Prostokąt_780_kopia_4_1_" gradientUnits="userSpaceOnUse" x1="114.9976" y1="139.9033" x2="118.1239" y2="135.7995">
					<stop  offset="0" style="stop-color:#97BEFC"/>
					<stop  offset="1" style="stop-color:#ABCAFF"/>
				</linearGradient>
				<path id="Prostokąt_780_kopia_4" fill-rule="evenodd" clip-rule="evenodd" fill="url(#Prostokąt_780_kopia_4_1_)" d="
					M115.9,135.7c-1.5,1-2.5,2.6-2.6,4.4c0,1.6,1.2,2.3,2.6,1.5c1.5-1,2.5-2.6,2.6-4.4C118.5,135.6,117.4,134.9,115.9,135.7z"/>
			</g>
			<path id="Prostokąt_zaokrąglony_1356" fill="none" stroke="#0066FF" stroke-linecap="round" stroke-linejoin="round" d="
				M115.1,137.6c16.2,9.3,17.5,10.1,17.5,10.1c2.7,1.6,2.9-0.4,2.9-3.1v-41.2"/>
			<path id="Kształt_1088" fill="none" stroke="#1A6EE2" d="M-40.9,113.3"/>
		</g>
		<g id="Grupa_148">
			<linearGradient id="Prostokąt_1389_1_" gradientUnits="userSpaceOnUse" x1="108.1737" y1="84.7873" x2="143.8113" y2="84.7873">
				<stop  offset="0" style="stop-color:#97BEFC"/>
				<stop  offset="1" style="stop-color:#ABCAFF"/>
			</linearGradient>
			<path id="Prostokąt_1389" fill-rule="evenodd" clip-rule="evenodd" fill="url(#Prostokąt_1389_1_)" d="M108.3,95.1
				c-0.9-12,6.8-26.5,17.3-32.4c5.2-3,10.1-3.2,13.9-1.3l4.4,2.3l-23.9,45.9l-4.6-2.2C111.4,105.4,108.7,101.2,108.3,95.1z"/>
			
				<linearGradient id="Elipsa_1386_kopia_2_1_" gradientUnits="userSpaceOnUse" x1="112.6954" y1="86.3651" x2="150.2777" y2="86.3651">
				<stop  offset="0" style="stop-color:#AFCDFD"/>
				<stop  offset="1" style="stop-color:#D7E6FE"/>
			</linearGradient>
			<path id="Elipsa_1386_kopia_2" fill-rule="evenodd" clip-rule="evenodd" fill="url(#Elipsa_1386_kopia_2_1_)" d="M150.2,75.6
				c0.9,11.9-6.7,26.4-17,32.3s-19.5,1.1-20.4-10.9s6.7-26.4,17-32.3S149.3,63.7,150.2,75.6z"/>
			<path id="Prostokąt_1389-2" fill-rule="evenodd" clip-rule="evenodd" fill="#0066FF" d="M122.2,93.6
				c-0.6-7.5,4.2-16.5,10.7-20.2c3.2-1.8,6.3-2,8.6-0.8h0l6.2,3.4l-15.4,28.3l-5.7-3C124.2,100.1,122.5,97.4,122.2,93.6z"/>
			<path id="Elipsa_1386_kopia_2-2" fill-rule="evenodd" clip-rule="evenodd" fill="#007BFC" d="M152,83.6
				c0.6,7.5-4.2,16.5-10.6,20.2s-12.1,0.7-12.7-6.8s4.2-16.5,10.6-20.2S151.4,76.2,152,83.6z"/>
		</g>
		<g id="Grupa_58">
			<path id="Elipsa_1378" fill="none" stroke="#FFFFFF" stroke-linecap="round" stroke-linejoin="round" d="M147.5,86.8
				c-0.3,5.1-2.9,9.7-7.2,12.5c-4,2.3-7.2,0.4-7.2-4.2c0.3-5.1,2.9-9.7,7.2-12.5c0.9-0.5,1.8-0.8,2.8-1"/>
			<path id="Kształt_1385" fill="none" stroke="#FFFFFF" stroke-linecap="round" stroke-linejoin="round" d="M143.4,81.1l-2.9-0.5"
				/>
			<path id="Kształt_1386" fill="none" stroke="#FFFFFF" stroke-width="2" stroke-linecap="round" stroke-linejoin="round" d="
				M143.4,81.7l-1.9,2.4"/>
		</g>
	</g>
	<g id="Grupa_107">
		<g id="apps">
			<path id="Prostokąt_zaokrąglony_998_kopia_2" fill-rule="evenodd" clip-rule="evenodd" fill="#FFFFFF" stroke="#101C4F" d="
				M97.9,24.4L59.1,1.8c-1.5-0.8-2.6-0.3-2.6,1.1v59.3c0.2,1.7,1.1,3.3,2.6,4.2L97.9,89c1.5,0.8,2.6,0.3,2.6-1.1V28.6
				C100.3,26.8,99.4,25.3,97.9,24.4z"/>
			<g id="check_kopia_2">
				<path id="Elipsa_1036" fill-rule="evenodd" clip-rule="evenodd" fill="#007BFC" d="M77.6,36.1c4.8,2.8,8.7,9.5,8.7,15
					s-3.9,7.8-8.7,5s-8.7-9.5-8.7-15S72.9,33.4,77.6,36.1z"/>
				<path id="Kształt_1037" fill="none" stroke="#FFFFFF" stroke-width="2" stroke-linecap="round" stroke-linejoin="round" d="
					M74.2,45.1l2.6,3.5l4.3-3.5"/>
			</g>
			<path id="Prostokąt_zaokrąglony_998_kopia_3" fill-rule="evenodd" clip-rule="evenodd" fill="#FFFFFF" stroke="#101C4F" d="
				M70.9,40.7L32.1,18.1c-1.5-0.8-2.6-0.3-2.6,1.1v59.3c0.2,1.7,1.1,3.3,2.6,4.2l38.7,22.6c1.5,0.8,2.6,0.3,2.6-1.1V44.9
				C73.3,43.1,72.4,41.6,70.9,40.7z"/>
			<g id="check_kopia">
				<path id="Elipsa_1036-2" fill-rule="evenodd" clip-rule="evenodd" fill="#007BFC" d="M48.6,52.1c4.8,2.8,8.7,9.5,8.7,15
					s-3.9,7.8-8.7,5s-8.7-9.5-8.7-15S43.9,49.4,48.6,52.1z"/>
				<path id="Kształt_1037-2" fill="none" stroke="#FFFFFF" stroke-width="2" stroke-linecap="round" stroke-linejoin="round" d="
					M45.2,61.1l2.6,3.5l4.3-3.5"/>
			</g>
			<path id="Prostokąt_zaokrąglony_998_kopia" fill-rule="evenodd" clip-rule="evenodd" fill="#FFFFFF" stroke="#101C4F" d="
				M41.9,58.9L3.1,36.3c-1.5-0.8-2.6-0.3-2.6,1.1v59.3c0.2,1.7,1.1,3.3,2.6,4.2l38.7,22.6c1.5,0.8,2.6,0.3,2.6-1.1V63.1
				C44.3,61.3,43.4,59.8,41.9,58.9z"/>
			<g id="check">
				<path id="Elipsa_1036-3" fill-rule="evenodd" clip-rule="evenodd" fill="#007BFC" d="M20.6,70.1c4.8,2.8,8.7,9.5,8.7,15
					s-3.9,7.8-8.7,5s-8.7-9.5-8.7-15S15.9,67.4,20.6,70.1z"/>
				<path id="Kształt_1037-3" fill="none" stroke="#FFFFFF" stroke-width="2" stroke-linecap="round" stroke-linejoin="round" d="
					M17.2,79.1l2.6,3.5l4.3-3.5"/>
			</g>
		</g>
	</g>
	<g id="cog">
		<path id="Kształt_1068" fill="none" stroke="#0066FF" d="M143.1,27.8v4.1c0,0.4-0.2,0.5-0.5,0.4l-3.8-1.4c-0.2,0.7-0.5,1.4-0.9,2
			l2.2,5c0.2,0.3,0.1,0.7-0.1,0.9l-2.5,1.4c-0.3,0.1-0.7-0.1-0.8-0.4l-3.1-4.4c-0.7,0-1.5,0-2.2-0.2l-0.7,4.1c0,0.3-0.3,0.4-0.6,0.3
			l-3.5-2c-0.3-0.2-0.6-0.6-0.6-1l-0.6-4.8c-0.8-0.7-1.5-1.6-2.2-2.4l-3.1,0.7c-0.3,0-0.7-0.2-0.8-0.5l-2.5-4.4
			c-0.2-0.3-0.3-0.7-0.1-1l2.2-2.3c-0.4-1-0.7-2.1-0.9-3.2l-3.7-2.9c-0.3-0.2-0.5-0.6-0.5-1v-4.1c0-0.4,0.2-0.5,0.5-0.4l3.7,1.4
			c0.2-0.7,0.5-1.4,0.9-2L117,4.7c-0.1-0.3,0-0.7,0.2-0.9l2.5-1.5c0.3-0.1,0.7,0.1,0.8,0.4l3.1,4.4c0.7,0,1.5,0,2.2,0.2l0.6-4.1
			c0-0.3,0.3-0.4,0.6-0.3l3.5,2c0.3,0.2,0.6,0.6,0.6,1l0.7,4.8c0.8,0.7,1.5,1.5,2.2,2.3l3.1-0.6c0.4,0,0.7,0.2,0.8,0.6l2.5,4.4
			c0.2,0.3,0.3,0.7,0.1,1l-2.2,2.3c0.4,1,0.7,2,0.9,3.1l3.8,2.9C143,27.1,143.1,27.5,143.1,27.8z"/>
		<path id="Kształt_1068-2" fill="none" stroke="#0066FF" d="M133.3,24.2c-0.2-3.4-1.9-6.5-4.7-8.4c-2.6-1.5-4.7-0.3-4.7,2.8
			c0.2,3.4,1.9,6.5,4.7,8.4C131.3,28.4,133.3,27.2,133.3,24.2z"/>
	</g>
</g>
</svg>
