<?xml version="1.0" encoding="utf-8"?>
<!-- Generator: Adobe Illustrator 25.0.0, SVG Export Plug-In . SVG Version: 6.00 Build 0)  -->
<svg version="1.1" id="resources-efficient" xmlns="http://www.w3.org/2000/svg" xmlns:xlink="http://www.w3.org/1999/xlink"
	 x="0px" y="0px" viewBox="0 0 152 152" enable-background="new 0 0 152 152" xml:space="preserve">
<g id="lines">
	<path id="Kształt_1002_1_" fill="none" stroke="#0066FF" d="M41.5,49v25.5c0.1,1.5,1,2.9,2.3,3.7c0,0,15.1,10.3,23.7,14.8
		c5.1,2.7,10.3,5.2,19,0c13-7.7,20.7-11.6,26-15"/>
	<path id="Kształt_1554_2_" fill="none" stroke="#0066FF" d="M47.7,116.2c0,0,22.8-12.5,24.5-13.8s2.4-4.7-3-8
		c-1.5-0.9-5.3-3.1-9.8-5.6"/>
</g>
<g id="apps">
	
		<linearGradient id="Prostokąt_zaokrąglony_998_kopia-2_1_" gradientUnits="userSpaceOnUse" x1="0" y1="120.8398" x2="38" y2="120.8398" gradientTransform="matrix(1 0 0 -1 0 151.8898)">
		<stop  offset="0" style="stop-color:#97BEFC"/>
		<stop  offset="1" style="stop-color:#ABCAFF"/>
	</linearGradient>
	
		<path id="Prostokąt_zaokrąglony_998_kopia-2" fill-rule="evenodd" clip-rule="evenodd" fill="url(#Prostokąt_zaokrąglony_998_kopia-2_1_)" d="
		M2.3,20.6L35.7,0.4C37-0.3,38,0.1,38,1.4v36.4c-0.1,1.5-1,2.9-2.3,3.7L2.3,61.7C1,62.4,0,62,0,60.7V24.3C0.1,22.8,1,21.4,2.3,20.6z
		"/>
	
		<linearGradient id="Prostokąt_zaokrąglony_998_kopia-3_1_" gradientUnits="userSpaceOnUse" x1="9" y1="114.8175" x2="47" y2="114.8175" gradientTransform="matrix(1 0 0 -1 0 151.8898)">
		<stop  offset="0" style="stop-color:#AFCDFD"/>
		<stop  offset="1" style="stop-color:#D7E6FE"/>
	</linearGradient>
	
		<path id="Prostokąt_zaokrąglony_998_kopia-3" fill-rule="evenodd" clip-rule="evenodd" fill="url(#Prostokąt_zaokrąglony_998_kopia-3_1_)" d="
		M11.3,26.6L44.7,6.4C46,5.7,47,6.1,47,7.4v36.4c-0.1,1.5-1,2.9-2.3,3.7L11.3,67.7C10,68.5,9,68,9,66.7V30.3
		C9.1,28.8,10,27.4,11.3,26.6z"/>
	<path id="Prostokąt_zaokrąglony_998_kopia-4" fill-rule="evenodd" clip-rule="evenodd" fill="#007BFC" d="M21.3,30.6l33.5-20.1
		c1.3-0.8,2.3-0.3,2.3,1v36.4c-0.1,1.5-1,2.9-2.3,3.7L21.3,71.7C20,72.4,19,72,19,70.7V34.3C19.1,32.8,20,31.4,21.3,30.6z"/>
	<path id="Kształt_1253" fill="none" stroke="#FFFFFF" stroke-width="2" stroke-linecap="round" stroke-linejoin="round" d="
		M40,31.1l8-5v10"/>
	<path id="Kształt_1253_kopia" fill="none" stroke="#FFFFFF" stroke-width="2" stroke-linecap="round" stroke-linejoin="round" d="
		M38,51.1l-7,5v-9"/>
</g>
<g id="kubernetes-3">
	
		<linearGradient id="Elipsa_1_1_" gradientUnits="userSpaceOnUse" x1="94" y1="94.7273" x2="152.0025" y2="94.7273" gradientTransform="matrix(1 0 0 -1 0 151.8898)">
		<stop  offset="0" style="stop-color:#AFCDFD"/>
		<stop  offset="1" style="stop-color:#D7E6FE"/>
	</linearGradient>
	<path id="Elipsa_1" fill-rule="evenodd" clip-rule="evenodd" fill="url(#Elipsa_1_1_)" d="M152,31.9c0,0-0.1,29.6,0,33.9
		c0.1,4.4-2.8,8.6-8.5,11.9c-11.3,6.7-29.6,6.7-40.9,0C97,74.5,94,70.1,94,65.8c0-4.5,0-34.2,0-34.2L152,31.9z"/>
	<g transform="translate(-1118 -1912)">
		<path id="Elipsa_1-2" fill="none" d="M1269.4,1966.8c0,4.3-2.8,8.6-8.3,11.8c-11.1,6.5-29.1,6.5-40.2,0c-5.6-3.3-8.4-7.6-8.3-12"
			/>
	</g>
	<g transform="translate(-1118 -1912)">
		
			<linearGradient id="Elipsa_1-2_2_" gradientUnits="userSpaceOnUse" x1="2330.0974" y1="87.8106" x2="2387.8999" y2="87.8106" gradientTransform="matrix(1 0 0 -1 -1118 2063.8896)">
			<stop  offset="0" style="stop-color:#97BEFC"/>
			<stop  offset="1" style="stop-color:#ABCAFF"/>
		</linearGradient>
		<path id="Elipsa_1-2_1_" fill="none" stroke="url(#Elipsa_1-2_2_)" stroke-linecap="round" stroke-miterlimit="10" d="
			M1269.4,1967.8c0,4.3-2.8,8.6-8.3,11.8c-11.1,6.5-29.1,6.5-40.2,0c-5.6-3.3-8.4-7.6-8.3-12"/>
	</g>
	<g transform="translate(-1118 -1912)">
		<path id="Elipsa_1-3" fill="none" d="M1269.4,1954.9c0,4.3-2.8,8.6-8.3,11.8c-11.1,6.5-29.1,6.5-40.2,0c-5.6-3.3-8.4-7.6-8.3-11.9
			"/>
	</g>
	<g transform="translate(-1118 -1912)">
		
			<linearGradient id="Elipsa_1-3_2_" gradientUnits="userSpaceOnUse" x1="2330.0974" y1="99.6606" x2="2387.8999" y2="99.6606" gradientTransform="matrix(1 0 0 -1 -1118 2063.8896)">
			<stop  offset="0" style="stop-color:#97BEFC"/>
			<stop  offset="1" style="stop-color:#ABCAFF"/>
		</linearGradient>
		<path id="Elipsa_1-3_1_" fill="none" stroke="url(#Elipsa_1-3_2_)" stroke-linecap="round" stroke-miterlimit="10" d="
			M1269.4,1955.9c0,4.3-2.8,8.6-8.3,11.8c-11.1,6.5-29.1,6.5-40.2,0c-5.6-3.3-8.4-7.6-8.3-11.9"/>
	</g>
	
		<linearGradient id="Elipsa_1-4_1_" gradientUnits="userSpaceOnUse" x1="94.025" y1="120.2898" x2="151.975" y2="120.2898" gradientTransform="matrix(1 0 0 -1 0 151.8898)">
		<stop  offset="0" style="stop-color:#97BEFC"/>
		<stop  offset="1" style="stop-color:#ABCAFF"/>
	</linearGradient>
	<path id="Elipsa_1-4" fill-rule="evenodd" clip-rule="evenodd" fill="url(#Elipsa_1-4_1_)" d="M143.5,19.7
		c11.3,6.6,11.3,17.2,0,23.8s-29.7,6.6-41,0s-11.3-17.2,0-23.8S132.2,13.1,143.5,19.7z"/>
</g>
<g id="kubernetes-2">
	<path id="Elipsa_1-5" fill-rule="evenodd" clip-rule="evenodd" fill="#FFFFFF" stroke="#0066FF" stroke-dasharray="4,2" d="
		M139.5,101c0,0-0.1,29.5,0,33.8c0.1,4.4-2.8,8.6-8.5,11.9c-11.3,6.6-29.6,6.6-40.9,0c-5.6-3.3-8.6-7.6-8.5-11.9
		c0-4.5,0-34.1,0-34.1L139.5,101z"/>
	
		<path id="Elipsa_1-6" fill-rule="evenodd" clip-rule="evenodd" fill="#FFFFFF" stroke="#0066FF" stroke-linecap="round" stroke-linejoin="round" stroke-dasharray="4,2" d="
		M139.5,123.8c0,4.4-2.8,8.7-8.5,12c-11.3,6.7-29.7,6.6-41,0c-5.7-3.4-8.5-7.8-8.5-12.2"/>
	
		<path id="Elipsa_1-7" fill-rule="evenodd" clip-rule="evenodd" fill="#FFFFFF" stroke="#0066FF" stroke-linecap="round" stroke-linejoin="round" stroke-dasharray="4,2" d="
		M139.5,111.7c0,4.4-2.8,8.7-8.5,12c-11.3,6.7-29.7,6.6-41,0c-5.7-3.4-8.5-7.8-8.5-12.2"/>
	<path id="Elipsa_1-8" fill-rule="evenodd" clip-rule="evenodd" fill="#FFFFFF" stroke="#0066FF" stroke-dasharray="4,2" d="
		M131,88.7c11.3,6.6,11.3,17.4,0,24s-29.7,6.6-41,0s-11.3-17.4,0-24S119.7,82.1,131,88.7z"/>
</g>
<g id="kubernetes-1">
	<path id="Elipsa_1-9" fill-rule="evenodd" clip-rule="evenodd" fill="#FFFFFF" stroke="#142149" d="M59.5,84.9c0,0-0.1,29.5,0,33.9
		s-2.8,8.6-8.5,11.9c-11.3,6.6-29.6,6.6-40.9,0c-5.6-3.3-8.6-7.6-8.6-11.9c0-4.5,0-34.1,0-34.1L59.5,84.9z"/>
	<path id="Elipsa_1-10" fill="none" stroke="#142149" stroke-linecap="round" stroke-linejoin="round" d="M59.5,107.7
		c0,4.4-2.8,8.7-8.5,12.1c-11.3,6.7-29.7,6.7-41,0c-5.7-3.4-8.5-7.8-8.5-12.2"/>
	<path id="Elipsa_1-11" fill="none" stroke="#142149" stroke-linecap="round" stroke-linejoin="round" d="M59.5,95.6
		c0,4.4-2.8,8.7-8.5,12.1c-11.3,6.7-29.7,6.7-41,0c-5.7-3.4-8.5-7.8-8.5-12.2"/>
	<path id="Elipsa_1-12" fill-rule="evenodd" clip-rule="evenodd" fill="#FFFFFF" stroke="#142149" d="M51,72.7
		c11.3,6.6,11.3,17.2,0,23.7s-29.7,6.6-41,0s-11.3-17.2,0-23.7S39.7,66.1,51,72.7z"/>
</g>
</svg>
