<svg xmlns="http://www.w3.org/2000/svg" fill="none" viewBox="0 0 48 48"><path fill="url(#a)" stroke="url(#b)" stroke-linecap="round" stroke-linejoin="round" d="M30.69 25.453 5.1 40.148l2.513-27.994L27.76.971l2.93 24.482z"/><path fill="#1062FE" stroke="#1062FE" stroke-linecap="round" stroke-linejoin="round" d="m36.686 29.114-25.59 14.695 2.513-27.994L33.784 4.543l2.903 24.572z"/><path fill="#fff" stroke="#393D45" stroke-linecap="round" stroke-linejoin="round" d="M42.983 33.152 17.31 47.327l2.513-27.994 20.299-11.22 2.861 25.039z"/><path stroke="#393D45" stroke-linecap="round" stroke-linejoin="round" d="M24.524 22.152v-6.424c.494-3.83 3.583-9.349 7.495-9.349s3.247 2.966 3.48 4.366v4.983"/><path fill="#393D45" d="M23.382 22.006c-.148.606-.096 1.364.384 1.551.713.28 1.542-.583 1.772-1.32.189-.607.288-1.327-.298-1.535-.81-.287-1.647.443-1.858 1.304zm11.002-6.111c-.148.606-.096 1.364.384 1.551.713.28 1.542-.583 1.772-1.32.189-.607.287-1.327-.298-1.535-.81-.287-1.647.443-1.858 1.304z"/><defs><linearGradient id="a" x1="30.744" x2="5.197" y1="20.308" y2="20.308" gradientUnits="userSpaceOnUse"><stop offset="0" stop-color="#B2CFFD"/><stop offset="1" stop-color="#D3E3FE"/></linearGradient><linearGradient id="b" x1="31.289" x2="4.654" y1="20.304" y2="20.315" gradientUnits="userSpaceOnUse"><stop offset="0" stop-color="#B2CFFD"/><stop offset="1" stop-color="#D3E3FE"/></linearGradient></defs></svg>