<svg xmlns="http://www.w3.org/2000/svg" viewBox="0 0 312 246"><path d="M0 169.59h41.82a129.87 129.87 0 0 0 10-13.766c.168-2.648.282-5.312.282-8.004A123.412 123.412 0 0 0 16.39 60.832a105.635 105.635 0 0 1 8.203 40.918A105.47 105.47 0 0 1 0 169.59Zm0 0" style="stroke:none;fill-rule:nonzero;fill:#1791ff;fill-opacity:1"/><path d="M24.324 185.977h23.024c.992-3.625 1.867-7.266 2.562-10.891H0a34.887 34.887 0 0 1 24.324 10.89ZM41.988 201.512c1.528-3.739 2.942-7.535 4.145-11.414H27.664a34.695 34.695 0 0 1 5.219 11.414ZM40.293 205.633H33.66c.195 1.48.3 2.969.309 4.46a35.015 35.015 0 0 1-1.442 10.114 109.896 109.896 0 0 0 7.766-14.574Zm0 0" style="stroke:none;fill-rule:nonzero;fill:#51adff;fill-opacity:1"/><path d="M259.914 169.59h50.164c7.059-39.594-5.539-80.156-33.773-108.758 15.23 36.477 8.91 78.41-16.39 108.758Zm0 0" style="stroke:none;fill-rule:nonzero;fill:#1791ff;fill-opacity:1"/><path d="M284.266 185.977h23.336c.976-3.57 1.824-7.211 2.476-10.891h-50.164a34.94 34.94 0 0 1 24.352 10.89ZM302.145 201.512c1.566-3.723 3.023-7.52 4.242-11.414h-18.813a34.892 34.892 0 0 1 5.219 11.414ZM300.39 205.633h-6.82c.196 1.48.293 2.969.301 4.46a35.03 35.03 0 0 1-1.418 10.114 121.426 121.426 0 0 0 7.938-14.574Zm0 0" style="stroke:none;fill-rule:nonzero;fill:#51adff;fill-opacity:1"/><path d="M51.184 169.59h56.3a162.746 162.746 0 0 0 7.524-9.817c.625-5.644.937-11.316.933-16.996.063-40.722-15.96-79.82-44.578-108.757A132.11 132.11 0 0 1 81.602 85.19a131.733 131.733 0 0 1-30.418 84.399Zm0 0" style="stroke:none;fill-rule:nonzero;fill:#1781ff;fill-opacity:1"/><path d="M111.074 185.977c.922-3.614 1.742-7.239 2.406-10.891H51.254c-.113.14-.215-.129-.313 0a43.238 43.238 0 0 1 27.38 10.89ZM106.352 201.512c1.414-3.754 2.59-7.563 3.664-11.414H82.324a44.79 44.79 0 0 1 7.211 11.414ZM99.746 217.035c1.797-3.71 3.508-7.508 5.035-11.402h-13.66a43.586 43.586 0 0 1 2.106 11.402ZM93.258 221.156a44.788 44.788 0 0 1-1.797 10.723c2.207-3.441 4.242-7.082 6.195-10.723Zm0 0" style="stroke:none;fill-rule:nonzero;fill:#51a1ff;fill-opacity:1"/><path d="M196.582 169.59h54.223a108.64 108.64 0 0 0 10.054-14.305c.329-4.12.524-8.285.524-12.508.066-40.722-15.957-79.824-44.578-108.757 18.984 45.437 11.191 97.671-20.223 135.57Zm0 0" style="stroke:none;fill-rule:nonzero;fill:#1781ff;fill-opacity:1"/><path d="M256.46 185.977c.923-3.614 1.77-7.254 2.435-10.891h-62.313c-.113.14-.21-.129-.324 0a43.287 43.287 0 0 1 27.394 10.89ZM251.738 201.512c1.414-3.754 2.575-7.563 3.664-11.414h-27.636a44.391 44.391 0 0 1 7.226 11.414ZM245.16 217.035c1.797-3.71 3.496-7.508 5.024-11.402h-13.621a44.095 44.095 0 0 1 2.12 11.402ZM238.7 221.156a44.025 44.025 0 0 1-1.798 10.723c2.207-3.43 4.243-7.082 6.18-10.723Zm0 0" style="stroke:none;fill-rule:nonzero;fill:#51a1ff;fill-opacity:1"/><path d="M115.758 169.59h72.648a141.55 141.55 0 0 0 6.86-9.035 195.551 195.551 0 0 0 1.586-24.559C196.914 85.074 176.863 36.2 141.074.031a165.06 165.06 0 0 1 12.813 63.93 164.785 164.785 0 0 1-38.13 105.629Zm0 0" style="stroke:none;fill-rule:nonzero;fill:#2765ff;fill-opacity:1"/><path d="M191.434 185.977c.863-3.614 1.656-7.239 2.32-10.891h-77.996c-.098.125-.2-.129-.297 0a54.043 54.043 0 0 1 30.902 10.89ZM160.434 201.512h26.558c1.23-3.766 2.38-7.563 3.383-11.414h-39.148a55.512 55.512 0 0 1 9.207 11.414ZM181.266 217.035a209.326 209.326 0 0 0 4.37-11.402h-22.898a54.56 54.56 0 0 1 4.242 11.402ZM168.438 232.57h5.515a204.953 204.953 0 0 0 5.516-11.414h-11.653c.493 2.977.746 5.989.75 9.008-.043.809-.101 1.602-.129 2.406ZM168.098 236.691a54.387 54.387 0 0 1-1.907 9.278c1.938-3 3.746-6.117 5.5-9.278Zm0 0" style="stroke:none;fill-rule:nonzero;fill:#508aff;fill-opacity:1"/></svg>