<svg xmlns="http://www.w3.org/2000/svg" viewBox="0 0 245 193"><path d="M0 133.05h32.84a101.407 101.407 0 0 0 7.851-10.8c.133-2.078.223-4.164.223-6.277a96.766 96.766 0 0 0-28.043-68.246 82.794 82.794 0 0 1 6.441 32.101A82.699 82.699 0 0 1 0 133.051ZM19.102 145.906H37.18c.777-2.844 1.468-5.699 2.011-8.543H0a27.418 27.418 0 0 1 19.102 8.543ZM32.973 158.098c1.199-2.934 2.308-5.91 3.254-8.957H21.723a27.196 27.196 0 0 1 4.097 8.957ZM31.64 161.332h-5.21c.156 1.16.238 2.328.246 3.5a27.573 27.573 0 0 1-1.133 7.934 86.467 86.467 0 0 0 6.098-11.434ZM204.098 133.05h39.39a97.128 97.128 0 0 0-26.52-85.323c11.962 28.617 7 61.515-12.87 85.324ZM223.223 145.906h18.324a94.347 94.347 0 0 0 1.941-8.543h-39.39a27.472 27.472 0 0 1 19.125 8.543ZM237.258 158.098c1.234-2.922 2.379-5.903 3.332-8.957h-14.77a27.392 27.392 0 0 1 4.098 8.957ZM235.883 161.332h-5.352c.149 1.16.227 2.328.23 3.5a27.55 27.55 0 0 1-1.109 7.934 94.925 94.925 0 0 0 6.23-11.434ZM40.191 133.05h44.211a125.56 125.56 0 0 0 5.907-7.698c.492-4.43.738-8.88.734-13.336A121.028 121.028 0 0 0 56.039 26.69a103.559 103.559 0 0 1 8.04 40.145A103.284 103.284 0 0 1 40.19 133.05ZM87.223 145.906a123.937 123.937 0 0 0 1.886-8.543H40.246c-.09.11-.168-.101-.242 0a34.006 34.006 0 0 1 21.5 8.543ZM83.516 158.098c1.109-2.946 2.03-5.934 2.875-8.957H64.645a35.27 35.27 0 0 1 5.664 8.957ZM78.328 170.273c1.41-2.91 2.754-5.886 3.953-8.941H71.555a34.182 34.182 0 0 1 1.652 8.941ZM73.23 173.508a34.95 34.95 0 0 1-1.41 8.414c1.73-2.703 3.332-5.559 4.864-8.414ZM154.367 133.05h42.578a85.319 85.319 0 0 0 7.899-11.222c.254-3.234.41-6.5.41-9.812A121.005 121.005 0 0 0 170.25 26.69c14.906 35.649 8.785 76.63-15.883 106.36ZM201.387 145.906c.722-2.832 1.39-5.687 1.91-8.543h-48.93c-.09.11-.168-.101-.254 0a34.037 34.037 0 0 1 21.512 8.543ZM197.68 158.098c1.11-2.946 2.02-5.934 2.875-8.957h-21.7c2.336 2.68 4.25 5.699 5.676 8.957ZM192.516 170.273c1.41-2.91 2.742-5.886 3.941-8.941h-10.695a34.528 34.528 0 0 1 1.668 8.941ZM187.441 173.508a34.54 34.54 0 0 1-1.41 8.414c1.73-2.692 3.328-5.559 4.852-8.414ZM90.898 133.05h57.051a112.032 112.032 0 0 0 5.387-7.09 154.187 154.187 0 0 0 1.242-19.265A151.31 151.31 0 0 0 110.778.023 129.317 129.317 0 0 1 120.84 50.18a129.184 129.184 0 0 1-29.942 82.87ZM150.324 145.906c.68-2.832 1.301-5.676 1.82-8.543H90.899c-.078.098-.156-.101-.234 0a42.446 42.446 0 0 1 24.266 8.543ZM125.98 158.098h20.856a152.243 152.243 0 0 0 2.656-8.957H118.75a43.52 43.52 0 0 1 7.23 8.957ZM142.34 170.273a166.258 166.258 0 0 0 3.433-8.941h-17.98a43.21 43.21 0 0 1 3.332 8.941ZM132.266 182.465h4.332a160.506 160.506 0 0 0 4.332-8.957h-9.153c.391 2.336.586 4.699.59 7.066-.035.637-.078 1.258-.101 1.89ZM132 185.7a42.45 42.45 0 0 1-1.5 7.277c1.523-2.356 2.945-4.801 4.32-7.278Zm0 0" style="stroke:none;fill-rule:nonzero;fill:#000;fill-opacity:1"/></svg>