<svg xmlns="http://www.w3.org/2000/svg" xmlns:xlink="http://www.w3.org/1999/xlink" fill="#fff" fill-rule="evenodd" stroke="#000" stroke-linecap="round" stroke-linejoin="round" viewBox="0 0 85 85"><use xlink:href="#a" x="2.5" y="2.5"/><symbol id="a" overflow="visible"><g stroke="none"><path fill="#876929" d="M0 0h80v80H0z"/><path fill="#d9a741" d="M0 0h80v76.414H0z"/><path d="M69.092 31.966a27.663 27.663 0 0 0-3.914-9.052l3.765-3.601-9.226-8.781-3.765 3.601a30.36 30.36 0 0 0-9.449-3.757V5.295H33.497v5.067a30.376 30.376 0 0 0-9.449 3.757l-3.765-3.587-9.211 8.81 3.75 3.572a27.68 27.68 0 0 0-3.929 9.038H5.595v12.453h5.298a27.68 27.68 0 0 0 3.929 9.038l-3.75 3.629 9.211 8.81 3.765-3.601a30.37 30.37 0 0 0 9.449 3.757v5.067h13.021v-5.081a30.386 30.386 0 0 0 9.449-3.757l3.765 3.601 9.197-8.796-3.765-3.601a27.67 27.67 0 0 0 3.928-9.038h5.298V31.966zM58.586 47.11c-2.007 3.803-5.235 6.89-9.211 8.81a21.53 21.53 0 0 1-18.75 0c-3.976-1.919-7.204-5.007-9.211-8.81a19.02 19.02 0 0 1 0-17.933c2.007-3.803 5.235-6.891 9.211-8.81a21.53 21.53 0 0 1 18.75 0c3.976 1.919 7.204 5.007 9.211 8.81a19.01 19.01 0 0 1 0 17.933zm-8.898-15.144a11.477 11.477 0 0 0-3.17-3.031 12.13 12.13 0 0 0-13.021 0 11.49 11.49 0 0 0-3.17 3.031 10.77 10.77 0 0 0 0 12.453 11.477 11.477 0 0 0 3.17 3.031 12.13 12.13 0 0 0 13.021 0 11.48 11.48 0 0 0 3.17-3.031 10.77 10.77 0 0 0 0-12.453z"/></g></symbol></svg>