<svg xmlns="http://www.w3.org/2000/svg" xmlns:xlink="http://www.w3.org/1999/xlink" fill="#fff" fill-rule="evenodd" stroke="#000" stroke-linecap="round" stroke-linejoin="round" viewBox="0 0 74.375 85"><use xlink:href="#a" x="2.188" y="2.5"/><symbol id="a" overflow="visible"><g fill="#876929" stroke="none"><path d="m30.032 57.551 35.503 7.998L70 63.431V16.57l-4.465-2.119-35.503 7.881v35.219z"/><path d="M30.032 15.957V64.11l23.597 7.075 6.538-3.1V11.914l-6.538-3.1-23.597 7.143z"/></g><path fill="#d9a741" stroke="none" d="m60.167 68.085-6.538 3.1V8.814l6.538 3.1v56.171zM70 63.431l-4.465 2.119V14.451L70 16.57v46.861z"/><path fill="#876929" stroke="none" d="M35 0 0 16.57v46.87L35 80l10.469-4.956V4.956zM24.531 56.365l-10.407-2.323V25.957l10.407-2.294z"/><path fill="#fad791" stroke="none" d="M4.475 55.335 24.52 61.03l.01-4.694-10.407-2.294-9.648 1.292z"/><path fill="#d9a741" stroke="none" d="m14.123 54.042-9.648 1.293V24.674l9.648 1.283v28.086z"/><path fill="#624a1e" stroke="none" d="m24.531 23.664-10.407 2.294-9.648-1.283 20.056-5.705v4.694z"/><path fill="#d9a741" stroke="none" d="M45.469 75.044 35 80V0l10.469 4.956v70.088z"/></symbol></svg>