<svg xmlns="http://www.w3.org/2000/svg" xmlns:xlink="http://www.w3.org/1999/xlink" fill="#fff" fill-rule="evenodd" stroke="#000" stroke-linecap="round" stroke-linejoin="round" viewBox="0 0 74.375 85"><use xlink:href="#a" x="2.188" y="2.5"/><symbol id="a" overflow="visible"><g stroke="none"><path fill="#fad791" d="m53.629 46.239-4.147-.253-3.91.33 4.218 13.489 3.839-13.567z"/><path fill="#624a1e" d="m70 25.938-35 4.121-35-4.12L35 0l35 25.938z"/><path fill="#fad791" d="M57.068 63.644 35 58.746l-22.067 4.898L35 80l22.067-16.356z"/><path fill="#d9a741" d="m70 25.938-35-9.942V0l35 16.57v9.368zM57.067 69.553 35 80v-7.998l22.067-8.358v5.909z"/><path fill="#876929" d="M35 80 12.933 69.553v-5.909L35 72.002V80zM0 25.938l35-9.942V0L0 16.57v9.368z"/><path fill="#d9a741" d="m53.629 58.707-3.839 1.098V46.599l3.839-.36v12.468z"/><path fill="#876929" d="M29.416 62.42 35 64.004l5.584-1.584V32.527L35 32.002l-5.583.525V62.42z"/><path fill="#d9a741" d="M40.584 62.42 35 64.004V32.002l5.584.525V62.42z"/><path fill="#876929" d="m20.21 46.598-3.839-.36V33.761l3.839-.359 4.321.282v12.634l-4.321.282zM45.572 58.96l4.218.845V46.599l-4.218-.282V58.96z"/><path fill="#d9a741" d="m24.531 46.316-4.321.282V33.401l4.321.282v12.634z"/></g></symbol></svg>