<svg xmlns="http://www.w3.org/2000/svg" xmlns:xlink="http://www.w3.org/1999/xlink" fill="#fff" fill-rule="evenodd" stroke="#000" stroke-linecap="round" stroke-linejoin="round" viewBox="0 0 82 72"><style>.B{stroke:#424244}.C{stroke-linejoin:miter}.D{stroke-width:2}</style><use xlink:href="#A" x="1" y="1"/><symbol id="A" overflow="visible"><path fill="none" d="M56.353 3.199C15.598-12.399-7.044 32.884 11.573 56.28M0 54.268c5.031 1.006 7.296 2.264 11.824 2.767 1.258-1.006 3.019-10.818 3.774-12.327m8.05 21.887c40.755 15.598 63.396-29.685 44.78-53.082M80 15.526c-5.031-1.006-7.296-2.264-11.824-2.767-1.258 1.006-3.019 10.818-3.774 12.327" class="B C D"/><g fill="#5172f4"><circle cx="39.496" cy="21.815" r="5.031" class="B C D"/><circle cx="52.327" cy="44.456" r="5.031" class="B C D"/><circle cx="26.666" cy="44.456" r="5.031" class="B C D"/></g><path fill="none" d="M47.296 44.457H31.698m5.656-18.085-8.125 13.75m20.308.143-7.646-14.019" class="B C D"/></symbol></svg>