<svg xmlns="http://www.w3.org/2000/svg" fill="none" viewBox="0 0 97 25"><g fill="#fff" clip-path="url(#a)" opacity=".4"><path d="m17.573.717 10.118 24.14V.717H17.573Zm-17.2 0v24.14L10.491.717H.373Zm9.25 19.217h4.62l2.028 4.913h4.187L13.961 9.534l-4.337 10.4Zm35.025-3.641-1.11 3.339c-.04.12-.1.161-.222.161H41.29c-.121 0-.162-.06-.142-.202l4.177-11.873c.08-.202.141-.403.181-1.09 0-.08.04-.14.122-.14h2.814c.101 0 .121.02.141.12l4.681 13.014c.02.12 0 .181-.121.181h-2.27c-.1 0-.161-.04-.202-.12l-1.18-3.38h-4.842v-.01Zm4.197-2.21c-.424-1.341-1.383-4.156-1.786-5.568h-.02c-.323 1.362-1.14 3.732-1.745 5.569h3.55Zm5.143.807c0-2.935 2.19-5.286 5.76-5.286.283 0 .525.02.868.06V5.51c0-.101.04-.142.121-.142h2.21c.1 0 .1.04.1.121v12.237c0 .404.04.928.08 1.301 0 .101-.02.142-.12.182a9.66 9.66 0 0 1-3.834.787c-2.935.01-5.185-1.695-5.185-5.105Zm6.628-3.097c-.262-.1-.585-.14-.948-.14-1.806 0-3.158 1.16-3.158 3.116 0 2.21 1.322 3.118 2.936 3.118.403 0 .807-.04 1.18-.162v-5.932h-.01Zm14.125 2.957c0 3.137-2.007 5.245-4.862 5.245-3.39 0-4.883-2.613-4.883-5.185 0-2.875 1.886-5.206 4.923-5.206 3.127 0 4.822 2.371 4.822 5.145Zm-7.273.02c0 1.866.907 3.157 2.451 3.157 1.26 0 2.33-1.029 2.33-3.117 0-1.685-.726-3.158-2.451-3.158-1.352 0-2.33 1.19-2.33 3.118Zm11.448-9.403c.142 0 .182.02.182.162l.02 4.358a5.907 5.907 0 0 1 1.846-.283c2.915 0 4.782 2.068 4.782 4.782 0 3.753-2.916 5.609-5.922 5.609a10.13 10.13 0 0 1-3.036-.444c-.081-.02-.141-.121-.141-.182V5.51c0-.101.06-.142.14-.142h2.13Zm1.624 6.326c-.706 0-1.09.1-1.422.222v5.921c.282.08.585.1.928.1 1.665 0 3.198-1.048 3.198-3.298.01-1.937-1.1-2.945-2.704-2.945Zm9.121 3.671c.06 1.423.989 2.553 3.057 2.553.907 0 1.745-.162 2.511-.485.061-.04.122-.02.122.081v1.685c0 .12-.04.181-.121.222-.767.363-1.665.585-3.037.585-3.692 0-5.004-2.593-5.004-5.084 0-2.815 1.705-5.307 4.762-5.307 2.996 0 4.156 2.35 4.156 4.277 0 .565-.02 1.03-.08 1.261-.02.081-.061.122-.162.142-.282.06-1.09.08-2.088.08H89.66v-.01Zm3.016-1.745c.767 0 1.03 0 1.11-.02v-.161c0-.586-.404-1.887-1.947-1.887-1.402 0-2.028 1.07-2.19 2.068h3.027Z"/></g><defs><clipPath id="a"><path fill="#fff" d="M.373.717h95.734v24.14H.373z"/></clipPath></defs></svg>