<svg xmlns="http://www.w3.org/2000/svg" fill="none" viewBox="0 0 23 34"><g clip-path="url(#a)"><path fill="#0ACF83" d="M6.224 33.667a5.558 5.558 0 0 0 5.556-5.556v-5.555H6.224A5.558 5.558 0 0 0 .668 28.11a5.558 5.558 0 0 0 5.556 5.556Z"/><path fill="#A259FF" d="M.668 17a5.558 5.558 0 0 1 5.556-5.555h5.556v11.11H6.224A5.558 5.558 0 0 1 .668 17Z"/><path fill="#F24E1E" d="M.67 5.89A5.558 5.558 0 0 1 6.224.332h5.556v11.112H6.224A5.558 5.558 0 0 1 .669 5.889Z"/><path fill="#FF7262" d="M11.78.333h5.555a5.558 5.558 0 0 1 5.556 5.556 5.558 5.558 0 0 1-5.556 5.556H11.78V.333Z"/><path fill="#1ABCFE" d="M22.89 17a5.558 5.558 0 0 1-5.555 5.556A5.558 5.558 0 0 1 11.78 17a5.558 5.558 0 0 1 5.555-5.555A5.558 5.558 0 0 1 22.891 17Z"/></g><defs><clipPath id="a"><path fill="#fff" d="M.667.333h22.227v33.333H.667z"/></clipPath></defs></svg>