<svg xmlns="http://www.w3.org/2000/svg" viewBox="0 0 57.02 67.55"><defs><style>.cls-1{fill:none;}.cls-2{fill:#fff;}</style></defs><title>ScissorsAsset 4</title><g id="Layer_2" data-name="Layer 2"><g id="Layer_2-2" data-name="Layer 2"><circle class="cls-1" cx="26.24" cy="7.72" r="4.44" transform="translate(2.23 20.82) rotate(-45)"/><circle class="cls-1" cx="7.72" cy="44.95" r="4.44" transform="translate(-29.52 18.63) rotate(-45)"/><circle class="cls-1" cx="49.3" cy="59.83" r="4.44" transform="translate(-12.43 12.93) rotate(-13.28)"/><path class="cls-2" d="M7.72,37.23A7.73,7.73,0,1,0,15.45,45,7.72,7.72,0,0,0,7.72,37.23Zm0,12.16A4.44,4.44,0,1,1,12.16,45,4.44,4.44,0,0,1,7.72,49.39Z"/><path class="cls-2" d="M49.3,67.55a7.73,7.73,0,1,0-7.73-7.72A7.73,7.73,0,0,0,49.3,67.55Zm0-12.16a4.44,4.44,0,1,1-4.44,4.44A4.44,4.44,0,0,1,49.3,55.39Z"/><path class="cls-2" d="M26.24,15.45a7.73,7.73,0,1,0-7.72-7.73A7.74,7.74,0,0,0,26.24,15.45Zm0-12.17A4.44,4.44,0,1,1,21.8,7.72,4.44,4.44,0,0,1,26.24,3.28Z"/><path class="cls-2" d="M46.31,50.58c-3.56-3.1-7.75-6.36-10.87-7.59-3.62-1.42-12-2-18.93-2.17A9.52,9.52,0,0,1,17.45,45a9.62,9.62,0,0,1-2,5.85c7.41.21,14.36.73,16.32,1.5,1.7.67,4.82,3.1,7.94,5.83A9.74,9.74,0,0,1,46.31,50.58Z"/><path class="cls-2" d="M15.81,39.56,27.11,17.4a8.3,8.3,0,0,1-.87.05A9.72,9.72,0,0,1,18.11,13L6.77,35.28c.31,0,.63-.05,1-.05A9.73,9.73,0,0,1,15.81,39.56Z"/></g></g></svg>