<svg xmlns="http://www.w3.org/2000/svg" viewBox="0 0 54.96 31.37"><defs><style>.cls-1{fill:#fff;}</style></defs><title>Swing ArmAsset 7</title><g id="Layer_2" data-name="Layer 2"><g id="Layer_2-2" data-name="Layer 2"><path class="cls-1" d="M52.36,15.65s-21.7-14-23-14.77-1.8-.95-4-.86S9.86,2.05,8.11,2.5,3.88,5.79,3.47,6.91.23,24.69.05,26.22.1,30,2,30.9s3.85.54,5.21-1.9c0,0,7.42-13.47,8.45-14.5s2.61-1.17,4.53-1.44,2.41-.34,3.23-.41a4.41,4.41,0,0,1,2.89.55c1.3.68,6.45,2.88,10,4.87s9.52,5.83,10.9,6.58a5.2,5.2,0,1,0,5.2-9ZM3.69,30.59a2.86,2.86,0,1,1,2.86-2.86A2.85,2.85,0,0,1,3.69,30.59Zm33.58-19a1.15,1.15,0,0,1-.88.77,6.81,6.81,0,0,1-.82.09l-2.88.2c-1.93.12-3.85.27-5.79.34,1.91-.35,3.82-.64,5.75-1,1-.16,1.92-.31,2.88-.44a3.9,3.9,0,0,0,.62-.11c.18-.05.23-.15.19-.11s0-.09-.15-.19l-.53-.42C34.15,9.58,32.57,8.44,31,7.3a12.49,12.49,0,0,0-2.29-1.45,2.92,2.92,0,0,0-1.16-.17l-.7,0-.67.08c-3.8.5-7.66,1.11-11.48,1.56a3,3,0,0,0-1.17.35,6.68,6.68,0,0,0-1,.76c-.73.6-1.45,1.25-2.16,1.89l-2.2,1.93a3,3,0,0,0-.82.93A2.56,2.56,0,0,0,7,14.3q.62,2.47,1.19,5C8.61,21,9,22.64,9.36,24.34c-.58-1.64-1.12-3.28-1.67-4.92s-1.08-3.29-1.6-4.94l0,0v0a3.43,3.43,0,0,1,.34-1.67,4.29,4.29,0,0,1,1-1.29l2.08-2c.7-.67,1.4-1.34,2.14-2a8,8,0,0,1,1.28-1,4.46,4.46,0,0,1,1.58-.52C18.38,5.41,22.15,4.79,26,4.34c.25,0,.47-.06.77-.08h.75a4.3,4.3,0,0,1,1.68.3,13,13,0,0,1,2.57,1.71c1.54,1.19,3,2.42,4.51,3.69a6.45,6.45,0,0,1,.58.52A1.23,1.23,0,0,1,37.27,11.57ZM52.44,21.7a3.1,3.1,0,1,1-1.13-4.23A3.09,3.09,0,0,1,52.44,21.7Z"/><path d="M7,14.31H7l0-.08Z"/></g></g></svg>