<svg xmlns="http://www.w3.org/2000/svg" viewBox="0 0 350.198 85.631"><g fill-rule="evenodd"><path d="M41.204 35.496c1.687-4.862 3.322-8.822 3.288-12.698-.098-11.085-8.078-18.019-22.575-16.394C5.26 8.271-2.323 21.689.862 39.192c.73 4.018 3.78 6.262 5.828 7.824 5.14 3.924 11.455 3.022 14.102-.752 3.96-6.483-2.985-6.496-5.465-9.483-6.275-7.556-.158-15.88 7.352-18.174 2.891-.883 8.012 1.543 8.399 3.548.527 2.733-.157 5.055-1.125 7.394l-15.43 37.288c-2.981 7.206 9.877 10.805 13.663 1.125l9.804-25.073 13.662 36.485c2.022 5.4 10.136 5.624 12.697 5.625 89.364.054 42.305.429 266.64.482 8.342.002 8.724-12.05 2.732-12.054l-268.41-.162c-2.134 0-2.522-1.345-3.955-4.997l-10.024-25.54L77.69 14.6c4.655-4.968-5.221-11.894-10.126-6.75z"/><path d="M85.725 30.674c-4.341-3.973-6.889-2.674-9.965-.321-2.81 2.148-7.715 17.733-11.251 26.359-2.89 7.05 7.416 9.337 10.126 3.053l7.554-17.519c3.174-6.825 11.277-5.72 8.68.804l-5.144 13.18c-.803 2.058-.18 6.526 5.143 6.59l13.34.16c7.868.095 6.748-9.804 1.125-9.804h-6.268l5.465-15.108c2.452-6.78-2.884-9.266-6.75-10.126-5.093-1.132-9.334 1.227-12.055 2.733z"/><path d="M131.69 37.826c-4.514.115-12.845 4.792-8.197 13.581 1.647 3.114 5.822 1.934 7.795.884 6.875-3.66 6.387-14.618.402-14.465zm0-10.849c-8.72-.87-27.327 13.428-17.911 30.11 1.07 1.894 2.24 3.573 4.732 4.607 6.092 2.528 12.439 2.421 17.198.16 12.195-5.792 13.864-19.203 7.773-29.203-2.235-3.67-7.191-5.214-11.791-5.673zM170.61 43.42c.063 2.986 7.24 3.82 8.865.852 3.758-6.86.63-11.797-3.765-14.996-2.211-1.609-4.597-1.925-6.577-1.938-13.444-.086-18.69 9.152-19.662 21.48-.394 4.98 1.679 8.11 3.25 10.205 2.283 3.04 4.894 3.774 8.91 3.774h15.57c7.348 0 6.669-9.73 1.364-9.774l-13.752-.113c-6.174-.051-5.814-7.163-3.523-11.024 2.453-4.138 5.567-4.55 7.07-4.444 2.111.15 2.925 1.12 2.249 5.978z"/><path d="M183.77 56.953c-.934 2.27.602 5.12 3.067 6.218 2.62 1.168 6.248.42 7.621-2.923l6.108-14.867 11.09 16.314c1.95 2.867 5.37 2.102 6.832.973 2.264-1.749 2.985-4.856 1.928-6.518l-7.876-12.376 10.286-7.956c1.118-.865 1.127-3.425.172-5.472-1.04-2.227-5.549-2.344-6.28-1.841l-12.376 8.518 12.21-31.342c2.63-6.744-8.709-7.206-10.849-2.009zM245.08 37.98c-4.514.115-12.845 4.792-8.197 13.581 1.647 3.114 5.822 1.934 7.795.884 6.875-3.66 6.387-14.618.402-14.465zm0-10.849c-8.72-.87-27.327 13.428-17.911 30.11 1.07 1.894 2.24 3.573 4.732 4.607 6.092 2.528 12.439 2.421 17.198.16 12.195-5.792 13.864-19.203 7.773-29.203-2.235-3.67-7.191-5.214-11.791-5.673zM282.13 33.085c1.978-4.45-8.12-8.656-10.929-1.768l-8.197 20.091c-2.103 5.154.774 10.875 7.715 11.572 8.855.89 12.19-.25 13.34-2.572.883 2.39 5.29 3.09 9.934 3.124 4.863.035 11.184-1.45 11.121-4.73.677-3.974-1.353-5.773-5.143-6.108l-5.143-.161 7.714-19.61c-.156-1.147-.248-2.468-1.485-3.325-3.658-2.536-7.827-1.276-10.087 2.844l-6.108 16.073c-1.558 4.1-6.696 5.29-8.84 4.34-.852-.379-1.871-.422-.964-3.858zM332.44 21.834c1.101-2.616-2.078-4.556-3.457-5.135-2.651-1.115-6.665.544-7.794 3.367l-3.214 8.036c-5.26-.353-8.723 1.036-10.126 4.983-.674 4.14 2.04 4.98 5.786 5.465l-6.75 17.84c-.638 4.341 1.828 6.751 5.143 6.751h13.662c5.792 0 7.49-10.01 1.928-10.126l-7.715-.16 5.786-14.306c4.781-.625 10.336.707 11.251-5.304.91-4.086-3.36-4.555-7.071-5.304z"/><circle cx="343.54" cy="58.078" r="6.5" opacity=".99"/></g></svg>