<svg xmlns="http://www.w3.org/2000/svg" xml:space="preserve" viewBox="0 0 133.5 36.9"><path fill="#353128" d="M128 23.5c-.1-.7-.7-1.1-1-1.4-.4-.2-.9-.3-1.5-.3-1.3 0-2.5.4-2.5 1.1 0 .5.3.8 1.3.9l2.6.2c1.1.1 1.7.4 2.3.7.8.4 1.2 1.3 1.2 2.2 0 1.1-.5 1.9-1.4 2.4-.8.4-1.8.6-3.3.6-1.8 0-3.1-.4-3.9-1.1-.6-.6-.8-1.2-.9-2.4h1.7c.1.6.2.9.6 1.2.5.4 1.7.6 2.6.6 1.4 0 2.5-.4 2.5-1.2 0-.6-.7-.9-1.7-1l-2.5-.3c-1.9-.2-3-1.1-3-2.6 0-1.9 1.7-3.1 4.4-3.1 1.4 0 2.6.3 3.4.9 1 .7 1 1.8 1 2.5H128z"/><path fill="#353128" d="m132.5 18-8.8-5.1c-.6-.3-1.3-.4-1.9 0L113 18c-.6.3-1 1-1 1.7v10.2c0 .7.4 1.3 1 1.7l8.8 5.1c.6.3 1.3.4 1.9 0l8.8-5.1c.6-.3 1-1 1-1.7V19.7c0-.7-.4-1.3-1-1.7zm-.7 12.1-9.1 5.2-4.2-2.5c.7-.4 1.1-1.2 1.2-2V20.1h-1.8v10.1c0 .8-.6 1.4-1.4 1.4-.2 0-.4 0-.5-.1h-.1l-2.3-1.3V19.7l9.1-5.2 9.1 5.3v10.3z"/><path fill="#8CC644" d="M28.1 29.9v-10c0-.7.4-1.3 1-1.6l8.7-5c.6-.3 1.3-.3 1.9 0l8.6 5c.6.3.9 1 .9 1.7v10c0 .7-.4 1.3-1 1.6l-8.7 5c-.6.3-1.3.3-1.9 0l-8.6-5c-.5-.4-.9-1-.9-1.7zM93 26v-1.9c0-.1.1-.3.2-.3l1.7-1c.1-.1.3-.1.4 0l1.7 1c.1.1.2.2.2.3V26c0 .1-.1.3-.2.3l-1.7 1c-.1.1-.3.1-.4 0l-1.7-1c-.1-.1-.2-.2-.2-.3z"/><path fill="#353128" d="m76.6 3.1-5.5-3c-.3-.2-.7.1-.7.4v14.1c0 .2-.3.4-.5.4l-.3-.1-1.7-1c-.6-.3-1.3-.3-1.9 0l-8.5 4.9c-.6.3-.9.9-.9 1.6v9.8c0 .7.4 1.3.9 1.6l8.4 4.9c.6.3 1.3.3 1.9 0l8.5-4.9c.6-.3.9-.9.9-1.6v-26c.1-.5-.2-.9-.6-1.1zm-6.2 24.1-3.5 2-3.4-2v-4l3.5-2 3.4 2v4zM0 33.9V19.7c0-.3.2-.6.5-.8l9.7-5.4c.3-.1.6-.1.9 0l9.5 5.4c.3.2.5.5.5.8v14.2c0 .3-.3.5-.6.4L14.6 31c-.3-.1-.4-.4-.4-.7v-6.5c0-.3-.2-.6-.4-.8L11 21.4c-.2-.1-.5-.1-.8 0L7.5 23c-.3.2-.4.5-.4.8v6.4c0 .3-.2.6-.4.7l-6 3.2c-.4.3-.7.1-.7-.2zM85.1 18.9l9.4-5.3c.3-.2.7-.2 1.1 0l9.5 5.3c.3.2.5.5.5.9v2.6c0 .4-.2.8-.6.9l-6 3.3c-.3.1-.5-.1-.5-.3v-2.7c0-.3-.1-.5-.4-.7l-2.7-1.6c-.3-.2-.6-.2-.8 0l-2.7 1.6c-.2.1-.4.4-.4.7v3c0 .3.2.6.4.7l9.4 5.5c.2.1.2.5 0 .6l-5.9 3.3c-.3.1-.6.1-.8 0l-9.5-5.3c-.3-.2-.6-.6-.6-.9V19.8c0-.4.2-.8.6-.9z"/></svg>