<svg xmlns="http://www.w3.org/2000/svg" viewBox="0 0 241 92"><g fill="none" fill-rule="evenodd"><path fill="#41B883" d="M85.72.19h21.058l-53.17 91.624L.087.19h21.535l31.984 55.16z"/><path fill="#35495E" d="M65.821.171H85.85L53.58 55.446 21.572.171h19.714l12.295 21.28z"/><path fill="#010101" d="M128 25.896c0-.542.3-.993.902-1.354a3.611 3.611 0 0 1 1.886-.542c.911 0 1.476.343 1.695 1.03l9.622 32.174 9.567-32.175c.255-.686.802-1.029 1.64-1.029.693 0 1.34.199 1.941.596.601.397.902.848.902 1.354 0 .036-.009.09-.027.163a.883.883 0 0 0-.028.216L145.002 62.35c-.4 1.047-1.366 1.57-2.897 1.57-1.53 0-2.46-.523-2.788-1.57l-11.208-36.02c-.073-.218-.109-.362-.109-.434Zm28.586 27.733V39.546c0-.434.227-.813.683-1.138.456-.325.993-.487 1.613-.487.583 0 1.102.171 1.558.514.456.343.683.714.683 1.11V53.63c0 1.625.62 3.088 1.86 4.388 1.238 1.3 2.714 1.95 4.427 1.95 1.677 0 3.135-.641 4.374-1.923 1.24-1.282 1.859-2.754 1.859-4.415V39.492c0-.398.228-.759.683-1.084.456-.325.993-.487 1.613-.487.656 0 1.194.153 1.613.46.419.307.628.677.628 1.11V53.63c0 2.78-1.066 5.21-3.198 7.286-2.132 2.076-4.656 3.114-7.572 3.114-2.952 0-5.494-1.038-7.626-3.114-2.132-2.077-3.198-4.505-3.198-7.286Zm25.305-.108v-5.688c0-2.78 1.066-5.182 3.198-7.204 2.133-2.022 4.693-3.033 7.682-3.033 2.842 0 5.303.948 7.38 2.844 2.078 1.895 3.116 4.27 3.116 7.123 0 1.047-.127 1.886-.382 2.518-.256.632-.647 1.084-1.176 1.354-.528.271-1.02.443-1.476.515-.456.072-1.066.108-1.831.108h-11.973v1.625c0 1.986.72 3.575 2.16 4.767 1.439 1.192 3.307 1.787 5.603 1.787 1.203 0 2.25-.18 3.144-.541.892-.361 1.612-.713 2.159-1.056.547-.343.984-.515 1.312-.515.51 0 .948.226 1.312.677.365.451.547.912.547 1.381 0 .83-.83 1.68-2.488 2.546-1.658.867-3.708 1.3-6.15 1.3-3.572 0-6.488-.966-8.747-2.898-2.26-1.932-3.39-4.468-3.39-7.61Zm4.538-4.496h10.114c.947 0 1.585-.117 1.913-.352.328-.235.492-.695.492-1.381 0-1.625-.601-3.052-1.804-4.28-1.203-1.227-2.679-1.841-4.428-1.841-1.713 0-3.19.569-4.428 1.706-1.24 1.138-1.86 2.537-1.86 4.198v1.95Zm19.128 12.08a2.8 2.8 0 0 1 .82-2.032c.546-.56 1.22-.84 2.022-.84.766 0 1.422.28 1.969.84a2.8 2.8 0 0 1 .82 2.031c0 .759-.274 1.418-.82 1.977-.547.56-1.203.84-1.969.84-.801 0-1.476-.28-2.022-.84-.547-.56-.82-1.218-.82-1.977Zm4.038 12.945c0-.578.183-1.056.547-1.435.364-.38.802-.57 1.312-.57 1.422 0 2.35-.523 2.788-1.57.438-1.047.656-2.618.656-4.712V39.492c0-.47.21-.849.629-1.138.42-.289.957-.433 1.613-.433s1.203.144 1.64.433c.437.29.656.668.656 1.138v26.27c0 3.142-.62 5.634-1.859 7.475-1.239 1.842-3.116 2.763-5.63 2.763-1.568 0-2.352-.65-2.352-1.95Zm4.702-45.77c0-.687.273-1.283.82-1.788.547-.506 1.221-.759 2.023-.759.765 0 1.421.253 1.968.759.547.505.82 1.101.82 1.787 0 .686-.273 1.291-.82 1.815a2.744 2.744 0 0 1-1.968.785 2.84 2.84 0 0 1-1.996-.785c-.565-.524-.847-1.129-.847-1.815Zm8.522 31.633c0-.47.155-.93.464-1.382.31-.451.684-.677 1.121-.677.292 0 .71.217 1.258.65.546.434 1.33.858 2.35 1.273 1.02.415 2.224.623 3.609.623 1.822 0 3.143-.325 3.963-.975.82-.65 1.23-1.462 1.23-2.438 0-1.191-.455-2.14-1.367-2.843-.91-.704-2.022-1.237-3.334-1.598a81.576 81.576 0 0 1-3.937-1.192 7.632 7.632 0 0 1-3.335-2.166c-.91-1.012-1.366-2.348-1.366-4.009 0-2.058.738-3.837 2.214-5.335 1.476-1.499 3.727-2.248 6.752-2.248 1.931 0 3.699.298 5.303.894 1.603.595 2.405 1.272 2.405 2.03 0 .434-.173.922-.52 1.463-.345.542-.774.813-1.284.813-.146 0-.847-.262-2.105-.786-1.257-.523-2.506-.785-3.745-.785-1.676 0-2.925.388-3.745 1.165-.82.776-1.23 1.652-1.23 2.627 0 1.01.456 1.805 1.367 2.383.911.578 2.032 1.03 3.362 1.354 1.33.325 2.652.722 3.964 1.192 1.312.47 2.424 1.273 3.335 2.41.91 1.138 1.367 2.61 1.367 4.415 0 2.239-.802 4.008-2.406 5.308-1.604 1.3-3.845 1.95-6.724 1.95-2.479 0-4.593-.442-6.342-1.327-1.75-.885-2.624-1.814-2.624-2.79Z"/></g></svg>