<svg xmlns="http://www.w3.org/2000/svg" xml:space="preserve" id="Layer_1" x="0" y="0" style="enable-background:new 0 0 17 17" version="1.1" viewBox="0 0 17 17"><style>.st0{fill:#06c}</style><path d="M10 1.5c-1.4-.7-2.7 0-3.4 1.3-.2.4-.2 1.1-.3 1.7-.6 2.8-1.1 5.7-2 8.5-.2.6-.4 1.3-.9 1.7-.4.3-1 .2-1.5 0-.6-.3-1.1.5-.5.9 1.1.6 2.5.4 3.2-.7.6-1 .9-2.3 1.1-3.4.6-2.6 1.2-5.2 1.7-7.8v-.3c0 .1-.1.2 0 0 0-.1.1-.2.2-.3.4-.7 1.1-1.1 1.9-.7.6.2 1.1-.6.5-.9z" class="st0"/><path d="M4.2 6.2h4.6c.6 0 .6-1 0-1H4.2c-.7 0-.7 1 0 1zM10.5 5.1c-.4 1.9-.7 3.8-1.1 5.6-.1.3-.1.5-.2.8-.1.6.8.9 1 .3.4-1.9.8-3.7 1.2-5.6.1-.3.1-.5.2-.8 0-.6-.9-.9-1.1-.3z" class="st0"/><path d="M10.9 8.5c-.1.2 0 0 0 0 .1-.3.2-.4.3-.6.2-.4.5-.9.9-1.3s.8-.7 1.3-.9c.3-.1.5-.1.8 0 .2 0 .4.1.5.3 0-.1.1.1.1.2v.1c0 .1 0-.1 0 0v.1c0 .1 0-.2 0 0 0 .1 0 .2-.1.3-.2.9-.4 1.8-.5 2.7-.1.7-.3 1.5-.4 2.2-.1.6.8.9 1 .3.3-1.7.7-3.3 1-5 .1-.6.1-1.1-.3-1.6s-1.2-.6-1.8-.6c-.7.1-1.3.4-1.9.8-.8.7-1.4 1.7-1.8 2.6-.2.4 0 .7.3.7.3.1.5-.1.6-.3z" class="st0"/></svg>