<svg xmlns="http://www.w3.org/2000/svg" xmlns:xlink="http://www.w3.org/1999/xlink" viewBox="0 0 56 81" fill="#fff" fill-rule="evenodd" stroke="#000" stroke-linecap="round" stroke-linejoin="round"><use xlink:href="#A" x=".5" y=".5"/><symbol id="A" overflow="visible"><g stroke="none"><path d="M55 75.2c0 2.651-2.144 4.8-4.79 4.8H4.79C2.144 80 0 77.851 0 75.2V4.8C0 2.149 2.144 0 4.79 0h45.42C52.856 0 55 2.149 55 4.8v70.4z" fill="#3e3e3e"/><path d="M3.551 8h47.903v56.355H3.551z" fill="#59b4d9"/><path d="M32.114 72.176a4.62 4.62 0 0 1-4.615 4.622 4.62 4.62 0 1 1 0-9.245 4.62 4.62 0 0 1 4.615 4.622"/><path d="M30.526 72.176a3.03 3.03 0 0 1-3.026 3.032 3.03 3.03 0 0 1-3.023-3.032c0-1.674 1.354-3.03 3.023-3.03a3.03 3.03 0 0 1 3.026 3.03" fill="#b8d432"/><path d="M3.55 64.355V8h36.353l3.243-8H4.79C2.144 0 0 2.149 0 4.8v70.4C0 77.853 2.144 80 4.79 80h5.9l6.345-15.645H3.55z" opacity=".15"/><use xlink:href="#C" fill="#1e1e1e"/><use xlink:href="#C"/><path d="M27.545 34.097c-.072 0-.145-.022-.214-.061l-14.058-8.131c-.129-.077-.211-.219-.211-.37s.081-.293.211-.368l13.973-8.078c.131-.074.29-.074.42 0l14.062 8.134a.42.42 0 0 1 .209.368.42.42 0 0 1-.209.368l-13.968 8.077a.43.43 0 0 1-.216.061"/><path d="M25.527 53.861a.4.4 0 0 1-.214-.058l-14.016-8.106c-.136-.075-.217-.213-.217-.37V29.062a.42.42 0 0 1 .217-.37c.129-.078.289-.078.428 0l14.015 8.102c.125.08.208.219.208.373v16.266c0 .155-.083.293-.208.37-.07.038-.144.058-.212.058" opacity=".7"/><path d="M29.493 53.861c-.077 0-.149-.019-.22-.058-.125-.077-.206-.214-.206-.37V37.271a.44.44 0 0 1 .206-.37l14.015-8.102c.134-.077.291-.077.422 0a.42.42 0 0 1 .215.368v16.162a.42.42 0 0 1-.215.37l-14.01 8.106c-.057.038-.132.058-.206.058" opacity=".4"/></g></symbol><defs ><path id="C" d="M35.662 4.507a1.18 1.18 0 0 1-1.178 1.181H20.522a1.18 1.18 0 1 1 0-2.363h13.962a1.18 1.18 0 0 1 1.178 1.182"/></defs></svg>