<svg xmlns="http://www.w3.org/2000/svg" xmlns:xlink="http://www.w3.org/1999/xlink" viewBox="0 0 96 81" fill="#fff" fill-rule="evenodd" stroke="#000" stroke-linecap="round" stroke-linejoin="round"><use xlink:href="#A" x=".5" y=".5"/><symbol id="A" overflow="visible"><g stroke="none"><path d="M0 76.244C0 78.31 1.71 80 3.8 80h87.4c2.09 0 3.8-1.69 3.8-3.756V17.465H0v58.779z" fill="#59b4d9"/><path d="M83.6 6.949c0-2.254-1.71-3.944-3.99-3.944s-3.99 1.69-3.99 3.944v39.624h-7.79c-.76-4.507-3.04-8.826-6.46-12.394-4.56-4.507-10.45-6.948-16.91-6.948a24.02 24.02 0 0 0-16.91 6.948c-1.52 1.502-1.52 3.944 0 5.634 1.52 1.502 3.99 1.502 5.7 0 3.04-3.005 7.03-4.507 11.21-4.507s8.17 1.69 11.21 4.507c6.27 6.197 6.27 16.15 0 22.16-3.04 3.005-7.03 4.507-11.21 4.507s-8.17-1.69-11.21-4.507c-1.52-1.502-3.99-1.502-5.7 0-1.52 1.502-1.52 3.944 0 5.634 4.56 4.507 10.45 6.948 16.91 6.948a24.02 24.02 0 0 0 16.91-6.948c3.8-3.756 5.89-8.263 6.65-13.145h11.59c2.28 0 3.99-1.69 3.99-3.944V6.949zM44.46 41.127c-3.8 0-7.03 2.253-8.55 5.446H19.38V6.949c0-2.254-1.71-3.944-3.99-3.944-2.09 0-3.8 1.878-3.8 3.944v43.568c0 2.254 1.71 3.944 3.99 3.944H36.1c1.52 3.193 4.75 5.446 8.55 5.446 5.32 0 9.5-4.131 9.5-9.39-.19-5.258-4.56-9.39-9.69-9.39z"/><path d="M91.2 0H3.8C1.71 0 0 1.69 0 3.756v14.272h95V3.756C95 1.69 93.29 0 91.2 0" fill="#a0a1a2"/><path d="M3.8 0C1.71 0 0 1.69 0 3.756v13.709 6.197 52.582C0 78.31 1.71 80 3.8 80h4.18L82.84 0H3.8z" opacity=".2"/></g></symbol></svg>