<svg xmlns="http://www.w3.org/2000/svg" xmlns:xlink="http://www.w3.org/1999/xlink" viewBox="0 0 81 81" fill="#fff" fill-rule="evenodd" stroke="#000" stroke-linecap="round" stroke-linejoin="round"><use xlink:href="#A" x=".5" y=".5"/><symbol id="A" overflow="visible"><g stroke="none"><path d="M39.92 80c-1.916 0-3.832-.8-5.269-2.24L2.235 45.28C.798 43.84 0 41.92 0 40s.798-3.84 2.235-5.28L34.651 2.24C36.088.8 38.004 0 39.92 0s3.832.8 5.269 2.24l32.575 32.64C79.202 36.32 80 38.08 80 40.16c0 1.92-.798 3.84-2.236 5.28L45.19 77.76C43.753 79.2 41.836 80 39.92 80" fill="#7fba00"/><path d="M47.486 29.734c-2.232 1.71-4.861 2.542-7.473 2.542-3.705 0-7.367-1.667-9.79-4.84a12.35 12.35 0 0 1 2.295-17.298c2.231-1.72 4.864-2.541 7.471-2.541 3.704 0 7.369 1.667 9.79 4.842 4.137 5.413 3.106 13.154-2.293 17.294"/><path d="M45.19 2.24C43.753.8 41.836 0 39.92 0s-3.832.8-5.269 2.24L2.235 34.72C.798 36.16 0 38.08 0 40s.798 3.84 2.235 5.28l18.363 18.4L55.25 12.32 45.19 2.24z" opacity=".15"/><path d="M39.92 72.96L50.459 62.4h-7.505V30.638h-6.228V62.4h-7.345z"/><path d="M62.803 53.568V38.634l-5.194 5.205-13.483-13.51-4.516 4.525 13.483 13.51-5.194 5.205z"/><path d="M17.062 53.624h14.903l-5.193-5.203 13.862-13.889-4.517-4.527-13.862 13.89-5.193-5.203z"/><path d="M46.491 28.433a10.62 10.62 0 0 1-6.48 2.205c-3.213 0-6.39-1.445-8.489-4.197a10.71 10.71 0 0 1 1.989-15c1.935-1.491 4.217-2.203 6.478-2.203 3.213 0 6.391 1.445 8.489 4.198a10.71 10.71 0 0 1-1.988 14.997" fill="#59b4d9"/><path d="M44.528 21.816a2.3 2.3 0 0 0 3.222.43c.053-.04.093-.09.141-.133l2.146 1.48a9 9 0 0 0 .286-.917L48.49 21.24c.273-.718.187-1.558-.311-2.214-.714-.925-1.977-1.16-2.964-.589l-3.543-3.354c3.915-2.11 6.697-1.802 6.697-1.802a10.7 10.7 0 0 0-1.541-1.582c-1.651-.256-4.215-.227-7.147 1.334l-.002-.002h0l-2.983-3.301c-.484.155-.958.347-1.415.576.747 1.226 1.753 2.461 2.885 3.667h0c-.937.67-1.988 1.555-2.959 2.582l-.359.398c-.58-.122-1.19-.086-1.76.12-.968-2.091-.889-3.771-.736-4.637a11.19 11.19 0 0 0-1.15 1.398c-.252 1.034-.324 2.525.422 4.322a3.23 3.23 0 0 0-.002 3.918 3.32 3.32 0 0 0 .24.277 16.27 16.27 0 0 0-.624 3.75c.101.138.101.25.201.384.512.658 1.156 1.213 1.777 1.715-.077-1.178.006-2.914.733-4.869.501.038 1.011-.042 1.488-.242l.866.733c1.048.832 2.093 1.478 3.112 1.987a2.13 2.13 0 0 0 .413 1.506c.72.931 2.054 1.106 2.983.394.193-.149.346-.328.472-.52 1.662.371 3.114.437 4.19.437.165 0 .93-1.043 1.369-1.69-.655.138-2.6.405-5.255-.36a2.13 2.13 0 0 0-.383-.848c-.674-.886-1.908-1.078-2.828-.485-.923-.503-1.89-1.131-2.887-1.922l-.581-.478a3.25 3.25 0 0 0 .136-3.232l.372-.366c.987-.925 1.916-1.664 2.785-2.258l-.101-.099.102.098 4.085 3.453c-.353.752-.297 1.669.241 2.374z"/></g></symbol></svg>