<svg xmlns="http://www.w3.org/2000/svg" xmlns:xlink="http://www.w3.org/1999/xlink" viewBox="0 0 81 81" fill="#fff" fill-rule="evenodd" stroke="#000" stroke-linecap="round" stroke-linejoin="round"><use xlink:href="#A" x=".5" y=".5"/><symbol id="A" overflow="visible"><g stroke="none"><path d="M0 0h80v80H0z" fill="#009480"/><path d="M15.851 40.671v-6.773l.483-2.939c.632-4.576 3.722-9.227 9.339-10.195 9.563-1.675 19.126-1.712 28.69.037 5.21.968 8.075 4.354 9.117 9.376.968 4.651.893 9.339.112 14.027-.781 4.503-3.944 9.078-9.749 9.786l-11.386 1.19c-.522.075-1.117.186-1.525.483-2.122 1.376-3.312 2.939-6.363 4.168-2.493 1.078-7.776 2.232-8.186 2.121-.185-.298 3.722-4.614 4.056-7.219l-3.424-.522c-5.954-.893-9.451-4.168-10.568-9.973-.224-1.187-.373-2.378-.597-3.568z"/><path d="M46.475 48.41l2.419-.334c4.168-.595 6.624-2.717 7.405-6.437l.41-2.307v-4.354l-.334-1.898c-.447-2.939-2.605-5.954-6.549-6.586-6.698-1.078-13.395-1.117-20.093.037-3.646.632-5.656 2.827-6.4 6.066-.707 3.014-.632 6.027-.075 9.078.522 2.902 2.791 5.73 6.81 6.325 5.952.819 16.408.41 16.408.41z" fill="#414141"/><path d="M30.4 37.098c0-1.079.819-1.898 1.898-1.898 1.042 0 1.897.856 1.897 1.898 0 1.005-.856 1.861-1.897 1.861-1.042.037-1.898-.819-1.898-1.861zM47.888 35.2c1.078 0 1.897.819 1.897 1.898 0 1.042-.856 1.898-1.897 1.898-1.005 0-1.861-.856-1.898-1.861 0-1.078.856-1.934 1.898-1.934zm-7.812 3.795c-1.042 0-1.898-.856-1.898-1.898.037-1.042.856-1.861 1.898-1.861s1.898.856 1.898 1.898c0 1.005-.819 1.861-1.898 1.861z"/></g></symbol></svg>