<svg xmlns="http://www.w3.org/2000/svg" xmlns:xlink="http://www.w3.org/1999/xlink" viewBox="0 0 81 81" fill="#fff" fill-rule="evenodd" stroke="#000" stroke-linecap="round" stroke-linejoin="round"><use xlink:href="#A" x=".5" y=".5"/><symbol id="A" overflow="visible"><g stroke="none"><path d="M0 0h80v80H0z" fill="#009480"/><path d="M59.98 33.675c0-10.01-8.112-18.158-18.158-18.158a18.14 18.14 0 0 0-18.158 18.158c0 7.442 4.466 13.805 10.827 16.632-.595 1.005-2.046 2.381-3.498 3.275-2.79 1.786-6.102 2.717-9.153 4.056-.522.224-1.302.558-1.339.93-.224 1.712-.224 3.461-.334 5.173.373.112.558.224.744.224 8.632 1.6 16.447-.446 23.517-4.949 7.368-4.691 15.554-12.318 15.554-25.341z"/><path d="M42.121 21.544c-6.624-.037-12.056 5.247-12.13 11.795-.075 6.698 5.246 12.168 11.87 12.205 6.661.037 12.13-5.321 12.13-11.944-.002-6.585-5.322-11.981-11.87-12.056z" fill="#414141"/><path d="M39.776 40c-.893 0-1.525-.186-1.934-.558s-.632-1.005-.632-1.861v-2.047c0-.893-.373-1.376-1.117-1.376v-1.117c.744 0 1.117-.483 1.117-1.451v-1.934c0-.856.224-1.451.632-1.861s1.08-.595 1.934-.595v1.154c-.781 0-1.154.446-1.154 1.339v1.934c0 1.042-.373 1.712-1.078 1.973v.037c.707.224 1.078.856 1.078 1.934v1.935c0 .483.075.819.261 1.042s.483.334.893.334V40zm4.429-1.117c.41 0 .707-.112.893-.334s.261-.558.261-1.042v-1.934c0-1.042.373-1.675 1.078-1.934V33.6c-.707-.261-1.078-.93-1.078-1.973v-1.934c0-.893-.373-1.339-1.154-1.339V27.2c.856 0 1.525.186 1.934.595s.632 1.042.632 1.861v1.973c0 .968.373 1.451 1.117 1.451v1.117c-.744 0-1.117.446-1.117 1.376v2.046c0 .856-.224 1.451-.632 1.861-.41.373-1.078.558-1.934.558v-1.155z"/></g></symbol></svg>