<svg xmlns="http://www.w3.org/2000/svg" xmlns:xlink="http://www.w3.org/1999/xlink" viewBox="0 0 111 82" fill="#fff" fill-rule="evenodd" stroke="#000" stroke-linecap="round" stroke-linejoin="round"><use xlink:href="#A" x=".5" y=".5"/><symbol id="A" overflow="visible"><g fill="#804998" stroke="none"><use xlink:href="#C"/><path d="M18.26 4.54v17.513L30.8 26.81V.216L18.26 4.54zm1.32 16.216l-.66-.216V6.054l.66-.216.66-.216.66-.216v15.784l-.66-.216-.66-.216zm3.3.865l-.88-.216V5.189l.88-.216.88-.217.88-.216v17.73l-.88-.216-.88-.432zm3.96 1.297l-1.1-.433V4.108l1.1-.216 1.1-.432 1.32-.433v20.541l-1.32-.432-1.1-.216z"/><use xlink:href="#C" x="39.38"/><path d="M57.64 4.54v17.513l12.54 4.757V.216L57.64 4.54zm1.32 16.216l-.66-.216V6.054l.66-.216.66-.216.659-.216v15.784l-.659-.216-.66-.216zm3.3.865l-.88-.216V5.189l.88-.216.88-.217.88-.216v17.73l-.88-.216-.88-.432zm3.96 1.297l-1.1-.433V4.108l1.1-.216 1.1-.432 1.32-.433v20.541l-1.32-.432-1.1-.216z"/><use xlink:href="#D"/><path d="M18.26 57.729v17.514L30.8 80V53.405l-12.54 4.324zm1.32 16.216l-.66-.216V59.243l.66-.216.66-.216.66-.216v15.783l-.66-.216-.66-.216zm3.3.865l-.88-.216V58.378l.88-.216.88-.216.88-.216v17.73l-.88-.216-.88-.432zm3.96 1.297l-1.1-.432V57.297l1.1-.216 1.1-.432 1.32-.432v20.541l-1.32-.432-1.1-.216z"/><use xlink:href="#E"/><path d="M57.64 57.729v17.514L70.18 80V53.405l-12.54 4.324zm1.32 16.216l-.66-.216V59.243l.66-.216.66-.216.659-.216v15.783l-.659-.216-.66-.216zm3.3.865l-.88-.216V58.378l.88-.216.88-.216.88-.216v17.73l-.88-.216-.88-.432zm3.96 1.297l-1.1-.432V57.297l1.1-.216 1.1-.432 1.32-.432v20.541l-1.32-.432-1.1-.216z"/><use xlink:href="#F"/><path d="M39.16 30.919v17.513L51.7 53.19V26.595l-12.54 4.324zm1.32 16.216l-.659-.216V32.433l.659-.216.66-.216.66-.216v15.784l-.66-.216-.66-.216zm3.3 1.081L42.9 48V31.784l.88-.216.88-.216.88-.217v17.73l-.88-.216-.88-.432zm3.96 1.297l-1.1-.432V30.703l1.1-.216 1.1-.433 1.32-.432v20.541l-1.32-.432-1.1-.216z"/><use xlink:href="#G"/><path d="M0 30.919v17.513l12.54 4.757V26.595L0 30.919zm1.32 16.216l-.66-.216V32.433l.66-.216.66-.216.66-.216v15.784l-.66-.216-.659-.216zm3.3 1.081L3.74 48V31.784l.88-.216.88-.216.88-.217v17.73l-.88-.216-.88-.432zm3.96 1.297l-1.1-.432V30.703l1.1-.216 1.1-.433 1.32-.432v20.541l-1.32-.432-1.1-.216z"/><use xlink:href="#H"/></g><use xlink:href="#C" opacity=".2" stroke="none"/><use xlink:href="#C" x="39.38" opacity=".2" stroke="none"/><use xlink:href="#D" opacity=".2" stroke="none"/><use xlink:href="#E" opacity=".2" stroke="none"/><use xlink:href="#F" opacity=".2" stroke="none"/><use xlink:href="#G" opacity=".2" stroke="none"/><use xlink:href="#H" opacity=".2" stroke="none"/><path d="M77.88 30.919v17.513l12.54 4.757V26.595l-12.54 4.324zm1.32 16.216l-.66-.216V32.433l.66-.216.66-.216.66-.216v15.784l-.66-.216-.66-.216zm3.3 1.081L81.62 48V31.784l.88-.216.88-.216.88-.217v17.73l-.88-.216-.88-.432zm3.96 1.297l-1.1-.432V30.703l1.1-.216 1.1-.433 1.32-.432v20.541l-1.32-.432-1.1-.216z" fill="#804998" stroke="none"/></symbol><defs ><path id="C" d="M50.38 20.324l-16.94 6.486V0l16.94 5.838z"/><path id="D" d="M50.38 73.513L33.44 80V53.189l16.94 5.838z"/><path id="E" d="M89.76 73.513L72.82 80V53.189l16.94 5.838z"/><path id="F" d="M71.28 46.919L54.56 53.19V26.595l16.72 5.838z"/><path id="G" d="M32.12 46.919L15.4 53.19V26.595l16.72 5.838z"/><path id="H" d="M110 46.919L93.28 53.19V26.595L110 32.433z"/></defs></svg>