<svg xmlns="http://www.w3.org/2000/svg" xmlns:xlink="http://www.w3.org/1999/xlink" viewBox="0 0 76 81" fill="#fff" fill-rule="evenodd" stroke="#000" stroke-linecap="round" stroke-linejoin="round"><use xlink:href="#A" x=".5" y=".5"/><symbol id="A" overflow="visible"><g stroke="none"><path d="M56.968 56.892h2.553V0H12.926 9.575C7.979.159 4.628 4.143 4.628 4.622v54.98c0 1.594 1.277 3.028 3.032 3.028h45.479v-.956l3.83-4.781z" fill="#0072c6"/><path d="M11.809 2.55c-1.436 0-1.915.159-3.192 1.275-2.713 2.39.638 2.39 1.915 2.39h42.606v55.458l3.83-4.94V2.55H11.809z" fill="#e5e5e5"/><g fill="#a0a1a2"><path d="M53.138 61.674l3.83-4.781V2.55l-3.83 3.665z" opacity=".5"/><path d="M11.809 33.785c0 1.275-.958 2.231-2.234 2.231h-7.34C.957 36.016 0 35.06 0 33.785h0c0-1.275.957-2.231 2.234-2.231h7.34c1.277-.16 2.234.956 2.234 2.231h0zm0-16.414c0 1.275-.958 2.231-2.234 2.231h-7.34C.957 19.602 0 18.646 0 17.371h0c0-1.275.957-2.231 2.234-2.231h7.34c1.277 0 2.234 1.116 2.234 2.231h0zm0 32.669c0 1.275-.958 2.231-2.234 2.231h-7.34C.957 52.271 0 51.315 0 50.04h0c0-1.275.957-2.231 2.234-2.231h7.34c1.277 0 2.234.956 2.234 2.231h0z"/></g><path d="M36.064 35.378v37.45c0 3.825 8.776 7.012 19.468 7.012V35.219H36.064z" fill="#3999c6"/><path d="M55.213 80h.319C66.224 80 75 76.812 75 72.988v-37.61H55.213V80z" fill="#59b4d9"/><path d="M75 35.379c0 3.825-8.777 7.012-19.468 7.012s-19.468-3.187-19.468-7.012 8.776-7.012 19.468-7.012S75 31.554 75 35.379"/><path d="M71.011 34.901c0 2.55-7.021 4.622-15.479 4.622s-15.479-2.072-15.479-4.622 7.021-4.622 15.479-4.622 15.479 2.072 15.479 4.622" fill="#7fba00"/><path d="M67.819 37.769c2.075-.797 3.192-1.753 3.192-2.868 0-2.55-7.021-4.622-15.479-4.622-8.617 0-15.479 2.072-15.479 4.622 0 1.115 1.277 2.072 3.191 2.868 2.872-1.115 7.34-1.753 12.287-1.753s9.415.638 12.287 1.753" fill="#b8d432"/></g></symbol></svg>