<svg xmlns="http://www.w3.org/2000/svg" xmlns:xlink="http://www.w3.org/1999/xlink" viewBox="0 0 106 81" fill="#fff" fill-rule="evenodd" stroke="#000" stroke-linecap="round" stroke-linejoin="round"><use xlink:href="#A" x=".5" y=".5"/><symbol id="A" overflow="visible"><g stroke="none"><path d="M35.976 17.563l-7.321 1.238-6.484 2.889-5.647 3.507-5.438 6.396-2.928 3.095-2.928 1.032-.837-1.857 1.464-1.857.209-2.682h1.046l.837.825-.209-2.682-1.046-.825v-1.031l-2.51 1.444-2.51 2.682-.418 2.476 1.046 2.063.837 3.301 1.882.825h2.092l1.882-1.238-1.255 6.396 1.255 7.015-1.464 3.301-4.392 4.745.628 3.095 2.301 3.301 3.974 2.682 2.301.413h2.301l-1.464 6.189 5.438 2.269 6.902.825 2.301-1.651.209-3.92 2.719-4.333.209-3.507 6.275.619 5.856-.619-5.856 3.507 1.046 4.126 3.556 5.777 3.765 1.444 2.719-1.031 1.255-2.476 6.066-4.539 1.255 1.032 9.412.412 1.882-1.651.209-2.682-.627-1.032-.418-7.221-3.137-6.189.418-2.889 1.883 1.032 5.438 4.952 2.51.206 2.928-1.238 2.928-2.063 1.464-4.745 8.366.619 5.229-2.063 4.183-3.714 2.928-5.57.837-6.602-.628-7.427-1.673-6.808-1.673-2.27-2.301-.619-3.974 4.333-3.556 1.238-3.138-5.158-3.137-2.889-1.882-1.031-6.693-5.777-5.647-2.888-5.438-.413-6.484 1.032-5.648 2.063-3.765 3.095-3.138 3.714-3.137.825z" fill="#fcd116"/><g fill="#1e1e1e"><path d="M7.739 31.592l.837 1.032.209-1.238h-.627z"/><path d="M103.954 23.546c-.418-3.095-1.255-6.189-2.51-8.253-.209-.206-.418-.619-.627-.825-.627-.619-1.464-1.031-2.301-1.444a3.14 3.14 0 0 0-2.719 0c-.21.206-.418.206-.628.413-.418.412-.837 1.031-1.255 1.651s-1.046 1.444-1.464 1.857c-.627.619-1.464.825-2.301 1.238-.418-.825-.627-1.651-1.255-2.27-.627-.825-1.046-1.65-1.882-2.476l-1.673-1.651-1.883-1.238c-1.882-1.238-3.346-2.476-5.02-3.92-.628-.619-1.464-1.238-2.092-1.857C72.58 1.677 69.024.232 65.259.026s-7.739.825-12.55 2.682c-2.301 1.032-3.974 2.063-5.438 3.301s-2.51 2.682-3.974 4.539c-.836 0-1.464.206-2.092.413-.836.206-1.464.825-2.51 1.65-.627.619-1.255 1.238-1.882 1.651h0l-1.673 1.65c-4.393.619-7.739 1.444-10.877 2.682s-6.066 2.888-8.994 5.364c-1.255 1.032-2.301 2.063-3.137 3.301s-1.673 2.27-2.301 3.507l-1.882 1.857c-.627.619-1.255 1.032-2.092 1.238h0c-.418.206-.628.206-.628.206v-.206c1.046-1.032 1.255-2.476 1.255-3.92.209.206.209.413.418.619s.209.412.418.619l.418-.413.628.206c.209-1.032.418-2.063.209-3.301-.209-.619-.418-1.238-1.046-1.651 0-.206.209-.206.209-.413.209-.413.419-.825.419-1.444l-.419-.206h0l.419.206.627-.413-.837.206c-1.255.206-3.765 1.651-5.647 3.508-.627.619-1.255 1.444-1.673 2.269C0 30.767 0 31.592 0 32.417c.209.825.628 1.444 1.255 2.27.209.619.209 1.032.419 1.444s.418.825.418 1.238c.628 1.032 1.464 1.857 2.301 2.063s1.673.206 2.51 0c-.209 1.032-.209 2.063-.418 3.095 0 1.444 0 3.095.209 4.952 0 .413 0 .825.209 1.238 0 .413.209.825.209 1.238-.209.413-.418.825-.418 1.238-.209.619-.418 1.444-.836 2.063l-1.673 1.65-1.464 1.444-.418.413C1.255 57.794 1.046 58 1.255 59.651c.209 1.032.628 2.063 1.046 3.301.418 1.032 1.255 1.857 2.092 2.888 1.464 1.238 3.347 2.476 5.229 3.301 1.046.412 2.301.619 3.347.412 0 .207 0 .413-.209.413-.209.412-.418.825-.627 1.444-1.255 2.888 0 4.333 2.092 5.158 1.046.413 2.301.825 3.347 1.031.209 0 .418.206.837.206 1.255.413 3.765 1.032 5.856 1.238 2.301.206 4.392-.413 5.02-2.476.209-.825.418-1.444.418-2.063v-1.857c.628-1.444 1.046-1.857 1.464-2.476 0-.206.209-.206.209-.412.418-.825.837-1.238.837-1.857V65.84v-.413c1.255.207 2.719.207 3.974.207h2.092c-.209 0-.419.206-.627.206 0 0-.209 0-.209.206-1.883.825-1.883 2.682-1.255 4.332.418 1.651 1.464 3.301 2.301 4.126 1.464 2.063 2.719 3.92 4.183 4.745 1.673 1.032 3.556 1.032 6.066-.206 1.255-.619 1.673-1.444 2.092-2.27.209-.206.418-.619.627-.825.419-.413 1.673-1.444 3.138-2.476.418-.412.837-.619 1.464-1.032.418.206.627.413 1.255.619s1.464.206 2.301.206h4.392 1.046c1.464 0 2.719 0 3.556-.619 1.046-.619 1.464-1.444 1.673-3.095v-1.65c0-.413-.209-.825-.627-1.444v-2.269-2.269c0-.825-.209-1.651-.419-2.476s-.418-1.444-.837-2.27c-.209-.619-.418-1.032-.627-1.65l-.418.206h0l.418-.206h0c-.209-.825-.628-1.651-1.046-2.476v-.619l.837.825 1.255 1.238c.837.825 1.673 1.65 2.719 2.269s2.092 1.032 3.556.825c1.464 0 3.138-.619 4.602-1.651 1.255-1.032 2.301-2.269 2.928-3.714.209-.413.209-.825.418-1.238 0-.413.209-.619.209-1.032 2.092.413 4.602.413 6.693.207s4.392-.825 6.066-1.651c2.719-1.444 4.602-3.507 6.066-5.983h0c1.673-2.682 2.51-5.983 2.928-9.284-.209-2.476-.418-6.189-1.046-9.697zM72.58 48.51c-.627 2.063-1.673 5.57 1.255 6.189 1.046.206 1.673.206 3.137-.619-1.255.206-1.883.206-2.719 0s-1.255-.619-1.464-1.238c.209.206.627.206 1.464.413 2.092.413 4.183-.413 4.602-2.063.209-.825.209-1.238.628-2.476.418.206.837.206 1.464.413-.209.825-.627 1.65-.836 2.682-.628 2.269-3.347 4.126-5.857 3.92-2.301 0-3.556-1.444-5.229-2.682-1.046-.825-2.092-1.857-3.137-2.682-2.719-.825-5.02-1.857-7.53-3.714 1.883 2.063 3.137 3.301 5.647 4.333-.418 3.714-1.673 6.396-2.719 9.903-.419 1.651-4.393 8.046-5.648 8.665-.837.413-5.647 4.539-6.693 5.158-.628.825-1.255 2.063-2.301 2.682-3.137 1.651-5.229-1.444-6.902-4.126-.837-1.238-2.928-4.745-1.046-5.777 1.673-.825 2.719-1.65 4.602-2.682.209.412.628 1.032 1.046 1.444 0-.619-.209-1.032-.209-1.65-.209-1.032-.209-1.651 0-2.682 0-.825.209-1.857.209-2.682-.209 1.032-.836 1.857-1.046 2.889-.209.413-.209.619-.209 1.032-3.974.825-8.157.825-12.131.206-.209-1.444-.628-3.095-.837-4.126v6.602c0 1.444 0 2.063-.837 3.301-.628 1.238-1.046 1.444-2.092 3.507 0 1.238 0 2.063-.209 3.301-.628 2.063-6.275.413-7.739 0-1.882-.413-5.647-1.238-4.81-3.714.837-2.063 1.464-4.333 1.882-7.427-3.347-4.745-6.484-11.347-7.112-17.33-.418-4.539-.209-7.427.837-10.109 1.673-4.333 3.765-8.253 7.321-11.347 4.811-4.126 9.203-5.777 16.315-6.808l-5.229 5.983c-1.883 2.063-2.928 4.333-4.183 6.602-1.673 3.301-1.673 4.539.628 7.221 1.883 2.476 2.928 3.507 3.556 5.983-.627 1.444-.837 2.476-1.046 4.332 2.301 2.476 3.974 4.126 6.066 4.539s3.974.413 5.857-.619c4.183-2.063 8.157-4.951 12.968-5.158 2.301-5.364 2.092-9.903.837-15.267-.627-3.508-1.046-7.015-1.255-10.522-.837 3.714-1.046 7.014-.419 10.728.837 4.539 1.464 9.49-.837 13.41-4.392.413-8.157 2.888-12.131 4.952-1.673.825-3.137.825-5.02.413-1.255-.206-2.301-1.238-4.183-3.301 0-2.063.418-2.888 1.255-4.745 1.464-2.888 3.137-5.57 5.02-8.459-2.092 2.682-4.183 4.952-5.857 7.427-.627-1.857-1.673-2.888-3.137-4.951s-1.673-2.888-.627-5.364c1.255-2.476 2.092-4.539 4.183-6.602 3.346-3.714 6.484-7.634 10.249-11.347 2.092-1.857 2.928-1.857 5.438-2.269s4.811-.825 7.321-1.444c-2.51.413-4.811.619-7.112.619 2.301-2.888 3.556-4.539 7.321-6.189 9.203-3.92 15.06-4.333 22.171 1.651 1.883 1.65 3.556 3.095 5.438 4.333-.627 0-1.255.206-2.092.412 1.046-.206 2.092 0 3.137.206.209.207.628.413.837.619 1.255.825 2.092 1.238 2.928 2.476 1.046 1.238 1.673 2.682 2.51 4.126-.418-.206-.837-.206-1.255-.412-.209-.206-.627-.206-.837-.206-.627 0-1.046 0-1.673.413-.837.413-1.883.825-2.719.825.419.206 1.255.206 1.673 0h.209c-.209.206-.209.619-.418 1.031 0 .413 0 1.032.209 1.444 0 .206.209.206.209.413-.418.206-.628.206-1.046.413 1.673-.206 3.347-.206 5.02 0 .209.619.209 1.032.418 1.651h-.627c-.837-.619-1.673-.619-2.928-.206-3.556.825-2.719 2.888-4.392 5.983 1.673-2.063 1.673-4.333 4.392-4.951.627-.206 1.046-.413 1.464-.206-.837.413-1.464 1.032-1.883 1.857-.836 2.269-.209 3.92-1.255 5.983 1.046-1.857 1.046-3.507 2.092-5.57.418-.619 1.673-1.857 2.301-1.857h.628c.209 1.238.209 2.476.209 3.301-.209 1.857-.627 4.539-.837 5.57 1.046-1.238 1.464-3.714 1.883-5.57s.418-4.126 0-6.189c-.627-2.889 2.301-2.269 3.974-3.714 1.255-1.031 2.092-2.476 3.138-3.507s2.928.413 3.347 1.651c1.882 4.539 2.719 11.76 2.301 16.505-.627 5.158-3.137 10.934-7.739 13.41-5.857 3.301-12.968 1.238-18.825-.619-1.255-.413-2.092-1.032-3.137-1.651.627 1.032.837 2.476.418 3.714zm-5.229 20.838c-.209 2.063-.837 2.269-2.928 2.269-.837 0-4.393 0-5.229-.206-1.255-.206-1.883-.206-2.301-.413 1.883-1.444 5.229-7.221 5.857-9.284s1.464-3.92 1.883-5.983c.209.825.418 1.651.837 2.476.627 1.444.837 2.27 1.046 3.92 0 1.651 0 3.301.209 4.951.627 1.032.627 1.238.627 2.269zM6.275 26.434c-.418.619-.627 1.238-.627 1.65-.627 2.269.209 4.333-1.882 5.983 1.046 1.857.836 2.682 3.137 1.857.837-.413 1.673-.825 2.301-1.444-.209.825-.628 1.651-.837 2.476 0 .206 0 .206-.209.413-1.673.619-3.765 1.032-4.602-.619-.418-.825-.627-1.651-.836-2.682C0 31.386 3.974 27.672 6.275 26.434zm.209 2.476c0-.206 0-.619.209-.825 0-.206 0-.206.209-.413.627.413.627.825.837 1.65-.418-.412-.836-.619-1.255-.412zm2.092 24.139c1.255 4.126 3.347 8.459 5.648 11.966-.209.619-.418 1.238-.627 1.651-1.673 2.269-5.857-1.032-7.112-2.27-1.464-1.444-2.301-3.095-2.51-4.539-.209-1.032 0-1.032.837-1.857l3.137-3.095.627-1.857zm79.691-34.042c0 .207.209.413.209.619l-.209.206c-.209-.206-.418-.619-.627-.825h.627zM10.458 31.592h0 0 0 0zm-3.347-4.951h0 0 0 0zm-5.229 7.84h0 0 0 0zm29.283 30.328h0 0 0 0zm51.036-15.267h0 0 0 0 0 0zm18.825-7.015h0 0 0 0z"/><path d="M93.496 21.482c2.928-1.032 4.393-3.301 5.02-6.189-1.255 2.269-2.928 4.333-5.438 5.364-1.255.619-2.092.413-3.556.206 1.464.619 2.51 1.032 3.974.619zm-16.732 2.89c-.837 0-1.882.206-3.138.412 0-.412-.209-.619-.209-1.032-.418-.825-1.046-1.444-1.883-1.651l2.092-1.238c-1.673.825-3.556.619-5.02 1.444-1.255.825-2.928 3.507-4.183 4.539.837-.413 1.673-1.032 2.51-1.651 0 .413.209 1.032.418 1.444.418.619.837 1.238 1.464 1.444-.418.619-.837 1.238-1.046 2.063 2.301-2.682 5.647-4.952 8.994-5.777zm-15.06-3.095c.628-2.476 1.464-4.745 5.229-6.396-5.02 1.238-5.857 3.301-5.229 6.396zm8.156 23.519c-.209.619-.209 1.651-.418 2.27.209-.825.628-1.857 1.046-2.476.418-.825.627-.825 1.464-1.238.627-.206 1.673-.825 2.092-1.032-.627 0-1.673.413-2.301.413-1.464.206-1.673.619-1.883 2.063zM43.087 16.944c-1.883 1.857-3.556 7.84-4.183 10.316.837-2.063 3.138-7.633 4.811-9.078.418-.413.837-.619 1.255-.825-1.255 2.063-1.046 2.476-.628 5.158.418-2.682 1.255-3.92 2.928-5.983 1.673-.413 3.347-1.032 5.229-1.651l-6.066.619c-1.882.413-2.301.413-3.346 1.444z"/></g><path d="M67.978 27.466c-.418-.619 0-1.444.628-1.857s1.464 0 1.882.619v.206c-.627.413-1.255 1.032-1.882 1.65-.209 0-.628-.206-.628-.619m15.478-5.982c0-.619.627-1.032 1.046-1.032.627 0 1.046.619 1.046 1.032v.412c-.627 0-1.046.206-1.673.413-.209 0-.418-.413-.418-.825" fill="#fffacb"/></g></symbol></svg>