<svg xmlns="http://www.w3.org/2000/svg" xmlns:xlink="http://www.w3.org/1999/xlink" viewBox="0 0 141 81" fill="#fff" fill-rule="evenodd" stroke="#000" stroke-linecap="round" stroke-linejoin="round"><use xlink:href="#A" x=".5" y=".5"/><symbol id="A" overflow="visible"><path d="M127.134 57.142a.73.73 0 0 1 1.142.489c.051.321.076.645.076.972 0 9.051-19.446 21.398-58.341 21.398S11.668 67.654 11.668 58.603c0-.324.025-.645.075-.961a.73.73 0 0 1 1.143-.489c9.637 6.84 28.677 12.665 57.117 12.665 28.457 0 47.499-5.831 57.131-12.676zm-57.132-4.779c-31.545 0-52.427-7.021-62.65-15.137-.353-.279-.884-.176-1.089.224a6.95 6.95 0 0 0-.795 3.214C5.468 50.673 26.98 64 70.002 64s64.529-13.327 64.529-23.336a6.96 6.96 0 0 0-.795-3.214c-.204-.4-.736-.503-1.089-.224-10.223 8.116-31.102 15.137-62.644 15.137zM70.003 0C23.335 0 0 8.093 0 19.636s23.335 26.911 70.003 26.911S140 31.178 140 19.636 116.668 0 70.003 0zM70 31.999c-33.057 0-49.582-8.411-49.582-14.181S36.943 8.727 70 8.727s49.582 3.321 49.582 9.09S103.057 31.999 70 31.999z" fill="#009ee1" stroke="none"/></symbol></svg>