<svg xmlns="http://www.w3.org/2000/svg" xmlns:xlink="http://www.w3.org/1999/xlink" viewBox="0 0 71 81" fill="#fff" fill-rule="evenodd" stroke="#000" stroke-linecap="round" stroke-linejoin="round"><use xlink:href="#A" x=".5" y=".5"/><symbol id="A" overflow="visible"><g stroke="none"><path d="M70 44.16c0-11.68-5.469-21.92-13.75-28.48v1.12c0 3.52-.937 6.88-2.344 9.76 4.063 4.64 6.563 10.72 6.563 17.44 0 14.4-11.406 26.08-25.469 26.08S9.531 58.4 9.531 44c0-7.2 2.813-13.6 7.344-18.4-1.25-2.72-2.031-5.76-2.031-8.96 0-.64 0-1.44.156-2.08C5.938 20.96 0 31.84 0 44c0 20 15.625 36 35 36s35-16 35-35.84z" fill="#7fba00"/><path d="M35.469 0c-8.906 0-16.094 7.36-16.094 16.48 0 7.52 4.844 13.76 11.563 15.84v16.32h-7.5v8.32h7.5v6.08h8.906V32.16c6.719-1.92 11.563-8.32 11.563-15.84C51.563 7.36 44.375 0 35.469 0zm0 8.64c4.219 0 7.656 3.52 7.656 7.84s-3.437 7.84-7.656 7.84-7.656-3.52-7.656-7.84 3.438-7.84 7.656-7.84z" fill="#fcd116"/></g></symbol></svg>