<svg xmlns="http://www.w3.org/2000/svg" xmlns:xlink="http://www.w3.org/1999/xlink" viewBox="0 0 81 81" fill="#fff" fill-rule="evenodd" stroke="#000" stroke-linecap="round" stroke-linejoin="round"><use xlink:href="#A" x=".5" y=".5"/><symbol id="A" overflow="visible"><g stroke="none"><path d="M40.002 80a7.32 7.32 0 0 1-5.218-2.163L2.162 45.217C.787 43.842 0 41.943 0 39.999s.787-3.843 2.162-5.216l32.623-32.62C36.178.768 38.03 0 40.002 0a7.33 7.33 0 0 1 5.218 2.163l32.618 32.62C79.234 36.172 80 38.026 80 39.999s-.766 3.827-2.165 5.221L45.219 77.837C43.827 79.232 41.971 80 40.002 80" fill="#7fba00"/><path d="M72.981 39.457L62.4 28.878v7.469l-11.226-.01c-1.083-3.869-4.117-6.925-7.974-8.032V17.602h7.381L40 7.021 29.421 17.602H36.8v10.702a11.65 11.65 0 0 0-7.97 8.013l-11.23-.009v-7.389L7.019 39.499 17.6 50.078v-7.469l11.235.01c1.093 3.851 4.118 6.888 7.965 7.993v7.418c-1.6 1.165-4.045 3.613-4.045 6.464 0 3.969 3.253 7.2 7.222 7.2s7.216-3.23 7.216-7.2c0-2.819-2.393-5.238-3.994-6.421v-7.461a11.65 11.65 0 0 0 7.96-7.972l11.24.01v7.389l10.581-10.58z"/><path d="M40 31.044c-4.638 0-8.413 3.774-8.413 8.413s3.774 8.413 8.413 8.413 8.413-3.773 8.413-8.413-3.774-8.413-8.413-8.413z" fill="#59b4d9"/><path d="M45.219 2.163C43.826.768 41.973 0 40.002 0s-3.822.768-5.216 2.163L2.163 34.783C.787 36.156 0 38.057 0 39.999a7.42 7.42 0 0 0 2.163 5.218l18.469 18.47 34.744-51.368L45.219 2.163z" opacity=".15"/></g></symbol></svg>