<svg xmlns="http://www.w3.org/2000/svg" xmlns:xlink="http://www.w3.org/1999/xlink" viewBox="0 0 82 81" fill="#fff" fill-rule="evenodd" stroke="#000" stroke-linecap="round" stroke-linejoin="round"><use xlink:href="#A" x=".5" y=".5"/><symbol id="A" overflow="visible"><g stroke="none"><path d="M78.811 71.397L53.402 28.254V10.789h.459c3.039 0 5.504-2.416 5.504-5.395S56.9 0 53.861 0H26.14c-3.039 0-5.503 2.416-5.503 5.395s2.464 5.395 5.503 5.395h.459v17.464L1.19 71.397C-1.598 76.128.682 80 6.256 80h67.489c5.572 0 7.852-3.872 5.066-8.603z" fill="#59b4d9"/><path d="M22.117 52.827L11.632 70.629h56.735L57.884 52.827z" fill="#b8d432"/><path d="M41.348 60.051c2.832 0 5.127-2.25 5.127-5.025a4.92 4.92 0 0 0-.522-2.198h-9.21a4.91 4.91 0 0 0-.522 2.198c.002 2.776 2.297 5.025 5.128 5.025zm3.847 3.879c0-1.366 1.122-2.466 2.515-2.466s2.515 1.1 2.515 2.466-1.122 2.466-2.515 2.466-2.515-1.1-2.515-2.466z" fill="#7fba00"/><path d="M1.19 71.397l25.409-43.144V10.789h-.459c-3.039 0-5.503-2.416-5.503-5.395S23.099 0 26.14 0h11.945v28.115L24.694 80H6.256c-5.574 0-7.854-3.872-5.066-8.603z" opacity=".25"/></g></symbol></svg>