<svg xmlns="http://www.w3.org/2000/svg" xmlns:xlink="http://www.w3.org/1999/xlink" viewBox="0 0 71 81" fill="#fff" fill-rule="evenodd" stroke="#000" stroke-linecap="round" stroke-linejoin="round"><use xlink:href="#A" x=".5" y=".5"/><symbol id="A" overflow="visible"><g stroke="none"><path d="M34.999 80L0 60V20L34.999 0 70 20v40z" fill="#3e3e3e"/><path d="M35.001 80l34.998-20V20S41.083 41.792 35.001 80" opacity=".2"/><path d="M50.392 23.933c-8.972-8.842-23.47-8.842-32.451 0a22.55 22.55 0 0 0 0 32.134c8.97 8.84 23.479 8.84 32.451 0 8.961-8.872 8.961-23.25 0-32.134"/><path d="M47.248 27.045c-7.233-7.13-18.922-7.13-26.165 0-7.231 7.158-7.231 18.75 0 25.907 7.234 7.13 18.932 7.13 26.165 0 7.226-7.15 7.226-18.744 0-25.907" fill="#59b4d9"/><path d="M45.311 39.978L27.687 28.506v11.518h17.555z"/><path d="M45.242 40.024H27.687v11.517z" opacity=".8"/></g></symbol></svg>