<svg xmlns="http://www.w3.org/2000/svg" xmlns:xlink="http://www.w3.org/1999/xlink" viewBox="0 0 81 81" fill="#fff" fill-rule="evenodd" stroke="#000" stroke-linecap="round" stroke-linejoin="round"><use xlink:href="#A" x=".5" y=".5"/><symbol id="A" overflow="visible"><g stroke="none"><path d="M21.92 44.569v8.657L1.6 35.912H80V9.94C80 4.168 75.2 0 69.44 0H10.08C4.16 0 0 3.527 0 9.459v9.459h58.56v-8.657l20.32 17.315H0v23.888c0 5.932 4.32 11.222 10.08 11.222h21.44L49.12 80l.16-17.315h20c5.92 0 10.72-4.649 10.72-10.581v-7.695H21.92z" fill="#ff8c00"/><path d="M10.08 62.846H25.6l9.12-18.116H21.76v8.657L1.6 35.912h37.28l4.48-8.337H0v23.888c0 5.932 4.32 11.222 10.08 11.383zM56.96 0H10.08C4.16 0 0 3.527 0 9.459v9.459h47.52L56.96 0z" fill-opacity=".2"/></g></symbol></svg>