<svg xmlns="http://www.w3.org/2000/svg" xmlns:xlink="http://www.w3.org/1999/xlink" viewBox="0 0 116 81" fill="#fff" fill-rule="evenodd" stroke="#000" stroke-linecap="round" stroke-linejoin="round"><use xlink:href="#A" x=".5" y=".5"/><symbol id="A" overflow="visible"><path d="M49.872 55.922l-1.337 5.382c-.191.961.382 1.538 1.337 1.346l5.349-1.346c.955-.192 1.146-.961.382-1.73L51.4 55.345c-.573-.577-1.337-.384-1.528.577zm55.013-41.863c.573.577 1.719.577 2.484 0l2.292-2.499s3.439-4.614-1.146-9.227-9.169-.961-9.169-.961c-.764.577-1.91 1.538-2.483 2.307-.764.577-.573 1.73 0 2.499l8.023 7.881zM54.208 48.752l8.023 8.074c.764.577 1.719.577 2.484 0l37.442-37.677c.573-.577.573-1.73 0-2.499l-8.023-8.074c-.764-.769-1.719-.769-2.483 0L54.208 46.445c-.573.577-.573 1.73 0 2.307zM115 66.352c0-7.497-5.922-13.456-13.181-13.456-.573 0-1.146 0-1.719.192.764-3.076 1.337-6.151 1.337-9.419 0-4.998-.955-9.611-2.674-13.841L68.198 60.393c-1.146 1.153-2.101 1.73-3.63 1.73-2.483 1.538-6.495 3.268-8.023 3.652h0 0l-5.731 1.538c-.573.192-.955.192-1.529.192a6.09 6.09 0 0 1-4.585-2.114c-1.147-1.345-1.528-3.268-1.146-5.19h0 0l1.337-5.383c.382-1.73 2.292-6.92 4.203-9.419.382-.961.764-1.73 1.528-2.307L81.76 11.951c-4.776-2.499-10.124-3.845-15.855-3.845-14.327 0-28.081 9.419-32.666 21.145v16.532l-13.563 3.652-16.237-6.343c-.955 1.538-1.528 2.691-1.528 2.691C1.719 45.207 0 50.012 0 55.395c0 13.456 10.889 24.413 24.261 24.413h0l78.322.192h0C109.46 79.231 115 73.464 115 66.352zM30.45 42.761h0V12.389L19.561 9.313.076 16.618h0v21.914l6.686-2.691V17.963l12.799-3.076v26.335L.076 38.532l19.485 7.305 10.889-3.076h0 0z" fill="#dc3c00" stroke="none"/></symbol></svg>