<svg xmlns="http://www.w3.org/2000/svg" xmlns:xlink="http://www.w3.org/1999/xlink" viewBox="0 0 81 81" fill="#fff" fill-rule="evenodd" stroke="#000" stroke-linecap="round" stroke-linejoin="round"><use xlink:href="#A" x=".5" y=".5"/><symbol id="A" overflow="visible"><g stroke="none"><path d="M70.4 22.72c0-.64.16-1.44.16-2.08C70.56 9.28 61.28.16 49.76.16 43.04 0 36.8 3.2 32.96 8.48c-2.4-1.6-5.28-2.4-8.32-2.4C16 6.08 8.96 13.12 8.96 21.6v1.28C3.2 25.92 0 30.88 0 36.96c0 9.6 7.84 17.12 17.92 17.12h44.16C72.16 54.08 80 46.56 80 36.96c0-6.4-3.52-11.52-9.6-14.24z" fill="#59b4d9"/><path d="M11.2 44.8c0-6.56 3.36-11.68 9.6-14.88v-1.28c0-9.12 7.52-16.48 16.64-16.48 3.2 0 6.24.8 8.8 2.4 4-5.6 10.72-9.12 17.92-9.12C60.32 2.08 55.36 0 49.76 0c-6.72 0-12.96 3.2-16.8 8.48-2.4-1.6-5.28-2.4-8.32-2.4C16 6.08 8.96 13.12 8.96 21.6v1.28C3.2 25.92 0 30.88 0 36.96c0 8.16 5.6 14.88 13.44 16.64C12 51.04 11.2 48 11.2 44.8z" opacity=".2"/><use xlink:href="#C"/><g fill="#59b4d9"><use xlink:href="#C" opacity=".1"/><path d="M48.96 34.72c-1.28-.8-2.72-1.44-4.16-1.76-1.12-.32-2.24-.48-3.36-.48-6.4 0-11.84 4.32-13.44 10.56-.96 4-.16 8 2.08 11.04.32.48.8 1.12 1.28 1.6 2.88-9.12 9.28-16.64 17.6-20.96" opacity=".3"/></g><path d="M58.4 36.16a19.76 19.76 0 0 0-12.16-8.96c-1.6-.32-3.2-.64-4.8-.64-9.12 0-16.96 6.24-19.2 15.04-1.28 4.96-.48 10.08 2.08 14.56L9.28 71.36c-1.92 1.92-1.92 5.28 0 7.2 1.12.96 2.4 1.44 3.68 1.44s2.56-.48 3.68-1.44l15.04-15.2c1.6.96 3.36 1.6 5.12 2.08 1.6.32 3.2.64 4.8.64 9.12 0 16.96-6.24 19.2-15.04 1.12-5.12.32-10.4-2.4-14.88zM54.88 49.6c-1.6 6.24-7.04 10.56-13.44 10.56-1.12 0-2.24-.16-3.36-.48-1.6-.48-3.2-1.12-4.48-2.08-1.44-.96-2.56-2.24-3.52-3.52-2.08-3.2-3.04-7.04-2.08-11.04 1.6-6.24 7.04-10.56 13.44-10.56 1.12 0 2.24.16 3.36.48 3.52.96 6.56 3.04 8.48 6.24s2.56 6.88 1.6 10.4z" fill="#3e3e3e"/><path d="M30.24 62.56c-2.08-1.44-3.68-3.04-5.12-5.12l-.8-1.28-1.28 1.44-.16.16c.16.32.32.64.64.96 1.6 2.24 3.36 4.16 5.6 5.76.16.16.64.32 1.12.48l1.44-1.44c-.64-.48-.96-.64-1.44-.96z" fill="#1e1e1e" opacity=".5"/></g></symbol><defs ><path id="C" d="M54.88 49.6c-1.6 6.24-7.04 10.56-13.44 10.56-1.12 0-2.24-.16-3.36-.48-1.6-.48-3.2-1.12-4.48-2.08-1.44-.96-2.56-2.24-3.52-3.52-2.08-3.2-3.04-7.04-2.08-11.04 1.6-6.24 7.04-10.56 13.44-10.56 1.12 0 2.24.16 3.36.48 3.52.96 6.56 3.04 8.48 6.24 1.92 3.04 2.56 6.88 1.6 10.4"/></defs></svg>