<svg xmlns="http://www.w3.org/2000/svg" xmlns:xlink="http://www.w3.org/1999/xlink" viewBox="0 0 81 81" fill="#fff" fill-rule="evenodd" stroke="#000" stroke-linecap="round" stroke-linejoin="round"><use xlink:href="#A" x=".5" y=".5"/><symbol id="A" overflow="visible"><g stroke="none"><path d="M39.993 15.167l25.248 20.961-8.513 28.851H22.715l-8.027-28.804 25.305-21.008m0-8.937L6.869 33.73l10.625 38.124h44.374L73.117 33.73 39.993 6.23h0z" fill="#dd5900"/><path d="M39.999 0c6.904 0 12.5 5.597 12.5 12.501A12.5 12.5 0 0 1 39.999 25a12.5 12.5 0 0 1 0-24.999zM67.5 21.249a12.5 12.5 0 0 1 12.499 12.499A12.5 12.5 0 0 1 67.5 46.247c-6.904 0-12.5-5.597-12.5-12.499s5.597-12.499 12.5-12.499zm-9.376 33.75c6.904 0 12.5 5.597 12.5 12.499s-5.597 12.499-12.5 12.499a12.5 12.5 0 0 1-12.499-12.499 12.5 12.5 0 0 1 12.499-12.499zm-36.265 0c6.904 0 12.501 5.597 12.501 12.499s-5.597 12.501-12.501 12.501-12.5-5.597-12.5-12.501 5.597-12.499 12.5-12.499zm-9.358-33.75A12.5 12.5 0 1 1 0 33.75c0-6.904 5.597-12.5 12.501-12.5z" fill="#ff8c00"/><path d="M24.088 79.798L29.18 57.37a12.44 12.44 0 0 0-7.321-2.369c-.642 0-1.27.048-1.886.142l-2.738-9.822C21.79 43.453 25 38.979 25 33.751c0-1.854-.406-3.613-1.131-5.197l7.955-6.603a12.5 12.5 0 0 0 4.811 2.59L42.162.192C41.458.067 40.737 0 39.999 0 33.095 0 27.5 5.597 27.5 12.501c0 1.27.191 2.496.544 3.651l-8.643 7.176c-1.977-1.312-4.349-2.077-6.899-2.077A12.5 12.5 0 0 0 0 33.75c0 6.153 4.448 11.264 10.302 12.304l3.35 12.022c-2.63 2.291-4.294 5.662-4.294 9.424C9.358 74.403 14.955 80 21.859 80c.76-.002 1.506-.072 2.229-.202z" opacity=".25"/></g></symbol></svg>