<svg xmlns="http://www.w3.org/2000/svg" xmlns:xlink="http://www.w3.org/1999/xlink" viewBox="0 0 81 81" fill="#fff" fill-rule="evenodd" stroke="#000" stroke-linecap="round" stroke-linejoin="round"><use xlink:href="#A" x=".5" y=".5"/><symbol id="A" overflow="visible"><g fill="#0072c6" stroke="none"><path d="M1.28 0C.48 0 0 .48 0 1.28v16c0 .8.48 1.28 1.28 1.28h8c.8 0 1.28-.48 1.28-1.28v-6.56h58.72v6.72c0 .8.48 1.28 1.6 1.28h7.68c.8 0 1.28-.48 1.28-1.28v-8-8C80 .48 79.52 0 78.72 0h0H1.28zm77.44 80c.8 0 1.28-.48 1.28-1.28V63.04c0-.8-.48-1.28-1.28-1.28h-7.68c-.8 0-1.28.48-1.28 1.28v6.4H10.72v-6.72c0-.8-.48-1.28-1.6-1.28H1.28c-.8 0-1.28.48-1.28 1.6v15.68C0 79.52.48 80 1.28 80h77.44zM38.384 27.728l3.392-2.12 16.706 26.729-3.392 2.12z"/><path d="M22.08 52.316l16.703-26.729 3.392 2.119-16.702 26.729z"/></g><path d="M31.36 26.72a8.62 8.62 0 1 1 17.28 0 8.62 8.62 0 1 1-17.28 0z" fill="#b8d432" stroke="none"/><path d="M14.72 53.28a8.62 8.62 0 0 1 8.64-8.64 8.64 8.64 0 1 1 0 17.28 8.62 8.62 0 0 1-8.64-8.64zm33.28 0a8.64 8.64 0 1 1 17.28 0 8.64 8.64 0 1 1-17.28 0z" stroke="none" fill="#59b4d9"/></symbol></svg>