<svg xmlns="http://www.w3.org/2000/svg" xmlns:xlink="http://www.w3.org/1999/xlink" viewBox="0 0 96 81" fill="#fff" fill-rule="evenodd" stroke="#000" stroke-linecap="round" stroke-linejoin="round"><use xlink:href="#A" x=".5" y=".5"/><symbol id="A" overflow="visible"><g stroke="none"><path d="M54.068 26.029c11.423 0 20.751 8.612 22.084 19.521 2.665 2.105 4.76 4.593 6.282 7.273C89.86 50.909 95 44.402 95 36.555c0-6.316-3.427-11.292-9.329-14.163v-2.105C85.671 9.187 76.533 0 65.491 0c-6.663 0-12.755 3.254-16.563 8.421-2.475-1.531-5.14-2.297-8.186-2.297-7.996 0-14.469 6.124-15.231 13.78 1.142-.191 2.475-.191 3.808-.191 5.902 0 12.565.957 18.086 6.89l6.663-.574z" fill="#59b4d9"/><path d="M69.489 49.378V48.23c0-8.421-6.854-15.311-15.231-15.311-2.665 0-5.14.766-7.425 1.914v.191-.191c-.19.191-.571.191-.761.383l-.191-.191c-4.379 3.254-6.283 8.23-6.473 13.589h6.663L35.982 60.67 25.701 48.612h6.854c.19-7.273 3.046-14.163 7.996-18.565-3.236-2.105-7.044-3.254-11.042-3.254-11.233 0-20.371 8.995-20.371 20.096v2.105C3.427 51.866 0 56.842 0 63.158 0 72.727 7.615 80 17.515 80h43.216c9.9 0 17.515-7.464 17.515-16.842 0-6.124-3.046-10.909-8.757-13.78z" fill="#0072c6"/></g></symbol></svg>