<svg xmlns="http://www.w3.org/2000/svg" xmlns:xlink="http://www.w3.org/1999/xlink" viewBox="0 0 92 82" fill="#fff" fill-rule="evenodd" stroke="#000" stroke-linecap="round" stroke-linejoin="round"><use xlink:href="#A" x=".5" y=".5"/><symbol id="A" overflow="visible"><path d="M79.833 35.804h-1.412c.563-2.516 1.129-5.035 1.129-7.552C79.55 12.588 68.266 0 52.469 0 40.057 0 29.338 8.112 25.671 19.301c-1.974-.559-4.232-1.119-6.487-1.119C8.744 18.182 0 27.133 0 37.762c0 11.189 7.898 18.741 18.617 18.741h7.616v-4.755h21.439v9.51h21.159v-4.755h11.002c5.924 0 10.156-4.196 10.156-10.07.28-5.874-4.514-10.629-10.156-10.629zM47.392 46.993H26.235v-4.476h21.157v4.476zm0-9.231H26.235v-4.476h21.157v4.476zm.282 28.252h21.157v4.477H47.674zm0 9.51h21.157V80H47.674z" fill="#59b4d9" stroke="none"/><path d="M35.269 24.635c2.16-.535 4.32-.535 6.3-.357.898-9.626 8.554-19.262 17.181-23.553-1.998-.459-4.091-.723-6.28-.723-12.413 0-23.131 8.112-26.798 19.301-1.974-.559-4.232-1.119-6.487-1.119C8.744 18.182 0 27.133 0 37.762c0 11.189 7.898 18.741 18.617 18.741h7.581c-2.48-2.484-4.259-5.492-5.15-9.203-2.34-10.172 3.96-20.345 14.22-22.666z" opacity=".2" stroke="none"/><path d="M58.78.707l-.031.016.031-.016z" opacity=".2" stroke="none"/></symbol></svg>