<svg xmlns="http://www.w3.org/2000/svg" xmlns:xlink="http://www.w3.org/1999/xlink" viewBox="0 0 81 81" fill="#fff" fill-rule="evenodd" stroke="#000" stroke-linecap="round" stroke-linejoin="round"><style><![CDATA[.B{stroke:none}.C{fill:#59b4d9}.D{fill:#a0a1a2}]]></style><use xlink:href="#A" x=".5" y=".5"/><symbol id="A" overflow="visible"><path d="M34.667 0h10.667v8H34.667zm-16 0h10.667v8H18.667zM72 72h-5.333v8h8C77.613 80 80 77.611 80 74.667v-8h-8V72zM0 50.667h8v10.667H0zM34.667 72h10.667v8H34.667zM72 50.667h8v10.667h-8zM50.667 72h10.667v8H50.667zm-32 0h10.667v8H18.667zM8 72v-5.333H0v8C0 77.613 2.389 80 5.333 80h8v-8H8zM0 18.667h8v10.667H0zM8 8h5.333V0h-8C2.389 0 0 2.389 0 5.333v8h8V8zM0 34.667h8v10.667H0zm72 0h8v10.667h-8zm0-16.001h8v10.667h-8zM50.666 0h10.667v8H50.666zM72 8v5.333h8v-8C80 2.387 77.611 0 74.667 0h-8v8H72z" class="B C"/><path d="M56.525 14.334H15.919c-1.381 0-2.493 1.232-2.493 2.608v28.28c0 1.368 1.112 2.587 2.493 2.587h40.606c1.376 0 2.771-1.219 2.771-2.587V16.944c.002-1.381-1.393-2.61-2.771-2.61" class="B D"/><path d="M56.554 14.337c-.01 0-.019-.003-.029-.003H15.919c-1.381 0-2.493 1.232-2.493 2.608V45.22c0 1.368 1.112 2.587 2.493 2.587h.966l39.669-33.47z" opacity=".2" class="B"/><path d="M55.809 44.285H16.902V17.861l38.907-.058z" class="B C"/><path d="M36.835 16.254a.65.65 0 1 1-1.301 0 .65.65 0 0 1 .65-.649c.36-.002.651.288.651.649" fill="#b8d432" class="B"/><path d="M36.863 30.27c-.042 0-.083-.013-.123-.035l-8.078-4.656c-.074-.043-.12-.125-.12-.211s.046-.168.12-.211l8.029-4.626a.25.25 0 0 1 .242 0l8.08 4.659c.075.043.12.125.12.211s-.045.168-.12.211l-8.026 4.624c-.04.022-.078.034-.123.034" class="B"/><path d="M50.45 56.856h-1.093-10.816-.565c1.499 5.285-.515 6.042-9.334 6.042v2.768H39.86h8.19 10.586v-2.766c-8.821-.002-9.686-.755-8.186-6.043" fill="#7a7a7a" class="B"/><path d="M63.803 23.382H23.197c-1.381 0-2.493 1.232-2.493 2.608v28.28c0 1.368 1.112 2.587 2.493 2.587h40.606c1.376 0 2.771-1.219 2.771-2.587V25.99c0-1.379-1.395-2.608-2.771-2.608" class="B D"/><path d="M63.832 23.385c-.01 0-.019-.003-.029-.003H23.195c-1.381 0-2.493 1.232-2.493 2.608v28.278c0 1.368 1.112 2.587 2.493 2.587h.966l39.67-33.47z" opacity=".2" class="B"/><path d="M63.086 53.333H24.179V26.909l38.907-.058z" class="B C"/><path d="M28.642 62.898h29.992v2.768H28.642z" class="B D"/><path d="M44.114 25.303a.65.65 0 1 1-1.301 0 .65.65 0 1 1 1.301 0" fill="#b8d432" class="B"/><path d="M44.14 39.32c-.042 0-.083-.013-.123-.035l-8.078-4.656c-.074-.043-.12-.125-.12-.211s.046-.168.12-.211l8.029-4.626a.25.25 0 0 1 .242 0l8.08 4.659c.075.043.12.125.12.211s-.045.168-.12.211l-8.026 4.624c-.038.019-.078.034-.123.034" class="B"/><path d="M42.978 50.637c-.046 0-.086-.011-.123-.032l-8.053-4.641c-.078-.043-.125-.122-.125-.211v-9.315a.24.24 0 0 1 .125-.211c.075-.045.165-.045.246 0l8.053 4.64c.07.047.12.125.12.213v9.315c0 .09-.046.168-.12.211a.27.27 0 0 1-.123.032" opacity=".7" class="B"/><path d="M45.259 50.637c-.045 0-.086-.011-.126-.032a.25.25 0 0 1-.118-.211v-9.258a.25.25 0 0 1 .118-.211l8.053-4.638c.077-.043.166-.043.243 0a.24.24 0 0 1 .123.211v9.256c0 .09-.046.17-.123.211l-8.05 4.642c-.037.019-.08.03-.12.03" opacity=".4" class="B"/></symbol></svg>