<svg xmlns="http://www.w3.org/2000/svg" xmlns:xlink="http://www.w3.org/1999/xlink" viewBox="0 0 91 81" fill="#fff" fill-rule="evenodd" stroke="#000" stroke-linecap="round" stroke-linejoin="round"><use xlink:href="#A" x=".5" y=".5"/><symbol id="A" overflow="visible"><g stroke="none"><path d="M84.6 0H4.86C2.16 0 0 2.256 0 4.859v53.622c0 2.603 2.16 4.859 4.86 4.859h28.98c2.88 10.065-1.08 11.453-18.36 11.453V80h21.96 16.02 20.7v-5.206c-17.28 0-19.08-1.388-16.02-11.453H84.6c2.7 0 5.4-2.256 5.4-4.859V4.859C90 2.256 87.3 0 84.6 0z" fill="#59b4d9"/><path d="M82.98 6.594v50.152H6.84V6.594z"/><path d="M45.9 30.195h-.18l-15.84-8.85c-.18 0-.18-.174-.18-.347s.18-.347.18-.347l15.84-8.677h.54l15.84 8.85c.18 0 .18.173.18.347s0 .347-.18.347l-15.66 8.677h-.54M43.74 51.54h-.18l-15.84-8.85c-.18 0-.18-.174-.18-.347V24.642c0-.174.18-.347.18-.347h.54l15.84 8.85c.18 0 .18.173.18.347v17.701c0 .174-.18.347-.18.347h-.36m4.5.001h-.18c-.18 0-.18-.173-.18-.347V33.667c0-.173.18-.347.18-.347l15.84-8.85h.54c.18 0 .18.174.18.347v17.527c0 .174-.18.347-.18.347l-15.84 8.85h-.36" fill="#0072c6"/></g></symbol></svg>