<svg xmlns="http://www.w3.org/2000/svg" xmlns:xlink="http://www.w3.org/1999/xlink" viewBox="0 0 81 81" fill="#fff" fill-rule="evenodd" stroke="#000" stroke-linecap="round" stroke-linejoin="round"><use xlink:href="#A" x=".5" y=".5"/><symbol id="A" overflow="visible"><g stroke="none"><path d="M57.157 0H3.306C1.477 0 .002 1.634.002 3.459v37.502c0 1.815 1.475 3.431 3.306 3.431h53.85c1.826 0 3.675-1.616 3.675-3.431V3.459c0-1.83-1.85-3.459-3.675-3.459" fill="#a0a1a2"/><path d="M57.194.003c-.013 0-.026-.003-.039-.003H3.306C1.475.002 0 1.634 0 3.461v37.501c0 1.815 1.475 3.431 3.306 3.431h1.281L57.194.003z" opacity=".2"/><path d="M56.206 39.717H4.611V4.675L56.206 4.6z" fill="#59b4d9"/><path d="M31.047 2.546c0 .477-.387.862-.864.862a.86.86 0 0 1-.863-.862.86.86 0 0 1 .863-.862c.477 0 .864.386.864.863" fill="#b8d432"/><path d="M31.08 21.134c-.056 0-.111-.018-.163-.046l-10.712-6.174a.33.33 0 0 1-.16-.28c0-.115.062-.222.16-.28l10.647-6.134c.099-.056.221-.056.32 0l10.715 6.178c.099.058.16.165.16.28a.32.32 0 0 1-.16.28l-10.643 6.133a.34.34 0 0 1-.163.045"/><path d="M66.673 11.93h-53.85c-1.83 0-3.306 1.634-3.306 3.459v37.502c0 1.815 1.475 3.431 3.306 3.431h53.85c1.826 0 3.675-1.616 3.675-3.431V15.389c.001-1.83-1.848-3.459-3.675-3.459" fill="#a0a1a2"/><path d="M66.712 11.933c-.013 0-.026-.003-.039-.003h-53.85c-1.83 0-3.306 1.634-3.306 3.459V52.89c0 1.814 1.475 3.43 3.306 3.43h1.282l52.607-44.387z" opacity=".2"/><path d="M65.725 51.647H14.128V16.605l51.597-.075z" fill="#59b4d9"/><path d="M40.564 14.475c0 .477-.387.862-.864.862a.86.86 0 1 1 0-1.725.86.86 0 0 1 .864.862" fill="#b8d432"/><path d="M40.598 33.062c-.056 0-.111-.018-.163-.047l-10.712-6.174a.33.33 0 0 1-.16-.28c0-.115.062-.222.16-.28l10.646-6.134c.099-.056.221-.056.32 0l10.715 6.178c.099.058.16.165.16.28s-.059.222-.16.28l-10.643 6.133a.33.33 0 0 1-.163.045"/><path d="M58.618 68.317h-1.45-14.344-.749c1.987 7.008-.683 8.013-12.379 8.013V80h14.875 10.861 14.037v-3.669c-11.694-.002-12.842-1.002-10.851-8.014" fill="#7a7a7a"/><path d="M76.325 23.928h-53.85c-1.83 0-3.306 1.634-3.306 3.459V64.89c0 1.814 1.475 3.43 3.306 3.43h53.85c1.826 0 3.675-1.616 3.675-3.43V27.387c0-1.829-1.85-3.459-3.675-3.459" fill="#a0a1a2"/><path d="M76.363 23.933c-.013 0-.026-.003-.039-.003H22.474c-1.831 0-3.306 1.634-3.306 3.459V64.89c0 1.814 1.475 3.43 3.306 3.43h1.281l52.608-44.387z" opacity=".2"/><path d="M75.374 63.647H23.779V28.605l51.595-.077z" fill="#59b4d9"/><path d="M29.698 76.33h39.773V80H29.698z" fill="#a0a1a2"/><path d="M50.215 26.474c0 .477-.387.862-.864.862a.86.86 0 1 1 0-1.725c.477 0 .864.386.864.863" fill="#b8d432"/><path d="M50.248 45.062c-.056 0-.111-.018-.163-.046l-10.712-6.174a.33.33 0 0 1-.16-.28c0-.115.062-.222.16-.28l10.647-6.134c.099-.056.221-.056.32 0l10.715 6.178c.099.058.16.165.16.28s-.059.222-.16.28l-10.643 6.133c-.051.027-.104.045-.163.045"/><path d="M48.709 60.071a.31.31 0 0 1-.163-.043l-10.68-6.155c-.104-.058-.166-.162-.166-.28V41.241c0-.117.063-.223.166-.28s.219-.059.326 0l10.678 6.154a.34.34 0 0 1 .159.283v12.352c0 .118-.062.222-.159.28-.053.027-.109.041-.161.041" opacity=".7"/><path d="M51.733 60.07a.35.35 0 0 1-.168-.043.33.33 0 0 1-.157-.28V47.472c0-.114.062-.221.157-.28l10.678-6.152a.32.32 0 0 1 .322 0c.102.058.163.163.163.28v12.274c0 .119-.062.224-.163.28L51.89 60.029c-.045.027-.102.041-.157.041" opacity=".4"/></g></symbol></svg>