<svg xmlns="http://www.w3.org/2000/svg" xmlns:xlink="http://www.w3.org/1999/xlink" viewBox="0 0 86 81" fill="#fff" fill-rule="evenodd" stroke="#000" stroke-linecap="round" stroke-linejoin="round"><use xlink:href="#A" x=".5" y=".5"/><symbol id="A" overflow="visible"><g stroke="none"><path d="M39.836 33.532L29.454 51.135c-.888 1.483-1.328 2.69-.618 4.575 1.959 5.206-.804 10.273-5.998 11.648-4.898 1.297-9.669-1.957-10.641-7.258-.861-4.692 2.741-9.292 7.858-10.025.429-.062.866-.069 1.587-.124l7.784-13.195c-4.896-4.921-7.81-10.675-7.165-17.803.456-5.039 2.416-9.394 5.998-12.963 6.861-6.835 17.329-7.942 25.408-2.695 7.759 5.039 11.313 14.855 8.284 23.256L54.839 24.6c.951-4.671.248-8.865-2.868-12.459-2.059-2.372-4.701-3.616-7.705-4.074-6.022-.92-11.935 2.992-13.689 8.967-1.991 6.782 1.022 12.322 9.259 16.497h0z" fill="#c73a63"/><path d="M49.933 26.426l7.527 13.42c12.67-3.963 22.223 3.128 25.65 10.719 4.139 9.17 1.31 20.031-6.82 25.688-8.344 5.808-18.897 4.815-26.29-2.645l5.801-4.907c7.302 4.782 13.689 4.556 18.43-1.106 4.043-4.83 3.956-12.032-.205-16.761-4.801-5.457-11.233-5.623-19.007-.385L45.39 33.103c-1.053-1.963-2.215-3.102-4.588-3.518-3.963-.695-6.522-4.135-6.676-7.99-.151-3.812 2.071-7.258 5.543-8.601a8.59 8.59 0 0 1 9.79 2.7c1.891 2.416 2.492 5.134 1.497 8.114-.277.831-.635 1.634-1.023 2.619h0z" fill="#4b4b4b"/><path d="M55.887 62.743H40.634c-1.462 6.079-4.619 10.987-10.061 14.108-4.23 2.426-8.788 3.248-13.641 2.456C8 77.85.695 69.72.052 60.565c-.728-10.371 6.323-19.589 15.722-21.66l1.953 7.164C9.104 50.517 6.119 56.121 8.533 63.128c2.125 6.167 8.159 9.547 14.712 8.24 6.691-1.335 10.065-6.957 9.653-15.979l19.037.033c2.477.039 4.39-.221 6.256-2.428 3.073-3.633 8.728-3.305 12.037.126 3.382 3.507 3.22 9.149-.359 12.508-3.453 3.241-8.908 3.068-12.138-.424-.664-.72-1.187-1.574-1.844-2.459h0z" fill="#4a4a4a"/></g></symbol></svg>