<svg xmlns="http://www.w3.org/2000/svg" viewBox="0 0 1557 480"><defs><clipPath id="a" clipPathUnits="userSpaceOnUse"><path d="M0 360h1167.754V0H0Z"/></clipPath></defs><g clip-path="url(#a)" transform="matrix(1.33333 0 0 -1.33333 0 480)"><path d="M0 0c-5.296 0-9.301 1.341-12.017 4.023-2.717 2.682-4.074 6.602-4.074 11.759v26.51h-7.634v11.862h3.818c2.062 0 3.471.498 4.228 1.495.756.997 1.135 2.425 1.135 4.281v8.871H-.825V54.154H9.902V42.292H-.825v-30.43h9.902V0Zm-80.456 0v54.154h15.267v-9.18h.619c.962 2.818 2.645 5.26 5.053 7.323 2.407 2.063 5.742 3.095 10.006 3.095 5.571 0 9.782-1.857 12.636-5.571 2.853-3.713 4.28-9.009 4.28-15.884V0H-47.86v32.699c0 3.507-.552 6.102-1.651 7.787-1.1 1.685-3.06 2.528-5.88 2.528-1.237 0-2.441-.155-3.61-.465a9.169 9.169 0 0 1-3.145-1.495 7.817 7.817 0 0 1-2.218-2.528c-.552-.997-.825-2.15-.825-3.455V0Zm-39.814 9.387c2.543 0 4.727.545 6.55 1.637 1.822 1.091 2.734 2.866 2.734 5.324v6.345h-7.427c-5.983 0-8.974-2.013-8.974-6.039v-1.536c0-1.979.618-3.428 1.857-4.35 1.237-.922 2.991-1.381 5.26-1.381M-99.124 0c-2.751 0-5.038.859-6.859 2.579-1.824 1.718-2.976 4.023-3.456 6.911h-.619c-.825-3.507-2.648-6.173-5.467-7.994-2.821-1.822-6.292-2.734-10.418-2.734-5.433 0-9.593 1.44-12.481 4.318-2.888 2.878-4.333 6.684-4.333 11.414 0 5.69 2.079 9.922 6.241 12.699 4.16 2.775 9.816 4.164 16.968 4.164h8.562v3.405c0 2.612-.689 4.693-2.064 6.24-1.376 1.547-3.679 2.321-6.91 2.321-3.027 0-5.434-.655-7.221-1.96-1.789-1.307-3.267-2.785-4.435-4.435l-9.077 8.091c2.2 3.249 4.966 5.791 8.303 7.623 3.334 1.833 7.856 2.75 13.564 2.75 7.701 0 13.477-1.686 17.33-5.055 3.85-3.37 5.776-8.287 5.776-14.75V11.862h5.054V0Zm-60.549 0c-5.296 0-9.301 1.341-12.016 4.023-2.718 2.682-4.075 6.602-4.075 11.759v26.51h-7.633v11.862h3.817c2.062 0 3.472.498 4.228 1.495.756.997 1.135 2.425 1.135 4.281v8.871h13.719V54.154h10.727V42.292h-10.727v-30.43h9.902V0Zm-51.78-1.238c-5.228 0-9.629.843-13.204 2.528-3.576 1.684-6.774 4.074-9.593 7.168l8.975 9.078c1.923-2.133 4.056-3.817 6.394-5.055 2.338-1.238 4.985-1.856 7.944-1.856 3.024 0 5.122.464 6.291 1.392 1.168.928 1.753 2.182 1.753 3.765 0 2.543-1.822 4.057-5.466 4.539l-5.879.721c-12.172 1.512-18.258 7.083-18.258 16.711 0 2.613.498 5.003 1.495 7.169a15.98 15.98 0 0 0 4.23 5.57c1.821 1.547 4.023 2.75 6.601 3.61 2.579.859 5.483 1.29 8.717 1.29 2.818 0 5.311-.191 7.477-.568 2.167-.379 4.091-.928 5.777-1.65a22.15 22.15 0 0 0 4.642-2.682 49.392 49.392 0 0 0 4.177-3.559l-8.767-8.974a20.083 20.083 0 0 1-5.829 4.075c-2.166.996-4.383 1.495-6.652 1.495-2.614 0-4.472-.412-5.57-1.237-1.101-.826-1.651-1.926-1.651-3.301 0-1.444.395-2.563 1.186-3.353.79-.791 2.286-1.358 4.487-1.701l6.086-.826c11.897-1.583 17.845-7.014 17.845-16.298 0-2.614-.551-5.02-1.651-7.22-1.1-2.202-2.665-4.11-4.693-5.725-2.029-1.617-4.471-2.872-7.323-3.765-2.855-.893-6.034-1.341-9.541-1.341m-47.861 55.392h15.267V0h-15.267zm7.632 5.776c-3.093 0-5.347.705-6.755 2.115-1.411 1.409-2.115 3.214-2.115 5.415v2.269c0 2.201.704 4.005 2.115 5.416 1.408 1.409 3.662 2.114 6.755 2.114 3.095 0 5.347-.705 6.757-2.114 1.408-1.411 2.114-3.215 2.114-5.416V67.46c0-2.201-.706-4.006-2.114-5.415-1.41-1.41-3.662-2.115-6.757-2.115M-292.94-1.238c-5.228 0-9.629.843-13.205 2.528-3.576 1.684-6.773 4.074-9.592 7.168l8.974 9.078c1.924-2.133 4.057-3.817 6.395-5.055 2.338-1.238 4.985-1.856 7.943-1.856 3.025 0 5.122.464 6.292 1.392 1.168.928 1.753 2.182 1.753 3.765 0 2.543-1.822 4.057-5.467 4.539l-5.879.721c-12.171 1.512-18.257 7.083-18.257 16.711 0 2.613.498 5.003 1.495 7.169a15.988 15.988 0 0 0 4.229 5.57c1.822 1.547 4.024 2.75 6.602 3.61 2.579.859 5.483 1.29 8.717 1.29 2.818 0 5.311-.191 7.477-.568 2.167-.379 4.091-.928 5.776-1.65a22.133 22.133 0 0 0 4.643-2.682 49.55 49.55 0 0 0 4.177-3.559l-8.768-8.974a20.066 20.066 0 0 1-5.828 4.075c-2.166.996-4.384 1.495-6.652 1.495-2.614 0-4.472-.412-5.571-1.237-1.1-.826-1.65-1.926-1.65-3.301 0-1.444.395-2.563 1.186-3.353.79-.791 2.286-1.358 4.487-1.701l6.086-.826c11.896-1.583 17.845-7.014 17.845-16.298 0-2.614-.551-5.02-1.651-7.22-1.1-2.202-2.665-4.11-4.693-5.725-2.029-1.617-4.471-2.872-7.323-3.765-2.855-.893-6.035-1.341-9.541-1.341m-51.267 0c-5.228 0-9.629.843-13.204 2.528-3.576 1.684-6.774 4.074-9.593 7.168l8.975 9.078c1.924-2.133 4.056-3.817 6.394-5.055 2.338-1.238 4.986-1.856 7.944-1.856 3.024 0 5.122.464 6.292 1.392 1.168.928 1.753 2.182 1.753 3.765 0 2.543-1.823 4.057-5.467 4.539l-5.879.721c-12.172 1.512-18.258 7.083-18.258 16.711 0 2.613.498 5.003 1.495 7.169a15.98 15.98 0 0 0 4.23 5.57c1.821 1.547 4.023 2.75 6.601 3.61 2.579.859 5.484 1.29 8.717 1.29 2.818 0 5.311-.191 7.478-.568 2.167-.379 4.09-.928 5.776-1.65a22.15 22.15 0 0 0 4.642-2.682 49.392 49.392 0 0 0 4.177-3.559l-8.767-8.974a20.079 20.079 0 0 1-5.828 4.075c-2.167.996-4.384 1.495-6.653 1.495-2.614 0-4.472-.412-5.57-1.237-1.101-.826-1.651-1.926-1.651-3.301 0-1.444.395-2.563 1.186-3.353.79-.791 2.286-1.358 4.487-1.701l6.086-.826c11.897-1.583 17.845-7.014 17.845-16.298 0-2.614-.551-5.02-1.65-7.22-1.101-2.202-2.665-4.11-4.694-5.725-2.029-1.617-4.47-2.872-7.323-3.765-2.855-.893-6.034-1.341-9.541-1.341m-60.858 59.002h-.516l-7.942-27.335h16.503zM-388.046 0l-5.157 17.123h-24.034L-422.395 0h-15.884l23.723 71.999h19.393L-371.748 0Zm-128.421 0 17.846 27.541-17.639 26.613h17.329l10.109-17.02h.412l9.8 17.02h16.091l-17.948-27.129L-462.416 0h-17.329l-10.418 17.639h-.413L-500.581 0Zm-56.216 0v54.154h15.267v-9.18h.619c.962 2.818 2.646 5.26 5.054 7.323 2.406 2.063 5.741 3.095 10.006 3.095 5.57 0 9.781-1.857 12.635-5.571 2.853-3.713 4.281-9.009 4.281-15.884V0h-15.266v32.699c0 3.507-.552 6.102-1.65 7.787-1.101 1.685-3.061 2.528-5.88 2.528-1.237 0-2.442-.155-3.611-.465a9.187 9.187 0 0 1-3.145-1.495 7.817 7.817 0 0 1-2.218-2.528c-.552-.997-.825-2.15-.825-3.455V0Zm-36.205 10.831c3.026 0 5.365.928 7.015 2.785 1.65 1.857 2.476 4.503 2.476 7.943v11.036c0 3.438-.826 6.086-2.476 7.943-1.65 1.857-3.989 2.785-7.015 2.785s-5.363-.928-7.013-2.785c-1.651-1.857-2.476-4.505-2.476-7.943V21.559c0-3.44.825-6.086 2.476-7.943 1.65-1.857 3.987-2.785 7.013-2.785m0-12.069c-3.988 0-7.547.655-10.675 1.96-3.13 1.305-5.777 3.198-7.943 5.674-2.166 2.475-3.834 5.466-5.003 8.973-1.17 3.507-1.753 7.427-1.753 11.759 0 4.333.583 8.252 1.753 11.76 1.169 3.507 2.837 6.48 5.003 8.922 2.166 2.44 4.813 4.315 7.943 5.622 3.128 1.305 6.687 1.96 10.675 1.96 3.989 0 7.547-.655 10.677-1.96 3.128-1.307 5.776-3.182 7.942-5.622 2.166-2.442 3.833-5.415 5.003-8.922 1.168-3.508 1.753-7.427 1.753-11.76 0-4.332-.585-8.252-1.753-11.759-1.17-3.507-2.837-6.498-5.003-8.973-2.166-2.476-4.814-4.369-7.942-5.674-3.13-1.305-6.688-1.96-10.677-1.96m-55.598 0c-5.226 0-9.628.843-13.203 2.528-3.577 1.684-6.774 4.074-9.593 7.168l8.974 9.078c1.925-2.133 4.057-3.817 6.395-5.055 2.337-1.238 4.985-1.856 7.943-1.856 3.025 0 5.122.464 6.292 1.392 1.169.928 1.754 2.182 1.754 3.765 0 2.543-1.823 4.057-5.467 4.539l-5.88.721c-12.171 1.512-18.257 7.083-18.257 16.711 0 2.613.498 5.003 1.495 7.169a15.988 15.988 0 0 0 4.229 5.57c1.822 1.547 4.023 2.75 6.602 3.61 2.579.859 5.483 1.29 8.716 1.29 2.819 0 5.313-.191 7.479-.568 2.166-.379 4.09-.928 5.776-1.65a22.176 22.176 0 0 0 4.642-2.682 49.55 49.55 0 0 0 4.177-3.559l-8.767-8.974a20.092 20.092 0 0 1-5.828 4.075c-2.166.996-4.384 1.495-6.654 1.495-2.614 0-4.47-.412-5.569-1.237-1.102-.826-1.651-1.926-1.651-3.301 0-1.444.395-2.563 1.186-3.353.79-.791 2.285-1.358 4.487-1.701l6.086-.826c11.896-1.583 17.845-7.014 17.845-16.298 0-2.614-.551-5.02-1.651-7.22-1.1-2.202-2.665-4.11-4.693-5.725-2.029-1.617-4.471-2.872-7.323-3.765-2.855-.893-6.035-1.341-9.542-1.341M-703.373 0c-5.296 0-9.301 1.341-12.017 4.023-2.717 2.682-4.074 6.602-4.074 11.759v26.51h-7.633v11.862h3.816c2.063 0 3.472.498 4.229 1.495.756.997 1.135 2.425 1.135 4.281v8.871h13.719V54.154h10.728V42.292h-10.728v-30.43h9.903V0Zm-58.175 9.387c2.543 0 4.727.545 6.55 1.637 1.821 1.091 2.733 2.866 2.733 5.324v6.345h-7.426c-5.983 0-8.975-2.013-8.975-6.039v-1.536c0-1.979.62-3.428 1.857-4.35 1.238-.922 2.992-1.381 5.261-1.381M-740.402 0c-2.752 0-5.038.859-6.86 2.579-1.823 1.718-2.975 4.023-3.455 6.911h-.619c-.826-3.507-2.648-6.173-5.467-7.994-2.821-1.822-6.292-2.734-10.418-2.734-5.433 0-9.593 1.44-12.482 4.318-2.888 2.878-4.332 6.684-4.332 11.414 0 5.69 2.079 9.922 6.241 12.699 4.16 2.775 9.815 4.164 16.968 4.164h8.561v3.405c0 2.612-.688 4.693-2.063 6.24-1.376 1.547-3.679 2.321-6.911 2.321-3.027 0-5.433-.655-7.22-1.96-1.789-1.307-3.267-2.785-4.436-4.435l-9.077 8.091c2.2 3.249 4.968 5.791 8.304 7.623 3.335 1.833 7.855 2.75 13.564 2.75 7.701 0 13.477-1.686 17.329-5.055 3.851-3.37 5.776-8.287 5.776-14.75V11.862h5.055V0Zm-130.485 54.154h14.751l5.261-21.868 3.713-16.504h.412l4.333 16.504 6.188 21.868h13.926l6.292-21.868 4.435-16.504h.413l3.713 16.504 5.261 21.868h14.132L-803.014 0h-15.988l-6.602 22.899-3.816 14.029h-.31l-3.713-14.029L-840.045 0h-15.679z" style="fill:#fff;fill-opacity:1;fill-rule:nonzero;stroke:none" transform="translate(1013.855 143.999)"/></g></svg>