<svg xmlns="http://www.w3.org/2000/svg" viewBox="0 0 1714.613 480"><defs><clipPath id="a" clipPathUnits="userSpaceOnUse"><path d="M0 360h1285.963V0H0Z"/></clipPath></defs><path d="m0 0 17.845 27.541L.206 54.153h17.33l10.109-17.019h.412l9.799 17.019h16.091L35.999 27.025 54.051 0H36.722L26.304 17.639h-.413L15.886 0Z" style="fill:#0f62fe;fill-opacity:1;fill-rule:nonzero;stroke:none" transform="matrix(1.33333 0 0 -1.33333 663.184 288.002)"/><g clip-path="url(#a)" transform="matrix(1.33333 0 0 -1.33333 0 480)"><path d="M0 0v10.484h2.537l2.499-4.776h.075l2.425 4.776h2.537V0h-1.94v4.477l.112 3.171h-.149L4.999 1.94 1.978 7.648h-.15l.111-3.171V0Zm-6.678 0v8.693h-3.209v1.791h8.544V8.693h-3.209V0Zm-36.82-21.236v-.826h18.979v.929c0 6.601-2.991 11.037-9.077 11.037s-9.902-4.436-9.902-11.14m-15.782-5.88c0 17.123 9.078 28.263 25.375 28.263 17.948 0 25.169-12.997 25.169-27.644v-4.539h-34.762v-.825c0-7.117 3.816-11.656 11.966-11.656 6.394 0 9.902 2.992 13.305 6.499l7.634-9.49c-4.848-5.57-12.791-8.974-22.693-8.974-16.608 0-25.994 11.037-25.994 28.366m-52.813 0c0 17.329 8.974 28.263 25.272 28.263 10.933 0 18.463-5.26 21.661-14.131l-12.378-5.364c-.929 4.126-3.92 7.427-9.283 7.427-6.19 0-9.387-4.436-9.387-11.244v-10.108c0-6.808 3.197-11.141 9.387-11.141 6.086 0 8.56 3.714 10.108 8.046l11.862-5.157c-3.61-10.315-11.346-14.957-21.97-14.957-16.298 0-25.272 11.037-25.272 28.366m-58.073-27.128V-.091h15.267v-9.18h.618c1.96 5.673 6.499 10.418 15.06 10.418 11.036 0 16.916-7.839 16.916-21.455v-33.936h-15.265v32.698c0 6.911-1.96 10.315-7.531 10.315-4.951 0-9.798-2.579-9.798-7.942v-35.071zm-30.53 16.401v6.395h-7.427c-5.88 0-8.975-2.166-8.975-6.086v-1.547c0-3.92 2.579-5.776 7.119-5.776 5.053 0 9.283 2.063 9.283 7.014m11.862-16.401c-5.468 0-9.387 3.713-10.315 9.49h-.62c-1.65-7.015-7.632-10.728-15.884-10.728-10.83 0-16.814 6.395-16.814 15.782 0 11.45 8.871 16.916 23.209 16.916h8.562v3.404c0 5.261-2.579 8.562-8.975 8.562-6.086 0-9.283-3.095-11.655-6.395l-9.077 8.045c4.332 6.396 10.521 10.315 21.867 10.315 15.266 0 23.105-7.014 23.105-19.805v-23.724h5.055v-11.862zm-101.499 0V-.091h15.267v-9.18h.618c1.96 5.673 6.499 10.418 15.06 10.418 11.037 0 16.916-7.839 16.916-21.455v-33.936h-15.265v32.698c0 6.911-1.96 10.315-7.531 10.315-4.951 0-9.798-2.579-9.798-7.942v-35.071zm-41.672 0V-.091h15.267V-11.85h.515c1.238 5.983 5.364 11.759 13.822 11.759h2.682v-14.234h-3.816c-8.871 0-13.203-1.96-13.203-8.252v-31.667zm-45.592 33.008v-.826h18.98v.929c0 6.601-2.991 11.037-9.077 11.037s-9.903-4.436-9.903-11.14m-15.781-5.88c0 17.123 9.076 28.263 25.374 28.263 17.948 0 25.169-12.997 25.169-27.644v-4.539h-34.762v-.825c0-7.117 3.817-11.656 11.966-11.656 6.395 0 9.902 2.992 13.306 6.499l7.633-9.49c-4.848-5.57-12.79-8.974-22.693-8.974-16.607 0-25.993 11.037-25.993 28.366m-39.713-27.128L-450.832-.091h15.06l6.705-21.867 5.053-19.599h.826l5.054 19.599 6.498 21.867h14.442l-17.743-54.153zm-37.443 21.558v11.037c0 6.808-3.508 10.728-9.49 10.728-5.983 0-9.49-3.92-9.49-10.728v-11.037c0-6.808 3.507-10.728 9.49-10.728 5.982 0 9.49 3.92 9.49 10.728m-34.865 5.57c0 17.432 9.49 28.263 25.375 28.263 15.884 0 25.375-10.831 25.375-28.263 0-17.432-9.491-28.366-25.375-28.366-15.885 0-25.375 10.934-25.375 28.366m-22.898 9.49v1.238c0 4.744-2.991 7.427-8.974 7.427-5.983 0-8.974-2.683-8.974-7.427v-1.238c0-4.745 2.991-7.427 8.974-7.427 5.983 0 8.974 2.682 8.974 7.427m-2.579-37.753h-18.566c-1.341-1.341-1.96-3.197-1.96-4.848 0-3.919 3.094-5.776 11.346-5.776h6.189c8.252 0 11.346 1.857 11.346 5.776 0 3.095-2.269 4.848-8.355 4.848m-6.602-20.733c-18.772 0-25.683 4.745-25.683 12.585 0 5.982 3.816 9.489 10.108 10.314v1.135c-5.157.929-7.839 4.848-7.839 9.49 0 5.673 5.054 8.561 10.109 9.593v.412c-6.499 2.992-9.696 8.458-9.696 15.473 0 10.933 7.632 18.257 23.208 18.257 3.404 0 6.499-.309 9.18-1.031v2.063c0 5.673 2.991 8.148 8.15 8.148h8.561V-1.019h-11.966v-.619c6.292-2.991 9.284-8.561 9.284-15.472 0-10.831-7.53-17.949-23.209-17.949-3.61 0-6.808.413-9.593 1.135-1.444-.928-2.372-2.475-2.372-4.332 0-2.579 1.856-4.126 6.499-4.126h15.677c13.204 0 18.877-5.776 18.877-15.782 0-11.449-7.22-17.948-29.295-17.948m-53.018 28.985v2.063c0 4.745 2.888 8.252 9.077 8.252s9.077-3.507 9.077-8.252v-2.063c0-4.745-2.888-8.252-9.077-8.252s-9.077 3.507-9.077 8.252m-119.034-7.117V-.091h15.266v-9.18h.618c1.96 5.673 6.5 10.418 15.061 10.418 11.037 0 16.916-7.839 16.916-21.455v-33.936h-15.266v32.698c0 6.911-1.96 10.315-7.53 10.315-4.951 0-9.799-2.579-9.799-7.942v-35.071zm-26.715 21.558v11.037c0 6.808-3.508 10.728-9.49 10.728-5.983 0-9.49-3.92-9.49-10.728v-11.037c0-6.808 3.507-10.728 9.49-10.728 5.982 0 9.49 3.92 9.49 10.728m-34.865 5.57c0 17.432 9.49 28.263 25.375 28.263 15.884 0 25.375-10.831 25.375-28.263 0-17.432-9.491-28.366-25.375-28.366-15.885 0-25.375 10.934-25.375 28.366m-53.02-18.67 8.974 9.077c3.817-4.229 8.459-6.911 14.338-6.911 5.983 0 8.046 1.96 8.046 5.158 0 2.682-1.651 4.023-5.467 4.538l-5.88.722c-12.275 1.548-18.257 6.911-18.257 16.711 0 10.418 8.148 17.638 21.043 17.638 11.346 0 16.606-3.094 22.073-8.458l-8.767-8.974c-3.404 3.404-7.943 5.57-12.481 5.57-5.158 0-7.221-1.857-7.221-4.539 0-2.888 1.238-4.435 5.673-5.054l6.086-.825c11.759-1.548 17.845-6.911 17.845-16.298 0-10.418-9.283-18.051-23.208-18.051-10.419 0-17.227 3.507-22.797 9.696m-16.091-8.458c-10.521 0-16.091 5.467-16.091 15.782v26.509h-7.633V-.091h3.817c4.126 0 5.363 2.063 5.363 5.777v8.871h13.719V-.091h10.728v-11.862h-10.728v-30.429h9.902v-11.862zm-48.891 16.401v6.395h-7.427c-5.88 0-8.974-2.166-8.974-6.086v-1.547c0-3.92 2.578-5.776 7.117-5.776 5.054 0 9.284 2.063 9.284 7.014m11.862-16.401c-5.467 0-9.387 3.713-10.315 9.49h-.619c-1.65-7.015-7.633-10.728-15.885-10.728-10.831 0-16.814 6.395-16.814 15.782 0 11.45 8.871 16.916 23.209 16.916h8.562v3.404c0 5.261-2.579 8.562-8.974 8.562-6.086 0-9.284-3.095-11.656-6.395l-9.077 8.045c4.332 6.396 10.521 10.315 21.867 10.315 15.266 0 23.105-7.014 23.105-19.805v-23.724h5.055v-11.862zM-1007.734-.091h14.75l5.26-21.867 3.714-16.504h.412l4.333 16.504 6.189 21.867h13.925l6.292-21.867 4.435-16.504h.413l3.713 16.504 5.261 21.867h14.132l-14.957-54.153h-15.989l-6.601 22.899-3.817 14.029h-.309l-3.713-14.029-6.602-22.899h-15.678z" style="fill:#000;fill-opacity:1;fill-rule:nonzero;stroke:none" transform="translate(1150.702 198.243)"/></g></svg>