<svg xmlns="http://www.w3.org/2000/svg" viewBox="0 0 1587.413 480"><defs><clipPath id="a" clipPathUnits="userSpaceOnUse"><path d="M0 360h1190.556V0H0Z"/></clipPath></defs><g clip-path="url(#a)" transform="matrix(1.33333 0 0 -1.33333 0 480)"><path d="M0 0h14.234L-6.602-62.509c-1.376-4.194-3.318-7.288-5.828-9.283-2.51-1.994-6.103-2.992-10.779-2.992h-9.489v11.863h10.212l1.856 5.982L-39.609 0h15.163l7.942-25.272 3.92-15.679h.618l4.024 15.679zm-75.504-54.154V0h15.267v-11.759h.515a16.773 16.773 0 0 0 1.445 4.384 13.372 13.372 0 0 0 2.733 3.765c1.135 1.099 2.491 1.976 4.074 2.63 1.581.653 3.438.98 5.571.98h2.681v-14.235h-3.816c-4.471 0-7.788-.585-9.954-1.753-2.166-1.17-3.249-3.337-3.249-6.499v-31.667zm-35.689 44.149c-3.094 0-5.519-1.016-7.272-3.043-1.754-2.03-2.631-4.729-2.631-8.098v-.825h18.98v.929c0 3.3-.739 5.964-2.218 7.994-1.479 2.027-3.765 3.043-6.859 3.043m.309-45.387c-4.126 0-7.805.671-11.037 2.012-3.232 1.341-5.967 3.231-8.2 5.673-2.235 2.44-3.92 5.415-5.055 8.922-1.135 3.508-1.701 7.428-1.701 11.76 0 4.263.549 8.131 1.65 11.604 1.099 3.472 2.734 6.447 4.9 8.922 2.166 2.476 4.83 4.384 7.994 5.726 3.162 1.34 6.772 2.011 10.83 2.011 4.47 0 8.304-.758 11.502-2.27 3.197-1.513 5.81-3.542 7.839-6.085 2.027-2.545 3.508-5.485 4.435-8.82.929-3.336 1.393-6.825 1.393-10.469v-4.539h-34.762v-.819c0-3.546.963-6.36 2.889-8.439 1.924-2.081 4.951-3.12 9.077-3.12 3.162 0 5.741.63 7.736 1.892a30.425 30.425 0 0 1 5.571 4.553l7.633-9.516c-2.409-2.826-5.554-5.033-9.439-6.619-3.886-1.586-8.304-2.379-13.255-2.379m-65.707 1.238L-194.332 0h15.06l6.705-21.868 5.053-19.598h.826l5.054 19.598L-155.136 0h14.442l-17.743-54.154zm-46.932 10.831c3.025 0 5.364.928 7.014 2.785 1.651 1.857 2.476 4.503 2.476 7.943v11.036c0 3.438-.825 6.086-2.476 7.943-1.65 1.857-3.989 2.785-7.014 2.785-3.027 0-5.364-.928-7.014-2.785-1.65-1.857-2.476-4.505-2.476-7.943v-11.036c0-3.44.826-6.086 2.476-7.943 1.65-1.857 3.987-2.785 7.014-2.785m0-12.069c-3.989 0-7.547.655-10.676 1.96-3.13 1.306-5.777 3.198-7.943 5.674-2.166 2.475-3.834 5.466-5.003 8.973-1.169 3.508-1.752 7.428-1.752 11.76s.583 8.252 1.752 11.759c1.169 3.507 2.837 6.48 5.003 8.922 2.166 2.44 4.813 4.315 7.943 5.622 3.129 1.305 6.687 1.96 10.676 1.96 3.988 0 7.546-.655 10.676-1.96 3.128-1.307 5.777-3.182 7.943-5.622 2.166-2.442 3.833-5.415 5.003-8.922 1.168-3.507 1.753-7.427 1.753-11.759 0-4.332-.585-8.252-1.753-11.76-1.17-3.507-2.837-6.498-5.003-8.973-2.166-2.476-4.815-4.368-7.943-5.674-3.13-1.305-6.688-1.96-10.676-1.96m-52.916 0c-4.059 0-7.669.671-10.832 2.012-3.164 1.341-5.811 3.231-7.942 5.673-2.133 2.44-3.749 5.415-4.848 8.922-1.101 3.508-1.65 7.428-1.65 11.76s.549 8.234 1.65 11.707c1.099 3.472 2.715 6.447 4.848 8.922 2.131 2.476 4.778 4.367 7.942 5.674 3.163 1.305 6.773 1.96 10.832 1.96 5.501 0 10.09-1.238 13.77-3.714 3.678-2.475 6.309-5.948 7.891-10.418l-12.378-5.364c-.482 2.064-1.48 3.817-2.991 5.261-1.514 1.444-3.611 2.166-6.292 2.166-3.095 0-5.434-1.015-7.015-3.043-1.582-2.029-2.372-4.762-2.372-8.2v-10.109c0-3.439.79-6.155 2.372-8.149 1.581-1.995 3.92-2.991 7.015-2.991 2.749 0 4.933.738 6.549 2.218 1.616 1.478 2.801 3.42 3.559 5.828l11.862-5.158c-1.789-5.157-4.556-8.94-8.303-11.346-3.749-2.407-8.304-3.611-13.667-3.611m-55.495 0c-5.227 0-9.628.843-13.204 2.528-3.576 1.684-6.773 4.074-9.592 7.169l8.974 9.077c1.924-2.132 4.057-3.817 6.395-5.055 2.338-1.238 4.985-1.856 7.943-1.856 3.024 0 5.122.464 6.292 1.392 1.168.929 1.753 2.182 1.753 3.765 0 2.543-1.822 4.057-5.467 4.539l-5.879.722c-12.172 1.511-18.258 7.082-18.258 16.71 0 2.613.498 5.003 1.496 7.169a15.988 15.988 0 0 0 4.229 5.57c1.821 1.547 4.023 2.75 6.602 3.61 2.579.86 5.483 1.29 8.716 1.29 2.819 0 5.312-.191 7.478-.568 2.167-.378 4.091-.928 5.776-1.65a22.133 22.133 0 0 0 4.643-2.682 49.55 49.55 0 0 0 4.177-3.559l-8.768-8.973a20.095 20.095 0 0 1-5.828 4.074c-2.166.996-4.384 1.495-6.652 1.495-2.615 0-4.472-.412-5.571-1.237-1.1-.826-1.65-1.926-1.65-3.301 0-1.444.394-2.563 1.185-3.353.79-.791 2.287-1.358 4.488-1.701l6.086-.825c11.896-1.583 17.844-7.015 17.844-16.298 0-2.615-.55-5.021-1.65-7.221-1.101-2.202-2.665-4.11-4.693-5.725-2.03-1.616-4.471-2.872-7.324-3.765-2.854-.892-6.034-1.341-9.541-1.341M-379.795 0h15.267v-54.154h-15.267zm7.633 5.776c-3.094 0-5.348.705-6.756 2.115-1.41 1.409-2.114 3.214-2.114 5.415v2.27c0 2.2.704 4.005 2.114 5.415 1.408 1.409 3.662 2.114 6.756 2.114 3.095 0 5.347-.705 6.757-2.114 1.408-1.41 2.114-3.215 2.114-5.415v-2.27c0-2.201-.706-4.006-2.114-5.415-1.41-1.41-3.662-2.115-6.757-2.115m-51.573-46.005c4.675 0 8.354 1.306 11.037 3.92 2.681 2.613 4.022 6.808 4.022 12.584v11.141c0 5.776-1.341 9.97-4.022 12.584-2.683 2.613-6.362 3.92-11.037 3.92h-11.451v-44.149zm-27.129 58.074h27.129c4.745 0 9.077-.758 12.997-2.269 3.919-1.514 7.254-3.765 10.005-6.757 2.75-2.991 4.881-6.74 6.395-11.243 1.512-4.505 2.27-9.748 2.27-15.73 0-5.983-.758-11.228-2.27-15.731-1.514-4.505-3.645-8.252-6.395-11.243-2.751-2.992-6.086-5.245-10.005-6.756-3.92-1.514-8.252-2.27-12.997-2.27h-27.129zm-84.067-71.999 17.846 27.541L-534.724 0h17.329l10.109-17.02h.412l9.8 17.02h16.092l-17.949-27.128 18.051-27.026h-17.329l-10.418 17.639h-.413l-10.005-17.639zm-56.215 0V0h15.266v-9.18h.619c.962 2.819 2.646 5.26 5.054 7.323 2.406 2.063 5.741 3.095 10.006 3.095 5.57 0 9.781-1.857 12.636-5.571 2.852-3.713 4.28-9.009 4.28-15.884v-33.937h-15.266v32.699c0 3.507-.552 6.102-1.65 7.788-1.101 1.684-3.061 2.527-5.88 2.527a14.07 14.07 0 0 1-3.61-.464 9.203 9.203 0 0 1-3.146-1.496 7.813 7.813 0 0 1-2.218-2.527c-.551-.998-.825-2.15-.825-3.456v-35.071zm-36.206 10.831c3.026 0 5.365.928 7.015 2.785 1.65 1.857 2.476 4.503 2.476 7.943v11.036c0 3.438-.826 6.086-2.476 7.943-1.65 1.857-3.989 2.785-7.015 2.785s-5.363-.928-7.013-2.785c-1.651-1.857-2.476-4.505-2.476-7.943v-11.036c0-3.44.825-6.086 2.476-7.943 1.65-1.857 3.987-2.785 7.013-2.785m0-12.069c-3.988 0-7.546.655-10.675 1.96-3.13 1.306-5.777 3.198-7.943 5.674-2.166 2.475-3.834 5.466-5.003 8.973-1.17 3.508-1.753 7.428-1.753 11.76s.583 8.252 1.753 11.759c1.169 3.507 2.837 6.48 5.003 8.922 2.166 2.44 4.813 4.315 7.943 5.622 3.129 1.305 6.687 1.96 10.675 1.96 3.989 0 7.547-.655 10.677-1.96 3.128-1.307 5.777-3.182 7.943-5.622 2.166-2.442 3.833-5.415 5.003-8.922 1.167-3.507 1.752-7.427 1.752-11.759 0-4.332-.585-8.252-1.752-11.76-1.17-3.507-2.837-6.498-5.003-8.973-2.166-2.476-4.815-4.368-7.943-5.674-3.13-1.305-6.688-1.96-10.677-1.96m-55.598 0c-5.226 0-9.628.843-13.203 2.528-3.576 1.684-6.774 4.074-9.593 7.169l8.974 9.077c1.925-2.132 4.057-3.817 6.396-5.055 2.336-1.238 4.984-1.856 7.942-1.856 3.025 0 5.122.464 6.292 1.392 1.169.929 1.754 2.182 1.754 3.765 0 2.543-1.823 4.057-5.467 4.539l-5.88.722c-12.171 1.511-18.257 7.082-18.257 16.71 0 2.613.498 5.003 1.495 7.169a16 16 0 0 0 4.229 5.57c1.822 1.547 4.023 2.75 6.602 3.61 2.579.86 5.483 1.29 8.716 1.29 2.819 0 5.313-.191 7.479-.568 2.166-.378 4.09-.928 5.776-1.65a22.15 22.15 0 0 0 4.642-2.682 49.55 49.55 0 0 0 4.177-3.559l-8.767-8.973a20.108 20.108 0 0 1-5.828 4.074c-2.166.996-4.384 1.495-6.654 1.495-2.614 0-4.47-.412-5.569-1.237-1.101-.826-1.651-1.926-1.651-3.301 0-1.444.395-2.563 1.186-3.353.79-.791 2.285-1.358 4.487-1.701l6.086-.825c11.896-1.583 17.845-7.015 17.845-16.298 0-2.615-.551-5.021-1.651-7.221-1.1-2.202-2.665-4.11-4.692-5.725-2.03-1.616-4.472-2.872-7.324-3.765-2.855-.892-6.034-1.341-9.542-1.341m-38.886 1.238c-5.297 0-9.302 1.341-12.018 4.023-2.717 2.682-4.074 6.602-4.074 11.759v26.51h-7.633V0h3.816c2.063 0 3.472.498 4.229 1.496.756.996 1.135 2.424 1.135 4.28v8.871h13.719V0h10.728v-11.862h-10.728v-30.43h9.903v-11.862zm-58.176 9.387c2.543 0 4.727.545 6.55 1.637 1.821 1.091 2.733 2.866 2.733 5.324v6.345h-7.426c-5.983 0-8.974-2.013-8.974-6.039v-1.536c0-1.979.619-3.428 1.857-4.35 1.237-.922 2.991-1.381 5.26-1.381m21.146-9.387c-2.752 0-5.038.859-6.86 2.579-1.823 1.718-2.975 4.023-3.455 6.911h-.619c-.825-3.507-2.648-6.173-5.467-7.994-2.82-1.821-6.292-2.734-10.418-2.734-5.433 0-9.593 1.44-12.482 4.318-2.888 2.879-4.332 6.684-4.332 11.414 0 5.69 2.08 9.922 6.241 12.699 4.16 2.775 9.815 4.165 16.968 4.165h8.561v3.404c0 2.612-.688 4.693-2.063 6.24-1.376 1.548-3.679 2.321-6.911 2.321-3.026 0-5.433-.654-7.22-1.96-1.789-1.307-3.267-2.785-4.435-4.435l-9.078 8.091c2.2 3.249 4.968 5.791 8.304 7.623 3.335 1.833 7.855 2.75 13.564 2.75 7.701 0 13.477-1.686 17.329-5.054 3.851-3.371 5.777-8.288 5.777-14.751v-23.725h5.054v-11.862ZM-889.351 0h14.751l5.261-21.868 3.713-16.504h.413l4.332 16.504L-854.692 0h13.925l6.292-21.868 4.435-16.504h.413l3.713 16.504L-820.653 0h14.132l-14.957-54.154h-15.988l-6.602 22.9-3.816 14.028h-.31l-3.713-14.028-6.602-22.9h-15.678z" style="fill:#fff;fill-opacity:1;fill-rule:nonzero;stroke:none" transform="translate(1032.318 198.152)"/></g></svg>