<?xml version="1.0" encoding="iso-8859-1"?>
<!-- Uploaded to: SVG Repo, www.svgrepo.com, Generator: SVG Repo Mixer Tools -->
<svg version="1.1" id="Layer_1" xmlns="http://www.w3.org/2000/svg" xmlns:xlink="http://www.w3.org/1999/xlink" 
	 viewBox="0 0 512 512" xml:space="preserve">
<g>
	<polygon style="fill:#2C3E50;" points="59.52,512 59.52,212.4 256,70.912 452.48,212.4 452.48,512 	"/>
	<polygon style="fill:#2C3E50;" points="256,0 20.016,168.784 20.016,207.184 256,38.4 491.984,207.184 491.984,168.784 	"/>
</g>
<g>
	
		<rect x="229.646" y="359.576" transform="matrix(-0.9339 -0.3575 0.3575 -0.9339 473.8831 822.7537)" style="fill:#F2B851;" width="166.686" height="16"/>
	
		<rect x="300.82" y="310.456" transform="matrix(-0.9339 -0.3575 0.3575 -0.9339 477.1832 759.7957)" style="fill:#F2B851;" width="16" height="50.671"/>
	
		<rect x="355.893" y="330.864" transform="matrix(-0.9339 -0.3575 0.3575 -0.9339 576.3909 818.9672)" style="fill:#F2B851;" width="16" height="50.687"/>
	<path style="fill:#F2B851;" d="M186.72,378.736c-7.2,0-14.4-1.312-21.328-3.968c-14.864-5.664-26.608-16.8-33.088-31.312
		c-6.496-14.512-6.96-30.672-1.264-45.52c5.664-14.832,16.8-26.56,31.328-33.024c14.464-6.464,30.656-6.928,45.536-1.2
		c14.864,5.664,26.608,16.8,33.088,31.296c6.496,14.512,6.96,30.672,1.264,45.52c-5.664,14.832-16.8,26.56-31.328,33.024
		C203.168,376.992,194.96,378.736,186.72,378.736z M186.56,275.728c-6.032,0-12.032,1.264-17.696,3.776
		c-10.608,4.736-18.736,13.312-22.896,24.144c-4.144,10.848-3.808,22.656,0.928,33.264c4.752,10.608,13.344,18.752,24.224,22.912
		c10.848,4.16,22.688,3.856,33.312-0.896c10.608-4.736,18.736-13.296,22.896-24.144c4.144-10.848,3.808-22.656-0.928-33.248
		c-4.752-10.608-13.344-18.752-24.224-22.912C197.104,276.704,191.824,275.728,186.56,275.728z"/>
</g>
</svg>