<?xml version="1.0" encoding="iso-8859-1"?>
<!-- Uploaded to: SVG Repo, www.svgrepo.com, Generator: SVG Repo Mixer Tools -->
<svg version="1.1" id="Layer_1" xmlns="http://www.w3.org/2000/svg" xmlns:xlink="http://www.w3.org/1999/xlink" 
	 viewBox="0 0 512 512" xml:space="preserve">
<rect x="319.346" y="165.547" style="fill:#FAEDD6;" width="15.706" height="39.787"/>
<polygon style="fill:#36C9A3;" points="399.967,261.484 256,157.523 112.033,261.484 112.033,277.581 151.82,277.581 
	151.82,261.484 256,189.511 360.18,261.484 360.18,277.581 399.967,277.581 "/>
<polyline style="fill:#FFFFFF;" points="152.037,485.401 152.037,265.597 255.998,189.511 359.959,265.597 359.959,485.401 "/>
<g>
	<path style="fill:#FA004B;" d="M292.51,259.739c-8.066-8.066-21.144-8.066-29.209,0l-7.302,7.302l-7.302-7.302
		c-8.066-8.066-21.144-8.066-29.209,0c-8.066,8.066-8.066,21.144,0,29.209l7.302,7.302l29.209,29.209l29.209-29.209l7.302-7.302
		C300.576,280.883,300.576,267.805,292.51,259.739z"/>
	<rect x="152.04" y="381.436" style="fill:#FA004B;" width="207.92" height="103.96"/>
</g>
<polyline style="fill:#FAEDD6;" points="224.065,484.894 224.065,357.156 287.935,357.156 287.935,484.894 "/>
<rect y="477.564" style="fill:#232323;" width="512" height="15.706"/>
<g>
	<polygon style="fill:#36C9A3;" points="503.624,429.401 496.294,429.401 496.294,413.696 480.589,413.696 480.589,429.401 
		463.836,429.401 463.836,413.696 448.131,413.696 448.131,429.401 432.425,429.401 432.425,413.696 416.72,413.696 416.72,429.401 
		398.92,429.401 398.92,413.696 383.215,413.696 383.215,429.401 375.885,429.401 375.885,445.107 383.215,445.107 383.215,469.189 
		398.92,469.189 398.92,445.107 416.72,445.107 416.72,469.189 432.425,469.189 432.425,445.107 448.131,445.107 448.131,469.189 
		463.836,469.189 463.836,445.107 480.589,445.107 480.589,469.189 496.294,469.189 496.294,445.107 503.624,445.107 	"/>
	<polygon style="fill:#36C9A3;" points="136.115,429.401 128.785,429.401 128.785,413.696 113.08,413.696 113.08,429.401 
		95.28,429.401 95.28,413.696 79.575,413.696 79.575,429.401 63.869,429.401 63.869,413.696 48.164,413.696 48.164,429.401 
		31.411,429.401 31.411,413.696 15.706,413.696 15.706,429.401 8.376,429.401 8.376,445.107 15.706,445.107 15.706,469.189 
		31.411,469.189 31.411,445.107 48.164,445.107 48.164,469.189 63.869,469.189 63.869,445.107 79.575,445.107 79.575,469.189 
		95.28,469.189 95.28,445.107 113.08,445.107 113.08,469.189 128.785,469.189 128.785,445.107 136.115,445.107 	"/>
</g>
<g>
	<rect x="239.771" y="421.024" style="fill:#232323;" width="15.706" height="15.706"/>
	<path style="fill:#232323;" d="M255.999,179.96l-111.814,77.41v212.037h15.706v-79.792h55.799v79.575h15.706V365.533h49.211V469.19
		h15.706v-79.575h55.795v79.792h15.706V257.369L255.999,179.96z M296.311,373.908v-24.082h-80.622v24.082h-55.799V265.599
		l96.108-66.537l96.108,66.537v108.309L296.311,373.908L296.311,373.908z"/>
	<polygon style="fill:#232323;" points="407.297,284.91 375.885,284.91 375.885,269.205 391.591,269.205 391.591,265.491 
		256,167.222 120.409,265.491 120.409,269.205 136.115,269.205 136.115,284.91 104.703,284.91 104.703,257.477 256,147.824 
		407.297,257.477 	"/>
	<path style="fill:#232323;" d="M255.999,336.565l-42.065-42.064c-5.385-5.386-8.35-12.543-8.35-20.159
		c0-7.615,2.965-14.773,8.35-20.158c5.385-5.385,12.543-8.35,20.158-8.35s14.774,2.965,20.158,8.351l1.75,1.75l1.749-1.75
		c11.115-11.114,29.2-11.115,40.316-0.001h-0.001c0.001,0,0.001,0,0.001,0c5.384,5.385,8.35,12.542,8.35,20.158
		c0,7.615-2.965,14.774-8.35,20.159L255.999,336.565z M234.091,261.542c-3.42,0-6.634,1.332-9.053,3.75
		c-2.418,2.418-3.749,5.632-3.749,9.052c0,3.42,1.332,6.635,3.75,9.053l30.959,30.958l30.959-30.959
		c2.419-2.419,3.75-5.633,3.75-9.053c0-3.42-1.332-6.634-3.749-9.052h-0.001c-4.99-4.993-13.113-4.991-18.103,0l-12.855,12.854
		l-12.855-12.854C240.725,262.874,237.51,261.542,234.091,261.542z"/>
	<rect x="312.016" y="158.218" style="fill:#232323;" width="32.458" height="15.706"/>
</g>
<g>
	<path style="fill:#FA004B;" d="M316.01,126.92c0.816-4.073,4.779-6.715,8.852-5.899l0.217,0.043
		c0.816-4.073,4.779-6.715,8.852-5.899c4.073,0.816,6.715,4.779,5.899,8.852l-2.953,14.751l-14.968-2.996
		C317.836,134.956,315.194,130.993,316.01,126.92z"/>
	<path style="fill:#FA004B;" d="M354.377,74.1c4.155-0.01,5.803,3.347,5.803,7.502v0.221c7.329-0.01,9.27,3.347,9.281,7.502
		c0.01,4.155-2.478,7.53-6.632,7.542l-14.608,0.04l-0.692-15.265C347.516,77.488,350.224,74.111,354.377,74.1z"/>
	<path style="fill:#FA004B;" d="M306.402,43.985c1.887-3.701,5.576-3.537,9.274-1.641l0.197,0.101
		c3.641-7.12,7.26-6.818,10.961-4.932c3.701,1.887,5.594,5.593,3.708,9.295l-6.62,12.992l-13.917-6.315
		C306.303,51.599,304.515,47.686,306.402,43.985z"/>
	<path style="fill:#FA004B;" d="M360.732,18.801c4.113-0.584,6.1,2.53,6.674,6.643l0.03,0.219c7.919-1.115,9.753,2.02,10.337,6.134
		c0.584,4.113-1.36,7.793-5.473,8.377l-14.435,2.053l-2.834-15.018C354.445,23.098,356.619,19.387,360.732,18.801z"/>
</g>
</svg>