<?xml version="1.0" encoding="iso-8859-1"?>
<!-- Uploaded to: SVG Repo, www.svgrepo.com, Generator: SVG Repo Mixer Tools -->
<svg fill="#000000" height="800px" width="800px" version="1.1" id="Layer_1" xmlns="http://www.w3.org/2000/svg" xmlns:xlink="http://www.w3.org/1999/xlink" 
	 viewBox="0 0 512 512" xml:space="preserve">
<g>
	<g>
		<path d="M255.999,0L136.962,112.035V56.857H94.949v94.722L3.528,237.621l28.794,30.594l20.615-19.402V512h406.128V248.814
			l20.615,19.402l28.793-30.594L255.999,0z M417.05,469.987H94.949V209.271L255.999,57.694L417.05,209.271V469.987z"/>
	</g>
</g>
<g>
	<g>
		<path d="M352.214,222.497c-24.753-24.753-65.028-24.754-89.782,0l-6.602,6.602l-6.602-6.602
			c-24.756-24.754-65.029-24.753-89.782,0c-25.37,25.37-24.669,65.114,0,89.782l96.384,96.385l96.384-96.385
			C376.883,287.61,377.584,247.867,352.214,222.497z M322.506,282.573l-66.676,66.676l-66.676-66.676
			c-8.373-8.373-8.373-21.995,0-30.369c8.081-8.081,21.483-8.884,30.369,0l36.309,36.311l36.309-36.311
			c8.884-8.884,22.288-8.081,30.369,0C330.88,260.577,330.88,274.199,322.506,282.573z"/>
	</g>
</g>
</svg>