<svg xmlns="http://www.w3.org/2000/svg" viewBox="0 0 48 48"><path fill="#8C4FFF" fill-rule="evenodd" d="M17.423 26.541c.348 0 .844-.091 1.486-.271v1.248a3.905 3.905 0 0 1-1.679.352c-2.12 0-3.179-1.34-3.179-4.019 0-1.325.276-2.339.828-3.043.553-.704 1.348-1.056 2.385-1.056.529 0 1.048.102 1.555.307v1.249c-.522-.16-.977-.239-1.363-.239-.597 0-1.037.209-1.316.63-.28.42-.42 1.084-.42 1.993v.261c0 .894.136 1.548.408 1.964.273.416.704.624 1.295.624Zm-6.143-2.622c0 .886-.121 1.543-.363 1.971-.242.426-.609.64-1.101.64h-.669v-5.439h.658c.507 0 .88.211 1.118.631.238.42.357 1.077.357 1.97v.227Zm-1.35-4.042H7.557v7.868h2.429c.955 0 1.68-.333 2.18-.999.5-.666.749-1.646.749-2.941 0-1.286-.254-2.263-.761-2.929-.506-.666-1.249-.999-2.224-.999Zm27 6.603a.99.99 0 0 0-.869.974v2.979l-2.329-.778 2.685-3.924.513.749Zm1.131 7.833h5.859v-5.859h-5.859v5.859Zm-4.367 5.139v-2.391a1 1 0 0 0-1-1h-3.345l3.209-4.69 3.503 1.169v2.773a1 1 0 0 0 1 1h.835a390.193 390.193 0 0 1-4.202 3.139Zm-7.859 4.468h5.859v-5.859h-5.859v5.859Zm-2.748-11.973a1 1 0 0 0 1-1v-2.402l6.498 2.168-3.659 5.348h-2.092a.979.979 0 0 0-.593.215l-5.324-4.329h4.17ZM4 29.948h18.087V17.974H4v11.974Zm20.241-18.303a.985.985 0 0 0 .593.215h2.092l3.659 5.348-6.498 2.168v-2.402a1 1 0 0 0-1-1h-4.17l5.324-4.329Zm1.593-1.785h5.859V4h-5.859v5.86Zm12.062 1.747h-.835a1 1 0 0 0-1 1v2.774l-3.503 1.169-3.209-4.69h3.345a1 1 0 0 0 1-1V8.469a402.56 402.56 0 0 1 4.202 3.138Zm.165 7.86h5.859v-5.859h-5.859v5.859Zm-4.329-1.201 2.329-.778v2.979c0 .506.381.906.869.973l-.513.75-2.685-3.924Zm-9.645 3.217 7.672-2.559 3.446 5.036-3.446 5.037-7.672-2.56v-4.954Zm15.247-.016h5.586a1 1 0 0 0 1-1v-7.86a1 1 0 0 0-1-1h-3.742C38.557 9.56 34.9 6.87 33.694 5.986V3a1 1 0 0 0-1-1h-7.86a1 1 0 0 0-1 1v6.396l-8.089 6.578H3a1 1 0 0 0-1 1v13.973a1 1 0 0 0 1 1h12.745l8.089 6.576v6.397a1 1 0 0 0 1 1h7.86a1 1 0 0 0 1-1v-2.985c1.206-.884 4.863-3.574 7.484-5.622h3.742a1 1 0 0 0 1-1v-7.859a1 1 0 0 0-1-1h-5.586l-1.706-2.494 1.706-2.493Z"/></svg>