<svg xmlns="http://www.w3.org/2000/svg" viewBox="0 0 48 48"><path fill="#8C4FFF" fill-rule="evenodd" d="M21 16h14v-2H21v2Zm0-5h10V9H21v2Zm17 17v7h-3V21h-2v14h-3V24h-2v11h-2v2h16v-2h-2v-7h-2Zm-18.34 5.03a4.264 4.264 0 0 0-2.247-.641c-2.104 0-3.87 1.548-4.309 3.611h8.616c-.264-1.228-1.004-2.315-2.06-2.97Zm-4.326-4.84c0 1.146.933 2.08 2.079 2.08a2.08 2.08 0 0 0 0-4.159 2.081 2.081 0 0 0-2.079 2.079Zm6.158 0c0 1.137-.47 2.165-1.223 2.906.149.076.301.145.444.234 1.921 1.19 3.113 3.362 3.113 5.67a1 1 0 0 1-1 1H12a1 1 0 0 1-1-1c0-2.585 1.45-4.822 3.552-5.908a4.069 4.069 0 0 1-1.218-2.902 4.084 4.084 0 0 1 4.079-4.079 4.084 4.084 0 0 1 4.079 4.079ZM6.334 23.731c0 1.147.933 2.08 2.079 2.08a2.081 2.081 0 0 0 2.079-2.08 2.081 2.081 0 0 0-2.079-2.079 2.082 2.082 0 0 0-2.079 2.079ZM10 34H3a1 1 0 0 1-1-1c0-2.726 1.609-5.071 3.899-6.081-.946-.748-1.565-1.891-1.565-3.188a4.084 4.084 0 0 1 4.079-4.079 4.084 4.084 0 0 1 4.079 4.079c0 1.296-.619 2.44-1.564 3.187.27.119.532.256.785.412l-1.053 1.7a4.264 4.264 0 0 0-2.247-.641c-2.104 0-3.87 1.548-4.309 3.611H10v2Zm28-24h4.586L38 5.414V10Zm8 1v29c0 1.122-.879 2-2 2H18v-2h26V12h-7a1 1 0 0 1-1-1V4H18.037L18 22h-2V4c0-1.103.914-2 2.037-2H37c.266 0 .52.105.707.293l8 8A.997.997 0 0 1 46 11ZM12 40h-2v4c0 1.103.914 2 2.037 2h25.926v-2H12v-4Zm0-22h-2V7c0-1.103.914-2 2.037-2H14v2h-1.963L12 18Z"/></svg>