<svg xmlns="http://www.w3.org/2000/svg" viewBox="0 0 48 48"><path fill="#8C4FFF" fill-rule="evenodd" d="M36.868 33a3.7 3.7 0 0 0-3.696-3.696A3.7 3.7 0 0 0 29.476 33a3.7 3.7 0 0 0 3.696 3.696A3.7 3.7 0 0 0 36.868 33Zm2 0a5.703 5.703 0 0 1-5.696 5.696A5.702 5.702 0 0 1 27.476 33a5.702 5.702 0 0 1 5.696-5.696A5.703 5.703 0 0 1 38.868 33Zm5.304-1.327-.936.054a1.026 1.026 0 0 1-1.032-.778 9.18 9.18 0 0 0-1.196-2.884 1 1 0 0 1 .179-1.28l.701-.625-1.876-1.876-.628.704c-.328.365-.869.44-1.281.179a9.154 9.154 0 0 0-2.881-1.194 1 1 0 0 1-.777-1.032l.053-.941h-2.652l.053.939a.999.999 0 0 1-.777 1.033 9.16 9.16 0 0 0-2.884 1.194 1 1 0 0 1-1.28-.18l-.626-.702-1.876 1.876.702.626c.365.326.441.868.18 1.281a9.166 9.166 0 0 0-1.198 2.883c-.109.476-.579.8-1.032.777l-.936-.054v2.653l.933-.053c.464-.018.926.302 1.033.78a9.147 9.147 0 0 0 1.194 2.887 1 1 0 0 1-.181 1.28l-.695.62 1.876 1.876.621-.696a.997.997 0 0 1 1.28-.18 9.16 9.16 0 0 0 2.889 1.198 1 1 0 0 1 .777 1.033l-.052.929h2.651l-.053-.928a.998.998 0 0 1 .777-1.032 9.207 9.207 0 0 0 2.891-1.198 1 1 0 0 1 1.28.18l.62.694 1.875-1.876-.698-.622a1 1 0 0 1-.179-1.28 9.198 9.198 0 0 0 1.194-2.886 1.02 1.02 0 0 1 1.032-.779l.935.053v-2.653Zm1.686-1.785c.2.189.314.452.314.727v4.77a1.001 1.001 0 0 1-1.057.998l-1.178-.067a11.212 11.212 0 0 1-.807 1.952l.88.785a1.002 1.002 0 0 1 .041 1.453l-3.373 3.373a.998.998 0 0 1-1.454-.042l-.781-.876c-.625.331-1.278.602-1.955.81l.067 1.171A1.003 1.003 0 0 1 35.556 46h-4.769a1.001 1.001 0 0 1-.998-1.058l.067-1.172a11.175 11.175 0 0 1-1.953-.811l-.784.878a1 1 0 0 1-1.453.042l-3.373-3.373a.998.998 0 0 1 .042-1.454l.878-.783a11.086 11.086 0 0 1-.808-1.953l-1.177.067a1 1 0 0 1-1.056-.998v-4.77a1 1 0 0 1 1.056-.999l1.182.068c.207-.674.478-1.325.809-1.948l-.884-.788a1 1 0 0 1-.042-1.453l3.373-3.373a1.002 1.002 0 0 1 1.453.041l.789.884c.622-.33 1.273-.6 1.948-.807l-.067-1.183A.998.998 0 0 1 30.787 20h4.769a1 1 0 0 1 .999 1.056l-.067 1.186c.673.207 1.323.477 1.945.806l.791-.885c.184-.205.443-.326.718-.334a.969.969 0 0 1 .736.293l3.373 3.373a1.002 1.002 0 0 1-.041 1.453l-.883.787c.331.623.6 1.275.808 1.949l1.18-.068c.273-.011.544.083.743.272ZM7 44h12v2H7c-2.757 0-5-2.243-5-5V7c0-2.757 2.243-5 5-5h34c2.757 0 5 2.243 5 5v13h-2V7c0-1.654-1.346-3-3-3H7C5.346 4 4 5.346 4 7v34c0 1.654 1.346 3 3 3Z"/></svg>