<svg xmlns="http://www.w3.org/2000/svg" viewBox="0 0 48 48"><path fill="#8C4FFF" fill-rule="evenodd" d="M27 32h6v-2h-6v2Zm0-4h6v-2h-6v2Zm0-4h6v-2h-6v2Zm0-4h6v-2h-6v2Zm-5 12h3v-2h-3v2Zm0-4h3v-2h-3v2Zm0-4h3v-2h-3v2Zm0-4h3v-2h-3v2Zm-2 14h15V16H20v18Zm16-20H19a1 1 0 0 0-1 1v20a1 1 0 0 0 1 1h17a1 1 0 0 0 1-1V15a1 1 0 0 0-1-1Zm0 28h2v3a1 1 0 0 1-1 1H8a1 1 0 0 1-1-1V7a1 1 0 0 1 1-1h3v2H9v36h27v-2Zm-21-4V4h17v7a1 1 0 0 0 1 1h7v26H15ZM34 5.415 38.586 10H34V5.415ZM41.991 11a.995.995 0 0 0-.284-.707l-8-8A.99.99 0 0 0 33 2.01V2H14a1 1 0 0 0-1 1v36a1 1 0 0 0 1 1h27a1 1 0 0 0 1-1V11h-.009Z"/></svg>