<svg xmlns="http://www.w3.org/2000/svg" viewBox="0 0 48 48"><path fill="#8C4FFF" fill-rule="evenodd" d="M21 32h6v-2h-6v2Zm-5 2h16v-6H16v6Zm17-8H15a1 1 0 0 0-1 1v8a1 1 0 0 0 1 1h18a1 1 0 0 0 1-1v-8a1 1 0 0 0-1-1ZM11 12h6v-2h-6v2Zm14-2h6V8h-6v2ZM4 44h40V16H4v28ZM22 4h12v5a1 1 0 0 0 1 1h5v4H22V4Zm14 1.261L38.645 8H36V5.261ZM45 14h-3V9c0-.259-.101-.508-.28-.695l-5.793-6a1.001 1.001 0 0 0-.72-.305H21a1 1 0 0 0-1 1v11H8V7h10V5H7a1 1 0 0 0-1 1v8H3a1 1 0 0 0-1 1v30a1 1 0 0 0 1 1h42a1 1 0 0 0 1-1V15a1 1 0 0 0-1-1Z"/></svg>