<svg xmlns="http://www.w3.org/2000/svg" viewBox="0 0 48 48"><path fill="#8C4FFF" fill-rule="evenodd" d="M14 34.007h20v-20H14v20Zm21-22a1 1 0 0 1 1 1v22a1 1 0 0 1-1 1H13a1 1 0 0 1-1-1v-22a1 1 0 0 1 1-1h22Zm-9.207 17.707 1.414-1.414-4.293-4.293 4.293-4.293-1.414-1.414-5 5a.999.999 0 0 0 0 1.414l5 5ZM7.707 10.3 5.414 8.007H43v-2H5.414l2.293-2.293L6.293 2.3l-4 4a.999.999 0 0 0 0 1.414l4 4L7.707 10.3Zm38 31.414-4 4-1.414-1.414 2.293-2.293H5v-2h37.586l-2.293-2.293 1.414-1.414 4 4a.999.999 0 0 1 0 1.414Z"/></svg>