<?xml version="1.0" encoding="utf-8"?>
<!-- Generator: Adobe Illustrator 27.3.1, SVG Export Plug-In . SVG Version: 6.00 Build 0)  -->
<svg version="1.1" id="Icons" xmlns="http://www.w3.org/2000/svg" xmlns:xlink="http://www.w3.org/1999/xlink" x="0px" y="0px"
	 viewBox="0 0 500 500" style="enable-background:new 0 0 500 500;" xml:space="preserve">
<style type="text/css">
	.st0{fill:none;stroke:#4B00AA;stroke-width:7.8626;stroke-linecap:round;stroke-linejoin:round;}
	.st1{fill:none;stroke:#4B00AA;stroke-width:7.8626;stroke-linecap:round;stroke-linejoin:round;stroke-dasharray:0,0,0,0,0,0;}
	.st2{fill:#D7D7D7;stroke:#757575;stroke-width:7.8626;stroke-linecap:round;stroke-linejoin:round;}
	.st3{fill:#FFFFFF;}
	.st4{fill:#C6BEFE;}
	.st5{fill:none;stroke:#7855FA;stroke-width:7.8626;stroke-linecap:round;stroke-linejoin:round;}
	.st6{fill:none;}
</style>
<g>
	<g>
		<line class="st0" x1="192.3" y1="363.1" x2="192.3" y2="363.1"/>
		<line class="st1" x1="180.8" y1="386.6" x2="163.6" y2="421.8"/>
		<line class="st0" x1="157.8" y1="433.5" x2="157.8" y2="433.5"/>
	</g>
	<g>
		<line class="st0" x1="158.7" y1="155.1" x2="158.7" y2="155.1"/>
		<line class="st1" x1="174.5" y1="167.1" x2="198.3" y2="185.1"/>
		<line class="st0" x1="206.2" y1="191" x2="206.2" y2="191"/>
	</g>
	<g>
		<line class="st0" x1="136.7" y1="305.3" x2="136.7" y2="305.3"/>
		<line class="st1" x1="115.2" y1="317.7" x2="104.5" y2="323.9"/>
		<line class="st0" x1="93.7" y1="330.1" x2="93.7" y2="330.1"/>
	</g>
	<circle class="st2" cx="78.8" cy="338.8" r="17.3"/>
	<g>
		<line class="st0" x1="298.9" y1="162.2" x2="298.9" y2="162.2"/>
		<line class="st1" x1="308.9" y1="143" x2="333.8" y2="94.9"/>
		<line class="st0" x1="338.8" y1="85.3" x2="338.8" y2="85.3"/>
	</g>
	<g>
		<line class="st0" x1="356.3" y1="178.5" x2="356.3" y2="178.5"/>
		<line class="st1" x1="372.9" y1="168.9" x2="397.9" y2="154.5"/>
		<line class="st0" x1="406.3" y1="149.7" x2="406.3" y2="149.7"/>
	</g>
	<g>
		<line class="st0" x1="336.6" y1="289.6" x2="336.6" y2="289.6"/>
		<line class="st1" x1="351.8" y1="301.6" x2="374.6" y2="319.6"/>
		<line class="st0" x1="382.2" y1="325.6" x2="382.2" y2="325.6"/>
	</g>
	<g>
		<line class="st0" x1="261.8" y1="144.8" x2="261.8" y2="144.8"/>
		<line class="st1" x1="261.8" y1="121.8" x2="261.8" y2="64.4"/>
		<line class="st0" x1="261.8" y1="52.9" x2="261.8" y2="52.9"/>
	</g>
	<g>
		<line class="st0" x1="261.8" y1="332.9" x2="261.8" y2="332.9"/>
		<line class="st1" x1="261.8" y1="355.7" x2="261.8" y2="435.7"/>
		<line class="st0" x1="261.8" y1="447.2" x2="261.8" y2="447.2"/>
	</g>
	<circle class="st2" cx="261.8" cy="464.5" r="17.3"/>
	<g>
		<path class="st3" d="M381.5,193.1L381.5,193.1l-45.2-26.1l0,0c-5.3-3-12.2-2.8-19.7,1.6l-3.3,1.9l-38.7-22.4l0,0
			c-8.8-5.1-20.3-4.6-32.9,2.6c-26.2,15.1-47.8,54.4-50.1,90L167,255.2c-16.7,9.6-30.1,35.4-30.1,57.6l0,0
			c0,12.2,4.1,20.7,10.5,24.4l0,0l45.2,26.1l0,0c5.3,3,12.2,2.8,19.7-1.6l149.7-86.4c16.7-9.6,30.1-35.4,30.1-57.6l0,0
			c0-12.2-4.1-20.7-10.5-24.4l0,0L381.5,193.1z"/>
		<path class="st4" d="M361.8,194.7L337,209.1c-2.2-32.9-23.8-47.3-50.1-32.1s-47.8,54.4-50.1,90l-24.8,14.3
			c-16.7,9.6-30.1,35.4-30.1,57.6c0,22.2,13.5,32.4,30.1,22.8l149.7-86.4c16.7-9.6,30.1-35.4,30.1-57.6l0,0
			C391.9,195.3,378.5,185.1,361.8,194.7L361.8,194.7L361.8,194.7z"/>
		<path class="st5" d="M361.8,194.7L337,209.1c-2.2-32.9-23.8-47.3-50.1-32.1s-47.8,54.4-50.1,90l-24.8,14.3
			c-16.7,9.6-30.1,35.4-30.1,57.6"/>
		<path class="st0" d="M381.5,193.1L381.5,193.1l-45.2-26.1l0,0c-5.3-3-12.2-2.8-19.7,1.6l-3.3,1.9l-38.7-22.4l0,0
			c-8.8-5.1-20.3-4.6-32.9,2.6c-26.2,15.1-47.8,54.4-50.1,90L167,255.2c-16.7,9.6-30.1,35.4-30.1,57.6l0,0
			c0,12.2,4.1,20.7,10.5,24.4l0,0l45.2,26.1l0,0c5.3,3,12.2,2.8,19.7-1.6l149.7-86.4c16.7-9.6,30.1-35.4,30.1-57.6l0,0
			c0-12.2-4.1-20.7-10.5-24.4l0,0L381.5,193.1z"/>
	</g>
	<circle class="st2" cx="261.8" cy="35.6" r="17.3"/>
	<circle class="st2" cx="346.8" cy="70" r="17.3"/>
	<circle class="st2" cx="421.3" cy="141" r="17.3"/>
	<circle class="st2" cx="143.8" cy="146.5" r="17.3"/>
	<circle class="st2" cx="150.1" cy="449" r="17.3"/>
	<circle class="st2" cx="396" cy="336" r="17.3"/>
	<rect x="14.3" y="14.3" class="st6" width="471.4" height="471.4"/>
</g>
</svg>
