<?xml version="1.0" encoding="utf-8"?>
<!-- Generator: Adobe Illustrator 27.3.1, SVG Export Plug-In . SVG Version: 6.00 Build 0)  -->
<svg version="1.1" id="Icons" xmlns="http://www.w3.org/2000/svg" xmlns:xlink="http://www.w3.org/1999/xlink" x="0px" y="0px"
	 viewBox="0 0 500 500" style="enable-background:new 0 0 500 500;" xml:space="preserve">
<style type="text/css">
	.st0{fill:none;stroke:#4B00AA;stroke-width:8.027;stroke-linecap:round;stroke-linejoin:round;}
	.st1{fill:none;stroke:#4B00AA;stroke-width:8.027;stroke-linecap:round;stroke-linejoin:round;stroke-dasharray:0,0,0,0,0,0;}
	.st2{fill:none;stroke:#7855FA;stroke-width:8.027;stroke-linecap:round;stroke-linejoin:round;}
	.st3{fill:#FFFFFF;}
	.st4{fill:none;stroke:#131313;stroke-width:8.027;stroke-linecap:round;stroke-linejoin:round;}
	.st5{fill:#757575;stroke:#131313;stroke-width:8.027;stroke-linecap:round;stroke-linejoin:round;}
	.st6{fill:#D7D7D7;}
	.st7{fill:none;}
</style>
<g>
	<g>
		<line class="st0" x1="250" y1="267.7" x2="250" y2="267.7"/>
		<line class="st1" x1="269.4" y1="278.8" x2="337.2" y2="318"/>
		<line class="st0" x1="346.9" y1="323.6" x2="346.9" y2="323.6"/>
	</g>
	<g>
		<line class="st0" x1="250" y1="414.7" x2="250" y2="414.7"/>
		<line class="st1" x1="269.4" y1="425.9" x2="337.2" y2="465"/>
		<line class="st0" x1="346.9" y1="470.6" x2="346.9" y2="470.6"/>
	</g>
	<g>
		<line class="st0" x1="359.4" y1="204.5" x2="359.4" y2="204.5"/>
		<line class="st1" x1="378.8" y1="215.7" x2="446.6" y2="254.9"/>
		<line class="st0" x1="456.3" y1="260.4" x2="456.3" y2="260.4"/>
	</g>
	<g>
		<line class="st0" x1="250" y1="267.7" x2="250" y2="267.7"/>
		<line class="st1" x1="230.6" y1="278.8" x2="162.8" y2="318"/>
		<line class="st0" x1="153.1" y1="323.6" x2="153.1" y2="323.6"/>
	</g>
	<g>
		<line class="st0" x1="250" y1="414.7" x2="250" y2="414.7"/>
		<line class="st1" x1="230.6" y1="425.9" x2="162.8" y2="465"/>
		<line class="st0" x1="153.1" y1="470.6" x2="153.1" y2="470.6"/>
	</g>
	<g>
		<line class="st0" x1="140.6" y1="204.5" x2="140.6" y2="204.5"/>
		<line class="st1" x1="121.2" y1="215.7" x2="53.4" y2="254.9"/>
		<line class="st0" x1="43.7" y1="260.4" x2="43.7" y2="260.4"/>
	</g>
	<g>
		<line class="st0" x1="359.4" y1="92.6" x2="359.4" y2="92.6"/>
		<line class="st1" x1="359.4" y1="115" x2="359.4" y2="193.3"/>
		<line class="st0" x1="359.4" y1="204.5" x2="359.4" y2="204.5"/>
	</g>
	<g>
		<line class="st0" x1="250" y1="155.7" x2="250" y2="155.7"/>
		<line class="st1" x1="250" y1="178.1" x2="250" y2="256.5"/>
		<line class="st0" x1="250" y1="267.7" x2="250" y2="267.7"/>
	</g>
	<g>
		<line class="st0" x1="140.6" y1="92.6" x2="140.6" y2="92.6"/>
		<line class="st1" x1="140.6" y1="115" x2="140.6" y2="193.3"/>
		<line class="st0" x1="140.6" y1="204.5" x2="140.6" y2="204.5"/>
	</g>
	<g>
		<polygon class="st2" points="250,267.7 140.6,204.5 250,141.3 359.4,204.5 		"/>
		<polygon class="st2" points="250,414.7 250,267.7 359.4,204.5 359.4,351.5 		"/>
		<polygon class="st2" points="250,414.7 250,267.7 140.6,204.5 140.6,351.5 		"/>
	</g>
	<polygon class="st3" points="250,155.7 140.6,92.6 250,29.5 359.4,92.6 	"/>
	<polygon class="st4" points="250,155.7 140.6,92.6 250,29.5 359.4,92.6 	"/>
	<polygon class="st5" points="346.9,470.6 346.9,323.6 456.3,260.4 456.3,407.4 	"/>
	<polygon class="st6" points="153.1,470.6 153.1,323.6 43.7,260.4 43.7,407.4 	"/>
	<polygon class="st4" points="153.1,470.6 153.1,323.6 43.7,260.4 43.7,407.4 	"/>
	<rect x="9.4" y="9.4" class="st7" width="481.3" height="481.3"/>
	<rect x="9.4" y="9.4" class="st7" width="481.3" height="481.3"/>
</g>
</svg>
