<svg xmlns="http://www.w3.org/2000/svg" viewBox="0 0 48 48"><path fill="#8C4FFF" fill-rule="evenodd" d="M13.626 35.92v-2.837l1.774 1.419-1.774 1.419Zm-.375-5.7a1.001 1.001 0 0 0-1.625.781v7a1.001 1.001 0 0 0 1.625.782l4.374-3.5a1 1 0 0 0 0-1.562l-4.374-3.5Zm24-3.383v-3.922l1.962 1.96-1.962 1.962Zm4.083-2.668-4.376-4.375a1 1 0 0 0-1.706.707v3.375h-7.627v-9.5a1 1 0 0 0-1-1h-7.694v2h6.694v8.5H18.75v2h6.875v8.5h-6.694v2h7.694a1 1 0 0 0 1-1v-9.5h7.627v3.376a1 1 0 0 0 1.706.707l4.376-4.376a.999.999 0 0 0 0-1.414Zm-27.709 2.127v-2.84l1.774 1.42-1.773 1.42Zm-.374-5.701a1 1 0 0 0-1.625.78v7.002a1.001 1.001 0 0 0 1.625.78l4.374-3.5a1 1 0 0 0 0-1.562l-4.374-3.5Zm.375-4.8v-2.838l1.774 1.419-1.774 1.419Zm-.375-5.7a1.001 1.001 0 0 0-1.625.781v7a1.001 1.001 0 0 0 1.625.78l4.374-3.5a1 1 0 0 0 0-1.561l-4.374-3.5ZM24 44.003C12.971 44.003 3.998 35.03 3.998 24 4 12.973 12.973 4 24.002 4c11.028 0 20.001 8.973 20.001 20 0 11.03-8.973 20.003-20.002 20.003ZM24 2C11.867 2 1.998 11.869 1.998 24c0 12.133 9.87 22.003 22.002 22.003 12.131 0 22.001-9.87 22.001-22.002S36.133 2 24 2Z"/></svg>