<svg xmlns="http://www.w3.org/2000/svg" xmlns:xlink="http://www.w3.org/1999/xlink" fill="#fff" fill-rule="evenodd" stroke="#000" stroke-linecap="round" stroke-linejoin="round" viewBox="0 0 85 85"><use xlink:href="#a" x="2.5" y="2.5"/><symbol id="a" overflow="visible"><g stroke="none"><path fill="#9d5025" d="M0 41.579C0 20.293 17.84 3.157 40 3.157s40 17.136 40 38.422S62.16 80 40 80 0 62.864 0 41.579z"/><path fill="#f58536" d="M0 38.422C0 17.136 17.84 0 40 0s40 17.136 40 38.422-17.84 38.422-40 38.422S0 59.707 0 38.422z"/><path d="m40 66.97-.631-.215c-4.733-1.9-8.915-4.877-12.185-8.674a42.33 42.33 0 0 1-8.216-13.561 62.234 62.234 0 0 1-3.667-22.046v-1.818h1.893c1.709 0 4.89-.543 6.152-1.755a9.056 9.056 0 0 0 2.195-5.013l.092-1.174 1.144-.417A43.608 43.608 0 0 1 40 9.874a46.06 46.06 0 0 1 13.224 2.412l1.17.417.092 1.187a8.937 8.937 0 0 0 2.143 4.962c1.183 1.136 4.666 1.616 6.165 1.679l1.853.076v1.78a62.533 62.533 0 0 1-3.615 22.096 42.401 42.401 0 0 1-8.163 13.586c-3.267 3.803-7.45 6.784-12.185 8.687zM19.244 24.192c.289 12.98 3.944 23.775 10.7 31.288A29.953 29.953 0 0 0 40 63.056a29.917 29.917 0 0 0 10.056-7.576c6.73-7.576 10.411-18.359 10.7-31.389-2.024-.265-5.126-.934-6.862-2.588a11.78 11.78 0 0 1-3.063-6.048A40.73 40.73 0 0 0 40 13.586a38.87 38.87 0 0 0-10.818 1.831 11.774 11.774 0 0 1-3.036 6.086 12.606 12.606 0 0 1-6.901 2.689z"/><path d="M51.922 36.655c-2.366 2.273-9.583 7.109-12.33 9.76v-7.576H7.742v-4.533h31.784v-7.462c2.616 2.513 9.832 7.349 12.396 9.811z"/></g></symbol></svg>