<svg xmlns="http://www.w3.org/2000/svg" xmlns:xlink="http://www.w3.org/1999/xlink" fill="#fff" fill-rule="evenodd" stroke="#000" stroke-linecap="round" stroke-linejoin="round" viewBox="0 0 74.375 85"><style>.B{stroke:none}.C{fill:#9d5025}.D{fill:#f58536}</style><use xlink:href="#A" x="2.188" y="2.5"/><symbol id="A" overflow="visible"><path fill="#fbbf93" d="M24.457 46.8 8.406 67.258 0 46.839l15.332-.888 9.125.849zm20.922 0 16.215 20.576 8.241-20.517-15.167-.907-9.289.849z" class="B"/><path fill="#6b3a19" d="M24.457 33.141 8.406 12.624 0 33.161l15.465.878 8.992-.898zm20.922 0 16.215-20.517L70 33.161l-15.332.888-9.289-.907z" class="B"/><path d="M45.379 33.141 61.595 32V12.624L45.38 16.605v16.536z" class="B C"/><path d="M70 33.161 61.594 32V12.624L70 16.614V33.16z" class="B D"/><path d="M45.379 46.8 61.595 48v19.376L45.38 63.337V46.8z" class="B C"/><path d="M69.835 46.859 61.594 48v19.376l8.241-3.912V46.859zM24.457 33.141 8.406 32V12.624l16.051 3.981v16.536z" class="B D"/><path d="M0 33.161 8.406 32V12.624L0 16.614V33.16z" class="B C"/><path d="M24.457 46.8 8.406 48v19.376l16.051-4.039V46.8z" class="B D"/><path d="M0 46.839 8.406 48v19.376L0 63.385V46.839z" class="B C"/><path fill="#fbbf93" d="M51.709 49.356 35 47.785l-16.873 1.551L35 80l16.709-30.644z" class="B"/><path fill="#6b3a19" d="M51.709 30.644 35 32.215l-16.873-1.551L35 0l16.709 30.644z" class="B"/><path d="M51.709 30.644 35 28.342V0l16.709 7.932v22.712z" class="B D"/><path d="M18.127 30.663 35 28.342V0L18.127 8.01v22.654z" class="B C"/><path d="M51.709 49.356 35 51.658V80l16.709-7.932V49.356z" class="B D"/><path d="M18.127 49.337 35 51.659V80l-16.873-8.01V49.337z" class="B C"/></symbol></svg>