<svg xmlns="http://www.w3.org/2000/svg" xmlns:xlink="http://www.w3.org/1999/xlink" fill="#fff" fill-rule="evenodd" stroke="#000" stroke-linecap="round" stroke-linejoin="round" viewBox="0 0 74.375 85"><use xlink:href="#a" x="2.188" y="2.5"/><symbol id="a" overflow="visible"><g stroke="none"><path fill="#6b3a19" d="m70 25.942-35.005 4.117L0 25.942 34.995 0 70 25.942z"/><path fill="#fbbf93" d="m70 54.058-35.005-4.117L0 54.058 34.995 80 70 54.058z"/><path fill="#f58536" d="M70 25.942 34.995 16V0L70 16.566v9.376zM49.782 46.605 70 44.683v-9.366l-20.218-1.912v13.2zM70 54.059 34.995 64v16L70 63.435v-9.376z"/><path fill="#9d5025" d="M0 25.942 34.995 16V0L0 16.566v9.376zm16.364 26.526L34.995 56l18.631-16-18.631-16-18.631 3.532v24.937z"/><path fill="#f58536" d="M53.626 52.468 34.995 56V24l18.631 3.532v24.937z"/><path fill="#9d5025" d="M20.208 46.605 0 44.683v-9.366l20.208-1.912v13.2zM0 54.059 34.995 64v16L0 63.435v-9.376z"/></g></symbol></svg>