<svg xmlns="http://www.w3.org/2000/svg" fill="#fff" stroke-linecap="round" stroke-linejoin="round" viewBox="0 0 64 64"><path fill="#11598d" d="m32.796 6.078-19.176 5.04v28.879s6.335 11.851 19.176 18.526V6.078z"/><path fill="#1b75bc" d="m32.691 7.907 18.594 4.88v27.96s-6.143 11.474-18.594 17.936V7.907z"/><path fill="#064976" d="m32.624 9.648 15.866 4.199v25.502c-1.48 2.409-6.814 10.359-15.866 15.659-9.051-5.3-14.386-13.25-15.866-15.659V13.847l15.866-4.199m0-3.648-19.376 5.094v29.184S19.649 52.255 32.624 59C45.599 52.22 52 40.278 52 40.278V11.094L32.624 6z"/><path fill="#f47920" d="m30.42 35.976-1.618 1.618c-1.136 1.136-3.029 1.136-4.164 0s-1.136-3.029 0-4.164l4.887-4.887c1.136-1.136 3.029-1.136 4.164 0l.034-.034a.976.976 0 0 0 1.377 0l.654-.654a.976.976 0 0 0 0-1.377 5.88 5.88 0 0 0-8.329 0l-4.887 4.887a5.88 5.88 0 1 0 8.329 8.329l3.097-3.097a7.81 7.81 0 0 1-3.545-.619z"/><path fill="#fbb040" d="M42.499 19.697a5.88 5.88 0 0 0-8.329 0l-3.097 3.097a8.367 8.367 0 0 1 3.545.585l1.618-1.618c1.136-1.136 3.029-1.136 4.164 0s1.136 3.029 0 4.164l-4.887 4.887c-1.136 1.136-3.029 1.136-4.164 0a.976.976 0 0 0-1.377 0l-.654.654a.976.976 0 0 0 0 1.377l-.034.034a5.88 5.88 0 0 0 8.329 0L42.5 27.99c2.306-2.237 2.306-5.988 0-8.294z"/></svg>