<svg xmlns="http://www.w3.org/2000/svg" xmlns:xlink="http://www.w3.org/1999/xlink" fill="#fff" fill-rule="evenodd" stroke="#000" stroke-linecap="round" stroke-linejoin="round" viewBox="0 0 85 85"><use xlink:href="#a" x="2.5" y="2.5"/><symbol id="a" overflow="visible"><g stroke="none"><path fill="#9d5025" d="M40.699 3.448c.35-.006.693.102.975.308 4.238 4.68 8.363 6.236 12.107 6.236 7.515 0 24.355 5.255 24.637 4.932v3.517c-.297.35-6.046 7.006-5.721 14.854.184 4.666 2.514 7.819 4.478 11.21.777 1.331 2.825 5.157 2.825 5.157v3.391a15.81 15.81 0 0 1-.339 3.209c-3.857 18.805-22.377 11.21-37.38 23.429a1.16 1.16 0 0 1-.721.308.667.667 0 0 1-.551-.308C31.912 68.804 3.857 77.884.381 56.262a23.45 23.45 0 0 1-.367-3.769v-3.447s2.034-4.526 2.67-5.605c1.526-2.704 3.179-5.227 3.362-9.346.311-6.866-5.41-14.013-5.651-14.363v-3.517c.297.294 19.156-6.67 26.954-6.67 3.899 0 8.292-1.401 12.714-5.801a1.02 1.02 0 0 1 .636-.294z"/><path fill="#f58536" d="M40.699.001c.35-.006.693.102.975.308 4.238 4.68 8.363 6.236 12.107 6.236 7.515 0 12.912-5.969 13.194-6.292l11.443 14.7c-.297.35-6.046 7.006-5.721 14.854.381 9.206 9.041 12.541 6.908 22.967-3.857 18.805-22.377 11.21-37.38 23.429a1.16 1.16 0 0 1-.721.308.667.667 0 0 1-.551-.308C31.856 65.315 3.8 74.395.325 52.773c-1.922-11.855 5.297-13.298 5.65-22.196.311-6.866-5.41-14.013-5.65-14.363L13.646.267a20.902 20.902 0 0 0 13.618 5.787c3.899 0 8.293-1.401 12.714-5.801a1.02 1.02 0 0 1 .72-.252z"/></g></symbol></svg>