<svg xmlns="http://www.w3.org/2000/svg" viewBox="0 0 80 80"><g fill="none" fill-rule="evenodd"><path fill="#C925D1" d="M0 0h80v80H0z"/><path fill="#FFF" d="M59.548 56.881a1.002 1.002 0 0 0-.284.879l1.254 7.401-6.548-3.486a1.004 1.004 0 0 0-.94 0l-6.547 3.486 1.253-7.401a1 1 0 0 0-.284-.879l-5.322-5.253 7.344-1.08a1 1 0 0 0 .753-.552l3.273-6.714 3.274 6.714a.997.997 0 0 0 .753.552l7.343 1.08-5.322 5.253Zm8.402-6.261a.998.998 0 0 0-.804-.678l-8.806-1.296-3.941-8.084c-.334-.688-1.463-.688-1.797 0l-3.942 8.084-8.805 1.296a.999.999 0 0 0-.557 1.701l6.379 6.296-1.507 8.894a1.001 1.001 0 0 0 1.456 1.049l7.874-4.191 7.874 4.191a.996.996 0 0 0 1.055-.071 1 1 0 0 0 .401-.978l-1.507-8.894 6.379-6.296a.996.996 0 0 0 .248-1.023ZM23.6 26.199C23.6 19.472 29.073 14 35.801 14 42.527 14 48 19.472 48 26.199 48 32.926 42.527 38.4 35.801 38.4c-6.728 0-12.201-5.474-12.201-12.201ZM35.763 41c3.927 0 7.775 1.117 11.13 3.231l.295.189 1.088-1.678-.318-.204a22.982 22.982 0 0 0-7.32-3.005C46.089 37.548 50 32.329 50 26.199 50 18.37 43.63 12 35.801 12 27.971 12 21.6 18.37 21.6 26.199c0 6.118 3.896 11.328 9.331 13.322C20.137 41.876 12 51.957 12 64a1 1 0 0 0 1 1h29v-2H14.021c.497-12.22 10.059-22 21.742-22Z"/></g></svg>