<svg xmlns="http://www.w3.org/2000/svg" viewBox="0 0 122 50"><g aria-label="UNIX" style="font-family:ArialMT;fill:#1d6434"><path d="M24.344.209h4.736v20.679q0 5.395-1.22 8.569-1.221 3.174-4.42 5.176-3.173 1.977-8.35 1.977-5.028 0-8.227-1.733-3.198-1.733-4.565-5.005Q.93 26.576.93 20.888V.209h4.736v20.654q0 4.663.854 6.885.88 2.197 2.979 3.394 2.124 1.196 5.176 1.196 5.224 0 7.446-2.368 2.222-2.368 2.222-9.107zM36.917 36V.209h4.858l18.8 28.1V.21h4.54V36h-4.858L41.458 7.875V36ZM73.88 36V.209h4.736V36ZM83.328 36l13.843-18.652L84.964.209h5.64l6.494 9.18q2.026 2.856 2.88 4.394 1.197-1.953 2.833-4.077L110.013.21h5.151l-12.573 16.87L116.14 36h-5.86l-9.009-12.769q-.756-1.098-1.562-2.392-1.196 1.953-1.709 2.685L89.017 36Z"/></g><path d="M117.956 3.629q.902 0 1.761.465.86.46 1.339 1.324.479.859.479 1.794 0 .925-.475 1.78-.47.854-1.324 1.329-.85.47-1.78.47t-1.784-.47q-.85-.475-1.324-1.33-.475-.854-.475-1.779 0-.935.48-1.794.484-.864 1.343-1.324.859-.465 1.76-.465zm0 .593q-.754 0-1.47.39-.713.384-1.116 1.105-.404.717-.404 1.495 0 .774.394 1.486.399.707 1.11 1.105.713.394 1.486.394.774 0 1.486-.394.712-.398 1.106-1.105.394-.712.394-1.486 0-.778-.404-1.495-.398-.721-1.115-1.106-.717-.389-1.467-.389zm-1.57 4.97V5.336h1.324q.678 0 .982.11.304.104.484.37.18.265.18.564 0 .423-.303.736-.3.313-.798.351.204.086.328.204.232.228.57.764l.47.755h-.76l-.342-.607q-.403-.717-.65-.897-.17-.133-.498-.133h-.366V9.19zm.621-2.17h.755q.54 0 .735-.161.2-.162.2-.427 0-.171-.095-.304-.095-.138-.266-.204-.166-.067-.622-.067h-.707z" aria-label="®" style="fill:#1d6434"/><g aria-label="An Open Group Standard" style="font-family:Myriad;fill:#110f0d"><path d="M23.183 45.341H20.86l-.68 2.06h-.875l2.226-6.55h1.02l2.236 6.55h-.904zm-2.148-.66h1.973l-.65-1.886q-.127-.39-.331-1.196h-.03q-.145.642-.32 1.186zM25.691 47.402V43.97q0-.758-.039-1.274h.758l.049.768h.02q.194-.37.602-.622.408-.253.953-.253.272 0 .534.098.272.087.535.301.262.204.428.622.165.408.165.982v2.809h-.856V44.69q0-.622-.262-1.01-.262-.39-.826-.39-.399 0-.71.253-.31.253-.437.622-.058.165-.058.399v2.838zM35.742 47.509h-.01q-1.312 0-2.129-.914-.816-.923-.816-2.41 0-1.546.845-2.489.856-.952 2.187-.952 1.342 0 2.149.923.806.923.806 2.391 0 1.623-.865 2.537-.865.914-2.167.914zm.02-.69h.009q.972 0 1.536-.778.563-.778.563-1.944 0-1.07-.554-1.866-.544-.797-1.536-.797-1 0-1.555.797-.554.797-.554 1.934 0 1.089.564 1.876.573.778 1.526.778zM39.843 49.326v-5.093q0-.943-.038-1.536h.767l.05.807h.018q.535-.914 1.663-.914.865 0 1.428.671.574.661.574 1.72 0 1.206-.632 1.867-.622.66-1.506.66-1.002 0-1.449-.738h-.02v2.556zm.856-4.655v.816q0 .204.039.35.107.447.457.729.36.272.816.272.67 0 1.05-.496.379-.495.379-1.322 0-.738-.37-1.244-.369-.505-1.02-.505-.447 0-.817.291-.36.282-.486.759-.048.291-.048.35zM49.165 45.205l-3.295-.01q.01.817.457 1.225.457.408 1.147.408.729 0 1.302-.233l.156.603q-.671.301-1.575.301-1.07 0-1.691-.651-.622-.651-.622-1.72 0-1.099.602-1.818.613-.73 1.614-.73.544 0 .943.224.398.214.602.574.204.35.292.71.097.35.097.709 0 .262-.03.408zm-3.285-.622h2.488q.01-.311-.078-.603-.087-.291-.379-.534-.282-.253-.72-.253-.592 0-.923.428-.33.427-.388.962zM50.254 47.402V43.97q0-.758-.04-1.274h.759l.048.768h.02q.194-.37.603-.622.408-.253.952-.253.272 0 .535.098.272.087.534.301.263.204.428.622.165.408.165.982v2.809h-.855V44.69q0-.622-.263-1.01-.262-.39-.826-.39-.398 0-.71.253-.31.253-.437.622-.058.165-.058.399v2.838zM62.734 43.961v3.15q-.933.359-2.022.359-1.545 0-2.45-.865-.913-.885-.913-2.44 0-1.487.962-2.43.963-.952 2.586-.952 1.02 0 1.643.3l-.214.691q-.593-.282-1.449-.282-1.205 0-1.924.71-.71.7-.71 1.924 0 1.235.68 1.944.69.7 1.848.7.777 0 1.127-.175v-1.954h-1.322v-.68zM64.007 47.402l.01-3.237q0-.884-.039-1.468h.749l.038.924h.03q.155-.467.515-.749t.797-.282q.116 0 .233.03v.797q-.194-.02-.301-.02-.447 0-.758.302-.302.3-.39.787-.028.194-.028.408v2.508zM69.052 47.509h-.01q-.972 0-1.613-.661-.642-.67-.642-1.76 0-1.146.661-1.817.67-.68 1.672-.68 1.01 0 1.633.67.632.67.632 1.74 0 1.225-.7 1.866-.7.642-1.633.642zm.01-.642h.01q.612 0 1.02-.515.408-.525.408-1.322 0-.69-.36-1.244-.35-.554-1.05-.554-.699 0-1.068.544-.37.545-.37 1.283 0 .778.399 1.293.398.515 1.01.515zM76.4 42.697v3.422q0 .787.04 1.283h-.759l-.049-.768h-.019q-.194.35-.593.612-.398.263-.962.263-.302 0-.574-.097-.262-.098-.515-.311-.243-.224-.389-.642-.145-.428-.145-1.01v-2.752h.855v2.596q0 1.506 1.05 1.506.398 0 .7-.233.3-.233.427-.554.078-.185.078-.438v-2.877zM77.82 49.326v-5.093q0-.943-.04-1.536h.768l.049.807h.02q.534-.914 1.662-.914.865 0 1.428.671.574.661.574 1.72 0 1.206-.632 1.867-.622.66-1.507.66-1 0-1.448-.738h-.02v2.556zm.855-4.655v.816q0 .204.039.35.107.447.457.729.36.272.816.272.67 0 1.05-.496.379-.495.379-1.322 0-.738-.37-1.244-.369-.505-1.02-.505-.447 0-.817.291-.36.282-.486.759-.048.291-.048.35zM85.11 47.081l.223-.71q.67.428 1.507.428.641 0 1-.301.37-.311.37-.817 0-.447-.292-.738-.281-.302-.942-.554-1.73-.632-1.73-1.867 0-.777.583-1.273.593-.505 1.535-.505.895 0 1.439.32l-.233.69q-.506-.31-1.235-.31-.612 0-.923.3-.311.292-.311.681 0 .447.291.72.302.272 1.011.544.865.34 1.264.787.398.438.398 1.137 0 .807-.592 1.351-.584.545-1.692.545-.466 0-.933-.117-.466-.126-.739-.31zM90.358 41.832l.836-.262v1.127h1.225v.652h-1.225v2.537q0 .913.642.913.3 0 .495-.058l.04.651q-.331.117-.759.117-.593 0-.923-.36-.33-.37-.33-1.234v-2.566h-.73v-.652h.73zM96.696 44.515v1.76q0 .68.068 1.127h-.768l-.078-.593h-.03q-.203.301-.582.505-.38.195-.856.195-.68 0-1.06-.399-.378-.398-.378-.952 0-.856.729-1.303.738-.457 2.1-.447v-.097q0-.185-.04-.34-.029-.166-.136-.35-.097-.185-.33-.292-.224-.107-.564-.107-.72 0-1.234.35L93.342 43q.651-.409 1.555-.409 1.799 0 1.799 1.925zm-.836 1.302v-.816q-1.993-.039-1.993 1.06 0 .398.224.612.233.204.573.204.438 0 .739-.224.301-.233.418-.563.039-.117.039-.273zM98.066 47.402V43.97q0-.758-.039-1.274h.758l.049.768h.02q.194-.37.602-.622.408-.253.953-.253.272 0 .534.098.272.087.535.301.262.204.428.622.165.408.165.982v2.809h-.856V44.69q0-.622-.262-1.01-.262-.39-.826-.39-.399 0-.71.253-.31.253-.437.622-.059.165-.059.399v2.838zM106.668 40.5h.856v5.687q0 .787.039 1.215h-.768l-.04-.817h-.019q-.204.409-.622.671-.418.253-.972.253-.865 0-1.448-.661-.573-.67-.573-1.73-.01-1.147.602-1.837.622-.69 1.507-.69.515 0 .884.204.37.204.535.505h.02zm0 4.929v-.817q0-.214-.039-.37-.097-.417-.437-.699-.33-.282-.797-.282-.651 0-1.03.515-.38.506-.38 1.293 0 .758.36 1.254.37.496 1.03.496.438 0 .788-.273.35-.281.466-.748.04-.155.04-.37zM112.257 44.515v1.76q0 .68.068 1.127h-.768l-.077-.593h-.03q-.204.301-.583.505-.379.195-.855.195-.68 0-1.06-.399-.379-.398-.379-.952 0-.856.73-1.303.738-.457 2.099-.447v-.097q0-.185-.04-.34-.028-.166-.135-.35-.097-.185-.33-.292-.224-.107-.564-.107-.72 0-1.235.35l-.194-.573q.651-.409 1.555-.409 1.798 0 1.798 1.925zm-.836 1.302v-.816q-1.992-.039-1.992 1.06 0 .398.223.612.234.204.574.204.437 0 .739-.224.3-.233.417-.563.04-.117.04-.273zM113.628 47.402l.01-3.237q0-.884-.04-1.468h.75l.038.924h.03q.155-.467.515-.749t.797-.282q.116 0 .233.03v.797q-.194-.02-.301-.02-.448 0-.759.302-.3.3-.388.787-.03.194-.03.408v2.508zM119.956 40.5h.855v5.687q0 .787.039 1.215h-.768l-.039-.817h-.02q-.204.409-.622.671-.417.253-.971.253-.866 0-1.449-.661-.573-.67-.573-1.73-.01-1.147.602-1.837.622-.69 1.507-.69.515 0 .885.204.369.204.534.505h.02zm0 4.929v-.817q0-.214-.04-.37-.097-.417-.437-.699-.33-.282-.797-.282-.651 0-1.03.515-.38.506-.38 1.293 0 .758.36 1.254.37.496 1.03.496.438 0 .788-.273.35-.281.467-.748.039-.155.039-.37z"/></g></svg>