<svg xmlns="http://www.w3.org/2000/svg" data-name="Layer 1" viewBox="0 0 131.494 64.296"><path d="M17.665 34.483v15.565a.06.06 0 0 1-.049.06L2.629 52.675a.06.06 0 0 1-.064-.083l14.987-33.47a.06.06 0 0 1 .114.025l-.001 15.335Zm2.526-8.97v24.6c0 .03.023.056.053.06l22.449 2.506a.06.06 0 0 0 .061-.084L20.305 2.458a.06.06 0 0 0-.114.024v23.031Zm22.33 29.461-24.833 7.45a.062.062 0 0 1-.043 0l-15.006-7.45a.059.059 0 0 1 .026-.113h39.839a.06.06 0 0 1 .017.113Zm17.863-3.51a.432.432 0 0 1-.132-.322v-25.5c0-.126.043-.232.132-.321a.437.437 0 0 1 .32-.132h3.47a.44.44 0 0 1 .322.132.439.439 0 0 1 .132.32v25.501a.436.436 0 0 1-.132.322.44.44 0 0 1-.321.132h-3.47a.436.436 0 0 1-.321-.132Zm12.523-.34c-1.194-.465-2.119-1.107-2.772-1.924-.654-.817-.982-1.728-.982-2.735v-.34c0-.125.044-.232.133-.32a.436.436 0 0 1 .32-.132h3.32a.44.44 0 0 1 .321.132.44.44 0 0 1 .132.32v.076c0 .629.346 1.176 1.037 1.64.692.467 1.566.699 2.622.699 1.006 0 1.823-.207 2.452-.622s.944-.938.944-1.567c0-.578-.259-1.011-.774-1.3-.515-.29-1.352-.598-2.508-.925l-1.434-.452c-1.282-.378-2.364-.78-3.244-1.207a6.474 6.474 0 0 1-2.226-1.755c-.603-.74-.905-1.69-.905-2.847 0-1.761.691-3.163 2.074-4.207 1.383-1.043 3.207-1.565 5.47-1.565 1.534 0 2.88.245 4.037.735 1.156.49 2.05 1.17 2.679 2.038.628.867.942 1.854.942 2.96a.436.436 0 0 1-.132.32.434.434 0 0 1-.32.134h-3.207a.433.433 0 0 1-.32-.133.432.432 0 0 1-.132-.32c0-.654-.322-1.2-.962-1.641-.642-.44-1.516-.66-2.622-.66-.98 0-1.78.182-2.396.547s-.924.874-.924 1.527c0 .604.295 1.063.886 1.377.591.315 1.578.66 2.962 1.038l.83.226c1.332.403 2.452.811 3.358 1.226s1.671.994 2.3 1.736c.63.742.944 1.703.944 2.885 0 1.786-.704 3.187-2.113 4.206-1.409 1.018-3.282 1.528-5.62 1.528-1.586 0-2.975-.232-4.17-.698ZM98.75 35.733a.436.436 0 0 1-.321.132H94.58c-.126 0-.188.063-.188.188v9.091c0 .956.207 1.648.622 2.076s1.075.641 1.98.641h1.132a.44.44 0 0 1 .321.132.441.441 0 0 1 .132.32v2.83c0 .277-.151.44-.453.49l-1.962.038c-1.986 0-3.47-.34-4.451-1.019-.98-.678-1.484-1.962-1.509-3.847V36.053c0-.125-.063-.188-.188-.188h-2.15a.434.434 0 0 1-.322-.132.436.436 0 0 1-.132-.32V32.77c0-.125.044-.232.132-.32a.438.438 0 0 1 .321-.132h2.15c.126 0 .19-.063.19-.189v-4.414c0-.125.043-.232.131-.32a.436.436 0 0 1 .32-.132h3.283a.44.44 0 0 1 .32.132.437.437 0 0 1 .133.32v4.414c0 .126.062.189.188.189h3.848a.44.44 0 0 1 .321.132.437.437 0 0 1 .132.32v2.642a.436.436 0 0 1-.132.32Zm4.772-6.809c-.504-.503-.755-1.144-.755-1.924s.25-1.421.755-1.924c.502-.503 1.143-.755 1.923-.755s1.42.252 1.924.755c.503.503.754 1.145.754 1.924 0 .78-.25 1.42-.754 1.924-.504.503-1.144.754-1.924.754s-1.421-.25-1.923-.754Zm-.208 22.54a.436.436 0 0 1-.132-.322V32.734c0-.126.044-.233.132-.321a.436.436 0 0 1 .32-.132h3.47a.44.44 0 0 1 .322.132.438.438 0 0 1 .132.32v18.41a.436.436 0 0 1-.132.32.44.44 0 0 1-.321.133h-3.471a.436.436 0 0 1-.32-.132Zm12.524-1.075c-1.42-1.006-2.42-2.402-2.999-4.188a14.233 14.233 0 0 1-.64-4.3c0-1.61.2-3.043.603-4.301.578-1.76 1.584-3.13 3.017-4.112 1.434-.98 3.157-1.471 5.168-1.471 1.912 0 3.566.49 4.961 1.47 1.397.982 2.383 2.34 2.962 4.076.452 1.207.679 2.64.679 4.3 0 1.585-.214 3.018-.642 4.3-.578 1.786-1.57 3.188-2.98 4.207-1.408 1.019-3.08 1.527-5.017 1.527-1.987 0-3.691-.503-5.112-1.508Zm7.508-3.056c.666-.528 1.15-1.27 1.452-2.226.251-.83.377-1.886.377-3.168 0-1.359-.126-2.415-.377-3.17-.277-.955-.755-1.69-1.434-2.206s-1.508-.774-2.489-.774c-.931 0-1.735.258-2.415.774-.679.515-1.169 1.25-1.47 2.207-.253.88-.379 1.936-.379 3.169s.126 2.287.378 3.168c.277.956.76 1.698 1.453 2.226.691.528 1.527.792 2.508.792.93 0 1.729-.264 2.396-.792Z" style="fill:#516baa"/></svg>