<svg xmlns="http://www.w3.org/2000/svg" viewBox="0 0 70 63.335"><path fill="#00bcf2" d="M46.969 0c-.168-.006-.281-.006-.313.031-.049.058-.787 2.321-1.625 5-.837 2.68-2.911 9.305-4.625 14.75-1.713 5.445-3.077 10.005-3.031 10.125.073.19.438.219 2.625.219 2.054 0 2.551.055 2.688.219.136.164-.246 1.2-2.063 5.593a719.008 719.008 0 0 1-2.5 5.97c-.14.326-.17.587-.094.562.24-.08 15.344-17.307 15.344-17.5 0-.15-.613-.188-3.219-.188-2.014 0-3.227-.038-3.281-.125-.047-.076.386-.994.969-2.031.582-1.037 1.978-3.556 3.125-5.594C55.908 8.258 58.212 4.181 58.28 4c.081-.212-2.123-1.398-4.031-2.156C52.295 1.066 48.144.045 46.969 0zm-8.313 3.406-.5.063c-.579.09-3.584.905-4.156 1.125l-.406.156.062 3.031.032 3.032-.407.218c-.223.113-.83.45-1.343.75l-.938.531-2.5-1.468c-1.373-.81-2.535-1.5-2.594-1.531-.154-.082-1.827 1.423-2.875 2.593l-.906 1 1.563 2.594 1.562 2.594-.344.562c-.188.308-.552.931-.781 1.375l-.406.813-3-.063-3.032-.062-.28.687c-.254.664-.828 2.925-1 3.907l-.095.5 2.625 1.437 2.625 1.438V31.843l-2.625 1.437-2.625 1.438.094.5c.142.804.724 3.043 1 3.843l.25.75 3.032-.062 3.03-.063.407.813c.23.444.593 1.067.781 1.375l.344.563-1.563 2.593-1.562 2.594 1.094 1.188c.99 1.083 2.455 2.437 2.625 2.437.036 0 1.22-.667 2.625-1.5l2.562-1.531.907.562c.509.298 1.12.638 1.343.75l.407.188-.032 3.031-.062 3.031.406.157c.61.233 2.61.787 3.594 1 .49.105.927.212.968.218.042.006.74-1.147 1.532-2.562L41.53 52h3.25l1.407 2.563 1.406 2.53.468-.062c.531-.054 3.224-.714 4.032-1l.531-.218V49.718l.406-.188a34.62 34.62 0 0 0 1.344-.75l.938-.562 2.53 1.531c1.389.834 2.569 1.5 2.657 1.5.218 0 3.594-3.402 3.594-3.625 0-.098-.674-1.31-1.5-2.688l-1.5-2.5.343-.562c.19-.308.521-.93.75-1.375l.407-.813 3.031.063 3.031.063.25-.75c.279-.807.862-3.05 1-3.844l.094-.5-2.625-1.438-2.594-1.437V28.688l2.594-1.438c1.434-.79 2.626-1.486 2.625-1.563-.003-.339-.7-3.127-1-4l-.344-.968-3.031.062-3.031.063-.407-.813a27.187 27.187 0 0 0-.75-1.375l-.343-.562 1.531-2.594 1.563-2.594-1.094-1.187c-1.19-1.302-2.515-2.48-2.688-2.406-.059.025-.752.39-1.531.843L57.469 11l-2.032 3-2.03 3 1.312 1.313c2.73 2.707 4.372 5.87 4.906 9.5.25 1.698.255 2.61.063 4.312-.827 7.3-6.285 13.15-13.563 14.531-1.445.274-4.406.267-5.938 0-4.784-.834-9.19-3.985-11.593-8.281-2.238-4.001-2.701-9.003-1.25-13.375a16.543 16.543 0 0 1 8.531-9.688c1.3-.626 3.525-1.374 4.094-1.374.347 0 .414-.224 1.062-2.938l.563-2.313-1.469-2.656-1.469-2.625zM10.094 40.5l-.5 1.563-.5 1.562-.906.375-.907.375-1.437-.656c-.79-.373-1.47-.688-1.532-.688-.062 0-.511.412-1 .907l-.906.874.719 1.407c.399.77.72 1.48.719 1.562-.003.082-.134.497-.313.938l-.344.812-1.562.563-1.563.562-.03 1.313L0 53.25l1.594.531 1.562.5.281.657c.49 1.1.477 1.206-.28 2.75l-.688 1.437.906.938.938.906 1.53-.75 1.5-.75.907.406.875.406.531 1.532.531 1.53h2.657l.469-1.562.5-1.531.874-.375.907-.406 1.562.718 1.532.72.906-.907.906-.906-.719-1.5-.75-1.5.313-.844c.171-.458.382-.872.468-.938.086-.065.812-.37 1.625-.656l1.5-.5-.03-1.312-.063-1.313-1.532-.5-1.562-.5-.344-.812c-.181-.447-.312-.877-.312-.969 0-.093.287-.803.656-1.594l.688-1.437-.938-.938-.938-.937-1.468.781-1.438.75L14.75 44l-.906-.344-.563-1.593-.594-1.563h-2.593zm1.375 7.844c3.332.002 4.877 4.028 2.406 6.25-.365.328-.92.66-1.219.75-1.975.592-4.071-.45-4.625-2.313-.283-.954-.27-1.484.063-2.375.54-1.443 1.834-2.313 3.375-2.312z"/></svg>