<svg xmlns="http://www.w3.org/2000/svg" viewBox="0 0 87.5 82.752"><path fill="#00bcf2" d="M407.206 529.116a.33.33 0 0 1-.038.159c-.025.047-.075.085-.148.115-.072.029-.17.052-.295.07a3.434 3.434 0 0 1-.481.028c-.255 0-.463-.01-.624-.033a.804.804 0 0 1-.36-.12.84.84 0 0 1-.197-.197l-5.207-7.077v7.077c0 .051-.014.1-.043.148a.28.28 0 0 1-.153.109c-.073.025-.17.047-.29.066-.12.018-.272.027-.454.027a3.13 3.13 0 0 1-.449-.027 1.656 1.656 0 0 1-.295-.066.279.279 0 0 1-.153-.11.278.278 0 0 1-.044-.147v-13.584a.27.27 0 0 1 .044-.153.293.293 0 0 1 .153-.104c.073-.026.171-.048.295-.066.124-.018.274-.027.449-.027.182 0 .333.009.454.027.12.018.217.04.29.066.072.025.124.06.153.103a.27.27 0 0 1 .043.154v6.289l5.01-6.29a.66.66 0 0 1 .153-.163.685.685 0 0 1 .213-.104c.084-.026.186-.046.306-.06a4 4 0 0 1 .465-.022c.19 0 .343.009.46.027.116.018.21.042.279.071.069.03.116.066.142.11a.278.278 0 0 1 .038.142c0 .094-.024.19-.071.284a2.6 2.6 0 0 1-.268.394l-4.692 5.61 5.053 6.716c.124.19.199.32.224.388.026.07.038.126.038.17zm-12.13-6.978c0 1.225-.156 2.295-.47 3.21-.313.915-.77 1.674-1.372 2.275-.602.602-1.34 1.052-2.215 1.35-.875.3-1.918.45-3.128.45h-2.997a.776.776 0 0 1-.476-.17c-.15-.113-.224-.312-.224-.596v-12.622c0-.284.075-.483.224-.596a.776.776 0 0 1 .476-.17h3.205c1.225 0 2.26.159 3.106.476.846.317 1.555.773 2.127 1.367.573.595 1.006 1.315 1.302 2.16.295.846.443 1.801.443 2.866zm-1.979.077c0-.766-.095-1.479-.284-2.139a4.592 4.592 0 0 0-.892-1.711 4.12 4.12 0 0 0-1.536-1.127c-.62-.27-1.419-.405-2.396-.405h-1.914v11.014h1.936c.904 0 1.666-.113 2.286-.339a3.77 3.77 0 0 0 1.553-1.039c.416-.466.728-1.052.935-1.755.208-.704.312-1.537.312-2.5zm-11.583 3.237c0 .664-.122 1.254-.366 1.772a3.804 3.804 0 0 1-1.017 1.318c-.434.36-.945.632-1.532.815a6.367 6.367 0 0 1-1.897.273c-.474 0-.914-.04-1.318-.12a7.207 7.207 0 0 1-1.083-.295 5.233 5.233 0 0 1-.798-.361 2.127 2.127 0 0 1-.449-.318.804.804 0 0 1-.186-.333 1.963 1.963 0 0 1-.06-.542c0-.16.007-.293.022-.399a.974.974 0 0 1 .065-.257.285.285 0 0 1 .11-.136.298.298 0 0 1 .153-.039c.102 0 .246.062.432.186a6.793 6.793 0 0 0 1.772.815 4.83 4.83 0 0 0 1.427.191c.409 0 .782-.054 1.121-.164.34-.109.631-.264.875-.464.245-.201.432-.447.564-.739.13-.291.196-.623.196-.995 0-.401-.09-.744-.273-1.028a2.755 2.755 0 0 0-.722-.75 6.331 6.331 0 0 0-1.022-.59l-1.176-.547a12.786 12.786 0 0 1-1.17-.618 4.97 4.97 0 0 1-1.018-.798 3.713 3.713 0 0 1-.727-1.078c-.186-.412-.279-.906-.279-1.482 0-.59.108-1.117.323-1.58.215-.463.514-.851.897-1.165a4.003 4.003 0 0 1 1.367-.716 5.748 5.748 0 0 1 1.711-.247c.314 0 .63.028.947.082.317.055.616.128.896.22.281.09.53.192.75.305.218.114.362.205.432.274.069.07.114.124.136.164.022.04.04.091.055.153s.026.137.033.224a4.388 4.388 0 0 1-.006.69c-.01.101-.027.187-.049.256a.314.314 0 0 1-.093.154.21.21 0 0 1-.137.049c-.08 0-.206-.051-.377-.153a11.848 11.848 0 0 0-.629-.345 5.534 5.534 0 0 0-.88-.35 3.833 3.833 0 0 0-1.143-.158c-.394 0-.737.052-1.028.158a2.109 2.109 0 0 0-.722.421c-.19.175-.332.383-.427.624a2.07 2.07 0 0 0-.142.765c0 .394.091.733.273 1.017.183.285.425.536.728.755.302.219.647.42 1.033.602.387.182.78.366 1.182.552.4.186.794.39 1.18.613.387.222.732.484 1.034.787.303.303.547.66.733 1.072.186.412.28.899.28 1.46zm43.407-77.406s-24.256 22.721-24.189 22.67l-.005.846c-.002.465-.118 1.363-.255 1.993-.867 3.975-4.642 6.864-9.019 6.9l-1.082.005-2.769 2.606-2.774 2.607 2.383 2.226c1.31 1.223 2.377 2.288 2.377 2.368 0 .08-5.34 5.17-11.869 11.314l-11.874 11.172-.392-.36c-.215-.196-.49-.317-.614-.27-.125.048-1.194.82-2.377 1.713l-2.154 1.629-3.808 5.673c-2.095 3.12-3.81 5.765-3.813 5.879-.002.114.41.565.914 1.004.505.44.953.801 1.001.804.048.003 2.806-1.616 6.13-3.595l6.043-3.595 1.833-2.115c1.007-1.161 1.832-2.206 1.833-2.321.001-.116-.156-.302-.348-.418-.191-.116-.348-.262-.348-.322 0-.09 5.474-5.262 22.067-20.857l1.785-1.676 2.328 2.226c1.281 1.224 2.434 2.225 2.556 2.225.122 0 1.421-1.16 2.888-2.574l2.666-2.57v-1.03c0-2.115.84-4.118 2.393-5.7 1.815-1.85 3.614-2.661 6.277-2.829l1.626-.1c9.176-8.617 15.698-14.694 24.156-22.771.019-.13-13.408-12.757-13.565-12.757zm-56.134 2.035c-2.753-.003-4.966.243-4.955.555 3.439 2.874 7.731 7.048 10.558 10.014l-2.774 9.897-10.444 2.622c-5.2-4.859-5.915-5.635-10.83-9.955-.042.041-.195.748-.342 1.57-.79 4.398.194 8.84 2.828 12.784.99 1.482 3.921 4.211 5.592 5.208 3.19 1.902 5.588 2.585 9.524 2.701 2.43.072 3.073.033 4.743-.29l1.937-.376 4.036 3.802c1.346 1.267 2.695 2.533 4.041 3.801l1.35-1.205 1.343-1.206-2.405-2.368-2.404-2.369 8.127-7.613 1.006-.016a69.965 69.965 0 0 0 1.784-.048l.783-.037-2.654-2.506-2.66-2.506.261-1.094c.575-2.41.51-5.452-.174-8.005-1.679-6.27-6.94-11.234-13.745-12.963-1.345-.342-1.985-.394-4.526-.397zm59.501 5.002a2.487 2.487 0 0 1 1.256.317c.323.177.631.416.92.708l.185.185c.141.144.21.283.212.413a.464.464 0 0 1-.169.354l-2.61 2.432c.174.178.357.319.543.423.186.105.377.161.572.175a1.28 1.28 0 0 0 .592-.112 2.16 2.16 0 0 0 .615-.417c.211-.197.38-.387.511-.566.131-.179.24-.336.321-.481a5.6 5.6 0 0 0 .19-.37.745.745 0 0 1 .147-.222.185.185 0 0 1 .087-.048.18.18 0 0 1 .11.01.56.56 0 0 1 .14.096c.056.047.12.113.197.19.067.069.124.129.168.18.045.051.082.097.109.138a.384.384 0 0 1 .07.227.755.755 0 0 1-.081.248 3.54 3.54 0 0 1-.245.44 5.63 5.63 0 0 1-.963 1.147c-.38.355-.757.619-1.136.793-.38.173-.758.259-1.137.248-.38-.01-.762-.12-1.142-.322a4.781 4.781 0 0 1-1.148-.883 4.485 4.485 0 0 1-.838-1.142c-.194-.39-.3-.775-.315-1.158-.015-.383.06-.76.223-1.121s.416-.699.756-1.015c.359-.334.715-.569 1.071-.703.267-.101.53-.156.79-.164zm-.24 1.37c-.286-.01-.565.11-.831.359a1.16 1.16 0 0 0-.316.454 1.08 1.08 0 0 0-.06.492c.019.165.07.33.158.497.087.166.2.329.337.481l1.806-1.687c-.316-.339-.637-.534-.968-.586a.984.984 0 0 0-.125-.011zm-4.27 2.183c.034-.001.062.005.088.015a.6.6 0 0 1 .098.059c.039.026.09.07.158.132.067.062.161.147.272.259.11.112.196.208.26.285.065.078.11.144.137.196a.226.226 0 0 1 .032.132.159.159 0 0 1-.054.095.37.37 0 0 1-.104.064l-.146.068c-.053.025-.105.056-.164.09a.93.93 0 0 0-.174.127.72.72 0 0 0-.163.228c-.041.089-.07.199-.087.322a1.99 1.99 0 0 0-.005.434c.014.166.042.36.087.581l2.562 2.596c.03.031.045.07.049.111a.265.265 0 0 1-.038.148 1.175 1.175 0 0 1-.152.206c-.07.08-.16.175-.278.286-.118.11-.22.195-.304.259-.085.064-.162.11-.223.137a.315.315 0 0 1-.158.037.183.183 0 0 1-.109-.058l-4.107-4.166a.184.184 0 0 1-.054-.1.24.24 0 0 1 .027-.143.913.913 0 0 1 .125-.185c.058-.07.14-.15.24-.243.102-.096.186-.168.26-.223a.826.826 0 0 1 .197-.11.249.249 0 0 1 .135-.016c.04.008.073.027.104.058l.511.518a4.468 4.468 0 0 1-.065-.677c0-.194.017-.365.049-.507.031-.143.08-.269.147-.376a1.4 1.4 0 0 1 .375-.402 1.868 1.868 0 0 1 .343-.206.376.376 0 0 1 .13-.031zm-3.856 3.727a.19.19 0 0 1 .115.053l4.106 4.166c.031.031.048.067.055.106a.23.23 0 0 1-.027.137.837.837 0 0 1-.12.185c-.058.07-.14.146-.24.238a3.25 3.25 0 0 1-.266.233.805.805 0 0 1-.19.105.263.263 0 0 1-.142.022.198.198 0 0 1-.103-.059l-.473-.48a3.54 3.54 0 0 1-.174 1.231 2.185 2.185 0 0 1-.577.899c-.295.274-.589.457-.881.55a1.808 1.808 0 0 1-.86.068 2.242 2.242 0 0 1-.82-.317 4.929 4.929 0 0 1-.866-.724l-2.513-2.548a.183.183 0 0 1-.054-.106.259.259 0 0 1 .038-.148c.031-.059.082-.13.152-.212.071-.08.162-.172.278-.28.118-.11.22-.2.304-.264.085-.064.162-.11.223-.138a.284.284 0 0 1 .153-.031.176.176 0 0 1 .108.052l2.323 2.358c.215.218.396.372.539.46.142.089.283.142.424.17a.86.86 0 0 0 .413-.016.976.976 0 0 0 .386-.233c.154-.143.257-.338.305-.592a3.64 3.64 0 0 0 .027-.941l-2.73-2.77a.183.183 0 0 1-.055-.106.259.259 0 0 1 .038-.148c.031-.06.078-.127.147-.206.07-.08.164-.176.283-.286.119-.11.22-.2.305-.264.084-.064.157-.106.217-.132a.296.296 0 0 1 .153-.032zm-5.156 4.78a.4.4 0 0 1 .152.057.98.98 0 0 1 .18.149l.223.232a1.796 1.796 0 0 1 .26.339c.031.055.058.113.077.18.019.065.037.142.054.221l.773 3.892 1.691-1.576a.265.265 0 0 1 .104-.058.21.21 0 0 1 .13.01.691.691 0 0 1 .185.1c.07.053.147.13.24.223.089.09.164.17.217.243a.866.866 0 0 1 .109.185c.02.052.028.1.016.138a.242.242 0 0 1-.07.1l-2.802 2.612a.34.34 0 0 1-.283.1c-.101-.013-.211-.084-.337-.211l-.212-.212a2.051 2.051 0 0 1-.141-.158.867.867 0 0 1-.174-.344 1.92 1.92 0 0 1-.05-.233l-.766-3.901-1.523 1.411c-.061.057-.146.067-.256.027-.11-.04-.245-.142-.408-.307-.089-.09-.16-.17-.212-.238a.774.774 0 0 1-.109-.18.226.226 0 0 1-.01-.137c.01-.04.03-.073.064-.106l2.622-2.442a.541.541 0 0 1 .13-.09.212.212 0 0 1 .126-.027zm-7.158 3.679c.016 0 .033-.002.049 0 .06.009.129.033.206.074l7.202 3.569c.15.076.263.144.337.2.074.057.112.115.11.18-.004.066-.05.147-.131.238a6.108 6.108 0 0 1-.36.355c-.163.152-.29.268-.386.348-.095.08-.177.139-.239.17a.27.27 0 0 1-.158.037.496.496 0 0 1-.146-.059l-1.616-.824-2.333 2.178.772 1.549c.03.055.046.11.054.159a.27.27 0 0 1-.027.163.996.996 0 0 1-.163.217 6.388 6.388 0 0 1-.685.63c-.093.068-.172.1-.24.095-.067-.006-.13-.048-.185-.122a2.079 2.079 0 0 1-.185-.328l-3.372-7.153a.634.634 0 0 1-.06-.19.302.302 0 0 1 .05-.185c.038-.07.106-.157.2-.254.095-.097.223-.218.387-.37.189-.176.345-.318.462-.418.117-.1.214-.17.294-.211a.402.402 0 0 1 .163-.048zm.228 1.872 1.654 3.389 1.762-1.64-3.41-1.75h-.005zm-.37 19.107c-.16.012-.195.596-.136 2.02l.044 1.11-4.036 3.796c-2.22 2.088-4.085 3.814-4.15 3.838-.066.024-1.2-.95-2.513-2.168l-2.388-2.215-.653.508c-.359.279-.959.819-1.338 1.2l-.69.692 1.038 1.02c.57.564 4.032 3.857 7.697 7.318.042.078 21.414 19.24 21.414 19.24 1.985.72 4.638.724 6.604.01 2.146-.78 4.299-2.865 5.14-4.98.213-.536.375-1.466.43-2.417.107-1.884-.283-3.35-1.311-4.89-.464-.695-4.45-4.588-12.815-12.514-6.678-6.328-12.211-11.532-12.299-11.563a.103.103 0 0 0-.038-.005z" font-family="Calibri" font-size="130.533" letter-spacing="0" style="-inkscape-font-specification:Calibri" transform="matrix(.986 0 0 1.014 -344.802 -454.456)" word-spacing="0"/></svg>