<svg xmlns="http://www.w3.org/2000/svg" viewBox="0 0 69.178 70"><path fill="#00bcf2" d="M34.446 69.885 0 41.577S34.672.23 34.584 0C46.363 14.434 57.15 27.193 69.178 41.662c0 0-34.41 28.33-34.63 28.338-.056.002-.102-.05-.102-.115zm2.256-11.66 1.998-2.103-1.407-1.504c-.773-.828-1.427-1.563-1.452-1.636-.025-.072.624-.846 1.441-1.72.818-.873 1.487-1.67 1.487-1.771 0-.101-.757-.987-1.682-1.969l-1.682-1.785 1.716-1.813 1.716-1.812.001-1.802.002-1.801.521-.298c1.988-1.135 3.841-3.687 4.517-6.221.36-1.348.324-3.997-.073-5.395-.727-2.556-2.41-4.792-4.599-6.108-2.607-1.569-5.969-1.67-8.78-.263-1.563.782-3.376 2.583-4.18 4.153-1.717 3.35-1.623 7.255.25 10.449.569.968 2.305 2.745 3.19 3.263l.643.377v17.528l2.085 2.204c1.147 1.213 2.131 2.188 2.188 2.168.056-.02 1.002-.984 2.1-2.14zm-3.434-28.484c-1.219-.567-2.116-1.98-2.116-3.332 0-2.016 2.507-3.484 4.656-2.725 1.323.466 2.48 1.782 2.48 2.819 0 1.203-1.03 2.605-2.372 3.23-.917.427-1.743.43-2.648.008z"/></svg>