<svg xmlns="http://www.w3.org/2000/svg" viewBox="0 0 65.755 69.018"><path fill="#00bcf2" d="M33.38 0 0 40.03l33.38 28.988 32.376-29.113L33.38 0zm-.627 18.008a4.966 4.966 0 0 1 4.956 4.957c0 1.22-.46 2.337-1.192 3.2l7.341 8.533c.824-.614 1.843-.942 2.95-.942a4.966 4.966 0 0 1 4.956 4.957c0 2.73-2.227 4.894-4.957 4.894-1.609 0-2.987-.754-3.89-1.945l-5.772 5.082c.342.673.564 1.39.564 2.196a4.966 4.966 0 0 1-4.956 4.957 4.966 4.966 0 0 1-4.957-4.957c0-1.105.39-2.125 1.004-2.949l-4.33-3.952a4.947 4.947 0 0 1-3.639 1.568c-2.73 0-4.956-2.163-4.956-4.894a4.966 4.966 0 0 1 4.956-4.957c.615 0 1.214.11 1.757.314l6.4-7.905a4.945 4.945 0 0 1-1.192-3.2 4.966 4.966 0 0 1 4.957-4.957zm-2.385 9.286-6.211 7.78c.986.904 1.631 2.196 1.631 3.64 0 .682-.126 1.29-.376 1.882l4.58 4.266c.789-.533 1.737-.878 2.76-.878 1.398 0 2.678.574 3.577 1.506l5.835-5.208a4.637 4.637 0 0 1-.25-1.569c0-.975.265-1.932.752-2.698l-7.592-8.721c-.695.373-1.478.627-2.321.627a4.952 4.952 0 0 1-2.385-.627z"/></svg>