<svg xmlns="http://www.w3.org/2000/svg" viewBox="0 0 70 61.427"><path fill="#00bcf2" d="M11.218 61.26C5.896 60.423 1.634 56.486.279 51.157c-.394-1.55-.367-4.763.052-6.227.964-3.365 2.985-5.915 6.011-7.586l.688-.38-.045-1.188c-.12-3.18 1.086-6.906 3.087-9.54 1.874-2.465 4.704-4.472 7.59-5.382 4.638-1.462 9.363-.812 13.499 1.857.491.317 1.574 1.265 2.407 2.107l1.513 1.53.755-.383c3.105-1.573 6.996-1.665 10.141-.239 4.147 1.88 6.908 6.046 6.908 10.422v1.09l.935.556c4.022 2.39 6.278 7.107 5.667 11.85-.401 3.112-1.644 5.652-3.841 7.849-1.77 1.77-3.639 2.84-6.182 3.541l-1.322.365-17.875.024c-14.4.02-18.103-.012-19.05-.161zm19.136-6.048c3.479-.702 6.647-3.282 8.215-6.69.902-1.96 1.045-2.655 1.036-5.066-.007-1.953-.04-2.229-.392-3.3-.756-2.297-1.77-3.915-3.4-5.422-2.288-2.12-4.919-3.127-8.159-3.125-4.724.003-8.767 2.596-10.785 6.919-.745 1.597-.97 2.54-1.064 4.45-.167 3.394.937 6.383 3.242 8.778 3.002 3.12 6.966 4.332 11.307 3.456zm-3.189-1.56c-.664-.537-.24-1.67.627-1.67.55 0 .94.408.94.985 0 .495-.445.94-.94.94-.172 0-.454-.115-.627-.254zm3.644-4.98c-.258-.075-1.251-.922-2.578-2.2l-2.158-2.078v-3.126c0-3.064.006-3.132.31-3.416.49-.46 1.017-.607 1.607-.448 1.001.27 1.034.376 1.081 3.488l.043 2.77 1.63 1.652c1.7 1.72 1.967 2.165 1.652 2.753-.143.266-.932.788-1.119.74a56.123 56.123 0 0 1-.468-.135zm-13.194-4.53c-.354-.392-.323-1.082.063-1.395.43-.348.919-.317 1.32.084.413.413.427.75.053 1.226-.357.453-1.065.495-1.436.085zm18.918-.085c-.157-.2-.285-.47-.285-.6 0-.131.128-.402.285-.6.546-.695 1.686-.304 1.686.576 0 .946-1.11 1.357-1.686.624zm-9.43-9.402c-.355-.392-.324-1.082.062-1.395.645-.522 1.566-.119 1.566.686 0 .577-.389.985-.94.985-.264 0-.537-.11-.688-.276zm32.743 4.223c-.755-1.205-2.348-3.014-3.422-3.888-.436-.355-.817-.776-.847-.936-.78-4.143-2.341-7.187-4.982-9.718-2.953-2.832-6.267-4.318-10.454-4.689l-1.813-.16.389-.562c.554-.802 2.138-2.29 3.073-2.889 1.71-1.093 4.122-1.884 6.368-2.088l1.009-.091.037 2.479.038 2.48 4.436-3.763 4.436-3.763-4.436-3.807-4.436-3.807-.069 2.53-.069 2.532-1.306.107c-4.601.379-9.077 2.347-12.106 5.324-1.22 1.2-1.993 2.22-2.765 3.65-.304.564-.594 1.024-.644 1.022-.05-.002-.524-.285-1.054-.629-1.937-1.26-4.611-2.353-7.08-2.893-.935-.205-1.753-.256-4.077-.256h-2.908l.067-.481c.452-3.238 2.531-6.44 5.3-8.162 3.527-2.194 7.818-2.443 11.4-.66l1.05.522 1.062-1.15c1.404-1.523 2.604-2.47 4.192-3.315A16.236 16.236 0 0 1 44.761.195c1.367-.266 4.175-.26 5.596.014 4.722.906 8.726 3.856 10.879 8.016 1.213 2.344 1.683 4.184 1.766 6.907l.052 1.718.882.496c2.785 1.567 4.624 3.726 5.61 6.586.436 1.261.451 1.381.454 3.506.003 2.599-.168 3.415-1.155 5.5-1.447 3.055-4.067 5.404-7.307 6.55l-1.07.38-.622-.99z"/></svg>