<svg xmlns="http://www.w3.org/2000/svg" viewBox="0 0 60.799 70"><path fill="#00bcf2" d="M25.85 69.913c-1.807-.177-4.874-.745-6.604-1.223-5.15-1.423-8.735-3.664-9.463-5.916-.086-.264-.692-3.19-1.348-6.502L7.242 50.25l.276-.372c.323-.435 1.112-.747 1.419-.56.114.068.64.466 1.169.882 1.147.902 3.437 2.06 5.431 2.746 4.228 1.453 9.058 2.154 14.85 2.154 9.282 0 16.849-1.956 21.004-5.429.52-.435.634-.475 1.019-.365.57.163 1.077.652 1.077 1.036 0 .169-.491 2.741-1.092 5.717-.6 2.975-1.156 5.746-1.236 6.158-.647 3.362-6.73 6.42-15.066 7.573-1.448.201-8.58.286-10.243.123zm1.096-19.661c-4.82-.277-10-1.294-13.61-2.672-2.667-1.017-5.405-2.688-6.598-4.025-.87-.975-1.593-2.389-1.714-3.355-.051-.403-1.202-7.3-2.558-15.327C1.109 16.845 0 10.003 0 9.667c0-1.359 1.236-2.971 3.3-4.304C7.119 2.896 13.74 1.127 22.412.257c3.404-.342 12.521-.344 15.953 0 9.988.99 17.303 3.22 20.681 6.308 1.064.972 1.74 2.17 1.752 3.103 0 .36-1.08 7.058-2.411 14.885S55.9 39.28 55.82 39.885c-.205 1.547-.759 2.624-1.976 3.842-3.617 3.62-11.03 6-20.364 6.538-2.6.15-3.8.148-6.535-.01zm4.91-6.868c3.944-.64 6.92-3.323 7.89-7.114.327-1.277.351-3.433.053-4.708-.719-3.075-3.262-5.812-6.338-6.82-1.091-.357-1.404-.399-3.005-.399-1.486 0-1.962.054-2.82.32a9.64 9.64 0 0 0-6.268 12.415c1.498 4.31 6.024 7.03 10.487 6.306zm-3.144-5c-2.683-1.104-3.826-3.916-2.653-6.53 1.318-2.936 5.212-3.744 7.617-1.582a4.845 4.845 0 0 1 .752 6.336c-1.276 1.864-3.684 2.612-5.716 1.776zm5.677-25.252c7.926-.403 13.55-1.626 14.982-3.257.46-.524.488-.713.193-1.283-.575-1.112-3.73-2.22-8.177-2.872-3.625-.53-5.294-.625-11-.625s-7.375.095-11 .625c-4.448.652-7.602 1.76-8.177 2.872-.295.57-.267.759.193 1.283 1.988 2.264 12.69 3.78 22.986 3.257z"/></svg>