<svg xmlns="http://www.w3.org/2000/svg" viewBox="0 0 68.219 65.938"><path fill="#00bcf2" d="M25.093 0C11.543 0 .55 3.558.125 7.968H.062v49.344c-.021.14-.062.296-.062.438 0 .088.054.162.062.25.426 4.41 11.419 7.937 24.969 7.937 4.375 0 8.46-.353 12.031-1-5.064-1.145-8.417-3.03-8.625-5.187-.006-.07-.062-.149-.062-.22 0-.112.045-.231.062-.343V19.75h.031c.34-3.524 9.112-6.344 19.938-6.344.581 0 1.15.015 1.719.031V7.968h-.063C49.637 3.558 38.644 0 25.094 0zm-1.625 3.843c.64-.017 1.281 0 1.938 0 10.504 0 19 2.303 19 5.125 0 2.823-8.496 5.125-19 5.125S6.375 11.791 6.375 8.968c0-2.646 7.503-4.86 17.093-5.125zm25.157 10.188c-10.608 0-19.198 2.766-19.532 6.219h-.062v38.625c-.017.109-.031.232-.031.343 0 .07.024.15.031.219.333 3.453 8.923 6.219 19.531 6.219 10.608 0 19.23-2.766 19.563-6.219h.093V20.25h-.062c-.333-3.453-8.924-6.22-19.531-6.22zm.25 3c8.223 0 14.875 1.79 14.875 4s-6.652 4.031-14.875 4.031c-8.224 0-14.907-1.822-14.907-4.031 0-2.21 6.683-4 14.907-4zm7.687 11.125L47.625 43.03l8.937-.094L40.125 60.25l6.968-14.063h-6.968l16.437-18.031z"/></svg>