<svg xmlns="http://www.w3.org/2000/svg" viewBox="0 0 69.999 47.644"><path fill="#00bcf2" d="M11.573 47.468c-2.838-.48-5.155-1.66-7.317-3.725-3.768-3.6-5.21-9.262-3.612-14.17 1.236-3.789 3.86-6.772 7.454-8.47.862-.407.866-.412.783-.894-.432-2.517-.372-4.237.218-6.168.391-1.283 1.38-3.106 2.218-4.092 2.405-2.827 5.407-4.228 9.026-4.211 3.22.015 5.717 1.041 8.187 3.366l.698.657.332-.717c1.455-3.145 4.724-6.36 7.993-7.862C39.037.5 41.365-.192 41.365.049c0 .022-1.827 4.922-4.06 10.888-2.324 6.213-4.041 10.996-4.018 11.193l.04.344 3.778.069c2.078.038 3.856.118 3.95.18.095.06.172.23.172.377s-1.49 3.899-3.312 8.339c-4.012 9.78-3.866 9.413-3.718 9.356.143-.056 22.076-25.05 22.387-25.512.185-.275.188-.339.02-.446-.113-.073-1.994-.088-4.526-.036-4.462.092-4.943.05-4.943-.443 0-.26 6.726-11.601 6.88-11.601.197 0 1.673 1.294 2.605 2.285 2.146 2.281 3.637 5.305 4.183 8.484.262 1.524.262 4.068 0 5.513-.247 1.37-.25 1.58-.02 1.58.358 0 2.92 1.345 3.733 1.96 2.477 1.874 4.361 4.663 5.172 7.657.276 1.017.316 1.48.31 3.573-.005 2.203-.037 2.508-.376 3.64-1.475 4.93-5.048 8.443-9.968 9.803l-1.321.365-22.808.022c-19.052.018-22.997-.01-23.952-.171z"/></svg>