<svg xmlns="http://www.w3.org/2000/svg" viewBox="0 0 70 58.885"><path fill="#00bcf2" d="M26.264 58.76c-4.1-.43-7.876-3.297-9.449-7.175-.626-1.543-.936-3.29-.851-4.8l.067-1.201h-1.39c-2.092 0-4.185-.238-5.53-.628C3.604 43.361 0 38.692 0 33.157c0-5.142 3.142-9.482 8.278-11.434 1.158-.44 1.336-.55 1.283-.786a161.15 161.15 0 0 0-.308-1.304c-.379-1.58-.348-4.16.066-5.489 1.065-3.421 3.197-5.8 6.39-7.13 2.782-1.158 5.813-1.042 8.663.332 1.516.73 2.569 1.57 3.88 3.09.551.64 1.047 1.147 1.102 1.125.054-.02.378-.67.72-1.441.91-2.053 1.265-2.689 2.184-3.91C36.386.733 43.765-1.418 50.278.96c3.794 1.384 6.897 4.198 8.705 7.894 1.641 3.354 2.039 7.032 1.16 10.732-.152.642-.277 1.242-.277 1.334 0 .091.54.342 1.202.556 1.318.427 2.784 1.12 3.741 1.77 1.032.7 2.61 2.302 3.3 3.35 1.444 2.192 1.997 4.293 1.874 7.11-.093 2.134-.305 2.989-1.189 4.806-1.694 3.484-4.984 5.958-8.952 6.73-.638.125-2.25.258-3.649.303l-2.506.08v.912c0 3.28-2.369 6.41-5.63 7.436-1.154.364-3.05.391-4.194.06-1.746-.504-3.029-1.383-4.47-3.062l-.62-.723-.463 1.122c-1.733 4.196-5.266 6.896-9.667 7.387-.72.08-1.326.137-1.348.127-.022-.01-.486-.066-1.032-.123zm2.686-14.765.444-1.451.754-.334c.415-.183.836-.334.936-.334.1 0 .79.284 1.532.631l1.35.631.782-.871.783-.871-.725-1.373-.726-1.373.31-.81.309-.81 1.29-.514 1.29-.513.04-1.241.038-1.241-1.195-.388-1.196-.388-.39-.857-.39-.858.62-1.325c.34-.729.619-1.395.619-1.481 0-.086-.342-.494-.76-.907l-.761-.75-1.405.742-1.405.742-.684-.23c-.376-.125-.764-.28-.862-.342-.098-.062-.385-.664-.638-1.337l-.46-1.223h-2.551l-.409 1.145c-.409 1.144-.41 1.145-1.158 1.476-.412.182-.82.331-.904.331-.085 0-.76-.29-1.5-.644l-1.345-.645-.83.83-.829.829.7 1.394.7 1.394-.392.858-.392.858-1.394.474-1.395.474v2.394l1.339.44c.736.241 1.406.509 1.488.594.082.086.28.48.44.878l.29.723-.636 1.38-.636 1.38.853.849.853.85 1.266-.657c.696-.362 1.335-.655 1.42-.653.085.003.495.156.91.34l.756.334.526 1.45.526 1.451h2.359l.444-1.451zm-2.33-5.78c-.71-.12-1.808-.91-2.243-1.615-.374-.608-.416-.788-.415-1.785 0-.962.05-1.18.362-1.658 1.031-1.577 2.74-2.128 4.305-1.389 3.122 1.476 2.385 6.09-1.03 6.443-.34.035-.78.037-.98.003zm19.923-5.73.461-1.428.87-.345.871-.345 1.245.606c.685.333 1.328.605 1.43.605.234 0 1.718-1.346 1.719-1.558 0-.087-.284-.75-.631-1.475l-.632-1.316.42-.833.421-.833 1.52-.507 1.52-.506-.04-1.172-.038-1.172-1.57-.46c-.863-.254-1.61-.508-1.66-.566-.048-.058-.215-.447-.37-.864l-.28-.759.6-1.287c.331-.707.602-1.356.602-1.442 0-.086-.355-.506-.79-.934l-.789-.778-1.352.73-1.353.732-.852-.277-.852-.277-.528-1.354-.528-1.354H43.55l-.215.584c-.119.321-.324.884-.458 1.251-.227.624-.297.69-1.08 1.002l-.836.333-1.282-.623c-.705-.344-1.35-.624-1.433-.624-.083 0-.499.355-.923.79l-.773.789.74 1.304c.407.718.741 1.388.742 1.49 0 .101-.093.51-.208.91l-.211.725-1.231.516-1.231.516v2.535l1.016.388 1.017.388.351.856.352.856-.64 1.39-.639 1.389.83.829.829.83 1.361-.684 1.362-.683.841.336.842.337.51 1.433.511 1.434h2.388l.461-1.428zm-3.088-5.97c-1.233-.56-1.982-1.733-1.982-3.106 0-1.291.698-2.453 1.829-3.045.582-.304 1.762-.386 2.521-.174.883.246 2.01 1.355 2.24 2.204.198.731.104 1.985-.192 2.557-.312.604-1.026 1.275-1.664 1.565-.728.33-2.024.33-2.752 0z"/></svg>