<svg xmlns="http://www.w3.org/2000/svg" viewBox="0 0 70 43.381"><path fill="#00bcf2" d="M13.048 43.282C6.658 42.543 1.335 37.504.222 31.14-1.409 21.813 6.15 13.292 15.58 13.831c1.29.074 3.001.39 3.788.7.163.064.343-.238.792-1.33 1.091-2.659 2.683-5.002 4.826-7.105 3.002-2.945 6.533-4.839 10.814-5.8 1.167-.262 1.74-.3 4.429-.296h3.088l1.866.49c3.137.825 5.74 2.08 8.137 3.925 4.375 3.366 7.33 8.396 8.203 13.963.344 2.192.135 6.385-.411 8.251l-.125.427 1.267.076c1.593.095 2.966.556 4.23 1.42 1.234.842 2.059 1.8 2.708 3.141.676 1.398.882 2.471.787 4.088-.094 1.583-.469 2.69-1.363 4.028-1.031 1.541-2.505 2.62-4.502 3.297-.725.245-1.75.256-25.395.273-13.553.01-25.104-.036-25.67-.1z"/></svg>