<svg xmlns="http://www.w3.org/2000/svg" viewBox="0 0 51.278 69.996"><path fill="#00bcf2" d="M40.226 69.793c-.74-.269-1.266-.93-1.266-1.596 0-.59.3-1.287.695-1.615.224-.186.218-.225-.056-.417-.486-.341-.557-1.053-.182-1.827.304-.63.31-.715.09-1.24-.277-.666-.288-.924-.074-1.698.191-.687.874-1.372 1.625-1.633.796-.275 4.401-.094 4.524.228.183.475-.072.812-.611.812h-.517l.213.618a2.463 2.463 0 0 1-1.058 2.886c-.495.295-1.581.378-2.778.214-.323-.044-.398.018-.438.365-.067.575.233.693 2.018.794.901.051 1.69.183 1.974.33 1.601.828 1.455 2.768-.275 3.642-.567.286-.94.349-2.026.339-.732-.01-1.568-.098-1.858-.202zm3.156-.936c.639-.267.994-.996.727-1.494-.252-.47-.786-.63-2.107-.63-1.062 0-1.174.031-1.48.42-.5.637-.375 1.303.309 1.645.654.327 1.843.354 2.55.058zm-.283-5.626c.304-.304.383-.543.383-1.158 0-.652-.066-.827-.411-1.099-.568-.446-1.477-.428-2.02.04-.588.505-.626 1.612-.076 2.198.524.558 1.576.568 2.124.02zm-31.835 3.97c-.365-.145-.516-.65-.374-1.248.076-.32.201-.399.692-.44.33-.027.667.018.75.102.186.186.2 1.26.019 1.427-.237.22-.749.294-1.087.16zm5.229.01c-.758-.23-1.226-.66-1.644-1.514-.35-.717-.417-1.059-.417-2.157 0-1.104.066-1.438.425-2.173.476-.973 1.273-1.558 2.357-1.732 1.28-.204 2.723.503 2.723 1.335 0 .617-.171.668-.806.236-1.199-.814-2.495-.595-3.036.514-.403.828-.393 2.886.018 3.572.311.52 1.063.977 1.61.977.17 0 .71-.21 1.2-.468.49-.257.917-.468.951-.468.214 0 .017 1.085-.239 1.316-.657.596-2.152.863-3.142.563zm5.564-.08c-.671-.24-.867-.458-.87-.97-.005-.509.23-.562.921-.21 1.523.778 3.188.062 2.717-1.168-.056-.146-.67-.528-1.365-.85-1.629-.755-2.042-1.193-2.042-2.166 0-.953.38-1.523 1.284-1.923 1.192-.527 3.022-.156 3.134.636.08.56-.177.708-.728.423-.69-.357-1.82-.323-2.209.065-.685.685-.31 1.263 1.304 2.008 1.511.699 1.97 1.19 1.97 2.106-.002 1.753-2.064 2.78-4.116 2.049zm7.534.08c-.758-.23-1.226-.66-1.644-1.514-.35-.717-.417-1.059-.417-2.157 0-1.104.066-1.438.425-2.173.476-.973 1.273-1.558 2.357-1.732 1.28-.204 2.722.503 2.722 1.335 0 .617-.17.668-.805.236-1.2-.814-2.495-.595-3.036.514-.403.828-.393 2.886.017 3.572.312.52 1.064.977 1.61.977.172 0 .712-.21 1.201-.468.49-.257.917-.468.951-.468.214 0 .017 1.085-.239 1.316-.657.596-2.152.863-3.142.563zm5.626-3.203v-3.197h-.633c-.621 0-.633-.01-.585-.506.045-.463.1-.511.634-.555l.584-.048v-.888c.001-1.579.758-2.522 2.044-2.548.91-.018 1.349.125 1.46.478.185.58-.035.744-.904.672-1.022-.085-1.195.094-1.31 1.355l-.084.933.918.047c.905.047.917.054.917.515 0 .46-.015.468-.896.514l-.897.047v6.378H35.218v-3.197zM5.201 52.952c-2.24-.712-3.947-2.342-4.81-4.598l-.335-.874L.01 27.287C-.02 12.721.016 6.798.144 6.031.604 3.28 2.72.927 5.35.241 6.164.03 8.435 0 23.442 0h17.162l5.337 5.236 5.337 5.237V28.83c0 16.298-.028 18.453-.247 19.205-.656 2.248-2.39 4.04-4.663 4.822-.89.307-1.286.313-20.726.303-15.568-.01-19.95-.053-20.44-.209zm40.396-4.535c.441-.258.77-.612.988-1.062.326-.673.327-.738.327-17.466V13.098h-8.576V4.36l-16.022.042-16.021.042-.552.343c-.303.189-.707.62-.896.957l-.345.613v20.216c0 21.498-.023 20.821.72 21.48.888.791-.229.75 20.472.751h19.244l.661-.387zM13.544 35.94v-2.262l11.889.04 11.89.04.043 2.222.043 2.222H13.544V35.94zm.068-6.204c-.043-.112-.058-1.148-.034-2.3l.043-2.098h23.701v4.522l-11.816.04c-9.61.033-11.83 0-11.894-.164zm-.068-10.478v-2.262H37.409l-.043 2.222-.044 2.222-11.89.04-11.889.04v-2.262z"/></svg>