<svg xmlns="http://www.w3.org/2000/svg" viewBox="0 0 53.287 70.005"><path fill="#00bcf2" d="M6.52 69.831c-.38-.151-.536-.675-.389-1.297.08-.332.209-.415.72-.457.341-.028.692.02.778.106.194.193.208 1.308.02 1.483-.246.228-.778.306-1.13.165zm5.432.01c-.787-.238-1.273-.687-1.707-1.573-.365-.745-.433-1.1-.433-2.241 0-1.147.067-1.495.44-2.258.496-1.012 1.323-1.62 2.45-1.8 1.33-.212 2.829.523 2.829 1.387 0 .642-.178.694-.837.246-1.246-.847-2.593-.619-3.154.534-.42.86-.41 2.998.017 3.71.324.542 1.106 1.016 1.673 1.016.178 0 .74-.219 1.248-.486s.953-.486.988-.486c.222 0 .017 1.127-.248 1.367-.684.619-2.236.896-3.266.584zm5.782-.084c-.698-.248-.9-.475-.905-1.006-.004-.53.24-.585.958-.219 1.583.808 3.313.063 2.823-1.214-.058-.151-.696-.549-1.418-.883-1.693-.785-2.122-1.24-2.122-2.25 0-.991.395-1.583 1.334-1.999 1.238-.547 3.14-.161 3.257.662.082.58-.184.735-.757.439-.717-.37-1.891-.336-2.295.067-.712.712-.322 1.312 1.354 2.086 1.571.726 2.049 1.236 2.048 2.189-.002 1.82-2.145 2.888-4.277 2.128zm7.354-.125c-1.03-.523-1.519-1.535-1.594-3.307-.095-2.238.58-3.652 2.004-4.196.92-.351 1.863-.236 2.648.323l.59.42.08-2.149.081-2.149.5-.049c.288-.028.581.05.69.182.141.169.18 1.67.15 5.638l-.044 5.408-.607.05c-.603.05-.608.046-.608-.556v-.608l-.445.427c-.994.952-2.27 1.162-3.445.566zm2.22-.941c.25-.095.692-.4.982-.68.523-.505.526-.518.526-2.084v-1.576l-.677-.58c-.372-.318-.828-.59-1.013-.604-1.576-.119-2.198.694-2.198 2.871 0 1.415.3 2.226.953 2.581.516.28.83.296 1.426.072zm7.025 1.094c-.762-.243-1.675-1.195-1.916-1.998-.25-.838-.256-2.663-.01-3.484.77-2.572 4.496-3.242 5.936-1.067.507.766.725 2.642.336 2.888-.122.077-1.298.142-2.612.144h-2.39v.582c0 .76.423 1.457 1.07 1.764.66.314 1.934.315 2.818 0 .858-.302.915-.301 1.035.012.381.993-2.408 1.747-4.267 1.154zm3.232-4.816c0-.535-.423-1.39-.829-1.675-.473-.331-1.47-.34-2.092-.019-.537.278-.967.994-.967 1.61v.413h1.944c1.847 0 1.944-.017 1.944-.33zm3.889 1.544v-3.321h-.659c-.645 0-.657-.01-.607-.527.046-.48.103-.53.658-.576l.608-.05v-.922c0-1.641.786-2.622 2.123-2.648.946-.02 1.401.13 1.518.496.191.604-.037.774-.94.699-1.062-.088-1.242.098-1.36 1.407l-.088.97.953.049c.94.049.953.056.953.535 0 .478-.015.487-.931.535l-.932.049v6.626h-1.296v-3.321zm-36.346-11.6C2.516 54.02.577 51.748.138 49.091c-.12-.723-.16-7.66-.127-22.116L.058 5.914l.348-.918C1.266 2.723 3.056 1.012 5.3.318 6.297.01 6.896 0 24.233 0h17.903l5.576 5.454 5.575 5.453-.043 19.376-.044 19.376-.353.86c-.815 1.99-2.75 3.8-4.702 4.404-1.034.319-1.468.325-21.574.32-20.112-.01-20.537-.012-21.463-.33zm41.984-4.43c.587-.307 1.27-1.046 1.48-1.604.118-.312.173-5.958.173-17.863V13.61H39.834V4.537H23.348c-15.726 0-16.516.017-17.15.305-.817.371-1.304 1.03-1.524 2.062-.113.528-.153 7.566-.124 21.284.04 18.715.068 20.537.313 20.981.334.607.904 1.146 1.433 1.357.26.104 7.512.165 20.382.172 16.895.01 20.044-.025 20.414-.218zm-33.02-13.138v-2.349H38.7v4.699H14.073v-2.35zm0-8.668v-2.43H38.7v4.86H14.073v-2.43zm0-8.668V17.66H38.7v4.699H14.073v-2.35z"/></svg>