<svg xmlns="http://www.w3.org/2000/svg" viewBox="0 0 53.52 70.001"><path fill="#00bcf2" d="M19.58 69.783c-6.246-.828-11.777-2.67-15.5-5.162-1.43-.956-3.148-2.716-3.668-3.756L0 60.041V9.2l.395-.752c1.79-3.4 7.85-6.304 16.038-7.684 3.915-.66 5.43-.771 10.361-.765 4.858.01 6.64.15 10.374.836 8.186 1.502 14.24 4.497 15.914 7.871l.437.881v51.14l-.393.824c-1.85 3.873-9.35 7.104-19.118 8.235-2.466.286-12.263.283-14.428 0zM32.9 14.835c5.61-.576 9.993-1.892 11.78-3.54.77-.71 1.008-1.162 1.008-1.918 0-2.344-4.832-4.397-12.435-5.283-2.544-.296-9.86-.34-12.298-.074-6.708.734-11.402 2.27-12.792 4.19-.453.626-.536 1.495-.203 2.138.987 1.909 5.42 3.596 11.415 4.343 4.112.512 9.386.568 13.525.144z"/></svg>