<svg xmlns="http://www.w3.org/2000/svg" viewBox="0 0 70 65.073"><path fill="#00bcf2" d="m24.59 58.955-10.203-6.112v-2.41c0-1.89.037-2.386.172-2.303.095.058 1.408.915 2.92 1.904a510.1 510.1 0 0 0 2.91 1.897c.096.06 2.974-2.22 7.275-5.763 3.913-3.224 7.186-5.868 7.274-5.876.088-.008 3.242 2.52 7.008 5.62 3.766 3.098 6.985 5.742 7.154 5.876.304.24.345.218 3.329-1.74 1.661-1.092 3.057-1.948 3.101-1.904.044.044.08 1.08.08 2.303 0 1.947-.03 2.25-.24 2.43-.412.356-20.246 12.203-20.417 12.196-.089-.004-4.752-2.757-10.363-6.118zM10.39 43.01C4.767 39.341.116 36.292.057 36.235c-.06-.057 3.032-2.624 6.87-5.703 3.839-3.08 6.997-5.647 7.018-5.705.022-.058-3.1-2.626-6.939-5.706-3.838-3.08-6.99-5.64-7.006-5.688C-.04 13.309 20.43.013 20.632.03c.09.008 3.332 2.667 7.204 5.909 3.871 3.241 7.082 5.909 7.135 5.927.053.019 3.275-2.627 7.16-5.88C46.016 2.737 49.249.042 49.315 0c.136-.084 20.73 13.294 20.684 13.437-.016.051-3.17 2.611-7.007 5.69-3.838 3.078-6.96 5.642-6.94 5.698.021.055 3.18 2.622 7.019 5.702 3.839 3.081 6.93 5.651 6.87 5.712-.062.06-4.708 3.111-10.327 6.78L49.4 49.686l-2.425-2.033-7.143-5.986c-2.66-2.229-4.798-3.923-4.9-3.884-.14.054-8.47 6.974-13.616 11.31l-.697.59L10.39 43.01zM45.32 31.2c5.547-3.381 10.16-6.216 10.25-6.299.124-.113-2.405-1.72-10.082-6.403-5.636-3.439-10.35-6.252-10.477-6.252-.33 0-20.766 12.483-20.641 12.608.302.305 20.585 12.588 20.713 12.544.084-.028 4.69-2.817 10.237-6.198z"/></svg>