<svg xmlns="http://www.w3.org/2000/svg" viewBox="0 0 43.922 70.001"><path fill="#00bcf2" d="M0 0h22.647v70H0V0zm9.47 50.785H3.568v5.902H9.47v-5.902zm9.128 0h-5.902v5.902h5.902v-5.902zM9.47 41.863H3.568v5.902H9.47v-5.902zm9.128 0h-5.902v5.902h5.902v-5.902zM9.47 32.804H3.568v5.902H9.47v-5.902zm9.128 0h-5.902v5.902h5.902v-5.902zM9.47 23.608H3.568v5.902H9.47v-5.902zm9.128 0h-5.902v5.902h5.902v-5.902zM9.47 14.549H3.568v5.902H9.47v-5.902zm9.128 0h-5.902v5.902h5.902v-5.902zM9.47 5.627H3.568v5.902H9.47V5.627zm9.128 0h-5.902v5.902h5.902V5.627zm6.725 17.187c.893-.026 1.785.026 2.677 0v-7.167h3.294v-7h2.333V2.059h2.06v6.588h2.333v7h3.294v7.167h2.608V70H25.254l.07-47.186zm9.128 22.48h-6.04v5.902h6.04v-5.902zm7-9.333H35.55v5.902h5.902v-5.902zm-7-9.196h-6.04v5.902h6.04v-5.902z"/></svg>