<svg xmlns="http://www.w3.org/2000/svg" viewBox="0 0 66 66.783"><path fill="#00bcf2" d="M10.435 0C4.59 0 .457 4.591.457 10.435v12.717H66L49.304 9v7.043H5.217v-5.608c0-2.713 2.557-5.87 5.479-5.87H55.76c2.713 0 5.413 2.948 5.413 5.87v2.478l4.565 4.63v-7.108C65.74 4.59 61.604 0 55.761 0H10.435zM0 27.783l16.696 13.76v-9h44.087v7.5c0 2.714-2.348 6.522-5.479 6.522h-44.87c-2.712 0-5.412-3.6-5.412-6.522v-2.478L.457 33v7.043c0 5.844 4.134 11.087 9.978 11.087h10.043l22.305 15.653-1.63-15.848H55.76c5.843 0 9.978-5.452 9.978-11.087V27.783H0z"/></svg>