<svg xmlns="http://www.w3.org/2000/svg" viewBox="0 0 70 69.959"><path fill="#00bcf2" d="M33.351 69.674c-.705-.264-1.82-1.348-16.698-16.23C3.88 40.67.647 37.366.397 36.832c-.738-1.575-.437-3.369.817-4.868.36-.43 5.27-5.349 10.912-10.932l10.26-10.151 3.925 3.925 3.925 3.926-.178.837c-.488 2.302.614 4.7 2.66 5.785l.633.336V44.98l-.604.284c-1.446.68-2.659 2.49-2.794 4.171-.213 2.658 1.398 4.907 4.007 5.594 1.153.303 1.31.306 2.349.043 3.252-.824 4.925-4.02 3.749-7.164-.3-.803-1.273-1.963-2.064-2.463l-.524-.33v-9.473c0-5.21.047-9.472.104-9.472.057 0 1.733 1.63 3.724 3.622l3.62 3.621-.16.48c-.226.69-.207 2.165.041 3.017.453 1.558 1.917 3.007 3.518 3.482.529.157 1.092.207 1.875.166 2.508-.13 4.347-1.795 4.873-4.412.3-1.491-.378-3.456-1.581-4.59-1.364-1.284-3.036-1.768-4.698-1.358l-.944.233-3.825-3.825-3.826-3.826.176-1.044c.542-3.23-1.639-6.077-4.789-6.251-.55-.03-1.287.017-1.639.106l-.64.16-3.948-3.955-3.949-3.956 3.466-3.53C32.88.222 33.177.014 34.998.014c2.048 0 .755-1.161 18.476 16.584 12.645 12.66 15.865 15.956 16.13 16.505.476.987.528 2.347.13 3.433-.293.799-.778 1.3-16.317 16.839-15.35 15.35-16.048 16.027-16.81 16.305-1.023.373-2.247.37-3.256-.01z"/></svg>