<svg xmlns="http://www.w3.org/2000/svg" viewBox="0 0 64.06 64.06"><path fill="#00bcf2" d="M25.962 0C11.933 0 .566 3.41.126 7.695H.063v34.407h12.762l3.566-4.004H8.008V24.085h20.707l5.317-6.006v6.006h8.008v10.01h9.821v-26.4H51.8C51.359 3.41 39.99 0 25.962 0zm25.9 34.094v4.004h4.19v4.004l8.008-6.006-8.007-6.006v4.004H51.86zm0 4.004H42.04V52.11h-8.008v6.006H22.021V52.11H4.004l5.318-6.006H.063v9.572c-.022.136-.063.3-.063.438 0 .086.054.102.063.187.44 4.284 11.808 7.758 25.837 7.758s25.396-3.474 25.836-7.758h.125V38.098zM.062 46.105v-4.003H0v4.003h.063zM26.275 3.691c10.875 0 19.706 2.263 19.706 5.004 0 2.742-8.83 5.005-19.706 5.005-10.875 0-19.643-2.263-19.643-5.005 0-2.74 8.768-5.004 19.643-5.004zM12.012 28.089v6.005h7.882l5.317-6.005h-13.2zm22.02 0v6.005h4.004V28.09h-4.004zm-4.004 2.001-3.565 4.004h3.565V30.09zm-7.131 8.008-3.566 4.004h6.694v6.005h4.003v-10.01h-7.131zm11.135 0v10.01h4.004v-10.01h-4.004zm-18.267 8.007-1.751 2.002h8.007v-2.002h-6.256zm10.26 6.006v2.002h4.003V52.11h-4.003z"/></svg>