<svg xmlns="http://www.w3.org/2000/svg" viewBox="0 0 86.49 65.892"><path fill="#00bcf2" d="M53.924 0c-.214 0-.425.007-.64.016-2.688.118-5.596 1.032-9.044 2.53-3.2 1.39-4.335 2.796-6.306 5.313h.064c2.003-.05 3.992-.112 6.05-.304a80.996 80.996 0 0 1-6.258 1.2c-2.308.35-3.014.293-4.754 1.985-3.205 3.117-5.888 6.647-8.819 9.811-1.696 1.832-2.54 3.659-3.537 5.746-.991 2.078-.845 2.863.48 4.658 1.357 1.838 2.164 2.673 2.737 4.305 1.499-2.31 3.314-4.231 5.218-6.53-1.555 2.49-2.974 4.848-4.257 7.379-.8 1.576-1.192 2.373-1.169 4.113 1.503 1.733 2.446 2.658 3.841 3.041 1.503.413 2.916.352 4.274-.352 3.378-1.75 6.592-4.034 10.34-4.321 1.934-3.45 1.383-7.79.688-11.716-.577-3.258-.426-6.141.352-9.412.195 3.176.444 6.137 1.072 9.251.92 4.562 1.117 8.49-.8 13.205-4.145.1-7.546 2.539-11.22 4.418-1.654.845-3.193.92-5.042.48-1.885-.448-3.34-1.895-5.282-4.018.193-1.61.405-2.614.977-3.793-.693-2.083-1.551-3.04-3.137-5.17-1.84-2.47-1.869-3.54-.48-6.354 1.004-2.037 1.954-3.915 3.537-5.778 1.563-1.84 2.984-3.547 4.433-5.17-6.028.918-9.87 2.357-13.988 5.97-3.054 2.68-4.963 6.015-6.323 9.86-.858 2.426-1.093 4.868-.688 8.835.521 5.108 3.242 10.87 6.162 15.077-.356 2.617-.823 4.596-1.552 6.466-.83 2.125 2.47 2.765 4.065 3.201 1.295.355 6.188 1.705 6.674-.032.293-1.045.297-1.764.224-2.865.877-1.744 1.151-1.992 1.777-3.025.669-1.103.716-1.536.72-2.833.006-1.673-.037-4.664.032-5.746.228.966.498 2.31.72 3.602 3.491.622 6.962.585 10.452-.128.044-.245.115-.522.208-.849.234-.816.695-1.632.929-2.449-.064.804-.113 1.614-.176 2.417-.066.83-.07 1.497.032 2.321.056.455.103.906.16 1.36-.256-.416-.652-.815-.88-1.232-1.556 1.021-2.398 1.593-3.922 2.4-1.612.855.23 3.92.896 4.979 1.463 2.324 3.22 5.07 5.938 3.633.892-.472 1.408-1.565 2-2.353.798-.47 5.039-4.028 5.715-4.417.948-.547 4.368-6.156 4.802-7.555.957-3.093 2.067-5.443 2.384-8.675-2.178-.914-3.24-1.941-4.801-3.777 2.195 1.625 4.1 2.502 6.466 3.249.862.762 1.737 1.532 2.64 2.337 1.313 1.167 2.518 2.35 4.418 2.384 2.056.036 4.38-1.54 4.978-3.489l.688-2.24c-.408-.1-.8-.218-1.184-.337-.428 1.027-.406 1.424-.608 2.177-.347 1.29-2.11 2.193-3.97 1.745-.661-.16-1.059-.261-1.296-.433.19.51.553.948 1.232 1.073.75.138 1.31.198 2.401-.048-1.348.695-1.782.724-2.737.512-2.508-.557-1.635-3.579-1.088-5.426.344-1.164.227-2.403-.032-3.57.95.6 1.703 1.141 2.785 1.505 5.068 1.708 11.096 3.44 16.197.593 4.002-2.234 6.183-7.18 6.675-11.716.438-4.044-.31-10.362-1.969-14.373-.382-.924-1.909-2.306-2.881-1.36-.98.952-1.716 2.293-2.785 3.136-1.454 1.146-3.96.753-3.505 3.185.33 1.773.426 3.744.048 5.394-.363 1.585-.742 3.835-1.569 4.898.246-.899.655-3.236.769-4.818.062-.867-.032-1.924-.192-2.977-.184.004-.377.013-.56.016-.669.015-1.756.971-2.05 1.569-.816 1.664-.863 3.204-1.776 4.785.737-1.769.322-3.355.992-5.25.238-.671.827-1.251 1.52-1.6-.385-.058-.758.105-1.328.24-2.443.579-2.341 2.504-3.84 4.338 1.443-2.655.701-4.422 3.84-5.138 1.033-.236 1.803-.318 2.481.224.015-.001.018-.015.032-.016.178-.014.35-.018.528-.032a54.531 54.531 0 0 0-.272-1.425c-1.433-.188-2.757-.143-4.225.08.317-.137.627-.273.928-.384a1.165 1.165 0 0 1-.24-.352v-.016a2.18 2.18 0 0 1-.24-1.216c.032-.33.146-.628.304-.897-.049.012-.097.014-.144.032-.35.14-1.089.1-1.424-.016.658-.106 1.637-.459 2.272-.768.017-.008.033-.009.048-.016a2.18 2.18 0 0 1 2.065-.128c.296.088.63.195 1.024.336a23.007 23.007 0 0 0-2.112-3.537c-.777-1.082-1.429-1.452-2.577-2.129-.251-.148-.482-.31-.72-.464-.85-.155-1.807-.3-2.625-.144.672-.264 1.186-.382 1.776-.432-1.627-1.164-3.02-2.46-4.625-3.81C60.07 1.226 57.125.017 53.923 0zm2.096 10.884c-3.235 1.553-4.075 3.567-4.545 5.65-.551-2.768.257-4.576 4.545-5.65zm-12.708.24a35.985 35.985 0 0 1-4.434 1.425c-1.369 1.799-2.197 2.726-2.513 5.137-.37-2.372-.447-2.806.609-4.577-.306.155-.6.371-1.009.72-1.475 1.261-3.392 6.215-4.161 7.987.488-2.133 2.013-7.473 3.585-9.027 1.034-1.022 1.263-.999 2.721-1.137 1.737-.164 3.466-.332 5.202-.528zm39.822.192c-.609 2.402-1.831 4.457-4.37 5.362-1.247.444-2.06-.02-3.329-.384 1.248.118 1.971.313 3.089-.24 2.084-1.031 3.615-2.724 4.61-4.738zm-8.867 3.25c-.146.002-.295.01-.433.015.205.203.367.438.48.705.063-.057.14-.11.209-.16-.085-.19-.169-.377-.256-.56zm-12.709 1.568c-.477.434-1.09.772-1.712 1.104a2.889 2.889 0 0 1 1.616 1.473c.143.299.238.616.272.928.94-.308 1.862-.46 2.641-.448-2.787.782-5.75 2.619-7.795 5.042.23-.632.542-1.204.929-1.713a2.866 2.866 0 0 1-1.265-1.312 2.882 2.882 0 0 1-.288-1.217c-.689.55-1.43 1.075-2.209 1.377 1.074-.96 2.529-3.224 3.586-3.938 1.199-.81 2.827-.65 4.225-1.296zm-57.764 4.85c-1.882 1.134-5.337 4.295-3.025 6.69.25.905.457 1.605.8 2.32.707 1.476 2.55 1.092 3.954.497.036-.121.073-.231.112-.352.232-.732.47-1.442.736-2.13a6.41 6.41 0 0 1-1.937 1.233c-1.963.787-1.925.102-2.768-1.6 1.795-1.434.964-3.208 1.536-5.186.132-.456.32-.887.592-1.472zm.48 1.072c-.033.11-.066.207-.096.32-.057.22-.096.462-.128.704.37-.042.595.147.88.432-.052-.681-.177-1.178-.656-1.456zM62.166 34.78c-.493.269-1.38.628-1.872.897-.695.378-.89.452-1.217 1.168-.31.677-.614 1.499-.88 2.209.1-.628.221-1.405.32-2.033.21-1.333.374-1.66 1.729-1.889.507-.085 1.413-.266 1.92-.352zM5.827 44.127c-.197.526-.395 1.043-.592 1.569-.899.91-1.79 1.827-2.69 2.737-.666.676-.805.692-.671 1.649.184 1.31.972 2.709 2.128 3.889 1.058 1.08 4.71 3.906 6.146 1.985.306-.41.45-.918.577-1.44v-.065c-2.01-3.04-3.834-6.643-4.898-10.324zm48.305 2.401c-.478 1.707-1.11 3.323-1.697 5.17-.555 1.748-3.414 6.82-5.09 8.05.326.244.935.341 2.001.433.754.065 3.719.083 4.466.096 1.644.029 2.266-.096 2.432-1.969.082-.916.01-1.085-.448-1.888-.04-1.433-.072-2.873-.112-4.306-.038-1.358-.298-2.143-.832-3.409-.32-.758-.5-1.464-.72-2.177zM33.276 54.5c-.027.004-.052.013-.08.016l.016.016c.02-.012.044-.02.064-.032z" color="#000" overflow="visible"/></svg>