<svg xmlns="http://www.w3.org/2000/svg" viewBox="0 0 70 59.55"><path fill="#00bcf2" d="M33.062 58.829c-6.6-3.292-17.806-13.73-24.91-23.204l-.386-.515h4.91c3.328 0 5.08-.05 5.44-.159.955-.286 1.508-.918 2.586-2.955 1.976-3.735 2.249-4.223 2.288-4.09.022.073.446 4.3.943 9.393.873 8.954.915 9.282 1.271 9.937.621 1.14 1.475 1.63 2.854 1.636 1.016 0 1.762-.342 2.416-1.12.253-.3 1.82-3.205 3.482-6.452l3.02-5.905 10.367-.04c10.322-.038 10.369-.04 10.916-.335 1.18-.637 1.776-1.62 1.775-2.93 0-1.372-.674-2.42-1.913-2.98-.512-.23-1.301-.25-11.802-.285-7.698-.026-11.48.01-11.97.11-1.272.265-1.773.788-3.01 3.142l-1.09 2.074-.105-.516c-.057-.283-.477-4.377-.932-9.097-.455-4.72-.885-8.8-.957-9.065-.364-1.366-1.628-2.266-3.166-2.255-1.049.01-1.948.44-2.487 1.194-.174.244-1.929 3.534-3.898 7.31l-3.581 6.867-5.768.036-5.768.036-.831-1.684C.693 22.797-.138 19.367.018 15.682.142 12.756.712 10.67 2.061 8.2 3.17 6.17 5.126 3.843 6.754 2.62 8.537 1.28 10.906.374 13.4.08c2.108-.248 4.607.09 7.374.997 1.215.398 4.215 1.907 5.63 2.831 2.45 1.602 5.685 4.464 7.84 6.937l.81.93.94-1.24c1.885-2.486 4.788-5.108 7.552-6.821C48.74.494 54.604-.567 59.216.879c3.75 1.176 6.775 3.995 8.982 8.371 2.198 4.36 2.394 9.858.539 15.14-1.067 3.038-2.399 5.66-4.468 8.798-2.558 3.88-4.875 6.647-9.089 10.854-5.317 5.31-11.01 9.904-16.487 13.307-1.606.998-3.843 2.204-4.082 2.201-.059 0-.756-.325-1.55-.72z"/></svg>