<svg xmlns="http://www.w3.org/2000/svg" viewBox="0 0 72.067 54.05"><path fill="#00bcf2" d="M8.008 0A7.99 7.99 0 0 0 0 8.008v38.035a7.99 7.99 0 0 0 8.008 8.008H64.06a7.99 7.99 0 0 0 8.008-8.008V8.008A7.99 7.99 0 0 0 64.06 0H8.008zm0 4.004H64.06a3.995 3.995 0 0 1 4.004 4.004v38.035a3.995 3.995 0 0 1-4.004 4.004H8.008a3.995 3.995 0 0 1-4.004-4.004V8.008a3.995 3.995 0 0 1 4.004-4.004zm0 4.004v38.035h12.011V8.008H8.008zm16.015 0v10.01H64.06V8.007H24.023zm5.005 2.002a3.003 3.003 0 1 1 0 6.005 3.003 3.003 0 0 1 0-6.005zm10.071 0a3.003 3.003 0 1 1 0 6.005 3.003 3.003 0 0 1 0-6.005zm10.01 0a3.003 3.003 0 1 1 0 6.005 3.003 3.003 0 0 1 0-6.005zm10.01 0a3.003 3.003 0 1 1 0 6.005 3.003 3.003 0 0 1 0-6.005zM24.022 22.02v24.023h4.004V32.03h2.001v14.013h4.004V26.025h2.002v20.018h4.004v-6.005h2.002v6.005h4.003V32.03h2.002v14.013h4.004v-12.01h2.002v12.01h4.004V28.026h2.001v18.017h4.004V22.021H24.023z"/></svg>