<svg xmlns="http://www.w3.org/2000/svg" viewBox="0 0 70 78.086"><path fill="#00bcf2" d="M17.539 68.513 0 58.887V45.139l1.609-.047c1.84-.054 3.99.16 5.188.515 1.207.359 2.096 1.317 2.763 2.979 2.867 7.148 7.182 12.053 13.263 15.076 3.315 1.648 6.173 2.416 10.01 2.69 6.036.431 11.877-1.022 16.642-4.141 4.519-2.958 8.028-7.302 10.285-12.733.505-1.216 1.106-2.397 1.388-2.725 1.01-1.18 2.925-1.69 6.342-1.69h2.135l.15.393c.087.231.149 2.92.149 6.55v6.156l-17.171 9.935c-9.444 5.464-17.285 9.959-17.424 9.988-.139.03-8.144-4.278-17.79-9.572zm15.919-10.917c-7.495-.541-13.864-5.927-15.884-13.432-.357-1.33-.397-1.758-.405-4.31-.01-2.454.038-3.016.338-4.203 1.43-5.654 5.333-10.216 10.6-12.39 1.337-.55 3.192-1.067 4.484-1.246 1.258-.175 4.115-.103 5.473.138 6.763 1.198 12.422 6.376 14.156 12.953 2.426 9.2-2.516 18.501-11.48 21.607-2.236.775-4.676 1.07-7.282.883zm5.65-12.074c4.39-2.907 7.984-5.324 7.987-5.372 0-.048-3.596-2.457-7.997-5.351a2867.357 2867.357 0 0 1-8.425-5.552l-.421-.289v22.415l.437-.284c.24-.155 4.028-2.66 8.418-5.567zm26.067-9.75c-2.674-.403-3.8-1.319-4.898-3.987-2.2-5.347-4.008-8.183-7.356-11.541-2.449-2.458-4.231-3.766-6.969-5.117-3.717-1.834-6.853-2.556-11.105-2.556-7.158 0-13.313 2.654-18.385 7.928-2.992 3.111-4.74 5.919-7.121 11.44-.74 1.717-1.259 2.428-2.15 2.95-1.086.637-2.171.825-4.78.828H.074l.04-7.897.04-7.896L17.56 9.962 34.966 0 52.33 9.729l17.364 9.729.107 6.1c.06 3.355.128 7.047.153 8.206L70 35.87l-2.22-.02c-1.222-.013-2.394-.048-2.604-.08z"/></svg>