<svg xmlns="http://www.w3.org/2000/svg" viewBox="0 0 70.001 54.076"><path fill="#00bcf2" d="M2.112 53.755C1.285 53.37.517 52.554.206 51.731c-.211-.557-.226-2.506-.191-24.905L.053 2.525l.364-.618c.448-.76.826-1.115 1.626-1.532l.618-.322L34.714.018C70.262-.02 67.6-.09 68.756.9c.331.284.743.822.921 1.207l.324.694v48.464l-.325.687a3.76 3.76 0 0 1-1.87 1.842c-.615.279-.73.28-32.812.281l-32.196.002-.686-.32zm60.752-22.819c0-12.655-.035-15.845-.172-15.763-.094.056-5.92 4.56-12.945 10.009-7.025 5.449-13.022 10.072-13.327 10.274-.86.569-1.869.729-2.829.45-.866-.254.358.673-16.96-12.826l-9.37-7.303v31.025H62.863V30.936zM49.178 16.46l11.77-9.13-13.183-.035c-7.25-.019-19.122-.019-26.38 0L8.19 7.33l13.15 10.254 13.15 10.254 1.46-1.124c.802-.618 6.756-5.232 13.23-10.254z"/></svg>