<svg xmlns="http://www.w3.org/2000/svg" viewBox="0 0 70 43.47"><path fill="#00bcf2" d="M13.018 43.37c-4.059-.47-8.285-3.018-10.454-6.305C.678 34.21-.125 31.376.016 28.071c.167-3.94 1.463-6.922 4.213-9.693 2.18-2.197 4.05-3.288 6.98-4.075 1.164-.312 1.6-.357 3.526-.36 1.81 0 2.391.048 3.296.287.604.16 1.194.329 1.31.375.163.064.318-.18.669-1.053C22.702 6.844 28.384 2.062 35.655.38c1.531-.354 5.467-.5 7.21-.269 9.569 1.274 17.11 8.691 18.654 18.346.351 2.199.141 6.321-.422 8.274l-.13.447h.85c3.129.01 6.034 1.805 7.348 4.543.695 1.448.905 2.515.815 4.144-.189 3.418-2.385 6.16-5.873 7.331-.722.242-1.83.254-25.407.271-13.558.01-25.115-.036-25.682-.101zm23.519-12.902c.283-.08.73-.366.995-.639l.481-.495v1.14h2.06v-7.003h-2.06v2.245c0 2.111-.019 2.274-.313 2.713-.27.402-.401.472-.946.508-.548.036-.671-.01-.923-.328-.27-.343-.29-.535-.29-2.754v-2.384h-2.233l.068 2.643c.041 1.572.135 2.811.233 3.056.47 1.172 1.59 1.67 2.927 1.298zm16.068-.147c.51-.165.515-.174.515-.9 0-.402-.023-.732-.052-.732a4.98 4.98 0 0 0-.545.206c-.648.271-2.047.266-2.579-.01-.338-.175-.806-.884-.806-1.222 0-.04 1.02-.073 2.266-.073h2.266v-.996c-.01-2.031-1.17-3.26-3.087-3.26-2.276 0-3.81 2.038-3.395 4.508.237 1.405 1.027 2.303 2.308 2.624.656.165 2.41.082 3.112-.146zm-3.381-4.076c-.138-.223.43-1.204.792-1.37.457-.208.663-.211 1.091-.016.375.171.64.651.64 1.16 0 .332-.016.336-1.228.336-.675 0-1.258-.049-1.295-.11zm-30.45 3.093.345-1.068 1.783.038 1.782.038.345 1.064.345 1.064h1.149c1.128 0 1.147-.01 1.052-.309-.053-.17-.822-2.348-1.708-4.84l-1.61-4.533-1.303-.039-1.303-.039-1.737 4.777c-.956 2.628-1.737 4.826-1.737 4.886 0 .06.506.091 1.125.07l1.125-.04.346-1.069zm.836-2.812c0-.056.242-.844.538-1.75.295-.907.58-1.834.634-2.06.087-.37.13-.29.415.755.175.642.446 1.532.602 1.978.426 1.22.458 1.18-.953 1.18-.68 0-1.236-.046-1.236-.103zm12.635 3.193v-.755h-1.57c-.865 0-1.6-.046-1.633-.103-.033-.057.674-1.057 1.572-2.224 1.427-1.855 1.631-2.186 1.631-2.643v-.523H26.34v1.51h1.58c.868 0 1.577.046 1.576.103 0 .057-.774 1.092-1.717 2.3-1.389 1.782-1.713 2.282-1.713 2.644v.447h6.18v-.756zm11.833-1.27c.04-1.741.086-2.093.328-2.506.387-.66.898-.89 1.586-.715l.536.136v-.93c0-1.049-.15-1.192-.999-.951-.596.17-.693.245-1.112.865l-.36.534v-1.411h-2.06v7.004h2.034l.047-2.026z"/></svg>