<svg xmlns="http://www.w3.org/2000/svg" viewBox="0 0 50.047 74.069"><path fill="#00bcf2" d="M4.191 0A4.173 4.173 0 0 0 0 4.192v65.624c0 2.329 1.862 4.254 4.191 4.254h41.664c2.33 0 4.192-1.925 4.192-4.254V4.192A4.173 4.173 0 0 0 45.855 0H4.191zm11.824 4.004h18.017v2.002H16.015V4.004zM4.004 10.01h42.039v52.048H4.003V10.01zm20.894 14.513-10.885 5.505 10.885 6.507 11.135-6.507-11.135-5.505zM14.013 32.03v12.012l10.01 6.005V38.036l-10.01-6.006zm22.02.062-10.009 6.006v12.011l10.01-6.005V32.092zm-18.016 33.97H32.03v4.003H18.017v-4.003z"/></svg>