<svg xmlns="http://www.w3.org/2000/svg" viewBox="0 0 47.493 70"><path fill="#00bcf2" d="M2.902 69.714c-.937-.36-1.998-1.395-2.477-2.417l-.371-.792-.036-31.21C-.02.795-.084 3.316.851 2A4.704 4.704 0 0 1 3.095.261c.747-.279.886-.28 20.826-.245l20.074.036.93.458c1.085.534 1.837 1.381 2.282 2.57l.285.763-.035 31.334-.035 31.334-.451.916c-.542 1.1-1.401 1.907-2.451 2.3-.739.276-.964.28-20.821.272-19.806-.01-20.085-.011-20.797-.285zm25.714-4.678c.436-.198.751-.767.751-1.353 0-.309-.133-.566-.467-.899l-.466-.467h-4.415c-4.867 0-5.016.023-5.44.843-.302.584-.158 1.246.369 1.689l.417.351h4.446c3.154 0 4.55-.048 4.805-.164zm14.07-32.444V7.397H4.79V57.786h37.894V32.592zM32.793 4.626c.193-.207.28-.487.28-.9 0-.77-.416-1.215-1.252-1.337-.897-.13-16.351-.022-16.636.117-.663.323-.846 1.547-.31 2.083l.337.337H32.514l.28-.3z"/></svg>