<svg xmlns="http://www.w3.org/2000/svg" viewBox="0 0 51.756 70"><path fill="#00bcf2" d="m21.985 69.974-1.788-.2c-6.042-.672-11.714-2.531-15.814-5.183-1.503-.972-3.37-2.856-3.919-3.955l-.412-.825-.036-25.19C-.02 9.697-.017 9.424.256 8.701 1.499 5.403 7.54 2.261 15.384.832 19.127.151 20.917.006 25.697 0c4.556-.006 5.784.078 9.145.626 4.034.658 7.762 1.762 10.625 3.145 3.053 1.476 4.988 3.102 5.845 4.912l.444.937v24.958c0 24.142-.01 24.98-.26 25.646-1.275 3.373-6.403 6.56-13.493 8.388-3.932 1.014-6.434 1.314-11.412 1.37-2.269.026-4.342.023-4.607-.007zm21.35-20.728c1.832-.524 3.174-1.562 3.586-2.773.199-.582.228-1.446.228-6.694v-6.026h-5.083l-.037 3.678-.037 3.679-2.69-.01c-1.48-.005-2.795-.05-2.922-.1-.21-.08-.233-.435-.233-3.668v-3.58l-3.472.005-3.472.004.653.374.652.374v3.378c0 3.848.092 4.38.922 5.349.676.789 2.076 1.442 3.524 1.643.591.082 2.024.15 3.185.15 1.708 0 2.273-.052 2.975-.27.476-.148.89-.245.92-.215.03.03-.02.274-.108.544-.304.92-.191.903-5.878.903H30.92v3.6l5.81-.059c4.86-.05 5.94-.096 6.603-.286zm-24.688-4.404c.39-.198.866-.566 1.059-.82.193-.252 1.036-1.97 1.875-3.817.838-1.847 1.581-3.417 1.651-3.489.078-.08.128 1.525.128 4.16v4.29h5.088v-5.775c0-4.523.037-5.778.172-5.787.137-.009.137-.024 0-.08-.121-.048-.173-.466-.175-1.398 0-1.553-.227-2.189-1.008-2.874-1.019-.895-3.72-1.23-5.061-.627-1.387.623-1.59.98-5.254 9.219-.312.7-.606 1.272-.655 1.272-.05 0-.878-1.841-1.841-4.091-2.1-4.905-2.14-4.986-2.752-5.598-.97-.97-2.108-1.276-3.848-1.034-1.5.209-2.252.599-2.646 1.373l-.31.607v14.793h4.676v-4.29c0-2.556.05-4.238.124-4.16.068.072.753 1.523 1.522 3.225 1.652 3.656 1.916 4.134 2.561 4.626 1.084.826 3.344.959 4.694.275zM29.89 14.77c6.482-.479 11.605-1.925 13.486-3.807.8-.8 1.005-1.469.697-2.275-.782-2.049-4.933-3.717-11.432-4.595-2.63-.355-11.047-.354-13.683.002-5.113.69-8.911 1.925-10.54 3.427-1.052.97-1.252 1.703-.74 2.709.38.743 1.092 1.294 2.686 2.076 2.644 1.297 6.67 2.138 12.032 2.515 1.522.107 5.74.078 7.494-.052z"/></svg>