<svg xmlns="http://www.w3.org/2000/svg" viewBox="0 0 70 69.992"><path fill="#00bcf2" d="m32.96 61.639-11.722-8.344-2.474-.09c-1.361-.05-4.46-.09-6.886-.09-4.835 0-5.25-.05-6.9-.838-.49-.234-1.272-.789-1.784-1.265C1.444 49.38.426 47.309.138 44.789.05 44.026-.001 36.82 0 25.452 0 5.36-.04 6.31.908 4.385 1.595 2.989 3 1.585 4.396.897c1.99-.98-.027-.922 30.648-.877 30.766.045 28.026-.044 30.094.986a8.853 8.853 0 0 1 3.977 3.955c.954 1.897.911.82.866 21.864-.047 21.168.034 19.475-1.032 21.622-.744 1.5-2.324 3.056-3.881 3.824-1.995.983-1.903.976-12.663.979-8.36 0-9.576.028-9.576.205 0 .253 1.89 15.65 1.984 16.168.038.208.024.374-.03.369-.055-.01-5.375-3.765-11.823-8.354zM56.632 44.67c1.435-.734 2-2.123 1.477-3.636-.143-.415-2.577-4.554-5.408-9.198a1196.761 1196.761 0 0 1-9.947-16.673c-5.283-9.062-5.495-9.364-6.86-9.761-1.284-.373-2.398-.047-3.378.99-.944 1-19.93 32.699-20.544 34.3-.426 1.111-.308 2.21.329 3.05.376.498 1.36 1.122 2.019 1.28.239.057 9.675.095 20.968.083l20.534-.02.81-.415zM34.1 39.338c-1.368-.447-2.047-1.41-2.048-2.903 0-1.247.397-2.007 1.362-2.602.59-.365.803-.418 1.67-.418.881 0 1.061.047 1.59.413.785.545 1.35 1.635 1.346 2.598-.003.712-.366 1.71-.793 2.184-.646.714-2.12 1.057-3.127.728zm-1.027-8.909c-.005-.245-.176-3.458-.38-7.139l-.37-6.692h5.42l-.064.583c-.035.32-.192 3.333-.348 6.693-.156 3.36-.313 6.31-.35 6.555l-.068.446h-3.832l-.008-.446z"/></svg>