<svg xmlns="http://www.w3.org/2000/svg" viewBox="0 0 69.989 70"><path fill="#00bcf2" d="M0 34.995V0h69.989V31.63l-.806-.893c-2.898-3.21-7.411-6.003-11.888-7.355-4.12-1.244-8.927-1.44-13.19-.536-10.277 2.176-18.428 10.21-20.685 20.387-1.859 8.379.301 16.932 5.926 23.464 1.638 1.903 2.953 3.071 3.357 2.981.166-.037 1.382-.48 2.703-.986 2.937-1.124 14.313-5.34 21.203-7.858 4.247-1.553 5.238-1.867 6.058-1.925.847-.06 1.056-.026 1.545.25 1.127.633 1.512 1.928.943 3.17-.34.744-1.05 1.442-6.578 6.467L57.252 70l-1.265-.04-1.265-.04 4.325-3.95c2.47-2.256 4.396-4.12 4.489-4.345.126-.305.126-.464 0-.699-.348-.65-.474-.608-18.959 6.235l-7.64 2.828H0V34.994zM48.008 59.84c-4.19-.768-7.425-3.549-8.707-7.485-.268-.824-.375-1.493-.428-2.684-.096-2.129.17-3.453 1.058-5.276 1.37-2.811 3.664-4.757 6.728-5.708.866-.269 1.336-.32 2.95-.325 2.152-.01 3.105.21 4.941 1.112 2.665 1.31 4.8 3.986 5.57 6.98.357 1.387.392 3.707.075 5.042-1.145 4.825-5.244 8.213-10.173 8.408-.755.03-1.661 0-2.014-.063zm3.426-2.006c2.654-.541 4.995-2.355 6.181-4.788.618-1.268.88-2.43.882-3.916.004-2.534-.792-4.466-2.572-6.247-2.824-2.826-6.793-3.472-10.364-1.685-2.245 1.124-3.975 3.326-4.612 5.871-.3 1.199-.202 3.56.2 4.806 1.388 4.3 5.822 6.87 10.285 5.96zm-2.284-1.51c-.228-.096-.516-.37-.64-.611-.648-1.254.996-2.385 2.002-1.379.506.506.527 1.076.06 1.63-.406.484-.857.598-1.422.36zm-4.099-1.675c-.366-.057-1-.774-1-1.132 0-.665.67-1.368 1.305-1.368.42 0 1 .406 1.136.797.343.983-.403 1.865-1.44 1.703zm8.367-.103a1.199 1.199 0 0 1-.298-2.042c.572-.48 1.135-.465 1.647.046.99.99-.057 2.539-1.35 1.996zm-5.032-2.116c-2.377-.958-3.027-4.029-1.232-5.824.9-.899 2.46-1.275 3.579-.862 2.458.906 3.22 4.03 1.422 5.829-1.02 1.02-2.519 1.361-3.77.857zm-5.466-2.213c-.295-.172-.652-.838-.652-1.215 0-.463.692-1.122 1.193-1.136.839-.024 1.536.759 1.348 1.51-.2.797-1.2 1.242-1.89.84zm11.923-.214c-.49-.49-.501-1.295-.025-1.771.756-.756 2.134-.201 2.134.859 0 .339-.113.585-.401.873-.532.531-1.2.547-1.708.039zm-10.063-4.03c-.31-.126-.728-.787-.728-1.153 0-1.019 1.382-1.605 2.13-.903 1.044.982-.058 2.597-1.402 2.055zm8.319-.263c-.833-.833-.335-2.07.834-2.07.743 0 1.235.467 1.235 1.171 0 .657-.611 1.3-1.235 1.3-.296 0-.56-.127-.834-.401zm-4.05-1.54c-.156-.076-.392-.32-.524-.544-.602-1.02.529-2.216 1.611-1.702.855.406 1.019 1.317.355 1.98-.44.44-.904.526-1.441.266z"/></svg>