<svg xmlns="http://www.w3.org/2000/svg" viewBox="0 0 69.652 70"><path fill="#00bcf2" d="M45.617 0C32.344 0 21.585 10.759 21.585 24.032c.097 6.205.342 23.78.342 23.78s16.99-.055 23.69.255c13.272 0 24.034-10.762 24.034-24.035S58.89 0 45.616 0zM20.382 26.994a21.728 21.728 0 0 0-3.975.623v3.308h3.975v-3.931zm-5.5 1.071a21.728 21.728 0 0 0-3.974 1.768v1.092h3.975v-2.86zM7.207 32.5a21.728 21.728 0 0 0-2.052 2.07v1.908H9.13v-3.978H7.206zm3.702 0v3.978h3.975v-3.978h-3.975zm-8.119 5.456a21.728 21.728 0 0 0-1.756 3.974H3.6v-3.974h-.81zm8.119 0v3.974h3.975v-3.974h-3.975zm5.5 0v3.974h3.974v-3.974h-3.975zM.59 43.513a21.728 21.728 0 0 0-.59 3.977h3.6v-3.977H.59zm4.563 0v3.977h3.978v-3.977H5.154zm5.754 0v3.977h3.975v-3.977h-3.975zm5.5 0v3.977h3.974v-3.977h-3.974zM5.154 49.267v3.977H9.13v-3.977H5.154zm11.254 0v3.977h3.974v-3.977h-3.974zm5.771 0v3.977h3.975v-3.977h-3.975zm5.517 0v3.977h3.975v-3.977h-3.975zm5.482 0v3.977h3.975v-3.977h-3.975zm5.646 0v3.977h3.978v-3.977h-3.978zM.864 54.875a21.728 21.728 0 0 0 1.624 3.977h1.113v-3.977H.864zm4.29 0v3.977h3.978v-3.977H5.155zm5.755 0v3.977h3.974v-3.977H10.91zm5.5 0v3.977h3.974v-3.977h-3.975zm5.77 0v3.977h3.975v-3.977H22.18zm11 0v3.977h3.974v-3.977H33.18zm5.646 0v3.977h2.03a21.728 21.728 0 0 0 1.628-3.977h-3.658zm-33.67 5.777v2.105a21.728 21.728 0 0 0 1.797 1.87h2.18v-3.975H5.155zm5.754 0v3.975h3.974v-3.975H10.91zm11.27 0v3.975h3.975v-3.975H22.18zm5.518 0v3.975h3.974v-3.975h-3.974zm5.482 0v3.975h3.216a21.728 21.728 0 0 0 .758-.735v-3.24H33.18zm-22.27 5.37v1.514a21.728 21.728 0 0 0 3.974 1.765v-3.278H10.91zm5.5 0v3.709a21.728 21.728 0 0 0 1.138.27h2.836v-3.978h-3.975zm5.77 0V70h3.577a21.728 21.728 0 0 0 .398-.088v-3.89H22.18zm5.518 0v3.522a21.728 21.728 0 0 0 3.974-1.587v-1.934h-3.974z"/></svg>