<svg xmlns="http://www.w3.org/2000/svg" viewBox="0 0 67.47 70"><path fill="#00bcf2" d="M7.07 69.725c-1.737-.448-2.936-1.14-4.264-2.461-.917-.913-1.3-1.419-1.74-2.298-1.151-2.303-1.065.126-1.065-29.963 0-25.442.012-26.748.253-27.775.628-2.677 2.474-5.002 4.904-6.174C7.486-.07 5.763 0 30.96 0h22.391l7.06 6.966 7.058 6.966-.04 24.159c-.044 27.072.058 24.525-1.076 26.835-.461.94-.802 1.393-1.754 2.335-1.352 1.337-2.556 2.024-4.327 2.47-1.065.269-1.558.274-26.629.266-24.799-.01-25.574-.015-26.573-.273zm52.102-5.55c.844-.251 1.593-.86 2.084-1.695l.377-.642.036-22.34.036-22.34H50.446V5.767H29.548c-13.596 0-21.073.049-21.396.139-.707.196-1.75 1.166-2.13 1.982l-.321.692v26.372c0 28.796-.052 26.94.767 28.015.405.53 1.192 1.062 1.859 1.254.288.083 9.759.137 25.315.145 21.504.01 24.946-.015 25.531-.19zM33.219 53.543c-.15-.062-.444-.282-.651-.49-.998-1-.716-2.836.61-3.97 1.045-.895 1.25-.917 8.228-.872 5.973.038 6.246.05 6.707.318.697.406.995 1.058.897 1.962-.101.938-.458 1.627-1.177 2.277-1.03.93-.81.905-7.918.896-3.531 0-6.545-.06-6.696-.121zm-14.092-.15a2.677 2.677 0 0 1-1.514-.877c-.567-.678-.42-1.878.334-2.735.246-.28 5.08-3.741 10.743-7.693 5.662-3.951 10.294-7.246 10.294-7.32 0-.076-2.934-3.417-6.52-7.427-4.392-4.911-6.581-7.46-6.708-7.81-.256-.706-.024-1.525.642-2.263.876-.972 1.93-1.286 2.85-.85.588.28 15.095 16.468 15.536 17.338.412.812.412 1.819 0 2.598-.276.521-1.53 1.436-11.633 8.49-6.229 4.347-11.543 8.02-11.81 8.16-.63.33-1.58.497-2.214.39z"/></svg>