<svg xmlns="http://www.w3.org/2000/svg" viewBox="0 0 47.267 70"><path fill="#00bcf2" d="M27.025 63.952c0-5.908.01-6.05.319-6.15.633-.2.957.05.957.74v.637l.682-.56c.86-.704 1.366-.896 2.362-.896 1.023 0 1.702.292 2.322.999.736.838.931 1.565.931 3.465 0 1.794-.295 2.79-1.084 3.647-1.127 1.227-3.271 1.29-4.536.134l-.359-.329v1.929c0 1.06-.043 2.041-.097 2.18-.068.177-.305.252-.797.252h-.7v-6.048zm4.712 1.33c1.499-.712 1.8-4.427.467-5.76-.853-.853-1.805-.725-2.987.405l-.598.571V64.036l.598.582c.948.922 1.608 1.096 2.52.664zM6.138 66.7c-.37-.15-.473-.392-.475-1.12 0-.503.075-.713.306-.837.416-.223 1.178-.209 1.413.026.213.214.256 1.374.061 1.68-.148.232-.963.39-1.305.25zm12.596-.069c-1.516-.602-2.407-2.883-2.066-5.29.344-2.429 1.47-3.619 3.423-3.619.922 0 1.64.267 2.27.844l.36.328v-4.992l.398-.1a1.95 1.95 0 0 1 .799 0l.4.1-.042 6.335-.042 6.334h-.637c-.624 0-.64-.014-.688-.606l-.05-.605-.576.506c-.317.278-.813.604-1.101.725-.603.252-1.864.273-2.448.04zm2.738-1.558c1.15-.73 1.248-.956 1.248-2.89v-1.686l-.598-.571c-.764-.731-1.16-.928-1.857-.928-.778 0-1.585.728-1.848 1.67-.305 1.085-.15 3.235.284 3.937.637 1.03 1.622 1.197 2.771.468zm-11.029-2.795v-4.39l.424-.107c.575-.144.922.111.982.725l.051.512.703-.648c.625-.576.791-.648 1.493-.648.843 0 1.29.276 1.29.796 0 .674-.15.784-.945.69-.9-.106-1.274.063-1.878.855-.442.579-.446.603-.525 3.545l-.08 2.963-.757.049-.758.048v-4.39zm-5.71-13.255C2.928 48.538 1.31 47.173.49 45.447L0 44.41V4.869l.51-1.075a6.785 6.785 0 0 1 3.198-3.2L4.783.087 21.098.043 37.412 0l4.928 4.826 4.927 4.826-.036 17.379-.036 17.379-.491 1.037c-.835 1.76-2.444 3.099-4.311 3.585-1.348.351-36.353.343-37.66-.008zm37.54-3.724c.275-.168.705-.575.957-.904l.457-.599.043-16.073.043-16.073-3.95-.043-3.949-.043-.043-4.03-.043-4.03-15.104.044-15.104.044-.634.375c-.694.41-1.021.794-1.307 1.533-.14.36-.19 5.258-.2 19.104-.01 16.413.018 18.689.234 19.206.295.707.632 1.104 1.27 1.498.458.283 1.236.296 18.654.296 17.613 0 18.191-.01 18.675-.305zm-28.72-8.942L12.12 34.92l2.828-2.827 2.828-2.828-2.791-2.794-2.79-2.793 1.398-1.392 1.398-1.392 4.222 4.225 4.222 4.225-4.226 4.226-4.226 4.226-1.431-1.438zm13.95-8.211L23.28 23.92l4.262-4.263 4.263-4.262 1.357 1.35c.746.742 1.357 1.422 1.357 1.51 0 .09-1.237 1.4-2.749 2.914l-2.749 2.752 2.788 2.79 2.787 2.79-1.435 1.435-1.435 1.435-4.223-4.225z"/></svg>