<svg xmlns="http://www.w3.org/2000/svg" viewBox="0 0 74.21 63.698"><path fill="#00bcf2" d="M52.446.013c-5.39.21-11.86 3.318-13.2 8.133-5.946-5.812-19.983-4.505-18.892 8.133.365-.119.68-.274 1.063-.376 4.812-1.273 12.95 1.089 15.765 5.505.261-5.004 3.945-9.842 15.953-11.573V4.83l9.634 6.944-9.634 6.944v-4.88c-7.085 1.223-10.099 3.745-10.26 7.195 5.726-1.816 17.844 6.677 15.43 15.832 3.015.895 4.617.676 5.965 4.437 16.968-4.517 8.5-24.67 1.752-23.147C67.228 6.953 63.099 2.218 55.95.326 54.9.048 53.69-.035 52.446.013zM20.542 21.596c-.798.038-1.552.128-2.252.313C11.14 23.8 7.012 28.535 8.218 39.738.99 38.107-8.262 61.305 13.91 63.573c16.78-.041 18.814-.021 35.346.125 21.406-3.513 12.17-23.815 4.316-23.647 2.98-14.66-12.306-16.454-18.58-10.322-1.443-5.186-8.866-8.398-14.45-8.133z"/><path fill="#fff" d="M42.884 21.022c.161-3.45 3.165-5.965 10.25-7.187v4.875l9.625-6.938-9.625-6.937v5c-12.008 1.73-15.677 6.558-15.938 11.562 2.84-.18 3.354-.191 5.688-.375z"/></svg>