<svg xmlns="http://www.w3.org/2000/svg" viewBox="0 0 68.372 70"><path fill="#00bcf2" d="M1.645 69.885c-.485-.193-1.079-.788-1.39-1.391-.254-.496-.263-.851-.227-9.28l.037-8.765.387-.584c.267-.404.605-.686 1.099-.915l.712-.332 31.874-.001c23.467-.001 31.998.04 32.342.155.701.235 1.329.757 1.638 1.363.27.528.275.756.239 9.375l-.037 8.833-.331.483a3.758 3.758 0 0 1-.814.814l-.483.33-32.352.027c-21.248.017-32.469-.021-32.694-.111zm5.222-2.902c1.06-.535 1.564-1.659 1.236-2.753-.33-1.104-1.565-1.876-2.668-1.67-2.28.429-2.677 3.517-.574 4.472.743.337 1.267.325 2.006-.049zm56.91-.868a.712.712 0 0 0-.09-1.08c-.266-.188-1.186-.215-7.247-.215-7.55 0-7.554 0-7.554.756 0 .755-.005.755 7.643.755 6.21 0 7.057-.025 7.248-.216zm.05-2.695c.092-.091.166-.326.166-.522 0-.197-.074-.432-.165-.522-.217-.217-14.272-.239-14.676-.023-.301.161-.362.805-.1 1.067.123.124 1.952.164 7.388.164 5.435 0 7.264-.04 7.388-.164zm-.1-2.587c.301-.161.362-.805.1-1.066-.123-.124-1.952-.165-7.387-.165-5.436 0-7.265.04-7.389.165-.23.23-.205.736.051.992.19.19 1.042.216 7.288.216 4.612 0 7.164-.05 7.337-.142zM1.576 45.503c-.638-.336-1.043-.751-1.32-1.35-.238-.516-.253-1.079-.253-9.133 0-8.055.015-8.617.253-9.133.307-.665.742-1.083 1.42-1.367.455-.19 3.938-.212 32.516-.212 28.579 0 32.061.023 32.516.212.649.272 1.088.683 1.421 1.333.254.495.263.862.227 9.363-.037 8.696-.042 8.854-.32 9.227-.157.209-.518.569-.803.8l-.52.42-32.362.029c-29.31.026-32.402.009-32.775-.188zm5.493-2.919c1.288-.727 1.505-2.586.426-3.664-1.497-1.497-3.987-.459-3.987 1.661 0 1.853 1.917 2.931 3.56 2.003zm56.759-.863c.231-.23.205-.736-.051-.992-.19-.191-1.038-.216-7.248-.216-6.142 0-7.07.027-7.337.214-.332.232-.403.732-.14.994.123.124 1.952.165 7.388.165 5.435 0 7.264-.04 7.388-.165zm0-2.609c.09-.09.165-.325.165-.522 0-.196-.074-.431-.165-.522-.124-.124-1.953-.164-7.388-.164-5.436 0-7.265.04-7.389.164-.09.09-.165.326-.165.522 0 .197.075.431.165.522.124.124 1.953.165 7.389.165 5.435 0 7.264-.041 7.388-.165zm.03-2.72c.223-.351.148-.798-.17-1.021-.267-.187-1.187-.214-7.248-.214-6.062 0-6.982.027-7.248.214-.395.276-.393.807.004 1.086.273.192 1.121.213 7.42.18 6.145-.033 7.13-.066 7.243-.244zM1.576 21.165c-.665-.307-1.083-.741-1.367-1.42-.184-.44-.212-1.648-.21-9.062C.004 2.66.02 2.095.257 1.58.563.915.998.496 1.676.213 2.131.023 5.613 0 34.192 0c28.579 0 32.061.023 32.516.213.649.271 1.088.683 1.42 1.333.255.495.264.861.228 9.36l-.037 8.845-.42.527c-.231.29-.692.667-1.025.837l-.605.309-32.072-.003c-30.887-.003-32.092-.013-32.621-.257zm5.658-3.022c.578-.418 1.005-1.233 1-1.905-.005-.56-.452-1.438-.943-1.852-1.085-.912-2.862-.53-3.544.763-.362.687-.31 1.74.12 2.39.46.693 1.078.995 2.049.999.633.003.866-.067 1.318-.395zm56.594-.728c.261-.261.2-.905-.1-1.067-.174-.092-2.726-.142-7.338-.142-6.246 0-7.097.025-7.288.216-.256.256-.282.762-.05.993.237.237 14.538.237 14.776 0zm-.1-2.587c.3-.161.361-.805.1-1.066-.238-.238-14.54-.238-14.777 0-.23.23-.205.736.051.993.19.19 1.042.215 7.288.215 4.612 0 7.164-.05 7.337-.142zm.1-2.77c.231-.23.205-.736-.051-.992-.19-.19-1.038-.216-7.248-.216-6.142 0-7.07.027-7.337.214-.332.233-.403.733-.14.995.237.238 14.538.238 14.776 0z"/></svg>