<svg xmlns="http://www.w3.org/2000/svg" viewBox="0 0 60.556 70"><path fill="#00bcf2" d="M17.713 63.598c-2.628-3.627-4.778-6.663-4.778-6.745 0-.104.894-.15 2.89-.15h2.888l.036-6.228.036-6.228h7.157l.036 6.228.036 6.227h3.004c1.652 0 3.038.035 3.08.078.074.073-8.879 12.647-9.377 13.171-.217.23-.497-.126-5.008-6.353zm-14.81-9.866c-.461-.346-1.026-.857-1.254-1.134l-.416-.505.036-3.923.036-3.923 3.681-.037 3.682-.037V46.93H16.1v7.433H3.74l-.838-.63zm25.447-3.085V46.93h24.795l-.045-2.65c-.041-2.414-.072-2.704-.353-3.269-.33-.663-.91-1.13-1.855-1.494-.514-.197-1.34-.226-6.428-.226h-5.838l.058-1.72c.23-6.862-.504-11.583-2.388-15.346-1.533-3.065-3.409-4.928-6.397-6.358l-1.549-.74v-3.505c0-2.956.031-3.505.198-3.505.988 0 3.96 1.032 6.006 2.085 4.382 2.255 7.808 6.14 9.77 11.08 1.14 2.868 1.95 6.305 2.302 9.751l.098.964 2.133.086c2.524.103 3.873.405 5.712 1.279 2.381 1.131 3.856 2.568 4.955 4.828.963 1.98 1.032 2.556 1.032 8.604v5.244l-.709.75c-.39.412-.989.935-1.33 1.162l-.623.412H28.35v-3.716zM.812 40.148c-.256-.173-.543-.467-.638-.654-.132-.262-.172-2.519-.174-9.85v-9.51l.312-.469c.674-1.008-.212-.948 14.118-.949 11.646 0 12.883.021 13.228.225.87.514.832.028.832 10.642 0 10.461.022 10.15-.745 10.652-.316.207-1.507.227-13.406.227H1.279l-.465-.314zm24.923-9.066c0-6.3-.012-6.618-.24-6.42-.283.244-9.496 7.443-10.256 8.014-.436.328-.613.378-1.12.321-.534-.06-1.202-.52-5.912-4.078-2.92-2.205-5.343-4.01-5.383-4.01-.04 0-.073 2.88-.073 6.4v6.4h22.984v-6.627zm-5.717-5.416 5.329-4.128-5.38-.036c-2.959-.02-7.81-.02-10.779 0l-5.399.036 5.35 4.168c2.941 2.293 5.394 4.15 5.45 4.129.055-.022 2.498-1.898 5.429-4.169zM1.31 8.566c.089-6.301.153-7.192.565-7.821.503-.766.191-.747 11.976-.745C22.19.002 24.78.042 25.034.172c.182.094.46.345.62.559.282.38.288.527.326 7.329l.038 6.94h-7.44V7.43H8.67V15h-7.45l.091-6.434z"/></svg>