<svg xmlns="http://www.w3.org/2000/svg" viewBox="0 0 64.036 70.04"><path fill="#00bcf2" d="M0 0v52.03c.004 1.52.67 1.966 2 2l12.008.001v-8.005H8.004V8.005H18.01V18.01h8.004V0H0zm30.017 8.005v6.003c11.95 2.437 11.55 9.944 12.006 18.01v4.003H52.03c1.626.508 3.713-.293 4.002 4.002v6.003H30.017v8.005h32.018c1.488-.004 1.997-.734 2-2.001V40.023c-.94-4.496-1.436-9.208-10.005-10.006h-6.003C47.324 12.23 38.9 9.665 30.017 8.005zm-16.01 14.008v4.002h18.01v-4.002h-18.01zm0 6.003v4.002h18.01v-4.002h-18.01zm.063 6.004v4.002h18.01V34.02H14.07zm3.94 8.004v16.01h-8.005L22.012 70.04l12.007-12.007h-8.005V42.024H18.01z"/></svg>