<svg xmlns="http://www.w3.org/2000/svg" viewBox="0 0 50.109 65.937"><path fill="#00bcf2" d="M25.086 0C11.536 0 .551 3.534.126 7.945H.062v49.358c-.022.14-.063.297-.063.438 0 .089.054.163.063.25.425 4.411 11.41 7.945 24.96 7.945 13.551 0 24.536-3.534 24.961-7.944h.126V7.945h-.063C49.622 3.535 38.637 0 25.087 0zm.313 3.816c10.504 0 19.018 2.307 19.018 5.13 0 2.822-8.514 5.13-19.018 5.13-10.505 0-19.018-2.308-19.018-5.13 0-2.823 8.513-5.13 19.018-5.13zM8.258 29.903h6.881c1.56 0 2.745.078 3.566.25 1.15.238 2.128.69 2.94 1.314a7.34 7.34 0 0 1 2.378 3.065c.524 1.251.813 2.709.813 4.317 0 1.37-.207 2.57-.563 3.628-.356 1.058-.82 1.934-1.376 2.628-.557.693-1.153 1.228-1.815 1.626a7.812 7.812 0 0 1-2.377.938c-.935.206-2.04.313-3.253.313H8.258v-18.08zm20.144 0h7.507c1.532 0 2.765.198 3.69.563.927.365 1.666.93 2.19 1.689a4.07 4.07 0 0 1 .75 2.377c0 .771-.222 1.509-.687 2.19-.466.68-1.188 1.208-2.127 1.626 1.213.32 2.163.856 2.815 1.627a4.17 4.17 0 0 1 1 2.752c0 .845-.228 1.652-.625 2.378-.397.726-.855 1.295-1.439 1.689-.583.393-1.309.674-2.19.875-.88.201-1.975.313-3.252.313h-7.632v-18.08zM10.885 32.03v13.825h4.254c1.323 0 2.376-.154 3.128-.375.753-.222 1.367-.537 1.814-.939.63-.566 1.15-1.296 1.502-2.252.351-.955.5-2.141.5-3.503 0-1.887-.374-3.303-1.063-4.316-.689-1.014-1.517-1.72-2.503-2.065-.711-.246-1.862-.375-3.44-.375h-4.192zm20.144 0v5.442h4.317c1.177 0 2.054-.048 2.565-.187.675-.18 1.159-.458 1.501-.876.342-.418.5-.932.5-1.564 0-.599-.118-1.171-.437-1.626-.32-.456-.784-.77-1.377-.939-.593-.168-1.624-.25-3.065-.25h-4.004zm0 7.57v6.255h5.005c.857 0 1.467-.067 1.814-.125a4.456 4.456 0 0 0 1.501-.5c.411-.23.737-.562 1.001-1.001.265-.44.438-.927.438-1.502 0-.672-.18-1.255-.563-1.751-.383-.497-.947-.863-1.626-1.064-.68-.2-1.663-.313-2.94-.313h-4.63z"/></svg>