<svg xmlns="http://www.w3.org/2000/svg" viewBox="0 0 53.55 69.999"><path fill="#00bcf2" d="M19.591 69.83c-6.313-.86-11.802-2.688-15.489-5.156-1.427-.956-3.017-2.582-3.62-3.702L0 60.078V9.347l.384-.82C.896 7.436 2.646 5.733 4.195 4.82 8.069 2.538 13.74.936 20.622.18c2.201-.242 10.061-.24 12.099.002 7.598.904 13.265 2.625 17.172 5.213 1.319.874 2.714 2.311 3.196 3.292l.391.798.035 25.625.035 25.626-.347.759c-1.683 3.676-8.192 6.694-17.596 8.157-1.735.27-2.548.304-8.249.338-4.896.029-6.65-.007-7.768-.16zm9.899-14.559c.718-.11 1.646-.298 2.062-.419.923-.268 3.712-1.582 3.712-1.749 0-.066-.597-.855-1.327-1.754l-1.328-1.633-.818.413c-1.9.96-4.442 1.277-6.616.827-3.838-.794-6.983-3.594-8.144-7.25-.386-1.217-.633-3.171-.515-4.076l.085-.65 3.209-.037 3.208-.037-3.786-4.606c-2.083-2.533-3.875-4.697-3.984-4.809-.173-.178-.792.39-5.009 4.606l-4.81 4.809 3.393.069 3.394.068-.032.894c-.045 1.253.227 3.295.622 4.674 2.062 7.2 9.256 11.796 16.684 10.66zm15.742-13.515-2.956-.037v-1.2c0-4.82-2.24-9.274-6.113-12.164-2.267-1.692-4.547-2.562-7.532-2.873-2.8-.292-5.287.148-7.915 1.399l-1.42.676 1.396 1.719 1.396 1.719.69-.35c1.896-.96 5.045-1.24 7.166-.635 3.788 1.081 6.627 3.903 7.654 7.608.321 1.16.494 2.892.36 3.606l-.093.496-3.695.036-3.695.037 4 4.855 4 4.856 4.858-4.856 4.857-4.855-2.957-.037zM32.917 14.847c7.72-.792 12.819-2.92 12.819-5.351 0-1.497-1.516-2.694-4.804-3.793-8.55-2.857-23.92-2.436-30.414.834-1.33.67-1.899 1.103-2.37 1.804-.43.64-.5 1.407-.184 2.017 1.184 2.29 7.025 4.126 14.927 4.691 2.252.161 7.525.055 10.026-.202z"/></svg>