<svg xmlns="http://www.w3.org/2000/svg" viewBox="0 0 54.63 70.001"><path fill="#00bcf2" d="M16.39 69.906c-1.378-.119-4.649-.636-5.899-.933-2.87-.68-5.63-1.901-7.296-3.225-1.035-.823-2.136-2.268-2.591-3.4-.195-.485-.407-1.407-.49-2.129-.099-.865-.132-9.208-.104-26.056L.05 9.38l.493-1.033c1.91-4 8.45-6.937 17.906-8.04C20.91.02 27.019-.098 29.586.092c7.833.58 14.27 2.388 18.496 5.197 1.206.801 2.66 2.221 3.156 3.083.76 1.322.75 1.092.676 14.017-.038 6.552-.106 11.908-.152 11.904-.047-.004-2.092-1.886-4.547-4.18l-4.462-4.173-12.255-.007-12.254-.007V70l-.652-.023c-.359-.012-.9-.044-1.202-.07zm12.7-54.83c6.765-.405 11.66-1.67 13.759-3.552.841-.754 1.07-1.196 1.07-2.058 0-.559-.08-.79-.449-1.277-1.493-1.975-5.661-3.4-12.045-4.121-2.415-.273-10.102-.226-12.7.077-4.196.49-7.29 1.17-9.543 2.1-1.434.591-1.976.906-2.655 1.543-1.967 1.845-.788 3.708 3.3 5.215 2.434.898 6.327 1.64 10.133 1.933 3.873.298 5.97.33 9.13.14zm-8.237 34.19V28.535h19.853l6.928 5.81 6.927 5.81.035 14.923L54.63 70H20.853V49.267zm31.03 5.218V41.578H41.586V31.143H23.462V67.39H51.884V54.484zm-24.028 2.952v-1.304h7.964v2.609h-7.964v-1.305zm10.435 0v-1.304h7.827v2.609H38.29v-1.305zM27.914 53.48c-.039-.102-.053-.706-.03-1.341l.04-1.156 3.952-.036 3.953-.037-.04 1.341-.039 1.341-3.882.036c-3.157.03-3.896.002-3.953-.148zm10.468.089c-.05-.05-.092-.668-.092-1.373v-1.282h7.827v2.747h-3.822c-2.102 0-3.863-.042-3.913-.092zm-10.468-5.31c-.039-.1-.052-.702-.03-1.338l.04-1.155 3.947-.037 3.948-.036v2.75H31.9c-3.138 0-3.931-.036-3.987-.183zm10.376-1.19v-1.372h7.827v2.746H38.29V47.07zm-10.376-4.027c-.039-.1-.052-.703-.03-1.338l.04-1.156h7.826l.04 1.339.039 1.338h-3.923c-3.142 0-3.936-.036-3.992-.183zm-.059-6.339V35.4h7.964v2.609h-7.964v-1.305z"/></svg>