<svg xmlns="http://www.w3.org/2000/svg" viewBox="0 0 67.457 70"><path fill="#00bcf2" d="M6.865 69.762c-2.56-.618-4.9-2.578-6.044-5.061-.874-1.9-.82.085-.82-29.71 0-30.54-.09-27.813 1-30.053.731-1.505 2.428-3.18 4.01-3.96C7.117-.06 5.48.003 30.75 0h22.653l7.026 6.946 7.027 6.946-.04 24.239c-.037 22.61-.056 24.295-.28 25.063-.962 3.298-3.548 5.838-6.698 6.58-1.298.307-52.307.297-53.574-.01zm53.137-5.111c.92-.416 1.706-1.274 2.077-2.265l.293-.783V16.468l-5.592-.036-5.592-.036-.036-5.662-.036-5.663-21.646.036-21.647.036-.589.315c-.857.457-1.623 1.313-1.945 2.174-.28.752-.281.813-.246 27.607l.036 26.854.324.618c.39.745 1.038 1.455 1.597 1.75 1.105.582.332.567 26.897.54l25.387-.026.718-.325zm-36.306-7.62-.596-1.424-.693-.092a20.8 20.8 0 0 1-1.055-.164c-.32-.064-.465.059-1.292 1.101-.511.646-.984 1.208-1.05 1.249-.143.088-3.294-1.824-3.381-2.052-.033-.087.192-.765.5-1.507l.562-1.349-.33-.358c-.25-.273-.898-1.162-.98-1.343-.01-.012-.72.06-1.588.16-.868.1-1.597.164-1.62.142-.115-.115-.944-3.859-.87-3.928.049-.045.69-.322 1.423-.616 1.464-.588 1.384-.486 1.553-1.979l.086-.755-1.245-.996-1.245-.997.981-1.61c.54-.887 1.026-1.663 1.081-1.726.055-.063.708.14 1.453.452.79.33 1.468.535 1.628.49.151-.042.519-.286.817-.543l.542-.468-.216-1.555c-.118-.855-.177-1.596-.13-1.645.129-.138 3.712-1.098 3.827-1.027.055.034.376.709.713 1.498l.612 1.436 1.166.09 1.166.09.349-.448c.82-1.052 1.67-2.028 1.764-2.028.206 0 3.387 2.03 3.362 2.145-.014.065-.29.756-.612 1.534-.4.967-.544 1.47-.454 1.589.072.096.336.45.586.79l.454.615 1.661-.18c.914-.1 1.688-.154 1.72-.123.046.047.26.908.906 3.663.039.168-.298.368-1.383.82-.789.329-1.483.692-1.542.808-.06.115-.149.586-.199 1.047l-.09.838.5.381c.274.21.861.683 1.304 1.051l.804.67-.907 1.473c-.5.81-.978 1.575-1.063 1.699-.14.204-.299.168-1.643-.372l-1.488-.598-.499.405c-.274.222-.64.513-.813.646l-.313.242.186 1.626c.131 1.144.143 1.64.04 1.676-.18.06-3.73.884-3.802.882-.028 0-.319-.642-.647-1.425zm1.82-5.548c2.307-1.08 3.653-3.518 3.242-5.874-.228-1.31-.629-2.06-1.646-3.079-1.205-1.205-2.13-1.57-3.987-1.57-1.131 0-1.41.049-2.097.372-2.258 1.058-3.677 3.602-3.276 5.875.398 2.258 2.085 4.12 4.222 4.656.986.248 2.562.078 3.542-.38zm18.965-6.462-.61-1.454-.859-.097c-.472-.053-.934-.125-1.025-.16-.091-.035-.637.514-1.213 1.222l-1.048 1.285-1.68-1.038a127.889 127.889 0 0 1-1.719-1.074c-.022-.019.22-.666.54-1.438.386-.936.536-1.46.451-1.574l-.665-.892-.538-.722-.629.08c-.345.046-1.063.121-1.595.17l-.966.087-.46-1.94c-.254-1.068-.436-1.964-.406-1.992.03-.028.679-.309 1.443-.624l1.388-.574.08-.78c.044-.429.117-.903.16-1.054.065-.22-.14-.452-1.032-1.164-.612-.49-1.177-.967-1.255-1.061-.103-.125.142-.634.904-1.875l1.045-1.704 1.445.608c.794.335 1.519.564 1.61.51.091-.054.414-.288.715-.518.302-.23.564-.424.582-.43.018-.01-.066-.736-.188-1.621-.12-.885-.184-1.646-.14-1.69.103-.102 3.382-.999 3.665-1.002.14 0 .43.485.839 1.402.691 1.552.575 1.466 2.241 1.666l.686.082 1.073-1.311c1.025-1.252 1.087-1.303 1.372-1.117.165.107.886.553 1.604.99.717.438 1.354.84 1.415.895.062.054-.176.787-.528 1.627l-.641 1.528.391.449c.216.247.486.594.602.77.21.32.216.321 1.618.169 2.235-.244 1.96-.437 2.467 1.733.242 1.038.44 1.918.44 1.956 0 .038-.673.346-1.495.686l-1.492.618-.08.766c-.044.421-.116.859-.16.973-.055.142.329.538 1.236 1.275.723.588 1.297 1.12 1.276 1.183-.123.35-1.981 3.271-2.085 3.276-.068 0-.75-.249-1.516-.56l-1.393-.565-.782.585c-.891.666-.895.684-.639 2.727.079.63.116 1.172.083 1.205-.033.033-.93.263-1.991.51l-1.931.45-.61-1.452zm.479-5.09c3.24-.603 5.336-3.917 4.432-7.008-.954-3.262-4.713-4.992-7.702-3.545-.994.481-2.176 1.678-2.679 2.711-.413.85-.444 1.01-.446 2.353 0 1.279.04 1.529.366 2.225.438.936 1.443 2.05 2.303 2.554.605.355 2.11.823 2.696.84.16 0 .623-.055 1.03-.13z"/></svg>