<svg xmlns="http://www.w3.org/2000/svg" viewBox="0 0 70 62.411"><path fill="#00bcf2" d="M8.757 46.911 0 31.308c-.03-.057 3.89-7.124 8.714-15.706L17.484 0h35.088l8.676 15.444c4.771 8.494 8.71 15.533 8.752 15.643.044.115-3.652 6.839-8.645 15.727l-8.72 15.527-17.589.035-17.588.035-8.7-15.5zm40.692 2.812a5.044 5.044 0 0 0 2.865-2.874c.205-.532.231-1.905.265-13.766l.038-13.175-3.595-3.699-3.596-3.7H33.352c-12.012 0-12.078 0-12.862.296-.949.355-2.005 1.297-2.459 2.192-.612 1.208-.626 1.605-.584 16.827l.04 14.434.434.915c.71 1.496 1.935 2.465 3.447 2.725.361.062 6.687.102 14.059.09 12.47-.02 13.446-.038 14.021-.265zm-28.044-2.451c-.448-.18-.932-.637-1.216-1.152-.206-.374-.23-1.675-.27-14.159-.023-7.56-.002-14.13.045-14.6.101-.99.458-1.61 1.167-2.026.474-.278.63-.282 11.753-.282h11.272l.037 3.058.037 3.059h5.906v12.063c-.001 7.492-.053 12.247-.137 12.55-.154.552-.843 1.28-1.419 1.497-.518.196-26.684.188-27.175-.01zm10.955-3.647c.66-.274 1.374-1.09 1.713-1.956.418-1.066.534-4.601.197-5.939-.454-1.796-1.436-2.6-3.174-2.6-1.534 0-2.27.341-2.97 1.378-.578.854-.833 2.15-.827 4.189.01 3.372.783 4.83 2.73 5.146.772.125 1.717.037 2.331-.218zm-2.165-1.48a1.45 1.45 0 0 1-.519-.565c-.51-1.122-.539-4.773-.045-5.886.33-.747.63-.977 1.27-.977 1.16 0 1.571 1.012 1.56 3.843-.008 1.928-.17 2.752-.647 3.301-.373.429-1.126.56-1.619.283zm12.243.814v-.757H40.513V37.75c0-4.971.077-4.62-1.009-4.62-.478 0-.798.15-1.92.9l-1.347.9.042.647c.05.778.186.787 1.382.087l.79-.463v7.002h-1.016c-1.082 0-1.183.065-1.183.756 0 .775-.08.756 3.176.756h3.01v-.756zm-1.714-13.941c1.136-.503 1.763-1.703 2.006-3.841.156-1.368.027-3.348-.288-4.435-.413-1.422-1.524-2.186-3.175-2.18-1.713.01-2.659.659-3.305 2.288-.288.725-.32 1.025-.324 3.138-.006 2.552.16 3.4.84 4.296.815 1.078 2.724 1.407 4.246.734zm-2.386-1.594c-.559-.47-.745-1.342-.745-3.493 0-2.805.433-3.797 1.642-3.763.586.017 1.089.458 1.284 1.13.247.844.322 3.423.132 4.543-.144.856-.249 1.104-.623 1.478-.558.558-1.111.592-1.69.105zm-4.175.997-.042-.721-.928-.041-.928-.041v-8.892l-.492-.092c-.765-.144-1.262.033-2.564.908l-1.205.81v.684c0 .4.062.684.15.684.081 0 .536-.217 1.01-.481.472-.265.9-.482.95-.482.049 0 .09 1.544.09 3.431v3.431l-1.066.04-1.066.04-.043.53c-.078.954-.216.914 3.14.914h3.035l-.041-.722z"/></svg>