<svg xmlns="http://www.w3.org/2000/svg" viewBox="0 0 70 62.411"><path fill="#00bcf2" d="M8.753 46.911A42892.77 42892.77 0 0 1 0 31.308c-.03-.057 3.889-7.124 8.71-15.705L17.475 0H52.572l8.676 15.444c4.771 8.494 8.71 15.533 8.752 15.643.044.115-3.652 6.839-8.644 15.727l-8.721 15.527-17.593.035-17.592.035-8.697-15.5zm51.02-3.184c1.054-1.094 4.05-5.814 6.51-10.256l.383-.69-.713-1.421c-2.353-4.69-5.39-9.774-6.436-10.777l-.394-.377-24.677.035-24.678.036-.506.386c-.278.212-.63.63-.782.927-.27.53-.275.759-.24 10.828l.038 10.286.367.554c.214.324.613.677.962.849l.595.295h48.92l.65-.675zm-49.296-1.276c-.151-.086-.32-.223-.376-.305-.056-.083-.102-4.526-.103-9.875 0-9.549 0-9.731.273-10.001.274-.274.424-.276 24.229-.241l23.953.035.776 1.168c.933 1.403 2.397 3.947 4.109 7.135l1.26 2.35-1.132 1.957c-1.731 2.993-3.564 5.938-4.326 6.955l-.688.917-23.85.03c-17.597.023-23.922-.01-24.125-.125zm22.991-2.171.447-.273v-14.72l-.352-.134c-.217-.082-4.004-.134-9.827-.134h-9.473l-.076.31c-.042.17-.06 3.605-.037 7.634.034 6.333.067 7.343.245 7.455.125.08 3.854.131 9.417.132 8.94.002 9.223-.006 9.657-.27zm-17.561-6.325c0-2.571.046-4.672.103-4.67.057 0 1.734 1.334 3.728 2.956 2.749 2.238 3.715 2.95 4 2.95.207 0 .636-.188.953-.418.634-.459 5.918-4.565 6.853-5.325l.584-.475V38.628H15.907v-4.673zM19.799 30c-2.056-1.644-3.742-3.035-3.746-3.092 0-.057 3.394-.103 7.552-.103 4.513 0 7.56.051 7.56.127 0 .127-7.18 5.893-7.472 6-.086.03-1.838-1.288-3.894-2.932zm36.798 10.277c.268-.268.275-.458.275-7.602 0-5.515-.041-7.368-.165-7.492-.218-.218-18.958-.24-19.364-.023-.258.138-.266.366-.266 7.482v7.34l.362.285c.358.281.462.285 9.623.285 9.077 0 9.266-.005 9.535-.275zm-17.733-6.323c0-2.571.03-4.674.07-4.674.038 0 1.743 1.33 3.789 2.955 2.873 2.284 3.808 2.956 4.11 2.956.4 0 .999-.433 4.747-3.43.907-.726 2.067-1.649 2.577-2.05l.928-.73v9.646H38.864v-4.673zm4.165-3.957c-2.056-1.642-3.742-3.032-3.746-3.089 0-.057 3.396-.103 7.554-.103 4.569 0 7.56.051 7.56.128 0 .133-7.172 5.89-7.463 5.991-.09.032-1.848-1.286-3.905-2.927z"/></svg>