<svg xmlns="http://www.w3.org/2000/svg" viewBox="0 0 70 54.25"><path fill="#00bcf2" d="M42.88 0c-1.859.011-3.447.213-5.264.603.099 2.096.097 1.382.099 2.096a6.34 6.34 0 0 1-6.342 6.342 6.34 6.34 0 0 1-5.434-3.091 27.123 27.123 0 0 0-5.543 6.022c1.174.715 3.554 3.21 3.554 3.21 2.801-2.365 5.821-3.373 8.58-3.334 4.193.085 8.719 1.243 10.35 2.006 5.83 2.725 11.271 7.109 11.271 13.269s-4.994 11.155-11.155 11.155a11.118 11.118 0 0 1-8.064-3.45c-.91-.954-.511-1.257-2.067.108-.561.493-6.09 4.699-11.19 9.096 1.508 1.876 2.319 3.544 4.268 4.958 2.141-1.901 4.219-4.37 6.96-4.374a6.34 6.34 0 0 1 6.338 6.343c-.002 1.01 0-.001-.12 3.018 1.436.245 2.302.258 3.76.269 1.678-.006 2.532.068 4.18-.247.048-3.275.047-2.214.047-3.277a6.34 6.34 0 0 1 6.339-6.338c2.68.002 4.132 1.691 6.556 3.865 2.264-1.735 2.947-2.876 4.563-5.227-2.921-2.231-3.366-3.88-3.367-6.506a6.34 6.34 0 0 1 6.338-6.342c.758.002 0 .001 2.22-.062.155-1.146.238-1.832.246-2.99-.006-1.698-.17-2.57-.494-4.238-2.91-.107-1.896-.108-2.91-.106a6.34 6.34 0 0 1-6.341-6.342c.004-2.618 2.088-4.613 3.945-6.258-1.81-2.336-3.462-3.656-5.924-5.29-1.857 2.112-3.702 3.799-6.358 3.8a6.34 6.34 0 0 1-6.338-6.342c0-.734 0 0-.03-2.124C44.53.099 43.911.005 42.88 0zM32.767 14.733c-3.98-.015-6.993 1.785-9.448 3.669-2.455 1.883-4.479 3.822-6.44 4.587-1.961.766-3.9.722-7.207-1.79l-1.685 2.219c3.786 2.876 7.152 3.247 9.905 2.172s4.855-3.23 7.127-4.973c2.272-1.743 4.59-3.106 7.74-3.094 3.151.01 7.33 1.443 13.15 5.895l1.692-2.216c-6.103-4.668-10.855-6.454-14.835-6.47zm.817 6.618a8.484 8.484 0 0 0-1.242.058c-3.255.398-5.604 2.547-7.864 4.508-2.26 1.961-4.443 3.788-7.225 4.366-2.782.578-6.375.02-11.722-3.425L4.02 29.204c5.72 3.686 10.172 4.564 13.799 3.81 3.628-.753 6.22-3.022 8.489-4.99s4.202-3.582 6.371-3.847c2.17-.265 5.022.661 9.422 4.758l1.9-2.041c-4.108-3.825-7.462-5.46-10.418-5.543zm-1.053 7.33a7.685 7.685 0 0 0-2.201.396c-2.788.935-4.812 3.05-7.022 4.78s-4.486 3.13-7.751 3.204c-3.266.074-7.69-1.228-13.992-5.488l-1.562 2.31c6.585 4.451 11.558 6.06 15.616 5.968 4.058-.092 7.03-1.932 9.411-3.796 2.381-1.864 4.287-3.696 6.186-4.333s3.976-.447 7.578 2.343L40.5 31.86c-2.007-1.555-3.85-2.482-5.543-2.906a8.767 8.767 0 0 0-2.427-.272z"/></svg>