<svg xmlns="http://www.w3.org/2000/svg" viewBox="0 0 69.999 61.449"><path fill="#00bcf2" d="M30.674 61.33c-10.017-.555-19.697-3.41-25.072-7.395-1.053-.78-2.118-1.894-1.998-2.089.11-.178 62.701-.158 62.81.02.142.228-1.57 1.83-2.833 2.654-7.624 4.97-19.981 7.527-32.907 6.81zM.016 49.794c-.235-.38 2.202-3.548 3.83-4.98 2.378-2.088 5.51-4.088 8.367-5.34l1.608-.704.05-10.396c.048-9.918.063-10.452.334-11.632.596-2.597 1.61-5.033 2.919-7.01C22.156 2.125 31.365-1.544 40.02.61c7.008 1.743 12.78 6.953 15.052 13.587 1.04 3.036 1.007 2.602 1.063 14.173l.05 10.392 1.526.667c5.183 2.265 9.97 6.09 11.989 9.577.207.357.336.713.288.79-.124.201-69.85.199-69.974 0zm22.81-12.324 5.623-.05-1.042-.532c-2.791-1.428-4.906-3.437-6.082-5.779-.408-.811-.892-2.13-.892-2.43 0-.264.507-.734.792-.734.133 0 .725.403 1.315.895 2.017 1.684 4.351 3.07 5.995 3.557.679.202 1.52.296 1.52.17 0-.027-.628-1.187-1.395-2.577-2.056-3.722-3.782-7.318-4.089-8.517-.993-3.885-.01-7.479 2.798-10.23 1.968-1.928 3.99-2.79 6.828-2.914 1.598-.07 1.838-.046 3.014.29 3.036.871 5.289 2.722 6.684 5.492 1.233 2.449 1.375 5.653.37 8.326-.516 1.372-3.748 7.101-5.601 9.929l-.24.366.592-.068c.799-.092 2.201-.536 3.055-.966 1.098-.554 3.22-2.007 4.263-2.92.524-.458 1.065-.833 1.203-.833.29 0 .8.466.8.732 0 .351-.688 2.2-1.052 2.827-1.285 2.214-3.765 4.426-6.253 5.578l-.731.34 6.252.047c3.438.026 6.422.097 6.63.158l.378.11v-9.33c0-10.242-.028-10.67-.827-13.117-1.239-3.79-3.746-7.095-7.124-9.393-3.28-2.232-6.631-3.262-10.606-3.262-2.267 0-3.742.22-5.74.86-5.627 1.8-10.19 6.288-11.99 11.795-.799 2.446-.826 2.875-.826 13.117v9.33l.378-.11c.208-.06 2.908-.13 6-.158zm13.415-9.968c1.48-.446 3.364-1.812 4.857-3.52.908-1.038 1.258-1.615 1.055-1.74-.687-.426-13.477-.424-14.165 0-.296.182.657 1.546 2.065 2.955 2.319 2.321 4.024 2.956 6.188 2.303zm-3.398-7.168c1.178-.503 1.44-1.562.732-2.951-.437-.855-1.473-1.947-1.848-1.947-.693 0-1.781 1.878-1.91 3.294-.072.796-.06.834.412 1.306.45.45.547.486 1.329.486.463 0 1.042-.085 1.285-.188zm6.77.024c.778-.355.959-1.466.457-2.82-.465-1.259-1.128-2.092-1.668-2.1-.377 0-1.384 1.092-1.817 1.978-.69 1.41-.456 2.404.687 2.912.517.23 1.863.247 2.34.03z"/></svg>