<svg xmlns="http://www.w3.org/2000/svg" viewBox="0 0 67.524 70"><path fill="#00bcf2" d="M.066 68.73c.3-5.716 1.65-10.963 4.036-15.688 2.659-5.265 5.948-8.985 9.76-11.041 2.441-1.316 5.283-1.454 8.433-.407 1.43.475 2.312.945 4.875 2.598 6.91 4.456 11.39 6.139 15 5.637 1.366-.19 2.424-.56 4.365-1.53 1.732-.864 2.268-1.252 4.32-3.127.753-.689 1.673-1.417 2.043-1.619.6-.327.767-.356 1.573-.281 2.298.214 4.368 1.94 6.898 5.748 2.237 3.367 3.395 6.023 4.38 10.043.564 2.305 1.034 4.952 1.37 7.71.155 1.284.31 2.536.344 2.781l.06.446H0l.067-1.27zm36.078-28.047c-6.232-.975-11.781-5.312-14.758-11.534-1.538-3.214-2.177-6.115-2.195-9.956-.035-7.47 3.863-14.25 9.99-17.376C31.803.479 34.442-.104 37.331.015c2.816.117 4.447.535 7.072 1.812 1.904.927 2.91 1.593 4.427 2.932 5.055 4.463 7.92 11.606 7.337 18.294-.347 3.979-1.4 7.087-3.437 10.142-3.676 5.513-10.248 8.48-16.586 7.488z"/></svg>