<svg xmlns="http://www.w3.org/2000/svg" viewBox="0 0 51.303 70"><path fill="#00bcf2" d="M44.305 69.797c-.741-.268-1.267-.93-1.267-1.595 0-.59.3-1.288.695-1.616.224-.186.219-.225-.055-.417-.487-.34-.558-1.053-.183-1.827.305-.63.31-.714.091-1.24-.278-.666-.29-.924-.074-1.698.19-.687.873-1.373 1.625-1.633.795-.275 4.4-.094 4.524.228.182.475-.072.812-.612.812h-.517l.213.618a2.464 2.464 0 0 1-1.057 2.886c-.496.295-1.582.378-2.779.214-.323-.044-.398.018-.438.365-.066.575.233.693 2.018.795.902.05 1.69.182 1.975.33 1.6.827 1.454 2.768-.275 3.641-.567.287-.94.35-2.026.34-.733-.008-1.569-.098-1.858-.203zm3.155-.936c.64-.267.994-.996.728-1.494-.252-.47-.787-.63-2.108-.63-1.061 0-1.173.031-1.479.42-.5.637-.376 1.304.308 1.646.655.327 1.843.354 2.551.058zm-.283-5.626c.304-.304.383-.543.383-1.158 0-.652-.065-.827-.41-1.099-.568-.446-1.477-.428-2.021.04-.588.505-.626 1.612-.076 2.197.525.559 1.576.569 2.124.02zM.683 67.205c-.365-.145-.516-.65-.374-1.248.076-.32.201-.399.692-.44.33-.027.667.019.75.102.186.186.2 1.26.019 1.428-.237.219-.749.294-1.087.159zm15.924-.063c-.786-.348-1.066-.792-1.14-1.814-.065-.907-.052-.944.537-1.533.66-.66 1.6-.957 3.028-.957h.772v-.709c0-.554-.088-.796-.404-1.112-.365-.365-.487-.395-1.297-.322-.492.045-1.18.227-1.527.404-.712.363-.827.319-.827-.323 0-.387.105-.498.741-.784.97-.437 2.843-.475 3.584-.073.94.51 1.05.935 1.106 4.284l.05 3.001h-.557c-.49 0-.557-.046-.557-.39 0-.403-.214-.519-.4-.217-.193.312-1.382.757-2.017.754-.344-.001-.835-.096-1.092-.21zm2.589-1.23c.486-.326.534-.43.576-1.247l.047-.891h-.748c-1.99.003-2.943.965-2.063 2.084.43.545 1.421.57 2.188.055zm5.44 1.097c-.992-.503-1.462-1.477-1.534-3.182-.092-2.154.558-3.516 1.929-4.039.885-.338 1.793-.227 2.548.31l.567.405.078-2.068.078-2.068.481-.047c.277-.027.56.047.665.174.135.163.173 1.608.143 5.427l-.041 5.205-.585.049c-.58.048-.585.044-.585-.536v-.585l-.429.411c-.956.916-2.184 1.118-3.315.544zm2.136-.906c.241-.09.667-.385.945-.654.504-.486.507-.499.507-2.005v-1.517l-.652-.558c-.358-.307-.797-.569-.974-.582-1.517-.114-2.116.668-2.116 2.763 0 1.363.288 2.142.917 2.484.497.27.799.286 1.373.07zm6.896 1.108c-.757-.23-1.225-.66-1.643-1.514-.35-.717-.417-1.06-.417-2.157 0-1.104.065-1.438.425-2.173.476-.974 1.272-1.559 2.357-1.732 1.28-.205 2.723.503 2.723 1.334 0 .618-.171.668-.806.237-1.2-.815-2.496-.595-3.036.514-.403.828-.393 2.886.017 3.572.312.52 1.064.977 1.61.977.171 0 .712-.21 1.201-.468.49-.257.917-.468.951-.468.214 0 .017 1.085-.239 1.316-.657.595-2.152.863-3.143.562zm-27.944-.116c-.143-.244-2.138-6.904-2.138-7.138 0-.173.168-.238.618-.238h.617l.31 1.053c1.16 3.95 1.405 4.756 1.463 4.814.036.036.395-1.181.798-2.706.403-1.524.762-2.858.797-2.966.103-.305 1.132-.243 1.292.078.074.15.479 1.482.899 2.959.42 1.477.806 2.634.858 2.573.052-.062.321-.92.598-1.906.277-.986.647-2.267.82-2.846l.317-1.052h.608c.347 0 .609.075.609.175 0 .096-.46 1.657-1.022 3.47a962.568 962.568 0 0 0-1.102 3.567c-.062.211-.251.272-.844.272-.571 0-.798-.068-.9-.272-.075-.15-.442-1.356-.815-2.679-.373-1.322-.712-2.305-.754-2.183-.041.122-.367 1.31-.725 2.64l-.649 2.416-.79.047c-.436.026-.825-.009-.865-.078zm33.416-3.087V60.81h-.634c-.62 0-.633-.01-.585-.507.045-.462.1-.51.634-.555l.585-.048v-.888c0-1.58.757-2.523 2.043-2.548.91-.019 1.349.125 1.46.478.185.58-.035.744-.904.672-1.022-.085-1.195.094-1.309 1.355l-.085.933.918.047c.905.047.918.054.918.515 0 .46-.015.469-.897.515l-.897.047V67.204H39.14v-3.196zM4.83 52.815C2.517 52.027.68 49.963.175 47.588.051 47 0 40.916 0 26.53 0 4.59-.034 5.498.844 3.765c.48-.946 1.96-2.436 2.888-2.906 1.784-.903.879-.863 19.648-.857L40.62.008l5.34 5.291 5.342 5.29v17.995c0 11.398-.058 18.302-.157 18.834-.46 2.463-2.471 4.714-4.886 5.468-.861.269-1.981.284-20.662.28l-19.75-.004-1.018-.347zm40.342-4.177c.55-.209 1.094-.71 1.428-1.315.235-.426.262-1.983.3-17.348l.043-16.88H38.36V4.362l-15.866.003c-15.062.003-15.898.018-16.49.29-.742.34-1.075.689-1.398 1.462-.212.506-.24 2.913-.24 20.423 0 12.5.057 20.046.153 20.382.183.638.84 1.373 1.484 1.66.383.171 3.963.21 19.6.215 13.186.004 19.267-.045 19.57-.16zm-31.727-12.66.043-2.222 11.89-.04 11.89-.04V38.2H13.403l.043-2.222zm.034-6.244c-.043-.112-.058-1.148-.034-2.301l.043-2.097H37.19v4.522l-11.816.04c-9.612.032-11.831.002-11.895-.164zm.035-8.323c-.057-.057-.104-1.074-.104-2.26v-2.158H37.27v4.522H25.443c-6.503 0-11.872-.047-11.929-.104z"/></svg>