<svg xmlns="http://www.w3.org/2000/svg" viewBox="0 0 68.064 68.064"><path fill="#00bcf2" d="M34.031 0C15.236 0 0 15.237 0 34.032 0 52.827 15.236 68.064 34.03 68.064c18.796 0 34.032-15.237 34.032-34.032C68.063 15.237 52.827 0 34.031 0zm0 4.004c8.229 0 15.659 3.335 21.082 8.695a37.053 37.053 0 0 0-7.069-.688c-.656 0-1.29-.034-1.939 0a37.103 37.103 0 0 0-14.263 3.691c-3.006-3.026-5.953-6.244-8.884-9.571a30.001 30.001 0 0 1 11.073-2.127zM18.517 8.32c2.887 3.51 5.89 6.777 8.946 9.947a38.518 38.518 0 0 0-8.57 7.757c-.296-.026-.574 0-.877 0a9.78 9.78 0 0 0-2.377.313 45.25 45.25 0 0 1-3.44-9.446c-.243-.998-.348-1.99-.376-3.003 1.955-2.154 4.19-4.054 6.694-5.568zm36.596 7.257c.937.016 1.829.16 2.753.313 3.851 5.049 6.193 11.302 6.193 18.142 0 3.088-.51 6.08-1.376 8.883-1.843-1.505-3.665-3.047-5.505-4.567.548-.998.876-2.096.876-3.315a7.007 7.007 0 0 0-7.007-7.007 6.942 6.942 0 0 0-4.316 1.502 309.463 309.463 0 0 1-9.196-8.32c4.905-2.735 10.258-4.671 15.827-5.506.58-.087 1.172-.134 1.751-.125zm-46.73 2.878c.372 2.402.925 5.688 1.063 6.13.45 1.444.951 2.857 1.564 4.254a10.113 10.113 0 0 0-3.003 7.195c0 2.716 1.122 5.14 2.878 6.944-.535 2.608-.876 5.3-.876 8.07 0 .311-.008.628 0 .938-3.756-5.013-6.006-11.208-6.006-17.954 0-5.71 1.612-11.032 4.38-15.577zm24.772 5.505c3.596 3.44 7.287 6.7 11.01 9.884a7.217 7.217 0 0 0-.124 1.189 7.007 7.007 0 0 0 7.006 7.006c.828 0 1.64-.174 2.377-.438 2.446 1.984 4.927 3.979 7.382 5.943-.537 1.065-1.095 2.079-1.751 3.066-1.638.281-3.328.522-3.942.563-3.444.227-6.903-.154-10.26-.939a6.987 6.987 0 0 0-6.943-6.193c-1.686 0-3.233.572-4.442 1.564a45.415 45.415 0 0 1-6.693-4.88c.762-1.412 1.25-2.974 1.25-4.691 0-2.277-.783-4.387-2.064-6.069 2.17-2.221 4.615-4.2 7.194-6.005zM22.708 44.792c2.52 2.228 5.313 4.137 8.258 5.755-.012.166-.063.332-.063.5a7.007 7.007 0 0 0 7.007 7.007c2.37 0 4.488-1.2 5.755-3.003 2.927.499 5.961.669 9.009.438a20.38 20.38 0 0 0 2.69-.375C49.92 60.622 42.387 64.06 34.03 64.06c-7.224 0-13.837-2.569-19.017-6.819-.531-1.295-1.06-2.62-1.001-3.19.285-2.797.982-5.578 1.939-8.258.67.141 1.352.25 2.064.25 1.713 0 3.283-.493 4.692-1.251z"/></svg>