<svg xmlns="http://www.w3.org/2000/svg" viewBox="0 0 70.001 61.04"><path fill="#00bcf2" d="M49.255 60.878c-4.253-.629-7.764-2.426-10.718-5.485-2.512-2.602-4.058-5.52-4.805-9.066-.435-2.064-.435-5.208 0-7.272.747-3.547 2.293-6.464 4.805-9.066 7.282-7.543 19.058-7.543 26.34 0 2.644 2.74 4.346 6.104 4.96 9.806.218 1.313.218 4.479 0 5.791-1.101 6.641-5.955 12.387-12.217 14.465-2.733.908-5.781 1.209-8.365.827zm3.516-1.953c1.357-.692 2.687-2.643 3.617-5.305.298-.855.583-1.722.632-1.927l.089-.372-1.908-.169a48.744 48.744 0 0 0-3.544-.168c-1.749 0-5.08.263-5.238.414-.148.14.785 2.84 1.463 4.233.364.749.929 1.603 1.417 2.142 1.241 1.372 2.332 1.734 3.472 1.152zm-5.319-.363c0-.036-.168-.312-.374-.613-.9-1.314-2.51-5.171-2.51-6.01 0-.129-.082-.234-.18-.234-.342 0-2.78.7-4.053 1.161l-1.275.463.915.93c1.732 1.759 4.013 3.212 6.302 4.012 1.02.357 1.175.395 1.175.291zm10.529-.624c2.158-.904 3.822-2.027 5.46-3.685l.917-.928-1.164-.45c-1.078-.415-3.753-1.166-4.168-1.169-.099 0-.18.104-.18.233 0 .848-1.738 5-2.54 6.066-.19.253-.345.498-.345.544 0 .147.753-.081 2.02-.61zM38.624 51.58c.74-.373 2.593-.998 4.14-1.396.715-.183 1.287-.39 1.272-.459-.139-.656-.478-4.23-.478-5.038 0-.569-.04-1.137-.088-1.262-.077-.2-.581-.228-4.18-.228h-4.092l.08.685c.351 2.97 1.267 5.799 2.474 7.642.258.393.211.39.872.057zm27.792-1.466c.772-1.525 1.303-3.239 1.586-5.117.12-.792.217-1.52.218-1.62 0-.14-.915-.18-4.098-.18h-4.1l-.075.901a375.7 375.7 0 0 1-.254 2.776c-.098 1.032-.183 2.126-.188 2.433l-.01.557 1.76.482c.967.265 2.298.707 2.956.983 1.403.586 1.251.67 2.205-1.215zm-17.975-.859c2.083-.203 4.795-.178 7.085.064 1.069.114 1.963.186 1.987.163.087-.087.444-3.219.54-4.734l.1-1.55H45.277l.082 1.117c.189 2.59.232 3.047.384 4.12l.16 1.127.522-.08a55.914 55.914 0 0 1 2.017-.227zm-4.843-9.628c.046-.853.19-2.221.322-3.04.131-.82.21-1.52.173-1.557-.036-.036-.663-.225-1.394-.42a32.325 32.325 0 0 1-2.803-.933c-.81-.317-1.51-.576-1.554-.576-.143 0-1.094 1.522-1.681 2.688-.672 1.337-1.278 3.217-1.446 4.487l-.119.901h8.419l.083-1.55zm14.45.433c-.105-1.336-.488-4.165-.606-4.47-.068-.177-.25-.2-.962-.123-3.596.39-5.945.389-9.553 0-.789-.085-.895-.066-.968.176-.134.446-.506 3.367-.571 4.49l-.061 1.045h12.81l-.088-1.117zm10.006.16c-.154-1.277-.602-2.875-1.14-4.059-.45-.996-1.68-3.06-1.823-3.06-.044 0-.672.238-1.396.529-.723.29-1.99.71-2.813.932-.824.222-1.527.433-1.563.47-.036.035.036.67.16 1.41.125.74.264 1.898.309 2.572.045.674.115 1.437.154 1.695l.07.468h8.157l-.115-.958zM55.596 33.66c.71-.078 1.31-.16 1.332-.181.072-.072-.702-2.314-1.102-3.193-1.122-2.463-2.744-4.11-4.046-4.11-1.459 0-3.046 1.59-4.191 4.2-.371.844-1.147 2.939-1.147 3.095 0 .077 1.631.255 3.173.346 1.87.11 4.066.053 5.98-.157zm-10.539-1.862c.456-1.46 1.304-3.295 1.975-4.27.246-.359.42-.679.386-.713-.108-.108-2.017.598-3.139 1.16-.595.298-1.504.84-2.02 1.203-.977.69-2.595 2.152-2.595 2.346 0 .247 3.88 1.542 4.693 1.566.247.01.36-.202.7-1.292zm15.588.93c1.517-.44 3.105-1.059 3.105-1.21 0-.189-1.63-1.658-2.596-2.34a19.013 19.013 0 0 0-2.02-1.203c-1.125-.564-3.031-1.268-3.14-1.16-.033.035.105.281.308.548.553.724 1.758 3.346 2.123 4.618.378 1.314.323 1.296 2.22.746zM.037 24.698l.036-24.7H58.34l.037 11.791c.02 6.485 0 11.79-.038 11.79-.041 0-.464-.107-.939-.24l-.863-.24V11.755H1.876v35.768h30.24l.24.864c.132.474.24.896.24.937 0 .041-7.334.074-16.298.074H0l.036-24.699zm8.04 15.252v-4.11h4.472v-6.202h16.153v-4.472H22.501v-9.951h14.422v9.951h-6.346v4.471H36.22l-.463.645c-.932 1.299-.76 1.23-3.094 1.23h-2.086v4.327h1.01c.555 0 1.01.05 1.01.108 0 .06-.158.693-.35 1.406-.488 1.812-.665 3.144-.671 5.059l-.01 1.648h-7.34v-8.22h4.472v-4.328H14.419v4.327h4.471v8.221H8.073v-4.11z"/></svg>