<svg xmlns="http://www.w3.org/2000/svg" viewBox="0 0 70 56.871"><path fill="#00bcf2" d="M1.932 56.595c-.71-.354-1.121-.75-1.567-1.505L0 54.47V2.527l.412-.745C.912.878 1.636.326 2.587.122 3.1.012 12.25-.02 35.454.012L67.61.052l.57.305c.315.168.763.537.996.82.902 1.095.845-.845.806 27.533l-.036 25.76-.304.57c-.385.72-1.255 1.47-1.944 1.676-.398.119-8.715.158-32.878.154-31.886-.01-32.354-.01-32.889-.276zm37.679-10.65c2.509-.598 2.782-.692 2.78-.947 0-.156-.093-1.118-.203-2.139-.285-2.627-.283-2.643.213-2.937.231-.136.787-.553 1.236-.927l.816-.679 2.22.906c1.808.737 2.253.872 2.386.725.44-.48 3.096-4.97 2.984-5.043-.071-.046-.975-.764-2.01-1.595-1.881-1.512-1.881-1.512-1.792-1.993.049-.264.132-.929.185-1.477.053-.548.155-1.051.227-1.12.072-.067 1.058-.505 2.192-.973 1.134-.467 2.112-.898 2.173-.957.102-.098-1.083-5.472-1.27-5.755-.044-.068-1.012-.013-2.208.127-3.05.354-2.918.366-3.37-.323-.21-.321-.617-.868-.905-1.214l-.523-.63.957-2.312c.527-1.271.942-2.323.922-2.337-.278-.197-5.044-3.092-5.09-3.092-.036 0-.793.9-1.683 2-1.095 1.354-1.682 1.974-1.817 1.922-.269-.103-1.883-.336-2.642-.381l-.614-.037-.98-2.167c-.538-1.192-1.014-2.201-1.056-2.243-.062-.062-5.743 1.4-5.816 1.496-.012.015.123 1.048.3 2.295.176 1.247.322 2.37.325 2.497 0 .126-.227.372-.51.546a8.893 8.893 0 0 0-1.096.85l-.58.531-2.221-.917c-1.826-.754-2.252-.885-2.39-.735-.092.1-.822 1.249-1.622 2.552l-1.453 2.369 1.812 1.467c.996.807 1.862 1.511 1.924 1.563.062.053.015.606-.103 1.23-.119.623-.215 1.361-.215 1.641v.51l-2.096.863c-1.152.475-2.143.908-2.201.962-.086.081 1.168 5.726 1.302 5.857.022.022 1.06-.078 2.308-.22 1.247-.144 2.339-.262 2.427-.264.088 0 .359.323.602.72.242.396.68.983.973 1.302.293.32.532.63.532.688 0 .059-.37.998-.824 2.087-.454 1.088-.825 2.057-.825 2.152 0 .095 1.127.866 2.504 1.714l2.503 1.541.522-.602c.287-.332.97-1.177 1.516-1.879l.994-1.276.756.09c.416.05 1.178.13 1.694.177l.937.086.918 2.234c.504 1.229.98 2.211 1.055 2.183.076-.028 1.39-.349 2.92-.713zm-6.736-9.21c-3.723-.902-6.428-4.316-6.47-8.167-.019-1.59.182-2.474.892-3.935.97-1.996 2.684-3.518 4.817-4.278 1.311-.468 3.476-.582 4.792-.252 2.398.599 4.548 2.317 5.608 4.48.622 1.27.974 2.661.974 3.847s-.352 2.578-.974 3.848c-1.058 2.16-3.161 3.843-5.568 4.457-1.03.263-2.988.263-4.071 0zm3.528-5.593c2.117-1.21 2.078-4.302-.067-5.371-2.319-1.156-4.88.692-4.454 3.212.134.797.848 1.777 1.567 2.153.835.438 2.194.44 2.954.01z"/></svg>