<svg xmlns="http://www.w3.org/2000/svg" viewBox="0 0 70.001 58.203"><path fill="#00bcf2" d="M8.82 57.916c-1.018-.504-1.95-1.85-1.957-2.827-.003-.417-.034-.443-.655-.533a4.54 4.54 0 0 1-1.152-.347c-1.034-.521-1.902-1.961-1.902-3.158 0-.515 0-.516-.763-.674-.943-.196-1.629-.762-2.071-1.713L0 47.977l.005-22.718C.009 6.637.043 2.45.193 2.026.474 1.24 1.016.62 1.707.294L2.332 0l28.95.035 28.952.036.595.412c.657.456 1.35 1.631 1.35 2.29 0 .363.035.386.584.387 1.763.002 3.164 1.166 3.531 2.935l.153.737.677.065c1.131.108 2.25 1.054 2.684 2.267.15.423.184 4.626.19 23.312.006 25.255.07 23.473-.89 24.596a3.91 3.91 0 0 1-1.09.84l-.62.291H9.4l-.58-.287zm59.208-1.255c.279-.244.59-.645.693-.892.277-.661.274-45.814-.002-46.475-.215-.516-1.09-1.33-1.432-1.332a2.662 2.662 0 0 1-.542-.084l-.307-.083-.036 22.023-.036 22.022-.414.808c-.503.985-1.298 1.63-2.264 1.836-.492.106-8.864.15-28.294.15H7.8l.093.446c.14.667.713 1.583 1.135 1.812.325.176 4.095.203 29.434.208l29.062.005.505-.444zm-4.074-3.326c.538-.278 1.07-.945 1.239-1.553.197-.71.197-45.061 0-45.77-.17-.608-.701-1.276-1.24-1.554-.213-.11-.7-.2-1.08-.2h-.694V48.128l-.348.698c-.389.78-1.124 1.371-1.942 1.561-.295.069-12.588.123-28.097.125l-27.574.003.062.747c.075.9.564 1.713 1.228 2.04.423.208 2.771.227 29.259.23 25.02.003 28.85-.024 29.187-.198zm-28.637-13.78c1.269-.297 2.342-.574 2.385-.617.043-.043-.023-1.022-.146-2.177a130.849 130.849 0 0 1-.223-2.184c0-.046.25-.25.556-.452.306-.202.801-.59 1.1-.86l.545-.492 1.61.658c.887.362 1.805.739 2.041.837l.43.178 1.355-2.226c.745-1.224 1.355-2.266 1.355-2.316 0-.05-.773-.72-1.716-1.491-1.054-.86-1.706-1.488-1.69-1.626.173-1.462.32-2.534.349-2.554.02-.013.917-.387 1.993-.83 1.084-.446 1.956-.884 1.956-.982 0-.25-1.097-4.893-1.175-4.971-.059-.06-2.699.169-3.976.343-.534.073-.567.054-1.016-.587-.256-.365-.641-.852-.857-1.083l-.392-.42.825-1.982c.454-1.09.823-2.043.82-2.12-.004-.11-3.975-2.632-4.391-2.788-.063-.023-.75.74-1.527 1.696l-1.414 1.739-.62-.099a30.964 30.964 0 0 0-1.562-.186l-.941-.087-.87-1.92c-.48-1.055-.932-1.94-1.006-1.964-.111-.037-4.933 1.183-5.069 1.282-.023.017.086.933.24 2.036.155 1.102.282 2.088.282 2.19 0 .15-1.237 1.232-1.866 1.632-.086.055-.974-.238-1.974-.652-1-.413-1.897-.751-1.996-.751-.098 0-.717.878-1.375 1.952a282.313 282.313 0 0 1-1.376 2.231c-.167.258-.059.374 1.537 1.65 1.636 1.309 1.713 1.393 1.632 1.785-.046.227-.143.872-.216 1.435-.072.562-.178 1.062-.234 1.111-.057.05-.906.414-1.888.812-.981.398-1.806.743-1.832.767-.043.038.725 3.402 1.08 4.734l.13.485 2.095-.232c2.367-.261 2.07-.347 2.95.854.243.332.58.774.748.981l.305.378-.708 1.75c-.39.962-.727 1.834-.748 1.936-.023.112.839.73 2.157 1.544 1.208.747 2.228 1.358 2.267 1.358.038 0 .656-.742 1.372-1.65l1.303-1.649.823.094c.453.05 1.132.129 1.508.173l.684.081.813 1.959c.633 1.525.862 1.943 1.032 1.892.12-.037 1.257-.31 2.526-.606zm-6.136-8.19c-3.31-.91-5.627-3.931-5.627-7.341 0-3.409 2.354-6.483 5.623-7.343 1.07-.282 2.942-.278 3.901.007 3.315.985 5.634 4.006 5.626 7.33-.008 3.37-2.296 6.36-5.616 7.336-.907.267-2.954.272-3.907.01zm3.258-4.936c1.564-.747 1.845-3.166.51-4.373a2.7 2.7 0 0 0-4.538 2.017c0 2.035 2.113 3.27 4.028 2.356z"/></svg>