<svg xmlns="http://www.w3.org/2000/svg" viewBox="0 0 48 48"><path fill="#E7157B" fill-rule="evenodd" d="m41.945 40.906-5.629-5.268 6.078-6.138a9.12 9.12 0 0 1 1.783 5.427c0 2.226-.79 4.319-2.232 5.979Zm-16.063-5.441a8.761 8.761 0 0 1-.015-.538c0-4.708 3.573-8.599 8.15-9.101v9.702c0 .257.106.49.272.671l-.14.15 6.325 5.92a9.087 9.087 0 0 1-5.452 1.813c-4.844 0-8.858-3.783-9.14-8.617Zm-7.791-14.57c2.452 0 4.855.685 6.95 1.983a13.73 13.73 0 0 1 3.428 3.042 11.136 11.136 0 0 0-4.556 8.101H4.534c.495-7.325 6.386-13.126 13.557-13.126Zm-7.3-9.494c0-4.026 3.276-7.301 7.301-7.301 4.026 0 7.3 3.275 7.3 7.301s-3.274 7.301-7.3 7.301c-4.025 0-7.301-3.275-7.301-7.301Zm31.683 15.613c-.263.02-.534.103-.726.296l-5.731 5.787v-8.325a.996.996 0 0 0-.293-.707.996.996 0 0 0-.707-.293c-1.729 0-3.36.408-4.822 1.114a15.723 15.723 0 0 0-4.102-3.709 15.29 15.29 0 0 0-3.557-1.608 9.307 9.307 0 0 0 4.856-8.168c0-5.129-4.172-9.301-9.3-9.301-5.129 0-9.301 4.172-9.301 9.301 0 3.521 1.967 6.59 4.859 8.169C7.211 21.554 2.5 27.725 2.5 35.021a1 1 0 0 0 1 1h20.433c.553 5.674 5.335 10.061 11.089 10.061 2.936 0 5.708-1.132 7.803-3.186a11.056 11.056 0 0 0 3.352-7.969c0-2.826-1.06-5.523-2.986-7.594a.998.998 0 0 0-.717-.319Zm-3.457-8.939a9.205 9.205 0 0 1 5.021 2.201l-5.021 5.07v-7.271Zm-1.381 10.627a1.002 1.002 0 0 0 1.092-.221l7.441-7.515a1 1 0 0 0 .022-1.384 11.188 11.188 0 0 0-8.174-3.561 1 1 0 0 0-1 1v10.756a1 1 0 0 0 .619.925Z"/></svg>