<svg xmlns="http://www.w3.org/2000/svg" viewBox="0 0 48 48"><path fill="#E7157B" fill-rule="evenodd" d="M41.425 40.667h-6.788V19.83c2.185.697 4.602.697 6.788 0v20.837Zm.57-23.208a9.267 9.267 0 0 1-7.928 0 1 1 0 0 0-1.43.902v23.306a1 1 0 0 0 1 1h8.788a1 1 0 0 0 1-1V18.361a1 1 0 0 0-1.43-.902ZM38.03 4a5.157 5.157 0 0 1 5.152 5.152 5.158 5.158 0 0 1-5.152 5.152 5.157 5.157 0 0 1-5.151-5.152A5.157 5.157 0 0 1 38.03 4Zm0 12.303a7.16 7.16 0 0 0 7.152-7.152c0-3.942-3.208-7.15-7.152-7.15-3.943 0-7.151 3.208-7.151 7.15 0 3.944 3.208 7.152 7.15 7.152ZM2 46.183h43.94v-2H2v2Zm18.575-5.516h6.788V27.728h-6.788v12.94Zm-1 2h8.788a1 1 0 0 0 1-1V26.728a1 1 0 0 0-1-1h-8.788a1 1 0 0 0-1 1v14.94a1 1 0 0 0 1 1Zm-13.06-2h6.788V23.334H6.516v17.333Zm-1 2h8.788a1 1 0 0 0 1-1V22.334a1 1 0 0 0-1-1H5.516a1 1 0 0 0-1 1v19.333a1 1 0 0 0 1 1Z"/></svg>