<svg xmlns="http://www.w3.org/2000/svg" viewBox="0 0 48 48"><path fill="#E7157B" fill-rule="evenodd" d="M29.5 17c-3.258 0-6.03 2.092-7.062 5h2.169a5.503 5.503 0 0 1 4.893-3c3.032 0 5.5 2.467 5.5 5.5 0 3.032-2.468 5.5-5.5 5.5a5.49 5.49 0 0 1-4.24-2h-2.388a7.505 7.505 0 0 0 6.628 4c4.136 0 7.5-3.364 7.5-7.5S33.636 17 29.5 17ZM2 33h13v-2H2v2Zm0-15h13v-2H2v2Zm0 8h27v-2H2v2Zm41.843 9.738-5.025-4.525a11.486 11.486 0 0 1-1.403 1.608l4.997 4.508a1.073 1.073 0 0 0 1.51-.08 1.075 1.075 0 0 0-.08-1.51Zm1.566 2.85a3.068 3.068 0 0 1-2.284 1.012 3.06 3.06 0 0 1-2.051-.785l-5.24-4.726A11.432 11.432 0 0 1 29.5 36c-5.12 0-9.467-3.366-10.951-8h2.128c1.397 3.51 4.822 6 8.823 6 5.238 0 9.5-4.262 9.5-9.5S34.738 15 29.5 15c-4.372 0-8.054 2.973-9.155 7h-2.063c1.146-5.143 5.737-9 11.218-9C35.84 13 41 18.158 41 24.5c0 1.777-.417 3.455-1.141 4.96l5.324 4.794a3.078 3.078 0 0 1 .226 4.334ZM1.999 41h19v-2H2v2Zm0-31h21V8H2v2Z"/></svg>