<svg xmlns="http://www.w3.org/2000/svg" viewBox="0 0 48 48"><path fill="#E7157B" fill-rule="evenodd" d="M10.303 11.503c.009.447.191.865.515 1.175.322.31.746.472 1.194.468a1.666 1.666 0 0 0 1.175-.514c.31-.323.476-.747.468-1.194a1.668 1.668 0 0 0-.515-1.176 1.667 1.667 0 0 0-1.16-.467h-.034a1.663 1.663 0 0 0-1.175.514 1.66 1.66 0 0 0-.468 1.194Zm-.872 2.617a3.65 3.65 0 0 1-1.127-2.578 3.652 3.652 0 0 1 1.025-2.62 3.681 3.681 0 0 1 5.198-.1 3.65 3.65 0 0 1 1.127 2.577 3.65 3.65 0 0 1-1.026 2.62 3.666 3.666 0 0 1-2.65 1.125c-.917 0-1.835-.34-2.547-1.024Zm-5.202-1.994 1.072 3.31 2.291-.459a.989.989 0 0 1 .791.177L9.524 16a.998.998 0 0 1 .398.688l.27 2.31 3.478.002.274-2.327a.994.994 0 0 1 .402-.69l1.127-.825a.997.997 0 0 1 .787-.174l2.31.463 1.077-3.308-2.137-.982a1 1 0 0 1-.536-.605l-.424-1.327a1 1 0 0 1 .082-.795l1.15-2.046-2.813-2.047-1.574 1.71c-.189.203-.452.32-.73.321l-1.419.008h-.006a1 1 0 0 1-.735-.323L8.92 4.332 6.103 6.375 7.258 8.43a1 1 0 0 1 .079.8l-.428 1.312a1 1 0 0 1-.534.6l-2.146.984Zm-2.177-.23a1.001 1.001 0 0 1 .534-1.218l2.557-1.172.156-.479-1.376-2.449a1.002 1.002 0 0 1 .285-1.3L8.466 2.19a.998.998 0 0 1 1.322.133l1.889 2.05.542-.004 1.883-2.043a1 1 0 0 1 1.323-.13l4.253 3.094a1 1 0 0 1 .284 1.298L18.588 9.03l.157.493 2.545 1.17a.999.999 0 0 1 .534 1.217l-1.627 5.001a1.006 1.006 0 0 1-1.148.671l-2.75-.552-.42.308-.326 2.78a1 1 0 0 1-.993.882h-.001L9.3 20.995a.998.998 0 0 1-.992-.884l-.322-2.763-.436-.323-2.729.546a.998.998 0 0 1-1.148-.672l-1.621-5.003ZM29 35c0 2.757 2.243 5 5 5s5-2.243 5-5-2.243-5-5-5-5 2.243-5 5Zm-2 0c0-3.86 3.141-7 7-7 3.86 0 7 3.14 7 7s-3.14 7-7 7c-3.859 0-7-3.14-7-7Zm4.083-13h7.496l-3.748-7.497L31.083 22Zm-2.468 1.526a.996.996 0 0 1-.044-.973l5.366-10.733c.34-.677 1.449-.677 1.789 0l5.366 10.733A.998.998 0 0 1 40.198 24H29.465a1 1 0 0 1-.85-.474ZM13 34h9v-9h-9v9Zm-1-11h11a1 1 0 0 1 1 1v11a1 1 0 0 1-1 1H12a1 1 0 0 1-1-1V24a1 1 0 0 1 1-1ZM46 3v42a1 1 0 0 1-1 1H3a1 1 0 0 1-1-1V22h2v22h40V4H22V2h23a1 1 0 0 1 1 1Z"/></svg>