<svg xmlns="http://www.w3.org/2000/svg" viewBox="0 0 48 48"><path fill="#E7157B" fill-rule="evenodd" d="M22.734 38.089h14.859v-2H22.734v2Zm0-12.237h14.859v-2H22.734v2Zm0-12.237h14.859v-2H22.734v2Zm-8.616 24.223h4.119v-4.119h-4.119v4.119Zm-1 2h6.12a1 1 0 0 0 1-1v-6.119a1 1 0 0 0-1-1h-6.12a1 1 0 0 0-1 1v6.119a1 1 0 0 0 1 1Zm1-14.238h4.119v-4.119h-4.119V25.6Zm-1 2.001h6.12a1 1 0 0 0 1-1v-6.12a1 1 0 0 0-1-1h-6.12a1 1 0 0 0-1 1v6.12a1 1 0 0 0 1 1Zm1-14.238h4.119V9.244h-4.119v4.119Zm-1 2h6.12a1 1 0 0 0 1-1V8.244a1 1 0 0 0-1-1h-6.12a1 1 0 0 0-1 1v6.119a1 1 0 0 0 1 1ZM8 43.956h32.963V4H8v39.956ZM41.963 2H7a1 1 0 0 0-1 1v41.956a1 1 0 0 0 1 1h34.963a1 1 0 0 0 1-1V3a1 1 0 0 0-1-1Z"/></svg>