<svg xmlns="http://www.w3.org/2000/svg" viewBox="0 0 48 48"><path fill="#E7157B" fill-rule="evenodd" d="m24.027 2-4.171 4.172 1.413 1.413 2.758-2.756 4.438 4.437 1.414-1.414L24.027 2Zm6.717 15.169h2V4.306h-2v12.863Zm3.43 3.429h2V7.736h-2v12.862ZM11.165 10.45h12.862v-2H11.165v2Zm26.439 13.578h2V11.166h-2v12.862ZM7.735 13.88h12.861v-2H7.735v2Zm-3.43 3.43h12.861v-2H4.305v2ZM2 24.028l4.171 4.171 1.414-1.415-2.757-2.756 4.437-4.438-1.414-1.414L2 24.028Zm38.468-2.757 2.759 2.757-4.439 4.437 1.414 1.414 5.853-5.851-4.172-4.171-1.415 1.414ZM8.45 36.889h2V24.027h-2v12.862Zm3.43 3.429h2V27.457h-2v12.861Zm18.149-7.573H42.89v-2.001H30.029v2.001ZM15.31 43.749h2V30.887h-2v12.862Zm11.289-7.575h12.862v-2H26.599v2Zm-3.43 3.43h12.862v-2H23.169v2Zm-4.995.599 5.853 5.852 4.171-4.171-1.414-1.414-2.757 2.757-4.439-4.438-1.414 1.414Z"/></svg>