<svg xmlns="http://www.w3.org/2000/svg" viewBox="0 0 48 48"><path fill="#E7157B" fill-rule="evenodd" d="M19.738 43.966h8.492v-8.491h-8.492v8.491Zm9.492-10.491H18.738a1 1 0 0 0-1 1v10.491a1 1 0 0 0 1 1H29.23a1 1 0 0 0 1-1V34.475a1 1 0 0 0-1-1Zm6.245 10.491h8.492v-8.491h-8.492v8.491Zm9.492-10.491H34.475a1 1 0 0 0-1 1v10.491a1 1 0 0 0 1 1h10.492a1 1 0 0 0 1-1V34.475a1 1 0 0 0-1-1ZM4 43.966h8.492v-8.491H4v8.491Zm9.492-10.491H3a1 1 0 0 0-1 1v10.491a1 1 0 0 0 1 1h10.492a1 1 0 0 0 1-1V34.475a1 1 0 0 0-1-1Zm6.246-5.246h8.492v-8.491h-8.492v8.491Zm9.492-10.492H18.738a1 1 0 0 0-1 1v10.492a1 1 0 0 0 1 1H29.23a1 1 0 0 0 1-1V18.737a1 1 0 0 0-1-1Zm6.245 10.492h8.492v-8.491h-8.492v8.491Zm9.492-10.492H34.475a1 1 0 0 0-1 1v10.492a1 1 0 0 0 1 1h10.492a1 1 0 0 0 1-1V18.737a1 1 0 0 0-1-1ZM4 28.229h8.492v-8.491H4v8.491Zm9.492-10.492H3a1 1 0 0 0-1 1v10.492a1 1 0 0 0 1 1h10.492a1 1 0 0 0 1-1V18.737a1 1 0 0 0-1-1Zm6.246-5.246h8.492V4h-8.492v8.491ZM29.23 2H18.738a1 1 0 0 0-1 1v10.491a1 1 0 0 0 1 1H29.23a1 1 0 0 0 1-1V3a1 1 0 0 0-1-1Zm6.245 10.491h8.492V4h-8.492v8.491ZM44.967 2H34.475a1 1 0 0 0-1 1v10.491a1 1 0 0 0 1 1h10.492a1 1 0 0 0 1-1V3a1 1 0 0 0-1-1ZM4 12.491h8.492V4H4v8.491ZM13.492 2H3a1 1 0 0 0-1 1v10.491a1 1 0 0 0 1 1h10.492a1 1 0 0 0 1-1V3a1 1 0 0 0-1-1Z"/></svg>