<svg xmlns="http://www.w3.org/2000/svg" viewBox="0 0 48 48"><path fill="#E7157B" fill-rule="evenodd" d="M34 30c2.757 0 5 2.243 5 5s-2.243 5-5 5-5-2.243-5-5 2.243-5 5-5Zm0 12c3.859 0 7-3.14 7-7s-3.141-7-7-7-7 3.14-7 7 3.141 7 7 7Zm1.831-26.497L39.579 23h-7.496l3.748-7.497ZM30.465 25h10.732a1 1 0 0 0 .895-1.447L36.726 12.82c-.34-.677-1.45-.677-1.789 0L29.57 23.553A1 1 0 0 0 30.465 25ZM14 32h9v-9h-9v9Zm-1 2h11a1 1 0 0 0 1-1V22a1 1 0 0 0-1-1H13a1 1 0 0 0-1 1v11a1 1 0 0 0 1 1Zm-9 4h2v2H3a1 1 0 0 1-1-1V3a1 1 0 0 1 1-1h36a1 1 0 0 1 1 1v3h-2V4H4v34Zm6 6h34V10H10v34ZM45 8H9a1 1 0 0 0-1 1v36a1 1 0 0 0 1 1h36a1 1 0 0 0 1-1V9a1 1 0 0 0-1-1Z"/></svg>