<svg xmlns="http://www.w3.org/2000/svg" viewBox="0 0 48 48"><path fill="#E7157B" fill-rule="evenodd" d="M23.945 2 2 14.54v31.501h43.89V14.54L23.945 2ZM4 15.7 23.945 4.302 43.89 15.7v28.341H4V15.7Zm3.237 26.85h33.417V16.114H7.237V42.55Zm1.999-1.999h29.417V18.115H9.236v22.436Zm8.473-15.454h5.49v-5.492h-5.49v5.492Zm2-2.001h1.49v-1.491h-1.49v1.491Zm-8.981 2.001h5.49v-5.492h-5.49v5.492Zm1.999-2.001h1.49v-1.491h-1.49v1.491Zm11.963 8.982h5.491v-5.492H24.69v5.492Zm2.001-2.001h1.49v-1.49h-1.49v1.49Zm-8.982 2.001h5.49v-5.492h-5.49v5.492Zm2-2.001h1.49v-1.49h-1.49v1.49Zm-8.981 2.001h5.49v-5.492h-5.49v5.492Zm1.999-2.001h1.49v-1.49h-1.49v1.49Zm18.945 8.982h5.492v-5.492h-5.492v5.492Zm2-2h1.491v-1.491h-1.491v1.491Zm-8.982 2h5.491v-5.492H24.69v5.492Zm2.001-2h1.49v-1.491h-1.49v1.491Zm-8.982 2h5.49v-5.492h-5.49v5.492Zm2-2h1.49v-1.491h-1.49v1.491Zm-8.981 2h5.49v-5.492h-5.49v5.492Zm1.999-2h1.49v-1.491h-1.49v1.491Z"/></svg>