<svg xmlns="http://www.w3.org/2000/svg" viewBox="0 0 48 48"><path fill="#E7157B" fill-rule="evenodd" d="M34.021 38h-17v2h17.076a1.926 1.926 0 0 0 1.924-1.924V35h-2v3Zm-7-33.254V11h6.268l-6.268-6.254ZM11.021 22h-2V3.924C9.021 2.863 9.884 2 10.945 2h15.743c.265 0 .519.105.706.292l8.333 8.316a.996.996 0 0 1 .294.708V15h-2v-2h-8a1 1 0 0 1-1-1V4h-14v18Zm34.123-.611-1.789.894c.436.872.666 1.832.666 2.778 0 3.274-2.649 5.939-5.905 5.939h-9.978l1.813-1.813-1.414-1.414L25.11 31.2a.997.997 0 0 0 0 1.414l3.427 3.426 1.414-1.415L28.325 33h9.791c4.359 0 7.905-3.562 7.905-7.939a8.273 8.273 0 0 0-.877-3.672ZM30.578 17c-4.36 0-7.906 3.562-7.906 7.939a8.27 8.27 0 0 0 .876 3.671l1.789-.892a6.284 6.284 0 0 1-.665-2.779c0-3.274 2.65-5.939 5.906-5.939h9.231l-1.677 1.677 1.414 1.414 3.426-3.426a1 1 0 0 0 0-1.415l-3.426-3.426-1.414 1.414L39.894 17h-9.316Zm-2.524 27H16.021v2h12.033a1.969 1.969 0 0 0 1.967-1.967V42h-2l.033 2ZM3.988 8h3.033V6H3.988a1.969 1.969 0 0 0-1.967 1.967V24h2L3.988 8Zm7.192 23.618a1.34 1.34 0 1 0-2.68.001 1.34 1.34 0 0 0 2.68-.001Zm2 0a3.343 3.343 0 0 1-3.339 3.339 3.343 3.343 0 0 1-3.339-3.339 3.343 3.343 0 0 1 3.339-3.339 3.343 3.343 0 0 1 3.339 3.339Zm2.531.015a.582.582 0 0 0-.466-.57 1.004 1.004 0 0 1-.768-.714 4.73 4.73 0 0 0-.452-1.089.997.997 0 0 1 .017-1.021.565.565 0 0 0 .087-.298c0-.422-.487-.734-.879-.494a1 1 0 0 1-1.02.017 4.758 4.758 0 0 0-1.089-.452 1 1 0 0 1-.715-.768.583.583 0 0 0-1.14.001 1 1 0 0 1-.715.767 4.788 4.788 0 0 0-1.088.452c-.319.181-.71.175-1.02-.016-.394-.241-.88.071-.88.493 0 .103.029.203.087.298a.998.998 0 0 1 .018 1.019c-.194.34-.346.707-.452 1.091-.101.363-.398.64-.768.714a.582.582 0 0 0 0 1.14 1 1 0 0 1 .768.714c.106.384.258.75.452 1.09a.998.998 0 0 1-.018 1.019.57.57 0 0 0-.087.298c0 .424.485.737.88.494a.998.998 0 0 1 1.02-.016 4.74 4.74 0 0 0 1.088.451c.364.101.64.397.715.768a.582.582 0 0 0 1.14.001c.074-.371.351-.668.715-.769a4.711 4.711 0 0 0 1.089-.451.995.995 0 0 1 1.02.017c.393.24.879-.071.879-.495a.57.57 0 0 0-.087-.298.995.995 0 0 1-.017-1.02c.193-.339.346-.705.452-1.089a1 1 0 0 1 .768-.714.582.582 0 0 0 .466-.57Zm.418 3.691a2.585 2.585 0 0 1-2.582 2.582 2.56 2.56 0 0 1-.79-.126 6.663 6.663 0 0 1-.571.238 2.589 2.589 0 0 1-2.33 1.47 2.592 2.592 0 0 1-2.33-1.47 6.8 6.8 0 0 1-.571-.238 2.555 2.555 0 0 1-.79.126 2.585 2.585 0 0 1-2.582-2.582c0-.268.042-.535.126-.79a6.792 6.792 0 0 1-.237-.571A2.59 2.59 0 0 1 2 31.633c0-1.01.592-1.91 1.472-2.33.07-.195.15-.385.237-.571a2.527 2.527 0 0 1-.126-.791 2.585 2.585 0 0 1 2.582-2.582c.268 0 .535.043.79.127a6.8 6.8 0 0 1 .571-.238 2.593 2.593 0 0 1 2.33-1.471c1.01 0 1.91.592 2.33 1.471.194.071.386.15.571.238.256-.084.522-.127.79-.127a2.585 2.585 0 0 1 2.582 2.582c0 .268-.043.535-.127.79.088.186.168.377.239.572a2.59 2.59 0 0 1 1.47 2.33 2.59 2.59 0 0 1-1.47 2.33 6.691 6.691 0 0 1-.239.572c.084.255.127.521.127.789ZM12.021 39h2v6a1.001 1.001 0 0 1-1.625.781l-2.875-2.3-2.875 2.3A1 1 0 0 1 5.021 45v-6h2v3.919l1.875-1.5a1.001 1.001 0 0 1 1.25 0l1.875 1.5V39Z"/></svg>