<svg width="40" height="40" viewBox="0 0 40 40" fill="none" xmlns="http://www.w3.org/2000/svg">
<circle cx="20" cy="20" r="20" fill="#FDE5D4"/>
<path d="M11.9 10.5C11.9 9.7 12.6 9 13.4 9H26.9C27.7 9 28.4 9.7 28.4 10.5V18.7C28.4 19.5 27.7 20.2 26.9 20.2H13.4C12.6 20.2 11.9 19.5 11.9 18.7V10.5Z" stroke="#FFA663" stroke-width="1.5" stroke-linecap="round" stroke-linejoin="round"/>
<path d="M11.9 13.5H28.4" stroke="#FFA663" stroke-width="1.5" stroke-linecap="round" stroke-linejoin="round"/>
<path d="M20.2 28.5C21.6 28.5 22.8 27.3 22.8 25.9C22.8 24.5 21.6 23.3 20.2 23.3C18.8 23.3 17.6 24.5 17.6 25.9C17.6 27.3 18.7 28.5 20.2 28.5Z" fill="#FFD0AC" stroke="#FFA663" stroke-width="1.5" stroke-linecap="round" stroke-linejoin="round"/>
<path d="M23.9 31.6C23.2 30.2 21.8 29.3 20.2 29.3C18.6 29.3 17.2 30.2 16.4 31.6" stroke="#FFA663" stroke-width="1.5" stroke-linecap="round" stroke-linejoin="round"/>
<path d="M27.8 28.5C29.2 28.5 30.4 27.3 30.4 25.9C30.4 24.5 29.3 23.3 27.8 23.3C26.4 23.3 25.2 24.5 25.2 25.9C25.2 27.3 26.4 28.5 27.8 28.5Z" fill="#FFD0AC" stroke="#FFA663" stroke-width="1.5" stroke-linecap="round" stroke-linejoin="round"/>
<path d="M31.4 31.2C30.5 30 29.1 29.2 27.5 29.3C26 29.4 24.6 30.2 23.9 31.5" stroke="#FFA663" stroke-width="1.5" stroke-linecap="round" stroke-linejoin="round"/>
<path d="M12.6 28.5C14 28.5 15.2 27.3 15.2 25.9C15.2 24.5 14 23.3 12.6 23.3C11.2 23.3 10 24.5 10 25.9C10 27.3 11.1 28.5 12.6 28.5Z" fill="#FFD0AC" stroke="#FFA663" stroke-width="1.5" stroke-linecap="round" stroke-linejoin="round"/>
<path d="M9 31.2C9.9 30 11.3 29.2 12.9 29.3C14.4 29.4 15.8 30.2 16.5 31.5" stroke="#FFA663" stroke-width="1.5" stroke-linecap="round" stroke-linejoin="round"/>
</svg>
