<svg xmlns="http://www.w3.org/2000/svg" fill="none" viewBox="0 0 40 40"><circle cx="20" cy="20" r="20" fill="#FDE5D4"/><path stroke="#FFA663" stroke-linecap="round" stroke-linejoin="round" stroke-width="1.5" d="M11.9 10.5c0-.8.7-1.5 1.5-1.5h13.5c.8 0 1.5.7 1.5 1.5v8.2c0 .8-.7 1.5-1.5 1.5H13.4c-.8 0-1.5-.7-1.5-1.5v-8.2ZM11.9 13.5h16.5"/><path fill="#FFD0AC" stroke="#FFA663" stroke-linecap="round" stroke-linejoin="round" stroke-width="1.5" d="M20.2 28.5c1.4 0 2.6-1.2 2.6-2.6 0-1.4-1.2-2.6-2.6-2.6-1.4 0-2.6 1.2-2.6 2.6 0 1.4 1.1 2.6 2.6 2.6Z"/><path stroke="#FFA663" stroke-linecap="round" stroke-linejoin="round" stroke-width="1.5" d="M23.9 31.6c-.7-1.4-2.1-2.3-3.7-2.3s-3 .9-3.8 2.3"/><path fill="#FFD0AC" stroke="#FFA663" stroke-linecap="round" stroke-linejoin="round" stroke-width="1.5" d="M27.8 28.5c1.4 0 2.6-1.2 2.6-2.6 0-1.4-1.1-2.6-2.6-2.6-1.4 0-2.6 1.2-2.6 2.6 0 1.4 1.2 2.6 2.6 2.6Z"/><path stroke="#FFA663" stroke-linecap="round" stroke-linejoin="round" stroke-width="1.5" d="M31.4 31.2c-.9-1.2-2.3-2-3.9-1.9-1.5.1-2.9.9-3.6 2.2"/><path fill="#FFD0AC" stroke="#FFA663" stroke-linecap="round" stroke-linejoin="round" stroke-width="1.5" d="M12.6 28.5c1.4 0 2.6-1.2 2.6-2.6 0-1.4-1.2-2.6-2.6-2.6-1.4 0-2.6 1.2-2.6 2.6 0 1.4 1.1 2.6 2.6 2.6Z"/><path stroke="#FFA663" stroke-linecap="round" stroke-linejoin="round" stroke-width="1.5" d="M9 31.2c.9-1.2 2.3-2 3.9-1.9 1.5.1 2.9.9 3.6 2.2"/></svg>