<svg xmlns="http://www.w3.org/2000/svg" fill="none" viewBox="0 0 24 25"><circle cx="12" cy="12.631" r="12" fill="#BE55BE"/><path fill="#fff" d="M12.461 16.75c-1.994 0-3.413-1.108-3.43-2.685h2.122c.021.576.57.972 1.317.972.75 0 1.278-.43 1.27-1.048.008-.614-.567-1.049-1.45-1.049h-.847v-1.5h.848c.775 0 1.312-.417 1.308-1.022.004-.584-.452-.99-1.12-.99-.704 0-1.24.401-1.258.998H9.205c.017-1.551 1.39-2.642 3.273-2.642 1.87 0 3.158 1.074 3.154 2.497.004.98-.712 1.658-1.722 1.803v.068c1.347.158 2.05.925 2.045 1.998.005 1.518-1.448 2.6-3.494 2.6Z"/></svg>