<svg xmlns="http://www.w3.org/2000/svg" fill="none" viewBox="0 0 33 33"><circle cx="16.5" cy="16.5" r="16.5" fill="#FDD9BE"/><path fill="#EC6D13" d="M10.01 22.09a.78.78 0 0 0 .9.9A5.42 5.42 0 0 0 14 21.444L11.556 19a5.42 5.42 0 0 0-1.546 3.09ZM24.269 9.924a.885.885 0 0 0-.923-.922c-3.562.159-6.743 1.558-9.097 3.848-1.718-.477-4.295-.35-5.249 2.068.795.223 1.75.636 2.704 1.272l-.095.191a.863.863 0 0 0 .159 1.018l4.103 4.103c.286.286.7.35 1.018.16.063-.033.127-.064.19-.096.637.954 1.05 1.908 1.273 2.704 2.45-1.05 2.545-3.531 2.067-5.249 2.29-2.354 3.69-5.535 3.85-9.097Zm-5.408 1.877a1.824 1.824 0 0 1 2.608 0 1.824 1.824 0 0 1 0 2.608 1.824 1.824 0 0 1-2.608 0 1.852 1.852 0 0 1 0-2.608Z"/></svg>