<svg xmlns="http://www.w3.org/2000/svg" fill="none" viewBox="0 0 41 41"><rect width="39.617" height="39.714" x=".545" y=".397" fill="#FDC9BE" rx="19.808"/><path stroke="#EF5B3E" stroke-linecap="round" stroke-linejoin="round" stroke-width="1.5" d="M26 22.054a6 6 0 0 0-12 0v5.5a1.5 1.5 0 0 1-1.5 1.5h15a1.5 1.5 0 0 1-1.5-1.5v-5.5Z" clip-rule="evenodd"/><path stroke="#EF5B3E" stroke-linecap="round" stroke-linejoin="round" stroke-width="1.5" d="M21.415 31.054a1.5 1.5 0 0 1-2.83 0M20 14.055v2M16.5 12.554a4.5 4.5 0 0 0-4.5 4.5M8.5 17.054a8 8 0 0 1 8-8M23.5 12.554a4.5 4.5 0 0 1 4.5 4.5M31.5 17.054a8 8 0 0 0-8-8"/></svg>