<svg xmlns="http://www.w3.org/2000/svg" fill="none" viewBox="0 0 41 41"><rect width="39.617" height="39.714" x=".432" y=".397" fill="#FDE8BE" rx="19.808"/><path stroke="#ECA313" stroke-linecap="round" stroke-linejoin="round" stroke-width="1.5" d="M15 20.554a3.5 3.5 0 1 0 0-7 3.5 3.5 0 0 0 0 7Z" clip-rule="evenodd"/><path stroke="#ECA313" stroke-linecap="round" stroke-linejoin="round" stroke-width="1.5" d="M15 13.554v3.5h3.5M17 31.054a6.98 6.98 0 0 0 1.5-4M23 31.054a6.98 6.98 0 0 1-1.5-4M15.498 31.054h9M8.5 24.054h23"/><path stroke="#ECA313" stroke-linecap="round" stroke-linejoin="round" stroke-width="1.5" d="M8.5 11.054a1 1 0 0 1 1-1h21a1 1 0 0 1 1 1v15a1 1 0 0 1-1 1h-21a1 1 0 0 1-1-1v-15Z" clip-rule="evenodd"/><path stroke="#ECA313" stroke-linecap="round" stroke-linejoin="round" stroke-width="1.5" d="m21.5 15.554 1.5-2 3 2.5 2.5-3M27.5 21.054v-1.5M25.5 21.054v-2M23.5 21.054v-3M21.5 21.054v-1.5"/></svg>