<svg xmlns="http://www.w3.org/2000/svg" fill="none" viewBox="0 0 41 41"><rect width="39.617" height="39.714" x=".432" y=".659" fill="#FDE8BE" rx="19.808"/><path stroke="#ECA313" stroke-linecap="round" stroke-linejoin="round" stroke-width="1.5" d="M31.5 28.316a2 2 0 0 1-2 2h-19a2 2 0 0 1-2-2v-14a2 2 0 0 1 2-2h19a2 2 0 0 1 2 2v14Z" clip-rule="evenodd"/><path stroke="#ECA313" stroke-linecap="round" stroke-linejoin="round" stroke-width="1.5" d="M8.5 17.314h23M12.25 14.316a.25.25 0 1 0 0 .5.25.25 0 0 0 0-.5M15.25 14.316a.25.25 0 1 0 0 .5.25.25 0 0 0 0-.5M18.25 14.316a.25.25 0 1 0 0 .5.25.25 0 0 0 0-.5"/><path stroke="#ECA313" stroke-linecap="round" stroke-linejoin="round" stroke-width="1.5" d="M11.5 23.816a2.5 2.5 0 0 1 2.5-2.5h12a2.5 2.5 0 0 1 0 5H14a2.5 2.5 0 0 1-2.5-2.5Z" clip-rule="evenodd"/><path stroke="#ECA313" stroke-linecap="round" stroke-linejoin="round" stroke-width="1.5" d="m12.28 25.626 4.313-4.312M14.594 26.314l4.999-5M17.594 26.314l4.999-5"/></svg>