<svg width="41" height="41" viewBox="0 0 41 41" fill="none" xmlns="http://www.w3.org/2000/svg">
<rect x="0.431641" y="0.396973" width="39.617" height="39.7143" rx="19.8085" fill="#FDE8BE"/>
<path fill-rule="evenodd" clip-rule="evenodd" d="M15 20.5542C16.933 20.5542 18.5 18.9872 18.5 17.0542C18.5 15.1212 16.933 13.5542 15 13.5542C13.067 13.5542 11.5 15.1212 11.5 17.0542C11.5 18.9872 13.067 20.5542 15 20.5542Z" stroke="#ECA313" stroke-width="1.5" stroke-linecap="round" stroke-linejoin="round"/>
<path d="M15 13.5542V17.0542H18.5" stroke="#ECA313" stroke-width="1.5" stroke-linecap="round" stroke-linejoin="round"/>
<path d="M17 31.0542C17.9058 29.9104 18.4304 28.5115 18.5 27.0542" stroke="#ECA313" stroke-width="1.5" stroke-linecap="round" stroke-linejoin="round"/>
<path d="M23 31.0542C22.0942 29.9104 21.5696 28.5115 21.5 27.0542" stroke="#ECA313" stroke-width="1.5" stroke-linecap="round" stroke-linejoin="round"/>
<path d="M15.498 31.0542H24.498" stroke="#ECA313" stroke-width="1.5" stroke-linecap="round" stroke-linejoin="round"/>
<path d="M8.5 24.0542H31.5" stroke="#ECA313" stroke-width="1.5" stroke-linecap="round" stroke-linejoin="round"/>
<path fill-rule="evenodd" clip-rule="evenodd" d="M8.5 11.0542C8.5 10.5019 8.94772 10.0542 9.5 10.0542H30.5C31.0523 10.0542 31.5 10.5019 31.5 11.0542V26.0542C31.5 26.6065 31.0523 27.0542 30.5 27.0542H9.5C8.94772 27.0542 8.5 26.6065 8.5 26.0542V11.0542Z" stroke="#ECA313" stroke-width="1.5" stroke-linecap="round" stroke-linejoin="round"/>
<path d="M21.5 15.5542L23 13.5542L26 16.0542L28.5 13.0542" stroke="#ECA313" stroke-width="1.5" stroke-linecap="round" stroke-linejoin="round"/>
<path d="M27.5 21.0542V19.5542" stroke="#ECA313" stroke-width="1.5" stroke-linecap="round" stroke-linejoin="round"/>
<path d="M25.5 21.0542V19.0542" stroke="#ECA313" stroke-width="1.5" stroke-linecap="round" stroke-linejoin="round"/>
<path d="M23.5 21.0542V18.0542" stroke="#ECA313" stroke-width="1.5" stroke-linecap="round" stroke-linejoin="round"/>
<path d="M21.5 21.0542V19.5542" stroke="#ECA313" stroke-width="1.5" stroke-linecap="round" stroke-linejoin="round"/>
</svg>
