<svg xmlns="http://www.w3.org/2000/svg" fill="none" viewBox="0 0 41 40"><rect width="39.617" height="39.714" x=".47" y=".043" fill="#FDD9BE" rx="19.808"/><path stroke="#EC6D13" stroke-linecap="round" stroke-linejoin="round" stroke-width="1.5" d="M8.889 28.538h22.78"/><path stroke="#EC6D13" stroke-linecap="round" stroke-linejoin="round" stroke-width="1.5" d="M18.288 25.858a1 1 0 0 0 1-1V13.95a1 1 0 0 0-1-1h-1.962a1 1 0 0 0-1 1v10.907a1 1 0 0 0 1 1h1.962ZM12.346 25.858a1 1 0 0 0 1-1v-11.9a1 1 0 0 0-1-1h-1.962a1 1 0 0 0-1 1v11.9a1 1 0 0 0 1 1h1.962ZM24.23 25.858a1 1 0 0 0 1-1v-4.95a1 1 0 0 0-1-1H22.27a1 1 0 0 0-1 1v4.95a1 1 0 0 0 1 1h1.962Z" clip-rule="evenodd"/><path stroke="#EC6D13" stroke-linecap="round" stroke-linejoin="round" stroke-width="1.5" d="M29.688 19.603v5.957M27.707 23.574l1.98 1.986 1.982-1.986"/></svg>