<svg xmlns="http://www.w3.org/2000/svg" fill="none" viewBox="0 0 40 40"><rect width="40" height="40" fill="#FDC9BE" rx="20"/><path stroke="#EF5B3E" stroke-linecap="round" stroke-linejoin="round" stroke-width="1.5" d="M28.5 27.5a1 1 0 0 1-1 1h-5a1 1 0 0 1-1-1v-7a1 1 0 0 1 1-1h5a1 1 0 0 1 1 1v7ZM28.5 15.5a1 1 0 0 1-1 1h-5a1 1 0 0 1-1-1v-3a1 1 0 0 1 1-1h5a1 1 0 0 1 1 1v3ZM11.5 12.5a1 1 0 0 1 1-1h5a1 1 0 0 1 1 1v7a1 1 0 0 1-1 1h-5a1 1 0 0 1-1-1v-7ZM11.5 24.5a1 1 0 0 1 1-1h5a1 1 0 0 1 1 1v3a1 1 0 0 1-1 1h-5a1 1 0 0 1-1-1v-3Z" clip-rule="evenodd"/><path stroke="#EF5B3E" stroke-linecap="round" stroke-linejoin="round" stroke-width="1.5" d="M8.5 9.5a1 1 0 0 1 1-1h21a1 1 0 0 1 1 1v21a1 1 0 0 1-1 1h-21a1 1 0 0 1-1-1v-21Z" clip-rule="evenodd"/></svg>