<svg xmlns="http://www.w3.org/2000/svg" fill="none" viewBox="0 0 41 41"><rect width="39.617" height="39.714" x=".47" y=".659" fill="#FDD9BE" rx="19.808"/><path stroke="#EC6D13" stroke-linecap="round" stroke-linejoin="round" stroke-width="1.5" d="M16.5 16.016h-3.833A1.667 1.667 0 0 0 11 17.684v11.332M28 29.017v-6.5"/><path stroke="#EC6D13" stroke-linecap="round" stroke-linejoin="round" stroke-width="1.5" d="M31 29.016a3 3 0 0 1-3 3H11a3 3 0 0 1-3-3h23ZM24.933 9.016A5.954 5.954 0 0 0 19 15.083a5.944 5.944 0 0 0 .781 3.193L18 22.016l3.741-1.782a6.064 6.064 0 1 0 3.192-11.218Z" clip-rule="evenodd"/><path stroke="#EC6D13" stroke-linecap="round" stroke-linejoin="round" stroke-width="1.5" d="M25 17.016a.25.25 0 1 1 0 .5.25.25 0 0 1 0-.5M25 15.517v-3"/></svg>