<svg xmlns="http://www.w3.org/2000/svg" fill="none" viewBox="0 0 41 40"><rect width="39.617" height="39.714" x=".433" y=".043" fill="#FDE8BE" rx="19.808"/><path stroke="#ECA313" stroke-linecap="round" stroke-linejoin="round" stroke-width="1.5" d="m16.284 27.05-3.962-3.972M12.322 27.05l3.962-3.972M14.303 12.653v4.964M16.779 15.135h-4.952M23.712 15.135h4.952M23.712 26.056h4.952M23.712 26.056h4.952M23.712 24.07h4.952M20.245 9.178V31.02M9.35 20.1h21.79"/><path stroke="#ECA313" stroke-linecap="round" stroke-linejoin="round" stroke-width="1.5" d="M9.35 12.178a3 3 0 0 1 3-3h15.79a3 3 0 0 1 3 3V28.02a3 3 0 0 1-3 3H12.35a3 3 0 0 1-3-3V12.178Z" clip-rule="evenodd"/></svg>