<svg width="41" height="41" viewBox="0 0 41 41" fill="none" xmlns="http://www.w3.org/2000/svg">
<rect x="0.470703" y="0.396973" width="39.617" height="39.7143" rx="19.8085" fill="#FDD9BE"/>
<path fill-rule="evenodd" clip-rule="evenodd" d="M20 19.0547C23.0376 19.0547 25.5 17.9354 25.5 16.5547C25.5 15.174 23.0376 14.0547 20 14.0547C16.9624 14.0547 14.5 15.174 14.5 16.5547C14.5 17.9354 16.9624 19.0547 20 19.0547Z" stroke="#EC6D13" stroke-width="1.5" stroke-linecap="round" stroke-linejoin="round"/>
<path fill-rule="evenodd" clip-rule="evenodd" d="M29 12.0547C30.3807 12.0547 31.5 11.3831 31.5 10.5547C31.5 9.72626 30.3807 9.05469 29 9.05469C27.6193 9.05469 26.5 9.72626 26.5 10.5547C26.5 11.3831 27.6193 12.0547 29 12.0547Z" stroke="#EC6D13" stroke-width="1.5" stroke-linecap="round" stroke-linejoin="round"/>
<path d="M31.5 10.5537V13.5537C31.5 14.3817 30.381 15.0537 29 15.0537C27.619 15.0537 26.5 14.3827 26.5 13.5537V10.5537" stroke="#EC6D13" stroke-width="1.5" stroke-linecap="round" stroke-linejoin="round"/>
<path fill-rule="evenodd" clip-rule="evenodd" d="M11 12.0547C12.3807 12.0547 13.5 11.3831 13.5 10.5547C13.5 9.72626 12.3807 9.05469 11 9.05469C9.61929 9.05469 8.5 9.72626 8.5 10.5547C8.5 11.3831 9.61929 12.0547 11 12.0547Z" stroke="#EC6D13" stroke-width="1.5" stroke-linecap="round" stroke-linejoin="round"/>
<path d="M13.5 10.5537V13.5537C13.5 14.3817 12.381 15.0537 11 15.0537C9.619 15.0537 8.5 14.3827 8.5 13.5537V10.5537" stroke="#EC6D13" stroke-width="1.5" stroke-linecap="round" stroke-linejoin="round"/>
<path fill-rule="evenodd" clip-rule="evenodd" d="M29 29.0547C30.3807 29.0547 31.5 28.3831 31.5 27.5547C31.5 26.7263 30.3807 26.0547 29 26.0547C27.6193 26.0547 26.5 26.7263 26.5 27.5547C26.5 28.3831 27.6193 29.0547 29 29.0547Z" stroke="#EC6D13" stroke-width="1.5" stroke-linecap="round" stroke-linejoin="round"/>
<path d="M31.5 27.5537V30.5537C31.5 31.3817 30.381 32.0537 29 32.0537C27.619 32.0537 26.5 31.3817 26.5 30.5537V27.5537" stroke="#EC6D13" stroke-width="1.5" stroke-linecap="round" stroke-linejoin="round"/>
<path fill-rule="evenodd" clip-rule="evenodd" d="M11 29.0547C12.3807 29.0547 13.5 28.3831 13.5 27.5547C13.5 26.7263 12.3807 26.0547 11 26.0547C9.61929 26.0547 8.5 26.7263 8.5 27.5547C8.5 28.3831 9.61929 29.0547 11 29.0547Z" stroke="#EC6D13" stroke-width="1.5" stroke-linecap="round" stroke-linejoin="round"/>
<path d="M13.5 27.5537V30.5537C13.5 31.3817 12.381 32.0537 11 32.0537C9.619 32.0537 8.5 31.3827 8.5 30.5537V27.5537" stroke="#EC6D13" stroke-width="1.5" stroke-linecap="round" stroke-linejoin="round"/>
<path d="M25.5 20.5537C25.5 21.9347 23.037 23.0537 20 23.0537C16.963 23.0537 14.5 21.9357 14.5 20.5537" stroke="#EC6D13" stroke-width="1.5" stroke-linecap="round" stroke-linejoin="round"/>
<path d="M14.5 16.5537V24.5537C14.5 25.9347 16.963 27.0537 20 27.0537C23.037 27.0537 25.5 25.9347 25.5 24.5537V16.5537" stroke="#EC6D13" stroke-width="1.5" stroke-linecap="round" stroke-linejoin="round"/>
<path d="M13.3086 14.1318L14.8506 15.6738" stroke="#EC6D13" stroke-width="1.5" stroke-linecap="round" stroke-linejoin="round"/>
<path d="M26.6904 14.1318L25.1484 15.6738" stroke="#EC6D13" stroke-width="1.5" stroke-linecap="round" stroke-linejoin="round"/>
<path d="M13.3555 27.0505L14.9065 25.4985" stroke="#EC6D13" stroke-width="1.5" stroke-linecap="round" stroke-linejoin="round"/>
<path d="M26.6447 27.0505L25.0938 25.4985" stroke="#EC6D13" stroke-width="1.5" stroke-linecap="round" stroke-linejoin="round"/>
</svg>
