<svg width="40" height="40" viewBox="0 0 40 40" fill="none" xmlns="http://www.w3.org/2000/svg">
<circle cx="20" cy="20" r="20" fill="#FDD9BE"/>
<path d="M16.5 18.5C18.6 20.4 21.9 20.4 24 18.5" stroke="#F4812F" stroke-width="1.5" stroke-linecap="round" stroke-linejoin="round"/>
<path d="M18 14V15.5" stroke="#F4812F" stroke-width="1.5" stroke-linecap="round" stroke-linejoin="round"/>
<path d="M22.5 14V15.5" stroke="#F4812F" stroke-width="1.5" stroke-linecap="round" stroke-linejoin="round"/>
<path d="M21.8 27.3C21.9 28.8 22.4 30.3 23.3 31.6H17.3C18.2 30.3 18.7 28.8 18.8 27.3" stroke="#F4812F" stroke-width="1.5" stroke-linecap="round" stroke-linejoin="round"/>
<path d="M15.1 31.6H25.6" stroke="#F4812F" stroke-width="1.5" stroke-linecap="round" stroke-linejoin="round"/>
<path d="M9.09998 24.4H31.6" stroke="#FFAB70" stroke-width="1.5" stroke-linecap="round" stroke-linejoin="round"/>
<path d="M9.1 11.5C9.1 10.7 9.8 10 10.6 10H30.1C30.9 10 31.6 10.7 31.6 11.5V25.8C31.6 26.6 30.9 27.3 30.1 27.3H10.5C9.7 27.3 9 26.6 9 25.8V11.5H9.1Z" stroke="#F4812F" stroke-width="1.5" stroke-linecap="round" stroke-linejoin="round"/>
</svg>
