<svg xmlns="http://www.w3.org/2000/svg" fill="none" viewBox="0 0 38 40"><ellipse cx="18.601" cy="20" fill="#FFEDC9" rx="18.601" ry="20"/><path fill="#FFDD98" d="M8 10h21v5H8z"/><path stroke="#FFBD3C" stroke-linecap="round" stroke-linejoin="round" stroke-width="1.5" d="M8 11.5c0-.8.7-1.5 1.5-1.5h18c.8 0 1.5.7 1.5 1.5V28c0 .8-.7 1.5-1.5 1.5h-18c-.8 0-1.5-.7-1.5-1.5V11.5v0ZM8 14.5h21"/><path fill="#FFDD98" stroke="#FFBD3C" stroke-linecap="round" stroke-linejoin="round" stroke-width="1.5" d="M11 18.3c0-.4.3-.8.8-.8h4.4c.4 0 .8.3.8.8v4.5c0 .4-.3.8-.8.8h-4.5c-.4 0-.8-.3-.8-.8v-4.5h.1Z"/><path stroke="#FFBD3C" stroke-linecap="round" stroke-linejoin="round" stroke-width="1.5" d="M11 26.5h6"/><path fill="#FFDD98" stroke="#FFBD3C" stroke-linecap="round" stroke-linejoin="round" stroke-width="1.5" d="M20 18.3c0-.4.3-.8.8-.8h4.4c.4 0 .8.3.8.8v7.5c0 .4-.3.8-.8.8h-4.5c-.4 0-.8-.3-.8-.8v-7.5h.1Z"/><path stroke="#FFBD3C" stroke-linecap="round" stroke-linejoin="round" stroke-width="1.5" d="M20 22.1h6"/></svg>