<svg xmlns="http://www.w3.org/2000/svg" width="48" height="48" fill="none"><path fill="#000" d="M39.273 0H8.727A8.727 8.727 0 0 0 0 8.727v30.546A8.727 8.727 0 0 0 8.727 48h30.546A8.727 8.727 0 0 0 48 39.273V8.727A8.727 8.727 0 0 0 39.273 0z"/><path fill="#0ACF83" d="M18.773 37.684a4.616 4.616 0 0 0 4.616-4.617v-4.616h-4.616a4.616 4.616 0 0 0 0 9.233z"/><path fill="#A259FF" d="M14.156 23.835a4.616 4.616 0 0 1 4.617-4.616h4.616v9.232h-4.616a4.616 4.616 0 0 1-4.617-4.616z"/><path fill="#F24E1E" d="M14.156 13.987a4.616 4.616 0 0 1 4.617-4.616h4.616v9.232h-4.616a4.616 4.616 0 0 1-4.617-4.616z"/><path fill="#FF7262" d="M24.62 9.37h4.616a4.616 4.616 0 1 1 0 9.233H24.62V9.371z"/><path fill="#1ABCFE" d="M33.853 23.835a4.616 4.616 0 1 1-9.233 0 4.616 4.616 0 0 1 9.233 0z"/></svg>