<svg xmlns="http://www.w3.org/2000/svg" width="49" height="49" fill="none"><path fill="#FCD1CA" fill-rule="evenodd" d="m23.733 35.33.084 5.132a2.945 2.945 0 0 1-2.052-.83l-.4-.477-9.736-11.577-3.31-3.941a.046.046 0 0 1-.02-.021l-.053-.06-.01-.014a1.093 1.093 0 0 1-.154-.28 1.124 1.124 0 0 1-.08-.388v-.08a1.15 1.15 0 0 1 .317-.765c.211-.23.52-.376.86-.376h3.268l11.285 13.68.002-.002z" clip-rule="evenodd"/><path fill="#FF9D8D" fill-rule="evenodd" d="M23.731 29.175v6.36L8.295 17.115a1.146 1.146 0 0 1-.215-.353 1.156 1.156 0 0 1-.08-.39v-.079a1.15 1.15 0 0 1 .317-.761c.211-.234.52-.377.86-.377h2.927l11.627 14.02z" clip-rule="evenodd"/><path fill="#FF6661" fill-rule="evenodd" d="M9.17 9.001c-.336 0-.646.142-.855.375a1.145 1.145 0 0 0-.314.757v.078c.003.139.03.268.08.387 0 .011.006.02.01.031a1.1 1.1 0 0 0 .216.333l.016.018 15.408 18.196v11.286a2.921 2.921 0 0 0 2.04-.824c.003 0 .003 0 .003-.002l13.392-15.899a1.088 1.088 0 0 0 .215-.35c.053-.13.08-.272.08-.424V10.17a1.15 1.15 0 0 0-.316-.798A1.155 1.155 0 0 0 38.288 9H9.172l-.001.001z" clip-rule="evenodd"/></svg>