<svg width="38" height="34" viewBox="0 0 38 34" fill="none" xmlns="http://www.w3.org/2000/svg">
<g clip-path="url(#clip0)">
<path d="M8.3663 1.42993L18.742 0.333008L29.1177 1.42993L37.1505 12.2133L18.742 33.6498L0.333496 12.2133L8.3663 1.42993Z" fill="#FDB300"/>
<path d="M7.78986 12.2134L18.742 33.6499L0.333496 12.2134H7.78986Z" fill="#EA6C00"/>
<path d="M29.6945 12.2134L18.7424 33.6499L37.1509 12.2134H29.6945Z" fill="#EA6C00"/>
<path d="M7.78955 12.2134H29.6939L18.7417 33.6499L7.78955 12.2134Z" fill="#FDAD00"/>
<path d="M18.7417 0.333008L8.36596 1.42992L7.78955 12.2133L18.7417 0.333008Z" fill="#FDD231"/>
<path d="M18.7417 0.333008L29.1174 1.42992L29.6938 12.2133L18.7417 0.333008Z" fill="#FDD231"/>
<path d="M37.1509 12.2135L29.118 1.43018L29.6945 12.2135H37.1509Z" fill="#FDAD00"/>
<path d="M0.333496 12.2135L8.36627 1.43018L7.78986 12.2135H0.333496Z" fill="#FDAD00"/>
<path d="M18.7417 0.333008L7.78955 12.2133H29.6939L18.7417 0.333008Z" fill="#FEEEB7"/>
</g>
<defs>
<clipPath id="clip0">
<rect width="36.8914" height="33.3333" fill="white" transform="translate(0.333496 0.333008)"/>
</clipPath>
</defs>
</svg>
