<svg xmlns="http://www.w3.org/2000/svg" width="86" height="37" viewBox="0 0 86 37" fill="none"><path d="M43.0267 23.5465H37.8867L36.5523 26.5001H34.5977L40.5353 13.5687L46.2684 26.4982H44.2854L43.0267 23.5465ZM42.2882 21.8196L40.5083 17.6821L38.6422 21.8196H42.2882Z" fill="#12153E"/><path d="M47.0878 18.8248L49.0476 23.1354L50.9989 18.8248H52.9677L49.0315 26.4958L45.1289 18.8248H47.0878Z" fill="#12153E"/><path d="M60.3729 23.0808H54.9437C54.9611 23.6399 55.1764 24.174 55.5501 24.5856C55.7295 24.7688 55.9444 24.9124 56.1812 25.0073C56.418 25.1022 56.6717 25.1465 56.9262 25.1373C57.3107 25.1527 57.6898 25.0422 58.0074 24.8221C58.3891 24.4908 58.7125 24.0961 58.9637 23.655L60.4406 24.4897C60.235 24.8518 59.9928 25.1912 59.7178 25.5024C59.4786 25.7707 59.2038 26.004 58.9012 26.1955C58.6097 26.3773 58.2918 26.5115 57.9591 26.5932C57.6 26.6797 57.2319 26.722 56.8628 26.7194C56.3578 26.7417 55.8539 26.6548 55.3846 26.4646C54.9153 26.2743 54.4913 25.9851 54.1408 25.616C53.4315 24.8076 53.0629 23.7498 53.1141 22.6692C53.0652 21.5948 53.4205 20.5417 54.1082 19.7224C54.8126 19.0161 55.7619 18.6173 56.7528 18.6115C57.7438 18.6057 58.6976 18.9932 59.4101 19.6912C60.0923 20.5212 60.4371 21.5832 60.3743 22.6615L60.3729 23.0808ZM58.5764 21.6287C58.5089 21.2124 58.2907 20.8364 57.9644 20.5743C57.6381 20.3121 57.2271 20.1825 56.8117 20.2107C56.6082 20.2085 56.4057 20.241 56.2128 20.3067C56.0284 20.3713 55.8561 20.4674 55.7035 20.5907C55.5492 20.7159 55.4165 20.8664 55.311 21.0358C55.1979 21.2183 55.1138 21.4178 55.062 21.6268L58.5764 21.6287Z" fill="#12153E"/><path d="M66.2887 20.1335L64.8421 20.914C64.6148 20.4407 64.3325 20.2044 63.9952 20.205C63.8425 20.2014 63.6944 20.2585 63.5829 20.3643C63.5266 20.4167 63.4822 20.4808 63.4527 20.5523C63.4232 20.6237 63.4093 20.7008 63.412 20.7782C63.412 21.0725 63.7489 21.364 64.4226 21.6527C65.1088 21.9075 65.7435 22.2866 66.2958 22.7714C66.6304 23.1483 66.8039 23.6443 66.7782 24.1506C66.7847 24.5015 66.7158 24.8496 66.5762 25.1708C66.4365 25.4919 66.2296 25.7784 65.9697 26.0104C65.6174 26.317 65.1975 26.5334 64.7454 26.6413C64.2934 26.7492 63.8224 26.7455 63.372 26.6305C62.9217 26.5154 62.5052 26.2924 62.1577 25.9802C61.8102 25.668 61.5417 25.2758 61.375 24.8365L62.8676 24.1352C62.9945 24.3889 63.1536 24.6247 63.341 24.8365C63.5464 25.0334 63.8199 25.1409 64.1026 25.1359C64.6934 25.1359 64.9891 24.8628 64.9897 24.3165C64.9897 24.0015 64.7616 23.7075 64.3052 23.4344C64.1288 23.3451 63.9526 23.2585 63.7765 23.1744C63.6004 23.0903 63.4216 23.0036 63.2401 22.9144C62.8359 22.7377 62.471 22.4804 62.167 22.1579C61.8922 21.8071 61.7514 21.3677 61.7703 20.9202C61.7615 20.6117 61.8172 20.3047 61.9339 20.0195C62.0506 19.7343 62.2255 19.4775 62.4472 19.2657C62.9004 18.8328 63.5036 18.5979 64.1263 18.6119C64.5974 18.6097 65.0576 18.7547 65.4444 19.0271C65.8312 19.2996 66.1257 19.6863 66.2878 20.1345L66.2887 20.1335Z" fill="#12153E"/><path d="M67.9563 13.1921H69.7078V19.4633C70.2614 18.9248 70.9969 18.6206 71.7642 18.6128C72.146 18.5959 72.527 18.6624 72.8811 18.8079C73.2353 18.9534 73.5544 19.1745 73.8168 19.4561C74.309 20.1292 74.5413 20.9615 74.4701 21.7961V26.5001H72.7185V21.9635C72.7568 21.4947 72.6437 21.026 72.3962 20.628C72.2668 20.4821 72.1056 20.3687 71.9253 20.297C71.7451 20.2253 71.5509 20.1972 71.358 20.215C71.1121 20.1895 70.8638 20.2291 70.6375 20.33C70.4113 20.4309 70.2147 20.5896 70.0671 20.7906C69.7741 21.4137 69.6478 22.1039 69.7007 22.792V26.5049H67.9492L67.9563 13.1921Z" fill="#12153E"/><path d="M81.8672 18.8253H83.6244V26.5006H81.8672V25.6961C81.244 26.3415 80.3933 26.7097 79.5022 26.7197C78.6111 26.7297 77.7526 26.3807 77.1154 25.7494C77.057 25.6915 77.0009 25.6315 76.9469 25.5695C76.2562 24.756 75.8925 23.7091 75.9282 22.6366C75.8931 21.5806 76.2575 20.551 76.9469 19.7583C77.2623 19.3883 77.6544 19.0932 78.0951 18.8942C78.5359 18.6952 79.0146 18.5972 79.497 18.607C79.9465 18.6129 80.3898 18.7141 80.7984 18.9041C81.2069 19.0942 81.5717 19.3688 81.8691 19.7104L81.8672 18.8253ZM77.7152 22.6394C77.6874 23.2903 77.8954 23.9291 78.2998 24.4355C78.4829 24.6599 78.7136 24.8396 78.9747 24.961C79.2359 25.0824 79.5207 25.1425 79.808 25.1368C80.1026 25.1475 80.3958 25.0924 80.6669 24.9753C80.938 24.8582 81.1804 24.6821 81.3768 24.4594C81.7647 23.9491 81.9751 23.323 81.9751 22.6788C81.9751 22.0346 81.7647 21.4085 81.3768 20.8981C81.1839 20.6743 80.9443 20.4966 80.6754 20.3781C80.4064 20.2595 80.1149 20.203 79.8218 20.2126C79.5354 20.208 79.2515 20.2677 78.9906 20.3876C78.7298 20.5074 78.4983 20.6844 78.3131 20.9058C77.908 21.3883 77.6946 22.0063 77.7143 22.6394H77.7152Z" fill="#12153E"/><path d="M18.0295 5.99655L12.2656 18.773L14.9615 21.2991L17.8373 23.997L20.7117 21.2991L23.5336 18.6545L18.0295 5.99655Z" fill="url(#paint0_linear_1248_7324)"/><path d="M2.37109 9.49931L7.20765 29.9827L12.262 18.7744L2.37109 9.49931Z" fill="#69BDFA"/><path d="M14.9597 21.2996L12.2662 18.7735L7.21094 29.9813H11.4529L17.8389 23.9975L14.9597 21.2996Z" fill="url(#paint1_linear_1248_7324)"/><path d="M23.5352 18.6546L28.465 29.9819L33.3053 9.50232L23.5352 18.6546Z" fill="#69BDFA"/><path d="M20.7152 21.2987L17.8398 23.9951L24.2239 29.9804H28.4673L23.5384 18.6531L20.7152 21.2987Z" fill="url(#paint2_linear_1248_7324)"/><path d="M11.4531 29.9808H24.2236L17.8391 23.9955L11.4531 29.9808Z" fill="#2868F3"/><defs><linearGradient id="paint0_linear_1248_7324" x1="17.0883" y1="1.44244" x2="19.1489" y2="24.7144" gradientUnits="userSpaceOnUse"><stop stop-color="#2C2AD2"/><stop offset="1" stop-color="#2BBAFE"/></linearGradient><linearGradient id="paint1_linear_1248_7324" x1="12.5249" y1="18.7735" x2="12.5249" y2="29.9813" gradientUnits="userSpaceOnUse"><stop stop-color="#2863E4"/><stop offset="1" stop-color="#3A87F4"/></linearGradient><linearGradient id="paint2_linear_1248_7324" x1="23.1536" y1="18.6531" x2="23.1536" y2="29.9804" gradientUnits="userSpaceOnUse"><stop stop-color="#2863E4"/><stop offset="1" stop-color="#3A87F4"/></linearGradient></defs></svg>