<svg xmlns="http://www.w3.org/2000/svg" viewBox="0 0 205 45"><g fill="none" fill-rule="evenodd"><path fill="#F9634E" d="M19.646 21.67a.44.44 0 0 1-.44 0l-8.024-4.649a.443.443 0 0 1-.001-.765l8.085-4.698a.444.444 0 0 1 .443 0l8.073 4.67a.443.443 0 0 1 0 .767l-8.136 4.676ZM31.683 17a.443.443 0 0 1 0-.767l6.656-3.825a.441.441 0 0 1 .661.383v7.676a.441.441 0 0 1-.662.383L31.683 17Zm-30.44-5.737a.443.443 0 0 1 0-.766l8.094-4.683a.442.442 0 0 1 .442-.001l7.767 4.494a.442.442 0 0 1 0 .764L9.463 15.77a.442.442 0 0 1-.443 0l-7.776-4.506ZM9.31 27.615a.44.44 0 0 1-.441-.002L.91 22.99a.442.442 0 0 1 0-.764L9.02 17.51a.444.444 0 0 1 .443 0l8.012 4.643a.442.442 0 0 1 0 .765l-8.167 4.696Zm20.575-.011a.441.441 0 0 1-.44-.001l-8.072-4.676a.443.443 0 0 1 .003-.767l8.135-4.677a.443.443 0 0 1 .441 0l8.096 4.683a.443.443 0 0 1-.002.767l-8.161 4.67ZM7.303 16.259c.294.17.294.594 0 .764l-6.64 3.859A.442.442 0 0 1 0 20.5v-7.706c0-.34.368-.554.663-.383l6.64 3.848Zm14.124-5.192a.442.442 0 0 1 0-.765l7.759-4.508a.442.442 0 0 1 .443 0l8.125 4.702a.442.442 0 0 1 0 .766l-7.8 4.483a.441.441 0 0 1-.44 0l-8.087-4.678ZM31.613 28.86a.443.443 0 0 1 .002-.767l6.724-3.848a.441.441 0 0 1 .661.383v7.745a.441.441 0 0 1-.662.384l-6.725-3.897ZM19.708 9.815a.444.444 0 0 1-.443.001l-7.762-4.49a.442.442 0 0 1 0-.766L19.28.06a.44.44 0 0 1 .443 0l7.744 4.482c.294.17.294.594.001.764l-7.76 4.51Zm-.645 25.463a.439.439 0 0 1 .44.002l7.78 4.52a.442.442 0 0 1 0 .765l-7.561 4.375a.44.44 0 0 1-.443 0l-7.837-4.535a.442.442 0 0 1 .002-.767l7.619-4.36Zm18.55-1.456a.442.442 0 0 1 0 .764l-8.168 4.727a.442.442 0 0 1-.443 0L21.235 34.8a.442.442 0 0 1 .002-.765l8.202-4.694a.44.44 0 0 1 .44 0l7.733 4.482Zm-20.276.199a.442.442 0 0 1-.002.766L9.712 39.15a.444.444 0 0 1-.44 0l-8.033-4.648a.443.443 0 0 1 .002-.767l7.622-4.383a.445.445 0 0 1 .443.001l8.03 4.668Zm1.866-10.612a.438.438 0 0 1 .44 0l8.066 4.675a.441.441 0 0 1-.002.765l-8.198 4.693a.443.443 0 0 1-.441 0l-8.036-4.67a.443.443 0 0 1 .002-.767l8.17-4.696ZM0 24.714c0-.34.37-.553.663-.382l6.478 3.764a.443.443 0 0 1-.001.766L.66 32.586A.441.441 0 0 1 0 32.203v-7.489Z"/><g fill="#4A4A4A"><path d="M79.502 23.925h4.855a.229.229 0 0 0 .214-.303l-2.573-7.71h-.076l-2.633 7.709a.229.229 0 0 0 .213.304Zm5.714 2.116h-6.59a.226.226 0 0 0-.213.154l-1.534 4.5a.226.226 0 0 1-.213.154h-2.054a.229.229 0 0 1-.212-.308l6.46-18.208a.226.226 0 0 1 .211-.151h1.813c.096 0 .182.06.214.153l6.323 18.208a.228.228 0 0 1-.212.306h-2.055a.227.227 0 0 1-.214-.155l-1.51-4.497a.225.225 0 0 0-.214-.156ZM107.741 14.168h-5.603a.228.228 0 0 0-.226.23v16.221c0 .127-.1.23-.225.23h-2.033a.228.228 0 0 1-.226-.23V14.398a.228.228 0 0 0-.226-.23h-5.528a.227.227 0 0 1-.225-.229v-1.528c0-.127.101-.23.225-.23h14.067c.124 0 .225.103.225.23v1.528a.227.227 0 0 1-.225.23M117.717 23.925h4.855a.229.229 0 0 0 .214-.303l-2.573-7.71h-.076l-2.633 7.709a.229.229 0 0 0 .213.304Zm5.714 2.116h-6.59a.227.227 0 0 0-.213.154l-1.534 4.5a.225.225 0 0 1-.213.154h-2.053a.23.23 0 0 1-.213-.308l6.46-18.208a.227.227 0 0 1 .212-.151h1.813c.095 0 .18.06.213.153l6.323 18.208a.228.228 0 0 1-.212.306h-2.055a.225.225 0 0 1-.214-.155l-1.51-4.497a.226.226 0 0 0-.214-.156ZM153.67 12.465l-4.343 18.208a.226.226 0 0 1-.22.176h-1.87a.226.226 0 0 1-.212-.153l-3.895-11.194h-.126l-3.895 11.194a.226.226 0 0 1-.212.153h-1.87a.226.226 0 0 1-.22-.176l-4.318-18.208a.229.229 0 0 1 .22-.283h2.216c.107 0 .2.076.221.181l2.99 14.331.088.013 3.642-10.628a.227.227 0 0 1 .214-.154h1.975c.096 0 .18.061.213.153l3.68 10.668h.076l2.964-14.382a.226.226 0 0 1 .22-.182h2.243c.146 0 .254.139.22.283M163.39 30.849h-2.046a.228.228 0 0 1-.226-.23V12.411c0-.127.101-.23.226-.23h2.046c.125 0 .226.103.226.23v18.208c0 .127-.101.23-.226.23M175.19 21.157c0 .127.102.23.226.23h4.315c2.296.077 3.708-1.385 3.708-3.59 0-2.18-1.424-3.706-3.708-3.629h-4.315a.227.227 0 0 0-.225.23v6.759Zm6.988 1.867a.227.227 0 0 0-.134.316l3.414 6.778v.73h-2.531a.225.225 0 0 1-.204-.13l-3.347-7.225a.225.225 0 0 0-.204-.132h-3.756a.227.227 0 0 0-.225.23v7.028c0 .127-.101.23-.226.23h-2.033a.227.227 0 0 1-.226-.23V12.411c0-.127.101-.23.226-.23h6.8c3.556-.09 6.205 2.013 6.205 5.59 0 2.468-1.31 4.42-3.759 5.253ZM203.457 22.194h-7.091a.228.228 0 0 0-.226.23v6.221c0 .127.101.23.226.23h7.986c.125 0 .226.102.226.229v1.515c0 .127-.1.23-.226.23h-10.47a.228.228 0 0 1-.226-.23V12.411c0-.127.1-.23.226-.23h10.332c.125 0 .226.103.226.23v1.528a.227.227 0 0 1-.226.23h-7.848a.228.228 0 0 0-.226.229v5.58c0 .127.101.23.226.23h7.09c.126 0 .227.102.227.228v1.53a.227.227 0 0 1-.226.228M56.62 23.08v-8.682c0-.127.1-.23.225-.23h3.067c1.703 0 3.04.462 4.011 1.372.627.58 1.031 1.456 1.259 2.564l2.253-1.31c-.362-1.203-.938-2.146-1.746-2.805-1.451-1.205-3.38-1.807-5.777-1.807h-5.55a.227.227 0 0 0-.227.229v12.112l2.485-1.443M65.367 19.706c.007.176.032.33.032.514v2.577c0 2.5-.492 4.141-1.476 4.923-.971.77-2.308 1.154-4.01 1.154h-3.068a.227.227 0 0 1-.225-.229V24.79l-2.485 1.443v4.386c0 .127.101.23.226.23h5.551c2.396 0 4.326-.59 5.777-1.757 1.463-1.18 2.194-3.282 2.194-6.295v-2.552c0-.692-.044-1.332-.123-1.929l-2.393 1.39"/></g></g></svg>