<svg width="85" height="20" viewBox="0 0 85 20" fill="none" xmlns="http://www.w3.org/2000/svg">
<path d="M11.7083 0.390667C12.367 0.531451 13.0319 0.646868 13.6811 0.820243C15.0446 1.18463 16.2671 1.81934 17.3292 2.76517C16.5099 3.54872 15.7176 4.30203 14.8831 5.09835C14.0932 4.47625 13.0988 3.93462 11.9764 3.82408C10.9121 3.71908 9.79996 3.6339 8.7634 3.82559C6.1678 4.30691 4.42497 6.49762 4.27058 9.22677C4.19179 10.6213 4.32552 11.9776 4.98408 13.2423C5.96167 15.1212 7.5543 16.0956 9.61768 16.2913C10.9413 16.4178 12.2635 16.3199 13.5442 15.8856C13.926 15.7567 14.1002 15.5825 14.0851 15.1457C14.0502 14.0663 14.074 12.9859 14.074 11.8358H10.3177C10.4061 10.7428 10.4872 9.72775 10.5723 8.66667C10.7727 8.65239 10.9405 8.63088 11.1077 8.63088C13.1146 8.62601 15.1217 8.64113 17.1271 8.61727C17.5788 8.6124 17.6791 8.76999 17.6759 9.19166C17.6608 11.8771 17.6744 14.566 17.6561 17.253C17.6561 17.4557 17.5424 17.7637 17.3897 17.8423C13.7878 19.7133 10.0299 20.2136 6.18141 18.7849C2.90239 17.5678 1.09673 15.078 0.602646 11.6256C0.584335 11.5096 0.535112 11.3988 0.5 11.2844V8.76998L0.600296 8.48758C1.10379 4.61435 3.6048 1.74827 7.36665 0.756402C7.93381 0.607555 8.51526 0.512135 9.08881 0.390503L11.7083 0.390667Z" fill="white"/>
<path d="M65.7145 14.0434C65.9682 15.2271 66.5713 16.0314 67.6237 16.3894C69.3968 16.9931 70.9161 16.5063 72.2144 15.0943C72.9494 15.6542 73.6623 16.196 74.4179 16.771C73.4753 17.9643 72.3337 18.8107 70.878 19.159C68.342 19.7651 65.9818 19.4199 64.1053 17.4901C62.2542 15.5905 61.9297 13.239 62.6304 10.7667C63.3002 8.39459 64.9357 6.95483 67.3396 6.43135C68.7165 6.13063 70.0887 6.24352 71.4037 6.75424C73.3678 7.51394 74.3628 9.06743 74.7304 11.0554C74.8824 11.8715 74.8616 12.7211 74.938 13.5523C74.9747 13.9549 74.806 14.0528 74.4258 14.0503C71.757 14.0375 69.0866 14.0431 66.4154 14.0431H65.7145V14.0434ZM71.4897 11.3801C71.4697 9.98723 70.3769 8.99603 68.8781 8.95319C67.2427 8.90783 65.8815 9.9627 65.7765 11.3801H71.4897Z" fill="white"/>
<path d="M27.3662 11.1758C27.5158 10.1178 26.9748 9.33271 25.9271 9.08458C24.5232 8.7553 23.2257 9.05047 22.042 9.86174C21.8846 9.96993 21.7366 10.0917 21.6339 10.1704C20.9816 9.53801 20.3388 8.91355 19.6453 8.24055C19.9109 8.04886 20.191 7.82458 20.4949 7.6344C22.7914 6.19935 25.255 5.90098 27.8229 6.69327C29.5936 7.23977 30.5975 8.52128 30.6523 10.3691C30.7373 13.1581 30.7024 15.9526 30.6992 18.7471C30.6992 18.868 30.5043 19.0891 30.3944 19.094C29.5257 19.1226 28.6548 19.11 27.7415 19.11C27.7017 18.733 27.6651 18.3941 27.6174 17.9597C26.8839 18.7121 26.0375 19.1219 25.0766 19.2944C23.7942 19.5274 22.5357 19.4727 21.3403 18.9189C18.8441 17.7663 18.4582 14.2447 20.6347 12.5591C21.4127 11.957 22.3178 11.6101 23.2733 11.4829C24.4474 11.323 25.635 11.2706 26.8147 11.179C27.0012 11.1632 27.1882 11.1758 27.3662 11.1758ZM27.3918 13.6999C26.7912 13.6999 26.2089 13.6323 25.6513 13.7165C24.8718 13.8375 24.0874 14.0123 23.3452 14.2773C22.8432 14.4547 22.5934 14.9311 22.6389 15.5015C22.6826 16.0599 22.9769 16.4354 23.4972 16.6375C24.9798 17.2104 27.7743 16.1127 27.3918 13.6999Z" fill="white"/>
<path d="M49.4629 6.62186H52.52C52.5566 7.08486 52.5947 7.53745 52.6441 8.11504C53.7037 6.72299 55.0465 6.22655 56.6175 6.29022C58.844 6.37926 60.268 7.59961 60.6879 9.78545C60.7866 10.2962 60.8272 10.8244 60.8311 11.3447C60.8454 13.7716 60.8375 16.1987 60.8366 18.6256C60.8366 18.7617 60.8177 18.8976 60.8032 19.1076C59.7445 19.1076 58.7032 19.1195 57.6635 19.0861C57.5744 19.0837 57.42 18.7932 57.4185 18.6358C57.401 16.6805 57.4121 14.7261 57.4042 12.7716C57.401 12.249 57.4074 11.7193 57.3263 11.2061C57.148 10.0813 56.6701 9.56185 55.7798 9.42426C54.6741 9.25407 53.6113 9.68197 53.209 10.6095C52.9591 11.1822 52.8279 11.848 52.8111 12.4773C52.7619 14.4827 52.7936 16.492 52.7936 18.4974V19.0837H49.4629V6.62186Z" fill="white"/>
<path d="M41.2826 3.13837H44.63V6.59798H47.9646C47.882 7.59791 47.8055 8.52864 47.7203 9.53563H44.6666C44.6539 9.77738 44.6372 9.9484 44.6379 10.1179C44.6466 11.7741 44.6236 13.4327 44.6801 15.0889C44.7142 16.1126 45.2098 16.5207 46.2384 16.4738C46.7905 16.4483 47.341 16.3386 47.9567 16.2583C47.882 17.1222 47.8136 18.0005 47.7165 18.8746C47.7086 18.9574 47.524 19.0552 47.4062 19.083C46.2399 19.3631 45.0619 19.4466 43.8831 19.1889C42.3869 18.8619 41.5682 17.9336 41.3654 16.3633C41.3105 15.9329 41.2676 15.4946 41.2651 15.0611C41.2579 11.2396 41.2604 7.419 41.2619 3.59667C41.2619 3.46126 41.2747 3.32367 41.2826 3.13837Z" fill="white"/>
<path d="M36.1978 19.0764H32.8076C32.7965 18.8879 32.7774 18.7041 32.7774 18.5212C32.7765 14.7378 32.7838 10.953 32.7671 7.17047C32.7648 6.71234 32.8792 6.56349 33.3486 6.58583C34.199 6.62397 35.0533 6.59692 35.9546 6.59692C35.9944 7.06631 36.0325 7.50462 36.0819 8.0654C37.1964 6.68848 38.6211 6.53089 40.1747 6.61674C40.0976 7.53318 40.0339 8.39939 39.9337 9.26089C39.9217 9.36589 39.7213 9.49878 39.5884 9.53053C39.3895 9.57589 39.1724 9.54011 38.9631 9.54649C37.3738 9.5989 36.2346 10.7158 36.2108 12.3099C36.1822 14.3654 36.1997 16.4241 36.198 18.4812C36.1978 18.6684 36.1978 18.8545 36.1978 19.0764Z" fill="white"/>
<path d="M76.4644 6.62175H79.5969C79.6286 7.0656 79.6621 7.50559 79.7019 8.04487C80.8522 6.59318 82.4001 6.54295 84.0699 6.61704C84.0166 7.29005 83.9815 7.94306 83.9116 8.5907C83.8051 9.53805 83.7938 9.53738 82.8314 9.54293C80.9365 9.55721 79.7911 10.7162 79.7879 12.635C79.7815 14.7637 79.7864 16.8907 79.7864 19.0656H76.4645L76.4644 6.62175Z" fill="white"/>
<path d="M84.5001 17.6271C84.5001 18.5689 83.7579 19.327 82.8249 19.3366C81.879 19.3454 81.117 18.5673 81.128 17.6C81.1391 16.6684 81.8511 15.9709 82.8001 15.9669C83.766 15.9622 84.5001 16.678 84.5001 17.6271ZM82.8033 16.2866C82.027 16.2889 81.455 16.8642 81.4597 17.6397C81.4637 18.4057 82.0492 19.0166 82.7953 19.027C83.5407 19.0381 84.1858 18.3819 84.1809 17.6183C84.1764 16.8618 83.5782 16.2842 82.8033 16.2866Z" fill="white"/>
<path d="M82.2363 16.6971C82.6913 16.7441 83.2156 16.4879 83.5497 17.0112C83.7127 17.2674 83.5568 17.5347 83.144 17.8274C83.2196 17.9547 83.2967 18.0836 83.3723 18.2156C83.4392 18.3294 83.502 18.4463 83.5649 18.5609L83.4375 18.6691C83.1718 18.3532 82.9061 18.0382 82.5656 17.6325C82.4925 18.0717 82.447 18.346 82.4018 18.6229L82.2363 18.6037V16.6971ZM82.5004 17.5729C82.7669 17.5013 82.9967 17.4519 83.2132 17.3676L83.2148 17.0956C82.9952 17.0112 82.7622 16.9603 82.5004 16.892V17.5729Z" fill="white"/>
</svg>
