<?xml version="1.0" encoding="utf-8"?>
<!-- Generator: Adobe Illustrator 27.5.0, SVG Export Plug-In . SVG Version: 6.00 Build 0)  -->
<svg version="1.1" xmlns="http://www.w3.org/2000/svg" xmlns:xlink="http://www.w3.org/1999/xlink" x="0px" y="0px"
	 viewBox="0 0 720 530" style="enable-background:new 0 0 720 530;" xml:space="preserve">
<style type="text/css">
	.st64{opacity:6.000000e-02;fill:#00AFF0;enable-background:new    ;}
	.st65{opacity:0.12;fill:#0091EA;enable-background:new    ;}
</style>
<g id="Layer_1">
</g>
<g id="Layer_2">
	<g>
		<path id="Intersection_196" class="st64" d="M0,270.4C0,138.7,106.8,31.9,238.4,31.9s238.4,106.8,238.4,238.4
			S370.1,508.8,238.4,508.8S0,402,0,270.4z M166.9,270.4c0,39.5,32,71.5,71.5,71.5s71.5-32,71.5-71.5s-32-71.5-71.5-71.5
			S166.9,230.8,166.9,270.4L166.9,270.4z"/>
		<path id="Intersection_197" class="st65" d="M238.4,508.8L310,281.4C383.5,47.8,421.2,31.9,595.6,31.9h119.7
			c-20,88.2-89.1,155.6-208.9,178.8c60.6,17.4,132.1,0,132.1,0C617.8,301.3,552,358.1,457.1,365c-37.6,87.3-123.5,143.8-218.5,143.8
			H238.4z"/>
	</g>
</g>
</svg>
