<svg xmlns="http://www.w3.org/2000/svg" viewBox="0 0 150 54.9"><defs><style>.cls-1{fill:#17212e;}.cls-2{fill:#07d0ff;}</style></defs><title>PC_logo_horizontal</title><g id="Capa_2" data-name="Capa 2"><g id="logos"><rect class="cls-1" x="50.55" y="4.77" width="5.07" height="19.1"/><path class="cls-1" d="M37.9,11.94c-6.74,0-8.08,4.2-8,6.56.07,1.85,1.45,5.67,6.87,5.67a9.56,9.56,0,0,0,5.67-2.12l.39,1.82H47.2v-13c0-4.93-5-6.39-7.67-6.39-8.34,0-8.92,4.91-8.92,6h4.73c0-.31.46-2.1,3.44-2.1,3.31,0,3.65,2,3.65,3v.54Zm4.52,5.71a5.18,5.18,0,0,1-4.69,2.55c-1.84-.08-2.51-1.2-2.55-1.94-.17-2.55,2.2-2.92,4.19-2.92h3.05Z"/><rect class="cls-1" x="22.61" width="5.07" height="23.87"/><path class="cls-1" d="M59,4.77v19.1H64v-10c0-2.84,1.24-5.26,4.07-5.26a3.5,3.5,0,0,1,3.76,3.85V23.87H77V11.11c0-4.93-4.16-6.63-7.43-6.63A7.32,7.32,0,0,0,64,7V4.77Z"/><path class="cls-1" d="M5.71,22.14a8.69,8.69,0,0,0,5.23,2c6.62,0,9.43-4.93,9.43-10.17,0-5.75-3.58-9.52-9.19-9.52A7.44,7.44,0,0,0,5.71,7V4.77H.63V28.64H5.71Zm5-13.5c2.89,0,4.7,2.38,4.7,5.43,0,2.79-1.37,5.84-4.86,5.84s-4.88-3.05-4.88-5.68C5.71,11.41,7.12,8.64,10.75,8.64Z"/><polygon class="cls-2" points="134.48 19.1 139.26 19.1 139.26 14.32 129.71 14.32 129.71 23.87 134.48 23.87 134.48 19.1"/><polygon class="cls-2" points="150 23.87 150 14.32 140.45 14.32 140.45 19.1 145.23 19.1 145.23 23.87 150 23.87"/><polygon class="cls-2" points="145.23 29.84 140.45 29.84 140.45 34.61 150 34.61 150 25.06 145.23 25.06 145.23 29.84"/><path class="cls-1" d="M69.22,35.49a4.75,4.75,0,0,1,3.51,1.58l3.49-3.5a9.85,9.85,0,1,0,0,14L72.68,44a4.72,4.72,0,0,1-3.46,1.53,5,5,0,0,1,0-10.08Z"/><path class="cls-1" d="M9.85,50.43a9.82,9.82,0,0,0,6.91-2.84L13.22,44a4.72,4.72,0,0,1-3.46,1.53,5,5,0,0,1,0-10.08,4.74,4.74,0,0,1,3.51,1.58l3.49-3.5A9.85,9.85,0,1,0,9.85,50.43Z"/><path class="cls-1" d="M44.32,33.26V31H39.25v19.1h5.07v-10c0-2.84,1.24-5.27,4.07-5.27a3.51,3.51,0,0,1,3.76,3.86V50.13h5.08V37.37c0-4.94-4.16-6.64-7.43-6.64A7.35,7.35,0,0,0,44.32,33.26Z"/><polygon class="cls-1" points="129.71 34.61 129.71 29.84 125.9 29.84 125.9 26.26 120.83 26.26 120.83 29.84 119.64 29.84 119.64 34.61 120.83 34.61 120.83 50.13 125.9 50.13 125.9 34.61 129.71 34.61 129.71 34.61 129.71 34.61"/><path class="cls-1" d="M27.17,50.4a9.85,9.85,0,1,0-9.85-9.84A9.85,9.85,0,0,0,27.17,50.4Zm-.09-15.51c3,0,4.84,2.54,4.84,5.67s-1.83,5.66-4.84,5.66-4.83-2.54-4.83-5.66S24,34.89,27.08,34.89Z"/><path class="cls-1" d="M86.69,30.73a9.85,9.85,0,1,0,.07,19.7,9.55,9.55,0,0,0,5.41-1.63,10.52,10.52,0,0,0,3.67-4.35l-4.41-.94a5.15,5.15,0,0,1-4.68,2.66h-.06a4.77,4.77,0,0,1-4.83-4H96.49l.05-.18a9.84,9.84,0,0,0-2.79-8.45A9.72,9.72,0,0,0,86.69,30.73ZM81.86,38.4a4.62,4.62,0,0,1,4.87-3.51h.07a4.71,4.71,0,0,1,4.82,3.51Z"/><path class="cls-1" d="M109.16,50.43c6.62,0,9.43-4.93,9.43-10.17,0-5.75-3.58-9.53-9.19-9.53a7.41,7.41,0,0,0-5.47,2.53V31H98.86V54.9h5.07V48.4A8.75,8.75,0,0,0,109.16,50.43ZM109,34.89c2.89,0,4.7,2.38,4.7,5.44,0,2.79-1.37,5.84-4.85,5.84s-4.89-3.05-4.89-5.69C103.93,37.66,105.34,34.89,109,34.89Z"/><path class="cls-1" d="M143.56,38.19c-2.14-1.23-7.3-2.25-8.23-2.77a2.27,2.27,0,0,1-.85-.81h-4.77c.2,2.61,1.62,4.27,7.69,6,2.36.68,4.44,1.16,4.44,3,0,1-.49,2.61-3.72,2.61-1.41,0-4.28-.27-4.28-3.35v-.11H129v.11c0,3.59,3,7.61,9.08,7.61s8.71-3.43,8.71-6.9A5.78,5.78,0,0,0,143.56,38.19Z"/></g></g></svg>