<?xml version="1.0" encoding="utf-8"?>
<!-- Generator: Adobe Illustrator 27.0.0, SVG Export Plug-In . SVG Version: 6.00 Build 0)  -->
<svg version="1.1" id="Layer_1" xmlns="http://www.w3.org/2000/svg" xmlns:xlink="http://www.w3.org/1999/xlink" x="0px" y="0px"
	 viewBox="0 0 500 250" style="enable-background:new 0 0 500 250;" xml:space="preserve">
<g>
	<path d="M382.1417236,107.8873672h-7.1286621v-10.632019h-11.4327698v10.632019h-5.7163696v7.4020386h5.7163696v16.0826187
		c0,8.9497375,2.8245544,11.7086639,12.0380249,11.7086639c1.9502869,0,3.3625793-0.067276,6.523407-0.3364563v-8.4114075
		c-1.0087891,0.1345825-2.0175476,0.1345825-3.0263367,0.1345825c-3.967804,0-4.1023254-1.614975-4.1023254-4.8449707v-14.3330307
		h7.1286621V107.8873672z"/>
	<path d="M400,111.7479172c0-3.9844742-3.2475586-7.2339706-7.2490234-7.2339706
		c-4.0014343,0-7.2296753,3.2494965-7.2296753,7.2339706c0,4.0038223,3.2475586,7.233963,7.2490234,7.233963
		C396.7524414,118.9818802,400,115.7517395,400,111.7479172z M398.3568726,111.7479172
		c0,3.0947418-2.5130005,5.5898895-5.605896,5.5898895s-5.5865784-2.4951477-5.5865784-5.5898895
		c0-3.0947495,2.4936829-5.5898895,5.5865784-5.5898895S398.3568726,108.6531677,398.3568726,111.7479172z M392.9056091,116.0031815
		c1.8750916,0,3.2862549-1.2572403,3.518219-3.2881546h-2.0297241c-0.1932983,0.9671173-0.5412903,1.4119644-1.4111633,1.4119644
		c-1.0245361,0-1.6817627-0.8316879-1.6817627-2.4177551c0-1.5667191,0.6572266-2.3984299,1.5657959-2.3984299
		c0.8118591,0,1.3531494,0.4835587,1.507782,1.4699936h2.0297241c-0.1546326-2.0502701-1.6624451-3.3461838-3.6341553-3.3461838
		c-2.300354,0-3.8661499,1.7988281-3.8661499,4.3133011C388.9041748,114.1656952,390.5859375,116.0031815,392.9056091,116.0031815z"
		/>
	<path d="M307.8596497,111.9278564c0-1.3012161,0-2.5825729,0-3.9715881c3.6989441,0,7.269928,0,10.9390564,0
		c0.0240173,0.2105484,0.0782166,0.4627304,0.0779724,0.714859c-0.0103149,10.6818695,0.0316162,21.3642883-0.070343,32.0453186
		c-0.0367126,3.8441772-1.1555176,7.4018707-3.9367371,10.2544861c-2.0215759,2.0735168-4.550293,3.1928406-7.3237,3.8050842
		c-3.790802,0.8368378-7.6225281,0.8411407-11.4404297,0.2813721c-3.4776611-0.5098724-6.754303-1.5677338-9.146698-4.3723297
		c-1.5603943-1.8292236-2.3611755-3.9903717-2.6474915-6.4592743c3.8142395,0,7.5477905,0,11.3273926,0
		c0.0791321,0.2185669,0.157959,0.4098206,0.2181702,0.606781c0.5327759,1.7434235,1.7478027,2.673233,3.512146,2.9414368
		c1.7509155,0.2661896,3.4911194,0.3491974,5.2097473-0.2321014c1.7468262-0.5908356,2.6546936-1.958313,2.8673706-3.620697
		c0.2958069-2.3127289,0.2884216-4.6643677,0.403717-6.9996948c0.0046692-0.0942841-0.0628357-0.1921082-0.1511841-0.4428864
		c-0.2241821,0.2742157-0.3821106,0.4598694-0.5319824,0.6517944c-2.4418335,3.1270142-5.6431885,4.544281-9.6048279,4.3750763
		c-3.4269409-0.1463776-6.5431824-1.0721741-9.1802368-3.3456726c-2.3155518-1.9963379-3.6965332-4.5605469-4.5128174-7.4641113
		c-0.8852234-3.1488495-1.0492249-6.3708649-0.6303101-9.5808868c0.7607117-5.8294373,3.3191833-10.5693283,8.9456177-13.0320969
		c3.6318665-1.5897141,7.4141235-1.8800964,11.1484985-0.1898804c1.6127014,0.7299118,2.8459167,1.9377518,3.8347778,3.3974533
		c0.1339417,0.1977386,0.2722473,0.392868,0.4176636,0.5821762
		C307.6077271,111.9020233,307.6795349,111.8938522,307.8596497,111.9278564z M294.4431152,124.2590332
		c0.0259705,1.1945724,0.2106934,2.3608322,0.5177917,3.3850861c0.4421387,1.4748077,1.1054688,2.9855347,2.3589783,3.9368439
		c0.77005,0.5843964,1.6902466,0.930954,2.6447144,1.0608978c2.7136536,0.3694611,5.1907654-0.2774811,6.6401367-2.7891388
		c2.1893311-3.7939377,2.023407-7.7322311-0.1224976-11.4679489c-1.6454468-2.864502-5.5776978-3.5474701-8.3686523-2.0275803
		C295.3847351,117.843277,294.3753967,121.1472015,294.4431152,124.2590332z"/>
	<path d="M333.0392761,142.9894104c-3.8398438,0-7.5522766,0-11.3163147,0c0-16.1448822,0-32.2323532,0-48.3681107
		c3.7900391,0,7.4772034,0,11.3190613,0c0,5.9737396,0,11.8877182,0,17.8905563
		c0.9520874-1.0005341,1.7070007-1.9681244,2.630127-2.7325516c3.2943115-2.7280045,7.1409912-3.358078,11.2636414-2.7406616
		c1.6981201,0.254303,3.3063965,0.7856216,4.7496338,1.7492905c2.4786987,1.6551056,3.7904968,4.0765915,4.3144531,6.9141159
		c0.2976379,1.6117554,0.4096069,3.2770309,0.4196472,4.919342c0.0437012,7.1395645,0.0197144,14.2795334,0.0176697,21.4193649
		c-0.0000916,0.2879181,0.0180054,0.5758209,0,0.9324799c-3.7675171,0-7.5823364,0-11.3918457,0
		c-0.0195923-0.3242798,0.0001831-0.6582794,0-0.9923096c-0.0036621-6.420517,0.0189819-12.8411713-0.0242004-19.2614059
		c-0.0074158-1.1012192-0.1410522-2.2490768-0.4769287-3.2914429c-0.9085083-2.8194885-4.1416321-3.5137024-6.4767761-3.0225525
		c-3.2302551,0.6794128-4.7297668,3.3429947-4.96698,6.3529358c-0.1502686,1.9070206-0.0574036,3.8338318-0.0595398,5.7517776
		c-0.0050354,4.475708-0.0015869,8.9514313-0.0016174,13.4271393
		C333.0393066,142.254303,333.0392761,142.571228,333.0392761,142.9894104z"/>
	<path d="M233.4173279,131.5086365h10.8643494c0,0-0.0125732,0.5115356,0.0318909,0.7874146
		c0.3146973,1.9514465,1.437439,3.2283173,3.2775726,3.8576355c2.2451477,0.7676392,4.4607239,0.7128296,6.5405121-0.5233154
		c1.5517426-0.9222717,2.1108093-2.6806946,1.3467407-4.0352478c-0.4895477-0.8678436-1.3252258-1.3161774-2.2276764-1.5717621
		c-1.7880249-0.5063782-3.5996857-0.9289856-5.3993225-1.3947601c-2.9782104-0.7708817-6.0504456-1.2256775-8.848938-2.6042938
		c-4.0333099-1.9867249-5.1653595-4.9192429-5.0202179-8.8976212c0.1561279-4.2794571,2.6437531-6.9487686,6.3938751-8.5496063
		c4.4355011-1.8933868,9.0915375-2.0353317,13.8050079-1.4835815c2.563324,0.3000565,5.0071106,0.9734573,7.196167,2.3974457
		c2.9457397,1.9161453,4.3551941,4.706459,4.6091309,8.1472931c0.0057373,0.0779572,0,0.2365799,0,0.2365799v0.2364502h-10.5054169
		c0,0,0.0036926-0.353447-0.0324707-0.5547333c-0.2955933-1.6436234-1.2622681-2.6460419-2.8805237-3.0334854
		c-1.9641113-0.4704361-3.9219055-0.4902191-5.7889557,0.3347015c-1.6071472,0.7101212-1.8527679,2.4472122-0.5882111,3.6602173
		c1.058548,1.0153427,2.4078522,1.4484253,3.7873535,1.7539062c3.16539,0.7010651,6.3699799,1.2428665,9.506546,2.0513687
		c3.3691711,0.8684769,6.0719299,2.828064,7.1744995,6.2157593c1.3683167,4.2041016,0.437561,8.0555115-2.7700195,11.2036743
		c-2.0341797,1.9965515-4.6028442,3.0111084-7.331665,3.6484528c-3.7076569,0.8658905-7.4550171,0.9053192-11.1873016,0.278595
		c-3.9177094-0.6577606-7.5113831-2.0202179-9.9296722-5.4476013c-1.2918701-1.8309631-1.9318848-3.8916321-2.0232544-6.1259308
		c-0.0043335-0.1052246,0-0.3166046,0-0.3166046V131.5086365z"/>
	<path d="M269.2900391,107.9020081c3.7740479,0,7.4620056,0,11.2232361,0c0,11.6976776,0,23.3410034,0,35.0645599
		c-3.7185364,0-7.4264832,0-11.2232361,0C269.2900391,131.312973,269.2900391,119.6517029,269.2900391,107.9020081z"/>
	<path d="M280.4803467,103.3184738c-3.7382202,0-7.4191895,0-11.1903076,0c0-2.8982849,0-5.7471161,0-8.6780777
		c3.7245483,0,7.4051208,0,11.1903076,0C280.4803467,97.5162659,280.4803467,100.3835068,280.4803467,103.3184738z"/>
	<path d="M100,142.4654388h12.5087967V124.633255h7.666687c5.7836151,0,7.9356766,2.1533203,8.540947,7.8057709
		c0.3362427,3.1627045,0.2017517,7.1328735,1.412262,10.026413h12.7105408
		c-1.3450317-1.816864-1.3450317-3.7683258-1.5467834-5.9889069c-0.6052704-7.0656128-0.7397614-7.6039276-1.4795227-10.1609955
		c-0.8742676-3.0954056-3.0263062-5.1814194-6.0526428-6.1908112c4.9093781-2.2205887,7.3976746-6.1907883,7.3976746-11.7086639
		c0-9.4207764-7.1959229-13.8620071-16.2076187-13.8620071H100V142.4654388z M112.5087967,115.7507935v-11.5067825h8.6754456
		c5.1783752,0,7.6666946,1.8168564,7.6666946,5.5851746c0,5.0468445-3.4298325,5.921608-7.532196,5.921608H112.5087967z"/>
	<path d="M179.1704865,127.8632431v-1.0093689c0-12.3816071-6.9941711-19.9855194-18.4269104-19.9855194
		c-10.8947601,0-18.5614319,7.6712189-18.5614319,18.6396942c0,11.2376328,8.1374359,18.03405,18.96492,18.03405
		c8.7427063,0,15.1316071-4.1047668,17.3509064-11.6413879h-10.6929932
		c-1.479538,2.6916504-3.3625793,4.0374756-6.5233765,4.0374756c-4.8421326,0-7.8011932-2.9608307-7.9357147-8.0749435H179.1704865z
		 M167.9394684,121.335968h-14.4590607c0.6725159-4.3739243,3.2280731-6.7963943,7.3304138-6.7963943
		C165.1821594,114.5395737,167.6032257,117.365799,167.9394684,121.335968z"/>
	<rect x="181.6075287" y="94.5540543" width="11.4327583" height="8.6132832"/>
	<rect x="181.6075287" y="107.7431488" width="11.4327583" height="34.7222862"/>
	<path d="M207.2079315,107.7731018h-10.9620209v34.72229h11.4327545V123.115509c0-4.4412384,2.3538208-6.9983063,6.523407-6.9983063
		c4.4386139,0,5.2456207,2.9608307,5.2456207,6.66185v19.7163391h12.0967865v-22.8790283
		c0-8.4787064-5.4388733-12.7853546-13.1055756-12.7853546c-4.6403503,0-8.4064178,1.8841553-11.2309723,5.5178986V107.7731018z"/>
</g>
</svg>
