<?xml version="1.0" encoding="utf-8"?>
<!-- Generator: Adobe Illustrator 24.1.0, SVG Export Plug-In . SVG Version: 6.00 Build 0)  -->
<svg version="1.1" id="Capa_1" xmlns="http://www.w3.org/2000/svg" xmlns:xlink="http://www.w3.org/1999/xlink" x="0px" y="0px"
	 viewBox="0 0 426.6 90" style="enable-background:new 0 0 426.6 90;" xml:space="preserve">
<style type="text/css">
	.st0{fill:#28ABF8;}
</style>
<g>
	<g>
		<path class="st0" d="M82.4,0.4l20.4,5.8c0.9,0.3,1.5,1.2,1.4,2.1l0,0.4l-2,18.9c-0.1,1-1,1.8-2,1.8H44.1c-0.8,0-1.4-0.4-1.8-1.1
			c-0.8-1.6-2.5-2.7-4.6-2.7c-2.3,0-4.6,1.2-6.1,3.1c-0.4,0.5-0.9,0.7-1.5,0.7H7.7c-1.2,0-2.1-1-2-2.2l1.8-16.9
			c0.1-0.9,0.8-1.6,1.7-1.8l69.2-8.5C79.8-0.1,81.1,0,82.4,0.4z"/>
		<path class="st0" d="M94.8,81.4l-69.4,8.5c-1.3,0.2-2.7,0.1-3.9-0.3L1.4,83.9c-0.9-0.3-1.5-1.2-1.4-2.1l0.1-0.5l2-18.9
			c0.1-1,1-1.8,2-1.8h56.1c0.8,0,1.4,0.4,1.8,1.1c0.8,1.6,2.5,2.6,4.6,2.6c2.3,0,4.6-1.2,6.1-3.1c0.4-0.5,0.9-0.7,1.5-0.7h22.3
			c1.2,0,2.1,1,2,2.2l-1.9,16.9C96.5,80.6,95.8,81.3,94.8,81.4z"/>
		<path class="st0" d="M35,38.4c-2.1,0-3.8-1-4.6-2.6c-0.3-0.7-1-1.1-1.8-1.1H6.7c-1,0-1.9,0.8-2,1.8L3,53.2c-0.1,1.2,0.8,2.2,2,2.2
			h56.6c0.6,0,1.2-0.3,1.5-0.7c1.5-1.9,3.8-3.1,6.1-3.1c2.1,0,3.8,1.1,4.6,2.7c0.3,0.7,1,1.1,1.8,1.1h21.8c1,0,1.9-0.8,2-1.8
			l1.8-16.7c0.1-1.2-0.8-2.2-2-2.2H42.6c-0.6,0-1.1,0.3-1.5,0.7C39.6,37.2,37.3,38.4,35,38.4z"/>
	</g>
	<g>
		<path class="st0" d="M130.5,65.3c0.7-1.1,1.4-2.3,2.1-3.3c0.7-1.1,1.8-1.4,2.7-0.6c0.5,0.4,6.6,5.6,12.7,5.6c5.5,0,9-3.4,9-7.5
			c0-4.9-4.1-7.9-12-11.3c-8.1-3.5-14.5-7.8-14.5-17.2c0-6.3,4.8-15,17.4-15c8,0,13.9,4.2,14.7,4.8c0.6,0.4,1.3,1.5,0.5,2.8
			c-0.6,1-1.4,2.1-2,3.1c-0.6,1.1-1.7,1.5-2.8,0.8c-0.6-0.3-6.1-4.1-10.7-4.1c-6.7,0-9,4.3-9,7.3c0,4.6,3.5,7.5,10.1,10.2
			c9.2,3.8,17.1,8.3,17.1,18.2c0,8.4-7.4,15.3-17.7,15.3c-9.7,0-15.8-5.2-17.1-6.4C130.3,67.2,129.7,66.7,130.5,65.3z"/>
		<path class="st0" d="M184.9,24.3h-13c-0.9,0-1.5-0.7-1.5-1.5v-4.5c0-0.8,0.6-1.5,1.5-1.5h34.2c0.9,0,1.5,0.7,1.5,1.5v4.5
			c0,0.8-0.6,1.5-1.5,1.5h-13v47.6c0,0.8-0.7,1.5-1.5,1.5h-5.2c-0.8,0-1.5-0.7-1.5-1.5V24.3z"/>
		<path class="st0" d="M215.7,18.2c0-0.8,0.6-1.5,1.5-1.5h21.6c9.5,0,17.3,7.7,17.3,17.4c0,7.5-4.8,13.6-11.8,16.5l10.9,20.6
			c0.6,1.1,0,2.4-1.4,2.4h-6.2c-0.6,0-1.1-0.4-1.3-0.7l-10.6-21.5h-12v20.7c0,0.8-0.7,1.5-1.5,1.5h-5.2c-0.9,0-1.5-0.7-1.5-1.5V18.2
			z M238.2,44.3c5.2,0,9.7-4.5,9.7-10.1c0-5.3-4.5-9.7-9.7-9.7H224v19.7H238.2z"/>
		<path class="st0" d="M262.7,71.4l24.4-54.6c0.2-0.5,1-0.9,1.3-0.9h0.8c0.4,0,1.1,0.4,1.3,0.9l24.2,54.6c0.5,1.1-0.2,2.1-1.4,2.1
			h-5c-0.9,0-1.5-0.5-1.8-1.2l-4.9-11.1h-26c-1.6,3.7-3.3,7.4-4.9,11.1c-0.2,0.6-0.9,1.2-1.8,1.2h-5
			C262.8,73.5,262.2,72.4,262.7,71.4z M298.7,54.2l-9.8-22.2h-0.4l-9.7,22.2H298.7z"/>
		<path class="st0" d="M323.7,24.3h-13c-0.9,0-1.5-0.7-1.5-1.5v-4.5c0-0.8,0.6-1.5,1.5-1.5h34.2c0.9,0,1.5,0.7,1.5,1.5v4.5
			c0,0.8-0.6,1.5-1.5,1.5h-13v47.6c0,0.8-0.7,1.5-1.5,1.5h-5.2c-0.8,0-1.5-0.7-1.5-1.5V24.3z"/>
		<path class="st0" d="M353.9,18.2c0-0.8,0.7-1.5,1.5-1.5h5.2c0.8,0,1.5,0.7,1.5,1.5v53.7c0,0.8-0.7,1.5-1.5,1.5h-5.2
			c-0.8,0-1.5-0.7-1.5-1.5V18.2z"/>
		<path class="st0" d="M398,15.9c15.9,0,28.6,13.1,28.6,29.3c0,16.2-12.7,29.1-28.6,29.1c-15.9,0-28.5-12.9-28.5-29.1
			C369.5,28.9,382.1,15.9,398,15.9z M398,66.2c11.4,0,20.7-9.4,20.7-21c0-11.5-9.3-21.2-20.7-21.2c-11.3,0-20.6,9.7-20.6,21.2
			C377.4,56.8,386.7,66.2,398,66.2z"/>
	</g>
</g>
</svg>
