<?xml version="1.0" encoding="UTF-8"?>
<svg id="Layer_2" data-name="Layer 2" xmlns="http://www.w3.org/2000/svg" viewBox="0 0 271.93 88">
  <defs>
    <style>
      .cls-1 {
        fill: #b2b2b2;
      }
    </style>
  </defs>
  <g id="Layer_2-2" data-name="Layer 2">
    <g>
      <path class="cls-1" d="m9.44,88L0,0h17.23l4.92,55.53L27.08,0h16.41l4.72,55.53L52.92,0h17.44l-9.64,88h-21.13l-4.41-42.41-4.21,42.41H9.44Z"/>
      <path class="cls-1" d="m75.36,0h27.08c4.31,0,7.62.99,9.95,2.97,2.39,1.91,4,4.64,4.82,8.2.82,3.48,1.23,7.96,1.23,13.42,0,4.99-.65,8.88-1.95,11.68-1.3,2.8-3.56,4.75-6.77,5.84,2.67.55,4.58,1.88,5.74,4,1.23,2.12,1.85,4.99,1.85,8.61l-.2,33.29h-17.23v-34.42c0-2.46-.48-4.03-1.44-4.71-.96-.68-2.7-1.02-5.23-1.02v40.16h-17.85V0Zm22.15,32.58c2.46,0,3.69-2.66,3.69-7.99,0-2.32-.1-4.06-.31-5.22-.2-1.16-.58-1.95-1.13-2.36-.55-.48-1.33-.72-2.36-.72h-4.1v16.29h4.2Z"/>
      <path class="cls-1" d="m123.41,88V0h17.02v88h-17.02Z"/>
      <path class="cls-1" d="m155.06,88V16.9h-10.46V0h38.56v16.9h-10.46v71.1h-17.64Z"/>
      <path class="cls-1" d="m188.13,88V0h35.28v17.01h-17.33v17.11h16.61v16.6h-16.61v20.18h18.46v17.11h-36.41Z"/>
      <path class="cls-1" d="m228.86,0h27.07c4.31,0,7.62.99,9.95,2.97,2.39,1.91,4,4.64,4.82,8.2.82,3.48,1.23,7.96,1.23,13.42,0,4.99-.65,8.88-1.95,11.68s-3.55,4.75-6.77,5.84c2.67.55,4.58,1.88,5.74,4,1.23,2.12,1.85,4.99,1.85,8.61l-.21,33.29h-17.23v-34.42c0-2.46-.48-4.03-1.44-4.71-.96-.68-2.7-1.02-5.23-1.02v40.16h-17.85V0Zm22.15,32.58c2.46,0,3.69-2.66,3.69-7.99,0-2.32-.1-4.06-.31-5.22-.2-1.16-.58-1.95-1.13-2.36-.55-.48-1.33-.72-2.36-.72h-4.1v16.29h4.21Z"/>
    </g>
  </g>
</svg>