<svg xmlns="http://www.w3.org/2000/svg" xmlns:xlink="http://www.w3.org/1999/xlink" width="30px" height="20px" viewBox="0 0 30 20" version="1.1">
                          <g id="surface1">
                           <rect x="0" y="0" width="30" height="20" style="fill:rgb(93.333333%,10.980392%,14.509804%);fill-opacity:1;stroke:none;"/>
                           <path style=" stroke:none;fill-rule:nonzero;fill:rgb(100%,100%,100%);fill-opacity:1;" d="M 16.429688 4.171875 C 16.15625 4.261719 15.9375 4.472656 15.839844 4.746094 C 15.742188 5.019531 15.777344 5.324219 15.933594 5.566406 C 16.175781 5.941406 16.242188 6.402344 16.109375 6.828125 C 15.980469 7.253906 15.667969 7.597656 15.257812 7.773438 C 14.851562 7.945312 14.5625 8.3125 14.488281 8.746094 C 14.417969 9.179688 14.570312 9.621094 14.898438 9.917969 C 13.890625 9.199219 13.636719 7.8125 14.328125 6.785156 C 14.316406 6.773438 14.304688 6.765625 14.292969 6.75 C 13.585938 7.792969 13.832031 9.207031 14.851562 9.945312 C 13.429688 9.375 12.660156 7.832031 13.066406 6.351562 C 13.46875 4.875 14.917969 3.9375 16.429688 4.171875 "/>
                            <path style=" stroke:none;fill-rule:nonzero;fill:rgb(93.333333%,10.980392%,14.509804%);fill-opacity:1;" d="M 15.066406 6.035156 L 14.148438 6.4375 L 15.125 6.652344 L 14.460938 5.902344 L 14.558594 6.902344 "/>
                            <path style=" stroke:none;fill-rule:nonzero;fill:rgb(100%,100%,100%);fill-opacity:1;" d="M 20.984375 9.5625 C 20.8125 9.324219 20.546875 9.183594 20.253906 9.175781 C 19.964844 9.164062 19.6875 9.292969 19.503906 9.519531 C 19.226562 9.863281 18.804688 10.070312 18.359375 10.078125 C 17.914062 10.085938 17.488281 9.894531 17.199219 9.558594 C 16.910156 9.222656 16.46875 9.0625 16.035156 9.125 C 15.597656 9.191406 15.226562 9.472656 15.046875 9.875 C 15.417969 8.699219 16.660156 8.027344 17.847656 8.367188 C 17.855469 8.351562 17.863281 8.335938 17.871094 8.324219 C 16.664062 7.972656 15.394531 8.644531 15.007812 9.839844 C 15.109375 8.3125 16.339844 7.105469 17.871094 7.035156 C 19.398438 6.960938 20.738281 8.050781 20.984375 9.5625 "/>
                            <path style=" stroke:none;fill-rule:nonzero;fill:rgb(93.333333%,10.980392%,14.509804%);fill-opacity:1;" d="M 18.789062 8.839844 L 18.125 8.089844 L 18.222656 9.085938 L 18.730469 8.222656 L 17.8125 8.621094 "/>
                            <path style=" stroke:none;fill-rule:nonzero;fill:rgb(100%,100%,100%);fill-opacity:1;" d="M 10.417969 13.871094 C 10.691406 13.964844 10.996094 13.921875 11.234375 13.757812 C 11.472656 13.59375 11.621094 13.328125 11.636719 13.039062 C 11.660156 12.59375 11.878906 12.179688 12.234375 11.914062 C 12.59375 11.644531 13.046875 11.550781 13.480469 11.648438 C 13.910156 11.75 14.363281 11.625 14.675781 11.316406 C 14.992188 11.007812 15.125 10.558594 15.035156 10.128906 C 15.425781 11.300781 14.816406 12.570312 13.652344 12.996094 C 13.65625 13.011719 13.660156 13.027344 13.664062 13.042969 C 14.847656 12.617188 15.476562 11.328125 15.089844 10.132812 C 15.902344 11.429688 15.617188 13.128906 14.421875 14.085938 C 13.226562 15.042969 11.503906 14.953125 10.417969 13.871094 "/>
                            <path style=" stroke:none;fill-rule:nonzero;fill:rgb(93.333333%,10.980392%,14.509804%);fill-opacity:1;" d="M 12.617188 13.167969 L 13.597656 13.382812 L 12.929688 12.632812 L 13.027344 13.632812 L 13.535156 12.765625 "/>
                            <path style=" stroke:none;fill-rule:nonzero;fill:rgb(100%,100%,100%);fill-opacity:1;" d="M 17.265625 15.554688 C 17.4375 15.320312 17.492188 15.019531 17.410156 14.742188 C 17.328125 14.464844 17.121094 14.238281 16.851562 14.136719 C 16.433594 13.976562 16.109375 13.640625 15.964844 13.21875 C 15.820312 12.796875 15.871094 12.335938 16.101562 11.953125 C 16.328125 11.574219 16.347656 11.109375 16.148438 10.714844 C 15.953125 10.320312 15.570312 10.054688 15.132812 10.007812 C 16.367188 9.996094 17.386719 10.96875 17.433594 12.207031 C 17.449219 12.207031 17.464844 12.207031 17.484375 12.210938 C 17.441406 10.953125 16.410156 9.957031 15.152344 9.957031 C 16.636719 9.582031 18.167969 10.378906 18.707031 11.8125 C 19.25 13.246094 18.628906 14.855469 17.265625 15.554688 "/>
                            <path style=" stroke:none;fill-rule:nonzero;fill:rgb(93.333333%,10.980392%,14.509804%);fill-opacity:1;" d="M 17.277344 13.246094 L 17.785156 12.382812 L 16.863281 12.78125 L 17.84375 12.996094 L 17.179688 12.246094 "/>
                            <path style=" stroke:none;fill-rule:nonzero;fill:rgb(100%,100%,100%);fill-opacity:1;" d="M 9.902344 6.839844 C 9.898438 7.128906 10.035156 7.402344 10.261719 7.578125 C 10.492188 7.757812 10.792969 7.816406 11.070312 7.742188 C 11.503906 7.625 11.960938 7.707031 12.324219 7.960938 C 12.691406 8.21875 12.921875 8.621094 12.960938 9.066406 C 13 9.503906 13.257812 9.894531 13.648438 10.097656 C 14.039062 10.300781 14.507812 10.292969 14.890625 10.070312 C 13.898438 10.808594 12.496094 10.617188 11.734375 9.644531 C 11.722656 9.652344 11.707031 9.664062 11.691406 9.667969 C 12.464844 10.664062 13.882812 10.863281 14.902344 10.125 C 13.921875 11.300781 12.214844 11.554688 10.933594 10.714844 C 9.65625 9.871094 9.210938 8.203125 9.902344 6.839844 "/>
                            <path style=" stroke:none;fill-rule:nonzero;fill:rgb(93.333333%,10.980392%,14.509804%);fill-opacity:1;" d="M 11.25 8.710938 L 11.347656 9.710938 L 11.855469 8.847656 L 10.9375 9.246094 L 11.917969 9.460938 "/>
                                    </g>
                                   </svg>