<svg width="30px" height="20px" viewBox="0 0 30 20" class="">
        				<polygon fill="#FFFFFF" points="0 20 30 20 30 0 0 0"/>
        				<path d="M29.8584,0.000264 L29.8584,19.953384 L29.92968,19.953384 L29.8584,19.953384 L29.8584,0.000264 Z M0,19.953384 L0.07128,19.953384 L0.07128,0.000264 L0,0.000264 L0,19.953384 Z M0.07128,19.953384 L29.8584,19.953384 L0.07128,19.953384 Z" fill="#EFEFEF"/>
        				<path d="M0,1.70984 L29.8584,1.70984 L29.8584,0 L0,0 L0,1.70984 Z M0,4.63144 L29.8584,4.63144 L29.8584,3.20584 L0,3.20584 L0,4.63144 Z M0,7.69648 L29.8584,7.69648 L29.8584,6.27176 L0,6.27176 L0,7.69648 Z M0,10.76064 L29.8584,10.76064 L29.8584,9.33592 L0,9.33592 L0,10.76064 Z M0,13.8248 L29.8584,13.8248 L29.8584,12.3992 L0,12.3992 L0,13.8248 Z M0,16.88896 L29.8584,16.88896 L29.8584,15.46424 L0,15.46424 L0,16.88896 Z M0,19.95312 L29.8584,19.95312 L29.8584,18.5284 L0,18.5284 L0,19.95312 Z" fill="#B72343"/>
        				<polygon fill="#00467B" points="0 10.76064 11.97152 10.76064 11.97152 0.000880000001 0 0.000880000001"/>
        				<path d="M11.045232,0.926904 L10.832272,0.926904 L10.973952,1.069464 L10.903552,1.282424 L11.116512,1.139864 L11.259072,1.282424 L11.187792,1.069464 L11.330352,0.926904 L11.187792,0.926904 L11.116512,0.712184 L11.045232,0.926904 Z M9.051152,0.926904 L8.836432,0.926904 L8.979872,1.069464 L8.979872,1.282424 L9.121552,1.139864 L9.264112,1.282424 L9.192832,1.069464 L9.406672,0.926904 L9.192832,0.926904 L9.121552,0.712184 L9.051152,0.926904 Z M7.055312,0.926904 L6.841472,0.926904 L6.984032,1.069464 L6.912752,1.282424 L7.126592,1.139864 L7.268272,1.282424 L7.197872,1.069464 L7.339552,0.926904 L7.126592,0.926904 L7.126592,0.712184 L7.055312,0.926904 Z M5.060352,0.926904 L4.845632,0.926904 L4.988192,1.069464 L4.916912,1.282424 L5.131632,1.139864 L5.274192,1.282424 L5.202912,1.069464 L5.415872,0.926904 L5.202912,0.926904 L5.131632,0.712184 L5.060352,0.926904 Z M3.064512,0.926904 L2.850672,0.926904 L2.993232,1.069464 L2.921952,1.282424 L3.135792,1.139864 L3.278352,1.282424 L3.207072,1.069464 L3.349632,0.926904 L3.207072,0.926904 L3.135792,0.712184 L3.064512,0.926904 Z M1.068672,0.926904 L0.854832,0.926904 L0.997392,1.069464 L0.997392,1.282424 L1.140832,1.139864 L1.283392,1.282424 L1.212112,1.069464 L1.425952,0.926904 L1.212112,0.926904 L1.140832,0.712184 L1.068672,0.926904 Z M10.047312,1.995224 L9.834352,1.995224 L9.976912,2.065624 L9.905632,2.279464 L10.118592,2.136904 L10.261152,2.279464 L10.189872,2.065624 L10.404592,1.995224 L10.189872,1.995224 L10.118592,1.781384 L10.047312,1.995224 Z M8.053232,1.995224 L7.839392,1.995224 L7.981952,2.065624 L7.910672,2.279464 L8.053232,2.136904 L8.266192,2.279464 L8.194912,2.065624 L8.337472,1.995224 L8.124512,1.995224 L8.053232,1.781384 L8.053232,1.995224 Z M6.057392,1.995224 L5.843552,1.995224 L5.986112,2.065624 L5.914832,2.279464 L6.128672,2.136904 L6.271232,2.279464 L6.199952,2.065624 L6.412912,1.995224 L6.199952,1.995224 L6.128672,1.781384 L6.057392,1.995224 Z M4.062432,1.995224 L3.848592,1.995224 L3.991152,2.065624 L3.919872,2.279464 L4.133712,2.136904 L4.276272,2.279464 L4.204992,2.065624 L4.347552,1.995224 L4.133712,1.995224 L4.133712,1.781384 L4.062432,1.995224 Z M2.066592,1.995224 L1.852752,1.995224 L2.066592,2.065624 L1.995312,2.279464 L2.137872,2.136904 L2.351712,2.279464 L2.280432,2.065624 L2.423872,1.995224 L2.209152,1.995224 L2.137872,1.781384 L2.066592,1.995224 Z" fill="#FFFFFF"/>
        				<path d="M10.047312,4.13292 L9.834352,4.13292 L9.976912,4.27548 L9.905632,4.48932 L10.118592,4.34676 L10.261152,4.48932 L10.189872,4.27548 L10.404592,4.13292 L10.189872,4.13292 L10.118592,3.99036 L10.047312,4.13292 Z M8.053232,4.13292 L7.839392,4.13292 L7.981952,4.27548 L7.910672,4.48932 L8.053232,4.34676 L8.266192,4.48932 L8.194912,4.27548 L8.337472,4.13292 L8.124512,4.13292 L8.053232,3.99036 L8.053232,4.13292 Z M6.057392,4.13292 L5.843552,4.13292 L5.986112,4.27548 L5.914832,4.48932 L6.128672,4.34676 L6.271232,4.48932 L6.199952,4.27548 L6.412912,4.13292 L6.199952,4.13292 L6.128672,3.99036 L6.057392,4.13292 Z M4.062432,4.13292 L3.848592,4.13292 L3.991152,4.27548 L3.919872,4.48932 L4.133712,4.34676 L4.276272,4.48932 L4.204992,4.27548 L4.347552,4.13292 L4.133712,4.13292 L4.133712,3.99036 L4.062432,4.13292 Z M2.066592,4.13292 L1.852752,4.13292 L2.066592,4.27548 L1.995312,4.48932 L2.137872,4.34676 L2.351712,4.48932 L2.280432,4.27548 L2.423872,4.13292 L2.209152,4.13292 L2.137872,3.99036 L2.066592,4.13292 Z" fill="#FFFFFF"/>
        				<path d="M11.045232,3.135 L10.832272,3.135 L10.973952,3.27756 L10.903552,3.4914 L11.116512,3.34884 L11.259072,3.4914 L11.187792,3.27756 L11.330352,3.135 L11.187792,3.135 L11.116512,2.92204 L11.045232,3.135 Z M9.051152,3.135 L8.836432,3.135 L8.979872,3.27756 L8.979872,3.4914 L9.121552,3.34884 L9.264112,3.4914 L9.192832,3.27756 L9.406672,3.135 L9.192832,3.135 L9.121552,2.92204 L9.051152,3.135 Z M7.055312,3.135 L6.841472,3.135 L6.984032,3.27756 L6.912752,3.4914 L7.126592,3.34884 L7.268272,3.4914 L7.197872,3.27756 L7.339552,3.135 L7.126592,3.135 L7.126592,2.92204 L7.055312,3.135 Z M5.060352,3.135 L4.845632,3.135 L4.988192,3.27756 L4.916912,3.4914 L5.131632,3.34884 L5.274192,3.4914 L5.202912,3.27756 L5.415872,3.135 L5.202912,3.135 L5.131632,2.92204 L5.060352,3.135 Z M3.064512,3.135 L2.850672,3.135 L2.993232,3.27756 L2.921952,3.4914 L3.135792,3.34884 L3.278352,3.4914 L3.207072,3.27756 L3.349632,3.135 L3.207072,3.135 L3.135792,2.92204 L3.064512,3.135 Z M1.068672,3.135 L0.854832,3.135 L0.997392,3.27756 L0.997392,3.4914 L1.140832,3.34884 L1.283392,3.4914 L1.212112,3.27756 L1.425952,3.135 L1.212112,3.135 L1.140832,2.92204 L1.068672,3.135 Z" fill="#FFFFFF"/>
        				<path d="M10.047312,6.41388 L9.834352,6.41388 L9.976912,6.55644 L9.905632,6.7694 L10.118592,6.62772 L10.261152,6.7694 L10.189872,6.55644 L10.404592,6.41388 L10.189872,6.41388 L10.118592,6.19916 L10.047312,6.41388 Z M8.053232,6.41388 L7.839392,6.41388 L7.981952,6.55644 L7.910672,6.7694 L8.053232,6.62772 L8.266192,6.7694 L8.194912,6.55644 L8.337472,6.41388 L8.124512,6.41388 L8.053232,6.19916 L8.053232,6.41388 Z M6.057392,6.41388 L5.843552,6.41388 L5.986112,6.55644 L5.914832,6.7694 L6.128672,6.62772 L6.271232,6.7694 L6.199952,6.55644 L6.412912,6.41388 L6.199952,6.41388 L6.128672,6.19916 L6.057392,6.41388 Z M4.062432,6.41388 L3.848592,6.41388 L3.991152,6.55644 L3.919872,6.7694 L4.133712,6.62772 L4.276272,6.7694 L4.204992,6.55644 L4.347552,6.41388 L4.133712,6.41388 L4.133712,6.19916 L4.062432,6.41388 Z M2.066592,6.41388 L1.852752,6.41388 L2.066592,6.55644 L1.995312,6.7694 L2.137872,6.62772 L2.351712,6.7694 L2.280432,6.55644 L2.423872,6.41388 L2.209152,6.41388 L2.137872,6.19916 L2.066592,6.41388 Z" fill="#FFFFFF"/>
        				<path d="M11.045232,5.41596 L10.832272,5.41596 L10.973952,5.48724 L10.903552,5.70108 L11.116512,5.6298 L11.259072,5.70108 L11.187792,5.48724 L11.330352,5.41596 L11.187792,5.41596 L11.116512,5.20212 L11.045232,5.41596 Z M9.051152,5.41596 L8.836432,5.41596 L8.979872,5.48724 L8.979872,5.70108 L9.121552,5.6298 L9.264112,5.70108 L9.192832,5.48724 L9.406672,5.41596 L9.192832,5.41596 L9.121552,5.20212 L9.051152,5.41596 Z M7.055312,5.41596 L6.841472,5.41596 L6.984032,5.48724 L6.912752,5.70108 L7.126592,5.6298 L7.268272,5.70108 L7.197872,5.48724 L7.339552,5.41596 L7.126592,5.41596 L7.126592,5.20212 L7.055312,5.41596 Z M5.060352,5.41596 L4.845632,5.41596 L4.988192,5.48724 L4.916912,5.70108 L5.131632,5.6298 L5.274192,5.70108 L5.202912,5.48724 L5.415872,5.41596 L5.202912,5.41596 L5.131632,5.20212 L5.060352,5.41596 Z M3.064512,5.41596 L2.850672,5.41596 L2.993232,5.48724 L2.921952,5.70108 L3.135792,5.6298 L3.278352,5.70108 L3.207072,5.48724 L3.349632,5.41596 L3.207072,5.41596 L3.135792,5.20212 L3.064512,5.41596 Z M1.068672,5.41596 L0.854832,5.41596 L0.997392,5.48724 L0.997392,5.70108 L1.140832,5.6298 L1.283392,5.70108 L1.212112,5.48724 L1.425952,5.41596 L1.212112,5.41596 L1.140832,5.20212 L1.068672,5.41596 Z" fill="#FFFFFF"/>
        				<path d="M10.047312,8.693256 L9.834352,8.693256 L9.976912,8.835816 L9.905632,8.979256 L10.118592,8.907976 L10.261152,8.979256 L10.189872,8.835816 L10.404592,8.693256 L10.189872,8.693256 L10.118592,8.480296 L10.047312,8.693256 Z M8.053232,8.693256 L7.839392,8.693256 L7.981952,8.835816 L7.910672,8.979256 L8.053232,8.907976 L8.266192,8.979256 L8.194912,8.835816 L8.337472,8.693256 L8.124512,8.693256 L8.053232,8.480296 L8.053232,8.693256 Z M6.057392,8.693256 L5.843552,8.693256 L5.986112,8.835816 L5.914832,8.979256 L6.128672,8.907976 L6.271232,8.979256 L6.199952,8.835816 L6.412912,8.693256 L6.199952,8.693256 L6.128672,8.480296 L6.057392,8.693256 Z M4.062432,8.693256 L3.848592,8.693256 L3.991152,8.835816 L3.919872,8.979256 L4.133712,8.907976 L4.276272,8.979256 L4.204992,8.835816 L4.347552,8.693256 L4.133712,8.693256 L4.133712,8.480296 L4.062432,8.693256 Z M2.066592,8.693256 L1.852752,8.693256 L2.066592,8.835816 L1.995312,8.979256 L2.137872,8.907976 L2.351712,8.979256 L2.280432,8.835816 L2.423872,8.693256 L2.209152,8.693256 L2.137872,8.480296 L2.066592,8.693256 Z" fill="#FFFFFF"/>
        				<path d="M11.045232,7.624848 L10.832272,7.624848 L10.973952,7.767408 L10.903552,7.981248 L11.116512,7.838688 L11.259072,7.981248 L11.187792,7.767408 L11.330352,7.624848 L11.187792,7.624848 L11.116512,7.483168 L11.045232,7.624848 Z M9.051152,7.624848 L8.836432,7.624848 L8.979872,7.767408 L8.979872,7.981248 L9.121552,7.838688 L9.264112,7.981248 L9.192832,7.767408 L9.406672,7.624848 L9.192832,7.624848 L9.121552,7.483168 L9.051152,7.624848 Z M7.055312,7.624848 L6.841472,7.624848 L6.984032,7.767408 L6.912752,7.981248 L7.126592,7.838688 L7.268272,7.981248 L7.197872,7.767408 L7.339552,7.624848 L7.126592,7.624848 L7.126592,7.483168 L7.055312,7.624848 Z M5.060352,7.624848 L4.845632,7.624848 L4.988192,7.767408 L4.916912,7.981248 L5.131632,7.838688 L5.274192,7.981248 L5.202912,7.767408 L5.415872,7.624848 L5.202912,7.624848 L5.131632,7.483168 L5.060352,7.624848 Z M3.064512,7.624848 L2.850672,7.624848 L2.993232,7.767408 L2.921952,7.981248 L3.135792,7.838688 L3.278352,7.981248 L3.207072,7.767408 L3.349632,7.624848 L3.207072,7.624848 L3.135792,7.483168 L3.064512,7.624848 Z M1.068672,7.624848 L0.854832,7.624848 L0.997392,7.767408 L0.997392,7.981248 L1.140832,7.838688 L1.283392,7.981248 L1.212112,7.767408 L1.425952,7.624848 L1.212112,7.624848 L1.140832,7.483168 L1.068672,7.624848 Z" fill="#FFFFFF"/>
        				<path d="M11.045232,9.762456 L10.832272,9.762456 L10.973952,9.905016 L10.903552,10.118856 L11.116512,9.976296 L11.259072,10.118856 L11.187792,9.905016 L11.330352,9.762456 L11.187792,9.762456 L11.116512,9.548616 L11.045232,9.762456 Z M9.051152,9.762456 L8.836432,9.762456 L8.979872,9.905016 L8.979872,10.118856 L9.121552,9.976296 L9.264112,10.118856 L9.192832,9.905016 L9.406672,9.762456 L9.192832,9.762456 L9.121552,9.548616 L9.051152,9.762456 Z M7.055312,9.762456 L6.841472,9.762456 L6.984032,9.905016 L6.912752,10.118856 L7.126592,9.976296 L7.268272,10.118856 L7.197872,9.905016 L7.339552,9.762456 L7.126592,9.762456 L7.126592,9.548616 L7.055312,9.762456 Z M5.060352,9.762456 L4.845632,9.762456 L4.988192,9.905016 L4.916912,10.118856 L5.131632,9.976296 L5.274192,10.118856 L5.202912,9.905016 L5.415872,9.762456 L5.202912,9.762456 L5.131632,9.548616 L5.060352,9.762456 Z M3.064512,9.762456 L2.850672,9.762456 L2.993232,9.905016 L2.921952,10.118856 L3.135792,9.976296 L3.278352,10.118856 L3.207072,9.905016 L3.349632,9.762456 L3.207072,9.762456 L3.135792,9.548616 L3.064512,9.762456 Z M1.068672,9.762456 L0.854832,9.762456 L0.997392,9.905016 L0.997392,10.118856 L1.140832,9.976296 L1.283392,10.118856 L1.212112,9.905016 L1.425952,9.762456 L1.212112,9.762456 L1.140832,9.548616 L1.068672,9.762456 Z" fill="#FFFFFF"/>
        			</svg>