<svg xmlns="http://www.w3.org/2000/svg" id="Layer_1" data-name="Layer 1" viewBox="0 0 615 244"><defs><style>.cls-1{fill:#fff}</style></defs><path d="m288.7 209.39 7.49 9.15L286 221l-5-6a38.62 38.62 0 0 1-18.62 4.68c-21.22 0-37.86-16.53-37.86-37.54s16.64-37.55 37.86-37.55 38 16.54 38 37.55a37.25 37.25 0 0 1-11.68 27.25Zm-6.76-8.22a27.53 27.53 0 0 0 7.28-19c0-15.6-11.65-27.46-26.83-27.46s-26.73 11.86-26.73 27.46 11.65 27.45 26.73 27.45a26.59 26.59 0 0 0 12-2.7l-9.46-11.54 10.19-2.5ZM320.94 197c0 8.32 5.1 13.52 13.1 13.52a14.85 14.85 0 0 0 13-7v-38h10.4v52.94H347v-5.31a21.63 21.63 0 0 1-15.91 6.35c-12.17 0-20.59-8.53-20.59-20.8v-33.1h10.4ZM367 203.35c0-10 8.11-16.12 21.42-16.12a37.23 37.23 0 0 1 14.46 2.92v-5.62c0-7.49-4.47-11.23-12.9-11.23-4.88 0-9.88 1.35-16.43 4.47l-3.85-7.8c7.91-3.75 14.77-5.41 21.74-5.41 13.73 0 21.63 6.76 21.63 18.93v35h-10.18V214a25.07 25.07 0 0 1-16.43 5.51c-11.55-.04-19.46-6.59-19.46-16.16Zm21.84 8.43a20.33 20.33 0 0 0 14-5v-9.16a27.54 27.54 0 0 0-13.62-3.22c-7.6 0-12.28 3.43-12.28 8.74.06 5.1 4.84 8.64 11.91 8.64ZM439.29 218.75l-21.11-53.15h11.44l15.49 40.46 17.06-40.46h11.23l-25.58 59.28c-4.89 11.34-10.51 15.81-20.28 15.81a20.3 20.3 0 0 1-5.51-.62v-9.15a20.65 20.65 0 0 0 4.68.41c4.78 0 8.21-2.49 10.5-7.8Z" class="cls-1"/><path d="M128 84c12.51 0 30.61-2.58 30.61-17.46a14 14 0 0 0-.31-3.42l-7.45-32.36c-1.72-7.12-3.23-10.35-15.73-16.6C125.39 9.19 104.26 1 98 1c-5.82 0-7.55 7.54-14.45 7.54-6.68 0-11.64-5.6-17.89-5.6-6 0-9.91 4.09-12.93 12.5 0 0-8.41 23.72-9.49 27.16a6.43 6.43 0 0 0-.24 1.94C43 53.76 79.33 84 128 84m32.55-11.42c1.73 8.19 1.73 9.05 1.73 10.13 0 14-15.74 21.77-36.43 21.77C79 104.47 38.08 77.1 38.08 59a18.45 18.45 0 0 1 1.51-7.33C22.77 52.52 1 55.54 1 74.72 1 106.2 75.59 145 134.65 145c45.28 0 56.7-20.48 56.7-36.65 0-12.72-11-27.16-30.83-35.78" style="fill:#e00"/><path d="M160.52 72.57c1.73 8.19 1.73 9.05 1.73 10.13 0 14-15.74 21.77-36.43 21.77C79 104.47 38.08 77.1 38.08 59a18.45 18.45 0 0 1 1.51-7.33l3.66-9.06a6.43 6.43 0 0 0-.25 1.93C43 53.76 79.33 84 128 84c12.51 0 30.61-2.58 30.61-17.46a14 14 0 0 0-.31-3.42Z"/><path d="M580.24 93.3c0 11.89 7.15 17.67 20.19 17.67a52.11 52.11 0 0 0 11.89-1.68V95.51a24.84 24.84 0 0 1-7.68 1.16c-5.37 0-7.36-1.68-7.36-6.73V68.8h15.56V54.6h-15.56v-18l-17 3.68V54.6H569v14.2h11.25Zm-53 .32c0-3.68 3.69-5.47 9.26-5.47a43.12 43.12 0 0 1 10.1 1.26v7.15a21.51 21.51 0 0 1-10.6 2.63c-5.46 0-8.73-2.1-8.73-5.57m5.2 17.56c6 0 10.84-1.26 15.36-4.31v3.37h16.82V74.58c0-13.56-9.14-21-24.39-21-8.52 0-16.94 2-26 6.1l6.1 12.52c6.52-2.74 12-4.42 16.83-4.42 7 0 10.62 2.73 10.62 8.31v2.73a49.53 49.53 0 0 0-12.62-1.58c-14.31 0-22.93 6-22.93 16.73 0 9.78 7.78 17.24 20.19 17.24m-92.44-.94h18.09V81.42h30.29v28.82h18.09V36.62h-18.05v28.29h-30.29V36.62h-18.09Zm-68.89-27.9c0-8 6.31-14.1 14.62-14.1a17.22 17.22 0 0 1 11.78 4.32V92a16.36 16.36 0 0 1-11.78 4.42c-8.2 0-14.62-6.1-14.62-14.09m26.61 27.87h16.83V32.94l-17 3.68v20.93a28.3 28.3 0 0 0-14.2-3.68c-16.19 0-28.92 12.51-28.92 28.5A28.25 28.25 0 0 0 382.8 111a25.12 25.12 0 0 0 14.93-4.83Zm-77.19-42.7c5.36 0 9.88 3.47 11.67 8.83H309c1.68-5.57 5.89-8.83 11.57-8.83m-28.74 14.97c0 16.2 13.25 28.82 30.28 28.82 9.36 0 16.2-2.53 23.25-8.42l-11.26-10c-2.63 2.74-6.52 4.21-11.14 4.21a14.39 14.39 0 0 1-13.68-8.83h39.65v-4.2c0-17.67-11.88-30.39-28.08-30.39a28.57 28.57 0 0 0-29 28.81m-29.36-30.39c6 0 9.36 3.78 9.36 8.31s-3.37 8.31-9.36 8.31h-17.88V52.08Zm-36 58.16h18.09V83.42h13.77l13.89 26.82h20.19l-16.2-29.45a22.27 22.27 0 0 0 13.88-20.72c0-13.25-10.41-23.45-26-23.45h-37.59Z" class="cls-1"/></svg>