<svg xmlns="http://www.w3.org/2000/svg" viewBox="0 0 364.51 137.57"><defs><clipPath id="d" clipPathUnits="userSpaceOnUse"><path d="M0 792.03h612V.03H0v792z"/></clipPath><clipPath id="c" clipPathUnits="userSpaceOnUse"><path d="M264.42 176.58H250.5v571.86h13.92V176.58z" clip-rule="evenodd"/></clipPath><clipPath id="b" clipPathUnits="userSpaceOnUse"><path d="M0 792.03h612V.03H0v792z"/></clipPath><clipPath id="a" clipPathUnits="userSpaceOnUse"><path d="M264.42 52.26H250.5V174.9h13.92V52.26z" clip-rule="evenodd"/></clipPath></defs><path d="m0 0-.3-.84-2.58.42-22.74 10.08-.12 26.52-.12 26.52 2.52 6.48 2.88.54 2.58.06 4.74-.66L-.12 65.1.3 53.94.18 27 0 0" style="fill:#fff;fill-opacity:1;fill-rule:evenodd;stroke:none" transform="matrix(0 1.25 1.25 0 5.854 59.134)"/><path d="M0 0v.72C-.976 6.102-8.16 5.952-8.76.48V-.54l.06-.18c.142-1.87 1.609-3.529 3.42-3.9l.42-.06h.48c1.974-.125 3.632 1.483 4.2 3.24l.12.48.06.42V0zm-8.1 0v.42l.12.36c.655 4.133 6.488 4.205 7.14 0l.06-.36.06-.42c-.164-4.698-6.172-5.431-7.26-.84l-.12.48V0zm3.96.84v.24l-.12.24-.06.24-.06.12-.12.06-.18.18-.48.24h-.24l-.12.06-.18-.06h-.18L-6 2.1c-.577-.156-.74-.804-.84-1.32V-1.8h4.98v.72h-2.28v1.02l2.28 1.32v.84L-4.14.84zM-6.12.3l.06.42V.9c.179.481.168.57.72.54h.12l.06-.06.06-.12.12-.12v-.3l.06-.24v-1.68h-1.2V.3" style="fill:#6b6c6b;fill-opacity:1;fill-rule:evenodd;stroke:none" transform="matrix(0 1.25 1.25 0 356.104 40.384)"/><path d="m315.26 358.798-.15-1.275-.225-1.05c-1.159-2.21-1.426-2.78-3.45-4.275l-.9-.675-.975-.6-1.05-.525-1.275-.375-1.125-.225-1.5-.225h-63.75l-12.975 28.05-.15.3 2.325-17.25 4.95-36.375h84.975l-4.725 34.5" style="fill:#c21229;fill-opacity:1;fill-rule:evenodd;stroke:none" transform="translate(-222.481 -322.089)"/><path d="m0 0 3.06-1.14v-9.06l20.58-2.76V55.2l-33.96 4.56.78-.24c3.091-1.353 5.147-4.628 5.16-7.98v-5.46L3.06 45V6.84L0 6.66V0" style="fill:#c21229;fill-opacity:1;fill-rule:evenodd;stroke:none" transform="matrix(0 1.25 1.25 0 17.629 55.16)"/><path d="M0 0v-7.8l2.7-.42v7.86l6.72-.9v-7.8l2.46-.36v7.86l6.66-.9 3 2.4L-8.04 3.9-6.66.96 0 0" style="fill:#c21229;fill-opacity:1;fill-rule:evenodd;stroke:none" transform="matrix(0 1.25 1.25 0 61.804 35.81)"/><path d="m0 0 4.68-.6v2.22C4.408 4.029.338 4.571 0 1.86V0" style="fill:#c21229;fill-opacity:1;fill-rule:evenodd;stroke:none" transform="matrix(0 1.25 1.25 0 77.179 35.66)"/><path d="M0 0v4.02l-8.16-.66L0 0" style="fill:#c21229;fill-opacity:1;fill-rule:evenodd;stroke:none" transform="matrix(0 1.25 1.25 0 20.254 47.734)"/><path d="m0 0-12.18-1.68-15.78-2.4 5.28 7.02L-12 1.56 0 0" style="fill:#c21229;fill-opacity:1;fill-rule:evenodd;stroke:none" transform="matrix(0 1.25 1.25 0 37.354 55.834)"/><path d="M0 0v8.52L-7.38 9.6V15c-.432 4.831-3.994 7.919-8.7 8.4l-.54.06h-.54c-4.618.126-7.11-3.19-7.32-7.56l-.06-1.02V3.72L0 0zm-17.82 11.22v.84c-.526 4.797 4.855 3.205 4.26-.6v-.9l-4.26.66" style="fill:#6b6c6b;fill-opacity:1;fill-rule:evenodd;stroke:none" transform="matrix(0 1.25 1.25 0 101.029 134.96)"/><path d="m0 0 .06-.72v-.72l.06-.66c.917-6.788 5.805-12.207 12.66-13.32l.78-.12h.72c6.158-.449 10.405 3.689 11.16 9.6l.06.66.06.72v1.38c-.3 6.605-4.626 12.868-11.28 14.28l-.72.24-.78.06C6.137 12.495.964 8.567.12 1.92l-.06-.66v-.6L0 0zm8.1-1.32.06.54v.3l.06.24c.756 2.253 2.428 3.099 4.74 2.82l.54-.12.48-.12c1.644-.69 3.107-1.898 3.54-3.66l.12-.42.12-.48v-.48c-.174-5.859-8.495-4.616-9.54.42l-.12.96" style="fill:#6b6c6b;fill-opacity:1;fill-rule:evenodd;stroke:none" transform="matrix(0 1.25 1.25 0 147.229 103.834)"/><path d="m0 0 24.54 4.74v7.44l-9.6 3.84-.48.3-.48.12-.9.24-.96.18-.9.3v.24l13.32.72v7.68L0 37.98v-9.06l10.38-4.02 1.02-.42 1.08-.3 2.16-.54v-.18L0 22.32V15.6l10.14-4.02 1.14-.48 1.08-.36 2.28-.6v-.18L0 9.06V0" style="fill:#6b6c6b;fill-opacity:1;fill-rule:evenodd;stroke:none" transform="matrix(0 1.25 1.25 0 161.404 104.284)"/><path d="M0 0v16.62l-6.72 1.02V9.9l-2.4.42v6.78l-6.36.96v-6.78l-2.34.3v7.5l-6.72 1.08V3.72L0 0" style="fill:#6b6c6b;fill-opacity:1;fill-rule:evenodd;stroke:none" transform="matrix(0 1.25 1.25 0 205.879 134.96)"/><path d="M0 0v8.76l-7.92 1.2v.18L0 12.78V23.1l-7.98-4.14-.24-.06-.18-.18-.24-.18-.18-.18-.3-.36-.3-.3h-.18l-.24.72-.24.54c-1.021 3.656-5.121 4.94-8.52 4.62l-.54-.06-.42-.12c-3.747-1.03-4.892-4.831-4.98-8.34V3.78L0 0zm-17.82 11.52v1.2c-.012.875.392 2.112 1.5 1.98h.6c1.451-.288 2.024-1.152 2.04-2.64v-1.2l-4.14.66" style="fill:#6b6c6b;fill-opacity:1;fill-rule:evenodd;stroke:none" transform="matrix(0 1.25 1.25 0 229.954 134.96)"/><path d="M0 0v6.66l3.06.36v9.3L-21.6 11.4V1.68L3.06-10.44v9.3L0 0zm-5.88 2.46-7.5 2.76v.3h1.62l.72.06.78.06 4.38.36V2.46" style="fill:#6b6c6b;fill-opacity:1;fill-rule:evenodd;stroke:none" transform="matrix(0 1.25 1.25 0 122.029 55.684)"/><path d="M0 0v8.64l-10.5 2.64-3 .72v.3l.78-.06h.78l1.5.06L0 13.92v5.16l-11.1 5.28-.54.24-.6.24-1.26.48v.12L0 24.6v8.64L-24.66 33v-9.12l9.72-4.26 1.56-.6 1.68-.48v-.18l-12.96-1.44V7.74L0 0" style="fill:#6b6c6b;fill-opacity:1;fill-rule:evenodd;stroke:none" transform="matrix(0 1.25 1.25 0 140.929 59.51)"/><path d="M0 0v16.44l-6.72 1.02V9.84l-2.46.3v6.78l-6.42.96V11.1l-2.34.36v7.44l-6.72 1.02V3.66L0 0" style="fill:#6b6c6b;fill-opacity:1;fill-rule:evenodd;stroke:none" transform="matrix(0 1.25 1.25 0 185.854 59.51)"/><path d="M0 0v8.64L-7.92 9.9v.18L0 12.78v10.2l-7.98-4.08-.24-.12-.3-.24-.18-.12-.18-.18-.3-.36-.3-.3-.18.06-.24.6c-1.354 4.261-4.689 5.448-8.82 5.16l-.48-.06-.42-.12c-3.61-.641-5.105-5.055-5.04-8.28V3.78L0 0zm-17.94 11.4v1.26l.06.54.06.18.06.3.06.18.12.18.3.3.36.24h.24l.24.06h.3l.3-.06c1.386.056 2.15-1.393 2.1-2.64v-1.2l-4.2.66" style="fill:#6b6c6b;fill-opacity:1;fill-rule:evenodd;stroke:none" transform="matrix(0 1.25 1.25 0 209.629 59.51)"/><path d="M0 0v8.7l-24.66 3.66V3.72L0 0" style="fill:#6b6c6b;fill-opacity:1;fill-rule:evenodd;stroke:none" transform="matrix(0 1.25 1.25 0 240.529 59.51)"/><path d="m0 0-.48-1.44c-2.591-8.504 3.308-17.428 11.82-19.08l.6-.12.66-.12c10.038-.616 13.649 7.631 11.16 16.5l-.12.3-.12.3-9.24 1.74.48-.6.24-.36c2.524-3.225 2.176-8.82-2.76-8.76h-.48l-.54.12C6.965-10.279 5.577-5.528 8.4-2.16l.54.48.48.48L0 0" style="fill:#6b6c6b;fill-opacity:1;fill-rule:evenodd;stroke:none" transform="matrix(0 1.25 1.25 0 280.879 29.21)"/><path d="M0 0v6.66l3.06.36v9.3L-21.6 11.4V1.62L3.06-10.44v9.3L0 0zm-5.88 2.46-7.5 2.76v.36h3.12l4.38.42V2.46" style="fill:#6b6c6b;fill-opacity:1;fill-rule:evenodd;stroke:none" transform="matrix(0 1.25 1.25 0 290.254 55.684)"/><path d="M0 0v8.46l-7.98 1.2c-1.262.27-2.435.258-3.72.24h-1.2v.24L0 15.96v8.4l-24.66 3.78v-8.46l7.38-1.08c1.539-.42 3.166-.263 4.74-.3l1.56.06v-.24l-13.68-5.88V3.78L0 0" style="fill:#6b6c6b;fill-opacity:1;fill-rule:evenodd;stroke:none" transform="matrix(0 1.25 1.25 0 312.904 59.51)"/><path d="M0 0v16.8l-6.72 1.02v-7.8l-2.52.42v6.78l-6.48 1.02V11.4l-2.34.36v7.5l-6.84 1.02V3.78L0 0" style="fill:#6b6c6b;fill-opacity:1;fill-rule:evenodd;stroke:none" transform="matrix(0 1.25 1.25 0 105.454 97.234)"/><path d="M0 0v16.62l-7.92 1.2v-7.5l-16.98 2.52v-9L0 0" style="fill:#6b6c6b;fill-opacity:1;fill-rule:evenodd;stroke:none" transform="matrix(0 1.25 1.25 0 129.604 97.234)"/><path d="M0 0v16.74l-6.72 1.02v-7.74l-2.52.36v6.84l-6.48 1.02v-6.9l-2.34.36v7.44l-6.84 1.14V3.78L0 0" style="fill:#6b6c6b;fill-opacity:1;fill-rule:evenodd;stroke:none" transform="matrix(0 1.25 1.25 0 153.004 97.234)"/><path d="m0 0-.18-.66-.24-.72c-2.409-8.721 3.121-17.02 11.76-18.9l1.32-.24c9.964-.572 13.688 7.583 11.1 16.32l-.12.36-.12.3-9.24 1.62.72-.9c2.707-3.235 2.06-8.806-2.76-8.7l-.96.12c-4.163 1.217-5.797 5.965-2.76 9.24l.42.54.48.42L0 0" style="fill:#6b6c6b;fill-opacity:1;fill-rule:evenodd;stroke:none" transform="matrix(0 1.25 1.25 0 202.804 66.86)"/><path d="m0 0-.24 4.86L16.8 2.34v8.76L-.24 13.62 0 18.36l-8.1 1.2V1.26L0 0" style="fill:#6b6c6b;fill-opacity:1;fill-rule:evenodd;stroke:none" transform="matrix(0 1.25 1.25 0 204.004 76.234)"/><path d="M0 0v8.58l-7.98 1.2v.12L0 12.6v10.08l-8.1-3.96c-.739-.445-.86-.71-1.5-1.32h-.18l-.18.72-.3.54c-1.412 3.852-4.998 4.726-8.7 4.5l-.42-.06-.48-.12c-3.763-.785-5.047-4.727-5.04-8.16V3.66L0 0zm-18.12 11.28v.66l.06.54c-.115.874.412 2.063 1.44 1.98h.66c1.491-.312 1.934-1.206 2.04-2.64v-1.2l-4.2.66" style="fill:#6b6c6b;fill-opacity:1;fill-rule:evenodd;stroke:none" transform="matrix(0 1.25 1.25 0 226.654 97.234)"/><path d="M0 0v8.64l-24.9 3.72v-8.7L0 0" style="fill:#6b6c6b;fill-opacity:1;fill-rule:evenodd;stroke:none" transform="matrix(0 1.25 1.25 0 257.179 97.234)"/><path d="m0 0-.18-.66-.24-.72c-2.401-8.758 3.106-16.979 11.76-18.9l1.32-.24c9.867-.622 13.714 7.539 11.1 16.26l-.12.42-.12.3-9.24 1.62.72-.9c2.711-3.235 2.052-8.814-2.76-8.7l-.96.12c-4.124 1.196-5.817 5.953-2.76 9.24l.42.48.48.48L0 0" style="fill:#6b6c6b;fill-opacity:1;fill-rule:evenodd;stroke:none" transform="matrix(0 1.25 1.25 0 297.529 66.86)"/></svg>