<svg xmlns="http://www.w3.org/2000/svg" xmlns:xlink="http://www.w3.org/1999/xlink" viewBox="0 0 28 28"><defs><path id="a" d="M4.49 4.927A1.283 1.283 0 0 1 6.176 6.86a7.127 7.127 0 0 0-2.438 4.92 7.127 7.127 0 0 0 1.756 5.202 7.127 7.127 0 0 0 4.92 2.438c3.945.269 7.374-2.729 7.64-6.676a7.136 7.136 0 0 0-2.374-5.829 1.282 1.282 0 1 1 1.712-1.91 9.684 9.684 0 0 1 3.221 7.912C20.268 18.052 15.978 22 10.904 22a9.677 9.677 0 0 1-7.34-3.331 9.676 9.676 0 0 1-2.384-7.063 9.677 9.677 0 0 1 3.31-6.679ZM10.704 0c.673 0 1.22.546 1.219 1.219v8.147a1.219 1.219 0 0 1-2.437 0V1.219C9.487.546 10.032 0 10.705 0Z"/></defs><g fill="none" fill-rule="evenodd"><circle cx="14" cy="14" r="14" fill="#8ED2E3"/><g transform="translate(3 3)"><mask id="b" fill="#fff"><use xlink:href="#a"/></mask><use xlink:href="#a" fill="#06ABC8"/><g fill="#00789E" mask="url(#b)"><path d="M0 0h22v22H0z"/></g></g></g></svg>