<?xml version="1.0" encoding="utf-8"?>
<!-- Generator: Adobe Illustrator 26.0.1, SVG Export Plug-In . SVG Version: 6.00 Build 0)  -->
<svg version="1.1" id="Layer_1" xmlns="http://www.w3.org/2000/svg" xmlns:xlink="http://www.w3.org/1999/xlink" x="0px" y="0px"
	 viewBox="0 0 139.85 139.38" style="enable-background:new 0 0 139.85 139.38;" xml:space="preserve">
<style type="text/css">
	.st0{clip-path:url(#SVGID_00000088131912019908969780000015135851841070142622_);}
	.st1{clip-path:url(#SVGID_00000072265672181385512650000010313606531818833803_);fill:#005A85;}
	.st2{clip-path:url(#SVGID_00000072265672181385512650000010313606531818833803_);fill:#FFFFFF;}
	.st3{fill:#FFFFFF;}
</style>
<g>
	<g id="person_00000147925797173065791180000015020539161926159545_">
		<g>
			<defs>
				<rect id="SVGID_1_" x="1.12" y="1.58" width="136.84" height="136.84"/>
			</defs>
			<clipPath id="SVGID_00000098196202744788733140000003713753763175193236_">
				<use xlink:href="#SVGID_1_"  style="overflow:visible;"/>
			</clipPath>
			<g style="clip-path:url(#SVGID_00000098196202744788733140000003713753763175193236_);">
				<defs>
					<rect id="SVGID_00000034077920369235693600000015763085185301797515_" x="1.12" y="1.58" width="136.84" height="136.84"/>
				</defs>
				<clipPath id="SVGID_00000045592743527326905650000014624019503496448136_">
					<use xlink:href="#SVGID_00000034077920369235693600000015763085185301797515_"  style="overflow:visible;"/>
				</clipPath>
				<path style="clip-path:url(#SVGID_00000045592743527326905650000014624019503496448136_);fill:#005A85;" d="M137.96,70
					c0,37.79-30.63,68.42-68.42,68.42c-37.79,0-68.42-30.63-68.42-68.42c0-37.79,30.63-68.42,68.42-68.42
					C107.33,1.57,137.96,32.21,137.96,70"/>
				<path style="clip-path:url(#SVGID_00000045592743527326905650000014624019503496448136_);fill:#FFFFFF;" d="M76.95,33.24
					c0,4.15-3.37,7.52-7.52,7.52c-4.15,0-7.52-3.37-7.52-7.52s3.37-7.52,7.52-7.52C73.59,25.72,76.95,29.08,76.95,33.24"/>
			</g>
		</g>
	</g>
	<g>
		<path class="st3" d="M98.42,40.83l-18.93,1.96l-10.87,0.38l-8.42-0.34h-0.7l-18.92-2c-1.72,0-3.12,1.74-3.24,3.47
			c0.11,1.7,1.51,3.13,3.24,3.13l18.7,2l0,0c0.48,0,0.86,0.39,0.86,0.86v27.46l0-1.75v-0.25l-8,34.32c0,2.32,1.9,4.2,4.22,4.2h0.13
			c2.32,0,3.4-1.85,4.07-4.2l8.01-32.27c0-0.48,0.39-0.86,0.86-0.86c0.48,0,0.86,0.39,0.86,0.86l7.99,32.27
			c0.72,2.34,1.87,4.17,4.15,4.19c2.3-0.03,4.42-1.89,4.42-4.19l-8-34.32V50.29c0-0.48,0.39-0.86,0.86-0.86l0,0l18.7-2
			c1.72,0,3.12-1.43,3.24-3.13C101.54,42.57,100.14,40.83,98.42,40.83z"/>
		<path class="st3" d="M82.48,114.27c-0.02,0-0.03,0-0.05-0.01c-0.02,0-0.03,0.01-0.05,0.01H82.48z"/>
	</g>
</g>
</svg>
