<svg xmlns="http://www.w3.org/2000/svg" viewBox="0 0 70 70"><title>icon charity</title><path d="M70,35A35,35,0,1,1,35,0,35,35,0,0,1,70,35" fill="#005984"/><path d="M27.3,24.33a.56.56,0,0,0-.23-.42l-2.64-2.65a.72.72,0,0,1,0-1,.74.74,0,0,1,1,0l9.27,9.28a3.19,3.19,0,0,0,2.27.91,3.89,3.89,0,0,0,2.72-1.16,3.55,3.55,0,0,0,.25-5l-6.47-6.46-.32-.25A12.52,12.52,0,0,0,31,16.23a13.16,13.16,0,0,0-15.13,2.45A12.88,12.88,0,0,0,12,27.84a13.91,13.91,0,0,0,3.46,9c.11.14.31.32.43.32s.16-.19.17-.5a3.94,3.94,0,0,1,1.06-2L27,24.8A.72.72,0,0,0,27.3,24.33Z" fill="#fff"/><path d="M54.11,18.68a13.15,13.15,0,0,0-17.55-.9c-.25.19-.38.37-.38.55a.54.54,0,0,0,.22.37L41,23.26a5,5,0,0,1-.25,7A5.38,5.38,0,0,1,37,31.88a4.65,4.65,0,0,1-3.15-1.2.71.71,0,0,0-.41-.17.36.36,0,0,0-.28.14l-10,10a2.43,2.43,0,0,0-.71,1.8,2.72,2.72,0,0,0,2.7,2.66,2.45,2.45,0,0,0,1.75-.72L37.71,33.56a1,1,0,0,1,1.35,0,1,1,0,0,1,0,1.35L28.22,45.75a2.46,2.46,0,0,0-.71,1.75,2.73,2.73,0,0,0,2.7,2.7A2.47,2.47,0,0,0,32,49.49l11-10.92a.87.87,0,0,1,1.24,1.22l-11,10.91a2.46,2.46,0,0,0-.71,1.8,2.71,2.71,0,0,0,.8,1.86,2.66,2.66,0,0,0,1.9.8,2.45,2.45,0,0,0,1.75-.71L48.17,43.26l5.52-5.51A14,14,0,0,0,58,27.84,12.87,12.87,0,0,0,54.11,18.68Z" fill="#fff"/><path d="M32.09,29.07a.36.36,0,0,0-.11-.24l-3.16-3.16a.37.37,0,0,0-.26-.12.69.69,0,0,0-.41.19l-10,10a2.45,2.45,0,0,0-.72,1.75,2.73,2.73,0,0,0,2.7,2.7,2.47,2.47,0,0,0,1.75-.71l10-10A.59.59,0,0,0,32.09,29.07Z" fill="#fff"/></svg>