<svg xmlns="http://www.w3.org/2000/svg" xmlns:xlink="http://www.w3.org/1999/xlink" viewBox="0 0 36 31"><defs><path id="a" d="M34.594 25.177 20.123 1.434c-.836-1.37-2.687-1.841-4.135-1.05-.46.251-.844.614-1.11 1.05L.405 25.177c-.836 1.37-.34 3.122 1.108 3.913.46.251.983.384 1.515.384h28.943c1.671 0 3.027-1.282 3.028-2.864 0-.503-.14-.997-.406-1.433Z"/><path id="c" d="M12.622 1.774a2.39 2.39 0 0 1 3.264.877l11.425 19.808a2.39 2.39 0 0 1-2.07 3.585H2.391a2.39 2.39 0 0 1-2.07-3.585L11.745 2.651c.211-.364.513-.667.877-.877Zm2.373 5.166-6.82 8.876a.567.567 0 0 0 .446.903h3.602l-1.643 6.476a.567.567 0 0 0 .987.534l7.213-9.43a.567.567 0 0 0 .048-.591.591.591 0 0 0-.514-.308H14.51l1.473-5.925a.567.567 0 0 0-.988-.535Z"/></defs><g fill="none" fill-rule="evenodd"><g transform="translate(.821 .579)"><mask id="b" fill="#fff"><use xlink:href="#a"/></mask><use xlink:href="#a" fill="#FFF"/><g fill="#8ED2E3" mask="url(#b)"><path d="M0-1.743h35v33.12H0z"/></g></g><g transform="translate(4.506 1.888)"><mask id="d" fill="#fff"><use xlink:href="#c"/></mask><use xlink:href="#c" fill="#FFF"/><g fill="#00789E" mask="url(#d)"><path d="M0 0h27.632v27.632H0z"/></g></g></g></svg>