<svg xmlns="http://www.w3.org/2000/svg" xmlns:xlink="http://www.w3.org/1999/xlink" viewBox="0 0 76 76"><defs><path id="icon-positive-shop-a" d="M70.8607111,11.6945778 L3.87093333,11.6945778 L3.87093333,7.5264 C3.87093333,5.57911111 5.45173333,4 7.39902222,4 L67.3343111,4 C69.2799111,4 70.8607111,5.57911111 70.8607111,7.5264 L70.8607111,11.6945778 Z M34.8877156,58.1604711 C34.8877156,60.1060711 33.3086044,61.6868711 31.3613156,61.6868711 L15.7357156,61.6868711 C13.7867378,61.6868711 12.2093156,60.1060711 12.2093156,58.1604711 L12.2093156,44.14776 C12.2093156,42.2004711 13.7867378,40.6196711 15.7357156,40.6196711 L31.3613156,40.6196711 C33.3086044,40.6196711 34.8877156,42.2004711 34.8877156,44.14776 L34.8877156,58.1604711 Z M70.5908267,36.9649156 L70.7039822,36.9649156 C70.7563378,36.9649156 70.8086933,36.95816 70.8610489,36.9564711 L70.8610489,66.4664267 C70.8610489,68.4120267 69.2802489,69.9928267 67.3346489,69.9928267 L62.6750044,69.9928267 C60.7277156,69.9928267 59.1486044,68.4120267 59.1486044,66.4664267 L59.1486044,44.14776 C59.1486044,42.20216 57.5694933,40.62136 55.6205156,40.62136 L46.7504711,40.62136 C44.8014933,40.62136 43.22576,42.20216 43.22576,44.14776 L43.2223822,66.4664267 C43.2223822,68.4120267 41.6432711,69.9928267 39.6959822,69.9928267 L7.39936,69.9928267 C5.45038222,69.9928267 3.87127111,68.4120267 3.87127111,66.4664267 L3.87127111,36.9142489 C3.94389333,36.9176267 4.01482667,36.92776 4.08913778,36.92776 L4.20229333,36.92776 C5.82700444,36.92776 7.28620444,36.1154044 8.30967111,34.8318489 C9.33144889,36.1154044 10.7906489,36.92776 12.41536,36.92776 L12.5302044,36.92776 C14.1532267,36.92776 15.6141156,36.1154044 16.6358933,34.8318489 C17.65936,36.1154044 19.11856,36.92776 20.7432711,36.92776 L20.8564267,36.92776 C22.4811378,36.92776 23.9420267,36.1154044 24.9638044,34.8318489 C25.9855822,36.1154044 27.4464711,36.92776 29.0711822,36.92776 L29.1843378,36.92776 C30.7854044,36.92776 32.2277156,36.1390489 33.2478044,34.8892711 C34.2712711,36.1626933 35.7237156,36.9649156 37.3399822,36.9649156 L37.4548267,36.9649156 C39.0710933,36.9649156 40.5252267,36.1626933 41.5453156,34.8842044 C42.5687822,36.1610044 44.0229156,36.9649156 45.6408711,36.9649156 L45.7557156,36.9649156 C47.3719822,36.9649156 48.8244267,36.1643822 49.8445156,34.89096 C50.8679822,36.1643822 52.3204267,36.9649156 53.9350044,36.9649156 L54.0498489,36.9649156 C55.67456,36.9649156 57.13376,36.1559378 58.1555378,34.8706933 C59.1790044,36.1559378 60.6382044,36.9649156 62.2629156,36.9649156 L62.3760711,36.9649156 C64.0007822,36.9649156 65.4616711,36.1559378 66.4834489,34.8706933 C67.5052267,36.1559378 68.9678044,36.9649156 70.5908267,36.9649156 Z M26.1578489,13.1971822 L24.9435378,30.4542489 C24.9435378,33.1986933 23.1144711,35.42296 20.8564267,35.42296 L20.7432711,35.42296 C18.4852267,35.42296 16.6544711,33.1986933 16.6544711,30.4542489 L18.7402489,13.1971822 L26.1578489,13.1971822 Z M11.2498578,13.1971822 L8.28923556,30.4542489 C8.28923556,33.1986933 6.45848,35.42296 4.20212444,35.42296 L4.08896889,35.42296 C1.83092444,35.42296 0.000168888889,33.1986933 0.000168888889,30.4542489 L3.83225778,13.1971822 L11.2498578,13.1971822 Z M56.05152,13.1971822 L58.1372978,30.4542489 C58.1372978,33.1986933 56.3065422,35.42296 54.0484978,35.42296 L53.9353422,35.42296 C51.6772978,35.42296 49.8482311,33.1986933 49.8482311,30.4542489 L48.63392,13.1971822 L56.05152,13.1971822 Z M70.95968,13.1971822 L74.7934578,30.4542489 C74.7934578,33.1986933 72.9627022,35.42296 70.7046578,35.42296 L70.5898133,35.42296 C68.3334578,35.42296 66.5027022,33.1986933 66.5027022,30.4542489 L63.54208,13.1971822 L70.95968,13.1971822 Z M41.2127733,13.2086667 L41.5404178,30.4657333 C41.5404178,33.2101778 39.7113511,35.4344444 37.4533067,35.4344444 L37.3401511,35.4344444 C35.0821067,35.4344444 33.2513511,33.2101778 33.2513511,30.4657333 L33.6144622,13.1968444 L41.2127733,13.2086667 Z"/></defs><use fill="#00789E" fill-rule="evenodd" xlink:href="#icon-positive-shop-a"/></svg>