<svg xmlns="http://www.w3.org/2000/svg" viewBox="0 0 70 70"><title>icon list</title><path d="M70,35A35,35,0,1,1,35,0,35,35,0,0,1,70,35" fill="#005984"/><path d="M46.62,14.15l-23.24,0a3.55,3.55,0,0,0-3.55,3.55V52.33a3.55,3.55,0,0,0,3.55,3.55H46.62a3.55,3.55,0,0,0,3.55-3.55V17.69A3.55,3.55,0,0,0,46.62,14.15ZM25.9,50.89A1.88,1.88,0,1,1,27.78,49,1.88,1.88,0,0,1,25.9,50.89Zm0-7A1.88,1.88,0,1,1,27.78,42,1.88,1.88,0,0,1,25.9,43.86Zm0-7A1.88,1.88,0,1,1,27.78,35,1.88,1.88,0,0,1,25.9,36.86Zm0-7A1.88,1.88,0,1,1,27.78,28,1.88,1.88,0,0,1,25.9,29.89Zm0-7A1.88,1.88,0,1,1,27.78,21,1.88,1.88,0,0,1,25.9,22.89ZM44.95,50.09H30.35a1.08,1.08,0,0,1,0-2.16h14.6a1.08,1.08,0,0,1,0,2.16Zm0-7.11H30.35a1.08,1.08,0,0,1,0-2.16h14.6a1.08,1.08,0,0,1,0,2.16Zm0-7.11H30.35a1.08,1.08,0,0,1,0-2.16h14.6a1.08,1.08,0,0,1,0,2.16Zm0-7.11H30.35a1.08,1.08,0,0,1,0-2.16h14.6a1.08,1.08,0,0,1,0,2.16Zm0-7.11H30.35a1.08,1.08,0,0,1,0-2.16h14.6a1.08,1.08,0,0,1,0,2.16Z" fill="#fff"/></svg>