<svg xmlns="http://www.w3.org/2000/svg" xmlns:xlink="http://www.w3.org/1999/xlink" viewBox="0 0 28 27"><defs><path id="a" d="m21.89 18.098-6.844 6.787c-.28.28-.658.434-1.064.434h-.126c-.405 0-.782-.154-1.062-.434l-6.845-6.787a4621.85 4621.85 0 0 0-3.353-3.35C.92 13.07-.001 10.933 0 8.73c.003-2.09.834-4.065 2.343-5.563A7.942 7.942 0 0 1 7.976.842c1.858 0 3.595.615 5.026 1.777l.915.67.92-.67A7.882 7.882 0 0 1 19.863.842c2.123 0 4.124.825 5.635 2.326 1.508 1.498 2.34 3.474 2.342 5.563.002 2.202-.92 4.339-2.596 6.017a4698.138 4698.138 0 0 0-3.353 3.35Z"/><path id="c" d="M15.711 1.448c1.673 0 3.251.65 4.442 1.833A6.163 6.163 0 0 1 22 7.668c.001 1.735-.725 3.42-2.047 4.743l-1.46 1.459-1.183 1.182-5.397 5.352c-.22.22-.518.342-.838.342-.343 0-.667-.135-.911-.382a1.298 1.298 0 0 1-.382-.891 1.176 1.176 0 0 1 .341-.86l5.273-5.224a.418.418 0 0 0-.595-.586l-5.256 5.232c-.223.221-.521.343-.839.343-.34 0-.664-.137-.912-.384a1.282 1.282 0 0 1-.382-.911c0-.32.121-.617.342-.839l5.196-5.197a.454.454 0 0 0-.005-.647.47.47 0 0 0-.646.005l-5.194 5.19c-.22.222-.519.343-.838.343-.343 0-.667-.136-.912-.383a1.288 1.288 0 0 1-.38-.89 1.166 1.166 0 0 1 .339-.86l4.793-4.794a.17.17 0 0 1 .135-.066c.06 0 .128.03.197.081.407.373.943.578 1.51.578a2.58 2.58 0 0 0 1.794-.76c.959-.964 1.012-2.476.117-3.371l-2.185-2.184c-.001-.001-.104-.074-.106-.18-.001-.082.058-.17.18-.26a6.213 6.213 0 0 1 3.962-1.401ZM7.914 6.572c.046 0 .088.02.126.057l1.512 1.513s.05.044.052.115c.002.062-.032.129-.1.198l-4.768 4.772c-.223.22-.521.341-.838.341-.341 0-.664-.135-.911-.382a1.282 1.282 0 0 1-.384-.912c0-.319.122-.617.343-.838L7.72 6.663c.001-.001.094-.09.195-.09ZM6.289 1.447A6.219 6.219 0 0 1 10.12 2.75l.152.118 3.097 3.094c.623.628.57 1.7-.12 2.39a1.862 1.862 0 0 1-1.301.553 1.53 1.53 0 0 1-1.086-.434L6.421 4.028a.352.352 0 0 0-.488.004.345.345 0 0 0 .003.488L7.2 5.789c.074.063.11.13.11.199 0 .121-.115.219-.12.223l-4.735 4.734a1.864 1.864 0 0 0-.51.96c-.007.148-.039.24-.083.24-.058 0-.155-.089-.206-.155C.586 10.744-.002 9.21 0 7.668a6.165 6.165 0 0 1 1.847-4.387 6.26 6.26 0 0 1 4.442-1.834Z"/></defs><g fill="none" fill-rule="evenodd"><g transform="translate(0 .813)"><mask id="b" fill="#fff"><use xlink:href="#a"/></mask><use xlink:href="#a" fill="#06ABC8"/><g fill="#8ED2E3" mask="url(#b)"><path d="M0-1h28v28H0z"/></g></g><g transform="translate(3 2.813)"><mask id="d" fill="#fff"><use xlink:href="#c"/></mask><use xlink:href="#c" fill="#06ABC8"/><g fill="#00789E" mask="url(#d)"><path d="M0 0h22v22H0z"/></g></g></g></svg>