<svg xmlns="http://www.w3.org/2000/svg" viewBox="0 0 64 64"><title>icon-shovel</title><path d="M64,32A32,32,0,1,1,32,0,32,32,0,0,1,64,32" fill="#005984"/><path d="M37.41,36.83H36.22a2.38,2.38,0,0,1-2.38-2.38l0-15.92,3.5-4,0.13-.18a2,2,0,0,0-1.76-3H28.32a2,2,0,0,0-1.76,3l3.65,4.18L30.16,34.46a2.38,2.38,0,0,1-2.38,2.38H26.59A1.63,1.63,0,0,0,25,38.46V39s0.23,9.67,6,13.17a2,2,0,0,0,1.07.46,2.22,2.22,0,0,0,1-.4C38.82,48.77,39,39,39,39V38.46A1.63,1.63,0,0,0,37.41,36.83Zm-2.12-23.3L32,17.27l-3.29-3.73h6.58Z" fill="#fff"/></svg>