<svg xmlns="http://www.w3.org/2000/svg" viewBox="0 0 64 64"><title>icon-outdoor-light</title><path d="M64,32A32,32,0,1,0,29.38,63.88a1.7,1.7,0,0,1-.19-0.76V51.79l-4.62-3.52a0.28,0.28,0,0,1-.07-0.49,0.75,0.75,0,0,1,.17-0.11,1.65,1.65,0,0,1,.69-0.14h13a1.38,1.38,0,0,1,.87.25,0.28,0.28,0,0,1-.05.49l-4.65,3.55V63.12a1.7,1.7,0,0,1-.19.78A32,32,0,0,0,64,32ZM39.59,44.13a1.62,1.62,0,0,1-1.48,1.73H25.68a1.62,1.62,0,0,1-1.48-1.73L20.77,26.66a1.62,1.62,0,0,1,1.48-1.73H41.55A1.62,1.62,0,0,1,43,26.66ZM44.2,22.85a3.14,3.14,0,0,1-1.46.28H21A3.91,3.91,0,0,1,19.87,23a1.36,1.36,0,0,1-.29-0.13c-0.28-.17-0.23-0.38.11-0.54l10.72-5.5a2.46,2.46,0,1,1,3,0L44.12,22.3C44.46,22.47,44.49,22.67,44.2,22.85Z" fill="#005984"/><path d="M34.58,51.81l4.65-3.55a0.28,0.28,0,0,0,.05-0.49,1.38,1.38,0,0,0-.87-0.25h-13a1.65,1.65,0,0,0-.69.14,0.75,0.75,0,0,0-.17.11,0.28,0.28,0,0,0,.07.49l4.62,3.52V63.12a1.7,1.7,0,0,0,.19.76C30.24,64,31.12,64,32,64s1.6,0,2.38-.1a1.7,1.7,0,0,0,.19-0.78V51.81Z" fill="#fff"/><path d="M44.12,22.3L33.39,16.79a2.46,2.46,0,1,0-3,0L19.69,22.3c-0.35.16-.39,0.37-0.11,0.54a1.36,1.36,0,0,0,.29.13,3.91,3.91,0,0,0,1.15.16H42.75a3.14,3.14,0,0,0,1.46-.28C44.49,22.67,44.46,22.47,44.12,22.3Z" fill="#fff"/><path d="M41.55,24.93H22.24a1.62,1.62,0,0,0-1.48,1.73L24.2,44.13a1.62,1.62,0,0,0,1.48,1.73H38.11a1.62,1.62,0,0,0,1.48-1.73L43,26.66A1.62,1.62,0,0,0,41.55,24.93Z" fill="#fff"/></svg>