<svg xmlns="http://www.w3.org/2000/svg" viewBox="0 0 64 64"><title>icon-home-plug</title><path d="M64,32A32,32,0,1,1,32,0,32,32,0,0,1,64,32" fill="#005984"/><path d="M51.15,30.54l-7.48-7.43,0-6.71a1.32,1.32,0,0,0-1.32-1.32H40.21a1.32,1.32,0,0,0-1.32,1.32v2l-5.34-5.3a1.94,1.94,0,0,0-2.74,0L13.19,30.54a1.19,1.19,0,0,0,.73,1.89h3.86v18a1.36,1.36,0,0,0,1.35,1.34H45.25a1.32,1.32,0,0,0,1.32-1.32V49.82H35.72a4,4,0,0,1-4-3.87H30.56A0.61,0.61,0,0,1,30,45.35l-0.1-.68c-0.05-.33.19-0.28,0.19-0.28h0.71a0.17,0.17,0,0,0,.17-0.22l-0.12-.81a0.29,0.29,0,0,0-.21-0.26H29.88a0.34,0.34,0,0,1-.29-0.3L29.49,42c-0.05-.33.19-0.28,0.19-0.28h0.71a0.17,0.17,0,0,0,.17-0.22l-0.12-.81a0.29,0.29,0,0,0-.2-0.26H29.65a0.46,0.46,0,0,1-.4-0.31l-0.14-1c-1.32-.52-2.29-2.23-2.29-4.28V32.08H26.56a0.92,0.92,0,0,1-.92-0.92v-1.7a0.92,0.92,0,0,1,.92-0.92h1.78V22.66A0.61,0.61,0,0,1,29,22h0.65a0.61,0.61,0,0,1,.61.61v5.87h3.9V22.66A0.61,0.61,0,0,1,34.72,22h0.65a0.61,0.61,0,0,1,.61.61v5.87H37.8a0.92,0.92,0,0,1,.92.92v1.7a0.92,0.92,0,0,1-.92.92H37.55v2.77c0,2-1,3.75-2.28,4.28l-0.14,1a0.46,0.46,0,0,1-.4.31H34.14a0.29,0.29,0,0,0-.21.26l-0.12.81a0.17,0.17,0,0,0,.17.22H34.7s0.25,0,.19.28l-0.11.74a0.34,0.34,0,0,1-.29.3H33.77a0.29,0.29,0,0,0-.21.26l-0.12.81a0.17,0.17,0,0,0,.17.22h0.71s0.25,0,.19.28l-0.1.68a0.61,0.61,0,0,1-.61.61H33a2.71,2.71,0,0,0,2.7,2.56H46.57l0-16.08h3.88A1.19,1.19,0,0,0,51.15,30.54Z" fill="#fff"/></svg>