<svg xmlns="http://www.w3.org/2000/svg" xmlns:xlink="http://www.w3.org/1999/xlink" fill="#fff" fill-rule="evenodd" stroke="#000" stroke-linecap="round" stroke-linejoin="round" viewBox="0 0 67 81"><style>.B{stroke:none}.D{fill:#759c3e}.E{fill:#4b612c}</style><use xlink:href="#A" x=".5" y=".5"/><symbol id="A" overflow="visible"><path d="M66 40v23.75l-5 2.75v-53l5 2.75z" class="B D"/><path d="M47 40v33l-7-2.75V9.75L47 7zM61 40v26.5l-6-2v-49l6-2z" class="B E"/><path d="M44 40v29.5L40 71v5.75L33 80V0l7 3.25V9l4 1.5zM58 40v23.25l-3 1.25v5L47 73V7l8 3.5v5l3 1.25z" class="B D"/><path d="M0 40v23.75l5 2.75v-53l-5 2.75z" class="B E"/><path d="M19 40v33l7-2.75V9.75L19 7zM5 40v26.5l6-2v-49l-6-2z" class="B D"/><path d="M22 40v29.5l4 1.5v5.75L33 80V0l-7 3.25V9l-4 1.5zM8 40v23.25l3 1.25v5l8 3.5V7l-8 3.5v5l-3 1.25z" class="B E"/></symbol></svg>