<svg xmlns="http://www.w3.org/2000/svg" xmlns:xlink="http://www.w3.org/1999/xlink" fill="#fff" fill-rule="evenodd" stroke="#000" stroke-linecap="round" stroke-linejoin="round" viewBox="0 0 74.375 85"><use xlink:href="#a" x="2.188" y="2.5"/><symbol id="a" overflow="visible"><g stroke="none"><path fill="#b7ca9d" d="m13.99 50.117-5.041-.81L0 50.058 4.402 64.79l9.588-14.673z"/><path fill="#4b612c" d="M0 33.298v13.376l4.526.615 8.825-6.868-8.825-7.727L0 33.298z"/><path fill="#759c3e" d="m4.526 51.024 9.464-.907v13.405l-9.464.644-3.65-6.986 3.65-6.156z"/><path fill="#3c4929" d="m9.072 30.702 4.917-.78-9.464-14.849L0 29.941l9.072.761z"/><path fill="#759c3e" d="m4.526 14.41 9.464 2.107v13.405l-9.464-.898V14.41zm0 18.312 9.464.595v13.415l-9.464.605V32.722z"/><path fill="#3c4929" d="m13.99 25.942 7.237-1.6-9.918-12.81-6.783 13.151 9.464 1.259z"/><path fill="#759c3e" d="m11.309 11.22 9.918 2.634v10.488l-9.918-1.581V11.22z"/><path fill="#b7ca9d" d="m21.227 55.639-7.217-1.6-9.484 1.268 6.784 13.522 9.918-13.19z"/><path fill="#759c3e" d="m11.309 57.24 9.918-1.581v10.527l-9.918 2.644-8.969-6.585 8.969-5.005z"/><path fill="#3c4929" d="m69.928 29.932-9.072.761-12.093-1.912 9.856-17.6 11.309 18.751z"/><path fill="#4b612c" d="M4.526 55.308v-4.322L0 50.059v13.376l11.309 5.356V57.23l-6.784-1.922z"/><path fill="#b7ca9d" d="m69.949 50.068-9.072-.761-12.114 1.922 9.856 17.239 11.33-18.4z"/><path fill="#4b612c" d="m58.619 11.181-9.856 2.624v14.976l9.856-1.122 10.722-6.127-10.722-10.351zm0 20.497-9.856.761v14.976l9.856.742 10.722-7.883-10.722-8.595zm0 20.742-9.856-1.132v14.976l9.856 2.634 9.917-10.702-9.917-5.776z"/><g fill="#3c4929"><path d="m24.598 6.878-9.907 14.927 10.082 1.746 10.217-2.254L24.598 6.878z"/><path d="m55.248 26.957-10.093 1.249-20.557-3.258L34.99.098l20.258 26.859z"/></g><path fill="#4b612c" d="M34.99 51.396 54.444 40.03 34.99 28.576l-10.392 1.405V50l10.392 1.395z"/><path fill="#759c3e" d="M34.99 28.576v22.819l20.258-2.732V31.308L34.99 28.576z"/><g fill="#b7ca9d"><path d="m55.248 53.054-10.093-1.258-20.557 3.268L34.99 79.99l20.258-26.937z"/><path d="m34.928 58.673-10.082-2.234-10.114 1.756 9.485 16.322 10.711-15.844z"/></g><path fill="#4b612c" d="M14.68 58.185V70.39L34.989 80l18.938-17.756-18.938-5.063-10.392-2.117v5.932l-9.917-2.81zm-3.371-35.424V11.22L0 16.566v13.376l4.526-.917v-4.342l6.784-1.922zm13.289-3.765v5.951L34.99 22.84l18.701-5.063L34.989.02 14.68 9.62v12.185l9.918-2.81z"/><path fill="#759c3e" d="M34.99 0v22.839l20.258 4.117V9.581L34.99 0zM70 29.952V16.566l-11.381-5.385V27.64L70 29.952zm0 16.721V33.308l-11.381-1.541v16.449L70 46.673zM34.99 57.181v22.81l20.258-9.59V53.054L34.99 57.181zM70 63.425V50.059l-11.381 2.312V68.81L70 63.425z"/></g></symbol></svg>