<svg xmlns="http://www.w3.org/2000/svg" xmlns:xlink="http://www.w3.org/1999/xlink" fill="#fff" fill-rule="evenodd" stroke="#000" stroke-linecap="round" stroke-linejoin="round" viewBox="0 0 74.375 85"><use xlink:href="#a" x="2.188" y="2.5"/><symbol id="a" overflow="visible"><g stroke="none"><path fill="#692f56" d="m41.189 26.342 12.523-1.893V8.82l-12.523 3.795v13.727z"/><path fill="#ad688b" d="m70 47.141-35.062 5.044V27.961L70 32.956v14.185zm-22.261-23.97-12.801-3.015V0l12.801 6.049v17.122zm.114 33.658-12.791 3.005V80l12.791-6.049V56.829zm13.73-30.526-7.984-1.893V8.82l7.984 3.776v13.707z"/><path fill="#512843" d="m61.706 26.302-12.152 1.493-8.366-1.454 12.636-1.912 7.881 1.873z"/><path fill="#ad688b" d="m28.811 26.342-12.523-1.893V8.82l12.523 3.795v13.727z"/><path fill="#692f56" d="m0 47.141 35.062 5.044V27.961L0 32.956v14.185zm22.261-23.97 12.801-3.015V0L22.261 6.049v17.122zm0 33.658 12.801 3.005V80l-12.801-6.049V56.829zM8.417 26.303l7.984-1.893V8.82l-7.984 3.776v13.707z"/><path fill="#512843" d="m8.417 26.302 12.141 1.493 8.366-1.454-12.636-1.912-7.871 1.873zm39.436-3.131-12.791 2.205-12.801-2.205 12.801-3.015 12.791 3.015z"/><path fill="#cfb2c1" d="m47.853 56.829-12.791-2.205-12.801 2.205 12.801 2.995 12.791-2.995z"/></g></symbol></svg>