<svg xmlns="http://www.w3.org/2000/svg" fill="none" viewBox="0 0 185 80"><path fill="#58A1F9" d="m.318 73.82 1.344-2.141a13.9 13.9 0 0 0 1.563.9c.488.22.903.34 1.27.34.293 0 .512-.072.708-.194a.602.602 0 0 0 .268-.51c0-.293-.17-.536-.488-.73a8.428 8.428 0 0 0-1.148-.536 17.98 17.98 0 0 1-1.392-.657 4.021 4.021 0 0 1-1.172-.924c-.318-.39-.464-.876-.464-1.485 0-.827.342-1.533 1.001-2.068.66-.535 1.612-.803 2.809-.803.586 0 1.22.073 1.88.22.66.145 1.246.389 1.808.705l-1.246 2.165a4.403 4.403 0 0 0-1.123-.51c-.465-.147-.855-.22-1.173-.22-.195 0-.39.049-.61.122-.22.073-.342.219-.342.438 0 .243.146.438.464.608.317.146.66.316 1.099.487.464.17.928.39 1.416.632.489.244.88.56 1.221.95.342.389.489.924.489 1.556 0 .633-.171 1.193-.537 1.655-.367.462-.83.827-1.417 1.07-.586.244-1.245.365-1.978.365a6.729 6.729 0 0 1-2.125-.364C1.71 74.647.978 74.307.318 73.82ZM20.955 70.998c.171.535.513.997.977 1.338.488.34 1.026.51 1.685.51.684 0 1.246-.12 1.71-.34.44-.219.854-.51 1.22-.851l1.735 2.043a7.013 7.013 0 0 1-2.271 1.241 6.93 6.93 0 0 1-2.15.34c-1.099 0-2.051-.218-2.906-.656a5.095 5.095 0 0 1-1.978-1.825c-.464-.778-.708-1.654-.708-2.652 0-.973.22-1.849.683-2.628a5.324 5.324 0 0 1 1.856-1.825c.782-.438 1.686-.656 2.687-.656s1.88.218 2.662.656a4.708 4.708 0 0 1 1.832 1.825c.44.779.684 1.655.684 2.652v.852h-7.718v-.024Zm4.787-1.582c-.147-.584-.415-1.046-.855-1.411s-.952-.535-1.538-.535c-.611 0-1.124.17-1.588.535a2.62 2.62 0 0 0-.88 1.387h4.86v.024ZM47.77 73.82a4.844 4.844 0 0 1-1.733 1.07c-.66.268-1.392.39-2.174.39-1.05 0-1.978-.22-2.809-.657a5.03 5.03 0 0 1-1.953-1.825 5.042 5.042 0 0 1-.708-2.628c0-.973.244-1.873.708-2.627a5.04 5.04 0 0 1 1.953-1.825c.831-.438 1.759-.657 2.81-.657.78 0 1.513.122 2.173.39.66.267 1.245.608 1.734 1.07l-2.003 1.873c-.464-.584-1.099-.876-1.905-.876-.733 0-1.319.244-1.807.755-.464.51-.708 1.143-.708 1.897 0 .755.244 1.387.708 1.898.464.511 1.075.754 1.807.754.782 0 1.417-.291 1.905-.876l2.003 1.874ZM58.005 65.231h2.858v5.28c0 .73.146 1.314.464 1.703.317.39.757.608 1.343.608.61 0 1.123-.219 1.514-.657.391-.438.586-.997.586-1.654v-5.304h2.858v9.854h-2.491l-.122-1.217c-.391.438-.855.803-1.392 1.047a4.246 4.246 0 0 1-1.783.364c-1.246 0-2.198-.413-2.858-1.216-.635-.803-.977-1.995-.977-3.577v-5.231ZM78.714 75.06v-9.853h2.491l.147 1.411c.708-1.07 1.71-1.606 2.98-1.606.44 0 .879.073 1.318.195l-.39 2.457a3.765 3.765 0 0 0-1.124-.194c-.757 0-1.392.291-1.856.851-.464.56-.708 1.363-.708 2.409v4.355h-2.858v-.024ZM94.956 61.85c0-.463.146-.852.44-1.144.292-.292.683-.438 1.147-.438.464 0 .855.146 1.148.438.293.292.44.681.44 1.143 0 .463-.147.852-.44 1.144-.293.292-.684.438-1.148.438-.464 0-.855-.146-1.148-.438-.293-.292-.44-.657-.44-1.144Zm.146 13.21v-9.853h2.858v9.854h-2.858ZM108.316 65.207h1.636V62.75h2.857v2.457h2.394v2.457h-2.394v3.626c0 .462.147.827.44 1.094.293.268.684.39 1.148.39.342 0 .684-.073 1.05-.22v2.337a5.138 5.138 0 0 1-1.856.364c-1.172 0-2.076-.316-2.711-.948-.635-.633-.952-1.533-.952-2.701V67.64h-1.637v-2.433h.025ZM128.146 65.207l2.32 4.817a7.62 7.62 0 0 1 .538 1.606l2.662-6.423h3.004L130.515 80h-3.004l2.247-5.426-4.591-9.367h2.979ZM145.9 73.698c0-.462.146-.851.44-1.143.293-.292.683-.438 1.147-.438.465 0 .855.146 1.148.438.293.292.44.681.44 1.143 0 .463-.147.852-.44 1.144-.293.292-.683.438-1.148.438-.464 0-.854-.146-1.147-.438-.294-.292-.44-.681-.44-1.144ZM159.87 61.85c0-.463.146-.852.439-1.144.293-.292.683-.438 1.147-.438.465 0 .855.146 1.148.438.293.292.441.681.441 1.143 0 .463-.148.852-.441 1.144-.293.292-.683.438-1.148.438-.464 0-.854-.146-1.147-.438-.293-.292-.439-.657-.439-1.144Zm.146 13.21v-9.853h2.858v9.854h-2.858ZM173.132 70.146c0-.997.219-1.873.683-2.628a4.832 4.832 0 0 1 1.88-1.825c.806-.438 1.711-.656 2.711-.656 1.027 0 1.93.218 2.712.656a5.007 5.007 0 0 1 1.88 1.825c.464.779.684 1.655.684 2.628 0 .973-.22 1.874-.684 2.628a4.832 4.832 0 0 1-1.88 1.825c-.782.438-1.685.656-2.712.656-1.025 0-1.928-.218-2.711-.656a4.832 4.832 0 0 1-1.88-1.825c-.464-.779-.683-1.655-.683-2.628Zm2.759 0c0 .754.245 1.387.709 1.898.464.51 1.074.754 1.806.754.734 0 1.32-.243 1.808-.754.464-.511.708-1.144.708-1.898s-.244-1.387-.708-1.898c-.464-.51-1.074-.754-1.808-.754-.732 0-1.319.243-1.806.754-.464.487-.709 1.12-.709 1.898ZM18.439 12.044a18.32 18.32 0 0 0-12.09 4.525V3.163A3.163 3.163 0 0 0 3.176 0 3.163 3.163 0 0 0 0 3.163v27.25c0 10.122 8.28 18.37 18.439 18.37 10.16 0 18.439-8.248 18.439-18.37 0-10.121-8.28-18.37-18.439-18.37Zm0 30.413c-6.667 0-12.09-5.401-12.09-12.043 0-6.643 5.423-12.044 12.09-12.044s12.089 5.401 12.089 12.044c0 6.642-5.422 12.043-12.089 12.043ZM148.855 29.319c-3.174-1.314-6.301-1.971-6.447-1.995-.025 0-2.418-.511-4.909-1.485-3.834-1.532-4.274-2.725-4.274-2.725 0-1.265 1.612-2.773 3.932-3.65 3.761-1.435 9.696-1.435 13.97 3.334 1.172 1.29 3.175 1.411 4.469.243 1.295-1.168 1.416-3.163.244-4.452-2.808-3.115-6.423-5.158-10.477-5.913-3.492-.657-7.205-.34-10.477.9-4.933 1.898-8.011 5.548-8.011 9.563 0 3.43 2.638 6.253 7.815 8.394 3.175 1.314 6.301 1.97 6.448 1.995.024 0 2.418.51 4.909 1.484 3.834 1.509 4.274 2.725 4.298 2.725 0 1.265-1.612 2.774-3.932 3.65-3.761 1.435-9.696 1.435-13.969-3.334-1.173-1.29-3.175-1.41-4.47-.243-1.294 1.168-1.416 3.163-.244 4.453 2.809 3.114 6.423 5.158 10.477 5.912 1.197.22 2.394.34 3.615.34 2.344 0 4.713-.413 6.862-1.24 4.934-1.898 8.011-5.548 8.011-9.562-.024-3.43-2.662-6.253-7.84-8.394ZM181.825 42.58c-3.615 0-7.328-1.923-7.328-5.11 0-2.871-.048-11.217-.12-18.979h4.516a3.162 3.162 0 1 0 0-6.326h-4.567c-.048-5.109-.072-8.929-.072-9.026C174.229 1.41 172.814 0 171.08 0h-.026a3.177 3.177 0 0 0-3.149 3.187c0 .098.023 3.918.072 8.978h-2.027a3.163 3.163 0 1 0 0 6.326h2.075c.051 7.762.123 16.132.123 18.979 0 3.406 1.611 6.472 4.518 8.588 2.491 1.825 5.74 2.823 9.134 2.823a3.162 3.162 0 0 0 3.175-3.163 3.136 3.136 0 0 0-3.15-3.139ZM67.626 38.832l-.122.097c-2.296 2.36-5.373 3.65-8.67 3.65-.464 0-.928-.024-1.368-.073l.44 3.358-2.663 2.7c1.173.22 2.37.365 3.59.365 4.983 0 9.648-1.946 13.164-5.498l6.643-6.18-4.323-4.623-6.691 6.204Z"/><path fill="#58A1F9" d="M56.49 42.336c-5.544-1.095-9.72-5.986-9.72-11.825 0-2.287.634-4.428 1.758-6.253l-3.37-.633-1.686-3.187a18.166 18.166 0 0 0-3.052 10.097c0 8.516 5.837 15.67 13.725 17.762l2.76-2.798-.415-3.163Z"/><path fill="#58A1F9" d="M49.113 23.406a12.04 12.04 0 0 1 9.745-4.915 12.05 12.05 0 0 1 8.792 3.772l.073.073 2.393 2.214 1.002-3.48 3.175-1.265-2.125-1.97c-3.517-3.65-8.23-5.67-13.31-5.67-6.033 0-11.381 2.896-14.752 7.373l1.686 3.26 3.321.608Z"/><path fill="#58A1F9" d="m79.032 32.847 9.525 8.856.953-3.236 3.419-1.362-9.574-8.881-8.279-7.689-3.175 1.241L70.9 25.28l8.132 7.567ZM94.637 22.384l.147-.146c2.32-2.433 5.422-3.77 8.792-3.77 1.587 0 3.126.316 4.518.875l2.393-2.409-.488-3.6a18.259 18.259 0 0 0-6.448-1.168c-5.08 0-9.793 2.019-13.31 5.668l-5.69 5.28 4.323 4.623 5.763-5.352Z"/><path fill="#58A1F9" d="m111.026 13.747.464 3.528-2.491 2.506c3.932 1.995 6.642 6.058 6.642 10.754 0 2.92-1.05 5.62-2.808 7.689l1.661 3.187 3.394.633c2.565-3.163 4.103-7.153 4.103-11.509 0-7.47-4.518-13.917-10.965-16.788Z"/><path fill="#58A1F9" d="M112.148 39.002a12.052 12.052 0 0 1-8.597 3.577c-3.297 0-6.374-1.29-8.67-3.65l-.049-.048-1.099-1.022-3.42 1.362-.952 3.236 1.026.95c3.493 3.552 8.157 5.498 13.164 5.498a18.434 18.434 0 0 0 13.603-5.985l-3.297-.609-1.709-3.309Z"/></svg>