<svg xmlns="http://www.w3.org/2000/svg" xml:space="preserve" id="Layer_1" x="0" y="0" version="1.1" viewBox="0 0 165.2 131.82"><style id="style2" type="text/css">.st1{fill:#785fa9}</style><path id="path28" d="m14.7 101.06 1.8 2.9c-1.4 1.3-3 2.1-4.4 2.6-1 .3-2.2.4-3.1.4-1.8 0-3.4-.4-4.8-1.1-1.4-.7-2.4-1.7-3.1-3-.7-1.3-1.1-2.7-1.1-4.4 0-1.6.4-3 1.2-4.3.8-1.3 1.9-2.3 3.3-3.1 1.4-.8 2.9-1.1 4.5-1.1 2.2 0 3.9.6 5.4 1.9 1.4 1.3 2.4 3 2.9 5.4l-12.2 4.1c.4.7 1 1.2 1.7 1.5.7.4 1.5.5 2.3.5 2.6 0 4.5-1.1 5.6-2.3zm-9.2-6.4c-.8.9-1.3 2.1-1.3 3.6v.6l8.3-3c-.3-.8-.8-1.4-1.4-1.9-.6-.5-1.4-.8-2.4-.8-1.3.1-2.3.6-3.2 1.5z" class="st1"/><path id="path30" d="M34.5 91.36c1 .9 1.5 2 1.5 3.4v11.8h-4.2v-10.3c0-.8-.3-1.5-.7-2-.4-.5-1.1-.7-2-.8-1.3 0-2.4.6-3.2 1.7-.8 1.1-1.3 2.5-1.3 4.3v7.1h-4.2v-15.9h3.8l.3 2.8c.6-1.1 1.4-2 2.5-2.6 1.1-.6 2.3-.9 3.8-.9s2.7.5 3.7 1.4z" class="st1"/><path id="path32" d="M46.6 83.66v7h4.1v3.3h-4.1v12.6h-4.2v-12.6h-2.7v-3.3h2.7v-7z" class="st1"/><path id="path34" d="M79.8 92.06c.8-.7 1.6-1.2 2.4-1.6.8-.4 1.5-.5 2-.5l-.2 4.2c-1.2-.1-2.2.1-3.1.6-.9.5-1.6 1.2-2.1 2.1-.5.9-.8 1.8-.8 2.8v6.8h-4.2v-15.9h3.8l.3 3.7c.5-.8 1.1-1.5 1.9-2.2z" class="st1"/><path id="path36" d="M115.1 92.06c.8-.7 1.6-1.2 2.4-1.6.8-.4 1.5-.5 2-.5l-.2 4.2c-1.2-.1-2.2.1-3.1.6-.9.5-1.6 1.2-2.1 2.1-.5.9-.8 1.8-.8 2.8v6.8h-4.2v-15.9h3.8l.3 3.7c.6-.8 1.2-1.5 1.9-2.2z" class="st1"/><path id="path38" d="M124.5 83.36c.5-.4 1.1-.7 1.7-.7.6 0 1.1.2 1.6.7.5.4.7 1 .7 1.6 0 .6-.2 1.2-.7 1.6-.5.4-1 .6-1.6.6-.6 0-1.2-.2-1.7-.6-.5-.4-.8-1-.8-1.6 0-.6.3-1.1.8-1.6zm3.6 7.3v15.9h-4.2v-15.9Z" class="st1"/><path id="path40" d="M135.2 106.26c-1.1-.4-2-1.1-2.7-1.9l1.8-2.4c1.3 1.3 2.7 2 4.1 2 .8 0 1.4-.1 1.9-.4.5-.3.7-.7.7-1.3 0-.6-.3-1.1-.8-1.4-.5-.3-1.1-.5-1.7-.7-.6-.2-1-.3-1.2-.4-1.4-.4-2.4-1-3.1-1.9-.7-.8-1-1.8-1-2.9 0-.9.2-1.7.7-2.5.4-.8 1.1-1.4 2-1.9.9-.5 2-.7 3.2-.7 1.2 0 2.2.1 3.1.4.9.3 1.7.7 2.5 1.3l-1.6 2.5c-.5-.4-1-.8-1.6-1-.6-.3-1.2-.4-1.7-.4-.7 0-1.2.2-1.6.5-.4.3-.6.7-.6 1.2 0 .6.2 1 .6 1.3.5.3 1.2.6 2.2.9.4.1.7.2.8.3 1.3.4 2.2 1 2.9 1.7.7.7 1.1 1.6 1.1 2.8 0 1.6-.6 2.8-1.7 3.9-1.1 1-2.7 1.6-4.8 1.6-1.3 0-2.4-.2-3.5-.6z" class="st1"/><path id="path48" d="M104.8 94.06c-.7-1.3-1.6-2.3-2.8-3-1.2-.7-2.5-1.1-4-1.1-1.3 0-2.5.3-3.5.8-1.1.5-2 1.2-2.9 2l-.4-2.4h-3.6v22.5h.3c1.6 0 2.9.4 3.9 1v-9.3c.6.7 1.4 1.3 2.4 1.7 1 .4 2 .6 3 .6 1.7 0 3.1-.3 4.5-1 1.3-.7 2.3-1.7 3.1-2.9.7-1.3 1.1-2.8 1.1-4.5-.1-1.6-.4-3.1-1.1-4.4zm-4 7.1c-.5.8-1.1 1.3-1.9 1.8-.8.4-1.6.7-2.6.7-1.2 0-2.1-.3-3-1-.8-.7-1.4-1.5-1.6-2.5v-3.2c.4-1.1 1-1.9 1.8-2.5.8-.6 1.9-.9 3.1-.9 1.4 0 2.5.5 3.5 1.4.9 1 1.4 2.2 1.4 3.7 0 .9-.2 1.8-.7 2.5z" class="st1"/><g id="g398" transform="translate(-13.211 -14.045)"><path id="path42" d="M40.101 145.365c-1 .3-2 .5-3.1.5-1.8 0-3.3-.3-4.6-1-1.3-.7-2.4-1.6-3.1-2.9-.7-1.3-1.1-2.7-1.1-4.5 0-1.7.4-3.1 1.2-4.4.8-1.3 1.8-2.2 3.1-2.9 1.3-.7 2.7-1 4.2-1 2.5 0 4.6.7 6.2 2l-2.1 2.7c-.5-.4-1-.7-1.7-1-.6-.3-1.3-.4-2-.4-1.3 0-2.4.5-3.2 1.4-.9.9-1.3 2.1-1.3 3.5s.5 2.6 1.4 3.5c.9.9 2.1 1.4 3.6 1.4 1.3 0 2.3-.4 3.2-1.1l2.1 2.6c-1 .8-1.8 1.2-2.8 1.6z" class="st1"/><path id="path44" d="M45.601 132.965c.8-1.3 1.8-2.3 3.2-3.1 1.4-.7 2.9-1.1 4.6-1.1 1.7 0 3.3.4 4.6 1.1 1.3.7 2.4 1.8 3.1 3 .7 1.3 1.1 2.7 1.1 4.3 0 1.6-.4 3-1.1 4.3-.7 1.3-1.8 2.3-3.1 3.1-1.3.8-2.9 1.1-4.6 1.1-1.7 0-3.2-.3-4.6-1-1.4-.7-2.4-1.7-3.2-3-.8-1.3-1.1-2.8-1.1-4.5-.1-1.4.3-2.9 1.1-4.2zm4.4 8c.9 1 2 1.4 3.3 1.4 1.4 0 2.5-.5 3.3-1.4.9-1 1.3-2.2 1.3-3.6 0-1.5-.4-2.7-1.3-3.6-.9-1-2-1.4-3.3-1.4-1.3 0-2.4.5-3.3 1.5-.9 1-1.3 2.2-1.3 3.6 0 1.3.4 2.5 1.3 3.5z" class="st1"/><path id="path46" d="M79.701 130.165c1 .9 1.5 2 1.5 3.4v11.8h-4.2v-10.2c0-.8-.3-1.5-.7-2-.4-.5-1.1-.7-2-.8-1.3 0-2.4.6-3.2 1.7-.8 1.1-1.3 2.5-1.3 4.3v7.1h-4.2v-15.9h3.8l.3 2.8c.6-1.1 1.4-2 2.5-2.6 1.1-.6 2.3-.9 3.8-.9 1.4 0 2.7.4 3.7 1.3z" class="st1"/><path id="path50" d="M92.701 122.565v7h4.1v3.3h-4.1v12.6h-4.2v-12.6h-2.7v-3.3h2.7v-7z" class="st1"/><path id="path52" d="M106.901 130.965c.8-.7 1.6-1.2 2.4-1.6.8-.4 1.5-.5 2-.5l-.2 4.2c-1.2-.1-2.2.1-3.1.6-.9.5-1.6 1.2-2.1 2.1-.5.9-.8 1.8-.8 2.8v6.8h-4.2v-15.9h3.8l.3 3.7c.5-.8 1.1-1.6 1.9-2.2z" class="st1"/><path id="path54" d="M132.201 129.565v15.9h-4.2v-2.3c-.6.7-1.4 1.3-2.3 1.9-.9.6-2.1.8-3.4.8-1.5 0-2.9-.3-4.1-1-1.2-.6-2.2-1.6-2.9-2.8-.7-1.3-1.1-2.8-1.1-4.5 0-1.7.4-3.2 1.1-4.6.7-1.3 1.7-2.3 2.9-3 1.2-.7 2.5-1.1 4-1.1 2.6 0 4.5 1 5.8 2.9l.3-2.1h3.9zm-5.9 11.9c.8-.6 1.3-1.4 1.7-2.5v-3.5c-.3-1-.9-1.8-1.7-2.4-.9-.6-1.9-.9-3-.9-1.3 0-2.5.5-3.4 1.4-.9.9-1.4 2.1-1.4 3.6 0 1 .2 1.8.7 2.6.5.8 1.1 1.4 1.8 1.8.8.5 1.6.7 2.4.7 1.2.1 2.1-.2 2.9-.8z" class="st1"/><path id="path56" d="M148.201 145.365c-1 .3-2 .5-3.1.5-1.8 0-3.3-.3-4.6-1-1.3-.7-2.4-1.6-3.1-2.9-.7-1.3-1.1-2.7-1.1-4.5 0-1.7.4-3.1 1.2-4.4.8-1.3 1.8-2.2 3.1-2.9 1.3-.7 2.7-1 4.2-1 2.5 0 4.6.7 6.2 2l-2.1 2.7c-.5-.4-1-.7-1.7-1-.6-.3-1.3-.4-2-.4-1.3 0-2.4.5-3.2 1.4-.9.9-1.3 2.1-1.3 3.5s.5 2.6 1.4 3.5c.9.9 2.1 1.4 3.6 1.4 1.3 0 2.3-.4 3.2-1.1l2.1 2.6c-.9.8-1.7 1.2-2.8 1.6z" class="st1"/><path id="path58" d="M160.101 122.565v7h4.1v3.3h-4.1v12.6h-4.2v-12.6h-2.7v-3.3h2.7v-7z" class="st1"/></g><path id="path60" d="m67.3 100.86 1.8 2.9c-1.4 1.3-3 2.1-4.4 2.6-1 .3-2.2.4-3.1.4-1.8 0-3.4-.4-4.8-1.1-1.3-.7-2.4-1.7-3.1-3-.7-1.3-1.1-2.7-1.1-4.4 0-1.6.4-3 1.2-4.3.8-1.3 1.9-2.3 3.3-3.1 1.4-.8 2.9-1.1 4.5-1.1 2.2 0 3.9.6 5.4 1.9 1.4 1.3 2.4 3 2.9 5.4l-12.2 4.1c.4.7 1 1.2 1.7 1.5.7.4 1.5.5 2.3.5 2.6 0 4.4-1.1 5.6-2.3zm-9.3-6.4c-.8.9-1.3 2.1-1.3 3.6v.6l8.3-3c-.3-.8-.8-1.4-1.4-1.9-.6-.5-1.4-.8-2.4-.8-1.2.1-2.3.6-3.2 1.5z" class="st1"/><path id="path62" d="m162.6 100.86 1.8 2.9c-1.4 1.3-3 2.1-4.4 2.6-1 .3-2.2.4-3.1.4-1.8 0-3.4-.4-4.8-1.1-1.3-.7-2.4-1.7-3.1-3-.7-1.3-1.1-2.7-1.1-4.4 0-1.6.4-3 1.2-4.3.8-1.3 1.9-2.3 3.3-3.1 1.4-.8 2.9-1.1 4.5-1.1 2.2 0 3.9.6 5.4 1.9 1.4 1.3 2.4 3 2.9 5.4l-12.2 4.1c.4.7 1 1.2 1.7 1.5.7.4 1.5.5 2.3.5 2.6 0 4.5-1.1 5.6-2.3zm-9.2-6.4c-.8.9-1.3 2.1-1.3 3.6v.6l8.3-3c-.3-.8-.8-1.4-1.4-1.9-.6-.5-1.4-.8-2.4-.8-1.3.1-2.4.6-3.2 1.5z" class="st1"/><g id="g76" transform="translate(-203.696 -361.736)"><path id="path66" d="M286 365.6h-.2c-.1 0 0 .2-.1.2l.3 65.7h.3c5.4 0 17.3-8.8 21.6-16.5 8.7-15.7 7.4-36 7.4-36l-12.3-5.9s-1-5.2-1-9.4c-.1-3.5-11.1 1.9-16 1.9z" style="fill:#d1d3d4"/><path id="path68" d="M285.8 434.9c-5.9 0-18.7-8.2-23.3-16.3-8.8-15.3-6.9-36.5-6.8-37.4v-.5l.3-.4c.5-.8 13.3-19.8 46-18.5l1.9.1v10.4c10.2 2.9 13.8 7.3 14 7.5l.3.4.1.5c.1.8 2.4 19.1-7.5 37.4-5.6 10.1-18.7 16.8-25 16.8zm-26.3-52.8c-.2 3.3-1.1 21.6 6.4 34.6 4.1 7.1 15.7 14.3 19.9 14.3 4.6 0 16.6-5.7 21.5-14.7 8.4-15.4 7.5-31.2 7.2-34.4-1.1-1-4.8-4.1-13-6.2l-1.5-.4v-9.6c-26.7-.4-38.6 13.9-40.5 16.4z" class="st1"/><circle id="circle70" cx="273" cy="395.1" r="3.6" class="st1"/><circle id="circle72" cx="298.8" cy="395.1" r="3.6" class="st1"/><path id="path74" d="M294.2 414.1c-.2-.2-.7-.4-1.5.1-.6.5-1.1.7-2.9.6-.4 0-1.1-.3-2.3-1.4v-3.7c1.6-.6 3.5-1.9 3.5-3.4v-.5c0-2.1-1.5-3.9-3.4-3.9H284c-1.9 0-3.4 1.7-3.4 3.9v.5c0 1.5 1.9 2.7 3.5 3.4v3.7c-1.2 1.1-1.9 1.4-2.3 1.4-1.8.2-2.3-.1-2.9-.6-.7-.6-1.2-.3-1.5-.1-.5.4-.7 1.2-.5 1.6.3.5.8 1.1 1.3 1.4 1.1.5 2.3.8 3.6.7 1.9-.1 3.2-1.1 3.8-1.4.1-.1.2-.1.2-.1s.1.1.2.1c.6.4 1.9 1.3 3.8 1.4h.6c1.1 0 2.1-.2 3-.7.6-.3 1.1-.8 1.3-1.4.2-.4 0-1.2-.5-1.6z" class="st1"/></g></svg>