<svg xmlns="http://www.w3.org/2000/svg" fill="none" viewBox="0 0 226 58"><path fill="#fff" d="M74.154 50.612a20.51 20.51 0 0 1-5.595-.765c-1.784-.532-3.22-1.216-4.309-2.05l1.911-4.24c1.043.765 2.282 1.379 3.719 1.842 1.436.464 2.872.695 4.309.695 1.598 0 2.78-.231 3.544-.695.765-.486 1.147-1.123 1.147-1.91 0-.58-.232-1.055-.695-1.426-.44-.394-1.02-.706-1.738-.938-.695-.232-1.645-.486-2.85-.764-1.852-.44-3.37-.88-4.551-1.32a7.528 7.528 0 0 1-3.059-2.12c-.834-.974-1.25-2.271-1.25-3.893 0-1.413.382-2.687 1.146-3.822.765-1.159 1.912-2.074 3.44-2.746 1.553-.671 3.44-1.007 5.665-1.007 1.552 0 3.07.185 4.552.556 1.483.37 2.78.903 3.892 1.598l-1.737 4.274c-2.247-1.274-4.495-1.91-6.742-1.91-1.575 0-2.745.254-3.51.764-.741.51-1.112 1.181-1.112 2.015 0 .834.429 1.46 1.286 1.877.88.394 2.212.787 3.996 1.181 1.854.44 3.371.88 4.553 1.32a7.404 7.404 0 0 1 3.023 2.086c.857.95 1.286 2.235 1.286 3.857 0 1.39-.394 2.664-1.182 3.823-.764 1.135-1.923 2.038-3.475 2.71-1.552.672-3.44 1.008-5.664 1.008ZM110.631 45.677v4.518H91.796V25.87h18.383v4.517H97.391v5.282h11.294v4.379H97.391v5.63h13.24ZM130.159 50.612c-2.479 0-4.726-.533-6.742-1.599-1.992-1.088-3.567-2.583-4.726-4.482-1.135-1.923-1.702-4.09-1.702-6.499 0-2.41.567-4.564 1.702-6.463a12.059 12.059 0 0 1 4.726-4.483c2.016-1.089 4.275-1.633 6.777-1.633 2.108 0 4.008.37 5.699 1.112 1.714.741 3.15 1.807 4.309 3.197l-3.614 3.336c-1.645-1.9-3.684-2.85-6.116-2.85-1.506 0-2.85.336-4.031 1.008a7.032 7.032 0 0 0-2.78 2.745c-.649 1.182-.973 2.526-.973 4.031 0 1.506.324 2.85.973 4.031a7.274 7.274 0 0 0 2.78 2.78c1.181.649 2.525.973 4.031.973 2.432 0 4.471-.961 6.116-2.884l3.614 3.336a11.272 11.272 0 0 1-4.309 3.232c-1.715.741-3.626 1.112-5.734 1.112ZM158.082 50.612c-3.475 0-6.185-.962-8.131-2.884-1.923-1.923-2.885-4.669-2.885-8.236V25.87h5.63v13.413c0 4.356 1.807 6.533 5.421 6.533 1.761 0 3.104-.52 4.031-1.563.927-1.066 1.39-2.722 1.39-4.97V25.87h5.56v13.622c0 3.568-.973 6.313-2.919 8.236-1.923 1.922-4.622 2.884-8.097 2.884ZM193.635 50.195l-4.692-6.776h-5.177v6.776h-5.63V25.87h10.529c2.155 0 4.02.359 5.595 1.077 1.599.718 2.827 1.738 3.684 3.058.857 1.32 1.286 2.884 1.286 4.691s-.441 3.371-1.321 4.692c-.857 1.297-2.085 2.293-3.684 2.988l5.456 7.819h-6.046Zm-.105-15.499c0-1.367-.44-2.41-1.32-3.127-.88-.742-2.166-1.112-3.857-1.112h-4.587v8.479h4.587c1.691 0 2.977-.37 3.857-1.112.88-.741 1.32-1.784 1.32-3.128ZM225.999 45.677v4.518h-18.834V25.87h18.383v4.517H212.76v5.282h11.293v4.379H212.76v5.63h13.239ZM69.187 20.794a5.454 5.454 0 0 1-2.192-.436 4.259 4.259 0 0 1-1.623-1.271l1.506-1.807c.636.859 1.36 1.288 2.175 1.288 1.104 0 1.657-.647 1.657-1.94V8.88h2.693v7.596c0 1.439-.357 2.52-1.07 3.246-.715.714-1.763 1.07-3.146 1.07ZM85.651 18.418v2.175h-9.069V8.88h8.852v2.175h-6.158v2.543h5.438v2.108h-5.438v2.71h6.375ZM90.736 11.09h-3.748V8.88h10.206v2.21h-3.748v9.503h-2.71v-9.504ZM102.921 20.794a9.876 9.876 0 0 1-2.694-.369c-.859-.256-1.55-.585-2.074-.987l.92-2.041c.502.368 1.099.664 1.79.887a6.726 6.726 0 0 0 2.075.334c.77 0 1.338-.111 1.706-.334.369-.235.553-.541.553-.92a.84.84 0 0 0-.335-.687 2.294 2.294 0 0 0-.837-.451 15.717 15.717 0 0 0-1.372-.368c-.892-.212-1.623-.424-2.191-.636a3.622 3.622 0 0 1-1.473-1.02c-.401-.47-.602-1.094-.602-1.875 0-.68.184-1.294.552-1.84.368-.558.92-.998 1.656-1.322.748-.323 1.657-.485 2.728-.485.747 0 1.478.09 2.192.268a6.474 6.474 0 0 1 1.873.77l-.836 2.057c-1.082-.613-2.164-.92-3.246-.92-.759 0-1.322.123-1.69.368-.357.245-.535.569-.535.97 0 .402.206.703.619.904.424.19 1.065.38 1.924.569.892.212 1.623.424 2.192.636a3.557 3.557 0 0 1 1.455 1.004c.413.457.619 1.076.619 1.857 0 .669-.189 1.282-.568 1.84-.369.547-.926.982-1.674 1.305-.747.324-1.656.486-2.727.486ZM112.507 11.09h-3.748V8.88h10.207v2.21h-3.748v9.503h-2.711v-9.504ZM128.051 18.083h-5.438l-1.037 2.51h-2.778l5.221-11.712h2.677l5.237 11.712h-2.845l-1.037-2.51Zm-.853-2.058-1.858-4.484-1.857 4.484h3.715ZM139.092 20.794c-1.194 0-2.276-.257-3.246-.77a5.962 5.962 0 0 1-2.276-2.159c-.546-.925-.82-1.968-.82-3.128 0-1.16.274-2.198.82-3.112a5.801 5.801 0 0 1 2.276-2.159c.97-.524 2.058-.786 3.262-.786 1.015 0 1.93.178 2.744.535.826.357 1.517.87 2.075 1.54l-1.74 1.606c-.792-.915-1.774-1.372-2.945-1.372-.725 0-1.372.161-1.941.485a3.384 3.384 0 0 0-1.338 1.322c-.313.569-.469 1.216-.469 1.94 0 .726.156 1.373.469 1.941a3.501 3.501 0 0 0 1.338 1.34c.569.311 1.216.468 1.941.468 1.171 0 2.153-.463 2.945-1.39l1.74 1.607a5.422 5.422 0 0 1-2.075 1.556c-.825.357-1.745.536-2.76.536ZM150.526 15.992l-1.573 1.64v2.96h-2.694V8.882h2.694v5.47l5.187-5.47h3.012l-4.853 5.22 5.137 6.492h-3.162l-3.748-4.601Z"/><path fill="#6326D9" d="M48.907 2.506A122.003 122.003 0 0 0 26.387 0C18.82.135 11.281.973 3.867 2.504a4.79 4.79 0 0 0-2.776 1.67A4.842 4.842 0 0 0 0 7.237v14.474a37.722 37.722 0 0 0 .264 4.48l2.621-2.64a2.071 2.071 0 0 1 1.466-.612 2.06 2.06 0 0 1 1.466.612 2.084 2.084 0 0 1 .608 1.475 2.095 2.095 0 0 1-.608 1.474l-4.605 4.641c.404 1.52.91 3.01 1.513 4.462l14.849-14.936a2.072 2.072 0 0 1 1.466-.61 2.063 2.063 0 0 1 1.466.61 2.088 2.088 0 0 1 .45 2.273 2.088 2.088 0 0 1-.45.677L4.659 39.557a38.425 38.425 0 0 0 2.516 3.87l24.238-24.383a2.067 2.067 0 0 1 2.932 0 2.092 2.092 0 0 1 0 2.95L9.821 46.665c.979 1.08 2.01 2.11 3.088 3.09L29.8 32.758a2.072 2.072 0 0 1 1.466-.61 2.063 2.063 0 0 1 1.466.61 2.087 2.087 0 0 1 .607 1.475 2.096 2.096 0 0 1-.607 1.475L16.121 52.422a49.164 49.164 0 0 0 3.729 2.581l7.072-7.121a2.074 2.074 0 0 1 1.466-.611 2.062 2.062 0 0 1 1.466.61 2.085 2.085 0 0 1 .608 1.475 2.096 2.096 0 0 1-.608 1.475l-6.239 6.276c.272.131.419.195.419.195h.008a4.76 4.76 0 0 0 4.681 0h.006s24.04-10.49 24.04-35.582V7.237a4.843 4.843 0 0 0-1.09-3.06 4.79 4.79 0 0 0-2.772-1.671Z"/></svg>