<svg xmlns="http://www.w3.org/2000/svg" fill="none" viewBox="0 0 145 32"><path fill="#3d3e62" d="M81.88 16.788a3.804 3.804 0 0 0-1.32-2.521 3.757 3.757 0 0 0-2.692-.885 3.996 3.996 0 0 0-2.754.886 4.045 4.045 0 0 0-1.447 2.52h8.214Zm3.746 2.692H73.587a4.043 4.043 0 0 0 1.541 2.55c.819.62 1.842.903 2.86.789a5.123 5.123 0 0 0 2.323-.505 5.157 5.157 0 0 0 1.85-1.501l2.583 1.965a8.216 8.216 0 0 1-3.046 2.662 8.156 8.156 0 0 1-3.937.879 8.107 8.107 0 0 1-5.751-2.397 8.212 8.212 0 0 1-2.383-5.788c0-2.171.857-4.253 2.383-5.788a8.107 8.107 0 0 1 5.75-2.397 7.594 7.594 0 0 1 3.091.546c.982.396 1.87.992 2.612 1.752a7.693 7.693 0 0 1 1.69 2.66c.376.994.541 2.057.487 3.12v1.493M104.06 17.191v8.724h-3.839v-8.468c0-2.49-1.498-3.823-3.21-3.823a3.724 3.724 0 0 0-2.882 1.12 3.772 3.772 0 0 0-1.065 2.919v8.265h-3.84V10.352h3.84v2.464a5.37 5.37 0 0 1 2-2.114 5.325 5.325 0 0 1 2.803-.753c4.013 0 6.193 2.692 6.193 7.242ZM119.899 18.12a4.58 4.58 0 0 0-1.31-3.208 4.52 4.52 0 0 0-3.172-1.355 4.534 4.534 0 0 0-3.216 1.34 4.592 4.592 0 0 0-1.332 3.237c0 1.214.479 2.378 1.332 3.236a4.534 4.534 0 0 0 3.216 1.34 4.495 4.495 0 0 0 3.164-1.37 4.55 4.55 0 0 0 1.277-3.22h.041Zm-.041-7.768h3.853v15.563h-3.853v-2.437a6.205 6.205 0 0 1-2.307 2.123 6.162 6.162 0 0 1-3.043.718c-4.134 0-7.451-3.366-7.451-8.199s3.183-8.171 7.558-8.171a6.083 6.083 0 0 1 2.916.628 6.123 6.123 0 0 1 2.274 1.943l.053-2.168ZM139.59 5.318a2.524 2.524 0 0 1 1.434-2.428 2.49 2.49 0 0 1 2.772.442 2.53 2.53 0 0 1-.291 3.912c-.413.285-.9.44-1.401.443a2.41 2.41 0 0 1-1.749-.656 2.427 2.427 0 0 1-.553-.78 2.428 2.428 0 0 1-.212-.933Zm4.441 5.034v15.563h-3.853V13.422h-6.514v12.493h-3.853V13.422h-2.943v-3.07h2.943v-.255c0-4.456 2.127-7.162 6.434-7.162h.99V6.57h-.562a2.66 2.66 0 0 0-2.287.787 2.703 2.703 0 0 0-.722 2.322v.714l10.367-.04ZM66.163 4.039a50.137 50.137 0 0 1-7.384 15.36 50.139 50.139 0 0 1-7.33-15.36h-4.282a53.99 53.99 0 0 0 9.043 18.685 46.536 46.536 0 0 0 2.569 3.191 52.673 52.673 0 0 0 2.568-3.19A53.991 53.991 0 0 0 70.39 4.038h-4.227Z"/><path fill="#FF6333" d="M10.153 6.449a45.386 45.386 0 0 0 7.853 13.69l1.15 1.347 1.164-1.346c3.4-4.067 6.066-8.7 7.879-13.692h-3.906a38.284 38.284 0 0 1-5.097 9.02 37.756 37.756 0 0 1-5.083-9.02h-3.96Z"/><path fill="#FF6333" d="M26.26 0c-.095.229-.977 2.854-1.446 3.918h7.505a66.271 66.271 0 0 1-11.397 19.79L19.25 25.7l-1.672-1.993A66.268 66.268 0 0 1 6.18 3.877h7.143C12.855 2.814 11.986.19 11.88-.04H0a97.32 97.32 0 0 0 16.748 29.065l2.448 2.921 2.461-2.921A97.443 97.443 0 0 0 38.392-.04L26.26 0Z"/></svg>