<svg xmlns="http://www.w3.org/2000/svg" viewBox="0 0 200 200"><defs><linearGradient id="b" x1=".5" x2=".5" y2="1" gradientUnits="objectBoundingBox"><stop offset="0" stop-color="#70d0d3"/><stop offset="1" stop-color="#057b80"/></linearGradient><clipPath id="a"><path d="M0 0h200v200H0z"/></clipPath></defs><g clip-path="url(#a)"><path fill="rgba(18,18,18,0)" d="M0 0h200v200H0z"/><path fill="#1f5355" d="M136.211 110.575c-4.834 5.19-14.265 4.687-20.471-.681s-7.461-13.067-3.285-17.561c2.192-2.2 14.247-13.16 23.474-25.719 9.743-12.158 16.658-25.91 20.518-24.416 3.765 1.273 3.776 18.707-1.929 34.769-5.043 16.319-15.803 31.274-18.307 33.608Z" data-name="Path 8"/><path fill="#23696c" d="M124.84 87.657c4.838-1.6 30.065-13.413 30.691-13.752q-.473 1.534-1.014 3.061c-5.044 16.323-15.8 31.275-18.308 33.608-4.834 5.19-14.265 4.687-20.471-.681a17.085 17.085 0 0 1-4.884-6.764c.237-1.159.646-11.068 13.986-15.472Z" data-name="Path 9"/><path fill="#277f82" d="M140.735 124.258c-6.525 2.779-14.939-1.51-18.43-8.936s-1.51-14.971 4.13-17.382c2.9-1.116 18.364-6.239 31.9-13.969C172.173 76.819 184.078 67.06 187 69.993c2.924 2.693-4.146 18.628-15.883 30.99-11.241 12.866-27.145 22.16-30.382 23.275Z" data-name="Path 10"/><path fill="#2f989c" d="M169.138 87.744a78.842 78.842 0 0 1-2.465 6.161c-6.37 15.852-18.324 29.868-21.013 31.987-5.244 4.775-14.6 3.5-20.345-2.363s-6.359-13.638-1.828-17.773c.45-.382 43.253-16.85 45.651-18.012Z" data-name="Path 11"/><path fill="#36b1b5" d="M135.564 136.577c-7.091-.109-13.039-7.444-13.216-15.647-.18-8.221 4.7-14.295 10.829-14.21 3.1.155 19.316 1.752 34.82.18 15.553-.919 30.394-5.006 31.872-1.14 1.579 3.647-11.35 15.342-27.093 21.875-15.492 7.198-33.801 9.236-37.212 8.942Z" data-name="Path 12"/><path fill="#1f5355" d="M63.791 110.575c4.834 5.19 14.265 4.687 20.471-.681s7.461-13.067 3.285-17.561c-2.192-2.2-14.247-13.16-23.474-25.719-9.743-12.158-16.658-25.91-20.518-24.416-3.765 1.273-3.777 18.707 1.928 34.769 5.044 16.319 15.804 31.274 18.308 33.608Z" data-name="Path 13"/><path fill="#23696c" d="M75.159 87.657c-4.838-1.6-30.065-13.413-30.691-13.752q.473 1.534 1.014 3.061c5.043 16.323 15.8 31.275 18.308 33.608 4.834 5.19 14.265 4.687 20.471-.681a17.087 17.087 0 0 0 4.885-6.764c-.238-1.159-.646-11.068-13.987-15.472Z" data-name="Path 14"/><path fill="#277f82" d="M59.266 124.258c6.525 2.779 14.939-1.51 18.43-8.936s1.51-14.971-4.13-17.382c-2.895-1.116-18.364-6.239-31.9-13.969C27.828 76.819 15.923 67.06 13 69.993c-2.92 2.693 4.15 18.628 15.887 30.993 11.238 12.863 27.143 22.157 30.379 23.272Z" data-name="Path 15"/><path fill="#2f989c" d="M30.4 87.744a78.842 78.842 0 0 0 2.465 6.161c6.37 15.852 18.325 29.867 21.013 31.987 5.245 4.774 14.6 3.5 20.345-2.364s6.359-13.638 1.828-17.773C75.6 105.374 32.8 88.907 30.4 87.744Z" data-name="Path 16"/><path fill="#36b1b5" d="M64.436 136.577c7.091-.109 13.04-7.444 13.217-15.647.18-8.221-4.7-14.295-10.83-14.21-3.1.155-19.316 1.752-34.82.18-15.554-.919-30.394-5.006-31.873-1.14-1.579 3.647 11.35 15.342 27.093 21.875 15.495 7.198 33.803 9.236 37.213 8.942Z" data-name="Path 17"/><path fill="url(#b)" d="M149.876 126.633c0 27.546-22.33 31.195-49.876 31.195s-49.876-3.649-49.876-31.195 22.33-53.4 49.876-53.4 49.876 25.855 49.876 53.4Z" data-name="Path 18" transform="translate(0 .086)"/><path fill="#aaf9fc" d="M90.461 86.735a29.543 29.543 0 0 0-11.1 6.777 3.061 3.061 0 0 1-4.274-4.384 35.633 35.633 0 0 1 13.381-8.181 3.059 3.059 0 0 1 3.892 1.9c.74 2.147-1.46 3.739-1.899 3.888Z" data-name="Path 19"/><path fill="#121212" d="M68.979 120.365a5.639 5.639 0 1 0-5.639-5.639 5.639 5.639 0 0 0 5.639 5.639Z" data-name="Path 20"/><path fill="#121212" d="M131.722 120.365a5.639 5.639 0 1 0-5.639-5.639 5.639 5.639 0 0 0 5.639 5.639Z" data-name="Path 21"/><path fill="#121212" d="M99.449 137.809a32.961 32.961 0 0 0 10.657-1.664 31.061 31.061 0 0 0 9.083-4.9l2.024 2.968a34.85 34.85 0 0 1-9.848 5.621 32.485 32.485 0 0 1-11.916 2.152 32.842 32.842 0 0 1-11.961-2.158 35.008 35.008 0 0 1-9.8-5.621l2.023-2.968a31.067 31.067 0 0 0 9.083 4.9 32.964 32.964 0 0 0 10.655 1.67Z" data-name="Path 22"/></g></svg>