<svg xmlns="http://www.w3.org/2000/svg" id="RGB_Full_Color_Logos" data-name="RGB Full Color Logos" viewBox="0 0 246.183 293.111"><path d="M1200.958 0c80.157 0 120.461 42.888 120.461 42.888s4.609 31.746 1.667 95.667c-4.443 96.56-122.1 154.55-122.11 154.556s-117.667-57.996-122.11-154.556c-2.942-63.921 1.667-95.667 1.667-95.667S1120.8 0 1200.958 0z" transform="translate(-1077.884)" fill="#ed2e26"/><path d="M1140.809 126.93c0-34.143 26.99-61.92 60.167-61.92a60.285 60.285 0 0 1 60.216 60.218c0 26.507-22.786 48.315-40.347 59.522 6.812 3.887 21.848 7.97 36.245 9.29a86.906 86.906 0 0 0 33.843-68.812 89.957 89.957 0 1 0-179.913 0c0 29.957 12.473 56.57 36.072 76.964 22.062 19.066 54.336 31.791 91.081 37.817 7.96-4.4 21.576-17.387 26.681-24.99-30.688-3.948-59.732-11.431-79.202-21.645-29.755-15.609-44.843-37.964-44.843-66.445z" transform="translate(-1077.884)" fill="#fff"/></svg>