<svg xmlns="http://www.w3.org/2000/svg" viewBox="0 0 1026.546 224.489"><g fill="#dc4b40"><path d="M256.056 82.815h-17.387l-2.75-11.975c-1.774-1.42-4.006-2.602-6.697-3.549-2.692-.945-5.663-1.419-8.915-1.419-4.554 0-8.16 1.02-10.822 3.06-2.66 2.04-3.992 4.6-3.992 7.674 0 2.898 1.272 5.308 3.815 7.23 2.542 1.922 7.628 3.622 15.257 5.1 11.887 2.366 20.698 5.84 26.434 10.423 5.736 4.583 8.605 10.897 8.605 18.939 0 8.635-3.712 15.687-11.133 21.156-7.422 5.47-17.195 8.206-29.317 8.206-7.393 0-14.179-1.08-20.358-3.238-6.18-2.158-11.664-5.248-16.455-9.27l-.266-21.556h18.096l3.548 12.508c1.538 1.301 3.637 2.262 6.298 2.883 2.662.62 5.44.931 8.339.931 5.262 0 9.27-.945 12.02-2.838 2.75-1.892 4.124-4.465 4.124-7.718 0-2.839-1.39-5.292-4.169-7.362-2.78-2.07-7.895-3.904-15.346-5.5-11.296-2.307-19.826-5.722-25.592-10.246-5.765-4.524-8.648-10.689-8.648-18.495 0-8.042 3.31-14.976 9.935-20.802 6.622-5.824 16.055-8.737 28.297-8.737 7.451 0 14.503 1.006 21.156 3.016 6.653 2.01 11.871 4.583 15.656 7.717l.267 23.862ZM273.658 65.429V49.816h37.877l1.065 12.686c3.074-4.613 6.933-8.176 11.576-10.69 4.642-2.513 10.008-3.77 16.1-3.77 6.15 0 11.413 1.361 15.79 4.08 4.375 2.722 7.687 6.831 9.935 12.331 2.956-5.145 6.8-9.166 11.531-12.064 4.73-2.897 10.29-4.347 16.677-4.347 9.46 0 16.927 3.269 22.398 9.802 5.47 6.536 8.205 16.486 8.205 29.85v39.918l12.508 2.661v15.524h-49.587v-15.524l11.177-2.661V87.605c0-7.274-1.183-12.33-3.548-15.169-2.366-2.838-5.885-4.257-10.556-4.257-3.667 0-6.846.813-9.536 2.439-2.691 1.627-4.834 3.89-6.43 6.786 0 1.124.028 2.085.088 2.883.058.798.089 1.612.089 2.44v44.885l10.467 2.661v15.524h-46.748v-15.524l10.467-2.661V87.605c0-7.096-1.183-12.108-3.548-15.036-2.366-2.927-5.914-4.39-10.645-4.39-3.49 0-6.55.665-9.18 1.995a17.606 17.606 0 0 0-6.52 5.633v51.805l11.176 2.661v15.524H274.99v-15.524l12.507-2.661V68.09l-13.838-2.661ZM506.776 145.797a46.836 46.836 0 0 1-1.863-4.924 38.715 38.715 0 0 1-1.242-5.1c-3.075 3.548-6.816 6.417-11.22 8.604-4.407 2.187-9.448 3.283-15.125 3.283-9.403 0-16.87-2.558-22.398-7.674-5.53-5.114-8.294-12.077-8.294-20.89 0-8.988 3.606-15.937 10.822-20.846 7.214-4.908 17.8-7.362 31.756-7.362h13.217v-9.404c0-4.612-1.33-8.19-3.991-10.733-2.661-2.542-6.595-3.814-11.798-3.814-2.958 0-5.588.34-7.895 1.02-2.306.68-4.169 1.494-5.588 2.44l-1.686 10.29h-19.515l.089-21.29c4.73-3.194 10.157-5.884 16.277-8.073 6.121-2.187 12.788-3.282 20.003-3.282 11.887 0 21.54 2.914 28.963 8.738 7.42 5.825 11.132 14.12 11.132 24.882v39.652c0 1.479.014 2.869.045 4.169.029 1.301.133 2.543.31 3.725l7.895 1.065v15.524h-29.894Zm-22.442-17.298c3.903 0 7.45-.843 10.644-2.528 3.194-1.686 5.677-3.8 7.451-6.343v-14.636h-13.217c-5.5 0-9.668 1.286-12.507 3.859-2.839 2.572-4.258 5.663-4.258 9.27 0 3.252 1.05 5.796 3.15 7.628 2.098 1.834 5.011 2.75 8.737 2.75ZM548.77 23.027V7.415h39.74v120.197l12.508 2.661v15.524H550.1v-15.524l12.507-2.661V25.688l-13.838-2.661ZM613.359 23.027V7.415h39.74v120.197l12.507 2.661v15.524H614.69v-15.524l12.508-2.661V25.688l-13.838-2.661ZM750.725 82.815H733.34l-2.75-11.975c-1.774-1.42-4.007-2.602-6.697-3.549-2.692-.945-5.663-1.419-8.915-1.419-4.555 0-8.161 1.02-10.822 3.06-2.661 2.04-3.992 4.6-3.992 7.674 0 2.898 1.27 5.308 3.815 7.23 2.541 1.922 7.628 3.622 15.257 5.1 11.886 2.366 20.697 5.84 26.434 10.423 5.735 4.583 8.604 10.897 8.604 18.939 0 8.635-3.711 15.687-11.132 21.156-7.422 5.47-17.195 8.206-29.317 8.206-7.393 0-14.18-1.08-20.358-3.238-6.18-2.158-11.665-5.248-16.455-9.27l-.266-21.556h18.096l3.548 12.508c1.537 1.301 3.637 2.262 6.298 2.883 2.661.62 5.44.931 8.338.931 5.263 0 9.27-.945 12.02-2.838 2.75-1.892 4.125-4.465 4.125-7.718 0-2.839-1.39-5.292-4.17-7.362-2.78-2.07-7.894-3.904-15.345-5.5-11.297-2.307-19.826-5.722-25.592-10.246-5.766-4.524-8.649-10.689-8.649-18.495 0-8.042 3.311-14.976 9.935-20.802 6.623-5.824 16.056-8.737 28.297-8.737 7.452 0 14.504 1.006 21.157 3.016 6.652 2.01 11.87 4.583 15.656 7.717l.266 23.862ZM800.674 26.31v23.506h16.854v18.185h-16.854v48.877c0 3.726.768 6.387 2.306 7.984 1.537 1.597 3.607 2.395 6.21 2.395 1.774 0 3.326-.074 4.657-.222 1.33-.147 2.823-.399 4.48-.754l2.217 18.717a62.185 62.185 0 0 1-8.604 1.996c-2.839.444-5.915.666-9.226.666-8.93 0-15.805-2.454-20.624-7.363-4.82-4.908-7.23-12.685-7.23-23.33V68.001h-14.103V49.816h14.104V26.31h25.813ZM872.71 147.66c-13.837 0-24.896-4.436-33.175-13.307-8.28-8.87-12.419-20.136-12.419-33.797v-3.548c0-14.251 3.917-25.99 11.753-35.216 7.836-9.226 18.347-13.808 31.535-13.75 12.951 0 23.004 3.903 30.16 11.71 7.155 7.806 10.733 18.362 10.733 31.668v14.104h-57.303l-.178.532c.473 6.329 2.587 11.532 6.343 15.612 3.755 4.081 8.855 6.121 15.302 6.121 5.735 0 10.496-.576 14.281-1.73 3.784-1.153 7.924-2.971 12.419-5.455l7.008 15.967c-3.963 3.135-9.093 5.766-15.39 7.895-6.299 2.129-13.322 3.194-21.068 3.194ZM870.405 68c-4.79 0-8.575 1.834-11.354 5.5-2.78 3.667-4.495 8.487-5.145 14.46l.266.442h31.757v-2.306c0-5.5-1.286-9.89-3.859-13.173-2.572-3.282-6.462-4.923-11.665-4.923ZM918.136 65.429V49.816h37.61l1.242 11.177c2.84-4.138 6.239-7.332 10.202-9.58 3.96-2.247 8.573-3.37 13.838-3.37 11.886 0 21.111 4.642 27.676 13.926 6.564 9.285 9.846 21.498 9.846 36.636v1.863c0 14.193-3.282 25.607-9.846 34.24-6.565 8.635-15.732 12.952-27.5 12.952-5.026 0-9.49-.932-13.394-2.795-3.903-1.863-7.244-4.597-10.023-8.205v27.765l12.507 2.661v15.612h-50.828v-15.612l12.508-2.661V68.09l-13.838-2.661Zm74.512 33.176c0-9.048-1.508-16.38-4.524-22-3.016-5.617-7.629-8.426-13.838-8.426-3.903 0-7.23.798-9.98 2.395-2.75 1.596-4.923 3.874-6.52 6.83v42.047c1.597 2.72 3.77 4.79 6.52 6.21 2.75 1.419 6.135 2.128 10.157 2.128 6.268 0 10.867-2.453 13.794-7.362 2.927-4.908 4.391-11.561 4.391-19.96v-1.862ZM52.07 22.734l-.01.016.026-.036-.016.02Z"/><path d="m125.563 44.775-7.406-4.285a3.306 3.306 0 0 0-4.542 1.251l-2.131 3.82-.724 1.255-6.948 12.033a2.838 2.838 0 0 1-3.877 1.039L73.161 44.43a2.838 2.838 0 0 1-1.038-3.878l3.477-6.017h.022l5.065-8.806.141-.244v-.003l.086-.147.002.001 1.626-2.817c.014-.024.01-.051.023-.075.144-.281.207-.578.26-.874a2.276 2.276 0 0 0-1.098-2.157c-.009-.005-.014-.015-.022-.02l-.058-.033s-2.814-1.69-3.278-1.86c-.674-.31-1.773-.73-3.481-1.2-10.233-2.703-16.838.857-20.216 3.753-.029.021-.06.035-.089.057-.21.16-.4.356-.601.531-.473.41-.913.869-1.326 1.374-.19.233-.395.443-.57.699l-.026.036a61.854 61.854 0 0 0-1.984 3.122c-1.49 2.502-2.785 5.185-3.348 7.994-.356 1.775-.454 3.59-.09 5.439 1.567 7.974 10.684 14.81 13.876 16.657L95.168 76.15c3.369 1.887 22.611 13.443 29.982 34.522.186.533.684.896 1.249.896.735 0 1.331-.597 1.331-1.332v-43.31l.012.008V48.55c0-1.557-.83-2.996-2.179-3.776ZM84.221 140.265l.01-.016-.026.036c.005-.008.011-.013.016-.02Z"/><path d="m10.728 118.224 7.406 4.285a3.306 3.306 0 0 0 4.543-1.251l2.13-3.82.725-1.255 6.948-12.033a2.838 2.838 0 0 1 3.876-1.039l26.774 15.458a2.838 2.838 0 0 1 1.039 3.878l-3.477 6.017h-.023l-5.064 8.806-.141.244v.002l-.086.148-.002-.002-1.626 2.818c-.014.024-.01.05-.023.075-.145.28-.207.578-.261.874a2.276 2.276 0 0 0 1.099 2.157c.009.005.013.014.022.02l.058.033s2.814 1.689 3.278 1.859c.673.31 1.772.73 3.48 1.2 10.234 2.704 16.839-.857 20.217-3.752.028-.022.06-.036.089-.057.21-.16.4-.356.601-.532.472-.41.913-.868 1.325-1.373.19-.233.395-.444.57-.7l.027-.035a61.854 61.854 0 0 0 1.984-3.123c1.49-2.501 2.785-5.184 3.348-7.993.355-1.775.454-3.59.09-5.439-1.568-7.974-10.685-14.81-13.877-16.657L41.123 86.849c-3.368-1.887-22.61-13.443-29.98-34.522a1.327 1.327 0 0 0-1.25-.896c-.735 0-1.332.596-1.332 1.332v43.31l-.01-.008v18.382c0 1.558.83 2.997 2.177 3.777Z"/></g><g fill="#dc4b40"><path d="M41.625 216.5H8.127v-7.177l18.617-26.44H8.568v-9.38h32.587v7.146l-18.617 26.469h19.087v9.382ZM79.323 216.5H53.795v-42.998h25.528v9.323H65.412v6.764h12.882v9.323H65.412v8.117h13.911v9.47ZM104.492 200.853V216.5H92.875v-42.998h14.088c11.685 0 17.528 4.235 17.528 12.705 0 4.98-2.432 8.833-7.294 11.558l12.53 18.735H116.55l-9.118-15.647h-2.941Zm0-8.734h2.177c4.058 0 6.088-1.795 6.088-5.383 0-2.96-1.99-4.44-5.971-4.44h-2.294v9.823ZM179.894 194.942c0 7.235-1.774 12.734-5.323 16.499s-8.745 5.647-15.587 5.647c-6.745 0-11.917-1.892-15.514-5.676-3.598-3.784-5.397-9.294-5.397-16.53 0-7.155 1.79-12.62 5.367-16.395s8.78-5.662 15.603-5.662c6.843 0 12.028 1.873 15.557 5.618s5.294 9.245 5.294 16.499Zm-29.587 0c0 8.314 2.893 12.47 8.677 12.47 2.94 0 5.122-1.01 6.543-3.03 1.422-2.019 2.133-5.166 2.133-9.44 0-4.294-.72-7.465-2.162-9.514-1.44-2.049-3.593-3.074-6.455-3.074-5.823 0-8.736 4.196-8.736 12.588ZM234.321 216.5h-11.617v-33.498h-10.5v-9.5h32.588v9.5h-10.47V216.5ZM268.578 200.853V216.5h-11.617v-42.998h14.088c11.685 0 17.528 4.235 17.528 12.705 0 4.98-2.432 8.833-7.294 11.558l12.53 18.735h-13.176l-9.118-15.647h-2.941Zm0-8.734h2.177c4.058 0 6.088-1.795 6.088-5.383 0-2.96-1.99-4.44-5.971-4.44h-2.294v9.823ZM340.305 173.502v25.88c0 5.628-1.594 9.986-4.78 13.074-3.186 3.088-7.78 4.632-13.78 4.632-5.861 0-10.366-1.5-13.513-4.5s-4.72-7.313-4.72-12.94v-26.146h11.676v25.234c0 3.039.569 5.245 1.705 6.617 1.137 1.373 2.814 2.059 5.03 2.059 2.372 0 4.092-.681 5.16-2.044 1.07-1.363 1.604-3.593 1.604-6.691v-25.175h11.618ZM383.472 203.442c0 2.666-.675 5.034-2.029 7.102-1.352 2.069-3.304 3.676-5.852 4.823s-5.54 1.721-8.97 1.721c-2.863 0-5.265-.202-7.206-.603-1.94-.402-3.96-1.103-6.059-2.103V204.03a34.596 34.596 0 0 0 6.912 2.662c2.392.637 4.588.955 6.588.955 1.725 0 2.99-.299 3.794-.897.804-.598 1.205-1.368 1.205-2.308 0-.589-.16-1.104-.484-1.544-.324-.442-.844-.888-1.56-1.339-.715-.45-2.622-1.372-5.72-2.764-2.804-1.275-4.907-2.51-6.308-3.706-1.402-1.196-2.441-2.568-3.117-4.118-.677-1.548-1.015-3.382-1.015-5.5 0-3.96 1.44-7.048 4.323-9.263 2.882-2.216 6.842-3.324 11.882-3.324 4.45 0 8.99 1.03 13.616 3.088l-3.558 8.97c-4.02-1.842-7.49-2.764-10.411-2.764-1.51 0-2.608.264-3.294.794s-1.03 1.186-1.03 1.97c0 .844.437 1.599 1.31 2.265s3.24 1.882 7.102 3.647c3.706 1.667 6.279 3.456 7.72 5.367s2.161 4.32 2.161 7.22ZM415.112 216.5h-11.617v-33.498h-10.5v-9.5h32.588v9.5h-10.47V216.5ZM487.538 203.442c0 2.666-.676 5.034-2.03 7.102-1.352 2.069-3.303 3.676-5.852 4.823s-5.539 1.721-8.97 1.721c-2.863 0-5.264-.202-7.206-.603-1.94-.402-3.96-1.103-6.058-2.103V204.03a34.596 34.596 0 0 0 6.912 2.662c2.391.637 4.588.955 6.588.955 1.724 0 2.989-.299 3.794-.897.803-.598 1.205-1.368 1.205-2.308 0-.589-.161-1.104-.485-1.544-.324-.442-.843-.888-1.56-1.339-.715-.45-2.621-1.372-5.719-2.764-2.805-1.275-4.907-2.51-6.309-3.706-1.402-1.196-2.44-2.568-3.117-4.118-.676-1.548-1.014-3.382-1.014-5.5 0-3.96 1.44-7.048 4.323-9.263 2.882-2.216 6.842-3.324 11.882-3.324 4.45 0 8.989 1.03 13.616 3.088l-3.559 8.97c-4.02-1.842-7.489-2.764-10.41-2.764-1.51 0-2.608.264-3.295.794s-1.029 1.186-1.029 1.97c0 .844.436 1.599 1.309 2.265s3.24 1.882 7.102 3.647c3.706 1.667 6.28 3.456 7.72 5.367s2.162 4.32 2.162 7.22ZM519.178 216.5H507.56v-33.498h-10.499v-9.5h32.587v9.5h-10.47V216.5ZM568.2 216.5l-2.12-8.059h-13.969l-2.177 8.059h-12.763l14.028-43.175h15.5l14.205 43.175H568.2Zm-4.53-17.588-1.854-7.058a259.942 259.942 0 0 1-1.573-6.088c-.617-2.49-1.024-4.274-1.22-5.353-.176 1-.525 2.647-1.045 4.941s-1.672 6.814-3.455 13.558h9.147ZM603.191 200.853V216.5h-11.617v-42.998h14.088c11.685 0 17.528 4.235 17.528 12.705 0 4.98-2.431 8.833-7.294 11.558l12.53 18.735H615.25l-9.117-15.647h-2.942Zm0-8.734h2.177c4.059 0 6.088-1.795 6.088-5.383 0-2.96-1.99-4.44-5.97-4.44h-2.295v9.823ZM657.329 216.5h-11.617v-33.498h-10.5v-9.5H667.8v9.5h-10.471V216.5ZM708.086 203.442c0 2.666-.676 5.034-2.03 7.102-1.352 2.069-3.303 3.676-5.852 4.823s-5.54 1.721-8.97 1.721c-2.863 0-5.264-.202-7.206-.603-1.94-.402-3.96-1.103-6.058-2.103V204.03a34.596 34.596 0 0 0 6.912 2.662c2.391.637 4.588.955 6.588.955 1.724 0 2.989-.299 3.794-.897.803-.598 1.205-1.368 1.205-2.308 0-.589-.162-1.104-.485-1.544-.324-.442-.844-.888-1.56-1.339-.715-.45-2.621-1.372-5.72-2.764-2.804-1.275-4.906-2.51-6.308-3.706-1.402-1.196-2.441-2.568-3.117-4.118-.677-1.548-1.015-3.382-1.015-5.5 0-3.96 1.44-7.048 4.324-9.263 2.882-2.216 6.842-3.324 11.882-3.324 4.45 0 8.989 1.03 13.616 3.088l-3.559 8.97c-4.02-1.842-7.49-2.764-10.41-2.764-1.51 0-2.608.264-3.295.794s-1.03 1.186-1.03 1.97c0 .844.437 1.599 1.31 2.265s3.24 1.882 7.102 3.647c3.706 1.667 6.28 3.456 7.72 5.367s2.162 4.32 2.162 7.22ZM779.276 216.5H767.6V198.97h-13.5V216.5h-11.675v-42.998H754.1v15.94h13.5v-15.94h11.676V216.5ZM820.12 216.5h-25.527v-42.998h25.528v9.323H806.21v6.764h12.882v9.323H806.21v8.117h13.91v9.47ZM845.29 200.853V216.5h-11.617v-42.998h14.088c11.685 0 17.528 4.235 17.528 12.705 0 4.98-2.432 8.833-7.294 11.558l12.53 18.735h-13.177l-9.117-15.647h-2.941Zm0-8.734h2.177c4.058 0 6.088-1.795 6.088-5.383 0-2.96-1.99-4.44-5.971-4.44h-2.294v9.823ZM905.987 216.5H880.46v-42.998h25.528v9.323h-13.911v6.764h12.882v9.323h-12.882v8.117h13.911v9.47Z"/></g></svg>