<svg xmlns="http://www.w3.org/2000/svg" xml:space="preserve" viewBox="0 0 147.1 63.1"><linearGradient id="a" x1="89.298" x2="89.298" y1="2.384" y2="63.23" gradientUnits="userSpaceOnUse"><stop offset="0" style="stop-color:#67addf"/><stop offset=".154" style="stop-color:#0a82c5"/><stop offset=".508" style="stop-color:#0a74bb"/><stop offset=".759" style="stop-color:#0a82c5"/><stop offset="1" style="stop-color:#67addf"/></linearGradient><path fill="url(#a)" d="m82 54.7-3 6.9h-9.4l14.8-32h10.1l14.5 32h-9.5l-3.2-6.9H82zm7.4-17.8c-.7 1.7-4.5 12.2-4.5 12.2h9.4s-4.2-10.5-4.9-12.2z"/><linearGradient id="b" x1="19.646" x2="19.646" y1="2.384" y2="63.23" gradientUnits="userSpaceOnUse"><stop offset="0" style="stop-color:#67addf"/><stop offset=".154" style="stop-color:#0a82c5"/><stop offset=".508" style="stop-color:#0a74bb"/><stop offset=".759" style="stop-color:#0a82c5"/><stop offset="1" style="stop-color:#67addf"/></linearGradient><path fill="url(#b)" d="m12.4 54.7-3 6.9H0l14.8-32h10.1l14.5 32h-9.5l-3.2-6.9H12.4zm7.4-17.8c-.7 1.7-4.5 12.2-4.5 12.2h9.4s-4.2-10.5-4.9-12.2z"/><linearGradient id="c" x1="128.87" x2="128.87" y1="2.384" y2="63.23" gradientUnits="userSpaceOnUse"><stop offset="0" style="stop-color:#67addf"/><stop offset=".154" style="stop-color:#0a82c5"/><stop offset=".508" style="stop-color:#0a74bb"/><stop offset=".759" style="stop-color:#0a82c5"/><stop offset="1" style="stop-color:#67addf"/></linearGradient><path fill="url(#c)" d="m136.7 61.6-7.8-10.4-8.3 10.4h-10l13.3-16.4-13.3-15.7h10.7l7.6 10.1 7.8-10.1h10l-12.9 15.7 13.3 16.4h-10.4z"/><linearGradient id="d" x1="58.407" x2="58.407" y1="2.384" y2="63.23" gradientUnits="userSpaceOnUse"><stop offset="0" style="stop-color:#67addf"/><stop offset=".154" style="stop-color:#0a82c5"/><stop offset=".508" style="stop-color:#0a74bb"/><stop offset=".759" style="stop-color:#0a82c5"/><stop offset="1" style="stop-color:#67addf"/></linearGradient><path fill="url(#d)" d="M78.3 27.7 66 16.1 54 27.8l3.7 4 4.6-4.2v23.1c0 4-1.8 6.5-5.7 6.5-4.8-.1-9 1.1-9-5.6v-1.7h-9v1.7c0 4.3 1 6.4 3.6 8.5 2.7 2.3 6.6 2.9 11.7 2.9 4.8 0 9.3-.4 12-2.4 3-2.1 3.8-5.7 3.8-10.1v-23l4.7 4.4 3.9-4.2z"/><linearGradient id="e" x1="50.208" x2="50.208" y1="2.384" y2="63.23" gradientUnits="userSpaceOnUse"><stop offset="0" style="stop-color:#67addf"/><stop offset=".154" style="stop-color:#0a82c5"/><stop offset=".508" style="stop-color:#0a74bb"/><stop offset=".759" style="stop-color:#0a82c5"/><stop offset="1" style="stop-color:#67addf"/></linearGradient><path fill="url(#e)" d="M66.5 2.9C63.8.6 59.9 0 54.8 0c-4.8 0-9.3.4-12 2.4-3 2.1-3.8 5.7-3.8 10.1v23.1l-4.7-4.4-4 4.2L42.6 47l12-11.7-3.7-4-4.6 4.2v-23c0-4 1.8-6.5 5.7-6.5 4.8.1 9-1.1 9 5.6v1.7h9v-1.7c.1-4.5-.9-6.6-3.5-8.7z"/></svg>