<svg xmlns="http://www.w3.org/2000/svg" xml:space="preserve" viewBox="0 0 437.996 541.908"><defs><clipPath id="a" clipPathUnits="userSpaceOnUse"><path d="M0 500h500V0H0v500z"/></clipPath></defs><g clip-path="url(#a)" transform="matrix(1.25 0 0 -1.25 -94.485 581.99)"><path fill="#0372b4" fill-rule="evenodd" d="M250.74 366.1v-67.597L134 230.299s.043-75.32.043-98.2c7.709 4.404 116.61 67.167 116.61 67.167v-67.211L75.923 32.07l-.338 233.82 175.16 100.21"/><path fill="#0372b4" fill-rule="evenodd" d="M425.98 465.59V265.75l-57.917 33.252-.158 65.884-58.84-32.305-58.325 33.515 175.24 99.505z"/><path fill="#012b42" fill-rule="evenodd" d="M250.65 132.05v67.21l116.98-66.458v97.897l-116.89 67.8v67.595l175.24-100.35V32.224l-175.33 99.83z"/><path fill="#012b42" fill-rule="evenodd" d="m192.05 332.76-58.029 33.201v-66.939l-58.43-33.138.205 199.68s119.22-67.425 174.95-99.468l-58.69-33.332zM165.06 248.51l85.594-49.249-58.432-33.643-58.178 33.387-.042 31.289 31.058 18.216z"/><path fill="#0372b4" fill-rule="evenodd" d="m250.65 198.88 86.211 49.646 30.77-17.827s.032-22.351 0-31.992c-19.376-11.066-57.719-33.2-57.719-33.2l-59.261 33.373z"/></g></svg>