<svg xmlns="http://www.w3.org/2000/svg" viewBox="0 0 99 114"><defs><linearGradient id="a" x1="50%" x2="50%" y1="45.227%" y2="100%"><stop offset="0%" stop-color="#F7F6F3"/><stop offset="100%" stop-color="#FEF6D5"/></linearGradient></defs><g fill="none" fill-rule="nonzero"><path fill="#A1070C" d="M4.281 83.036 49.5 109.07l45.22-26.035v-52.07L49.499 4.93 4.28 30.966v52.07ZM49.5 114 0 85.5V28.5L49.499 0 99 28.501V85.5L49.499 114Z"/><path fill="url(#a)" d="M4 31.25 50 5l46 26.25v52.5L50 110 4 83.75v-52.5"/><path fill="#A1070C" d="M70 37.738c0 2.076-.404 4.139-1.212 6.188a22.938 22.938 0 0 1-3.253 5.697 23.95 23.95 0 0 1-4.707 4.59c-1.778 1.312-3.623 2.254-5.535 2.828l-.849-1.434a12.977 12.977 0 0 0 3.112-2.214c.942-.901 1.75-1.919 2.424-3.053a15.253 15.253 0 0 0 1.555-3.606c.364-1.27.546-2.562.546-3.873 0-1.503-.216-2.924-.647-4.263-.43-1.338-1.064-2.506-1.899-3.504a8.886 8.886 0 0 0-3.09-2.356c-1.226-.574-2.634-.861-4.223-.861-1.94 0-3.717.383-5.333 1.148a15.462 15.462 0 0 0-4.364 3.094 21.015 21.015 0 0 0-3.373 4.467 31.034 31.034 0 0 0-2.384 5.287 35.893 35.893 0 0 0-1.435 5.594c-.323 1.885-.485 3.661-.485 5.328a27.5 27.5 0 0 0 .526 5.246c.35 1.803.862 3.58 1.535 5.328a27.526 27.526 0 0 0 2.505 4.959 19.9 19.9 0 0 0 3.455 4.098 16.062 16.062 0 0 0 4.363 2.808c1.603.696 3.347 1.045 5.233 1.045 1.293 0 2.552-.178 3.777-.533a18.477 18.477 0 0 0 3.536-1.435 19.927 19.927 0 0 0 3.212-2.13 24.874 24.874 0 0 0 2.808-2.665l1.333 1.312c-1.185 1.585-2.592 3.108-4.222 4.57a34.521 34.521 0 0 1-5.273 3.893 28.6 28.6 0 0 1-5.919 2.705c-2.06.67-4.1 1.004-6.121 1.004-1.966 0-3.818-.348-5.556-1.045a18.275 18.275 0 0 1-4.787-2.828 21.616 21.616 0 0 1-3.9-4.18 28.42 28.42 0 0 1-2.909-5.103 29.272 29.272 0 0 1-1.818-5.574A26.283 26.283 0 0 1 26 62.656c0-2.65.438-5.376 1.313-8.176.876-2.801 2.08-5.52 3.616-8.156a46.414 46.414 0 0 1 5.435-7.48c2.087-2.35 4.336-4.399 6.747-6.147 2.41-1.749 4.93-3.136 7.556-4.16C53.293 27.512 55.912 27 58.525 27c1.616 0 3.125.24 4.526.717 1.4.478 2.612 1.168 3.636 2.07 1.023.902 1.832 2.022 2.424 3.36.593 1.34.889 2.87.889 4.59Z"/></g></svg>