<svg xmlns="http://www.w3.org/2000/svg" viewBox="0 0 96 91"><defs><linearGradient id="a" x1="-79.248%" x2="102.394%" y1="-92.82%" y2="106.042%"><stop offset="0%" stop-color="#F9A03C"/><stop offset="100%" stop-color="#F7974E"/></linearGradient><linearGradient id="b" x1="-258.924%" x2="97.62%" y1="-245.994%" y2="98.283%"><stop offset="0%" stop-color="#F9A03C"/><stop offset="100%" stop-color="#F7974E"/></linearGradient><linearGradient id="c" x1="-208.626%" x2="91.685%" y1="-261.968%" y2="101.691%"><stop offset="0%" stop-color="#F9A03C"/><stop offset="100%" stop-color="#F7974E"/></linearGradient><linearGradient id="d" x1="15.402%" x2="79.08%" y1="-1.822%" y2="92.107%"><stop offset="0%" stop-color="#F26D58"/><stop offset="100%" stop-color="#F9A03C"/></linearGradient><linearGradient id="e" x1="15.844%" x2="120.126%" y1="10.993%" y2="68.92%"><stop offset="0%" stop-color="#B84E51"/><stop offset="100%" stop-color="#F68E48"/></linearGradient><linearGradient id="f" x1="49.172%" x2="50.517%" y1="23.466%" y2="147.391%"><stop offset="0%" stop-color="#F9A03C"/><stop offset="100%" stop-color="#F7974E"/></linearGradient></defs><g fill="none" fill-rule="nonzero"><path fill="url(#a)" d="M95.902 64.923c.043-.41.074-.825.098-1.242C96.029 63.188 65.725 35 65.725 35H65s30.716 31.763 30.902 29.923Z"/><path fill="url(#b)" d="M31.297 56.043a30.533 30.533 0 0 1-.251.533c-.96 1.99 13.424 15.98 14.581 14.281.053-.075.106-.154.158-.23.059-.089.117-.174.174-.263.926-1.397-14.252-15.23-14.662-14.321Z"/><path fill="url(#c)" d="M51.583 76c-.04.09-.324.583-.583.843C50.956 76.933 64.757 91 64.757 91H66c.001 0-12.955-14.405-14.417-15Z"/><path fill="url(#d)" d="M96 64.511C95.338 79.231 83.185 91 68.337 91H66.33L51.502 76.363a53.27 53.27 0 0 0 3.363-5.372h13.472c4.26 0 7.728-3.472 7.728-7.743 0-4.27-3.467-7.744-7.728-7.744h-7.972c.607-3.218.94-6.536.94-9.93 0-3.446-.339-6.811-.968-10.08h4.952L95.913 65.73c.036-.405.065-.81.087-1.219ZM8.055 0H0v20.009h8.055c14.07 0 25.517 11.467 25.517 25.565 0 3.835-.854 7.476-2.37 10.745l14.695 14.51a45.37 45.37 0 0 0 7.646-25.255C53.543 20.444 33.136 0 8.055 0Z"/><path fill="url(#e)" d="M68.45 0H36a53.21 53.21 0 0 1 18.96 19.786h13.49c4.238 0 7.688 3.434 7.688 7.658 0 4.223-3.45 7.656-7.688 7.656h-3.031L95.884 65c.071-.811.116-1.627.116-2.456 0-6.67-2.403-12.789-6.393-17.551 3.99-4.76 6.393-10.88 6.393-17.55C96 12.313 83.642 0 68.45 0Z"/><path fill="url(#f)" d="M66 90.85H35.772c6.085-3.802 11.345-8.822 15.474-14.708L66 90.85ZM45.668 70.582 31.047 56c-4.04 8.785-12.842 14.895-23.032 14.895H0V91h8.015c15.686 0 29.53-8.12 37.653-20.419Z"/></g></svg>