<svg xmlns="http://www.w3.org/2000/svg" viewBox="0 0 202 170"><g fill="none" fill-rule="nonzero"><path fill="#364548" d="M30.391 137.987v-12.925c0-1.697 1.063-3.062 2.822-3.062h.488c1.76 0 2.817 1.366 2.817 3.062v27.211c0 6.636-3.282 11.915-8.999 15.278a16.909 16.909 0 0 1-8.653 2.358h-1.215c-6.642 0-11.92-3.28-15.292-8.99A16.825 16.825 0 0 1 0 152.274v-1.213c0-6.638 3.283-11.914 8.996-15.283a16.85 16.85 0 0 1 8.655-2.358h1.215c4.495 0 8.31 1.74 11.525 4.568ZM6.126 151.665c0 4.794 2.325 8.397 6.529 10.695 1.7.93 3.545 1.429 5.484 1.429 4.709 0 8.201-2.22 10.61-6.206 1.12-1.855 1.642-3.884 1.642-6.041 0-4.156-1.968-7.398-5.32-9.806-2.031-1.46-4.319-2.193-6.813-2.193-5.132 0-8.826 2.59-11.043 7.193-.748 1.556-1.09 3.209-1.09 4.93ZM57.77 133.42h.849c7.098 0 12.495 3.44 15.917 9.63 1.368 2.477 2.1 5.18 2.1 8.011v1.213c0 6.635-3.275 11.922-9.002 15.28a16.954 16.954 0 0 1-8.651 2.356H57.77c-6.643 0-11.922-3.28-15.292-8.99a16.826 16.826 0 0 1-2.361-8.646v-1.213c0-6.638 3.295-11.897 8.994-15.282 2.65-1.573 5.58-2.36 8.659-2.36Zm-11.528 18.246c0 4.653 2.286 8.076 6.219 10.482 1.847 1.13 3.88 1.642 6.039 1.642 4.6 0 8.002-2.331 10.369-6.211 1.129-1.85 1.64-3.882 1.64-6.036 0-4.327-2.086-7.632-5.651-10.027a11.403 11.403 0 0 0-6.482-1.972c-5.133 0-8.826 2.59-11.042 7.193-.75 1.556-1.092 3.209-1.092 4.93Zm55.861-11.633c-.924-.432-2.656-.576-3.656-.614-5.118-.193-8.821 2.687-10.994 7.198-.75 1.556-1.092 3.204-1.092 4.926 0 5.242 2.754 8.913 7.438 11.15 1.711.817 3.92.973 5.79.973 1.645 0 3.969-1.007 5.428-1.7l.253-.12h1.133l.125.026c1.393.29 2.445 1.172 2.445 2.67v.605c0 3.727-6.817 4.58-9.418 4.761-9.179.635-16.043-4.401-18.66-13.15a15.827 15.827 0 0 1-.66-4.61v-1.21c0-6.638 3.296-11.896 8.994-15.278 2.65-1.572 5.58-2.361 8.658-2.361h1.214c3.265 0 6.273.926 8.969 2.766l.221.153.14.23c.291.483.542 1.04.542 1.614v.606c0 1.562-1.17 2.402-2.583 2.674l-.117.021h-.362c-.914 0-2.992-.946-3.808-1.33Zm19.87 4.145c2.38-2.38 4.768-4.757 7.183-7.098.673-.653 3.221-3.418 4.224-3.418h1.098l.125.026c1.397.29 2.444 1.174 2.444 2.675v.605c0 1.024-1.2 2.213-1.862 2.914-1.407 1.49-2.889 2.932-4.33 4.392l-7.4 7.507c3.186 3.19 6.37 6.385 9.53 9.6.875.89 1.75 1.78 2.61 2.683.305.32.754.718 1.01 1.162.274.415.442.883.442 1.383v.633l-.035.145c-.345 1.396-1.232 2.523-2.78 2.523h-.488c-1.013 0-2.158-1.146-2.853-1.8-1.43-1.347-2.812-2.765-4.214-4.141l-4.703-4.613v7.373c0 1.698-1.064 3.063-2.822 3.063h-.483c-1.759 0-2.821-1.365-2.821-3.063V125.18c0-1.699 1.063-3.057 2.821-3.057h.483c1.758 0 2.822 1.358 2.822 3.057v18.996Zm76.354-10.516h.608c1.838 0 3.064 1.237 3.064 3.062 0 2.534-2.424 3.183-4.522 3.183-2.752 0-5.378 1.664-7.275 3.53-2.365 2.33-3.4 5.314-3.4 8.593v14.818c0 1.7-1.061 3.062-2.823 3.062h-.483c-1.76 0-2.821-1.363-2.821-3.062V151.18c0-6.017 2.931-10.928 7.818-14.373 2.919-2.058 6.261-3.145 9.834-3.145Zm-43.542 29.366c2.23.777 4.772.667 7.06.269 1.169-.497 4.16-1.801 5.261-1.61l.172.029.158.077c.672.326 1.314.786 1.656 1.469.802 1.602.417 3.211-1.158 4.12l-.524.303c-5.812 3.351-11.992 2.887-17.784-.243-2.77-1.496-4.889-3.717-6.452-6.424l-.365-.632c-3.73-6.455-3.227-13.246.98-19.384 1.453-2.122 3.35-3.761 5.57-5.043l.84-.484c5.473-3.156 11.338-2.94 16.959-.17 3.021 1.49 5.47 3.71 7.157 6.63l.303.526c1.226 2.122-.362 3.971-2 5.235-1.903 1.466-3.823 3.23-5.646 4.803-4.065 3.505-8.124 7.02-12.187 10.529Zm-5.261-3.692c4.547-3.895 9.094-7.793 13.628-11.703 1.549-1.335 3.248-2.72 4.785-4.125-1.233-1.553-3.293-2.672-5.044-3.34-3.533-1.345-7.018-.893-10.258.976-4.242 2.447-6.049 6.344-5.89 11.193.062 1.91.577 3.75 1.591 5.375.358.573.757 1.11 1.188 1.624ZM116.926 36.316h18.084v18.561h9.144c4.222 0 8.565-.755 12.564-2.116 1.965-.669 4.17-1.6 6.109-2.77-2.553-3.347-3.856-7.573-4.24-11.738-.521-5.665.617-13.039 4.436-17.473l1.9-2.208 2.266 1.829c5.703 4.6 10.5 11.029 11.345 18.357 6.867-2.028 14.93-1.548 20.983 1.96L202 42.157l-1.307 2.561c-5.12 10.032-15.821 13.14-26.284 12.59C158.752 96.462 124.665 115 83.335 115c-21.353 0-40.943-8.015-52.099-27.036l-.183-.31-1.625-3.321c-3.771-8.373-5.023-17.546-4.174-26.71l.255-2.746h15.464V36.316h18.083V18.158h36.169V0h21.701v36.316"/><path fill="#22A0C8" d="M175.505 43.374c1.212-9.44-5.84-16.854-10.214-20.374-5.04 5.837-5.823 21.134 2.084 27.574-4.413 3.926-13.712 7.485-23.232 7.485h-115.9c-.926 9.955.82 19.123 4.804 26.97l1.319 2.416a44.793 44.793 0 0 0 2.732 4.107c4.765.306 9.159.412 13.178.323h.001c7.9-.175 14.344-1.108 19.228-2.804a1.39 1.39 0 0 1 1.772.861 1.396 1.396 0 0 1-.86 1.774 38.68 38.68 0 0 1-2.026.637h-.003c-3.846 1.1-7.97 1.84-13.29 2.17.315.005-.33.047-.332.047-.18.011-.408.037-.59.048-2.094.117-4.355.142-6.666.142-2.527 0-5.016-.048-7.8-.19l-.07.048C49.296 105.479 64.396 112 83.322 112c40.057 0 74.034-17.786 89.079-57.717 10.674 1.097 20.933-1.63 25.599-10.754-7.433-4.296-16.991-2.926-22.495-.155"/><path fill="#37B1D9" d="M175.275 43.233c1.212-9.374-5.833-16.737-10.202-20.233-5.035 5.796-5.817 20.987 2.081 27.383-4.408 3.9-13.697 7.433-23.207 7.433H35.027c-.472 15.142 5.17 26.635 15.154 33.583h.002c7.89-.174 14.327-1.101 19.207-2.785a1.384 1.384 0 1 1 .91 2.617c-.648.224-1.325.433-2.024.632l-.002.001c-3.842 1.092-8.315 1.922-13.631 2.248l-.13-.122c13.617 6.956 33.363 6.931 56.001-1.729 25.384-9.71 49.005-28.21 65.486-49.371-.249.112-.49.226-.725.343"/><path fill="#1B81A5" d="M28 70c.719 5.352 2.272 10.364 4.577 14.93l1.316 2.424a44.898 44.898 0 0 0 2.726 4.122c4.755.308 9.139.414 13.15.325 7.88-.176 14.31-1.113 19.184-2.815a1.385 1.385 0 0 1 1.767.864c.251.73-.133 1.528-.857 1.781-.648.226-1.324.438-2.022.64h-.002c-3.838 1.104-8.282 1.894-13.592 2.225-.182.011-.5.013-.683.023-2.089.119-4.321.19-6.627.19-2.522 0-5.1-.048-7.876-.19C48.695 105.431 63.855 112 82.739 112c34.216 0 63.984-13.086 81.261-42H28"/><path fill="#1D91B4" d="M36 70c2.045 9.231 6.96 16.478 14.095 21.414 7.88-.173 14.31-1.093 19.183-2.764a1.391 1.391 0 0 1 1.767.848c.25.718-.133 1.5-.858 1.75-.648.222-1.323.43-2.021.627h-.003c-3.837 1.085-8.375 1.862-13.684 2.186 13.6 6.904 33.263 6.805 55.871-1.79C124.027 87.068 137.19 79.325 149 70H36"/><path fill="#23A3C2" d="M44 39h16v16H44V39Zm1.333 1.333h1.262v13.334h-1.262V40.333Zm2.374 0h1.313v13.334h-1.313V40.333Zm2.423 0h1.313v13.334H50.13V40.333Zm2.425 0h1.313v13.334h-1.313V40.333Zm2.425 0h1.313v13.334H54.98V40.333Zm2.424 0h1.263v13.334h-1.263V40.333ZM62 21h16v16H62V21Zm1.334 1.334h1.262v13.333h-1.262V22.334Zm2.374 0h1.312v13.333h-1.312V22.334Zm2.423 0h1.313v13.333h-1.313V22.334Zm2.424 0h1.313v13.333h-1.313V22.334Zm2.425 0h1.313v13.333H72.98V22.334Zm2.423 0h1.264v13.333h-1.264V22.334Z"/><path fill="#34BBDE" d="M62 39h16v16H62V39Zm1.334 1.333h1.262v13.334h-1.262V40.333Zm2.374 0h1.312v13.334h-1.312V40.333Zm2.423 0h1.313v13.334h-1.313V40.333Zm2.424 0h1.313v13.334h-1.313V40.333Zm2.425 0h1.313v13.334H72.98V40.333Zm2.423 0h1.264v13.334h-1.264V40.333Z"/><path fill="#23A3C2" d="M80 39h16v16H80V39Zm1.333 1.333h1.262v13.334h-1.262V40.333Zm2.374 0h1.313v13.334h-1.313V40.333Zm2.424 0h1.313v13.334h-1.313V40.333Zm2.425 0h1.313v13.334h-1.313V40.333Zm2.424 0h1.314v13.334H90.98V40.333Zm2.424 0h1.263v13.334h-1.263V40.333Z"/><path fill="#34BBDE" d="M80 21h16v16H80V21Zm1.333 1.334h1.262v13.333h-1.262V22.334Zm2.374 0h1.313v13.333h-1.313V22.334Zm2.424 0h1.313v13.333h-1.313V22.334Zm2.425 0h1.313v13.333h-1.313V22.334Zm2.424 0h1.314v13.333H90.98V22.334Zm2.424 0h1.263v13.333h-1.263V22.334ZM98 39h16v16H98V39Zm1.334 1.333h1.262v13.334h-1.262V40.333Zm2.373 0h1.314v13.334h-1.314V40.333Zm2.424 0h1.313v13.334h-1.313V40.333Zm2.425 0h1.313v13.334h-1.313V40.333Zm2.424 0h1.313v13.334h-1.313V40.333Zm2.424 0h1.263v13.334h-1.263V40.333Z"/><path fill="#23A3C2" d="M98 21h16v16H98V21Zm1.334 1.334h1.262v13.333h-1.262V22.334Zm2.373 0h1.314v13.333h-1.314V22.334Zm2.424 0h1.313v13.333h-1.313V22.334Zm2.425 0h1.313v13.333h-1.313V22.334Zm2.424 0h1.313v13.333h-1.313V22.334Zm2.424 0h1.263v13.333h-1.263V22.334Z"/><path fill="#34BBDE" d="M98 3h16v16H98V3Zm1.334 1.333h1.262v13.334h-1.262V4.333Zm2.373 0h1.314v13.334h-1.314V4.333Zm2.424 0h1.313v13.334h-1.313V4.333Zm2.425 0h1.313v13.334h-1.313V4.333Zm2.424 0h1.313v13.334h-1.313V4.333Zm2.424 0h1.263v13.334h-1.263V4.333Z"/><path fill="#23A3C2" d="M116 39h16v16h-16V39Zm1.333 1.333h1.263v13.334h-1.263V40.333Zm2.373 0h1.314v13.334h-1.314V40.333Zm2.425 0h1.313v13.334h-1.313V40.333Zm2.424 0h1.313v13.334h-1.313V40.333Zm2.425 0h1.313v13.334h-1.313V40.333Zm2.424 0h1.263v13.334h-1.263V40.333Z"/><path fill="#D3ECEC" d="M76.5 80a4.5 4.5 0 1 1-.001 9 4.5 4.5 0 0 1 .001-9"/><path fill="#364548" d="M76 81c.383 0 .749.072 1.086.203a1.225 1.225 0 1 0 1.685 1.647A3 3 0 1 1 76 81M0 71h201c-4.377-1.064-13.847-2.502-12.285-8-7.958 8.827-27.15 6.193-31.993 1.84-5.394 7.499-36.793 4.649-38.983-1.193-6.762 7.607-27.715 7.607-34.477 0-2.19 5.842-33.59 8.692-38.984 1.193-4.843 4.353-24.033 6.987-31.992-1.84C13.848 68.498 4.377 69.936 0 71"/><path fill="#BDD9D7" d="M88 111.905C77.334 106.725 71.479 99.685 68.221 92c-3.962 1.157-8.725 1.897-14.259 2.215-2.084.12-4.277.18-6.579.18-2.653 0-5.448-.08-8.383-.24C48.782 104.159 60.816 111.86 83.097 112c1.645 0 3.278-.033 4.903-.095"/><path fill="#D3ECEC" d="M72 99c-1.458-2.023-2.872-4.565-3.912-7-3.914 1.143-8.62 1.873-14.088 2.186 3.755 2.084 9.127 4.015 18 4.814"/></g></svg>