<svg xmlns="http://www.w3.org/2000/svg" viewBox="0 0 701.972 669.921"><defs><clipPath id="a" clipPathUnits="userSpaceOnUse"><path d="M0 653h774V0H0v653z"/></clipPath><clipPath id="b" clipPathUnits="userSpaceOnUse"><path d="M256.74 458.01h255.42v-89.229H256.74v89.229z"/></clipPath><clipPath id="c" clipPathUnits="userSpaceOnUse"><path d="M260.5 464.5h50.367v-24.384H260.5V464.5z"/></clipPath><clipPath id="d" clipPathUnits="userSpaceOnUse"><path d="M465.5 451.43h38.192v-25.823H465.5v25.823z"/></clipPath><clipPath id="e" clipPathUnits="userSpaceOnUse"><path d="M484.19 274.85h35.348v-41.074H484.19v41.074z"/></clipPath><clipPath id="f" clipPathUnits="userSpaceOnUse"><path d="M498.94 295.54h11.787v-9.622H498.94v9.622z"/></clipPath><clipPath id="g" clipPathUnits="userSpaceOnUse"><path d="M517.98 298.04h11.56v-10.771h-11.56v10.771z"/></clipPath><clipPath id="h" clipPathUnits="userSpaceOnUse"><path d="M500.88 280.16h23.804v-12.99H500.88v12.99z"/></clipPath><clipPath id="i" clipPathUnits="userSpaceOnUse"><path d="M528.74 283.4h8.588v-7.548h-8.588v7.548z"/></clipPath><clipPath id="j" clipPathUnits="userSpaceOnUse"><path d="M292.39 295.94H486.6v-54.993H292.39v54.993z"/></clipPath><clipPath id="k" clipPathUnits="userSpaceOnUse"><path d="M464.73 503.5h27.141v-67.167H464.73V503.5z"/></clipPath><clipPath id="l" clipPathUnits="userSpaceOnUse"><path d="M250.83 493.38h66.587v-47.632H250.83v47.632z"/></clipPath><clipPath id="m" clipPathUnits="userSpaceOnUse"><path d="M465.57 507.41h39.427v-66.535H465.57v66.535z"/></clipPath><clipPath id="n" clipPathUnits="userSpaceOnUse"><path d="M285.73 473.58h176.74V305H285.73v168.58z"/></clipPath><clipPath id="o" clipPathUnits="userSpaceOnUse"><path d="M371.33 391.33h19.667v-8.333H371.33v8.333z"/></clipPath><clipPath id="p" clipPathUnits="userSpaceOnUse"><path d="M370.44 400.4h21.858v-14.905H370.44V400.4z"/></clipPath><clipPath id="q" clipPathUnits="userSpaceOnUse"><path d="M304.4 382.87h170.07v-96.553H304.4v96.553z"/></clipPath><clipPath id="r" clipPathUnits="userSpaceOnUse"><path d="M313.25 381.25h140.99v-71.604H313.25v71.604z"/></clipPath><clipPath id="s" clipPathUnits="userSpaceOnUse"><path d="M314.75 379.74h138v-70.027h-138v70.027z"/></clipPath><clipPath id="t" clipPathUnits="userSpaceOnUse"><path d="M316.25 378.25h135v-68.457h-135v68.457z"/></clipPath><clipPath id="u" clipPathUnits="userSpaceOnUse"><path d="M348.04 345.93h75.63v-31.136h-75.63v31.136z"/></clipPath><clipPath id="v" clipPathUnits="userSpaceOnUse"><path d="M358.25 363.25h45.347v-34.854H358.25v34.854z"/></clipPath><clipPath id="w" clipPathUnits="userSpaceOnUse"><path d="M358.33 363.75h44.761v-15.5H358.33v15.5z"/></clipPath><clipPath id="x" clipPathUnits="userSpaceOnUse"><path d="M379.54 354.37h8.255v-22.239h-8.255v22.239z"/></clipPath><clipPath id="y" clipPathUnits="userSpaceOnUse"><path d="M251.6 493.4h59.399v-53.812H251.6V493.4z"/></clipPath><clipPath id="z" clipPathUnits="userSpaceOnUse"><path d="M282.95 437.27h201.39v-64.021H282.95v64.021z"/></clipPath><clipPath id="A" clipPathUnits="userSpaceOnUse"><path d="M266.72 456.22h236.99V376.3H266.72v79.92z"/></clipPath><clipPath id="B" clipPathUnits="userSpaceOnUse"><path d="M289.7 445.27h76.009v-51.499H289.7v51.499z"/></clipPath><clipPath id="C" clipPathUnits="userSpaceOnUse"><path d="M403.42 438.2h75.422v-52.734H403.42V438.2z"/></clipPath><clipPath id="D" clipPathUnits="userSpaceOnUse"><path d="M266.74 448.01h235.39v-69.229H266.74v69.229z"/></clipPath><clipPath id="E" clipPathUnits="userSpaceOnUse"><path d="M270.45 454.62h30.419v-4.5H270.45v4.5z"/></clipPath><clipPath id="F" clipPathUnits="userSpaceOnUse"><path d="M368.5 447.25h32.643v-8.034H368.5v8.034z"/></clipPath><clipPath id="G" clipPathUnits="userSpaceOnUse"><path d="M475.14 441.43h18.56v-5.823h-18.56v5.823z"/></clipPath><clipPath id="H" clipPathUnits="userSpaceOnUse"><path d="M286.58 446.3h43.61v-43.135h-43.61V446.3z"/></clipPath><clipPath id="I" clipPathUnits="userSpaceOnUse"><path d="M441.41 438.67h41.893v-46.031H441.41v46.031z"/></clipPath><clipPath id="J" clipPathUnits="userSpaceOnUse"><path d="M291.92 443.21h72.013v-41.396H291.92v41.396z"/></clipPath><clipPath id="K" clipPathUnits="userSpaceOnUse"><path d="M293.48 415.84h53.02v-20.936h-53.02v20.936z"/></clipPath><clipPath id="L" clipPathUnits="userSpaceOnUse"><path d="M405.56 436.14h71.799v-38.464H405.56v38.464z"/></clipPath><clipPath id="M" clipPathUnits="userSpaceOnUse"><path d="M419.03 404.64h54.683v-17.618H419.03v17.618z"/></clipPath><clipPath id="N" clipPathUnits="userSpaceOnUse"><path d="M324.38 427.5h3v-3h-3v3z"/></clipPath><clipPath id="O" clipPathUnits="userSpaceOnUse"><path d="M443.38 420.5h3v-3h-3v3z"/></clipPath><clipPath id="P" clipPathUnits="userSpaceOnUse"><path d="M271.12 451.73h97.609v-14.275H271.12v14.275z"/></clipPath><clipPath id="Q" clipPathUnits="userSpaceOnUse"><path d="M400.16 447.01h72.091v-13.921H400.16v13.921z"/></clipPath><clipPath id="R" clipPathUnits="userSpaceOnUse"><path d="M0 653h774V0H0v653z"/></clipPath></defs><g clip-path="url(#a)" transform="matrix(1.706 0 0 -1.706 -328.952 893.265)"><path fill="#fff" d="M280 240.5c.327.749.64 1.504.953 2.257l.128.308a214.577 214.577 0 0 1 2.219 5.531c.956 2.435 1.862 4.911 2.738 7.305.51 1.39 1.017 2.777 1.532 4.156 1.207 3.297 2.879 7.706 4.888 11.957 1.203 2.497 2.182 4.346 3.204 6.066a69.41 69.41 0 0 0 3.665 5.486l1.098 1.486 1.555.996c.194.124.439.272.718.428.773.436 1.64.816 2.221 1.053 1.086.448 2.367.891 3.887 1.346 2.118.63 4.456 1.217 7.372 1.854 4.153.899 8.737 1.738 14.444 2.643 8.566 1.345 17.694 2.538 28.744 3.755 19.478 2.118 38.853 3.657 57.602 4.577 9.908.464 17.488.671 24.598.671 1.496 0 2.991-.01 4.482-.03 4.708-.088 10.094-.243 15.094-.979 1.893-.291 3.441-.654 4.669-1.089.462-.16.86-.333 1.113-.449l1.449-.665 1.169-1.083c.479-.443.957-.897 1.426-1.368 1.717-1.714 3.425-3.646 5.196-5.881 5.67-7.223 10.842-15.923 15.401-25.895 4.329-9.621 7.179-18.301 8.739-26.592l2.227-11.849h-27.652l-1.65 7.975c-1.744 8.435-24.491 30.749-35.792 35.111-1.144.441-6.03 1.881-20.886 1.881-30.634 0-74.104-5.42-80.303-6.726-7.303-3.405-18.669-17.988-25.112-32.338l-2.65-5.903"/><path fill="#ba8449" d="M468.33 284.62c-1.412 1.781-2.893 3.485-4.45 5.04-.37.372-.748.731-1.127 1.081-.06.027-.153.067-.277.11-.679.241-1.742.461-2.788.623-4.322.635-9.093.785-13.774.873-9.427.127-18.949-.185-28.455-.63-19.022-.933-38.056-2.469-56.995-4.529-9.466-1.043-18.917-2.222-28.274-3.692-4.673-.741-9.33-1.552-13.878-2.536-2.267-.495-4.517-1.034-6.639-1.665-1.055-.316-2.086-.658-2.979-1.026-.443-.18-.851-.373-1.14-.536a3.398 3.398 0 0 1-.181-.107 59.02 59.02 0 0 1-3.115-4.659c-.999-1.679-1.895-3.436-2.757-5.225-1.697-3.592-3.161-7.36-4.563-11.189-1.428-3.819-2.793-7.701-4.304-11.55a219.246 219.246 0 0 0-2.317-5.774c-.379-.912-.756-1.826-1.152-2.733h12.843c6.941 15.458 19.983 33.225 30.923 37.701 3.017 1.235 51.551 7.266 83.622 7.266 11.887 0 20.126-.869 24.486-2.552 13.142-5.072 39.272-29.296 41.985-42.415h7.453c-1.552 8.257-4.481 16.451-8.004 24.282-3.864 8.458-8.506 16.665-14.139 23.842"/><path fill="#fff" d="m462.66 290.84-.017.014-.033.028.061-.054.007-.005-.018.017z"/><path fill="#ba8449" d="m462.66 290.84-.017.014-.033.028.061-.054.007-.005-.018.017z"/><path fill="#fff" d="m482.18 226.5-1.533 8.151c-1.263 6.718-3.65 13.923-7.296 22.028-3.879 8.483-8.225 15.827-12.89 21.771a50.756 50.756 0 0 1-2.749 3.208c-3.683.5-8.109.621-11.988.695-1.35.017-2.753.027-4.158.027-6.786 0-14.077-.2-23.642-.649-18.334-.898-37.31-2.406-56.382-4.48-10.723-1.182-19.562-2.335-27.802-3.63-5.316-.843-9.551-1.616-13.315-2.431-2.404-.525-4.286-.996-5.905-1.476a35.706 35.706 0 0 1-.619-.192 47.935 47.935 0 0 1-1.079-1.71c-.686-1.154-1.409-2.527-2.316-4.408-1.622-3.434-3.025-7.131-4.18-10.284a627.764 627.764 0 0 1-1.506-4.089c-.916-2.502-1.864-5.089-2.881-7.679a224.857 224.857 0 0 0-2.398-5.974l-.114-.276c-.361-.871-.724-1.742-1.101-2.606l-2.63-5.996h-17.598l-2.528 1.242-.264.151c-6.092 3.468-6.11 8.644-5.834 10.709l.064.482.32 1.368.436 1.655c.302 1.133.616 2.23.942 3.327.654 2.237 1.323 4.35 2.035 6.422 1.339 3.979 2.965 8.129 4.95 12.634 2.093 4.648 4.127 8.705 6.251 12.479a104.345 104.345 0 0 0 3.749 6.202 77.014 77.014 0 0 0 4.406 6.199 17.633 17.633 0 0 0 3.411 3.303l.102.075a21.292 21.292 0 0 0 2.255 1.434 29.338 29.338 0 0 0 3.214 1.516 51.189 51.189 0 0 0 4.756 1.622c3.037.88 5.886 1.515 8.033 1.971 4.394.921 9 1.734 14.957 2.641 8.692 1.309 17.956 2.461 29.17 3.626 19.665 2.011 39.219 3.44 58.136 4.249 9.067.366 16.038.529 22.627.529 2.373 0 4.715-.023 6.961-.067 4.856-.132 10.276-.28 16.16-1.172l.181-.029c1.434-.245 3.396-.579 5.818-1.426l.13-.047a20.262 20.262 0 0 0 2.531-1.111 17.938 17.938 0 0 0 1.865-1.131l.729-.537.569-.463.583-.53a59.628 59.628 0 0 0 1.688-1.64c1.941-1.965 3.83-4.127 5.773-6.607 6.082-7.867 11.367-16.874 16.195-27.582 2.227-4.996 4.139-9.977 5.698-14.843 1.693-5.319 2.893-10.237 3.672-15.052l1.884-11.599h-27.546z"/><path fill="#fff" d="m289.62 226.5 6.691 14.25c5.607 11.94 19.069 33.772 33.961 39.865l.282.11c5.016 1.878 55.358 7.711 85.997 7.711 17.228 0 23.665-1.716 27.007-3.006 15.531-5.993 42.503-31.554 46.147-46.573l3-12.357h-203.08z"/><path fill="#fff" d="m472.13 226.5-1.854 7.643c-1.71 7.048-22.948 28.397-33.913 32.628-1.011.391-5.428 1.665-19.805 1.665-29.61 0-72.274-5.227-79.264-6.585-5.756-2.858-16.052-15.077-22.872-29.601l-2.7-5.75h-25.161l6.33 14.097c7.425 16.535 21.938 37 36.258 42.859 5.532 2.264 56.524 8.011 87.409 8.011 13.465 0 22.389-1.024 28.087-3.223 15.491-5.979 44.571-32.278 48.177-49.719l2.469-12.025h-23.179z"/><path fill="#fff" d="m483.64 226.5-2.878 2.672c-10.887 10.11-13.86 31.013-10.475 39.633 2.242 5.708 7.011 7.742 10.728 7.742.978 0 1.954-.13 2.906-.387 1.913.117 6.5 3.847 7.852 6.077 2.035 3.976 6.162 6.346 11.062 6.346 7.404 0 19.394-5.879 23.326-11.437 2.222-3.141 2.807-6.898 1.603-10.307-.098-.278-.291-.86-.564-1.677-4.084-12.231-9.325-27.147-13.628-33.987l-2.942-4.675h-26.99z"/><path fill="#fff" d="m482.72 226.5 9.329 15.225c4.57 7.459 7.671 13.455 9.713 18.097-5.271-3.679-12.674-6.083-23.607-6.561l-.301.239-.195-1c-6.46 0-11.74 5.293-12.018 11.729-.142 3.193.973 6.385 3.138 8.75 2.167 2.366 5.125 3.808 8.329 3.947 10.778.472 12.109 3.018 14.125 6.825 2.72 5.14 8.635 8.104 16.226 8.104 1.96 0 3.875-.199 5.693-.607 9.502-2.138 15.668-9.306 16.09-18.713.429-9.537-4.754-23.389-15.405-41.175l-2.911-4.86H482.72z"/><path fill="#fff" d="M522.45 256.16c-12.193 0-25.467 7.948-32.277 15.801-6.195 7.141-6.81 13.433-6.236 17.455.709 4.964 4.756 9.973 12.199 9.973 1.343 0 2.635-.156 3.892-.357 1.203 5.365 4.066 16.665 15.611 16.665.516 0 1.043-.027 1.567-.082 5.549-.578 9.809-4.071 11.477-9.379 1.824.932 3.913 1.57 6.329 1.57 3.604 0 7.021-1.526 9.62-4.297 4.096-4.37 5.008-10.393 2.442-16.118 2.709-1.667 4.72-4.27 5.689-7.567 1.254-4.262.444-8.684-2.281-12.45-5.282-7.303-17.445-10.887-27.156-11.2-.29-.009-.581-.014-.876-.014M510.3 504.35c-11.048-6.905-23.089-22.767-37.77-44.458-2.282-3.374-6.051-5.309-10.339-5.309-5.457 0-12.287 3.269-20.301 9.715-12.695 10.211-12.964 15.986-13.066 18.16-.284 6.112 4.229 11.161 10.497 11.746 12.199 1.137 22.317 8.438 32.102 15.5 9.711 7.007 18.883 13.626 29.705 13.626 2.173 0 4.334-.279 6.424-.831"/><path fill="#fff8ee" d="M440.25 484.25c29.5 2.75 46.751 33.333 64.751 28.583-12-7.5-24.001-22.583-40.751-47.333-3.934-5.812-32.035 18.001-24 18.75"/><path fill="#fff" d="M248.96 498.34c7.358 6.806 17.318 10.257 29.603 10.257 10.569 0 23.053-2.59 37.105-7.7 3.796-1.381 8.702-1.557 12.552-1.557 1.041 0 2.034.013 2.963.025.897.012 1.739.022 2.512.022 3.541 0 10.91 0 13.944-6.827 1.134-2.553 2.424-7.778-1.683-14.097-4.952-7.62-18.089-15.844-30.678-15.844-.205 0-.41.003-.615.007-6.757.144-13.141 3.708-20.535 7.836-9.21 5.142-19.649 10.969-31.909 10.969-1.708 0-3.438-.115-5.141-.343M476.19 425.22c-5.457 0-15.603 2.283-22.233 17.574-3.568 8.225-4.833 17.279-4.833 22.532 0 10.632 5.579 13.462 8.976 14.199 2.418 2.444 6.926 8.548 10.333 13.161 13.789 18.674 23.691 30.914 35.216 30.914a14.92 14.92 0 0 0 5.569-1.064c15.562-6.225 23.03-19.283 20.488-35.826-1.875-12.207-9.462-26.745-20.817-39.887-5.332-6.173-19.04-20.627-31.129-21.543-.528-.04-1.055-.06-1.57-.06"/><path fill="#fff" d="M298.11 419.5c-1.296 0-2.62.011-3.937.221-19.315 3.082-43.311 22.571-52.399 42.614-6.209 13.693-3.422 23.051.009 28.511 5.577 8.872 13.898 13.55 24.065 13.55 12.292 0 24.67-6.761 35.591-12.72 4.133-2.255 10.231-5.586 12.826-6.222a10.9 10.9 0 0 0 2.876.385c3.97 0 7.582-2.153 9.663-5.759 5.012-8.681 1.991-32.182-5.879-45.809-5.536-9.587-13.638-14.771-22.813-14.771h-.002z"/><path fill="#fff" d="M365.29 251.5c-45.244 0-89.928 22.192-104.79 38.232-15.518 16.749-21.187 35.725-16.851 56.428 3.559 16.992 13.065 32.306 21.451 45.822 5.771 9.299 11.221 18.08 12.649 24.394 18.362 81.171 64.482 91.58 102.61 91.58 2.427 0 4.97-.042 7.777-.126 81.159-2.432 89.261-41.638 94.103-65.062.894-4.325 1.738-8.41 2.86-11.165 27.23-66.91 31.73-107.02 15.05-134.11-16.41-26.633-52.384-39.824-124.18-45.596-3.483-.281-7.076-.394-10.678-.394h-.002z"/><path fill="#fff" d="M363.6 251.3c-46.061 0-88.751 22.918-103.1 38.407-15.517 16.749-21.186 35.739-16.85 56.442 3.558 16.993 13.064 32.313 21.451 45.83 5.771 9.299 11.221 18.082 12.648 24.396 18.363 81.172 64.483 91.582 102.61 91.582 2.427 0 4.97-.041 7.776-.125 81.159-2.432 89.262-41.637 94.104-65.061.893-4.325 1.738-8.41 2.859-11.165 26.8-65.88 31.21-105.56 14.74-132.71-18.87-31.13-63.113-41.314-123.73-47.03-4.087-.385-8.295-.58-12.51-.58"/><path fill="#fff" d="M480.9 307.92c.55 1.358 1.15 2.787 1.774 4.273 6.226 14.816 10.779 27.748 3.396 35.951-8.695 9.66-45.74 27.123-78.425 42.53-62.798 29.601-101.57 48.714-107.14 67.81-1.421 4.877-.757 9.855 1.871 14.019 10.714 16.979 41.087 35.252 82.453 35.252.418 0 .838-.002 1.257-.005 38.957-.343 67.346-11.565 84.379-33.354 14.403-18.41 17.664-39.87 20.046-55.54.813-5.347 1.824-12 2.883-13.822 29.534-50.768 16.028-88.208 5.35-106l-17.845 8.892z"/><path fill="#fff" d="M450.05 366.3c-15.229 0-40.641 3.79-49.46 12.217-6.918 6.611-9.57 17.633-12.136 28.292-1.104 4.588-2.838 11.789-4.527 15.033l-.148.002c-.648-1.657-1.379-3.707-1.986-5.401-4.113-11.509-9.746-27.238-21.732-35.8-5.166-3.69-23.595-7.146-37.922-7.146h-.004c-14.252 0-25.133 3.055-32.341 9.145-10.39 8.778-18.301 24.852-23.52 47.817-.245.161-.491.314-.7.449-2.446 1.589-5.491 3.563-7.27 7.121-2.725 5.451-1.606 15.137 1.216 20.157 2.145 3.817 5.662 6.196 9.648 6.528.394.032.819.051 1.276.051 2.026 0 4.179-.365 6.672-.788 2.512-.426 5.359-.909 7.623-.909a9.63 9.63 0 0 1 1.345.079c14.278 2.039 27.72 3.073 39.952 3.073 29.705 0 45.293-6.08 51.161-8.369.478-.186.865-.343 1.17-.45 1.646-.401 4.726-1.017 8.109-1.017 1.246.001 2.431.084 3.522.25 13.447 2.039 26.227 3.073 37.986 3.073 31.339 0 47.972-7.158 55.075-10.215.558-.24 1.236-.532 1.569-.662.065-.005.27-.026.61-.026 1.941 0 4.762.606 7.25 1.141 1.88.404 3.657.786 5.342.984.47.055.948.083 1.419.083 4.718 0 8.879-2.651 11.417-7.274 2.869-5.227 4.793-16.285.769-22.609-2.679-4.21-7.095-6.209-10.643-7.815a74.772 74.772 0 0 1-1.518-.7c-1.205-2.057-3.35-6.301-5.133-9.829-5.221-10.326-11.137-22.03-16.585-28.33-4.746-5.488-13.746-8.155-27.512-8.155"/><g clip-path="url(#b)" opacity=".3"><path fill="#fff" d="M443.98 368.78c-12.063 0-29.009 1.808-41.235 10.418-6.988 4.921-10.141 14.95-14.502 30.885-1.233 4.502-2.99 10.92-4.345 14.085l-.013.002c-.754-1.849-1.637-4.217-2.363-6.159-4.535-12.152-10.748-28.795-22.006-35.765-5.805-3.594-24.016-6.866-38.216-6.866-15.176 0-26.117 3.39-32.522 10.077-16.143 16.851-19.311 32.956-21.203 42.578-.271 1.375-.611 3.104-.914 4.287-9.472 4.959-10.096 12.363-9.889 15.467.388 5.826 4.934 10.22 10.575 10.22 3.664 0 6.228-1.799 7.924-2.99.178-.124.36-.254.548-.381.172-.063.529-.167.799-.246 2.344-.685 9.478-2.77 10.996-11.874.274-1.581 2.733-11.347 6.642-21.415 6.241-16.071 10.612-18.852 10.971-19.057 5.104-1.76 11.124-2.653 17.896-2.653 11.07 0 20.541 2.342 24.185 3.571 2.228 3.543 6.775 12.529 9.912 18.727 9.554 18.881 11.189 21.73 15.153 23.798 2.273 1.186 4.928 1.738 8.358 1.738 4.561 0 11-1.1 14.059-2.402 6.96-2.962 10.638-12.061 18.634-35.403 1.439-4.202 3.312-9.669 4.442-12.42 5.993-2.884 19.67-4.893 34.077-4.893 4.079 0 7.046.165 9.007.344 1.368 2.797 3.294 6.886 4.955 10.412 11.547 24.512 13.284 27.314 16.304 29.604 5 3.788 13.676 6.331 18.643 6.331 6.591 0 10.329-4.338 11.111-8.637 1.6-8.799-6.911-12.046-9.708-13.112-.659-.259-1.774-.685-2.518-1.031-1.022-1.847-2.966-5.66-4.584-8.835-12.303-24.134-16.447-30.71-21.116-33.511-5.604-3.362-19.501-4.893-30.042-4.894"/></g><g clip-path="url(#c)" opacity=".3"><path fill="#fff" d="M285.29 440.12c-1.9 0-5.236.269-12.238 2.596a102.902 102.902 0 0 0-4.462 1.603c-2.217.851-8.088 3.111-8.088 10.03v10l9.98.001c1.262 0 2.269-.235 2.978-.453 2.088-.31 8.875-.781 11.185-.942l1.328-.093c1.764.013 7.347.768 9.742 1.116 3 .437 4.009.526 5.079.526h8.639l1.336-8.504c.625-4.26-1.67-9.423-7.267-11.104-.349-.103-1.39-.471-2.227-.777-5.354-1.962-10.538-3.736-15.108-3.983a16.632 16.632 0 0 0-.877-.016"/></g><g clip-path="url(#d)" opacity=".3"><path fill="#fff" d="M484.29 425.61c-3.306 0-6.589 1.395-11.056 4.524-4.33 3.033-7.732 5.975-7.732 11.264v10l9.863.034c1.403 0 2.7-.291 4.041-.865 1.135-.482 5.143-1.762 6.967-2.205.623.075 1.853.244 4.255.759 1.176.253 1.93.379 3.058.379h8.509l1.374-8.361c.653-4.018-1.193-9.17-6.771-11.101a45.583 45.583 0 0 1-1.863-.905c-2.721-1.376-5.805-2.931-8.95-3.402a11.35 11.35 0 0 0-1.695-.121"/></g><path fill="#fff" d="M451.5 204.5h-37v32h37v-32z"/></g><path fill="#ba8449" d="M470.002 407.696c-2.409-3.038-4.935-5.945-7.591-8.598a62.737 62.737 0 0 0-1.923-1.844 5.62 5.62 0 0 0-.473-.188c-1.158-.411-2.972-.786-4.756-1.063-7.373-1.083-15.513-1.339-23.498-1.49-16.083-.216-32.327.317-48.545 1.076-32.451 1.591-64.923 4.212-97.233 7.726-16.15 1.78-32.273 3.79-48.236 6.299-7.972 1.264-15.917 2.647-23.675 4.326-3.868.845-7.706 1.764-11.327 2.84-1.8.54-3.558 1.123-5.082 1.751-.756.307-1.452.636-1.945.914-.12.067-.225.13-.308.183a100.689 100.689 0 0 0-5.315 7.948c-1.704 2.865-3.232 5.862-4.703 8.914-2.895 6.128-5.393 12.556-7.785 19.088-2.436 6.516-4.764 13.138-7.342 19.705a374.033 374.033 0 0 1-3.953 9.85c-.647 1.556-1.29 3.115-1.965 4.663h21.91c11.841-26.372 34.09-56.682 52.755-64.318 5.147-2.107 87.946-12.396 142.659-12.396 20.279 0 34.335 1.483 41.773 4.354 22.42 8.653 66.998 49.979 71.626 72.36h12.715c-2.648-14.087-7.645-28.066-13.655-41.425-6.592-14.43-14.511-28.43-24.12-40.675M460.312 397.092l-.029-.024-.056-.048.104.092.012.009-.03-.03z"/><path fill="#895b2e" d="m460.23 397.023.057.048.029.024.029.03-.01-.01-.105-.092zm45.65 46.056c-6.891-15.284-15.036-30-25.509-43.548-2.642-3.374-5.455-6.665-8.557-9.804a85.583 85.583 0 0 0-2.388-2.322l-.468-.421-.344-.282-.49-.365a13.286 13.286 0 0 0-1.367-.827 17.55 17.55 0 0 0-2.248-.98c-2.699-.945-4.917-1.335-7.157-1.718-8.79-1.332-17.019-1.583-25.35-1.81-16.578-.327-32.998.115-49.41.777-32.806 1.402-65.493 3.833-98.146 7.173-16.327 1.696-32.638 3.624-48.96 6.082-8.164 1.242-16.325 2.605-24.542 4.328-4.113.874-8.23 1.822-12.447 3.046-2.113.62-4.242 1.298-6.505 2.205-1.134.461-2.303.976-3.596 1.686-.65.36-1.332.771-2.098 1.329-.754.563-1.626 1.254-2.617 2.508l-.026.032a115.895 115.895 0 0 0-6.597 9.29c-2.062 3.181-4.031 6.397-5.843 9.667-3.671 6.52-6.921 13.143-9.919 19.798-2.94 6.678-5.623 13.394-7.92 20.215a229.448 229.448 0 0 0-3.25 10.266c-.51 1.72-1.005 3.438-1.468 5.17l-.682 2.594-.304 1.297c-.03.224.417.58 1.485 1.19l.288.14h14.895c.676-1.547 1.319-3.106 1.965-4.663a371.52 371.52 0 0 0 3.951-9.85c2.58-6.567 4.907-13.188 7.345-19.704 2.39-6.532 4.887-12.96 7.784-19.088 1.47-3.052 2.998-6.05 4.702-8.914 1.658-2.752 3.4-5.353 5.316-7.948.082-.053.187-.116.307-.183.493-.28 1.19-.607 1.946-.916 1.522-.626 3.283-1.211 5.08-1.748 3.621-1.077 7.46-1.996 11.329-2.84 7.759-1.68 15.703-3.063 23.676-4.327 15.96-2.508 32.086-4.521 48.233-6.299 32.312-3.514 64.784-6.135 97.235-7.726 16.216-.76 32.462-1.293 48.545-1.075 7.984.15 16.125.406 23.498 1.49 1.785.274 3.596.65 4.755 1.06.211.074.372.142.472.19.647.597 1.292 1.21 1.923 1.844 2.658 2.653 5.185 5.56 7.593 8.598 9.609 12.244 17.53 26.245 24.127 40.675 6.012 13.36 11.007 27.338 13.656 41.425h12.799c-1.29-7.964-3.274-15.673-5.67-23.2-2.574-8.029-5.614-15.86-9.028-23.517"/><path fill="#fff8ee" d="M421.593 422.231c-6.85-2.644-20.285-3.983-39.93-3.983-55.048 0-136.29 10.41-140.732 12.071-16.702 6.833-37.466 35.004-48.956 59.472h297.902c-4.65-19.242-46.08-58.994-68.274-67.56"/><path fill="#e5d0ae" d="M423.435 417.427c-7.438-2.871-21.494-4.354-41.773-4.354-54.713 0-137.512 10.29-142.659 12.396-18.664 7.636-40.913 37.947-52.755 64.318h5.727c11.49-24.467 32.252-52.637 48.954-59.47 4.444-1.663 85.686-12.073 140.733-12.073 19.646 0 33.081 1.341 39.93 3.984 22.194 8.566 63.624 48.319 68.292 67.56h5.178c-4.646-22.382-49.224-63.708-71.644-72.36"/><path fill="#ba8449" d="M525.167 419.556c-3.128 6.256-19.301 22.958-32.982 19.051-7.173-2.049-5.85 35.874 10.632 51.18h29.925c8.223-13.066 21.1-53.282 22.565-57.436 1.706-4.833-27.01-19.05-30.14-12.795"/><path fill="#895b2e" d="M556.858 429.069c-.372-8.264-5.527-14.112-14.15-16.052-6.934-1.56-16.27-.264-18.574 4.088-4.58 8.65-10.28 19.417-38.435 20.65a3.41 3.41 0 0 0-3.258 3.56c.082 1.881 1.672 3.31 3.558 3.258 29.395-1.288 37.932-12.56 44.05-24.056 1.38-1.027 8.193-2.348 13.8-.014 3.972 1.655 6 4.557 6.192 8.873.72 16.013-15.926 45.525-25.046 60.41h7.99c10.298-17.2 24.614-44.258 23.873-60.717"/><g clip-path="url(#e)" opacity=".15" transform="matrix(1.706 0 0 -1.706 -328.952 893.265)"><path fill="#e3ab5e" d="M485.34 236c10.666 2.499 20.166 13.166 20.999 28.499.154 2.844-5.667 8.334-5.667 9.834s18-.333 18.834-4.5S508.341 240.167 504.34 236s-25.242-1.463-19 0"/></g><path fill="#fcd4c3" d="M513.512 401.937c-2.274 15.922 28.89 37.92 49.759 37.247 17.628-.568 37.247-8.815 34.403-18.481-2.909-9.888-19.904 1.706-21.325-5.118s19.904-19.336 11.374-28.434c-7.875-8.399-17.06 13.363-26.443 10.236-9.301-3.1 1.817-24.394-9.668-25.59-13.648-1.421-8.53 29.002-18.766 29.57-7.385.41-18.592-4.62-19.334.57"/><path fill="none" stroke="#f8a38f" stroke-miterlimit="10" stroke-width="3.412" d="M513.512 401.937c-2.274 15.922 28.89 37.92 49.759 37.247 17.628-.568 37.247-8.815 34.403-18.481-2.909-9.888-19.904 1.706-21.325-5.118s19.904-19.336 11.374-28.434c-7.875-8.399-17.06 13.363-26.443 10.236-9.301-3.1 1.817-24.394-9.668-25.59-13.648-1.421-8.53 29.002-18.766 29.57-7.385.41-18.592-4.62-19.334.57z"/><g clip-path="url(#f)" opacity=".5" transform="matrix(1.706 0 0 -1.706 -328.952 893.265)"><path fill="#fcd4c3" d="M498.94 288.04c1.979-1.458 8.979-3.459 10.146-.876s2.166 7.625 1.333 8.375c-.541-2.375-1.311-6.884-3.958-7.895-2.021-.771-6.125.167-7.521.396"/></g><g clip-path="url(#g)" opacity=".5" transform="matrix(1.706 0 0 -1.706 -328.952 893.265)"><path fill="#fcd4c3" d="M518.46 298.04c-.354-1.646-1.625-9.459 2.333-10.543 3.508-.961 6.042 1.167 8.75 5.625-1.458-1.417-5.208-4.645-8.208-3.374-2.741 1.161-3.104 4.292-2.875 8.292"/></g><g clip-path="url(#h)" opacity=".25" transform="matrix(1.706 0 0 -1.706 -328.952 893.265)"><path fill="#fcd4c3" d="M500.88 276.96c20.5 9.999 24.667-6.293 23.667-9.626-8-1.416-22.417 6.959-23.667 9.626"/></g><g clip-path="url(#i)" opacity=".5" transform="matrix(1.706 0 0 -1.706 -328.952 893.265)"><path fill="#fcd4c3" d="M530.75 283.4c-3.542-3.938-1.752-7.074.458-7.479 2.958-.542 6.542 2.338 6.083 2.375-.812.063-6.353-1.896-7.416.875-.802 2.089.479 3.292.875 4.229"/></g><g clip-path="url(#j)" opacity=".15" transform="matrix(1.706 0 0 -1.706 -328.952 893.265)"><path fill="#e3ab5e" d="M296.83 257.17c65.75-37.75 196.48.562 189.5 13-9.167 16.333-12.834 26.709-32.959 25.709s-149-11.25-154.25-15.25c-5.249-4-10.897-18.518-2.29-23.459"/></g><path fill="#fff8ee" d="M422.098 67.124c50.327-4.692 79.757-56.866 110.465-48.763-20.472 12.795-40.946 38.527-69.521 80.75-6.712 9.916-54.652-30.71-40.944-31.987"/><path fill="none" stroke="#e5d0ae" stroke-linecap="round" stroke-linejoin="round" stroke-miterlimit="10" stroke-width="5.118" d="M422.098 67.124c50.327-4.692 79.757-56.866 110.465-48.763-20.472 12.795-40.946 38.527-69.521 80.75-6.712 9.916-54.652-30.71-40.944-31.987z"/><path fill="#ba8449" d="M107.334 55.619c22.746-21.04 63.409-12.845 96.389-.853 18.766 6.824 43.076 1.28 44.782 5.118 4.028 9.065-20.258 27.509-40.304 27.082s-53.1-37.745-100.867-31.347"/><path fill="none" stroke="#895b2e" stroke-linecap="round" stroke-linejoin="round" stroke-miterlimit="10" stroke-width="3.412" d="M107.334 55.619c22.746-21.04 63.409-12.845 96.389-.853 18.766 6.824 43.076 1.28 44.782 5.118 4.028 9.065-20.258 27.509-40.304 27.082s-53.1-37.745-100.867-31.347z"/><path fill="#fcd4c3" d="M456.64 91.868c11.516 3.412 55.446-82.741 76.77-74.211 67.855 27.142-20.471 130.935-48.62 133.068s-34.743-60.81-28.15-58.857"/><path fill="none" stroke="#f8a38f" stroke-miterlimit="10" stroke-width="3.412" d="M456.64 91.868c11.516 3.412 55.446-82.741 76.77-74.211 67.855 27.142-20.471 130.935-48.62 133.068s-34.743-60.81-28.15-58.857z"/><path fill="#fcd4c3" d="M211.4 81.632c-18.766 8.103-85.3-61.416-113.45-16.634-18.526 29.477 37.533 89.139 77.624 95.536s45.74-83.183 35.826-78.902"/><path fill="none" stroke="#f8a38f" stroke-miterlimit="10" stroke-width="3.412" d="M211.4 81.632c-18.766 8.103-85.3-61.416-113.45-16.634-18.526 29.477 37.533 89.139 77.624 95.536s45.74-83.183 35.826-78.902z"/><g clip-path="url(#k)" transform="matrix(1.706 0 0 -1.706 -328.952 893.265)"><path fill="#fcd4c3" d="M491.17 503.5c-2.167-6.917-19.917-24.833-17.417-40.25.919-5.666 6.999-22.584 9.583-21.917s9.083 4.667 8.5 3.75-9-7.166-12.25-8.75c-3.083 1.667-16.597 32.765-14.666 34.5 5.75 5.167 23.75 32.334 26.25 32.667"/></g><g clip-path="url(#l)" transform="matrix(1.706 0 0 -1.706 -328.952 893.265)"><path fill="#fcd4c3" d="M250.83 484.5c12 7.333 34 4.25 46.75-8.25 4.542-4.453 5.834-19.583-4.416-29.917-4.067-4.101 24.167 14.5 24.25 19.917.083 5.416-1.836 6.953-6 8.5-15.48 5.75-31.771 18.916-45.917 18.625-9.1-.187-13.417-6.542-14.667-8.875"/></g><g clip-path="url(#m)" opacity=".25" transform="matrix(1.706 0 0 -1.706 -328.952 893.265)"><path fill="#fcd4c3" d="M496 507.38c27.375-15.125-16.75-38-13.5-66.5-5.75.625-19.891 28.191-16.375 30.625C471 474.88 491.412 508.65 496 507.38"/></g><path fill="#e5d0ae" d="M156.412 185.548c.754-3.41 1.182-6.898 1.445-10.45.278-3.545.509-7.13 1.152-10.618.208-1.777.772-3.456 1.54-5.068.68-1.64 1.276-3.305 1.933-4.95a278.82 278.82 0 0 1 4.064-9.814c5.75-12.952 12.703-25.394 20.794-36.959 8.061-11.582 17.217-22.328 27.624-31.72 10.365-9.432 22.362-17.104 35.312-22.449 12.927-5.413 26.645-8.738 40.48-10.432 13.838-1.778 27.791-2.14 41.64-1.93 13.879.152 27.791.929 41.645 2.809 13.84 1.902 27.662 4.84 41.006 9.756 6.665 2.454 13.194 5.436 19.426 9.052a93.42 93.42 0 0 1 17.374 13.027 86.592 86.592 0 0 1 13.808 16.967c3.842 6.22 6.838 12.892 9.21 19.675 2.374 6.788 4.11 13.7 5.605 20.53 1.52 6.82 2.641 13.63 4.241 20.049.81 3.238 1.684 6.227 2.913 9.224a495.579 495.579 0 0 1 3.742 9.685 1012.573 1012.573 0 0 1 7.133 19.515c9.08 26.168 16.924 52.884 21.847 80.218 2.416 13.658 4.078 27.482 4.332 41.345.19 13.834-.964 27.806-4.973 41.046-.962 3.315-2.13 6.563-3.416 9.76-1.226 3.236-2.973 6.2-4.08 9.53-.575 1.658-1.118 3.366-1.91 4.934-.788 1.573-1.746 3.043-2.7 4.519a89.173 89.173 0 0 1-6.287 8.482c-9.09 10.833-20.642 19.52-33.023 26.291-12.423 6.768-25.64 11.853-39.09 15.745-13.456 3.912-27.11 6.872-40.807 9.357-13.697 2.472-27.453 4.441-41.225 6.104-6.884.847-13.781 1.529-20.677 2.2l-10.354.941c-3.395.288-6.933.61-10.481.797-28.339 1.563-56.6-2.479-83.644-10.031a309.08 309.08 0 0 1-39.702-14.097c-12.89-5.627-25.445-12.092-37.346-19.902-5.938-3.931-11.722-8.174-17.142-13.167a76.666 76.666 0 0 1-3.956-3.927 149.967 149.967 0 0 1-3.606-4.054 125.61 125.61 0 0 1-6.683-8.537c-8.446-11.75-14.728-25.568-16.888-40.224-2.226-14.654-.288-29.556 3.92-43.249 4.223-13.753 10.457-26.543 17.324-38.728 6.885-12.187 14.46-23.817 21.548-35.529 3.559-5.84 6.991-11.71 9.992-17.676 2.987-5.974 5.59-11.97 6.954-18.107l-.024.051zm10.156 2.36c-1.747 7.323-4.81 14.024-8.06 20.318-3.299 6.302-6.891 12.307-10.498 18.242-7.278 11.822-14.663 23.375-21.197 35.285-6.532 11.879-12.345 24.094-15.99 36.805-3.682 12.667-5.067 25.836-2.993 38.496 1.959 12.677 7.442 24.657 15.119 35.214a113.257 113.257 0 0 0 6.11 7.702 144.499 144.499 0 0 0 3.288 3.651 65.335 65.335 0 0 0 3.383 3.352c4.726 4.354 10.088 8.307 15.646 11.975 11.164 7.319 23.212 13.53 35.589 18.918a297.451 297.451 0 0 0 38.202 13.53c13.02 3.632 26.281 6.377 39.651 8.068 13.365 1.692 26.844 2.39 40.235 1.728 3.338-.157 6.667-.44 10.142-.713l10.246-.872c6.834-.6 13.653-1.309 20.469-2.003 13.629-1.42 27.212-3.14 40.688-5.347 13.475-2.199 26.838-4.928 39.947-8.427 13.085-3.54 26.008-7.626 38.27-13.191 12.223-5.56 23.885-12.6 33.486-22.122a85.78 85.78 0 0 0 6.766-7.542c1.073-1.315 2.039-2.704 3.087-4.05 1.059-1.337 2.251-2.612 3.347-3.968 2.217-2.708 3.425-5.986 4.771-9.148 1.29-3.195 2.338-6.486 3.24-9.807 3.444-13.352 4.245-27.244 3.29-40.915-.89-13.7-3.341-27.242-6.58-40.559-6.499-26.653-15.943-52.48-26.016-77.993a991.176 991.176 0 0 0-7.709-19.09l-3.96-9.51c-1.441-3.362-2.57-6.989-3.482-10.423-1.808-6.944-3.134-13.716-4.577-20.358-1.44-6.634-3.072-13.12-5.242-19.356-4.305-12.456-10.908-23.869-20.18-32.994-9.25-9.129-20.773-16.004-33.124-21.074-12.38-5.069-25.589-8.392-38.976-10.712-13.407-2.302-27.041-3.614-40.718-4.274-13.696-.59-27.397-.684-40.96.75-13.53 1.5-26.948 4.424-39.489 9.655-12.516 5.24-24.102 12.64-34.046 21.862-9.943 9.247-17.901 20.484-24.036 32.522-6.143 12.065-10.587 24.877-14.28 37.815a274.773 274.773 0 0 0-2.647 9.746c-.396 1.638-.841 3.259-1.158 4.919-.159.829-.266 1.675-.5 2.482-.215.812-.57 1.583-.892 2.366-1.258 3.138-2.836 6.205-4.252 9.342-1.438 3.13-2.618 6.345-3.391 9.658l-.014.06z"/><path fill="#fff8ee" d="M161.503 186.694c-10.806 47.768-105.204 123.4-33.552 200.745 24.404 26.34 103.58 66.642 183.105 59.142 206.562-19.477 258.749-69.378 171.743-283.196-14.146-34.763 1.706-114.868-150.128-119.418-63.75-1.925-140.42 6.82-171.163 142.722"/><path fill="#e5bfa1" d="M197.356 93.219c6.578-10.253 15.511-18.708 25.33-25.58 9.846-6.894 20.691-12.179 31.891-16.256 22.478-8.116 46.313-11.44 69.958-11.987 23.613-.431 47.48 1.25 70.746 7.304 11.6 3.053 23.009 7.281 33.731 13.068 10.704 5.792 20.655 13.221 29.16 22.1 8.512 8.87 15.551 19.135 20.916 30.1 5.359 10.978 9.192 22.553 11.958 34.222 2.765 11.676 4.498 23.468 6.11 35.012.8 5.762 1.56 11.499 2.664 16.892.558 2.678 1.213 5.288 2.066 7.513.213.554.438 1.078.67 1.563l.176.348.18.34.518.917 2.176 3.907c11.354 20.932 19.923 43.772 23.021 67.663 1.568 11.911 1.778 24.027.39 35.968-1.383 11.935-4.368 23.67-8.894 34.747a132.008 132.008 0 0 1-7.875 16.076 152.994 152.994 0 0 1-2.283 3.828c-.812 1.297-1.465 2.414-2.453 3.86-.152.202-.261.373-.594.736-.742-.459 1.128 1.824-4.09.065-1.28-2.327-.471-1.883-.68-2.293.111-.767.222-1.049.333-1.472l.682-2.172 1.364-4.162c3.56-11.014 6.57-22.206 7.866-33.615.609-5.693.776-11.436.12-17.055-.657-5.598-2.195-11.123-5.18-15.777a25.681 25.681 0 0 0-2.496-3.29 83.524 83.524 0 0 0-2.95-3.12 76.248 76.248 0 0 0-6.383-5.725c-4.453-3.591-9.39-6.55-14.599-8.873-10.454-4.657-22.024-6.324-33.439-5.978-11.454.386-22.773 2.765-33.87 5.89-5.56 1.553-11.068 3.331-16.636 5.119-2.793.887-5.589 1.784-8.508 2.573-1.472.392-2.93.755-4.575 1.03-1.553.234-2.948.4-4.434.587-11.712 1.43-23.547 2.115-35.4 1.832-11.846-.292-23.722-1.527-35.38-4.023-11.647-2.521-23.073-6.26-33.923-11.322-10.845-5.059-21.113-11.424-30.41-19.002-9.264-7.61-17.568-16.37-24.717-25.965-14.303-19.211-23.903-41.656-28.637-64.978-2.334-11.68-3.434-23.625-2.916-35.6.283-5.982 1.003-11.979 2.397-17.892 1.41-5.884 3.468-11.793 6.885-17.1l.018-.035zm5.082 3.257c-2.902 4.54-4.744 9.82-6.017 15.263-1.257 5.456-1.914 11.101-2.151 16.77-.481 11.355.776 22.815 3.177 33.977 4.831 22.345 14.497 43.638 28.207 61.795 6.853 9.079 14.772 17.336 23.585 24.488a139.54 139.54 0 0 0 28.71 18.189c10.274 4.88 21.141 8.527 32.285 11.02 11.136 2.53 22.551 3.96 34.026 4.43 11.48.469 23.019.001 34.493-1.2l4.253-.483c1.239-.17 2.626-.465 3.98-.793 2.737-.658 5.521-1.467 8.312-2.276 5.59-1.63 11.238-3.289 16.958-4.724 11.435-2.86 23.239-4.82 35.15-4.8 11.884-.072 23.912 2.12 34.767 7.122 5.435 2.462 10.522 5.652 15.205 9.324a79.04 79.04 0 0 1 6.68 5.91 88.453 88.453 0 0 1 3.084 3.218 29.797 29.797 0 0 1 2.86 3.622c3.44 5.144 5.2 11.139 6.021 17.076.817 5.967.748 11.969.24 17.882-1.004 11.843-3.73 23.408-7 34.688l-1.214 4.204-.545 2.028c-.074.281-.156.706-.137.664-.223-.234.556.407-.631-1.758-5.043-1.663-3.025.4-3.65-.167-.086.094.016-.034.074-.13.62-.987 1.404-2.413 2.088-3.62a153.235 153.235 0 0 0 2.046-3.78 125.998 125.998 0 0 0 6.878-15.644c7.781-21.436 9.243-44.76 5.347-67.053-1.906-11.17-5.128-22.096-9.185-32.702-4.043-10.62-9.074-20.871-14.704-30.797l-2.138-3.707-.573-.983-.345-.617-.326-.624a31.225 31.225 0 0 1-1.095-2.44c-1.28-3.212-2.059-6.278-2.743-9.298-1.322-6.024-2.17-11.858-3.06-17.642-1.681-11.553-3.402-22.877-6.072-33.911-2.64-11.023-6.111-21.764-10.973-31.787-4.816-10.03-10.937-19.368-18.48-27.458-15.048-16.285-35.47-27.11-57.222-33.337-21.837-6.303-44.964-8.424-67.964-8.448-22.954.1-46.038 2.83-67.713 10.112-10.802 3.652-21.22 8.48-30.638 14.798-9.4 6.305-17.727 14.236-23.868 23.602l.013-.022z"/><path fill="#895b2e" d="M194.217 91.8c3.828-6.052 8.394-11.047 13.249-15.568 4.865-4.505 10.064-8.482 15.468-12.07 10.816-7.168 22.448-12.788 34.467-17.148 24.105-8.588 49.743-11.947 74.891-11.243 24.896.684 50.182 3.847 74.262 12.514 11.997 4.341 23.625 10.144 34.151 17.69 10.533 7.52 19.875 16.82 27.385 27.346 7.542 10.516 13.249 22.163 17.444 34.13 4.21 11.982 6.914 24.294 8.944 36.509 1.017 6.11 1.863 12.205 2.706 18.22.855 5.995 1.67 11.978 2.919 17.514.626 2.743 1.394 5.404 2.376 7.472l.183.374.193.361.537.963 1.135 2.037 2.212 4.108a240.71 240.71 0 0 1 8.092 16.84c4.952 11.442 8.992 23.33 11.735 35.553 2.728 12.216 4.173 24.76 4.025 37.313-.224 25.077-7.11 50.2-20.407 71.393l-.002.002a3.408 3.408 0 0 1-6.118-2.962l.03-.075c3.606-9.156 7.43-18.007 10.389-27.066 2.951-9.02 5.155-18.263 5.201-27.344.098-9.057-2.357-17.791-7.68-24.692-.333-.428-.665-.872-.993-1.25l-.493-.594-.606-.683a37.53 37.53 0 0 0-2.279-2.337c-1.612-1.529-3.38-2.997-5.208-4.417-3.672-2.834-7.606-5.48-11.628-8.016-16.183-10.115-33.535-18.836-50.914-27.366-17.429-8.49-35.065-16.647-52.738-24.771-35.362-16.233-70.869-32.314-105.859-49.94-17.47-8.883-34.835-18.075-51.663-28.826-8.391-5.444-16.68-11.173-24.469-18.439-3.855-3.707-7.685-7.7-10.788-13.32-1.505-2.824-2.861-6.191-3.155-10.265a19.735 19.735 0 0 1 .556-6.246c.266-1.032.611-2.04 1.027-2.997.335-.82 1.145-2.27 1.32-2.537l.086-.154zm14.293 8.787c-.467.766-.234.39-.396.68a2.939 2.939 0 0 0-.288 1.436c.012.803.373 2.11 1.134 3.577 1.52 2.975 4.335 6.282 7.447 9.33 6.338 6.155 13.998 11.746 21.837 17.012 15.8 10.511 32.718 19.889 49.78 28.951 34.222 18.069 69.423 34.65 104.432 51.728 17.52 8.521 35.04 17.092 52.425 26.033 17.356 9.008 34.678 18.145 51.284 29.059 4.138 2.763 8.22 5.657 12.171 8.876 1.974 1.616 3.915 3.311 5.789 5.181a47.484 47.484 0 0 1 2.736 2.96l.589.698.656.826c.449.556.836 1.095 1.234 1.639a45.29 45.29 0 0 1 6.933 14.525c1.43 5.183 1.909 10.516 1.759 15.714-.345 10.439-3.054 20.3-6.374 29.655-3.337 9.373-7.484 18.31-11.239 27.167l-6.089-3.035v-.002c12.06-20.477 17.838-44.27 17.403-67.866-.378-23.66-6.78-46.958-16.705-68.507a231.509 231.509 0 0 0-8.098-15.896l-4.637-8.11c-1.698-3.407-2.626-6.638-3.448-9.8-1.57-6.315-2.518-12.399-3.528-18.431-.986-6.022-1.953-11.97-3.074-17.85-2.223-11.75-5.08-23.246-9.17-34.176-4.069-10.926-9.414-21.257-16.25-30.42-6.82-9.173-15.128-17.128-24.537-23.586-9.405-6.474-19.863-11.47-30.826-15.203-21.993-7.46-45.741-10.068-69.444-10.252-11.758-.123-23.425.642-34.953 2.474-11.513 1.807-22.85 4.584-33.732 8.513-10.89 3.867-21.397 8.804-30.946 15.01-4.77 3.097-9.304 6.508-13.41 10.235-4.093 3.716-7.805 7.802-10.53 12.03l.103-.168z"/><path fill="#ba8449" d="M199.881 94.857c-28.22 43.61 5.545 211.544 182.969 188.94 18.793-2.394 81.193-35.65 123.258 11.088 23.031 25.59-8.047 90.61 0 77.197 8.957-14.928 43.503-72.505-8.103-161.217C481.458 182.42 508.67 45.24 330.96 43.677c-68.293-.6-112.311 22.178-131.079 51.18"/><g clip-path="url(#n)" opacity=".15" transform="matrix(1.706 0 0 -1.706 -328.952 893.265)"><path fill="#e3ab5e" d="M307.17 461.83c30 19.333 120.67 18 149.67-28.333 19.276-30.798-16-106.67-29-116.33-13-9.666-31.1-18.066-78.666-6.666-40.333 9.667 20.395 47.197-27 52.666-43.334 5-47.6 77.658-15 98.667"/></g><g clip-path="url(#o)" opacity=".25" transform="matrix(1.706 0 0 -1.706 -328.952 893.265)"><path fill="#e3ab5e" d="M391 387.17c0-2.301-4.402-4.166-9.834-4.166-5.431 0-9.833 1.865-9.833 4.166 0 2.302 4.402 4.167 9.833 4.167 5.432 0 9.834-1.865 9.834-4.167"/></g><path fill="#f8a38f" d="M308.642 211.71c3.838-2.558 24.31-1.705 26.87.854s8.316 13.435 1.705 17.913c-2.26 1.53-2.434-4.88-7.463-3.839-6.185 1.28-2.91 9.307-7.677 9.17-7.464-.213-.28-8.671-6.824-9.81-4.905-.852-6.005 3.783-8.104 3.413-7.25-1.28-3.876-14.12 1.493-17.7"/><g clip-path="url(#p)" transform="matrix(1.706 0 0 -1.706 -328.952 893.265)"><path fill="#f8a38f" d="M380.22 400.41c-2.875 0-5.528-.277-6.471-.905-3.147-2.099-5.125-9.625-.875-10.375a.745.745 0 0 1 .14-.013c1.043 0 1.719 2.074 3.927 2.074.213 0 .44.043.683.001 3.836-.667-.375-5.687 4-5.687h.07c2.692 0 .837 4.57 4.43 5.312.224.047.431.036.623.036 2.075 0 2.456-2.472 3.362-2.472.119 0 .248.035.39.132 3.875 2.625.5 8.996-1 10.496-.872.872-5.289 1.402-9.279 1.401m.001-1c4.525 0 8.044-.65 8.571-1.112.965-.965 2.715-4.174 2.483-6.615-.089-.932-.451-1.647-1.106-2.178-.072.094-.151.205-.218.299-.539.754-1.44 2.018-3.204 2.018a4.06 4.06 0 0 1-.826-.088c-2.515-.52-3.033-2.504-3.376-3.858-.346-1.367-.471-1.371-.887-1.371h-.005c-1.231 0-1.26.221-1.228 1.717.027 1.303.074 3.455-2.629 3.924a4.933 4.933 0 0 1-.855.061c-1.706 0-2.722-.968-3.394-1.603-.173-.164-.427-.408-.553-.475-.524.102-1.217.389-1.468 1.585-.457 2.177.971 5.755 2.778 6.96.551.367 2.594.736 5.917.736"/></g><g clip-path="url(#q)" opacity=".25" transform="matrix(1.706 0 0 -1.706 -328.952 893.265)"><path fill="#f7e8d0" d="M474.1 359.95c4.437-28.923-31.663-65.327-80.266-72.784-48.6-7.456-84.563 36.077-89 65-4.437 28.921 25.4 17.878 74 25.334 48.607 7.457 90.832 11.371 95.27-17.55"/></g><g clip-path="url(#r)" opacity=".5" transform="matrix(1.706 0 0 -1.706 -328.952 893.265)"><path fill="#d8cab2" d="M347.21 315.98c-1.358 2.16-2.143 4.604-2.922 7.008-.782 2.412-1.46 4.854-2.211 7.272-1.487 4.835-3.134 9.64-5.397 14.123-2.237 4.482-5.143 8.676-8.763 11.903-3.642 3.198-7.997 5.217-12.592 6.217h-.003l-.054-.033a2.971 2.971 0 0 0-1.856 3.789c.506 1.466 2.049 2.271 3.527 1.926 10.876-2.576 22.11-3.76 33.368-4.001 11.264-.235 22.571.46 33.804 1.81 11.236 1.356 22.406 3.364 33.459 5.891 11.04 2.542 22.02 5.558 32.694 9.204a3.001 3.001 0 0 0 2.942-5.106l-.049-.041-.002-.002c-.371-.26-.85-.707-1.306-1.178-.461-.477-.925-1-1.381-1.54a69.82 69.82 0 0 1-2.68-3.407c-1.723-2.362-3.378-4.825-4.997-7.314-3.232-4.987-6.25-10.138-9.191-15.332a317.319 317.319 0 0 1-8.28-15.874 136.933 136.933 0 0 1-3.657-8.15 69.085 69.085 0 0 1-1.556-4.156 28.279 28.279 0 0 1-.621-2.102 2.303 2.303 0 0 0-.068-.222c-.033-.097-.076-.163-.118-.243a2.054 2.054 0 0 0-.272-.349 3.418 3.418 0 0 0-.556-.452 7.606 7.606 0 0 0-1.095-.582c-2.907-1.2-5.854-1.757-8.813-2.342a154.018 154.018 0 0 0-8.906-1.406 200.969 200.969 0 0 0-17.932-1.492c-5.99-.215-12-.268-17.977.289-2.983.286-5.965.71-8.866 1.489-1.446.396-2.876.882-4.22 1.561-1.33.678-2.617 1.569-3.445 2.842m.07.047c.828-1.25 2.104-2.118 3.43-2.781 1.337-.663 2.763-1.136 4.205-1.519 2.894-.754 5.869-1.154 8.847-1.415 5.964-.491 11.964-.458 17.936-.105a200.287 200.287 0 0 1 17.837 1.901c2.953.456 5.899.967 8.809 1.616 2.882.678 5.841 1.382 8.436 2.578.314.155.618.323.869.503.259.185.421.378.387.417.157.755.356 1.499.567 2.231a69.463 69.463 0 0 0 1.43 4.317c1.034 2.838 2.18 5.623 3.334 8.402 2.33 5.551 4.854 11.011 7.471 16.429a369.592 369.592 0 0 0 8.188 16.124 175.366 175.366 0 0 0 4.513 7.928 76.01 76.01 0 0 0 2.506 3.93 37.34 37.34 0 0 0 1.436 1.96c.526.657 1.068 1.312 1.845 2.016l.006.006 2.895-5.147c-10.964-3.747-22.069-6.792-33.311-9.383-11.24-2.571-22.609-4.616-34.08-6-11.469-1.378-23.046-2.098-34.65-1.856-11.595.249-23.237 1.656-34.627 4.354l1.616 5.97h.004c5.053-3 9.579-5.799 12.968-9.906 3.471-4.041 5.876-8.814 7.778-13.558 1.895-4.766 3.258-9.718 4.541-14.621.641-2.452 1.281-4.927 1.985-7.358.742-2.411 1.512-4.876 2.836-7.033"/></g><g clip-path="url(#s)" opacity=".5" transform="matrix(1.706 0 0 -1.706 -328.952 893.265)"><path fill="#d8cab2" d="M347.23 315.99c-1.354 2.156-2.144 4.598-2.915 7.004-.76 2.418-1.414 4.865-2.143 7.291-1.462 4.843-2.995 9.686-5.189 14.231-2.147 4.549-4.922 8.667-8.508 12.097-3.578 3.424-7.976 5.889-12.685 6.889h-.003l-.027.171c-.783.269-1.199 1.204-.929 1.987.253.732 1.024 1.184 1.763 1.011 11.005-2.606 22.341-3.773 33.683-4.015 11.349-.237 22.724.478 34.016 1.834 11.294 1.364 22.514 3.387 33.614 5.925 11.092 2.554 22.102 5.58 32.85 9.251a1.5 1.5 0 0 0 1.467-2.555l-.02-.015-.003-.002c-.961-.77-1.934-1.915-2.836-3.033a73.83 73.83 0 0 1-2.637-3.538c-1.701-2.43-3.307-4.941-4.875-7.476-3.13-5.078-6.098-10.27-8.954-15.522a319.252 319.252 0 0 1-8.048-16.026c-1.258-2.71-2.472-5.442-3.577-8.211a68.754 68.754 0 0 1-1.533-4.192 29.451 29.451 0 0 1-.61-2.131c-.135-.559-.552-.836-.867-1.065a7.281 7.281 0 0 0-1.042-.562c-2.834-1.196-5.784-1.785-8.726-2.388a151.203 151.203 0 0 0-8.88-1.456 200.835 200.835 0 0 0-17.91-1.595c-5.985-.25-11.993-.298-17.965.243-2.983.28-5.963.699-8.863 1.471-1.445.393-2.874.875-4.216 1.55-1.329.674-2.613 1.559-3.441 2.827m.035.023c.828-1.255 2.108-2.129 3.434-2.796 1.339-.667 2.765-1.143 4.209-1.53 2.895-.759 5.872-1.166 8.851-1.433 5.967-.507 11.97-.469 17.947-.151 5.977.332 11.94.933 17.861 1.799 2.959.439 5.91.936 8.831 1.565 2.901.66 5.856 1.333 8.524 2.533.326.157.644.327.923.522.276.199.516.419.534.619.161.744.362 1.477.577 2.202.433 1.448.931 2.87 1.456 4.28 1.051 2.819 2.21 5.592 3.412 8.343 2.409 5.502 5.01 10.912 7.704 16.276 2.673 5.376 5.458 10.698 8.425 15.935a172.721 172.721 0 0 0 4.651 7.765 76.532 76.532 0 0 0 2.549 3.799c.923 1.249 1.816 2.476 3.133 3.662l.005.004 1.447-2.573c-10.898-3.721-21.971-6.76-33.163-9.339-11.194-2.559-22.513-4.596-33.925-5.974-11.41-1.37-22.92-2.085-34.439-1.844-11.51.247-23.05 1.45-34.312 4.116l.808 2.886.003-.001c4.94-1.927 9.422-4.943 12.874-8.822 3.506-3.84 6.042-8.377 8.033-13.053 1.965-4.705 3.441-9.568 4.75-14.462.663-2.446 1.326-4.89 2.053-7.314.749-2.41 1.515-4.853 2.843-7.014"/></g><path fill="#333" d="M263.44 354.169c13.221 20.472 120.165 6.373 121.979-1.706 4.691-20.899 43.076-94.257 55.445-104.493-22.178 7.677-136.907 44.356-230.31 22.178 42.223 13.648 42.616 68.12 52.886 84.02"/><g clip-path="url(#t)" transform="matrix(1.706 0 0 -1.706 -328.952 893.265)"><path fill="#333" d="M451.25 378.25c-10.052-3.479-52.537-17.122-96.599-17.122-12.924 0-25.983 1.174-38.401 4.122 24.75-8 24.98-39.929 31-49.25 2.957-4.578 13.914-6.207 26.391-6.207 20.226 0 44.451 4.277 45.109 7.207 2.75 12.25 25.25 55.25 32.5 61.25m-8.432-5.867c-9.785-14.716-24.002-43.229-26.798-53.92-3.708-2.031-23.159-5.67-42.379-5.67-15.297 0-22.362 2.497-23.87 4.835-1.44 2.228-2.623 6.434-3.992 11.304-2.598 9.243-6.133 21.819-14.779 30.625 7.483-.951 15.391-1.429 23.651-1.429 35.981 0 71.051 9.067 88.167 14.255"/></g><path fill="#fcd4c3" d="M307.51 364.882c-22.058 0-36.615-3.17-42.102-9.166-.423-.508-.511-3.572 1.99-9.354 6.09-14.076 25.155-38.424 57.983-40.393 2.174-.13 4.374-.196 6.544-.196 38.522 0 61.761 19.556 61.82 23.038-.43 1.05-1.09 2.627-1.881 4.524-2.076 4.965-5.203 12.45-8.001 20.808-3.397 3.081-41.857 10.74-76.354 10.74"/><path fill="#f8a38f" d="M331.925 304.067c-2.175 0-4.393.065-6.646.2-45.129 2.707-65.877 47.411-61.13 52.6 6.592 7.205 23.855 9.721 43.36 9.721 34.774 0 76.671-8 77.908-11.711 3.839-11.516 8.245-21.182 9.951-25.59 1.75-4.521-24.428-25.222-63.443-25.22m.004 3.412c34.425 0 57.473 16.545 59.981 21.279-.428 1.071-.99 2.412-1.619 3.92-2.039 4.876-5.089 12.167-7.854 20.356-5.434 3.078-41.489 10.142-74.928 10.142-20.93 0-35.317-2.966-40.603-8.359-.264-1.802 1.503-8.916 7.903-18.029 5.744-8.185 22.181-27.407 50.676-29.116 2.138-.128 4.305-.193 6.442-.193h.002"/><g clip-path="url(#u)" transform="matrix(1.706 0 0 -1.706 -328.952 893.265)"><path fill="#fcd4c3" d="M348.08 315.92c-1.73-8.188 48.082 31.749 74.916 12.582 5.5 7.333-24.166 19.918-41.5 17-14.634-2.464-29.666-11.832-33.416-29.582"/></g><path fill="#fff7e3" d="M282.206 281.234c4.265 7.677 12.368 45.209 15.78 46.062s24.31 6.824 27.296 5.544 2.778-8.526 5.971-6.397c2.56 1.706 3.839 5.118 6.398 3.838 4.579-2.29 18.34-10.662 20.472-14.5s1.706-25.164 0-42.224c-8.957 3.838-60.563 9.383-75.917 7.677"/><g clip-path="url(#v)" transform="matrix(1.706 0 0 -1.706 -328.952 893.265)"><path fill="#ffdc99" d="M402.75 363.25c-4.579-1.963-28.181-4.687-40.107-4.687-1.747 0-3.244.059-4.393.187 2.5-4.5 7.25-26.5 9.25-27 1.808-.452 11.99-3.354 15.223-3.354.343 0 .609.032.777.104 1.528.655 1.629 3.978 2.877 3.978.181 0 .386-.07.623-.228 1.271-.848 2.004-2.415 3.112-2.415.199 0 .409.051.638.165 2.684 1.342 10.75 6.25 12 8.5s1 14.75 0 24.75m-.875-1.355c.945-10.273.962-21.18.001-22.91-1.007-1.811-8.305-6.457-11.573-8.09a.474.474 0 0 0-.191-.06c-.233 0-.694.494-1.063.891-.418.447-.893.955-1.494 1.356-.395.263-.79.396-1.178.396-1.295 0-1.828-1.308-2.256-2.359-.265-.646-.626-1.533-.997-1.693-.004-.001-.105-.03-.401-.03-2.572 0-10.208 2.048-13.469 2.924-.584.157-1.052.283-1.363.363-.946 1.066-2.948 8.106-4.417 13.275-1.312 4.61-2.564 9.015-3.616 11.667a56.417 56.417 0 0 1 2.785-.062c11.478 0 32.55 2.385 39.232 4.332"/></g><g clip-path="url(#w)" transform="matrix(1.706 0 0 -1.706 -328.952 893.265)"><path fill="#eadcbe" d="M361.75 348.25c-.834 8.083 36.666 10.75 41.333 10.083.083 1.917-.333 3.25-.25 5.417-6.167-3.167-39.833-6.5-44.5-5.083.5-1 2.167-5.5 3.417-10.417"/></g><g clip-path="url(#x)" transform="matrix(1.706 0 0 -1.706 -328.952 893.265)"><path fill="#ffdc99" d="M380.46 354.37c.842-1.735 1.498-3.521 2.148-5.305a186.371 186.371 0 0 0 1.834-5.383l1.715-5.414 1.644-5.395-2.596-.742-1.246 5.548-1.296 5.496c-.448 1.827-.912 3.65-1.413 5.459-.507 1.804-1.024 3.613-1.704 5.332l.914.404z"/></g><g clip-path="url(#y)" opacity=".4" transform="matrix(1.706 0 0 -1.706 -328.952 893.265)"><path fill="#fcd4c3" d="M253.58 481.92c19.917-5.083 16.667-39.5 28.5-42.167 11.833-2.666 27.416 28.292 28.916 35.125-22.937 9.75-33.563 21.271-49.937 17.938-5.489-1.117-13.12-9.457-7.479-10.896"/></g><g clip-path="url(#z)" opacity=".5" transform="matrix(1.706 0 0 -1.706 -328.952 893.265)"><path fill="#e3ab5e" d="M308.67 381.33c25-2 45.667-3 53 4.667s10 41.666 22.166 40.833c10.192-.697 13.667-45 20.334-46.333 6.67-1.333 53.5-14.167 65.17-2.167 11.667 12 17 19.501 14.334 26.834s-71.167 30.666-85.167 31.999c-14 1.334-108.67-10.5-111-16.5-2.333-6-4.942-5.132-4.5-11.499.826-12 .66-25.834 25.66-27.834"/></g><path fill="#333" d="M317.172 156.696c3.066 0 15.207-.853 17.913 1.28 15.465 12.19 14.801 61.588 31.134 77.196 14.418 13.776 92.977 23.884 106.625 8.103s33.694-63.548 38.385-66.96 14.928-5.971 17.913-10.663.427-25.59-6.824-24.737-20.898 5.545-29.428 2.986-49.9-28.576-153.967-12.795c-9.923 1.505-20.045 0-26.87-1.706s-46.061-24.31-150.554-9.383c-10.444 1.493-24.737-2.986-29.855-2.56s-6.824 16.634-4.691 20.9 12.795 7.676 14.074 12.794 10.663 55.445 35.4 76.344c26.062 22.02 93.038 6.781 98.948 2.559 26.87-19.193 32.84-73.358 41.797-73.358"/><g clip-path="url(#A)" transform="matrix(1.706 0 0 -1.706 -328.952 893.265)"><path fill="#1a1a1a" d="M326.04 456.22c-10.724 0-23.473-.821-38.538-2.973a19.565 19.565 0 0 0-2.758-.179c-5.359 0-11.478 1.695-14.297 1.696a5.6 5.6 0 0 1-.445-.017c-3-.25-4-9.75-2.75-12.25s7.5-4.5 8.25-7.5 6.25-32.5 20.75-44.75c6.083-5.14 15.973-6.817 25.887-6.817 14.984 0 30.028 3.828 32.113 5.317 15.75 11.25 19.25 43 24.5 43 .799 0 2.649.099 4.598.099 2.434 0 5.021-.155 5.902-.849 9.065-7.146 8.676-36.101 18.25-45.25 5.403-5.163 26.18-9.447 42.552-9.447 9.232 0 17.063 1.361 19.948 4.697 8 9.25 19.75 37.25 22.5 39.25s8.75 3.5 10.5 6.25c1.715 2.695.309 14.515-3.749 14.515-.083 0-.166-.005-.251-.015-3.357-.395-9.051-2.193-13.761-2.193-1.254 0-2.437.127-3.489.443-3.85 1.155-19.114 10.458-53.765 10.46-10.359 0-22.445-.831-36.485-2.96a33.57 33.57 0 0 0-5.023-.363c-4.062 0-7.883.652-10.727 1.363-3.009.754-16.831 8.473-49.705 8.473m0-3c27.26 0 41.191-5.435 46.437-7.48 1.143-.447 1.899-.742 2.547-.904 2.65-.662 6.788-1.452 11.455-1.452 1.897 0 3.738.134 5.473.397 12.806 1.941 24.93 2.926 36.035 2.926 28.661-.002 43.571-6.417 49.937-9.156 1.279-.551 2.204-.949 2.966-1.178 1.277-.383 2.701-.569 4.351-.569 3.322 0 6.861.76 9.982 1.431 1.398.3 2.728.586 3.76.734 1.375-1.505 2.225-8.194 1.465-9.896-.638-.936-3.164-2.079-5.012-2.916-1.748-.791-3.397-1.537-4.699-2.484-1.604-1.167-3.315-4.382-8.188-14.023-4.641-9.179-10.415-20.602-14.817-25.69-1.529-1.77-6.977-3.66-17.678-3.66-15.878 0-35.928 4.267-40.48 8.616-4.153 3.97-6.351 13.102-8.477 21.934-2.388 9.92-4.643 19.29-9.988 23.503-1.362 1.074-3.538 1.493-7.759 1.493-1.236 0-2.399-.038-3.334-.067-.536-.017-.974-.032-1.264-.032-4.218 0-5.986-4.948-9.196-13.93-3.532-9.879-8.366-23.405-17.02-29.608-1.97-1.165-16.163-4.779-30.397-4.779-10.939 0-19.221 2.113-23.952 6.109-5.736 4.847-13.774 16.053-19.486 41.914a53.27 53.27 0 0 1-.289 1.271c-.698 2.794-3.384 4.538-5.753 6.078-.901.585-2.401 1.559-2.723 2.038-.531 1.379-.056 6.315.863 7.913.979-.057 2.524-.319 4.148-.594 2.868-.486 6.438-1.091 9.797-1.091 1.139 0 2.21.07 3.182.209 13.666 1.953 26.489 2.943 38.108 2.943"/></g><g clip-path="url(#B)" opacity=".5" transform="matrix(1.706 0 0 -1.706 -328.952 893.265)"><path fill="none" stroke="#333" stroke-miterlimit="10" stroke-width="4" d="M292.5 434.75c-1.39-1.787-2.25-28.5 9-35.75 7.379-4.755 38.75-3.75 45-.25 9.864 5.523 19.454 30.895 16.75 34.5-4.5 6-37 14-61.5 7.75-2.927-.747-7.5-4-9.25-6.25z"/></g><path fill="#fff" d="M170.033 151.578c-2.371 3.048-3.839 48.62 15.354 60.99 12.588 8.111 66.107 6.397 76.77.426 16.828-9.422 33.188-52.707 28.575-58.857-7.677-10.236-63.122-23.884-104.919-13.222-4.993 1.275-12.795 6.824-15.78 10.663"/><g clip-path="url(#C)" opacity=".5" transform="matrix(1.706 0 0 -1.706 -328.952 893.265)"><path fill="none" stroke="#333" stroke-miterlimit="10" stroke-width="4" d="M476.59 423.06c1.146-1.952-1.459-28.551-13.554-34.284-7.932-3.759-38.909 1.299-44.653 5.578-9.066 6.755-15.29 33.154-12.143 36.379 5.24 5.367 38.502 9.092 61.987-.278 2.805-1.119 6.919-4.937 8.363-7.395z"/></g><path fill="#fff" d="M484.1 171.518c1.956 3.33-2.488 48.708-23.122 58.488-13.532 6.413-66.38-2.216-76.179-9.516-15.466-11.524-26.084-56.56-20.715-62.063 8.939-9.156 65.684-15.51 105.75.475 4.785 1.909 11.803 8.422 14.267 12.616"/><path d="M230.917 179.215c-1.413 9.912-6.434 17.393-11.21 16.712-4.777-.682-7.505-9.269-6.093-19.177 1.415-9.912 6.432-17.395 11.212-16.712 4.775.68 7.503 9.267 6.09 19.177M435.664 190.734c1.039 9.958-2.015 18.435-6.812 18.935-4.8.501-9.532-7.167-10.569-17.122-1.039-9.958 2.01-18.435 6.812-18.936 4.797-.5 9.532 7.167 10.569 17.123"/><g clip-path="url(#D)" opacity=".3" transform="matrix(1.706 0 0 -1.706 -328.952 893.265)"><path fill="#333" d="M270.38 446.25c3.407-2.271 6.625-.875 7.375-5.375s11.132-43.74 24.125-48.25c21.25-7.375 48-.125 51.625 2.125s20.625 40.375 23.5 41.875 11.92-.168 13.875-1c5.875-2.5 16.646-43.775 19.625-45.875 13.125-9.25 55.125-8.5 57.125-6s17.771 38.587 20.625 40.75c4.125 3.125 13.625 5.25 13.875 3.875s-7.625-2.625-10-5.625-18.25-37.5-23.25-40.5c-5.012-3.007-41.809-7.95-60.375 5.125-8.87 6.25-12.37 43.875-19.37 45.875-4.55 1.3-8 1.25-11.25.375-4.38-2.875-10.5-34.75-23.625-42.875-5.209-3.225-46.083-11.077-58.25 1.625-22.75 23.75-15.875 45-23.25 48.125-5.065 2.146-6.125 4.75-6 6.625s1.75.375 3.625-.875"/></g><g clip-path="url(#E)" opacity=".3" transform="matrix(1.706 0 0 -1.706 -328.952 893.265)"><path fill="#333" d="M270.75 454.25c-2.379.865 10.25-4.375 14.875-4.125s12.5 3.625 15 4.375c2.274.683-11.75-1.875-15.25-1.625s-13.25.875-14.625 1.375"/></g><g clip-path="url(#F)" opacity=".3" transform="matrix(1.706 0 0 -1.706 -328.952 893.265)"><path fill="#333" d="M368.5 447.25c4.375-2 6.375-6.875 10.625-7.375s9.375-1.25 11.75.125 8.375 4.5 10.125 4.875-13.125-2-18.625-1.5c-5.851.532-12.25 3.625-13.875 3.875"/></g><g clip-path="url(#G)" opacity=".3" transform="matrix(1.706 0 0 -1.706 -328.952 893.265)"><path fill="#333" d="M475.38 441.38c-1.754.751 6.625-6.125 9.125-5.75s7.069 3.231 9 3.875c1.5.5-6-1.5-8.25-1.125s-8.125 2.25-9.875 3"/></g><g clip-path="url(#H)" opacity=".3" transform="matrix(1.706 0 0 -1.706 -328.952 893.265)"><path fill="#333" d="M287.75 438.62c11.125 11 37.604 7.25 42.438 6.25-31.813-2.312-32.375-4.687-37.938-10.313-.812-4.312-1.875-18.75 3.084-31.395-5.459 3.145-11.306 31.778-7.584 35.458"/></g><g clip-path="url(#I)" opacity=".3" transform="matrix(1.706 0 0 -1.706 -328.952 893.265)"><path fill="#333" d="M482.66 426.8c-9.586 12.365-36.328 12.121-41.251 11.764 31.234-6.466 31.48-8.895 36.257-15.201.24-4.382-.602-18.834-7.177-30.719 5.825 2.401 15.377 30.02 12.171 34.156"/></g><g clip-path="url(#J)" transform="matrix(1.706 0 0 -1.706 -328.952 893.265)"><path fill="#d0dddc" d="M292.81 416.38c1.104 13.042 2.25 23.438 27.938 24.25 20.586.651 37-4.187 39.416-9.125 1.525-3.114.334-17-9.979-29.688 6.688 5.938 17.223 29.174 12.625 32.126-16.75 10.75-50.062 11-62.375 6.562-2.262-.815-5.937-3.312-8.313-6.062-.312-3.25-.375-16.25.688-18.063"/></g><g clip-path="url(#K)" transform="matrix(1.706 0 0 -1.706 -328.952 893.265)"><path fill="#d0dddc" d="M293.58 415.5c3.917-25.25 50.167-17.584 52.917-16.584-.166-1.417-24.25-8.083-44.5-.333-8.138 3.114-8.866 19.811-8.417 16.917"/></g><g clip-path="url(#L)" transform="matrix(1.706 0 0 -1.706 -328.952 893.265)"><path fill="#d0dddc" d="M474.46 405.09c.504 13.079.642 23.537-24.752 27.494-20.352 3.172-37.233.382-40.239-4.221-1.895-2.904-2.416-16.831 6.263-30.687-5.909 6.713-13.515 31.066-8.59 33.43 17.942 8.615 51.035 4.777 62.711-1.138 2.143-1.086 5.485-4.015 7.505-7.036-.089-3.264-1.621-16.173-2.898-17.842"/></g><g clip-path="url(#M)" transform="matrix(1.706 0 0 -1.706 -328.952 893.265)"><path fill="#d0dddc" d="M473.58 404.31c-6.984-24.578-51.944-11.298-54.551-9.967-.009-1.428 23.076-10.997 44.124-5.79 8.457 2.093 11.229 18.573 10.427 15.757"/></g><g clip-path="url(#N)" opacity=".25" transform="matrix(1.706 0 0 -1.706 -328.952 893.265)"><path fill="#fff" d="M327.38 426a1.5 1.5 0 1 1-3 0 1.5 1.5 0 0 1 3 0"/></g><g clip-path="url(#O)" opacity=".25" transform="matrix(1.706 0 0 -1.706 -328.952 893.265)"><path fill="#fff" d="M446.38 419a1.5 1.5 0 1 1-3.001-.001 1.5 1.5 0 0 1 3.001.001"/></g><g clip-path="url(#P)" opacity=".1" transform="matrix(1.706 0 0 -1.706 -328.952 893.265)"><path fill="#d0dddc" d="M271.12 447.88c3.625-4.125 5.809-4.521 10.75-3.875 46.875 6.125 72.75 5.875 85.5-6.125 2.769-2.605 1.249 7.621-4 9-39.5 10.375-68.125 1-74.125.25s-10.5.625-18.125.75"/></g><g clip-path="url(#Q)" opacity=".1" transform="matrix(1.706 0 0 -1.706 -328.952 893.265)"><path fill="#d0dddc" d="M400.62 441.88c-1.056-1.102-.616-11.95 4.5-7.875 14.75 11.75 45.625 9 67.125 1.75-3.5 6.75-28.625 11.5-42.75 11.25-6.635-.117-26-2.125-28.875-5.125"/></g><path fill="#d0dddc" d="M506.756 154.24c0 .765-4.01 1.386-8.956 1.386s-8.957-.62-8.957-1.387 4.011-1.387 8.957-1.387 8.956.621 8.956 1.387M160.302 131.856c-.128.756-4.185.695-9.064-.136-4.876-.83-8.725-2.115-8.597-2.87.13-.755 4.187-.694 9.064.137 4.876.83 8.725 2.115 8.597 2.87"/><g clip-path="url(#R)" transform="matrix(1.706 0 0 -1.706 -328.952 893.265)"><path fill="#fff" d="M578.44 204.84c-.915 9.176-7.634 13.283-13.887 13.283-2.876 0-5.172-.82-6.025-1.174l-1.238-.525-1.033-.783c-1.48-1.125-4.016-2.613-6.342-3.461-.118 1.9-.054 4.286.216 6.289l.042.34c1.704 16.16-1.681 25.594-10.057 28.039a15.458 15.458 0 0 1-4.333.612c-5.126 0-9.624-2.446-12.573-4.583-2.467 3.117-6.592 4.858-11.701 4.858-7.66 0-13.818-3.577-16.069-9.332-.221-.563-.525-1.46-.889-2.623-4.533 9.952-13.698 13.783-22.264 13.783-8.108 0-15.936-3.147-18.902-5.377-.123-.092-.283-.204-.473-.34-7.67-5.443-13.65-12.326-17.897-20.574-2.075 7.154-6.554 13.812-14.649 18.884l-.145.09c-.212.127-.425.252-.638.371 7.92 14.077 14.92 32.731 10.736 50.493-4.463 18.946-15.599 21.775-21.839 21.775-2.561 0-5.221-.481-7.906-1.428l-.174-.061-.171-.068c-11.755-4.64-16.935-11.581-18.049-13.248-1.175-1.734-14.08-21.34-17.15-49.972a1828.47 1828.47 0 0 0-1.073-9.712c-1.837 2.58-4.789 4.938-9.58 6.387a15.574 15.574 0 0 1-4.533.668c-6.484 0-11.804-3.986-14.612-6.621l-.044.065c-2.455 3.609-6.37 5.797-10.739 6.002-.356.016-.708.024-1.059.024-6.895 0-12.438-3.054-16.491-6.485-2.602 4.533-7.317 7.328-12.914 7.328-.465 0-.896-.02-1.284-.051-.283.012-.598.02-.939.02-7.683 0-13.742-3.614-16.205-9.661a24.653 24.653 0 0 1-.635-1.826c-6.028 7.496-13.731 11.007-24.045 11.007-.32 0-.641-.003-.97-.01-6.439-.128-22.48-2.82-32.361-24.985a63.507 63.507 0 0 1-3.564-10.23c-2.182.97-4.158 1.229-5.645 1.229-5.146 0-9.003-2.946-10.904-5.714-1.538-2.245-6.371-10.168-3.997-17.869 1.275-4.138 4.284-7.317 8.475-8.953 3.707-1.446 8.362-2.865 11.894-3.873 2.164-4.918 6.029-10.588 12.899-15.811 4.873-3.703 11.058-5.58 18.383-5.58 12.301 0 24.182 5.335 25.496 5.943l.482.231.125.09c2.362-2.442 5.471-4.249 9.359-4.964a25.198 25.198 0 0 1 4.441-.397c6.658 0 11.327 3.392 15.615 9.779 3.523-5.529 9.895-8.635 17.444-8.635h.044c.404 0 .833-.32 1.285-.32 3.97 0 8.96 1.422 13.114 8.071 3.486-6.22 9.776-9.785 17.278-9.785 6.675 0 12.466 2.737 13.56 3.285l.212.11c2.254 1.2 4.091 2.214 5.593 3.076 4.975-2.663 12.539-5.576 21.824-5.576 1.579 0 3.176.087 4.748.258l.424.047.42.082c19.624 3.861 32.391 8.571 40.021 12.117 5.329-5.976 13.832-11.699 25.958-12.619a55.022 55.022 0 0 1 4.106-.156c9.943 0 17.949 2.788 23.825 5.945 1.847-2.015 4.221-3.781 7.246-5.029a14.614 14.614 0 0 1 5.613-1.129c12.204 0 17.904 14.52 19.487 19.466l2.954 7.864c2.575-2.747 5.845-4.971 10.002-6.176 2.291-.662 4.739-.998 7.273-.998 13.399 0 26.341 9.508 28.383 11.074 3.82 2.835 7.871 9.092 7.008 17.727"/><path fill="#e24b31" d="M455.45 200.81s-1.688 5.987 4.605 17.508c6.299 11.518 11.214 5.221 11.214 5.221s5.375-5.835-.767-14.591c-6.144-8.752-15.052-8.138-15.052-8.138m-48.38-8.293c-7.218-18.893-24.727-11.214-24.727-11.214s-1.997 6.758 3.687 25.651c5.683 18.889 19.044 11.515 19.044 11.515s9.215-7.062 1.996-25.952m-13.054 79.095s10.905 28.415 13.515 14.591c2.611-13.823-22.885-54.984-22.885-54.984.307 9.215 9.37 40.393 9.37 40.393m-155.89-70.802c.461 18.276 12.44 26.262 16.587 22.269 4.146-3.993 2.61-12.593-5.222-17.969-7.835-5.377-11.365-4.3-11.365-4.3m330.36 3.031c-.612 6.144-6.143 3.86-6.143 3.86s-8.908-6.903-16.741-6.133c-7.832.765-5.377 18.282-5.377 18.282s1.692 16.048-2.916 17.393c-4.607 1.345-10.292-4.181-10.292-4.181s-7.064-7.835-10.443-17.815l-.921-.308s1.074 17.509-.152 21.502c-.923 1.998-9.37 1.843-10.752-1.69-1.383-3.532-8.141-28.105-8.601-38.397 0 0-13.21-11.209-24.726-13.054-11.521-1.844-14.286 5.375-14.286 5.375s31.333 8.754 30.258 33.789c-1.076 25.034-25.268 15.78-28.005 13.721-2.648-1.99-16.788-10.52-20.913-34.135-.138-.805-.384-4.311-.384-4.311s-12.135-8.143-18.893-10.292c0 0 18.893 31.793-4.147 46.229-10.443 6.299-18.736-6.911-18.736-6.911s31.177 34.711 24.266 64.045c-3.291 13.97-10.274 15.472-16.685 13.21-9.731-3.842-13.419-9.522-13.419-9.522s-12.594-18.279-15.51-45.464c-2.919-27.184-7.22-60.052-7.22-60.052s-5.99-5.836-11.518-6.143c-5.529-.307-3.072 16.435-3.072 16.435s4.301 25.494 3.993 29.795c-.307 4.3-.614 6.605-5.683 8.139-5.068 1.539-10.596-4.913-10.596-4.913s-14.592-22.117-15.822-25.498l-.767-1.38-.768.921s10.29 30.103.461 30.563c-9.829.461-16.279-10.75-16.279-10.75s-11.212-18.739-11.673-20.889l-.767.923s4.607 21.811 3.686 27.184c-.922 5.378-5.99 4.3-5.99 4.3s-6.45.77-8.14-3.379c-1.689-4.144-7.835-31.637-8.602-40.393 0 0-16.126-11.519-26.723-11.672-10.598-.152-9.522 6.722-9.522 6.722s38.858 13.301 28.258 39.565c-4.76 6.758-10.289 8.88-18.122 8.727-7.833-.157-17.077-4.931-23.376-19.061-3.008-6.745-4.23-13.136-4.23-17.978v.002s-7.289-1.391-10.971 1.683c-3.685 3.071-5.82 0-5.82 0s-6.449-9.192-.151-11.651c6.297-2.457 16.006-4.737 16.006-4.737h-.006c.902-4 3.529-10.472 11.196-16.3 11.518-8.752 33.633 1.367 33.633 1.367l9.062 5.372s.305-8.175 6.909-9.389c6.606-1.215 9.37.089 20.889 28.041 6.757 14.285 7.218 13.555 7.218 13.555l.768.174s-5.221-27.331-3.225-34.704c1.996-7.372 10.751-6.599 10.751-6.599s4.76-1.682 8.6 11.832c3.841 13.52 11.213 27.652 11.213 27.652h.922s-3.228-27.188 1.687-36.096c4.916-8.908 17.664-2.613 17.664-2.613s8.907 4.688 10.29 6.069c0 0 10.577-8.902 25.486-7.275 33.339 6.56 45.194 15.469 45.194 15.469s5.729-14.483 23.468-15.831c20.272-1.531 31.332 11.227 31.332 11.227s-.153-8.286 6.911-11.202c7.065-2.92 11.827 12.567 11.827 12.567l11.825 31.685h1.077s.612-20.276 12.286-23.659c11.672-3.375 26.877 8.367 26.877 8.367s3.685 2.493 3.071 8.635"/></g></svg>