<svg xmlns="http://www.w3.org/2000/svg" viewBox="0 0 93 115"><defs><linearGradient id="a" x1="16.107%" x2="72.709%" y1="58.056%" y2="72.523%"><stop offset="0%" stop-color="#FFD441"/><stop offset="100%" stop-color="#FFB047"/></linearGradient><linearGradient id="b" x1="70.213%" x2="100%" y1="65.544%" y2=".8%"><stop offset="0%" stop-color="#FFD754"/><stop offset="100%" stop-color="#FFB532"/></linearGradient><linearGradient id="c" x1="22.178%" x2="22.178%" y1="65.88%" y2="9.967%"><stop offset="0%" stop-color="#FFD642"/><stop offset="0%" stop-color="#FFD441"/><stop offset="100%" stop-color="#FFB532"/></linearGradient><linearGradient id="d" x1="77.083%" x2="23.982%" y1="24.298%" y2="6.966%"><stop offset="0%" stop-color="#FFD441"/><stop offset="100%" stop-color="#FFA829"/></linearGradient></defs><g fill="none" fill-rule="nonzero"><path fill="#FFDF51" fill-opacity=".7" d="M76 113V83H47l29 30"/><path fill="#FF8900" fill-opacity=".7" d="M80 95V63H48l32 32"/><path fill="url(#a)" fill-opacity=".7" d="M61 83v32h32L61 83"/><path fill="#FFDF4F" fill-opacity=".7" d="M73 65V40H48l25 25"/><path fill="url(#b)" fill-opacity=".8" d="M86 59V27H54l32 32"/><path fill="url(#c)" fill-opacity=".8" d="M31 0v32h32L31 0"/><path fill="url(#d)" fill-opacity=".88" d="M39 49.993V18H0l32.112 32L39 49.993"/><path fill="#FFB700" fill-opacity=".7" d="M39 115V76H0l39 39"/><path fill="#FFB700" fill-opacity=".5" d="M39 82V50H7l32 32"/><path fill="#FFCD25" fill-opacity=".7" d="M48 40v32h32L48 40"/><path fill="#FF8900" fill-opacity=".7" d="M39 44V12H7l32 32M47 83v32h32L47 83"/></g></svg>