<svg xmlns="http://www.w3.org/2000/svg" xml:space="preserve" viewBox="0 0 416 286"><path fill="#303F9F" d="m84.157 143-41.279 71.5L84.157 286l41.283-71.5z"/><path fill="#3F51B5" d="m331.84 0-41.28 71.5 41.28 71.5 41.28-71.5z"/><path fill="#7986CB" d="M373.12 71.5 249.28 286h82.56l82.56-143z"/><path fill="#FF4081" d="M249.28 0 84.157 286h82.563L331.84 0z"/><path fill="#536DFE" d="M84.157 0 1.596 143l41.282 71.5L166.72 0z"/><g fill="#fff"><path fill-opacity=".2" d="m249.28 0 41.28 71.5L331.84 0z"/><path fill-opacity=".1" d="M208 71.5 249.28 0l41.28 71.5z"/><path fill="none" d="m208 71.5 41.28 71.5 41.28-71.5z"/></g><path fill-opacity=".1" d="M166.72 143 208 71.5l41.28 71.5z"/><path fill-opacity=".2" d="M166.72 143 208 214.5l41.28-71.5z"/><path fill-opacity=".3" d="m125.44 214.5 41.28-71.5L208 214.5z"/><path fill-opacity=".4" d="m125.44 214.5 41.28 71.5L208 214.5z"/><path fill-opacity=".5" d="m84.157 286 41.283-71.5 41.28 71.5z"/><g fill="#fff"><path fill-opacity=".2" d="m84.157 0 41.283 71.5L166.72 0z"/><path fill-opacity=".1" d="M42.878 71.5 84.157 0l41.283 71.5z"/><path fill="none" d="M42.878 71.5 84.157 143l41.283-71.5z"/></g><path fill-opacity=".1" d="m1.598 143 41.28-71.5L84.157 143z"/><path fill-opacity=".2" d="m1.598 143 41.28 71.5L84.157 143z"/><path fill="none" d="M125.44 214.5 84.157 143l-41.279 71.5z"/><path fill-opacity=".2" d="M125.44 214.5 84.157 286l-41.279-71.5zM373.12 71.5 331.84 0l-41.28 71.5z"/><path fill="none" d="M373.12 71.5 331.84 143l-41.28-71.5z"/><g fill="#fff"><path fill-opacity=".2" d="m331.84 143 41.28-71.5L414.4 143z"/><path fill-opacity=".1" d="m331.84 143 41.28 71.5L414.4 143z"/><path fill="none" d="m290.56 214.5 41.28-71.5 41.28 71.5z"/></g><path fill-opacity=".1" d="m290.56 214.5 41.28 71.5 41.28-71.5z"/><path fill-opacity=".2" d="m249.28 286 41.28-71.5 41.28 71.5z"/><path fill="none" d="M0-65h416v416H0z"/></svg>