<svg xmlns="http://www.w3.org/2000/svg" fill="none" aria-label="Qwik Logo" class="qwik-logo" viewBox="0 0 167 53"><path fill="currentColor" d="M81.954 46.586h-6.403V35.405c-2.115 1.453-4.501 2.17-7.063 2.17-3.473 0-6.054-.95-7.664-2.926-1.61-1.958-2.426-5.446-2.426-10.426 0-5.096.951-8.623 2.872-10.677 1.96-2.074 5.103-3.082 9.43-3.082 4.095 0 7.82.562 11.254 1.667v34.455Zm-6.403-30.308c-1.455-.446-3.085-.659-4.85-.659-2.174 0-3.726.562-4.6 1.705-.853 1.163-1.319 3.372-1.319 6.647 0 3.081.408 5.136 1.261 6.26.854 1.104 2.329 1.666 4.502 1.666 2.833 0 5.006-1.163 5.006-2.616V16.278ZM91.133 11.143c2.27 6.298 4.191 12.596 5.86 18.952 2.212-6.511 4.094-12.81 5.549-18.952h5.608a187.507 187.507 0 0 1 5.297 18.952c2.523-6.899 4.502-13.216 5.957-18.952h6.306c-2.677 9.03-5.646 17.634-8.925 25.754h-7.529c-.854-4.593-2.212-10.135-4.036-16.743-1.164 5.135-2.775 10.735-4.89 16.743h-7.528c-2.523-9.38-5.259-17.945-8.17-25.754h6.501ZM132.832 7.558c-2.833 0-3.629-.698-3.629-3.585 0-2.578.815-3.179 3.629-3.179 2.833 0 3.628.601 3.628 3.179 0 2.887-.795 3.585-3.628 3.585Zm-3.183 3.585h6.404v25.754h-6.404V11.143ZM166.303 11.143c-4.54 6.453-7.722 10.386-9.488 11.801 1.455.95 5.355 5.95 10.187 13.972h-7.374c-6.015-9.127-8.886-13.061-10.303-13.662v13.662h-6.403V0h6.403v23.235c1.455-1.066 4.638-5.097 9.547-12.092h7.431Z"/><path fill="#18B6F6" d="M40.973 52.535 32.086 43.7l-.136.019v-.097L13.051 24.959l4.657-4.495-2.736-15.697L1.991 20.851C-.221 23.08-.629 26.704.963 29.378l8.11 13.449c1.242 2.073 3.493 3.313 5.918 3.294l4.017-.039 21.965 6.453Z"/><path fill="#AC7EF4" d="m45.823 20.541-1.785-3.294-.931-1.686-.369-.659-.039.039-4.89-8.469a6.846 6.846 0 0 0-5.995-3.43l-4.288.117-12.788.038a6.847 6.847 0 0 0-5.86 3.372l-7.78 15.425L15.01 4.729l18.24 20.038-3.24 3.275 1.94 15.677.019-.039v.039h-.039l.039.038 1.513 1.473 7.354 7.19c.31.29.815-.058.602-.427l-4.54-8.933 7.916-14.63.252-.291c.097-.117.194-.233.272-.35 1.552-2.112 1.766-4.94.485-7.247Z"/><path fill="#fff" d="M33.308 24.688 15.01 4.748l2.6 15.619-4.657 4.515L31.91 43.699l-1.707-15.62 3.105-3.39Z"/></svg>