<svg xmlns="http://www.w3.org/2000/svg" viewBox="0 0 207 93"><g fill="none" fill-rule="evenodd"><g><circle cx="46.5" cy="46.5" r="46.5" fill="#2C8EBB"/><path fill="#FFF" d="M34.993 25.934c.32-.325.84-.839 1.536-1.394a13.86 13.86 0 0 1 2.046-1.36c2.436-1.313 5.19-1.427 5.19-1.427s1.164-2.825 2.261-3.925c.381-.382.931-1.086 1.656-1.446.883-.438 1.728-.488 1.728-.488s1.114-.103 1.906.488c.092.07.311.18.4.248.406.312.688.651.943 1.027.782 1.15 1.832 3.338 1.832 3.338s2.33-.981 3.787 1.117c.5.721.794 1.712 1.049 2.663.487 1.815.66 3.562.66 3.562s.72 4.681-.556 9.447c-1.275 4.766-4.073 8.54-4.073 8.54s2.631 2.62 4.184 6.682c1.553 4.063 1.195 8.128 1.195 8.128s-.243.326 2.231-1.224c2.475-1.55 5.194-2.944 8.171-3.49 2.286-.42 3.8.062 4.808.659 1.422.841 1.824 2.006 1.824 2.006s.988 2.017 0 4.137c-.988 2.12-2.862 2.526-2.862 2.526s-.97.188-3.012.912c-1.291.458-3.101 1.61-4.305 2.385-.702.451-1.24.765-1.24.765s-3.307 1.847-5.084 2.636c-1.709.76-5.373 2.01-5.373 2.01s-.812.585-1.244.8c-.469.232-1.458.54-1.458.54s-1.235.289-3.359.543c-2.591.31-6.305.57-8.496.652-2.208.083-3.034.24-4.846-.326-1.812-.566-2.632-1.514-2.632-1.514s-1.58.914-3.98.743c-2.4-.17-4.229-1.265-4.229-1.265s-.921-.31-1.805-1.68c-.883-1.371-.466-2.81-.466-2.81s-2.763-3.03-2.374-7.921c.164-2.062.836-3.45 1.521-4.572.94-1.54 1.933-2.423 1.933-2.423s-.16-5.177 1.514-8.615c.619-1.271 1.188-2.428 2.032-3.517 1.44-1.856 3.115-3.31 3.115-3.31s-2.05-3.536-1.783-6.13c.115-1.118.355-2.013.941-3.56.586-1.547 1.634-2.45 1.634-2.45s-.064-.002.428-.3c.096-.06.233-.113.374-.198.135-.081.308-.14.457-.194.176-.064.329-.122.479-.188.532-.233 1.015-.482 1.015-.482s.105-.118.327-.345Zm-1.99 4.794c-.152.26-.34.797-.34.797s-.402.98-.481 1.372c-.091.451-.09 1.36-.09 1.36s.04.598.183 1.231c.156.7.504 1.528.728 2.022.487 1.078 1.83 2.803 1.83 2.803S30.545 43.487 29 46.605c-.656 1.323-1.357 3.29-1.623 5.102-.362 2.46-.16 4.643-.16 4.643s-1.488 1.482-2.043 2.318c-.217.325-.573.795-.792 1.26-.36.762-.541 1.501-.541 1.501s-.341 1.94.118 3.735c.306 1.194.626 1.977.944 2.47.16.25.114.227.423.648.2.273.484.423.734.494.522.15.99-.149.99-.149s-.552.725-.875 1.427c-.323.702 0 1.436 0 1.436s.118.352.566.675c.368.265.996.486 1.632.689 1.412.451 3.127.23 3.127.23s1.682-.42 2.213-1.225c.577-.874 1.145-2.99 1.462-4.12.117-.42.282-.78.282-.78s.516.708.818.992c.278.263.956.713.956.713s-1.029.423-1.61 1.39c-.412.684-.587 1.83-.164 2.611 1.02 1.886 4.175 1.673 4.175 1.673s5.521-.347 8.294-.58c2.772-.232 4.91-.71 4.91-.71s.659-.228.906-.383c.283-.176.685-.608.685-.608s3.486-1.144 5.147-1.856c1.695-.727 4.922-2.462 4.922-2.462s2.878-1.852 4.791-2.92c1.913-1.067 4.4-1.581 4.4-1.581s2.168-.475 1.775-2.437c-.392-1.963-2.59-1.79-2.59-1.79s-2.16.106-3.86.806c-1.7.699-4.273 2.233-4.273 2.233s-1.943 1.255-3.624 1.931a13.41 13.41 0 0 1-3.23.838s-.131 0-.176-.025a.45.45 0 0 1-.107-.136s.048-.473.145-1.232c.067-.523.177-1.196.236-1.891.064-.763.098-1.48.08-2.255-.01-.413-.017-.916-.08-1.287-.45-2.623-.427-2.064-.719-3.119-1.344-4.864-4.886-7.649-4.886-7.649s-.229-.172-.326-.29c-.073-.089-.186-.33-.186-.33s2.145-3.014 2.934-4.521c.79-1.507 2.207-4.36 2.464-7.615.667-8.445-1.344-10.969-1.344-10.969s-.464 0-.978.192c-.515.192-1.741.848-1.741.848s-.929-2.087-1.814-3.776a40.847 40.847 0 0 0-.517-.95c-.154-.277-.289-.517-.537-.78-.494-.523-.708-.401-.708-.401s-.382-.05-.833.283c-.45.332-.97 1.045-1.235 1.441-.779 1.163-1.863 4.144-1.863 4.144s-1.194-.084-2.558.106c-.842.117-1.707.409-2.522.68-2.135.709-4.137 3.037-4.137 3.037s-.71.493-1.125.703c-.507.258-1.639.703-1.639.703s-.512.66-.71.998Z"/></g><path fill="#2C8EBB" d="M107.087 29.394c.375-.102.86-.172 1.457-.21 1.28-.084 2.1.11 2.462.583.191.233.258.55.2.952-.058.402-.15.73-.273.983-.257.532-.432.936-.525 1.212-.093.275-.199.705-.318 1.29-.371 1.516-.635 2.652-.791 3.406a84.891 84.891 0 0 0-.571 3.175c-.236 1.64-.375 2.866-.415 3.678-.041.812-.041 2.355 0 4.629.178 1.45.447 2.44.809 2.974.199.293.424.831.862 1.118.149.097.377.255.705.346.131.037.388.082.769.134.231 0 .496-.045.795-.134.452-.135.805-.33 1.05-.494a4.425 4.425 0 0 0 1.033-.97c.106-.135.268-.384.486-.748.342-.543.577-.943.704-1.201.448-.913.706-1.702.902-2.255.28-.787.597-2.04.953-3.76V32.145a9.835 9.835 0 0 0-.047-1.01 7.435 7.435 0 0 0-.196-.914c.014-.348.064-.588.149-.72.08-.124.161-.244.3-.317.172-.091.256-.165.495-.245.176-.06.527-.105 1.053-.138.519.017.903.063 1.152.138.25.074.62.242 1.114.504.447.336.749.615.905.834.156.22.316.593.48 1.117l.043.308v25.527c1.335-1.494 2.437-2.983 3.305-4.466.868-1.483 1.551-2.904 2.051-4.261-.065-1.27.003-2.686.206-4.25.204-1.562.42-2.61.648-3.145a17.714 17.714 0 0 1 2.263-5.117 19.186 19.186 0 0 1 3.674-4.193 15.909 15.909 0 0 1 4.153-2.495 17.59 17.59 0 0 1 4.766-1.194c.908-.05 1.546-.05 1.915 0 .37.051.796.198 1.282.44.642.437 1.023.876 1.144 1.318.075.274.237.592.235 1.405-.001.543-.096.971-.285 1.286-.203.133-.386.202-.548.206-.118.004-.628-.077-1.396-.122-.19-.011-.498-.011-.924 0-.553.02-.94.044-1.162.07-.565.066-.969.18-1.321.278-.56.154-1.373.49-2.44 1.01-.471.283-.802.493-.993.629-.622.442-1.05.838-1.352 1.123-.44.417-1.023 1.123-1.747 2.12-.653 1.064-1.115 1.943-1.388 2.638-.273.695-.556 1.715-.85 3.059-.1.514-.19 1.16-.266 1.938a24.65 24.65 0 0 0-.116 2.428c.06.794.119 1.36.178 1.698.06.337.177.78.353 1.326.264.596.497 1.02.701 1.271.204.251.557.552 1.06.902.623.325 1.227.48 1.811.464.584-.015 1.151-.202 1.701-.56.606-.428 1.048-.876 1.328-1.344.14-.236.309-.476.467-.785.104-.202.262-.55.474-1.046V38.356a10.706 10.706 0 0 0-.118-.976c-.034-.218-.086-.348-.113-.526a5.843 5.843 0 0 1-.043-.498c.025-.176.056-.298.091-.366.121-.232.333-.381.564-.503.333-.176.786-.268 1.36-.275a4.112 4.112 0 0 1 2.431.778c.744.522 1.16 1.262 1.25 2.22v12.346c0 .852.288 1.639.863 2.36.397.499 1.25.804 2.164.614.273-.056.668-.261 1.185-.614.364-.373.616-.657.754-.85.365-.511.595-1.04.764-1.388.16-.33.388-.801.61-1.47.097-.292.243-.813.44-1.562.332-1.332.568-2.36.708-3.083.139-.722.294-1.725.464-3.008.144-1.816.24-3.192.29-4.13.049-.938.102-2.441.16-4.511-.571-.373-.967-.65-1.188-.832a5.65 5.65 0 0 1-1.15-1.248c-.375-.574-.613-1.44-.714-2.597.063-.452.125-.772.186-.96.165-.516.418-.908.651-1.147.22-.225.493-.514 1.027-.753.128-.058.309-.159.572-.238.138-.042.398-.082.78-.122 1.13-.085 2.089.147 2.876.698.475.331.928.82 1.313 1.498.083.147.194.296.305.555.077.178.203.522.377 1.033 1.202.16 2.12.255 2.757.287.637.032 2.263.032 4.877 0 .397.143.648.26.756.355.161.14.978.76 1.244 1.038.23.241.447.524.811 1.029.243.336.394.665.454.987.057.413.057.742 0 .988-.056.246-.168.627-.337 1.143-.488 1.63-.837 2.851-1.047 3.664-.21.813-.524 2.161-.942 4.044-.339 1.708-.556 3.001-.653 3.88-.067.612-.164 1.446-.203 2.464-.011.297-.011.777 0 1.437.042 1.101.357 1.965.943 2.59.587.626 1.221.922 1.902.888.627 0 1.19-.154 1.687-.464.497-.31.97-.79 1.417-1.44.451-.675.863-1.563 1.237-2.665.373-1.1.626-2.12.759-3.057a4.97 4.97 0 0 1 .125-.575c.036-.115.098-.287.185-.514V31.85c-.04-.403-.076-.696-.107-.88l-.157-.918c.007-.32.135-.586.385-.795.249-.21.517-.34.805-.392.655-.096 1.207-.096 1.656 0 .45.096.992.335 1.627.718.413.362.69.661.828.898.138.238.275.644.41 1.22v3.44c.557-1.084.998-1.877 1.324-2.378.198-.304.439-.737.798-1.205.155-.202.434-.523.836-.964.794-.807 1.442-1.36 1.946-1.655.504-.297 1.264-.573 2.281-.83a9.352 9.352 0 0 1 2.155.082c.64.108 1.286.357 1.936.748.786.57 1.372 1.247 1.757 2.03.385.784.655 1.707.81 2.769.026.273.043.473.054.601l.043.573v15.7c0 .919.155 1.636.466 2.151.31.515.746.792 1.307.832a2.62 2.62 0 0 0 1.511-.464c.453-.31.844-.686 1.171-1.129.323-.5.546-.866.67-1.096.315-.59.516-1.123.674-1.535.144-.376.328-.901.508-1.563l.376-1.381c.072-.806.268-1.46.589-1.964.321-.504.67-.78 1.046-.828.738-.045 1.374.29 1.908 1.001.533.712.8 1.39.8 2.032-.13.76-.349 1.568-.654 2.424a32.413 32.413 0 0 1-1.022 2.52 30.493 30.493 0 0 1-.934 1.67c-.219.35-.584.88-1.095 1.59a10.536 10.536 0 0 1-1.936 1.854c-.7.513-1.4.9-2.1 1.161a7.754 7.754 0 0 1-4.565.186c-.852-.217-1.384-.568-2.045-1.136a4.89 4.89 0 0 1-1.102-1.373c-.344-.665-.578-1.21-.7-1.636-.123-.426-.23-1.068-.323-1.926V36.08c-.056-1.251-.198-2.097-.425-2.538-.227-.441-.576-.674-1.047-.7-.472-.052-1.095.287-1.868 1.02-.773.732-1.267 1.3-1.483 1.704-1.03 1.432-1.754 2.68-2.171 3.74-.213.54-.538 1.197-.78 2.002-.094.31-.242.732-.378 1.316-.062.266-.153.737-.274 1.414l-.063.368v.35l-.056 11.73c-.007.573-.17 1.023-.49 1.35-.32.327-.807.5-1.458.519-.727-.01-1.368-.149-1.922-.418-.555-.27-.943-.64-1.164-1.112a1.513 1.513 0 0 1-.276-.728 195.93 195.93 0 0 1-.082-.84c-.86.917-1.628 1.575-2.306 1.972-.385.226-.82.475-1.332.658-.259.093-.689.205-1.29.337-1.374.12-2.387.12-3.039 0-.652-.121-1.514-.469-2.588-1.044-.53-.391-.902-.698-1.116-.92-.412-.43-.728-.929-.993-1.389-.47-.817-.783-1.849-.938-3.094a30.797 30.797 0 0 1-.104-1.917c-.003-.721.08-1.34.104-1.81.042-.84.153-1.788.33-2.842.318-1.561.576-2.738.775-3.53a69.71 69.71 0 0 1 .921-3.227c.297-.97.53-1.703.7-2.202.17-.5.42-1.181.747-2.046h-6.22a160.035 160.035 0 0 1-.233 3.965c-.067.872-.186 2.092-.356 3.662-.187 1.23-.34 2.14-.46 2.733s-.31 1.377-.569 2.35c-.464 1.532-.836 2.67-1.114 3.413a17.29 17.29 0 0 1-.961 2.125c-.594 1.047-1.079 1.811-1.455 2.294-.25.32-.538.731-.961 1.148a9.143 9.143 0 0 1-.764.634c-.762.614-1.48 1.05-2.151 1.309-.672.258-1.455.419-2.348.48-.628.022-1.074.022-1.34 0-.392-.032-.784-.13-1.037-.193-.507-.126-1.114-.408-1.82-.847-.43-.291-.748-.54-.954-.749-.206-.208-.5-.575-.88-1.102-.686.717-1.301 1.257-1.844 1.622-.543.365-1.244.694-2.103.988a7.317 7.317 0 0 1-.967.239c-.218.03-.64.058-1.264.08-1.218-.075-2.122-.214-2.71-.417-.588-.203-1.34-.636-2.254-1.298a7.403 7.403 0 0 1-.831-.746c-.177-.195-.432-.536-.766-1.022-1.001 1.57-1.79 2.72-2.37 3.446-.577.726-1.533 1.77-2.867 3.132-.393.398-.694.691-.903.88-.209.19-.584.51-1.127.96v13.142c-.065 1.21-.177 2.191-.337 2.944-.16.753-.452 1.626-.878 2.62-.447.88-.955 1.587-1.524 2.123-.357.336-.755.68-1.261.976-.2.117-.537.276-1.011.477-.474.151-.828.25-1.064.298a6.869 6.869 0 0 1-1.597.125 6.91 6.91 0 0 1-1.578-.278 9.734 9.734 0 0 1-.987-.385c-.646-.407-1.09-.711-1.33-.912-.429-.357-.715-.732-.956-1.042a7.066 7.066 0 0 1-.844-1.383c-.121-.26-.292-.711-.513-1.351-.166-.594-.27-1.046-.313-1.357-.042-.312-.073-.86-.092-1.646.055-1.091.116-1.89.184-2.398.067-.508.198-1.164.394-1.968.205-.604.36-1.034.465-1.291.293-.723.588-1.29.821-1.72.358-.66.935-1.51 1.73-2.551.802-.927 1.487-1.668 2.056-2.222.568-.555 1.631-1.519 3.187-2.892v-9.126c-.797 1.28-1.509 2.209-2.135 2.787-.38.351-.835.815-1.466 1.198-.272.165-.75.387-1.433.666a5.341 5.341 0 0 1-.68.194c-.513.091-.963.09-1.259.098-.423.011-.983-.052-1.68-.191a6.53 6.53 0 0 1-1.623-.603c-.482-.261-.983-.66-1.503-1.198a7.208 7.208 0 0 1-.572-.657c-.363-.504-.614-1.005-.78-1.335-.243-.48-.519-1.252-.827-2.317-.199-.967-.322-1.718-.37-2.254-.048-.536-.063-1.337-.046-2.403.078-1.84.156-3.193.233-4.056.077-.864.215-1.928.415-3.192.364-2.105.652-3.679.864-4.722.212-1.043.432-1.969.66-2.776.085-.37.152-.636.204-.797.051-.16.111-.334.18-.52.038-.246.075-.433.11-.56.026-.091.108-.325.225-.557.078-.154.188-.29.33-.41.285-.238.571-.396.859-.473Zm10.3 38.724c-.666.73-1.12 1.252-1.36 1.565-.494.643-.795 1.215-1.008 1.572-.368.617-.69 1.431-.963 2.443-.13.416-.218.749-.266.998-.116.602-.19 1.342-.216 1.712-.032.448-.05 1.08 0 1.865.012.176.043.454.093.835.115.454.204.767.266.939.177.49.363.786.487.946.188.244.54.397 1.058.459.344-.008.595-.07.754-.187.208-.153.471-.423.614-.728.307-.653.487-1.6.54-2.84v-9.579Z"/></g></svg>