<svg xmlns="http://www.w3.org/2000/svg" viewBox="0 0 210.184 210.184"><circle cx="114.4" cy="115.6" r="105.09" fill="#050505" transform="translate(-9.306 -10.512)"/><ellipse cx="114.2" cy="115.62" fill="#fff" rx="99.922" ry="99.233" transform="translate(-9.306 -10.512)"/><path fill="#050505" fill-rule="evenodd" d="m66.916 72.083-6.944-39.227c8.402-15.831 29.09-18.153 44.588-18.273 12.782-.1 30.174 2.215 43.856 18.761l-6.152 38.739 14.131-.06-2.985 8.831-97.336.244-3.167-9.015z"/><path fill="#050505" d="M71.753 156.258c-10.655 5.184-20.67 13.259-29.03 26.704 16.825 15.115 41.433 22.803 62.625 22.833 20.187.03 40.76-7.065 61.59-22.403-8.324-13.085-18.18-22.774-29.718-27.824-19.775 10.24-41.558 10.663-65.467.69z" opacity=".99"/><g transform="matrix(.99988 .01566 -.01568 .99868 -8.174 -13.527)"><path fill="#e9a84d" d="m150.47 91.945-1.035 25.37c6.279-1.039 12.969-1.615 14.497-12.791-.322-9.39-6.004-12.914-13.461-12.578z" opacity=".99"/><ellipse cx="157.72" cy="104.25" fill="#bd5d12" opacity=".99" rx="6.154" ry="6.368"/><ellipse cx="159.09" cy="104.19" fill="#df882a" opacity=".99" rx="4.87" ry="5.57"/></g><path fill="#e9a84d" d="m68.172 81.038 1.264 25.326c-6.29-.967-12.987-1.467-14.642-12.624.214-9.393 5.917-12.952 13.378-12.702z" opacity=".99"/><path fill="#be5d13" d="M54.904 93.425a6.154 6.368-.654 0 0 6.226 6.297 6.154 6.368-.654 0 0 6.082-6.437 6.154 6.368-.654 0 0-6.227-6.297 6.154 6.368-.654 0 0-6.081 6.437z" opacity=".99"/><path fill="#de882a" d="M54.817 93.306c.035 3.076 2.244 5.606 4.933 5.575s4.841-2.549 4.806-5.625c-.035-3.076-2.244-5.545-4.933-5.514-2.69.03-4.84 2.488-4.806 5.564z" opacity=".99"/><path fill="#bf5d14" d="M63.159 82.12c-5.456 1.693-7.992 5.799-7.626 12.3 2.19-1.456 4.27-2.283 6.52-5.191 1.865-2.412 1.2-4.767 1.106-7.11z" opacity=".361"/><path fill="#f4cf8c" d="m68.159 81.127 3.687 71.566c7.633 13.128 16.854 9.66 28.695 10.58 11.855.922 20.61 10.314 36.148-8.896l4.256-73.726c-22.68-.657-50.117.222-72.79.483z" opacity=".99"/><path fill="#dd002a" d="m71.545 152 .73 17.299c3.693 2.553 7.105 5.749 10.942 7.165 18.049 6.662 35.56 5.405 53.625-7.226l.244-17.116c-10.681 7.882-21.44 11.792-32.283 11.39-17.487-.016-26.573-5.047-33.257-11.512z" opacity=".99"/><path fill="#fff" d="M101.61 113.14h6.05c-1.008-2.848-2.198-5.879-3.003-9.712-.65 3.437-1.665 6.421-2.875 9.712z" opacity=".99"/><g fill="#dd002a"><path d="M99.705 115.77c3.04-1.368 6.808-1.194 9.734-.328l1.508 2.487c-1.694.715-3.228 1.443-6.375 1.548-1.924.042-3.801-.164-6.288-1.642zM61.157 162.59c-6.896 9.257-9.5 17.752-11.284 26.101l-2.756-2.197c3.49-14.737 8.755-19.38 14.04-23.904zM148.55 162.33c5.069 8.528 9.388 17.432 10.94 26.187l3.101-2.11c-3.272-10.663-8.251-18.106-14.04-24.076z" opacity=".99"/></g><g transform="translate(-9.306 -10.512)"><path fill="#dd002a" d="M102.48 66.088c-2.344 6.987-2.074 12.07 5.117 16.629l-31.56-.122-2.68-16.446zM124.21 65.833c2.876 5.13 3.142 11.469-4.012 16.852l31.31-.06 2.68-16.22z" opacity=".99"/><path fill="#c07216" d="M102.68 153.68c7.753 3.121 15.505 3.023 23.258.172-2.64 2.988-6.033 6.516-11.543 6.547-4.987.028-9.659-2.28-11.715-6.719z" opacity=".99"/><path fill="#aa651a" d="M100.81 92.242c-2.519.052-4.918.506-7.162.77-3.83 1.841-6.115 4.179-9.076 6.455 4.566-1.96 10.205-4.679 15.229-5.42 2.507-.114 3.907.641 4.14 2.314-.545 1.034-1.319 1.808-2.68 3.473-1.933 2.367-5.836 3.302-8.222 3.775 1.374.179 1.133.174 5.664.06 2.563-.544 4.02-2.335 5.3-4.323l.458-.68.394 11.035 18.457-.123.31-10.18.056.076c1.266 1.98 2.313 3.5 5.298 4.326 4.531.113 4.29.116 5.665-.062-2.387-.473-6.289-1.409-8.223-3.776-1.36-1.665-2.135-2.438-2.68-3.472.233-1.673 1.636-2.428 4.143-2.315 5.374.041 10.769 3.243 15.227 5.422-2.961-2.276-5.49-4.555-9.319-6.396-3.852-.393-7.56-1.093-11.574-.366.226 1.546-.779 1.86-1.521 2.438l.115.955.19 11.828-14.375-.123-.428-11.852-.012-.008.012-.017c.05-.008.23-.322.305-.426-.743-.578-1.261-1.378-1.036-2.924-1.589-.383-3.143-.496-4.654-.465z" opacity=".99"/><path fill="#c2761b" d="M107.29 132.79c.516 2.017 2.397 4.717 6.891 4.48 5.417-.287 5.097-2.905 6.246-4.394-1.728.483-2.845.88-6.289 1.034-4.046.181-4.937-.561-6.848-1.12z" opacity=".99"/><path fill="#ffb000" d="m101.2 214.53.487-7.188c.34-.906 1.083-1.61 2.071-2.192l19.796-.061c1.025.792 2.23 1.108 2.802 3.106l-.06 6.761h-5.422v-4.507c0-1.158-13.644-.987-13.644-.183v4.751z" opacity=".99"/><g fill="#dd002a"><path d="M126.35 208.44c6.015-.154 13.04.323 20.344.975l-5.421 1.766c-4.879-.92-9.709-.366-14.74-.365zM101.63 208.6c-6.015-.154-13.04.323-20.344.975l5.421 1.766c4.879-.92 9.709-.366 14.74-.365zM150.45 188.87l5.168-.043c.282.406.625.68 0 1.766l-1.938.043-3.92 4.695.087 2.756 2.24.043c.434.527.369 1.125 0 1.766l-6.116.043c-.355-.65-.348-1.23-.13-1.766h2.154v-2.842l-3.618-4.566-2.153-.043c-.193-.446-.605-.736-.043-1.723l5.168-.086c.332.657.363 1.542-.43 1.637l2.153 2.713 1.852-2.584c-1.255-.968-.49-1.422-.474-1.81z" opacity=".99"/></g><path fill="#ab661b" d="m77.428 91.532.208 3.552 72.374.091.304-4.014c-11.926-.23-24.502-.327-35.425-.19-12.707.16-25.132.634-37.462.561z" opacity=".707"/><circle cx="113.62" cy="72.275" r="5.133" fill="none" stroke="#dd002a" stroke-linejoin="round" stroke-width="5.44"/><path d="M114.4 65.4a.43.43 0 0 0-.273.105.724.724 0 0 0-.178.24c-.096.193-.147.45-.147.71 0 .26.051.517.147.71.492 1.051.487 1.05.904 0 .096-.192.147-.45.147-.71s-.051-.518-.147-.71a.723.723 0 0 0-.179-.24.43.43 0 0 0-.273-.104zm-1.75 0a.43.43 0 0 0-.273.105.724.724 0 0 0-.179.24c-.095.193-.146.45-.146.71 0 .26.05.517.146.71.493 1.051.488 1.05.905 0 .095-.192.146-.45.146-.71s-.05-.518-.146-.71a.723.723 0 0 0-.18-.24.43.43 0 0 0-.273-.104zM106.65 71.574c0 .104.044.2.105.273a.725.725 0 0 0 .24.178c.192.096.45.147.71.147.26 0 .517-.051.71-.147 1.051-.492 1.05-.487 0-.904-.192-.096-.45-.147-.71-.147s-.518.051-.711.147a.723.723 0 0 0-.24.179.429.429 0 0 0-.104.273zm0 1.75c0 .105.044.2.105.273a.725.725 0 0 0 .24.179c.192.095.45.146.71.146.26 0 .517-.05.71-.146 1.051-.492 1.05-.487 0-.905-.192-.095-.45-.146-.71-.146s-.518.05-.711.146a.723.723 0 0 0-.24.18.429.429 0 0 0-.104.273zM112.82 79.324a.43.43 0 0 0 .274-.105.725.725 0 0 0 .178-.24c.096-.192.147-.45.147-.71 0-.26-.051-.517-.147-.71-.492-1.051-.487-1.05-.904 0-.096.193-.147.45-.147.71s.051.518.147.711a.723.723 0 0 0 .179.24.429.429 0 0 0 .273.104zm1.751 0a.43.43 0 0 0 .273-.105.725.725 0 0 0 .179-.24c.095-.192.146-.45.146-.71 0-.26-.05-.517-.146-.71-.493-1.051-.488-1.05-.905 0-.095.193-.146.45-.146.71s.05.518.146.711a.723.723 0 0 0 .18.24.429.429 0 0 0 .273.104zM120.57 73.15a.43.43 0 0 0-.104-.272.725.725 0 0 0-.24-.18 1.658 1.658 0 0 0-.71-.146c-.26 0-.517.051-.71.147-1.051.492-1.05.487 0 .905.192.095.45.146.71.146s.518-.051.711-.146a.723.723 0 0 0 .24-.18.429.429 0 0 0 .103-.273zm0-1.75a.43.43 0 0 0-.104-.273.725.725 0 0 0-.24-.179 1.658 1.658 0 0 0-.71-.146c-.26 0-.517.05-.71.146-1.051.493-1.05.488 0 .905.192.096.45.147.71.147s.518-.051.711-.147a.723.723 0 0 0 .24-.179.429.429 0 0 0 .103-.273zM119.09 67.997a.43.43 0 0 0-.267-.12.724.724 0 0 0-.295.043c-.204.07-.422.215-.606.4-.184.183-.33.401-.399.605-.395 1.091-.397 1.086.64.64.204-.069.422-.215.606-.399s.33-.402.399-.606c.034-.102.05-.2.042-.296a.427.427 0 0 0-.12-.267zm-1.237-1.238c-.074-.074-.172-.111-.267-.12s-.194.009-.296.043c-.204.07-.422.216-.606.4-.184.183-.33.401-.399.605-.395 1.092-.397 1.087.64.64.204-.069.422-.215.606-.399s.33-.402.4-.606c.034-.102.05-.2.042-.296a.427.427 0 0 0-.12-.267zM109.24 66.882a.43.43 0 0 0-.119.267.725.725 0 0 0 .043.295c.07.204.215.422.399.606.184.184.402.33.606.4 1.091.394 1.086.396.64-.64-.07-.204-.215-.423-.4-.607s-.401-.33-.605-.399a.723.723 0 0 0-.296-.042.427.427 0 0 0-.267.12zm-1.237 1.237a.43.43 0 0 0-.12.268.725.725 0 0 0 .043.295c.07.204.215.422.4.606.183.184.401.33.605.399 1.092.395 1.086.397.64-.64-.069-.204-.215-.422-.399-.606s-.402-.33-.606-.399a.723.723 0 0 0-.296-.042.427.427 0 0 0-.267.12zM108.13 76.727a.43.43 0 0 0 .268.119.725.725 0 0 0 .295-.043c.204-.07.422-.215.606-.399.184-.184.33-.402.399-.606.395-1.091.397-1.086-.64-.64-.204.07-.422.215-.606.4s-.33.401-.399.605a.723.723 0 0 0-.042.296.427.427 0 0 0 .12.267zm1.238 1.237a.43.43 0 0 0 .267.12.725.725 0 0 0 .296-.043c.204-.07.422-.215.606-.4.184-.183.33-.401.399-.605.395-1.091.397-1.086-.64-.64-.204.069-.422.215-.606.4s-.33.401-.4.605a.723.723 0 0 0-.042.296.427.427 0 0 0 .12.267zM117.97 77.842a.43.43 0 0 0 .12-.267.725.725 0 0 0-.043-.296 1.658 1.658 0 0 0-.4-.606 1.657 1.657 0 0 0-.605-.399c-1.091-.395-1.086-.397-.64.64.07.204.215.422.4.606s.401.33.605.399c.102.035.2.05.296.043a.427.427 0 0 0 .267-.12zm1.238-1.238a.43.43 0 0 0 .12-.267.725.725 0 0 0-.043-.296 1.658 1.658 0 0 0-.4-.606 1.657 1.657 0 0 0-.605-.399c-1.092-.395-1.086-.397-.64.64.069.204.215.422.399.606s.402.33.606.4c.102.034.2.05.296.042a.427.427 0 0 0 .267-.12z"/></g><g transform="translate(-9.306 -10.512)"><path fill="#4f1907" d="M113.32 113.25c9.778-6.067 19.29-7.07 32.714-1.132 9.84 5.898 14.508 14.135 19.248 22.903-11.665 6.401-22.486 7.405-32.526 3.41-10.285-6.023-17.903-13.97-19.435-25.18z"/><path fill="#4f1907" d="M114.68 113.41c-9.778-6.067-19.72-7.156-33.144-1.218-9.84 5.898-14.508 14.135-19.248 22.903 11.665 6.401 22.486 7.404 32.526 3.41 10.285-6.023 18.334-13.883 19.866-25.094z"/><path fill="#050505" d="M114.11 174.45c.726 2.156.98 4.706.73 7.675.138 3.083-.158 5.95-.67 8.71-.965-2.332-1.547-5.44-1.522-8.771.025-3.395.609-6.5 1.462-7.614z" opacity=".99"/><circle cx="119.23" cy="182.55" r="2.619" fill="#fff" opacity=".99"/><path fill="#863704" d="m106.73 109.58 14.343-.044-7.128 3.488z"/></g><path d="m101.55 113.17 6.194-.021 1.565 2.54c-3.9-.862-6.738-.685-9.346.173z" opacity=".99"/><circle cx="104.32" cy="61.718" r="9.898" fill="none" stroke="#dd002a" stroke-linejoin="round" stroke-width="1.504"/></svg>