<svg xmlns="http://www.w3.org/2000/svg" xml:space="preserve" viewBox="0 0 87.2 134.1"><path fill="#ECF8FE" d="M16 52.9c1.7-1.4-6.7-22.7 5.9-39.6.3 4.1.8 6.2.8 6.2s6.5-15 17.1-17.2C39.3 4.6 39 10 39 10S49.4-1.2 60.7.1c-2.4 2.1-2.9 9.1-2.9 9.1s5.5-1.2 8.1-.1c-3.3 2.9-2.6 7.3-2.6 7.3s5.7-5.5 13.4-2.7c-1.2 1.5-2.8 9.8-2.8 9.8s1.6-.8 2.8-.6c-7.8 8.4-5.3 25.7-5.3 25.7s1.8-2 3.1-1.6c0 0-3 4.3-3.1 6.4v9.9s4.5 3.3 5.8 5.1 4.1 5.6 6.5 5.6c0 0-1.5 1.3-3.5 1.1 0 0 2.4 3.3 2.6 8.2.2 3.6 2.8 8 4.4 7.6 0 0 0 1.2-1.5 1.1 0 0 .6 1.8 1.1 1.8 0 0-1.2.6-1.9 0 0 0 2.6 7.9 1.7 15h-1.1s-.4 5.9-2.4 7.1l-.5-1.2s-2 3.7-7.6 3.5l.7 2.8 1.8-.7-1.5 2.1 1.8.6-1.4.4s3.8 1.5 4.8 4.3H80s2.2 3.8 1.2 5.3c-3.1-1.1-5.8-1.1-5.8-1.1l-.2 2.2s-8.6-1.2-11.5-.5c-.2-.8-.3-1.5-.3-1.5s-3.9-.2-5.6-.2c-.4-8.3-4.3-14.2-4.3-14.2s-7.6 3.1-17.9 0c0 0-3.9 6.3-4.6 14.3-.9 0-4.8.1-6.4 0-.7.2-.7 1.5-.7 1.5l-10.9.6v-2s-4.2.3-6.9.7c.6-2.6 1.8-5.5 1.8-5.5s-.2.1-1.2.5c1-3.1 4.6-4.7 4.6-4.7l-1.2-.2 1.6-.6-1.6-2.3 2.3.5.2-1.9s-7.5-.8-10.7-9.2L0 111s.3-6.1 1.6-9.5c-.3-.9-1.6-1.3-1.6-1.3s1.2-1.6 2.4-1.6c-.4-3.5 2.1-9.4 2.1-9.4l-2.6.5s.9-6.6 4.8-11.5c-.3-.7-3.8.5-3.8.5l7.9-9.4-2.1-1.7L12 67s1.5-1.9 3.5-3.1c.1-2.6-2.1-5.2-2.1-5.2h2s-.1-3.7-1.9-6.9c.6.5 1.1.3 2.5 1.1z"/><path fill="#CDEBF8" d="M53.4 117.8c6.5-1.8 12.8-8.7 12.8-8.7.2 6-6.2 12.9-6.2 12.9 3.2.2 4.1-1.2 4.1-1.2-.2 2.7-2.5 3.5-2.5 3.5 6.8-1.8 5.5 9.1 5.5 9.1l-3.6.2c-.2-.8-.3-1.5-.3-1.5s-3.9-.2-5.6-.2c-.3-8.3-4.2-14.1-4.2-14.1z"/><path fill="#9FD6EC" d="M34.2 48.4c1 0 2 .5 2.5 1.2-.2-1.5-1.3-2.6-2.8-2.6-1.5 0-2.8 1.3-2.8 2.9v.4c.5-1.1 1.7-1.9 3.1-1.9zM56.9 51.9c.6.6.8 1.3.8 2 .7-.9.7-2.1-.1-2.9-.8-.8-2.2-.8-3.1.1-.1.1-.1.2-.2.2.8-.3 1.9-.1 2.6.6zM55.1 55.6c.9.3 1.5.9 1.8 1.7.3-1.3-.4-2.6-1.6-3-1.3-.4-2.7.3-3.2 1.7 0 .1-.1.2-.1.4.8-.8 2-1.2 3.1-.8zM35 53.4c1.3-.1 2.6.3 3.4 1.1-.4-1.7-2-2.9-3.8-2.7-2 .2-3.4 1.9-3.3 3.8 0 .2 0 .3.1.5.4-1.4 1.8-2.5 3.6-2.7z"/><path fill="#FFF" d="M40.5 62.6c0 2.7-1.6 4.9-3.6 4.9s-3.6-2.2-3.6-4.9c0-1.2.3-2.3.8-3.1.7-1.1 2.7.2 5.9.9.4.6.5 1.4.5 2.2z"/><ellipse cx="37" cy="62.6" rx="1.7" ry="2.2"/><ellipse cx="37.2" cy="61.4" fill="#FFF" rx="1" ry=".9"/><path fill="#FFF" d="M57.3 62.6c0 2.7-1.6 4.9-3.6 4.9s-3.6-2.2-3.6-4.9c0-1 .2-2 .6-2.7 3.5-.5 5-1.5 5.7-.5.6.9.9 2 .9 3.2z"/><ellipse cx="53.7" cy="62.6" rx="1.7" ry="2.2"/><ellipse cx="54" cy="61.4" fill="#FFF" rx="1" ry=".9"/><path fill="#5C5B5D" d="M64 58.5c-2.3.2-9.4-.2-16 1.2 0 0-3.7.8-7.3 0-3.6-.8-13.1-2.3-20.3 0l.1.6c.1.6.7 1.1 1.3.9l2.1-.4.5 5.7s-.1 3.1 3.8 3.8c4 .7 10.4.3 10.4.3s3.1-.3 3.8-2.2c.9-2.5.8-5.2 2.2-5.5 1.8-.4 1.9 2.7 1.9 2.7s.4 4.7 4 4.9c3.5.6 7.3 1 11.8-.3 3.9-1.3 3.5-9.5 3.5-9.5s1 .1 1.8.3c.7.1 1.3-.3 1.4-1l.1-.4s-2.8-1.3-5.1-1.1zm-22.5 7.7c-.2 2-2.1 3-3.6 3H29c-1.5 0-2.8-1.3-2.8-2.8l-.3-3.6c0-1.5.2-2.4 1.7-2.4l9.6-.3c1.5 0 4.7.8 4.7 2.3l-.4 3.8zm22.2.2c0 1.5-1.3 2.8-2.8 2.8H52c-1.5 0-3.4-1-3.6-3l-.4-3.8c0-1.5 3.2-2.3 4.7-2.3l9.6.3c1.5 0 1.7.9 1.7 2.4l-.3 3.6z"/><path d="m45.1 74.8 8-.2.7-1.1s0 1.8.6 1.8c0 0-1.7.9-4.7.7l2.7-.6-7.3-.6z"/><path fill="#B1E0F3" d="m35.3 79.8 2 1.9c.1.1.2.1.3 0l2.9-1.5c.2-.1.3 0 .4.2.2.8.9 2.9 1.3 3.6.1.1.3.2.4.1 1.2-1 4-2.8 5.2-2.7.1 0 .2.1.2.2.5.9 1.9 1.9 2.6 2.4.3.2.6.2.9 0 .3-.3.8-.7 1.2-1.1.2-.2.5-.1.5.2-.1 1.2-.5 3-1.8 4.2-.1.1-.2.1-.3 0-.5-.3-1.8-1.1-3.6-3-.1-.1-.2-.1-.3-.1-.7.4-2.9 1.7-4.1 3.6-.1.1-.3.2-.4.1-.7-.7-2.9-2.9-3.5-4.3-.1-.1-.2-.2-.3-.1-.4.1-1.4.3-2.2.7-.1.1-.3 0-.4-.1-.4-.6-1.4-2.3-1.5-4 0-.3.3-.5.5-.3z"/><path fill="#CDEBF8" d="M75.2 131.8s.2-4.5-1-5.7c0 0 1.9.1 2.3 5.7h-1.3zM13 132.1s-.2-4.5 1-5.7c0 0-1.9.1-2.3 5.7H13zM71.4 63.3s3.8 2.7 5.1 4.3c0 0-.9 5.6-.6 9.7.3 4.1.6 11.4.6 11.4l2.3-1.8L76 97.5s1.9.7 2 1.7c0 0-2.2 1.6-2.8 3.3-.1.2-.1.5-.1.7v1.4l2.6-3-3.8 9.4s2.1 1.3 6.6-1.1c0 0-1.9 2.2-4.6 2.8v5.5h-.7s-1.3-3.4-1.5-6.2c0 0-1.9-4.3.4-14.7 0 0 .8-6.3.1-10.6-.7-4.3-2.7-11.7-2.4-15.1.2-3.5-.4-8.3-.4-8.3z"/><path fill="#CDEBF8" d="M39 10s.4-5.4.9-7.7C29.2 4.5 22.7 19.4 22.7 19.4s-.5-2.1-.8-6.2c-12.6 17-4.3 38.3-5.9 39.6-1.4-.8-1.9-.6-2.6-1.1 1.8 3.2 1.9 6.9 1.9 6.9h-2s2.3 2.6 2.1 5.2c-2.1 1.2-3.5 3.1-3.5 3.1l-3.3.6 2.1 1.7-7.9 9.4s3.5-1.2 3.8-.5C2.7 83 1.8 89.6 1.8 89.6l2.6-.5S2 95 2.3 98.5c-1.3 0-2.4 1.6-2.4 1.6s1.2.3 1.6 1.3C.3 104.9 0 111 0 111l1.9-1.5c3.2 8.4 10.7 9.2 10.7 9.2l-.2 1.9-2.3-.5 1.6 2.3-1.6.6 1.2.2s-3.7 1.6-4.6 4.7c1-.4 1.2-.5 1.2-.5s-1.2 2.9-1.8 5.5c2.8-.4 6.9-.7 6.9-.7v2l1.8-.1s-.4-6 1.6-7.1c1.9-1.1 2.3-6 1.1-8.5l2.2 2.4v-3.1c.7 1 4.2 5.4 10.3 7.5 0 0 .5 3.7 1.3 4.9 0 0 1.6-8.2 4.4-12.3 0 0-8.1-2-13.9-10.4v-.1l-2.2-3.8c-.2-.4-.3-.8-.5-1.1 0-.3.4-.4 2 .6 0 0-3.3-8.8-3.1-14.4 0 0 .8.8 1.6.7 0 0-8.5-31.9 7.1-49.3l-3.1-.8s1.2-4.3 8.5-11.5c0 0-5.1.3-8.5 1.9 0 0 1.4-8.2 11.3-19.3 0 0 .5 6.2 1.2 7.9 13.5-17.1 23-15.4 23-15.4.4-1.2 1-2.2 1.7-2.8C49.4-1.2 39 10 39 10z"/><path fill="#ABDCE4" d="M15.4 67v8.2s-4.4 17.3-1.6 29.7c0 0-.3 12.1-1.2 13.8 0 0-2.2-2.3-2-8.1l-2.1-.4S5 97.6 8.5 87.4l1.7.4-.8-3.1c0 .1 3-13.6 6-17.7z"/><path fill="#85C1CE" d="M9.7 100.2s4.1 3.9 4.1 7.1l-.4 5.3s-5.1-1.4-6.8-4.5c0 0 3.6 2.9 5.6 2.8 0 .1 0-7.7-2.5-10.7z"/><path fill="#ABDCE4" d="M33.5 122s.8-2.1 2.1-4.2c0 0-4.6-.4-13.3-9.5 3.2 5.7 10.6 10.6 11.2 13.7zM55.5 121.8s-.9-2.2-2-4.1c0 0 4.9-1.7 9.1-4.9-.1 0-6.4 7.7-7.1 9z"/><path fill="#5C5B5D" d="M18.4 44.7s3.6-4.4 3-10.2c-.3-3-1-3.1-1.7-2.3C11.5 33.5 3.5 26 3.5 26 2 38 14.3 40.8 18.5 41.4c.1 1.4 0 2.6-.1 3.3z"/><path fill="#748184" d="M3.5 25.9s8.4 7.9 16.8 6.1c0 0 1.5-.5.9 6.3-.2 1.2-13.7-1.4-17.7-12.4z"/><path fill="#5C5B5D" d="M82.8 25.9S79 31.8 65.9 32c-.5 0-.9.7-1 2.7-.5 5.9 3 10.2 3 10.2-.2-.7-.2-2.1-.2-3.5 3.7-.4 16.4-3.1 15.1-15.5z"/><path fill="#748184" d="M82.8 25.9S79 31.8 65.9 32c0 0-1.3 1-.9 5.7.4 0 14.2-1.2 17.8-11.8z"/></svg>