<svg xmlns="http://www.w3.org/2000/svg" xml:space="preserve" viewBox="0 0 144 39"><g fill="#6B6B6B"><path d="M66.281 34.362h-3.069l-.525-3.513h-3.732l-.526 3.513h-2.792l3.098-19.354h4.451l3.095 19.354zm-6.94-6.138h2.93l-1.465-9.787-1.465 9.787zM71.064 15.009h9.399v2.764h-3.179V34.36h-3.043V17.773h-3.178l.001-2.764zM86.85 19.653c0-3.097 1.633-4.865 4.617-4.865 2.986 0 4.617 1.769 4.617 4.865v10.062c0 3.098-1.631 4.867-4.617 4.867-2.984 0-4.617-1.77-4.617-4.867V19.653zm3.043 10.257c0 1.38.607 1.906 1.574 1.906.969 0 1.576-.525 1.576-1.906V19.459c0-1.383-.607-1.907-1.576-1.907-.967 0-1.574.524-1.574 1.907v10.45zM109.796 28.748l2.074-13.74h4.229v19.354h-2.875v-13.88l-2.102 13.88h-2.876l-2.267-13.687v13.687h-2.653V15.009h4.229l2.241 13.739zM123.62 15.009h3.041v19.353h-3.041V15.009zM143 27.145v2.57c0 3.098-1.548 4.867-4.534 4.867-2.985 0-4.534-1.77-4.534-4.867V19.653c0-3.097 1.549-4.865 4.534-4.865 2.986 0 4.534 1.769 4.534 4.865v1.88h-2.875v-2.074c0-1.383-.607-1.907-1.576-1.907-.968 0-1.574.524-1.574 1.907v10.45c0 1.382.606 1.88 1.574 1.88.969 0 1.576-.5 1.576-1.88v-2.766l2.875.002z"/></g><path fill="#41D305" d="M24.128 22.861c-1.631 0-4.114-.146-4.114-.146-.261-.015-.349-.2-.194-.411 0 0 1.541-2.121 2.658-3.451.552-.654 1.333-1.519 1.333-1.519a.42.42 0 0 1 .636 0s.778.865 1.331 1.519c1.119 1.33 2.66 3.451 2.66 3.451.153.211.065.396-.194.411-.001.001-2.486.146-4.116.146z"/><path fill="#6B6B6B" d="M48.257 20.941c-.01-2.363-5.732-4.394-13.979-5.317a.695.695 0 0 0-.758.692c-.014.279.18.622.529.679.065.011.122.024.195.036 6.645.694 11.168 2.057 11.176 3.63.007 1.534-4.277 2.877-10.644 3.603-1.664-2.718-3.693-5.635-6.012-8.581a97.897 97.897 0 0 0-3.29-3.963c5.646-6.279 10.621-10.094 12.06-8.968 1.112.871-.155 4.552-2.996 9.384-.089.156-.162.614.189.852.332.225.78.101.976-.214.027-.048.079-.123.107-.171 3.502-6.12 4.918-10.94 3.237-12.255-2.054-1.607-8.089 2.492-14.649 9.58v-.003c-.091.097-.181.192-.271.291-.09-.099-.181-.194-.27-.291v.002C17.298 2.839 11.262-1.26 9.208.347c-1.681 1.315-.264 6.136 3.238 12.255.027.048.079.123.107.171a.702.702 0 0 0 .976.214c.352-.238.278-.696.188-.852-2.841-4.832-4.108-8.514-2.996-9.384 1.438-1.125 6.414 2.689 12.06 8.968a97.203 97.203 0 0 0-3.289 3.963c-2.318 2.945-4.349 5.863-6.012 8.582-6.366-.727-10.651-2.07-10.644-3.604.007-1.573 4.53-2.936 11.175-3.63.074-.011.13-.024.195-.036.351-.057.543-.4.528-.679a.692.692 0 0 0-.757-.692C5.731 16.548.01 18.578 0 20.941c-.01 2.213 4.993 4.146 12.391 5.162-3.467 6.08-4.857 10.856-3.183 12.168 1.812 1.416 6.729-1.609 12.367-7.213.188-.17.305-.625-.037-.959a.707.707 0 0 0-.884-.059c-.106.078-.207.178-.281.248-4.398 4.413-7.999 6.859-9.187 5.93-1.155-.9.251-4.769 3.318-9.855 2.87.309 6.031.482 9.354.496h.139l.107.002h.046c.036 0 .072 0 .108-.002h.139a91.497 91.497 0 0 0 9.353-.496c3.067 5.088 4.474 8.955 3.318 9.855-1.187.93-4.788-1.517-9.186-5.93-.074-.07-.176-.17-.281-.248a.708.708 0 0 0-.885.059c-.341.334-.225.789-.036.959 5.64 5.604 10.555 8.629 12.366 7.213 1.674-1.311.284-6.088-3.182-12.168 7.399-1.015 12.403-2.949 12.393-5.162zm-24.052 3.887h-.153a100.552 100.552 0 0 1-8.374-.348 99.49 99.49 0 0 1 5.416-7.548 108.31 108.31 0 0 1 2.765-3.367v.002l.27-.316.271.316v-.002c.915 1.071 1.84 2.192 2.764 3.367a99.812 99.812 0 0 1 5.416 7.548c-2.57.219-5.4.344-8.375.348z"/><path fill="#46D200" d="M67.934 5.799a.93.93 0 0 0-.196-.37.948.948 0 0 0-.366-.265 1.9 1.9 0 0 0-.486-.126A4.948 4.948 0 0 0 66.234 5L63 5.003 63.003 10l1.11-.001V8.294l1.791-.001c.317-.001.572-.014.787-.041.222-.029.416-.073.571-.132.174-.067.315-.157.417-.265a1.07 1.07 0 0 0 .238-.399c.041-.133.066-.279.075-.434a9.18 9.18 0 0 0 .008-.42 22.173 22.173 0 0 0-.006-.398 1.544 1.544 0 0 0-.06-.405zm-1.048 1.125a.327.327 0 0 1-.031.141s-.024.018-.104.037c-.08.018-.185.031-.317.039-.151.009-.331.012-.528.013h-1.793V6.143l1.791-.002c.213.002.393.005.537.008.129.004.236.015.317.031.083.019.112.039.111.031.006.008.014.036.017.099.005.08.006.179.004.292.001.122 0 .228-.004.322zM78.915 5.778a.961.961 0 0 0-.235-.375 1.088 1.088 0 0 0-.409-.247 2.54 2.54 0 0 0-.554-.119A7.341 7.341 0 0 0 76.953 5l-2.992.004.004 4.996h1.084l-.002-1.705h1.83c.189-.001.362.003.519.011.118.005.225.021.307.04.079.019.103.038.11.047.006.017.016.06.021.131.005.091.007.197.005.323v1.152h1.084V8.846a4.818 4.818 0 0 0-.023-.466 1.466 1.466 0 0 0-.12-.442.888.888 0 0 0-.094-.155 1.32 1.32 0 0 0 .124-.176c.073-.134.125-.291.154-.471.023-.159.036-.339.036-.533 0-.146-.002-.283-.01-.405a1.56 1.56 0 0 0-.075-.42zm-1.962 1.376-1.905.001v-1.01l1.904-.001c.209-.001.382.004.525.005.126.006.229.017.308.033.084.019.111.034.11.031.002.007.013.035.015.097a7.546 7.546 0 0 1 .001.614.413.413 0 0 1-.028.142s-.024.019-.103.036c-.077.02-.182.033-.309.041-.149.008-.321.01-.518.011zM89.934 6.209a1.881 1.881 0 0 0-.176-.526 1.125 1.125 0 0 0-.367-.405 1.535 1.535 0 0 0-.529-.214A3.41 3.41 0 0 0 88.146 5l-1.296.002a3.243 3.243 0 0 0-.714.064 1.514 1.514 0 0 0-.529.213 1.131 1.131 0 0 0-.368.407 1.822 1.822 0 0 0-.177.531 3.978 3.978 0 0 0-.057.605c-.002.205-.005.431-.005.682.001.248.004.474.008.681.004.222.023.426.057.605.036.199.097.376.176.526.088.165.211.304.371.412.144.094.322.166.527.208.199.045.433.064.715.064l1.296-.001c.282.001.517-.02.712-.063.207-.046.385-.117.531-.213.157-.106.281-.245.367-.409.08-.152.139-.328.175-.529.032-.179.054-.382.058-.605.004-.206.007-.432.007-.68.002-.25-.004-.477-.008-.682a4.47 4.47 0 0 0-.058-.609zm-1.786 2.687-1.295.001a4.325 4.325 0 0 1-.458-.017.757.757 0 0 1-.243-.058.19.19 0 0 1-.076-.061.547.547 0 0 1-.053-.183 3.102 3.102 0 0 1-.033-.416c-.002-.183-.006-.404-.006-.661-.001-.257.002-.478.005-.665.003-.165.011-.302.029-.412a.564.564 0 0 1 .054-.177.19.19 0 0 1 .076-.065.837.837 0 0 1 .245-.061c.123-.013.278-.02.459-.019l1.295-.001c.182-.001.338.006.461.02.104.01.186.03.242.06.035.018.06.037.074.062a.62.62 0 0 1 .055.181c.018.107.027.247.033.414l.006.664c-.002.257-.002.477-.006.66a3.25 3.25 0 0 1-.031.416.612.612 0 0 1-.053.179.204.204 0 0 1-.081.063.704.704 0 0 1-.239.059 4.434 4.434 0 0 1-.46.017zM99.737 8.388a.972.972 0 0 1-.032.276.18.18 0 0 1-.053.096.307.307 0 0 1-.137.062 1.63 1.63 0 0 1-.39.036l-1.391.001a1.645 1.645 0 0 1-.294-.02c-.021-.005-.023-.01-.031-.015-.001-.002-.029-.035-.051-.142a2.613 2.613 0 0 1-.036-.465l-.001-.524h-1.359v.527c0 .291.019.53.055.736.044.24.138.442.28.604.149.166.356.288.61.355.221.057.491.085.829.085l1.39-.001c.331-.001.61-.027.845-.081.264-.061.484-.162.652-.3.176-.143.303-.327.375-.544.066-.193.1-.42.098-.678L101.095 5h-1.361l.003 3.388zM112.678 9.997V8.856l-3.553.003v-.834h3.383l-.002-1.141h-3.382l-.001-.74 3.553-.003L112.674 5l-4.709.004.003 4.996zM123.834 5.781a1.164 1.164 0 0 0-.266-.369 1.202 1.202 0 0 0-.396-.245 2.177 2.177 0 0 0-.502-.127 4.486 4.486 0 0 0-.637-.04h-1.069c-.3.001-.548.022-.756.066a1.649 1.649 0 0 0-.562.213 1.183 1.183 0 0 0-.392.407 1.79 1.79 0 0 0-.188.53 3.809 3.809 0 0 0-.059.607c-.003.204-.007.43-.007.681-.002.249.006.474.008.678.006.223.025.426.062.607.037.2.101.376.187.528.094.166.225.304.395.412.152.092.342.165.559.208.206.043.463.064.758.064l1.068-.001c.247 0 .453-.013.637-.038.197-.029.361-.072.506-.133a1.27 1.27 0 0 0 .398-.257c.107-.106.196-.235.264-.385.062-.139.106-.297.128-.476a3.9 3.9 0 0 0 .031-.518L124 7.858h-1.043l.001.333c0 .132-.006.245-.015.337a.608.608 0 0 1-.039.178.184.184 0 0 1-.045.069c-.018.015-.053.037-.12.059s-.157.04-.269.048a6.141 6.141 0 0 1-.435.015l-1.069.001a4.875 4.875 0 0 1-.486-.018.796.796 0 0 1-.258-.06c-.059-.025-.076-.053-.078-.062a.435.435 0 0 1-.06-.182 2.52 2.52 0 0 1-.034-.416 30.925 30.925 0 0 1-.006-.66c0-.259.002-.48.004-.665.004-.167.014-.307.033-.414a.494.494 0 0 1 .057-.178.18.18 0 0 1 .081-.064.875.875 0 0 1 .26-.06c.13-.013.294-.02.485-.02h1.07c.219 0 .4.008.541.026a.557.557 0 0 1 .256.078c.025.017.057.045.08.118.02.061.045.178.045.396l-.001.336 1.045.001-.002-.334a3.266 3.266 0 0 0-.031-.488 1.633 1.633 0 0 0-.133-.451zM136.031 5 131 5.004v1.141l1.959-.001.001 3.856 1.116-.001V6.143l1.955-.002z"/></svg>