<svg xmlns="http://www.w3.org/2000/svg" viewBox="0 0 652 275"><g fill="none" fill-rule="evenodd"><path fill="#FFF" d="M0 0h652v275H0z"/><path stroke="#01216A" stroke-linecap="round" stroke-width="6.6" d="m148.605 257.4-93.741-45.144L31.712 110.82l64.87-81.346h104.046L265.5 110.82l-23.152 101.436z"/><path fill="#000" fill-rule="nonzero" d="M315.784 116.446v45.638c0 5.734 1.305 10.013 3.915 12.837 2.61 2.825 6.697 4.237 12.26 4.237 7.36 0 12.741-2.011 16.143-6.034 3.402-4.022 5.103-10.59 5.103-19.705v-36.973h10.655v70.35h-8.794l-1.54-9.435h-.578c-2.182 3.466-5.21 6.119-9.082 7.959-3.873 1.84-8.291 2.76-13.255 2.76-8.558 0-14.967-2.033-19.224-6.098-4.258-4.065-6.387-10.57-6.387-19.513v-46.023h10.784Zm118.554 60.915h-.577c-4.921 7.146-12.282 10.719-22.08 10.719-9.201 0-16.358-3.145-21.472-9.436-5.113-6.29-7.67-15.233-7.67-26.83 0-11.597 2.567-20.604 7.702-27.023 5.135-6.419 12.282-9.628 21.44-9.628 9.542 0 16.86 3.466 21.951 10.398h.835l-.45-5.07-.256-4.943V86.92h10.655v99.876h-8.665l-1.413-9.435Zm-21.31 1.797c7.275 0 12.549-1.98 15.822-5.937 3.274-3.959 4.91-10.345 4.91-19.16v-2.247c0-9.97-1.657-17.085-4.974-21.343-3.316-4.257-8.612-6.386-15.886-6.386-6.248 0-11.03 2.428-14.346 7.285-3.317 4.857-4.975 11.714-4.975 20.572 0 8.987 1.648 15.769 4.943 20.348 3.295 4.579 8.13 6.868 14.506 6.868Zm64.637 7.638H467.01v-70.35h10.655v70.35Zm-11.554-89.413c0-2.44.6-4.226 1.798-5.36 1.198-1.134 2.695-1.701 4.493-1.701 1.711 0 3.188.578 4.429 1.733 1.24 1.155 1.861 2.931 1.861 5.328 0 2.396-.62 4.183-1.861 5.36-1.241 1.176-2.718 1.764-4.43 1.764-1.797 0-3.294-.588-4.492-1.765-1.199-1.176-1.798-2.963-1.798-5.36Zm62.262 90.697c-10.184 0-18.068-3.134-23.653-9.404-5.584-6.269-8.376-15.137-8.376-26.605 0-11.768 2.835-20.861 8.505-27.28 5.67-6.419 13.747-9.628 24.23-9.628 3.381 0 6.762.363 10.142 1.09 3.38.728 6.034 1.584 7.96 2.568l-3.274 9.05c-2.354-.94-4.921-1.722-7.703-2.342-2.781-.62-5.242-.93-7.381-.93-14.293 0-21.439 9.114-21.439 27.343 0 8.644 1.744 15.277 5.231 19.898 3.488 4.622 8.655 6.933 15.502 6.933 5.862 0 11.874-1.263 18.037-3.787v9.435c-4.708 2.44-10.634 3.659-17.78 3.659Zm77.732-1.284-2.118-10.013h-.514c-3.509 4.408-7.007 7.392-10.494 8.954-3.488 1.562-7.842 2.343-13.063 2.343-6.975 0-12.441-1.797-16.4-5.392-3.958-3.594-5.937-8.708-5.937-15.34 0-14.208 11.361-21.653 34.084-22.338l11.939-.385v-4.365c0-5.52-1.188-9.596-3.563-12.228-2.375-2.631-6.173-3.947-11.393-3.947-5.863 0-12.495 1.797-19.898 5.392l-3.274-8.152c3.466-1.883 7.264-3.36 11.393-4.43a49.345 49.345 0 0 1 12.42-1.604c8.388 0 14.603 1.861 18.647 5.584 4.044 3.723 6.066 9.693 6.066 17.909v48.012h-7.895Zm-24.07-7.51c6.632 0 11.842-1.818 15.63-5.456 3.786-3.637 5.68-8.73 5.68-15.276v-6.355l-10.655.45c-8.473.299-14.582 1.615-18.326 3.947-3.744 2.332-5.616 5.959-5.616 10.88 0 3.851 1.166 6.782 3.498 8.793 2.332 2.012 5.595 3.017 9.788 3.017Z"/><path stroke="#01216A" stroke-linecap="round" stroke-opacity=".417" stroke-width="4.4" d="m43.005 113.3 19.8 4.4M100.824 38.325l8.764 18.292M195.754 38.31l-8.7 18.322M254.237 113.3l-19.714 4.77"/><g fill-rule="nonzero"><path fill="#000" d="M227.2 169.71c-16.664-18.672-35.644-34.699-55.143-49.57-20.355-15.525-41.665-31.168-64.033-42.934-1.82-.957-3.309.454-3.427 2.083-.403.153-.73.541-.753 1.166-.028.832-.028 1.675-.052 2.509-3.582 15.409-3.207 31.42-1.667 47.178 1.56 15.97 8.805 32.617 8.06 28.56-2.467-20.024-2.935-39.947-3.466-60.102.314.316.597.648.966.932 3.884 2.985 8.994 2.473 12.873-.181.026.522.103 1.054.208 1.59.311 2.477 1.299 4.863 3.105 6.876.991 1.106 2.122 1.899 3.322 2.406 3.031 1.387 6.509.977 9.216-.882-.28 3.893.703 7.575 3.313 10.618 3.317 4.305 8.934 6.898 13.564 5.21a9.22 9.22 0 0 0-.008 1.435c.204 2.69 2.06 4.879 4.05 6.213 1.612 1.08 3.675 1.517 5.781 1.406 1.147.274 2.318.43 3.506.355.615-.04 1.291-.18 1.979-.373-.083 3.158.948 6.19 3.379 8.616.705.702 1.59 1.273 2.533 1.779 1.531 1.187 3.267 1.942 5.101 2.331a11.5 11.5 0 0 0-1.151 4.473 8.454 8.454 0 0 0 2.679 6.63c1.731 2.134 4.241 3.613 6.68 3.927 2.834.365 5.023-1.716 6.273-4.31.702.719 1.456 1.33 2.38 1.228.88-.097 1.465-.699 1.532-1.69.116-1.75-1.492-2.843-2.787-3.71a14.164 14.164 0 0 0-.585-5.369 436.326 436.326 0 0 1 27.815 26.849c3.135 3.308 7.808-1.833 4.758-5.25ZM111.204 95.357c-3.72-2.04-3.536-6.954-2.5-10.729.057-.204.07-.39.062-.565a400.144 400.144 0 0 0 11.955 8.88c-2.774 2.278-6.08 4.298-9.517 2.414Zm20.544 10.283c-1.483.523-2.951-.153-4.185-1.028-1.33-.944-2.312-2.684-2.823-4.29-.504-1.583-.27-3.24-.45-4.856 3.563 2.506 7.158 4.967 10.75 7.43-.94 1.127-1.838 2.231-3.292 2.744Zm20.309 12.168c-2.112.902-4.466.776-6.507-.275-3.461-1.782-5.114-6.07-5.331-10.245.082-.22.137-.445.232-.661 4.686 3.205 9.337 6.463 13.971 9.748-.726.529-1.478 1.053-2.365 1.433Zm14.434 11.174c-1.681.39-3.523-.143-5.016-.985-2.668-1.503-3.704-3.909-3.512-6.523.577-.443 1.116-.922 1.546-1.478 1.87 1.343 3.743 2.68 5.586 4.065 1.435 1.078 2.834 2.202 4.257 3.296-.824.684-1.658 1.345-2.86 1.625Zm21.346 15.732c.583 1.554 1.38 2.947 1.522 4.79.028.365.025.762.015 1.157-1.388-.24-2.33 2.12-.917 2.794.084.041.161.093.244.135-.255.463-.576.874-1.028 1.153-1.936 1.188-4.29-1.367-4.4-3.339-.07-1.267.168-2.543.627-3.713.202-.29.397-.585.626-.854 1.296-.402 2.51-1.108 3.311-2.123Zm-13.506-13.457a499.87 499.87 0 0 1 10.88 8.8c-1.14.364-2.22 1.058-3.454 1.11-1.686.073-3.354-.86-4.604-2.04-2.03-1.92-3.251-4.997-2.822-7.87Z"/><path fill="#01216A" d="M109.651 168.212c-.47 3.186-.87 5.773-3.29 8.69-2.726 3.285-7.169 6.038-11.548 4.962-4.698-1.155-4.703-6.894-4.703-11.209 1.14-.11 2.277-.236 3.418-.266 2.195-.055 4.209-1.84 4.133-4.133-.161-4.925-2.18-9.163-4.444-13.443-1.174-2.222-4.652-2.725-6.346-.818-2.329 2.622-4.032 5.738-6.13 8.538-1.432 1.908-.562 3.78 1.02 4.78-1.143 2.217.408 4.27 2.623 5.106-1.827 5.5-.882 11.863 2.908 16.294 4.575 5.346 12.637 4.863 18.414 2.19 6.353-2.944 11.45-9.848 12.318-16.722.458-3.626.287-7.027-.335-10.627-.45-2.61-1.551-4.501-2.35-6.952-.203-.628-.844-.78-1.316-.518-1.08-7.697-14.73-14.522-4.372 14.128Z"/></g><g stroke="#000" stroke-linecap="round" stroke-width="4.4"><path d="M139.998 181.972c7.257 9.608 16.883 7.95 24.2-.715M164.198 181.972c7.257 9.608 16.883 7.95 24.2-.715M188.398 181.972c7.257 9.608 16.883 7.95 24.2-.715"/></g><g stroke="#000" stroke-linecap="round" stroke-width="4.4"><path d="M93.221 202.556c8.305 10.995 19.32 9.098 27.692-.818M120.913 202.556c8.305 10.995 19.32 9.098 27.692-.818"/></g><g stroke="#000" stroke-linecap="round" stroke-width="4.4"><path d="M148.605 202.556c8.306 10.995 19.32 9.098 27.693-.818M176.298 202.556c8.305 10.995 19.319 9.098 27.692-.818"/></g></g></svg>