<svg xmlns="http://www.w3.org/2000/svg" fill="none" viewBox="0 0 48 48"><path fill="#F63" d="M11.261 30.913a1.57 1.57 0 1 0 0 3.14 1.57 1.57 0 0 0 0-3.14Z"/><path fill="#F63" d="M36.892 4.463a6.623 6.623 0 0 0-6.615 6.615c0 3.77 3.966 9.3 5.115 10.827V28.5H25.5v12H14.562c1.541-2.372 3.314-5.639 3.314-8.137a6.616 6.616 0 0 0-13.23 0c0 4.155 4.831 10.47 5.381 11.175l2.357.011.04-.05H28.5v-12h9.892v-9.718c1.298-1.707 5.115-7.038 5.115-10.703a6.623 6.623 0 0 0-6.615-6.615Zm-25.67 35.624c-1.692-2.466-3.576-5.823-3.576-7.725a3.616 3.616 0 0 1 7.23 0c0 1.896-1.926 5.258-3.654 7.725Zm25.631-21.285c-1.692-2.469-3.576-5.827-3.576-7.725a3.615 3.615 0 0 1 7.23 0c0 1.898-1.925 5.257-3.654 7.725Z"/><path fill="#F63" d="M36.892 9.628a1.57 1.57 0 1 0 0 3.14 1.57 1.57 0 0 0 0-3.14Z"/></svg>