<?xml version="1.0" encoding="UTF-8"?>
<svg width="100px" height="50px" viewBox="0 0 100 50" version="1.1" xmlns="http://www.w3.org/2000/svg" xmlns:xlink="http://www.w3.org/1999/xlink">
    <!-- Generator: Sketch 54.1 (76490) - https://sketchapp.com -->
    <title>Group 2</title>
    <desc>Created with Sketch.</desc>
    <g id="Page-1" stroke="none" stroke-width="1" fill="none" fill-rule="evenodd">
        <g id="Group-2">
            <rect id="Rectangle" fill="#FFFFFF" x="0" y="0" width="100" height="50"></rect>
            <g id="Group" transform="translate(19.946809, 0.000000)" fill="#FF7314" fill-rule="nonzero">
                <g id="logo-mark">
                    <path d="M0,9.05263161 C0,4 4.22369185,0 9.31378183,0 C14.5121715,0 18.6275638,4.10526306 18.6275638,9.05263161 C18.6275638,14.1052631 14.403872,18.1052631 9.31378183,18.1052631 C4.22369185,18.1052631 0,14.1052631 0,9.05263161 M48.6266054,11.8947369 C48.6266054,8.84210532 51.2258001,6.31578935 54.3664942,6.31578935 C57.507188,6.31578935 60.106383,8.84210532 60.106383,11.8947369 C60.106383,14.9473684 57.507188,17.4736844 54.3664942,17.4736844 C51.1175004,17.4736844 48.6266054,15.0526316 48.6266054,11.8947369 M32.923136,38.1052631 C32.923136,31.5789473 38.4464252,26.2105263 45.161012,26.2105263 C51.8755989,26.2105263 57.3988882,31.5789473 57.3988882,38.1052631 C57.3988882,44.631579 51.8755989,50 45.161012,50 C38.4464252,50 32.923136,44.7368419 32.923136,38.1052631" id="Shape"></path>
                </g>
            </g>
        </g>
    </g>
</svg>