<svg xmlns="http://www.w3.org/2000/svg" viewBox="0 0 100 50"><g fill="none" fill-rule="evenodd"><path fill="#FFF" d="M0 0h100v50H0z"/><path fill="#FF7314" fill-rule="nonzero" d="M19.947 9.053C19.947 4 24.17 0 29.26 0c5.198 0 9.313 4.105 9.313 9.053 0 5.052-4.223 9.052-9.313 9.052-5.09 0-9.314-4-9.314-9.052m48.626 2.842c0-3.053 2.6-5.58 5.74-5.58 3.141 0 5.74 2.527 5.74 5.58 0 3.052-2.599 5.579-5.74 5.579-3.249 0-5.74-2.421-5.74-5.58M52.87 38.106c0-6.526 5.523-11.894 12.238-11.894 6.714 0 12.238 5.368 12.238 11.894C77.346 44.632 71.822 50 65.108 50c-6.715 0-12.238-5.263-12.238-11.895"/></g></svg>