<svg xmlns="http://www.w3.org/2000/svg" viewBox="0 0 80 40"><defs><style>.b{fill:#0c7ff2}</style></defs><path d="M26.778 24h1.87l-3.443-7.7h-1.76L20.012 24h1.827l.682-1.65h3.575Zm-3.685-3 1.219-2.951L25.535 21Zm9.691-4.7h-3.333V24h1.782v-2.123h1.551c2.057 0 3.344-1.067 3.344-2.783S34.841 16.3 32.784 16.3Zm-.1 4.125h-1.451v-2.673h1.452c1.089 0 1.639.495 1.639 1.342s-.55 1.331-1.639 1.331ZM37.393 24h1.782v-7.7h-1.782Zm12.287 0-.022-7.7h-1.463l-2.838 4.785-2.882-4.785h-1.474V24h1.672v-4.521l2.255 3.707h.8l2.269-3.806.015 4.62Zm7.579 0h1.87l-3.443-7.7h-1.76L50.494 24h1.826l.682-1.65h3.575Zm-3.685-3 1.221-2.948L56.012 21Zm7.568 3h1.782v-6.248h2.464V16.3h-6.71v1.452h2.464Zm5.2 0h1.782v-7.7h-1.779Zm7.293.132a3.956 3.956 0 0 0 3.179-1.375L75.673 21.7a2.454 2.454 0 0 1-1.936.913 2.362 2.362 0 0 1-2.464-2.463 2.362 2.362 0 0 1 2.464-2.464 2.477 2.477 0 0 1 1.936.9l1.144-1.056a3.975 3.975 0 0 0-3.168-1.364 3.956 3.956 0 0 0-4.18 3.982 3.953 3.953 0 0 0 4.169 3.984ZM12.728 25.095H6.1a3.318 3.318 0 0 1-1.684-.512 3.19 3.19 0 0 1-1.1-1.209 2.934 2.934 0 0 1-.3-1.027 3.7 3.7 0 0 1-.016-.47 2.989 2.989 0 0 1 .518-1.525 3.143 3.143 0 0 1 1.25-1.064c.026-.015.073-.026.064-.065a3.54 3.54 0 0 1 .822-2.791 3.881 3.881 0 0 1 1.333-1 3.924 3.924 0 0 1 3.57.192 3.732 3.732 0 0 1 1.283 1.247c.065.1.115.21.178.312a2.172 2.172 0 0 1 2.624.181 2.018 2.018 0 0 1 .672 1.345 1.95 1.95 0 0 1-.206 1.027l-.052.1a4.249 4.249 0 0 1 .484.2 2.759 2.759 0 0 1 1.231 1.294 2.616 2.616 0 0 1-.55 2.931 2.84 2.84 0 0 1-1.93.827c-.521.007-1.042.007-1.563.007Zm1.379-2.408a1.1 1.1 0 0 1 .069.148.823.823 0 0 0 .842.433.813.813 0 0 0 .608-.411.755.755 0 0 0 .019-.692.818.818 0 0 0-.613-.445.946.946 0 0 0-.489.065c-.024-.2-.014-.394-.027-.591-.053.046-.1.1-.146.15a.782.782 0 0 1-.071-.133q-.383-.8-.738-1.6c-.022-.033.017-.056.042-.072a.769.769 0 0 0 .34-.461.792.792 0 0 0-.073-.559.816.816 0 0 0-.586-.4.857.857 0 0 0-.6.131.973.973 0 0 0-.265.293c-.143-.146-.273-.3-.412-.451-.022.065-.01.135-.026.2a.414.414 0 0 1-.06-.015q-1.651-.619-3.314-1.195c-.029-.007-.058-.028-.043-.06a.775.775 0 0 0-.356-.785.848.848 0 0 0-.759-.068.812.812 0 0 0-.389.326.77.77 0 0 0-.018.769.956.956 0 0 0 .3.309c-.162.131-.34.245-.5.38a1.889 1.889 0 0 1 .225.034q-.941 1.734-1.9 3.459c-.011.034-.046.027-.073.018a.83.83 0 0 0-.9.328.756.756 0 0 0-.053.763.823.823 0 0 0 .533.423.849.849 0 0 0 .705-.145.792.792 0 0 0 .321-.538c.164.117.313.253.472.376 0-.073-.018-.146-.017-.22a1.74 1.74 0 0 1 .182.029 25.812 25.812 0 0 0 7.625.222c.042 0 .084-.015.126-.015Zm-9.541.068a.607.607 0 0 1-.317-.634.633.633 0 0 1 .528-.5.642.642 0 0 1 .691.379.6.6 0 0 1-.1.62.65.65 0 0 1-.492.216.624.624 0 0 1-.311-.084Zm.192-.914a.4.4 0 0 0-.292.413.409.409 0 0 0 .385.366.416.416 0 0 0 .436-.333.393.393 0 0 0-.177-.4.426.426 0 0 0-.233-.068.434.434 0 0 0-.12.019Zm4.875.854a25.121 25.121 0 0 1-3.438-.4 1.972 1.972 0 0 1 .118-.184c-.2.027-.4.082-.6.112-.026-.027-.012-.078-.023-.113 0-.065-.041-.125-.042-.188a26.748 26.748 0 0 1 1.729-.861 28.926 28.926 0 0 1 4.155-1.528c.146-.039.29-.086.439-.116 0 .064-.006.128 0 .192.149-.129.292-.263.44-.392a.944.944 0 0 0 .334.344.888.888 0 0 0 .622.078c.027-.013.038.021.048.038.155.347.308.7.47 1.04.107.238.228.47.332.709-.077.014-.154.022-.232.035a.778.778 0 0 0 .121.093c.123.09.253.172.372.267a.807.807 0 0 0-.363.492c-.021.067-.009.14-.029.206-.617.086-1.241.134-1.864.168-.46.023-.92.036-1.381.036q-.604 0-1.208-.028Zm-4.094-.945a1.125 1.125 0 0 0-.229-.21c.484-.879.972-1.756 1.45-2.637.155-.282.306-.567.464-.848.057.045.109.095.165.141v-.6a.966.966 0 0 0 .436.075.829.829 0 0 0 .675-.451 1.254 1.254 0 0 1 .162.051c.793.274 1.582.557 2.37.844.295.11.592.214.885.329-.049.06-.108.112-.157.172.21 0 .42-.025.63-.027a.991.991 0 0 0-.052.277 1.061 1.061 0 0 0 .037.272c-.2-.024-.392-.061-.589-.086q.073.1.149.194a.278.278 0 0 1-.1.036A29.015 29.015 0 0 0 5.61 21.75a.12.12 0 0 1-.046.017.026.026 0 0 1-.025-.017Z" class="b"/></svg>