<svg xmlns="http://www.w3.org/2000/svg" viewBox="0 0 512 128"><defs><clipPath id="a" clipPathUnits="userSpaceOnUse"><rect width="107.152" height="107.152" x="23.103" y="31.533" ry="20.18" style="fill:none;fill-opacity:1;stroke:#000;stroke-width:4.36281;stroke-linejoin:round;stroke-miterlimit:1.41421;stroke-dasharray:none;stroke-opacity:1"/></clipPath></defs><g transform="matrix(1.0701 0 0 1.0701 19.107 -8.693)"><g clip-path="url(#a)" transform="translate(-8 -18)"><path d="M-66.084 24.164a12.373 3.972 0 0 1-12.372 3.972 12.373 3.972 0 0 1-12.373-3.972 12.373 3.972 0 0 1 12.373-3.973 12.373 3.972 0 0 1 12.372 3.973z" style="fill:#f3b626;stroke:#000;stroke-width:.299852;stroke-linejoin:round;stroke-miterlimit:1.41421" transform="scale(-1)"/><path d="M-58.262 30.164a20.194 6.483 0 0 1-20.194 6.483 20.194 6.483 0 0 1-20.194-6.483 20.194 6.483 0 0 1 20.194-6.484 20.194 6.483 0 0 1 20.194 6.484z" style="fill:#f3b626;stroke:#000;stroke-width:.489407;stroke-linejoin:round;stroke-miterlimit:1.41421" transform="scale(-1)"/><path d="M-49.573 38.164a28.883 9.273 0 0 1-28.883 9.273 28.883 9.273 0 0 1-28.884-9.273 28.883 9.273 0 0 1 28.884-9.274 28.883 9.273 0 0 1 28.883 9.274z" style="fill:#f3b626;stroke:#000;stroke-width:.7;stroke-linejoin:round;stroke-miterlimit:1.41421" transform="scale(-1)"/><path d="M-40.126 48.164a38.33 12.306 0 0 1-38.33 12.305 38.33 12.306 0 0 1-38.33-12.305 38.33 12.306 0 0 1 38.33-12.306 38.33 12.306 0 0 1 38.33 12.306Z" style="fill:#f3b626;stroke:#000;stroke-width:.7;stroke-linejoin:round;stroke-miterlimit:1.41421" transform="scale(-1)"/><path d="M-34.915 58.164a43.541 13.98 0 0 1-43.541 13.979 43.541 13.98 0 0 1-43.542-13.98 43.541 13.98 0 0 1 43.542-13.978 43.541 13.98 0 0 1 43.541 13.979Z" style="fill:#f3b626;stroke:#000;stroke-width:.7;stroke-linejoin:round;stroke-miterlimit:1.41421" transform="scale(-1)"/><path d="M41.569-71.705h73.855a6.662 6.662 0 0 1 6.677 6.677v9.116c-10.164 21.019-84.793 14.976-87.209 0v-9.116a6.662 6.662 0 0 1 6.677-6.677z" style="fill:#f3b626;fill-opacity:1;stroke:#000;stroke-width:.625018;stroke-linejoin:round;stroke-miterlimit:1.41421"/><path d="M121.998-74.37a43.541 13.98 0 0 1-43.542 13.979 43.541 13.98 0 0 1-43.541-13.98A43.541 13.98 0 0 1 78.456-88.35a43.541 13.98 0 0 1 43.542 13.98Z" style="fill:#f3b626;stroke:#000;stroke-width:.7;stroke-linejoin:round;stroke-miterlimit:1.41421"/><path d="M116.786-84.37a38.33 12.306 0 0 1-38.33 12.305 38.33 12.306 0 0 1-38.33-12.306 38.33 12.306 0 0 1 38.33-12.305 38.33 12.306 0 0 1 38.33 12.305Z" style="fill:#f3b626;stroke:#000;stroke-width:.7;stroke-linejoin:round;stroke-miterlimit:1.41421"/><path d="M107.34-94.37a28.883 9.273 0 0 1-28.884 9.273 28.883 9.273 0 0 1-28.883-9.274 28.883 9.273 0 0 1 28.883-9.273 28.883 9.273 0 0 1 28.884 9.273z" style="fill:#f3b626;stroke:#000;stroke-width:.7;stroke-linejoin:round;stroke-miterlimit:1.41421"/><path d="M98.65-102.37a20.194 6.483 0 0 1-20.194 6.483 20.194 6.483 0 0 1-20.194-6.484 20.194 6.483 0 0 1 20.194-6.483 20.194 6.483 0 0 1 20.194 6.483z" style="fill:#f3b626;stroke:#000;stroke-width:.489407;stroke-linejoin:round;stroke-miterlimit:1.41421"/><path d="M90.829-108.37a12.373 3.972 0 0 1-12.373 3.972 12.373 3.972 0 0 1-12.372-3.973 12.373 3.972 0 0 1 12.372-3.972 12.373 3.972 0 0 1 12.373 3.972z" style="fill:#f3b626;stroke:#000;stroke-width:.299852;stroke-linejoin:round;stroke-miterlimit:1.41421"/><path d="M89.048-51.258a10.119 7.88 0 0 1-10.118 7.88 10.119 7.88 0 0 1-10.12-7.88 10.119 7.88 0 0 1 10.12-7.88 10.119 7.88 0 0 1 10.118 7.88z" style="stroke:#000;stroke-width:.494707;stroke-linejoin:round;stroke-miterlimit:1.41421"/><path d="m43.948 38.26-14.005 8.085-14.006-8.086V22.087L29.943 14l14.005 8.086z" style="fill:#e3b900;stroke:#000;stroke-width:1.00019;stroke-linejoin:round;stroke-miterlimit:1.41421" transform="matrix(.99962 0 0 1.00001 5.073 3.455)"/><path d="m63.505 166.758-14 8.086-14-8.086v-16.172l14-8.087 14 8.087zM92.505 166.758l-14 8.086-14-8.086v-16.172l14-8.087 14 8.087zM49.004 41.714l-14 8.086-14-8.086V25.542l14-8.087 14 8.087zM34.504 66.723l-14 8.086-14-8.086V50.55l14-8.086 14 8.086z" style="fill:#fff;stroke:#000;stroke-width:1;stroke-linejoin:round;stroke-miterlimit:1.41421"/><path d="m78.005 41.714-14 8.086-14-8.086V25.542l14-8.087 14 8.087z" style="fill:#fc0;stroke:#000;stroke-width:1;stroke-linejoin:round;stroke-miterlimit:1.41421"/><path d="m63.505 66.723-14 8.086-14-8.086V50.55l14-8.086 14 8.086zM49.004 91.732l-14 8.086-14-8.086V75.559l14-8.086 14 8.086zM34.504 116.74l-14 8.087-14-8.087v-16.172l14-8.086 14 8.086ZM107.005 41.714l-14 8.086-14-8.086V25.542l14-8.087 14 8.087z" style="fill:#fff;stroke:#000;stroke-width:1;stroke-linejoin:round;stroke-miterlimit:1.41421"/><path d="m92.505 66.723-14 8.086-14-8.086V50.55l14-8.086 14 8.086zM78.005 91.732l-14 8.086-14-8.086V75.559l14-8.086 14 8.086z" style="fill:#fc0;stroke:#000;stroke-width:1;stroke-linejoin:round;stroke-miterlimit:1.41421"/><path d="m63.505 116.74-14 8.087-14-8.087v-16.172l14-8.086 14 8.086z" style="fill:#c83737;stroke:#000;stroke-width:1;stroke-linejoin:round;stroke-miterlimit:1.41421"/><path d="m49.004 141.75-14 8.085-14-8.086v-16.172l14-8.086 14 8.086z" style="fill:#fff;stroke:#000;stroke-width:1;stroke-linejoin:round;stroke-miterlimit:1.41421"/><path d="m136.005 41.714-14 8.086-14-8.086V25.542l14-8.087 14 8.087z" style="fill:#c83737;stroke:#000;stroke-width:1;stroke-linejoin:round;stroke-miterlimit:1.41421"/><path d="m121.505 66.723-14 8.086-14-8.086V50.55l14-8.086 14 8.086z" style="fill:#fff;stroke:#000;stroke-width:1;stroke-linejoin:round;stroke-miterlimit:1.41421"/><path d="m107.005 91.732-14 8.086-14-8.086V75.559l14-8.086 14 8.086z" style="fill:#c83737;stroke:#000;stroke-width:1;stroke-linejoin:round;stroke-miterlimit:1.41421"/><path d="m92.505 116.74-14 8.087-14-8.087v-16.172l14-8.086 14 8.086z" style="fill:#fff;stroke:#000;stroke-width:1;stroke-linejoin:round;stroke-miterlimit:1.41421"/><path d="m78.005 141.75-14 8.085-14-8.086v-16.172l14-8.086 14 8.086zM150.505 66.723l-14 8.086-14-8.086V50.55l14-8.086 14 8.086z" style="fill:#fc0;stroke:#000;stroke-width:1;stroke-linejoin:round;stroke-miterlimit:1.41421"/><path d="m136.005 91.732-14 8.086-14-8.086V75.559l14-8.086 14 8.086z" style="fill:#fff;stroke:#000;stroke-width:1;stroke-linejoin:round;stroke-miterlimit:1.41421"/><path d="m121.505 116.74-14 8.087-14-8.087v-16.172l14-8.086 14 8.086z" style="fill:#fc0;stroke:#000;stroke-width:1;stroke-linejoin:round;stroke-miterlimit:1.41421"/><path d="m107.005 141.75-14 8.085-14-8.086v-16.172l14-8.086 14 8.086z" style="fill:#c83737;stroke:#000;stroke-width:1;stroke-linejoin:round;stroke-miterlimit:1.41421"/><path d="m150.505 116.74-14 8.087-14-8.087v-16.172l14-8.086 14 8.086zM136.005 141.75l-14 8.085-14-8.086v-16.172l14-8.086 14 8.086zM121.505 166.758l-14 8.086-14-8.086v-16.172l14-8.087 14 8.087z" style="fill:#fff;stroke:#000;stroke-width:1;stroke-linejoin:round;stroke-miterlimit:1.41421"/></g><rect width="107.152" height="107.152" x="16.22" y="13.363" ry="20.18" style="fill:none;fill-opacity:1;stroke:#000;stroke-width:4.36281;stroke-linejoin:round;stroke-miterlimit:1.41421;stroke-dasharray:none;stroke-opacity:1"/></g><text xml:space="preserve" x="177.71" y="95.899" style="font-style:normal;font-weight:400;font-size:113.383px;line-height:1.25;font-family:sans-serif;fill:#000;fill-opacity:1;stroke:none;stroke-width:1;stroke-dasharray:none"><tspan x="177.71" y="95.899" style="font-style:normal;font-variant:normal;font-weight:400;font-stretch:normal;font-size:113.383px;font-family:&quot;Noto Sans Mono&quot;;-inkscape-font-specification:&quot;Noto Sans Mono&quot;;fill:#000;stroke:#fff;stroke-width:1;stroke-dasharray:none">bpf<tspan style="font-style:normal;font-variant:normal;font-weight:400;font-stretch:normal;font-family:&quot;Noto Sans Mono&quot;;-inkscape-font-specification:&quot;Noto Sans Mono&quot;;fill:#000;stroke:#fff;stroke-width:1;stroke-dasharray:none">d</tspan></tspan></text></svg>