<?xml version="1.0" encoding="utf-8"?>
<!-- Generator: Adobe Illustrator 25.2.0, SVG Export Plug-In . SVG Version: 6.00 Build 0)  -->
<svg version="1.1" id="Layer_1" xmlns="http://www.w3.org/2000/svg" xmlns:xlink="http://www.w3.org/1999/xlink" x="0px" y="0px"
	 viewBox="0 0 160 80" style="enable-background:new 0 0 160 80;" xml:space="preserve">
<style type="text/css">
	.st0{fill:#FF3E00;}
	.st1{fill:#FFFFFF;}
	.st2{fill:#121646;}
</style>
<g>
	<g>
		<g>
			<circle class="st0" cx="26.5" cy="40" r="26"/>
		</g>
		<g>
			<g>
				<path class="st1" d="M42,38.7c1-1,1.6-2.3,1.6-3.7c0-2.6-2.1-4.5-4.8-4.2l-4,0.4c-0.4,0-0.8,0.4-0.8,0.8v7V40v7
					c0,0.4,0.3,0.7,0.8,0.7l4-0.4c2.6-0.3,4.8-2.6,4.8-5.2v0C43.6,40.7,43,39.5,42,38.7z"/>
			</g>
			<g>
				<path class="st1" d="M18.2,31.2l-4-0.4c-2.6-0.3-4.8,1.6-4.8,4.2c0,1.4,0.6,2.7,1.6,3.7c-1,0.8-1.6,2-1.6,3.3v0
					c0,2.6,2.1,4.9,4.8,5.2l4,0.4c0.4,0,0.8-0.3,0.8-0.7v-7v-0.9v-7C18.9,31.7,18.6,31.3,18.2,31.2z"/>
			</g>
			<g>
				<path class="st1" d="M26.5,34.6h-4c-0.4,0-0.8,0.3-0.8,0.8v10.4v1.1c0,0.4,0.3,0.9,0.8,0.9h4c0,0.8-1.2,1.8-3.9,2.1l-0.3,0
					c-0.2,0-0.6,0-0.6,0.8v0.2c0,0.4,0.3,0.8,0.8,0.8h4c2.6,0,4.8-2.5,4.8-5.2v-7.1C31.2,36.7,29.1,34.6,26.5,34.6z"/>
			</g>
		</g>
	</g>
	<g>
		<g>
			<path class="st2" d="M155.7,24.6v0.5h-0.9v2.6h-0.6v-2.6h-0.9v-0.5H155.7z M158.9,27.7l-0.1-1.8c0-0.2,0-0.5,0-0.9h0
				c-0.1,0.3-0.2,0.6-0.2,0.9l-0.5,1.7h-0.6l-0.5-1.8c-0.1-0.2-0.1-0.6-0.2-0.9h0c0,0.3,0,0.6,0,0.9l-0.1,1.8h-0.6l0.2-3.1h0.9
				l0.5,1.5c0.1,0.2,0.1,0.5,0.2,0.8h0c0.1-0.3,0.1-0.6,0.2-0.8l0.5-1.5h0.8l0.2,3.1H158.9z"/>
		</g>
		<path class="st2" d="M68.8,43.2v7.2h17.4c0.3,0,0.7,0.4,0.7,0.7v4.6c0,0.3-0.4,0.7-0.7,0.7H62.6c-0.3,0-0.6-0.3-0.6-0.6V25.3
			c0-0.3,0.3-0.6,0.6-0.6h23.6c0.3,0,0.7,0.4,0.7,0.7v4.6c0,0.3-0.4,0.7-0.7,0.7H68.8v6.5h15.9c0.3,0,0.7,0.4,0.7,0.7v4.6
			c0,0.3-0.4,0.7-0.7,0.7H68.8z"/>
		<path class="st2" d="M91.9,56.5c-0.3,0-0.6-0.3-0.6-0.6V25.3c0-0.3,0.3-0.6,0.6-0.6h12.7c9.5,0,16.7,6.2,16.7,16
			c0,9.6-6,16-16.6,16H91.9z M98.1,30.7v19.8h6.6c6.4,0,9.7-3.8,9.7-9.9c0-6.1-4.1-9.9-9.8-9.9H98.1z"/>
		<path class="st2" d="M126.3,56.5c-0.3,0-0.6-0.3-0.6-0.6V25.3c0-0.3,0.3-0.6,0.6-0.6h15.4c6.8,0,10.4,3.8,10.4,8.8
			c0,2.6-1,4.6-2.6,6v0.1c2.4,1.6,3.8,4.2,3.8,7.4c0,6.1-4.2,9.6-11.4,9.6H126.3z M132.5,30.7v6.5h8.7c3,0,4.1-1.5,4.1-3.2
			c0-1.8-1.4-3.3-4.6-3.3H132.5z M141.1,50.5c3.8,0,5.3-1.3,5.3-3.8c0-2.3-1.7-3.9-5.5-3.9h-8.5v7.8H141.1z"/>
	</g>
	<g>
		<g>
			<circle class="st0" cx="26.5" cy="40" r="26"/>
		</g>
		<g>
			<g>
				<path class="st1" d="M42,38.7c1-1,1.6-2.3,1.6-3.7c0-2.6-2.1-4.5-4.8-4.2l-4,0.4c-0.4,0-0.8,0.4-0.8,0.8v7V40v7
					c0,0.4,0.3,0.7,0.8,0.7l4-0.4c2.6-0.3,4.8-2.6,4.8-5.2v0C43.6,40.7,43,39.5,42,38.7z"/>
			</g>
			<g>
				<path class="st1" d="M18.2,31.2l-4-0.4c-2.6-0.3-4.8,1.6-4.8,4.2c0,1.4,0.6,2.7,1.6,3.7c-1,0.8-1.6,2-1.6,3.3v0
					c0,2.6,2.1,4.9,4.8,5.2l4,0.4c0.4,0,0.8-0.3,0.8-0.7v-7v-0.9v-7C18.9,31.7,18.6,31.3,18.2,31.2z"/>
			</g>
			<g>
				<path class="st1" d="M26.5,34.6h-4c-0.4,0-0.8,0.3-0.8,0.8v10.4v1.1c0,0.4,0.3,0.9,0.8,0.9h4c0,0.8-1.2,1.8-3.9,2.1l-0.3,0
					c-0.2,0-0.6,0-0.6,0.8v0.2c0,0.4,0.3,0.8,0.8,0.8h4c2.6,0,4.8-2.5,4.8-5.2v-7.1C31.2,36.7,29.1,34.6,26.5,34.6z"/>
			</g>
		</g>
	</g>
	<g>
		<g>
			<path class="st2" d="M155.7,24.6v0.5h-0.9v2.6h-0.6v-2.6h-0.9v-0.5H155.7z M158.9,27.7l-0.1-1.8c0-0.2,0-0.5,0-0.9h0
				c-0.1,0.3-0.2,0.6-0.2,0.9l-0.5,1.7h-0.6l-0.5-1.8c-0.1-0.2-0.1-0.6-0.2-0.9h0c0,0.3,0,0.6,0,0.9l-0.1,1.8h-0.6l0.2-3.1h0.9
				l0.5,1.5c0.1,0.2,0.1,0.5,0.2,0.8h0c0.1-0.3,0.1-0.6,0.2-0.8l0.5-1.5h0.8l0.2,3.1H158.9z"/>
		</g>
		<path class="st2" d="M68.8,43.2v7.2h17.4c0.3,0,0.7,0.4,0.7,0.7v4.6c0,0.3-0.4,0.7-0.7,0.7H62.6c-0.3,0-0.6-0.3-0.6-0.6V25.3
			c0-0.3,0.3-0.6,0.6-0.6h23.6c0.3,0,0.7,0.4,0.7,0.7v4.6c0,0.3-0.4,0.7-0.7,0.7H68.8v6.5h15.9c0.3,0,0.7,0.4,0.7,0.7v4.6
			c0,0.3-0.4,0.7-0.7,0.7H68.8z"/>
		<path class="st2" d="M91.9,56.5c-0.3,0-0.6-0.3-0.6-0.6V25.3c0-0.3,0.3-0.6,0.6-0.6h12.7c9.5,0,16.7,6.2,16.7,16
			c0,9.6-6,16-16.6,16H91.9z M98.1,30.7v19.8h6.6c6.4,0,9.7-3.8,9.7-9.9c0-6.1-4.1-9.9-9.8-9.9H98.1z"/>
		<path class="st2" d="M126.3,56.5c-0.3,0-0.6-0.3-0.6-0.6V25.3c0-0.3,0.3-0.6,0.6-0.6h15.4c6.8,0,10.4,3.8,10.4,8.8
			c0,2.6-1,4.6-2.6,6v0.1c2.4,1.6,3.8,4.2,3.8,7.4c0,6.1-4.2,9.6-11.4,9.6H126.3z M132.5,30.7v6.5h8.7c3,0,4.1-1.5,4.1-3.2
			c0-1.8-1.4-3.3-4.6-3.3H132.5z M141.1,50.5c3.8,0,5.3-1.3,5.3-3.8c0-2.3-1.7-3.9-5.5-3.9h-8.5v7.8H141.1z"/>
	</g>
</g>
</svg>
