<svg xmlns="http://www.w3.org/2000/svg" xml:space="preserve" viewBox="0 0 64 64"><path d="m9.2 10.2 5.7 2.6 5.7-5c.1-.4.1-.8.1-1.3C20.7 3 17.8.1 14.3.1c-2.1 0-4.1 1-5.3 2.8l-1 5z" style="fill:#ffd106" transform="scale(2.6556 2.66667)"/><path d="M3.3 16.2c-.1.4-.1.8-.1 1.3 0 3.5 2.9 6.4 6.4 6.4 2.1 0 4.1-1.1 5.3-2.8l.9-4.9-1.3-2.4-5.7-2.6z" style="fill:#21bab0" transform="scale(2.6556 2.66667)"/><path d="m3.3 6.4 3.9.9.8-4.4c-.5-.5-1.1-.7-1.8-.7-1.7 0-3.1 1.4-3.1 3.1 0 .4.1.7.2 1.1" style="fill:#ee4f97" transform="scale(2.6556 2.66667)"/><path d="M3 7.3c-1.7.6-3 2.2-3 4.1 0 1.8 1.1 3.4 2.8 4l5.5-4.9-1-2.1z" style="fill:#14a7df" transform="scale(2.6556 2.66667)"/><path d="M16 21.1c.5.4 1.2.6 1.9.6 1.7 0 3.1-1.4 3.1-3.1 0-.4-.1-.7-.2-1.1l-3.9-.9z" style="fill:#91c73e" transform="scale(2.6556 2.66667)"/><path d="m16.8 15.7 4.3 1c1.7-.6 3-2.2 3-4.1 0-1.8-1.1-3.4-2.8-4l-5.6 4.9z" style="fill:#0279a0" transform="scale(2.6556 2.66667)"/><path d="M0 0h63.734v64H0z" style="stroke-width:2.66113;fill:none"/></svg>