<svg xmlns="http://www.w3.org/2000/svg" version="1.2" viewBox="0 0 60 30"><path d="M1840.988 350.852H0V0h1840.988v350.852" style="fill:#2b7d82;fill-opacity:1;fill-rule:nonzero;stroke:none" transform="matrix(.0326 0 0 .0326 0 9.283)"/><path d="M153.656 99.344h-25.691v160.02h25.691zm103.946 160.02v-94.266c0-13.84-.602-25.532-1.801-35.04 2.187 3.938 4.875 7.544 8.07 10.852.582.621 3.078 2.996 7.453 7.137l118.578 111.316h14.344V99.343H380.34v87.759c0 16.34.797 29.48 2.418 39.382-6.16-8.25-12.047-14.984-17.621-20.144L249.817 99.344H233.69v160.02zm252.066 0v-64.5h68.996v-21.391h-68.996v-52.407h120.953V99.344H483.973v160.02Zm190.246-160.02h-25.691v160.02h25.691zm103.922 160.02v-94.266c0-13.84-.582-25.532-1.777-35.04 2.183 3.938 4.875 7.544 8.07 10.852.582.621 3.078 2.996 7.453 7.137l118.574 111.316h14.336V99.343h-23.894v87.759c0 16.34.797 29.48 2.414 39.382-6.172-8.25-12.04-14.984-17.617-20.144L796.075 99.344h-16.13v160.02Zm252.082-160.02h-25.691v160.02h25.691zm80.039 0v160.02h84.816c27.293 0 46.985-4.141 59.145-12.403 21.313-14.492 31.96-37.309 31.96-68.547 0-14.266-2.835-27.254-8.51-39.055-5.673-11.789-13.5-20.976-23.45-27.617-12.348-8.254-32.043-12.398-59.145-12.398zm132.598 33.844c11.363 8.921 17.035 23.93 17.035 45.085 0 21.954-5.672 37.403-17.035 46.329-10.364 8.293-27.461 12.43-51.368 12.43h-55.535V120.745h55.535c23.704 0 40.817 4.164 51.368 12.441m103.96 126.176 19.692-39.394h104.246l19.695 39.394h28.403l-85.758-160.02h-27.453l-84.223 160.02zm71.981-141.722L1486 199.527h-83.031zm280.418 3.425V99.344H1557.98v21.722h70.465v138.297h25.684V121.066h70.785" style="fill:#fff;fill-opacity:1;fill-rule:nonzero;stroke:none" transform="matrix(.0326 0 0 .0326 0 9.283)"/></svg>