<?xml version="1.0" encoding="UTF-8" standalone="no"?>
<svg xmlns:svg="http://www.w3.org/2000/svg" xmlns="http://www.w3.org/2000/svg" version="1.1" width="140.67963" height="109.61032" id="svg4122">
  <defs id="defs4124"/>
  <g transform="translate(-129.66019,-477.557)" id="layer1">
    <path d="m 264.38851,534.05415 c -1.024,-0.15783 -3.1821,-1.2332 -4.72727,-7.12027 -2.47374,-9.42151 -3.64088,-17.50338 -7.83229,-17.50338 -4.19509,0 -6.09627,8.08187 -8.57001,17.50338 -1.46443,5.57143 -3.00593,7.12027 -5.47968,7.12027 -2.31958,0 -4.72359,-1.1341 -8.26171,-15.69763 C 226.42722,505.6208 224.3205,482.557 213.9484,482.557 c -10.37945,0 -13.43676,30.06295 -14.77272,35.85825 -1.64426,7.14228 -5.72558,15.64257 -10.86024,15.64257 -5.13467,0 -7.79192,-5.91276 -9.32976,-12.25861 -2.35263,-9.71513 -5.02823,-23.77949 -11.85488,-23.77949 -6.83031,0 -9.04713,11.64568 -12.05673,24.36673 -1.77273,7.49831 -4.60249,11.67137 -9.57567,11.67137 l -10.83821,0 0,0.0477 c 1.41671,0.42208 4.2428,2.76369 4.97318,7.3001 1.71767,10.7061 3.03161,17.33089 6.76792,17.33089 3.7363,0 5.09429,-5.7109 7.25974,-14.61124 1.69197,-6.97345 4.33455,-10.01609 7.49095,-10.01609 4.63919,0 6.82299,5.61548 9.35912,16.34725 5.0429,21.37917 6.11829,31.71089 14.2442,31.71089 8.06352,0 9.32242,-10.35375 14.74335,-31.71089 2.35998,-9.28937 6.76059,-16.35091 11.89527,-16.35091 5.13466,0 8.80122,6.84133 10.66938,12.2953 4.0446,11.82551 5.90909,16.27753 10.36475,16.27753 4.45202,0 6.96979,-5.34388 10.89695,-18.24844 2.47374,-8.12225 2.8371,-10.32439 10.11519,-10.32439 l 10.94832,0 0,-0.0514 z" id="path40" style="fill:#e90029;fill-opacity:1;fill-rule:nonzero;stroke:none"/>
  </g>
</svg>