<?xml version="1.0" encoding="UTF-8" standalone="no"?>
<svg
   xmlns:dc="http://purl.org/dc/elements/1.1/"
   xmlns:cc="http://creativecommons.org/ns#"
   xmlns:rdf="http://www.w3.org/1999/02/22-rdf-syntax-ns#"
   xmlns:svg="http://www.w3.org/2000/svg"
   xmlns="http://www.w3.org/2000/svg"
   xmlns:sodipodi="http://sodipodi.sourceforge.net/DTD/sodipodi-0.dtd"
   xmlns:inkscape="http://www.inkscape.org/namespaces/inkscape"
   inkscape:version="1.0 (4035a4fb49, 2020-05-01)"
   height="64"
   width="64"
   sodipodi:docname="cluster-color-64x64.svg"
   xml:space="preserve"
   viewBox="0 0 64 64"
   y="0px"
   x="0px"
   id="Layer_1"
   version="1.1"><metadata
   id="metadata118"><rdf:RDF><cc:Work
       rdf:about=""><dc:format>image/svg+xml</dc:format><dc:type
         rdf:resource="http://purl.org/dc/dcmitype/StillImage" /><dc:title></dc:title></cc:Work></rdf:RDF></metadata><defs
   id="defs116" /><sodipodi:namedview
   inkscape:current-layer="Layer_1"
   inkscape:window-maximized="1"
   inkscape:window-y="0"
   inkscape:window-x="0"
   inkscape:cy="50.903456"
   inkscape:cx="12"
   inkscape:zoom="34.958333"
   fit-margin-bottom="0"
   fit-margin-right="0"
   fit-margin-left="0"
   fit-margin-top="0"
   showgrid="false"
   id="namedview114"
   inkscape:window-height="1388"
   inkscape:window-width="2560"
   inkscape:pageshadow="2"
   inkscape:pageopacity="0"
   guidetolerance="10"
   gridtolerance="10"
   objecttolerance="10"
   borderopacity="1"
   bordercolor="#666666"
   pagecolor="#ffffff" />
<style
   id="style91"
   type="text/css">
	.st0{fill:#FFD106;}
	.st1{fill:#21BAB0;}
	.st2{fill:#EE4F97;}
	.st3{fill:#14A7DF;}
	.st4{fill:#91C73E;}
	.st5{fill:#0279A0;}
	.st6{fill:none;}
</style>
<g
   transform="scale(2.6556017,2.6666667)"
   id="g109">
	<g
   id="g107">
		<g
   id="g105">
			<path
   id="path93"
   d="m 9.2,10.2 5.7,2.6 5.7,-5 C 20.7,7.4 20.7,7 20.7,6.5 20.7,3 17.8,0.1 14.3,0.1 12.2,0.1 10.2,1.1 9,2.9 l -1,5 z"
   class="st0" />
			<path
   id="path95"
   d="m 3.3,16.2 c -0.1,0.4 -0.1,0.8 -0.1,1.3 0,3.5 2.9,6.4 6.4,6.4 2.1,0 4.1,-1.1 5.3,-2.8 l 0.9,-4.9 -1.3,-2.4 -5.7,-2.6 z"
   class="st1" />
			<path
   id="path97"
   d="M 3.3,6.4 7.2,7.3 8,2.9 C 7.5,2.4 6.9,2.2 6.2,2.2 4.5,2.2 3.1,3.6 3.1,5.3 3.1,5.7 3.2,6 3.3,6.4"
   class="st2" />
			<path
   id="path99"
   d="m 3,7.3 c -1.7,0.6 -3,2.2 -3,4.1 0,1.8 1.1,3.4 2.8,4 l 5.5,-4.9 -1,-2.1 z"
   class="st3" />
			<path
   id="path101"
   d="m 16,21.1 c 0.5,0.4 1.2,0.6 1.9,0.6 1.7,0 3.1,-1.4 3.1,-3.1 0,-0.4 -0.1,-0.7 -0.2,-1.1 l -3.9,-0.9 z"
   class="st4" />
			<path
   id="path103"
   d="m 16.8,15.7 4.3,1 c 1.7,-0.6 3,-2.2 3,-4.1 0,-1.8 -1.1,-3.4 -2.8,-4 l -5.6,4.9 z"
   class="st5" />
		</g>
	</g>
</g>
<rect
   style="stroke-width:2.66113"
   y="0"
   x="0"
   id="rect111"
   height="64"
   width="63.73444"
   class="st6" />
</svg>
