<svg version="1.1" viewBox="0.0 0.0 96.0 96.0" fill="none" stroke="none" stroke-linecap="square" stroke-miterlimit="10" xmlns:xlink="http://www.w3.org/1999/xlink" xmlns="http://www.w3.org/2000/svg"><clipPath id="p.0"><path d="m0 0l96.0 0l0 96.0l-96.0 0l0 -96.0z" clip-rule="nonzero"/></clipPath><g clip-path="url(#p.0)"><path fill="#000000" fill-opacity="0.0" d="m0 0l96.0 0l0 96.0l-96.0 0z" fill-rule="evenodd"/><path fill="#000000" fill-opacity="0.0" d="m33.216 29.69348c0 -0.031496048 0 -0.04724312 0 -0.062992096c0 -0.01574707 0 -0.031496048 0 -0.062992096" fill-rule="evenodd"/><path stroke="#000000" stroke-width="1.0" stroke-linejoin="round" stroke-linecap="butt" d="m33.216 29.69348c0 -0.031496048 0 -0.04724312 0 -0.062992096c0 -0.01574707 0 -0.031496048 0 -0.062992096" fill-rule="evenodd"/><path fill="#cc0000" d="m82.51685 28.574802l-14.125984 56.50394l-45.6378 0l-14.125984 -56.50394z" fill-rule="evenodd"/><path stroke="#000000" stroke-width="1.0" stroke-linejoin="round" stroke-linecap="butt" d="m82.51685 28.574802l-14.125984 56.50394l-45.6378 0l-14.125984 -56.50394z" fill-rule="evenodd"/><path fill="#cfe2f3" d="m8.630866 29.63685l0 0c0 -1.2529907 3.892396 -2.4546642 10.820905 -3.340662c6.9285107 -0.8859978 16.325584 -1.3837471 26.123978 -1.3837471l0 0c20.404095 0 36.94488 2.1151905 36.94488 4.724409l0 0c0 2.6092205 -16.540787 4.724409 -36.94488 4.724409l0 0c-20.404095 0 -36.94488 -2.1151886 -36.94488 -4.724409z" fill-rule="evenodd"/><path stroke="#000000" stroke-width="1.0" stroke-linejoin="round" stroke-linecap="butt" d="m8.630866 29.63685l0 0c0 -1.2529907 3.892396 -2.4546642 10.820905 -3.340662c6.9285107 -0.8859978 16.325584 -1.3837471 26.123978 -1.3837471l0 0c20.404095 0 36.94488 2.1151905 36.94488 4.724409l0 0c0 2.6092205 -16.540787 4.724409 -36.94488 4.724409l0 0c-20.404095 0 -36.94488 -2.1151886 -36.94488 -4.724409z" fill-rule="evenodd"/><path fill="#cfe2f3" d="m40.186142 29.629921l-1.8937874 0.79551506l0 -1.5910282zm-1.3748512 -3.919836l-0.8626442 2.1444874l-0.9524231 -1.1250114zm-3.3180618 -1.6234703l0.67347336 2.2369537l-1.3469505 0zm-3.3185005 1.6234703l1.815506 1.0194759l-0.9524231 1.1250114zm-1.3744125 3.919836l1.8937836 -0.79551315l0 1.5910282zm1.3744125 3.919323l0.8630829 -2.1439743l0.9524231 1.1250114zm3.3185005 1.6239853l-0.6734772 -2.2369576l1.3469505 0zm3.3180618 -1.6239853l-1.8150673 -1.0189629l0.9524231 -1.1250114zm-5.6645203 -3.919323c0 -1.5307407 1.0505447 -2.7716541 2.3464584 -2.7716541c1.2959099 0 2.3464546 1.2409134 2.3464546 2.7716541c0 1.5307426 -1.0505447 2.7716522 -2.3464546 2.7716522c-1.2959137 0 -2.3464584 -1.2409096 -2.3464584 -2.7716522z" fill-rule="evenodd"/><path stroke="#000000" stroke-width="1.0" stroke-linejoin="round" stroke-linecap="butt" d="m40.186142 29.629921l-1.8937874 0.79551506l0 -1.5910282zm-1.3748512 -3.919836l-0.8626442 2.1444874l-0.9524231 -1.1250114zm-3.3180618 -1.6234703l0.67347336 2.2369537l-1.3469505 0zm-3.3185005 1.6234703l1.815506 1.0194759l-0.9524231 1.1250114zm-1.3744125 3.919836l1.8937836 -0.79551315l0 1.5910282zm1.3744125 3.919323l0.8630829 -2.1439743l0.9524231 1.1250114zm3.3185005 1.6239853l-0.6734772 -2.2369576l1.3469505 0zm3.3180618 -1.6239853l-1.8150673 -1.0189629l0.9524231 -1.1250114zm-5.6645203 -3.919323c0 -1.5307407 1.0505447 -2.7716541 2.3464584 -2.7716541c1.2959099 0 2.3464546 1.2409134 2.3464546 2.7716541c0 1.5307426 -1.0505447 2.7716522 -2.3464546 2.7716522c-1.2959137 0 -2.3464584 -1.2409096 -2.3464584 -2.7716522z" fill-rule="evenodd"/><path fill="#cfe2f3" d="m47.99979 22.03412l-1.8937874 0.79551506l0 -1.5910282zm-1.3748512 -3.919836l-0.8626442 2.1444874l-0.9524231 -1.1250114zm-3.3180618 -1.6234703l0.67347336 2.2369537l-1.3469505 0zm-3.3184967 1.6234703l1.8155022 1.0194759l-0.9524231 1.1250114zm-1.3744164 3.919836l1.8937836 -0.79551315l0 1.5910282zm1.3744164 3.919323l0.8630791 -2.1439743l0.9524231 1.1250114zm3.3184967 1.6239834l-0.6734772 -2.2369537l1.3469505 0zm3.3180618 -1.6239834l-1.8150673 -1.0189629l0.9524231 -1.1250114zm-5.6645203 -3.919323c0 -1.5307426 1.0505447 -2.7716541 2.3464584 -2.7716541c1.2959099 0 2.3464546 1.2409115 2.3464546 2.7716541c0 1.5307426 -1.0505447 2.7716541 -2.3464546 2.7716541c-1.2959137 0 -2.3464584 -1.2409115 -2.3464584 -2.7716541z" fill-rule="evenodd"/><path stroke="#000000" stroke-width="1.0" stroke-linejoin="round" stroke-linecap="butt" d="m47.99979 22.03412l-1.8937874 0.79551506l0 -1.5910282zm-1.3748512 -3.919836l-0.8626442 2.1444874l-0.9524231 -1.1250114zm-3.3180618 -1.6234703l0.67347336 2.2369537l-1.3469505 0zm-3.3184967 1.6234703l1.8155022 1.0194759l-0.9524231 1.1250114zm-1.3744164 3.919836l1.8937836 -0.79551315l0 1.5910282zm1.3744164 3.919323l0.8630791 -2.1439743l0.9524231 1.1250114zm3.3184967 1.6239834l-0.6734772 -2.2369537l1.3469505 0zm3.3180618 -1.6239834l-1.8150673 -1.0189629l0.9524231 -1.1250114zm-5.6645203 -3.919323c0 -1.5307426 1.0505447 -2.7716541 2.3464584 -2.7716541c1.2959099 0 2.3464546 1.2409115 2.3464546 2.7716541c0 1.5307426 -1.0505447 2.7716541 -2.3464546 2.7716541c-1.2959137 0 -2.3464584 -1.2409115 -2.3464584 -2.7716541z" fill-rule="evenodd"/><path fill="#cfe2f3" d="m55.87118 15.787401l-1.8937874 0.79551506l0 -1.5910282zm-1.3748512 -3.919836l-0.8626442 2.1444874l-0.9524231 -1.1250114zm-3.3180618 -1.6234703l0.67347336 2.2369547l-1.3469505 0zm-3.3185005 1.6234703l1.815506 1.0194759l-0.9524231 1.1250114zm-1.3744125 3.919836l1.8937836 -0.79551315l0 1.5910282zm1.3744125 3.919323l0.8630829 -2.1439743l0.9524231 1.1250114zm3.3185005 1.6239853l-0.6734772 -2.2369556l1.3469505 0zm3.3180618 -1.6239853l-1.8150673 -1.0189629l0.9524231 -1.1250114zm-5.6645203 -3.919323c0 -1.5307417 1.0505447 -2.7716532 2.3464584 -2.7716532c1.2959099 0 2.3464546 1.2409115 2.3464546 2.7716532c0 1.5307426 -1.0505447 2.7716541 -2.3464546 2.7716541c-1.2959137 0 -2.3464584 -1.2409115 -2.3464584 -2.7716541z" fill-rule="evenodd"/><path stroke="#000000" stroke-width="1.0" stroke-linejoin="round" stroke-linecap="butt" d="m55.87118 15.787401l-1.8937874 0.79551506l0 -1.5910282zm-1.3748512 -3.919836l-0.8626442 2.1444874l-0.9524231 -1.1250114zm-3.3180618 -1.6234703l0.67347336 2.2369547l-1.3469505 0zm-3.3185005 1.6234703l1.815506 1.0194759l-0.9524231 1.1250114zm-1.3744125 3.919836l1.8937836 -0.79551315l0 1.5910282zm1.3744125 3.919323l0.8630829 -2.1439743l0.9524231 1.1250114zm3.3185005 1.6239853l-0.6734772 -2.2369556l1.3469505 0zm3.3180618 -1.6239853l-1.8150673 -1.0189629l0.9524231 -1.1250114zm-5.6645203 -3.919323c0 -1.5307417 1.0505447 -2.7716532 2.3464584 -2.7716532c1.2959099 0 2.3464546 1.2409115 2.3464546 2.7716532c0 1.5307426 -1.0505447 2.7716541 -2.3464546 2.7716541c-1.2959137 0 -2.3464584 -1.2409115 -2.3464584 -2.7716541z" fill-rule="evenodd"/><path fill="#cfe2f3" d="m55.28588 26.874016l-1.8937874 0.79551315l0 -1.5910263zm-1.3748512 -3.919836l-0.8626442 2.1444874l-0.9524269 -1.1250114zm-3.3180656 -1.6234703l0.6734772 2.2369537l-1.3469505 0zm-3.3184967 1.6234703l1.815506 1.0194759l-0.9524269 1.1250114zm-1.3744164 3.919836l1.8937874 -0.79551315l0 1.5910263zm1.3744164 3.919323l0.8630791 -2.1439743l0.9524269 1.1250114zm3.3184967 1.6239853l-0.67347336 -2.2369556l1.3469505 0zm3.3180656 -1.6239853l-1.8150711 -1.0189629l0.9524269 -1.1250114zm-5.6645203 -3.919323c0 -1.5307426 1.0505447 -2.7716541 2.3464546 -2.7716541c1.2959137 0 2.3464584 1.2409115 2.3464584 2.7716541c0 1.5307426 -1.0505447 2.7716541 -2.3464584 2.7716541c-1.2959099 0 -2.3464546 -1.2409115 -2.3464546 -2.7716541z" fill-rule="evenodd"/><path stroke="#000000" stroke-width="1.0" stroke-linejoin="round" stroke-linecap="butt" d="m55.28588 26.874016l-1.8937874 0.79551315l0 -1.5910263zm-1.3748512 -3.919836l-0.8626442 2.1444874l-0.9524269 -1.1250114zm-3.3180656 -1.6234703l0.6734772 2.2369537l-1.3469505 0zm-3.3184967 1.6234703l1.815506 1.0194759l-0.9524269 1.1250114zm-1.3744164 3.919836l1.8937874 -0.79551315l0 1.5910263zm1.3744164 3.919323l0.8630791 -2.1439743l0.9524269 1.1250114zm3.3184967 1.6239853l-0.67347336 -2.2369556l1.3469505 0zm3.3180656 -1.6239853l-1.8150711 -1.0189629l0.9524269 -1.1250114zm-5.6645203 -3.919323c0 -1.5307426 1.0505447 -2.7716541 2.3464546 -2.7716541c1.2959137 0 2.3464584 1.2409115 2.3464584 2.7716541c0 1.5307426 -1.0505447 2.7716541 -2.3464584 2.7716541c-1.2959099 0 -2.3464546 -1.2409115 -2.3464546 -2.7716541z" fill-rule="evenodd"/></g></svg>