<svg xmlns="http://www.w3.org/2000/svg" xml:space="preserve" viewBox="0 0 106.542 138.791"><path d="M0 0c2.657-.983 3.098-2.607 3.916-4.312.818-1.705.885-3.641 1.124-5.508.238-1.866.726-3.827 2.144-5.121 1.379-1.259 3.555-1.653 5.342-.968 1.787.687 3.09 2.415 3.198 4.245.117 1.982-1.284 4.801-2.65 6.282C9.719-1.744 5.085-.399 0 0" style="fill:#e9aa29;fill-opacity:1;fill-rule:nonzero;stroke:none" transform="matrix(1.33333 0 0 -1.33333 42.61 79.252)"/><path d="M0 0c3.533-6.099 5.142-13.374 4.749-20.597-.52-7.201-2.892-14.431-7.273-20.375-1.006-1.551-2.288-2.883-3.482-4.296-.641-.663-1.335-1.275-2.005-1.914-.34-.314-.67-.639-1.019-.942l-1.097-.85c-2.859-2.365-6.151-4.162-9.552-5.653l-2.61-.993c-.875-.318-1.793-.5-2.69-.754-1.786-.551-3.651-.719-5.487-1.038-3.702-.3-7.463-.398-11.144.286l-1.382.217c-.46.08-.906.225-1.359.334l-2.707.714-2.626.967c-.436.167-.878.317-1.306.499l-1.258.611c-3.406 1.529-6.499 3.68-9.32 6.088l-2.034 1.908c-.662.651-1.243 1.38-1.866 2.067l-.918 1.046c-.287.363-.55.747-.825 1.12-.539.754-1.097 1.495-1.616 2.26-1.964 3.142-3.581 6.498-4.619 10.042-.977 3.543-1.703 7.183-1.642 10.848-.096 3.651.397 7.298 1.346 10.789C-71.8-.642-67.901 5.708-62.603 10.35c-4.488-5.409-7.564-11.816-8.746-18.517-.616-3.336-.823-6.745-.465-10.091.199-3.358 1.006-6.635 2.074-9.778 4.4-12.618 15.958-22.172 28.941-24.16 3.223-.647 6.542-.579 9.812-.363 1.617.275 3.268.385 4.845.865.791.218 1.606.36 2.38.635l2.328.814c3.043 1.222 6.032 2.707 8.65 4.74l1.009.724c.321.26.624.543.937.814l1.867 1.642c1.129 1.211 2.367 2.341 3.343 3.694 4.215 5.174 6.893 11.568 7.947 18.277C3.338-13.619 2.527-6.562 0 0" style="fill:#e1751c;fill-opacity:1;fill-rule:nonzero;stroke:none" transform="matrix(1.33333 0 0 -1.33333 100.133 61.936)"/><path d="M0 0a31.026 31.026 0 0 1 4.732-.13c3.344.167 6.65.91 9.733 2.219 2.331.988 6.25 2.672 7.632 4.865 2.27 3.603 2.084 9.21 1.483 13.254-1.479 9.962-9.984 18.47-19.545 21.789 4.289-1.488 8.39-5.739 10.702-9.679 2.513-4.28 2.538-8.714.838-13.12-2.158-5.592-7.159-8.813-13.099-8.813-7.14 0-13.873 5.912-14.23 13.227-.402 8.239 6.568 16.421 11.269 22.478 13.779 17.758 2.8 44.384 2.798 44.387C1.495 80.953-.826 72.03-7.063 64.72c-5.507-6.455-12.525-11.746-16.745-19.227-1.978-3.506-3.356-7.371-3.877-11.877-.842-7.269.898-14.814 5.113-20.827C-17.426 5.448-8.841.907 0 0" style="fill:#b1492e;fill-opacity:1;fill-rule:nonzero;stroke:none" transform="matrix(1.33333 0 0 -1.33333 50.92 120.637)"/><path d="M0 0c.39-.022.778-.04 1.164-.049-9.586 4.035-14.311 11.547-15.302 20.429-.506 4.541.913 8.891 3.279 12.683 2.364 4.862 6.12 9.402 9.017 13.135C11.937 63.955.958 90.582.957 90.584c-.819-9.523-3.14-18.446-9.377-25.757-5.507-6.454-12.525-11.746-16.745-19.227-1.978-3.506-3.356-7.371-3.877-11.876-.842-7.27.898-14.815 5.113-20.828C-18.783 5.556-10.198 1.015-1.357.107A30.15 30.15 0 0 1-.141.008L0 0" style="fill:#d77230;fill-opacity:1;fill-rule:nonzero;stroke:none" transform="matrix(1.33333 0 0 -1.33333 52.73 120.78)"/><path d="M0 0c4.499 5.378 5.454 13.938 5.441 19.988-.012 6-1.557 12.061-5.037 17.277-2.851 4.276-6.901 7.87-10.24 11.881-3.34 4.012-6.042 8.748-5.57 13.651-2.792-3.006-3.394-7.006-2.613-10.924.683-3.422 2.537-6.573 3.768-9.844.917-2.439 1.915-4.866 2.447-7.426.585-2.816.293-5.045-.755-7.679 1.586-1.373 3.163-2.976 4.296-4.753 1.135-1.777 1.398-3.954 2.392-5.804 2.266-4.22 3.037-9.118 2.546-13.898" style="fill:#e0a832;fill-opacity:1;fill-rule:nonzero;stroke:none" transform="matrix(1.33333 0 0 -1.33333 85.795 106.104)"/><path d="M0 0c-3.229 4.678-6.908 12.028-3.813 17.694-2.792-3.006-3.394-7.007-2.613-10.924.683-3.423 2.536-6.574 3.768-9.845.917-2.438 1.915-4.866 2.447-7.425.585-2.817.293-5.046-.755-7.679 1.586-1.374 3.162-2.976 4.296-4.753 1.135-1.778 1.398-3.954 2.392-5.804.221-.413.424-.835.618-1.26l1.07-.062s2.275 7.962 1.272 15.182C7.87-9.043 3.206-4.645 0 0" style="fill:#c3502e;fill-opacity:1;fill-rule:nonzero;stroke:none" transform="matrix(1.33333 0 0 -1.33333 70.337 45.966)"/><path d="M0 0s14.17 3.691 16.669 18.793c2.186 13.205-9.137 21.183-15.155 23.36 0 0 13.178.898 20.121-6.849 6.944-7.746 6.475-16.218 2.653-23.233C20.221 4.608 9.019-.682 0 0" style="fill:#d77230;fill-opacity:1;fill-rule:nonzero;stroke:none" transform="matrix(1.33333 0 0 -1.33333 54.282 120.845)"/><path d="M0 0c15.617 1.33 23.989 14.041 21.453 26.241C19.075 37.677 1.514 42.153 1.514 42.153c6.018-2.177 17.341-10.155 15.155-23.36C14.17 3.691 0 0 0 0" style="fill:#e0a832;fill-opacity:1;fill-rule:nonzero;stroke:none" transform="matrix(1.33333 0 0 -1.33333 54.282 120.845)"/><path d="M0 0c1.094 9.213 7.198 15.63 12.99 22.402 4.822 5.638 9.056 11.955 10.593 19.313 1.238 5.935 1.3 12.59-.624 18.409-.818-9.524-3.139-18.447-9.376-25.758C8.076 27.912 1.058 22.62-3.162 15.139-5.14 11.633-6.518 7.768-7.039 3.263c-.842-7.27.898-14.815 5.113-20.827 5.146-7.341 13.731-11.882 22.572-12.79.408-.042.813-.074 1.216-.099l.141-.008c.39-.022.778-.04 1.164-.049-6.454.883-12.254 3.128-16.461 7.47C.954-17.103-.951-8.01 0 0" style="fill:#e0a832;fill-opacity:1;fill-rule:nonzero;stroke:none" transform="matrix(1.33333 0 0 -1.33333 23.393 80.165)"/></svg>