<svg xmlns="http://www.w3.org/2000/svg" viewBox="0 0 199.34 195.16"><defs><style>.cls-1{fill:#2977ff;}.cls-2{fill:#fff;}.cls-3{fill:#bac5f7;}</style></defs><g id="Layer_2" data-name="Layer 2"><g id="Layer_1-2" data-name="Layer 1"><path class="cls-1" d="M92.53,1.63,25.8,33.77a16.45,16.45,0,0,0-8.91,11.16L.41,117.14a16.48,16.48,0,0,0,3.18,13.92L49.77,189a16.46,16.46,0,0,0,12.86,6.19H136.7A16.48,16.48,0,0,0,149.57,189l46.18-57.91a16.44,16.44,0,0,0,3.17-13.92L182.44,44.93a16.44,16.44,0,0,0-8.9-11.16L106.81,1.63A16.48,16.48,0,0,0,92.53,1.63Z"/><path class="cls-2" d="M156.06,63.57a8.12,8.12,0,0,0-4.91-6.3l-48.39-20a8.1,8.1,0,0,0-6.19,0l-48.39,20a8.16,8.16,0,0,0-4.91,6.3,107.29,107.29,0,0,0,3.39,45.16,94.81,94.81,0,0,0,15.82,30.8,108.37,108.37,0,0,0,33.25,28,8.1,8.1,0,0,0,7.87,0c13.54-7.56,24.73-17,33.25-28a94.94,94.94,0,0,0,15.83-30.8,107.41,107.41,0,0,0,3.38-45.16Z"/><path class="cls-3" d="M99.67,168.55a8,8,0,0,0,3.93-1c13.54-7.56,24.73-17,33.25-28a94.94,94.94,0,0,0,15.83-30.8,107.41,107.41,0,0,0,3.38-45.16h0a8.12,8.12,0,0,0-4.91-6.3l-48.39-20"/><path class="cls-2" d="M115.81,58.23,102,52.52a6.18,6.18,0,0,0-4.74,0L60.23,67.88a6.22,6.22,0,0,0-3.76,4.82,82.34,82.34,0,0,0,2.59,34.59,72.83,72.83,0,0,0,12.12,23.6,82.88,82.88,0,0,0,25.47,21.44,6.22,6.22,0,0,0,6,0,82.88,82.88,0,0,0,25.47-21.44,72.64,72.64,0,0,0,12.12-23.6,82.22,82.22,0,0,0,2.6-34.59h0a6.22,6.22,0,0,0-3.76-4.82l-9.6-4"/><path class="cls-1" d="M99.67,154.11a7.21,7.21,0,0,1-3.5-.9A84,84,0,0,1,70.39,131.5a73.6,73.6,0,0,1-12.28-23.92,83.24,83.24,0,0,1-2.63-35A7.23,7.23,0,0,1,59.85,67L96.91,51.6a7.21,7.21,0,0,1,5.51,0l13.77,5.7-.77,1.85-13.76-5.7a5.18,5.18,0,0,0-4,0L60.61,68.8a5.19,5.19,0,0,0-3.15,4A81.24,81.24,0,0,0,60,107a71.83,71.83,0,0,0,12,23.27,81.92,81.92,0,0,0,25.16,21.18,5.32,5.32,0,0,0,5,0,81.85,81.85,0,0,0,25.17-21.19,71.66,71.66,0,0,0,12-23.26,81.29,81.29,0,0,0,2.57-34.17,5.22,5.22,0,0,0-3.16-4l-9.59-4,.76-1.84,9.6,4a7.25,7.25,0,0,1,4.37,5.6,83.41,83.41,0,0,1-2.63,35,73.63,73.63,0,0,1-12.29,23.92,84,84,0,0,1-25.77,21.71A7.21,7.21,0,0,1,99.67,154.11Z"/><path class="cls-1" d="M95.8,120.36a4,4,0,0,1-2.66-1L80.77,108A4,4,0,1,1,86,101.9l.14.12,9,8.44,17.4-23.84a4,4,0,1,1,6.78,4.28,3.77,3.77,0,0,1-.31.42l-20,27.46a4,4,0,0,1-2.81,1.63Z"/></g></g></svg>