<?xml version="1.0" encoding="UTF-8" standalone="no"?>
<!-- Generator: Adobe Illustrator 16.0.0, SVG Export Plug-In . SVG Version: 6.00 Build 0)  -->

<svg
   version="1.1"
   id="Layer_1"
   x="0px"
   y="0px"
   width="692.52px"
   height="149.299px"
   viewBox="0 0 692.52 149.299"
   enable-background="new 0 0 692.52 149.299"
   xml:space="preserve"
   sodipodi:docname="QuestLabs-Logo-White copy.svg"
   inkscape:version="1.2.2 (b0a84865, 2022-12-01)"
   inkscape:export-filename="Quest-Labs-SVG-Logo.png"
   inkscape:export-xdpi="96"
   inkscape:export-ydpi="96"
   xmlns:inkscape="http://www.inkscape.org/namespaces/inkscape"
   xmlns:sodipodi="http://sodipodi.sourceforge.net/DTD/sodipodi-0.dtd"
   xmlns:xlink="http://www.w3.org/1999/xlink"
   xmlns="http://www.w3.org/2000/svg"
   xmlns:svg="http://www.w3.org/2000/svg"><defs
   id="defs580"><clipPath
     clipPathUnits="userSpaceOnUse"
     id="clipPath587"><use
       x="0"
       y="0"
       xlink:href="#g583"
       id="use589" /></clipPath></defs><sodipodi:namedview
   id="namedview578"
   pagecolor="#ffffff"
   bordercolor="#000000"
   borderopacity="0.25"
   inkscape:showpageshadow="true"
   inkscape:pageopacity="0.0"
   inkscape:pagecheckerboard="0"
   inkscape:deskcolor="#d1d1d1"
   showgrid="false"
   inkscape:zoom="1.8007537"
   inkscape:cx="327.91825"
   inkscape:cy="81.632485"
   inkscape:window-width="1920"
   inkscape:window-height="972"
   inkscape:window-x="0"
   inkscape:window-y="25"
   inkscape:window-maximized="0"
   inkscape:current-layer="g575"
   showborder="false"
   borderlayer="true"
   shape-rendering="auto" />
<g
   id="g575">
	<g
   id="g567"
   style="fill:#9e9e9e;fill-opacity:1"
   transform="translate(-10)">
		<path
   fill="#ffffff"
   d="m 198.788,122.254 c -2.186,4.065 -4.981,7.191 -8.385,9.376 -3.405,2.185 -7.318,3.278 -11.739,3.278 -7.471,0 -13.29,-2.871 -17.456,-8.614 -4.168,-5.743 -6.251,-14.661 -6.251,-26.756 v -48.71 h 15.398 V 99.69 c 0,8.436 1.002,14.421 3.011,17.952 2.007,3.533 5.018,5.298 9.033,5.298 3.812,0 7,-0.89 9.566,-2.668 2.565,-1.779 4.611,-4.319 6.137,-7.623 V 50.828 h 15.474 v 82.479 h -13.797 z"
   id="path551"
   style="fill:#9e9e9e;fill-opacity:1" />
		<path
   fill="#ffffff"
   d="m 260.914,134.908 c -9.809,0 -17.66,-3.405 -23.555,-10.215 -5.896,-6.811 -8.842,-15.524 -8.842,-26.146 V 86.503 c 0,-10.774 2.883,-19.667 8.651,-26.68 5.768,-7.013 13.098,-10.52 21.992,-10.52 9.351,0 16.541,3.19 21.572,9.566 5.031,6.378 7.547,14.953 7.547,25.728 V 95.27 h -44.365 v 3.277 c 0,7.115 1.563,12.997 4.688,17.646 3.125,4.65 7.559,6.976 13.302,6.976 4.269,0 7.928,-0.673 10.977,-2.021 3.05,-1.345 5.946,-3.315 8.69,-5.907 l 4.879,9.604 c -2.592,2.947 -6.074,5.361 -10.443,7.242 -4.37,1.881 -9.402,2.821 -15.093,2.821 z m -1.753,-73.866 c -4.473,0 -8.056,2.187 -10.748,6.561 -2.694,4.374 -4.192,9.912 -4.498,16.612 h 29.043 V 81.07 c 0,-5.884 -1.169,-10.692 -3.506,-14.427 -2.339,-3.733 -5.768,-5.601 -10.291,-5.601 z"
   id="path553"
   style="fill:#9e9e9e;fill-opacity:1" />
		<path
   fill="#ffffff"
   d="m 340.42,112.649 c 0,-3.202 -1.055,-5.908 -3.163,-8.118 -2.109,-2.211 -6.086,-4.638 -11.93,-7.28 -8.487,-3.304 -14.776,-6.822 -18.866,-10.558 -4.092,-3.735 -6.137,-8.575 -6.137,-14.521 0,-6.353 2.502,-11.75 7.509,-16.198 5.005,-4.446 11.573,-6.67 19.705,-6.67 8.485,0 15.245,2.401 20.277,7.203 5.031,4.803 7.443,10.787 7.241,17.952 l -0.152,0.457 h -14.865 c 0,-3.913 -1.105,-7.28 -3.315,-10.1 -2.211,-2.82 -5.273,-4.23 -9.186,-4.23 -3.863,0 -6.874,1.093 -9.033,3.278 -2.16,2.185 -3.24,4.752 -3.24,7.699 0,3.151 0.928,5.641 2.782,7.47 1.854,1.83 5.856,4.219 12.007,7.166 8.638,3.1 15.055,6.62 19.247,10.558 4.192,3.938 6.29,8.982 6.29,15.131 0,6.811 -2.592,12.35 -7.775,16.618 -5.185,4.269 -11.994,6.403 -20.43,6.403 -9.098,0 -16.263,-2.579 -21.497,-7.737 -5.234,-5.157 -7.725,-11.193 -7.47,-18.104 l 0.152,-0.457 h 14.407 c 0.202,5.336 1.677,9.186 4.421,11.548 2.744,2.363 6.148,3.545 10.215,3.545 4.014,0 7.151,-1.029 9.414,-3.087 2.261,-2.06 3.392,-4.716 3.392,-7.968 z"
   id="path555"
   style="fill:#9e9e9e;fill-opacity:1" />
		<path
   fill="#ffffff"
   d="m 389.664,30.323 v 20.505 h 12.883 v 11.053 h -12.883 v 49.091 c 0,4.269 0.635,7.306 1.906,9.108 1.269,1.805 2.921,2.706 4.955,2.706 1.22,0 2.349,-0.076 3.391,-0.229 1.043,-0.152 2.274,-0.381 3.698,-0.686 l 1.601,10.672 c -1.729,0.712 -3.673,1.282 -5.832,1.715 -2.159,0.431 -4.383,0.648 -6.669,0.648 -5.845,0 -10.382,-1.917 -13.608,-5.756 -3.226,-3.836 -4.839,-9.897 -4.839,-18.18 V 61.881 H 363.519 V 50.828 h 10.748 V 30.323 Z"
   id="path557"
   style="fill:#9e9e9e;fill-opacity:1" />
		<path
   fill="#ffffff"
   d="m 435.173,121.568 h 43.298 v 11.738 H 419.699 V 22.319 h 15.475 v 99.249 z"
   id="path559"
   style="fill:#9e9e9e;fill-opacity:1" />
		<path
   fill="#ffffff"
   d="m 532.288,133.307 c -0.561,-1.88 -1.019,-3.722 -1.372,-5.526 -0.357,-1.803 -0.586,-3.621 -0.687,-5.45 -2.287,3.71 -5.159,6.734 -8.614,9.071 -3.457,2.337 -7.293,3.507 -11.51,3.507 -6.964,0 -12.413,-2.197 -16.353,-6.594 -3.938,-4.395 -5.906,-10.278 -5.906,-17.647 0,-7.877 2.681,-14.063 8.041,-18.562 5.36,-4.497 12.895,-6.746 22.603,-6.746 h 11.511 v -8.41 c 0,-4.999 -1.119,-8.9 -3.354,-11.704 -2.237,-2.802 -5.412,-4.204 -9.528,-4.204 -3.71,0 -6.695,1.262 -8.958,3.788 -2.262,2.524 -3.391,5.681 -3.391,9.469 l -14.712,-0.076 -0.229,-0.458 c -0.255,-6.369 2.287,-12.039 7.623,-17.007 5.336,-4.969 12.222,-7.454 20.658,-7.454 8.13,0 14.725,2.401 19.78,7.203 5.056,4.803 7.585,11.651 7.585,20.544 v 38.267 c 0,3.201 0.19,6.289 0.571,9.262 0.381,2.973 1.003,5.882 1.868,8.728 h -15.626 z m -18.677,-10.138 c 3.607,0 6.898,-1.072 9.871,-3.219 2.973,-2.147 5.146,-4.828 6.519,-8.048 V 94.964 h -11.739 c -4.727,0 -8.399,1.521 -11.016,4.561 -2.617,3.04 -3.925,6.758 -3.925,11.151 0,3.729 0.888,6.746 2.668,9.045 1.778,2.299 4.318,3.448 7.622,3.448 z"
   id="path561"
   style="fill:#9e9e9e;fill-opacity:1" />
		<path
   fill="#ffffff"
   d="m 624.143,98.928 c 0,10.927 -2.363,19.656 -7.089,26.185 -4.727,6.531 -11.385,9.796 -19.972,9.796 -4.32,0 -8.095,-0.953 -11.321,-2.858 -3.227,-1.906 -5.934,-4.714 -8.117,-8.424 l -1.144,9.681 H 563.084 V 14.391 h 15.475 v 45.127 c 2.134,-3.304 4.726,-5.832 7.775,-7.584 3.049,-1.753 6.58,-2.63 10.596,-2.63 8.689,0 15.397,3.495 20.124,10.481 4.726,6.988 7.089,16.3 7.089,27.938 z M 608.744,87.723 c 0,-7.928 -1.259,-14.305 -3.773,-19.133 -2.516,-4.828 -6.492,-7.242 -11.929,-7.242 -3.457,0 -6.392,1.029 -8.806,3.087 -2.415,2.059 -4.306,4.815 -5.678,8.271 v 39.639 c 1.372,3.354 3.277,5.959 5.717,7.813 2.439,1.856 5.412,2.783 8.919,2.783 5.437,0 9.388,-2.16 11.853,-6.479 2.464,-4.319 3.697,-10.164 3.697,-17.533 V 87.723 Z"
   id="path563"
   style="fill:#9e9e9e;fill-opacity:1" />
		<path
   fill="#ffffff"
   d="m 677.35,112.649 c 0,-3.202 -1.055,-5.908 -3.164,-8.118 -2.109,-2.211 -6.086,-4.638 -11.929,-7.28 -8.488,-3.304 -14.776,-6.822 -18.867,-10.558 -4.092,-3.735 -6.136,-8.575 -6.136,-14.521 0,-6.353 2.501,-11.75 7.508,-16.198 5.006,-4.446 11.574,-6.67 19.706,-6.67 8.485,0 15.245,2.401 20.276,7.203 5.031,4.803 7.443,10.787 7.242,17.952 l -0.153,0.457 h -14.864 c 0,-3.913 -1.106,-7.28 -3.316,-10.1 -2.211,-2.82 -5.272,-4.23 -9.185,-4.23 -3.863,0 -6.875,1.093 -9.034,3.278 -2.159,2.185 -3.239,4.752 -3.239,7.699 0,3.151 0.928,5.641 2.781,7.47 1.854,1.83 5.857,4.219 12.008,7.166 8.638,3.1 15.054,6.62 19.246,10.558 4.192,3.938 6.29,8.982 6.29,15.131 0,6.811 -2.592,12.35 -7.775,16.618 -5.183,4.268 -11.994,6.403 -20.429,6.403 -9.099,0 -16.264,-2.579 -21.497,-7.737 -5.234,-5.157 -7.726,-11.193 -7.47,-18.104 l 0.152,-0.457 h 14.407 c 0.201,5.336 1.677,9.186 4.421,11.548 2.744,2.363 6.147,3.545 10.215,3.545 4.013,0 7.15,-1.029 9.413,-3.087 2.262,-2.06 3.393,-4.716 3.393,-7.968 z"
   id="path565"
   style="fill:#9e9e9e;fill-opacity:1" />
	</g>
	<g
   id="Group_3"
   transform="translate(-367 -180)"
   style="fill:#0000ff">
		<path
   id="Rectangle_1"
   style="display:inline;fill:#005eff;fill-opacity:1"
   d="M 409.19336 180 C 385.8914 180 367 198.8914 367 222.19336 L 367 278.09766 C 367 301.4006 385.8904 320.29102 409.19336 320.29102 L 449.23633 320.29102 C 449.27513 320.26132 449.28803 320.23037 449.33789 320.20117 C 451.68389 318.83217 449.77734 316.62891 449.77734 316.62891 L 438.99219 301.57031 L 454.15234 320.00781 C 475.15723 317.59029 491.4707 299.75197 491.4707 278.09766 L 491.4707 222.19336 C 491.4707 198.89145 472.57835 180 449.27539 180 L 409.19336 180 z M 416.57617 214.81055 L 442.94727 214.81055 C 449.93726 214.81055 455.60547 220.47776 455.60547 227.46875 L 455.60547 272.82617 C 455.60547 279.81816 449.93726 285.48242 442.94727 285.48242 L 416.57617 285.48242 C 409.58518 285.48242 403.91992 279.81816 403.91992 272.82617 L 403.91992 227.46875 C 403.91992 220.47776 409.58518 214.81055 416.57617 214.81055 z " />
		<g
   id="Group_2"
   style="fill:#ffffff"
   transform="rotate(15,483.36138,296.55467)">
			<path
   id="Rectangle_5"
   fill="#ffffff"
   d="m 446.81841,265.85758 c 1.22889,-11.16559 -4.53403,-6.94775 -2.65241,-12.69558 3.974,-4.261 10.648,-4.494 14.909,-0.521 l 37.802,35.25 c 4.261,3.974 4.494,10.648 0.521,14.909 l -21.582,23.143 c -3.973,4.261 -10.648,4.495 -14.908,0.521 l -12.42398,-32.81986 c -2.85134,-4.10109 19.58794,-25.85451 -1.66561,-27.78656 z"
   style="display:inline;fill:#005eff;fill-opacity:1"
   inkscape:label="Rectangle_5"
   sodipodi:nodetypes="ccccccccc" />
			<g
   id="g585"
   clip-path="url(#clipPath587)"
   style="fill:#ffffff"><g
     inkscape:label="Clip"
     id="g583"
     style="fill:#ffffff" /></g>
		</g>
		<path
   id="Rectangle_3-7"
   style="display:inline;fill:#00ffff;stroke-width:1.06089"
   d="M 454.70312 224.10742 C 454.86253 224.96606 454.9403 225.8587 454.91211 226.7793 L 453.53906 271.58398 C 453.32754 278.49058 447.64692 284.24357 440.84961 284.4375 L 416.08203 285.14258 L 417.59766 291.51172 C 419.40731 299.11297 426.34684 303.62044 433.09961 301.58398 L 458.57227 293.90234 C 465.32409 291.86616 469.33115 284.0583 467.52148 276.45703 L 455.78125 227.14648 C 455.5238 226.0651 455.15301 225.05373 454.70312 224.10742 z " />
	</g>
</g>
</svg>
