<svg xmlns="http://www.w3.org/2000/svg" xmlns:xlink="http://www.w3.org/1999/xlink" viewBox="0 0 346 197"><defs><filter id="a" width="112.2%" height="112.2%" x="-6.1%" y="-4.3%" filterUnits="objectBoundingBox"><feOffset dy="2" in="SourceAlpha" result="shadowOffsetOuter1"/><feMorphology in="SourceAlpha" radius="8" result="shadowInner"/><feOffset dy="2" in="shadowInner" result="shadowInner"/><feComposite in="shadowOffsetOuter1" in2="shadowInner" operator="out" result="shadowOffsetOuter1"/><feGaussianBlur in="shadowOffsetOuter1" result="shadowBlurOuter1" stdDeviation="2"/><feColorMatrix in="shadowBlurOuter1" values="0 0 0 0 0.031372549 0 0 0 0 0.129411765 0 0 0 0 0.258823529 0 0 0 0.24 0"/></filter><circle id="b" cx="57.5" cy="57.5" r="57.5"/></defs><g fill="none" fill-rule="evenodd"><path fill="#082142" d="M50.24 78.44V22.92h-.32L12.16 78.44h38.08Zm12.8 0H78.4v12H63.04V117h-12.8V90.44H.48V77.32L52.16 3.56h10.88v74.88Zm254.08 0V22.92h-.32l-37.76 55.52h38.08Zm12.8 0h15.36v12h-15.36V117h-12.8V90.44h-49.76V77.32l51.68-73.76h10.88v74.88Z"/><g transform="translate(117 2)"><path fill="#43C8EC" d="M.08 57c4.767 4.667 9.534 7 14.3 7 4.767 0 9.534-2.333 14.301-7 4.767 4.667 9.534 7 14.3 7 4.767 0 9.534-2.333 14.3-7 4.768 4.667 9.534 7 14.301 7 4.767 0 9.534-2.333 14.3-7 4.767 4.667 9.534 7 14.301 7 4.767 0 9.534-2.333 14.3-7v111.528a6.517 6.517 0 1 1-13.034 0V133.22a6.198 6.198 0 0 0-12.396 0l.001 55.542a5.273 5.273 0 1 1-10.545 0v-66.085a6.044 6.044 0 1 0-12.088 0v14.018a6.77 6.77 0 1 1-13.54 0v-15.93a6.28 6.28 0 1 0-12.562 0v23.817a5.598 5.598 0 1 1-11.195 0v-26.788a6.623 6.623 0 0 0-6.623-6.623h-2.766a3.857 3.857 0 0 0-3.857 3.857 3.857 3.857 0 0 1-3.857 3.857h-.665a5.043 5.043 0 0 1-5.013-4.496L.08 57Z"/><rect width="10" height="20" x="7" y="123" fill="#43C8EC" rx="4.5"/><use xlink:href="#b" fill="#000" filter="url(#a)"/><circle cx="57.5" cy="57.5" r="53.5" stroke="#082142" stroke-linejoin="square" stroke-width="8"/></g></g></svg>