<svg xmlns="http://www.w3.org/2000/svg" fill="none" viewBox="0 0 18 18"><path stroke="#A3AEB8" stroke-linecap="round" d="M1 1v16h16"/><path stroke="#338ECC" stroke-linecap="round" d="M12.975 4.941c-.056-.224-.754-.208-.913-.226-.884-.098-1.78-.054-2.67-.054-1.273 0-2.236.319-3.144 1.248-.386.395-.724.868-1.015 1.335-.239.383-.578.69-.827 1.069-.468.709-.843 1.494-.843 2.357 0 .51-.188.928.207 1.397.424.504.916.884 1.51 1.198.606.32 1.142.597 1.857.597h1.819c.501 0 1.004.011 1.506 0 .68-.015 1.486-.672 1.951-1.124 1.168-1.134 1.826-2.858 1.826-4.491 0-.548.14-1.076.14-1.62 0-.226.099-.75-.105-.913-.347-.278-.695-.576-1.088-.773"/><path stroke="#338ECC" stroke-linecap="round" d="M11.921 6.838H9.986c-.788 0-1.184.603-1.702 1.14-.702.727-.999 1.695-.999 2.688 0 .298-.065.511.176.698.222.173.646.25.917.25.695 0 1.532-.056 2.068-.562.482-.454 1.027-.682 1.37-1.3.229-.412.386-.889.386-1.369v-.702c0-.257-.181-.293-.28-.492"/></svg>