<svg xmlns="http://www.w3.org/2000/svg" fill="none" viewBox="0 0 18 18"><path stroke="#A3AEB8" stroke-linecap="round" d="M1 1v16h16"/><path stroke="#CCE3F2" stroke-linecap="round" d="M4.219 3.583c.338 0 .662.106.996.147.432.053.806.235 1.157.486.397.283.655.53.869.974.202.42.353.88.489 1.324.13.427.367.823.462 1.264.061.29.153.546.255.822.133.363.354.68.52 1.026.184.386.249.82.382 1.23.23.706.562 1.62 1.371 1.817.708.172 1.426.211 2.15.211.228 0 .528.014.713-.134.057-.046.162-.06.233-.09.06-.027.276-.073.296-.114"/><path stroke="#CCE3F2" stroke-linecap="round" d="M4.162 12.98c.163 0 .327.006.49 0 .189-.006.395-.185.558-.273.412-.223.784-.642 1.033-1.033.252-.396.635-.687.846-1.11.189-.377.42-.757.648-1.113.202-.318.365-.674.55-1.005.144-.26.163-.56.318-.818.344-.573.557-1.21.854-1.803.267-.535.51-1 .957-1.403.16-.143.482-.204.684-.273.23-.08.479-.122.714-.213.225-.088.438-.092.665-.162.22-.068.453-.137.684-.137.356 0 .746-.045 1.117-.045"/><path stroke="#338ECC" stroke-linecap="round" d="M3.792 2.742v11.08M14.873 3.044v10.678"/></svg>