<svg xmlns="http://www.w3.org/2000/svg" xmlns:xlink="http://www.w3.org/1999/xlink" viewBox="0 0 307 71"><defs><path id="a" d="M75.517 29.36c5.592-2.202 7.075-4.19 8.861-10.944 1.786-6.755 2.67-15.758 27.728-17.166C137.165-.157 271.124-.157 301.358 37.488 339.97 85.565-5.602 72.244.071 39.48c1.057-6.107 13.028-4.777 36.402-5.676 10.627-.409 33.452-2.241 39.044-4.444Z"/></defs><g fill="none" fill-rule="evenodd"><path fill="#0193E1" d="M75.517 29.36c5.592-2.202 7.075-4.19 8.861-10.944 1.786-6.755 2.67-15.758 27.728-17.166C137.165-.157 271.124-.157 301.358 37.488 339.97 85.565-5.602 72.244.071 39.48c1.057-6.107 13.028-4.777 36.402-5.676 10.627-.409 33.452-2.241 39.044-4.444Z"/><path fill="#43C8EC" d="M77.517 31.36c5.592-2.202 7.075-4.19 8.861-10.944 1.786-6.755 2.67-15.758 27.728-17.166 25.059-1.407 159.018-1.407 189.252 36.238C341.97 87.565-3.602 74.244 2.071 41.48c1.057-6.107 13.028-4.777 36.402-5.676 10.627-.409 33.452-2.241 39.044-4.444Z"/><ellipse cx="24.5" cy="18.5" fill="#43C8EC" rx="10.5" ry="3.5"/><ellipse cx="45.5" cy="11.5" fill="#43C8EC" rx="4.5" ry="1.5"/><use xlink:href="#a" fill="#43C8EC" transform="translate(2 2)"/></g></svg>