<svg xmlns="http://www.w3.org/2000/svg" xmlns:xlink="http://www.w3.org/1999/xlink" viewBox="0 0 12 18"><defs><path id="a" d="M2.033 12.467c-.32 0-.595-.115-.824-.343a1.123 1.123 0 0 1-.342-.824V6.167c0-.321.114-.596.342-.824.229-.229.503-.343.824-.343h7.934c.32 0 .595.114.824.343.228.228.342.503.342.824V11.3c0 .32-.114.595-.342.824a1.123 1.123 0 0 1-.824.343H2.033Zm-.233-6.3V11.3c0 .063.023.118.07.164.045.046.1.07.163.07h7.934a.224.224 0 0 0 .164-.07c.046-.046.069-.1.069-.164V6.167a.224.224 0 0 0-.07-.164.224.224 0 0 0-.163-.07H2.033a.224.224 0 0 0-.164.07.224.224 0 0 0-.069.164ZM0 12.933h12v.7c0 .195-.098.36-.294.496a1.206 1.206 0 0 1-.706.204H1c-.275 0-.51-.068-.706-.204-.196-.136-.294-.301-.294-.496v-.7Zm6.583.7c.078 0 .117-.039.117-.116 0-.078-.039-.117-.117-.117H5.417c-.078 0-.117.039-.117.117 0 .077.039.116.117.116h1.166Z"/></defs><g fill="none" fill-rule="evenodd"><mask id="b" fill="#fff"><use xlink:href="#a"/></mask><use xlink:href="#a" fill="#797979"/></g></svg>