<svg xmlns="http://www.w3.org/2000/svg" fill="none" viewBox="0 0 12 14"><path fill="#6B6B6B" fill-rule="evenodd" d="M7.726.727A1.337 1.337 0 0 0 6.78.333H2c-.734 0-1.333.6-1.333 1.334v10.666c0 .734.593 1.334 1.326 1.334H10c.733 0 1.333-.6 1.333-1.334V4.887c0-.354-.14-.694-.393-.94L7.727.727Zm-1.06 3.606v-3L10.333 5h-3a.669.669 0 0 1-.667-.667Zm-.666 2c0 .31-.07.602-.195.863l1.332 1.332a2 2 0 1 1-.943.943L4.863 8.138A2 2 0 1 1 6 6.333ZM4 7a.667.667 0 1 0 0-1.333A.667.667 0 0 0 4 7Zm4.666 3.333a.667.667 0 1 1-1.333 0 .667.667 0 0 1 1.333 0Z" clip-rule="evenodd"/></svg>