<svg xmlns="http://www.w3.org/2000/svg" fill="none" viewBox="0 0 24 24"><path stroke="#ACBAC0" stroke-linecap="round" stroke-linejoin="round" stroke-width="2" d="M4 22a2.5 2.5 0 1 0 0-5 2.5 2.5 0 0 0 0 5ZM12 22a2.5 2.5 0 1 0 0-5 2.5 2.5 0 0 0 0 5ZM12 7a2.5 2.5 0 1 0 0-5 2.5 2.5 0 0 0 0 5ZM20 22a2.5 2.5 0 1 0 0-5 2.5 2.5 0 0 0 0 5ZM4 16.5v-2.588c0-.777.616-1.412 1.368-1.412h13.264c.752 0 1.368.635 1.368 1.412V16.5"/><path stroke="#ACBAC0" stroke-linecap="round" stroke-width="2" d="M12 16.5v-9"/></svg>