<svg xmlns="http://www.w3.org/2000/svg" viewBox="0 0 147 90"><g fill="none" fill-rule="evenodd"><g stroke="#43C8EC" stroke-width="4"><path d="m40.742 21 5.093-7.756A2.837 2.837 0 0 1 48.144 12h25.443c.834 0 1.706.416 2.23 1.068L82.183 21h33.333A4.49 4.49 0 0 1 120 25.49v58.02c0 2.481-2.01 4.49-4.492 4.49H32.492A4.494 4.494 0 0 1 28 83.51V25.49c0-2.482 2.009-4.49 4.492-4.49h8.25Z"/><path d="M28 34.667h92V83.52c0 2.477-2.01 4.48-4.492 4.48H32.492C30.016 88 28 85.986 28 83.52V34.667Z"/></g><path d="M132.953 7.794A2.799 2.799 0 0 0 130.15 5a2.799 2.799 0 0 0-2.804 2.794 2.799 2.799 0 0 0 2.804 2.793 2.799 2.799 0 0 0 2.803-2.793Zm-4.806 0c0-1.102.897-1.996 2.003-1.996s2.002.894 2.002 1.996a1.999 1.999 0 0 1-2.002 1.995 1.999 1.999 0 0 1-2.003-1.995Z"/><path fill="#FF8500" d="M139.507 33.789v-3.01c0-.827.666-1.497 1.5-1.497.829 0 1.5.68 1.5 1.497v3.01h3.01c.828 0 1.498.666 1.498 1.5 0 .828-.68 1.5-1.497 1.5h-3.01v3.01c0 .827-.666 1.497-1.5 1.497-.829 0-1.5-.68-1.5-1.497v-3.01h-3.01a1.495 1.495 0 0 1-1.498-1.5c0-.828.68-1.5 1.497-1.5h3.01Z"/><g fill-rule="nonzero"><path fill="#FF8500" d="M25 3.12a3.12 3.12 0 1 0 6.24 0 3.12 3.12 0 0 0-6.24 0Zm4.24 0A1.12 1.12 0 1 1 28.12 2c.61.01 1.1.51 1.1 1.12h.02Z"/><path fill="#10B36B" d="M12.12 20.83V18.3a4.37 4.37 0 0 1-4.37-4.37H5.32A4.37 4.37 0 0 1 .95 18.3v2.53a4.37 4.37 0 0 1 4.37 4.37h2.43a4.37 4.37 0 0 1 4.37-4.37Zm-5.59 1.31a6.41 6.41 0 0 0-2.63-2.58A6.41 6.41 0 0 0 6.53 17a6.41 6.41 0 0 0 2.63 2.58 6.41 6.41 0 0 0-2.63 2.56Z"/></g></g></svg>