<svg xmlns="http://www.w3.org/2000/svg" fill="none" viewBox="0 0 24 24"><path fill="#ACBAC0" fill-rule="evenodd" d="M13.17 2c.53 0 1.04.21 1.42.59l4.82 4.83c.38.37.59.88.59 1.41V20c0 1.1-.9 2-2 2H5.99C4.89 22 4 21.1 4 20V4c0-1.1.9-2 2-2h7.17Zm2.024 12.592-1.9 1.9a.984.984 0 0 0 0 1.4c.39.39 1.01.39 1.4 0l2.59-2.6a.996.996 0 0 0 0-1.41l-2.59-2.59a.984.984 0 0 0-1.4 0 .984.984 0 0 0 0 1.4l1.9 1.9Zm-4.487-1.9-1.9 1.9 1.9 1.9a.984.984 0 0 1 0 1.4.984.984 0 0 1-1.4 0l-2.59-2.59a.996.996 0 0 1 0-1.41l2.59-2.6a.984.984 0 0 1 1.4 0 .984.984 0 0 1 0 1.4ZM13 3.5V8c0 .55.45 1 1 1h4.5L13 3.5Z" clip-rule="evenodd"/></svg>