<svg xmlns="http://www.w3.org/2000/svg" fill="none" viewBox="0 0 24 24"><path fill="#2374bb" fill-rule="evenodd" d="M6.931 3.359A3.001 3.001 0 1 0 3.358 6.93l1.298 10.386a3 3 0 1 0 4.299 3.204l6.419-1.07A3 3 0 0 0 21 18a3 3 0 0 0-1.55-2.626l1.07-6.419a3 3 0 1 0-3.203-4.298L6.93 3.359Zm10.547 11.686 1.07-6.42a3.005 3.005 0 0 1-1.48-1.984l-10.3-1.287 9.939 9.938c.24-.115.5-.2.771-.247Zm-2.433 2.434c.048-.272.132-.531.247-.772L5.353 6.769l1.288 10.3a3.005 3.005 0 0 1 1.985 1.48l6.42-1.07ZM21 6a1 1 0 1 1-2 0 1 1 0 0 1 2 0ZM4 5a1 1 0 1 0 0-2 1 1 0 0 0 0 2Zm15 13a1 1 0 1 1-2 0 1 1 0 0 1 2 0ZM6 21a1 1 0 1 0 0-2 1 1 0 0 0 0 2Z" clip-rule="evenodd"/></svg>