<svg xmlns="http://www.w3.org/2000/svg" viewBox="0 0 537.848 260.211"><switch transform="matrix(5.89504 0 0 5.75067 -21.921 .005)"><g><path d="M85.234 15.346a3.78 3.78 0 0 1-3.631-3.899 3.745 3.745 0 0 1 1.193-2.618 3.713 3.713 0 0 1 2.693-1.002 3.77 3.77 0 0 1 3.633 3.893 3.733 3.733 0 0 1-1.188 2.617 3.758 3.758 0 0 1-2.7 1.009zm.871-3.408c.924 0 1.672-.499 1.672-1.114 0-.614-.748-1.112-1.672-1.112-.92 0-1.668.498-1.668 1.112 0 .614.748 1.114 1.668 1.114" style="fill:#6eb927"/><path d="m42.369 37.436.134-.013.024-.161c-.036-.125-.116-.238-.244-1.806-.107-1.387-.324-5.188 1.59-7.075.741-.735 1.877-1.391 2.769-1.601 3.667-.896 7.967-.276 12.03 4.424 2.102 2.43 3.129 3.537 3.645 4.034l.178.162.213.157c.17.094 6.988 3.232 6.988 3.232l.139-.034.002-.146c-.043-.051-4.32-5.577-3.562-10.128.602-3.625 3.488-3.299 7.477-2.847 1.303.149 2.789.321 4.322.354 4.287.026 8.906-.761 11.754-2.006 1.84-.803 3.014-1.334 3.75-2.004.266-.219.402-.577.545-.958l.1-.256c.119-.308.293-.964.369-1.32.035-.159.051-.328-.059-.414l-.396.073c-1.246.751-4.371 2.176-7.295 2.233-3.625.075-10.926-3.646-11.689-4.039l-.072-.087a956.595 956.595 0 0 0-1.51-3.575c5.258 3.462 9.615 5.376 12.953 5.674 3.717.33 6.611-1.696 7.852-2.563.242-.162.426-.295.5-.324l.08-.13c-.205-1.304-2.146-7.62-3.613-9.14-.406-.414-.732-.82-1.389-1.204C84.643 2.852 72.038.984 71.446.898l-.1.028-.037.09s-.051 2.614-.055 2.904C69.962 3.491 60.603.468 51.83.164 44.391-.099 33.558-1.059 19.2 7.766l-.425.266C12.021 12.247 7.359 17.44 4.921 23.478c-.764 1.898-1.794 6.186-.778 10.218.442 1.763 1.262 3.532 2.365 5.12 2.493 3.582 6.676 5.959 11.186 6.361 6.361.567 11.567-3.29 13.279-8.64 3.05-9.84-6.342-10.197-3.798-5.409.954 1.934-.737 5.092-2.084 6.836-1.335 1.728-3.712 2.459-6.878 2.116-3.191-.351-5.887-2.188-7.398-5.047-1.478-2.792-1.56-6.105-.209-8.649 3.231-6.095 9.329-6.031 12.674-5.457 4.952.859 10.581 5.428 12.581 10.7.321.84.485 1.507.624 2.112l.217.913 5.592 2.731zM81.667 7.681a5.351 5.351 0 0 0-1.707 3.758 5.414 5.414 0 0 0 5.199 5.582 5.35 5.35 0 0 0 3.871-1.447 5.372 5.372 0 0 0 1.709-3.753 5.412 5.412 0 0 0-5.205-5.585 5.366 5.366 0 0 0-3.867 1.445" clip-rule="evenodd" style="fill:#6eb927;fill-rule:evenodd"/><g style="fill:#6eb927;fill-opacity:1"><path d="M-35.021-39.724c.279.4.674 1.013.859 1.228l1.18.687c.467.102 2.034-.007 2.036.032 0-.028-.886-.591-1.19-1.13-.239-.43-.66-1.108-1.037-1.394-.696-.532-.919-.565-1.475-.542-.324-.004-.706.633-.373 1.119m7.271-19.203-.046-.239c-1.019-5.201-4.64-6.993-8.35-5.16 1.409-.632 3.495-.77 4.477-.201 1.914.336 3.737 4.006 3.704 5.612-.805.063-2.054-.102-2.835.14.049-1.018-.872-4.427-2.093-4.938 1.083.598 2.027 4.017 1.901 4.991-1.95.321-2.603.665-5.18 1.063l-2.735.499c-.781-.442-1.284-.764-1.497-1.703-.85-2.786 2.05-6.259 5.867-6.746 4.05-.498 7.454 3.77 7.394 6.63zm-7.673 4.689.005-.002a21.314 21.314 0 0 1 3.942-1.524l-.438.476-1.18.42c-.654.096-1.425.376-2.33.63m3.83-1.153.457-.47c.887-.233 1.766-.498 2.66-.536l-.002.004-.157.325c-1.007.084-1.993.398-2.958.677m3.166-.697.14-.322.633-.034-.14.307zm-14.82-.02a13.89 13.89 0 0 0-1.659.95c.35-.442.64-.95.89-1.4.236.175.493.327.77.45m-3.253.046c-1.137 1.66-2.978 2.15-4.548 2.883-.532.575-1.424.85-.436.564-1.678.883-1.216.127-2.28 1.053l-.442-.25c-2.33-.962-2.53-2.164-.05-5.811 2.166-3.328 6.549-4.367 8.089-2.255.637 1.072.481 2.444-.333 3.816m3.911 33.858-.043.06-.034-.06zm30.566-16.515c-.077-.313-.106-.659-.153-.998.577.151 1.209.341 1.9.495 1.82.345 3.966.306 5.855-.14 1.925-.55 3.461-1.418 4.386-2.329.866-.851 1.259-1.576 1.322-1.648-.56.333-1.5.912-2.785 1.225-1.31.382-2.902.504-4.395.265-3.12-.346-5.615-2.073-6.563-2.628a4.818 4.818 0 0 1-1.212-1.036c-.446-.46-.774-1.154-1.352-1.45a.81.81 0 0 0-.4-.094c-2.065-3.341-5.718-5.695-9.849-6.475l-.208-.327c1.137-.048 2.27.126 3.405.2 1.807.497 3.468 1.64 5.43 2.965 1.45 1.105 2.88 2.163 4.42 2.818 1.534.67 2.918.622 3.948.603 2.057-.053 3.19-.373 3.15-.506-.009-.036-.06-.064-.15-.09-3.558-2.323-7.444-3.785-11.365-4.87-1.737-1.153-3.391-2.285-5.275-2.797a14.9 14.9 0 0 0-5.483-.622l.116-.296a16.23 16.23 0 0 1 2.04.093c1.99.247 3.993.689 6.408 1.713 1.686.6 3.422 1.236 5.062 1.38 1.64.094 2.895-.28 3.83-.539 1.89-.619 2.833-1.216 2.747-1.344-.018-.03-.067-.045-.138-.05-5.334-2.085-10.77-4.003-16.23-3.754-.429-.083-.885.02-1.325-.009a17.014 17.014 0 0 0-1.988-.028c.025-2.897-3.583-7.324-7.71-6.795-.44.048-.873.085-1.29.22-4.412 1.375-6.47 6.16-3.682 8.208l.468.282-3.442.603a5.717 5.717 0 0 1-1.035-1.141c.473-1.46.387-2.983-.526-4.05l-.214-.239.09-.378-.187.276a4.476 4.476 0 0 0-.706-.588 2.36 2.36 0 0 0-.764-.33c-.128-.05-.505-.154-1.05-.133-4.107-.035-9.828 3.647-10.237 7.78-.06.495-.023.84.002 1.218.025.377.036.786.131 1.109.504 1.913.4 1.778 1.793 2.2-2.36 1.473-7.196 5.485-9.65 10.984-5.545 15.313 3.096 15.881 8.331 7.787 4.888-3.128 3.21-5.867 7.481-9.826 1.35.544 2.096 1.635 2.4 2.09.16.226.343.499.425.94.106.43-.073 2.237.159 2.57.2.306.979-.913 1.668-1.713.67-.732-.225-4.376-1.08-5.775a5.247 5.247 0 0 0-2.184-1.83c.895-.576 1.737-1.182 2.619-1.596 1.517.313 4.31 2.703 5.49 3.73 1.49 1.25 2.507 3.061 3.04 5.07l-.292.232-.16.097-.18.08c-.063.021-.09.027-.17.052l-.056.015-.038.009-.083.023c-.2.045-.384.196-.316.48.083.357.428.292.694.176.068-.033.148-.059.23-.119.156-.114.334-.302.494-.527l.043.18-.026.056c-.138.28-.35.56-.588.791-.155.165-.331.278-.483.414l-.224.172-.257.15c-.09.041-.13.055-.242.105l-.083.03c-.002.002-.055.021-.055.021l-.118.047c-.284.11-.55.342-.43.76.157.55.662.436 1.03.203.095-.06.21-.11.323-.215.332-.337.778-.863 1.057-1.485a3.63 3.63 0 0 0 .192-.52l.077.517-.145.367c-.172.375-.446.721-.739 1.05-.19.235-.395.436-.592.602l-.285.222-.327.194c-.116.052-.167.069-.312.132l-.106.04-.07.024c-.05.016-.085.035-.154.06-.366.14-.701.438-.523.985.236.714.886.58 1.35.286.12-.077.266-.14.407-.274.413-.368.886-1.148 1.237-1.908a9.67 9.67 0 0 1-.624 1.569 7.23 7.23 0 0 1-.624 1.018l-.312.396a2.139 2.139 0 0 1-.373.37c-.136.105-.198.143-.368.275-.062.051-.119.103-.119.103a4.673 4.673 0 0 0-.079.067c-.057.043-.094.086-.17.152-.409.362-.72.919-.324 1.598.526.903 1.226.386 1.726-.175.13-.14.297-.273.44-.502.432-.677.903-1.93 1.129-3.222l.017-.09c-.063.81-.166 1.674-.331 2.45l-.201.625c-.383 1.089-.956 1.966-1.482 2.7-.56.626-1.362.645-2.009.387-.612-.202-1.189-.776-1.278-1.058-.133-.358-.062-.588-.068-.609.025-.179-.051-.48-.242-.71-.174-.226-.545-.1-.63.39.009.047-.142.593.198 1.378.413.812 1.113 1.312 1.965 1.619.623.176 1.382.204 1.999-.162-.377.598-.84 1.013-1.29 1.446-1.852 1.474-4.54 1.376-6.629.225a7.454 7.454 0 0 1-1.752-1.256 4.466 4.466 0 0 1-.483-1.033 4.541 4.541 0 0 1-.157-2.093c.228-1.482 1.15-2.545 1.462-2.89.12-.147.271-.311.522-.398.238-.106.53-.11.728-.295.188-.164.253-.63-.153-1.054-.354-.411-1.406-.577-2.18.304a6.465 6.465 0 0 0-1.054 1.951c-.33.933-.444 2.032-.236 3.034l.041.166a5.692 5.692 0 0 1-.303-1.204c-.223-1.646.15-2.682.16-2.792.222-.922.31-1.834-.067-2.098-.347-.26-1.18.493-1.501 1.754-.025.078-.22.468-.21 1.073a4.95 4.95 0 0 0 .076 2.69c-.053.537.237 1.065.523 1.62a6.83 6.83 0 0 0 1.046 1.58c.855.991 1.998 1.767 3.296 2.315l1.006.422c-.291.138-.437.368-.554.797-.228.54-.142 2.594-.12 2.567.02.016.602-.832 1.229-.784.505.025 1.176.026 1.53-.077.296-.116.451-.214.544-.351.251.721.88 1.904.885 1.895.027-.005-.121-.77.244-1.052.293-.213.727-.578.887-.953.254.646.781 1.712.782 1.71-.002.003-.051-.94.162-1.29.159-.29.426-.74.499-1.083.113-.671.07-.883-.118-1.417a.685.685 0 0 0-.117-.193c.25-.145.49-.314.714-.523l.734-.748c.125.826.396 1.594.909 2.325.98 1.353 2.206 1.625 2.515.69-.529.467-1.539-.264-1.968-1.273-.443-1.055-.573-1.856-.406-2.95.027-.261.12-.629.234-.918l.035-.099c.853-1.721 1.41-4.192 1.616-6.628.277-3.083-.278-6.35-1.764-8.784.923.276 1.862.34 2.574.359.299-.006.547-.094.77-.14.862-.176 1.85-.724 1.607-1.766-.188-.8-.885-.768-1.497-.527-.113.046-.176.063-.256.101l-.116.048-.177.071c-.248.088-.331.126-.53.197-.2.069-.396.12-.602.144l-.565.072a6.762 6.762 0 0 1-1.263.118 5.993 5.993 0 0 1-.968-.068l-.186-.196c.823.093 1.68-.039 2.264-.255.214-.078.39-.167.547-.243.615-.277 1.277-.829.922-1.489-.275-.503-.788-.36-1.2-.091-.075.05-.12.073-.172.113l-.078.052-.118.08c-.17.097-.222.151-.353.245l-.407.243-.393.182c-.28.117-.59.227-.912.3-.3.073-.606.113-.897.122l-.328-.27a4.194 4.194 0 0 0 1.247-.242c.168-.063.296-.158.417-.227.465-.265.954-.742.661-1.209-.225-.357-.611-.204-.917.036l-.128.1-.057.046-.088.07c-.127.092-.167.128-.268.2l-.312.19-.302.142a4.369 4.369 0 0 1-.705.238l-.352.071-.34-.196.248-.095c.112-.045.197-.108.278-.154.31-.18.63-.498.42-.794-.162-.225-.418-.12-.618.04l-.084.066-.037.03-.059.048c-.082.061-.109.085-.174.133l-.202.145-.195.116-.265.13c-.415-.18-1.729-2.308-2.167-2.429 3.72-1.917 7.818-.714 9.927-1.198a6.83 6.83 0 0 0-1.036.843c-.043-.06 2.876-.348 4.796 1.134 2.015 1.323 2.52 3.628 2.78 4.078.619.93 2.04 1.623 3.705 1.59 1.585-.12 3.072-2.25 1.944-4.876-.441-1.105-2.986-3.813-6.232-4.084a5.85 5.85 0 0 0 1.152-.644c2.093.468 3.98 1.87 5.253 3.124a5.383 5.383 0 0 1 .948 4.79c-.37 1.35-1.268 2.404-1.675 2.517-.529.226-.854.033-.884.044-.257-.084-.691.034-1.018.415-.314.352-.133 1.157.535 1.418.066.02.8.319 1.932-.092 1.185-.589 2.055-1.898 2.662-3.744a6.864 6.864 0 0 0-.324-4.79c.808.847 1.485 1.726 1.983 2.776.044.816.371 1.804.965 2.648.276 1.139.375 2.267.344 3.368-.077.41-.112.854-.096 1.31-.415 3.325-1.82 6.277-3.237 8.39a15.495 15.495 0 0 1-2.121 2.625c-.302.163-.691.343-1.127.381l-.196.012a1.17 1.17 0 0 0-.442-.041c-.419-.087-.861-.157-1.274-.433-1.286-.869-2.22-2.554-2.561-3.225a3.848 3.848 0 0 1-.409-1.008c-.125-.445-.145-1.001-.366-1.371-.196-.381-.732-.399-1.135.468-.42.789-.339 2.685.505 4.037.293.433.92 1.305 1.713 2.002.63.539 1.35.84 2.044.982l-.105.197-.303.018c-1.405.07-2.248-.556-2.346-.626-.772-.422-1.564-.44-1.75.257-.18.664.5 2.111 1.426 2.63.056.053.205.1.79.417.334.262.74.453 1.228.388a19.592 19.592 0 0 0-.2 3.241c.04 1.713.235 3.153.388 4.155.16.987.274 1.48.27 1.49-.033-.524-.114-1.441-.125-2.575-.013-1.132.055-2.44.266-3.588.247-1.399.705-2.405 1.14-3.09l.238-.137c.479-.16 1.022-.514 1.612-1.003.356-.315.715-.605 1.093-.956-.26.959-.256 1.467-.225 2.358.06.892.341 3.471.31 3.483.006.002.352-2.003.744-2.9.22-.498.537-1.219.784-1.886.329 1.421.684 3.151.677 3.145.014.006.412-2.5 1.014-3.713.494-.976 1.298-2.526 1.546-3.588l.069-.312c.1.187.218.38.355.59.546.692 2.6 2.654 2.56 2.718.011.017-.319-2.224-.048-3.589.232-1.059.511-2.797.32-3.816l-.068-.35.586.501c1.35 1.19 3.175 2.009 4.97 2.473 1.877.32 3.634.371 4.957.073 1.226-.268 1.995-.62 2.092-.644-.697-.025-1.888-.018-3.174-.401-1.253-.43-2.764-.924-3.914-1.904-2.49-1.747-3.871-4.58-4.428-5.61-.213-.401-.457-.901-.596-1.57m-5.413-4.87c.009-.002-.145 2.106-1.178 3.575-.98 1.582-2.298 2.167-2.582 2.415-.544.576-.844 1.918-.573 3.364.254 1.45 1.592 2.046 2.917.872.629-.516 2.057-2.678 2.366-5.06.393-2.39-.48-4.502-.95-5.165" style="fill:#6eb927;fill-opacity:1;fill-rule:nonzero;stroke:none" transform="matrix(-.31707 0 0 .33962 10.408 43.337)"/></g></g></switch></svg>