<svg xmlns="http://www.w3.org/2000/svg" viewBox="0 0 50.271 34.396"><g fill="#2fba77"><path d="M20.959 2.989c-.009-.188.218-.324.382-.236 1.162.54 2.32 1.09 3.485 1.625.258.115.517.234.741.409.306.229.552.532.727.871.183.35.294.734.366 1.122.103.555.129 1.122.15 1.685.001.047-.015.103-.063.122-.116.05-.246.026-.368.031-.492-.008-.984.033-1.476.013-.228-.009-.458-.012-.684-.055a3.253 3.253 0 0 1-1.46-.676.243.243 0 0 0-.215-.048c-.077.023-.113.117-.093.19.01.051.053.084.088.12.254.244.564.422.878.578.418.2.887.245 1.343.269a9.05 9.05 0 0 0 1.478-.04c.1-.01.203-.028.305-.009a.16.16 0 0 1-.063.098c-.29.246-.62.442-.97.592-.911.391-1.92.53-2.906.474-.468-.02-.927-.123-1.393-.157a.68.68 0 0 0-.545.191c-.1.093-.132.23-.156.358-.031.195-.042.407.051.587.14.297.408.505.682.67.22.142.476.213.695.355.134.086.243.22.269.38-.208.072-.433.054-.65.067-.293.005-.587.001-.88.002-.301-.002-.605.012-.904-.032-.077-.013-.163-.025-.218-.086-.115-.118-.13-.291-.204-.432a2.937 2.937 0 0 0-.565-.768 1.745 1.745 0 0 0-.59-.395 2.962 2.962 0 0 0-.68-.174c-.251-.03-.505-.02-.757-.015-.342.008-.684.015-1.025.001-.212-.002-.425-.013-.636-.003-.072.035-.092.122-.108.193a.97.97 0 0 0 .157.707c.11.158.28.268.465.313.304.082.634.141.878.356.072.066.159.152.138.259-.025.07-.115.071-.177.076h-1.908c-.253-.002-.522.005-.751-.12a1.408 1.408 0 0 1-.391-.366c-.22-.288-.357-.628-.5-.958-.259-.594-.545-1.18-.906-1.72-.363-.54-.803-1.035-1.335-1.414-.672-.482-1.489-.745-2.31-.797a3.9 3.9 0 0 0-2.199.5c-.32.186-.619.418-.854.706-.26.316-.441.696-.526 1.096-.239 1.14.267 2.376 1.19 3.07.562.418 1.288.579 1.978.51.43-.042.855-.183 1.21-.432.344-.238.618-.585.74-.988.176-.588.031-1.284-.423-1.711-.285-.273-.691-.375-1.076-.37-.307-.005-.637.055-.872.266-.305.274-.345.79-.079 1.105.101.127.236.25.247.423.012.176-.131.334-.3.366-.203.05-.412-.043-.565-.173-.496-.424-.678-1.162-.464-1.774.11-.32.33-.595.6-.795.333-.246.736-.39 1.146-.431.659-.065 1.329.15 1.861.536.546.392.957.976 1.12 1.63a3.235 3.235 0 0 1-.394 2.488 3.02 3.02 0 0 1-1.308 1.134c-.608.281-1.289.382-1.955.346a4.697 4.697 0 0 1-2.364-.779 3.841 3.841 0 0 1-.746-.668c-.452-.501-.84-1.075-1.047-1.722a5.152 5.152 0 0 1-.24-1.431c-.011-.439-.008-.882.092-1.312.176-.794.569-1.53 1.071-2.164.406-.516.901-.953 1.417-1.356a12.264 12.264 0 0 1 4.176-2.076c.968-.27 1.97-.42 2.973-.455.983-.039 1.966.053 2.936.207 1.268.203 2.519.54 3.696 1.058.319.148.644.28.957.442.229.12.45.258.637.439-.004-.633-.027-1.265-.026-1.898m3.54 2.041c-.511.07-.965.444-1.139.93a1.41 1.41 0 0 0 0 .965 1.439 1.439 0 0 0 1.687.907c.39-.096.732-.366.92-.721.144-.268.198-.584.148-.884A1.438 1.438 0 0 0 24.5 5.03z"/><path d="M25.176 6.26a.391.391 0 1 1-.123.701.394.394 0 0 1 .123-.701z"/></g><path fill="#0d322b" d="M9.857 17.44a.477.477 0 0 1 .548.44v2.81c-.002.42-.006.862.182 1.25.114.25.333.446.59.539.295.11.618.12.927.088.327-.036.66-.175.855-.45.24-.334.282-.761.286-1.16.003-1.026 0-2.052.001-3.078a.467.467 0 0 1 .266-.397.481.481 0 0 1 .436.01c.147.079.249.24.247.409v2.625c-.004.472.03.955-.101 1.415-.103.39-.32.753-.642 1-.365.287-.83.413-1.285.45-.44.03-.892.012-1.316-.118a1.883 1.883 0 0 1-.94-.615c-.269-.333-.396-.76-.438-1.18-.023-.194-.015-.39-.016-.584v-2.83c.003-.102-.013-.208.023-.306a.477.477 0 0 1 .377-.318zm8.222 0c.453-.022.916.02 1.343.18.357.135.678.361.927.65a.45.45 0 0 1 .097.35.45.45 0 0 1-.291.36.455.455 0 0 1-.515-.147 1.369 1.369 0 0 0-.546-.438c-.321-.133-.678-.155-1.021-.13-.317.026-.65.125-.865.37a.709.709 0 0 0-.152.667c.041.14.14.257.259.34.15.104.326.166.5.22.447.138.916.18 1.364.31.397.113.805.265 1.102.565.226.224.335.542.35.856.024.34-.058.69-.256.97-.228.33-.584.553-.96.678-.444.152-.92.179-1.386.155-.4-.025-.8-.1-1.167-.265a2.28 2.28 0 0 1-.795-.583.447.447 0 0 1-.076-.41.458.458 0 0 1 .296-.3.45.45 0 0 1 .473.123c.196.232.456.408.745.503.281.094.58.124.876.118.27-.004.545-.04.793-.152a.864.864 0 0 0 .35-.27.671.671 0 0 0 .118-.468.554.554 0 0 0-.217-.369 1.505 1.505 0 0 0-.468-.227c-.454-.153-.935-.197-1.395-.329-.395-.112-.798-.254-1.11-.53a1.243 1.243 0 0 1-.403-.775c-.058-.39.021-.8.242-1.13.19-.295.48-.514.796-.66.31-.143.652-.212.992-.231zm-13.186.023c.627-.067 1.293-.014 1.857.289.246.133.467.312.649.524.167.199.11.535-.116.666a.458.458 0 0 1-.563-.068c-.074-.084-.139-.176-.225-.248-.241-.226-.57-.33-.895-.357-.297-.024-.602-.015-.888.077a.997.997 0 0 0-.515.364.69.69 0 0 0-.042.716c.105.18.294.288.483.36.451.179.938.226 1.407.34.352.089.705.199 1.013.395.181.116.343.267.45.456.126.222.174.482.17.737.007.327-.1.656-.303.914-.22.285-.537.482-.874.6-.497.177-1.034.203-1.556.16-.51-.045-1.026-.188-1.447-.49a2.223 2.223 0 0 1-.37-.33c-.097-.108-.134-.266-.097-.406a.458.458 0 0 1 .438-.345.437.437 0 0 1 .351.162c.2.23.464.405.756.495.258.083.53.11.799.112.265-.005.534-.03.782-.128a.96.96 0 0 0 .381-.256.667.667 0 0 0 .141-.558.592.592 0 0 0-.26-.357 1.961 1.961 0 0 0-.53-.225c-.411-.123-.84-.169-1.251-.285-.381-.106-.767-.239-1.08-.488a1.224 1.224 0 0 1-.431-.665 1.676 1.676 0 0 1 .059-1c.107-.27.289-.511.519-.69.34-.267.761-.418 1.188-.47zm18.386.091c.134-.039.274-.048.413-.044h2.545a.418.418 0 0 1 .376.238.425.425 0 0 1-.042.427.406.406 0 0 1-.315.166h-2.625a.377.377 0 0 0-.34.186.46.46 0 0 0-.05.255v1.23l2.566.001a.398.398 0 0 1-.022.794H23.24c0 .44-.002.881 0 1.322a.37.37 0 0 0 .349.365h2.645a.418.418 0 0 1 .102.822c-.08.02-.163.013-.245.014H23.63a1.203 1.203 0 0 1-1.192-.936c-.039-.155-.027-.315-.028-.473V18.8a1.202 1.202 0 0 1 .87-1.247z"/><path d="M42.033 470.604a3.757 3.757 0 0 0-2.965 1.546c-.606.82-.766 2.818-.298 3.717.5.964 1.32 1.662 2.277 1.942 2.58.753 5.125-1.306 4.852-3.925-.219-2.1-2.037-3.327-3.866-3.28zm294 .055c-.786 0-1.572.171-2.037.516-1.585 1.174-2.116 2.927-1.4 4.62.406.958 1.054 1.535 2.188 1.95 1.522.555 3.373-.02 4.372-1.36.285-.383.513-1.129.573-1.878.111-1.38-.395-2.394-1.66-3.332-.466-.345-1.251-.516-2.037-.516zm98.806 2.086v21.126h5.587l.703-1.245c1.232-2.183 3.125-3.215 5.9-3.215 4.322 0 6.657 2.507 6.653 7.149 0 2.804-.53 4.346-2.017 5.872-.881.904-1.514 1.332-2.276 1.537-1.5.404-3.993.342-5.432-.136-1.554-.516-3.328-2.223-3.74-3.597l-.29-.968h-2.896c-3.33 0-3.227-.095-2.426 2.232 1.273 3.701 4.189 6.297 8.148 7.257 1.87.452 6.187.457 7.936.008 5.495-1.411 8.79-5.983 8.79-12.196 0-4.333-1.63-8.015-4.475-10.103-3.828-2.81-10.052-2.795-13.76.033l-.773.59v-9.177h16.678l-.067-2.522-.067-2.523-11.088-.06zm-19.478.24v5.162h4.459v30.977h6.102v-36.14h-5.28zm-261.2 1.336v34.497h19.477v-4.693H160.26v-10.326h11.734v-4.928h-11.734v-9.856h13.377v-4.694h-9.739zm-137.05 0v34.498h17.6v-4.694H23.212v-29.803h-3.05zm196.187.221v6.82h-3.286v4.928h3.265l.07 8.859.068 8.858.651 1.327c.856 1.742 2.355 2.847 4.512 3.326.258.058 2.027.117 3.93.132l3.462.027v-4.693l-1.819-.01c-2.47-.015-3.825-.305-4.332-.932-.385-.475-.42-1.195-.42-8.7v-8.18l3.227-.066 3.227-.065.067-2.405.066-2.406h-6.574l-.065-3.344-.065-3.344-2.992-.066zm62.188 6.317-1.35.164c-2.523.307-5.4 1.799-6.214 3.22-.266.467-.31.35-.414-1.121l-.118-1.643-2.992-.066-2.992-.066v27.472h6.102v-8.411c0-8.95.084-9.774 1.165-11.292.837-1.175 2.605-1.926 4.868-2.067l1.945-.121v-3.035zm52.114.08c-1.044.006-3.667.689-4.634 1.255-.583.342-1.472 1.047-1.976 1.566l-.916.943v-3.342h-6.1v27.457h6.079l.07-8.741.069-8.742.704-1.408c.618-1.237.869-1.492 2.064-2.096 1.094-.554 1.748-.708 3.344-.792l1.984-.104v-2.912c0-2.352-.067-2.937-.347-3.044a1.007 1.007 0 0 0-.341-.04zm56.782.015c-6.395-.042-11.667 3.861-13.263 10.138-.467 1.838-.467 6.159 0 7.997 1.258 4.946 4.925 8.684 9.642 9.825 1.876.454 5.75.463 7.495.017 2.232-.57 4.13-1.622 5.642-3.13 1.436-1.43 2.77-3.425 3.044-4.55l.157-.646h-3.194c-1.756 0-3.193.091-3.193.202 0 .432-1.985 2.426-2.904 2.917-.814.436-1.344.519-3.316.519-2.09 0-2.474-.068-3.52-.625-2.12-1.13-3.57-3.094-3.997-5.418l-.162-.88h20.877l.146-.88c.41-2.477-.173-6.004-1.404-8.5-1.746-3.54-5.094-5.973-9.247-6.722a16.406 16.406 0 0 0-2.803-.264zm-318.03.01c-2.619.007-5.596.998-7.305 2.498l-.869.764v-2.865h-5.866v27.456h5.836l.074-8.858c.072-8.733.081-8.877.628-10.086 1.17-2.587 3.706-4.003 6.736-3.76 1.823.147 3.678 1.107 4.604 2.385 1.284 1.771 1.365 2.473 1.365 11.797v8.522H77.7l-.108-9.328c-.086-7.482-.179-9.572-.47-10.559-1.383-4.696-4.61-7.334-9.675-7.91a9.461 9.461 0 0 0-1.096-.057zm229.112.02c-.52.013-1.048.056-1.58.13-2.261.311-4.789 1.45-6.286 2.83l-1.061.977-.069-1.721-.07-1.721-2.991-.066-2.992-.066v40.627l2.992-.066 2.992-.065.061-8.156.062-8.154 1.247 1.015c2.353 1.917 4.71 2.732 7.909 2.736 1.102.002 2.625-.158 3.384-.356 9.684-2.522 13.07-16.385 5.867-24.021-2.504-2.654-5.822-4.018-9.465-3.924zm-101.262.01c-2.51.004-4.956.727-6.8 2.136l-1.067.815-.07-1.234-.072-1.233-2.992-.066-2.992-.065v27.47h6.1v-8.64c0-10.114.05-10.44 1.867-12.256 2.52-2.52 6.89-2.52 9.41 0 1.866 1.866 1.925 2.222 2.043 12.272l.101 8.624h5.823l-.002-8.624c0-4.805-.11-9.3-.245-10.15-.513-3.216-2.743-6.419-5.385-7.735-1.777-.884-3.768-1.317-5.72-1.314zm161.773.05c-1.408-.025-2.822.073-3.75.302-3.939.97-6.528 3.387-7.005 6.537-.402 2.658.496 4.977 2.558 6.607 1.307 1.033 2.484 1.515 7.028 2.877 5.223 1.566 6.287 2.314 6.03 4.24-.159 1.177-1.082 2.124-2.439 2.501-1.123.312-3.216.32-4.31.016-1.232-.342-2.739-1.732-3.067-2.83l-.277-.924h-6.028v.695c0 1.461.955 3.352 2.444 4.836 1.508 1.503 3.168 2.446 5.3 3.012 1.738.462 5.641.468 7.402.012 2.938-.76 5.024-2.262 6.17-4.44.54-1.025.622-1.464.622-3.295 0-2.488-.394-3.44-2.064-4.98-1.601-1.476-2.752-1.96-9.314-3.915-2.532-.755-3.652-1.503-4.003-2.676-.634-2.115 1.075-3.625 4.138-3.655 2.784-.027 4.372 1.11 5.13 3.676.112.376.412.411 3.003.352l2.88-.066-.08-1.04c-.255-3.342-2.952-6.349-6.647-7.41-.908-.26-2.312-.408-3.72-.432zm-113.56.007c-1.418.024-2.842.164-3.773.412-4.621 1.232-8.01 4.707-9.285 9.52-.54 2.04-.548 6.161-.016 8.196 1.271 4.852 4.782 8.443 9.536 9.752.94.258 2.119.331 4.341.27 2.592-.072 3.29-.176 4.638-.694 1.972-.757 3.23-1.614 4.785-3.26 1.079-1.142 2.663-3.761 2.663-4.402 0-.153-1.152-.24-3.162-.24h-3.162l-.352.68c-.526 1.018-2.157 2.305-3.476 2.743-1.699.564-4.37.367-5.948-.439-1.589-.811-3.187-2.616-3.687-4.163-.753-2.332-1.821-2.107 10.016-2.107h10.41l.151-1.472c.44-4.291-1.33-9.127-4.276-11.682-1.281-1.111-3.845-2.39-5.666-2.827-.907-.218-2.319-.31-3.737-.287zm-203.245.296v27.47h6.105l-.06-13.67-.061-13.668-2.992-.066zm74.103.013.341.528c3.41 5.267 8.499 13.452 8.454 13.598-.033.106-1.92 3.016-4.195 6.468-2.274 3.452-4.185 6.408-4.248 6.57-.086.225.599.293 2.955.293h3.07l2.646-4.447c1.976-3.32 2.712-4.377 2.902-4.166.141.155 1.444 2.156 2.896 4.447l2.64 4.166h6.746l-4.248-6.63c-2.337-3.646-4.295-6.8-4.352-7.008-.059-.217 1.68-3.108 4.093-6.805 2.308-3.535 4.276-6.559 4.374-6.72.14-.23-.506-.292-2.945-.287l-3.122.007-2.722 4.574-2.721 4.574-2.91-4.58-2.909-4.58h-3.372zm219.709 0v27.457h6.1v-27.456h-3.05zm-248.755.001v9.047c0 10.18.122 11.247 1.554 13.636 1.565 2.61 3.667 4.167 6.574 4.87 3.65.884 7.84.036 10.378-2.099l.738-.62v2.623h6.1v-27.456h-6.075l-.075 9.093c-.067 8.08-.122 9.193-.488 9.98-.639 1.372-1.929 2.644-3.266 3.22-1.03.442-1.53.508-3.241.426-2.297-.11-3.729-.751-4.794-2.148-1.356-1.777-1.395-2.095-1.485-11.712l-.084-8.859h-2.917zm157.969 4.583c2.286-.092 4.81.915 6.217 2.557.748.874 1.494 2.72 1.494 3.697 0 .404-.403.427-7.411.427h-7.411l.166-.753c.688-3.135 2.835-5.222 5.984-5.82.313-.059.634-.095.961-.108zm142.296.004c1.122.02 2.243.28 3.278.79.877.432 1.857 1.147 2.332 1.7.832.973 1.548 2.657 1.548 3.643v.545h-14.793l.141-.646c.274-1.244 1.533-3.555 2.28-4.188a7.863 7.863 0 0 1 5.214-1.844zm-89.997.234c1.68-.009 2.203.088 3.32.612 3.465 1.624 5.41 5.717 4.714 9.919-.674 4.063-3.098 6.727-6.728 7.392-.766.14-1.452.243-1.525.229-2.805-.543-3.915-1.046-5.243-2.374-.566-.566-1.337-1.657-1.714-2.424-.646-1.316-.686-1.563-.686-4.33 0-2.685.053-3.044.625-4.264.836-1.783 2.233-3.248 3.883-4.071 1.17-.584 1.637-.68 3.354-.689z" style="fill:#0d322b;fill-opacity:1" transform="matrix(.1 0 0 .1 1.306 -20.527)"/></svg>