<svg xmlns="http://www.w3.org/2000/svg" fill="none" viewBox="0 0 25 24"><path fill="#00ADE4" d="m23.164 7.857-6.038-6.053A6.878 6.878 0 0 0 14.63.292C12.566-.396 10.513.14 8.851 1.804L2.798 7.857a6.892 6.892 0 0 0-1.509 2.501c-.69 2.066-.153 4.122 1.51 5.785l6.044 6.053a6.857 6.857 0 0 0 2.495 1.512 5.53 5.53 0 0 0 1.75.292c1.45 0 2.838-.613 4.029-1.803l6.042-6.054a6.893 6.893 0 0 0 1.512-2.502c.687-2.065.15-4.119-1.512-5.784h.005ZM13.446 3.56c.456.147.877.388 1.235.708l1.786 1.79-3.483 3.487L9.5 6.056l1.796-1.8c.481-.48 1.16-.99 2.154-.698l-.005.002Zm-8.889 7.971a3.42 3.42 0 0 1 .71-1.237l1.785-1.788 3.484 3.488-3.486 3.488-1.796-1.8c-.482-.48-.988-1.161-.7-2.156l.003.005Zm7.96 8.902a3.376 3.376 0 0 1-1.235-.708L9.5 17.956l3.483-3.49 3.483 3.488-1.796 1.8c-.482.48-1.159.99-2.154.698v-.02Zm8.893-7.954a3.444 3.444 0 0 1-.706 1.237l-1.786 1.766-3.484-3.488 3.484-3.488 1.796 1.798c.481.48.988 1.16.699 2.155"/></svg>