<svg xmlns="http://www.w3.org/2000/svg" fill="none" viewBox="0 0 174 39"><g clip-path="url(#a)"><path fill="#00ABE4" d="m34.958 12.45-9.523-9.592A10.84 10.84 0 0 0 21.496.463c-3.253-1.09-6.491-.24-9.114 2.395L2.836 12.45a10.93 10.93 0 0 0-2.38 3.963c-1.088 3.273-.242 6.53 2.38 9.165l9.535 9.592a10.805 10.805 0 0 0 3.935 2.395c.889.302 1.82.458 2.759.462 2.287 0 4.477-.972 6.355-2.857l9.53-9.592a10.929 10.929 0 0 0 2.385-3.963c1.083-3.274.238-6.527-2.385-9.165h.008ZM19.63 5.64c.72.233 1.384.615 1.948 1.122L24.395 9.6 18.9 15.123l-5.494-5.527 2.833-2.854c.76-.76 1.831-1.568 3.397-1.105l-.007.004ZM5.61 18.27a5.426 5.426 0 0 1 1.119-1.96l2.817-2.833 5.494 5.527-5.498 5.527-2.833-2.854c-.76-.76-1.558-1.838-1.103-3.414l.004.008Zm12.555 14.105a5.317 5.317 0 0 1-1.949-1.121l-2.809-2.803 5.494-5.531 5.494 5.527-2.833 2.854c-.76.76-1.827 1.568-3.397 1.105v-.031Zm14.027-12.603a5.466 5.466 0 0 1-1.115 1.96l-2.817 2.799-5.494-5.527 5.494-5.527 2.833 2.85c.76.76 1.558 1.838 1.103 3.414"/><path fill="#fff" d="M55.52 32.52h4.921V18.78c0-4.237-2.56-7.365-6.928-7.365-2.127 0-4.406.949-5.59 2.693V3.916h-4.918v28.592h4.917V21.67c0-2.532 1.263-5.7 4.212-5.7 2.6 0 3.386 1.463 3.386 3.842V32.52Zm19.872-8.126c0 3.022-2.147 4.672-5.19 4.672-1.524 0-2.891-.98-2.891-2.551 0-1.65 1.445-2.552 2.93-2.67l5.151-.392v.94Zm4.099 8.443a4.905 4.905 0 0 0 2.42-.548v-3.615a2.931 2.931 0 0 1-.624.079c-.818 0-1.13-.353-1.13-1.298v-7.577c.062-1.4-.138-2.798-.588-4.124-1.169-3.065-4.138-4.163-7.61-4.163-4.531 0-8.163 2.043-8.436 6.637h4.727c.117-1.886 1.442-2.905 3.71-2.905 2.77 0 3.432 1.294 3.432 3.218V19.8l-5.977.42c-3.865.274-6.87 2.512-6.87 6.4 0 3.34 2.498 6.402 7.341 6.402 2.888 0 5.23-1.412 6.168-3.062.156 1.533 1.325 2.866 3.433 2.866l.004.011Zm15.332-16.389c.261.002.521.019.78.051v-4.625c-.21 0-.421-.048-.628-.048-2.384 0-4.804.98-5.739 3.336l-.433-3.061h-4.141v20.423h4.92v-10.29c0-3.3 1.797-5.774 5.23-5.774l.011-.012Zm15.399 16.084h4.882V18.894c0-4.241-2.54-7.303-6.873-7.303-2.338 0-4.761.98-5.973 3.136l-.351-2.63H97.82V32.52h4.878v-8.322c0-1.729-.039-3.85.666-5.46.663-1.494 1.797-2.592 3.507-2.592 2.576 0 3.355 1.454 3.355 3.85l-.004 12.536Zm20.904-12.254h-8.774a5.033 5.033 0 0 1 1.056-3.183 4.16 4.16 0 0 1 3.397-1.568 4.06 4.06 0 0 1 3.082 1.176c.78.866 1.212 2.042 1.251 3.575h-.012Zm4.89 2.199c.078-2.552-.272-4.869-1.757-7.11-1.675-2.553-4.411-3.768-7.403-3.768a8.76 8.76 0 0 0-3.508.622 8.808 8.808 0 0 0-2.976 1.97c-1.948 2.002-2.926 4.907-2.926 8.168 0 3.34 1.091 6.206 3.117 8.17a8.859 8.859 0 0 0 2.951 1.907c1.1.431 2.275.637 3.455.605 2.575 0 5.112-.823 6.83-2.865.78-.945 1.602-2.552 1.719-3.771h-4.676a3.726 3.726 0 0 1-.978 1.728c-.701.706-1.559.98-2.965.98a4.27 4.27 0 0 1-3.008-1.254 5.428 5.428 0 0 1-1.485-4.006h13.571c0-.435.039-1.376.039-1.376Zm6.554-4.673a2.343 2.343 0 0 1 1.559-2.16 5.036 5.036 0 0 1 2.108-.313 3.908 3.908 0 0 1 2.653.94c.511.511.804 1.201.818 1.925h4.649a6.361 6.361 0 0 0-1.796-4.202c-1.481-1.615-3.94-2.399-6.359-2.399-2.541 0-4.676.745-6.168 2.042a5.788 5.788 0 0 0-1.557 2.06 5.836 5.836 0 0 0-.512 2.535c0 2.59 1.874 4.868 4.644 5.46 1.796.392 3.826.51 5.623.784 1.247.196 2.03.98 2.03 2.16 0 2.238-2.498 2.591-4.138 2.591-1.407 0-2.303-.274-3.086-.901a3.265 3.265 0 0 1-1.029-1.858h-4.598a6.905 6.905 0 0 0 2.112 4.213c1.68 1.611 3.982 2.352 6.562 2.352 2.77 0 5.307-.705 6.947-2.352a6.075 6.075 0 0 0 1.765-4.48c0-3.222-2.338-5.265-5.544-5.774-1.991-.314-2.498-.353-4.333-.588-1.091-.157-2.338-.592-2.338-2.042l-.012.007Zm25.869.385h4.632a6.356 6.356 0 0 0-1.796-4.203c-1.484-1.607-3.943-2.39-6.347-2.39-2.537 0-4.676.744-6.168 2.041a5.8 5.8 0 0 0-1.557 2.06 5.836 5.836 0 0 0-.512 2.535c0 2.59 1.874 4.868 4.644 5.46 1.797.392 3.827.51 5.623.784 1.247.196 2.03.98 2.03 2.16 0 2.238-2.502 2.591-4.138 2.591-1.407 0-2.303-.274-3.086-.901a3.265 3.265 0 0 1-1.029-1.858h-4.613a6.883 6.883 0 0 0 2.116 4.213c1.675 1.611 3.978 2.352 6.557 2.352 2.771 0 5.307-.705 6.948-2.352a6.098 6.098 0 0 0 1.757-4.48c0-3.222-2.338-5.265-5.545-5.774-1.991-.314-2.497-.353-4.332-.588-1.091-.157-2.338-.592-2.338-2.042a2.36 2.36 0 0 1 .445-1.324 2.34 2.34 0 0 1 1.113-.836 5.036 5.036 0 0 1 2.108-.314 3.91 3.91 0 0 1 2.654.94c.511.511.806 1.201.822 1.925"/></g><defs><clipPath id="a"><path fill="#fff" d="M0 0h173.5v38.027H0z"/></clipPath></defs></svg>