<svg xmlns="http://www.w3.org/2000/svg" fill="none" viewBox="0 0 180 90"><path fill="url(#a)" d="M55.525 41.29c1.106-2.369-.059-5.145-.108-5.262l-.349-.814-.85.25c-.099.03-1.979.599-3.302 2.022a7.48 7.48 0 0 0-.603-1.379c.695-.787 1.64-2.17 1.64-3.877 0-2.625-2.243-4.587-2.339-4.67l-.65-.56-.65.56c-.096.082-2.339 2.045-2.339 4.67 0 1.825 1.1 3.55 2.516 4.715.6.955.845 2.282 1.105 3.502-.145 1.483.28 2.848.47 3.366a14.255 14.255 0 0 1-.76 4.255c-1.242 1.236-1.699 2.967-1.845 3.716-.96 1.412-2.368 2.576-3.456 3.344-2.13.435-3.68 2.139-3.753 2.221l-.08.088c-.408.22-.852.455-1.172.628-.334-.18-.746-.398-1.172-.628-.967-1.064-2.39-2.014-3.832-2.309-1.088-.768-2.497-1.932-3.456-3.344-.146-.749-.603-2.48-1.846-3.716a14.258 14.258 0 0 1-.759-4.255c.19-.518.614-1.883.47-3.366.283-1.336.5-2.568 1.081-3.477 1.41-1.207 2.54-2.947 2.54-4.806 0-2.637-2.258-4.537-2.354-4.616l-.635-.526-.636.526c-.096.08-2.353 1.979-2.353 4.616 0 1.709.95 3.122 1.64 3.925-.258.44-.454.902-.613 1.386-1.323-1.415-3.194-1.982-3.293-2.01l-.85-.251-.348.814c-.05.117-1.214 2.893-.108 5.262.79 1.693 2.515 2.632 3.485 3.045.043.812.148 1.62.313 2.417-1.702-.41-3.318-.043-3.41-.022l-.864.203.102.881c.015.127.386 3.115 2.53 4.615 1.289.902 3.009 1.105 4.573.913.582.77 1.256 1.46 1.928 2.058-1.646.638-2.776 1.88-2.839 1.95l-.595.663.595.665c.085.094 2.112 2.322 4.728 2.322 1.761 0 3.254-1.01 4.068-1.698 2.058 1.103 1.285.697 1.91 1.038 1.335-.73-.757.39 1.91-1.038.814.688 2.307 1.698 4.069 1.698 2.616 0 4.642-2.228 4.727-2.322l.595-.664-.595-.665c-.063-.07-1.193-1.31-2.838-1.95a14.405 14.405 0 0 0 1.927-2.057c1.565.193 3.285-.011 4.573-.913 2.145-1.5 2.513-4.489 2.528-4.616l.102-.88-.864-.203c-.091-.021-1.707-.388-3.408.022.165-.798.27-1.605.314-2.417.969-.413 2.695-1.352 3.485-3.045Zm-26.49-11.538c.46.567.998 1.44.998 2.412 0 .974-.536 1.855-.996 2.431-.46-.576-.997-1.459-.997-2.431 0-.975.538-1.846.996-2.412Zm-4.754 10.697c-.415-.89-.313-1.947-.149-2.691.697.353 1.605.957 2.022 1.85.415.889.314 1.945.15 2.69-.698-.352-1.606-.957-2.023-1.85Zm1.494 10.35c-.8-.56-1.238-1.52-1.466-2.246.759-.031 1.808.055 2.61.614.8.56 1.24 1.52 1.472 2.246-.763.032-1.815-.054-2.616-.614Zm7.247 8.21c-.978 0-1.89-.534-2.496-.995.607-.463 1.518-.996 2.496-.996.977 0 1.888.533 2.495.995-.607.463-1.518.996-2.495.996Zm20.846-21.253c.165.745.267 1.803-.149 2.693-.418.895-1.325 1.5-2.021 1.85-.165-.744-.267-1.801.149-2.692.418-.896 1.325-1.5 2.021-1.851Zm-4.904-7.98c.46.587.996 1.478.996 2.454 0 .974-.538 1.835-.996 2.391-.457-.556-.996-1.419-.996-2.391 0-.976.535-1.867.996-2.453ZM44.979 59.01c-.977 0-1.888-.532-2.494-.995.607-.462 1.52-.996 2.494-.996.978 0 1.89.533 2.495.995-.606.463-1.518.996-2.495.996Zm8.71-10.456c-.229.726-.666 1.687-1.464 2.246-.8.56-1.853.645-2.615.614.231-.726.672-1.685 1.473-2.245.8-.56 1.848-.646 2.606-.615Z"/><path fill="url(#b)" fill-rule="evenodd" d="M39 54.167S46.333 50.5 46.333 45v-6.417L39 35.833l-7.333 2.75V45c0 5.5 7.333 9.167 7.333 9.167Zm-4.333-13.505V45c0 1.41.988 2.94 2.642 4.388A16.5 16.5 0 0 0 39 50.677a16.489 16.489 0 0 0 1.691-1.289c1.654-1.447 2.642-2.977 2.642-4.388v-4.338L39 39.037l-4.333 1.625Zm5.682 10.825-.002-.001.002.001Z" clip-rule="evenodd"/><path fill="url(#c)" fill-rule="evenodd" d="M15 25.675c.728 0 1.42.156 2.043.435l19.1-10.985c.9-.5 2-.8 3-.8 1.1 0 2.1.3 3 .8l16.4 9.5c-1.2.8-2.1 2-2.7 3.4l-15.9-9.2c-.3-.2-.599-.2-.899-.2-.3 0-.6.1-.9.2L19.823 29.35A5.005 5.005 0 0 1 15 35.675a5 5 0 1 1 0-10Zm46.35.279a5 5 0 0 1 4.195 9.026v20.545c-.001 2.2-1.201 4.2-3.001 5.3l-16.4 9.4c0-1.5-.5-3-1.4-4.1l15.6-9c.6-.3.9-.9.9-1.6V35.358a5.007 5.007 0 0 1-3.183-3.899 4.574 4.574 0 0 1-.117-1.034c0-1 .3-1.9.9-2.7.05-.05.1-.125.15-.2.05-.075.1-.15.15-.2.3-.3.5-.5.8-.7 0 0 .1 0 .1-.1.062-.062.123-.085.209-.118.053-.02.114-.044.19-.082 0 0 .1 0 .1-.1.1-.05.176-.075.25-.1.076-.025.15-.05.25-.1.097-.024.2-.048.306-.071ZM43.843 69.43a5 5 0 1 1-9.78 2.043l-18.22-10.548c-1.9-1.1-3-3.1-3-5.3v-18.5c.7.2 1.5.4 2.2.4.7 0 1.4-.1 2-.3v18.4c0 .7.4 1.3.9 1.6l17.382 10.058a5.002 5.002 0 0 1 8.516 2.14l.002.002v.005Z" clip-rule="evenodd"/><path fill="#0B0D11" d="M79.7 41.138v.207c0 3.52 3.312 5.52 7.613 5.52 4.094 0 7.13-1.84 7.13-5.336 0-3.933-4.232-5.405-6.716-6.279-2.139-.736-2.967-1.104-2.967-1.817 0-.598.621-1.219 2.185-1.219 1.863 0 2.76 1.035 2.76 1.91v.16h4.485v-.253c0-3.565-3.15-5.796-7.337-5.796-4.094 0-7.015 2.14-7.015 5.566 0 3.703 3.75 5.083 6.601 6.026 2.162.736 3.06 1.196 3.06 1.955 0 .53-.553 1.104-2.278 1.104-2.093 0-3.036-.943-3.036-1.633v-.115H79.7ZM108.664 28.58v6.97h-7.314v-6.97h-4.577v17.94h4.577v-6.67h7.314v6.67h4.6V28.58h-4.6ZM116.323 28.58v17.94h4.6V28.58h-4.6ZM123.969 46.52h13.777v-4.439h-9.177v-2.3h7.544v-4.163h-7.544v-2.576h9.177V28.58h-13.777v17.94ZM140.262 46.52h13.179v-4.439h-8.602v-13.5h-4.577v17.94ZM155.409 46.52h8.326c5.612 0 8.487-4.07 8.487-8.97 0-4.876-2.875-8.97-8.487-8.97h-8.326v17.94Zm7.981-13.478c2.737 0 4.186 1.817 4.186 4.508s-1.449 4.531-4.186 4.531h-3.381v-9.039h3.381Z"/><path fill="#7F818C" fill-rule="evenodd" d="M128 51.865c2.3 0 4.1 1.8 4.1 4 0 1.5-.8 2.7-2 3.5.084.042.163.084.238.123.287.152.525.277.762.277.1 0 .5 0 .7-.3l1.5 1.2c-.6.8-1.5 1.1-2.2 1.1-.954 0-1.659-.498-2.349-.984-.467-.33-.926-.654-1.451-.816-1.9-.3-3.4-2-3.4-4 0-2.3 1.8-4.1 4.1-4.1Zm0 6.1c1.2 0 2.1-.9 2.1-2.1 0-1.2-.9-2.1-2.1-2.1-1.2 0-2.1.9-2.1 2.1 0 1.2.9 2.1 2.1 2.1Zm-44.3-2.7h3.7v4.5h-1.6v-.7c-.4.6-1.2.9-2 .9-2.2 0-4.1-1.8-4.1-4s1.9-4 4.1-4c1.3 0 2.5.6 3.3 1.6l-1.6 1.1c-.4-.5-1-.8-1.7-.8-1.2 0-2.1.9-2.1 2.1 0 1.2.9 2.1 2.1 2.1.7 0 1.3-.3 1.7-.9v-.2h-1.8v-1.7Zm9.4-3.2c2 0 2.9 1.3 2.9 2.8 0 1.1-.5 2.1-1.5 2.6l1.7 2.3h-2.4l-1.5-2.1h-1v2.1h-2v-7.7h3.8Zm-1.8 1.9v2H93c.8 0 1.1-.5 1.1-1 0-.6-.3-1-1.1-1h-1.7Zm14.1 5.8-3.1-7.7h-2l-3.1 7.7h2.2l.4-1.1h3l.4 1.1h2.2Zm-5-2.9.9-2.3.8 2.3h-1.7Zm6.5-4.8h3.4c2.1 0 3 1.4 3 3s-1 3-3 3h-1.4v1.8h-2v-7.8Zm2 1.8v2.4h1.3c.8 0 1.1-.5 1.1-1.2 0-.6-.3-1.2-1.1-1.2h-1.3Zm13.3 5.9v-7.7h-2v3H117v-3h-2v7.7h2v-2.9h3.2v2.9h2Zm13.6-7.7h-2v7.7h5.7v-1.9h-3.7v-5.8Z" clip-rule="evenodd"/><defs><linearGradient id="a" x1="18.169" x2="69.239" y1="25.796" y2="77.164" gradientUnits="userSpaceOnUse"><stop stop-color="#47DEFF"/><stop offset="1" stop-color="#9847FF"/></linearGradient><linearGradient id="b" x1="30.014" x2="56.915" y1="35.184" y2="56.83" gradientUnits="userSpaceOnUse"><stop stop-color="#47DEFF"/><stop offset="1" stop-color="#9847FF"/></linearGradient><linearGradient id="c" x1="3.465" x2="95.501" y1="12.152" y2="99.671" gradientUnits="userSpaceOnUse"><stop stop-color="#47DEFF"/><stop offset="1" stop-color="#9847FF"/></linearGradient></defs></svg>