<svg xmlns="http://www.w3.org/2000/svg" fill="none" class="pages___StyledLogo-enqfuc-1 cagcsn" viewBox="0 0 139 61"><path fill="#eab308" fill-rule="evenodd" d="M2.3 20.1c-1.4-.8-2.3-2.3-2.3-4 0-2.5 2.1-4.6 4.6-4.6.7 0 1.3.1 1.8.4L25.7.8c.9-.5 2-.8 3-.8 1.1 0 2.1.3 3 .8l16.4 9.5c-1.2.8-2.1 2-2.7 3.4L29.5 4.5c-.3-.2-.6-.2-.9-.2-.3 0-.6.1-.9.2L8.9 15.3c0 .3.1.5.1.8 0 2-1.3 3.6-3 4.3-.1 0-.3.1-.4.1h-.1c-.1 0-.3.1-.4.1H3.8c-.1 0-.3 0-.4-.1h-.1c-.3-.1-.7-.2-1-.4Zm54.4-4c0 1.4-.6 2.6-1.6 3.4v21.7c0 2.2-1.2 4.2-3 5.3l-16.4 9.4c0-1.5-.5-3-1.4-4.1l15.6-9c.6-.3.9-.9.9-1.6V20.5c-1.9-.6-3.3-2.3-3.3-4.4 0-1 .3-1.9.9-2.7.1-.1.2-.3.3-.4.3-.3.5-.5.8-.7 0 0 .1 0 .1-.1.1-.1.2-.1.4-.2 0 0 .1 0 .1-.1.2-.1.3-.1.5-.2.4-.1.9-.2 1.4-.2 2.6 0 4.7 2.1 4.7 4.6Zm-23.4 40c0 .2 0 .5-.1.7v.1c-.4 2.1-2.2 3.8-4.5 3.8-2 0-3.7-1.3-4.3-3.1l-19-11c-1.9-1.1-3-3.1-3-5.3V22.8c.7.2 1.5.4 2.2.4s1.4-.1 2-.3v18.4c0 .7.4 1.3.9 1.6l17.8 10.3c.8-1 2.1-1.6 3.5-1.6 1.5 0 2.8.7 3.7 1.9v.1c.1.1.1.2.2.3 0 0 0 .1.1.1 0 .1.1.2.1.2s0 .1.1.1c0 .1.1.2.1.2 0 .1 0 .1.1.2 0 .1.1.1.1.2s0 .1.1.2v.7c-.1 0-.1.1-.1.3Z" clip-rule="evenodd"/><path fill="#FFB21D" d="m41.345 29.253 2.487-4.306a1.254 1.254 0 0 0 0-1.254l-2.85-4.933a1.254 1.254 0 0 0-1.086-.627h-4.974l-2.486-4.306a1.255 1.255 0 0 0-1.087-.627h-5.698c-.448 0-.862.239-1.087.627l-2.487 4.306h-4.973c-.449 0-.863.24-1.087.627l-2.849 4.933a1.254 1.254 0 0 0 0 1.254l2.487 4.306-2.487 4.307a1.254 1.254 0 0 0 0 1.254l2.85 4.933c.223.388.637.627 1.086.627h4.974l2.486 4.306c.224.388.639.627 1.087.627h5.698c.448 0 .862-.239 1.087-.627l2.487-4.306h4.973c.449 0 .863-.24 1.087-.627l2.849-4.933a1.254 1.254 0 0 0 0-1.255l-2.487-4.306Zm-19.267 8.613h-4.25l-2.125-3.68 2.125-3.678h4.25l2.124 3.679-2.125 3.679Zm0-9.867h-4.25l-2.125-3.679 2.125-3.679h4.25l2.124 3.68-2.125 3.678Zm8.547 14.8h-4.25l-2.125-3.68 2.125-3.678h4.25l2.125 3.679-2.125 3.679ZM24.25 29.253l2.124-3.678h4.25l2.125 3.678-2.125 3.68h-4.25l-2.124-3.68Zm6.374-6.187h-4.25l-2.125-3.679 2.125-3.679h4.25l2.125 3.68c-.259.446-1.866 3.23-2.125 3.678Zm8.547 14.8h-4.25l-2.124-3.68 2.124-3.678h4.25l2.125 3.679-2.125 3.679Zm0-9.867h-4.25l-2.124-3.679 2.124-3.679h4.25l2.125 3.68-2.125 3.678Z"/><path fill="#0B0D11" d="M78.074 14.32v6.666h-6.996V14.32H66.7v17.16h4.378V25.1h6.996v6.38h4.4V14.32h-4.4Zm12.108 0v17.16h4.4V14.32h-4.4Zm22.062 17.16 6.952-17.16H114.4l-4.334 11.528-4.312-11.528h-4.796l6.93 17.16h4.356Zm13.323 0h13.178v-4.246h-8.778v-2.2h7.216v-3.982h-7.216v-2.464h8.778V14.32h-13.178v17.16Z"/><path fill="#C4C4C4" d="M70.7 39.88h3.7v4.5h-1.6v-.7c-.4.6-1.2.9-2 .9-2.2 0-4.1-1.8-4.1-4s1.9-4 4.1-4c1.3 0 2.5.6 3.3 1.6l-1.6 1.1c-.4-.5-1-.8-1.7-.8-1.2 0-2.1.9-2.1 2.1 0 1.2.9 2.1 2.1 2.1.7 0 1.3-.3 1.7-.9v-.2h-1.8v-1.7Zm9.4-3.2c2 0 2.9 1.3 2.9 2.8 0 1.1-.5 2.1-1.5 2.6l1.7 2.3h-2.4l-1.5-2.1h-1v2.1h-2v-7.7h3.8Zm-1.8 1.8v2.1H80c.8 0 1.1-.5 1.1-1 0-.6-.3-1-1.1-1h-1.7v-.1Zm11-1.8 3.1 7.7h-2.2l-.4-1.1h-3l-.4 1.1h-2.2l3.1-7.7h2Zm-1 2.5-.9 2.3h1.7l-.8-2.3Zm5.6-2.5h3.4c2.1 0 3 1.4 3 3s-1 3-3 3h-1.4v1.8h-2v-7.8Zm2 1.8v2.4h1.3c.8 0 1.1-.5 1.1-1.2 0-.6-.3-1.2-1.1-1.2h-1.3Zm13.3-1.8v7.7h-2v-2.9H104v2.9h-2v-7.7h2v3h3.2v-3h2Zm5.8-.2c2.3 0 4.1 1.8 4.1 4 0 1.5-.8 2.7-2 3.5.4.2.7.4 1 .4.1 0 .5 0 .7-.3l1.5 1.2c-.6.8-1.5 1.1-2.2 1.1-1.6 0-2.5-1.4-3.8-1.8-1.9-.3-3.4-2-3.4-4 0-2.3 1.8-4.1 4.1-4.1Zm0 6.1c1.2 0 2.1-.9 2.1-2.1 0-1.2-.9-2.1-2.1-2.1-1.2 0-2.1.9-2.1 2.1 0 1.2.9 2.1 2.1 2.1Zm5.8-5.9h2v5.8h3.7v1.9h-5.7v-7.7Z"/></svg>