<svg xmlns="http://www.w3.org/2000/svg" xmlns:xlink="http://www.w3.org/1999/xlink" viewBox="0 0 462.188 85" fill="#fff" fill-rule="evenodd" stroke="#000" stroke-linecap="round" stroke-linejoin="round"><use xlink:href="#A" x="13.594" y="2.5"/><symbol id="A" overflow="visible"><g fill="#154968" stroke="none"><path d="M361.383 18.12a45.41 45.41 0 0 0-12.018 1.599c-1.836.504-3.556 1.148-5.174 1.921a7.65 7.65 0 0 0-1.124-1.351c-1.528-1.446-3.36-2.169-5.494-2.169h-8.243v61.324h16.023V47.607c0-6.192 1.067-8.605 3.209-10.746 2.134-2.13 5.416-3.197 9.847-3.197h6.911V18.12h-3.936M68.858 0h-8.243v71.898a7.11 7.11 0 0 0 2.29 5.372 7.71 7.71 0 0 0 5.495 2.174h8.243V7.542c0-2.13-.764-3.919-2.287-5.371C72.826.726 70.994 0 68.858 0m41.958 66.994c9.527 0 12.542-9.978 12.542-18.422s-3.015-18.547-12.542-18.547-12.425 10.106-12.425 18.547 2.895 18.422 12.425 18.422zm.016-50.36c18.076 0 28.097 11.897 28.097 31.738 0 19.764-10.021 31.627-28.097 31.627-18.43 0-27.997-11.862-27.997-31.627 0-19.841 9.566-31.738 27.997-31.738zm-82.855 50.36c-9.528 0-12.423-9.978-12.423-18.422s2.895-18.547 12.423-18.547c4.95 0 8.131 2.741 10.056 6.543H54.68c-3.343-12.659-12.552-19.933-26.687-19.933C9.562 16.635 0 28.532 0 48.373 0 68.137 9.563 80 27.993 80c14.137 0 23.326-7.269 26.668-19.884H43.742s-2.938.08-4.592 1.64c-2.881 2.713-5.224 5.238-11.172 5.238z"/><path d="M195.944 20.341c-1.451-1.524-3.318-2.285-5.612-2.285h-8.012v38.425c0 3.657-1.109 6.323-3.32 7.999a12.09 12.09 0 0 1-7.468 2.514 12.07 12.07 0 0 1-7.465-2.514c-2.212-1.678-3.322-4.341-3.322-7.999V25.825c0-2.133-.722-3.959-2.176-5.484-1.448-1.524-3.317-2.285-5.608-2.285h-8.011v35.659c0 10.821 3.047 17.519 8.469 21.259 5.405 3.728 11.399 5.027 18.112 5.027s12.71-1.298 18.114-5.027c5.422-3.74 8.469-10.438 8.469-21.259v-27.89c.001-2.133-.721-3.959-2.173-5.484zm63.26-18.17C257.677.726 255.843 0 253.71 0h-8.036v22.735c-2.434-2.244-7.57-6.101-15.346-6.101-16.362 0-25.82 11.895-25.82 31.738 0 19.764 9.716 31.627 28.442 31.627 18.284 0 28.458-11.768 28.539-31.379h.005V7.542c-.001-2.13-.765-3.919-2.289-5.371zM232.93 66.994c-9.68 0-12.622-9.979-12.622-18.422s2.942-18.547 12.622-18.547c9.624 0 12.707 9.984 12.744 18.396v.2h.002c-.012 8.434-3.08 18.374-12.745 18.374zm90.499-22.19c0 1.308-.276 2.503-.825 3.585a8.05 8.05 0 0 1-1.352 1.899c-1.452 1.522-3.244 2.285-5.38 2.285H283.32c.412 7.3 4.14 14.422 12.193 14.422 5.946 0 8.289-2.525 11.172-5.24 1.655-1.556 4.59-1.64 4.59-1.64h10.922c-3.345 12.615-12.535 19.884-26.672 19.884-18.429 0-27.995-11.862-27.995-31.625 0-19.844 9.565-31.739 27.995-31.739 14.138 0 23.348 7.276 26.69 19.935.602 2.266.989 4.708 1.204 7.3l.009.934zm-27.915-14.777c-6.637 0-11.034 4.901-11.513 10.728h23.108c-.036-5.826-5.123-10.728-11.595-10.728zm123.379 3.593c0-5.434-2.213-9.66-6.639-12.683-4.274-2.865-10.687-4.303-19.232-4.303-7.635 0-13.511 1.738-17.629 5.209-3.664 3.02-5.891 7.14-6.502 11.82h15.34c.763-1.9 2.073-3.063 3.757-3.664 1.673-.604 3.584-.909 5.722-.909 2.666 0 4.553.341 6.523 1.021 2.326.803 3.549 2.15 3.549 4.415 0 2.427-3.352 4.692-10.071 5.562-8.071 1.047-14.448 1.916-20.254 6.173-3.729 2.732-6.074 7.742-6.074 14.082 0 6.797 2.114 11.589 6.178 14.609 3.625 2.694 9.511 4.996 19.043 4.996 8.544 0 14.956-1.862 19.228-4.731 4.427-3.018 6.916-6.497 7.062-12.859V33.62zm-17.21 29.816c-2.445 2.373-5.802 3.558-10.074 3.558-1.33 0-5.538-.298-7.285-1.973-1.275-1.221-2.06-2.471-2.06-4.693 0-1.631.584-3.178 1.599-4.253 2.256-2.384 4.735-2.721 10.069-3.891 3.536-.776 7.87-2.074 10.099-3.32v4.615c-.001 4.153.094 7.59-2.348 9.957zm27.145-46.405c3.665 0 6.172 2.826 6.172 6.324 0 3.453-2.529 6.326-6.172 6.326-3.692 0-6.105-2.85-6.105-6.326 0-3.451 2.413-6.324 6.105-6.324zm0 11.631c2.9 0 5.104-2.386 5.104-5.307 0-2.965-2.228-5.327-5.104-5.327-2.925 0-5.083 2.362-5.083 5.327 0 2.896 2.182 5.307 5.083 5.307zm.092-4.402h-1.346v2.757h-1.322V19.72h2.435c1.88 0 2.741.579 2.741 2.2 0 1.136-.28 1.807-1.162 2.178l1.323 2.919h-1.438l-1.231-2.757zm-1.346-1.112h1.369c.813 0 1.184-.277 1.184-1.159 0-.857-.466-1.157-1.44-1.157h-1.113v2.316z"/></g></symbol></svg>