<svg xmlns="http://www.w3.org/2000/svg" xmlns:xlink="http://www.w3.org/1999/xlink" viewBox="0 0 106.25 85" fill="#fff" fill-rule="evenodd" stroke="#000" stroke-linecap="round" stroke-linejoin="round"><use xlink:href="#A" x="3.125" y="2.5"/><symbol id="A" overflow="visible"><g fill="#28334c" stroke="none"><path d="M28.5 72.5c6.5 10 42.5 10 49 0 2.5-15 17.5-20 22.5-50-14 12.5-78 13-94 0 5 30 20 35 22.5 50z"/><path d="M11.289 40.25C.789 52.5 12.539 66.5 23.039 66.5c-17 9-34.5-14.5-13.25-29.75zM95.034 7.5c10 18.5-99 16.5-82.5 0-25 10.5 21.5 17.5 37.5 17.5s65-4 45-17.5zM39 5.045c4-4.5-13-5.5-13 1.5 0 5.5 12.5 9 23 2.5 9.5-6 19-5.5 22-3 3 3.5-9.5 7.5-12 1.5-7 1.5-3.5 6 4 6 19 0 14.5-10 9-12-8-3.5-21.5-.5-27 3.5-16.5 11-23.5-4.5-6 0"/></g></symbol></svg>