<svg xmlns="http://www.w3.org/2000/svg" xmlns:xlink="http://www.w3.org/1999/xlink" viewBox="0 0 371.875 85" fill="#fff" fill-rule="evenodd" stroke="#000" stroke-linecap="round" stroke-linejoin="round"><use xlink:href="#A" x="10.938" y="2.5"/><symbol id="A" overflow="visible"><path d="M28.935 19.7h21.872l-3.387 13.4c-.517 1.867-1.485 3.367-2.903 4.5s-3.065 1.7-4.935 1.7H29.419c-2.323 0-4.372.7-6.146 2.1s-3.017 3.3-3.726 5.7c-.452 1.8-.5 3.5-.145 5.1s.983 3.018 1.887 4.25 2.064 2.217 3.484 2.951S27.74 60.5 29.419 60.5h6.194c1.161 0 2.113.485 2.855 1.45s.951 2.05.629 3.25L35.225 80h-6.774c-4.646 0-8.921-1.05-12.824-3.15s-7.147-4.883-9.726-8.35-4.34-7.415-5.274-11.849S-.196 47.667.965 43l.387-1.5c.837-3.2 2.144-6.15 3.919-8.85s3.871-5 6.291-6.9 5.113-3.383 8.081-4.45 6.064-1.6 9.291-1.6zM39.967 80L59.033 6.2c.515-1.866 1.483-3.366 2.904-4.5S64.999 0 66.872 0h20.227c4.645 0 8.918 1.05 12.823 3.15s7.145 4.885 9.726 8.35 4.355 7.417 5.323 11.85.838 8.984-.387 13.65l-.387 1.5c-.839 3.2-2.129 6.15-3.871 8.85s-3.823 5.017-6.242 6.95-5.114 3.434-8.081 4.5-6.065 1.6-9.291 1.6H69.195l3.484-13.5c.515-1.8 1.483-3.266 2.903-4.4s3.064-1.7 4.936-1.7h5.614a9.74 9.74 0 0 0 6.242-2.2c1.839-1.466 3.049-3.366 3.629-5.7.451-1.666.499-3.3.146-4.9s-.985-3.016-1.888-4.25-2.066-2.233-3.484-3-2.968-1.15-4.645-1.15h-10.84l-14.13 54.3c-.517 1.8-1.485 3.267-2.903 4.4a7.54 7.54 0 0 1-4.839 1.7H39.967zm120.684-39.4l.29-1.1c.129-.533.049-.983-.242-1.35s-.694-.55-1.21-.55h-31.454c-1.354 0-2.581-.3-3.678-.9s-2.001-1.383-2.709-2.35-1.195-2.083-1.452-3.35-.227-2.566.096-3.9l1.935-7.6h42.583c2.645 0 5.065.6 7.258 1.8s4.017 2.767 5.469 4.7 2.451 4.15 2.999 6.65.499 5.084-.145 7.75l-7.646 29.4c-.774 3-2.339 5.434-4.694 7.3s-5.049 2.8-8.081 2.8l-31.454-.1c-2.775 0-5.323-.616-7.645-1.85s-4.226-2.865-5.711-4.9-2.516-4.366-3.097-7-.515-5.316.194-8.05l.388-1.5a16.18 16.18 0 0 1 2.274-5.2c1.065-1.6 2.306-2.966 3.726-4.1s3-2.016 4.742-2.65 3.581-.95 5.517-.95h26.421l-1.936 7.5c-.517 1.8-1.484 3.267-2.903 4.4a7.54 7.54 0 0 1-4.839 1.7h-11.807c-1.097 0-1.807.568-2.129 1.7-.194.734-.065 1.384.387 1.95s1.031.85 1.742.85h19.066c.71 0 1.322-.2 1.839-.6s.838-.933.968-1.6l.194-.8 4.742-18.1zm56.327-20.9c4.708 0 9.015 1.05 12.919 3.15s7.145 4.885 9.727 8.35 4.339 7.435 5.274 11.9.79 9.035-.435 13.7l-4.839 18.8c-.324 1.334-1.017 2.4-2.08 3.2S235.3 80 234.01 80h-10.452c-1.226 0-2.194-.482-2.903-1.45s-.905-2.05-.581-3.25l5.807-22.7c.451-1.666.499-3.3.145-4.9s-.984-3.016-1.887-4.25-2.065-2.233-3.484-3-2.969-1.15-4.645-1.15h-10.84l-9.388 36.3c-.323 1.334-1.016 2.4-2.081 3.2s-2.275 1.2-3.629 1.2h-10.356c-1.161 0-2.114-.482-2.855-1.45s-.951-2.05-.629-3.25l14.324-55.6h26.422zm57.002 19.05c-.774.634-1.324 1.45-1.646 2.45l-4.355 17c-.258.935-.096 1.8.484 2.6s1.356 1.2 2.324 1.2h40.067l-3.097 11.9c-.517 1.8-1.485 3.267-2.903 4.4s-3.034 1.7-4.839 1.7h-36.486c-2.647 0-5.066-.583-7.258-1.75s-4.017-2.732-5.469-4.7-2.453-4.2-3-6.7-.468-5.05.242-7.65l5.903-22.7c.645-2.465 1.645-4.733 3.001-6.8s2.952-3.833 4.791-5.3 3.902-2.615 6.194-3.45 4.661-1.25 7.114-1.25h25.84c2.645 0 5.065.6 7.259 1.8s4.017 2.767 5.469 4.7 2.434 4.167 2.951 6.7.451 5.1-.194 7.7l-1.742 6.8c-.774 3-2.339 5.417-4.693 7.25s-5.017 2.75-7.985 2.75h-29.227l1.936-7.4c.45-1.8 1.386-3.266 2.806-4.4s3.063-1.7 4.936-1.7h11.807c1.096 0 1.805-.566 2.129-1.7l.387-1.5c.194-.733.064-1.4-.387-2s-1.033-.9-1.742-.9h-18c-.968 0-1.839.317-2.614.95zM310.755 80l19.453-75.5c.322-1.333 1.016-2.416 2.081-3.25A5.73 5.73 0 0 1 335.918 0h10.355a3.54 3.54 0 0 1 2.952 1.45c.741.967.951 2.05.629 3.25l-14.517 55.7c-.711 2.934-1.855 5.6-3.436 8s-3.452 4.45-5.614 6.15-4.565 3.035-7.21 4-5.419 1.45-8.323 1.45z" fill="#ff6c2c" stroke="none"/></symbol></svg>