<svg xmlns="http://www.w3.org/2000/svg" xmlns:xlink="http://www.w3.org/1999/xlink" viewBox="0 0 81 81" fill="#fff" fill-rule="evenodd" stroke="#000" stroke-linecap="round" stroke-linejoin="round"><use xlink:href="#A" x=".5" y=".5"/><symbol id="A" overflow="visible"><path d="M36.852.021c.187-.02 1.81-.03 3.591-.01l4.457.187C52.908 1.27 59.834 4.3 65.924 9.396c1.141.944 3.739 3.542 4.683 4.683 5.116 6.109 8.107 12.966 9.209 21.083.246 1.8.246 7.88 0 9.68-1.102 8.116-4.093 14.973-9.209 21.083-.944 1.141-3.542 3.738-4.683 4.683-6.11 5.116-12.967 8.106-21.083 9.208-1.8.246-7.88.246-9.681 0-8.117-1.102-14.974-4.093-21.083-9.208-1.141-.944-3.739-3.542-4.683-4.683C4.277 59.815 1.286 52.958.184 44.842c-.246-1.8-.246-7.88 0-9.68 1.102-8.116 4.093-14.973 9.209-21.083.944-1.141 3.542-3.738 4.683-4.683C20.255 4.221 27.83.965 35.524.158l1.328-.138zm2.214 28.914c-2.027-.305-4.703-.266-6.592.089-5.933 1.122-11.717 4.319-14.521 8.008-.63.826-1.318 2.243-1.564 3.217-.226.885-.275 2.459-.098 3.246.325 1.456 1.417 2.686 3.197 3.61 1.545.797 3.394 1.495 4.427 1.682 1.899.344 4.634.453 6.395.266 2.548-.266 6.966-1.456 9.169-2.469.462-.207.964-.384 1.131-.384.964 0 1.722 1.043 1.299 1.771-.236.384-1.781 1.161-3.561 1.781-.974.334-1.2.443-1.151.571.236.59.659 3.266.876 5.47.384 3.837.443 10.753.148 16.232l-.118 3.197h0l-.02 1.131 2.361-.01c3.247-.01 5.372-.266 8.658-1.072 2.686-.659 4.722-1.367 6.838-2.391 1.525-.738 1.397-.502 1.289-2.233-.059-.817-.128-2.145-.157-2.951-.108-2.784-.61-9.582-.994-13.33-.846-8.362-1.515-11.481-3.237-15.003-1.181-2.42-2.44-4.132-4.486-6.09-1.377-1.318-1.968-1.761-3.207-2.4-1.918-.984-3.857-1.604-6.08-1.938zM24.869 69.633c-.384-.039-.374-.118-.167 1.909.118 1.122.197 1.495.315 1.584.403.305.433.197.364-1.279-.039-.767-.098-1.574-.128-1.79-.059-.354-.098-.394-.384-.423zm-4.565-6.316c-.216 0-.226.197-.039 1.918.079.698.167 1.741.207 2.312a48.85 48.85 0 0 0 .197 2.066c.079.561.118 1.053.098 1.092-.049.059.177.285.433.433.167.098.138-.413-.236-4.181l-.246-2.961c0-.246-.049-.492-.118-.561s-.197-.118-.295-.118zm39.963-5.588c-.089-.01-.187.01-.226.049-.079.069.02 12.533.089 12.612.03.03.118-.039.216-.148.157-.177.167-.62.118-6.336-.039-5.45-.069-6.149-.197-6.178zm-32.256 1.751h-.338l.069.807c.266 3.365.482 5.549.551 5.617.039.049.177.059.295.02.216-.069.216-.098.157-1.023l-.413-4.909c-.049-.492-.069-.512-.354-.512zm-15.223-6.208c-.098-.167-.334-.089-.334.118 0 .118.148 1.367.334 2.784.325 2.499.748 6.582.748 7.201 0 .226.069.354.256.482h0l.246.157-.049-.423c-.03-.236-.167-1.486-.305-2.784l-.895-7.536zm56.777.01c-.039 0-.236.167-.433.364h0l-.364.374-.02 4.22c-.029 4.604-.059 4.447.502 3.62h0l.246-.364.069-4.112v-4.102zm-38.281-1.899c-.049-.148-.334-.236-.443-.118-.03.02.03.915.118 1.987l.325 4.063c.216 2.804.236 2.951.423 2.951.167 0 .157-.502-.118-4.476l-.197-3.099c-.039-.62-.089-1.21-.108-1.308zM8.468 43.022c-.069-.551-.157-.649-.423-.472-.128.079-.138.01 1.397 10.615.236 1.643.462 3.01.492 3.04.236.246.197-.334-.334-4.398l-1.131-8.785zm64.785-8.529c-.066 0-.096 1.035-.098 3.106v.259l-.049 4.752-.089 7.231c-.059 6.434-.089 6.139.521 4.673.374-.895.384-1.2.462-11.579h0l.069-8.146-.354-.148c-.197-.079-.403-.148-.462-.148zM23.108 51.118c-.266 0-.266-.02-.128 1.741.13 1.635.129 1.7.476 1.702h.086c.382.004.36.114.215-1.771-.089-1.062-.157-1.456-.266-1.554-.089-.059-.256-.118-.384-.118zm-8.304-4.575l.059.492.224 2.051.022.202c.098.964.226 1.8.275 1.85.157.157.512-.098.512-.374a52.69 52.69 0 0 0-.344-3.237c-.03-.108-.207-.374-.403-.59h0l-.344-.394zM9.167 20.641c-.059-.059-.639.866-.708 1.131-.03.128.079 1.318.256 2.656l.59 4.653.639 4.919.59 4.575 1.131 8.756.197 1.643c0 .207.098.226.334.049.157-.118.157-.197.02-1.348l-.295-2.656-1.043-9.346L9.6 24.222l-.433-3.581zm55.016-8.116l.059 1.417c.03.777.079 7.191.118 14.255l.216 12.956c.089.069.236.128.344.128.177 0 .177-.354.148-13.999l-.167-14.176c-.079-.089-.266-.256-.433-.374h0l-.285-.207zM14.43 36.224c-.03-.02-.207.059-.374.177-.374.236-.374.305-.187 1.879h0l.118.984.315-.669c.285-.63.305-.708.246-1.505-.03-.453-.089-.846-.118-.866zm-8.185-9.897c-.029 0-.157.295-.275.659h0l-.226.669.699 4.821.817 5.608c.059.433.138.826.177.866s.157 0 .275-.098h0l.207-.177-.187-1.377-.531-4.034-.61-4.801c-.157-1.171-.305-2.135-.344-2.135zm62.68 2.755c-.059 0-.098 1.751-.098 4.86v.417c.001 3.956.024 4.455.157 4.502.216.079.728.069.738-.02.049-.256.108-6.395.089-9.08 0-.334-.039-.374-.394-.521-.216-.089-.443-.157-.492-.157zm-8.786-2.066h-.315l.03 5.086c.038 5.42.03 5.444.577 5.441h.328V32.29c0-4.383-.021-4.981-.157-5.117-.079-.089-.295-.157-.462-.157h0zM28.41 34.591c.905-.551 2.145.177 2.145 1.259 0 1.122-1.21 1.859-2.145 1.299a1.51 1.51 0 0 1 0-2.558zm-6.67-.944c1.2-.521 2.322.777 1.633 1.899-.364.61-1.072.777-1.771.423-.964-.492-.885-1.879.138-2.322zm-5.145-14.245c-.069-.177-.108-.167-.453.157h0l-.384.354.275 2.833.649 6.532.443 4.466h0l.069.777.374-.384.384-.384-.334-3.64-.649-7.083-.374-3.63zm38.851-4.486v16.734l.354.148c.197.079.374.128.394.108.049-.039.039-13.37-.01-15.544-.01-.639-.059-1.2-.108-1.24-.049-.049-.207-.108-.354-.148h0l-.275-.059zM37.344 3.503l-.266.01c-.157.01-.403.039-.551.059h0l-.275.039.059 2.184.817 19.076c.039.797.108 1.476.138 1.515.039.03.266.089.512.108h0l.443.049-.049-.718c-.049-.718-.374-8.775-.482-11.845l-.157-3.689-.187-6.021h0v-.767zm-24.92 12.73c-.098-.108-.856.885-.856 1.122 0 .394.984 9.1 1.033 9.149.079.079.836-.295.836-.413 0-.059-.138-1.436-.305-3.06l-.482-4.85c-.098-1.053-.197-1.928-.226-1.948zm11.58-8.903c-.069-.128-.246-.098-.561.069-.256.138-.266.177-.216.61.029.256.226 2.607.443 5.234l1.043 11.924c.03.315.089.571.118.571.039 0 .216-.089.394-.197.315-.197.325-.216.275-.718-.03-.275-.216-2.479-.403-4.889L24.003 7.33zm26.721 11.717h-.226l.059 2.184.069 3.05h0v.846l.305.108c.531.187.64.039.62-.846l-.03-2.882h0l-.01-2.125-.285-.167c-.157-.089-.384-.167-.502-.167h0zM28.755 15.22c-.236.02-.748.197-.797.266-.049.079.295 4.919.394 5.499.039.295.079.325.374.325.561 0 .58-.108.462-1.84l-.157-2.44a33.83 33.83 0 0 0-.108-1.358c-.03-.256-.108-.462-.167-.453zm12.426-2.991v.728c0 .708.295 7.998.325 8.018a4.38 4.38 0 0 0 .492.069h0l.462.069-.01-1.456c-.01-2.42-.148-7.191-.207-7.251-.029-.029-.275-.079-.561-.118h0l-.502-.059zm-8.264-2.562c-.002-.36-.025-.359-.315-.35a2.09 2.09 0 0 0-.61.108c-.266.098-.275.118-.216.61.028.26.117 1.424.193 2.647l.013.216.246 3.788.128 1.918c.02.492.02.492.344.482.659-.039.64.02.571-1.692l-.207-4.348-.148-3.276zm13.311-5.751c-.413-.069-.521-.059-.561.049-.059.148.01 6.06.089 7.801l.108 3.906h0l.069 2.863.453.039c.246.03.492.03.531 0 .049-.02.059-.334.03-.698-.03-.354-.079-3.611-.118-7.241l-.069-6.601c-.01-.01-.246-.059-.531-.118zm13.98 7.201c-.403-.167-.403-.167-.443-.02-.02.069-.03 1.594-.01 3.394h0l.03 3.266.413.197.413.207.03-2.145c.02-1.171 0-2.725-.03-3.443h0l-.069-1.318zm-9.12-1.81c-.673-.227-.661-.409-.659 2.437v.443c.001 1.54.03 2.878.059 2.994.049.187.639.521.925.521.108 0 .138-4.703.039-5.686-.059-.561-.089-.61-.364-.708z" stroke="none" fill="#222" fill-rule="nonzero"/></symbol></svg>