<svg xmlns="http://www.w3.org/2000/svg" xmlns:xlink="http://www.w3.org/1999/xlink" viewBox="0 0 191.25 85" fill="#fff" fill-rule="evenodd" stroke="#000" stroke-linecap="round" stroke-linejoin="round"><use xlink:href="#A" x="5.625" y="2.5"/><symbol id="A" overflow="visible"><g fill="#000" stroke="none"><path d="M132.921 11.78c-12.843 0-23.259 10.353-23.259 23.116s10.416 23.116 23.259 23.116S156.18 47.66 156.18 34.896 145.764 11.78 132.921 11.78zm0 5.826c9.605 0 17.397 7.745 17.397 17.29s-7.792 17.29-17.397 17.29-17.397-7.745-17.397-17.29 7.792-17.29 17.397-17.29zM73.166 11.78c-12.843 0-23.259 10.353-23.259 23.116s10.416 23.116 23.259 23.116S96.425 47.66 96.425 34.896 86.009 11.78 73.166 11.78zm0 5.826c9.605 0 17.397 7.745 17.397 17.29s-7.792 17.29-17.397 17.29-17.397-7.745-17.397-17.29 7.792-17.29 17.398-17.29zM39.345 0v18.221c-4.179-3.982-9.842-6.44-16.086-6.44C10.416 11.781 0 22.134 0 34.897s10.416 23.116 23.259 23.116c6.244 0 11.908-2.458 16.086-6.44v5.007h7.547V.001h-7.547zM23.259 17.607a17.4 17.4 0 0 1 16.086 10.702v13.177a17.4 17.4 0 0 1-16.086 10.702c-9.605 0-17.397-7.745-17.397-17.29s7.792-17.29 17.398-17.29zM63.338 2.973h19.396a1.51 1.51 0 0 1 0 2.393H63.338c-.785-.606-.785-1.796 0-2.393zm59.924 0h19.396a1.51 1.51 0 0 1 0 2.393h-19.396c-.785-.606-.785-1.796 0-2.393zM99.141 1.182h5.955v8.915h-5.955zm0 11.929h5.955v43.278c0 4.579-6.379 12.296-8.446 14.604l-3.933-4.988c1.729-1.352 6.424-5.674 6.424-10.757zm53.893 53.187h2.399v13.701h-2.399zm15.75 4.633h2.505v9.068h-2.505zm2.677-2.872a1.38 1.38 0 0 1-1.386 1.377c-.766 0-1.386-.617-1.386-1.377s.62-1.377 1.386-1.377 1.386.617 1.386 1.377zm-12.433-1.779v13.698h2.397v-3.462l.599-.614 2.903 4.094h2.547l-3.97-5.584 3.371-3.425h-2.472l-2.978 3.35V66.28h-2.397zm-37.17 2.227v2.289h-1.742V72.1h1.742v6.44c0 .558.096 1.46 2.972 1.46h1.242v-1.419l-.729.004c-1.108.007-1.668-.772-1.668-1.153V72.1h2.378v-1.303h-2.378v-2.289zm53.929 0v2.289h-1.742V72.1h1.742v6.44c0 .558.096 1.46 2.972 1.46H180v-1.419l-.729.004c-1.108.007-1.668-.772-1.668-1.153V72.1h2.378v-1.303h-2.378v-2.289z"/><use xlink:href="#C"/><use xlink:href="#C" x="11.988"/></g></symbol><defs ><path id="C" d="M133.276 69.857c-2.665 0-4.832 2.282-4.832 5.081s2.166 5.063 4.832 5.063 4.832-2.263 4.832-5.062-2.166-5.081-4.832-5.081zm0 1.749c1.365 0 2.472 1.492 2.472 3.332s-1.107 3.332-2.472 3.332-2.472-1.492-2.472-3.332 1.107-3.332 2.472-3.332z"/></defs></svg>