<svg xmlns="http://www.w3.org/2000/svg" xmlns:xlink="http://www.w3.org/1999/xlink" viewBox="0 0 85 85" fill="#fff" fill-rule="evenodd" stroke="#000" stroke-linecap="round" stroke-linejoin="round"><use xlink:href="#A" x="2.5" y="2.5"/><symbol id="A" overflow="visible"><path d="M53.458 10.063H26.479l1.681-8.974C28.279.457 28.829 0 29.47 0h20.988a1.33 1.33 0 0 1 1.309 1.086l1.692 8.977zm10.569 55.909h-13.5l2.595 12.956c.125.623.671 1.072 1.306 1.072h10.62c.835 0 1.463-.76 1.309-1.581l-2.33-12.447zM13.677 78.421c-.154.821.475 1.579 1.309 1.579h10.622c.635 0 1.181-.449 1.306-1.072l2.587-12.956h-13.5l-2.324 12.449zM80 17.373v41.25a4 4 0 0 1-3.995 4H3.996a4 4 0 0 1-3.996-4v-41.25a4 4 0 0 1 3.996-4h72.008a4 4 0 0 1 3.996 4zM40.593 40.281a11.14 11.14 0 0 0-11.139-11.139 11.14 11.14 0 0 0-11.139 11.139A11.14 11.14 0 0 0 29.454 51.42a11.14 11.14 0 0 0 11.139-11.139zm22.424 11.078L46.313 22.426l-5.293 9.167c1.823 2.421 2.906 5.431 2.906 8.688 0 4.442-2.013 8.421-5.174 11.078h24.265z" stroke="none" fill="#405261"/></symbol></svg>