<svg xmlns="http://www.w3.org/2000/svg" xmlns:xlink="http://www.w3.org/1999/xlink" viewBox="0 0 85 85" fill="#fff" fill-rule="evenodd" stroke="#000" stroke-linecap="round" stroke-linejoin="round"><use xlink:href="#A" x="2.5" y="2.5"/><symbol id="A" overflow="visible"><path d="M57.476 32.818c.186-4.413-1.076-7.959-2.781-10.8s-4.798-5.64-8.204-5.324c-2.037.188-2.914.97-3.376 2.083s-.572 3.624-.572 4.69v26.56c4.938-.672 9.502-3.588 12.366-8.2 1.6-2.573 2.44-5.997 2.568-9.01zM40.002 0C17.908 0 0 17.98 0 40.157c0 20.601 15.398 37.519 35.298 39.83.986.051 1.556-.045 2.022-.45.377-.328.546-.874.546-1.344l.021-23.932C27.115 53.119 18.499 44.066 18.633 32.95c.126-10.62 7.299-19.126 16.793-21.129.253-.053.423-.101.556.034.148.149.062.512.062.512l-.717 3.556s-.049.22-.114.289a.52.52 0 0 1-.247.13c-4.124 1.316-7.855 4.154-9.655 7.599-1.501 2.873-2.477 5.016-2.477 8.926 0 8.417 6.491 16.126 15.054 17.174V23.468c0-2.774.14-6.018 1.745-8.234 1.25-1.726 3.428-2.791 6.863-2.791 4.94 0 10.857 3.696 13.845 11.684.901 2.415 1.437 5.474 1.428 8.776-.026 11.084-8.501 20.152-19.224 21.343l-.021 23.949c0 .633.196 1.104.556 1.386.432.341.798.483 2.009.377a26.92 26.92 0 0 0 1.673-.216C65.634 76.52 80 60.021 80 40.157 80 17.978 62.093 0 40.002 0z" fill="#404040" stroke="none"/></symbol></svg>