<svg xmlns="http://www.w3.org/2000/svg" xmlns:xlink="http://www.w3.org/1999/xlink" viewBox="0 0 85 85" fill="#fff" fill-rule="evenodd" stroke="#000" stroke-linecap="round" stroke-linejoin="round"><use xlink:href="#A" x="2.5" y="2.5"/><symbol id="A" overflow="visible"><g stroke="none"><path d="M40 10L10 40 40 70 69.999 40 40 10" fill="#f68712"/><path d="M0 0l40 10-30 30L0 0" fill="#fab20b"/><path d="M80 0L69.999 40 40 10 80 0" fill="#f47216"/><path d="M80 80L40 70 69.999 40 80 80" fill="#f25c19"/><path d="M0 80l10-40L40 70 0 80" fill="#f89c0e"/><g fill="#fbc707"><path d="M40 10L0 0h19.999L40 10"/><path d="M40 10L80 0H59.999L40 10"/></g><path d="M40 70l40 10H59.999L40 70" fill="#f68712"/><path d="M40 70L0 80h19.999L40 70" fill="#f25c19"/><g fill="#fff200"><path d="M10 40L0 80V60l10-20"/><path d="M10 40L0 0v20L10 40"/></g><g fill="#f1471d"><path d="M69.999 40L80 0v20L69.999 40"/><path d="M69.999 40L80 80V60L69.999 40"/></g></g></symbol></svg>