<svg xmlns="http://www.w3.org/2000/svg" xmlns:xlink="http://www.w3.org/1999/xlink" viewBox="0 0 85 85" fill="#fff" fill-rule="evenodd" stroke="#000" stroke-linecap="round" stroke-linejoin="round"><use xlink:href="#A" x="2.5" y="2.5"/><symbol id="A" overflow="visible"><g fill="#317eac" stroke="none"><path d="M10 0h10v80H10z"/><path d="M0 60h80v10H0zm25-10h50v5H25z"/><path d="M25 5h5v50h-5zm10 0h5v40h-5z"/><path d="M35 40h40v5H35zm10-10h30v5H45z"/><path d="M45 5h5v30h-5zm10 0h5v20h-5z"/><path d="M55 20h20v5H55zM65 5h5v10h-5z"/><path d="M65 10h10v5H65z"/><path d="M65 11.25L68.75 15l-52.5 52.5-3.75-3.75z"/></g></symbol></svg>