<svg xmlns="http://www.w3.org/2000/svg" xmlns:xlink="http://www.w3.org/1999/xlink" viewBox="0 0 85 85" fill="#fff" fill-rule="evenodd" stroke="#000" stroke-linecap="round" stroke-linejoin="round"><use xlink:href="#A" x="2.5" y="2.5"/><symbol id="A" overflow="visible"><path d="M75.637 21.842c9.112 17.885 3.558 39.754-12.984 51.123s-38.948 8.717-52.379-6.2-13.726-37.478-.691-52.741S44.948-4.478 61.782 6.455" fill="none" stroke="gray" stroke-dasharray="7 5" stroke-linecap="butt" stroke-width="3"/><g stroke="none"><circle cx="39.998" cy="40" fill="navy" r="30.937"/><circle cx="52.812" cy="27.186" r="9.061"/><circle cx="70.934" cy="9.063" fill="navy" r="9.061"/><path d="M31.617 55.469v-2.283H21.593V35.171h-2.589v20.298h12.613m13.916 0v-14.59h-2.311v8.047c0 2.979-1.559 4.928-3.982 4.928-1.838 0-3.007-1.114-3.007-2.868V40.879h-2.311v11.026c0 2.422 1.81 3.982 4.65 3.982 2.144 0 3.508-.752 4.873-2.673v2.255h2.088m16.975-.056v-1.754c-.251.056-.362.056-.501.056-.807 0-1.253-.418-1.253-1.142v-8.13c0-2.59-1.893-3.982-5.485-3.982-3.536 0-5.708 1.364-5.847 4.733h2.339c.195-1.782 1.253-2.589 3.425-2.589 2.088 0 3.258.78 3.258 2.172v.613c0 .975-.585 1.392-2.422 1.615-3.285.418-3.787.529-4.678.891-1.698.696-2.562 2.005-2.562 3.787 0 2.645 1.838 4.204 4.789 4.204a6.83 6.83 0 0 0 4.956-2.144 2.47 2.47 0 0 0 2.394 1.921c.473 0 .835-.056 1.587-.251m-4.065-4.984c0 2.088-2.116 3.425-4.371 3.425-1.81 0-2.868-.64-2.868-2.227 0-1.531 1.03-2.2 3.508-2.562 2.45-.334 2.951-.446 3.731-.807v2.172"/></g></symbol></svg>