<svg xmlns="http://www.w3.org/2000/svg" xmlns:xlink="http://www.w3.org/1999/xlink" viewBox="0 0 106.25 85" fill="#fff" fill-rule="evenodd" stroke="#000" stroke-linecap="round" stroke-linejoin="round"><use xlink:href="#A" x="3.125" y="2.5"/><symbol id="A" overflow="visible"><g stroke="none"><path d="M69.436.278c-1.523-.719-2.768.006-2.768 1.616v64.014l27.793 13.136c3.058 1.469 5.539.447 5.539-2.236V15.17c0-.255-.161-.479-.4-.607L69.439.319V.287l-.003-.01h0z" fill="#32fc8d"/><path d="M33.332 50.215l31.71-48.694C65.939.148 67.913-.395 69.429.307l30.206 14.276c.194.096.264.319.152.479L66.664 65.973 33.332 50.222v-.006h0z" fill="#0be370"/><path d="M4.613 1.205C2.078.007 1.216.898 2.703 3.185l30.629 47.03 33.332 15.751L33.407 14.89a.5.5 0 0 0-.194-.172L4.613 1.208v-.003h0z" fill="#14c767"/><path d="M33.332 76.841c0 2.683-2.074 3.896-4.613 2.695L2.768 67.272C1.245 66.557 0 64.653 0 63.041V2.929C0 .783 1.661-.188 3.694.773l29.461 13.924c.11.048.177.153.177.268v61.862.013h0z" fill="#00ab6c"/></g></symbol></svg>