<svg xmlns="http://www.w3.org/2000/svg" xmlns:xlink="http://www.w3.org/1999/xlink" viewBox="0 0 193.906 85" fill="#fff" fill-rule="evenodd" stroke="#000" stroke-linecap="round" stroke-linejoin="round"><use xlink:href="#A" x="5.703" y="2.5"/><symbol id="A" overflow="visible"><path d="M70.994 1.179H58.408L32.646 45.307 22.518 1.179H10.423L0 60.147h10.03l6.391-36.069.885-5.896.885 5.897 8.161 36.069h7.571l20.944-36.069c.786-1.376 2.557-5.11 2.852-5.7-.197.688-.984 4.619-1.18 5.7l-6.392 36.069h10.423L70.994 1.179zm41.102 25.455h-10.718l-2.655 14.644c-1.475 8.255-5.899 11.4-9.341 11.4-2.753 0-3.933-1.671-3.933-4.324 0-5.504 3.54-10.909 3.54-15.823 0-4.619-3.343-6.782-7.178-6.782-2.95 0-6.195.885-8.063 2.064v4.128c.688-.196 1.573-.491 2.556-.491 1.082 0 1.868.688 1.868 2.064 0 4.03-3.737 11.99-3.737 17.592 0 5.799 3.638 10.025 10.03 10.025 4.326 0 9.144-2.752 11.996-6.88l-1.279 7.273c-1.376 7.961-5.211 10.614-10.324 10.614-4.425 0-7.375-.983-11.603-3.735l-.787 7.961C76.009 78.428 80.729 80 85.154 80c9.931 0 18.191-4.128 20.846-19.165l6.096-34.201zm29.204 0h-7.669l1.967-11.401-10.915 1.18-1.77 10.221h-4.818l-1.18 6.683h4.818l-2.655 14.938c-1.475 8.354 2.655 12.58 9.538 12.58 4.228 0 7.375-1.277 9.341-2.752l-.787-5.209c-1.18.786-2.458 1.277-4.13 1.277-2.95 0-3.736-2.359-3.048-6.585l2.458-14.25h7.67l1.18-6.683zm41.2 32.236v-4.324c-.59.197-1.475.59-2.458.59-1.082 0-1.967-.786-1.967-2.064 0-4.029 3.245-11.99 3.245-17.592 0-5.799-3.638-9.926-10.029-9.926-4.326 0-9.145 2.654-11.996 6.88L164.899 0l-10.914 1.179-10.423 58.968h10.718l2.655-14.742c1.475-8.255 5.998-11.4 9.341-11.4 2.753 0 4.031 1.67 4.031 4.324 0 5.504-3.048 10.909-3.048 15.823 0 4.619 3.441 6.683 7.375 6.683 3.441 0 6.096-.983 7.866-1.965z" fill="#847ad1" stroke="none"/></symbol></svg>