<svg xmlns="http://www.w3.org/2000/svg" viewBox="0 0 64 64" fill="#fff" fill-rule="evenodd" stroke="#000" stroke-linecap="round" stroke-linejoin="round"><path d="M1.5 7.6c0-3.379 2.721-6.1 6.1-6.1h48.8c3.379 0 6.1 2.721 6.1 6.1v48.8c0 3.379-2.721 6.1-6.1 6.1H7.6c-3.379 0-6.1-2.721-6.1-6.1z" stroke="#8e0004" fill="#8e0004"/><path d="M1.5 36.575h6.1c1.525 0 3.05-1.144 3.05-3.05v-3.05c0-1.906-1.525-3.05-3.05-3.05H1.5v-3.05h8.388c2.112 0 3.813 1.7 3.813 3.812v3.387c7.446-1.038 4.827-10.804 16.013-11.746v-4.603c0-2.112 1.7-3.812 3.813-3.812H56.4c2.112 0 3.813 1.7 3.813 3.813v7.625c0 2.112-1.7 3.813-3.812 3.813H33.525c-2.112 0-3.812-1.7-3.812-3.812v-.394c-6.877-.098-7.302 7.297-10.484 9.544 16.836 2.27 14.712 12.8 31.072 12.588v-1.151c0-2.112 1.7-3.812 3.813-3.812H62.5v3.05h-6.1c-1.525 0-3.05 1.144-3.05 3.05v3.05c0 1.906 1.525 3.05 3.05 3.05h6.1v3.05h-8.388c-2.112 0-3.812-1.7-3.812-3.812v-3.827c-21.52-.88-13.945-12.44-36.6-12.941v1.518c0 2.112-1.7 3.813-3.812 3.813H1.5zm31.263-16.012c0 1.906 1.525 3.05 3.05 3.05h18.3c1.525 0 3.05-1.144 3.05-3.05v-3.05c0-1.906-1.525-3.05-3.05-3.05h-18.3c-1.525 0-3.05 1.144-3.05 3.05z" stroke="#fff"/></svg>