<svg xmlns="http://www.w3.org/2000/svg" xmlns:xlink="http://www.w3.org/1999/xlink" viewBox="0 0 116.875 85" fill="#fff" fill-rule="evenodd" stroke="#000" stroke-linecap="round" stroke-linejoin="round"><style><![CDATA[.B{fill-opacity:.2}.C{fill-opacity:.1}]]></style><use xlink:href="#A" x="3.438" y="2.5"/><symbol id="A" overflow="visible"><g stroke="none"><path d="M65.999 0L22.001 80h22.001L88 0H65.999h0z" fill="#ff4081"/><path d="M65.999 0l10.999 20L88 0H65.999h0z" class="B"/><path d="M55 20L65.999 0l10.999 20H55h0 0z" class="C"/><g fill="#000"><path d="M44.001 40L55 20l10.999 20H44.001h0 0z" class="C"/><path d="M44.001 40L55 60l10.999-20H44.001h0 0z" class="B"/><path d="M33.002 60l10.999-20L55 60H33.002h0 0z" fill-opacity=".3"/><path d="M33.002 60l10.999 20L55 60H33.002h0 0z" fill-opacity=".4"/><path d="M22.001 80l11.002-20 10.999 20H22.001h0z" fill-opacity=".5"/></g><path d="M22.001 0L0 40l11.002 20L44.001 0H22h0 0z" fill="#536dfe"/><path d="M22.001 0l11.002 20L44.002 0H22.001h0z" class="B"/><path d="M11.002 20L22.001 0l11.002 20H11.002h0z" class="C"/><g fill="#000"><path d="M0 40l11.002-20 10.999 20H0h0z" class="C"/><path d="M0 40l11.002 20 10.999-20H0h0z" class="B"/></g><path d="M22.001 40L11.002 60l10.999 20 11.002-20-11.002-20h0z" fill="#303f9f"/><path d="M33.003 60L22.001 80 11.002 60h22.001 0z" fill="#000" class="B"/><path d="M87.999 0L76.997 20l11.002 20 10.999-20L87.999 0h0z" fill="#3f51b5"/><path d="M98.998 20L87.999 0 76.997 20h22.001 0z" fill="#000" class="B"/><path d="M98.998 20L65.999 80H88L110 40 98.999 20h0 0z" fill="#7986cb"/><path d="M87.999 40l10.999-20L110 40H87.999h0z" class="B"/><path d="M87.999 40l10.999 20L110 40H87.999h0z" class="C"/><g fill="#000"><path d="M76.997 60l11.002 20 10.999-20H76.997h0z" class="C"/><path d="M65.999 80l10.999-20L88 80H65.999h0z" class="B"/></g></g></symbol></svg>