<svg xmlns="http://www.w3.org/2000/svg" xmlns:xlink="http://www.w3.org/1999/xlink" viewBox="0 0 175.313 85" fill="#fff" fill-rule="evenodd" stroke="#000" stroke-linecap="round" stroke-linejoin="round"><use xlink:href="#A" x="5.156" y="2.5"/><symbol id="A" overflow="visible"><g stroke="none"><rect fill="#ed1846" height="80" rx="8.947" width="165"/><path d="M30.348 25.816h14.334c5.197 0 8.508 1.306 10.562 3.37 1.76 1.77 2.682 3.96 2.682 6.994v.084c0 4.297-2.222 7.288-5.784 9.016l6.831 10.026h-11.19l-5.532-8.425h-2.095v8.425h-9.807zm14.04 14.029c2.347 0 3.772-1.053 3.772-2.864v-.084c0-1.896-1.467-2.823-3.73-2.823h-4.275v5.772zm19.778-14.029h9.807v29.49h-9.806zm15.503 14.829v-.084c0-8.552 7-15.377 16.052-15.377s15.968 6.741 15.968 15.293v.084c0 8.552-6.999 15.377-16.052 15.377s-15.968-6.741-15.968-15.292zm22.13 0v-.084c0-3.496-2.389-6.656-6.161-6.656-3.73 0-6.077 3.118-6.077 6.572v.084c0 3.496 2.389 6.656 6.161 6.656 3.73 0 6.078-3.117 6.078-6.571zm21.326-6.487h-8.634v-8.342h27.074v8.342h-8.634v21.148h-9.806z"/></g></symbol></svg>