<svg xmlns="http://www.w3.org/2000/svg" fill="none" viewBox="0 0 260 153"><path fill="#C8C8C8" d="m185.585 113.962-.012 4.333c-.014 4.865-3.226 9.724-9.643 13.436-12.909 7.469-33.92 7.469-46.921-.004-6.543-3.761-9.81-8.697-9.796-13.626l.012-4.333c-.014 4.929 3.254 9.866 9.797 13.627 13 7.472 34.011 7.472 46.921.003 6.416-3.712 9.628-8.57 9.642-13.436Z"/><path fill="#fff" d="M175.788 101.339c13.003 7.516 13.072 19.702.153 27.218-12.912 7.512-33.926 7.512-46.93-.004-13.003-7.516-13.071-19.702-.159-27.214 12.918-7.516 33.933-7.516 46.936 0Z"/><path fill="url(#a)" d="m119.819 71.916 38.637 10.353-4.601 17.17-38.637-10.352 4.601-17.17Z"/><path fill="url(#b)" d="M157.243 88.058a2.244 2.244 0 0 1-1.091-.335L121.628 67.79a5.766 5.766 0 0 1-2.526-4.568V23.549c.002-.997.432-1.593 1.15-1.593.378.017.746.133 1.067.334l34.525 19.933a5.82 5.82 0 0 1 2.638 4.568v39.674c-.003.997-.466 1.593-1.239 1.593Z"/><path fill="#8C8C8C" d="M120.252 22.395c.302.017.594.112.847.276l34.525 19.933a5.423 5.423 0 0 1 2.418 4.19v39.668c-.001.432-.106 1.156-.8 1.156a1.809 1.809 0 0 1-.871-.275L121.847 67.41a5.29 5.29 0 0 1-2.306-4.19V23.552c.002-.431.096-1.155.711-1.156Zm0-.879c-.939 0-1.586.744-1.59 2.033v39.672a6.173 6.173 0 0 0 2.746 4.95l34.525 19.933c.394.244.846.38 1.31.394.972 0 1.676-.744 1.679-2.033V46.793a6.293 6.293 0 0 0-2.858-4.95l-34.525-19.934a2.613 2.613 0 0 0-1.287-.393Z"/><path fill="url(#c)" d="M159.826 42.981a5.837 5.837 0 0 0-2.024-2.135l-34.525-19.933a2.02 2.02 0 0 0-2.04-.2l-1.715.996a2.025 2.025 0 0 1 2.041.2l34.524 19.933a5.852 5.852 0 0 1 2.022 2.13c.484.861.734 1.834.724 2.82v39.673a2.003 2.003 0 0 1-.836 1.84l1.714-.997a2.06 2.06 0 0 0 .949-1.84V45.798a5.802 5.802 0 0 0-.834-2.816Z"/><g fill="#966DF2" opacity=".75"><path d="M138.902 57.343c4.164 2.331 8.328 6.829 11.326 12.658a11.096 11.096 0 0 1 1.333 4.664c0 1.999-1.499 2.832-3.331 1.832l-9.494-5.496-9.494-5.496a6.993 6.993 0 0 1-3.332-5.496 4.004 4.004 0 0 1 1.333-3.165c3.331-2.333 7.495-1.833 11.659.499Z"/><path d="M138.901 58.342c3.998 2.332 7.329.5 7.329-4.33 0-4.664-3.331-10.327-7.329-12.826-3.997-2.331-7.328-.5-7.328 4.33 0 4.831 3.164 10.494 7.328 12.826Z"/></g><path fill="url(#d)" d="M169.375 45.07c-1.959-6.044-7.468-13.14-13.53-14.41-2.989-.615-4.269.476-6.193 1.598a5.68 5.68 0 0 1 3.261-.704 12.433 12.433 0 0 1 6.769 2.986c7.617 6.063 10.549 16.828 8.29 22.193a6.272 6.272 0 0 1-2.566 3.037c1.956-1.14 3.174-1.617 4.208-3.753.345-.748.589-1.54.725-2.353.393-2.9.062-5.854-.964-8.595Z"/><path fill="url(#e)" d="M157.453 33.016c7.462 4.288 12.867 15.63 10.872 22.7-1.004 3.56-3.758 5.518-7.855 4.496-6.943-1.734-14.209-12.154-14.144-20.697.054-7.267 5.173-9.918 11.127-6.499Z"/><path fill="#E5FFE3" d="M162.567 43.754c.25.146.478.329.676.541.214.23.4.482.554.754.155.265.277.548.363.842.081.284.127.577.137.873.003.238-.042.475-.133.695a.902.902 0 0 1-.374.436l-6.915 3.968a.908.908 0 0 1-.565.105 1.795 1.795 0 0 1-.669-.227 3.055 3.055 0 0 1-.667-.538 3.766 3.766 0 0 1-.562-.768l-3.132-5.45a3.858 3.858 0 0 1-.372-.866 3.323 3.323 0 0 1-.136-.852 1.584 1.584 0 0 1 .141-.702 1.02 1.02 0 0 1 .375-.42.815.815 0 0 1 .547-.106c.241.039.474.119.687.238.247.147.471.328.668.537.217.23.406.484.561.759l1.905 3.31 5.68-3.26a.916.916 0 0 1 .565-.105c.236.032.462.112.666.236Z"/><path fill="url(#f)" d="m97.486 84.419 38.637 10.353-4.601 17.17-38.637-10.353 4.6-17.17Z"/><path fill="url(#g)" d="m135.474 53.327-34.676-20.02a2.026 2.026 0 0 0-2.048-.2l-2.115 1.229a2.03 2.03 0 0 1 2.049.2l34.675 20.02a6.217 6.217 0 0 1 2.757 4.971v39.844a2.013 2.013 0 0 1-.839 1.849l2.115-1.23a2.076 2.076 0 0 0 .951-1.848V58.298a6.329 6.329 0 0 0-2.869-4.971Z"/><path fill="url(#h)" stroke="url(#i)" d="M134.522 100.914a2.17 2.17 0 0 1-1.045-.33l-34.675-20.02a5.722 5.722 0 0 1-2.507-4.536V36.182c.003-.964.413-1.54 1.097-1.54.37.018.728.13 1.042.328l34.675 20.02a5.718 5.718 0 0 1 2.506 4.536v39.845c-.002.965-.41 1.543-1.093 1.543Z"/><path fill="url(#j)" d="m140.196 102.484 34.8 9.325-4.601 17.17-34.8-9.325 4.601-17.17Z"/><path fill="url(#k)" d="M170.931 121.332a2.243 2.243 0 0 1-1.09-.335l-34.525-19.933a5.77 5.77 0 0 1-2.526-4.568V56.823c.003-.997.433-1.593 1.15-1.593.379.017.747.132 1.068.334l34.524 19.933a5.823 5.823 0 0 1 2.639 4.568v39.673c-.003.998-.467 1.594-1.24 1.594Z"/><path fill="#8C8C8C" d="M133.941 55.67c.301.016.593.11.847.275l34.525 19.933a5.421 5.421 0 0 1 2.418 4.189v39.669c-.001.432-.107 1.156-.8 1.156a1.81 1.81 0 0 1-.871-.275l-34.524-19.933a5.276 5.276 0 0 1-2.306-4.19V56.826c.001-.431.095-1.156.711-1.156Zm0-.88c-.94 0-1.587.744-1.59 2.033v39.672a6.173 6.173 0 0 0 2.745 4.95l34.525 19.933c.395.244.847.38 1.31.394.973 0 1.676-.744 1.68-2.033V80.067a6.293 6.293 0 0 0-2.858-4.951l-34.525-19.933a2.617 2.617 0 0 0-1.287-.393Z"/><path fill="#EDBCB0" d="M166.575 77.565a5.031 5.031 0 0 1 2.235 4.03v32.292c-.004 1.482-1.052 2.079-2.341 1.335l-28.103-16.226a5.125 5.125 0 0 1-2.327-4.03V62.676c.004-1.482 1.144-2.08 2.433-1.335l28.103 16.225Z"/><path fill="url(#l)" d="M173.515 76.255a5.853 5.853 0 0 0-2.024-2.135l-34.525-19.933a2.024 2.024 0 0 0-2.041-.2l-1.714.996a2.023 2.023 0 0 1 2.04.2l34.525 19.933a5.852 5.852 0 0 1 2.022 2.13c.484.861.733 1.834.724 2.821v39.672a2.001 2.001 0 0 1-.836 1.839l1.714-.996a2.066 2.066 0 0 0 .949-1.839V79.071a5.802 5.802 0 0 0-.834-2.816Z"/><path fill="#AD1919" d="M152.591 90.617c4.164 2.332 8.327 6.829 11.326 12.659a11.123 11.123 0 0 1 1.333 4.663c0 1.999-1.499 2.832-3.332 1.832l-9.494-5.496-9.494-5.496a6.999 6.999 0 0 1-3.331-5.496 4.013 4.013 0 0 1 1.333-3.165c3.331-2.333 7.495-1.833 11.659.499Z"/><path fill="#AD1919" d="M152.59 91.616c3.998 2.332 7.329.5 7.329-4.33 0-4.664-3.331-10.327-7.329-12.826-3.997-2.331-7.329-.5-7.329 4.331 0 4.83 3.165 10.493 7.329 12.825Z"/><path fill="url(#m)" d="M157.131 115.542h26.973v12.804h-26.973z" transform="rotate(15 157.131 115.542)"/><path fill="url(#n)" d="m185.456 83.344-.001-.13c0-.099-.001-.2-.004-.3l-.001-.077-.005-.12a26.433 26.433 0 0 0-.013-.28c-.002-.035-.002-.068-.005-.102l-.007-.102c-.007-.093-.014-.187-.023-.28l-.01-.122-.009-.082c-.01-.095-.02-.191-.032-.286l-.015-.14-.009-.06-.044-.313-.02-.145-.006-.036a21.747 21.747 0 0 0-.085-.495l-.001-.007c-.031-.16-.062-.321-.098-.484l-.015-.068a46.765 46.765 0 0 0-.136-.589l-.022-.092-.02-.075a34.484 34.484 0 0 0-.145-.557l-.008-.029-.001-.006a23.046 23.046 0 0 0-.167-.574l-.018-.061-.034-.105c-.041-.136-.084-.27-.129-.405l-.032-.104-.024-.069a21.372 21.372 0 0 0-.151-.431l-.03-.088-.008-.02c-.058-.163-.119-.324-.18-.486a.767.767 0 0 1-.017-.042l-.053-.132a23.38 23.38 0 0 0-.134-.335c-.006-.014-.011-.03-.018-.044-.02-.05-.043-.1-.064-.15l-.121-.286-.027-.062-.062-.136a36.553 36.553 0 0 0-.13-.288l-.038-.084-.053-.11c-.051-.106-.101-.213-.153-.318-.018-.035-.034-.072-.052-.108-.011-.024-.024-.047-.036-.07-.084-.168-.17-.336-.258-.503l-.023-.044a.03.03 0 0 0-.006-.01c-.038-.072-.079-.143-.116-.216l-.126-.23-.121-.215-.124-.218c-.003-.008-.009-.016-.012-.022-.17-.292-.343-.579-.521-.86-.059-.096-.122-.187-.183-.282-.114-.177-.226-.355-.344-.528-.007-.012-.016-.023-.024-.035a30.655 30.655 0 0 0-.558-.792l-.05-.067-.026-.035a27.874 27.874 0 0 0-.491-.645l-.075-.096a19.426 19.426 0 0 0-.349-.43l-.063-.075a42.263 42.263 0 0 0-.344-.405l-.073-.08a17.677 17.677 0 0 0-.277-.308l-.076-.085-.043-.044a28.451 28.451 0 0 0-.405-.428l-.005-.005-.023-.022a26.768 26.768 0 0 0-.407-.405l-.056-.054-.064-.061a21.7 21.7 0 0 0-1.345-1.182l-.076-.062c-.02-.017-.041-.032-.061-.047-.115-.09-.232-.18-.348-.267l-.071-.054-.019-.014c-.144-.107-.289-.21-.434-.31l-.027-.019-.087-.057a19.048 19.048 0 0 0-.327-.217c-.023-.014-.045-.03-.067-.045l-.082-.05a27.53 27.53 0 0 0-.311-.19l-.093-.058c-.037-.023-.075-.044-.113-.066l-.005-.004-.003-.001-.103-.06a11.235 11.235 0 0 0-.338-.19c-.004-.003-.009-.004-.013-.006a12 12 0 0 0-.414-.216l-.09-.042a10.099 10.099 0 0 0-.288-.136l-.042-.02a21.78 21.78 0 0 0-.348-.15l-.065-.028-.087-.033c-.081-.032-.16-.062-.24-.091-.029-.01-.057-.023-.086-.033l-.064-.022a9.788 9.788 0 0 0-.256-.084l-.097-.031-.038-.01a9.007 9.007 0 0 0-.351-.098c-.013-.004-.025-.008-.038-.01l-.011-.003a10.256 10.256 0 0 0-.415-.094l-.11-.023c-.043-.009-.084-.015-.126-.023a9.855 9.855 0 0 0-.406-.065H170.234a11.914 11.914 0 0 0-.295-.035c-.032-.002-.065-.005-.096-.009l-.128-.011c-.028-.003-.054-.003-.082-.004l-.116-.006-.199-.007h-.107l-.041-.002c-.054 0-.107.002-.16.004-.033 0-.066 0-.099.002a7.44 7.44 0 0 0-.295.018c-.008.001-.017.001-.024.003-.047.003-.092.01-.139.016-.051.006-.103.01-.153.018-.049.006-.099.016-.148.024-.051.009-.1.015-.15.025-.004.002-.009.002-.013.003-.018.004-.033.009-.051.011-.092.02-.184.04-.275.065-.037.009-.072.02-.107.03a7.006 7.006 0 0 0-.227.07c-.021.008-.043.013-.064.02-.02.007-.039.016-.058.022a3.688 3.688 0 0 0-.257.101l-.093.041a5.066 5.066 0 0 0-.245.118 5.28 5.28 0 0 0-.239.131l-1.782 1.04c.078-.046.158-.09.239-.131.026-.014.052-.026.078-.038a5.07 5.07 0 0 1 .167-.08c.03-.014.062-.027.094-.04.053-.024.106-.045.16-.066l.097-.036c.041-.016.082-.028.123-.042.074-.026.15-.048.226-.07l.108-.03c.09-.025.183-.046.275-.065l.062-.014c.049-.01.101-.018.152-.026.049-.007.097-.017.146-.024.051-.007.102-.011.153-.017a5.626 5.626 0 0 1 .459-.035l.098-.004c.069 0 .137-.003.205-.002l.107.001a5.148 5.148 0 0 1 .315.013 6.103 6.103 0 0 1 .306.024c.097.01.196.02.296.034a9.633 9.633 0 0 1 .327.05l.095.016a8.867 8.867 0 0 1 .65.14l.048.013c.117.029.234.062.35.097l.136.042.255.084.152.053c.079.03.16.06.24.092l.153.06.246.106.144.063c.096.044.192.09.288.136l.105.051a12 12 0 0 1 .861.47c.069.04.137.082.205.123.104.062.208.125.311.19.05.032.1.062.149.095a18.954 18.954 0 0 1 .876.603l.091.069a17.593 17.593 0 0 1 .931.742c.138.118.276.238.414.36l.077.072a32.714 32.714 0 0 1 .529.498c.137.133.273.267.407.404l.027.027c.136.14.271.283.407.428l.117.13c.092.1.185.204.277.306l.124.141.293.346.081.095a25.32 25.32 0 0 1 .923 1.187c.017.021.032.044.048.067.175.239.345.48.513.726l.046.066c.125.185.246.374.369.565.061.094.122.184.182.279.178.283.351.57.52.862.046.077.089.156.133.233.042.074.085.148.125.221l.123.225.12.222a21.142 21.142 0 0 1 .374.735c.052.105.102.212.153.319l.091.192.13.289.088.198c.042.095.083.19.122.285l.081.193.135.337c.023.058.047.115.069.173.062.162.123.324.181.487l.038.107c.05.144.101.287.149.43l.057.175c.044.134.087.269.129.403l.052.168a23.148 23.148 0 0 1 .321 1.166l.04.167c.04.168.08.336.118.506l.034.151c.034.163.067.324.097.484l.015.087.072.417.027.18.044.313.024.2c.011.096.023.191.031.287l.019.203.023.279.013.202c.005.094.01.188.012.281.003.065.006.131.007.196.002.1.004.2.004.3l.001.237c0 .18-.005.355-.012.53l-.007.158a9.6 9.6 0 0 1-.034.504 12.668 12.668 0 0 1-.12.954l-.022.12c-.023.128-.048.252-.074.374l-.028.127a10.02 10.02 0 0 1-.111.436c-.024.085-.051.168-.076.252-.012.038-.023.077-.036.115-.03.094-.063.186-.096.277l-.015.046-.034.087a5.983 5.983 0 0 1-.148.36c-.027.066-.057.132-.086.194-.008.019-.019.038-.029.057a8.067 8.067 0 0 1-.148.29c-.018.036-.039.072-.059.107-.044.079-.09.156-.136.232l-.062.1c-.07.107-.139.213-.214.314a5.864 5.864 0 0 1-1.758 1.612c-.007.004-.013.01-.021.013l.001-.001h-.001l1.782-1.039.021-.012a5.836 5.836 0 0 0 1.971-1.927c.008-.013.017-.023.024-.036l.038-.064c.047-.077.093-.153.137-.231l.059-.107c.051-.095.1-.192.148-.29l.024-.046.005-.012c.03-.063.058-.13.087-.194.018-.04.036-.079.053-.12.033-.077.064-.157.094-.237.011-.029.024-.057.034-.087l.001-.003.015-.043c.033-.091.066-.184.096-.278.013-.038.024-.077.036-.116.019-.06.038-.119.055-.18l.021-.07c.04-.142.077-.288.111-.436l.013-.048c.006-.026.01-.054.015-.08.026-.122.051-.247.074-.372.005-.027.012-.052.015-.079l.007-.042c.026-.155.049-.312.069-.472l.001-.013.007-.063c.016-.133.03-.27.041-.406.002-.02.006-.041.007-.063l.006-.096c.009-.114.015-.23.022-.345.001-.033.005-.065.006-.1l.001-.059c.007-.174.012-.35.012-.53-.002-.036-.002-.073-.002-.108Z"/><path fill="url(#o)" d="M172.393 64.995a17.58 17.58 0 0 1 3.087 2.252c.954.86 1.845 1.81 2.672 2.855a28.302 28.302 0 0 1 2.271 3.341 25.118 25.118 0 0 1 2.864 7.383c.273 1.275.403 2.497.388 3.666-.004 1.187-.139 2.256-.407 3.205-.268.948-.647 1.76-1.138 2.431a5.877 5.877 0 0 1-1.758 1.612 5.283 5.283 0 0 1-2.266.71c-.829.07-1.727-.014-2.694-.256-.93-.232-1.885-.633-2.866-1.2a17.7 17.7 0 0 1-3.087-2.252 23.346 23.346 0 0 1-2.67-2.855 28.288 28.288 0 0 1-2.271-3.34 25.037 25.037 0 0 1-2.866-7.386 16.61 16.61 0 0 1-.388-3.666c.004-1.188.141-2.257.407-3.205.269-.949.649-1.76 1.139-2.431a5.808 5.808 0 0 1 1.758-1.612 5.279 5.279 0 0 1 2.265-.71c.829-.072 1.728.013 2.694.254.932.235 1.887.636 2.866 1.204Z"/><path fill="#FAF9F8" d="m174.423 77.98 3.801-2.956c.739-.528.845-1.584.317-2.217-.633-.634-1.689-.74-2.323-.212l-3.273 2.535-3.062-5.913c-.423-.74-1.373-1.056-2.112-.634-.739.422-1.056 1.373-.739 2.112l3.273 6.44-3.59 2.852c-.739.528-.845 1.584-.317 2.217.317.423.739.634 1.267.634.317 0 .739-.106.951-.317l3.167-2.534 3.696 7.075c.317.527.845.844 1.373.844.211 0 .528-.105.739-.211.739-.422 1.056-1.373.739-2.112l-3.907-7.602Z"/><path fill="url(#p)" d="m75.153 96.921 38.637 10.353-4.601 17.17-38.637-10.352 4.6-17.17Z"/><path fill="url(#q)" d="M112.559 113.172a2.228 2.228 0 0 1-1.09-.334L76.944 92.905a5.766 5.766 0 0 1-2.526-4.569V48.665c.003-.998.433-1.593 1.15-1.593.379.017.746.132 1.067.334l34.525 19.933a5.815 5.815 0 0 1 2.638 4.568v39.673c-.002.997-.466 1.593-1.239 1.593Z"/><path fill="#8C8C8C" d="M75.569 47.51c.301.017.593.111.847.276l34.524 19.933a5.423 5.423 0 0 1 2.419 4.189v39.669c-.002.432-.107 1.156-.801 1.156a1.807 1.807 0 0 1-.87-.276L77.164 92.524a5.281 5.281 0 0 1-2.306-4.189V48.666c.001-.431.095-1.156.71-1.156Zm0-.88c-.94 0-1.587.745-1.59 2.034v39.671a6.185 6.185 0 0 0 2.745 4.951l34.525 19.933c.395.244.847.379 1.31.394.973 0 1.676-.744 1.68-2.033V71.908a6.293 6.293 0 0 0-2.858-4.951L76.855 47.024a2.613 2.613 0 0 0-1.287-.393Z"/><path fill="url(#r)" d="M115.143 68.096a5.849 5.849 0 0 0-2.025-2.135L78.594 46.028a2.022 2.022 0 0 0-2.041-.2l-1.714.996a2.024 2.024 0 0 1 2.04.2l34.525 19.933a5.84 5.84 0 0 1 2.021 2.13 5.65 5.65 0 0 1 .725 2.82v39.672a2.013 2.013 0 0 1-.837 1.84l1.714-.996a2.071 2.071 0 0 0 .949-1.84V70.912a5.812 5.812 0 0 0-.833-2.816Z"/><path fill="#966DF2" d="M94.218 82.457c4.164 2.332 8.328 6.83 11.327 12.659a11.11 11.11 0 0 1 1.332 4.664c0 1.998-1.499 2.831-3.331 1.832l-9.494-5.496-9.494-5.496a6.995 6.995 0 0 1-3.331-5.497 4.009 4.009 0 0 1 1.332-3.164c3.331-2.333 7.495-1.834 11.66.498Z"/><path fill="#966DF2" d="M94.218 83.457c3.997 2.332 7.329.5 7.329-4.33 0-4.664-3.332-10.328-7.33-12.826-3.996-2.332-7.328-.5-7.328 4.33 0 4.831 3.165 10.494 7.329 12.826Z"/><path fill="url(#s)" d="M125.375 67.069c-1.959-6.044-7.468-13.14-13.53-14.41-2.989-.614-4.269.477-6.193 1.599a5.68 5.68 0 0 1 3.261-.705 12.433 12.433 0 0 1 6.769 2.986c7.617 6.064 10.549 16.83 8.29 22.194a6.273 6.273 0 0 1-2.566 3.037c1.956-1.141 3.174-1.618 4.208-3.753.345-.749.589-1.54.725-2.354.393-2.9.062-5.853-.964-8.594Z"/><path fill="url(#t)" d="M113.453 55.016c7.462 4.287 12.867 15.629 10.872 22.7-1.004 3.56-3.758 5.518-7.855 4.496-6.943-1.734-14.209-12.154-14.144-20.697.054-7.267 5.173-9.918 11.127-6.499Z"/><path fill="#E5FFE3" d="M118.567 65.753c.25.147.478.33.676.542.214.229.4.482.554.754.155.265.277.547.363.842.081.284.127.577.137.873.003.238-.042.475-.133.695a.902.902 0 0 1-.374.435l-6.915 3.969a.908.908 0 0 1-.565.105 1.797 1.797 0 0 1-.669-.227 3.037 3.037 0 0 1-.667-.539 3.764 3.764 0 0 1-.562-.768l-3.132-5.449a3.856 3.856 0 0 1-.372-.867 3.28 3.28 0 0 1-.136-.852 1.585 1.585 0 0 1 .141-.701c.083-.173.213-.319.375-.42a.815.815 0 0 1 .547-.106c.241.038.474.119.687.238.247.147.471.328.668.537.217.23.405.484.561.759l1.905 3.31 5.68-3.26a.916.916 0 0 1 .565-.105c.236.032.462.112.666.235Z"/><defs><linearGradient id="b" x1="120.381" x2="173.523" y1="24.98" y2="82.567" gradientUnits="userSpaceOnUse"><stop offset=".43" stop-color="#fff"/><stop offset="1" stop-color="#D5D5D5"/></linearGradient><linearGradient id="c" x1="140.091" x2="140.091" y1="88.304" y2="20.52" gradientUnits="userSpaceOnUse"><stop offset=".004" stop-color="#393939"/><stop offset=".112" stop-color="#8C8C8C"/><stop offset=".525" stop-color="#8C8C8C"/><stop offset=".65" stop-color="#BABABA"/><stop offset="1" stop-color="#BABABA"/></linearGradient><linearGradient id="d" x1="160.086" x2="160.086" y1="59.766" y2="30.481" gradientUnits="userSpaceOnUse"><stop stop-color="#0B6A0B"/><stop offset=".313" stop-color="#4E9528"/><stop offset=".579" stop-color="#86D633"/><stop offset="1" stop-color="#C3E693"/></linearGradient><linearGradient id="e" x1="166.617" x2="146.325" y1="58.391" y2="26.881" gradientUnits="userSpaceOnUse"><stop stop-color="#157315"/><stop offset=".276" stop-color="#4E9528"/><stop offset="1" stop-color="#86D633"/></linearGradient><linearGradient id="g" x1="96.635" x2="134.272" y1="42.75" y2="63.5" gradientUnits="userSpaceOnUse"><stop stop-color="#fff" stop-opacity=".25"/><stop offset="1" stop-color="#fff" stop-opacity=".75"/></linearGradient><linearGradient id="h" x1="137.522" x2="96.295" y1="74.125" y2="48" gradientUnits="userSpaceOnUse"><stop stop-color="#fff"/><stop offset="1" stop-color="#EDEBE9" stop-opacity=".25"/></linearGradient><linearGradient id="i" x1="96.295" x2="135.615" y1="41.5" y2="64" gradientUnits="userSpaceOnUse"><stop stop-color="#D2D0CE" stop-opacity=".75"/><stop offset="1" stop-color="#D2D0CE" stop-opacity=".75"/></linearGradient><linearGradient id="k" x1="169.361" x2="136.038" y1="117.562" y2="59.844" gradientUnits="userSpaceOnUse"><stop stop-color="#F6F6F6"/><stop offset=".75" stop-color="#FEFEFE"/></linearGradient><linearGradient id="l" x1="153.78" x2="153.78" y1="121.578" y2="53.794" gradientUnits="userSpaceOnUse"><stop offset=".004" stop-color="#393939"/><stop offset=".112" stop-color="#8C8C8C"/><stop offset=".525" stop-color="#8C8C8C"/><stop offset=".65" stop-color="#BABABA"/><stop offset="1" stop-color="#BABABA"/></linearGradient><linearGradient id="n" x1="181.983" x2="183.89" y1="66.495" y2="90.499" gradientUnits="userSpaceOnUse"><stop stop-color="#DC816A"/><stop offset=".453" stop-color="#DC816A"/><stop offset=".719" stop-color="#C43E1C"/><stop offset="1" stop-color="#792000"/></linearGradient><linearGradient id="o" x1="163.891" x2="180.051" y1="65.086" y2="91.321" gradientUnits="userSpaceOnUse"><stop stop-color="#E8825D"/><stop offset=".625" stop-color="#C43E1C"/><stop offset="1" stop-color="#C33400"/></linearGradient><linearGradient id="q" x1="75.697" x2="128.84" y1="50.094" y2="107.681" gradientUnits="userSpaceOnUse"><stop offset=".43" stop-color="#fff"/><stop offset="1" stop-color="#D5D5D5"/></linearGradient><linearGradient id="r" x1="95.408" x2="95.408" y1="113.419" y2="45.635" gradientUnits="userSpaceOnUse"><stop offset=".004" stop-color="#393939"/><stop offset=".112" stop-color="#8C8C8C"/><stop offset=".525" stop-color="#8C8C8C"/><stop offset=".65" stop-color="#BABABA"/><stop offset="1" stop-color="#BABABA"/></linearGradient><linearGradient id="s" x1="116.086" x2="116.086" y1="81.766" y2="52.48" gradientUnits="userSpaceOnUse"><stop stop-color="#0B6A0B"/><stop offset=".313" stop-color="#4E9528"/><stop offset=".579" stop-color="#86D633"/><stop offset="1" stop-color="#C3E693"/></linearGradient><linearGradient id="t" x1="122.617" x2="102.325" y1="80.391" y2="48.881" gradientUnits="userSpaceOnUse"><stop stop-color="#157315"/><stop offset=".276" stop-color="#4E9528"/><stop offset="1" stop-color="#86D633"/></linearGradient><radialGradient id="a" cx="0" cy="0" r="1" gradientTransform="rotate(105 35.547 95.338) scale(8.88796 20)" gradientUnits="userSpaceOnUse"><stop stop-opacity=".15"/><stop offset="1" stop-opacity="0"/></radialGradient><radialGradient id="f" cx="0" cy="0" r="1" gradientTransform="rotate(105 19.584 93.021) scale(8.88796 20)" gradientUnits="userSpaceOnUse"><stop stop-opacity=".15"/><stop offset="1" stop-opacity="0"/></radialGradient><radialGradient id="j" cx="0" cy="0" r="1" gradientTransform="rotate(105 33.246 117.447) scale(8.88796 18.0138)" gradientUnits="userSpaceOnUse"><stop stop-opacity=".15"/><stop offset="1" stop-opacity="0"/></radialGradient><radialGradient id="m" cx="0" cy="0" r="1" gradientTransform="matrix(0 6.40197 -13.4865 0 170.618 121.944)" gradientUnits="userSpaceOnUse"><stop stop-opacity=".1"/><stop offset="1" stop-opacity="0"/></radialGradient><radialGradient id="p" cx="0" cy="0" r="1" gradientTransform="rotate(105 3.62 90.704) scale(8.88796 20)" gradientUnits="userSpaceOnUse"><stop stop-opacity=".15"/><stop offset="1" stop-opacity="0"/></radialGradient></defs></svg>