<svg xmlns="http://www.w3.org/2000/svg" fill="none" viewBox="0 0 260 153"><path fill="#B1F4FF" stroke="#2195DC" stroke-dasharray="3 5" stroke-linecap="round" stroke-miterlimit="16" d="m206.616 86.042-76.375 44.173-76.34-44.173 76.34-44.174 76.375 44.174Z"/><path fill="#0078D4" d="M133.633 127.197c.385.576.59 1.253.589 1.945a3.56 3.56 0 0 1-3.499 3.498 3.503 3.503 0 0 1-2.475-5.975 3.494 3.494 0 0 1 3.815-.758 3.498 3.498 0 0 1 1.57 1.29ZM208.135 83.812a3.49 3.49 0 0 1 .589 1.945 3.558 3.558 0 0 1-3.499 3.498 3.501 3.501 0 1 1 2.91-5.443ZM58.733 83.812a3.5 3.5 0 0 1 .59 1.945 3.562 3.562 0 0 1-3.5 3.498 3.5 3.5 0 1 1 2.91-5.443ZM133.633 39.939a3.49 3.49 0 0 1 .589 1.945 3.558 3.558 0 0 1-3.499 3.498 3.502 3.502 0 0 1-3.434-4.183 3.505 3.505 0 0 1 2.751-2.75 3.502 3.502 0 0 1 3.593 1.49Z"/><path fill="url(#a)" d="m178.945 48.295 18.101 4.85-2.155 8.045-18.102-4.85 2.156-8.045Z"/><path fill="#BEBBB8" d="m194.892 39.978-3.379-8.466c-.053-.23-.15-.45-.286-.643l-.023-.034c-.029-.04-.053-.082-.085-.12l-.03-.031a1.573 1.573 0 0 0-.131-.139 4.826 4.826 0 0 0-2.364-1.4 3.767 3.767 0 0 0 2.711-4.095 3.767 3.767 0 0 0-3.639-3.299 3.771 3.771 0 0 0-3.81 3.1 3.766 3.766 0 0 0 2.489 4.235 4.837 4.837 0 0 0-2.768 1.63 1.891 1.891 0 0 0-.321.543l-4.552 7.884a1.846 1.846 0 0 0 3.195 1.844l1.019-1.765v3.114l-1.561 4.406a2.068 2.068 0 0 0-.087 1.043l.943 5.387a2.064 2.064 0 0 0 1.603 1.661 2.063 2.063 0 0 0 2.446-2.43c-.878-5.018-.873-4.7-.741-5.074l1.414-3.992h.63v10.675a1.844 1.844 0 0 0 1.844 1.844h.453a1.844 1.844 0 0 0 1.844-1.844v-12.25a1.841 1.841 0 0 0 3.186-1.784Z"/><path fill="url(#b)" d="m206.694 61.904 18.102 4.85-2.156 8.045-18.101-4.85 2.155-8.045Z"/><path fill="#BEBBB8" d="m222.642 53.587-3.379-8.466c-.053-.231-.15-.45-.286-.644l-.024-.033c-.028-.04-.052-.082-.084-.12-.01-.01-.021-.02-.03-.031a1.72 1.72 0 0 0-.131-.139 4.826 4.826 0 0 0-2.364-1.4 3.773 3.773 0 0 0 2.711-4.095 3.767 3.767 0 0 0-3.64-3.299 3.77 3.77 0 0 0-1.321 7.334 4.837 4.837 0 0 0-2.767 1.63 1.896 1.896 0 0 0-.322.544l-4.551 7.884a1.841 1.841 0 0 0 .677 2.515 1.845 1.845 0 0 0 2.518-.67l1.019-1.766v3.114l-1.561 4.406a2.068 2.068 0 0 0-.087 1.043l.943 5.387a2.064 2.064 0 0 0 1.603 1.661 2.065 2.065 0 0 0 2.139-.87 2.068 2.068 0 0 0 .306-1.56c-.877-5.018-.872-4.7-.74-5.074l1.414-3.992h.63V67.62a1.844 1.844 0 0 0 1.844 1.844h.453a1.844 1.844 0 0 0 1.844-1.844V55.37a1.842 1.842 0 0 0 3.186-1.784Z"/><path fill="url(#c)" d="m60.016 127.83 18.101 4.85-2.155 8.044-18.102-4.85 2.156-8.044Z"/><path fill="#BEBBB8" d="m75.964 119.513-3.38-8.467a1.833 1.833 0 0 0-.285-.643c-.008-.012-.017-.022-.024-.034-.029-.039-.053-.081-.085-.119l-.03-.032a1.684 1.684 0 0 0-.13-.139 4.82 4.82 0 0 0-2.365-1.399 3.772 3.772 0 0 0 2.711-4.096 3.768 3.768 0 0 0-6.118-2.454 3.769 3.769 0 0 0 1.158 6.49 4.835 4.835 0 0 0-2.768 1.63 1.9 1.9 0 0 0-.321.543l-4.552 7.884a1.844 1.844 0 0 0 3.195 1.845l1.02-1.765v3.113l-1.561 4.406a2.061 2.061 0 0 0-.088 1.043l.943 5.387a2.057 2.057 0 0 0 1.604 1.661 2.053 2.053 0 0 0 2.138-.869 2.062 2.062 0 0 0 .307-1.562c-.878-5.016-.873-4.699-.74-5.073l1.413-3.992h.63v10.675a1.844 1.844 0 0 0 1.845 1.844h.452a1.844 1.844 0 0 0 1.845-1.844v-12.25a1.844 1.844 0 0 0 2.377.509 1.843 1.843 0 0 0 .809-2.292Z"/><path fill="url(#d)" d="m91.01 90.018 20.959 5.616-2.496 9.314-20.958-5.616 2.496-9.314Z"/><path fill="url(#e)" d="m89.305 75.612 6.034-10.45c.12-.255.265-.499.43-.727a6.647 6.647 0 0 1 10.084 0c.024.028.527 1.065.527 1.065l4.482 11.23c.234.556.26 1.178.075 1.753a2.526 2.526 0 0 1-1.083 1.382 2.459 2.459 0 0 1-3.215-.66v16.38a2.466 2.466 0 0 1-2.467 2.467h-.605a2.469 2.469 0 0 1-2.466-2.467v-13.78a.492.492 0 0 0-.494-.493.49.49 0 0 0-.465.328l-1.774 5.01a1.503 1.503 0 0 0-.064.76l1.052 6.008a2.815 2.815 0 0 1-2.004 3.237 2.757 2.757 0 0 1-3.408-2.192l-1.26-7.203a2.756 2.756 0 0 1 .117-1.396l1.924-5.431c.107-.305.162-.625.162-.948V75.81l-1.362 2.36a2.467 2.467 0 0 1-3.574.772 2.539 2.539 0 0 1-.646-3.33Z"/><path fill="#0B6A0B" d="M105.458 64.015a6.616 6.616 0 0 0-5.24-1.865c-.183.041-.366.077-.544.133a4.997 4.997 0 0 0 5.784 1.732Z" opacity=".65"/><path fill="#0B6A0B" d="M104.08 70.742c.213-.067.499.469.581.676.569 1.427 1.432 5.35 1.576 5.938.183.746.05.905-.181.956-.196.043-.374-.27-.571-.956-.334-1.165-.896-3.054-.896-3.054s-.536-2.114-.607-2.835c-.017-.182-.077-.67.098-.725Z" opacity=".5"/><path fill="url(#f)" d="M101.101 62.78a5.04 5.04 0 1 0 0-10.078 5.04 5.04 0 0 0 0 10.079Z"/><path fill="#0B6A0B" d="M109.523 73.374a.135.135 0 0 0-.065-.072.136.136 0 0 0-.096-.012.142.142 0 0 0-.08.055.141.141 0 0 0-.024.094c.138 1.232 1.68 3.9.599 5.192-.653.78-1.396.924-2.653.419-.619-.25-.331.449-.105.625a2.45 2.45 0 0 0 2.756.19 2.535 2.535 0 0 0 1.008-3.136l-1.34-3.355ZM89.042 77.59c.133.544.456 1.023.91 1.352a2.468 2.468 0 0 0 3.573-.771l1.362-2.232.454-3.203a.217.217 0 0 0-.416-.1c-.67 1.615-1.8 4.59-2.926 5.167-1.981 1.012-2.57-.347-2.957-.213ZM93.505 86.922c-.567-.07-.842.222-.822.335l1.26 7.203a2.756 2.756 0 0 0 3.408 2.193 2.815 2.815 0 0 0 2.004-3.237l-1.052-6.008a1.503 1.503 0 0 1 .064-.76l1.774-5.01.001-.002s-3.575 5.657-6.637 5.286Z" opacity=".5"/><path fill="url(#g)" d="M97.417 67.104c-1.95 3.28-3.064 7.498-1.186 9.827a4.15 4.15 0 0 0 2.699 1.356c2.033.306 4.248-1.871 4.417-2.881.331-1.98-.333-6.877-1.285-8.563-.499-.884-3.683-1.359-4.645.26Z" opacity=".75"/><path fill="url(#h)" d="m130.26 106.018 20.958 5.616-2.495 9.314-20.958-5.616 2.495-9.314Z"/><path fill="url(#i)" d="m128.305 91.612 6.033-10.45c.121-.255.265-.499.43-.727a6.657 6.657 0 0 1 5.043-2.315 6.653 6.653 0 0 1 5.042 2.315c.023.028.526 1.065.526 1.065l4.483 11.23a2.534 2.534 0 0 1-1.008 3.135 2.46 2.46 0 0 1-3.216-.66v16.38a2.464 2.464 0 0 1-2.466 2.467h-.605a2.465 2.465 0 0 1-2.467-2.467v-13.78a.495.495 0 0 0-.493-.493.492.492 0 0 0-.465.328l-1.775 5.01a1.5 1.5 0 0 0-.063.76l1.051 6.008a2.814 2.814 0 0 1-2.004 3.237 2.75 2.75 0 0 1-2.988-1.143 2.753 2.753 0 0 1-.419-1.049l-1.261-7.204a2.77 2.77 0 0 1 .117-1.395l1.924-5.431a2.83 2.83 0 0 0 .163-.948V91.81l-1.363 2.36a2.467 2.467 0 0 1-3.574.772 2.539 2.539 0 0 1-.645-3.33Z"/><path fill="#0B6A0B" d="M144.457 80.015a6.604 6.604 0 0 0-5.24-1.865c-.182.041-.365.077-.544.133a4.997 4.997 0 0 0 5.784 1.732Z" opacity=".65"/><path fill="#0B6A0B" d="M143.079 86.742c.213-.067.499.469.582.676.569 1.427 1.432 5.35 1.576 5.938.182.746.049.905-.182.956-.195.043-.373-.27-.57-.956-.335-1.165-.897-3.054-.897-3.054s-.535-2.114-.606-2.835c-.017-.182-.077-.67.097-.725Z" opacity=".5"/><path fill="url(#j)" d="M140.1 78.78a5.04 5.04 0 1 0 .001-10.078 5.04 5.04 0 0 0-.001 10.079Z"/><path fill="#0B6A0B" d="M148.523 89.374a.138.138 0 0 0-.265.065c.138 1.232 1.679 3.9.598 5.192-.652.78-1.395.924-2.653.419-.619-.25-.33.449-.105.625a2.45 2.45 0 0 0 2.756.19 2.535 2.535 0 0 0 1.008-3.136l-1.339-3.355ZM128.042 93.59a2.36 2.36 0 0 0 .909 1.352 2.47 2.47 0 0 0 2.89-.012c.278-.203.511-.461.683-.76l1.363-2.23.454-3.204a.22.22 0 0 0-.166-.228.217.217 0 0 0-.251.127c-.669 1.616-1.799 4.591-2.926 5.168-1.981 1.012-2.569-.347-2.956-.213ZM132.505 102.922c-.567-.069-.842.222-.823.335l1.261 7.203a2.757 2.757 0 0 0 3.408 2.193 2.816 2.816 0 0 0 2.003-3.237l-1.051-6.008a1.493 1.493 0 0 1 .064-.761l1.774-5.009.001-.002s-3.576 5.657-6.637 5.286Z" opacity=".5"/><path fill="url(#k)" d="M136.416 83.104c-1.949 3.28-3.064 7.498-1.186 9.827a4.152 4.152 0 0 0 2.699 1.356c2.034.306 4.248-1.871 4.417-2.881.332-1.98-.333-6.877-1.284-8.563-.499-.884-3.683-1.359-4.646.26Z" opacity=".75"/><path fill="url(#l)" d="m154.019 79.777 20.958 5.616-2.496 9.313-20.958-5.615 2.496-9.314Z"/><path fill="url(#m)" d="m152.305 64.91 6.033-10.45c.121-.255.265-.498.43-.727a6.65 6.65 0 0 1 10.084 0c.024.028.527 1.065.527 1.065l4.483 11.23a2.534 2.534 0 0 1-1.008 3.135 2.46 2.46 0 0 1-3.216-.66v16.38a2.467 2.467 0 0 1-2.467 2.467h-.604a2.465 2.465 0 0 1-2.467-2.467v-13.78a.495.495 0 0 0-.493-.493.492.492 0 0 0-.466.329l-1.774 5.009a1.502 1.502 0 0 0-.063.76l1.051 6.008a2.815 2.815 0 0 1-2.004 3.237 2.754 2.754 0 0 1-3.407-2.192l-1.261-7.203a2.758 2.758 0 0 1 .117-1.396l1.924-5.431a2.83 2.83 0 0 0 .163-.947v-3.676l-1.363 2.36a2.467 2.467 0 0 1-3.574.772 2.54 2.54 0 0 1-.645-3.33Z"/><path fill="#0B6A0B" d="M168.457 53.313a6.603 6.603 0 0 0-5.24-1.864c-.182.04-.365.076-.544.132a4.998 4.998 0 0 0 5.784 1.732Z" opacity=".65"/><path fill="#0B6A0B" d="M167.079 60.04c.213-.067.499.47.582.677.569 1.426 1.432 5.349 1.576 5.938.182.745.049.905-.182.955-.195.043-.373-.27-.57-.955a443.589 443.589 0 0 0-.897-3.054s-.535-2.114-.606-2.836c-.018-.182-.077-.67.097-.725Z" opacity=".5"/><path fill="url(#n)" d="M164.1 52.08a5.04 5.04 0 1 0 0-10.081 5.04 5.04 0 0 0 0 10.08Z"/><path fill="#0B6A0B" d="M172.522 62.672a.138.138 0 0 0-.161-.083.136.136 0 0 0-.079.055.136.136 0 0 0-.024.093c.137 1.232 1.679 3.9.598 5.193-.653.78-1.395.924-2.653.418-.619-.249-.331.45-.105.626a2.45 2.45 0 0 0 2.756.19 2.535 2.535 0 0 0 1.008-3.136l-1.34-3.356ZM152.041 66.888c.134.544.456 1.023.91 1.352a2.457 2.457 0 0 0 1.957.406 2.474 2.474 0 0 0 1.616-1.177l1.363-2.231.453-3.204a.218.218 0 0 0-.04-.145.217.217 0 0 0-.376.044c-.67 1.617-1.799 4.592-2.926 5.168-1.981 1.013-2.57-.347-2.957-.213ZM156.505 76.22c-.568-.069-.843.222-.823.336l1.261 7.203a2.748 2.748 0 0 0 2.279 2.246c.376.06.76.042 1.128-.054a2.814 2.814 0 0 0 2.004-3.237l-1.051-6.007a1.502 1.502 0 0 1 .063-.761l1.775-5.01v-.001s-3.575 5.657-6.636 5.285Z" opacity=".5"/><path fill="url(#o)" d="M160.416 56.402c-1.949 3.28-3.064 7.499-1.186 9.828a4.15 4.15 0 0 0 2.699 1.355c2.034.306 4.248-1.871 4.417-2.881.331-1.98-.333-6.877-1.285-8.563-.499-.884-3.683-1.359-4.645.26Z" opacity=".75"/><defs><radialGradient id="a" cx="0" cy="0" r="1" gradientTransform="matrix(-1.07773 4.02212 -9.05073 -2.42514 186.918 54.743)" gradientUnits="userSpaceOnUse"><stop stop-opacity=".15"/><stop offset="1" stop-opacity="0"/></radialGradient><radialGradient id="b" cx="0" cy="0" r="1" gradientTransform="matrix(-1.07773 4.02212 -9.05073 -2.42514 214.667 68.352)" gradientUnits="userSpaceOnUse"><stop stop-opacity=".15"/><stop offset="1" stop-opacity="0"/></radialGradient><radialGradient id="c" cx="0" cy="0" r="1" gradientTransform="matrix(-1.07773 4.02212 -9.05073 -2.42514 67.989 134.277)" gradientUnits="userSpaceOnUse"><stop stop-opacity=".15"/><stop offset="1" stop-opacity="0"/></radialGradient><radialGradient id="d" cx="0" cy="0" r="1" gradientTransform="matrix(-1.2478 4.65687 -10.47904 -2.80785 100.242 97.483)" gradientUnits="userSpaceOnUse"><stop stop-opacity=".25"/><stop offset="1" stop-opacity="0"/></radialGradient><radialGradient id="e" cx="0" cy="0" r="1" gradientTransform="translate(105.423 98.73) scale(49.1721)" gradientUnits="userSpaceOnUse"><stop stop-color="#0B6A0B"/><stop offset=".254" stop-color="#0E770E"/><stop offset=".469" stop-color="#4E9528"/><stop offset=".845" stop-color="#86D633"/></radialGradient><radialGradient id="g" cx="0" cy="0" r="1" gradientTransform="translate(99.465 71.068) scale(4.92845)" gradientUnits="userSpaceOnUse"><stop stop-color="#86D633" stop-opacity=".55"/><stop offset=".991" stop-color="#65BE36" stop-opacity="0"/></radialGradient><radialGradient id="h" cx="0" cy="0" r="1" gradientTransform="matrix(-1.2478 4.65687 -10.47904 -2.80785 139.492 113.483)" gradientUnits="userSpaceOnUse"><stop stop-opacity=".25"/><stop offset="1" stop-opacity="0"/></radialGradient><radialGradient id="i" cx="0" cy="0" r="1" gradientTransform="translate(144.422 114.73) scale(49.1721)" gradientUnits="userSpaceOnUse"><stop stop-color="#0B6A0B"/><stop offset=".254" stop-color="#0E770E"/><stop offset=".469" stop-color="#4E9528"/><stop offset=".845" stop-color="#86D633"/></radialGradient><radialGradient id="k" cx="0" cy="0" r="1" gradientTransform="translate(138.464 87.068) scale(4.92845)" gradientUnits="userSpaceOnUse"><stop stop-color="#86D633" stop-opacity=".55"/><stop offset=".991" stop-color="#65BE36" stop-opacity="0"/></radialGradient><radialGradient id="l" cx="0" cy="0" r="1" gradientTransform="matrix(-1.2478 4.65687 -10.47904 -2.80785 163.25 87.242)" gradientUnits="userSpaceOnUse"><stop stop-opacity=".25"/><stop offset="1" stop-opacity="0"/></radialGradient><radialGradient id="m" cx="0" cy="0" r="1" gradientTransform="translate(168.422 88.029) scale(49.1721)" gradientUnits="userSpaceOnUse"><stop stop-color="#0B6A0B"/><stop offset=".254" stop-color="#0E770E"/><stop offset=".469" stop-color="#4E9528"/><stop offset=".845" stop-color="#86D633"/></radialGradient><radialGradient id="o" cx="0" cy="0" r="1" gradientTransform="translate(162.464 60.366) scale(4.92845)" gradientUnits="userSpaceOnUse"><stop stop-color="#86D633" stop-opacity=".55"/><stop offset=".991" stop-color="#65BE36" stop-opacity="0"/></radialGradient><linearGradient id="f" x1="103.621" x2="98.581" y1="62.106" y2="53.376" gradientUnits="userSpaceOnUse"><stop stop-color="#157315"/><stop offset=".241" stop-color="#4E9528"/><stop offset="1" stop-color="#86D633"/></linearGradient><linearGradient id="j" x1="142.62" x2="137.58" y1="78.106" y2="69.376" gradientUnits="userSpaceOnUse"><stop stop-color="#157315"/><stop offset=".241" stop-color="#4E9528"/><stop offset="1" stop-color="#86D633"/></linearGradient><linearGradient id="n" x1="166.62" x2="161.58" y1="51.405" y2="42.675" gradientUnits="userSpaceOnUse"><stop stop-color="#157315"/><stop offset=".241" stop-color="#4E9528"/><stop offset="1" stop-color="#86D633"/></linearGradient></defs></svg>