<svg xmlns="http://www.w3.org/2000/svg" fill="none" viewBox="0 0 260 153"><path fill="url(#a)" d="M67.263 105.882h47.711v24.643H67.263z" transform="rotate(15 67.263 105.882)"/><path fill="url(#b)" d="M119.576 75.687 57.147 39.644a3.008 3.008 0 0 0-3.032-.297L52 40.575a3.006 3.006 0 0 1 3.032.297l62.429 36.044a9.355 9.355 0 0 1 4.245 7.345v48.083a3.049 3.049 0 0 1-1.38 2.73l2.114-1.229a3.048 3.048 0 0 0 1.38-2.73V83.032a9.355 9.355 0 0 0-4.245-7.345Z"/><path fill="#FEFEFE" stroke="#8C8C8C" d="M119.235 134.862a3.477 3.477 0 0 1-1.687-.516l-62.43-36.044a8.81 8.81 0 0 1-3.994-6.918V43.3c.005-1.549.76-2.512 1.968-2.512.599.024 1.181.202 1.69.518l62.43 36.043a8.803 8.803 0 0 1 3.995 6.91v48.085c-.005 1.552-.76 2.518-1.972 2.518Z"/><path fill="#ACF3FD" d="M113.547 79.802a8.047 8.047 0 0 1 3.587 6.412v38.977c-.007 2.357-1.679 3.31-3.73 2.125L58.903 95.85a8.174 8.174 0 0 1-3.706-6.418V50.455c.007-2.357 1.798-3.304 3.849-2.12l54.501 31.467Z"/><path fill="#77D672" d="M55.197 76.274v13.157a8.175 8.175 0 0 0 3.706 6.418l54.501 31.467c2.051 1.184 3.723.231 3.73-2.126v-15.336c-11.971-10.562-31.02-25.6-45.793-29.733a178.896 178.896 0 0 0-16.144-3.847Z"/><path fill="#fff" d="m111.548 97.734-11.527-6.655v9.853l11.527 6.655v-9.853Z"/><path fill="#C8C6C4" d="m104.593 98.052-3.02-1.743v5.518l3.02 1.744v-5.519ZM110.118 101.244l-4.292-2.478v3.242l4.292 2.478v-3.242Z"/><path fill="#D03438" d="m98.587 91.402 7.206-2.25 7.19 10.561-14.396-8.31Z"/><path fill="#8E562E" d="m89.141 82.722-1.205-1.183a4.132 4.132 0 0 1-.989-1.732 1.16 1.16 0 0 0-.361-.553 2.445 2.445 0 0 1-.453-.525 4.183 4.183 0 0 0-2.887-2.097c-1.998-.14-2.7 2.21-3.093 2.87-.444.745-3.841 3.145-6.204 3.807a8.014 8.014 0 0 0-3.903 3.192 4.31 4.31 0 0 0-.631 3.62s.292 1.62-1.089 1.83a9.423 9.423 0 0 1-4.833-1.25 3.11 3.11 0 0 1-1.169-1.933s-.477-.893-.584-.12a3.721 3.721 0 0 0 1.195 2.633 11.166 11.166 0 0 0 4.276 1.919c1.168.238 2.746-.084 3.846.762.362.252.658.588.862.98.04.116.062.238.067.36a1.501 1.501 0 0 0 .668 1.304l6.16 3.45c.477.268.772-.073.772-.727a2.105 2.105 0 0 0-1.063-1.7l-2.531-1.122a22.72 22.72 0 0 0 3.785-3.09c.527 4.137.941 7.441.94 7.423a.63.63 0 0 0 .291.445l2.769 1.55c.16.09.292.019.295-.16a2.643 2.643 0 0 0-.344-1.384 1.536 1.536 0 0 0-.571-.557 1.598 1.598 0 0 0-.783-.202s-.133-1.116-.265-3.362a34.24 34.24 0 0 1 .596-6.085c.078-.05.155-.097.231-.143.725-.43 1.147-2.127 1.117-3.397-.038-1.651-.503-1.837-.207-2.83a1.549 1.549 0 0 1 1.945-.984c.937.37 1.847.804 2.726 1.298.216.112.411.082.508-.081l.513-.862a1.295 1.295 0 0 0-.397-1.364Z"/><path fill="#231F20" d="M82.25 82.237a16.091 16.091 0 0 1-.254-3.67h-.108a7.666 7.666 0 0 0-.05 4.072c.352 1.176 1.023 2.3 1.938 1.948h.003c-.838-.029-1.111-1.11-1.529-2.35Z" opacity=".5"/><path fill="#8E562E" d="M82.002 78.296c-.06 1.32.024 2.64.248 3.941.456 1.355.738 2.523 1.773 2.333 1.464-.27 2.036-2.557 1.313-4.498a19.691 19.691 0 0 0-1.074-2.153"/><path fill="#231F20" d="M86.682 79.865c-.097-.056-.557-.115-.439.13a.694.694 0 0 0 .482.331.16.16 0 0 0 .172-.071.146.146 0 0 0-.02-.18 1.403 1.403 0 0 0-.195-.21Z"/><path fill="#231F20" d="M84.806 82.068a16.099 16.099 0 0 0-.444-3.652l.107-.02c.627 1.231.91 2.61.818 3.989-.124 1.22-.57 2.45-1.535 2.279h-.003c.817-.187.881-1.3 1.057-2.596Z" opacity=".5"/><path fill="#231F20" d="M89.235 82.823a.619.619 0 0 0-.111.563c.123.225.275.433.452.618a1.334 1.334 0 0 0-.34-1.18Z"/><path fill="#231F20" d="M75.786 96.348a.358.358 0 0 1-.159-.224c-.06-.213-.21-.295.22-.558 1.097-.672 1.146-1.037 1.246-1.337.1-.336.146-.686.133-1.036-.102-2.121-2.293-4.061-4.162-5.094l-.018.028c2.124 1.457 4.579 3.952 3.595 6.29-.321.418-.729.764-1.195 1.012a.444.444 0 0 0-.186.159.762.762 0 0 0 .37.924c.095.076.523.01.156-.164Z" opacity=".5"/><path stroke="#252423" stroke-dasharray="3 5" stroke-linecap="round" stroke-linejoin="round" stroke-width="2" d="M63.258 58.395 90.92 74.327a3.368 3.368 0 0 1 1.53 2.695v31.865c0 .937-.706 1.405-1.53.937l-27.662-16.05a3.337 3.337 0 0 1-1.53-2.578v-31.98c0-.938.706-1.29 1.53-.82ZM97.858 82.307l15.914 9.166a1.937 1.937 0 0 1 .88 1.55v18.332c0 .539-.406.809-.88.539l-15.914-9.233a1.931 1.931 0 0 1-.88-1.483V82.779c0-.539.406-.741.88-.472Z"/><path fill="url(#c)" d="M137.074 80.988h49v30h-49z" transform="rotate(15 137.074 80.988)"/><path fill="url(#d)" fill-opacity=".33" d="M148.039 93.582c8.656 4.997 16.499 5.46 22.165 2.17l4.711-2.74c-5.663 3.29-13.506 2.827-22.158-2.174-17.225-9.944-31.095-34.046-31.039-53.766.027-9.817 3.494-16.723 9.085-19.972l-4.719 2.738c-5.589 3.252-9.06 10.16-9.084 19.975-.06 19.847 13.926 43.888 31.039 53.769Z"/><path fill="#B1F4FF" d="M148.249 22.012c17.196 9.928 31.095 34.002 31.039 53.766-.056 19.764-14.048 27.733-31.242 17.804-17.195-9.929-31.101-34.004-31.045-53.763.056-19.758 14.048-27.738 31.248-17.807Z" opacity=".3"/><path fill="url(#e)" d="M152.961 19.272c-8.656-4.997-16.498-5.461-22.165-2.17l-4.711 2.74c5.663-3.291 13.506-2.828 22.159 2.173 17.225 9.945 31.094 34.047 31.038 53.766-.027 9.817-3.494 16.724-9.085 19.972l4.719-2.738c5.59-3.251 9.061-10.159 9.084-19.975.06-19.847-13.926-43.888-31.039-53.768Z"/><g opacity=".75"><path fill="#0078D4" d="m161.304 44.18-2.057.46 6.75 30.2 2.057-.46-6.75-30.2Z"/><path fill="#0078D4" d="m140.852 32.155-1.77 1.144 27.059 41.883 1.77-1.145-27.059-41.882Z"/><path fill="#0078D4" d="m140.493 31.813-1.052 1.828 20.309 11.683 1.052-1.828-20.309-11.683ZM134.307 54.55l-1.711 1.232 16.739 23.263 1.711-1.231-16.739-23.263Z"/><path fill="#0078D4" d="m166.791 73.577-16.833 3.827.467 2.056 16.834-3.826-.468-2.057ZM138.956 32.433l-6.518 22.44 2.025.587 6.517-22.44-2.024-.587Z"/><path fill="#0078D4" d="m159.884 43.433-26.825 10.752.784 1.958 26.826-10.753-.785-1.957Z"/><path fill="#1C2F50" d="m149.726 49.776.758 1.173 1.994-.8-.758-1.172-1.994.799ZM153.913 76.503l-3.275.743-.448 1.183.234 1.028 4.741-1.076a4.18 4.18 0 0 0-1.252-1.878ZM157.318 43.924l.548.316-.717.287a3.927 3.927 0 0 0 .191 2.195l2.177-.873.789 3.528a3.823 3.823 0 0 0 2.147-.056l-1.149-5.142-1.028.23.526-.913-2.32-1.335a4.193 4.193 0 0 0-1.164 1.763ZM135.765 60.186a4.181 4.181 0 0 0 1.907-.959l-2.579-3.583 3.898-1.567a4.219 4.219 0 0 0-1.478-1.68l-2.446.985-2.471 2.4 3.169 4.404ZM139.51 38.078l.825-2.84 1.862 2.883a4.202 4.202 0 0 0 1.789-1.116l-.771-1.193 1.19.685a4.187 4.187 0 0 0 .7-2.03l-4.612-2.653-.526.913-1.012-.294-1.267 4.365a4.193 4.193 0 0 0 1.822 1.28Z" opacity=".3"/><path fill="#1C2F50" d="m166.309 71.558 1.093-.095-.106-.476a69.882 69.882 0 0 1-.199-.259 15.717 15.717 0 0 0-2.508-2.187l.121.542 1.599 2.475Z" opacity=".45"/><path fill="url(#f)" d="M160.235 48.45a4.217 4.217 0 1 0 .001-8.434 4.217 4.217 0 0 0-.001 8.434Z"/><path fill="url(#g)" d="M139.868 37.284a4.217 4.217 0 1 0 0-8.434 4.217 4.217 0 0 0 0 8.434Z"/><path fill="url(#h)" d="M166.798 79.057a4.217 4.217 0 1 0 .001-8.435 4.217 4.217 0 0 0-.001 8.435Z"/><path fill="url(#i)" d="M150.121 82.85a4.217 4.217 0 1 0 0-8.435 4.217 4.217 0 0 0 0 8.435Z"/><path fill="url(#j)" d="M133.868 59.216a4.217 4.217 0 1 0 0-8.434 4.217 4.217 0 0 0 0 8.434Z"/></g><defs><radialGradient id="a" cx="0" cy="0" r="1" gradientTransform="matrix(0 12.3214 -23.8555 0 91.118 118.203)" gradientUnits="userSpaceOnUse"><stop stop-opacity=".15"/><stop offset="1" stop-opacity="0"/></radialGradient><radialGradient id="c" cx="0" cy="0" r="1" gradientTransform="matrix(0 15 -24.5 0 161.574 95.988)" gradientUnits="userSpaceOnUse"><stop stop-opacity=".15"/><stop offset="1" stop-opacity="0"/></radialGradient><radialGradient id="f" cx="0" cy="0" r="1" gradientTransform="translate(158.941 41.369) scale(7.25107)" gradientUnits="userSpaceOnUse"><stop stop-color="#ACF3FD"/><stop offset=".79" stop-color="#00ABDE"/><stop offset="1" stop-color="#0078D4"/></radialGradient><radialGradient id="g" cx="0" cy="0" r="1" gradientTransform="translate(138.573 30.203) scale(7.25107)" gradientUnits="userSpaceOnUse"><stop stop-color="#ACF3FD"/><stop offset=".79" stop-color="#00ABDE"/><stop offset="1" stop-color="#0078D4"/></radialGradient><radialGradient id="h" cx="0" cy="0" r="1" gradientTransform="translate(165.504 71.975) scale(7.25107)" gradientUnits="userSpaceOnUse"><stop stop-color="#ACF3FD"/><stop offset=".79" stop-color="#00ABDE"/><stop offset="1" stop-color="#0078D4"/></radialGradient><radialGradient id="i" cx="0" cy="0" r="1" gradientTransform="translate(148.826 75.768) scale(7.25107)" gradientUnits="userSpaceOnUse"><stop stop-color="#ACF3FD"/><stop offset=".79" stop-color="#00ABDE"/><stop offset="1" stop-color="#0078D4"/></radialGradient><radialGradient id="j" cx="0" cy="0" r="1" gradientTransform="translate(132.573 52.134) scale(7.25107)" gradientUnits="userSpaceOnUse"><stop stop-color="#ACF3FD"/><stop offset=".79" stop-color="#00ABDE"/><stop offset="1" stop-color="#0078D4"/></radialGradient><linearGradient id="b" x1="87.911" x2="87.911" y1="135.074" y2="39.059" gradientUnits="userSpaceOnUse"><stop offset=".004" stop-color="#393939"/><stop offset=".229" stop-color="#8C8C8C"/><stop offset=".525" stop-color="#8C8C8C"/><stop offset=".65" stop-color="#BABABA"/><stop offset="1" stop-color="#BABABA"/></linearGradient><linearGradient id="d" x1="145.958" x2="145.958" y1="16.13" y2="96.883" gradientUnits="userSpaceOnUse"><stop stop-color="#156AB3"/><stop offset=".4" stop-color="#45CAF2"/><stop offset=".485" stop-color="#45CAF2"/><stop offset="1" stop-color="#45CAF2"/></linearGradient><linearGradient id="e" x1="155.043" x2="155.043" y1="96.724" y2="15.971" gradientUnits="userSpaceOnUse"><stop stop-color="#156AB3"/><stop offset=".4" stop-color="#45CAF2"/><stop offset=".485" stop-color="#45CAF2"/><stop offset="1" stop-color="#45CAF2"/></linearGradient></defs></svg>