<svg xmlns="http://www.w3.org/2000/svg" fill="none" viewBox="0 0 260 153"><path fill="#0078D4" d="m98.483 104.676 15.678-9.045 7.839 4.523-15.678 9.045 6.633 3.769H92v-12.061l6.483 3.769Z"/><path stroke="#0078D4" stroke-dasharray="3 5" stroke-linecap="round" stroke-width="2" d="m75.366 59.264 102.191 59"/><path fill="#0078D4" d="M184.518 118.457c.451.675.691 1.469.691 2.281a4.18 4.18 0 0 1-4.103 4.101 4.098 4.098 0 0 1-3.793-2.533 4.107 4.107 0 0 1 .89-4.474 4.1 4.1 0 0 1 4.474-.888c.75.311 1.391.837 1.841 1.513ZM76.518 55.063c.451.675.691 1.47.69 2.281a4.177 4.177 0 0 1-4.102 4.102 4.105 4.105 0 1 1 3.412-6.383Z"/><path fill="url(#a)" d="m119.588 82.463 30.128 8.073-3.587 13.389L116 95.852l3.588-13.39Z"/><path fill="url(#b)" d="m117.006 60.934 8.673-15.022c.174-.366.381-.716.618-1.045a9.557 9.557 0 0 1 14.497 0c.034.04.757 1.531.757 1.531l6.444 16.143a3.643 3.643 0 0 1-1.449 4.508 3.536 3.536 0 0 1-4.623-.948v23.546a3.546 3.546 0 0 1-3.546 3.546h-.869a3.544 3.544 0 0 1-3.546-3.546v-19.81a.71.71 0 0 0-.709-.709.71.71 0 0 0-.669.473l-2.551 7.201c-.124.351-.155.728-.091 1.094l1.511 8.636a4.047 4.047 0 0 1-2.88 4.654 3.962 3.962 0 0 1-4.899-3.152l-1.812-10.355a3.976 3.976 0 0 1 .168-2.006l2.766-7.808c.155-.437.234-.898.234-1.362V61.22l-1.959 3.393a3.54 3.54 0 0 1-2.323 1.693 3.546 3.546 0 0 1-2.815-.584 3.651 3.651 0 0 1-.927-4.787Z"/><path fill="#0B6A0B" d="M140.226 44.264a9.506 9.506 0 0 0-7.533-2.68c-.262.058-.525.11-.782.19a7.177 7.177 0 0 0 8.315 2.49Z" opacity=".65"/><path fill="#0B6A0B" d="M138.245 53.934c.306-.096.717.675.836.973.818 2.05 2.059 7.689 2.266 8.536.261 1.072.071 1.301-.261 1.374-.282.06-.537-.389-.82-1.374-.481-1.675-1.29-4.39-1.29-4.39s-.769-3.04-.871-4.077c-.025-.262-.111-.964.14-1.042Z" opacity=".5"/><path fill="url(#c)" d="M133.962 42.49a7.245 7.245 0 1 0 0-14.49 7.245 7.245 0 0 0 0 14.49Z"/><path fill="#0B6A0B" d="M146.07 57.718a.202.202 0 0 0-.093-.103.196.196 0 0 0-.253.062.196.196 0 0 0-.035.135c.198 1.77 2.414 5.606.86 7.464-.938 1.121-2.006 1.328-3.813.602-.891-.358-.476.645-.151.899a3.522 3.522 0 0 0 3.961.272 3.64 3.64 0 0 0 1.449-4.508l-1.925-4.823ZM116.627 63.779c.192.782.655 1.47 1.307 1.943a3.553 3.553 0 0 0 4.155-.017c.4-.292.735-.664.982-1.092l1.959-3.207.652-4.606a.308.308 0 0 0-.237-.328.313.313 0 0 0-.361.184c-.963 2.323-2.587 6.6-4.206 7.428-2.848 1.456-3.694-.498-4.251-.305ZM123.043 77.194c-.815-.1-1.21.319-1.182.482l1.812 10.355a3.968 3.968 0 0 0 3.277 3.229 3.96 3.96 0 0 0 1.622-.077 4.048 4.048 0 0 0 2.88-4.654l-1.511-8.636a2.152 2.152 0 0 1 .092-1.093l2.55-7.202.002-.002s-5.141 8.132-9.542 7.598Z" opacity=".5"/><path fill="url(#d)" d="M128.667 48.704c-2.803 4.716-4.405 10.78-1.706 14.128a5.97 5.97 0 0 0 3.88 1.948c2.924.44 6.107-2.69 6.35-4.141.477-2.846-.479-9.886-1.847-12.31-.717-1.27-5.294-1.953-6.677.375Z" opacity=".75"/><defs><radialGradient id="a" cx="0" cy="0" r="1" gradientTransform="rotate(105 30.674 97.57) scale(6.93072 15.5958)" gradientUnits="userSpaceOnUse"><stop stop-opacity=".25"/><stop offset="1" stop-opacity="0"/></radialGradient><radialGradient id="b" cx="0" cy="0" r="1" gradientTransform="translate(140.175 94.17) scale(70.688)" gradientUnits="userSpaceOnUse"><stop stop-color="#0B6A0B"/><stop offset=".254" stop-color="#0E770E"/><stop offset=".469" stop-color="#4E9528"/><stop offset=".845" stop-color="#86D633"/></radialGradient><radialGradient id="d" cx="0" cy="0" r="1" gradientTransform="translate(131.61 54.403) scale(7.08497)" gradientUnits="userSpaceOnUse"><stop stop-color="#86D633" stop-opacity=".55"/><stop offset=".991" stop-color="#65BE36" stop-opacity="0"/></radialGradient><linearGradient id="c" x1="137.585" x2="130.339" y1="41.52" y2="28.97" gradientUnits="userSpaceOnUse"><stop stop-color="#157315"/><stop offset=".241" stop-color="#4E9528"/><stop offset="1" stop-color="#86D633"/></linearGradient></defs></svg>