<svg xmlns="http://www.w3.org/2000/svg" fill="none" viewBox="0 0 260 153"><path fill="#C8C8C8" d="m194.916 69.541-.013 4.57c-.015 5.131-3.403 10.255-10.17 14.17-13.615 7.877-35.774 7.878-49.485-.003-6.901-3.967-10.347-9.174-10.332-14.372l.013-4.57c-.015 5.199 3.431 10.406 10.332 14.372 13.711 7.881 35.87 7.881 49.485.004 6.767-3.915 10.155-9.039 10.17-14.17Z"/><path fill="#fff" d="M184.583 56.228c13.714 7.927 13.786 20.78.162 28.706-13.618 7.922-35.781 7.922-49.495-.004-13.714-7.927-13.786-20.779-.168-28.701 13.624-7.927 35.787-7.927 49.501 0Z"/><path fill="url(#a)" d="m146.63 61.718 33.073 8.861-3.938 14.698-33.073-8.862 3.938-14.698Z"/><path fill="#0078D4" d="M174.388 71.943 146.63 55.885V27.797l27.758 16.058v28.088Z"/><path fill="#FEFEFE" d="M152.829 40.243c.533-.308.533-1.306 0-2.23-.533-.923-1.398-1.422-1.931-1.114-.534.308-.534 1.306-.001 2.23.533.923 1.398 1.422 1.932 1.114ZM168.703 49.87l-12.743-7.357v-3.154l12.743 7.358v3.153ZM152.829 46.55c.533-.308.533-1.306 0-2.23-.533-.923-1.398-1.422-1.931-1.114-.534.308-.534 1.306-.001 2.23.533.923 1.398 1.422 1.932 1.114ZM168.703 56.176 155.96 48.82v-3.153l12.743 7.357v3.153ZM152.829 52.857c.533-.308.533-1.307 0-2.23-.533-.924-1.398-1.423-1.931-1.115-.534.308-.534 1.306-.001 2.23.533.924 1.398 1.422 1.932 1.115ZM168.703 62.483l-12.743-7.358v-3.153l12.743 7.358v3.153Z"/><path fill="#0078D4" d="M192.666 65.604a9.389 9.389 0 0 1-4.469-8.144c0-3.896 1.997-4.799 4.751-3.21a9.147 9.147 0 0 1 4.442 8.191c0 3.444-1.785 4.86-4.724 3.163Zm.188-9.232c-1.685-.973-2.382.337-2.382 2.292 0 1.92.673 3.933 2.342 4.896 1.681.97 2.328-.39 2.328-2.323 0-1.888-.668-3.93-2.288-4.865Zm12.88 5.587-12.382 15.293-1.925-1.112 12.369-15.3 1.938 1.12Zm-1.736 21.626a9.39 9.39 0 0 1-4.468-8.144c0-3.897 1.997-4.799 4.751-3.21a9.154 9.154 0 0 1 4.441 8.19c0 3.438-1.779 4.864-4.724 3.164Zm.188-9.232c-1.686-.973-2.382.338-2.382 2.293 0 1.92.674 3.932 2.342 4.895 1.682.97 2.328-.39 2.328-2.323 0-1.888-.668-3.93-2.288-4.865ZM186.308 66.32c-2.092-1.05-3.138-.013-3.139 3.112v6.967c0 4.738-2.051 5.953-6.154 3.647V77.12c2.585 1.424 3.217.032 3.219-2.972v-6.712c0-3.268.998-4.673 2.996-4.216v-.093a10.148 10.148 0 0 1-2.996-7.722V48.6c0-3.004-1.073-5.156-3.219-6.457V39.17a11.828 11.828 0 0 1 6.154 10.846V56.8c0 3.189 1.046 5.466 3.139 6.832v2.69ZM144.094 61.395a11.77 11.77 0 0 1-6.176-10.765v-6.968c0-3.128-1.046-5.372-3.137-6.734v-2.695c2.092 1.051 3.138-.017 3.137-3.206v-6.781c0-4.8 2.059-6.043 6.176-3.727v2.969c-2.132-1.167-3.198-.248-3.198 2.755v6.81c0 3.25-1.006 4.667-3.018 4.25v.093a9.956 9.956 0 0 1 3.018 7.688v6.712a9.718 9.718 0 0 0 .718 4.088 6.119 6.119 0 0 0 2.48 2.585v2.926Z"/><path fill="url(#b)" d="M83.324 107.881h47.711v24.643H83.324z" transform="rotate(15 83.324 107.881)"/><path fill="url(#c)" d="m137.224 74.687-62.43-36.043a3.008 3.008 0 0 0-3.032-.297l-2.114 1.228a3.006 3.006 0 0 1 3.032.297l62.43 36.044a9.356 9.356 0 0 1 4.244 7.345v48.083a3.043 3.043 0 0 1-1.38 2.73l2.115-1.229a3.045 3.045 0 0 0 1.379-2.73V82.032a9.353 9.353 0 0 0-4.244-7.345Z"/><path fill="#FEFEFE" stroke="#8C8C8C" d="M136.882 133.862a3.473 3.473 0 0 1-1.686-.516l-62.43-36.044a8.811 8.811 0 0 1-3.995-6.918V42.3c.006-1.549.76-2.512 1.969-2.512.598.024 1.18.202 1.69.518l62.43 36.043a8.803 8.803 0 0 1 3.994 6.91v48.085c-.005 1.552-.76 2.518-1.972 2.518Z"/><path fill="#ACF3FD" d="M131.194 78.801a8.037 8.037 0 0 1 3.587 6.412v38.977c-.007 2.357-1.679 3.31-3.73 2.126l-54.5-31.467a8.175 8.175 0 0 1-3.707-6.418V49.454c.007-2.357 1.798-3.303 3.85-2.119l54.5 31.466Z"/><path fill="#77D672" d="M72.844 75.275V88.43a8.175 8.175 0 0 0 3.706 6.418l54.501 31.467c2.052 1.184 3.724.232 3.73-2.125v-15.337c-11.97-10.561-31.02-25.599-45.792-29.732a178.904 178.904 0 0 0-16.145-3.847Z"/><path fill="#FFF0BA" d="M82.677 58.767a7.005 7.005 0 0 1 3.289 5.604c0 2.07-1.462 2.924-3.29 1.827a7.004 7.004 0 0 1-3.288-5.603c0-2.071 1.462-2.924 3.289-1.828Z"/><path fill="#fff" d="m129.195 96.734-11.527-6.655v9.853l11.527 6.655v-9.853Z"/><path fill="#C8C6C4" d="m122.24 97.053-3.02-1.744v5.519l3.02 1.743v-5.518ZM127.766 100.244l-4.292-2.478v3.242l4.292 2.478v-3.242Z"/><path fill="#D03438" d="m116.235 90.403 7.205-2.25 7.19 10.56-14.395-8.31Z"/><path fill="#8E562E" d="m106.789 81.722-1.206-1.183a4.128 4.128 0 0 1-.988-1.731 1.161 1.161 0 0 0-.362-.553 2.44 2.44 0 0 1-.453-.525 4.186 4.186 0 0 0-2.886-2.098c-1.999-.14-2.701 2.211-3.094 2.871-.443.745-3.84 3.144-6.204 3.806a8.014 8.014 0 0 0-3.902 3.192 4.311 4.311 0 0 0-.632 3.62s.292 1.621-1.088 1.83a9.423 9.423 0 0 1-4.834-1.25 3.11 3.11 0 0 1-1.168-1.933s-.478-.892-.584-.119a3.718 3.718 0 0 0 1.195 2.633 11.165 11.165 0 0 0 4.275 1.919c1.169.237 2.746-.085 3.846.761.363.252.658.589.862.98.04.117.062.238.067.361a1.5 1.5 0 0 0 .669 1.304l6.159 3.45c.478.267.772-.073.772-.728a2.105 2.105 0 0 0-1.062-1.7l-2.532-1.121a22.734 22.734 0 0 0 3.786-3.09c.526 4.136.94 7.44.939 7.423a.636.636 0 0 0 .292.445l2.768 1.55c.161.09.292.019.295-.16a2.64 2.64 0 0 0-.343-1.385 1.533 1.533 0 0 0-.572-.556 1.597 1.597 0 0 0-.783-.203s-.132-1.115-.265-3.361c.017-2.042.216-4.08.596-6.086.078-.049.155-.097.232-.142.724-.43 1.146-2.128 1.117-3.397-.038-1.652-.504-1.838-.208-2.83a1.55 1.55 0 0 1 1.945-.984c.937.37 1.848.804 2.726 1.297.217.113.411.082.508-.08l.513-.862a1.3 1.3 0 0 0-.396-1.365Z"/><path fill="#231F20" d="M99.898 81.238a16.085 16.085 0 0 1-.254-3.67h-.109a7.665 7.665 0 0 0-.05 4.072c.352 1.175 1.023 2.3 1.939 1.948l.002-.001c-.838-.029-1.111-1.11-1.528-2.35Z" opacity=".5"/><path fill="#8E562E" d="M99.65 77.297c-.06 1.319.023 2.64.247 3.94.456 1.355.738 2.523 1.773 2.333 1.464-.27 2.037-2.557 1.314-4.498a19.652 19.652 0 0 0-1.075-2.153"/><path fill="#231F20" d="M104.33 78.866c-.098-.056-.558-.115-.44.13a.697.697 0 0 0 .482.331.159.159 0 0 0 .172-.071.142.142 0 0 0 .021-.094.142.142 0 0 0-.041-.087 1.371 1.371 0 0 0-.194-.21Z"/><path fill="#231F20" d="M102.453 81.068a16.105 16.105 0 0 0-.444-3.652l.107-.02c.627 1.231.91 2.61.819 3.989-.124 1.22-.57 2.451-1.536 2.279h-.003c.817-.186.882-1.3 1.057-2.596Z" opacity=".5"/><path fill="#231F20" d="M106.883 81.824a.613.613 0 0 0-.112.563c.123.225.275.433.452.618a1.34 1.34 0 0 0-.34-1.18Z"/><path fill="#231F20" d="M93.433 95.348a.356.356 0 0 1-.158-.224c-.06-.213-.21-.295.22-.558 1.096-.672 1.146-1.036 1.245-1.337.101-.336.146-.686.134-1.036-.102-2.121-2.294-4.061-4.163-5.094l-.018.028c2.125 1.457 4.58 3.952 3.596 6.29-.322.419-.73.764-1.196 1.012a.443.443 0 0 0-.186.159.762.762 0 0 0 .37.924c.095.076.523.01.156-.164Z" opacity=".5"/><path stroke="#000" stroke-dasharray="3 5" stroke-linecap="round" stroke-linejoin="round" stroke-width="2" d="M134.511 123.619c0 1.538-1.665 2.501-2.998 1.733l-57.396-33.04a2 2 0 0 1-1.002-1.733V49.136c0-1.538 1.664-2.5 2.998-1.733l57.395 33.04a1.999 1.999 0 0 1 1.003 1.734v41.442Z"/><defs><radialGradient id="a" cx="0" cy="0" r="1" gradientTransform="matrix(-1.96912 7.34884 -16.53665 -4.43098 161.198 73.497)" gradientUnits="userSpaceOnUse"><stop stop-opacity=".15"/><stop offset="1" stop-opacity="0"/></radialGradient><radialGradient id="b" cx="0" cy="0" r="1" gradientTransform="matrix(0 12.3214 -23.8555 0 107.179 120.203)" gradientUnits="userSpaceOnUse"><stop stop-opacity=".15"/><stop offset="1" stop-opacity="0"/></radialGradient><linearGradient id="c" x1="105.558" x2="105.558" y1="134.074" y2="38.059" gradientUnits="userSpaceOnUse"><stop offset=".004" stop-color="#393939"/><stop offset=".229" stop-color="#8C8C8C"/><stop offset=".525" stop-color="#8C8C8C"/><stop offset=".65" stop-color="#BABABA"/><stop offset="1" stop-color="#BABABA"/></linearGradient></defs></svg>