<svg xmlns="http://www.w3.org/2000/svg" fill="none" viewBox="0 0 260 153"><path fill="#C8C8C8" d="m195.999 78.507-.015 5.548c-.018 6.231-4.132 12.453-12.349 17.208-16.533 9.564-43.44 9.565-60.089-.005-8.38-4.816-12.564-11.139-12.546-17.451l.016-5.549c-.018 6.312 4.166 12.635 12.545 17.451 16.65 9.57 43.557 9.57 60.09.005 8.217-4.754 12.331-10.976 12.348-17.207Z"/><path fill="#fff" d="M183.453 63.219c16.652 9.625 16.74 25.23.196 34.856-16.536 9.62-43.448 9.62-60.101-.005-16.652-9.625-16.74-25.23-.204-34.85 16.544-9.626 43.456-9.626 60.109-.001Z"/><path fill="url(#a)" d="M131.001 56h57.742v32.996h-57.742z" transform="rotate(15 131.001 56)"/><path fill="#fff" fill-rule="evenodd" d="m134.837 14.596 35.798 20.71a8.126 8.126 0 0 1 3.689 6.396l-.113 41.13c-.009 2.358-1.671 3.307-3.716 2.123L134.689 64.29A8.166 8.166 0 0 1 131 57.885l.113-41.131c.009-2.35 1.679-3.298 3.724-2.158Zm17.829 33.779 17.847 30.907.113-39.722-35.806-20.666-.113 39.714 17.959-10.233Zm12.373-1.384c-.008 2.35-1.67 3.298-3.715 2.115a8.103 8.103 0 0 1-3.689-6.387c0-2.358 1.662-3.307 3.715-2.115a8.13 8.13 0 0 1 3.689 6.387Z" clip-rule="evenodd"/><path fill="#0173CA" d="m134.82 18.894 35.806 20.666-.113 39.722-17.847-30.908-17.959 10.233.113-39.713Zm26.504 30.211c2.045 1.184 3.707.235 3.716-2.114a8.161 8.161 0 0 0-3.69-6.396c-2.053-1.183-3.715-.235-3.715 2.123a8.097 8.097 0 0 0 3.689 6.387Z"/><path fill="url(#b)" d="M177.987 38.742a2.237 2.237 0 0 1-.043-.244c0-.2-.087-.409-.148-.609s0-.174-.07-.26a8.567 8.567 0 0 0-.278-.74.422.422 0 0 0 0-.087 10.7 10.7 0 0 0-.392-.766l-.113-.2a12.268 12.268 0 0 0-.496-.749 9.172 9.172 0 0 0-.435-.548l-.131-.13-.104-.113a7.452 7.452 0 0 0-.609-.566l-.087-.07a4.91 4.91 0 0 0-.687-.478L138.518 12.49a2.614 2.614 0 0 0-2.611-.252l-3.707 2.14a2.612 2.612 0 0 1 2.611.252l35.824 20.675c.24.14.47.297.687.47l.087.078c.218.172.421.361.609.566l.104.113c.205.212.394.44.566.679l.061.078c.157.217.296.444.435.67l.113.191c.139.261.279.522.4.792a.423.423 0 0 0 0 .087c.105.244.192.496.27.74 0 .087.052.174.07.26.017.088.104.401.148.61a2.476 2.476 0 0 0 0 .244c.037.27.057.544.061.817l-.114 41.132a2.603 2.603 0 0 1-1.079 2.384l3.681-2.14a2.608 2.608 0 0 0 1.157-2.35l.096-41.166a6.565 6.565 0 0 0 0-.818Z"/><path fill="url(#c)" fill-rule="evenodd" d="m71.143 35.48 47.984 27.759a10.896 10.896 0 0 1 4.946 8.573l-.152 55.133c-.012 3.161-2.239 4.432-4.98 2.846L70.945 102.09A10.941 10.941 0 0 1 66 93.506l.151-55.134c.012-3.149 2.252-4.42 4.992-2.892Zm23.9 45.278 23.921 41.429.152-53.245-47.996-27.7-.152 53.232 24.074-13.716Zm16.584-1.855c-.011 3.149-2.239 4.42-4.98 2.834a10.85 10.85 0 0 1-4.945-8.561c0-3.16 2.228-4.432 4.98-2.834a10.908 10.908 0 0 1 4.945 8.56Z" clip-rule="evenodd"/><path fill="url(#d)" d="m71.12 41.24 47.996 27.702-.152 53.244-23.922-41.43L70.97 94.474l.151-53.232Zm35.527 40.497c2.741 1.586 4.969.315 4.981-2.835a10.948 10.948 0 0 0-4.946-8.572c-2.752-1.587-4.98-.315-4.98 2.846a10.857 10.857 0 0 0 4.945 8.56Z"/><path fill="url(#e)" d="M128.983 67.846a3.017 3.017 0 0 1-.058-.327c0-.268-.117-.548-.199-.816-.081-.269 0-.234-.093-.35a11.435 11.435 0 0 0-.373-.992.568.568 0 0 0 0-.116c-.164-.35-.339-.7-.525-1.027l-.152-.268a16.438 16.438 0 0 0-.583-.886.764.764 0 0 1-.082-.117 12.252 12.252 0 0 0-.583-.735l-.175-.175-.14-.151c-.258-.268-.53-.521-.816-.759l-.117-.093a6.533 6.533 0 0 0-.921-.641l-48.09-27.736a3.499 3.499 0 0 0-3.498-.339l-4.969 2.87a3.499 3.499 0 0 1 3.5.338l48.018 27.713c.322.187.63.397.922.63l.116.104c.292.231.565.485.817.758l.14.152c.274.285.527.589.758.91l.081.105c.21.291.397.595.584.898l.151.257c.187.35.373.7.537 1.06a.456.456 0 0 0 0 .118c.14.326.256.664.361.991 0 .117.07.233.094.35.023.117.14.536.198.816a2.965 2.965 0 0 0 0 .327c.05.363.077.73.082 1.096l-.152 55.134a3.503 3.503 0 0 1-1.446 3.196l4.933-2.869a3.498 3.498 0 0 0 1.552-3.15l.128-55.18a9.115 9.115 0 0 0 0-1.096Z"/><path fill="url(#f)" d="M69.859 104.207h55.021v26.503H69.859z" transform="rotate(15 69.86 104.207)"/><defs><linearGradient id="b" x1="155.1" x2="155.1" y1="12" y2="85.216" gradientUnits="userSpaceOnUse"><stop stop-color="#E1DFDD"/><stop offset="1" stop-color="#B3B0AD"/></linearGradient><linearGradient id="c" x1="69.274" x2="132.4" y1="39.906" y2="114.149" gradientUnits="userSpaceOnUse"><stop stop-color="#68D6F7"/><stop offset=".958" stop-color="#32B0E7"/></linearGradient><linearGradient id="d" x1="95.087" x2="95.087" y1="44.153" y2="134.869" gradientUnits="userSpaceOnUse"><stop stop-color="#0078D4"/><stop offset="1" stop-color="#005BA1"/></linearGradient><linearGradient id="e" x1="98.254" x2="98.254" y1="130.14" y2="32" gradientUnits="userSpaceOnUse"><stop stop-color="#2081D4"/><stop offset=".479" stop-color="#45CAF2"/><stop offset="1" stop-color="#8CEFFF"/></linearGradient><radialGradient id="a" cx="0" cy="0" r="1" gradientTransform="matrix(0 16.4978 -28.8711 0 159.872 72.498)" gradientUnits="userSpaceOnUse"><stop stop-opacity=".15"/><stop offset="1" stop-opacity="0"/></radialGradient><radialGradient id="f" cx="0" cy="0" r="1" gradientTransform="matrix(0 13.2517 -27.5103 0 97.37 117.458)" gradientUnits="userSpaceOnUse"><stop stop-opacity=".15"/><stop offset="1" stop-opacity="0"/></radialGradient></defs></svg>