<svg xmlns="http://www.w3.org/2000/svg" fill="none" viewBox="0 0 260 153"><path fill="#C8C8C8" d="m202.225 64.491-.013 4.57c-.014 5.131-3.402 10.255-10.169 14.17-13.615 7.878-35.774 7.878-49.485-.003-6.901-3.967-10.347-9.173-10.332-14.371l.013-4.57c-.015 5.198 3.431 10.405 10.332 14.371 13.711 7.881 35.87 7.881 49.485.004 6.767-3.915 10.155-9.039 10.169-14.17Z"/><path fill="#fff" d="M191.893 51.179c13.714 7.926 13.786 20.778.161 28.705-13.617 7.922-35.78 7.922-49.494-.004-13.714-7.927-13.786-20.779-.169-28.701 13.625-7.927 35.788-7.927 49.502 0Z"/><path fill="url(#a)" d="m150.695 56.499 33.073 8.862-3.938 14.698-33.074-8.862 3.939-14.698Z"/><path fill="#0078D4" d="M187.319 60.756c-2.177-1.096-3.265-.017-3.266 3.237v7.25c0 4.93-2.134 6.195-6.404 3.795v-3.045c1.214.669 2.076.764 2.585.285.509-.48.764-1.605.765-3.378v-6.984c0-3.4 1.039-4.862 3.117-4.387v-.097a10.545 10.545 0 0 1-3.117-8.035v-7.081c0-3.126-1.117-5.366-3.35-6.72v-3.093a12.304 12.304 0 0 1 6.404 11.287v7.057c0 3.319 1.089 5.687 3.266 7.105v2.804ZM152.284 60.767a12.258 12.258 0 0 1-4.81-4.685 12.258 12.258 0 0 1-1.617-6.517v-7.25c0-3.255-1.088-5.591-3.264-7.008v-2.804c2.176 1.096 3.264-.016 3.264-3.336V22.11c0-4.995 2.142-6.288 6.426-3.878v3.093c-2.219-1.216-3.328-.262-3.328 2.864v7.081c0 3.384-1.046 4.858-3.139 4.423v.096a10.364 10.364 0 0 1 2.439 3.659c.541 1.38.78 2.86.7 4.341v6.984c-.062 1.457.191 2.91.742 4.26a6.37 6.37 0 0 0 2.587 2.69v3.044ZM163.788 29.505l-10.159 24.043 2.747 1.585 2.671-6.316 10.81 6.244 2.339 9.211 3.808 2.204-8.9-35.056-3.316-1.915Zm-3.507 16.386 4.531-10.719 3.967 15.63-8.498-4.911Z"/><path fill="url(#b)" d="m144.138 119.835 34.376 9.211-4.555 17-34.376-9.211 4.555-17Z"/><path fill="url(#c)" d="m177.751 88.348-32.985-19.044a1.934 1.934 0 0 0-1.949-.19l-2.012 1.168a1.934 1.934 0 0 1 1.949.19l32.986 19.045a5.908 5.908 0 0 1 2.623 4.729v37.903a1.925 1.925 0 0 1-.798 1.758l2.011-1.169a1.976 1.976 0 0 0 .905-1.758V93.077a6.011 6.011 0 0 0-2.73-4.729Z"/><path fill="url(#d)" stroke="#8C8C8C" d="M176.848 133.616a2.056 2.056 0 0 1-.994-.313l-32.985-19.044a5.443 5.443 0 0 1-2.385-4.316V72.039c.003-.917.393-1.466 1.043-1.466.352.017.693.125.992.312l32.985 19.045a5.44 5.44 0 0 1 2.384 4.315v37.904c-.002.918-.39 1.467-1.04 1.467Z"/><path fill="#000" d="M149.913 110.997V85.56l22.029 12.718v11.939c-.2 1.261-4.234 4.64-7.359 6.395a4.984 4.984 0 0 1-4.926-.036l-9.744-5.579Z" opacity=".2"/><path fill="url(#e)" d="M148.321 109.519V83.581l22.462 12.97v12.173c-.286 1.786-8.112 7.744-10.52 7.634l-11.942-6.839Z"/><path fill="#156AB3" d="M163.396 111.189a6.41 6.41 0 0 1-1.149-3.079 23.412 23.412 0 0 1-.279-2.036c.708.936 1.706.4 1.011-.609a8.815 8.815 0 0 0-1.149-1.358 41.673 41.673 0 0 0-.663-7.284 4.35 4.35 0 0 0-1.881-2.917 2.857 2.857 0 0 0-1.451-.225 2.74 2.74 0 0 0-1.35.518 7.377 7.377 0 0 0-3.138 3.96 33.928 33.928 0 0 0-1.764 7.215c-.026.226.009.455.1.662.095.216.242.405.427.55.354.28.866.318.925-.064.227-1.47.514-2.917.868-4.309a.613.613 0 0 0 .236.028 9.486 9.486 0 0 1 4.2 1.148c.722.299 1.411.669 2.057 1.107a26.52 26.52 0 0 0 .573 4.113 8.17 8.17 0 0 0 1.668 3.518c.811.958 1.564.014.759-.938Zm-4.93-9.279a15.189 15.189 0 0 0-4.1-1.357 8.298 8.298 0 0 1 2.564-4.33 3.352 3.352 0 0 1 2.044-.856c.333.011.452.191.595.581.176.553.294 1.123.352 1.7.223 1.743.351 3.496.384 5.252a13.446 13.446 0 0 0-1.839-.99Z"/><path fill="#FFF2BB" d="M162.817 107.845s-1.54 7.478-2.553 8.513c2.578.419 10.178-5.365 10.52-7.6-1.586.35-7.967-.913-7.967-.913Z"/><path fill="url(#f)" d="m100.138 94.835 34.376 9.211-4.555 17-34.376-9.211 4.555-17Z"/><path fill="url(#g)" d="m134.253 64.068-32.985-19.044a1.936 1.936 0 0 0-1.949-.19l-2.011 1.168a1.933 1.933 0 0 1 1.948.19l32.986 19.045a5.907 5.907 0 0 1 2.623 4.729v37.903a1.915 1.915 0 0 1-.798 1.758l2.011-1.169a1.968 1.968 0 0 0 .906-1.758V68.797a6.024 6.024 0 0 0-2.731-4.729Z"/><path fill="url(#h)" stroke="#8C8C8C" d="M133.351 109.336a2.052 2.052 0 0 1-.994-.313L99.371 89.979a5.443 5.443 0 0 1-2.385-4.316V47.759c.003-.917.393-1.466 1.044-1.466.351.017.693.125.99.312l32.986 19.045a5.44 5.44 0 0 1 2.385 4.315v37.904c-.003.918-.391 1.467-1.04 1.467Z"/><path fill="#000" fill-opacity=".2" d="m127.667 96.531-21.041-12.149V62.889l21.041 12.149v21.493Z"/><path fill="#F6F6F6" d="m126.289 94.47-21.041-12.148V60.829l21.041 12.149V94.47Z"/><path stroke="#0078D4" stroke-miterlimit="10" stroke-width=".75" d="M112.53 68.28V86.11M119.005 72.019v17.798M126.055 81.545l-20.632-11.912M126.055 85.666l-20.632-11.912M125.868 89.693l-20.445-11.804"/><path fill="#0078D4" d="m106.248 62.56 19.041 10.995v19.184l-19.041-10.994V62.56Zm-1-1.731v21.493l21.041 12.149V72.978l-21.041-12.15Z"/><path fill="#255694" d="m126.289 77.65-21.041-12.148v-4.673l21.041 12.149v4.672Z"/><path fill="url(#i)" d="m58.138 70.835 34.376 9.211-4.555 17-34.376-9.21 4.555-17.001Z"/><path fill="url(#j)" d="M90.751 39.788 57.766 20.744a1.932 1.932 0 0 0-1.949-.19l-2.011 1.168a1.932 1.932 0 0 1 1.949.19L88.74 40.957a5.91 5.91 0 0 1 2.623 4.729v37.902a1.917 1.917 0 0 1-.798 1.759l2.011-1.169a1.973 1.973 0 0 0 .906-1.758V44.517a6.02 6.02 0 0 0-2.73-4.73Z"/><path fill="url(#k)" stroke="#8C8C8C" d="M89.849 85.056a2.06 2.06 0 0 1-.994-.313L55.869 65.699a5.443 5.443 0 0 1-2.385-4.317V23.48c.003-.918.393-1.466 1.044-1.466.351.017.693.124.99.312l32.986 19.044a5.442 5.442 0 0 1 2.385 4.316v37.903c-.003.919-.39 1.468-1.04 1.468Z"/><path fill="#000" fill-opacity=".2" d="M79.88 63.474a42.62 42.62 0 0 1-.313 8.686l-12.48-7.2c1.542-8.62-1.435-15.63-1.363-21.229.043-2.26.47-4.497 1.259-6.615l12.475 7.2a9.236 9.236 0 0 0-1.275 4.7c.004 3.653 1.349 9.161 1.697 14.458Z"/><path fill="url(#l)" stroke="#0078D4" d="M78.66 62.255a42.627 42.627 0 0 1-.313 8.686l-12.48-7.2c1.542-8.62-1.435-15.63-1.363-21.229.044-2.26.47-4.496 1.259-6.615l12.475 7.2a9.236 9.236 0 0 0-1.275 4.7c.004 3.653 1.349 9.161 1.697 14.458Z"/><path fill="#0078D4" d="m73.764 43.522-4.888-2.825v-1.053l4.885 2.82.003 1.058ZM66.91 45.029l4.274 2.467v-.7l-4.273-2.467v.7ZM73.321 48.752l1.526.88v-.7l-1.526-.881v.7ZM66.91 42.914l4.274 2.47v-.704l-4.273-2.467v.7ZM73.016 46.439l1.831 1.057v-.7l-1.83-1.057v.7ZM67.263 47.144l3.052 1.762v-.7l-3.052-1.762v.7ZM73.063 50.515l2.137 1.233v-.705l-2.137-1.233v.705ZM67.616 49.236l3.662 2.114v-.7l-3.662-2.114v.7ZM73.721 52.785l1.836 1.055v-.7l-1.83-1.058-.006.703ZM67.792 51.305l3.052 1.762v-.7l-3.052-1.762v.7ZM73.897 54.829l1.831 1.056v-.7l-1.83-1.061v.705ZM72.51 64.6v1.036c0 .226-.158.32-.345.205a.788.788 0 0 1-.356-.61v-.992a7.29 7.29 0 0 1-1.782-1.417c-.183-.2-.29-.459-.304-.73v-.06c0-.44.386-.505.738-.137.397.43.85.804 1.347 1.114v-2.962a11.385 11.385 0 0 1-1.765-2.36 3.915 3.915 0 0 1-.4-1.685c0-1.382.95-1.85 2.165-1.34v-.786c0-.226.159-.32.356-.205a.77.77 0 0 1 .25.266.782.782 0 0 1 .106.345v.765c.467.275.906.593 1.312.952.22.206.35.49.365.79 0 .519-.379.519-.691.225a6.312 6.312 0 0 0-.974-.739v3.076a12.067 12.067 0 0 1 1.727 2.326c.682 1.325.61 2.622-.116 3.021a1.9 1.9 0 0 1-1.622-.097l-.01-.001Zm-.709-6.045v-2.656a.734.734 0 0 0-.69.029c-.358.252-.312 1.026-.047 1.573.201.381.448.737.734 1.059l.003-.005Zm.71 2.257v2.568c.655.22.983.016.983-.613a3.371 3.371 0 0 0-.983-1.95v-.005Z"/><defs><linearGradient id="c" x1="160.643" x2="160.643" y1="133.907" y2="68.928" gradientUnits="userSpaceOnUse"><stop offset=".004" stop-color="#393939"/><stop offset=".198" stop-color="#8C8C8C"/><stop offset=".525" stop-color="#8C8C8C"/><stop offset=".65" stop-color="#BABABA"/><stop offset="1" stop-color="#BABABA"/></linearGradient><linearGradient id="d" x1="141.699" x2="192.398" y1="73.457" y2="128.172" gradientUnits="userSpaceOnUse"><stop offset=".43" stop-color="#fff"/><stop offset="1" stop-color="#D5D5D5"/></linearGradient><linearGradient id="e" x1="151.939" x2="165.414" y1="89.387" y2="113.543" gradientUnits="userSpaceOnUse"><stop offset=".001" stop-color="#FFE484"/><stop offset=".592" stop-color="#FFD400"/><stop offset="1" stop-color="#FAA21D"/></linearGradient><linearGradient id="g" x1="117.146" x2="117.146" y1="109.627" y2="44.648" gradientUnits="userSpaceOnUse"><stop offset=".004" stop-color="#393939"/><stop offset=".214" stop-color="#8C8C8C"/><stop offset=".525" stop-color="#8C8C8C"/><stop offset=".65" stop-color="#BABABA"/><stop offset="1" stop-color="#BABABA"/></linearGradient><linearGradient id="h" x1="98.201" x2="148.901" y1="49.177" y2="103.892" gradientUnits="userSpaceOnUse"><stop offset=".43" stop-color="#fff"/><stop offset="1" stop-color="#D5D5D5"/></linearGradient><linearGradient id="j" x1="73.644" x2="73.644" y1="85.347" y2="20.368" gradientUnits="userSpaceOnUse"><stop offset=".004" stop-color="#393939"/><stop offset=".188" stop-color="#8C8C8C"/><stop offset=".525" stop-color="#8C8C8C"/><stop offset=".65" stop-color="#BABABA"/><stop offset="1" stop-color="#BABABA"/></linearGradient><linearGradient id="k" x1="54.7" x2="105.399" y1="24.897" y2="79.612" gradientUnits="userSpaceOnUse"><stop offset=".43" stop-color="#fff"/><stop offset="1" stop-color="#D5D5D5"/></linearGradient><linearGradient id="l" x1="75.931" x2="68.089" y1="41.819" y2="65.258" gradientUnits="userSpaceOnUse"><stop stop-color="#fff"/><stop offset=".583" stop-color="#fff"/><stop offset="1" stop-color="#B1F4FF"/></linearGradient><radialGradient id="a" cx="0" cy="0" r="1" gradientTransform="matrix(-1.96912 7.34884 -16.53665 -4.43098 165.262 68.279)" gradientUnits="userSpaceOnUse"><stop stop-opacity=".15"/><stop offset="1" stop-opacity="0"/></radialGradient><radialGradient id="b" cx="0" cy="0" r="1" gradientTransform="rotate(105 28.52 127.49) scale(8.8 17.7946)" gradientUnits="userSpaceOnUse"><stop stop-opacity=".15"/><stop offset="1" stop-opacity="0"/></radialGradient><radialGradient id="f" cx="0" cy="0" r="1" gradientTransform="rotate(105 16.111 98.11) scale(8.8 17.7946)" gradientUnits="userSpaceOnUse"><stop stop-opacity=".15"/><stop offset="1" stop-opacity="0"/></radialGradient><radialGradient id="i" cx="0" cy="0" r="1" gradientTransform="rotate(105 4.32 69.996) scale(8.8 17.7946)" gradientUnits="userSpaceOnUse"><stop stop-opacity=".15"/><stop offset="1" stop-opacity="0"/></radialGradient></defs></svg>