<svg xmlns="http://www.w3.org/2000/svg" fill="none" viewBox="0 0 99 121"><path fill="#D5D5D5" d="M92.178 58.489c-.043-4.713.16-9.394.21-14.177.107-5.85.133-11.71.333-17.63.032-.243-.19-.437-.435-.47-6.105.446-13.207-.972-20.226-4.279-8.675-3.935-15.483-10.105-18.948-16.501-.13-.265-.435-.47-.68-.501l-.08-.01-.082-.011c-.255.05-.532.26-.726.483-3.716 6.207-10.711 12.152-19.577 15.955-7.12 3.122-14.31 4.252-20.357 3.632-.244-.032-.439.19-.47.434-.027 5.86-.216 11.699-.253 17.64-.039 4.702-.078 9.404-.291 14.166-.537 10.997 2.224 20.853 7.599 29.727 7.564 12.38 19.149 21.895 30.636 29.004.457.307 1.016.462 1.494.607l.082.01.081.011a4.578 4.578 0 0 0 1.48-.551c11.656-6.744 23.632-15.924 31.602-28.019 5.708-8.755 8.733-18.52 8.608-29.52Z"/><path fill="#fff" d="M85 59.538c-.078-3.809.098-7.667.194-11.536.05-4.784.1-9.567.231-14.34.032-.243-.12-.346-.364-.377-5.015.34-10.835-.747-16.686-3.49-7.182-3.328-12.733-8.344-15.615-13.508-.13-.265-.364-.377-.609-.41l-.081-.01-.081-.01a.741.741 0 0 0-.553.423c-3.067 5.052-8.762 9.928-16.044 13.028-5.884 2.54-11.798 3.422-16.787 2.94-.163-.022-.347.12-.38.363-.05 4.783-.18 9.556-.23 14.34-.096 3.869-.018 7.678-.194 11.536-.443 9.027 1.82 17.001 6.258 24.184 6.213 10.057 15.792 17.826 25.128 23.664.386.215.782.349 1.26.494l.081.01.082.011c.418-.028.857-.219 1.215-.42 9.59-5.526 19.436-13 25.945-22.808 4.833-7.135 7.368-15.064 7.23-24.084Z"/><path fill="#fff" d="M51.76 16.241c-3.066 5.052-8.84 9.916-16.12 13.016-5.964 2.528-11.877 3.411-16.864 2.928-.163-.021-.347.12-.379.364-.05 4.782-.181 9.555-.231 14.337-.096 3.869-.017 7.677-.194 11.535-.443 9.026 1.82 17 6.256 24.182 6.212 10.055 15.87 17.833 25.284 23.681.304.205.7.339 1.097.473l1.612-90.869a.992.992 0 0 0-.46.353Z"/><path fill="#85D3E7" d="M51.232 81.144c10.891 0 19.72-8.79 19.72-19.633s-8.829-19.633-19.72-19.633c-10.892 0-19.721 8.79-19.721 19.633s8.83 19.633 19.72 19.633Z"/><path fill="#C6E8ED" d="M39.235 55c-.164-3.109-1.676-4.974-3.155-6.054a19.438 19.438 0 0 0-4.57 12.533 19.51 19.51 0 0 0 5.424 13.514c1.118-1.113 2.53-3.043 2.794-5.694.427-4.483-3.648-8.704-3.648-8.704s3.286-2.814 3.155-5.595ZM69.638 68.513c-1.085-1.538-3.813-4.156-9.368-2.847-5.259 1.21-5.554 4.843-5.193 7.002.362 2.29-.197 4.646-1.709 6.413-.822.95-1.94 1.735-3.418 2.03.427.032.854.032 1.282.032 8.381 0 15.58-5.236 18.406-12.63ZM51.232 41.878c-3.616 0-6.968.982-9.894 2.65 1.775 1.44 4.207 3.01 6.508 3.305 7.034.884 11.668-1.538 13.772-3.01a19.703 19.703 0 0 0-10.386-2.945ZM45.808 55.064c1.598 0 2.893-1.187 2.893-2.65 0-1.465-1.295-2.651-2.893-2.651-1.597 0-2.892 1.186-2.892 2.65s1.295 2.65 2.892 2.65Z"/></svg>