<?xml version="1.0" encoding="UTF-8"?>
<svg width="64px" height="64px" viewBox="0 0 64 64" version="1.1" xmlns="http://www.w3.org/2000/svg" xmlns:xlink="http://www.w3.org/1999/xlink">
    <!-- Generator: Sketch 57.1 (83088) - https://sketch.com -->
    <title>Group 2</title>
    <desc>Created with Sketch.</desc>
    <g id="Page-1" stroke="none" stroke-width="1" fill="none" fill-rule="evenodd">
        <g id="Group-2" fill="#3175FF">
            <g id="pictograms/web-application/web-01">
                <path d="M63.2487745,62.5 C63.6633443,62.5 63.99875,62.8354167 63.99875,63.25 C63.99875,63.6645833 63.6633443,64 63.2487745,64 L0.750808893,64 C0.336239055,64 0.000833306207,63.6645833 0.000833306207,63.25 C0.000833306207,62.8354167 0.336239055,62.5 0.750808893,62.5 L63.2487745,62.5 Z M63.2487745,56.25 C63.6633443,56.25 63.99875,56.5854167 63.99875,57 C63.99875,57.4145833 63.6633443,57.75 63.2487745,57.75 L0.750808893,57.75 C0.336239055,57.75 0.000833306207,57.4145833 0.000833306207,57 C0.000833306207,56.5854167 0.336239055,56.25 0.750808893,56.25 L63.2487745,56.25 Z M63.2487745,50 C63.6633443,50 63.99875,50.3354167 63.99875,50.75 C63.99875,51.1645833 63.6633443,51.5 63.2487745,51.5 L0.750808893,51.5 C0.336239055,51.5 0.000833306207,51.1645833 0.000833306207,50.75 C0.000833306207,50.3354167 0.336239055,50 0.750808893,50 L63.2487745,50 Z M63.2479411,0 C63.6645943,0 64,0.335416667 64,0.75 L64,44.5 C64,44.9145833 63.6645943,45.25 63.2479411,45.25 L0.749975587,45.25 C0.335405749,45.25 0,44.9145833 0,44.5 L0,0.75 C0,0.335416667 0.335405749,0 0.749975587,0 L63.2479411,0 Z M62.497,7.75 L1.502,7.75 L1.50203444,43.75 L62.4979656,43.75 L62.497,7.75 Z M62.4979656,1.5 L1.50203444,1.5 L1.502,6.25 L62.497,6.25 L62.4979656,1.5 Z M58.0406107,2.83354167 C58.6155919,2.83354167 59.0822434,3.30020833 59.0822434,3.87520833 C59.0822434,4.45020833 58.6155919,4.916875 58.0406107,4.916875 C57.4656294,4.916875 56.9989779,4.45020833 56.9989779,3.87520833 C56.9989779,3.30020833 57.4656294,2.83354167 58.0406107,2.83354167 Z M53.8740796,2.83354167 C54.4490609,2.83354167 54.9157124,3.30020833 54.9157124,3.87520833 C54.9157124,4.45020833 54.4490609,4.916875 53.8740796,4.916875 C53.2990983,4.916875 52.8324469,4.45020833 52.8324469,3.87520833 C52.8324469,3.30020833 53.2990983,2.83354167 53.8740796,2.83354167 Z M49.7075486,2.83354167 C50.2825299,2.83354167 50.7491813,3.30020833 50.7491813,3.87520833 C50.7491813,4.45020833 50.2825299,4.916875 49.7075486,4.916875 C49.1325673,4.916875 48.6659158,4.45020833 48.6659158,3.87520833 C48.6659158,3.30020833 49.1325673,2.83354167 49.7075486,2.83354167 Z" id="Fill-13"></path>
            </g>
            <path d="M17.2364244,37.1649123 C17.4026734,37.1649123 17.5371763,37.2940351 17.5371763,37.4536341 C17.5371763,37.6132331 17.4026734,37.7423559 17.2364244,37.7423559 L12.2238931,37.7423559 C12.0576441,37.7423559 11.9231412,37.6132331 11.9231412,37.4536341 C11.9231412,37.2940351 12.0576441,37.1649123 12.2238931,37.1649123 L17.2364244,37.1649123 Z M18.0411886,35.5609023 C18.2059123,35.5609023 18.3391813,35.6900251 18.3391813,35.8496241 C18.3391813,36.0092231 18.2059123,36.1383459 18.0411886,36.1383459 L11.4191289,36.1383459 C11.2544051,36.1383459 11.1211362,36.0092231 11.1211362,35.8496241 C11.1211362,35.6900251 11.2544051,35.5609023 11.4191289,35.5609023 L18.0411886,35.5609023 Z M18.0411886,33.9568922 C18.2059123,33.9568922 18.3391813,34.086015 18.3391813,34.245614 C18.3391813,34.405213 18.2059123,34.5343358 18.0411886,34.5343358 L11.4191289,34.5343358 C11.2544051,34.5343358 11.1211362,34.405213 11.1211362,34.245614 C11.1211362,34.086015 11.2544051,33.9568922 11.4191289,33.9568922 L18.0411886,33.9568922 Z M14.7301587,12.1904762 C19.002849,12.1904762 22.3492063,15.7560893 22.3492063,20.3086357 C22.3492063,22.4883244 21.4936915,24.6123399 19.9413919,26.2859089 C18.4121775,27.9334634 18.2898403,29.8159128 18.2800533,31.1713123 L18.2792023,32.7389347 C18.2792023,32.9067977 18.1481481,33.0426065 17.986162,33.0426065 L11.4741555,33.0426065 C11.3121693,33.0426065 11.1811152,32.9067977 11.1811152,32.7389347 L11.1811152,31.5124381 C11.1811152,30.1450714 11.1811152,28.076729 9.51973952,26.2859089 C7.96662597,24.6123399 7.11111111,22.4883244 7.11111111,20.3086357 C7.11111111,15.7560893 10.4582825,12.1904762 14.7301587,12.1904762 Z M14.7301587,12.7978198 C10.7863248,12.7978198 7.6971917,16.0968765 7.6971917,20.3086357 C7.6971917,22.3314273 8.49409849,24.3044504 9.94220594,25.8649861 C11.7671958,27.8329481 11.7671958,30.1357926 11.7671958,31.5124381 L11.7671958,32.4352629 L17.6931217,32.4352629 L17.6938634,31.1917833 C17.7031354,29.7964679 17.8283061,27.6871731 19.5181115,25.8649861 C20.966219,24.3044504 21.7631258,22.3314273 21.7631258,20.3086357 C21.7631258,16.0968765 18.6739927,12.7978198 14.7301587,12.7978198 Z" id="Fill-7"></path>
        </g>
    </g>
</svg>