<?xml version="1.0" encoding="utf-8"?>
<!-- Generator: Adobe Illustrator 16.0.0, SVG Export Plug-In . SVG Version: 6.00 Build 0)  -->
<!DOCTYPE svg PUBLIC "-//W3C//DTD SVG 1.1//EN" "http://www.w3.org/Graphics/SVG/1.1/DTD/svg11.dtd">
<svg version="1.1" xmlns="http://www.w3.org/2000/svg" xmlns:xlink="http://www.w3.org/1999/xlink" x="0px" y="0px" width="32px"
	 height="32px" viewBox="0 50 32 32" enable-background="new 0 50 32 32" xml:space="preserve">
<g id="Layer_2">
	<rect y="50" fill="#01579B" stroke="#01579B" stroke-miterlimit="10" width="32" height="32"/>
</g>
<g id="Layer_1">
	<g>
		<g>
			<path fill="#FFFFFF" d="M9.973,75.928c-0.302,0-0.546-0.244-0.546-0.546v-2.857h1.092v2.857
				C10.519,75.684,10.274,75.928,9.973,75.928z"/>
			<path fill="#FFFFFF" d="M11.698,78.195c-0.302,0-0.546-0.244-0.546-0.546v-5.1h1.092v5.1C12.244,77.951,12,78.195,11.698,78.195z
				"/>
			<path fill="#FFFFFF" d="M13.607,79.915c-0.301,0-0.546-0.244-0.546-0.546v-6.806h1.092v6.806
				C14.153,79.67,13.909,79.915,13.607,79.915z"/>
			<path fill="#FFFFFF" d="M15.384,81.094c-0.302,0-0.546-0.245-0.546-0.546v-8.022h1.092v8.022
				C15.93,80.849,15.685,81.094,15.384,81.094z"/>
			<path fill="#FFFFFF" d="M20.805,75.928c-0.301,0-0.546-0.244-0.546-0.546v-2.857h1.092v2.857
				C21.351,75.684,21.106,75.928,20.805,75.928z"/>
			<path fill="#FFFFFF" d="M19.079,78.195c-0.301,0-0.546-0.244-0.546-0.546v-5.085h1.092v5.085
				C19.625,77.951,19.381,78.195,19.079,78.195z"/>
			<path fill="#FFFFFF" d="M17.17,79.915c-0.302,0-0.546-0.244-0.546-0.546v-6.764h1.092v6.764
				C17.716,79.67,17.472,79.915,17.17,79.915z"/>
		</g>
		<path fill="#E97523" d="M27.089,50.906c0,0-10.943,8.025-10.941,8.025s-2.209,10.892-2.209,10.892l-3.605,2.701l20.941,0.246
			l-10.761-5.545l-0.961-8.875L27.089,50.906z"/>
		<polyline fill="#F9A825" points="27.089,50.906 13.366,57.128 11.505,66.897 1.021,72.549 10.334,72.524 13.939,69.823 
			16.148,58.931 		"/>
	</g>
</g>
</svg>
