<?xml version="1.0" encoding="UTF-8"?><svg id="stormforge-icon-set" xmlns="http://www.w3.org/2000/svg" viewBox="0 0 32 32"><rect width="32" height="32"/><path d="m24.805,12.192c.371-.104.817-.163,1.188-.252v-1.886h-5.612l-1.915,2.272,2.643.104-6.667,6.236,3.177-4.855-2.955-.089,2.628-3.667h-7.335c-.045.327-.074.624-.119.965H2.103c.104.223.134.371.238.475,1.693,1.841,3.727,3.088,6.206,3.519.609.104,1.232.074,1.826.178,1.088.164,1.912,1.069,1.975,2.168.119,1.396-.609,2.257-2.405,2.821v1.767h5.939c.49-1.411,1.01-1.901,2.034-1.901s1.574.549,2.019,1.901h6.028c-.015-.356-.015-.742,0-1.099.074-.638-.119-.891-.831-.995-1.722-.252-3.073-1.856-3.163-3.534-.074-1.96,1.024-3.593,2.836-4.128" fill="#fff"/></svg>