<svg id="Layer_1" data-name="Layer 1" xmlns="http://www.w3.org/2000/svg" xmlns:xlink="http://www.w3.org/1999/xlink" viewBox="0 0 32 32"><defs><clipPath id="clip-path"><rect y="11.86" width="32" height="8.29" fill="none"/></clipPath></defs><polygon points="0 13.22 0 14.41 1.91 14.41 1.91 19.86 3.15 19.86 3.15 14.41 5.07 14.41 5.07 13.22 0 13.22" fill="#323e48"/><g clip-path="url(#clip-path)"><path d="M8.42,17.37H7.61v2.49H6.38V13.22H8.85a2,2,0,0,1,2.23,2.08,2,2,0,0,1-1.39,1.93l1.67,2.63H9.91Zm-.81-1.1H8.72c.8,0,1.1-.48,1.1-1a.91.91,0,0,0-1-1H7.61Z" fill="#323e48"/></g><rect x="12.92" y="13.22" width="1.23" height="6.64" fill="#323e48"/><polygon points="16.2 13.22 17.43 13.22 17.43 18.68 20.84 18.68 20.84 19.86 16.2 19.86 16.2 13.22" fill="#323e48"/><rect x="22.2" y="13.22" width="1.23" height="6.64" fill="#323e48"/><g clip-path="url(#clip-path)"><path d="M28.49,19.66a3,3,0,0,0,3-3.09,3,3,0,0,0-3-3.11h-.35v.24h.35a2.9,2.9,0,0,1,2,4.91,2.81,2.81,0,0,1-4.79-2,3,3,0,0,1,.69-1.91l-.17-.17a3.15,3.15,0,0,0-.76,2.08,3,3,0,0,0,3,3.09" fill="#76bc21"/><path d="M28.49,20.14a3.47,3.47,0,0,0,2.5-1A3.63,3.63,0,0,0,28.51,13h-.13V11.86l-1.63,1.73,1.63,1.73V14.18h.11a2.42,2.42,0,0,1,1.66,4.09,2.34,2.34,0,0,1-4-1.7A2.43,2.43,0,0,1,26.72,15l-.17-.18a2.68,2.68,0,0,0-.63,1.75,2.54,2.54,0,0,0,2.57,2.62,2.57,2.57,0,0,0,1.83-.75,2.6,2.6,0,0,0,.74-1.87,2.57,2.57,0,0,0-2.57-2.63h-.35v.78l-1.06-1.13,1.06-1.13v.76h.35a3.28,3.28,0,0,1,3.27,3.35A3.33,3.33,0,0,1,30.82,19a3.26,3.26,0,0,1-2.33.94,3.23,3.23,0,0,1-3.27-3.33,3.43,3.43,0,0,1,.83-2.25l-.17-.17a3.64,3.64,0,0,0-.9,2.42,3.46,3.46,0,0,0,3.51,3.57" fill="#76bc21"/></g></svg>