<svg xmlns="http://www.w3.org/2000/svg" id="Build_icon_here" data-name="Build icon here" viewBox="0 0 32 32"><defs><linearGradient id="linear-gradient" x1="6380.949" x2="6380.934" y1="-7747.655" y2="-7764.536" gradientTransform="rotate(115.057 953.004 -5525.47) scale(1 .9054)" gradientUnits="userSpaceOnUse"><stop offset=".1" stop-opacity="0"/><stop offset=".58"/></linearGradient><linearGradient id="linear-gradient-2" x1="1186.526" x2="1199.825" y1="2863.169" y2="2845.109" gradientTransform="matrix(.83121 .55596 -.27386 .40945 -198.894 -1827.398)" gradientUnits="userSpaceOnUse"><stop offset=".3"/><stop offset="1" stop-opacity="0"/></linearGradient><linearGradient id="linear-gradient-3" x1="-4995.033" x2="-4981.733" y1="-20162.836" y2="-20180.895" gradientTransform="rotate(-146.223 -971.406 -5714.549) scale(1 .4926)" gradientUnits="userSpaceOnUse"><stop offset=".32"/><stop offset=".354" stop-opacity=".797"/><stop offset=".7" stop-opacity="0"/></linearGradient><linearGradient id="linear-gradient-4" x1="0" x2="32" y1="32" y2="0" gradientUnits="userSpaceOnUse"><stop offset=".1" stop-color="#a16eff"/><stop offset=".9" stop-color="#0f62fa"/></linearGradient><style>.cls-3{fill:#001d6c}</style><mask id="mask" width="32" height="32" x="0" y="0" maskUnits="userSpaceOnUse"><path d="M16 1C12.05 1 8.322 2.522 5.502 5.286l1.4 1.428A12.924 12.924 0 0 1 16 3c.977 0 1.93.11 2.845.315-3.402.92-5.915 4.026-5.915 7.715 0 .782.118 1.537.328 2.252a7.962 7.962 0 0 0-2.188-.312c-3.704 0-6.819 2.534-7.725 5.957A12.959 12.959 0 0 1 3 16c0-2.117.492-4.134 1.462-5.996L2.689 9.08A15.031 15.031 0 0 0 1 16C1 24.27 7.73 31 16 31c3.95 0 7.678-1.523 10.498-4.286l-1.4-1.428A12.928 12.928 0 0 1 16 29c-3.648 0-6.945-1.516-9.309-3.945a5.957 5.957 0 0 1-1.62-4.085c0-3.309 2.69-6 6-6a6.005 6.005 0 0 1 5.897 7.107l1.967.367a7.964 7.964 0 0 0-.192-3.726 7.961 7.961 0 0 0 2.187.312c3.71 0 6.829-2.542 7.73-5.974.22.947.34 1.931.34 2.944 0 2.117-.492 4.134-1.462 5.995l1.773.924A15.028 15.028 0 0 0 31 16c0-8.271-6.729-15-15-15Zm4.93 16.03c-3.309 0-6-2.692-6-6s2.691-6 6-6 6 2.691 6 6-2.692 6-6 6Z" style="fill:#fff"/><path d="m1 28 5-8 13 3-3 9-15-4z" style="fill:url(#linear-gradient)"/><path d="M8 9 0 0h16l2.305 3.305L8 9z" style="fill:url(#linear-gradient-2)"/><path d="m24 23 8 9H16l-2.305-3.305L24 23z" style="fill:url(#linear-gradient-3)"/></mask></defs><g style="mask:url(#mask)"><path d="M0 0h32v32H0z" style="fill:url(#linear-gradient-4)"/></g><circle cx="6" cy="6" r="2" class="cls-3"/><circle cx="26" cy="26" r="2" class="cls-3"/><path d="M16 31c-2.757 0-5-2.243-5-5s2.243-5 5-5 5 2.243 5 5-2.243 5-5 5Zm0-8c-1.654 0-3 1.346-3 3s1.346 3 3 3 3-1.346 3-3-1.346-3-3-3Z" class="cls-3"/></svg>