<svg xmlns="http://www.w3.org/2000/svg" xmlns:xlink="http://www.w3.org/1999/xlink" viewBox="0 0 86 81" fill="#fff" fill-rule="evenodd" stroke="#000" stroke-linecap="round" stroke-linejoin="round"><use xlink:href="#A" x=".5" y=".5"/><symbol id="A" overflow="visible"><g stroke="none"><path d="M85 40c0-10.526-8.629-19.158-19.2-19.158h-3.452l-3.883-4.631c-1.51-2.105-3.452-3.158-5.609-3.158-3.668 0-6.688 2.947-6.688 6.526 0 1.263.432 2.316 1.079 3.368l.216.421c-6.041 3.368-10.14 9.895-10.14 16.842 0 10.526 8.629 18.947 19.2 18.947h3.452L63.858 64c1.294 2.105 3.452 3.158 5.825 3.158 3.667 0 6.688-2.947 6.688-6.526 0-1.263-.431-2.316-1.079-3.368l-.431-.421C81.116 53.474 85 47.158 85 40zM56.522 56.211c-9.277 0-16.827-7.158-16.827-16.421 0-7.158 4.746-13.474 11.65-15.579l-2.157-2.947c-.431-.632-.647-1.263-.647-2.105 0-2.105 1.726-3.79 3.883-3.79 1.51 0 2.589.842 3.452 1.895l4.746 5.895 6.041 7.369h-1.294-8.845c-5.178 0-9.277 4-9.277 8.842 0 2.316 1.079 4.631 2.157 6.105l8.629 10.316h-1.51v.421zM71.624 40c0 3.369-2.805 6.105-6.256 6.105h-8.414c-3.452 0-6.256-2.737-6.256-6.105s2.805-6.105 6.256-6.105h8.414c3.452-.21 6.256 2.737 6.256 6.105zm-1.079 15.579l2.157 2.947c.432.632.647 1.263.647 2.105 0 2.105-1.726 3.79-3.883 3.79-1.51 0-2.589-.842-3.452-1.895l-4.746-5.895-6.041-7.368h1.294 8.845c5.178 0 9.277-4 9.277-8.842 0-2.316-1.079-4.632-2.157-6.105L63.858 24h1.726c9.277 0 16.827 7.158 16.827 16.421-.216 6.737-4.962 13.053-11.866 15.158z" fill="#0a72ba"/><path d="M0 8.211V71.79L48.109 80V0L0 8.211zm33.223 47.368l-15.317-1.053V25.895l5.609-.421v24.21l9.708.211v5.684z" fill="#2372ba"/></g></symbol></svg>