<svg xmlns="http://www.w3.org/2000/svg" xmlns:xlink="http://www.w3.org/1999/xlink" viewBox="0 0 86 81" fill="#fff" fill-rule="evenodd" stroke="#000" stroke-linecap="round" stroke-linejoin="round"><use xlink:href="#A" x=".5" y=".5"/><symbol id="A" overflow="visible"><g fill="#2372ba" stroke="none"><path d="M82.821 14.973H47.949V0L0 8.128v63.743L47.949 80V66.096h34.872c1.09 0 2.179-.856 2.179-2.139V16.898c0-.856-1.09-1.925-2.179-1.925zM29.859 54.545L17 53.476V26.524l11.987-.856v5.348l-7.41.214v6.203h7.41v5.134h-7.41v6.203l8.282.428v5.348zm52.308 8.984H47.949v-3.636H51c.872 0 1.526-.642 2.833-2.139 2.18-2.567 5.231-6.631 7.192-9.84.872-1.283 1.526-2.995 1.744-3.209 0 0 0-.214-.218-.428l-.436-.214h-.436L51.218 54.545c-.218.214-.872.214-1.09.214h-1.962V41.07c1.09.642 2.615 1.711 3.487 2.139 1.308.856 3.051 1.497 3.269 1.711 0 0 .218 0 .436-.214l.436-.428v-.428l-7.628-7.273v-9.412h3.705c.218 0 .436 0 .654.214l2.179 2.139h.436l1.744-2.567v-.642s-3.923-3.422-4.141-3.85c-.218-.214-.436-.428-1.308-.428h-3.269v-3.85h34.218v45.348h-.218zm-6.103-18.181c-2.615-2.139-6.757-5.134-10.026-7.059-1.308-.856-3.051-1.497-3.269-1.711 0 0-.218 0-.436.214l-.436.428v.428l10.68 10.267c.218.214.218.856.218 1.07v4.706c0 .214-.218.428-.436.428h-6.538c-.218 0-.436 0-.654-.214l-2.18-2.139h-.436l-1.744 2.567v.642s3.923 3.422 4.141 3.85.436.428 1.308.428h10.897c.872 0 1.308-.428 1.308-1.283V47.701c-.218-.214-.872-1.069-2.397-2.353z"/><path d="M54.705 36.791s0 .214.218.428l.436.428h.436l10.462-10.481c.218-.214.872-.214 1.09-.214h4.795c.218 0 .436.214.436.428v6.417c0 .214 0 .428-.218.642l-2.179 2.139v.428l2.615 1.711h.654s3.487-3.85 3.923-4.064.436-.428.436-1.284V22.673c0-.856-.436-1.283-1.308-1.283H66.256c-.872 0-1.526.642-2.833 2.139-2.179 2.567-5.231 6.631-7.192 9.84-.654 1.711-1.526 3.209-1.526 3.422z"/></g></symbol></svg>