<svg xmlns="http://www.w3.org/2000/svg" xmlns:xlink="http://www.w3.org/1999/xlink" viewBox="0 0 81 81" fill="#fff" fill-rule="evenodd" stroke="#000" stroke-linecap="round" stroke-linejoin="round"><use xlink:href="#A" x=".5" y=".5"/><symbol id="A" overflow="visible"><g stroke="none"><path d="M40 0c3.665 0 7.225.524 10.576 1.466 3.456.942 6.597 2.304 9.529 4.084s5.655 3.874 8.063 6.283 4.503 5.131 6.283 8.063 3.141 6.178 4.084 9.529C79.477 32.88 80 36.335 80 40s-.523 7.225-1.466 10.576c-.942 3.456-2.304 6.597-4.084 9.529s-3.874 5.655-6.283 8.063-5.131 4.503-8.063 6.283-6.178 3.141-9.529 4.084C47.12 79.476 43.665 80 40 80s-7.225-.524-10.576-1.466c-3.456-.942-6.597-2.304-9.529-4.084s-5.654-3.874-8.063-6.283-4.503-5.131-6.283-8.063-3.141-6.178-4.084-9.529S0 43.665 0 40s.524-7.225 1.466-10.576c.942-3.456 2.304-6.597 4.084-9.529s3.874-5.654 6.283-8.063 5.131-4.503 8.063-6.283 6.178-3.141 9.529-4.084S36.335 0 40 0m0 74.555c3.141 0 6.283-.419 9.215-1.257s5.654-1.99 8.272-3.456c2.513-1.466 4.922-3.351 7.016-5.445s3.874-4.398 5.445-7.016c1.466-2.513 2.618-5.34 3.456-8.272s1.257-5.969 1.257-9.215-.419-6.283-1.257-9.215-1.989-5.654-3.456-8.272c-1.466-2.513-3.351-4.922-5.445-7.016s-4.398-3.874-7.016-5.445c-2.513-1.466-5.34-2.618-8.272-3.455S43.246 5.236 40 5.236c-3.141 0-6.283.419-9.215 1.257s-5.654 1.99-8.272 3.456c-2.513 1.466-4.922 3.351-7.016 5.445s-3.874 4.398-5.445 7.016c-1.466 2.513-2.618 5.34-3.456 8.272S5.34 36.649 5.34 39.895s.419 6.283 1.257 9.215 1.989 5.654 3.456 8.272c1.466 2.513 3.351 4.922 5.445 7.016s4.398 3.874 7.016 5.445c2.513 1.466 5.34 2.618 8.272 3.456A34.31 34.31 0 0 0 40 74.555" fill="#9adaf6"/><path d="M40 5.026c3.246 0 6.388.419 9.319 1.257s5.759 1.99 8.377 3.56a40.08 40.08 0 0 1 7.12 5.445c2.094 2.094 3.979 4.503 5.445 7.12 1.571 2.618 2.722 5.34 3.56 8.377.838 2.932 1.257 6.073 1.257 9.319s-.419 6.388-1.257 9.319-1.989 5.759-3.56 8.377-3.351 4.921-5.445 7.12c-2.094 2.094-4.503 3.979-7.12 5.445-2.618 1.571-5.34 2.722-8.377 3.56-2.932.838-6.073 1.257-9.319 1.257s-6.387-.419-9.319-1.257-5.759-1.99-8.377-3.56-4.922-3.351-7.12-5.445c-2.094-2.094-3.979-4.503-5.445-7.12-1.571-2.618-2.722-5.34-3.56-8.377-.838-2.932-1.256-6.073-1.256-9.319s.419-6.387 1.257-9.319 1.99-5.759 3.56-8.377 3.351-4.922 5.445-7.12c2.094-2.094 4.503-3.979 7.12-5.445 2.618-1.571 5.34-2.723 8.377-3.56A34.5 34.5 0 0 1 40 5.026m0 63.141c2.618 0 5.026-.314 7.435-1.047 2.408-.628 4.607-1.571 6.702-2.827s3.979-2.723 5.654-4.398 3.141-3.665 4.398-5.654c1.257-2.094 2.199-4.293 2.827-6.702s1.047-4.922 1.047-7.539-.314-5.026-1.047-7.434c-.628-2.408-1.571-4.607-2.827-6.702s-2.723-3.979-4.398-5.655-3.665-3.141-5.654-4.398c-2.094-1.257-4.293-2.199-6.702-2.827S42.514 11.937 40 11.937c-2.618 0-5.026.314-7.434 1.047-2.408.628-4.607 1.571-6.702 2.827s-3.979 2.722-5.654 4.398-3.141 3.665-4.398 5.655c-1.257 2.094-2.199 4.293-2.827 6.702S11.938 37.487 11.938 40c0 2.618.314 5.026 1.047 7.435.628 2.408 1.571 4.607 2.827 6.702s2.723 3.979 4.398 5.654 3.665 3.141 5.654 4.398c2.094 1.257 4.293 2.199 6.702 2.827 2.304.838 4.817 1.152 7.434 1.152" fill="#1c9fe7"/></g></symbol></svg>