<svg xmlns="http://www.w3.org/2000/svg" xmlns:xlink="http://www.w3.org/1999/xlink" viewBox="0 0 81 81" fill="#fff" fill-rule="evenodd" stroke="#000" stroke-linecap="round" stroke-linejoin="round"><use xlink:href="#A" x=".5" y=".5"/><symbol id="A" overflow="visible"><path d="M77.889 19.209H46.86V0L0 8.232v63.747L46.86 80V61.847h31.029c1.266 0 2.111-1.055 2.111-2.111V21.319c0-1.266-.844-2.111-2.111-2.111zm-55.937 35.25c-15.409-1.055-14.776-29.129.422-29.974 16.675-.844 16.253 31.029-.422 29.974zm55.515 4.644H46.86V35.04l9.499 9.077c.422.422.844.633 1.477.633s1.055-.211 1.478-.633L77.467 27.23v31.873zm0-35.462L57.836 41.794 46.86 31.451v-9.71h30.396v1.9h.211zm-55.092 6.544c-8.232.422-8.443 18.364-.211 18.575 8.654.422 8.654-18.997.211-18.575z" fill="#2372ba" stroke="none"/></symbol></svg>