<svg xmlns="http://www.w3.org/2000/svg" xmlns:xlink="http://www.w3.org/1999/xlink" viewBox="0 0 81 81" fill="#fff" fill-rule="evenodd" stroke="#000" stroke-linecap="round" stroke-linejoin="round"><use xlink:href="#A" x=".5" y=".5"/><symbol id="A" overflow="visible"><path d="M77.88 8.586H46.895V0L0 8.168v63.665L46.895 80v-9.424H77.88c1.256 0 2.094-1.047 2.094-2.094V10.681c.209-1.047-.837-2.094-2.094-2.094zM24.704 55.497l-6.071-.209-7.956-29.738 5.653.209 5.025 20.733c.419 1.257.419 2.094.628 2.932h.209c.209-1.047.209-1.885.628-2.932l5.024-20.524 5.443-.209-8.583 29.738zm22.191-28.272h5.025l9.63 9.634v14.869h-6.909v-6.492a1.43 1.43 0 0 0-1.465-1.466h-6.281V27.225zm7.746-.838l1.675-1.675 6.281-6.283 7.955 7.958-6.49 6.283-1.675 1.675-1.675-1.675-4.606-5.026-1.466-1.257zm-7.746 20.105h5.025v13.822h-4.815l-.209-13.822h0zm30.566 21.361H46.895v-4.817h6.281a1.43 1.43 0 0 0 1.465-1.466v-7.12h8.165a1.43 1.43 0 0 0 1.466-1.466V36.859l9.63-9.005c.209-.209.419-.838.419-1.466s-.209-1.047-.419-1.466l-9.84-9.633c-.419-.419-.628-.419-1.047-.419a1.6 1.6 0 0 0-1.047.419L51.92 24.712h-4.815V11.309H77.67l-.209 56.544h0z" fill="#4c69b1" stroke="none"/></symbol></svg>