<svg xmlns="http://www.w3.org/2000/svg" xmlns:xlink="http://www.w3.org/1999/xlink" viewBox="0 0 341 80" fill="#fff" fill-rule="evenodd" stroke="#000" stroke-linecap="round" stroke-linejoin="round"><use xlink:href="#A"/><symbol id="A" overflow="visible"><path d="M341 18.888v42.927h-5.553V18.888H341zM306.431 57.6c1.095.156 2.659.234 4.693.234 5.709 0 11.028-2.107 11.028-8.351 0-5.854-5.006-8.273-11.106-8.273h-4.614V57.6zm0-20.605h5.005c5.866 0 9.307-3.044 9.307-7.18 0-4.995-3.832-7.024-9.463-7.024-2.581 0-3.989.156-4.927.39v13.815zm-5.553-17.561c2.425-.546 6.257-.858 10.167-.858 5.553 0 9.151.937 11.81 3.122 2.268 1.639 3.598 4.215 3.598 7.571 0 4.136-2.738 7.805-7.274 9.444v.156c4.067 1.014 8.838 4.371 8.838 10.771 0 3.668-1.486 6.478-3.598 8.585-2.972 2.732-7.821 3.981-14.86 3.981-3.832 0-6.726-.234-8.603-.546V19.434zm-34.569 21.151c0-3.668-.078-6.712-.235-9.6h4.927l.156 6.088h.235c1.408-4.137 4.771-6.712 8.525-6.712.626 0 1.095.078 1.564.156v5.307c-.548-.156-1.173-.156-1.877-.156-3.989 0-6.726 2.966-7.508 7.18-.156.781-.235 1.639-.235 2.576v16.39h-5.553V40.586zm-12.436 2.81c.078-3.59-1.486-9.132-7.821-9.132-5.709 0-8.134 5.229-8.603 9.132h16.424zm-16.424 3.981c.156 7.571 5.006 10.693 10.559 10.693 3.989 0 6.413-.702 8.525-1.561l.938 3.98c-1.955.859-5.397 1.873-10.246 1.873-9.542 0-15.173-6.244-15.173-15.532s5.475-16.624 14.469-16.624c10.089 0 12.749 8.82 12.749 14.517 0 1.171-.156 2.029-.156 2.575h-21.664zm-47.239-16.39l4.067 15.688c.86 3.434 1.721 6.634 2.268 9.834h.156c.704-3.122 1.721-6.4 2.737-9.756l5.006-15.766h4.693l4.771 15.376c1.173 3.668 2.033 6.946 2.737 10.068h.156c.547-3.122 1.33-6.4 2.346-9.99l4.38-15.454h5.553l-9.933 30.829h-4.849l-4.693-14.673c-1.095-3.434-1.955-6.478-2.737-10.146h-.156c-.782 3.668-1.721 6.868-2.816 10.224l-5.005 14.673h-5.084L184.5 31.064h5.709zm-33.396 15.454c0 6.712 3.911 11.863 9.385 11.863 5.397 0 9.385-4.995 9.385-11.942 0-5.229-2.581-11.863-9.229-11.863s-9.542 6.088-9.542 11.942h0zm24.558-.312c0 11.395-7.899 16.39-15.408 16.39-8.368 0-14.782-6.088-14.782-15.844 0-10.303 6.726-16.39 15.329-16.39 8.838 0 14.86 6.4 14.86 15.844h0zm-54.591-6.088c1.251.312 2.737.468 4.614.468 6.726 0 10.793-3.278 10.793-9.132 0-5.697-3.989-8.429-10.167-8.429-2.425 0-4.302.156-5.24.468v16.624zm-5.553-20.683c2.659-.468 6.179-.859 10.637-.859 5.475 0 9.542 1.249 12.045 3.59 2.346 2.029 3.754 5.151 3.754 8.976 0 3.902-1.173 6.946-3.285 9.132-2.972 3.122-7.743 4.683-13.139 4.683-1.643 0-3.207-.078-4.458-.39v17.171h-5.553V19.356zm-43.407.781L9.698.234C9.151.078 8.681 0 8.212 0 5.318 0 2.816 2.341 2.816 5.385v32.078h4.067V5.385c0-.859.704-1.327 1.33-1.327.156 0 .235 0 .391.078l68.122 19.824c.547.156.939.702.939 1.327v42.771c0 .859-.704 1.327-1.33 1.327-.156 0-.234 0-.391-.078l-15.564-4.527v4.215L74.77 73.21c.547.156 1.017.234 1.486.234 2.894 0 5.397-2.341 5.397-5.385V25.288a5.12 5.12 0 0 0-3.832-5.151zm-22.368 54.79V31.532a5.07 5.07 0 1 0-10.167 0v43.395a5.07 5.07 0 1 0 10.167 0zm-15.095-4.761V36.839a5.07 5.07 0 0 0-10.168 0v33.327a5.07 5.07 0 0 0 10.168 0zm-15.095-5.151V41.756a5.07 5.07 0 0 0-5.084-5.073 5.07 5.07 0 0 0-5.084 5.073v23.258a5.07 5.07 0 0 0 5.084 5.073 5.07 5.07 0 0 0 5.084-5.073zm-20.178.468A5.07 5.07 0 0 1 0 60.41V46.985a5.07 5.07 0 0 1 5.084-5.073 5.07 5.07 0 0 1 5.084 5.073V60.41c.078 2.81-2.268 5.073-5.084 5.073z" stroke="none" fill="#030404" fill-rule="nonzero"/></symbol></svg>