<svg xmlns="http://www.w3.org/2000/svg" viewBox="0 0 25 27"><path fill="#232F3E" fill-rule="evenodd" d="m24 17.25-4-2.357V8.825a.492.492 0 0 0-.287-.444L14 5.736V1.285l10 4.897V17.25Zm.722-11.811-11-5.387a.504.504 0 0 0-.485.022A.49.49 0 0 0 13 .49v5.557c0 .19.111.363.287.444L19 9.136v6.035c0 .172.091.332.243.42l5 2.947a.501.501 0 0 0 .757-.42V5.878a.49.49 0 0 0-.278-.44ZM11.995 25.952 1 20.317V6.169l9-4.849v4.442L5.254 8.398A.488.488 0 0 0 5 8.825v8.842a.49.49 0 0 0 .258.43l6.5 3.515a.508.508 0 0 0 .482.001l6.25-3.371 3.546 2.33-10.041 5.38Zm6.799-8.693a.51.51 0 0 0-.519-.022L12 20.622l-6-3.245V9.112l4.746-2.637A.489.489 0 0 0 11 6.048V.49a.489.489 0 0 0-.245-.422.512.512 0 0 0-.496-.01l-10 5.388a.49.49 0 0 0-.259.43v14.737c0 .184.103.35.268.436l11.5 5.895a.52.52 0 0 0 .471-.005l11-5.895a.486.486 0 0 0 .039-.839l-4.484-2.947Z"/></svg>