<svg xmlns="http://www.w3.org/2000/svg" xmlns:xlink="http://www.w3.org/1999/xlink" fill="#fff" fill-rule="evenodd" stroke="#000" stroke-linecap="round" stroke-linejoin="round" viewBox="0 0 74.375 85"><use xlink:href="#a" x="2.188" y="2.5"/><symbol id="a" overflow="visible"><g fill="#8c3123" stroke="none"><path d="M15.912 11.18h38.242v9.4H15.912zm33.634-8.137H20.495l-3.962.638v3.043H53.52V3.681l-3.975-.638z"/><path d="M34.993 15.782 70 20.58v2.847c0 4.234-15.674 7.645-35.007 7.645S.026 27.612.026 23.415v-3.043zm.001 20.555c14.618 0 27.136-1.951 32.379-4.725l1.717-2.7.7-2.454v3.043L58.34 74.907C58.34 77.73 47.895 80 35.007 80s-23.32-2.27-23.32-5.093L.238 29.501v-2.994l2.641 5.191c5.295 2.737 17.695 4.639 32.115 4.639z"/></g><g fill="#e05243" stroke="none"><path d="M15.912 8.136h38.242v9.4H15.912zM49.546 0H20.495l-3.962 3.682H53.52L49.546 0z"/><path d="M34.993 12.738C54.326 12.738 70 16.162 70 20.371s-15.648 7.645-35.007 7.645S0 24.605 0 20.371s15.701-7.633 34.993-7.633zm.001 20.555c18.025 0 32.854-2.958 34.782-6.786L58.327 71.913c0 2.823-10.445 5.093-23.333 5.093S11.7 74.735 11.7 71.913L.251 26.507c1.928 3.829 16.757 6.786 34.743 6.786z"/></g></symbol></svg>