<svg xmlns="http://www.w3.org/2000/svg" xmlns:xlink="http://www.w3.org/1999/xlink" fill="#fff" fill-rule="evenodd" stroke="#000" stroke-linecap="round" stroke-linejoin="round" viewBox="0 0 74.375 85"><use xlink:href="#a" x="2.188" y="2.5"/><symbol id="a" overflow="visible"><g stroke="none"><path fill="#8c3123" d="M70 3.026V80H45.234V67.675H24.766V80H0V3.026h70z"/><path fill="#e05243" d="M70 0v76.974H45.234V64.649H24.766v12.325H0V0h70z"/><path fill="#8c3123" d="M58.311 33.289a18.43 18.43 0 0 0-4.958-1.33c-.992-.098-2.645 1.66-3.636 1.745-4.952.44-9.29 3.248-11.424 7.395a12.356 12.356 0 0 0 .119 11.458c.317.598-8.621 1.782-8.119 1.147 3.056-3.861 3.568-8.958 1.333-13.272s-6.856-7.146-12.03-7.375c-.238 0-1.812-1.904-2.063-1.904a10.063 10.063 0 0 0-5.54 1.415c-.41.207-.754 2.526-1.137 2.77-5.108 3.238-7.338 9.166-5.504 14.628s7.307 9.187 13.504 9.191a14.243 14.243 0 0 0 6.889-1.708c.832.105 1.673.145 2.512.122a48.05 48.05 0 0 0 13.884-.854 22.04 22.04 0 0 0 2.909 1.708c7.082 3.053 15.507.278 18.895-6.223 2.912-5.652 1.044-12.417-4.443-16.095-.701-.464-.37-2.465-1.19-2.819zM15.166 52.935l-1.983 1.464c-1.058.854-4.416-2.343-3.967-3.173a2.7 2.7 0 0 1 .635-.732l1.983-1.586c1.134-.836 2.786-.673 3.702.366v.244c.912 1.04.747 2.564-.37 3.417zm-1.322-12.691-.793-2.318a2.19 2.19 0 0 1 .093-1.836 2.494 2.494 0 0 1 1.494-1.215l.264-.122c.648-.221 1.366-.19 1.989.086s1.098.773 1.317 1.378L19 38.536a2.19 2.19 0 0 1-.093 1.836 2.498 2.498 0 0 1-1.494 1.215l-.265.122c-.648.221-1.366.19-1.989-.086s-1.098-.773-1.317-1.378zm4.892 7.688c-1.095 0-1.983-.82-1.983-1.83s.888-1.83 1.983-1.83 1.983.819 1.983 1.83c0 .487-.211.955-.586 1.299s-.883.535-1.411.532zm7.272 1.464c-.687-.006-1.343-.269-1.816-.729s-.725-1.077-.696-1.711v-.244c.007-.634.292-1.239.79-1.676s1.168-.669 1.854-.642h2.645c.687.006 1.343.269 1.816.729s.725 1.077.696 1.711v.244c-.007.634-.292 1.239-.79 1.676s-1.168.669-1.854.642zm20.098-3.539v.244c-.205 1.302-1.492 2.22-2.909 2.074l-2.512-.244c-1.411-.189-2.405-1.377-2.248-2.685v-.244c.205-1.302 1.492-2.22 2.909-2.074l2.512.244c1.406.195 2.392 1.381 2.235 2.685zm3.438 1.769c-.455-.694-.364-1.581.223-2.184s1.533-.782 2.329-.439a2.03 2.03 0 0 1 .952 1.086c.119.439-3.359 1.83-3.504 1.538zm2.155 8.359-.661-2.318c-.338-1.277.48-2.572 1.851-2.929h.264c1.384-.312 2.787.443 3.174 1.708l.661 2.196c-.013.134-4.945 2.562-5.342 1.342zm6.876-16.107-1.19 2.196c-.282.58-.811 1.026-1.462 1.234s-1.366.159-1.976-.136l-.264-.122c-.628-.261-1.112-.749-1.337-1.349s-.172-1.26.147-1.823l1.19-2.197a2.433 2.433 0 0 1 1.462-1.234 2.69 2.69 0 0 1 1.976.136l.264.122c.619.27 1.091.762 1.306 1.361s.154 1.254-.169 1.811z"/><path d="M22.955 20.074h-2.287l-5.29-13.948h2.182l4.218 12.093 4.363-12.093h2.248zM34.736 7.7h-5.025V6.138h12.085V7.7h-5.051v12.373h-2.01zm9.916-1.562h2.01v12.373h7.934v1.562h-9.943zm12.826 26.235c-1.983-1.22-1.983-.915-3.967-1.525-.661 0-2.701.188-3.693.273-4.952.44-9.29 3.248-11.424 7.395a12.356 12.356 0 0 0 .119 11.458c.317.598-8.621 1.782-8.119 1.147 3.056-3.861 3.568-8.958 1.333-13.272s-8.533-7.543-12.265-7.611h-2.645s-1.983.305-2.975.915c-.41.207-2.503 1.359-2.886 1.603-5.108 3.238-7.338 9.166-5.504 14.628s7.307 9.187 13.504 9.191a14.243 14.243 0 0 0 6.889-1.708 16.47 16.47 0 0 0 2.512.122 48.05 48.05 0 0 0 13.884-.854c.919.64 1.892 1.211 2.909 1.708 7.082 3.052 15.507.278 18.895-6.223 2.912-5.652 1.044-12.417-4.443-16.095a12.72 12.72 0 0 0-2.125-1.152zm-42.21 17.979-1.983 1.464c-1.058.854-4.416-2.343-3.967-3.173a2.7 2.7 0 0 1 .635-.732l1.983-1.586c1.134-.836 2.786-.673 3.702.366v.244c.912 1.04.747 2.564-.37 3.417zm-1.322-12.691-.793-2.318a2.19 2.19 0 0 1 .093-1.836 2.498 2.498 0 0 1 1.494-1.215l.264-.122a2.75 2.75 0 0 1 1.989.086 2.429 2.429 0 0 1 1.317 1.378l.793 2.318a2.19 2.19 0 0 1-.093 1.836 2.498 2.498 0 0 1-1.494 1.215l-.265.122a2.75 2.75 0 0 1-1.989-.086 2.429 2.429 0 0 1-1.317-1.378zm4.892 7.688c-1.095 0-1.983-.82-1.983-1.83s.888-1.83 1.983-1.83 1.983.819 1.983 1.83c0 .487-.211.955-.586 1.299s-.883.535-1.411.532zm7.272 1.464c-.687-.006-1.343-.269-1.816-.729s-.725-1.077-.696-1.711v-.244a2.266 2.266 0 0 1 .79-1.676 2.66 2.66 0 0 1 1.854-.642h2.645c.687.006 1.343.269 1.816.729s.725 1.077.696 1.711v.244a2.266 2.266 0 0 1-.79 1.676 2.66 2.66 0 0 1-1.854.642zm20.098-3.539v.244c-.205 1.302-1.492 2.22-2.909 2.074l-2.512-.244c-1.411-.189-2.405-1.377-2.248-2.685v-.244c.205-1.302 1.492-2.22 2.909-2.074l2.512.244c1.406.195 2.392 1.381 2.235 2.685zm3.438 1.769c-.455-.694-.364-1.581.223-2.184s1.533-.782 2.329-.439a2.03 2.03 0 0 1 .952 1.086c.119.439-3.359 1.83-3.504 1.538zm2.155 8.359-.661-2.318c-.338-1.277.48-2.572 1.851-2.929h.264c1.384-.312 2.787.443 3.174 1.708l.661 2.196c-.013.134-4.945 2.563-5.342 1.342zm6.876-16.107-1.19 2.196a2.433 2.433 0 0 1-1.462 1.234 2.69 2.69 0 0 1-1.976-.136l-.264-.122c-.628-.261-1.112-.749-1.337-1.349s-.172-1.26.147-1.823l1.19-2.196a2.433 2.433 0 0 1 1.462-1.234 2.69 2.69 0 0 1 1.976.136l.264.122c.619.27 1.091.762 1.306 1.361s.154 1.254-.169 1.811z"/></g></symbol></svg>