<?xml version="1.0" encoding="utf-8"?>
<!-- Generator: Adobe Illustrator 19.0.0, SVG Export Plug-In . SVG Version: 6.00 Build 0)  -->
<svg version="1.1" id="Layer_1" xmlns="http://www.w3.org/2000/svg" xmlns:xlink="http://www.w3.org/1999/xlink" x="0px" y="0px"
	 viewBox="0 0 800 284.3" style="enable-background:new 0 0 800 284.3;" xml:space="preserve">
<style type="text/css">
	.st0{fill:#9A6BF1;}
	.st1{fill:#02CBE0;}
	.st2{fill:#362AAB;}
	.st3{fill:#FFFFFF;}
	.st4{fill:#562AC8;}
</style>
<path class="st0" d="M151.7,50.7c43.1,0,78,34.9,78,78v44.4v28.5c14.9-17.8,23.8-40.7,23.8-65.7c0-56.7-46-102.7-102.7-102.7
	c-22.3,0-43,7.2-59.9,19.3c5.3-1.1,10.8-1.7,16.4-1.7H151.7z"/>
<path class="st1" d="M229.8,201.6c-18.8,22.6-47.2,37-78.9,37c-56.7,0-102.7-46-102.7-102.7c0-34.4,16.9-64.8,42.9-83.5
	C55.7,60,29.3,91.3,29.3,128.7v44.4c0,43.1,34.9,78,78,78h44.4h68.1c10.3,0,9.9-10.3,9.9-10.3V201.6z"/>
<path class="st2" d="M48.1,135.9c0,56.7,46,102.7,102.7,102.7c31.7,0,60.1-14.4,78.9-37v-28.5v-44.4c0-43.1-34.9-78-78-78h-44.4
	c-5.6,0-11.1,0.6-16.4,1.7C65,71.1,48.1,101.5,48.1,135.9z"/>
<rect x="74.4" y="95.1" class="st3" width="30.9" height="16.2"/>
<rect x="74.4" y="131.9" class="st3" width="30.9" height="16.2"/>
<rect x="74.4" y="170.9" class="st3" width="30.9" height="16.2"/>
<rect x="112.8" y="170.9" class="st3" width="30.9" height="16.2"/>
<rect x="150.8" y="170.9" class="st3" width="30.9" height="16.2"/>
<rect x="135.4" y="131.9" class="st3" width="30.9" height="16.2"/>
<rect x="173.4" y="131.9" class="st3" width="30.9" height="16.2"/>
<rect x="112.8" y="95.1" class="st3" width="30.9" height="16.2"/>
<rect x="166.3" y="95.1" class="st3" width="30.9" height="16.2"/>
<circle class="st3" cx="112.8" cy="156.4" r="7.9"/>
<circle class="st3" cx="158.7" cy="118" r="7.9"/>
<circle class="st3" cx="212.2" cy="156.4" r="7.9"/>
<path class="st4" d="M632.3,103.9c0,2.1-1.2,3.6-3.6,4.3l-6.1,2c2.9,4.3,4.3,9.2,4.3,14.6v1.6c0,24.6-16.3,37-48.8,37
	c-8.8,0-15.7-1-20.6-3c-1.8,1.2-2.8,2.7-2.8,4.5c0,1.6,0.4,2.8,1.2,3.6c0.8,0.8,2.4,1.5,4.7,2l22.3,4.9c18.1,4,30.3,8,36.7,12.1
	c6.4,4.1,9.6,10.7,9.6,19.8v1.6c0,21.5-17.3,32.2-51.8,32.2c-16.3,0-28.8-2.8-37.4-8.3c-8.6-5.5-12.8-13.5-12.8-23.9v-1.6
	c0-8.7,4-16.1,11.9-22.1c-3.3-1.8-5.8-4.5-7.5-7.9c-1.7-3.4-2.6-6.9-2.6-10.5c0-6.6,2.9-12.2,8.7-16.8c-6.1-5.3-9.1-13.1-9.1-23.5
	v-1.6c0-11.6,4.1-20.7,12.2-27.4c8.1-6.7,20.5-10,37.3-10h49.2c1.3,0,2.5,0.5,3.5,1.5s1.5,2.2,1.5,3.7V103.9z M596.7,208.8v-1.6
	c0-2.1-1.3-3.9-4-5.3c-2.6-1.4-8.1-3.1-16.4-4.9l-14.6-3.2c-2.6,3.7-4,8.2-4,13.4v1.6c0,3.6,1.4,6.1,4.3,7.7c2.9,1.6,8,2.4,15.4,2.4
	c7.5,0,12.6-0.9,15.2-2.6C595.4,214.6,596.7,212.1,596.7,208.8z M595.7,126.4v-1.6c0-4.5-1.3-8-3.9-10.5c-2.6-2.5-7.2-3.8-13.7-3.8
	c-12,0-18,4.7-18,14.2v1.6c0,9.2,6,13.8,18,13.8c6.6,0,11.2-1.2,13.7-3.5C594.4,134.5,595.7,131,595.7,126.4z"/>
<path class="st1" d="M682.1,70.7c0,1.1-0.4,2-1.2,2.8c-0.8,0.8-1.7,1.2-2.8,1.2h-25.7c-1.1,0-2-0.4-2.8-1.2
	c-0.8-0.8-1.2-1.7-1.2-2.8V52.3c0-1.1,0.4-2,1.2-2.8c0.8-0.8,1.7-1.2,2.8-1.2h25.7c1.1,0,2,0.4,2.8,1.2c0.8,0.8,1.2,1.7,1.2,2.8
	V70.7z"/>
<path class="st1" d="M681.3,196.8c0,1.1-0.4,2-1.2,2.8c-0.8,0.8-1.7,1.2-2.8,1.2h-24.1c-1.1,0-2-0.4-2.8-1.2
	c-0.8-0.8-1.2-1.7-1.2-2.8V91.4c0-1.1,0.4-2,1.2-2.8c0.8-0.8,1.7-1.2,2.8-1.2h24.1c1.1,0,2,0.4,2.8,1.2c0.8,0.8,1.2,1.7,1.2,2.8
	V196.8z"/>
<path class="st1" d="M771.1,197c0,2.2-1.3,3.6-3.8,4c-6.3,1.1-11.5,1.6-15.6,1.6c-11.7,0-20.2-2.3-25.4-6.9
	c-5.2-4.6-7.8-13.6-7.8-26.9v-57.3l-15.8-2.6c-2.8-0.5-4.2-1.9-4.2-4.2v-13c0-1.1,0.4-2,1.3-2.9c0.9-0.9,1.8-1.3,2.9-1.3h15.8V71.3
	c0-2.1,1.3-3.4,4-4l24.1-4.2h0.6c2.4,0,3.6,1.1,3.6,3.4v21h16.2c1.1,0,2,0.4,2.8,1.2c0.8,0.8,1.2,1.7,1.2,2.8v16
	c0,1.1-0.4,2-1.2,2.8c-0.8,0.8-1.7,1.2-2.8,1.2h-16.2v57.5c0,4.1,0.4,6.7,1.1,7.7c0.7,1.1,2.5,1.6,5.4,1.6h9.7
	c2.8,0,4.2,1.1,4.2,3.4V197z"/>
<g>
	<g>
		<path class="st4" d="M341.3,201h-12.8c-27.4,0-49.7-22.3-49.7-49.7v-12.8c0-27.4,22.3-49.7,49.7-49.7h12.8
			c27.4,0,49.7,22.3,49.7,49.7v12.8C391,178.7,368.7,201,341.3,201z M328.5,118.5c-11,0-20,9-20,20v12.8c0,11,9,20,20,20h12.8
			c11,0,20-9,20-20v-12.8c0-11-9-20-20-20H328.5z"/>
	</g>
</g>
<g>
	<g>
		<path class="st4" d="M465,201h-12.8c-27.4,0-49.7-22.3-49.7-49.7v-12.8c0-27.4,22.3-49.7,49.7-49.7H465
			c27.4,0,49.7,22.3,49.7,49.7v12.8C514.7,178.7,492.4,201,465,201z M452.2,118.5c-11,0-20,9-20,20v12.8c0,11,9,20,20,20H465
			c11,0,20-9,20-20v-12.8c0-11-9-20-20-20H452.2z"/>
	</g>
</g>
</svg>
