<?xml version="1.0" encoding="UTF-8" standalone="no"?>
<!-- Generator: Adobe Illustrator 19.0.0, SVG Export Plug-In . SVG Version: 6.00 Build 0)  -->

<svg
   version="1.1"
   id="Layer_1"
   x="0px"
   y="0px"
   viewBox="0 0 224.2 217.9"
   xml:space="preserve"
   sodipodi:docname="oogit-logo.svg"
   width="224.2"
   height="217.89999"
   inkscape:version="1.1.1 (3bf5ae0d25, 2021-09-20)"
   xmlns:inkscape="http://www.inkscape.org/namespaces/inkscape"
   xmlns:sodipodi="http://sodipodi.sourceforge.net/DTD/sodipodi-0.dtd"
   xmlns="http://www.w3.org/2000/svg"
   xmlns:svg="http://www.w3.org/2000/svg"><defs
   id="defs81" /><sodipodi:namedview
   id="namedview79"
   pagecolor="#ffffff"
   bordercolor="#666666"
   borderopacity="1.0"
   inkscape:pageshadow="2"
   inkscape:pageopacity="0.0"
   inkscape:pagecheckerboard="0"
   showgrid="false"
   inkscape:zoom="2.016875"
   inkscape:cx="184.19585"
   inkscape:cy="21.072203"
   inkscape:window-width="3440"
   inkscape:window-height="1377"
   inkscape:window-x="-8"
   inkscape:window-y="-8"
   inkscape:window-maximized="1"
   inkscape:current-layer="Layer_1" />
<style
   type="text/css"
   id="style46">
	.st0{fill:#9A6BF1;}
	.st1{fill:#02CBE0;}
	.st2{fill:#362AAB;}
	.st3{fill:#FFFFFF;}
	.st4{fill:#562AC8;}
</style>
<path
   class="st0"
   d="m 122.4,17.5 c 43.1,0 78,34.9 78,78 v 44.4 28.5 c 14.9,-17.8 23.8,-40.7 23.8,-65.7 C 224.2,46 178.2,0 121.5,0 99.2,0 78.5,7.2 61.6,19.3 66.9,18.2 72.4,17.6 78,17.6 h 44.4 z"
   id="path48" />
<path
   class="st1"
   d="m 200.5,168.4 c -18.8,22.6 -47.2,37 -78.9,37 C 64.9,205.4 18.9,159.4 18.9,102.7 18.9,68.3 35.8,37.9 61.8,19.2 26.4,26.8 0,58.1 0,95.5 v 44.4 c 0,43.1 34.9,78 78,78 h 44.4 68.1 c 10.3,0 9.9,-10.3 9.9,-10.3 v -39.2 z"
   id="path50" />
<path
   class="st2"
   d="m 18.8,102.7 c 0,56.7 46,102.7 102.7,102.7 31.7,0 60.1,-14.4 78.9,-37 V 139.9 95.5 c 0,-43.1 -34.9,-78 -78,-78 H 78 c -5.6,0 -11.1,0.6 -16.4,1.7 -25.9,18.7 -42.8,49.1 -42.8,83.5 z"
   id="path52" />
<rect
   x="45.100002"
   y="61.899998"
   class="st3"
   width="30.9"
   height="16.200001"
   id="rect54" />
<rect
   x="45.100002"
   y="98.699997"
   class="st3"
   width="30.9"
   height="16.200001"
   id="rect56" />
<rect
   x="45.100002"
   y="137.7"
   class="st3"
   width="30.9"
   height="16.200001"
   id="rect58" />
<rect
   x="83.5"
   y="137.7"
   class="st3"
   width="30.9"
   height="16.200001"
   id="rect60" />
<rect
   x="121.5"
   y="137.7"
   class="st3"
   width="30.9"
   height="16.200001"
   id="rect62" />
<rect
   x="106.09999"
   y="98.699997"
   class="st3"
   width="30.9"
   height="16.200001"
   id="rect64" />
<rect
   x="144.09999"
   y="98.699997"
   class="st3"
   width="30.9"
   height="16.200001"
   id="rect66" />
<rect
   x="83.5"
   y="61.899998"
   class="st3"
   width="30.9"
   height="16.200001"
   id="rect68" />
<rect
   x="137"
   y="61.899998"
   class="st3"
   width="30.9"
   height="16.200001"
   id="rect70" />
<circle
   class="st3"
   cx="83.5"
   cy="123.2"
   r="7.9000001"
   id="circle72" />
<circle
   class="st3"
   cx="129.39999"
   cy="84.800003"
   r="7.9000001"
   id="circle74" />
<circle
   class="st3"
   cx="182.89999"
   cy="123.2"
   r="7.9000001"
   id="circle76" />






</svg>
