<?xml version="1.0" encoding="UTF-8"?>
<svg xmlns="http://www.w3.org/2000/svg" xmlns:xlink="http://www.w3.org/1999/xlink" width="577.66pt" height="157.51pt" viewBox="0 0 577.66 157.51" version="1.1">
<defs>
<clipPath id="clip1">
  <path d="M 99 0.0117188 L 136 0.0117188 L 136 10 L 99 10 Z M 99 0.0117188 "/>
</clipPath>
<clipPath id="clip2">
  <path d="M 166.136719 65.492188 C 181.019531 65.492188 193.078125 54.46875 193.078125 40.867188 C 193.078125 27.257813 181.019531 16.222656 166.136719 16.222656 C 151.269531 16.222656 139.199219 27.257813 139.199219 40.867188 C 139.199219 54.46875 151.269531 65.492188 166.136719 65.492188 Z M 166.136719 72.613281 C 151.746094 72.613281 139.566406 82.417969 135.519531 95.914063 C 130.546875 79.042969 116.121094 66.835938 99.097656 66.835938 C 82.074219 66.835938 67.648438 79.042969 62.675781 95.914063 C 58.628906 82.417969 46.453125 72.613281 32.054688 72.613281 C 14.351563 72.613281 0 87.441406 0 105.738281 C 0 114.175781 3.058594 129.753906 8.085938 144.082031 L 56.679688 144.082031 C 59.238281 136.804688 61.28125 129.199219 62.675781 122.367188 C 64.210938 132.71875 66.488281 145.453125 70.476563 157.511719 L 127.71875 157.511719 C 131.707031 145.453125 133.988281 132.71875 135.519531 122.367188 C 136.914063 129.199219 138.957031 136.804688 141.515625 144.082031 L 190.109375 144.082031 C 195.136719 129.753906 198.195313 114.175781 198.195313 105.738281 C 198.195313 87.441406 183.84375 72.613281 166.136719 72.613281 Z M 32.054688 65.492188 C 46.929688 65.492188 58.996094 54.46875 58.996094 40.867188 C 58.996094 27.257813 46.929688 16.222656 32.054688 16.222656 C 17.179688 16.222656 5.117188 27.257813 5.117188 40.867188 C 5.117188 54.46875 17.179688 65.492188 32.054688 65.492188 Z M 66.929688 29.425781 C 66.929688 13.179688 81.332031 0.00390625 99.097656 0.00390625 C 116.863281 0.00390625 131.265625 13.179688 131.265625 29.425781 C 131.265625 45.675781 116.863281 58.84375 99.097656 58.84375 C 81.332031 58.84375 66.929688 45.675781 66.929688 29.425781 Z M 66.929688 29.425781 "/>
</clipPath>
<clipPath id="clip3">
  <path d="M 62 0.0117188 L 100 0.0117188 L 100 10 L 62 10 Z M 62 0.0117188 "/>
</clipPath>
<clipPath id="clip4">
  <path d="M 166.136719 65.492188 C 181.019531 65.492188 193.078125 54.46875 193.078125 40.867188 C 193.078125 27.257813 181.019531 16.222656 166.136719 16.222656 C 151.269531 16.222656 139.199219 27.257813 139.199219 40.867188 C 139.199219 54.46875 151.269531 65.492188 166.136719 65.492188 Z M 166.136719 72.613281 C 151.746094 72.613281 139.566406 82.417969 135.519531 95.914063 C 130.546875 79.042969 116.121094 66.835938 99.097656 66.835938 C 82.074219 66.835938 67.648438 79.042969 62.675781 95.914063 C 58.628906 82.417969 46.453125 72.613281 32.054688 72.613281 C 14.351563 72.613281 0 87.441406 0 105.738281 C 0 114.175781 3.058594 129.753906 8.085938 144.082031 L 56.679688 144.082031 C 59.238281 136.804688 61.28125 129.199219 62.675781 122.367188 C 64.210938 132.71875 66.488281 145.453125 70.476563 157.511719 L 127.71875 157.511719 C 131.707031 145.453125 133.988281 132.71875 135.519531 122.367188 C 136.914063 129.199219 138.957031 136.804688 141.515625 144.082031 L 190.109375 144.082031 C 195.136719 129.753906 198.195313 114.175781 198.195313 105.738281 C 198.195313 87.441406 183.84375 72.613281 166.136719 72.613281 Z M 32.054688 65.492188 C 46.929688 65.492188 58.996094 54.46875 58.996094 40.867188 C 58.996094 27.257813 46.929688 16.222656 32.054688 16.222656 C 17.179688 16.222656 5.117188 27.257813 5.117188 40.867188 C 5.117188 54.46875 17.179688 65.492188 32.054688 65.492188 Z M 66.929688 29.425781 C 66.929688 13.179688 81.332031 0.00390625 99.097656 0.00390625 C 116.863281 0.00390625 131.265625 13.179688 131.265625 29.425781 C 131.265625 45.675781 116.863281 58.84375 99.097656 58.84375 C 81.332031 58.84375 66.929688 45.675781 66.929688 29.425781 Z M 66.929688 29.425781 "/>
</clipPath>
<clipPath id="clip5">
  <path d="M 135 46 L 172 46 L 172 84 L 135 84 Z M 135 46 "/>
</clipPath>
<clipPath id="clip6">
  <path d="M 166.136719 65.492188 C 181.019531 65.492188 193.078125 54.46875 193.078125 40.867188 C 193.078125 27.257813 181.019531 16.222656 166.136719 16.222656 C 151.269531 16.222656 139.199219 27.257813 139.199219 40.867188 C 139.199219 54.46875 151.269531 65.492188 166.136719 65.492188 Z M 166.136719 72.613281 C 151.746094 72.613281 139.566406 82.417969 135.519531 95.914063 C 130.546875 79.042969 116.121094 66.835938 99.097656 66.835938 C 82.074219 66.835938 67.648438 79.042969 62.675781 95.914063 C 58.628906 82.417969 46.453125 72.613281 32.054688 72.613281 C 14.351563 72.613281 0 87.441406 0 105.738281 C 0 114.175781 3.058594 129.753906 8.085938 144.082031 L 56.679688 144.082031 C 59.238281 136.804688 61.28125 129.199219 62.675781 122.367188 C 64.210938 132.71875 66.488281 145.453125 70.476563 157.511719 L 127.71875 157.511719 C 131.707031 145.453125 133.988281 132.71875 135.519531 122.367188 C 136.914063 129.199219 138.957031 136.804688 141.515625 144.082031 L 190.109375 144.082031 C 195.136719 129.753906 198.195313 114.175781 198.195313 105.738281 C 198.195313 87.441406 183.84375 72.613281 166.136719 72.613281 Z M 32.054688 65.492188 C 46.929688 65.492188 58.996094 54.46875 58.996094 40.867188 C 58.996094 27.257813 46.929688 16.222656 32.054688 16.222656 C 17.179688 16.222656 5.117188 27.257813 5.117188 40.867188 C 5.117188 54.46875 17.179688 65.492188 32.054688 65.492188 Z M 66.929688 29.425781 C 66.929688 13.179688 81.332031 0.00390625 99.097656 0.00390625 C 116.863281 0.00390625 131.265625 13.179688 131.265625 29.425781 C 131.265625 45.675781 116.863281 58.84375 99.097656 58.84375 C 81.332031 58.84375 66.929688 45.675781 66.929688 29.425781 Z M 66.929688 29.425781 "/>
</clipPath>
<clipPath id="clip7">
  <path d="M 171 46 L 199 46 L 199 84 L 171 84 Z M 171 46 "/>
</clipPath>
<clipPath id="clip8">
  <path d="M 166.136719 65.492188 C 181.019531 65.492188 193.078125 54.46875 193.078125 40.867188 C 193.078125 27.257813 181.019531 16.222656 166.136719 16.222656 C 151.269531 16.222656 139.199219 27.257813 139.199219 40.867188 C 139.199219 54.46875 151.269531 65.492188 166.136719 65.492188 Z M 166.136719 72.613281 C 151.746094 72.613281 139.566406 82.417969 135.519531 95.914063 C 130.546875 79.042969 116.121094 66.835938 99.097656 66.835938 C 82.074219 66.835938 67.648438 79.042969 62.675781 95.914063 C 58.628906 82.417969 46.453125 72.613281 32.054688 72.613281 C 14.351563 72.613281 0 87.441406 0 105.738281 C 0 114.175781 3.058594 129.753906 8.085938 144.082031 L 56.679688 144.082031 C 59.238281 136.804688 61.28125 129.199219 62.675781 122.367188 C 64.210938 132.71875 66.488281 145.453125 70.476563 157.511719 L 127.71875 157.511719 C 131.707031 145.453125 133.988281 132.71875 135.519531 122.367188 C 136.914063 129.199219 138.957031 136.804688 141.515625 144.082031 L 190.109375 144.082031 C 195.136719 129.753906 198.195313 114.175781 198.195313 105.738281 C 198.195313 87.441406 183.84375 72.613281 166.136719 72.613281 Z M 32.054688 65.492188 C 46.929688 65.492188 58.996094 54.46875 58.996094 40.867188 C 58.996094 27.257813 46.929688 16.222656 32.054688 16.222656 C 17.179688 16.222656 5.117188 27.257813 5.117188 40.867188 C 5.117188 54.46875 17.179688 65.492188 32.054688 65.492188 Z M 66.929688 29.425781 C 66.929688 13.179688 81.332031 0.00390625 99.097656 0.00390625 C 116.863281 0.00390625 131.265625 13.179688 131.265625 29.425781 C 131.265625 45.675781 116.863281 58.84375 99.097656 58.84375 C 81.332031 58.84375 66.929688 45.675781 66.929688 29.425781 Z M 66.929688 29.425781 "/>
</clipPath>
<clipPath id="clip9">
  <path d="M 135 46 L 172 46 L 172 84 L 135 84 Z M 135 46 "/>
</clipPath>
<clipPath id="clip10">
  <path d="M 166.136719 65.492188 C 181.019531 65.492188 193.078125 54.46875 193.078125 40.867188 C 193.078125 27.257813 181.019531 16.222656 166.136719 16.222656 C 151.269531 16.222656 139.199219 27.257813 139.199219 40.867188 C 139.199219 54.46875 151.269531 65.492188 166.136719 65.492188 Z M 166.136719 72.613281 C 151.746094 72.613281 139.566406 82.417969 135.519531 95.914063 C 130.546875 79.042969 116.121094 66.835938 99.097656 66.835938 C 82.074219 66.835938 67.648438 79.042969 62.675781 95.914063 C 58.628906 82.417969 46.453125 72.613281 32.054688 72.613281 C 14.351563 72.613281 0 87.441406 0 105.738281 C 0 114.175781 3.058594 129.753906 8.085938 144.082031 L 56.679688 144.082031 C 59.238281 136.804688 61.28125 129.199219 62.675781 122.367188 C 64.210938 132.71875 66.488281 145.453125 70.476563 157.511719 L 127.71875 157.511719 C 131.707031 145.453125 133.988281 132.71875 135.519531 122.367188 C 136.914063 129.199219 138.957031 136.804688 141.515625 144.082031 L 190.109375 144.082031 C 195.136719 129.753906 198.195313 114.175781 198.195313 105.738281 C 198.195313 87.441406 183.84375 72.613281 166.136719 72.613281 Z M 32.054688 65.492188 C 46.929688 65.492188 58.996094 54.46875 58.996094 40.867188 C 58.996094 27.257813 46.929688 16.222656 32.054688 16.222656 C 17.179688 16.222656 5.117188 27.257813 5.117188 40.867188 C 5.117188 54.46875 17.179688 65.492188 32.054688 65.492188 Z M 66.929688 29.425781 C 66.929688 13.179688 81.332031 0.00390625 99.097656 0.00390625 C 116.863281 0.00390625 131.265625 13.179688 131.265625 29.425781 C 131.265625 45.675781 116.863281 58.84375 99.097656 58.84375 C 81.332031 58.84375 66.929688 45.675781 66.929688 29.425781 Z M 66.929688 29.425781 "/>
</clipPath>
<clipPath id="clip11">
  <path d="M 26 46 L 63 46 L 63 84 L 26 84 Z M 26 46 "/>
</clipPath>
<clipPath id="clip12">
  <path d="M 166.136719 65.492188 C 181.019531 65.492188 193.078125 54.46875 193.078125 40.867188 C 193.078125 27.257813 181.019531 16.222656 166.136719 16.222656 C 151.269531 16.222656 139.199219 27.257813 139.199219 40.867188 C 139.199219 54.46875 151.269531 65.492188 166.136719 65.492188 Z M 166.136719 72.613281 C 151.746094 72.613281 139.566406 82.417969 135.519531 95.914063 C 130.546875 79.042969 116.121094 66.835938 99.097656 66.835938 C 82.074219 66.835938 67.648438 79.042969 62.675781 95.914063 C 58.628906 82.417969 46.453125 72.613281 32.054688 72.613281 C 14.351563 72.613281 0 87.441406 0 105.738281 C 0 114.175781 3.058594 129.753906 8.085938 144.082031 L 56.679688 144.082031 C 59.238281 136.804688 61.28125 129.199219 62.675781 122.367188 C 64.210938 132.71875 66.488281 145.453125 70.476563 157.511719 L 127.71875 157.511719 C 131.707031 145.453125 133.988281 132.71875 135.519531 122.367188 C 136.914063 129.199219 138.957031 136.804688 141.515625 144.082031 L 190.109375 144.082031 C 195.136719 129.753906 198.195313 114.175781 198.195313 105.738281 C 198.195313 87.441406 183.84375 72.613281 166.136719 72.613281 Z M 32.054688 65.492188 C 46.929688 65.492188 58.996094 54.46875 58.996094 40.867188 C 58.996094 27.257813 46.929688 16.222656 32.054688 16.222656 C 17.179688 16.222656 5.117188 27.257813 5.117188 40.867188 C 5.117188 54.46875 17.179688 65.492188 32.054688 65.492188 Z M 66.929688 29.425781 C 66.929688 13.179688 81.332031 0.00390625 99.097656 0.00390625 C 116.863281 0.00390625 131.265625 13.179688 131.265625 29.425781 C 131.265625 45.675781 116.863281 58.84375 99.097656 58.84375 C 81.332031 58.84375 66.929688 45.675781 66.929688 29.425781 Z M 66.929688 29.425781 "/>
</clipPath>
<clipPath id="clip13">
  <path d="M 0 46 L 27 46 L 27 84 L 0 84 Z M 0 46 "/>
</clipPath>
<clipPath id="clip14">
  <path d="M 166.136719 65.492188 C 181.019531 65.492188 193.078125 54.46875 193.078125 40.867188 C 193.078125 27.257813 181.019531 16.222656 166.136719 16.222656 C 151.269531 16.222656 139.199219 27.257813 139.199219 40.867188 C 139.199219 54.46875 151.269531 65.492188 166.136719 65.492188 Z M 166.136719 72.613281 C 151.746094 72.613281 139.566406 82.417969 135.519531 95.914063 C 130.546875 79.042969 116.121094 66.835938 99.097656 66.835938 C 82.074219 66.835938 67.648438 79.042969 62.675781 95.914063 C 58.628906 82.417969 46.453125 72.613281 32.054688 72.613281 C 14.351563 72.613281 0 87.441406 0 105.738281 C 0 114.175781 3.058594 129.753906 8.085938 144.082031 L 56.679688 144.082031 C 59.238281 136.804688 61.28125 129.199219 62.675781 122.367188 C 64.210938 132.71875 66.488281 145.453125 70.476563 157.511719 L 127.71875 157.511719 C 131.707031 145.453125 133.988281 132.71875 135.519531 122.367188 C 136.914063 129.199219 138.957031 136.804688 141.515625 144.082031 L 190.109375 144.082031 C 195.136719 129.753906 198.195313 114.175781 198.195313 105.738281 C 198.195313 87.441406 183.84375 72.613281 166.136719 72.613281 Z M 32.054688 65.492188 C 46.929688 65.492188 58.996094 54.46875 58.996094 40.867188 C 58.996094 27.257813 46.929688 16.222656 32.054688 16.222656 C 17.179688 16.222656 5.117188 27.257813 5.117188 40.867188 C 5.117188 54.46875 17.179688 65.492188 32.054688 65.492188 Z M 66.929688 29.425781 C 66.929688 13.179688 81.332031 0.00390625 99.097656 0.00390625 C 116.863281 0.00390625 131.265625 13.179688 131.265625 29.425781 C 131.265625 45.675781 116.863281 58.84375 99.097656 58.84375 C 81.332031 58.84375 66.929688 45.675781 66.929688 29.425781 Z M 66.929688 29.425781 "/>
</clipPath>
<clipPath id="clip15">
  <path d="M 99 46 L 136 46 L 136 84 L 99 84 Z M 99 46 "/>
</clipPath>
<clipPath id="clip16">
  <path d="M 166.136719 65.492188 C 181.019531 65.492188 193.078125 54.46875 193.078125 40.867188 C 193.078125 27.257813 181.019531 16.222656 166.136719 16.222656 C 151.269531 16.222656 139.199219 27.257813 139.199219 40.867188 C 139.199219 54.46875 151.269531 65.492188 166.136719 65.492188 Z M 166.136719 72.613281 C 151.746094 72.613281 139.566406 82.417969 135.519531 95.914063 C 130.546875 79.042969 116.121094 66.835938 99.097656 66.835938 C 82.074219 66.835938 67.648438 79.042969 62.675781 95.914063 C 58.628906 82.417969 46.453125 72.613281 32.054688 72.613281 C 14.351563 72.613281 0 87.441406 0 105.738281 C 0 114.175781 3.058594 129.753906 8.085938 144.082031 L 56.679688 144.082031 C 59.238281 136.804688 61.28125 129.199219 62.675781 122.367188 C 64.210938 132.71875 66.488281 145.453125 70.476563 157.511719 L 127.71875 157.511719 C 131.707031 145.453125 133.988281 132.71875 135.519531 122.367188 C 136.914063 129.199219 138.957031 136.804688 141.515625 144.082031 L 190.109375 144.082031 C 195.136719 129.753906 198.195313 114.175781 198.195313 105.738281 C 198.195313 87.441406 183.84375 72.613281 166.136719 72.613281 Z M 32.054688 65.492188 C 46.929688 65.492188 58.996094 54.46875 58.996094 40.867188 C 58.996094 27.257813 46.929688 16.222656 32.054688 16.222656 C 17.179688 16.222656 5.117188 27.257813 5.117188 40.867188 C 5.117188 54.46875 17.179688 65.492188 32.054688 65.492188 Z M 66.929688 29.425781 C 66.929688 13.179688 81.332031 0.00390625 99.097656 0.00390625 C 116.863281 0.00390625 131.265625 13.179688 131.265625 29.425781 C 131.265625 45.675781 116.863281 58.84375 99.097656 58.84375 C 81.332031 58.84375 66.929688 45.675781 66.929688 29.425781 Z M 66.929688 29.425781 "/>
</clipPath>
<clipPath id="clip17">
  <path d="M 62 46 L 100 46 L 100 84 L 62 84 Z M 62 46 "/>
</clipPath>
<clipPath id="clip18">
  <path d="M 166.136719 65.492188 C 181.019531 65.492188 193.078125 54.46875 193.078125 40.867188 C 193.078125 27.257813 181.019531 16.222656 166.136719 16.222656 C 151.269531 16.222656 139.199219 27.257813 139.199219 40.867188 C 139.199219 54.46875 151.269531 65.492188 166.136719 65.492188 Z M 166.136719 72.613281 C 151.746094 72.613281 139.566406 82.417969 135.519531 95.914063 C 130.546875 79.042969 116.121094 66.835938 99.097656 66.835938 C 82.074219 66.835938 67.648438 79.042969 62.675781 95.914063 C 58.628906 82.417969 46.453125 72.613281 32.054688 72.613281 C 14.351563 72.613281 0 87.441406 0 105.738281 C 0 114.175781 3.058594 129.753906 8.085938 144.082031 L 56.679688 144.082031 C 59.238281 136.804688 61.28125 129.199219 62.675781 122.367188 C 64.210938 132.71875 66.488281 145.453125 70.476563 157.511719 L 127.71875 157.511719 C 131.707031 145.453125 133.988281 132.71875 135.519531 122.367188 C 136.914063 129.199219 138.957031 136.804688 141.515625 144.082031 L 190.109375 144.082031 C 195.136719 129.753906 198.195313 114.175781 198.195313 105.738281 C 198.195313 87.441406 183.84375 72.613281 166.136719 72.613281 Z M 32.054688 65.492188 C 46.929688 65.492188 58.996094 54.46875 58.996094 40.867188 C 58.996094 27.257813 46.929688 16.222656 32.054688 16.222656 C 17.179688 16.222656 5.117188 27.257813 5.117188 40.867188 C 5.117188 54.46875 17.179688 65.492188 32.054688 65.492188 Z M 66.929688 29.425781 C 66.929688 13.179688 81.332031 0.00390625 99.097656 0.00390625 C 116.863281 0.00390625 131.265625 13.179688 131.265625 29.425781 C 131.265625 45.675781 116.863281 58.84375 99.097656 58.84375 C 81.332031 58.84375 66.929688 45.675781 66.929688 29.425781 Z M 66.929688 29.425781 "/>
</clipPath>
<clipPath id="clip19">
  <path d="M 26 46 L 63 46 L 63 84 L 26 84 Z M 26 46 "/>
</clipPath>
<clipPath id="clip20">
  <path d="M 166.136719 65.492188 C 181.019531 65.492188 193.078125 54.46875 193.078125 40.867188 C 193.078125 27.257813 181.019531 16.222656 166.136719 16.222656 C 151.269531 16.222656 139.199219 27.257813 139.199219 40.867188 C 139.199219 54.46875 151.269531 65.492188 166.136719 65.492188 Z M 166.136719 72.613281 C 151.746094 72.613281 139.566406 82.417969 135.519531 95.914063 C 130.546875 79.042969 116.121094 66.835938 99.097656 66.835938 C 82.074219 66.835938 67.648438 79.042969 62.675781 95.914063 C 58.628906 82.417969 46.453125 72.613281 32.054688 72.613281 C 14.351563 72.613281 0 87.441406 0 105.738281 C 0 114.175781 3.058594 129.753906 8.085938 144.082031 L 56.679688 144.082031 C 59.238281 136.804688 61.28125 129.199219 62.675781 122.367188 C 64.210938 132.71875 66.488281 145.453125 70.476563 157.511719 L 127.71875 157.511719 C 131.707031 145.453125 133.988281 132.71875 135.519531 122.367188 C 136.914063 129.199219 138.957031 136.804688 141.515625 144.082031 L 190.109375 144.082031 C 195.136719 129.753906 198.195313 114.175781 198.195313 105.738281 C 198.195313 87.441406 183.84375 72.613281 166.136719 72.613281 Z M 32.054688 65.492188 C 46.929688 65.492188 58.996094 54.46875 58.996094 40.867188 C 58.996094 27.257813 46.929688 16.222656 32.054688 16.222656 C 17.179688 16.222656 5.117188 27.257813 5.117188 40.867188 C 5.117188 54.46875 17.179688 65.492188 32.054688 65.492188 Z M 66.929688 29.425781 C 66.929688 13.179688 81.332031 0.00390625 99.097656 0.00390625 C 116.863281 0.00390625 131.265625 13.179688 131.265625 29.425781 C 131.265625 45.675781 116.863281 58.84375 99.097656 58.84375 C 81.332031 58.84375 66.929688 45.675781 66.929688 29.425781 Z M 66.929688 29.425781 "/>
</clipPath>
<clipPath id="clip21">
  <path d="M 99 9 L 136 9 L 136 47 L 99 47 Z M 99 9 "/>
</clipPath>
<clipPath id="clip22">
  <path d="M 166.136719 65.492188 C 181.019531 65.492188 193.078125 54.46875 193.078125 40.867188 C 193.078125 27.257813 181.019531 16.222656 166.136719 16.222656 C 151.269531 16.222656 139.199219 27.257813 139.199219 40.867188 C 139.199219 54.46875 151.269531 65.492188 166.136719 65.492188 Z M 166.136719 72.613281 C 151.746094 72.613281 139.566406 82.417969 135.519531 95.914063 C 130.546875 79.042969 116.121094 66.835938 99.097656 66.835938 C 82.074219 66.835938 67.648438 79.042969 62.675781 95.914063 C 58.628906 82.417969 46.453125 72.613281 32.054688 72.613281 C 14.351563 72.613281 0 87.441406 0 105.738281 C 0 114.175781 3.058594 129.753906 8.085938 144.082031 L 56.679688 144.082031 C 59.238281 136.804688 61.28125 129.199219 62.675781 122.367188 C 64.210938 132.71875 66.488281 145.453125 70.476563 157.511719 L 127.71875 157.511719 C 131.707031 145.453125 133.988281 132.71875 135.519531 122.367188 C 136.914063 129.199219 138.957031 136.804688 141.515625 144.082031 L 190.109375 144.082031 C 195.136719 129.753906 198.195313 114.175781 198.195313 105.738281 C 198.195313 87.441406 183.84375 72.613281 166.136719 72.613281 Z M 32.054688 65.492188 C 46.929688 65.492188 58.996094 54.46875 58.996094 40.867188 C 58.996094 27.257813 46.929688 16.222656 32.054688 16.222656 C 17.179688 16.222656 5.117188 27.257813 5.117188 40.867188 C 5.117188 54.46875 17.179688 65.492188 32.054688 65.492188 Z M 66.929688 29.425781 C 66.929688 13.179688 81.332031 0.00390625 99.097656 0.00390625 C 116.863281 0.00390625 131.265625 13.179688 131.265625 29.425781 C 131.265625 45.675781 116.863281 58.84375 99.097656 58.84375 C 81.332031 58.84375 66.929688 45.675781 66.929688 29.425781 Z M 66.929688 29.425781 "/>
</clipPath>
<clipPath id="clip23">
  <path d="M 135 9 L 172 9 L 172 47 L 135 47 Z M 135 9 "/>
</clipPath>
<clipPath id="clip24">
  <path d="M 166.136719 65.492188 C 181.019531 65.492188 193.078125 54.46875 193.078125 40.867188 C 193.078125 27.257813 181.019531 16.222656 166.136719 16.222656 C 151.269531 16.222656 139.199219 27.257813 139.199219 40.867188 C 139.199219 54.46875 151.269531 65.492188 166.136719 65.492188 Z M 166.136719 72.613281 C 151.746094 72.613281 139.566406 82.417969 135.519531 95.914063 C 130.546875 79.042969 116.121094 66.835938 99.097656 66.835938 C 82.074219 66.835938 67.648438 79.042969 62.675781 95.914063 C 58.628906 82.417969 46.453125 72.613281 32.054688 72.613281 C 14.351563 72.613281 0 87.441406 0 105.738281 C 0 114.175781 3.058594 129.753906 8.085938 144.082031 L 56.679688 144.082031 C 59.238281 136.804688 61.28125 129.199219 62.675781 122.367188 C 64.210938 132.71875 66.488281 145.453125 70.476563 157.511719 L 127.71875 157.511719 C 131.707031 145.453125 133.988281 132.71875 135.519531 122.367188 C 136.914063 129.199219 138.957031 136.804688 141.515625 144.082031 L 190.109375 144.082031 C 195.136719 129.753906 198.195313 114.175781 198.195313 105.738281 C 198.195313 87.441406 183.84375 72.613281 166.136719 72.613281 Z M 32.054688 65.492188 C 46.929688 65.492188 58.996094 54.46875 58.996094 40.867188 C 58.996094 27.257813 46.929688 16.222656 32.054688 16.222656 C 17.179688 16.222656 5.117188 27.257813 5.117188 40.867188 C 5.117188 54.46875 17.179688 65.492188 32.054688 65.492188 Z M 66.929688 29.425781 C 66.929688 13.179688 81.332031 0.00390625 99.097656 0.00390625 C 116.863281 0.00390625 131.265625 13.179688 131.265625 29.425781 C 131.265625 45.675781 116.863281 58.84375 99.097656 58.84375 C 81.332031 58.84375 66.929688 45.675781 66.929688 29.425781 Z M 66.929688 29.425781 "/>
</clipPath>
<clipPath id="clip25">
  <path d="M 62 9 L 100 9 L 100 47 L 62 47 Z M 62 9 "/>
</clipPath>
<clipPath id="clip26">
  <path d="M 166.136719 65.492188 C 181.019531 65.492188 193.078125 54.46875 193.078125 40.867188 C 193.078125 27.257813 181.019531 16.222656 166.136719 16.222656 C 151.269531 16.222656 139.199219 27.257813 139.199219 40.867188 C 139.199219 54.46875 151.269531 65.492188 166.136719 65.492188 Z M 166.136719 72.613281 C 151.746094 72.613281 139.566406 82.417969 135.519531 95.914063 C 130.546875 79.042969 116.121094 66.835938 99.097656 66.835938 C 82.074219 66.835938 67.648438 79.042969 62.675781 95.914063 C 58.628906 82.417969 46.453125 72.613281 32.054688 72.613281 C 14.351563 72.613281 0 87.441406 0 105.738281 C 0 114.175781 3.058594 129.753906 8.085938 144.082031 L 56.679688 144.082031 C 59.238281 136.804688 61.28125 129.199219 62.675781 122.367188 C 64.210938 132.71875 66.488281 145.453125 70.476563 157.511719 L 127.71875 157.511719 C 131.707031 145.453125 133.988281 132.71875 135.519531 122.367188 C 136.914063 129.199219 138.957031 136.804688 141.515625 144.082031 L 190.109375 144.082031 C 195.136719 129.753906 198.195313 114.175781 198.195313 105.738281 C 198.195313 87.441406 183.84375 72.613281 166.136719 72.613281 Z M 32.054688 65.492188 C 46.929688 65.492188 58.996094 54.46875 58.996094 40.867188 C 58.996094 27.257813 46.929688 16.222656 32.054688 16.222656 C 17.179688 16.222656 5.117188 27.257813 5.117188 40.867188 C 5.117188 54.46875 17.179688 65.492188 32.054688 65.492188 Z M 66.929688 29.425781 C 66.929688 13.179688 81.332031 0.00390625 99.097656 0.00390625 C 116.863281 0.00390625 131.265625 13.179688 131.265625 29.425781 C 131.265625 45.675781 116.863281 58.84375 99.097656 58.84375 C 81.332031 58.84375 66.929688 45.675781 66.929688 29.425781 Z M 66.929688 29.425781 "/>
</clipPath>
<clipPath id="clip27">
  <path d="M 171 9 L 199 9 L 199 47 L 171 47 Z M 171 9 "/>
</clipPath>
<clipPath id="clip28">
  <path d="M 166.136719 65.492188 C 181.019531 65.492188 193.078125 54.46875 193.078125 40.867188 C 193.078125 27.257813 181.019531 16.222656 166.136719 16.222656 C 151.269531 16.222656 139.199219 27.257813 139.199219 40.867188 C 139.199219 54.46875 151.269531 65.492188 166.136719 65.492188 Z M 166.136719 72.613281 C 151.746094 72.613281 139.566406 82.417969 135.519531 95.914063 C 130.546875 79.042969 116.121094 66.835938 99.097656 66.835938 C 82.074219 66.835938 67.648438 79.042969 62.675781 95.914063 C 58.628906 82.417969 46.453125 72.613281 32.054688 72.613281 C 14.351563 72.613281 0 87.441406 0 105.738281 C 0 114.175781 3.058594 129.753906 8.085938 144.082031 L 56.679688 144.082031 C 59.238281 136.804688 61.28125 129.199219 62.675781 122.367188 C 64.210938 132.71875 66.488281 145.453125 70.476563 157.511719 L 127.71875 157.511719 C 131.707031 145.453125 133.988281 132.71875 135.519531 122.367188 C 136.914063 129.199219 138.957031 136.804688 141.515625 144.082031 L 190.109375 144.082031 C 195.136719 129.753906 198.195313 114.175781 198.195313 105.738281 C 198.195313 87.441406 183.84375 72.613281 166.136719 72.613281 Z M 32.054688 65.492188 C 46.929688 65.492188 58.996094 54.46875 58.996094 40.867188 C 58.996094 27.257813 46.929688 16.222656 32.054688 16.222656 C 17.179688 16.222656 5.117188 27.257813 5.117188 40.867188 C 5.117188 54.46875 17.179688 65.492188 32.054688 65.492188 Z M 66.929688 29.425781 C 66.929688 13.179688 81.332031 0.00390625 99.097656 0.00390625 C 116.863281 0.00390625 131.265625 13.179688 131.265625 29.425781 C 131.265625 45.675781 116.863281 58.84375 99.097656 58.84375 C 81.332031 58.84375 66.929688 45.675781 66.929688 29.425781 Z M 66.929688 29.425781 "/>
</clipPath>
<clipPath id="clip29">
  <path d="M 26 9 L 63 9 L 63 47 L 26 47 Z M 26 9 "/>
</clipPath>
<clipPath id="clip30">
  <path d="M 166.136719 65.492188 C 181.019531 65.492188 193.078125 54.46875 193.078125 40.867188 C 193.078125 27.257813 181.019531 16.222656 166.136719 16.222656 C 151.269531 16.222656 139.199219 27.257813 139.199219 40.867188 C 139.199219 54.46875 151.269531 65.492188 166.136719 65.492188 Z M 166.136719 72.613281 C 151.746094 72.613281 139.566406 82.417969 135.519531 95.914063 C 130.546875 79.042969 116.121094 66.835938 99.097656 66.835938 C 82.074219 66.835938 67.648438 79.042969 62.675781 95.914063 C 58.628906 82.417969 46.453125 72.613281 32.054688 72.613281 C 14.351563 72.613281 0 87.441406 0 105.738281 C 0 114.175781 3.058594 129.753906 8.085938 144.082031 L 56.679688 144.082031 C 59.238281 136.804688 61.28125 129.199219 62.675781 122.367188 C 64.210938 132.71875 66.488281 145.453125 70.476563 157.511719 L 127.71875 157.511719 C 131.707031 145.453125 133.988281 132.71875 135.519531 122.367188 C 136.914063 129.199219 138.957031 136.804688 141.515625 144.082031 L 190.109375 144.082031 C 195.136719 129.753906 198.195313 114.175781 198.195313 105.738281 C 198.195313 87.441406 183.84375 72.613281 166.136719 72.613281 Z M 32.054688 65.492188 C 46.929688 65.492188 58.996094 54.46875 58.996094 40.867188 C 58.996094 27.257813 46.929688 16.222656 32.054688 16.222656 C 17.179688 16.222656 5.117188 27.257813 5.117188 40.867188 C 5.117188 54.46875 17.179688 65.492188 32.054688 65.492188 Z M 66.929688 29.425781 C 66.929688 13.179688 81.332031 0.00390625 99.097656 0.00390625 C 116.863281 0.00390625 131.265625 13.179688 131.265625 29.425781 C 131.265625 45.675781 116.863281 58.84375 99.097656 58.84375 C 81.332031 58.84375 66.929688 45.675781 66.929688 29.425781 Z M 66.929688 29.425781 "/>
</clipPath>
<clipPath id="clip31">
  <path d="M 0 9 L 27 9 L 27 47 L 0 47 Z M 0 9 "/>
</clipPath>
<clipPath id="clip32">
  <path d="M 166.136719 65.492188 C 181.019531 65.492188 193.078125 54.46875 193.078125 40.867188 C 193.078125 27.257813 181.019531 16.222656 166.136719 16.222656 C 151.269531 16.222656 139.199219 27.257813 139.199219 40.867188 C 139.199219 54.46875 151.269531 65.492188 166.136719 65.492188 Z M 166.136719 72.613281 C 151.746094 72.613281 139.566406 82.417969 135.519531 95.914063 C 130.546875 79.042969 116.121094 66.835938 99.097656 66.835938 C 82.074219 66.835938 67.648438 79.042969 62.675781 95.914063 C 58.628906 82.417969 46.453125 72.613281 32.054688 72.613281 C 14.351563 72.613281 0 87.441406 0 105.738281 C 0 114.175781 3.058594 129.753906 8.085938 144.082031 L 56.679688 144.082031 C 59.238281 136.804688 61.28125 129.199219 62.675781 122.367188 C 64.210938 132.71875 66.488281 145.453125 70.476563 157.511719 L 127.71875 157.511719 C 131.707031 145.453125 133.988281 132.71875 135.519531 122.367188 C 136.914063 129.199219 138.957031 136.804688 141.515625 144.082031 L 190.109375 144.082031 C 195.136719 129.753906 198.195313 114.175781 198.195313 105.738281 C 198.195313 87.441406 183.84375 72.613281 166.136719 72.613281 Z M 32.054688 65.492188 C 46.929688 65.492188 58.996094 54.46875 58.996094 40.867188 C 58.996094 27.257813 46.929688 16.222656 32.054688 16.222656 C 17.179688 16.222656 5.117188 27.257813 5.117188 40.867188 C 5.117188 54.46875 17.179688 65.492188 32.054688 65.492188 Z M 66.929688 29.425781 C 66.929688 13.179688 81.332031 0.00390625 99.097656 0.00390625 C 116.863281 0.00390625 131.265625 13.179688 131.265625 29.425781 C 131.265625 45.675781 116.863281 58.84375 99.097656 58.84375 C 81.332031 58.84375 66.929688 45.675781 66.929688 29.425781 Z M 66.929688 29.425781 "/>
</clipPath>
<clipPath id="clip33">
  <path d="M 171 83 L 199 83 L 199 121 L 171 121 Z M 171 83 "/>
</clipPath>
<clipPath id="clip34">
  <path d="M 166.136719 65.492188 C 181.019531 65.492188 193.078125 54.46875 193.078125 40.867188 C 193.078125 27.257813 181.019531 16.222656 166.136719 16.222656 C 151.269531 16.222656 139.199219 27.257813 139.199219 40.867188 C 139.199219 54.46875 151.269531 65.492188 166.136719 65.492188 Z M 166.136719 72.613281 C 151.746094 72.613281 139.566406 82.417969 135.519531 95.914063 C 130.546875 79.042969 116.121094 66.835938 99.097656 66.835938 C 82.074219 66.835938 67.648438 79.042969 62.675781 95.914063 C 58.628906 82.417969 46.453125 72.613281 32.054688 72.613281 C 14.351563 72.613281 0 87.441406 0 105.738281 C 0 114.175781 3.058594 129.753906 8.085938 144.082031 L 56.679688 144.082031 C 59.238281 136.804688 61.28125 129.199219 62.675781 122.367188 C 64.210938 132.71875 66.488281 145.453125 70.476563 157.511719 L 127.71875 157.511719 C 131.707031 145.453125 133.988281 132.71875 135.519531 122.367188 C 136.914063 129.199219 138.957031 136.804688 141.515625 144.082031 L 190.109375 144.082031 C 195.136719 129.753906 198.195313 114.175781 198.195313 105.738281 C 198.195313 87.441406 183.84375 72.613281 166.136719 72.613281 Z M 32.054688 65.492188 C 46.929688 65.492188 58.996094 54.46875 58.996094 40.867188 C 58.996094 27.257813 46.929688 16.222656 32.054688 16.222656 C 17.179688 16.222656 5.117188 27.257813 5.117188 40.867188 C 5.117188 54.46875 17.179688 65.492188 32.054688 65.492188 Z M 66.929688 29.425781 C 66.929688 13.179688 81.332031 0.00390625 99.097656 0.00390625 C 116.863281 0.00390625 131.265625 13.179688 131.265625 29.425781 C 131.265625 45.675781 116.863281 58.84375 99.097656 58.84375 C 81.332031 58.84375 66.929688 45.675781 66.929688 29.425781 Z M 66.929688 29.425781 "/>
</clipPath>
<clipPath id="clip35">
  <path d="M 135 83 L 172 83 L 172 121 L 135 121 Z M 135 83 "/>
</clipPath>
<clipPath id="clip36">
  <path d="M 166.136719 65.492188 C 181.019531 65.492188 193.078125 54.46875 193.078125 40.867188 C 193.078125 27.257813 181.019531 16.222656 166.136719 16.222656 C 151.269531 16.222656 139.199219 27.257813 139.199219 40.867188 C 139.199219 54.46875 151.269531 65.492188 166.136719 65.492188 Z M 166.136719 72.613281 C 151.746094 72.613281 139.566406 82.417969 135.519531 95.914063 C 130.546875 79.042969 116.121094 66.835938 99.097656 66.835938 C 82.074219 66.835938 67.648438 79.042969 62.675781 95.914063 C 58.628906 82.417969 46.453125 72.613281 32.054688 72.613281 C 14.351563 72.613281 0 87.441406 0 105.738281 C 0 114.175781 3.058594 129.753906 8.085938 144.082031 L 56.679688 144.082031 C 59.238281 136.804688 61.28125 129.199219 62.675781 122.367188 C 64.210938 132.71875 66.488281 145.453125 70.476563 157.511719 L 127.71875 157.511719 C 131.707031 145.453125 133.988281 132.71875 135.519531 122.367188 C 136.914063 129.199219 138.957031 136.804688 141.515625 144.082031 L 190.109375 144.082031 C 195.136719 129.753906 198.195313 114.175781 198.195313 105.738281 C 198.195313 87.441406 183.84375 72.613281 166.136719 72.613281 Z M 32.054688 65.492188 C 46.929688 65.492188 58.996094 54.46875 58.996094 40.867188 C 58.996094 27.257813 46.929688 16.222656 32.054688 16.222656 C 17.179688 16.222656 5.117188 27.257813 5.117188 40.867188 C 5.117188 54.46875 17.179688 65.492188 32.054688 65.492188 Z M 66.929688 29.425781 C 66.929688 13.179688 81.332031 0.00390625 99.097656 0.00390625 C 116.863281 0.00390625 131.265625 13.179688 131.265625 29.425781 C 131.265625 45.675781 116.863281 58.84375 99.097656 58.84375 C 81.332031 58.84375 66.929688 45.675781 66.929688 29.425781 Z M 66.929688 29.425781 "/>
</clipPath>
<clipPath id="clip37">
  <path d="M 99 83 L 136 83 L 136 121 L 99 121 Z M 99 83 "/>
</clipPath>
<clipPath id="clip38">
  <path d="M 166.136719 65.492188 C 181.019531 65.492188 193.078125 54.46875 193.078125 40.867188 C 193.078125 27.257813 181.019531 16.222656 166.136719 16.222656 C 151.269531 16.222656 139.199219 27.257813 139.199219 40.867188 C 139.199219 54.46875 151.269531 65.492188 166.136719 65.492188 Z M 166.136719 72.613281 C 151.746094 72.613281 139.566406 82.417969 135.519531 95.914063 C 130.546875 79.042969 116.121094 66.835938 99.097656 66.835938 C 82.074219 66.835938 67.648438 79.042969 62.675781 95.914063 C 58.628906 82.417969 46.453125 72.613281 32.054688 72.613281 C 14.351563 72.613281 0 87.441406 0 105.738281 C 0 114.175781 3.058594 129.753906 8.085938 144.082031 L 56.679688 144.082031 C 59.238281 136.804688 61.28125 129.199219 62.675781 122.367188 C 64.210938 132.71875 66.488281 145.453125 70.476563 157.511719 L 127.71875 157.511719 C 131.707031 145.453125 133.988281 132.71875 135.519531 122.367188 C 136.914063 129.199219 138.957031 136.804688 141.515625 144.082031 L 190.109375 144.082031 C 195.136719 129.753906 198.195313 114.175781 198.195313 105.738281 C 198.195313 87.441406 183.84375 72.613281 166.136719 72.613281 Z M 32.054688 65.492188 C 46.929688 65.492188 58.996094 54.46875 58.996094 40.867188 C 58.996094 27.257813 46.929688 16.222656 32.054688 16.222656 C 17.179688 16.222656 5.117188 27.257813 5.117188 40.867188 C 5.117188 54.46875 17.179688 65.492188 32.054688 65.492188 Z M 66.929688 29.425781 C 66.929688 13.179688 81.332031 0.00390625 99.097656 0.00390625 C 116.863281 0.00390625 131.265625 13.179688 131.265625 29.425781 C 131.265625 45.675781 116.863281 58.84375 99.097656 58.84375 C 81.332031 58.84375 66.929688 45.675781 66.929688 29.425781 Z M 66.929688 29.425781 "/>
</clipPath>
<clipPath id="clip39">
  <path d="M 62 83 L 100 83 L 100 121 L 62 121 Z M 62 83 "/>
</clipPath>
<clipPath id="clip40">
  <path d="M 166.136719 65.492188 C 181.019531 65.492188 193.078125 54.46875 193.078125 40.867188 C 193.078125 27.257813 181.019531 16.222656 166.136719 16.222656 C 151.269531 16.222656 139.199219 27.257813 139.199219 40.867188 C 139.199219 54.46875 151.269531 65.492188 166.136719 65.492188 Z M 166.136719 72.613281 C 151.746094 72.613281 139.566406 82.417969 135.519531 95.914063 C 130.546875 79.042969 116.121094 66.835938 99.097656 66.835938 C 82.074219 66.835938 67.648438 79.042969 62.675781 95.914063 C 58.628906 82.417969 46.453125 72.613281 32.054688 72.613281 C 14.351563 72.613281 0 87.441406 0 105.738281 C 0 114.175781 3.058594 129.753906 8.085938 144.082031 L 56.679688 144.082031 C 59.238281 136.804688 61.28125 129.199219 62.675781 122.367188 C 64.210938 132.71875 66.488281 145.453125 70.476563 157.511719 L 127.71875 157.511719 C 131.707031 145.453125 133.988281 132.71875 135.519531 122.367188 C 136.914063 129.199219 138.957031 136.804688 141.515625 144.082031 L 190.109375 144.082031 C 195.136719 129.753906 198.195313 114.175781 198.195313 105.738281 C 198.195313 87.441406 183.84375 72.613281 166.136719 72.613281 Z M 32.054688 65.492188 C 46.929688 65.492188 58.996094 54.46875 58.996094 40.867188 C 58.996094 27.257813 46.929688 16.222656 32.054688 16.222656 C 17.179688 16.222656 5.117188 27.257813 5.117188 40.867188 C 5.117188 54.46875 17.179688 65.492188 32.054688 65.492188 Z M 66.929688 29.425781 C 66.929688 13.179688 81.332031 0.00390625 99.097656 0.00390625 C 116.863281 0.00390625 131.265625 13.179688 131.265625 29.425781 C 131.265625 45.675781 116.863281 58.84375 99.097656 58.84375 C 81.332031 58.84375 66.929688 45.675781 66.929688 29.425781 Z M 66.929688 29.425781 "/>
</clipPath>
<clipPath id="clip41">
  <path d="M 0 83 L 27 83 L 27 121 L 0 121 Z M 0 83 "/>
</clipPath>
<clipPath id="clip42">
  <path d="M 166.136719 65.492188 C 181.019531 65.492188 193.078125 54.46875 193.078125 40.867188 C 193.078125 27.257813 181.019531 16.222656 166.136719 16.222656 C 151.269531 16.222656 139.199219 27.257813 139.199219 40.867188 C 139.199219 54.46875 151.269531 65.492188 166.136719 65.492188 Z M 166.136719 72.613281 C 151.746094 72.613281 139.566406 82.417969 135.519531 95.914063 C 130.546875 79.042969 116.121094 66.835938 99.097656 66.835938 C 82.074219 66.835938 67.648438 79.042969 62.675781 95.914063 C 58.628906 82.417969 46.453125 72.613281 32.054688 72.613281 C 14.351563 72.613281 0 87.441406 0 105.738281 C 0 114.175781 3.058594 129.753906 8.085938 144.082031 L 56.679688 144.082031 C 59.238281 136.804688 61.28125 129.199219 62.675781 122.367188 C 64.210938 132.71875 66.488281 145.453125 70.476563 157.511719 L 127.71875 157.511719 C 131.707031 145.453125 133.988281 132.71875 135.519531 122.367188 C 136.914063 129.199219 138.957031 136.804688 141.515625 144.082031 L 190.109375 144.082031 C 195.136719 129.753906 198.195313 114.175781 198.195313 105.738281 C 198.195313 87.441406 183.84375 72.613281 166.136719 72.613281 Z M 32.054688 65.492188 C 46.929688 65.492188 58.996094 54.46875 58.996094 40.867188 C 58.996094 27.257813 46.929688 16.222656 32.054688 16.222656 C 17.179688 16.222656 5.117188 27.257813 5.117188 40.867188 C 5.117188 54.46875 17.179688 65.492188 32.054688 65.492188 Z M 66.929688 29.425781 C 66.929688 13.179688 81.332031 0.00390625 99.097656 0.00390625 C 116.863281 0.00390625 131.265625 13.179688 131.265625 29.425781 C 131.265625 45.675781 116.863281 58.84375 99.097656 58.84375 C 81.332031 58.84375 66.929688 45.675781 66.929688 29.425781 Z M 66.929688 29.425781 "/>
</clipPath>
<clipPath id="clip43">
  <path d="M 26 83 L 63 83 L 63 121 L 26 121 Z M 26 83 "/>
</clipPath>
<clipPath id="clip44">
  <path d="M 166.136719 65.492188 C 181.019531 65.492188 193.078125 54.46875 193.078125 40.867188 C 193.078125 27.257813 181.019531 16.222656 166.136719 16.222656 C 151.269531 16.222656 139.199219 27.257813 139.199219 40.867188 C 139.199219 54.46875 151.269531 65.492188 166.136719 65.492188 Z M 166.136719 72.613281 C 151.746094 72.613281 139.566406 82.417969 135.519531 95.914063 C 130.546875 79.042969 116.121094 66.835938 99.097656 66.835938 C 82.074219 66.835938 67.648438 79.042969 62.675781 95.914063 C 58.628906 82.417969 46.453125 72.613281 32.054688 72.613281 C 14.351563 72.613281 0 87.441406 0 105.738281 C 0 114.175781 3.058594 129.753906 8.085938 144.082031 L 56.679688 144.082031 C 59.238281 136.804688 61.28125 129.199219 62.675781 122.367188 C 64.210938 132.71875 66.488281 145.453125 70.476563 157.511719 L 127.71875 157.511719 C 131.707031 145.453125 133.988281 132.71875 135.519531 122.367188 C 136.914063 129.199219 138.957031 136.804688 141.515625 144.082031 L 190.109375 144.082031 C 195.136719 129.753906 198.195313 114.175781 198.195313 105.738281 C 198.195313 87.441406 183.84375 72.613281 166.136719 72.613281 Z M 32.054688 65.492188 C 46.929688 65.492188 58.996094 54.46875 58.996094 40.867188 C 58.996094 27.257813 46.929688 16.222656 32.054688 16.222656 C 17.179688 16.222656 5.117188 27.257813 5.117188 40.867188 C 5.117188 54.46875 17.179688 65.492188 32.054688 65.492188 Z M 66.929688 29.425781 C 66.929688 13.179688 81.332031 0.00390625 99.097656 0.00390625 C 116.863281 0.00390625 131.265625 13.179688 131.265625 29.425781 C 131.265625 45.675781 116.863281 58.84375 99.097656 58.84375 C 81.332031 58.84375 66.929688 45.675781 66.929688 29.425781 Z M 66.929688 29.425781 "/>
</clipPath>
<clipPath id="clip45">
  <path d="M 99 120 L 136 120 L 136 157.511719 L 99 157.511719 Z M 99 120 "/>
</clipPath>
<clipPath id="clip46">
  <path d="M 166.136719 65.492188 C 181.019531 65.492188 193.078125 54.46875 193.078125 40.867188 C 193.078125 27.257813 181.019531 16.222656 166.136719 16.222656 C 151.269531 16.222656 139.199219 27.257813 139.199219 40.867188 C 139.199219 54.46875 151.269531 65.492188 166.136719 65.492188 Z M 166.136719 72.613281 C 151.746094 72.613281 139.566406 82.417969 135.519531 95.914063 C 130.546875 79.042969 116.121094 66.835938 99.097656 66.835938 C 82.074219 66.835938 67.648438 79.042969 62.675781 95.914063 C 58.628906 82.417969 46.453125 72.613281 32.054688 72.613281 C 14.351563 72.613281 0 87.441406 0 105.738281 C 0 114.175781 3.058594 129.753906 8.085938 144.082031 L 56.679688 144.082031 C 59.238281 136.804688 61.28125 129.199219 62.675781 122.367188 C 64.210938 132.71875 66.488281 145.453125 70.476563 157.511719 L 127.71875 157.511719 C 131.707031 145.453125 133.988281 132.71875 135.519531 122.367188 C 136.914063 129.199219 138.957031 136.804688 141.515625 144.082031 L 190.109375 144.082031 C 195.136719 129.753906 198.195313 114.175781 198.195313 105.738281 C 198.195313 87.441406 183.84375 72.613281 166.136719 72.613281 Z M 32.054688 65.492188 C 46.929688 65.492188 58.996094 54.46875 58.996094 40.867188 C 58.996094 27.257813 46.929688 16.222656 32.054688 16.222656 C 17.179688 16.222656 5.117188 27.257813 5.117188 40.867188 C 5.117188 54.46875 17.179688 65.492188 32.054688 65.492188 Z M 66.929688 29.425781 C 66.929688 13.179688 81.332031 0.00390625 99.097656 0.00390625 C 116.863281 0.00390625 131.265625 13.179688 131.265625 29.425781 C 131.265625 45.675781 116.863281 58.84375 99.097656 58.84375 C 81.332031 58.84375 66.929688 45.675781 66.929688 29.425781 Z M 66.929688 29.425781 "/>
</clipPath>
<clipPath id="clip47">
  <path d="M 135 120 L 172 120 L 172 157.511719 L 135 157.511719 Z M 135 120 "/>
</clipPath>
<clipPath id="clip48">
  <path d="M 166.136719 65.492188 C 181.019531 65.492188 193.078125 54.46875 193.078125 40.867188 C 193.078125 27.257813 181.019531 16.222656 166.136719 16.222656 C 151.269531 16.222656 139.199219 27.257813 139.199219 40.867188 C 139.199219 54.46875 151.269531 65.492188 166.136719 65.492188 Z M 166.136719 72.613281 C 151.746094 72.613281 139.566406 82.417969 135.519531 95.914063 C 130.546875 79.042969 116.121094 66.835938 99.097656 66.835938 C 82.074219 66.835938 67.648438 79.042969 62.675781 95.914063 C 58.628906 82.417969 46.453125 72.613281 32.054688 72.613281 C 14.351563 72.613281 0 87.441406 0 105.738281 C 0 114.175781 3.058594 129.753906 8.085938 144.082031 L 56.679688 144.082031 C 59.238281 136.804688 61.28125 129.199219 62.675781 122.367188 C 64.210938 132.71875 66.488281 145.453125 70.476563 157.511719 L 127.71875 157.511719 C 131.707031 145.453125 133.988281 132.71875 135.519531 122.367188 C 136.914063 129.199219 138.957031 136.804688 141.515625 144.082031 L 190.109375 144.082031 C 195.136719 129.753906 198.195313 114.175781 198.195313 105.738281 C 198.195313 87.441406 183.84375 72.613281 166.136719 72.613281 Z M 32.054688 65.492188 C 46.929688 65.492188 58.996094 54.46875 58.996094 40.867188 C 58.996094 27.257813 46.929688 16.222656 32.054688 16.222656 C 17.179688 16.222656 5.117188 27.257813 5.117188 40.867188 C 5.117188 54.46875 17.179688 65.492188 32.054688 65.492188 Z M 66.929688 29.425781 C 66.929688 13.179688 81.332031 0.00390625 99.097656 0.00390625 C 116.863281 0.00390625 131.265625 13.179688 131.265625 29.425781 C 131.265625 45.675781 116.863281 58.84375 99.097656 58.84375 C 81.332031 58.84375 66.929688 45.675781 66.929688 29.425781 Z M 66.929688 29.425781 "/>
</clipPath>
<clipPath id="clip49">
  <path d="M 62 120 L 100 120 L 100 157.511719 L 62 157.511719 Z M 62 120 "/>
</clipPath>
<clipPath id="clip50">
  <path d="M 166.136719 65.492188 C 181.019531 65.492188 193.078125 54.46875 193.078125 40.867188 C 193.078125 27.257813 181.019531 16.222656 166.136719 16.222656 C 151.269531 16.222656 139.199219 27.257813 139.199219 40.867188 C 139.199219 54.46875 151.269531 65.492188 166.136719 65.492188 Z M 166.136719 72.613281 C 151.746094 72.613281 139.566406 82.417969 135.519531 95.914063 C 130.546875 79.042969 116.121094 66.835938 99.097656 66.835938 C 82.074219 66.835938 67.648438 79.042969 62.675781 95.914063 C 58.628906 82.417969 46.453125 72.613281 32.054688 72.613281 C 14.351563 72.613281 0 87.441406 0 105.738281 C 0 114.175781 3.058594 129.753906 8.085938 144.082031 L 56.679688 144.082031 C 59.238281 136.804688 61.28125 129.199219 62.675781 122.367188 C 64.210938 132.71875 66.488281 145.453125 70.476563 157.511719 L 127.71875 157.511719 C 131.707031 145.453125 133.988281 132.71875 135.519531 122.367188 C 136.914063 129.199219 138.957031 136.804688 141.515625 144.082031 L 190.109375 144.082031 C 195.136719 129.753906 198.195313 114.175781 198.195313 105.738281 C 198.195313 87.441406 183.84375 72.613281 166.136719 72.613281 Z M 32.054688 65.492188 C 46.929688 65.492188 58.996094 54.46875 58.996094 40.867188 C 58.996094 27.257813 46.929688 16.222656 32.054688 16.222656 C 17.179688 16.222656 5.117188 27.257813 5.117188 40.867188 C 5.117188 54.46875 17.179688 65.492188 32.054688 65.492188 Z M 66.929688 29.425781 C 66.929688 13.179688 81.332031 0.00390625 99.097656 0.00390625 C 116.863281 0.00390625 131.265625 13.179688 131.265625 29.425781 C 131.265625 45.675781 116.863281 58.84375 99.097656 58.84375 C 81.332031 58.84375 66.929688 45.675781 66.929688 29.425781 Z M 66.929688 29.425781 "/>
</clipPath>
<clipPath id="clip51">
  <path d="M 171 120 L 199 120 L 199 157.511719 L 171 157.511719 Z M 171 120 "/>
</clipPath>
<clipPath id="clip52">
  <path d="M 166.136719 65.492188 C 181.019531 65.492188 193.078125 54.46875 193.078125 40.867188 C 193.078125 27.257813 181.019531 16.222656 166.136719 16.222656 C 151.269531 16.222656 139.199219 27.257813 139.199219 40.867188 C 139.199219 54.46875 151.269531 65.492188 166.136719 65.492188 Z M 166.136719 72.613281 C 151.746094 72.613281 139.566406 82.417969 135.519531 95.914063 C 130.546875 79.042969 116.121094 66.835938 99.097656 66.835938 C 82.074219 66.835938 67.648438 79.042969 62.675781 95.914063 C 58.628906 82.417969 46.453125 72.613281 32.054688 72.613281 C 14.351563 72.613281 0 87.441406 0 105.738281 C 0 114.175781 3.058594 129.753906 8.085938 144.082031 L 56.679688 144.082031 C 59.238281 136.804688 61.28125 129.199219 62.675781 122.367188 C 64.210938 132.71875 66.488281 145.453125 70.476563 157.511719 L 127.71875 157.511719 C 131.707031 145.453125 133.988281 132.71875 135.519531 122.367188 C 136.914063 129.199219 138.957031 136.804688 141.515625 144.082031 L 190.109375 144.082031 C 195.136719 129.753906 198.195313 114.175781 198.195313 105.738281 C 198.195313 87.441406 183.84375 72.613281 166.136719 72.613281 Z M 32.054688 65.492188 C 46.929688 65.492188 58.996094 54.46875 58.996094 40.867188 C 58.996094 27.257813 46.929688 16.222656 32.054688 16.222656 C 17.179688 16.222656 5.117188 27.257813 5.117188 40.867188 C 5.117188 54.46875 17.179688 65.492188 32.054688 65.492188 Z M 66.929688 29.425781 C 66.929688 13.179688 81.332031 0.00390625 99.097656 0.00390625 C 116.863281 0.00390625 131.265625 13.179688 131.265625 29.425781 C 131.265625 45.675781 116.863281 58.84375 99.097656 58.84375 C 81.332031 58.84375 66.929688 45.675781 66.929688 29.425781 Z M 66.929688 29.425781 "/>
</clipPath>
<clipPath id="clip53">
  <path d="M 26 120 L 63 120 L 63 157.511719 L 26 157.511719 Z M 26 120 "/>
</clipPath>
<clipPath id="clip54">
  <path d="M 166.136719 65.492188 C 181.019531 65.492188 193.078125 54.46875 193.078125 40.867188 C 193.078125 27.257813 181.019531 16.222656 166.136719 16.222656 C 151.269531 16.222656 139.199219 27.257813 139.199219 40.867188 C 139.199219 54.46875 151.269531 65.492188 166.136719 65.492188 Z M 166.136719 72.613281 C 151.746094 72.613281 139.566406 82.417969 135.519531 95.914063 C 130.546875 79.042969 116.121094 66.835938 99.097656 66.835938 C 82.074219 66.835938 67.648438 79.042969 62.675781 95.914063 C 58.628906 82.417969 46.453125 72.613281 32.054688 72.613281 C 14.351563 72.613281 0 87.441406 0 105.738281 C 0 114.175781 3.058594 129.753906 8.085938 144.082031 L 56.679688 144.082031 C 59.238281 136.804688 61.28125 129.199219 62.675781 122.367188 C 64.210938 132.71875 66.488281 145.453125 70.476563 157.511719 L 127.71875 157.511719 C 131.707031 145.453125 133.988281 132.71875 135.519531 122.367188 C 136.914063 129.199219 138.957031 136.804688 141.515625 144.082031 L 190.109375 144.082031 C 195.136719 129.753906 198.195313 114.175781 198.195313 105.738281 C 198.195313 87.441406 183.84375 72.613281 166.136719 72.613281 Z M 32.054688 65.492188 C 46.929688 65.492188 58.996094 54.46875 58.996094 40.867188 C 58.996094 27.257813 46.929688 16.222656 32.054688 16.222656 C 17.179688 16.222656 5.117188 27.257813 5.117188 40.867188 C 5.117188 54.46875 17.179688 65.492188 32.054688 65.492188 Z M 66.929688 29.425781 C 66.929688 13.179688 81.332031 0.00390625 99.097656 0.00390625 C 116.863281 0.00390625 131.265625 13.179688 131.265625 29.425781 C 131.265625 45.675781 116.863281 58.84375 99.097656 58.84375 C 81.332031 58.84375 66.929688 45.675781 66.929688 29.425781 Z M 66.929688 29.425781 "/>
</clipPath>
<clipPath id="clip55">
  <path d="M 0 120 L 27 120 L 27 157.511719 L 0 157.511719 Z M 0 120 "/>
</clipPath>
<clipPath id="clip56">
  <path d="M 166.136719 65.492188 C 181.019531 65.492188 193.078125 54.46875 193.078125 40.867188 C 193.078125 27.257813 181.019531 16.222656 166.136719 16.222656 C 151.269531 16.222656 139.199219 27.257813 139.199219 40.867188 C 139.199219 54.46875 151.269531 65.492188 166.136719 65.492188 Z M 166.136719 72.613281 C 151.746094 72.613281 139.566406 82.417969 135.519531 95.914063 C 130.546875 79.042969 116.121094 66.835938 99.097656 66.835938 C 82.074219 66.835938 67.648438 79.042969 62.675781 95.914063 C 58.628906 82.417969 46.453125 72.613281 32.054688 72.613281 C 14.351563 72.613281 0 87.441406 0 105.738281 C 0 114.175781 3.058594 129.753906 8.085938 144.082031 L 56.679688 144.082031 C 59.238281 136.804688 61.28125 129.199219 62.675781 122.367188 C 64.210938 132.71875 66.488281 145.453125 70.476563 157.511719 L 127.71875 157.511719 C 131.707031 145.453125 133.988281 132.71875 135.519531 122.367188 C 136.914063 129.199219 138.957031 136.804688 141.515625 144.082031 L 190.109375 144.082031 C 195.136719 129.753906 198.195313 114.175781 198.195313 105.738281 C 198.195313 87.441406 183.84375 72.613281 166.136719 72.613281 Z M 32.054688 65.492188 C 46.929688 65.492188 58.996094 54.46875 58.996094 40.867188 C 58.996094 27.257813 46.929688 16.222656 32.054688 16.222656 C 17.179688 16.222656 5.117188 27.257813 5.117188 40.867188 C 5.117188 54.46875 17.179688 65.492188 32.054688 65.492188 Z M 66.929688 29.425781 C 66.929688 13.179688 81.332031 0.00390625 99.097656 0.00390625 C 116.863281 0.00390625 131.265625 13.179688 131.265625 29.425781 C 131.265625 45.675781 116.863281 58.84375 99.097656 58.84375 C 81.332031 58.84375 66.929688 45.675781 66.929688 29.425781 Z M 66.929688 29.425781 "/>
</clipPath>
<clipPath id="clip57">
  <path d="M 502 23 L 577.660156 23 L 577.660156 107 L 502 107 Z M 502 23 "/>
</clipPath>
</defs>
<g id="surface1">
<g clip-path="url(#clip1)" clip-rule="nonzero">
<g clip-path="url(#clip2)" clip-rule="nonzero">
<path style=" stroke:none;fill-rule:nonzero;fill:rgb(28.199768%,72.898865%,92.199707%);fill-opacity:1;" d="M 135.507813 -27.40625 L 135.507813 9.605469 L 99.089844 9.605469 Z M 135.507813 -27.40625 "/>
<path style=" stroke:none;fill-rule:nonzero;fill:rgb(7.798767%,64.698792%,66.699219%);fill-opacity:1;" d="M 135.507813 -27.40625 L 99.089844 -27.40625 L 99.089844 9.605469 Z M 135.507813 -27.40625 "/>
</g>
</g>
<g clip-path="url(#clip3)" clip-rule="nonzero">
<g clip-path="url(#clip4)" clip-rule="nonzero">
<path style=" stroke:none;fill-rule:nonzero;fill:rgb(7.099915%,44.699097%,41.19873%);fill-opacity:1;" d="M 62.675781 -27.40625 L 99.089844 -27.40625 L 99.089844 9.605469 Z M 62.675781 -27.40625 "/>
<path style=" stroke:none;fill-rule:nonzero;fill:rgb(5.099487%,31.799316%,32.199097%);fill-opacity:1;" d="M 99.089844 9.605469 L 62.675781 9.605469 L 62.675781 -27.40625 Z M 99.089844 9.605469 "/>
</g>
</g>
<g clip-path="url(#clip5)" clip-rule="nonzero">
<g clip-path="url(#clip6)" clip-rule="nonzero">
<path style=" stroke:none;fill-rule:nonzero;fill:rgb(30.599976%,65.899658%,87.098694%);fill-opacity:1;" d="M 171.917969 83.628906 L 171.917969 46.617188 L 135.507813 46.617188 Z M 171.917969 83.628906 "/>
</g>
</g>
<g clip-path="url(#clip7)" clip-rule="nonzero">
<g clip-path="url(#clip8)" clip-rule="nonzero">
<path style=" stroke:none;fill-rule:nonzero;fill:rgb(6.698608%,35.299683%,36.099243%);fill-opacity:1;" d="M 208.335938 46.617188 L 171.917969 46.617188 L 171.917969 83.632813 Z M 208.335938 46.617188 "/>
<path style=" stroke:none;fill-rule:nonzero;fill:rgb(7.099915%,44.699097%,41.19873%);fill-opacity:1;" d="M 208.335938 46.617188 L 208.335938 83.632813 L 171.917969 83.632813 Z M 208.335938 46.617188 "/>
</g>
</g>
<g clip-path="url(#clip9)" clip-rule="nonzero">
<g clip-path="url(#clip10)" clip-rule="nonzero">
<path style=" stroke:none;fill-rule:nonzero;fill:rgb(7.798767%,45.498657%,69.398499%);fill-opacity:1;" d="M 135.507813 46.617188 L 135.507813 83.628906 L 171.917969 83.628906 Z M 135.507813 46.617188 "/>
</g>
</g>
<g clip-path="url(#clip11)" clip-rule="nonzero">
<g clip-path="url(#clip12)" clip-rule="nonzero">
<path style=" stroke:none;fill-rule:nonzero;fill:rgb(48.999023%,74.099731%,25.898743%);fill-opacity:1;" d="M 26.261719 83.632813 L 26.261719 46.617188 L 62.675781 46.617188 Z M 26.261719 83.632813 "/>
</g>
</g>
<g clip-path="url(#clip13)" clip-rule="nonzero">
<g clip-path="url(#clip14)" clip-rule="nonzero">
<path style=" stroke:none;fill-rule:nonzero;fill:rgb(6.698608%,35.299683%,36.099243%);fill-opacity:1;" d="M 26.261719 83.632813 L -10.152344 83.632813 L -10.152344 46.617188 Z M 26.261719 83.632813 "/>
<path style=" stroke:none;fill-rule:nonzero;fill:rgb(3.09906%,57.998657%,26.699829%);fill-opacity:1;" d="M 26.261719 83.632813 L 26.261719 46.617188 L -10.152344 46.617188 Z M 26.261719 83.632813 "/>
</g>
</g>
<g clip-path="url(#clip15)" clip-rule="nonzero">
<g clip-path="url(#clip16)" clip-rule="nonzero">
<path style=" stroke:none;fill-rule:nonzero;fill:rgb(0.39978%,55.699158%,52.89917%);fill-opacity:1;" d="M 135.507813 46.617188 L 99.089844 46.617188 L 99.089844 83.628906 Z M 135.507813 46.617188 "/>
<path style=" stroke:none;fill-rule:nonzero;fill:rgb(14.498901%,61.199951%,84.298706%);fill-opacity:1;" d="M 135.507813 46.617188 L 135.507813 83.632813 L 99.089844 83.632813 Z M 135.507813 46.617188 "/>
</g>
</g>
<g clip-path="url(#clip17)" clip-rule="nonzero">
<g clip-path="url(#clip18)" clip-rule="nonzero">
<path style=" stroke:none;fill-rule:nonzero;fill:rgb(49.798584%,78.799438%,76.899719%);fill-opacity:1;" d="M 62.675781 46.617188 L 99.089844 46.617188 L 99.089844 83.632813 Z M 62.675781 46.617188 "/>
<path style=" stroke:none;fill-rule:nonzero;fill:rgb(48.999023%,74.099731%,25.898743%);fill-opacity:1;" d="M 62.675781 46.617188 L 62.675781 83.632813 L 99.089844 83.632813 Z M 62.675781 46.617188 "/>
</g>
</g>
<g clip-path="url(#clip19)" clip-rule="nonzero">
<g clip-path="url(#clip20)" clip-rule="nonzero">
<path style=" stroke:none;fill-rule:nonzero;fill:rgb(8.198547%,60.798645%,28.199768%);fill-opacity:1;" d="M 62.675781 46.617188 L 62.675781 83.632813 L 26.261719 83.632813 Z M 62.675781 46.617188 "/>
</g>
</g>
<g clip-path="url(#clip21)" clip-rule="nonzero">
<g clip-path="url(#clip22)" clip-rule="nonzero">
<path style=" stroke:none;fill-rule:nonzero;fill:rgb(7.798767%,64.698792%,66.699219%);fill-opacity:1;" d="M 135.507813 46.617188 L 135.507813 9.605469 L 99.089844 9.605469 Z M 135.507813 46.617188 "/>
<path style=" stroke:none;fill-rule:nonzero;fill:rgb(7.798767%,45.498657%,69.398499%);fill-opacity:1;" d="M 99.089844 9.519531 L 99.089844 46.53125 L 135.503906 46.53125 Z M 99.089844 9.519531 "/>
</g>
</g>
<g clip-path="url(#clip23)" clip-rule="nonzero">
<g clip-path="url(#clip24)" clip-rule="nonzero">
<path style=" stroke:none;fill-rule:nonzero;fill:rgb(5.499268%,31.399536%,47.799683%);fill-opacity:1;" d="M 135.503906 46.605469 L 171.917969 46.605469 L 171.917969 9.597656 Z M 135.503906 46.605469 "/>
<path style=" stroke:none;fill-rule:nonzero;fill:rgb(7.099915%,44.699097%,41.19873%);fill-opacity:1;" d="M 135.503906 46.617188 L 135.503906 9.597656 L 171.917969 9.597656 Z M 135.503906 46.617188 "/>
</g>
</g>
<g clip-path="url(#clip25)" clip-rule="nonzero">
<g clip-path="url(#clip26)" clip-rule="nonzero">
<path style=" stroke:none;fill-rule:nonzero;fill:rgb(8.198547%,60.798645%,28.199768%);fill-opacity:1;" d="M 99.089844 9.605469 L 62.671875 9.605469 L 62.671875 46.617188 Z M 99.089844 9.605469 "/>
<path style=" stroke:none;fill-rule:nonzero;fill:rgb(6.698608%,35.299683%,36.099243%);fill-opacity:1;" d="M 99.089844 9.597656 L 99.089844 46.617188 L 62.671875 46.617188 Z M 99.089844 9.597656 "/>
</g>
</g>
<g clip-path="url(#clip27)" clip-rule="nonzero">
<g clip-path="url(#clip28)" clip-rule="nonzero">
<path style=" stroke:none;fill-rule:nonzero;fill:rgb(7.798767%,45.498657%,69.398499%);fill-opacity:1;" d="M 171.917969 9.597656 L 171.917969 46.605469 L 208.332031 46.605469 Z M 171.917969 9.597656 "/>
<path style=" stroke:none;fill-rule:nonzero;fill:rgb(15.299988%,64.299011%,86.698914%);fill-opacity:1;" d="M 171.917969 9.605469 L 208.332031 9.605469 L 208.332031 46.617188 Z M 171.917969 9.605469 "/>
</g>
</g>
<g clip-path="url(#clip29)" clip-rule="nonzero">
<g clip-path="url(#clip30)" clip-rule="nonzero">
<path style=" stroke:none;fill-rule:nonzero;fill:rgb(0%,39.99939%,22.399902%);fill-opacity:1;" d="M 62.671875 46.605469 L 26.261719 46.605469 L 26.261719 9.605469 Z M 62.671875 46.605469 "/>
<path style=" stroke:none;fill-rule:nonzero;fill:rgb(7.798767%,53.69873%,53.69873%);fill-opacity:1;" d="M 62.671875 46.605469 L 62.671875 9.605469 L 26.261719 9.605469 Z M 62.671875 46.605469 "/>
</g>
</g>
<g clip-path="url(#clip31)" clip-rule="nonzero">
<g clip-path="url(#clip32)" clip-rule="nonzero">
<path style=" stroke:none;fill-rule:nonzero;fill:rgb(68.998718%,81.199646%,20.799255%);fill-opacity:1;" d="M -10.140625 46.617188 L 26.269531 46.617188 L 26.269531 9.597656 Z M -10.140625 46.617188 "/>
<path style=" stroke:none;fill-rule:nonzero;fill:rgb(68.998718%,81.199646%,20.799255%);fill-opacity:1;" d="M -10.140625 46.617188 L -10.140625 9.597656 L 26.269531 9.597656 Z M -10.140625 46.617188 "/>
</g>
</g>
<g clip-path="url(#clip33)" clip-rule="nonzero">
<g clip-path="url(#clip34)" clip-rule="nonzero">
<path style=" stroke:none;fill-rule:nonzero;fill:rgb(6.698608%,35.299683%,36.099243%);fill-opacity:1;" d="M 208.332031 83.632813 L 208.332031 120.636719 L 171.917969 120.636719 Z M 208.332031 83.632813 "/>
<path style=" stroke:none;fill-rule:nonzero;fill:rgb(7.798767%,45.498657%,69.398499%);fill-opacity:1;" d="M 208.332031 83.632813 L 171.917969 83.632813 L 171.917969 120.636719 Z M 208.332031 83.632813 "/>
</g>
</g>
<g clip-path="url(#clip35)" clip-rule="nonzero">
<g clip-path="url(#clip36)" clip-rule="nonzero">
<path style=" stroke:none;fill-rule:nonzero;fill:rgb(49.798584%,78.799438%,76.899719%);fill-opacity:1;" d="M 135.507813 83.632813 L 135.507813 120.636719 L 171.917969 120.636719 Z M 135.507813 83.632813 "/>
<path style=" stroke:none;fill-rule:nonzero;fill:rgb(11.399841%,32.199097%,57.998657%);fill-opacity:1;" d="M 135.507813 83.632813 L 171.917969 83.632813 L 171.917969 120.640625 Z M 135.507813 83.632813 "/>
</g>
</g>
<g clip-path="url(#clip37)" clip-rule="nonzero">
<g clip-path="url(#clip38)" clip-rule="nonzero">
<path style=" stroke:none;fill-rule:nonzero;fill:rgb(28.199768%,72.898865%,92.199707%);fill-opacity:1;" d="M 135.507813 83.632813 L 135.507813 120.636719 L 99.089844 120.636719 Z M 135.507813 83.632813 "/>
<path style=" stroke:none;fill-rule:nonzero;fill:rgb(7.798767%,45.498657%,69.398499%);fill-opacity:1;" d="M 135.507813 83.632813 L 99.089844 83.632813 L 99.089844 120.636719 Z M 135.507813 83.632813 "/>
</g>
</g>
<g clip-path="url(#clip39)" clip-rule="nonzero">
<g clip-path="url(#clip40)" clip-rule="nonzero">
<path style=" stroke:none;fill-rule:nonzero;fill:rgb(7.099915%,44.699097%,41.19873%);fill-opacity:1;" d="M 62.675781 83.632813 L 99.089844 83.632813 L 99.089844 120.640625 Z M 62.675781 83.632813 "/>
<path style=" stroke:none;fill-rule:nonzero;fill:rgb(7.798767%,64.698792%,66.699219%);fill-opacity:1;" d="M 99.089844 120.640625 L 62.675781 120.640625 L 62.675781 83.632813 Z M 99.089844 120.640625 "/>
</g>
</g>
<g clip-path="url(#clip41)" clip-rule="nonzero">
<g clip-path="url(#clip42)" clip-rule="nonzero">
<path style=" stroke:none;fill-rule:nonzero;fill:rgb(48.999023%,74.099731%,25.898743%);fill-opacity:1;" d="M 26.273438 120.636719 L 26.273438 83.632813 L -10.140625 83.632813 Z M 26.273438 120.636719 "/>
<path style=" stroke:none;fill-rule:nonzero;fill:rgb(8.198547%,60.798645%,28.199768%);fill-opacity:1;" d="M 26.273438 120.636719 L -10.140625 120.636719 L -10.140625 83.632813 Z M 26.273438 120.636719 "/>
</g>
</g>
<g clip-path="url(#clip43)" clip-rule="nonzero">
<g clip-path="url(#clip44)" clip-rule="nonzero">
<path style=" stroke:none;fill-rule:nonzero;fill:rgb(7.099915%,44.699097%,41.19873%);fill-opacity:1;" d="M 26.261719 120.640625 L 26.261719 83.632813 L 62.675781 83.632813 Z M 26.261719 120.640625 "/>
<path style=" stroke:none;fill-rule:nonzero;fill:rgb(6.698608%,35.299683%,36.099243%);fill-opacity:1;" d="M 26.261719 120.640625 L 62.675781 120.640625 L 62.675781 83.632813 Z M 26.261719 120.640625 "/>
</g>
</g>
<g clip-path="url(#clip45)" clip-rule="nonzero">
<g clip-path="url(#clip46)" clip-rule="nonzero">
<path style=" stroke:none;fill-rule:nonzero;fill:rgb(7.798767%,64.698792%,66.699219%);fill-opacity:1;" d="M 135.507813 157.644531 L 135.507813 120.636719 L 99.089844 120.636719 Z M 135.507813 157.644531 "/>
<path style=" stroke:none;fill-rule:nonzero;fill:rgb(6.698608%,35.299683%,36.099243%);fill-opacity:1;" d="M 99.089844 120.636719 L 99.089844 157.644531 L 135.503906 157.644531 Z M 99.089844 120.636719 "/>
</g>
</g>
<g clip-path="url(#clip47)" clip-rule="nonzero">
<g clip-path="url(#clip48)" clip-rule="nonzero">
<path style=" stroke:none;fill-rule:nonzero;fill:rgb(5.499268%,31.399536%,47.799683%);fill-opacity:1;" d="M 135.503906 157.640625 L 171.917969 157.640625 L 171.917969 120.636719 Z M 135.503906 157.640625 "/>
<path style=" stroke:none;fill-rule:nonzero;fill:rgb(7.798767%,45.498657%,69.398499%);fill-opacity:1;" d="M 135.503906 157.644531 L 135.503906 120.636719 L 171.917969 120.636719 Z M 135.503906 157.644531 "/>
</g>
</g>
<g clip-path="url(#clip49)" clip-rule="nonzero">
<g clip-path="url(#clip50)" clip-rule="nonzero">
<path style=" stroke:none;fill-rule:nonzero;fill:rgb(21.998596%,48.999023%,22.698975%);fill-opacity:1;" d="M 99.089844 120.636719 L 62.671875 120.636719 L 62.671875 157.644531 Z M 99.089844 120.636719 "/>
<path style=" stroke:none;fill-rule:nonzero;fill:rgb(0.39978%,55.699158%,52.89917%);fill-opacity:1;" d="M 99.089844 120.636719 L 99.089844 157.644531 L 62.671875 157.644531 Z M 99.089844 120.636719 "/>
</g>
</g>
<g clip-path="url(#clip51)" clip-rule="nonzero">
<g clip-path="url(#clip52)" clip-rule="nonzero">
<path style=" stroke:none;fill-rule:nonzero;fill:rgb(7.099915%,44.699097%,41.19873%);fill-opacity:1;" d="M 171.917969 120.636719 L 171.917969 157.640625 L 208.332031 157.640625 Z M 171.917969 120.636719 "/>
<path style=" stroke:none;fill-rule:nonzero;fill:rgb(30.599976%,65.899658%,87.098694%);fill-opacity:1;" d="M 171.917969 120.636719 L 208.332031 120.636719 L 208.332031 157.644531 Z M 171.917969 120.636719 "/>
</g>
</g>
<g clip-path="url(#clip53)" clip-rule="nonzero">
<g clip-path="url(#clip54)" clip-rule="nonzero">
<path style=" stroke:none;fill-rule:nonzero;fill:rgb(49.798584%,78.799438%,76.899719%);fill-opacity:1;" d="M 62.671875 157.640625 L 26.261719 157.640625 L 26.261719 120.636719 Z M 62.671875 157.640625 "/>
<path style=" stroke:none;fill-rule:nonzero;fill:rgb(0.39978%,55.699158%,52.89917%);fill-opacity:1;" d="M 62.671875 157.640625 L 62.671875 120.636719 L 26.261719 120.636719 Z M 62.671875 157.640625 "/>
</g>
</g>
<g clip-path="url(#clip55)" clip-rule="nonzero">
<g clip-path="url(#clip56)" clip-rule="nonzero">
<path style=" stroke:none;fill-rule:nonzero;fill:rgb(24.299622%,52.89917%,24.699402%);fill-opacity:1;" d="M -10.140625 157.644531 L 26.269531 157.644531 L 26.269531 120.636719 Z M -10.140625 157.644531 "/>
<path style=" stroke:none;fill-rule:nonzero;fill:rgb(68.998718%,81.199646%,20.799255%);fill-opacity:1;" d="M -10.140625 157.644531 L -10.140625 120.636719 L 26.269531 120.636719 Z M -10.140625 157.644531 "/>
</g>
</g>
<path style=" stroke:none;fill-rule:nonzero;fill:rgb(47.499084%,47.099304%,48.199463%);fill-opacity:1;" d="M 244.902344 123.164063 L 248.59375 123.164063 L 254.320313 137.765625 L 260.019531 123.164063 L 263.632813 123.164063 L 255.761719 142.300781 L 252.800781 142.300781 L 244.902344 123.164063 "/>
<path style=" stroke:none;fill-rule:nonzero;fill:rgb(47.499084%,47.099304%,48.199463%);fill-opacity:1;" d="M 267.160156 123.164063 L 270.714844 123.164063 L 276.496094 132.148438 L 282.277344 123.164063 L 285.835938 123.164063 L 285.835938 142.164063 L 282.496094 142.164063 L 282.496094 128.539063 L 276.496094 137.496094 L 276.386719 137.496094 L 270.445313 128.59375 L 270.445313 142.164063 L 267.160156 142.164063 L 267.160156 123.164063 "/>
<path style=" stroke:none;fill-rule:nonzero;fill:rgb(47.499084%,47.099304%,48.199463%);fill-opacity:1;" d="M 289.523438 123.164063 L 293.136719 123.164063 L 297.667969 137.25 L 302.335938 123.109375 L 305.15625 123.109375 L 309.824219 137.25 L 314.359375 123.164063 L 317.859375 123.164063 L 311.265625 142.300781 L 308.359375 142.300781 L 303.691406 128.648438 L 299.023438 142.300781 L 296.144531 142.300781 L 289.523438 123.164063 "/>
<path style=" stroke:none;fill-rule:nonzero;fill:rgb(47.499084%,47.099304%,48.199463%);fill-opacity:1;" d="M 333.0625 134.617188 L 329.777344 127.019531 L 326.519531 134.617188 Z M 328.285156 123.027344 L 331.378906 123.027344 L 339.738281 142.164063 L 336.207031 142.164063 L 334.28125 137.578125 L 325.296875 137.578125 L 323.34375 142.164063 L 319.925781 142.164063 L 328.285156 123.027344 "/>
<path style=" stroke:none;fill-rule:nonzero;fill:rgb(47.499084%,47.099304%,48.199463%);fill-opacity:1;" d="M 351.488281 132.582031 C 353.878906 132.582031 355.398438 131.332031 355.398438 129.40625 L 355.398438 129.351563 C 355.398438 127.316406 353.933594 126.203125 351.460938 126.203125 L 346.605469 126.203125 L 346.605469 132.582031 Z M 343.265625 123.164063 L 351.734375 123.164063 C 354.121094 123.164063 355.996094 123.871094 357.214844 125.0625 C 358.222656 126.09375 358.789063 127.507813 358.789063 129.164063 L 358.789063 129.214844 C 358.789063 132.339844 356.917969 134.210938 354.285156 134.972656 L 359.414063 142.164063 L 355.453125 142.164063 L 350.785156 135.539063 L 346.605469 135.539063 L 346.605469 142.164063 L 343.265625 142.164063 L 343.265625 123.164063 "/>
<path style=" stroke:none;fill-rule:nonzero;fill:rgb(47.499084%,47.099304%,48.199463%);fill-opacity:1;" d="M 363.160156 123.164063 L 377.246094 123.164063 L 377.246094 126.148438 L 366.5 126.148438 L 366.5 131.089844 L 376.023438 131.089844 L 376.023438 134.074219 L 366.5 134.074219 L 366.5 139.179688 L 377.382813 139.179688 L 377.382813 142.164063 L 363.160156 142.164063 L 363.160156 123.164063 "/>
<path style=" stroke:none;fill-rule:nonzero;fill:rgb(47.499084%,47.099304%,48.199463%);fill-opacity:1;" d="M 389.730469 134.101563 L 389.730469 123.164063 L 393.070313 123.164063 L 393.070313 133.96875 C 393.070313 137.496094 394.890625 139.367188 397.875 139.367188 C 400.832031 139.367188 402.652344 137.601563 402.652344 134.101563 L 402.652344 123.164063 L 405.988281 123.164063 L 405.988281 133.9375 C 405.988281 139.613281 402.785156 142.460938 397.820313 142.460938 C 392.882813 142.460938 389.730469 139.613281 389.730469 134.101563 "/>
<path style=" stroke:none;fill-rule:nonzero;fill:rgb(47.499084%,47.099304%,48.199463%);fill-opacity:1;" d="M 409.574219 139.394531 L 411.582031 137.007813 C 413.398438 138.582031 415.246094 139.476563 417.578125 139.476563 C 419.644531 139.476563 420.945313 138.5 420.945313 137.089844 L 420.945313 137.035156 C 420.945313 135.675781 420.1875 134.945313 416.65625 134.128906 C 412.613281 133.152344 410.332031 131.957031 410.332031 128.457031 L 410.332031 128.402344 C 410.332031 125.144531 413.046875 122.894531 416.820313 122.894531 C 419.589844 122.894531 421.785156 123.734375 423.714844 125.28125 L 421.921875 127.804688 C 420.214844 126.53125 418.503906 125.851563 416.765625 125.851563 C 414.8125 125.851563 413.671875 126.855469 413.671875 128.105469 L 413.671875 128.160156 C 413.671875 129.625 414.539063 130.273438 418.203125 131.144531 C 422.222656 132.121094 424.285156 133.558594 424.285156 136.707031 L 424.285156 136.761719 C 424.285156 140.316406 421.488281 142.433594 417.5 142.433594 C 414.59375 142.433594 411.851563 141.429688 409.574219 139.394531 "/>
<path style=" stroke:none;fill-rule:nonzero;fill:rgb(47.499084%,47.099304%,48.199463%);fill-opacity:1;" d="M 428.492188 123.164063 L 442.578125 123.164063 L 442.578125 126.148438 L 431.828125 126.148438 L 431.828125 131.089844 L 441.355469 131.089844 L 441.355469 134.074219 L 431.828125 134.074219 L 431.828125 139.179688 L 442.714844 139.179688 L 442.714844 142.164063 L 428.492188 142.164063 L 428.492188 123.164063 "/>
<path style=" stroke:none;fill-rule:nonzero;fill:rgb(47.499084%,47.099304%,48.199463%);fill-opacity:1;" d="M 455.171875 132.582031 C 457.558594 132.582031 459.078125 131.332031 459.078125 129.40625 L 459.078125 129.351563 C 459.078125 127.316406 457.613281 126.203125 455.144531 126.203125 L 450.285156 126.203125 L 450.285156 132.582031 Z M 446.949219 123.164063 L 455.414063 123.164063 C 457.804688 123.164063 459.675781 123.871094 460.898438 125.0625 C 461.902344 126.09375 462.472656 127.507813 462.472656 129.164063 L 462.472656 129.214844 C 462.472656 132.339844 460.597656 134.210938 457.96875 134.972656 L 463.097656 142.164063 L 459.132813 142.164063 L 454.464844 135.539063 L 450.285156 135.539063 L 450.285156 142.164063 L 446.949219 142.164063 L 446.949219 123.164063 "/>
<path style=" stroke:none;fill-rule:nonzero;fill:rgb(47.499084%,47.099304%,48.199463%);fill-opacity:1;" d="M 474.414063 132.71875 L 474.414063 132.664063 C 474.414063 127.34375 478.484375 122.839844 484.214844 122.839844 C 487.523438 122.839844 489.558594 123.761719 491.515625 125.417969 L 489.398438 127.941406 C 487.929688 126.691406 486.492188 125.90625 484.078125 125.90625 C 480.574219 125.90625 477.914063 128.972656 477.914063 132.609375 L 477.914063 132.664063 C 477.914063 136.574219 480.496094 139.449219 484.375 139.449219 C 486.167969 139.449219 487.796875 138.878906 488.960938 138.011719 L 488.960938 134.457031 L 484.105469 134.457031 L 484.105469 131.550781 L 492.191406 131.550781 L 492.191406 139.53125 C 490.320313 141.132813 487.632813 142.488281 484.265625 142.488281 C 478.324219 142.488281 474.414063 138.253906 474.414063 132.71875 "/>
<path style=" stroke:none;fill-rule:nonzero;fill:rgb(47.499084%,47.099304%,48.199463%);fill-opacity:1;" d="M 505.03125 132.582031 C 507.417969 132.582031 508.9375 131.332031 508.9375 129.40625 L 508.9375 129.351563 C 508.9375 127.316406 507.472656 126.203125 505.003906 126.203125 L 500.144531 126.203125 L 500.144531 132.582031 Z M 496.808594 123.164063 L 505.273438 123.164063 C 507.664063 123.164063 509.535156 123.871094 510.757813 125.0625 C 511.761719 126.09375 512.332031 127.507813 512.332031 129.164063 L 512.332031 129.214844 C 512.332031 132.339844 510.460938 134.210938 507.828125 134.972656 L 512.957031 142.164063 L 508.992188 142.164063 L 504.324219 135.539063 L 500.144531 135.539063 L 500.144531 142.164063 L 496.808594 142.164063 L 496.808594 123.164063 "/>
<path style=" stroke:none;fill-rule:nonzero;fill:rgb(47.499084%,47.099304%,48.199463%);fill-opacity:1;" d="M 532.226563 132.71875 L 532.226563 132.664063 C 532.226563 128.972656 529.539063 125.90625 525.765625 125.90625 C 521.992188 125.90625 519.359375 128.917969 519.359375 132.609375 L 519.359375 132.664063 C 519.359375 136.355469 522.046875 139.394531 525.820313 139.394531 C 529.59375 139.394531 532.226563 136.410156 532.226563 132.71875 Z M 515.859375 132.71875 L 515.859375 132.664063 C 515.859375 127.316406 519.984375 122.839844 525.820313 122.839844 C 531.65625 122.839844 535.726563 127.261719 535.726563 132.609375 L 535.726563 132.664063 C 535.726563 138.011719 531.601563 142.488281 525.765625 142.488281 C 519.929688 142.488281 515.859375 138.066406 515.859375 132.71875 "/>
<path style=" stroke:none;fill-rule:nonzero;fill:rgb(47.499084%,47.099304%,48.199463%);fill-opacity:1;" d="M 539.746094 134.101563 L 539.746094 123.164063 L 543.082031 123.164063 L 543.082031 133.96875 C 543.082031 137.496094 544.902344 139.367188 547.886719 139.367188 C 550.847656 139.367188 552.664063 137.601563 552.664063 134.101563 L 552.664063 123.164063 L 556.003906 123.164063 L 556.003906 133.9375 C 556.003906 139.613281 552.800781 142.460938 547.832031 142.460938 C 542.894531 142.460938 539.746094 139.613281 539.746094 134.101563 "/>
<path style=" stroke:none;fill-rule:nonzero;fill:rgb(47.499084%,47.099304%,48.199463%);fill-opacity:1;" d="M 568.082031 133.042969 C 570.605469 133.042969 572.179688 131.632813 572.179688 129.652344 L 572.179688 129.597656 C 572.179688 127.371094 570.578125 126.203125 568.082031 126.203125 L 564.199219 126.203125 L 564.199219 133.042969 Z M 560.859375 123.164063 L 568.351563 123.164063 C 572.804688 123.164063 575.570313 125.6875 575.570313 129.515625 L 575.570313 129.570313 C 575.570313 133.832031 572.152344 136.058594 567.972656 136.058594 L 564.199219 136.058594 L 564.199219 142.164063 L 560.859375 142.164063 L 560.859375 123.164063 "/>
<path style=" stroke:none;fill-rule:nonzero;fill:rgb(30.198669%,29.399109%,30.599976%);fill-opacity:1;" d="M 236.527344 25.105469 L 255.605469 25.105469 L 276.140625 81.335938 L 296.675781 25.105469 L 315.304688 25.105469 L 283.546875 105.515625 L 268.285156 105.515625 L 236.527344 25.105469 "/>
<path style=" stroke:none;fill-rule:nonzero;fill:rgb(30.198669%,29.399109%,30.599976%);fill-opacity:1;" d="M 324.054688 25.105469 L 342.683594 25.105469 L 363.332031 58.867188 L 383.980469 25.105469 L 402.609375 25.105469 L 402.609375 104.945313 L 385.4375 104.945313 L 385.4375 52.820313 L 363.332031 86.921875 L 362.882813 86.921875 L 341 53.164063 L 341 104.945313 L 324.054688 104.945313 L 324.054688 25.105469 "/>
<path style=" stroke:none;fill-rule:nonzero;fill:rgb(30.198669%,29.399109%,30.599976%);fill-opacity:1;" d="M 420.222656 70.726563 L 420.222656 25.105469 L 437.503906 25.105469 L 437.503906 70.269531 C 437.503906 83.273438 443.898438 90.003906 454.449219 90.003906 C 464.996094 90.003906 471.394531 83.5 471.394531 70.839844 L 471.394531 25.105469 L 488.675781 25.105469 L 488.675781 70.15625 C 488.675781 94.335938 475.320313 106.199219 454.222656 106.199219 C 433.128906 106.199219 420.222656 94.222656 420.222656 70.726563 "/>
<g clip-path="url(#clip57)" clip-rule="nonzero">
<path style=" stroke:none;fill-rule:nonzero;fill:rgb(30.198669%,29.399109%,30.599976%);fill-opacity:1;" d="M 502.808594 65.253906 L 502.808594 65.023438 C 502.808594 42.328125 520.203125 23.738281 543.996094 23.738281 C 558.132813 23.738281 566.664063 27.613281 574.855469 34.6875 L 563.96875 48.03125 C 557.910156 42.898438 552.523438 39.933594 543.433594 39.933594 C 530.863281 39.933594 520.878906 51.222656 520.878906 64.796875 L 520.878906 65.023438 C 520.878906 79.625 530.753906 90.34375 544.667969 90.34375 C 550.953125 90.34375 556.5625 88.75 560.941406 85.554688 L 560.941406 74.148438 L 543.546875 74.148438 L 543.546875 58.980469 L 577.660156 58.980469 L 577.660156 93.652344 C 569.582031 100.609375 558.472656 106.3125 544.105469 106.3125 C 519.644531 106.3125 502.808594 88.863281 502.808594 65.253906 "/>
</g>
</g>
</svg>
