<?xml version="1.0" encoding="utf-8"?>
<!-- Generator: Adobe Illustrator 15.1.0, SVG Export Plug-In . SVG Version: 6.00 Build 0)  -->
<!DOCTYPE svg PUBLIC "-//W3C//DTD SVG 1.1//EN" "http://www.w3.org/Graphics/SVG/1.1/DTD/svg11.dtd">
<svg version="1.1" id="Layer_3" xmlns="http://www.w3.org/2000/svg" xmlns:xlink="http://www.w3.org/1999/xlink" x="0px" y="0px"
	 width="1000px" height="1000px" viewBox="0 0 1000 1000" enable-background="new 0 0 1000 1000" xml:space="preserve">
<polygon points="499.115,930.7 904.402,930.7 998.23,770.41 594.248,69.299 499.115,69.299 403.983,69.299 0,770.41 93.829,930.7 
	"/>
<polygon fill="#FFFFFF" points="527.786,470.827 611.188,327.473 852.276,740.584 684.167,740.584 "/>
<polyline fill="#F5BC15" points="499.766,525.561 623.567,740.584 374.662,740.584 499.766,525.561 "/>
<polygon fill="#FFFFFF" points="499.113,131.997 581.213,274.045 312.76,740.584 143.347,740.584 "/>
<g>
	<path fill="#F5BC15" d="M139.139,837.017h-9.407l-2.726-8.521h-13.63l-2.699,8.521h-9.354l13.95-38.324h10.236L139.139,837.017z
		 M125.028,821.867l-4.116-12.882c-0.303-0.962-0.517-2.114-0.641-3.451h-0.214c-0.09,1.123-0.311,2.237-0.668,3.345l-4.169,12.988
		H125.028z"/>
	<path fill="#F5BC15" d="M178.399,837.017h-8.712l-15.795-24.075c-0.926-1.413-1.567-2.467-1.924-3.185h-0.107
		c0.144,1.359,0.214,3.421,0.214,6.2v21.06h-8.151v-38.324h9.3l15.207,23.335c0.695,1.047,1.336,2.093,1.924,3.123h0.107
		c-0.143-0.886-0.214-2.642-0.214-5.261v-21.197h8.151V837.017z"/>
	<path fill="#F5BC15" d="M187.165,837.017v-38.324h13.577c13.612,0,20.418,6.231,20.418,18.686c0,5.963-1.857,10.735-5.572,14.294
		c-3.715,3.565-8.663,5.345-14.846,5.345H187.165z M195.797,805.726v24.289h4.276c3.742,0,6.678-1.122,8.806-3.367
		s3.194-5.3,3.194-9.163c0-3.657-1.056-6.528-3.167-8.621c-2.111-2.092-5.074-3.138-8.886-3.138H195.797z"/>
	<path fill="#F5BC15" d="M250.503,837.017H227.52v-38.324h22.102v7.033h-13.47v8.521h12.534v7.002h-12.534v8.766h14.352V837.017z"/>
	<path fill="#F5BC15" d="M288.801,837.017h-9.915l-5.96-9.857c-0.444-0.748-0.872-1.421-1.283-2.009
		c-0.41-0.588-0.825-1.092-1.243-1.504c-0.418-0.42-0.855-0.74-1.31-0.962c-0.454-0.229-0.949-0.336-1.483-0.336h-2.325v14.668
		h-8.632v-38.324h13.683c9.3,0,13.951,3.475,13.951,10.423c0,1.337-0.204,2.573-0.615,3.704c-0.41,1.13-0.989,2.153-1.737,3.062
		c-0.749,0.909-1.653,1.688-2.713,2.352c-1.06,0.657-2.241,1.176-3.541,1.551v0.106c0.571,0.176,1.123,0.466,1.657,0.87
		c0.535,0.397,1.052,0.863,1.55,1.397c0.498,0.535,0.976,1.115,1.43,1.726c0.455,0.619,0.869,1.215,1.243,1.803L288.801,837.017z
		 M265.283,805.16v10.667h3.741c1.854,0,3.341-0.534,4.463-1.604c1.14-1.092,1.71-2.436,1.71-4.039c0-3.345-2.004-5.024-6.013-5.024
		H265.283z"/>
	<path fill="#F5BC15" d="M290.618,835.551v-8.552c1.55,1.298,3.234,2.275,5.051,2.924c1.817,0.649,3.652,0.978,5.506,0.978
		c1.086,0,2.035-0.1,2.846-0.298c0.811-0.19,1.487-0.466,2.031-0.81c0.544-0.351,0.949-0.764,1.216-1.229
		c0.267-0.473,0.401-0.984,0.401-1.542c0-0.748-0.214-1.413-0.642-2.001s-1.012-1.13-1.75-1.634
		c-0.739-0.496-1.617-0.978-2.632-1.443c-1.016-0.458-2.111-0.932-3.287-1.412c-2.993-1.253-5.225-2.772-6.695-4.574
		c-1.47-1.794-2.205-3.971-2.205-6.521c0-1.993,0.4-3.711,1.202-5.139c0.802-1.436,1.894-2.619,3.274-3.543
		c1.38-0.932,2.98-1.611,4.797-2.047s3.742-0.656,5.772-0.656c1.995,0,3.765,0.122,5.305,0.362s2.962,0.61,4.263,1.111v7.986
		c-0.642-0.442-1.34-0.832-2.098-1.176c-0.758-0.336-1.537-0.618-2.338-0.84s-1.6-0.39-2.392-0.496
		c-0.792-0.107-1.546-0.16-2.258-0.16c-0.979,0-1.871,0.099-2.673,0.282c-0.802,0.19-1.479,0.45-2.031,0.786
		c-0.551,0.344-0.979,0.749-1.283,1.222c-0.303,0.466-0.454,1.001-0.454,1.589c0,0.642,0.17,1.214,0.508,1.726
		c0.338,0.504,0.819,0.984,1.443,1.443c0.625,0.45,1.38,0.893,2.272,1.336c0.891,0.436,1.897,0.886,3.02,1.344
		c1.533,0.642,2.909,1.329,4.129,2.047c1.22,0.725,2.268,1.534,3.14,2.443c0.873,0.908,1.541,1.947,2.004,3.115
		s0.695,2.527,0.695,4.077c0,2.139-0.405,3.933-1.216,5.384c-0.812,1.45-1.911,2.627-3.301,3.527
		c-1.39,0.901-3.006,1.543-4.851,1.939c-1.844,0.39-3.791,0.588-5.839,0.588c-2.102,0-4.103-0.183-6-0.534
		C293.651,836.795,292.008,836.261,290.618,835.551z"/>
	<path fill="#F5BC15" d="M339.258,837.688c-5.488,0-9.959-1.786-13.417-5.36c-3.457-3.573-5.185-8.224-5.185-13.966
		c0-6.055,1.754-10.957,5.265-14.698c3.51-3.742,8.161-5.612,13.95-5.612c5.469,0,9.893,1.794,13.269,5.375
		c3.377,3.581,5.064,8.3,5.064,14.164c0,6.018-1.75,10.874-5.251,14.562C349.454,835.841,344.888,837.688,339.258,837.688z
		 M339.632,805.481c-3.03,0-5.435,1.137-7.216,3.413c-1.781,2.268-2.672,5.276-2.672,9.018c0,3.795,0.891,6.796,2.672,9.003
		c1.781,2.214,4.116,3.313,7.002,3.313c2.976,0,5.335-1.069,7.082-3.215c1.747-2.153,2.619-5.131,2.619-8.941
		c0-3.979-0.846-7.063-2.539-9.277C344.888,806.588,342.572,805.481,339.632,805.481z"/>
	<path fill="#F5BC15" d="M399.042,837.017h-8.712l-15.794-24.075c-0.926-1.413-1.567-2.467-1.924-3.185h-0.107
		c0.143,1.359,0.214,3.421,0.214,6.2v21.06h-8.151v-38.324h9.3l15.207,23.335c0.695,1.047,1.336,2.093,1.924,3.123h0.107
		c-0.143-0.886-0.214-2.642-0.214-5.261v-21.197h8.151V837.017z"/>
	<path fill="#F5BC15" d="M421.866,825.364h-14.619v-5.902h14.619V825.364z"/>
	<path fill="#F5BC15" d="M463.103,837.017h-8.659v-15.607h-15.875v15.607h-8.632v-38.324h8.632v15.287h15.875v-15.287h8.659V837.017
		z"/>
	<path fill="#F5BC15" d="M500.759,798.692l-12.48,24.694v13.63h-8.632v-13.47l-12.16-24.854h9.862l6.173,14.302
		c0.107,0.268,0.401,1.306,0.882,3.123h0.107c0.231-1.282,0.508-2.29,0.829-3.016l6.28-14.409H500.759z"/>
	<path fill="#F5BC15" d="M519.921,837.688c-5.488,0-9.959-1.786-13.416-5.36c-3.457-3.573-5.185-8.224-5.185-13.966
		c0-6.055,1.754-10.957,5.265-14.698c3.511-3.742,8.161-5.612,13.95-5.612c5.47,0,9.893,1.794,13.27,5.375s5.064,8.3,5.064,14.164
		c0,6.018-1.751,10.874-5.252,14.562C530.116,835.841,525.551,837.688,519.921,837.688z M520.295,805.481
		c-3.029,0-5.435,1.137-7.216,3.413c-1.781,2.268-2.673,5.276-2.673,9.018c0,3.795,0.892,6.796,2.673,9.003
		c1.781,2.214,4.116,3.313,7.002,3.313c2.977,0,5.336-1.069,7.082-3.215c1.747-2.153,2.619-5.131,2.619-8.941
		c0-3.979-0.846-7.063-2.539-9.277C525.551,806.588,523.234,805.481,520.295,805.481z"/>
	<path fill="#F5BC15" d="M543.466,835.551v-8.552c1.55,1.298,3.233,2.275,5.051,2.924c1.817,0.649,3.652,0.978,5.506,0.978
		c1.086,0,2.035-0.1,2.846-0.298c0.812-0.19,1.487-0.466,2.031-0.81c0.544-0.351,0.949-0.764,1.216-1.229
		c0.268-0.473,0.401-0.984,0.401-1.542c0-0.748-0.214-1.413-0.642-2.001s-1.012-1.13-1.75-1.634
		c-0.739-0.496-1.617-0.978-2.633-1.443c-1.016-0.458-2.111-0.932-3.287-1.412c-2.993-1.253-5.225-2.772-6.695-4.574
		c-1.47-1.794-2.204-3.971-2.204-6.521c0-1.993,0.4-3.711,1.202-5.139c0.802-1.436,1.894-2.619,3.274-3.543
		c1.38-0.932,2.979-1.611,4.797-2.047s3.741-0.656,5.772-0.656c1.995,0,3.765,0.122,5.305,0.362c1.541,0.24,2.963,0.61,4.264,1.111
		v7.986c-0.642-0.442-1.341-0.832-2.099-1.176c-0.758-0.336-1.536-0.618-2.338-0.84s-1.601-0.39-2.393-0.496
		c-0.792-0.107-1.546-0.16-2.258-0.16c-0.979,0-1.871,0.099-2.673,0.282c-0.802,0.19-1.479,0.45-2.031,0.786
		c-0.552,0.344-0.979,0.749-1.282,1.222c-0.304,0.466-0.455,1.001-0.455,1.589c0,0.642,0.17,1.214,0.508,1.726
		c0.338,0.504,0.819,0.984,1.443,1.443c0.624,0.45,1.38,0.893,2.271,1.336c0.892,0.436,1.897,0.886,3.021,1.344
		c1.533,0.642,2.909,1.329,4.129,2.047c1.22,0.725,2.268,1.534,3.141,2.443c0.872,0.908,1.54,1.947,2.004,3.115
		s0.695,2.527,0.695,4.077c0,2.139-0.405,3.933-1.217,5.384c-0.811,1.45-1.91,2.627-3.3,3.527c-1.39,0.901-3.007,1.543-4.851,1.939
		c-1.845,0.39-3.792,0.588-5.84,0.588c-2.102,0-4.103-0.183-6-0.534C546.499,836.795,544.855,836.261,543.466,835.551z"/>
	<path fill="#F5BC15" d="M607.152,820.424c0,11.508-5.362,17.265-16.089,17.265c-10.405,0-15.607-5.62-15.607-16.867v-22.129h8.659
		v22.235c0,6.2,2.422,9.301,7.269,9.301c4.758,0,7.136-2.993,7.136-8.979v-22.557h8.633V820.424z"/>
	<path fill="#F5BC15" d="M649.966,837.017h-8.712l-15.795-24.075c-0.926-1.413-1.567-2.467-1.924-3.185h-0.107
		c0.144,1.359,0.214,3.421,0.214,6.2v21.06h-8.151v-38.324h9.301l15.206,23.335c0.695,1.047,1.337,2.093,1.925,3.123h0.106
		c-0.143-0.886-0.214-2.642-0.214-5.261v-21.197h8.151V837.017z"/>
	<path fill="#F5BC15" d="M690.188,834.451c-3.741,2.161-8.392,3.237-13.95,3.237c-6.164,0-11.024-1.71-14.579-5.116
		c-3.555-3.413-5.332-8.116-5.332-14.103c0-6.018,1.941-10.927,5.826-14.722c3.885-3.796,9.051-5.696,15.501-5.696
		c4.063,0,7.644,0.564,10.743,1.688v8.094c-2.957-1.711-6.574-2.565-10.85-2.565c-3.582,0-6.498,1.168-8.753,3.489
		c-2.255,2.329-3.381,5.429-3.381,9.315c0,3.933,1.012,6.979,3.033,9.14c2.021,2.153,4.754,3.23,8.191,3.23
		c2.067,0,3.705-0.29,4.918-0.878v-7.483h-7.671v-6.895h16.303V834.451z"/>
	<path fill="#F5BC15" d="M744.199,834.451c-3.741,2.161-8.392,3.237-13.95,3.237c-6.164,0-11.024-1.71-14.579-5.116
		c-3.555-3.413-5.332-8.116-5.332-14.103c0-6.018,1.941-10.927,5.826-14.722c3.885-3.796,9.051-5.696,15.501-5.696
		c4.063,0,7.644,0.564,10.743,1.688v8.094c-2.957-1.711-6.574-2.565-10.85-2.565c-3.582,0-6.498,1.168-8.753,3.489
		c-2.255,2.329-3.381,5.429-3.381,9.315c0,3.933,1.012,6.979,3.033,9.14c2.021,2.153,4.754,3.23,8.191,3.23
		c2.067,0,3.705-0.29,4.918-0.878v-7.483h-7.671v-6.895h16.303V834.451z"/>
	<path fill="#F5BC15" d="M783.806,837.017h-9.915l-5.959-9.857c-0.445-0.748-0.873-1.421-1.283-2.009s-0.824-1.092-1.243-1.504
		c-0.418-0.42-0.854-0.74-1.31-0.962c-0.454-0.229-0.948-0.336-1.482-0.336h-2.325v14.668h-8.633v-38.324h13.684
		c9.301,0,13.95,3.475,13.95,10.423c0,1.337-0.204,2.573-0.614,3.704c-0.41,1.13-0.989,2.153-1.737,3.062
		c-0.748,0.909-1.653,1.688-2.713,2.352c-1.059,0.657-2.24,1.176-3.541,1.551v0.106c0.571,0.176,1.123,0.466,1.657,0.87
		c0.534,0.397,1.052,0.863,1.55,1.397c0.499,0.535,0.976,1.115,1.43,1.726c0.455,0.619,0.869,1.215,1.243,1.803L783.806,837.017z
		 M760.288,805.16v10.667h3.741c1.854,0,3.341-0.534,4.463-1.604c1.14-1.092,1.711-2.436,1.711-4.039
		c0-3.345-2.005-5.024-6.014-5.024H760.288z"/>
	<path fill="#F5BC15" d="M803.048,837.688c-5.488,0-9.959-1.786-13.416-5.36c-3.457-3.573-5.185-8.224-5.185-13.966
		c0-6.055,1.755-10.957,5.265-14.698c3.511-3.742,8.161-5.612,13.951-5.612c5.469,0,9.892,1.794,13.269,5.375
		s5.064,8.3,5.064,14.164c0,6.018-1.75,10.874-5.251,14.562C813.244,835.841,808.678,837.688,803.048,837.688z M803.423,805.481
		c-3.03,0-5.436,1.137-7.216,3.413c-1.781,2.268-2.673,5.276-2.673,9.018c0,3.795,0.892,6.796,2.673,9.003
		c1.78,2.214,4.115,3.313,7.002,3.313c2.976,0,5.335-1.069,7.082-3.215c1.746-2.153,2.619-5.131,2.619-8.941
		c0-3.979-0.846-7.063-2.539-9.277C808.678,806.588,806.362,805.481,803.423,805.481z"/>
	<path fill="#F5BC15" d="M859.599,820.424c0,11.508-5.362,17.265-16.088,17.265c-10.406,0-15.608-5.62-15.608-16.867v-22.129h8.659
		v22.235c0,6.2,2.423,9.301,7.27,9.301c4.757,0,7.136-2.993,7.136-8.979v-22.557h8.632V820.424z"/>
	<path fill="#F5BC15" d="M876.569,823.814v13.202h-8.632v-38.324h13.522c9.657,0,14.485,4.07,14.485,12.218
		c0,3.849-1.386,6.964-4.156,9.339c-2.77,2.382-6.471,3.565-11.104,3.565H876.569z M876.569,805.32v11.95h3.395
		c4.597,0,6.895-2.016,6.895-6.04c0-3.939-2.298-5.91-6.895-5.91H876.569z"/>
</g>
</svg>
