<?xml version="1.0" encoding="utf-8"?>
<!-- Generator: Adobe Illustrator 15.1.0, SVG Export Plug-In . SVG Version: 6.00 Build 0)  -->
<!DOCTYPE svg PUBLIC "-//W3C//DTD SVG 1.1//EN" "http://www.w3.org/Graphics/SVG/1.1/DTD/svg11.dtd">
<svg version="1.1" xmlns="http://www.w3.org/2000/svg" xmlns:xlink="http://www.w3.org/1999/xlink" x="0px" y="0px" width="1000px"
	 height="1000px" viewBox="0 0 1000 1000" enable-background="new 0 0 1000 1000" xml:space="preserve">
<g id="Layer_1">
	<polygon fill="#EB5310" points="501.029,35.104 973.173,305.044 973.173,692.83 501.029,964.896 26.828,692.83 26.828,305.044 	"/>
	<g>
		<path fill="#FFFFFF" d="M261.957,323.904v13.041H214.01c-1.236,0-2.29,0.468-3.159,1.401c-0.823,0.935-1.235,2.041-1.235,3.319
			v9.963h52.342v11.986h-52.342v9.627c0,1.328,0.412,2.46,1.235,3.394c0.869,0.886,1.923,1.328,3.159,1.328h47.947v13.86h-49.699
			c-4.898,0-9.041-1.844-12.429-5.533c-3.434-3.688-5.15-8.14-5.15-13.354v-49.033H261.957z"/>
	</g>
	<g>
		<path fill="#FFFFFF" d="M707.045,492.097v22.448h185.866c7.1,0,13.245,3.496,18.438,10.488c5.187,7,7.784,15.279,7.784,24.84
			v62.207c0,63.389-60.538,64.627-60.538,64.627H656.922v-57.359h194.405c0,0,13.111-0.037,13.111-25.994v-22.633H682.976
			c-32.447,0-26.222-35.33-26.222-35.33v-65.303c0-68.799,57.992-60.986,57.992-60.986h204.387v55.633H720.155
			C705.843,464.734,707.045,492.097,707.045,492.097z"/>
	</g>
	<g>
		<path fill="#FFFFFF" d="M864.61,345.041v5.771h47.781c1.825,0,3.406,0.898,4.741,2.695c1.332,1.801,2,3.93,2,6.387v15.992
			c0,16.296-15.563,16.614-15.563,16.614h-51.847v-14.746h49.978c0,0,3.372-0.01,3.372-6.683v-5.818h-46.651
			c-8.341,0-6.74-9.082-6.74-9.082v-16.789c0-17.686,14.908-15.678,14.908-15.678h52.543v14.303H867.98
			C864.301,338.008,864.61,345.041,864.61,345.041z"/>
	</g>
	<g>
		<path fill="#FFFFFF" d="M343.1,514.883v161.824H165.045c-59.354,0-84.521-30.406-84.521-91.221v-91.221
			c0-60.813,25.168-85.164,84.521-85.164H343.1v54.732H172.345c-28.608,0-36.377,8.539-36.377,37.73v76.443
			c0,29.313,8.122,41.678,36.851,41.678h116.696v-51.219H172.818v-53.584H343.1z"/>
	</g>
	<polygon fill="#FFFFFF" points="499.042,409.102 464.656,409.102 359.223,676.707 417.131,676.707 499.042,468.029 
		580.953,676.707 638.862,676.707 533.428,409.102 	"/>
	<polygon fill="#FFFFFF" points="449.699,324.729 440.992,324.729 414.289,392.501 428.955,392.501 449.699,339.652 
		470.444,392.501 485.111,392.501 458.408,324.729 	"/>
	<polygon fill="#FFFFFF" points="771.544,323.979 762.836,323.979 736.134,391.75 750.799,391.75 771.544,338.902 792.289,391.75 
		806.955,391.75 780.253,323.979 	"/>
	<g>
		<path fill="#FFFFFF" d="M126.256,323.904c15.242,0,22.865,6.859,22.865,20.578c0,7.623-2.287,12.195-6.859,13.721
			c4.572,1.523,6.859,6.098,6.859,13.719c0,13.719-7.623,20.579-22.865,20.579H80.523v-68.597H126.256z M126.256,351.343
			c6.097,0,9.146-2.286,9.146-6.86c0-4.572-3.812-6.859-11.433-6.859H94.244v13.72H126.256z M126.256,365.063H94.244v13.719h29.725
			c7.621,0,11.433-2.286,11.433-6.859S132.353,365.063,126.256,365.063z"/>
	</g>
	<g>
		<path fill="#FFFFFF" d="M424.624,751.758c8.228,0,12.342,4.977,12.342,14.928c0,5.529-1.233,8.846-3.702,9.951
			c2.469,1.107,3.702,4.424,3.702,9.953c0,9.951-4.114,14.93-12.342,14.93h-24.685v-49.762H424.624z M424.624,771.662
			c3.29,0,4.937-1.66,4.937-4.977s-2.058-4.977-6.171-4.977h-16.045v9.953H424.624z M424.624,781.615h-17.279v9.951h16.045
			c4.113,0,6.171-1.658,6.171-4.977C429.561,783.273,427.914,781.615,424.624,781.615z"/>
	</g>
	<g>
		<path fill="#FFFFFF" d="M638.475,344.298v47.452h-13.623v-68.113h13.895l40.597,47.453v-47.453h13.623v68.113h-13.851
			L638.475,344.298z"/>
	</g>
	<g>
		<path fill="#FFFFFF" d="M539.299,337.473h-27.093l-0.045-13.568h67.847v13.568h-27.139v54.277h-13.57V337.473z"/>
	</g>
	<g>
		<path fill="#FFFFFF" d="M321.488,364.664 M328.098,364.664 M350.912,351.085c7.544,0,11.316-2.263,11.316-6.79
			s-3.772-6.79-11.316-6.79h-29.424v13.58v13.579v27.16h-13.579v-67.898h45.267c15.088,0,22.633,6.789,22.633,20.369
			s-7.545,20.369-22.633,20.369h-4.211l31.869,27.16h-20.869l-31.867-27.16v-13.579 M350.912,351.085"/>
	</g>
	<path fill="#FFFFFF" d="M499.944,801.568c-10.808,0-16.748-4.475-16.748-12.299v-3.846c0-4.682,1.948-8.244,6.622-10.131v-0.141
		c-4.48-1.746-6.622-4.963-6.622-9.783v-1.537c0-7.826,5.94-12.299,16.748-12.299c10.809,0,16.748,4.473,16.748,12.299v1.537
		c0,4.82-2.239,8.037-6.62,9.783v0.141c4.673,1.887,6.62,5.449,6.62,10.131v3.846C516.692,797.094,510.753,801.568,499.944,801.568z
		 M493.908,766.838c0,3.912,2.531,5.17,6.036,5.17c3.408,0,6.038-1.258,6.038-5.17v-2.727c0-4.402-2.63-5.59-6.038-5.59
		c-3.407,0-6.036,1.188-6.036,5.59V766.838z M499.944,794.578c3.408,0,5.94-1.186,6.038-5.52v-4.541c0-3.844-2.24-5.521-6.038-5.521
		c-3.797,0-6.036,1.678-6.036,5.521v4.541C493.908,793.393,496.537,794.578,499.944,794.578z"/>
	<path fill="#FFFFFF" d="M522.961,782.072l19.474-30.637h11.685v30.637h5.063v7.162h-5.063v12.334h-10.71v-12.334h-20.448V782.072z
		 M543.409,782.072v-15.311h-0.195l-10.42,15.311H543.409z"/>
	<path fill="#FFFFFF" d="M566.101,763.783c0-7.826,5.745-12.299,16.261-12.299c10.517,0,16.262,4.473,16.262,12.299v25.438
		c0,7.824-5.745,12.299-16.262,12.299c-10.516,0-16.261-4.475-16.261-12.299V763.783z M574.447,789.709
		c0,3.494,4.507,4.82,7.914,4.82c3.408,0,8.2-1.326,8.2-4.82v-26.414c0-3.494-4.792-4.822-8.2-4.822
		c-3.407,0-7.914,1.328-7.914,4.822V789.709z"/>
	<g>
		<path fill="#FFFFFF" d="M461.193,774.465h13.038v14.859c0,7.791-5.452,12.244-15.97,12.244c-10.516,0-15.968-4.453-15.968-12.244
			V764c0-7.791,5.452-12.242,15.968-12.242c9.185,0,15.97,1.803,15.97,8.145v4.73h-9.151v-2.789
			c0.046-2.451-3.338-3.129-6.818-3.129c-3.408,0-6.619,1.32-6.619,4.799v26.297c0,3.479,3.211,4.73,6.619,4.73
			c5.467,0,6.818-1.252,6.818-4.73v-8.975h-3.887V774.465z"/>
	</g>
	<path fill="#FFFFFF" d="M437.189,210.618h120.522c0,0-5.409,33.47-32.624,33.47h-95.109L437.189,210.618z"/>
	<path fill="#FFFFFF" d="M564.162,166.838H443.641c0,0,5.408-33.469,32.623-33.469h95.111L564.162,166.838z"/>
	<polygon fill="#FFFFFF" points="438.204,201.659 443.303,175.797 563.318,175.797 558.22,201.659 	"/>
</g>
<g id="Layer_2">
</g>
</svg>
