<?xml version="1.0" encoding="utf-8"?>
<!-- Generator: Adobe Illustrator 15.1.0, SVG Export Plug-In . SVG Version: 6.00 Build 0)  -->
<!DOCTYPE svg PUBLIC "-//W3C//DTD SVG 1.1//EN" "http://www.w3.org/Graphics/SVG/1.1/DTD/svg11.dtd">
<svg version="1.1" id="Layer_3" xmlns="http://www.w3.org/2000/svg" xmlns:xlink="http://www.w3.org/1999/xlink" x="0px" y="0px"
	 width="1000px" height="1000px" viewBox="0 0 1000 1000" enable-background="new 0 0 1000 1000" xml:space="preserve">
<path d="M4.909,500c0,0,1.197-26.361,16.773-51.524c15.58-25.162,201.306-346.294,201.306-346.294s21.568-41.25,75.49-41.25
	c53.921,0,202.507,0,202.507,0s148.582,0,202.503,0s75.49,41.25,75.49,41.25s185.73,321.132,201.306,346.294
	C995.861,473.639,997.063,500,997.063,500s-1.201,26.36-16.777,51.523c-15.575,25.164-201.306,346.297-201.306,346.297
	s-21.568,41.249-75.49,41.249s-202.503,0-202.503,0s-148.585,0-202.507,0c-53.922,0-75.49-41.249-75.49-41.249
	S37.262,576.687,21.683,551.522C6.106,526.359,4.909,500,4.909,500z"/>
<g>
	<g>
		<path fill="#D4D3D3" d="M671.767,814.995c5.954,0,7.284-2.872,8.475-6.161h5.182v49.012h-7.702v-37.39h-5.954V814.995z"/>
		<path fill="#D4D3D3" d="M694.244,814.995c5.952,0,7.282-2.872,8.473-6.161h5.182v49.012h-7.702v-37.39h-5.952V814.995z"/>
	</g>
</g>
<path fill="#D4D3D3" d="M955.722,471.241c-8.388-15.578-203.701-353.485-203.701-353.485s-17.975-25.164-39.543-25.164
	s-211.492,0-211.492,0s-189.924,0-211.492,0c-21.569,0-39.542,25.164-39.542,25.164S54.638,455.663,46.249,471.241
	C37.861,486.819,37.861,500,37.861,500s0,13.18,8.388,28.758c8.389,15.577,203.703,353.484,203.703,353.484
	s17.974,25.163,39.542,25.163c21.568,0,211.492,0,211.492,0s189.923,0,211.492,0s39.543-25.163,39.543-25.163
	s195.313-337.907,203.701-353.484c8.39-15.578,8.39-28.758,8.39-28.758S964.111,486.819,955.722,471.241z M933.48,512.807
	L726.555,869.36c0,0-5.392,11.684-19.771,11.684c-14.38,0-205.8,0-205.8,0s-191.42,0-205.8,0c-14.379,0-19.771-11.684-19.771-11.684
	L68.49,512.807C63.997,504.942,65.12,500,65.12,500s-1.123-4.943,3.37-12.807l206.923-356.555c0,0,5.392-11.684,19.771-11.684
	c14.379,0,205.8,0,205.8,0s191.42,0,205.8,0c14.379,0,19.771,11.684,19.771,11.684L933.48,487.193
	c4.493,7.864,3.369,12.807,3.369,12.807S937.974,504.942,933.48,512.807z"/>
<polygon fill="#D4D3D3" points="500.988,843.548 772.09,751.281 820.619,663.811 500.988,775.247 181.353,663.811 229.882,751.281 
	"/>
<polygon fill="#D4D3D3" points="500.984,154.902 229.882,247.169 181.353,334.64 500.984,223.203 820.619,334.64 772.09,247.169 "/>
<polygon fill="#208BBD" points="500.986,741.446 846.082,622.819 881.132,561.709 500.986,561.709 120.84,561.709 155.889,622.819 
	"/>
<polygon fill="#208BBD" points="500.986,257.952 155.889,376.579 120.84,437.689 500.986,437.689 881.132,437.689 846.082,376.579 
	"/>
<path fill="#FFFFFF" d="M559.176,352.614l-38.194-8.088c0,0-9.661-2.696-11.907-12.356c-2.247-9.661-8.088-38.195-8.088-38.195
	s-5.841,28.534-8.088,38.195c-2.247,9.66-11.908,12.356-11.908,12.356l-38.194,8.088l38.194,8.088c0,0,9.661,2.696,11.908,12.356
	c2.247,9.661,8.088,38.194,8.088,38.194s5.841-28.533,8.088-38.194c2.246-9.661,11.907-12.356,11.907-12.356L559.176,352.614z"/>
<g>
	<path d="M449.677,689.763c-14.381,0-22.285-8.729-22.285-24.005v-7.502c0-9.138,2.591-16.094,8.811-19.775v-0.273
		c-5.96-3.409-8.811-9.684-8.811-19.095v-3c0-15.275,7.903-24.004,22.285-24.004c14.38,0,22.284,8.729,22.284,24.004v3
		c0,9.411-2.979,15.686-8.81,19.095v0.273c6.219,3.682,8.81,10.638,8.81,19.775v7.502
		C471.961,681.034,464.058,689.763,449.677,689.763z M441.645,621.977c0,7.64,3.368,10.094,8.033,10.094
		c4.535,0,8.032-2.454,8.032-10.094v-5.317c0-8.595-3.497-10.911-8.032-10.911s-8.033,2.316-8.033,10.911V621.977z M449.677,676.123
		c4.535,0,7.903-2.318,8.032-10.773v-8.866c0-7.502-2.979-10.773-8.032-10.773c-5.054,0-8.033,3.271-8.033,10.773v8.866
		C441.645,673.805,445.143,676.123,449.677,676.123z"/>
	<path d="M479.35,616.112c0-15.275,7.644-24.004,21.638-24.004c13.991,0,21.635,8.729,21.635,24.004v49.646
		c0,15.276-7.645,24.005-21.635,24.005c-13.994,0-21.638-8.729-21.638-24.005V616.112z M493.601,666.713
		c0,6.819,2.851,9.41,7.387,9.41c4.534,0,7.382-2.591,7.382-9.41v-51.555c0-6.819-2.849-9.41-7.382-9.41
		c-4.536,0-7.387,2.591-7.387,9.41V666.713z"/>
	<path d="M552.296,689.763c-14.381,0-22.285-8.729-22.285-24.005v-7.502c0-9.138,2.592-16.094,8.81-19.775v-0.273
		c-5.959-3.409-8.81-9.684-8.81-19.095v-3c0-15.275,7.904-24.004,22.285-24.004c14.38,0,22.282,8.729,22.282,24.004v3
		c0,9.411-2.979,15.686-8.808,19.095v0.273c6.217,3.682,8.808,10.638,8.808,19.775v7.502
		C574.578,681.034,566.676,689.763,552.296,689.763z M544.262,621.977c0,7.64,3.37,10.094,8.034,10.094
		c4.533,0,8.033-2.454,8.033-10.094v-5.317c0-8.595-3.5-10.911-8.033-10.911c-4.534,0-8.034,2.316-8.034,10.911V621.977z
		 M552.296,676.123c4.533,0,7.903-2.318,8.033-10.773v-8.866c0-7.502-2.98-10.773-8.033-10.773c-5.054,0-8.034,3.271-8.034,10.773
		v8.866C544.262,673.805,547.762,676.123,552.296,676.123z"/>
</g>
<g>
	<g>
		<path fill="#D4D3D3" d="M302.842,806.837c7.709,0,11.671,4.61,11.671,12.68v1.585h-7.493v-2.089c0-3.604-1.44-4.972-3.962-4.972
			s-3.963,1.368-3.963,4.972c0,3.674,1.585,6.412,6.773,10.951c6.627,5.836,8.717,10.014,8.717,15.777
			c0,8.069-4.034,12.681-11.815,12.681c-7.782,0-11.816-4.611-11.816-12.681v-3.097h7.493v3.602c0,3.603,1.585,4.9,4.107,4.9
			c2.522,0,4.107-1.298,4.107-4.9c0-3.674-1.584-6.412-6.772-10.951c-6.629-5.834-8.718-10.015-8.718-15.778
			C291.17,811.447,295.133,806.837,302.842,806.837z"/>
		<path fill="#D4D3D3" d="M342.112,839.042v6.699c0,8.069-4.036,12.681-11.816,12.681c-7.781,0-11.815-4.611-11.815-12.681v-26.225
			c0-8.069,4.034-12.68,11.815-12.68c7.781,0,11.816,4.61,11.816,12.68v4.899h-7.493v-5.403c0-3.604-1.585-4.972-4.106-4.972
			c-2.522,0-4.107,1.368-4.107,4.972v27.233c0,3.603,1.585,4.9,4.107,4.9c2.521,0,4.106-1.298,4.106-4.9v-7.204H342.112z"/>
	</g>
</g>
<g>
	<path fill="#FFFFFF" d="M128.839,536.545c-5.319,0-9.817-1.744-13.495-5.233c-3.726-3.489-5.59-7.699-5.59-12.631v-35.729
		c0-4.933,1.864-9.121,5.59-12.562c3.729-3.536,8.226-5.303,13.495-5.303h65.975v17.865H138.38c-2.635,0-4.896,0.883-6.784,2.65
		c-1.84,1.77-2.757,3.862-2.757,6.281v17.865c0,2.466,0.917,4.583,2.757,6.351c1.888,1.722,4.149,2.582,6.784,2.582h57.253v17.864
		H128.839z"/>
	<path fill="#FFFFFF" d="M229.032,536.545c-5.318,0-9.817-1.744-13.494-5.233c-3.727-3.489-5.591-7.699-5.591-12.631v-35.729
		c0-4.933,1.864-9.121,5.591-12.562c3.728-3.536,8.225-5.303,13.494-5.303h64.409v17.865h-59.639c-1.342,0-2.485,0.443-3.429,1.323
		c-0.894,0.885-1.341,1.933-1.341,3.142v4.466h63.589v17.865h-63.589v4.467c0,1.255,0.448,2.326,1.341,3.209
		c0.944,0.838,2.087,1.257,3.429,1.257h62.024v17.864H229.032z"/>
	<path fill="#FFFFFF" d="M310.141,536.545v-53.593c0-4.933,1.864-9.121,5.59-12.562c3.729-3.536,8.226-5.303,13.495-5.303h2.385
		c5.268,0,9.74,1.768,13.419,5.303c1.192,1.07,2.161,2.187,2.907,3.351l43.313,40.474c1.292,0,2.41-0.42,3.354-1.256
		c0.944-0.884,1.417-1.954,1.417-3.211v-44.661h19.084v53.594c0,4.979-1.888,9.188-5.666,12.631
		c-3.727,3.489-8.201,5.233-13.419,5.233h-2.385c-5.319,0-9.815-1.744-13.493-5.233c-1.193-1.069-2.162-2.187-2.908-3.35
		l-43.237-40.545c-1.343,0-2.486,0.443-3.43,1.326c-0.894,0.884-1.341,1.93-1.341,3.14v44.662H310.141z"/>
	<path fill="#FFFFFF" d="M462.814,536.545v-53.593h-38.168v-17.865h95.421v17.865h-38.168v53.593H462.814z"/>
	<path fill="#FFFFFF" d="M524.84,536.545l33.397-62.526h0.075c0.845-1.303,1.887-2.513,3.13-3.628
		c3.728-3.536,8.225-5.303,13.494-5.303h4.771c5.269,0,9.74,1.768,13.419,5.303c1.241,1.116,2.286,2.326,3.132,3.628h0.148
		l33.397,62.526h-23.855l-7.156-13.397h-42.94l-7.156,13.397H524.84z M591.634,509.748l-12.447-23.238
		c-0.598-0.419-1.221-0.814-1.864-1.187c-0.697,0.372-1.344,0.767-1.938,1.187l-12.377,23.238H591.634z"/>
	<path fill="#FFFFFF" d="M658.43,536.545c-5.317,0-9.817-1.744-13.493-5.233c-3.727-3.489-5.591-7.699-5.591-12.631v-53.594h19.084
		v44.661c0,2.466,0.919,4.583,2.758,6.351c1.889,1.722,4.15,2.582,6.784,2.582h38.169c2.583,0,4.821-0.86,6.71-2.582
		c1.888-1.768,2.833-3.885,2.833-6.351v-44.661h19.084v53.594c0,4.979-1.891,9.188-5.665,12.631
		c-3.729,3.489-8.201,5.233-13.419,5.233H658.43z"/>
	<path fill="#FFFFFF" d="M749.082,536.545v-71.458h85.88c2.583,0,4.819,0.883,6.71,2.65c1.887,1.77,2.833,3.862,2.833,6.281v15.632
		c0,4.977-1.891,9.188-5.667,12.63c-0.943,0.932-1.963,1.723-3.057,2.373c1.988,0.885,3.804,2.116,5.443,3.697
		c0.941,0.838,1.764,1.723,2.459,2.653c0.547,0.651,1.043,1.511,1.491,2.581c0.598,1.21,1.045,2.467,1.341,3.769
		c0.101,0.466,0.199,0.907,0.299,1.326h0.075l4.771,17.864h-20.725l-3.131-17.864l-0.598-3.001c-0.447-1.208-1.191-2.302-2.235-3.28
		c-1.889-1.768-4.125-2.651-6.709-2.651h-50.097v26.797H749.082z M820.649,491.883c1.291,0,2.409-0.418,3.354-1.255
		c0.944-0.884,1.416-1.956,1.416-3.211c0-1.208-0.472-2.256-1.416-3.142c-0.944-0.88-2.063-1.323-3.354-1.323h-52.482v8.931H820.649
		z"/>
	<path fill="#FFFFFF" d="M858.817,536.545v-71.458h19.084v71.458H858.817z"/>
</g>
</svg>
