<?xml version="1.0" encoding="utf-8"?>
<!-- Generator: Adobe Illustrator 15.1.0, SVG Export Plug-In . SVG Version: 6.00 Build 0)  -->
<!DOCTYPE svg PUBLIC "-//W3C//DTD SVG 1.1//EN" "http://www.w3.org/Graphics/SVG/1.1/DTD/svg11.dtd">
<svg version="1.1" id="Layer_1" xmlns="http://www.w3.org/2000/svg" xmlns:xlink="http://www.w3.org/1999/xlink" x="0px" y="0px"
	 width="360px" height="90px" viewBox="0 0 360 90" enable-background="new 0 0 360 90" xml:space="preserve">
<rect width="360" height="90"/>
<g>
	<path fill="#FFFFFF" d="M34.813,71.52v-13.5h27c1.828,0,3.41-0.649,4.746-1.951c1.335-1.335,2.004-2.935,2.004-4.799V17.52h13.5
		v40.5c0,3.763-1.336,6.944-4.008,9.545c-2.637,2.637-5.801,3.955-9.492,3.955H34.813z"/>
	<path fill="#FFFFFF" d="M105.688,71.52c-3.762,0-6.944-1.318-9.545-3.955c-2.637-2.637-3.955-5.817-3.955-9.545v-40.5h13.5v33.75
		c0,1.864,0.65,3.464,1.951,4.799c1.335,1.302,2.935,1.951,4.799,1.951h27c1.828,0,3.41-0.649,4.746-1.951
		c1.335-1.335,2.004-2.935,2.004-4.799V17.52h13.5v40.5c0,3.763-1.336,6.944-4.008,9.545c-2.637,2.637-5.801,3.955-9.492,3.955
		H105.688z"/>
	<path fill="#FFFFFF" d="M183.313,71.52c-3.762,0-6.944-1.318-9.545-3.955c-2.637-2.637-3.955-5.817-3.955-9.545v-40.5h13.5v33.75
		c0,1.864,0.65,3.464,1.951,4.799c1.336,1.302,2.936,1.951,4.799,1.951h40.5v13.5H183.313z"/>
	<path fill="#FFFFFF" d="M240.688,71.52v-54h13.5v54H240.688z"/>
	<path fill="#FFFFFF" d="M277.813,71.52c-3.764,0-6.943-1.318-9.545-3.955c-2.637-2.637-3.955-5.817-3.955-9.545v-27
		c0-3.726,1.318-6.89,3.955-9.492c2.637-2.671,5.818-4.008,9.545-4.008h45.563v13.5h-42.188c-0.949,0-1.76,0.334-2.426,1.002
		c-0.633,0.668-0.949,1.459-0.949,2.373v3.375h44.982v13.5h-44.982v3.375c0,0.949,0.316,1.759,0.949,2.426
		c0.666,0.633,1.477,0.949,2.426,0.949h43.875v13.5H277.813z"/>
</g>
</svg>
