<?xml version="1.0" encoding="utf-8"?>
<!-- Generator: Adobe Illustrator 15.1.0, SVG Export Plug-In . SVG Version: 6.00 Build 0)  -->
<!DOCTYPE svg PUBLIC "-//W3C//DTD SVG 1.1//EN" "http://www.w3.org/Graphics/SVG/1.1/DTD/svg11.dtd">
<svg version="1.1" id="Layer_1" xmlns="http://www.w3.org/2000/svg" xmlns:xlink="http://www.w3.org/1999/xlink" x="0px" y="0px"
	 width="646.955px" height="165px" viewBox="0 0 646.955 165" enable-background="new 0 0 646.955 165" xml:space="preserve">
<g>
	<g>
		<path d="M16.753,72.535c2.032-4.905,4.064-9.811,6.096-14.717c21.072,8.729,42.436,16.48,64.025,23.255
			c1.132,0.355,2.224,0.303,3.271-0.154c1.059-0.497,1.753-1.283,2.082-2.353c0.317-1.031,0.179-2.05-0.408-3.057
			c-0.587-1.006-1.44-1.685-2.56-2.036c-17.92-5.624-35.683-11.927-53.25-18.91c-2.239-0.89-3.873-2.377-4.889-4.449
			c-0.961-2.093-1.014-4.156-0.178-6.19c3.019-7.348,6.038-14.696,9.057-22.044c0.836-2.034,2.296-3.472,4.374-4.329
			c2.116-0.841,4.226-0.839,6.347,0.004c22.41,8.908,45.155,16.649,68.148,23.222c-1.459,5.105-2.918,10.211-4.378,15.316
			c-19.473-5.566-38.771-11.952-57.845-19.158c-1.109-0.419-2.195-0.41-3.257,0.027c-1.022,0.454-1.728,1.182-2.115,2.188
			c-0.402,1.045-0.373,2.08,0.092,3.101c0.52,0.999,1.343,1.711,2.465,2.135c17.286,6.53,34.754,12.394,52.368,17.592
			c2.201,0.649,3.886,1.958,5.07,3.938c1.183,1.978,1.489,4.003,0.903,6.079c-2.167,7.665-4.334,15.329-6.501,22.993
			c-0.598,2.116-1.954,3.695-4.082,4.726c-2.116,0.991-4.342,1.145-6.661,0.461C68.521,92.383,42.425,83.169,16.753,72.535z"/>
		<path d="M133.674,110.541c-4.824-1.159-8.526-3.696-11.055-7.56c-2.575-3.876-3.268-7.949-2.143-12.199
			c2.715-10.267,5.43-20.534,8.145-30.801c1.125-4.251,3.655-7.438,7.535-9.609c3.903-2.25,8.016-2.842,12.404-1.787
			c18.324,4.403,36.779,8.076,55.322,11.021c-0.833,5.245-1.666,10.489-2.499,15.733c-16.211-2.574-32.357-5.694-48.41-9.359
			c-2.248-0.513-4.352-0.196-6.329,0.956c-1.936,1.162-3.162,2.786-3.666,4.883c-1.241,5.163-2.481,10.326-3.722,15.489
			c-0.514,2.138-0.146,4.169,1.122,6.089c1.319,1.89,3.159,3.108,5.504,3.644c16.99,3.879,34.081,7.172,51.241,9.88
			c-0.828,5.245-1.655,10.49-2.483,15.735C174.205,119.43,153.866,115.392,133.674,110.541z"/>
		<path d="M225.359,126.882c-4.902-0.576-8.857-2.653-11.808-6.187c-2.998-3.542-4.158-7.501-3.546-11.854
			c1.478-10.517,2.955-21.034,4.433-31.55c0.612-4.355,2.737-7.821,6.315-10.439c3.59-2.7,7.584-3.778,12.044-3.253
			c16.16,1.899,32.369,3.249,48.599,4.049c4.479,0.221,8.21,1.943,11.256,5.199c3.129,3.217,4.668,6.987,4.553,11.343
			c-0.284,10.616-0.568,21.232-0.853,31.848c-0.118,4.437-1.938,8.149-5.518,11.102c-3.535,2.995-7.75,4.389-12.58,4.15
			C260.591,130.418,242.949,128.949,225.359,126.882z M270.39,114.903c2.341,0.142,4.415-0.512,6.203-1.954
			c1.791-1.485,2.732-3.329,2.84-5.525c0.262-5.304,0.523-10.607,0.785-15.911c0.106-2.154-0.631-4.058-2.194-5.719
			c-1.565-1.661-3.461-2.556-5.706-2.692c-11.054-0.67-22.096-1.59-33.119-2.759c-2.282-0.242-4.324,0.324-6.144,1.702
			c-1.776,1.384-2.797,3.143-3.049,5.285c-0.62,5.273-1.24,10.547-1.859,15.821c-0.257,2.184,0.345,4.156,1.822,5.912
			c1.526,1.719,3.486,2.709,5.868,2.962C247.338,113.245,258.858,114.204,270.39,114.903z"/>
		<path d="M309.186,132.205c0.209-21.239,0.419-42.478,0.628-63.716c24.366,0.24,48.742-0.755,73.032-2.985
			c2.192-0.202,4.162,0.399,5.926,1.808c1.763,1.409,2.763,3.18,2.984,5.326c0.818,7.923,1.636,15.846,2.455,23.769
			c0.226,2.188-0.417,4.152-1.945,5.889c-1.533,1.696-3.463,2.655-5.777,2.867c-19.936,1.831-39.927,2.873-59.925,3.126
			c0.101,7.964,0.202,15.928,0.303,23.893C320.974,132.254,315.08,132.263,309.186,132.205z M372.478,90.343
			c1.134-0.085,2.087-0.533,2.856-1.343c0.765-0.85,1.101-1.835,1.011-2.952c-0.086-1.075-0.573-1.971-1.456-2.692
			c-0.884-0.721-1.884-1.04-3.005-0.956c-15.188,1.136-30.403,1.801-45.623,1.994c0.034,2.655,0.067,5.31,0.101,7.964
			C341.746,92.163,357.125,91.492,372.478,90.343z"/>
		<path d="M428.247,124.305c-4.891,0.701-9.246-0.292-13.003-2.951c-3.805-2.654-5.941-6.184-6.466-10.548
			c-1.904-15.816-3.808-31.631-5.712-47.447c5.385-0.648,10.765-1.357,16.138-2.127c1.884,13.14,3.769,26.281,5.652,39.421
			c0.312,2.177,1.4,3.929,3.28,5.246c1.917,1.27,4.069,1.725,6.439,1.357c11.444-1.772,22.858-3.806,34.232-6.099
			c2.31-0.466,4.154-1.632,5.521-3.487c1.357-1.896,1.798-3.921,1.339-6.071c-2.771-12.983-5.542-25.965-8.313-38.948
			c5.324-1.136,10.638-2.333,15.941-3.592c3.678,15.5,7.355,30.999,11.033,46.499c1.026,4.318,0.209,8.376-2.513,12.154
			c-2.668,3.806-6.406,6.241-11.16,7.255C463.271,118.677,445.792,121.79,428.247,124.305z"/>
		<path d="M528.193,103.257c-4.79,1.339-9.262,0.927-13.352-1.216c-4.138-2.132-6.724-5.352-7.811-9.612
			c-3.941-15.435-7.882-30.87-11.823-46.304c5.286-1.35,10.561-2.761,15.823-4.232c3.576,12.784,7.151,25.569,10.727,38.353
			c0.592,2.118,1.904,3.712,3.95,4.771c2.078,1.006,4.283,1.173,6.601,0.497c16.792-4.903,33.457-10.393,49.964-16.467
			c1.833,4.983,3.667,9.966,5.501,14.95C568.115,91.23,548.238,97.65,528.193,103.257z"/>
		<path d="M600.38,79.234c-7.676-19.805-15.351-39.609-23.027-59.413c5.135-1.991,10.253-4.042,15.353-6.154
			c8.128,19.623,16.256,39.246,24.384,58.869C611.54,74.834,605.969,77.067,600.38,79.234z"/>
	</g>
</g>
</svg>
