<?xml version="1.0" encoding="utf-8"?>
<!-- Generator: Adobe Illustrator 15.1.0, SVG Export Plug-In . SVG Version: 6.00 Build 0)  -->
<!DOCTYPE svg PUBLIC "-//W3C//DTD SVG 1.1//EN" "http://www.w3.org/Graphics/SVG/1.1/DTD/svg11.dtd">
<svg version="1.1" id="Layer_1" xmlns="http://www.w3.org/2000/svg" xmlns:xlink="http://www.w3.org/1999/xlink" x="0px" y="0px"
	 width="2653px" height="2653px" viewBox="0 0 2653 2653" enable-background="new 0 0 2653 2653" xml:space="preserve">
<path opacity="0.5" fill="#CBC8C7" d="M3508.574,1302.265"/>
<path opacity="0.5" fill="#CBC8C7" d="M3497.393,1345.858l-8.466,0.971"/>
<path opacity="0.5" fill="#CBC8C7" d="M3508.574,1302.265l5.078,6.804"/>
<path fill="#CBC8C7" d="M1310.784,2532.693c979.674-498.848,901.537-1754.991,901.537-1754.991l-285.489-135.23V486.205
	L1310.784,98.543L694.738,486.205v156.268l-285.49,135.23C409.248,777.703,331.11,2033.846,1310.784,2532.693z"/>
<path fill="#132340" d="M1310.776,171.366l574.721,364.92v145.201l270.539,129.222c0,0,69.79,1173.498-845.26,1653.99
	c-915.051-480.492-845.261-1653.99-845.261-1653.99l270.539-129.222V536.286L1310.776,171.366z"/>
<path fill="#E2DED9" d="M1310.784,2443.57c868.47-465.807,826.404-1613.325,826.404-1613.325l-283.985-129.221V546.262
	c0,0-542.427-339.578-542.427-339.583L768.348,546.257V701.02L484.365,830.241C484.365,830.241,442.316,1977.773,1310.784,2443.57"
	/>
<path fill="#132340" d="M1310.776,2409.479c832.423-435.736,796.363-1559.771,796.363-1559.771l-282.478-126.215V561.215
	l-513.885-312.536L796.9,561.215v162.277L514.42,849.707C514.42,849.707,478.369,1973.742,1310.776,2409.479z"/>
<path fill="#CBC8C7" d="M1310.793,1209.639l129.597-100.295l-55.22-247.923c93.534,13.523,160.022,75.504,160.022,75.504
	l-84.52,52.965l63.108,166.785l-138.611,103.676l140.866,103.681l10.142,220.876c-59.727,64.234-151.008,74.377-151.008,74.377
	l19.158-103.676l55.218-24.793l-6.76-125.088l-141.993-89.027l-141.992,89.027l-6.761,125.088l55.218,24.793l19.159,103.676
	c0,0-91.281-10.143-151.007-74.377l10.142-220.876l140.866-103.681l-138.611-103.676l63.108-166.785l-84.519-52.965
	c0,0,66.488-61.98,160.021-75.504l-55.22,247.923L1310.793,1209.639z"/>
<polygon fill="#CBC8C7" points="1310.776,1368.163 1228.123,1458.314 1310.776,2093.898 "/>
<polygon fill="#CBC8C7" points="1310.784,1141.276 1393.437,1051.122 1310.784,415.538 "/>
<polygon fill="#CBC8C7" points="1184.569,1262.79 1077.881,1353.326 682.711,1262.79 "/>
<polygon fill="#CBC8C7" points="1443.005,1262.786 1549.691,1353.326 1944.862,1262.786 "/>
<polygon fill="#CBC8C7" points="1094.433,1019.651 882.545,812.963 1068.242,1087.637 "/>
<path fill="#CBC8C7" d="M1062.281,1102.08l-48.291-74.218c-69.112,58.6-77.528,159.239-77.528,159.239l96.352-7.515
	L1062.281,1102.08z"/>
<path fill="#CBC8C7" d="M974.716,967.444l-28.631-44.021c-62.396,73.431-108.353,170.35-121.004,270.813l49.805-3.513
	C874.886,1190.724,890.637,1061.788,974.716,967.444z"/>
<path fill="#CBC8C7" d="M1245.414,825.42l11.842-51.79c-95.991,8.443-192.81,44.817-272.373,107.441l44.566,27.548
	C1029.45,908.619,1119.296,833.525,1245.414,825.42z"/>
<polygon fill="#CBC8C7" points="1528.086,1019.651 1739.975,812.963 1554.279,1087.637 "/>
<path fill="#CBC8C7" d="M1560.238,1102.08l48.29-74.218c69.112,58.6,77.529,159.239,77.529,159.239l-96.352-7.515L1560.238,1102.08z
	"/>
<path fill="#CBC8C7" d="M1647.805,967.444l28.631-44.021c62.394,73.431,108.352,170.35,121.002,270.813l-49.804-3.513
	C1747.634,1190.724,1731.883,1061.788,1647.805,967.444z"/>
<path fill="#CBC8C7" d="M1377.105,825.42l-11.841-51.79c95.989,8.443,192.808,44.817,272.37,107.441l-44.565,27.548
	C1593.069,908.619,1503.224,833.525,1377.105,825.42z"/>
<path fill="#CBC8C7" d="M1042.349,1409.636l-48.291,84.874c-69.111-58.601-73.602-153.985-73.602-153.985l94.327,7.245
	L1042.349,1409.636z"/>
<path fill="#CBC8C7" d="M963.313,1542.613l-33.084,51.283c-62.395-73.424-103.897-170.35-116.548-270.812l49.804,3.513
	C863.485,1326.597,879.235,1448.27,963.313,1542.613z"/>
<path fill="#CBC8C7" d="M1244.077,1700.408l6.955,56.32c-104.435-7.51-193.082-55.809-267.027-119.197l43.06-28.826
	C1027.064,1608.705,1117.959,1692.301,1244.077,1700.408z"/>
<polygon fill="#CBC8C7" points="1042.349,1484.771 1042.349,1583.182 863.37,1713.158 "/>
<path fill="#CBC8C7" d="M1577.794,1409.636l48.282,84.874c69.111-58.601,73.602-153.985,73.602-153.985l-94.317,7.245
	L1577.794,1409.636z"/>
<path fill="#CBC8C7" d="M1656.819,1542.613l33.086,51.283c62.403-73.424,103.905-170.35,116.548-270.812l-49.795,3.513
	C1756.658,1326.597,1740.898,1448.27,1656.819,1542.613z"/>
<path fill="#CBC8C7" d="M1376.057,1700.408l-6.945,56.32c104.425-7.51,193.267-55.975,267.222-119.367l-43.255-28.656
	C1593.078,1608.705,1502.185,1692.301,1376.057,1700.408z"/>
<polygon fill="#CBC8C7" points="1577.794,1484.771 1577.794,1583.182 1756.772,1713.158 "/>
<g>
	<path fill="#E2DED9" d="M912.584,565.018c8.62-5.366,16.165-7.844,22.644-7.457c6.479,0.405,11.728,3.83,15.743,10.288
		c2.218,3.579,3.662,7.158,4.332,10.728c0.668,3.575,0.377,7.114-0.854,10.601c-1.233,3.495-3.434,6.946-6.603,10.389
		c-3.161,3.42-7.413,6.797-12.749,10.116l-65.563,40.781l2.738-26.813l53.256-33.113c2.588-1.615,4.226-3.2,4.931-4.749
		c0.677-1.55,0.466-3.236-0.67-5.063c-1.136-1.818-2.535-2.747-4.216-2.778c-1.665-0.026-3.813,0.766-6.4,2.382l-38.307,23.824
		c-4.552,2.827-8.796,4.781-12.705,5.851c-3.909,1.069-7.501,1.404-10.75,1c-3.275-0.401-6.207-1.515-8.813-3.355
		c-2.607-1.831-4.843-4.261-6.709-7.276c-2.06-3.297-3.336-6.66-3.855-10.082c-0.528-3.419-0.176-6.827,1.074-10.229
		c1.241-3.403,3.452-6.814,6.612-10.239c3.16-3.429,7.43-6.805,12.757-10.129l61.143-38.024l-2.614,27.02l-48.818,30.374
		c-2.527,1.567-4.183,3.081-4.983,4.547c-0.793,1.47-0.618,3.107,0.518,4.93c1.137,1.827,2.544,2.725,4.236,2.698
		c1.681-0.027,3.776-0.818,6.312-2.395L912.584,565.018z"/>
	<path fill="#E2DED9" d="M1012.336,464l-2.711,27.091l-25.155,15.645l32.392,52.093l-21.763,13.541l-32.408-52.094l-33.042,20.554
		l2.701-27.086L1012.336,464z"/>
	<path fill="#E2DED9" d="M1063.151,432.394l88.322,42.708l-22.062,13.726l-8.848-3.839l-52.393,32.589l0.749-25.571l16.137-10.042
		c1.929-1.193,3.918-2.434,6.013-3.729c2.079-1.289,3.928-2.351,5.547-3.173c-1.681-0.695-3.716-1.651-6.093-2.84
		c-2.385-1.188-4.658-2.289-6.788-3.302l-23.11-11.454l-1.039,74.786l-19.394,12.066l-2.589-96.035L1063.151,432.394z"/>
	<path fill="#E2DED9" d="M1176.487,409.635l22.16-13.778c3.372-2.096,5.776-4.561,7.221-7.409c1.442-2.839,1.4-5.498-0.133-7.95
		c-1.699-2.733-4.023-4.133-6.982-4.186c-2.966-0.062-6.33,1.091-10.116,3.452l-39.678,24.664l32.608,51.962l-21.79,13.549
		l-43.791-70.407l59.47-36.981c3.999-2.491,8.365-4.688,13.1-6.611c4.748-1.928,9.458-3.029,14.141-3.324
		c4.692-0.286,9.183,0.472,13.461,2.285c4.289,1.809,8.002,5.238,11.137,10.296c1.7,2.734,2.896,5.591,3.592,8.563
		c0.678,2.984,0.845,5.952,0.494,8.892c-0.362,2.945-1.251,5.811-2.678,8.598c-1.436,2.791-3.415,5.361-5.943,7.708
		c1.753,0.172,3.813,0.506,6.154,0.986c2.36,0.488,5.512,1.197,9.499,2.122l21.448,5.63l-29.151,18.132l-27.266-8.879
		l-28.201,17.542L1176.487,409.635z"/>
</g>
<g>
	<path fill="#E2DED9" d="M1419.383,387.651l24.74,14.976l14.984-24.766l21.543,13.029l-42.313,69.918l-21.535-13.03l16.306-26.963
		l-36.897-22.327L1419.383,387.651z"/>
	<path fill="#E2DED9" d="M1473.343,481.996l-21.729-13.158l42.295-69.917l81.006,49.013l-25.003,9.715l-45.263-27.385l-5.054,8.355
		l42.939,25.999l-9.599,15.883l-42.945-25.99L1473.343,481.996z"/>
	<path fill="#E2DED9" d="M1645.162,585.963l-21.63-13.092l42.313-69.917l21.63,13.087L1645.162,585.963z"/>
	<path fill="#E2DED9" d="M1800.229,584.282l-34.247,6.823c-3.787,0.758-6.974,1.382-9.544,1.858
		c-2.589,0.498-4.773,0.885-6.569,1.18c-1.795,0.29-3.292,0.523-4.49,0.704c-1.215,0.177-2.262,0.326-3.194,0.423
		c0.386,0.806,0.749,1.743,1.153,2.826c0.387,1.101,0.853,2.602,1.399,4.512c0.573,1.902,1.259,4.297,2.096,7.18
		c0.826,2.883,1.856,6.511,3.134,10.882l9.649,34.548l-30.524-18.462l-9.852-37.523l-38.535,8.236l-26.871-16.252l35.5-7.224
		c4.119-0.835,7.588-1.523,10.397-2.069c2.791-0.537,5.105-0.977,6.92-1.303c1.821-0.33,3.309-0.559,4.507-0.704
		c1.172-0.142,2.228-0.26,3.135-0.379c-0.327-0.863-0.696-1.822-1.102-2.879c-0.404-1.056-0.88-2.482-1.407-4.279
		c-0.538-1.801-1.207-4.067-2.025-6.796c-0.827-2.738-1.813-6.216-2.958-10.441l-9.289-33.034l29.996,18.159l9.086,35.203
		l35.64-8.135L1800.229,584.282z"/>
	<polygon fill="#E2DED9" points="1417.516,352.681 1395.771,339.533 1353.466,409.45 1375.204,422.612 	"/>
	<path fill="#E2DED9" d="M1572.741,517.586l31.431-51.948l-21.632-13.087l-29.142,48.137c-7.264,12.035-3.417,27.671,8.609,34.951
		l54.005,32.685l10.882-17.982L1572.741,517.586z"/>
	<polygon fill="#E2DED9" points="1477.781,484.677 1498.893,472.611 1543.607,499.67 1522.443,511.692 	"/>
</g>
<g>
	<g>
		<path fill="#E2DED9" d="M1173.559,2242.454c7.789,6.487,12.619,12.766,14.444,18.938c1.827,6.178,0.458,12.149-4.154,17.895
			c-2.557,3.186-5.386,5.648-8.496,7.368c-3.109,1.719-6.529,2.511-10.25,2.392c-3.698-0.118-7.748-1.175-12.092-3.185
			c-4.313-1.996-8.985-5.079-13.932-9.227c-20.209-17.066-40.047-34.509-59.57-52.356c10.586-1.5,15.859-2.291,26.371-3.95
			c15.798,14.17,31.799,28.076,48.027,41.75c2.385,1.987,4.429,3.084,6.118,3.284c1.664,0.197,3.192-0.515,4.517-2.117
			c1.325-1.604,1.729-3.198,1.193-4.787c-0.531-1.575-1.98-3.362-4.35-5.334c-11.594-9.77-23.079-19.647-34.474-29.648
			c-4.037-3.573-7.154-7.103-9.309-10.553c-2.149-3.442-3.497-6.791-4.043-9.983c-0.55-3.212-0.331-6.29,0.679-9.228
			c1.008-2.933,2.69-5.67,5.017-8.198c2.556-2.776,5.387-4.837,8.45-6.203c3.061-1.365,6.372-1.92,9.895-1.638
			s7.334,1.465,11.409,3.502c4.062,2.03,8.426,5.111,13.034,9.153c17.71,15.471,35.685,30.592,53.951,45.401
			c-10.28,2.458-15.444,3.65-25.813,5.96c-14.649-12.118-29.115-24.426-43.427-36.939c-2.205-1.94-4.118-3.108-5.714-3.463
			c-1.602-0.355-3.094,0.253-4.481,1.812s-1.827,3.136-1.312,4.715s1.881,3.354,4.119,5.329
			C1150.669,2223.029,1162.061,2232.795,1173.559,2242.454z"/>
		<path fill="#E2DED9" d="M946.839,2023.688c6.587,8.079,9.913,12.092,16.628,20.065c2.554,3.03,5.34,5.06,8.321,6.089
			c2.975,1.027,5.544,0.629,7.675-1.198c2.371-2.033,3.345-4.491,2.939-7.377c-0.405-2.885-2.028-5.999-4.875-9.364
			c-9.866-11.807-19.601-23.706-29.22-35.715c-15.479,12.405-30.948,24.823-46.424,37.232c-6.539-8.226-9.776-12.362-16.187-20.688
			c21.238-16.358,42.474-32.721,63.707-49.087c13.967,17.987,28.23,35.704,42.811,53.198c2.974,3.523,5.713,7.408,8.27,11.692
			c2.56,4.291,4.354,8.666,5.373,13.123c1.024,4.48,1.021,8.93,0.004,13.337c-1.02,4.417-3.685,8.563-8.003,12.382
			c-2.337,2.066-4.887,3.679-7.64,4.793c-2.752,1.113-5.607,1.72-8.51,1.803c-2.907,0.083-5.854-0.377-8.806-1.386
			c-2.954-1.009-8.507-4.775-8.507-4.775c-0.129,0.067,0.157,3.813,0.097,6.181c-0.061,2.389-0.188,5.594-0.364,9.65
			c-0.63,8.767-0.914,13.164-1.424,21.98c-7.8-8.748-15.51-17.578-23.122-26.49c1.297-9.369,2.674-18.728,4.134-28.073
			c-7.148-8.617-14.237-17.273-21.272-25.982C932.224,2024.59,937.104,2024.313,946.839,2023.688z"/>
		<g>
			<path fill="#E2DED9" d="M819.834,1920.166c-5.792-8.655-8.655-13.01-14.315-21.758c22.177-14.367,44.353-28.737,66.527-43.107
				c16.873,25.808,34.351,51.143,52.466,76.094c-10.427-0.275-15.65-0.455-26.125-0.899c-10.121-14.208-20.057-28.528-29.817-42.987
				c-3.146,2.115-4.719,3.174-7.865,5.288c9.26,13.826,18.726,27.516,28.406,41.051c-5.855,4.194-8.781,6.288-14.636,10.481
				c-9.791-13.686-19.365-27.525-28.732-41.504C837.109,1908.607,828.468,1914.381,819.834,1920.166z"/>
			<path fill="#E2DED9" d="M822.808,1924.573c9.544-0.594,14.307-0.923,23.813-1.637c10.015,14.511,20.202,28.884,30.572,43.143
				c-9.49,0.992-14.246,1.457-23.778,2.33C843.029,1953.92,832.831,1939.315,822.808,1924.573z"/>
		</g>
		<g>
			<path fill="#E2DED9" d="M1006.266,2151.856c-7.214-7.501-10.793-11.278-17.893-18.889c19.309-18.043,38.628-36.075,57.931-54.124
				c21.14,22.449,42.783,44.338,65.001,65.721c-10.324,1.555-15.503,2.293-25.898,3.688c-12.456-12.214-24.751-24.57-36.894-37.096
				c-2.728,2.634-4.09,3.951-6.817,6.584c11.539,11.989,23.26,23.804,35.16,35.434c-5.03,5.154-7.543,7.73-12.572,12.885
				c-12.036-11.76-23.89-23.707-35.564-35.825C1021.231,2137.438,1013.75,2144.648,1006.266,2151.856z"/>
			<path fill="#E2DED9" d="M1009.956,2155.67c9.289-2.262,13.921-3.422,23.153-5.792c12.41,12.538,24.966,24.909,37.684,37.135
				c-9.174,2.639-13.775,3.929-23.009,6.461C1035.013,2181.027,1022.413,2168.43,1009.956,2155.67z"/>
		</g>
		<g>
			<path fill="#E2DED9" d="M802.359,1856.264c-10.396-1.338-15.602-2.051-26.025-3.562c-7.21-12.068-14.305-24.194-21.292-36.394
				c-3.597-6.329-5.992-12.73-7.184-19.133c-1.191-6.4-1.267-12.436-0.22-18.054c1.048-5.622,3.167-10.721,6.342-15.263
				c3.168-4.533,7.322-8.147,12.424-10.848c5.092-2.695,10.344-4.063,15.713-4.129c5.376-0.066,10.612,0.991,15.674,3.136
				c5.062,2.145,9.836,5.357,14.321,9.641c4.481,4.28,8.433,9.435,11.861,15.467c9.301,16.221,18.811,32.299,28.55,48.261
				c-10.356-1.086-15.542-1.674-25.931-2.936c-6.996-11.624-13.848-23.335-20.551-35.131c-1.677-2.951-3.64-5.467-5.893-7.54
				c-2.252-2.071-4.623-3.618-7.132-4.642c-2.507-1.022-5.096-1.499-7.77-1.426c-2.663,0.073-5.235,0.797-7.731,2.168
				c-2.495,1.37-4.473,3.135-5.944,5.305c-1.464,2.158-2.4,4.606-2.789,7.319c-0.391,2.715-0.259,5.602,0.402,8.638
				c0.661,3.037,1.857,6.075,3.574,9.096C782.401,1823.054,792.263,1839.718,802.359,1856.264z"/>
		</g>
	</g>
</g>
<g>
	<g>
		<path fill="#E2DED9" d="M1481.959,2203.826c7.433-6.563,14.166-10.321,20.289-11.224c6.133-0.903,11.538,1.216,16.191,6.401
			c2.584,2.879,4.425,5.91,5.526,9.109c1.101,3.197,1.29,6.575,0.554,10.098c-0.736,3.523-2.415,7.247-5.026,11.108
			c-2.616,3.868-6.308,7.907-11.054,12.072c-19.544,17.021-39.379,33.654-59.56,49.916c0.388-10.336,0.536-15.493,0.755-25.775
			c16.058-13.19,31.9-26.606,47.552-40.276c2.281-2.016,3.667-3.819,4.134-5.398c0.464-1.569,0.053-3.12-1.237-4.602
			c-1.295-1.486-2.734-2.08-4.322-1.785c-1.575,0.293-3.501,1.432-5.766,3.434c-11.177,9.76-22.441,19.399-33.807,28.938
			c-4.062,3.384-7.942,5.88-11.559,7.474c-3.625,1.598-7.008,2.443-10.125,2.536c-3.141,0.094-6.015-0.542-8.61-1.902
			c-2.594-1.359-4.913-3.332-6.91-5.897c-2.187-2.81-3.658-5.794-4.425-8.917c-0.766-3.119-0.733-6.354,0.141-9.697
			c0.87-3.327,2.625-6.805,5.243-10.427c2.618-3.623,6.272-7.372,10.873-11.239c17.558-14.832,34.838-29.942,51.868-45.377
			c0.619,10.146,0.891,15.236,1.345,25.449c-13.903,12.359-27.956,24.521-42.187,36.502c-2.201,1.837-3.629,3.509-4.235,4.991
			c-0.607,1.486-0.288,2.997,0.947,4.529c1.237,1.535,2.653,2.165,4.234,1.884c1.582-0.281,3.493-1.343,5.731-3.21
			C1459.764,2223.076,1470.904,2213.509,1481.959,2203.826z"/>
		<path fill="#E2DED9" d="M1556.502,2090.411c1.272,10.089,1.868,15.149,2.979,25.313c-6.702,6.826-13.464,13.594-20.285,20.301
			c13.055,13.455,26.106,26.913,39.164,40.364c-7.341,7.222-11.042,10.806-18.493,17.918c-12.837-13.667-25.677-27.332-38.514-41
			c-9.093,8.682-18.283,17.26-27.575,25.727c-0.516-10.234-0.813-15.333-1.494-25.499
			C1514.201,2132.996,1535.591,2111.975,1556.502,2090.411z"/>
		<path fill="#E2DED9" d="M1676.776,1950.311c2.451,9.819,3.641,14.755,5.94,24.67c-5.88,7.538-11.814,15.033-17.825,22.467
			c14.597,11.75,29.192,23.502,43.784,35.258c-6.465,8.005-9.729,11.979-16.314,19.885c-14.404-11.984-28.806-23.972-43.212-35.954
			c-8.03,9.646-16.171,19.198-24.422,28.655c-1.727-10.046-2.626-15.046-4.509-25.005
			C1639.631,1997.396,1658.477,1974.1,1676.776,1950.311z"/>
		<path fill="#E2DED9" d="M1588.731,2055.973c30.206,4.654,60.468,8.575,90.861,11.794c-6.774,7.929-10.191,11.868-17.087,19.692
			c-3.633-0.272-5.446-0.414-9.071-0.707c-13.692,15.329-27.596,30.441-41.73,45.364c-1.726-9.513-2.622-14.253-4.479-23.694
			c5.131-5.474,7.682-8.224,12.751-13.754c1.512-1.645,3.087-3.349,4.713-5.132c1.632-1.789,4.389-4.534,4.389-4.534
			c-0.049-0.14-3.793-0.4-6.246-0.789c-2.443-0.388-4.785-0.723-6.969-1.025c-9.51-1.502-14.25-2.287-23.699-3.92
			c5.179,22.841,9.943,45.745,14.303,68.757c-6.393,6.582-9.61,9.85-16.093,16.347c-6.406-29.275-13.449-58.36-21.171-87.317
			C1575.776,2070.086,1582.285,2063.058,1588.731,2055.973z"/>
		<path fill="#E2DED9" d="M1759.661,1965.388c-5.978,8.206-8.996,12.284-15.094,20.396c-20.011-14.932-40.027-29.857-60.052-44.771
			c5.809-7.729,8.684-11.615,14.378-19.432C1719.154,1936.176,1739.415,1950.771,1759.661,1965.388z"/>
		<path fill="#E2DED9" d="M1730.715,1875.886c6.244-9.211,14.714-18.681,25.598-22.152c10.222-3.261,21.497,0.581,30.259,6.05
			c8.78,5.479,17.241,14.044,18.329,24.789c1.193,11.79-4.695,23.77-11.158,33.313c-6.498,9.595-15.471,19.555-26.9,22.877
			c-10.388,3.02-21.553-1.511-30.025-7.522c-8.368-5.938-16.285-14.804-17.129-25.438
			C1718.787,1896.45,1724.494,1885.063,1730.715,1875.886z M1777.868,1907.301c2.673-3.945,4.732-7.434,6.163-10.438
			c1.436-3.017,2.132-5.751,2.091-8.221c-0.041-2.447-0.838-4.734-2.396-6.817c-1.558-2.082-3.987-4.206-7.311-6.342
			c-3.316-2.132-6.271-3.473-8.821-4.046c-2.544-0.572-4.956-0.383-7.18,0.548c-2.238,0.937-4.448,2.619-6.642,5.052
			c-2.184,2.423-4.583,5.568-7.191,9.419c-2.623,3.871-4.643,7.244-6.086,10.181c-1.436,2.919-2.161,5.581-2.19,7.989
			c-0.029,2.405,0.692,4.702,2.189,6.817c1.495,2.111,3.887,4.301,7.13,6.541c3.25,2.245,6.144,3.704,8.664,4.349
			c2.531,0.647,4.976,0.495,7.279-0.395c2.313-0.894,4.609-2.56,6.874-5.011C1772.722,1914.46,1775.181,1911.268,1777.868,1907.301z
			"/>
		<path fill="#E2DED9" d="M1866.388,1798.147c-1.194,1.132-2.613,2.45-5.066,3.326c-19.979,7.734-40.062,15.108-60.302,22.128
			c12.505,7.396,25.01,14.791,37.516,22.187c-4.741,7.814-7.137,11.706-11.98,19.452c-17.503-10.691-35.001-21.392-52.503-32.084
			c-2.088-1.275-3.678-2.681-4.807-4.236c-1.121-1.545-1.851-3.112-2.161-4.705c-0.31-1.588,0.121-2.949,0.514-4.568
			c1.956-3.199,2.93-4.803,4.867-8.014c1.192-1.037,2.627-2.19,5.088-2.983c20.086-6.783,40.018-13.921,59.849-21.417
			c-12.74-6.992-25.479-13.987-38.222-20.977c4.318-7.625,6.451-11.451,10.667-19.139c18.104,9.595,36.208,19.194,54.313,28.789
			c2.155,1.143,3.839,2.466,5.035,3.967c1.198,1.503,2,3.087,2.407,4.721c0.406,1.629,0.028,3.112-0.342,4.839
			C1869.321,1792.924,1868.347,1794.668,1866.388,1798.147z"/>
	</g>
</g>
</svg>
