<?xml version="1.0" encoding="utf-8"?>
<!-- Generator: Adobe Illustrator 15.1.0, SVG Export Plug-In . SVG Version: 6.00 Build 0)  -->
<!DOCTYPE svg PUBLIC "-//W3C//DTD SVG 1.1//EN" "http://www.w3.org/Graphics/SVG/1.1/DTD/svg11.dtd">
<svg version="1.1" id="Layer_1" xmlns="http://www.w3.org/2000/svg" xmlns:xlink="http://www.w3.org/1999/xlink" x="0px" y="0px"
	 width="1000px" height="1000px" viewBox="0 0 1000 1000" enable-background="new 0 0 1000 1000" xml:space="preserve">
<path fill-rule="evenodd" clip-rule="evenodd" fill="#FFFFFF" d="M815.011,682.659c46.604-62.078,108.842-150.044,118.7-251.095
	c5.281-54.094,18.698-176.573-4.563-260.228c-9.493-34.139-37.319-66.27-77.613-86.742c-20.45-10.388-47.64-14.97-79.112-18.347H500
	H227.577c-31.473,3.377-58.663,7.959-79.113,18.347c-40.294,20.472-68.12,52.603-77.613,86.742
	c-23.262,83.654-9.844,206.133-4.563,260.228c9.859,101.051,72.095,189.017,118.701,251.095
	C261.267,784.266,337.461,932.591,500,933.756C662.538,932.591,738.731,784.266,815.011,682.659z"/>
<path fill-rule="evenodd" clip-rule="evenodd" fill="#E21F18" d="M500,66.248V20.681"/>
<path fill-rule="evenodd" clip-rule="evenodd" fill="#E21F18" d="M810.446,20.636c-103.481,0-206.965,0-310.446,0
	c-103.482,0-206.965,0-310.447,0C97.592,39.765,41.29,94.554,20.634,184.991c0,85.219,0,170.438,0,255.66
	C34.679,579.058,113.6,665.395,184.989,760.228c76.837,102.071,134.713,197.666,287.617,219.136c9.129,0,18.263,0,27.394,0v-45.652
	c-162.538-1.164-238.731-149.489-315.011-251.096C138.385,620.538,76.148,532.57,66.289,431.52
	c-5.28-54.094-18.698-176.573,4.563-260.228c9.494-34.139,37.319-66.27,77.613-86.742c20.45-10.387,47.64-14.97,79.113-18.347H500
	h272.422c31.473,3.377,58.662,7.96,79.112,18.347c40.294,20.472,68.12,52.603,77.613,86.742
	c23.262,83.654,9.845,206.133,4.563,260.228c-9.858,101.051-72.096,189.019-118.7,251.096
	C738.731,784.222,662.538,932.547,500,933.711v45.652c9.131,0,18.264,0,27.393,0c152.905-21.47,210.781-117.064,287.618-219.136
	c71.39-94.833,150.31-181.17,164.355-319.577c0-85.221,0-170.44,0-255.66C958.71,94.554,902.408,39.765,810.446,20.636z"/>
<path fill-rule="evenodd" clip-rule="evenodd" fill="#1D80B3" d="M137.053,186.86c5.989-35.098,25.592-56.584,63.915-59.349
	c199.355,0,398.708,0,598.062,0c38.325,2.765,57.928,24.251,63.918,59.349c0,42.611,0,85.221,0,127.832
	c-3.643,10.055-9.168,18.226-22.829,18.26c-226.748,0-453.49,0-680.239,0c-13.201-2.016-20.811-9.625-22.826-22.828
	C137.053,269.037,137.053,227.948,137.053,186.86z"/>
<path fill-rule="evenodd" clip-rule="evenodd" fill="#1D80B3" d="M424.799,842.399c-78.284-35.522-146.327-148.24-210.004-232.834
	c-23.89-31.734-74.401-92.423-18.262-109.566c68.48,0,136.96,0,205.44,0c13.204,2.015,20.812,9.623,22.826,22.827V842.399z"/>
<path fill-rule="evenodd" clip-rule="evenodd" fill="#1D80B3" d="M575.2,842.399c78.283-35.522,146.327-148.24,210.004-232.834
	c23.891-31.734,74.402-92.423,18.263-109.566c-68.479,0-136.961,0-205.44,0c-13.204,2.015-20.812,9.623-22.826,22.827V842.399z"/>
<path fill="#FFFFFF" d="M261.482,198.274v89.854h-31.674v-89.854h-31.031v-26.089h93.654v26.089H261.482z"/>
<polygon fill="#FFFFFF" points="372.425,215.601 350.687,172.186 314.089,172.186 355.542,242.28 355.542,288.395 372.426,288.395 
	389.31,288.395 389.31,242.28 430.763,172.186 394.166,172.186 "/>
<path fill="#FFFFFF" d="M674.074,172.07v116.27h-33.427v-45.232h-40.608v45.232h-33.43V172.07h33.43v42.758h40.608V172.07H674.074z"
	/>
<path fill="#FFFFFF" d="M476.191,230.156c0,0,0,0,0,17.571c0,17.57,20.34,14.6,20.34,14.6c17.974,0,16.318-14.6,16.318-14.6h31.455
	v14.353c0,0-3.312,26.042-24.123,26.042c-20.813,0-50.848,0-50.848,0s-25.306,3.654-25.306-29.259v-28.707v-28.705
	c0-32.912,25.306-29.26,25.306-29.26s30.036,0,50.848,0c20.812,0,24.123,26.043,24.123,26.043v14.354h-31.455
	c0,0,1.656-14.601-16.318-14.601c0,0-20.34-2.97-20.34,14.601C476.191,230.156,476.191,230.156,476.191,230.156z"/>
<g>
	<path fill="#FFFFFF" d="M799.968,196.583c-0.836-4.582-3.447-8.819-7.835-12.714c-4.387-3.895-10.184-6.815-17.395-8.762
		c-7.209-1.948-15.339-2.921-24.393-2.921c-9.543,0-17.899,1.031-25.072,3.093c-7.173,2.062-12.867,5.017-17.08,8.865
		c-4.216,3.85-6.722,8.099-7.521,12.749s-1.2,12.566-1.2,23.746v19.037c0,11.455,0.417,19.472,1.253,24.055
		c0.836,4.582,3.449,8.821,7.835,12.716c4.386,3.893,10.186,6.813,17.394,8.761c7.21,1.947,15.339,2.922,24.393,2.922
		c9.541,0,17.898-1.032,25.073-3.094c7.172-2.062,12.863-5.017,17.079-8.865c4.213-3.849,6.723-8.098,7.522-12.749
		c0.8-4.651,1.201-12.566,1.201-23.746v-19.037C801.222,209.184,800.804,201.165,799.968,196.583z M772.998,251.119
		c0,6.271-5.083,11.352-11.352,11.352h-22.601c-6.269,0-11.353-5.081-11.353-11.352v-41.661c0-6.27,5.084-11.352,11.353-11.352
		h22.601c6.269,0,11.352,5.083,11.352,11.352V251.119z"/>
</g>
</svg>
