<svg xmlns="http://www.w3.org/2000/svg" fill="none" viewBox="0 0 24 24"><path fill="#669DF6" d="M5.246 9.681v6.038l1.5.75v-6.025l-1.5-.763Z"/><path fill="#AECBFA" d="M5.275 8.015 7.32 9.053l4.668-2.309 4.669 2.31 2.045-1.039-6.706-3.32-6.721 3.32Z"/><path fill="#AECBFA" d="M15.741 11.66v-1.518l-3.745-1.87-3.755 1.882v1.489l3.755 1.879 3.745-1.862Z"/><path fill="#669DF6" d="M18.746 9.681v6.038l-1.5.75v-6.025l1.5-.763Zm-3 3.625-3.758 1.867-3.742-1.867v1.678l3.75 1.874 3.75-1.87v-1.681Z"/><path fill="#4285F4" d="M3.909 7.322 12 3.276l8.079 4.04 1.662-.846L12 1.598 2.25 6.474v.002l1.659.846ZM20.25 8.92v7.68L12 20.724l-8.25-4.125V8.932l-1.5-.765v9.359L12 22.401l9.75-4.875v-9.37l-1.5.764Z"/></svg>