<svg xmlns="http://www.w3.org/2000/svg" viewBox="0 0 24 24"><g fill="none"><path fill="#4285F4" d="M3.868 7.7v5.007c.095 4.787 3.44 8.908 8.143 10.034V3.94L3.868 7.7z"/><path fill="#AECBFA" d="M12.01 22.74a8.46 8.46 0 0 0 .862-.241c4.277-1.41 7.194-5.332 7.282-9.792V7.7l-8.143-3.758V22.74zm7.567-20.851h-.382L20.27.629 19.528 0l-2.183 2.586 2.554 2.14.637-.736-1.312-1.094h.353a3.434 3.434 0 0 1 2.943 1.619 3.36 3.36 0 0 1 .12 3.33l.714.717a1.46 1.46 0 0 0 .108-.165 4.338 4.338 0 0 0-.09-4.341 4.434 4.434 0 0 0-3.825-2.129l.03-.038z"/><path fill="#4285F4" d="m3.75 19.4-.802.561.978 1.385c-.117 0-.234 0-.352-.048-1.843-.466-2.956-2.322-2.486-4.145.14-.52.397-1 .754-1.405l-.51-.871a1.032 1.032 0 0 0-.146.145A4.335 4.335 0 0 0 .18 19.238a4.394 4.394 0 0 0 3.158 3h.372l-1.36.968.567.794 2.75-1.937L3.75 19.4z"/></g></svg>