<svg xmlns="http://www.w3.org/2000/svg" viewBox="0 0 33 31"><defs><linearGradient id="a" x1="18.321%" x2="56.302%" y1="53.96%" y2="90.618%"><stop offset="0%" stop-color="#129EAF"/><stop offset="100%" stop-color="#C8C9D6" stop-opacity="0"/></linearGradient></defs><g fill="none" fill-rule="evenodd" transform="translate(.5)"><circle cx="16.565" cy="15.119" r="14.999" fill="#78D9EC" fill-rule="nonzero"/><path fill="url(#a)" fill-opacity=".5" d="M18.537 29.99c7.351-.966 13.026-7.256 13.026-14.87a14.95 14.95 0 0 0-4.224-10.435l-16.886 17.22 8.084 8.084z"/><path fill="#F1F1F1" fill-rule="nonzero" d="m.434 9.243 8.871 2.231a.482.482 0 0 0 .324-.032L31.57 1.044c.53-.25.237-1.051-.33-.901L.428 8.31c-.481.128-.477.812.006.933z"/><path fill="#1A73E8" fill-rule="nonzero" d="M10.375 21.729 9.17 11.623a.482.482 0 0 1 .263-.488L31.265.205c.487-.243.94.38.56.768L11.197 22.01a.482.482 0 0 1-.822-.28z"/><path fill="#80868B" fill-rule="nonzero" d="m10.385 21.51 2.98-7.428a.482.482 0 0 1 .714-.222l2.805 1.86c.257.17.29.534.068.748l-5.785 5.568c-.374.36-.975-.045-.782-.527z"/><path fill="#E2E2E2" fill-rule="nonzero" d="m24.823 21.412-11.229-6.765a.482.482 0 0 1-.045-.795L31.222.253a.482.482 0 0 1 .753.528l-6.444 20.364a.482.482 0 0 1-.708.267z"/></g></svg>