<svg xmlns="http://www.w3.org/2000/svg" viewBox="0 0 25 24"><g fill="none" fill-rule="evenodd"><path d="M0 0h24v24H0z"/><g fill-rule="nonzero"><path fill="#5c85de" d="M5.6 1 0 4.233v14.62l5.6 3.233v-2.81l-3.2-1.847V5.666l3.2-1.854z"/><path fill="#3367d6" d="M0 7.057v8.988l2.4 1.384V5.665z"/><path fill="#3367d6" d="m0 7.057 2.4-.543v-.849z"/><path fill="#5c85de" d="M18.4 1v2.812l3.2 1.854v11.763l-3.2 1.846v2.811l5.6-3.233V4.233z"/><g fill="#3367d6"><path d="m21.6 17.429 2.4-1.385V7.057l-2.4-1.391z"/><path d="m21.6 6.514 2.4.543-2.4-1.391zm0 10.229v.686l2.4-1.385z"/></g><path fill="#5c85de" d="M12 4.393 8.8 6.087 12 7.78l3.2-1.693z"/><path fill="#3367d6" d="m12.431 11.758 3.117-1.723V6.652L12.43 8.378zm-.8-3.38L8.514 6.652v3.383l3.117 1.722z"/><path fill="#5c85de" d="m8.282 10.636-3.061 1.693 3.061 1.693 3.062-1.693z"/><path fill="#3367d6" d="m8.566 18 3.116-1.723v-3.383L8.566 14.62zm-.567-3.38-3.117-1.726v3.383L8 18z"/><path fill="#5c85de" d="m15.77 10.636-3.061 1.693 3.061 1.693 3.062-1.693z"/><path fill="#3367d6" d="m16.054 18 3.116-1.723v-3.383l-3.116 1.726zm-.567-3.38-3.117-1.726v3.383L15.487 18z"/></g></g></svg>