<svg xmlns="http://www.w3.org/2000/svg" viewBox="0 0 24 24"><g fill="none" fill-rule="evenodd"><path d="M0 0h24v24H0z"/><path fill="#34A853" fill-rule="nonzero" d="m20.763 21.223-1.937-2.432c.715-1.903 1.497-6.084-2.422-11.002C11 1.033 3.261 1 3.261 1S1.544 8.548 6.916 15.314c3.258 4.104 6.747 4.919 8.993 4.919.451 0 .847-.033 1.189-.077l1.937 2.431c.374.473 1.068.55 1.552.176.473-.374.55-1.067.176-1.54Zm-3.985-3.246L5.198 3.443c2.345.462 6.34 1.793 9.467 5.71 3.27 4.082 2.63 7.427 2.113 8.824Z"/></g></svg>