<svg xmlns="http://www.w3.org/2000/svg" viewBox="0 0 24 24"><g fill="none" fill-rule="evenodd"><path d="M0 0h24v24H0z"/><path fill="#4285f4" fill-rule="nonzero" d="M9.6 17.2h4.8V22H9.6z"/><path fill="#669df6" d="m20.4 9.8-5.2-5.184-1.216 1.208 6.416 6.4z"/><path fill="#4285f4" d="m16.4 8.24-2.416-2.416L15.2 4.616l1.2 1.208z"/><path fill="#aecbfa" d="m10.728 11.488-1.216-1.216 5.68-5.656L16.4 5.824z"/><path fill="#669df6" d="M10.728 11.488 7.296 8.072l1.216-1.216 3.432 3.416z"/><path fill="#4285f4" d="m9.696 10.464-2.4-2.392 1.216-1.216 1.184 1.168z"/><path fill="#aecbfa" d="m4.12 13.584 5.576-5.56-1.208-1.208L3.6 11.688v1.896z"/><path fill="#669df6" d="M24 1.664A1.48 1.48 0 0 0 22.8.4H1.2A1.48 1.48 0 0 0 0 1.664V17.2c.09.622.578 1.11 1.2 1.2h21.6a1.416 1.416 0 0 0 1.2-1.2zM21.6 16H2.4V2.8h19.2zM7.2 23.2c0-.8.368-1.2 1.2-1.2h7.2c.8 0 1.2.368 1.2 1.2z"/></g></svg>