<svg xmlns="http://www.w3.org/2000/svg" viewBox="0 0 24 24"><path fill="#4285f4" d="M12 21a2.7 2.7 0 0 1-1.862-1.062l-6.477-6.883 1.456-1.371 6.474 6.884a4.042 4.042 0 0 0 .408.395 3.662 3.662 0 0 0 .411-.393l6.469-6.879 1.456 1.371-6.468 6.878A2.7 2.7 0 0 1 12 21Z"/><path fill="#669df6" d="m11.311 14.265-2.51-2.478 1.404-1.424 1.106 1.092 2.487-2.457 1.404 1.424-3.891 3.843zm9.012-9.522A5.686 5.686 0 0 0 16.219 3a5.8 5.8 0 0 0-4.209 1.864l-1.4 1.392 1.52 1.356 1.429-1.471a3.694 3.694 0 0 1 5.337 0 4 4 0 0 1 0 5.541s0 .01-.009.015l1.451 1.366a6.007 6.007 0 0 0-.015-8.32Z"/><path fill="#aecbfa" d="m10.605 6.256 1.4-1.392-.122-.121a5.7 5.7 0 0 0-8.208 0 6.006 6.006 0 0 0-.019 8.312l1.455-1.371-.011-.012a4 4 0 0 1 .006-5.535 3.717 3.717 0 0 1 5.282-.07Z"/></svg>