<svg xmlns="http://www.w3.org/2000/svg" viewBox="0 0 19 22"><g fill="none" fill-rule="evenodd"><path fill="#E44335" d="M11.193 5.798a2.025 2.025 0 1 1-4.05 0 2.025 2.025 0 0 1 4.05 0"/><path stroke="#3C4043" stroke-width=".844" d="M5.465 8.864C4.589 7.988 4.15 6.85 4.15 5.798c0-1.139.438-2.277 1.314-3.066M15.726.63c1.402 1.401 2.103 3.329 2.103 5.168 0 1.84-.7 3.767-2.103 5.169m-13.039 0C1.285 9.565.584 7.637.584 5.798c0-1.84.701-3.767 2.103-5.168m10.261 2.102c.876.876 1.314 2.015 1.314 3.066 0 1.14-.438 2.278-1.314 3.066m1.908 12.799L9.21 6.495 3.566 21.663"/><path stroke="#3C4043" stroke-linecap="round" stroke-width=".844" d="M11.562 13.192H6.86m6.349 4.519H5.127"/></g></svg>