<svg xmlns="http://www.w3.org/2000/svg" viewBox="0 0 24 24"><g fill="none" fill-rule="evenodd"><path d="M0 0h24v24H0z"/><path fill="#669DF6" d="m5.584 17.518-2.875-4.91 2.875-4.897H2.888L0 12.608l2.888 4.91z"/><path fill="#4285F4" d="m3.09 13.216-.361-.602H0l1.334 2.28z"/><path fill="#AECBFA" d="M15.539 6H8.485l-3.97 6.523L8.485 19h7.054l3.946-6.477L15.54 6zm-3.515 9.686c-1.746-.013-3.152-1.388-3.143-3.074.009-1.686 1.43-3.048 3.175-3.043 1.746.004 3.159 1.372 3.159 3.058a3.02 3.02 0 0 1-.94 2.168 3.238 3.238 0 0 1-2.251.891zm-9.315-3.059L5.584 7.71H2.888L0 12.627l1.324 2.268z"/><path fill="#669DF6" d="m15.64 6.114-2.05 3.838c1.288.666 1.94 2.082 1.586 3.44-.355 1.36-1.628 2.315-3.092 2.323a3.276 3.276 0 0 1-1.422-.311L8.554 19h7.086l3.964-6.49-3.964-6.396z"/><path fill="#669DF6" d="m18.416 7.71 2.875 4.898-2.875 4.91h2.708L24 12.608l-2.876-4.897z"/><path fill="#4285F4" d="m20.91 12.024.361.59H24l-1.334-2.28z"/><path fill="#AECBFA" d="m21.291 12.598-2.875 4.92h2.708L24 12.598l-1.324-2.265z"/></g></svg>