<?xml version="1.0" encoding="utf-8"?>
<!-- Generator: Adobe Illustrator 26.0.1, SVG Export Plug-In . SVG Version: 6.00 Build 0)  -->
<svg version="1.1" id="Слой_1" xmlns="http://www.w3.org/2000/svg" xmlns:xlink="http://www.w3.org/1999/xlink" x="0px" y="0px"
	 viewBox="0 0 1000 1000" style="enable-background:new 0 0 1000 1000;" xml:space="preserve">
<g>
	<path d="M525.4,262c11.6,0.6,22.6,4,33.2,8.4c54.2,22.3,87.6,62.2,100,119.5c2.9,13.2,3.4,26.8,2.3,40.3c-0.3,3.6,0.9,5.2,4,6.8
		c49.2,25.2,78,65.5,87.2,119.8c0.6,3.8,1.2,7.5,1.8,11.3c0,8.3,0,16.7,0,25c-1,6.1-1.9,12.1-3.1,18.1c-1.9,9.5-4.3,18.9-8.5,27.8
		c2.6-9.8,4.4-19.7,4.9-29.9c2.7-56.1-38.1-106.9-93.6-115.1c-45.6-6.7-82.3,9.4-110,46.1c-3.1,4.1-1.9,4.3-6.8,1.5
		c-0.7-0.4-1.4-0.9-2.1-1.3c-3.8-2.2-3.8-2.2-2.8-6.4c3.9-15.9-5.2-31.6-21.3-36.9c-4.6-1.5-4.7-1.5-4.6-6.4
		c0.1-7.3-1.6-6.7,6.7-7.6c47.9-4.9,88.4-40.5,98.1-88.5c12-59.4-23.1-115.4-82.2-131.5C527.6,262.7,526.5,262.3,525.4,262z"/>
	<path d="M248,568c0.9-5.7,1.7-11.5,2.8-17.2c10.6-51.9,39.3-90.2,86.7-114.2c3.2-1.6,3.7-3.4,3.5-6.6
		c-2.6-43.4,10.2-81.8,38.5-114.8c24.3-28.3,55.1-45.6,91.6-52.9c1.6-0.3,3.3-0.6,4.9-0.9c-2.1,0.9-4.2,1.9-6.3,2.5
		c-51.7,14.7-86,65.4-80.5,118.9c5.5,53.5,48.1,95.5,101.6,100.3c4.9,0.4,4.9,0.4,4.9,5.3c0,0.2,0,0.3,0,0.5c0,6.4,0,6.4-5.8,8.6
		c-15.6,5.8-23.9,21.1-19.6,37.2c0.7,2.7,0,3.8-2.1,5.1c-6.9,4.1-6.8,4.1-11.6-2.1c-23.3-30.2-54.2-45.7-92.3-45.4
		c-53.9,0.4-100.2,41.2-108.4,94.6c-2.4,15.9-1.6,31.5,2.5,47c0.2,0.6,0.3,1.3,0.4,1.9c0,0.1-0.1,0.3-0.4,0.8
		c-3.5-8.3-5.6-16.8-7.3-25.4c-1.2-6-2-12.1-3.1-18.1C248,584.7,248,576.3,248,568z"/>
	<path d="M396,741c-5.9-1-11.8-1.8-17.6-3c-36.4-7.2-66.8-24.8-91.3-52.7c-0.4-0.5-0.7-1-0.6-2.1c1,0.9,2,1.8,3,2.7
		c32.4,29,69.8,38.7,111.3,25.4c41.6-13.3,67-42.9,76-85.7c4.9-23.5,1.6-46.4-8.5-68.2c-2-4.2-2-4.2,2.2-6.6c0.6-0.3,1.2-0.7,1.7-1
		c4.3-2.5,4.3-2.5,7.8,0.8c12.3,11.3,29.8,11.3,42.1,0c3.5-3.2,3.5-3.2,7.8-0.7c5.9,3.4,5.9,3.4,3.2,9.4
		c-28.9,65.7,9,140.6,79.2,155.3c37.6,7.8,70.9-2.2,99.5-27.7c1.2-1.1,2.4-2.3,4.1-3.2c-0.4,0.7-0.7,1.5-1.2,2.1
		c-28,31.5-62.9,49.7-104.8,54.5c-1.3,0.1-2.5,0.6-3.8,0.9c-8.3,0-16.7,0-25,0c-1.3-0.3-2.5-0.7-3.8-0.9
		c-26.4-2.8-50.8-11.4-72.7-26.5c-2.6-1.8-4.4-1.8-7,0c-18.1,12.6-38.2,20.6-59.9,24.6c-5.5,1-11.1,1.8-16.6,2.8
		C412.7,741,404.3,741,396,741z"/>
	<path d="M356.2,528.3c0.7-7,1.4-13.9,2-20.9c0.3-3.1,1.8-4.1,4.8-4.3c10.3-0.6,20.2,1,30.1,3.7c2.3,0.6,2.8,1.5,2.4,3.8
		c-8.1,47.1,18.2,95.9,65.7,115.2c3.9,1.6,3.9,1.6,2.8,5.7c-2.5,9.4-6.4,18.2-11.5,26.5c-2.3,3.8-2.4,3.9-6.6,2.1
		c-43.6-19-72.1-51.3-84.9-97.3C358,551.6,356.6,540,356.2,528.3z"/>
	<path d="M645.8,529.4c-3.9,60.5-32.9,104.7-89.1,130.4c-5.2,2.4-4.4,2.9-7.7-2.4c-4.9-8-8.6-16.5-11.1-25.6
		c-1.2-4.4-1.2-4.4,2.9-6.1c15.2-6.2,28.5-15.3,39.4-27.5c19.4-21.6,28.6-46.9,27.6-75.9c-0.1-4-0.7-8-1.4-11.9
		c-0.3-2-0.1-3,2.1-3.6c10-2.8,20.1-4.4,30.6-3.8c3.3,0.2,4.3,1.7,4.6,4.5C644.3,514.6,645,521.5,645.8,529.4z"/>
	<path d="M497.7,382.4c36.1,0.3,65.4,10.9,91.3,30.9c3.3,2.5,3.3,2.6,1.3,6.3c-4.6,8.6-10.4,16.3-17.2,23.2c-2.9,2.9-3,2.9-6.4,0.2
		c-13.6-10.6-28.8-18-45.8-21.2c-30.5-5.7-58.1,1.2-83.1,19.4c-1.2,0.9-2.5,1.7-3.5,2.8c-1.5,1.5-2.7,1.3-4.2-0.2
		c-7.6-7.6-13.9-16.1-18.9-25.6c-1.2-2.2-0.4-3.2,1.3-4.4c10.3-8.1,21.4-14.7,33.4-19.9C463.2,386.3,482.5,382.3,497.7,382.4z"/>
</g>
</svg>
