<?xml version="1.0" encoding="utf-8"?>
<!-- Generator: Adobe Illustrator 26.0.1, SVG Export Plug-In . SVG Version: 6.00 Build 0)  -->
<svg version="1.1" id="Слой_1" xmlns="http://www.w3.org/2000/svg" xmlns:xlink="http://www.w3.org/1999/xlink" x="0px" y="0px"
	 viewBox="0 0 1000 1000" style="enable-background:new 0 0 1000 1000;" xml:space="preserve">
<path d="M101,519c0-12.3,0-24.7,0-37c0.3-0.9,0.7-1.9,0.8-2.8c1.4-13.2,2.2-26.5,4.2-39.7c7.5-51.3,25-99.1,51.6-143.5
	c38.1-63.4,89.8-112.7,154.9-147.8c44.2-23.8,91.4-38.6,141.3-44.3c9.4-1.1,18.8-1.9,28.2-2.9c13,0,26,0,39,0
	c1.4,0.3,2.9,0.8,4.3,0.8c26.8,1.4,53.3,5.4,79.1,12.7c116.5,32.9,202,103.6,256.3,211.7c20.2,40.1,32.3,82.9,37.4,127.5
	c1,9.1,1.9,18.2,2.8,27.2c0,13.3,0,26.7,0,40c-0.3,1.6-0.8,3.2-0.9,4.9c-1.4,28.2-6,55.9-13.9,82.9c-30.5,105-93.2,185-187.5,239.9
	c-49.5,28.8-103.2,45.4-160.4,50.5c-6.1,0.5-12.2,1.2-18.3,1.8c-12.7,0-25.3,0-38,0c-1.3-0.3-2.5-0.7-3.8-0.8
	c-10.8-1.1-21.6-1.7-32.3-3.1c-42.4-5.5-82.7-17.9-121-36.9c-76.4-37.9-135.1-94.4-175.9-169.3c-24.3-44.6-39.3-92.2-45.1-142.7
	C102.8,538.5,102,528.7,101,519z M846.2,536.5c8.4-99-19.1-185.9-82.2-261.7c-72.8,54.1-153.1,93.3-235,129.7
	c10.4,45.8,22.6,90.8,37.9,135.2C659.9,526.6,752.6,524.7,846.2,536.5z M529.5,605c-1,0-1.6-0.1-2.3-0.1c-3.3,0.3-6.6,0.6-9.9,1
	c-38.3,3.7-76.1,10.2-113.6,18.9c-3.7,0.8-4,2.5-3.6,5.5c1.7,14.9,3.9,29.7,5,44.6c3.2,43.8,6.2,87.7,8.9,131.5
	c0.6,10.1,0.1,20.3,0.1,30.4c71.1,17.6,139.8,14,207.7-10.7C579.2,757,552,682.2,529.5,605z M363.9,415c1-0.4,1.6-0.5,2.2-0.8
	c37.2-17.9,73.3-37.6,108.5-59.2c1.4-0.8,2.2-3.8,2.1-5.7c-0.6-6.4-1.8-12.8-2.6-19.3c-3.2-25.9-6.5-51.8-9.3-77.8
	c-2.6-24.3-4.5-48.7-6.7-73.1c-0.7-7.4-1.2-14.7-1.8-22.2c-53,7.2-101.1,24.9-145,53.7C332,278.4,349,346.3,363.9,415z M267,244.7
	c-71.9,68.7-109.4,151.1-112.9,248.7c0.9,0.3,1.1,0.4,1.2,0.4c57.4-15.2,113-35.6,167.5-59.4c3.6-1.6,3.5-3.6,2.8-6.6
	c-8.8-40.3-19.7-80-33.8-118.7C284.2,287.9,275.6,266.9,267,244.7z M704.3,781.5c43.2-26.4,112.4-114.9,116.7-149.1
	c-75-21.8-151.6-31.9-230.7-30.8C618.8,668.1,653.3,729.9,704.3,781.5z M191.2,656.6c49.9-25.2,101.1-45.9,153.7-63.8
	c-0.8-37.9-3.7-75.5-9.7-112.3c-59.8,19.1-119.2,38-178.9,57.1C160.6,579,172.1,618.7,191.2,656.6z M492.3,154.2
	c-1.4,18.1,17,161.3,22.5,175.5c57.4-38,111.3-80.3,161.9-127.8C619.3,168.6,558.2,153,492.3,154.2z M211.7,692
	c28.1,42.4,63.2,76.5,106,103.4c15-50.7,23.4-101.9,26.1-154.5C298.4,654.7,254.7,671.6,211.7,692z M399.9,566.6
	c35.1-8.4,70.1-16.8,104.5-25.1c-7.5-36.1-15-72.2-22.6-108.4c-32.8,12.6-65.6,25.3-98.2,37.9C389,503,394.4,534.8,399.9,566.6z"/>
</svg>
