<?xml version="1.0" encoding="utf-8"?>
<!-- Generator: Adobe Illustrator 26.0.1, SVG Export Plug-In . SVG Version: 6.00 Build 0)  -->
<svg version="1.1" id="Слой_1" xmlns="http://www.w3.org/2000/svg" xmlns:xlink="http://www.w3.org/1999/xlink" x="0px" y="0px"
	 viewBox="0 0 1000 1000" style="enable-background:new 0 0 1000 1000;" xml:space="preserve">
<path d="M590.8,493c-1.3-23.1-8.5-44.1-25.1-60c-28.6-27.4-70.1-29.5-93.7-22.1c-0.4,0.1-5.7,2.1-7,3.1c16.7-2.2,31.8-3.5,47,0.8
	c17,4.7,35.2,19.8,38.5,27.8c-4.4-1.6-8.7-3.1-13.2-4.7c2.5,5.7,5.2,10.7,7.1,16c2.2,6.4,2.1,12.9-0.6,19.3
	c-0.4,0.9-1.2,1.5-1.8,2.3c-0.6-1-1.9-2.2-1.7-2.8c1.4-4-1.2-5.5-3.6-7.3c-0.4-0.3-0.7-1.6-0.7-1.7c4.7-2.2,0.3-2.6-0.7-3.3
	c-1.2-0.9-2.6-1.5-3.9-2.2c-4.2-2.2-4.2-2.2-1.2-6.2c0.4-0.5,0.5-1.2,1-2.3c-1.9,0.3-3.4,0.6-4.8,0.8c-1.3,0.2-2.6,0.2-3.9,0.3
	c0.4-1.2,0.8-2.5,1.2-3.7c0.3-0.9,0.8-1.8,1.3-3.2c-1.7,0.1-3.1,0.1-4.3,0.4c-2.5,0.6-4.3,1.2-2.9-2.8c0.9-2.7,0.3-5.6-2.7-8
	c-2,6.5-6.3,9.3-12.1,10.8c-2.9,0.8-2.4,0.1-5,1.8c-1.8,1.2-2,4.4-3.9,5.4c-1.9,1-8.3,2-10.1,3c-3.7,3-2.7,2.5-3.8,0.2
	c-0.2-0.5-1-1.4-1.5-1.7c-0.3,0.6-1.1,1.8-1.5,5.3c-0.4,3.3,0.2,3.4,0.3,6.8c1.6-0.8,1.8-2.2,3.5-2.4c2.9-0.3,7.8-2.9,9.6,0.8
	c0.2,0.5,1.2-1.3,1.8-1.4c2-0.3,6.2-0.3,6.4,0.3c-4.3,2.7-8.4,7-13.8,7.4c-1.2,0.1-3.3-1.2-4.5-0.3c1.3,1.3,3.7,4.9,5.2,5.9
	c0.5,0.3,2-0.3,2.6-1c3.2-3.3,7-5.3,11.5-5.6c1.9-0.1,4.8-1,4.8-1s4.9-5.8,6.6-4.7c1.8,1.1,3.6,2.6,4.7,4.4
	c5.8,9.1,0.9,21.6-9.6,24.2c-2.7,0.7-5.6,0.9-8.4,0.8c-14.3-0.4-26.6-4.6-33.7-18.9c-0.1-0.2-0.5-0.2-0.8-0.4
	c-0.9,3.4-1.7,6.9-2.6,10.3c-4.2-22.4,1.3-41.5,17.8-56.9c-17.2,5.7-29.5,17.3-38,34c-0.7-1.4-1.2-2.4-1.7-3.5
	c-0.5-1-1.1-1.9-2.1-3.6c-9.8,23.9-6.7,45.4,7,66.2c-4-0.6-7.2-1.1-10.6-1.6c14.2,29.2,49.8,37.9,73.7,30.3
	c-7.2-4.6-11.3-11.6-15.1-20c-0.4,2.8-0.5,4.3-0.8,5.9c-6.8-3.9-9.1-9.9-6.8-17.1c1.9-5.7,7.6-9.2,14-8.4
	c6.1,0.8,10.1,4.5,11.9,10.4c1.4,4.5,1.9,9.3,2.9,14.3c1.5-2.1,3-4.2,4.8-6.8c1.1,16.3-5.8,27.4-19.7,32.4c-6.2,2.2-12.7,3-19.2,2.4
	c-4.6-0.4-8.8-2-12.3-5.2c-0.7-0.7-1.5-1.2-2.3-1.8c0.4,1.7,1.6,7.4,1.1,7.8c-0.8,0.8-3.8-1-6.2-1.9c-14.5-5.2-36.2-32.1-37.9-60.9
	c-2.6,3.6-3.9,3.2-4,2.2c-0.3-2.2-0.5-5.7-0.6-7.9c-0.9-22,7.2-44.6,21.8-60.1c0.7-0.8,3.9-4,3.8,5.9c0.6-1.9,3.6-12.9,5.4-17.1
	c-9.9,7.3-18.4,16.5-24.8,27.1c-8.6,14.2-13.6,31-13.6,48.8c0,19.1,5.7,36.8,15.4,51.7c-1.4,0.2-3.3,0.4-6.2,0.7
	c4,4.5,7.1,8.5,10.7,12c5.7,5.6,12.3,9.5,19.4,12.3c3.1,1.2,6.4,2.2,9.8,3.1c-1.4,0.2-2.7,0.5-4,0.7c-1.7,0.3-3.5,0.6-5.2,0.9
	c4.3,1.4,8.6,2.5,12.9,3.4c14.2,2.9,28.6,2.6,43.4-2.4c-1.2,2.3-2.1,3.8-3.5,6.3c15.5-4.4,25.4-14,31.6-29.6
	c0.2,2.2,0.2,3.1,0.4,3.9c0.1,0.7,0.3,1.4,0.5,2.7c8.5-7.9,11.8-17.5,12-28.8c1.5,1,2.6,1.7,3.6,2.4c0.3-1.3,0.7-2.5,0.8-3.8
	c0.4-4,0.7-8,1.1-12.7c7.7,12.2,4.9,34.4-3,45.1v-10.8c-9.1,22.1-27.4,30.6-47.2,37.4c0.7,0,1.3,0.1,2,0.1c0.2,0,0.4,0,0.6,0
	c0.3,0,0.6,0,0.9-0.1c13.7-2.3,27-6,39.4-12.7c9.7-5.3,18.5-11.9,24.6-21.5c3.3-5.3,5.8-11.2,8.6-16.8c-0.2,4.8-0.5,9.8-0.8,15.8
	c0.1-0.1,0.1-0.2,0.2-0.2c1.3-1.7,2.4-3.5,3.2-5.5C587.8,532.9,592,513.5,590.8,493z M501.8,451.2c-0.8,0.6-2,0.3-2.4-0.7l-0.2-0.9
	c1.3,0.3,3.6-0.3,6.5-1.5L501.8,451.2z"/>
</svg>
