<?xml version="1.0" encoding="utf-8"?>
<!-- Generator: Adobe Illustrator 26.0.1, SVG Export Plug-In . SVG Version: 6.00 Build 0)  -->
<svg version="1.1" id="Слой_1" xmlns="http://www.w3.org/2000/svg" xmlns:xlink="http://www.w3.org/1999/xlink" x="0px" y="0px"
	 viewBox="0 0 1000 1000" style="enable-background:new 0 0 1000 1000;" xml:space="preserve">
<style type="text/css">
	.st0{stroke:#000000;stroke-miterlimit:10;}
</style>
<path class="st0" d="M608,508c-33.8-27-72.1-39.2-115.3-35.2c-4.6,0.4-9.2,1.2-13.8,1.8c-0.8,0.1-1.6-0.2-2.3-0.2
	c0.2-0.8,0.2-1.7,0.6-2.3c0.9-1.4,1.8-2.8,3.1-3.8c3.3-2.5,4.7-5.4,3.4-9.6c-0.4-1.2-0.1-2.6-0.1-3.9c0-0.6,0-1.2,0-1.8
	c-0.5,0.1-1,0.2-1.4,0.4c-1.2,0.6-2.4,1.2-3.5,1.9c-10,5.7-19.3,12.4-28,20c-1.5,1.3-3.2,2.5-5,3.2c-3,1.2-7.3-0.6-9.2-3.4
	c-2.3-3.3,0.6-4.8,2.3-6.6c18.7-19.6,41-33.2,67.3-40.3c2-0.5,8-2,10.3-2.3c-3.1,3.4-10.3,7.6-14,11.7c26.5-6.3,52-5.6,77.3,1.1
	c-16.4-11.2-34.3-15.8-55.2-12.6c6.1-6.2,12.3-10.2,18.9-13.9c-4.9,0-9.7,0.2-14.4,0.8c-20.2,2.7-39.2,8.8-57,18.9
	c-16.5,9.4-30.9,21.5-43,36.1c-2.3,2.8-3.7,5.7-1.6,9.1c1.3,2.2-0.1,3.3-1.1,4.8c-2.9,4.5-6.1,8.8-8.3,13.6
	c-6.2,13.7,0.7,26.7,16.2,30c-1.4-1.5-2.4-2.4-3.1-3.5c-2.3-3.2-2-6.7,0.8-9.4c14.8-14.3,36.5-18.8,54.6-11.4
	c23.3,9.5,46.4,29.9,42.5,59.8c-1.8,13.6-10.8,27.3-23.2,33.4c-37.6,18.5-138.8-32.4-104.6-131.9c15-43.6,54-63.9,100.3-65.1
	c43.6-1.1,80.1,24.7,95.8,52c-37.3-14.7-72.5-11.8-93.9-4.4c43.7-0.2,82,12.7,116.4,38.8c-8.1-58.2-58-102.9-118.4-102.9
	c-65.9,0-119.4,53.3-119.6,119.2c0,0.1,0,0.3,0,0.4c0,55.9,38.3,102.7,90,115.9c9.5,2.4,19.4,3.7,29.6,3.7c34,0,64.7-14.2,86.4-36.9
	c0.2-1.6,0.1-3.4-0.3-5.4c-4.9-26.6-17.8-48.2-39.2-64.6c-5.4-4.1-11.4-7.4-17.1-11.1c3.5,0.9,7,2,10.3,3.3
	c26.3,10.5,46.7,27.8,61,52.3c1.2,2.1,1.8,3,2.4,2.7c7.4-12.7,12.5-27,14.7-42.1c-0.1-0.1-0.3-0.3-0.4-0.4
	C615.4,514.7,611.9,511.1,608,508z M452.1,495c-7.9,2.3-15,6.2-21.3,11.5c-4.4,3.6-4.8,4.5-5.5,10.3c-4.4-3.8-6.3-8.1-4.7-13.7
	c2.4-8.4,7-15.4,12.8-21.7c1.1-1.2,1.8-1.6,3.2-0.3c2.5,2.3,5.6,2.7,8.8,2.5c1.4,0,2.9,0.5,4.1,1.1c4.9,2.4,9.6,5,14.2,7.4
	C460.1,492.9,456.1,493.8,452.1,495z"/>
</svg>
