<?xml version="1.0" encoding="utf-8"?>
<!-- Generator: Adobe Illustrator 26.0.1, SVG Export Plug-In . SVG Version: 6.00 Build 0)  -->
<svg version="1.1" id="Слой_1" xmlns="http://www.w3.org/2000/svg" xmlns:xlink="http://www.w3.org/1999/xlink" x="0px" y="0px"
	 viewBox="0 0 1000 1000" style="enable-background:new 0 0 1000 1000;" xml:space="preserve">
<path d="M999.4,599.8c-3-21.5-10-41.8-18.9-61.4c-14.2-31.3-23.2-64.1-29.6-97.7c-0.7-3.8-2.2-7.7-4.1-11.1
	c-12.1-22.9-15.2-47.4-12.9-72.7c0.7-7.5,3.8-14.8,4.8-22.3c3.8-28-1.9-54.4-13.3-80.2c-21.7-49.3-51.7-93-87.5-133
	c-11.4-12.8-23.3-25.2-35.9-36.9c-9.8-9-22.5-13.6-35.2-17.1c-13.1-3.7-26.5-7.5-39.9-8.5c-10.9-0.8-22.1,1.7-33,3.9
	c-19.7,3.9-37.8,12.3-56,20.6c-9.2,4.2-20.1,6.4-30.1-0.9c-13.7-10-27.5-20-41.7-29.3c-9.7-6.4-20.1-11.8-30.2-17.5
	c-2-1.1-4.3-1.8-6.6-2.1c-13.8-1.9-27.5-2.8-41.4,0.6c-13.3,3.2-24.5,10.3-36.1,16.5c-20.8,11.1-38.5,25.9-53.4,44.4
	c-5.6,7-13.6,12.4-24.1,9c-7-2.3-14.2-3.7-21-6.5c-14-5.8-28.8-7.9-43.7-9.6c-5.3-0.6-10.6-1.2-15.8-2.2c-19.1-3.9-36.2,1.3-51.8,12
	c-15.5,10.7-30.8,21.6-43.5,35.7c-7.5,8.3-16.3,12.6-28.2,11.8c-15.8-1-31.7-0.8-47.5-0.3c-29.9,1-56.5,9.7-75.9,34.2
	c-11,13.8-18.1,29.7-25.8,45.5c-11.4,23.2-9,46.1-1.2,69.3c1.8,5.2,1.4,10,0.2,15c-4.1,17.3-8.5,34.5-11.9,51.9
	c-3.1,16.3-5,32.8-7.5,49.2c-0.1,0.9-0.6,1.9-0.9,2.8v27c1.4,9.8,3.1,19.7,4,29.5C9,522,25.2,571,49.2,617.6c3,5.9,7.9,11,12.5,16
	c6.9,7.4,14.2,14.5,21.8,21.3c2.6,2.3,6.4,3.3,9.6,5c2.9,1.5,6.1,2.8,8.3,5.1c12.7,12.5,25.2,25.1,40.2,35.1
	c8.4,5.6,17.2,7.7,26.5,6.2c11.4-1.8,22.7-5.1,33.9-8.1c3.9-1,6.4-0.7,9.1,2.5c13.9,16.7,33,26.7,50.3,39c9.7,6.9,18.6,15,28,22.4
	c2.1,1.7,4.7,3.2,7.3,3.8c7.8,1.6,15.6,2.7,23.5,4c7.2,1.2,14.3,3.1,21.5,3.4c16.5,0.7,32.4-3.4,48.1-7.9
	c12.2-3.5,24.4-6.8,36.5-10.5c1.9-0.6,3.7-2.5,5-4.2c2.6-3.5,4.9-7.3,7.6-11.4c5.6,6,10.7,11.2,15.5,16.7c1,1.2,1.4,3.4,1.4,5.1
	c0,10.8-0.2,21.7-0.1,32.5c0,4.5,0.1,9,0.7,13.5c0.6,4.7-0.4,9-0.9,13.6c-0.6,6.3,0.5,13.5,3,19.3c3,6.9,7.6,13.3,12.7,18.9
	c7.9,8.8,16.6,16.8,25,25.2c9.4,9.5,20.8,15.5,33.7,18.4c3.5,0.8,7.8-0.3,11.4-1.6c3.4-1.2,6.4-1.8,10-0.6
	c26.5,8.9,52.8,18.5,79.7,26c19.4,5.5,37.3,13.1,54.1,24.3c18.9,12.6,40.1,19.5,63.1,19.1c13.7-0.2,26.8-3.2,39.1-9.2
	c9.4-4.6,18.4-10.1,27.6-15c8.2-4.4,13.1-12.1,19-18.9c5.1-5.9,10.8-11.3,16.1-17c1.1-1.2,2.2-2.5,3.1-3.9
	c21.6-33.7,43.1-67.3,64.6-101c1.2-1.9,1.3-4.6,2.1-6.9c1.2-3.2,1.7-7.4,4-9.3c10.5-8.8,16.8-20.7,23.4-32.1
	c14.1-24.7,27.7-49.7,40.7-75c7.4-14.3,10.8-30,12.4-46.1c0.1-1.1,0.6-2.2,0.9-3.3v-23C1000.5,605.9,999.9,602.9,999.4,599.8z
	 M454.2,694.3c-1.8-1.2-3.2-3.9-3.7-6.1c-4.5-19.6-8.9-39.3-13-59c-1.6-7.6-2.6-15.4-3.5-23.2c-0.3-2.8,0.3-5.8,0.6-10.2
	c3.1,2.1,5.1,3.1,6.7,4.5c1.5,1.3,2.6,3.1,4.2,4.3c1.2,0.9,2.9,1.2,4.3,1.8c0.3-1.7,1.1-3.5,0.7-5c-0.5-2.2-1.8-4.3-2.7-6.4
	c-3.5-8.8-7-17.6-10.4-26.4c-0.5-1.3-0.5-2.9,0.3-5.1c3.8,4.5,7.6,9,11.4,13.6c0.4-0.1,0.9-0.2,1.3-0.3c-0.4-3-0.1-6.1-1.2-8.8
	c-4-10.4-8.7-20.5-12.5-31c-2.9-7.9-4.8-16.2-7.1-24.3c-0.2-0.9,0-1.9,0.1-3.6c2.5,2.6,4.4,4.6,6.9,7.2c2.4-5.2,0.4-8.8-0.9-12.6
	c-6.2-18.6-13.1-36.9-18.2-55.8c-3.6-13.4-4.3-27.6-7-41.3c-3.3-16.8-7.4-33.5-11.1-50.2c-0.4-1.9-0.3-3.9-0.5-5.8
	c0.5-0.2,1-0.4,1.4-0.6c4,8.3,7.9,16.6,11.9,24.9c0.7-0.2,1.4-0.3,2-0.5c-0.3-3.1,0-6.3-1-9.2c-10-30.3-19.8-60.8-30.5-90.9
	c-3.8-10.7-10-20.7-15.7-30.6c-2.3-4-6.3-7.1-9.5-10.6c-0.7,0.1-1.3,0.2-2,0.3c-0.5,2.3-1.2,4.6-1.4,7c-0.2,2,0.5,4,0.3,5.9
	c-0.3,2.8-1.8,4.9-5,4.2c-4.9-1.2-5.8,1.7-7,5.5c-4.1,13.4-1.8,26.8,0.4,40c3.6,21.8,9.9,42.9,19.8,62.7c4.5,9,3.6,17.9,0.7,26.2
	c-3.8,10.7-5.4,21.1-2.6,31.8c5.3,20,5,40.6,6.7,61c2.9,34.9,4.4,69.9,8.4,104.6c2.8,23.9,8.5,47.5,13.7,71
	c1.3,5.9,5.5,11.2,8.6,16.6c4,7,8.5,13.8,12.4,20.9c2.1,3.8,0.2,6.3-3.3,8.5c-10.6,6.5-22.6,8.5-34.4,9.3
	c-20.9,1.4-41.3-1.6-61.3-8.7c-11.6-4.1-24.2-6-36.4-7.9c-11.2-1.7-18-14-12.5-24.2c1.4-2.6,3-2.3,5.3-1.9c3.4,0.6,6.8,1.3,10.2,1.9
	c1.3-1.5,1.5-2.4,0.8-3.6c-0.3-0.1-0.6-0.2-0.8-0.3c-0.5-0.2-1.1-0.4-1.6-0.6c-5-1.3-9.9-3.6-14.7-5.7c-1.6-0.7-2.9-2.7-3.8-4.4
	c-4.1-7.4-4.5-15.5-4.8-23.8c-0.1-2.6-0.2-5.7-1.6-7.6c-7.3-10.2-9.2-22.3-12.6-33.8c-3.1-10.4-5.4-20.9-11.3-30.3
	c-2.2-3.6-4-7.7-1.1-13.2c2.4,3.3,4.9,5.8,6.3,8.8c3.2,6.6,5.6,13.5,8.8,20.1c2.1,4.3,5,8.3,7.5,12.4c0.7-0.2,1.4-0.5,2.1-0.7
	c-0.2-2.6-0.5-5.3-0.4-7.9c0.1-3.7,0.6-7.5,0.8-11.2c0.1-2.1,0.4-4.3-0.2-6.2c-10.7-31.6-21.5-63.1-32.2-94.6
	c-0.6-1.7-1.1-4.2-0.4-5.6c6.6-12.6,6.1-25.7,3.7-39c-1.8-10-1.8-19.8,1.7-29.6c0.8-2.4,0.9-5.4,0.1-7.8c-2.5-7.5-5.2-15.1-8.5-22.3
	c-7.1-15.4-14.5-30.7-22.2-45.9c-6.2-12.1-14.4-22.8-24.5-32c-1-0.9-2.3-1.7-3.4-2.5c-0.5,0.3-1,0.5-1.5,0.8
	c2.9,8.9,5.7,17.8,8.6,26.7l-2.2,1c-1.3-2.2-2.6-4.5-4-6.6c-1.6-2.4-3.4-4.7-5.2-7c-2.3,2-5,3.7-6.8,6c-3.2,4.2-6.7,8.5-8.5,13.4
	c-1.5,4.1-1.7,9.1-0.8,13.4c5,24,14.9,46.3,25.8,68c4.9,9.9,6.1,19.2,3.6,29.7c-1.2,4.9-0.7,10.6,0.3,15.6
	c6,30.1,12.1,60.1,9.4,91.1c-1.8,20.2,1.6,40.2,3.8,60.3c1.4,13.2,2.1,26.6,2.6,39.9c0.1,2.4-1.5,5.4-3.4,7.1
	c-5.8,5.4-13.2,7.6-21,8.1c-15.2,1-29.7-3.3-44.3-6.4c-4.1-0.9-8.1-2.2-12.2-2.6c-8.2-0.7-14.4-5-18.4-11.4
	c-4.5-7.1-7.6-15.1-11.4-22.7c-0.2-0.4-0.4-1-0.3-1.4c0.8-10.3,1.6-20.5,2.5-30.8c0.1-1,0.3-2,0.7-2.9c1-1.8,2.3-3.5,3.4-5.3
	c1.6,1.2,3.3,2.4,4.9,3.7c1,0.8,2,1.6,3.6,3c0.8-2.7,1.3-4.7,2.1-6.6c0.8-1.8,2.1-3.4,2.8-5.3c0.6-1.5,1.3-3.4,0.8-4.7
	c-2.9-7.6-6.1-15.1-9.3-22.6c-3.4-8.1-7.1-16.1-6.4-27.1c5,4.4,9,8,13,11.5c0.4-0.2,0.8-0.4,1.2-0.5c-0.4-2.5-0.3-5.2-1.3-7.4
	c-3.1-7-6.3-14-10-20.6c-5-9-7.6-18.1-6.6-28.6c0.5-4.8-1.9-10.1-3.9-14.8c-8.7-20.7-18-41.2-26.6-62c-4.2-10-7.3-20.4-11-30.5
	c-1.4-3.9-0.2-6.7,2.6-9c4.2,6,8.3,11.8,12.3,17.6c1.5,2.2,3,2.7,5.8,1.8c2.7-0.9,6-0.2,10-0.2c-0.8-3-1.5-6.5-2.9-9.7
	c-2.5-5.6-5.7-11-8.1-16.6c-1.4-3.2-2-6.8-2.4-10.5c11.6,8.8,16,23.7,29.1,31.4c-0.6-2.2-0.9-4.6-1.8-6.7
	c-4.3-10.5-8.7-20.9-13.1-31.3c-2.9-7-2.9-10.1,1.1-15.4c3.4,4.8,6.6,9.4,9.8,13.9c0.4-0.1,0.8-0.3,1.3-0.4c0-2.5,0.7-5.2-0.1-7.5
	c-4.2-12.3-8.9-24.3-13-36.6c-1.4-4.2-1.4-8.8-1.9-13.2c-1.9-17.9-3.9-35.8-5.5-53.7c-0.2-2.9,1.1-6.6,3-9
	c8.8-11.3,18.1-22.2,27-33.4c2.7-3.4,5.8-3.9,9.6-2.3c7.9,3.4,16.1,6.3,23.9,10.1c6,3,12.1,4.5,18.8,4c3-0.2,6-0.2,9-0.1
	c6.7,0.1,8.6,1.7,7.5,8.4c-1.1,6.9-3.5,13.5-4.9,20.3c-1.6,7.7,2.2,13.3,9.9,15.2c0.9,0.2,1.9,0.3,4.1,0.6c-7.7,3.3-4.7,8-3,12.2
	c6.6,16.4,16.6,30.7,27.3,44.6c12.9,16.8,25.6,33.6,38.4,50.4c0.4,0.5,1,0.7,2.5,0.7c-0.9-2.9-1.4-6-2.7-8.7
	c-3.1-6.4-6.8-12.6-10-19c-3-5.9-5.7-11.9-5.7-18.7c0.5-0.3,1.1-0.7,1.6-1c12.3,15.4,24.5,30.9,36.8,46.3c2.4-5.8-0.9-9.2-3.3-12.8
	c-1.7-2.6-3.5-5.2-4.8-8c-5.4-11.3-10.8-22.5-15.8-34c-2.3-5.2-3.7-10.8-5-16.5c13.8,8.1,21.5,22.1,33.1,32.6
	c-0.2-1.1-0.2-2.4-0.7-3.4c-5-9.8-10.2-19.4-15.2-29.2c-4.2-8.3-8.2-16.7-12.5-24.9c-2.2-4.2-5.3-8.1-7.6-12.3
	c-2.8-5.1-5.5-10.3-7.7-15.6c-0.9-2.1-0.6-4.7-0.8-7.1c0.5-0.3,1-0.6,1.5-1c3.1,2.4,6.4,4.4,9.1,7.2c2.7,2.9,4.7,6.4,7,9.7
	c6.2,9,12.4,18,18.7,27c1,1.4,2.5,2.5,3.8,3.7c0.4-0.2,0.8-0.4,1.2-0.6c-0.8-2.5-1.3-5.2-2.6-7.6c-6.3-12.1-12.8-24.1-19.2-36.2
	c-1.4-2.6-2.5-5.4-3.8-8.1c-2.5-5.3-1.5-10.5-1.1-16.2c0.9-11,7.8-16.7,14.4-23.4c2.6-2.7,4.6-6.1,6.5-9.4c0.6-0.9,0.6-3.2,0-3.6
	c-1-0.7-2.8-0.8-4.1-0.4c-1.9,0.5-3.6,1.8-5.4,2.5c-3.6,1.2-5.6-0.3-4.3-3.8c1.5-3.8,3.7-7.4,6.3-10.6c5.1-6.1,10.6-11.9,16.1-17.8
	c7.5-7.9,15.6-13.1,27.7-10.8c36.2,7,69,21,96.7,45.8c4.1,3.6,7.7,7.5,7.3,13.5c-0.1,1.6-0.3,4-1.1,4.4c-1.3,0.6-3.5,0.1-5-0.6
	c-2.4-1.1-4.5-2.9-6.8-4.2c-5.7-3.5-9-2.2-8.5,4.4c0.5,7.5,1.3,15.7,4.7,22.1c11.3,21.3,27,39.6,42.8,57.6
	c15.3,17.4,31,34.4,46.5,51.6c0.5,0.6,1.1,1,2.8,0.9c-1.3-2.9-2.3-6.1-4-8.7c-12.2-18.1-20.1-38.7-33.5-56.1
	c-4.9-6.4-8.4-13.9-9.8-22c0.4-0.4,0.9-0.7,1.3-1.1c5.7,5.6,12,10.7,17.1,16.8c10.8,13.1,20.8,26.9,31.3,40.2
	c5.5,7,11.4,13.6,17.2,20.4l2.1-1c-1-3.5-1.4-7.2-3-10.3c-5-9.8-10.4-19.4-15.6-29c-2.7-4.9-6-9.7-5.1-16.7
	c13.6,6.1,20.2,19.8,32.3,26.7c0.6-0.3,1.2-0.5,1.8-0.8c-0.9-2.7-1.3-5.7-2.7-8.2C487,224,477,206.6,467.3,189
	c-1.9-3.4-2.9-7.3-3.6-11.5c11.6,3.5,14.8,16.7,26.2,22.7c-0.9-4.8-0.8-8.6-2.2-11.7c-4.3-9.3-9.2-18.5-13.9-27.6
	c-2.1-4-4.4-7.8-6.6-11.8c-2.4-4.3-4.1-8.4-1.2-13.5c2.1-3.8-1-5.6-4.3-6.8c-1.9-0.7-3.6-2-5.4-3c1.3-2,2.2-4.6,4-5.9
	c3.6-2.6,7.9-4.2,11.7-6.6c2.8-1.7,5.5-3.7,7.8-6.1c2.6-2.8,1.7-4.8-1.9-5.6c-0.3-0.1-0.7,0-1-0.1c-2.4-0.7-4.7-1.4-7.1-2.2
	c1.4-2.4,2.3-5.2,4.2-7c2.9-2.7,6.4-4.7,9.7-7c2.3-1.6,4.7-3.1,7-4.6c-0.1-0.6-0.1-1.3-0.2-1.9c-3.6-0.2-7.2-0.9-10.7-0.6
	c-4,0.3-7.8,1.5-11.8,2.1c-2.3,0.4-4.7,0.6-6.9,0.3c-5.6-0.6-7.1-3.5-3.2-7.4c5.1-5,10.4-10.5,16.7-13.2c27.9-12,55.3-10.4,81.1,6.2
	c13.3,8.5,25.6,18.9,39.5,26.1c16.5,8.5,28.7,22.1,43.3,32.8c1.2,0.9,2.5,3,2.3,4.4c-4.9,29,7.9,51.9,25.6,72.9
	c10.1,12,20.6,23.6,30.7,35.6c4.1,4.9,7.8,10.2,11.6,15.4c0.4-0.2,0.8-0.4,1.2-0.5c-1.3-3.2-2.3-6.6-3.9-9.6
	c-9.3-16.9-18.8-33.7-28.1-50.7c-2.9-5.3-5-11-7.5-16.5c0.6-0.5,1.3-1.1,1.9-1.6c3.3,2.2,7.2,3.9,9.7,6.7c8,8.9,15.5,18.3,23.1,27.5
	c5.5,6.6,10.9,13.1,16.4,19.7c0.7-0.4,1.3-0.8,2-1.2c-1.3-3.2-2.3-6.6-3.9-9.7c-6.1-11.7-12.4-23.2-18.5-34.8
	c-2.3-4.4-4.2-9-2.6-14.8c6.8,1.9,11.5,6.4,15.7,11.2c3.8,4.4,7.2,9.2,11,13.6c2,2.3,4.5,4.2,6.8,6.2c0.6-0.3,1.1-0.5,1.7-0.8
	c-0.8-2.8-1.2-5.9-2.4-8.5c-5.5-11.9-11.4-23.5-16.7-35.4c-2.1-4.7-3.2-9.8-4.6-14.7c-0.9-3.2,0.5-5.5,3.8-6.5
	c5.5-1.6,11.1-2.7,15-8.1c1.1-1.6,5.6-0.9,8.5-1c4.3-0.2,8.6-0.1,13.1-1c-5.1-9.4-16.6-5.8-22.9-12.6c2.7-4.5,6.8-5.8,11.4-6
	c4.7-0.2,9.3,0.1,14-0.1c2.8-0.2,5.6-1.1,8.5-1.7c0.1-0.7,0.2-1.4,0.3-2.2c-5.1-1.8-10.3-3.6-16.4-5.8c2-2.1,2.9-3.9,4.4-4.6
	c8.4-3.8,16.8-6.4,26.4-4.1c12,2.8,20.3,11.3,29.2,18.5c3.7,3,5.5,8.3,8.3,12.4c2.3,3.4,4.5,7,7.4,9.9
	c31.6,31.7,53.8,69.4,70.3,110.6c2.8,6.9,2.3,15.4,2.2,23.2c-0.2,23.9-2.2,47.5-8.7,70.7c-3.6,13-2.7,26.4-2,39.8
	c1.3,22.9,2.7,45.9,2.8,68.9c0.1,38.8-1,77.6-1.2,116.5c-0.1,25-3.5,49.7-6.6,74.4c-1.2,9.1-0.2,18.6,0,27.9c0,1.8,1.2,3.6,1.9,5.4
	c0.6,0.2,1.2,0.3,1.8,0.5c2.2-4.1,5.2-7.9,6.4-12.2c1.8-6,2.1-12.5,3.3-18.7c0.9-4.5,2.2-8.9,3.3-13.3c0.8,0,1.6-0.1,2.4-0.1
	c1.3,6.2,3.6,12.3,3.8,18.5c0.5,11.1,0.1,22.3-0.7,33.5c-0.3,4.3-2,9.2-4.7,12.4c-11.7,14-24.1,27.6-36.2,41.3
	c-6,6.8-14,9.1-22.5,9.1c-7.8,0-15.5-1.3-23.3-2c-16.9-1.6-33.8-3-50.7-4.7c-15.4-1.6-31-2.3-46.1-5.6c-10.6-2.3-20.4-8.1-23.3-20.6
	c-0.3-1.4-2.2-3.1-3.6-3.5c-7.2-1.8-8.7-6.2-9.1-13.4c-0.4-9.5-3.2-19-5.3-28.4c-0.9-4-1.6-7.3,2.6-10.1c1.1-0.8,1.6-3.6,1.3-5.3
	c-3.1-19.4-6.3-38.8-9.6-58.1c-0.4-2.5-1-5-1.5-7.5c0.4-0.1,0.9-0.3,1.3-0.4c3,7.5,6,15,8.9,22.5c0.7-0.2,1.4-0.3,2.1-0.5
	c0-3.2,0.6-6.5-0.1-9.5c-3.6-15.6-7.3-31.1-11.3-46.6c-3.3-13-7.3-25.9-10.2-39.1c-1.5-6.9-1.1-14.2-1.6-21.4
	c-1.3-19.4-2.7-38.8-3.7-58.2c-0.3-5.7,0.4-11.4,0.6-17.1c0.8-0.2,1.6-0.4,2.4-0.6c3.1,5.1,6.2,10.3,9.7,16.1
	c4.2-4.6,4.1-9.3,3.3-13.8c-1.7-8.8-3.5-17.7-6-26.3c-5.5-18.3-11.6-36.5-17.1-54.8c-2-6.5-3-13.3-4.5-20c0.8-0.3,1.6-0.6,2.4-0.9
	c1.8,2.8,4,5.4,5.3,8.4c8.3,18.7,16.3,37.6,24.5,56.3c1.2,2.8,2.7,5.6,4.1,8.3c0.6-0.1,1.1-0.2,1.7-0.4c-0.4-3.5-0.2-7.1-1.2-10.4
	c-9.2-31.1-15.8-63.1-29.5-92.6c-7.4-15.9-17.2-30.7-25.9-46c-1.2-2.1-2.6-4.2-3.9-6.3c-1,0.6-2,1.2-3,1.8c0.3,2.9,0.1,6,0.9,8.7
	c1.7,5.5,2.1,10.1-1.3,15.6c-5.4,8.8-2.4,18.4,0,27.6c2.1,8,4.3,16.1,6.2,24.1c1,4.2-0.3,7.6-4.7,9.2c-4.3,1.7-5.6,5.3-6.4,9.4
	c-1.6,7.5-3.4,14.9-5,22.3c-0.3,1.6,0.1,3.3,0.1,4.9c0.4,11.9,0.7,23.9,1.1,35.8c0.4,12,0.4,24,1.3,35.9c1.5,18.7,3.8,37.4,5.5,56.2
	c1.8,20.2,3.2,40.5,4.8,60.8c0.2,2.5,0.9,4.9,1,7.4c0.9,27.8,5.7,55.1,9,82.7c3.1,25.1,7.3,50.1,10.8,75.2c0.4,2.6-0.3,6.3-2,8.1
	c-4.8,5.1-10.3,9.4-15.5,14c-4.5,3.9-8.9,8.1-13.7,11.6c-3.2,2.3-7.2,5.1-10.8,5.2c-20.3,0.4-40.6,0.3-60.9,0
	c-24-0.4-45.1-8.3-62.2-25.5C468,706.6,461.9,699.6,454.2,694.3z M617.1,773.4c3,1.4,5.8,3.3,8.3,5.5c8.2,7.3,9.3,12.7,4.5,22.5
	c-5.8,12-11.6,23.9-17.7,35.8c-0.7,1.3-2.7,2.7-4.1,2.7c-5-0.1-10.2,0.1-14.8-1.5c-25.5-8.4-52.2-10.3-78.3-15.4
	c-2.9-0.6-5.9-0.8-8.9-1.3c-6.3-1-8.3-2.8-7.7-9.2c0.5-6.1,2.2-12.1,3.7-18c1.4-5.6,2.7-11.4,5.2-16.6c1.3-2.8,4.8-6.3,7.5-6.5
	c21.4-1.8,42.8-2.9,64.2-4.3C592.2,766.6,605.1,767.6,617.1,773.4z M475.6,793.6c-4.1-7.8-4.7-15.5-1.3-23.2c0.6-1.4,3.2-3.4,4.2-3
	c2.3,0.8,5.1,2.5,5.9,4.5C486.3,777,481.1,789.5,475.6,793.6z M584.1,876.4c-18.3-3.5-36.6-7-55-9.8c-7.8-1.2-15.9-0.3-23.9-0.9
	c-2.5-0.2-5.5-1.3-7.3-3c-4.5-4.2-6-10-5.1-16c0.8-5.1,2.5-10,3.7-15c0.9-3.6,3.2-4.9,6.7-4.4c5.9,0.9,11.9,1.4,17.7,3
	c11.9,3.2,23.6,6.9,36.7,10.7c-12.1,2.3-23-5.6-33.8-0.7c-0.1,0.6-0.3,1.1-0.4,1.7c1.3,0.9,2.5,2.2,3.9,2.6
	c17.4,5.1,34.8,10.3,53.3,9.1c1.7-0.1,3.4-0.1,5-0.5c1.6-0.4,3.2-1.3,4.7-1.9c-0.9-1.4-1.8-2.9-2.8-4.4c3-2.8,11.5-4.4,14.5-1.9
	c1.6,1.3,3.2,4.7,2.5,6.2c-3.5,7.5-7.5,14.7-11.7,21.9C590.9,876.5,587.8,877.1,584.1,876.4z M946.3,621.4
	c-2.4,11.6-4.5,23.3-7.9,34.5c-4.6,15.1-15,27-24.1,39.5c-12.6,17.4-25.9,34.3-37.7,52.2c-7.4,11.3-12.4,24.3-18.8,36.3
	c-5.6,10.6-11.9,20.8-17.7,31.3c-5.8,10.5-11.1,21.2-17,31.7c-3.5,6.2-7.8,12-11.6,18.1c-1.5,2.4-3.3,3.8-6.1,2.6
	c-3-1.2-3.9,0.2-4.9,2.9c-2.6,7-5.7,13.9-8.6,20.8c-0.5,1.2-1.2,2.4-2.2,3.3c-19.9,18.7-43.1,24.9-69.7,17.7
	c-7-1.9-13.9-4.4-22.5-7.1c3.4-4.2,5.4-8,8.5-10.2c5.8-4,12.5-6.9,18.6-10.6c4.6-2.7,8.8-5.9,13.2-8.9l-0.9-2.4
	c-2.4,0.2-4.9-0.1-7.2,0.7c-9,3-18,5.9-26.7,9.7c-5.2,2.3-10,6-14.6,9.5c-5.9,4.5-11.6,5-19,3c-14.8-3.9-30-6.1-45-9.3
	c-6.2-1.3-12.1-3.6-18.2-5.3c-4-1.1-5-3.3-3.3-7c5.5-12,10.6-24.1,16.4-35.8c6.4-12.9,12.5-25.6,15.8-39.8
	c1.5-6.7,5.1-12.9,11.3-17.2c7.1-4.9,6.4-10.6-1.6-14c-5-2.2-10.4-3.6-15.6-5.4c-1.3-0.4-2.5-1-3.7-1.6c-7-3.6-7.7-5.4-2.6-11.5
	c7.7-9.2,15.7-18,24.2-27.6c5.6,4.7,10.9,8.8,15.9,13.4c7.4,6.8,14.4,13.9,21.7,20.7c1.4,1.3,3.2,2.8,5,3
	c10.7,1.5,20.6,5.9,31.7,6.2c24.1,0.6,48.2,2.2,72.3,3.6c30.5,1.7,55.1-10.7,76.9-31.1c13.6-12.7,22.5-28.3,30-44.9
	c0.6-1.4,0.9-2.9,1.7-4.1c12.2-18.4,13-39.2,10.6-59.7c-2.5-21.1-7.6-41.9-11.8-62.8c-1.3-6.7-2-13.2-1.4-20.2
	c1.7-21.1,2.4-42.2,3.9-63.3c0.4-5.8,2.1-11.6,3.1-17.4c0.7,0,1.4,0,2.1,0c4.8,5,7,11.4,8.7,18c7.1,27.4,12.9,55,18,82.8
	c2.8,15.7,7,31.2,10.3,46.8C946.8,615.4,946.9,618.6,946.3,621.4z"/>
</svg>
