<?xml version="1.0" encoding="utf-8"?>
<!-- Generator: Adobe Illustrator 26.0.1, SVG Export Plug-In . SVG Version: 6.00 Build 0)  -->
<svg version="1.1" id="Слой_1" xmlns="http://www.w3.org/2000/svg" xmlns:xlink="http://www.w3.org/1999/xlink" x="0px" y="0px"
	 viewBox="0 0 1000 1000" style="enable-background:new 0 0 1000 1000;" xml:space="preserve">
<path d="M547.6,375.3c11.3,0.4,22.3,1.9,33.2,4.8c1.6,0.4,3.2,1,4.7,1.6c0.4,0.2,0.8,0.5,1.2,0.8c-0.5,0.2-1,0.6-1.5,0.6
	c-7,0.4-14,0.5-20.9,1.1c-8.3,0.8-16.5,2.3-24.1,6c-2.6,1.3-5.2,3.1-7.2,5.2c-4.1,4.4-2.7,11.3,2.8,13.8c2.1,0.9,4.5,1.4,6.7,1.4
	c6.1-0.1,9.5-3.9,9-10c-0.2-2.5,0.5-2.9,2.6-2.5c16.4,2.8,30.7,9.7,41.9,22.4c0.5,0.5,0.7,1.3,1,2c-0.7-0.3-1.5-0.4-2.2-0.8
	c-2.5-1.6-5-3.3-7.5-4.9c-4.1-2.5-8.7-3.3-13.5-2.7c-2.9,0.4-5.4,1.5-7.1,4.1c-2.2,3.4-2.1,7.7,0.2,10.2c2.3,2.4,6.8,3.3,9.6,1
	c4-3.4,7.1-1.8,10.7,0.2c12,6.5,21.7,15.3,28.9,26.9c0.9,1.4,1.7,2.9,2.4,4.4c0.2,0.4,0.2,0.9,0.2,1.4c-0.5-0.2-1-0.3-1.5-0.6
	c-3.4-2.4-6.6-5-10.2-7c-2.4-1.3-5.3-2-8.1-2.3c-3.5-0.4-6.6,0.9-8.3,4.3c-1.4,2.7-0.9,5.7,1.1,7.9c2.3,2.5,6.6,3.9,9.6,1.9
	c3.1-2.1,4.4-0.5,6.2,1.4c11.2,11.6,17.3,25.5,18.1,41.6c0,0.5-0.3,1.1-0.4,1.6c-0.4-0.5-0.9-1-1.1-1.5c-1.9-4.6-3.5-9.4-5.7-13.8
	c-2-4-5-7-9.6-8c-3.3-0.7-6.4-0.2-8.7,2.3c-2,2.2-1.9,4.9-0.7,7.5c1.5,3.1,4.1,5.1,7.6,4.5c3.4-0.5,4.7,1,5.7,3.9
	c5.3,15.1,7.2,30.4,3.7,46.2c-0.1,0.6-0.5,1.2-0.7,1.7c-0.2-0.6-0.5-1.1-0.5-1.7c-0.3-4.5-0.4-9-0.9-13.4c-0.3-2.3-1-4.6-2.1-6.6
	c-1.6-3.1-5.1-4.4-8.6-3.7c-2.9,0.5-4.8,2.3-5.4,5.2c-0.8,3.5,0.5,6.4,3.9,8.4c1.7,1,3,1.7,2.8,4.1c-0.8,13.2-3.7,25.7-11.6,36.6
	c-1.3,1.8-3.1,3.3-4.7,4.9c0.7-2.1,1.2-4.3,2-6.4c0.8-2.3,2.2-4.5,2.7-6.9c0.5-2.4,0.7-5,0.4-7.4c-0.5-4-2.7-6.1-5.9-6.4
	c-3.5-0.3-8.1,2.5-9.2,5.7c-0.9,2.8,0.2,5,2.5,6.4c2,1.2,2,2.6,1.3,4.6c-5.5,16.7-16.6,28.1-32.5,35.2c-0.6,0.2-1.2,0.3-1.8,0.4
	c0.4-0.6,0.6-1.4,1.2-1.8c2.4-2.3,5.1-4.3,7.4-6.7c3.8-3.8,5.1-8.5,4.5-13.7c-0.3-2.6-1.6-4.5-4.1-5.1c-3.6-1-7-0.2-9.6,2.6
	c-1.8,1.9-2.3,4.3-0.9,6.4c1.7,2.5,0.8,4.2-0.7,6.2c-8.7,11.5-20.5,17.7-34.2,21c-0.5,0.1-1.1-0.1-1.7-0.2c0.5-0.4,0.9-0.9,1.5-1.2
	c2.4-1.5,5-2.7,7.3-4.3c3.2-2.3,4.9-5.4,4.4-9.5c-0.5-3.9-3-6.1-7.1-6.2c-4.4-0.1-8,2.1-7.8,5.9c0.3,4.5-2.5,5.8-5.5,7.2
	c-10.5,4.8-21.7,6.2-33.2,5.5c-3-0.2-6-0.6-8.9-1.1c-0.9-0.1-1.7-0.8-2.5-1.2c0.8-0.1,1.6-0.2,2.4-0.4c4.1-0.7,8.2-1.1,12.2-2.1
	c2.6-0.7,4.1-2.9,4-5.7c-0.1-2.6-1.1-4.9-3.7-6.1c-3.1-1.4-6.5-1.2-8.3,1.3c-2.7,3.7-5.8,3.3-9.6,2.9c-11.1-1.1-21.5-4.3-31.1-10.1
	c-1.1-0.7-2.3-1.4-3.3-2.2c-0.5-0.4-0.8-1.2-1.2-1.8c0.6-0.1,1.3-0.2,1.9-0.1c2.3,0.3,4.6,0.7,6.9,1c0.5,0.1,1.1-0.3,1.7-0.5
	c-0.4-0.5-0.8-1-1.2-1.4c-5.6-4.4-11.5-8.5-16.8-13.3c-6.6-6-11.2-13.6-15-21.7c-0.5-1.1-0.5-2.4-0.7-3.6c0.8,0.8,1.8,1.4,2.5,2.3
	c1.5,1.8,2.8,3.7,4.3,5.5c11.7,13.8,26.7,21.1,44.6,22.8c2.2,0.2,4.3,0.4,6.5,0.6c0.4,0,0.7,0.5,1.1,0.8c-0.3,0.3-0.6,0.9-1,1
	c-1.7,0.5-3.6,0.8-5.3,1.4c-2.5,0.9-2.7,2.3-0.7,4c1.1,0.9,2.5,1.7,3.9,2c2.1,0.5,4.3,0.9,6.4,0.9c12.6,0.3,25-0.8,36.9-5.2
	c0.8-0.3,1.5-0.7,2.4-0.8c0.6-0.1,1.2,0.1,1.8,0.2c-0.1,0.6,0.1,1.5-0.3,1.8c-1.4,1.4-2.8,2.8-4.3,4c-1.5,1.2-3.3,2.2-4.8,3.5
	c-1.6,1.4-1.7,3.3-0.7,5c1,1.8,2.8,1.7,4.4,1.2c1.6-0.5,3.2-1.2,4.5-2.1c7.9-5.2,16-10.3,23.7-15.8c6.4-4.6,11.9-10.2,15.5-17.3
	c0.3-0.6,1.1-1,1.6-1.5c0.2,0.7,0.7,1.5,0.6,2.2c-0.3,2-0.7,3.9-1.3,5.8c-0.4,1.4-1.4,2.8-1.5,4.2c-0.1,1.7-0.1,3.9,0.9,4.9
	c1.7,1.7,4.2,1.2,5.9-0.4c2-1.7,3.9-3.7,5.3-5.9c7.2-10.8,12.1-22.5,13.5-35.6c0.2-1.9,0.8-3.8,1.3-5.8c0.7,1.9,1.6,3.8,2.1,5.8
	c0.5,2.3,0.4,4.6,0.7,7c0.1,1.1,0.3,2.3,0.7,3.4c1.5,3.6,4.8,4.1,6.8,0.8c1.3-2.2,2-5,2.2-7.5c0.8-11.1-3.1-20.9-8.9-30.1
	c-1.2-1.8-2.6-3.5-3.8-5.3c-0.4-0.5-0.5-1.2-0.8-1.8c0.8,0,1.6-0.2,2.3,0.1c2.6,1.2,5,2.6,7.6,3.8c1.8,0.8,3.8,1.7,5.5-0.2
	c1.6-1.8,1.4-4,0.4-6.1c-2.2-4.5-5.7-7.8-10.2-9.9c-4.4-2-8.9-3.7-13.4-5.3c-6.3-2.2-11.3-5.8-15.8-10.9c-8-9.1-18.5-13.4-30.6-13.2
	c-1,0-2,0.1-3,0.4c-4.4,1.1-4.9,2.5-2.6,6.2c5.9,9.4,5.8,11-3.1,18.1c-5.8,4.7-10.5,10.3-13.6,17c-1.8,3.9-3.1,8.1-3.7,12.3
	c-1.4,8.8-4,12.5-12.8,14.4c-5.1,1.1-10.6,1.1-15.8,1.4c-0.6,0-1.2-0.4-1.8-0.6c0.5-0.6,0.8-1.3,1.4-1.7c1.4-0.9,3-1.5,4.3-2.5
	c1.6-1.1,3.3-2.3,4.6-3.8c0.8-0.9,1.1-2.3,1.7-3.4c-1.2-0.1-2.4-0.3-3.6-0.5c-0.6-0.1-1.1-0.3-1.7-0.5c0.4-0.5,0.6-1.1,1.1-1.5
	c1.9-1.6,3.9-3.1,5.8-4.8c1.7-1.6,3.3-3.3,4.7-5.1c0.9-1.1,1.2-2.6,1.8-4c-1.4,0-2.8,0.1-4.2,0.1c-0.6,0-1.2-0.3-1.8-0.4
	c0.2-0.6,0.3-1.3,0.7-1.8c1.5-2,3.2-3.9,4.6-5.9c1.4-1.9,2.7-3.8,3.8-5.9c0.6-1,0.7-2.4,1-3.5c-1.1,0.1-2.2,0.1-3.4,0.2
	c-0.6,0-1.3,0.1-1.9,0.1c0.2-0.5,0.3-1.2,0.7-1.6c3-3.3,3.8-7.4,4.3-11.5c0.6-5,0.8-10,1.2-14.9c0.1-1.6,0.1-2.7-2.1-1.9
	c-8.3,3.1-14.5,8.6-19.5,15.8c-0.2,0.4-0.4,1.2-0.3,1.3c0.5,0.4,1.1,0.7,1.7,0.7c0.8-0.1,1.6-0.5,2.4-0.7c0.9-0.1,1.8-0.1,2.7-0.1
	c-0.4,0.9-0.7,1.9-1.4,2.5c-2.2,2.2-4.6,4.3-6.9,6.4c-1.4,1.2-2.8,2.3-4.2,3.5c-0.3,0.3-0.5,0.8-0.8,1.2c0.5,0.1,0.9,0.3,1.4,0.2
	c1.4-0.1,2.8-0.3,4.2-0.4c-0.9,1.3-1.6,2.9-2.7,3.9c-3.1,2.5-6.5,4.7-9.7,7c-0.4,0.3-0.6,1-0.9,1.5c0.5,0.1,1,0.3,1.5,0.2
	c1.6-0.3,3.2-0.7,4.9-1c0.4-0.1,0.9,0.1,1.4,0.2c-0.1,0.5-0.2,1-0.5,1.3c-2.6,2.6-5,5.3-7.9,7.5c-8.3,6.3-18.2,9.7-27.7,13.6
	c-8.6,3.6-17.1,7.4-25.6,11.1c-2.4,1-4.9,2.1-7.5,2.6c-4.2,0.8-5.2,0-5.2-4.3c0.1-9.1-0.1-18.4,1-27.4c3-24.3,11.6-46.4,26.6-65.9
	c9.6-12.5,20.7-23.5,34.7-31.2c9.3-5.1,19.2-8.5,29.8-9.2c3.3-0.2,6.3-1.3,8.6-3.5c13.4-12.1,29.9-17.1,47-20.4
	C530.9,376.6,539.3,376.2,547.6,375.3z M413.4,472.5c0.5-0.2,0.7-0.2,0.8-0.3c4.6-3.7,9.8-6.9,12-12.8c0.5-1.2,0.2-2.9-0.1-4.2
	c-0.3-1.3-1.3-2-2.5-0.8c-4.7,4.7-8.6,10-10.4,16.6C413.1,471.3,413.4,471.9,413.4,472.5z"/>
</svg>
