<?xml version="1.0" encoding="utf-8"?>
<!-- Generator: Adobe Illustrator 26.0.1, SVG Export Plug-In . SVG Version: 6.00 Build 0)  -->
<svg version="1.1" id="Слой_1" xmlns="http://www.w3.org/2000/svg" xmlns:xlink="http://www.w3.org/1999/xlink" x="0px" y="0px"
	 viewBox="0 0 1000 1000" style="enable-background:new 0 0 1000 1000;" xml:space="preserve">
<g>
	<path d="M979.9,411.7c-3.2-5.5-6.2-11-9.5-16.5c-3.4-5.7-7-11.2-10.5-16.9c-17.8-29.1-36.9-57.1-59.1-83
		c-13.8-16.1-29-30.5-47.5-41.2c-0.6-0.3-1.1-1-1.7-1c-2.3-0.1-4.4-3.7-6.7-1.1c-2.1,2.5-0.6,5.3,0.5,8c5.3,12.3,8.6,25.2,11.8,38.2
		c3,12.4,5.1,25,7.2,37.6c0.7,3.9,0.5,8,1,11.9c3.2,23.3,2,46.6-0.8,69.7c-2.4,20.1-7.8,39.5-14.3,58.8c-10,29.5-26,55.6-45.1,79.7
		c-18.1,22.9-39.6,42.5-63.4,59.6c-9,6.5-17.8,13.2-28.5,18.5c3.1-10.8,6.6-20.8,8.3-31.3c3.4-21.6,1.4-42.2-8-62.2
		c-10.4-22.2-28.2-35.2-50.8-42.1c-13.6-4.1-27.8-4.6-42-4.1c-12.8,0.4-25.5,2.1-37.8,5.9c-35.6,11.1-66.8,28.3-85.6,62.7
		c-8.2,15-15.8,30.3-20,47c-2.8,11.1-5.8,22.3-6.3,33.7c-0.9,20.1-1.5,40.3,3,60.2c7.1,31.5,22.1,58.5,44.7,81.7
		c18.4,18.8,39.8,33.2,63.9,43.2c18,7.5,36.9,12.4,56.5,14.9c17.5,2.2,35,2.6,52.3,1c16.4-1.5,32.8-4.6,48.9-9
		c19-5.2,37.7-11.3,55.7-19.1c25.4-11,49.7-24.1,73.2-38.8c17.4-10.8,33.7-23.1,50.8-34.2c1.1-0.7,2.2-1.4,3.7-1.4
		c-51.5,90-124.4,157.4-218.6,199.9c-121.9,55-246.7,58.6-372.4,12.1c13.8,0.5,27.6,0.8,41.4-0.1c23.8-1.5,47.6-0.8,71.3-3.6
		c14.2-1.7,28.4-3.3,42.1-6.6c16.8-4,33.7-8.6,48.7-18c1.8-1.2,2.8-2.2,2.6-4.3c-0.2-1.9-1.6-2.3-3.2-2.5c-12.6-1-24.6-5-36.5-8.6
		c-13.8-4.2-27.4-8.8-40.6-14.6c-19.6-8.5-37.8-19.2-55.3-31.2c-35.3-24.3-63.9-55-84.7-92.5c-11-19.8-19.6-40.8-25.4-62.9
		c-4.9-18.5-8.4-37.1-10.7-56c-1.5-12.1-1.9-24.1-1.7-36.3c0-1.8-0.4-3.7,2.1-5.3c3.7,4.3,7,8.9,11.1,13c14,14.2,30.1,25.1,49.2,31
		c24.9,7.7,48.7,5,70.3-10.3c23.1-16.3,36.9-39.2,46.2-65.5c6.7-19,10-38.5,10.3-58.5c0.3-23.6-7.5-45.1-19.2-65
		c-18.5-31.4-44-56-75.8-73.8c-25.4-14.2-52.6-22-81.6-22.1c-14.9,0-29.6,2.4-44.2,6.2c-18.5,4.9-35.9,11.7-52.2,21.5
		c-25.5,15.4-46.8,35.2-63.9,59.8c-15.6,22.4-26.9,46.6-35.6,72.3c-8.1,23.9-12.6,48.3-15.8,73.2c-3.7,28.3-5.6,56.7-3.9,85.1
		c1.1,17.6,0.4,35.3,3.4,52.8c0.3,1.6,0,3.3,0,6.6c-45.7-82.5-66.6-169.6-61.1-261.7C28.4,335,88,218.6,196.2,126.2
		c-0.4,4.8-2.6,7.7-4.5,10.8c-14.7,25.2-29.8,50.2-42.2,76.7c-8.5,18.2-16.1,36.8-21.9,56c-4.1,13.9-7.1,28.3-6.5,43.1
		c0.1,2.5-0.6,5.4,2.3,7.3c3.3-1.5,5.5-4.2,7.7-6.8c19.6-22.7,42.4-41.7,67.1-58.5c15.2-10.3,31.2-19.5,48.1-26.8
		c13-5.6,26.5-10.4,40.2-14c25.4-6.7,51.1-9.7,77.3-9c9.8,0.3,19.8-0.2,29.4,1.3c12.9,1.9,25.7,5,38.4,8.2
		c15.1,3.8,29.8,8.8,44.1,15.2c15.3,6.8,30.3,14.1,45.1,22.1c0.8,0.4,1.3,1.4,2.4,2.8c-10.6,0.6-20.2,2.9-29.6,5.9
		c-29.6,9.3-52.9,26.3-64.4,56.1c-6,15.7-5.6,32.3-1.7,48.6c8.2,33.7,28.4,59.4,54.4,81.1c13.4,11.1,28.1,20.4,44.7,25.2
		c21.5,6.2,43.6,8,66.1,4.5c7-1.1,13.9-3,21-3.7c6.9-0.7,13.3-3.8,19.9-5.9c13.6-4.2,26.6-10.2,38.8-17.7
		c26.7-16.5,48.5-37.7,62.9-65.7c6.3-12.3,10.1-25.7,14.4-39c7.6-23.7,5.6-47.8,4.9-71.8c-0.4-14.6-4.9-28.9-9.6-43
		c-7-21.1-17.2-40.4-29.4-58.8c-17.9-26.9-40.2-49.9-65.1-70.4c-24.3-20-50.3-37.6-77.9-52.7c-17-9.3-34.5-17.7-51.7-26.5
		c-2-1-4-2.1-5.8-3.8c114.2,2.8,215.4,40.5,302.4,114.6C904.5,205.6,958.6,299.2,979.9,411.7z"/>
</g>
</svg>
