<?xml version="1.0" encoding="utf-8"?>
<!-- Generator: Adobe Illustrator 26.0.1, SVG Export Plug-In . SVG Version: 6.00 Build 0)  -->
<svg version="1.1" id="Слой_1" xmlns="http://www.w3.org/2000/svg" xmlns:xlink="http://www.w3.org/1999/xlink" x="0px" y="0px"
	 viewBox="0 0 1000 1000" style="enable-background:new 0 0 1000 1000;" xml:space="preserve">
<path d="M778,778c-184.7,0-369.3,0-554,0c0-184.7,0-369.3,0-554c184.7,0,369.3,0,554,0C778,408.7,778,593.3,778,778z M500.7,469.3
	c-10.1,8.9-20.2,17.3-29.8,26.3c-23.7,22.3-45.6,46.2-63.2,73.8c-6.3,9.8-11.9,20-14.2,31.7c-1.7,8.9,0.4,16,8,22
	c27.4,21.5,58.2,33.8,93.2,35.1c40.4,1.5,76-10.8,107.2-36.2c5.8-4.7,8.6-10.7,6.9-17.6c-1.9-8.2-4.4-16.5-8.2-23.9
	c-11.2-22-27.1-40.6-43.7-58.7C539.9,503,521.6,485.6,500.7,469.3z M458,430.7c-6.3-8.1-28.3-27-39.9-33.7c-5.7-3.3-11.9-5.9-18-8.3
	c-4.7-1.8-8.7-0.6-12.5,3.4c-52.6,54.6-58.6,140.5-13.8,201.4c0.8,1,1.7,1.9,2.6,2.9c-1.5-9.5-0.9-18.4,1.5-27.1
	c2.1-7.5,4.3-15,7.3-22.2c12.1-29.6,29.2-56.4,47.6-82.4C440.8,453.1,449.5,442,458,430.7z M625.2,596.7c1.1-0.8,1.5-1,1.8-1.3
	c0.7-0.9,1.4-1.8,2.1-2.8c18-25.6,28-53.8,29.1-85.2c1.5-43.4-12.7-80.9-41.5-113.3c-5.6-6.3-11.2-7.3-18.5-4.4
	c-21.7,8.8-37.7,25-54.4,40.8c1.2,1.4,2,2.5,2.8,3.5c26.3,32.9,50.1,67.4,67.5,105.8C622.1,557.6,629.3,575.7,625.2,596.7z
	 M582.7,367.3c-29.1-18.6-61-25.6-95.1-23c-24.7,1.9-47.5,9.7-68.4,23.1c30.6-3.5,56.2,10.3,81.8,22.9
	C527,377.2,552.5,364.2,582.7,367.3z"/>
</svg>
