<svg xmlns="http://www.w3.org/2000/svg" xmlns:xlink="http://www.w3.org/1999/xlink" viewBox="0 0 81 81" fill="#fff" fill-rule="evenodd" stroke="#000" stroke-linecap="round" stroke-linejoin="round"><use xlink:href="#A" x=".5" y=".5"/><symbol id="A" overflow="visible"><g stroke="none"><path d="M6.667 0Q0 0 0 6.667v66.667Q0 80 6.667 80h66.667Q80 80 80 73.333V6.667Q80 0 73.333 0z" fill="#0064dc"/><path d="M46.665 15.14v15.066s-3.905-5.398-11.663-4.219c-3.346.509-6.705 1.902-9.287 4.099-2.01 1.711-3.777 3.77-4.852 6.191-.641 1.443-1.144 3.109-1.338 4.678-.781 6.309 1.584 13.521 6.961 17.27 1.532 1.068 3.482 2.185 5.29 2.702 3.48.996 7.277.944 10.656-.393.919-.363 1.782-.857 2.586-1.428.339-.241 2.055-1.311 2.055-1.718l-.013 3.97 10.086-.02V12.919L46.665 15.14zm-8.257 37.263c-4.853 0-8.787-3.906-8.787-8.725s3.934-8.725 8.787-8.725 8.786 3.906 8.786 8.725-3.934 8.725-8.786 8.725z"/><path d="M1.834 2.684l76.777 75.651a4.4 4.4 0 0 0 1.39-3.22V4.388C80 1.964 78.06 0 75.668 0H5.828C4.032 0 2.491 1.107 1.834 2.684z" fill-opacity=".19"/></g></symbol></svg>