<svg xmlns="http://www.w3.org/2000/svg" xmlns:xlink="http://www.w3.org/1999/xlink" viewBox="0 0 81 81" fill="#fff" fill-rule="evenodd" stroke="#000" stroke-linecap="round" stroke-linejoin="round"><use xlink:href="#A" x=".5" y=".5"/><symbol id="A" overflow="visible"><path d="M6.667 0Q0 0 0 6.667v66.667Q0 80 6.667 80h66.667Q80 80 80 73.333V6.667Q80 0 73.333 0z" fill="#e84c88" stroke="none"/><path d="M40.748 18.14c-11.801 0-21.368 9.529-21.368 21.283s9.567 21.283 21.368 21.283 21.368-9.529 21.368-21.283S52.55 18.14 40.748 18.14zm4.475 22.199c2.049 5.05 3.914 11.018 5.168 17.883-1.254-6.864-3.119-12.833-5.168-17.883C31.979 43.257 26.75 54.572 26.75 54.572s5.229-11.315 18.473-14.232a84.2 84.2 0 0 0-2.788-6.156c-5.261 1.787-12.475 3.085-22.285 2.966 9.81.118 17.023-1.179 22.285-2.966-4.729-9.407-9.434-14.233-9.434-14.233s4.706 4.826 9.434 14.233C53.039 30.582 55.71 24.99 55.71 24.99s-2.671 5.591-13.275 9.193a84.2 84.2 0 0 1 2.788 6.156c4.551-1.003 10.047-1.014 16.603.766-6.556-1.78-12.052-1.768-16.603-.766z" fill="none" stroke="#fff" stroke-miterlimit="10" stroke-width="3"/><path d="M1.834 2.673L78.611 78.03c.855-.798 1.39-1.94 1.39-3.208V4.371C80 1.956 78.06 0 75.668 0H5.828C4.032 0 2.491 1.102 1.834 2.673z" fill-opacity=".19" stroke="none"/></symbol></svg>