<svg xmlns="http://www.w3.org/2000/svg" xmlns:xlink="http://www.w3.org/1999/xlink" viewBox="0 0 81 81" fill="#fff" fill-rule="evenodd" stroke="#000" stroke-linecap="round" stroke-linejoin="round"><use xlink:href="#A" x=".5" y=".5"/><symbol id="A" overflow="visible"><g stroke="none"><path d="M75.585 80C78.023 80 80 78.023 80 75.584V4.415C80 1.976 78.023 0 75.585 0H4.415C1.976 0 0 1.976 0 4.415v71.169C0 78.023 1.976 80 4.415 80h71.17z" fill="#6599cd"/><path d="M46.801 39.418L39.5 45.441l-7.301-6.023-5.948 4.907L13 55.255h26.5H66l-13.25-10.93zM29 38.429l-8.5-8.413-8.5-8.413V38.43v16.826l8.5-8.414zm10 4.948l13.5-11.383L66 20.612H39 12l13.5 11.383z"/><path d="M57.5 30.015L49 38.429l8.5 8.413 8.5 8.413V38.429 21.602z"/><path d="M0 2.673L78.578 78.02A4.33 4.33 0 0 0 80 74.813V4.37C80 1.956 78.015 0 75.566 0H4.088C2.249 0 .672 1.102 0 2.673z" fill-opacity=".19"/></g></symbol></svg>