<svg xmlns="http://www.w3.org/2000/svg" xmlns:xlink="http://www.w3.org/1999/xlink" viewBox="0 0 81 82" fill="#fff" fill-rule="evenodd" stroke="#000" stroke-linecap="round" stroke-linejoin="round"><use xlink:href="#A" x=".5" y=".5"/><symbol id="A" overflow="visible"><g stroke="none"><path d="M6.667 0Q0 0 0 6.667v66.667Q0 80 6.667 80h66.667Q80 80 80 73.333V6.667Q80 0 73.333 0z" fill="#838383"/><use xlink:href="#C" fill="#3a58a7"/><use xlink:href="#C" x="23" fill="#ff0084"/><path d="M.345 2.69l78.239 75.816A4.38 4.38 0 0 0 80 75.279V4.398C80 1.968 78.023 0 75.585 0H4.415C2.584 0 1.014 1.109.345 2.69z" fill-opacity=".19"/></g></symbol><defs ><path id="C" d="M19.5 39.166c0-5.242 4.237-9.462 9.5-9.462s9.5 4.22 9.5 9.462-4.237 9.462-9.5 9.462-9.5-4.22-9.5-9.462z"/></defs></svg>