<svg xmlns="http://www.w3.org/2000/svg" xmlns:xlink="http://www.w3.org/1999/xlink" viewBox="0 0 81 81" fill="#fff" fill-rule="evenodd" stroke="#000" stroke-linecap="round" stroke-linejoin="round"><use xlink:href="#A" x=".5" y=".5"/><symbol id="A" overflow="visible"><g stroke="none"><path d="M6.667 0Q0 0 0 6.667v66.667Q0 80 6.667 80h66.667Q80 80 80 73.333V6.667Q80 0 73.333 0z" fill="#0090ff"/><path d="M27.5 42.883l10.821-10.888 5.431 4.927 9.748-4.927-10.863 10.888-5.407-4.927z" fill="#fcfcfc"/></g><path d="M41 17.148c-11.322 0-20.5 8.598-20.5 19.204 0 5.029 2.064 9.605 5.441 13.028l-.772 7.359 6.855-3.119A21.56 21.56 0 0 0 41 55.556c11.322 0 20.5-8.598 20.5-19.204S52.322 17.148 41 17.148z" stroke-miterlimit="10" fill="none" stroke="#fff" stroke-width="4"/><path d="M.345 2.673L78.584 78.02A4.34 4.34 0 0 0 80 74.813V4.37C80 1.956 78.023 0 75.585 0H4.415C2.584 0 1.014 1.102.345 2.673z" fill-opacity=".19" stroke="none"/></symbol></svg>