<svg xmlns="http://www.w3.org/2000/svg" xmlns:xlink="http://www.w3.org/1999/xlink" viewBox="0 0 81 81" fill="#fff" fill-rule="evenodd" stroke="#000" stroke-linecap="round" stroke-linejoin="round"><use xlink:href="#A" x=".5" y=".5"/><symbol id="A" overflow="visible"><g stroke="none"><path d="M6.667 0Q0 0 0 6.667v66.667Q0 80 6.667 80h66.667Q80 80 80 73.333V6.667Q80 0 73.333 0z" fill="#cc2124"/><path d="M58.267 24.995c-.638-2.099-1.814-4.008-3.292-5.62-1.59-1.732-3.375-2.728-5.451-3.766 0 0-6.05-3.025-14.246-.781-2.592.71-4.911 2.169-7.033 3.781-2.204 1.674-3.791 3.79-4.879 6.332a21.98 21.98 0 0 0-.777 2.117c-.227.731-.393 1.483-.473 2.245-.23 2.188-.143 4.387.462 6.506.521 1.823 1.233 3.578 2.427 5.075.665.832 1.62 1.545 2.637 1.893l.109.036c.304.121.597.218.928-.047a.55.55 0 0 0 .079-.094 1.21 1.21 0 0 0 .137-.311c.009-.041.017-.08.025-.11.117-.429.191-.868.287-1.302l.345-1.678c.006-.029.089-.315.066-.338 0 0-3.968-3.936-1.431-11.092 0 0 1.691-4.944 5.92-7.286 1.843-1.021 3.798-1.755 5.937-1.768 1.696-.01 3.4.237 5.018.74 1.603.499 3.141 1.339 4.378 2.48.413.381.782.807 1.109 1.264a10.24 10.24 0 0 1 .861 1.447c.416.971.697 2.002.87 3.017.111.642.2 1.378.238 2.197.077 1.639-.046 3.612-.588 5.846 0 0-1.106 4.619-3.448 6.961-1.836 1.836-4.763 3.283-7.195 1.58-.503-.352-1.129-.943-1.401-1.503-.557-1.148-.678-2.115-.491-3.367.136-.907.31-1.819.677-2.665 1.024-2.359 1.991-4.812 1.953-7.428-.011-.721-.151-1.467-.434-2.134a4.03 4.03 0 0 0-1.131-1.568c-.394-.332-.848-.547-1.346-.675 0 0-1.887-.781-3.643.846 0 0-4.489 4.489-1.821 11.125l-3.838 17.11c-.509 2.267-.375 4.507-.152 6.801.06.617.198 1.735.228 1.952.06.425.156 1.615.753 1.03.259-.253 3.903-5.831 4.635-8.173s2.293-9.075 2.293-9.075 1.561 4.099 8.636 3.464c0 0 8.196-.683 11.368-10.491.282-.873.516-1.754.717-2.651a27.67 27.67 0 0 0 .464-2.712c.367-3.035.409-6.259-.487-9.209z"/><path d="M1.345 2.876L78.601 79A4.43 4.43 0 0 0 80 75.759V4.59C80 2.151 78.048.175 75.64.175H5.364c-1.808 0-3.358 1.114-4.019 2.701z" fill-opacity=".19"/></g></symbol></svg>