<svg xmlns="http://www.w3.org/2000/svg" xmlns:xlink="http://www.w3.org/1999/xlink" viewBox="0 0 82 81" fill="#fff" fill-rule="evenodd" stroke="#000" stroke-linecap="round" stroke-linejoin="round"><use xlink:href="#A" x=".5" y=".5"/><symbol id="A" overflow="visible"><g stroke="none"><path d="M6.667 0Q0 0 0 6.667v66.667Q0 80 6.667 80h66.667Q80 80 80 73.333V6.667Q80 0 73.333 0z" fill="#f27e30"/><path d="M37.817 59.583c-13.037 0-23.643-7.154-23.643-15.947a10.89 10.89 0 0 1 .149-1.799c-1.769-1.104-2.845-3.055-2.845-5.156.004-3.342 2.683-6.051 5.989-6.056a5.94 5.94 0 0 1 3.97 1.521c4.1-2.661 9.616-4.335 15.701-4.451l3.995-12.325.872.208.021.005 9.311 2.216c.776-1.838 2.562-3.031 4.538-3.033 2.723.003 4.929 2.234 4.932 4.987-.003 2.752-2.209 4.982-4.932 4.986-2.72-.003-4.926-2.23-4.932-4.98l-8.496-2.022-3.235 9.981c5.864.231 11.159 1.91 15.112 4.513a5.92 5.92 0 0 1 4.06-1.603c3.307.004 5.986 2.713 5.99 6.056.01 2.187-1.156 4.207-3.044 5.275a10.91 10.91 0 0 1 .13 1.679c-.002 8.793-10.609 15.947-23.645 15.947zM16.348 41.746a9.14 9.14 0 0 0-.198 1.89c0 7.692 9.719 13.949 21.666 13.949s21.666-6.257 21.666-13.949a9.1 9.1 0 0 0-.181-1.805 1.01 1.01 0 0 1-.098-.435c-.661-2.625-2.465-5.008-5.07-6.928a.98.98 0 0 1-.424-.304c-3.96-2.753-9.618-4.478-15.893-4.478-6.212 0-11.821 1.692-15.776 4.397a1.01 1.01 0 0 1-.396.279c-2.662 1.921-4.512 4.32-5.199 6.968a1 1 0 0 1-.083.384c-.005.011-.009.022-.015.032zm39.628-8.312c2.292 1.853 3.974 4.06 4.834 6.482 1.004-.765 1.592-1.965 1.586-3.236-.002-2.24-1.798-4.055-4.014-4.057-.868-.001-1.713.284-2.407.811zm-38.51-.811c-2.215.003-4.01 1.818-4.013 4.057a4.08 4.08 0 0 0 1.419 3.097c.888-2.403 2.587-4.592 4.888-6.427a3.99 3.99 0 0 0-2.295-.727zm38.407-15.861c-1.629 0-2.955 1.341-2.955 2.988s1.326 2.987 2.955 2.987 2.955-1.34 2.955-2.987-1.325-2.988-2.955-2.988zm-17.95 37.134c-3.958 0-6.747-.874-8.525-2.673a1.01 1.01 0 0 1 0-1.413.98.98 0 0 1 1.398 0c1.389 1.404 3.719 2.087 7.127 2.087s5.739-.683 7.13-2.087a.98.98 0 0 1 1.397 0c.386.39.385 1.022 0 1.412-1.78 1.798-4.568 2.673-8.526 2.673zm7.893-17.22c-1.983 0-3.648 1.601-3.648 3.513s1.665 3.459 3.648 3.459 3.589-1.549 3.589-3.459-1.607-3.513-3.589-3.513zm-15.723 0c-1.981 0-3.644 1.603-3.644 3.513s1.662 3.459 3.644 3.459 3.589-1.55 3.589-3.459-1.607-3.513-3.589-3.513z"/><path d="M.499 2.69l78.088 75.816A4.38 4.38 0 0 0 80 75.279V4.398C80 1.968 78.027 0 75.593 0H4.561C2.734 0 1.167 1.109.499 2.69z" fill-opacity=".19"/></g></symbol></svg>