<svg xmlns="http://www.w3.org/2000/svg" xmlns:xlink="http://www.w3.org/1999/xlink" viewBox="0 0 81 82" fill="#fff" fill-rule="evenodd" stroke="#000" stroke-linecap="round" stroke-linejoin="round"><use xlink:href="#A" x=".5" y=".5"/><symbol id="A" overflow="visible"><g stroke="none"><path d="M6.667 0Q0 0 0 6.667v66.667Q0 80 6.667 80h66.667Q80 80 80 73.333V6.667Q80 0 73.333 0z" fill="#09d261"/><path d="M52.716 44.385a6.92 6.92 0 0 0-4.258 1.454l-14.778-7.146.018-.498-.005-.234 15.026-7.266a6.92 6.92 0 0 0 3.995 1.26c3.817 0 6.911-3.068 6.911-6.852s-3.094-6.852-6.911-6.852-6.911 3.068-6.911 6.852l.027.607-14.737 7.126a6.92 6.92 0 0 0-4.307-1.494c-3.817 0-6.911 3.068-6.911 6.852s3.094 6.852 6.911 6.852a6.92 6.92 0 0 0 4.09-1.329l14.934 7.221-.007.296c0 3.784 3.094 6.852 6.911 6.852s6.911-3.068 6.911-6.852-3.094-6.852-6.911-6.852z"/><path d="M.84 2.69l77.753 75.816A4.39 4.39 0 0 0 80 75.279V4.398C80 1.968 78.036 0 75.612 0H4.885A4.39 4.39 0 0 0 .84 2.69z" fill-opacity=".19"/></g></symbol></svg>