<svg xmlns="http://www.w3.org/2000/svg" xmlns:xlink="http://www.w3.org/1999/xlink" viewBox="0 0 81 82" fill="#fff" fill-rule="evenodd" stroke="#000" stroke-linecap="round" stroke-linejoin="round"><use xlink:href="#A" x=".5" y=".5"/><symbol id="A" overflow="visible"><g stroke="none"><path d="M6.667 0Q0 0 0 6.667v66.667Q0 80 6.667 80h66.667Q80 80 80 73.333V6.667Q80 0 73.333 0z" fill="#1ab7ea"/><path d="M49.027 32.52c.591-.434 1.019-1.082 1.082-1.829.059-.691-.289-1.427-.734-1.947-.691-.806-1.556-1.53-2.442-2.117-.515-.341-1.07-.648-1.637-.899-1.437-.636-3.017-.953-4.587-.996-.867-.024-1.768.003-2.628.119-2.367.319-4.759.978-6.483 2.704-.432.432-.832.921-1.173 1.427-.407.604-.72 1.262-.899 1.968-.439 1.736-.197 3.974.843 5.452 1.241 1.763 3.381 2.697 5.409 3.253 1.265.346 2.555.514 3.838.767l2.284.54c.935.275 2.052.631 2.641 1.453 1.025 1.431.468 3.476-.997 4.341-1.481.874-3.468 1.077-5.11.581-.878-.265-1.722-.651-2.424-1.244-.801-.677-1.27-1.621-2.024-2.336-.787-.747-2.237-1.248-3.283-.771-1.732.79-1.696 3.393-.69 4.731.394.524.918 1.072 1.441 1.47 2.937 2.235 7.008 2.605 10.588 2.363 1.051-.071 2.175-.217 3.178-.552 2.223-.744 4.381-2.102 5.33-4.462s.654-4.301.229-5.562c-.953-2.826-3.93-4.038-6.581-4.726-.636-.165-1.277-.313-1.921-.447l-3.641-.761c-1.281-.237-3.181-.569-3.481-2.093-.287-1.463.669-2.926 2.003-3.433 1.491-.566 3.289-.502 4.758.097.781.318 1.717.806 2.333 1.387 1.033.974 1.941 2.394 3.591 2.046a3.23 3.23 0 0 0 1.185-.523z"/></g><path d="M63.153 43.84c-.269-.577-.602-1.126-1.008-1.635-.3-.376-.078-.94.016-1.35.703-3.055.353-6.243-.378-9.261a17.33 17.33 0 0 0-.804-2.506c-1.313-3.199-3.349-6.293-5.869-8.666-1.387-1.307-3.013-2.501-4.685-3.419-2.585-1.42-5.388-2.228-8.308-2.582-1.272-.154-2.55-.318-3.834-.295-.643.012-1.285.067-1.915.196-.551.112-1.163.363-1.715.122-1.03-.45-2.054-.95-3.146-1.232-.789-.204-1.613-.294-2.422-.375-2.224-.223-4.391.154-6.46.995-1.459.593-2.787 1.504-3.969 2.539-1.554 1.361-2.883 3.627-3.491 5.59-.639 2.063-.982 4.336-.583 6.477.185.991.496 1.956.895 2.881.167.389.399.745.566 1.134.177.413.093.709-.014 1.13-.362 1.428-.381 2.962-.367 4.427.035 3.512.887 7.212 2.429 10.358 1.567 3.196 3.838 6.072 6.756 8.13 2.882 2.032 6.103 3.544 9.576 4.209 1.937.371 3.881.187 5.816-.088.841-.12 2.564-.641 3.335-.089 0 0 7.66 5.533 15.812-1.624 2.421-2.126 4.188-5.183 4.589-8.404.277-2.223.131-4.619-.822-6.663z" fill="none" stroke="#fff" stroke-miterlimit="10" stroke-width="4"/><path d="M.84 2.69l77.753 75.816A4.39 4.39 0 0 0 80 75.279V4.398C80 1.968 78.036 0 75.612 0H4.885A4.39 4.39 0 0 0 .84 2.69z" fill-opacity=".19" stroke="none"/></symbol></svg>