<svg xmlns="http://www.w3.org/2000/svg" xmlns:xlink="http://www.w3.org/1999/xlink" viewBox="0 0 81 81" fill="#fff" fill-rule="evenodd" stroke="#000" stroke-linecap="round" stroke-linejoin="round"><use xlink:href="#A" x=".5" y=".5"/><symbol id="A" overflow="visible"><g stroke="none"><path d="M80 68c0 6.628-5.373 12-12 12H12C5.372 80 0 74.628 0 68V12C0 5.373 5.373 0 12 0h56c6.627 0 12 5.373 12 12v56z" fill="#ffea00"/><path d="M38.302 59c-.136 0-.266-.005-.365-.01l-.24.01c-2.858 0-4.769-1.349-6.455-2.541-1.209-.853-2.349-1.658-3.684-1.879a11.9 11.9 0 0 0-1.939-.164c-1.136 0-2.033.176-2.689.304-.403.079-.751.146-1.02.146-.282 0-.624-.062-.766-.548l-.272-1.112c-.196-.894-.338-1.439-.673-1.491-3.585-.552-5.703-1.366-6.124-2.351-.043-.098-.068-.204-.074-.311-.016-.293.191-.552.481-.599 2.847-.468 5.378-1.971 7.524-4.467 1.662-1.933 2.478-3.78 2.566-3.983l.013-.028c.414-.838.496-1.562.245-2.152-.462-1.088-1.992-1.572-3.004-1.893l-.679-.23c-.897-.354-2.373-1.102-2.176-2.134.143-.752 1.14-1.277 1.945-1.277a1.38 1.38 0 0 1 .589.117c.91.426 1.729.642 2.433.642.876 0 1.299-.333 1.401-.428l-.086-1.433c-.206-3.266-.462-7.33.579-9.661 3.116-6.977 9.724-7.519 11.674-7.519l.966-.009c1.956 0 8.578.543 11.696 7.524 1.041 2.332.784 6.4.578 9.669l-.01.156-.076 1.271c.096.089.483.394 1.271.425.671-.026 1.443-.241 2.293-.638.263-.123.553-.149.751-.149.298 0 .602.058.855.164l.014.005c.721.256 1.193.766 1.203 1.303.009.5-.363 1.248-2.194 1.97-.187.074-.427.15-.679.23-1.013.321-2.541.805-3.003 1.892-.251.59-.168 1.314.245 2.151.005.009.009.018.013.028.127.298 3.211 7.318 10.09 8.45.29.048.497.306.481.599a.92.92 0 0 1-.076.314c-.419.98-2.537 1.792-6.122 2.345-.337.052-.478.595-.672 1.484-.08.367-.162.727-.273 1.106-.104.356-.336.53-.709.53h-.056c-.243 0-.586-.044-1.02-.129-.758-.147-1.608-.284-2.689-.284-.63 0-1.283.055-1.939.164-1.334.222-2.474 1.026-3.68 1.877C43.072 57.651 41.16 59 38.302 59"/><path d="M0 2.876L78.239 79c.871-.807 1.416-1.96 1.416-3.241V4.59c0-2.439-1.977-4.415-4.415-4.415H4.07C2.239.175.669 1.289 0 2.876z" fill-opacity=".43"/></g></symbol></svg>