<svg xmlns="http://www.w3.org/2000/svg" xmlns:xlink="http://www.w3.org/1999/xlink" viewBox="0 0 81 81" fill="#fff" fill-rule="evenodd" stroke="#000" stroke-linecap="round" stroke-linejoin="round"><use xlink:href="#A" x=".5" y=".5"/><symbol id="A" overflow="visible"><path d="M6.667 0Q0 0 0 6.667v66.667Q0 80 6.667 80h66.667Q80 80 80 73.333V6.667Q80 0 73.333 0z" fill="#ffa32b" stroke="none"/><path d="M30.126 43.378c-.078.03-.163.215-.203.276l-.446.744-.616 1.072-.748 1.353-.813 1.493-.834 1.589-1.704 3.398-.428.993a7.21 7.21 0 0 0-.278.815c-.163.602.014 1.274.666 1.538l1.346.472 1.214.425C30.177 58.609 38 60.205 38 60.205c-8.026-6.914-7.874-16.827-7.874-16.827zm21.379 10.519c-2.939-2.631-5.038-6.005-6.29-9.665-.719-2.102-1.108-4.295-1.213-6.502a29.91 29.91 0 0 1-.029-.948c-.064-1.631.139-3.396.359-5.082.039-.292.086-.578.14-.797s.115-.371.183-.392l-.654.214-.651.229c-1.501.481-2.963 1.163-4.263 2.059a13.47 13.47 0 0 0-.759.563c-.286.207-.56.426-.819.656-2.757 2.391-3.876 6.117-3.404 9.633a18.68 18.68 0 0 0 .359 2.353c.621 2.889 1.876 5.692 3.639 8.105 1.612 2.207 3.683 4.149 6.312 5.178 2.534.991 5.884.879 8.455.002 1.032-.352 2.052-.78 2.998-1.314.077-.044 1.105-.788 1.132-.776a26.88 26.88 0 0 1-2.862-1.545 19.12 19.12 0 0 1-2.633-1.972zm-26.037-36.02c-4.275-1.502-8.908-1.842-13.012.247-2.14 1.09-3.617 2.7-3.442 5.043.178 2.394 1.974 4.86 3.875 6.401a11.11 11.11 0 0 0 1.762 1.174c1.284.682 2.787 1.157 4.243 1.397 8.902 1.465 17.736-2.101 19.106-2.61 0 0-3.835-8.596-12.532-11.652zm24.161 4.525c1.312-2.289 1.882-4.874.809-7.355-.56-1.294-1.513-2.256-3.073-2.346-1.594-.092-3.357.722-4.517 1.67a6.48 6.48 0 0 0-.907.899 7.33 7.33 0 0 0-1.239 2.28c-1.632 4.901.063 10.168.297 10.981 0 0 5.963-1.471 8.631-6.128zm13.936 16.017c-.8-1.61-1.912-3.043-3.216-4.328a14.82 14.82 0 0 0-2.493-1.967c-2.093-1.331-4.777-2.358-7.127-.911a3.62 3.62 0 0 0-.669.642c-.423.529-.678 1.153-.835 1.816l-.126.674c-.187 1.374-.098 2.743.164 4.084l.177.802c.977 3.308 2.328 6.475 4.5 9.275a15.95 15.95 0 0 0 .603.72c.624.702 1.315 1.348 2.087 1.912.262.173.536.336.821.486a7.03 7.03 0 0 0 .78.352 6.71 6.71 0 0 0 .926.236c2.352.418 4.183-1.005 5.051-2.932.133-.295.25-.6.351-.912a13.31 13.31 0 0 0 .394-2.317c.213-2.607-.285-5.232-1.387-7.632z" stroke="#ffa32b"/><path d="M.345 2.673L78.584 78.02A4.34 4.34 0 0 0 80 74.813V4.37C80 1.956 78.023 0 75.585 0H4.415C2.584 0 1.014 1.102.345 2.673z" fill-opacity=".19" stroke="none"/></symbol></svg>