<svg xmlns="http://www.w3.org/2000/svg" xmlns:xlink="http://www.w3.org/1999/xlink" viewBox="0 0 81 81" fill="#fff" fill-rule="evenodd" stroke="#000" stroke-linecap="round" stroke-linejoin="round"><use xlink:href="#A" x=".5" y=".5"/><symbol id="A" overflow="visible"><g stroke="none"><path d="M6.667 0Q0 0 0 6.667v66.667Q0 80 6.667 80h66.667Q80 80 80 73.333V6.667Q80 0 73.333 0z" fill="#395976"/><path d="M49.907 50.283c.108.171.077.327.077.467L50 56.544c0 .28-.046.452-.355.592-1.219.592-2.453 1.121-3.764 1.479-.879.249-1.774.389-2.669.514-.74.093-1.481.093-2.221.078-.987-.031-1.975-.171-2.946-.42-1.049-.265-2.052-.638-2.946-1.23-1.62-1.059-2.9-2.429-3.548-4.345-.293-.888-.324-1.775-.355-2.663-.123-4.75-.062-9.499-.092-14.264 0-.545-.031-1.09 0-1.635.015-.327-.077-.436-.417-.436-1.064.016-2.129-.016-3.193.016-.37.016-.494-.078-.494-.483.031-1.713.015-3.442.015-5.154 0-.358.031-.545.463-.701.848-.311 1.635-.794 2.345-1.355 1.573-1.23 2.761-2.756 3.517-4.609.617-1.526.972-3.114 1.172-4.75.031-.234.077-.389.355-.405.818-.047 1.62-.187 2.437-.078.771.093 1.543.078 2.314.078.355 0 .324.203.324.436l.031 7.849c0 .67.015 1.339-.015 2.009-.015.327.077.42.401.42l8.021-.016c.401 0 .494.14.494.498v5.793c0 .358-.093.483-.478.483-2.653-.016-5.322 0-7.975-.016-.339 0-.478.047-.478.452l.031 12.162c0 .856.046 1.713.201 2.538.231 1.308 1.111 2.102 2.314 2.523 1.651.592 3.27.343 4.875-.202.91-.327 1.743-.841 2.545-1.417z"/><path d="M.345 2.673L78.584 78.02A4.34 4.34 0 0 0 80 74.813V4.37C80 1.956 78.023 0 75.585 0H4.415C2.584 0 1.014 1.102.345 2.673z" fill-opacity=".19"/></g></symbol></svg>