<svg xmlns="http://www.w3.org/2000/svg" xmlns:xlink="http://www.w3.org/1999/xlink" viewBox="0 0 81 82" fill="#fff" fill-rule="evenodd" stroke="#000" stroke-linecap="round" stroke-linejoin="round"><use xlink:href="#A" x=".5" y=".5"/><symbol id="A" overflow="visible"><g stroke="none"><path d="M6.667 0Q0 0 0 6.667v66.667Q0 80 6.667 80h66.667Q80 80 80 73.333V6.667Q80 0 73.333 0z" fill="#1ab7ea"/><path d="M11.288 28.064l2.195-2.337c2.48-2.572 5.083-5.012 8.084-6.99 1.449-.963 2.97-1.773 4.654-2.255 2.266-.646 4.287.143 5.512 2.173 1.215 2.019 1.756 4.274 2.215 6.549.663 3.259 1.031 6.569 1.858 9.798.684 2.675 1.306 5.37 2.378 7.922.153.359.357.697.561 1.035.612 1.004 1.368 1.107 2.276.348.99-.83 1.776-1.835 2.501-2.88 1.5-2.152 2.858-4.397 3.981-6.775.704-1.496 1.072-3.085.694-4.776-.531-2.357-2.47-3.29-4.716-2.716-.827.205-1.613.533-2.388 1.045.225-1.578.704-2.982 1.429-4.304 1.97-3.618 4.93-6.047 8.839-7.338 2.184-.728 4.389-.892 6.624-.318 2.746.707 4.767 3.085 5.185 5.903.418 2.798-.153 5.473-.909 8.117-1.337 4.663-3.562 8.896-6.298 12.883-4.154 6.057-9.166 11.304-14.902 15.845-1.082.851-2.154 1.722-3.47 2.214-2.256.861-4.277.287-6.135-1.086-2.082-1.548-3.379-3.638-4.216-6.067-1.266-3.669-2.368-7.4-3.511-11.11-1.225-3.977-2.378-7.963-3.828-11.868-.184-.492-.408-.974-.643-1.445-.306-.594-.857-.728-1.47-.707-1.225.061-2.225.687-3.236 1.281-.337.195-.663.42-.97.656-.235.184-.378.184-.572-.082l-1.725-2.204v-.512z"/><path d="M1.811 2.684L78.61 78.335a4.4 4.4 0 0 0 1.39-3.22V4.388C80 1.964 78.059 0 75.666 0H5.806C4.009 0 2.468 1.107 1.811 2.684z" fill-opacity=".19"/></g></symbol></svg>