<svg xmlns="http://www.w3.org/2000/svg" xmlns:xlink="http://www.w3.org/1999/xlink" viewBox="0 0 81 81" fill="#fff" fill-rule="evenodd" stroke="#000" stroke-linecap="round" stroke-linejoin="round"><use xlink:href="#A" x=".5" y=".5"/><symbol id="A" overflow="visible"><g stroke="none"><path d="M80 68c0 6.628-5.373 12-12 12H12C5.372 80 0 74.628 0 68V12C0 5.373 5.373 0 12 0h56c6.627 0 12 5.373 12 12v56z" fill="#2dc100"/><path d="M64.821 61.5c-1.727-.745-3.31-1.863-4.996-2.034-1.68-.17-3.445.769-5.203.944-5.353.531-10.148-.915-14.103-4.46-7.52-6.743-6.446-17.083 2.255-22.609 7.733-4.911 19.074-3.274 24.526 3.541 4.758 5.947 4.199 13.841-1.61 18.836-1.681 1.446-2.286 2.636-1.207 4.542.199.352.222.797.337 1.242zM45.168 43.053c1.099.001 2.004-.833 2.046-1.885.044-1.114-.881-2.049-2.031-2.053-1.139-.005-2.094.943-2.054 2.04.037 1.049.949 1.897 2.04 1.898zm12.669-3.934c-1.067-.007-1.973.839-2.016 1.884-.046 1.117.849 2.034 1.99 2.037 1.103.003 1.974-.805 2.015-1.869.043-1.12-.853-2.044-1.988-2.052zM53.5 28.859c-5.478.28-10.242 1.903-14.109 5.571-3.907 3.706-5.691 8.247-5.204 13.876-2.141-.259-4.091-.545-6.053-.706-.677-.056-1.481.023-2.055.34-1.905 1.051-3.73 2.237-5.894 3.559.397-1.756.654-3.293 1.109-4.772.335-1.087.18-1.692-.845-2.4-6.576-4.539-9.348-11.332-7.274-18.326 1.919-6.47 6.632-10.394 13.036-12.439 8.741-2.791 18.564.056 23.879 6.841 1.92 2.451 3.097 5.201 3.408 8.455zM28.288 26.68c.05-1.279-1.083-2.431-2.43-2.47-1.379-.04-2.513.991-2.553 2.319-.041 1.346 1.012 2.425 2.401 2.459 1.377.034 2.531-.997 2.582-2.308zm13.154-2.471c-1.351.024-2.494 1.15-2.47 2.434.025 1.331 1.145 2.373 2.535 2.356s2.45-1.069 2.437-2.428c-.012-1.334-1.127-2.387-2.502-2.362z"/><path d="M.345 2.701l78.239 76.124c.871-.807 1.416-1.96 1.416-3.241V4.415C80 1.976 78.023 0 75.585 0H4.415C2.584 0 1.014 1.114.345 2.701z" fill-opacity=".19"/></g></symbol></svg>