<svg xmlns="http://www.w3.org/2000/svg" xmlns:xlink="http://www.w3.org/1999/xlink" viewBox="0 0 81 82" fill="#fff" fill-rule="evenodd" stroke="#000" stroke-linecap="round" stroke-linejoin="round"><use xlink:href="#A" x=".5" y=".5"/><symbol id="A" overflow="visible"><g stroke="none"><path d="M6.667 0Q0 0 0 6.667v66.667Q0 80 6.667 80h66.667Q80 80 80 73.333V6.667Q80 0 73.333 0z" fill="#cc2124"/><path d="M48.59 22.993c-4.755-.139-9.512-.172-14.269-.098-13.465.254-19.115.049-19.793 10.326-.146 4.348-.157 8.685-.032 13.031.672 11.205 4.295 11 19.825 11.349a319.62 319.62 0 0 0 13.012-.064c10.924-.298 16.005-.035 16.68-11.291.125-4.344.114-8.68-.032-13.026-.676-10.318-6.534-9.977-15.391-10.228zM34.207 46.656l.007-13.98 13.189 6.992-13.196 6.988z"/><path d="M.84 2.684l77.753 75.651c.865-.802 1.407-1.948 1.407-3.22V4.388A4.39 4.39 0 0 0 75.612 0H4.885A4.39 4.39 0 0 0 .84 2.684z" fill-opacity=".19"/></g></symbol></svg>