<svg xmlns="http://www.w3.org/2000/svg" xmlns:xlink="http://www.w3.org/1999/xlink" fill="#fff" fill-rule="evenodd" stroke="#000" stroke-linecap="round" stroke-linejoin="round" viewBox="0 0 71 81"><use xlink:href="#a" x=".5" y=".5"/><symbol id="a" overflow="visible"><g stroke="none"><path fill="#2e73b8" d="M69.989 26.11v-8.449l-8.794-9.732L46.802 40l14.394 32.06 8.794-9.743v-8.449l-2.931 2.013v-4.059l2.931-1.537V41.78l-2.931.077v-3.804l2.931.144v-8.283l-2.931-1.548v-2.853l2.931.597z"/><path fill="#5294cf" d="m45.522 80 15.674-7.94V7.918L45.522 0 45.5 34.5l.022 45.5z"/><path fill="#2e73b8" d="M45.523 32.341 38.501 30l3-17-16.5 19 6 4-6.5 13.5 7 3-3.5 17 17-20-6-4 6.522-12.112V80H23.538L12.185 40.675 23.538 0h21.984z"/><path fill="#205b99" d="M23.537 80 7.722 72.06 2.745 40.675 7.722 7.918 23.493 0l.044 80z"/><path fill="#19486f" d="m37 64.75 8.522.055 15.673-4.91 8.794-6.027-2.931-.243v-1.803l-5.873 2.897L45.5 58.25h-2.75zm5.5-21L46 37l15.195.534 8.761.653-2.898.033v3.561l2.942.022-8.805.741-15.673 1.15-3.022.056zm.75-29h2.25l15.695 5.214 8.794 6.215-2.931.243v2.002l-5.862-3.163-15.673-3.749-3.272-.012z"/></g><g stroke="none"><path fill="#19486f" d="M28 69.5 23.5 80 27 65l-3.473-.195-15.816-4.932v12.176L.022 62.306 0 53.879l2.22-.254v-2.068L.022 50.23v-8.416l2.198-.033V38.22l-2.198-.022v-8.46L2.22 28.41v-2.035l-2.198-.254v-8.46l7.689-9.743v12.176l15.947-5.297 10.092-.047L45.5 0l-4 13L25 32h-5l8.25-10.5-4.592-.035-15.947 3.782v12.165l15.947-.387L28 37l3-1-6.5 13.5L20 54l4.75-10.25-1.234-.056-15.805-1.15V54.62l15.827 3.517 5.212.113L29 57l2.5-4.5-3.5 17zM38.5 30l3.25-4 8.5 2.75-4.5 4zm3.25 15.5H39l6 4h5.5z"/><path fill="#205b99" d="m50.25 28.75-8.5 16.75H39l6.75-12.75z"/></g><path fill="#205b99" stroke="none" d="m38.5 30 3.25-4L45.5 0l-4 13z"/><g stroke="none"><path fill="#205b99" d="M28 69.5 23.5 80l27-30.5H45z"/><path fill="#5294cf" d="m31.5 52.5-7-3L20 54l9 3z"/></g><path fill="#5294cf" stroke="none" d="M20 32h5l6 4-3 1z"/></symbol></svg>