<svg xmlns="http://www.w3.org/2000/svg" xmlns:xlink="http://www.w3.org/1999/xlink" fill="#fff" fill-rule="evenodd" stroke="#000" stroke-linecap="round" stroke-linejoin="round" viewBox="0 0 74.375 85"><use xlink:href="#a" x="2.188" y="2.5"/><symbol id="a" overflow="visible"><g stroke="none"><path fill="#99bce3" d="M69.774 54.069 35 49.942.225 54.069 35 80.001l34.775-25.932z"/><path fill="#19486f" d="m70 25.942-35.225 4.107L0 25.932 35 0l35 25.942z"/><path fill="#205b99" d="M35 0 0 16.556v9.385L35 16V0zm0 64L0 54.068v9.376L35 80V64zm0-11.902-15.17-2.117V30.186L35 28.098l14.289 12-14.289 12z"/><path fill="#5294cf" d="m35 0 35 16.556v9.385L35 16V0zm0 64 35-9.932v9.376L35 80V64zm0-11.902 15.17-2.117V30.186L35 28.098v24z"/></g></symbol></svg>