<svg xmlns="http://www.w3.org/2000/svg" xmlns:xlink="http://www.w3.org/1999/xlink" fill="#fff" fill-rule="evenodd" stroke="#000" stroke-linecap="round" stroke-linejoin="round" viewBox="0 0 74.375 85"><use xlink:href="#a" x="2.188" y="2.5"/><symbol id="a" overflow="visible"><g stroke="none"><path fill="#2e73b8" d="M69.989 26.11v-8.449l-8.794-9.732L46.802 40l14.394 32.06 8.794-9.743v-8.449l-2.931 2.013v-4.059l2.931-1.537V41.78l-2.931.077v-3.804l2.931.144v-8.283l-2.931-1.548v-2.853l2.931.597z"/><path fill="#5294cf" d="m45.521 80 15.674-7.94V7.918L45.521 0 27.748 40.675 45.521 80z"/><path fill="#2e73b8" d="M23.537 80h21.984V0H23.537L12.184 40.675 23.537 80z"/><path fill="#205b99" d="M23.537 80 7.722 72.06 2.745 40.675 7.722 7.918 23.493 0l.044 80z"/><path fill="#19486f" d="m67.058 51.822-5.873 2.897-15.662 3.417H23.538L8.159 54.719l-.273-.055-.175-.044V42.543l15.805 1.15h22.006l15.673-1.15L70 41.802l-2.942-.022v-3.561l2.898-.033-8.761-.652-15.673-.509H23.658l-15.947.387V25.247l.175-.033 15.772-3.749H45.522l15.673 3.749 5.862 3.163v-2.002l2.931-.243-8.794-6.215-15.673-5.12H23.658L7.711 20.094V7.918L.022 17.661v8.46l2.198.254v2.035L.022 29.737v8.46l2.198.022v3.561l-2.198.033v8.416l2.198 1.327v2.068L0 53.879l.022 8.427 7.689 9.743V59.873l15.816 4.932H45.522l15.673-4.91 8.794-6.027-2.931-.243v-1.803z"/></g></symbol></svg>