<svg xmlns="http://www.w3.org/2000/svg" xmlns:xlink="http://www.w3.org/1999/xlink" fill="#fff" fill-rule="evenodd" stroke="#000" stroke-linecap="round" stroke-linejoin="round" viewBox="0 0 85 85"><use xlink:href="#a" x="2.5" y="2.5"/><symbol id="a" overflow="visible"><path fill="#19486f" stroke="none" d="M35.714 23.365H0v-3.393l17.857-9.603 17.857 9.603v3.393zm44.286 0H44.286v-3.393l17.857-9.603L80 19.972v3.393zM35.714 51.724H0v-3.393l17.857-9.603 17.857 9.603v3.393zm44.286 0H44.286v-3.393l17.857-9.603L80 48.331v3.393zM35.714 80H0v-3.393l17.857-9.603 17.857 9.603V80zM80 80H44.286v-3.393l17.857-9.603L80 76.607V80z"/><path fill="#2e73b8" stroke="none" d="M80 76.607H44.286V56.539H80zm0-28.276H44.286V28.263H80zm0-28.263H44.286V0H80zM35.714 76.607H0V56.539h35.714zm0-28.276H0V28.263h35.714zm0-28.263H0V0h35.714z"/><path stroke="none" d="M10.714 66.58c0-3.789 3.186-6.84 7.143-6.84S25 62.791 25 66.58s-3.186 6.84-7.143 6.84-7.143-3.051-7.143-6.84zm0-28.276c0-3.789 3.186-6.84 7.143-6.84S25 34.515 25 38.304s-3.186 6.84-7.143 6.84-7.143-3.051-7.143-6.84zm0-28.277c0-3.789 3.186-6.84 7.143-6.84S25 6.238 25 10.027s-3.186 6.84-7.143 6.84-7.143-3.051-7.143-6.84z"/></symbol></svg>