<svg xmlns="http://www.w3.org/2000/svg" xmlns:xlink="http://www.w3.org/1999/xlink" fill="#fff" fill-rule="evenodd" stroke="#000" stroke-linecap="round" stroke-linejoin="round" viewBox="0 0 85 85"><use xlink:href="#a" x="2.5" y="2.5"/><symbol id="a" overflow="visible"><path fill="#19486f" stroke="none" d="M12.667 16.389H0v-3.393l6.333-9.603 6.333 9.603v3.393zm18 0H18v-3.393l6.333-9.603 6.333 9.603v3.393zm49.333 0H36v-3.393l22-9.603 22 9.603v3.393zM12.667 37.593H0V34.2l6.333-9.603 6.333 9.603v3.393zm18 0H18V34.2l6.333-9.603 6.333 9.603v3.393zm49.333 0H36V34.2l22-9.603L80 34.2v3.393zM12.667 58.796H0v-3.393L6.333 45.8l6.333 9.603v3.393zm18 0H18v-3.393l6.333-9.603 6.333 9.603v3.393zm49.333 0H36v-3.393L58 45.8l22 9.603v3.393zM12.667 80H0v-3.393l6.333-9.603 6.333 9.603V80zm18 0H18v-3.393l6.333-9.603 6.333 9.603V80zM80 80H36v-3.393l22-9.603 22 9.603V80z"/><path fill="#2e73b8" stroke="none" d="M0 0h12.667v12.996H0zm0 21.204h12.667V34.2H0zm0 21.204h12.667v12.996H0zm0 21.204h12.667v12.996H0zM36 0h44v12.996H36zm0 21.204h44V34.2H36zm0 21.204h44v12.996H36zm0 21.204h44v12.996H36zM18 0h12.667v12.996H18zm0 21.204h12.667V34.2H18zm0 21.204h12.667v12.996H18zm0 21.204h12.667v12.996H18z"/></symbol></svg>