<svg xmlns="http://www.w3.org/2000/svg" xmlns:xlink="http://www.w3.org/1999/xlink" fill="#fff" fill-rule="evenodd" stroke="#000" stroke-linecap="round" stroke-linejoin="round" viewBox="0 0 85 85"><use xlink:href="#a" x="2.5" y="2.5"/><symbol id="a" overflow="visible"><path fill="#19486f" stroke="none" d="M12.667 16.389H0v-3.393l6.333-9.603 6.333 9.603v3.393zm67.333 0H18v-3.393l31-9.603 31 9.603v3.393zM12.667 37.592H0v-3.393l6.333-9.603 6.333 9.603v3.393zm67.333 0H18v-3.393l31-9.603 31 9.603v3.393zM12.667 58.796H0v-3.393L6.333 45.8l6.333 9.603v3.393zm67.333 0H18v-3.393L49 45.8l31 9.603v3.393zM12.667 80H0v-3.393l6.333-9.603 6.333 9.603V80zM80 80H18v-3.393l31-9.603 31 9.603V80z"/><path fill="#2e73b8" stroke="none" d="M18 0h62v12.996H18zm0 21.204h62V34.2H18zm0 21.204h62v12.996H18zm0 21.204h62v12.996H18zM0 0h12.667v12.996H0zm0 21.204h12.667V34.2H0zm0 21.204h12.667v12.996H0zm0 21.204h12.667v12.996H0z"/></symbol></svg>