<svg xmlns="http://www.w3.org/2000/svg" xmlns:xlink="http://www.w3.org/1999/xlink" fill="#fff" fill-rule="evenodd" stroke="#000" stroke-linecap="round" stroke-linejoin="round" viewBox="0 0 79.688 85"><use xlink:href="#a" x="2.344" y="2.5"/><symbol id="a" overflow="visible"><g stroke="none"><path fill="#19486f" d="M0 16.727C0 9.441 5.756 3.576 12.906 3.576h49.189C69.244 3.576 75 9.441 75 16.727V66.85C75 74.135 69.244 80 62.094 80H12.906C5.756 80 0 74.135 0 66.849z"/><path fill="#2e73b8" d="M0 13.151C0 5.865 5.756 0 12.906 0h49.189C69.244 0 75 5.865 75 13.151v50.123c0 7.286-5.756 13.151-12.906 13.151H12.906C5.756 76.424 0 70.559 0 63.273z"/><path d="M64.387 23.793v-5.768h-7.076v-7.21h-5.66v7.21h-2.83v-7.21h-5.66v7.21h-2.83v-7.21h-5.66v7.21h-2.83v-7.21h-5.66v7.21h-2.83v-7.21h-5.66v7.21h-7.075v5.768h7.075v2.884h-7.075v5.768h7.075v2.884h-7.075v5.768h7.075v2.884h-7.075v5.768h7.075v2.884h-7.075V58.4h7.075v7.21h5.66V58.4h2.83v7.21h5.66V58.4h2.83v7.21h5.66V58.4h2.83v7.21h5.66V58.4h2.83v7.21h5.66V58.4h7.076v-5.768h-7.076v-2.884h7.076V43.98h-7.076v-2.884h7.076v-5.768h-7.076v-2.884h7.076v-5.768h-7.076v-2.884h7.076z"/><path fill="#2e73b8" d="M24.764 26.676h7.387l5.448 15.862 5.165-15.862h7.472v23.071h-5.66V33.886h.608l-5.66 15.862h-4.005l-5.66-15.862h.566v15.862h-5.66z"/></g></symbol></svg>