<svg xmlns="http://www.w3.org/2000/svg" xmlns:xlink="http://www.w3.org/1999/xlink" fill="#fff" fill-rule="evenodd" stroke="#000" stroke-linecap="round" stroke-linejoin="round" viewBox="0 0 79.688 85"><use xlink:href="#a" x="2.344" y="2.5"/><symbol id="a" overflow="visible"><g stroke="none"><path fill="#19486f" d="M0 16.727C0 9.441 5.756 3.576 12.906 3.576h49.189C69.244 3.576 75 9.441 75 16.727v50.122C75 74.135 69.244 80 62.094 80H12.906C5.756 80 0 74.135 0 66.849z"/><path fill="#2e73b8" d="M0 13.151C0 5.865 5.756 0 12.906 0h49.189C69.244 0 75 5.865 75 13.151v50.123c0 7.286-5.756 13.151-12.906 13.151H12.906C5.756 76.424 0 70.559 0 63.273z"/><path d="M64.387 24.139v-5.768h-7.076v-7.21h-5.66v7.21h-2.83v-7.21h-5.66v7.21h-2.83v-7.21h-5.66v7.21h-2.83v-7.21h-5.66v7.21h-2.83v-7.21h-5.66v7.21h-7.075v5.768h7.075v2.884h-7.075v5.768h7.075v2.884h-7.075v5.768h7.075v2.884h-7.075v5.768h7.075v2.884h-7.075v5.768h7.075v7.21h5.66v-7.21h2.83v7.21h5.66v-7.21h2.83v7.21h5.66v-7.21h2.83v7.21h5.66v-7.21h2.83v7.21h5.66v-7.21h7.076v-5.768h-7.076v-2.884h7.076v-5.768h-7.076v-2.884h7.076v-5.768h-7.076V32.79h7.076v-5.768h-7.076v-2.884h7.076z"/><path fill="#2e73b8" d="M26.179 25.58h14.052c1.87-.118 3.703.571 5.049 1.899s2.082 3.172 2.027 5.08c.143 2.843-1.594 5.433-4.245 6.33v.072c2.83.707 3.708 3.691 3.892 6.244.099 1.601.283 4.874 1.274 6.316h-5.434c-.665-1.442-.594-4.138-.877-6.172-.382-2.668-1.415-3.922-4.245-3.922h-5.83v10.094h-5.66zm5.66 11.536h6.41c2.462 0 3.807-1.096 3.807-3.663s-1.344-3.547-3.806-3.547h-6.41z"/></g></symbol></svg>