<svg xmlns="http://www.w3.org/2000/svg" xmlns:xlink="http://www.w3.org/1999/xlink" fill="#fff" fill-rule="evenodd" stroke="#000" stroke-linecap="round" stroke-linejoin="round" viewBox="0 0 63.75 85"><use xlink:href="#a" x="1.875" y="2.5"/><symbol id="a" overflow="visible"><path fill="#19486f" stroke="none" d="M60 11.271c0 4.237-13.433 7.768-30 7.768S0 15.565 0 11.271V7.768l30-4.237 30 4.237zM30 25.254 0 68.729v3.503C0 76.469 13.433 80 30 80s30-3.475 30-7.768v-3.503z"/><path fill="#2e73b8" stroke="none" d="M0 7.768C0 3.465 13.38 0 30 0s30 3.465 30 7.768-13.38 7.768-30 7.768S0 12.072 0 7.768zm30 13.983c-16.567 0-30-3.475-30-7.768v54.746c0 4.237 13.433 7.768 30 7.768s30-3.475 30-7.768V13.983c0 4.294-13.433 7.768-30 7.768z"/><path stroke="none" d="M23.263 55.424c.22 4.675 3.039 6.172 7.314 6.172 3.025 0 6.173-1.116 6.173-4.054 0-3.503-5.5-4.237-11.095-5.777S14.34 47.529 14.34 40.311c0-8.672 8.497-12.062 15.756-12.062 7.685 0 15.426 3.842 15.481 12.783H35.499c.165-3.616-3.135-4.788-6.228-4.788-2.158 0-4.867.777-4.867 3.39 0 3.065 5.568 3.616 11.205 5.226s11.205 4.237 11.205 11.455c0 10.056-8.346 13.347-16.815 13.347-8.882 0-16.719-3.997-16.774-14.124z"/></symbol></svg>