<svg xmlns="http://www.w3.org/2000/svg" xmlns:xlink="http://www.w3.org/1999/xlink" fill="#fff" fill-rule="evenodd" stroke="#000" stroke-linecap="round" stroke-linejoin="round" viewBox="0 0 79.688 85"><use xlink:href="#a" x="2.344" y="2.5"/><symbol id="a" overflow="visible"><g stroke="none"><path fill="#19486f" d="M0 16.727C0 9.441 5.756 3.576 12.906 3.576h49.189C69.244 3.576 75 9.441 75 16.727v50.122C75 74.135 69.244 80 62.094 80H12.906C5.756 80 0 74.135 0 66.849z"/><path fill="#2e73b8" d="M0 13.151C0 5.865 5.756 0 12.906 0h49.189C69.244 0 75 5.865 75 13.151v50.123c0 7.286-5.756 13.151-12.906 13.151H12.906C5.756 76.424 0 70.559 0 63.273z"/><path d="M3.538 11.997h3.524a2.8 2.8 0 0 1 2.327.887 2.92 2.92 0 0 1 .744 2.415 3.103 3.103 0 0 1-.861 2.447 2.98 2.98 0 0 1-2.394.898H5.321v4.686H3.538zm1.769 5.278h1.259a1.67 1.67 0 0 0 1.336-.547 1.74 1.74 0 0 0 .433-1.4c0-1.226-.481-1.961-1.896-1.961H5.307zm8.773-2.711c2.448 0 3.127 1.846 3.127 4.485s-.792 4.485-3.127 4.485-3.113-1.846-3.113-4.485.693-4.485 3.113-4.485zm0 7.714c1.231 0 1.415-1.053 1.415-3.216 0-1.889-.212-3.215-1.415-3.215s-1.415 1.326-1.415 3.215c-.014 2.192.212 3.216 1.415 3.216zm8.081-5.004v-.216c0-.678-.241-1.312-1.104-1.312s-1.203.317-1.203 1.11.297.937 1.189 1.254l1.076.375c1.138.224 1.926 1.289 1.825 2.466 0 1.831-1.302 2.595-3 2.595-2.123 0-2.759-.995-2.759-2.653v-.317h1.486v.274c0 .981.34 1.529 1.302 1.529s1.415-.476 1.415-1.255a1.238 1.238 0 0 0-.92-1.255l-1.415-.49c-1.123-.231-1.893-1.29-1.783-2.451 0-1.601 1.132-2.35 2.83-2.35 2.137 0 2.618 1.269 2.618 2.336v.375zm2.434-2.494h1.146v-2.422h1.684v2.422h1.415v1.269h-1.415v5.09c0 .663.184.908.764.908a3.25 3.25 0 0 0 .608 0v1.269c-.464.11-.939.158-1.415.144-1.132 0-1.698-.317-1.698-2.062v-5.35h-1.146zm6.721 9.272c.025.301.168.578.398.768s.525.278.819.241c.404.002.79-.171 1.06-.477a1.46 1.46 0 0 0 .355-1.124v-1.442a2.02 2.02 0 0 1-1.896 1.168c-1.967 0-2.505-1.961-2.505-4.326 0-1.874.283-4.326 2.66-4.326a1.87 1.87 0 0 1 1.84 1.269V14.75h1.585v8.118c0 2.076-.877 3.331-3.127 3.331-2.491 0-2.83-1.442-2.83-2.192zm1.189-2.163c1.302 0 1.415-1.687 1.415-3.028s-.17-2.884-1.344-2.884-1.415 1.269-1.415 2.884.099 3.028 1.344 3.028zm4.67-7.109h1.74v1.327a2.074 2.074 0 0 1 1.953-1.557 1.28 1.28 0 0 1 .41 0v1.745a3.08 3.08 0 0 0-.708-.101c-.764 0-1.684.346-1.684 1.932v5.104h-1.712zm6.41 4.499v.534c0 1.139.142 2.595 1.415 2.595s1.344-1.442 1.344-1.903h1.585a2.92 2.92 0 0 1-.799 2.205 2.8 2.8 0 0 1-2.144.866c-1.415 0-3.071-.418-3.071-4.326 0-2.235.467-4.614 3.099-4.614 2.335 0 2.958 1.442 2.958 3.807v.909zm2.689-1.168v-.461c0-1.082-.34-1.903-1.288-1.903s-1.415 1.081-1.415 2.192v.173zm4.598 1.702v.288c0 1.442.594 2.076 1.825 2.076a1.55 1.55 0 0 0 1.2-.441c.32-.314.497-.75.483-1.203.07-.991-.62-1.871-1.585-2.019l-1.217-.433c-1.419-.316-2.403-1.636-2.321-3.115a3.14 3.14 0 0 1 .998-2.417 3.02 3.02 0 0 1 2.455-.784c2.83 0 3.142 1.802 3.142 2.985v.259h-1.769v-.245c0-1.024-.453-1.63-1.556-1.63a1.4 1.4 0 0 0-1.129.452 1.46 1.46 0 0 0-.371 1.178c0 .966.481 1.442 1.67 1.918l1.203.447c1.377.291 2.336 1.569 2.25 2.999 0 2.408-1.415 3.418-3.679 3.418a3.023 3.023 0 0 1-2.513-.897 3.15 3.15 0 0 1-.87-2.564v-.274zm11.958 3.345a3.397 3.397 0 0 1-1.741.375c-2.547 0-3.679-1.846-3.679-5.883s1.118-5.883 3.679-5.883 3.679 1.846 3.679 5.883a9.35 9.35 0 0 1-.877 4.484l1.132 1.226-1.061.966zm-.934-2.971.736.75a10.54 10.54 0 0 0 .34-3.331c0-3.807-.835-4.47-1.896-4.47s-1.896.663-1.896 4.47.835 4.571 1.896 4.571a1.7 1.7 0 0 0 .637-.115l-.835-.807zm4.415-8.19h1.769v9.805h4.245v1.528h-6.014z"/></g></symbol></svg>