<svg xmlns="http://www.w3.org/2000/svg" xmlns:xlink="http://www.w3.org/1999/xlink" fill="#fff" fill-rule="evenodd" stroke="#000" stroke-linecap="round" stroke-linejoin="round" viewBox="0 0 63.75 85"><use xlink:href="#a" x="1.875" y="2.5"/><symbol id="a" overflow="visible"><path fill="#19486f" stroke="none" d="M60 11.271c0 4.237-13.433 7.768-30 7.768S0 15.565 0 11.271V7.768l30-4.237 30 4.237zM30 25.254 0 68.729v3.503C0 76.469 13.433 80 30 80s30-3.475 30-7.768v-3.503z"/><path fill="#2e73b8" stroke="none" d="M0 7.768C0 3.465 13.38 0 30 0s30 3.465 30 7.768-13.38 7.768-30 7.768S0 12.072 0 7.768zm30 13.983c-16.567 0-30-3.475-30-7.768v54.746c0 4.237 13.433 7.768 30 7.768s30-3.475 30-7.768V13.983c0 4.294-13.433 7.768-30 7.768z"/><path stroke="none" d="M15.591 31.85h17.654c6.118 0 12.127 2.825 12.127 10.014.192 3.872-2.011 7.448-5.5 8.926v.099c3.685.904 4.757 5.141 5.046 8.474.096 1.497.248 6.723 1.457 8.023H37.52c-.784-1.201-.921-4.689-1.017-5.65-.248-3.587-.825-7.274-5.046-7.274h-6.874v12.966h-8.992zm9.019 15.452h7.576c1.13.138 2.259-.264 3.063-1.09s1.196-1.986 1.061-3.147c0-2.641-2.035-3.842-4.565-3.842H24.61z"/></symbol></svg>