<svg xmlns="http://www.w3.org/2000/svg" xmlns:xlink="http://www.w3.org/1999/xlink" fill="#fff" fill-rule="evenodd" stroke="#000" stroke-linecap="round" stroke-linejoin="round" viewBox="0 0 79.688 85"><use xlink:href="#a" x="2.344" y="2.5"/><symbol id="a" overflow="visible"><g stroke="none"><path fill="#19486f" d="M0 16.727C0 9.441 5.756 3.576 12.906 3.576h49.189C69.244 3.576 75 9.441 75 16.727V66.85C75 74.135 69.244 80 62.094 80H12.906C5.756 80 0 74.135 0 66.849z"/><path fill="#2e73b8" d="M0 13.151C0 5.865 5.756 0 12.906 0h49.189C69.244 0 75 5.865 75 13.151v50.123c0 7.286-5.756 13.151-12.906 13.151H12.906C5.756 76.424 0 70.559 0 63.273z"/><path d="M12.297 8.104c4.429 0 4.981 3.216 4.981 7.758s-.552 7.758-4.981 7.758-4.981-3.215-4.981-7.758.552-7.758 4.981-7.758zm0 13.295c1.741 0 2.024-1.528 2.024-5.537s-.283-5.537-2.024-5.537-2.038 1.543-2.038 5.537.354 5.537 2.038 5.537zm6.198-13.006h5.462a3.427 3.427 0 0 1 2.856.969 3.57 3.57 0 0 1 1.035 2.881c0 1.99-.778 3.316-2.434 3.677 2.01.274 2.321 1.442 2.363 4.557 0 1.572.099 2.379.651 2.682v.13H25.23a2.93 2.93 0 0 1-.368-1.572l-.085-2.884c0-1.168-.552-1.875-1.741-1.875h-1.585v6.316h-2.957zm2.957 6.518h1.231a1.9 1.9 0 0 0 1.672-.538c.44-.443.645-1.074.55-1.697a1.867 1.867 0 0 0-.518-1.559 1.79 1.79 0 0 0-1.533-.517h-1.415zm11.265-6.519h3.651l3.877 14.924h-3.071l-.679-3.158h-3.892l-.679 3.158h-3.071zm.396 9.301h2.83l-1.415-6.705zm13.727-4.254c0-2.177-.424-3.115-1.769-3.115s-1.84 1.528-1.84 5.768c0 4.513.609 5.335 1.882 5.335s1.84-.562 1.84-3.778h2.958c0 3.216-.778 5.999-4.656 5.999-4.429 0-4.981-3.216-4.981-7.758s.552-7.758 4.981-7.758 4.528 3.158 4.528 5.335zm4.132 9.877V8.392h2.958v12.459h5.236v2.466zM68.193 8.392v2.466h-5.222v3.518h4.924v2.466h-4.924v4.009h5.434v2.466h-8.391V8.392z"/></g></symbol></svg>