<svg xmlns="http://www.w3.org/2000/svg" xmlns:xlink="http://www.w3.org/1999/xlink" fill="#fff" fill-rule="evenodd" stroke="#000" stroke-linecap="round" stroke-linejoin="round" viewBox="0 0 79.688 85"><use xlink:href="#a" x="2.344" y="2.5"/><symbol id="a" overflow="visible"><g stroke="none"><path fill="#19486f" d="M12.906 3.106h49.189a12.89 12.89 0 0 1 9.126 3.789A12.955 12.955 0 0 1 75 16.042v21.716c-2.547-1.319-8.123-2.723-16.373-2.723a59.9 59.9 0 0 0-9.439.709c-5.561.922-8.491 2.511-8.491 3.489v36.88c0 .61.835 1.418 2.42 2.213H12.906a12.89 12.89 0 0 1-9.126-3.789A12.95 12.95 0 0 1 0 65.39V16.057A12.95 12.95 0 0 1 3.775 6.9a12.89 12.89 0 0 1 9.131-3.794z"/><path fill="#2e73b8" d="M12.906 0h49.189a12.89 12.89 0 0 1 9.126 3.789A12.955 12.955 0 0 1 75 12.936v21.702c-2.547-1.319-8.123-2.723-16.373-2.723a59.9 59.9 0 0 0-9.439.709c-5.561.922-8.491 2.511-8.491 3.489v36.88c0 .61.835 1.418 2.42 2.213H12.906a12.89 12.89 0 0 1-9.126-3.789A12.95 12.95 0 0 1 0 62.27V12.936C0 5.792 5.778 0 12.906 0z"/><path fill="#19486f" d="M59.929 41.816a50.19 50.19 0 0 0-7.925.596 23.28 23.28 0 0 1-7.075-.624v3.546c0 .823 2.476 2.156 7.075 2.908a47.91 47.91 0 0 0 7.925.596c9.764 0 15.071-2.312 15.071-3.504v-3.546zM44.576 52.227v24.256c0 1.234 4.245 3.504 14.321 3.504a45.555 45.555 0 0 0 12.439-1.418c2.01-.653 3.439-1.418 3.594-1.943V52.511c-2.943 1.83-9.014 2.837-15.042 2.837h-2.505l-1.486-.255h-.764l-1.189-.099-.637-.099-1.273-.17a20.156 20.156 0 0 1-7.458-2.496z"/><path fill="#2e73b8" d="M59.929 38.285a50.19 50.19 0 0 0-7.925.596c-4.67.78-7.075 2.113-7.075 2.922s2.476 2.156 7.075 2.908a47.92 47.92 0 0 0 7.925.596c9.764 0 15.071-2.312 15.071-3.504s-5.307-3.518-15.071-3.518zM44.576 48.681v24.255c0 1.234 4.245 3.504 14.321 3.504a45.517 45.517 0 0 0 12.439-1.419c2.01-.652 3.439-1.418 3.594-1.943V48.965c-2.943 1.83-9.014 2.837-15.042 2.837h-2.505l-1.486-.255h-.764l-1.189-.213h-.637l-1.273-.17a20.164 20.164 0 0 1-7.458-2.482z"/><path fill="#19486f" d="M12.906 75.178H43.09v3.106H12.906a12.89 12.89 0 0 1-9.126-3.789A12.95 12.95 0 0 1 0 65.348v-3.121a12.95 12.95 0 0 0 3.775 9.157 12.89 12.89 0 0 0 9.131 3.794z"/><path d="M10.967 8.894h4.387l2.094 10.369 2.108-10.369h4.372v14.681h-2.66V11.859l-2.604 11.716h-2.391l-2.547-11.716v11.716h-2.759zm14.575 16.184a4.52 4.52 0 0 0 .736 0c1.047 0 1.415-.582 1.514-1.56L24.764 12.51h2.83l1.698 7.617 1.415-7.645h2.83l-2.66 10.326c-.991 3.83-1.628 4.355-4.245 4.355h-1.146zm12.595-6.084v.425c0 1.418.396 2.255 1.953 2.255a1.68 1.68 0 0 0 1.294-.506 1.69 1.69 0 0 0 .474-1.309c0-1.333-.679-1.83-2.632-2.511-2.632-.908-3.835-2-3.835-4.44 0-2.837 1.74-4.255 4.528-4.255s4.528 1.135 4.528 3.943v.44h-2.83c0-1.418-.467-2.184-1.599-2.184a1.51 1.51 0 0 0-1.258.438 1.52 1.52 0 0 0-.426 1.264c0 .908.269 1.418 1.514 2l2.279.993c2.222.965 2.83 2.099 2.83 3.886 0 3.106-1.882 4.497-5.08 4.497s-4.655-1.56-4.655-4.255v-.681zM54.34 25.39l-1.741-1.816a3.84 3.84 0 0 1-.905.227 7.95 7.95 0 0 1-1.047 0c-4.43 0-4.981-3.163-4.981-7.631s.552-7.631 4.981-7.631 4.981 3.163 4.981 7.631a10.76 10.76 0 0 1-1.132 5.957l1.585 1.603zm-3.693-3.702c1.74 0 2.023-1.503 2.023-5.447s-.283-5.447-2.023-5.447-2.038 1.518-2.038 5.447.297 5.447 2.038 5.447zm6.282 1.887V8.894h2.958v12.255h5.236v2.425zm-5.278 30.596h4.627l3.283 13.801 3.34-13.801h4.528v18.681h-2.83v-15.49l-3.778 15.49h-2.505l-3.736-15.49v15.49h-2.929z"/></g></symbol></svg>