<svg xmlns="http://www.w3.org/2000/svg" xmlns:xlink="http://www.w3.org/1999/xlink" fill="#fff" fill-rule="evenodd" stroke="#000" stroke-linecap="round" stroke-linejoin="round" viewBox="0 0 79.688 85"><use xlink:href="#a" x="2.344" y="2.5"/><symbol id="a" overflow="visible"><g stroke="none"><path fill="#19486f" d="M12.906 3.107h49.189a12.89 12.89 0 0 1 9.126 3.789A12.955 12.955 0 0 1 75 16.043V37.76c-2.547-1.319-8.123-2.723-16.373-2.723a59.781 59.781 0 0 0-9.439.709c-5.561.922-8.491 2.511-8.491 3.489v36.88c0 .61.835 1.418 2.42 2.213H12.906a12.89 12.89 0 0 1-9.126-3.789A12.954 12.954 0 0 1 0 65.391V16.057A12.95 12.95 0 0 1 3.775 6.9a12.89 12.89 0 0 1 9.131-3.794z"/><path fill="#2e73b8" d="M12.906 0h49.189a12.89 12.89 0 0 1 9.126 3.789A12.955 12.955 0 0 1 75 12.936v21.702c-2.547-1.319-8.123-2.723-16.373-2.723a59.9 59.9 0 0 0-9.439.709c-5.561.922-8.491 2.511-8.491 3.489v36.88c0 .61.835 1.419 2.42 2.213H12.906a12.89 12.89 0 0 1-9.126-3.789A12.952 12.952 0 0 1 0 62.27V12.936C0 5.792 5.778 0 12.906 0z"/><path fill="#19486f" d="M59.929 41.816a50.19 50.19 0 0 0-7.925.596 23.27 23.27 0 0 1-7.075-.624v3.546c0 .823 2.476 2.156 7.075 2.908a47.93 47.93 0 0 0 7.925.596c9.764 0 15.071-2.312 15.071-3.504v-3.546zM44.575 52.227v24.256c0 1.234 4.245 3.504 14.321 3.504a45.555 45.555 0 0 0 12.439-1.418c2.009-.653 3.439-1.418 3.594-1.943V52.511c-2.943 1.83-9.014 2.837-15.042 2.837h-2.505l-1.486-.255h-.764l-1.189-.099-.637-.099-1.273-.17a20.156 20.156 0 0 1-7.458-2.496z"/><path fill="#2e73b8" d="M59.929 38.285a50.07 50.07 0 0 0-7.925.596c-4.67.78-7.075 2.113-7.075 2.922s2.476 2.156 7.075 2.908a47.92 47.92 0 0 0 7.925.596c9.764 0 15.071-2.312 15.071-3.504s-5.307-3.518-15.071-3.518zM44.575 48.681v24.255c0 1.234 4.245 3.504 14.321 3.504a45.517 45.517 0 0 0 12.439-1.419c2.009-.652 3.439-1.418 3.594-1.943V48.965c-2.943 1.83-9.014 2.837-15.042 2.837h-2.505l-1.486-.255h-.764l-1.189-.213h-.637l-1.273-.17a20.164 20.164 0 0 1-7.458-2.482z"/><path fill="#19486f" d="M12.906 75.177H43.09v3.106H12.906a12.89 12.89 0 0 1-9.126-3.789A12.948 12.948 0 0 1 0 65.348v-3.121a12.95 12.95 0 0 0 3.775 9.157 12.89 12.89 0 0 0 9.131 3.794z"/><path d="M51.651 54.171h4.627l3.283 13.801 3.34-13.801h4.528v18.681h-2.83V57.363l-3.778 15.489h-2.505L54.58 57.363v15.489h-2.929z"/></g></symbol></svg>