<svg xmlns="http://www.w3.org/2000/svg" viewBox="0 0 72 72"><path fill="#3C6EB4" d="M36.003 6.429c-16.309 0-29.574 13.198-29.574 29.419 0 16.223 13.265 29.419 29.574 29.419 16.304 0 29.569-13.197 29.569-29.42S52.306 6.43 36.003 6.43z"/><path fill="#DB3279" d="M36.003 9.128c-4.756 0-8.789 7.568-10.246 18.086a63.388 63.388 0 0 0-.533 6.174 61.986 61.986 0 0 0 0 4.92 63.42 63.42 0 0 0 .401 5.15c2.23.286 4.615.481 7.101.574 1.076.04 2.167.064 3.277.064 1.107 0 2.201-.024 3.273-.064a78.797 78.797 0 0 0 7.104-.575c.246-.031.487-.065.732-.1 9.288-1.298 15.749-4.17 15.749-7.509 0-14.758-12.026-26.72-26.858-26.72z"/><path fill="#fff" d="M47.111 28.337c-.27-.39-.558-.765-.866-1.125a13.423 13.423 0 0 0-10.243-4.726c-1.332 0-2.517 2.027-3.277 5.176a31.271 31.271 0 0 0-.686 4.242c-.119 1.246-.183 2.571-.183 3.942s.064 2.696.183 3.94c1.253.12 2.583.183 3.963.183a42.3 42.3 0 0 0 3.961-.182c2.755-.26 5.133-.787 6.817-1.481 1.664-.685 2.648-1.537 2.648-2.46 0-2.783-.854-5.369-2.317-7.509z"/></svg>