<svg xmlns="http://www.w3.org/2000/svg" viewBox="0 0 14 14"><path d="M1.72 6.622a5.314 5.213 0 0 0-.03.576 5.314 5.213 0 0 0 5.346 5.15 5.314 5.213 0 0 0 5.273-4.956 5.314 5.213 0 0 1-5.251 4.681 5.314 5.213 0 0 1-5.346-5.15 5.314 5.213 0 0 1 .008-.301Z" style="fill:#1d6eac;fill-opacity:1;stroke:#fa0000;stroke-width:0;stroke-linecap:round;stroke-linejoin:round"/><path d="M6.91 1.65a5.314 5.213 0 0 0-5.22 5.274 5.314 5.213 0 0 0 .026.437 5.314 5.213 0 0 1-.008-.149 5.314 5.213 0 0 1 5.22-5.274 5.314 5.213 0 0 1 5.382 4.698 5.314 5.213 0 0 0-5.4-4.986Z" style="fill:#3c86fd;fill-opacity:1;stroke:#fa0000;stroke-width:0;stroke-linecap:round;stroke-linejoin:round"/><path d="M6.916 1.65a5.314 5.213 0 0 0-.001 0 5.314 5.213 0 0 1 .025 0 5.314 5.213 0 0 0-.024 0zm.366.007a5.314 5.213 0 0 1 .208.017 5.314 5.213 0 0 0-.208-.017zm-.763.015a5.314 5.213 0 0 0-.015.001 5.314 5.213 0 0 1 .015-.001zm1.127.016a5.314 5.213 0 0 1 .25.037 5.314 5.213 0 0 0-.25-.037zm-1.52.034a5.314 5.213 0 0 0-.028.006 5.314 5.213 0 0 1 .029-.006zm1.877.021a5.314 5.213 0 0 1 .273.06 5.314 5.213 0 0 0-.273-.06Zm-2.268.06a5.314 5.213 0 0 0-.021.005 5.314 5.213 0 0 1 .021-.006zm2.615.018a5.314 5.213 0 0 1 .294.084 5.314 5.213 0 0 0-.294-.084Zm-3.005.092a5.314 5.213 0 0 0-.004 0 5.314 5.213 0 0 1 .004 0zm3.34.005a5.314 5.213 0 0 1 3.625 4.718 5.314 5.213 0 0 0-5.383-4.698A5.314 5.213 0 0 0 1.714 6.97a5.314 5.213 0 0 0 5.344 5.105 5.314 5.213 0 0 0 5.208-4.367 5.314 5.213 0 0 0 .028-.314 5.314 5.213 0 0 0 .03-.532v-.124a5.314 5.213 0 0 0-3.64-4.82Zm-6.991 4.84a5.314 5.213 0 0 0-.019.442 5.314 5.213 0 0 0 4.282 5.049 5.314 5.213 0 0 1-4.266-5.05 5.314 5.213 0 0 1 .003-.158 5.314 5.213 0 0 1-.004-.117 5.314 5.213 0 0 1 .004-.165zm4.268 5.491a5.314 5.213 0 0 0 .345.057 5.314 5.213 0 0 1-.345-.057zm.402.063a5.314 5.213 0 0 0 .3.028 5.314 5.213 0 0 1-.3-.028zm.521.035a5.314 5.213 0 0 0 .136.004 5.314 5.213 0 0 0 .006 0 5.314 5.213 0 0 1-.142-.004z" style="fill:#2399fe;fill-opacity:1;stroke:#fa0000;stroke-width:0;stroke-linecap:round;stroke-linejoin:round"/><path d="M7.79 5.52c-.078-.036-.098-.203.085-.186.677.211 1.205.569 1.669.997.023.039-.002.09-.066.091-.071 0-.143-.002-.214-.017a.639.639 0 0 1-.146-.067c-.287-.358-.84-.57-1.329-.817Z" style="fill:#1d60b0;fill-opacity:1;stroke:#000;stroke-width:0;stroke-linecap:butt;stroke-linejoin:miter;stroke-miterlimit:4;stroke-dasharray:none;stroke-opacity:1"/><path d="M10.208 7.196c.018.022.019.044.003.066a.441.441 0 0 0-.301.19c-.02.012-.04.022-.067.001-.09-.193-.326-.289-.548-.393-.1-.039-.187-.092-.192-.243 0-.046-.025-.08-.096-.11a6.203 6.203 0 0 0-.864-.345c-.3-.095-.578-.177-.996-.029-.308.14-.512.39-.532.844.067.588.409.815.89.857l.694.044c.745.09 1.49.195 2.202.83.227.238.422.526.517.972-.021.116-.141.13-.213.022-.257-.71-.74-.958-1.234-1.182.725.65 1.023 1.377 1.044 2.152-.04.14-.168.113-.2.016-.149-.855-.506-1.424-.957-1.865-.396-.35-.897-.534-1.522-.522-.788.01-1.42-.231-1.633-1.1-.098-.793.256-1.124.634-1.43-.068-.103-.122-.25-.186-.384-1.028.057-2.283.37-3.943 1.192-.124.052-.225-.05-.108-.161 1.311-.867 2.5-1.137 3.466-1.346-1.413-.057-2.743.107-4.077.263-.162-.024-.115-.188-.02-.197 1.362-.28 2.772-.42 4.226-.43-1.099-.352-2.441-.469-3.75-.564-.077-.012-.094-.148.043-.146a40.477 40.477 0 0 1 2.031.013 7.2 7.2 0 0 1 2.323.521l.002.512c.026.289.193.39.395.478.085.034.148.068.298.072l.222.008c.555.112 1.008.36 1.45.624l.22.017c.126.004.162.052.198.1l.17.311c.034.039.037.07-.003.085-.013.018-.015.032.005.046.12.118.256.19.41.211z" style="fill:#1b60ae;fill-opacity:1;stroke:#000;stroke-width:0;stroke-linecap:butt;stroke-linejoin:miter;stroke-miterlimit:4;stroke-dasharray:none;stroke-opacity:1"/><path d="M7.805 5.334c-.077-.037-.097-.204.086-.186.677.21 1.205.568 1.669.996.023.039-.002.09-.065.092-.072 0-.144-.003-.215-.018a.639.639 0 0 1-.146-.067c-.287-.358-.84-.57-1.329-.817Z" style="fill:#fdfdf8;fill-opacity:1;stroke:#000;stroke-width:0;stroke-linecap:butt;stroke-linejoin:miter;stroke-miterlimit:4;stroke-dasharray:none;stroke-opacity:1"/><path d="M10.224 7.01c.018.021.019.043.003.065a.441.441 0 0 0-.301.19c-.02.013-.04.022-.067.002-.09-.194-.326-.29-.548-.394-.1-.039-.187-.092-.192-.243 0-.046-.025-.08-.096-.11a6.203 6.203 0 0 0-.864-.345c-.3-.094-.578-.177-.996-.028-.308.138-.512.389-.532.843.067.588.409.816.891.858l.693.043c.745.09 1.49.195 2.202.831.227.237.422.526.517.971-.021.116-.141.13-.213.023-.257-.71-.74-.959-1.234-1.183.725.651 1.023 1.377 1.044 2.152-.039.14-.168.113-.2.017-.149-.855-.506-1.425-.957-1.866-.396-.35-.897-.533-1.522-.522-.788.01-1.42-.231-1.633-1.1-.098-.793.256-1.124.634-1.43-.068-.102-.122-.25-.186-.384-1.028.057-2.283.371-3.942 1.192-.125.052-.226-.05-.109-.16 1.311-.868 2.5-1.138 3.466-1.346-1.413-.058-2.743.106-4.077.262-.162-.024-.115-.188-.02-.197 1.362-.28 2.772-.42 4.226-.43-1.099-.351-2.441-.469-3.75-.563-.077-.013-.094-.15.043-.147a40.474 40.474 0 0 1 2.032.013 7.2 7.2 0 0 1 2.322.522l.002.51c.026.29.193.39.395.479.085.035.148.068.298.072l.222.009c.555.11 1.008.359 1.45.623l.22.018c.127.003.162.051.198.099l.17.311c.034.039.037.07-.003.085-.013.018-.015.032.005.046.12.118.256.19.41.211z" style="fill:#fffefa;fill-opacity:1;stroke:#000;stroke-width:0;stroke-linecap:butt;stroke-linejoin:miter;stroke-miterlimit:4;stroke-dasharray:none;stroke-opacity:1"/></svg>