<?xml version="1.0" encoding="UTF-8" standalone="no"?>
<!-- Created with Inkscape (http://www.inkscape.org/) -->

<svg
   width="14mm"
   height="14mm"
   viewBox="0 0 14 14"
   version="1.1"
   id="svg1639"
   inkscape:version="1.1.2 (0a00cf5339, 2022-02-04)"
   sodipodi:docname="kali.svg"
   xmlns:inkscape="http://www.inkscape.org/namespaces/inkscape"
   xmlns:sodipodi="http://sodipodi.sourceforge.net/DTD/sodipodi-0.dtd"
   xmlns="http://www.w3.org/2000/svg"
   xmlns:svg="http://www.w3.org/2000/svg">
  <sodipodi:namedview
     id="namedview1641"
     pagecolor="#ffffff"
     bordercolor="#999999"
     borderopacity="1"
     inkscape:pageshadow="0"
     inkscape:pageopacity="0"
     inkscape:pagecheckerboard="0"
     inkscape:document-units="mm"
     showgrid="false"
     width="14mm"
     inkscape:showpageshadow="false"
     showborder="false"
     inkscape:zoom="5.3921852"
     inkscape:cx="35.792539"
     inkscape:cy="26.24168"
     inkscape:window-width="1360"
     inkscape:window-height="744"
     inkscape:window-x="0"
     inkscape:window-y="16"
     inkscape:window-maximized="0"
     inkscape:current-layer="layer1" />
  <defs
     id="defs1636" />
  <g
     inkscape:label="Слой 1"
     inkscape:groupmode="layer"
     id="layer1">
    <path
       id="path2089-0"
       style="fill:#1d6eac;fill-opacity:1;stroke:#fa0000;stroke-width:0;stroke-linecap:round;stroke-linejoin:round"
       d="M 1.7200206,6.6219805 A 5.314338,5.2125305 0 0 0 1.6907501,7.1980046 5.314338,5.2125305 0 0 0 7.0362887,12.348517 5.314338,5.2125305 0 0 0 12.309331,7.3924868 5.314338,5.2125305 0 0 1 7.0577518,12.073014 5.314338,5.2125305 0 0 1 1.712243,6.9224718 5.314338,5.2125305 0 0 1 1.7200206,6.6219805 Z" />
    <path
       id="path2089-3-5-9"
       style="fill:#3c86fd;fill-opacity:1;stroke:#fa0000;stroke-width:0;stroke-linecap:round;stroke-linejoin:round"
       d="M 6.9092743,1.6499133 A 5.314338,5.2131987 0 0 0 1.6899807,6.924193 5.314338,5.2131987 0 0 0 1.7156036,7.3609166 5.314338,5.2131987 0 0 1 1.7081579,7.2123025 5.314338,5.2131987 0 0 1 6.9274515,1.9380234 5.314338,5.2131987 0 0 1 12.310401,6.6358712 5.314338,5.2131987 0 0 0 6.9092743,1.6499133 Z" />
    <path
       id="path2089-5-3"
       style="fill:#2399fe;fill-opacity:1;stroke:#fa0000;stroke-width:0;stroke-linecap:round;stroke-linejoin:round"
       d="m 6.9158829,1.6498549 a 5.3143379,5.2131987 0 0 0 -0.00106,5.84e-5 5.3143379,5.2131987 0 0 1 0.0249,4.083e-4 5.3143379,5.2131987 0 0 0 -0.023844,-4.667e-4 z m 0.3665882,0.00703 a 5.3143379,5.2131987 0 0 1 0.2073347,0.016994 5.3143379,5.2131987 0 0 0 -0.2073347,-0.016994 z m -0.763924,0.014813 a 5.3143379,5.2131987 0 0 0 -0.014922,0.00176 5.3143379,5.2131987 0 0 1 0.014922,-0.00176 z m 1.1271965,0.016571 a 5.3143379,5.2131987 0 0 1 0.2494462,0.037168 5.3143379,5.2131987 0 0 0 -0.2494462,-0.037168 z m -1.5192268,0.034048 a 5.3143379,5.2131987 0 0 0 -0.028125,0.00524 5.3143379,5.2131987 0 0 1 0.028125,-0.00524 z M 8.002746,1.7433677 A 5.3143379,5.2131987 0 0 1 8.2762476,1.8027401 5.3143379,5.2131987 0 0 0 8.002746,1.7433677 Z m -2.2676867,0.058917 a 5.3143379,5.2131987 0 0 0 -0.021041,0.00539 5.3143379,5.2131987 0 0 1 0.021041,-0.00539 z m 2.6152839,0.018479 A 5.3143379,5.2131987 0 0 1 8.6442224,1.9051887 5.3143379,5.2131987 0 0 0 8.3503432,1.8207637 Z M 5.3448677,1.91261 a 5.3143379,5.2131987 0 0 0 -0.00362,0.00118 5.3143379,5.2131987 0 0 1 0.00362,-0.00118 z M 8.6846766,1.91824 A 5.3143379,5.2131987 0 0 1 12.310377,6.6357796 5.3143379,5.2131987 0 0 0 6.9274282,1.9379328 5.3143379,5.2131987 0 0 0 1.7144048,6.9702063 5.3143379,5.2131987 0 0 0 7.0577431,12.075334 5.3143379,5.2131987 0 0 0 12.265732,7.7078546 a 5.3143379,5.2131987 0 0 0 0.02794,-0.3136764 5.3143379,5.2131987 0 0 0 0.0312,-0.531962 L 12.3234,6.7383809 A 5.3143379,5.2131987 0 0 0 8.6846766,1.918245 Z M 1.6936953,6.7587993 A 5.3143379,5.2131987 0 0 0 1.6751261,7.1996733 5.3143379,5.2131987 0 0 0 5.9574359,12.2487 5.3143379,5.2131987 0 0 1 1.6907413,7.1997031 a 5.3143379,5.2131987 0 0 1 0.00359,-0.158459 5.3143379,5.2131987 0 0 1 -0.00437,-0.1171398 5.3143379,5.2131987 0 0 1 0.00374,-0.165305 z m 4.2679908,5.4906887 a 5.3143379,5.2131987 0 0 0 0.3453059,0.0561 5.3143379,5.2131987 0 0 1 -0.3453059,-0.0561 z m 0.4023098,0.06204 a 5.3143379,5.2131987 0 0 0 0.3003606,0.02838 5.3143379,5.2131987 0 0 1 -0.3003606,-0.02838 z m 0.5215011,0.0352 a 5.3143379,5.2131987 0 0 0 0.1351379,0.0042 5.3143379,5.2131987 0 0 0 0.00606,-2.92e-4 5.3143379,5.2131987 0 0 1 -0.141197,-0.0039 z" />
    <path
       style="fill:#1d60b0;fill-opacity:1;stroke:#000000;stroke-width:0;stroke-linecap:butt;stroke-linejoin:miter;stroke-miterlimit:4;stroke-dasharray:none;stroke-opacity:1"
       d="m 7.7890972,5.5209328 c -0.077512,-0.03716 -0.096671,-0.204264 0.085927,-0.18654 0.6770698,0.2107454 1.2048995,0.5686134 1.668818,0.9961646 0.022736,0.039066 -0.00148,0.090492 -0.065391,0.091677 C 9.4068887,6.4218847 9.335326,6.419668 9.2637632,6.4051465 9.2130051,6.3872084 9.1628728,6.3678908 9.1177199,6.3375948 8.8305642,5.9801124 8.2780361,5.7679313 7.7890972,5.5209328 Z"
       id="path2988"
       sodipodi:nodetypes="ccccccc" />
    <path
       style="fill:#1b60ae;fill-opacity:1;stroke:#000000;stroke-width:0;stroke-linecap:butt;stroke-linejoin:miter;stroke-miterlimit:4;stroke-dasharray:none;stroke-opacity:1"
       d="m 10.208447,7.1960648 c 0.01765,0.021967 0.01822,0.043834 0.0027,0.065607 -0.149316,0.025284 -0.2356959,0.099449 -0.3013909,0.1896784 -0.019851,0.013042 -0.040658,0.022441 -0.067027,0.00207 C 9.7527068,7.2595758 9.5174006,7.1640544 9.2949733,7.0598145 9.1951055,7.0211383 9.1075751,6.9678648 9.1027253,6.8167646 9.103472,6.7707699 9.0775166,6.7373035 9.0065156,6.7061103 8.7360595,6.5694033 8.4456523,6.4612299 8.1433176,6.3618317 7.8421076,6.2673282 7.5653533,6.1845124 7.1470088,6.333337 6.8389744,6.4720753 6.6347121,6.7225948 6.6145055,7.1765173 6.6821569,7.764981 7.0236531,7.9924653 7.5059227,8.0343836 l 0.692769,0.043609 c 0.745133,0.090413 1.4894366,0.1949185 2.2024693,0.8307862 0.227154,0.2370696 0.421609,0.5256772 0.516613,0.9710411 -0.02078,0.1158034 -0.140912,0.1304411 -0.212961,0.022627 C 10.448096,9.1920004 9.9652046,8.943907 9.4706395,8.7196777 c 0.7257345,0.6512182 1.0235155,1.3773673 1.0443665,2.1520053 -0.03906,0.140702 -0.16782,0.1133 -0.200722,0.01658 C 10.166353,10.033353 9.8089979,9.4641568 9.3577487,9.0230583 8.9617092,8.6735191 8.4608633,8.4891952 7.8355276,8.5011162 7.0482068,8.5109121 6.4166184,8.2696081 6.2027083,7.4009863 6.1050869,6.6077918 6.458686,6.2770821 6.8369007,5.9716027 6.7688175,5.8682973 6.7146959,5.7216129 6.6508646,5.5865928 5.6225279,5.6437239 4.367617,5.9576599 2.7084672,6.7790836 2.5837085,6.8311047 2.4825859,6.7294338 2.6003382,6.6180468 3.9110333,5.7511581 5.0995965,5.4810025 6.0660584,5.2723465 4.6530181,5.2147768 3.3226769,5.379009 1.9890883,5.5345309 1.8267326,5.5111462 1.87416,5.346802 1.9694527,5.3375509 3.3312641,5.057422 4.7408541,4.9176804 6.1946851,4.9079335 5.096279,4.5563813 3.753591,4.4390164 2.4452894,4.3443627 2.3680939,4.3318557 2.3508331,4.1956227 2.4876814,4.1975946 3.160855,4.1837637 3.838662,4.1906268 4.5194604,4.2108485 5.4415406,4.2610291 6.1743723,4.4694903 6.84223,4.7322942 l 0.00215,0.5112712 c 0.025215,0.2893129 0.1923221,0.3895092 0.3943707,0.4780877 0.085088,0.034543 0.1482856,0.06798 0.2977998,0.072333 l 0.222404,0.00842 c 0.5549185,0.111191 1.008116,0.3592517 1.4492408,0.6235571 l 0.2214112,0.017493 c 0.12586,0.00356 0.1614794,0.051457 0.1978299,0.09899 L 9.796854,6.8540839 c 0.033875,0.03843 0.037371,0.069556 -0.00329,0.084436 -0.012188,0.018292 -0.014423,0.032643 0.00517,0.046005 0.1202424,0.1181711 0.256235,0.1903761 0.409715,0.21154 z"
       id="path4429"
       sodipodi:nodetypes="ccccccccccccccccccccccccccccccccccccccccccccc" />
    <path
       style="fill:#fdfdf8;fill-opacity:1;stroke:#000000;stroke-width:0;stroke-linecap:butt;stroke-linejoin:miter;stroke-miterlimit:4;stroke-dasharray:none;stroke-opacity:1"
       d="m 7.8051465,5.3342568 c -0.077512,-0.03716 -0.096671,-0.204264 0.085927,-0.18654 0.6770697,0.2107455 1.2048994,0.5686134 1.668818,0.9961647 0.022736,0.039066 -0.00148,0.090492 -0.065391,0.091677 C 9.422938,6.2352087 9.3513752,6.232992 9.2798125,6.2184705 9.2290543,6.2005325 9.1789221,6.1812148 9.1337691,6.1509188 8.8466134,5.7934364 8.2940854,5.5812553 7.8051465,5.3342568 Z"
       id="path2988-0"
       sodipodi:nodetypes="ccccccc" />
    <path
       style="fill:#fffefa;fill-opacity:1;stroke:#000000;stroke-width:0;stroke-linecap:butt;stroke-linejoin:miter;stroke-miterlimit:4;stroke-dasharray:none;stroke-opacity:1"
       d="m 10.224496,7.0093888 c 0.01765,0.021967 0.01822,0.043834 0.0027,0.065607 -0.149317,0.025284 -0.2356967,0.099449 -0.3013917,0.1896784 -0.019851,0.013042 -0.040658,0.022441 -0.067027,0.00207 C 9.768756,7.0728998 9.5334499,6.9773784 9.3110225,6.8731385 9.2111547,6.8344623 9.1236244,6.7811888 9.1187746,6.6300886 9.1195212,6.5840939 9.0935658,6.5506275 9.0225648,6.5194344 8.7521087,6.3827273 8.4617015,6.2745539 8.1593669,6.1751557 7.8581569,6.0806522 7.5814026,5.9978364 7.1630581,6.146661 6.8550237,6.2853993 6.6507614,6.5359188 6.6305547,6.9898413 6.6982062,7.578305 7.0397023,7.8057893 7.521972,7.8477076 l 0.6927689,0.043609 c 0.7451331,0.090413 1.4894366,0.1949185 2.2024691,0.8307862 0.227154,0.2370696 0.42161,0.5256772 0.516613,0.9710411 -0.02078,0.1158034 -0.140912,0.1304409 -0.21296,0.022627 C 10.464145,9.0053244 9.9812538,8.757231 9.4866887,8.5330017 c 0.7257353,0.6512182 1.0235163,1.3773672 1.0443663,2.1520053 -0.03906,0.140702 -0.16782,0.1133 -0.200722,0.01658 C 10.182402,9.8466771 9.8250471,9.2774809 9.373798,8.8363823 8.9777584,8.4868432 8.4769125,8.3025192 7.8515769,8.3144402 7.064256,8.3242361 6.4326676,8.0829321 6.2187581,7.2143103 6.1211361,6.4211159 6.4747353,6.0904061 6.8529499,5.7849267 6.7848668,5.6816213 6.7307451,5.5349369 6.6669139,5.3999168 5.6385772,5.4570479 4.3836662,5.7709839 2.7245164,6.5924076 2.5997578,6.6444287 2.4986352,6.5427578 2.6163874,6.4313709 3.9270825,5.5644822 5.1156457,5.2943265 6.0821076,5.0856705 4.6690673,5.0281008 3.3387261,5.192333 2.0051375,5.3478549 1.8427819,5.3244703 1.8902092,5.160126 1.985502,5.1508749 3.3473134,4.870746 4.7569033,4.7310045 6.2107344,4.7212575 5.1123283,4.3697053 3.7696403,4.2523404 2.4613386,4.1576868 2.3841432,4.1451797 2.3668824,4.0089467 2.5037306,4.0109186 c 0.6731736,-0.013831 1.3509807,-0.00697 2.0317791,0.013254 0.9220802,0.05018 1.6549119,0.2586417 2.3227696,0.5214456 l 0.00215,0.5112712 c 0.025215,0.2893129 0.192322,0.3895092 0.3943706,0.4780878 0.085088,0.034543 0.1482857,0.06798 0.2977998,0.072333 l 0.222404,0.00842 c 0.5549186,0.1111909 1.008116,0.3592516 1.4492409,0.623557 l 0.2214111,0.017493 c 0.12586,0.00356 0.1614795,0.051457 0.1978299,0.09899 L 9.8129008,6.667409 c 0.033875,0.03843 0.037371,0.069556 -0.00329,0.084436 -0.012188,0.018292 -0.014424,0.032643 0.00517,0.046005 0.1202425,0.118171 0.2562342,0.190376 0.4097142,0.2115399 z"
       id="path4429-6"
       sodipodi:nodetypes="ccccccccccccccccccccccccccccccccccccccccccccc" />
  </g>
</svg>
