<?xml version="1.0" encoding="utf-8"?>
<svg viewBox="0 0 500 500" xmlns="http://www.w3.org/2000/svg">
  <defs>
    <clipPath id="g">
      <path d="m297 782.84 2574-.043.01 398.159-2574 .044z"/>
    </clipPath>
    <clipPath id="h">
      <path d="M99.177 160.729c-23.497-4.523-38.855-27.253-34.331-50.74 0 0 .303-2.076 1.363-5.238.066-.172.131-.389.206-.584a39.5 39.5 0 0 1 .379-1.06c.477-1.235.953-2.425 1.494-3.594l.044.044c.411-.867.995-1.796 1.514-2.706 12.36 1.342 24.266 3.507 35.479 6.515l-4.221 4.547c-1.927 2.033-3.193 4.09-3.767 6.147-.595 1.991-.822 3.723-.714 5.195.119 1.623.649 3.355 1.569 5.043.942 1.732 2.013 3.118 3.215 4.135l30.045 25.759c-6.989 4.659-15.315 7.326-24.054 7.327-2.71 0-5.459-.257-8.221-.79"/>
    </clipPath>
    <mask id="i" width="1" height="1" x="0" y="0" maskUnits="userSpaceOnUse">
      <g clip-path="url(#a)">
        <path fill="url(#b)" d="M-32768 32767h65535v-65535h-65535z"/>
      </g>
    </mask>
    <clipPath id="a">
      <path d="M-32768 32767h65535v-65535h-65535z"/>
    </clipPath>
    <linearGradient id="b" x2="1" gradientTransform="scale(-140.25966 140.25966) rotate(69.775 -.76 -.409)" gradientUnits="userSpaceOnUse">
      <stop offset="0" stop-color="#fff"/>
      <stop offset="0.323" stop-color="#fff" stop-opacity="0"/>
      <stop offset="1" stop-color="#fff" stop-opacity="0"/>
    </linearGradient>
    <linearGradient id="j" x2="1" gradientTransform="scale(-140.25966 140.25966) rotate(69.775 -.76 -.409)" gradientUnits="userSpaceOnUse">
      <stop offset="0" stop-color="#fff"/>
      <stop offset="0.323" stop-color="#fff"/>
      <stop offset="1" stop-color="#fff"/>
    </linearGradient>
    <clipPath id="n">
      <path d="M116.689 123.021a36.474 36.474 0 0 1-2.641-2.272c-.649-.629-1.006-1.45-1.082-2.556-.087-1.45.216-2.639.996-3.636a39.808 39.808 0 0 1 2.792-3.269l3.29-3.375c11.062 3.83 21.235 8.506 30.478 13.809-.129 1.538-.302 3.095-.605 4.676-1.267 6.602-3.973 12.555-7.74 17.598z"/>
    </clipPath>
    <mask id="o" width="1" height="1" x="0" y="0" maskUnits="userSpaceOnUse">
      <g clip-path="url(#e)">
        <path fill="url(#f)" d="M-32768 32767h65535v-65535h-65535z"/>
      </g>
    </mask>
    <clipPath id="e">
      <path d="M-32768 32767h65535v-65535h-65535z"/>
    </clipPath>
    <linearGradient id="f" x2="1" gradientTransform="scale(-140.18479 140.18479) rotate(69.775 -.904 -.51)" gradientUnits="userSpaceOnUse">
      <stop offset="0" stop-color="#fff"/>
      <stop offset="0.323" stop-color="#fff" stop-opacity="0"/>
      <stop offset="1" stop-color="#fff" stop-opacity="0"/>
    </linearGradient>
    <linearGradient id="p" x2="1" gradientTransform="scale(-140.18479 140.18479) rotate(69.775 -.904 -.51)" gradientUnits="userSpaceOnUse">
      <stop offset="0" stop-color="#fff"/>
      <stop offset="0.323" stop-color="#fff"/>
      <stop offset="1" stop-color="#fff"/>
    </linearGradient>
    <clipPath id="k">
      <path d="M100.67 232.574c-5.627-3.291-7.542-10.542-4.242-16.17a11.529 11.529 0 0 1 3.301-3.615l-7.793-23.183c-16.028-3.443-30.077-12.144-40.294-24.223l-22.924 4.286a11.888 11.888 0 0 1-1.536 5.217c-3.291 5.628-10.543 7.512-16.17 4.221-5.628-3.29-7.533-10.542-4.243-16.149 3.009-5.151 9.329-7.164 14.676-4.934l16.083-18.4c-2.078-6.775-3.181-13.961-3.181-21.431 0-7.987 1.342-15.649 3.723-22.837 1.276-.021 2.522-.129 3.809-.129 5.682 0 11.278.196 16.82.563-3.161 6.84-5.044 14.373-5.044 22.403 0 29.679 24.049 53.748 53.726 53.748 26.408 0 48.26-19.113 52.774-44.223 6.093 4.135 11.667 8.551 16.602 13.291-.064.151-.074.325-.129.498l13.659 16.149c.119-.044.26-.066.379-.108 4.416 6.731 7.587 13.852 9.556 21.234-3.495 1.84-7.738 2.1-11.396-.043-3.313-1.948-5.293-5.282-5.726-8.832l-20.477-3.917c-10.585 12.23-25.132 20.888-41.669 24.005l-7.772 22.555c5.142 3.442 6.83 10.348 3.659 15.781a11.859 11.859 0 0 1-10.234 5.856c-2.023 0-4.07-.52-5.937-1.613"/>
    </clipPath>
    <mask id="l" width="1" height="1" x="0" y="0" maskUnits="userSpaceOnUse">
      <g clip-path="url(#c)">
        <path fill="url(#d)" d="M-32768 32767h65535v-65535h-65535z"/>
      </g>
    </mask>
    <clipPath id="c">
      <path d="M-32768 32767h65535v-65535h-65535z"/>
    </clipPath>
    <linearGradient id="d" x2="1" gradientTransform="scale(-140.2557 140.2557) rotate(69.775 -.855 -.475)" gradientUnits="userSpaceOnUse">
      <stop offset="0" stop-color="#fff"/>
      <stop offset="0.323" stop-color="#fff" stop-opacity="0"/>
      <stop offset="1" stop-color="#fff" stop-opacity="0"/>
    </linearGradient>
    <linearGradient id="m" x2="1" gradientTransform="scale(-140.2557 140.2557) rotate(69.775 -.855 -.475)" gradientUnits="userSpaceOnUse">
      <stop offset="0" stop-color="#fff"/>
      <stop offset="0.323" stop-color="#fff"/>
      <stop offset="1" stop-color="#fff"/>
    </linearGradient>
  </defs>
  <g transform="matrix(2.910093069076538, 0, 0, 2.910093069076538, -465.2894592285156, -343.4114685058594)">
    <path d="M 283.319 246.115 L 283.319 262.117 L 283.115 262.287 L 282.911 262.455 L 282.715 262.632 L 282.528 262.809 L 282.349 262.986 L 282.171 263.171 L 282.001 263.357 L 281.831 263.542 L 281.831 246.115 L 263.941 246.115 L 263.941 260.685 L 262.461 260.685 L 262.461 246.114 L 244.571 246.114 L 244.571 260.708 L 243.091 260.708 L 243.091 246.115 L 225.201 246.115 L 225.201 262.75 L 220.633 277.833 L 224.647 277.833 L 226.663 271.156 L 227.242 271.156 L 230.577 277.833 L 235.426 277.833 L 232.193 271.156 L 239.526 271.156 L 237.493 277.833 L 241.874 277.833 L 243.882 271.173 L 244.852 271.173 L 244.852 271.156 L 254.617 271.156 L 252.677 277.816 L 257.101 277.816 L 258.981 271.156 L 260.971 271.156 L 261.023 277.816 L 264.732 277.816 L 268.994 271.156 L 271.784 271.156 L 270.338 277.816 L 274.693 277.816 L 276.113 271.156 L 278.632 271.156 L 278.615 271.535 L 278.624 271.923 L 278.641 272.293 L 278.675 272.665 L 278.7 272.842 L 278.726 273.019 L 278.76 273.196 L 278.794 273.373 L 278.836 273.55 L 278.879 273.719 L 278.929 273.887 L 278.981 274.056 L 279.041 274.225 L 279.1 274.385 L 279.168 274.545 L 279.236 274.697 L 279.313 274.857 L 279.389 275.009 L 279.474 275.152 L 279.559 275.304 L 279.653 275.447 L 279.755 275.582 L 279.857 275.725 L 279.967 275.852 L 280.078 275.987 L 280.189 276.113 L 280.317 276.24 L 280.444 276.358 L 280.606 276.492 L 280.767 276.627 L 280.937 276.754 L 281.117 276.872 L 281.295 276.99 L 281.474 277.1 L 281.661 277.192 L 281.856 277.293 L 282.043 277.378 L 282.239 277.462 L 282.435 277.538 L 282.639 277.614 L 282.843 277.681 L 283.047 277.741 L 283.251 277.799 L 283.456 277.849 L 283.864 277.943 L 284.281 278.01 L 284.689 278.07 L 285.097 278.12 L 285.497 278.153 L 285.889 278.17 L 286.271 278.187 L 286.637 278.187 L 287.131 278.179 L 287.624 278.171 L 288.126 278.146 L 288.628 278.121 L 289.13 278.078 L 289.631 278.036 L 290.133 277.986 L 290.635 277.926 L 291.145 277.859 L 291.656 277.783 L 292.166 277.699 L 292.676 277.615 L 293.187 277.522 L 293.697 277.421 L 294.208 277.32 L 294.727 277.202 L 296.241 271.156 L 301.209 271.156 L 301.209 246.116 L 283.319 246.116 L 283.319 246.115 Z M 226.859 270.532 L 226.885 270.439 L 226.945 270.532 L 226.86 270.532 L 226.859 270.532 Z M 242.444 261.561 L 242.189 262.413 L 239.807 270.253 L 239.713 270.532 L 231.887 270.532 L 231.283 269.25 L 239.713 260.71 L 234.295 260.71 L 227.702 267.75 L 229.837 260.71 L 225.839 260.71 L 225.839 246.747 L 242.444 246.747 L 242.444 261.56 L 242.444 261.561 Z M 247.064 268.188 L 246.936 268.196 L 246.816 268.204 L 246.689 268.212 L 246.221 268.212 L 246.076 268.22 L 245.94 268.22 L 244.877 268.212 L 245.37 266.408 L 245.6 265.514 L 246.162 263.414 L 246.527 263.414 L 246.706 263.407 L 247.701 263.407 L 248.203 263.415 L 248.663 263.431 L 248.867 263.439 L 249.062 263.456 L 249.249 263.482 L 249.419 263.507 L 249.573 263.532 L 249.717 263.574 L 249.853 263.617 L 249.973 263.667 L 250.075 263.717 L 250.168 263.785 L 250.253 263.853 L 250.321 263.937 L 250.364 264.005 L 250.398 264.072 L 250.432 264.148 L 250.457 264.232 L 250.474 264.325 L 250.484 264.418 L 250.484 264.628 L 250.474 264.747 L 250.466 264.865 L 250.441 265 L 250.415 265.134 L 250.339 265.421 L 250.245 265.741 L 250.152 266.011 L 250.049 266.273 L 249.939 266.517 L 249.819 266.745 L 249.76 266.845 L 249.7 266.947 L 249.632 267.048 L 249.556 267.141 L 249.479 267.234 L 249.403 267.318 L 249.318 267.402 L 249.232 267.478 L 249.139 267.546 L 249.045 267.622 L 248.943 267.681 L 248.833 267.748 L 248.722 267.808 L 248.602 267.858 L 248.484 267.908 L 248.356 267.95 L 248.22 268.001 L 248.076 268.035 L 247.922 268.068 L 247.769 268.102 L 247.599 268.127 L 247.429 268.153 L 247.25 268.17 L 247.063 268.187 L 247.064 268.188 Z M 259.16 270.532 L 260.904 264.377 L 260.972 270.532 L 259.16 270.532 Z M 261.814 260.684 L 257.663 260.684 L 254.804 270.532 L 250.398 270.532 L 250.602 270.447 L 250.806 270.363 L 251.002 270.279 L 251.198 270.186 L 251.385 270.093 L 251.563 269.983 L 251.742 269.883 L 251.912 269.773 L 252.082 269.655 L 252.244 269.537 L 252.397 269.419 L 252.55 269.284 L 252.695 269.158 L 252.831 269.014 L 252.967 268.879 L 253.095 268.728 L 253.222 268.584 L 253.342 268.424 L 253.452 268.272 L 253.562 268.104 L 253.664 267.935 L 253.758 267.766 L 253.852 267.589 L 253.937 267.404 L 254.022 267.218 L 254.098 267.033 L 254.166 266.839 L 254.235 266.637 L 254.285 266.434 L 254.345 266.232 L 254.388 266.012 L 254.43 265.802 L 254.49 265.465 L 254.54 265.145 L 254.575 264.841 L 254.6 264.554 L 254.61 264.268 L 254.6 264.006 L 254.592 263.745 L 254.558 263.5 L 254.524 263.273 L 254.464 263.045 L 254.405 262.835 L 254.32 262.632 L 254.226 262.438 L 254.124 262.244 L 254.005 262.067 L 253.869 261.898 L 253.759 261.78 L 253.648 261.662 L 253.528 261.562 L 253.401 261.468 L 253.265 261.376 L 253.129 261.291 L 252.984 261.216 L 252.84 261.148 L 252.687 261.081 L 252.534 261.03 L 252.372 260.98 L 252.21 260.929 L 252.04 260.887 L 251.87 260.853 L 251.7 260.819 L 251.521 260.794 L 251.155 260.744 L 250.79 260.718 L 250.415 260.693 L 250.033 260.685 L 245.209 260.685 L 245.209 246.748 L 261.814 246.748 L 261.814 260.685 L 261.814 260.684 Z M 271.903 270.532 L 269.41 270.532 L 273.187 264.63 L 271.903 270.532 Z M 281.183 260.962 L 281.175 264.377 L 280.962 264.672 L 280.767 264.976 L 280.571 265.279 L 280.392 265.583 L 280.222 265.886 L 280.052 266.198 L 279.907 266.502 L 279.763 266.805 L 279.627 267.1 L 279.507 267.404 L 279.388 267.699 L 279.286 267.986 L 279.193 268.272 L 279.108 268.55 L 279.031 268.82 L 278.963 269.09 L 278.92 269.267 L 278.878 269.453 L 278.835 269.63 L 278.801 269.815 L 278.767 269.992 L 278.742 270.169 L 278.716 270.346 L 278.699 270.532 L 276.258 270.532 L 278.342 260.709 L 271.316 260.701 L 265.029 270.532 L 264.569 270.532 L 264.569 246.748 L 281.183 246.748 L 281.183 260.963 L 281.183 260.962 Z M 290.763 274.553 L 290.413 274.613 L 290.056 274.663 L 289.699 274.713 L 289.35 274.756 L 289.002 274.789 L 288.652 274.815 L 288.312 274.832 L 287.751 274.832 L 287.53 274.824 L 287.317 274.807 L 287.105 274.781 L 286.9 274.748 L 286.705 274.714 L 286.509 274.672 L 286.322 274.622 L 286.143 274.562 L 285.965 274.503 L 285.795 274.427 L 285.633 274.351 L 285.471 274.259 L 285.318 274.166 L 285.173 274.065 L 285.037 273.964 L 284.901 273.846 L 284.782 273.719 L 284.663 273.593 L 284.553 273.449 L 284.45 273.306 L 284.357 273.146 L 284.272 272.986 L 284.187 272.817 L 284.119 272.64 L 284.059 272.446 L 284.008 272.252 L 283.957 272.05 L 283.923 271.84 L 283.897 271.62 L 283.88 271.392 L 283.871 271.156 L 291.613 271.156 L 290.762 274.554 L 290.763 274.553 Z M 300.579 270.532 L 296.394 270.532 L 297.083 267.783 L 288.695 267.783 L 288.006 270.532 L 283.949 270.532 L 283.949 269.967 L 283.999 269.731 L 284.042 269.495 L 284.093 269.242 L 284.144 268.989 L 284.221 268.711 L 284.297 268.432 L 284.382 268.154 L 284.476 267.884 L 284.578 267.614 L 284.688 267.344 L 284.808 267.084 L 284.927 266.822 L 285.063 266.561 L 285.199 266.316 L 285.344 266.063 L 285.505 265.827 L 285.667 265.591 L 285.828 265.363 L 286.008 265.144 L 286.194 264.934 L 286.39 264.731 L 286.586 264.546 L 286.798 264.36 L 287.011 264.183 L 287.232 264.023 L 287.47 263.871 L 287.708 263.736 L 287.955 263.61 L 288.21 263.492 L 288.474 263.391 L 288.746 263.306 L 289.027 263.239 L 289.317 263.179 L 289.614 263.138 L 289.92 263.112 L 290.235 263.104 L 290.482 263.112 L 290.728 263.129 L 290.975 263.163 L 291.213 263.213 L 291.333 263.247 L 291.443 263.281 L 291.553 263.315 L 291.656 263.365 L 291.758 263.407 L 291.86 263.467 L 291.953 263.525 L 292.047 263.585 L 292.132 263.66 L 292.217 263.736 L 292.294 263.812 L 292.37 263.905 L 292.438 263.989 L 292.498 264.09 L 292.549 264.2 L 292.6 264.31 L 292.643 264.427 L 292.677 264.554 L 292.702 264.68 L 292.728 264.824 L 292.737 264.967 L 292.737 265.279 L 292.72 265.448 L 297.722 265.448 L 297.798 265.102 L 297.866 264.706 L 297.9 264.495 L 297.917 264.267 L 297.934 264.04 L 297.934 263.804 L 297.926 263.559 L 297.901 263.306 L 297.875 263.188 L 297.858 263.062 L 297.824 262.935 L 297.79 262.809 L 297.748 262.674 L 297.705 262.547 L 297.655 262.421 L 297.595 262.294 L 297.535 262.168 L 297.458 262.041 L 297.382 261.915 L 297.297 261.789 L 297.195 261.654 L 297.085 261.527 L 296.973 261.401 L 296.854 261.283 L 296.727 261.165 L 296.591 261.055 L 296.455 260.954 L 296.31 260.853 L 296.157 260.752 L 296.004 260.667 L 295.842 260.583 L 295.672 260.499 L 295.502 260.423 L 295.323 260.347 L 295.136 260.279 L 294.949 260.212 L 294.762 260.152 L 294.558 260.102 L 294.362 260.052 L 294.149 260.001 L 293.937 259.959 L 293.724 259.917 L 293.503 259.883 L 293.273 259.858 L 292.805 259.807 L 292.329 259.765 L 291.827 259.748 L 291.317 259.74 L 290.934 259.748 L 290.534 259.756 L 290.117 259.781 L 289.683 259.815 L 289.233 259.865 L 288.773 259.925 L 288.305 260 L 287.829 260.102 L 287.591 260.152 L 287.344 260.212 L 287.106 260.279 L 286.859 260.346 L 286.612 260.422 L 286.366 260.506 L 286.119 260.591 L 285.881 260.683 L 285.634 260.785 L 285.387 260.895 L 285.149 261.004 L 284.902 261.122 L 284.664 261.248 L 284.426 261.383 L 284.188 261.518 L 283.95 261.67 L 283.95 246.747 L 300.58 246.747 L 300.58 270.531 L 300.579 270.532 Z" style="fill:#003087;fill-opacity:1;stroke:#fff;stroke-width:.00846885;stroke-linecap:butt;stroke-linejoin:miter;stroke-miterlimit:10;stroke-opacity:0;stroke-dasharray:none"/>
  </g>
  <g transform="matrix(0.29100799560546875, 0, 0, 0.29100799560546875, 37.09226989746094, 190.2002716064453)">
    <path d="M 877.209 95.606 L 513.474 95.606 L 513.474 2.506 L 877.209 2.506 L 877.209 95.606 Z" style="fill:#e669a2;fill-opacity:1;fill-rule:nonzero;stroke:none;color:#000;marker:none;visibility:visible;display:inline;overflow:visible;enable-background:accumulate"/>
    <path d="M 829.965 95.606 L 513.474 95.606 L 513.474 -137.247 L 829.964 -137.247 L 829.964 95.605 L 829.965 95.606 Z" style="fill:#f3be26;fill-opacity:1;fill-rule:nonzero;stroke:none;color:#000;marker:none;visibility:visible;display:inline;overflow:visible;enable-background:accumulate"/>
    <path d="M 699.207 95.606 L 513.474 95.606 L 513.474 -230.297 L 699.207 -230.297 L 699.207 95.606 Z" style="fill:#ee9c34;fill-opacity:1;fill-rule:nonzero;stroke:none;color:#000;marker:none;visibility:visible;display:inline;overflow:visible;enable-background:accumulate"/>
    <path d="M 735.748 95.606 L 513.474 95.606 L 513.474 -193.931 L 735.748 -193.931 L 735.748 95.606 L 735.748 95.606 Z" style="fill:#f3bc87;fill-opacity:1;fill-rule:nonzero;stroke:none;color:#000;marker:none;visibility:visible;display:inline;overflow:visible;enable-background:accumulate"/>
    <path d="M 513.422 -193.877 L 513.422 95.576 L 699.187 95.576 L 699.187 -193.876 L 513.422 -193.876 L 513.422 -193.877 Z" style="fill:#e3721c;fill-opacity:1;fill-rule:nonzero;stroke:none;color:#000;marker:none;visibility:visible;display:inline;overflow:visible;enable-background:accumulate"/>
    <path d="M 327.225 95.606 L 513.474 95.606 L 513.474 142.161 L 327.225 142.161 L 327.225 95.606 Z" style="fill:#ad1b02;fill-opacity:1;fill-rule:nonzero;stroke:none;color:#000;marker:none;visibility:visible;display:inline;overflow:visible;enable-background:accumulate"/>
    <path d="M 513.422 -137.297 L 513.422 95.576 L 735.854 95.576 L 735.854 -137.297 L 513.422 -137.297 Z" style="fill:#e88d14;fill-opacity:1;fill-rule:nonzero;stroke:none;color:#000;marker:none;visibility:visible;display:inline;overflow:visible;enable-background:accumulate"/>
    <path d="M 513.422 -137.297 L 513.422 95.576 L 699.187 95.576 L 699.187 -137.297 L 513.422 -137.297 Z" style="fill:#d85604;fill-opacity:1;fill-rule:nonzero;stroke:none;color:#000;marker:none;visibility:visible;display:inline;overflow:visible;enable-background:accumulate"/>
    <path d="M 629.623 95.606 L 513.473 95.606 L 513.473 -44.157 L 629.623 -44.157 L 629.623 95.605 L 629.623 95.606 Z" style="fill:#c14303;fill-opacity:1;fill-rule:nonzero;stroke:none;color:#000;marker:none;visibility:visible;display:inline;overflow:visible;enable-background:accumulate"/>
    <path d="M 513.422 2.573 L 513.422 95.576 L 830.072 95.576 L 830.072 2.573 L 513.422 2.573 Z" style="fill:#db4e18;fill-opacity:1;fill-rule:nonzero;stroke:none;color:#000;marker:none;visibility:visible;display:inline;overflow:visible;enable-background:accumulate"/>
    <path d="M 513.422 2.573 L 513.422 95.576 L 735.854 95.576 L 735.854 2.573 L 513.422 2.573 Z" style="fill:#d1390d;fill-opacity:1;fill-rule:nonzero;stroke:none;color:#000;marker:none;visibility:visible;display:inline;overflow:visible;enable-background:accumulate"/>
    <path d="M 513.422 2.573 L 513.422 95.576 L 699.187 95.576 L 699.187 2.573 L 513.422 2.573 Z" style="fill:#c22303;fill-opacity:1;fill-rule:nonzero;stroke:none;color:#000;marker:none;visibility:visible;display:inline;overflow:visible;enable-background:accumulate"/>
    <path d="M 513.422 2.573 L 513.422 95.576 L 629.737 95.576 L 629.737 2.573 L 513.422 2.573 Z" style="fill:#ad1b02;fill-opacity:1;fill-rule:nonzero;stroke:none;color:#000;marker:none;visibility:visible;display:inline;overflow:visible;enable-background:accumulate"/>
    <path d="M 553.97 270.951 C 522.28 276.585 505.378 300.529 505.378 342.078 C 505.378 384.332 527.913 412.501 561.012 412.501 C 577.209 412.501 591.293 406.867 620.871 392.078 L 620.871 426.585 C 584.955 443.487 563.829 447.712 535.66 447.712 C 503.97 447.712 481.434 439.965 463.829 420.952 C 445.519 402.642 435.659 378.698 435.659 351.233 C 435.659 291.373 480.73 249.825 546.223 249.825 C 589.181 249.825 619.463 270.247 619.463 299.12 C 619.463 318.134 605.378 331.515 584.955 331.515 C 574.392 331.515 565.941 327.994 553.969 321.655 M 395.519 351.233 C 424.392 315.318 434.955 300.529 434.955 282.923 C 434.955 265.318 420.871 249.825 401.153 249.825 C 389.885 249.825 379.322 256.163 374.392 261.796 L 374.392 335.74 L 327.209 399.12 L 327.209 255.458 L 282.139 255.458 L 207.491 378.698 L 207.491 255.458 L 182.138 255.458 L 113.828 270.951 L 113.828 288.557 L 151.153 292.078 L 151.153 444.895 L 198.336 444.895 L 270.166 326.585 L 270.166 444.895 L 322.984 444.895 M -29.13 420.951 L -18.566 420.951 C 19.462 420.951 40.589 397.711 40.589 351.233 C 40.589 312.501 23.688 291.373 -8.002 291.373 C -12.228 291.373 -18.566 292.078 -29.129 294.191 L -29.129 420.951 L -29.13 420.951 Z M -29.13 504.05 L 1.857 511.092 L 1.857 528.698 L -119.974 528.698 L -119.974 511.092 L -91.805 504.05 L -91.805 291.374 L -122.791 291.374 L -122.791 273.768 L -48.847 251.233 L -29.129 251.233 L -29.129 276.585 C 5.378 255.458 17.35 251.937 35.66 251.937 C 76.505 251.937 107.49 289.965 107.49 342.782 C 107.49 403.346 65.941 444.895 2.561 444.895 C -4.481 444.895 -16.453 444.191 -29.129 443.487" style="fill:#000;fill-opacity:1;fill-rule:nonzero;stroke:none"/>
  </g>
  <path fill="none" d="M 191.513 77.943 L 291.513 77.943 L 291.513 139.193 L 191.513 139.193 L 191.513 77.943 Z" pointer-events="none"/>
  <g clip-path="url(#g)" transform="matrix(0.12136000394821167, 0, 0, -0.12136000394821167, 191.5128936767578, 138.1175537109375)">
    <path fill="#0090d1" d="M466.344 152.2c-17.25-12.143-38.285-19.276-60.986-19.276-21.902 0-42.252 6.64-59.148 18.009 20.305 8.454 41.246 18.939 61.57 30.856 19.326-11.332 39.2-21.361 58.564-29.588M156.1 231.023c0 53.285 43.2 96.484 96.493 96.484 13.879 0 27.075-2.931 38.999-8.205a96.784 96.784 0 0 0-5.28 31.616c0 53.477 43.357 96.825 96.84 96.825 9.33 0 18.354-1.32 26.893-3.782l-1.96.134h-.607c-26.35-1.271-47.321-23.06-47.321-49.716 0-26.662 20.972-48.45 47.32-49.716h.608c26.346 1.267 47.32 23.054 47.32 49.716 0 12.27-4.445 23.512-11.812 32.193 13.35-10.678 23.81-24.812 30.027-41.05 18.694 10.145 40.108 15.906 62.873 15.906 72.89 0 131.98-59.083 131.98-131.967 0-49.802-27.585-93.158-68.312-115.623.282 18.095-15.896 44.3-47.838 73.727-3.291-8.171-9.722-13.716-17.085-16.557 23.77-29.122 20.43-50.184-11.84-50.184-25.268 0-62.254 12.91-97.584 32.482 19.179 12.357 29.654 18.968 45.607 33.415 7.47 6.767-6.017 22.882-22.492 8.078-11.611-10.431-26.996-21.37-41.15-30.371-14.147 9.002-37.531 26.605-49.145 37.033-16.474 14.805-29.965-1.312-22.494-8.076 15.958-14.446 34.428-27.722 53.606-40.08-21.035-11.647-42.656-20.947-62.046-26.555 0 0-2.713-.801-4.204-1.167-11.55-3.074-22.205-4.76-31.327-4.76-32.273 0-35.616 21.063-11.842 50.185-7.36 2.84-13.801 8.386-17.082 16.557-41.22-37.966-56.186-70.57-43.427-87.317-37.16 13.413-63.718 48.995-63.718 90.775m367.153-6.566c8.215 0 15.688 5.197 15.688 15.686 0 52.254-30.084 97.482-73.881 119.314a69.28 69.28 0 0 0-23.547-23.918c38.594-14.5 66.055-51.743 66.055-95.396 0-10.49 7.47-15.686 15.685-15.686m-230.947 0c8.22 0 15.692 5.197 15.692 15.686 0 43.653 27.46 80.896 66.053 95.396a69.312 69.312 0 0 0-23.55 23.918c-43.791-21.832-73.88-67.06-73.88-119.314 0-10.49 7.472-15.686 15.685-15.686"/>
    <path fill="#005bab" fill-rule="evenodd" d="M409.97 343.298v-138.02l-2.782-1.78c-14.149 8.993-31.742 19.608-43.355 30.036-16.475 14.798-26.306-4.824-18.832-11.59 15.956-14.442 24.976-17.218 44.153-29.565-10.486-5.81-21.115-11.033-31.543-15.503l-67.458 46.054 1.223-.036c5.816 0 11.252 2.599 13.934 7.838 1.327 2.276 2.097 5.105 2.097 8.474 0 17.469 4.395 33.908 12.147 48.275 11.644 21.234 30.636 37.869 53.556 46.48l-.506.314.854.324a69.29 69.29 0 0 0-23.546 23.916 133.307 133.307 0 0 1-31.154-21.542c10.308 17.51 24.47 33.027 41.513 45.592 4.558-21.802 23.381-38.38 46.263-39.483h.61zm-119.309-25.573-.313.926.661-.29a96.283 96.283 0 0 0-3.338 12.203 122.066 122.066 0 0 0 6.304-5.27l8.044-7.2c-16.54-22.195-26.329-49.714-26.329-79.521 0-2.486.424-4.676 1.167-6.567l-94.53 64.538c17.54 18.12 42.123 29.386 69.34 29.386 13.88 0 27.067-2.931 38.994-8.205m119.31-139.318v-37.275l-33.258 22.706a531.305 531.305 0 0 1 30.13 16.39z"/>
    <path fill="#005bab" fill-rule="evenodd" d="m542.783 390.3-21.955-85.024a133.815 133.815 0 0 1-24.053 30.606zm-36.639-141.882-21.154-81.93c-9.459 2.85-19.418 6.556-29.549 10.956l-8.865 4.004a362.187 362.187 0 0 0-21.357 10.93c19.18 12.348 25.755 15.53 41.712 29.973 7.467 6.762-2.12 26.315-18.595 11.51-11.614-10.428-26.996-21.37-41.148-30.362-4.122 2.612-9.019 5.963-14.182 9.645l83.02 98.2c16.681-16.337 27.761-38.356 30.118-62.926m-99.3-68.19c19.201-11.265 38.955-21.243 58.21-29.44-17.123-11.848-37.892-18.792-60.292-18.792-21.709 0-41.894 6.523-58.699 17.715 20.062 8.395 40.716 18.752 60.78 30.517m-26.972 17.377 8.571-5.618a355.095 355.095 0 0 0-23.26-11.754z"/>
    <path fill="#32449b" fill-rule="evenodd" d="m540.928 399.735 81.084-231.21a132.462 132.462 0 0 0-22.451-15.618c.279 18.096-15.901 44.302-47.84 73.725l-.36-.63-.204-.48-.604-1.362-12.211 15.046c0 52.254-30.086 97.477-73.881 119.31a68.875 68.875 0 0 0-10.892-13.995l-11.981 14.872a49.746 49.746 0 0 1 6.955 9.842c3.992 7.165 6.266 15.415 6.266 24.198 0 7.992-1.881 15.548-5.233 22.242l2.938.234a96.922 96.922 0 0 0 20.162-31.97c18.688 10.14 40.102 15.904 62.867 15.904zm-295.232-73.99-81.088-136.583c-5.832 12.427-9.083 26.296-9.083 40.927 0 16.329 4.049 31.709 11.208 45.184 15.42 28.519 44.794 48.39 78.963 50.472"/>
    <path fill="#005bab" fill-rule="evenodd" d="M667.512 267.89c0-23.395-6.096-45.37-16.771-64.42a132.43 132.43 0 0 0-20.415-27.132c4.647 54.976 10.276 118.576 14.485 165.57 14.326-21.106 22.7-46.588 22.7-74.018"/>
    <path fill="#fff" d="M411.95 312.595h-5.635v18.697h5.635z"/>
    <path fill="#fff" fill-rule="evenodd" d="m475.16 302.776-13.22-13.224-3.985 3.985 13.221 13.224z"/>
    <path fill="#fff" d="m499.41 237.185-18.699.002v5.63h18.7zm-182.058 7.517 18.7-.005v-5.632h-18.7zm29.171 62.938 13.226-13.221-3.99-3.986-13.22 13.224z"/>
    <path fill="#32449b" fill-rule="evenodd" d="M196.8 69.559c-.512-6.112-2.804-10.9-6.88-14.365-4.176-3.361-9.677-5.042-16.502-5.042-7.947 0-14.01 2.395-18.186 7.183-4.176 4.584-6.265 11.358-6.265 20.323 0 9.169 2.139 16.046 6.419 20.63 4.38 4.787 10.696 7.18 18.949 7.18 6.723 0 12.072-1.68 16.045-5.042 3.77-3.26 5.908-7.844 6.42-13.752h-6.572c-2.446 0-4.178 1.07-5.197 3.209a14.898 14.898 0 0 1-2.598 3.514c-2.036 1.528-4.737 2.293-8.098 2.293-4.687 0-8.303-1.527-10.851-4.585-2.444-3.056-3.667-7.537-3.667-13.447 0-5.704 1.223-10.085 3.667-13.142 2.344-3.158 5.859-4.737 10.545-4.737 3.26 0 5.96.815 8.099 2.445 1.937 1.529 3.312 3.973 4.126 7.335zm5.275 34.382h5.501c1.427 0 2.65-.484 3.668-1.452 1.02-.968 1.528-2.164 1.528-3.59V51.374h-10.697zm27.315-22.005c-2.14-2.345-3.107-5.833-2.903-10.468.204-4.634 1.07-7.868 2.597-9.702.612-.814 1.682-1.504 3.209-2.062 1.529-.561 3.082-.612 4.662-.154 1.58.458 2.98 1.605 4.202 3.439 1.223 1.834 1.885 4.788 1.987 8.86 0 3.669-.585 6.419-1.758 8.253-1.171 1.833-2.521 3.005-4.05 3.515a7.423 7.423 0 0 1-4.585.077c-1.526-.46-2.647-1.045-3.36-1.759m-7.335-26.892c-2.141 1.834-3.668 4.303-4.584 7.41-.917 3.109-1.376 6.343-1.376 9.704 0 2.75.38 5.5 1.145 8.252.765 2.75 1.962 5.042 3.59 6.876 2.65 3.056 6.064 4.864 10.24 5.424 4.178.56 7.947.23 11.309-.994 3.87-1.526 6.724-4.175 8.558-7.946 1.732-3.36 2.599-7.283 2.599-11.766 0-3.26-.358-6.06-1.071-8.403-.713-2.345-1.63-4.33-2.751-5.96-2.445-3.362-5.553-5.45-9.321-6.265a20.819 20.819 0 0 0-10.162-.231c-3.414.766-6.14 2.065-8.176 3.899m71.175 36.979V68.183c0-7.231-1.885-11.971-5.653-14.21-3.77-2.242-7.897-3.363-12.379-3.363-4.38.204-8.38 1.426-11.995 3.668-3.618 2.242-5.426 6.877-5.426 13.906v23.838h10.697V66.043c0-2.444.713-4.227 2.14-5.348 1.426-1.122 3.054-1.68 4.89-1.68 1.834 0 3.49.558 4.966 1.68 1.478 1.12 2.216 2.903 2.216 5.348v20.783c0 1.424.483 2.647 1.451 3.667.97 1.018 2.216 1.528 3.745 1.528zm13.642-20.018c0-4.074.765-7.182 2.292-9.322 1.529-2.14 3.719-3.208 6.572-3.208 2.75 0 4.889 1.069 6.418 3.208 1.427 2.14 2.139 5.248 2.139 9.322 0 3.668-.764 6.57-2.292 8.71-1.63 2.038-3.82 3.055-6.571 3.055-2.648 0-4.737-1.07-6.266-3.208-1.527-2.037-2.292-4.89-2.292-8.557m17.421 32.09h5.196c1.427 0 2.65-.534 3.668-1.605 1.018-1.07 1.528-2.266 1.528-3.59V69.1c0-7.235-2.087-12.123-6.265-14.67-4.177-2.546-8.711-3.822-13.6-3.822-2.65 0-5.248.434-7.796 1.3-2.546.866-4.584 2.268-6.112 4.202-2.954 3.769-4.432 8.914-4.432 15.435 0 6.419 1.478 11.562 4.432 15.433 3.057 3.973 6.979 5.96 11.767 5.96 2.547 0 4.788-.51 6.725-1.53 2.037-1.22 3.667-2.801 4.889-4.735zm44.641-52.719h-10.849v19.56l-19.103 33.006h13.295l11.156-22.616 9.017 19.56c1.018 2.037 2.7 3.056 5.043 3.056h8.71l-17.269-33.006zm50.337 40.647V68.183c0-7.231-1.885-11.971-5.654-14.21-3.769-2.242-7.895-3.363-12.379-3.363-4.38.204-8.377 1.426-11.995 3.668-3.617 2.242-5.425 6.877-5.425 13.906v23.838h10.697V66.043c0-2.444.714-4.227 2.14-5.348 1.425-1.122 3.056-1.68 4.89-1.68 1.834 0 3.49.558 4.966 1.68 1.477 1.12 2.215 2.903 2.215 5.348v20.783c0 1.424.484 2.647 1.453 3.667.97 1.018 2.215 1.528 3.743 1.528zm15.512-20.63c0-7.03 2.038-10.926 6.114-11.688 4.074-.766 7.08.176 9.015 2.826.917 1.12 1.58 2.877 1.986 5.27.407 2.397.434 4.765.076 7.108-.354 2.342-1.196 4.43-2.52 6.265-1.325 1.833-3.26 2.749-5.807 2.749-3.464 0-5.807-1.272-7.03-3.82-1.223-2.545-1.834-5.45-1.834-8.71m17.422-17.572v2.597c-1.834-2.852-4.305-4.635-7.41-5.348-3.11-.713-6.193-.46-9.247.764-3.057 1.222-5.68 3.488-7.869 6.799-2.192 3.312-3.288 7.667-3.288 13.067 0 6.316 1.453 11.435 4.356 15.357 2.904 3.922 7.563 5.883 13.983 5.883 4.89 0 9.424-1.324 13.601-3.974 4.177-2.647 6.265-7.54 6.265-14.668V52.75c0-7.132-2.088-11.995-6.265-14.593-4.177-2.598-8.71-3.897-13.6-3.897-9.374 0-15.18 4.38-17.423 13.14h11.156c.815-1.425 2.063-2.52 3.745-3.283 1.68-.766 3.361-.968 5.043-.611 1.68.356 3.21 1.349 4.584 2.979 1.376 1.63 2.165 4.074 2.37 7.335m42.453-.765a18.841 18.841 0 0 0-6.8-2.063c-2.395-.253-4.51-.382-6.343-.382-3.668 0-6.876.994-9.628 2.98-2.75 1.987-4.125 5.272-4.125 9.857 0 4.279 1.248 7.335 3.744 9.169 2.496 1.834 5.678 3.056 9.55 3.668.51 0 1.121.074 1.834.228.714.153 1.527.279 2.445.383 4.482.609 6.724 1.934 6.724 3.972 0 1.528-.79 2.52-2.369 2.979-1.579.46-3.03.688-4.355.688-1.426 0-2.7-.204-3.82-.612-1.12-.406-1.936-1.17-2.445-2.292h-10.239c.408 3.158 1.833 5.757 4.28 7.794 2.75 2.344 6.671 3.515 11.766 3.515 5.706 0 9.984-.968 12.837-2.904 2.955-2.037 4.431-4.89 4.431-8.558V67.573c0-4.077-.738-7.26-2.217-9.552-1.476-2.292-3.234-3.946-5.27-4.966m-2.446 18.795c-1.427-.711-3.412-1.373-5.96-1.985l-3.515-.764c-1.833-.51-3.158-1.171-3.973-1.986-.713-1.122-1.07-2.243-1.07-3.362 0-1.53.458-2.751 1.376-3.668.916-.815 2.241-1.223 3.973-1.223 2.853 0 5.093.816 6.723 2.446 1.631 1.63 2.446 3.87 2.446 6.723z"/>
    <path fill="#0090d1" fill-rule="evenodd" d="M511.19 59.778h5.194v-8.403h-8.404v5.194c0 2.14 1.069 3.21 3.21 3.21m48.66-2.139c-1.834-2.647-4.023-4.585-6.571-5.807-2.65-1.12-5.552-1.681-8.71-1.681-7.54 0-13.5 2.496-17.88 7.488-4.484 4.89-6.724 11.614-6.724 20.17 0 8.456 2.19 15.129 6.57 20.019 4.586 5.093 10.647 7.64 18.187 7.64 6.52 0 11.919-1.58 16.197-4.736 4.177-3.362 6.673-7.743 7.489-13.143h-7.336c-2.14 0-3.718.969-4.737 2.904-.714 1.222-1.732 2.343-3.056 3.362-2.036 1.426-4.737 2.139-8.1 2.139-4.38 0-7.845-1.58-10.391-4.737-2.546-3.361-3.822-7.844-3.822-13.448 0-5.703 1.326-10.187 3.976-13.447 2.546-3.16 6.163-4.736 10.85-4.736 3.463 0 6.315.967 8.557 2.903 2.242 2.037 3.667 4.839 4.278 8.405h-6.417c-1.53 0-2.83.534-3.898 1.604-1.07 1.069-1.604 2.369-1.604 3.895v3.516h21.852V51.375h-2.903c-2.853 0-4.635 1.426-5.35 4.279zm49.037 34.382V68.183c0-7.231-1.885-11.971-5.653-14.21-3.77-2.242-7.897-3.363-12.38-3.363-4.38.204-8.38 1.426-11.995 3.668-3.617 2.242-5.425 6.877-5.425 13.906v23.838h10.698V66.043c0-2.444.713-4.227 2.139-5.348 1.426-1.122 3.054-1.68 4.888-1.68s3.492.558 4.968 1.68c1.478 1.12 2.216 2.903 2.216 5.348v20.783c0 1.424.484 2.647 1.45 3.667.969 1.018 2.217 1.528 3.746 1.528zm4.167-40.647v19.712c0 3.974.586 7.309 1.758 10.009 1.172 2.7 2.776 4.864 4.814 6.494 1.935 1.528 4.2 2.649 6.8 3.362a30.134 30.134 0 0 0 8.023 1.069h1.528V81.173h-3.516c-2.954 0-5.143-.714-6.57-2.14-1.427-1.426-2.14-3.668-2.14-6.725V51.375zm61.979 40.647V68.183c0-7.231-1.885-11.971-5.654-14.21-3.769-2.242-7.896-3.363-12.379-3.363-4.38.204-8.378 1.426-11.995 3.668-3.617 2.242-5.425 6.877-5.425 13.906v23.838h10.697V66.043c0-2.444.712-4.227 2.14-5.348 1.425-1.122 3.056-1.68 4.89-1.68 1.834 0 3.49.558 4.966 1.68 1.477 1.12 2.215 2.903 2.215 5.348v20.783c0 1.424.484 2.647 1.453 3.667.967 1.018 2.215 1.528 3.743 1.528z"/>
    <path fill="#32449b" fill-rule="evenodd" d="M153.006 38.837H420.13a24.041 24.041 0 0 1 3.075-4.5h-270.2zm314.466 0h207.07v-4.5H464.18a19.737 19.737 0 0 1 3.29 4.5"/>
  </g>
  <g clip-path="url(#g)" transform="matrix(0.08791500329971313, 0, 0, -0.08791500329971313, 191.5128936767578, 124.26406860351562)">
    <path fill="#df2127" d="M457.193 214.129h-63.677v-34.936h63.677c4.909 0 8.269.739 10.079 2.199 1.793 1.477 2.698 4.054 2.698 7.783v15.099c0 3.639-.905 6.198-2.698 7.657-1.81 1.459-5.17 2.198-10.08 2.198m-91.53-103.852v125.599h104.082c9.679 0 16.677-1.928 21.012-5.766 4.334-3.837 6.51-10.035 6.51-18.593V182.04c0-8.47-2.176-14.648-6.51-18.522-4.335-3.892-11.333-5.82-21.012-5.82H453.85l56.192-47.422h-40.647l-49.055 47.422h-26.825v-47.422zm200.7 23.645h93.375v79.492h-93.375zm-28.322 72.249c0 11.405 2.071 19.206 6.214 23.404 4.143 4.198 12.116 6.306 23.954 6.306h89.562c11.82 0 19.81-2.108 23.954-6.306 4.142-4.198 6.213-11.999 6.213-23.404v-66.178c0-11.495-2.071-19.314-6.213-23.476-4.144-4.163-12.134-6.234-23.954-6.234h-89.562c-11.838 0-19.811 2.071-23.954 6.234-4.143 4.162-6.214 11.981-6.214 23.476zm287.849-41.351h-64.6v-31.964h64.6c5.379 0 9 .83 10.88 2.505 1.88 1.657 2.82 4.576 2.82 8.792v9.495c0 4.198-.94 7.117-2.82 8.738-1.88 1.622-5.501 2.433-10.88 2.433m0 50.61h-64.6v-29.944h64.6c4.909 0 8.304.685 10.184 2.036 1.879 1.333 2.82 3.675 2.82 7.008v11.874c0 3.243-.941 5.567-2.82 6.955-1.88 1.387-5.275 2.071-10.184 2.071m-92.452-105.148V235.88h104.306c9.592 0 16.539-1.946 20.838-5.837 4.299-3.874 6.458-10.054 6.458-18.522v-15.333c0-6.017-1.81-10.828-5.414-14.432-3.603-3.603-8.791-5.855-15.545-6.72 6.98-.955 12.377-3.53 16.172-7.71 3.813-4.218 5.71-9.677 5.71-16.415v-16.035c0-8.307-2.96-14.487-8.878-18.54-5.901-4.037-14.883-6.054-26.93-6.054zm173.055 125.6h28.322V110.3h-28.322zm76.125-125.598v125.58h19.341l85.663-74.015a134.671 134.671 0 0 0 7.712-6.955 77.106 77.106 0 0 0 6.11-6.702c-.47 7.045-.766 12.035-.923 14.973-.157 2.918-.226 5.171-.226 6.756v65.943h25.432v-125.58h-19.339l-89.337 77.582a210.38 210.38 0 0 0-5.64 5.351 64.087 64.087 0 0 0-4.49 4.865c.382-3.874.66-7.53.851-10.99.192-3.442.296-6.433.296-8.973v-67.835z"/>
    <path d="M239.068 309.34H69.63c-22.09 0-39.997-17.907-39.997-39.997V99.905c0-22.09 17.907-39.997 39.997-39.997h169.438c22.09 0 39.997 17.908 39.997 39.997v169.438c0 22.09-17.907 39.997-39.997 39.997"/>
    <path fill="#de2428" d="m239.592 309.34-48.278-.032L39.538 73.642c1.498-1.713 3.119-3.314 4.886-4.75l234.64 118.303v82.175c0 21.913-17.627 39.687-39.472 39.97"/>
    <path d="M228.493 297.927c-7.252 0-13.145-5.893-13.145-13.145 0-7.245 5.893-13.145 13.145-13.145s13.145 5.9 13.145 13.145c0 7.252-5.893 13.145-13.145 13.145"/>
  </g>
  <g clip-path="url(#g)" transform="matrix(0.08791500329971313, 0, 0, -0.08791500329971313, 191.5128936767578, 124.26406860351562)">
    <path fill="#df2127" d="M457.193 214.129h-63.677v-34.936h63.677c4.909 0 8.269.739 10.079 2.199 1.793 1.477 2.698 4.054 2.698 7.783v15.099c0 3.639-.905 6.198-2.698 7.657-1.81 1.459-5.17 2.198-10.08 2.198m-91.53-103.852v125.599h104.082c9.679 0 16.677-1.928 21.012-5.766 4.334-3.837 6.51-10.035 6.51-18.593V182.04c0-8.47-2.176-14.648-6.51-18.522-4.335-3.892-11.333-5.82-21.012-5.82H453.85l56.192-47.422h-40.647l-49.055 47.422h-26.825v-47.422zm200.7 23.645h93.375v79.492h-93.375zm-28.322 72.249c0 11.405 2.071 19.206 6.214 23.404 4.143 4.198 12.116 6.306 23.954 6.306h89.562c11.82 0 19.81-2.108 23.954-6.306 4.142-4.198 6.213-11.999 6.213-23.404v-66.178c0-11.495-2.071-19.314-6.213-23.476-4.144-4.163-12.134-6.234-23.954-6.234h-89.562c-11.838 0-19.811 2.071-23.954 6.234-4.143 4.162-6.214 11.981-6.214 23.476zm287.849-41.351h-64.6v-31.964h64.6c5.379 0 9 .83 10.88 2.505 1.88 1.657 2.82 4.576 2.82 8.792v9.495c0 4.198-.94 7.117-2.82 8.738-1.88 1.622-5.501 2.433-10.88 2.433m0 50.61h-64.6v-29.944h64.6c4.909 0 8.304.685 10.184 2.036 1.879 1.333 2.82 3.675 2.82 7.008v11.874c0 3.243-.941 5.567-2.82 6.955-1.88 1.387-5.275 2.071-10.184 2.071m-92.452-105.148V235.88h104.306c9.592 0 16.539-1.946 20.838-5.837 4.299-3.874 6.458-10.054 6.458-18.522v-15.333c0-6.017-1.81-10.828-5.414-14.432-3.603-3.603-8.791-5.855-15.545-6.72 6.98-.955 12.377-3.53 16.172-7.71 3.813-4.218 5.71-9.677 5.71-16.415v-16.035c0-8.307-2.96-14.487-8.878-18.54-5.901-4.037-14.883-6.054-26.93-6.054zm173.055 125.6h28.322V110.3h-28.322zm76.125-125.598v125.58h19.341l85.663-74.015a134.671 134.671 0 0 0 7.712-6.955 77.106 77.106 0 0 0 6.11-6.702c-.47 7.045-.766 12.035-.923 14.973-.157 2.918-.226 5.171-.226 6.756v65.943h25.432v-125.58h-19.339l-89.337 77.582a210.38 210.38 0 0 0-5.64 5.351 64.087 64.087 0 0 0-4.49 4.865c.382-3.874.66-7.53.851-10.99.192-3.442.296-6.433.296-8.973v-67.835z"/>
    <path d="M239.068 309.34H69.63c-22.09 0-39.997-17.907-39.997-39.997V99.905c0-22.09 17.907-39.997 39.997-39.997h169.438c22.09 0 39.997 17.908 39.997 39.997v169.438c0 22.09-17.907 39.997-39.997 39.997"/>
    <path fill="#de2428" d="m239.592 309.34-48.278-.032L39.538 73.642c1.498-1.713 3.119-3.314 4.886-4.75l234.64 118.303v82.175c0 21.913-17.627 39.687-39.472 39.97"/>
    <path d="M228.493 297.927c-7.252 0-13.145-5.893-13.145-13.145 0-7.245 5.893-13.145 13.145-13.145s13.145 5.9 13.145 13.145c0 7.252-5.893 13.145-13.145 13.145"/>
  </g>
  <g clip-path="url(#g)" transform="matrix(0.18813501298427582, 0, 0, -0.18813501298427582, 191.5128936767578, 130.80731201171875)">
    <path fill="#414142" d="M107.468 64.49c-29.677 0-53.726 24.05-53.726 53.725 0 29.678 24.049 53.727 53.726 53.727 29.667 0 53.727-24.049 53.727-53.727 0-29.676-24.06-53.725-53.727-53.725m100.872 7.338c-3.192 5.455-10.065 7.382-15.63 4.503l-16.125 18.181a72.713 72.713 0 0 1 3.95 23.703 72.76 72.76 0 0 1-3.82 23.292l13.659 16.17c3.312-1.386 7.164-1.277 10.477.671 5.628 3.268 7.533 10.52 4.242 16.148-3.301 5.628-10.541 7.555-16.181 4.243-3.311-1.927-5.292-5.26-5.725-8.81l-20.477-3.918c-10.585 12.208-25.132 20.867-41.67 23.984l-7.771 22.577c5.14 3.442 6.83 10.347 3.658 15.78-3.3 5.607-10.541 7.533-16.17 4.221-5.627-3.268-7.543-10.54-4.242-16.169a11.22 11.22 0 0 1 3.3-3.594l-7.791-23.205c-16.03-3.442-30.078-12.143-40.295-24.2l-22.924 4.286c-.108 1.775-.584 3.55-1.537 5.195-3.29 5.628-10.541 7.533-16.17 4.242-5.628-3.29-7.532-10.542-4.242-16.17 3.009-5.15 9.33-7.142 14.676-4.913l16.083-18.42a72.886 72.886 0 0 1-3.192-21.41c0-8.333 1.396-16.322 3.972-23.767l-16.516-19.33a11.782 11.782 0 0 1-11.018-.454c-5.65-3.313-7.534-10.542-4.243-16.192 3.29-5.606 10.54-7.533 16.17-4.243 3.495 2.057 5.54 5.628 5.823 9.395l25.272 4.957C63.893 57.78 77.12 50.01 92.056 46.783l8.247-23.443c-4.61-3.593-6.018-10.087-2.987-15.26 3.29-5.629 10.542-7.533 16.18-4.243 5.618 3.29 7.523 10.542 4.233 16.191a12.104 12.104 0 0 1-3.247 3.571l7.868 23.076c15.25 3.16 28.768 11.061 38.93 22.123l25.23-4.87c.228-1.386.649-2.75 1.418-4.027 3.279-5.629 10.519-7.533 16.17-4.243 5.628 3.29 7.52 10.563 4.242 16.17"/>
    <path fill="#414142" d="M97.424 114.06c-.596 2.013-.823 3.744-.714 5.206.118 1.633.65 3.343 1.57 5.053.94 1.71 2.012 3.096 3.213 4.135l30.045 25.76c-9.156 6.104-20.607 8.767-32.274 6.537-23.497-4.545-38.856-27.252-34.33-50.738 0 0 .302-2.078 1.363-5.24.064-.193.13-.39.205-.584.12-.346.25-.713.38-1.082.475-1.213.951-2.402 1.492-3.572l.044.023c3.052-6.364 8.658-14.287 18.756-19.612.163-.065.325-.152.487-.24.498-.258.996-.496 1.494-.734a48.24 48.24 0 0 0 1.017-.455c.152-.064.303-.13.455-.216v.022c7.652-3.247 16.3-4.32 25.055-2.642 4.167.802 8.085 2.208 11.7 4.049l-26.192 28.205c-1.926 2.012-3.193 4.09-3.766 6.125"/>
    <path fill="#28aae1" d="m142.264 144.018-25.489-20.976c-.94-.756-1.818-1.493-2.64-2.294-.65-.606-1.007-1.45-1.083-2.533-.086-1.45.216-2.652.996-3.657a49.386 49.386 0 0 1 2.792-3.27l22.166-22.77c9.178 9.784 13.724 23.702 10.996 37.88-1.266 6.602-3.97 12.577-7.738 17.62"/>
    <path fill="#414142" d="m258.56 117.934 20.736 22.881h22.068l-24.059-26.603 25.52-37.08h-21.267l-16.624 23.658h-10.228V77.132h-18.475v94.377h18.475v-53.575zm81.79 9.179c-10.5 0-17.686-7.035-17.686-17.686 0-10.758 7.187-18.203 17.686-18.203 10.498 0 17.544 7.445 17.544 18.203 0 10.65-7.046 17.686-17.544 17.686m25.92 7.057c6.517-6.256 9.84-14.503 9.84-24.743 0-10.367-3.323-18.723-9.84-25.108-6.515-6.386-15.151-9.57-25.92-9.57-10.77 0-19.406 3.184-26.052 9.57-6.645 6.385-9.968 14.74-9.968 25.108 0 10.24 3.323 18.487 9.828 24.743 6.656 6.233 15.422 9.437 26.192 9.437 10.769 0 19.405-3.204 25.92-9.437m73.945-25.392c0 12.49-5.585 18.746-16.884 18.746-4.254 0-9.168-.282-14.882-.8v-33.9c4.654-.67 9.968-1.06 16.083-1.06 9.167 0 15.683 7.445 15.683 17.013m17.945.52c0-9.829-2.923-17.815-8.637-23.919-5.714-5.975-13.16-9.048-22.069-9.048-7.576 0-13.82.281-19.005.801V46.436h-18.475v93.296c15.812 2.013 27.913 3.074 36.28 3.074 20.076 0 31.376-12.902 31.906-33.508m14.416-13.811c9.697-3.723 18.335-5.584 25.781-5.584 7.306 0 10.9 1.58 10.9 4.912 0 2.924-2.793 4.395-7.047 5.326-2.262.65-3.452.78-6.516 1.321l-3.452.67c-15.012 2.793-21.938 8.376-21.938 19.136 0 13.291 10.768 21.257 27.912 21.257 9.438 0 18.345-1.58 26.722-4.785l-4.123-13.94c-10.228 2.923-17.945 4.373-23.26 4.373-5.843 0-9.166-2.12-9.166-5.455 0-2.922 2.121-3.983 5.844-5.174 2.262-.54 3.322-.67 6.527-1.32l3.712-.67c15.543-3.182 22.058-7.708 22.058-19.006 0-14.222-11.159-21.409-28.845-21.409-9.838 0-19.405 1.863-28.843 5.585z"/>
  </g>
  <g transform="matrix(2.910093069076538, 0, 0, 2.910093069076538, -461.5374755859375, -289.71710205078125)">
    <g clip-path="url(#h)" transform="matrix(0.271372, 0, 0, -0.271372, 191.083679, 150.300522)">
      <g mask="url(#i)">
        <path fill="url(#j)" d="M99.177 160.729c-23.497-4.523-38.855-27.253-34.331-50.74 0 0 .303-2.076 1.363-5.238.066-.172.131-.389.206-.584a39.5 39.5 0 0 1 .379-1.06c.477-1.235.953-2.425 1.494-3.594l.044.044c.411-.867.995-1.796 1.514-2.706 12.36 1.342 24.266 3.507 35.479 6.515l-4.221 4.547c-1.927 2.033-3.193 4.09-3.767 6.147-.595 1.991-.822 3.723-.714 5.195.119 1.623.649 3.355 1.569 5.043.942 1.732 2.013 3.118 3.215 4.135l30.045 25.759c-6.989 4.659-15.315 7.326-24.054 7.327-2.71 0-5.459-.257-8.221-.79"/>
      </g>
    </g>
    <g clip-path="url(#n)" transform="matrix(0.271372, 0, 0, -0.271372, 191.083679, 150.300522)">
      <g mask="url(#o)">
        <path fill="url(#p)" d="M116.689 123.021a36.474 36.474 0 0 1-2.641-2.272c-.649-.629-1.006-1.45-1.082-2.556-.087-1.45.216-2.639.996-3.636a39.808 39.808 0 0 1 2.792-3.269l3.29-3.375c11.062 3.83 21.235 8.506 30.478 13.809-.129 1.538-.302 3.095-.605 4.676-1.267 6.602-3.973 12.555-7.74 17.598z"/>
      </g>
    </g>
    <g clip-path="url(#g)" transform="matrix(0.027833, 0, 0, -0.027833, 192.19693, 127.664375)">
      <path fill="#1b69bc" d="M3208 31.105S3320.15 0 3463.39 0c152.66 0 223.32 16.965 223.32 16.965v113.094s-76.32-15.086-182.81-15.086c-93.28 0-150.78 12.261-150.78 12.261v160.2h289.34v113.093h-289.34v152.664s56.54 10.375 141.37 10.375c95.19 0 180.93-15.082 180.93-15.082V662.52s-75.39 16.027-197.91 16.027c-163.02 0-269.51-29.238-269.51-29.238V31.106zM1140.33 288.392c-3.78-9.438-8.47-27.344-11.3-37.715-2.82 10.371-7.54 28.277-11.3 37.715L989.543 617.277c-21.672 54.657-55.582 61.27-117.785 61.27-21.684 0-65.988-2.832-65.988-2.832L739.809 9.425h146.086l32.031 446.696 138.534-338.316c10.38-26.387 31.1-36.758 72.57-36.758 41.45 0 62.2 10.371 72.56 36.758l138.53 338.316 32.05-446.695h146.06l-65.96 666.289s-44.3 2.832-65.96 2.832c-62.2 0-96.12-6.613-117.81-61.27l-128.17-328.886zM409.027 151.73c-31.101-12.257-106.507-36.757-162.097-36.757-60.321 0-105.551 20.73-105.551 86.707 0 57.48 31.082 90.461 114.043 93.293l153.605 5.652V151.73zM322.32 678.547c-130.054 0-231.836-32.051-271.422-51.848l31.106-109.316s99.91 35.808 197.902 35.808c83.879 0 127.223-23.55 127.223-106.48v-47.133H279.906C64.098 399.578 0 300.625 0 191.301 0 46.184 113.102 0 215.824 0 335.508 0 405.258 49.941 413.73 49.941c6.606 0 31.106-26.375 140.411-26.375v461.778c0 138.523-85.746 193.203-231.821 193.203zM2071.45 151.73c-31.11-12.257-106.5-36.757-162.09-36.757-60.33 0-105.57 20.73-105.57 86.707 0 57.48 31.11 90.461 114.04 93.293l153.62 5.652V151.73zm-86.72 526.817c-130.06 0-231.83-32.051-271.41-51.848l31.1-109.316s99.91 35.808 197.9 35.808c83.88 0 127.23-23.55 127.23-106.48v-47.133h-127.23c-215.8 0-279.9-98.953-279.9-208.277C1662.42 46.184 1775.52 0 1878.25 0c119.68 0 189.42 49.941 197.9 49.941 6.6 0 31.1-26.375 140.42-26.375v461.778c0 138.523-85.76 193.203-231.84 193.203zm2311.75-503.254c-34.86-16.953-110.25-45.234-179.04-45.234-99.93 0-116.88 45.234-116.88 148.894v393.938h-21.68c-32.97 0-106.48-5.653-124.39-9.434V260.105C3854.49 83.867 3897.85 0 4076.89 0c136.66 0 216.76 52.766 222.4 52.766 1.9 0 49.03-29.2 143.3-29.2v639.891c-10.37 1.887-81.09 9.434-116.91 9.434h-29.2V175.293zm318.65-151.727S4705.6 0 4831.89 0c119.69 0 270.47 40.52 270.47 202.605 0 105.571-78.22 150.801-205.45 196.973-68.79 25.449-127.23 48.07-127.23 95.195 0 22.61 16.98 66.899 104.61 66.899 81.99 0 165.88-37.688 165.88-37.688l36.76 108.371c-24.53 12.254-104.63 46.192-215.82 46.192-120.63 0-238.44-64.094-238.44-193.203 0-132.895 120.63-173.41 214.86-204.516 64.11-21.668 117.82-44.297 117.82-86.695 0-41.445-22.62-77.278-131-77.278-88.59 0-182.83 19.786-182.83 19.786l-26.39-113.075zM2574.68 552.258c23.56 4.707 69.75 11.308 115.92 11.308 105.55 0 188.5-59.375 188.5-219.601 0-155.496-40.55-228.992-201.68-228.992-51.84 0-102.74 7.539-102.74 7.539v429.746zm122.52 126.289c-82.93 0-197.91-14.141-268.59-39.582V19.797C2487.05 7.527 2596.38 0 2672.71 0c260.1 0 360.94 101.785 360.94 343.965 0 209.226-128.19 334.582-336.45 334.582"/>
    </g>
    <path fill="#76c92d" d="M 317.19 123.627 C 317.19 121.906 318.59 120.51 320.31 120.51 C 322.713 120.51 324.212 123.11 323.012 125.189 C 321.811 127.269 318.81 127.269 317.607 125.189 C 317.333 124.714 317.19 124.175 317.19 123.629"/>
    <path fill="#09090a" d="M 217.678 115.366 C 217.678 113.389 217.296 111.923 216.533 110.967 C 215.768 110.014 214.61 109.535 213.052 109.535 L 211.396 109.535 L 211.396 121.623 L 212.662 121.623 C 214.392 121.623 215.66 121.11 216.468 120.08 C 217.276 119.052 217.678 117.481 217.678 115.366 M 223.586 115.16 C 223.586 118.761 222.618 121.535 220.683 123.482 C 218.747 125.432 216.025 126.404 212.519 126.404 L 205.702 126.404 L 205.702 104.829 L 212.996 104.829 C 216.377 104.829 218.988 105.714 220.826 107.486 C 222.666 109.257 223.586 111.813 223.586 115.16 M 242.466 126.404 L 247.891 126.404 L 247.891 104.738 L 242.466 104.738 L 242.466 126.404 M 255.509 118.323 C 255.509 119.705 255.69 120.76 256.051 121.482 C 256.411 122.207 257.014 122.569 257.865 122.569 C 258.707 122.569 259.302 122.207 259.65 121.482 C 259.996 120.76 260.167 119.705 260.167 118.323 C 260.167 116.947 259.994 115.912 259.642 115.213 C 259.29 114.512 258.69 114.161 257.838 114.161 C 257.006 114.161 256.411 114.51 256.051 115.205 C 255.69 115.902 255.509 116.94 255.509 118.323 M 265.688 118.323 C 265.688 120.954 264.999 123.007 263.615 124.48 C 262.234 125.953 260.297 126.689 257.812 126.689 C 255.425 126.689 253.528 125.935 252.117 124.429 C 250.706 122.924 250.003 120.889 250.003 118.323 C 250.003 115.697 250.693 113.662 252.074 112.207 C 253.457 110.753 255.397 110.025 257.894 110.025 C 259.438 110.025 260.803 110.363 261.985 111.036 C 263.171 111.708 264.083 112.671 264.726 113.926 C 265.368 115.179 265.691 116.647 265.691 118.323 M 267.842 126.404 L 273.268 126.404 L 273.268 110.312 L 267.843 110.312 L 267.843 126.404 M 267.842 108.365 L 273.268 108.365 L 273.268 104.738 L 267.843 104.738 L 267.843 108.365 M 284.257 122.299 C 284.989 122.299 285.861 122.114 286.878 121.744 L 286.878 125.795 C 286.147 126.115 285.453 126.345 284.791 126.482 C 284.129 126.619 283.355 126.689 282.467 126.689 C 280.646 126.689 279.332 126.232 278.527 125.317 C 277.723 124.404 277.321 123.001 277.321 121.106 L 277.321 114.473 L 275.421 114.473 L 275.421 110.312 L 277.321 110.312 L 277.321 106.203 L 282.787 105.252 L 282.787 110.312 L 286.247 110.312 L 286.247 114.473 L 282.787 114.473 L 282.787 120.735 C 282.787 121.777 283.278 122.299 284.257 122.299 M 296.809 122.299 C 297.543 122.299 298.415 122.114 299.433 121.744 L 299.433 125.795 C 298.704 126.115 298.006 126.345 297.345 126.482 C 296.683 126.619 295.91 126.689 295.023 126.689 C 293.199 126.689 291.887 126.232 291.081 125.317 C 290.278 124.404 289.875 123.001 289.875 121.106 L 289.875 114.473 L 287.976 114.473 L 287.976 110.312 L 289.875 110.312 L 289.875 106.142 L 295.34 105.252 L 295.34 110.312 L 298.802 110.312 L 298.802 114.473 L 295.34 114.473 L 295.34 120.736 C 295.34 121.777 295.831 122.299 296.809 122.299 M 306.276 116.363 C 306.352 115.482 306.602 114.834 307.032 114.423 C 307.465 114.011 307.996 113.805 308.634 113.805 C 309.329 113.805 309.882 114.038 310.292 114.502 C 310.705 114.965 310.917 115.585 310.936 116.363 L 306.276 116.363 Z M 313.924 111.923 C 312.636 110.659 310.808 110.028 308.441 110.028 C 305.954 110.028 304.039 110.753 302.698 112.207 C 301.356 113.662 300.686 115.746 300.686 118.464 C 300.686 121.096 301.409 123.126 302.858 124.549 C 304.306 125.974 306.337 126.689 308.954 126.689 C 310.212 126.689 311.293 126.602 312.2 126.433 C 313.101 126.264 313.972 125.957 314.818 125.517 L 313.986 121.89 C 313.37 122.143 312.786 122.334 312.233 122.463 C 311.434 122.647 310.557 122.739 309.605 122.739 C 308.561 122.739 307.735 122.484 307.128 121.974 C 306.524 121.461 306.202 120.756 306.166 119.855 L 315.86 119.855 L 315.86 117.385 C 315.86 115.008 315.216 113.187 313.924 111.925 M 230.785 116.363 C 230.859 115.482 231.111 114.834 231.541 114.423 C 231.971 114.011 232.505 113.805 233.144 113.805 C 233.835 113.805 234.387 114.038 234.8 114.502 C 235.214 114.965 235.426 115.585 235.447 116.363 L 230.785 116.363 Z M 238.434 111.923 C 237.145 110.659 235.315 110.028 232.949 110.028 C 230.461 110.028 228.546 110.753 227.208 112.207 C 225.865 113.662 225.195 115.746 225.195 118.464 C 225.195 121.096 225.919 123.126 227.366 124.549 C 228.815 125.974 230.847 126.689 233.463 126.689 C 234.719 126.689 235.8 126.602 236.707 126.433 C 237.609 126.264 238.48 125.957 239.328 125.517 L 238.495 121.89 C 237.879 122.143 237.295 122.334 236.743 122.463 C 235.943 122.647 235.066 122.739 234.114 122.739 C 233.069 122.739 232.243 122.484 231.638 121.974 C 231.031 121.461 230.711 120.756 230.674 119.855 L 240.369 119.855 L 240.369 117.385 C 240.369 115.008 239.725 113.187 238.434 111.925"/>
  </g>
  <g clip-path="url(#k)" transform="matrix(0.789717972278595, 0, 0, -0.789717972278595, 129.43130493164062, 151.08021545410156)">
    <g mask="url(#l)">
      <path fill="url(#m)" d="M100.67 232.574c-5.627-3.291-7.542-10.542-4.242-16.17a11.529 11.529 0 0 1 3.301-3.615l-7.793-23.183c-16.028-3.443-30.077-12.144-40.294-24.223l-22.924 4.286a11.888 11.888 0 0 1-1.536 5.217c-3.291 5.628-10.543 7.512-16.17 4.221-5.628-3.29-7.533-10.542-4.243-16.149 3.009-5.151 9.329-7.164 14.676-4.934l16.083-18.4c-2.078-6.775-3.181-13.961-3.181-21.431 0-7.987 1.342-15.649 3.723-22.837 1.276-.021 2.522-.129 3.809-.129 5.682 0 11.278.196 16.82.563-3.161 6.84-5.044 14.373-5.044 22.403 0 29.679 24.049 53.748 53.726 53.748 26.408 0 48.26-19.113 52.774-44.223 6.093 4.135 11.667 8.551 16.602 13.291-.064.151-.074.325-.129.498l13.659 16.149c.119-.044.26-.066.379-.108 4.416 6.731 7.587 13.852 9.556 21.234-3.495 1.84-7.738 2.1-11.396-.043-3.313-1.948-5.293-5.282-5.726-8.832l-20.477-3.917c-10.585 12.23-25.132 20.888-41.669 24.005l-7.772 22.555c5.142 3.442 6.83 10.348 3.659 15.781a11.859 11.859 0 0 1-10.234 5.856c-2.023 0-4.07-.52-5.937-1.613"/>
    </g>
  </g>
  <g clip-path="url(#g)" transform="matrix(0.22618500888347626, 0, 0, -0.22618500888347626, 214.82289123535156, 139.19256591796875)">
    <path fill="#0eb1e4" fill-rule="evenodd" d="M84.37 259.072c3.25 4.648 6.387 6.268 8.428 3.558 6.604-8.766 16.098-13.39 25.751-13.871 9.653.482 19.148 5.105 25.752 13.87 2.041 2.71 5.178 1.09 8.427-3.557 14.936-21.373 16.961-42.467 7.58-56.955 18.425-18.712 13.306-44.335 6.683-56.691-2.845-5.307-3.956-4.904-7.1-2.06-.978.883-2.11 1.91-3.384 3.074-1.646-6.406-3.2-10.755-6.063-16.792-3.829-8.074-12.206-9.443-12.677.077H99.331c-.47-9.52-8.848-8.151-12.676-.077-2.863 6.037-4.418 10.386-6.063 16.792a1006.18 1006.18 0 0 0-3.383-3.074c-3.145-2.844-4.256-3.247-7.1 2.06-6.625 12.356-11.743 37.979 6.681 56.69-9.38 14.489-7.356 35.583 7.58 56.956"/>
    <path fill="#158bc2" fill-rule="evenodd" d="M118.55 248.76c9.652.481 19.147 5.103 25.75 13.87 2.041 2.71 5.18 1.09 8.428-3.558 14.936-21.374 16.961-42.468 7.58-56.955 18.425-18.712 13.306-44.335 6.683-56.69-2.845-5.309-3.956-4.906-7.102-2.06-.976.881-2.108 1.91-3.382 3.072-1.646-6.405-3.2-10.755-6.063-16.79-3.829-8.075-12.206-9.444-12.677.075H118.55v55.486c0 1.644 1.001 2.917-4.972 3.641-14.048 1.703-27.2 10.362-31.632 22.716a22.948 22.948 0 0 0-1.36 7.77c0 5.292 2.378 9.896 6.616 13.037 7.755 5.748 19.62 3.804 24.642-4.652 2.843-4.787 3.254-10.717 3.84-16.12.216-2.01.38-4.142.731-6.128.164-.93.42-2.232 1.371-2.68.514-.24.181-.16.764-.16z"/>
    <path fill="#0eb1e4" fill-rule="evenodd" d="M110.582 101.324c-.436-.98-1.648-7.338-3.126-8.29-5.349-3.444-20.937 34.846-21.954 39.11 18.74 1.757 47.37 1.794 66.11.038-.996-4.186-16.554-42.634-21.968-39.148-1.478.952-2.69 7.31-3.127 8.29-.781-2.347-4.06-16.9-8.377-15.908-4.221.97-6.55 12.882-7.557 15.908"/>
    <path fill="#158bc2" fill-rule="evenodd" d="M118.55 133.48c11.844.009 23.69-.42 33.062-1.298-.279-1.173-1.7-5.033-3.722-9.907l-.025-.06-.002-.004-.026-.064-.028-.065-.026-.064-.027-.065-.027-.065-.027-.065-.055-.13-.026-.066-.029-.065-.027-.065-.027-.066-.018-.042-.01-.024-.027-.066-.028-.066-.028-.066-.028-.065-.027-.066-.028-.067-.028-.067-.056-.132-.028-.067-.028-.067-.029-.067-.01-.024-.019-.043-.028-.067-.028-.067-.057-.135-.028-.067-.058-.135-.029-.068-.029-.067-.029-.069-.029-.067-.03-.069-.002-.004-.027-.064-.029-.068-.028-.068-.266-.619-.024-.053-.006-.016-.03-.069-.03-.069-.12-.278-.03-.069-.122-.28-.03-.069c-5.3-12.159-12.939-27.17-16.414-24.931-1.477.952-2.69 7.31-3.127 8.29-.756-2.272-3.853-15.984-7.967-15.956v33.046c0 2.078-.246 4.92-5.336 4.795-7.397-.181-16.15-1.163-23.494-2.134-.658 1.508-1.829 4.539-2.403 5.921 9.252 1.155 20.984 1.776 31.184 1.776h.05z"/>
    <path fill="#fff" fill-rule="evenodd" d="M118.55 192.932c2.028 0 4.057.15 6.066.436 14.764 2.11 31.898 12.901 31.898 29.487 0 5.292-2.38 9.896-6.617 13.037-7.755 5.748-19.62 3.804-24.64-4.652-2.844-4.787-3.256-10.717-3.84-16.12-.218-2.01-.382-4.142-.733-6.127-.163-.932-.42-2.233-1.37-2.68-.515-.242-.182-.162-.765-.162s-.25-.08-.765.161c-.95.448-1.207 1.75-1.37 2.681-.35 1.985-.515 4.116-.732 6.126-.585 5.404-.996 11.334-3.839 16.121-5.022 8.456-16.887 10.4-24.642 4.652-4.237-3.14-6.617-7.745-6.617-13.037 0-2.658.464-5.269 1.361-7.77 5.085-14.166 22.298-22.153 36.604-22.153"/>
    <path fill="#ddf4f9" fill-rule="evenodd" d="M118.55 192.933c2.028 0 4.058.149 6.066.436 14.764 2.109 31.899 12.9 31.899 29.487 0 5.292-2.38 9.895-6.618 13.036-7.754 5.749-19.62 3.804-24.641-4.651-2.843-4.787-3.255-10.718-3.84-16.121-.217-2.01-.381-4.141-.731-6.127-.164-.931-.42-2.232-1.37-2.68-.515-.242-.182-.161-.765-.161z"/>
    <path fill="#35393b" fill-rule="evenodd" d="M135.872 229.223a7.26 7.26 0 1 0 0-14.521 7.26 7.26 0 0 0-7.26 7.26 7.26 7.26 0 0 0 7.26 7.26m-34.646 0a7.26 7.26 0 1 0 .001-14.52 7.26 7.26 0 0 0 0 14.52"/>
    <path fill="#fff" fill-rule="evenodd" d="M103.542 226.099a2.104 2.104 0 1 0-.001-4.208 2.104 2.104 0 0 0 .001 4.208m34.758 0a2.104 2.104 0 1 0-.001-4.208 2.104 2.104 0 0 0 0 4.208m-19.749-40.631c-10.678 0-19.368-8.514-19.652-19.123-.298.019-.598.029-.902.029-7.756 0-14.045-6.288-14.045-14.044 0-7.757 6.289-14.046 14.045-14.046h41.108c7.756 0 14.044 6.289 14.044 14.046 0 7.756-6.288 14.044-14.044 14.044-3.671 0-6.921-1.084-9.658-3.585 1.402 3.206 4.256 6.153 8.136 7.958-2.19 8.468-9.881 14.72-19.032 14.72"/>
    <path fill="#35393b" d="M37.452 19.515c-2.616 0-5.016.812-7.186 2.266-1.843 1.233-3.37 2.782-4.533 4.67-.522.847-.669 1.776-.43 2.726a3.602 3.602 0 0 0 1.607 2.303c.852.518 1.792.656 2.761.427a3.529 3.529 0 0 0 2.263-1.637c.587-.955 1.408-1.724 2.33-2.352.952-.65 2.02-1.112 3.188-1.112 1.201 0 2.252.354 3.163 1.165.82.698 1.281 1.553 1.281 2.642 0 .886-.22 1.719-.956 2.269-.966.722-3.33 1.374-4.49 1.692-2.228.609-4.978 1.512-6.864 2.88-2.707 1.966-3.89 4.73-3.89 8.03 0 3.117 1.212 5.738 3.477 7.866 2.318 2.18 5.1 3.232 8.28 3.232 2.31 0 4.473-.595 6.44-1.808a11.049 11.049 0 0 0 4.311-4.853c.423-.912.47-1.862.12-2.806-.35-.945-1-1.621-1.915-2.038a3.565 3.565 0 0 0-2.766-.106c-.94.34-1.633.99-2.065 1.907-.339.755-.898 1.328-1.584 1.749a5.015 5.015 0 0 1-2.542.664c-1.209 0-2.273-.357-3.188-1.158-.808-.707-1.246-1.57-1.246-2.648 0-.846.197-1.674.88-2.195.975-.695 3.347-1.347 4.505-1.67 2.21-.614 5.03-1.524 6.896-2.894 2.703-1.982 3.888-4.793 3.888-8.113 0-3.112-1.183-5.744-3.445-7.876-2.312-2.18-5.12-3.222-8.29-3.222m32.241 37.067c5.06 0 9.354-1.863 12.9-5.464 3.572-3.628 5.35-8.016 5.35-13.107 0-5.084-1.778-9.457-5.35-13.075-3.546-3.59-7.854-5.421-12.9-5.421-5.045 0-9.349 1.828-12.887 5.42-3.569 3.626-5.36 7.988-5.36 13.076 0 5.096 1.791 9.47 5.36 13.107 3.538 3.605 7.828 5.464 12.887 5.464m26.983 12.086c1.008 0 1.874-.373 2.582-1.09.702-.707 1.053-1.58 1.053-2.576V23.139c0-.992-.356-1.857-1.064-2.58-.716-.69-1.576-1.044-2.57-1.044-1 0-1.873.352-2.603 1.054-.706.707-1.054 1.573-1.054 2.57v41.863c0 1 .345 1.87 1.054 2.58.715.716 1.59 1.086 2.602 1.086m26.961-12.086c5.058 0 9.353-1.863 12.898-5.464 3.572-3.628 5.35-8.016 5.35-13.107 0-5.084-1.777-9.457-5.35-13.075-3.545-3.59-7.854-5.421-12.898-5.421-5.046 0-9.35 1.828-12.889 5.42-3.568 3.626-5.359 7.988-5.359 13.076 0 5.096 1.791 9.47 5.36 13.107 3.538 3.605 7.828 5.464 12.888 5.464m43.072 12.02c.77 0 1.501-.201 2.176-.568a4.268 4.268 0 0 0 1.694-1.68 4.51 4.51 0 0 0 .607-2.238c0-.785-.214-1.527-.593-2.212a4.23 4.23 0 0 0-1.668-1.67 4.474 4.474 0 0 0-2.216-.595c-.795 0-1.537.205-2.229.597-.706.4-1.272.957-1.666 1.668a4.533 4.533 0 0 0-.592 2.212c0 .789.212 1.54.59 2.23.4.73.971 1.294 1.703 1.689a4.584 4.584 0 0 0 2.194.568m0-12.021a3.487 3.487 0 0 0 2.56-1.077 3.483 3.483 0 0 0 1.096-2.59V23.139c0-1.008-.369-1.88-1.087-2.57-.705-.704-1.573-1.054-2.569-1.054-1 0-1.867.348-2.578 1.052-.71.704-1.089 1.568-1.089 2.572v29.776c0 1.004.376 1.883 1.082 2.577.706.718 1.575 1.09 2.585 1.09m26.852 0c5.06 0 9.354-1.864 12.9-5.464 3.571-3.628 5.348-8.016 5.348-13.107 0-5.084-1.777-9.457-5.35-13.075-3.544-3.588-7.853-5.421-12.898-5.421-5.046 0-9.35 1.828-12.887 5.42-3.569 3.626-5.36 7.988-5.36 13.076 0 5.096 1.791 9.47 5.36 13.107 3.538 3.605 7.828 5.464 12.887 5.464M151.436 28.48a4.52 4.52 0 0 0 2.176-.57 4.269 4.269 0 0 0 1.694-1.678 4.516 4.516 0 0 0 .608-2.24c0-.785-.215-1.527-.594-2.211a4.226 4.226 0 0 0-1.668-1.67 4.471 4.471 0 0 0-2.216-.596c-.795 0-1.537.205-2.228.597-.706.4-1.273.958-1.666 1.669a4.539 4.539 0 0 0-.593 2.212c0 .789.213 1.54.592 2.23.398.729.97 1.294 1.701 1.688.681.368 1.42.569 2.194.569m-81.743-1.674c3.046 0 5.612 1.093 7.74 3.27 2.157 2.21 3.218 4.85 3.218 7.935 0 3.1-1.049 5.757-3.218 7.978-2.128 2.178-4.694 3.27-7.74 3.27-3.044 0-5.612-1.09-7.739-3.27-2.163-2.22-3.217-4.881-3.217-7.978 0-3.081 1.067-5.727 3.217-7.934 2.127-2.182 4.695-3.271 7.74-3.271m53.943 0c3.044 0 5.61 1.093 7.74 3.27 2.156 2.21 3.217 4.85 3.217 7.935 0 3.1-1.049 5.757-3.218 7.978-2.129 2.178-4.695 3.27-7.739 3.27-3.045 0-5.613-1.09-7.74-3.27-2.163-2.22-3.217-4.881-3.217-7.978 0-3.081 1.066-5.727 3.217-7.934 2.127-2.182 4.695-3.271 7.74-3.271m69.924 0c3.045 0 5.612 1.093 7.74 3.27 2.156 2.209 3.217 4.85 3.217 7.935 0 3.1-1.049 5.758-3.217 7.978-2.128 2.177-4.695 3.27-7.74 3.27s-5.614-1.09-7.739-3.27c-2.163-2.22-3.218-4.881-3.218-7.978 0-3.081 1.068-5.727 3.218-7.934 2.126-2.181 4.694-3.271 7.74-3.271"/>
    <path fill="#c18e2e" fill-rule="evenodd" d="M43.919 142.985c.552 3.97 3.45 8.031 7.459 8.968 2.247-1.69 4.516-3.349 6.848-4.92 3.608-2.43 7.327-4.594 11.169-6.632 6.208-3.295 8.143-5.239 15.555-4.09 11.164 1.733 22.485 2.56 33.781 2.56 14.163 0 28.403-1.296 42.298-4.067 12.542-2.5 25.04-6.259 36.681-11.599.544-4.155-.968-8.6-4.81-10.609-10.829 4.967-22.488 8.434-34.15 10.76-13.146 2.621-26.62 3.836-40.019 3.836-13.398 0-26.873-1.215-40.018-3.836-11.676-2.329-23.349-5.8-34.187-10.777-4.744 2.062-5.972 5.7-4.833 10.6 6.313 2.898 12.856 5.317 19.503 7.328l2.557.774-2.303 1.355c-5.362 3.155-10.568 6.596-15.532 10.35"/>
    <path fill="#a96c25" fill-rule="evenodd" d="M43.919 142.308c.25 1.795.979 3.61 2.074 5.145 7.251-5.528 14.813-10.97 22.847-15.087l-7.087-1.762-2.303 1.356c-5.363 3.155-10.568 6.595-15.532 10.348m152.59-26.131c-.812-1.485-2.01-2.744-3.608-3.582-10.83 4.968-22.488 8.435-34.151 10.761-13.144 2.621-26.62 3.836-40.017 3.836-13.398 0-26.873-1.215-40.018-3.836-11.677-2.329-23.35-5.8-34.187-10.777-2.007.872-3.386 2.027-4.221 3.44 17.999 9.433 46.352 15.518 78.252 15.518 31.72 0 59.936-6.017 77.95-15.36"/>
  </g>
  <path fill="#141820" d="M 407.462 292.671 L 428.284 292.671 L 428.284 280.582 L 407.462 280.582 L 407.462 271.079 L 430.494 271.079 L 422.853 257.835 L 390.192 257.835 L 390.192 315.418 L 436.255 315.418 L 436.255 302.174 L 407.462 302.174 L 407.462 292.671 M 466.916 257.835 L 457.132 276.625 L 447.373 257.835 L 428.281 257.835 L 448.402 292.671 L 448.402 315.418 L 465.62 315.418 L 465.62 292.671 L 485.764 257.835 L 466.916 257.835"/>
  <path fill="#fee502" d="M 503.031 199.016 L 389.198 240.562 L 503.031 220.453 L 503.031 199.016 Z"/>
</svg>