<svg xmlns="http://www.w3.org/2000/svg" viewBox="0 0 98.89 13.518"><path d="M0 10.54v-.985h1.379V1.706H0V.721h3.939v.985H2.56v7.849h1.379v.985zM6.091.721h4.037c1.618 0 2.616.999 2.616 2.532 0 1.463-.942 1.984-1.589 2.082v.085c.703.042 1.927.647 1.927 2.279 0 1.617-1.083 2.841-2.532 2.841H6.091zm1.181 4.248h2.715c.929 0 1.491-.492 1.491-1.364v-.478c0-.872-.562-1.365-1.491-1.365H7.272zm0 4.53h2.912c1.013 0 1.632-.535 1.632-1.519v-.478c0-.985-.619-1.52-1.632-1.52H7.272zM15.277.721h1.575l2.813 5.29h.071l2.827-5.29h1.519v9.819h-1.153V2.269h-.07l-.83 1.646-2.349 4.276-2.35-4.276-.83-1.646h-.07v8.271h-1.153zm13.574 4.98c0-3.32 1.702-5.148 4.347-5.148 1.8 0 2.954.731 3.671 2.307l-1.843.956c-.253-.816-.773-1.364-1.828-1.364-1.252 0-2.082.844-2.082 2.391v1.575c0 1.548.83 2.392 2.082 2.392 1.055 0 1.66-.661 1.955-1.463l1.744 1.013c-.731 1.491-1.899 2.349-3.699 2.349-2.645 0-4.347-1.688-4.347-5.008m8.961 1.139c0-2.377 1.294-3.854 3.46-3.854s3.46 1.477 3.46 3.854c0 2.378-1.294 3.869-3.46 3.869s-3.46-1.491-3.46-3.869m4.754.76V6.095c0-.929-.478-1.463-1.294-1.463s-1.294.534-1.294 1.463V7.6c0 .929.478 1.463 1.294 1.463s1.294-.534 1.294-1.463m3.643 2.94V3.155h2.082v1.252h.085c.267-.774.886-1.421 2.054-1.421 1.505 0 2.306 1.069 2.306 2.926v4.628h-2.081V6.081c0-.943-.268-1.407-1.027-1.407-.676 0-1.337.352-1.337 1.083v4.783zm7.779-1.153 1.224-1.238c.521.576 1.154.942 1.955.942.816 0 1.098-.267 1.098-.703 0-.366-.225-.549-.746-.619l-.802-.099c-1.674-.211-2.489-.942-2.489-2.278 0-1.421 1.111-2.406 2.869-2.406 1.547 0 2.265.422 3.01 1.154l-1.195 1.223c-.464-.464-1.083-.759-1.702-.759-.704 0-.985.253-.985.619 0 .394.169.605.774.689l.83.112c1.603.212 2.433.943 2.433 2.223 0 1.421-1.266 2.462-3.165 2.462-1.421 0-2.349-.479-3.109-1.322m12.056-.085h-.071c-.253.746-.858 1.407-2.068 1.407-1.505 0-2.307-1.055-2.307-2.912V3.155h2.082v4.459c0 .9.296 1.407 1.055 1.407.647 0 1.309-.366 1.309-1.069V3.155h2.081v7.385h-2.081zm6.09 1.238c-1.42 0-2.067-.717-2.067-2.026V.131h2.082v8.791h.928v1.618zm4.713 0c-1.435 0-2.194-.746-2.194-2.152V4.773h-1.041V3.155h.52c.563 0 .732-.282.732-.788v-1.21h1.87v1.998h1.463v1.618h-1.463v4.149h1.351v1.618zm2.63-9.2v-.309c0-.591.366-1.027 1.21-1.027s1.21.436 1.21 1.027v.309c0 .591-.366 1.027-1.21 1.027s-1.21-.436-1.21-1.027m.169 1.815h2.082v7.385h-2.082zm4.023 7.385V3.155h2.082v1.252h.085c.267-.774.886-1.421 2.053-1.421 1.506 0 2.307 1.069 2.307 2.926v4.628h-2.082V6.081c0-.943-.267-1.407-1.027-1.407-.675 0-1.336.352-1.336 1.083v4.783zm11.226 2.982c-2.561 0-3.503-.647-3.503-1.716 0-.816.52-1.294 1.378-1.407v-.154c-.703-.127-1.069-.661-1.069-1.295 0-.773.69-1.167 1.379-1.308v-.056c-.886-.408-1.322-1.153-1.322-2.11 0-1.491 1.041-2.49 3.165-2.49.464 0 .886.042 1.252.141v-.282c0-.773.408-1.111 1.111-1.111h1.168v1.548h-1.632v.084c.858.408 1.266 1.167 1.266 2.11 0 1.477-1.027 2.448-3.165 2.448a5.24 5.24 0 0 1-1.309-.155.691.691 0 0 0-.323.591c0 .351.253.562.886.562h2.138c1.801 0 2.575.788 2.575 2.153 0 1.561-.985 2.447-3.995 2.447m.9-2.827h-2.532a.948.948 0 0 0-.267.661c0 .534.422.788 1.547.788h.844c1.125 0 1.547-.254 1.547-.788 0-.422-.309-.661-1.139-.661m.351-5.149v-.168c0-.648-.407-1.013-1.223-1.013s-1.224.365-1.224 1.013v.168c0 .647.408 1.013 1.224 1.013s1.223-.366 1.223-1.013"/></svg>